0, 0, Header, 1, 19, 120
1, 0, Start_track
1, 0, Title_t, "Symphony n\260 1 in C major"
1, 0, Title_t, "II - Andante cantabile con moto"
1, 0, Copyright_t, "Copyright \251 2001 by J.F. Lucarelli - j-f.lucarelli@infonie.be  --  http://perso.infonie.fr/espace-midi"
1, 0, Text_t, "L. Van Beethoven (1770-1827)"
1, 0, Text_t, "Partition compl\350te - dur\351e : 00:08:53\012"
1, 0, Text_t, "D\351but du travail : 22 novembre 2000\012"
1, 0, Text_t, "Fin de la version 0 : 23 d\351cembre 2000\012"
1, 0, Text_t, "Version 1.0 : 31 janvier 2001\012"
1, 0, Text_t, "Version 1.01 : 2 juin 2001 : r\351vision avant publication\012"
1, 0, Text_t, "Version 1.02 : 3 juin 2001 : balance des bois\012"
1, 0, Text_t, "Dur\351e d'\351dition et d'audition : 18 h\012"
1, 0, Text_t, "-----\012"
1, 0, Text_t, "Full score - length : 00:08:53\012"
1, 0, Text_t, "Beginning of writing : 22 november 2000\012"
1, 0, Text_t, "End of version 0 : 23 december 2000\012"
1, 0, Text_t, "Version 1.0 : 31 january 2001\012"
1, 0, Text_t, "Version 1.01 : 2 juni 2001 : revision before publication\012"
1, 0, Text_t, "Version 1.02 : 3 juni 2001 : balance of woodwinds\012"
1, 0, Text_t, "Editing and audition time : 18 h\012"
1, 0, Time_signature, 3, 3, 12, 8
1, 0, Key_signature, -1, "major"
1, 0, Tempo, 500000
1, 0, Marker_t, "L. Van Beethoven : Symphony n\260 1 in C"
1, 120, Tempo, 1379310
1, 180, Tempo, 1411765
1, 180, Marker_t, "Andante cantabile con moto"
1, 240, Tempo, 1304348
1, 360, Tempo, 1411765
1, 420, Tempo, 1304348
1, 540, Tempo, 1411765
1, 600, Tempo, 1304348
1, 720, Tempo, 1411765
1, 780, Tempo, 1304348
1, 900, Tempo, 1411765
1, 960, Tempo, 1304348
1, 1080, Tempo, 1411765
1, 1140, Tempo, 1304348
1, 1245, Tempo, 1846154
1, 1260, Tempo, 1411765
1, 1320, Tempo, 1304348
1, 1440, Tempo, 1411765
1, 1500, Tempo, 1304348
1, 1620, Tempo, 1411765
1, 1680, Tempo, 1304348
1, 1800, Tempo, 1411765
1, 1860, Tempo, 1304348
1, 1980, Tempo, 1411765
1, 2040, Tempo, 1304348
1, 2160, Tempo, 1411765
1, 2220, Tempo, 1304348
1, 2325, Tempo, 1846154
1, 2340, Tempo, 1411765
1, 2400, Tempo, 1304348
1, 2520, Tempo, 1411765
1, 2580, Tempo, 1304348
1, 2700, Tempo, 1411765
1, 2760, Tempo, 1304348
1, 2880, Tempo, 1411765
1, 2940, Tempo, 1304348
1, 3060, Tempo, 1411765
1, 3120, Tempo, 1304348
1, 3240, Tempo, 1411765
1, 3300, Tempo, 1304348
1, 4140, Tempo, 1411765
1, 4200, Tempo, 1304348
1, 4320, Tempo, 1411765
1, 4380, Tempo, 1304348
1, 4500, Tempo, 1395349
1, 4680, Tempo, 1690141
1, 4740, Tempo, 1846154
1, 4800, Tempo, 1333333
1, 4860, Tempo, 1411765
1, 4920, Tempo, 1304348
1, 5040, Tempo, 1411765
1, 5100, Tempo, 1304348
1, 5220, Tempo, 1411765
1, 5280, Tempo, 1304348
1, 5400, Tempo, 1411765
1, 5460, Tempo, 1304348
1, 5580, Tempo, 1411765
1, 5640, Tempo, 1304348
1, 5760, Tempo, 1411765
1, 5820, Tempo, 1304348
1, 5940, Tempo, 1411765
1, 6000, Tempo, 1304348
1, 6060, Tempo, 1445783
1, 6120, Tempo, 1500000
1, 6180, Tempo, 1445783
1, 6240, Tempo, 1348315
1, 6300, Tempo, 1411765
1, 6360, Tempo, 1304348
1, 6480, Tempo, 1411765
1, 6540, Tempo, 1304348
1, 6660, Tempo, 1411765
1, 6720, Tempo, 1304348
1, 6840, Tempo, 1411765
1, 6900, Tempo, 1304348
1, 7020, Tempo, 1411765
1, 7200, Tempo, 1463415
1, 7260, Tempo, 1379310
1, 7315, Tempo, 1481481
1, 7350, Tempo, 1600000
1, 7365, Tempo, 2142857
1, 7380, Tempo, 1463415
1, 7440, Tempo, 1363636
1, 7470, Tempo, 1481481
1, 7500, Tempo, 1363636
1, 7545, Tempo, 1791045
1, 7560, Tempo, 1538462
1, 7605, Tempo, 1411765
1, 7620, Tempo, 1304348
1, 7740, Tempo, 1411765
1, 7800, Tempo, 1304348
1, 7920, Tempo, 1411765
1, 7980, Tempo, 1304348
1, 8100, Tempo, 1411765
1, 8160, Tempo, 1304348
1, 8280, Tempo, 1411765
1, 8340, Tempo, 1304348
1, 8460, Tempo, 1411765
1, 8520, Tempo, 1304348
1, 8640, Tempo, 1411765
1, 8700, Tempo, 1304348
1, 8820, Tempo, 1463415
1, 8880, Tempo, 1363636
1, 9000, Tempo, 1463415
1, 9060, Tempo, 1363636
1, 9180, Tempo, 1463415
1, 9240, Tempo, 1363636
1, 9360, Tempo, 1463415
1, 9420, Tempo, 1304348
1, 9720, Tempo, 1333333
1, 9740, Tempo, 1263158
1, 9780, Tempo, 1411765
1, 9800, Tempo, 1318681
1, 9840, Tempo, 1333333
1, 9860, Tempo, 1263158
1, 9900, Tempo, 1411765
1, 9920, Tempo, 1318681
1, 9960, Tempo, 1333333
1, 9980, Tempo, 1263158
1, 10020, Tempo, 1411765
1, 10040, Tempo, 1318681
1, 10080, Tempo, 1333333
1, 10100, Tempo, 1263158
1, 10140, Tempo, 1411765
1, 10160, Tempo, 1318681
1, 10200, Tempo, 1333333
1, 10220, Tempo, 1263158
1, 10260, Tempo, 1411765
1, 10280, Tempo, 1318681
1, 10320, Tempo, 1333333
1, 10340, Tempo, 1263158
1, 10380, Tempo, 1411765
1, 10400, Tempo, 1318681
1, 10440, Tempo, 1333333
1, 10460, Tempo, 1263158
1, 10500, Tempo, 1411765
1, 10520, Tempo, 1318681
1, 10560, Tempo, 1333333
1, 10580, Tempo, 1263158
1, 10620, Tempo, 1411765
1, 10640, Tempo, 1318681
1, 10680, Tempo, 1333333
1, 10700, Tempo, 1263158
1, 10740, Tempo, 1411765
1, 10760, Tempo, 1318681
1, 10860, Tempo, 1333333
1, 10920, Tempo, 1363636
1, 10980, Tempo, 1463415
1, 11220, Tempo, 1714286
1, 11280, Tempo, 1538462
1, 11340, Tempo, 1428571
1, 11460, Tempo, 1481481
1, 11520, Tempo, 1621622
1, 11580, Tempo, 2142857
1, 11640, Tempo, 1379310
1, 11700, Tempo, 1411765
1, 11760, Tempo, 1304348
1, 11880, Tempo, 1411765
1, 11940, Tempo, 1304348
1, 12060, Tempo, 1411765
1, 12120, Tempo, 1304348
1, 12240, Tempo, 1411765
1, 12300, Tempo, 1304348
1, 12420, Tempo, 1411765
1, 12480, Tempo, 1304348
1, 12600, Tempo, 1411765
1, 12660, Tempo, 1304348
1, 12765, Tempo, 1846154
1, 12780, Tempo, 1411765
1, 12840, Tempo, 1304348
1, 12960, Tempo, 1411765
1, 13020, Tempo, 1304348
1, 13140, Tempo, 1411765
1, 13200, Tempo, 1304348
1, 13320, Tempo, 1411765
1, 13380, Tempo, 1304348
1, 13500, Tempo, 1411765
1, 13560, Tempo, 1304348
1, 13680, Tempo, 1411765
1, 13740, Tempo, 1304348
1, 13845, Tempo, 1846154
1, 13860, Tempo, 1411765
1, 13920, Tempo, 1304348
1, 14040, Tempo, 1411765
1, 14100, Tempo, 1304348
1, 14220, Tempo, 1411765
1, 14280, Tempo, 1304348
1, 14400, Tempo, 1411765
1, 14460, Tempo, 1304348
1, 14580, Tempo, 1411765
1, 14640, Tempo, 1304348
1, 14760, Tempo, 1411765
1, 14820, Tempo, 1304348
1, 15660, Tempo, 1411765
1, 15720, Tempo, 1304348
1, 15840, Tempo, 1411765
1, 15900, Tempo, 1304348
1, 16020, Tempo, 1395349
1, 16200, Tempo, 1690141
1, 16260, Tempo, 1846154
1, 16320, Tempo, 1333333
1, 16380, Tempo, 1411765
1, 16440, Tempo, 1304348
1, 16560, Tempo, 1411765
1, 16620, Tempo, 1304348
1, 16740, Tempo, 1411765
1, 16800, Tempo, 1304348
1, 16920, Tempo, 1411765
1, 16980, Tempo, 1304348
1, 17100, Tempo, 1411765
1, 17160, Tempo, 1304348
1, 17280, Tempo, 1411765
1, 17340, Tempo, 1304348
1, 17460, Tempo, 1411765
1, 17520, Tempo, 1304348
1, 17580, Tempo, 1445783
1, 17640, Tempo, 1500000
1, 17700, Tempo, 1445783
1, 17760, Tempo, 1348315
1, 17820, Tempo, 1411765
1, 17880, Tempo, 1304348
1, 18000, Tempo, 1411765
1, 18060, Tempo, 1304348
1, 18180, Tempo, 1411765
1, 18240, Tempo, 1304348
1, 18360, Tempo, 1411765
1, 18420, Tempo, 1304348
1, 18540, Tempo, 1411765
1, 18720, Tempo, 1463415
1, 18780, Tempo, 1379310
1, 18835, Tempo, 1481481
1, 18870, Tempo, 1600000
1, 18885, Tempo, 2142857
1, 18900, Tempo, 1463415
1, 18960, Tempo, 1363636
1, 18990, Tempo, 1481481
1, 19020, Tempo, 1363636
1, 19065, Tempo, 1791045
1, 19080, Tempo, 1538462
1, 19125, Tempo, 1411765
1, 19140, Tempo, 1304348
1, 19260, Tempo, 1411765
1, 19320, Tempo, 1304348
1, 19440, Tempo, 1411765
1, 19500, Tempo, 1304348
1, 19620, Tempo, 1411765
1, 19680, Tempo, 1304348
1, 19800, Tempo, 1411765
1, 19860, Tempo, 1304348
1, 19980, Tempo, 1411765
1, 20040, Tempo, 1304348
1, 20160, Tempo, 1411765
1, 20220, Tempo, 1304348
1, 20340, Tempo, 1463415
1, 20400, Tempo, 1363636
1, 20520, Tempo, 1463415
1, 20580, Tempo, 1363636
1, 20700, Tempo, 1463415
1, 20760, Tempo, 1363636
1, 20880, Tempo, 1463415
1, 20940, Tempo, 1304348
1, 21240, Tempo, 1333333
1, 21260, Tempo, 1263158
1, 21300, Tempo, 1411765
1, 21320, Tempo, 1318681
1, 21360, Tempo, 1333333
1, 21380, Tempo, 1263158
1, 21420, Tempo, 1411765
1, 21440, Tempo, 1318681
1, 21480, Tempo, 1333333
1, 21500, Tempo, 1263158
1, 21540, Tempo, 1411765
1, 21560, Tempo, 1318681
1, 21600, Tempo, 1333333
1, 21620, Tempo, 1263158
1, 21660, Tempo, 1411765
1, 21680, Tempo, 1318681
1, 21720, Tempo, 1333333
1, 21740, Tempo, 1263158
1, 21780, Tempo, 1411765
1, 21800, Tempo, 1318681
1, 21840, Tempo, 1333333
1, 21860, Tempo, 1263158
1, 21900, Tempo, 1411765
1, 21920, Tempo, 1318681
1, 21960, Tempo, 1333333
1, 21980, Tempo, 1263158
1, 22020, Tempo, 1411765
1, 22040, Tempo, 1318681
1, 22080, Tempo, 1333333
1, 22100, Tempo, 1263158
1, 22140, Tempo, 1411765
1, 22160, Tempo, 1318681
1, 22200, Tempo, 1333333
1, 22220, Tempo, 1263158
1, 22260, Tempo, 1411765
1, 22280, Tempo, 1318681
1, 22380, Tempo, 1333333
1, 22440, Tempo, 1363636
1, 22500, Tempo, 1463415
1, 22740, Tempo, 1714286
1, 22800, Tempo, 1538462
1, 22860, Tempo, 1428571
1, 22980, Tempo, 1481481
1, 23040, Tempo, 1621622
1, 23100, Tempo, 2142857
1, 23160, Tempo, 1445783
1, 23220, Tempo, 1411765
1, 23340, Tempo, 1304348
1, 23400, Tempo, 1411765
1, 23520, Tempo, 1304348
1, 23580, Tempo, 1411765
1, 23700, Tempo, 1304348
1, 23760, Tempo, 1411765
1, 23880, Tempo, 1304348
1, 23940, Tempo, 1411765
1, 24060, Tempo, 1304348
1, 24120, Tempo, 1411765
1, 24180, Tempo, 1304348
1, 24300, Tempo, 1348315
1, 24360, Tempo, 1263158
1, 24480, Tempo, 1348315
1, 24540, Tempo, 1263158
1, 24660, Tempo, 1348315
1, 24720, Tempo, 1263158
1, 24840, Tempo, 1348315
1, 24900, Tempo, 1263158
1, 25020, Tempo, 1348315
1, 25080, Tempo, 1263158
1, 25200, Tempo, 1348315
1, 25260, Tempo, 1263158
1, 25380, Tempo, 1348315
1, 25440, Tempo, 1263158
1, 25560, Tempo, 1348315
1, 25620, Tempo, 1263158
1, 25740, Tempo, 1348315
1, 25800, Tempo, 1263158
1, 25920, Tempo, 1463415
1, 25980, Tempo, 1263158
1, 26100, Tempo, 1411765
1, 26160, Tempo, 1304348
1, 26280, Tempo, 1411765
1, 26340, Tempo, 1304348
1, 26460, Tempo, 1411765
1, 26520, Tempo, 1304348
1, 26640, Tempo, 1411765
1, 26700, Tempo, 1304348
1, 26820, Tempo, 1411765
1, 26880, Tempo, 1348315
1, 27000, Tempo, 1411765
1, 27060, Tempo, 1348315
1, 27180, Tempo, 1379310
1, 27900, Tempo, 1395349
1, 28080, Tempo, 1428571
1, 28245, Tempo, 1600000
1, 28260, Tempo, 1428571
1, 28500, Tempo, 1363636
1, 28560, Tempo, 1333333
1, 28605, Tempo, 1904762
1, 28620, Tempo, 1428571
1, 28845, Tempo, 1643836
1, 28860, Tempo, 1379310
1, 28965, Tempo, 1764706
1, 28980, Tempo, 1428571
1, 29640, Tempo, 1379310
1, 29670, Tempo, 1600000
1, 29700, Tempo, 1411765
1, 29760, Tempo, 1348315
1, 29880, Tempo, 1411765
1, 29940, Tempo, 1304348
1, 30060, Tempo, 1411765
1, 30120, Tempo, 1304348
1, 30240, Tempo, 1411765
1, 30300, Tempo, 1304348
1, 30420, Tempo, 1411765
1, 30480, Tempo, 1304348
1, 30600, Tempo, 1411765
1, 30660, Tempo, 1304348
1, 30765, Tempo, 1846154
1, 30780, Tempo, 1411765
1, 30840, Tempo, 1304348
1, 30960, Tempo, 1333333
1, 31020, Tempo, 1304348
1, 31140, Tempo, 1411765
1, 31200, Tempo, 1304348
1, 31320, Tempo, 1411765
1, 31380, Tempo, 1304348
1, 31500, Tempo, 1411765
1, 31560, Tempo, 1304348
1, 31680, Tempo, 1411765
1, 31740, Tempo, 1304348
1, 31845, Tempo, 1846154
1, 31860, Tempo, 1411765
1, 31920, Tempo, 1304348
1, 32040, Tempo, 1411765
1, 32100, Tempo, 1304348
1, 32220, Tempo, 1411765
1, 32280, Tempo, 1304348
1, 32400, Tempo, 1411765
1, 32460, Tempo, 1304348
1, 32580, Tempo, 1411765
1, 32640, Tempo, 1304348
1, 32760, Tempo, 1411765
1, 32820, Tempo, 1304348
1, 33660, Tempo, 1411765
1, 33720, Tempo, 1304348
1, 33840, Tempo, 1411765
1, 33900, Tempo, 1304348
1, 34020, Tempo, 1363636
1, 34200, Tempo, 1690141
1, 34260, Tempo, 1846154
1, 34320, Tempo, 1333333
1, 34380, Tempo, 1411765
1, 34440, Tempo, 1304348
1, 34560, Tempo, 1411765
1, 34620, Tempo, 1304348
1, 34740, Tempo, 1411765
1, 34800, Tempo, 1304348
1, 34920, Tempo, 1411765
1, 34980, Tempo, 1304348
1, 35100, Tempo, 1411765
1, 35160, Tempo, 1304348
1, 35280, Tempo, 1411765
1, 35340, Tempo, 1304348
1, 35460, Tempo, 1411765
1, 35520, Tempo, 1304348
1, 35640, Tempo, 1411765
1, 35700, Tempo, 1445783
1, 35760, Tempo, 1348315
1, 35820, Tempo, 1411765
1, 35880, Tempo, 1304348
1, 36000, Tempo, 1411765
1, 36060, Tempo, 1304348
1, 36180, Tempo, 1411765
1, 36240, Tempo, 1304348
1, 36360, Tempo, 1411765
1, 36420, Tempo, 1304348
1, 36540, Tempo, 1411765
1, 36720, Tempo, 1463415
1, 36780, Tempo, 1379310
1, 36835, Tempo, 1481481
1, 36870, Tempo, 1600000
1, 36885, Tempo, 2142857
1, 36900, Tempo, 1463415
1, 36960, Tempo, 1363636
1, 36990, Tempo, 1481481
1, 37020, Tempo, 1363636
1, 37065, Tempo, 1791045
1, 37080, Tempo, 1538462
1, 37125, Tempo, 1411765
1, 37140, Tempo, 1304348
1, 37260, Tempo, 1411765
1, 37320, Tempo, 1304348
1, 37440, Tempo, 1411765
1, 37500, Tempo, 1304348
1, 37620, Tempo, 1411765
1, 37680, Tempo, 1304348
1, 37800, Tempo, 1411765
1, 37860, Tempo, 1304348
1, 37980, Tempo, 1411765
1, 38040, Tempo, 1304348
1, 38160, Tempo, 1411765
1, 38220, Tempo, 1304348
1, 38340, Tempo, 1463415
1, 38400, Tempo, 1304348
1, 38520, Tempo, 1463415
1, 38580, Tempo, 1304348
1, 38700, Tempo, 1463415
1, 38760, Tempo, 1304348
1, 38880, Tempo, 1463415
1, 38940, Tempo, 1304348
1, 39240, Tempo, 1333333
1, 39260, Tempo, 1263158
1, 39300, Tempo, 1411765
1, 39320, Tempo, 1318681
1, 39360, Tempo, 1333333
1, 39380, Tempo, 1263158
1, 39420, Tempo, 1411765
1, 39440, Tempo, 1318681
1, 39480, Tempo, 1333333
1, 39500, Tempo, 1263158
1, 39540, Tempo, 1411765
1, 39560, Tempo, 1318681
1, 39600, Tempo, 1333333
1, 39620, Tempo, 1263158
1, 39660, Tempo, 1411765
1, 39680, Tempo, 1318681
1, 39720, Tempo, 1333333
1, 39740, Tempo, 1263158
1, 39780, Tempo, 1411765
1, 39800, Tempo, 1318681
1, 39840, Tempo, 1333333
1, 39860, Tempo, 1263158
1, 39900, Tempo, 1411765
1, 39920, Tempo, 1318681
1, 39960, Tempo, 1333333
1, 39980, Tempo, 1263158
1, 40020, Tempo, 1411765
1, 40040, Tempo, 1318681
1, 40080, Tempo, 1333333
1, 40100, Tempo, 1263158
1, 40140, Tempo, 1411765
1, 40160, Tempo, 1318681
1, 40200, Tempo, 1333333
1, 40220, Tempo, 1263158
1, 40260, Tempo, 1411765
1, 40280, Tempo, 1318681
1, 40380, Tempo, 1333333
1, 40440, Tempo, 1363636
1, 40500, Tempo, 1463415
1, 40740, Tempo, 1714286
1, 40800, Tempo, 1538462
1, 40860, Tempo, 1428571
1, 40980, Tempo, 1481481
1, 41040, Tempo, 1445783
1, 41100, Tempo, 1348315
1, 41220, Tempo, 1445783
1, 41280, Tempo, 1348315
1, 41400, Tempo, 1445783
1, 41460, Tempo, 1348315
1, 41580, Tempo, 1445783
1, 41640, Tempo, 1348315
1, 41760, Tempo, 1445783
1, 41820, Tempo, 1348315
1, 41940, Tempo, 1445783
1, 42000, Tempo, 1348315
1, 42120, Tempo, 1445783
1, 42180, Tempo, 1348315
1, 42270, Tempo, 1538462
1, 42300, Tempo, 1445783
1, 42360, Tempo, 1348315
1, 42480, Tempo, 1445783
1, 42540, Tempo, 1348315
1, 42660, Tempo, 1445783
1, 42720, Tempo, 1348315
1, 42840, Tempo, 1445783
1, 42900, Tempo, 1348315
1, 42990, Tempo, 1500000
1, 43020, Tempo, 1411765
1, 43080, Tempo, 1304348
1, 43200, Tempo, 1411765
1, 43260, Tempo, 1304348
1, 43380, Tempo, 1411765
1, 43440, Tempo, 1304348
1, 43560, Tempo, 1411765
1, 43620, Tempo, 1304348
1, 43740, Tempo, 1411765
1, 43800, Tempo, 1304348
1, 43920, Tempo, 1463415
1, 43980, Tempo, 1304348
1, 44100, Tempo, 1411765
1, 44280, Tempo, 1481481
1, 44340, Tempo, 1395349
1, 44460, Tempo, 1481481
1, 44520, Tempo, 1395349
1, 44640, Tempo, 1481481
1, 44700, Tempo, 1395349
1, 44820, Tempo, 1481481
1, 44880, Tempo, 1395349
1, 45000, Tempo, 1481481
1, 45060, Tempo, 1395349
1, 45180, Tempo, 1481481
1, 45240, Tempo, 1395349
1, 45360, Tempo, 1481481
1, 45420, Tempo, 1395349
1, 45540, Tempo, 1481481
1, 45600, Tempo, 1395349
1, 45720, Tempo, 1643836
1, 45750, Tempo, 1818182
1, 45765, Tempo, 1518987
1, 45780, Tempo, 1395349
1, 45900, Tempo, 1481481
1, 45960, Tempo, 1395349
1, 46080, Tempo, 1481481
1, 46140, Tempo, 1395349
1, 46260, Tempo, 1481481
1, 46320, Tempo, 1395349
1, 46380, Tempo, 1463415
1, 46440, Tempo, 1600000
1, 46500, Tempo, 1643836
1, 46560, Tempo, 1690141
1, 46620, Tempo, 1875000
1, 46700, Tempo, 2448980
1, 46800, Tempo, 600000
1, 46800, End_track
2, 0, Start_track
2, 0, MIDI_port, 0
2, 0, Title_t, "1 Flauto"
2, 0, Program_c, 0, 73
2, 0, Control_c, 0, 10, 52
2, 1, Control_c, 0, 121, 0
2, 6, Program_c, 0, 73
2, 11, Pitch_bend_c, 0, 8192
2, 16, Control_c, 0, 11, 47
2, 21, Control_c, 0, 7, 127
2, 26, Control_c, 0, 91, 54
2, 31, Control_c, 0, 93, 0
2, 36, Control_c, 0, 10, 52
2, 2281, Control_c, 0, 11, 32
2, 2281, Note_on_c, 0, 72, 98
2, 2299, Control_c, 0, 11, 35
2, 2317, Control_c, 0, 11, 38
2, 2335, Control_c, 0, 11, 41
2, 2341, Note_on_c, 0, 72, 0
2, 2341, Note_on_c, 0, 77, 98
2, 2380, Note_on_c, 0, 77, 0
2, 2401, Note_on_c, 0, 77, 98
2, 2440, Note_on_c, 0, 77, 0
2, 2461, Note_on_c, 0, 77, 98
2, 2521, Note_on_c, 0, 77, 0
2, 2521, Note_on_c, 0, 81, 98
2, 2560, Note_on_c, 0, 81, 0
2, 2581, Note_on_c, 0, 81, 98
2, 2620, Note_on_c, 0, 81, 0
2, 2641, Note_on_c, 0, 81, 98
2, 2701, Note_on_c, 0, 81, 0
2, 2701, Note_on_c, 0, 82, 98
2, 2740, Note_on_c, 0, 82, 0
2, 2761, Note_on_c, 0, 82, 98
2, 2791, Note_on_c, 0, 82, 0
2, 2806, Note_on_c, 0, 81, 98
2, 2816, Note_on_c, 0, 81, 0
2, 2821, Note_on_c, 0, 79, 98
2, 2851, Note_on_c, 0, 79, 0
2, 2866, Note_on_c, 0, 77, 98
2, 2876, Note_on_c, 0, 77, 0
2, 2881, Note_on_c, 0, 76, 98
2, 2941, Note_on_c, 0, 76, 0
2, 2941, Control_c, 0, 11, 42
2, 2941, Note_on_c, 0, 84, 98
2, 2956, Control_c, 0, 11, 43
2, 2971, Control_c, 0, 11, 44
2, 2986, Note_on_c, 0, 84, 0
2, 2986, Control_c, 0, 11, 45
2, 3001, Control_c, 0, 11, 46
2, 3001, Note_on_c, 0, 84, 98
2, 3016, Control_c, 0, 11, 47
2, 3031, Control_c, 0, 11, 48
2, 3046, Note_on_c, 0, 84, 0
2, 3046, Control_c, 0, 11, 49
2, 3061, Control_c, 0, 11, 50
2, 3061, Note_on_c, 0, 84, 98
2, 3076, Control_c, 0, 11, 51
2, 3091, Control_c, 0, 11, 52
2, 3106, Note_on_c, 0, 84, 0
2, 3106, Control_c, 0, 11, 53
2, 3121, Control_c, 0, 11, 54
2, 3121, Note_on_c, 0, 84, 98
2, 3136, Control_c, 0, 11, 55
2, 3151, Control_c, 0, 11, 56
2, 3166, Note_on_c, 0, 84, 0
2, 3166, Control_c, 0, 11, 57
2, 3181, Control_c, 0, 11, 58
2, 3181, Note_on_c, 0, 84, 98
2, 3196, Control_c, 0, 11, 59
2, 3211, Control_c, 0, 11, 60
2, 3226, Note_on_c, 0, 84, 0
2, 3226, Control_c, 0, 11, 61
2, 3241, Control_c, 0, 11, 62
2, 3241, Note_on_c, 0, 84, 98
2, 3356, Note_on_c, 0, 84, 0
2, 3361, Note_on_c, 0, 84, 98
2, 3416, Note_on_c, 0, 84, 0
2, 3421, Note_on_c, 0, 84, 98
2, 3481, Note_on_c, 0, 84, 0
2, 3541, Note_on_c, 0, 79, 98
2, 3596, Note_on_c, 0, 79, 0
2, 3601, Note_on_c, 0, 81, 98
2, 3601, Control_c, 0, 11, 56
2, 3603, Control_c, 0, 11, 59
2, 3605, Control_c, 0, 11, 62
2, 3609, Control_c, 0, 11, 65
2, 3612, Control_c, 0, 11, 68
2, 3627, Control_c, 0, 11, 67
2, 3639, Control_c, 0, 11, 64
2, 3651, Control_c, 0, 11, 61
2, 3658, Control_c, 0, 11, 58
2, 3706, Note_on_c, 0, 81, 0
2, 3706, Note_on_c, 0, 77, 98
2, 3716, Note_on_c, 0, 77, 0
2, 3721, Note_on_c, 0, 84, 98
2, 3766, Note_on_c, 0, 84, 0
2, 3766, Note_on_c, 0, 81, 98
2, 3776, Note_on_c, 0, 81, 0
2, 3781, Note_on_c, 0, 79, 98
2, 3841, Note_on_c, 0, 79, 0
2, 3901, Note_on_c, 0, 79, 98
2, 3956, Note_on_c, 0, 79, 0
2, 3961, Note_on_c, 0, 81, 98
2, 3961, Control_c, 0, 11, 62
2, 3964, Control_c, 0, 11, 65
2, 3968, Control_c, 0, 11, 68
2, 3971, Control_c, 0, 11, 71
2, 3975, Control_c, 0, 11, 74
2, 3985, Control_c, 0, 11, 71
2, 3997, Control_c, 0, 11, 68
2, 4009, Control_c, 0, 11, 65
2, 4021, Control_c, 0, 11, 62
2, 4066, Note_on_c, 0, 81, 0
2, 4066, Note_on_c, 0, 77, 98
2, 4076, Note_on_c, 0, 77, 0
2, 4081, Note_on_c, 0, 84, 98
2, 4126, Note_on_c, 0, 84, 0
2, 4126, Note_on_c, 0, 81, 98
2, 4136, Note_on_c, 0, 81, 0
2, 4141, Note_on_c, 0, 79, 98
2, 4171, Note_on_c, 0, 79, 0
2, 4201, Note_on_c, 0, 84, 98
2, 4201, Control_c, 0, 11, 65
2, 4204, Control_c, 0, 11, 68
2, 4207, Control_c, 0, 11, 71
2, 4211, Control_c, 0, 11, 74
2, 4214, Control_c, 0, 11, 77
2, 4227, Control_c, 0, 11, 74
2, 4239, Control_c, 0, 11, 71
2, 4251, Control_c, 0, 11, 68
2, 4291, Note_on_c, 0, 84, 0
2, 4291, Note_on_c, 0, 81, 98
2, 4316, Note_on_c, 0, 81, 0
2, 4321, Note_on_c, 0, 79, 98
2, 4351, Note_on_c, 0, 79, 0
2, 4381, Control_c, 0, 11, 68
2, 4381, Note_on_c, 0, 84, 98
2, 4385, Control_c, 0, 11, 71
2, 4389, Control_c, 0, 11, 74
2, 4393, Control_c, 0, 11, 77
2, 4411, Note_on_c, 0, 84, 0
2, 4411, Control_c, 0, 11, 75
2, 4411, Note_on_c, 0, 83, 98
2, 4429, Control_c, 0, 11, 73
2, 4441, Note_on_c, 0, 83, 0
2, 4441, Note_on_c, 0, 84, 98
2, 4471, Note_on_c, 0, 84, 0
2, 4471, Note_on_c, 0, 81, 98
2, 4496, Note_on_c, 0, 81, 0
2, 4501, Control_c, 0, 11, 77
2, 4501, Note_on_c, 0, 79, 88
2, 4540, Note_on_c, 0, 79, 0
2, 4561, Note_on_c, 0, 79, 70
2, 4600, Note_on_c, 0, 79, 0
2, 4621, Note_on_c, 0, 79, 68
2, 4660, Note_on_c, 0, 79, 0
2, 4681, Note_on_c, 0, 79, 58
2, 4716, Control_c, 0, 11, 77
2, 4719, Control_c, 0, 11, 74
2, 4724, Control_c, 0, 11, 71
2, 4729, Control_c, 0, 11, 68
2, 4734, Control_c, 0, 11, 65
2, 4739, Control_c, 0, 11, 62
2, 4741, Note_on_c, 0, 79, 0
2, 6241, Control_c, 0, 11, 42
2, 6241, Note_on_c, 0, 79, 88
2, 6259, Control_c, 0, 11, 45
2, 6277, Control_c, 0, 11, 48
2, 6295, Control_c, 0, 11, 51
2, 6301, Note_on_c, 0, 79, 0
2, 6301, Note_on_c, 0, 88, 88
2, 6340, Note_on_c, 0, 88, 0
2, 6421, Note_on_c, 0, 88, 88
2, 6481, Note_on_c, 0, 88, 0
2, 6481, Note_on_c, 0, 89, 88
2, 6520, Note_on_c, 0, 89, 0
2, 6661, Note_on_c, 0, 86, 88
2, 6721, Note_on_c, 0, 86, 0
2, 6781, Note_on_c, 0, 86, 88
2, 6841, Note_on_c, 0, 86, 0
2, 6841, Note_on_c, 0, 88, 88
2, 6880, Note_on_c, 0, 88, 0
2, 6901, Control_c, 0, 11, 52
2, 6901, Note_on_c, 0, 91, 88
2, 6913, Control_c, 0, 11, 55
2, 6925, Control_c, 0, 11, 58
2, 6931, Note_on_c, 0, 91, 0
2, 6931, Note_on_c, 0, 90, 88
2, 6937, Control_c, 0, 11, 61
2, 6953, Control_c, 0, 11, 63
2, 6961, Note_on_c, 0, 90, 0
2, 6961, Note_on_c, 0, 91, 88
2, 6969, Control_c, 0, 11, 63
2, 6985, Control_c, 0, 11, 61
2, 6991, Note_on_c, 0, 91, 0
2, 6991, Note_on_c, 0, 88, 88
2, 6997, Control_c, 0, 11, 58
2, 7009, Control_c, 0, 11, 55
2, 7016, Note_on_c, 0, 88, 0
2, 7021, Control_c, 0, 11, 52
2, 7021, Note_on_c, 0, 84, 88
2, 7045, Control_c, 0, 11, 54
2, 7069, Control_c, 0, 11, 56
2, 7076, Note_on_c, 0, 84, 0
2, 7081, Note_on_c, 0, 84, 88
2, 7093, Control_c, 0, 11, 58
2, 7117, Control_c, 0, 11, 60
2, 7141, Note_on_c, 0, 84, 0
2, 7141, Control_c, 0, 11, 62
2, 7141, Note_on_c, 0, 85, 88
2, 7165, Control_c, 0, 11, 63
2, 7189, Control_c, 0, 11, 64
2, 7196, Note_on_c, 0, 85, 0
2, 7201, Note_on_c, 0, 86, 88
2, 7261, Note_on_c, 0, 86, 0
2, 7381, Control_c, 0, 11, 32
2, 7381, Note_on_c, 0, 84, 98
2, 7399, Control_c, 0, 11, 35
2, 7417, Control_c, 0, 11, 38
2, 7435, Control_c, 0, 11, 41
2, 7501, Note_on_c, 0, 84, 0
2, 7501, Note_on_c, 0, 86, 98
2, 7546, Note_on_c, 0, 86, 0
2, 7546, Note_on_c, 0, 83, 98
2, 7556, Note_on_c, 0, 83, 0
2, 7561, Note_on_c, 0, 84, 98
2, 7621, Note_on_c, 0, 84, 0
2, 8686, Control_c, 0, 11, 77
2, 8686, Note_on_c, 0, 88, 88
2, 8694, Note_on_c, 0, 88, 0
2, 8701, Note_on_c, 0, 88, 88
2, 8876, Note_on_c, 0, 88, 0
2, 8881, Control_c, 0, 11, 89
2, 8881, Note_on_c, 0, 88, 88
2, 8895, Control_c, 0, 11, 86
2, 8910, Control_c, 0, 11, 83
2, 8925, Control_c, 0, 11, 80
2, 8940, Control_c, 0, 11, 77
2, 9001, Note_on_c, 0, 88, 0
2, 9001, Note_on_c, 0, 89, 88
2, 9031, Note_on_c, 0, 89, 0
2, 9061, Note_on_c, 0, 90, 88
2, 9061, Control_c, 0, 11, 89
2, 9075, Control_c, 0, 11, 86
2, 9090, Control_c, 0, 11, 83
2, 9105, Control_c, 0, 11, 80
2, 9120, Control_c, 0, 11, 77
2, 9181, Note_on_c, 0, 90, 0
2, 9181, Note_on_c, 0, 91, 88
2, 9211, Note_on_c, 0, 91, 0
2, 9241, Note_on_c, 0, 80, 88
2, 9241, Control_c, 0, 11, 89
2, 9255, Control_c, 0, 11, 86
2, 9270, Control_c, 0, 11, 83
2, 9285, Control_c, 0, 11, 80
2, 9300, Control_c, 0, 11, 77
2, 9361, Control_c, 0, 11, 77
2, 9373, Control_c, 0, 11, 74
2, 9381, Note_on_c, 0, 80, 0
2, 9381, Note_on_c, 0, 89, 98
2, 9388, Control_c, 0, 11, 71
2, 9396, Note_on_c, 0, 89, 0
2, 9401, Note_on_c, 0, 86, 98
2, 9403, Control_c, 0, 11, 68
2, 9411, Note_on_c, 0, 86, 0
2, 9418, Control_c, 0, 11, 65
2, 9421, Note_on_c, 0, 84, 98
2, 9436, Note_on_c, 0, 84, 0
2, 9481, Control_c, 0, 11, 68
2, 9481, Control_c, 0, 11, 65
2, 9481, Note_on_c, 0, 84, 62
2, 9487, Note_on_c, 0, 84, 0
2, 9487, Note_on_c, 0, 83, 62
2, 9493, Note_on_c, 0, 83, 0
2, 9493, Note_on_c, 0, 84, 62
2, 9497, Control_c, 0, 11, 65
2, 9499, Note_on_c, 0, 84, 0
2, 9499, Note_on_c, 0, 83, 62
2, 9505, Note_on_c, 0, 83, 0
2, 9505, Control_c, 0, 11, 62
2, 9505, Note_on_c, 0, 84, 62
2, 9511, Note_on_c, 0, 84, 0
2, 9511, Note_on_c, 0, 83, 62
2, 9517, Note_on_c, 0, 83, 0
2, 9517, Note_on_c, 0, 83, 62
2, 9521, Control_c, 0, 11, 62
2, 9525, Note_on_c, 0, 83, 0
2, 9525, Note_on_c, 0, 81, 62
2, 9529, Control_c, 0, 11, 59
2, 9533, Note_on_c, 0, 81, 0
2, 9533, Note_on_c, 0, 83, 49
2, 9541, Note_on_c, 0, 83, 0
2, 9541, Note_on_c, 0, 84, 38
2, 9571, Control_c, 0, 11, 57
2, 9575, Control_c, 0, 11, 54
2, 9579, Control_c, 0, 11, 51
2, 9584, Control_c, 0, 11, 48
2, 9588, Control_c, 0, 11, 45
2, 9592, Control_c, 0, 11, 42
2, 9597, Control_c, 0, 11, 39
2, 9601, Note_on_c, 0, 84, 0
2, 9901, Control_c, 0, 11, 42
2, 9901, Note_on_c, 0, 84, 98
2, 9911, Note_on_c, 0, 84, 0
2, 9921, Note_on_c, 0, 88, 98
2, 9931, Note_on_c, 0, 88, 0
2, 9941, Note_on_c, 0, 86, 98
2, 9951, Note_on_c, 0, 86, 0
2, 9961, Note_on_c, 0, 84, 98
2, 9971, Note_on_c, 0, 84, 0
2, 9981, Note_on_c, 0, 83, 98
2, 9991, Note_on_c, 0, 83, 0
2, 10001, Note_on_c, 0, 81, 98
2, 10011, Note_on_c, 0, 81, 0
2, 10021, Note_on_c, 0, 79, 98
2, 10031, Note_on_c, 0, 79, 0
2, 10041, Note_on_c, 0, 78, 98
2, 10051, Note_on_c, 0, 78, 0
2, 10061, Note_on_c, 0, 81, 98
2, 10071, Note_on_c, 0, 81, 0
2, 10081, Note_on_c, 0, 79, 98
2, 10091, Note_on_c, 0, 79, 0
2, 10101, Note_on_c, 0, 78, 98
2, 10111, Note_on_c, 0, 78, 0
2, 10121, Note_on_c, 0, 81, 98
2, 10131, Note_on_c, 0, 81, 0
2, 10141, Note_on_c, 0, 79, 98
2, 10151, Note_on_c, 0, 79, 0
2, 10161, Note_on_c, 0, 81, 98
2, 10171, Note_on_c, 0, 81, 0
2, 10181, Note_on_c, 0, 79, 98
2, 10191, Note_on_c, 0, 79, 0
2, 10201, Note_on_c, 0, 77, 98
2, 10211, Note_on_c, 0, 77, 0
2, 10221, Note_on_c, 0, 76, 98
2, 10231, Note_on_c, 0, 76, 0
2, 10241, Note_on_c, 0, 74, 98
2, 10251, Note_on_c, 0, 74, 0
2, 10261, Note_on_c, 0, 72, 98
2, 10271, Note_on_c, 0, 72, 0
2, 10281, Note_on_c, 0, 76, 98
2, 10291, Note_on_c, 0, 76, 0
2, 10301, Note_on_c, 0, 77, 98
2, 10311, Note_on_c, 0, 77, 0
2, 10321, Note_on_c, 0, 79, 98
2, 10331, Note_on_c, 0, 79, 0
2, 10341, Note_on_c, 0, 81, 98
2, 10351, Note_on_c, 0, 81, 0
2, 10361, Note_on_c, 0, 83, 98
2, 10371, Note_on_c, 0, 83, 0
2, 10381, Note_on_c, 0, 84, 98
2, 10391, Note_on_c, 0, 84, 0
2, 10401, Note_on_c, 0, 86, 98
2, 10411, Note_on_c, 0, 86, 0
2, 10421, Note_on_c, 0, 88, 98
2, 10431, Note_on_c, 0, 88, 0
2, 10441, Note_on_c, 0, 89, 98
2, 10451, Note_on_c, 0, 89, 0
2, 10461, Note_on_c, 0, 89, 98
2, 10471, Note_on_c, 0, 89, 0
2, 10481, Note_on_c, 0, 89, 98
2, 10491, Note_on_c, 0, 89, 0
2, 10501, Note_on_c, 0, 89, 98
2, 10511, Note_on_c, 0, 89, 0
2, 10521, Note_on_c, 0, 88, 98
2, 10531, Note_on_c, 0, 88, 0
2, 10541, Note_on_c, 0, 86, 98
2, 10551, Note_on_c, 0, 86, 0
2, 10561, Note_on_c, 0, 84, 98
2, 10571, Note_on_c, 0, 84, 0
2, 10581, Note_on_c, 0, 83, 98
2, 10591, Note_on_c, 0, 83, 0
2, 10601, Note_on_c, 0, 86, 98
2, 10611, Note_on_c, 0, 86, 0
2, 10621, Note_on_c, 0, 84, 98
2, 10631, Note_on_c, 0, 84, 0
2, 10641, Note_on_c, 0, 84, 98
2, 10651, Note_on_c, 0, 84, 0
2, 10661, Note_on_c, 0, 84, 98
2, 10671, Note_on_c, 0, 84, 0
2, 10681, Note_on_c, 0, 84, 98
2, 10691, Note_on_c, 0, 84, 0
2, 10701, Note_on_c, 0, 83, 98
2, 10711, Note_on_c, 0, 83, 0
2, 10721, Note_on_c, 0, 81, 98
2, 10731, Note_on_c, 0, 81, 0
2, 10741, Note_on_c, 0, 79, 98
2, 10751, Note_on_c, 0, 79, 0
2, 10761, Note_on_c, 0, 78, 98
2, 10771, Note_on_c, 0, 78, 0
2, 10781, Note_on_c, 0, 81, 98
2, 10791, Note_on_c, 0, 81, 0
2, 10801, Note_on_c, 0, 79, 98
2, 10811, Note_on_c, 0, 79, 0
2, 10821, Note_on_c, 0, 78, 98
2, 10831, Note_on_c, 0, 78, 0
2, 10841, Note_on_c, 0, 81, 98
2, 10851, Note_on_c, 0, 81, 0
2, 10861, Note_on_c, 0, 79, 98
2, 10871, Note_on_c, 0, 79, 0
2, 10881, Note_on_c, 0, 81, 98
2, 10891, Note_on_c, 0, 81, 0
2, 10901, Note_on_c, 0, 79, 98
2, 10911, Note_on_c, 0, 79, 0
2, 10921, Note_on_c, 0, 77, 98
2, 10931, Note_on_c, 0, 77, 0
2, 10941, Note_on_c, 0, 76, 98
2, 10951, Note_on_c, 0, 76, 0
2, 10961, Note_on_c, 0, 74, 98
2, 10971, Note_on_c, 0, 74, 0
2, 10981, Note_on_c, 0, 72, 83
2, 11016, Control_c, 0, 11, 42
2, 11020, Control_c, 0, 11, 39
2, 11025, Control_c, 0, 11, 36
2, 11030, Control_c, 0, 11, 33
2, 11035, Control_c, 0, 11, 30
2, 11040, Control_c, 0, 11, 27
2, 11041, Note_on_c, 0, 72, 0
2, 11101, Control_c, 0, 11, 37
2, 11101, Note_on_c, 0, 79, 98
2, 11119, Control_c, 0, 11, 40
2, 11138, Control_c, 0, 11, 41
2, 11154, Control_c, 0, 11, 39
2, 11161, Note_on_c, 0, 79, 0
2, 11161, Note_on_c, 0, 84, 98
2, 11170, Control_c, 0, 11, 37
2, 11186, Control_c, 0, 11, 35
2, 11200, Note_on_c, 0, 84, 0
2, 11202, Control_c, 0, 11, 33
2, 11281, Control_c, 0, 11, 37
2, 11281, Note_on_c, 0, 79, 83
2, 11299, Control_c, 0, 11, 40
2, 11317, Control_c, 0, 11, 43
2, 11335, Control_c, 0, 11, 46
2, 11341, Note_on_c, 0, 79, 0
2, 11341, Note_on_c, 0, 84, 98
2, 11371, Note_on_c, 0, 84, 0
2, 11401, Note_on_c, 0, 72, 83
2, 11431, Note_on_c, 0, 72, 0
2, 11461, Note_on_c, 0, 72, 70
2, 11491, Note_on_c, 0, 72, 0
2, 11521, Note_on_c, 0, 72, 59
2, 11556, Control_c, 0, 11, 47
2, 11563, Control_c, 0, 11, 44
2, 11570, Control_c, 0, 11, 41
2, 11577, Control_c, 0, 11, 38
2, 11581, Note_on_c, 0, 72, 0
2, 13801, Control_c, 0, 11, 32
2, 13801, Note_on_c, 0, 72, 98
2, 13819, Control_c, 0, 11, 35
2, 13837, Control_c, 0, 11, 38
2, 13855, Control_c, 0, 11, 41
2, 13861, Note_on_c, 0, 72, 0
2, 13861, Note_on_c, 0, 77, 98
2, 13900, Note_on_c, 0, 77, 0
2, 13921, Note_on_c, 0, 77, 98
2, 13960, Note_on_c, 0, 77, 0
2, 13981, Note_on_c, 0, 77, 98
2, 14041, Note_on_c, 0, 77, 0
2, 14041, Note_on_c, 0, 81, 98
2, 14080, Note_on_c, 0, 81, 0
2, 14101, Note_on_c, 0, 81, 98
2, 14140, Note_on_c, 0, 81, 0
2, 14161, Note_on_c, 0, 81, 98
2, 14221, Note_on_c, 0, 81, 0
2, 14221, Note_on_c, 0, 82, 98
2, 14260, Note_on_c, 0, 82, 0
2, 14281, Note_on_c, 0, 82, 98
2, 14311, Note_on_c, 0, 82, 0
2, 14326, Note_on_c, 0, 81, 98
2, 14336, Note_on_c, 0, 81, 0
2, 14341, Note_on_c, 0, 79, 98
2, 14371, Note_on_c, 0, 79, 0
2, 14386, Note_on_c, 0, 77, 98
2, 14396, Note_on_c, 0, 77, 0
2, 14401, Note_on_c, 0, 76, 98
2, 14461, Note_on_c, 0, 76, 0
2, 14461, Control_c, 0, 11, 42
2, 14461, Note_on_c, 0, 84, 98
2, 14476, Control_c, 0, 11, 43
2, 14491, Control_c, 0, 11, 44
2, 14506, Note_on_c, 0, 84, 0
2, 14506, Control_c, 0, 11, 45
2, 14521, Control_c, 0, 11, 46
2, 14521, Note_on_c, 0, 84, 98
2, 14536, Control_c, 0, 11, 47
2, 14551, Control_c, 0, 11, 48
2, 14566, Note_on_c, 0, 84, 0
2, 14566, Control_c, 0, 11, 49
2, 14581, Control_c, 0, 11, 50
2, 14581, Note_on_c, 0, 84, 98
2, 14596, Control_c, 0, 11, 51
2, 14611, Control_c, 0, 11, 52
2, 14626, Note_on_c, 0, 84, 0
2, 14626, Control_c, 0, 11, 53
2, 14641, Note_on_c, 0, 84, 98
2, 14641, Control_c, 0, 11, 54
2, 14656, Control_c, 0, 11, 55
2, 14671, Control_c, 0, 11, 56
2, 14686, Note_on_c, 0, 84, 0
2, 14686, Control_c, 0, 11, 57
2, 14701, Control_c, 0, 11, 58
2, 14701, Note_on_c, 0, 84, 98
2, 14716, Control_c, 0, 11, 59
2, 14731, Control_c, 0, 11, 60
2, 14746, Note_on_c, 0, 84, 0
2, 14746, Control_c, 0, 11, 61
2, 14761, Note_on_c, 0, 84, 98
2, 14761, Control_c, 0, 11, 62
2, 14876, Note_on_c, 0, 84, 0
2, 14881, Note_on_c, 0, 84, 98
2, 14936, Note_on_c, 0, 84, 0
2, 14941, Note_on_c, 0, 84, 98
2, 15001, Note_on_c, 0, 84, 0
2, 15061, Note_on_c, 0, 79, 98
2, 15116, Note_on_c, 0, 79, 0
2, 15121, Control_c, 0, 11, 56
2, 15121, Note_on_c, 0, 81, 98
2, 15123, Control_c, 0, 11, 59
2, 15125, Control_c, 0, 11, 62
2, 15129, Control_c, 0, 11, 65
2, 15132, Control_c, 0, 11, 68
2, 15147, Control_c, 0, 11, 67
2, 15159, Control_c, 0, 11, 64
2, 15171, Control_c, 0, 11, 61
2, 15178, Control_c, 0, 11, 58
2, 15226, Note_on_c, 0, 81, 0
2, 15226, Note_on_c, 0, 77, 98
2, 15236, Note_on_c, 0, 77, 0
2, 15241, Note_on_c, 0, 84, 98
2, 15286, Note_on_c, 0, 84, 0
2, 15286, Note_on_c, 0, 81, 98
2, 15296, Note_on_c, 0, 81, 0
2, 15301, Note_on_c, 0, 79, 98
2, 15361, Note_on_c, 0, 79, 0
2, 15421, Note_on_c, 0, 79, 98
2, 15476, Note_on_c, 0, 79, 0
2, 15481, Control_c, 0, 11, 62
2, 15481, Note_on_c, 0, 81, 98
2, 15484, Control_c, 0, 11, 65
2, 15488, Control_c, 0, 11, 68
2, 15491, Control_c, 0, 11, 71
2, 15495, Control_c, 0, 11, 74
2, 15505, Control_c, 0, 11, 71
2, 15517, Control_c, 0, 11, 68
2, 15529, Control_c, 0, 11, 65
2, 15541, Control_c, 0, 11, 62
2, 15586, Note_on_c, 0, 81, 0
2, 15586, Note_on_c, 0, 77, 98
2, 15596, Note_on_c, 0, 77, 0
2, 15601, Note_on_c, 0, 84, 98
2, 15646, Note_on_c, 0, 84, 0
2, 15646, Note_on_c, 0, 81, 98
2, 15656, Note_on_c, 0, 81, 0
2, 15661, Note_on_c, 0, 79, 98
2, 15691, Note_on_c, 0, 79, 0
2, 15721, Note_on_c, 0, 84, 98
2, 15721, Control_c, 0, 11, 65
2, 15724, Control_c, 0, 11, 68
2, 15727, Control_c, 0, 11, 71
2, 15731, Control_c, 0, 11, 74
2, 15734, Control_c, 0, 11, 77
2, 15747, Control_c, 0, 11, 74
2, 15759, Control_c, 0, 11, 71
2, 15771, Control_c, 0, 11, 68
2, 15811, Note_on_c, 0, 84, 0
2, 15811, Note_on_c, 0, 81, 98
2, 15836, Note_on_c, 0, 81, 0
2, 15841, Note_on_c, 0, 79, 98
2, 15871, Note_on_c, 0, 79, 0
2, 15901, Control_c, 0, 11, 68
2, 15901, Note_on_c, 0, 84, 98
2, 15905, Control_c, 0, 11, 71
2, 15909, Control_c, 0, 11, 74
2, 15913, Control_c, 0, 11, 77
2, 15931, Note_on_c, 0, 84, 0
2, 15931, Control_c, 0, 11, 75
2, 15931, Note_on_c, 0, 83, 98
2, 15949, Control_c, 0, 11, 73
2, 15961, Note_on_c, 0, 83, 0
2, 15961, Note_on_c, 0, 84, 98
2, 15991, Note_on_c, 0, 84, 0
2, 15991, Note_on_c, 0, 81, 98
2, 16016, Note_on_c, 0, 81, 0
2, 16021, Control_c, 0, 11, 77
2, 16021, Note_on_c, 0, 79, 88
2, 16060, Note_on_c, 0, 79, 0
2, 16081, Note_on_c, 0, 79, 70
2, 16120, Note_on_c, 0, 79, 0
2, 16141, Note_on_c, 0, 79, 68
2, 16180, Note_on_c, 0, 79, 0
2, 16201, Note_on_c, 0, 79, 65
2, 16236, Control_c, 0, 11, 77
2, 16239, Control_c, 0, 11, 74
2, 16244, Control_c, 0, 11, 71
2, 16249, Control_c, 0, 11, 68
2, 16254, Control_c, 0, 11, 65
2, 16259, Control_c, 0, 11, 62
2, 16261, Note_on_c, 0, 79, 0
2, 17761, Control_c, 0, 11, 42
2, 17761, Note_on_c, 0, 79, 88
2, 17779, Control_c, 0, 11, 45
2, 17797, Control_c, 0, 11, 48
2, 17815, Control_c, 0, 11, 51
2, 17821, Note_on_c, 0, 79, 0
2, 17821, Note_on_c, 0, 88, 88
2, 17860, Note_on_c, 0, 88, 0
2, 17941, Note_on_c, 0, 88, 88
2, 18001, Note_on_c, 0, 88, 0
2, 18001, Note_on_c, 0, 89, 88
2, 18040, Note_on_c, 0, 89, 0
2, 18181, Note_on_c, 0, 86, 88
2, 18241, Note_on_c, 0, 86, 0
2, 18301, Note_on_c, 0, 86, 88
2, 18361, Note_on_c, 0, 86, 0
2, 18361, Note_on_c, 0, 88, 88
2, 18400, Note_on_c, 0, 88, 0
2, 18421, Note_on_c, 0, 91, 88
2, 18421, Control_c, 0, 11, 52
2, 18433, Control_c, 0, 11, 55
2, 18445, Control_c, 0, 11, 58
2, 18451, Note_on_c, 0, 91, 0
2, 18451, Note_on_c, 0, 90, 88
2, 18457, Control_c, 0, 11, 61
2, 18473, Control_c, 0, 11, 63
2, 18481, Note_on_c, 0, 90, 0
2, 18481, Note_on_c, 0, 91, 88
2, 18489, Control_c, 0, 11, 63
2, 18505, Control_c, 0, 11, 61
2, 18511, Note_on_c, 0, 91, 0
2, 18511, Note_on_c, 0, 88, 88
2, 18517, Control_c, 0, 11, 58
2, 18529, Control_c, 0, 11, 55
2, 18536, Note_on_c, 0, 88, 0
2, 18541, Note_on_c, 0, 84, 88
2, 18541, Control_c, 0, 11, 52
2, 18565, Control_c, 0, 11, 54
2, 18589, Control_c, 0, 11, 56
2, 18596, Note_on_c, 0, 84, 0
2, 18601, Note_on_c, 0, 84, 88
2, 18613, Control_c, 0, 11, 58
2, 18637, Control_c, 0, 11, 60
2, 18661, Note_on_c, 0, 84, 0
2, 18661, Control_c, 0, 11, 62
2, 18661, Note_on_c, 0, 85, 88
2, 18685, Control_c, 0, 11, 63
2, 18709, Control_c, 0, 11, 64
2, 18716, Note_on_c, 0, 85, 0
2, 18721, Note_on_c, 0, 86, 88
2, 18781, Note_on_c, 0, 86, 0
2, 18901, Note_on_c, 0, 84, 98
2, 18901, Control_c, 0, 11, 32
2, 18919, Control_c, 0, 11, 35
2, 18937, Control_c, 0, 11, 38
2, 18955, Control_c, 0, 11, 41
2, 19021, Note_on_c, 0, 84, 0
2, 19021, Note_on_c, 0, 86, 98
2, 19066, Note_on_c, 0, 86, 0
2, 19066, Note_on_c, 0, 83, 98
2, 19076, Note_on_c, 0, 83, 0
2, 19081, Note_on_c, 0, 84, 98
2, 19141, Note_on_c, 0, 84, 0
2, 20206, Note_on_c, 0, 88, 88
2, 20206, Control_c, 0, 11, 77
2, 20214, Note_on_c, 0, 88, 0
2, 20221, Note_on_c, 0, 88, 88
2, 20396, Note_on_c, 0, 88, 0
2, 20401, Control_c, 0, 11, 89
2, 20401, Note_on_c, 0, 88, 88
2, 20415, Control_c, 0, 11, 86
2, 20430, Control_c, 0, 11, 83
2, 20445, Control_c, 0, 11, 80
2, 20460, Control_c, 0, 11, 77
2, 20521, Note_on_c, 0, 88, 0
2, 20521, Note_on_c, 0, 89, 88
2, 20551, Note_on_c, 0, 89, 0
2, 20581, Control_c, 0, 11, 89
2, 20581, Note_on_c, 0, 90, 88
2, 20595, Control_c, 0, 11, 86
2, 20610, Control_c, 0, 11, 83
2, 20625, Control_c, 0, 11, 80
2, 20640, Control_c, 0, 11, 77
2, 20701, Note_on_c, 0, 90, 0
2, 20701, Note_on_c, 0, 91, 88
2, 20731, Note_on_c, 0, 91, 0
2, 20761, Control_c, 0, 11, 89
2, 20761, Note_on_c, 0, 80, 88
2, 20775, Control_c, 0, 11, 86
2, 20790, Control_c, 0, 11, 83
2, 20805, Control_c, 0, 11, 80
2, 20820, Control_c, 0, 11, 77
2, 20881, Control_c, 0, 11, 77
2, 20893, Control_c, 0, 11, 74
2, 20901, Note_on_c, 0, 80, 0
2, 20901, Note_on_c, 0, 89, 98
2, 20908, Control_c, 0, 11, 71
2, 20916, Note_on_c, 0, 89, 0
2, 20921, Note_on_c, 0, 86, 98
2, 20923, Control_c, 0, 11, 68
2, 20931, Note_on_c, 0, 86, 0
2, 20938, Control_c, 0, 11, 65
2, 20941, Note_on_c, 0, 84, 98
2, 20956, Note_on_c, 0, 84, 0
2, 21001, Control_c, 0, 11, 65
2, 21001, Control_c, 0, 11, 68
2, 21001, Note_on_c, 0, 84, 62
2, 21007, Note_on_c, 0, 84, 0
2, 21007, Note_on_c, 0, 83, 62
2, 21013, Note_on_c, 0, 83, 0
2, 21013, Note_on_c, 0, 84, 62
2, 21017, Control_c, 0, 11, 65
2, 21019, Note_on_c, 0, 84, 0
2, 21019, Note_on_c, 0, 83, 62
2, 21025, Note_on_c, 0, 83, 0
2, 21025, Control_c, 0, 11, 62
2, 21025, Note_on_c, 0, 84, 62
2, 21031, Note_on_c, 0, 84, 0
2, 21031, Note_on_c, 0, 83, 62
2, 21037, Note_on_c, 0, 83, 0
2, 21037, Note_on_c, 0, 83, 62
2, 21041, Control_c, 0, 11, 62
2, 21045, Note_on_c, 0, 83, 0
2, 21045, Note_on_c, 0, 81, 62
2, 21049, Control_c, 0, 11, 59
2, 21053, Note_on_c, 0, 81, 0
2, 21053, Note_on_c, 0, 83, 49
2, 21061, Note_on_c, 0, 83, 0
2, 21061, Note_on_c, 0, 84, 38
2, 21091, Control_c, 0, 11, 57
2, 21095, Control_c, 0, 11, 54
2, 21099, Control_c, 0, 11, 51
2, 21104, Control_c, 0, 11, 48
2, 21108, Control_c, 0, 11, 45
2, 21112, Control_c, 0, 11, 42
2, 21117, Control_c, 0, 11, 39
2, 21121, Note_on_c, 0, 84, 0
2, 21421, Control_c, 0, 11, 42
2, 21421, Note_on_c, 0, 84, 98
2, 21431, Note_on_c, 0, 84, 0
2, 21441, Note_on_c, 0, 88, 98
2, 21451, Note_on_c, 0, 88, 0
2, 21461, Note_on_c, 0, 86, 98
2, 21471, Note_on_c, 0, 86, 0
2, 21481, Note_on_c, 0, 84, 98
2, 21491, Note_on_c, 0, 84, 0
2, 21501, Note_on_c, 0, 83, 98
2, 21511, Note_on_c, 0, 83, 0
2, 21521, Note_on_c, 0, 81, 98
2, 21531, Note_on_c, 0, 81, 0
2, 21541, Note_on_c, 0, 79, 98
2, 21551, Note_on_c, 0, 79, 0
2, 21561, Note_on_c, 0, 78, 98
2, 21571, Note_on_c, 0, 78, 0
2, 21581, Note_on_c, 0, 81, 98
2, 21591, Note_on_c, 0, 81, 0
2, 21601, Note_on_c, 0, 79, 98
2, 21611, Note_on_c, 0, 79, 0
2, 21621, Note_on_c, 0, 78, 98
2, 21631, Note_on_c, 0, 78, 0
2, 21641, Note_on_c, 0, 81, 98
2, 21651, Note_on_c, 0, 81, 0
2, 21661, Note_on_c, 0, 79, 98
2, 21671, Note_on_c, 0, 79, 0
2, 21681, Note_on_c, 0, 81, 98
2, 21691, Note_on_c, 0, 81, 0
2, 21701, Note_on_c, 0, 79, 98
2, 21711, Note_on_c, 0, 79, 0
2, 21721, Note_on_c, 0, 77, 98
2, 21731, Note_on_c, 0, 77, 0
2, 21741, Note_on_c, 0, 76, 98
2, 21751, Note_on_c, 0, 76, 0
2, 21761, Note_on_c, 0, 74, 98
2, 21771, Note_on_c, 0, 74, 0
2, 21781, Note_on_c, 0, 72, 98
2, 21791, Note_on_c, 0, 72, 0
2, 21801, Note_on_c, 0, 76, 98
2, 21811, Note_on_c, 0, 76, 0
2, 21821, Note_on_c, 0, 77, 98
2, 21831, Note_on_c, 0, 77, 0
2, 21841, Note_on_c, 0, 79, 98
2, 21851, Note_on_c, 0, 79, 0
2, 21861, Note_on_c, 0, 81, 98
2, 21871, Note_on_c, 0, 81, 0
2, 21881, Note_on_c, 0, 83, 98
2, 21891, Note_on_c, 0, 83, 0
2, 21901, Note_on_c, 0, 84, 98
2, 21911, Note_on_c, 0, 84, 0
2, 21921, Note_on_c, 0, 86, 98
2, 21931, Note_on_c, 0, 86, 0
2, 21941, Note_on_c, 0, 88, 98
2, 21951, Note_on_c, 0, 88, 0
2, 21961, Note_on_c, 0, 89, 98
2, 21971, Note_on_c, 0, 89, 0
2, 21981, Note_on_c, 0, 89, 98
2, 21991, Note_on_c, 0, 89, 0
2, 22001, Note_on_c, 0, 89, 98
2, 22011, Note_on_c, 0, 89, 0
2, 22021, Note_on_c, 0, 89, 98
2, 22031, Note_on_c, 0, 89, 0
2, 22041, Note_on_c, 0, 88, 98
2, 22051, Note_on_c, 0, 88, 0
2, 22061, Note_on_c, 0, 86, 98
2, 22071, Note_on_c, 0, 86, 0
2, 22081, Note_on_c, 0, 84, 98
2, 22091, Note_on_c, 0, 84, 0
2, 22101, Note_on_c, 0, 83, 98
2, 22111, Note_on_c, 0, 83, 0
2, 22121, Note_on_c, 0, 86, 98
2, 22131, Note_on_c, 0, 86, 0
2, 22141, Note_on_c, 0, 84, 98
2, 22151, Note_on_c, 0, 84, 0
2, 22161, Note_on_c, 0, 84, 98
2, 22171, Note_on_c, 0, 84, 0
2, 22181, Note_on_c, 0, 84, 98
2, 22191, Note_on_c, 0, 84, 0
2, 22201, Note_on_c, 0, 84, 98
2, 22211, Note_on_c, 0, 84, 0
2, 22221, Note_on_c, 0, 83, 98
2, 22231, Note_on_c, 0, 83, 0
2, 22241, Note_on_c, 0, 81, 98
2, 22251, Note_on_c, 0, 81, 0
2, 22261, Note_on_c, 0, 79, 98
2, 22271, Note_on_c, 0, 79, 0
2, 22281, Note_on_c, 0, 78, 98
2, 22291, Note_on_c, 0, 78, 0
2, 22301, Note_on_c, 0, 81, 98
2, 22311, Note_on_c, 0, 81, 0
2, 22321, Note_on_c, 0, 79, 98
2, 22331, Note_on_c, 0, 79, 0
2, 22341, Note_on_c, 0, 78, 98
2, 22351, Note_on_c, 0, 78, 0
2, 22361, Note_on_c, 0, 81, 98
2, 22371, Note_on_c, 0, 81, 0
2, 22381, Note_on_c, 0, 79, 98
2, 22391, Note_on_c, 0, 79, 0
2, 22401, Note_on_c, 0, 81, 98
2, 22411, Note_on_c, 0, 81, 0
2, 22421, Note_on_c, 0, 79, 98
2, 22431, Note_on_c, 0, 79, 0
2, 22441, Note_on_c, 0, 77, 98
2, 22451, Note_on_c, 0, 77, 0
2, 22461, Note_on_c, 0, 76, 98
2, 22471, Note_on_c, 0, 76, 0
2, 22481, Note_on_c, 0, 74, 98
2, 22491, Note_on_c, 0, 74, 0
2, 22501, Note_on_c, 0, 72, 83
2, 22536, Control_c, 0, 11, 42
2, 22540, Control_c, 0, 11, 39
2, 22545, Control_c, 0, 11, 36
2, 22550, Control_c, 0, 11, 33
2, 22555, Control_c, 0, 11, 30
2, 22560, Control_c, 0, 11, 27
2, 22561, Note_on_c, 0, 72, 0
2, 22621, Control_c, 0, 11, 37
2, 22621, Note_on_c, 0, 79, 98
2, 22639, Control_c, 0, 11, 40
2, 22658, Control_c, 0, 11, 41
2, 22674, Control_c, 0, 11, 39
2, 22681, Note_on_c, 0, 79, 0
2, 22681, Note_on_c, 0, 84, 98
2, 22690, Control_c, 0, 11, 37
2, 22706, Control_c, 0, 11, 35
2, 22720, Note_on_c, 0, 84, 0
2, 22722, Control_c, 0, 11, 33
2, 22801, Control_c, 0, 11, 37
2, 22801, Note_on_c, 0, 79, 83
2, 22819, Control_c, 0, 11, 40
2, 22837, Control_c, 0, 11, 43
2, 22855, Control_c, 0, 11, 46
2, 22861, Note_on_c, 0, 79, 0
2, 22861, Note_on_c, 0, 84, 98
2, 22891, Note_on_c, 0, 84, 0
2, 22921, Note_on_c, 0, 72, 83
2, 22951, Note_on_c, 0, 72, 0
2, 22981, Note_on_c, 0, 72, 70
2, 23011, Note_on_c, 0, 72, 0
2, 23041, Note_on_c, 0, 72, 66
2, 23076, Control_c, 0, 11, 47
2, 23083, Control_c, 0, 11, 44
2, 23090, Control_c, 0, 11, 41
2, 23097, Control_c, 0, 11, 38
2, 23101, Note_on_c, 0, 72, 0
2, 24241, Note_on_c, 0, 84, 74
2, 24241, Control_c, 0, 11, 83
2, 24301, Note_on_c, 0, 84, 0
2, 24301, Note_on_c, 0, 85, 88
2, 24331, Note_on_c, 0, 85, 0
2, 24781, Control_c, 0, 11, 52
2, 24781, Note_on_c, 0, 80, 98
2, 24841, Note_on_c, 0, 80, 0
2, 24841, Control_c, 0, 11, 77
2, 24841, Note_on_c, 0, 90, 98
2, 24845, Control_c, 0, 11, 74
2, 24851, Control_c, 0, 11, 71
2, 24856, Control_c, 0, 11, 68
2, 24862, Control_c, 0, 11, 65
2, 24868, Control_c, 0, 11, 62
2, 24872, Control_c, 0, 11, 59
2, 24875, Control_c, 0, 11, 56
2, 24879, Control_c, 0, 11, 53
2, 24882, Control_c, 0, 11, 50
2, 24886, Control_c, 0, 11, 47
2, 25021, Note_on_c, 0, 90, 0
2, 25141, Note_on_c, 0, 80, 98
2, 25201, Note_on_c, 0, 80, 0
2, 25201, Note_on_c, 0, 89, 98
2, 25201, Control_c, 0, 11, 77
2, 25205, Control_c, 0, 11, 74
2, 25211, Control_c, 0, 11, 71
2, 25216, Control_c, 0, 11, 68
2, 25222, Control_c, 0, 11, 65
2, 25228, Control_c, 0, 11, 62
2, 25232, Control_c, 0, 11, 59
2, 25235, Control_c, 0, 11, 56
2, 25239, Control_c, 0, 11, 53
2, 25242, Control_c, 0, 11, 50
2, 25246, Control_c, 0, 11, 47
2, 25321, Note_on_c, 0, 89, 0
2, 25501, Note_on_c, 0, 77, 113
2, 25561, Note_on_c, 0, 77, 0
2, 25561, Note_on_c, 0, 87, 98
2, 25561, Control_c, 0, 11, 77
2, 25565, Control_c, 0, 11, 74
2, 25571, Control_c, 0, 11, 71
2, 25576, Control_c, 0, 11, 68
2, 25582, Control_c, 0, 11, 65
2, 25588, Control_c, 0, 11, 62
2, 25592, Control_c, 0, 11, 59
2, 25595, Control_c, 0, 11, 56
2, 25599, Control_c, 0, 11, 53
2, 25602, Control_c, 0, 11, 50
2, 25606, Control_c, 0, 11, 47
2, 25681, Note_on_c, 0, 87, 0
2, 25681, Note_on_c, 0, 77, 98
2, 25741, Note_on_c, 0, 77, 0
2, 25741, Note_on_c, 0, 85, 98
2, 25771, Note_on_c, 0, 85, 0
2, 25801, Control_c, 0, 11, 77
2, 25801, Note_on_c, 0, 89, 98
2, 25805, Control_c, 0, 11, 74
2, 25811, Control_c, 0, 11, 71
2, 25816, Control_c, 0, 11, 68
2, 25822, Control_c, 0, 11, 65
2, 25828, Control_c, 0, 11, 62
2, 25832, Control_c, 0, 11, 59
2, 25835, Control_c, 0, 11, 56
2, 25839, Control_c, 0, 11, 53
2, 25842, Control_c, 0, 11, 50
2, 25846, Control_c, 0, 11, 47
2, 25981, Note_on_c, 0, 89, 0
2, 25981, Control_c, 0, 11, 77
2, 25981, Note_on_c, 0, 89, 98
2, 25985, Control_c, 0, 11, 74
2, 25991, Control_c, 0, 11, 71
2, 25996, Control_c, 0, 11, 68
2, 26002, Control_c, 0, 11, 65
2, 26008, Control_c, 0, 11, 62
2, 26012, Control_c, 0, 11, 59
2, 26015, Control_c, 0, 11, 56
2, 26019, Control_c, 0, 11, 53
2, 26022, Control_c, 0, 11, 50
2, 26026, Control_c, 0, 11, 47
2, 26101, Note_on_c, 0, 89, 0
2, 26101, Note_on_c, 0, 88, 98
2, 26131, Note_on_c, 0, 88, 0
2, 26401, Control_c, 0, 11, 77
2, 26401, Note_on_c, 0, 83, 98
2, 26461, Note_on_c, 0, 83, 0
2, 26461, Note_on_c, 0, 84, 98
2, 26491, Note_on_c, 0, 84, 0
2, 26521, Note_on_c, 0, 84, 98
2, 26551, Note_on_c, 0, 84, 0
2, 26761, Note_on_c, 0, 83, 98
2, 26761, Control_c, 0, 11, 77
2, 26821, Note_on_c, 0, 83, 0
2, 26821, Note_on_c, 0, 84, 98
2, 26851, Note_on_c, 0, 84, 0
2, 27001, Note_on_c, 0, 89, 88
2, 27001, Control_c, 0, 11, 37
2, 27061, Note_on_c, 0, 89, 0
2, 27061, Note_on_c, 0, 88, 88
2, 27104, Note_on_c, 0, 88, 0
2, 27241, Note_on_c, 0, 85, 88
2, 27301, Note_on_c, 0, 85, 0
2, 27301, Note_on_c, 0, 84, 88
2, 27344, Note_on_c, 0, 84, 0
2, 27481, Note_on_c, 0, 82, 93
2, 27541, Note_on_c, 0, 82, 0
2, 27541, Note_on_c, 0, 81, 93
2, 27584, Note_on_c, 0, 81, 0
2, 27601, Note_on_c, 0, 83, 93
2, 27661, Note_on_c, 0, 83, 0
2, 27661, Note_on_c, 0, 84, 93
2, 27704, Note_on_c, 0, 84, 0
2, 27721, Note_on_c, 0, 81, 93
2, 27781, Note_on_c, 0, 81, 0
2, 27781, Note_on_c, 0, 82, 93
2, 27824, Note_on_c, 0, 82, 0
2, 27841, Note_on_c, 0, 80, 93
2, 27901, Note_on_c, 0, 80, 0
2, 27901, Note_on_c, 0, 81, 98
2, 27931, Note_on_c, 0, 81, 0
2, 27961, Control_c, 0, 11, 37
2, 27961, Note_on_c, 0, 84, 98
2, 27979, Control_c, 0, 11, 40
2, 27991, Note_on_c, 0, 84, 0
2, 27997, Control_c, 0, 11, 43
2, 28015, Control_c, 0, 11, 46
2, 28021, Note_on_c, 0, 84, 98
2, 28033, Control_c, 0, 11, 49
2, 28051, Note_on_c, 0, 84, 0
2, 28051, Control_c, 0, 11, 52
2, 28069, Control_c, 0, 11, 55
2, 28081, Note_on_c, 0, 84, 88
2, 28087, Control_c, 0, 11, 58
2, 28105, Control_c, 0, 11, 61
2, 28111, Note_on_c, 0, 84, 0
2, 28123, Control_c, 0, 11, 63
2, 28141, Note_on_c, 0, 84, 88
2, 28141, Control_c, 0, 11, 65
2, 28159, Control_c, 0, 11, 66
2, 28171, Note_on_c, 0, 84, 0
2, 28177, Control_c, 0, 11, 68
2, 28195, Control_c, 0, 11, 70
2, 28201, Note_on_c, 0, 84, 88
2, 28213, Control_c, 0, 11, 72
2, 28231, Note_on_c, 0, 84, 0
2, 28231, Control_c, 0, 11, 74
2, 28249, Control_c, 0, 11, 76
2, 28261, Note_on_c, 0, 84, 88
2, 28421, Control_c, 0, 11, 77
2, 28423, Control_c, 0, 11, 73
2, 28425, Control_c, 0, 11, 70
2, 28427, Control_c, 0, 11, 67
2, 28429, Control_c, 0, 11, 64
2, 28431, Control_c, 0, 11, 61
2, 28433, Control_c, 0, 11, 58
2, 28435, Control_c, 0, 11, 54
2, 28437, Control_c, 0, 11, 51
2, 28439, Control_c, 0, 11, 48
2, 28441, Note_on_c, 0, 84, 0
2, 28621, Note_on_c, 0, 82, 88
2, 28621, Control_c, 0, 11, 77
2, 28781, Control_c, 0, 11, 77
2, 28783, Control_c, 0, 11, 73
2, 28785, Control_c, 0, 11, 70
2, 28787, Control_c, 0, 11, 67
2, 28789, Control_c, 0, 11, 64
2, 28791, Control_c, 0, 11, 61
2, 28793, Control_c, 0, 11, 58
2, 28795, Control_c, 0, 11, 54
2, 28797, Control_c, 0, 11, 51
2, 28799, Control_c, 0, 11, 48
2, 28801, Note_on_c, 0, 82, 0
2, 31981, Control_c, 0, 11, 37
2, 31981, Note_on_c, 0, 84, 88
2, 31999, Control_c, 0, 11, 40
2, 32017, Control_c, 0, 11, 43
2, 32035, Control_c, 0, 11, 46
2, 32041, Note_on_c, 0, 84, 0
2, 32041, Note_on_c, 0, 89, 88
2, 32080, Note_on_c, 0, 89, 0
2, 32101, Note_on_c, 0, 89, 88
2, 32140, Note_on_c, 0, 89, 0
2, 32161, Note_on_c, 0, 89, 88
2, 32221, Note_on_c, 0, 89, 0
2, 32221, Note_on_c, 0, 88, 88
2, 32251, Note_on_c, 0, 88, 0
2, 32281, Note_on_c, 0, 82, 88
2, 32304, Note_on_c, 0, 82, 0
2, 32326, Note_on_c, 0, 81, 88
2, 32334, Note_on_c, 0, 81, 0
2, 32341, Note_on_c, 0, 79, 88
2, 32364, Note_on_c, 0, 79, 0
2, 32386, Note_on_c, 0, 77, 88
2, 32394, Note_on_c, 0, 77, 0
2, 32401, Note_on_c, 0, 76, 88
2, 32440, Note_on_c, 0, 76, 0
2, 32461, Note_on_c, 0, 76, 88
2, 32500, Note_on_c, 0, 76, 0
2, 32521, Note_on_c, 0, 76, 88
2, 32581, Note_on_c, 0, 76, 0
2, 32581, Note_on_c, 0, 77, 88
2, 32581, Control_c, 0, 11, 47
2, 32601, Control_c, 0, 11, 48
2, 32621, Control_c, 0, 11, 49
2, 32641, Note_on_c, 0, 77, 0
2, 32641, Note_on_c, 0, 79, 88
2, 32641, Control_c, 0, 11, 50
2, 32661, Control_c, 0, 11, 51
2, 32681, Control_c, 0, 11, 52
2, 32701, Note_on_c, 0, 79, 0
2, 32701, Control_c, 0, 11, 53
2, 32701, Note_on_c, 0, 81, 88
2, 32721, Control_c, 0, 11, 54
2, 32741, Control_c, 0, 11, 55
2, 32758, Note_on_c, 0, 81, 0
2, 32761, Note_on_c, 0, 82, 88
2, 32761, Control_c, 0, 11, 56
2, 32781, Control_c, 0, 11, 57
2, 32801, Control_c, 0, 11, 58
2, 32821, Control_c, 0, 11, 59
2, 32841, Control_c, 0, 11, 60
2, 32851, Note_on_c, 0, 82, 0
2, 32851, Note_on_c, 0, 84, 88
2, 32861, Control_c, 0, 11, 61
2, 32881, Note_on_c, 0, 84, 0
2, 32881, Note_on_c, 0, 81, 88
2, 32881, Control_c, 0, 11, 62
2, 32911, Note_on_c, 0, 81, 0
2, 32941, Note_on_c, 0, 79, 88
2, 33001, Note_on_c, 0, 79, 0
2, 33061, Note_on_c, 0, 79, 88
2, 33121, Note_on_c, 0, 79, 0
2, 33121, Note_on_c, 0, 81, 88
2, 33226, Note_on_c, 0, 81, 0
2, 33226, Note_on_c, 0, 77, 88
2, 33236, Note_on_c, 0, 77, 0
2, 33241, Note_on_c, 0, 84, 88
2, 33286, Note_on_c, 0, 84, 0
2, 33286, Note_on_c, 0, 81, 88
2, 33296, Note_on_c, 0, 81, 0
2, 33301, Note_on_c, 0, 79, 88
2, 33301, Control_c, 0, 11, 62
2, 33361, Note_on_c, 0, 79, 0
2, 33421, Note_on_c, 0, 79, 88
2, 33481, Note_on_c, 0, 79, 0
2, 33481, Note_on_c, 0, 81, 88
2, 33481, Control_c, 0, 11, 68
2, 33497, Control_c, 0, 11, 65
2, 33513, Control_c, 0, 11, 63
2, 33529, Control_c, 0, 11, 60
2, 33541, Control_c, 0, 11, 57
2, 33586, Note_on_c, 0, 81, 0
2, 33586, Note_on_c, 0, 77, 88
2, 33596, Note_on_c, 0, 77, 0
2, 33601, Note_on_c, 0, 84, 88
2, 33646, Note_on_c, 0, 84, 0
2, 33646, Note_on_c, 0, 81, 88
2, 33656, Note_on_c, 0, 81, 0
2, 33661, Note_on_c, 0, 79, 88
2, 33691, Note_on_c, 0, 79, 0
2, 33721, Note_on_c, 0, 84, 88
2, 33724, Control_c, 0, 11, 79
2, 33739, Control_c, 0, 11, 76
2, 33754, Control_c, 0, 11, 73
2, 33769, Control_c, 0, 11, 70
2, 33811, Note_on_c, 0, 84, 0
2, 33811, Note_on_c, 0, 81, 88
2, 33836, Note_on_c, 0, 81, 0
2, 33841, Note_on_c, 0, 79, 88
2, 33871, Note_on_c, 0, 79, 0
2, 33901, Note_on_c, 0, 86, 88
2, 33901, Control_c, 0, 11, 80
2, 33917, Control_c, 0, 11, 78
2, 33931, Note_on_c, 0, 86, 0
2, 33931, Note_on_c, 0, 84, 88
2, 33933, Control_c, 0, 11, 75
2, 33949, Control_c, 0, 11, 73
2, 33961, Note_on_c, 0, 84, 0
2, 33961, Note_on_c, 0, 82, 88
2, 33991, Note_on_c, 0, 82, 0
2, 33991, Note_on_c, 0, 81, 88
2, 34018, Note_on_c, 0, 81, 0
2, 34021, Control_c, 0, 11, 77
2, 34021, Note_on_c, 0, 79, 88
2, 34051, Note_on_c, 0, 79, 0
2, 34081, Note_on_c, 0, 79, 79
2, 34111, Note_on_c, 0, 79, 0
2, 34141, Note_on_c, 0, 79, 76
2, 34171, Note_on_c, 0, 79, 0
2, 34201, Note_on_c, 0, 79, 65
2, 34231, Control_c, 0, 11, 77
2, 34236, Control_c, 0, 11, 74
2, 34244, Control_c, 0, 11, 71
2, 34251, Control_c, 0, 11, 68
2, 34258, Control_c, 0, 11, 65
2, 34261, Note_on_c, 0, 79, 0
2, 34681, Note_on_c, 0, 86, 98
2, 34681, Control_c, 0, 11, 37
2, 34699, Control_c, 0, 11, 40
2, 34717, Control_c, 0, 11, 43
2, 34726, Note_on_c, 0, 86, 0
2, 34726, Note_on_c, 0, 82, 98
2, 34735, Control_c, 0, 11, 46
2, 34738, Note_on_c, 0, 82, 0
2, 34741, Note_on_c, 0, 79, 98
2, 34771, Note_on_c, 0, 79, 0
2, 35041, Control_c, 0, 11, 37
2, 35041, Note_on_c, 0, 84, 98
2, 35059, Control_c, 0, 11, 40
2, 35077, Control_c, 0, 11, 43
2, 35086, Note_on_c, 0, 84, 0
2, 35086, Note_on_c, 0, 81, 98
2, 35095, Control_c, 0, 11, 46
2, 35098, Note_on_c, 0, 81, 0
2, 35101, Note_on_c, 0, 77, 98
2, 35131, Note_on_c, 0, 77, 0
2, 35761, Note_on_c, 0, 72, 98
2, 35761, Control_c, 0, 11, 37
2, 35779, Control_c, 0, 11, 40
2, 35797, Control_c, 0, 11, 43
2, 35815, Control_c, 0, 11, 46
2, 35821, Note_on_c, 0, 72, 0
2, 35821, Note_on_c, 0, 81, 98
2, 35851, Note_on_c, 0, 81, 0
2, 35941, Control_c, 0, 11, 37
2, 35941, Note_on_c, 0, 81, 98
2, 35959, Control_c, 0, 11, 40
2, 35977, Control_c, 0, 11, 43
2, 35995, Control_c, 0, 11, 46
2, 36001, Note_on_c, 0, 81, 0
2, 36001, Note_on_c, 0, 82, 98
2, 36031, Note_on_c, 0, 82, 0
2, 36061, Note_on_c, 0, 86, 98
2, 36061, Control_c, 0, 11, 47
2, 36074, Control_c, 0, 11, 50
2, 36088, Control_c, 0, 11, 53
2, 36091, Note_on_c, 0, 86, 0
2, 36091, Note_on_c, 0, 85, 98
2, 36102, Control_c, 0, 11, 56
2, 36116, Control_c, 0, 11, 59
2, 36121, Note_on_c, 0, 85, 0
2, 36121, Note_on_c, 0, 86, 98
2, 36134, Control_c, 0, 11, 57
2, 36148, Control_c, 0, 11, 54
2, 36151, Note_on_c, 0, 86, 0
2, 36151, Note_on_c, 0, 82, 98
2, 36162, Control_c, 0, 11, 51
2, 36176, Control_c, 0, 11, 48
2, 36178, Note_on_c, 0, 82, 0
2, 36181, Note_on_c, 0, 79, 98
2, 36241, Note_on_c, 0, 79, 0
2, 36301, Note_on_c, 0, 79, 98
2, 36301, Control_c, 0, 11, 37
2, 36319, Control_c, 0, 11, 40
2, 36337, Control_c, 0, 11, 43
2, 36355, Control_c, 0, 11, 46
2, 36361, Note_on_c, 0, 79, 0
2, 36361, Note_on_c, 0, 81, 98
2, 36391, Note_on_c, 0, 81, 0
2, 36421, Control_c, 0, 11, 42
2, 36421, Note_on_c, 0, 84, 98
2, 36433, Control_c, 0, 11, 45
2, 36445, Control_c, 0, 11, 48
2, 36451, Note_on_c, 0, 84, 0
2, 36451, Note_on_c, 0, 83, 98
2, 36457, Control_c, 0, 11, 51
2, 36469, Control_c, 0, 11, 54
2, 36481, Note_on_c, 0, 83, 0
2, 36481, Control_c, 0, 11, 57
2, 36481, Note_on_c, 0, 84, 98
2, 36499, Control_c, 0, 11, 54
2, 36511, Note_on_c, 0, 84, 0
2, 36511, Note_on_c, 0, 81, 98
2, 36517, Control_c, 0, 11, 51
2, 36535, Control_c, 0, 11, 48
2, 36541, Note_on_c, 0, 81, 0
2, 36541, Note_on_c, 0, 77, 98
2, 36553, Control_c, 0, 11, 48
2, 36577, Control_c, 0, 11, 50
2, 36601, Note_on_c, 0, 77, 0
2, 36601, Control_c, 0, 11, 52
2, 36601, Note_on_c, 0, 77, 98
2, 36625, Control_c, 0, 11, 54
2, 36649, Control_c, 0, 11, 56
2, 36661, Note_on_c, 0, 77, 0
2, 36661, Note_on_c, 0, 78, 98
2, 36673, Control_c, 0, 11, 58
2, 36697, Control_c, 0, 11, 60
2, 36721, Note_on_c, 0, 78, 0
2, 36721, Control_c, 0, 11, 62
2, 36721, Note_on_c, 0, 79, 98
2, 36736, Control_c, 0, 11, 62
2, 36751, Note_on_c, 0, 79, 0
2, 36751, Note_on_c, 0, 81, 98
2, 36751, Control_c, 0, 11, 63
2, 36766, Control_c, 0, 11, 63
2, 36781, Note_on_c, 0, 81, 0
2, 36781, Note_on_c, 0, 82, 98
2, 36781, Control_c, 0, 11, 64
2, 36796, Control_c, 0, 11, 65
2, 36811, Note_on_c, 0, 82, 0
2, 36811, Control_c, 0, 11, 65
2, 36811, Note_on_c, 0, 84, 98
2, 36826, Control_c, 0, 11, 66
2, 36841, Note_on_c, 0, 84, 0
2, 36841, Control_c, 0, 11, 66
2, 36841, Note_on_c, 0, 85, 98
2, 36856, Control_c, 0, 11, 67
2, 36871, Note_on_c, 0, 85, 0
2, 36871, Control_c, 0, 11, 68
2, 36871, Note_on_c, 0, 86, 98
2, 36884, Control_c, 0, 11, 65
2, 36888, Control_c, 0, 11, 62
2, 36891, Control_c, 0, 11, 59
2, 36894, Control_c, 0, 11, 55
2, 36897, Control_c, 0, 11, 52
2, 36899, Control_c, 0, 11, 49
2, 36901, Note_on_c, 0, 86, 0
2, 36901, Control_c, 0, 11, 37
2, 36901, Note_on_c, 0, 77, 98
2, 36919, Control_c, 0, 11, 40
2, 36937, Control_c, 0, 11, 43
2, 36955, Control_c, 0, 11, 46
2, 36991, Note_on_c, 0, 77, 0
2, 36991, Note_on_c, 0, 79, 98
2, 36998, Note_on_c, 0, 77, 98
2, 36999, Note_on_c, 0, 79, 0
2, 37006, Note_on_c, 0, 77, 0
2, 37006, Note_on_c, 0, 76, 98
2, 37013, Note_on_c, 0, 77, 98
2, 37014, Note_on_c, 0, 76, 0
2, 37021, Note_on_c, 0, 77, 0
2, 37021, Note_on_c, 0, 79, 98
2, 37066, Note_on_c, 0, 79, 0
2, 37066, Note_on_c, 0, 76, 98
2, 37073, Note_on_c, 0, 76, 0
2, 37081, Note_on_c, 0, 77, 98
2, 37101, Control_c, 0, 11, 47
2, 37105, Control_c, 0, 11, 44
2, 37110, Control_c, 0, 11, 41
2, 37115, Control_c, 0, 11, 38
2, 37119, Control_c, 0, 11, 35
2, 37124, Control_c, 0, 11, 32
2, 37129, Control_c, 0, 11, 29
2, 37133, Control_c, 0, 11, 26
2, 37138, Control_c, 0, 11, 23
2, 37141, Note_on_c, 0, 77, 0
2, 37801, Note_on_c, 0, 77, 58
2, 37801, Control_c, 0, 11, 77
2, 37846, Note_on_c, 0, 77, 0
2, 37846, Note_on_c, 0, 84, 62
2, 37857, Note_on_c, 0, 84, 0
2, 37861, Note_on_c, 0, 84, 74
2, 38026, Note_on_c, 0, 84, 0
2, 38026, Note_on_c, 0, 81, 74
2, 38037, Note_on_c, 0, 81, 0
2, 38041, Note_on_c, 0, 81, 74
2, 38206, Note_on_c, 0, 81, 0
2, 38206, Note_on_c, 0, 81, 74
2, 38217, Note_on_c, 0, 81, 0
2, 38221, Note_on_c, 0, 81, 74
2, 38371, Note_on_c, 0, 81, 0
2, 38401, Control_c, 0, 11, 86
2, 38401, Note_on_c, 0, 81, 88
2, 38416, Control_c, 0, 11, 84
2, 38432, Control_c, 0, 11, 81
2, 38448, Control_c, 0, 11, 79
2, 38521, Note_on_c, 0, 81, 0
2, 38521, Note_on_c, 0, 82, 88
2, 38551, Note_on_c, 0, 82, 0
2, 38581, Note_on_c, 0, 83, 88
2, 38581, Control_c, 0, 11, 86
2, 38596, Control_c, 0, 11, 84
2, 38612, Control_c, 0, 11, 81
2, 38628, Control_c, 0, 11, 79
2, 38701, Note_on_c, 0, 83, 0
2, 38701, Note_on_c, 0, 84, 88
2, 38731, Note_on_c, 0, 84, 0
2, 38761, Control_c, 0, 11, 86
2, 38761, Note_on_c, 0, 85, 88
2, 38776, Control_c, 0, 11, 84
2, 38792, Control_c, 0, 11, 81
2, 38808, Control_c, 0, 11, 79
2, 38881, Note_on_c, 0, 85, 0
2, 38881, Note_on_c, 0, 86, 88
2, 38881, Control_c, 0, 11, 77
2, 38896, Control_c, 0, 11, 74
2, 38901, Note_on_c, 0, 86, 0
2, 38901, Note_on_c, 0, 82, 88
2, 38912, Control_c, 0, 11, 72
2, 38918, Note_on_c, 0, 82, 0
2, 38921, Note_on_c, 0, 79, 88
2, 38928, Control_c, 0, 11, 70
2, 38931, Note_on_c, 0, 79, 0
2, 38941, Note_on_c, 0, 77, 88
2, 38971, Note_on_c, 0, 77, 0
2, 39001, Control_c, 0, 11, 65
2, 39001, Note_on_c, 0, 76, 88
2, 39007, Note_on_c, 0, 76, 0
2, 39007, Note_on_c, 0, 77, 88
2, 39012, Control_c, 0, 11, 62
2, 39013, Note_on_c, 0, 77, 0
2, 39013, Note_on_c, 0, 76, 88
2, 39019, Note_on_c, 0, 76, 0
2, 39019, Note_on_c, 0, 77, 88
2, 39024, Control_c, 0, 11, 59
2, 39025, Note_on_c, 0, 77, 0
2, 39025, Note_on_c, 0, 76, 88
2, 39031, Note_on_c, 0, 76, 0
2, 39031, Note_on_c, 0, 77, 88
2, 39033, Control_c, 0, 11, 56
2, 39037, Note_on_c, 0, 77, 0
2, 39037, Note_on_c, 0, 76, 88
2, 39042, Control_c, 0, 11, 53
2, 39043, Note_on_c, 0, 76, 0
2, 39043, Note_on_c, 0, 77, 88
2, 39049, Note_on_c, 0, 77, 0
2, 39049, Note_on_c, 0, 76, 88
2, 39051, Control_c, 0, 11, 50
2, 39055, Note_on_c, 0, 76, 0
2, 39060, Control_c, 0, 11, 47
2, 39061, Note_on_c, 0, 77, 88
2, 39091, Control_c, 0, 11, 47
2, 39096, Control_c, 0, 11, 44
2, 39102, Control_c, 0, 11, 41
2, 39108, Control_c, 0, 11, 38
2, 39114, Control_c, 0, 11, 35
2, 39120, Control_c, 0, 11, 32
2, 39121, Note_on_c, 0, 77, 0
2, 39481, Note_on_c, 0, 89, 98
2, 39481, Control_c, 0, 11, 52
2, 39491, Note_on_c, 0, 89, 0
2, 39501, Note_on_c, 0, 88, 98
2, 39511, Note_on_c, 0, 88, 0
2, 39521, Note_on_c, 0, 86, 98
2, 39531, Note_on_c, 0, 86, 0
2, 39541, Note_on_c, 0, 84, 98
2, 39551, Note_on_c, 0, 84, 0
2, 39561, Note_on_c, 0, 83, 98
2, 39571, Note_on_c, 0, 83, 0
2, 39581, Note_on_c, 0, 86, 98
2, 39591, Note_on_c, 0, 86, 0
2, 39601, Note_on_c, 0, 84, 98
2, 39611, Note_on_c, 0, 84, 0
2, 39621, Note_on_c, 0, 83, 98
2, 39631, Note_on_c, 0, 83, 0
2, 39641, Note_on_c, 0, 86, 98
2, 39651, Note_on_c, 0, 86, 0
2, 39661, Note_on_c, 0, 84, 98
2, 39671, Note_on_c, 0, 84, 0
2, 39681, Note_on_c, 0, 86, 98
2, 39691, Note_on_c, 0, 86, 0
2, 39701, Note_on_c, 0, 84, 98
2, 39711, Note_on_c, 0, 84, 0
2, 39721, Note_on_c, 0, 82, 98
2, 39731, Note_on_c, 0, 82, 0
2, 39741, Note_on_c, 0, 81, 98
2, 39751, Note_on_c, 0, 81, 0
2, 39761, Note_on_c, 0, 79, 98
2, 39771, Note_on_c, 0, 79, 0
2, 39781, Note_on_c, 0, 77, 98
2, 39791, Note_on_c, 0, 77, 0
2, 39801, Note_on_c, 0, 81, 98
2, 39811, Note_on_c, 0, 81, 0
2, 39821, Note_on_c, 0, 82, 98
2, 39831, Note_on_c, 0, 82, 0
2, 39841, Note_on_c, 0, 84, 98
2, 39851, Note_on_c, 0, 84, 0
2, 39861, Note_on_c, 0, 86, 98
2, 39871, Note_on_c, 0, 86, 0
2, 39881, Note_on_c, 0, 88, 98
2, 39891, Note_on_c, 0, 88, 0
2, 39901, Note_on_c, 0, 89, 98
2, 39961, Note_on_c, 0, 89, 0
2, 40141, Note_on_c, 0, 89, 98
2, 40151, Note_on_c, 0, 89, 0
2, 40161, Note_on_c, 0, 89, 98
2, 40171, Note_on_c, 0, 89, 0
2, 40181, Note_on_c, 0, 89, 98
2, 40191, Note_on_c, 0, 89, 0
2, 40201, Note_on_c, 0, 89, 98
2, 40211, Note_on_c, 0, 89, 0
2, 40221, Note_on_c, 0, 88, 98
2, 40231, Note_on_c, 0, 88, 0
2, 40241, Note_on_c, 0, 86, 98
2, 40251, Note_on_c, 0, 86, 0
2, 40261, Note_on_c, 0, 84, 98
2, 40271, Note_on_c, 0, 84, 0
2, 40281, Note_on_c, 0, 83, 98
2, 40291, Note_on_c, 0, 83, 0
2, 40301, Note_on_c, 0, 86, 98
2, 40311, Note_on_c, 0, 86, 0
2, 40321, Note_on_c, 0, 84, 98
2, 40331, Note_on_c, 0, 84, 0
2, 40341, Note_on_c, 0, 83, 98
2, 40351, Note_on_c, 0, 83, 0
2, 40361, Note_on_c, 0, 86, 98
2, 40371, Note_on_c, 0, 86, 0
2, 40381, Note_on_c, 0, 84, 98
2, 40391, Note_on_c, 0, 84, 0
2, 40401, Note_on_c, 0, 86, 98
2, 40411, Note_on_c, 0, 86, 0
2, 40421, Note_on_c, 0, 84, 98
2, 40431, Note_on_c, 0, 84, 0
2, 40441, Note_on_c, 0, 82, 98
2, 40451, Note_on_c, 0, 82, 0
2, 40461, Note_on_c, 0, 81, 98
2, 40471, Note_on_c, 0, 81, 0
2, 40481, Note_on_c, 0, 79, 98
2, 40491, Note_on_c, 0, 79, 0
2, 40501, Note_on_c, 0, 77, 83
2, 40536, Control_c, 0, 11, 42
2, 40540, Control_c, 0, 11, 39
2, 40545, Control_c, 0, 11, 36
2, 40550, Control_c, 0, 11, 33
2, 40555, Control_c, 0, 11, 30
2, 40560, Control_c, 0, 11, 27
2, 40561, Note_on_c, 0, 77, 0
2, 43021, Control_c, 0, 11, 77
2, 43021, Note_on_c, 0, 82, 59
2, 43081, Note_on_c, 0, 82, 0
2, 43081, Note_on_c, 0, 84, 69
2, 43141, Note_on_c, 0, 84, 0
2, 43141, Note_on_c, 0, 86, 81
2, 43196, Note_on_c, 0, 86, 0
2, 43201, Note_on_c, 0, 87, 88
2, 43201, Control_c, 0, 11, 89
2, 43216, Control_c, 0, 11, 86
2, 43231, Control_c, 0, 11, 83
2, 43246, Control_c, 0, 11, 80
2, 43261, Control_c, 0, 11, 77
2, 43291, Note_on_c, 0, 87, 0
2, 43291, Note_on_c, 0, 89, 88
2, 43321, Note_on_c, 0, 89, 0
2, 43321, Note_on_c, 0, 86, 88
2, 43351, Note_on_c, 0, 86, 0
2, 43381, Note_on_c, 0, 84, 88
2, 43381, Control_c, 0, 11, 89
2, 43396, Control_c, 0, 11, 86
2, 43411, Control_c, 0, 11, 83
2, 43426, Control_c, 0, 11, 80
2, 43441, Control_c, 0, 11, 77
2, 43471, Note_on_c, 0, 84, 0
2, 43471, Note_on_c, 0, 86, 88
2, 43501, Note_on_c, 0, 86, 0
2, 43501, Note_on_c, 0, 83, 88
2, 43531, Note_on_c, 0, 83, 0
2, 43561, Note_on_c, 0, 82, 88
2, 43561, Control_c, 0, 11, 89
2, 43576, Control_c, 0, 11, 86
2, 43591, Control_c, 0, 11, 83
2, 43606, Control_c, 0, 11, 80
2, 43621, Control_c, 0, 11, 77
2, 43651, Note_on_c, 0, 82, 0
2, 43651, Note_on_c, 0, 84, 88
2, 43681, Note_on_c, 0, 84, 0
2, 43681, Note_on_c, 0, 81, 88
2, 43711, Note_on_c, 0, 81, 0
2, 43741, Note_on_c, 0, 79, 98
2, 43801, Note_on_c, 0, 79, 0
2, 43801, Note_on_c, 0, 81, 98
2, 43861, Note_on_c, 0, 81, 0
2, 43861, Note_on_c, 0, 82, 98
2, 43916, Note_on_c, 0, 82, 0
2, 43921, Note_on_c, 0, 77, 98
2, 44161, Note_on_c, 0, 77, 0
2, 44161, Note_on_c, 0, 79, 90
2, 44221, Note_on_c, 0, 79, 0
2, 44221, Note_on_c, 0, 76, 90
2, 44261, Control_c, 0, 11, 77
2, 44263, Control_c, 0, 11, 74
2, 44265, Control_c, 0, 11, 71
2, 44267, Control_c, 0, 11, 68
2, 44269, Control_c, 0, 11, 65
2, 44271, Control_c, 0, 11, 62
2, 44273, Control_c, 0, 11, 59
2, 44275, Control_c, 0, 11, 56
2, 44276, Note_on_c, 0, 76, 0
2, 44277, Control_c, 0, 11, 53
2, 44279, Control_c, 0, 11, 50
2, 44281, Control_c, 0, 11, 47
2, 44281, Note_on_c, 0, 77, 93
2, 44341, Note_on_c, 0, 77, 0
2, 45421, Note_on_c, 0, 72, 119
2, 45421, Control_c, 0, 11, 52
2, 45444, Note_on_c, 0, 72, 0
2, 45466, Note_on_c, 0, 74, 119
2, 45474, Note_on_c, 0, 74, 0
2, 45481, Note_on_c, 0, 76, 119
2, 45504, Note_on_c, 0, 76, 0
2, 45526, Note_on_c, 0, 77, 119
2, 45534, Note_on_c, 0, 77, 0
2, 45541, Note_on_c, 0, 79, 119
2, 45564, Note_on_c, 0, 79, 0
2, 45586, Note_on_c, 0, 81, 119
2, 45594, Note_on_c, 0, 81, 0
2, 45601, Note_on_c, 0, 82, 119
2, 45624, Note_on_c, 0, 82, 0
2, 45646, Note_on_c, 0, 84, 119
2, 45654, Note_on_c, 0, 84, 0
2, 45661, Note_on_c, 0, 86, 119
2, 45684, Note_on_c, 0, 86, 0
2, 45706, Note_on_c, 0, 88, 119
2, 45714, Note_on_c, 0, 88, 0
2, 45721, Note_on_c, 0, 89, 119
2, 45741, Control_c, 0, 11, 47
2, 45746, Control_c, 0, 11, 44
2, 45752, Control_c, 0, 11, 41
2, 45758, Control_c, 0, 11, 38
2, 45764, Control_c, 0, 11, 35
2, 45770, Control_c, 0, 11, 32
2, 45776, Control_c, 0, 11, 29
2, 45781, Note_on_c, 0, 89, 0
2, 46131, Control_c, 0, 11, 42
2, 46131, Note_on_c, 0, 83, 98
2, 46141, Note_on_c, 0, 83, 0
2, 46141, Note_on_c, 0, 84, 98
2, 46171, Note_on_c, 0, 84, 0
2, 46311, Note_on_c, 0, 83, 98
2, 46321, Note_on_c, 0, 83, 0
2, 46321, Note_on_c, 0, 84, 98
2, 46351, Note_on_c, 0, 84, 0
2, 46381, Note_on_c, 0, 88, 108
2, 46381, Control_c, 0, 11, 62
2, 46385, Control_c, 0, 11, 65
2, 46389, Control_c, 0, 11, 68
2, 46393, Control_c, 0, 11, 71
2, 46397, Control_c, 0, 11, 74
2, 46401, Control_c, 0, 11, 77
2, 46441, Note_on_c, 0, 88, 0
2, 46441, Note_on_c, 0, 89, 98
2, 46471, Note_on_c, 0, 89, 0
2, 46501, Note_on_c, 0, 77, 88
2, 46501, Control_c, 0, 11, 42
2, 46531, Note_on_c, 0, 77, 0
2, 46561, Note_on_c, 0, 77, 79
2, 46591, Note_on_c, 0, 77, 0
2, 46621, Note_on_c, 0, 77, 62
2, 46701, Control_c, 0, 11, 42
2, 46707, Control_c, 0, 11, 39
2, 46713, Control_c, 0, 11, 36
2, 46719, Control_c, 0, 11, 33
2, 46725, Control_c, 0, 11, 30
2, 46731, Control_c, 0, 11, 27
2, 46737, Control_c, 0, 11, 24
2, 46741, Note_on_c, 0, 77, 0
2, 46981, Control_c, 0, 121, 0
2, 46981, End_track
3, 0, Start_track
3, 0, MIDI_port, 0
3, 0, Title_t, "2 Oboi"
3, 0, Program_c, 1, 68
3, 0, Control_c, 1, 10, 72
3, 1, Control_c, 1, 121, 0
3, 6, Program_c, 1, 68
3, 11, Pitch_bend_c, 1, 8192
3, 16, Control_c, 1, 11, 47
3, 21, Control_c, 1, 7, 127
3, 26, Control_c, 1, 91, 54
3, 31, Control_c, 1, 93, 0
3, 36, Control_c, 1, 10, 72
3, 2281, Control_c, 1, 11, 32
3, 2281, Note_on_c, 1, 72, 98
3, 2299, Control_c, 1, 11, 35
3, 2317, Control_c, 1, 11, 38
3, 2335, Control_c, 1, 11, 41
3, 2341, Note_on_c, 1, 72, 0
3, 2341, Note_on_c, 1, 69, 98
3, 2341, Note_on_c, 1, 77, 98
3, 2380, Note_on_c, 1, 77, 0
3, 2380, Note_on_c, 1, 69, 0
3, 2401, Note_on_c, 1, 69, 98
3, 2401, Note_on_c, 1, 77, 98
3, 2440, Note_on_c, 1, 77, 0
3, 2440, Note_on_c, 1, 69, 0
3, 2461, Note_on_c, 1, 69, 98
3, 2461, Note_on_c, 1, 77, 98
3, 2521, Note_on_c, 1, 77, 0
3, 2521, Note_on_c, 1, 69, 0
3, 2521, Note_on_c, 1, 77, 98
3, 2521, Note_on_c, 1, 81, 98
3, 2560, Note_on_c, 1, 81, 0
3, 2560, Note_on_c, 1, 77, 0
3, 2581, Note_on_c, 1, 77, 98
3, 2581, Note_on_c, 1, 81, 98
3, 2620, Note_on_c, 1, 81, 0
3, 2620, Note_on_c, 1, 77, 0
3, 2641, Note_on_c, 1, 77, 98
3, 2641, Note_on_c, 1, 81, 98
3, 2701, Note_on_c, 1, 81, 0
3, 2701, Note_on_c, 1, 77, 0
3, 2701, Note_on_c, 1, 82, 98
3, 2701, Note_on_c, 1, 76, 98
3, 2740, Note_on_c, 1, 76, 0
3, 2740, Note_on_c, 1, 82, 0
3, 2761, Note_on_c, 1, 82, 98
3, 2761, Note_on_c, 1, 70, 98
3, 2791, Note_on_c, 1, 82, 0
3, 2806, Note_on_c, 1, 81, 98
3, 2816, Note_on_c, 1, 81, 0
3, 2820, Note_on_c, 1, 70, 0
3, 2821, Note_on_c, 1, 79, 98
3, 2821, Note_on_c, 1, 70, 98
3, 2851, Note_on_c, 1, 79, 0
3, 2866, Note_on_c, 1, 77, 98
3, 2876, Note_on_c, 1, 77, 0
3, 2880, Note_on_c, 1, 70, 0
3, 2881, Note_on_c, 1, 76, 98
3, 2881, Note_on_c, 1, 72, 98
3, 2911, Note_on_c, 1, 76, 0
3, 2941, Note_on_c, 1, 72, 0
3, 2941, Control_c, 1, 11, 42
3, 2941, Note_on_c, 1, 67, 98
3, 2941, Note_on_c, 1, 76, 98
3, 2956, Control_c, 1, 11, 43
3, 2971, Note_on_c, 1, 76, 0
3, 2971, Control_c, 1, 11, 44
3, 2986, Control_c, 1, 11, 45
3, 3001, Note_on_c, 1, 67, 0
3, 3001, Control_c, 1, 11, 46
3, 3001, Note_on_c, 1, 77, 98
3, 3001, Note_on_c, 1, 72, 98
3, 3016, Control_c, 1, 11, 47
3, 3031, Control_c, 1, 11, 48
3, 3046, Control_c, 1, 11, 49
3, 3061, Note_on_c, 1, 77, 0
3, 3061, Control_c, 1, 11, 50
3, 3061, Note_on_c, 1, 77, 98
3, 3076, Control_c, 1, 11, 51
3, 3091, Control_c, 1, 11, 52
3, 3106, Control_c, 1, 11, 53
3, 3121, Note_on_c, 1, 77, 0
3, 3121, Note_on_c, 1, 72, 0
3, 3121, Control_c, 1, 11, 54
3, 3121, Note_on_c, 1, 79, 98
3, 3121, Note_on_c, 1, 76, 98
3, 3136, Control_c, 1, 11, 55
3, 3151, Control_c, 1, 11, 56
3, 3166, Control_c, 1, 11, 57
3, 3181, Note_on_c, 1, 76, 0
3, 3181, Note_on_c, 1, 79, 0
3, 3181, Control_c, 1, 11, 58
3, 3181, Note_on_c, 1, 81, 98
3, 3181, Note_on_c, 1, 77, 98
3, 3196, Control_c, 1, 11, 59
3, 3211, Control_c, 1, 11, 60
3, 3226, Control_c, 1, 11, 61
3, 3241, Note_on_c, 1, 77, 0
3, 3241, Note_on_c, 1, 81, 0
3, 3241, Control_c, 1, 11, 62
3, 3241, Note_on_c, 1, 82, 98
3, 3241, Note_on_c, 1, 79, 98
3, 3301, Note_on_c, 1, 79, 0
3, 3301, Note_on_c, 1, 76, 98
3, 3331, Note_on_c, 1, 82, 0
3, 3331, Note_on_c, 1, 84, 98
3, 3361, Note_on_c, 1, 84, 0
3, 3361, Note_on_c, 1, 76, 0
3, 3361, Note_on_c, 1, 81, 98
3, 3361, Note_on_c, 1, 77, 98
3, 3391, Note_on_c, 1, 81, 0
3, 3416, Note_on_c, 1, 77, 0
3, 3421, Note_on_c, 1, 76, 98
3, 3421, Note_on_c, 1, 79, 98
3, 3481, Note_on_c, 1, 79, 0
3, 3481, Note_on_c, 1, 76, 0
3, 3541, Note_on_c, 1, 79, 98
3, 3541, Note_on_c, 1, 76, 98
3, 3601, Note_on_c, 1, 76, 0
3, 3601, Note_on_c, 1, 79, 0
3, 3601, Note_on_c, 1, 81, 98
3, 3601, Note_on_c, 1, 77, 98
3, 3661, Note_on_c, 1, 77, 0
3, 3661, Note_on_c, 1, 81, 0
3, 3721, Note_on_c, 1, 77, 98
3, 3721, Note_on_c, 1, 81, 98
3, 3721, Control_c, 1, 11, 56
3, 3724, Control_c, 1, 11, 60
3, 3728, Control_c, 1, 11, 63
3, 3733, Control_c, 1, 11, 66
3, 3749, Control_c, 1, 11, 65
3, 3761, Control_c, 1, 11, 62
3, 3773, Control_c, 1, 11, 59
3, 3781, Note_on_c, 1, 81, 0
3, 3781, Note_on_c, 1, 77, 0
3, 3781, Note_on_c, 1, 76, 98
3, 3781, Note_on_c, 1, 79, 98
3, 3841, Note_on_c, 1, 79, 0
3, 3841, Note_on_c, 1, 76, 0
3, 3901, Note_on_c, 1, 79, 98
3, 3901, Note_on_c, 1, 76, 98
3, 3961, Note_on_c, 1, 76, 0
3, 3961, Note_on_c, 1, 79, 0
3, 3961, Control_c, 1, 11, 62
3, 3961, Note_on_c, 1, 77, 98
3, 3961, Note_on_c, 1, 81, 98
3, 4021, Note_on_c, 1, 81, 0
3, 4021, Note_on_c, 1, 77, 0
3, 4081, Note_on_c, 1, 77, 98
3, 4081, Control_c, 1, 11, 62
3, 4081, Note_on_c, 1, 81, 98
3, 4086, Control_c, 1, 11, 65
3, 4090, Control_c, 1, 11, 68
3, 4094, Control_c, 1, 11, 71
3, 4109, Control_c, 1, 11, 68
3, 4124, Control_c, 1, 11, 65
3, 4138, Control_c, 1, 11, 62
3, 4141, Note_on_c, 1, 81, 0
3, 4141, Note_on_c, 1, 77, 0
3, 4141, Note_on_c, 1, 79, 98
3, 4141, Note_on_c, 1, 76, 98
3, 4201, Note_on_c, 1, 76, 0
3, 4201, Note_on_c, 1, 79, 0
3, 4261, Note_on_c, 1, 81, 98
3, 4261, Control_c, 1, 11, 65
3, 4261, Note_on_c, 1, 84, 98
3, 4264, Control_c, 1, 11, 68
3, 4269, Control_c, 1, 11, 71
3, 4273, Control_c, 1, 11, 74
3, 4289, Control_c, 1, 11, 72
3, 4304, Control_c, 1, 11, 69
3, 4306, Note_on_c, 1, 84, 0
3, 4306, Note_on_c, 1, 81, 0
3, 4306, Note_on_c, 1, 81, 98
3, 4306, Note_on_c, 1, 77, 98
3, 4314, Note_on_c, 1, 77, 0
3, 4314, Note_on_c, 1, 81, 0
3, 4316, Control_c, 1, 11, 66
3, 4321, Note_on_c, 1, 76, 98
3, 4321, Note_on_c, 1, 79, 98
3, 4351, Note_on_c, 1, 79, 0
3, 4351, Note_on_c, 1, 76, 0
3, 4441, Note_on_c, 1, 81, 98
3, 4441, Control_c, 1, 11, 78
3, 4441, Note_on_c, 1, 84, 98
3, 4457, Control_c, 1, 11, 76
3, 4474, Control_c, 1, 11, 74
3, 4486, Note_on_c, 1, 84, 0
3, 4486, Note_on_c, 1, 81, 0
3, 4486, Note_on_c, 1, 77, 98
3, 4486, Note_on_c, 1, 81, 98
3, 4490, Control_c, 1, 11, 73
3, 4494, Note_on_c, 1, 81, 0
3, 4494, Note_on_c, 1, 77, 0
3, 4501, Note_on_c, 1, 79, 88
3, 4501, Control_c, 1, 11, 77
3, 4501, Note_on_c, 1, 76, 88
3, 4540, Note_on_c, 1, 76, 0
3, 4540, Note_on_c, 1, 79, 0
3, 4561, Note_on_c, 1, 76, 70
3, 4561, Note_on_c, 1, 79, 70
3, 4600, Note_on_c, 1, 79, 0
3, 4600, Note_on_c, 1, 76, 0
3, 4621, Note_on_c, 1, 79, 68
3, 4621, Note_on_c, 1, 76, 68
3, 4660, Note_on_c, 1, 76, 0
3, 4660, Note_on_c, 1, 79, 0
3, 4681, Note_on_c, 1, 76, 58
3, 4681, Note_on_c, 1, 79, 58
3, 4716, Control_c, 1, 11, 77
3, 4719, Control_c, 1, 11, 74
3, 4724, Control_c, 1, 11, 71
3, 4729, Control_c, 1, 11, 68
3, 4734, Control_c, 1, 11, 65
3, 4739, Control_c, 1, 11, 62
3, 4741, Note_on_c, 1, 79, 0
3, 4741, Note_on_c, 1, 76, 0
3, 6241, Control_c, 1, 11, 42
3, 6241, Note_on_c, 1, 67, 98
3, 6259, Control_c, 1, 11, 45
3, 6277, Control_c, 1, 11, 48
3, 6295, Control_c, 1, 11, 51
3, 6301, Note_on_c, 1, 67, 0
3, 6301, Note_on_c, 1, 76, 98
3, 6340, Note_on_c, 1, 76, 0
3, 6421, Note_on_c, 1, 73, 98
3, 6421, Note_on_c, 1, 76, 98
3, 6481, Note_on_c, 1, 76, 0
3, 6481, Note_on_c, 1, 73, 0
3, 6481, Note_on_c, 1, 74, 98
3, 6481, Note_on_c, 1, 77, 98
3, 6520, Note_on_c, 1, 77, 0
3, 6520, Note_on_c, 1, 74, 0
3, 6541, Note_on_c, 1, 81, 98
3, 6541, Control_c, 1, 11, 52
3, 6553, Control_c, 1, 11, 55
3, 6565, Control_c, 1, 11, 58
3, 6571, Note_on_c, 1, 81, 0
3, 6571, Note_on_c, 1, 80, 98
3, 6577, Control_c, 1, 11, 61
3, 6593, Control_c, 1, 11, 63
3, 6601, Note_on_c, 1, 80, 0
3, 6601, Note_on_c, 1, 81, 98
3, 6609, Control_c, 1, 11, 63
3, 6625, Control_c, 1, 11, 61
3, 6631, Note_on_c, 1, 81, 0
3, 6631, Note_on_c, 1, 77, 98
3, 6637, Control_c, 1, 11, 58
3, 6649, Control_c, 1, 11, 55
3, 6656, Note_on_c, 1, 77, 0
3, 6661, Note_on_c, 1, 74, 98
3, 6661, Control_c, 1, 11, 52
3, 6661, Note_on_c, 1, 71, 98
3, 6721, Note_on_c, 1, 71, 0
3, 6721, Note_on_c, 1, 74, 0
3, 6781, Note_on_c, 1, 71, 98
3, 6781, Note_on_c, 1, 74, 98
3, 6841, Note_on_c, 1, 74, 0
3, 6841, Note_on_c, 1, 71, 0
3, 6841, Note_on_c, 1, 76, 98
3, 6841, Note_on_c, 1, 72, 98
3, 6880, Note_on_c, 1, 72, 0
3, 6880, Note_on_c, 1, 76, 0
3, 8281, Control_c, 1, 11, 68
3, 8281, Note_on_c, 1, 60, 65
3, 8281, Note_on_c, 1, 72, 65
3, 8311, Note_on_c, 1, 72, 0
3, 8311, Note_on_c, 1, 60, 0
3, 8326, Note_on_c, 1, 67, 88
3, 8326, Note_on_c, 1, 79, 65
3, 8334, Note_on_c, 1, 79, 0
3, 8334, Note_on_c, 1, 67, 0
3, 8341, Control_c, 1, 11, 77
3, 8341, Note_on_c, 1, 79, 65
3, 8341, Note_on_c, 1, 67, 88
3, 8501, Note_on_c, 1, 67, 0
3, 8501, Note_on_c, 1, 79, 0
3, 8506, Note_on_c, 1, 64, 88
3, 8506, Note_on_c, 1, 76, 65
3, 8514, Note_on_c, 1, 76, 0
3, 8514, Note_on_c, 1, 64, 0
3, 8521, Note_on_c, 1, 64, 88
3, 8521, Note_on_c, 1, 76, 65
3, 8681, Note_on_c, 1, 76, 0
3, 8681, Note_on_c, 1, 64, 0
3, 8686, Note_on_c, 1, 64, 88
3, 8686, Note_on_c, 1, 76, 88
3, 8694, Note_on_c, 1, 76, 0
3, 8694, Note_on_c, 1, 64, 0
3, 8701, Note_on_c, 1, 64, 88
3, 8701, Note_on_c, 1, 76, 88
3, 8876, Note_on_c, 1, 76, 0
3, 8876, Note_on_c, 1, 64, 0
3, 8881, Note_on_c, 1, 64, 88
3, 8881, Control_c, 1, 11, 89
3, 8881, Note_on_c, 1, 76, 88
3, 8895, Control_c, 1, 11, 86
3, 8910, Control_c, 1, 11, 83
3, 8925, Control_c, 1, 11, 80
3, 8940, Control_c, 1, 11, 77
3, 9001, Note_on_c, 1, 76, 0
3, 9001, Note_on_c, 1, 64, 0
3, 9001, Note_on_c, 1, 77, 88
3, 9001, Note_on_c, 1, 65, 88
3, 9031, Note_on_c, 1, 65, 0
3, 9031, Note_on_c, 1, 77, 0
3, 9061, Note_on_c, 1, 78, 88
3, 9061, Note_on_c, 1, 66, 88
3, 9061, Control_c, 1, 11, 89
3, 9075, Control_c, 1, 11, 86
3, 9090, Control_c, 1, 11, 83
3, 9105, Control_c, 1, 11, 80
3, 9120, Control_c, 1, 11, 77
3, 9181, Note_on_c, 1, 66, 0
3, 9181, Note_on_c, 1, 78, 0
3, 9181, Note_on_c, 1, 67, 88
3, 9181, Note_on_c, 1, 79, 88
3, 9211, Note_on_c, 1, 79, 0
3, 9211, Note_on_c, 1, 67, 0
3, 9241, Note_on_c, 1, 68, 88
3, 9241, Control_c, 1, 11, 89
3, 9241, Note_on_c, 1, 80, 88
3, 9255, Control_c, 1, 11, 86
3, 9270, Control_c, 1, 11, 83
3, 9285, Control_c, 1, 11, 80
3, 9300, Control_c, 1, 11, 77
3, 9361, Note_on_c, 1, 80, 0
3, 9361, Note_on_c, 1, 68, 0
3, 9361, Note_on_c, 1, 69, 98
3, 9361, Note_on_c, 1, 81, 98
3, 9361, Control_c, 1, 11, 77
3, 9373, Control_c, 1, 11, 74
3, 9388, Control_c, 1, 11, 71
3, 9403, Control_c, 1, 11, 68
3, 9416, Note_on_c, 1, 81, 0
3, 9416, Note_on_c, 1, 69, 0
3, 9418, Control_c, 1, 11, 65
3, 9421, Note_on_c, 1, 72, 98
3, 9421, Note_on_c, 1, 67, 98
3, 9481, Note_on_c, 1, 67, 0
3, 9481, Note_on_c, 1, 72, 0
3, 9481, Control_c, 1, 11, 65
3, 9481, Note_on_c, 1, 67, 78
3, 9481, Note_on_c, 1, 71, 78
3, 9481, Control_c, 1, 11, 68
3, 9487, Control_c, 1, 11, 64
3, 9505, Control_c, 1, 11, 62
3, 9521, Control_c, 1, 11, 62
3, 9529, Control_c, 1, 11, 59
3, 9536, Note_on_c, 1, 71, 0
3, 9536, Note_on_c, 1, 67, 0
3, 9541, Note_on_c, 1, 67, 62
3, 9541, Note_on_c, 1, 72, 62
3, 9571, Control_c, 1, 11, 57
3, 9575, Control_c, 1, 11, 54
3, 9579, Control_c, 1, 11, 51
3, 9584, Control_c, 1, 11, 48
3, 9588, Control_c, 1, 11, 45
3, 9592, Control_c, 1, 11, 42
3, 9597, Control_c, 1, 11, 39
3, 9601, Note_on_c, 1, 72, 0
3, 9601, Note_on_c, 1, 67, 0
3, 9781, Control_c, 1, 11, 37
3, 9781, Note_on_c, 1, 74, 98
3, 9781, Note_on_c, 1, 77, 98
3, 9841, Note_on_c, 1, 77, 0
3, 9841, Note_on_c, 1, 74, 0
3, 9901, Note_on_c, 1, 72, 98
3, 9901, Note_on_c, 1, 76, 98
3, 9961, Note_on_c, 1, 76, 0
3, 9961, Note_on_c, 1, 72, 0
3, 10021, Note_on_c, 1, 76, 98
3, 10021, Note_on_c, 1, 72, 98
3, 10081, Note_on_c, 1, 72, 0
3, 10081, Note_on_c, 1, 76, 0
3, 10141, Note_on_c, 1, 83, 98
3, 10141, Note_on_c, 1, 77, 98
3, 10201, Note_on_c, 1, 77, 0
3, 10201, Note_on_c, 1, 83, 0
3, 10261, Note_on_c, 1, 84, 98
3, 10261, Note_on_c, 1, 76, 98
3, 10321, Note_on_c, 1, 76, 0
3, 10321, Note_on_c, 1, 84, 0
3, 10381, Note_on_c, 1, 72, 98
3, 10381, Note_on_c, 1, 76, 98
3, 10441, Note_on_c, 1, 76, 0
3, 10441, Note_on_c, 1, 72, 0
3, 10501, Note_on_c, 1, 71, 98
3, 10501, Note_on_c, 1, 77, 98
3, 10561, Note_on_c, 1, 77, 0
3, 10561, Note_on_c, 1, 71, 0
3, 10621, Note_on_c, 1, 76, 98
3, 10621, Note_on_c, 1, 72, 98
3, 10681, Note_on_c, 1, 72, 0
3, 10681, Note_on_c, 1, 76, 0
3, 10741, Note_on_c, 1, 76, 98
3, 10741, Note_on_c, 1, 72, 98
3, 10801, Note_on_c, 1, 72, 0
3, 10801, Note_on_c, 1, 76, 0
3, 10861, Note_on_c, 1, 83, 98
3, 10861, Note_on_c, 1, 77, 98
3, 10921, Note_on_c, 1, 77, 0
3, 10921, Note_on_c, 1, 83, 0
3, 10921, Note_on_c, 1, 83, 98
3, 10921, Note_on_c, 1, 77, 98
3, 10981, Note_on_c, 1, 77, 0
3, 10981, Note_on_c, 1, 83, 0
3, 10981, Note_on_c, 1, 76, 83
3, 10981, Note_on_c, 1, 84, 83
3, 11016, Control_c, 1, 11, 37
3, 11023, Control_c, 1, 11, 34
3, 11030, Control_c, 1, 11, 31
3, 11037, Control_c, 1, 11, 28
3, 11041, Note_on_c, 1, 84, 0
3, 11041, Note_on_c, 1, 76, 0
3, 11281, Control_c, 1, 11, 37
3, 11281, Note_on_c, 1, 67, 83
3, 11299, Control_c, 1, 11, 40
3, 11317, Control_c, 1, 11, 43
3, 11335, Control_c, 1, 11, 46
3, 11341, Note_on_c, 1, 67, 0
3, 11341, Note_on_c, 1, 72, 98
3, 11371, Note_on_c, 1, 72, 0
3, 11401, Note_on_c, 1, 64, 83
3, 11401, Note_on_c, 1, 67, 83
3, 11431, Note_on_c, 1, 67, 0
3, 11431, Note_on_c, 1, 64, 0
3, 11461, Note_on_c, 1, 67, 70
3, 11461, Note_on_c, 1, 64, 70
3, 11491, Note_on_c, 1, 64, 0
3, 11491, Note_on_c, 1, 67, 0
3, 11521, Note_on_c, 1, 64, 59
3, 11521, Note_on_c, 1, 67, 59
3, 11556, Control_c, 1, 11, 47
3, 11563, Control_c, 1, 11, 44
3, 11570, Control_c, 1, 11, 41
3, 11577, Control_c, 1, 11, 38
3, 11581, Note_on_c, 1, 67, 0
3, 11581, Note_on_c, 1, 64, 0
3, 13801, Control_c, 1, 11, 32
3, 13801, Note_on_c, 1, 72, 98
3, 13819, Control_c, 1, 11, 35
3, 13837, Control_c, 1, 11, 38
3, 13855, Control_c, 1, 11, 41
3, 13861, Note_on_c, 1, 72, 0
3, 13861, Note_on_c, 1, 69, 98
3, 13861, Note_on_c, 1, 77, 98
3, 13900, Note_on_c, 1, 77, 0
3, 13900, Note_on_c, 1, 69, 0
3, 13921, Note_on_c, 1, 69, 98
3, 13921, Note_on_c, 1, 77, 98
3, 13960, Note_on_c, 1, 77, 0
3, 13960, Note_on_c, 1, 69, 0
3, 13981, Note_on_c, 1, 69, 98
3, 13981, Note_on_c, 1, 77, 98
3, 14041, Note_on_c, 1, 77, 0
3, 14041, Note_on_c, 1, 69, 0
3, 14041, Note_on_c, 1, 81, 98
3, 14041, Note_on_c, 1, 77, 98
3, 14080, Note_on_c, 1, 77, 0
3, 14080, Note_on_c, 1, 81, 0
3, 14101, Note_on_c, 1, 81, 98
3, 14101, Note_on_c, 1, 77, 98
3, 14140, Note_on_c, 1, 77, 0
3, 14140, Note_on_c, 1, 81, 0
3, 14161, Note_on_c, 1, 77, 98
3, 14161, Note_on_c, 1, 81, 98
3, 14221, Note_on_c, 1, 81, 0
3, 14221, Note_on_c, 1, 77, 0
3, 14221, Note_on_c, 1, 82, 98
3, 14221, Note_on_c, 1, 76, 98
3, 14260, Note_on_c, 1, 76, 0
3, 14260, Note_on_c, 1, 82, 0
3, 14281, Note_on_c, 1, 82, 98
3, 14281, Note_on_c, 1, 70, 98
3, 14311, Note_on_c, 1, 82, 0
3, 14326, Note_on_c, 1, 81, 98
3, 14336, Note_on_c, 1, 81, 0
3, 14340, Note_on_c, 1, 70, 0
3, 14341, Note_on_c, 1, 70, 98
3, 14341, Note_on_c, 1, 79, 98
3, 14371, Note_on_c, 1, 79, 0
3, 14386, Note_on_c, 1, 77, 98
3, 14396, Note_on_c, 1, 77, 0
3, 14400, Note_on_c, 1, 70, 0
3, 14401, Note_on_c, 1, 76, 98
3, 14401, Note_on_c, 1, 72, 98
3, 14431, Note_on_c, 1, 76, 0
3, 14461, Note_on_c, 1, 72, 0
3, 14461, Note_on_c, 1, 67, 98
3, 14461, Control_c, 1, 11, 42
3, 14461, Note_on_c, 1, 76, 98
3, 14476, Control_c, 1, 11, 43
3, 14491, Note_on_c, 1, 76, 0
3, 14491, Control_c, 1, 11, 44
3, 14506, Control_c, 1, 11, 45
3, 14521, Note_on_c, 1, 67, 0
3, 14521, Note_on_c, 1, 72, 98
3, 14521, Note_on_c, 1, 77, 98
3, 14521, Control_c, 1, 11, 46
3, 14536, Control_c, 1, 11, 47
3, 14551, Control_c, 1, 11, 48
3, 14566, Control_c, 1, 11, 49
3, 14581, Note_on_c, 1, 77, 0
3, 14581, Control_c, 1, 11, 50
3, 14581, Note_on_c, 1, 77, 98
3, 14596, Control_c, 1, 11, 51
3, 14611, Control_c, 1, 11, 52
3, 14626, Control_c, 1, 11, 53
3, 14641, Note_on_c, 1, 77, 0
3, 14641, Note_on_c, 1, 72, 0
3, 14641, Note_on_c, 1, 79, 98
3, 14641, Note_on_c, 1, 76, 98
3, 14641, Control_c, 1, 11, 54
3, 14656, Control_c, 1, 11, 55
3, 14671, Control_c, 1, 11, 56
3, 14686, Control_c, 1, 11, 57
3, 14701, Note_on_c, 1, 76, 0
3, 14701, Note_on_c, 1, 79, 0
3, 14701, Control_c, 1, 11, 58
3, 14701, Note_on_c, 1, 81, 98
3, 14701, Note_on_c, 1, 77, 98
3, 14716, Control_c, 1, 11, 59
3, 14731, Control_c, 1, 11, 60
3, 14746, Control_c, 1, 11, 61
3, 14761, Note_on_c, 1, 77, 0
3, 14761, Note_on_c, 1, 81, 0
3, 14761, Control_c, 1, 11, 62
3, 14761, Note_on_c, 1, 82, 98
3, 14761, Note_on_c, 1, 79, 98
3, 14821, Note_on_c, 1, 79, 0
3, 14821, Note_on_c, 1, 76, 98
3, 14851, Note_on_c, 1, 82, 0
3, 14851, Note_on_c, 1, 84, 98
3, 14881, Note_on_c, 1, 84, 0
3, 14881, Note_on_c, 1, 76, 0
3, 14881, Note_on_c, 1, 81, 98
3, 14881, Note_on_c, 1, 77, 98
3, 14911, Note_on_c, 1, 81, 0
3, 14936, Note_on_c, 1, 77, 0
3, 14941, Note_on_c, 1, 76, 98
3, 14941, Note_on_c, 1, 79, 98
3, 15001, Note_on_c, 1, 79, 0
3, 15001, Note_on_c, 1, 76, 0
3, 15061, Note_on_c, 1, 79, 98
3, 15061, Note_on_c, 1, 76, 98
3, 15121, Note_on_c, 1, 76, 0
3, 15121, Note_on_c, 1, 79, 0
3, 15121, Note_on_c, 1, 81, 98
3, 15121, Note_on_c, 1, 77, 98
3, 15181, Note_on_c, 1, 77, 0
3, 15181, Note_on_c, 1, 81, 0
3, 15241, Note_on_c, 1, 77, 98
3, 15241, Control_c, 1, 11, 56
3, 15241, Note_on_c, 1, 81, 98
3, 15244, Control_c, 1, 11, 60
3, 15248, Control_c, 1, 11, 63
3, 15253, Control_c, 1, 11, 66
3, 15269, Control_c, 1, 11, 65
3, 15281, Control_c, 1, 11, 62
3, 15293, Control_c, 1, 11, 59
3, 15301, Note_on_c, 1, 81, 0
3, 15301, Note_on_c, 1, 77, 0
3, 15301, Note_on_c, 1, 79, 98
3, 15301, Note_on_c, 1, 76, 98
3, 15361, Note_on_c, 1, 76, 0
3, 15361, Note_on_c, 1, 79, 0
3, 15421, Note_on_c, 1, 79, 98
3, 15421, Note_on_c, 1, 76, 98
3, 15481, Note_on_c, 1, 76, 0
3, 15481, Note_on_c, 1, 79, 0
3, 15481, Note_on_c, 1, 77, 98
3, 15481, Note_on_c, 1, 81, 98
3, 15481, Control_c, 1, 11, 62
3, 15541, Note_on_c, 1, 81, 0
3, 15541, Note_on_c, 1, 77, 0
3, 15601, Control_c, 1, 11, 62
3, 15601, Note_on_c, 1, 77, 98
3, 15601, Note_on_c, 1, 81, 98
3, 15606, Control_c, 1, 11, 65
3, 15610, Control_c, 1, 11, 68
3, 15614, Control_c, 1, 11, 71
3, 15629, Control_c, 1, 11, 68
3, 15644, Control_c, 1, 11, 65
3, 15658, Control_c, 1, 11, 62
3, 15661, Note_on_c, 1, 81, 0
3, 15661, Note_on_c, 1, 77, 0
3, 15661, Note_on_c, 1, 76, 98
3, 15661, Note_on_c, 1, 79, 98
3, 15721, Note_on_c, 1, 79, 0
3, 15721, Note_on_c, 1, 76, 0
3, 15781, Note_on_c, 1, 81, 98
3, 15781, Note_on_c, 1, 84, 98
3, 15781, Control_c, 1, 11, 65
3, 15784, Control_c, 1, 11, 68
3, 15789, Control_c, 1, 11, 71
3, 15793, Control_c, 1, 11, 74
3, 15809, Control_c, 1, 11, 72
3, 15824, Control_c, 1, 11, 69
3, 15826, Note_on_c, 1, 84, 0
3, 15826, Note_on_c, 1, 81, 0
3, 15826, Note_on_c, 1, 77, 98
3, 15826, Note_on_c, 1, 81, 98
3, 15834, Note_on_c, 1, 81, 0
3, 15834, Note_on_c, 1, 77, 0
3, 15836, Control_c, 1, 11, 66
3, 15841, Note_on_c, 1, 79, 98
3, 15841, Note_on_c, 1, 76, 98
3, 15871, Note_on_c, 1, 76, 0
3, 15871, Note_on_c, 1, 79, 0
3, 15961, Note_on_c, 1, 81, 98
3, 15961, Control_c, 1, 11, 78
3, 15961, Note_on_c, 1, 84, 98
3, 15977, Control_c, 1, 11, 76
3, 15994, Control_c, 1, 11, 74
3, 16006, Note_on_c, 1, 84, 0
3, 16006, Note_on_c, 1, 81, 0
3, 16006, Note_on_c, 1, 77, 98
3, 16006, Note_on_c, 1, 81, 98
3, 16010, Control_c, 1, 11, 73
3, 16014, Note_on_c, 1, 81, 0
3, 16014, Note_on_c, 1, 77, 0
3, 16021, Note_on_c, 1, 79, 88
3, 16021, Control_c, 1, 11, 77
3, 16021, Note_on_c, 1, 76, 88
3, 16060, Note_on_c, 1, 76, 0
3, 16060, Note_on_c, 1, 79, 0
3, 16081, Note_on_c, 1, 76, 70
3, 16081, Note_on_c, 1, 79, 70
3, 16120, Note_on_c, 1, 79, 0
3, 16120, Note_on_c, 1, 76, 0
3, 16141, Note_on_c, 1, 79, 68
3, 16141, Note_on_c, 1, 76, 68
3, 16180, Note_on_c, 1, 76, 0
3, 16180, Note_on_c, 1, 79, 0
3, 16201, Note_on_c, 1, 76, 65
3, 16201, Note_on_c, 1, 79, 65
3, 16236, Control_c, 1, 11, 77
3, 16239, Control_c, 1, 11, 74
3, 16244, Control_c, 1, 11, 71
3, 16249, Control_c, 1, 11, 68
3, 16254, Control_c, 1, 11, 65
3, 16259, Control_c, 1, 11, 62
3, 16261, Note_on_c, 1, 79, 0
3, 16261, Note_on_c, 1, 76, 0
3, 17761, Note_on_c, 1, 67, 98
3, 17761, Control_c, 1, 11, 42
3, 17779, Control_c, 1, 11, 45
3, 17797, Control_c, 1, 11, 48
3, 17815, Control_c, 1, 11, 51
3, 17821, Note_on_c, 1, 67, 0
3, 17821, Note_on_c, 1, 76, 98
3, 17860, Note_on_c, 1, 76, 0
3, 17941, Note_on_c, 1, 76, 98
3, 17941, Note_on_c, 1, 73, 98
3, 18001, Note_on_c, 1, 73, 0
3, 18001, Note_on_c, 1, 76, 0
3, 18001, Note_on_c, 1, 74, 98
3, 18001, Note_on_c, 1, 77, 98
3, 18040, Note_on_c, 1, 77, 0
3, 18040, Note_on_c, 1, 74, 0
3, 18061, Note_on_c, 1, 81, 98
3, 18061, Control_c, 1, 11, 52
3, 18073, Control_c, 1, 11, 55
3, 18085, Control_c, 1, 11, 58
3, 18091, Note_on_c, 1, 81, 0
3, 18091, Note_on_c, 1, 80, 98
3, 18097, Control_c, 1, 11, 61
3, 18113, Control_c, 1, 11, 63
3, 18121, Note_on_c, 1, 80, 0
3, 18121, Note_on_c, 1, 81, 98
3, 18129, Control_c, 1, 11, 63
3, 18145, Control_c, 1, 11, 61
3, 18151, Note_on_c, 1, 81, 0
3, 18151, Note_on_c, 1, 77, 98
3, 18157, Control_c, 1, 11, 58
3, 18169, Control_c, 1, 11, 55
3, 18176, Note_on_c, 1, 77, 0
3, 18181, Note_on_c, 1, 71, 98
3, 18181, Control_c, 1, 11, 52
3, 18181, Note_on_c, 1, 74, 98
3, 18241, Note_on_c, 1, 74, 0
3, 18241, Note_on_c, 1, 71, 0
3, 18301, Note_on_c, 1, 71, 98
3, 18301, Note_on_c, 1, 74, 98
3, 18361, Note_on_c, 1, 74, 0
3, 18361, Note_on_c, 1, 71, 0
3, 18361, Note_on_c, 1, 72, 98
3, 18361, Note_on_c, 1, 76, 98
3, 18400, Note_on_c, 1, 76, 0
3, 18400, Note_on_c, 1, 72, 0
3, 19801, Note_on_c, 1, 72, 65
3, 19801, Note_on_c, 1, 60, 65
3, 19801, Control_c, 1, 11, 68
3, 19831, Note_on_c, 1, 60, 0
3, 19831, Note_on_c, 1, 72, 0
3, 19846, Note_on_c, 1, 67, 88
3, 19846, Note_on_c, 1, 79, 65
3, 19854, Note_on_c, 1, 79, 0
3, 19854, Note_on_c, 1, 67, 0
3, 19861, Control_c, 1, 11, 77
3, 19861, Note_on_c, 1, 67, 88
3, 19861, Note_on_c, 1, 79, 65
3, 20021, Note_on_c, 1, 79, 0
3, 20021, Note_on_c, 1, 67, 0
3, 20026, Note_on_c, 1, 76, 65
3, 20026, Note_on_c, 1, 64, 88
3, 20034, Note_on_c, 1, 64, 0
3, 20034, Note_on_c, 1, 76, 0
3, 20041, Note_on_c, 1, 76, 65
3, 20041, Note_on_c, 1, 64, 88
3, 20201, Note_on_c, 1, 64, 0
3, 20201, Note_on_c, 1, 76, 0
3, 20206, Note_on_c, 1, 76, 88
3, 20206, Note_on_c, 1, 64, 88
3, 20214, Note_on_c, 1, 64, 0
3, 20214, Note_on_c, 1, 76, 0
3, 20221, Note_on_c, 1, 76, 88
3, 20221, Note_on_c, 1, 64, 88
3, 20396, Note_on_c, 1, 64, 0
3, 20396, Note_on_c, 1, 76, 0
3, 20401, Control_c, 1, 11, 89
3, 20401, Note_on_c, 1, 64, 88
3, 20401, Note_on_c, 1, 76, 88
3, 20415, Control_c, 1, 11, 86
3, 20430, Control_c, 1, 11, 83
3, 20445, Control_c, 1, 11, 80
3, 20460, Control_c, 1, 11, 77
3, 20521, Note_on_c, 1, 76, 0
3, 20521, Note_on_c, 1, 64, 0
3, 20521, Note_on_c, 1, 77, 88
3, 20521, Note_on_c, 1, 65, 88
3, 20551, Note_on_c, 1, 65, 0
3, 20551, Note_on_c, 1, 77, 0
3, 20581, Note_on_c, 1, 78, 88
3, 20581, Control_c, 1, 11, 89
3, 20581, Note_on_c, 1, 66, 88
3, 20595, Control_c, 1, 11, 86
3, 20610, Control_c, 1, 11, 83
3, 20625, Control_c, 1, 11, 80
3, 20640, Control_c, 1, 11, 77
3, 20701, Note_on_c, 1, 66, 0
3, 20701, Note_on_c, 1, 78, 0
3, 20701, Note_on_c, 1, 67, 88
3, 20701, Note_on_c, 1, 79, 88
3, 20731, Note_on_c, 1, 79, 0
3, 20731, Note_on_c, 1, 67, 0
3, 20761, Note_on_c, 1, 68, 88
3, 20761, Note_on_c, 1, 80, 88
3, 20761, Control_c, 1, 11, 89
3, 20775, Control_c, 1, 11, 86
3, 20790, Control_c, 1, 11, 83
3, 20805, Control_c, 1, 11, 80
3, 20820, Control_c, 1, 11, 77
3, 20881, Note_on_c, 1, 80, 0
3, 20881, Note_on_c, 1, 68, 0
3, 20881, Note_on_c, 1, 81, 98
3, 20881, Note_on_c, 1, 69, 98
3, 20881, Control_c, 1, 11, 77
3, 20893, Control_c, 1, 11, 74
3, 20908, Control_c, 1, 11, 71
3, 20923, Control_c, 1, 11, 68
3, 20936, Note_on_c, 1, 69, 0
3, 20936, Note_on_c, 1, 81, 0
3, 20938, Control_c, 1, 11, 65
3, 20941, Note_on_c, 1, 72, 98
3, 20941, Note_on_c, 1, 67, 98
3, 21001, Note_on_c, 1, 67, 0
3, 21001, Note_on_c, 1, 72, 0
3, 21001, Control_c, 1, 11, 68
3, 21001, Control_c, 1, 11, 65
3, 21001, Note_on_c, 1, 71, 78
3, 21001, Note_on_c, 1, 67, 78
3, 21025, Control_c, 1, 11, 62
3, 21041, Control_c, 1, 11, 62
3, 21049, Control_c, 1, 11, 59
3, 21056, Note_on_c, 1, 67, 0
3, 21056, Note_on_c, 1, 71, 0
3, 21061, Note_on_c, 1, 72, 62
3, 21061, Note_on_c, 1, 67, 62
3, 21091, Control_c, 1, 11, 57
3, 21095, Control_c, 1, 11, 54
3, 21099, Control_c, 1, 11, 51
3, 21104, Control_c, 1, 11, 48
3, 21108, Control_c, 1, 11, 45
3, 21112, Control_c, 1, 11, 42
3, 21117, Control_c, 1, 11, 39
3, 21121, Note_on_c, 1, 67, 0
3, 21121, Note_on_c, 1, 72, 0
3, 21301, Note_on_c, 1, 74, 98
3, 21301, Control_c, 1, 11, 37
3, 21301, Note_on_c, 1, 77, 98
3, 21361, Note_on_c, 1, 77, 0
3, 21361, Note_on_c, 1, 74, 0
3, 21421, Note_on_c, 1, 72, 98
3, 21421, Note_on_c, 1, 76, 98
3, 21481, Note_on_c, 1, 76, 0
3, 21481, Note_on_c, 1, 72, 0
3, 21541, Note_on_c, 1, 76, 98
3, 21541, Note_on_c, 1, 72, 98
3, 21601, Note_on_c, 1, 72, 0
3, 21601, Note_on_c, 1, 76, 0
3, 21661, Note_on_c, 1, 83, 98
3, 21661, Note_on_c, 1, 77, 98
3, 21721, Note_on_c, 1, 77, 0
3, 21721, Note_on_c, 1, 83, 0
3, 21781, Note_on_c, 1, 84, 98
3, 21781, Note_on_c, 1, 76, 98
3, 21841, Note_on_c, 1, 76, 0
3, 21841, Note_on_c, 1, 84, 0
3, 21901, Note_on_c, 1, 72, 98
3, 21901, Note_on_c, 1, 76, 98
3, 21961, Note_on_c, 1, 76, 0
3, 21961, Note_on_c, 1, 72, 0
3, 22021, Note_on_c, 1, 71, 98
3, 22021, Note_on_c, 1, 77, 98
3, 22081, Note_on_c, 1, 77, 0
3, 22081, Note_on_c, 1, 71, 0
3, 22141, Note_on_c, 1, 76, 98
3, 22141, Note_on_c, 1, 72, 98
3, 22201, Note_on_c, 1, 72, 0
3, 22201, Note_on_c, 1, 76, 0
3, 22261, Note_on_c, 1, 76, 98
3, 22261, Note_on_c, 1, 72, 98
3, 22321, Note_on_c, 1, 72, 0
3, 22321, Note_on_c, 1, 76, 0
3, 22381, Note_on_c, 1, 77, 98
3, 22381, Note_on_c, 1, 83, 98
3, 22441, Note_on_c, 1, 83, 0
3, 22441, Note_on_c, 1, 77, 0
3, 22441, Note_on_c, 1, 77, 98
3, 22441, Note_on_c, 1, 83, 98
3, 22501, Note_on_c, 1, 83, 0
3, 22501, Note_on_c, 1, 77, 0
3, 22501, Note_on_c, 1, 84, 83
3, 22501, Note_on_c, 1, 76, 83
3, 22536, Control_c, 1, 11, 37
3, 22543, Control_c, 1, 11, 34
3, 22550, Control_c, 1, 11, 31
3, 22557, Control_c, 1, 11, 28
3, 22561, Note_on_c, 1, 76, 0
3, 22561, Note_on_c, 1, 84, 0
3, 22801, Control_c, 1, 11, 37
3, 22801, Note_on_c, 1, 67, 83
3, 22819, Control_c, 1, 11, 40
3, 22837, Control_c, 1, 11, 43
3, 22855, Control_c, 1, 11, 46
3, 22861, Note_on_c, 1, 67, 0
3, 22861, Note_on_c, 1, 72, 98
3, 22891, Note_on_c, 1, 72, 0
3, 22921, Note_on_c, 1, 67, 83
3, 22921, Note_on_c, 1, 64, 83
3, 22951, Note_on_c, 1, 64, 0
3, 22951, Note_on_c, 1, 67, 0
3, 22981, Note_on_c, 1, 67, 70
3, 22981, Note_on_c, 1, 64, 70
3, 23011, Note_on_c, 1, 64, 0
3, 23011, Note_on_c, 1, 67, 0
3, 23041, Note_on_c, 1, 64, 66
3, 23041, Note_on_c, 1, 67, 66
3, 23076, Control_c, 1, 11, 47
3, 23083, Control_c, 1, 11, 44
3, 23090, Control_c, 1, 11, 41
3, 23097, Control_c, 1, 11, 38
3, 23101, Note_on_c, 1, 67, 0
3, 23101, Note_on_c, 1, 64, 0
3, 23221, Note_on_c, 1, 72, 98
3, 23221, Control_c, 1, 11, 27
3, 23230, Control_c, 1, 11, 30
3, 23241, Control_c, 1, 11, 33
3, 23252, Control_c, 1, 11, 36
3, 23263, Control_c, 1, 11, 39
3, 23273, Control_c, 1, 11, 42
3, 23300, Control_c, 1, 11, 45
3, 23319, Control_c, 1, 11, 46
3, 23338, Control_c, 1, 11, 47
3, 23359, Control_c, 1, 11, 48
3, 23378, Control_c, 1, 11, 49
3, 23397, Control_c, 1, 11, 50
3, 23416, Control_c, 1, 11, 51
3, 23437, Control_c, 1, 11, 52
3, 23578, Note_on_c, 1, 72, 0
3, 23581, Control_c, 1, 11, 32
3, 23581, Note_on_c, 1, 75, 98
3, 23581, Note_on_c, 1, 72, 98
3, 23595, Control_c, 1, 11, 35
3, 23609, Control_c, 1, 11, 38
3, 23624, Control_c, 1, 11, 41
3, 23638, Control_c, 1, 11, 44
3, 23653, Control_c, 1, 11, 47
3, 23941, Note_on_c, 1, 75, 0
3, 23941, Control_c, 1, 11, 47
3, 23941, Note_on_c, 1, 78, 98
3, 23959, Control_c, 1, 11, 50
3, 23977, Control_c, 1, 11, 53
3, 23995, Control_c, 1, 11, 56
3, 24013, Control_c, 1, 11, 59
3, 24031, Control_c, 1, 11, 62
3, 24049, Control_c, 1, 11, 63
3, 24067, Control_c, 1, 11, 65
3, 24085, Control_c, 1, 11, 67
3, 24103, Control_c, 1, 11, 69
3, 24121, Control_c, 1, 11, 71
3, 24139, Control_c, 1, 11, 73
3, 24157, Control_c, 1, 11, 74
3, 24175, Control_c, 1, 11, 76
3, 24193, Control_c, 1, 11, 78
3, 24211, Control_c, 1, 11, 80
3, 24229, Control_c, 1, 11, 82
3, 24236, Note_on_c, 1, 78, 0
3, 24241, Note_on_c, 1, 72, 0
3, 24241, Note_on_c, 1, 72, 83
3, 24241, Note_on_c, 1, 78, 83
3, 24301, Note_on_c, 1, 78, 0
3, 24301, Note_on_c, 1, 72, 0
3, 24301, Note_on_c, 1, 73, 98
3, 24301, Note_on_c, 1, 77, 98
3, 24331, Note_on_c, 1, 77, 0
3, 24331, Note_on_c, 1, 73, 0
3, 24601, Control_c, 1, 11, 52
3, 24601, Note_on_c, 1, 68, 98
3, 24661, Note_on_c, 1, 68, 0
3, 24661, Note_on_c, 1, 78, 98
3, 24661, Control_c, 1, 11, 67
3, 24664, Control_c, 1, 11, 70
3, 24667, Control_c, 1, 11, 73
3, 24670, Control_c, 1, 11, 76
3, 24673, Control_c, 1, 11, 70
3, 24679, Control_c, 1, 11, 67
3, 24684, Control_c, 1, 11, 64
3, 24690, Control_c, 1, 11, 61
3, 24693, Control_c, 1, 11, 58
3, 24697, Control_c, 1, 11, 55
3, 24700, Control_c, 1, 11, 52
3, 24703, Control_c, 1, 11, 49
3, 24841, Note_on_c, 1, 78, 0
3, 24961, Note_on_c, 1, 68, 98
3, 25021, Note_on_c, 1, 68, 0
3, 25021, Control_c, 1, 11, 77
3, 25021, Note_on_c, 1, 77, 98
3, 25025, Control_c, 1, 11, 74
3, 25031, Control_c, 1, 11, 71
3, 25036, Control_c, 1, 11, 68
3, 25042, Control_c, 1, 11, 65
3, 25048, Control_c, 1, 11, 62
3, 25052, Control_c, 1, 11, 59
3, 25055, Control_c, 1, 11, 56
3, 25059, Control_c, 1, 11, 53
3, 25062, Control_c, 1, 11, 50
3, 25066, Control_c, 1, 11, 47
3, 25201, Note_on_c, 1, 77, 0
3, 25321, Note_on_c, 1, 65, 98
3, 25381, Note_on_c, 1, 65, 0
3, 25381, Note_on_c, 1, 75, 98
3, 25381, Control_c, 1, 11, 77
3, 25385, Control_c, 1, 11, 74
3, 25391, Control_c, 1, 11, 71
3, 25396, Control_c, 1, 11, 68
3, 25402, Control_c, 1, 11, 65
3, 25408, Control_c, 1, 11, 62
3, 25412, Control_c, 1, 11, 59
3, 25415, Control_c, 1, 11, 56
3, 25419, Control_c, 1, 11, 53
3, 25422, Control_c, 1, 11, 50
3, 25426, Control_c, 1, 11, 47
3, 25561, Note_on_c, 1, 75, 0
3, 25681, Note_on_c, 1, 65, 98
3, 25741, Note_on_c, 1, 65, 0
3, 25741, Note_on_c, 1, 73, 98
3, 25771, Note_on_c, 1, 73, 0
3, 25801, Control_c, 1, 11, 77
3, 25801, Note_on_c, 1, 77, 98
3, 25805, Control_c, 1, 11, 74
3, 25811, Control_c, 1, 11, 71
3, 25816, Control_c, 1, 11, 68
3, 25822, Control_c, 1, 11, 65
3, 25828, Control_c, 1, 11, 62
3, 25832, Control_c, 1, 11, 59
3, 25835, Control_c, 1, 11, 56
3, 25839, Control_c, 1, 11, 53
3, 25842, Control_c, 1, 11, 50
3, 25846, Control_c, 1, 11, 47
3, 25861, Note_on_c, 1, 73, 98
3, 25921, Note_on_c, 1, 73, 0
3, 25921, Note_on_c, 1, 71, 98
3, 25981, Note_on_c, 1, 71, 0
3, 25981, Note_on_c, 1, 77, 0
3, 25981, Note_on_c, 1, 77, 98
3, 25981, Control_c, 1, 11, 77
3, 25985, Control_c, 1, 11, 74
3, 25991, Control_c, 1, 11, 71
3, 25996, Control_c, 1, 11, 68
3, 26002, Control_c, 1, 11, 65
3, 26008, Control_c, 1, 11, 62
3, 26012, Control_c, 1, 11, 59
3, 26015, Control_c, 1, 11, 56
3, 26019, Control_c, 1, 11, 53
3, 26022, Control_c, 1, 11, 50
3, 26026, Control_c, 1, 11, 47
3, 26041, Note_on_c, 1, 83, 123
3, 26101, Note_on_c, 1, 83, 0
3, 26101, Note_on_c, 1, 77, 0
3, 26101, Note_on_c, 1, 84, 98
3, 26101, Note_on_c, 1, 76, 98
3, 26131, Note_on_c, 1, 76, 0
3, 26131, Note_on_c, 1, 84, 0
3, 26401, Control_c, 1, 11, 77
3, 26401, Note_on_c, 1, 80, 98
3, 26401, Note_on_c, 1, 74, 98
3, 26461, Note_on_c, 1, 74, 0
3, 26461, Note_on_c, 1, 80, 0
3, 26461, Note_on_c, 1, 76, 98
3, 26461, Note_on_c, 1, 79, 98
3, 26491, Note_on_c, 1, 79, 0
3, 26491, Note_on_c, 1, 76, 0
3, 26521, Note_on_c, 1, 76, 98
3, 26521, Note_on_c, 1, 79, 98
3, 26551, Note_on_c, 1, 79, 0
3, 26551, Note_on_c, 1, 76, 0
3, 26761, Control_c, 1, 11, 77
3, 26761, Note_on_c, 1, 74, 98
3, 26761, Note_on_c, 1, 80, 98
3, 26821, Note_on_c, 1, 80, 0
3, 26821, Note_on_c, 1, 74, 0
3, 26821, Note_on_c, 1, 76, 98
3, 26821, Note_on_c, 1, 79, 98
3, 26851, Note_on_c, 1, 79, 0
3, 26851, Note_on_c, 1, 76, 0
3, 27001, Control_c, 1, 11, 37
3, 27001, Note_on_c, 1, 80, 88
3, 27061, Note_on_c, 1, 80, 0
3, 27061, Note_on_c, 1, 81, 88
3, 27104, Note_on_c, 1, 81, 0
3, 27241, Note_on_c, 1, 76, 88
3, 27301, Note_on_c, 1, 76, 0
3, 27301, Note_on_c, 1, 77, 88
3, 27344, Note_on_c, 1, 77, 0
3, 27481, Note_on_c, 1, 73, 93
3, 27541, Note_on_c, 1, 73, 0
3, 27541, Note_on_c, 1, 74, 93
3, 27584, Note_on_c, 1, 74, 0
3, 27601, Note_on_c, 1, 74, 93
3, 27601, Note_on_c, 1, 77, 93
3, 27661, Note_on_c, 1, 77, 0
3, 27661, Note_on_c, 1, 74, 0
3, 27661, Note_on_c, 1, 76, 93
3, 27661, Note_on_c, 1, 72, 93
3, 27704, Note_on_c, 1, 72, 0
3, 27704, Note_on_c, 1, 76, 0
3, 27721, Note_on_c, 1, 69, 93
3, 27721, Note_on_c, 1, 75, 93
3, 27781, Note_on_c, 1, 75, 0
3, 27781, Note_on_c, 1, 69, 0
3, 27781, Note_on_c, 1, 74, 93
3, 27781, Note_on_c, 1, 70, 93
3, 27824, Note_on_c, 1, 70, 0
3, 27824, Note_on_c, 1, 74, 0
3, 27841, Note_on_c, 1, 80, 93
3, 27841, Note_on_c, 1, 77, 93
3, 27901, Note_on_c, 1, 77, 0
3, 27901, Note_on_c, 1, 80, 0
3, 27901, Note_on_c, 1, 81, 98
3, 27901, Note_on_c, 1, 77, 98
3, 27931, Note_on_c, 1, 77, 0
3, 27931, Note_on_c, 1, 81, 0
3, 27961, Note_on_c, 1, 78, 98
3, 27961, Control_c, 1, 11, 37
3, 27961, Note_on_c, 1, 66, 98
3, 27979, Control_c, 1, 11, 40
3, 27991, Note_on_c, 1, 66, 0
3, 27991, Note_on_c, 1, 78, 0
3, 27997, Control_c, 1, 11, 43
3, 28015, Control_c, 1, 11, 46
3, 28021, Note_on_c, 1, 79, 98
3, 28021, Note_on_c, 1, 67, 98
3, 28033, Control_c, 1, 11, 49
3, 28051, Note_on_c, 1, 67, 0
3, 28051, Note_on_c, 1, 79, 0
3, 28051, Control_c, 1, 11, 52
3, 28069, Control_c, 1, 11, 55
3, 28081, Note_on_c, 1, 76, 88
3, 28081, Note_on_c, 1, 64, 88
3, 28087, Control_c, 1, 11, 58
3, 28105, Control_c, 1, 11, 61
3, 28111, Note_on_c, 1, 64, 0
3, 28111, Note_on_c, 1, 76, 0
3, 28123, Control_c, 1, 11, 63
3, 28141, Note_on_c, 1, 65, 88
3, 28141, Note_on_c, 1, 77, 88
3, 28141, Control_c, 1, 11, 65
3, 28159, Control_c, 1, 11, 66
3, 28171, Note_on_c, 1, 77, 0
3, 28171, Note_on_c, 1, 65, 0
3, 28177, Control_c, 1, 11, 68
3, 28195, Control_c, 1, 11, 70
3, 28201, Note_on_c, 1, 78, 88
3, 28201, Note_on_c, 1, 66, 88
3, 28213, Control_c, 1, 11, 72
3, 28231, Note_on_c, 1, 66, 0
3, 28231, Note_on_c, 1, 78, 0
3, 28231, Control_c, 1, 11, 74
3, 28249, Control_c, 1, 11, 76
3, 28261, Note_on_c, 1, 79, 88
3, 28261, Note_on_c, 1, 67, 88
3, 28421, Control_c, 1, 11, 77
3, 28423, Control_c, 1, 11, 73
3, 28425, Control_c, 1, 11, 70
3, 28427, Control_c, 1, 11, 67
3, 28429, Control_c, 1, 11, 64
3, 28431, Control_c, 1, 11, 61
3, 28433, Control_c, 1, 11, 58
3, 28435, Control_c, 1, 11, 54
3, 28437, Control_c, 1, 11, 51
3, 28439, Control_c, 1, 11, 48
3, 28441, Note_on_c, 1, 67, 0
3, 28441, Note_on_c, 1, 79, 0
3, 28621, Note_on_c, 1, 82, 88
3, 28621, Control_c, 1, 11, 77
3, 28621, Note_on_c, 1, 79, 88
3, 28781, Control_c, 1, 11, 77
3, 28783, Control_c, 1, 11, 73
3, 28785, Control_c, 1, 11, 70
3, 28787, Control_c, 1, 11, 67
3, 28789, Control_c, 1, 11, 64
3, 28791, Control_c, 1, 11, 61
3, 28793, Control_c, 1, 11, 58
3, 28795, Control_c, 1, 11, 54
3, 28797, Control_c, 1, 11, 51
3, 28799, Control_c, 1, 11, 48
3, 28801, Note_on_c, 1, 79, 0
3, 28801, Note_on_c, 1, 82, 0
3, 29101, Control_c, 1, 11, 32
3, 29101, Note_on_c, 1, 79, 88
3, 29113, Control_c, 1, 11, 35
3, 29125, Control_c, 1, 11, 38
3, 29137, Control_c, 1, 11, 41
3, 29149, Control_c, 1, 11, 44
3, 29161, Note_on_c, 1, 79, 0
3, 29161, Note_on_c, 1, 82, 88
3, 29161, Control_c, 1, 11, 47
3, 29191, Note_on_c, 1, 82, 0
3, 29281, Note_on_c, 1, 79, 59
3, 29341, Note_on_c, 1, 79, 0
3, 29341, Note_on_c, 1, 82, 59
3, 29371, Note_on_c, 1, 82, 0
3, 31501, Control_c, 1, 11, 32
3, 31501, Note_on_c, 1, 79, 98
3, 31507, Control_c, 1, 11, 35
3, 31513, Control_c, 1, 11, 38
3, 31519, Control_c, 1, 11, 41
3, 31525, Control_c, 1, 11, 44
3, 31531, Control_c, 1, 11, 47
3, 31537, Control_c, 1, 11, 50
3, 31561, Control_c, 1, 11, 52
3, 31585, Control_c, 1, 11, 54
3, 31609, Control_c, 1, 11, 56
3, 31633, Control_c, 1, 11, 58
3, 31657, Control_c, 1, 11, 60
3, 31681, Control_c, 1, 11, 62
3, 31697, Control_c, 1, 11, 60
3, 31713, Control_c, 1, 11, 58
3, 31729, Control_c, 1, 11, 56
3, 31741, Note_on_c, 1, 79, 0
3, 31741, Note_on_c, 1, 76, 98
3, 31745, Control_c, 1, 11, 54
3, 31761, Control_c, 1, 11, 52
3, 31777, Control_c, 1, 11, 50
3, 31793, Control_c, 1, 11, 48
3, 31801, Note_on_c, 1, 76, 0
3, 31801, Note_on_c, 1, 72, 98
3, 31861, Note_on_c, 1, 72, 0
3, 31861, Note_on_c, 1, 77, 98
3, 31861, Note_on_c, 1, 69, 98
3, 31900, Note_on_c, 1, 69, 0
3, 31900, Note_on_c, 1, 77, 0
3, 31921, Note_on_c, 1, 69, 98
3, 31921, Note_on_c, 1, 77, 98
3, 31960, Note_on_c, 1, 77, 0
3, 31960, Note_on_c, 1, 69, 0
3, 31981, Note_on_c, 1, 69, 88
3, 31981, Note_on_c, 1, 77, 88
3, 32041, Note_on_c, 1, 77, 0
3, 32041, Note_on_c, 1, 69, 0
3, 32041, Note_on_c, 1, 81, 88
3, 32041, Note_on_c, 1, 77, 88
3, 32080, Note_on_c, 1, 77, 0
3, 32080, Note_on_c, 1, 81, 0
3, 32101, Note_on_c, 1, 77, 88
3, 32101, Note_on_c, 1, 81, 88
3, 32140, Note_on_c, 1, 81, 0
3, 32140, Note_on_c, 1, 77, 0
3, 32161, Note_on_c, 1, 81, 88
3, 32161, Note_on_c, 1, 77, 88
3, 32221, Note_on_c, 1, 77, 0
3, 32221, Note_on_c, 1, 81, 0
3, 32221, Note_on_c, 1, 82, 88
3, 32221, Note_on_c, 1, 76, 88
3, 32251, Note_on_c, 1, 82, 0
3, 32260, Note_on_c, 1, 76, 0
3, 32281, Note_on_c, 1, 70, 88
3, 32281, Note_on_c, 1, 82, 88
3, 32304, Note_on_c, 1, 82, 0
3, 32326, Note_on_c, 1, 81, 88
3, 32329, Note_on_c, 1, 70, 0
3, 32334, Note_on_c, 1, 81, 0
3, 32341, Note_on_c, 1, 70, 88
3, 32341, Note_on_c, 1, 79, 88
3, 32364, Note_on_c, 1, 79, 0
3, 32386, Note_on_c, 1, 77, 88
3, 32389, Note_on_c, 1, 70, 0
3, 32394, Note_on_c, 1, 77, 0
3, 32401, Note_on_c, 1, 70, 88
3, 32401, Note_on_c, 1, 76, 88
3, 32440, Note_on_c, 1, 76, 0
3, 32461, Note_on_c, 1, 70, 0
3, 32461, Note_on_c, 1, 76, 88
3, 32461, Note_on_c, 1, 67, 88
3, 32500, Note_on_c, 1, 76, 0
3, 32518, Note_on_c, 1, 67, 0
3, 32521, Note_on_c, 1, 67, 88
3, 32521, Note_on_c, 1, 76, 88
3, 32581, Note_on_c, 1, 76, 0
3, 32581, Note_on_c, 1, 67, 0
3, 32581, Control_c, 1, 11, 47
3, 32581, Note_on_c, 1, 77, 88
3, 32581, Note_on_c, 1, 72, 88
3, 32601, Control_c, 1, 11, 48
3, 32621, Control_c, 1, 11, 49
3, 32641, Note_on_c, 1, 72, 0
3, 32641, Note_on_c, 1, 77, 0
3, 32641, Note_on_c, 1, 79, 88
3, 32641, Note_on_c, 1, 76, 88
3, 32641, Control_c, 1, 11, 50
3, 32661, Control_c, 1, 11, 51
3, 32681, Control_c, 1, 11, 52
3, 32701, Note_on_c, 1, 76, 0
3, 32701, Note_on_c, 1, 79, 0
3, 32701, Note_on_c, 1, 77, 88
3, 32701, Control_c, 1, 11, 53
3, 32701, Note_on_c, 1, 81, 88
3, 32721, Control_c, 1, 11, 54
3, 32741, Control_c, 1, 11, 55
3, 32758, Note_on_c, 1, 81, 0
3, 32758, Note_on_c, 1, 77, 0
3, 32761, Note_on_c, 1, 79, 88
3, 32761, Control_c, 1, 11, 56
3, 32761, Note_on_c, 1, 82, 88
3, 32781, Control_c, 1, 11, 57
3, 32801, Control_c, 1, 11, 58
3, 32821, Control_c, 1, 11, 59
3, 32841, Control_c, 1, 11, 60
3, 32851, Note_on_c, 1, 82, 0
3, 32851, Note_on_c, 1, 84, 88
3, 32861, Control_c, 1, 11, 61
3, 32881, Note_on_c, 1, 84, 0
3, 32881, Note_on_c, 1, 79, 0
3, 32881, Control_c, 1, 11, 62
3, 32881, Note_on_c, 1, 81, 88
3, 32881, Note_on_c, 1, 77, 88
3, 32911, Note_on_c, 1, 77, 0
3, 32911, Note_on_c, 1, 81, 0
3, 32941, Note_on_c, 1, 76, 88
3, 32941, Note_on_c, 1, 79, 88
3, 33001, Note_on_c, 1, 79, 0
3, 33001, Note_on_c, 1, 76, 0
3, 33061, Note_on_c, 1, 79, 88
3, 33061, Note_on_c, 1, 76, 88
3, 33121, Note_on_c, 1, 76, 0
3, 33121, Note_on_c, 1, 79, 0
3, 33121, Note_on_c, 1, 81, 88
3, 33121, Note_on_c, 1, 77, 88
3, 33181, Note_on_c, 1, 77, 0
3, 33181, Note_on_c, 1, 81, 0
3, 33241, Note_on_c, 1, 81, 88
3, 33241, Note_on_c, 1, 77, 88
3, 33241, Control_c, 1, 11, 74
3, 33253, Control_c, 1, 11, 71
3, 33268, Control_c, 1, 11, 68
3, 33283, Control_c, 1, 11, 65
3, 33298, Control_c, 1, 11, 62
3, 33301, Note_on_c, 1, 77, 0
3, 33301, Note_on_c, 1, 81, 0
3, 33301, Note_on_c, 1, 79, 88
3, 33301, Note_on_c, 1, 76, 88
3, 33361, Note_on_c, 1, 76, 0
3, 33361, Note_on_c, 1, 79, 0
3, 33421, Note_on_c, 1, 76, 88
3, 33421, Note_on_c, 1, 79, 88
3, 33481, Note_on_c, 1, 79, 0
3, 33481, Note_on_c, 1, 76, 0
3, 33481, Note_on_c, 1, 77, 88
3, 33481, Note_on_c, 1, 81, 88
3, 33541, Note_on_c, 1, 81, 0
3, 33541, Note_on_c, 1, 77, 0
3, 33601, Control_c, 1, 11, 77
3, 33601, Note_on_c, 1, 77, 88
3, 33601, Note_on_c, 1, 81, 88
3, 33613, Control_c, 1, 11, 74
3, 33628, Control_c, 1, 11, 71
3, 33643, Control_c, 1, 11, 68
3, 33658, Control_c, 1, 11, 65
3, 33661, Note_on_c, 1, 81, 0
3, 33661, Note_on_c, 1, 77, 0
3, 33661, Note_on_c, 1, 79, 88
3, 33661, Note_on_c, 1, 76, 88
3, 33721, Note_on_c, 1, 76, 0
3, 33721, Note_on_c, 1, 79, 0
3, 33781, Note_on_c, 1, 77, 88
3, 33781, Control_c, 1, 11, 80
3, 33781, Note_on_c, 1, 81, 88
3, 33796, Control_c, 1, 11, 77
3, 33808, Control_c, 1, 11, 74
3, 33823, Control_c, 1, 11, 71
3, 33838, Control_c, 1, 11, 68
3, 33841, Note_on_c, 1, 81, 0
3, 33841, Note_on_c, 1, 77, 0
3, 33841, Note_on_c, 1, 76, 88
3, 33841, Note_on_c, 1, 79, 88
3, 33901, Note_on_c, 1, 79, 0
3, 33901, Note_on_c, 1, 76, 0
3, 33901, Note_on_c, 1, 86, 88
3, 33901, Note_on_c, 1, 82, 88
3, 33901, Control_c, 1, 11, 80
3, 33917, Control_c, 1, 11, 78
3, 33931, Note_on_c, 1, 82, 0
3, 33931, Note_on_c, 1, 86, 0
3, 33931, Note_on_c, 1, 81, 88
3, 33931, Note_on_c, 1, 84, 88
3, 33933, Control_c, 1, 11, 75
3, 33949, Control_c, 1, 11, 73
3, 33961, Note_on_c, 1, 84, 0
3, 33961, Note_on_c, 1, 81, 0
3, 33961, Note_on_c, 1, 82, 88
3, 33961, Note_on_c, 1, 79, 88
3, 33991, Note_on_c, 1, 79, 0
3, 33991, Note_on_c, 1, 82, 0
3, 33991, Note_on_c, 1, 77, 88
3, 33991, Note_on_c, 1, 81, 88
3, 34018, Note_on_c, 1, 81, 0
3, 34018, Note_on_c, 1, 77, 0
3, 34021, Note_on_c, 1, 76, 88
3, 34021, Note_on_c, 1, 79, 88
3, 34021, Control_c, 1, 11, 77
3, 34051, Note_on_c, 1, 79, 0
3, 34051, Note_on_c, 1, 76, 0
3, 34081, Note_on_c, 1, 76, 79
3, 34081, Note_on_c, 1, 79, 79
3, 34111, Note_on_c, 1, 79, 0
3, 34111, Note_on_c, 1, 76, 0
3, 34141, Note_on_c, 1, 76, 76
3, 34141, Note_on_c, 1, 79, 76
3, 34171, Note_on_c, 1, 79, 0
3, 34171, Note_on_c, 1, 76, 0
3, 34201, Note_on_c, 1, 79, 65
3, 34201, Note_on_c, 1, 76, 65
3, 34231, Control_c, 1, 11, 77
3, 34236, Control_c, 1, 11, 74
3, 34244, Control_c, 1, 11, 71
3, 34251, Control_c, 1, 11, 68
3, 34258, Control_c, 1, 11, 65
3, 34261, Note_on_c, 1, 76, 0
3, 34261, Note_on_c, 1, 79, 0
3, 35941, Note_on_c, 1, 78, 98
3, 35941, Control_c, 1, 11, 37
3, 35959, Control_c, 1, 11, 40
3, 35977, Control_c, 1, 11, 43
3, 35995, Control_c, 1, 11, 46
3, 36001, Note_on_c, 1, 78, 0
3, 36001, Note_on_c, 1, 79, 98
3, 36031, Note_on_c, 1, 79, 0
3, 36061, Control_c, 1, 11, 47
3, 36061, Note_on_c, 1, 74, 98
3, 36074, Control_c, 1, 11, 50
3, 36088, Control_c, 1, 11, 53
3, 36091, Note_on_c, 1, 74, 0
3, 36091, Note_on_c, 1, 73, 98
3, 36102, Control_c, 1, 11, 56
3, 36116, Control_c, 1, 11, 59
3, 36121, Note_on_c, 1, 73, 0
3, 36121, Note_on_c, 1, 74, 98
3, 36134, Control_c, 1, 11, 57
3, 36148, Control_c, 1, 11, 54
3, 36151, Note_on_c, 1, 74, 0
3, 36151, Note_on_c, 1, 70, 98
3, 36162, Control_c, 1, 11, 51
3, 36176, Control_c, 1, 11, 48
3, 36178, Note_on_c, 1, 70, 0
3, 36181, Note_on_c, 1, 67, 98
3, 36181, Note_on_c, 1, 64, 98
3, 36241, Note_on_c, 1, 64, 0
3, 36241, Note_on_c, 1, 67, 0
3, 36301, Note_on_c, 1, 67, 98
3, 36301, Note_on_c, 1, 76, 98
3, 36361, Note_on_c, 1, 76, 0
3, 36361, Note_on_c, 1, 67, 0
3, 36361, Note_on_c, 1, 69, 98
3, 36361, Note_on_c, 1, 77, 98
3, 36391, Note_on_c, 1, 77, 0
3, 36391, Note_on_c, 1, 69, 0
3, 37801, Control_c, 1, 11, 77
3, 37801, Note_on_c, 1, 65, 58
3, 37801, Note_on_c, 1, 77, 58
3, 37846, Note_on_c, 1, 77, 0
3, 37846, Note_on_c, 1, 65, 0
3, 37846, Note_on_c, 1, 72, 62
3, 37846, Note_on_c, 1, 84, 62
3, 37857, Note_on_c, 1, 84, 0
3, 37857, Note_on_c, 1, 72, 0
3, 37861, Note_on_c, 1, 72, 74
3, 37861, Note_on_c, 1, 84, 74
3, 38026, Note_on_c, 1, 84, 0
3, 38026, Note_on_c, 1, 72, 0
3, 38026, Note_on_c, 1, 69, 74
3, 38026, Note_on_c, 1, 81, 74
3, 38037, Note_on_c, 1, 81, 0
3, 38037, Note_on_c, 1, 69, 0
3, 38041, Note_on_c, 1, 69, 74
3, 38041, Note_on_c, 1, 81, 74
3, 38206, Note_on_c, 1, 81, 0
3, 38206, Note_on_c, 1, 69, 0
3, 38206, Note_on_c, 1, 69, 74
3, 38206, Note_on_c, 1, 81, 74
3, 38217, Note_on_c, 1, 81, 0
3, 38217, Note_on_c, 1, 69, 0
3, 38221, Note_on_c, 1, 81, 74
3, 38221, Note_on_c, 1, 69, 74
3, 38371, Note_on_c, 1, 69, 0
3, 38371, Note_on_c, 1, 81, 0
3, 38401, Note_on_c, 1, 75, 88
3, 38401, Note_on_c, 1, 69, 88
3, 38401, Control_c, 1, 11, 86
3, 38416, Control_c, 1, 11, 84
3, 38432, Control_c, 1, 11, 81
3, 38448, Control_c, 1, 11, 79
3, 38521, Note_on_c, 1, 69, 0
3, 38521, Note_on_c, 1, 75, 0
3, 38521, Note_on_c, 1, 74, 88
3, 38521, Note_on_c, 1, 70, 88
3, 38551, Note_on_c, 1, 70, 0
3, 38551, Note_on_c, 1, 74, 0
3, 38581, Note_on_c, 1, 77, 88
3, 38581, Note_on_c, 1, 71, 88
3, 38581, Control_c, 1, 11, 86
3, 38596, Control_c, 1, 11, 84
3, 38612, Control_c, 1, 11, 81
3, 38628, Control_c, 1, 11, 79
3, 38701, Note_on_c, 1, 71, 0
3, 38701, Note_on_c, 1, 77, 0
3, 38701, Note_on_c, 1, 72, 88
3, 38701, Note_on_c, 1, 76, 88
3, 38731, Note_on_c, 1, 76, 0
3, 38731, Note_on_c, 1, 72, 0
3, 38761, Note_on_c, 1, 79, 88
3, 38761, Note_on_c, 1, 73, 88
3, 38761, Control_c, 1, 11, 86
3, 38776, Control_c, 1, 11, 84
3, 38792, Control_c, 1, 11, 81
3, 38808, Control_c, 1, 11, 79
3, 38881, Note_on_c, 1, 73, 0
3, 38881, Note_on_c, 1, 74, 88
3, 38881, Control_c, 1, 11, 77
3, 38896, Control_c, 1, 11, 74
3, 38911, Note_on_c, 1, 74, 0
3, 38911, Note_on_c, 1, 79, 0
3, 38912, Control_c, 1, 11, 72
3, 38928, Control_c, 1, 11, 70
3, 38941, Note_on_c, 1, 72, 88
3, 38941, Note_on_c, 1, 69, 88
3, 39001, Note_on_c, 1, 69, 0
3, 39001, Note_on_c, 1, 70, 88
3, 39001, Control_c, 1, 11, 65
3, 39012, Control_c, 1, 11, 62
3, 39024, Control_c, 1, 11, 59
3, 39033, Control_c, 1, 11, 56
3, 39042, Control_c, 1, 11, 53
3, 39051, Control_c, 1, 11, 50
3, 39058, Note_on_c, 1, 70, 0
3, 39058, Note_on_c, 1, 72, 0
3, 39060, Control_c, 1, 11, 47
3, 39061, Note_on_c, 1, 69, 88
3, 39061, Note_on_c, 1, 72, 88
3, 39091, Control_c, 1, 11, 47
3, 39096, Control_c, 1, 11, 44
3, 39102, Control_c, 1, 11, 41
3, 39108, Control_c, 1, 11, 38
3, 39114, Control_c, 1, 11, 35
3, 39120, Control_c, 1, 11, 32
3, 39121, Note_on_c, 1, 72, 0
3, 39121, Note_on_c, 1, 69, 0
3, 39301, Note_on_c, 1, 82, 83
3, 39301, Note_on_c, 1, 76, 83
3, 39361, Note_on_c, 1, 76, 0
3, 39361, Note_on_c, 1, 82, 0
3, 39421, Note_on_c, 1, 81, 83
3, 39421, Note_on_c, 1, 77, 83
3, 39481, Note_on_c, 1, 77, 0
3, 39481, Note_on_c, 1, 81, 0
3, 39541, Note_on_c, 1, 81, 83
3, 39541, Note_on_c, 1, 77, 83
3, 39601, Note_on_c, 1, 77, 0
3, 39601, Note_on_c, 1, 81, 0
3, 39661, Note_on_c, 1, 76, 83
3, 39661, Note_on_c, 1, 70, 83
3, 39721, Note_on_c, 1, 70, 0
3, 39721, Note_on_c, 1, 76, 0
3, 39781, Note_on_c, 1, 77, 83
3, 39781, Note_on_c, 1, 69, 83
3, 39841, Note_on_c, 1, 69, 0
3, 39841, Note_on_c, 1, 77, 0
3, 39901, Note_on_c, 1, 69, 83
3, 39901, Note_on_c, 1, 77, 83
3, 39961, Note_on_c, 1, 77, 0
3, 39961, Note_on_c, 1, 69, 0
3, 40021, Note_on_c, 1, 82, 83
3, 40021, Note_on_c, 1, 76, 83
3, 40081, Note_on_c, 1, 76, 0
3, 40081, Note_on_c, 1, 82, 0
3, 40141, Note_on_c, 1, 81, 83
3, 40141, Note_on_c, 1, 77, 83
3, 40201, Note_on_c, 1, 77, 0
3, 40201, Note_on_c, 1, 81, 0
3, 40261, Note_on_c, 1, 77, 83
3, 40261, Note_on_c, 1, 81, 83
3, 40321, Note_on_c, 1, 81, 0
3, 40321, Note_on_c, 1, 77, 0
3, 40381, Note_on_c, 1, 76, 83
3, 40381, Note_on_c, 1, 70, 83
3, 40436, Note_on_c, 1, 70, 0
3, 40436, Note_on_c, 1, 76, 0
3, 40441, Note_on_c, 1, 70, 83
3, 40441, Note_on_c, 1, 76, 83
3, 40496, Note_on_c, 1, 76, 0
3, 40496, Note_on_c, 1, 70, 0
3, 40501, Note_on_c, 1, 77, 70
3, 40501, Note_on_c, 1, 69, 70
3, 40536, Control_c, 1, 11, 37
3, 40543, Control_c, 1, 11, 34
3, 40550, Control_c, 1, 11, 31
3, 40557, Control_c, 1, 11, 28
3, 40561, Note_on_c, 1, 69, 0
3, 40561, Note_on_c, 1, 77, 0
3, 40981, Note_on_c, 1, 84, 98
3, 40981, Control_c, 1, 11, 27
3, 40986, Control_c, 1, 11, 30
3, 40992, Control_c, 1, 11, 33
3, 40997, Control_c, 1, 11, 36
3, 41004, Control_c, 1, 11, 39
3, 41009, Control_c, 1, 11, 42
3, 41016, Control_c, 1, 11, 45
3, 41021, Control_c, 1, 11, 48
3, 41024, Control_c, 1, 11, 51
3, 41028, Control_c, 1, 11, 54
3, 41031, Control_c, 1, 11, 57
3, 41035, Control_c, 1, 11, 60
3, 41039, Control_c, 1, 11, 63
3, 41054, Control_c, 1, 11, 63
3, 41082, Control_c, 1, 11, 62
3, 41110, Control_c, 1, 11, 60
3, 41137, Control_c, 1, 11, 58
3, 41158, Note_on_c, 1, 84, 0
3, 41161, Note_on_c, 1, 81, 98
3, 41165, Control_c, 1, 11, 56
3, 41193, Control_c, 1, 11, 54
3, 41206, Note_on_c, 1, 81, 0
3, 41206, Note_on_c, 1, 77, 98
3, 41218, Note_on_c, 1, 77, 0
3, 41221, Note_on_c, 1, 76, 98
3, 41221, Control_c, 1, 11, 52
3, 41221, Note_on_c, 1, 72, 98
3, 41281, Note_on_c, 1, 72, 0
3, 41281, Note_on_c, 1, 76, 0
3, 41281, Note_on_c, 1, 72, 98
3, 41281, Note_on_c, 1, 76, 98
3, 41326, Note_on_c, 1, 76, 0
3, 41326, Note_on_c, 1, 72, 0
3, 41326, Note_on_c, 1, 77, 98
3, 41326, Note_on_c, 1, 74, 98
3, 41341, Note_on_c, 1, 74, 0
3, 41341, Note_on_c, 1, 77, 0
3, 41341, Note_on_c, 1, 79, 98
3, 41341, Note_on_c, 1, 76, 98
3, 41386, Note_on_c, 1, 76, 0
3, 41386, Note_on_c, 1, 79, 0
3, 41386, Note_on_c, 1, 77, 98
3, 41386, Note_on_c, 1, 81, 98
3, 41398, Note_on_c, 1, 81, 0
3, 41398, Note_on_c, 1, 77, 0
3, 41401, Note_on_c, 1, 82, 98
3, 41401, Note_on_c, 1, 79, 98
3, 41516, Note_on_c, 1, 79, 0
3, 41516, Note_on_c, 1, 82, 0
3, 41521, Note_on_c, 1, 72, 98
3, 41521, Note_on_c, 1, 76, 98
3, 41581, Note_on_c, 1, 76, 0
3, 41581, Note_on_c, 1, 77, 98
3, 41641, Note_on_c, 1, 77, 0
3, 41641, Note_on_c, 1, 72, 0
3, 41641, Note_on_c, 1, 76, 98
3, 41641, Note_on_c, 1, 79, 98
3, 41701, Note_on_c, 1, 79, 0
3, 41701, Note_on_c, 1, 76, 0
3, 41701, Note_on_c, 1, 81, 98
3, 41701, Note_on_c, 1, 77, 98
3, 41758, Note_on_c, 1, 77, 0
3, 41758, Note_on_c, 1, 81, 0
3, 41761, Note_on_c, 1, 79, 98
3, 41761, Note_on_c, 1, 82, 98
3, 41851, Note_on_c, 1, 82, 0
3, 41851, Note_on_c, 1, 84, 98
3, 41881, Note_on_c, 1, 84, 0
3, 41881, Note_on_c, 1, 79, 0
3, 41881, Note_on_c, 1, 77, 98
3, 41881, Note_on_c, 1, 81, 98
3, 41911, Note_on_c, 1, 81, 0
3, 41911, Note_on_c, 1, 77, 0
3, 41941, Control_c, 1, 11, 47
3, 41941, Note_on_c, 1, 76, 98
3, 41941, Note_on_c, 1, 79, 98
3, 41965, Control_c, 1, 11, 48
3, 41986, Note_on_c, 1, 79, 0
3, 41986, Note_on_c, 1, 76, 0
3, 41989, Control_c, 1, 11, 49
3, 42001, Note_on_c, 1, 79, 98
3, 42001, Note_on_c, 1, 76, 98
3, 42013, Control_c, 1, 11, 50
3, 42037, Control_c, 1, 11, 51
3, 42046, Note_on_c, 1, 76, 0
3, 42046, Note_on_c, 1, 79, 0
3, 42061, Note_on_c, 1, 79, 98
3, 42061, Control_c, 1, 11, 52
3, 42061, Note_on_c, 1, 76, 98
3, 42085, Control_c, 1, 11, 53
3, 42106, Note_on_c, 1, 76, 0
3, 42106, Note_on_c, 1, 79, 0
3, 42109, Control_c, 1, 11, 54
3, 42121, Note_on_c, 1, 79, 98
3, 42121, Note_on_c, 1, 76, 98
3, 42133, Control_c, 1, 11, 55
3, 42157, Control_c, 1, 11, 56
3, 42181, Control_c, 1, 11, 57
3, 42205, Control_c, 1, 11, 58
3, 42229, Control_c, 1, 11, 59
3, 42241, Note_on_c, 1, 76, 0
3, 42241, Note_on_c, 1, 79, 0
3, 42253, Control_c, 1, 11, 60
3, 42277, Control_c, 1, 11, 61
3, 42301, Control_c, 1, 11, 50
3, 42301, Note_on_c, 1, 74, 88
3, 42301, Note_on_c, 1, 79, 88
3, 42361, Note_on_c, 1, 79, 0
3, 42361, Note_on_c, 1, 74, 0
3, 42361, Note_on_c, 1, 78, 98
3, 42361, Note_on_c, 1, 81, 98
3, 42421, Note_on_c, 1, 81, 0
3, 42421, Note_on_c, 1, 78, 0
3, 42421, Note_on_c, 1, 82, 98
3, 42421, Note_on_c, 1, 79, 98
3, 42476, Note_on_c, 1, 79, 0
3, 42476, Note_on_c, 1, 82, 0
3, 42481, Note_on_c, 1, 81, 98
3, 42481, Control_c, 1, 11, 47
3, 42481, Note_on_c, 1, 84, 98
3, 42505, Control_c, 1, 11, 48
3, 42529, Control_c, 1, 11, 49
3, 42553, Control_c, 1, 11, 50
3, 42571, Note_on_c, 1, 84, 0
3, 42571, Note_on_c, 1, 86, 98
3, 42577, Control_c, 1, 11, 51
3, 42601, Note_on_c, 1, 86, 0
3, 42601, Note_on_c, 1, 81, 0
3, 42601, Note_on_c, 1, 82, 98
3, 42601, Control_c, 1, 11, 52
3, 42601, Note_on_c, 1, 79, 98
3, 42625, Control_c, 1, 11, 53
3, 42631, Note_on_c, 1, 79, 0
3, 42631, Note_on_c, 1, 82, 0
3, 42649, Control_c, 1, 11, 54
3, 42661, Note_on_c, 1, 81, 98
3, 42661, Note_on_c, 1, 78, 98
3, 42673, Control_c, 1, 11, 55
3, 42697, Control_c, 1, 11, 56
3, 42706, Note_on_c, 1, 78, 0
3, 42706, Note_on_c, 1, 81, 0
3, 42721, Note_on_c, 1, 81, 98
3, 42721, Control_c, 1, 11, 57
3, 42721, Note_on_c, 1, 78, 98
3, 42745, Control_c, 1, 11, 58
3, 42766, Note_on_c, 1, 78, 0
3, 42766, Note_on_c, 1, 81, 0
3, 42769, Control_c, 1, 11, 59
3, 42781, Note_on_c, 1, 78, 98
3, 42781, Note_on_c, 1, 81, 98
3, 42793, Control_c, 1, 11, 60
3, 42817, Control_c, 1, 11, 61
3, 42826, Note_on_c, 1, 81, 0
3, 42826, Note_on_c, 1, 78, 0
3, 42841, Note_on_c, 1, 81, 98
3, 42841, Note_on_c, 1, 78, 98
3, 42841, Control_c, 1, 11, 50
3, 42901, Note_on_c, 1, 78, 0
3, 42901, Note_on_c, 1, 81, 0
3, 43021, Note_on_c, 1, 70, 59
3, 43021, Note_on_c, 1, 65, 59
3, 43021, Control_c, 1, 11, 77
3, 43081, Note_on_c, 1, 65, 0
3, 43081, Note_on_c, 1, 70, 0
3, 43081, Note_on_c, 1, 72, 69
3, 43081, Note_on_c, 1, 69, 69
3, 43141, Note_on_c, 1, 69, 0
3, 43141, Note_on_c, 1, 72, 0
3, 43141, Note_on_c, 1, 74, 81
3, 43141, Note_on_c, 1, 70, 81
3, 43196, Note_on_c, 1, 70, 0
3, 43196, Note_on_c, 1, 74, 0
3, 43201, Note_on_c, 1, 72, 88
3, 43201, Control_c, 1, 11, 89
3, 43201, Note_on_c, 1, 75, 88
3, 43216, Control_c, 1, 11, 86
3, 43231, Control_c, 1, 11, 83
3, 43246, Control_c, 1, 11, 80
3, 43261, Control_c, 1, 11, 77
3, 43291, Note_on_c, 1, 75, 0
3, 43291, Note_on_c, 1, 77, 88
3, 43321, Note_on_c, 1, 77, 0
3, 43321, Note_on_c, 1, 72, 0
3, 43321, Note_on_c, 1, 74, 88
3, 43351, Note_on_c, 1, 74, 0
3, 43381, Control_c, 1, 11, 89
3, 43381, Note_on_c, 1, 72, 88
3, 43381, Note_on_c, 1, 69, 88
3, 43396, Control_c, 1, 11, 86
3, 43411, Control_c, 1, 11, 83
3, 43426, Control_c, 1, 11, 80
3, 43441, Control_c, 1, 11, 77
3, 43471, Note_on_c, 1, 72, 0
3, 43471, Note_on_c, 1, 74, 88
3, 43501, Note_on_c, 1, 74, 0
3, 43501, Note_on_c, 1, 69, 0
3, 43501, Note_on_c, 1, 71, 88
3, 43501, Note_on_c, 1, 67, 88
3, 43531, Note_on_c, 1, 67, 0
3, 43531, Note_on_c, 1, 71, 0
3, 43561, Control_c, 1, 11, 89
3, 43561, Note_on_c, 1, 67, 88
3, 43561, Note_on_c, 1, 70, 88
3, 43576, Control_c, 1, 11, 86
3, 43591, Control_c, 1, 11, 83
3, 43606, Control_c, 1, 11, 80
3, 43621, Control_c, 1, 11, 77
3, 43651, Note_on_c, 1, 70, 0
3, 43651, Note_on_c, 1, 72, 88
3, 43681, Note_on_c, 1, 72, 0
3, 43681, Note_on_c, 1, 67, 0
3, 43681, Note_on_c, 1, 65, 88
3, 43681, Note_on_c, 1, 69, 88
3, 43711, Note_on_c, 1, 69, 0
3, 43711, Note_on_c, 1, 65, 0
3, 43741, Note_on_c, 1, 74, 98
3, 43741, Note_on_c, 1, 79, 98
3, 43801, Note_on_c, 1, 79, 0
3, 43801, Note_on_c, 1, 74, 0
3, 43801, Note_on_c, 1, 72, 98
3, 43801, Note_on_c, 1, 81, 98
3, 43861, Note_on_c, 1, 81, 0
3, 43861, Note_on_c, 1, 72, 0
3, 43861, Note_on_c, 1, 82, 98
3, 43861, Note_on_c, 1, 70, 98
3, 43916, Note_on_c, 1, 70, 0
3, 43916, Note_on_c, 1, 82, 0
3, 43921, Note_on_c, 1, 77, 98
3, 43921, Note_on_c, 1, 69, 98
3, 44161, Note_on_c, 1, 69, 0
3, 44161, Note_on_c, 1, 77, 0
3, 44161, Note_on_c, 1, 70, 90
3, 44161, Note_on_c, 1, 79, 90
3, 44221, Note_on_c, 1, 79, 0
3, 44221, Note_on_c, 1, 70, 0
3, 44221, Note_on_c, 1, 76, 90
3, 44221, Note_on_c, 1, 67, 90
3, 44261, Control_c, 1, 11, 77
3, 44263, Control_c, 1, 11, 74
3, 44265, Control_c, 1, 11, 71
3, 44267, Control_c, 1, 11, 68
3, 44269, Control_c, 1, 11, 65
3, 44271, Control_c, 1, 11, 62
3, 44273, Control_c, 1, 11, 59
3, 44275, Control_c, 1, 11, 56
3, 44276, Note_on_c, 1, 67, 0
3, 44276, Note_on_c, 1, 76, 0
3, 44277, Control_c, 1, 11, 53
3, 44279, Control_c, 1, 11, 50
3, 44281, Note_on_c, 1, 77, 93
3, 44281, Note_on_c, 1, 69, 93
3, 44281, Control_c, 1, 11, 47
3, 44341, Note_on_c, 1, 69, 0
3, 44341, Note_on_c, 1, 77, 0
3, 44401, Note_on_c, 1, 77, 88
3, 44401, Note_on_c, 1, 69, 88
3, 44461, Note_on_c, 1, 69, 0
3, 44461, Note_on_c, 1, 77, 0
3, 44461, Note_on_c, 1, 77, 88
3, 44461, Note_on_c, 1, 81, 88
3, 44521, Note_on_c, 1, 81, 0
3, 44521, Note_on_c, 1, 77, 0
3, 44581, Note_on_c, 1, 81, 88
3, 44581, Note_on_c, 1, 77, 88
3, 44641, Note_on_c, 1, 77, 0
3, 44641, Note_on_c, 1, 81, 0
3, 44641, Note_on_c, 1, 76, 88
3, 44641, Note_on_c, 1, 82, 88
3, 44701, Note_on_c, 1, 82, 0
3, 44701, Note_on_c, 1, 76, 0
3, 44761, Note_on_c, 1, 76, 88
3, 44761, Note_on_c, 1, 82, 88
3, 44821, Note_on_c, 1, 82, 0
3, 44821, Note_on_c, 1, 76, 0
3, 44821, Note_on_c, 1, 76, 88
3, 44821, Note_on_c, 1, 70, 88
3, 44881, Note_on_c, 1, 70, 0
3, 44881, Note_on_c, 1, 76, 0
3, 44941, Note_on_c, 1, 76, 88
3, 44941, Note_on_c, 1, 70, 88
3, 45001, Note_on_c, 1, 70, 0
3, 45001, Note_on_c, 1, 76, 0
3, 45001, Note_on_c, 1, 69, 88
3, 45001, Note_on_c, 1, 77, 88
3, 45061, Note_on_c, 1, 77, 0
3, 45061, Note_on_c, 1, 69, 0
3, 45121, Note_on_c, 1, 77, 88
3, 45121, Note_on_c, 1, 69, 88
3, 45181, Note_on_c, 1, 69, 0
3, 45181, Note_on_c, 1, 77, 0
3, 45181, Note_on_c, 1, 77, 88
3, 45181, Note_on_c, 1, 81, 88
3, 45241, Note_on_c, 1, 81, 0
3, 45241, Note_on_c, 1, 77, 0
3, 45301, Note_on_c, 1, 77, 88
3, 45301, Note_on_c, 1, 81, 88
3, 45361, Note_on_c, 1, 81, 0
3, 45361, Note_on_c, 1, 77, 0
3, 45361, Note_on_c, 1, 82, 88
3, 45361, Note_on_c, 1, 76, 88
3, 45421, Note_on_c, 1, 76, 0
3, 45421, Note_on_c, 1, 82, 0
3, 45481, Note_on_c, 1, 76, 88
3, 45481, Note_on_c, 1, 82, 88
3, 45541, Note_on_c, 1, 82, 0
3, 45541, Note_on_c, 1, 76, 0
3, 45541, Note_on_c, 1, 76, 88
3, 45541, Note_on_c, 1, 70, 88
3, 45601, Note_on_c, 1, 70, 0
3, 45601, Note_on_c, 1, 76, 0
3, 45661, Note_on_c, 1, 70, 88
3, 45661, Note_on_c, 1, 76, 88
3, 45721, Note_on_c, 1, 76, 0
3, 45721, Note_on_c, 1, 70, 0
3, 45721, Note_on_c, 1, 77, 88
3, 45721, Note_on_c, 1, 69, 88
3, 45741, Control_c, 1, 11, 47
3, 45746, Control_c, 1, 11, 44
3, 45752, Control_c, 1, 11, 41
3, 45758, Control_c, 1, 11, 38
3, 45764, Control_c, 1, 11, 35
3, 45770, Control_c, 1, 11, 32
3, 45776, Control_c, 1, 11, 29
3, 45781, Note_on_c, 1, 69, 0
3, 45781, Note_on_c, 1, 77, 0
3, 46201, Control_c, 1, 11, 32
3, 46201, Note_on_c, 1, 79, 97
3, 46201, Note_on_c, 1, 76, 97
3, 46219, Control_c, 1, 11, 35
3, 46237, Control_c, 1, 11, 38
3, 46255, Control_c, 1, 11, 41
3, 46261, Note_on_c, 1, 76, 0
3, 46261, Note_on_c, 1, 79, 0
3, 46261, Note_on_c, 1, 77, 97
3, 46261, Note_on_c, 1, 81, 97
3, 46291, Note_on_c, 1, 81, 0
3, 46291, Note_on_c, 1, 77, 0
3, 46381, Note_on_c, 1, 76, 97
3, 46381, Control_c, 1, 11, 62
3, 46381, Note_on_c, 1, 82, 97
3, 46385, Control_c, 1, 11, 65
3, 46389, Control_c, 1, 11, 68
3, 46393, Control_c, 1, 11, 71
3, 46397, Control_c, 1, 11, 74
3, 46401, Control_c, 1, 11, 77
3, 46441, Note_on_c, 1, 82, 0
3, 46441, Note_on_c, 1, 76, 0
3, 46441, Note_on_c, 1, 77, 88
3, 46441, Note_on_c, 1, 81, 88
3, 46471, Note_on_c, 1, 81, 0
3, 46471, Note_on_c, 1, 77, 0
3, 46501, Note_on_c, 1, 77, 88
3, 46501, Control_c, 1, 11, 42
3, 46501, Note_on_c, 1, 69, 88
3, 46531, Note_on_c, 1, 69, 0
3, 46531, Note_on_c, 1, 77, 0
3, 46561, Note_on_c, 1, 77, 79
3, 46561, Note_on_c, 1, 69, 79
3, 46591, Note_on_c, 1, 69, 0
3, 46591, Note_on_c, 1, 77, 0
3, 46621, Note_on_c, 1, 69, 62
3, 46621, Note_on_c, 1, 77, 62
3, 46701, Control_c, 1, 11, 42
3, 46707, Control_c, 1, 11, 39
3, 46713, Control_c, 1, 11, 36
3, 46719, Control_c, 1, 11, 33
3, 46725, Control_c, 1, 11, 30
3, 46731, Control_c, 1, 11, 27
3, 46737, Control_c, 1, 11, 24
3, 46741, Note_on_c, 1, 77, 0
3, 46741, Note_on_c, 1, 69, 0
3, 46981, Control_c, 1, 121, 0
3, 46981, End_track
4, 0, Start_track
4, 0, MIDI_port, 0
4, 0, Title_t, "2 Clarinetti in C"
4, 0, Program_c, 2, 71
4, 0, Control_c, 2, 10, 65
4, 2, Control_c, 2, 121, 0
4, 7, Program_c, 2, 71
4, 12, Pitch_bend_c, 2, 8192
4, 17, Control_c, 2, 11, 47
4, 22, Control_c, 2, 7, 127
4, 27, Control_c, 2, 91, 54
4, 32, Control_c, 2, 93, 0
4, 37, Control_c, 2, 10, 65
4, 2402, Control_c, 2, 11, 42
4, 2402, Note_on_c, 2, 65, 98
4, 2402, Note_on_c, 2, 57, 98
4, 2462, Note_on_c, 2, 57, 0
4, 2462, Note_on_c, 2, 65, 0
4, 2462, Note_on_c, 2, 69, 98
4, 2462, Note_on_c, 2, 60, 98
4, 2522, Note_on_c, 2, 60, 0
4, 2522, Note_on_c, 2, 69, 0
4, 2582, Note_on_c, 2, 69, 98
4, 2582, Note_on_c, 2, 65, 98
4, 2642, Note_on_c, 2, 65, 0
4, 2642, Note_on_c, 2, 69, 0
4, 2642, Note_on_c, 2, 72, 98
4, 2642, Note_on_c, 2, 69, 98
4, 2702, Note_on_c, 2, 69, 0
4, 2702, Note_on_c, 2, 72, 0
4, 2702, Note_on_c, 2, 67, 98
4, 2702, Note_on_c, 2, 70, 98
4, 2757, Note_on_c, 2, 70, 0
4, 2757, Note_on_c, 2, 67, 0
4, 2762, Note_on_c, 2, 67, 98
4, 2762, Note_on_c, 2, 70, 98
4, 2817, Note_on_c, 2, 70, 0
4, 2817, Note_on_c, 2, 67, 0
4, 2822, Note_on_c, 2, 67, 98
4, 2822, Note_on_c, 2, 70, 98
4, 2877, Note_on_c, 2, 70, 0
4, 2877, Note_on_c, 2, 67, 0
4, 2882, Note_on_c, 2, 70, 98
4, 2882, Note_on_c, 2, 67, 98
4, 2942, Control_c, 2, 11, 42
4, 2957, Control_c, 2, 11, 43
4, 2972, Control_c, 2, 11, 44
4, 2987, Control_c, 2, 11, 45
4, 2997, Note_on_c, 2, 67, 0
4, 2997, Note_on_c, 2, 70, 0
4, 3002, Control_c, 2, 11, 46
4, 3002, Note_on_c, 2, 64, 98
4, 3002, Note_on_c, 2, 67, 98
4, 3017, Control_c, 2, 11, 47
4, 3032, Control_c, 2, 11, 48
4, 3047, Control_c, 2, 11, 49
4, 3062, Note_on_c, 2, 67, 0
4, 3062, Note_on_c, 2, 64, 0
4, 3062, Control_c, 2, 11, 50
4, 3062, Note_on_c, 2, 60, 98
4, 3062, Note_on_c, 2, 65, 98
4, 3077, Control_c, 2, 11, 51
4, 3092, Control_c, 2, 11, 52
4, 3107, Control_c, 2, 11, 53
4, 3122, Note_on_c, 2, 65, 0
4, 3122, Note_on_c, 2, 60, 0
4, 3122, Control_c, 2, 11, 54
4, 3122, Note_on_c, 2, 67, 98
4, 3122, Note_on_c, 2, 64, 98
4, 3137, Control_c, 2, 11, 55
4, 3152, Control_c, 2, 11, 56
4, 3167, Control_c, 2, 11, 57
4, 3182, Note_on_c, 2, 64, 0
4, 3182, Note_on_c, 2, 67, 0
4, 3182, Control_c, 2, 11, 58
4, 3182, Note_on_c, 2, 69, 98
4, 3182, Note_on_c, 2, 65, 98
4, 3197, Control_c, 2, 11, 59
4, 3212, Control_c, 2, 11, 60
4, 3227, Control_c, 2, 11, 61
4, 3237, Note_on_c, 2, 65, 0
4, 3237, Note_on_c, 2, 69, 0
4, 3242, Control_c, 2, 11, 62
4, 3242, Note_on_c, 2, 70, 98
4, 3242, Note_on_c, 2, 67, 98
4, 3302, Note_on_c, 2, 67, 0
4, 3302, Note_on_c, 2, 64, 98
4, 3332, Note_on_c, 2, 70, 0
4, 3332, Note_on_c, 2, 72, 98
4, 3362, Note_on_c, 2, 72, 0
4, 3362, Note_on_c, 2, 64, 0
4, 3362, Note_on_c, 2, 69, 98
4, 3362, Note_on_c, 2, 65, 98
4, 3392, Note_on_c, 2, 69, 0
4, 3417, Note_on_c, 2, 65, 0
4, 3422, Note_on_c, 2, 64, 98
4, 3422, Note_on_c, 2, 67, 98
4, 3482, Note_on_c, 2, 67, 0
4, 3482, Note_on_c, 2, 64, 0
4, 3542, Note_on_c, 2, 67, 98
4, 3542, Note_on_c, 2, 64, 98
4, 3602, Note_on_c, 2, 64, 0
4, 3602, Note_on_c, 2, 67, 0
4, 3602, Note_on_c, 2, 69, 98
4, 3602, Note_on_c, 2, 65, 98
4, 3662, Note_on_c, 2, 65, 0
4, 3662, Note_on_c, 2, 69, 0
4, 3722, Note_on_c, 2, 65, 98
4, 3722, Note_on_c, 2, 69, 98
4, 3722, Control_c, 2, 11, 56
4, 3725, Control_c, 2, 11, 60
4, 3729, Control_c, 2, 11, 63
4, 3734, Control_c, 2, 11, 66
4, 3750, Control_c, 2, 11, 65
4, 3762, Control_c, 2, 11, 62
4, 3774, Control_c, 2, 11, 59
4, 3782, Note_on_c, 2, 69, 0
4, 3782, Note_on_c, 2, 65, 0
4, 3782, Note_on_c, 2, 64, 98
4, 3782, Note_on_c, 2, 67, 98
4, 3842, Note_on_c, 2, 67, 0
4, 3842, Note_on_c, 2, 64, 0
4, 3902, Note_on_c, 2, 67, 98
4, 3902, Note_on_c, 2, 64, 98
4, 3962, Note_on_c, 2, 64, 0
4, 3962, Note_on_c, 2, 67, 0
4, 3962, Note_on_c, 2, 69, 98
4, 3962, Note_on_c, 2, 65, 98
4, 3962, Control_c, 2, 11, 62
4, 4022, Note_on_c, 2, 65, 0
4, 4022, Note_on_c, 2, 69, 0
4, 4082, Note_on_c, 2, 65, 98
4, 4082, Note_on_c, 2, 69, 98
4, 4082, Control_c, 2, 11, 62
4, 4087, Control_c, 2, 11, 65
4, 4091, Control_c, 2, 11, 68
4, 4095, Control_c, 2, 11, 71
4, 4110, Control_c, 2, 11, 68
4, 4125, Control_c, 2, 11, 65
4, 4139, Control_c, 2, 11, 62
4, 4142, Note_on_c, 2, 69, 0
4, 4142, Note_on_c, 2, 65, 0
4, 4142, Note_on_c, 2, 64, 98
4, 4142, Note_on_c, 2, 67, 98
4, 4197, Note_on_c, 2, 67, 0
4, 4197, Note_on_c, 2, 64, 0
4, 4202, Note_on_c, 2, 64, 98
4, 4202, Note_on_c, 2, 67, 98
4, 4262, Note_on_c, 2, 67, 0
4, 4262, Note_on_c, 2, 64, 0
4, 4262, Note_on_c, 2, 65, 98
4, 4262, Note_on_c, 2, 69, 98
4, 4262, Control_c, 2, 11, 65
4, 4265, Control_c, 2, 11, 68
4, 4270, Control_c, 2, 11, 71
4, 4274, Control_c, 2, 11, 74
4, 4290, Control_c, 2, 11, 72
4, 4305, Control_c, 2, 11, 69
4, 4317, Control_c, 2, 11, 66
4, 4322, Note_on_c, 2, 69, 0
4, 4322, Note_on_c, 2, 65, 0
4, 4322, Note_on_c, 2, 64, 98
4, 4322, Note_on_c, 2, 67, 98
4, 4352, Note_on_c, 2, 67, 0
4, 4352, Note_on_c, 2, 64, 0
4, 4382, Note_on_c, 2, 64, 98
4, 4382, Note_on_c, 2, 67, 98
4, 4442, Note_on_c, 2, 67, 0
4, 4442, Note_on_c, 2, 64, 0
4, 4442, Note_on_c, 2, 65, 98
4, 4442, Control_c, 2, 11, 78
4, 4442, Note_on_c, 2, 69, 98
4, 4458, Control_c, 2, 11, 76
4, 4475, Control_c, 2, 11, 74
4, 4491, Control_c, 2, 11, 73
4, 4502, Note_on_c, 2, 69, 0
4, 4502, Note_on_c, 2, 65, 0
4, 4502, Note_on_c, 2, 67, 88
4, 4502, Note_on_c, 2, 64, 88
4, 4502, Control_c, 2, 11, 77
4, 4541, Note_on_c, 2, 64, 0
4, 4541, Note_on_c, 2, 67, 0
4, 4562, Note_on_c, 2, 64, 70
4, 4562, Note_on_c, 2, 67, 70
4, 4601, Note_on_c, 2, 67, 0
4, 4601, Note_on_c, 2, 64, 0
4, 4622, Note_on_c, 2, 64, 68
4, 4622, Note_on_c, 2, 67, 68
4, 4661, Note_on_c, 2, 67, 0
4, 4661, Note_on_c, 2, 64, 0
4, 4682, Note_on_c, 2, 64, 58
4, 4682, Note_on_c, 2, 67, 58
4, 4717, Control_c, 2, 11, 77
4, 4720, Control_c, 2, 11, 74
4, 4725, Control_c, 2, 11, 71
4, 4730, Control_c, 2, 11, 68
4, 4735, Control_c, 2, 11, 65
4, 4740, Control_c, 2, 11, 62
4, 4742, Note_on_c, 2, 67, 0
4, 4742, Note_on_c, 2, 64, 0
4, 6902, Control_c, 2, 11, 52
4, 6902, Note_on_c, 2, 79, 98
4, 6914, Control_c, 2, 11, 55
4, 6926, Control_c, 2, 11, 58
4, 6932, Note_on_c, 2, 79, 0
4, 6932, Note_on_c, 2, 78, 98
4, 6938, Control_c, 2, 11, 61
4, 6954, Control_c, 2, 11, 63
4, 6962, Note_on_c, 2, 78, 0
4, 6962, Note_on_c, 2, 79, 98
4, 6970, Control_c, 2, 11, 63
4, 6986, Control_c, 2, 11, 61
4, 6992, Note_on_c, 2, 79, 0
4, 6992, Note_on_c, 2, 76, 98
4, 6998, Control_c, 2, 11, 58
4, 7010, Control_c, 2, 11, 55
4, 7017, Note_on_c, 2, 76, 0
4, 7022, Note_on_c, 2, 72, 98
4, 7022, Control_c, 2, 11, 52
4, 7022, Note_on_c, 2, 67, 98
4, 7046, Control_c, 2, 11, 54
4, 7070, Control_c, 2, 11, 56
4, 7077, Note_on_c, 2, 67, 0
4, 7077, Note_on_c, 2, 72, 0
4, 7082, Note_on_c, 2, 72, 98
4, 7082, Note_on_c, 2, 67, 98
4, 7094, Control_c, 2, 11, 58
4, 7118, Control_c, 2, 11, 60
4, 7142, Note_on_c, 2, 67, 0
4, 7142, Note_on_c, 2, 72, 0
4, 7142, Control_c, 2, 11, 62
4, 7142, Note_on_c, 2, 70, 98
4, 7142, Note_on_c, 2, 73, 98
4, 7166, Control_c, 2, 11, 63
4, 7190, Control_c, 2, 11, 64
4, 7197, Note_on_c, 2, 73, 0
4, 7197, Note_on_c, 2, 70, 0
4, 7202, Note_on_c, 2, 74, 98
4, 7202, Note_on_c, 2, 69, 98
4, 7262, Note_on_c, 2, 69, 0
4, 7262, Note_on_c, 2, 74, 0
4, 7382, Note_on_c, 2, 64, 98
4, 7382, Control_c, 2, 11, 32
4, 7382, Note_on_c, 2, 72, 98
4, 7400, Control_c, 2, 11, 35
4, 7418, Control_c, 2, 11, 38
4, 7436, Control_c, 2, 11, 41
4, 7502, Note_on_c, 2, 72, 0
4, 7502, Note_on_c, 2, 64, 0
4, 7502, Note_on_c, 2, 71, 98
4, 7502, Note_on_c, 2, 65, 98
4, 7557, Note_on_c, 2, 65, 0
4, 7557, Note_on_c, 2, 71, 0
4, 7562, Note_on_c, 2, 64, 98
4, 7562, Note_on_c, 2, 72, 98
4, 7622, Note_on_c, 2, 72, 0
4, 7622, Note_on_c, 2, 64, 0
4, 8687, Note_on_c, 2, 64, 88
4, 8687, Note_on_c, 2, 76, 88
4, 8687, Control_c, 2, 11, 77
4, 8695, Note_on_c, 2, 76, 0
4, 8695, Note_on_c, 2, 64, 0
4, 8702, Note_on_c, 2, 64, 88
4, 8702, Note_on_c, 2, 76, 88
4, 8877, Note_on_c, 2, 76, 0
4, 8877, Note_on_c, 2, 64, 0
4, 8882, Note_on_c, 2, 60, 88
4, 8882, Note_on_c, 2, 70, 88
4, 8882, Control_c, 2, 11, 89
4, 8896, Control_c, 2, 11, 86
4, 8911, Control_c, 2, 11, 83
4, 8926, Control_c, 2, 11, 80
4, 8941, Control_c, 2, 11, 77
4, 9002, Note_on_c, 2, 70, 0
4, 9002, Note_on_c, 2, 69, 88
4, 9032, Note_on_c, 2, 69, 0
4, 9032, Note_on_c, 2, 60, 0
4, 9062, Note_on_c, 2, 72, 88
4, 9062, Note_on_c, 2, 69, 88
4, 9062, Control_c, 2, 11, 89
4, 9076, Control_c, 2, 11, 86
4, 9091, Control_c, 2, 11, 83
4, 9106, Control_c, 2, 11, 80
4, 9121, Control_c, 2, 11, 77
4, 9182, Note_on_c, 2, 69, 0
4, 9182, Note_on_c, 2, 72, 0
4, 9182, Note_on_c, 2, 67, 88
4, 9182, Note_on_c, 2, 71, 88
4, 9212, Note_on_c, 2, 71, 0
4, 9212, Note_on_c, 2, 67, 0
4, 9242, Control_c, 2, 11, 89
4, 9242, Note_on_c, 2, 71, 88
4, 9242, Note_on_c, 2, 74, 88
4, 9256, Control_c, 2, 11, 86
4, 9271, Control_c, 2, 11, 83
4, 9286, Control_c, 2, 11, 80
4, 9301, Control_c, 2, 11, 77
4, 9362, Note_on_c, 2, 71, 0
4, 9362, Control_c, 2, 11, 77
4, 9362, Note_on_c, 2, 69, 98
4, 9374, Control_c, 2, 11, 74
4, 9389, Control_c, 2, 11, 71
4, 9404, Control_c, 2, 11, 68
4, 9417, Note_on_c, 2, 69, 0
4, 9417, Note_on_c, 2, 74, 0
4, 9419, Control_c, 2, 11, 65
4, 9422, Note_on_c, 2, 64, 98
4, 9422, Note_on_c, 2, 67, 98
4, 9482, Note_on_c, 2, 67, 0
4, 9482, Note_on_c, 2, 64, 0
4, 9482, Control_c, 2, 11, 68
4, 9482, Control_c, 2, 11, 65
4, 9482, Note_on_c, 2, 65, 78
4, 9482, Note_on_c, 2, 67, 78
4, 9498, Control_c, 2, 11, 65
4, 9506, Control_c, 2, 11, 62
4, 9522, Control_c, 2, 11, 62
4, 9530, Control_c, 2, 11, 59
4, 9537, Note_on_c, 2, 67, 0
4, 9537, Note_on_c, 2, 65, 0
4, 9542, Note_on_c, 2, 67, 62
4, 9542, Note_on_c, 2, 64, 62
4, 9572, Control_c, 2, 11, 57
4, 9576, Control_c, 2, 11, 54
4, 9580, Control_c, 2, 11, 51
4, 9585, Control_c, 2, 11, 48
4, 9589, Control_c, 2, 11, 45
4, 9593, Control_c, 2, 11, 42
4, 9598, Control_c, 2, 11, 39
4, 9602, Note_on_c, 2, 64, 0
4, 9602, Note_on_c, 2, 67, 0
4, 9782, Control_c, 2, 11, 37
4, 9782, Note_on_c, 2, 62, 98
4, 9782, Note_on_c, 2, 65, 98
4, 9842, Note_on_c, 2, 65, 0
4, 9842, Note_on_c, 2, 62, 0
4, 9902, Note_on_c, 2, 64, 98
4, 9902, Note_on_c, 2, 60, 98
4, 9962, Note_on_c, 2, 60, 0
4, 9962, Note_on_c, 2, 64, 0
4, 10022, Note_on_c, 2, 64, 98
4, 10022, Note_on_c, 2, 60, 98
4, 10082, Note_on_c, 2, 60, 0
4, 10082, Note_on_c, 2, 64, 0
4, 10142, Note_on_c, 2, 71, 98
4, 10142, Note_on_c, 2, 65, 98
4, 10202, Note_on_c, 2, 65, 0
4, 10202, Note_on_c, 2, 71, 0
4, 10262, Note_on_c, 2, 72, 98
4, 10262, Note_on_c, 2, 64, 98
4, 10322, Note_on_c, 2, 64, 0
4, 10322, Note_on_c, 2, 72, 0
4, 10382, Note_on_c, 2, 72, 98
4, 10382, Note_on_c, 2, 64, 98
4, 10442, Note_on_c, 2, 64, 0
4, 10442, Note_on_c, 2, 72, 0
4, 10502, Note_on_c, 2, 65, 98
4, 10502, Note_on_c, 2, 62, 98
4, 10562, Note_on_c, 2, 62, 0
4, 10562, Note_on_c, 2, 65, 0
4, 10622, Note_on_c, 2, 64, 98
4, 10622, Note_on_c, 2, 60, 98
4, 10682, Note_on_c, 2, 60, 0
4, 10682, Note_on_c, 2, 64, 0
4, 10742, Note_on_c, 2, 64, 98
4, 10742, Note_on_c, 2, 60, 98
4, 10802, Note_on_c, 2, 60, 0
4, 10802, Note_on_c, 2, 64, 0
4, 10862, Note_on_c, 2, 71, 98
4, 10862, Note_on_c, 2, 65, 98
4, 10922, Note_on_c, 2, 65, 0
4, 10922, Note_on_c, 2, 71, 0
4, 10922, Note_on_c, 2, 71, 98
4, 10922, Note_on_c, 2, 65, 98
4, 10982, Note_on_c, 2, 65, 0
4, 10982, Note_on_c, 2, 71, 0
4, 10982, Note_on_c, 2, 72, 83
4, 10982, Note_on_c, 2, 64, 83
4, 11017, Control_c, 2, 11, 37
4, 11024, Control_c, 2, 11, 34
4, 11031, Control_c, 2, 11, 31
4, 11038, Control_c, 2, 11, 28
4, 11042, Note_on_c, 2, 64, 0
4, 11042, Note_on_c, 2, 72, 0
4, 11282, Control_c, 2, 11, 37
4, 11282, Note_on_c, 2, 67, 83
4, 11300, Control_c, 2, 11, 40
4, 11318, Control_c, 2, 11, 43
4, 11336, Control_c, 2, 11, 46
4, 11342, Note_on_c, 2, 67, 0
4, 11342, Note_on_c, 2, 72, 98
4, 11372, Note_on_c, 2, 72, 0
4, 11402, Note_on_c, 2, 64, 83
4, 11402, Note_on_c, 2, 67, 83
4, 11432, Note_on_c, 2, 67, 0
4, 11432, Note_on_c, 2, 64, 0
4, 11462, Note_on_c, 2, 64, 70
4, 11462, Note_on_c, 2, 67, 70
4, 11492, Note_on_c, 2, 67, 0
4, 11492, Note_on_c, 2, 64, 0
4, 11522, Note_on_c, 2, 64, 59
4, 11522, Note_on_c, 2, 67, 59
4, 11557, Control_c, 2, 11, 47
4, 11564, Control_c, 2, 11, 44
4, 11571, Control_c, 2, 11, 41
4, 11578, Control_c, 2, 11, 38
4, 11582, Note_on_c, 2, 67, 0
4, 11582, Note_on_c, 2, 64, 0
4, 13922, Control_c, 2, 11, 42
4, 13922, Note_on_c, 2, 57, 98
4, 13922, Note_on_c, 2, 65, 98
4, 13982, Note_on_c, 2, 65, 0
4, 13982, Note_on_c, 2, 57, 0
4, 13982, Note_on_c, 2, 60, 98
4, 13982, Note_on_c, 2, 69, 98
4, 14042, Note_on_c, 2, 69, 0
4, 14042, Note_on_c, 2, 60, 0
4, 14102, Note_on_c, 2, 69, 98
4, 14102, Note_on_c, 2, 65, 98
4, 14162, Note_on_c, 2, 65, 0
4, 14162, Note_on_c, 2, 69, 0
4, 14162, Note_on_c, 2, 72, 98
4, 14162, Note_on_c, 2, 69, 98
4, 14222, Note_on_c, 2, 69, 0
4, 14222, Note_on_c, 2, 72, 0
4, 14222, Note_on_c, 2, 67, 98
4, 14222, Note_on_c, 2, 70, 98
4, 14277, Note_on_c, 2, 70, 0
4, 14277, Note_on_c, 2, 67, 0
4, 14282, Note_on_c, 2, 67, 98
4, 14282, Note_on_c, 2, 70, 98
4, 14337, Note_on_c, 2, 70, 0
4, 14337, Note_on_c, 2, 67, 0
4, 14342, Note_on_c, 2, 67, 98
4, 14342, Note_on_c, 2, 70, 98
4, 14397, Note_on_c, 2, 70, 0
4, 14397, Note_on_c, 2, 67, 0
4, 14402, Note_on_c, 2, 70, 98
4, 14402, Note_on_c, 2, 67, 98
4, 14462, Control_c, 2, 11, 42
4, 14477, Control_c, 2, 11, 43
4, 14492, Control_c, 2, 11, 44
4, 14507, Control_c, 2, 11, 45
4, 14517, Note_on_c, 2, 67, 0
4, 14517, Note_on_c, 2, 70, 0
4, 14522, Note_on_c, 2, 64, 98
4, 14522, Note_on_c, 2, 67, 98
4, 14522, Control_c, 2, 11, 46
4, 14537, Control_c, 2, 11, 47
4, 14552, Control_c, 2, 11, 48
4, 14567, Control_c, 2, 11, 49
4, 14582, Note_on_c, 2, 67, 0
4, 14582, Note_on_c, 2, 64, 0
4, 14582, Control_c, 2, 11, 50
4, 14582, Note_on_c, 2, 65, 98
4, 14582, Note_on_c, 2, 60, 98
4, 14597, Control_c, 2, 11, 51
4, 14612, Control_c, 2, 11, 52
4, 14627, Control_c, 2, 11, 53
4, 14642, Note_on_c, 2, 60, 0
4, 14642, Note_on_c, 2, 65, 0
4, 14642, Control_c, 2, 11, 54
4, 14642, Note_on_c, 2, 64, 98
4, 14642, Note_on_c, 2, 67, 98
4, 14657, Control_c, 2, 11, 55
4, 14672, Control_c, 2, 11, 56
4, 14687, Control_c, 2, 11, 57
4, 14702, Note_on_c, 2, 67, 0
4, 14702, Note_on_c, 2, 64, 0
4, 14702, Control_c, 2, 11, 58
4, 14702, Note_on_c, 2, 65, 98
4, 14702, Note_on_c, 2, 69, 98
4, 14717, Control_c, 2, 11, 59
4, 14732, Control_c, 2, 11, 60
4, 14747, Control_c, 2, 11, 61
4, 14757, Note_on_c, 2, 69, 0
4, 14757, Note_on_c, 2, 65, 0
4, 14762, Note_on_c, 2, 70, 98
4, 14762, Note_on_c, 2, 67, 98
4, 14762, Control_c, 2, 11, 62
4, 14822, Note_on_c, 2, 67, 0
4, 14822, Note_on_c, 2, 64, 98
4, 14852, Note_on_c, 2, 70, 0
4, 14852, Note_on_c, 2, 72, 98
4, 14882, Note_on_c, 2, 72, 0
4, 14882, Note_on_c, 2, 64, 0
4, 14882, Note_on_c, 2, 65, 98
4, 14882, Note_on_c, 2, 69, 98
4, 14912, Note_on_c, 2, 69, 0
4, 14937, Note_on_c, 2, 65, 0
4, 14942, Note_on_c, 2, 67, 98
4, 14942, Note_on_c, 2, 64, 98
4, 15002, Note_on_c, 2, 64, 0
4, 15002, Note_on_c, 2, 67, 0
4, 15062, Note_on_c, 2, 64, 98
4, 15062, Note_on_c, 2, 67, 98
4, 15122, Note_on_c, 2, 67, 0
4, 15122, Note_on_c, 2, 64, 0
4, 15122, Note_on_c, 2, 69, 98
4, 15122, Note_on_c, 2, 65, 98
4, 15182, Note_on_c, 2, 65, 0
4, 15182, Note_on_c, 2, 69, 0
4, 15242, Control_c, 2, 11, 56
4, 15242, Note_on_c, 2, 69, 98
4, 15242, Note_on_c, 2, 65, 98
4, 15245, Control_c, 2, 11, 60
4, 15249, Control_c, 2, 11, 63
4, 15254, Control_c, 2, 11, 66
4, 15270, Control_c, 2, 11, 65
4, 15282, Control_c, 2, 11, 62
4, 15294, Control_c, 2, 11, 59
4, 15302, Note_on_c, 2, 65, 0
4, 15302, Note_on_c, 2, 69, 0
4, 15302, Note_on_c, 2, 67, 98
4, 15302, Note_on_c, 2, 64, 98
4, 15362, Note_on_c, 2, 64, 0
4, 15362, Note_on_c, 2, 67, 0
4, 15422, Note_on_c, 2, 64, 98
4, 15422, Note_on_c, 2, 67, 98
4, 15482, Note_on_c, 2, 67, 0
4, 15482, Note_on_c, 2, 64, 0
4, 15482, Control_c, 2, 11, 62
4, 15482, Note_on_c, 2, 69, 98
4, 15482, Note_on_c, 2, 65, 98
4, 15542, Note_on_c, 2, 65, 0
4, 15542, Note_on_c, 2, 69, 0
4, 15602, Control_c, 2, 11, 62
4, 15602, Note_on_c, 2, 69, 98
4, 15602, Note_on_c, 2, 65, 98
4, 15607, Control_c, 2, 11, 65
4, 15611, Control_c, 2, 11, 68
4, 15615, Control_c, 2, 11, 71
4, 15630, Control_c, 2, 11, 68
4, 15645, Control_c, 2, 11, 65
4, 15659, Control_c, 2, 11, 62
4, 15662, Note_on_c, 2, 65, 0
4, 15662, Note_on_c, 2, 69, 0
4, 15662, Note_on_c, 2, 64, 98
4, 15662, Note_on_c, 2, 67, 98
4, 15717, Note_on_c, 2, 67, 0
4, 15717, Note_on_c, 2, 64, 0
4, 15722, Note_on_c, 2, 64, 98
4, 15722, Note_on_c, 2, 67, 98
4, 15782, Note_on_c, 2, 67, 0
4, 15782, Note_on_c, 2, 64, 0
4, 15782, Note_on_c, 2, 65, 98
4, 15782, Control_c, 2, 11, 65
4, 15782, Note_on_c, 2, 69, 98
4, 15785, Control_c, 2, 11, 68
4, 15790, Control_c, 2, 11, 71
4, 15794, Control_c, 2, 11, 74
4, 15810, Control_c, 2, 11, 72
4, 15825, Control_c, 2, 11, 69
4, 15837, Control_c, 2, 11, 66
4, 15842, Note_on_c, 2, 69, 0
4, 15842, Note_on_c, 2, 65, 0
4, 15842, Note_on_c, 2, 64, 98
4, 15842, Note_on_c, 2, 67, 98
4, 15872, Note_on_c, 2, 67, 0
4, 15872, Note_on_c, 2, 64, 0
4, 15902, Note_on_c, 2, 64, 98
4, 15902, Note_on_c, 2, 67, 98
4, 15962, Note_on_c, 2, 67, 0
4, 15962, Note_on_c, 2, 64, 0
4, 15962, Note_on_c, 2, 65, 98
4, 15962, Note_on_c, 2, 69, 98
4, 15962, Control_c, 2, 11, 78
4, 15978, Control_c, 2, 11, 76
4, 15995, Control_c, 2, 11, 74
4, 16011, Control_c, 2, 11, 73
4, 16022, Note_on_c, 2, 69, 0
4, 16022, Note_on_c, 2, 65, 0
4, 16022, Note_on_c, 2, 67, 88
4, 16022, Note_on_c, 2, 64, 88
4, 16022, Control_c, 2, 11, 77
4, 16061, Note_on_c, 2, 64, 0
4, 16061, Note_on_c, 2, 67, 0
4, 16082, Note_on_c, 2, 64, 70
4, 16082, Note_on_c, 2, 67, 70
4, 16121, Note_on_c, 2, 67, 0
4, 16121, Note_on_c, 2, 64, 0
4, 16142, Note_on_c, 2, 64, 68
4, 16142, Note_on_c, 2, 67, 68
4, 16181, Note_on_c, 2, 67, 0
4, 16181, Note_on_c, 2, 64, 0
4, 16202, Note_on_c, 2, 64, 65
4, 16202, Note_on_c, 2, 67, 65
4, 16237, Control_c, 2, 11, 77
4, 16240, Control_c, 2, 11, 74
4, 16245, Control_c, 2, 11, 71
4, 16250, Control_c, 2, 11, 68
4, 16255, Control_c, 2, 11, 65
4, 16260, Control_c, 2, 11, 62
4, 16262, Note_on_c, 2, 67, 0
4, 16262, Note_on_c, 2, 64, 0
4, 18422, Note_on_c, 2, 79, 98
4, 18422, Control_c, 2, 11, 52
4, 18434, Control_c, 2, 11, 55
4, 18446, Control_c, 2, 11, 58
4, 18452, Note_on_c, 2, 79, 0
4, 18452, Note_on_c, 2, 78, 98
4, 18458, Control_c, 2, 11, 61
4, 18474, Control_c, 2, 11, 63
4, 18482, Note_on_c, 2, 78, 0
4, 18482, Note_on_c, 2, 79, 98
4, 18490, Control_c, 2, 11, 63
4, 18506, Control_c, 2, 11, 61
4, 18512, Note_on_c, 2, 79, 0
4, 18512, Note_on_c, 2, 76, 98
4, 18518, Control_c, 2, 11, 58
4, 18530, Control_c, 2, 11, 55
4, 18537, Note_on_c, 2, 76, 0
4, 18542, Control_c, 2, 11, 52
4, 18542, Note_on_c, 2, 72, 98
4, 18542, Note_on_c, 2, 67, 98
4, 18566, Control_c, 2, 11, 54
4, 18590, Control_c, 2, 11, 56
4, 18597, Note_on_c, 2, 67, 0
4, 18597, Note_on_c, 2, 72, 0
4, 18602, Note_on_c, 2, 72, 98
4, 18602, Note_on_c, 2, 67, 98
4, 18614, Control_c, 2, 11, 58
4, 18638, Control_c, 2, 11, 60
4, 18662, Note_on_c, 2, 67, 0
4, 18662, Note_on_c, 2, 72, 0
4, 18662, Note_on_c, 2, 70, 98
4, 18662, Note_on_c, 2, 73, 98
4, 18662, Control_c, 2, 11, 62
4, 18686, Control_c, 2, 11, 63
4, 18710, Control_c, 2, 11, 64
4, 18717, Note_on_c, 2, 73, 0
4, 18717, Note_on_c, 2, 70, 0
4, 18722, Note_on_c, 2, 69, 98
4, 18722, Note_on_c, 2, 74, 98
4, 18782, Note_on_c, 2, 74, 0
4, 18782, Note_on_c, 2, 69, 0
4, 18902, Control_c, 2, 11, 32
4, 18902, Note_on_c, 2, 64, 98
4, 18902, Note_on_c, 2, 72, 98
4, 18920, Control_c, 2, 11, 35
4, 18938, Control_c, 2, 11, 38
4, 18956, Control_c, 2, 11, 41
4, 19022, Note_on_c, 2, 72, 0
4, 19022, Note_on_c, 2, 64, 0
4, 19022, Note_on_c, 2, 65, 98
4, 19022, Note_on_c, 2, 71, 98
4, 19077, Note_on_c, 2, 71, 0
4, 19077, Note_on_c, 2, 65, 0
4, 19082, Note_on_c, 2, 72, 98
4, 19082, Note_on_c, 2, 64, 98
4, 19142, Note_on_c, 2, 64, 0
4, 19142, Note_on_c, 2, 72, 0
4, 20207, Control_c, 2, 11, 77
4, 20207, Note_on_c, 2, 64, 88
4, 20207, Note_on_c, 2, 76, 88
4, 20215, Note_on_c, 2, 76, 0
4, 20215, Note_on_c, 2, 64, 0
4, 20222, Note_on_c, 2, 64, 88
4, 20222, Note_on_c, 2, 76, 88
4, 20397, Note_on_c, 2, 76, 0
4, 20397, Note_on_c, 2, 64, 0
4, 20402, Control_c, 2, 11, 89
4, 20402, Note_on_c, 2, 70, 88
4, 20402, Note_on_c, 2, 60, 88
4, 20416, Control_c, 2, 11, 86
4, 20431, Control_c, 2, 11, 83
4, 20446, Control_c, 2, 11, 80
4, 20461, Control_c, 2, 11, 77
4, 20522, Note_on_c, 2, 70, 0
4, 20522, Note_on_c, 2, 69, 88
4, 20552, Note_on_c, 2, 69, 0
4, 20552, Note_on_c, 2, 60, 0
4, 20582, Note_on_c, 2, 72, 88
4, 20582, Control_c, 2, 11, 89
4, 20582, Note_on_c, 2, 69, 88
4, 20596, Control_c, 2, 11, 86
4, 20611, Control_c, 2, 11, 83
4, 20626, Control_c, 2, 11, 80
4, 20641, Control_c, 2, 11, 77
4, 20702, Note_on_c, 2, 69, 0
4, 20702, Note_on_c, 2, 72, 0
4, 20702, Note_on_c, 2, 67, 88
4, 20702, Note_on_c, 2, 71, 88
4, 20732, Note_on_c, 2, 71, 0
4, 20732, Note_on_c, 2, 67, 0
4, 20762, Note_on_c, 2, 71, 88
4, 20762, Control_c, 2, 11, 89
4, 20762, Note_on_c, 2, 74, 88
4, 20776, Control_c, 2, 11, 86
4, 20791, Control_c, 2, 11, 83
4, 20806, Control_c, 2, 11, 80
4, 20821, Control_c, 2, 11, 77
4, 20882, Note_on_c, 2, 71, 0
4, 20882, Control_c, 2, 11, 77
4, 20882, Note_on_c, 2, 69, 98
4, 20894, Control_c, 2, 11, 74
4, 20909, Control_c, 2, 11, 71
4, 20924, Control_c, 2, 11, 68
4, 20937, Note_on_c, 2, 69, 0
4, 20937, Note_on_c, 2, 74, 0
4, 20939, Control_c, 2, 11, 65
4, 20942, Note_on_c, 2, 67, 98
4, 20942, Note_on_c, 2, 64, 98
4, 21002, Note_on_c, 2, 64, 0
4, 21002, Note_on_c, 2, 67, 0
4, 21002, Control_c, 2, 11, 68
4, 21002, Note_on_c, 2, 65, 78
4, 21002, Note_on_c, 2, 67, 78
4, 21002, Control_c, 2, 11, 65
4, 21018, Control_c, 2, 11, 65
4, 21026, Control_c, 2, 11, 62
4, 21042, Control_c, 2, 11, 62
4, 21050, Control_c, 2, 11, 59
4, 21057, Note_on_c, 2, 67, 0
4, 21057, Note_on_c, 2, 65, 0
4, 21062, Note_on_c, 2, 64, 62
4, 21062, Note_on_c, 2, 67, 62
4, 21092, Control_c, 2, 11, 57
4, 21096, Control_c, 2, 11, 54
4, 21100, Control_c, 2, 11, 51
4, 21105, Control_c, 2, 11, 48
4, 21109, Control_c, 2, 11, 45
4, 21113, Control_c, 2, 11, 42
4, 21118, Control_c, 2, 11, 39
4, 21122, Note_on_c, 2, 67, 0
4, 21122, Note_on_c, 2, 64, 0
4, 21302, Note_on_c, 2, 62, 98
4, 21302, Note_on_c, 2, 65, 98
4, 21302, Control_c, 2, 11, 37
4, 21362, Note_on_c, 2, 65, 0
4, 21362, Note_on_c, 2, 62, 0
4, 21422, Note_on_c, 2, 64, 98
4, 21422, Note_on_c, 2, 60, 98
4, 21482, Note_on_c, 2, 60, 0
4, 21482, Note_on_c, 2, 64, 0
4, 21542, Note_on_c, 2, 64, 98
4, 21542, Note_on_c, 2, 60, 98
4, 21602, Note_on_c, 2, 60, 0
4, 21602, Note_on_c, 2, 64, 0
4, 21662, Note_on_c, 2, 65, 98
4, 21662, Note_on_c, 2, 71, 98
4, 21722, Note_on_c, 2, 71, 0
4, 21722, Note_on_c, 2, 65, 0
4, 21782, Note_on_c, 2, 64, 98
4, 21782, Note_on_c, 2, 72, 98
4, 21842, Note_on_c, 2, 72, 0
4, 21842, Note_on_c, 2, 64, 0
4, 21902, Note_on_c, 2, 72, 98
4, 21902, Note_on_c, 2, 64, 98
4, 21962, Note_on_c, 2, 64, 0
4, 21962, Note_on_c, 2, 72, 0
4, 22022, Note_on_c, 2, 65, 98
4, 22022, Note_on_c, 2, 62, 98
4, 22082, Note_on_c, 2, 62, 0
4, 22082, Note_on_c, 2, 65, 0
4, 22142, Note_on_c, 2, 64, 98
4, 22142, Note_on_c, 2, 60, 98
4, 22202, Note_on_c, 2, 60, 0
4, 22202, Note_on_c, 2, 64, 0
4, 22262, Note_on_c, 2, 64, 98
4, 22262, Note_on_c, 2, 60, 98
4, 22322, Note_on_c, 2, 60, 0
4, 22322, Note_on_c, 2, 64, 0
4, 22382, Note_on_c, 2, 71, 98
4, 22382, Note_on_c, 2, 65, 98
4, 22442, Note_on_c, 2, 65, 0
4, 22442, Note_on_c, 2, 71, 0
4, 22442, Note_on_c, 2, 71, 98
4, 22442, Note_on_c, 2, 65, 98
4, 22502, Note_on_c, 2, 65, 0
4, 22502, Note_on_c, 2, 71, 0
4, 22502, Note_on_c, 2, 72, 83
4, 22502, Note_on_c, 2, 64, 83
4, 22537, Control_c, 2, 11, 37
4, 22544, Control_c, 2, 11, 34
4, 22551, Control_c, 2, 11, 31
4, 22558, Control_c, 2, 11, 28
4, 22562, Note_on_c, 2, 64, 0
4, 22562, Note_on_c, 2, 72, 0
4, 22802, Note_on_c, 2, 67, 83
4, 22802, Control_c, 2, 11, 37
4, 22820, Control_c, 2, 11, 40
4, 22838, Control_c, 2, 11, 43
4, 22856, Control_c, 2, 11, 46
4, 22862, Note_on_c, 2, 67, 0
4, 22862, Note_on_c, 2, 72, 98
4, 22892, Note_on_c, 2, 72, 0
4, 22922, Note_on_c, 2, 64, 83
4, 22922, Note_on_c, 2, 67, 83
4, 22952, Note_on_c, 2, 67, 0
4, 22952, Note_on_c, 2, 64, 0
4, 22982, Note_on_c, 2, 64, 70
4, 22982, Note_on_c, 2, 67, 70
4, 23012, Note_on_c, 2, 67, 0
4, 23012, Note_on_c, 2, 64, 0
4, 23042, Note_on_c, 2, 64, 66
4, 23042, Note_on_c, 2, 67, 66
4, 23077, Control_c, 2, 11, 47
4, 23084, Control_c, 2, 11, 44
4, 23091, Control_c, 2, 11, 41
4, 23098, Control_c, 2, 11, 38
4, 23102, Note_on_c, 2, 67, 0
4, 23102, Note_on_c, 2, 64, 0
4, 25802, Note_on_c, 2, 77, 98
4, 25802, Note_on_c, 2, 65, 98
4, 25802, Control_c, 2, 11, 77
4, 25806, Control_c, 2, 11, 74
4, 25812, Control_c, 2, 11, 71
4, 25817, Control_c, 2, 11, 68
4, 25823, Control_c, 2, 11, 65
4, 25829, Control_c, 2, 11, 62
4, 25833, Control_c, 2, 11, 59
4, 25836, Control_c, 2, 11, 56
4, 25840, Control_c, 2, 11, 53
4, 25843, Control_c, 2, 11, 50
4, 25847, Control_c, 2, 11, 47
4, 25982, Note_on_c, 2, 65, 0
4, 25982, Note_on_c, 2, 77, 0
4, 25982, Note_on_c, 2, 77, 98
4, 25982, Note_on_c, 2, 65, 98
4, 25982, Control_c, 2, 11, 77
4, 25986, Control_c, 2, 11, 74
4, 25992, Control_c, 2, 11, 71
4, 25997, Control_c, 2, 11, 68
4, 26003, Control_c, 2, 11, 65
4, 26009, Control_c, 2, 11, 62
4, 26013, Control_c, 2, 11, 59
4, 26016, Control_c, 2, 11, 56
4, 26020, Control_c, 2, 11, 53
4, 26023, Control_c, 2, 11, 50
4, 26027, Control_c, 2, 11, 47
4, 26102, Note_on_c, 2, 65, 0
4, 26102, Note_on_c, 2, 77, 0
4, 26102, Note_on_c, 2, 64, 98
4, 26102, Note_on_c, 2, 76, 98
4, 26132, Note_on_c, 2, 76, 0
4, 26132, Note_on_c, 2, 64, 0
4, 26222, Note_on_c, 2, 67, 98
4, 26222, Note_on_c, 2, 64, 98
4, 26282, Note_on_c, 2, 64, 0
4, 26282, Note_on_c, 2, 67, 0
4, 26282, Note_on_c, 2, 68, 98
4, 26282, Note_on_c, 2, 65, 98
4, 26312, Note_on_c, 2, 65, 0
4, 26312, Note_on_c, 2, 68, 0
4, 26342, Note_on_c, 2, 68, 88
4, 26342, Note_on_c, 2, 65, 88
4, 26372, Note_on_c, 2, 65, 0
4, 26372, Note_on_c, 2, 68, 0
4, 26402, Note_on_c, 2, 62, 98
4, 26402, Note_on_c, 2, 71, 98
4, 26402, Control_c, 2, 11, 77
4, 26462, Note_on_c, 2, 71, 0
4, 26462, Note_on_c, 2, 62, 0
4, 26462, Note_on_c, 2, 64, 98
4, 26462, Note_on_c, 2, 72, 98
4, 26492, Note_on_c, 2, 72, 0
4, 26492, Note_on_c, 2, 64, 0
4, 26522, Note_on_c, 2, 64, 98
4, 26522, Note_on_c, 2, 72, 98
4, 26552, Note_on_c, 2, 72, 0
4, 26552, Note_on_c, 2, 64, 0
4, 26582, Control_c, 2, 11, 47
4, 26582, Note_on_c, 2, 67, 98
4, 26582, Note_on_c, 2, 64, 98
4, 26642, Note_on_c, 2, 64, 0
4, 26642, Note_on_c, 2, 67, 0
4, 26642, Note_on_c, 2, 65, 98
4, 26642, Note_on_c, 2, 68, 98
4, 26672, Note_on_c, 2, 68, 0
4, 26672, Note_on_c, 2, 65, 0
4, 26702, Note_on_c, 2, 68, 88
4, 26702, Note_on_c, 2, 65, 88
4, 26732, Note_on_c, 2, 65, 0
4, 26732, Note_on_c, 2, 68, 0
4, 26762, Note_on_c, 2, 71, 98
4, 26762, Note_on_c, 2, 62, 98
4, 26762, Control_c, 2, 11, 77
4, 26822, Note_on_c, 2, 62, 0
4, 26822, Note_on_c, 2, 71, 0
4, 26822, Note_on_c, 2, 64, 98
4, 26822, Note_on_c, 2, 72, 98
4, 26852, Note_on_c, 2, 72, 0
4, 26852, Note_on_c, 2, 64, 0
4, 27002, Note_on_c, 2, 71, 88
4, 27002, Note_on_c, 2, 74, 88
4, 27002, Control_c, 2, 11, 37
4, 27062, Note_on_c, 2, 74, 0
4, 27062, Note_on_c, 2, 71, 0
4, 27062, Note_on_c, 2, 76, 88
4, 27062, Note_on_c, 2, 72, 88
4, 27105, Note_on_c, 2, 72, 0
4, 27105, Note_on_c, 2, 76, 0
4, 27242, Note_on_c, 2, 70, 88
4, 27242, Note_on_c, 2, 67, 88
4, 27302, Note_on_c, 2, 67, 0
4, 27302, Note_on_c, 2, 70, 0
4, 27302, Note_on_c, 2, 72, 88
4, 27302, Note_on_c, 2, 69, 88
4, 27345, Note_on_c, 2, 69, 0
4, 27345, Note_on_c, 2, 72, 0
4, 27482, Note_on_c, 2, 67, 93
4, 27482, Note_on_c, 2, 64, 93
4, 27542, Note_on_c, 2, 64, 0
4, 27542, Note_on_c, 2, 67, 0
4, 27542, Note_on_c, 2, 69, 93
4, 27542, Note_on_c, 2, 65, 93
4, 27585, Note_on_c, 2, 65, 0
4, 27585, Note_on_c, 2, 69, 0
4, 27602, Note_on_c, 2, 71, 93
4, 27602, Note_on_c, 2, 74, 93
4, 27662, Note_on_c, 2, 74, 0
4, 27662, Note_on_c, 2, 71, 0
4, 27662, Note_on_c, 2, 76, 93
4, 27662, Note_on_c, 2, 72, 93
4, 27705, Note_on_c, 2, 72, 0
4, 27705, Note_on_c, 2, 76, 0
4, 27722, Note_on_c, 2, 72, 93
4, 27722, Note_on_c, 2, 69, 93
4, 27782, Note_on_c, 2, 69, 0
4, 27782, Note_on_c, 2, 72, 0
4, 27782, Note_on_c, 2, 74, 93
4, 27782, Note_on_c, 2, 70, 93
4, 27825, Note_on_c, 2, 70, 0
4, 27825, Note_on_c, 2, 74, 0
4, 27842, Note_on_c, 2, 74, 93
4, 27842, Note_on_c, 2, 71, 93
4, 27902, Note_on_c, 2, 71, 0
4, 27902, Note_on_c, 2, 74, 0
4, 27902, Note_on_c, 2, 72, 98
4, 27902, Note_on_c, 2, 69, 98
4, 27932, Note_on_c, 2, 69, 0
4, 27932, Note_on_c, 2, 72, 0
4, 27962, Note_on_c, 2, 66, 98
4, 27962, Note_on_c, 2, 78, 98
4, 27962, Control_c, 2, 11, 37
4, 27980, Control_c, 2, 11, 40
4, 27992, Note_on_c, 2, 78, 0
4, 27992, Note_on_c, 2, 66, 0
4, 27998, Control_c, 2, 11, 43
4, 28016, Control_c, 2, 11, 46
4, 28022, Note_on_c, 2, 79, 98
4, 28022, Note_on_c, 2, 67, 98
4, 28034, Control_c, 2, 11, 49
4, 28052, Note_on_c, 2, 67, 0
4, 28052, Note_on_c, 2, 79, 0
4, 28052, Control_c, 2, 11, 52
4, 28070, Control_c, 2, 11, 55
4, 28082, Note_on_c, 2, 76, 88
4, 28082, Note_on_c, 2, 64, 88
4, 28088, Control_c, 2, 11, 58
4, 28106, Control_c, 2, 11, 61
4, 28112, Note_on_c, 2, 64, 0
4, 28112, Note_on_c, 2, 76, 0
4, 28124, Control_c, 2, 11, 63
4, 28142, Note_on_c, 2, 65, 88
4, 28142, Note_on_c, 2, 77, 88
4, 28142, Control_c, 2, 11, 65
4, 28160, Control_c, 2, 11, 66
4, 28172, Note_on_c, 2, 77, 0
4, 28172, Note_on_c, 2, 65, 0
4, 28178, Control_c, 2, 11, 68
4, 28196, Control_c, 2, 11, 70
4, 28202, Note_on_c, 2, 66, 88
4, 28202, Note_on_c, 2, 78, 88
4, 28214, Control_c, 2, 11, 72
4, 28232, Note_on_c, 2, 78, 0
4, 28232, Note_on_c, 2, 66, 0
4, 28232, Control_c, 2, 11, 74
4, 28250, Control_c, 2, 11, 76
4, 28262, Note_on_c, 2, 67, 88
4, 28262, Note_on_c, 2, 79, 88
4, 28422, Control_c, 2, 11, 77
4, 28424, Control_c, 2, 11, 73
4, 28426, Control_c, 2, 11, 70
4, 28428, Control_c, 2, 11, 67
4, 28430, Control_c, 2, 11, 64
4, 28432, Control_c, 2, 11, 61
4, 28434, Control_c, 2, 11, 58
4, 28436, Control_c, 2, 11, 54
4, 28438, Control_c, 2, 11, 51
4, 28440, Control_c, 2, 11, 48
4, 28442, Note_on_c, 2, 79, 0
4, 28442, Note_on_c, 2, 67, 0
4, 28622, Control_c, 2, 11, 77
4, 28622, Note_on_c, 2, 70, 88
4, 28622, Note_on_c, 2, 79, 88
4, 28782, Control_c, 2, 11, 77
4, 28784, Control_c, 2, 11, 73
4, 28786, Control_c, 2, 11, 70
4, 28788, Control_c, 2, 11, 67
4, 28790, Control_c, 2, 11, 64
4, 28792, Control_c, 2, 11, 61
4, 28794, Control_c, 2, 11, 58
4, 28796, Control_c, 2, 11, 54
4, 28798, Control_c, 2, 11, 51
4, 28800, Control_c, 2, 11, 48
4, 28802, Note_on_c, 2, 79, 0
4, 28802, Note_on_c, 2, 70, 0
4, 31982, Note_on_c, 2, 65, 88
4, 31982, Note_on_c, 2, 60, 88
4, 31982, Control_c, 2, 11, 37
4, 32000, Control_c, 2, 11, 40
4, 32018, Control_c, 2, 11, 43
4, 32036, Control_c, 2, 11, 46
4, 32042, Note_on_c, 2, 60, 0
4, 32042, Note_on_c, 2, 65, 0
4, 32042, Note_on_c, 2, 69, 88
4, 32042, Note_on_c, 2, 65, 88
4, 32081, Note_on_c, 2, 65, 0
4, 32081, Note_on_c, 2, 69, 0
4, 32102, Note_on_c, 2, 69, 88
4, 32102, Note_on_c, 2, 65, 88
4, 32141, Note_on_c, 2, 65, 0
4, 32141, Note_on_c, 2, 69, 0
4, 32162, Note_on_c, 2, 69, 88
4, 32162, Note_on_c, 2, 65, 88
4, 32222, Note_on_c, 2, 65, 0
4, 32222, Note_on_c, 2, 69, 0
4, 32222, Note_on_c, 2, 70, 88
4, 32222, Note_on_c, 2, 64, 88
4, 32261, Note_on_c, 2, 64, 0
4, 32261, Note_on_c, 2, 70, 0
4, 32282, Note_on_c, 2, 58, 88
4, 32282, Note_on_c, 2, 64, 88
4, 32330, Note_on_c, 2, 64, 0
4, 32330, Note_on_c, 2, 58, 0
4, 32342, Note_on_c, 2, 64, 88
4, 32342, Note_on_c, 2, 58, 88
4, 32390, Note_on_c, 2, 58, 0
4, 32390, Note_on_c, 2, 64, 0
4, 32402, Note_on_c, 2, 64, 88
4, 32402, Note_on_c, 2, 58, 88
4, 32459, Note_on_c, 2, 58, 0
4, 32462, Note_on_c, 2, 55, 88
4, 32519, Note_on_c, 2, 55, 0
4, 32519, Note_on_c, 2, 64, 0
4, 32522, Note_on_c, 2, 60, 88
4, 32522, Note_on_c, 2, 64, 88
4, 32579, Note_on_c, 2, 60, 0
4, 32582, Note_on_c, 2, 64, 0
4, 32582, Note_on_c, 2, 60, 88
4, 32582, Note_on_c, 2, 65, 88
4, 32582, Control_c, 2, 11, 47
4, 32602, Control_c, 2, 11, 48
4, 32622, Control_c, 2, 11, 49
4, 32642, Note_on_c, 2, 65, 0
4, 32642, Note_on_c, 2, 60, 0
4, 32642, Note_on_c, 2, 67, 88
4, 32642, Note_on_c, 2, 64, 88
4, 32642, Control_c, 2, 11, 50
4, 32662, Control_c, 2, 11, 51
4, 32682, Control_c, 2, 11, 52
4, 32702, Note_on_c, 2, 64, 0
4, 32702, Note_on_c, 2, 67, 0
4, 32702, Control_c, 2, 11, 53
4, 32702, Note_on_c, 2, 65, 88
4, 32702, Note_on_c, 2, 69, 88
4, 32722, Control_c, 2, 11, 54
4, 32742, Control_c, 2, 11, 55
4, 32759, Note_on_c, 2, 69, 0
4, 32759, Note_on_c, 2, 65, 0
4, 32762, Control_c, 2, 11, 56
4, 32762, Note_on_c, 2, 70, 88
4, 32762, Note_on_c, 2, 67, 88
4, 32782, Control_c, 2, 11, 57
4, 32802, Control_c, 2, 11, 58
4, 32822, Control_c, 2, 11, 59
4, 32842, Control_c, 2, 11, 60
4, 32852, Note_on_c, 2, 70, 0
4, 32852, Note_on_c, 2, 72, 88
4, 32862, Control_c, 2, 11, 61
4, 32882, Note_on_c, 2, 72, 0
4, 32882, Note_on_c, 2, 67, 0
4, 32882, Note_on_c, 2, 69, 88
4, 32882, Control_c, 2, 11, 62
4, 32882, Note_on_c, 2, 65, 88
4, 32912, Note_on_c, 2, 65, 0
4, 32912, Note_on_c, 2, 69, 0
4, 32942, Note_on_c, 2, 64, 88
4, 32942, Note_on_c, 2, 67, 88
4, 33002, Note_on_c, 2, 67, 0
4, 33002, Note_on_c, 2, 64, 0
4, 33002, Note_on_c, 2, 72, 88
4, 33002, Note_on_c, 2, 60, 88
4, 33059, Note_on_c, 2, 60, 0
4, 33059, Note_on_c, 2, 72, 0
4, 33062, Note_on_c, 2, 60, 88
4, 33062, Note_on_c, 2, 72, 88
4, 33179, Note_on_c, 2, 72, 0
4, 33179, Note_on_c, 2, 60, 0
4, 33182, Note_on_c, 2, 72, 88
4, 33182, Note_on_c, 2, 60, 88
4, 33239, Note_on_c, 2, 60, 0
4, 33239, Note_on_c, 2, 72, 0
4, 33242, Note_on_c, 2, 60, 88
4, 33242, Note_on_c, 2, 72, 88
4, 33242, Control_c, 2, 11, 74
4, 33254, Control_c, 2, 11, 71
4, 33269, Control_c, 2, 11, 68
4, 33284, Control_c, 2, 11, 65
4, 33299, Control_c, 2, 11, 62
4, 33359, Note_on_c, 2, 72, 0
4, 33359, Note_on_c, 2, 60, 0
4, 33362, Note_on_c, 2, 72, 88
4, 33362, Note_on_c, 2, 60, 88
4, 33419, Note_on_c, 2, 60, 0
4, 33419, Note_on_c, 2, 72, 0
4, 33422, Note_on_c, 2, 60, 88
4, 33422, Note_on_c, 2, 72, 88
4, 33539, Note_on_c, 2, 72, 0
4, 33539, Note_on_c, 2, 60, 0
4, 33542, Note_on_c, 2, 72, 88
4, 33542, Note_on_c, 2, 60, 88
4, 33599, Note_on_c, 2, 60, 0
4, 33599, Note_on_c, 2, 72, 0
4, 33602, Control_c, 2, 11, 77
4, 33602, Note_on_c, 2, 72, 88
4, 33602, Note_on_c, 2, 60, 88
4, 33614, Control_c, 2, 11, 74
4, 33629, Control_c, 2, 11, 71
4, 33644, Control_c, 2, 11, 68
4, 33659, Control_c, 2, 11, 65
4, 33719, Note_on_c, 2, 60, 0
4, 33719, Note_on_c, 2, 72, 0
4, 33722, Note_on_c, 2, 72, 88
4, 33722, Note_on_c, 2, 60, 88
4, 33722, Control_c, 2, 11, 80
4, 33737, Control_c, 2, 11, 77
4, 33749, Control_c, 2, 11, 74
4, 33764, Control_c, 2, 11, 71
4, 33779, Control_c, 2, 11, 68
4, 33899, Note_on_c, 2, 60, 0
4, 33899, Note_on_c, 2, 72, 0
4, 33902, Control_c, 2, 11, 80
4, 33902, Note_on_c, 2, 70, 88
4, 33902, Note_on_c, 2, 74, 88
4, 33918, Control_c, 2, 11, 78
4, 33932, Note_on_c, 2, 74, 0
4, 33932, Note_on_c, 2, 70, 0
4, 33932, Note_on_c, 2, 72, 88
4, 33932, Note_on_c, 2, 69, 88
4, 33934, Control_c, 2, 11, 75
4, 33950, Control_c, 2, 11, 73
4, 33962, Note_on_c, 2, 69, 0
4, 33962, Note_on_c, 2, 72, 0
4, 33962, Note_on_c, 2, 67, 88
4, 33962, Note_on_c, 2, 70, 88
4, 33992, Note_on_c, 2, 70, 0
4, 33992, Note_on_c, 2, 67, 0
4, 33992, Note_on_c, 2, 69, 88
4, 33992, Note_on_c, 2, 65, 88
4, 34019, Note_on_c, 2, 65, 0
4, 34019, Note_on_c, 2, 69, 0
4, 34022, Control_c, 2, 11, 77
4, 34022, Note_on_c, 2, 67, 88
4, 34022, Note_on_c, 2, 64, 88
4, 34052, Note_on_c, 2, 64, 0
4, 34052, Note_on_c, 2, 67, 0
4, 34082, Note_on_c, 2, 64, 79
4, 34082, Note_on_c, 2, 67, 79
4, 34112, Note_on_c, 2, 67, 0
4, 34112, Note_on_c, 2, 64, 0
4, 34142, Note_on_c, 2, 67, 76
4, 34142, Note_on_c, 2, 64, 76
4, 34172, Note_on_c, 2, 64, 0
4, 34172, Note_on_c, 2, 67, 0
4, 34202, Note_on_c, 2, 67, 65
4, 34202, Note_on_c, 2, 64, 65
4, 34232, Control_c, 2, 11, 77
4, 34237, Control_c, 2, 11, 74
4, 34245, Control_c, 2, 11, 71
4, 34252, Control_c, 2, 11, 68
4, 34259, Control_c, 2, 11, 65
4, 34262, Note_on_c, 2, 64, 0
4, 34262, Note_on_c, 2, 67, 0
4, 36002, Control_c, 2, 11, 47
4, 36182, Note_on_c, 2, 64, 98
4, 36182, Note_on_c, 2, 67, 98
4, 36242, Note_on_c, 2, 67, 0
4, 36242, Note_on_c, 2, 64, 0
4, 36302, Note_on_c, 2, 64, 98
4, 36302, Control_c, 2, 11, 37
4, 36302, Note_on_c, 2, 67, 98
4, 36320, Control_c, 2, 11, 40
4, 36338, Control_c, 2, 11, 43
4, 36356, Control_c, 2, 11, 46
4, 36362, Note_on_c, 2, 67, 0
4, 36362, Note_on_c, 2, 64, 0
4, 36362, Note_on_c, 2, 69, 98
4, 36362, Note_on_c, 2, 65, 98
4, 36392, Note_on_c, 2, 65, 0
4, 36392, Note_on_c, 2, 69, 0
4, 36422, Note_on_c, 2, 72, 98
4, 36422, Control_c, 2, 11, 42
4, 36434, Control_c, 2, 11, 45
4, 36446, Control_c, 2, 11, 48
4, 36452, Note_on_c, 2, 72, 0
4, 36452, Note_on_c, 2, 71, 98
4, 36458, Control_c, 2, 11, 51
4, 36470, Control_c, 2, 11, 54
4, 36482, Note_on_c, 2, 71, 0
4, 36482, Control_c, 2, 11, 57
4, 36482, Note_on_c, 2, 72, 98
4, 36500, Control_c, 2, 11, 54
4, 36512, Note_on_c, 2, 72, 0
4, 36512, Note_on_c, 2, 69, 98
4, 36518, Control_c, 2, 11, 51
4, 36536, Control_c, 2, 11, 48
4, 36542, Note_on_c, 2, 69, 0
4, 36542, Note_on_c, 2, 65, 98
4, 36554, Control_c, 2, 11, 48
4, 36578, Control_c, 2, 11, 50
4, 36602, Note_on_c, 2, 65, 0
4, 36602, Note_on_c, 2, 72, 98
4, 36602, Control_c, 2, 11, 52
4, 36626, Control_c, 2, 11, 54
4, 36650, Control_c, 2, 11, 56
4, 36662, Note_on_c, 2, 72, 0
4, 36662, Note_on_c, 2, 75, 98
4, 36662, Note_on_c, 2, 72, 98
4, 36674, Control_c, 2, 11, 58
4, 36698, Control_c, 2, 11, 60
4, 36722, Note_on_c, 2, 72, 0
4, 36722, Note_on_c, 2, 75, 0
4, 36722, Note_on_c, 2, 70, 98
4, 36722, Note_on_c, 2, 74, 98
4, 36782, Note_on_c, 2, 74, 0
4, 36782, Note_on_c, 2, 70, 0
4, 36962, Control_c, 2, 11, 47
4, 36962, Note_on_c, 2, 65, 98
4, 36962, Note_on_c, 2, 69, 98
4, 37022, Note_on_c, 2, 69, 0
4, 37022, Note_on_c, 2, 65, 0
4, 37022, Note_on_c, 2, 64, 98
4, 37022, Note_on_c, 2, 70, 98
4, 37082, Note_on_c, 2, 70, 0
4, 37082, Note_on_c, 2, 64, 0
4, 37082, Note_on_c, 2, 69, 98
4, 37082, Note_on_c, 2, 65, 98
4, 37102, Control_c, 2, 11, 47
4, 37106, Control_c, 2, 11, 44
4, 37111, Control_c, 2, 11, 41
4, 37116, Control_c, 2, 11, 38
4, 37120, Control_c, 2, 11, 35
4, 37125, Control_c, 2, 11, 32
4, 37130, Control_c, 2, 11, 29
4, 37134, Control_c, 2, 11, 26
4, 37139, Control_c, 2, 11, 23
4, 37142, Note_on_c, 2, 65, 0
4, 37142, Note_on_c, 2, 69, 0
4, 37802, Control_c, 2, 11, 77
4, 37802, Note_on_c, 2, 65, 58
4, 37847, Note_on_c, 2, 65, 0
4, 37847, Note_on_c, 2, 60, 62
4, 37847, Note_on_c, 2, 72, 62
4, 37858, Note_on_c, 2, 72, 0
4, 37858, Note_on_c, 2, 60, 0
4, 37862, Note_on_c, 2, 72, 74
4, 37862, Note_on_c, 2, 60, 74
4, 38027, Note_on_c, 2, 60, 0
4, 38027, Note_on_c, 2, 72, 0
4, 38027, Note_on_c, 2, 57, 74
4, 38027, Note_on_c, 2, 69, 74
4, 38038, Note_on_c, 2, 69, 0
4, 38038, Note_on_c, 2, 57, 0
4, 38042, Note_on_c, 2, 57, 74
4, 38042, Note_on_c, 2, 69, 74
4, 38207, Note_on_c, 2, 69, 0
4, 38207, Note_on_c, 2, 57, 0
4, 38207, Note_on_c, 2, 69, 74
4, 38207, Note_on_c, 2, 57, 74
4, 38218, Note_on_c, 2, 57, 0
4, 38218, Note_on_c, 2, 69, 0
4, 38222, Note_on_c, 2, 57, 74
4, 38222, Note_on_c, 2, 69, 74
4, 38372, Note_on_c, 2, 69, 0
4, 38372, Note_on_c, 2, 57, 0
4, 38402, Control_c, 2, 11, 86
4, 38402, Note_on_c, 2, 72, 88
4, 38402, Note_on_c, 2, 69, 88
4, 38417, Control_c, 2, 11, 84
4, 38433, Control_c, 2, 11, 81
4, 38449, Control_c, 2, 11, 79
4, 38522, Note_on_c, 2, 69, 0
4, 38522, Note_on_c, 2, 72, 0
4, 38522, Note_on_c, 2, 70, 88
4, 38522, Note_on_c, 2, 74, 88
4, 38552, Note_on_c, 2, 74, 0
4, 38552, Note_on_c, 2, 70, 0
4, 38582, Note_on_c, 2, 71, 88
4, 38582, Control_c, 2, 11, 86
4, 38582, Note_on_c, 2, 74, 88
4, 38597, Control_c, 2, 11, 84
4, 38613, Control_c, 2, 11, 81
4, 38629, Control_c, 2, 11, 79
4, 38702, Note_on_c, 2, 74, 0
4, 38702, Note_on_c, 2, 71, 0
4, 38702, Note_on_c, 2, 76, 88
4, 38702, Note_on_c, 2, 72, 88
4, 38732, Note_on_c, 2, 72, 0
4, 38732, Note_on_c, 2, 76, 0
4, 38762, Control_c, 2, 11, 86
4, 38762, Note_on_c, 2, 76, 88
4, 38762, Note_on_c, 2, 73, 88
4, 38777, Control_c, 2, 11, 84
4, 38793, Control_c, 2, 11, 81
4, 38809, Control_c, 2, 11, 79
4, 38882, Note_on_c, 2, 73, 0
4, 38882, Note_on_c, 2, 76, 0
4, 38882, Control_c, 2, 11, 77
4, 38882, Note_on_c, 2, 74, 88
4, 38897, Control_c, 2, 11, 74
4, 38912, Note_on_c, 2, 74, 0
4, 38913, Control_c, 2, 11, 72
4, 38929, Control_c, 2, 11, 70
4, 38942, Note_on_c, 2, 65, 88
4, 38942, Note_on_c, 2, 69, 88
4, 39002, Note_on_c, 2, 69, 0
4, 39002, Note_on_c, 2, 65, 0
4, 39002, Note_on_c, 2, 67, 88
4, 39002, Note_on_c, 2, 70, 88
4, 39002, Control_c, 2, 11, 65
4, 39013, Control_c, 2, 11, 62
4, 39025, Control_c, 2, 11, 59
4, 39034, Control_c, 2, 11, 56
4, 39043, Control_c, 2, 11, 53
4, 39052, Control_c, 2, 11, 50
4, 39059, Note_on_c, 2, 70, 0
4, 39059, Note_on_c, 2, 67, 0
4, 39061, Control_c, 2, 11, 47
4, 39062, Note_on_c, 2, 65, 88
4, 39062, Note_on_c, 2, 69, 88
4, 39092, Control_c, 2, 11, 47
4, 39097, Control_c, 2, 11, 44
4, 39103, Control_c, 2, 11, 41
4, 39109, Control_c, 2, 11, 38
4, 39115, Control_c, 2, 11, 35
4, 39121, Control_c, 2, 11, 32
4, 39122, Note_on_c, 2, 69, 0
4, 39122, Note_on_c, 2, 65, 0
4, 39302, Note_on_c, 2, 76, 83
4, 39302, Note_on_c, 2, 70, 83
4, 39362, Note_on_c, 2, 70, 0
4, 39362, Note_on_c, 2, 76, 0
4, 39422, Note_on_c, 2, 77, 83
4, 39422, Note_on_c, 2, 69, 83
4, 39482, Note_on_c, 2, 69, 0
4, 39482, Note_on_c, 2, 77, 0
4, 39542, Note_on_c, 2, 77, 83
4, 39542, Note_on_c, 2, 69, 83
4, 39602, Note_on_c, 2, 69, 0
4, 39602, Note_on_c, 2, 77, 0
4, 39662, Note_on_c, 2, 72, 83
4, 39662, Note_on_c, 2, 67, 83
4, 39722, Note_on_c, 2, 67, 0
4, 39722, Note_on_c, 2, 72, 0
4, 39782, Note_on_c, 2, 65, 83
4, 39782, Note_on_c, 2, 72, 83
4, 39842, Note_on_c, 2, 72, 0
4, 39842, Note_on_c, 2, 65, 0
4, 39902, Note_on_c, 2, 72, 83
4, 39902, Note_on_c, 2, 65, 83
4, 39962, Note_on_c, 2, 65, 0
4, 39962, Note_on_c, 2, 72, 0
4, 40022, Note_on_c, 2, 76, 83
4, 40022, Note_on_c, 2, 70, 83
4, 40082, Note_on_c, 2, 70, 0
4, 40082, Note_on_c, 2, 76, 0
4, 40142, Note_on_c, 2, 69, 83
4, 40142, Note_on_c, 2, 77, 83
4, 40202, Note_on_c, 2, 77, 0
4, 40202, Note_on_c, 2, 69, 0
4, 40262, Note_on_c, 2, 77, 83
4, 40262, Note_on_c, 2, 69, 83
4, 40322, Note_on_c, 2, 69, 0
4, 40322, Note_on_c, 2, 77, 0
4, 40382, Note_on_c, 2, 67, 83
4, 40382, Note_on_c, 2, 70, 83
4, 40437, Note_on_c, 2, 70, 0
4, 40437, Note_on_c, 2, 67, 0
4, 40442, Note_on_c, 2, 70, 83
4, 40442, Note_on_c, 2, 67, 83
4, 40497, Note_on_c, 2, 67, 0
4, 40497, Note_on_c, 2, 70, 0
4, 40502, Note_on_c, 2, 65, 70
4, 40502, Note_on_c, 2, 69, 70
4, 40537, Control_c, 2, 11, 37
4, 40544, Control_c, 2, 11, 34
4, 40551, Control_c, 2, 11, 31
4, 40558, Control_c, 2, 11, 28
4, 40562, Note_on_c, 2, 69, 0
4, 40562, Note_on_c, 2, 65, 0
4, 41942, Control_c, 2, 11, 47
4, 41966, Control_c, 2, 11, 48
4, 41990, Control_c, 2, 11, 49
4, 42002, Note_on_c, 2, 72, 98
4, 42014, Control_c, 2, 11, 50
4, 42038, Control_c, 2, 11, 51
4, 42047, Note_on_c, 2, 72, 0
4, 42062, Note_on_c, 2, 72, 98
4, 42062, Control_c, 2, 11, 52
4, 42086, Control_c, 2, 11, 53
4, 42107, Note_on_c, 2, 72, 0
4, 42110, Control_c, 2, 11, 54
4, 42122, Note_on_c, 2, 72, 98
4, 42134, Control_c, 2, 11, 55
4, 42158, Control_c, 2, 11, 56
4, 42182, Control_c, 2, 11, 57
4, 42206, Control_c, 2, 11, 58
4, 42230, Control_c, 2, 11, 59
4, 42242, Note_on_c, 2, 72, 0
4, 42242, Note_on_c, 2, 73, 98
4, 42254, Control_c, 2, 11, 60
4, 42278, Control_c, 2, 11, 61
4, 42297, Note_on_c, 2, 73, 0
4, 42302, Note_on_c, 2, 67, 88
4, 42302, Note_on_c, 2, 74, 88
4, 42302, Control_c, 2, 11, 50
4, 42362, Note_on_c, 2, 74, 0
4, 42362, Note_on_c, 2, 67, 0
4, 42362, Note_on_c, 2, 69, 98
4, 42362, Note_on_c, 2, 66, 98
4, 42422, Note_on_c, 2, 66, 0
4, 42422, Note_on_c, 2, 69, 0
4, 42422, Note_on_c, 2, 70, 98
4, 42422, Note_on_c, 2, 67, 98
4, 42477, Note_on_c, 2, 67, 0
4, 42477, Note_on_c, 2, 70, 0
4, 42482, Note_on_c, 2, 72, 98
4, 42482, Note_on_c, 2, 69, 98
4, 42572, Note_on_c, 2, 72, 0
4, 42572, Note_on_c, 2, 74, 98
4, 42602, Note_on_c, 2, 74, 0
4, 42602, Note_on_c, 2, 69, 0
4, 42602, Note_on_c, 2, 67, 98
4, 42602, Note_on_c, 2, 70, 98
4, 42632, Note_on_c, 2, 70, 0
4, 42632, Note_on_c, 2, 67, 0
4, 42662, Control_c, 2, 11, 50
4, 42662, Note_on_c, 2, 66, 98
4, 42662, Note_on_c, 2, 69, 98
4, 42690, Control_c, 2, 11, 52
4, 42705, Control_c, 2, 11, 53
4, 42707, Note_on_c, 2, 69, 0
4, 42707, Note_on_c, 2, 66, 0
4, 42722, Note_on_c, 2, 74, 98
4, 42734, Control_c, 2, 11, 55
4, 42762, Control_c, 2, 11, 57
4, 42767, Note_on_c, 2, 74, 0
4, 42777, Control_c, 2, 11, 58
4, 42782, Note_on_c, 2, 74, 98
4, 42806, Control_c, 2, 11, 60
4, 42827, Note_on_c, 2, 74, 0
4, 42834, Control_c, 2, 11, 62
4, 42842, Note_on_c, 2, 74, 98
4, 42849, Control_c, 2, 11, 62
4, 42878, Control_c, 2, 11, 63
4, 42902, Note_on_c, 2, 74, 0
4, 42902, Note_on_c, 2, 75, 98
4, 42906, Control_c, 2, 11, 65
4, 42921, Control_c, 2, 11, 65
4, 42950, Control_c, 2, 11, 66
4, 42962, Note_on_c, 2, 75, 0
4, 42962, Note_on_c, 2, 76, 98
4, 42978, Control_c, 2, 11, 68
4, 42993, Control_c, 2, 11, 68
4, 43017, Note_on_c, 2, 76, 0
4, 43022, Note_on_c, 2, 70, 59
4, 43022, Note_on_c, 2, 77, 59
4, 43022, Control_c, 2, 11, 77
4, 43082, Note_on_c, 2, 77, 0
4, 43082, Note_on_c, 2, 70, 0
4, 43082, Note_on_c, 2, 77, 69
4, 43082, Note_on_c, 2, 72, 69
4, 43142, Note_on_c, 2, 72, 0
4, 43142, Note_on_c, 2, 77, 0
4, 43142, Note_on_c, 2, 74, 81
4, 43142, Note_on_c, 2, 77, 81
4, 43197, Note_on_c, 2, 77, 0
4, 43197, Note_on_c, 2, 74, 0
4, 43202, Control_c, 2, 11, 89
4, 43202, Note_on_c, 2, 75, 88
4, 43202, Note_on_c, 2, 72, 88
4, 43217, Control_c, 2, 11, 86
4, 43232, Control_c, 2, 11, 83
4, 43247, Control_c, 2, 11, 80
4, 43262, Control_c, 2, 11, 77
4, 43292, Note_on_c, 2, 75, 0
4, 43292, Note_on_c, 2, 77, 88
4, 43322, Note_on_c, 2, 77, 0
4, 43322, Note_on_c, 2, 72, 0
4, 43322, Note_on_c, 2, 74, 88
4, 43352, Note_on_c, 2, 74, 0
4, 43382, Note_on_c, 2, 69, 88
4, 43382, Control_c, 2, 11, 89
4, 43382, Note_on_c, 2, 72, 88
4, 43397, Control_c, 2, 11, 86
4, 43412, Control_c, 2, 11, 83
4, 43427, Control_c, 2, 11, 80
4, 43442, Control_c, 2, 11, 77
4, 43472, Note_on_c, 2, 72, 0
4, 43472, Note_on_c, 2, 74, 88
4, 43502, Note_on_c, 2, 74, 0
4, 43502, Note_on_c, 2, 69, 0
4, 43502, Note_on_c, 2, 71, 88
4, 43502, Note_on_c, 2, 67, 88
4, 43532, Note_on_c, 2, 67, 0
4, 43532, Note_on_c, 2, 71, 0
4, 43562, Control_c, 2, 11, 89
4, 43562, Note_on_c, 2, 67, 88
4, 43562, Note_on_c, 2, 70, 88
4, 43577, Control_c, 2, 11, 86
4, 43592, Control_c, 2, 11, 83
4, 43607, Control_c, 2, 11, 80
4, 43622, Control_c, 2, 11, 77
4, 43652, Note_on_c, 2, 70, 0
4, 43652, Note_on_c, 2, 72, 88
4, 43682, Note_on_c, 2, 72, 0
4, 43682, Note_on_c, 2, 67, 0
4, 43682, Note_on_c, 2, 65, 88
4, 43682, Note_on_c, 2, 69, 88
4, 43712, Note_on_c, 2, 69, 0
4, 43712, Note_on_c, 2, 65, 0
4, 43742, Note_on_c, 2, 62, 98
4, 43742, Note_on_c, 2, 67, 98
4, 43802, Note_on_c, 2, 67, 0
4, 43802, Note_on_c, 2, 62, 0
4, 43802, Note_on_c, 2, 66, 98
4, 43802, Note_on_c, 2, 69, 98
4, 43862, Note_on_c, 2, 69, 0
4, 43862, Note_on_c, 2, 66, 0
4, 43862, Note_on_c, 2, 67, 98
4, 43862, Note_on_c, 2, 70, 98
4, 43917, Note_on_c, 2, 70, 0
4, 43917, Note_on_c, 2, 67, 0
4, 43922, Note_on_c, 2, 65, 98
4, 43922, Note_on_c, 2, 69, 98
4, 44162, Note_on_c, 2, 69, 0
4, 44162, Note_on_c, 2, 65, 0
4, 44162, Note_on_c, 2, 67, 90
4, 44162, Note_on_c, 2, 70, 90
4, 44222, Note_on_c, 2, 70, 0
4, 44222, Note_on_c, 2, 67, 0
4, 44222, Note_on_c, 2, 64, 90
4, 44222, Note_on_c, 2, 67, 90
4, 44262, Control_c, 2, 11, 77
4, 44264, Control_c, 2, 11, 74
4, 44266, Control_c, 2, 11, 71
4, 44268, Control_c, 2, 11, 68
4, 44270, Control_c, 2, 11, 65
4, 44272, Control_c, 2, 11, 62
4, 44274, Control_c, 2, 11, 59
4, 44276, Control_c, 2, 11, 56
4, 44277, Note_on_c, 2, 67, 0
4, 44277, Note_on_c, 2, 64, 0
4, 44278, Control_c, 2, 11, 53
4, 44280, Control_c, 2, 11, 50
4, 44282, Control_c, 2, 11, 47
4, 44282, Note_on_c, 2, 69, 93
4, 44282, Note_on_c, 2, 65, 93
4, 44342, Note_on_c, 2, 65, 0
4, 44342, Note_on_c, 2, 69, 0
4, 44882, Note_on_c, 2, 67, 98
4, 44882, Note_on_c, 2, 70, 98
4, 44921, Note_on_c, 2, 70, 0
4, 44921, Note_on_c, 2, 67, 0
4, 44942, Note_on_c, 2, 70, 98
4, 44942, Note_on_c, 2, 67, 98
4, 45002, Note_on_c, 2, 67, 0
4, 45002, Note_on_c, 2, 70, 0
4, 45002, Note_on_c, 2, 69, 98
4, 45002, Note_on_c, 2, 65, 98
4, 45062, Note_on_c, 2, 65, 0
4, 45062, Note_on_c, 2, 69, 0
4, 45362, Note_on_c, 2, 72, 98
4, 45362, Note_on_c, 2, 60, 98
4, 45597, Note_on_c, 2, 60, 0
4, 45597, Note_on_c, 2, 72, 0
4, 45602, Note_on_c, 2, 67, 98
4, 45602, Note_on_c, 2, 70, 98
4, 45641, Note_on_c, 2, 70, 0
4, 45641, Note_on_c, 2, 67, 0
4, 45662, Note_on_c, 2, 67, 98
4, 45662, Note_on_c, 2, 70, 98
4, 45722, Note_on_c, 2, 70, 0
4, 45722, Note_on_c, 2, 67, 0
4, 45722, Note_on_c, 2, 65, 98
4, 45722, Note_on_c, 2, 69, 98
4, 45742, Control_c, 2, 11, 47
4, 45747, Control_c, 2, 11, 44
4, 45753, Control_c, 2, 11, 41
4, 45759, Control_c, 2, 11, 38
4, 45765, Control_c, 2, 11, 35
4, 45771, Control_c, 2, 11, 32
4, 45777, Control_c, 2, 11, 29
4, 45782, Note_on_c, 2, 69, 0
4, 45782, Note_on_c, 2, 65, 0
4, 46382, Note_on_c, 2, 76, 108
4, 46382, Note_on_c, 2, 70, 108
4, 46382, Control_c, 2, 11, 62
4, 46386, Control_c, 2, 11, 65
4, 46390, Control_c, 2, 11, 68
4, 46394, Control_c, 2, 11, 71
4, 46398, Control_c, 2, 11, 74
4, 46402, Control_c, 2, 11, 77
4, 46442, Note_on_c, 2, 70, 0
4, 46442, Note_on_c, 2, 76, 0
4, 46442, Note_on_c, 2, 69, 98
4, 46442, Note_on_c, 2, 77, 98
4, 46472, Note_on_c, 2, 77, 0
4, 46472, Note_on_c, 2, 69, 0
4, 46502, Control_c, 2, 11, 42
4, 46502, Note_on_c, 2, 60, 88
4, 46502, Note_on_c, 2, 69, 88
4, 46532, Note_on_c, 2, 69, 0
4, 46532, Note_on_c, 2, 60, 0
4, 46562, Note_on_c, 2, 69, 79
4, 46562, Note_on_c, 2, 60, 79
4, 46592, Note_on_c, 2, 60, 0
4, 46592, Note_on_c, 2, 69, 0
4, 46622, Note_on_c, 2, 65, 62
4, 46622, Note_on_c, 2, 57, 62
4, 46702, Control_c, 2, 11, 42
4, 46708, Control_c, 2, 11, 39
4, 46714, Control_c, 2, 11, 36
4, 46720, Control_c, 2, 11, 33
4, 46726, Control_c, 2, 11, 30
4, 46732, Control_c, 2, 11, 27
4, 46738, Control_c, 2, 11, 24
4, 46742, Note_on_c, 2, 57, 0
4, 46742, Note_on_c, 2, 65, 0
4, 46982, Control_c, 2, 121, 0
4, 46982, End_track
5, 0, Start_track
5, 0, MIDI_port, 0
5, 0, Title_t, "2 Fagotti"
5, 0, Program_c, 3, 70
5, 0, Control_c, 3, 10, 80
5, 5, Control_c, 3, 121, 0
5, 10, Program_c, 3, 70
5, 15, Pitch_bend_c, 3, 8192
5, 20, Control_c, 3, 11, 47
5, 25, Control_c, 3, 7, 127
5, 30, Control_c, 3, 91, 67
5, 35, Control_c, 3, 93, 0
5, 40, Control_c, 3, 10, 80
5, 1925, Control_c, 3, 11, 42
5, 1925, Note_on_c, 3, 43, 100
5, 1943, Control_c, 3, 11, 45
5, 1961, Control_c, 3, 11, 48
5, 1979, Control_c, 3, 11, 51
5, 1985, Note_on_c, 3, 43, 0
5, 1985, Note_on_c, 3, 48, 100
5, 2024, Note_on_c, 3, 48, 0
5, 2045, Note_on_c, 3, 48, 100
5, 2084, Note_on_c, 3, 48, 0
5, 2105, Note_on_c, 3, 48, 100
5, 2165, Note_on_c, 3, 52, 100
5, 2183, Note_on_c, 3, 48, 0
5, 2204, Note_on_c, 3, 52, 0
5, 2225, Note_on_c, 3, 52, 100
5, 2264, Note_on_c, 3, 52, 0
5, 2285, Note_on_c, 3, 55, 100
5, 2345, Note_on_c, 3, 55, 0
5, 2345, Note_on_c, 3, 53, 100
5, 2384, Note_on_c, 3, 53, 0
5, 2405, Note_on_c, 3, 57, 100
5, 2405, Note_on_c, 3, 53, 100
5, 2465, Note_on_c, 3, 53, 0
5, 2465, Note_on_c, 3, 57, 0
5, 2465, Note_on_c, 3, 60, 100
5, 2465, Note_on_c, 3, 57, 100
5, 2525, Note_on_c, 3, 57, 0
5, 2525, Note_on_c, 3, 60, 0
5, 2585, Note_on_c, 3, 60, 100
5, 2585, Note_on_c, 3, 57, 100
5, 2640, Note_on_c, 3, 57, 0
5, 2645, Note_on_c, 3, 60, 0
5, 2645, Note_on_c, 3, 65, 100
5, 2645, Note_on_c, 3, 57, 100
5, 2700, Note_on_c, 3, 57, 0
5, 2700, Note_on_c, 3, 65, 0
5, 2705, Note_on_c, 3, 64, 100
5, 2705, Note_on_c, 3, 58, 100
5, 2760, Note_on_c, 3, 58, 0
5, 2760, Note_on_c, 3, 64, 0
5, 2765, Note_on_c, 3, 64, 100
5, 2765, Note_on_c, 3, 58, 100
5, 2820, Note_on_c, 3, 58, 0
5, 2820, Note_on_c, 3, 64, 0
5, 2825, Note_on_c, 3, 64, 100
5, 2825, Note_on_c, 3, 58, 100
5, 2880, Note_on_c, 3, 58, 0
5, 2880, Note_on_c, 3, 64, 0
5, 2885, Note_on_c, 3, 64, 100
5, 2885, Note_on_c, 3, 58, 100
5, 2945, Control_c, 3, 11, 42
5, 2960, Control_c, 3, 11, 43
5, 2975, Control_c, 3, 11, 44
5, 2990, Control_c, 3, 11, 45
5, 3000, Note_on_c, 3, 58, 0
5, 3000, Note_on_c, 3, 64, 0
5, 3005, Control_c, 3, 11, 46
5, 3005, Note_on_c, 3, 58, 100
5, 3005, Note_on_c, 3, 60, 100
5, 3020, Control_c, 3, 11, 47
5, 3035, Control_c, 3, 11, 48
5, 3050, Control_c, 3, 11, 49
5, 3065, Note_on_c, 3, 58, 0
5, 3065, Control_c, 3, 11, 50
5, 3065, Note_on_c, 3, 57, 100
5, 3080, Control_c, 3, 11, 51
5, 3095, Control_c, 3, 11, 52
5, 3110, Control_c, 3, 11, 53
5, 3125, Note_on_c, 3, 57, 0
5, 3125, Note_on_c, 3, 60, 0
5, 3125, Control_c, 3, 11, 54
5, 3125, Note_on_c, 3, 64, 100
5, 3125, Note_on_c, 3, 55, 100
5, 3140, Control_c, 3, 11, 55
5, 3155, Control_c, 3, 11, 56
5, 3170, Control_c, 3, 11, 57
5, 3185, Note_on_c, 3, 55, 0
5, 3185, Note_on_c, 3, 64, 0
5, 3185, Control_c, 3, 11, 58
5, 3185, Note_on_c, 3, 65, 100
5, 3185, Note_on_c, 3, 53, 100
5, 3200, Control_c, 3, 11, 59
5, 3215, Control_c, 3, 11, 60
5, 3230, Control_c, 3, 11, 61
5, 3245, Note_on_c, 3, 53, 0
5, 3245, Note_on_c, 3, 65, 0
5, 3245, Control_c, 3, 11, 62
5, 3245, Note_on_c, 3, 58, 100
5, 3245, Note_on_c, 3, 55, 100
5, 3365, Note_on_c, 3, 55, 0
5, 3365, Note_on_c, 3, 58, 0
5, 3365, Note_on_c, 3, 53, 100
5, 3365, Note_on_c, 3, 57, 100
5, 3420, Note_on_c, 3, 57, 0
5, 3420, Note_on_c, 3, 53, 0
5, 3425, Note_on_c, 3, 52, 100
5, 3425, Note_on_c, 3, 55, 100
5, 3485, Note_on_c, 3, 55, 0
5, 3485, Note_on_c, 3, 52, 0
5, 3545, Note_on_c, 3, 55, 100
5, 3545, Note_on_c, 3, 52, 100
5, 3605, Note_on_c, 3, 52, 0
5, 3605, Note_on_c, 3, 55, 0
5, 3605, Note_on_c, 3, 57, 100
5, 3605, Note_on_c, 3, 53, 100
5, 3665, Note_on_c, 3, 53, 0
5, 3665, Note_on_c, 3, 57, 0
5, 3725, Note_on_c, 3, 53, 100
5, 3725, Note_on_c, 3, 57, 100
5, 3725, Control_c, 3, 11, 56
5, 3728, Control_c, 3, 11, 60
5, 3731, Control_c, 3, 11, 63
5, 3734, Control_c, 3, 11, 66
5, 3737, Control_c, 3, 11, 70
5, 3753, Control_c, 3, 11, 67
5, 3761, Control_c, 3, 11, 64
5, 3770, Control_c, 3, 11, 61
5, 3780, Control_c, 3, 11, 58
5, 3785, Note_on_c, 3, 57, 0
5, 3785, Note_on_c, 3, 53, 0
5, 3785, Note_on_c, 3, 55, 100
5, 3785, Note_on_c, 3, 52, 100
5, 3845, Note_on_c, 3, 52, 0
5, 3845, Note_on_c, 3, 55, 0
5, 3905, Note_on_c, 3, 52, 100
5, 3905, Note_on_c, 3, 55, 100
5, 3965, Note_on_c, 3, 55, 0
5, 3965, Note_on_c, 3, 52, 0
5, 3965, Note_on_c, 3, 57, 100
5, 3965, Control_c, 3, 11, 62
5, 3965, Note_on_c, 3, 53, 100
5, 4025, Note_on_c, 3, 53, 0
5, 4025, Note_on_c, 3, 57, 0
5, 4085, Control_c, 3, 11, 62
5, 4085, Note_on_c, 3, 53, 100
5, 4085, Note_on_c, 3, 57, 100
5, 4088, Control_c, 3, 11, 66
5, 4091, Control_c, 3, 11, 69
5, 4094, Control_c, 3, 11, 72
5, 4097, Control_c, 3, 11, 76
5, 4113, Control_c, 3, 11, 73
5, 4121, Control_c, 3, 11, 70
5, 4130, Control_c, 3, 11, 67
5, 4140, Control_c, 3, 11, 64
5, 4145, Note_on_c, 3, 57, 0
5, 4145, Note_on_c, 3, 53, 0
5, 4145, Note_on_c, 3, 52, 100
5, 4145, Note_on_c, 3, 55, 100
5, 4200, Note_on_c, 3, 55, 0
5, 4200, Note_on_c, 3, 52, 0
5, 4205, Note_on_c, 3, 52, 100
5, 4205, Note_on_c, 3, 55, 100
5, 4265, Note_on_c, 3, 55, 0
5, 4265, Note_on_c, 3, 52, 0
5, 4265, Note_on_c, 3, 57, 100
5, 4265, Control_c, 3, 11, 68
5, 4265, Note_on_c, 3, 53, 100
5, 4268, Control_c, 3, 11, 72
5, 4271, Control_c, 3, 11, 75
5, 4274, Control_c, 3, 11, 78
5, 4277, Control_c, 3, 11, 82
5, 4293, Control_c, 3, 11, 79
5, 4301, Control_c, 3, 11, 76
5, 4310, Control_c, 3, 11, 73
5, 4320, Control_c, 3, 11, 70
5, 4325, Note_on_c, 3, 53, 0
5, 4325, Note_on_c, 3, 57, 0
5, 4325, Note_on_c, 3, 55, 100
5, 4325, Note_on_c, 3, 52, 100
5, 4355, Note_on_c, 3, 52, 0
5, 4355, Note_on_c, 3, 55, 0
5, 4385, Note_on_c, 3, 55, 100
5, 4385, Note_on_c, 3, 52, 100
5, 4445, Note_on_c, 3, 52, 0
5, 4445, Note_on_c, 3, 55, 0
5, 4445, Note_on_c, 3, 57, 100
5, 4445, Note_on_c, 3, 53, 100
5, 4445, Control_c, 3, 11, 89
5, 4461, Control_c, 3, 11, 86
5, 4478, Control_c, 3, 11, 83
5, 4494, Control_c, 3, 11, 80
5, 4505, Note_on_c, 3, 53, 0
5, 4505, Note_on_c, 3, 57, 0
5, 4505, Control_c, 3, 11, 87
5, 4505, Note_on_c, 3, 52, 90
5, 4505, Note_on_c, 3, 55, 90
5, 4544, Note_on_c, 3, 55, 0
5, 4544, Note_on_c, 3, 52, 0
5, 4565, Note_on_c, 3, 60, 81
5, 4565, Note_on_c, 3, 48, 81
5, 4604, Note_on_c, 3, 48, 0
5, 4604, Note_on_c, 3, 60, 0
5, 4625, Note_on_c, 3, 60, 78
5, 4625, Note_on_c, 3, 48, 78
5, 4664, Note_on_c, 3, 48, 0
5, 4664, Note_on_c, 3, 60, 0
5, 4685, Note_on_c, 3, 48, 67
5, 4720, Control_c, 3, 11, 87
5, 4722, Control_c, 3, 11, 84
5, 4725, Control_c, 3, 11, 81
5, 4728, Control_c, 3, 11, 78
5, 4731, Control_c, 3, 11, 75
5, 4734, Control_c, 3, 11, 72
5, 4737, Control_c, 3, 11, 69
5, 4740, Control_c, 3, 11, 66
5, 4743, Control_c, 3, 11, 63
5, 4745, Note_on_c, 3, 48, 0
5, 5585, Control_c, 3, 11, 52
5, 5585, Note_on_c, 3, 52, 100
5, 5624, Note_on_c, 3, 52, 0
5, 5645, Note_on_c, 3, 64, 100
5, 5695, Note_on_c, 3, 64, 0
5, 5705, Note_on_c, 3, 64, 100
5, 5755, Note_on_c, 3, 64, 0
5, 5765, Note_on_c, 3, 64, 100
5, 5825, Note_on_c, 3, 64, 0
5, 5825, Note_on_c, 3, 62, 100
5, 5885, Note_on_c, 3, 62, 0
5, 5885, Note_on_c, 3, 60, 100
5, 5940, Note_on_c, 3, 60, 0
5, 5945, Note_on_c, 3, 59, 100
5, 6005, Note_on_c, 3, 59, 0
5, 6005, Note_on_c, 3, 55, 100
5, 6065, Note_on_c, 3, 55, 0
5, 6065, Note_on_c, 3, 60, 100
5, 6120, Note_on_c, 3, 60, 0
5, 6125, Note_on_c, 3, 55, 100
5, 6180, Note_on_c, 3, 55, 0
5, 6185, Note_on_c, 3, 67, 75
5, 6240, Note_on_c, 3, 67, 0
5, 6425, Note_on_c, 3, 67, 100
5, 6425, Note_on_c, 3, 64, 100
5, 6485, Note_on_c, 3, 64, 0
5, 6485, Note_on_c, 3, 67, 0
5, 6485, Note_on_c, 3, 62, 100
5, 6485, Note_on_c, 3, 65, 100
5, 6545, Note_on_c, 3, 65, 0
5, 6545, Note_on_c, 3, 62, 0
5, 6785, Note_on_c, 3, 62, 100
5, 6785, Note_on_c, 3, 65, 100
5, 6845, Note_on_c, 3, 65, 0
5, 6845, Note_on_c, 3, 62, 0
5, 6845, Note_on_c, 3, 60, 100
5, 6845, Note_on_c, 3, 64, 100
5, 6884, Note_on_c, 3, 64, 0
5, 6884, Note_on_c, 3, 60, 0
5, 6905, Control_c, 3, 11, 52
5, 6905, Note_on_c, 3, 67, 100
5, 6917, Control_c, 3, 11, 55
5, 6929, Control_c, 3, 11, 58
5, 6935, Note_on_c, 3, 67, 0
5, 6935, Note_on_c, 3, 66, 100
5, 6941, Control_c, 3, 11, 61
5, 6953, Control_c, 3, 11, 64
5, 6965, Note_on_c, 3, 66, 0
5, 6965, Control_c, 3, 11, 67
5, 6965, Note_on_c, 3, 67, 100
5, 6977, Control_c, 3, 11, 64
5, 6989, Control_c, 3, 11, 61
5, 6995, Note_on_c, 3, 67, 0
5, 6995, Note_on_c, 3, 64, 100
5, 7001, Control_c, 3, 11, 58
5, 7013, Control_c, 3, 11, 55
5, 7020, Note_on_c, 3, 64, 0
5, 7025, Control_c, 3, 11, 52
5, 7025, Note_on_c, 3, 60, 100
5, 7025, Note_on_c, 3, 55, 100
5, 7049, Control_c, 3, 11, 54
5, 7073, Control_c, 3, 11, 56
5, 7085, Note_on_c, 3, 55, 0
5, 7085, Note_on_c, 3, 60, 0
5, 7085, Note_on_c, 3, 60, 100
5, 7085, Note_on_c, 3, 55, 100
5, 7097, Control_c, 3, 11, 58
5, 7121, Control_c, 3, 11, 60
5, 7145, Note_on_c, 3, 55, 0
5, 7145, Note_on_c, 3, 60, 0
5, 7145, Control_c, 3, 11, 62
5, 7145, Note_on_c, 3, 61, 100
5, 7145, Note_on_c, 3, 58, 100
5, 7169, Control_c, 3, 11, 64
5, 7193, Control_c, 3, 11, 66
5, 7200, Note_on_c, 3, 58, 0
5, 7200, Note_on_c, 3, 61, 0
5, 7205, Note_on_c, 3, 57, 100
5, 7205, Note_on_c, 3, 62, 100
5, 7265, Note_on_c, 3, 62, 0
5, 7265, Note_on_c, 3, 57, 0
5, 7445, Control_c, 3, 11, 52
5, 7445, Note_on_c, 3, 60, 100
5, 7445, Note_on_c, 3, 55, 100
5, 7505, Note_on_c, 3, 55, 0
5, 7505, Note_on_c, 3, 60, 0
5, 7505, Note_on_c, 3, 62, 100
5, 7505, Note_on_c, 3, 55, 100
5, 7560, Note_on_c, 3, 55, 0
5, 7560, Note_on_c, 3, 62, 0
5, 7565, Note_on_c, 3, 60, 100
5, 7565, Note_on_c, 3, 48, 100
5, 7625, Note_on_c, 3, 48, 0
5, 7625, Note_on_c, 3, 60, 0
5, 8285, Control_c, 3, 11, 72
5, 8285, Note_on_c, 3, 48, 67
5, 8285, Note_on_c, 3, 60, 67
5, 8315, Note_on_c, 3, 60, 0
5, 8315, Note_on_c, 3, 48, 0
5, 8330, Note_on_c, 3, 67, 90
5, 8330, Note_on_c, 3, 55, 90
5, 8338, Note_on_c, 3, 55, 0
5, 8338, Note_on_c, 3, 67, 0
5, 8345, Control_c, 3, 11, 87
5, 8345, Note_on_c, 3, 55, 90
5, 8345, Note_on_c, 3, 67, 90
5, 8505, Note_on_c, 3, 67, 0
5, 8505, Note_on_c, 3, 55, 0
5, 8510, Note_on_c, 3, 64, 90
5, 8510, Note_on_c, 3, 52, 90
5, 8518, Note_on_c, 3, 52, 0
5, 8518, Note_on_c, 3, 64, 0
5, 8525, Note_on_c, 3, 52, 90
5, 8525, Note_on_c, 3, 64, 90
5, 8685, Note_on_c, 3, 64, 0
5, 8685, Note_on_c, 3, 52, 0
5, 8690, Note_on_c, 3, 64, 90
5, 8690, Note_on_c, 3, 52, 90
5, 8698, Note_on_c, 3, 52, 0
5, 8698, Note_on_c, 3, 64, 0
5, 8705, Note_on_c, 3, 52, 90
5, 8705, Note_on_c, 3, 64, 90
5, 8880, Note_on_c, 3, 64, 0
5, 8880, Note_on_c, 3, 52, 0
5, 8885, Note_on_c, 3, 60, 90
5, 8885, Note_on_c, 3, 58, 90
5, 8885, Control_c, 3, 11, 107
5, 8893, Control_c, 3, 11, 104
5, 8902, Control_c, 3, 11, 101
5, 8911, Control_c, 3, 11, 98
5, 8920, Control_c, 3, 11, 95
5, 8929, Control_c, 3, 11, 92
5, 8938, Control_c, 3, 11, 89
5, 9005, Note_on_c, 3, 58, 0
5, 9005, Note_on_c, 3, 57, 90
5, 9035, Note_on_c, 3, 57, 0
5, 9035, Note_on_c, 3, 60, 0
5, 9065, Note_on_c, 3, 62, 90
5, 9065, Control_c, 3, 11, 107
5, 9065, Note_on_c, 3, 60, 90
5, 9073, Control_c, 3, 11, 104
5, 9082, Control_c, 3, 11, 101
5, 9091, Control_c, 3, 11, 98
5, 9100, Control_c, 3, 11, 95
5, 9109, Control_c, 3, 11, 92
5, 9118, Control_c, 3, 11, 89
5, 9185, Note_on_c, 3, 60, 0
5, 9185, Note_on_c, 3, 59, 90
5, 9215, Note_on_c, 3, 59, 0
5, 9215, Note_on_c, 3, 62, 0
5, 9245, Note_on_c, 3, 59, 90
5, 9245, Control_c, 3, 11, 107
5, 9245, Note_on_c, 3, 62, 90
5, 9253, Control_c, 3, 11, 104
5, 9262, Control_c, 3, 11, 101
5, 9271, Control_c, 3, 11, 98
5, 9280, Control_c, 3, 11, 95
5, 9289, Control_c, 3, 11, 92
5, 9298, Control_c, 3, 11, 89
5, 9365, Note_on_c, 3, 59, 0
5, 9365, Note_on_c, 3, 57, 100
5, 9365, Control_c, 3, 11, 87
5, 9374, Control_c, 3, 11, 84
5, 9383, Control_c, 3, 11, 81
5, 9392, Control_c, 3, 11, 78
5, 9401, Control_c, 3, 11, 75
5, 9410, Control_c, 3, 11, 72
5, 9419, Control_c, 3, 11, 69
5, 9420, Note_on_c, 3, 57, 0
5, 9420, Note_on_c, 3, 62, 0
5, 9425, Note_on_c, 3, 55, 100
5, 9425, Note_on_c, 3, 60, 100
5, 9485, Note_on_c, 3, 60, 0
5, 9485, Note_on_c, 3, 55, 0
5, 9485, Control_c, 3, 11, 67
5, 9485, Note_on_c, 3, 62, 80
5, 9485, Note_on_c, 3, 55, 80
5, 9485, Control_c, 3, 11, 72
5, 9491, Control_c, 3, 11, 66
5, 9493, Control_c, 3, 11, 70
5, 9497, Control_c, 3, 11, 65
5, 9501, Control_c, 3, 11, 68
5, 9503, Control_c, 3, 11, 64
5, 9505, Control_c, 3, 11, 67
5, 9509, Control_c, 3, 11, 63
5, 9525, Control_c, 3, 11, 62
5, 9533, Control_c, 3, 11, 59
5, 9540, Note_on_c, 3, 55, 0
5, 9540, Note_on_c, 3, 62, 0
5, 9545, Note_on_c, 3, 60, 64
5, 9545, Note_on_c, 3, 48, 64
5, 9575, Control_c, 3, 11, 57
5, 9579, Control_c, 3, 11, 54
5, 9583, Control_c, 3, 11, 51
5, 9588, Control_c, 3, 11, 48
5, 9592, Control_c, 3, 11, 45
5, 9596, Control_c, 3, 11, 42
5, 9601, Control_c, 3, 11, 39
5, 9605, Note_on_c, 3, 48, 0
5, 9605, Note_on_c, 3, 60, 0
5, 9785, Control_c, 3, 11, 37
5, 9785, Note_on_c, 3, 55, 100
5, 9785, Note_on_c, 3, 59, 100
5, 9845, Note_on_c, 3, 59, 0
5, 9845, Note_on_c, 3, 55, 0
5, 9905, Note_on_c, 3, 60, 100
5, 9905, Note_on_c, 3, 55, 100
5, 9965, Note_on_c, 3, 55, 0
5, 9965, Note_on_c, 3, 60, 0
5, 10025, Note_on_c, 3, 60, 100
5, 10025, Note_on_c, 3, 55, 100
5, 10085, Note_on_c, 3, 55, 0
5, 10085, Note_on_c, 3, 60, 0
5, 10145, Note_on_c, 3, 62, 100
5, 10145, Note_on_c, 3, 55, 100
5, 10205, Note_on_c, 3, 55, 0
5, 10205, Note_on_c, 3, 62, 0
5, 10265, Note_on_c, 3, 60, 100
5, 10265, Note_on_c, 3, 55, 100
5, 10325, Note_on_c, 3, 55, 0
5, 10325, Note_on_c, 3, 60, 0
5, 10385, Note_on_c, 3, 60, 100
5, 10385, Note_on_c, 3, 55, 100
5, 10445, Note_on_c, 3, 55, 0
5, 10445, Note_on_c, 3, 60, 0
5, 10505, Note_on_c, 3, 59, 100
5, 10505, Note_on_c, 3, 55, 100
5, 10565, Note_on_c, 3, 55, 0
5, 10565, Note_on_c, 3, 59, 0
5, 10625, Note_on_c, 3, 60, 100
5, 10625, Note_on_c, 3, 55, 100
5, 10685, Note_on_c, 3, 55, 0
5, 10685, Note_on_c, 3, 60, 0
5, 10745, Note_on_c, 3, 60, 100
5, 10745, Note_on_c, 3, 55, 100
5, 10805, Note_on_c, 3, 55, 0
5, 10805, Note_on_c, 3, 60, 0
5, 10865, Note_on_c, 3, 62, 100
5, 10865, Note_on_c, 3, 55, 100
5, 10925, Note_on_c, 3, 55, 0
5, 10925, Note_on_c, 3, 62, 0
5, 10925, Note_on_c, 3, 62, 100
5, 10925, Note_on_c, 3, 55, 100
5, 10985, Note_on_c, 3, 55, 0
5, 10985, Note_on_c, 3, 62, 0
5, 10985, Note_on_c, 3, 60, 85
5, 10985, Note_on_c, 3, 48, 85
5, 11020, Control_c, 3, 11, 37
5, 11027, Control_c, 3, 11, 34
5, 11034, Control_c, 3, 11, 31
5, 11041, Control_c, 3, 11, 28
5, 11045, Note_on_c, 3, 48, 0
5, 11045, Note_on_c, 3, 60, 0
5, 11285, Control_c, 3, 11, 37
5, 11285, Note_on_c, 3, 43, 85
5, 11285, Note_on_c, 3, 55, 85
5, 11303, Control_c, 3, 11, 40
5, 11321, Control_c, 3, 11, 43
5, 11339, Control_c, 3, 11, 46
5, 11345, Note_on_c, 3, 55, 0
5, 11345, Note_on_c, 3, 43, 0
5, 11345, Note_on_c, 3, 48, 100
5, 11345, Note_on_c, 3, 60, 100
5, 11375, Note_on_c, 3, 60, 0
5, 11375, Note_on_c, 3, 48, 0
5, 11405, Note_on_c, 3, 55, 95
5, 11405, Note_on_c, 3, 52, 95
5, 11435, Note_on_c, 3, 52, 0
5, 11435, Note_on_c, 3, 55, 0
5, 11465, Note_on_c, 3, 55, 81
5, 11465, Note_on_c, 3, 52, 81
5, 11495, Note_on_c, 3, 52, 0
5, 11495, Note_on_c, 3, 55, 0
5, 11525, Note_on_c, 3, 48, 68
5, 11525, Note_on_c, 3, 52, 68
5, 11560, Control_c, 3, 11, 47
5, 11567, Control_c, 3, 11, 44
5, 11574, Control_c, 3, 11, 41
5, 11581, Control_c, 3, 11, 38
5, 11585, Note_on_c, 3, 52, 0
5, 11585, Note_on_c, 3, 48, 0
5, 13445, Control_c, 3, 11, 42
5, 13445, Note_on_c, 3, 43, 100
5, 13463, Control_c, 3, 11, 45
5, 13481, Control_c, 3, 11, 48
5, 13499, Control_c, 3, 11, 51
5, 13505, Note_on_c, 3, 43, 0
5, 13505, Note_on_c, 3, 48, 100
5, 13544, Note_on_c, 3, 48, 0
5, 13565, Note_on_c, 3, 48, 100
5, 13604, Note_on_c, 3, 48, 0
5, 13625, Note_on_c, 3, 48, 100
5, 13685, Note_on_c, 3, 52, 100
5, 13703, Note_on_c, 3, 48, 0
5, 13724, Note_on_c, 3, 52, 0
5, 13745, Note_on_c, 3, 52, 100
5, 13784, Note_on_c, 3, 52, 0
5, 13805, Note_on_c, 3, 55, 100
5, 13865, Note_on_c, 3, 55, 0
5, 13865, Note_on_c, 3, 53, 100
5, 13904, Note_on_c, 3, 53, 0
5, 13925, Note_on_c, 3, 57, 100
5, 13925, Note_on_c, 3, 53, 100
5, 13985, Note_on_c, 3, 53, 0
5, 13985, Note_on_c, 3, 57, 0
5, 13985, Note_on_c, 3, 60, 100
5, 13985, Note_on_c, 3, 57, 100
5, 14045, Note_on_c, 3, 57, 0
5, 14045, Note_on_c, 3, 60, 0
5, 14105, Note_on_c, 3, 60, 100
5, 14105, Note_on_c, 3, 57, 100
5, 14160, Note_on_c, 3, 57, 0
5, 14165, Note_on_c, 3, 60, 0
5, 14165, Note_on_c, 3, 65, 100
5, 14165, Note_on_c, 3, 57, 100
5, 14220, Note_on_c, 3, 57, 0
5, 14220, Note_on_c, 3, 65, 0
5, 14225, Note_on_c, 3, 64, 100
5, 14225, Note_on_c, 3, 58, 100
5, 14280, Note_on_c, 3, 58, 0
5, 14280, Note_on_c, 3, 64, 0
5, 14285, Note_on_c, 3, 58, 100
5, 14285, Note_on_c, 3, 64, 100
5, 14340, Note_on_c, 3, 64, 0
5, 14340, Note_on_c, 3, 58, 0
5, 14345, Note_on_c, 3, 64, 100
5, 14345, Note_on_c, 3, 58, 100
5, 14400, Note_on_c, 3, 58, 0
5, 14400, Note_on_c, 3, 64, 0
5, 14405, Note_on_c, 3, 58, 100
5, 14405, Note_on_c, 3, 64, 100
5, 14465, Control_c, 3, 11, 42
5, 14480, Control_c, 3, 11, 43
5, 14495, Control_c, 3, 11, 44
5, 14510, Control_c, 3, 11, 45
5, 14520, Note_on_c, 3, 64, 0
5, 14520, Note_on_c, 3, 58, 0
5, 14525, Note_on_c, 3, 58, 100
5, 14525, Note_on_c, 3, 60, 100
5, 14525, Control_c, 3, 11, 46
5, 14540, Control_c, 3, 11, 47
5, 14555, Control_c, 3, 11, 48
5, 14570, Control_c, 3, 11, 49
5, 14585, Note_on_c, 3, 58, 0
5, 14585, Control_c, 3, 11, 50
5, 14585, Note_on_c, 3, 57, 100
5, 14600, Control_c, 3, 11, 51
5, 14615, Control_c, 3, 11, 52
5, 14630, Control_c, 3, 11, 53
5, 14645, Note_on_c, 3, 57, 0
5, 14645, Note_on_c, 3, 60, 0
5, 14645, Note_on_c, 3, 55, 100
5, 14645, Control_c, 3, 11, 54
5, 14645, Note_on_c, 3, 64, 100
5, 14660, Control_c, 3, 11, 55
5, 14675, Control_c, 3, 11, 56
5, 14690, Control_c, 3, 11, 57
5, 14705, Note_on_c, 3, 64, 0
5, 14705, Note_on_c, 3, 55, 0
5, 14705, Note_on_c, 3, 65, 100
5, 14705, Note_on_c, 3, 53, 100
5, 14705, Control_c, 3, 11, 58
5, 14720, Control_c, 3, 11, 59
5, 14735, Control_c, 3, 11, 60
5, 14750, Control_c, 3, 11, 61
5, 14765, Note_on_c, 3, 53, 0
5, 14765, Note_on_c, 3, 65, 0
5, 14765, Control_c, 3, 11, 62
5, 14765, Note_on_c, 3, 58, 100
5, 14765, Note_on_c, 3, 55, 100
5, 14885, Note_on_c, 3, 55, 0
5, 14885, Note_on_c, 3, 58, 0
5, 14885, Note_on_c, 3, 53, 100
5, 14885, Note_on_c, 3, 57, 100
5, 14940, Note_on_c, 3, 57, 0
5, 14940, Note_on_c, 3, 53, 0
5, 14945, Note_on_c, 3, 52, 100
5, 14945, Note_on_c, 3, 55, 100
5, 15005, Note_on_c, 3, 55, 0
5, 15005, Note_on_c, 3, 52, 0
5, 15065, Note_on_c, 3, 55, 100
5, 15065, Note_on_c, 3, 52, 100
5, 15125, Note_on_c, 3, 52, 0
5, 15125, Note_on_c, 3, 55, 0
5, 15125, Note_on_c, 3, 53, 100
5, 15125, Note_on_c, 3, 57, 100
5, 15185, Note_on_c, 3, 57, 0
5, 15185, Note_on_c, 3, 53, 0
5, 15245, Note_on_c, 3, 53, 100
5, 15245, Note_on_c, 3, 57, 100
5, 15245, Control_c, 3, 11, 56
5, 15248, Control_c, 3, 11, 60
5, 15251, Control_c, 3, 11, 63
5, 15254, Control_c, 3, 11, 66
5, 15257, Control_c, 3, 11, 70
5, 15273, Control_c, 3, 11, 67
5, 15281, Control_c, 3, 11, 64
5, 15290, Control_c, 3, 11, 61
5, 15300, Control_c, 3, 11, 58
5, 15305, Note_on_c, 3, 57, 0
5, 15305, Note_on_c, 3, 53, 0
5, 15305, Note_on_c, 3, 55, 100
5, 15305, Note_on_c, 3, 52, 100
5, 15365, Note_on_c, 3, 52, 0
5, 15365, Note_on_c, 3, 55, 0
5, 15425, Note_on_c, 3, 55, 100
5, 15425, Note_on_c, 3, 52, 100
5, 15485, Note_on_c, 3, 52, 0
5, 15485, Note_on_c, 3, 55, 0
5, 15485, Control_c, 3, 11, 62
5, 15485, Note_on_c, 3, 57, 100
5, 15485, Note_on_c, 3, 53, 100
5, 15545, Note_on_c, 3, 53, 0
5, 15545, Note_on_c, 3, 57, 0
5, 15605, Note_on_c, 3, 57, 100
5, 15605, Note_on_c, 3, 53, 100
5, 15605, Control_c, 3, 11, 62
5, 15608, Control_c, 3, 11, 66
5, 15611, Control_c, 3, 11, 69
5, 15614, Control_c, 3, 11, 72
5, 15617, Control_c, 3, 11, 76
5, 15633, Control_c, 3, 11, 73
5, 15641, Control_c, 3, 11, 70
5, 15650, Control_c, 3, 11, 67
5, 15660, Control_c, 3, 11, 64
5, 15665, Note_on_c, 3, 53, 0
5, 15665, Note_on_c, 3, 57, 0
5, 15665, Note_on_c, 3, 52, 100
5, 15665, Note_on_c, 3, 55, 100
5, 15720, Note_on_c, 3, 55, 0
5, 15720, Note_on_c, 3, 52, 0
5, 15725, Note_on_c, 3, 52, 100
5, 15725, Note_on_c, 3, 55, 100
5, 15785, Note_on_c, 3, 55, 0
5, 15785, Note_on_c, 3, 52, 0
5, 15785, Control_c, 3, 11, 68
5, 15785, Note_on_c, 3, 57, 100
5, 15785, Note_on_c, 3, 53, 100
5, 15788, Control_c, 3, 11, 72
5, 15791, Control_c, 3, 11, 75
5, 15794, Control_c, 3, 11, 78
5, 15797, Control_c, 3, 11, 82
5, 15813, Control_c, 3, 11, 79
5, 15821, Control_c, 3, 11, 76
5, 15830, Control_c, 3, 11, 73
5, 15840, Control_c, 3, 11, 70
5, 15845, Note_on_c, 3, 53, 0
5, 15845, Note_on_c, 3, 57, 0
5, 15845, Note_on_c, 3, 55, 100
5, 15845, Note_on_c, 3, 52, 100
5, 15875, Note_on_c, 3, 52, 0
5, 15875, Note_on_c, 3, 55, 0
5, 15905, Note_on_c, 3, 55, 100
5, 15905, Note_on_c, 3, 52, 100
5, 15965, Note_on_c, 3, 52, 0
5, 15965, Note_on_c, 3, 55, 0
5, 15965, Note_on_c, 3, 53, 100
5, 15965, Note_on_c, 3, 57, 100
5, 15965, Control_c, 3, 11, 89
5, 15981, Control_c, 3, 11, 86
5, 15998, Control_c, 3, 11, 83
5, 16014, Control_c, 3, 11, 80
5, 16025, Note_on_c, 3, 57, 0
5, 16025, Note_on_c, 3, 53, 0
5, 16025, Note_on_c, 3, 52, 90
5, 16025, Note_on_c, 3, 55, 90
5, 16025, Control_c, 3, 11, 87
5, 16064, Note_on_c, 3, 55, 0
5, 16064, Note_on_c, 3, 52, 0
5, 16085, Note_on_c, 3, 60, 81
5, 16085, Note_on_c, 3, 48, 81
5, 16124, Note_on_c, 3, 48, 0
5, 16124, Note_on_c, 3, 60, 0
5, 16145, Note_on_c, 3, 60, 78
5, 16145, Note_on_c, 3, 48, 78
5, 16184, Note_on_c, 3, 48, 0
5, 16184, Note_on_c, 3, 60, 0
5, 16205, Note_on_c, 3, 48, 75
5, 16240, Control_c, 3, 11, 87
5, 16242, Control_c, 3, 11, 84
5, 16245, Control_c, 3, 11, 81
5, 16248, Control_c, 3, 11, 78
5, 16251, Control_c, 3, 11, 75
5, 16254, Control_c, 3, 11, 72
5, 16257, Control_c, 3, 11, 69
5, 16260, Control_c, 3, 11, 66
5, 16263, Control_c, 3, 11, 63
5, 16265, Note_on_c, 3, 48, 0
5, 17105, Control_c, 3, 11, 52
5, 17105, Note_on_c, 3, 52, 100
5, 17144, Note_on_c, 3, 52, 0
5, 17165, Note_on_c, 3, 64, 100
5, 17215, Note_on_c, 3, 64, 0
5, 17225, Note_on_c, 3, 64, 100
5, 17275, Note_on_c, 3, 64, 0
5, 17285, Note_on_c, 3, 64, 100
5, 17345, Note_on_c, 3, 64, 0
5, 17345, Note_on_c, 3, 62, 100
5, 17405, Note_on_c, 3, 62, 0
5, 17405, Note_on_c, 3, 60, 100
5, 17460, Note_on_c, 3, 60, 0
5, 17465, Note_on_c, 3, 59, 100
5, 17525, Note_on_c, 3, 59, 0
5, 17525, Note_on_c, 3, 55, 100
5, 17585, Note_on_c, 3, 55, 0
5, 17585, Note_on_c, 3, 60, 100
5, 17640, Note_on_c, 3, 60, 0
5, 17645, Note_on_c, 3, 55, 100
5, 17700, Note_on_c, 3, 55, 0
5, 17705, Note_on_c, 3, 67, 75
5, 17760, Note_on_c, 3, 67, 0
5, 17945, Note_on_c, 3, 67, 100
5, 17945, Note_on_c, 3, 64, 100
5, 18005, Note_on_c, 3, 64, 0
5, 18005, Note_on_c, 3, 67, 0
5, 18005, Note_on_c, 3, 65, 100
5, 18005, Note_on_c, 3, 62, 100
5, 18065, Note_on_c, 3, 62, 0
5, 18065, Note_on_c, 3, 65, 0
5, 18305, Note_on_c, 3, 62, 100
5, 18305, Note_on_c, 3, 65, 100
5, 18365, Note_on_c, 3, 65, 0
5, 18365, Note_on_c, 3, 62, 0
5, 18365, Note_on_c, 3, 64, 100
5, 18365, Note_on_c, 3, 60, 100
5, 18404, Note_on_c, 3, 60, 0
5, 18404, Note_on_c, 3, 64, 0
5, 18425, Control_c, 3, 11, 52
5, 18425, Note_on_c, 3, 67, 100
5, 18437, Control_c, 3, 11, 55
5, 18449, Control_c, 3, 11, 58
5, 18455, Note_on_c, 3, 67, 0
5, 18455, Note_on_c, 3, 66, 100
5, 18461, Control_c, 3, 11, 61
5, 18473, Control_c, 3, 11, 64
5, 18485, Note_on_c, 3, 66, 0
5, 18485, Control_c, 3, 11, 67
5, 18485, Note_on_c, 3, 67, 100
5, 18497, Control_c, 3, 11, 64
5, 18509, Control_c, 3, 11, 61
5, 18515, Note_on_c, 3, 67, 0
5, 18515, Note_on_c, 3, 64, 100
5, 18521, Control_c, 3, 11, 58
5, 18533, Control_c, 3, 11, 55
5, 18540, Note_on_c, 3, 64, 0
5, 18545, Note_on_c, 3, 60, 100
5, 18545, Control_c, 3, 11, 52
5, 18545, Note_on_c, 3, 55, 100
5, 18569, Control_c, 3, 11, 54
5, 18593, Control_c, 3, 11, 56
5, 18605, Note_on_c, 3, 55, 0
5, 18605, Note_on_c, 3, 60, 0
5, 18605, Note_on_c, 3, 55, 100
5, 18605, Note_on_c, 3, 60, 100
5, 18617, Control_c, 3, 11, 58
5, 18641, Control_c, 3, 11, 60
5, 18665, Note_on_c, 3, 60, 0
5, 18665, Note_on_c, 3, 55, 0
5, 18665, Note_on_c, 3, 58, 100
5, 18665, Note_on_c, 3, 61, 100
5, 18665, Control_c, 3, 11, 62
5, 18689, Control_c, 3, 11, 64
5, 18713, Control_c, 3, 11, 66
5, 18720, Note_on_c, 3, 61, 0
5, 18720, Note_on_c, 3, 58, 0
5, 18725, Note_on_c, 3, 57, 100
5, 18725, Note_on_c, 3, 62, 100
5, 18785, Note_on_c, 3, 62, 0
5, 18785, Note_on_c, 3, 57, 0
5, 18965, Note_on_c, 3, 60, 100
5, 18965, Note_on_c, 3, 55, 100
5, 18965, Control_c, 3, 11, 52
5, 19025, Note_on_c, 3, 55, 0
5, 19025, Note_on_c, 3, 60, 0
5, 19025, Note_on_c, 3, 62, 100
5, 19025, Note_on_c, 3, 55, 100
5, 19080, Note_on_c, 3, 55, 0
5, 19080, Note_on_c, 3, 62, 0
5, 19085, Note_on_c, 3, 60, 100
5, 19085, Note_on_c, 3, 48, 100
5, 19145, Note_on_c, 3, 48, 0
5, 19145, Note_on_c, 3, 60, 0
5, 19805, Note_on_c, 3, 60, 67
5, 19805, Note_on_c, 3, 48, 67
5, 19805, Control_c, 3, 11, 72
5, 19835, Note_on_c, 3, 48, 0
5, 19835, Note_on_c, 3, 60, 0
5, 19850, Note_on_c, 3, 67, 90
5, 19850, Note_on_c, 3, 55, 90
5, 19858, Note_on_c, 3, 55, 0
5, 19858, Note_on_c, 3, 67, 0
5, 19865, Control_c, 3, 11, 87
5, 19865, Note_on_c, 3, 67, 90
5, 19865, Note_on_c, 3, 55, 90
5, 20025, Note_on_c, 3, 55, 0
5, 20025, Note_on_c, 3, 67, 0
5, 20030, Note_on_c, 3, 64, 90
5, 20030, Note_on_c, 3, 52, 90
5, 20038, Note_on_c, 3, 52, 0
5, 20038, Note_on_c, 3, 64, 0
5, 20045, Note_on_c, 3, 52, 90
5, 20045, Note_on_c, 3, 64, 90
5, 20205, Note_on_c, 3, 64, 0
5, 20205, Note_on_c, 3, 52, 0
5, 20210, Note_on_c, 3, 52, 90
5, 20210, Note_on_c, 3, 64, 90
5, 20218, Note_on_c, 3, 64, 0
5, 20218, Note_on_c, 3, 52, 0
5, 20225, Note_on_c, 3, 64, 90
5, 20225, Note_on_c, 3, 52, 90
5, 20400, Note_on_c, 3, 52, 0
5, 20400, Note_on_c, 3, 64, 0
5, 20405, Control_c, 3, 11, 107
5, 20405, Note_on_c, 3, 60, 90
5, 20405, Note_on_c, 3, 58, 90
5, 20413, Control_c, 3, 11, 104
5, 20422, Control_c, 3, 11, 101
5, 20431, Control_c, 3, 11, 98
5, 20440, Control_c, 3, 11, 95
5, 20449, Control_c, 3, 11, 92
5, 20458, Control_c, 3, 11, 89
5, 20525, Note_on_c, 3, 58, 0
5, 20525, Note_on_c, 3, 57, 90
5, 20555, Note_on_c, 3, 57, 0
5, 20555, Note_on_c, 3, 60, 0
5, 20585, Note_on_c, 3, 62, 90
5, 20585, Control_c, 3, 11, 107
5, 20585, Note_on_c, 3, 60, 90
5, 20593, Control_c, 3, 11, 104
5, 20602, Control_c, 3, 11, 101
5, 20611, Control_c, 3, 11, 98
5, 20620, Control_c, 3, 11, 95
5, 20629, Control_c, 3, 11, 92
5, 20638, Control_c, 3, 11, 89
5, 20705, Note_on_c, 3, 60, 0
5, 20705, Note_on_c, 3, 59, 90
5, 20735, Note_on_c, 3, 59, 0
5, 20735, Note_on_c, 3, 62, 0
5, 20765, Note_on_c, 3, 62, 90
5, 20765, Control_c, 3, 11, 107
5, 20765, Note_on_c, 3, 59, 90
5, 20773, Control_c, 3, 11, 104
5, 20782, Control_c, 3, 11, 101
5, 20791, Control_c, 3, 11, 98
5, 20800, Control_c, 3, 11, 95
5, 20809, Control_c, 3, 11, 92
5, 20818, Control_c, 3, 11, 89
5, 20885, Note_on_c, 3, 59, 0
5, 20885, Note_on_c, 3, 57, 100
5, 20885, Control_c, 3, 11, 87
5, 20894, Control_c, 3, 11, 84
5, 20903, Control_c, 3, 11, 81
5, 20912, Control_c, 3, 11, 78
5, 20921, Control_c, 3, 11, 75
5, 20930, Control_c, 3, 11, 72
5, 20939, Control_c, 3, 11, 69
5, 20940, Note_on_c, 3, 57, 0
5, 20940, Note_on_c, 3, 62, 0
5, 20945, Note_on_c, 3, 55, 100
5, 20945, Note_on_c, 3, 60, 100
5, 21005, Note_on_c, 3, 60, 0
5, 21005, Note_on_c, 3, 55, 0
5, 21005, Note_on_c, 3, 62, 80
5, 21005, Note_on_c, 3, 55, 80
5, 21005, Control_c, 3, 11, 72
5, 21005, Control_c, 3, 11, 67
5, 21013, Control_c, 3, 11, 70
5, 21017, Control_c, 3, 11, 65
5, 21021, Control_c, 3, 11, 68
5, 21023, Control_c, 3, 11, 64
5, 21025, Control_c, 3, 11, 67
5, 21029, Control_c, 3, 11, 63
5, 21045, Control_c, 3, 11, 62
5, 21053, Control_c, 3, 11, 59
5, 21060, Note_on_c, 3, 55, 0
5, 21060, Note_on_c, 3, 62, 0
5, 21065, Note_on_c, 3, 48, 64
5, 21065, Note_on_c, 3, 60, 64
5, 21095, Control_c, 3, 11, 57
5, 21099, Control_c, 3, 11, 54
5, 21103, Control_c, 3, 11, 51
5, 21108, Control_c, 3, 11, 48
5, 21112, Control_c, 3, 11, 45
5, 21116, Control_c, 3, 11, 42
5, 21121, Control_c, 3, 11, 39
5, 21125, Note_on_c, 3, 60, 0
5, 21125, Note_on_c, 3, 48, 0
5, 21305, Control_c, 3, 11, 37
5, 21305, Note_on_c, 3, 59, 100
5, 21305, Note_on_c, 3, 55, 100
5, 21365, Note_on_c, 3, 55, 0
5, 21365, Note_on_c, 3, 59, 0
5, 21425, Note_on_c, 3, 60, 100
5, 21425, Note_on_c, 3, 55, 100
5, 21485, Note_on_c, 3, 55, 0
5, 21485, Note_on_c, 3, 60, 0
5, 21545, Note_on_c, 3, 60, 100
5, 21545, Note_on_c, 3, 55, 100
5, 21605, Note_on_c, 3, 55, 0
5, 21605, Note_on_c, 3, 60, 0
5, 21665, Note_on_c, 3, 55, 100
5, 21665, Note_on_c, 3, 62, 100
5, 21725, Note_on_c, 3, 62, 0
5, 21725, Note_on_c, 3, 55, 0
5, 21785, Note_on_c, 3, 60, 100
5, 21785, Note_on_c, 3, 55, 100
5, 21845, Note_on_c, 3, 55, 0
5, 21845, Note_on_c, 3, 60, 0
5, 21905, Note_on_c, 3, 55, 100
5, 21905, Note_on_c, 3, 60, 100
5, 21965, Note_on_c, 3, 60, 0
5, 21965, Note_on_c, 3, 55, 0
5, 22025, Note_on_c, 3, 55, 100
5, 22025, Note_on_c, 3, 59, 100
5, 22085, Note_on_c, 3, 59, 0
5, 22085, Note_on_c, 3, 55, 0
5, 22145, Note_on_c, 3, 60, 100
5, 22145, Note_on_c, 3, 55, 100
5, 22205, Note_on_c, 3, 55, 0
5, 22205, Note_on_c, 3, 60, 0
5, 22265, Note_on_c, 3, 60, 100
5, 22265, Note_on_c, 3, 55, 100
5, 22325, Note_on_c, 3, 55, 0
5, 22325, Note_on_c, 3, 60, 0
5, 22385, Note_on_c, 3, 62, 100
5, 22385, Note_on_c, 3, 55, 100
5, 22445, Note_on_c, 3, 55, 0
5, 22445, Note_on_c, 3, 62, 0
5, 22445, Note_on_c, 3, 55, 100
5, 22445, Note_on_c, 3, 62, 100
5, 22505, Note_on_c, 3, 62, 0
5, 22505, Note_on_c, 3, 55, 0
5, 22505, Note_on_c, 3, 60, 85
5, 22505, Note_on_c, 3, 48, 85
5, 22540, Control_c, 3, 11, 37
5, 22547, Control_c, 3, 11, 34
5, 22554, Control_c, 3, 11, 31
5, 22561, Control_c, 3, 11, 28
5, 22565, Note_on_c, 3, 48, 0
5, 22565, Note_on_c, 3, 60, 0
5, 22805, Note_on_c, 3, 55, 85
5, 22805, Note_on_c, 3, 43, 85
5, 22805, Control_c, 3, 11, 37
5, 22823, Control_c, 3, 11, 40
5, 22841, Control_c, 3, 11, 43
5, 22859, Control_c, 3, 11, 46
5, 22865, Note_on_c, 3, 43, 0
5, 22865, Note_on_c, 3, 55, 0
5, 22865, Note_on_c, 3, 60, 100
5, 22865, Note_on_c, 3, 48, 100
5, 22895, Note_on_c, 3, 48, 0
5, 22895, Note_on_c, 3, 60, 0
5, 22925, Note_on_c, 3, 52, 95
5, 22925, Note_on_c, 3, 55, 95
5, 22955, Note_on_c, 3, 55, 0
5, 22955, Note_on_c, 3, 52, 0
5, 22985, Note_on_c, 3, 55, 81
5, 22985, Note_on_c, 3, 52, 81
5, 23015, Note_on_c, 3, 52, 0
5, 23015, Note_on_c, 3, 55, 0
5, 23045, Note_on_c, 3, 48, 76
5, 23045, Note_on_c, 3, 52, 76
5, 23080, Control_c, 3, 11, 47
5, 23087, Control_c, 3, 11, 44
5, 23094, Control_c, 3, 11, 41
5, 23101, Control_c, 3, 11, 38
5, 23105, Note_on_c, 3, 52, 0
5, 23105, Note_on_c, 3, 48, 0
5, 23945, Note_on_c, 3, 63, 100
5, 23945, Control_c, 3, 11, 47
5, 23945, Note_on_c, 3, 60, 100
5, 23963, Control_c, 3, 11, 50
5, 23981, Control_c, 3, 11, 53
5, 23999, Control_c, 3, 11, 56
5, 24017, Control_c, 3, 11, 59
5, 24035, Control_c, 3, 11, 62
5, 24053, Control_c, 3, 11, 65
5, 24071, Control_c, 3, 11, 68
5, 24089, Control_c, 3, 11, 71
5, 24107, Control_c, 3, 11, 74
5, 24125, Control_c, 3, 11, 77
5, 24143, Control_c, 3, 11, 80
5, 24161, Control_c, 3, 11, 83
5, 24179, Control_c, 3, 11, 86
5, 24197, Control_c, 3, 11, 89
5, 24215, Control_c, 3, 11, 92
5, 24233, Control_c, 3, 11, 95
5, 24240, Note_on_c, 3, 60, 0
5, 24240, Note_on_c, 3, 63, 0
5, 24245, Note_on_c, 3, 51, 85
5, 24245, Note_on_c, 3, 54, 85
5, 24305, Note_on_c, 3, 54, 0
5, 24305, Note_on_c, 3, 51, 0
5, 24305, Note_on_c, 3, 53, 100
5, 24305, Note_on_c, 3, 49, 100
5, 24335, Note_on_c, 3, 49, 0
5, 24335, Note_on_c, 3, 53, 0
5, 24485, Control_c, 3, 11, 47
5, 24485, Note_on_c, 3, 49, 100
5, 24512, Note_on_c, 3, 49, 0
5, 24530, Note_on_c, 3, 49, 100
5, 24539, Note_on_c, 3, 49, 0
5, 24545, Note_on_c, 3, 49, 100
5, 24572, Note_on_c, 3, 49, 0
5, 24590, Note_on_c, 3, 49, 100
5, 24599, Note_on_c, 3, 49, 0
5, 24605, Note_on_c, 3, 49, 100
5, 24605, Note_on_c, 3, 56, 100
5, 24632, Note_on_c, 3, 49, 0
5, 24650, Note_on_c, 3, 49, 100
5, 24659, Note_on_c, 3, 49, 0
5, 24665, Note_on_c, 3, 56, 0
5, 24665, Control_c, 3, 11, 67
5, 24665, Note_on_c, 3, 48, 100
5, 24665, Note_on_c, 3, 66, 100
5, 24668, Control_c, 3, 11, 70
5, 24671, Control_c, 3, 11, 73
5, 24674, Control_c, 3, 11, 76
5, 24680, Control_c, 3, 11, 73
5, 24684, Control_c, 3, 11, 70
5, 24687, Control_c, 3, 11, 67
5, 24690, Control_c, 3, 11, 64
5, 24692, Note_on_c, 3, 48, 0
5, 24694, Control_c, 3, 11, 61
5, 24697, Control_c, 3, 11, 58
5, 24701, Control_c, 3, 11, 55
5, 24704, Control_c, 3, 11, 52
5, 24707, Control_c, 3, 11, 49
5, 24710, Note_on_c, 3, 48, 100
5, 24719, Note_on_c, 3, 48, 0
5, 24725, Note_on_c, 3, 48, 100
5, 24752, Note_on_c, 3, 48, 0
5, 24770, Note_on_c, 3, 48, 100
5, 24779, Note_on_c, 3, 48, 0
5, 24785, Note_on_c, 3, 48, 100
5, 24812, Note_on_c, 3, 48, 0
5, 24830, Note_on_c, 3, 48, 100
5, 24839, Note_on_c, 3, 48, 0
5, 24845, Note_on_c, 3, 66, 0
5, 24845, Note_on_c, 3, 48, 100
5, 24872, Note_on_c, 3, 48, 0
5, 24890, Note_on_c, 3, 48, 100
5, 24899, Note_on_c, 3, 48, 0
5, 24905, Note_on_c, 3, 48, 100
5, 24932, Note_on_c, 3, 48, 0
5, 24950, Note_on_c, 3, 48, 100
5, 24959, Note_on_c, 3, 48, 0
5, 24965, Note_on_c, 3, 56, 100
5, 24965, Note_on_c, 3, 48, 100
5, 24992, Note_on_c, 3, 48, 0
5, 25010, Note_on_c, 3, 48, 100
5, 25019, Note_on_c, 3, 48, 0
5, 25025, Note_on_c, 3, 56, 0
5, 25025, Note_on_c, 3, 65, 100
5, 25025, Note_on_c, 3, 49, 100
5, 25025, Control_c, 3, 11, 67
5, 25028, Control_c, 3, 11, 70
5, 25031, Control_c, 3, 11, 73
5, 25034, Control_c, 3, 11, 76
5, 25040, Control_c, 3, 11, 73
5, 25044, Control_c, 3, 11, 70
5, 25047, Control_c, 3, 11, 67
5, 25050, Control_c, 3, 11, 64
5, 25052, Note_on_c, 3, 49, 0
5, 25054, Control_c, 3, 11, 61
5, 25057, Control_c, 3, 11, 58
5, 25061, Control_c, 3, 11, 55
5, 25064, Control_c, 3, 11, 52
5, 25067, Control_c, 3, 11, 49
5, 25070, Note_on_c, 3, 49, 100
5, 25079, Note_on_c, 3, 49, 0
5, 25085, Note_on_c, 3, 49, 100
5, 25112, Note_on_c, 3, 49, 0
5, 25130, Note_on_c, 3, 49, 100
5, 25139, Note_on_c, 3, 49, 0
5, 25145, Note_on_c, 3, 49, 100
5, 25172, Note_on_c, 3, 49, 0
5, 25190, Note_on_c, 3, 49, 100
5, 25199, Note_on_c, 3, 49, 0
5, 25205, Note_on_c, 3, 65, 0
5, 25205, Note_on_c, 3, 49, 100
5, 25232, Note_on_c, 3, 49, 0
5, 25250, Note_on_c, 3, 49, 100
5, 25259, Note_on_c, 3, 49, 0
5, 25265, Note_on_c, 3, 49, 100
5, 25292, Note_on_c, 3, 49, 0
5, 25310, Note_on_c, 3, 49, 100
5, 25319, Note_on_c, 3, 49, 0
5, 25325, Note_on_c, 3, 49, 100
5, 25325, Note_on_c, 3, 53, 100
5, 25352, Note_on_c, 3, 49, 0
5, 25370, Note_on_c, 3, 49, 100
5, 25379, Note_on_c, 3, 49, 0
5, 25385, Note_on_c, 3, 53, 0
5, 25385, Note_on_c, 3, 63, 100
5, 25385, Control_c, 3, 11, 67
5, 25385, Note_on_c, 3, 48, 100
5, 25388, Control_c, 3, 11, 70
5, 25391, Control_c, 3, 11, 73
5, 25394, Control_c, 3, 11, 76
5, 25400, Control_c, 3, 11, 73
5, 25404, Control_c, 3, 11, 70
5, 25407, Control_c, 3, 11, 67
5, 25410, Control_c, 3, 11, 64
5, 25412, Note_on_c, 3, 48, 0
5, 25414, Control_c, 3, 11, 61
5, 25417, Control_c, 3, 11, 58
5, 25421, Control_c, 3, 11, 55
5, 25424, Control_c, 3, 11, 52
5, 25427, Control_c, 3, 11, 49
5, 25430, Note_on_c, 3, 48, 100
5, 25439, Note_on_c, 3, 48, 0
5, 25445, Note_on_c, 3, 48, 100
5, 25472, Note_on_c, 3, 48, 0
5, 25490, Note_on_c, 3, 48, 100
5, 25499, Note_on_c, 3, 48, 0
5, 25505, Note_on_c, 3, 48, 100
5, 25532, Note_on_c, 3, 48, 0
5, 25550, Note_on_c, 3, 48, 100
5, 25559, Note_on_c, 3, 48, 0
5, 25565, Note_on_c, 3, 63, 0
5, 25685, Note_on_c, 3, 53, 100
5, 25745, Note_on_c, 3, 53, 0
5, 25745, Note_on_c, 3, 61, 100
5, 25745, Note_on_c, 3, 58, 100
5, 25775, Note_on_c, 3, 58, 0
5, 25775, Note_on_c, 3, 61, 0
5, 25805, Note_on_c, 3, 65, 100
5, 25805, Control_c, 3, 11, 67
5, 25808, Control_c, 3, 11, 70
5, 25811, Control_c, 3, 11, 73
5, 25814, Control_c, 3, 11, 76
5, 25820, Control_c, 3, 11, 73
5, 25824, Control_c, 3, 11, 70
5, 25827, Control_c, 3, 11, 67
5, 25830, Control_c, 3, 11, 64
5, 25834, Control_c, 3, 11, 61
5, 25837, Control_c, 3, 11, 58
5, 25841, Control_c, 3, 11, 55
5, 25844, Control_c, 3, 11, 52
5, 25847, Control_c, 3, 11, 49
5, 25865, Note_on_c, 3, 61, 100
5, 25925, Note_on_c, 3, 61, 0
5, 25925, Note_on_c, 3, 59, 100
5, 25985, Note_on_c, 3, 59, 0
5, 25985, Note_on_c, 3, 65, 0
5, 25985, Control_c, 3, 11, 67
5, 25985, Note_on_c, 3, 65, 100
5, 25988, Control_c, 3, 11, 70
5, 25991, Control_c, 3, 11, 73
5, 25994, Control_c, 3, 11, 76
5, 26000, Control_c, 3, 11, 73
5, 26004, Control_c, 3, 11, 70
5, 26007, Control_c, 3, 11, 67
5, 26010, Control_c, 3, 11, 64
5, 26014, Control_c, 3, 11, 61
5, 26017, Control_c, 3, 11, 58
5, 26021, Control_c, 3, 11, 55
5, 26024, Control_c, 3, 11, 52
5, 26027, Control_c, 3, 11, 49
5, 26045, Note_on_c, 3, 59, 125
5, 26105, Note_on_c, 3, 59, 0
5, 26105, Note_on_c, 3, 65, 0
5, 26105, Note_on_c, 3, 64, 100
5, 26105, Note_on_c, 3, 60, 100
5, 26165, Note_on_c, 3, 60, 0
5, 26165, Note_on_c, 3, 64, 0
5, 26225, Note_on_c, 3, 52, 100
5, 26225, Note_on_c, 3, 55, 100
5, 26285, Note_on_c, 3, 55, 0
5, 26285, Note_on_c, 3, 52, 0
5, 26285, Note_on_c, 3, 56, 100
5, 26285, Note_on_c, 3, 53, 100
5, 26315, Note_on_c, 3, 53, 0
5, 26315, Note_on_c, 3, 56, 0
5, 26345, Note_on_c, 3, 56, 90
5, 26345, Note_on_c, 3, 53, 90
5, 26375, Note_on_c, 3, 53, 0
5, 26375, Note_on_c, 3, 56, 0
5, 26405, Control_c, 3, 11, 87
5, 26405, Note_on_c, 3, 65, 100
5, 26405, Note_on_c, 3, 53, 100
5, 26465, Note_on_c, 3, 53, 0
5, 26465, Note_on_c, 3, 65, 0
5, 26465, Note_on_c, 3, 48, 100
5, 26465, Note_on_c, 3, 60, 100
5, 26495, Note_on_c, 3, 60, 0
5, 26495, Note_on_c, 3, 48, 0
5, 26525, Note_on_c, 3, 60, 100
5, 26525, Note_on_c, 3, 48, 100
5, 26555, Note_on_c, 3, 48, 0
5, 26555, Note_on_c, 3, 60, 0
5, 26585, Note_on_c, 3, 52, 100
5, 26585, Control_c, 3, 11, 47
5, 26585, Note_on_c, 3, 55, 100
5, 26645, Note_on_c, 3, 55, 0
5, 26645, Note_on_c, 3, 52, 0
5, 26645, Note_on_c, 3, 53, 100
5, 26645, Note_on_c, 3, 56, 100
5, 26675, Note_on_c, 3, 56, 0
5, 26675, Note_on_c, 3, 53, 0
5, 26705, Note_on_c, 3, 56, 90
5, 26705, Note_on_c, 3, 53, 90
5, 26735, Note_on_c, 3, 53, 0
5, 26735, Note_on_c, 3, 56, 0
5, 26765, Note_on_c, 3, 65, 100
5, 26765, Control_c, 3, 11, 87
5, 26765, Note_on_c, 3, 53, 100
5, 26825, Note_on_c, 3, 53, 0
5, 26825, Note_on_c, 3, 65, 0
5, 26825, Note_on_c, 3, 60, 100
5, 26825, Note_on_c, 3, 48, 100
5, 26855, Note_on_c, 3, 48, 0
5, 26855, Note_on_c, 3, 60, 0
5, 27005, Note_on_c, 3, 59, 100
5, 27005, Control_c, 3, 11, 37
5, 27005, Note_on_c, 3, 62, 100
5, 27065, Note_on_c, 3, 62, 0
5, 27065, Note_on_c, 3, 59, 0
5, 27065, Note_on_c, 3, 60, 100
5, 27065, Note_on_c, 3, 64, 100
5, 27108, Note_on_c, 3, 64, 0
5, 27108, Note_on_c, 3, 60, 0
5, 27245, Note_on_c, 3, 55, 100
5, 27245, Note_on_c, 3, 58, 100
5, 27305, Note_on_c, 3, 58, 0
5, 27305, Note_on_c, 3, 55, 0
5, 27305, Note_on_c, 3, 57, 100
5, 27305, Note_on_c, 3, 60, 100
5, 27348, Note_on_c, 3, 60, 0
5, 27348, Note_on_c, 3, 57, 0
5, 27485, Note_on_c, 3, 55, 100
5, 27485, Note_on_c, 3, 52, 100
5, 27545, Note_on_c, 3, 52, 0
5, 27545, Note_on_c, 3, 55, 0
5, 27545, Note_on_c, 3, 57, 100
5, 27545, Note_on_c, 3, 53, 100
5, 27588, Note_on_c, 3, 53, 0
5, 27588, Note_on_c, 3, 57, 0
5, 27605, Note_on_c, 3, 68, 100
5, 27605, Note_on_c, 3, 65, 100
5, 27665, Note_on_c, 3, 65, 0
5, 27665, Note_on_c, 3, 68, 0
5, 27665, Note_on_c, 3, 64, 100
5, 27665, Note_on_c, 3, 67, 100
5, 27708, Note_on_c, 3, 67, 0
5, 27708, Note_on_c, 3, 64, 0
5, 27725, Note_on_c, 3, 66, 100
5, 27725, Note_on_c, 3, 63, 100
5, 27785, Note_on_c, 3, 63, 0
5, 27785, Note_on_c, 3, 66, 0
5, 27785, Note_on_c, 3, 62, 100
5, 27785, Note_on_c, 3, 65, 100
5, 27828, Note_on_c, 3, 65, 0
5, 27828, Note_on_c, 3, 62, 0
5, 27845, Note_on_c, 3, 65, 100
5, 27845, Note_on_c, 3, 62, 100
5, 27905, Note_on_c, 3, 62, 0
5, 27905, Note_on_c, 3, 60, 100
5, 27935, Note_on_c, 3, 65, 0
5, 27965, Note_on_c, 3, 60, 0
5, 27965, Control_c, 3, 11, 37
5, 27965, Note_on_c, 3, 57, 100
5, 27983, Control_c, 3, 11, 40
5, 27995, Note_on_c, 3, 57, 0
5, 28001, Control_c, 3, 11, 43
5, 28019, Control_c, 3, 11, 46
5, 28025, Note_on_c, 3, 58, 100
5, 28037, Control_c, 3, 11, 49
5, 28055, Note_on_c, 3, 58, 0
5, 28055, Control_c, 3, 11, 52
5, 28073, Control_c, 3, 11, 55
5, 28085, Note_on_c, 3, 55, 100
5, 28091, Control_c, 3, 11, 58
5, 28109, Control_c, 3, 11, 61
5, 28115, Note_on_c, 3, 55, 0
5, 28127, Control_c, 3, 11, 64
5, 28145, Control_c, 3, 11, 67
5, 28145, Note_on_c, 3, 56, 100
5, 28163, Control_c, 3, 11, 70
5, 28175, Note_on_c, 3, 56, 0
5, 28181, Control_c, 3, 11, 73
5, 28199, Control_c, 3, 11, 76
5, 28205, Note_on_c, 3, 57, 100
5, 28217, Control_c, 3, 11, 79
5, 28235, Note_on_c, 3, 57, 0
5, 28235, Control_c, 3, 11, 82
5, 28253, Control_c, 3, 11, 85
5, 28265, Note_on_c, 3, 58, 100
5, 28425, Control_c, 3, 11, 87
5, 28426, Control_c, 3, 11, 84
5, 28428, Control_c, 3, 11, 80
5, 28430, Control_c, 3, 11, 76
5, 28432, Control_c, 3, 11, 72
5, 28434, Control_c, 3, 11, 68
5, 28435, Control_c, 3, 11, 65
5, 28437, Control_c, 3, 11, 61
5, 28439, Control_c, 3, 11, 57
5, 28441, Control_c, 3, 11, 53
5, 28443, Control_c, 3, 11, 49
5, 28445, Note_on_c, 3, 58, 0
5, 28625, Note_on_c, 3, 48, 100
5, 28625, Control_c, 3, 11, 87
5, 28785, Control_c, 3, 11, 87
5, 28786, Control_c, 3, 11, 84
5, 28788, Control_c, 3, 11, 80
5, 28790, Control_c, 3, 11, 76
5, 28792, Control_c, 3, 11, 72
5, 28794, Control_c, 3, 11, 68
5, 28795, Control_c, 3, 11, 65
5, 28797, Control_c, 3, 11, 61
5, 28799, Control_c, 3, 11, 57
5, 28801, Control_c, 3, 11, 53
5, 28803, Control_c, 3, 11, 49
5, 28805, Note_on_c, 3, 48, 0
5, 29105, Control_c, 3, 11, 32
5, 29105, Note_on_c, 3, 64, 90
5, 29117, Control_c, 3, 11, 35
5, 29129, Control_c, 3, 11, 38
5, 29141, Control_c, 3, 11, 41
5, 29153, Control_c, 3, 11, 44
5, 29165, Note_on_c, 3, 64, 0
5, 29165, Control_c, 3, 11, 47
5, 29165, Note_on_c, 3, 67, 90
5, 29195, Note_on_c, 3, 67, 0
5, 29285, Note_on_c, 3, 64, 61
5, 29345, Note_on_c, 3, 64, 0
5, 29345, Note_on_c, 3, 67, 61
5, 29375, Note_on_c, 3, 67, 0
5, 30425, Control_c, 3, 11, 37
5, 30425, Note_on_c, 3, 60, 100
5, 30446, Control_c, 3, 11, 40
5, 30461, Control_c, 3, 11, 42
5, 30482, Control_c, 3, 11, 45
5, 30497, Control_c, 3, 11, 47
5, 30518, Control_c, 3, 11, 50
5, 30533, Control_c, 3, 11, 52
5, 30554, Control_c, 3, 11, 55
5, 30569, Control_c, 3, 11, 57
5, 30590, Control_c, 3, 11, 60
5, 30605, Control_c, 3, 11, 62
5, 30621, Control_c, 3, 11, 60
5, 30637, Control_c, 3, 11, 58
5, 30653, Control_c, 3, 11, 56
5, 30669, Control_c, 3, 11, 54
5, 30685, Control_c, 3, 11, 52
5, 30701, Control_c, 3, 11, 50
5, 30717, Control_c, 3, 11, 48
5, 30725, Note_on_c, 3, 60, 0
5, 30725, Note_on_c, 3, 59, 85
5, 30785, Note_on_c, 3, 59, 0
5, 30785, Note_on_c, 3, 60, 100
5, 30824, Note_on_c, 3, 60, 0
5, 30845, Note_on_c, 3, 60, 100
5, 30884, Note_on_c, 3, 60, 0
5, 30905, Note_on_c, 3, 60, 100
5, 30965, Note_on_c, 3, 60, 0
5, 30965, Note_on_c, 3, 64, 100
5, 31004, Note_on_c, 3, 64, 0
5, 31025, Note_on_c, 3, 64, 100
5, 31064, Note_on_c, 3, 64, 0
5, 31085, Note_on_c, 3, 64, 100
5, 31145, Note_on_c, 3, 64, 0
5, 31145, Note_on_c, 3, 65, 100
5, 31200, Note_on_c, 3, 65, 0
5, 31205, Note_on_c, 3, 65, 100
5, 31228, Note_on_c, 3, 65, 0
5, 31250, Note_on_c, 3, 64, 100
5, 31258, Note_on_c, 3, 64, 0
5, 31265, Note_on_c, 3, 62, 100
5, 31288, Note_on_c, 3, 62, 0
5, 31310, Note_on_c, 3, 60, 100
5, 31318, Note_on_c, 3, 60, 0
5, 31325, Note_on_c, 3, 59, 100
5, 31364, Note_on_c, 3, 59, 0
5, 31385, Note_on_c, 3, 59, 100
5, 31424, Note_on_c, 3, 59, 0
5, 31445, Note_on_c, 3, 43, 100
5, 31445, Note_on_c, 3, 59, 100
5, 31505, Note_on_c, 3, 59, 0
5, 31505, Note_on_c, 3, 43, 0
5, 31505, Note_on_c, 3, 48, 100
5, 31505, Note_on_c, 3, 60, 100
5, 31525, Note_on_c, 3, 60, 0
5, 31544, Note_on_c, 3, 48, 0
5, 31565, Note_on_c, 3, 60, 100
5, 31565, Note_on_c, 3, 48, 100
5, 31588, Note_on_c, 3, 60, 0
5, 31604, Note_on_c, 3, 48, 0
5, 31610, Note_on_c, 3, 59, 100
5, 31618, Note_on_c, 3, 59, 0
5, 31625, Note_on_c, 3, 48, 100
5, 31625, Note_on_c, 3, 60, 100
5, 31648, Note_on_c, 3, 60, 0
5, 31670, Note_on_c, 3, 62, 100
5, 31678, Note_on_c, 3, 62, 0
5, 31685, Note_on_c, 3, 48, 0
5, 31685, Note_on_c, 3, 52, 100
5, 31685, Note_on_c, 3, 58, 100
5, 31715, Note_on_c, 3, 58, 0
5, 31724, Note_on_c, 3, 52, 0
5, 31745, Note_on_c, 3, 58, 100
5, 31745, Note_on_c, 3, 52, 100
5, 31768, Note_on_c, 3, 58, 0
5, 31784, Note_on_c, 3, 52, 0
5, 31790, Note_on_c, 3, 57, 100
5, 31798, Note_on_c, 3, 57, 0
5, 31805, Note_on_c, 3, 58, 100
5, 31805, Note_on_c, 3, 52, 100
5, 31828, Note_on_c, 3, 58, 0
5, 31850, Note_on_c, 3, 60, 100
5, 31858, Note_on_c, 3, 60, 0
5, 31865, Note_on_c, 3, 52, 0
5, 31865, Note_on_c, 3, 57, 100
5, 31865, Note_on_c, 3, 53, 100
5, 31892, Note_on_c, 3, 53, 0
5, 31895, Note_on_c, 3, 57, 0
5, 31895, Note_on_c, 3, 57, 100
5, 31910, Note_on_c, 3, 57, 0
5, 31910, Note_on_c, 3, 58, 100
5, 31922, Note_on_c, 3, 58, 0
5, 31925, Note_on_c, 3, 60, 100
5, 31940, Note_on_c, 3, 60, 0
5, 31955, Note_on_c, 3, 58, 100
5, 31970, Note_on_c, 3, 58, 0
5, 31985, Note_on_c, 3, 57, 100
5, 32000, Note_on_c, 3, 57, 0
5, 32015, Note_on_c, 3, 55, 100
5, 32030, Note_on_c, 3, 55, 0
5, 32045, Note_on_c, 3, 60, 100
5, 32045, Note_on_c, 3, 53, 100
5, 32060, Note_on_c, 3, 53, 0
5, 32075, Note_on_c, 3, 52, 100
5, 32084, Note_on_c, 3, 60, 0
5, 32090, Note_on_c, 3, 52, 0
5, 32105, Note_on_c, 3, 50, 100
5, 32105, Note_on_c, 3, 60, 100
5, 32120, Note_on_c, 3, 50, 0
5, 32135, Note_on_c, 3, 48, 100
5, 32144, Note_on_c, 3, 60, 0
5, 32150, Note_on_c, 3, 48, 0
5, 32165, Note_on_c, 3, 46, 100
5, 32165, Note_on_c, 3, 60, 100
5, 32180, Note_on_c, 3, 46, 0
5, 32195, Note_on_c, 3, 45, 100
5, 32210, Note_on_c, 3, 45, 0
5, 32225, Note_on_c, 3, 60, 0
5, 32225, Note_on_c, 3, 58, 100
5, 32225, Note_on_c, 3, 43, 100
5, 32240, Note_on_c, 3, 43, 0
5, 32255, Note_on_c, 3, 42, 100
5, 32264, Note_on_c, 3, 58, 0
5, 32270, Note_on_c, 3, 42, 0
5, 32285, Note_on_c, 3, 55, 100
5, 32285, Note_on_c, 3, 43, 100
5, 32300, Note_on_c, 3, 43, 0
5, 32315, Note_on_c, 3, 45, 100
5, 32330, Note_on_c, 3, 45, 0
5, 32333, Note_on_c, 3, 55, 0
5, 32345, Note_on_c, 3, 55, 100
5, 32345, Note_on_c, 3, 46, 100
5, 32360, Note_on_c, 3, 46, 0
5, 32375, Note_on_c, 3, 47, 100
5, 32390, Note_on_c, 3, 47, 0
5, 32393, Note_on_c, 3, 55, 0
5, 32405, Note_on_c, 3, 55, 100
5, 32405, Note_on_c, 3, 48, 100
5, 32420, Note_on_c, 3, 48, 0
5, 32435, Note_on_c, 3, 55, 100
5, 32450, Note_on_c, 3, 55, 0
5, 32465, Note_on_c, 3, 55, 0
5, 32465, Note_on_c, 3, 57, 100
5, 32480, Note_on_c, 3, 57, 0
5, 32495, Note_on_c, 3, 59, 100
5, 32510, Note_on_c, 3, 59, 0
5, 32525, Note_on_c, 3, 60, 100
5, 32555, Note_on_c, 3, 58, 100
5, 32570, Note_on_c, 3, 58, 0
5, 32585, Note_on_c, 3, 60, 0
5, 32585, Note_on_c, 3, 60, 100
5, 32585, Note_on_c, 3, 57, 100
5, 32585, Control_c, 3, 11, 47
5, 32600, Note_on_c, 3, 57, 0
5, 32605, Control_c, 3, 11, 48
5, 32615, Note_on_c, 3, 48, 100
5, 32625, Control_c, 3, 11, 49
5, 32630, Note_on_c, 3, 48, 0
5, 32645, Note_on_c, 3, 60, 0
5, 32645, Note_on_c, 3, 55, 100
5, 32645, Note_on_c, 3, 58, 100
5, 32645, Control_c, 3, 11, 50
5, 32660, Note_on_c, 3, 55, 0
5, 32665, Control_c, 3, 11, 51
5, 32675, Note_on_c, 3, 48, 100
5, 32685, Control_c, 3, 11, 52
5, 32690, Note_on_c, 3, 48, 0
5, 32705, Note_on_c, 3, 58, 0
5, 32705, Note_on_c, 3, 53, 100
5, 32705, Note_on_c, 3, 57, 100
5, 32705, Control_c, 3, 11, 53
5, 32720, Note_on_c, 3, 53, 0
5, 32725, Control_c, 3, 11, 54
5, 32735, Note_on_c, 3, 48, 100
5, 32745, Control_c, 3, 11, 55
5, 32750, Note_on_c, 3, 48, 0
5, 32762, Note_on_c, 3, 57, 0
5, 32765, Note_on_c, 3, 55, 100
5, 32765, Note_on_c, 3, 58, 100
5, 32765, Control_c, 3, 11, 56
5, 32785, Control_c, 3, 11, 57
5, 32805, Control_c, 3, 11, 58
5, 32825, Note_on_c, 3, 58, 0
5, 32825, Note_on_c, 3, 55, 0
5, 32825, Control_c, 3, 11, 59
5, 32825, Note_on_c, 3, 67, 100
5, 32825, Note_on_c, 3, 58, 100
5, 32845, Control_c, 3, 11, 60
5, 32865, Control_c, 3, 11, 61
5, 32885, Note_on_c, 3, 58, 0
5, 32885, Note_on_c, 3, 67, 0
5, 32885, Control_c, 3, 11, 62
5, 32885, Note_on_c, 3, 65, 100
5, 32885, Note_on_c, 3, 57, 100
5, 32942, Note_on_c, 3, 57, 0
5, 32942, Note_on_c, 3, 65, 0
5, 32945, Note_on_c, 3, 55, 100
5, 32945, Note_on_c, 3, 64, 100
5, 33002, Note_on_c, 3, 64, 0
5, 33002, Note_on_c, 3, 55, 0
5, 33005, Note_on_c, 3, 48, 100
5, 33005, Note_on_c, 3, 60, 100
5, 33062, Note_on_c, 3, 60, 0
5, 33062, Note_on_c, 3, 48, 0
5, 33065, Note_on_c, 3, 60, 100
5, 33065, Note_on_c, 3, 48, 100
5, 33182, Note_on_c, 3, 48, 0
5, 33182, Note_on_c, 3, 60, 0
5, 33185, Note_on_c, 3, 48, 100
5, 33185, Note_on_c, 3, 60, 100
5, 33242, Note_on_c, 3, 60, 0
5, 33242, Note_on_c, 3, 48, 0
5, 33245, Control_c, 3, 11, 82
5, 33245, Note_on_c, 3, 48, 100
5, 33245, Note_on_c, 3, 60, 100
5, 33254, Control_c, 3, 11, 79
5, 33263, Control_c, 3, 11, 76
5, 33272, Control_c, 3, 11, 73
5, 33281, Control_c, 3, 11, 70
5, 33290, Control_c, 3, 11, 67
5, 33299, Control_c, 3, 11, 64
5, 33362, Note_on_c, 3, 60, 0
5, 33362, Note_on_c, 3, 48, 0
5, 33365, Note_on_c, 3, 48, 100
5, 33365, Note_on_c, 3, 60, 100
5, 33422, Note_on_c, 3, 60, 0
5, 33422, Note_on_c, 3, 48, 0
5, 33425, Note_on_c, 3, 60, 100
5, 33425, Note_on_c, 3, 48, 100
5, 33542, Note_on_c, 3, 48, 0
5, 33542, Note_on_c, 3, 60, 0
5, 33545, Note_on_c, 3, 48, 100
5, 33545, Note_on_c, 3, 60, 100
5, 33602, Note_on_c, 3, 60, 0
5, 33602, Note_on_c, 3, 48, 0
5, 33605, Control_c, 3, 11, 87
5, 33605, Note_on_c, 3, 48, 100
5, 33605, Note_on_c, 3, 60, 100
5, 33614, Control_c, 3, 11, 84
5, 33623, Control_c, 3, 11, 81
5, 33632, Control_c, 3, 11, 78
5, 33641, Control_c, 3, 11, 75
5, 33650, Control_c, 3, 11, 72
5, 33659, Control_c, 3, 11, 69
5, 33722, Note_on_c, 3, 60, 0
5, 33722, Note_on_c, 3, 48, 0
5, 33725, Note_on_c, 3, 60, 100
5, 33725, Note_on_c, 3, 48, 100
5, 33725, Control_c, 3, 11, 92
5, 33734, Control_c, 3, 11, 89
5, 33743, Control_c, 3, 11, 86
5, 33752, Control_c, 3, 11, 83
5, 33761, Control_c, 3, 11, 80
5, 33770, Control_c, 3, 11, 77
5, 33779, Control_c, 3, 11, 74
5, 33902, Note_on_c, 3, 48, 0
5, 33902, Note_on_c, 3, 60, 0
5, 33905, Note_on_c, 3, 58, 100
5, 33905, Control_c, 3, 11, 92
5, 33905, Note_on_c, 3, 62, 100
5, 33917, Control_c, 3, 11, 89
5, 33929, Control_c, 3, 11, 86
5, 33935, Note_on_c, 3, 62, 0
5, 33935, Note_on_c, 3, 58, 0
5, 33935, Note_on_c, 3, 60, 100
5, 33935, Note_on_c, 3, 57, 100
5, 33941, Control_c, 3, 11, 83
5, 33953, Control_c, 3, 11, 80
5, 33965, Note_on_c, 3, 57, 0
5, 33965, Note_on_c, 3, 60, 0
5, 33965, Control_c, 3, 11, 77
5, 33965, Note_on_c, 3, 55, 100
5, 33965, Note_on_c, 3, 58, 100
5, 33995, Note_on_c, 3, 58, 0
5, 33995, Note_on_c, 3, 55, 0
5, 33995, Note_on_c, 3, 57, 100
5, 33995, Note_on_c, 3, 53, 100
5, 34022, Note_on_c, 3, 53, 0
5, 34022, Note_on_c, 3, 57, 0
5, 34025, Note_on_c, 3, 55, 100
5, 34025, Control_c, 3, 11, 87
5, 34025, Note_on_c, 3, 52, 100
5, 34055, Note_on_c, 3, 52, 0
5, 34055, Note_on_c, 3, 55, 0
5, 34085, Note_on_c, 3, 52, 90
5, 34085, Note_on_c, 3, 55, 90
5, 34115, Note_on_c, 3, 55, 0
5, 34115, Note_on_c, 3, 52, 0
5, 34145, Note_on_c, 3, 52, 87
5, 34145, Note_on_c, 3, 55, 87
5, 34175, Note_on_c, 3, 55, 0
5, 34175, Note_on_c, 3, 52, 0
5, 34205, Note_on_c, 3, 52, 75
5, 34205, Note_on_c, 3, 55, 75
5, 34235, Control_c, 3, 11, 87
5, 34239, Control_c, 3, 11, 84
5, 34243, Control_c, 3, 11, 81
5, 34248, Control_c, 3, 11, 78
5, 34252, Control_c, 3, 11, 75
5, 34256, Control_c, 3, 11, 72
5, 34261, Control_c, 3, 11, 69
5, 34265, Note_on_c, 3, 55, 0
5, 34265, Note_on_c, 3, 52, 0
5, 35945, Note_on_c, 3, 60, 100
5, 35945, Note_on_c, 3, 62, 100
5, 35945, Control_c, 3, 11, 37
5, 35963, Control_c, 3, 11, 40
5, 35981, Control_c, 3, 11, 43
5, 35999, Control_c, 3, 11, 46
5, 36005, Note_on_c, 3, 60, 0
5, 36005, Note_on_c, 3, 58, 100
5, 36035, Note_on_c, 3, 58, 0
5, 36035, Note_on_c, 3, 62, 0
5, 36305, Note_on_c, 3, 60, 100
5, 36305, Control_c, 3, 11, 37
5, 36305, Note_on_c, 3, 58, 100
5, 36323, Control_c, 3, 11, 40
5, 36341, Control_c, 3, 11, 43
5, 36359, Control_c, 3, 11, 46
5, 36365, Note_on_c, 3, 58, 0
5, 36365, Note_on_c, 3, 57, 100
5, 36395, Note_on_c, 3, 57, 0
5, 36395, Note_on_c, 3, 60, 0
5, 36425, Note_on_c, 3, 60, 100
5, 36425, Control_c, 3, 11, 42
5, 36437, Control_c, 3, 11, 45
5, 36449, Control_c, 3, 11, 48
5, 36455, Note_on_c, 3, 60, 0
5, 36455, Note_on_c, 3, 59, 100
5, 36461, Control_c, 3, 11, 51
5, 36473, Control_c, 3, 11, 54
5, 36485, Note_on_c, 3, 59, 0
5, 36485, Note_on_c, 3, 60, 100
5, 36485, Control_c, 3, 11, 57
5, 36503, Control_c, 3, 11, 54
5, 36515, Note_on_c, 3, 60, 0
5, 36515, Note_on_c, 3, 57, 100
5, 36521, Control_c, 3, 11, 51
5, 36539, Control_c, 3, 11, 48
5, 36545, Note_on_c, 3, 57, 0
5, 36545, Note_on_c, 3, 53, 100
5, 36557, Control_c, 3, 11, 48
5, 36581, Control_c, 3, 11, 50
5, 36605, Note_on_c, 3, 53, 0
5, 36605, Note_on_c, 3, 65, 100
5, 36605, Control_c, 3, 11, 52
5, 36629, Control_c, 3, 11, 54
5, 36653, Control_c, 3, 11, 56
5, 36665, Note_on_c, 3, 65, 0
5, 36665, Note_on_c, 3, 60, 100
5, 36665, Note_on_c, 3, 66, 100
5, 36677, Control_c, 3, 11, 58
5, 36701, Control_c, 3, 11, 60
5, 36725, Note_on_c, 3, 66, 0
5, 36725, Note_on_c, 3, 60, 0
5, 36725, Note_on_c, 3, 67, 100
5, 36725, Note_on_c, 3, 62, 100
5, 36785, Note_on_c, 3, 62, 0
5, 36785, Note_on_c, 3, 67, 0
5, 36965, Note_on_c, 3, 60, 100
5, 36965, Control_c, 3, 11, 47
5, 36965, Note_on_c, 3, 57, 100
5, 37025, Note_on_c, 3, 57, 0
5, 37025, Note_on_c, 3, 60, 0
5, 37025, Note_on_c, 3, 58, 100
5, 37025, Note_on_c, 3, 60, 100
5, 37085, Note_on_c, 3, 60, 0
5, 37085, Note_on_c, 3, 58, 0
5, 37085, Note_on_c, 3, 60, 100
5, 37085, Note_on_c, 3, 57, 100
5, 37105, Control_c, 3, 11, 47
5, 37109, Control_c, 3, 11, 44
5, 37114, Control_c, 3, 11, 41
5, 37119, Control_c, 3, 11, 38
5, 37123, Control_c, 3, 11, 35
5, 37128, Control_c, 3, 11, 32
5, 37133, Control_c, 3, 11, 29
5, 37137, Control_c, 3, 11, 26
5, 37142, Control_c, 3, 11, 23
5, 37145, Note_on_c, 3, 57, 0
5, 37145, Note_on_c, 3, 60, 0
5, 37805, Note_on_c, 3, 53, 67
5, 37805, Control_c, 3, 11, 87
5, 37850, Note_on_c, 3, 53, 0
5, 37850, Note_on_c, 3, 60, 72
5, 37850, Note_on_c, 3, 48, 72
5, 37861, Note_on_c, 3, 48, 0
5, 37861, Note_on_c, 3, 60, 0
5, 37865, Note_on_c, 3, 60, 85
5, 37865, Note_on_c, 3, 48, 85
5, 38030, Note_on_c, 3, 48, 0
5, 38030, Note_on_c, 3, 60, 0
5, 38030, Note_on_c, 3, 57, 85
5, 38030, Note_on_c, 3, 45, 85
5, 38041, Note_on_c, 3, 45, 0
5, 38041, Note_on_c, 3, 57, 0
5, 38045, Note_on_c, 3, 57, 85
5, 38045, Note_on_c, 3, 45, 85
5, 38210, Note_on_c, 3, 45, 0
5, 38210, Note_on_c, 3, 57, 0
5, 38210, Note_on_c, 3, 57, 85
5, 38210, Note_on_c, 3, 45, 85
5, 38221, Note_on_c, 3, 45, 0
5, 38221, Note_on_c, 3, 57, 0
5, 38225, Note_on_c, 3, 57, 85
5, 38225, Note_on_c, 3, 45, 85
5, 38375, Note_on_c, 3, 45, 0
5, 38375, Note_on_c, 3, 57, 0
5, 38405, Control_c, 3, 11, 102
5, 38405, Note_on_c, 3, 65, 100
5, 38405, Note_on_c, 3, 63, 100
5, 38416, Control_c, 3, 11, 99
5, 38428, Control_c, 3, 11, 96
5, 38440, Control_c, 3, 11, 93
5, 38452, Control_c, 3, 11, 90
5, 38464, Control_c, 3, 11, 87
5, 38525, Note_on_c, 3, 63, 0
5, 38555, Note_on_c, 3, 65, 0
5, 38585, Note_on_c, 3, 55, 100
5, 38585, Control_c, 3, 11, 102
5, 38585, Note_on_c, 3, 65, 100
5, 38596, Control_c, 3, 11, 99
5, 38608, Control_c, 3, 11, 96
5, 38620, Control_c, 3, 11, 93
5, 38632, Control_c, 3, 11, 90
5, 38644, Control_c, 3, 11, 87
5, 38705, Note_on_c, 3, 65, 0
5, 38705, Note_on_c, 3, 55, 0
5, 38705, Note_on_c, 3, 60, 100
5, 38705, Note_on_c, 3, 64, 100
5, 38735, Note_on_c, 3, 64, 0
5, 38735, Note_on_c, 3, 60, 0
5, 38765, Note_on_c, 3, 57, 100
5, 38765, Note_on_c, 3, 67, 90
5, 38765, Control_c, 3, 11, 102
5, 38776, Control_c, 3, 11, 99
5, 38788, Control_c, 3, 11, 96
5, 38800, Control_c, 3, 11, 93
5, 38812, Control_c, 3, 11, 90
5, 38824, Control_c, 3, 11, 87
5, 38885, Note_on_c, 3, 57, 0
5, 38885, Control_c, 3, 11, 87
5, 38885, Note_on_c, 3, 58, 100
5, 38896, Control_c, 3, 11, 84
5, 38908, Control_c, 3, 11, 81
5, 38915, Note_on_c, 3, 58, 0
5, 38915, Note_on_c, 3, 67, 0
5, 38920, Control_c, 3, 11, 78
5, 38932, Control_c, 3, 11, 75
5, 38944, Control_c, 3, 11, 72
5, 38945, Note_on_c, 3, 60, 100
5, 39002, Note_on_c, 3, 60, 0
5, 39005, Note_on_c, 3, 48, 100
5, 39005, Control_c, 3, 11, 67
5, 39013, Control_c, 3, 11, 64
5, 39022, Control_c, 3, 11, 61
5, 39031, Control_c, 3, 11, 58
5, 39040, Control_c, 3, 11, 55
5, 39049, Control_c, 3, 11, 52
5, 39058, Control_c, 3, 11, 49
5, 39062, Note_on_c, 3, 48, 0
5, 39065, Note_on_c, 3, 53, 100
5, 39095, Control_c, 3, 11, 47
5, 39100, Control_c, 3, 11, 44
5, 39106, Control_c, 3, 11, 41
5, 39112, Control_c, 3, 11, 38
5, 39118, Control_c, 3, 11, 35
5, 39124, Control_c, 3, 11, 32
5, 39125, Note_on_c, 3, 53, 0
5, 39305, Note_on_c, 3, 67, 85
5, 39305, Note_on_c, 3, 60, 85
5, 39365, Note_on_c, 3, 60, 0
5, 39365, Note_on_c, 3, 67, 0
5, 39425, Note_on_c, 3, 65, 85
5, 39425, Note_on_c, 3, 60, 85
5, 39485, Note_on_c, 3, 60, 0
5, 39485, Note_on_c, 3, 65, 0
5, 39545, Note_on_c, 3, 60, 85
5, 39545, Note_on_c, 3, 65, 85
5, 39605, Note_on_c, 3, 65, 0
5, 39605, Note_on_c, 3, 60, 0
5, 39665, Note_on_c, 3, 64, 85
5, 39665, Note_on_c, 3, 58, 85
5, 39725, Note_on_c, 3, 58, 0
5, 39725, Note_on_c, 3, 64, 0
5, 39785, Note_on_c, 3, 57, 85
5, 39785, Note_on_c, 3, 65, 85
5, 39845, Note_on_c, 3, 65, 0
5, 39845, Note_on_c, 3, 57, 0
5, 39905, Note_on_c, 3, 65, 85
5, 39905, Note_on_c, 3, 57, 85
5, 39965, Note_on_c, 3, 57, 0
5, 39965, Note_on_c, 3, 65, 0
5, 40025, Note_on_c, 3, 60, 85
5, 40025, Note_on_c, 3, 67, 85
5, 40085, Note_on_c, 3, 67, 0
5, 40085, Note_on_c, 3, 60, 0
5, 40145, Note_on_c, 3, 65, 85
5, 40145, Note_on_c, 3, 60, 85
5, 40205, Note_on_c, 3, 60, 0
5, 40205, Note_on_c, 3, 65, 0
5, 40265, Note_on_c, 3, 65, 85
5, 40265, Note_on_c, 3, 60, 85
5, 40325, Note_on_c, 3, 60, 0
5, 40325, Note_on_c, 3, 65, 0
5, 40385, Note_on_c, 3, 58, 85
5, 40385, Note_on_c, 3, 64, 85
5, 40440, Note_on_c, 3, 64, 0
5, 40440, Note_on_c, 3, 58, 0
5, 40445, Note_on_c, 3, 58, 85
5, 40445, Note_on_c, 3, 64, 85
5, 40500, Note_on_c, 3, 64, 0
5, 40500, Note_on_c, 3, 58, 0
5, 40505, Note_on_c, 3, 57, 72
5, 40505, Note_on_c, 3, 65, 72
5, 40540, Control_c, 3, 11, 37
5, 40547, Control_c, 3, 11, 34
5, 40554, Control_c, 3, 11, 31
5, 40561, Control_c, 3, 11, 28
5, 40565, Note_on_c, 3, 65, 0
5, 40565, Note_on_c, 3, 57, 0
5, 40805, Control_c, 3, 11, 37
5, 40805, Note_on_c, 3, 48, 100
5, 40823, Control_c, 3, 11, 40
5, 40841, Control_c, 3, 11, 43
5, 40859, Control_c, 3, 11, 46
5, 40865, Note_on_c, 3, 48, 0
5, 40865, Note_on_c, 3, 53, 100
5, 40904, Note_on_c, 3, 53, 0
5, 40925, Note_on_c, 3, 53, 100
5, 40964, Note_on_c, 3, 53, 0
5, 40985, Note_on_c, 3, 53, 100
5, 41045, Note_on_c, 3, 53, 0
5, 41045, Note_on_c, 3, 57, 100
5, 41084, Note_on_c, 3, 57, 0
5, 41105, Note_on_c, 3, 57, 100
5, 41144, Note_on_c, 3, 57, 0
5, 41165, Note_on_c, 3, 53, 100
5, 41165, Note_on_c, 3, 57, 100
5, 41225, Note_on_c, 3, 57, 0
5, 41225, Note_on_c, 3, 53, 0
5, 41225, Note_on_c, 3, 55, 100
5, 41225, Note_on_c, 3, 58, 100
5, 41282, Note_on_c, 3, 58, 0
5, 41282, Note_on_c, 3, 55, 0
5, 41285, Note_on_c, 3, 58, 100
5, 41285, Note_on_c, 3, 55, 100
5, 41330, Note_on_c, 3, 55, 0
5, 41330, Note_on_c, 3, 58, 0
5, 41330, Note_on_c, 3, 57, 100
5, 41330, Note_on_c, 3, 53, 100
5, 41345, Note_on_c, 3, 53, 0
5, 41345, Note_on_c, 3, 57, 0
5, 41345, Note_on_c, 3, 55, 100
5, 41345, Note_on_c, 3, 52, 100
5, 41390, Note_on_c, 3, 52, 0
5, 41390, Note_on_c, 3, 55, 0
5, 41390, Note_on_c, 3, 50, 100
5, 41390, Note_on_c, 3, 53, 100
5, 41402, Note_on_c, 3, 53, 0
5, 41402, Note_on_c, 3, 50, 0
5, 41405, Note_on_c, 3, 48, 100
5, 41405, Note_on_c, 3, 52, 100
5, 41520, Note_on_c, 3, 52, 0
5, 41520, Note_on_c, 3, 48, 0
5, 41945, Control_c, 3, 11, 47
5, 41969, Control_c, 3, 11, 48
5, 41993, Control_c, 3, 11, 49
5, 42005, Note_on_c, 3, 60, 100
5, 42017, Control_c, 3, 11, 50
5, 42041, Control_c, 3, 11, 51
5, 42050, Note_on_c, 3, 60, 0
5, 42065, Note_on_c, 3, 60, 100
5, 42065, Control_c, 3, 11, 52
5, 42089, Control_c, 3, 11, 53
5, 42110, Note_on_c, 3, 60, 0
5, 42113, Control_c, 3, 11, 54
5, 42125, Note_on_c, 3, 60, 100
5, 42137, Control_c, 3, 11, 55
5, 42161, Control_c, 3, 11, 56
5, 42185, Control_c, 3, 11, 57
5, 42209, Control_c, 3, 11, 58
5, 42233, Control_c, 3, 11, 59
5, 42245, Note_on_c, 3, 60, 0
5, 42245, Note_on_c, 3, 61, 100
5, 42257, Control_c, 3, 11, 60
5, 42281, Control_c, 3, 11, 61
5, 42305, Note_on_c, 3, 61, 0
5, 42305, Control_c, 3, 11, 50
5, 42305, Note_on_c, 3, 62, 100
5, 42365, Note_on_c, 3, 62, 0
5, 42665, Control_c, 3, 11, 50
5, 42693, Control_c, 3, 11, 52
5, 42708, Control_c, 3, 11, 53
5, 42725, Note_on_c, 3, 62, 100
5, 42737, Control_c, 3, 11, 55
5, 42765, Control_c, 3, 11, 57
5, 42770, Note_on_c, 3, 62, 0
5, 42780, Control_c, 3, 11, 58
5, 42785, Note_on_c, 3, 62, 100
5, 42809, Control_c, 3, 11, 60
5, 42830, Note_on_c, 3, 62, 0
5, 42837, Control_c, 3, 11, 62
5, 42845, Note_on_c, 3, 62, 100
5, 42852, Control_c, 3, 11, 63
5, 42881, Control_c, 3, 11, 65
5, 42905, Note_on_c, 3, 62, 0
5, 42905, Note_on_c, 3, 63, 100
5, 42909, Control_c, 3, 11, 67
5, 42924, Control_c, 3, 11, 68
5, 42953, Control_c, 3, 11, 70
5, 42965, Note_on_c, 3, 63, 0
5, 42965, Note_on_c, 3, 64, 100
5, 42981, Control_c, 3, 11, 72
5, 42996, Control_c, 3, 11, 73
5, 43020, Note_on_c, 3, 64, 0
5, 43025, Note_on_c, 3, 58, 68
5, 43025, Note_on_c, 3, 65, 68
5, 43025, Control_c, 3, 11, 87
5, 43085, Note_on_c, 3, 65, 0
5, 43085, Note_on_c, 3, 58, 0
5, 43085, Note_on_c, 3, 65, 79
5, 43085, Note_on_c, 3, 60, 79
5, 43145, Note_on_c, 3, 60, 0
5, 43145, Note_on_c, 3, 65, 0
5, 43145, Note_on_c, 3, 65, 93
5, 43145, Note_on_c, 3, 62, 93
5, 43200, Note_on_c, 3, 62, 0
5, 43200, Note_on_c, 3, 65, 0
5, 43205, Control_c, 3, 11, 107
5, 43205, Note_on_c, 3, 60, 100
5, 43205, Note_on_c, 3, 63, 100
5, 43214, Control_c, 3, 11, 104
5, 43223, Control_c, 3, 11, 101
5, 43232, Control_c, 3, 11, 98
5, 43241, Control_c, 3, 11, 95
5, 43250, Control_c, 3, 11, 92
5, 43259, Control_c, 3, 11, 89
5, 43295, Note_on_c, 3, 63, 0
5, 43295, Note_on_c, 3, 65, 100
5, 43325, Note_on_c, 3, 65, 0
5, 43325, Note_on_c, 3, 60, 0
5, 43325, Note_on_c, 3, 62, 100
5, 43355, Note_on_c, 3, 62, 0
5, 43385, Note_on_c, 3, 60, 100
5, 43385, Control_c, 3, 11, 107
5, 43385, Note_on_c, 3, 57, 100
5, 43394, Control_c, 3, 11, 104
5, 43403, Control_c, 3, 11, 101
5, 43412, Control_c, 3, 11, 98
5, 43421, Control_c, 3, 11, 95
5, 43430, Control_c, 3, 11, 92
5, 43439, Control_c, 3, 11, 89
5, 43475, Note_on_c, 3, 60, 0
5, 43475, Note_on_c, 3, 62, 100
5, 43505, Note_on_c, 3, 62, 0
5, 43505, Note_on_c, 3, 57, 0
5, 43505, Note_on_c, 3, 59, 100
5, 43505, Note_on_c, 3, 55, 100
5, 43535, Note_on_c, 3, 55, 0
5, 43535, Note_on_c, 3, 59, 0
5, 43565, Note_on_c, 3, 58, 100
5, 43565, Control_c, 3, 11, 107
5, 43565, Note_on_c, 3, 55, 100
5, 43574, Control_c, 3, 11, 104
5, 43583, Control_c, 3, 11, 101
5, 43592, Control_c, 3, 11, 98
5, 43601, Control_c, 3, 11, 95
5, 43610, Control_c, 3, 11, 92
5, 43619, Control_c, 3, 11, 89
5, 43655, Note_on_c, 3, 58, 0
5, 43655, Note_on_c, 3, 60, 100
5, 43685, Note_on_c, 3, 60, 0
5, 43685, Note_on_c, 3, 55, 0
5, 43685, Note_on_c, 3, 53, 100
5, 43685, Note_on_c, 3, 57, 100
5, 43715, Note_on_c, 3, 57, 0
5, 43715, Note_on_c, 3, 53, 0
5, 43745, Note_on_c, 3, 62, 100
5, 43745, Note_on_c, 3, 58, 100
5, 43805, Note_on_c, 3, 58, 0
5, 43805, Note_on_c, 3, 62, 0
5, 43805, Note_on_c, 3, 60, 100
5, 43805, Note_on_c, 3, 57, 100
5, 43865, Note_on_c, 3, 57, 0
5, 43865, Note_on_c, 3, 60, 0
5, 43865, Note_on_c, 3, 55, 100
5, 43865, Note_on_c, 3, 58, 100
5, 43920, Note_on_c, 3, 58, 0
5, 43920, Note_on_c, 3, 55, 0
5, 43925, Note_on_c, 3, 57, 100
5, 43925, Note_on_c, 3, 53, 100
5, 44165, Note_on_c, 3, 53, 0
5, 44165, Note_on_c, 3, 57, 0
5, 44165, Note_on_c, 3, 58, 92
5, 44165, Note_on_c, 3, 55, 92
5, 44225, Note_on_c, 3, 55, 0
5, 44225, Note_on_c, 3, 58, 0
5, 44225, Note_on_c, 3, 52, 92
5, 44225, Note_on_c, 3, 55, 92
5, 44265, Control_c, 3, 11, 87
5, 44267, Control_c, 3, 11, 83
5, 44269, Control_c, 3, 11, 79
5, 44271, Control_c, 3, 11, 75
5, 44273, Control_c, 3, 11, 71
5, 44275, Control_c, 3, 11, 67
5, 44277, Control_c, 3, 11, 63
5, 44279, Control_c, 3, 11, 59
5, 44280, Note_on_c, 3, 55, 0
5, 44280, Note_on_c, 3, 52, 0
5, 44281, Control_c, 3, 11, 55
5, 44283, Control_c, 3, 11, 51
5, 44285, Note_on_c, 3, 57, 95
5, 44285, Control_c, 3, 11, 47
5, 44285, Note_on_c, 3, 53, 95
5, 44405, Note_on_c, 3, 53, 0
5, 44405, Note_on_c, 3, 57, 0
5, 44645, Note_on_c, 3, 60, 100
5, 44645, Note_on_c, 3, 48, 100
5, 44880, Note_on_c, 3, 48, 0
5, 44880, Note_on_c, 3, 60, 0
5, 44885, Note_on_c, 3, 60, 100
5, 44885, Note_on_c, 3, 48, 100
5, 44930, Note_on_c, 3, 48, 0
5, 44930, Note_on_c, 3, 60, 0
5, 44945, Note_on_c, 3, 60, 100
5, 44945, Note_on_c, 3, 48, 100
5, 44990, Note_on_c, 3, 48, 0
5, 44990, Note_on_c, 3, 60, 0
5, 45005, Note_on_c, 3, 48, 100
5, 45005, Note_on_c, 3, 60, 100
5, 45065, Note_on_c, 3, 60, 0
5, 45065, Note_on_c, 3, 48, 0
5, 45365, Note_on_c, 3, 60, 100
5, 45365, Note_on_c, 3, 48, 100
5, 45600, Note_on_c, 3, 48, 0
5, 45600, Note_on_c, 3, 60, 0
5, 45605, Note_on_c, 3, 48, 100
5, 45605, Note_on_c, 3, 60, 100
5, 45650, Note_on_c, 3, 60, 0
5, 45650, Note_on_c, 3, 48, 0
5, 45665, Note_on_c, 3, 60, 100
5, 45665, Note_on_c, 3, 48, 100
5, 45710, Note_on_c, 3, 48, 0
5, 45710, Note_on_c, 3, 60, 0
5, 45725, Note_on_c, 3, 48, 100
5, 45725, Note_on_c, 3, 60, 100
5, 45785, Note_on_c, 3, 60, 0
5, 45785, Note_on_c, 3, 48, 0
5, 46385, Control_c, 3, 11, 62
5, 46385, Note_on_c, 3, 55, 88
5, 46385, Note_on_c, 3, 58, 88
5, 46387, Control_c, 3, 11, 65
5, 46390, Control_c, 3, 11, 69
5, 46393, Control_c, 3, 11, 72
5, 46395, Control_c, 3, 11, 75
5, 46398, Control_c, 3, 11, 79
5, 46401, Control_c, 3, 11, 82
5, 46403, Control_c, 3, 11, 85
5, 46445, Note_on_c, 3, 58, 0
5, 46445, Note_on_c, 3, 55, 0
5, 46445, Note_on_c, 3, 53, 100
5, 46445, Note_on_c, 3, 57, 100
5, 46475, Note_on_c, 3, 57, 0
5, 46475, Note_on_c, 3, 53, 0
5, 46505, Note_on_c, 3, 53, 100
5, 46505, Control_c, 3, 11, 42
5, 46505, Note_on_c, 3, 57, 100
5, 46535, Note_on_c, 3, 57, 0
5, 46535, Note_on_c, 3, 53, 0
5, 46565, Note_on_c, 3, 53, 90
5, 46565, Note_on_c, 3, 57, 90
5, 46595, Note_on_c, 3, 57, 0
5, 46595, Note_on_c, 3, 53, 0
5, 46625, Note_on_c, 3, 57, 72
5, 46625, Note_on_c, 3, 53, 72
5, 46705, Control_c, 3, 11, 42
5, 46711, Control_c, 3, 11, 39
5, 46717, Control_c, 3, 11, 36
5, 46723, Control_c, 3, 11, 33
5, 46729, Control_c, 3, 11, 30
5, 46735, Control_c, 3, 11, 27
5, 46741, Control_c, 3, 11, 24
5, 46745, Note_on_c, 3, 53, 0
5, 46745, Note_on_c, 3, 57, 0
5, 46985, Control_c, 3, 121, 0
5, 46985, End_track
6, 0, Start_track
6, 0, MIDI_port, 0
6, 0, Title_t, "Corno I in F"
6, 0, Program_c, 4, 60
6, 0, Control_c, 4, 10, 24
6, 1, Control_c, 4, 121, 0
6, 6, Program_c, 4, 60
6, 11, Pitch_bend_c, 4, 8292
6, 16, Control_c, 4, 11, 47
6, 21, Control_c, 4, 7, 127
6, 26, Control_c, 4, 91, 80
6, 31, Control_c, 4, 93, 0
6, 36, Control_c, 4, 10, 24
6, 1981, Control_c, 4, 11, 37
6, 1981, Note_on_c, 4, 60, 106
6, 1999, Control_c, 4, 11, 40
6, 2017, Control_c, 4, 11, 43
6, 2035, Control_c, 4, 11, 46
6, 2216, Note_on_c, 4, 60, 0
6, 2221, Note_on_c, 4, 60, 106
6, 2251, Note_on_c, 4, 60, 0
6, 2281, Note_on_c, 4, 60, 106
6, 2341, Note_on_c, 4, 60, 0
6, 2341, Note_on_c, 4, 65, 106
6, 2380, Note_on_c, 4, 65, 0
6, 2401, Note_on_c, 4, 65, 106
6, 2440, Note_on_c, 4, 65, 0
6, 2461, Note_on_c, 4, 65, 106
6, 2521, Note_on_c, 4, 65, 0
6, 2521, Note_on_c, 4, 69, 106
6, 2560, Note_on_c, 4, 69, 0
6, 2581, Note_on_c, 4, 69, 106
6, 2620, Note_on_c, 4, 69, 0
6, 2641, Note_on_c, 4, 65, 106
6, 2701, Note_on_c, 4, 65, 0
6, 2701, Note_on_c, 4, 60, 106
6, 2740, Note_on_c, 4, 60, 0
6, 2761, Note_on_c, 4, 60, 106
6, 2800, Note_on_c, 4, 60, 0
6, 2821, Note_on_c, 4, 60, 106
6, 2860, Note_on_c, 4, 60, 0
6, 2881, Note_on_c, 4, 60, 106
6, 2941, Control_c, 4, 11, 42
6, 2956, Control_c, 4, 11, 43
6, 2971, Control_c, 4, 11, 44
6, 2986, Control_c, 4, 11, 45
6, 2996, Note_on_c, 4, 60, 0
6, 3001, Control_c, 4, 11, 46
6, 3001, Note_on_c, 4, 60, 106
6, 3016, Control_c, 4, 11, 47
6, 3031, Control_c, 4, 11, 48
6, 3046, Control_c, 4, 11, 49
6, 3056, Note_on_c, 4, 60, 0
6, 3061, Control_c, 4, 11, 50
6, 3061, Note_on_c, 4, 60, 106
6, 3076, Control_c, 4, 11, 51
6, 3091, Control_c, 4, 11, 52
6, 3106, Note_on_c, 4, 60, 0
6, 3106, Control_c, 4, 11, 53
6, 3121, Control_c, 4, 11, 54
6, 3121, Note_on_c, 4, 60, 106
6, 3136, Control_c, 4, 11, 55
6, 3151, Control_c, 4, 11, 56
6, 3166, Note_on_c, 4, 60, 0
6, 3166, Control_c, 4, 11, 57
6, 3181, Control_c, 4, 11, 58
6, 3181, Note_on_c, 4, 60, 106
6, 3196, Control_c, 4, 11, 59
6, 3211, Control_c, 4, 11, 60
6, 3226, Note_on_c, 4, 60, 0
6, 3226, Control_c, 4, 11, 61
6, 3241, Control_c, 4, 11, 62
6, 3241, Note_on_c, 4, 60, 106
6, 3356, Note_on_c, 4, 60, 0
6, 3361, Note_on_c, 4, 60, 106
6, 3416, Note_on_c, 4, 60, 0
6, 3421, Note_on_c, 4, 60, 96
6, 3450, Note_on_c, 4, 60, 0
6, 3451, Note_on_c, 4, 60, 96
6, 3480, Note_on_c, 4, 60, 0
6, 3481, Note_on_c, 4, 60, 96
6, 3510, Note_on_c, 4, 60, 0
6, 3511, Note_on_c, 4, 60, 96
6, 3540, Note_on_c, 4, 60, 0
6, 3541, Note_on_c, 4, 60, 96
6, 3570, Note_on_c, 4, 60, 0
6, 3571, Note_on_c, 4, 60, 96
6, 3600, Note_on_c, 4, 60, 0
6, 3601, Note_on_c, 4, 60, 96
6, 3630, Note_on_c, 4, 60, 0
6, 3631, Note_on_c, 4, 60, 96
6, 3660, Note_on_c, 4, 60, 0
6, 3661, Note_on_c, 4, 60, 96
6, 3690, Note_on_c, 4, 60, 0
6, 3691, Note_on_c, 4, 60, 96
6, 3720, Note_on_c, 4, 60, 0
6, 3721, Note_on_c, 4, 60, 96
6, 3721, Control_c, 4, 11, 56
6, 3724, Control_c, 4, 11, 60
6, 3727, Control_c, 4, 11, 63
6, 3730, Control_c, 4, 11, 66
6, 3733, Control_c, 4, 11, 70
6, 3749, Control_c, 4, 11, 67
6, 3750, Note_on_c, 4, 60, 0
6, 3751, Note_on_c, 4, 60, 96
6, 3757, Control_c, 4, 11, 64
6, 3766, Control_c, 4, 11, 61
6, 3776, Control_c, 4, 11, 58
6, 3780, Note_on_c, 4, 60, 0
6, 3781, Note_on_c, 4, 60, 96
6, 3810, Note_on_c, 4, 60, 0
6, 3811, Note_on_c, 4, 60, 96
6, 3840, Note_on_c, 4, 60, 0
6, 3841, Note_on_c, 4, 60, 96
6, 3870, Note_on_c, 4, 60, 0
6, 3871, Note_on_c, 4, 60, 96
6, 3900, Note_on_c, 4, 60, 0
6, 3901, Note_on_c, 4, 60, 96
6, 3930, Note_on_c, 4, 60, 0
6, 3931, Note_on_c, 4, 60, 96
6, 3960, Note_on_c, 4, 60, 0
6, 3961, Note_on_c, 4, 60, 96
6, 3961, Control_c, 4, 11, 62
6, 3990, Note_on_c, 4, 60, 0
6, 3991, Note_on_c, 4, 60, 96
6, 4020, Note_on_c, 4, 60, 0
6, 4021, Note_on_c, 4, 60, 96
6, 4050, Note_on_c, 4, 60, 0
6, 4051, Note_on_c, 4, 60, 96
6, 4080, Note_on_c, 4, 60, 0
6, 4081, Note_on_c, 4, 60, 96
6, 4081, Control_c, 4, 11, 62
6, 4084, Control_c, 4, 11, 66
6, 4087, Control_c, 4, 11, 69
6, 4090, Control_c, 4, 11, 72
6, 4093, Control_c, 4, 11, 76
6, 4109, Control_c, 4, 11, 73
6, 4110, Note_on_c, 4, 60, 0
6, 4111, Note_on_c, 4, 60, 96
6, 4117, Control_c, 4, 11, 70
6, 4126, Control_c, 4, 11, 67
6, 4136, Control_c, 4, 11, 64
6, 4140, Note_on_c, 4, 60, 0
6, 4141, Note_on_c, 4, 60, 96
6, 4170, Note_on_c, 4, 60, 0
6, 4171, Note_on_c, 4, 72, 96
6, 4200, Note_on_c, 4, 72, 0
6, 4201, Note_on_c, 4, 72, 96
6, 4230, Note_on_c, 4, 72, 0
6, 4231, Note_on_c, 4, 72, 96
6, 4260, Note_on_c, 4, 72, 0
6, 4261, Note_on_c, 4, 69, 96
6, 4261, Control_c, 4, 11, 68
6, 4264, Control_c, 4, 11, 72
6, 4267, Control_c, 4, 11, 75
6, 4270, Control_c, 4, 11, 78
6, 4273, Control_c, 4, 11, 82
6, 4289, Control_c, 4, 11, 79
6, 4290, Note_on_c, 4, 69, 0
6, 4291, Note_on_c, 4, 65, 96
6, 4297, Control_c, 4, 11, 76
6, 4306, Control_c, 4, 11, 73
6, 4316, Control_c, 4, 11, 70
6, 4320, Note_on_c, 4, 65, 0
6, 4321, Note_on_c, 4, 60, 96
6, 4350, Note_on_c, 4, 60, 0
6, 4351, Note_on_c, 4, 72, 96
6, 4380, Note_on_c, 4, 72, 0
6, 4381, Note_on_c, 4, 72, 96
6, 4410, Note_on_c, 4, 72, 0
6, 4411, Note_on_c, 4, 72, 96
6, 4440, Note_on_c, 4, 72, 0
6, 4441, Control_c, 4, 11, 89
6, 4441, Note_on_c, 4, 69, 96
6, 4457, Control_c, 4, 11, 86
6, 4470, Note_on_c, 4, 69, 0
6, 4471, Note_on_c, 4, 65, 96
6, 4474, Control_c, 4, 11, 83
6, 4490, Control_c, 4, 11, 80
6, 4500, Note_on_c, 4, 65, 0
6, 4501, Control_c, 4, 11, 87
6, 4501, Note_on_c, 4, 60, 96
6, 4540, Note_on_c, 4, 60, 0
6, 4561, Note_on_c, 4, 67, 87
6, 4600, Note_on_c, 4, 67, 0
6, 4621, Note_on_c, 4, 67, 84
6, 4660, Note_on_c, 4, 67, 0
6, 4681, Note_on_c, 4, 67, 73
6, 4716, Control_c, 4, 11, 87
6, 4718, Control_c, 4, 11, 84
6, 4721, Control_c, 4, 11, 81
6, 4724, Control_c, 4, 11, 78
6, 4727, Control_c, 4, 11, 75
6, 4730, Control_c, 4, 11, 72
6, 4733, Control_c, 4, 11, 69
6, 4736, Control_c, 4, 11, 66
6, 4739, Control_c, 4, 11, 63
6, 4741, Note_on_c, 4, 67, 0
6, 5941, Control_c, 4, 11, 47
6, 5941, Note_on_c, 4, 67, 106
6, 6056, Note_on_c, 4, 67, 0
6, 6061, Note_on_c, 4, 67, 106
6, 6116, Note_on_c, 4, 67, 0
6, 6121, Note_on_c, 4, 67, 106
6, 6181, Note_on_c, 4, 67, 0
6, 7441, Note_on_c, 4, 67, 106
6, 7441, Control_c, 4, 11, 47
6, 7496, Note_on_c, 4, 67, 0
6, 7501, Note_on_c, 4, 67, 106
6, 7556, Note_on_c, 4, 67, 0
6, 7561, Note_on_c, 4, 67, 106
6, 7621, Note_on_c, 4, 67, 0
6, 9421, Note_on_c, 4, 67, 106
6, 9421, Control_c, 4, 11, 67
6, 9476, Note_on_c, 4, 67, 0
6, 9481, Control_c, 4, 11, 72
6, 9481, Note_on_c, 4, 67, 86
6, 9481, Control_c, 4, 11, 67
6, 9485, Control_c, 4, 11, 71
6, 9487, Control_c, 4, 11, 66
6, 9489, Control_c, 4, 11, 70
6, 9493, Control_c, 4, 11, 65
6, 9493, Control_c, 4, 11, 69
6, 9499, Control_c, 4, 11, 64
6, 9501, Control_c, 4, 11, 67
6, 9505, Control_c, 4, 11, 63
6, 9505, Control_c, 4, 11, 66
6, 9511, Control_c, 4, 11, 62
6, 9529, Control_c, 4, 11, 60
6, 9536, Note_on_c, 4, 67, 0
6, 9541, Control_c, 4, 11, 57
6, 9541, Note_on_c, 4, 67, 70
6, 9571, Control_c, 4, 11, 57
6, 9575, Control_c, 4, 11, 54
6, 9579, Control_c, 4, 11, 51
6, 9584, Control_c, 4, 11, 48
6, 9588, Control_c, 4, 11, 45
6, 9592, Control_c, 4, 11, 42
6, 9596, Note_on_c, 4, 67, 0
6, 9597, Control_c, 4, 11, 39
6, 9781, Control_c, 4, 11, 37
6, 9781, Note_on_c, 4, 67, 106
6, 9841, Note_on_c, 4, 67, 0
6, 9901, Note_on_c, 4, 67, 106
6, 9961, Note_on_c, 4, 67, 0
6, 10021, Note_on_c, 4, 67, 106
6, 10081, Note_on_c, 4, 67, 0
6, 10141, Note_on_c, 4, 67, 106
6, 10201, Note_on_c, 4, 67, 0
6, 10261, Note_on_c, 4, 67, 106
6, 10321, Note_on_c, 4, 67, 0
6, 10381, Note_on_c, 4, 67, 106
6, 10441, Note_on_c, 4, 67, 0
6, 10501, Note_on_c, 4, 67, 106
6, 10561, Note_on_c, 4, 67, 0
6, 10621, Note_on_c, 4, 67, 106
6, 10681, Note_on_c, 4, 67, 0
6, 10741, Note_on_c, 4, 67, 106
6, 10801, Note_on_c, 4, 67, 0
6, 10861, Note_on_c, 4, 67, 106
6, 10921, Note_on_c, 4, 67, 0
6, 10921, Note_on_c, 4, 67, 106
6, 10981, Note_on_c, 4, 67, 0
6, 10981, Note_on_c, 4, 67, 91
6, 11016, Control_c, 4, 11, 37
6, 11023, Control_c, 4, 11, 34
6, 11030, Control_c, 4, 11, 31
6, 11037, Control_c, 4, 11, 28
6, 11041, Note_on_c, 4, 67, 0
6, 11401, Control_c, 4, 11, 47
6, 11401, Note_on_c, 4, 60, 101
6, 11431, Note_on_c, 4, 60, 0
6, 11461, Note_on_c, 4, 60, 87
6, 11491, Note_on_c, 4, 60, 0
6, 11521, Note_on_c, 4, 60, 74
6, 11556, Control_c, 4, 11, 47
6, 11563, Control_c, 4, 11, 44
6, 11570, Control_c, 4, 11, 41
6, 11577, Control_c, 4, 11, 38
6, 11581, Note_on_c, 4, 60, 0
6, 13501, Control_c, 4, 11, 37
6, 13501, Note_on_c, 4, 60, 106
6, 13519, Control_c, 4, 11, 40
6, 13537, Control_c, 4, 11, 43
6, 13555, Control_c, 4, 11, 46
6, 13736, Note_on_c, 4, 60, 0
6, 13741, Note_on_c, 4, 60, 106
6, 13771, Note_on_c, 4, 60, 0
6, 13801, Note_on_c, 4, 60, 106
6, 13861, Note_on_c, 4, 60, 0
6, 13861, Note_on_c, 4, 65, 106
6, 13900, Note_on_c, 4, 65, 0
6, 13921, Note_on_c, 4, 65, 106
6, 13960, Note_on_c, 4, 65, 0
6, 13981, Note_on_c, 4, 65, 106
6, 14041, Note_on_c, 4, 65, 0
6, 14041, Note_on_c, 4, 69, 106
6, 14080, Note_on_c, 4, 69, 0
6, 14101, Note_on_c, 4, 69, 106
6, 14140, Note_on_c, 4, 69, 0
6, 14161, Note_on_c, 4, 65, 106
6, 14221, Note_on_c, 4, 65, 0
6, 14221, Note_on_c, 4, 60, 106
6, 14260, Note_on_c, 4, 60, 0
6, 14281, Note_on_c, 4, 60, 106
6, 14320, Note_on_c, 4, 60, 0
6, 14341, Note_on_c, 4, 60, 106
6, 14380, Note_on_c, 4, 60, 0
6, 14401, Note_on_c, 4, 60, 106
6, 14461, Control_c, 4, 11, 42
6, 14476, Control_c, 4, 11, 43
6, 14491, Control_c, 4, 11, 44
6, 14506, Control_c, 4, 11, 45
6, 14516, Note_on_c, 4, 60, 0
6, 14521, Control_c, 4, 11, 46
6, 14521, Note_on_c, 4, 60, 106
6, 14536, Control_c, 4, 11, 47
6, 14551, Control_c, 4, 11, 48
6, 14566, Control_c, 4, 11, 49
6, 14576, Note_on_c, 4, 60, 0
6, 14581, Control_c, 4, 11, 50
6, 14581, Note_on_c, 4, 60, 106
6, 14596, Control_c, 4, 11, 51
6, 14611, Control_c, 4, 11, 52
6, 14626, Note_on_c, 4, 60, 0
6, 14626, Control_c, 4, 11, 53
6, 14641, Note_on_c, 4, 60, 106
6, 14641, Control_c, 4, 11, 54
6, 14656, Control_c, 4, 11, 55
6, 14671, Control_c, 4, 11, 56
6, 14686, Note_on_c, 4, 60, 0
6, 14686, Control_c, 4, 11, 57
6, 14701, Note_on_c, 4, 60, 106
6, 14701, Control_c, 4, 11, 58
6, 14716, Control_c, 4, 11, 59
6, 14731, Control_c, 4, 11, 60
6, 14746, Note_on_c, 4, 60, 0
6, 14746, Control_c, 4, 11, 61
6, 14761, Note_on_c, 4, 60, 106
6, 14761, Control_c, 4, 11, 62
6, 14876, Note_on_c, 4, 60, 0
6, 14881, Note_on_c, 4, 60, 106
6, 14936, Note_on_c, 4, 60, 0
6, 14941, Note_on_c, 4, 60, 96
6, 14970, Note_on_c, 4, 60, 0
6, 14971, Note_on_c, 4, 60, 96
6, 15000, Note_on_c, 4, 60, 0
6, 15001, Note_on_c, 4, 60, 96
6, 15030, Note_on_c, 4, 60, 0
6, 15031, Note_on_c, 4, 60, 96
6, 15060, Note_on_c, 4, 60, 0
6, 15061, Note_on_c, 4, 60, 96
6, 15090, Note_on_c, 4, 60, 0
6, 15091, Note_on_c, 4, 60, 96
6, 15120, Note_on_c, 4, 60, 0
6, 15121, Note_on_c, 4, 60, 96
6, 15150, Note_on_c, 4, 60, 0
6, 15151, Note_on_c, 4, 60, 96
6, 15180, Note_on_c, 4, 60, 0
6, 15181, Note_on_c, 4, 60, 96
6, 15210, Note_on_c, 4, 60, 0
6, 15211, Note_on_c, 4, 60, 96
6, 15240, Note_on_c, 4, 60, 0
6, 15241, Control_c, 4, 11, 56
6, 15241, Note_on_c, 4, 60, 96
6, 15244, Control_c, 4, 11, 60
6, 15247, Control_c, 4, 11, 63
6, 15250, Control_c, 4, 11, 66
6, 15253, Control_c, 4, 11, 70
6, 15269, Control_c, 4, 11, 67
6, 15270, Note_on_c, 4, 60, 0
6, 15271, Note_on_c, 4, 60, 96
6, 15277, Control_c, 4, 11, 64
6, 15286, Control_c, 4, 11, 61
6, 15296, Control_c, 4, 11, 58
6, 15300, Note_on_c, 4, 60, 0
6, 15301, Note_on_c, 4, 60, 96
6, 15330, Note_on_c, 4, 60, 0
6, 15331, Note_on_c, 4, 60, 96
6, 15360, Note_on_c, 4, 60, 0
6, 15361, Note_on_c, 4, 60, 96
6, 15390, Note_on_c, 4, 60, 0
6, 15391, Note_on_c, 4, 60, 96
6, 15420, Note_on_c, 4, 60, 0
6, 15421, Note_on_c, 4, 60, 96
6, 15450, Note_on_c, 4, 60, 0
6, 15451, Note_on_c, 4, 60, 96
6, 15480, Note_on_c, 4, 60, 0
6, 15481, Note_on_c, 4, 60, 96
6, 15481, Control_c, 4, 11, 62
6, 15510, Note_on_c, 4, 60, 0
6, 15511, Note_on_c, 4, 60, 96
6, 15540, Note_on_c, 4, 60, 0
6, 15541, Note_on_c, 4, 60, 96
6, 15570, Note_on_c, 4, 60, 0
6, 15571, Note_on_c, 4, 60, 96
6, 15600, Note_on_c, 4, 60, 0
6, 15601, Note_on_c, 4, 60, 96
6, 15601, Control_c, 4, 11, 62
6, 15604, Control_c, 4, 11, 66
6, 15607, Control_c, 4, 11, 69
6, 15610, Control_c, 4, 11, 72
6, 15613, Control_c, 4, 11, 76
6, 15629, Control_c, 4, 11, 73
6, 15630, Note_on_c, 4, 60, 0
6, 15631, Note_on_c, 4, 60, 96
6, 15637, Control_c, 4, 11, 70
6, 15646, Control_c, 4, 11, 67
6, 15656, Control_c, 4, 11, 64
6, 15660, Note_on_c, 4, 60, 0
6, 15661, Note_on_c, 4, 60, 96
6, 15690, Note_on_c, 4, 60, 0
6, 15691, Note_on_c, 4, 72, 96
6, 15720, Note_on_c, 4, 72, 0
6, 15721, Note_on_c, 4, 72, 96
6, 15750, Note_on_c, 4, 72, 0
6, 15751, Note_on_c, 4, 72, 96
6, 15780, Note_on_c, 4, 72, 0
6, 15781, Note_on_c, 4, 69, 96
6, 15781, Control_c, 4, 11, 68
6, 15784, Control_c, 4, 11, 72
6, 15787, Control_c, 4, 11, 75
6, 15790, Control_c, 4, 11, 78
6, 15793, Control_c, 4, 11, 82
6, 15809, Control_c, 4, 11, 79
6, 15810, Note_on_c, 4, 69, 0
6, 15811, Note_on_c, 4, 65, 96
6, 15817, Control_c, 4, 11, 76
6, 15826, Control_c, 4, 11, 73
6, 15836, Control_c, 4, 11, 70
6, 15840, Note_on_c, 4, 65, 0
6, 15841, Note_on_c, 4, 60, 96
6, 15870, Note_on_c, 4, 60, 0
6, 15871, Note_on_c, 4, 72, 96
6, 15900, Note_on_c, 4, 72, 0
6, 15901, Note_on_c, 4, 72, 96
6, 15930, Note_on_c, 4, 72, 0
6, 15931, Note_on_c, 4, 72, 96
6, 15960, Note_on_c, 4, 72, 0
6, 15961, Control_c, 4, 11, 89
6, 15961, Note_on_c, 4, 69, 96
6, 15977, Control_c, 4, 11, 86
6, 15990, Note_on_c, 4, 69, 0
6, 15991, Note_on_c, 4, 65, 96
6, 15994, Control_c, 4, 11, 83
6, 16010, Control_c, 4, 11, 80
6, 16020, Note_on_c, 4, 65, 0
6, 16021, Note_on_c, 4, 60, 96
6, 16021, Control_c, 4, 11, 87
6, 16060, Note_on_c, 4, 60, 0
6, 16081, Note_on_c, 4, 67, 87
6, 16120, Note_on_c, 4, 67, 0
6, 16141, Note_on_c, 4, 67, 84
6, 16180, Note_on_c, 4, 67, 0
6, 16201, Note_on_c, 4, 67, 81
6, 16236, Control_c, 4, 11, 87
6, 16238, Control_c, 4, 11, 84
6, 16241, Control_c, 4, 11, 81
6, 16244, Control_c, 4, 11, 78
6, 16247, Control_c, 4, 11, 75
6, 16250, Control_c, 4, 11, 72
6, 16253, Control_c, 4, 11, 69
6, 16256, Control_c, 4, 11, 66
6, 16259, Control_c, 4, 11, 63
6, 16261, Note_on_c, 4, 67, 0
6, 17461, Note_on_c, 4, 67, 106
6, 17461, Control_c, 4, 11, 47
6, 17576, Note_on_c, 4, 67, 0
6, 17581, Note_on_c, 4, 67, 106
6, 17636, Note_on_c, 4, 67, 0
6, 17641, Note_on_c, 4, 67, 106
6, 17701, Note_on_c, 4, 67, 0
6, 18961, Control_c, 4, 11, 47
6, 18961, Note_on_c, 4, 67, 106
6, 19016, Note_on_c, 4, 67, 0
6, 19021, Note_on_c, 4, 67, 106
6, 19076, Note_on_c, 4, 67, 0
6, 19081, Note_on_c, 4, 67, 106
6, 19141, Note_on_c, 4, 67, 0
6, 20941, Control_c, 4, 11, 67
6, 20941, Note_on_c, 4, 67, 106
6, 20996, Note_on_c, 4, 67, 0
6, 21001, Control_c, 4, 11, 67
6, 21001, Control_c, 4, 11, 72
6, 21001, Note_on_c, 4, 67, 86
6, 21007, Control_c, 4, 11, 66
6, 21009, Control_c, 4, 11, 70
6, 21013, Control_c, 4, 11, 65
6, 21013, Control_c, 4, 11, 69
6, 21019, Control_c, 4, 11, 64
6, 21021, Control_c, 4, 11, 67
6, 21025, Control_c, 4, 11, 63
6, 21049, Control_c, 4, 11, 60
6, 21056, Note_on_c, 4, 67, 0
6, 21061, Note_on_c, 4, 67, 70
6, 21061, Control_c, 4, 11, 57
6, 21091, Control_c, 4, 11, 57
6, 21095, Control_c, 4, 11, 54
6, 21099, Control_c, 4, 11, 51
6, 21104, Control_c, 4, 11, 48
6, 21108, Control_c, 4, 11, 45
6, 21112, Control_c, 4, 11, 42
6, 21116, Note_on_c, 4, 67, 0
6, 21117, Control_c, 4, 11, 39
6, 21301, Note_on_c, 4, 67, 106
6, 21301, Control_c, 4, 11, 37
6, 21361, Note_on_c, 4, 67, 0
6, 21421, Note_on_c, 4, 67, 106
6, 21481, Note_on_c, 4, 67, 0
6, 21541, Note_on_c, 4, 67, 106
6, 21601, Note_on_c, 4, 67, 0
6, 21661, Note_on_c, 4, 67, 106
6, 21721, Note_on_c, 4, 67, 0
6, 21781, Note_on_c, 4, 67, 106
6, 21841, Note_on_c, 4, 67, 0
6, 21901, Note_on_c, 4, 67, 106
6, 21961, Note_on_c, 4, 67, 0
6, 22021, Note_on_c, 4, 67, 106
6, 22081, Note_on_c, 4, 67, 0
6, 22141, Note_on_c, 4, 67, 106
6, 22201, Note_on_c, 4, 67, 0
6, 22261, Note_on_c, 4, 67, 106
6, 22321, Note_on_c, 4, 67, 0
6, 22381, Note_on_c, 4, 67, 106
6, 22441, Note_on_c, 4, 67, 0
6, 22441, Note_on_c, 4, 67, 106
6, 22501, Note_on_c, 4, 67, 0
6, 22501, Note_on_c, 4, 67, 91
6, 22536, Control_c, 4, 11, 37
6, 22543, Control_c, 4, 11, 34
6, 22550, Control_c, 4, 11, 31
6, 22557, Control_c, 4, 11, 28
6, 22561, Note_on_c, 4, 67, 0
6, 22921, Note_on_c, 4, 60, 101
6, 22921, Control_c, 4, 11, 47
6, 22951, Note_on_c, 4, 60, 0
6, 22981, Note_on_c, 4, 60, 87
6, 23011, Note_on_c, 4, 60, 0
6, 23041, Note_on_c, 4, 60, 82
6, 23076, Control_c, 4, 11, 47
6, 23083, Control_c, 4, 11, 44
6, 23090, Control_c, 4, 11, 41
6, 23097, Control_c, 4, 11, 38
6, 23101, Note_on_c, 4, 60, 0
6, 25021, Note_on_c, 4, 65, 106
6, 25021, Control_c, 4, 11, 87
6, 25024, Control_c, 4, 11, 84
6, 25027, Control_c, 4, 11, 81
6, 25031, Control_c, 4, 11, 78
6, 25034, Control_c, 4, 11, 75
6, 25037, Control_c, 4, 11, 72
6, 25041, Control_c, 4, 11, 69
6, 25044, Control_c, 4, 11, 66
6, 25048, Control_c, 4, 11, 63
6, 25051, Control_c, 4, 11, 60
6, 25054, Control_c, 4, 11, 57
6, 25058, Control_c, 4, 11, 54
6, 25061, Control_c, 4, 11, 51
6, 25064, Control_c, 4, 11, 48
6, 25201, Note_on_c, 4, 65, 0
6, 25381, Note_on_c, 4, 65, 106
6, 25381, Control_c, 4, 11, 87
6, 25384, Control_c, 4, 11, 84
6, 25387, Control_c, 4, 11, 81
6, 25391, Control_c, 4, 11, 78
6, 25394, Control_c, 4, 11, 75
6, 25397, Control_c, 4, 11, 72
6, 25401, Control_c, 4, 11, 69
6, 25404, Control_c, 4, 11, 66
6, 25408, Control_c, 4, 11, 63
6, 25411, Control_c, 4, 11, 60
6, 25414, Control_c, 4, 11, 57
6, 25418, Control_c, 4, 11, 54
6, 25421, Control_c, 4, 11, 51
6, 25424, Control_c, 4, 11, 48
6, 25561, Note_on_c, 4, 65, 0
6, 25741, Note_on_c, 4, 65, 106
6, 25771, Note_on_c, 4, 65, 0
6, 25801, Control_c, 4, 11, 67
6, 25801, Note_on_c, 4, 65, 106
6, 25804, Control_c, 4, 11, 70
6, 25807, Control_c, 4, 11, 73
6, 25810, Control_c, 4, 11, 76
6, 25816, Control_c, 4, 11, 73
6, 25820, Control_c, 4, 11, 70
6, 25823, Control_c, 4, 11, 67
6, 25826, Control_c, 4, 11, 64
6, 25830, Control_c, 4, 11, 61
6, 25833, Control_c, 4, 11, 58
6, 25837, Control_c, 4, 11, 55
6, 25840, Control_c, 4, 11, 52
6, 25843, Control_c, 4, 11, 49
6, 25981, Note_on_c, 4, 65, 0
6, 25981, Control_c, 4, 11, 67
6, 25981, Note_on_c, 4, 65, 106
6, 25984, Control_c, 4, 11, 70
6, 25987, Control_c, 4, 11, 73
6, 25990, Control_c, 4, 11, 76
6, 25996, Control_c, 4, 11, 73
6, 26000, Control_c, 4, 11, 70
6, 26003, Control_c, 4, 11, 67
6, 26006, Control_c, 4, 11, 64
6, 26010, Control_c, 4, 11, 61
6, 26013, Control_c, 4, 11, 58
6, 26017, Control_c, 4, 11, 55
6, 26020, Control_c, 4, 11, 52
6, 26023, Control_c, 4, 11, 49
6, 26101, Note_on_c, 4, 65, 0
6, 26101, Note_on_c, 4, 60, 106
6, 26131, Note_on_c, 4, 60, 0
6, 26161, Note_on_c, 4, 60, 106
6, 26191, Note_on_c, 4, 60, 0
6, 26221, Note_on_c, 4, 60, 106
6, 26251, Note_on_c, 4, 60, 0
6, 26281, Note_on_c, 4, 60, 106
6, 26311, Note_on_c, 4, 60, 0
6, 26341, Note_on_c, 4, 60, 96
6, 26371, Note_on_c, 4, 60, 0
6, 26401, Control_c, 4, 11, 87
6, 26401, Note_on_c, 4, 65, 106
6, 26461, Note_on_c, 4, 65, 0
6, 26461, Note_on_c, 4, 60, 106
6, 26491, Note_on_c, 4, 60, 0
6, 26521, Note_on_c, 4, 60, 106
6, 26551, Note_on_c, 4, 60, 0
6, 26581, Control_c, 4, 11, 47
6, 26581, Note_on_c, 4, 60, 106
6, 26611, Note_on_c, 4, 60, 0
6, 26641, Note_on_c, 4, 60, 106
6, 26671, Note_on_c, 4, 60, 0
6, 26701, Note_on_c, 4, 60, 96
6, 26731, Note_on_c, 4, 60, 0
6, 26761, Note_on_c, 4, 65, 106
6, 26761, Control_c, 4, 11, 87
6, 26821, Note_on_c, 4, 65, 0
6, 26821, Note_on_c, 4, 60, 106
6, 26851, Note_on_c, 4, 60, 0
6, 27001, Note_on_c, 4, 60, 106
6, 27001, Control_c, 4, 11, 37
6, 27061, Note_on_c, 4, 60, 0
6, 27061, Note_on_c, 4, 60, 106
6, 27104, Note_on_c, 4, 60, 0
6, 27241, Note_on_c, 4, 60, 106
6, 27301, Note_on_c, 4, 60, 0
6, 27301, Note_on_c, 4, 60, 106
6, 27344, Note_on_c, 4, 60, 0
6, 27481, Note_on_c, 4, 60, 106
6, 27531, Note_on_c, 4, 60, 0
6, 27541, Note_on_c, 4, 60, 106
6, 27579, Note_on_c, 4, 60, 0
6, 27601, Note_on_c, 4, 60, 106
6, 27646, Note_on_c, 4, 60, 0
6, 27661, Note_on_c, 4, 60, 106
6, 27699, Note_on_c, 4, 60, 0
6, 27721, Note_on_c, 4, 60, 106
6, 27766, Note_on_c, 4, 60, 0
6, 27781, Note_on_c, 4, 60, 106
6, 27819, Note_on_c, 4, 60, 0
6, 27841, Note_on_c, 4, 60, 106
6, 27886, Note_on_c, 4, 60, 0
6, 27901, Note_on_c, 4, 60, 106
6, 27926, Note_on_c, 4, 60, 0
6, 27931, Note_on_c, 4, 60, 106
6, 27956, Note_on_c, 4, 60, 0
6, 27961, Control_c, 4, 11, 37
6, 27961, Note_on_c, 4, 60, 106
6, 27979, Control_c, 4, 11, 40
6, 27986, Note_on_c, 4, 60, 0
6, 27991, Note_on_c, 4, 60, 106
6, 27997, Control_c, 4, 11, 43
6, 28015, Control_c, 4, 11, 46
6, 28016, Note_on_c, 4, 60, 0
6, 28021, Note_on_c, 4, 60, 106
6, 28033, Control_c, 4, 11, 49
6, 28046, Note_on_c, 4, 60, 0
6, 28051, Note_on_c, 4, 60, 106
6, 28051, Control_c, 4, 11, 52
6, 28069, Control_c, 4, 11, 55
6, 28076, Note_on_c, 4, 60, 0
6, 28081, Note_on_c, 4, 60, 106
6, 28087, Control_c, 4, 11, 58
6, 28105, Control_c, 4, 11, 61
6, 28106, Note_on_c, 4, 60, 0
6, 28111, Note_on_c, 4, 60, 106
6, 28123, Control_c, 4, 11, 64
6, 28136, Note_on_c, 4, 60, 0
6, 28141, Note_on_c, 4, 60, 106
6, 28141, Control_c, 4, 11, 67
6, 28159, Control_c, 4, 11, 70
6, 28166, Note_on_c, 4, 60, 0
6, 28171, Note_on_c, 4, 60, 106
6, 28177, Control_c, 4, 11, 73
6, 28195, Control_c, 4, 11, 76
6, 28196, Note_on_c, 4, 60, 0
6, 28201, Note_on_c, 4, 60, 106
6, 28213, Control_c, 4, 11, 79
6, 28226, Note_on_c, 4, 60, 0
6, 28231, Control_c, 4, 11, 82
6, 28231, Note_on_c, 4, 60, 106
6, 28249, Control_c, 4, 11, 85
6, 28256, Note_on_c, 4, 60, 0
6, 28261, Note_on_c, 4, 60, 106
6, 28421, Control_c, 4, 11, 87
6, 28422, Control_c, 4, 11, 84
6, 28424, Control_c, 4, 11, 80
6, 28426, Control_c, 4, 11, 76
6, 28428, Control_c, 4, 11, 72
6, 28430, Control_c, 4, 11, 68
6, 28431, Control_c, 4, 11, 65
6, 28433, Control_c, 4, 11, 61
6, 28435, Control_c, 4, 11, 57
6, 28437, Control_c, 4, 11, 53
6, 28439, Control_c, 4, 11, 49
6, 28441, Note_on_c, 4, 60, 0
6, 28621, Control_c, 4, 11, 87
6, 28621, Note_on_c, 4, 67, 106
6, 28781, Control_c, 4, 11, 87
6, 28782, Control_c, 4, 11, 84
6, 28784, Control_c, 4, 11, 80
6, 28786, Control_c, 4, 11, 76
6, 28788, Control_c, 4, 11, 72
6, 28790, Control_c, 4, 11, 68
6, 28791, Control_c, 4, 11, 65
6, 28793, Control_c, 4, 11, 61
6, 28795, Control_c, 4, 11, 57
6, 28797, Control_c, 4, 11, 53
6, 28799, Control_c, 4, 11, 49
6, 28801, Note_on_c, 4, 67, 0
6, 31801, Control_c, 4, 11, 37
6, 31801, Note_on_c, 4, 60, 91
6, 31819, Control_c, 4, 11, 40
6, 31837, Control_c, 4, 11, 43
6, 31855, Control_c, 4, 11, 46
6, 31861, Note_on_c, 4, 60, 0
6, 31861, Note_on_c, 4, 65, 106
6, 31900, Note_on_c, 4, 65, 0
6, 31921, Note_on_c, 4, 65, 106
6, 31960, Note_on_c, 4, 65, 0
6, 31981, Note_on_c, 4, 65, 106
6, 32041, Note_on_c, 4, 65, 0
6, 32041, Note_on_c, 4, 69, 106
6, 32080, Note_on_c, 4, 69, 0
6, 32101, Note_on_c, 4, 69, 106
6, 32140, Note_on_c, 4, 69, 0
6, 32161, Note_on_c, 4, 60, 106
6, 32221, Note_on_c, 4, 60, 0
6, 32221, Note_on_c, 4, 60, 106
6, 32401, Note_on_c, 4, 60, 0
6, 32401, Note_on_c, 4, 60, 106
6, 32521, Note_on_c, 4, 60, 0
6, 32521, Note_on_c, 4, 60, 106
6, 32581, Note_on_c, 4, 60, 0
6, 32581, Note_on_c, 4, 60, 106
6, 32581, Control_c, 4, 11, 47
6, 32601, Control_c, 4, 11, 48
6, 32621, Control_c, 4, 11, 49
6, 32641, Note_on_c, 4, 60, 0
6, 32641, Note_on_c, 4, 60, 106
6, 32641, Control_c, 4, 11, 50
6, 32661, Control_c, 4, 11, 51
6, 32681, Control_c, 4, 11, 52
6, 32701, Note_on_c, 4, 60, 0
6, 32701, Control_c, 4, 11, 53
6, 32701, Note_on_c, 4, 60, 106
6, 32721, Control_c, 4, 11, 54
6, 32741, Control_c, 4, 11, 55
6, 32761, Note_on_c, 4, 60, 0
6, 32761, Control_c, 4, 11, 56
6, 32761, Note_on_c, 4, 60, 106
6, 32781, Control_c, 4, 11, 57
6, 32801, Control_c, 4, 11, 58
6, 32821, Control_c, 4, 11, 59
6, 32841, Control_c, 4, 11, 60
6, 32861, Control_c, 4, 11, 61
6, 32881, Note_on_c, 4, 60, 0
6, 32881, Note_on_c, 4, 60, 106
6, 32881, Control_c, 4, 11, 62
6, 32941, Note_on_c, 4, 60, 0
6, 32941, Note_on_c, 4, 60, 106
6, 33001, Note_on_c, 4, 60, 0
6, 33061, Note_on_c, 4, 67, 96
6, 33121, Note_on_c, 4, 67, 0
6, 33121, Note_on_c, 4, 69, 96
6, 33181, Note_on_c, 4, 69, 0
6, 33241, Note_on_c, 4, 69, 96
6, 33241, Control_c, 4, 11, 82
6, 33250, Control_c, 4, 11, 79
6, 33259, Control_c, 4, 11, 76
6, 33268, Control_c, 4, 11, 73
6, 33277, Control_c, 4, 11, 70
6, 33286, Control_c, 4, 11, 67
6, 33295, Control_c, 4, 11, 64
6, 33301, Note_on_c, 4, 69, 0
6, 33301, Note_on_c, 4, 67, 96
6, 33361, Note_on_c, 4, 67, 0
6, 33421, Note_on_c, 4, 67, 96
6, 33481, Note_on_c, 4, 67, 0
6, 33481, Note_on_c, 4, 69, 96
6, 33541, Note_on_c, 4, 69, 0
6, 33601, Note_on_c, 4, 69, 96
6, 33601, Control_c, 4, 11, 87
6, 33610, Control_c, 4, 11, 84
6, 33619, Control_c, 4, 11, 81
6, 33628, Control_c, 4, 11, 78
6, 33637, Control_c, 4, 11, 75
6, 33646, Control_c, 4, 11, 72
6, 33655, Control_c, 4, 11, 69
6, 33661, Note_on_c, 4, 69, 0
6, 33661, Note_on_c, 4, 67, 96
6, 33721, Note_on_c, 4, 67, 0
6, 33781, Note_on_c, 4, 69, 106
6, 33781, Control_c, 4, 11, 92
6, 33790, Control_c, 4, 11, 89
6, 33799, Control_c, 4, 11, 86
6, 33808, Control_c, 4, 11, 83
6, 33817, Control_c, 4, 11, 80
6, 33826, Control_c, 4, 11, 77
6, 33835, Control_c, 4, 11, 74
6, 33841, Note_on_c, 4, 69, 0
6, 33841, Note_on_c, 4, 67, 106
6, 33901, Note_on_c, 4, 67, 0
6, 33961, Note_on_c, 4, 69, 106
6, 33961, Control_c, 4, 11, 87
6, 34021, Note_on_c, 4, 69, 0
6, 34021, Note_on_c, 4, 67, 106
6, 34051, Note_on_c, 4, 67, 0
6, 34081, Note_on_c, 4, 67, 96
6, 34111, Note_on_c, 4, 67, 0
6, 34141, Note_on_c, 4, 67, 93
6, 34171, Note_on_c, 4, 67, 0
6, 34201, Note_on_c, 4, 67, 81
6, 34231, Control_c, 4, 11, 87
6, 34235, Control_c, 4, 11, 84
6, 34239, Control_c, 4, 11, 81
6, 34244, Control_c, 4, 11, 78
6, 34248, Control_c, 4, 11, 75
6, 34252, Control_c, 4, 11, 72
6, 34257, Control_c, 4, 11, 69
6, 34261, Note_on_c, 4, 67, 0
6, 36181, Note_on_c, 4, 67, 106
6, 36181, Control_c, 4, 11, 27
6, 36184, Control_c, 4, 11, 30
6, 36187, Control_c, 4, 11, 33
6, 36190, Control_c, 4, 11, 36
6, 36193, Control_c, 4, 11, 39
6, 36196, Control_c, 4, 11, 42
6, 36199, Control_c, 4, 11, 45
6, 36241, Note_on_c, 4, 67, 0
6, 36301, Note_on_c, 4, 67, 106
6, 36361, Note_on_c, 4, 67, 0
6, 36361, Note_on_c, 4, 69, 106
6, 36391, Note_on_c, 4, 69, 0
6, 36901, Note_on_c, 4, 65, 106
6, 37021, Note_on_c, 4, 65, 0
6, 37021, Note_on_c, 4, 67, 106
6, 37081, Note_on_c, 4, 67, 0
6, 37081, Note_on_c, 4, 65, 106
6, 37101, Control_c, 4, 11, 47
6, 37105, Control_c, 4, 11, 44
6, 37110, Control_c, 4, 11, 41
6, 37115, Control_c, 4, 11, 38
6, 37119, Control_c, 4, 11, 35
6, 37124, Control_c, 4, 11, 32
6, 37129, Control_c, 4, 11, 29
6, 37133, Control_c, 4, 11, 26
6, 37138, Control_c, 4, 11, 23
6, 37141, Note_on_c, 4, 65, 0
6, 37801, Control_c, 4, 11, 77
6, 37801, Note_on_c, 4, 65, 66
6, 37846, Note_on_c, 4, 65, 0
6, 37846, Note_on_c, 4, 72, 70
6, 37846, Control_c, 4, 11, 87
6, 37857, Note_on_c, 4, 72, 0
6, 37861, Note_on_c, 4, 72, 82
6, 38026, Note_on_c, 4, 72, 0
6, 38026, Note_on_c, 4, 69, 82
6, 38037, Note_on_c, 4, 69, 0
6, 38041, Note_on_c, 4, 69, 82
6, 38206, Note_on_c, 4, 69, 0
6, 38206, Note_on_c, 4, 69, 82
6, 38217, Note_on_c, 4, 69, 0
6, 38221, Note_on_c, 4, 69, 82
6, 38371, Note_on_c, 4, 69, 0
6, 38401, Control_c, 4, 11, 102
6, 38401, Note_on_c, 4, 65, 96
6, 38412, Control_c, 4, 11, 99
6, 38424, Control_c, 4, 11, 96
6, 38436, Control_c, 4, 11, 93
6, 38448, Control_c, 4, 11, 90
6, 38460, Control_c, 4, 11, 87
6, 38551, Note_on_c, 4, 65, 0
6, 38941, Note_on_c, 4, 65, 106
6, 39001, Note_on_c, 4, 65, 0
6, 39001, Note_on_c, 4, 67, 106
6, 39001, Control_c, 4, 11, 67
6, 39009, Control_c, 4, 11, 64
6, 39018, Control_c, 4, 11, 61
6, 39027, Control_c, 4, 11, 58
6, 39036, Control_c, 4, 11, 55
6, 39045, Control_c, 4, 11, 52
6, 39054, Control_c, 4, 11, 49
6, 39061, Note_on_c, 4, 67, 0
6, 39061, Note_on_c, 4, 65, 106
6, 39091, Control_c, 4, 11, 47
6, 39096, Control_c, 4, 11, 44
6, 39102, Control_c, 4, 11, 41
6, 39108, Control_c, 4, 11, 38
6, 39114, Control_c, 4, 11, 35
6, 39120, Control_c, 4, 11, 32
6, 39121, Note_on_c, 4, 65, 0
6, 39121, Note_on_c, 4, 60, 106
6, 39121, Control_c, 4, 11, 37
6, 39166, Note_on_c, 4, 60, 0
6, 39181, Note_on_c, 4, 60, 106
6, 39226, Note_on_c, 4, 60, 0
6, 39241, Note_on_c, 4, 60, 106
6, 39286, Note_on_c, 4, 60, 0
6, 39301, Note_on_c, 4, 60, 106
6, 39346, Note_on_c, 4, 60, 0
6, 39421, Note_on_c, 4, 60, 106
6, 39481, Note_on_c, 4, 60, 0
6, 39541, Note_on_c, 4, 60, 106
6, 39601, Note_on_c, 4, 60, 0
6, 39661, Note_on_c, 4, 60, 106
6, 39721, Note_on_c, 4, 60, 0
6, 39781, Note_on_c, 4, 60, 106
6, 39841, Note_on_c, 4, 60, 0
6, 39901, Note_on_c, 4, 60, 106
6, 39961, Note_on_c, 4, 60, 0
6, 40021, Note_on_c, 4, 60, 106
6, 40081, Note_on_c, 4, 60, 0
6, 40141, Note_on_c, 4, 60, 106
6, 40201, Note_on_c, 4, 60, 0
6, 40261, Note_on_c, 4, 60, 106
6, 40321, Note_on_c, 4, 60, 0
6, 40381, Note_on_c, 4, 60, 106
6, 40441, Note_on_c, 4, 60, 0
6, 40441, Note_on_c, 4, 60, 106
6, 40501, Note_on_c, 4, 60, 0
6, 40501, Note_on_c, 4, 60, 91
6, 40536, Control_c, 4, 11, 37
6, 40543, Control_c, 4, 11, 34
6, 40550, Control_c, 4, 11, 31
6, 40557, Control_c, 4, 11, 28
6, 40561, Note_on_c, 4, 60, 0
6, 40981, Note_on_c, 4, 60, 106
6, 40981, Control_c, 4, 11, 37
6, 40999, Control_c, 4, 11, 40
6, 41017, Control_c, 4, 11, 43
6, 41035, Control_c, 4, 11, 46
6, 41041, Note_on_c, 4, 60, 0
6, 41041, Note_on_c, 4, 65, 106
6, 41071, Note_on_c, 4, 65, 0
6, 41101, Note_on_c, 4, 65, 106
6, 41131, Note_on_c, 4, 65, 0
6, 41161, Note_on_c, 4, 69, 106
6, 41221, Note_on_c, 4, 69, 0
6, 41221, Note_on_c, 4, 72, 106
6, 41251, Note_on_c, 4, 72, 0
6, 41281, Note_on_c, 4, 60, 106
6, 41311, Note_on_c, 4, 60, 0
6, 41341, Note_on_c, 4, 60, 106
6, 41371, Note_on_c, 4, 60, 0
6, 41401, Note_on_c, 4, 60, 106
6, 41521, Note_on_c, 4, 60, 0
6, 41521, Note_on_c, 4, 67, 116
6, 41581, Note_on_c, 4, 67, 0
6, 41581, Note_on_c, 4, 65, 116
6, 41641, Note_on_c, 4, 65, 0
6, 41641, Note_on_c, 4, 67, 116
6, 41701, Note_on_c, 4, 67, 0
6, 41701, Note_on_c, 4, 69, 116
6, 41761, Note_on_c, 4, 69, 0
6, 41761, Note_on_c, 4, 70, 116
6, 41881, Note_on_c, 4, 70, 0
6, 41881, Note_on_c, 4, 69, 116
6, 41941, Note_on_c, 4, 69, 0
6, 41941, Note_on_c, 4, 67, 116
6, 41941, Control_c, 4, 11, 47
6, 41965, Control_c, 4, 11, 48
6, 41989, Control_c, 4, 11, 49
6, 42001, Note_on_c, 4, 67, 0
6, 42001, Note_on_c, 4, 67, 116
6, 42013, Control_c, 4, 11, 50
6, 42037, Control_c, 4, 11, 51
6, 42061, Note_on_c, 4, 67, 0
6, 42061, Note_on_c, 4, 67, 116
6, 42061, Control_c, 4, 11, 52
6, 42085, Control_c, 4, 11, 53
6, 42109, Control_c, 4, 11, 54
6, 42121, Note_on_c, 4, 67, 0
6, 42121, Note_on_c, 4, 67, 116
6, 42133, Control_c, 4, 11, 55
6, 42157, Control_c, 4, 11, 56
6, 42181, Note_on_c, 4, 67, 0
6, 42181, Control_c, 4, 11, 57
6, 42205, Control_c, 4, 11, 58
6, 42229, Control_c, 4, 11, 59
6, 42253, Control_c, 4, 11, 60
6, 42277, Control_c, 4, 11, 61
6, 42301, Control_c, 4, 11, 62
6, 43021, Note_on_c, 4, 65, 74
6, 43021, Control_c, 4, 11, 87
6, 43081, Note_on_c, 4, 65, 0
6, 43081, Note_on_c, 4, 65, 85
6, 43141, Note_on_c, 4, 65, 0
6, 43141, Note_on_c, 4, 65, 99
6, 43201, Note_on_c, 4, 65, 0
6, 43201, Control_c, 4, 11, 107
6, 43201, Note_on_c, 4, 65, 106
6, 43210, Control_c, 4, 11, 104
6, 43219, Control_c, 4, 11, 101
6, 43228, Control_c, 4, 11, 98
6, 43237, Control_c, 4, 11, 95
6, 43246, Control_c, 4, 11, 92
6, 43255, Control_c, 4, 11, 89
6, 43321, Note_on_c, 4, 65, 0
6, 43321, Note_on_c, 4, 65, 106
6, 43381, Note_on_c, 4, 65, 0
6, 43561, Note_on_c, 4, 60, 106
6, 43561, Control_c, 4, 11, 107
6, 43570, Control_c, 4, 11, 104
6, 43579, Control_c, 4, 11, 101
6, 43588, Control_c, 4, 11, 98
6, 43597, Control_c, 4, 11, 95
6, 43606, Control_c, 4, 11, 92
6, 43615, Control_c, 4, 11, 89
6, 43681, Note_on_c, 4, 60, 0
6, 43681, Note_on_c, 4, 60, 106
6, 43741, Note_on_c, 4, 60, 0
6, 43921, Control_c, 4, 11, 87
6, 43921, Note_on_c, 4, 69, 127
6, 43921, Control_c, 4, 91, 115
6, 44161, Note_on_c, 4, 69, 0
6, 44161, Note_on_c, 4, 70, 127
6, 44221, Note_on_c, 4, 70, 0
6, 44221, Note_on_c, 4, 67, 127
6, 44261, Control_c, 4, 11, 87
6, 44263, Control_c, 4, 11, 83
6, 44265, Control_c, 4, 11, 79
6, 44267, Control_c, 4, 11, 75
6, 44269, Control_c, 4, 11, 71
6, 44271, Control_c, 4, 11, 67
6, 44273, Control_c, 4, 11, 63
6, 44275, Control_c, 4, 11, 59
6, 44277, Control_c, 4, 11, 55
6, 44279, Control_c, 4, 11, 51
6, 44281, Note_on_c, 4, 67, 0
6, 44281, Control_c, 4, 91, 80
6, 44281, Control_c, 4, 11, 47
6, 44281, Note_on_c, 4, 60, 101
6, 44311, Note_on_c, 4, 60, 0
6, 44341, Note_on_c, 4, 60, 106
6, 44371, Note_on_c, 4, 60, 0
6, 44461, Note_on_c, 4, 69, 106
6, 44491, Note_on_c, 4, 69, 0
6, 44521, Note_on_c, 4, 69, 106
6, 44551, Note_on_c, 4, 69, 0
6, 44641, Note_on_c, 4, 70, 106
6, 44671, Note_on_c, 4, 70, 0
6, 44701, Note_on_c, 4, 70, 106
6, 44731, Note_on_c, 4, 70, 0
6, 44821, Note_on_c, 4, 67, 106
6, 44851, Note_on_c, 4, 67, 0
6, 44881, Note_on_c, 4, 67, 106
6, 44911, Note_on_c, 4, 67, 0
6, 45001, Note_on_c, 4, 65, 106
6, 45031, Note_on_c, 4, 65, 0
6, 45061, Note_on_c, 4, 65, 106
6, 45091, Note_on_c, 4, 65, 0
6, 45181, Note_on_c, 4, 69, 106
6, 45211, Note_on_c, 4, 69, 0
6, 45241, Note_on_c, 4, 69, 106
6, 45271, Note_on_c, 4, 69, 0
6, 45361, Note_on_c, 4, 70, 106
6, 45391, Note_on_c, 4, 70, 0
6, 45421, Note_on_c, 4, 70, 106
6, 45451, Note_on_c, 4, 70, 0
6, 45541, Note_on_c, 4, 67, 106
6, 45571, Note_on_c, 4, 67, 0
6, 45601, Note_on_c, 4, 67, 106
6, 45631, Note_on_c, 4, 67, 0
6, 45721, Note_on_c, 4, 65, 106
6, 45781, Note_on_c, 4, 65, 0
6, 45841, Control_c, 4, 91, 115
6, 45841, Note_on_c, 4, 67, 86
6, 45841, Control_c, 4, 11, 37
6, 45859, Control_c, 4, 11, 40
6, 45877, Control_c, 4, 11, 43
6, 45895, Control_c, 4, 11, 46
6, 45901, Note_on_c, 4, 67, 0
6, 45901, Note_on_c, 4, 69, 86
6, 45931, Note_on_c, 4, 69, 0
6, 46021, Control_c, 4, 11, 37
6, 46021, Note_on_c, 4, 67, 86
6, 46039, Control_c, 4, 11, 40
6, 46057, Control_c, 4, 11, 43
6, 46075, Control_c, 4, 11, 46
6, 46081, Note_on_c, 4, 67, 0
6, 46081, Note_on_c, 4, 65, 86
6, 46111, Note_on_c, 4, 65, 0
6, 46201, Note_on_c, 4, 67, 94
6, 46201, Control_c, 4, 11, 32
6, 46225, Control_c, 4, 11, 34
6, 46249, Control_c, 4, 11, 36
6, 46261, Note_on_c, 4, 67, 0
6, 46261, Note_on_c, 4, 69, 94
6, 46291, Note_on_c, 4, 69, 0
6, 46381, Note_on_c, 4, 67, 94
6, 46381, Control_c, 4, 11, 62
6, 46383, Control_c, 4, 11, 65
6, 46386, Control_c, 4, 11, 69
6, 46389, Control_c, 4, 11, 72
6, 46391, Control_c, 4, 11, 75
6, 46394, Control_c, 4, 11, 79
6, 46397, Control_c, 4, 11, 82
6, 46399, Control_c, 4, 11, 85
6, 46441, Note_on_c, 4, 67, 0
6, 46441, Note_on_c, 4, 65, 106
6, 46471, Note_on_c, 4, 65, 0
6, 46501, Control_c, 4, 91, 80
6, 46501, Note_on_c, 4, 60, 106
6, 46501, Control_c, 4, 11, 42
6, 46531, Note_on_c, 4, 60, 0
6, 46561, Note_on_c, 4, 60, 96
6, 46591, Note_on_c, 4, 60, 0
6, 46621, Note_on_c, 4, 60, 78
6, 46701, Control_c, 4, 11, 42
6, 46707, Control_c, 4, 11, 39
6, 46713, Control_c, 4, 11, 36
6, 46719, Control_c, 4, 11, 33
6, 46725, Control_c, 4, 11, 30
6, 46731, Control_c, 4, 11, 27
6, 46737, Control_c, 4, 11, 24
6, 46741, Note_on_c, 4, 60, 0
6, 46981, Control_c, 4, 121, 0
6, 46981, End_track
7, 0, Start_track
7, 0, MIDI_port, 0
7, 0, Title_t, "Corno II in F"
7, 0, Program_c, 5, 60
7, 0, Control_c, 5, 10, 28
7, 2, Control_c, 5, 121, 0
7, 7, Program_c, 5, 60
7, 12, Pitch_bend_c, 5, 8092
7, 17, Control_c, 5, 11, 47
7, 22, Control_c, 5, 7, 127
7, 27, Control_c, 5, 91, 80
7, 32, Control_c, 5, 93, 0
7, 37, Control_c, 5, 10, 28
7, 1982, Control_c, 5, 11, 37
7, 1982, Note_on_c, 5, 48, 106
7, 2000, Control_c, 5, 11, 40
7, 2018, Control_c, 5, 11, 43
7, 2036, Control_c, 5, 11, 46
7, 2217, Note_on_c, 5, 48, 0
7, 2222, Note_on_c, 5, 48, 106
7, 2252, Note_on_c, 5, 48, 0
7, 2282, Note_on_c, 5, 48, 106
7, 2342, Note_on_c, 5, 48, 0
7, 2342, Note_on_c, 5, 53, 106
7, 2381, Note_on_c, 5, 53, 0
7, 2402, Note_on_c, 5, 57, 106
7, 2441, Note_on_c, 5, 57, 0
7, 2462, Note_on_c, 5, 57, 106
7, 2522, Note_on_c, 5, 57, 0
7, 2522, Note_on_c, 5, 65, 106
7, 2561, Note_on_c, 5, 65, 0
7, 2582, Note_on_c, 5, 65, 106
7, 2621, Note_on_c, 5, 65, 0
7, 2642, Note_on_c, 5, 53, 106
7, 2702, Note_on_c, 5, 53, 0
7, 2702, Note_on_c, 5, 48, 106
7, 2741, Note_on_c, 5, 48, 0
7, 2762, Note_on_c, 5, 48, 106
7, 2801, Note_on_c, 5, 48, 0
7, 2822, Note_on_c, 5, 48, 106
7, 2861, Note_on_c, 5, 48, 0
7, 2882, Note_on_c, 5, 48, 106
7, 2942, Control_c, 5, 11, 42
7, 2957, Control_c, 5, 11, 43
7, 2972, Control_c, 5, 11, 44
7, 2987, Control_c, 5, 11, 45
7, 2997, Note_on_c, 5, 48, 0
7, 3002, Control_c, 5, 11, 46
7, 3002, Note_on_c, 5, 48, 106
7, 3017, Control_c, 5, 11, 47
7, 3032, Control_c, 5, 11, 48
7, 3047, Control_c, 5, 11, 49
7, 3057, Note_on_c, 5, 48, 0
7, 3062, Control_c, 5, 11, 50
7, 3062, Note_on_c, 5, 48, 106
7, 3077, Control_c, 5, 11, 51
7, 3092, Control_c, 5, 11, 52
7, 3107, Note_on_c, 5, 48, 0
7, 3107, Control_c, 5, 11, 53
7, 3122, Control_c, 5, 11, 54
7, 3122, Note_on_c, 5, 48, 106
7, 3137, Control_c, 5, 11, 55
7, 3152, Control_c, 5, 11, 56
7, 3167, Note_on_c, 5, 48, 0
7, 3167, Control_c, 5, 11, 57
7, 3182, Control_c, 5, 11, 58
7, 3182, Note_on_c, 5, 48, 106
7, 3197, Control_c, 5, 11, 59
7, 3212, Control_c, 5, 11, 60
7, 3227, Note_on_c, 5, 48, 0
7, 3227, Control_c, 5, 11, 61
7, 3242, Control_c, 5, 11, 62
7, 3242, Note_on_c, 5, 48, 106
7, 3357, Note_on_c, 5, 48, 0
7, 3362, Note_on_c, 5, 48, 106
7, 3417, Note_on_c, 5, 48, 0
7, 3422, Note_on_c, 5, 48, 96
7, 3451, Note_on_c, 5, 48, 0
7, 3452, Note_on_c, 5, 48, 96
7, 3481, Note_on_c, 5, 48, 0
7, 3482, Note_on_c, 5, 48, 96
7, 3511, Note_on_c, 5, 48, 0
7, 3512, Note_on_c, 5, 48, 96
7, 3541, Note_on_c, 5, 48, 0
7, 3542, Note_on_c, 5, 48, 96
7, 3571, Note_on_c, 5, 48, 0
7, 3572, Note_on_c, 5, 48, 96
7, 3601, Note_on_c, 5, 48, 0
7, 3602, Note_on_c, 5, 48, 96
7, 3631, Note_on_c, 5, 48, 0
7, 3632, Note_on_c, 5, 48, 96
7, 3661, Note_on_c, 5, 48, 0
7, 3662, Note_on_c, 5, 48, 96
7, 3691, Note_on_c, 5, 48, 0
7, 3692, Note_on_c, 5, 48, 96
7, 3721, Note_on_c, 5, 48, 0
7, 3722, Note_on_c, 5, 48, 96
7, 3722, Control_c, 5, 11, 56
7, 3725, Control_c, 5, 11, 60
7, 3728, Control_c, 5, 11, 63
7, 3731, Control_c, 5, 11, 66
7, 3734, Control_c, 5, 11, 70
7, 3750, Control_c, 5, 11, 67
7, 3751, Note_on_c, 5, 48, 0
7, 3752, Note_on_c, 5, 48, 96
7, 3758, Control_c, 5, 11, 64
7, 3767, Control_c, 5, 11, 61
7, 3777, Control_c, 5, 11, 58
7, 3781, Note_on_c, 5, 48, 0
7, 3782, Note_on_c, 5, 48, 96
7, 3811, Note_on_c, 5, 48, 0
7, 3812, Note_on_c, 5, 48, 96
7, 3841, Note_on_c, 5, 48, 0
7, 3842, Note_on_c, 5, 48, 96
7, 3871, Note_on_c, 5, 48, 0
7, 3872, Note_on_c, 5, 48, 96
7, 3901, Note_on_c, 5, 48, 0
7, 3902, Note_on_c, 5, 48, 96
7, 3931, Note_on_c, 5, 48, 0
7, 3932, Note_on_c, 5, 48, 96
7, 3961, Note_on_c, 5, 48, 0
7, 3962, Note_on_c, 5, 48, 96
7, 3962, Control_c, 5, 11, 62
7, 3991, Note_on_c, 5, 48, 0
7, 3992, Note_on_c, 5, 48, 96
7, 4021, Note_on_c, 5, 48, 0
7, 4022, Note_on_c, 5, 48, 96
7, 4051, Note_on_c, 5, 48, 0
7, 4052, Note_on_c, 5, 48, 96
7, 4081, Note_on_c, 5, 48, 0
7, 4082, Note_on_c, 5, 48, 96
7, 4082, Control_c, 5, 11, 62
7, 4085, Control_c, 5, 11, 66
7, 4088, Control_c, 5, 11, 69
7, 4091, Control_c, 5, 11, 72
7, 4094, Control_c, 5, 11, 76
7, 4110, Control_c, 5, 11, 73
7, 4111, Note_on_c, 5, 48, 0
7, 4112, Note_on_c, 5, 48, 96
7, 4118, Control_c, 5, 11, 70
7, 4127, Control_c, 5, 11, 67
7, 4137, Control_c, 5, 11, 64
7, 4141, Note_on_c, 5, 48, 0
7, 4142, Note_on_c, 5, 48, 96
7, 4171, Note_on_c, 5, 48, 0
7, 4172, Note_on_c, 5, 60, 96
7, 4201, Note_on_c, 5, 60, 0
7, 4202, Note_on_c, 5, 60, 96
7, 4231, Note_on_c, 5, 60, 0
7, 4232, Note_on_c, 5, 60, 96
7, 4261, Note_on_c, 5, 60, 0
7, 4262, Note_on_c, 5, 57, 96
7, 4262, Control_c, 5, 11, 68
7, 4265, Control_c, 5, 11, 72
7, 4268, Control_c, 5, 11, 75
7, 4271, Control_c, 5, 11, 78
7, 4274, Control_c, 5, 11, 82
7, 4290, Control_c, 5, 11, 79
7, 4291, Note_on_c, 5, 57, 0
7, 4292, Note_on_c, 5, 53, 96
7, 4298, Control_c, 5, 11, 76
7, 4307, Control_c, 5, 11, 73
7, 4317, Control_c, 5, 11, 70
7, 4321, Note_on_c, 5, 53, 0
7, 4322, Note_on_c, 5, 48, 96
7, 4351, Note_on_c, 5, 48, 0
7, 4352, Note_on_c, 5, 60, 96
7, 4381, Note_on_c, 5, 60, 0
7, 4382, Note_on_c, 5, 60, 96
7, 4411, Note_on_c, 5, 60, 0
7, 4412, Note_on_c, 5, 60, 96
7, 4441, Note_on_c, 5, 60, 0
7, 4442, Control_c, 5, 11, 89
7, 4442, Note_on_c, 5, 57, 96
7, 4458, Control_c, 5, 11, 86
7, 4471, Note_on_c, 5, 57, 0
7, 4472, Note_on_c, 5, 53, 96
7, 4475, Control_c, 5, 11, 83
7, 4491, Control_c, 5, 11, 80
7, 4501, Note_on_c, 5, 53, 0
7, 4502, Control_c, 5, 11, 87
7, 4502, Note_on_c, 5, 48, 96
7, 4541, Note_on_c, 5, 48, 0
7, 4562, Note_on_c, 5, 60, 87
7, 4601, Note_on_c, 5, 60, 0
7, 4622, Note_on_c, 5, 60, 84
7, 4661, Note_on_c, 5, 60, 0
7, 4682, Note_on_c, 5, 60, 73
7, 4717, Control_c, 5, 11, 87
7, 4719, Control_c, 5, 11, 84
7, 4722, Control_c, 5, 11, 81
7, 4725, Control_c, 5, 11, 78
7, 4728, Control_c, 5, 11, 75
7, 4731, Control_c, 5, 11, 72
7, 4734, Control_c, 5, 11, 69
7, 4737, Control_c, 5, 11, 66
7, 4740, Control_c, 5, 11, 63
7, 4742, Note_on_c, 5, 60, 0
7, 5942, Control_c, 5, 11, 47
7, 5942, Note_on_c, 5, 67, 106
7, 6057, Note_on_c, 5, 67, 0
7, 6062, Note_on_c, 5, 67, 106
7, 6117, Note_on_c, 5, 67, 0
7, 6122, Note_on_c, 5, 67, 106
7, 6182, Note_on_c, 5, 67, 0
7, 7442, Note_on_c, 5, 67, 106
7, 7442, Control_c, 5, 11, 47
7, 7497, Note_on_c, 5, 67, 0
7, 7502, Note_on_c, 5, 67, 106
7, 7557, Note_on_c, 5, 67, 0
7, 7562, Note_on_c, 5, 60, 106
7, 7622, Note_on_c, 5, 60, 0
7, 9422, Control_c, 5, 11, 67
7, 9422, Note_on_c, 5, 67, 106
7, 9477, Note_on_c, 5, 67, 0
7, 9482, Control_c, 5, 11, 67
7, 9482, Control_c, 5, 11, 72
7, 9482, Note_on_c, 5, 67, 86
7, 9488, Control_c, 5, 11, 66
7, 9490, Control_c, 5, 11, 70
7, 9494, Control_c, 5, 11, 65
7, 9494, Control_c, 5, 11, 69
7, 9500, Control_c, 5, 11, 64
7, 9502, Control_c, 5, 11, 67
7, 9506, Control_c, 5, 11, 63
7, 9506, Control_c, 5, 11, 66
7, 9512, Control_c, 5, 11, 62
7, 9530, Control_c, 5, 11, 60
7, 9537, Note_on_c, 5, 67, 0
7, 9542, Control_c, 5, 11, 57
7, 9542, Note_on_c, 5, 60, 70
7, 9572, Control_c, 5, 11, 57
7, 9576, Control_c, 5, 11, 54
7, 9580, Control_c, 5, 11, 51
7, 9585, Control_c, 5, 11, 48
7, 9589, Control_c, 5, 11, 45
7, 9593, Control_c, 5, 11, 42
7, 9597, Note_on_c, 5, 60, 0
7, 9598, Control_c, 5, 11, 39
7, 9782, Control_c, 5, 11, 37
7, 9782, Note_on_c, 5, 67, 106
7, 9842, Note_on_c, 5, 67, 0
7, 9902, Note_on_c, 5, 67, 106
7, 9962, Note_on_c, 5, 67, 0
7, 10022, Note_on_c, 5, 67, 106
7, 10082, Note_on_c, 5, 67, 0
7, 10142, Note_on_c, 5, 67, 106
7, 10202, Note_on_c, 5, 67, 0
7, 10262, Note_on_c, 5, 67, 106
7, 10322, Note_on_c, 5, 67, 0
7, 10382, Note_on_c, 5, 67, 106
7, 10442, Note_on_c, 5, 67, 0
7, 10502, Note_on_c, 5, 67, 106
7, 10562, Note_on_c, 5, 67, 0
7, 10622, Note_on_c, 5, 67, 106
7, 10682, Note_on_c, 5, 67, 0
7, 10742, Note_on_c, 5, 67, 106
7, 10802, Note_on_c, 5, 67, 0
7, 10862, Note_on_c, 5, 67, 106
7, 10922, Note_on_c, 5, 67, 0
7, 10922, Note_on_c, 5, 67, 106
7, 10982, Note_on_c, 5, 67, 0
7, 10982, Note_on_c, 5, 67, 91
7, 11017, Control_c, 5, 11, 37
7, 11024, Control_c, 5, 11, 34
7, 11031, Control_c, 5, 11, 31
7, 11038, Control_c, 5, 11, 28
7, 11042, Note_on_c, 5, 67, 0
7, 11402, Control_c, 5, 11, 47
7, 11402, Note_on_c, 5, 48, 101
7, 11432, Note_on_c, 5, 48, 0
7, 11462, Note_on_c, 5, 48, 87
7, 11492, Note_on_c, 5, 48, 0
7, 11522, Note_on_c, 5, 48, 74
7, 11557, Control_c, 5, 11, 47
7, 11564, Control_c, 5, 11, 44
7, 11571, Control_c, 5, 11, 41
7, 11578, Control_c, 5, 11, 38
7, 11582, Note_on_c, 5, 48, 0
7, 13502, Control_c, 5, 11, 37
7, 13502, Note_on_c, 5, 48, 106
7, 13520, Control_c, 5, 11, 40
7, 13538, Control_c, 5, 11, 43
7, 13556, Control_c, 5, 11, 46
7, 13737, Note_on_c, 5, 48, 0
7, 13742, Note_on_c, 5, 48, 106
7, 13772, Note_on_c, 5, 48, 0
7, 13802, Note_on_c, 5, 48, 106
7, 13862, Note_on_c, 5, 48, 0
7, 13862, Note_on_c, 5, 53, 106
7, 13901, Note_on_c, 5, 53, 0
7, 13922, Note_on_c, 5, 57, 106
7, 13961, Note_on_c, 5, 57, 0
7, 13982, Note_on_c, 5, 57, 106
7, 14042, Note_on_c, 5, 57, 0
7, 14042, Note_on_c, 5, 65, 106
7, 14081, Note_on_c, 5, 65, 0
7, 14102, Note_on_c, 5, 65, 106
7, 14141, Note_on_c, 5, 65, 0
7, 14162, Note_on_c, 5, 53, 106
7, 14222, Note_on_c, 5, 53, 0
7, 14222, Note_on_c, 5, 48, 106
7, 14261, Note_on_c, 5, 48, 0
7, 14282, Note_on_c, 5, 48, 106
7, 14321, Note_on_c, 5, 48, 0
7, 14342, Note_on_c, 5, 48, 106
7, 14381, Note_on_c, 5, 48, 0
7, 14402, Note_on_c, 5, 48, 106
7, 14462, Control_c, 5, 11, 42
7, 14477, Control_c, 5, 11, 43
7, 14492, Control_c, 5, 11, 44
7, 14507, Control_c, 5, 11, 45
7, 14517, Note_on_c, 5, 48, 0
7, 14522, Control_c, 5, 11, 46
7, 14522, Note_on_c, 5, 48, 106
7, 14537, Control_c, 5, 11, 47
7, 14552, Control_c, 5, 11, 48
7, 14567, Control_c, 5, 11, 49
7, 14577, Note_on_c, 5, 48, 0
7, 14582, Control_c, 5, 11, 50
7, 14582, Note_on_c, 5, 48, 106
7, 14597, Control_c, 5, 11, 51
7, 14612, Control_c, 5, 11, 52
7, 14627, Note_on_c, 5, 48, 0
7, 14627, Control_c, 5, 11, 53
7, 14642, Note_on_c, 5, 48, 106
7, 14642, Control_c, 5, 11, 54
7, 14657, Control_c, 5, 11, 55
7, 14672, Control_c, 5, 11, 56
7, 14687, Note_on_c, 5, 48, 0
7, 14687, Control_c, 5, 11, 57
7, 14702, Note_on_c, 5, 48, 106
7, 14702, Control_c, 5, 11, 58
7, 14717, Control_c, 5, 11, 59
7, 14732, Control_c, 5, 11, 60
7, 14747, Note_on_c, 5, 48, 0
7, 14747, Control_c, 5, 11, 61
7, 14762, Note_on_c, 5, 48, 106
7, 14762, Control_c, 5, 11, 62
7, 14877, Note_on_c, 5, 48, 0
7, 14882, Note_on_c, 5, 48, 106
7, 14937, Note_on_c, 5, 48, 0
7, 14942, Note_on_c, 5, 48, 96
7, 14971, Note_on_c, 5, 48, 0
7, 14972, Note_on_c, 5, 48, 96
7, 15001, Note_on_c, 5, 48, 0
7, 15002, Note_on_c, 5, 48, 96
7, 15031, Note_on_c, 5, 48, 0
7, 15032, Note_on_c, 5, 48, 96
7, 15061, Note_on_c, 5, 48, 0
7, 15062, Note_on_c, 5, 48, 96
7, 15091, Note_on_c, 5, 48, 0
7, 15092, Note_on_c, 5, 48, 96
7, 15121, Note_on_c, 5, 48, 0
7, 15122, Note_on_c, 5, 48, 96
7, 15151, Note_on_c, 5, 48, 0
7, 15152, Note_on_c, 5, 48, 96
7, 15181, Note_on_c, 5, 48, 0
7, 15182, Note_on_c, 5, 48, 96
7, 15211, Note_on_c, 5, 48, 0
7, 15212, Note_on_c, 5, 48, 96
7, 15241, Note_on_c, 5, 48, 0
7, 15242, Control_c, 5, 11, 56
7, 15242, Note_on_c, 5, 48, 96
7, 15245, Control_c, 5, 11, 60
7, 15248, Control_c, 5, 11, 63
7, 15251, Control_c, 5, 11, 66
7, 15254, Control_c, 5, 11, 70
7, 15270, Control_c, 5, 11, 67
7, 15271, Note_on_c, 5, 48, 0
7, 15272, Note_on_c, 5, 48, 96
7, 15278, Control_c, 5, 11, 64
7, 15287, Control_c, 5, 11, 61
7, 15297, Control_c, 5, 11, 58
7, 15301, Note_on_c, 5, 48, 0
7, 15302, Note_on_c, 5, 48, 96
7, 15331, Note_on_c, 5, 48, 0
7, 15332, Note_on_c, 5, 48, 96
7, 15361, Note_on_c, 5, 48, 0
7, 15362, Note_on_c, 5, 48, 96
7, 15391, Note_on_c, 5, 48, 0
7, 15392, Note_on_c, 5, 48, 96
7, 15421, Note_on_c, 5, 48, 0
7, 15422, Note_on_c, 5, 48, 96
7, 15451, Note_on_c, 5, 48, 0
7, 15452, Note_on_c, 5, 48, 96
7, 15481, Note_on_c, 5, 48, 0
7, 15482, Note_on_c, 5, 48, 96
7, 15482, Control_c, 5, 11, 62
7, 15511, Note_on_c, 5, 48, 0
7, 15512, Note_on_c, 5, 48, 96
7, 15541, Note_on_c, 5, 48, 0
7, 15542, Note_on_c, 5, 48, 96
7, 15571, Note_on_c, 5, 48, 0
7, 15572, Note_on_c, 5, 48, 96
7, 15601, Note_on_c, 5, 48, 0
7, 15602, Note_on_c, 5, 48, 96
7, 15602, Control_c, 5, 11, 62
7, 15605, Control_c, 5, 11, 66
7, 15608, Control_c, 5, 11, 69
7, 15611, Control_c, 5, 11, 72
7, 15614, Control_c, 5, 11, 76
7, 15630, Control_c, 5, 11, 73
7, 15631, Note_on_c, 5, 48, 0
7, 15632, Note_on_c, 5, 48, 96
7, 15638, Control_c, 5, 11, 70
7, 15647, Control_c, 5, 11, 67
7, 15657, Control_c, 5, 11, 64
7, 15661, Note_on_c, 5, 48, 0
7, 15662, Note_on_c, 5, 48, 96
7, 15691, Note_on_c, 5, 48, 0
7, 15692, Note_on_c, 5, 60, 96
7, 15721, Note_on_c, 5, 60, 0
7, 15722, Note_on_c, 5, 60, 96
7, 15751, Note_on_c, 5, 60, 0
7, 15752, Note_on_c, 5, 60, 96
7, 15781, Note_on_c, 5, 60, 0
7, 15782, Note_on_c, 5, 57, 96
7, 15782, Control_c, 5, 11, 68
7, 15785, Control_c, 5, 11, 72
7, 15788, Control_c, 5, 11, 75
7, 15791, Control_c, 5, 11, 78
7, 15794, Control_c, 5, 11, 82
7, 15810, Control_c, 5, 11, 79
7, 15811, Note_on_c, 5, 57, 0
7, 15812, Note_on_c, 5, 53, 96
7, 15818, Control_c, 5, 11, 76
7, 15827, Control_c, 5, 11, 73
7, 15837, Control_c, 5, 11, 70
7, 15841, Note_on_c, 5, 53, 0
7, 15842, Note_on_c, 5, 48, 96
7, 15871, Note_on_c, 5, 48, 0
7, 15872, Note_on_c, 5, 60, 96
7, 15901, Note_on_c, 5, 60, 0
7, 15902, Note_on_c, 5, 60, 96
7, 15931, Note_on_c, 5, 60, 0
7, 15932, Note_on_c, 5, 60, 96
7, 15961, Note_on_c, 5, 60, 0
7, 15962, Control_c, 5, 11, 89
7, 15962, Note_on_c, 5, 57, 96
7, 15978, Control_c, 5, 11, 86
7, 15991, Note_on_c, 5, 57, 0
7, 15992, Note_on_c, 5, 53, 96
7, 15995, Control_c, 5, 11, 83
7, 16011, Control_c, 5, 11, 80
7, 16021, Note_on_c, 5, 53, 0
7, 16022, Note_on_c, 5, 48, 96
7, 16022, Control_c, 5, 11, 87
7, 16061, Note_on_c, 5, 48, 0
7, 16082, Note_on_c, 5, 60, 87
7, 16121, Note_on_c, 5, 60, 0
7, 16142, Note_on_c, 5, 60, 84
7, 16181, Note_on_c, 5, 60, 0
7, 16202, Note_on_c, 5, 60, 81
7, 16237, Control_c, 5, 11, 87
7, 16239, Control_c, 5, 11, 84
7, 16242, Control_c, 5, 11, 81
7, 16245, Control_c, 5, 11, 78
7, 16248, Control_c, 5, 11, 75
7, 16251, Control_c, 5, 11, 72
7, 16254, Control_c, 5, 11, 69
7, 16257, Control_c, 5, 11, 66
7, 16260, Control_c, 5, 11, 63
7, 16262, Note_on_c, 5, 60, 0
7, 17462, Note_on_c, 5, 67, 106
7, 17462, Control_c, 5, 11, 47
7, 17577, Note_on_c, 5, 67, 0
7, 17582, Note_on_c, 5, 67, 106
7, 17637, Note_on_c, 5, 67, 0
7, 17642, Note_on_c, 5, 67, 106
7, 17702, Note_on_c, 5, 67, 0
7, 18962, Control_c, 5, 11, 47
7, 18962, Note_on_c, 5, 67, 106
7, 19017, Note_on_c, 5, 67, 0
7, 19022, Note_on_c, 5, 67, 106
7, 19077, Note_on_c, 5, 67, 0
7, 19082, Note_on_c, 5, 60, 106
7, 19142, Note_on_c, 5, 60, 0
7, 20942, Control_c, 5, 11, 67
7, 20942, Note_on_c, 5, 67, 106
7, 20997, Note_on_c, 5, 67, 0
7, 21002, Control_c, 5, 11, 67
7, 21002, Control_c, 5, 11, 72
7, 21002, Note_on_c, 5, 67, 86
7, 21008, Control_c, 5, 11, 66
7, 21010, Control_c, 5, 11, 70
7, 21014, Control_c, 5, 11, 65
7, 21032, Control_c, 5, 11, 62
7, 21050, Control_c, 5, 11, 60
7, 21057, Note_on_c, 5, 67, 0
7, 21062, Note_on_c, 5, 60, 70
7, 21062, Control_c, 5, 11, 57
7, 21092, Control_c, 5, 11, 57
7, 21096, Control_c, 5, 11, 54
7, 21100, Control_c, 5, 11, 51
7, 21105, Control_c, 5, 11, 48
7, 21109, Control_c, 5, 11, 45
7, 21113, Control_c, 5, 11, 42
7, 21117, Note_on_c, 5, 60, 0
7, 21118, Control_c, 5, 11, 39
7, 21302, Control_c, 5, 11, 37
7, 21302, Note_on_c, 5, 67, 106
7, 21362, Note_on_c, 5, 67, 0
7, 21422, Note_on_c, 5, 67, 106
7, 21482, Note_on_c, 5, 67, 0
7, 21542, Note_on_c, 5, 67, 106
7, 21602, Note_on_c, 5, 67, 0
7, 21662, Note_on_c, 5, 67, 106
7, 21722, Note_on_c, 5, 67, 0
7, 21782, Note_on_c, 5, 67, 106
7, 21842, Note_on_c, 5, 67, 0
7, 21902, Note_on_c, 5, 67, 106
7, 21962, Note_on_c, 5, 67, 0
7, 22022, Note_on_c, 5, 67, 106
7, 22082, Note_on_c, 5, 67, 0
7, 22142, Note_on_c, 5, 67, 106
7, 22202, Note_on_c, 5, 67, 0
7, 22262, Note_on_c, 5, 67, 106
7, 22322, Note_on_c, 5, 67, 0
7, 22382, Note_on_c, 5, 67, 106
7, 22442, Note_on_c, 5, 67, 0
7, 22442, Note_on_c, 5, 67, 106
7, 22502, Note_on_c, 5, 67, 0
7, 22502, Note_on_c, 5, 67, 91
7, 22537, Control_c, 5, 11, 37
7, 22544, Control_c, 5, 11, 34
7, 22551, Control_c, 5, 11, 31
7, 22558, Control_c, 5, 11, 28
7, 22562, Note_on_c, 5, 67, 0
7, 22922, Note_on_c, 5, 48, 101
7, 22922, Control_c, 5, 11, 47
7, 22952, Note_on_c, 5, 48, 0
7, 22982, Note_on_c, 5, 48, 87
7, 23012, Note_on_c, 5, 48, 0
7, 23042, Note_on_c, 5, 48, 82
7, 23077, Control_c, 5, 11, 47
7, 23084, Control_c, 5, 11, 44
7, 23091, Control_c, 5, 11, 41
7, 23098, Control_c, 5, 11, 38
7, 23102, Note_on_c, 5, 48, 0
7, 25022, Note_on_c, 5, 53, 106
7, 25022, Control_c, 5, 11, 87
7, 25025, Control_c, 5, 11, 84
7, 25028, Control_c, 5, 11, 81
7, 25032, Control_c, 5, 11, 78
7, 25035, Control_c, 5, 11, 75
7, 25038, Control_c, 5, 11, 72
7, 25042, Control_c, 5, 11, 69
7, 25045, Control_c, 5, 11, 66
7, 25049, Control_c, 5, 11, 63
7, 25052, Control_c, 5, 11, 60
7, 25055, Control_c, 5, 11, 57
7, 25059, Control_c, 5, 11, 54
7, 25062, Control_c, 5, 11, 51
7, 25065, Control_c, 5, 11, 48
7, 25202, Note_on_c, 5, 53, 0
7, 25382, Control_c, 5, 11, 87
7, 25382, Note_on_c, 5, 53, 106
7, 25385, Control_c, 5, 11, 84
7, 25388, Control_c, 5, 11, 81
7, 25392, Control_c, 5, 11, 78
7, 25395, Control_c, 5, 11, 75
7, 25398, Control_c, 5, 11, 72
7, 25402, Control_c, 5, 11, 69
7, 25405, Control_c, 5, 11, 66
7, 25409, Control_c, 5, 11, 63
7, 25412, Control_c, 5, 11, 60
7, 25415, Control_c, 5, 11, 57
7, 25419, Control_c, 5, 11, 54
7, 25422, Control_c, 5, 11, 51
7, 25425, Control_c, 5, 11, 48
7, 25562, Note_on_c, 5, 53, 0
7, 25742, Note_on_c, 5, 53, 106
7, 25772, Note_on_c, 5, 53, 0
7, 25802, Control_c, 5, 11, 67
7, 25802, Note_on_c, 5, 53, 106
7, 25805, Control_c, 5, 11, 70
7, 25808, Control_c, 5, 11, 73
7, 25811, Control_c, 5, 11, 76
7, 25817, Control_c, 5, 11, 73
7, 25821, Control_c, 5, 11, 70
7, 25824, Control_c, 5, 11, 67
7, 25827, Control_c, 5, 11, 64
7, 25831, Control_c, 5, 11, 61
7, 25834, Control_c, 5, 11, 58
7, 25838, Control_c, 5, 11, 55
7, 25841, Control_c, 5, 11, 52
7, 25844, Control_c, 5, 11, 49
7, 25982, Note_on_c, 5, 53, 0
7, 25982, Control_c, 5, 11, 67
7, 25982, Note_on_c, 5, 53, 106
7, 25985, Control_c, 5, 11, 70
7, 25988, Control_c, 5, 11, 73
7, 25991, Control_c, 5, 11, 76
7, 25997, Control_c, 5, 11, 73
7, 26001, Control_c, 5, 11, 70
7, 26004, Control_c, 5, 11, 67
7, 26007, Control_c, 5, 11, 64
7, 26011, Control_c, 5, 11, 61
7, 26014, Control_c, 5, 11, 58
7, 26018, Control_c, 5, 11, 55
7, 26021, Control_c, 5, 11, 52
7, 26024, Control_c, 5, 11, 49
7, 26102, Note_on_c, 5, 53, 0
7, 26102, Note_on_c, 5, 48, 106
7, 26132, Note_on_c, 5, 48, 0
7, 26162, Note_on_c, 5, 48, 106
7, 26192, Note_on_c, 5, 48, 0
7, 26222, Note_on_c, 5, 48, 106
7, 26252, Note_on_c, 5, 48, 0
7, 26282, Note_on_c, 5, 48, 106
7, 26312, Note_on_c, 5, 48, 0
7, 26342, Note_on_c, 5, 48, 96
7, 26372, Note_on_c, 5, 48, 0
7, 26402, Note_on_c, 5, 53, 106
7, 26402, Control_c, 5, 11, 87
7, 26462, Note_on_c, 5, 53, 0
7, 26462, Note_on_c, 5, 48, 106
7, 26492, Note_on_c, 5, 48, 0
7, 26522, Note_on_c, 5, 48, 106
7, 26552, Note_on_c, 5, 48, 0
7, 26582, Note_on_c, 5, 48, 106
7, 26582, Control_c, 5, 11, 47
7, 26612, Note_on_c, 5, 48, 0
7, 26642, Note_on_c, 5, 48, 106
7, 26672, Note_on_c, 5, 48, 0
7, 26702, Note_on_c, 5, 48, 96
7, 26732, Note_on_c, 5, 48, 0
7, 26762, Control_c, 5, 11, 87
7, 26762, Note_on_c, 5, 53, 106
7, 26822, Note_on_c, 5, 53, 0
7, 26822, Note_on_c, 5, 48, 106
7, 26852, Note_on_c, 5, 48, 0
7, 27002, Control_c, 5, 11, 37
7, 27002, Note_on_c, 5, 48, 106
7, 27062, Note_on_c, 5, 48, 0
7, 27062, Note_on_c, 5, 48, 106
7, 27105, Note_on_c, 5, 48, 0
7, 27242, Note_on_c, 5, 48, 106
7, 27302, Note_on_c, 5, 48, 0
7, 27302, Note_on_c, 5, 48, 106
7, 27345, Note_on_c, 5, 48, 0
7, 27482, Note_on_c, 5, 48, 106
7, 27532, Note_on_c, 5, 48, 0
7, 27542, Note_on_c, 5, 48, 106
7, 27580, Note_on_c, 5, 48, 0
7, 27602, Note_on_c, 5, 48, 106
7, 27647, Note_on_c, 5, 48, 0
7, 27662, Note_on_c, 5, 48, 106
7, 27700, Note_on_c, 5, 48, 0
7, 27722, Note_on_c, 5, 48, 106
7, 27767, Note_on_c, 5, 48, 0
7, 27782, Note_on_c, 5, 48, 106
7, 27820, Note_on_c, 5, 48, 0
7, 27842, Note_on_c, 5, 48, 106
7, 27887, Note_on_c, 5, 48, 0
7, 27902, Note_on_c, 5, 48, 106
7, 27927, Note_on_c, 5, 48, 0
7, 27932, Note_on_c, 5, 48, 106
7, 27957, Note_on_c, 5, 48, 0
7, 27962, Note_on_c, 5, 48, 106
7, 27962, Control_c, 5, 11, 37
7, 27980, Control_c, 5, 11, 40
7, 27987, Note_on_c, 5, 48, 0
7, 27992, Note_on_c, 5, 48, 106
7, 27998, Control_c, 5, 11, 43
7, 28016, Control_c, 5, 11, 46
7, 28017, Note_on_c, 5, 48, 0
7, 28022, Note_on_c, 5, 48, 106
7, 28034, Control_c, 5, 11, 49
7, 28047, Note_on_c, 5, 48, 0
7, 28052, Note_on_c, 5, 48, 106
7, 28052, Control_c, 5, 11, 52
7, 28070, Control_c, 5, 11, 55
7, 28077, Note_on_c, 5, 48, 0
7, 28082, Note_on_c, 5, 48, 106
7, 28088, Control_c, 5, 11, 58
7, 28106, Control_c, 5, 11, 61
7, 28107, Note_on_c, 5, 48, 0
7, 28112, Note_on_c, 5, 48, 106
7, 28124, Control_c, 5, 11, 64
7, 28137, Note_on_c, 5, 48, 0
7, 28142, Control_c, 5, 11, 67
7, 28142, Note_on_c, 5, 48, 106
7, 28160, Control_c, 5, 11, 70
7, 28167, Note_on_c, 5, 48, 0
7, 28172, Note_on_c, 5, 48, 106
7, 28178, Control_c, 5, 11, 73
7, 28196, Control_c, 5, 11, 76
7, 28197, Note_on_c, 5, 48, 0
7, 28202, Note_on_c, 5, 48, 106
7, 28214, Control_c, 5, 11, 79
7, 28227, Note_on_c, 5, 48, 0
7, 28232, Note_on_c, 5, 48, 106
7, 28232, Control_c, 5, 11, 82
7, 28250, Control_c, 5, 11, 85
7, 28257, Note_on_c, 5, 48, 0
7, 28262, Note_on_c, 5, 48, 106
7, 28422, Control_c, 5, 11, 87
7, 28423, Control_c, 5, 11, 84
7, 28425, Control_c, 5, 11, 80
7, 28427, Control_c, 5, 11, 76
7, 28429, Control_c, 5, 11, 72
7, 28431, Control_c, 5, 11, 68
7, 28432, Control_c, 5, 11, 65
7, 28434, Control_c, 5, 11, 61
7, 28436, Control_c, 5, 11, 57
7, 28438, Control_c, 5, 11, 53
7, 28440, Control_c, 5, 11, 49
7, 28442, Note_on_c, 5, 48, 0
7, 28622, Note_on_c, 5, 60, 106
7, 28622, Control_c, 5, 11, 87
7, 28782, Control_c, 5, 11, 87
7, 28783, Control_c, 5, 11, 84
7, 28785, Control_c, 5, 11, 80
7, 28787, Control_c, 5, 11, 76
7, 28789, Control_c, 5, 11, 72
7, 28791, Control_c, 5, 11, 68
7, 28792, Control_c, 5, 11, 65
7, 28794, Control_c, 5, 11, 61
7, 28796, Control_c, 5, 11, 57
7, 28798, Control_c, 5, 11, 53
7, 28800, Control_c, 5, 11, 49
7, 28802, Note_on_c, 5, 60, 0
7, 31802, Control_c, 5, 11, 37
7, 31802, Note_on_c, 5, 60, 91
7, 31820, Control_c, 5, 11, 40
7, 31838, Control_c, 5, 11, 43
7, 31856, Control_c, 5, 11, 46
7, 31862, Note_on_c, 5, 60, 0
7, 31862, Note_on_c, 5, 57, 106
7, 31901, Note_on_c, 5, 57, 0
7, 31922, Note_on_c, 5, 57, 106
7, 31961, Note_on_c, 5, 57, 0
7, 31982, Note_on_c, 5, 57, 106
7, 32042, Note_on_c, 5, 57, 0
7, 32042, Note_on_c, 5, 65, 106
7, 32081, Note_on_c, 5, 65, 0
7, 32102, Note_on_c, 5, 65, 106
7, 32141, Note_on_c, 5, 65, 0
7, 32162, Note_on_c, 5, 48, 106
7, 32222, Note_on_c, 5, 48, 0
7, 32222, Note_on_c, 5, 48, 106
7, 32402, Note_on_c, 5, 48, 0
7, 32402, Note_on_c, 5, 48, 106
7, 32522, Note_on_c, 5, 48, 0
7, 32522, Note_on_c, 5, 48, 106
7, 32582, Note_on_c, 5, 48, 0
7, 32582, Note_on_c, 5, 48, 106
7, 32582, Control_c, 5, 11, 47
7, 32602, Control_c, 5, 11, 48
7, 32622, Control_c, 5, 11, 49
7, 32642, Note_on_c, 5, 48, 0
7, 32642, Control_c, 5, 11, 50
7, 32642, Note_on_c, 5, 48, 106
7, 32662, Control_c, 5, 11, 51
7, 32682, Control_c, 5, 11, 52
7, 32702, Note_on_c, 5, 48, 0
7, 32702, Note_on_c, 5, 48, 106
7, 32702, Control_c, 5, 11, 53
7, 32722, Control_c, 5, 11, 54
7, 32742, Control_c, 5, 11, 55
7, 32762, Note_on_c, 5, 48, 0
7, 32762, Note_on_c, 5, 48, 106
7, 32762, Control_c, 5, 11, 56
7, 32782, Control_c, 5, 11, 57
7, 32802, Control_c, 5, 11, 58
7, 32822, Control_c, 5, 11, 59
7, 32842, Control_c, 5, 11, 60
7, 32862, Control_c, 5, 11, 61
7, 32882, Note_on_c, 5, 48, 0
7, 32882, Control_c, 5, 11, 62
7, 32882, Note_on_c, 5, 48, 106
7, 32942, Note_on_c, 5, 48, 0
7, 32942, Note_on_c, 5, 48, 106
7, 33002, Note_on_c, 5, 48, 0
7, 33062, Note_on_c, 5, 60, 96
7, 33122, Note_on_c, 5, 60, 0
7, 33122, Note_on_c, 5, 65, 96
7, 33182, Note_on_c, 5, 65, 0
7, 33242, Control_c, 5, 11, 82
7, 33242, Note_on_c, 5, 65, 96
7, 33251, Control_c, 5, 11, 79
7, 33260, Control_c, 5, 11, 76
7, 33269, Control_c, 5, 11, 73
7, 33278, Control_c, 5, 11, 70
7, 33287, Control_c, 5, 11, 67
7, 33296, Control_c, 5, 11, 64
7, 33302, Note_on_c, 5, 65, 0
7, 33302, Note_on_c, 5, 60, 96
7, 33362, Note_on_c, 5, 60, 0
7, 33422, Note_on_c, 5, 60, 96
7, 33482, Note_on_c, 5, 60, 0
7, 33482, Note_on_c, 5, 65, 96
7, 33542, Note_on_c, 5, 65, 0
7, 33602, Note_on_c, 5, 65, 96
7, 33602, Control_c, 5, 11, 87
7, 33611, Control_c, 5, 11, 84
7, 33620, Control_c, 5, 11, 81
7, 33629, Control_c, 5, 11, 78
7, 33638, Control_c, 5, 11, 75
7, 33647, Control_c, 5, 11, 72
7, 33656, Control_c, 5, 11, 69
7, 33662, Note_on_c, 5, 65, 0
7, 33662, Note_on_c, 5, 60, 96
7, 33722, Note_on_c, 5, 60, 0
7, 33782, Note_on_c, 5, 65, 106
7, 33782, Control_c, 5, 11, 92
7, 33791, Control_c, 5, 11, 89
7, 33800, Control_c, 5, 11, 86
7, 33809, Control_c, 5, 11, 83
7, 33818, Control_c, 5, 11, 80
7, 33827, Control_c, 5, 11, 77
7, 33836, Control_c, 5, 11, 74
7, 33842, Note_on_c, 5, 65, 0
7, 33842, Note_on_c, 5, 60, 106
7, 33902, Note_on_c, 5, 60, 0
7, 33962, Note_on_c, 5, 65, 106
7, 33962, Control_c, 5, 11, 87
7, 34022, Note_on_c, 5, 65, 0
7, 34022, Note_on_c, 5, 60, 106
7, 34052, Note_on_c, 5, 60, 0
7, 34082, Note_on_c, 5, 60, 96
7, 34112, Note_on_c, 5, 60, 0
7, 34142, Note_on_c, 5, 60, 93
7, 34172, Note_on_c, 5, 60, 0
7, 34202, Note_on_c, 5, 60, 81
7, 34232, Control_c, 5, 11, 87
7, 34236, Control_c, 5, 11, 84
7, 34240, Control_c, 5, 11, 81
7, 34245, Control_c, 5, 11, 78
7, 34249, Control_c, 5, 11, 75
7, 34253, Control_c, 5, 11, 72
7, 34258, Control_c, 5, 11, 69
7, 34262, Note_on_c, 5, 60, 0
7, 36182, Control_c, 5, 11, 27
7, 36182, Note_on_c, 5, 60, 106
7, 36185, Control_c, 5, 11, 30
7, 36188, Control_c, 5, 11, 33
7, 36191, Control_c, 5, 11, 36
7, 36194, Control_c, 5, 11, 39
7, 36197, Control_c, 5, 11, 42
7, 36200, Control_c, 5, 11, 45
7, 36242, Note_on_c, 5, 60, 0
7, 36302, Note_on_c, 5, 60, 106
7, 36362, Note_on_c, 5, 60, 0
7, 36362, Note_on_c, 5, 65, 106
7, 36392, Note_on_c, 5, 65, 0
7, 36902, Note_on_c, 5, 57, 106
7, 37022, Note_on_c, 5, 57, 0
7, 37022, Note_on_c, 5, 60, 106
7, 37082, Note_on_c, 5, 60, 0
7, 37082, Note_on_c, 5, 57, 106
7, 37102, Control_c, 5, 11, 47
7, 37106, Control_c, 5, 11, 44
7, 37111, Control_c, 5, 11, 41
7, 37116, Control_c, 5, 11, 38
7, 37120, Control_c, 5, 11, 35
7, 37125, Control_c, 5, 11, 32
7, 37130, Control_c, 5, 11, 29
7, 37134, Control_c, 5, 11, 26
7, 37139, Control_c, 5, 11, 23
7, 37142, Note_on_c, 5, 57, 0
7, 37802, Note_on_c, 5, 53, 66
7, 37802, Control_c, 5, 11, 77
7, 37847, Note_on_c, 5, 53, 0
7, 37847, Control_c, 5, 11, 87
7, 37847, Note_on_c, 5, 60, 70
7, 37858, Note_on_c, 5, 60, 0
7, 37862, Note_on_c, 5, 60, 82
7, 38027, Note_on_c, 5, 60, 0
7, 38027, Note_on_c, 5, 57, 82
7, 38038, Note_on_c, 5, 57, 0
7, 38042, Note_on_c, 5, 57, 82
7, 38207, Note_on_c, 5, 57, 0
7, 38207, Note_on_c, 5, 57, 82
7, 38218, Note_on_c, 5, 57, 0
7, 38222, Note_on_c, 5, 57, 82
7, 38372, Note_on_c, 5, 57, 0
7, 38402, Control_c, 5, 11, 102
7, 38402, Note_on_c, 5, 53, 96
7, 38413, Control_c, 5, 11, 99
7, 38425, Control_c, 5, 11, 96
7, 38437, Control_c, 5, 11, 93
7, 38449, Control_c, 5, 11, 90
7, 38461, Control_c, 5, 11, 87
7, 38552, Note_on_c, 5, 53, 0
7, 38942, Note_on_c, 5, 57, 106
7, 39002, Note_on_c, 5, 57, 0
7, 39002, Control_c, 5, 11, 67
7, 39002, Note_on_c, 5, 60, 106
7, 39010, Control_c, 5, 11, 64
7, 39019, Control_c, 5, 11, 61
7, 39028, Control_c, 5, 11, 58
7, 39037, Control_c, 5, 11, 55
7, 39046, Control_c, 5, 11, 52
7, 39055, Control_c, 5, 11, 49
7, 39062, Note_on_c, 5, 60, 0
7, 39062, Note_on_c, 5, 57, 106
7, 39092, Control_c, 5, 11, 47
7, 39097, Control_c, 5, 11, 44
7, 39103, Control_c, 5, 11, 41
7, 39109, Control_c, 5, 11, 38
7, 39115, Control_c, 5, 11, 35
7, 39121, Control_c, 5, 11, 32
7, 39122, Note_on_c, 5, 57, 0
7, 39122, Control_c, 5, 11, 37
7, 39122, Note_on_c, 5, 48, 106
7, 39167, Note_on_c, 5, 48, 0
7, 39182, Note_on_c, 5, 48, 106
7, 39227, Note_on_c, 5, 48, 0
7, 39242, Note_on_c, 5, 48, 106
7, 39287, Note_on_c, 5, 48, 0
7, 39302, Note_on_c, 5, 48, 106
7, 39347, Note_on_c, 5, 48, 0
7, 39422, Note_on_c, 5, 48, 106
7, 39482, Note_on_c, 5, 48, 0
7, 39542, Note_on_c, 5, 48, 106
7, 39602, Note_on_c, 5, 48, 0
7, 39662, Note_on_c, 5, 48, 106
7, 39722, Note_on_c, 5, 48, 0
7, 39782, Note_on_c, 5, 48, 106
7, 39842, Note_on_c, 5, 48, 0
7, 39902, Note_on_c, 5, 48, 106
7, 39962, Note_on_c, 5, 48, 0
7, 40022, Note_on_c, 5, 48, 106
7, 40082, Note_on_c, 5, 48, 0
7, 40142, Note_on_c, 5, 48, 106
7, 40202, Note_on_c, 5, 48, 0
7, 40262, Note_on_c, 5, 48, 106
7, 40322, Note_on_c, 5, 48, 0
7, 40382, Note_on_c, 5, 48, 106
7, 40442, Note_on_c, 5, 48, 0
7, 40442, Note_on_c, 5, 48, 106
7, 40502, Note_on_c, 5, 48, 0
7, 40502, Note_on_c, 5, 53, 91
7, 40537, Control_c, 5, 11, 37
7, 40544, Control_c, 5, 11, 34
7, 40551, Control_c, 5, 11, 31
7, 40558, Control_c, 5, 11, 28
7, 40562, Note_on_c, 5, 53, 0
7, 40982, Note_on_c, 5, 48, 106
7, 40982, Control_c, 5, 11, 37
7, 41000, Control_c, 5, 11, 40
7, 41018, Control_c, 5, 11, 43
7, 41036, Control_c, 5, 11, 46
7, 41042, Note_on_c, 5, 48, 0
7, 41042, Note_on_c, 5, 53, 106
7, 41072, Note_on_c, 5, 53, 0
7, 41102, Note_on_c, 5, 53, 106
7, 41132, Note_on_c, 5, 53, 0
7, 41162, Note_on_c, 5, 57, 106
7, 41222, Note_on_c, 5, 57, 0
7, 41222, Note_on_c, 5, 60, 106
7, 41252, Note_on_c, 5, 60, 0
7, 41282, Note_on_c, 5, 48, 106
7, 41312, Note_on_c, 5, 48, 0
7, 41342, Note_on_c, 5, 48, 106
7, 41372, Note_on_c, 5, 48, 0
7, 41402, Note_on_c, 5, 48, 106
7, 41522, Note_on_c, 5, 48, 0
7, 41522, Note_on_c, 5, 60, 116
7, 41582, Note_on_c, 5, 60, 0
7, 41582, Note_on_c, 5, 57, 116
7, 41642, Note_on_c, 5, 57, 0
7, 41642, Note_on_c, 5, 60, 116
7, 41702, Note_on_c, 5, 60, 0
7, 41702, Note_on_c, 5, 65, 116
7, 41762, Note_on_c, 5, 65, 0
7, 41762, Note_on_c, 5, 67, 116
7, 41882, Note_on_c, 5, 67, 0
7, 41882, Note_on_c, 5, 65, 116
7, 41942, Note_on_c, 5, 65, 0
7, 41942, Note_on_c, 5, 60, 116
7, 41942, Control_c, 5, 11, 47
7, 41966, Control_c, 5, 11, 48
7, 41990, Control_c, 5, 11, 49
7, 42002, Note_on_c, 5, 60, 0
7, 42002, Note_on_c, 5, 60, 116
7, 42014, Control_c, 5, 11, 50
7, 42038, Control_c, 5, 11, 51
7, 42062, Note_on_c, 5, 60, 0
7, 42062, Control_c, 5, 11, 52
7, 42062, Note_on_c, 5, 60, 116
7, 42086, Control_c, 5, 11, 53
7, 42110, Control_c, 5, 11, 54
7, 42122, Note_on_c, 5, 60, 0
7, 42122, Note_on_c, 5, 60, 116
7, 42134, Control_c, 5, 11, 55
7, 42158, Control_c, 5, 11, 56
7, 42182, Note_on_c, 5, 60, 0
7, 42182, Control_c, 5, 11, 57
7, 42206, Control_c, 5, 11, 58
7, 42230, Control_c, 5, 11, 59
7, 42254, Control_c, 5, 11, 60
7, 42278, Control_c, 5, 11, 61
7, 42302, Control_c, 5, 11, 62
7, 43022, Note_on_c, 5, 53, 74
7, 43022, Control_c, 5, 11, 87
7, 43082, Note_on_c, 5, 53, 0
7, 43082, Note_on_c, 5, 53, 85
7, 43142, Note_on_c, 5, 53, 0
7, 43142, Note_on_c, 5, 53, 99
7, 43202, Note_on_c, 5, 53, 0
7, 43202, Note_on_c, 5, 53, 106
7, 43202, Control_c, 5, 11, 107
7, 43211, Control_c, 5, 11, 104
7, 43220, Control_c, 5, 11, 101
7, 43229, Control_c, 5, 11, 98
7, 43238, Control_c, 5, 11, 95
7, 43247, Control_c, 5, 11, 92
7, 43256, Control_c, 5, 11, 89
7, 43322, Note_on_c, 5, 53, 0
7, 43322, Note_on_c, 5, 53, 106
7, 43382, Note_on_c, 5, 53, 0
7, 43562, Note_on_c, 5, 48, 106
7, 43562, Control_c, 5, 11, 107
7, 43571, Control_c, 5, 11, 104
7, 43580, Control_c, 5, 11, 101
7, 43589, Control_c, 5, 11, 98
7, 43598, Control_c, 5, 11, 95
7, 43607, Control_c, 5, 11, 92
7, 43616, Control_c, 5, 11, 89
7, 43682, Note_on_c, 5, 48, 0
7, 43682, Note_on_c, 5, 48, 106
7, 43742, Note_on_c, 5, 48, 0
7, 43922, Note_on_c, 5, 65, 127
7, 43922, Control_c, 5, 11, 87
7, 43922, Control_c, 5, 91, 115
7, 44162, Note_on_c, 5, 65, 0
7, 44162, Note_on_c, 5, 67, 127
7, 44222, Note_on_c, 5, 67, 0
7, 44222, Note_on_c, 5, 60, 127
7, 44262, Control_c, 5, 11, 87
7, 44264, Control_c, 5, 11, 83
7, 44266, Control_c, 5, 11, 79
7, 44268, Control_c, 5, 11, 75
7, 44270, Control_c, 5, 11, 71
7, 44272, Control_c, 5, 11, 67
7, 44274, Control_c, 5, 11, 63
7, 44276, Control_c, 5, 11, 59
7, 44278, Control_c, 5, 11, 55
7, 44280, Control_c, 5, 11, 51
7, 44282, Note_on_c, 5, 60, 0
7, 44282, Control_c, 5, 91, 80
7, 44282, Control_c, 5, 11, 47
7, 44282, Note_on_c, 5, 57, 101
7, 44312, Note_on_c, 5, 57, 0
7, 44342, Note_on_c, 5, 57, 106
7, 44372, Note_on_c, 5, 57, 0
7, 44462, Note_on_c, 5, 65, 106
7, 44492, Note_on_c, 5, 65, 0
7, 44522, Note_on_c, 5, 65, 106
7, 44552, Note_on_c, 5, 65, 0
7, 44642, Note_on_c, 5, 67, 106
7, 44672, Note_on_c, 5, 67, 0
7, 44702, Note_on_c, 5, 67, 106
7, 44732, Note_on_c, 5, 67, 0
7, 44822, Note_on_c, 5, 60, 106
7, 44852, Note_on_c, 5, 60, 0
7, 44882, Note_on_c, 5, 60, 106
7, 44912, Note_on_c, 5, 60, 0
7, 45002, Note_on_c, 5, 57, 106
7, 45032, Note_on_c, 5, 57, 0
7, 45062, Note_on_c, 5, 57, 106
7, 45092, Note_on_c, 5, 57, 0
7, 45182, Note_on_c, 5, 65, 106
7, 45212, Note_on_c, 5, 65, 0
7, 45242, Note_on_c, 5, 65, 106
7, 45272, Note_on_c, 5, 65, 0
7, 45362, Note_on_c, 5, 67, 106
7, 45392, Note_on_c, 5, 67, 0
7, 45422, Note_on_c, 5, 67, 106
7, 45452, Note_on_c, 5, 67, 0
7, 45542, Note_on_c, 5, 60, 106
7, 45572, Note_on_c, 5, 60, 0
7, 45602, Note_on_c, 5, 60, 106
7, 45632, Note_on_c, 5, 60, 0
7, 45722, Note_on_c, 5, 57, 106
7, 45782, Note_on_c, 5, 57, 0
7, 45842, Control_c, 5, 91, 115
7, 45842, Note_on_c, 5, 60, 86
7, 45842, Control_c, 5, 11, 37
7, 45860, Control_c, 5, 11, 40
7, 45878, Control_c, 5, 11, 43
7, 45896, Control_c, 5, 11, 46
7, 45902, Note_on_c, 5, 60, 0
7, 45902, Note_on_c, 5, 65, 86
7, 45932, Note_on_c, 5, 65, 0
7, 46022, Control_c, 5, 11, 37
7, 46022, Note_on_c, 5, 60, 86
7, 46040, Control_c, 5, 11, 40
7, 46058, Control_c, 5, 11, 43
7, 46076, Control_c, 5, 11, 46
7, 46082, Note_on_c, 5, 60, 0
7, 46082, Note_on_c, 5, 57, 86
7, 46112, Note_on_c, 5, 57, 0
7, 46202, Control_c, 5, 11, 32
7, 46202, Note_on_c, 5, 60, 94
7, 46226, Control_c, 5, 11, 34
7, 46250, Control_c, 5, 11, 36
7, 46262, Note_on_c, 5, 60, 0
7, 46262, Note_on_c, 5, 65, 94
7, 46292, Note_on_c, 5, 65, 0
7, 46382, Control_c, 5, 11, 62
7, 46382, Note_on_c, 5, 60, 94
7, 46384, Control_c, 5, 11, 65
7, 46387, Control_c, 5, 11, 69
7, 46390, Control_c, 5, 11, 72
7, 46392, Control_c, 5, 11, 75
7, 46395, Control_c, 5, 11, 79
7, 46398, Control_c, 5, 11, 82
7, 46400, Control_c, 5, 11, 85
7, 46442, Note_on_c, 5, 60, 0
7, 46442, Note_on_c, 5, 57, 106
7, 46472, Note_on_c, 5, 57, 0
7, 46502, Control_c, 5, 91, 80
7, 46502, Control_c, 5, 11, 42
7, 46502, Note_on_c, 5, 53, 106
7, 46532, Note_on_c, 5, 53, 0
7, 46562, Note_on_c, 5, 53, 96
7, 46592, Note_on_c, 5, 53, 0
7, 46622, Note_on_c, 5, 53, 78
7, 46702, Control_c, 5, 11, 42
7, 46708, Control_c, 5, 11, 39
7, 46714, Control_c, 5, 11, 36
7, 46720, Control_c, 5, 11, 33
7, 46726, Control_c, 5, 11, 30
7, 46732, Control_c, 5, 11, 27
7, 46738, Control_c, 5, 11, 24
7, 46742, Note_on_c, 5, 53, 0
7, 46982, Control_c, 5, 121, 0
7, 46982, End_track
8, 0, Start_track
8, 0, MIDI_port, 0
8, 0, Title_t, "2 Trombe in C"
8, 0, Program_c, 6, 56
8, 0, Control_c, 6, 10, 77
8, 1, Control_c, 6, 121, 0
8, 6, Program_c, 6, 56
8, 11, Pitch_bend_c, 6, 8192
8, 16, Control_c, 6, 11, 47
8, 21, Control_c, 6, 7, 127
8, 26, Control_c, 6, 91, 80
8, 31, Control_c, 6, 93, 0
8, 36, Control_c, 6, 10, 77
8, 9601, Control_c, 6, 11, 47
8, 9601, Note_on_c, 6, 55, 95
8, 9601, Note_on_c, 6, 67, 95
8, 9646, Note_on_c, 6, 67, 0
8, 9646, Note_on_c, 6, 55, 0
8, 9661, Note_on_c, 6, 55, 106
8, 9661, Note_on_c, 6, 67, 106
8, 9706, Note_on_c, 6, 67, 0
8, 9706, Note_on_c, 6, 55, 0
8, 9721, Note_on_c, 6, 55, 127
8, 9721, Note_on_c, 6, 67, 127
8, 10126, Note_on_c, 6, 67, 0
8, 10126, Note_on_c, 6, 55, 0
8, 10141, Note_on_c, 6, 55, 127
8, 10141, Note_on_c, 6, 67, 127
8, 10186, Note_on_c, 6, 67, 0
8, 10186, Note_on_c, 6, 55, 0
8, 10201, Note_on_c, 6, 55, 127
8, 10201, Note_on_c, 6, 67, 127
8, 10246, Note_on_c, 6, 67, 0
8, 10246, Note_on_c, 6, 55, 0
8, 10261, Note_on_c, 6, 55, 127
8, 10261, Note_on_c, 6, 67, 127
8, 10306, Note_on_c, 6, 67, 0
8, 10306, Note_on_c, 6, 55, 0
8, 10321, Note_on_c, 6, 55, 127
8, 10321, Note_on_c, 6, 67, 127
8, 10366, Note_on_c, 6, 67, 0
8, 10366, Note_on_c, 6, 55, 0
8, 10381, Note_on_c, 6, 55, 127
8, 10381, Note_on_c, 6, 67, 127
8, 10426, Note_on_c, 6, 67, 0
8, 10426, Note_on_c, 6, 55, 0
8, 10441, Note_on_c, 6, 55, 127
8, 10441, Note_on_c, 6, 67, 127
8, 10846, Note_on_c, 6, 67, 0
8, 10846, Note_on_c, 6, 55, 0
8, 10861, Note_on_c, 6, 55, 127
8, 10861, Note_on_c, 6, 67, 127
8, 10906, Note_on_c, 6, 67, 0
8, 10906, Note_on_c, 6, 55, 0
8, 10921, Note_on_c, 6, 55, 127
8, 10921, Note_on_c, 6, 67, 127
8, 10966, Note_on_c, 6, 67, 0
8, 10966, Note_on_c, 6, 55, 0
8, 10981, Note_on_c, 6, 55, 117
8, 10981, Note_on_c, 6, 67, 117
8, 11016, Control_c, 6, 11, 47
8, 11019, Control_c, 6, 11, 44
8, 11023, Control_c, 6, 11, 41
8, 11026, Control_c, 6, 11, 38
8, 11030, Control_c, 6, 11, 35
8, 11034, Control_c, 6, 11, 32
8, 11037, Control_c, 6, 11, 29
8, 11041, Note_on_c, 6, 67, 0
8, 11041, Note_on_c, 6, 55, 0
8, 11401, Control_c, 6, 11, 47
8, 11401, Note_on_c, 6, 55, 105
8, 11401, Note_on_c, 6, 67, 105
8, 11431, Note_on_c, 6, 67, 0
8, 11431, Note_on_c, 6, 55, 0
8, 11461, Note_on_c, 6, 55, 91
8, 11461, Note_on_c, 6, 67, 91
8, 11491, Note_on_c, 6, 67, 0
8, 11491, Note_on_c, 6, 55, 0
8, 11521, Note_on_c, 6, 67, 78
8, 11521, Note_on_c, 6, 55, 78
8, 11556, Control_c, 6, 11, 47
8, 11563, Control_c, 6, 11, 44
8, 11570, Control_c, 6, 11, 41
8, 11577, Control_c, 6, 11, 38
8, 11581, Note_on_c, 6, 55, 0
8, 11581, Note_on_c, 6, 67, 0
8, 21121, Control_c, 6, 11, 47
8, 21121, Note_on_c, 6, 55, 95
8, 21121, Note_on_c, 6, 67, 95
8, 21166, Note_on_c, 6, 67, 0
8, 21166, Note_on_c, 6, 55, 0
8, 21181, Note_on_c, 6, 55, 106
8, 21181, Note_on_c, 6, 67, 106
8, 21226, Note_on_c, 6, 67, 0
8, 21226, Note_on_c, 6, 55, 0
8, 21241, Note_on_c, 6, 55, 127
8, 21241, Note_on_c, 6, 67, 127
8, 21646, Note_on_c, 6, 67, 0
8, 21646, Note_on_c, 6, 55, 0
8, 21661, Note_on_c, 6, 55, 127
8, 21661, Note_on_c, 6, 67, 127
8, 21706, Note_on_c, 6, 67, 0
8, 21706, Note_on_c, 6, 55, 0
8, 21721, Note_on_c, 6, 55, 127
8, 21721, Note_on_c, 6, 67, 127
8, 21766, Note_on_c, 6, 67, 0
8, 21766, Note_on_c, 6, 55, 0
8, 21781, Note_on_c, 6, 55, 127
8, 21781, Note_on_c, 6, 67, 127
8, 21826, Note_on_c, 6, 67, 0
8, 21826, Note_on_c, 6, 55, 0
8, 21841, Note_on_c, 6, 55, 127
8, 21841, Note_on_c, 6, 67, 127
8, 21886, Note_on_c, 6, 67, 0
8, 21886, Note_on_c, 6, 55, 0
8, 21901, Note_on_c, 6, 55, 127
8, 21901, Note_on_c, 6, 67, 127
8, 21946, Note_on_c, 6, 67, 0
8, 21946, Note_on_c, 6, 55, 0
8, 21961, Note_on_c, 6, 55, 127
8, 21961, Note_on_c, 6, 67, 127
8, 22366, Note_on_c, 6, 67, 0
8, 22366, Note_on_c, 6, 55, 0
8, 22381, Note_on_c, 6, 55, 127
8, 22381, Note_on_c, 6, 67, 127
8, 22426, Note_on_c, 6, 67, 0
8, 22426, Note_on_c, 6, 55, 0
8, 22441, Note_on_c, 6, 55, 127
8, 22441, Note_on_c, 6, 67, 127
8, 22486, Note_on_c, 6, 67, 0
8, 22486, Note_on_c, 6, 55, 0
8, 22501, Note_on_c, 6, 55, 117
8, 22501, Note_on_c, 6, 67, 117
8, 22536, Control_c, 6, 11, 47
8, 22539, Control_c, 6, 11, 44
8, 22543, Control_c, 6, 11, 41
8, 22546, Control_c, 6, 11, 38
8, 22550, Control_c, 6, 11, 35
8, 22554, Control_c, 6, 11, 32
8, 22557, Control_c, 6, 11, 29
8, 22561, Note_on_c, 6, 67, 0
8, 22561, Note_on_c, 6, 55, 0
8, 22921, Control_c, 6, 11, 47
8, 22921, Note_on_c, 6, 55, 105
8, 22921, Note_on_c, 6, 67, 105
8, 22951, Note_on_c, 6, 67, 0
8, 22951, Note_on_c, 6, 55, 0
8, 22981, Note_on_c, 6, 55, 91
8, 22981, Note_on_c, 6, 67, 91
8, 23011, Note_on_c, 6, 67, 0
8, 23011, Note_on_c, 6, 55, 0
8, 23041, Note_on_c, 6, 55, 86
8, 23041, Note_on_c, 6, 67, 86
8, 23076, Control_c, 6, 11, 47
8, 23083, Control_c, 6, 11, 44
8, 23090, Control_c, 6, 11, 41
8, 23097, Control_c, 6, 11, 38
8, 23101, Note_on_c, 6, 67, 0
8, 23101, Note_on_c, 6, 55, 0
8, 26401, Note_on_c, 6, 60, 110
8, 26401, Note_on_c, 6, 72, 110
8, 26401, Control_c, 6, 11, 87
8, 26491, Note_on_c, 6, 72, 0
8, 26491, Note_on_c, 6, 60, 0
8, 26521, Note_on_c, 6, 72, 110
8, 26521, Note_on_c, 6, 60, 110
8, 26551, Note_on_c, 6, 60, 0
8, 26551, Note_on_c, 6, 72, 0
8, 26761, Control_c, 6, 11, 87
8, 26761, Note_on_c, 6, 72, 110
8, 26761, Note_on_c, 6, 60, 110
8, 26851, Note_on_c, 6, 60, 0
8, 26851, Note_on_c, 6, 72, 0
8, 27961, Control_c, 6, 11, 37
8, 27961, Note_on_c, 6, 60, 105
8, 27961, Note_on_c, 6, 72, 105
8, 27979, Control_c, 6, 11, 40
8, 27997, Control_c, 6, 11, 43
8, 28003, Note_on_c, 6, 72, 0
8, 28003, Note_on_c, 6, 60, 0
8, 28006, Note_on_c, 6, 72, 105
8, 28006, Note_on_c, 6, 60, 105
8, 28015, Control_c, 6, 11, 46
8, 28018, Note_on_c, 6, 60, 0
8, 28018, Note_on_c, 6, 72, 0
8, 28021, Note_on_c, 6, 60, 105
8, 28021, Note_on_c, 6, 72, 105
8, 28033, Control_c, 6, 11, 49
8, 28051, Control_c, 6, 11, 52
8, 28063, Note_on_c, 6, 72, 0
8, 28063, Note_on_c, 6, 60, 0
8, 28066, Note_on_c, 6, 60, 105
8, 28066, Note_on_c, 6, 72, 105
8, 28069, Control_c, 6, 11, 55
8, 28078, Note_on_c, 6, 72, 0
8, 28078, Note_on_c, 6, 60, 0
8, 28081, Note_on_c, 6, 72, 105
8, 28081, Note_on_c, 6, 60, 105
8, 28087, Control_c, 6, 11, 58
8, 28105, Control_c, 6, 11, 61
8, 28123, Note_on_c, 6, 60, 0
8, 28123, Note_on_c, 6, 72, 0
8, 28123, Control_c, 6, 11, 64
8, 28126, Note_on_c, 6, 72, 105
8, 28126, Note_on_c, 6, 60, 105
8, 28138, Note_on_c, 6, 60, 0
8, 28138, Note_on_c, 6, 72, 0
8, 28141, Note_on_c, 6, 60, 105
8, 28141, Note_on_c, 6, 72, 105
8, 28141, Control_c, 6, 11, 67
8, 28159, Control_c, 6, 11, 70
8, 28177, Control_c, 6, 11, 73
8, 28183, Note_on_c, 6, 72, 0
8, 28183, Note_on_c, 6, 60, 0
8, 28186, Note_on_c, 6, 60, 105
8, 28186, Note_on_c, 6, 72, 105
8, 28195, Control_c, 6, 11, 76
8, 28198, Note_on_c, 6, 72, 0
8, 28198, Note_on_c, 6, 60, 0
8, 28201, Note_on_c, 6, 72, 105
8, 28201, Note_on_c, 6, 60, 105
8, 28213, Control_c, 6, 11, 79
8, 28231, Control_c, 6, 11, 82
8, 28243, Note_on_c, 6, 60, 0
8, 28243, Note_on_c, 6, 72, 0
8, 28246, Note_on_c, 6, 60, 105
8, 28246, Note_on_c, 6, 72, 105
8, 28249, Control_c, 6, 11, 85
8, 28258, Note_on_c, 6, 72, 0
8, 28258, Note_on_c, 6, 60, 0
8, 28261, Note_on_c, 6, 72, 110
8, 28261, Note_on_c, 6, 60, 110
8, 28421, Control_c, 6, 11, 87
8, 28422, Control_c, 6, 11, 84
8, 28424, Control_c, 6, 11, 80
8, 28426, Control_c, 6, 11, 76
8, 28428, Control_c, 6, 11, 72
8, 28430, Control_c, 6, 11, 68
8, 28431, Control_c, 6, 11, 65
8, 28433, Control_c, 6, 11, 61
8, 28435, Control_c, 6, 11, 57
8, 28437, Control_c, 6, 11, 53
8, 28439, Control_c, 6, 11, 49
8, 28441, Note_on_c, 6, 60, 0
8, 28441, Note_on_c, 6, 72, 0
8, 28621, Control_c, 6, 11, 87
8, 28621, Note_on_c, 6, 60, 110
8, 28621, Note_on_c, 6, 72, 110
8, 28781, Control_c, 6, 11, 87
8, 28782, Control_c, 6, 11, 84
8, 28784, Control_c, 6, 11, 80
8, 28786, Control_c, 6, 11, 76
8, 28788, Control_c, 6, 11, 72
8, 28790, Control_c, 6, 11, 68
8, 28791, Control_c, 6, 11, 65
8, 28793, Control_c, 6, 11, 61
8, 28795, Control_c, 6, 11, 57
8, 28797, Control_c, 6, 11, 53
8, 28799, Control_c, 6, 11, 49
8, 28801, Note_on_c, 6, 72, 0
8, 28801, Note_on_c, 6, 60, 0
8, 39121, Note_on_c, 6, 60, 110
8, 39121, Note_on_c, 6, 72, 110
8, 39121, Control_c, 6, 11, 47
8, 39166, Note_on_c, 6, 72, 0
8, 39166, Note_on_c, 6, 60, 0
8, 39181, Note_on_c, 6, 72, 110
8, 39181, Note_on_c, 6, 60, 110
8, 39226, Note_on_c, 6, 60, 0
8, 39226, Note_on_c, 6, 72, 0
8, 39241, Note_on_c, 6, 60, 120
8, 39241, Note_on_c, 6, 72, 120
8, 39841, Note_on_c, 6, 72, 0
8, 39841, Note_on_c, 6, 60, 0
8, 39841, Note_on_c, 6, 60, 120
8, 39841, Note_on_c, 6, 72, 120
8, 39901, Note_on_c, 6, 72, 0
8, 39901, Note_on_c, 6, 60, 0
8, 39901, Note_on_c, 6, 72, 120
8, 39901, Note_on_c, 6, 60, 120
8, 39961, Note_on_c, 6, 60, 0
8, 39961, Note_on_c, 6, 72, 0
8, 39961, Note_on_c, 6, 60, 120
8, 39961, Note_on_c, 6, 72, 120
8, 40381, Note_on_c, 6, 72, 0
8, 40381, Note_on_c, 6, 60, 0
8, 40381, Note_on_c, 6, 60, 120
8, 40381, Note_on_c, 6, 72, 120
8, 40441, Note_on_c, 6, 72, 0
8, 40441, Note_on_c, 6, 60, 0
8, 40441, Note_on_c, 6, 72, 120
8, 40441, Note_on_c, 6, 60, 120
8, 40501, Note_on_c, 6, 60, 0
8, 40501, Note_on_c, 6, 72, 0
8, 40501, Note_on_c, 6, 60, 103
8, 40501, Note_on_c, 6, 72, 103
8, 40536, Control_c, 6, 11, 47
8, 40539, Control_c, 6, 11, 44
8, 40543, Control_c, 6, 11, 41
8, 40546, Control_c, 6, 11, 38
8, 40550, Control_c, 6, 11, 35
8, 40554, Control_c, 6, 11, 32
8, 40557, Control_c, 6, 11, 29
8, 40561, Note_on_c, 6, 72, 0
8, 40561, Note_on_c, 6, 60, 0
8, 46981, Control_c, 6, 121, 0
8, 46981, End_track
9, 0, Start_track
9, 0, MIDI_port, 0
9, 0, Title_t, "Timpani"
9, 0, Program_c, 15, 47
9, 0, Control_c, 15, 10, 97
9, 4, Control_c, 15, 121, 0
9, 9, Program_c, 15, 47
9, 14, Pitch_bend_c, 15, 8192
9, 19, Control_c, 15, 11, 127
9, 24, Control_c, 15, 7, 127
9, 29, Control_c, 15, 91, 89
9, 34, Control_c, 15, 93, 0
9, 39, Control_c, 15, 10, 97
9, 44, Control_c, 15, 1, 100
9, 9544, Note_on_c, 15, 48, 28
9, 9589, Note_on_c, 15, 48, 0
9, 9589, Note_on_c, 15, 43, 28
9, 9604, Note_on_c, 15, 43, 0
9, 9604, Note_on_c, 15, 43, 28
9, 9649, Note_on_c, 15, 43, 0
9, 9649, Note_on_c, 15, 43, 28
9, 9664, Note_on_c, 15, 43, 0
9, 9664, Note_on_c, 15, 43, 28
9, 9709, Note_on_c, 15, 43, 0
9, 9709, Note_on_c, 15, 43, 28
9, 9724, Note_on_c, 15, 43, 0
9, 9724, Note_on_c, 15, 43, 28
9, 9769, Note_on_c, 15, 43, 0
9, 9769, Note_on_c, 15, 43, 28
9, 9784, Note_on_c, 15, 43, 0
9, 9784, Note_on_c, 15, 43, 28
9, 9829, Note_on_c, 15, 43, 0
9, 9829, Note_on_c, 15, 43, 28
9, 9844, Note_on_c, 15, 43, 0
9, 9844, Note_on_c, 15, 43, 28
9, 9889, Note_on_c, 15, 43, 0
9, 9889, Note_on_c, 15, 43, 28
9, 9904, Note_on_c, 15, 43, 0
9, 9904, Note_on_c, 15, 43, 28
9, 9949, Note_on_c, 15, 43, 0
9, 9949, Note_on_c, 15, 43, 28
9, 9964, Note_on_c, 15, 43, 0
9, 9964, Note_on_c, 15, 43, 28
9, 10009, Note_on_c, 15, 43, 0
9, 10009, Note_on_c, 15, 43, 28
9, 10024, Note_on_c, 15, 43, 0
9, 10024, Note_on_c, 15, 43, 28
9, 10069, Note_on_c, 15, 43, 0
9, 10069, Note_on_c, 15, 43, 28
9, 10084, Note_on_c, 15, 43, 0
9, 10084, Note_on_c, 15, 43, 28
9, 10129, Note_on_c, 15, 43, 0
9, 10129, Note_on_c, 15, 43, 28
9, 10144, Note_on_c, 15, 43, 0
9, 10144, Note_on_c, 15, 43, 28
9, 10189, Note_on_c, 15, 43, 0
9, 10189, Note_on_c, 15, 43, 28
9, 10204, Note_on_c, 15, 43, 0
9, 10204, Note_on_c, 15, 43, 28
9, 10249, Note_on_c, 15, 43, 0
9, 10249, Note_on_c, 15, 43, 28
9, 10264, Note_on_c, 15, 43, 0
9, 10264, Note_on_c, 15, 43, 28
9, 10309, Note_on_c, 15, 43, 0
9, 10309, Note_on_c, 15, 43, 28
9, 10324, Note_on_c, 15, 43, 0
9, 10324, Note_on_c, 15, 43, 28
9, 10369, Note_on_c, 15, 43, 0
9, 10369, Note_on_c, 15, 43, 28
9, 10384, Note_on_c, 15, 43, 0
9, 10384, Note_on_c, 15, 43, 28
9, 10429, Note_on_c, 15, 43, 0
9, 10429, Note_on_c, 15, 43, 28
9, 10444, Note_on_c, 15, 43, 0
9, 10444, Note_on_c, 15, 43, 28
9, 10489, Note_on_c, 15, 43, 0
9, 10489, Note_on_c, 15, 43, 28
9, 10504, Note_on_c, 15, 43, 0
9, 10504, Note_on_c, 15, 43, 28
9, 10549, Note_on_c, 15, 43, 0
9, 10549, Note_on_c, 15, 43, 28
9, 10564, Note_on_c, 15, 43, 0
9, 10564, Note_on_c, 15, 43, 28
9, 10609, Note_on_c, 15, 43, 0
9, 10609, Note_on_c, 15, 43, 28
9, 10624, Note_on_c, 15, 43, 0
9, 10624, Note_on_c, 15, 43, 28
9, 10669, Note_on_c, 15, 43, 0
9, 10669, Note_on_c, 15, 43, 28
9, 10684, Note_on_c, 15, 43, 0
9, 10684, Note_on_c, 15, 43, 28
9, 10729, Note_on_c, 15, 43, 0
9, 10729, Note_on_c, 15, 43, 28
9, 10744, Note_on_c, 15, 43, 0
9, 10744, Note_on_c, 15, 43, 28
9, 10789, Note_on_c, 15, 43, 0
9, 10789, Note_on_c, 15, 43, 28
9, 10804, Note_on_c, 15, 43, 0
9, 10804, Note_on_c, 15, 43, 28
9, 10849, Note_on_c, 15, 43, 0
9, 10849, Note_on_c, 15, 43, 28
9, 10864, Note_on_c, 15, 43, 0
9, 10864, Note_on_c, 15, 43, 28
9, 10909, Note_on_c, 15, 43, 0
9, 10909, Note_on_c, 15, 43, 28
9, 10924, Note_on_c, 15, 43, 0
9, 10924, Note_on_c, 15, 43, 28
9, 10969, Note_on_c, 15, 43, 0
9, 10969, Note_on_c, 15, 43, 28
9, 10984, Note_on_c, 15, 43, 0
9, 10984, Note_on_c, 15, 48, 23
9, 11044, Note_on_c, 15, 48, 0
9, 11404, Note_on_c, 15, 48, 28
9, 11464, Note_on_c, 15, 48, 0
9, 11464, Note_on_c, 15, 48, 24
9, 11524, Note_on_c, 15, 48, 0
9, 11524, Note_on_c, 15, 48, 18
9, 11584, Note_on_c, 15, 48, 0
9, 21064, Note_on_c, 15, 48, 28
9, 21109, Note_on_c, 15, 48, 0
9, 21109, Note_on_c, 15, 43, 28
9, 21124, Note_on_c, 15, 43, 0
9, 21124, Note_on_c, 15, 43, 28
9, 21169, Note_on_c, 15, 43, 0
9, 21169, Note_on_c, 15, 43, 28
9, 21184, Note_on_c, 15, 43, 0
9, 21184, Note_on_c, 15, 43, 28
9, 21229, Note_on_c, 15, 43, 0
9, 21229, Note_on_c, 15, 43, 28
9, 21244, Note_on_c, 15, 43, 0
9, 21244, Note_on_c, 15, 43, 28
9, 21289, Note_on_c, 15, 43, 0
9, 21289, Note_on_c, 15, 43, 28
9, 21304, Note_on_c, 15, 43, 0
9, 21304, Note_on_c, 15, 43, 28
9, 21349, Note_on_c, 15, 43, 0
9, 21349, Note_on_c, 15, 43, 28
9, 21364, Note_on_c, 15, 43, 0
9, 21364, Note_on_c, 15, 43, 28
9, 21409, Note_on_c, 15, 43, 0
9, 21409, Note_on_c, 15, 43, 28
9, 21424, Note_on_c, 15, 43, 0
9, 21424, Note_on_c, 15, 43, 28
9, 21469, Note_on_c, 15, 43, 0
9, 21469, Note_on_c, 15, 43, 28
9, 21484, Note_on_c, 15, 43, 0
9, 21484, Note_on_c, 15, 43, 28
9, 21529, Note_on_c, 15, 43, 0
9, 21529, Note_on_c, 15, 43, 28
9, 21544, Note_on_c, 15, 43, 0
9, 21544, Note_on_c, 15, 43, 28
9, 21589, Note_on_c, 15, 43, 0
9, 21589, Note_on_c, 15, 43, 28
9, 21604, Note_on_c, 15, 43, 0
9, 21604, Note_on_c, 15, 43, 28
9, 21649, Note_on_c, 15, 43, 0
9, 21649, Note_on_c, 15, 43, 28
9, 21664, Note_on_c, 15, 43, 0
9, 21664, Note_on_c, 15, 43, 28
9, 21709, Note_on_c, 15, 43, 0
9, 21709, Note_on_c, 15, 43, 28
9, 21724, Note_on_c, 15, 43, 0
9, 21724, Note_on_c, 15, 43, 28
9, 21769, Note_on_c, 15, 43, 0
9, 21769, Note_on_c, 15, 43, 28
9, 21784, Note_on_c, 15, 43, 0
9, 21784, Note_on_c, 15, 43, 28
9, 21829, Note_on_c, 15, 43, 0
9, 21829, Note_on_c, 15, 43, 28
9, 21844, Note_on_c, 15, 43, 0
9, 21844, Note_on_c, 15, 43, 28
9, 21889, Note_on_c, 15, 43, 0
9, 21889, Note_on_c, 15, 43, 28
9, 21904, Note_on_c, 15, 43, 0
9, 21904, Note_on_c, 15, 43, 28
9, 21949, Note_on_c, 15, 43, 0
9, 21949, Note_on_c, 15, 43, 28
9, 21964, Note_on_c, 15, 43, 0
9, 21964, Note_on_c, 15, 43, 28
9, 22009, Note_on_c, 15, 43, 0
9, 22009, Note_on_c, 15, 43, 28
9, 22024, Note_on_c, 15, 43, 0
9, 22024, Note_on_c, 15, 43, 28
9, 22069, Note_on_c, 15, 43, 0
9, 22069, Note_on_c, 15, 43, 28
9, 22084, Note_on_c, 15, 43, 0
9, 22084, Note_on_c, 15, 43, 28
9, 22129, Note_on_c, 15, 43, 0
9, 22129, Note_on_c, 15, 43, 28
9, 22144, Note_on_c, 15, 43, 0
9, 22144, Note_on_c, 15, 43, 28
9, 22189, Note_on_c, 15, 43, 0
9, 22189, Note_on_c, 15, 43, 28
9, 22204, Note_on_c, 15, 43, 0
9, 22204, Note_on_c, 15, 43, 28
9, 22249, Note_on_c, 15, 43, 0
9, 22249, Note_on_c, 15, 43, 28
9, 22264, Note_on_c, 15, 43, 0
9, 22264, Note_on_c, 15, 43, 28
9, 22309, Note_on_c, 15, 43, 0
9, 22309, Note_on_c, 15, 43, 28
9, 22324, Note_on_c, 15, 43, 0
9, 22324, Note_on_c, 15, 43, 28
9, 22369, Note_on_c, 15, 43, 0
9, 22369, Note_on_c, 15, 43, 28
9, 22384, Note_on_c, 15, 43, 0
9, 22384, Note_on_c, 15, 43, 28
9, 22429, Note_on_c, 15, 43, 0
9, 22429, Note_on_c, 15, 43, 28
9, 22444, Note_on_c, 15, 43, 0
9, 22444, Note_on_c, 15, 43, 28
9, 22489, Note_on_c, 15, 43, 0
9, 22489, Note_on_c, 15, 43, 28
9, 22504, Note_on_c, 15, 43, 0
9, 22504, Note_on_c, 15, 48, 23
9, 22564, Note_on_c, 15, 48, 0
9, 22924, Note_on_c, 15, 48, 28
9, 22984, Note_on_c, 15, 48, 0
9, 22984, Note_on_c, 15, 48, 24
9, 23044, Note_on_c, 15, 48, 0
9, 23044, Note_on_c, 15, 48, 21
9, 23104, Note_on_c, 15, 48, 0
9, 26104, Note_on_c, 15, 48, 30
9, 26131, Note_on_c, 15, 48, 0
9, 26149, Note_on_c, 15, 48, 30
9, 26158, Note_on_c, 15, 48, 0
9, 26164, Note_on_c, 15, 48, 30
9, 26191, Note_on_c, 15, 48, 0
9, 26209, Note_on_c, 15, 48, 30
9, 26218, Note_on_c, 15, 48, 0
9, 26224, Note_on_c, 15, 48, 30
9, 26251, Note_on_c, 15, 48, 0
9, 26269, Note_on_c, 15, 48, 30
9, 26278, Note_on_c, 15, 48, 0
9, 26284, Note_on_c, 15, 48, 30
9, 26311, Note_on_c, 15, 48, 0
9, 26329, Note_on_c, 15, 48, 30
9, 26338, Note_on_c, 15, 48, 0
9, 26344, Note_on_c, 15, 48, 30
9, 26371, Note_on_c, 15, 48, 0
9, 26389, Note_on_c, 15, 48, 30
9, 26398, Note_on_c, 15, 48, 0
9, 26404, Note_on_c, 15, 48, 75
9, 26431, Note_on_c, 15, 48, 0
9, 26449, Note_on_c, 15, 48, 75
9, 26458, Note_on_c, 15, 48, 0
9, 26464, Note_on_c, 15, 48, 75
9, 26491, Note_on_c, 15, 48, 0
9, 26509, Note_on_c, 15, 48, 60
9, 26518, Note_on_c, 15, 48, 0
9, 26524, Note_on_c, 15, 48, 60
9, 26551, Note_on_c, 15, 48, 0
9, 26569, Note_on_c, 15, 48, 48
9, 26578, Note_on_c, 15, 48, 0
9, 26584, Note_on_c, 15, 48, 30
9, 26611, Note_on_c, 15, 48, 0
9, 26629, Note_on_c, 15, 48, 30
9, 26638, Note_on_c, 15, 48, 0
9, 26644, Note_on_c, 15, 48, 30
9, 26671, Note_on_c, 15, 48, 0
9, 26689, Note_on_c, 15, 48, 30
9, 26698, Note_on_c, 15, 48, 0
9, 26704, Note_on_c, 15, 48, 30
9, 26731, Note_on_c, 15, 48, 0
9, 26749, Note_on_c, 15, 48, 30
9, 26758, Note_on_c, 15, 48, 0
9, 26764, Note_on_c, 15, 48, 75
9, 26791, Note_on_c, 15, 48, 0
9, 26809, Note_on_c, 15, 48, 75
9, 26818, Note_on_c, 15, 48, 0
9, 26824, Note_on_c, 15, 48, 75
9, 26851, Note_on_c, 15, 48, 0
9, 26869, Note_on_c, 15, 48, 48
9, 26878, Note_on_c, 15, 48, 0
9, 26884, Note_on_c, 15, 48, 24
9, 26911, Note_on_c, 15, 48, 0
9, 26929, Note_on_c, 15, 48, 24
9, 26938, Note_on_c, 15, 48, 0
9, 26944, Note_on_c, 15, 48, 30
9, 26971, Note_on_c, 15, 48, 0
9, 26989, Note_on_c, 15, 48, 30
9, 26998, Note_on_c, 15, 48, 0
9, 27004, Note_on_c, 15, 48, 30
9, 27031, Note_on_c, 15, 48, 0
9, 27049, Note_on_c, 15, 48, 30
9, 27058, Note_on_c, 15, 48, 0
9, 27064, Note_on_c, 15, 48, 30
9, 27091, Note_on_c, 15, 48, 0
9, 27109, Note_on_c, 15, 48, 30
9, 27118, Note_on_c, 15, 48, 0
9, 27124, Note_on_c, 15, 48, 30
9, 27151, Note_on_c, 15, 48, 0
9, 27169, Note_on_c, 15, 48, 30
9, 27178, Note_on_c, 15, 48, 0
9, 27184, Note_on_c, 15, 48, 30
9, 27211, Note_on_c, 15, 48, 0
9, 27229, Note_on_c, 15, 48, 30
9, 27238, Note_on_c, 15, 48, 0
9, 27244, Note_on_c, 15, 48, 30
9, 27271, Note_on_c, 15, 48, 0
9, 27289, Note_on_c, 15, 48, 30
9, 27298, Note_on_c, 15, 48, 0
9, 27304, Note_on_c, 15, 48, 30
9, 27331, Note_on_c, 15, 48, 0
9, 27349, Note_on_c, 15, 48, 30
9, 27358, Note_on_c, 15, 48, 0
9, 27364, Note_on_c, 15, 48, 30
9, 27391, Note_on_c, 15, 48, 0
9, 27409, Note_on_c, 15, 48, 30
9, 27418, Note_on_c, 15, 48, 0
9, 27424, Note_on_c, 15, 48, 30
9, 27451, Note_on_c, 15, 48, 0
9, 27469, Note_on_c, 15, 48, 30
9, 27478, Note_on_c, 15, 48, 0
9, 27484, Note_on_c, 15, 48, 30
9, 27511, Note_on_c, 15, 48, 0
9, 27529, Note_on_c, 15, 48, 30
9, 27538, Note_on_c, 15, 48, 0
9, 27543, Note_on_c, 15, 48, 33
9, 27549, Note_on_c, 15, 48, 0
9, 27550, Note_on_c, 15, 48, 36
9, 27556, Note_on_c, 15, 48, 0
9, 27559, Note_on_c, 15, 48, 32
9, 27565, Note_on_c, 15, 48, 0
9, 27566, Note_on_c, 15, 48, 36
9, 27572, Note_on_c, 15, 48, 0
9, 27576, Note_on_c, 15, 48, 35
9, 27581, Note_on_c, 15, 48, 36
9, 27582, Note_on_c, 15, 48, 0
9, 27587, Note_on_c, 15, 48, 0
9, 27590, Note_on_c, 15, 48, 31
9, 27595, Note_on_c, 15, 48, 28
9, 27596, Note_on_c, 15, 48, 0
9, 27601, Note_on_c, 15, 48, 0
9, 27604, Note_on_c, 15, 48, 33
9, 27610, Note_on_c, 15, 48, 0
9, 27610, Note_on_c, 15, 48, 29
9, 27616, Note_on_c, 15, 48, 0
9, 27621, Note_on_c, 15, 48, 31
9, 27625, Note_on_c, 15, 48, 29
9, 27627, Note_on_c, 15, 48, 0
9, 27631, Note_on_c, 15, 48, 0
9, 27634, Note_on_c, 15, 48, 32
9, 27640, Note_on_c, 15, 48, 0
9, 27642, Note_on_c, 15, 48, 31
9, 27648, Note_on_c, 15, 48, 0
9, 27649, Note_on_c, 15, 48, 32
9, 27655, Note_on_c, 15, 48, 0
9, 27656, Note_on_c, 15, 48, 33
9, 27662, Note_on_c, 15, 48, 0
9, 27664, Note_on_c, 15, 48, 30
9, 27670, Note_on_c, 15, 48, 0
9, 27671, Note_on_c, 15, 48, 34
9, 27677, Note_on_c, 15, 48, 0
9, 27681, Note_on_c, 15, 48, 33
9, 27687, Note_on_c, 15, 48, 0
9, 27687, Note_on_c, 15, 48, 33
9, 27693, Note_on_c, 15, 48, 0
9, 27696, Note_on_c, 15, 48, 36
9, 27702, Note_on_c, 15, 48, 0
9, 27702, Note_on_c, 15, 48, 35
9, 27708, Note_on_c, 15, 48, 0
9, 27709, Note_on_c, 15, 48, 31
9, 27715, Note_on_c, 15, 48, 0
9, 27716, Note_on_c, 15, 48, 32
9, 27722, Note_on_c, 15, 48, 0
9, 27725, Note_on_c, 15, 48, 31
9, 27731, Note_on_c, 15, 48, 0
9, 27732, Note_on_c, 15, 48, 34
9, 27738, Note_on_c, 15, 48, 0
9, 27741, Note_on_c, 15, 48, 34
9, 27747, Note_on_c, 15, 48, 0
9, 27747, Note_on_c, 15, 48, 31
9, 27753, Note_on_c, 15, 48, 0
9, 27753, Note_on_c, 15, 48, 33
9, 27759, Note_on_c, 15, 48, 0
9, 27762, Note_on_c, 15, 48, 28
9, 27768, Note_on_c, 15, 48, 0
9, 27770, Note_on_c, 15, 48, 30
9, 27776, Note_on_c, 15, 48, 0
9, 27777, Note_on_c, 15, 48, 29
9, 27783, Note_on_c, 15, 48, 0
9, 27784, Note_on_c, 15, 48, 36
9, 27790, Note_on_c, 15, 48, 0
9, 27791, Note_on_c, 15, 48, 32
9, 27797, Note_on_c, 15, 48, 0
9, 27800, Note_on_c, 15, 48, 34
9, 27806, Note_on_c, 15, 48, 0
9, 27808, Note_on_c, 15, 48, 34
9, 27814, Note_on_c, 15, 48, 0
9, 27814, Note_on_c, 15, 48, 31
9, 27820, Note_on_c, 15, 48, 0
9, 27823, Note_on_c, 15, 48, 34
9, 27829, Note_on_c, 15, 48, 0
9, 27829, Note_on_c, 15, 48, 34
9, 27835, Note_on_c, 15, 48, 0
9, 27838, Note_on_c, 15, 48, 30
9, 27844, Note_on_c, 15, 48, 0
9, 27845, Note_on_c, 15, 48, 31
9, 27851, Note_on_c, 15, 48, 0
9, 27852, Note_on_c, 15, 48, 32
9, 27858, Note_on_c, 15, 48, 0
9, 27860, Note_on_c, 15, 48, 32
9, 27866, Note_on_c, 15, 48, 0
9, 27866, Note_on_c, 15, 48, 31
9, 27872, Note_on_c, 15, 48, 0
9, 27875, Note_on_c, 15, 48, 33
9, 27881, Note_on_c, 15, 48, 0
9, 27882, Note_on_c, 15, 48, 37
9, 27888, Note_on_c, 15, 48, 0
9, 27891, Note_on_c, 15, 48, 32
9, 27896, Note_on_c, 15, 48, 32
9, 27897, Note_on_c, 15, 48, 0
9, 27902, Note_on_c, 15, 48, 0
9, 27905, Note_on_c, 15, 48, 31
9, 27911, Note_on_c, 15, 48, 0
9, 27912, Note_on_c, 15, 48, 34
9, 27918, Note_on_c, 15, 48, 0
9, 27918, Note_on_c, 15, 48, 36
9, 27924, Note_on_c, 15, 48, 0
9, 27925, Note_on_c, 15, 48, 40
9, 27931, Note_on_c, 15, 48, 0
9, 27936, Note_on_c, 15, 48, 36
9, 27941, Note_on_c, 15, 48, 34
9, 27942, Note_on_c, 15, 48, 0
9, 27947, Note_on_c, 15, 48, 0
9, 27950, Note_on_c, 15, 48, 39
9, 27956, Note_on_c, 15, 48, 0
9, 27956, Note_on_c, 15, 48, 45
9, 27962, Note_on_c, 15, 48, 0
9, 27966, Note_on_c, 15, 48, 42
9, 27970, Note_on_c, 15, 48, 40
9, 27972, Note_on_c, 15, 48, 0
9, 27976, Note_on_c, 15, 48, 0
9, 27980, Note_on_c, 15, 48, 44
9, 27985, Note_on_c, 15, 48, 44
9, 27986, Note_on_c, 15, 48, 0
9, 27991, Note_on_c, 15, 48, 0
9, 27996, Note_on_c, 15, 48, 45
9, 28001, Note_on_c, 15, 48, 49
9, 28002, Note_on_c, 15, 48, 0
9, 28007, Note_on_c, 15, 48, 0
9, 28011, Note_on_c, 15, 48, 51
9, 28017, Note_on_c, 15, 48, 0
9, 28017, Note_on_c, 15, 48, 51
9, 28023, Note_on_c, 15, 48, 0
9, 28023, Note_on_c, 15, 48, 48
9, 28029, Note_on_c, 15, 48, 0
9, 28033, Note_on_c, 15, 48, 49
9, 28039, Note_on_c, 15, 48, 0
9, 28040, Note_on_c, 15, 48, 56
9, 28046, Note_on_c, 15, 48, 0
9, 28046, Note_on_c, 15, 48, 53
9, 28052, Note_on_c, 15, 48, 0
9, 28056, Note_on_c, 15, 48, 58
9, 28061, Note_on_c, 15, 48, 56
9, 28062, Note_on_c, 15, 48, 0
9, 28067, Note_on_c, 15, 48, 0
9, 28069, Note_on_c, 15, 48, 56
9, 28075, Note_on_c, 15, 48, 0
9, 28078, Note_on_c, 15, 48, 58
9, 28084, Note_on_c, 15, 48, 0
9, 28085, Note_on_c, 15, 48, 57
9, 28091, Note_on_c, 15, 48, 0
9, 28092, Note_on_c, 15, 48, 60
9, 28098, Note_on_c, 15, 48, 0
9, 28100, Note_on_c, 15, 48, 64
9, 28106, Note_on_c, 15, 48, 0
9, 28106, Note_on_c, 15, 48, 65
9, 28112, Note_on_c, 15, 48, 0
9, 28116, Note_on_c, 15, 48, 64
9, 28122, Note_on_c, 15, 48, 0
9, 28122, Note_on_c, 15, 48, 68
9, 28128, Note_on_c, 15, 48, 0
9, 28128, Note_on_c, 15, 48, 71
9, 28134, Note_on_c, 15, 48, 0
9, 28136, Note_on_c, 15, 48, 66
9, 28142, Note_on_c, 15, 48, 0
9, 28145, Note_on_c, 15, 48, 67
9, 28151, Note_on_c, 15, 48, 0
9, 28153, Note_on_c, 15, 48, 71
9, 28159, Note_on_c, 15, 48, 0
9, 28159, Note_on_c, 15, 48, 71
9, 28165, Note_on_c, 15, 48, 0
9, 28168, Note_on_c, 15, 48, 69
9, 28174, Note_on_c, 15, 48, 0
9, 28174, Note_on_c, 15, 48, 77
9, 28180, Note_on_c, 15, 48, 0
9, 28180, Note_on_c, 15, 48, 78
9, 28186, Note_on_c, 15, 48, 0
9, 28188, Note_on_c, 15, 48, 76
9, 28194, Note_on_c, 15, 48, 0
9, 28196, Note_on_c, 15, 48, 80
9, 28202, Note_on_c, 15, 48, 0
9, 28205, Note_on_c, 15, 48, 79
9, 28211, Note_on_c, 15, 48, 0
9, 28211, Note_on_c, 15, 48, 82
9, 28217, Note_on_c, 15, 48, 0
9, 28218, Note_on_c, 15, 48, 81
9, 28224, Note_on_c, 15, 48, 0
9, 28226, Note_on_c, 15, 48, 80
9, 28232, Note_on_c, 15, 48, 0
9, 28236, Note_on_c, 15, 48, 87
9, 28240, Note_on_c, 15, 48, 80
9, 28242, Note_on_c, 15, 48, 0
9, 28246, Note_on_c, 15, 48, 0
9, 28250, Note_on_c, 15, 48, 83
9, 28256, Note_on_c, 15, 48, 0
9, 28264, Note_on_c, 15, 48, 93
9, 28444, Note_on_c, 15, 48, 0
9, 28624, Note_on_c, 15, 48, 85
9, 28804, Note_on_c, 15, 48, 0
9, 39064, Note_on_c, 15, 48, 30
9, 39109, Note_on_c, 15, 48, 0
9, 39109, Note_on_c, 15, 48, 30
9, 39124, Note_on_c, 15, 48, 0
9, 39124, Note_on_c, 15, 48, 30
9, 39169, Note_on_c, 15, 48, 0
9, 39169, Note_on_c, 15, 48, 30
9, 39184, Note_on_c, 15, 48, 0
9, 39184, Note_on_c, 15, 48, 30
9, 39229, Note_on_c, 15, 48, 0
9, 39229, Note_on_c, 15, 48, 30
9, 39244, Note_on_c, 15, 48, 0
9, 39244, Note_on_c, 15, 48, 30
9, 39289, Note_on_c, 15, 48, 0
9, 39289, Note_on_c, 15, 48, 30
9, 39304, Note_on_c, 15, 48, 0
9, 39304, Note_on_c, 15, 48, 30
9, 39349, Note_on_c, 15, 48, 0
9, 39349, Note_on_c, 15, 48, 30
9, 39364, Note_on_c, 15, 48, 0
9, 39364, Note_on_c, 15, 48, 30
9, 39409, Note_on_c, 15, 48, 0
9, 39409, Note_on_c, 15, 48, 30
9, 39424, Note_on_c, 15, 48, 0
9, 39424, Note_on_c, 15, 48, 30
9, 39469, Note_on_c, 15, 48, 0
9, 39469, Note_on_c, 15, 48, 30
9, 39484, Note_on_c, 15, 48, 0
9, 39484, Note_on_c, 15, 48, 30
9, 39529, Note_on_c, 15, 48, 0
9, 39529, Note_on_c, 15, 48, 30
9, 39544, Note_on_c, 15, 48, 0
9, 39544, Note_on_c, 15, 48, 30
9, 39589, Note_on_c, 15, 48, 0
9, 39589, Note_on_c, 15, 48, 30
9, 39604, Note_on_c, 15, 48, 0
9, 39604, Note_on_c, 15, 48, 30
9, 39649, Note_on_c, 15, 48, 0
9, 39649, Note_on_c, 15, 48, 30
9, 39664, Note_on_c, 15, 48, 0
9, 39664, Note_on_c, 15, 48, 30
9, 39709, Note_on_c, 15, 48, 0
9, 39709, Note_on_c, 15, 48, 30
9, 39724, Note_on_c, 15, 48, 0
9, 39724, Note_on_c, 15, 48, 30
9, 39769, Note_on_c, 15, 48, 0
9, 39769, Note_on_c, 15, 48, 30
9, 39784, Note_on_c, 15, 48, 0
9, 39784, Note_on_c, 15, 48, 30
9, 39829, Note_on_c, 15, 48, 0
9, 39829, Note_on_c, 15, 48, 30
9, 39844, Note_on_c, 15, 48, 0
9, 39844, Note_on_c, 15, 48, 30
9, 39889, Note_on_c, 15, 48, 0
9, 39889, Note_on_c, 15, 48, 30
9, 39904, Note_on_c, 15, 48, 0
9, 39904, Note_on_c, 15, 48, 30
9, 39949, Note_on_c, 15, 48, 0
9, 39949, Note_on_c, 15, 48, 30
9, 39964, Note_on_c, 15, 48, 0
9, 39964, Note_on_c, 15, 48, 30
9, 40009, Note_on_c, 15, 48, 0
9, 40009, Note_on_c, 15, 48, 30
9, 40024, Note_on_c, 15, 48, 0
9, 40024, Note_on_c, 15, 48, 30
9, 40069, Note_on_c, 15, 48, 0
9, 40069, Note_on_c, 15, 48, 30
9, 40084, Note_on_c, 15, 48, 0
9, 40084, Note_on_c, 15, 48, 30
9, 40129, Note_on_c, 15, 48, 0
9, 40129, Note_on_c, 15, 48, 30
9, 40144, Note_on_c, 15, 48, 0
9, 40144, Note_on_c, 15, 48, 30
9, 40189, Note_on_c, 15, 48, 0
9, 40189, Note_on_c, 15, 48, 30
9, 40204, Note_on_c, 15, 48, 0
9, 40204, Note_on_c, 15, 48, 30
9, 40249, Note_on_c, 15, 48, 0
9, 40249, Note_on_c, 15, 48, 30
9, 40264, Note_on_c, 15, 48, 0
9, 40264, Note_on_c, 15, 48, 30
9, 40309, Note_on_c, 15, 48, 0
9, 40309, Note_on_c, 15, 48, 30
9, 40324, Note_on_c, 15, 48, 0
9, 40324, Note_on_c, 15, 48, 30
9, 40369, Note_on_c, 15, 48, 0
9, 40369, Note_on_c, 15, 48, 30
9, 40384, Note_on_c, 15, 48, 0
9, 40384, Note_on_c, 15, 48, 30
9, 40429, Note_on_c, 15, 48, 0
9, 40429, Note_on_c, 15, 48, 30
9, 40444, Note_on_c, 15, 48, 0
9, 40444, Note_on_c, 15, 48, 30
9, 40489, Note_on_c, 15, 48, 0
9, 40489, Note_on_c, 15, 48, 30
9, 40504, Note_on_c, 15, 48, 0
9, 40504, Note_on_c, 15, 48, 25
9, 40564, Note_on_c, 15, 48, 0
9, 43924, Note_on_c, 15, 48, 69
9, 43984, Note_on_c, 15, 48, 0
9, 43984, Note_on_c, 15, 48, 69
9, 44044, Note_on_c, 15, 48, 0
9, 44044, Note_on_c, 15, 48, 69
9, 44104, Note_on_c, 15, 48, 0
9, 44104, Note_on_c, 15, 48, 69
9, 44164, Note_on_c, 15, 48, 0
9, 44164, Note_on_c, 15, 48, 63
9, 44224, Note_on_c, 15, 48, 0
9, 44224, Note_on_c, 15, 48, 63
9, 44284, Note_on_c, 15, 48, 0
9, 44284, Note_on_c, 15, 48, 33
9, 44344, Note_on_c, 15, 48, 0
9, 46984, Control_c, 15, 121, 0
9, 46984, End_track
10, 0, Start_track
10, 0, MIDI_port, 0
10, 0, Title_t, "Violine I"
10, 0, Program_c, 10, 48
10, 0, Control_c, 10, 10, 12
10, 0, Control_c, 10, 121, 0
10, 5, Program_c, 10, 50
10, 10, Pitch_bend_c, 10, 7992
10, 15, Control_c, 10, 11, 47
10, 20, Control_c, 10, 7, 127
10, 25, Control_c, 10, 91, 32
10, 30, Control_c, 10, 93, 0
10, 35, Control_c, 10, 10, 12
10, 40, Control_c, 10, 1, 36
10, 120, Control_c, 10, 1, 16
10, 120, Control_c, 10, 11, 37
10, 120, Control_c, 10, 10, 90
10, 120, Note_on_c, 10, 60, 108
10, 138, Control_c, 10, 11, 40
10, 156, Control_c, 10, 11, 43
10, 174, Control_c, 10, 11, 46
10, 180, Note_on_c, 10, 60, 0
10, 180, Note_on_c, 10, 65, 108
10, 219, Note_on_c, 10, 65, 0
10, 240, Note_on_c, 10, 65, 108
10, 279, Note_on_c, 10, 65, 0
10, 300, Note_on_c, 10, 65, 108
10, 360, Note_on_c, 10, 65, 0
10, 360, Note_on_c, 10, 69, 108
10, 399, Note_on_c, 10, 69, 0
10, 420, Note_on_c, 10, 69, 108
10, 459, Note_on_c, 10, 69, 0
10, 480, Control_c, 10, 11, 47
10, 480, Note_on_c, 10, 69, 108
10, 492, Control_c, 10, 11, 50
10, 504, Control_c, 10, 11, 53
10, 516, Control_c, 10, 11, 56
10, 528, Control_c, 10, 11, 59
10, 540, Note_on_c, 10, 69, 0
10, 540, Control_c, 10, 11, 62
10, 540, Note_on_c, 10, 70, 108
10, 579, Note_on_c, 10, 70, 0
10, 600, Note_on_c, 10, 70, 108
10, 600, Control_c, 10, 11, 57
10, 630, Note_on_c, 10, 70, 0
10, 645, Note_on_c, 10, 69, 108
10, 655, Note_on_c, 10, 69, 0
10, 660, Note_on_c, 10, 67, 108
10, 690, Note_on_c, 10, 67, 0
10, 705, Note_on_c, 10, 65, 108
10, 715, Note_on_c, 10, 65, 0
10, 720, Note_on_c, 10, 64, 108
10, 720, Control_c, 10, 11, 47
10, 759, Note_on_c, 10, 64, 0
10, 780, Note_on_c, 10, 64, 108
10, 819, Note_on_c, 10, 64, 0
10, 840, Note_on_c, 10, 64, 108
10, 900, Note_on_c, 10, 64, 0
10, 900, Note_on_c, 10, 65, 108
10, 900, Control_c, 10, 11, 47
10, 924, Control_c, 10, 11, 49
10, 948, Control_c, 10, 11, 51
10, 960, Note_on_c, 10, 65, 0
10, 960, Note_on_c, 10, 67, 108
10, 972, Control_c, 10, 11, 53
10, 996, Control_c, 10, 11, 55
10, 1020, Note_on_c, 10, 67, 0
10, 1020, Note_on_c, 10, 69, 108
10, 1020, Control_c, 10, 11, 57
10, 1044, Control_c, 10, 11, 59
10, 1068, Control_c, 10, 11, 61
10, 1075, Note_on_c, 10, 69, 0
10, 1080, Note_on_c, 10, 70, 108
10, 1170, Note_on_c, 10, 70, 0
10, 1170, Note_on_c, 10, 72, 108
10, 1170, Control_c, 10, 11, 57
10, 1179, Control_c, 10, 11, 54
10, 1188, Control_c, 10, 11, 51
10, 1195, Note_on_c, 10, 72, 0
10, 1197, Control_c, 10, 11, 48
10, 1200, Note_on_c, 10, 69, 108
10, 1230, Note_on_c, 10, 69, 0
10, 1260, Note_on_c, 10, 67, 108
10, 1260, Control_c, 10, 11, 47
10, 1320, Note_on_c, 10, 67, 0
10, 2279, Program_c, 10, 48
10, 2280, Control_c, 10, 1, 36
10, 2280, Pitch_bend_c, 10, 8292
10, 2280, Control_c, 10, 11, 27
10, 2280, Control_c, 10, 10, 12
10, 2280, Note_on_c, 10, 72, 108
10, 2298, Control_c, 10, 11, 30
10, 2316, Control_c, 10, 11, 33
10, 2334, Control_c, 10, 11, 36
10, 2340, Note_on_c, 10, 72, 0
10, 2340, Note_on_c, 10, 77, 108
10, 2379, Note_on_c, 10, 77, 0
10, 2400, Note_on_c, 10, 77, 108
10, 2439, Note_on_c, 10, 77, 0
10, 2460, Note_on_c, 10, 77, 108
10, 2520, Note_on_c, 10, 77, 0
10, 2520, Note_on_c, 10, 81, 108
10, 2559, Note_on_c, 10, 81, 0
10, 2580, Note_on_c, 10, 81, 108
10, 2619, Note_on_c, 10, 81, 0
10, 2640, Note_on_c, 10, 81, 108
10, 2640, Control_c, 10, 11, 37
10, 2652, Control_c, 10, 11, 40
10, 2664, Control_c, 10, 11, 43
10, 2676, Control_c, 10, 11, 46
10, 2688, Control_c, 10, 11, 49
10, 2700, Note_on_c, 10, 81, 0
10, 2700, Control_c, 10, 11, 52
10, 2700, Note_on_c, 10, 82, 108
10, 2740, Note_on_c, 10, 82, 0
10, 2760, Note_on_c, 10, 82, 108
10, 2760, Control_c, 10, 11, 47
10, 2790, Note_on_c, 10, 82, 0
10, 2805, Note_on_c, 10, 81, 108
10, 2815, Note_on_c, 10, 81, 0
10, 2820, Note_on_c, 10, 79, 108
10, 2850, Note_on_c, 10, 79, 0
10, 2865, Note_on_c, 10, 77, 108
10, 2875, Note_on_c, 10, 77, 0
10, 2880, Control_c, 10, 11, 37
10, 2880, Note_on_c, 10, 76, 108
10, 2898, Control_c, 10, 11, 38
10, 2916, Control_c, 10, 11, 39
10, 2919, Note_on_c, 10, 76, 0
10, 2934, Control_c, 10, 11, 40
10, 2940, Note_on_c, 10, 76, 93
10, 2952, Control_c, 10, 11, 41
10, 2970, Control_c, 10, 11, 42
10, 2979, Note_on_c, 10, 76, 0
10, 2988, Control_c, 10, 11, 43
10, 3000, Note_on_c, 10, 76, 108
10, 3006, Control_c, 10, 11, 44
10, 3024, Control_c, 10, 11, 45
10, 3042, Control_c, 10, 11, 46
10, 3060, Note_on_c, 10, 76, 0
10, 3060, Control_c, 10, 11, 47
10, 3060, Note_on_c, 10, 77, 108
10, 3078, Control_c, 10, 11, 48
10, 3096, Control_c, 10, 11, 49
10, 3114, Control_c, 10, 11, 50
10, 3120, Note_on_c, 10, 77, 0
10, 3120, Note_on_c, 10, 79, 108
10, 3132, Control_c, 10, 11, 51
10, 3150, Control_c, 10, 11, 52
10, 3168, Control_c, 10, 11, 53
10, 3180, Note_on_c, 10, 79, 0
10, 3180, Note_on_c, 10, 81, 108
10, 3186, Control_c, 10, 11, 54
10, 3204, Control_c, 10, 11, 55
10, 3222, Control_c, 10, 11, 56
10, 3235, Note_on_c, 10, 81, 0
10, 3240, Note_on_c, 10, 82, 108
10, 3240, Control_c, 10, 11, 57
10, 3330, Note_on_c, 10, 82, 0
10, 3330, Note_on_c, 10, 84, 108
10, 3360, Note_on_c, 10, 84, 0
10, 3360, Note_on_c, 10, 81, 108
10, 3415, Note_on_c, 10, 81, 0
10, 3420, Note_on_c, 10, 79, 108
10, 3480, Note_on_c, 10, 79, 0
10, 3540, Note_on_c, 10, 79, 108
10, 3595, Note_on_c, 10, 79, 0
10, 3600, Note_on_c, 10, 81, 123
10, 3600, Control_c, 10, 11, 56
10, 3602, Control_c, 10, 11, 59
10, 3604, Control_c, 10, 11, 62
10, 3606, Control_c, 10, 11, 65
10, 3608, Control_c, 10, 11, 68
10, 3610, Control_c, 10, 11, 71
10, 3612, Control_c, 10, 11, 74
10, 3626, Control_c, 10, 11, 71
10, 3633, Control_c, 10, 11, 68
10, 3640, Control_c, 10, 11, 65
10, 3648, Control_c, 10, 11, 62
10, 3655, Control_c, 10, 11, 59
10, 3705, Note_on_c, 10, 81, 0
10, 3705, Note_on_c, 10, 77, 108
10, 3715, Note_on_c, 10, 77, 0
10, 3720, Note_on_c, 10, 84, 108
10, 3765, Note_on_c, 10, 84, 0
10, 3765, Note_on_c, 10, 81, 108
10, 3775, Note_on_c, 10, 81, 0
10, 3780, Note_on_c, 10, 79, 108
10, 3840, Note_on_c, 10, 79, 0
10, 3900, Note_on_c, 10, 79, 108
10, 3955, Note_on_c, 10, 79, 0
10, 3960, Note_on_c, 10, 81, 123
10, 3960, Control_c, 10, 11, 62
10, 3962, Control_c, 10, 11, 65
10, 3964, Control_c, 10, 11, 68
10, 3966, Control_c, 10, 11, 71
10, 3968, Control_c, 10, 11, 74
10, 3970, Control_c, 10, 11, 77
10, 3972, Control_c, 10, 11, 80
10, 3986, Control_c, 10, 11, 77
10, 3993, Control_c, 10, 11, 74
10, 4000, Control_c, 10, 11, 71
10, 4008, Control_c, 10, 11, 68
10, 4015, Control_c, 10, 11, 65
10, 4065, Note_on_c, 10, 81, 0
10, 4065, Note_on_c, 10, 77, 108
10, 4075, Note_on_c, 10, 77, 0
10, 4080, Note_on_c, 10, 84, 108
10, 4125, Note_on_c, 10, 84, 0
10, 4125, Note_on_c, 10, 81, 108
10, 4135, Note_on_c, 10, 81, 0
10, 4140, Note_on_c, 10, 79, 108
10, 4170, Note_on_c, 10, 79, 0
10, 4200, Control_c, 10, 11, 68
10, 4200, Note_on_c, 10, 84, 108
10, 4202, Control_c, 10, 11, 71
10, 4204, Control_c, 10, 11, 74
10, 4206, Control_c, 10, 11, 77
10, 4208, Control_c, 10, 11, 80
10, 4210, Control_c, 10, 11, 83
10, 4212, Control_c, 10, 11, 86
10, 4226, Control_c, 10, 11, 83
10, 4233, Control_c, 10, 11, 80
10, 4240, Control_c, 10, 11, 77
10, 4248, Control_c, 10, 11, 74
10, 4255, Control_c, 10, 11, 71
10, 4290, Note_on_c, 10, 84, 0
10, 4290, Note_on_c, 10, 81, 108
10, 4315, Note_on_c, 10, 81, 0
10, 4320, Note_on_c, 10, 79, 108
10, 4350, Note_on_c, 10, 79, 0
10, 4380, Control_c, 10, 11, 72
10, 4380, Note_on_c, 10, 84, 108
10, 4382, Control_c, 10, 11, 75
10, 4385, Control_c, 10, 11, 79
10, 4388, Control_c, 10, 11, 82
10, 4390, Control_c, 10, 11, 85
10, 4410, Note_on_c, 10, 84, 0
10, 4410, Note_on_c, 10, 83, 108
10, 4410, Control_c, 10, 11, 84
10, 4428, Control_c, 10, 11, 81
10, 4440, Note_on_c, 10, 83, 0
10, 4440, Note_on_c, 10, 84, 108
10, 4470, Note_on_c, 10, 84, 0
10, 4470, Note_on_c, 10, 81, 108
10, 4495, Note_on_c, 10, 81, 0
10, 4500, Control_c, 10, 11, 87
10, 4500, Note_on_c, 10, 79, 98
10, 4539, Note_on_c, 10, 79, 0
10, 4560, Note_on_c, 10, 67, 89
10, 4599, Note_on_c, 10, 67, 0
10, 4620, Note_on_c, 10, 67, 86
10, 4659, Note_on_c, 10, 67, 0
10, 4680, Note_on_c, 10, 67, 75
10, 4715, Control_c, 10, 11, 87
10, 4717, Control_c, 10, 11, 84
10, 4720, Control_c, 10, 11, 81
10, 4723, Control_c, 10, 11, 78
10, 4726, Control_c, 10, 11, 75
10, 4729, Control_c, 10, 11, 72
10, 4732, Control_c, 10, 11, 69
10, 4735, Control_c, 10, 11, 66
10, 4738, Control_c, 10, 11, 63
10, 4740, Note_on_c, 10, 67, 0
10, 4800, Control_c, 10, 11, 32
10, 4800, Note_on_c, 10, 67, 93
10, 4812, Control_c, 10, 11, 35
10, 4824, Control_c, 10, 11, 38
10, 4836, Control_c, 10, 11, 41
10, 4848, Control_c, 10, 11, 44
10, 4860, Note_on_c, 10, 67, 0
10, 4860, Note_on_c, 10, 76, 108
10, 4860, Control_c, 10, 11, 47
10, 4899, Note_on_c, 10, 76, 0
10, 4980, Control_c, 10, 11, 32
10, 4980, Note_on_c, 10, 76, 93
10, 4991, Control_c, 10, 11, 35
10, 5003, Control_c, 10, 11, 38
10, 5014, Control_c, 10, 11, 41
10, 5026, Control_c, 10, 11, 44
10, 5040, Note_on_c, 10, 76, 0
10, 5040, Note_on_c, 10, 77, 108
10, 5079, Note_on_c, 10, 77, 0
10, 5160, Note_on_c, 10, 81, 108
10, 5160, Control_c, 10, 11, 37
10, 5178, Control_c, 10, 11, 40
10, 5196, Control_c, 10, 11, 43
10, 5205, Note_on_c, 10, 81, 0
10, 5205, Note_on_c, 10, 77, 108
10, 5214, Control_c, 10, 11, 46
10, 5215, Note_on_c, 10, 77, 0
10, 5220, Note_on_c, 10, 74, 108
10, 5259, Note_on_c, 10, 74, 0
10, 5340, Control_c, 10, 11, 32
10, 5340, Note_on_c, 10, 74, 93
10, 5351, Control_c, 10, 11, 35
10, 5363, Control_c, 10, 11, 38
10, 5374, Control_c, 10, 11, 41
10, 5386, Control_c, 10, 11, 44
10, 5400, Note_on_c, 10, 74, 0
10, 5400, Note_on_c, 10, 76, 108
10, 5439, Note_on_c, 10, 76, 0
10, 5520, Note_on_c, 10, 79, 108
10, 5520, Control_c, 10, 11, 37
10, 5538, Control_c, 10, 11, 40
10, 5556, Control_c, 10, 11, 43
10, 5565, Note_on_c, 10, 79, 0
10, 5565, Note_on_c, 10, 76, 108
10, 5574, Control_c, 10, 11, 46
10, 5575, Note_on_c, 10, 76, 0
10, 5580, Note_on_c, 10, 72, 108
10, 5619, Note_on_c, 10, 72, 0
10, 5640, Note_on_c, 10, 72, 108
10, 5692, Note_on_c, 10, 72, 0
10, 5700, Note_on_c, 10, 72, 108
10, 5752, Note_on_c, 10, 72, 0
10, 5760, Note_on_c, 10, 72, 108
10, 5820, Note_on_c, 10, 72, 0
10, 5820, Note_on_c, 10, 71, 108
10, 5880, Note_on_c, 10, 71, 0
10, 5880, Note_on_c, 10, 72, 108
10, 5935, Note_on_c, 10, 72, 0
10, 5940, Note_on_c, 10, 74, 108
10, 6000, Note_on_c, 10, 74, 0
10, 6000, Note_on_c, 10, 77, 108
10, 6075, Note_on_c, 10, 77, 0
10, 6075, Note_on_c, 10, 76, 108
10, 6090, Note_on_c, 10, 76, 0
10, 6090, Note_on_c, 10, 74, 108
10, 6105, Note_on_c, 10, 74, 0
10, 6105, Note_on_c, 10, 76, 108
10, 6115, Note_on_c, 10, 76, 0
10, 6120, Note_on_c, 10, 74, 108
10, 6180, Note_on_c, 10, 74, 0
10, 6300, Note_on_c, 10, 79, 108
10, 6315, Note_on_c, 10, 79, 0
10, 6330, Note_on_c, 10, 76, 108
10, 6345, Note_on_c, 10, 76, 0
10, 6360, Note_on_c, 10, 73, 108
10, 6375, Note_on_c, 10, 73, 0
10, 6390, Note_on_c, 10, 69, 108
10, 6405, Note_on_c, 10, 69, 0
10, 6420, Note_on_c, 10, 67, 108
10, 6435, Note_on_c, 10, 67, 0
10, 6450, Note_on_c, 10, 64, 108
10, 6465, Note_on_c, 10, 64, 0
10, 6480, Note_on_c, 10, 65, 108
10, 6495, Note_on_c, 10, 65, 0
10, 6510, Note_on_c, 10, 62, 108
10, 6525, Note_on_c, 10, 62, 0
10, 6540, Control_c, 10, 11, 47
10, 6540, Note_on_c, 10, 69, 108
10, 6549, Control_c, 10, 11, 50
10, 6558, Control_c, 10, 11, 53
10, 6567, Control_c, 10, 11, 56
10, 6570, Note_on_c, 10, 69, 0
10, 6570, Note_on_c, 10, 68, 108
10, 6576, Control_c, 10, 11, 59
10, 6585, Control_c, 10, 11, 62
10, 6594, Control_c, 10, 11, 65
10, 6600, Note_on_c, 10, 68, 0
10, 6600, Note_on_c, 10, 69, 108
10, 6609, Control_c, 10, 11, 64
10, 6618, Control_c, 10, 11, 61
10, 6627, Control_c, 10, 11, 58
10, 6630, Note_on_c, 10, 69, 0
10, 6630, Note_on_c, 10, 65, 108
10, 6636, Control_c, 10, 11, 55
10, 6645, Control_c, 10, 11, 52
10, 6654, Control_c, 10, 11, 49
10, 6655, Note_on_c, 10, 65, 0
10, 6660, Note_on_c, 10, 77, 108
10, 6675, Note_on_c, 10, 77, 0
10, 6690, Note_on_c, 10, 74, 108
10, 6705, Note_on_c, 10, 74, 0
10, 6720, Note_on_c, 10, 71, 108
10, 6735, Note_on_c, 10, 71, 0
10, 6750, Note_on_c, 10, 67, 108
10, 6765, Note_on_c, 10, 67, 0
10, 6780, Note_on_c, 10, 65, 108
10, 6795, Note_on_c, 10, 65, 0
10, 6810, Note_on_c, 10, 62, 108
10, 6825, Note_on_c, 10, 62, 0
10, 6840, Note_on_c, 10, 64, 108
10, 6855, Note_on_c, 10, 64, 0
10, 6870, Note_on_c, 10, 60, 108
10, 6885, Note_on_c, 10, 60, 0
10, 6900, Note_on_c, 10, 67, 108
10, 6900, Control_c, 10, 11, 47
10, 6909, Control_c, 10, 11, 50
10, 6918, Control_c, 10, 11, 53
10, 6927, Control_c, 10, 11, 56
10, 6930, Note_on_c, 10, 67, 0
10, 6930, Note_on_c, 10, 66, 108
10, 6936, Control_c, 10, 11, 59
10, 6945, Control_c, 10, 11, 62
10, 6954, Control_c, 10, 11, 65
10, 6960, Note_on_c, 10, 66, 0
10, 6960, Note_on_c, 10, 67, 108
10, 6969, Control_c, 10, 11, 64
10, 6978, Control_c, 10, 11, 61
10, 6987, Control_c, 10, 11, 58
10, 6990, Note_on_c, 10, 67, 0
10, 6990, Note_on_c, 10, 64, 108
10, 6996, Control_c, 10, 11, 55
10, 7005, Control_c, 10, 11, 52
10, 7014, Control_c, 10, 11, 49
10, 7015, Note_on_c, 10, 64, 0
10, 7020, Note_on_c, 10, 60, 108
10, 7034, Control_c, 10, 11, 49
10, 7056, Control_c, 10, 11, 52
10, 7075, Note_on_c, 10, 60, 0
10, 7077, Control_c, 10, 11, 55
10, 7080, Note_on_c, 10, 72, 108
10, 7092, Control_c, 10, 11, 57
10, 7113, Control_c, 10, 11, 60
10, 7128, Control_c, 10, 11, 62
10, 7140, Note_on_c, 10, 72, 0
10, 7140, Note_on_c, 10, 73, 108
10, 7149, Control_c, 10, 11, 65
10, 7164, Control_c, 10, 11, 67
10, 7185, Control_c, 10, 11, 70
10, 7195, Note_on_c, 10, 73, 0
10, 7200, Note_on_c, 10, 74, 108
10, 7200, Control_c, 10, 11, 72
10, 7215, Control_c, 10, 11, 73
10, 7230, Note_on_c, 10, 74, 0
10, 7230, Note_on_c, 10, 76, 108
10, 7230, Control_c, 10, 11, 74
10, 7245, Control_c, 10, 11, 75
10, 7260, Note_on_c, 10, 76, 0
10, 7260, Control_c, 10, 11, 76
10, 7260, Note_on_c, 10, 77, 108
10, 7275, Control_c, 10, 11, 77
10, 7290, Note_on_c, 10, 77, 0
10, 7290, Control_c, 10, 11, 78
10, 7290, Note_on_c, 10, 79, 108
10, 7305, Control_c, 10, 11, 79
10, 7320, Note_on_c, 10, 79, 0
10, 7320, Control_c, 10, 11, 80
10, 7320, Note_on_c, 10, 80, 108
10, 7335, Control_c, 10, 11, 81
10, 7350, Note_on_c, 10, 80, 0
10, 7350, Note_on_c, 10, 81, 108
10, 7350, Control_c, 10, 11, 82
10, 7362, Control_c, 10, 11, 78
10, 7364, Control_c, 10, 11, 75
10, 7366, Control_c, 10, 11, 71
10, 7368, Control_c, 10, 11, 68
10, 7370, Control_c, 10, 11, 64
10, 7372, Control_c, 10, 11, 61
10, 7374, Control_c, 10, 11, 57
10, 7375, Note_on_c, 10, 81, 0
10, 7376, Control_c, 10, 11, 54
10, 7378, Control_c, 10, 11, 50
10, 7380, Control_c, 10, 11, 47
10, 7380, Note_on_c, 10, 72, 108
10, 7470, Note_on_c, 10, 72, 0
10, 7470, Note_on_c, 10, 74, 108
10, 7477, Note_on_c, 10, 72, 108
10, 7478, Note_on_c, 10, 74, 0
10, 7485, Note_on_c, 10, 72, 0
10, 7485, Note_on_c, 10, 71, 108
10, 7492, Note_on_c, 10, 72, 108
10, 7493, Note_on_c, 10, 71, 0
10, 7500, Note_on_c, 10, 72, 0
10, 7500, Note_on_c, 10, 74, 108
10, 7545, Note_on_c, 10, 74, 0
10, 7545, Note_on_c, 10, 71, 123
10, 7555, Note_on_c, 10, 71, 0
10, 7560, Note_on_c, 10, 72, 108
10, 7605, Note_on_c, 10, 72, 0
10, 7605, Note_on_c, 10, 79, 108
10, 7613, Note_on_c, 10, 79, 0
10, 7620, Note_on_c, 10, 79, 108
10, 7780, Note_on_c, 10, 79, 0
10, 7785, Note_on_c, 10, 76, 108
10, 7793, Note_on_c, 10, 76, 0
10, 7800, Note_on_c, 10, 76, 108
10, 7960, Note_on_c, 10, 76, 0
10, 7965, Note_on_c, 10, 72, 108
10, 7973, Note_on_c, 10, 72, 0
10, 7980, Note_on_c, 10, 72, 108
10, 8070, Note_on_c, 10, 72, 0
10, 8070, Note_on_c, 10, 73, 108
10, 8095, Note_on_c, 10, 73, 0
10, 8100, Note_on_c, 10, 74, 108
10, 8120, Note_on_c, 10, 74, 0
10, 8120, Note_on_c, 10, 77, 108
10, 8135, Note_on_c, 10, 77, 0
10, 8140, Note_on_c, 10, 81, 108
10, 8155, Note_on_c, 10, 81, 0
10, 8160, Note_on_c, 10, 72, 108
10, 8199, Note_on_c, 10, 72, 0
10, 8220, Note_on_c, 10, 71, 108
10, 8226, Note_on_c, 10, 71, 0
10, 8226, Note_on_c, 10, 72, 108
10, 8232, Note_on_c, 10, 72, 0
10, 8232, Note_on_c, 10, 71, 108
10, 8238, Note_on_c, 10, 71, 0
10, 8238, Note_on_c, 10, 72, 108
10, 8244, Note_on_c, 10, 72, 0
10, 8244, Note_on_c, 10, 71, 108
10, 8250, Note_on_c, 10, 71, 0
10, 8250, Note_on_c, 10, 72, 108
10, 8256, Note_on_c, 10, 72, 0
10, 8256, Note_on_c, 10, 71, 108
10, 8262, Note_on_c, 10, 71, 0
10, 8262, Note_on_c, 10, 72, 108
10, 8268, Note_on_c, 10, 72, 0
10, 8268, Note_on_c, 10, 71, 108
10, 8274, Note_on_c, 10, 71, 0
10, 8280, Note_on_c, 10, 72, 108
10, 8340, Note_on_c, 10, 72, 0
10, 8385, Control_c, 10, 11, 87
10, 8385, Note_on_c, 10, 74, 108
10, 8393, Note_on_c, 10, 74, 0
10, 8400, Note_on_c, 10, 76, 108
10, 8423, Note_on_c, 10, 76, 0
10, 8445, Note_on_c, 10, 77, 108
10, 8453, Note_on_c, 10, 77, 0
10, 8460, Note_on_c, 10, 76, 108
10, 8490, Note_on_c, 10, 76, 0
10, 8565, Note_on_c, 10, 71, 108
10, 8573, Note_on_c, 10, 71, 0
10, 8580, Note_on_c, 10, 72, 108
10, 8603, Note_on_c, 10, 72, 0
10, 8625, Note_on_c, 10, 74, 108
10, 8633, Note_on_c, 10, 74, 0
10, 8640, Note_on_c, 10, 72, 108
10, 8670, Note_on_c, 10, 72, 0
10, 8745, Note_on_c, 10, 80, 108
10, 8753, Note_on_c, 10, 80, 0
10, 8760, Note_on_c, 10, 81, 108
10, 8783, Note_on_c, 10, 81, 0
10, 8805, Note_on_c, 10, 83, 108
10, 8813, Note_on_c, 10, 83, 0
10, 8820, Note_on_c, 10, 81, 108
10, 8850, Note_on_c, 10, 81, 0
10, 8880, Control_c, 10, 11, 90
10, 8880, Note_on_c, 10, 76, 108
10, 8886, Control_c, 10, 11, 93
10, 8892, Control_c, 10, 11, 96
10, 8915, Control_c, 10, 11, 95
10, 8924, Control_c, 10, 11, 92
10, 8933, Control_c, 10, 11, 89
10, 9000, Note_on_c, 10, 76, 0
10, 9000, Note_on_c, 10, 77, 108
10, 9030, Note_on_c, 10, 77, 0
10, 9060, Control_c, 10, 11, 90
10, 9060, Note_on_c, 10, 78, 108
10, 9069, Control_c, 10, 11, 93
10, 9079, Control_c, 10, 11, 96
10, 9095, Control_c, 10, 11, 95
10, 9104, Control_c, 10, 11, 92
10, 9113, Control_c, 10, 11, 89
10, 9180, Note_on_c, 10, 78, 0
10, 9180, Note_on_c, 10, 79, 108
10, 9210, Note_on_c, 10, 79, 0
10, 9240, Control_c, 10, 11, 90
10, 9240, Note_on_c, 10, 80, 108
10, 9246, Control_c, 10, 11, 93
10, 9252, Control_c, 10, 11, 96
10, 9275, Control_c, 10, 11, 95
10, 9284, Control_c, 10, 11, 92
10, 9293, Control_c, 10, 11, 89
10, 9360, Note_on_c, 10, 80, 0
10, 9360, Control_c, 10, 11, 87
10, 9360, Note_on_c, 10, 81, 108
10, 9369, Control_c, 10, 11, 84
10, 9378, Control_c, 10, 11, 81
10, 9380, Note_on_c, 10, 81, 0
10, 9380, Note_on_c, 10, 77, 108
10, 9387, Control_c, 10, 11, 78
10, 9395, Note_on_c, 10, 77, 0
10, 9396, Control_c, 10, 11, 75
10, 9400, Note_on_c, 10, 74, 108
10, 9405, Control_c, 10, 11, 72
10, 9410, Note_on_c, 10, 74, 0
10, 9414, Control_c, 10, 11, 69
10, 9420, Note_on_c, 10, 72, 108
10, 9450, Note_on_c, 10, 72, 0
10, 9480, Control_c, 10, 11, 67
10, 9480, Note_on_c, 10, 72, 88
10, 9480, Control_c, 10, 11, 72
10, 9486, Note_on_c, 10, 72, 0
10, 9486, Note_on_c, 10, 71, 88
10, 9486, Control_c, 10, 11, 66
10, 9488, Control_c, 10, 11, 70
10, 9492, Note_on_c, 10, 71, 0
10, 9492, Note_on_c, 10, 72, 88
10, 9492, Control_c, 10, 11, 65
10, 9496, Control_c, 10, 11, 68
10, 9498, Note_on_c, 10, 72, 0
10, 9498, Note_on_c, 10, 71, 88
10, 9498, Control_c, 10, 11, 64
10, 9500, Control_c, 10, 11, 67
10, 9504, Note_on_c, 10, 71, 0
10, 9504, Note_on_c, 10, 72, 88
10, 9504, Control_c, 10, 11, 63
10, 9510, Note_on_c, 10, 72, 0
10, 9510, Note_on_c, 10, 71, 88
10, 9516, Note_on_c, 10, 71, 0
10, 9516, Note_on_c, 10, 71, 88
10, 9524, Note_on_c, 10, 71, 0
10, 9524, Note_on_c, 10, 69, 88
10, 9528, Control_c, 10, 11, 60
10, 9532, Note_on_c, 10, 69, 0
10, 9532, Note_on_c, 10, 71, 72
10, 9540, Note_on_c, 10, 71, 0
10, 9540, Control_c, 10, 11, 57
10, 9540, Note_on_c, 10, 72, 72
10, 9570, Control_c, 10, 11, 57
10, 9574, Control_c, 10, 11, 54
10, 9578, Control_c, 10, 11, 51
10, 9583, Control_c, 10, 11, 48
10, 9587, Control_c, 10, 11, 45
10, 9591, Control_c, 10, 11, 42
10, 9596, Control_c, 10, 11, 39
10, 9600, Note_on_c, 10, 72, 0
10, 9720, Control_c, 10, 11, 32
10, 9720, Note_on_c, 10, 77, 108
10, 9730, Note_on_c, 10, 77, 0
10, 9732, Control_c, 10, 11, 35
10, 9740, Note_on_c, 10, 81, 108
10, 9744, Control_c, 10, 11, 38
10, 9750, Note_on_c, 10, 81, 0
10, 9756, Control_c, 10, 11, 41
10, 9760, Note_on_c, 10, 79, 108
10, 9768, Control_c, 10, 11, 44
10, 9770, Note_on_c, 10, 79, 0
10, 9780, Note_on_c, 10, 77, 108
10, 9780, Control_c, 10, 11, 47
10, 9790, Note_on_c, 10, 77, 0
10, 9800, Note_on_c, 10, 76, 108
10, 9810, Note_on_c, 10, 76, 0
10, 9820, Note_on_c, 10, 74, 108
10, 9830, Note_on_c, 10, 74, 0
10, 9840, Note_on_c, 10, 72, 108
10, 9850, Note_on_c, 10, 72, 0
10, 9860, Note_on_c, 10, 71, 108
10, 9870, Note_on_c, 10, 71, 0
10, 9880, Note_on_c, 10, 74, 108
10, 9890, Note_on_c, 10, 74, 0
10, 9900, Note_on_c, 10, 72, 108
10, 9910, Note_on_c, 10, 72, 0
10, 9920, Note_on_c, 10, 76, 108
10, 9930, Note_on_c, 10, 76, 0
10, 9940, Note_on_c, 10, 74, 108
10, 9950, Note_on_c, 10, 74, 0
10, 9960, Note_on_c, 10, 72, 108
10, 9970, Note_on_c, 10, 72, 0
10, 9980, Note_on_c, 10, 71, 108
10, 9990, Note_on_c, 10, 71, 0
10, 10000, Note_on_c, 10, 69, 108
10, 10010, Note_on_c, 10, 69, 0
10, 10020, Note_on_c, 10, 67, 108
10, 10030, Note_on_c, 10, 67, 0
10, 10040, Note_on_c, 10, 66, 108
10, 10050, Note_on_c, 10, 66, 0
10, 10060, Note_on_c, 10, 69, 108
10, 10070, Note_on_c, 10, 69, 0
10, 10080, Note_on_c, 10, 67, 108
10, 10090, Note_on_c, 10, 67, 0
10, 10100, Note_on_c, 10, 66, 108
10, 10110, Note_on_c, 10, 66, 0
10, 10120, Note_on_c, 10, 69, 108
10, 10130, Note_on_c, 10, 69, 0
10, 10140, Note_on_c, 10, 67, 108
10, 10150, Note_on_c, 10, 67, 0
10, 10160, Note_on_c, 10, 69, 108
10, 10170, Note_on_c, 10, 69, 0
10, 10180, Note_on_c, 10, 67, 108
10, 10190, Note_on_c, 10, 67, 0
10, 10200, Note_on_c, 10, 65, 108
10, 10210, Note_on_c, 10, 65, 0
10, 10220, Note_on_c, 10, 64, 108
10, 10230, Note_on_c, 10, 64, 0
10, 10240, Note_on_c, 10, 62, 108
10, 10250, Note_on_c, 10, 62, 0
10, 10260, Note_on_c, 10, 60, 108
10, 10270, Note_on_c, 10, 60, 0
10, 10280, Note_on_c, 10, 64, 108
10, 10290, Note_on_c, 10, 64, 0
10, 10300, Note_on_c, 10, 65, 108
10, 10310, Note_on_c, 10, 65, 0
10, 10320, Note_on_c, 10, 67, 108
10, 10330, Note_on_c, 10, 67, 0
10, 10340, Note_on_c, 10, 69, 108
10, 10350, Note_on_c, 10, 69, 0
10, 10360, Note_on_c, 10, 71, 108
10, 10370, Note_on_c, 10, 71, 0
10, 10380, Note_on_c, 10, 72, 108
10, 10390, Note_on_c, 10, 72, 0
10, 10400, Note_on_c, 10, 74, 108
10, 10410, Note_on_c, 10, 74, 0
10, 10420, Note_on_c, 10, 76, 108
10, 10430, Note_on_c, 10, 76, 0
10, 10440, Note_on_c, 10, 77, 108
10, 10450, Note_on_c, 10, 77, 0
10, 10460, Note_on_c, 10, 77, 108
10, 10470, Note_on_c, 10, 77, 0
10, 10480, Note_on_c, 10, 77, 108
10, 10490, Note_on_c, 10, 77, 0
10, 10500, Note_on_c, 10, 77, 108
10, 10510, Note_on_c, 10, 77, 0
10, 10520, Note_on_c, 10, 76, 108
10, 10530, Note_on_c, 10, 76, 0
10, 10540, Note_on_c, 10, 74, 108
10, 10550, Note_on_c, 10, 74, 0
10, 10560, Note_on_c, 10, 72, 108
10, 10570, Note_on_c, 10, 72, 0
10, 10580, Note_on_c, 10, 71, 108
10, 10590, Note_on_c, 10, 71, 0
10, 10600, Note_on_c, 10, 74, 108
10, 10610, Note_on_c, 10, 74, 0
10, 10620, Note_on_c, 10, 72, 108
10, 10630, Note_on_c, 10, 72, 0
10, 10640, Note_on_c, 10, 72, 108
10, 10650, Note_on_c, 10, 72, 0
10, 10660, Note_on_c, 10, 72, 108
10, 10670, Note_on_c, 10, 72, 0
10, 10680, Note_on_c, 10, 72, 108
10, 10690, Note_on_c, 10, 72, 0
10, 10700, Note_on_c, 10, 71, 108
10, 10710, Note_on_c, 10, 71, 0
10, 10720, Note_on_c, 10, 69, 108
10, 10730, Note_on_c, 10, 69, 0
10, 10740, Note_on_c, 10, 67, 108
10, 10750, Note_on_c, 10, 67, 0
10, 10760, Note_on_c, 10, 66, 108
10, 10770, Note_on_c, 10, 66, 0
10, 10780, Note_on_c, 10, 69, 108
10, 10790, Note_on_c, 10, 69, 0
10, 10800, Note_on_c, 10, 67, 108
10, 10810, Note_on_c, 10, 67, 0
10, 10820, Note_on_c, 10, 66, 108
10, 10830, Note_on_c, 10, 66, 0
10, 10840, Note_on_c, 10, 69, 108
10, 10850, Note_on_c, 10, 69, 0
10, 10860, Note_on_c, 10, 67, 108
10, 10870, Note_on_c, 10, 67, 0
10, 10880, Note_on_c, 10, 69, 108
10, 10890, Note_on_c, 10, 69, 0
10, 10900, Note_on_c, 10, 67, 108
10, 10910, Note_on_c, 10, 67, 0
10, 10920, Note_on_c, 10, 65, 108
10, 10930, Note_on_c, 10, 65, 0
10, 10940, Note_on_c, 10, 64, 108
10, 10950, Note_on_c, 10, 64, 0
10, 10960, Note_on_c, 10, 62, 108
10, 10970, Note_on_c, 10, 62, 0
10, 10980, Note_on_c, 10, 60, 93
10, 11015, Control_c, 10, 11, 47
10, 11019, Control_c, 10, 11, 44
10, 11024, Control_c, 10, 11, 41
10, 11029, Control_c, 10, 11, 38
10, 11034, Control_c, 10, 11, 35
10, 11039, Control_c, 10, 11, 32
10, 11040, Note_on_c, 10, 60, 0
10, 11100, Control_c, 10, 11, 32
10, 11100, Note_on_c, 10, 67, 108
10, 11112, Control_c, 10, 11, 35
10, 11124, Control_c, 10, 11, 38
10, 11136, Control_c, 10, 11, 41
10, 11148, Control_c, 10, 11, 44
10, 11160, Note_on_c, 10, 67, 0
10, 11160, Control_c, 10, 11, 47
10, 11160, Note_on_c, 10, 72, 108
10, 11199, Note_on_c, 10, 72, 0
10, 11280, Control_c, 10, 11, 37
10, 11280, Note_on_c, 10, 55, 84
10, 11298, Control_c, 10, 11, 40
10, 11316, Control_c, 10, 11, 43
10, 11334, Control_c, 10, 11, 46
10, 11340, Note_on_c, 10, 55, 0
10, 11340, Note_on_c, 10, 60, 108
10, 11370, Note_on_c, 10, 60, 0
10, 11400, Note_on_c, 10, 60, 103
10, 11430, Note_on_c, 10, 60, 0
10, 11460, Note_on_c, 10, 60, 89
10, 11490, Note_on_c, 10, 60, 0
10, 11520, Note_on_c, 10, 60, 76
10, 11555, Control_c, 10, 11, 47
10, 11562, Control_c, 10, 11, 44
10, 11569, Control_c, 10, 11, 41
10, 11576, Control_c, 10, 11, 38
10, 11580, Note_on_c, 10, 60, 0
10, 11639, Program_c, 10, 50
10, 11640, Control_c, 10, 1, 16
10, 11640, Pitch_bend_c, 10, 7992
10, 11640, Control_c, 10, 11, 37
10, 11640, Control_c, 10, 10, 90
10, 11640, Note_on_c, 10, 60, 108
10, 11658, Control_c, 10, 11, 40
10, 11676, Control_c, 10, 11, 43
10, 11694, Control_c, 10, 11, 46
10, 11700, Note_on_c, 10, 60, 0
10, 11700, Note_on_c, 10, 65, 108
10, 11739, Note_on_c, 10, 65, 0
10, 11760, Note_on_c, 10, 65, 108
10, 11799, Note_on_c, 10, 65, 0
10, 11820, Note_on_c, 10, 65, 108
10, 11880, Note_on_c, 10, 65, 0
10, 11880, Note_on_c, 10, 69, 108
10, 11919, Note_on_c, 10, 69, 0
10, 11940, Note_on_c, 10, 69, 108
10, 11979, Note_on_c, 10, 69, 0
10, 12000, Control_c, 10, 11, 47
10, 12000, Note_on_c, 10, 69, 108
10, 12012, Control_c, 10, 11, 50
10, 12024, Control_c, 10, 11, 53
10, 12036, Control_c, 10, 11, 56
10, 12048, Control_c, 10, 11, 59
10, 12060, Note_on_c, 10, 69, 0
10, 12060, Note_on_c, 10, 70, 108
10, 12060, Control_c, 10, 11, 62
10, 12099, Note_on_c, 10, 70, 0
10, 12120, Note_on_c, 10, 70, 108
10, 12120, Control_c, 10, 11, 57
10, 12150, Note_on_c, 10, 70, 0
10, 12165, Note_on_c, 10, 69, 108
10, 12175, Note_on_c, 10, 69, 0
10, 12180, Note_on_c, 10, 67, 108
10, 12210, Note_on_c, 10, 67, 0
10, 12225, Note_on_c, 10, 65, 108
10, 12235, Note_on_c, 10, 65, 0
10, 12240, Note_on_c, 10, 64, 108
10, 12240, Control_c, 10, 11, 47
10, 12279, Note_on_c, 10, 64, 0
10, 12300, Note_on_c, 10, 64, 108
10, 12339, Note_on_c, 10, 64, 0
10, 12360, Note_on_c, 10, 64, 108
10, 12420, Note_on_c, 10, 64, 0
10, 12420, Control_c, 10, 11, 47
10, 12420, Note_on_c, 10, 65, 108
10, 12444, Control_c, 10, 11, 49
10, 12468, Control_c, 10, 11, 51
10, 12480, Note_on_c, 10, 65, 0
10, 12480, Note_on_c, 10, 67, 108
10, 12492, Control_c, 10, 11, 53
10, 12516, Control_c, 10, 11, 55
10, 12540, Note_on_c, 10, 67, 0
10, 12540, Note_on_c, 10, 69, 108
10, 12540, Control_c, 10, 11, 57
10, 12564, Control_c, 10, 11, 59
10, 12588, Control_c, 10, 11, 61
10, 12595, Note_on_c, 10, 69, 0
10, 12600, Note_on_c, 10, 70, 108
10, 12690, Note_on_c, 10, 70, 0
10, 12690, Control_c, 10, 11, 57
10, 12690, Note_on_c, 10, 72, 108
10, 12699, Control_c, 10, 11, 54
10, 12708, Control_c, 10, 11, 51
10, 12715, Note_on_c, 10, 72, 0
10, 12717, Control_c, 10, 11, 48
10, 12720, Note_on_c, 10, 69, 108
10, 12750, Note_on_c, 10, 69, 0
10, 12780, Control_c, 10, 11, 47
10, 12780, Note_on_c, 10, 67, 108
10, 12840, Note_on_c, 10, 67, 0
10, 13799, Program_c, 10, 48
10, 13800, Control_c, 10, 1, 36
10, 13800, Control_c, 10, 10, 12
10, 13800, Note_on_c, 10, 72, 108
10, 13800, Pitch_bend_c, 10, 8292
10, 13800, Control_c, 10, 11, 27
10, 13818, Control_c, 10, 11, 30
10, 13836, Control_c, 10, 11, 33
10, 13854, Control_c, 10, 11, 36
10, 13860, Note_on_c, 10, 72, 0
10, 13860, Note_on_c, 10, 77, 108
10, 13899, Note_on_c, 10, 77, 0
10, 13920, Note_on_c, 10, 77, 108
10, 13959, Note_on_c, 10, 77, 0
10, 13980, Note_on_c, 10, 77, 108
10, 14040, Note_on_c, 10, 77, 0
10, 14040, Note_on_c, 10, 81, 108
10, 14079, Note_on_c, 10, 81, 0
10, 14100, Note_on_c, 10, 81, 108
10, 14139, Note_on_c, 10, 81, 0
10, 14160, Note_on_c, 10, 81, 108
10, 14160, Control_c, 10, 11, 37
10, 14172, Control_c, 10, 11, 40
10, 14184, Control_c, 10, 11, 43
10, 14196, Control_c, 10, 11, 46
10, 14208, Control_c, 10, 11, 49
10, 14220, Note_on_c, 10, 81, 0
10, 14220, Note_on_c, 10, 82, 108
10, 14220, Control_c, 10, 11, 52
10, 14260, Note_on_c, 10, 82, 0
10, 14280, Control_c, 10, 11, 47
10, 14280, Note_on_c, 10, 82, 108
10, 14310, Note_on_c, 10, 82, 0
10, 14325, Note_on_c, 10, 81, 108
10, 14335, Note_on_c, 10, 81, 0
10, 14340, Note_on_c, 10, 79, 108
10, 14370, Note_on_c, 10, 79, 0
10, 14385, Note_on_c, 10, 77, 108
10, 14395, Note_on_c, 10, 77, 0
10, 14400, Note_on_c, 10, 76, 108
10, 14400, Control_c, 10, 11, 37
10, 14418, Control_c, 10, 11, 38
10, 14436, Control_c, 10, 11, 39
10, 14439, Note_on_c, 10, 76, 0
10, 14454, Control_c, 10, 11, 40
10, 14460, Note_on_c, 10, 76, 93
10, 14472, Control_c, 10, 11, 41
10, 14490, Control_c, 10, 11, 42
10, 14499, Note_on_c, 10, 76, 0
10, 14508, Control_c, 10, 11, 43
10, 14520, Note_on_c, 10, 76, 108
10, 14526, Control_c, 10, 11, 44
10, 14544, Control_c, 10, 11, 45
10, 14562, Control_c, 10, 11, 46
10, 14580, Note_on_c, 10, 76, 0
10, 14580, Note_on_c, 10, 77, 108
10, 14580, Control_c, 10, 11, 47
10, 14598, Control_c, 10, 11, 48
10, 14616, Control_c, 10, 11, 49
10, 14634, Control_c, 10, 11, 50
10, 14640, Note_on_c, 10, 77, 0
10, 14640, Note_on_c, 10, 79, 108
10, 14652, Control_c, 10, 11, 51
10, 14670, Control_c, 10, 11, 52
10, 14688, Control_c, 10, 11, 53
10, 14700, Note_on_c, 10, 79, 0
10, 14700, Note_on_c, 10, 81, 108
10, 14706, Control_c, 10, 11, 54
10, 14724, Control_c, 10, 11, 55
10, 14742, Control_c, 10, 11, 56
10, 14755, Note_on_c, 10, 81, 0
10, 14760, Note_on_c, 10, 82, 108
10, 14760, Control_c, 10, 11, 57
10, 14850, Note_on_c, 10, 82, 0
10, 14850, Note_on_c, 10, 84, 108
10, 14880, Note_on_c, 10, 84, 0
10, 14880, Note_on_c, 10, 81, 108
10, 14935, Note_on_c, 10, 81, 0
10, 14940, Note_on_c, 10, 79, 108
10, 15000, Note_on_c, 10, 79, 0
10, 15060, Note_on_c, 10, 79, 108
10, 15115, Note_on_c, 10, 79, 0
10, 15120, Control_c, 10, 11, 56
10, 15120, Note_on_c, 10, 81, 123
10, 15122, Control_c, 10, 11, 59
10, 15124, Control_c, 10, 11, 62
10, 15126, Control_c, 10, 11, 65
10, 15128, Control_c, 10, 11, 68
10, 15130, Control_c, 10, 11, 71
10, 15132, Control_c, 10, 11, 74
10, 15146, Control_c, 10, 11, 71
10, 15153, Control_c, 10, 11, 68
10, 15160, Control_c, 10, 11, 65
10, 15168, Control_c, 10, 11, 62
10, 15175, Control_c, 10, 11, 59
10, 15225, Note_on_c, 10, 81, 0
10, 15225, Note_on_c, 10, 77, 108
10, 15235, Note_on_c, 10, 77, 0
10, 15240, Note_on_c, 10, 84, 108
10, 15285, Note_on_c, 10, 84, 0
10, 15285, Note_on_c, 10, 81, 108
10, 15295, Note_on_c, 10, 81, 0
10, 15300, Note_on_c, 10, 79, 108
10, 15360, Note_on_c, 10, 79, 0
10, 15420, Note_on_c, 10, 79, 108
10, 15475, Note_on_c, 10, 79, 0
10, 15480, Control_c, 10, 11, 62
10, 15480, Note_on_c, 10, 81, 123
10, 15482, Control_c, 10, 11, 65
10, 15484, Control_c, 10, 11, 68
10, 15486, Control_c, 10, 11, 71
10, 15488, Control_c, 10, 11, 74
10, 15490, Control_c, 10, 11, 77
10, 15492, Control_c, 10, 11, 80
10, 15506, Control_c, 10, 11, 77
10, 15513, Control_c, 10, 11, 74
10, 15520, Control_c, 10, 11, 71
10, 15528, Control_c, 10, 11, 68
10, 15535, Control_c, 10, 11, 65
10, 15585, Note_on_c, 10, 81, 0
10, 15585, Note_on_c, 10, 77, 108
10, 15595, Note_on_c, 10, 77, 0
10, 15600, Note_on_c, 10, 84, 108
10, 15645, Note_on_c, 10, 84, 0
10, 15645, Note_on_c, 10, 81, 108
10, 15655, Note_on_c, 10, 81, 0
10, 15660, Note_on_c, 10, 79, 108
10, 15690, Note_on_c, 10, 79, 0
10, 15720, Note_on_c, 10, 84, 108
10, 15720, Control_c, 10, 11, 68
10, 15722, Control_c, 10, 11, 71
10, 15724, Control_c, 10, 11, 74
10, 15726, Control_c, 10, 11, 77
10, 15728, Control_c, 10, 11, 80
10, 15730, Control_c, 10, 11, 83
10, 15732, Control_c, 10, 11, 86
10, 15746, Control_c, 10, 11, 83
10, 15753, Control_c, 10, 11, 80
10, 15760, Control_c, 10, 11, 77
10, 15768, Control_c, 10, 11, 74
10, 15775, Control_c, 10, 11, 71
10, 15810, Note_on_c, 10, 84, 0
10, 15810, Note_on_c, 10, 81, 108
10, 15835, Note_on_c, 10, 81, 0
10, 15840, Note_on_c, 10, 79, 108
10, 15870, Note_on_c, 10, 79, 0
10, 15900, Note_on_c, 10, 84, 108
10, 15900, Control_c, 10, 11, 72
10, 15902, Control_c, 10, 11, 75
10, 15905, Control_c, 10, 11, 79
10, 15908, Control_c, 10, 11, 82
10, 15910, Control_c, 10, 11, 85
10, 15930, Note_on_c, 10, 84, 0
10, 15930, Control_c, 10, 11, 84
10, 15930, Note_on_c, 10, 83, 108
10, 15948, Control_c, 10, 11, 81
10, 15960, Note_on_c, 10, 83, 0
10, 15960, Note_on_c, 10, 84, 108
10, 15990, Note_on_c, 10, 84, 0
10, 15990, Note_on_c, 10, 81, 108
10, 16015, Note_on_c, 10, 81, 0
10, 16020, Control_c, 10, 11, 87
10, 16020, Note_on_c, 10, 79, 98
10, 16059, Note_on_c, 10, 79, 0
10, 16080, Note_on_c, 10, 67, 89
10, 16119, Note_on_c, 10, 67, 0
10, 16140, Note_on_c, 10, 67, 86
10, 16179, Note_on_c, 10, 67, 0
10, 16200, Note_on_c, 10, 67, 83
10, 16235, Control_c, 10, 11, 87
10, 16237, Control_c, 10, 11, 84
10, 16240, Control_c, 10, 11, 81
10, 16243, Control_c, 10, 11, 78
10, 16246, Control_c, 10, 11, 75
10, 16249, Control_c, 10, 11, 72
10, 16252, Control_c, 10, 11, 69
10, 16255, Control_c, 10, 11, 66
10, 16258, Control_c, 10, 11, 63
10, 16260, Note_on_c, 10, 67, 0
10, 16320, Control_c, 10, 11, 32
10, 16320, Note_on_c, 10, 67, 93
10, 16332, Control_c, 10, 11, 35
10, 16344, Control_c, 10, 11, 38
10, 16356, Control_c, 10, 11, 41
10, 16368, Control_c, 10, 11, 44
10, 16380, Note_on_c, 10, 67, 0
10, 16380, Control_c, 10, 11, 47
10, 16380, Note_on_c, 10, 76, 108
10, 16419, Note_on_c, 10, 76, 0
10, 16500, Control_c, 10, 11, 32
10, 16500, Note_on_c, 10, 76, 93
10, 16511, Control_c, 10, 11, 35
10, 16523, Control_c, 10, 11, 38
10, 16534, Control_c, 10, 11, 41
10, 16546, Control_c, 10, 11, 44
10, 16560, Note_on_c, 10, 76, 0
10, 16560, Note_on_c, 10, 77, 108
10, 16599, Note_on_c, 10, 77, 0
10, 16680, Control_c, 10, 11, 37
10, 16680, Note_on_c, 10, 81, 108
10, 16698, Control_c, 10, 11, 40
10, 16716, Control_c, 10, 11, 43
10, 16725, Note_on_c, 10, 81, 0
10, 16725, Note_on_c, 10, 77, 108
10, 16734, Control_c, 10, 11, 46
10, 16735, Note_on_c, 10, 77, 0
10, 16740, Note_on_c, 10, 74, 108
10, 16779, Note_on_c, 10, 74, 0
10, 16860, Note_on_c, 10, 74, 93
10, 16860, Control_c, 10, 11, 32
10, 16871, Control_c, 10, 11, 35
10, 16883, Control_c, 10, 11, 38
10, 16894, Control_c, 10, 11, 41
10, 16906, Control_c, 10, 11, 44
10, 16920, Note_on_c, 10, 74, 0
10, 16920, Note_on_c, 10, 76, 108
10, 16959, Note_on_c, 10, 76, 0
10, 17040, Note_on_c, 10, 79, 108
10, 17040, Control_c, 10, 11, 37
10, 17058, Control_c, 10, 11, 40
10, 17076, Control_c, 10, 11, 43
10, 17085, Note_on_c, 10, 79, 0
10, 17085, Note_on_c, 10, 76, 108
10, 17094, Control_c, 10, 11, 46
10, 17095, Note_on_c, 10, 76, 0
10, 17100, Note_on_c, 10, 72, 108
10, 17139, Note_on_c, 10, 72, 0
10, 17160, Note_on_c, 10, 72, 108
10, 17212, Note_on_c, 10, 72, 0
10, 17220, Note_on_c, 10, 72, 108
10, 17272, Note_on_c, 10, 72, 0
10, 17280, Note_on_c, 10, 72, 108
10, 17340, Note_on_c, 10, 72, 0
10, 17340, Note_on_c, 10, 71, 108
10, 17400, Note_on_c, 10, 71, 0
10, 17400, Note_on_c, 10, 72, 108
10, 17455, Note_on_c, 10, 72, 0
10, 17460, Control_c, 10, 11, 47
10, 17460, Note_on_c, 10, 74, 108
10, 17478, Control_c, 10, 11, 50
10, 17496, Control_c, 10, 11, 53
10, 17514, Control_c, 10, 11, 56
10, 17520, Note_on_c, 10, 74, 0
10, 17520, Note_on_c, 10, 77, 108
10, 17532, Control_c, 10, 11, 56
10, 17556, Control_c, 10, 11, 54
10, 17580, Control_c, 10, 11, 52
10, 17595, Note_on_c, 10, 77, 0
10, 17595, Note_on_c, 10, 76, 108
10, 17604, Control_c, 10, 11, 50
10, 17610, Note_on_c, 10, 76, 0
10, 17610, Note_on_c, 10, 74, 108
10, 17625, Note_on_c, 10, 74, 0
10, 17625, Note_on_c, 10, 76, 108
10, 17628, Control_c, 10, 11, 48
10, 17635, Note_on_c, 10, 76, 0
10, 17640, Note_on_c, 10, 74, 108
10, 17700, Note_on_c, 10, 74, 0
10, 17820, Note_on_c, 10, 79, 108
10, 17835, Note_on_c, 10, 79, 0
10, 17850, Note_on_c, 10, 76, 108
10, 17865, Note_on_c, 10, 76, 0
10, 17880, Note_on_c, 10, 73, 108
10, 17895, Note_on_c, 10, 73, 0
10, 17910, Note_on_c, 10, 69, 108
10, 17925, Note_on_c, 10, 69, 0
10, 17940, Note_on_c, 10, 67, 108
10, 17955, Note_on_c, 10, 67, 0
10, 17970, Note_on_c, 10, 64, 108
10, 17985, Note_on_c, 10, 64, 0
10, 18000, Note_on_c, 10, 65, 108
10, 18015, Note_on_c, 10, 65, 0
10, 18030, Note_on_c, 10, 62, 108
10, 18045, Note_on_c, 10, 62, 0
10, 18060, Note_on_c, 10, 69, 108
10, 18060, Control_c, 10, 11, 47
10, 18069, Control_c, 10, 11, 50
10, 18078, Control_c, 10, 11, 53
10, 18087, Control_c, 10, 11, 56
10, 18090, Note_on_c, 10, 69, 0
10, 18090, Note_on_c, 10, 68, 108
10, 18096, Control_c, 10, 11, 59
10, 18105, Control_c, 10, 11, 62
10, 18114, Control_c, 10, 11, 65
10, 18120, Note_on_c, 10, 68, 0
10, 18120, Note_on_c, 10, 69, 108
10, 18129, Control_c, 10, 11, 64
10, 18138, Control_c, 10, 11, 61
10, 18147, Control_c, 10, 11, 58
10, 18150, Note_on_c, 10, 69, 0
10, 18150, Note_on_c, 10, 65, 108
10, 18156, Control_c, 10, 11, 55
10, 18165, Control_c, 10, 11, 52
10, 18174, Control_c, 10, 11, 49
10, 18175, Note_on_c, 10, 65, 0
10, 18180, Note_on_c, 10, 77, 108
10, 18195, Note_on_c, 10, 77, 0
10, 18210, Note_on_c, 10, 74, 108
10, 18225, Note_on_c, 10, 74, 0
10, 18240, Note_on_c, 10, 71, 108
10, 18255, Note_on_c, 10, 71, 0
10, 18270, Note_on_c, 10, 67, 108
10, 18285, Note_on_c, 10, 67, 0
10, 18300, Note_on_c, 10, 65, 108
10, 18315, Note_on_c, 10, 65, 0
10, 18330, Note_on_c, 10, 62, 108
10, 18345, Note_on_c, 10, 62, 0
10, 18360, Note_on_c, 10, 64, 108
10, 18375, Note_on_c, 10, 64, 0
10, 18390, Note_on_c, 10, 60, 108
10, 18405, Note_on_c, 10, 60, 0
10, 18420, Control_c, 10, 11, 47
10, 18420, Note_on_c, 10, 67, 108
10, 18429, Control_c, 10, 11, 50
10, 18438, Control_c, 10, 11, 53
10, 18447, Control_c, 10, 11, 56
10, 18450, Note_on_c, 10, 67, 0
10, 18450, Note_on_c, 10, 66, 108
10, 18456, Control_c, 10, 11, 59
10, 18465, Control_c, 10, 11, 62
10, 18474, Control_c, 10, 11, 65
10, 18480, Note_on_c, 10, 66, 0
10, 18480, Note_on_c, 10, 67, 108
10, 18489, Control_c, 10, 11, 64
10, 18498, Control_c, 10, 11, 61
10, 18507, Control_c, 10, 11, 58
10, 18510, Note_on_c, 10, 67, 0
10, 18510, Note_on_c, 10, 64, 108
10, 18516, Control_c, 10, 11, 55
10, 18525, Control_c, 10, 11, 52
10, 18534, Control_c, 10, 11, 49
10, 18535, Note_on_c, 10, 64, 0
10, 18540, Note_on_c, 10, 60, 108
10, 18554, Control_c, 10, 11, 49
10, 18576, Control_c, 10, 11, 52
10, 18595, Note_on_c, 10, 60, 0
10, 18597, Control_c, 10, 11, 55
10, 18600, Note_on_c, 10, 72, 108
10, 18612, Control_c, 10, 11, 57
10, 18633, Control_c, 10, 11, 60
10, 18648, Control_c, 10, 11, 62
10, 18660, Note_on_c, 10, 72, 0
10, 18660, Note_on_c, 10, 73, 108
10, 18669, Control_c, 10, 11, 65
10, 18684, Control_c, 10, 11, 67
10, 18705, Control_c, 10, 11, 70
10, 18715, Note_on_c, 10, 73, 0
10, 18720, Control_c, 10, 11, 72
10, 18720, Note_on_c, 10, 74, 108
10, 18735, Control_c, 10, 11, 73
10, 18750, Note_on_c, 10, 74, 0
10, 18750, Control_c, 10, 11, 74
10, 18750, Note_on_c, 10, 76, 108
10, 18765, Control_c, 10, 11, 75
10, 18780, Note_on_c, 10, 76, 0
10, 18780, Control_c, 10, 11, 76
10, 18780, Note_on_c, 10, 77, 108
10, 18795, Control_c, 10, 11, 77
10, 18810, Note_on_c, 10, 77, 0
10, 18810, Control_c, 10, 11, 78
10, 18810, Note_on_c, 10, 79, 108
10, 18825, Control_c, 10, 11, 79
10, 18840, Note_on_c, 10, 79, 0
10, 18840, Note_on_c, 10, 80, 108
10, 18840, Control_c, 10, 11, 80
10, 18855, Control_c, 10, 11, 81
10, 18870, Note_on_c, 10, 80, 0
10, 18870, Note_on_c, 10, 81, 108
10, 18870, Control_c, 10, 11, 82
10, 18882, Control_c, 10, 11, 78
10, 18884, Control_c, 10, 11, 75
10, 18886, Control_c, 10, 11, 71
10, 18888, Control_c, 10, 11, 68
10, 18890, Control_c, 10, 11, 64
10, 18892, Control_c, 10, 11, 61
10, 18894, Control_c, 10, 11, 57
10, 18895, Note_on_c, 10, 81, 0
10, 18896, Control_c, 10, 11, 54
10, 18898, Control_c, 10, 11, 50
10, 18900, Control_c, 10, 11, 47
10, 18900, Note_on_c, 10, 72, 108
10, 18990, Note_on_c, 10, 72, 0
10, 18990, Note_on_c, 10, 74, 108
10, 18997, Note_on_c, 10, 72, 108
10, 18998, Note_on_c, 10, 74, 0
10, 19005, Note_on_c, 10, 72, 0
10, 19005, Note_on_c, 10, 71, 108
10, 19012, Note_on_c, 10, 72, 108
10, 19013, Note_on_c, 10, 71, 0
10, 19020, Note_on_c, 10, 72, 0
10, 19020, Note_on_c, 10, 74, 108
10, 19065, Note_on_c, 10, 74, 0
10, 19065, Note_on_c, 10, 71, 123
10, 19075, Note_on_c, 10, 71, 0
10, 19080, Note_on_c, 10, 72, 108
10, 19125, Note_on_c, 10, 72, 0
10, 19125, Note_on_c, 10, 79, 108
10, 19133, Note_on_c, 10, 79, 0
10, 19140, Note_on_c, 10, 79, 108
10, 19300, Note_on_c, 10, 79, 0
10, 19305, Note_on_c, 10, 76, 108
10, 19313, Note_on_c, 10, 76, 0
10, 19320, Note_on_c, 10, 76, 108
10, 19480, Note_on_c, 10, 76, 0
10, 19485, Note_on_c, 10, 72, 108
10, 19493, Note_on_c, 10, 72, 0
10, 19500, Note_on_c, 10, 72, 108
10, 19590, Note_on_c, 10, 72, 0
10, 19590, Note_on_c, 10, 73, 108
10, 19615, Note_on_c, 10, 73, 0
10, 19620, Note_on_c, 10, 74, 108
10, 19640, Note_on_c, 10, 74, 0
10, 19640, Note_on_c, 10, 77, 108
10, 19655, Note_on_c, 10, 77, 0
10, 19660, Note_on_c, 10, 81, 108
10, 19675, Note_on_c, 10, 81, 0
10, 19680, Note_on_c, 10, 72, 108
10, 19719, Note_on_c, 10, 72, 0
10, 19740, Note_on_c, 10, 71, 108
10, 19746, Note_on_c, 10, 71, 0
10, 19746, Note_on_c, 10, 72, 108
10, 19752, Note_on_c, 10, 72, 0
10, 19752, Note_on_c, 10, 71, 108
10, 19758, Note_on_c, 10, 71, 0
10, 19758, Note_on_c, 10, 72, 108
10, 19764, Note_on_c, 10, 72, 0
10, 19764, Note_on_c, 10, 71, 108
10, 19770, Note_on_c, 10, 71, 0
10, 19770, Note_on_c, 10, 72, 108
10, 19776, Note_on_c, 10, 72, 0
10, 19776, Note_on_c, 10, 71, 108
10, 19782, Note_on_c, 10, 71, 0
10, 19782, Note_on_c, 10, 72, 108
10, 19788, Note_on_c, 10, 72, 0
10, 19788, Note_on_c, 10, 71, 108
10, 19794, Note_on_c, 10, 71, 0
10, 19800, Note_on_c, 10, 72, 108
10, 19860, Note_on_c, 10, 72, 0
10, 19905, Control_c, 10, 11, 87
10, 19905, Note_on_c, 10, 74, 108
10, 19913, Note_on_c, 10, 74, 0
10, 19920, Note_on_c, 10, 76, 108
10, 19943, Note_on_c, 10, 76, 0
10, 19965, Note_on_c, 10, 77, 108
10, 19973, Note_on_c, 10, 77, 0
10, 19980, Note_on_c, 10, 76, 108
10, 20010, Note_on_c, 10, 76, 0
10, 20085, Note_on_c, 10, 71, 108
10, 20093, Note_on_c, 10, 71, 0
10, 20100, Note_on_c, 10, 72, 108
10, 20123, Note_on_c, 10, 72, 0
10, 20145, Note_on_c, 10, 74, 108
10, 20153, Note_on_c, 10, 74, 0
10, 20160, Note_on_c, 10, 72, 108
10, 20190, Note_on_c, 10, 72, 0
10, 20265, Note_on_c, 10, 80, 108
10, 20273, Note_on_c, 10, 80, 0
10, 20280, Note_on_c, 10, 81, 108
10, 20303, Note_on_c, 10, 81, 0
10, 20325, Note_on_c, 10, 83, 108
10, 20333, Note_on_c, 10, 83, 0
10, 20340, Note_on_c, 10, 81, 108
10, 20370, Note_on_c, 10, 81, 0
10, 20400, Note_on_c, 10, 76, 108
10, 20400, Control_c, 10, 11, 90
10, 20406, Control_c, 10, 11, 93
10, 20412, Control_c, 10, 11, 96
10, 20435, Control_c, 10, 11, 95
10, 20444, Control_c, 10, 11, 92
10, 20453, Control_c, 10, 11, 89
10, 20520, Note_on_c, 10, 76, 0
10, 20520, Note_on_c, 10, 77, 108
10, 20550, Note_on_c, 10, 77, 0
10, 20580, Note_on_c, 10, 78, 108
10, 20580, Control_c, 10, 11, 90
10, 20589, Control_c, 10, 11, 93
10, 20599, Control_c, 10, 11, 96
10, 20615, Control_c, 10, 11, 95
10, 20624, Control_c, 10, 11, 92
10, 20633, Control_c, 10, 11, 89
10, 20700, Note_on_c, 10, 78, 0
10, 20700, Note_on_c, 10, 79, 108
10, 20730, Note_on_c, 10, 79, 0
10, 20760, Control_c, 10, 11, 90
10, 20760, Note_on_c, 10, 80, 108
10, 20766, Control_c, 10, 11, 93
10, 20772, Control_c, 10, 11, 96
10, 20795, Control_c, 10, 11, 95
10, 20804, Control_c, 10, 11, 92
10, 20813, Control_c, 10, 11, 89
10, 20880, Note_on_c, 10, 80, 0
10, 20880, Control_c, 10, 11, 87
10, 20880, Note_on_c, 10, 81, 108
10, 20889, Control_c, 10, 11, 84
10, 20898, Control_c, 10, 11, 81
10, 20900, Note_on_c, 10, 81, 0
10, 20900, Note_on_c, 10, 77, 108
10, 20907, Control_c, 10, 11, 78
10, 20915, Note_on_c, 10, 77, 0
10, 20916, Control_c, 10, 11, 75
10, 20920, Note_on_c, 10, 74, 108
10, 20925, Control_c, 10, 11, 72
10, 20930, Note_on_c, 10, 74, 0
10, 20934, Control_c, 10, 11, 69
10, 20940, Note_on_c, 10, 72, 108
10, 20970, Note_on_c, 10, 72, 0
10, 21000, Note_on_c, 10, 72, 88
10, 21000, Control_c, 10, 11, 67
10, 21000, Control_c, 10, 11, 72
10, 21006, Note_on_c, 10, 72, 0
10, 21006, Note_on_c, 10, 71, 88
10, 21012, Note_on_c, 10, 71, 0
10, 21012, Control_c, 10, 11, 65
10, 21012, Note_on_c, 10, 72, 88
10, 21016, Control_c, 10, 11, 68
10, 21018, Note_on_c, 10, 72, 0
10, 21018, Control_c, 10, 11, 64
10, 21018, Note_on_c, 10, 71, 88
10, 21020, Control_c, 10, 11, 67
10, 21024, Note_on_c, 10, 71, 0
10, 21024, Note_on_c, 10, 72, 88
10, 21024, Control_c, 10, 11, 63
10, 21030, Note_on_c, 10, 72, 0
10, 21030, Note_on_c, 10, 71, 88
10, 21036, Note_on_c, 10, 71, 0
10, 21036, Note_on_c, 10, 71, 88
10, 21044, Note_on_c, 10, 71, 0
10, 21044, Note_on_c, 10, 69, 88
10, 21048, Control_c, 10, 11, 60
10, 21052, Note_on_c, 10, 69, 0
10, 21052, Note_on_c, 10, 71, 72
10, 21060, Note_on_c, 10, 71, 0
10, 21060, Note_on_c, 10, 72, 72
10, 21060, Control_c, 10, 11, 57
10, 21090, Control_c, 10, 11, 57
10, 21094, Control_c, 10, 11, 54
10, 21098, Control_c, 10, 11, 51
10, 21103, Control_c, 10, 11, 48
10, 21107, Control_c, 10, 11, 45
10, 21111, Control_c, 10, 11, 42
10, 21116, Control_c, 10, 11, 39
10, 21120, Note_on_c, 10, 72, 0
10, 21240, Control_c, 10, 11, 32
10, 21240, Note_on_c, 10, 77, 108
10, 21250, Note_on_c, 10, 77, 0
10, 21252, Control_c, 10, 11, 35
10, 21260, Note_on_c, 10, 81, 108
10, 21264, Control_c, 10, 11, 38
10, 21270, Note_on_c, 10, 81, 0
10, 21276, Control_c, 10, 11, 41
10, 21280, Note_on_c, 10, 79, 108
10, 21288, Control_c, 10, 11, 44
10, 21290, Note_on_c, 10, 79, 0
10, 21300, Note_on_c, 10, 77, 108
10, 21300, Control_c, 10, 11, 47
10, 21310, Note_on_c, 10, 77, 0
10, 21320, Note_on_c, 10, 76, 108
10, 21330, Note_on_c, 10, 76, 0
10, 21340, Note_on_c, 10, 74, 108
10, 21350, Note_on_c, 10, 74, 0
10, 21360, Note_on_c, 10, 72, 108
10, 21370, Note_on_c, 10, 72, 0
10, 21380, Note_on_c, 10, 71, 108
10, 21390, Note_on_c, 10, 71, 0
10, 21400, Note_on_c, 10, 74, 108
10, 21410, Note_on_c, 10, 74, 0
10, 21420, Note_on_c, 10, 72, 108
10, 21430, Note_on_c, 10, 72, 0
10, 21440, Note_on_c, 10, 76, 108
10, 21450, Note_on_c, 10, 76, 0
10, 21460, Note_on_c, 10, 74, 108
10, 21470, Note_on_c, 10, 74, 0
10, 21480, Note_on_c, 10, 72, 108
10, 21490, Note_on_c, 10, 72, 0
10, 21500, Note_on_c, 10, 71, 108
10, 21510, Note_on_c, 10, 71, 0
10, 21520, Note_on_c, 10, 69, 108
10, 21530, Note_on_c, 10, 69, 0
10, 21540, Note_on_c, 10, 67, 108
10, 21550, Note_on_c, 10, 67, 0
10, 21560, Note_on_c, 10, 66, 108
10, 21570, Note_on_c, 10, 66, 0
10, 21580, Note_on_c, 10, 69, 108
10, 21590, Note_on_c, 10, 69, 0
10, 21600, Note_on_c, 10, 67, 108
10, 21610, Note_on_c, 10, 67, 0
10, 21620, Note_on_c, 10, 66, 108
10, 21630, Note_on_c, 10, 66, 0
10, 21640, Note_on_c, 10, 69, 108
10, 21650, Note_on_c, 10, 69, 0
10, 21660, Note_on_c, 10, 67, 108
10, 21670, Note_on_c, 10, 67, 0
10, 21680, Note_on_c, 10, 69, 108
10, 21690, Note_on_c, 10, 69, 0
10, 21700, Note_on_c, 10, 67, 108
10, 21710, Note_on_c, 10, 67, 0
10, 21720, Note_on_c, 10, 65, 108
10, 21730, Note_on_c, 10, 65, 0
10, 21740, Note_on_c, 10, 64, 108
10, 21750, Note_on_c, 10, 64, 0
10, 21760, Note_on_c, 10, 62, 108
10, 21770, Note_on_c, 10, 62, 0
10, 21780, Note_on_c, 10, 60, 108
10, 21790, Note_on_c, 10, 60, 0
10, 21800, Note_on_c, 10, 64, 108
10, 21810, Note_on_c, 10, 64, 0
10, 21820, Note_on_c, 10, 65, 108
10, 21830, Note_on_c, 10, 65, 0
10, 21840, Note_on_c, 10, 67, 108
10, 21850, Note_on_c, 10, 67, 0
10, 21860, Note_on_c, 10, 69, 108
10, 21870, Note_on_c, 10, 69, 0
10, 21880, Note_on_c, 10, 71, 108
10, 21890, Note_on_c, 10, 71, 0
10, 21900, Note_on_c, 10, 72, 108
10, 21910, Note_on_c, 10, 72, 0
10, 21920, Note_on_c, 10, 74, 108
10, 21930, Note_on_c, 10, 74, 0
10, 21940, Note_on_c, 10, 76, 108
10, 21950, Note_on_c, 10, 76, 0
10, 21960, Note_on_c, 10, 77, 108
10, 21970, Note_on_c, 10, 77, 0
10, 21980, Note_on_c, 10, 77, 108
10, 21990, Note_on_c, 10, 77, 0
10, 22000, Note_on_c, 10, 77, 108
10, 22010, Note_on_c, 10, 77, 0
10, 22020, Note_on_c, 10, 77, 108
10, 22030, Note_on_c, 10, 77, 0
10, 22040, Note_on_c, 10, 76, 108
10, 22050, Note_on_c, 10, 76, 0
10, 22060, Note_on_c, 10, 74, 108
10, 22070, Note_on_c, 10, 74, 0
10, 22080, Note_on_c, 10, 72, 108
10, 22090, Note_on_c, 10, 72, 0
10, 22100, Note_on_c, 10, 71, 108
10, 22110, Note_on_c, 10, 71, 0
10, 22120, Note_on_c, 10, 74, 108
10, 22130, Note_on_c, 10, 74, 0
10, 22140, Note_on_c, 10, 72, 108
10, 22150, Note_on_c, 10, 72, 0
10, 22160, Note_on_c, 10, 72, 108
10, 22170, Note_on_c, 10, 72, 0
10, 22180, Note_on_c, 10, 72, 108
10, 22190, Note_on_c, 10, 72, 0
10, 22200, Note_on_c, 10, 72, 108
10, 22210, Note_on_c, 10, 72, 0
10, 22220, Note_on_c, 10, 71, 108
10, 22230, Note_on_c, 10, 71, 0
10, 22240, Note_on_c, 10, 69, 108
10, 22250, Note_on_c, 10, 69, 0
10, 22260, Note_on_c, 10, 67, 108
10, 22270, Note_on_c, 10, 67, 0
10, 22280, Note_on_c, 10, 66, 108
10, 22290, Note_on_c, 10, 66, 0
10, 22300, Note_on_c, 10, 69, 108
10, 22310, Note_on_c, 10, 69, 0
10, 22320, Note_on_c, 10, 67, 108
10, 22330, Note_on_c, 10, 67, 0
10, 22340, Note_on_c, 10, 66, 108
10, 22350, Note_on_c, 10, 66, 0
10, 22360, Note_on_c, 10, 69, 108
10, 22370, Note_on_c, 10, 69, 0
10, 22380, Note_on_c, 10, 67, 108
10, 22390, Note_on_c, 10, 67, 0
10, 22400, Note_on_c, 10, 69, 108
10, 22410, Note_on_c, 10, 69, 0
10, 22420, Note_on_c, 10, 67, 108
10, 22430, Note_on_c, 10, 67, 0
10, 22440, Note_on_c, 10, 65, 108
10, 22450, Note_on_c, 10, 65, 0
10, 22460, Note_on_c, 10, 64, 108
10, 22470, Note_on_c, 10, 64, 0
10, 22480, Note_on_c, 10, 62, 108
10, 22490, Note_on_c, 10, 62, 0
10, 22500, Note_on_c, 10, 60, 93
10, 22535, Control_c, 10, 11, 47
10, 22539, Control_c, 10, 11, 44
10, 22544, Control_c, 10, 11, 41
10, 22549, Control_c, 10, 11, 38
10, 22554, Control_c, 10, 11, 35
10, 22559, Control_c, 10, 11, 32
10, 22560, Note_on_c, 10, 60, 0
10, 22620, Control_c, 10, 11, 32
10, 22620, Note_on_c, 10, 67, 108
10, 22632, Control_c, 10, 11, 35
10, 22644, Control_c, 10, 11, 38
10, 22656, Control_c, 10, 11, 41
10, 22668, Control_c, 10, 11, 44
10, 22680, Note_on_c, 10, 67, 0
10, 22680, Control_c, 10, 11, 47
10, 22680, Note_on_c, 10, 72, 108
10, 22719, Note_on_c, 10, 72, 0
10, 22800, Control_c, 10, 11, 37
10, 22800, Note_on_c, 10, 55, 84
10, 22818, Control_c, 10, 11, 40
10, 22836, Control_c, 10, 11, 43
10, 22854, Control_c, 10, 11, 46
10, 22860, Note_on_c, 10, 55, 0
10, 22860, Note_on_c, 10, 60, 108
10, 22890, Note_on_c, 10, 60, 0
10, 22920, Note_on_c, 10, 60, 103
10, 22950, Note_on_c, 10, 60, 0
10, 22980, Note_on_c, 10, 60, 89
10, 23010, Note_on_c, 10, 60, 0
10, 23040, Note_on_c, 10, 60, 84
10, 23075, Control_c, 10, 11, 47
10, 23082, Control_c, 10, 11, 44
10, 23089, Control_c, 10, 11, 41
10, 23096, Control_c, 10, 11, 38
10, 23100, Note_on_c, 10, 60, 0
10, 23160, Control_c, 10, 11, 27
10, 23160, Note_on_c, 10, 60, 93
10, 23178, Control_c, 10, 11, 30
10, 23196, Control_c, 10, 11, 33
10, 23214, Control_c, 10, 11, 36
10, 23220, Note_on_c, 10, 60, 0
10, 23220, Note_on_c, 10, 63, 108
10, 23280, Note_on_c, 10, 63, 0
10, 23340, Control_c, 10, 11, 32
10, 23340, Note_on_c, 10, 67, 93
10, 23364, Control_c, 10, 11, 34
10, 23388, Control_c, 10, 11, 36
10, 23400, Note_on_c, 10, 67, 0
10, 23400, Note_on_c, 10, 72, 108
10, 23460, Note_on_c, 10, 72, 0
10, 23520, Note_on_c, 10, 63, 94
10, 23520, Control_c, 10, 11, 32
10, 23544, Control_c, 10, 11, 34
10, 23568, Control_c, 10, 11, 36
10, 23580, Note_on_c, 10, 63, 0
10, 23580, Note_on_c, 10, 67, 108
10, 23640, Note_on_c, 10, 67, 0
10, 23700, Note_on_c, 10, 72, 95
10, 23700, Control_c, 10, 11, 32
10, 23724, Control_c, 10, 11, 34
10, 23748, Control_c, 10, 11, 36
10, 23760, Note_on_c, 10, 72, 0
10, 23760, Note_on_c, 10, 75, 108
10, 23820, Note_on_c, 10, 75, 0
10, 23880, Note_on_c, 10, 66, 96
10, 23880, Control_c, 10, 11, 32
10, 23892, Control_c, 10, 11, 35
10, 23904, Control_c, 10, 11, 38
10, 23916, Control_c, 10, 11, 41
10, 23928, Control_c, 10, 11, 44
10, 23940, Note_on_c, 10, 66, 0
10, 23940, Control_c, 10, 11, 47
10, 23940, Note_on_c, 10, 72, 108
10, 24000, Note_on_c, 10, 72, 0
10, 24060, Control_c, 10, 11, 52
10, 24060, Note_on_c, 10, 75, 97
10, 24069, Control_c, 10, 11, 55
10, 24078, Control_c, 10, 11, 58
10, 24087, Control_c, 10, 11, 61
10, 24096, Control_c, 10, 11, 64
10, 24105, Control_c, 10, 11, 67
10, 24114, Control_c, 10, 11, 70
10, 24120, Note_on_c, 10, 75, 0
10, 24120, Note_on_c, 10, 78, 108
10, 24180, Note_on_c, 10, 78, 0
10, 24240, Note_on_c, 10, 60, 75
10, 24240, Control_c, 10, 11, 87
10, 24252, Control_c, 10, 11, 90
10, 24264, Control_c, 10, 11, 93
10, 24276, Control_c, 10, 11, 96
10, 24288, Control_c, 10, 11, 99
10, 24300, Note_on_c, 10, 60, 0
10, 24300, Control_c, 10, 11, 102
10, 24300, Note_on_c, 10, 61, 68
10, 24309, Control_c, 10, 11, 99
10, 24319, Control_c, 10, 11, 96
10, 24327, Note_on_c, 10, 61, 0
10, 24329, Control_c, 10, 11, 93
10, 24339, Control_c, 10, 11, 90
10, 24345, Note_on_c, 10, 56, 68
10, 24345, Note_on_c, 10, 65, 68
10, 24349, Control_c, 10, 11, 87
10, 24354, Note_on_c, 10, 65, 0
10, 24354, Note_on_c, 10, 56, 0
10, 24358, Control_c, 10, 11, 84
10, 24360, Note_on_c, 10, 65, 66
10, 24360, Note_on_c, 10, 56, 66
10, 24368, Control_c, 10, 11, 81
10, 24378, Control_c, 10, 11, 78
10, 24387, Note_on_c, 10, 56, 0
10, 24387, Note_on_c, 10, 65, 0
10, 24388, Control_c, 10, 11, 75
10, 24398, Control_c, 10, 11, 72
10, 24405, Note_on_c, 10, 56, 60
10, 24405, Note_on_c, 10, 65, 60
10, 24408, Control_c, 10, 11, 69
10, 24414, Note_on_c, 10, 65, 0
10, 24414, Note_on_c, 10, 56, 0
10, 24417, Control_c, 10, 11, 66
10, 24420, Note_on_c, 10, 65, 60
10, 24420, Note_on_c, 10, 56, 60
10, 24427, Control_c, 10, 11, 63
10, 24437, Control_c, 10, 11, 60
10, 24447, Note_on_c, 10, 56, 0
10, 24447, Note_on_c, 10, 65, 0
10, 24447, Control_c, 10, 11, 57
10, 24457, Control_c, 10, 11, 54
10, 24465, Note_on_c, 10, 56, 54
10, 24465, Note_on_c, 10, 65, 54
10, 24466, Control_c, 10, 11, 51
10, 24474, Note_on_c, 10, 65, 0
10, 24474, Note_on_c, 10, 56, 0
10, 24476, Control_c, 10, 11, 48
10, 24480, Note_on_c, 10, 56, 52
10, 24480, Note_on_c, 10, 65, 52
10, 24507, Note_on_c, 10, 65, 0
10, 24507, Note_on_c, 10, 56, 0
10, 24525, Note_on_c, 10, 56, 52
10, 24525, Note_on_c, 10, 65, 52
10, 24534, Note_on_c, 10, 65, 0
10, 24534, Note_on_c, 10, 56, 0
10, 24540, Note_on_c, 10, 56, 52
10, 24540, Note_on_c, 10, 65, 52
10, 24567, Note_on_c, 10, 65, 0
10, 24567, Note_on_c, 10, 56, 0
10, 24585, Note_on_c, 10, 56, 52
10, 24585, Note_on_c, 10, 65, 52
10, 24594, Note_on_c, 10, 65, 0
10, 24594, Note_on_c, 10, 56, 0
10, 24600, Note_on_c, 10, 56, 52
10, 24600, Note_on_c, 10, 65, 52
10, 24627, Note_on_c, 10, 65, 0
10, 24627, Note_on_c, 10, 56, 0
10, 24645, Note_on_c, 10, 56, 67
10, 24645, Note_on_c, 10, 65, 67
10, 24654, Note_on_c, 10, 65, 0
10, 24654, Note_on_c, 10, 56, 0
10, 24660, Note_on_c, 10, 66, 68
10, 24660, Control_c, 10, 11, 67
10, 24663, Control_c, 10, 11, 70
10, 24666, Control_c, 10, 11, 73
10, 24669, Control_c, 10, 11, 76
10, 24675, Control_c, 10, 11, 73
10, 24679, Control_c, 10, 11, 70
10, 24682, Control_c, 10, 11, 67
10, 24685, Control_c, 10, 11, 64
10, 24687, Note_on_c, 10, 66, 0
10, 24689, Control_c, 10, 11, 61
10, 24692, Control_c, 10, 11, 58
10, 24696, Control_c, 10, 11, 55
10, 24699, Control_c, 10, 11, 52
10, 24702, Control_c, 10, 11, 49
10, 24705, Note_on_c, 10, 66, 52
10, 24714, Note_on_c, 10, 66, 0
10, 24720, Note_on_c, 10, 66, 52
10, 24747, Note_on_c, 10, 66, 0
10, 24765, Note_on_c, 10, 66, 52
10, 24774, Note_on_c, 10, 66, 0
10, 24780, Note_on_c, 10, 66, 52
10, 24807, Note_on_c, 10, 66, 0
10, 24825, Note_on_c, 10, 66, 52
10, 24834, Note_on_c, 10, 66, 0
10, 24840, Note_on_c, 10, 66, 52
10, 24867, Note_on_c, 10, 66, 0
10, 24885, Note_on_c, 10, 66, 52
10, 24894, Note_on_c, 10, 66, 0
10, 24900, Note_on_c, 10, 66, 52
10, 24927, Note_on_c, 10, 66, 0
10, 24945, Note_on_c, 10, 66, 52
10, 24954, Note_on_c, 10, 66, 0
10, 24960, Note_on_c, 10, 66, 52
10, 24987, Note_on_c, 10, 66, 0
10, 25005, Note_on_c, 10, 66, 68
10, 25014, Note_on_c, 10, 66, 0
10, 25020, Note_on_c, 10, 56, 68
10, 25020, Control_c, 10, 11, 67
10, 25020, Note_on_c, 10, 65, 68
10, 25023, Control_c, 10, 11, 70
10, 25026, Control_c, 10, 11, 73
10, 25029, Control_c, 10, 11, 76
10, 25035, Control_c, 10, 11, 73
10, 25039, Control_c, 10, 11, 70
10, 25042, Control_c, 10, 11, 67
10, 25045, Control_c, 10, 11, 64
10, 25047, Note_on_c, 10, 65, 0
10, 25047, Note_on_c, 10, 56, 0
10, 25049, Control_c, 10, 11, 61
10, 25052, Control_c, 10, 11, 58
10, 25056, Control_c, 10, 11, 55
10, 25059, Control_c, 10, 11, 52
10, 25062, Control_c, 10, 11, 49
10, 25065, Note_on_c, 10, 65, 52
10, 25065, Note_on_c, 10, 56, 52
10, 25074, Note_on_c, 10, 56, 0
10, 25074, Note_on_c, 10, 65, 0
10, 25080, Note_on_c, 10, 65, 52
10, 25080, Note_on_c, 10, 56, 52
10, 25107, Note_on_c, 10, 56, 0
10, 25107, Note_on_c, 10, 65, 0
10, 25125, Note_on_c, 10, 56, 52
10, 25125, Note_on_c, 10, 65, 52
10, 25134, Note_on_c, 10, 65, 0
10, 25134, Note_on_c, 10, 56, 0
10, 25140, Note_on_c, 10, 56, 52
10, 25140, Note_on_c, 10, 65, 52
10, 25167, Note_on_c, 10, 65, 0
10, 25167, Note_on_c, 10, 56, 0
10, 25185, Note_on_c, 10, 65, 52
10, 25185, Note_on_c, 10, 56, 52
10, 25194, Note_on_c, 10, 56, 0
10, 25194, Note_on_c, 10, 65, 0
10, 25200, Note_on_c, 10, 56, 52
10, 25200, Note_on_c, 10, 65, 52
10, 25227, Note_on_c, 10, 65, 0
10, 25227, Note_on_c, 10, 56, 0
10, 25245, Note_on_c, 10, 56, 52
10, 25245, Note_on_c, 10, 65, 52
10, 25254, Note_on_c, 10, 65, 0
10, 25254, Note_on_c, 10, 56, 0
10, 25260, Note_on_c, 10, 65, 52
10, 25260, Note_on_c, 10, 56, 52
10, 25287, Note_on_c, 10, 56, 0
10, 25287, Note_on_c, 10, 65, 0
10, 25305, Note_on_c, 10, 56, 52
10, 25305, Note_on_c, 10, 65, 52
10, 25314, Note_on_c, 10, 65, 0
10, 25314, Note_on_c, 10, 56, 0
10, 25320, Note_on_c, 10, 56, 52
10, 25320, Note_on_c, 10, 65, 52
10, 25347, Note_on_c, 10, 65, 0
10, 25347, Note_on_c, 10, 56, 0
10, 25365, Note_on_c, 10, 56, 68
10, 25365, Note_on_c, 10, 65, 68
10, 25374, Note_on_c, 10, 65, 0
10, 25374, Note_on_c, 10, 56, 0
10, 25380, Note_on_c, 10, 57, 68
10, 25380, Note_on_c, 10, 65, 68
10, 25380, Control_c, 10, 11, 67
10, 25383, Control_c, 10, 11, 70
10, 25386, Control_c, 10, 11, 73
10, 25389, Control_c, 10, 11, 76
10, 25395, Control_c, 10, 11, 73
10, 25399, Control_c, 10, 11, 70
10, 25402, Control_c, 10, 11, 67
10, 25405, Control_c, 10, 11, 64
10, 25407, Note_on_c, 10, 65, 0
10, 25407, Note_on_c, 10, 57, 0
10, 25409, Control_c, 10, 11, 61
10, 25412, Control_c, 10, 11, 58
10, 25416, Control_c, 10, 11, 55
10, 25419, Control_c, 10, 11, 52
10, 25422, Control_c, 10, 11, 49
10, 25425, Note_on_c, 10, 65, 52
10, 25425, Note_on_c, 10, 57, 52
10, 25434, Note_on_c, 10, 57, 0
10, 25434, Note_on_c, 10, 65, 0
10, 25440, Note_on_c, 10, 65, 52
10, 25440, Note_on_c, 10, 57, 52
10, 25467, Note_on_c, 10, 57, 0
10, 25467, Note_on_c, 10, 65, 0
10, 25485, Note_on_c, 10, 65, 52
10, 25485, Note_on_c, 10, 57, 52
10, 25494, Note_on_c, 10, 57, 0
10, 25494, Note_on_c, 10, 65, 0
10, 25500, Note_on_c, 10, 65, 52
10, 25500, Note_on_c, 10, 57, 52
10, 25527, Note_on_c, 10, 57, 0
10, 25527, Note_on_c, 10, 65, 0
10, 25545, Note_on_c, 10, 65, 52
10, 25545, Note_on_c, 10, 57, 52
10, 25554, Note_on_c, 10, 57, 0
10, 25554, Note_on_c, 10, 65, 0
10, 25560, Note_on_c, 10, 65, 52
10, 25560, Note_on_c, 10, 57, 52
10, 25587, Note_on_c, 10, 57, 0
10, 25587, Note_on_c, 10, 65, 0
10, 25605, Note_on_c, 10, 65, 52
10, 25605, Note_on_c, 10, 57, 52
10, 25614, Note_on_c, 10, 57, 0
10, 25614, Note_on_c, 10, 65, 0
10, 25620, Note_on_c, 10, 65, 52
10, 25620, Note_on_c, 10, 57, 52
10, 25647, Note_on_c, 10, 57, 0
10, 25647, Note_on_c, 10, 65, 0
10, 25665, Note_on_c, 10, 65, 52
10, 25665, Note_on_c, 10, 57, 52
10, 25674, Note_on_c, 10, 57, 0
10, 25674, Note_on_c, 10, 65, 0
10, 25680, Note_on_c, 10, 65, 52
10, 25680, Note_on_c, 10, 57, 52
10, 25707, Note_on_c, 10, 57, 0
10, 25707, Note_on_c, 10, 65, 0
10, 25725, Note_on_c, 10, 65, 68
10, 25725, Note_on_c, 10, 57, 68
10, 25734, Note_on_c, 10, 57, 0
10, 25734, Note_on_c, 10, 65, 0
10, 25740, Note_on_c, 10, 65, 68
10, 25740, Note_on_c, 10, 58, 68
10, 25740, Control_c, 10, 11, 67
10, 25743, Control_c, 10, 11, 70
10, 25746, Control_c, 10, 11, 73
10, 25749, Control_c, 10, 11, 76
10, 25755, Control_c, 10, 11, 73
10, 25759, Control_c, 10, 11, 70
10, 25762, Control_c, 10, 11, 67
10, 25765, Control_c, 10, 11, 64
10, 25767, Note_on_c, 10, 58, 0
10, 25767, Note_on_c, 10, 65, 0
10, 25769, Control_c, 10, 11, 61
10, 25772, Control_c, 10, 11, 58
10, 25776, Control_c, 10, 11, 55
10, 25779, Control_c, 10, 11, 52
10, 25782, Control_c, 10, 11, 49
10, 25785, Note_on_c, 10, 65, 68
10, 25785, Note_on_c, 10, 58, 68
10, 25794, Note_on_c, 10, 58, 0
10, 25794, Note_on_c, 10, 65, 0
10, 25800, Note_on_c, 10, 65, 68
10, 25800, Note_on_c, 10, 58, 68
10, 25827, Note_on_c, 10, 58, 0
10, 25827, Note_on_c, 10, 65, 0
10, 25845, Note_on_c, 10, 65, 68
10, 25845, Note_on_c, 10, 58, 68
10, 25854, Note_on_c, 10, 58, 0
10, 25854, Note_on_c, 10, 65, 0
10, 25860, Note_on_c, 10, 65, 68
10, 25860, Note_on_c, 10, 58, 68
10, 25887, Note_on_c, 10, 58, 0
10, 25887, Note_on_c, 10, 65, 0
10, 25905, Note_on_c, 10, 65, 68
10, 25905, Note_on_c, 10, 58, 68
10, 25914, Note_on_c, 10, 58, 0
10, 25914, Note_on_c, 10, 65, 0
10, 25920, Control_c, 10, 11, 67
10, 25920, Note_on_c, 10, 65, 68
10, 25923, Control_c, 10, 11, 70
10, 25926, Control_c, 10, 11, 73
10, 25929, Control_c, 10, 11, 76
10, 25935, Control_c, 10, 11, 73
10, 25939, Control_c, 10, 11, 70
10, 25942, Control_c, 10, 11, 67
10, 25945, Control_c, 10, 11, 64
10, 25947, Note_on_c, 10, 65, 0
10, 25949, Control_c, 10, 11, 61
10, 25952, Control_c, 10, 11, 58
10, 25956, Control_c, 10, 11, 55
10, 25959, Control_c, 10, 11, 52
10, 25962, Control_c, 10, 11, 49
10, 25965, Note_on_c, 10, 65, 68
10, 25974, Note_on_c, 10, 65, 0
10, 25980, Note_on_c, 10, 65, 68
10, 26007, Note_on_c, 10, 65, 0
10, 26025, Note_on_c, 10, 65, 68
10, 26034, Note_on_c, 10, 65, 0
10, 26040, Note_on_c, 10, 65, 68
10, 26067, Note_on_c, 10, 65, 0
10, 26085, Note_on_c, 10, 65, 68
10, 26094, Note_on_c, 10, 65, 0
10, 26100, Note_on_c, 10, 64, 68
10, 26160, Note_on_c, 10, 64, 0
10, 26400, Control_c, 10, 11, 72
10, 26400, Note_on_c, 10, 83, 108
10, 26412, Control_c, 10, 11, 75
10, 26424, Control_c, 10, 11, 78
10, 26436, Control_c, 10, 11, 81
10, 26448, Control_c, 10, 11, 84
10, 26460, Note_on_c, 10, 83, 0
10, 26460, Control_c, 10, 11, 87
10, 26460, Note_on_c, 10, 84, 108
10, 26490, Note_on_c, 10, 84, 0
10, 26520, Note_on_c, 10, 84, 108
10, 26550, Note_on_c, 10, 84, 0
10, 26760, Note_on_c, 10, 83, 108
10, 26760, Control_c, 10, 11, 72
10, 26772, Control_c, 10, 11, 75
10, 26784, Control_c, 10, 11, 78
10, 26796, Control_c, 10, 11, 81
10, 26808, Control_c, 10, 11, 84
10, 26820, Note_on_c, 10, 83, 0
10, 26820, Control_c, 10, 11, 87
10, 26820, Note_on_c, 10, 84, 108
10, 26850, Note_on_c, 10, 84, 0
10, 26880, Note_on_c, 10, 81, 108
10, 26880, Control_c, 10, 11, 37
10, 26898, Control_c, 10, 11, 40
10, 26916, Control_c, 10, 11, 43
10, 26934, Control_c, 10, 11, 46
10, 26940, Note_on_c, 10, 81, 0
10, 26940, Note_on_c, 10, 82, 108
10, 26978, Note_on_c, 10, 82, 0
10, 27120, Note_on_c, 10, 78, 108
10, 27120, Control_c, 10, 11, 37
10, 27138, Control_c, 10, 11, 40
10, 27156, Control_c, 10, 11, 43
10, 27174, Control_c, 10, 11, 46
10, 27180, Note_on_c, 10, 78, 0
10, 27180, Note_on_c, 10, 79, 108
10, 27210, Note_on_c, 10, 79, 0
10, 27360, Note_on_c, 10, 75, 108
10, 27360, Control_c, 10, 11, 37
10, 27378, Control_c, 10, 11, 40
10, 27396, Control_c, 10, 11, 43
10, 27414, Control_c, 10, 11, 46
10, 27420, Note_on_c, 10, 75, 0
10, 27420, Note_on_c, 10, 76, 108
10, 27458, Note_on_c, 10, 76, 0
10, 27600, Note_on_c, 10, 71, 108
10, 27660, Note_on_c, 10, 71, 0
10, 27660, Note_on_c, 10, 72, 108
10, 27697, Note_on_c, 10, 72, 0
10, 27720, Note_on_c, 10, 69, 108
10, 27780, Note_on_c, 10, 69, 0
10, 27780, Note_on_c, 10, 70, 108
10, 27823, Note_on_c, 10, 70, 0
10, 27840, Note_on_c, 10, 68, 108
10, 27900, Note_on_c, 10, 68, 0
10, 27900, Note_on_c, 10, 69, 108
10, 27930, Note_on_c, 10, 69, 0
10, 27960, Note_on_c, 10, 78, 108
10, 27960, Control_c, 10, 11, 47
10, 27990, Note_on_c, 10, 78, 0
10, 28020, Note_on_c, 10, 79, 108
10, 28020, Control_c, 10, 11, 55
10, 28050, Note_on_c, 10, 79, 0
10, 28080, Note_on_c, 10, 76, 108
10, 28080, Control_c, 10, 11, 63
10, 28110, Note_on_c, 10, 76, 0
10, 28140, Note_on_c, 10, 77, 108
10, 28140, Control_c, 10, 11, 70
10, 28170, Note_on_c, 10, 77, 0
10, 28200, Note_on_c, 10, 78, 108
10, 28200, Control_c, 10, 11, 79
10, 28230, Note_on_c, 10, 78, 0
10, 28260, Note_on_c, 10, 79, 108
10, 28260, Note_on_c, 10, 64, 108
10, 28260, Control_c, 10, 11, 87
10, 28260, Note_on_c, 10, 72, 108
10, 28380, Note_on_c, 10, 72, 0
10, 28380, Note_on_c, 10, 64, 0
10, 28440, Control_c, 10, 11, 87
10, 28444, Control_c, 10, 11, 84
10, 28448, Control_c, 10, 11, 81
10, 28453, Control_c, 10, 11, 78
10, 28457, Control_c, 10, 11, 75
10, 28462, Control_c, 10, 11, 72
10, 28466, Control_c, 10, 11, 69
10, 28471, Control_c, 10, 11, 66
10, 28472, Note_on_c, 10, 79, 0
10, 28475, Control_c, 10, 11, 63
10, 28485, Note_on_c, 10, 78, 108
10, 28485, Control_c, 10, 11, 47
10, 28493, Note_on_c, 10, 78, 0
10, 28500, Note_on_c, 10, 79, 108
10, 28523, Note_on_c, 10, 79, 0
10, 28545, Note_on_c, 10, 78, 108
10, 28553, Note_on_c, 10, 78, 0
10, 28560, Note_on_c, 10, 79, 108
10, 28583, Note_on_c, 10, 79, 0
10, 28605, Note_on_c, 10, 81, 108
10, 28605, Control_c, 10, 11, 47
10, 28606, Control_c, 10, 11, 50
10, 28607, Control_c, 10, 11, 53
10, 28609, Control_c, 10, 11, 58
10, 28610, Control_c, 10, 11, 61
10, 28612, Control_c, 10, 11, 66
10, 28613, Note_on_c, 10, 81, 0
10, 28613, Control_c, 10, 11, 69
10, 28615, Control_c, 10, 11, 74
10, 28616, Control_c, 10, 11, 77
10, 28618, Control_c, 10, 11, 82
10, 28619, Control_c, 10, 11, 85
10, 28620, Note_on_c, 10, 64, 108
10, 28620, Note_on_c, 10, 82, 108
10, 28620, Note_on_c, 10, 72, 108
10, 28740, Note_on_c, 10, 72, 0
10, 28740, Note_on_c, 10, 64, 0
10, 28800, Control_c, 10, 11, 87
10, 28804, Control_c, 10, 11, 84
10, 28808, Control_c, 10, 11, 81
10, 28813, Control_c, 10, 11, 78
10, 28817, Control_c, 10, 11, 75
10, 28822, Control_c, 10, 11, 72
10, 28826, Control_c, 10, 11, 69
10, 28831, Control_c, 10, 11, 66
10, 28832, Note_on_c, 10, 82, 0
10, 28835, Control_c, 10, 11, 63
10, 28845, Note_on_c, 10, 81, 108
10, 28845, Control_c, 10, 11, 47
10, 28853, Note_on_c, 10, 81, 0
10, 28860, Note_on_c, 10, 79, 108
10, 28883, Note_on_c, 10, 79, 0
10, 28905, Note_on_c, 10, 77, 108
10, 28913, Note_on_c, 10, 77, 0
10, 28920, Note_on_c, 10, 76, 108
10, 28943, Note_on_c, 10, 76, 0
10, 28965, Control_c, 10, 11, 45
10, 28965, Note_on_c, 10, 74, 108
10, 28973, Note_on_c, 10, 74, 0
10, 28980, Control_c, 10, 11, 42
10, 28980, Note_on_c, 10, 72, 108
10, 28997, Control_c, 10, 11, 41
10, 29014, Control_c, 10, 11, 40
10, 29031, Control_c, 10, 11, 39
10, 29048, Control_c, 10, 11, 38
10, 29065, Control_c, 10, 11, 37
10, 29082, Control_c, 10, 11, 36
10, 29099, Control_c, 10, 11, 35
10, 29200, Note_on_c, 10, 72, 0
10, 29205, Control_c, 10, 11, 35
10, 29205, Note_on_c, 10, 71, 108
10, 29220, Note_on_c, 10, 71, 0
10, 29220, Note_on_c, 10, 72, 108
10, 29226, Control_c, 10, 11, 37
10, 29247, Control_c, 10, 11, 39
10, 29265, Note_on_c, 10, 72, 0
10, 29265, Note_on_c, 10, 71, 108
10, 29269, Control_c, 10, 11, 41
10, 29280, Note_on_c, 10, 71, 0
10, 29280, Note_on_c, 10, 72, 108
10, 29325, Note_on_c, 10, 72, 0
10, 29325, Control_c, 10, 11, 42
10, 29325, Note_on_c, 10, 71, 108
10, 29334, Control_c, 10, 11, 45
10, 29335, Note_on_c, 10, 71, 0
10, 29340, Note_on_c, 10, 72, 108
10, 29358, Control_c, 10, 11, 44
10, 29376, Control_c, 10, 11, 41
10, 29394, Control_c, 10, 11, 38
10, 29412, Control_c, 10, 11, 39
10, 29430, Control_c, 10, 11, 42
10, 29448, Control_c, 10, 11, 45
10, 29460, Note_on_c, 10, 72, 0
10, 29460, Note_on_c, 10, 73, 108
10, 29515, Note_on_c, 10, 73, 0
10, 29520, Note_on_c, 10, 76, 127
10, 29520, Control_c, 10, 11, 47
10, 29538, Control_c, 10, 11, 46
10, 29550, Note_on_c, 10, 76, 0
10, 29550, Note_on_c, 10, 74, 113
10, 29556, Control_c, 10, 11, 45
10, 29574, Control_c, 10, 11, 44
10, 29575, Note_on_c, 10, 74, 0
10, 29580, Note_on_c, 10, 72, 108
10, 29592, Control_c, 10, 11, 43
10, 29610, Note_on_c, 10, 72, 0
10, 29610, Note_on_c, 10, 70, 103
10, 29610, Control_c, 10, 11, 42
10, 29628, Control_c, 10, 11, 41
10, 29635, Note_on_c, 10, 70, 0
10, 29640, Note_on_c, 10, 69, 98
10, 29646, Control_c, 10, 11, 40
10, 29664, Control_c, 10, 11, 39
10, 29670, Note_on_c, 10, 69, 0
10, 29670, Note_on_c, 10, 67, 93
10, 29682, Control_c, 10, 11, 38
10, 29695, Note_on_c, 10, 67, 0
10, 29700, Note_on_c, 10, 65, 88
10, 29700, Control_c, 10, 11, 37
10, 29760, Note_on_c, 10, 65, 0
10, 30810, Note_on_c, 10, 76, 108
10, 30810, Control_c, 10, 11, 32
10, 30825, Note_on_c, 10, 76, 0
10, 30825, Note_on_c, 10, 77, 108
10, 30835, Note_on_c, 10, 77, 0
10, 30840, Note_on_c, 10, 79, 108
10, 30855, Note_on_c, 10, 79, 0
10, 30870, Note_on_c, 10, 77, 108
10, 30885, Note_on_c, 10, 77, 0
10, 30900, Note_on_c, 10, 76, 108
10, 30915, Note_on_c, 10, 76, 0
10, 30930, Note_on_c, 10, 74, 108
10, 30945, Note_on_c, 10, 74, 0
10, 30960, Note_on_c, 10, 72, 108
10, 30975, Note_on_c, 10, 72, 0
10, 30990, Note_on_c, 10, 71, 108
10, 31005, Note_on_c, 10, 71, 0
10, 31020, Note_on_c, 10, 69, 108
10, 31035, Note_on_c, 10, 69, 0
10, 31050, Note_on_c, 10, 67, 108
10, 31065, Note_on_c, 10, 67, 0
10, 31080, Note_on_c, 10, 65, 108
10, 31095, Note_on_c, 10, 65, 0
10, 31110, Note_on_c, 10, 64, 108
10, 31125, Note_on_c, 10, 64, 0
10, 31140, Note_on_c, 10, 62, 108
10, 31155, Note_on_c, 10, 62, 0
10, 31170, Note_on_c, 10, 71, 108
10, 31185, Note_on_c, 10, 71, 0
10, 31200, Note_on_c, 10, 71, 108
10, 31215, Note_on_c, 10, 71, 0
10, 31230, Note_on_c, 10, 72, 108
10, 31245, Note_on_c, 10, 72, 0
10, 31260, Note_on_c, 10, 74, 108
10, 31275, Note_on_c, 10, 74, 0
10, 31290, Note_on_c, 10, 76, 108
10, 31305, Note_on_c, 10, 76, 0
10, 31320, Note_on_c, 10, 77, 108
10, 31335, Note_on_c, 10, 77, 0
10, 31350, Note_on_c, 10, 76, 108
10, 31365, Note_on_c, 10, 76, 0
10, 31380, Note_on_c, 10, 77, 108
10, 31395, Note_on_c, 10, 77, 0
10, 31410, Note_on_c, 10, 76, 108
10, 31425, Note_on_c, 10, 76, 0
10, 31440, Note_on_c, 10, 77, 108
10, 31455, Note_on_c, 10, 77, 0
10, 31470, Note_on_c, 10, 79, 108
10, 31485, Note_on_c, 10, 79, 0
10, 31500, Note_on_c, 10, 76, 108
10, 31515, Note_on_c, 10, 76, 0
10, 31530, Note_on_c, 10, 76, 108
10, 31545, Note_on_c, 10, 76, 0
10, 31545, Note_on_c, 10, 77, 108
10, 31555, Note_on_c, 10, 77, 0
10, 31560, Note_on_c, 10, 79, 108
10, 31575, Note_on_c, 10, 79, 0
10, 31590, Note_on_c, 10, 76, 108
10, 31605, Note_on_c, 10, 76, 0
10, 31620, Note_on_c, 10, 72, 108
10, 31680, Note_on_c, 10, 72, 0
10, 31710, Note_on_c, 10, 79, 108
10, 31725, Note_on_c, 10, 79, 0
10, 31725, Note_on_c, 10, 81, 108
10, 31735, Note_on_c, 10, 81, 0
10, 31740, Note_on_c, 10, 82, 108
10, 31755, Note_on_c, 10, 82, 0
10, 31770, Note_on_c, 10, 79, 108
10, 31785, Note_on_c, 10, 79, 0
10, 31800, Note_on_c, 10, 76, 108
10, 31860, Note_on_c, 10, 76, 0
10, 31860, Note_on_c, 10, 65, 108
10, 31912, Note_on_c, 10, 65, 0
10, 31920, Note_on_c, 10, 77, 93
10, 31965, Note_on_c, 10, 77, 0
10, 32100, Note_on_c, 10, 81, 80
10, 32145, Note_on_c, 10, 81, 0
10, 32280, Note_on_c, 10, 82, 80
10, 32325, Note_on_c, 10, 82, 0
10, 32460, Note_on_c, 10, 76, 80
10, 32460, Note_on_c, 10, 67, 80
10, 32505, Note_on_c, 10, 67, 0
10, 32505, Note_on_c, 10, 76, 0
10, 32580, Control_c, 10, 11, 37
10, 32604, Control_c, 10, 11, 38
10, 32610, Note_on_c, 10, 84, 81
10, 32628, Control_c, 10, 11, 39
10, 32630, Note_on_c, 10, 84, 0
10, 32640, Note_on_c, 10, 84, 86
10, 32652, Control_c, 10, 11, 40
10, 32660, Note_on_c, 10, 84, 0
10, 32670, Note_on_c, 10, 84, 92
10, 32676, Control_c, 10, 11, 41
10, 32690, Note_on_c, 10, 84, 0
10, 32700, Control_c, 10, 11, 42
10, 32700, Note_on_c, 10, 84, 98
10, 32720, Note_on_c, 10, 84, 0
10, 32724, Control_c, 10, 11, 43
10, 32730, Note_on_c, 10, 84, 105
10, 32748, Control_c, 10, 11, 44
10, 32750, Note_on_c, 10, 84, 0
10, 32760, Note_on_c, 10, 84, 111
10, 32772, Control_c, 10, 11, 45
10, 32780, Note_on_c, 10, 84, 0
10, 32790, Note_on_c, 10, 84, 116
10, 32796, Control_c, 10, 11, 46
10, 32810, Note_on_c, 10, 84, 0
10, 32820, Note_on_c, 10, 84, 119
10, 32820, Control_c, 10, 11, 47
10, 32840, Note_on_c, 10, 84, 0
10, 32844, Control_c, 10, 11, 48
10, 32850, Note_on_c, 10, 84, 124
10, 32868, Control_c, 10, 11, 49
10, 32870, Note_on_c, 10, 84, 0
10, 32880, Note_on_c, 10, 84, 127
10, 32892, Control_c, 10, 11, 50
10, 32900, Note_on_c, 10, 84, 0
10, 32910, Note_on_c, 10, 84, 127
10, 32916, Control_c, 10, 11, 51
10, 32930, Note_on_c, 10, 84, 0
10, 32940, Control_c, 10, 11, 52
10, 32940, Note_on_c, 10, 84, 93
10, 33000, Note_on_c, 10, 84, 0
10, 33060, Note_on_c, 10, 79, 108
10, 33115, Note_on_c, 10, 79, 0
10, 33120, Note_on_c, 10, 81, 108
10, 33120, Control_c, 10, 11, 72
10, 33129, Control_c, 10, 11, 69
10, 33138, Control_c, 10, 11, 66
10, 33147, Control_c, 10, 11, 63
10, 33156, Control_c, 10, 11, 60
10, 33165, Control_c, 10, 11, 57
10, 33174, Control_c, 10, 11, 54
10, 33225, Note_on_c, 10, 81, 0
10, 33225, Note_on_c, 10, 77, 108
10, 33235, Note_on_c, 10, 77, 0
10, 33240, Note_on_c, 10, 84, 108
10, 33285, Note_on_c, 10, 84, 0
10, 33285, Note_on_c, 10, 81, 108
10, 33295, Note_on_c, 10, 81, 0
10, 33300, Note_on_c, 10, 79, 108
10, 33360, Note_on_c, 10, 79, 0
10, 33420, Note_on_c, 10, 79, 108
10, 33475, Note_on_c, 10, 79, 0
10, 33480, Note_on_c, 10, 81, 108
10, 33480, Control_c, 10, 11, 72
10, 33489, Control_c, 10, 11, 69
10, 33498, Control_c, 10, 11, 66
10, 33507, Control_c, 10, 11, 63
10, 33516, Control_c, 10, 11, 60
10, 33525, Control_c, 10, 11, 57
10, 33534, Control_c, 10, 11, 54
10, 33585, Note_on_c, 10, 81, 0
10, 33585, Note_on_c, 10, 77, 108
10, 33595, Note_on_c, 10, 77, 0
10, 33600, Note_on_c, 10, 84, 108
10, 33645, Note_on_c, 10, 84, 0
10, 33645, Note_on_c, 10, 81, 108
10, 33655, Note_on_c, 10, 81, 0
10, 33660, Note_on_c, 10, 79, 108
10, 33690, Note_on_c, 10, 79, 0
10, 33720, Note_on_c, 10, 84, 108
10, 33720, Control_c, 10, 11, 82
10, 33729, Control_c, 10, 11, 79
10, 33738, Control_c, 10, 11, 76
10, 33747, Control_c, 10, 11, 73
10, 33756, Control_c, 10, 11, 70
10, 33765, Control_c, 10, 11, 67
10, 33774, Control_c, 10, 11, 64
10, 33810, Note_on_c, 10, 84, 0
10, 33810, Note_on_c, 10, 81, 108
10, 33835, Note_on_c, 10, 81, 0
10, 33840, Note_on_c, 10, 79, 108
10, 33870, Note_on_c, 10, 79, 0
10, 33900, Note_on_c, 10, 74, 108
10, 33900, Control_c, 10, 11, 87
10, 33918, Control_c, 10, 11, 84
10, 33930, Note_on_c, 10, 74, 0
10, 33930, Note_on_c, 10, 72, 108
10, 33936, Control_c, 10, 11, 81
10, 33954, Control_c, 10, 11, 78
10, 33960, Note_on_c, 10, 72, 0
10, 33960, Note_on_c, 10, 70, 108
10, 33990, Note_on_c, 10, 70, 0
10, 33990, Control_c, 10, 11, 77
10, 33990, Note_on_c, 10, 69, 108
10, 33999, Control_c, 10, 11, 80
10, 34008, Control_c, 10, 11, 83
10, 34015, Note_on_c, 10, 69, 0
10, 34017, Control_c, 10, 11, 86
10, 34020, Note_on_c, 10, 67, 108
10, 34050, Note_on_c, 10, 67, 0
10, 34080, Note_on_c, 10, 67, 98
10, 34110, Note_on_c, 10, 67, 0
10, 34140, Note_on_c, 10, 67, 95
10, 34170, Note_on_c, 10, 67, 0
10, 34200, Note_on_c, 10, 67, 83
10, 34230, Control_c, 10, 11, 87
10, 34234, Control_c, 10, 11, 84
10, 34238, Control_c, 10, 11, 81
10, 34243, Control_c, 10, 11, 78
10, 34247, Control_c, 10, 11, 75
10, 34251, Control_c, 10, 11, 72
10, 34256, Control_c, 10, 11, 69
10, 34260, Note_on_c, 10, 67, 0
10, 34320, Note_on_c, 10, 72, 108
10, 34320, Control_c, 10, 11, 32
10, 34332, Control_c, 10, 11, 35
10, 34344, Control_c, 10, 11, 38
10, 34356, Control_c, 10, 11, 41
10, 34368, Control_c, 10, 11, 44
10, 34380, Note_on_c, 10, 72, 0
10, 34380, Control_c, 10, 11, 47
10, 34380, Note_on_c, 10, 81, 108
10, 34410, Note_on_c, 10, 81, 0
10, 34500, Control_c, 10, 11, 37
10, 34500, Note_on_c, 10, 81, 108
10, 34518, Control_c, 10, 11, 40
10, 34536, Control_c, 10, 11, 43
10, 34554, Control_c, 10, 11, 46
10, 34560, Note_on_c, 10, 81, 0
10, 34560, Note_on_c, 10, 82, 108
10, 34590, Note_on_c, 10, 82, 0
10, 34680, Note_on_c, 10, 74, 108
10, 34680, Control_c, 10, 11, 37
10, 34698, Control_c, 10, 11, 40
10, 34716, Control_c, 10, 11, 43
10, 34725, Note_on_c, 10, 74, 0
10, 34725, Note_on_c, 10, 70, 108
10, 34734, Control_c, 10, 11, 46
10, 34737, Note_on_c, 10, 70, 0
10, 34740, Note_on_c, 10, 67, 108
10, 34770, Note_on_c, 10, 67, 0
10, 34860, Note_on_c, 10, 79, 108
10, 34860, Control_c, 10, 11, 37
10, 34878, Control_c, 10, 11, 40
10, 34896, Control_c, 10, 11, 43
10, 34914, Control_c, 10, 11, 46
10, 34920, Note_on_c, 10, 79, 0
10, 34920, Note_on_c, 10, 81, 108
10, 34950, Note_on_c, 10, 81, 0
10, 35040, Note_on_c, 10, 72, 108
10, 35040, Control_c, 10, 11, 37
10, 35058, Control_c, 10, 11, 40
10, 35076, Control_c, 10, 11, 43
10, 35085, Note_on_c, 10, 72, 0
10, 35085, Note_on_c, 10, 69, 108
10, 35094, Control_c, 10, 11, 46
10, 35097, Note_on_c, 10, 69, 0
10, 35100, Note_on_c, 10, 65, 108
10, 35130, Note_on_c, 10, 65, 0
10, 35160, Note_on_c, 10, 77, 93
10, 35160, Control_c, 10, 11, 42
10, 35176, Control_c, 10, 11, 43
10, 35192, Control_c, 10, 11, 44
10, 35205, Note_on_c, 10, 77, 0
10, 35208, Control_c, 10, 11, 45
10, 35220, Note_on_c, 10, 77, 108
10, 35224, Control_c, 10, 11, 46
10, 35240, Control_c, 10, 11, 47
10, 35256, Control_c, 10, 11, 48
10, 35265, Note_on_c, 10, 77, 0
10, 35272, Control_c, 10, 11, 49
10, 35280, Note_on_c, 10, 77, 108
10, 35288, Control_c, 10, 11, 50
10, 35304, Control_c, 10, 11, 51
10, 35320, Control_c, 10, 11, 52
10, 35336, Control_c, 10, 11, 53
10, 35340, Note_on_c, 10, 77, 0
10, 35340, Note_on_c, 10, 76, 108
10, 35352, Control_c, 10, 11, 54
10, 35368, Control_c, 10, 11, 55
10, 35384, Control_c, 10, 11, 56
10, 35400, Note_on_c, 10, 76, 0
10, 35400, Note_on_c, 10, 77, 108
10, 35400, Control_c, 10, 11, 57
10, 35412, Control_c, 10, 11, 54
10, 35424, Control_c, 10, 11, 51
10, 35436, Control_c, 10, 11, 48
10, 35448, Control_c, 10, 11, 45
10, 35457, Note_on_c, 10, 77, 0
10, 35460, Note_on_c, 10, 79, 108
10, 35460, Control_c, 10, 11, 42
10, 35520, Note_on_c, 10, 79, 0
10, 35520, Note_on_c, 10, 82, 108
10, 35595, Note_on_c, 10, 82, 0
10, 35595, Note_on_c, 10, 81, 108
10, 35610, Note_on_c, 10, 81, 0
10, 35610, Note_on_c, 10, 79, 108
10, 35625, Note_on_c, 10, 79, 0
10, 35625, Note_on_c, 10, 81, 108
10, 35637, Note_on_c, 10, 81, 0
10, 35640, Note_on_c, 10, 79, 108
10, 35700, Note_on_c, 10, 79, 0
10, 35820, Control_c, 10, 11, 42
10, 35820, Note_on_c, 10, 84, 108
10, 35835, Note_on_c, 10, 84, 0
10, 35850, Note_on_c, 10, 81, 108
10, 35865, Note_on_c, 10, 81, 0
10, 35880, Note_on_c, 10, 78, 108
10, 35895, Note_on_c, 10, 78, 0
10, 35910, Note_on_c, 10, 74, 108
10, 35925, Note_on_c, 10, 74, 0
10, 35940, Note_on_c, 10, 72, 108
10, 35955, Note_on_c, 10, 72, 0
10, 35970, Note_on_c, 10, 69, 108
10, 35985, Note_on_c, 10, 69, 0
10, 36000, Note_on_c, 10, 70, 108
10, 36015, Note_on_c, 10, 70, 0
10, 36030, Note_on_c, 10, 67, 108
10, 36045, Note_on_c, 10, 67, 0
10, 36060, Note_on_c, 10, 74, 108
10, 36060, Control_c, 10, 11, 37
10, 36072, Control_c, 10, 11, 40
10, 36084, Control_c, 10, 11, 43
10, 36090, Note_on_c, 10, 74, 0
10, 36090, Note_on_c, 10, 73, 108
10, 36096, Control_c, 10, 11, 46
10, 36108, Control_c, 10, 11, 49
10, 36120, Note_on_c, 10, 73, 0
10, 36120, Control_c, 10, 11, 52
10, 36120, Note_on_c, 10, 74, 108
10, 36150, Note_on_c, 10, 74, 0
10, 36150, Note_on_c, 10, 70, 108
10, 36177, Note_on_c, 10, 70, 0
10, 36180, Note_on_c, 10, 82, 108
10, 36180, Control_c, 10, 11, 42
10, 36195, Note_on_c, 10, 82, 0
10, 36210, Note_on_c, 10, 79, 108
10, 36225, Note_on_c, 10, 79, 0
10, 36240, Note_on_c, 10, 76, 108
10, 36255, Note_on_c, 10, 76, 0
10, 36270, Note_on_c, 10, 72, 108
10, 36285, Note_on_c, 10, 72, 0
10, 36300, Note_on_c, 10, 70, 108
10, 36315, Note_on_c, 10, 70, 0
10, 36330, Note_on_c, 10, 67, 108
10, 36345, Note_on_c, 10, 67, 0
10, 36360, Note_on_c, 10, 69, 108
10, 36375, Note_on_c, 10, 69, 0
10, 36390, Note_on_c, 10, 65, 108
10, 36405, Note_on_c, 10, 65, 0
10, 36420, Control_c, 10, 11, 42
10, 36420, Note_on_c, 10, 72, 108
10, 36432, Control_c, 10, 11, 45
10, 36444, Control_c, 10, 11, 48
10, 36450, Note_on_c, 10, 72, 0
10, 36450, Note_on_c, 10, 71, 108
10, 36456, Control_c, 10, 11, 51
10, 36468, Control_c, 10, 11, 54
10, 36480, Note_on_c, 10, 71, 0
10, 36480, Control_c, 10, 11, 57
10, 36480, Note_on_c, 10, 72, 108
10, 36498, Control_c, 10, 11, 54
10, 36510, Note_on_c, 10, 72, 0
10, 36510, Note_on_c, 10, 69, 108
10, 36516, Control_c, 10, 11, 51
10, 36534, Control_c, 10, 11, 48
10, 36537, Note_on_c, 10, 69, 0
10, 36540, Note_on_c, 10, 65, 108
10, 36552, Control_c, 10, 11, 48
10, 36576, Control_c, 10, 11, 50
10, 36597, Note_on_c, 10, 65, 0
10, 36600, Note_on_c, 10, 77, 98
10, 36600, Control_c, 10, 11, 52
10, 36624, Control_c, 10, 11, 54
10, 36648, Control_c, 10, 11, 56
10, 36660, Note_on_c, 10, 77, 0
10, 36660, Note_on_c, 10, 78, 108
10, 36672, Control_c, 10, 11, 58
10, 36696, Control_c, 10, 11, 60
10, 36717, Note_on_c, 10, 78, 0
10, 36720, Note_on_c, 10, 79, 108
10, 36720, Control_c, 10, 11, 62
10, 36735, Control_c, 10, 11, 63
10, 36750, Note_on_c, 10, 79, 0
10, 36750, Note_on_c, 10, 81, 108
10, 36750, Control_c, 10, 11, 64
10, 36765, Control_c, 10, 11, 65
10, 36780, Note_on_c, 10, 81, 0
10, 36780, Note_on_c, 10, 82, 108
10, 36780, Control_c, 10, 11, 66
10, 36795, Control_c, 10, 11, 67
10, 36810, Note_on_c, 10, 82, 0
10, 36810, Note_on_c, 10, 84, 108
10, 36810, Control_c, 10, 11, 68
10, 36825, Control_c, 10, 11, 69
10, 36840, Note_on_c, 10, 84, 0
10, 36840, Note_on_c, 10, 85, 108
10, 36840, Control_c, 10, 11, 70
10, 36855, Control_c, 10, 11, 71
10, 36870, Note_on_c, 10, 85, 0
10, 36870, Control_c, 10, 11, 72
10, 36870, Note_on_c, 10, 86, 108
10, 36882, Control_c, 10, 11, 69
10, 36885, Control_c, 10, 11, 65
10, 36888, Control_c, 10, 11, 62
10, 36890, Control_c, 10, 11, 59
10, 36893, Control_c, 10, 11, 55
10, 36896, Control_c, 10, 11, 52
10, 36897, Note_on_c, 10, 86, 0
10, 36898, Control_c, 10, 11, 49
10, 36900, Note_on_c, 10, 77, 108
10, 36900, Control_c, 10, 11, 37
10, 36918, Control_c, 10, 11, 40
10, 36936, Control_c, 10, 11, 43
10, 36954, Control_c, 10, 11, 46
10, 36990, Note_on_c, 10, 77, 0
10, 36990, Note_on_c, 10, 79, 108
10, 36997, Note_on_c, 10, 77, 108
10, 36998, Note_on_c, 10, 79, 0
10, 37005, Note_on_c, 10, 77, 0
10, 37005, Note_on_c, 10, 76, 108
10, 37012, Note_on_c, 10, 77, 108
10, 37013, Note_on_c, 10, 76, 0
10, 37020, Note_on_c, 10, 77, 0
10, 37020, Note_on_c, 10, 79, 108
10, 37065, Note_on_c, 10, 79, 0
10, 37065, Note_on_c, 10, 76, 108
10, 37072, Note_on_c, 10, 76, 0
10, 37080, Note_on_c, 10, 77, 108
10, 37103, Note_on_c, 10, 77, 0
10, 37125, Note_on_c, 10, 84, 108
10, 37136, Note_on_c, 10, 84, 0
10, 37140, Note_on_c, 10, 84, 108
10, 37285, Note_on_c, 10, 84, 0
10, 37305, Note_on_c, 10, 81, 108
10, 37316, Note_on_c, 10, 81, 0
10, 37320, Note_on_c, 10, 81, 108
10, 37465, Note_on_c, 10, 81, 0
10, 37485, Note_on_c, 10, 77, 108
10, 37496, Note_on_c, 10, 77, 0
10, 37500, Note_on_c, 10, 77, 108
10, 37590, Note_on_c, 10, 77, 0
10, 37590, Note_on_c, 10, 78, 108
10, 37617, Note_on_c, 10, 78, 0
10, 37620, Note_on_c, 10, 79, 108
10, 37640, Note_on_c, 10, 79, 0
10, 37640, Note_on_c, 10, 82, 108
10, 37657, Note_on_c, 10, 82, 0
10, 37660, Note_on_c, 10, 86, 108
10, 37670, Note_on_c, 10, 86, 0
10, 37680, Note_on_c, 10, 77, 108
10, 37710, Note_on_c, 10, 77, 0
10, 37740, Note_on_c, 10, 76, 108
10, 37746, Note_on_c, 10, 76, 0
10, 37746, Note_on_c, 10, 77, 108
10, 37752, Note_on_c, 10, 77, 0
10, 37752, Note_on_c, 10, 76, 108
10, 37758, Note_on_c, 10, 76, 0
10, 37758, Note_on_c, 10, 77, 108
10, 37764, Note_on_c, 10, 77, 0
10, 37764, Note_on_c, 10, 76, 108
10, 37770, Note_on_c, 10, 76, 0
10, 37770, Note_on_c, 10, 77, 108
10, 37776, Note_on_c, 10, 77, 0
10, 37776, Note_on_c, 10, 76, 108
10, 37782, Note_on_c, 10, 76, 0
10, 37782, Note_on_c, 10, 77, 108
10, 37788, Note_on_c, 10, 77, 0
10, 37788, Note_on_c, 10, 76, 108
10, 37794, Note_on_c, 10, 76, 0
10, 37800, Note_on_c, 10, 77, 108
10, 37860, Note_on_c, 10, 77, 0
10, 37905, Note_on_c, 10, 79, 108
10, 37905, Control_c, 10, 11, 87
10, 37913, Note_on_c, 10, 79, 0
10, 37920, Note_on_c, 10, 81, 108
10, 37943, Note_on_c, 10, 81, 0
10, 37965, Note_on_c, 10, 82, 108
10, 37973, Note_on_c, 10, 82, 0
10, 37980, Note_on_c, 10, 81, 108
10, 38010, Note_on_c, 10, 81, 0
10, 38085, Note_on_c, 10, 76, 108
10, 38093, Note_on_c, 10, 76, 0
10, 38100, Note_on_c, 10, 77, 108
10, 38123, Note_on_c, 10, 77, 0
10, 38145, Note_on_c, 10, 79, 108
10, 38153, Note_on_c, 10, 79, 0
10, 38160, Note_on_c, 10, 77, 108
10, 38190, Note_on_c, 10, 77, 0
10, 38265, Note_on_c, 10, 76, 108
10, 38265, Note_on_c, 10, 69, 108
10, 38273, Note_on_c, 10, 69, 0
10, 38273, Note_on_c, 10, 76, 0
10, 38280, Note_on_c, 10, 77, 108
10, 38280, Note_on_c, 10, 69, 108
10, 38303, Note_on_c, 10, 69, 0
10, 38303, Note_on_c, 10, 77, 0
10, 38325, Note_on_c, 10, 79, 108
10, 38325, Note_on_c, 10, 69, 108
10, 38333, Note_on_c, 10, 69, 0
10, 38333, Note_on_c, 10, 79, 0
10, 38340, Note_on_c, 10, 77, 108
10, 38340, Note_on_c, 10, 69, 108
10, 38370, Note_on_c, 10, 69, 0
10, 38370, Note_on_c, 10, 77, 0
10, 38400, Note_on_c, 10, 81, 108
10, 38400, Control_c, 10, 11, 102
10, 38411, Control_c, 10, 11, 99
10, 38423, Control_c, 10, 11, 96
10, 38435, Control_c, 10, 11, 93
10, 38447, Control_c, 10, 11, 90
10, 38459, Control_c, 10, 11, 87
10, 38520, Note_on_c, 10, 81, 0
10, 38520, Note_on_c, 10, 82, 108
10, 38550, Note_on_c, 10, 82, 0
10, 38580, Control_c, 10, 11, 102
10, 38580, Note_on_c, 10, 83, 108
10, 38591, Control_c, 10, 11, 99
10, 38603, Control_c, 10, 11, 96
10, 38615, Control_c, 10, 11, 93
10, 38627, Control_c, 10, 11, 90
10, 38639, Control_c, 10, 11, 87
10, 38700, Note_on_c, 10, 83, 0
10, 38700, Note_on_c, 10, 84, 108
10, 38730, Note_on_c, 10, 84, 0
10, 38760, Note_on_c, 10, 85, 108
10, 38760, Control_c, 10, 11, 102
10, 38771, Control_c, 10, 11, 99
10, 38783, Control_c, 10, 11, 96
10, 38795, Control_c, 10, 11, 93
10, 38807, Control_c, 10, 11, 90
10, 38819, Control_c, 10, 11, 87
10, 38880, Note_on_c, 10, 85, 0
10, 38880, Note_on_c, 10, 86, 108
10, 38880, Control_c, 10, 11, 87
10, 38891, Control_c, 10, 11, 84
10, 38900, Note_on_c, 10, 86, 0
10, 38900, Note_on_c, 10, 82, 108
10, 38903, Control_c, 10, 11, 81
10, 38915, Control_c, 10, 11, 78
10, 38917, Note_on_c, 10, 82, 0
10, 38920, Note_on_c, 10, 79, 108
10, 38927, Control_c, 10, 11, 75
10, 38930, Note_on_c, 10, 79, 0
10, 38939, Control_c, 10, 11, 72
10, 38940, Note_on_c, 10, 77, 108
10, 38970, Note_on_c, 10, 77, 0
10, 39000, Control_c, 10, 11, 67
10, 39000, Note_on_c, 10, 76, 108
10, 39006, Note_on_c, 10, 76, 0
10, 39006, Note_on_c, 10, 77, 108
10, 39008, Control_c, 10, 11, 64
10, 39012, Note_on_c, 10, 77, 0
10, 39012, Note_on_c, 10, 76, 108
10, 39017, Control_c, 10, 11, 61
10, 39018, Note_on_c, 10, 76, 0
10, 39018, Note_on_c, 10, 77, 108
10, 39024, Note_on_c, 10, 77, 0
10, 39024, Note_on_c, 10, 76, 108
10, 39026, Control_c, 10, 11, 58
10, 39030, Note_on_c, 10, 76, 0
10, 39030, Note_on_c, 10, 77, 108
10, 39035, Control_c, 10, 11, 55
10, 39036, Note_on_c, 10, 77, 0
10, 39036, Note_on_c, 10, 76, 108
10, 39042, Note_on_c, 10, 76, 0
10, 39042, Note_on_c, 10, 77, 108
10, 39044, Control_c, 10, 11, 52
10, 39048, Note_on_c, 10, 77, 0
10, 39048, Note_on_c, 10, 76, 108
10, 39053, Control_c, 10, 11, 49
10, 39054, Note_on_c, 10, 76, 0
10, 39060, Note_on_c, 10, 77, 108
10, 39090, Control_c, 10, 11, 47
10, 39095, Control_c, 10, 11, 44
10, 39101, Control_c, 10, 11, 41
10, 39107, Control_c, 10, 11, 38
10, 39113, Control_c, 10, 11, 35
10, 39119, Control_c, 10, 11, 32
10, 39120, Note_on_c, 10, 77, 0
10, 39240, Note_on_c, 10, 82, 88
10, 39240, Control_c, 10, 11, 42
10, 39250, Note_on_c, 10, 82, 0
10, 39260, Note_on_c, 10, 81, 94
10, 39270, Note_on_c, 10, 81, 0
10, 39280, Note_on_c, 10, 84, 101
10, 39290, Note_on_c, 10, 84, 0
10, 39300, Note_on_c, 10, 82, 108
10, 39310, Note_on_c, 10, 82, 0
10, 39320, Note_on_c, 10, 81, 108
10, 39330, Note_on_c, 10, 81, 0
10, 39340, Note_on_c, 10, 79, 108
10, 39350, Note_on_c, 10, 79, 0
10, 39360, Note_on_c, 10, 77, 108
10, 39370, Note_on_c, 10, 77, 0
10, 39380, Note_on_c, 10, 76, 108
10, 39390, Note_on_c, 10, 76, 0
10, 39400, Note_on_c, 10, 79, 108
10, 39410, Note_on_c, 10, 79, 0
10, 39420, Note_on_c, 10, 77, 108
10, 39430, Note_on_c, 10, 77, 0
10, 39440, Note_on_c, 10, 81, 108
10, 39450, Note_on_c, 10, 81, 0
10, 39460, Note_on_c, 10, 79, 108
10, 39470, Note_on_c, 10, 79, 0
10, 39480, Note_on_c, 10, 77, 108
10, 39490, Note_on_c, 10, 77, 0
10, 39500, Note_on_c, 10, 76, 108
10, 39510, Note_on_c, 10, 76, 0
10, 39520, Note_on_c, 10, 74, 108
10, 39530, Note_on_c, 10, 74, 0
10, 39540, Note_on_c, 10, 72, 108
10, 39550, Note_on_c, 10, 72, 0
10, 39560, Note_on_c, 10, 71, 108
10, 39570, Note_on_c, 10, 71, 0
10, 39580, Note_on_c, 10, 74, 108
10, 39590, Note_on_c, 10, 74, 0
10, 39600, Note_on_c, 10, 72, 108
10, 39610, Note_on_c, 10, 72, 0
10, 39620, Note_on_c, 10, 71, 108
10, 39630, Note_on_c, 10, 71, 0
10, 39640, Note_on_c, 10, 74, 108
10, 39650, Note_on_c, 10, 74, 0
10, 39660, Note_on_c, 10, 72, 108
10, 39670, Note_on_c, 10, 72, 0
10, 39680, Note_on_c, 10, 74, 108
10, 39690, Note_on_c, 10, 74, 0
10, 39700, Note_on_c, 10, 72, 108
10, 39710, Note_on_c, 10, 72, 0
10, 39720, Note_on_c, 10, 70, 108
10, 39730, Note_on_c, 10, 70, 0
10, 39740, Note_on_c, 10, 69, 108
10, 39750, Note_on_c, 10, 69, 0
10, 39760, Note_on_c, 10, 67, 108
10, 39770, Note_on_c, 10, 67, 0
10, 39780, Note_on_c, 10, 65, 108
10, 39790, Note_on_c, 10, 65, 0
10, 39800, Note_on_c, 10, 69, 108
10, 39810, Note_on_c, 10, 69, 0
10, 39820, Note_on_c, 10, 70, 108
10, 39830, Note_on_c, 10, 70, 0
10, 39840, Note_on_c, 10, 72, 108
10, 39850, Note_on_c, 10, 72, 0
10, 39860, Note_on_c, 10, 74, 108
10, 39870, Note_on_c, 10, 74, 0
10, 39880, Note_on_c, 10, 76, 108
10, 39890, Note_on_c, 10, 76, 0
10, 39900, Note_on_c, 10, 77, 108
10, 39910, Note_on_c, 10, 77, 0
10, 39920, Note_on_c, 10, 79, 108
10, 39930, Note_on_c, 10, 79, 0
10, 39940, Note_on_c, 10, 81, 108
10, 39950, Note_on_c, 10, 81, 0
10, 39960, Note_on_c, 10, 82, 108
10, 39970, Note_on_c, 10, 82, 0
10, 39980, Note_on_c, 10, 82, 108
10, 39990, Note_on_c, 10, 82, 0
10, 40000, Note_on_c, 10, 82, 108
10, 40010, Note_on_c, 10, 82, 0
10, 40020, Note_on_c, 10, 82, 108
10, 40030, Note_on_c, 10, 82, 0
10, 40040, Note_on_c, 10, 81, 108
10, 40050, Note_on_c, 10, 81, 0
10, 40060, Note_on_c, 10, 79, 108
10, 40070, Note_on_c, 10, 79, 0
10, 40080, Note_on_c, 10, 77, 108
10, 40090, Note_on_c, 10, 77, 0
10, 40100, Note_on_c, 10, 76, 108
10, 40110, Note_on_c, 10, 76, 0
10, 40120, Note_on_c, 10, 79, 108
10, 40130, Note_on_c, 10, 79, 0
10, 40140, Note_on_c, 10, 77, 108
10, 40150, Note_on_c, 10, 77, 0
10, 40160, Note_on_c, 10, 77, 108
10, 40170, Note_on_c, 10, 77, 0
10, 40180, Note_on_c, 10, 77, 108
10, 40190, Note_on_c, 10, 77, 0
10, 40200, Note_on_c, 10, 77, 108
10, 40210, Note_on_c, 10, 77, 0
10, 40220, Note_on_c, 10, 76, 108
10, 40230, Note_on_c, 10, 76, 0
10, 40240, Note_on_c, 10, 74, 108
10, 40250, Note_on_c, 10, 74, 0
10, 40260, Note_on_c, 10, 72, 108
10, 40270, Note_on_c, 10, 72, 0
10, 40280, Note_on_c, 10, 71, 108
10, 40290, Note_on_c, 10, 71, 0
10, 40300, Note_on_c, 10, 74, 108
10, 40310, Note_on_c, 10, 74, 0
10, 40320, Note_on_c, 10, 72, 108
10, 40330, Note_on_c, 10, 72, 0
10, 40340, Note_on_c, 10, 71, 108
10, 40350, Note_on_c, 10, 71, 0
10, 40360, Note_on_c, 10, 74, 108
10, 40370, Note_on_c, 10, 74, 0
10, 40380, Note_on_c, 10, 72, 108
10, 40390, Note_on_c, 10, 72, 0
10, 40400, Note_on_c, 10, 74, 108
10, 40410, Note_on_c, 10, 74, 0
10, 40420, Note_on_c, 10, 72, 108
10, 40430, Note_on_c, 10, 72, 0
10, 40440, Note_on_c, 10, 70, 108
10, 40450, Note_on_c, 10, 70, 0
10, 40460, Note_on_c, 10, 69, 108
10, 40470, Note_on_c, 10, 69, 0
10, 40480, Note_on_c, 10, 67, 108
10, 40490, Note_on_c, 10, 67, 0
10, 40500, Note_on_c, 10, 65, 93
10, 40560, Note_on_c, 10, 65, 0
10, 40620, Note_on_c, 10, 72, 93
10, 40620, Control_c, 10, 11, 37
10, 40638, Control_c, 10, 11, 40
10, 40656, Control_c, 10, 11, 43
10, 40674, Control_c, 10, 11, 46
10, 40680, Note_on_c, 10, 72, 0
10, 40680, Note_on_c, 10, 77, 108
10, 40710, Note_on_c, 10, 77, 0
10, 40800, Control_c, 10, 11, 37
10, 40800, Note_on_c, 10, 60, 93
10, 40818, Control_c, 10, 11, 40
10, 40836, Control_c, 10, 11, 43
10, 40854, Control_c, 10, 11, 46
10, 40860, Note_on_c, 10, 60, 0
10, 40860, Note_on_c, 10, 65, 108
10, 40899, Note_on_c, 10, 65, 0
10, 40920, Note_on_c, 10, 65, 108
10, 40959, Note_on_c, 10, 65, 0
10, 40980, Note_on_c, 10, 65, 108
10, 41040, Note_on_c, 10, 65, 0
10, 41040, Note_on_c, 10, 69, 108
10, 41079, Note_on_c, 10, 69, 0
10, 41100, Note_on_c, 10, 69, 108
10, 41139, Note_on_c, 10, 69, 0
10, 41160, Note_on_c, 10, 69, 108
10, 41220, Note_on_c, 10, 69, 0
10, 41220, Note_on_c, 10, 70, 108
10, 41250, Note_on_c, 10, 70, 0
10, 41280, Note_on_c, 10, 70, 108
10, 41303, Note_on_c, 10, 70, 0
10, 41325, Note_on_c, 10, 69, 108
10, 41333, Note_on_c, 10, 69, 0
10, 41340, Note_on_c, 10, 67, 108
10, 41363, Note_on_c, 10, 67, 0
10, 41385, Note_on_c, 10, 65, 108
10, 41393, Note_on_c, 10, 65, 0
10, 41400, Note_on_c, 10, 64, 108
10, 41415, Note_on_c, 10, 64, 0
10, 41430, Note_on_c, 10, 72, 73
10, 41445, Note_on_c, 10, 72, 0
10, 41460, Note_on_c, 10, 72, 76
10, 41475, Note_on_c, 10, 72, 0
10, 41490, Note_on_c, 10, 72, 79
10, 41505, Note_on_c, 10, 72, 0
10, 41520, Note_on_c, 10, 72, 82
10, 41535, Note_on_c, 10, 72, 0
10, 41550, Note_on_c, 10, 72, 85
10, 41565, Note_on_c, 10, 72, 0
10, 41580, Note_on_c, 10, 72, 88
10, 41595, Note_on_c, 10, 72, 0
10, 41610, Note_on_c, 10, 72, 92
10, 41625, Note_on_c, 10, 72, 0
10, 41640, Note_on_c, 10, 72, 95
10, 41655, Note_on_c, 10, 72, 0
10, 41670, Note_on_c, 10, 72, 98
10, 41685, Note_on_c, 10, 72, 0
10, 41700, Note_on_c, 10, 72, 101
10, 41715, Note_on_c, 10, 72, 0
10, 41730, Note_on_c, 10, 72, 104
10, 41745, Note_on_c, 10, 72, 0
10, 41760, Note_on_c, 10, 72, 108
10, 41775, Note_on_c, 10, 72, 0
10, 41790, Note_on_c, 10, 72, 108
10, 41805, Note_on_c, 10, 72, 0
10, 41820, Note_on_c, 10, 72, 108
10, 41835, Note_on_c, 10, 72, 0
10, 41850, Note_on_c, 10, 72, 108
10, 41865, Note_on_c, 10, 72, 0
10, 41880, Note_on_c, 10, 72, 108
10, 41895, Note_on_c, 10, 72, 0
10, 41910, Note_on_c, 10, 72, 108
10, 41925, Note_on_c, 10, 72, 0
10, 41940, Note_on_c, 10, 72, 108
10, 41940, Control_c, 10, 11, 47
10, 41955, Note_on_c, 10, 72, 0
10, 41964, Control_c, 10, 11, 48
10, 41970, Note_on_c, 10, 72, 108
10, 41985, Note_on_c, 10, 72, 0
10, 41988, Control_c, 10, 11, 49
10, 42000, Note_on_c, 10, 72, 108
10, 42012, Control_c, 10, 11, 50
10, 42015, Note_on_c, 10, 72, 0
10, 42030, Note_on_c, 10, 72, 108
10, 42036, Control_c, 10, 11, 51
10, 42045, Note_on_c, 10, 72, 0
10, 42060, Note_on_c, 10, 72, 108
10, 42060, Control_c, 10, 11, 52
10, 42075, Note_on_c, 10, 72, 0
10, 42084, Control_c, 10, 11, 53
10, 42090, Note_on_c, 10, 72, 108
10, 42105, Note_on_c, 10, 72, 0
10, 42108, Control_c, 10, 11, 54
10, 42120, Note_on_c, 10, 72, 108
10, 42132, Control_c, 10, 11, 55
10, 42135, Note_on_c, 10, 72, 0
10, 42150, Note_on_c, 10, 72, 108
10, 42156, Control_c, 10, 11, 56
10, 42165, Note_on_c, 10, 72, 0
10, 42180, Control_c, 10, 11, 57
10, 42180, Note_on_c, 10, 72, 108
10, 42195, Note_on_c, 10, 72, 0
10, 42204, Control_c, 10, 11, 58
10, 42210, Note_on_c, 10, 72, 108
10, 42225, Note_on_c, 10, 72, 0
10, 42228, Control_c, 10, 11, 59
10, 42240, Note_on_c, 10, 73, 108
10, 42252, Control_c, 10, 11, 60
10, 42255, Note_on_c, 10, 73, 0
10, 42270, Note_on_c, 10, 73, 108
10, 42276, Control_c, 10, 11, 61
10, 42285, Note_on_c, 10, 73, 0
10, 42300, Control_c, 10, 11, 50
10, 42300, Note_on_c, 10, 74, 73
10, 42315, Note_on_c, 10, 74, 0
10, 42330, Note_on_c, 10, 74, 76
10, 42345, Note_on_c, 10, 74, 0
10, 42360, Note_on_c, 10, 74, 79
10, 42375, Note_on_c, 10, 74, 0
10, 42390, Note_on_c, 10, 74, 82
10, 42405, Note_on_c, 10, 74, 0
10, 42420, Note_on_c, 10, 74, 85
10, 42435, Note_on_c, 10, 74, 0
10, 42450, Note_on_c, 10, 74, 88
10, 42465, Note_on_c, 10, 74, 0
10, 42480, Note_on_c, 10, 74, 92
10, 42495, Note_on_c, 10, 74, 0
10, 42510, Note_on_c, 10, 74, 95
10, 42525, Note_on_c, 10, 74, 0
10, 42540, Note_on_c, 10, 74, 98
10, 42555, Note_on_c, 10, 74, 0
10, 42570, Note_on_c, 10, 74, 101
10, 42585, Note_on_c, 10, 74, 0
10, 42600, Note_on_c, 10, 74, 104
10, 42615, Note_on_c, 10, 74, 0
10, 42630, Note_on_c, 10, 74, 108
10, 42645, Note_on_c, 10, 74, 0
10, 42660, Note_on_c, 10, 74, 108
10, 42660, Control_c, 10, 11, 50
10, 42675, Note_on_c, 10, 74, 0
10, 42688, Control_c, 10, 11, 52
10, 42690, Note_on_c, 10, 74, 108
10, 42703, Control_c, 10, 11, 53
10, 42705, Note_on_c, 10, 74, 0
10, 42720, Note_on_c, 10, 74, 108
10, 42732, Control_c, 10, 11, 55
10, 42735, Note_on_c, 10, 74, 0
10, 42750, Note_on_c, 10, 74, 108
10, 42760, Control_c, 10, 11, 57
10, 42765, Note_on_c, 10, 74, 0
10, 42775, Control_c, 10, 11, 58
10, 42780, Note_on_c, 10, 74, 108
10, 42795, Note_on_c, 10, 74, 0
10, 42804, Control_c, 10, 11, 60
10, 42810, Note_on_c, 10, 74, 108
10, 42825, Note_on_c, 10, 74, 0
10, 42832, Control_c, 10, 11, 62
10, 42840, Note_on_c, 10, 74, 108
10, 42847, Control_c, 10, 11, 63
10, 42855, Note_on_c, 10, 74, 0
10, 42870, Note_on_c, 10, 74, 108
10, 42876, Control_c, 10, 11, 65
10, 42885, Note_on_c, 10, 74, 0
10, 42900, Note_on_c, 10, 75, 108
10, 42904, Control_c, 10, 11, 67
10, 42915, Note_on_c, 10, 75, 0
10, 42919, Control_c, 10, 11, 68
10, 42930, Note_on_c, 10, 75, 108
10, 42945, Note_on_c, 10, 75, 0
10, 42948, Control_c, 10, 11, 70
10, 42960, Note_on_c, 10, 76, 108
10, 42975, Note_on_c, 10, 76, 0
10, 42976, Control_c, 10, 11, 72
10, 42990, Note_on_c, 10, 76, 108
10, 42991, Control_c, 10, 11, 73
10, 43005, Note_on_c, 10, 76, 0
10, 43020, Note_on_c, 10, 77, 88
10, 43020, Control_c, 10, 11, 87
10, 43035, Note_on_c, 10, 77, 0
10, 43050, Note_on_c, 10, 77, 94
10, 43065, Note_on_c, 10, 77, 0
10, 43080, Note_on_c, 10, 77, 101
10, 43095, Note_on_c, 10, 77, 0
10, 43110, Note_on_c, 10, 77, 108
10, 43125, Note_on_c, 10, 77, 0
10, 43140, Note_on_c, 10, 77, 108
10, 43155, Note_on_c, 10, 77, 0
10, 43170, Note_on_c, 10, 77, 108
10, 43185, Note_on_c, 10, 77, 0
10, 43200, Note_on_c, 10, 77, 108
10, 43200, Control_c, 10, 11, 107
10, 43209, Control_c, 10, 11, 104
10, 43215, Note_on_c, 10, 77, 0
10, 43218, Control_c, 10, 11, 101
10, 43227, Control_c, 10, 11, 98
10, 43230, Note_on_c, 10, 77, 108
10, 43236, Control_c, 10, 11, 95
10, 43245, Note_on_c, 10, 77, 0
10, 43245, Control_c, 10, 11, 92
10, 43254, Control_c, 10, 11, 89
10, 43260, Note_on_c, 10, 77, 108
10, 43275, Note_on_c, 10, 77, 0
10, 43290, Note_on_c, 10, 77, 108
10, 43305, Note_on_c, 10, 77, 0
10, 43320, Note_on_c, 10, 74, 108
10, 43335, Note_on_c, 10, 74, 0
10, 43350, Note_on_c, 10, 74, 108
10, 43365, Note_on_c, 10, 74, 0
10, 43380, Note_on_c, 10, 74, 108
10, 43380, Control_c, 10, 11, 107
10, 43389, Control_c, 10, 11, 104
10, 43395, Note_on_c, 10, 74, 0
10, 43398, Control_c, 10, 11, 101
10, 43407, Control_c, 10, 11, 98
10, 43410, Note_on_c, 10, 74, 108
10, 43416, Control_c, 10, 11, 95
10, 43425, Note_on_c, 10, 74, 0
10, 43425, Control_c, 10, 11, 92
10, 43434, Control_c, 10, 11, 89
10, 43440, Note_on_c, 10, 74, 108
10, 43455, Note_on_c, 10, 74, 0
10, 43470, Note_on_c, 10, 74, 108
10, 43485, Note_on_c, 10, 74, 0
10, 43500, Note_on_c, 10, 74, 108
10, 43515, Note_on_c, 10, 74, 0
10, 43530, Note_on_c, 10, 74, 108
10, 43545, Note_on_c, 10, 74, 0
10, 43560, Control_c, 10, 11, 107
10, 43560, Note_on_c, 10, 72, 108
10, 43569, Control_c, 10, 11, 104
10, 43575, Note_on_c, 10, 72, 0
10, 43578, Control_c, 10, 11, 101
10, 43587, Control_c, 10, 11, 98
10, 43590, Note_on_c, 10, 72, 108
10, 43596, Control_c, 10, 11, 95
10, 43605, Note_on_c, 10, 72, 0
10, 43605, Control_c, 10, 11, 92
10, 43614, Control_c, 10, 11, 89
10, 43620, Note_on_c, 10, 72, 108
10, 43635, Note_on_c, 10, 72, 0
10, 43650, Note_on_c, 10, 72, 108
10, 43665, Note_on_c, 10, 72, 0
10, 43680, Note_on_c, 10, 72, 108
10, 43695, Note_on_c, 10, 72, 0
10, 43710, Note_on_c, 10, 72, 108
10, 43725, Note_on_c, 10, 72, 0
10, 43740, Note_on_c, 10, 74, 108
10, 43755, Note_on_c, 10, 74, 0
10, 43770, Note_on_c, 10, 79, 108
10, 43785, Note_on_c, 10, 79, 0
10, 43830, Note_on_c, 10, 81, 108
10, 43845, Note_on_c, 10, 81, 0
10, 43890, Note_on_c, 10, 82, 108
10, 43905, Note_on_c, 10, 82, 0
10, 43950, Note_on_c, 10, 84, 108
10, 43965, Note_on_c, 10, 84, 0
10, 43980, Note_on_c, 10, 81, 108
10, 43995, Note_on_c, 10, 81, 0
10, 44010, Note_on_c, 10, 77, 108
10, 44025, Note_on_c, 10, 77, 0
10, 44040, Note_on_c, 10, 72, 108
10, 44055, Note_on_c, 10, 72, 0
10, 44070, Note_on_c, 10, 69, 108
10, 44085, Note_on_c, 10, 69, 0
10, 44100, Note_on_c, 10, 65, 108
10, 44160, Note_on_c, 10, 65, 0
10, 44160, Note_on_c, 10, 67, 100
10, 44220, Note_on_c, 10, 67, 0
10, 44220, Note_on_c, 10, 64, 100
10, 44260, Control_c, 10, 11, 87
10, 44262, Control_c, 10, 11, 83
10, 44264, Control_c, 10, 11, 79
10, 44266, Control_c, 10, 11, 75
10, 44268, Control_c, 10, 11, 71
10, 44270, Control_c, 10, 11, 67
10, 44272, Control_c, 10, 11, 63
10, 44274, Control_c, 10, 11, 59
10, 44275, Note_on_c, 10, 64, 0
10, 44276, Control_c, 10, 11, 55
10, 44278, Control_c, 10, 11, 51
10, 44280, Note_on_c, 10, 65, 103
10, 44280, Control_c, 10, 11, 47
10, 44340, Note_on_c, 10, 65, 0
10, 44580, Note_on_c, 10, 72, 108
10, 44580, Control_c, 10, 11, 32
10, 44592, Control_c, 10, 11, 35
10, 44604, Control_c, 10, 11, 38
10, 44616, Control_c, 10, 11, 41
10, 44628, Control_c, 10, 11, 44
10, 44640, Note_on_c, 10, 72, 0
10, 44640, Note_on_c, 10, 82, 108
10, 44640, Control_c, 10, 11, 32
10, 44649, Control_c, 10, 11, 35
10, 44658, Control_c, 10, 11, 38
10, 44667, Control_c, 10, 11, 41
10, 44676, Control_c, 10, 11, 44
10, 44685, Control_c, 10, 11, 47
10, 44730, Note_on_c, 10, 82, 0
10, 44745, Note_on_c, 10, 81, 108
10, 44755, Note_on_c, 10, 81, 0
10, 44760, Note_on_c, 10, 79, 108
10, 44790, Note_on_c, 10, 79, 0
10, 44805, Note_on_c, 10, 77, 108
10, 44815, Note_on_c, 10, 77, 0
10, 44820, Note_on_c, 10, 76, 108
10, 44850, Note_on_c, 10, 76, 0
10, 44865, Note_on_c, 10, 74, 108
10, 44875, Note_on_c, 10, 74, 0
10, 44880, Note_on_c, 10, 72, 108
10, 44910, Note_on_c, 10, 72, 0
10, 44925, Note_on_c, 10, 70, 108
10, 44935, Note_on_c, 10, 70, 0
10, 44940, Note_on_c, 10, 69, 108
10, 44970, Note_on_c, 10, 69, 0
10, 44985, Note_on_c, 10, 67, 108
10, 44995, Note_on_c, 10, 67, 0
10, 45000, Note_on_c, 10, 65, 108
10, 45060, Note_on_c, 10, 65, 0
10, 45300, Note_on_c, 10, 72, 108
10, 45300, Control_c, 10, 11, 32
10, 45312, Control_c, 10, 11, 35
10, 45324, Control_c, 10, 11, 38
10, 45336, Control_c, 10, 11, 41
10, 45348, Control_c, 10, 11, 44
10, 45360, Note_on_c, 10, 72, 0
10, 45360, Note_on_c, 10, 82, 108
10, 45360, Control_c, 10, 11, 32
10, 45366, Control_c, 10, 11, 35
10, 45372, Control_c, 10, 11, 38
10, 45378, Control_c, 10, 11, 41
10, 45384, Control_c, 10, 11, 44
10, 45390, Control_c, 10, 11, 47
10, 45465, Note_on_c, 10, 82, 0
10, 45465, Note_on_c, 10, 81, 108
10, 45473, Note_on_c, 10, 81, 0
10, 45480, Note_on_c, 10, 79, 108
10, 45503, Note_on_c, 10, 79, 0
10, 45525, Note_on_c, 10, 77, 108
10, 45533, Note_on_c, 10, 77, 0
10, 45540, Note_on_c, 10, 76, 108
10, 45563, Note_on_c, 10, 76, 0
10, 45585, Note_on_c, 10, 74, 108
10, 45593, Note_on_c, 10, 74, 0
10, 45600, Note_on_c, 10, 72, 108
10, 45623, Note_on_c, 10, 72, 0
10, 45645, Note_on_c, 10, 70, 108
10, 45653, Note_on_c, 10, 70, 0
10, 45660, Note_on_c, 10, 69, 108
10, 45683, Note_on_c, 10, 69, 0
10, 45705, Note_on_c, 10, 67, 108
10, 45713, Note_on_c, 10, 67, 0
10, 45720, Note_on_c, 10, 65, 108
10, 45740, Control_c, 10, 11, 47
10, 45747, Control_c, 10, 11, 44
10, 45755, Note_on_c, 10, 65, 0
10, 45770, Control_c, 10, 11, 32
10, 45770, Note_on_c, 10, 71, 123
10, 45780, Note_on_c, 10, 71, 0
10, 45780, Note_on_c, 10, 72, 123
10, 45810, Note_on_c, 10, 72, 0
10, 45950, Note_on_c, 10, 71, 108
10, 45960, Note_on_c, 10, 71, 0
10, 45960, Note_on_c, 10, 72, 108
10, 45990, Note_on_c, 10, 72, 0
10, 46380, Note_on_c, 10, 72, 96
10, 46380, Note_on_c, 10, 82, 96
10, 46380, Control_c, 10, 11, 62
10, 46382, Control_c, 10, 11, 65
10, 46385, Control_c, 10, 11, 69
10, 46388, Control_c, 10, 11, 72
10, 46390, Control_c, 10, 11, 75
10, 46393, Control_c, 10, 11, 79
10, 46396, Control_c, 10, 11, 82
10, 46398, Control_c, 10, 11, 85
10, 46440, Note_on_c, 10, 82, 0
10, 46440, Note_on_c, 10, 72, 0
10, 46440, Note_on_c, 10, 81, 108
10, 46440, Note_on_c, 10, 72, 108
10, 46470, Note_on_c, 10, 72, 0
10, 46470, Note_on_c, 10, 81, 0
10, 46500, Note_on_c, 10, 65, 108
10, 46500, Control_c, 10, 11, 42
10, 46500, Note_on_c, 10, 57, 108
10, 46530, Note_on_c, 10, 57, 0
10, 46530, Note_on_c, 10, 65, 0
10, 46560, Note_on_c, 10, 65, 98
10, 46560, Note_on_c, 10, 57, 98
10, 46590, Note_on_c, 10, 57, 0
10, 46590, Note_on_c, 10, 65, 0
10, 46620, Note_on_c, 10, 57, 80
10, 46620, Note_on_c, 10, 65, 80
10, 46700, Control_c, 10, 11, 42
10, 46706, Control_c, 10, 11, 39
10, 46712, Control_c, 10, 11, 36
10, 46718, Control_c, 10, 11, 33
10, 46724, Control_c, 10, 11, 30
10, 46730, Control_c, 10, 11, 27
10, 46736, Control_c, 10, 11, 24
10, 46740, Note_on_c, 10, 65, 0
10, 46740, Note_on_c, 10, 57, 0
10, 46980, Control_c, 10, 121, 0
10, 46980, End_track
11, 0, Start_track
11, 0, MIDI_port, 0
11, 0, Title_t, "Violine II"
11, 0, Program_c, 11, 48
11, 0, Control_c, 11, 10, 90
11, 1, Control_c, 11, 121, 0
11, 6, Program_c, 11, 48
11, 11, Pitch_bend_c, 11, 7992
11, 16, Control_c, 11, 11, 47
11, 21, Control_c, 11, 7, 127
11, 26, Control_c, 11, 91, 32
11, 31, Control_c, 11, 93, 0
11, 36, Control_c, 11, 10, 90
11, 41, Control_c, 11, 1, 36
11, 121, Control_c, 11, 1, 16
11, 121, Note_on_c, 11, 60, 58
11, 121, Control_c, 11, 11, 37
11, 139, Control_c, 11, 11, 40
11, 157, Control_c, 11, 11, 43
11, 175, Control_c, 11, 11, 46
11, 181, Note_on_c, 11, 60, 0
11, 181, Note_on_c, 11, 65, 58
11, 220, Note_on_c, 11, 65, 0
11, 241, Note_on_c, 11, 65, 58
11, 280, Note_on_c, 11, 65, 0
11, 301, Note_on_c, 11, 65, 58
11, 361, Note_on_c, 11, 65, 0
11, 361, Note_on_c, 11, 69, 58
11, 400, Note_on_c, 11, 69, 0
11, 421, Note_on_c, 11, 69, 58
11, 460, Note_on_c, 11, 69, 0
11, 481, Note_on_c, 11, 69, 58
11, 481, Control_c, 11, 11, 47
11, 493, Control_c, 11, 11, 50
11, 505, Control_c, 11, 11, 53
11, 517, Control_c, 11, 11, 56
11, 529, Control_c, 11, 11, 59
11, 541, Note_on_c, 11, 69, 0
11, 541, Note_on_c, 11, 70, 58
11, 541, Control_c, 11, 11, 62
11, 580, Note_on_c, 11, 70, 0
11, 601, Note_on_c, 11, 70, 58
11, 601, Control_c, 11, 11, 57
11, 631, Note_on_c, 11, 70, 0
11, 646, Note_on_c, 11, 69, 58
11, 656, Note_on_c, 11, 69, 0
11, 661, Note_on_c, 11, 67, 58
11, 691, Note_on_c, 11, 67, 0
11, 706, Note_on_c, 11, 65, 58
11, 716, Note_on_c, 11, 65, 0
11, 721, Note_on_c, 11, 64, 58
11, 721, Control_c, 11, 11, 47
11, 760, Note_on_c, 11, 64, 0
11, 781, Note_on_c, 11, 64, 58
11, 820, Note_on_c, 11, 64, 0
11, 841, Note_on_c, 11, 64, 58
11, 901, Note_on_c, 11, 64, 0
11, 901, Note_on_c, 11, 65, 61
11, 901, Control_c, 11, 11, 47
11, 925, Control_c, 11, 11, 49
11, 949, Control_c, 11, 11, 51
11, 961, Note_on_c, 11, 65, 0
11, 961, Note_on_c, 11, 67, 65
11, 973, Control_c, 11, 11, 53
11, 997, Control_c, 11, 11, 55
11, 1021, Note_on_c, 11, 67, 0
11, 1021, Note_on_c, 11, 69, 68
11, 1021, Control_c, 11, 11, 57
11, 1045, Control_c, 11, 11, 59
11, 1069, Control_c, 11, 11, 61
11, 1076, Note_on_c, 11, 69, 0
11, 1081, Note_on_c, 11, 70, 72
11, 1171, Note_on_c, 11, 70, 0
11, 1171, Note_on_c, 11, 72, 77
11, 1171, Control_c, 11, 11, 57
11, 1180, Control_c, 11, 11, 54
11, 1189, Control_c, 11, 11, 51
11, 1196, Note_on_c, 11, 72, 0
11, 1198, Control_c, 11, 11, 48
11, 1201, Note_on_c, 11, 69, 79
11, 1231, Note_on_c, 11, 69, 0
11, 1261, Note_on_c, 11, 67, 83
11, 1261, Control_c, 11, 11, 47
11, 1321, Note_on_c, 11, 67, 0
11, 1381, Note_on_c, 11, 67, 76
11, 1441, Note_on_c, 11, 67, 0
11, 1441, Note_on_c, 11, 72, 108
11, 1480, Note_on_c, 11, 72, 0
11, 1501, Note_on_c, 11, 72, 108
11, 1540, Note_on_c, 11, 72, 0
11, 1561, Note_on_c, 11, 72, 108
11, 1561, Control_c, 11, 11, 47
11, 1573, Control_c, 11, 11, 50
11, 1585, Control_c, 11, 11, 53
11, 1597, Control_c, 11, 11, 56
11, 1609, Control_c, 11, 11, 59
11, 1621, Control_c, 11, 11, 62
11, 1676, Note_on_c, 11, 72, 0
11, 1681, Note_on_c, 11, 71, 108
11, 1681, Control_c, 11, 11, 57
11, 1711, Note_on_c, 11, 71, 0
11, 1726, Note_on_c, 11, 72, 108
11, 1736, Note_on_c, 11, 72, 0
11, 1741, Note_on_c, 11, 74, 108
11, 1771, Note_on_c, 11, 74, 0
11, 1786, Note_on_c, 11, 76, 108
11, 1796, Note_on_c, 11, 76, 0
11, 1801, Note_on_c, 11, 77, 108
11, 1801, Control_c, 11, 11, 47
11, 1840, Note_on_c, 11, 77, 0
11, 1921, Note_on_c, 11, 65, 108
11, 1921, Control_c, 11, 11, 37
11, 1981, Note_on_c, 11, 65, 0
11, 1981, Note_on_c, 11, 64, 108
11, 2005, Control_c, 11, 11, 39
11, 2020, Note_on_c, 11, 64, 0
11, 2029, Control_c, 11, 11, 41
11, 2041, Note_on_c, 11, 64, 108
11, 2053, Control_c, 11, 11, 43
11, 2077, Control_c, 11, 11, 45
11, 2080, Note_on_c, 11, 64, 0
11, 2101, Note_on_c, 11, 64, 108
11, 2101, Control_c, 11, 11, 47
11, 2125, Control_c, 11, 11, 49
11, 2149, Control_c, 11, 11, 51
11, 2161, Note_on_c, 11, 64, 0
11, 2161, Note_on_c, 11, 72, 108
11, 2200, Note_on_c, 11, 72, 0
11, 2221, Note_on_c, 11, 72, 108
11, 2251, Control_c, 11, 11, 47
11, 2260, Note_on_c, 11, 72, 0
11, 2260, Control_c, 11, 11, 44
11, 2269, Control_c, 11, 11, 41
11, 2278, Control_c, 11, 11, 38
11, 2281, Control_c, 11, 1, 36
11, 2281, Note_on_c, 11, 64, 108
11, 2341, Note_on_c, 11, 64, 0
11, 2341, Note_on_c, 11, 65, 108
11, 2341, Control_c, 11, 11, 37
11, 2380, Note_on_c, 11, 65, 0
11, 2401, Note_on_c, 11, 65, 108
11, 2461, Note_on_c, 11, 65, 0
11, 2461, Note_on_c, 11, 69, 108
11, 2521, Note_on_c, 11, 69, 0
11, 2581, Note_on_c, 11, 69, 108
11, 2641, Note_on_c, 11, 69, 0
11, 2641, Note_on_c, 11, 72, 108
11, 2641, Control_c, 11, 11, 37
11, 2653, Control_c, 11, 11, 40
11, 2665, Control_c, 11, 11, 43
11, 2677, Control_c, 11, 11, 46
11, 2689, Control_c, 11, 11, 49
11, 2701, Note_on_c, 11, 72, 0
11, 2701, Note_on_c, 11, 70, 108
11, 2701, Control_c, 11, 11, 52
11, 2740, Note_on_c, 11, 70, 0
11, 2761, Note_on_c, 11, 70, 108
11, 2761, Control_c, 11, 11, 47
11, 2791, Note_on_c, 11, 70, 0
11, 2806, Note_on_c, 11, 69, 108
11, 2816, Note_on_c, 11, 69, 0
11, 2821, Note_on_c, 11, 67, 108
11, 2851, Note_on_c, 11, 67, 0
11, 2866, Note_on_c, 11, 65, 108
11, 2876, Note_on_c, 11, 65, 0
11, 2881, Note_on_c, 11, 64, 108
11, 2881, Control_c, 11, 11, 37
11, 2899, Control_c, 11, 11, 38
11, 2917, Control_c, 11, 11, 39
11, 2935, Control_c, 11, 11, 40
11, 2941, Note_on_c, 11, 64, 0
11, 2941, Note_on_c, 11, 67, 93
11, 2953, Control_c, 11, 11, 41
11, 2971, Control_c, 11, 11, 42
11, 2989, Control_c, 11, 11, 43
11, 3001, Note_on_c, 11, 67, 0
11, 3001, Note_on_c, 11, 72, 108
11, 3007, Control_c, 11, 11, 44
11, 3025, Control_c, 11, 11, 45
11, 3043, Control_c, 11, 11, 46
11, 3056, Note_on_c, 11, 72, 0
11, 3061, Note_on_c, 11, 72, 108
11, 3061, Control_c, 11, 11, 47
11, 3079, Control_c, 11, 11, 48
11, 3086, Note_on_c, 11, 72, 0
11, 3091, Note_on_c, 11, 72, 108
11, 3097, Control_c, 11, 11, 49
11, 3115, Control_c, 11, 11, 50
11, 3116, Note_on_c, 11, 72, 0
11, 3121, Note_on_c, 11, 72, 108
11, 3133, Control_c, 11, 11, 51
11, 3146, Note_on_c, 11, 72, 0
11, 3151, Note_on_c, 11, 72, 108
11, 3151, Control_c, 11, 11, 52
11, 3169, Control_c, 11, 11, 53
11, 3176, Note_on_c, 11, 72, 0
11, 3181, Note_on_c, 11, 72, 108
11, 3187, Control_c, 11, 11, 54
11, 3205, Control_c, 11, 11, 55
11, 3206, Note_on_c, 11, 72, 0
11, 3211, Note_on_c, 11, 72, 108
11, 3223, Control_c, 11, 11, 56
11, 3236, Note_on_c, 11, 72, 0
11, 3241, Note_on_c, 11, 72, 108
11, 3241, Control_c, 11, 11, 57
11, 3266, Note_on_c, 11, 72, 0
11, 3271, Note_on_c, 11, 72, 108
11, 3296, Note_on_c, 11, 72, 0
11, 3301, Note_on_c, 11, 72, 108
11, 3326, Note_on_c, 11, 72, 0
11, 3331, Note_on_c, 11, 72, 108
11, 3356, Note_on_c, 11, 72, 0
11, 3361, Note_on_c, 11, 72, 108
11, 3386, Note_on_c, 11, 72, 0
11, 3391, Note_on_c, 11, 72, 108
11, 3416, Note_on_c, 11, 72, 0
11, 3421, Note_on_c, 11, 72, 108
11, 3481, Note_on_c, 11, 72, 0
11, 3541, Note_on_c, 11, 67, 108
11, 3596, Note_on_c, 11, 67, 0
11, 3601, Note_on_c, 11, 69, 123
11, 3601, Control_c, 11, 11, 56
11, 3603, Control_c, 11, 11, 59
11, 3605, Control_c, 11, 11, 62
11, 3607, Control_c, 11, 11, 65
11, 3609, Control_c, 11, 11, 68
11, 3611, Control_c, 11, 11, 71
11, 3613, Control_c, 11, 11, 74
11, 3627, Control_c, 11, 11, 71
11, 3634, Control_c, 11, 11, 68
11, 3641, Control_c, 11, 11, 65
11, 3649, Control_c, 11, 11, 62
11, 3656, Control_c, 11, 11, 59
11, 3706, Note_on_c, 11, 69, 0
11, 3706, Note_on_c, 11, 65, 108
11, 3716, Note_on_c, 11, 65, 0
11, 3721, Note_on_c, 11, 72, 108
11, 3766, Note_on_c, 11, 72, 0
11, 3766, Note_on_c, 11, 69, 108
11, 3776, Note_on_c, 11, 69, 0
11, 3781, Note_on_c, 11, 67, 108
11, 3841, Note_on_c, 11, 67, 0
11, 3901, Note_on_c, 11, 67, 108
11, 3956, Note_on_c, 11, 67, 0
11, 3961, Note_on_c, 11, 69, 123
11, 3961, Control_c, 11, 11, 62
11, 3963, Control_c, 11, 11, 65
11, 3965, Control_c, 11, 11, 68
11, 3967, Control_c, 11, 11, 71
11, 3969, Control_c, 11, 11, 74
11, 3971, Control_c, 11, 11, 77
11, 3973, Control_c, 11, 11, 80
11, 3987, Control_c, 11, 11, 77
11, 3994, Control_c, 11, 11, 74
11, 4001, Control_c, 11, 11, 71
11, 4009, Control_c, 11, 11, 68
11, 4016, Control_c, 11, 11, 65
11, 4066, Note_on_c, 11, 69, 0
11, 4066, Note_on_c, 11, 65, 108
11, 4076, Note_on_c, 11, 65, 0
11, 4081, Note_on_c, 11, 72, 108
11, 4126, Note_on_c, 11, 72, 0
11, 4126, Note_on_c, 11, 69, 108
11, 4136, Note_on_c, 11, 69, 0
11, 4141, Note_on_c, 11, 67, 108
11, 4171, Note_on_c, 11, 67, 0
11, 4201, Note_on_c, 11, 72, 108
11, 4201, Control_c, 11, 11, 68
11, 4203, Control_c, 11, 11, 71
11, 4205, Control_c, 11, 11, 74
11, 4207, Control_c, 11, 11, 77
11, 4209, Control_c, 11, 11, 80
11, 4211, Control_c, 11, 11, 83
11, 4213, Control_c, 11, 11, 86
11, 4227, Control_c, 11, 11, 83
11, 4234, Control_c, 11, 11, 80
11, 4241, Control_c, 11, 11, 77
11, 4249, Control_c, 11, 11, 74
11, 4256, Control_c, 11, 11, 71
11, 4291, Note_on_c, 11, 72, 0
11, 4291, Note_on_c, 11, 69, 108
11, 4316, Note_on_c, 11, 69, 0
11, 4321, Note_on_c, 11, 67, 108
11, 4351, Note_on_c, 11, 67, 0
11, 4381, Control_c, 11, 11, 72
11, 4381, Note_on_c, 11, 72, 108
11, 4383, Control_c, 11, 11, 75
11, 4386, Control_c, 11, 11, 79
11, 4389, Control_c, 11, 11, 82
11, 4391, Control_c, 11, 11, 85
11, 4411, Note_on_c, 11, 72, 0
11, 4411, Control_c, 11, 11, 84
11, 4411, Note_on_c, 11, 71, 108
11, 4429, Control_c, 11, 11, 81
11, 4441, Note_on_c, 11, 71, 0
11, 4441, Note_on_c, 11, 72, 108
11, 4471, Note_on_c, 11, 72, 0
11, 4471, Note_on_c, 11, 69, 108
11, 4496, Note_on_c, 11, 69, 0
11, 4501, Note_on_c, 11, 67, 98
11, 4501, Control_c, 11, 11, 87
11, 4540, Note_on_c, 11, 67, 0
11, 4561, Note_on_c, 11, 55, 89
11, 4561, Note_on_c, 11, 64, 89
11, 4600, Note_on_c, 11, 64, 0
11, 4600, Note_on_c, 11, 55, 0
11, 4621, Note_on_c, 11, 64, 86
11, 4621, Note_on_c, 11, 55, 86
11, 4660, Note_on_c, 11, 55, 0
11, 4660, Note_on_c, 11, 64, 0
11, 4681, Note_on_c, 11, 55, 75
11, 4681, Note_on_c, 11, 64, 75
11, 4716, Control_c, 11, 11, 87
11, 4718, Control_c, 11, 11, 84
11, 4721, Control_c, 11, 11, 81
11, 4724, Control_c, 11, 11, 78
11, 4727, Control_c, 11, 11, 75
11, 4730, Control_c, 11, 11, 72
11, 4733, Control_c, 11, 11, 69
11, 4736, Control_c, 11, 11, 66
11, 4739, Control_c, 11, 11, 63
11, 4741, Note_on_c, 11, 64, 0
11, 4741, Note_on_c, 11, 55, 0
11, 4981, Note_on_c, 11, 73, 93
11, 4981, Control_c, 11, 11, 37
11, 4999, Control_c, 11, 11, 40
11, 5017, Control_c, 11, 11, 43
11, 5035, Control_c, 11, 11, 46
11, 5041, Note_on_c, 11, 73, 0
11, 5041, Note_on_c, 11, 74, 108
11, 5080, Note_on_c, 11, 74, 0
11, 5161, Note_on_c, 11, 69, 108
11, 5161, Control_c, 11, 11, 37
11, 5179, Control_c, 11, 11, 40
11, 5197, Control_c, 11, 11, 43
11, 5206, Note_on_c, 11, 69, 0
11, 5206, Note_on_c, 11, 65, 108
11, 5215, Control_c, 11, 11, 46
11, 5216, Note_on_c, 11, 65, 0
11, 5221, Note_on_c, 11, 62, 108
11, 5260, Note_on_c, 11, 62, 0
11, 5341, Note_on_c, 11, 71, 93
11, 5341, Control_c, 11, 11, 32
11, 5352, Control_c, 11, 11, 35
11, 5364, Control_c, 11, 11, 38
11, 5375, Control_c, 11, 11, 41
11, 5387, Control_c, 11, 11, 44
11, 5401, Note_on_c, 11, 71, 0
11, 5401, Note_on_c, 11, 72, 108
11, 5440, Note_on_c, 11, 72, 0
11, 5521, Control_c, 11, 11, 37
11, 5521, Note_on_c, 11, 67, 108
11, 5539, Control_c, 11, 11, 40
11, 5557, Control_c, 11, 11, 43
11, 5566, Note_on_c, 11, 67, 0
11, 5566, Note_on_c, 11, 64, 108
11, 5575, Control_c, 11, 11, 46
11, 5576, Note_on_c, 11, 64, 0
11, 5581, Note_on_c, 11, 60, 108
11, 5620, Note_on_c, 11, 60, 0
11, 5641, Note_on_c, 11, 67, 108
11, 5693, Note_on_c, 11, 67, 0
11, 5701, Note_on_c, 11, 67, 108
11, 5753, Note_on_c, 11, 67, 0
11, 5761, Note_on_c, 11, 67, 108
11, 5876, Note_on_c, 11, 67, 0
11, 5881, Note_on_c, 11, 67, 108
11, 5936, Note_on_c, 11, 67, 0
11, 5941, Note_on_c, 11, 67, 108
11, 6001, Note_on_c, 11, 67, 0
11, 6001, Note_on_c, 11, 74, 108
11, 6076, Note_on_c, 11, 74, 0
11, 6076, Note_on_c, 11, 72, 108
11, 6091, Note_on_c, 11, 72, 0
11, 6091, Note_on_c, 11, 71, 108
11, 6106, Note_on_c, 11, 71, 0
11, 6106, Note_on_c, 11, 72, 108
11, 6116, Note_on_c, 11, 72, 0
11, 6121, Note_on_c, 11, 71, 108
11, 6181, Note_on_c, 11, 71, 0
11, 6241, Note_on_c, 11, 67, 93
11, 6301, Note_on_c, 11, 67, 0
11, 6301, Note_on_c, 11, 76, 108
11, 6340, Note_on_c, 11, 76, 0
11, 6421, Note_on_c, 11, 76, 93
11, 6481, Note_on_c, 11, 76, 0
11, 6481, Note_on_c, 11, 77, 108
11, 6520, Note_on_c, 11, 77, 0
11, 6541, Control_c, 11, 11, 47
11, 6541, Note_on_c, 11, 81, 108
11, 6550, Control_c, 11, 11, 50
11, 6559, Control_c, 11, 11, 53
11, 6568, Control_c, 11, 11, 56
11, 6571, Note_on_c, 11, 81, 0
11, 6571, Note_on_c, 11, 80, 108
11, 6577, Control_c, 11, 11, 59
11, 6586, Control_c, 11, 11, 62
11, 6595, Control_c, 11, 11, 65
11, 6601, Note_on_c, 11, 80, 0
11, 6601, Note_on_c, 11, 81, 108
11, 6610, Control_c, 11, 11, 64
11, 6619, Control_c, 11, 11, 61
11, 6628, Control_c, 11, 11, 58
11, 6631, Note_on_c, 11, 81, 0
11, 6631, Note_on_c, 11, 77, 108
11, 6637, Control_c, 11, 11, 55
11, 6646, Control_c, 11, 11, 52
11, 6655, Control_c, 11, 11, 49
11, 6656, Note_on_c, 11, 77, 0
11, 6661, Note_on_c, 11, 74, 108
11, 6721, Note_on_c, 11, 74, 0
11, 6781, Note_on_c, 11, 74, 93
11, 6841, Note_on_c, 11, 74, 0
11, 6841, Note_on_c, 11, 76, 108
11, 6880, Note_on_c, 11, 76, 0
11, 7021, Control_c, 11, 11, 47
11, 7021, Note_on_c, 11, 67, 108
11, 7036, Note_on_c, 11, 67, 0
11, 7042, Control_c, 11, 11, 50
11, 7051, Note_on_c, 11, 70, 108
11, 7057, Control_c, 11, 11, 52
11, 7066, Note_on_c, 11, 70, 0
11, 7078, Control_c, 11, 11, 55
11, 7081, Note_on_c, 11, 67, 108
11, 7093, Control_c, 11, 11, 57
11, 7096, Note_on_c, 11, 67, 0
11, 7111, Note_on_c, 11, 70, 108
11, 7114, Control_c, 11, 11, 60
11, 7126, Note_on_c, 11, 70, 0
11, 7129, Control_c, 11, 11, 62
11, 7141, Note_on_c, 11, 67, 108
11, 7150, Control_c, 11, 11, 65
11, 7156, Note_on_c, 11, 67, 0
11, 7165, Control_c, 11, 11, 67
11, 7171, Note_on_c, 11, 70, 108
11, 7186, Note_on_c, 11, 70, 0
11, 7186, Control_c, 11, 11, 70
11, 7201, Note_on_c, 11, 62, 108
11, 7201, Control_c, 11, 11, 72
11, 7216, Control_c, 11, 11, 73
11, 7231, Note_on_c, 11, 62, 0
11, 7231, Note_on_c, 11, 64, 108
11, 7231, Control_c, 11, 11, 74
11, 7246, Control_c, 11, 11, 75
11, 7261, Note_on_c, 11, 64, 0
11, 7261, Note_on_c, 11, 65, 108
11, 7261, Control_c, 11, 11, 76
11, 7276, Control_c, 11, 11, 77
11, 7291, Note_on_c, 11, 65, 0
11, 7291, Control_c, 11, 11, 78
11, 7291, Note_on_c, 11, 67, 108
11, 7306, Control_c, 11, 11, 79
11, 7321, Note_on_c, 11, 67, 0
11, 7321, Note_on_c, 11, 68, 108
11, 7321, Control_c, 11, 11, 80
11, 7336, Control_c, 11, 11, 81
11, 7351, Note_on_c, 11, 68, 0
11, 7351, Control_c, 11, 11, 82
11, 7351, Note_on_c, 11, 69, 108
11, 7363, Control_c, 11, 11, 78
11, 7365, Control_c, 11, 11, 75
11, 7367, Control_c, 11, 11, 71
11, 7369, Control_c, 11, 11, 68
11, 7371, Control_c, 11, 11, 64
11, 7373, Control_c, 11, 11, 61
11, 7375, Control_c, 11, 11, 57
11, 7376, Note_on_c, 11, 69, 0
11, 7377, Control_c, 11, 11, 54
11, 7379, Control_c, 11, 11, 50
11, 7381, Control_c, 11, 11, 47
11, 7381, Note_on_c, 11, 64, 108
11, 7411, Note_on_c, 11, 64, 0
11, 7411, Note_on_c, 11, 67, 108
11, 7441, Note_on_c, 11, 67, 0
11, 7441, Note_on_c, 11, 64, 108
11, 7471, Note_on_c, 11, 64, 0
11, 7471, Note_on_c, 11, 67, 108
11, 7501, Note_on_c, 11, 67, 0
11, 7501, Note_on_c, 11, 65, 108
11, 7531, Note_on_c, 11, 65, 0
11, 7531, Note_on_c, 11, 67, 108
11, 7556, Note_on_c, 11, 67, 0
11, 7561, Note_on_c, 11, 64, 108
11, 7621, Note_on_c, 11, 64, 0
11, 7666, Note_on_c, 11, 74, 108
11, 7674, Note_on_c, 11, 74, 0
11, 7681, Note_on_c, 11, 76, 108
11, 7704, Note_on_c, 11, 76, 0
11, 7726, Note_on_c, 11, 77, 108
11, 7734, Note_on_c, 11, 77, 0
11, 7741, Note_on_c, 11, 76, 108
11, 7771, Note_on_c, 11, 76, 0
11, 7846, Note_on_c, 11, 71, 108
11, 7854, Note_on_c, 11, 71, 0
11, 7861, Note_on_c, 11, 72, 108
11, 7884, Note_on_c, 11, 72, 0
11, 7906, Note_on_c, 11, 74, 108
11, 7914, Note_on_c, 11, 74, 0
11, 7921, Note_on_c, 11, 72, 108
11, 7951, Note_on_c, 11, 72, 0
11, 8026, Note_on_c, 11, 67, 108
11, 8034, Note_on_c, 11, 67, 0
11, 8041, Note_on_c, 11, 69, 108
11, 8064, Note_on_c, 11, 69, 0
11, 8086, Note_on_c, 11, 70, 108
11, 8094, Note_on_c, 11, 70, 0
11, 8101, Note_on_c, 11, 69, 108
11, 8124, Note_on_c, 11, 69, 0
11, 8146, Note_on_c, 11, 65, 108
11, 8154, Note_on_c, 11, 65, 0
11, 8161, Note_on_c, 11, 64, 108
11, 8200, Note_on_c, 11, 64, 0
11, 8221, Note_on_c, 11, 65, 108
11, 8251, Note_on_c, 11, 65, 0
11, 8281, Note_on_c, 11, 64, 108
11, 8341, Note_on_c, 11, 64, 0
11, 8386, Note_on_c, 11, 71, 108
11, 8386, Control_c, 11, 11, 87
11, 8394, Note_on_c, 11, 71, 0
11, 8401, Note_on_c, 11, 72, 108
11, 8424, Note_on_c, 11, 72, 0
11, 8446, Note_on_c, 11, 74, 108
11, 8454, Note_on_c, 11, 74, 0
11, 8461, Note_on_c, 11, 72, 108
11, 8491, Note_on_c, 11, 72, 0
11, 8566, Note_on_c, 11, 68, 108
11, 8574, Note_on_c, 11, 68, 0
11, 8581, Note_on_c, 11, 69, 108
11, 8604, Note_on_c, 11, 69, 0
11, 8626, Note_on_c, 11, 71, 108
11, 8634, Note_on_c, 11, 71, 0
11, 8641, Note_on_c, 11, 69, 108
11, 8671, Note_on_c, 11, 69, 0
11, 8746, Note_on_c, 11, 71, 108
11, 8754, Note_on_c, 11, 71, 0
11, 8761, Note_on_c, 11, 72, 108
11, 8784, Note_on_c, 11, 72, 0
11, 8806, Note_on_c, 11, 74, 108
11, 8814, Note_on_c, 11, 74, 0
11, 8821, Note_on_c, 11, 72, 108
11, 8851, Note_on_c, 11, 72, 0
11, 8881, Control_c, 11, 11, 90
11, 8881, Note_on_c, 11, 70, 108
11, 8887, Control_c, 11, 11, 93
11, 8893, Control_c, 11, 11, 96
11, 8916, Control_c, 11, 11, 95
11, 8925, Control_c, 11, 11, 92
11, 8934, Control_c, 11, 11, 89
11, 9001, Note_on_c, 11, 70, 0
11, 9001, Note_on_c, 11, 69, 108
11, 9031, Note_on_c, 11, 69, 0
11, 9061, Note_on_c, 11, 72, 108
11, 9061, Control_c, 11, 11, 90
11, 9070, Control_c, 11, 11, 93
11, 9080, Control_c, 11, 11, 96
11, 9096, Control_c, 11, 11, 95
11, 9105, Control_c, 11, 11, 92
11, 9114, Control_c, 11, 11, 89
11, 9181, Note_on_c, 11, 72, 0
11, 9181, Note_on_c, 11, 71, 108
11, 9211, Note_on_c, 11, 71, 0
11, 9241, Control_c, 11, 11, 90
11, 9241, Note_on_c, 11, 74, 108
11, 9247, Control_c, 11, 11, 93
11, 9253, Control_c, 11, 11, 96
11, 9276, Control_c, 11, 11, 95
11, 9285, Control_c, 11, 11, 92
11, 9294, Control_c, 11, 11, 89
11, 9361, Control_c, 11, 11, 87
11, 9370, Control_c, 11, 11, 84
11, 9379, Control_c, 11, 11, 81
11, 9381, Note_on_c, 11, 74, 0
11, 9381, Note_on_c, 11, 69, 108
11, 9388, Control_c, 11, 11, 78
11, 9396, Note_on_c, 11, 69, 0
11, 9397, Control_c, 11, 11, 75
11, 9401, Note_on_c, 11, 65, 108
11, 9406, Control_c, 11, 11, 72
11, 9411, Note_on_c, 11, 65, 0
11, 9415, Control_c, 11, 11, 69
11, 9421, Note_on_c, 11, 64, 108
11, 9451, Note_on_c, 11, 64, 0
11, 9481, Note_on_c, 11, 65, 88
11, 9481, Control_c, 11, 11, 67
11, 9481, Control_c, 11, 11, 72
11, 9487, Control_c, 11, 11, 66
11, 9489, Control_c, 11, 11, 70
11, 9493, Control_c, 11, 11, 65
11, 9493, Control_c, 11, 11, 69
11, 9499, Control_c, 11, 11, 64
11, 9501, Control_c, 11, 11, 67
11, 9505, Control_c, 11, 11, 63
11, 9505, Control_c, 11, 11, 66
11, 9511, Note_on_c, 11, 65, 0
11, 9511, Control_c, 11, 11, 62
11, 9529, Control_c, 11, 11, 59
11, 9541, Note_on_c, 11, 64, 72
11, 9571, Control_c, 11, 11, 57
11, 9575, Control_c, 11, 11, 54
11, 9579, Control_c, 11, 11, 51
11, 9584, Control_c, 11, 11, 48
11, 9588, Control_c, 11, 11, 45
11, 9592, Control_c, 11, 11, 42
11, 9597, Control_c, 11, 11, 39
11, 9601, Note_on_c, 11, 64, 0
11, 9721, Control_c, 11, 11, 37
11, 9721, Note_on_c, 11, 65, 108
11, 9721, Note_on_c, 11, 55, 108
11, 9781, Note_on_c, 11, 55, 0
11, 9781, Note_on_c, 11, 65, 0
11, 9841, Note_on_c, 11, 65, 108
11, 9841, Note_on_c, 11, 55, 108
11, 9901, Note_on_c, 11, 55, 0
11, 9901, Note_on_c, 11, 65, 0
11, 9961, Note_on_c, 11, 64, 108
11, 9961, Note_on_c, 11, 55, 108
11, 10021, Note_on_c, 11, 55, 0
11, 10021, Note_on_c, 11, 64, 0
11, 10081, Note_on_c, 11, 55, 108
11, 10081, Note_on_c, 11, 62, 108
11, 10141, Note_on_c, 11, 62, 0
11, 10141, Note_on_c, 11, 55, 0
11, 10201, Note_on_c, 11, 55, 108
11, 10201, Note_on_c, 11, 62, 108
11, 10261, Note_on_c, 11, 62, 0
11, 10261, Note_on_c, 11, 55, 0
11, 10321, Note_on_c, 11, 64, 108
11, 10321, Note_on_c, 11, 55, 108
11, 10381, Note_on_c, 11, 55, 0
11, 10381, Note_on_c, 11, 64, 0
11, 10441, Note_on_c, 11, 55, 108
11, 10441, Note_on_c, 11, 65, 108
11, 10501, Note_on_c, 11, 65, 0
11, 10501, Note_on_c, 11, 55, 0
11, 10561, Note_on_c, 11, 65, 108
11, 10561, Note_on_c, 11, 55, 108
11, 10621, Note_on_c, 11, 55, 0
11, 10621, Note_on_c, 11, 65, 0
11, 10681, Note_on_c, 11, 55, 108
11, 10681, Note_on_c, 11, 64, 108
11, 10741, Note_on_c, 11, 64, 0
11, 10741, Note_on_c, 11, 55, 0
11, 10801, Note_on_c, 11, 65, 108
11, 10801, Note_on_c, 11, 55, 108
11, 10846, Note_on_c, 11, 55, 0
11, 10846, Note_on_c, 11, 65, 0
11, 10861, Note_on_c, 11, 65, 108
11, 10861, Note_on_c, 11, 55, 108
11, 10906, Note_on_c, 11, 55, 0
11, 10906, Note_on_c, 11, 65, 0
11, 10921, Note_on_c, 11, 55, 108
11, 10921, Note_on_c, 11, 65, 108
11, 10966, Note_on_c, 11, 65, 0
11, 10966, Note_on_c, 11, 55, 0
11, 10981, Note_on_c, 11, 64, 93
11, 10981, Note_on_c, 11, 55, 93
11, 11016, Control_c, 11, 11, 37
11, 11023, Control_c, 11, 11, 34
11, 11030, Control_c, 11, 11, 31
11, 11037, Control_c, 11, 11, 28
11, 11041, Note_on_c, 11, 55, 0
11, 11041, Note_on_c, 11, 64, 0
11, 11281, Note_on_c, 11, 55, 84
11, 11281, Control_c, 11, 11, 37
11, 11299, Control_c, 11, 11, 40
11, 11317, Control_c, 11, 11, 43
11, 11335, Control_c, 11, 11, 46
11, 11341, Note_on_c, 11, 55, 0
11, 11341, Note_on_c, 11, 60, 108
11, 11371, Note_on_c, 11, 60, 0
11, 11401, Note_on_c, 11, 55, 103
11, 11431, Note_on_c, 11, 55, 0
11, 11461, Note_on_c, 11, 55, 89
11, 11491, Note_on_c, 11, 55, 0
11, 11521, Note_on_c, 11, 55, 76
11, 11556, Control_c, 11, 11, 47
11, 11563, Control_c, 11, 11, 44
11, 11570, Control_c, 11, 11, 41
11, 11577, Control_c, 11, 11, 38
11, 11581, Note_on_c, 11, 55, 0
11, 11641, Control_c, 11, 1, 16
11, 11641, Control_c, 11, 11, 37
11, 11641, Note_on_c, 11, 60, 58
11, 11659, Control_c, 11, 11, 40
11, 11677, Control_c, 11, 11, 43
11, 11695, Control_c, 11, 11, 46
11, 11701, Note_on_c, 11, 60, 0
11, 11701, Note_on_c, 11, 65, 58
11, 11740, Note_on_c, 11, 65, 0
11, 11761, Note_on_c, 11, 65, 58
11, 11800, Note_on_c, 11, 65, 0
11, 11821, Note_on_c, 11, 65, 58
11, 11881, Note_on_c, 11, 65, 0
11, 11881, Note_on_c, 11, 69, 58
11, 11920, Note_on_c, 11, 69, 0
11, 11941, Note_on_c, 11, 69, 58
11, 11980, Note_on_c, 11, 69, 0
11, 12001, Note_on_c, 11, 69, 58
11, 12001, Control_c, 11, 11, 47
11, 12013, Control_c, 11, 11, 50
11, 12025, Control_c, 11, 11, 53
11, 12037, Control_c, 11, 11, 56
11, 12049, Control_c, 11, 11, 59
11, 12061, Note_on_c, 11, 69, 0
11, 12061, Control_c, 11, 11, 62
11, 12061, Note_on_c, 11, 70, 58
11, 12100, Note_on_c, 11, 70, 0
11, 12121, Control_c, 11, 11, 57
11, 12121, Note_on_c, 11, 70, 58
11, 12151, Note_on_c, 11, 70, 0
11, 12166, Note_on_c, 11, 69, 58
11, 12176, Note_on_c, 11, 69, 0
11, 12181, Note_on_c, 11, 67, 58
11, 12211, Note_on_c, 11, 67, 0
11, 12226, Note_on_c, 11, 65, 58
11, 12236, Note_on_c, 11, 65, 0
11, 12241, Control_c, 11, 11, 47
11, 12241, Note_on_c, 11, 64, 58
11, 12280, Note_on_c, 11, 64, 0
11, 12301, Note_on_c, 11, 64, 58
11, 12340, Note_on_c, 11, 64, 0
11, 12361, Note_on_c, 11, 64, 58
11, 12421, Note_on_c, 11, 64, 0
11, 12421, Note_on_c, 11, 65, 61
11, 12421, Control_c, 11, 11, 47
11, 12445, Control_c, 11, 11, 49
11, 12469, Control_c, 11, 11, 51
11, 12481, Note_on_c, 11, 65, 0
11, 12481, Note_on_c, 11, 67, 65
11, 12493, Control_c, 11, 11, 53
11, 12517, Control_c, 11, 11, 55
11, 12541, Note_on_c, 11, 67, 0
11, 12541, Control_c, 11, 11, 57
11, 12541, Note_on_c, 11, 69, 68
11, 12565, Control_c, 11, 11, 59
11, 12589, Control_c, 11, 11, 61
11, 12596, Note_on_c, 11, 69, 0
11, 12601, Note_on_c, 11, 70, 72
11, 12691, Note_on_c, 11, 70, 0
11, 12691, Control_c, 11, 11, 57
11, 12691, Note_on_c, 11, 72, 77
11, 12700, Control_c, 11, 11, 54
11, 12709, Control_c, 11, 11, 51
11, 12716, Note_on_c, 11, 72, 0
11, 12718, Control_c, 11, 11, 48
11, 12721, Note_on_c, 11, 69, 79
11, 12751, Note_on_c, 11, 69, 0
11, 12781, Note_on_c, 11, 67, 83
11, 12781, Control_c, 11, 11, 47
11, 12841, Note_on_c, 11, 67, 0
11, 12901, Note_on_c, 11, 67, 76
11, 12961, Note_on_c, 11, 67, 0
11, 12961, Note_on_c, 11, 72, 108
11, 13000, Note_on_c, 11, 72, 0
11, 13021, Note_on_c, 11, 72, 108
11, 13060, Note_on_c, 11, 72, 0
11, 13081, Control_c, 11, 11, 47
11, 13081, Note_on_c, 11, 72, 108
11, 13093, Control_c, 11, 11, 50
11, 13105, Control_c, 11, 11, 53
11, 13117, Control_c, 11, 11, 56
11, 13129, Control_c, 11, 11, 59
11, 13141, Control_c, 11, 11, 62
11, 13196, Note_on_c, 11, 72, 0
11, 13201, Note_on_c, 11, 71, 108
11, 13201, Control_c, 11, 11, 57
11, 13231, Note_on_c, 11, 71, 0
11, 13246, Note_on_c, 11, 72, 108
11, 13256, Note_on_c, 11, 72, 0
11, 13261, Note_on_c, 11, 74, 108
11, 13291, Note_on_c, 11, 74, 0
11, 13306, Note_on_c, 11, 76, 108
11, 13316, Note_on_c, 11, 76, 0
11, 13321, Note_on_c, 11, 77, 108
11, 13321, Control_c, 11, 11, 47
11, 13360, Note_on_c, 11, 77, 0
11, 13441, Note_on_c, 11, 65, 108
11, 13441, Control_c, 11, 11, 37
11, 13501, Note_on_c, 11, 65, 0
11, 13501, Note_on_c, 11, 64, 108
11, 13525, Control_c, 11, 11, 39
11, 13540, Note_on_c, 11, 64, 0
11, 13549, Control_c, 11, 11, 41
11, 13561, Note_on_c, 11, 64, 108
11, 13573, Control_c, 11, 11, 43
11, 13597, Control_c, 11, 11, 45
11, 13600, Note_on_c, 11, 64, 0
11, 13621, Control_c, 11, 11, 47
11, 13621, Note_on_c, 11, 64, 108
11, 13645, Control_c, 11, 11, 49
11, 13669, Control_c, 11, 11, 51
11, 13681, Note_on_c, 11, 64, 0
11, 13681, Note_on_c, 11, 72, 108
11, 13720, Note_on_c, 11, 72, 0
11, 13741, Note_on_c, 11, 72, 108
11, 13771, Control_c, 11, 11, 47
11, 13780, Note_on_c, 11, 72, 0
11, 13780, Control_c, 11, 11, 44
11, 13789, Control_c, 11, 11, 41
11, 13798, Control_c, 11, 11, 38
11, 13801, Control_c, 11, 1, 36
11, 13801, Note_on_c, 11, 64, 108
11, 13861, Note_on_c, 11, 64, 0
11, 13861, Control_c, 11, 11, 37
11, 13861, Note_on_c, 11, 65, 108
11, 13900, Note_on_c, 11, 65, 0
11, 13921, Note_on_c, 11, 65, 108
11, 13981, Note_on_c, 11, 65, 0
11, 13981, Note_on_c, 11, 69, 108
11, 14041, Note_on_c, 11, 69, 0
11, 14101, Note_on_c, 11, 69, 108
11, 14161, Note_on_c, 11, 69, 0
11, 14161, Control_c, 11, 11, 37
11, 14161, Note_on_c, 11, 72, 108
11, 14173, Control_c, 11, 11, 40
11, 14185, Control_c, 11, 11, 43
11, 14197, Control_c, 11, 11, 46
11, 14209, Control_c, 11, 11, 49
11, 14221, Note_on_c, 11, 72, 0
11, 14221, Note_on_c, 11, 70, 108
11, 14221, Control_c, 11, 11, 52
11, 14260, Note_on_c, 11, 70, 0
11, 14281, Note_on_c, 11, 70, 108
11, 14281, Control_c, 11, 11, 47
11, 14311, Note_on_c, 11, 70, 0
11, 14326, Note_on_c, 11, 69, 108
11, 14336, Note_on_c, 11, 69, 0
11, 14341, Note_on_c, 11, 67, 108
11, 14371, Note_on_c, 11, 67, 0
11, 14386, Note_on_c, 11, 65, 108
11, 14396, Note_on_c, 11, 65, 0
11, 14401, Note_on_c, 11, 64, 108
11, 14401, Control_c, 11, 11, 37
11, 14419, Control_c, 11, 11, 38
11, 14437, Control_c, 11, 11, 39
11, 14455, Control_c, 11, 11, 40
11, 14461, Note_on_c, 11, 64, 0
11, 14461, Note_on_c, 11, 67, 93
11, 14473, Control_c, 11, 11, 41
11, 14491, Control_c, 11, 11, 42
11, 14509, Control_c, 11, 11, 43
11, 14521, Note_on_c, 11, 67, 0
11, 14521, Note_on_c, 11, 72, 108
11, 14527, Control_c, 11, 11, 44
11, 14545, Control_c, 11, 11, 45
11, 14563, Control_c, 11, 11, 46
11, 14576, Note_on_c, 11, 72, 0
11, 14581, Control_c, 11, 11, 47
11, 14581, Note_on_c, 11, 72, 108
11, 14599, Control_c, 11, 11, 48
11, 14606, Note_on_c, 11, 72, 0
11, 14611, Note_on_c, 11, 72, 108
11, 14617, Control_c, 11, 11, 49
11, 14635, Control_c, 11, 11, 50
11, 14636, Note_on_c, 11, 72, 0
11, 14641, Note_on_c, 11, 72, 108
11, 14653, Control_c, 11, 11, 51
11, 14666, Note_on_c, 11, 72, 0
11, 14671, Control_c, 11, 11, 52
11, 14671, Note_on_c, 11, 72, 108
11, 14689, Control_c, 11, 11, 53
11, 14696, Note_on_c, 11, 72, 0
11, 14701, Note_on_c, 11, 72, 108
11, 14707, Control_c, 11, 11, 54
11, 14725, Control_c, 11, 11, 55
11, 14726, Note_on_c, 11, 72, 0
11, 14731, Note_on_c, 11, 72, 108
11, 14743, Control_c, 11, 11, 56
11, 14756, Note_on_c, 11, 72, 0
11, 14761, Note_on_c, 11, 72, 108
11, 14761, Control_c, 11, 11, 57
11, 14786, Note_on_c, 11, 72, 0
11, 14791, Note_on_c, 11, 72, 108
11, 14816, Note_on_c, 11, 72, 0
11, 14821, Note_on_c, 11, 72, 108
11, 14846, Note_on_c, 11, 72, 0
11, 14851, Note_on_c, 11, 72, 108
11, 14876, Note_on_c, 11, 72, 0
11, 14881, Note_on_c, 11, 72, 108
11, 14906, Note_on_c, 11, 72, 0
11, 14911, Note_on_c, 11, 72, 108
11, 14936, Note_on_c, 11, 72, 0
11, 14941, Note_on_c, 11, 72, 108
11, 15001, Note_on_c, 11, 72, 0
11, 15061, Note_on_c, 11, 67, 108
11, 15116, Note_on_c, 11, 67, 0
11, 15121, Control_c, 11, 11, 56
11, 15121, Note_on_c, 11, 69, 123
11, 15123, Control_c, 11, 11, 59
11, 15125, Control_c, 11, 11, 62
11, 15127, Control_c, 11, 11, 65
11, 15129, Control_c, 11, 11, 68
11, 15131, Control_c, 11, 11, 71
11, 15133, Control_c, 11, 11, 74
11, 15147, Control_c, 11, 11, 71
11, 15154, Control_c, 11, 11, 68
11, 15161, Control_c, 11, 11, 65
11, 15169, Control_c, 11, 11, 62
11, 15176, Control_c, 11, 11, 59
11, 15226, Note_on_c, 11, 69, 0
11, 15226, Note_on_c, 11, 65, 108
11, 15236, Note_on_c, 11, 65, 0
11, 15241, Note_on_c, 11, 72, 108
11, 15286, Note_on_c, 11, 72, 0
11, 15286, Note_on_c, 11, 69, 108
11, 15296, Note_on_c, 11, 69, 0
11, 15301, Note_on_c, 11, 67, 108
11, 15361, Note_on_c, 11, 67, 0
11, 15421, Note_on_c, 11, 67, 108
11, 15476, Note_on_c, 11, 67, 0
11, 15481, Control_c, 11, 11, 62
11, 15481, Note_on_c, 11, 69, 123
11, 15483, Control_c, 11, 11, 65
11, 15485, Control_c, 11, 11, 68
11, 15487, Control_c, 11, 11, 71
11, 15489, Control_c, 11, 11, 74
11, 15491, Control_c, 11, 11, 77
11, 15493, Control_c, 11, 11, 80
11, 15507, Control_c, 11, 11, 77
11, 15514, Control_c, 11, 11, 74
11, 15521, Control_c, 11, 11, 71
11, 15529, Control_c, 11, 11, 68
11, 15536, Control_c, 11, 11, 65
11, 15586, Note_on_c, 11, 69, 0
11, 15586, Note_on_c, 11, 65, 108
11, 15596, Note_on_c, 11, 65, 0
11, 15601, Note_on_c, 11, 72, 108
11, 15646, Note_on_c, 11, 72, 0
11, 15646, Note_on_c, 11, 69, 108
11, 15656, Note_on_c, 11, 69, 0
11, 15661, Note_on_c, 11, 67, 108
11, 15691, Note_on_c, 11, 67, 0
11, 15721, Note_on_c, 11, 72, 108
11, 15721, Control_c, 11, 11, 68
11, 15723, Control_c, 11, 11, 71
11, 15725, Control_c, 11, 11, 74
11, 15727, Control_c, 11, 11, 77
11, 15729, Control_c, 11, 11, 80
11, 15731, Control_c, 11, 11, 83
11, 15733, Control_c, 11, 11, 86
11, 15747, Control_c, 11, 11, 83
11, 15754, Control_c, 11, 11, 80
11, 15761, Control_c, 11, 11, 77
11, 15769, Control_c, 11, 11, 74
11, 15776, Control_c, 11, 11, 71
11, 15811, Note_on_c, 11, 72, 0
11, 15811, Note_on_c, 11, 69, 108
11, 15836, Note_on_c, 11, 69, 0
11, 15841, Note_on_c, 11, 67, 108
11, 15871, Note_on_c, 11, 67, 0
11, 15901, Note_on_c, 11, 72, 108
11, 15901, Control_c, 11, 11, 72
11, 15903, Control_c, 11, 11, 75
11, 15906, Control_c, 11, 11, 79
11, 15909, Control_c, 11, 11, 82
11, 15911, Control_c, 11, 11, 85
11, 15931, Note_on_c, 11, 72, 0
11, 15931, Note_on_c, 11, 71, 108
11, 15931, Control_c, 11, 11, 84
11, 15949, Control_c, 11, 11, 81
11, 15961, Note_on_c, 11, 71, 0
11, 15961, Note_on_c, 11, 72, 108
11, 15991, Note_on_c, 11, 72, 0
11, 15991, Note_on_c, 11, 69, 108
11, 16016, Note_on_c, 11, 69, 0
11, 16021, Control_c, 11, 11, 87
11, 16021, Note_on_c, 11, 67, 98
11, 16060, Note_on_c, 11, 67, 0
11, 16081, Note_on_c, 11, 64, 89
11, 16081, Note_on_c, 11, 55, 89
11, 16120, Note_on_c, 11, 55, 0
11, 16120, Note_on_c, 11, 64, 0
11, 16141, Note_on_c, 11, 55, 86
11, 16141, Note_on_c, 11, 64, 86
11, 16180, Note_on_c, 11, 64, 0
11, 16180, Note_on_c, 11, 55, 0
11, 16201, Note_on_c, 11, 55, 83
11, 16201, Note_on_c, 11, 64, 83
11, 16236, Control_c, 11, 11, 87
11, 16238, Control_c, 11, 11, 84
11, 16241, Control_c, 11, 11, 81
11, 16244, Control_c, 11, 11, 78
11, 16247, Control_c, 11, 11, 75
11, 16250, Control_c, 11, 11, 72
11, 16253, Control_c, 11, 11, 69
11, 16256, Control_c, 11, 11, 66
11, 16259, Control_c, 11, 11, 63
11, 16261, Note_on_c, 11, 64, 0
11, 16261, Note_on_c, 11, 55, 0
11, 16501, Control_c, 11, 11, 37
11, 16501, Note_on_c, 11, 73, 93
11, 16519, Control_c, 11, 11, 40
11, 16537, Control_c, 11, 11, 43
11, 16555, Control_c, 11, 11, 46
11, 16561, Note_on_c, 11, 73, 0
11, 16561, Note_on_c, 11, 74, 108
11, 16600, Note_on_c, 11, 74, 0
11, 16681, Note_on_c, 11, 69, 108
11, 16681, Control_c, 11, 11, 37
11, 16699, Control_c, 11, 11, 40
11, 16717, Control_c, 11, 11, 43
11, 16726, Note_on_c, 11, 69, 0
11, 16726, Note_on_c, 11, 65, 108
11, 16735, Control_c, 11, 11, 46
11, 16736, Note_on_c, 11, 65, 0
11, 16741, Note_on_c, 11, 62, 108
11, 16780, Note_on_c, 11, 62, 0
11, 16861, Note_on_c, 11, 71, 93
11, 16861, Control_c, 11, 11, 32
11, 16872, Control_c, 11, 11, 35
11, 16884, Control_c, 11, 11, 38
11, 16895, Control_c, 11, 11, 41
11, 16907, Control_c, 11, 11, 44
11, 16921, Note_on_c, 11, 71, 0
11, 16921, Note_on_c, 11, 72, 108
11, 16960, Note_on_c, 11, 72, 0
11, 17041, Control_c, 11, 11, 37
11, 17041, Note_on_c, 11, 67, 108
11, 17059, Control_c, 11, 11, 40
11, 17077, Control_c, 11, 11, 43
11, 17086, Note_on_c, 11, 67, 0
11, 17086, Note_on_c, 11, 64, 108
11, 17095, Control_c, 11, 11, 46
11, 17096, Note_on_c, 11, 64, 0
11, 17101, Note_on_c, 11, 60, 108
11, 17140, Note_on_c, 11, 60, 0
11, 17161, Note_on_c, 11, 67, 108
11, 17213, Note_on_c, 11, 67, 0
11, 17221, Note_on_c, 11, 67, 108
11, 17273, Note_on_c, 11, 67, 0
11, 17281, Note_on_c, 11, 67, 108
11, 17396, Note_on_c, 11, 67, 0
11, 17401, Note_on_c, 11, 67, 108
11, 17456, Note_on_c, 11, 67, 0
11, 17461, Note_on_c, 11, 67, 108
11, 17461, Control_c, 11, 11, 47
11, 17479, Control_c, 11, 11, 50
11, 17497, Control_c, 11, 11, 53
11, 17515, Control_c, 11, 11, 56
11, 17521, Note_on_c, 11, 67, 0
11, 17521, Note_on_c, 11, 74, 108
11, 17533, Control_c, 11, 11, 56
11, 17557, Control_c, 11, 11, 54
11, 17581, Control_c, 11, 11, 52
11, 17596, Note_on_c, 11, 74, 0
11, 17596, Note_on_c, 11, 72, 108
11, 17605, Control_c, 11, 11, 50
11, 17611, Note_on_c, 11, 72, 0
11, 17611, Note_on_c, 11, 71, 108
11, 17626, Note_on_c, 11, 71, 0
11, 17626, Note_on_c, 11, 72, 108
11, 17629, Control_c, 11, 11, 48
11, 17636, Note_on_c, 11, 72, 0
11, 17641, Note_on_c, 11, 71, 108
11, 17701, Note_on_c, 11, 71, 0
11, 17761, Control_c, 11, 11, 37
11, 17761, Note_on_c, 11, 67, 93
11, 17781, Control_c, 11, 11, 40
11, 17801, Control_c, 11, 11, 43
11, 17821, Note_on_c, 11, 67, 0
11, 17821, Control_c, 11, 11, 46
11, 17821, Note_on_c, 11, 76, 108
11, 17860, Note_on_c, 11, 76, 0
11, 17941, Note_on_c, 11, 76, 93
11, 18001, Note_on_c, 11, 76, 0
11, 18001, Note_on_c, 11, 77, 108
11, 18040, Note_on_c, 11, 77, 0
11, 18061, Note_on_c, 11, 81, 108
11, 18061, Control_c, 11, 11, 47
11, 18070, Control_c, 11, 11, 50
11, 18079, Control_c, 11, 11, 53
11, 18088, Control_c, 11, 11, 56
11, 18091, Note_on_c, 11, 81, 0
11, 18091, Note_on_c, 11, 80, 108
11, 18097, Control_c, 11, 11, 59
11, 18106, Control_c, 11, 11, 62
11, 18115, Control_c, 11, 11, 65
11, 18121, Note_on_c, 11, 80, 0
11, 18121, Note_on_c, 11, 81, 108
11, 18130, Control_c, 11, 11, 64
11, 18139, Control_c, 11, 11, 61
11, 18148, Control_c, 11, 11, 58
11, 18151, Note_on_c, 11, 81, 0
11, 18151, Note_on_c, 11, 77, 108
11, 18157, Control_c, 11, 11, 55
11, 18166, Control_c, 11, 11, 52
11, 18175, Control_c, 11, 11, 49
11, 18176, Note_on_c, 11, 77, 0
11, 18181, Note_on_c, 11, 74, 108
11, 18241, Note_on_c, 11, 74, 0
11, 18301, Note_on_c, 11, 74, 93
11, 18361, Note_on_c, 11, 74, 0
11, 18361, Note_on_c, 11, 76, 108
11, 18400, Note_on_c, 11, 76, 0
11, 18541, Note_on_c, 11, 67, 108
11, 18541, Control_c, 11, 11, 47
11, 18556, Note_on_c, 11, 67, 0
11, 18562, Control_c, 11, 11, 50
11, 18571, Note_on_c, 11, 70, 108
11, 18577, Control_c, 11, 11, 52
11, 18586, Note_on_c, 11, 70, 0
11, 18598, Control_c, 11, 11, 55
11, 18601, Note_on_c, 11, 67, 108
11, 18613, Control_c, 11, 11, 57
11, 18616, Note_on_c, 11, 67, 0
11, 18631, Note_on_c, 11, 70, 108
11, 18634, Control_c, 11, 11, 60
11, 18646, Note_on_c, 11, 70, 0
11, 18649, Control_c, 11, 11, 62
11, 18661, Note_on_c, 11, 67, 108
11, 18670, Control_c, 11, 11, 65
11, 18676, Note_on_c, 11, 67, 0
11, 18685, Control_c, 11, 11, 67
11, 18691, Note_on_c, 11, 70, 108
11, 18706, Note_on_c, 11, 70, 0
11, 18706, Control_c, 11, 11, 70
11, 18721, Note_on_c, 11, 62, 108
11, 18721, Control_c, 11, 11, 72
11, 18736, Control_c, 11, 11, 73
11, 18751, Note_on_c, 11, 62, 0
11, 18751, Control_c, 11, 11, 74
11, 18751, Note_on_c, 11, 64, 108
11, 18766, Control_c, 11, 11, 75
11, 18781, Note_on_c, 11, 64, 0
11, 18781, Note_on_c, 11, 65, 108
11, 18781, Control_c, 11, 11, 76
11, 18796, Control_c, 11, 11, 77
11, 18811, Note_on_c, 11, 65, 0
11, 18811, Control_c, 11, 11, 78
11, 18811, Note_on_c, 11, 67, 108
11, 18826, Control_c, 11, 11, 79
11, 18841, Note_on_c, 11, 67, 0
11, 18841, Control_c, 11, 11, 80
11, 18841, Note_on_c, 11, 68, 108
11, 18856, Control_c, 11, 11, 81
11, 18871, Note_on_c, 11, 68, 0
11, 18871, Control_c, 11, 11, 82
11, 18871, Note_on_c, 11, 69, 108
11, 18883, Control_c, 11, 11, 78
11, 18885, Control_c, 11, 11, 75
11, 18887, Control_c, 11, 11, 71
11, 18889, Control_c, 11, 11, 68
11, 18891, Control_c, 11, 11, 64
11, 18893, Control_c, 11, 11, 61
11, 18895, Control_c, 11, 11, 57
11, 18896, Note_on_c, 11, 69, 0
11, 18897, Control_c, 11, 11, 54
11, 18899, Control_c, 11, 11, 50
11, 18901, Note_on_c, 11, 64, 108
11, 18901, Control_c, 11, 11, 47
11, 18931, Note_on_c, 11, 64, 0
11, 18931, Note_on_c, 11, 67, 108
11, 18961, Note_on_c, 11, 67, 0
11, 18961, Note_on_c, 11, 64, 108
11, 18991, Note_on_c, 11, 64, 0
11, 18991, Note_on_c, 11, 67, 108
11, 19021, Note_on_c, 11, 67, 0
11, 19021, Note_on_c, 11, 65, 108
11, 19051, Note_on_c, 11, 65, 0
11, 19051, Note_on_c, 11, 67, 108
11, 19076, Note_on_c, 11, 67, 0
11, 19081, Note_on_c, 11, 64, 108
11, 19141, Note_on_c, 11, 64, 0
11, 19186, Note_on_c, 11, 74, 108
11, 19194, Note_on_c, 11, 74, 0
11, 19201, Note_on_c, 11, 76, 108
11, 19224, Note_on_c, 11, 76, 0
11, 19246, Note_on_c, 11, 77, 108
11, 19254, Note_on_c, 11, 77, 0
11, 19261, Note_on_c, 11, 76, 108
11, 19291, Note_on_c, 11, 76, 0
11, 19366, Note_on_c, 11, 71, 108
11, 19374, Note_on_c, 11, 71, 0
11, 19381, Note_on_c, 11, 72, 108
11, 19404, Note_on_c, 11, 72, 0
11, 19426, Note_on_c, 11, 74, 108
11, 19434, Note_on_c, 11, 74, 0
11, 19441, Note_on_c, 11, 72, 108
11, 19471, Note_on_c, 11, 72, 0
11, 19546, Note_on_c, 11, 67, 108
11, 19554, Note_on_c, 11, 67, 0
11, 19561, Note_on_c, 11, 69, 108
11, 19584, Note_on_c, 11, 69, 0
11, 19606, Note_on_c, 11, 70, 108
11, 19614, Note_on_c, 11, 70, 0
11, 19621, Note_on_c, 11, 69, 108
11, 19644, Note_on_c, 11, 69, 0
11, 19666, Note_on_c, 11, 65, 108
11, 19674, Note_on_c, 11, 65, 0
11, 19681, Note_on_c, 11, 64, 108
11, 19720, Note_on_c, 11, 64, 0
11, 19741, Note_on_c, 11, 65, 108
11, 19771, Note_on_c, 11, 65, 0
11, 19801, Note_on_c, 11, 64, 108
11, 19861, Note_on_c, 11, 64, 0
11, 19906, Note_on_c, 11, 71, 108
11, 19906, Control_c, 11, 11, 87
11, 19914, Note_on_c, 11, 71, 0
11, 19921, Note_on_c, 11, 72, 108
11, 19944, Note_on_c, 11, 72, 0
11, 19966, Note_on_c, 11, 74, 108
11, 19974, Note_on_c, 11, 74, 0
11, 19981, Note_on_c, 11, 72, 108
11, 20011, Note_on_c, 11, 72, 0
11, 20086, Note_on_c, 11, 68, 108
11, 20094, Note_on_c, 11, 68, 0
11, 20101, Note_on_c, 11, 69, 108
11, 20124, Note_on_c, 11, 69, 0
11, 20146, Note_on_c, 11, 71, 108
11, 20154, Note_on_c, 11, 71, 0
11, 20161, Note_on_c, 11, 69, 108
11, 20191, Note_on_c, 11, 69, 0
11, 20266, Note_on_c, 11, 71, 108
11, 20274, Note_on_c, 11, 71, 0
11, 20281, Note_on_c, 11, 72, 108
11, 20304, Note_on_c, 11, 72, 0
11, 20326, Note_on_c, 11, 74, 108
11, 20334, Note_on_c, 11, 74, 0
11, 20341, Note_on_c, 11, 72, 108
11, 20371, Note_on_c, 11, 72, 0
11, 20401, Note_on_c, 11, 70, 108
11, 20401, Control_c, 11, 11, 90
11, 20407, Control_c, 11, 11, 93
11, 20413, Control_c, 11, 11, 96
11, 20436, Control_c, 11, 11, 95
11, 20445, Control_c, 11, 11, 92
11, 20454, Control_c, 11, 11, 89
11, 20521, Note_on_c, 11, 70, 0
11, 20521, Note_on_c, 11, 69, 108
11, 20551, Note_on_c, 11, 69, 0
11, 20581, Note_on_c, 11, 72, 108
11, 20581, Control_c, 11, 11, 90
11, 20590, Control_c, 11, 11, 93
11, 20600, Control_c, 11, 11, 96
11, 20616, Control_c, 11, 11, 95
11, 20625, Control_c, 11, 11, 92
11, 20634, Control_c, 11, 11, 89
11, 20701, Note_on_c, 11, 72, 0
11, 20701, Note_on_c, 11, 71, 108
11, 20731, Note_on_c, 11, 71, 0
11, 20761, Control_c, 11, 11, 90
11, 20761, Note_on_c, 11, 74, 108
11, 20767, Control_c, 11, 11, 93
11, 20773, Control_c, 11, 11, 96
11, 20796, Control_c, 11, 11, 95
11, 20805, Control_c, 11, 11, 92
11, 20814, Control_c, 11, 11, 89
11, 20881, Control_c, 11, 11, 87
11, 20890, Control_c, 11, 11, 84
11, 20899, Control_c, 11, 11, 81
11, 20901, Note_on_c, 11, 74, 0
11, 20901, Note_on_c, 11, 69, 108
11, 20908, Control_c, 11, 11, 78
11, 20916, Note_on_c, 11, 69, 0
11, 20917, Control_c, 11, 11, 75
11, 20921, Note_on_c, 11, 65, 108
11, 20926, Control_c, 11, 11, 72
11, 20931, Note_on_c, 11, 65, 0
11, 20935, Control_c, 11, 11, 69
11, 20941, Note_on_c, 11, 64, 108
11, 20971, Note_on_c, 11, 64, 0
11, 21001, Note_on_c, 11, 65, 88
11, 21001, Control_c, 11, 11, 72
11, 21001, Control_c, 11, 11, 67
11, 21009, Control_c, 11, 11, 70
11, 21013, Control_c, 11, 11, 65
11, 21013, Control_c, 11, 11, 69
11, 21019, Control_c, 11, 11, 64
11, 21021, Control_c, 11, 11, 67
11, 21025, Control_c, 11, 11, 63
11, 21031, Note_on_c, 11, 65, 0
11, 21049, Control_c, 11, 11, 59
11, 21061, Note_on_c, 11, 64, 72
11, 21091, Control_c, 11, 11, 57
11, 21095, Control_c, 11, 11, 54
11, 21099, Control_c, 11, 11, 51
11, 21104, Control_c, 11, 11, 48
11, 21108, Control_c, 11, 11, 45
11, 21112, Control_c, 11, 11, 42
11, 21117, Control_c, 11, 11, 39
11, 21121, Note_on_c, 11, 64, 0
11, 21241, Note_on_c, 11, 55, 108
11, 21241, Note_on_c, 11, 65, 108
11, 21241, Control_c, 11, 11, 37
11, 21301, Note_on_c, 11, 65, 0
11, 21301, Note_on_c, 11, 55, 0
11, 21361, Note_on_c, 11, 65, 108
11, 21361, Note_on_c, 11, 55, 108
11, 21421, Note_on_c, 11, 55, 0
11, 21421, Note_on_c, 11, 65, 0
11, 21481, Note_on_c, 11, 64, 108
11, 21481, Note_on_c, 11, 55, 108
11, 21541, Note_on_c, 11, 55, 0
11, 21541, Note_on_c, 11, 64, 0
11, 21601, Note_on_c, 11, 62, 108
11, 21601, Note_on_c, 11, 55, 108
11, 21661, Note_on_c, 11, 55, 0
11, 21661, Note_on_c, 11, 62, 0
11, 21721, Note_on_c, 11, 55, 108
11, 21721, Note_on_c, 11, 62, 108
11, 21781, Note_on_c, 11, 62, 0
11, 21781, Note_on_c, 11, 55, 0
11, 21841, Note_on_c, 11, 64, 108
11, 21841, Note_on_c, 11, 55, 108
11, 21901, Note_on_c, 11, 55, 0
11, 21901, Note_on_c, 11, 64, 0
11, 21961, Note_on_c, 11, 55, 108
11, 21961, Note_on_c, 11, 65, 108
11, 22021, Note_on_c, 11, 65, 0
11, 22021, Note_on_c, 11, 55, 0
11, 22081, Note_on_c, 11, 65, 108
11, 22081, Note_on_c, 11, 55, 108
11, 22141, Note_on_c, 11, 55, 0
11, 22141, Note_on_c, 11, 65, 0
11, 22201, Note_on_c, 11, 55, 108
11, 22201, Note_on_c, 11, 64, 108
11, 22261, Note_on_c, 11, 64, 0
11, 22261, Note_on_c, 11, 55, 0
11, 22321, Note_on_c, 11, 55, 108
11, 22321, Note_on_c, 11, 65, 108
11, 22366, Note_on_c, 11, 65, 0
11, 22366, Note_on_c, 11, 55, 0
11, 22381, Note_on_c, 11, 55, 108
11, 22381, Note_on_c, 11, 65, 108
11, 22426, Note_on_c, 11, 65, 0
11, 22426, Note_on_c, 11, 55, 0
11, 22441, Note_on_c, 11, 55, 108
11, 22441, Note_on_c, 11, 65, 108
11, 22486, Note_on_c, 11, 65, 0
11, 22486, Note_on_c, 11, 55, 0
11, 22501, Note_on_c, 11, 55, 93
11, 22501, Note_on_c, 11, 64, 93
11, 22536, Control_c, 11, 11, 37
11, 22543, Control_c, 11, 11, 34
11, 22550, Control_c, 11, 11, 31
11, 22557, Control_c, 11, 11, 28
11, 22561, Note_on_c, 11, 64, 0
11, 22561, Note_on_c, 11, 55, 0
11, 22801, Note_on_c, 11, 55, 84
11, 22801, Control_c, 11, 11, 37
11, 22819, Control_c, 11, 11, 40
11, 22837, Control_c, 11, 11, 43
11, 22855, Control_c, 11, 11, 46
11, 22861, Note_on_c, 11, 55, 0
11, 22861, Note_on_c, 11, 60, 108
11, 22891, Note_on_c, 11, 60, 0
11, 22921, Note_on_c, 11, 55, 103
11, 22951, Note_on_c, 11, 55, 0
11, 22981, Note_on_c, 11, 55, 89
11, 23011, Note_on_c, 11, 55, 0
11, 23041, Note_on_c, 11, 55, 84
11, 23076, Control_c, 11, 11, 47
11, 23083, Control_c, 11, 11, 44
11, 23090, Control_c, 11, 11, 41
11, 23097, Control_c, 11, 11, 38
11, 23101, Note_on_c, 11, 55, 0
11, 23521, Control_c, 11, 11, 32
11, 23521, Note_on_c, 11, 60, 94
11, 23545, Control_c, 11, 11, 34
11, 23569, Control_c, 11, 11, 36
11, 23581, Note_on_c, 11, 60, 0
11, 23581, Note_on_c, 11, 63, 108
11, 23641, Note_on_c, 11, 63, 0
11, 23701, Control_c, 11, 11, 32
11, 23701, Note_on_c, 11, 67, 95
11, 23725, Control_c, 11, 11, 34
11, 23749, Control_c, 11, 11, 36
11, 23761, Note_on_c, 11, 67, 0
11, 23761, Note_on_c, 11, 72, 108
11, 23821, Note_on_c, 11, 72, 0
11, 23881, Control_c, 11, 11, 32
11, 23881, Note_on_c, 11, 63, 96
11, 23893, Control_c, 11, 11, 35
11, 23905, Control_c, 11, 11, 38
11, 23917, Control_c, 11, 11, 41
11, 23929, Control_c, 11, 11, 44
11, 23941, Note_on_c, 11, 63, 0
11, 23941, Control_c, 11, 11, 47
11, 23941, Note_on_c, 11, 66, 108
11, 24001, Note_on_c, 11, 66, 0
11, 24061, Note_on_c, 11, 72, 97
11, 24061, Control_c, 11, 11, 52
11, 24070, Control_c, 11, 11, 55
11, 24079, Control_c, 11, 11, 58
11, 24088, Control_c, 11, 11, 61
11, 24097, Control_c, 11, 11, 64
11, 24106, Control_c, 11, 11, 67
11, 24115, Control_c, 11, 11, 70
11, 24121, Note_on_c, 11, 72, 0
11, 24121, Note_on_c, 11, 75, 108
11, 24181, Note_on_c, 11, 75, 0
11, 24241, Control_c, 11, 11, 87
11, 24241, Note_on_c, 11, 60, 75
11, 24253, Control_c, 11, 11, 90
11, 24265, Control_c, 11, 11, 93
11, 24277, Control_c, 11, 11, 96
11, 24289, Control_c, 11, 11, 99
11, 24301, Note_on_c, 11, 60, 0
11, 24301, Note_on_c, 11, 61, 68
11, 24301, Control_c, 11, 11, 102
11, 24310, Control_c, 11, 11, 99
11, 24320, Control_c, 11, 11, 96
11, 24328, Note_on_c, 11, 61, 0
11, 24330, Control_c, 11, 11, 93
11, 24340, Control_c, 11, 11, 90
11, 24346, Note_on_c, 11, 61, 68
11, 24350, Control_c, 11, 11, 87
11, 24355, Note_on_c, 11, 61, 0
11, 24359, Control_c, 11, 11, 84
11, 24361, Note_on_c, 11, 61, 66
11, 24369, Control_c, 11, 11, 81
11, 24379, Control_c, 11, 11, 78
11, 24388, Note_on_c, 11, 61, 0
11, 24389, Control_c, 11, 11, 75
11, 24399, Control_c, 11, 11, 72
11, 24406, Note_on_c, 11, 61, 60
11, 24409, Control_c, 11, 11, 69
11, 24415, Note_on_c, 11, 61, 0
11, 24418, Control_c, 11, 11, 66
11, 24421, Note_on_c, 11, 61, 60
11, 24428, Control_c, 11, 11, 63
11, 24438, Control_c, 11, 11, 60
11, 24448, Note_on_c, 11, 61, 0
11, 24448, Control_c, 11, 11, 57
11, 24458, Control_c, 11, 11, 54
11, 24466, Note_on_c, 11, 61, 54
11, 24467, Control_c, 11, 11, 51
11, 24475, Note_on_c, 11, 61, 0
11, 24477, Control_c, 11, 11, 48
11, 24481, Note_on_c, 11, 61, 52
11, 24508, Note_on_c, 11, 61, 0
11, 24526, Note_on_c, 11, 61, 52
11, 24535, Note_on_c, 11, 61, 0
11, 24541, Note_on_c, 11, 61, 52
11, 24568, Note_on_c, 11, 61, 0
11, 24586, Note_on_c, 11, 61, 52
11, 24595, Note_on_c, 11, 61, 0
11, 24601, Note_on_c, 11, 61, 52
11, 24628, Note_on_c, 11, 61, 0
11, 24646, Note_on_c, 11, 61, 67
11, 24655, Note_on_c, 11, 61, 0
11, 24661, Control_c, 11, 11, 67
11, 24661, Note_on_c, 11, 63, 68
11, 24664, Control_c, 11, 11, 70
11, 24667, Control_c, 11, 11, 73
11, 24670, Control_c, 11, 11, 76
11, 24676, Control_c, 11, 11, 73
11, 24680, Control_c, 11, 11, 70
11, 24683, Control_c, 11, 11, 67
11, 24686, Control_c, 11, 11, 64
11, 24688, Note_on_c, 11, 63, 0
11, 24690, Control_c, 11, 11, 61
11, 24693, Control_c, 11, 11, 58
11, 24697, Control_c, 11, 11, 55
11, 24700, Control_c, 11, 11, 52
11, 24703, Control_c, 11, 11, 49
11, 24706, Note_on_c, 11, 63, 52
11, 24715, Note_on_c, 11, 63, 0
11, 24721, Note_on_c, 11, 63, 52
11, 24748, Note_on_c, 11, 63, 0
11, 24766, Note_on_c, 11, 63, 52
11, 24775, Note_on_c, 11, 63, 0
11, 24781, Note_on_c, 11, 63, 52
11, 24808, Note_on_c, 11, 63, 0
11, 24826, Note_on_c, 11, 63, 52
11, 24835, Note_on_c, 11, 63, 0
11, 24841, Note_on_c, 11, 63, 52
11, 24868, Note_on_c, 11, 63, 0
11, 24886, Note_on_c, 11, 63, 52
11, 24895, Note_on_c, 11, 63, 0
11, 24901, Note_on_c, 11, 63, 52
11, 24928, Note_on_c, 11, 63, 0
11, 24946, Note_on_c, 11, 63, 52
11, 24955, Note_on_c, 11, 63, 0
11, 24961, Note_on_c, 11, 63, 52
11, 24988, Note_on_c, 11, 63, 0
11, 25006, Note_on_c, 11, 63, 68
11, 25015, Note_on_c, 11, 63, 0
11, 25021, Note_on_c, 11, 61, 68
11, 25021, Control_c, 11, 11, 67
11, 25024, Control_c, 11, 11, 70
11, 25027, Control_c, 11, 11, 73
11, 25030, Control_c, 11, 11, 76
11, 25036, Control_c, 11, 11, 73
11, 25040, Control_c, 11, 11, 70
11, 25043, Control_c, 11, 11, 67
11, 25046, Control_c, 11, 11, 64
11, 25048, Note_on_c, 11, 61, 0
11, 25050, Control_c, 11, 11, 61
11, 25053, Control_c, 11, 11, 58
11, 25057, Control_c, 11, 11, 55
11, 25060, Control_c, 11, 11, 52
11, 25063, Control_c, 11, 11, 49
11, 25066, Note_on_c, 11, 61, 52
11, 25075, Note_on_c, 11, 61, 0
11, 25081, Note_on_c, 11, 61, 52
11, 25108, Note_on_c, 11, 61, 0
11, 25126, Note_on_c, 11, 61, 52
11, 25135, Note_on_c, 11, 61, 0
11, 25141, Note_on_c, 11, 61, 52
11, 25168, Note_on_c, 11, 61, 0
11, 25186, Note_on_c, 11, 61, 52
11, 25195, Note_on_c, 11, 61, 0
11, 25201, Note_on_c, 11, 61, 52
11, 25228, Note_on_c, 11, 61, 0
11, 25246, Note_on_c, 11, 61, 52
11, 25255, Note_on_c, 11, 61, 0
11, 25261, Note_on_c, 11, 61, 52
11, 25288, Note_on_c, 11, 61, 0
11, 25306, Note_on_c, 11, 61, 52
11, 25315, Note_on_c, 11, 61, 0
11, 25321, Note_on_c, 11, 61, 52
11, 25348, Note_on_c, 11, 61, 0
11, 25366, Note_on_c, 11, 61, 68
11, 25375, Note_on_c, 11, 61, 0
11, 25381, Note_on_c, 11, 63, 68
11, 25381, Control_c, 11, 11, 67
11, 25384, Control_c, 11, 11, 70
11, 25387, Control_c, 11, 11, 73
11, 25390, Control_c, 11, 11, 76
11, 25396, Control_c, 11, 11, 73
11, 25400, Control_c, 11, 11, 70
11, 25403, Control_c, 11, 11, 67
11, 25406, Control_c, 11, 11, 64
11, 25408, Note_on_c, 11, 63, 0
11, 25410, Control_c, 11, 11, 61
11, 25413, Control_c, 11, 11, 58
11, 25417, Control_c, 11, 11, 55
11, 25420, Control_c, 11, 11, 52
11, 25423, Control_c, 11, 11, 49
11, 25426, Note_on_c, 11, 63, 52
11, 25435, Note_on_c, 11, 63, 0
11, 25441, Note_on_c, 11, 63, 52
11, 25468, Note_on_c, 11, 63, 0
11, 25486, Note_on_c, 11, 63, 52
11, 25495, Note_on_c, 11, 63, 0
11, 25501, Note_on_c, 11, 63, 52
11, 25528, Note_on_c, 11, 63, 0
11, 25546, Note_on_c, 11, 63, 52
11, 25555, Note_on_c, 11, 63, 0
11, 25561, Note_on_c, 11, 63, 52
11, 25588, Note_on_c, 11, 63, 0
11, 25606, Note_on_c, 11, 63, 52
11, 25615, Note_on_c, 11, 63, 0
11, 25621, Note_on_c, 11, 63, 52
11, 25648, Note_on_c, 11, 63, 0
11, 25666, Note_on_c, 11, 63, 52
11, 25675, Note_on_c, 11, 63, 0
11, 25681, Note_on_c, 11, 63, 52
11, 25708, Note_on_c, 11, 63, 0
11, 25726, Note_on_c, 11, 63, 68
11, 25735, Note_on_c, 11, 63, 0
11, 25741, Note_on_c, 11, 61, 68
11, 25741, Control_c, 11, 11, 67
11, 25744, Control_c, 11, 11, 70
11, 25747, Control_c, 11, 11, 73
11, 25750, Control_c, 11, 11, 76
11, 25756, Control_c, 11, 11, 73
11, 25760, Control_c, 11, 11, 70
11, 25763, Control_c, 11, 11, 67
11, 25766, Control_c, 11, 11, 64
11, 25768, Note_on_c, 11, 61, 0
11, 25770, Control_c, 11, 11, 61
11, 25773, Control_c, 11, 11, 58
11, 25777, Control_c, 11, 11, 55
11, 25780, Control_c, 11, 11, 52
11, 25783, Control_c, 11, 11, 49
11, 25786, Note_on_c, 11, 61, 68
11, 25795, Note_on_c, 11, 61, 0
11, 25801, Note_on_c, 11, 61, 68
11, 25828, Note_on_c, 11, 61, 0
11, 25846, Note_on_c, 11, 61, 68
11, 25855, Note_on_c, 11, 61, 0
11, 25861, Note_on_c, 11, 61, 68
11, 25888, Note_on_c, 11, 61, 0
11, 25906, Note_on_c, 11, 61, 68
11, 25915, Note_on_c, 11, 61, 0
11, 25921, Control_c, 11, 11, 67
11, 25921, Note_on_c, 11, 59, 68
11, 25924, Control_c, 11, 11, 70
11, 25927, Control_c, 11, 11, 73
11, 25930, Control_c, 11, 11, 76
11, 25936, Control_c, 11, 11, 73
11, 25940, Control_c, 11, 11, 70
11, 25943, Control_c, 11, 11, 67
11, 25946, Control_c, 11, 11, 64
11, 25948, Note_on_c, 11, 59, 0
11, 25950, Control_c, 11, 11, 61
11, 25953, Control_c, 11, 11, 58
11, 25957, Control_c, 11, 11, 55
11, 25960, Control_c, 11, 11, 52
11, 25963, Control_c, 11, 11, 49
11, 25966, Note_on_c, 11, 59, 68
11, 25975, Note_on_c, 11, 59, 0
11, 25981, Note_on_c, 11, 59, 68
11, 26008, Note_on_c, 11, 59, 0
11, 26026, Note_on_c, 11, 59, 68
11, 26035, Note_on_c, 11, 59, 0
11, 26041, Note_on_c, 11, 59, 68
11, 26068, Note_on_c, 11, 59, 0
11, 26086, Note_on_c, 11, 59, 68
11, 26095, Note_on_c, 11, 59, 0
11, 26101, Note_on_c, 11, 60, 68
11, 26161, Note_on_c, 11, 60, 0
11, 26401, Note_on_c, 11, 71, 108
11, 26401, Control_c, 11, 11, 72
11, 26401, Note_on_c, 11, 80, 108
11, 26413, Control_c, 11, 11, 75
11, 26425, Control_c, 11, 11, 78
11, 26437, Control_c, 11, 11, 81
11, 26449, Control_c, 11, 11, 84
11, 26461, Note_on_c, 11, 80, 0
11, 26461, Note_on_c, 11, 71, 0
11, 26461, Control_c, 11, 11, 87
11, 26461, Note_on_c, 11, 79, 108
11, 26461, Note_on_c, 11, 72, 108
11, 26491, Note_on_c, 11, 72, 0
11, 26491, Note_on_c, 11, 79, 0
11, 26521, Note_on_c, 11, 72, 108
11, 26521, Note_on_c, 11, 79, 108
11, 26551, Note_on_c, 11, 79, 0
11, 26551, Note_on_c, 11, 72, 0
11, 26761, Note_on_c, 11, 80, 108
11, 26761, Control_c, 11, 11, 72
11, 26761, Note_on_c, 11, 71, 108
11, 26773, Control_c, 11, 11, 75
11, 26785, Control_c, 11, 11, 78
11, 26797, Control_c, 11, 11, 81
11, 26809, Control_c, 11, 11, 84
11, 26821, Note_on_c, 11, 71, 0
11, 26821, Note_on_c, 11, 80, 0
11, 26821, Control_c, 11, 11, 87
11, 26821, Note_on_c, 11, 79, 108
11, 26821, Note_on_c, 11, 72, 108
11, 26851, Note_on_c, 11, 72, 0
11, 26851, Note_on_c, 11, 79, 0
11, 26881, Control_c, 11, 11, 37
11, 26881, Note_on_c, 11, 76, 108
11, 26899, Control_c, 11, 11, 40
11, 26917, Control_c, 11, 11, 43
11, 26935, Control_c, 11, 11, 46
11, 26941, Note_on_c, 11, 76, 0
11, 26941, Note_on_c, 11, 77, 108
11, 26979, Note_on_c, 11, 77, 0
11, 27121, Note_on_c, 11, 72, 108
11, 27121, Control_c, 11, 11, 37
11, 27139, Control_c, 11, 11, 40
11, 27157, Control_c, 11, 11, 43
11, 27175, Control_c, 11, 11, 46
11, 27181, Note_on_c, 11, 72, 0
11, 27181, Note_on_c, 11, 74, 108
11, 27211, Note_on_c, 11, 74, 0
11, 27361, Note_on_c, 11, 69, 108
11, 27361, Control_c, 11, 11, 37
11, 27379, Control_c, 11, 11, 40
11, 27397, Control_c, 11, 11, 43
11, 27415, Control_c, 11, 11, 46
11, 27421, Note_on_c, 11, 69, 0
11, 27421, Note_on_c, 11, 70, 108
11, 27459, Note_on_c, 11, 70, 0
11, 27601, Note_on_c, 11, 65, 108
11, 27661, Note_on_c, 11, 65, 0
11, 27661, Note_on_c, 11, 67, 108
11, 27698, Note_on_c, 11, 67, 0
11, 27721, Note_on_c, 11, 63, 108
11, 27781, Note_on_c, 11, 63, 0
11, 27781, Note_on_c, 11, 65, 108
11, 27824, Note_on_c, 11, 65, 0
11, 27841, Note_on_c, 11, 65, 108
11, 27951, Note_on_c, 11, 65, 0
11, 27961, Note_on_c, 11, 66, 108
11, 27961, Control_c, 11, 11, 47
11, 27991, Note_on_c, 11, 66, 0
11, 28021, Note_on_c, 11, 67, 108
11, 28021, Control_c, 11, 11, 55
11, 28051, Note_on_c, 11, 67, 0
11, 28081, Note_on_c, 11, 64, 108
11, 28081, Control_c, 11, 11, 63
11, 28111, Note_on_c, 11, 64, 0
11, 28141, Note_on_c, 11, 65, 108
11, 28141, Control_c, 11, 11, 70
11, 28171, Note_on_c, 11, 65, 0
11, 28201, Control_c, 11, 11, 79
11, 28201, Note_on_c, 11, 66, 108
11, 28231, Note_on_c, 11, 66, 0
11, 28261, Note_on_c, 11, 79, 108
11, 28261, Note_on_c, 11, 72, 108
11, 28261, Control_c, 11, 11, 87
11, 28261, Note_on_c, 11, 64, 108
11, 28421, Control_c, 11, 11, 87
11, 28422, Control_c, 11, 11, 84
11, 28424, Control_c, 11, 11, 80
11, 28426, Control_c, 11, 11, 76
11, 28428, Control_c, 11, 11, 72
11, 28430, Control_c, 11, 11, 68
11, 28431, Control_c, 11, 11, 65
11, 28433, Control_c, 11, 11, 61
11, 28435, Control_c, 11, 11, 57
11, 28437, Control_c, 11, 11, 53
11, 28439, Control_c, 11, 11, 49
11, 28441, Note_on_c, 11, 64, 0
11, 28441, Note_on_c, 11, 72, 0
11, 28441, Note_on_c, 11, 79, 0
11, 28621, Note_on_c, 11, 82, 108
11, 28621, Control_c, 11, 11, 87
11, 28621, Note_on_c, 11, 64, 108
11, 28621, Note_on_c, 11, 72, 108
11, 28781, Control_c, 11, 11, 87
11, 28782, Control_c, 11, 11, 84
11, 28784, Control_c, 11, 11, 80
11, 28786, Control_c, 11, 11, 76
11, 28788, Control_c, 11, 11, 72
11, 28790, Control_c, 11, 11, 68
11, 28791, Control_c, 11, 11, 65
11, 28793, Control_c, 11, 11, 61
11, 28795, Control_c, 11, 11, 57
11, 28797, Control_c, 11, 11, 53
11, 28799, Control_c, 11, 11, 49
11, 28801, Note_on_c, 11, 72, 0
11, 28801, Note_on_c, 11, 64, 0
11, 28801, Note_on_c, 11, 82, 0
11, 29641, Note_on_c, 11, 60, 108
11, 29641, Control_c, 11, 11, 27
11, 29659, Control_c, 11, 11, 30
11, 29677, Control_c, 11, 11, 33
11, 29695, Control_c, 11, 11, 36
11, 29701, Note_on_c, 11, 60, 0
11, 29701, Note_on_c, 11, 65, 108
11, 29744, Note_on_c, 11, 65, 0
11, 29761, Note_on_c, 11, 65, 108
11, 29804, Note_on_c, 11, 65, 0
11, 29821, Note_on_c, 11, 65, 108
11, 29881, Note_on_c, 11, 65, 0
11, 29881, Note_on_c, 11, 69, 108
11, 29924, Note_on_c, 11, 69, 0
11, 29941, Note_on_c, 11, 69, 108
11, 29984, Note_on_c, 11, 69, 0
11, 30001, Note_on_c, 11, 69, 108
11, 30061, Note_on_c, 11, 69, 0
11, 30061, Note_on_c, 11, 70, 108
11, 30104, Note_on_c, 11, 70, 0
11, 30121, Control_c, 11, 11, 37
11, 30121, Note_on_c, 11, 70, 108
11, 30145, Control_c, 11, 11, 39
11, 30153, Note_on_c, 11, 70, 0
11, 30166, Note_on_c, 11, 69, 108
11, 30169, Control_c, 11, 11, 41
11, 30175, Note_on_c, 11, 69, 0
11, 30181, Note_on_c, 11, 67, 108
11, 30193, Control_c, 11, 11, 43
11, 30208, Note_on_c, 11, 67, 0
11, 30217, Control_c, 11, 11, 45
11, 30226, Note_on_c, 11, 65, 108
11, 30235, Note_on_c, 11, 65, 0
11, 30241, Control_c, 11, 11, 47
11, 30241, Note_on_c, 11, 64, 108
11, 30284, Note_on_c, 11, 64, 0
11, 30301, Note_on_c, 11, 64, 108
11, 30344, Note_on_c, 11, 64, 0
11, 30361, Note_on_c, 11, 64, 108
11, 30361, Control_c, 11, 11, 37
11, 30385, Control_c, 11, 11, 38
11, 30409, Control_c, 11, 11, 39
11, 30421, Note_on_c, 11, 64, 0
11, 30421, Note_on_c, 11, 65, 108
11, 30433, Control_c, 11, 11, 40
11, 30457, Control_c, 11, 11, 41
11, 30481, Note_on_c, 11, 65, 0
11, 30481, Control_c, 11, 11, 42
11, 30481, Note_on_c, 11, 67, 108
11, 30505, Control_c, 11, 11, 43
11, 30529, Control_c, 11, 11, 44
11, 30541, Note_on_c, 11, 67, 0
11, 30541, Note_on_c, 11, 69, 108
11, 30553, Control_c, 11, 11, 45
11, 30577, Control_c, 11, 11, 46
11, 30596, Note_on_c, 11, 69, 0
11, 30601, Control_c, 11, 11, 47
11, 30601, Note_on_c, 11, 70, 108
11, 30691, Note_on_c, 11, 70, 0
11, 30691, Note_on_c, 11, 72, 108
11, 30716, Note_on_c, 11, 72, 0
11, 30721, Note_on_c, 11, 69, 108
11, 30757, Note_on_c, 11, 69, 0
11, 30781, Note_on_c, 11, 67, 108
11, 30799, Note_on_c, 11, 67, 0
11, 30811, Note_on_c, 11, 72, 108
11, 30811, Control_c, 11, 11, 32
11, 30826, Note_on_c, 11, 72, 0
11, 30826, Note_on_c, 11, 74, 108
11, 30836, Note_on_c, 11, 74, 0
11, 30841, Note_on_c, 11, 76, 108
11, 30856, Note_on_c, 11, 76, 0
11, 30871, Note_on_c, 11, 74, 108
11, 30886, Note_on_c, 11, 74, 0
11, 30901, Note_on_c, 11, 72, 108
11, 30916, Note_on_c, 11, 72, 0
11, 30931, Note_on_c, 11, 71, 108
11, 30946, Note_on_c, 11, 71, 0
11, 30961, Note_on_c, 11, 69, 108
11, 30976, Note_on_c, 11, 69, 0
11, 30991, Note_on_c, 11, 67, 108
11, 31006, Note_on_c, 11, 67, 0
11, 31021, Note_on_c, 11, 65, 108
11, 31036, Note_on_c, 11, 65, 0
11, 31051, Note_on_c, 11, 64, 108
11, 31066, Note_on_c, 11, 64, 0
11, 31081, Note_on_c, 11, 62, 108
11, 31096, Note_on_c, 11, 62, 0
11, 31111, Note_on_c, 11, 60, 108
11, 31126, Note_on_c, 11, 60, 0
11, 31141, Note_on_c, 11, 59, 108
11, 31156, Note_on_c, 11, 59, 0
11, 31171, Note_on_c, 11, 67, 108
11, 31186, Note_on_c, 11, 67, 0
11, 31201, Note_on_c, 11, 67, 108
11, 31216, Note_on_c, 11, 67, 0
11, 31231, Note_on_c, 11, 69, 108
11, 31246, Note_on_c, 11, 69, 0
11, 31261, Note_on_c, 11, 71, 108
11, 31276, Note_on_c, 11, 71, 0
11, 31291, Note_on_c, 11, 72, 108
11, 31306, Note_on_c, 11, 72, 0
11, 31321, Note_on_c, 11, 74, 108
11, 31336, Note_on_c, 11, 74, 0
11, 31351, Note_on_c, 11, 73, 108
11, 31366, Note_on_c, 11, 73, 0
11, 31381, Note_on_c, 11, 74, 108
11, 31396, Note_on_c, 11, 74, 0
11, 31411, Note_on_c, 11, 73, 108
11, 31426, Note_on_c, 11, 73, 0
11, 31441, Note_on_c, 11, 74, 108
11, 31456, Note_on_c, 11, 74, 0
11, 31471, Note_on_c, 11, 76, 108
11, 31486, Note_on_c, 11, 76, 0
11, 31501, Note_on_c, 11, 72, 108
11, 31561, Note_on_c, 11, 72, 0
11, 31591, Note_on_c, 11, 64, 108
11, 31606, Note_on_c, 11, 64, 0
11, 31606, Note_on_c, 11, 65, 108
11, 31616, Note_on_c, 11, 65, 0
11, 31621, Note_on_c, 11, 67, 108
11, 31636, Note_on_c, 11, 67, 0
11, 31651, Note_on_c, 11, 64, 108
11, 31666, Note_on_c, 11, 64, 0
11, 31681, Note_on_c, 11, 60, 108
11, 31741, Note_on_c, 11, 60, 0
11, 31771, Note_on_c, 11, 60, 108
11, 31781, Note_on_c, 11, 60, 0
11, 31786, Note_on_c, 11, 60, 108
11, 31796, Note_on_c, 11, 60, 0
11, 31801, Note_on_c, 11, 72, 108
11, 31816, Note_on_c, 11, 72, 0
11, 31831, Note_on_c, 11, 60, 108
11, 31846, Note_on_c, 11, 60, 0
11, 31861, Note_on_c, 11, 65, 108
11, 31913, Note_on_c, 11, 65, 0
11, 31921, Note_on_c, 11, 69, 93
11, 31921, Note_on_c, 11, 65, 93
11, 31966, Note_on_c, 11, 65, 0
11, 31966, Note_on_c, 11, 69, 0
11, 32101, Note_on_c, 11, 69, 80
11, 32101, Note_on_c, 11, 77, 80
11, 32146, Note_on_c, 11, 77, 0
11, 32146, Note_on_c, 11, 69, 0
11, 32281, Note_on_c, 11, 76, 80
11, 32281, Note_on_c, 11, 70, 80
11, 32326, Note_on_c, 11, 70, 0
11, 32326, Note_on_c, 11, 76, 0
11, 32461, Note_on_c, 11, 72, 80
11, 32461, Note_on_c, 11, 64, 80
11, 32506, Note_on_c, 11, 64, 0
11, 32506, Note_on_c, 11, 72, 0
11, 32581, Control_c, 11, 11, 37
11, 32605, Control_c, 11, 11, 38
11, 32611, Note_on_c, 11, 72, 81
11, 32629, Control_c, 11, 11, 39
11, 32631, Note_on_c, 11, 72, 0
11, 32641, Note_on_c, 11, 72, 86
11, 32653, Control_c, 11, 11, 40
11, 32661, Note_on_c, 11, 72, 0
11, 32671, Note_on_c, 11, 72, 92
11, 32677, Control_c, 11, 11, 41
11, 32691, Note_on_c, 11, 72, 0
11, 32701, Note_on_c, 11, 72, 98
11, 32701, Control_c, 11, 11, 42
11, 32721, Note_on_c, 11, 72, 0
11, 32725, Control_c, 11, 11, 43
11, 32731, Note_on_c, 11, 72, 105
11, 32749, Control_c, 11, 11, 44
11, 32751, Note_on_c, 11, 72, 0
11, 32761, Note_on_c, 11, 72, 111
11, 32773, Control_c, 11, 11, 45
11, 32781, Note_on_c, 11, 72, 0
11, 32791, Note_on_c, 11, 72, 116
11, 32797, Control_c, 11, 11, 46
11, 32811, Note_on_c, 11, 72, 0
11, 32821, Note_on_c, 11, 72, 119
11, 32821, Control_c, 11, 11, 47
11, 32841, Note_on_c, 11, 72, 0
11, 32845, Control_c, 11, 11, 48
11, 32851, Note_on_c, 11, 72, 124
11, 32869, Control_c, 11, 11, 49
11, 32871, Note_on_c, 11, 72, 0
11, 32881, Note_on_c, 11, 72, 127
11, 32893, Control_c, 11, 11, 50
11, 32901, Note_on_c, 11, 72, 0
11, 32911, Note_on_c, 11, 72, 127
11, 32917, Control_c, 11, 11, 51
11, 32931, Note_on_c, 11, 72, 0
11, 32941, Note_on_c, 11, 72, 93
11, 32941, Control_c, 11, 11, 52
11, 33001, Note_on_c, 11, 72, 0
11, 33061, Note_on_c, 11, 67, 108
11, 33116, Note_on_c, 11, 67, 0
11, 33121, Control_c, 11, 11, 72
11, 33121, Note_on_c, 11, 69, 108
11, 33130, Control_c, 11, 11, 69
11, 33139, Control_c, 11, 11, 66
11, 33148, Control_c, 11, 11, 63
11, 33157, Control_c, 11, 11, 60
11, 33166, Control_c, 11, 11, 57
11, 33175, Control_c, 11, 11, 54
11, 33226, Note_on_c, 11, 69, 0
11, 33226, Note_on_c, 11, 65, 108
11, 33236, Note_on_c, 11, 65, 0
11, 33241, Note_on_c, 11, 72, 108
11, 33286, Note_on_c, 11, 72, 0
11, 33286, Note_on_c, 11, 69, 108
11, 33296, Note_on_c, 11, 69, 0
11, 33301, Note_on_c, 11, 67, 108
11, 33361, Note_on_c, 11, 67, 0
11, 33421, Note_on_c, 11, 67, 108
11, 33476, Note_on_c, 11, 67, 0
11, 33481, Note_on_c, 11, 69, 108
11, 33481, Control_c, 11, 11, 72
11, 33490, Control_c, 11, 11, 69
11, 33499, Control_c, 11, 11, 66
11, 33508, Control_c, 11, 11, 63
11, 33517, Control_c, 11, 11, 60
11, 33526, Control_c, 11, 11, 57
11, 33535, Control_c, 11, 11, 54
11, 33586, Note_on_c, 11, 69, 0
11, 33586, Note_on_c, 11, 65, 108
11, 33596, Note_on_c, 11, 65, 0
11, 33601, Note_on_c, 11, 72, 108
11, 33646, Note_on_c, 11, 72, 0
11, 33646, Note_on_c, 11, 69, 108
11, 33656, Note_on_c, 11, 69, 0
11, 33661, Note_on_c, 11, 67, 108
11, 33691, Note_on_c, 11, 67, 0
11, 33721, Control_c, 11, 11, 82
11, 33721, Note_on_c, 11, 72, 108
11, 33730, Control_c, 11, 11, 79
11, 33739, Control_c, 11, 11, 76
11, 33748, Control_c, 11, 11, 73
11, 33757, Control_c, 11, 11, 70
11, 33766, Control_c, 11, 11, 67
11, 33775, Control_c, 11, 11, 64
11, 33811, Note_on_c, 11, 72, 0
11, 33811, Note_on_c, 11, 69, 108
11, 33836, Note_on_c, 11, 69, 0
11, 33841, Note_on_c, 11, 67, 108
11, 33871, Note_on_c, 11, 67, 0
11, 33901, Note_on_c, 11, 70, 108
11, 33901, Control_c, 11, 11, 87
11, 33919, Control_c, 11, 11, 84
11, 33931, Note_on_c, 11, 70, 0
11, 33931, Note_on_c, 11, 69, 108
11, 33937, Control_c, 11, 11, 81
11, 33955, Control_c, 11, 11, 78
11, 33961, Note_on_c, 11, 69, 0
11, 33961, Note_on_c, 11, 67, 108
11, 33991, Note_on_c, 11, 67, 0
11, 33991, Note_on_c, 11, 65, 108
11, 33991, Control_c, 11, 11, 77
11, 34000, Control_c, 11, 11, 80
11, 34009, Control_c, 11, 11, 83
11, 34016, Note_on_c, 11, 65, 0
11, 34018, Control_c, 11, 11, 86
11, 34021, Note_on_c, 11, 64, 108
11, 34051, Note_on_c, 11, 64, 0
11, 34081, Note_on_c, 11, 64, 98
11, 34111, Note_on_c, 11, 64, 0
11, 34141, Note_on_c, 11, 64, 95
11, 34171, Note_on_c, 11, 64, 0
11, 34201, Note_on_c, 11, 64, 83
11, 34231, Control_c, 11, 11, 87
11, 34235, Control_c, 11, 11, 84
11, 34239, Control_c, 11, 11, 81
11, 34244, Control_c, 11, 11, 78
11, 34248, Control_c, 11, 11, 75
11, 34252, Control_c, 11, 11, 72
11, 34257, Control_c, 11, 11, 69
11, 34261, Note_on_c, 11, 64, 0
11, 34501, Note_on_c, 11, 78, 108
11, 34501, Control_c, 11, 11, 37
11, 34519, Control_c, 11, 11, 40
11, 34537, Control_c, 11, 11, 43
11, 34555, Control_c, 11, 11, 46
11, 34561, Note_on_c, 11, 78, 0
11, 34561, Note_on_c, 11, 79, 108
11, 34591, Note_on_c, 11, 79, 0
11, 34861, Note_on_c, 11, 76, 108
11, 34861, Control_c, 11, 11, 37
11, 34879, Control_c, 11, 11, 40
11, 34897, Control_c, 11, 11, 43
11, 34915, Control_c, 11, 11, 46
11, 34921, Note_on_c, 11, 76, 0
11, 34921, Note_on_c, 11, 77, 108
11, 34951, Note_on_c, 11, 77, 0
11, 35101, Note_on_c, 11, 60, 108
11, 35101, Control_c, 11, 11, 37
11, 35131, Note_on_c, 11, 60, 0
11, 35161, Control_c, 11, 11, 42
11, 35161, Note_on_c, 11, 72, 93
11, 35177, Control_c, 11, 11, 43
11, 35193, Control_c, 11, 11, 44
11, 35206, Note_on_c, 11, 72, 0
11, 35209, Control_c, 11, 11, 45
11, 35221, Note_on_c, 11, 72, 108
11, 35225, Control_c, 11, 11, 46
11, 35241, Control_c, 11, 11, 47
11, 35257, Control_c, 11, 11, 48
11, 35266, Note_on_c, 11, 72, 0
11, 35273, Control_c, 11, 11, 49
11, 35281, Note_on_c, 11, 72, 108
11, 35289, Control_c, 11, 11, 50
11, 35305, Control_c, 11, 11, 51
11, 35321, Control_c, 11, 11, 52
11, 35337, Control_c, 11, 11, 53
11, 35341, Note_on_c, 11, 72, 0
11, 35341, Note_on_c, 11, 70, 108
11, 35353, Control_c, 11, 11, 54
11, 35369, Control_c, 11, 11, 55
11, 35385, Control_c, 11, 11, 56
11, 35401, Note_on_c, 11, 70, 0
11, 35401, Note_on_c, 11, 69, 108
11, 35401, Control_c, 11, 11, 57
11, 35413, Control_c, 11, 11, 54
11, 35425, Control_c, 11, 11, 51
11, 35437, Control_c, 11, 11, 48
11, 35449, Control_c, 11, 11, 45
11, 35458, Note_on_c, 11, 69, 0
11, 35461, Note_on_c, 11, 72, 108
11, 35461, Control_c, 11, 11, 42
11, 35521, Note_on_c, 11, 72, 0
11, 35521, Note_on_c, 11, 79, 108
11, 35596, Note_on_c, 11, 79, 0
11, 35596, Note_on_c, 11, 77, 108
11, 35611, Note_on_c, 11, 77, 0
11, 35611, Note_on_c, 11, 76, 108
11, 35626, Note_on_c, 11, 76, 0
11, 35626, Note_on_c, 11, 77, 108
11, 35638, Note_on_c, 11, 77, 0
11, 35641, Note_on_c, 11, 76, 108
11, 35701, Note_on_c, 11, 76, 0
11, 35761, Note_on_c, 11, 60, 108
11, 35761, Control_c, 11, 11, 37
11, 35779, Control_c, 11, 11, 40
11, 35797, Control_c, 11, 11, 43
11, 35815, Control_c, 11, 11, 46
11, 35821, Note_on_c, 11, 60, 0
11, 35821, Note_on_c, 11, 69, 108
11, 35851, Note_on_c, 11, 69, 0
11, 35941, Note_on_c, 11, 69, 108
11, 36001, Note_on_c, 11, 69, 0
11, 36001, Note_on_c, 11, 70, 108
11, 36031, Note_on_c, 11, 70, 0
11, 36181, Note_on_c, 11, 67, 108
11, 36211, Note_on_c, 11, 67, 0
11, 36301, Note_on_c, 11, 67, 108
11, 36361, Note_on_c, 11, 67, 0
11, 36361, Note_on_c, 11, 69, 108
11, 36391, Note_on_c, 11, 69, 0
11, 36541, Control_c, 11, 11, 47
11, 36541, Note_on_c, 11, 60, 108
11, 36556, Note_on_c, 11, 60, 0
11, 36565, Control_c, 11, 11, 49
11, 36571, Note_on_c, 11, 63, 108
11, 36586, Note_on_c, 11, 63, 0
11, 36589, Control_c, 11, 11, 51
11, 36601, Note_on_c, 11, 60, 108
11, 36613, Control_c, 11, 11, 53
11, 36616, Note_on_c, 11, 60, 0
11, 36631, Note_on_c, 11, 63, 108
11, 36637, Control_c, 11, 11, 55
11, 36646, Note_on_c, 11, 63, 0
11, 36661, Note_on_c, 11, 60, 108
11, 36661, Control_c, 11, 11, 57
11, 36676, Note_on_c, 11, 60, 0
11, 36685, Control_c, 11, 11, 59
11, 36691, Note_on_c, 11, 63, 108
11, 36706, Note_on_c, 11, 63, 0
11, 36709, Control_c, 11, 11, 61
11, 36721, Note_on_c, 11, 62, 108
11, 36736, Note_on_c, 11, 62, 0
11, 36736, Control_c, 11, 11, 63
11, 36751, Control_c, 11, 11, 64
11, 36751, Note_on_c, 11, 69, 108
11, 36766, Control_c, 11, 11, 65
11, 36781, Note_on_c, 11, 69, 0
11, 36781, Note_on_c, 11, 70, 108
11, 36781, Control_c, 11, 11, 66
11, 36796, Control_c, 11, 11, 67
11, 36811, Note_on_c, 11, 70, 0
11, 36811, Note_on_c, 11, 72, 108
11, 36811, Control_c, 11, 11, 68
11, 36826, Control_c, 11, 11, 69
11, 36841, Note_on_c, 11, 72, 0
11, 36841, Control_c, 11, 11, 70
11, 36841, Note_on_c, 11, 73, 108
11, 36856, Control_c, 11, 11, 71
11, 36871, Note_on_c, 11, 73, 0
11, 36871, Note_on_c, 11, 74, 108
11, 36871, Control_c, 11, 11, 72
11, 36883, Control_c, 11, 11, 69
11, 36886, Control_c, 11, 11, 65
11, 36889, Control_c, 11, 11, 62
11, 36891, Control_c, 11, 11, 59
11, 36894, Control_c, 11, 11, 55
11, 36897, Control_c, 11, 11, 52
11, 36898, Note_on_c, 11, 74, 0
11, 36899, Control_c, 11, 11, 49
11, 36901, Control_c, 11, 11, 37
11, 36901, Note_on_c, 11, 69, 108
11, 36919, Control_c, 11, 11, 40
11, 36931, Note_on_c, 11, 69, 0
11, 36931, Note_on_c, 11, 65, 108
11, 36937, Control_c, 11, 11, 43
11, 36955, Control_c, 11, 11, 46
11, 36961, Note_on_c, 11, 65, 0
11, 36961, Note_on_c, 11, 60, 108
11, 36991, Note_on_c, 11, 60, 0
11, 36991, Note_on_c, 11, 57, 108
11, 37021, Note_on_c, 11, 57, 0
11, 37021, Note_on_c, 11, 58, 108
11, 37051, Note_on_c, 11, 58, 0
11, 37051, Note_on_c, 11, 60, 108
11, 37078, Note_on_c, 11, 60, 0
11, 37081, Note_on_c, 11, 57, 108
11, 37101, Control_c, 11, 11, 47
11, 37105, Control_c, 11, 11, 44
11, 37110, Control_c, 11, 11, 41
11, 37115, Control_c, 11, 11, 38
11, 37119, Control_c, 11, 11, 35
11, 37124, Control_c, 11, 11, 32
11, 37129, Control_c, 11, 11, 29
11, 37133, Control_c, 11, 11, 26
11, 37138, Control_c, 11, 11, 23
11, 37141, Note_on_c, 11, 57, 0
11, 37186, Control_c, 11, 11, 47
11, 37186, Note_on_c, 11, 76, 88
11, 37194, Note_on_c, 11, 76, 0
11, 37201, Note_on_c, 11, 77, 88
11, 37224, Note_on_c, 11, 77, 0
11, 37246, Note_on_c, 11, 79, 88
11, 37254, Note_on_c, 11, 79, 0
11, 37261, Note_on_c, 11, 77, 88
11, 37291, Note_on_c, 11, 77, 0
11, 37366, Note_on_c, 11, 76, 88
11, 37374, Note_on_c, 11, 76, 0
11, 37381, Note_on_c, 11, 77, 88
11, 37404, Note_on_c, 11, 77, 0
11, 37426, Note_on_c, 11, 79, 88
11, 37434, Note_on_c, 11, 79, 0
11, 37441, Note_on_c, 11, 77, 88
11, 37471, Note_on_c, 11, 77, 0
11, 37546, Note_on_c, 11, 72, 88
11, 37554, Note_on_c, 11, 72, 0
11, 37561, Note_on_c, 11, 74, 88
11, 37584, Note_on_c, 11, 74, 0
11, 37606, Note_on_c, 11, 75, 88
11, 37614, Note_on_c, 11, 75, 0
11, 37621, Note_on_c, 11, 74, 88
11, 37644, Note_on_c, 11, 74, 0
11, 37666, Note_on_c, 11, 70, 108
11, 37674, Note_on_c, 11, 70, 0
11, 37681, Note_on_c, 11, 69, 108
11, 37711, Note_on_c, 11, 69, 0
11, 37741, Note_on_c, 11, 70, 108
11, 37771, Note_on_c, 11, 70, 0
11, 37801, Note_on_c, 11, 69, 108
11, 37861, Note_on_c, 11, 69, 0
11, 37906, Note_on_c, 11, 64, 108
11, 37906, Control_c, 11, 11, 87
11, 37914, Note_on_c, 11, 64, 0
11, 37921, Note_on_c, 11, 65, 108
11, 37944, Note_on_c, 11, 65, 0
11, 37966, Note_on_c, 11, 67, 108
11, 37974, Note_on_c, 11, 67, 0
11, 37981, Note_on_c, 11, 65, 108
11, 38011, Note_on_c, 11, 65, 0
11, 38086, Note_on_c, 11, 61, 108
11, 38094, Note_on_c, 11, 61, 0
11, 38101, Note_on_c, 11, 62, 108
11, 38124, Note_on_c, 11, 62, 0
11, 38146, Note_on_c, 11, 64, 108
11, 38154, Note_on_c, 11, 64, 0
11, 38161, Note_on_c, 11, 62, 108
11, 38191, Note_on_c, 11, 62, 0
11, 38266, Note_on_c, 11, 73, 108
11, 38274, Note_on_c, 11, 73, 0
11, 38281, Note_on_c, 11, 74, 108
11, 38304, Note_on_c, 11, 74, 0
11, 38326, Note_on_c, 11, 76, 108
11, 38334, Note_on_c, 11, 76, 0
11, 38341, Note_on_c, 11, 74, 108
11, 38371, Note_on_c, 11, 74, 0
11, 38401, Note_on_c, 11, 75, 108
11, 38401, Control_c, 11, 11, 102
11, 38412, Control_c, 11, 11, 99
11, 38424, Control_c, 11, 11, 96
11, 38436, Control_c, 11, 11, 93
11, 38448, Control_c, 11, 11, 90
11, 38460, Control_c, 11, 11, 87
11, 38521, Note_on_c, 11, 75, 0
11, 38521, Note_on_c, 11, 74, 108
11, 38551, Note_on_c, 11, 74, 0
11, 38581, Control_c, 11, 11, 102
11, 38581, Note_on_c, 11, 77, 108
11, 38592, Control_c, 11, 11, 99
11, 38604, Control_c, 11, 11, 96
11, 38616, Control_c, 11, 11, 93
11, 38628, Control_c, 11, 11, 90
11, 38640, Control_c, 11, 11, 87
11, 38701, Note_on_c, 11, 77, 0
11, 38701, Note_on_c, 11, 76, 108
11, 38731, Note_on_c, 11, 76, 0
11, 38761, Control_c, 11, 11, 102
11, 38761, Note_on_c, 11, 79, 108
11, 38772, Control_c, 11, 11, 99
11, 38784, Control_c, 11, 11, 96
11, 38796, Control_c, 11, 11, 93
11, 38808, Control_c, 11, 11, 90
11, 38820, Control_c, 11, 11, 87
11, 38881, Control_c, 11, 11, 87
11, 38892, Control_c, 11, 11, 84
11, 38901, Note_on_c, 11, 79, 0
11, 38901, Note_on_c, 11, 74, 108
11, 38904, Control_c, 11, 11, 81
11, 38916, Control_c, 11, 11, 78
11, 38918, Note_on_c, 11, 74, 0
11, 38921, Note_on_c, 11, 74, 108
11, 38928, Control_c, 11, 11, 75
11, 38931, Note_on_c, 11, 74, 0
11, 38940, Control_c, 11, 11, 72
11, 38941, Note_on_c, 11, 69, 108
11, 38971, Note_on_c, 11, 69, 0
11, 39001, Control_c, 11, 11, 67
11, 39001, Note_on_c, 11, 70, 108
11, 39009, Control_c, 11, 11, 64
11, 39018, Control_c, 11, 11, 61
11, 39027, Control_c, 11, 11, 58
11, 39031, Note_on_c, 11, 70, 0
11, 39036, Control_c, 11, 11, 55
11, 39045, Control_c, 11, 11, 52
11, 39054, Control_c, 11, 11, 49
11, 39061, Note_on_c, 11, 69, 108
11, 39091, Control_c, 11, 11, 47
11, 39096, Control_c, 11, 11, 44
11, 39102, Control_c, 11, 11, 41
11, 39108, Control_c, 11, 11, 38
11, 39114, Control_c, 11, 11, 35
11, 39120, Control_c, 11, 11, 32
11, 39121, Note_on_c, 11, 69, 0
11, 39241, Note_on_c, 11, 64, 108
11, 39241, Note_on_c, 11, 55, 108
11, 39241, Control_c, 11, 11, 37
11, 39301, Note_on_c, 11, 55, 0
11, 39301, Note_on_c, 11, 64, 0
11, 39361, Note_on_c, 11, 64, 108
11, 39361, Note_on_c, 11, 55, 108
11, 39421, Note_on_c, 11, 55, 0
11, 39421, Note_on_c, 11, 64, 0
11, 39481, Note_on_c, 11, 65, 108
11, 39481, Note_on_c, 11, 57, 108
11, 39541, Note_on_c, 11, 57, 0
11, 39541, Note_on_c, 11, 65, 0
11, 39601, Note_on_c, 11, 60, 108
11, 39601, Note_on_c, 11, 67, 108
11, 39661, Note_on_c, 11, 67, 0
11, 39661, Note_on_c, 11, 60, 0
11, 39721, Note_on_c, 11, 60, 108
11, 39721, Note_on_c, 11, 67, 108
11, 39781, Note_on_c, 11, 67, 0
11, 39781, Note_on_c, 11, 60, 0
11, 39841, Note_on_c, 11, 60, 108
11, 39841, Note_on_c, 11, 69, 108
11, 39901, Note_on_c, 11, 69, 0
11, 39901, Note_on_c, 11, 60, 0
11, 39961, Note_on_c, 11, 55, 108
11, 39961, Note_on_c, 11, 64, 108
11, 40021, Note_on_c, 11, 64, 0
11, 40021, Note_on_c, 11, 55, 0
11, 40081, Note_on_c, 11, 55, 108
11, 40081, Note_on_c, 11, 64, 108
11, 40141, Note_on_c, 11, 64, 0
11, 40141, Note_on_c, 11, 55, 0
11, 40201, Note_on_c, 11, 65, 108
11, 40201, Note_on_c, 11, 57, 108
11, 40261, Note_on_c, 11, 57, 0
11, 40261, Note_on_c, 11, 65, 0
11, 40321, Note_on_c, 11, 58, 108
11, 40321, Note_on_c, 11, 67, 108
11, 40376, Note_on_c, 11, 67, 0
11, 40376, Note_on_c, 11, 58, 0
11, 40381, Note_on_c, 11, 64, 108
11, 40436, Note_on_c, 11, 64, 0
11, 40441, Note_on_c, 11, 64, 108
11, 40496, Note_on_c, 11, 64, 0
11, 40501, Note_on_c, 11, 57, 93
11, 40536, Control_c, 11, 11, 37
11, 40543, Control_c, 11, 11, 34
11, 40550, Control_c, 11, 11, 31
11, 40557, Control_c, 11, 11, 28
11, 40561, Note_on_c, 11, 57, 0
11, 40621, Note_on_c, 11, 60, 93
11, 40621, Control_c, 11, 11, 37
11, 40639, Control_c, 11, 11, 40
11, 40657, Control_c, 11, 11, 43
11, 40675, Control_c, 11, 11, 46
11, 40681, Note_on_c, 11, 60, 0
11, 40681, Note_on_c, 11, 65, 108
11, 40711, Note_on_c, 11, 65, 0
11, 41161, Note_on_c, 11, 65, 108
11, 41221, Note_on_c, 11, 65, 0
11, 41221, Note_on_c, 11, 67, 108
11, 41251, Note_on_c, 11, 67, 0
11, 41281, Note_on_c, 11, 67, 108
11, 41304, Note_on_c, 11, 67, 0
11, 41326, Note_on_c, 11, 65, 108
11, 41334, Note_on_c, 11, 65, 0
11, 41341, Note_on_c, 11, 64, 108
11, 41364, Note_on_c, 11, 64, 0
11, 41386, Note_on_c, 11, 62, 108
11, 41394, Note_on_c, 11, 62, 0
11, 41401, Note_on_c, 11, 60, 108
11, 41416, Note_on_c, 11, 60, 0
11, 41431, Note_on_c, 11, 60, 73
11, 41446, Note_on_c, 11, 60, 0
11, 41461, Note_on_c, 11, 60, 76
11, 41476, Note_on_c, 11, 60, 0
11, 41491, Note_on_c, 11, 60, 79
11, 41506, Note_on_c, 11, 60, 0
11, 41521, Note_on_c, 11, 60, 82
11, 41536, Note_on_c, 11, 60, 0
11, 41551, Note_on_c, 11, 60, 85
11, 41566, Note_on_c, 11, 60, 0
11, 41581, Note_on_c, 11, 60, 88
11, 41596, Note_on_c, 11, 60, 0
11, 41611, Note_on_c, 11, 60, 92
11, 41626, Note_on_c, 11, 60, 0
11, 41641, Note_on_c, 11, 60, 95
11, 41656, Note_on_c, 11, 60, 0
11, 41671, Note_on_c, 11, 60, 98
11, 41686, Note_on_c, 11, 60, 0
11, 41701, Note_on_c, 11, 60, 101
11, 41716, Note_on_c, 11, 60, 0
11, 41731, Note_on_c, 11, 60, 104
11, 41746, Note_on_c, 11, 60, 0
11, 41761, Note_on_c, 11, 60, 108
11, 41776, Note_on_c, 11, 60, 0
11, 41791, Note_on_c, 11, 60, 108
11, 41806, Note_on_c, 11, 60, 0
11, 41821, Note_on_c, 11, 60, 108
11, 41836, Note_on_c, 11, 60, 0
11, 41851, Note_on_c, 11, 60, 108
11, 41866, Note_on_c, 11, 60, 0
11, 41881, Note_on_c, 11, 60, 108
11, 41896, Note_on_c, 11, 60, 0
11, 41911, Note_on_c, 11, 60, 108
11, 41926, Note_on_c, 11, 60, 0
11, 41941, Control_c, 11, 11, 47
11, 41941, Note_on_c, 11, 60, 108
11, 41956, Note_on_c, 11, 60, 0
11, 41965, Control_c, 11, 11, 48
11, 41971, Note_on_c, 11, 60, 108
11, 41986, Note_on_c, 11, 60, 0
11, 41989, Control_c, 11, 11, 49
11, 42001, Note_on_c, 11, 60, 108
11, 42013, Control_c, 11, 11, 50
11, 42016, Note_on_c, 11, 60, 0
11, 42031, Note_on_c, 11, 60, 108
11, 42037, Control_c, 11, 11, 51
11, 42046, Note_on_c, 11, 60, 0
11, 42061, Note_on_c, 11, 60, 108
11, 42061, Control_c, 11, 11, 52
11, 42076, Note_on_c, 11, 60, 0
11, 42085, Control_c, 11, 11, 53
11, 42091, Note_on_c, 11, 60, 108
11, 42106, Note_on_c, 11, 60, 0
11, 42109, Control_c, 11, 11, 54
11, 42121, Note_on_c, 11, 60, 108
11, 42133, Control_c, 11, 11, 55
11, 42136, Note_on_c, 11, 60, 0
11, 42151, Note_on_c, 11, 60, 108
11, 42157, Control_c, 11, 11, 56
11, 42166, Note_on_c, 11, 60, 0
11, 42181, Note_on_c, 11, 60, 108
11, 42181, Control_c, 11, 11, 57
11, 42196, Note_on_c, 11, 60, 0
11, 42205, Control_c, 11, 11, 58
11, 42211, Note_on_c, 11, 60, 108
11, 42226, Note_on_c, 11, 60, 0
11, 42229, Control_c, 11, 11, 59
11, 42241, Note_on_c, 11, 61, 108
11, 42253, Control_c, 11, 11, 60
11, 42256, Note_on_c, 11, 61, 0
11, 42271, Note_on_c, 11, 61, 108
11, 42277, Control_c, 11, 11, 61
11, 42286, Note_on_c, 11, 61, 0
11, 42301, Control_c, 11, 11, 50
11, 42301, Note_on_c, 11, 62, 73
11, 42316, Note_on_c, 11, 62, 0
11, 42331, Note_on_c, 11, 62, 76
11, 42346, Note_on_c, 11, 62, 0
11, 42361, Note_on_c, 11, 62, 79
11, 42376, Note_on_c, 11, 62, 0
11, 42391, Note_on_c, 11, 62, 82
11, 42406, Note_on_c, 11, 62, 0
11, 42421, Note_on_c, 11, 62, 85
11, 42436, Note_on_c, 11, 62, 0
11, 42451, Note_on_c, 11, 62, 88
11, 42466, Note_on_c, 11, 62, 0
11, 42481, Note_on_c, 11, 62, 92
11, 42496, Note_on_c, 11, 62, 0
11, 42511, Note_on_c, 11, 62, 95
11, 42526, Note_on_c, 11, 62, 0
11, 42541, Note_on_c, 11, 62, 98
11, 42556, Note_on_c, 11, 62, 0
11, 42571, Note_on_c, 11, 62, 101
11, 42586, Note_on_c, 11, 62, 0
11, 42601, Note_on_c, 11, 62, 104
11, 42616, Note_on_c, 11, 62, 0
11, 42631, Note_on_c, 11, 62, 108
11, 42646, Note_on_c, 11, 62, 0
11, 42661, Control_c, 11, 11, 50
11, 42661, Note_on_c, 11, 62, 108
11, 42676, Note_on_c, 11, 62, 0
11, 42689, Control_c, 11, 11, 52
11, 42691, Note_on_c, 11, 62, 108
11, 42704, Control_c, 11, 11, 53
11, 42706, Note_on_c, 11, 62, 0
11, 42721, Note_on_c, 11, 62, 108
11, 42733, Control_c, 11, 11, 55
11, 42736, Note_on_c, 11, 62, 0
11, 42751, Note_on_c, 11, 62, 108
11, 42761, Control_c, 11, 11, 57
11, 42766, Note_on_c, 11, 62, 0
11, 42776, Control_c, 11, 11, 58
11, 42781, Note_on_c, 11, 62, 108
11, 42796, Note_on_c, 11, 62, 0
11, 42805, Control_c, 11, 11, 60
11, 42811, Note_on_c, 11, 62, 108
11, 42826, Note_on_c, 11, 62, 0
11, 42833, Control_c, 11, 11, 62
11, 42841, Note_on_c, 11, 62, 108
11, 42848, Control_c, 11, 11, 63
11, 42856, Note_on_c, 11, 62, 0
11, 42871, Note_on_c, 11, 62, 108
11, 42877, Control_c, 11, 11, 65
11, 42886, Note_on_c, 11, 62, 0
11, 42901, Note_on_c, 11, 63, 108
11, 42905, Control_c, 11, 11, 67
11, 42916, Note_on_c, 11, 63, 0
11, 42920, Control_c, 11, 11, 68
11, 42931, Note_on_c, 11, 63, 108
11, 42946, Note_on_c, 11, 63, 0
11, 42949, Control_c, 11, 11, 70
11, 42961, Note_on_c, 11, 64, 108
11, 42976, Note_on_c, 11, 64, 0
11, 42977, Control_c, 11, 11, 72
11, 42991, Note_on_c, 11, 64, 108
11, 42992, Control_c, 11, 11, 73
11, 43006, Note_on_c, 11, 64, 0
11, 43021, Note_on_c, 11, 65, 88
11, 43021, Control_c, 11, 11, 87
11, 43036, Note_on_c, 11, 65, 0
11, 43051, Note_on_c, 11, 65, 94
11, 43066, Note_on_c, 11, 65, 0
11, 43081, Note_on_c, 11, 65, 101
11, 43096, Note_on_c, 11, 65, 0
11, 43111, Note_on_c, 11, 65, 108
11, 43126, Note_on_c, 11, 65, 0
11, 43141, Note_on_c, 11, 65, 108
11, 43156, Note_on_c, 11, 65, 0
11, 43171, Note_on_c, 11, 65, 108
11, 43186, Note_on_c, 11, 65, 0
11, 43201, Note_on_c, 11, 65, 108
11, 43201, Control_c, 11, 11, 107
11, 43210, Control_c, 11, 11, 104
11, 43216, Note_on_c, 11, 65, 0
11, 43219, Control_c, 11, 11, 101
11, 43228, Control_c, 11, 11, 98
11, 43231, Note_on_c, 11, 65, 108
11, 43237, Control_c, 11, 11, 95
11, 43246, Note_on_c, 11, 65, 0
11, 43246, Control_c, 11, 11, 92
11, 43255, Control_c, 11, 11, 89
11, 43261, Note_on_c, 11, 65, 108
11, 43276, Note_on_c, 11, 65, 0
11, 43291, Note_on_c, 11, 65, 108
11, 43306, Note_on_c, 11, 65, 0
11, 43321, Note_on_c, 11, 62, 108
11, 43336, Note_on_c, 11, 62, 0
11, 43351, Note_on_c, 11, 62, 108
11, 43366, Note_on_c, 11, 62, 0
11, 43381, Note_on_c, 11, 62, 108
11, 43381, Control_c, 11, 11, 107
11, 43390, Control_c, 11, 11, 104
11, 43396, Note_on_c, 11, 62, 0
11, 43399, Control_c, 11, 11, 101
11, 43408, Control_c, 11, 11, 98
11, 43411, Note_on_c, 11, 62, 108
11, 43417, Control_c, 11, 11, 95
11, 43426, Note_on_c, 11, 62, 0
11, 43426, Control_c, 11, 11, 92
11, 43435, Control_c, 11, 11, 89
11, 43441, Note_on_c, 11, 62, 108
11, 43456, Note_on_c, 11, 62, 0
11, 43471, Note_on_c, 11, 62, 108
11, 43486, Note_on_c, 11, 62, 0
11, 43501, Note_on_c, 11, 62, 108
11, 43516, Note_on_c, 11, 62, 0
11, 43531, Note_on_c, 11, 62, 108
11, 43546, Note_on_c, 11, 62, 0
11, 43561, Control_c, 11, 11, 107
11, 43561, Note_on_c, 11, 60, 108
11, 43570, Control_c, 11, 11, 104
11, 43576, Note_on_c, 11, 60, 0
11, 43579, Control_c, 11, 11, 101
11, 43588, Control_c, 11, 11, 98
11, 43591, Note_on_c, 11, 60, 108
11, 43597, Control_c, 11, 11, 95
11, 43606, Note_on_c, 11, 60, 0
11, 43606, Control_c, 11, 11, 92
11, 43615, Control_c, 11, 11, 89
11, 43621, Note_on_c, 11, 60, 108
11, 43636, Note_on_c, 11, 60, 0
11, 43651, Note_on_c, 11, 60, 108
11, 43666, Note_on_c, 11, 60, 0
11, 43681, Note_on_c, 11, 60, 108
11, 43696, Note_on_c, 11, 60, 0
11, 43711, Note_on_c, 11, 60, 108
11, 43726, Note_on_c, 11, 60, 0
11, 43741, Note_on_c, 11, 60, 108
11, 43756, Note_on_c, 11, 60, 0
11, 43771, Note_on_c, 11, 60, 108
11, 43786, Note_on_c, 11, 60, 0
11, 43831, Note_on_c, 11, 66, 108
11, 43846, Note_on_c, 11, 66, 0
11, 43891, Note_on_c, 11, 67, 108
11, 43906, Note_on_c, 11, 67, 0
11, 43951, Note_on_c, 11, 72, 108
11, 43966, Note_on_c, 11, 72, 0
11, 43981, Note_on_c, 11, 69, 108
11, 43996, Note_on_c, 11, 69, 0
11, 44011, Note_on_c, 11, 65, 108
11, 44026, Note_on_c, 11, 65, 0
11, 44041, Note_on_c, 11, 60, 108
11, 44056, Note_on_c, 11, 60, 0
11, 44071, Note_on_c, 11, 57, 108
11, 44086, Note_on_c, 11, 57, 0
11, 44101, Note_on_c, 11, 57, 108
11, 44161, Note_on_c, 11, 57, 0
11, 44161, Note_on_c, 11, 58, 100
11, 44221, Note_on_c, 11, 58, 0
11, 44221, Note_on_c, 11, 55, 100
11, 44261, Control_c, 11, 11, 87
11, 44263, Control_c, 11, 11, 83
11, 44265, Control_c, 11, 11, 79
11, 44267, Control_c, 11, 11, 75
11, 44269, Control_c, 11, 11, 71
11, 44271, Control_c, 11, 11, 67
11, 44273, Control_c, 11, 11, 63
11, 44275, Control_c, 11, 11, 59
11, 44276, Note_on_c, 11, 55, 0
11, 44277, Control_c, 11, 11, 55
11, 44279, Control_c, 11, 11, 51
11, 44281, Control_c, 11, 11, 47
11, 44281, Note_on_c, 11, 57, 88
11, 44315, Note_on_c, 11, 57, 0
11, 44326, Note_on_c, 11, 57, 84
11, 44326, Note_on_c, 11, 65, 84
11, 44335, Note_on_c, 11, 65, 0
11, 44335, Note_on_c, 11, 57, 0
11, 44341, Note_on_c, 11, 57, 84
11, 44341, Note_on_c, 11, 65, 84
11, 44375, Note_on_c, 11, 65, 0
11, 44375, Note_on_c, 11, 57, 0
11, 44386, Note_on_c, 11, 65, 84
11, 44386, Note_on_c, 11, 57, 84
11, 44395, Note_on_c, 11, 57, 0
11, 44395, Note_on_c, 11, 65, 0
11, 44401, Note_on_c, 11, 57, 84
11, 44401, Note_on_c, 11, 65, 84
11, 44435, Note_on_c, 11, 65, 0
11, 44435, Note_on_c, 11, 57, 0
11, 44446, Note_on_c, 11, 65, 84
11, 44446, Note_on_c, 11, 57, 84
11, 44455, Note_on_c, 11, 57, 0
11, 44455, Note_on_c, 11, 65, 0
11, 44461, Note_on_c, 11, 57, 84
11, 44461, Note_on_c, 11, 65, 84
11, 44495, Note_on_c, 11, 65, 0
11, 44495, Note_on_c, 11, 57, 0
11, 44506, Note_on_c, 11, 65, 84
11, 44506, Note_on_c, 11, 57, 84
11, 44515, Note_on_c, 11, 57, 0
11, 44515, Note_on_c, 11, 65, 0
11, 44521, Note_on_c, 11, 65, 84
11, 44521, Note_on_c, 11, 57, 84
11, 44555, Note_on_c, 11, 57, 0
11, 44555, Note_on_c, 11, 65, 0
11, 44566, Note_on_c, 11, 65, 84
11, 44566, Note_on_c, 11, 57, 84
11, 44575, Note_on_c, 11, 57, 0
11, 44575, Note_on_c, 11, 65, 0
11, 44581, Note_on_c, 11, 57, 84
11, 44581, Note_on_c, 11, 65, 84
11, 44615, Note_on_c, 11, 65, 0
11, 44615, Note_on_c, 11, 57, 0
11, 44626, Note_on_c, 11, 57, 84
11, 44626, Note_on_c, 11, 65, 84
11, 44635, Note_on_c, 11, 65, 0
11, 44635, Note_on_c, 11, 57, 0
11, 44641, Note_on_c, 11, 64, 84
11, 44641, Note_on_c, 11, 55, 84
11, 44675, Note_on_c, 11, 55, 0
11, 44675, Note_on_c, 11, 64, 0
11, 44686, Note_on_c, 11, 55, 84
11, 44686, Note_on_c, 11, 64, 84
11, 44695, Note_on_c, 11, 64, 0
11, 44695, Note_on_c, 11, 55, 0
11, 44701, Note_on_c, 11, 55, 84
11, 44701, Note_on_c, 11, 64, 84
11, 44735, Note_on_c, 11, 64, 0
11, 44735, Note_on_c, 11, 55, 0
11, 44746, Note_on_c, 11, 55, 84
11, 44746, Note_on_c, 11, 64, 84
11, 44755, Note_on_c, 11, 64, 0
11, 44755, Note_on_c, 11, 55, 0
11, 44761, Note_on_c, 11, 64, 84
11, 44761, Note_on_c, 11, 55, 84
11, 44795, Note_on_c, 11, 55, 0
11, 44795, Note_on_c, 11, 64, 0
11, 44806, Note_on_c, 11, 55, 84
11, 44806, Note_on_c, 11, 64, 84
11, 44815, Note_on_c, 11, 64, 0
11, 44815, Note_on_c, 11, 55, 0
11, 44821, Note_on_c, 11, 64, 84
11, 44821, Note_on_c, 11, 55, 84
11, 44855, Note_on_c, 11, 55, 0
11, 44855, Note_on_c, 11, 64, 0
11, 44866, Note_on_c, 11, 64, 84
11, 44866, Note_on_c, 11, 55, 84
11, 44875, Note_on_c, 11, 55, 0
11, 44875, Note_on_c, 11, 64, 0
11, 44881, Note_on_c, 11, 64, 84
11, 44881, Note_on_c, 11, 55, 84
11, 44915, Note_on_c, 11, 55, 0
11, 44915, Note_on_c, 11, 64, 0
11, 44926, Note_on_c, 11, 64, 84
11, 44926, Note_on_c, 11, 55, 84
11, 44935, Note_on_c, 11, 55, 0
11, 44935, Note_on_c, 11, 64, 0
11, 44941, Note_on_c, 11, 55, 84
11, 44941, Note_on_c, 11, 64, 84
11, 44975, Note_on_c, 11, 64, 0
11, 44975, Note_on_c, 11, 55, 0
11, 44986, Note_on_c, 11, 64, 84
11, 44986, Note_on_c, 11, 55, 84
11, 44995, Note_on_c, 11, 55, 0
11, 44995, Note_on_c, 11, 64, 0
11, 45001, Note_on_c, 11, 57, 84
11, 45001, Note_on_c, 11, 65, 84
11, 45035, Note_on_c, 11, 65, 0
11, 45035, Note_on_c, 11, 57, 0
11, 45046, Note_on_c, 11, 57, 84
11, 45046, Note_on_c, 11, 65, 84
11, 45055, Note_on_c, 11, 65, 0
11, 45055, Note_on_c, 11, 57, 0
11, 45061, Note_on_c, 11, 57, 84
11, 45061, Note_on_c, 11, 65, 84
11, 45095, Note_on_c, 11, 65, 0
11, 45095, Note_on_c, 11, 57, 0
11, 45106, Note_on_c, 11, 57, 84
11, 45106, Note_on_c, 11, 65, 84
11, 45115, Note_on_c, 11, 65, 0
11, 45115, Note_on_c, 11, 57, 0
11, 45121, Note_on_c, 11, 57, 84
11, 45121, Note_on_c, 11, 65, 84
11, 45155, Note_on_c, 11, 65, 0
11, 45155, Note_on_c, 11, 57, 0
11, 45166, Note_on_c, 11, 65, 84
11, 45166, Note_on_c, 11, 57, 84
11, 45175, Note_on_c, 11, 57, 0
11, 45175, Note_on_c, 11, 65, 0
11, 45181, Note_on_c, 11, 57, 84
11, 45181, Note_on_c, 11, 65, 84
11, 45215, Note_on_c, 11, 65, 0
11, 45215, Note_on_c, 11, 57, 0
11, 45226, Note_on_c, 11, 57, 84
11, 45226, Note_on_c, 11, 65, 84
11, 45235, Note_on_c, 11, 65, 0
11, 45235, Note_on_c, 11, 57, 0
11, 45241, Note_on_c, 11, 65, 84
11, 45241, Note_on_c, 11, 57, 84
11, 45275, Note_on_c, 11, 57, 0
11, 45275, Note_on_c, 11, 65, 0
11, 45286, Note_on_c, 11, 57, 84
11, 45286, Note_on_c, 11, 65, 84
11, 45295, Note_on_c, 11, 65, 0
11, 45295, Note_on_c, 11, 57, 0
11, 45301, Note_on_c, 11, 65, 84
11, 45301, Note_on_c, 11, 57, 84
11, 45335, Note_on_c, 11, 57, 0
11, 45335, Note_on_c, 11, 65, 0
11, 45346, Note_on_c, 11, 65, 84
11, 45346, Note_on_c, 11, 57, 84
11, 45355, Note_on_c, 11, 57, 0
11, 45355, Note_on_c, 11, 65, 0
11, 45361, Note_on_c, 11, 64, 84
11, 45361, Note_on_c, 11, 55, 84
11, 45395, Note_on_c, 11, 55, 0
11, 45395, Note_on_c, 11, 64, 0
11, 45406, Note_on_c, 11, 55, 84
11, 45406, Note_on_c, 11, 64, 84
11, 45415, Note_on_c, 11, 64, 0
11, 45415, Note_on_c, 11, 55, 0
11, 45421, Note_on_c, 11, 64, 84
11, 45421, Note_on_c, 11, 55, 84
11, 45455, Note_on_c, 11, 55, 0
11, 45455, Note_on_c, 11, 64, 0
11, 45466, Note_on_c, 11, 64, 84
11, 45466, Note_on_c, 11, 55, 84
11, 45475, Note_on_c, 11, 55, 0
11, 45475, Note_on_c, 11, 64, 0
11, 45481, Note_on_c, 11, 64, 84
11, 45481, Note_on_c, 11, 55, 84
11, 45515, Note_on_c, 11, 55, 0
11, 45515, Note_on_c, 11, 64, 0
11, 45526, Note_on_c, 11, 64, 84
11, 45526, Note_on_c, 11, 55, 84
11, 45535, Note_on_c, 11, 55, 0
11, 45535, Note_on_c, 11, 64, 0
11, 45541, Note_on_c, 11, 64, 84
11, 45541, Note_on_c, 11, 55, 84
11, 45575, Note_on_c, 11, 55, 0
11, 45575, Note_on_c, 11, 64, 0
11, 45586, Note_on_c, 11, 64, 84
11, 45586, Note_on_c, 11, 55, 84
11, 45595, Note_on_c, 11, 55, 0
11, 45595, Note_on_c, 11, 64, 0
11, 45601, Note_on_c, 11, 64, 84
11, 45601, Note_on_c, 11, 55, 84
11, 45635, Note_on_c, 11, 55, 0
11, 45635, Note_on_c, 11, 64, 0
11, 45646, Note_on_c, 11, 64, 84
11, 45646, Note_on_c, 11, 55, 84
11, 45655, Note_on_c, 11, 55, 0
11, 45655, Note_on_c, 11, 64, 0
11, 45661, Note_on_c, 11, 64, 84
11, 45661, Note_on_c, 11, 55, 84
11, 45695, Note_on_c, 11, 55, 0
11, 45695, Note_on_c, 11, 64, 0
11, 45706, Note_on_c, 11, 55, 84
11, 45706, Note_on_c, 11, 64, 84
11, 45715, Note_on_c, 11, 64, 0
11, 45715, Note_on_c, 11, 55, 0
11, 45721, Note_on_c, 11, 57, 84
11, 45721, Note_on_c, 11, 65, 84
11, 45741, Control_c, 11, 11, 47
11, 45746, Control_c, 11, 11, 44
11, 45752, Control_c, 11, 11, 41
11, 45758, Control_c, 11, 11, 38
11, 45764, Control_c, 11, 11, 35
11, 45770, Control_c, 11, 11, 32
11, 45776, Control_c, 11, 11, 29
11, 45781, Note_on_c, 11, 65, 0
11, 45781, Note_on_c, 11, 57, 0
11, 46131, Control_c, 11, 11, 37
11, 46131, Note_on_c, 11, 71, 88
11, 46141, Note_on_c, 11, 71, 0
11, 46141, Note_on_c, 11, 72, 88
11, 46171, Note_on_c, 11, 72, 0
11, 46311, Note_on_c, 11, 71, 88
11, 46321, Note_on_c, 11, 71, 0
11, 46321, Note_on_c, 11, 72, 88
11, 46351, Note_on_c, 11, 72, 0
11, 46381, Note_on_c, 11, 76, 96
11, 46381, Control_c, 11, 11, 62
11, 46383, Control_c, 11, 11, 65
11, 46386, Control_c, 11, 11, 69
11, 46389, Control_c, 11, 11, 72
11, 46391, Control_c, 11, 11, 75
11, 46394, Control_c, 11, 11, 79
11, 46397, Control_c, 11, 11, 82
11, 46399, Control_c, 11, 11, 85
11, 46441, Note_on_c, 11, 76, 0
11, 46441, Note_on_c, 11, 77, 108
11, 46471, Note_on_c, 11, 77, 0
11, 46501, Control_c, 11, 11, 42
11, 46501, Note_on_c, 11, 57, 108
11, 46501, Note_on_c, 11, 65, 108
11, 46531, Note_on_c, 11, 65, 0
11, 46531, Note_on_c, 11, 57, 0
11, 46561, Note_on_c, 11, 57, 98
11, 46561, Note_on_c, 11, 65, 98
11, 46591, Note_on_c, 11, 65, 0
11, 46591, Note_on_c, 11, 57, 0
11, 46621, Note_on_c, 11, 57, 80
11, 46621, Note_on_c, 11, 65, 80
11, 46701, Control_c, 11, 11, 42
11, 46707, Control_c, 11, 11, 39
11, 46713, Control_c, 11, 11, 36
11, 46719, Control_c, 11, 11, 33
11, 46725, Control_c, 11, 11, 30
11, 46731, Control_c, 11, 11, 27
11, 46737, Control_c, 11, 11, 24
11, 46741, Note_on_c, 11, 65, 0
11, 46741, Note_on_c, 11, 57, 0
11, 46981, Control_c, 11, 121, 0
11, 46981, End_track
12, 0, Start_track
12, 0, MIDI_port, 0
12, 0, Title_t, "Viola"
12, 0, Program_c, 12, 48
12, 0, Control_c, 12, 10, 40
12, 2, Control_c, 12, 121, 0
12, 7, Program_c, 12, 48
12, 12, Pitch_bend_c, 12, 8492
12, 17, Control_c, 12, 11, 47
12, 22, Control_c, 12, 7, 127
12, 27, Control_c, 12, 91, 25
12, 32, Control_c, 12, 93, 0
12, 37, Control_c, 12, 10, 40
12, 42, Control_c, 12, 1, 36
12, 1201, Program_c, 12, 50
12, 1202, Note_on_c, 12, 53, 93
12, 1202, Control_c, 12, 11, 27
12, 1220, Control_c, 12, 11, 30
12, 1238, Control_c, 12, 11, 33
12, 1256, Control_c, 12, 11, 36
12, 1262, Note_on_c, 12, 53, 0
12, 1262, Note_on_c, 12, 60, 108
12, 1301, Note_on_c, 12, 60, 0
12, 1322, Note_on_c, 12, 60, 108
12, 1361, Note_on_c, 12, 60, 0
12, 1382, Note_on_c, 12, 60, 108
12, 1442, Note_on_c, 12, 60, 0
12, 1442, Note_on_c, 12, 64, 108
12, 1481, Note_on_c, 12, 64, 0
12, 1502, Note_on_c, 12, 64, 108
12, 1541, Note_on_c, 12, 64, 0
12, 1562, Note_on_c, 12, 64, 108
12, 1562, Control_c, 12, 11, 37
12, 1574, Control_c, 12, 11, 40
12, 1586, Control_c, 12, 11, 43
12, 1598, Control_c, 12, 11, 46
12, 1610, Control_c, 12, 11, 49
12, 1622, Note_on_c, 12, 64, 0
12, 1622, Note_on_c, 12, 65, 108
12, 1622, Control_c, 12, 11, 52
12, 1677, Note_on_c, 12, 65, 0
12, 1682, Note_on_c, 12, 65, 108
12, 1682, Control_c, 12, 11, 47
12, 1712, Note_on_c, 12, 65, 0
12, 1727, Note_on_c, 12, 64, 108
12, 1737, Note_on_c, 12, 64, 0
12, 1742, Note_on_c, 12, 62, 108
12, 1772, Note_on_c, 12, 62, 0
12, 1787, Note_on_c, 12, 60, 108
12, 1797, Note_on_c, 12, 60, 0
12, 1802, Note_on_c, 12, 59, 108
12, 1802, Control_c, 12, 11, 37
12, 1841, Note_on_c, 12, 59, 0
12, 1862, Note_on_c, 12, 59, 108
12, 1901, Note_on_c, 12, 59, 0
12, 1922, Note_on_c, 12, 59, 108
12, 1982, Note_on_c, 12, 59, 0
12, 1982, Note_on_c, 12, 60, 108
12, 1982, Control_c, 12, 11, 37
12, 2006, Control_c, 12, 11, 39
12, 2021, Note_on_c, 12, 60, 0
12, 2030, Control_c, 12, 11, 41
12, 2042, Note_on_c, 12, 60, 108
12, 2054, Control_c, 12, 11, 43
12, 2072, Note_on_c, 12, 60, 0
12, 2078, Control_c, 12, 11, 45
12, 2087, Note_on_c, 12, 59, 108
12, 2097, Note_on_c, 12, 59, 0
12, 2102, Note_on_c, 12, 60, 108
12, 2102, Control_c, 12, 11, 47
12, 2126, Control_c, 12, 11, 49
12, 2132, Note_on_c, 12, 60, 0
12, 2147, Note_on_c, 12, 62, 108
12, 2150, Control_c, 12, 11, 51
12, 2157, Note_on_c, 12, 62, 0
12, 2162, Note_on_c, 12, 58, 108
12, 2201, Note_on_c, 12, 58, 0
12, 2222, Note_on_c, 12, 58, 108
12, 2252, Note_on_c, 12, 58, 0
12, 2252, Control_c, 12, 11, 47
12, 2261, Control_c, 12, 11, 44
12, 2267, Note_on_c, 12, 57, 108
12, 2270, Control_c, 12, 11, 41
12, 2277, Note_on_c, 12, 57, 0
12, 2279, Control_c, 12, 11, 38
12, 2282, Note_on_c, 12, 58, 108
12, 2312, Note_on_c, 12, 58, 0
12, 2327, Note_on_c, 12, 60, 108
12, 2337, Note_on_c, 12, 60, 0
12, 2342, Note_on_c, 12, 57, 108
12, 2342, Control_c, 12, 11, 37
12, 2381, Note_on_c, 12, 57, 0
12, 2401, Program_c, 12, 48
12, 2402, Note_on_c, 12, 57, 108
12, 2462, Note_on_c, 12, 57, 0
12, 2462, Note_on_c, 12, 60, 108
12, 2522, Note_on_c, 12, 60, 0
12, 2582, Note_on_c, 12, 65, 108
12, 2642, Note_on_c, 12, 65, 0
12, 2642, Note_on_c, 12, 69, 108
12, 2642, Control_c, 12, 11, 37
12, 2654, Control_c, 12, 11, 40
12, 2666, Control_c, 12, 11, 43
12, 2678, Control_c, 12, 11, 46
12, 2690, Control_c, 12, 11, 49
12, 2702, Note_on_c, 12, 69, 0
12, 2702, Note_on_c, 12, 60, 108
12, 2702, Control_c, 12, 11, 52
12, 2738, Note_on_c, 12, 60, 0
12, 2762, Note_on_c, 12, 60, 108
12, 2762, Control_c, 12, 11, 47
12, 2798, Note_on_c, 12, 60, 0
12, 2822, Note_on_c, 12, 60, 108
12, 2858, Note_on_c, 12, 60, 0
12, 2882, Note_on_c, 12, 67, 108
12, 2882, Control_c, 12, 11, 37
12, 2900, Control_c, 12, 11, 38
12, 2918, Control_c, 12, 11, 39
12, 2936, Control_c, 12, 11, 40
12, 2942, Note_on_c, 12, 67, 0
12, 2942, Note_on_c, 12, 64, 93
12, 2954, Control_c, 12, 11, 41
12, 2972, Control_c, 12, 11, 42
12, 2990, Control_c, 12, 11, 43
12, 3002, Note_on_c, 12, 64, 0
12, 3002, Note_on_c, 12, 67, 108
12, 3008, Control_c, 12, 11, 44
12, 3026, Control_c, 12, 11, 45
12, 3044, Control_c, 12, 11, 46
12, 3057, Note_on_c, 12, 67, 0
12, 3062, Note_on_c, 12, 60, 108
12, 3062, Control_c, 12, 11, 47
12, 3080, Control_c, 12, 11, 48
12, 3087, Note_on_c, 12, 60, 0
12, 3092, Note_on_c, 12, 60, 108
12, 3098, Control_c, 12, 11, 49
12, 3116, Control_c, 12, 11, 50
12, 3117, Note_on_c, 12, 60, 0
12, 3122, Note_on_c, 12, 60, 108
12, 3134, Control_c, 12, 11, 51
12, 3147, Note_on_c, 12, 60, 0
12, 3152, Note_on_c, 12, 60, 108
12, 3152, Control_c, 12, 11, 52
12, 3170, Control_c, 12, 11, 53
12, 3177, Note_on_c, 12, 60, 0
12, 3182, Note_on_c, 12, 60, 108
12, 3188, Control_c, 12, 11, 54
12, 3206, Control_c, 12, 11, 55
12, 3207, Note_on_c, 12, 60, 0
12, 3212, Note_on_c, 12, 60, 108
12, 3224, Control_c, 12, 11, 56
12, 3237, Note_on_c, 12, 60, 0
12, 3242, Note_on_c, 12, 60, 108
12, 3242, Control_c, 12, 11, 57
12, 3267, Note_on_c, 12, 60, 0
12, 3272, Note_on_c, 12, 60, 108
12, 3297, Note_on_c, 12, 60, 0
12, 3302, Note_on_c, 12, 64, 108
12, 3327, Note_on_c, 12, 64, 0
12, 3332, Note_on_c, 12, 60, 108
12, 3357, Note_on_c, 12, 60, 0
12, 3362, Note_on_c, 12, 65, 108
12, 3387, Note_on_c, 12, 65, 0
12, 3392, Note_on_c, 12, 60, 108
12, 3417, Note_on_c, 12, 60, 0
12, 3422, Note_on_c, 12, 60, 108
12, 3447, Note_on_c, 12, 60, 0
12, 3452, Note_on_c, 12, 60, 108
12, 3477, Note_on_c, 12, 60, 0
12, 3482, Note_on_c, 12, 60, 108
12, 3507, Note_on_c, 12, 60, 0
12, 3512, Note_on_c, 12, 60, 108
12, 3537, Note_on_c, 12, 60, 0
12, 3542, Note_on_c, 12, 64, 108
12, 3567, Note_on_c, 12, 64, 0
12, 3572, Note_on_c, 12, 60, 108
12, 3597, Note_on_c, 12, 60, 0
12, 3602, Note_on_c, 12, 65, 108
12, 3627, Note_on_c, 12, 65, 0
12, 3632, Note_on_c, 12, 60, 108
12, 3657, Note_on_c, 12, 60, 0
12, 3662, Note_on_c, 12, 65, 108
12, 3687, Note_on_c, 12, 65, 0
12, 3692, Note_on_c, 12, 60, 108
12, 3717, Note_on_c, 12, 60, 0
12, 3722, Note_on_c, 12, 65, 108
12, 3722, Control_c, 12, 11, 56
12, 3725, Control_c, 12, 11, 60
12, 3728, Control_c, 12, 11, 63
12, 3731, Control_c, 12, 11, 66
12, 3734, Control_c, 12, 11, 70
12, 3747, Note_on_c, 12, 65, 0
12, 3750, Control_c, 12, 11, 67
12, 3752, Note_on_c, 12, 60, 108
12, 3758, Control_c, 12, 11, 64
12, 3767, Control_c, 12, 11, 61
12, 3777, Note_on_c, 12, 60, 0
12, 3777, Control_c, 12, 11, 58
12, 3782, Note_on_c, 12, 64, 108
12, 3807, Note_on_c, 12, 64, 0
12, 3812, Note_on_c, 12, 60, 108
12, 3837, Note_on_c, 12, 60, 0
12, 3842, Note_on_c, 12, 60, 108
12, 3867, Note_on_c, 12, 60, 0
12, 3872, Note_on_c, 12, 60, 108
12, 3897, Note_on_c, 12, 60, 0
12, 3902, Note_on_c, 12, 64, 108
12, 3927, Note_on_c, 12, 64, 0
12, 3932, Note_on_c, 12, 60, 108
12, 3957, Note_on_c, 12, 60, 0
12, 3962, Note_on_c, 12, 65, 108
12, 3962, Control_c, 12, 11, 62
12, 3987, Note_on_c, 12, 65, 0
12, 3992, Note_on_c, 12, 60, 108
12, 4017, Note_on_c, 12, 60, 0
12, 4022, Note_on_c, 12, 65, 108
12, 4047, Note_on_c, 12, 65, 0
12, 4052, Note_on_c, 12, 60, 108
12, 4077, Note_on_c, 12, 60, 0
12, 4082, Note_on_c, 12, 65, 108
12, 4082, Control_c, 12, 11, 62
12, 4085, Control_c, 12, 11, 66
12, 4088, Control_c, 12, 11, 69
12, 4091, Control_c, 12, 11, 72
12, 4094, Control_c, 12, 11, 76
12, 4107, Note_on_c, 12, 65, 0
12, 4110, Control_c, 12, 11, 73
12, 4112, Note_on_c, 12, 60, 108
12, 4118, Control_c, 12, 11, 70
12, 4127, Control_c, 12, 11, 67
12, 4137, Note_on_c, 12, 60, 0
12, 4137, Control_c, 12, 11, 64
12, 4142, Note_on_c, 12, 64, 108
12, 4167, Note_on_c, 12, 64, 0
12, 4172, Note_on_c, 12, 60, 108
12, 4197, Note_on_c, 12, 60, 0
12, 4202, Note_on_c, 12, 64, 108
12, 4227, Note_on_c, 12, 64, 0
12, 4232, Note_on_c, 12, 60, 108
12, 4257, Note_on_c, 12, 60, 0
12, 4262, Note_on_c, 12, 65, 108
12, 4262, Control_c, 12, 11, 68
12, 4265, Control_c, 12, 11, 72
12, 4268, Control_c, 12, 11, 75
12, 4271, Control_c, 12, 11, 78
12, 4274, Control_c, 12, 11, 82
12, 4287, Note_on_c, 12, 65, 0
12, 4290, Control_c, 12, 11, 79
12, 4292, Note_on_c, 12, 60, 108
12, 4298, Control_c, 12, 11, 76
12, 4307, Control_c, 12, 11, 73
12, 4317, Note_on_c, 12, 60, 0
12, 4317, Control_c, 12, 11, 70
12, 4322, Note_on_c, 12, 64, 108
12, 4347, Note_on_c, 12, 64, 0
12, 4352, Note_on_c, 12, 60, 108
12, 4377, Note_on_c, 12, 60, 0
12, 4382, Note_on_c, 12, 64, 108
12, 4407, Note_on_c, 12, 64, 0
12, 4412, Note_on_c, 12, 60, 108
12, 4437, Note_on_c, 12, 60, 0
12, 4442, Control_c, 12, 11, 89
12, 4442, Note_on_c, 12, 65, 108
12, 4458, Control_c, 12, 11, 86
12, 4467, Note_on_c, 12, 65, 0
12, 4472, Note_on_c, 12, 60, 108
12, 4475, Control_c, 12, 11, 83
12, 4491, Control_c, 12, 11, 80
12, 4497, Note_on_c, 12, 60, 0
12, 4502, Note_on_c, 12, 60, 98
12, 4502, Control_c, 12, 11, 87
12, 4541, Note_on_c, 12, 60, 0
12, 4562, Note_on_c, 12, 48, 89
12, 4601, Note_on_c, 12, 48, 0
12, 4622, Note_on_c, 12, 48, 86
12, 4661, Note_on_c, 12, 48, 0
12, 4682, Note_on_c, 12, 48, 75
12, 4717, Control_c, 12, 11, 87
12, 4719, Control_c, 12, 11, 84
12, 4722, Control_c, 12, 11, 81
12, 4725, Control_c, 12, 11, 78
12, 4728, Control_c, 12, 11, 75
12, 4731, Control_c, 12, 11, 72
12, 4734, Control_c, 12, 11, 69
12, 4737, Control_c, 12, 11, 66
12, 4740, Control_c, 12, 11, 63
12, 4742, Note_on_c, 12, 48, 0
12, 4982, Note_on_c, 12, 67, 93
12, 4982, Control_c, 12, 11, 37
12, 5000, Control_c, 12, 11, 40
12, 5018, Control_c, 12, 11, 43
12, 5036, Control_c, 12, 11, 46
12, 5042, Note_on_c, 12, 67, 0
12, 5042, Note_on_c, 12, 65, 108
12, 5081, Note_on_c, 12, 65, 0
12, 5342, Control_c, 12, 11, 32
12, 5342, Note_on_c, 12, 65, 93
12, 5353, Control_c, 12, 11, 35
12, 5365, Control_c, 12, 11, 38
12, 5376, Control_c, 12, 11, 41
12, 5388, Control_c, 12, 11, 44
12, 5402, Note_on_c, 12, 65, 0
12, 5402, Note_on_c, 12, 64, 108
12, 5441, Note_on_c, 12, 64, 0
12, 5582, Note_on_c, 12, 55, 108
12, 5621, Note_on_c, 12, 55, 0
12, 5642, Note_on_c, 12, 67, 108
12, 5694, Note_on_c, 12, 67, 0
12, 5702, Note_on_c, 12, 67, 108
12, 5754, Note_on_c, 12, 67, 0
12, 5762, Note_on_c, 12, 67, 108
12, 5822, Note_on_c, 12, 67, 0
12, 5822, Note_on_c, 12, 65, 108
12, 5882, Note_on_c, 12, 65, 0
12, 5882, Note_on_c, 12, 64, 108
12, 5937, Note_on_c, 12, 64, 0
12, 5942, Note_on_c, 12, 62, 108
12, 6002, Note_on_c, 12, 62, 0
12, 6002, Note_on_c, 12, 59, 108
12, 6062, Note_on_c, 12, 59, 0
12, 6062, Note_on_c, 12, 60, 108
12, 6117, Note_on_c, 12, 60, 0
12, 6122, Note_on_c, 12, 67, 108
12, 6182, Note_on_c, 12, 67, 0
12, 6542, Note_on_c, 12, 65, 108
12, 6581, Note_on_c, 12, 65, 0
12, 6602, Note_on_c, 12, 62, 108
12, 6641, Note_on_c, 12, 62, 0
12, 6662, Note_on_c, 12, 67, 108
12, 6701, Note_on_c, 12, 67, 0
12, 6722, Note_on_c, 12, 55, 108
12, 6761, Note_on_c, 12, 55, 0
12, 6902, Note_on_c, 12, 64, 108
12, 6941, Note_on_c, 12, 64, 0
12, 6962, Note_on_c, 12, 60, 108
12, 7001, Note_on_c, 12, 60, 0
12, 7022, Note_on_c, 12, 55, 108
12, 7022, Control_c, 12, 11, 47
12, 7043, Control_c, 12, 11, 50
12, 7058, Control_c, 12, 11, 52
12, 7061, Note_on_c, 12, 55, 0
12, 7079, Control_c, 12, 11, 55
12, 7082, Note_on_c, 12, 64, 108
12, 7094, Control_c, 12, 11, 57
12, 7115, Control_c, 12, 11, 60
12, 7121, Note_on_c, 12, 64, 0
12, 7130, Control_c, 12, 11, 62
12, 7142, Note_on_c, 12, 64, 108
12, 7151, Control_c, 12, 11, 65
12, 7166, Control_c, 12, 11, 67
12, 7181, Note_on_c, 12, 64, 0
12, 7187, Control_c, 12, 11, 70
12, 7202, Control_c, 12, 11, 72
12, 7202, Note_on_c, 12, 65, 108
12, 7262, Note_on_c, 12, 65, 0
12, 7442, Control_c, 12, 11, 47
12, 7442, Note_on_c, 12, 67, 108
12, 7472, Note_on_c, 12, 67, 0
12, 7502, Note_on_c, 12, 55, 108
12, 7532, Note_on_c, 12, 55, 0
12, 7562, Note_on_c, 12, 60, 108
12, 7622, Note_on_c, 12, 60, 0
12, 7667, Note_on_c, 12, 71, 108
12, 7675, Note_on_c, 12, 71, 0
12, 7682, Note_on_c, 12, 72, 108
12, 7705, Note_on_c, 12, 72, 0
12, 7727, Note_on_c, 12, 74, 108
12, 7735, Note_on_c, 12, 74, 0
12, 7742, Note_on_c, 12, 72, 108
12, 7772, Note_on_c, 12, 72, 0
12, 7847, Note_on_c, 12, 68, 108
12, 7855, Note_on_c, 12, 68, 0
12, 7862, Note_on_c, 12, 69, 108
12, 7885, Note_on_c, 12, 69, 0
12, 7907, Note_on_c, 12, 71, 108
12, 7915, Note_on_c, 12, 71, 0
12, 7922, Note_on_c, 12, 69, 108
12, 7952, Note_on_c, 12, 69, 0
12, 8027, Note_on_c, 12, 64, 108
12, 8035, Note_on_c, 12, 64, 0
12, 8042, Note_on_c, 12, 65, 108
12, 8065, Note_on_c, 12, 65, 0
12, 8087, Note_on_c, 12, 67, 108
12, 8095, Note_on_c, 12, 67, 0
12, 8102, Note_on_c, 12, 65, 108
12, 8125, Note_on_c, 12, 65, 0
12, 8147, Note_on_c, 12, 62, 108
12, 8155, Note_on_c, 12, 62, 0
12, 8162, Note_on_c, 12, 67, 108
12, 8201, Note_on_c, 12, 67, 0
12, 8222, Note_on_c, 12, 55, 108
12, 8252, Note_on_c, 12, 55, 0
12, 8282, Note_on_c, 12, 60, 108
12, 8342, Note_on_c, 12, 60, 0
12, 8387, Control_c, 12, 11, 87
12, 8387, Note_on_c, 12, 67, 108
12, 8395, Note_on_c, 12, 67, 0
12, 8402, Note_on_c, 12, 67, 108
12, 8425, Note_on_c, 12, 67, 0
12, 8447, Note_on_c, 12, 67, 108
12, 8455, Note_on_c, 12, 67, 0
12, 8462, Note_on_c, 12, 67, 108
12, 8492, Note_on_c, 12, 67, 0
12, 8567, Note_on_c, 12, 64, 108
12, 8575, Note_on_c, 12, 64, 0
12, 8582, Note_on_c, 12, 64, 108
12, 8605, Note_on_c, 12, 64, 0
12, 8627, Note_on_c, 12, 64, 108
12, 8635, Note_on_c, 12, 64, 0
12, 8642, Note_on_c, 12, 64, 108
12, 8672, Note_on_c, 12, 64, 0
12, 8747, Note_on_c, 12, 64, 108
12, 8755, Note_on_c, 12, 64, 0
12, 8762, Note_on_c, 12, 64, 108
12, 8785, Note_on_c, 12, 64, 0
12, 8807, Note_on_c, 12, 64, 108
12, 8815, Note_on_c, 12, 64, 0
12, 8822, Note_on_c, 12, 64, 108
12, 8852, Note_on_c, 12, 64, 0
12, 8882, Control_c, 12, 11, 90
12, 8882, Note_on_c, 12, 60, 108
12, 8888, Control_c, 12, 11, 93
12, 8894, Control_c, 12, 11, 96
12, 8917, Control_c, 12, 11, 95
12, 8926, Control_c, 12, 11, 92
12, 8935, Control_c, 12, 11, 89
12, 9032, Note_on_c, 12, 60, 0
12, 9062, Note_on_c, 12, 69, 108
12, 9062, Control_c, 12, 11, 90
12, 9071, Control_c, 12, 11, 93
12, 9081, Control_c, 12, 11, 96
12, 9097, Control_c, 12, 11, 95
12, 9106, Control_c, 12, 11, 92
12, 9115, Control_c, 12, 11, 89
12, 9182, Note_on_c, 12, 69, 0
12, 9182, Note_on_c, 12, 62, 108
12, 9212, Note_on_c, 12, 62, 0
12, 9242, Control_c, 12, 11, 90
12, 9242, Note_on_c, 12, 71, 108
12, 9248, Control_c, 12, 11, 93
12, 9254, Control_c, 12, 11, 96
12, 9277, Control_c, 12, 11, 95
12, 9286, Control_c, 12, 11, 92
12, 9295, Control_c, 12, 11, 89
12, 9362, Note_on_c, 12, 71, 0
12, 9362, Control_c, 12, 11, 87
12, 9362, Note_on_c, 12, 69, 108
12, 9371, Control_c, 12, 11, 84
12, 9380, Control_c, 12, 11, 81
12, 9382, Note_on_c, 12, 69, 0
12, 9382, Note_on_c, 12, 65, 108
12, 9389, Control_c, 12, 11, 78
12, 9397, Note_on_c, 12, 65, 0
12, 9398, Control_c, 12, 11, 75
12, 9402, Note_on_c, 12, 69, 108
12, 9407, Control_c, 12, 11, 72
12, 9412, Note_on_c, 12, 69, 0
12, 9416, Control_c, 12, 11, 69
12, 9422, Note_on_c, 12, 67, 108
12, 9452, Note_on_c, 12, 67, 0
12, 9482, Control_c, 12, 11, 67
12, 9482, Note_on_c, 12, 62, 88
12, 9482, Control_c, 12, 11, 72
12, 9488, Control_c, 12, 11, 66
12, 9490, Control_c, 12, 11, 70
12, 9494, Control_c, 12, 11, 65
12, 9498, Control_c, 12, 11, 68
12, 9500, Control_c, 12, 11, 64
12, 9502, Control_c, 12, 11, 67
12, 9506, Control_c, 12, 11, 63
12, 9506, Control_c, 12, 11, 66
12, 9512, Note_on_c, 12, 62, 0
12, 9512, Control_c, 12, 11, 62
12, 9530, Control_c, 12, 11, 59
12, 9542, Note_on_c, 12, 60, 72
12, 9572, Control_c, 12, 11, 57
12, 9576, Control_c, 12, 11, 54
12, 9580, Control_c, 12, 11, 51
12, 9585, Control_c, 12, 11, 48
12, 9589, Control_c, 12, 11, 45
12, 9593, Control_c, 12, 11, 42
12, 9598, Control_c, 12, 11, 39
12, 9602, Note_on_c, 12, 60, 0
12, 9722, Control_c, 12, 11, 37
12, 9722, Note_on_c, 12, 62, 108
12, 9782, Note_on_c, 12, 62, 0
12, 9842, Note_on_c, 12, 62, 108
12, 9902, Note_on_c, 12, 62, 0
12, 9962, Note_on_c, 12, 60, 108
12, 10022, Note_on_c, 12, 60, 0
12, 10082, Note_on_c, 12, 59, 108
12, 10142, Note_on_c, 12, 59, 0
12, 10202, Note_on_c, 12, 59, 108
12, 10262, Note_on_c, 12, 59, 0
12, 10322, Note_on_c, 12, 60, 108
12, 10382, Note_on_c, 12, 60, 0
12, 10442, Note_on_c, 12, 62, 108
12, 10502, Note_on_c, 12, 62, 0
12, 10562, Note_on_c, 12, 62, 108
12, 10622, Note_on_c, 12, 62, 0
12, 10682, Note_on_c, 12, 60, 108
12, 10742, Note_on_c, 12, 60, 0
12, 10802, Note_on_c, 12, 62, 108
12, 10847, Note_on_c, 12, 62, 0
12, 10862, Note_on_c, 12, 62, 108
12, 10907, Note_on_c, 12, 62, 0
12, 10922, Note_on_c, 12, 62, 108
12, 10967, Note_on_c, 12, 62, 0
12, 10982, Note_on_c, 12, 60, 93
12, 11017, Control_c, 12, 11, 37
12, 11024, Control_c, 12, 11, 34
12, 11031, Control_c, 12, 11, 31
12, 11038, Control_c, 12, 11, 28
12, 11042, Note_on_c, 12, 60, 0
12, 11281, Program_c, 12, 50
12, 11282, Control_c, 12, 11, 37
12, 11282, Note_on_c, 12, 55, 84
12, 11300, Control_c, 12, 11, 40
12, 11318, Control_c, 12, 11, 43
12, 11336, Control_c, 12, 11, 46
12, 11342, Note_on_c, 12, 55, 0
12, 11342, Note_on_c, 12, 60, 108
12, 11372, Note_on_c, 12, 60, 0
12, 11401, Program_c, 12, 48
12, 11402, Note_on_c, 12, 52, 103
12, 11432, Note_on_c, 12, 52, 0
12, 11462, Note_on_c, 12, 52, 89
12, 11492, Note_on_c, 12, 52, 0
12, 11522, Note_on_c, 12, 52, 76
12, 11557, Control_c, 12, 11, 47
12, 11564, Control_c, 12, 11, 44
12, 11571, Control_c, 12, 11, 41
12, 11578, Control_c, 12, 11, 38
12, 11582, Note_on_c, 12, 52, 0
12, 12721, Program_c, 12, 50
12, 12722, Note_on_c, 12, 53, 93
12, 12722, Control_c, 12, 11, 27
12, 12740, Control_c, 12, 11, 30
12, 12758, Control_c, 12, 11, 33
12, 12776, Control_c, 12, 11, 36
12, 12782, Note_on_c, 12, 53, 0
12, 12782, Note_on_c, 12, 60, 108
12, 12821, Note_on_c, 12, 60, 0
12, 12842, Note_on_c, 12, 60, 108
12, 12881, Note_on_c, 12, 60, 0
12, 12902, Note_on_c, 12, 60, 108
12, 12962, Note_on_c, 12, 60, 0
12, 12962, Note_on_c, 12, 64, 108
12, 13001, Note_on_c, 12, 64, 0
12, 13022, Note_on_c, 12, 64, 108
12, 13061, Note_on_c, 12, 64, 0
12, 13082, Control_c, 12, 11, 37
12, 13082, Note_on_c, 12, 64, 108
12, 13094, Control_c, 12, 11, 40
12, 13106, Control_c, 12, 11, 43
12, 13118, Control_c, 12, 11, 46
12, 13130, Control_c, 12, 11, 49
12, 13142, Note_on_c, 12, 64, 0
12, 13142, Note_on_c, 12, 65, 108
12, 13142, Control_c, 12, 11, 52
12, 13197, Note_on_c, 12, 65, 0
12, 13202, Control_c, 12, 11, 47
12, 13202, Note_on_c, 12, 65, 108
12, 13232, Note_on_c, 12, 65, 0
12, 13247, Note_on_c, 12, 64, 108
12, 13257, Note_on_c, 12, 64, 0
12, 13262, Note_on_c, 12, 62, 108
12, 13292, Note_on_c, 12, 62, 0
12, 13307, Note_on_c, 12, 60, 108
12, 13317, Note_on_c, 12, 60, 0
12, 13322, Note_on_c, 12, 59, 108
12, 13322, Control_c, 12, 11, 37
12, 13361, Note_on_c, 12, 59, 0
12, 13382, Note_on_c, 12, 59, 108
12, 13421, Note_on_c, 12, 59, 0
12, 13442, Note_on_c, 12, 59, 108
12, 13502, Note_on_c, 12, 59, 0
12, 13502, Control_c, 12, 11, 37
12, 13502, Note_on_c, 12, 60, 108
12, 13526, Control_c, 12, 11, 39
12, 13541, Note_on_c, 12, 60, 0
12, 13550, Control_c, 12, 11, 41
12, 13562, Note_on_c, 12, 60, 108
12, 13574, Control_c, 12, 11, 43
12, 13592, Note_on_c, 12, 60, 0
12, 13598, Control_c, 12, 11, 45
12, 13607, Note_on_c, 12, 59, 108
12, 13617, Note_on_c, 12, 59, 0
12, 13622, Control_c, 12, 11, 47
12, 13622, Note_on_c, 12, 60, 108
12, 13646, Control_c, 12, 11, 49
12, 13652, Note_on_c, 12, 60, 0
12, 13667, Note_on_c, 12, 62, 108
12, 13670, Control_c, 12, 11, 51
12, 13677, Note_on_c, 12, 62, 0
12, 13682, Note_on_c, 12, 58, 108
12, 13721, Note_on_c, 12, 58, 0
12, 13742, Note_on_c, 12, 58, 108
12, 13772, Note_on_c, 12, 58, 0
12, 13772, Control_c, 12, 11, 47
12, 13781, Control_c, 12, 11, 44
12, 13787, Note_on_c, 12, 57, 108
12, 13790, Control_c, 12, 11, 41
12, 13797, Note_on_c, 12, 57, 0
12, 13799, Control_c, 12, 11, 38
12, 13802, Note_on_c, 12, 58, 108
12, 13832, Note_on_c, 12, 58, 0
12, 13847, Note_on_c, 12, 60, 108
12, 13857, Note_on_c, 12, 60, 0
12, 13862, Note_on_c, 12, 57, 108
12, 13862, Control_c, 12, 11, 37
12, 13901, Note_on_c, 12, 57, 0
12, 13921, Program_c, 12, 48
12, 13922, Note_on_c, 12, 57, 108
12, 13982, Note_on_c, 12, 57, 0
12, 13982, Note_on_c, 12, 60, 108
12, 14042, Note_on_c, 12, 60, 0
12, 14102, Note_on_c, 12, 65, 108
12, 14162, Note_on_c, 12, 65, 0
12, 14162, Note_on_c, 12, 69, 108
12, 14162, Control_c, 12, 11, 37
12, 14174, Control_c, 12, 11, 40
12, 14186, Control_c, 12, 11, 43
12, 14198, Control_c, 12, 11, 46
12, 14210, Control_c, 12, 11, 49
12, 14222, Note_on_c, 12, 69, 0
12, 14222, Note_on_c, 12, 60, 108
12, 14222, Control_c, 12, 11, 52
12, 14258, Note_on_c, 12, 60, 0
12, 14282, Note_on_c, 12, 60, 108
12, 14282, Control_c, 12, 11, 47
12, 14318, Note_on_c, 12, 60, 0
12, 14342, Note_on_c, 12, 60, 108
12, 14378, Note_on_c, 12, 60, 0
12, 14402, Control_c, 12, 11, 37
12, 14402, Note_on_c, 12, 67, 108
12, 14420, Control_c, 12, 11, 38
12, 14438, Control_c, 12, 11, 39
12, 14456, Control_c, 12, 11, 40
12, 14462, Note_on_c, 12, 67, 0
12, 14462, Note_on_c, 12, 64, 93
12, 14474, Control_c, 12, 11, 41
12, 14492, Control_c, 12, 11, 42
12, 14510, Control_c, 12, 11, 43
12, 14522, Note_on_c, 12, 64, 0
12, 14522, Note_on_c, 12, 67, 108
12, 14528, Control_c, 12, 11, 44
12, 14546, Control_c, 12, 11, 45
12, 14564, Control_c, 12, 11, 46
12, 14577, Note_on_c, 12, 67, 0
12, 14582, Note_on_c, 12, 60, 108
12, 14582, Control_c, 12, 11, 47
12, 14600, Control_c, 12, 11, 48
12, 14607, Note_on_c, 12, 60, 0
12, 14612, Note_on_c, 12, 60, 108
12, 14618, Control_c, 12, 11, 49
12, 14636, Control_c, 12, 11, 50
12, 14637, Note_on_c, 12, 60, 0
12, 14642, Note_on_c, 12, 60, 108
12, 14654, Control_c, 12, 11, 51
12, 14667, Note_on_c, 12, 60, 0
12, 14672, Note_on_c, 12, 60, 108
12, 14672, Control_c, 12, 11, 52
12, 14690, Control_c, 12, 11, 53
12, 14697, Note_on_c, 12, 60, 0
12, 14702, Note_on_c, 12, 60, 108
12, 14708, Control_c, 12, 11, 54
12, 14726, Control_c, 12, 11, 55
12, 14727, Note_on_c, 12, 60, 0
12, 14732, Note_on_c, 12, 60, 108
12, 14744, Control_c, 12, 11, 56
12, 14757, Note_on_c, 12, 60, 0
12, 14762, Control_c, 12, 11, 57
12, 14762, Note_on_c, 12, 60, 108
12, 14787, Note_on_c, 12, 60, 0
12, 14792, Note_on_c, 12, 60, 108
12, 14817, Note_on_c, 12, 60, 0
12, 14822, Note_on_c, 12, 64, 108
12, 14847, Note_on_c, 12, 64, 0
12, 14852, Note_on_c, 12, 60, 108
12, 14877, Note_on_c, 12, 60, 0
12, 14882, Note_on_c, 12, 65, 108
12, 14907, Note_on_c, 12, 65, 0
12, 14912, Note_on_c, 12, 60, 108
12, 14937, Note_on_c, 12, 60, 0
12, 14942, Note_on_c, 12, 60, 108
12, 14967, Note_on_c, 12, 60, 0
12, 14972, Note_on_c, 12, 60, 108
12, 14997, Note_on_c, 12, 60, 0
12, 15002, Note_on_c, 12, 60, 108
12, 15027, Note_on_c, 12, 60, 0
12, 15032, Note_on_c, 12, 60, 108
12, 15057, Note_on_c, 12, 60, 0
12, 15062, Note_on_c, 12, 64, 108
12, 15087, Note_on_c, 12, 64, 0
12, 15092, Note_on_c, 12, 60, 108
12, 15117, Note_on_c, 12, 60, 0
12, 15122, Note_on_c, 12, 65, 108
12, 15147, Note_on_c, 12, 65, 0
12, 15152, Note_on_c, 12, 60, 108
12, 15177, Note_on_c, 12, 60, 0
12, 15182, Note_on_c, 12, 65, 108
12, 15207, Note_on_c, 12, 65, 0
12, 15212, Note_on_c, 12, 60, 108
12, 15237, Note_on_c, 12, 60, 0
12, 15242, Control_c, 12, 11, 56
12, 15242, Note_on_c, 12, 65, 108
12, 15245, Control_c, 12, 11, 60
12, 15248, Control_c, 12, 11, 63
12, 15251, Control_c, 12, 11, 66
12, 15254, Control_c, 12, 11, 70
12, 15267, Note_on_c, 12, 65, 0
12, 15270, Control_c, 12, 11, 67
12, 15272, Note_on_c, 12, 60, 108
12, 15278, Control_c, 12, 11, 64
12, 15287, Control_c, 12, 11, 61
12, 15297, Note_on_c, 12, 60, 0
12, 15297, Control_c, 12, 11, 58
12, 15302, Note_on_c, 12, 64, 108
12, 15327, Note_on_c, 12, 64, 0
12, 15332, Note_on_c, 12, 60, 108
12, 15357, Note_on_c, 12, 60, 0
12, 15362, Note_on_c, 12, 60, 108
12, 15387, Note_on_c, 12, 60, 0
12, 15392, Note_on_c, 12, 60, 108
12, 15417, Note_on_c, 12, 60, 0
12, 15422, Note_on_c, 12, 64, 108
12, 15447, Note_on_c, 12, 64, 0
12, 15452, Note_on_c, 12, 60, 108
12, 15477, Note_on_c, 12, 60, 0
12, 15482, Note_on_c, 12, 65, 108
12, 15482, Control_c, 12, 11, 62
12, 15507, Note_on_c, 12, 65, 0
12, 15512, Note_on_c, 12, 60, 108
12, 15537, Note_on_c, 12, 60, 0
12, 15542, Note_on_c, 12, 65, 108
12, 15567, Note_on_c, 12, 65, 0
12, 15572, Note_on_c, 12, 60, 108
12, 15597, Note_on_c, 12, 60, 0
12, 15602, Note_on_c, 12, 65, 108
12, 15602, Control_c, 12, 11, 62
12, 15605, Control_c, 12, 11, 66
12, 15608, Control_c, 12, 11, 69
12, 15611, Control_c, 12, 11, 72
12, 15614, Control_c, 12, 11, 76
12, 15627, Note_on_c, 12, 65, 0
12, 15630, Control_c, 12, 11, 73
12, 15632, Note_on_c, 12, 60, 108
12, 15638, Control_c, 12, 11, 70
12, 15647, Control_c, 12, 11, 67
12, 15657, Note_on_c, 12, 60, 0
12, 15657, Control_c, 12, 11, 64
12, 15662, Note_on_c, 12, 64, 108
12, 15687, Note_on_c, 12, 64, 0
12, 15692, Note_on_c, 12, 60, 108
12, 15717, Note_on_c, 12, 60, 0
12, 15722, Note_on_c, 12, 64, 108
12, 15747, Note_on_c, 12, 64, 0
12, 15752, Note_on_c, 12, 60, 108
12, 15777, Note_on_c, 12, 60, 0
12, 15782, Control_c, 12, 11, 68
12, 15782, Note_on_c, 12, 65, 108
12, 15785, Control_c, 12, 11, 72
12, 15788, Control_c, 12, 11, 75
12, 15791, Control_c, 12, 11, 78
12, 15794, Control_c, 12, 11, 82
12, 15807, Note_on_c, 12, 65, 0
12, 15810, Control_c, 12, 11, 79
12, 15812, Note_on_c, 12, 60, 108
12, 15818, Control_c, 12, 11, 76
12, 15827, Control_c, 12, 11, 73
12, 15837, Note_on_c, 12, 60, 0
12, 15837, Control_c, 12, 11, 70
12, 15842, Note_on_c, 12, 64, 108
12, 15867, Note_on_c, 12, 64, 0
12, 15872, Note_on_c, 12, 60, 108
12, 15897, Note_on_c, 12, 60, 0
12, 15902, Note_on_c, 12, 64, 108
12, 15927, Note_on_c, 12, 64, 0
12, 15932, Note_on_c, 12, 60, 108
12, 15957, Note_on_c, 12, 60, 0
12, 15962, Control_c, 12, 11, 89
12, 15962, Note_on_c, 12, 65, 108
12, 15978, Control_c, 12, 11, 86
12, 15987, Note_on_c, 12, 65, 0
12, 15992, Note_on_c, 12, 60, 108
12, 15995, Control_c, 12, 11, 83
12, 16011, Control_c, 12, 11, 80
12, 16017, Note_on_c, 12, 60, 0
12, 16022, Note_on_c, 12, 60, 98
12, 16022, Control_c, 12, 11, 87
12, 16061, Note_on_c, 12, 60, 0
12, 16082, Note_on_c, 12, 48, 89
12, 16121, Note_on_c, 12, 48, 0
12, 16142, Note_on_c, 12, 48, 86
12, 16181, Note_on_c, 12, 48, 0
12, 16202, Note_on_c, 12, 48, 83
12, 16237, Control_c, 12, 11, 87
12, 16239, Control_c, 12, 11, 84
12, 16242, Control_c, 12, 11, 81
12, 16245, Control_c, 12, 11, 78
12, 16248, Control_c, 12, 11, 75
12, 16251, Control_c, 12, 11, 72
12, 16254, Control_c, 12, 11, 69
12, 16257, Control_c, 12, 11, 66
12, 16260, Control_c, 12, 11, 63
12, 16262, Note_on_c, 12, 48, 0
12, 16502, Control_c, 12, 11, 37
12, 16502, Note_on_c, 12, 67, 93
12, 16520, Control_c, 12, 11, 40
12, 16538, Control_c, 12, 11, 43
12, 16556, Control_c, 12, 11, 46
12, 16562, Note_on_c, 12, 67, 0
12, 16562, Note_on_c, 12, 65, 108
12, 16601, Note_on_c, 12, 65, 0
12, 16862, Control_c, 12, 11, 32
12, 16862, Note_on_c, 12, 65, 93
12, 16873, Control_c, 12, 11, 35
12, 16885, Control_c, 12, 11, 38
12, 16896, Control_c, 12, 11, 41
12, 16908, Control_c, 12, 11, 44
12, 16922, Note_on_c, 12, 65, 0
12, 16922, Note_on_c, 12, 64, 108
12, 16961, Note_on_c, 12, 64, 0
12, 17102, Note_on_c, 12, 55, 108
12, 17141, Note_on_c, 12, 55, 0
12, 17162, Note_on_c, 12, 67, 108
12, 17214, Note_on_c, 12, 67, 0
12, 17222, Note_on_c, 12, 67, 108
12, 17274, Note_on_c, 12, 67, 0
12, 17282, Note_on_c, 12, 67, 108
12, 17342, Note_on_c, 12, 67, 0
12, 17342, Note_on_c, 12, 65, 108
12, 17402, Note_on_c, 12, 65, 0
12, 17402, Note_on_c, 12, 64, 108
12, 17457, Note_on_c, 12, 64, 0
12, 17462, Note_on_c, 12, 62, 108
12, 17462, Control_c, 12, 11, 47
12, 17480, Control_c, 12, 11, 50
12, 17498, Control_c, 12, 11, 53
12, 17516, Control_c, 12, 11, 56
12, 17522, Note_on_c, 12, 62, 0
12, 17522, Note_on_c, 12, 59, 108
12, 17534, Control_c, 12, 11, 56
12, 17558, Control_c, 12, 11, 54
12, 17582, Note_on_c, 12, 59, 0
12, 17582, Control_c, 12, 11, 52
12, 17582, Note_on_c, 12, 60, 108
12, 17606, Control_c, 12, 11, 50
12, 17630, Control_c, 12, 11, 48
12, 17637, Note_on_c, 12, 60, 0
12, 17642, Note_on_c, 12, 67, 108
12, 17702, Note_on_c, 12, 67, 0
12, 18062, Note_on_c, 12, 65, 108
12, 18101, Note_on_c, 12, 65, 0
12, 18122, Note_on_c, 12, 62, 108
12, 18161, Note_on_c, 12, 62, 0
12, 18182, Note_on_c, 12, 67, 108
12, 18221, Note_on_c, 12, 67, 0
12, 18242, Note_on_c, 12, 55, 108
12, 18281, Note_on_c, 12, 55, 0
12, 18422, Note_on_c, 12, 64, 108
12, 18461, Note_on_c, 12, 64, 0
12, 18482, Note_on_c, 12, 60, 108
12, 18521, Note_on_c, 12, 60, 0
12, 18542, Control_c, 12, 11, 47
12, 18542, Note_on_c, 12, 55, 108
12, 18563, Control_c, 12, 11, 50
12, 18578, Control_c, 12, 11, 52
12, 18581, Note_on_c, 12, 55, 0
12, 18599, Control_c, 12, 11, 55
12, 18602, Note_on_c, 12, 64, 108
12, 18614, Control_c, 12, 11, 57
12, 18635, Control_c, 12, 11, 60
12, 18641, Note_on_c, 12, 64, 0
12, 18650, Control_c, 12, 11, 62
12, 18662, Note_on_c, 12, 64, 108
12, 18671, Control_c, 12, 11, 65
12, 18686, Control_c, 12, 11, 67
12, 18701, Note_on_c, 12, 64, 0
12, 18707, Control_c, 12, 11, 70
12, 18722, Control_c, 12, 11, 72
12, 18722, Note_on_c, 12, 65, 108
12, 18782, Note_on_c, 12, 65, 0
12, 18962, Note_on_c, 12, 67, 108
12, 18962, Control_c, 12, 11, 47
12, 18992, Note_on_c, 12, 67, 0
12, 19022, Note_on_c, 12, 55, 108
12, 19052, Note_on_c, 12, 55, 0
12, 19082, Note_on_c, 12, 60, 108
12, 19142, Note_on_c, 12, 60, 0
12, 19187, Note_on_c, 12, 71, 108
12, 19195, Note_on_c, 12, 71, 0
12, 19202, Note_on_c, 12, 72, 108
12, 19225, Note_on_c, 12, 72, 0
12, 19247, Note_on_c, 12, 74, 108
12, 19255, Note_on_c, 12, 74, 0
12, 19262, Note_on_c, 12, 72, 108
12, 19292, Note_on_c, 12, 72, 0
12, 19367, Note_on_c, 12, 68, 108
12, 19375, Note_on_c, 12, 68, 0
12, 19382, Note_on_c, 12, 69, 108
12, 19405, Note_on_c, 12, 69, 0
12, 19427, Note_on_c, 12, 71, 108
12, 19435, Note_on_c, 12, 71, 0
12, 19442, Note_on_c, 12, 69, 108
12, 19472, Note_on_c, 12, 69, 0
12, 19547, Note_on_c, 12, 64, 108
12, 19555, Note_on_c, 12, 64, 0
12, 19562, Note_on_c, 12, 65, 108
12, 19585, Note_on_c, 12, 65, 0
12, 19607, Note_on_c, 12, 67, 108
12, 19615, Note_on_c, 12, 67, 0
12, 19622, Note_on_c, 12, 65, 108
12, 19645, Note_on_c, 12, 65, 0
12, 19667, Note_on_c, 12, 62, 108
12, 19675, Note_on_c, 12, 62, 0
12, 19682, Note_on_c, 12, 67, 108
12, 19721, Note_on_c, 12, 67, 0
12, 19742, Note_on_c, 12, 55, 108
12, 19772, Note_on_c, 12, 55, 0
12, 19802, Note_on_c, 12, 60, 108
12, 19862, Note_on_c, 12, 60, 0
12, 19907, Control_c, 12, 11, 87
12, 19907, Note_on_c, 12, 67, 108
12, 19915, Note_on_c, 12, 67, 0
12, 19922, Note_on_c, 12, 67, 108
12, 19945, Note_on_c, 12, 67, 0
12, 19967, Note_on_c, 12, 67, 108
12, 19975, Note_on_c, 12, 67, 0
12, 19982, Note_on_c, 12, 67, 108
12, 20012, Note_on_c, 12, 67, 0
12, 20087, Note_on_c, 12, 64, 108
12, 20095, Note_on_c, 12, 64, 0
12, 20102, Note_on_c, 12, 64, 108
12, 20125, Note_on_c, 12, 64, 0
12, 20147, Note_on_c, 12, 64, 108
12, 20155, Note_on_c, 12, 64, 0
12, 20162, Note_on_c, 12, 64, 108
12, 20192, Note_on_c, 12, 64, 0
12, 20267, Note_on_c, 12, 64, 108
12, 20275, Note_on_c, 12, 64, 0
12, 20282, Note_on_c, 12, 64, 108
12, 20305, Note_on_c, 12, 64, 0
12, 20327, Note_on_c, 12, 64, 108
12, 20335, Note_on_c, 12, 64, 0
12, 20342, Note_on_c, 12, 64, 108
12, 20372, Note_on_c, 12, 64, 0
12, 20402, Control_c, 12, 11, 90
12, 20402, Note_on_c, 12, 60, 108
12, 20408, Control_c, 12, 11, 93
12, 20414, Control_c, 12, 11, 96
12, 20437, Control_c, 12, 11, 95
12, 20446, Control_c, 12, 11, 92
12, 20455, Control_c, 12, 11, 89
12, 20552, Note_on_c, 12, 60, 0
12, 20582, Control_c, 12, 11, 90
12, 20582, Note_on_c, 12, 69, 108
12, 20591, Control_c, 12, 11, 93
12, 20601, Control_c, 12, 11, 96
12, 20617, Control_c, 12, 11, 95
12, 20626, Control_c, 12, 11, 92
12, 20635, Control_c, 12, 11, 89
12, 20702, Note_on_c, 12, 69, 0
12, 20702, Note_on_c, 12, 62, 108
12, 20732, Note_on_c, 12, 62, 0
12, 20762, Control_c, 12, 11, 90
12, 20762, Note_on_c, 12, 71, 108
12, 20768, Control_c, 12, 11, 93
12, 20774, Control_c, 12, 11, 96
12, 20797, Control_c, 12, 11, 95
12, 20806, Control_c, 12, 11, 92
12, 20815, Control_c, 12, 11, 89
12, 20882, Note_on_c, 12, 71, 0
12, 20882, Note_on_c, 12, 69, 108
12, 20882, Control_c, 12, 11, 87
12, 20891, Control_c, 12, 11, 84
12, 20900, Control_c, 12, 11, 81
12, 20902, Note_on_c, 12, 69, 0
12, 20902, Note_on_c, 12, 65, 108
12, 20909, Control_c, 12, 11, 78
12, 20917, Note_on_c, 12, 65, 0
12, 20918, Control_c, 12, 11, 75
12, 20922, Note_on_c, 12, 69, 108
12, 20927, Control_c, 12, 11, 72
12, 20932, Note_on_c, 12, 69, 0
12, 20936, Control_c, 12, 11, 69
12, 20942, Note_on_c, 12, 67, 108
12, 20972, Note_on_c, 12, 67, 0
12, 21002, Control_c, 12, 11, 72
12, 21002, Control_c, 12, 11, 67
12, 21002, Note_on_c, 12, 62, 88
12, 21010, Control_c, 12, 11, 70
12, 21014, Control_c, 12, 11, 65
12, 21018, Control_c, 12, 11, 68
12, 21020, Control_c, 12, 11, 64
12, 21022, Control_c, 12, 11, 67
12, 21026, Control_c, 12, 11, 63
12, 21032, Note_on_c, 12, 62, 0
12, 21050, Control_c, 12, 11, 59
12, 21062, Note_on_c, 12, 60, 72
12, 21092, Control_c, 12, 11, 57
12, 21096, Control_c, 12, 11, 54
12, 21100, Control_c, 12, 11, 51
12, 21105, Control_c, 12, 11, 48
12, 21109, Control_c, 12, 11, 45
12, 21113, Control_c, 12, 11, 42
12, 21118, Control_c, 12, 11, 39
12, 21122, Note_on_c, 12, 60, 0
12, 21242, Control_c, 12, 11, 37
12, 21242, Note_on_c, 12, 62, 108
12, 21302, Note_on_c, 12, 62, 0
12, 21362, Note_on_c, 12, 62, 108
12, 21422, Note_on_c, 12, 62, 0
12, 21482, Note_on_c, 12, 60, 108
12, 21542, Note_on_c, 12, 60, 0
12, 21602, Note_on_c, 12, 59, 108
12, 21662, Note_on_c, 12, 59, 0
12, 21722, Note_on_c, 12, 59, 108
12, 21782, Note_on_c, 12, 59, 0
12, 21842, Note_on_c, 12, 60, 108
12, 21902, Note_on_c, 12, 60, 0
12, 21962, Note_on_c, 12, 62, 108
12, 22022, Note_on_c, 12, 62, 0
12, 22082, Note_on_c, 12, 62, 108
12, 22142, Note_on_c, 12, 62, 0
12, 22202, Note_on_c, 12, 60, 108
12, 22262, Note_on_c, 12, 60, 0
12, 22322, Note_on_c, 12, 62, 108
12, 22367, Note_on_c, 12, 62, 0
12, 22382, Note_on_c, 12, 62, 108
12, 22427, Note_on_c, 12, 62, 0
12, 22442, Note_on_c, 12, 62, 108
12, 22487, Note_on_c, 12, 62, 0
12, 22502, Note_on_c, 12, 60, 93
12, 22537, Control_c, 12, 11, 37
12, 22544, Control_c, 12, 11, 34
12, 22551, Control_c, 12, 11, 31
12, 22558, Control_c, 12, 11, 28
12, 22562, Note_on_c, 12, 60, 0
12, 22801, Program_c, 12, 50
12, 22802, Control_c, 12, 11, 37
12, 22802, Note_on_c, 12, 55, 84
12, 22820, Control_c, 12, 11, 40
12, 22838, Control_c, 12, 11, 43
12, 22856, Control_c, 12, 11, 46
12, 22862, Note_on_c, 12, 55, 0
12, 22862, Note_on_c, 12, 60, 108
12, 22892, Note_on_c, 12, 60, 0
12, 22921, Program_c, 12, 48
12, 22922, Note_on_c, 12, 52, 103
12, 22952, Note_on_c, 12, 52, 0
12, 22982, Note_on_c, 12, 52, 89
12, 23012, Note_on_c, 12, 52, 0
12, 23042, Note_on_c, 12, 52, 84
12, 23077, Control_c, 12, 11, 47
12, 23084, Control_c, 12, 11, 44
12, 23091, Control_c, 12, 11, 41
12, 23098, Control_c, 12, 11, 38
12, 23102, Note_on_c, 12, 52, 0
12, 23882, Control_c, 12, 11, 32
12, 23882, Note_on_c, 12, 60, 96
12, 23894, Control_c, 12, 11, 35
12, 23906, Control_c, 12, 11, 38
12, 23918, Control_c, 12, 11, 41
12, 23930, Control_c, 12, 11, 44
12, 23942, Note_on_c, 12, 60, 0
12, 23942, Control_c, 12, 11, 47
12, 23942, Note_on_c, 12, 63, 108
12, 24002, Note_on_c, 12, 63, 0
12, 24062, Note_on_c, 12, 66, 97
12, 24062, Control_c, 12, 11, 52
12, 24071, Control_c, 12, 11, 55
12, 24080, Control_c, 12, 11, 58
12, 24089, Control_c, 12, 11, 61
12, 24098, Control_c, 12, 11, 64
12, 24107, Control_c, 12, 11, 67
12, 24116, Control_c, 12, 11, 70
12, 24122, Note_on_c, 12, 66, 0
12, 24122, Note_on_c, 12, 72, 108
12, 24182, Note_on_c, 12, 72, 0
12, 24242, Control_c, 12, 11, 87
12, 24242, Note_on_c, 12, 54, 75
12, 24254, Control_c, 12, 11, 90
12, 24266, Control_c, 12, 11, 93
12, 24278, Control_c, 12, 11, 96
12, 24290, Control_c, 12, 11, 99
12, 24302, Note_on_c, 12, 54, 0
12, 24302, Control_c, 12, 11, 102
12, 24302, Note_on_c, 12, 53, 68
12, 24311, Control_c, 12, 11, 99
12, 24321, Control_c, 12, 11, 96
12, 24329, Note_on_c, 12, 53, 0
12, 24331, Control_c, 12, 11, 93
12, 24341, Control_c, 12, 11, 90
12, 24347, Note_on_c, 12, 61, 68
12, 24351, Control_c, 12, 11, 87
12, 24356, Note_on_c, 12, 61, 0
12, 24360, Control_c, 12, 11, 84
12, 24362, Note_on_c, 12, 61, 66
12, 24370, Control_c, 12, 11, 81
12, 24380, Control_c, 12, 11, 78
12, 24389, Note_on_c, 12, 61, 0
12, 24390, Control_c, 12, 11, 75
12, 24400, Control_c, 12, 11, 72
12, 24407, Note_on_c, 12, 61, 60
12, 24410, Control_c, 12, 11, 69
12, 24416, Note_on_c, 12, 61, 0
12, 24419, Control_c, 12, 11, 66
12, 24422, Note_on_c, 12, 61, 60
12, 24429, Control_c, 12, 11, 63
12, 24439, Control_c, 12, 11, 60
12, 24449, Note_on_c, 12, 61, 0
12, 24449, Control_c, 12, 11, 57
12, 24459, Control_c, 12, 11, 54
12, 24467, Note_on_c, 12, 61, 54
12, 24468, Control_c, 12, 11, 51
12, 24476, Note_on_c, 12, 61, 0
12, 24478, Control_c, 12, 11, 48
12, 24482, Note_on_c, 12, 61, 52
12, 24509, Note_on_c, 12, 61, 0
12, 24527, Note_on_c, 12, 61, 52
12, 24536, Note_on_c, 12, 61, 0
12, 24542, Note_on_c, 12, 61, 52
12, 24569, Note_on_c, 12, 61, 0
12, 24587, Note_on_c, 12, 61, 52
12, 24596, Note_on_c, 12, 61, 0
12, 24602, Note_on_c, 12, 61, 52
12, 24629, Note_on_c, 12, 61, 0
12, 24647, Note_on_c, 12, 61, 67
12, 24656, Note_on_c, 12, 61, 0
12, 24662, Note_on_c, 12, 60, 68
12, 24662, Control_c, 12, 11, 67
12, 24665, Control_c, 12, 11, 70
12, 24668, Control_c, 12, 11, 73
12, 24671, Control_c, 12, 11, 76
12, 24677, Control_c, 12, 11, 73
12, 24681, Control_c, 12, 11, 70
12, 24684, Control_c, 12, 11, 67
12, 24687, Control_c, 12, 11, 64
12, 24689, Note_on_c, 12, 60, 0
12, 24691, Control_c, 12, 11, 61
12, 24694, Control_c, 12, 11, 58
12, 24698, Control_c, 12, 11, 55
12, 24701, Control_c, 12, 11, 52
12, 24704, Control_c, 12, 11, 49
12, 24707, Note_on_c, 12, 60, 52
12, 24716, Note_on_c, 12, 60, 0
12, 24722, Note_on_c, 12, 60, 52
12, 24749, Note_on_c, 12, 60, 0
12, 24767, Note_on_c, 12, 60, 52
12, 24776, Note_on_c, 12, 60, 0
12, 24782, Note_on_c, 12, 60, 52
12, 24809, Note_on_c, 12, 60, 0
12, 24827, Note_on_c, 12, 60, 52
12, 24836, Note_on_c, 12, 60, 0
12, 24842, Note_on_c, 12, 60, 52
12, 24869, Note_on_c, 12, 60, 0
12, 24887, Note_on_c, 12, 60, 52
12, 24896, Note_on_c, 12, 60, 0
12, 24902, Note_on_c, 12, 60, 52
12, 24929, Note_on_c, 12, 60, 0
12, 24947, Note_on_c, 12, 60, 52
12, 24956, Note_on_c, 12, 60, 0
12, 24962, Note_on_c, 12, 60, 52
12, 24989, Note_on_c, 12, 60, 0
12, 25007, Note_on_c, 12, 60, 68
12, 25016, Note_on_c, 12, 60, 0
12, 25022, Note_on_c, 12, 61, 68
12, 25022, Control_c, 12, 11, 67
12, 25025, Control_c, 12, 11, 70
12, 25028, Control_c, 12, 11, 73
12, 25031, Control_c, 12, 11, 76
12, 25037, Control_c, 12, 11, 73
12, 25041, Control_c, 12, 11, 70
12, 25044, Control_c, 12, 11, 67
12, 25047, Control_c, 12, 11, 64
12, 25049, Note_on_c, 12, 61, 0
12, 25051, Control_c, 12, 11, 61
12, 25054, Control_c, 12, 11, 58
12, 25058, Control_c, 12, 11, 55
12, 25061, Control_c, 12, 11, 52
12, 25064, Control_c, 12, 11, 49
12, 25067, Note_on_c, 12, 61, 52
12, 25076, Note_on_c, 12, 61, 0
12, 25082, Note_on_c, 12, 61, 52
12, 25109, Note_on_c, 12, 61, 0
12, 25127, Note_on_c, 12, 61, 52
12, 25136, Note_on_c, 12, 61, 0
12, 25142, Note_on_c, 12, 61, 52
12, 25169, Note_on_c, 12, 61, 0
12, 25187, Note_on_c, 12, 61, 52
12, 25196, Note_on_c, 12, 61, 0
12, 25202, Note_on_c, 12, 61, 52
12, 25229, Note_on_c, 12, 61, 0
12, 25247, Note_on_c, 12, 61, 52
12, 25256, Note_on_c, 12, 61, 0
12, 25262, Note_on_c, 12, 61, 52
12, 25289, Note_on_c, 12, 61, 0
12, 25307, Note_on_c, 12, 61, 52
12, 25316, Note_on_c, 12, 61, 0
12, 25322, Note_on_c, 12, 61, 52
12, 25349, Note_on_c, 12, 61, 0
12, 25367, Note_on_c, 12, 61, 68
12, 25376, Note_on_c, 12, 61, 0
12, 25382, Control_c, 12, 11, 67
12, 25382, Note_on_c, 12, 60, 68
12, 25385, Control_c, 12, 11, 70
12, 25388, Control_c, 12, 11, 73
12, 25391, Control_c, 12, 11, 76
12, 25397, Control_c, 12, 11, 73
12, 25401, Control_c, 12, 11, 70
12, 25404, Control_c, 12, 11, 67
12, 25407, Control_c, 12, 11, 64
12, 25409, Note_on_c, 12, 60, 0
12, 25411, Control_c, 12, 11, 61
12, 25414, Control_c, 12, 11, 58
12, 25418, Control_c, 12, 11, 55
12, 25421, Control_c, 12, 11, 52
12, 25424, Control_c, 12, 11, 49
12, 25427, Note_on_c, 12, 60, 52
12, 25436, Note_on_c, 12, 60, 0
12, 25442, Note_on_c, 12, 60, 52
12, 25469, Note_on_c, 12, 60, 0
12, 25487, Note_on_c, 12, 60, 52
12, 25496, Note_on_c, 12, 60, 0
12, 25502, Note_on_c, 12, 60, 52
12, 25529, Note_on_c, 12, 60, 0
12, 25547, Note_on_c, 12, 60, 52
12, 25556, Note_on_c, 12, 60, 0
12, 25562, Note_on_c, 12, 60, 52
12, 25589, Note_on_c, 12, 60, 0
12, 25607, Note_on_c, 12, 60, 52
12, 25616, Note_on_c, 12, 60, 0
12, 25622, Note_on_c, 12, 60, 52
12, 25649, Note_on_c, 12, 60, 0
12, 25667, Note_on_c, 12, 60, 52
12, 25676, Note_on_c, 12, 60, 0
12, 25682, Note_on_c, 12, 60, 52
12, 25709, Note_on_c, 12, 60, 0
12, 25727, Note_on_c, 12, 60, 68
12, 25736, Note_on_c, 12, 60, 0
12, 25742, Control_c, 12, 11, 67
12, 25742, Note_on_c, 12, 58, 68
12, 25745, Control_c, 12, 11, 70
12, 25748, Control_c, 12, 11, 73
12, 25751, Control_c, 12, 11, 76
12, 25757, Control_c, 12, 11, 73
12, 25761, Control_c, 12, 11, 70
12, 25764, Control_c, 12, 11, 67
12, 25767, Control_c, 12, 11, 64
12, 25769, Note_on_c, 12, 58, 0
12, 25771, Control_c, 12, 11, 61
12, 25774, Control_c, 12, 11, 58
12, 25778, Control_c, 12, 11, 55
12, 25781, Control_c, 12, 11, 52
12, 25784, Control_c, 12, 11, 49
12, 25787, Note_on_c, 12, 58, 68
12, 25796, Note_on_c, 12, 58, 0
12, 25802, Note_on_c, 12, 58, 68
12, 25829, Note_on_c, 12, 58, 0
12, 25847, Note_on_c, 12, 58, 68
12, 25856, Note_on_c, 12, 58, 0
12, 25862, Note_on_c, 12, 58, 68
12, 25889, Note_on_c, 12, 58, 0
12, 25907, Note_on_c, 12, 58, 68
12, 25916, Note_on_c, 12, 58, 0
12, 25922, Note_on_c, 12, 53, 68
12, 25922, Control_c, 12, 11, 67
12, 25925, Control_c, 12, 11, 70
12, 25928, Control_c, 12, 11, 73
12, 25931, Control_c, 12, 11, 76
12, 25937, Control_c, 12, 11, 73
12, 25941, Control_c, 12, 11, 70
12, 25944, Control_c, 12, 11, 67
12, 25947, Control_c, 12, 11, 64
12, 25949, Note_on_c, 12, 53, 0
12, 25951, Control_c, 12, 11, 61
12, 25954, Control_c, 12, 11, 58
12, 25958, Control_c, 12, 11, 55
12, 25961, Control_c, 12, 11, 52
12, 25964, Control_c, 12, 11, 49
12, 25967, Note_on_c, 12, 53, 68
12, 25976, Note_on_c, 12, 53, 0
12, 25982, Note_on_c, 12, 53, 68
12, 26009, Note_on_c, 12, 53, 0
12, 26027, Note_on_c, 12, 53, 68
12, 26036, Note_on_c, 12, 53, 0
12, 26042, Note_on_c, 12, 53, 68
12, 26069, Note_on_c, 12, 53, 0
12, 26087, Note_on_c, 12, 53, 68
12, 26096, Note_on_c, 12, 53, 0
12, 26102, Note_on_c, 12, 55, 68
12, 26162, Note_on_c, 12, 55, 0
12, 26402, Control_c, 12, 11, 72
12, 26402, Note_on_c, 12, 65, 108
12, 26414, Control_c, 12, 11, 75
12, 26426, Control_c, 12, 11, 78
12, 26438, Control_c, 12, 11, 81
12, 26450, Control_c, 12, 11, 84
12, 26462, Note_on_c, 12, 65, 0
12, 26462, Control_c, 12, 11, 87
12, 26462, Note_on_c, 12, 64, 108
12, 26492, Note_on_c, 12, 64, 0
12, 26522, Note_on_c, 12, 64, 108
12, 26552, Note_on_c, 12, 64, 0
12, 26762, Control_c, 12, 11, 72
12, 26762, Note_on_c, 12, 65, 108
12, 26774, Control_c, 12, 11, 75
12, 26786, Control_c, 12, 11, 78
12, 26798, Control_c, 12, 11, 81
12, 26810, Control_c, 12, 11, 84
12, 26822, Note_on_c, 12, 65, 0
12, 26822, Control_c, 12, 11, 87
12, 26822, Note_on_c, 12, 64, 108
12, 26852, Note_on_c, 12, 64, 0
12, 26882, Note_on_c, 12, 72, 108
12, 26882, Control_c, 12, 11, 37
12, 26900, Control_c, 12, 11, 40
12, 26918, Control_c, 12, 11, 43
12, 26936, Control_c, 12, 11, 46
12, 26942, Note_on_c, 12, 72, 0
12, 26942, Note_on_c, 12, 74, 108
12, 26980, Note_on_c, 12, 74, 0
12, 27122, Note_on_c, 12, 69, 108
12, 27122, Control_c, 12, 11, 37
12, 27140, Control_c, 12, 11, 40
12, 27158, Control_c, 12, 11, 43
12, 27176, Control_c, 12, 11, 46
12, 27182, Note_on_c, 12, 69, 0
12, 27182, Note_on_c, 12, 70, 108
12, 27212, Note_on_c, 12, 70, 0
12, 27362, Note_on_c, 12, 66, 108
12, 27362, Control_c, 12, 11, 37
12, 27380, Control_c, 12, 11, 40
12, 27398, Control_c, 12, 11, 43
12, 27416, Control_c, 12, 11, 46
12, 27422, Note_on_c, 12, 66, 0
12, 27422, Note_on_c, 12, 67, 108
12, 27460, Note_on_c, 12, 67, 0
12, 27602, Note_on_c, 12, 62, 108
12, 27662, Note_on_c, 12, 62, 0
12, 27662, Note_on_c, 12, 64, 108
12, 27699, Note_on_c, 12, 64, 0
12, 27722, Note_on_c, 12, 60, 108
12, 27782, Note_on_c, 12, 60, 0
12, 27782, Note_on_c, 12, 62, 108
12, 27825, Note_on_c, 12, 62, 0
12, 27842, Note_on_c, 12, 59, 108
12, 27902, Note_on_c, 12, 59, 0
12, 27902, Control_c, 12, 11, 47
12, 27902, Note_on_c, 12, 60, 108
12, 27920, Control_c, 12, 11, 49
12, 27932, Note_on_c, 12, 60, 0
12, 27932, Note_on_c, 12, 48, 108
12, 27932, Note_on_c, 12, 60, 108
12, 27938, Control_c, 12, 11, 51
12, 27956, Control_c, 12, 11, 53
12, 27957, Note_on_c, 12, 60, 0
12, 27957, Note_on_c, 12, 48, 0
12, 27962, Note_on_c, 12, 48, 108
12, 27962, Note_on_c, 12, 60, 108
12, 27974, Control_c, 12, 11, 55
12, 27987, Note_on_c, 12, 60, 0
12, 27987, Note_on_c, 12, 48, 0
12, 27992, Control_c, 12, 11, 57
12, 27992, Note_on_c, 12, 48, 108
12, 27992, Note_on_c, 12, 60, 108
12, 28010, Control_c, 12, 11, 59
12, 28017, Note_on_c, 12, 60, 0
12, 28017, Note_on_c, 12, 48, 0
12, 28022, Note_on_c, 12, 48, 108
12, 28022, Note_on_c, 12, 60, 108
12, 28028, Control_c, 12, 11, 61
12, 28046, Control_c, 12, 11, 63
12, 28047, Note_on_c, 12, 60, 0
12, 28047, Note_on_c, 12, 48, 0
12, 28052, Note_on_c, 12, 48, 108
12, 28052, Note_on_c, 12, 60, 108
12, 28064, Control_c, 12, 11, 65
12, 28077, Note_on_c, 12, 60, 0
12, 28077, Note_on_c, 12, 48, 0
12, 28082, Control_c, 12, 11, 67
12, 28082, Note_on_c, 12, 60, 108
12, 28082, Note_on_c, 12, 48, 108
12, 28100, Control_c, 12, 11, 69
12, 28107, Note_on_c, 12, 48, 0
12, 28107, Note_on_c, 12, 60, 0
12, 28112, Note_on_c, 12, 48, 108
12, 28112, Note_on_c, 12, 60, 108
12, 28118, Control_c, 12, 11, 71
12, 28136, Control_c, 12, 11, 73
12, 28137, Note_on_c, 12, 60, 0
12, 28137, Note_on_c, 12, 48, 0
12, 28142, Note_on_c, 12, 60, 108
12, 28142, Note_on_c, 12, 48, 108
12, 28154, Control_c, 12, 11, 75
12, 28167, Note_on_c, 12, 48, 0
12, 28167, Note_on_c, 12, 60, 0
12, 28172, Note_on_c, 12, 48, 108
12, 28172, Note_on_c, 12, 60, 108
12, 28172, Control_c, 12, 11, 77
12, 28190, Control_c, 12, 11, 79
12, 28197, Note_on_c, 12, 60, 0
12, 28197, Note_on_c, 12, 48, 0
12, 28202, Note_on_c, 12, 48, 108
12, 28202, Note_on_c, 12, 60, 108
12, 28208, Control_c, 12, 11, 81
12, 28226, Control_c, 12, 11, 83
12, 28227, Note_on_c, 12, 60, 0
12, 28227, Note_on_c, 12, 48, 0
12, 28232, Note_on_c, 12, 48, 108
12, 28232, Note_on_c, 12, 60, 108
12, 28244, Control_c, 12, 11, 85
12, 28257, Note_on_c, 12, 60, 0
12, 28257, Note_on_c, 12, 48, 0
12, 28262, Control_c, 12, 11, 87
12, 28262, Note_on_c, 12, 48, 108
12, 28262, Note_on_c, 12, 60, 108
12, 28422, Control_c, 12, 11, 87
12, 28423, Control_c, 12, 11, 84
12, 28425, Control_c, 12, 11, 80
12, 28427, Control_c, 12, 11, 76
12, 28429, Control_c, 12, 11, 72
12, 28431, Control_c, 12, 11, 68
12, 28432, Control_c, 12, 11, 65
12, 28434, Control_c, 12, 11, 61
12, 28436, Control_c, 12, 11, 57
12, 28438, Control_c, 12, 11, 53
12, 28440, Control_c, 12, 11, 49
12, 28442, Note_on_c, 12, 60, 0
12, 28442, Note_on_c, 12, 48, 0
12, 28622, Control_c, 12, 11, 87
12, 28622, Note_on_c, 12, 48, 108
12, 28622, Note_on_c, 12, 55, 108
12, 28622, Note_on_c, 12, 64, 108
12, 28782, Control_c, 12, 11, 87
12, 28783, Control_c, 12, 11, 84
12, 28785, Control_c, 12, 11, 80
12, 28787, Control_c, 12, 11, 76
12, 28789, Control_c, 12, 11, 72
12, 28791, Control_c, 12, 11, 68
12, 28792, Control_c, 12, 11, 65
12, 28794, Control_c, 12, 11, 61
12, 28796, Control_c, 12, 11, 57
12, 28798, Control_c, 12, 11, 53
12, 28800, Control_c, 12, 11, 49
12, 28802, Note_on_c, 12, 64, 0
12, 28802, Note_on_c, 12, 55, 0
12, 28802, Note_on_c, 12, 48, 0
12, 30722, Note_on_c, 12, 53, 80
12, 30722, Control_c, 12, 11, 42
12, 30782, Note_on_c, 12, 53, 0
12, 30782, Note_on_c, 12, 60, 108
12, 30825, Note_on_c, 12, 60, 0
12, 30842, Note_on_c, 12, 60, 108
12, 30885, Note_on_c, 12, 60, 0
12, 30902, Note_on_c, 12, 60, 108
12, 30962, Note_on_c, 12, 60, 0
12, 30962, Note_on_c, 12, 64, 108
12, 31005, Note_on_c, 12, 64, 0
12, 31022, Note_on_c, 12, 64, 108
12, 31065, Note_on_c, 12, 64, 0
12, 31082, Note_on_c, 12, 64, 108
12, 31142, Note_on_c, 12, 64, 0
12, 31142, Note_on_c, 12, 65, 108
12, 31185, Note_on_c, 12, 65, 0
12, 31202, Note_on_c, 12, 65, 108
12, 31229, Note_on_c, 12, 65, 0
12, 31247, Note_on_c, 12, 64, 108
12, 31256, Note_on_c, 12, 64, 0
12, 31262, Note_on_c, 12, 62, 108
12, 31289, Note_on_c, 12, 62, 0
12, 31307, Note_on_c, 12, 60, 108
12, 31316, Note_on_c, 12, 60, 0
12, 31322, Note_on_c, 12, 59, 108
12, 31365, Note_on_c, 12, 59, 0
12, 31382, Note_on_c, 12, 59, 108
12, 31425, Note_on_c, 12, 59, 0
12, 31442, Note_on_c, 12, 59, 108
12, 31502, Note_on_c, 12, 59, 0
12, 31502, Note_on_c, 12, 60, 108
12, 31545, Note_on_c, 12, 60, 0
12, 31562, Note_on_c, 12, 60, 108
12, 31594, Note_on_c, 12, 60, 0
12, 31607, Note_on_c, 12, 59, 108
12, 31616, Note_on_c, 12, 59, 0
12, 31622, Note_on_c, 12, 60, 108
12, 31649, Note_on_c, 12, 60, 0
12, 31667, Note_on_c, 12, 62, 108
12, 31676, Note_on_c, 12, 62, 0
12, 31682, Note_on_c, 12, 58, 108
12, 31725, Note_on_c, 12, 58, 0
12, 31742, Note_on_c, 12, 58, 108
12, 31774, Note_on_c, 12, 58, 0
12, 31787, Note_on_c, 12, 57, 108
12, 31796, Note_on_c, 12, 57, 0
12, 31802, Note_on_c, 12, 58, 108
12, 31829, Note_on_c, 12, 58, 0
12, 31847, Note_on_c, 12, 60, 108
12, 31856, Note_on_c, 12, 60, 0
12, 31862, Note_on_c, 12, 57, 108
12, 31877, Note_on_c, 12, 57, 0
12, 31892, Note_on_c, 12, 69, 108
12, 31907, Note_on_c, 12, 69, 0
12, 31907, Note_on_c, 12, 70, 108
12, 31917, Note_on_c, 12, 70, 0
12, 31922, Note_on_c, 12, 72, 108
12, 31937, Note_on_c, 12, 72, 0
12, 31952, Note_on_c, 12, 70, 108
12, 31967, Note_on_c, 12, 70, 0
12, 31982, Note_on_c, 12, 69, 108
12, 31997, Note_on_c, 12, 69, 0
12, 32012, Note_on_c, 12, 67, 108
12, 32027, Note_on_c, 12, 67, 0
12, 32042, Note_on_c, 12, 65, 108
12, 32057, Note_on_c, 12, 65, 0
12, 32072, Note_on_c, 12, 64, 108
12, 32087, Note_on_c, 12, 64, 0
12, 32102, Note_on_c, 12, 62, 108
12, 32117, Note_on_c, 12, 62, 0
12, 32132, Note_on_c, 12, 60, 108
12, 32147, Note_on_c, 12, 60, 0
12, 32162, Note_on_c, 12, 58, 108
12, 32177, Note_on_c, 12, 58, 0
12, 32192, Note_on_c, 12, 57, 108
12, 32207, Note_on_c, 12, 57, 0
12, 32222, Note_on_c, 12, 55, 108
12, 32237, Note_on_c, 12, 55, 0
12, 32252, Note_on_c, 12, 54, 108
12, 32267, Note_on_c, 12, 54, 0
12, 32282, Note_on_c, 12, 55, 108
12, 32297, Note_on_c, 12, 55, 0
12, 32312, Note_on_c, 12, 57, 108
12, 32327, Note_on_c, 12, 57, 0
12, 32342, Note_on_c, 12, 58, 108
12, 32357, Note_on_c, 12, 58, 0
12, 32372, Note_on_c, 12, 59, 108
12, 32387, Note_on_c, 12, 59, 0
12, 32402, Note_on_c, 12, 60, 108
12, 32417, Note_on_c, 12, 60, 0
12, 32432, Note_on_c, 12, 67, 108
12, 32447, Note_on_c, 12, 67, 0
12, 32462, Note_on_c, 12, 69, 108
12, 32477, Note_on_c, 12, 69, 0
12, 32492, Note_on_c, 12, 71, 108
12, 32507, Note_on_c, 12, 71, 0
12, 32522, Note_on_c, 12, 72, 108
12, 32537, Note_on_c, 12, 72, 0
12, 32552, Note_on_c, 12, 70, 108
12, 32567, Note_on_c, 12, 70, 0
12, 32582, Control_c, 12, 11, 37
12, 32582, Note_on_c, 12, 69, 108
12, 32604, Note_on_c, 12, 69, 0
12, 32606, Control_c, 12, 11, 38
12, 32612, Note_on_c, 12, 60, 108
12, 32630, Control_c, 12, 11, 39
12, 32634, Note_on_c, 12, 60, 0
12, 32642, Note_on_c, 12, 67, 108
12, 32654, Control_c, 12, 11, 40
12, 32664, Note_on_c, 12, 67, 0
12, 32672, Note_on_c, 12, 60, 108
12, 32678, Control_c, 12, 11, 41
12, 32694, Note_on_c, 12, 60, 0
12, 32702, Control_c, 12, 11, 42
12, 32702, Note_on_c, 12, 65, 108
12, 32724, Note_on_c, 12, 65, 0
12, 32726, Control_c, 12, 11, 43
12, 32732, Note_on_c, 12, 60, 108
12, 32750, Control_c, 12, 11, 44
12, 32754, Note_on_c, 12, 60, 0
12, 32762, Note_on_c, 12, 64, 108
12, 32774, Control_c, 12, 11, 45
12, 32784, Note_on_c, 12, 64, 0
12, 32792, Note_on_c, 12, 67, 108
12, 32798, Control_c, 12, 11, 46
12, 32814, Note_on_c, 12, 67, 0
12, 32822, Control_c, 12, 11, 47
12, 32822, Note_on_c, 12, 64, 108
12, 32844, Note_on_c, 12, 64, 0
12, 32846, Control_c, 12, 11, 48
12, 32852, Note_on_c, 12, 60, 108
12, 32870, Control_c, 12, 11, 49
12, 32874, Note_on_c, 12, 60, 0
12, 32882, Note_on_c, 12, 65, 108
12, 32894, Control_c, 12, 11, 50
12, 32904, Note_on_c, 12, 65, 0
12, 32912, Note_on_c, 12, 69, 108
12, 32918, Control_c, 12, 11, 51
12, 32934, Note_on_c, 12, 69, 0
12, 32942, Control_c, 12, 11, 52
12, 32942, Note_on_c, 12, 60, 108
12, 32964, Note_on_c, 12, 60, 0
12, 32972, Note_on_c, 12, 60, 108
12, 32994, Note_on_c, 12, 60, 0
12, 33002, Note_on_c, 12, 64, 108
12, 33024, Note_on_c, 12, 64, 0
12, 33032, Note_on_c, 12, 60, 108
12, 33054, Note_on_c, 12, 60, 0
12, 33062, Note_on_c, 12, 64, 108
12, 33084, Note_on_c, 12, 64, 0
12, 33092, Note_on_c, 12, 60, 108
12, 33114, Note_on_c, 12, 60, 0
12, 33122, Control_c, 12, 11, 72
12, 33122, Note_on_c, 12, 65, 108
12, 33131, Control_c, 12, 11, 69
12, 33140, Control_c, 12, 11, 66
12, 33144, Note_on_c, 12, 65, 0
12, 33149, Control_c, 12, 11, 63
12, 33152, Note_on_c, 12, 60, 108
12, 33158, Control_c, 12, 11, 60
12, 33167, Control_c, 12, 11, 57
12, 33174, Note_on_c, 12, 60, 0
12, 33176, Control_c, 12, 11, 54
12, 33182, Note_on_c, 12, 65, 108
12, 33204, Note_on_c, 12, 65, 0
12, 33212, Note_on_c, 12, 60, 108
12, 33234, Note_on_c, 12, 60, 0
12, 33242, Note_on_c, 12, 65, 108
12, 33264, Note_on_c, 12, 65, 0
12, 33272, Note_on_c, 12, 60, 108
12, 33294, Note_on_c, 12, 60, 0
12, 33302, Note_on_c, 12, 64, 108
12, 33324, Note_on_c, 12, 64, 0
12, 33332, Note_on_c, 12, 60, 108
12, 33354, Note_on_c, 12, 60, 0
12, 33362, Note_on_c, 12, 60, 108
12, 33384, Note_on_c, 12, 60, 0
12, 33392, Note_on_c, 12, 60, 108
12, 33414, Note_on_c, 12, 60, 0
12, 33422, Note_on_c, 12, 64, 108
12, 33444, Note_on_c, 12, 64, 0
12, 33452, Note_on_c, 12, 60, 108
12, 33474, Note_on_c, 12, 60, 0
12, 33482, Control_c, 12, 11, 72
12, 33482, Note_on_c, 12, 65, 108
12, 33491, Control_c, 12, 11, 69
12, 33500, Control_c, 12, 11, 66
12, 33504, Note_on_c, 12, 65, 0
12, 33509, Control_c, 12, 11, 63
12, 33512, Note_on_c, 12, 60, 108
12, 33518, Control_c, 12, 11, 60
12, 33527, Control_c, 12, 11, 57
12, 33534, Note_on_c, 12, 60, 0
12, 33536, Control_c, 12, 11, 54
12, 33542, Note_on_c, 12, 65, 108
12, 33564, Note_on_c, 12, 65, 0
12, 33572, Note_on_c, 12, 60, 108
12, 33594, Note_on_c, 12, 60, 0
12, 33602, Note_on_c, 12, 65, 108
12, 33624, Note_on_c, 12, 65, 0
12, 33632, Note_on_c, 12, 60, 108
12, 33654, Note_on_c, 12, 60, 0
12, 33662, Note_on_c, 12, 64, 108
12, 33684, Note_on_c, 12, 64, 0
12, 33692, Note_on_c, 12, 60, 108
12, 33714, Note_on_c, 12, 60, 0
12, 33722, Control_c, 12, 11, 82
12, 33722, Note_on_c, 12, 64, 108
12, 33731, Control_c, 12, 11, 79
12, 33740, Control_c, 12, 11, 76
12, 33744, Note_on_c, 12, 64, 0
12, 33749, Control_c, 12, 11, 73
12, 33752, Note_on_c, 12, 60, 108
12, 33758, Control_c, 12, 11, 70
12, 33767, Control_c, 12, 11, 67
12, 33774, Note_on_c, 12, 60, 0
12, 33776, Control_c, 12, 11, 64
12, 33782, Note_on_c, 12, 65, 108
12, 33804, Note_on_c, 12, 65, 0
12, 33812, Note_on_c, 12, 69, 108
12, 33834, Note_on_c, 12, 69, 0
12, 33842, Note_on_c, 12, 72, 108
12, 33864, Note_on_c, 12, 72, 0
12, 33872, Note_on_c, 12, 60, 108
12, 33894, Note_on_c, 12, 60, 0
12, 33902, Control_c, 12, 11, 87
12, 33902, Note_on_c, 12, 60, 108
12, 33920, Control_c, 12, 11, 84
12, 33924, Note_on_c, 12, 60, 0
12, 33932, Note_on_c, 12, 60, 108
12, 33938, Control_c, 12, 11, 81
12, 33954, Note_on_c, 12, 60, 0
12, 33956, Control_c, 12, 11, 78
12, 33962, Note_on_c, 12, 65, 108
12, 33984, Note_on_c, 12, 65, 0
12, 33992, Control_c, 12, 11, 77
12, 33992, Note_on_c, 12, 69, 108
12, 34001, Control_c, 12, 11, 80
12, 34010, Control_c, 12, 11, 83
12, 34014, Note_on_c, 12, 69, 0
12, 34019, Control_c, 12, 11, 86
12, 34022, Note_on_c, 12, 72, 108
12, 34052, Note_on_c, 12, 72, 0
12, 34082, Note_on_c, 12, 60, 98
12, 34112, Note_on_c, 12, 60, 0
12, 34142, Note_on_c, 12, 60, 95
12, 34172, Note_on_c, 12, 60, 0
12, 34202, Note_on_c, 12, 60, 83
12, 34232, Control_c, 12, 11, 87
12, 34236, Control_c, 12, 11, 84
12, 34240, Control_c, 12, 11, 81
12, 34245, Control_c, 12, 11, 78
12, 34249, Control_c, 12, 11, 75
12, 34253, Control_c, 12, 11, 72
12, 34258, Control_c, 12, 11, 69
12, 34262, Note_on_c, 12, 60, 0
12, 34502, Control_c, 12, 11, 37
12, 34502, Note_on_c, 12, 72, 108
12, 34520, Control_c, 12, 11, 40
12, 34538, Control_c, 12, 11, 43
12, 34556, Control_c, 12, 11, 46
12, 34562, Note_on_c, 12, 72, 0
12, 34562, Note_on_c, 12, 70, 108
12, 34592, Note_on_c, 12, 70, 0
12, 34862, Control_c, 12, 11, 37
12, 34862, Note_on_c, 12, 70, 108
12, 34880, Control_c, 12, 11, 40
12, 34898, Control_c, 12, 11, 43
12, 34916, Control_c, 12, 11, 46
12, 34922, Note_on_c, 12, 70, 0
12, 34922, Note_on_c, 12, 69, 108
12, 34952, Note_on_c, 12, 69, 0
12, 35102, Control_c, 12, 11, 37
12, 35102, Note_on_c, 12, 57, 108
12, 35132, Note_on_c, 12, 57, 0
12, 35162, Note_on_c, 12, 69, 93
12, 35162, Control_c, 12, 11, 42
12, 35178, Control_c, 12, 11, 43
12, 35194, Control_c, 12, 11, 44
12, 35207, Note_on_c, 12, 69, 0
12, 35210, Control_c, 12, 11, 45
12, 35222, Note_on_c, 12, 69, 108
12, 35226, Control_c, 12, 11, 46
12, 35242, Control_c, 12, 11, 47
12, 35258, Control_c, 12, 11, 48
12, 35267, Note_on_c, 12, 69, 0
12, 35274, Control_c, 12, 11, 49
12, 35282, Note_on_c, 12, 69, 108
12, 35290, Control_c, 12, 11, 50
12, 35306, Control_c, 12, 11, 51
12, 35322, Control_c, 12, 11, 52
12, 35338, Control_c, 12, 11, 53
12, 35342, Note_on_c, 12, 69, 0
12, 35342, Note_on_c, 12, 67, 108
12, 35354, Control_c, 12, 11, 54
12, 35370, Control_c, 12, 11, 55
12, 35386, Control_c, 12, 11, 56
12, 35402, Note_on_c, 12, 67, 0
12, 35402, Note_on_c, 12, 65, 108
12, 35402, Control_c, 12, 11, 57
12, 35414, Control_c, 12, 11, 54
12, 35426, Control_c, 12, 11, 51
12, 35438, Control_c, 12, 11, 48
12, 35450, Control_c, 12, 11, 45
12, 35459, Note_on_c, 12, 65, 0
12, 35462, Note_on_c, 12, 64, 108
12, 35462, Control_c, 12, 11, 42
12, 35522, Note_on_c, 12, 64, 0
12, 35522, Note_on_c, 12, 60, 108
12, 35582, Note_on_c, 12, 60, 0
12, 35582, Note_on_c, 12, 65, 108
12, 35639, Note_on_c, 12, 65, 0
12, 35642, Note_on_c, 12, 60, 108
12, 35672, Note_on_c, 12, 60, 0
12, 35702, Note_on_c, 12, 48, 76
12, 35732, Note_on_c, 12, 48, 0
12, 36062, Note_on_c, 12, 58, 108
12, 36092, Note_on_c, 12, 58, 0
12, 36122, Note_on_c, 12, 55, 108
12, 36152, Note_on_c, 12, 55, 0
12, 36182, Note_on_c, 12, 60, 108
12, 36212, Note_on_c, 12, 60, 0
12, 36242, Note_on_c, 12, 48, 108
12, 36272, Note_on_c, 12, 48, 0
12, 36422, Note_on_c, 12, 65, 108
12, 36452, Note_on_c, 12, 65, 0
12, 36482, Note_on_c, 12, 60, 108
12, 36512, Note_on_c, 12, 60, 0
12, 36542, Control_c, 12, 11, 47
12, 36542, Note_on_c, 12, 57, 108
12, 36566, Control_c, 12, 11, 49
12, 36572, Note_on_c, 12, 57, 0
12, 36590, Control_c, 12, 11, 51
12, 36602, Note_on_c, 12, 57, 108
12, 36614, Control_c, 12, 11, 53
12, 36632, Note_on_c, 12, 57, 0
12, 36638, Control_c, 12, 11, 55
12, 36662, Note_on_c, 12, 57, 108
12, 36662, Control_c, 12, 11, 57
12, 36686, Control_c, 12, 11, 59
12, 36692, Note_on_c, 12, 57, 0
12, 36710, Control_c, 12, 11, 61
12, 36722, Note_on_c, 12, 58, 108
12, 36842, Note_on_c, 12, 58, 0
12, 36962, Control_c, 12, 11, 47
12, 36962, Note_on_c, 12, 60, 93
12, 36992, Note_on_c, 12, 60, 0
12, 37022, Note_on_c, 12, 48, 93
12, 37052, Note_on_c, 12, 48, 0
12, 37082, Note_on_c, 12, 53, 93
12, 37102, Control_c, 12, 11, 47
12, 37106, Control_c, 12, 11, 44
12, 37111, Control_c, 12, 11, 41
12, 37116, Control_c, 12, 11, 38
12, 37120, Control_c, 12, 11, 35
12, 37125, Control_c, 12, 11, 32
12, 37130, Control_c, 12, 11, 29
12, 37134, Control_c, 12, 11, 26
12, 37139, Control_c, 12, 11, 23
12, 37142, Note_on_c, 12, 53, 0
12, 37187, Control_c, 12, 11, 47
12, 37187, Note_on_c, 12, 67, 88
12, 37195, Note_on_c, 12, 67, 0
12, 37202, Note_on_c, 12, 69, 88
12, 37225, Note_on_c, 12, 69, 0
12, 37247, Note_on_c, 12, 70, 88
12, 37255, Note_on_c, 12, 70, 0
12, 37262, Note_on_c, 12, 69, 88
12, 37292, Note_on_c, 12, 69, 0
12, 37367, Note_on_c, 12, 73, 88
12, 37375, Note_on_c, 12, 73, 0
12, 37382, Note_on_c, 12, 74, 88
12, 37405, Note_on_c, 12, 74, 0
12, 37427, Note_on_c, 12, 76, 88
12, 37435, Note_on_c, 12, 76, 0
12, 37442, Note_on_c, 12, 74, 88
12, 37472, Note_on_c, 12, 74, 0
12, 37547, Note_on_c, 12, 69, 88
12, 37555, Note_on_c, 12, 69, 0
12, 37562, Note_on_c, 12, 70, 88
12, 37585, Note_on_c, 12, 70, 0
12, 37607, Note_on_c, 12, 72, 88
12, 37615, Note_on_c, 12, 72, 0
12, 37622, Note_on_c, 12, 70, 88
12, 37645, Note_on_c, 12, 70, 0
12, 37667, Note_on_c, 12, 67, 108
12, 37675, Note_on_c, 12, 67, 0
12, 37682, Note_on_c, 12, 65, 108
12, 37712, Note_on_c, 12, 65, 0
12, 37742, Note_on_c, 12, 67, 108
12, 37772, Note_on_c, 12, 67, 0
12, 37802, Note_on_c, 12, 65, 108
12, 37862, Note_on_c, 12, 65, 0
12, 37907, Control_c, 12, 11, 87
12, 37907, Note_on_c, 12, 48, 108
12, 37907, Note_on_c, 12, 60, 108
12, 37915, Note_on_c, 12, 60, 0
12, 37915, Note_on_c, 12, 48, 0
12, 37922, Note_on_c, 12, 60, 108
12, 37922, Note_on_c, 12, 48, 108
12, 37945, Note_on_c, 12, 48, 0
12, 37945, Note_on_c, 12, 60, 0
12, 37967, Note_on_c, 12, 60, 108
12, 37967, Note_on_c, 12, 48, 108
12, 37975, Note_on_c, 12, 48, 0
12, 37975, Note_on_c, 12, 60, 0
12, 37982, Note_on_c, 12, 48, 108
12, 37982, Note_on_c, 12, 60, 108
12, 38012, Note_on_c, 12, 60, 0
12, 38012, Note_on_c, 12, 48, 0
12, 38087, Note_on_c, 12, 57, 108
12, 38095, Note_on_c, 12, 57, 0
12, 38102, Note_on_c, 12, 69, 108
12, 38102, Note_on_c, 12, 57, 108
12, 38125, Note_on_c, 12, 57, 0
12, 38125, Note_on_c, 12, 69, 0
12, 38147, Note_on_c, 12, 69, 108
12, 38147, Note_on_c, 12, 57, 108
12, 38155, Note_on_c, 12, 57, 0
12, 38155, Note_on_c, 12, 69, 0
12, 38162, Note_on_c, 12, 57, 108
12, 38162, Note_on_c, 12, 69, 108
12, 38192, Note_on_c, 12, 69, 0
12, 38192, Note_on_c, 12, 57, 0
12, 38267, Note_on_c, 12, 69, 108
12, 38267, Note_on_c, 12, 57, 108
12, 38275, Note_on_c, 12, 57, 0
12, 38275, Note_on_c, 12, 69, 0
12, 38282, Note_on_c, 12, 69, 108
12, 38282, Note_on_c, 12, 57, 108
12, 38305, Note_on_c, 12, 57, 0
12, 38305, Note_on_c, 12, 69, 0
12, 38327, Note_on_c, 12, 69, 108
12, 38327, Note_on_c, 12, 57, 108
12, 38335, Note_on_c, 12, 57, 0
12, 38335, Note_on_c, 12, 69, 0
12, 38342, Note_on_c, 12, 57, 108
12, 38342, Note_on_c, 12, 69, 108
12, 38372, Note_on_c, 12, 69, 0
12, 38372, Note_on_c, 12, 57, 0
12, 38402, Control_c, 12, 11, 102
12, 38402, Note_on_c, 12, 65, 108
12, 38413, Control_c, 12, 11, 99
12, 38425, Control_c, 12, 11, 96
12, 38437, Control_c, 12, 11, 93
12, 38449, Control_c, 12, 11, 90
12, 38461, Control_c, 12, 11, 87
12, 38552, Note_on_c, 12, 65, 0
12, 38582, Control_c, 12, 11, 102
12, 38582, Note_on_c, 12, 74, 108
12, 38582, Note_on_c, 12, 62, 108
12, 38593, Control_c, 12, 11, 99
12, 38605, Control_c, 12, 11, 96
12, 38617, Control_c, 12, 11, 93
12, 38629, Control_c, 12, 11, 90
12, 38641, Control_c, 12, 11, 87
12, 38702, Note_on_c, 12, 62, 0
12, 38702, Note_on_c, 12, 74, 0
12, 38702, Note_on_c, 12, 67, 108
12, 38732, Note_on_c, 12, 67, 0
12, 38762, Control_c, 12, 11, 102
12, 38762, Note_on_c, 12, 64, 108
12, 38773, Control_c, 12, 11, 99
12, 38785, Control_c, 12, 11, 96
12, 38797, Control_c, 12, 11, 93
12, 38809, Control_c, 12, 11, 90
12, 38821, Control_c, 12, 11, 87
12, 38882, Note_on_c, 12, 64, 0
12, 38882, Note_on_c, 12, 62, 108
12, 38882, Control_c, 12, 11, 87
12, 38893, Control_c, 12, 11, 84
12, 38902, Note_on_c, 12, 62, 0
12, 38902, Note_on_c, 12, 67, 108
12, 38905, Control_c, 12, 11, 81
12, 38917, Control_c, 12, 11, 78
12, 38919, Note_on_c, 12, 67, 0
12, 38922, Note_on_c, 12, 70, 108
12, 38929, Control_c, 12, 11, 75
12, 38932, Note_on_c, 12, 70, 0
12, 38941, Control_c, 12, 11, 72
12, 38942, Note_on_c, 12, 72, 108
12, 38972, Note_on_c, 12, 72, 0
12, 39002, Note_on_c, 12, 60, 108
12, 39002, Control_c, 12, 11, 67
12, 39010, Control_c, 12, 11, 64
12, 39019, Control_c, 12, 11, 61
12, 39028, Control_c, 12, 11, 58
12, 39032, Note_on_c, 12, 60, 0
12, 39037, Control_c, 12, 11, 55
12, 39046, Control_c, 12, 11, 52
12, 39055, Control_c, 12, 11, 49
12, 39062, Note_on_c, 12, 60, 108
12, 39092, Control_c, 12, 11, 47
12, 39097, Control_c, 12, 11, 44
12, 39103, Control_c, 12, 11, 41
12, 39109, Control_c, 12, 11, 38
12, 39115, Control_c, 12, 11, 35
12, 39121, Control_c, 12, 11, 32
12, 39122, Note_on_c, 12, 60, 0
12, 39242, Note_on_c, 12, 58, 108
12, 39242, Control_c, 12, 11, 37
12, 39302, Note_on_c, 12, 58, 0
12, 39362, Note_on_c, 12, 58, 108
12, 39422, Note_on_c, 12, 58, 0
12, 39482, Note_on_c, 12, 60, 108
12, 39542, Note_on_c, 12, 60, 0
12, 39602, Note_on_c, 12, 64, 108
12, 39662, Note_on_c, 12, 64, 0
12, 39722, Note_on_c, 12, 64, 108
12, 39782, Note_on_c, 12, 64, 0
12, 39842, Note_on_c, 12, 65, 108
12, 39902, Note_on_c, 12, 65, 0
12, 39962, Note_on_c, 12, 58, 108
12, 40022, Note_on_c, 12, 58, 0
12, 40082, Note_on_c, 12, 58, 108
12, 40142, Note_on_c, 12, 58, 0
12, 40202, Note_on_c, 12, 60, 108
12, 40262, Note_on_c, 12, 60, 0
12, 40322, Note_on_c, 12, 64, 108
12, 40377, Note_on_c, 12, 64, 0
12, 40382, Note_on_c, 12, 58, 108
12, 40437, Note_on_c, 12, 58, 0
12, 40442, Note_on_c, 12, 58, 108
12, 40497, Note_on_c, 12, 58, 0
12, 40502, Note_on_c, 12, 57, 93
12, 40537, Control_c, 12, 11, 37
12, 40544, Control_c, 12, 11, 34
12, 40551, Control_c, 12, 11, 31
12, 40558, Control_c, 12, 11, 28
12, 40562, Note_on_c, 12, 57, 0
12, 40982, Control_c, 12, 11, 37
12, 40982, Note_on_c, 12, 60, 108
12, 41000, Control_c, 12, 11, 40
12, 41018, Control_c, 12, 11, 43
12, 41036, Control_c, 12, 11, 46
12, 41042, Note_on_c, 12, 60, 0
12, 41042, Note_on_c, 12, 57, 108
12, 41072, Note_on_c, 12, 57, 0
12, 41162, Note_on_c, 12, 60, 108
12, 41252, Note_on_c, 12, 60, 0
12, 41342, Note_on_c, 12, 60, 108
12, 41432, Note_on_c, 12, 60, 0
12, 41522, Note_on_c, 12, 70, 108
12, 41582, Note_on_c, 12, 70, 0
12, 41582, Note_on_c, 12, 69, 108
12, 41612, Note_on_c, 12, 69, 0
12, 41642, Note_on_c, 12, 67, 108
12, 41672, Note_on_c, 12, 67, 0
12, 41702, Note_on_c, 12, 65, 108
12, 41732, Note_on_c, 12, 65, 0
12, 41762, Note_on_c, 12, 64, 108
12, 41792, Note_on_c, 12, 64, 0
12, 41822, Note_on_c, 12, 60, 108
12, 41852, Note_on_c, 12, 60, 0
12, 41882, Note_on_c, 12, 65, 108
12, 41912, Note_on_c, 12, 65, 0
12, 41942, Control_c, 12, 11, 47
12, 41942, Note_on_c, 12, 60, 108
12, 41966, Control_c, 12, 11, 48
12, 41972, Note_on_c, 12, 60, 0
12, 41990, Control_c, 12, 11, 49
12, 42002, Note_on_c, 12, 64, 108
12, 42002, Note_on_c, 12, 55, 108
12, 42014, Control_c, 12, 11, 50
12, 42032, Note_on_c, 12, 55, 0
12, 42032, Note_on_c, 12, 64, 0
12, 42038, Control_c, 12, 11, 51
12, 42062, Note_on_c, 12, 64, 108
12, 42062, Note_on_c, 12, 55, 108
12, 42062, Control_c, 12, 11, 52
12, 42086, Control_c, 12, 11, 53
12, 42092, Note_on_c, 12, 55, 0
12, 42092, Note_on_c, 12, 64, 0
12, 42110, Control_c, 12, 11, 54
12, 42122, Note_on_c, 12, 64, 108
12, 42122, Note_on_c, 12, 55, 108
12, 42134, Control_c, 12, 11, 55
12, 42158, Control_c, 12, 11, 56
12, 42182, Control_c, 12, 11, 57
12, 42206, Control_c, 12, 11, 58
12, 42230, Control_c, 12, 11, 59
12, 42242, Note_on_c, 12, 55, 0
12, 42242, Note_on_c, 12, 64, 0
12, 42254, Control_c, 12, 11, 60
12, 42278, Control_c, 12, 11, 61
12, 42302, Note_on_c, 12, 70, 108
12, 42302, Control_c, 12, 11, 50
12, 42332, Note_on_c, 12, 70, 0
12, 42362, Note_on_c, 12, 69, 108
12, 42392, Note_on_c, 12, 69, 0
12, 42422, Note_on_c, 12, 67, 108
12, 42452, Note_on_c, 12, 67, 0
12, 42482, Note_on_c, 12, 66, 108
12, 42512, Note_on_c, 12, 66, 0
12, 42542, Note_on_c, 12, 62, 108
12, 42572, Note_on_c, 12, 62, 0
12, 42602, Note_on_c, 12, 67, 108
12, 42632, Note_on_c, 12, 67, 0
12, 42662, Note_on_c, 12, 62, 108
12, 42662, Control_c, 12, 11, 50
12, 42690, Control_c, 12, 11, 52
12, 42692, Note_on_c, 12, 62, 0
12, 42705, Control_c, 12, 11, 53
12, 42722, Note_on_c, 12, 57, 108
12, 42722, Note_on_c, 12, 66, 108
12, 42734, Control_c, 12, 11, 55
12, 42752, Note_on_c, 12, 66, 0
12, 42752, Note_on_c, 12, 57, 0
12, 42762, Control_c, 12, 11, 57
12, 42777, Control_c, 12, 11, 58
12, 42782, Note_on_c, 12, 57, 108
12, 42782, Note_on_c, 12, 66, 108
12, 42806, Control_c, 12, 11, 60
12, 42812, Note_on_c, 12, 66, 0
12, 42812, Note_on_c, 12, 57, 0
12, 42834, Control_c, 12, 11, 62
12, 42842, Note_on_c, 12, 66, 108
12, 42842, Note_on_c, 12, 57, 108
12, 42849, Control_c, 12, 11, 63
12, 42878, Control_c, 12, 11, 65
12, 42902, Note_on_c, 12, 57, 0
12, 42902, Note_on_c, 12, 66, 0
12, 42906, Control_c, 12, 11, 67
12, 42921, Control_c, 12, 11, 68
12, 42950, Control_c, 12, 11, 70
12, 42978, Control_c, 12, 11, 72
12, 42993, Control_c, 12, 11, 73
12, 43022, Note_on_c, 12, 58, 93
12, 43022, Control_c, 12, 11, 87
12, 43082, Note_on_c, 12, 58, 0
12, 43082, Note_on_c, 12, 60, 98
12, 43142, Note_on_c, 12, 60, 0
12, 43142, Note_on_c, 12, 62, 103
12, 43197, Note_on_c, 12, 62, 0
12, 43202, Control_c, 12, 11, 107
12, 43202, Note_on_c, 12, 60, 108
12, 43211, Control_c, 12, 11, 104
12, 43220, Control_c, 12, 11, 101
12, 43229, Control_c, 12, 11, 98
12, 43238, Control_c, 12, 11, 95
12, 43247, Control_c, 12, 11, 92
12, 43256, Control_c, 12, 11, 89
12, 43262, Note_on_c, 12, 60, 0
12, 43262, Note_on_c, 12, 57, 108
12, 43322, Note_on_c, 12, 57, 0
12, 43322, Note_on_c, 12, 53, 108
12, 43377, Note_on_c, 12, 53, 0
12, 43382, Note_on_c, 12, 69, 108
12, 43382, Control_c, 12, 11, 107
12, 43391, Control_c, 12, 11, 104
12, 43400, Control_c, 12, 11, 101
12, 43409, Control_c, 12, 11, 98
12, 43418, Control_c, 12, 11, 95
12, 43427, Control_c, 12, 11, 92
12, 43436, Control_c, 12, 11, 89
12, 43442, Note_on_c, 12, 69, 0
12, 43442, Note_on_c, 12, 66, 108
12, 43502, Note_on_c, 12, 66, 0
12, 43502, Note_on_c, 12, 62, 108
12, 43557, Note_on_c, 12, 62, 0
12, 43562, Note_on_c, 12, 67, 108
12, 43562, Control_c, 12, 11, 107
12, 43571, Control_c, 12, 11, 104
12, 43580, Control_c, 12, 11, 101
12, 43589, Control_c, 12, 11, 98
12, 43598, Control_c, 12, 11, 95
12, 43607, Control_c, 12, 11, 92
12, 43616, Control_c, 12, 11, 89
12, 43622, Note_on_c, 12, 67, 0
12, 43622, Note_on_c, 12, 64, 108
12, 43682, Note_on_c, 12, 64, 0
12, 43682, Note_on_c, 12, 60, 108
12, 43737, Note_on_c, 12, 60, 0
12, 43742, Control_c, 12, 11, 107
12, 43742, Note_on_c, 12, 58, 108
12, 43751, Control_c, 12, 11, 104
12, 43757, Note_on_c, 12, 58, 0
12, 43760, Control_c, 12, 11, 101
12, 43769, Control_c, 12, 11, 98
12, 43772, Note_on_c, 12, 58, 108
12, 43778, Control_c, 12, 11, 95
12, 43787, Note_on_c, 12, 58, 0
12, 43787, Control_c, 12, 11, 92
12, 43796, Control_c, 12, 11, 89
12, 43832, Note_on_c, 12, 60, 108
12, 43847, Note_on_c, 12, 60, 0
12, 43892, Note_on_c, 12, 62, 108
12, 43907, Note_on_c, 12, 62, 0
12, 43952, Note_on_c, 12, 57, 108
12, 43967, Note_on_c, 12, 57, 0
12, 43982, Note_on_c, 12, 60, 108
12, 43997, Note_on_c, 12, 60, 0
12, 44012, Note_on_c, 12, 57, 108
12, 44027, Note_on_c, 12, 57, 0
12, 44042, Note_on_c, 12, 60, 108
12, 44057, Note_on_c, 12, 60, 0
12, 44072, Note_on_c, 12, 57, 108
12, 44087, Note_on_c, 12, 57, 0
12, 44102, Note_on_c, 12, 60, 108
12, 44132, Note_on_c, 12, 60, 0
12, 44162, Note_on_c, 12, 48, 100
12, 44217, Note_on_c, 12, 48, 0
12, 44222, Note_on_c, 12, 48, 100
12, 44262, Control_c, 12, 11, 87
12, 44264, Control_c, 12, 11, 83
12, 44266, Control_c, 12, 11, 79
12, 44268, Control_c, 12, 11, 75
12, 44270, Control_c, 12, 11, 71
12, 44272, Control_c, 12, 11, 67
12, 44274, Control_c, 12, 11, 63
12, 44276, Control_c, 12, 11, 59
12, 44277, Note_on_c, 12, 48, 0
12, 44278, Control_c, 12, 11, 55
12, 44280, Control_c, 12, 11, 51
12, 44282, Control_c, 12, 11, 47
12, 44282, Note_on_c, 12, 53, 88
12, 44316, Note_on_c, 12, 53, 0
12, 44327, Note_on_c, 12, 60, 84
12, 44336, Note_on_c, 12, 60, 0
12, 44342, Note_on_c, 12, 60, 84
12, 44376, Note_on_c, 12, 60, 0
12, 44387, Note_on_c, 12, 60, 84
12, 44396, Note_on_c, 12, 60, 0
12, 44402, Note_on_c, 12, 60, 84
12, 44436, Note_on_c, 12, 60, 0
12, 44447, Note_on_c, 12, 60, 84
12, 44456, Note_on_c, 12, 60, 0
12, 44462, Note_on_c, 12, 60, 84
12, 44496, Note_on_c, 12, 60, 0
12, 44507, Note_on_c, 12, 60, 84
12, 44516, Note_on_c, 12, 60, 0
12, 44522, Note_on_c, 12, 60, 84
12, 44556, Note_on_c, 12, 60, 0
12, 44567, Note_on_c, 12, 60, 84
12, 44576, Note_on_c, 12, 60, 0
12, 44582, Note_on_c, 12, 60, 84
12, 44616, Note_on_c, 12, 60, 0
12, 44627, Note_on_c, 12, 60, 84
12, 44636, Note_on_c, 12, 60, 0
12, 44642, Note_on_c, 12, 60, 84
12, 44642, Note_on_c, 12, 58, 84
12, 44676, Note_on_c, 12, 58, 0
12, 44676, Note_on_c, 12, 60, 0
12, 44687, Note_on_c, 12, 58, 84
12, 44687, Note_on_c, 12, 60, 84
12, 44696, Note_on_c, 12, 60, 0
12, 44696, Note_on_c, 12, 58, 0
12, 44702, Note_on_c, 12, 60, 84
12, 44702, Note_on_c, 12, 58, 84
12, 44736, Note_on_c, 12, 58, 0
12, 44736, Note_on_c, 12, 60, 0
12, 44747, Note_on_c, 12, 58, 84
12, 44747, Note_on_c, 12, 60, 84
12, 44756, Note_on_c, 12, 60, 0
12, 44756, Note_on_c, 12, 58, 0
12, 44762, Note_on_c, 12, 60, 84
12, 44762, Note_on_c, 12, 58, 84
12, 44796, Note_on_c, 12, 58, 0
12, 44796, Note_on_c, 12, 60, 0
12, 44807, Note_on_c, 12, 60, 84
12, 44807, Note_on_c, 12, 58, 84
12, 44816, Note_on_c, 12, 58, 0
12, 44816, Note_on_c, 12, 60, 0
12, 44822, Note_on_c, 12, 60, 84
12, 44822, Note_on_c, 12, 58, 84
12, 44856, Note_on_c, 12, 58, 0
12, 44856, Note_on_c, 12, 60, 0
12, 44867, Note_on_c, 12, 58, 84
12, 44867, Note_on_c, 12, 60, 84
12, 44876, Note_on_c, 12, 60, 0
12, 44876, Note_on_c, 12, 58, 0
12, 44882, Note_on_c, 12, 60, 84
12, 44882, Note_on_c, 12, 58, 84
12, 44916, Note_on_c, 12, 58, 0
12, 44916, Note_on_c, 12, 60, 0
12, 44927, Note_on_c, 12, 58, 84
12, 44927, Note_on_c, 12, 60, 84
12, 44936, Note_on_c, 12, 60, 0
12, 44936, Note_on_c, 12, 58, 0
12, 44942, Note_on_c, 12, 60, 84
12, 44942, Note_on_c, 12, 58, 84
12, 44976, Note_on_c, 12, 58, 0
12, 44976, Note_on_c, 12, 60, 0
12, 44987, Note_on_c, 12, 58, 84
12, 44987, Note_on_c, 12, 60, 84
12, 44996, Note_on_c, 12, 60, 0
12, 44996, Note_on_c, 12, 58, 0
12, 45002, Note_on_c, 12, 57, 84
12, 45002, Note_on_c, 12, 60, 84
12, 45036, Note_on_c, 12, 60, 0
12, 45036, Note_on_c, 12, 57, 0
12, 45047, Note_on_c, 12, 60, 84
12, 45056, Note_on_c, 12, 60, 0
12, 45062, Note_on_c, 12, 60, 84
12, 45096, Note_on_c, 12, 60, 0
12, 45107, Note_on_c, 12, 60, 84
12, 45116, Note_on_c, 12, 60, 0
12, 45122, Note_on_c, 12, 60, 84
12, 45156, Note_on_c, 12, 60, 0
12, 45167, Note_on_c, 12, 60, 84
12, 45176, Note_on_c, 12, 60, 0
12, 45182, Note_on_c, 12, 60, 84
12, 45216, Note_on_c, 12, 60, 0
12, 45227, Note_on_c, 12, 60, 84
12, 45236, Note_on_c, 12, 60, 0
12, 45242, Note_on_c, 12, 60, 84
12, 45276, Note_on_c, 12, 60, 0
12, 45287, Note_on_c, 12, 60, 84
12, 45296, Note_on_c, 12, 60, 0
12, 45302, Note_on_c, 12, 60, 84
12, 45336, Note_on_c, 12, 60, 0
12, 45347, Note_on_c, 12, 60, 84
12, 45356, Note_on_c, 12, 60, 0
12, 45362, Note_on_c, 12, 60, 84
12, 45362, Note_on_c, 12, 58, 84
12, 45396, Note_on_c, 12, 58, 0
12, 45396, Note_on_c, 12, 60, 0
12, 45407, Note_on_c, 12, 58, 84
12, 45407, Note_on_c, 12, 60, 84
12, 45416, Note_on_c, 12, 60, 0
12, 45416, Note_on_c, 12, 58, 0
12, 45422, Note_on_c, 12, 60, 84
12, 45422, Note_on_c, 12, 58, 84
12, 45456, Note_on_c, 12, 58, 0
12, 45456, Note_on_c, 12, 60, 0
12, 45467, Note_on_c, 12, 60, 84
12, 45467, Note_on_c, 12, 58, 84
12, 45476, Note_on_c, 12, 58, 0
12, 45476, Note_on_c, 12, 60, 0
12, 45482, Note_on_c, 12, 60, 84
12, 45482, Note_on_c, 12, 58, 84
12, 45516, Note_on_c, 12, 58, 0
12, 45516, Note_on_c, 12, 60, 0
12, 45527, Note_on_c, 12, 60, 84
12, 45527, Note_on_c, 12, 58, 84
12, 45536, Note_on_c, 12, 58, 0
12, 45536, Note_on_c, 12, 60, 0
12, 45542, Note_on_c, 12, 58, 84
12, 45542, Note_on_c, 12, 60, 84
12, 45576, Note_on_c, 12, 60, 0
12, 45576, Note_on_c, 12, 58, 0
12, 45587, Note_on_c, 12, 60, 84
12, 45587, Note_on_c, 12, 58, 84
12, 45596, Note_on_c, 12, 58, 0
12, 45596, Note_on_c, 12, 60, 0
12, 45602, Note_on_c, 12, 58, 84
12, 45602, Note_on_c, 12, 60, 84
12, 45636, Note_on_c, 12, 60, 0
12, 45636, Note_on_c, 12, 58, 0
12, 45647, Note_on_c, 12, 58, 84
12, 45647, Note_on_c, 12, 60, 84
12, 45656, Note_on_c, 12, 60, 0
12, 45656, Note_on_c, 12, 58, 0
12, 45662, Note_on_c, 12, 60, 84
12, 45662, Note_on_c, 12, 58, 84
12, 45696, Note_on_c, 12, 58, 0
12, 45696, Note_on_c, 12, 60, 0
12, 45707, Note_on_c, 12, 60, 84
12, 45707, Note_on_c, 12, 58, 84
12, 45716, Note_on_c, 12, 58, 0
12, 45716, Note_on_c, 12, 60, 0
12, 45722, Note_on_c, 12, 60, 84
12, 45722, Note_on_c, 12, 57, 84
12, 45742, Control_c, 12, 11, 47
12, 45747, Control_c, 12, 11, 44
12, 45753, Control_c, 12, 11, 41
12, 45759, Control_c, 12, 11, 38
12, 45765, Control_c, 12, 11, 35
12, 45771, Control_c, 12, 11, 32
12, 45777, Control_c, 12, 11, 29
12, 45782, Note_on_c, 12, 57, 0
12, 45782, Note_on_c, 12, 60, 0
12, 46382, Note_on_c, 12, 60, 96
12, 46382, Control_c, 12, 11, 62
12, 46384, Control_c, 12, 11, 65
12, 46387, Control_c, 12, 11, 69
12, 46390, Control_c, 12, 11, 72
12, 46392, Control_c, 12, 11, 75
12, 46395, Control_c, 12, 11, 79
12, 46398, Control_c, 12, 11, 82
12, 46400, Control_c, 12, 11, 85
12, 46442, Note_on_c, 12, 60, 0
12, 46442, Note_on_c, 12, 65, 108
12, 46472, Note_on_c, 12, 65, 0
12, 46502, Control_c, 12, 11, 42
12, 46502, Note_on_c, 12, 53, 108
12, 46532, Note_on_c, 12, 53, 0
12, 46562, Note_on_c, 12, 53, 98
12, 46592, Note_on_c, 12, 53, 0
12, 46622, Note_on_c, 12, 53, 80
12, 46702, Control_c, 12, 11, 42
12, 46708, Control_c, 12, 11, 39
12, 46714, Control_c, 12, 11, 36
12, 46720, Control_c, 12, 11, 33
12, 46726, Control_c, 12, 11, 30
12, 46732, Control_c, 12, 11, 27
12, 46738, Control_c, 12, 11, 24
12, 46742, Note_on_c, 12, 53, 0
12, 46982, Control_c, 12, 121, 0
12, 46982, End_track
13, 0, Start_track
13, 0, MIDI_port, 0
13, 0, Title_t, "Violoncelle"
13, 0, Program_c, 13, 48
13, 0, Control_c, 13, 10, 100
13, 4, Control_c, 13, 121, 0
13, 9, Program_c, 13, 48
13, 14, Pitch_bend_c, 13, 7892
13, 19, Control_c, 13, 11, 47
13, 24, Control_c, 13, 7, 127
13, 29, Control_c, 13, 91, 35
13, 34, Control_c, 13, 93, 0
13, 39, Control_c, 13, 10, 100
13, 44, Control_c, 13, 1, 36
13, 1204, Note_on_c, 13, 53, 91
13, 1204, Control_c, 13, 11, 27
13, 1222, Control_c, 13, 11, 30
13, 1240, Control_c, 13, 11, 33
13, 1258, Control_c, 13, 11, 36
13, 1264, Note_on_c, 13, 53, 0
13, 1264, Note_on_c, 13, 60, 106
13, 1303, Note_on_c, 13, 60, 0
13, 1324, Note_on_c, 13, 60, 106
13, 1363, Note_on_c, 13, 60, 0
13, 1384, Note_on_c, 13, 60, 106
13, 1444, Note_on_c, 13, 60, 0
13, 1444, Note_on_c, 13, 64, 106
13, 1483, Note_on_c, 13, 64, 0
13, 1504, Note_on_c, 13, 64, 106
13, 1543, Note_on_c, 13, 64, 0
13, 1564, Note_on_c, 13, 64, 106
13, 1564, Control_c, 13, 11, 37
13, 1576, Control_c, 13, 11, 40
13, 1588, Control_c, 13, 11, 43
13, 1600, Control_c, 13, 11, 46
13, 1612, Control_c, 13, 11, 49
13, 1624, Note_on_c, 13, 64, 0
13, 1624, Note_on_c, 13, 65, 106
13, 1624, Control_c, 13, 11, 52
13, 1679, Note_on_c, 13, 65, 0
13, 1684, Note_on_c, 13, 65, 106
13, 1684, Control_c, 13, 11, 47
13, 1714, Note_on_c, 13, 65, 0
13, 1729, Note_on_c, 13, 64, 106
13, 1739, Note_on_c, 13, 64, 0
13, 1744, Note_on_c, 13, 62, 106
13, 1774, Note_on_c, 13, 62, 0
13, 1789, Note_on_c, 13, 60, 106
13, 1799, Note_on_c, 13, 60, 0
13, 1804, Note_on_c, 13, 59, 106
13, 1804, Control_c, 13, 11, 37
13, 1843, Note_on_c, 13, 59, 0
13, 1864, Note_on_c, 13, 59, 106
13, 1903, Note_on_c, 13, 59, 0
13, 1924, Note_on_c, 13, 59, 106
13, 1984, Note_on_c, 13, 59, 0
13, 1984, Note_on_c, 13, 60, 106
13, 1984, Control_c, 13, 11, 37
13, 2008, Control_c, 13, 11, 39
13, 2023, Note_on_c, 13, 60, 0
13, 2032, Control_c, 13, 11, 41
13, 2044, Note_on_c, 13, 60, 106
13, 2056, Control_c, 13, 11, 43
13, 2074, Note_on_c, 13, 60, 0
13, 2080, Control_c, 13, 11, 45
13, 2089, Note_on_c, 13, 59, 106
13, 2099, Note_on_c, 13, 59, 0
13, 2104, Note_on_c, 13, 60, 106
13, 2104, Control_c, 13, 11, 47
13, 2128, Control_c, 13, 11, 49
13, 2134, Note_on_c, 13, 60, 0
13, 2149, Note_on_c, 13, 62, 106
13, 2152, Control_c, 13, 11, 51
13, 2159, Note_on_c, 13, 62, 0
13, 2164, Note_on_c, 13, 58, 106
13, 2203, Note_on_c, 13, 58, 0
13, 2224, Note_on_c, 13, 58, 106
13, 2254, Note_on_c, 13, 58, 0
13, 2254, Control_c, 13, 11, 47
13, 2263, Control_c, 13, 11, 44
13, 2269, Note_on_c, 13, 57, 106
13, 2272, Control_c, 13, 11, 41
13, 2279, Note_on_c, 13, 57, 0
13, 2281, Control_c, 13, 11, 38
13, 2284, Note_on_c, 13, 58, 106
13, 2314, Note_on_c, 13, 58, 0
13, 2329, Note_on_c, 13, 60, 106
13, 2339, Note_on_c, 13, 60, 0
13, 2344, Note_on_c, 13, 57, 106
13, 2344, Control_c, 13, 11, 37
13, 2383, Note_on_c, 13, 57, 0
13, 2404, Note_on_c, 13, 41, 106
13, 2443, Note_on_c, 13, 41, 0
13, 2524, Note_on_c, 13, 53, 106
13, 2563, Note_on_c, 13, 53, 0
13, 2584, Note_on_c, 13, 41, 106
13, 2623, Note_on_c, 13, 41, 0
13, 2644, Control_c, 13, 11, 37
13, 2656, Control_c, 13, 11, 40
13, 2668, Control_c, 13, 11, 43
13, 2680, Control_c, 13, 11, 46
13, 2692, Control_c, 13, 11, 49
13, 2704, Note_on_c, 13, 48, 106
13, 2704, Control_c, 13, 11, 52
13, 2764, Note_on_c, 13, 48, 0
13, 2764, Note_on_c, 13, 52, 106
13, 2764, Control_c, 13, 11, 47
13, 2803, Note_on_c, 13, 52, 0
13, 2824, Note_on_c, 13, 55, 106
13, 2863, Note_on_c, 13, 55, 0
13, 2884, Note_on_c, 13, 60, 106
13, 2884, Control_c, 13, 11, 37
13, 2902, Control_c, 13, 11, 38
13, 2920, Control_c, 13, 11, 39
13, 2938, Control_c, 13, 11, 40
13, 2956, Control_c, 13, 11, 41
13, 2974, Control_c, 13, 11, 42
13, 2992, Control_c, 13, 11, 43
13, 2999, Note_on_c, 13, 60, 0
13, 3004, Note_on_c, 13, 58, 106
13, 3010, Control_c, 13, 11, 44
13, 3028, Control_c, 13, 11, 45
13, 3046, Control_c, 13, 11, 46
13, 3064, Note_on_c, 13, 58, 0
13, 3064, Note_on_c, 13, 57, 106
13, 3064, Control_c, 13, 11, 47
13, 3082, Control_c, 13, 11, 48
13, 3100, Control_c, 13, 11, 49
13, 3118, Control_c, 13, 11, 50
13, 3124, Note_on_c, 13, 57, 0
13, 3124, Note_on_c, 13, 55, 106
13, 3136, Control_c, 13, 11, 51
13, 3154, Control_c, 13, 11, 52
13, 3172, Control_c, 13, 11, 53
13, 3184, Note_on_c, 13, 55, 0
13, 3184, Note_on_c, 13, 53, 106
13, 3190, Control_c, 13, 11, 54
13, 3208, Control_c, 13, 11, 55
13, 3226, Control_c, 13, 11, 56
13, 3239, Note_on_c, 13, 53, 0
13, 3244, Note_on_c, 13, 52, 106
13, 3244, Control_c, 13, 11, 57
13, 3299, Note_on_c, 13, 52, 0
13, 3304, Note_on_c, 13, 48, 106
13, 3359, Note_on_c, 13, 48, 0
13, 3364, Note_on_c, 13, 53, 106
13, 3419, Note_on_c, 13, 53, 0
13, 3424, Note_on_c, 13, 48, 106
13, 3484, Note_on_c, 13, 48, 0
13, 3544, Note_on_c, 13, 58, 106
13, 3604, Note_on_c, 13, 58, 0
13, 3604, Note_on_c, 13, 57, 106
13, 3664, Note_on_c, 13, 57, 0
13, 3724, Note_on_c, 13, 53, 106
13, 3724, Control_c, 13, 11, 56
13, 3727, Control_c, 13, 11, 60
13, 3730, Control_c, 13, 11, 63
13, 3733, Control_c, 13, 11, 66
13, 3736, Control_c, 13, 11, 70
13, 3752, Control_c, 13, 11, 67
13, 3760, Control_c, 13, 11, 64
13, 3769, Control_c, 13, 11, 61
13, 3779, Control_c, 13, 11, 58
13, 3784, Note_on_c, 13, 53, 0
13, 3784, Note_on_c, 13, 48, 106
13, 3844, Note_on_c, 13, 48, 0
13, 3904, Note_on_c, 13, 58, 106
13, 3964, Note_on_c, 13, 58, 0
13, 3964, Note_on_c, 13, 57, 106
13, 3964, Control_c, 13, 11, 62
13, 4024, Note_on_c, 13, 57, 0
13, 4084, Note_on_c, 13, 53, 106
13, 4084, Control_c, 13, 11, 62
13, 4087, Control_c, 13, 11, 66
13, 4090, Control_c, 13, 11, 69
13, 4093, Control_c, 13, 11, 72
13, 4096, Control_c, 13, 11, 76
13, 4112, Control_c, 13, 11, 73
13, 4120, Control_c, 13, 11, 70
13, 4129, Control_c, 13, 11, 67
13, 4139, Control_c, 13, 11, 64
13, 4144, Note_on_c, 13, 53, 0
13, 4144, Note_on_c, 13, 48, 106
13, 4204, Note_on_c, 13, 48, 0
13, 4264, Note_on_c, 13, 53, 106
13, 4264, Control_c, 13, 11, 68
13, 4267, Control_c, 13, 11, 72
13, 4270, Control_c, 13, 11, 75
13, 4273, Control_c, 13, 11, 78
13, 4276, Control_c, 13, 11, 82
13, 4292, Control_c, 13, 11, 79
13, 4300, Control_c, 13, 11, 76
13, 4309, Control_c, 13, 11, 73
13, 4319, Control_c, 13, 11, 70
13, 4324, Note_on_c, 13, 53, 0
13, 4324, Note_on_c, 13, 48, 106
13, 4384, Note_on_c, 13, 48, 0
13, 4444, Control_c, 13, 11, 89
13, 4444, Note_on_c, 13, 53, 106
13, 4460, Control_c, 13, 11, 86
13, 4477, Control_c, 13, 11, 83
13, 4493, Control_c, 13, 11, 80
13, 4504, Note_on_c, 13, 53, 0
13, 4504, Note_on_c, 13, 48, 96
13, 4504, Control_c, 13, 11, 87
13, 4543, Note_on_c, 13, 48, 0
13, 4564, Note_on_c, 13, 48, 87
13, 4603, Note_on_c, 13, 48, 0
13, 4624, Note_on_c, 13, 48, 84
13, 4663, Note_on_c, 13, 48, 0
13, 4684, Note_on_c, 13, 48, 73
13, 4719, Control_c, 13, 11, 87
13, 4721, Control_c, 13, 11, 84
13, 4724, Control_c, 13, 11, 81
13, 4727, Control_c, 13, 11, 78
13, 4730, Control_c, 13, 11, 75
13, 4733, Control_c, 13, 11, 72
13, 4736, Control_c, 13, 11, 69
13, 4739, Control_c, 13, 11, 66
13, 4742, Control_c, 13, 11, 63
13, 4744, Note_on_c, 13, 48, 0
13, 4924, Note_on_c, 13, 61, 74
13, 4924, Control_c, 13, 11, 47
13, 4963, Note_on_c, 13, 61, 0
13, 4984, Note_on_c, 13, 57, 78
13, 5023, Note_on_c, 13, 57, 0
13, 5044, Note_on_c, 13, 62, 91
13, 5083, Note_on_c, 13, 62, 0
13, 5104, Note_on_c, 13, 50, 57
13, 5143, Note_on_c, 13, 50, 0
13, 5284, Note_on_c, 13, 59, 74
13, 5323, Note_on_c, 13, 59, 0
13, 5344, Note_on_c, 13, 55, 78
13, 5383, Note_on_c, 13, 55, 0
13, 5404, Note_on_c, 13, 60, 91
13, 5443, Note_on_c, 13, 60, 0
13, 5464, Note_on_c, 13, 48, 57
13, 5503, Note_on_c, 13, 48, 0
13, 5584, Note_on_c, 13, 52, 106
13, 5623, Note_on_c, 13, 52, 0
13, 5644, Note_on_c, 13, 64, 106
13, 5696, Note_on_c, 13, 64, 0
13, 5704, Note_on_c, 13, 64, 106
13, 5756, Note_on_c, 13, 64, 0
13, 5764, Note_on_c, 13, 64, 106
13, 5824, Note_on_c, 13, 64, 0
13, 5824, Note_on_c, 13, 62, 106
13, 5884, Note_on_c, 13, 62, 0
13, 5884, Note_on_c, 13, 60, 106
13, 5939, Note_on_c, 13, 60, 0
13, 5944, Note_on_c, 13, 59, 106
13, 6004, Note_on_c, 13, 59, 0
13, 6004, Note_on_c, 13, 55, 106
13, 6064, Note_on_c, 13, 55, 0
13, 6064, Note_on_c, 13, 60, 106
13, 6119, Note_on_c, 13, 60, 0
13, 6124, Note_on_c, 13, 55, 106
13, 6163, Note_on_c, 13, 55, 0
13, 6184, Note_on_c, 13, 67, 57
13, 6223, Note_on_c, 13, 67, 0
13, 6364, Control_c, 13, 11, 47
13, 6364, Note_on_c, 13, 61, 86
13, 6403, Note_on_c, 13, 61, 0
13, 6424, Note_on_c, 13, 57, 106
13, 6463, Note_on_c, 13, 57, 0
13, 6484, Note_on_c, 13, 62, 106
13, 6523, Note_on_c, 13, 62, 0
13, 6544, Note_on_c, 13, 50, 86
13, 6583, Note_on_c, 13, 50, 0
13, 6724, Note_on_c, 13, 59, 86
13, 6763, Note_on_c, 13, 59, 0
13, 6784, Note_on_c, 13, 55, 106
13, 6823, Note_on_c, 13, 55, 0
13, 6844, Note_on_c, 13, 60, 106
13, 6883, Note_on_c, 13, 60, 0
13, 6904, Note_on_c, 13, 48, 86
13, 6943, Note_on_c, 13, 48, 0
13, 7024, Note_on_c, 13, 52, 106
13, 7024, Control_c, 13, 11, 47
13, 7045, Control_c, 13, 11, 50
13, 7060, Control_c, 13, 11, 52
13, 7063, Note_on_c, 13, 52, 0
13, 7081, Control_c, 13, 11, 55
13, 7084, Note_on_c, 13, 52, 106
13, 7096, Control_c, 13, 11, 57
13, 7117, Control_c, 13, 11, 60
13, 7123, Note_on_c, 13, 52, 0
13, 7132, Control_c, 13, 11, 62
13, 7144, Note_on_c, 13, 52, 106
13, 7153, Control_c, 13, 11, 65
13, 7168, Control_c, 13, 11, 67
13, 7183, Note_on_c, 13, 52, 0
13, 7189, Control_c, 13, 11, 70
13, 7204, Control_c, 13, 11, 72
13, 7204, Note_on_c, 13, 53, 106
13, 7264, Note_on_c, 13, 53, 0
13, 7444, Note_on_c, 13, 55, 106
13, 7444, Control_c, 13, 11, 47
13, 7474, Note_on_c, 13, 55, 0
13, 7504, Note_on_c, 13, 43, 106
13, 7534, Note_on_c, 13, 43, 0
13, 7564, Note_on_c, 13, 48, 106
13, 7624, Note_on_c, 13, 48, 0
13, 7669, Note_on_c, 13, 65, 106
13, 7677, Note_on_c, 13, 65, 0
13, 7684, Note_on_c, 13, 64, 106
13, 7707, Note_on_c, 13, 64, 0
13, 7729, Note_on_c, 13, 59, 106
13, 7737, Note_on_c, 13, 59, 0
13, 7744, Note_on_c, 13, 60, 106
13, 7774, Note_on_c, 13, 60, 0
13, 7849, Note_on_c, 13, 62, 106
13, 7857, Note_on_c, 13, 62, 0
13, 7864, Note_on_c, 13, 60, 106
13, 7887, Note_on_c, 13, 60, 0
13, 7909, Note_on_c, 13, 56, 106
13, 7917, Note_on_c, 13, 56, 0
13, 7924, Note_on_c, 13, 57, 106
13, 7954, Note_on_c, 13, 57, 0
13, 8029, Note_on_c, 13, 58, 106
13, 8037, Note_on_c, 13, 58, 0
13, 8044, Note_on_c, 13, 57, 106
13, 8067, Note_on_c, 13, 57, 0
13, 8089, Note_on_c, 13, 52, 106
13, 8097, Note_on_c, 13, 52, 0
13, 8104, Note_on_c, 13, 53, 106
13, 8127, Note_on_c, 13, 53, 0
13, 8149, Note_on_c, 13, 50, 106
13, 8157, Note_on_c, 13, 50, 0
13, 8164, Note_on_c, 13, 55, 106
13, 8203, Note_on_c, 13, 55, 0
13, 8224, Note_on_c, 13, 43, 106
13, 8254, Note_on_c, 13, 43, 0
13, 8284, Note_on_c, 13, 48, 106
13, 8344, Note_on_c, 13, 48, 0
13, 8389, Control_c, 13, 11, 87
13, 8389, Note_on_c, 13, 53, 106
13, 8397, Note_on_c, 13, 53, 0
13, 8404, Note_on_c, 13, 52, 106
13, 8427, Note_on_c, 13, 52, 0
13, 8449, Note_on_c, 13, 47, 106
13, 8457, Note_on_c, 13, 47, 0
13, 8464, Note_on_c, 13, 48, 106
13, 8494, Note_on_c, 13, 48, 0
13, 8569, Note_on_c, 13, 62, 106
13, 8577, Note_on_c, 13, 62, 0
13, 8584, Note_on_c, 13, 60, 106
13, 8607, Note_on_c, 13, 60, 0
13, 8629, Note_on_c, 13, 56, 106
13, 8637, Note_on_c, 13, 56, 0
13, 8644, Note_on_c, 13, 57, 106
13, 8674, Note_on_c, 13, 57, 0
13, 8749, Note_on_c, 13, 62, 106
13, 8757, Note_on_c, 13, 62, 0
13, 8764, Note_on_c, 13, 60, 106
13, 8787, Note_on_c, 13, 60, 0
13, 8809, Note_on_c, 13, 56, 106
13, 8817, Note_on_c, 13, 56, 0
13, 8824, Note_on_c, 13, 57, 106
13, 8854, Note_on_c, 13, 57, 0
13, 8884, Note_on_c, 13, 55, 106
13, 8884, Control_c, 13, 11, 90
13, 8890, Control_c, 13, 11, 93
13, 8896, Control_c, 13, 11, 96
13, 8919, Control_c, 13, 11, 95
13, 8928, Control_c, 13, 11, 92
13, 8937, Control_c, 13, 11, 89
13, 9004, Note_on_c, 13, 55, 0
13, 9004, Note_on_c, 13, 53, 106
13, 9034, Note_on_c, 13, 53, 0
13, 9064, Control_c, 13, 11, 90
13, 9064, Note_on_c, 13, 50, 106
13, 9073, Control_c, 13, 11, 93
13, 9083, Control_c, 13, 11, 96
13, 9099, Control_c, 13, 11, 95
13, 9108, Control_c, 13, 11, 92
13, 9117, Control_c, 13, 11, 89
13, 9184, Note_on_c, 13, 50, 0
13, 9184, Note_on_c, 13, 55, 106
13, 9214, Note_on_c, 13, 55, 0
13, 9244, Control_c, 13, 11, 90
13, 9244, Note_on_c, 13, 52, 106
13, 9250, Control_c, 13, 11, 93
13, 9256, Control_c, 13, 11, 96
13, 9279, Control_c, 13, 11, 95
13, 9288, Control_c, 13, 11, 92
13, 9297, Control_c, 13, 11, 89
13, 9364, Note_on_c, 13, 52, 0
13, 9364, Note_on_c, 13, 53, 106
13, 9364, Control_c, 13, 11, 87
13, 9373, Control_c, 13, 11, 84
13, 9382, Control_c, 13, 11, 81
13, 9391, Control_c, 13, 11, 78
13, 9394, Note_on_c, 13, 53, 0
13, 9400, Control_c, 13, 11, 75
13, 9409, Control_c, 13, 11, 72
13, 9418, Control_c, 13, 11, 69
13, 9424, Note_on_c, 13, 55, 106
13, 9454, Note_on_c, 13, 55, 0
13, 9484, Control_c, 13, 11, 72
13, 9484, Control_c, 13, 11, 67
13, 9484, Note_on_c, 13, 43, 86
13, 9488, Control_c, 13, 11, 71
13, 9490, Control_c, 13, 11, 66
13, 9492, Control_c, 13, 11, 70
13, 9496, Control_c, 13, 11, 65
13, 9514, Note_on_c, 13, 43, 0
13, 9514, Control_c, 13, 11, 62
13, 9532, Control_c, 13, 11, 59
13, 9544, Note_on_c, 13, 48, 70
13, 9574, Control_c, 13, 11, 57
13, 9578, Control_c, 13, 11, 54
13, 9582, Control_c, 13, 11, 51
13, 9587, Control_c, 13, 11, 48
13, 9591, Control_c, 13, 11, 45
13, 9595, Control_c, 13, 11, 42
13, 9600, Control_c, 13, 11, 39
13, 9604, Note_on_c, 13, 48, 0
13, 9724, Note_on_c, 13, 55, 106
13, 9724, Control_c, 13, 11, 37
13, 9784, Note_on_c, 13, 55, 0
13, 9844, Note_on_c, 13, 55, 106
13, 9904, Note_on_c, 13, 55, 0
13, 9964, Note_on_c, 13, 55, 106
13, 10024, Note_on_c, 13, 55, 0
13, 10084, Note_on_c, 13, 55, 106
13, 10144, Note_on_c, 13, 55, 0
13, 10204, Note_on_c, 13, 55, 106
13, 10264, Note_on_c, 13, 55, 0
13, 10324, Note_on_c, 13, 55, 106
13, 10384, Note_on_c, 13, 55, 0
13, 10444, Note_on_c, 13, 55, 106
13, 10504, Note_on_c, 13, 55, 0
13, 10564, Note_on_c, 13, 55, 106
13, 10624, Note_on_c, 13, 55, 0
13, 10684, Note_on_c, 13, 55, 106
13, 10744, Note_on_c, 13, 55, 0
13, 10804, Note_on_c, 13, 55, 106
13, 10849, Note_on_c, 13, 55, 0
13, 10864, Note_on_c, 13, 55, 106
13, 10909, Note_on_c, 13, 55, 0
13, 10924, Note_on_c, 13, 55, 106
13, 10969, Note_on_c, 13, 55, 0
13, 10984, Note_on_c, 13, 48, 91
13, 11019, Control_c, 13, 11, 37
13, 11026, Control_c, 13, 11, 34
13, 11033, Control_c, 13, 11, 31
13, 11040, Control_c, 13, 11, 28
13, 11044, Note_on_c, 13, 48, 0
13, 11284, Control_c, 13, 11, 37
13, 11284, Note_on_c, 13, 55, 82
13, 11302, Control_c, 13, 11, 40
13, 11320, Control_c, 13, 11, 43
13, 11338, Control_c, 13, 11, 46
13, 11344, Note_on_c, 13, 55, 0
13, 11344, Note_on_c, 13, 60, 106
13, 11374, Note_on_c, 13, 60, 0
13, 11404, Note_on_c, 13, 48, 101
13, 11434, Note_on_c, 13, 48, 0
13, 11464, Note_on_c, 13, 48, 87
13, 11494, Note_on_c, 13, 48, 0
13, 11524, Note_on_c, 13, 48, 74
13, 11559, Control_c, 13, 11, 47
13, 11566, Control_c, 13, 11, 44
13, 11573, Control_c, 13, 11, 41
13, 11580, Control_c, 13, 11, 38
13, 11584, Note_on_c, 13, 48, 0
13, 12724, Note_on_c, 13, 53, 91
13, 12724, Control_c, 13, 11, 27
13, 12742, Control_c, 13, 11, 30
13, 12760, Control_c, 13, 11, 33
13, 12778, Control_c, 13, 11, 36
13, 12784, Note_on_c, 13, 53, 0
13, 12784, Note_on_c, 13, 60, 106
13, 12823, Note_on_c, 13, 60, 0
13, 12844, Note_on_c, 13, 60, 106
13, 12883, Note_on_c, 13, 60, 0
13, 12904, Note_on_c, 13, 60, 106
13, 12964, Note_on_c, 13, 60, 0
13, 12964, Note_on_c, 13, 64, 106
13, 13003, Note_on_c, 13, 64, 0
13, 13024, Note_on_c, 13, 64, 106
13, 13063, Note_on_c, 13, 64, 0
13, 13084, Note_on_c, 13, 64, 106
13, 13084, Control_c, 13, 11, 37
13, 13096, Control_c, 13, 11, 40
13, 13108, Control_c, 13, 11, 43
13, 13120, Control_c, 13, 11, 46
13, 13132, Control_c, 13, 11, 49
13, 13144, Note_on_c, 13, 64, 0
13, 13144, Note_on_c, 13, 65, 106
13, 13144, Control_c, 13, 11, 52
13, 13199, Note_on_c, 13, 65, 0
13, 13204, Note_on_c, 13, 65, 106
13, 13204, Control_c, 13, 11, 47
13, 13234, Note_on_c, 13, 65, 0
13, 13249, Note_on_c, 13, 64, 106
13, 13259, Note_on_c, 13, 64, 0
13, 13264, Note_on_c, 13, 62, 106
13, 13294, Note_on_c, 13, 62, 0
13, 13309, Note_on_c, 13, 60, 106
13, 13319, Note_on_c, 13, 60, 0
13, 13324, Note_on_c, 13, 59, 106
13, 13324, Control_c, 13, 11, 37
13, 13363, Note_on_c, 13, 59, 0
13, 13384, Note_on_c, 13, 59, 106
13, 13423, Note_on_c, 13, 59, 0
13, 13444, Note_on_c, 13, 59, 106
13, 13504, Note_on_c, 13, 59, 0
13, 13504, Control_c, 13, 11, 37
13, 13504, Note_on_c, 13, 60, 106
13, 13528, Control_c, 13, 11, 39
13, 13543, Note_on_c, 13, 60, 0
13, 13552, Control_c, 13, 11, 41
13, 13564, Note_on_c, 13, 60, 106
13, 13576, Control_c, 13, 11, 43
13, 13594, Note_on_c, 13, 60, 0
13, 13600, Control_c, 13, 11, 45
13, 13609, Note_on_c, 13, 59, 106
13, 13619, Note_on_c, 13, 59, 0
13, 13624, Note_on_c, 13, 60, 106
13, 13624, Control_c, 13, 11, 47
13, 13648, Control_c, 13, 11, 49
13, 13654, Note_on_c, 13, 60, 0
13, 13669, Note_on_c, 13, 62, 106
13, 13672, Control_c, 13, 11, 51
13, 13679, Note_on_c, 13, 62, 0
13, 13684, Note_on_c, 13, 58, 106
13, 13723, Note_on_c, 13, 58, 0
13, 13744, Note_on_c, 13, 58, 106
13, 13774, Note_on_c, 13, 58, 0
13, 13774, Control_c, 13, 11, 47
13, 13783, Control_c, 13, 11, 44
13, 13789, Note_on_c, 13, 57, 106
13, 13792, Control_c, 13, 11, 41
13, 13799, Note_on_c, 13, 57, 0
13, 13801, Control_c, 13, 11, 38
13, 13804, Note_on_c, 13, 58, 106
13, 13834, Note_on_c, 13, 58, 0
13, 13849, Note_on_c, 13, 60, 106
13, 13859, Note_on_c, 13, 60, 0
13, 13864, Control_c, 13, 11, 37
13, 13864, Note_on_c, 13, 57, 106
13, 13903, Note_on_c, 13, 57, 0
13, 13924, Note_on_c, 13, 41, 106
13, 13963, Note_on_c, 13, 41, 0
13, 14044, Note_on_c, 13, 53, 106
13, 14083, Note_on_c, 13, 53, 0
13, 14104, Note_on_c, 13, 41, 106
13, 14143, Note_on_c, 13, 41, 0
13, 14164, Control_c, 13, 11, 37
13, 14176, Control_c, 13, 11, 40
13, 14188, Control_c, 13, 11, 43
13, 14200, Control_c, 13, 11, 46
13, 14212, Control_c, 13, 11, 49
13, 14224, Control_c, 13, 11, 52
13, 14224, Note_on_c, 13, 48, 106
13, 14284, Note_on_c, 13, 48, 0
13, 14284, Control_c, 13, 11, 47
13, 14284, Note_on_c, 13, 52, 106
13, 14323, Note_on_c, 13, 52, 0
13, 14344, Note_on_c, 13, 55, 106
13, 14383, Note_on_c, 13, 55, 0
13, 14404, Note_on_c, 13, 60, 106
13, 14404, Control_c, 13, 11, 37
13, 14422, Control_c, 13, 11, 38
13, 14440, Control_c, 13, 11, 39
13, 14458, Control_c, 13, 11, 40
13, 14476, Control_c, 13, 11, 41
13, 14494, Control_c, 13, 11, 42
13, 14512, Control_c, 13, 11, 43
13, 14519, Note_on_c, 13, 60, 0
13, 14524, Note_on_c, 13, 58, 106
13, 14530, Control_c, 13, 11, 44
13, 14548, Control_c, 13, 11, 45
13, 14566, Control_c, 13, 11, 46
13, 14584, Note_on_c, 13, 58, 0
13, 14584, Note_on_c, 13, 57, 106
13, 14584, Control_c, 13, 11, 47
13, 14602, Control_c, 13, 11, 48
13, 14620, Control_c, 13, 11, 49
13, 14638, Control_c, 13, 11, 50
13, 14644, Note_on_c, 13, 57, 0
13, 14644, Note_on_c, 13, 55, 106
13, 14656, Control_c, 13, 11, 51
13, 14674, Control_c, 13, 11, 52
13, 14692, Control_c, 13, 11, 53
13, 14704, Note_on_c, 13, 55, 0
13, 14704, Note_on_c, 13, 53, 106
13, 14710, Control_c, 13, 11, 54
13, 14728, Control_c, 13, 11, 55
13, 14746, Control_c, 13, 11, 56
13, 14759, Note_on_c, 13, 53, 0
13, 14764, Note_on_c, 13, 52, 106
13, 14764, Control_c, 13, 11, 57
13, 14819, Note_on_c, 13, 52, 0
13, 14824, Note_on_c, 13, 48, 106
13, 14879, Note_on_c, 13, 48, 0
13, 14884, Note_on_c, 13, 53, 106
13, 14939, Note_on_c, 13, 53, 0
13, 14944, Note_on_c, 13, 48, 106
13, 15004, Note_on_c, 13, 48, 0
13, 15064, Note_on_c, 13, 58, 106
13, 15124, Note_on_c, 13, 58, 0
13, 15124, Note_on_c, 13, 57, 106
13, 15184, Note_on_c, 13, 57, 0
13, 15244, Control_c, 13, 11, 56
13, 15244, Note_on_c, 13, 53, 106
13, 15247, Control_c, 13, 11, 60
13, 15250, Control_c, 13, 11, 63
13, 15253, Control_c, 13, 11, 66
13, 15256, Control_c, 13, 11, 70
13, 15272, Control_c, 13, 11, 67
13, 15280, Control_c, 13, 11, 64
13, 15289, Control_c, 13, 11, 61
13, 15299, Control_c, 13, 11, 58
13, 15304, Note_on_c, 13, 53, 0
13, 15304, Note_on_c, 13, 48, 106
13, 15364, Note_on_c, 13, 48, 0
13, 15424, Note_on_c, 13, 58, 106
13, 15484, Note_on_c, 13, 58, 0
13, 15484, Control_c, 13, 11, 62
13, 15484, Note_on_c, 13, 57, 106
13, 15544, Note_on_c, 13, 57, 0
13, 15604, Note_on_c, 13, 53, 106
13, 15604, Control_c, 13, 11, 62
13, 15607, Control_c, 13, 11, 66
13, 15610, Control_c, 13, 11, 69
13, 15613, Control_c, 13, 11, 72
13, 15616, Control_c, 13, 11, 76
13, 15632, Control_c, 13, 11, 73
13, 15640, Control_c, 13, 11, 70
13, 15649, Control_c, 13, 11, 67
13, 15659, Control_c, 13, 11, 64
13, 15664, Note_on_c, 13, 53, 0
13, 15664, Note_on_c, 13, 48, 106
13, 15724, Note_on_c, 13, 48, 0
13, 15784, Note_on_c, 13, 53, 106
13, 15784, Control_c, 13, 11, 68
13, 15787, Control_c, 13, 11, 72
13, 15790, Control_c, 13, 11, 75
13, 15793, Control_c, 13, 11, 78
13, 15796, Control_c, 13, 11, 82
13, 15812, Control_c, 13, 11, 79
13, 15820, Control_c, 13, 11, 76
13, 15829, Control_c, 13, 11, 73
13, 15839, Control_c, 13, 11, 70
13, 15844, Note_on_c, 13, 53, 0
13, 15844, Note_on_c, 13, 48, 106
13, 15904, Note_on_c, 13, 48, 0
13, 15964, Note_on_c, 13, 53, 106
13, 15964, Control_c, 13, 11, 89
13, 15980, Control_c, 13, 11, 86
13, 15997, Control_c, 13, 11, 83
13, 16013, Control_c, 13, 11, 80
13, 16024, Note_on_c, 13, 53, 0
13, 16024, Note_on_c, 13, 48, 96
13, 16024, Control_c, 13, 11, 87
13, 16063, Note_on_c, 13, 48, 0
13, 16084, Note_on_c, 13, 48, 87
13, 16123, Note_on_c, 13, 48, 0
13, 16144, Note_on_c, 13, 48, 84
13, 16183, Note_on_c, 13, 48, 0
13, 16204, Note_on_c, 13, 48, 81
13, 16239, Control_c, 13, 11, 87
13, 16241, Control_c, 13, 11, 84
13, 16244, Control_c, 13, 11, 81
13, 16247, Control_c, 13, 11, 78
13, 16250, Control_c, 13, 11, 75
13, 16253, Control_c, 13, 11, 72
13, 16256, Control_c, 13, 11, 69
13, 16259, Control_c, 13, 11, 66
13, 16262, Control_c, 13, 11, 63
13, 16264, Note_on_c, 13, 48, 0
13, 16444, Control_c, 13, 11, 47
13, 16444, Note_on_c, 13, 61, 74
13, 16483, Note_on_c, 13, 61, 0
13, 16504, Note_on_c, 13, 57, 78
13, 16543, Note_on_c, 13, 57, 0
13, 16564, Note_on_c, 13, 62, 91
13, 16603, Note_on_c, 13, 62, 0
13, 16624, Note_on_c, 13, 50, 57
13, 16663, Note_on_c, 13, 50, 0
13, 16804, Note_on_c, 13, 59, 74
13, 16843, Note_on_c, 13, 59, 0
13, 16864, Note_on_c, 13, 55, 78
13, 16903, Note_on_c, 13, 55, 0
13, 16924, Note_on_c, 13, 60, 91
13, 16963, Note_on_c, 13, 60, 0
13, 16984, Note_on_c, 13, 48, 57
13, 17023, Note_on_c, 13, 48, 0
13, 17104, Note_on_c, 13, 52, 106
13, 17143, Note_on_c, 13, 52, 0
13, 17164, Note_on_c, 13, 64, 106
13, 17216, Note_on_c, 13, 64, 0
13, 17224, Note_on_c, 13, 64, 106
13, 17276, Note_on_c, 13, 64, 0
13, 17284, Note_on_c, 13, 64, 106
13, 17344, Note_on_c, 13, 64, 0
13, 17344, Note_on_c, 13, 62, 106
13, 17404, Note_on_c, 13, 62, 0
13, 17404, Note_on_c, 13, 60, 106
13, 17459, Note_on_c, 13, 60, 0
13, 17464, Note_on_c, 13, 59, 106
13, 17464, Control_c, 13, 11, 47
13, 17482, Control_c, 13, 11, 50
13, 17500, Control_c, 13, 11, 53
13, 17518, Control_c, 13, 11, 56
13, 17524, Note_on_c, 13, 59, 0
13, 17524, Note_on_c, 13, 55, 106
13, 17536, Control_c, 13, 11, 56
13, 17560, Control_c, 13, 11, 54
13, 17584, Note_on_c, 13, 55, 0
13, 17584, Control_c, 13, 11, 52
13, 17584, Note_on_c, 13, 60, 106
13, 17608, Control_c, 13, 11, 50
13, 17632, Control_c, 13, 11, 48
13, 17639, Note_on_c, 13, 60, 0
13, 17644, Note_on_c, 13, 55, 106
13, 17683, Note_on_c, 13, 55, 0
13, 17704, Note_on_c, 13, 67, 57
13, 17743, Note_on_c, 13, 67, 0
13, 17884, Note_on_c, 13, 61, 86
13, 17884, Control_c, 13, 11, 47
13, 17923, Note_on_c, 13, 61, 0
13, 17944, Note_on_c, 13, 57, 106
13, 17983, Note_on_c, 13, 57, 0
13, 18004, Note_on_c, 13, 62, 106
13, 18043, Note_on_c, 13, 62, 0
13, 18064, Note_on_c, 13, 50, 86
13, 18103, Note_on_c, 13, 50, 0
13, 18244, Note_on_c, 13, 59, 86
13, 18283, Note_on_c, 13, 59, 0
13, 18304, Note_on_c, 13, 55, 106
13, 18343, Note_on_c, 13, 55, 0
13, 18364, Note_on_c, 13, 60, 106
13, 18403, Note_on_c, 13, 60, 0
13, 18424, Note_on_c, 13, 48, 86
13, 18463, Note_on_c, 13, 48, 0
13, 18544, Note_on_c, 13, 52, 106
13, 18544, Control_c, 13, 11, 47
13, 18565, Control_c, 13, 11, 50
13, 18580, Control_c, 13, 11, 52
13, 18583, Note_on_c, 13, 52, 0
13, 18601, Control_c, 13, 11, 55
13, 18604, Note_on_c, 13, 52, 106
13, 18616, Control_c, 13, 11, 57
13, 18637, Control_c, 13, 11, 60
13, 18643, Note_on_c, 13, 52, 0
13, 18652, Control_c, 13, 11, 62
13, 18664, Note_on_c, 13, 52, 106
13, 18673, Control_c, 13, 11, 65
13, 18688, Control_c, 13, 11, 67
13, 18703, Note_on_c, 13, 52, 0
13, 18709, Control_c, 13, 11, 70
13, 18724, Control_c, 13, 11, 72
13, 18724, Note_on_c, 13, 53, 106
13, 18784, Note_on_c, 13, 53, 0
13, 18964, Note_on_c, 13, 55, 106
13, 18964, Control_c, 13, 11, 47
13, 18994, Note_on_c, 13, 55, 0
13, 19024, Note_on_c, 13, 43, 106
13, 19054, Note_on_c, 13, 43, 0
13, 19084, Note_on_c, 13, 48, 106
13, 19144, Note_on_c, 13, 48, 0
13, 19189, Note_on_c, 13, 65, 106
13, 19197, Note_on_c, 13, 65, 0
13, 19204, Note_on_c, 13, 64, 106
13, 19227, Note_on_c, 13, 64, 0
13, 19249, Note_on_c, 13, 59, 106
13, 19257, Note_on_c, 13, 59, 0
13, 19264, Note_on_c, 13, 60, 106
13, 19294, Note_on_c, 13, 60, 0
13, 19369, Note_on_c, 13, 62, 106
13, 19377, Note_on_c, 13, 62, 0
13, 19384, Note_on_c, 13, 60, 106
13, 19407, Note_on_c, 13, 60, 0
13, 19429, Note_on_c, 13, 56, 106
13, 19437, Note_on_c, 13, 56, 0
13, 19444, Note_on_c, 13, 57, 106
13, 19474, Note_on_c, 13, 57, 0
13, 19549, Note_on_c, 13, 58, 106
13, 19557, Note_on_c, 13, 58, 0
13, 19564, Note_on_c, 13, 57, 106
13, 19587, Note_on_c, 13, 57, 0
13, 19609, Note_on_c, 13, 52, 106
13, 19617, Note_on_c, 13, 52, 0
13, 19624, Note_on_c, 13, 53, 106
13, 19647, Note_on_c, 13, 53, 0
13, 19669, Note_on_c, 13, 50, 106
13, 19677, Note_on_c, 13, 50, 0
13, 19684, Note_on_c, 13, 55, 106
13, 19723, Note_on_c, 13, 55, 0
13, 19744, Note_on_c, 13, 43, 106
13, 19774, Note_on_c, 13, 43, 0
13, 19804, Note_on_c, 13, 48, 106
13, 19864, Note_on_c, 13, 48, 0
13, 19909, Control_c, 13, 11, 87
13, 19909, Note_on_c, 13, 53, 106
13, 19917, Note_on_c, 13, 53, 0
13, 19924, Note_on_c, 13, 52, 106
13, 19947, Note_on_c, 13, 52, 0
13, 19969, Note_on_c, 13, 47, 106
13, 19977, Note_on_c, 13, 47, 0
13, 19984, Note_on_c, 13, 48, 106
13, 20014, Note_on_c, 13, 48, 0
13, 20089, Note_on_c, 13, 62, 106
13, 20097, Note_on_c, 13, 62, 0
13, 20104, Note_on_c, 13, 60, 106
13, 20127, Note_on_c, 13, 60, 0
13, 20149, Note_on_c, 13, 56, 106
13, 20157, Note_on_c, 13, 56, 0
13, 20164, Note_on_c, 13, 57, 106
13, 20194, Note_on_c, 13, 57, 0
13, 20269, Note_on_c, 13, 62, 106
13, 20277, Note_on_c, 13, 62, 0
13, 20284, Note_on_c, 13, 60, 106
13, 20307, Note_on_c, 13, 60, 0
13, 20329, Note_on_c, 13, 56, 106
13, 20337, Note_on_c, 13, 56, 0
13, 20344, Note_on_c, 13, 57, 106
13, 20374, Note_on_c, 13, 57, 0
13, 20404, Control_c, 13, 11, 90
13, 20404, Note_on_c, 13, 55, 106
13, 20410, Control_c, 13, 11, 93
13, 20416, Control_c, 13, 11, 96
13, 20439, Control_c, 13, 11, 95
13, 20448, Control_c, 13, 11, 92
13, 20457, Control_c, 13, 11, 89
13, 20524, Note_on_c, 13, 55, 0
13, 20524, Note_on_c, 13, 53, 106
13, 20554, Note_on_c, 13, 53, 0
13, 20584, Control_c, 13, 11, 90
13, 20584, Note_on_c, 13, 50, 106
13, 20593, Control_c, 13, 11, 93
13, 20603, Control_c, 13, 11, 96
13, 20619, Control_c, 13, 11, 95
13, 20628, Control_c, 13, 11, 92
13, 20637, Control_c, 13, 11, 89
13, 20704, Note_on_c, 13, 50, 0
13, 20704, Note_on_c, 13, 55, 106
13, 20734, Note_on_c, 13, 55, 0
13, 20764, Note_on_c, 13, 52, 106
13, 20764, Control_c, 13, 11, 90
13, 20770, Control_c, 13, 11, 93
13, 20776, Control_c, 13, 11, 96
13, 20799, Control_c, 13, 11, 95
13, 20808, Control_c, 13, 11, 92
13, 20817, Control_c, 13, 11, 89
13, 20884, Note_on_c, 13, 52, 0
13, 20884, Note_on_c, 13, 53, 106
13, 20884, Control_c, 13, 11, 87
13, 20893, Control_c, 13, 11, 84
13, 20902, Control_c, 13, 11, 81
13, 20911, Control_c, 13, 11, 78
13, 20914, Note_on_c, 13, 53, 0
13, 20920, Control_c, 13, 11, 75
13, 20929, Control_c, 13, 11, 72
13, 20938, Control_c, 13, 11, 69
13, 20944, Note_on_c, 13, 55, 106
13, 20974, Note_on_c, 13, 55, 0
13, 21004, Control_c, 13, 11, 72
13, 21004, Control_c, 13, 11, 67
13, 21004, Note_on_c, 13, 43, 86
13, 21012, Control_c, 13, 11, 70
13, 21016, Control_c, 13, 11, 65
13, 21034, Note_on_c, 13, 43, 0
13, 21034, Control_c, 13, 11, 62
13, 21052, Control_c, 13, 11, 59
13, 21064, Note_on_c, 13, 48, 70
13, 21094, Control_c, 13, 11, 57
13, 21098, Control_c, 13, 11, 54
13, 21102, Control_c, 13, 11, 51
13, 21107, Control_c, 13, 11, 48
13, 21111, Control_c, 13, 11, 45
13, 21115, Control_c, 13, 11, 42
13, 21120, Control_c, 13, 11, 39
13, 21124, Note_on_c, 13, 48, 0
13, 21244, Note_on_c, 13, 55, 106
13, 21244, Control_c, 13, 11, 37
13, 21304, Note_on_c, 13, 55, 0
13, 21364, Note_on_c, 13, 55, 106
13, 21424, Note_on_c, 13, 55, 0
13, 21484, Note_on_c, 13, 55, 106
13, 21544, Note_on_c, 13, 55, 0
13, 21604, Note_on_c, 13, 55, 106
13, 21664, Note_on_c, 13, 55, 0
13, 21724, Note_on_c, 13, 55, 106
13, 21784, Note_on_c, 13, 55, 0
13, 21844, Note_on_c, 13, 55, 106
13, 21904, Note_on_c, 13, 55, 0
13, 21964, Note_on_c, 13, 55, 106
13, 22024, Note_on_c, 13, 55, 0
13, 22084, Note_on_c, 13, 55, 106
13, 22144, Note_on_c, 13, 55, 0
13, 22204, Note_on_c, 13, 55, 106
13, 22264, Note_on_c, 13, 55, 0
13, 22324, Note_on_c, 13, 55, 106
13, 22369, Note_on_c, 13, 55, 0
13, 22384, Note_on_c, 13, 55, 106
13, 22429, Note_on_c, 13, 55, 0
13, 22444, Note_on_c, 13, 55, 106
13, 22489, Note_on_c, 13, 55, 0
13, 22504, Note_on_c, 13, 48, 91
13, 22539, Control_c, 13, 11, 37
13, 22546, Control_c, 13, 11, 34
13, 22553, Control_c, 13, 11, 31
13, 22560, Control_c, 13, 11, 28
13, 22564, Note_on_c, 13, 48, 0
13, 22804, Note_on_c, 13, 55, 82
13, 22804, Control_c, 13, 11, 37
13, 22822, Control_c, 13, 11, 40
13, 22840, Control_c, 13, 11, 43
13, 22858, Control_c, 13, 11, 46
13, 22864, Note_on_c, 13, 55, 0
13, 22864, Note_on_c, 13, 60, 106
13, 22894, Note_on_c, 13, 60, 0
13, 22924, Note_on_c, 13, 48, 101
13, 22954, Note_on_c, 13, 48, 0
13, 22984, Note_on_c, 13, 48, 87
13, 23014, Note_on_c, 13, 48, 0
13, 23044, Note_on_c, 13, 48, 82
13, 23079, Control_c, 13, 11, 47
13, 23086, Control_c, 13, 11, 44
13, 23093, Control_c, 13, 11, 41
13, 23100, Control_c, 13, 11, 38
13, 23104, Note_on_c, 13, 48, 0
13, 23884, Note_on_c, 13, 56, 94
13, 23884, Control_c, 13, 11, 32
13, 23896, Control_c, 13, 11, 35
13, 23908, Control_c, 13, 11, 38
13, 23920, Control_c, 13, 11, 41
13, 23932, Control_c, 13, 11, 44
13, 23944, Note_on_c, 13, 56, 0
13, 23944, Control_c, 13, 11, 47
13, 23944, Note_on_c, 13, 51, 106
13, 24004, Note_on_c, 13, 51, 0
13, 24064, Control_c, 13, 11, 52
13, 24064, Note_on_c, 13, 48, 95
13, 24073, Control_c, 13, 11, 55
13, 24082, Control_c, 13, 11, 58
13, 24091, Control_c, 13, 11, 61
13, 24100, Control_c, 13, 11, 64
13, 24109, Control_c, 13, 11, 67
13, 24118, Control_c, 13, 11, 70
13, 24124, Note_on_c, 13, 48, 0
13, 24124, Note_on_c, 13, 44, 106
13, 24184, Note_on_c, 13, 44, 0
13, 24244, Control_c, 13, 11, 87
13, 24244, Note_on_c, 13, 44, 73
13, 24256, Control_c, 13, 11, 90
13, 24268, Control_c, 13, 11, 93
13, 24280, Control_c, 13, 11, 96
13, 24292, Control_c, 13, 11, 99
13, 24304, Note_on_c, 13, 44, 0
13, 24304, Note_on_c, 13, 49, 66
13, 24304, Control_c, 13, 11, 102
13, 24313, Control_c, 13, 11, 99
13, 24323, Control_c, 13, 11, 96
13, 24331, Note_on_c, 13, 49, 0
13, 24333, Control_c, 13, 11, 93
13, 24343, Control_c, 13, 11, 90
13, 24349, Note_on_c, 13, 49, 66
13, 24353, Control_c, 13, 11, 87
13, 24358, Note_on_c, 13, 49, 0
13, 24362, Control_c, 13, 11, 84
13, 24364, Note_on_c, 13, 49, 64
13, 24372, Control_c, 13, 11, 81
13, 24382, Control_c, 13, 11, 78
13, 24391, Note_on_c, 13, 49, 0
13, 24392, Control_c, 13, 11, 75
13, 24402, Control_c, 13, 11, 72
13, 24409, Note_on_c, 13, 49, 58
13, 24412, Control_c, 13, 11, 69
13, 24418, Note_on_c, 13, 49, 0
13, 24421, Control_c, 13, 11, 66
13, 24424, Note_on_c, 13, 49, 58
13, 24431, Control_c, 13, 11, 63
13, 24441, Control_c, 13, 11, 60
13, 24451, Note_on_c, 13, 49, 0
13, 24451, Control_c, 13, 11, 57
13, 24461, Control_c, 13, 11, 54
13, 24469, Note_on_c, 13, 49, 52
13, 24470, Control_c, 13, 11, 51
13, 24478, Note_on_c, 13, 49, 0
13, 24480, Control_c, 13, 11, 48
13, 24484, Note_on_c, 13, 49, 50
13, 24511, Note_on_c, 13, 49, 0
13, 24529, Note_on_c, 13, 49, 50
13, 24538, Note_on_c, 13, 49, 0
13, 24544, Note_on_c, 13, 49, 50
13, 24571, Note_on_c, 13, 49, 0
13, 24589, Note_on_c, 13, 49, 50
13, 24598, Note_on_c, 13, 49, 0
13, 24604, Note_on_c, 13, 49, 50
13, 24631, Note_on_c, 13, 49, 0
13, 24649, Note_on_c, 13, 49, 65
13, 24658, Note_on_c, 13, 49, 0
13, 24664, Note_on_c, 13, 48, 66
13, 24664, Control_c, 13, 11, 67
13, 24667, Control_c, 13, 11, 70
13, 24670, Control_c, 13, 11, 73
13, 24673, Control_c, 13, 11, 76
13, 24679, Control_c, 13, 11, 73
13, 24683, Control_c, 13, 11, 70
13, 24686, Control_c, 13, 11, 67
13, 24689, Control_c, 13, 11, 64
13, 24691, Note_on_c, 13, 48, 0
13, 24693, Control_c, 13, 11, 61
13, 24696, Control_c, 13, 11, 58
13, 24700, Control_c, 13, 11, 55
13, 24703, Control_c, 13, 11, 52
13, 24706, Control_c, 13, 11, 49
13, 24709, Note_on_c, 13, 48, 50
13, 24718, Note_on_c, 13, 48, 0
13, 24724, Note_on_c, 13, 48, 50
13, 24751, Note_on_c, 13, 48, 0
13, 24769, Note_on_c, 13, 48, 50
13, 24778, Note_on_c, 13, 48, 0
13, 24784, Note_on_c, 13, 48, 50
13, 24811, Note_on_c, 13, 48, 0
13, 24829, Note_on_c, 13, 48, 50
13, 24838, Note_on_c, 13, 48, 0
13, 24844, Note_on_c, 13, 48, 50
13, 24871, Note_on_c, 13, 48, 0
13, 24889, Note_on_c, 13, 48, 50
13, 24898, Note_on_c, 13, 48, 0
13, 24904, Note_on_c, 13, 48, 50
13, 24931, Note_on_c, 13, 48, 0
13, 24949, Note_on_c, 13, 48, 50
13, 24958, Note_on_c, 13, 48, 0
13, 24964, Note_on_c, 13, 48, 50
13, 24991, Note_on_c, 13, 48, 0
13, 25009, Note_on_c, 13, 48, 66
13, 25018, Note_on_c, 13, 48, 0
13, 25024, Note_on_c, 13, 49, 66
13, 25024, Control_c, 13, 11, 67
13, 25027, Control_c, 13, 11, 70
13, 25030, Control_c, 13, 11, 73
13, 25033, Control_c, 13, 11, 76
13, 25039, Control_c, 13, 11, 73
13, 25043, Control_c, 13, 11, 70
13, 25046, Control_c, 13, 11, 67
13, 25049, Control_c, 13, 11, 64
13, 25051, Note_on_c, 13, 49, 0
13, 25053, Control_c, 13, 11, 61
13, 25056, Control_c, 13, 11, 58
13, 25060, Control_c, 13, 11, 55
13, 25063, Control_c, 13, 11, 52
13, 25066, Control_c, 13, 11, 49
13, 25069, Note_on_c, 13, 49, 50
13, 25078, Note_on_c, 13, 49, 0
13, 25084, Note_on_c, 13, 49, 50
13, 25111, Note_on_c, 13, 49, 0
13, 25129, Note_on_c, 13, 49, 50
13, 25138, Note_on_c, 13, 49, 0
13, 25144, Note_on_c, 13, 49, 50
13, 25171, Note_on_c, 13, 49, 0
13, 25189, Note_on_c, 13, 49, 50
13, 25198, Note_on_c, 13, 49, 0
13, 25204, Note_on_c, 13, 49, 50
13, 25231, Note_on_c, 13, 49, 0
13, 25249, Note_on_c, 13, 49, 50
13, 25258, Note_on_c, 13, 49, 0
13, 25264, Note_on_c, 13, 49, 50
13, 25291, Note_on_c, 13, 49, 0
13, 25309, Note_on_c, 13, 49, 50
13, 25318, Note_on_c, 13, 49, 0
13, 25324, Note_on_c, 13, 49, 50
13, 25351, Note_on_c, 13, 49, 0
13, 25369, Note_on_c, 13, 49, 66
13, 25378, Note_on_c, 13, 49, 0
13, 25384, Control_c, 13, 11, 67
13, 25384, Note_on_c, 13, 48, 66
13, 25387, Control_c, 13, 11, 70
13, 25390, Control_c, 13, 11, 73
13, 25393, Control_c, 13, 11, 76
13, 25399, Control_c, 13, 11, 73
13, 25403, Control_c, 13, 11, 70
13, 25406, Control_c, 13, 11, 67
13, 25409, Control_c, 13, 11, 64
13, 25411, Note_on_c, 13, 48, 0
13, 25413, Control_c, 13, 11, 61
13, 25416, Control_c, 13, 11, 58
13, 25420, Control_c, 13, 11, 55
13, 25423, Control_c, 13, 11, 52
13, 25426, Control_c, 13, 11, 49
13, 25429, Note_on_c, 13, 48, 50
13, 25438, Note_on_c, 13, 48, 0
13, 25444, Note_on_c, 13, 48, 50
13, 25471, Note_on_c, 13, 48, 0
13, 25489, Note_on_c, 13, 48, 50
13, 25498, Note_on_c, 13, 48, 0
13, 25504, Note_on_c, 13, 48, 50
13, 25531, Note_on_c, 13, 48, 0
13, 25549, Note_on_c, 13, 48, 50
13, 25558, Note_on_c, 13, 48, 0
13, 25564, Note_on_c, 13, 48, 50
13, 25591, Note_on_c, 13, 48, 0
13, 25609, Note_on_c, 13, 48, 50
13, 25618, Note_on_c, 13, 48, 0
13, 25624, Note_on_c, 13, 48, 50
13, 25651, Note_on_c, 13, 48, 0
13, 25669, Note_on_c, 13, 48, 50
13, 25678, Note_on_c, 13, 48, 0
13, 25684, Note_on_c, 13, 48, 50
13, 25711, Note_on_c, 13, 48, 0
13, 25729, Note_on_c, 13, 48, 66
13, 25738, Note_on_c, 13, 48, 0
13, 25744, Note_on_c, 13, 46, 66
13, 25744, Control_c, 13, 11, 67
13, 25747, Control_c, 13, 11, 70
13, 25750, Control_c, 13, 11, 73
13, 25753, Control_c, 13, 11, 76
13, 25759, Control_c, 13, 11, 73
13, 25763, Control_c, 13, 11, 70
13, 25766, Control_c, 13, 11, 67
13, 25769, Control_c, 13, 11, 64
13, 25771, Note_on_c, 13, 46, 0
13, 25773, Control_c, 13, 11, 61
13, 25776, Control_c, 13, 11, 58
13, 25780, Control_c, 13, 11, 55
13, 25783, Control_c, 13, 11, 52
13, 25786, Control_c, 13, 11, 49
13, 25789, Note_on_c, 13, 46, 66
13, 25798, Note_on_c, 13, 46, 0
13, 25804, Note_on_c, 13, 46, 66
13, 25831, Note_on_c, 13, 46, 0
13, 25849, Note_on_c, 13, 46, 66
13, 25858, Note_on_c, 13, 46, 0
13, 25864, Note_on_c, 13, 46, 66
13, 25891, Note_on_c, 13, 46, 0
13, 25909, Note_on_c, 13, 46, 66
13, 25918, Note_on_c, 13, 46, 0
13, 25924, Control_c, 13, 11, 67
13, 25924, Note_on_c, 13, 49, 66
13, 25927, Control_c, 13, 11, 70
13, 25930, Control_c, 13, 11, 73
13, 25933, Control_c, 13, 11, 76
13, 25939, Control_c, 13, 11, 73
13, 25943, Control_c, 13, 11, 70
13, 25946, Control_c, 13, 11, 67
13, 25949, Control_c, 13, 11, 64
13, 25951, Note_on_c, 13, 49, 0
13, 25953, Control_c, 13, 11, 61
13, 25956, Control_c, 13, 11, 58
13, 25960, Control_c, 13, 11, 55
13, 25963, Control_c, 13, 11, 52
13, 25966, Control_c, 13, 11, 49
13, 25969, Note_on_c, 13, 49, 66
13, 25978, Note_on_c, 13, 49, 0
13, 25984, Note_on_c, 13, 49, 66
13, 26011, Note_on_c, 13, 49, 0
13, 26029, Note_on_c, 13, 49, 66
13, 26038, Note_on_c, 13, 49, 0
13, 26044, Note_on_c, 13, 49, 66
13, 26071, Note_on_c, 13, 49, 0
13, 26089, Note_on_c, 13, 49, 66
13, 26098, Note_on_c, 13, 49, 0
13, 26104, Note_on_c, 13, 48, 66
13, 26164, Note_on_c, 13, 48, 0
13, 26404, Control_c, 13, 11, 72
13, 26404, Note_on_c, 13, 53, 106
13, 26416, Control_c, 13, 11, 75
13, 26428, Control_c, 13, 11, 78
13, 26440, Control_c, 13, 11, 81
13, 26452, Control_c, 13, 11, 84
13, 26464, Note_on_c, 13, 53, 0
13, 26464, Note_on_c, 13, 48, 106
13, 26464, Control_c, 13, 11, 87
13, 26494, Note_on_c, 13, 48, 0
13, 26524, Note_on_c, 13, 48, 106
13, 26554, Note_on_c, 13, 48, 0
13, 26764, Control_c, 13, 11, 72
13, 26764, Note_on_c, 13, 53, 106
13, 26776, Control_c, 13, 11, 75
13, 26788, Control_c, 13, 11, 78
13, 26800, Control_c, 13, 11, 81
13, 26812, Control_c, 13, 11, 84
13, 26824, Note_on_c, 13, 53, 0
13, 26824, Control_c, 13, 11, 87
13, 26824, Note_on_c, 13, 48, 106
13, 26854, Note_on_c, 13, 48, 0
13, 27064, Note_on_c, 13, 60, 106
13, 27064, Control_c, 13, 11, 37
13, 27082, Control_c, 13, 11, 40
13, 27100, Control_c, 13, 11, 43
13, 27118, Control_c, 13, 11, 46
13, 27119, Note_on_c, 13, 60, 0
13, 27124, Note_on_c, 13, 60, 106
13, 27179, Note_on_c, 13, 60, 0
13, 27184, Note_on_c, 13, 48, 106
13, 27239, Note_on_c, 13, 48, 0
13, 27424, Note_on_c, 13, 60, 106
13, 27479, Note_on_c, 13, 60, 0
13, 27484, Note_on_c, 13, 60, 106
13, 27539, Note_on_c, 13, 60, 0
13, 27544, Note_on_c, 13, 48, 106
13, 27604, Note_on_c, 13, 48, 0
13, 27784, Note_on_c, 13, 60, 106
13, 27814, Note_on_c, 13, 60, 0
13, 27844, Note_on_c, 13, 60, 106
13, 27874, Note_on_c, 13, 60, 0
13, 27904, Note_on_c, 13, 60, 106
13, 27904, Control_c, 13, 11, 47
13, 27922, Control_c, 13, 11, 49
13, 27934, Note_on_c, 13, 60, 0
13, 27940, Control_c, 13, 11, 51
13, 27958, Control_c, 13, 11, 53
13, 27964, Note_on_c, 13, 57, 106
13, 27976, Control_c, 13, 11, 55
13, 27994, Note_on_c, 13, 57, 0
13, 27994, Control_c, 13, 11, 57
13, 28012, Control_c, 13, 11, 59
13, 28024, Note_on_c, 13, 58, 106
13, 28030, Control_c, 13, 11, 61
13, 28048, Control_c, 13, 11, 63
13, 28054, Note_on_c, 13, 58, 0
13, 28066, Control_c, 13, 11, 65
13, 28084, Control_c, 13, 11, 67
13, 28084, Note_on_c, 13, 55, 106
13, 28102, Control_c, 13, 11, 69
13, 28114, Note_on_c, 13, 55, 0
13, 28120, Control_c, 13, 11, 71
13, 28138, Control_c, 13, 11, 73
13, 28144, Note_on_c, 13, 56, 106
13, 28156, Control_c, 13, 11, 75
13, 28174, Note_on_c, 13, 56, 0
13, 28174, Control_c, 13, 11, 77
13, 28192, Control_c, 13, 11, 79
13, 28204, Note_on_c, 13, 57, 106
13, 28210, Control_c, 13, 11, 81
13, 28228, Control_c, 13, 11, 83
13, 28234, Note_on_c, 13, 57, 0
13, 28246, Control_c, 13, 11, 85
13, 28264, Note_on_c, 13, 58, 106
13, 28264, Control_c, 13, 11, 87
13, 28424, Control_c, 13, 11, 87
13, 28425, Control_c, 13, 11, 84
13, 28427, Control_c, 13, 11, 80
13, 28429, Control_c, 13, 11, 76
13, 28431, Control_c, 13, 11, 72
13, 28433, Control_c, 13, 11, 68
13, 28434, Control_c, 13, 11, 65
13, 28436, Control_c, 13, 11, 61
13, 28438, Control_c, 13, 11, 57
13, 28440, Control_c, 13, 11, 53
13, 28442, Control_c, 13, 11, 49
13, 28444, Note_on_c, 13, 58, 0
13, 28624, Control_c, 13, 11, 87
13, 28624, Note_on_c, 13, 48, 106
13, 28784, Control_c, 13, 11, 87
13, 28785, Control_c, 13, 11, 84
13, 28787, Control_c, 13, 11, 80
13, 28789, Control_c, 13, 11, 76
13, 28791, Control_c, 13, 11, 72
13, 28793, Control_c, 13, 11, 68
13, 28794, Control_c, 13, 11, 65
13, 28796, Control_c, 13, 11, 61
13, 28798, Control_c, 13, 11, 57
13, 28800, Control_c, 13, 11, 53
13, 28802, Control_c, 13, 11, 49
13, 28804, Note_on_c, 13, 48, 0
13, 29734, Note_on_c, 13, 57, 106
13, 29734, Control_c, 13, 11, 37
13, 29742, Note_on_c, 13, 57, 0
13, 29749, Note_on_c, 13, 58, 106
13, 29757, Note_on_c, 13, 58, 0
13, 29764, Note_on_c, 13, 60, 106
13, 29779, Note_on_c, 13, 60, 0
13, 29794, Note_on_c, 13, 58, 106
13, 29809, Note_on_c, 13, 58, 0
13, 29824, Note_on_c, 13, 57, 106
13, 29839, Note_on_c, 13, 57, 0
13, 29854, Note_on_c, 13, 55, 106
13, 29869, Note_on_c, 13, 55, 0
13, 29884, Note_on_c, 13, 53, 106
13, 29899, Note_on_c, 13, 53, 0
13, 29914, Note_on_c, 13, 52, 106
13, 29929, Note_on_c, 13, 52, 0
13, 29944, Note_on_c, 13, 50, 106
13, 29959, Note_on_c, 13, 50, 0
13, 29974, Note_on_c, 13, 48, 106
13, 29989, Note_on_c, 13, 48, 0
13, 30004, Note_on_c, 13, 46, 106
13, 30019, Note_on_c, 13, 46, 0
13, 30034, Note_on_c, 13, 45, 106
13, 30049, Note_on_c, 13, 45, 0
13, 30064, Note_on_c, 13, 43, 106
13, 30079, Note_on_c, 13, 43, 0
13, 30094, Note_on_c, 13, 42, 106
13, 30109, Note_on_c, 13, 42, 0
13, 30124, Control_c, 13, 11, 37
13, 30124, Note_on_c, 13, 43, 106
13, 30139, Note_on_c, 13, 43, 0
13, 30148, Control_c, 13, 11, 39
13, 30154, Note_on_c, 13, 45, 106
13, 30169, Note_on_c, 13, 45, 0
13, 30172, Control_c, 13, 11, 41
13, 30184, Note_on_c, 13, 46, 106
13, 30196, Control_c, 13, 11, 43
13, 30199, Note_on_c, 13, 46, 0
13, 30214, Note_on_c, 13, 47, 106
13, 30220, Control_c, 13, 11, 45
13, 30229, Note_on_c, 13, 47, 0
13, 30244, Note_on_c, 13, 48, 106
13, 30244, Control_c, 13, 11, 47
13, 30259, Note_on_c, 13, 48, 0
13, 30274, Note_on_c, 13, 55, 106
13, 30289, Note_on_c, 13, 55, 0
13, 30304, Note_on_c, 13, 57, 106
13, 30319, Note_on_c, 13, 57, 0
13, 30334, Note_on_c, 13, 59, 106
13, 30349, Note_on_c, 13, 59, 0
13, 30364, Control_c, 13, 11, 37
13, 30364, Note_on_c, 13, 60, 106
13, 30379, Note_on_c, 13, 60, 0
13, 30388, Control_c, 13, 11, 38
13, 30394, Note_on_c, 13, 58, 106
13, 30409, Note_on_c, 13, 58, 0
13, 30412, Control_c, 13, 11, 39
13, 30424, Note_on_c, 13, 57, 106
13, 30436, Control_c, 13, 11, 40
13, 30449, Note_on_c, 13, 57, 0
13, 30454, Note_on_c, 13, 48, 106
13, 30460, Control_c, 13, 11, 41
13, 30479, Note_on_c, 13, 48, 0
13, 30484, Note_on_c, 13, 55, 106
13, 30484, Control_c, 13, 11, 42
13, 30508, Control_c, 13, 11, 43
13, 30509, Note_on_c, 13, 55, 0
13, 30514, Note_on_c, 13, 48, 106
13, 30532, Control_c, 13, 11, 44
13, 30539, Note_on_c, 13, 48, 0
13, 30544, Note_on_c, 13, 53, 106
13, 30556, Control_c, 13, 11, 45
13, 30569, Note_on_c, 13, 53, 0
13, 30574, Note_on_c, 13, 48, 106
13, 30580, Control_c, 13, 11, 46
13, 30599, Note_on_c, 13, 48, 0
13, 30604, Note_on_c, 13, 52, 106
13, 30604, Control_c, 13, 11, 47
13, 30629, Note_on_c, 13, 52, 0
13, 30634, Note_on_c, 13, 48, 106
13, 30659, Note_on_c, 13, 48, 0
13, 30664, Note_on_c, 13, 52, 106
13, 30689, Note_on_c, 13, 52, 0
13, 30694, Note_on_c, 13, 48, 106
13, 30719, Note_on_c, 13, 48, 0
13, 30724, Note_on_c, 13, 53, 106
13, 30749, Note_on_c, 13, 53, 0
13, 30754, Note_on_c, 13, 48, 106
13, 30779, Note_on_c, 13, 48, 0
13, 30784, Control_c, 13, 11, 32
13, 30784, Note_on_c, 13, 52, 106
13, 30809, Note_on_c, 13, 52, 0
13, 30814, Note_on_c, 13, 48, 106
13, 30839, Note_on_c, 13, 48, 0
13, 30844, Note_on_c, 13, 52, 106
13, 30869, Note_on_c, 13, 52, 0
13, 30874, Note_on_c, 13, 55, 106
13, 30899, Note_on_c, 13, 55, 0
13, 30904, Note_on_c, 13, 60, 106
13, 30964, Note_on_c, 13, 60, 0
13, 31024, Control_c, 13, 11, 37
13, 31024, Note_on_c, 13, 60, 106
13, 31084, Note_on_c, 13, 60, 0
13, 31204, Note_on_c, 13, 43, 106
13, 31264, Note_on_c, 13, 43, 0
13, 31324, Note_on_c, 13, 43, 106
13, 31384, Note_on_c, 13, 43, 0
13, 31444, Note_on_c, 13, 43, 106
13, 31504, Note_on_c, 13, 43, 0
13, 31504, Note_on_c, 13, 48, 106
13, 31547, Note_on_c, 13, 48, 0
13, 31564, Note_on_c, 13, 48, 106
13, 31607, Note_on_c, 13, 48, 0
13, 31624, Note_on_c, 13, 48, 106
13, 31684, Note_on_c, 13, 48, 0
13, 31684, Note_on_c, 13, 52, 106
13, 31727, Note_on_c, 13, 52, 0
13, 31744, Note_on_c, 13, 52, 106
13, 31787, Note_on_c, 13, 52, 0
13, 31804, Note_on_c, 13, 55, 106
13, 31864, Note_on_c, 13, 55, 0
13, 31864, Note_on_c, 13, 53, 106
13, 31879, Note_on_c, 13, 53, 0
13, 31894, Note_on_c, 13, 57, 106
13, 31909, Note_on_c, 13, 57, 0
13, 31909, Note_on_c, 13, 58, 106
13, 31919, Note_on_c, 13, 58, 0
13, 31924, Note_on_c, 13, 60, 106
13, 31939, Note_on_c, 13, 60, 0
13, 31954, Note_on_c, 13, 58, 106
13, 31969, Note_on_c, 13, 58, 0
13, 31984, Note_on_c, 13, 57, 106
13, 31999, Note_on_c, 13, 57, 0
13, 32014, Note_on_c, 13, 55, 106
13, 32029, Note_on_c, 13, 55, 0
13, 32044, Note_on_c, 13, 53, 106
13, 32059, Note_on_c, 13, 53, 0
13, 32074, Note_on_c, 13, 52, 106
13, 32089, Note_on_c, 13, 52, 0
13, 32104, Note_on_c, 13, 50, 106
13, 32119, Note_on_c, 13, 50, 0
13, 32134, Note_on_c, 13, 48, 106
13, 32149, Note_on_c, 13, 48, 0
13, 32164, Note_on_c, 13, 46, 106
13, 32179, Note_on_c, 13, 46, 0
13, 32194, Note_on_c, 13, 45, 106
13, 32209, Note_on_c, 13, 45, 0
13, 32224, Note_on_c, 13, 43, 106
13, 32239, Note_on_c, 13, 43, 0
13, 32254, Note_on_c, 13, 42, 106
13, 32269, Note_on_c, 13, 42, 0
13, 32284, Note_on_c, 13, 43, 106
13, 32299, Note_on_c, 13, 43, 0
13, 32314, Note_on_c, 13, 45, 106
13, 32329, Note_on_c, 13, 45, 0
13, 32344, Note_on_c, 13, 46, 106
13, 32359, Note_on_c, 13, 46, 0
13, 32374, Note_on_c, 13, 47, 106
13, 32389, Note_on_c, 13, 47, 0
13, 32404, Note_on_c, 13, 48, 106
13, 32419, Note_on_c, 13, 48, 0
13, 32434, Note_on_c, 13, 55, 106
13, 32449, Note_on_c, 13, 55, 0
13, 32464, Note_on_c, 13, 57, 106
13, 32479, Note_on_c, 13, 57, 0
13, 32494, Note_on_c, 13, 59, 106
13, 32509, Note_on_c, 13, 59, 0
13, 32524, Note_on_c, 13, 60, 106
13, 32539, Note_on_c, 13, 60, 0
13, 32554, Note_on_c, 13, 58, 106
13, 32569, Note_on_c, 13, 58, 0
13, 32584, Control_c, 13, 11, 37
13, 32584, Note_on_c, 13, 57, 106
13, 32606, Note_on_c, 13, 57, 0
13, 32608, Control_c, 13, 11, 38
13, 32614, Note_on_c, 13, 48, 106
13, 32632, Control_c, 13, 11, 39
13, 32636, Note_on_c, 13, 48, 0
13, 32644, Note_on_c, 13, 55, 106
13, 32656, Control_c, 13, 11, 40
13, 32666, Note_on_c, 13, 55, 0
13, 32674, Note_on_c, 13, 48, 106
13, 32680, Control_c, 13, 11, 41
13, 32696, Note_on_c, 13, 48, 0
13, 32704, Note_on_c, 13, 53, 106
13, 32704, Control_c, 13, 11, 42
13, 32726, Note_on_c, 13, 53, 0
13, 32728, Control_c, 13, 11, 43
13, 32734, Note_on_c, 13, 48, 106
13, 32752, Control_c, 13, 11, 44
13, 32756, Note_on_c, 13, 48, 0
13, 32764, Note_on_c, 13, 52, 106
13, 32776, Control_c, 13, 11, 45
13, 32786, Note_on_c, 13, 52, 0
13, 32794, Note_on_c, 13, 55, 106
13, 32800, Control_c, 13, 11, 46
13, 32816, Note_on_c, 13, 55, 0
13, 32824, Note_on_c, 13, 52, 106
13, 32824, Control_c, 13, 11, 47
13, 32846, Note_on_c, 13, 52, 0
13, 32848, Control_c, 13, 11, 48
13, 32854, Note_on_c, 13, 48, 106
13, 32872, Control_c, 13, 11, 49
13, 32876, Note_on_c, 13, 48, 0
13, 32884, Note_on_c, 13, 53, 106
13, 32896, Control_c, 13, 11, 50
13, 32906, Note_on_c, 13, 53, 0
13, 32914, Note_on_c, 13, 57, 106
13, 32920, Control_c, 13, 11, 51
13, 32936, Note_on_c, 13, 57, 0
13, 32944, Control_c, 13, 11, 52
13, 32944, Note_on_c, 13, 48, 106
13, 32966, Note_on_c, 13, 48, 0
13, 32974, Note_on_c, 13, 60, 106
13, 32996, Note_on_c, 13, 60, 0
13, 33004, Note_on_c, 13, 60, 106
13, 33026, Note_on_c, 13, 60, 0
13, 33034, Note_on_c, 13, 60, 106
13, 33056, Note_on_c, 13, 60, 0
13, 33064, Note_on_c, 13, 58, 106
13, 33086, Note_on_c, 13, 58, 0
13, 33094, Note_on_c, 13, 60, 106
13, 33116, Note_on_c, 13, 60, 0
13, 33124, Control_c, 13, 11, 72
13, 33124, Note_on_c, 13, 57, 106
13, 33133, Control_c, 13, 11, 69
13, 33142, Control_c, 13, 11, 66
13, 33146, Note_on_c, 13, 57, 0
13, 33151, Control_c, 13, 11, 63
13, 33154, Note_on_c, 13, 60, 106
13, 33160, Control_c, 13, 11, 60
13, 33169, Control_c, 13, 11, 57
13, 33176, Note_on_c, 13, 60, 0
13, 33178, Control_c, 13, 11, 54
13, 33184, Note_on_c, 13, 60, 106
13, 33206, Note_on_c, 13, 60, 0
13, 33214, Note_on_c, 13, 60, 106
13, 33236, Note_on_c, 13, 60, 0
13, 33244, Note_on_c, 13, 57, 106
13, 33266, Note_on_c, 13, 57, 0
13, 33274, Note_on_c, 13, 53, 106
13, 33296, Note_on_c, 13, 53, 0
13, 33304, Note_on_c, 13, 48, 106
13, 33326, Note_on_c, 13, 48, 0
13, 33334, Note_on_c, 13, 60, 106
13, 33356, Note_on_c, 13, 60, 0
13, 33364, Note_on_c, 13, 60, 106
13, 33386, Note_on_c, 13, 60, 0
13, 33394, Note_on_c, 13, 60, 106
13, 33416, Note_on_c, 13, 60, 0
13, 33424, Note_on_c, 13, 58, 106
13, 33446, Note_on_c, 13, 58, 0
13, 33454, Note_on_c, 13, 60, 106
13, 33476, Note_on_c, 13, 60, 0
13, 33484, Note_on_c, 13, 57, 106
13, 33484, Control_c, 13, 11, 72
13, 33493, Control_c, 13, 11, 69
13, 33502, Control_c, 13, 11, 66
13, 33506, Note_on_c, 13, 57, 0
13, 33511, Control_c, 13, 11, 63
13, 33514, Note_on_c, 13, 60, 106
13, 33520, Control_c, 13, 11, 60
13, 33529, Control_c, 13, 11, 57
13, 33536, Note_on_c, 13, 60, 0
13, 33538, Control_c, 13, 11, 54
13, 33544, Note_on_c, 13, 60, 106
13, 33566, Note_on_c, 13, 60, 0
13, 33574, Note_on_c, 13, 60, 106
13, 33596, Note_on_c, 13, 60, 0
13, 33604, Note_on_c, 13, 57, 106
13, 33626, Note_on_c, 13, 57, 0
13, 33634, Note_on_c, 13, 53, 106
13, 33656, Note_on_c, 13, 53, 0
13, 33664, Note_on_c, 13, 48, 106
13, 33686, Note_on_c, 13, 48, 0
13, 33694, Note_on_c, 13, 48, 106
13, 33716, Note_on_c, 13, 48, 0
13, 33724, Note_on_c, 13, 52, 106
13, 33724, Control_c, 13, 11, 82
13, 33733, Control_c, 13, 11, 79
13, 33742, Control_c, 13, 11, 76
13, 33746, Note_on_c, 13, 52, 0
13, 33751, Control_c, 13, 11, 73
13, 33754, Note_on_c, 13, 48, 106
13, 33760, Control_c, 13, 11, 70
13, 33769, Control_c, 13, 11, 67
13, 33776, Note_on_c, 13, 48, 0
13, 33778, Control_c, 13, 11, 64
13, 33784, Note_on_c, 13, 53, 106
13, 33806, Note_on_c, 13, 53, 0
13, 33814, Note_on_c, 13, 57, 106
13, 33836, Note_on_c, 13, 57, 0
13, 33844, Note_on_c, 13, 60, 106
13, 33866, Note_on_c, 13, 60, 0
13, 33874, Note_on_c, 13, 48, 106
13, 33896, Note_on_c, 13, 48, 0
13, 33904, Control_c, 13, 11, 87
13, 33904, Note_on_c, 13, 48, 106
13, 33922, Control_c, 13, 11, 84
13, 33926, Note_on_c, 13, 48, 0
13, 33934, Note_on_c, 13, 48, 106
13, 33940, Control_c, 13, 11, 81
13, 33956, Note_on_c, 13, 48, 0
13, 33958, Control_c, 13, 11, 78
13, 33964, Note_on_c, 13, 53, 106
13, 33986, Note_on_c, 13, 53, 0
13, 33994, Control_c, 13, 11, 77
13, 33994, Note_on_c, 13, 57, 106
13, 34003, Control_c, 13, 11, 80
13, 34012, Control_c, 13, 11, 83
13, 34016, Note_on_c, 13, 57, 0
13, 34021, Control_c, 13, 11, 86
13, 34024, Note_on_c, 13, 60, 106
13, 34054, Note_on_c, 13, 60, 0
13, 34084, Note_on_c, 13, 48, 96
13, 34114, Note_on_c, 13, 48, 0
13, 34144, Note_on_c, 13, 48, 93
13, 34174, Note_on_c, 13, 48, 0
13, 34204, Note_on_c, 13, 48, 81
13, 34234, Control_c, 13, 11, 87
13, 34238, Control_c, 13, 11, 84
13, 34242, Control_c, 13, 11, 81
13, 34247, Control_c, 13, 11, 78
13, 34251, Control_c, 13, 11, 75
13, 34255, Control_c, 13, 11, 72
13, 34260, Control_c, 13, 11, 69
13, 34264, Note_on_c, 13, 48, 0
13, 34444, Control_c, 13, 11, 37
13, 34444, Note_on_c, 13, 66, 91
13, 34462, Control_c, 13, 11, 40
13, 34474, Note_on_c, 13, 66, 0
13, 34480, Control_c, 13, 11, 43
13, 34498, Control_c, 13, 11, 46
13, 34504, Note_on_c, 13, 62, 91
13, 34534, Note_on_c, 13, 62, 0
13, 34564, Note_on_c, 13, 67, 91
13, 34594, Note_on_c, 13, 67, 0
13, 34624, Note_on_c, 13, 55, 91
13, 34654, Note_on_c, 13, 55, 0
13, 34804, Note_on_c, 13, 64, 91
13, 34804, Control_c, 13, 11, 37
13, 34822, Control_c, 13, 11, 40
13, 34834, Note_on_c, 13, 64, 0
13, 34840, Control_c, 13, 11, 43
13, 34858, Control_c, 13, 11, 46
13, 34864, Note_on_c, 13, 60, 91
13, 34894, Note_on_c, 13, 60, 0
13, 34924, Note_on_c, 13, 65, 91
13, 34954, Note_on_c, 13, 65, 0
13, 34984, Note_on_c, 13, 53, 91
13, 35014, Note_on_c, 13, 53, 0
13, 35104, Control_c, 13, 11, 37
13, 35104, Note_on_c, 13, 57, 106
13, 35134, Note_on_c, 13, 57, 0
13, 35164, Control_c, 13, 11, 42
13, 35164, Note_on_c, 13, 69, 91
13, 35180, Control_c, 13, 11, 43
13, 35196, Control_c, 13, 11, 44
13, 35209, Note_on_c, 13, 69, 0
13, 35212, Control_c, 13, 11, 45
13, 35224, Note_on_c, 13, 69, 106
13, 35228, Control_c, 13, 11, 46
13, 35244, Control_c, 13, 11, 47
13, 35260, Control_c, 13, 11, 48
13, 35269, Note_on_c, 13, 69, 0
13, 35276, Control_c, 13, 11, 49
13, 35284, Note_on_c, 13, 69, 106
13, 35292, Control_c, 13, 11, 50
13, 35308, Control_c, 13, 11, 51
13, 35324, Control_c, 13, 11, 52
13, 35340, Control_c, 13, 11, 53
13, 35344, Note_on_c, 13, 69, 0
13, 35344, Note_on_c, 13, 67, 106
13, 35356, Control_c, 13, 11, 54
13, 35372, Control_c, 13, 11, 55
13, 35388, Control_c, 13, 11, 56
13, 35404, Note_on_c, 13, 67, 0
13, 35404, Note_on_c, 13, 65, 106
13, 35404, Control_c, 13, 11, 57
13, 35416, Control_c, 13, 11, 54
13, 35428, Control_c, 13, 11, 51
13, 35440, Control_c, 13, 11, 48
13, 35452, Control_c, 13, 11, 45
13, 35461, Note_on_c, 13, 65, 0
13, 35464, Control_c, 13, 11, 42
13, 35464, Note_on_c, 13, 64, 106
13, 35524, Note_on_c, 13, 64, 0
13, 35524, Note_on_c, 13, 60, 106
13, 35584, Note_on_c, 13, 60, 0
13, 35584, Note_on_c, 13, 65, 106
13, 35641, Note_on_c, 13, 65, 0
13, 35644, Note_on_c, 13, 60, 106
13, 35674, Note_on_c, 13, 60, 0
13, 35704, Note_on_c, 13, 48, 74
13, 35734, Note_on_c, 13, 48, 0
13, 35884, Note_on_c, 13, 54, 106
13, 35914, Note_on_c, 13, 54, 0
13, 35944, Note_on_c, 13, 50, 106
13, 35974, Note_on_c, 13, 50, 0
13, 36004, Note_on_c, 13, 55, 106
13, 36034, Note_on_c, 13, 55, 0
13, 36064, Note_on_c, 13, 43, 106
13, 36094, Note_on_c, 13, 43, 0
13, 36244, Note_on_c, 13, 52, 106
13, 36274, Note_on_c, 13, 52, 0
13, 36304, Note_on_c, 13, 48, 106
13, 36334, Note_on_c, 13, 48, 0
13, 36364, Note_on_c, 13, 53, 106
13, 36394, Note_on_c, 13, 53, 0
13, 36424, Note_on_c, 13, 41, 106
13, 36454, Note_on_c, 13, 41, 0
13, 36544, Note_on_c, 13, 45, 106
13, 36544, Control_c, 13, 11, 47
13, 36568, Control_c, 13, 11, 49
13, 36574, Note_on_c, 13, 45, 0
13, 36592, Control_c, 13, 11, 51
13, 36604, Note_on_c, 13, 57, 106
13, 36616, Control_c, 13, 11, 53
13, 36634, Note_on_c, 13, 57, 0
13, 36640, Control_c, 13, 11, 55
13, 36664, Note_on_c, 13, 57, 106
13, 36664, Control_c, 13, 11, 57
13, 36688, Control_c, 13, 11, 59
13, 36694, Note_on_c, 13, 57, 0
13, 36712, Control_c, 13, 11, 61
13, 36724, Note_on_c, 13, 58, 106
13, 36844, Note_on_c, 13, 58, 0
13, 36964, Note_on_c, 13, 60, 91
13, 36964, Control_c, 13, 11, 47
13, 36994, Note_on_c, 13, 60, 0
13, 37024, Note_on_c, 13, 48, 91
13, 37054, Note_on_c, 13, 48, 0
13, 37084, Note_on_c, 13, 53, 91
13, 37104, Control_c, 13, 11, 47
13, 37108, Control_c, 13, 11, 44
13, 37113, Control_c, 13, 11, 41
13, 37118, Control_c, 13, 11, 38
13, 37122, Control_c, 13, 11, 35
13, 37127, Control_c, 13, 11, 32
13, 37132, Control_c, 13, 11, 29
13, 37136, Control_c, 13, 11, 26
13, 37141, Control_c, 13, 11, 23
13, 37144, Note_on_c, 13, 53, 0
13, 37189, Note_on_c, 13, 58, 86
13, 37189, Control_c, 13, 11, 47
13, 37197, Note_on_c, 13, 58, 0
13, 37204, Note_on_c, 13, 57, 86
13, 37227, Note_on_c, 13, 57, 0
13, 37249, Note_on_c, 13, 55, 86
13, 37257, Note_on_c, 13, 55, 0
13, 37264, Note_on_c, 13, 53, 86
13, 37294, Note_on_c, 13, 53, 0
13, 37369, Note_on_c, 13, 67, 86
13, 37377, Note_on_c, 13, 67, 0
13, 37384, Note_on_c, 13, 65, 86
13, 37407, Note_on_c, 13, 65, 0
13, 37429, Note_on_c, 13, 61, 86
13, 37437, Note_on_c, 13, 61, 0
13, 37444, Note_on_c, 13, 62, 86
13, 37474, Note_on_c, 13, 62, 0
13, 37549, Note_on_c, 13, 63, 86
13, 37557, Note_on_c, 13, 63, 0
13, 37564, Note_on_c, 13, 62, 86
13, 37587, Note_on_c, 13, 62, 0
13, 37609, Note_on_c, 13, 57, 86
13, 37617, Note_on_c, 13, 57, 0
13, 37624, Note_on_c, 13, 58, 86
13, 37647, Note_on_c, 13, 58, 0
13, 37669, Note_on_c, 13, 55, 106
13, 37677, Note_on_c, 13, 55, 0
13, 37684, Note_on_c, 13, 60, 106
13, 37714, Note_on_c, 13, 60, 0
13, 37744, Note_on_c, 13, 48, 106
13, 37774, Note_on_c, 13, 48, 0
13, 37804, Note_on_c, 13, 53, 106
13, 37864, Note_on_c, 13, 53, 0
13, 37909, Note_on_c, 13, 58, 106
13, 37909, Control_c, 13, 11, 87
13, 37917, Note_on_c, 13, 58, 0
13, 37924, Note_on_c, 13, 57, 106
13, 37947, Note_on_c, 13, 57, 0
13, 37969, Note_on_c, 13, 55, 106
13, 37977, Note_on_c, 13, 55, 0
13, 37984, Note_on_c, 13, 53, 106
13, 38014, Note_on_c, 13, 53, 0
13, 38089, Note_on_c, 13, 55, 106
13, 38097, Note_on_c, 13, 55, 0
13, 38104, Note_on_c, 13, 53, 106
13, 38127, Note_on_c, 13, 53, 0
13, 38149, Note_on_c, 13, 49, 106
13, 38157, Note_on_c, 13, 49, 0
13, 38164, Note_on_c, 13, 50, 106
13, 38194, Note_on_c, 13, 50, 0
13, 38269, Note_on_c, 13, 55, 106
13, 38277, Note_on_c, 13, 55, 0
13, 38284, Note_on_c, 13, 53, 106
13, 38307, Note_on_c, 13, 53, 0
13, 38329, Note_on_c, 13, 49, 106
13, 38337, Note_on_c, 13, 49, 0
13, 38344, Note_on_c, 13, 50, 106
13, 38374, Note_on_c, 13, 50, 0
13, 38404, Control_c, 13, 11, 102
13, 38404, Note_on_c, 13, 60, 106
13, 38415, Control_c, 13, 11, 99
13, 38427, Control_c, 13, 11, 96
13, 38439, Control_c, 13, 11, 93
13, 38451, Control_c, 13, 11, 90
13, 38463, Control_c, 13, 11, 87
13, 38524, Note_on_c, 13, 60, 0
13, 38524, Note_on_c, 13, 58, 106
13, 38554, Note_on_c, 13, 58, 0
13, 38584, Note_on_c, 13, 55, 106
13, 38584, Control_c, 13, 11, 102
13, 38595, Control_c, 13, 11, 99
13, 38607, Control_c, 13, 11, 96
13, 38619, Control_c, 13, 11, 93
13, 38631, Control_c, 13, 11, 90
13, 38643, Control_c, 13, 11, 87
13, 38704, Note_on_c, 13, 55, 0
13, 38704, Note_on_c, 13, 60, 106
13, 38734, Note_on_c, 13, 60, 0
13, 38764, Note_on_c, 13, 57, 106
13, 38764, Control_c, 13, 11, 102
13, 38775, Control_c, 13, 11, 99
13, 38787, Control_c, 13, 11, 96
13, 38799, Control_c, 13, 11, 93
13, 38811, Control_c, 13, 11, 90
13, 38823, Control_c, 13, 11, 87
13, 38884, Note_on_c, 13, 57, 0
13, 38884, Control_c, 13, 11, 87
13, 38884, Note_on_c, 13, 58, 106
13, 38895, Control_c, 13, 11, 84
13, 38907, Control_c, 13, 11, 81
13, 38914, Note_on_c, 13, 58, 0
13, 38919, Control_c, 13, 11, 78
13, 38931, Control_c, 13, 11, 75
13, 38943, Control_c, 13, 11, 72
13, 38944, Note_on_c, 13, 60, 106
13, 38974, Note_on_c, 13, 60, 0
13, 39004, Note_on_c, 13, 48, 106
13, 39004, Control_c, 13, 11, 67
13, 39012, Control_c, 13, 11, 64
13, 39021, Control_c, 13, 11, 61
13, 39030, Control_c, 13, 11, 58
13, 39034, Note_on_c, 13, 48, 0
13, 39039, Control_c, 13, 11, 55
13, 39048, Control_c, 13, 11, 52
13, 39057, Control_c, 13, 11, 49
13, 39064, Note_on_c, 13, 53, 106
13, 39094, Control_c, 13, 11, 47
13, 39099, Control_c, 13, 11, 44
13, 39105, Control_c, 13, 11, 41
13, 39111, Control_c, 13, 11, 38
13, 39117, Control_c, 13, 11, 35
13, 39123, Control_c, 13, 11, 32
13, 39124, Note_on_c, 13, 53, 0
13, 39244, Control_c, 13, 11, 37
13, 39244, Note_on_c, 13, 48, 106
13, 39304, Note_on_c, 13, 48, 0
13, 39364, Note_on_c, 13, 48, 106
13, 39424, Note_on_c, 13, 48, 0
13, 39484, Note_on_c, 13, 48, 106
13, 39544, Note_on_c, 13, 48, 0
13, 39604, Note_on_c, 13, 48, 106
13, 39664, Note_on_c, 13, 48, 0
13, 39724, Note_on_c, 13, 48, 106
13, 39784, Note_on_c, 13, 48, 0
13, 39844, Note_on_c, 13, 48, 106
13, 39904, Note_on_c, 13, 48, 0
13, 39964, Note_on_c, 13, 48, 106
13, 40024, Note_on_c, 13, 48, 0
13, 40084, Note_on_c, 13, 48, 106
13, 40144, Note_on_c, 13, 48, 0
13, 40204, Note_on_c, 13, 48, 106
13, 40264, Note_on_c, 13, 48, 0
13, 40324, Note_on_c, 13, 48, 106
13, 40379, Note_on_c, 13, 48, 0
13, 40384, Note_on_c, 13, 48, 106
13, 40439, Note_on_c, 13, 48, 0
13, 40444, Note_on_c, 13, 48, 106
13, 40499, Note_on_c, 13, 48, 0
13, 40504, Note_on_c, 13, 53, 91
13, 40539, Control_c, 13, 11, 37
13, 40546, Control_c, 13, 11, 34
13, 40553, Control_c, 13, 11, 31
13, 40560, Control_c, 13, 11, 28
13, 40564, Note_on_c, 13, 53, 0
13, 40984, Control_c, 13, 11, 37
13, 40984, Note_on_c, 13, 57, 106
13, 41002, Control_c, 13, 11, 40
13, 41020, Control_c, 13, 11, 43
13, 41038, Control_c, 13, 11, 46
13, 41044, Note_on_c, 13, 57, 0
13, 41044, Note_on_c, 13, 53, 106
13, 41074, Note_on_c, 13, 53, 0
13, 41164, Note_on_c, 13, 53, 106
13, 41224, Note_on_c, 13, 53, 0
13, 41224, Note_on_c, 13, 48, 106
13, 41254, Note_on_c, 13, 48, 0
13, 41344, Note_on_c, 13, 48, 106
13, 41404, Note_on_c, 13, 48, 0
13, 41404, Note_on_c, 13, 60, 106
13, 41434, Note_on_c, 13, 60, 0
13, 41524, Note_on_c, 13, 58, 106
13, 41584, Note_on_c, 13, 58, 0
13, 41584, Note_on_c, 13, 57, 106
13, 41614, Note_on_c, 13, 57, 0
13, 41644, Note_on_c, 13, 55, 106
13, 41674, Note_on_c, 13, 55, 0
13, 41704, Note_on_c, 13, 53, 106
13, 41734, Note_on_c, 13, 53, 0
13, 41764, Note_on_c, 13, 52, 106
13, 41794, Note_on_c, 13, 52, 0
13, 41824, Note_on_c, 13, 48, 106
13, 41854, Note_on_c, 13, 48, 0
13, 41884, Note_on_c, 13, 53, 106
13, 41914, Note_on_c, 13, 53, 0
13, 41944, Control_c, 13, 11, 47
13, 41944, Note_on_c, 13, 48, 106
13, 41968, Control_c, 13, 11, 48
13, 41974, Note_on_c, 13, 48, 0
13, 41992, Control_c, 13, 11, 49
13, 42004, Note_on_c, 13, 48, 106
13, 42016, Control_c, 13, 11, 50
13, 42034, Note_on_c, 13, 48, 0
13, 42040, Control_c, 13, 11, 51
13, 42064, Note_on_c, 13, 48, 106
13, 42064, Control_c, 13, 11, 52
13, 42088, Control_c, 13, 11, 53
13, 42094, Note_on_c, 13, 48, 0
13, 42112, Control_c, 13, 11, 54
13, 42124, Note_on_c, 13, 48, 106
13, 42136, Control_c, 13, 11, 55
13, 42160, Control_c, 13, 11, 56
13, 42184, Control_c, 13, 11, 57
13, 42208, Control_c, 13, 11, 58
13, 42232, Control_c, 13, 11, 59
13, 42244, Note_on_c, 13, 48, 0
13, 42256, Control_c, 13, 11, 60
13, 42280, Control_c, 13, 11, 61
13, 42304, Control_c, 13, 11, 50
13, 42304, Note_on_c, 13, 58, 106
13, 42334, Note_on_c, 13, 58, 0
13, 42364, Note_on_c, 13, 57, 106
13, 42394, Note_on_c, 13, 57, 0
13, 42424, Note_on_c, 13, 55, 106
13, 42454, Note_on_c, 13, 55, 0
13, 42484, Note_on_c, 13, 54, 106
13, 42514, Note_on_c, 13, 54, 0
13, 42544, Note_on_c, 13, 50, 106
13, 42574, Note_on_c, 13, 50, 0
13, 42604, Note_on_c, 13, 55, 106
13, 42634, Note_on_c, 13, 55, 0
13, 42664, Note_on_c, 13, 50, 106
13, 42664, Control_c, 13, 11, 50
13, 42692, Control_c, 13, 11, 52
13, 42694, Note_on_c, 13, 50, 0
13, 42707, Control_c, 13, 11, 53
13, 42724, Note_on_c, 13, 50, 106
13, 42736, Control_c, 13, 11, 55
13, 42754, Note_on_c, 13, 50, 0
13, 42764, Control_c, 13, 11, 57
13, 42779, Control_c, 13, 11, 58
13, 42784, Note_on_c, 13, 50, 106
13, 42808, Control_c, 13, 11, 60
13, 42814, Note_on_c, 13, 50, 0
13, 42836, Control_c, 13, 11, 62
13, 42844, Note_on_c, 13, 50, 106
13, 42851, Control_c, 13, 11, 63
13, 42880, Control_c, 13, 11, 65
13, 42904, Note_on_c, 13, 50, 0
13, 42908, Control_c, 13, 11, 67
13, 42923, Control_c, 13, 11, 68
13, 42952, Control_c, 13, 11, 70
13, 42980, Control_c, 13, 11, 72
13, 42995, Control_c, 13, 11, 73
13, 43024, Note_on_c, 13, 62, 91
13, 43024, Control_c, 13, 11, 87
13, 43084, Note_on_c, 13, 62, 0
13, 43084, Note_on_c, 13, 60, 96
13, 43144, Note_on_c, 13, 60, 0
13, 43144, Note_on_c, 13, 58, 101
13, 43199, Note_on_c, 13, 58, 0
13, 43204, Control_c, 13, 11, 107
13, 43204, Note_on_c, 13, 57, 106
13, 43213, Control_c, 13, 11, 104
13, 43222, Control_c, 13, 11, 101
13, 43231, Control_c, 13, 11, 98
13, 43240, Control_c, 13, 11, 95
13, 43249, Control_c, 13, 11, 92
13, 43258, Control_c, 13, 11, 89
13, 43264, Note_on_c, 13, 57, 0
13, 43264, Note_on_c, 13, 53, 106
13, 43324, Note_on_c, 13, 53, 0
13, 43324, Note_on_c, 13, 58, 106
13, 43379, Note_on_c, 13, 58, 0
13, 43384, Note_on_c, 13, 54, 106
13, 43384, Control_c, 13, 11, 107
13, 43393, Control_c, 13, 11, 104
13, 43402, Control_c, 13, 11, 101
13, 43411, Control_c, 13, 11, 98
13, 43420, Control_c, 13, 11, 95
13, 43429, Control_c, 13, 11, 92
13, 43438, Control_c, 13, 11, 89
13, 43444, Note_on_c, 13, 54, 0
13, 43444, Note_on_c, 13, 50, 106
13, 43504, Note_on_c, 13, 50, 0
13, 43504, Note_on_c, 13, 55, 106
13, 43559, Note_on_c, 13, 55, 0
13, 43564, Note_on_c, 13, 52, 106
13, 43564, Control_c, 13, 11, 107
13, 43573, Control_c, 13, 11, 104
13, 43582, Control_c, 13, 11, 101
13, 43591, Control_c, 13, 11, 98
13, 43600, Control_c, 13, 11, 95
13, 43609, Control_c, 13, 11, 92
13, 43618, Control_c, 13, 11, 89
13, 43624, Note_on_c, 13, 52, 0
13, 43624, Note_on_c, 13, 48, 106
13, 43684, Note_on_c, 13, 48, 0
13, 43684, Note_on_c, 13, 53, 106
13, 43739, Note_on_c, 13, 53, 0
13, 43744, Note_on_c, 13, 58, 106
13, 43744, Control_c, 13, 11, 107
13, 43753, Control_c, 13, 11, 104
13, 43762, Control_c, 13, 11, 101
13, 43771, Control_c, 13, 11, 98
13, 43780, Control_c, 13, 11, 95
13, 43789, Control_c, 13, 11, 92
13, 43798, Control_c, 13, 11, 89
13, 43804, Note_on_c, 13, 58, 0
13, 43804, Note_on_c, 13, 57, 106
13, 43864, Note_on_c, 13, 57, 0
13, 43864, Note_on_c, 13, 55, 106
13, 43919, Note_on_c, 13, 55, 0
13, 43924, Note_on_c, 13, 60, 106
13, 43984, Note_on_c, 13, 60, 0
13, 43984, Note_on_c, 13, 48, 106
13, 44044, Note_on_c, 13, 48, 0
13, 44044, Note_on_c, 13, 48, 106
13, 44104, Note_on_c, 13, 48, 0
13, 44104, Note_on_c, 13, 48, 106
13, 44159, Note_on_c, 13, 48, 0
13, 44164, Note_on_c, 13, 48, 98
13, 44219, Note_on_c, 13, 48, 0
13, 44224, Note_on_c, 13, 48, 98
13, 44264, Control_c, 13, 11, 87
13, 44266, Control_c, 13, 11, 83
13, 44268, Control_c, 13, 11, 79
13, 44270, Control_c, 13, 11, 75
13, 44272, Control_c, 13, 11, 71
13, 44274, Control_c, 13, 11, 67
13, 44276, Control_c, 13, 11, 63
13, 44278, Control_c, 13, 11, 59
13, 44279, Note_on_c, 13, 48, 0
13, 44280, Control_c, 13, 11, 55
13, 44282, Control_c, 13, 11, 51
13, 44284, Control_c, 13, 11, 47
13, 44284, Note_on_c, 13, 41, 101
13, 44344, Note_on_c, 13, 41, 0
13, 44403, Program_c, 13, 45
13, 44404, Note_on_c, 13, 60, 46
13, 44404, Control_c, 13, 11, 100
13, 44464, Note_on_c, 13, 60, 0
13, 44464, Note_on_c, 13, 57, 46
13, 44524, Note_on_c, 13, 57, 0
13, 44584, Note_on_c, 13, 53, 46
13, 44644, Note_on_c, 13, 53, 0
13, 44644, Note_on_c, 13, 48, 46
13, 44704, Note_on_c, 13, 48, 0
13, 44764, Note_on_c, 13, 52, 46
13, 44824, Note_on_c, 13, 52, 0
13, 44824, Note_on_c, 13, 55, 46
13, 44884, Note_on_c, 13, 55, 0
13, 44944, Note_on_c, 13, 60, 46
13, 45004, Note_on_c, 13, 60, 0
13, 45004, Note_on_c, 13, 53, 46
13, 45064, Note_on_c, 13, 53, 0
13, 45124, Note_on_c, 13, 60, 46
13, 45184, Note_on_c, 13, 60, 0
13, 45184, Note_on_c, 13, 57, 46
13, 45244, Note_on_c, 13, 57, 0
13, 45304, Note_on_c, 13, 53, 46
13, 45364, Note_on_c, 13, 53, 0
13, 45364, Note_on_c, 13, 48, 46
13, 45424, Note_on_c, 13, 48, 0
13, 45484, Note_on_c, 13, 52, 46
13, 45544, Note_on_c, 13, 52, 0
13, 45544, Note_on_c, 13, 55, 46
13, 45604, Note_on_c, 13, 55, 0
13, 45664, Note_on_c, 13, 60, 46
13, 45724, Note_on_c, 13, 60, 0
13, 45724, Note_on_c, 13, 53, 46
13, 45784, Note_on_c, 13, 53, 0
13, 46383, Program_c, 13, 48
13, 46384, Note_on_c, 13, 48, 94
13, 46384, Control_c, 13, 11, 62
13, 46386, Control_c, 13, 11, 65
13, 46389, Control_c, 13, 11, 69
13, 46392, Control_c, 13, 11, 72
13, 46394, Control_c, 13, 11, 75
13, 46397, Control_c, 13, 11, 79
13, 46400, Control_c, 13, 11, 82
13, 46402, Control_c, 13, 11, 85
13, 46444, Note_on_c, 13, 48, 0
13, 46444, Note_on_c, 13, 53, 106
13, 46474, Note_on_c, 13, 53, 0
13, 46504, Note_on_c, 13, 41, 106
13, 46504, Control_c, 13, 11, 42
13, 46534, Note_on_c, 13, 41, 0
13, 46564, Note_on_c, 13, 41, 96
13, 46594, Note_on_c, 13, 41, 0
13, 46624, Note_on_c, 13, 41, 78
13, 46704, Control_c, 13, 11, 42
13, 46710, Control_c, 13, 11, 39
13, 46716, Control_c, 13, 11, 36
13, 46722, Control_c, 13, 11, 33
13, 46728, Control_c, 13, 11, 30
13, 46734, Control_c, 13, 11, 27
13, 46740, Control_c, 13, 11, 24
13, 46744, Note_on_c, 13, 41, 0
13, 46984, Control_c, 13, 121, 0
13, 46984, End_track
14, 0, Start_track
14, 0, MIDI_port, 0
14, 0, Title_t, "Contrabasse"
14, 0, Program_c, 14, 48
14, 0, Control_c, 14, 10, 127
14, 6, Control_c, 14, 121, 0
14, 11, Program_c, 14, 48
14, 16, Pitch_bend_c, 14, 8492
14, 21, Control_c, 14, 11, 47
14, 26, Control_c, 14, 7, 127
14, 31, Control_c, 14, 91, 75
14, 36, Control_c, 14, 93, 0
14, 41, Control_c, 14, 10, 127
14, 46, Control_c, 14, 1, 36
14, 1926, Note_on_c, 14, 31, 104
14, 1986, Note_on_c, 14, 31, 0
14, 1986, Note_on_c, 14, 36, 104
14, 2025, Note_on_c, 14, 36, 0
14, 2046, Note_on_c, 14, 36, 104
14, 2085, Note_on_c, 14, 36, 0
14, 2106, Note_on_c, 14, 36, 104
14, 2166, Note_on_c, 14, 36, 0
14, 2166, Note_on_c, 14, 40, 104
14, 2205, Note_on_c, 14, 40, 0
14, 2226, Note_on_c, 14, 40, 104
14, 2265, Note_on_c, 14, 40, 0
14, 2286, Note_on_c, 14, 43, 104
14, 2346, Note_on_c, 14, 43, 0
14, 2346, Note_on_c, 14, 41, 104
14, 2346, Control_c, 14, 11, 37
14, 2385, Note_on_c, 14, 41, 0
14, 2406, Note_on_c, 14, 29, 104
14, 2445, Note_on_c, 14, 29, 0
14, 2526, Note_on_c, 14, 41, 104
14, 2565, Note_on_c, 14, 41, 0
14, 2586, Note_on_c, 14, 29, 104
14, 2625, Note_on_c, 14, 29, 0
14, 2646, Control_c, 14, 11, 37
14, 2658, Control_c, 14, 11, 40
14, 2670, Control_c, 14, 11, 43
14, 2682, Control_c, 14, 11, 46
14, 2694, Control_c, 14, 11, 49
14, 2706, Note_on_c, 14, 36, 104
14, 2706, Control_c, 14, 11, 52
14, 2766, Note_on_c, 14, 36, 0
14, 2766, Note_on_c, 14, 40, 104
14, 2766, Control_c, 14, 11, 47
14, 2805, Note_on_c, 14, 40, 0
14, 2826, Note_on_c, 14, 43, 104
14, 2865, Note_on_c, 14, 43, 0
14, 2886, Note_on_c, 14, 48, 104
14, 2886, Control_c, 14, 11, 37
14, 2904, Control_c, 14, 11, 38
14, 2922, Control_c, 14, 11, 39
14, 2940, Control_c, 14, 11, 40
14, 2958, Control_c, 14, 11, 41
14, 2976, Control_c, 14, 11, 42
14, 2994, Control_c, 14, 11, 43
14, 3001, Note_on_c, 14, 48, 0
14, 3006, Note_on_c, 14, 46, 104
14, 3012, Control_c, 14, 11, 44
14, 3030, Control_c, 14, 11, 45
14, 3048, Control_c, 14, 11, 46
14, 3066, Note_on_c, 14, 46, 0
14, 3066, Note_on_c, 14, 45, 104
14, 3066, Control_c, 14, 11, 47
14, 3084, Control_c, 14, 11, 48
14, 3102, Control_c, 14, 11, 49
14, 3120, Control_c, 14, 11, 50
14, 3126, Note_on_c, 14, 45, 0
14, 3126, Note_on_c, 14, 43, 104
14, 3138, Control_c, 14, 11, 51
14, 3156, Control_c, 14, 11, 52
14, 3174, Control_c, 14, 11, 53
14, 3186, Note_on_c, 14, 43, 0
14, 3186, Note_on_c, 14, 41, 104
14, 3192, Control_c, 14, 11, 54
14, 3210, Control_c, 14, 11, 55
14, 3228, Control_c, 14, 11, 56
14, 3241, Note_on_c, 14, 41, 0
14, 3246, Note_on_c, 14, 40, 104
14, 3246, Control_c, 14, 11, 57
14, 3301, Note_on_c, 14, 40, 0
14, 3306, Note_on_c, 14, 36, 104
14, 3361, Note_on_c, 14, 36, 0
14, 3366, Note_on_c, 14, 41, 104
14, 3421, Note_on_c, 14, 41, 0
14, 3426, Note_on_c, 14, 36, 104
14, 3486, Note_on_c, 14, 36, 0
14, 3546, Note_on_c, 14, 46, 104
14, 3606, Note_on_c, 14, 46, 0
14, 3606, Note_on_c, 14, 45, 104
14, 3666, Note_on_c, 14, 45, 0
14, 3726, Note_on_c, 14, 41, 104
14, 3726, Control_c, 14, 11, 56
14, 3729, Control_c, 14, 11, 60
14, 3732, Control_c, 14, 11, 63
14, 3735, Control_c, 14, 11, 66
14, 3738, Control_c, 14, 11, 70
14, 3754, Control_c, 14, 11, 67
14, 3762, Control_c, 14, 11, 64
14, 3771, Control_c, 14, 11, 61
14, 3781, Control_c, 14, 11, 58
14, 3786, Note_on_c, 14, 41, 0
14, 3786, Note_on_c, 14, 36, 104
14, 3846, Note_on_c, 14, 36, 0
14, 3906, Note_on_c, 14, 46, 104
14, 3966, Note_on_c, 14, 46, 0
14, 3966, Note_on_c, 14, 45, 104
14, 3966, Control_c, 14, 11, 62
14, 4026, Note_on_c, 14, 45, 0
14, 4086, Note_on_c, 14, 41, 104
14, 4086, Control_c, 14, 11, 62
14, 4089, Control_c, 14, 11, 66
14, 4092, Control_c, 14, 11, 69
14, 4095, Control_c, 14, 11, 72
14, 4098, Control_c, 14, 11, 76
14, 4114, Control_c, 14, 11, 73
14, 4122, Control_c, 14, 11, 70
14, 4131, Control_c, 14, 11, 67
14, 4141, Control_c, 14, 11, 64
14, 4146, Note_on_c, 14, 41, 0
14, 4146, Note_on_c, 14, 36, 104
14, 4206, Note_on_c, 14, 36, 0
14, 4266, Note_on_c, 14, 41, 104
14, 4266, Control_c, 14, 11, 68
14, 4269, Control_c, 14, 11, 72
14, 4272, Control_c, 14, 11, 75
14, 4275, Control_c, 14, 11, 78
14, 4278, Control_c, 14, 11, 82
14, 4294, Control_c, 14, 11, 79
14, 4302, Control_c, 14, 11, 76
14, 4311, Control_c, 14, 11, 73
14, 4321, Control_c, 14, 11, 70
14, 4326, Note_on_c, 14, 41, 0
14, 4326, Note_on_c, 14, 36, 104
14, 4386, Note_on_c, 14, 36, 0
14, 4446, Control_c, 14, 11, 89
14, 4446, Note_on_c, 14, 41, 104
14, 4462, Control_c, 14, 11, 86
14, 4479, Control_c, 14, 11, 83
14, 4495, Control_c, 14, 11, 80
14, 4506, Note_on_c, 14, 41, 0
14, 4506, Note_on_c, 14, 36, 94
14, 4506, Control_c, 14, 11, 87
14, 4545, Note_on_c, 14, 36, 0
14, 4566, Note_on_c, 14, 36, 85
14, 4605, Note_on_c, 14, 36, 0
14, 4626, Note_on_c, 14, 36, 82
14, 4665, Note_on_c, 14, 36, 0
14, 4686, Note_on_c, 14, 36, 71
14, 4721, Control_c, 14, 11, 87
14, 4723, Control_c, 14, 11, 84
14, 4726, Control_c, 14, 11, 81
14, 4729, Control_c, 14, 11, 78
14, 4732, Control_c, 14, 11, 75
14, 4735, Control_c, 14, 11, 72
14, 4738, Control_c, 14, 11, 69
14, 4741, Control_c, 14, 11, 66
14, 4744, Control_c, 14, 11, 63
14, 4746, Note_on_c, 14, 36, 0
14, 6366, Control_c, 14, 11, 47
14, 6366, Note_on_c, 14, 49, 84
14, 6405, Note_on_c, 14, 49, 0
14, 6426, Note_on_c, 14, 45, 104
14, 6465, Note_on_c, 14, 45, 0
14, 6486, Note_on_c, 14, 50, 104
14, 6525, Note_on_c, 14, 50, 0
14, 6546, Note_on_c, 14, 38, 84
14, 6585, Note_on_c, 14, 38, 0
14, 6726, Note_on_c, 14, 47, 84
14, 6765, Note_on_c, 14, 47, 0
14, 6786, Note_on_c, 14, 43, 104
14, 6825, Note_on_c, 14, 43, 0
14, 6846, Note_on_c, 14, 48, 104
14, 6885, Note_on_c, 14, 48, 0
14, 6906, Note_on_c, 14, 36, 84
14, 6945, Note_on_c, 14, 36, 0
14, 7026, Control_c, 14, 11, 47
14, 7026, Note_on_c, 14, 40, 104
14, 7047, Control_c, 14, 11, 50
14, 7062, Control_c, 14, 11, 52
14, 7065, Note_on_c, 14, 40, 0
14, 7083, Control_c, 14, 11, 55
14, 7086, Note_on_c, 14, 40, 104
14, 7098, Control_c, 14, 11, 57
14, 7119, Control_c, 14, 11, 60
14, 7125, Note_on_c, 14, 40, 0
14, 7134, Control_c, 14, 11, 62
14, 7146, Note_on_c, 14, 40, 104
14, 7155, Control_c, 14, 11, 65
14, 7170, Control_c, 14, 11, 67
14, 7185, Note_on_c, 14, 40, 0
14, 7191, Control_c, 14, 11, 70
14, 7206, Note_on_c, 14, 41, 104
14, 7206, Control_c, 14, 11, 72
14, 7266, Note_on_c, 14, 41, 0
14, 7446, Control_c, 14, 11, 47
14, 7446, Note_on_c, 14, 43, 104
14, 7476, Note_on_c, 14, 43, 0
14, 7506, Note_on_c, 14, 31, 104
14, 7536, Note_on_c, 14, 31, 0
14, 7566, Note_on_c, 14, 36, 104
14, 7626, Note_on_c, 14, 36, 0
14, 8391, Control_c, 14, 11, 87
14, 8391, Note_on_c, 14, 41, 104
14, 8399, Note_on_c, 14, 41, 0
14, 8406, Note_on_c, 14, 40, 104
14, 8429, Note_on_c, 14, 40, 0
14, 8451, Note_on_c, 14, 35, 104
14, 8459, Note_on_c, 14, 35, 0
14, 8466, Note_on_c, 14, 36, 104
14, 8496, Note_on_c, 14, 36, 0
14, 8571, Note_on_c, 14, 50, 104
14, 8579, Note_on_c, 14, 50, 0
14, 8586, Note_on_c, 14, 48, 104
14, 8609, Note_on_c, 14, 48, 0
14, 8631, Note_on_c, 14, 44, 104
14, 8639, Note_on_c, 14, 44, 0
14, 8646, Note_on_c, 14, 45, 104
14, 8676, Note_on_c, 14, 45, 0
14, 8751, Note_on_c, 14, 50, 104
14, 8759, Note_on_c, 14, 50, 0
14, 8766, Note_on_c, 14, 48, 104
14, 8789, Note_on_c, 14, 48, 0
14, 8811, Note_on_c, 14, 44, 104
14, 8819, Note_on_c, 14, 44, 0
14, 8826, Note_on_c, 14, 45, 104
14, 8856, Note_on_c, 14, 45, 0
14, 8886, Control_c, 14, 11, 90
14, 8886, Note_on_c, 14, 43, 104
14, 8892, Control_c, 14, 11, 93
14, 8898, Control_c, 14, 11, 96
14, 8921, Control_c, 14, 11, 95
14, 8930, Control_c, 14, 11, 92
14, 8939, Control_c, 14, 11, 89
14, 9006, Note_on_c, 14, 43, 0
14, 9006, Note_on_c, 14, 41, 104
14, 9036, Note_on_c, 14, 41, 0
14, 9066, Control_c, 14, 11, 90
14, 9066, Note_on_c, 14, 38, 104
14, 9075, Control_c, 14, 11, 93
14, 9085, Control_c, 14, 11, 96
14, 9101, Control_c, 14, 11, 95
14, 9110, Control_c, 14, 11, 92
14, 9119, Control_c, 14, 11, 89
14, 9186, Note_on_c, 14, 38, 0
14, 9186, Note_on_c, 14, 43, 104
14, 9216, Note_on_c, 14, 43, 0
14, 9246, Control_c, 14, 11, 90
14, 9246, Note_on_c, 14, 40, 104
14, 9252, Control_c, 14, 11, 93
14, 9258, Control_c, 14, 11, 96
14, 9281, Control_c, 14, 11, 95
14, 9290, Control_c, 14, 11, 92
14, 9299, Control_c, 14, 11, 89
14, 9366, Note_on_c, 14, 40, 0
14, 9366, Control_c, 14, 11, 87
14, 9366, Note_on_c, 14, 41, 104
14, 9375, Control_c, 14, 11, 84
14, 9384, Control_c, 14, 11, 81
14, 9393, Control_c, 14, 11, 78
14, 9396, Note_on_c, 14, 41, 0
14, 9402, Control_c, 14, 11, 75
14, 9411, Control_c, 14, 11, 72
14, 9420, Control_c, 14, 11, 69
14, 9426, Note_on_c, 14, 43, 104
14, 9456, Note_on_c, 14, 43, 0
14, 9486, Note_on_c, 14, 31, 84
14, 9486, Control_c, 14, 11, 67
14, 9486, Control_c, 14, 11, 72
14, 9492, Control_c, 14, 11, 66
14, 9494, Control_c, 14, 11, 70
14, 9498, Control_c, 14, 11, 65
14, 9502, Control_c, 14, 11, 68
14, 9504, Control_c, 14, 11, 64
14, 9506, Control_c, 14, 11, 67
14, 9510, Control_c, 14, 11, 63
14, 9516, Note_on_c, 14, 31, 0
14, 9526, Control_c, 14, 11, 62
14, 9534, Control_c, 14, 11, 59
14, 9546, Note_on_c, 14, 36, 68
14, 9576, Control_c, 14, 11, 57
14, 9580, Control_c, 14, 11, 54
14, 9584, Control_c, 14, 11, 51
14, 9589, Control_c, 14, 11, 48
14, 9593, Control_c, 14, 11, 45
14, 9597, Control_c, 14, 11, 42
14, 9602, Control_c, 14, 11, 39
14, 9606, Note_on_c, 14, 36, 0
14, 9726, Control_c, 14, 11, 37
14, 9726, Note_on_c, 14, 43, 104
14, 9786, Note_on_c, 14, 43, 0
14, 9846, Note_on_c, 14, 43, 104
14, 9906, Note_on_c, 14, 43, 0
14, 9966, Note_on_c, 14, 43, 104
14, 10026, Note_on_c, 14, 43, 0
14, 10086, Note_on_c, 14, 43, 104
14, 10146, Note_on_c, 14, 43, 0
14, 10206, Note_on_c, 14, 43, 104
14, 10266, Note_on_c, 14, 43, 0
14, 10326, Note_on_c, 14, 43, 104
14, 10386, Note_on_c, 14, 43, 0
14, 10446, Note_on_c, 14, 43, 104
14, 10506, Note_on_c, 14, 43, 0
14, 10566, Note_on_c, 14, 43, 104
14, 10626, Note_on_c, 14, 43, 0
14, 10686, Note_on_c, 14, 43, 104
14, 10746, Note_on_c, 14, 43, 0
14, 10806, Note_on_c, 14, 43, 104
14, 10851, Note_on_c, 14, 43, 0
14, 10866, Note_on_c, 14, 43, 104
14, 10911, Note_on_c, 14, 43, 0
14, 10926, Note_on_c, 14, 43, 104
14, 10971, Note_on_c, 14, 43, 0
14, 10986, Note_on_c, 14, 36, 89
14, 11021, Control_c, 14, 11, 37
14, 11028, Control_c, 14, 11, 34
14, 11035, Control_c, 14, 11, 31
14, 11042, Control_c, 14, 11, 28
14, 11046, Note_on_c, 14, 36, 0
14, 11286, Control_c, 14, 11, 37
14, 11286, Note_on_c, 14, 43, 80
14, 11304, Control_c, 14, 11, 40
14, 11322, Control_c, 14, 11, 43
14, 11340, Control_c, 14, 11, 46
14, 11346, Note_on_c, 14, 43, 0
14, 11346, Note_on_c, 14, 48, 104
14, 11376, Note_on_c, 14, 48, 0
14, 11406, Note_on_c, 14, 36, 99
14, 11436, Note_on_c, 14, 36, 0
14, 11466, Note_on_c, 14, 36, 85
14, 11496, Note_on_c, 14, 36, 0
14, 11526, Note_on_c, 14, 36, 72
14, 11561, Control_c, 14, 11, 47
14, 11568, Control_c, 14, 11, 44
14, 11575, Control_c, 14, 11, 41
14, 11582, Control_c, 14, 11, 38
14, 11586, Note_on_c, 14, 36, 0
14, 13446, Note_on_c, 14, 31, 104
14, 13506, Note_on_c, 14, 31, 0
14, 13506, Note_on_c, 14, 36, 104
14, 13545, Note_on_c, 14, 36, 0
14, 13566, Note_on_c, 14, 36, 104
14, 13605, Note_on_c, 14, 36, 0
14, 13626, Note_on_c, 14, 36, 104
14, 13686, Note_on_c, 14, 36, 0
14, 13686, Note_on_c, 14, 40, 104
14, 13725, Note_on_c, 14, 40, 0
14, 13746, Note_on_c, 14, 40, 104
14, 13785, Note_on_c, 14, 40, 0
14, 13806, Note_on_c, 14, 43, 104
14, 13866, Note_on_c, 14, 43, 0
14, 13866, Note_on_c, 14, 41, 104
14, 13866, Control_c, 14, 11, 37
14, 13905, Note_on_c, 14, 41, 0
14, 13926, Note_on_c, 14, 29, 104
14, 13965, Note_on_c, 14, 29, 0
14, 14046, Note_on_c, 14, 41, 104
14, 14085, Note_on_c, 14, 41, 0
14, 14106, Note_on_c, 14, 29, 104
14, 14145, Note_on_c, 14, 29, 0
14, 14166, Control_c, 14, 11, 37
14, 14178, Control_c, 14, 11, 40
14, 14190, Control_c, 14, 11, 43
14, 14202, Control_c, 14, 11, 46
14, 14214, Control_c, 14, 11, 49
14, 14226, Note_on_c, 14, 36, 104
14, 14226, Control_c, 14, 11, 52
14, 14286, Note_on_c, 14, 36, 0
14, 14286, Note_on_c, 14, 40, 104
14, 14286, Control_c, 14, 11, 47
14, 14325, Note_on_c, 14, 40, 0
14, 14346, Note_on_c, 14, 43, 104
14, 14385, Note_on_c, 14, 43, 0
14, 14406, Control_c, 14, 11, 37
14, 14406, Note_on_c, 14, 48, 104
14, 14424, Control_c, 14, 11, 38
14, 14442, Control_c, 14, 11, 39
14, 14460, Control_c, 14, 11, 40
14, 14478, Control_c, 14, 11, 41
14, 14496, Control_c, 14, 11, 42
14, 14514, Control_c, 14, 11, 43
14, 14521, Note_on_c, 14, 48, 0
14, 14526, Note_on_c, 14, 46, 104
14, 14532, Control_c, 14, 11, 44
14, 14550, Control_c, 14, 11, 45
14, 14568, Control_c, 14, 11, 46
14, 14586, Note_on_c, 14, 46, 0
14, 14586, Note_on_c, 14, 45, 104
14, 14586, Control_c, 14, 11, 47
14, 14604, Control_c, 14, 11, 48
14, 14622, Control_c, 14, 11, 49
14, 14640, Control_c, 14, 11, 50
14, 14646, Note_on_c, 14, 45, 0
14, 14646, Note_on_c, 14, 43, 104
14, 14658, Control_c, 14, 11, 51
14, 14676, Control_c, 14, 11, 52
14, 14694, Control_c, 14, 11, 53
14, 14706, Note_on_c, 14, 43, 0
14, 14706, Note_on_c, 14, 41, 104
14, 14712, Control_c, 14, 11, 54
14, 14730, Control_c, 14, 11, 55
14, 14748, Control_c, 14, 11, 56
14, 14761, Note_on_c, 14, 41, 0
14, 14766, Control_c, 14, 11, 57
14, 14766, Note_on_c, 14, 40, 104
14, 14821, Note_on_c, 14, 40, 0
14, 14826, Note_on_c, 14, 36, 104
14, 14881, Note_on_c, 14, 36, 0
14, 14886, Note_on_c, 14, 41, 104
14, 14941, Note_on_c, 14, 41, 0
14, 14946, Note_on_c, 14, 36, 104
14, 15006, Note_on_c, 14, 36, 0
14, 15066, Note_on_c, 14, 46, 104
14, 15126, Note_on_c, 14, 46, 0
14, 15126, Note_on_c, 14, 45, 104
14, 15186, Note_on_c, 14, 45, 0
14, 15246, Note_on_c, 14, 41, 104
14, 15246, Control_c, 14, 11, 56
14, 15249, Control_c, 14, 11, 60
14, 15252, Control_c, 14, 11, 63
14, 15255, Control_c, 14, 11, 66
14, 15258, Control_c, 14, 11, 70
14, 15274, Control_c, 14, 11, 67
14, 15282, Control_c, 14, 11, 64
14, 15291, Control_c, 14, 11, 61
14, 15301, Control_c, 14, 11, 58
14, 15306, Note_on_c, 14, 41, 0
14, 15306, Note_on_c, 14, 36, 104
14, 15366, Note_on_c, 14, 36, 0
14, 15426, Note_on_c, 14, 46, 104
14, 15486, Note_on_c, 14, 46, 0
14, 15486, Control_c, 14, 11, 62
14, 15486, Note_on_c, 14, 45, 104
14, 15546, Note_on_c, 14, 45, 0
14, 15606, Note_on_c, 14, 41, 104
14, 15606, Control_c, 14, 11, 62
14, 15609, Control_c, 14, 11, 66
14, 15612, Control_c, 14, 11, 69
14, 15615, Control_c, 14, 11, 72
14, 15618, Control_c, 14, 11, 76
14, 15634, Control_c, 14, 11, 73
14, 15642, Control_c, 14, 11, 70
14, 15651, Control_c, 14, 11, 67
14, 15661, Control_c, 14, 11, 64
14, 15666, Note_on_c, 14, 41, 0
14, 15666, Note_on_c, 14, 36, 104
14, 15726, Note_on_c, 14, 36, 0
14, 15786, Note_on_c, 14, 41, 104
14, 15786, Control_c, 14, 11, 68
14, 15789, Control_c, 14, 11, 72
14, 15792, Control_c, 14, 11, 75
14, 15795, Control_c, 14, 11, 78
14, 15798, Control_c, 14, 11, 82
14, 15814, Control_c, 14, 11, 79
14, 15822, Control_c, 14, 11, 76
14, 15831, Control_c, 14, 11, 73
14, 15841, Control_c, 14, 11, 70
14, 15846, Note_on_c, 14, 41, 0
14, 15846, Note_on_c, 14, 36, 104
14, 15906, Note_on_c, 14, 36, 0
14, 15966, Control_c, 14, 11, 89
14, 15966, Note_on_c, 14, 41, 104
14, 15982, Control_c, 14, 11, 86
14, 15999, Control_c, 14, 11, 83
14, 16015, Control_c, 14, 11, 80
14, 16026, Note_on_c, 14, 41, 0
14, 16026, Note_on_c, 14, 36, 94
14, 16026, Control_c, 14, 11, 87
14, 16065, Note_on_c, 14, 36, 0
14, 16086, Note_on_c, 14, 36, 85
14, 16125, Note_on_c, 14, 36, 0
14, 16146, Note_on_c, 14, 36, 82
14, 16185, Note_on_c, 14, 36, 0
14, 16206, Note_on_c, 14, 36, 79
14, 16241, Control_c, 14, 11, 87
14, 16243, Control_c, 14, 11, 84
14, 16246, Control_c, 14, 11, 81
14, 16249, Control_c, 14, 11, 78
14, 16252, Control_c, 14, 11, 75
14, 16255, Control_c, 14, 11, 72
14, 16258, Control_c, 14, 11, 69
14, 16261, Control_c, 14, 11, 66
14, 16264, Control_c, 14, 11, 63
14, 16266, Note_on_c, 14, 36, 0
14, 17886, Note_on_c, 14, 49, 84
14, 17886, Control_c, 14, 11, 47
14, 17925, Note_on_c, 14, 49, 0
14, 17946, Note_on_c, 14, 45, 104
14, 17985, Note_on_c, 14, 45, 0
14, 18006, Note_on_c, 14, 50, 104
14, 18045, Note_on_c, 14, 50, 0
14, 18066, Note_on_c, 14, 38, 84
14, 18105, Note_on_c, 14, 38, 0
14, 18246, Note_on_c, 14, 47, 84
14, 18285, Note_on_c, 14, 47, 0
14, 18306, Note_on_c, 14, 43, 104
14, 18345, Note_on_c, 14, 43, 0
14, 18366, Note_on_c, 14, 48, 104
14, 18405, Note_on_c, 14, 48, 0
14, 18426, Note_on_c, 14, 36, 84
14, 18465, Note_on_c, 14, 36, 0
14, 18546, Control_c, 14, 11, 47
14, 18546, Note_on_c, 14, 40, 104
14, 18567, Control_c, 14, 11, 50
14, 18582, Control_c, 14, 11, 52
14, 18585, Note_on_c, 14, 40, 0
14, 18603, Control_c, 14, 11, 55
14, 18606, Note_on_c, 14, 40, 104
14, 18618, Control_c, 14, 11, 57
14, 18639, Control_c, 14, 11, 60
14, 18645, Note_on_c, 14, 40, 0
14, 18654, Control_c, 14, 11, 62
14, 18666, Note_on_c, 14, 40, 104
14, 18675, Control_c, 14, 11, 65
14, 18690, Control_c, 14, 11, 67
14, 18705, Note_on_c, 14, 40, 0
14, 18711, Control_c, 14, 11, 70
14, 18726, Control_c, 14, 11, 72
14, 18726, Note_on_c, 14, 41, 104
14, 18786, Note_on_c, 14, 41, 0
14, 18966, Note_on_c, 14, 43, 104
14, 18966, Control_c, 14, 11, 47
14, 18996, Note_on_c, 14, 43, 0
14, 19026, Note_on_c, 14, 31, 104
14, 19056, Note_on_c, 14, 31, 0
14, 19086, Note_on_c, 14, 36, 104
14, 19146, Note_on_c, 14, 36, 0
14, 19911, Control_c, 14, 11, 87
14, 19911, Note_on_c, 14, 41, 104
14, 19919, Note_on_c, 14, 41, 0
14, 19926, Note_on_c, 14, 40, 104
14, 19949, Note_on_c, 14, 40, 0
14, 19971, Note_on_c, 14, 35, 104
14, 19979, Note_on_c, 14, 35, 0
14, 19986, Note_on_c, 14, 36, 104
14, 20016, Note_on_c, 14, 36, 0
14, 20091, Note_on_c, 14, 50, 104
14, 20099, Note_on_c, 14, 50, 0
14, 20106, Note_on_c, 14, 48, 104
14, 20129, Note_on_c, 14, 48, 0
14, 20151, Note_on_c, 14, 44, 104
14, 20159, Note_on_c, 14, 44, 0
14, 20166, Note_on_c, 14, 45, 104
14, 20196, Note_on_c, 14, 45, 0
14, 20271, Note_on_c, 14, 50, 104
14, 20279, Note_on_c, 14, 50, 0
14, 20286, Note_on_c, 14, 48, 104
14, 20309, Note_on_c, 14, 48, 0
14, 20331, Note_on_c, 14, 44, 104
14, 20339, Note_on_c, 14, 44, 0
14, 20346, Note_on_c, 14, 45, 104
14, 20376, Note_on_c, 14, 45, 0
14, 20406, Control_c, 14, 11, 90
14, 20406, Note_on_c, 14, 43, 104
14, 20412, Control_c, 14, 11, 93
14, 20418, Control_c, 14, 11, 96
14, 20441, Control_c, 14, 11, 95
14, 20450, Control_c, 14, 11, 92
14, 20459, Control_c, 14, 11, 89
14, 20526, Note_on_c, 14, 43, 0
14, 20526, Note_on_c, 14, 41, 104
14, 20556, Note_on_c, 14, 41, 0
14, 20586, Control_c, 14, 11, 90
14, 20586, Note_on_c, 14, 38, 104
14, 20595, Control_c, 14, 11, 93
14, 20605, Control_c, 14, 11, 96
14, 20621, Control_c, 14, 11, 95
14, 20630, Control_c, 14, 11, 92
14, 20639, Control_c, 14, 11, 89
14, 20706, Note_on_c, 14, 38, 0
14, 20706, Note_on_c, 14, 43, 104
14, 20736, Note_on_c, 14, 43, 0
14, 20766, Control_c, 14, 11, 90
14, 20766, Note_on_c, 14, 40, 104
14, 20772, Control_c, 14, 11, 93
14, 20778, Control_c, 14, 11, 96
14, 20801, Control_c, 14, 11, 95
14, 20810, Control_c, 14, 11, 92
14, 20819, Control_c, 14, 11, 89
14, 20886, Note_on_c, 14, 40, 0
14, 20886, Control_c, 14, 11, 87
14, 20886, Note_on_c, 14, 41, 104
14, 20895, Control_c, 14, 11, 84
14, 20904, Control_c, 14, 11, 81
14, 20913, Control_c, 14, 11, 78
14, 20916, Note_on_c, 14, 41, 0
14, 20922, Control_c, 14, 11, 75
14, 20931, Control_c, 14, 11, 72
14, 20940, Control_c, 14, 11, 69
14, 20946, Note_on_c, 14, 43, 104
14, 20976, Note_on_c, 14, 43, 0
14, 21006, Note_on_c, 14, 31, 84
14, 21006, Control_c, 14, 11, 72
14, 21006, Control_c, 14, 11, 67
14, 21014, Control_c, 14, 11, 70
14, 21018, Control_c, 14, 11, 65
14, 21022, Control_c, 14, 11, 68
14, 21024, Control_c, 14, 11, 64
14, 21026, Control_c, 14, 11, 67
14, 21030, Control_c, 14, 11, 63
14, 21036, Note_on_c, 14, 31, 0
14, 21046, Control_c, 14, 11, 62
14, 21054, Control_c, 14, 11, 59
14, 21066, Note_on_c, 14, 36, 68
14, 21096, Control_c, 14, 11, 57
14, 21100, Control_c, 14, 11, 54
14, 21104, Control_c, 14, 11, 51
14, 21109, Control_c, 14, 11, 48
14, 21113, Control_c, 14, 11, 45
14, 21117, Control_c, 14, 11, 42
14, 21122, Control_c, 14, 11, 39
14, 21126, Note_on_c, 14, 36, 0
14, 21246, Note_on_c, 14, 43, 104
14, 21246, Control_c, 14, 11, 37
14, 21306, Note_on_c, 14, 43, 0
14, 21366, Note_on_c, 14, 43, 104
14, 21426, Note_on_c, 14, 43, 0
14, 21486, Note_on_c, 14, 43, 104
14, 21546, Note_on_c, 14, 43, 0
14, 21606, Note_on_c, 14, 43, 104
14, 21666, Note_on_c, 14, 43, 0
14, 21726, Note_on_c, 14, 43, 104
14, 21786, Note_on_c, 14, 43, 0
14, 21846, Note_on_c, 14, 43, 104
14, 21906, Note_on_c, 14, 43, 0
14, 21966, Note_on_c, 14, 43, 104
14, 22026, Note_on_c, 14, 43, 0
14, 22086, Note_on_c, 14, 43, 104
14, 22146, Note_on_c, 14, 43, 0
14, 22206, Note_on_c, 14, 43, 104
14, 22266, Note_on_c, 14, 43, 0
14, 22326, Note_on_c, 14, 43, 104
14, 22371, Note_on_c, 14, 43, 0
14, 22386, Note_on_c, 14, 43, 104
14, 22431, Note_on_c, 14, 43, 0
14, 22446, Note_on_c, 14, 43, 104
14, 22491, Note_on_c, 14, 43, 0
14, 22506, Note_on_c, 14, 36, 89
14, 22541, Control_c, 14, 11, 37
14, 22548, Control_c, 14, 11, 34
14, 22555, Control_c, 14, 11, 31
14, 22562, Control_c, 14, 11, 28
14, 22566, Note_on_c, 14, 36, 0
14, 22806, Note_on_c, 14, 43, 80
14, 22806, Control_c, 14, 11, 37
14, 22824, Control_c, 14, 11, 40
14, 22842, Control_c, 14, 11, 43
14, 22860, Control_c, 14, 11, 46
14, 22866, Note_on_c, 14, 43, 0
14, 22866, Note_on_c, 14, 48, 104
14, 22896, Note_on_c, 14, 48, 0
14, 22926, Note_on_c, 14, 36, 99
14, 22956, Note_on_c, 14, 36, 0
14, 22986, Note_on_c, 14, 36, 85
14, 23016, Note_on_c, 14, 36, 0
14, 23046, Note_on_c, 14, 36, 80
14, 23081, Control_c, 14, 11, 47
14, 23088, Control_c, 14, 11, 44
14, 23095, Control_c, 14, 11, 41
14, 23102, Control_c, 14, 11, 38
14, 23106, Note_on_c, 14, 36, 0
14, 23886, Note_on_c, 14, 44, 92
14, 23886, Control_c, 14, 11, 32
14, 23898, Control_c, 14, 11, 35
14, 23910, Control_c, 14, 11, 38
14, 23922, Control_c, 14, 11, 41
14, 23934, Control_c, 14, 11, 44
14, 23946, Note_on_c, 14, 44, 0
14, 23946, Control_c, 14, 11, 47
14, 23946, Note_on_c, 14, 39, 104
14, 24006, Note_on_c, 14, 39, 0
14, 24066, Note_on_c, 14, 36, 93
14, 24066, Control_c, 14, 11, 52
14, 24075, Control_c, 14, 11, 55
14, 24084, Control_c, 14, 11, 58
14, 24093, Control_c, 14, 11, 61
14, 24102, Control_c, 14, 11, 64
14, 24111, Control_c, 14, 11, 67
14, 24120, Control_c, 14, 11, 70
14, 24126, Note_on_c, 14, 36, 0
14, 24126, Note_on_c, 14, 32, 104
14, 24186, Note_on_c, 14, 32, 0
14, 24246, Control_c, 14, 11, 87
14, 24246, Note_on_c, 14, 32, 71
14, 24258, Control_c, 14, 11, 90
14, 24270, Control_c, 14, 11, 93
14, 24282, Control_c, 14, 11, 96
14, 24294, Control_c, 14, 11, 99
14, 24306, Note_on_c, 14, 32, 0
14, 24306, Control_c, 14, 11, 102
14, 24306, Note_on_c, 14, 37, 64
14, 24315, Control_c, 14, 11, 99
14, 24325, Control_c, 14, 11, 96
14, 24333, Note_on_c, 14, 37, 0
14, 24335, Control_c, 14, 11, 93
14, 24345, Control_c, 14, 11, 90
14, 24351, Note_on_c, 14, 37, 64
14, 24355, Control_c, 14, 11, 87
14, 24360, Note_on_c, 14, 37, 0
14, 24364, Control_c, 14, 11, 84
14, 24366, Note_on_c, 14, 37, 62
14, 24374, Control_c, 14, 11, 81
14, 24384, Control_c, 14, 11, 78
14, 24393, Note_on_c, 14, 37, 0
14, 24394, Control_c, 14, 11, 75
14, 24404, Control_c, 14, 11, 72
14, 24411, Note_on_c, 14, 37, 56
14, 24414, Control_c, 14, 11, 69
14, 24420, Note_on_c, 14, 37, 0
14, 24423, Control_c, 14, 11, 66
14, 24426, Note_on_c, 14, 37, 56
14, 24433, Control_c, 14, 11, 63
14, 24443, Control_c, 14, 11, 60
14, 24453, Note_on_c, 14, 37, 0
14, 24453, Control_c, 14, 11, 57
14, 24463, Control_c, 14, 11, 54
14, 24471, Note_on_c, 14, 37, 50
14, 24472, Control_c, 14, 11, 51
14, 24480, Note_on_c, 14, 37, 0
14, 24482, Control_c, 14, 11, 48
14, 24486, Note_on_c, 14, 37, 48
14, 24513, Note_on_c, 14, 37, 0
14, 24531, Note_on_c, 14, 37, 48
14, 24540, Note_on_c, 14, 37, 0
14, 24546, Note_on_c, 14, 37, 48
14, 24573, Note_on_c, 14, 37, 0
14, 24591, Note_on_c, 14, 37, 48
14, 24600, Note_on_c, 14, 37, 0
14, 24606, Note_on_c, 14, 37, 48
14, 24633, Note_on_c, 14, 37, 0
14, 24651, Note_on_c, 14, 37, 63
14, 24660, Note_on_c, 14, 37, 0
14, 24666, Note_on_c, 14, 36, 64
14, 24666, Control_c, 14, 11, 67
14, 24669, Control_c, 14, 11, 70
14, 24672, Control_c, 14, 11, 73
14, 24675, Control_c, 14, 11, 76
14, 24681, Control_c, 14, 11, 73
14, 24685, Control_c, 14, 11, 70
14, 24688, Control_c, 14, 11, 67
14, 24691, Control_c, 14, 11, 64
14, 24693, Note_on_c, 14, 36, 0
14, 24695, Control_c, 14, 11, 61
14, 24698, Control_c, 14, 11, 58
14, 24702, Control_c, 14, 11, 55
14, 24705, Control_c, 14, 11, 52
14, 24708, Control_c, 14, 11, 49
14, 24711, Note_on_c, 14, 36, 48
14, 24720, Note_on_c, 14, 36, 0
14, 24726, Note_on_c, 14, 36, 48
14, 24753, Note_on_c, 14, 36, 0
14, 24771, Note_on_c, 14, 36, 48
14, 24780, Note_on_c, 14, 36, 0
14, 24786, Note_on_c, 14, 36, 48
14, 24813, Note_on_c, 14, 36, 0
14, 24831, Note_on_c, 14, 36, 48
14, 24840, Note_on_c, 14, 36, 0
14, 24846, Note_on_c, 14, 36, 48
14, 24873, Note_on_c, 14, 36, 0
14, 24891, Note_on_c, 14, 36, 48
14, 24900, Note_on_c, 14, 36, 0
14, 24906, Note_on_c, 14, 36, 48
14, 24933, Note_on_c, 14, 36, 0
14, 24951, Note_on_c, 14, 36, 48
14, 24960, Note_on_c, 14, 36, 0
14, 24966, Note_on_c, 14, 36, 48
14, 24993, Note_on_c, 14, 36, 0
14, 25011, Note_on_c, 14, 36, 64
14, 25020, Note_on_c, 14, 36, 0
14, 25026, Note_on_c, 14, 37, 64
14, 25026, Control_c, 14, 11, 67
14, 25029, Control_c, 14, 11, 70
14, 25032, Control_c, 14, 11, 73
14, 25035, Control_c, 14, 11, 76
14, 25041, Control_c, 14, 11, 73
14, 25045, Control_c, 14, 11, 70
14, 25048, Control_c, 14, 11, 67
14, 25051, Control_c, 14, 11, 64
14, 25053, Note_on_c, 14, 37, 0
14, 25055, Control_c, 14, 11, 61
14, 25058, Control_c, 14, 11, 58
14, 25062, Control_c, 14, 11, 55
14, 25065, Control_c, 14, 11, 52
14, 25068, Control_c, 14, 11, 49
14, 25071, Note_on_c, 14, 37, 48
14, 25080, Note_on_c, 14, 37, 0
14, 25086, Note_on_c, 14, 37, 48
14, 25113, Note_on_c, 14, 37, 0
14, 25131, Note_on_c, 14, 37, 48
14, 25140, Note_on_c, 14, 37, 0
14, 25146, Note_on_c, 14, 37, 48
14, 25173, Note_on_c, 14, 37, 0
14, 25191, Note_on_c, 14, 37, 48
14, 25200, Note_on_c, 14, 37, 0
14, 25206, Note_on_c, 14, 37, 48
14, 25233, Note_on_c, 14, 37, 0
14, 25251, Note_on_c, 14, 37, 48
14, 25260, Note_on_c, 14, 37, 0
14, 25266, Note_on_c, 14, 37, 48
14, 25293, Note_on_c, 14, 37, 0
14, 25311, Note_on_c, 14, 37, 48
14, 25320, Note_on_c, 14, 37, 0
14, 25326, Note_on_c, 14, 37, 48
14, 25353, Note_on_c, 14, 37, 0
14, 25371, Note_on_c, 14, 37, 64
14, 25380, Note_on_c, 14, 37, 0
14, 25386, Control_c, 14, 11, 67
14, 25386, Note_on_c, 14, 36, 64
14, 25389, Control_c, 14, 11, 70
14, 25392, Control_c, 14, 11, 73
14, 25395, Control_c, 14, 11, 76
14, 25401, Control_c, 14, 11, 73
14, 25405, Control_c, 14, 11, 70
14, 25408, Control_c, 14, 11, 67
14, 25411, Control_c, 14, 11, 64
14, 25413, Note_on_c, 14, 36, 0
14, 25415, Control_c, 14, 11, 61
14, 25418, Control_c, 14, 11, 58
14, 25422, Control_c, 14, 11, 55
14, 25425, Control_c, 14, 11, 52
14, 25428, Control_c, 14, 11, 49
14, 25431, Note_on_c, 14, 36, 48
14, 25440, Note_on_c, 14, 36, 0
14, 25446, Note_on_c, 14, 36, 48
14, 25473, Note_on_c, 14, 36, 0
14, 25491, Note_on_c, 14, 36, 48
14, 25500, Note_on_c, 14, 36, 0
14, 25506, Note_on_c, 14, 36, 48
14, 25533, Note_on_c, 14, 36, 0
14, 25551, Note_on_c, 14, 36, 48
14, 25560, Note_on_c, 14, 36, 0
14, 25566, Note_on_c, 14, 36, 48
14, 25593, Note_on_c, 14, 36, 0
14, 25611, Note_on_c, 14, 36, 48
14, 25620, Note_on_c, 14, 36, 0
14, 25626, Note_on_c, 14, 36, 48
14, 25653, Note_on_c, 14, 36, 0
14, 25671, Note_on_c, 14, 36, 48
14, 25680, Note_on_c, 14, 36, 0
14, 25686, Note_on_c, 14, 36, 48
14, 25713, Note_on_c, 14, 36, 0
14, 25731, Note_on_c, 14, 36, 64
14, 25740, Note_on_c, 14, 36, 0
14, 25746, Control_c, 14, 11, 67
14, 25746, Note_on_c, 14, 34, 64
14, 25749, Control_c, 14, 11, 70
14, 25752, Control_c, 14, 11, 73
14, 25755, Control_c, 14, 11, 76
14, 25761, Control_c, 14, 11, 73
14, 25765, Control_c, 14, 11, 70
14, 25768, Control_c, 14, 11, 67
14, 25771, Control_c, 14, 11, 64
14, 25773, Note_on_c, 14, 34, 0
14, 25775, Control_c, 14, 11, 61
14, 25778, Control_c, 14, 11, 58
14, 25782, Control_c, 14, 11, 55
14, 25785, Control_c, 14, 11, 52
14, 25788, Control_c, 14, 11, 49
14, 25791, Note_on_c, 14, 34, 64
14, 25800, Note_on_c, 14, 34, 0
14, 25806, Note_on_c, 14, 34, 64
14, 25833, Note_on_c, 14, 34, 0
14, 25851, Note_on_c, 14, 34, 64
14, 25860, Note_on_c, 14, 34, 0
14, 25866, Note_on_c, 14, 34, 64
14, 25893, Note_on_c, 14, 34, 0
14, 25911, Note_on_c, 14, 34, 64
14, 25920, Note_on_c, 14, 34, 0
14, 25926, Note_on_c, 14, 37, 64
14, 25926, Control_c, 14, 11, 67
14, 25929, Control_c, 14, 11, 70
14, 25932, Control_c, 14, 11, 73
14, 25935, Control_c, 14, 11, 76
14, 25941, Control_c, 14, 11, 73
14, 25945, Control_c, 14, 11, 70
14, 25948, Control_c, 14, 11, 67
14, 25951, Control_c, 14, 11, 64
14, 25953, Note_on_c, 14, 37, 0
14, 25955, Control_c, 14, 11, 61
14, 25958, Control_c, 14, 11, 58
14, 25962, Control_c, 14, 11, 55
14, 25965, Control_c, 14, 11, 52
14, 25968, Control_c, 14, 11, 49
14, 25971, Note_on_c, 14, 37, 64
14, 25980, Note_on_c, 14, 37, 0
14, 25986, Note_on_c, 14, 37, 64
14, 26013, Note_on_c, 14, 37, 0
14, 26031, Note_on_c, 14, 37, 64
14, 26040, Note_on_c, 14, 37, 0
14, 26046, Note_on_c, 14, 37, 64
14, 26073, Note_on_c, 14, 37, 0
14, 26091, Note_on_c, 14, 37, 64
14, 26100, Note_on_c, 14, 37, 0
14, 26106, Note_on_c, 14, 36, 64
14, 26166, Note_on_c, 14, 36, 0
14, 26406, Note_on_c, 14, 41, 104
14, 26406, Control_c, 14, 11, 72
14, 26418, Control_c, 14, 11, 75
14, 26430, Control_c, 14, 11, 78
14, 26442, Control_c, 14, 11, 81
14, 26454, Control_c, 14, 11, 84
14, 26466, Note_on_c, 14, 41, 0
14, 26466, Note_on_c, 14, 36, 104
14, 26466, Control_c, 14, 11, 87
14, 26496, Note_on_c, 14, 36, 0
14, 26526, Note_on_c, 14, 36, 104
14, 26556, Note_on_c, 14, 36, 0
14, 26766, Control_c, 14, 11, 72
14, 26766, Note_on_c, 14, 41, 104
14, 26778, Control_c, 14, 11, 75
14, 26790, Control_c, 14, 11, 78
14, 26802, Control_c, 14, 11, 81
14, 26814, Control_c, 14, 11, 84
14, 26826, Note_on_c, 14, 41, 0
14, 26826, Control_c, 14, 11, 87
14, 26826, Note_on_c, 14, 36, 104
14, 26856, Note_on_c, 14, 36, 0
14, 27066, Control_c, 14, 11, 37
14, 27066, Note_on_c, 14, 48, 104
14, 27084, Control_c, 14, 11, 40
14, 27102, Control_c, 14, 11, 43
14, 27120, Control_c, 14, 11, 46
14, 27121, Note_on_c, 14, 48, 0
14, 27126, Note_on_c, 14, 48, 104
14, 27181, Note_on_c, 14, 48, 0
14, 27186, Note_on_c, 14, 36, 104
14, 27241, Note_on_c, 14, 36, 0
14, 27426, Note_on_c, 14, 48, 104
14, 27481, Note_on_c, 14, 48, 0
14, 27486, Note_on_c, 14, 48, 104
14, 27541, Note_on_c, 14, 48, 0
14, 27546, Note_on_c, 14, 36, 104
14, 27606, Note_on_c, 14, 36, 0
14, 27786, Note_on_c, 14, 48, 104
14, 27816, Note_on_c, 14, 48, 0
14, 27846, Note_on_c, 14, 48, 104
14, 27876, Note_on_c, 14, 48, 0
14, 27906, Note_on_c, 14, 48, 104
14, 27906, Control_c, 14, 11, 47
14, 27924, Control_c, 14, 11, 49
14, 27936, Note_on_c, 14, 48, 0
14, 27942, Control_c, 14, 11, 51
14, 27960, Control_c, 14, 11, 53
14, 27966, Note_on_c, 14, 45, 104
14, 27978, Control_c, 14, 11, 55
14, 27996, Note_on_c, 14, 45, 0
14, 27996, Control_c, 14, 11, 57
14, 28014, Control_c, 14, 11, 59
14, 28026, Note_on_c, 14, 46, 104
14, 28032, Control_c, 14, 11, 61
14, 28050, Control_c, 14, 11, 63
14, 28056, Note_on_c, 14, 46, 0
14, 28068, Control_c, 14, 11, 65
14, 28086, Control_c, 14, 11, 67
14, 28086, Note_on_c, 14, 43, 104
14, 28104, Control_c, 14, 11, 69
14, 28116, Note_on_c, 14, 43, 0
14, 28122, Control_c, 14, 11, 71
14, 28140, Control_c, 14, 11, 73
14, 28146, Note_on_c, 14, 44, 104
14, 28158, Control_c, 14, 11, 75
14, 28176, Note_on_c, 14, 44, 0
14, 28176, Control_c, 14, 11, 77
14, 28194, Control_c, 14, 11, 79
14, 28206, Note_on_c, 14, 45, 104
14, 28212, Control_c, 14, 11, 81
14, 28230, Control_c, 14, 11, 83
14, 28236, Note_on_c, 14, 45, 0
14, 28248, Control_c, 14, 11, 85
14, 28266, Control_c, 14, 11, 87
14, 28266, Note_on_c, 14, 46, 104
14, 28426, Control_c, 14, 11, 87
14, 28427, Control_c, 14, 11, 84
14, 28429, Control_c, 14, 11, 80
14, 28431, Control_c, 14, 11, 76
14, 28433, Control_c, 14, 11, 72
14, 28435, Control_c, 14, 11, 68
14, 28436, Control_c, 14, 11, 65
14, 28438, Control_c, 14, 11, 61
14, 28440, Control_c, 14, 11, 57
14, 28442, Control_c, 14, 11, 53
14, 28444, Control_c, 14, 11, 49
14, 28446, Note_on_c, 14, 46, 0
14, 28626, Control_c, 14, 11, 87
14, 28626, Note_on_c, 14, 36, 104
14, 28786, Control_c, 14, 11, 87
14, 28787, Control_c, 14, 11, 84
14, 28789, Control_c, 14, 11, 80
14, 28791, Control_c, 14, 11, 76
14, 28793, Control_c, 14, 11, 72
14, 28795, Control_c, 14, 11, 68
14, 28796, Control_c, 14, 11, 65
14, 28798, Control_c, 14, 11, 61
14, 28800, Control_c, 14, 11, 57
14, 28802, Control_c, 14, 11, 53
14, 28804, Control_c, 14, 11, 49
14, 28806, Note_on_c, 14, 36, 0
14, 30846, Note_on_c, 14, 36, 104
14, 30846, Control_c, 14, 11, 37
14, 30906, Note_on_c, 14, 36, 0
14, 31026, Note_on_c, 14, 48, 104
14, 31086, Note_on_c, 14, 48, 0
14, 31206, Note_on_c, 14, 31, 104
14, 31266, Note_on_c, 14, 31, 0
14, 31326, Note_on_c, 14, 31, 104
14, 31386, Note_on_c, 14, 31, 0
14, 31446, Note_on_c, 14, 31, 104
14, 31506, Note_on_c, 14, 31, 0
14, 31506, Note_on_c, 14, 36, 104
14, 31549, Note_on_c, 14, 36, 0
14, 31566, Note_on_c, 14, 36, 104
14, 31609, Note_on_c, 14, 36, 0
14, 31626, Note_on_c, 14, 36, 104
14, 31686, Note_on_c, 14, 36, 0
14, 31686, Note_on_c, 14, 40, 104
14, 31729, Note_on_c, 14, 40, 0
14, 31746, Note_on_c, 14, 40, 104
14, 31789, Note_on_c, 14, 40, 0
14, 31806, Note_on_c, 14, 43, 104
14, 31866, Note_on_c, 14, 43, 0
14, 31866, Note_on_c, 14, 41, 104
14, 31881, Note_on_c, 14, 41, 0
14, 31896, Note_on_c, 14, 45, 104
14, 31911, Note_on_c, 14, 45, 0
14, 31911, Note_on_c, 14, 46, 104
14, 31921, Note_on_c, 14, 46, 0
14, 31926, Note_on_c, 14, 48, 104
14, 31941, Note_on_c, 14, 48, 0
14, 31956, Note_on_c, 14, 46, 104
14, 31971, Note_on_c, 14, 46, 0
14, 31986, Note_on_c, 14, 45, 104
14, 32001, Note_on_c, 14, 45, 0
14, 32016, Note_on_c, 14, 43, 104
14, 32031, Note_on_c, 14, 43, 0
14, 32046, Note_on_c, 14, 41, 104
14, 32061, Note_on_c, 14, 41, 0
14, 32076, Note_on_c, 14, 40, 104
14, 32091, Note_on_c, 14, 40, 0
14, 32106, Note_on_c, 14, 38, 104
14, 32121, Note_on_c, 14, 38, 0
14, 32136, Note_on_c, 14, 36, 104
14, 32151, Note_on_c, 14, 36, 0
14, 32166, Note_on_c, 14, 34, 104
14, 32181, Note_on_c, 14, 34, 0
14, 32196, Note_on_c, 14, 33, 104
14, 32211, Note_on_c, 14, 33, 0
14, 32226, Note_on_c, 14, 31, 104
14, 32241, Note_on_c, 14, 31, 0
14, 32256, Note_on_c, 14, 30, 104
14, 32271, Note_on_c, 14, 30, 0
14, 32286, Note_on_c, 14, 31, 104
14, 32301, Note_on_c, 14, 31, 0
14, 32316, Note_on_c, 14, 33, 104
14, 32331, Note_on_c, 14, 33, 0
14, 32346, Note_on_c, 14, 34, 104
14, 32361, Note_on_c, 14, 34, 0
14, 32376, Note_on_c, 14, 35, 104
14, 32391, Note_on_c, 14, 35, 0
14, 32406, Note_on_c, 14, 36, 104
14, 32421, Note_on_c, 14, 36, 0
14, 32436, Note_on_c, 14, 43, 104
14, 32451, Note_on_c, 14, 43, 0
14, 32466, Note_on_c, 14, 45, 104
14, 32481, Note_on_c, 14, 45, 0
14, 32496, Note_on_c, 14, 47, 104
14, 32511, Note_on_c, 14, 47, 0
14, 32526, Note_on_c, 14, 48, 104
14, 32541, Note_on_c, 14, 48, 0
14, 32556, Note_on_c, 14, 46, 104
14, 32571, Note_on_c, 14, 46, 0
14, 32586, Control_c, 14, 11, 37
14, 32586, Note_on_c, 14, 45, 104
14, 32608, Note_on_c, 14, 45, 0
14, 32610, Control_c, 14, 11, 38
14, 32616, Note_on_c, 14, 36, 104
14, 32634, Control_c, 14, 11, 39
14, 32638, Note_on_c, 14, 36, 0
14, 32646, Note_on_c, 14, 43, 104
14, 32658, Control_c, 14, 11, 40
14, 32668, Note_on_c, 14, 43, 0
14, 32676, Note_on_c, 14, 36, 104
14, 32682, Control_c, 14, 11, 41
14, 32698, Note_on_c, 14, 36, 0
14, 32706, Control_c, 14, 11, 42
14, 32706, Note_on_c, 14, 41, 104
14, 32728, Note_on_c, 14, 41, 0
14, 32730, Control_c, 14, 11, 43
14, 32736, Note_on_c, 14, 36, 104
14, 32754, Control_c, 14, 11, 44
14, 32758, Note_on_c, 14, 36, 0
14, 32766, Note_on_c, 14, 40, 104
14, 32778, Control_c, 14, 11, 45
14, 32788, Note_on_c, 14, 40, 0
14, 32796, Note_on_c, 14, 43, 104
14, 32802, Control_c, 14, 11, 46
14, 32818, Note_on_c, 14, 43, 0
14, 32826, Note_on_c, 14, 40, 104
14, 32826, Control_c, 14, 11, 47
14, 32848, Note_on_c, 14, 40, 0
14, 32850, Control_c, 14, 11, 48
14, 32856, Note_on_c, 14, 36, 104
14, 32874, Control_c, 14, 11, 49
14, 32878, Note_on_c, 14, 36, 0
14, 32886, Note_on_c, 14, 41, 104
14, 32898, Control_c, 14, 11, 50
14, 32908, Note_on_c, 14, 41, 0
14, 32916, Note_on_c, 14, 45, 104
14, 32922, Control_c, 14, 11, 51
14, 32938, Note_on_c, 14, 45, 0
14, 32946, Control_c, 14, 11, 52
14, 32946, Note_on_c, 14, 36, 104
14, 32968, Note_on_c, 14, 36, 0
14, 32976, Note_on_c, 14, 48, 104
14, 32998, Note_on_c, 14, 48, 0
14, 33006, Note_on_c, 14, 48, 104
14, 33028, Note_on_c, 14, 48, 0
14, 33036, Note_on_c, 14, 48, 104
14, 33058, Note_on_c, 14, 48, 0
14, 33066, Note_on_c, 14, 46, 104
14, 33088, Note_on_c, 14, 46, 0
14, 33096, Note_on_c, 14, 48, 104
14, 33118, Note_on_c, 14, 48, 0
14, 33126, Control_c, 14, 11, 72
14, 33126, Note_on_c, 14, 45, 104
14, 33135, Control_c, 14, 11, 69
14, 33144, Control_c, 14, 11, 66
14, 33148, Note_on_c, 14, 45, 0
14, 33153, Control_c, 14, 11, 63
14, 33156, Note_on_c, 14, 48, 104
14, 33162, Control_c, 14, 11, 60
14, 33171, Control_c, 14, 11, 57
14, 33178, Note_on_c, 14, 48, 0
14, 33180, Control_c, 14, 11, 54
14, 33186, Note_on_c, 14, 48, 104
14, 33208, Note_on_c, 14, 48, 0
14, 33216, Note_on_c, 14, 48, 104
14, 33238, Note_on_c, 14, 48, 0
14, 33246, Note_on_c, 14, 45, 104
14, 33268, Note_on_c, 14, 45, 0
14, 33276, Note_on_c, 14, 41, 104
14, 33298, Note_on_c, 14, 41, 0
14, 33306, Note_on_c, 14, 36, 104
14, 33328, Note_on_c, 14, 36, 0
14, 33336, Note_on_c, 14, 48, 104
14, 33358, Note_on_c, 14, 48, 0
14, 33366, Note_on_c, 14, 48, 104
14, 33388, Note_on_c, 14, 48, 0
14, 33396, Note_on_c, 14, 48, 104
14, 33418, Note_on_c, 14, 48, 0
14, 33426, Note_on_c, 14, 46, 104
14, 33448, Note_on_c, 14, 46, 0
14, 33456, Note_on_c, 14, 48, 104
14, 33478, Note_on_c, 14, 48, 0
14, 33486, Control_c, 14, 11, 72
14, 33486, Note_on_c, 14, 45, 104
14, 33495, Control_c, 14, 11, 69
14, 33504, Control_c, 14, 11, 66
14, 33508, Note_on_c, 14, 45, 0
14, 33513, Control_c, 14, 11, 63
14, 33516, Note_on_c, 14, 48, 104
14, 33522, Control_c, 14, 11, 60
14, 33531, Control_c, 14, 11, 57
14, 33538, Note_on_c, 14, 48, 0
14, 33540, Control_c, 14, 11, 54
14, 33546, Note_on_c, 14, 48, 104
14, 33568, Note_on_c, 14, 48, 0
14, 33576, Note_on_c, 14, 48, 104
14, 33598, Note_on_c, 14, 48, 0
14, 33606, Note_on_c, 14, 45, 104
14, 33628, Note_on_c, 14, 45, 0
14, 33636, Note_on_c, 14, 41, 104
14, 33658, Note_on_c, 14, 41, 0
14, 33666, Note_on_c, 14, 36, 104
14, 33688, Note_on_c, 14, 36, 0
14, 33696, Note_on_c, 14, 36, 104
14, 33718, Note_on_c, 14, 36, 0
14, 33726, Note_on_c, 14, 40, 104
14, 33726, Control_c, 14, 11, 82
14, 33735, Control_c, 14, 11, 79
14, 33744, Control_c, 14, 11, 76
14, 33748, Note_on_c, 14, 40, 0
14, 33753, Control_c, 14, 11, 73
14, 33756, Note_on_c, 14, 36, 104
14, 33762, Control_c, 14, 11, 70
14, 33771, Control_c, 14, 11, 67
14, 33778, Note_on_c, 14, 36, 0
14, 33780, Control_c, 14, 11, 64
14, 33786, Note_on_c, 14, 41, 104
14, 33808, Note_on_c, 14, 41, 0
14, 33816, Note_on_c, 14, 45, 104
14, 33838, Note_on_c, 14, 45, 0
14, 33846, Note_on_c, 14, 48, 104
14, 33868, Note_on_c, 14, 48, 0
14, 33876, Note_on_c, 14, 36, 104
14, 33898, Note_on_c, 14, 36, 0
14, 33906, Note_on_c, 14, 36, 104
14, 33906, Control_c, 14, 11, 87
14, 33924, Control_c, 14, 11, 84
14, 33928, Note_on_c, 14, 36, 0
14, 33936, Note_on_c, 14, 36, 104
14, 33942, Control_c, 14, 11, 81
14, 33958, Note_on_c, 14, 36, 0
14, 33960, Control_c, 14, 11, 78
14, 33966, Note_on_c, 14, 41, 104
14, 33988, Note_on_c, 14, 41, 0
14, 33996, Control_c, 14, 11, 77
14, 33996, Note_on_c, 14, 45, 104
14, 34005, Control_c, 14, 11, 80
14, 34014, Control_c, 14, 11, 83
14, 34018, Note_on_c, 14, 45, 0
14, 34023, Control_c, 14, 11, 86
14, 34026, Note_on_c, 14, 48, 104
14, 34056, Note_on_c, 14, 48, 0
14, 34086, Note_on_c, 14, 36, 94
14, 34116, Note_on_c, 14, 36, 0
14, 34146, Note_on_c, 14, 36, 91
14, 34176, Note_on_c, 14, 36, 0
14, 34206, Note_on_c, 14, 36, 79
14, 34236, Control_c, 14, 11, 87
14, 34240, Control_c, 14, 11, 84
14, 34244, Control_c, 14, 11, 81
14, 34249, Control_c, 14, 11, 78
14, 34253, Control_c, 14, 11, 75
14, 34257, Control_c, 14, 11, 72
14, 34262, Control_c, 14, 11, 69
14, 34266, Note_on_c, 14, 36, 0
14, 35886, Note_on_c, 14, 42, 104
14, 35886, Control_c, 14, 11, 47
14, 35916, Note_on_c, 14, 42, 0
14, 35946, Note_on_c, 14, 38, 104
14, 35976, Note_on_c, 14, 38, 0
14, 36006, Note_on_c, 14, 43, 104
14, 36036, Note_on_c, 14, 43, 0
14, 36066, Note_on_c, 14, 31, 104
14, 36096, Note_on_c, 14, 31, 0
14, 36246, Note_on_c, 14, 40, 104
14, 36276, Note_on_c, 14, 40, 0
14, 36306, Note_on_c, 14, 36, 104
14, 36336, Note_on_c, 14, 36, 0
14, 36366, Note_on_c, 14, 41, 104
14, 36396, Note_on_c, 14, 41, 0
14, 36426, Note_on_c, 14, 29, 104
14, 36456, Note_on_c, 14, 29, 0
14, 36546, Note_on_c, 14, 33, 104
14, 36546, Control_c, 14, 11, 47
14, 36570, Control_c, 14, 11, 49
14, 36576, Note_on_c, 14, 33, 0
14, 36594, Control_c, 14, 11, 51
14, 36606, Note_on_c, 14, 45, 104
14, 36618, Control_c, 14, 11, 53
14, 36636, Note_on_c, 14, 45, 0
14, 36642, Control_c, 14, 11, 55
14, 36666, Control_c, 14, 11, 57
14, 36666, Note_on_c, 14, 45, 104
14, 36690, Control_c, 14, 11, 59
14, 36696, Note_on_c, 14, 45, 0
14, 36714, Control_c, 14, 11, 61
14, 36726, Note_on_c, 14, 46, 104
14, 36846, Note_on_c, 14, 46, 0
14, 36966, Note_on_c, 14, 48, 89
14, 36966, Control_c, 14, 11, 47
14, 36996, Note_on_c, 14, 48, 0
14, 37026, Note_on_c, 14, 36, 89
14, 37056, Note_on_c, 14, 36, 0
14, 37086, Note_on_c, 14, 41, 89
14, 37106, Control_c, 14, 11, 47
14, 37110, Control_c, 14, 11, 44
14, 37115, Control_c, 14, 11, 41
14, 37120, Control_c, 14, 11, 38
14, 37124, Control_c, 14, 11, 35
14, 37129, Control_c, 14, 11, 32
14, 37134, Control_c, 14, 11, 29
14, 37138, Control_c, 14, 11, 26
14, 37143, Control_c, 14, 11, 23
14, 37146, Note_on_c, 14, 41, 0
14, 37191, Control_c, 14, 11, 47
14, 37191, Note_on_c, 14, 46, 84
14, 37199, Note_on_c, 14, 46, 0
14, 37206, Note_on_c, 14, 45, 84
14, 37229, Note_on_c, 14, 45, 0
14, 37251, Note_on_c, 14, 43, 84
14, 37259, Note_on_c, 14, 43, 0
14, 37266, Note_on_c, 14, 41, 84
14, 37296, Note_on_c, 14, 41, 0
14, 37371, Note_on_c, 14, 55, 84
14, 37379, Note_on_c, 14, 55, 0
14, 37386, Note_on_c, 14, 53, 84
14, 37409, Note_on_c, 14, 53, 0
14, 37431, Note_on_c, 14, 49, 84
14, 37439, Note_on_c, 14, 49, 0
14, 37446, Note_on_c, 14, 50, 84
14, 37476, Note_on_c, 14, 50, 0
14, 37551, Note_on_c, 14, 51, 84
14, 37559, Note_on_c, 14, 51, 0
14, 37566, Note_on_c, 14, 50, 84
14, 37589, Note_on_c, 14, 50, 0
14, 37611, Note_on_c, 14, 45, 84
14, 37619, Note_on_c, 14, 45, 0
14, 37626, Note_on_c, 14, 46, 84
14, 37649, Note_on_c, 14, 46, 0
14, 37671, Note_on_c, 14, 43, 104
14, 37679, Note_on_c, 14, 43, 0
14, 37686, Note_on_c, 14, 48, 104
14, 37716, Note_on_c, 14, 48, 0
14, 37746, Note_on_c, 14, 36, 104
14, 37776, Note_on_c, 14, 36, 0
14, 37806, Note_on_c, 14, 41, 104
14, 37866, Note_on_c, 14, 41, 0
14, 37911, Control_c, 14, 11, 87
14, 37911, Note_on_c, 14, 46, 104
14, 37919, Note_on_c, 14, 46, 0
14, 37926, Note_on_c, 14, 45, 104
14, 37949, Note_on_c, 14, 45, 0
14, 37971, Note_on_c, 14, 43, 104
14, 37979, Note_on_c, 14, 43, 0
14, 37986, Note_on_c, 14, 41, 104
14, 38016, Note_on_c, 14, 41, 0
14, 38091, Note_on_c, 14, 43, 104
14, 38099, Note_on_c, 14, 43, 0
14, 38106, Note_on_c, 14, 41, 104
14, 38129, Note_on_c, 14, 41, 0
14, 38151, Note_on_c, 14, 37, 104
14, 38159, Note_on_c, 14, 37, 0
14, 38166, Note_on_c, 14, 38, 104
14, 38196, Note_on_c, 14, 38, 0
14, 38271, Note_on_c, 14, 43, 104
14, 38279, Note_on_c, 14, 43, 0
14, 38286, Note_on_c, 14, 41, 104
14, 38309, Note_on_c, 14, 41, 0
14, 38331, Note_on_c, 14, 37, 104
14, 38339, Note_on_c, 14, 37, 0
14, 38346, Note_on_c, 14, 38, 104
14, 38376, Note_on_c, 14, 38, 0
14, 38406, Note_on_c, 14, 48, 104
14, 38406, Control_c, 14, 11, 102
14, 38417, Control_c, 14, 11, 99
14, 38429, Control_c, 14, 11, 96
14, 38441, Control_c, 14, 11, 93
14, 38453, Control_c, 14, 11, 90
14, 38465, Control_c, 14, 11, 87
14, 38526, Note_on_c, 14, 48, 0
14, 38526, Note_on_c, 14, 46, 104
14, 38556, Note_on_c, 14, 46, 0
14, 38586, Note_on_c, 14, 43, 104
14, 38586, Control_c, 14, 11, 102
14, 38597, Control_c, 14, 11, 99
14, 38609, Control_c, 14, 11, 96
14, 38621, Control_c, 14, 11, 93
14, 38633, Control_c, 14, 11, 90
14, 38645, Control_c, 14, 11, 87
14, 38706, Note_on_c, 14, 43, 0
14, 38706, Note_on_c, 14, 48, 104
14, 38736, Note_on_c, 14, 48, 0
14, 38766, Control_c, 14, 11, 102
14, 38766, Note_on_c, 14, 45, 104
14, 38777, Control_c, 14, 11, 99
14, 38789, Control_c, 14, 11, 96
14, 38801, Control_c, 14, 11, 93
14, 38813, Control_c, 14, 11, 90
14, 38825, Control_c, 14, 11, 87
14, 38886, Note_on_c, 14, 45, 0
14, 38886, Control_c, 14, 11, 87
14, 38886, Note_on_c, 14, 46, 104
14, 38897, Control_c, 14, 11, 84
14, 38909, Control_c, 14, 11, 81
14, 38916, Note_on_c, 14, 46, 0
14, 38921, Control_c, 14, 11, 78
14, 38933, Control_c, 14, 11, 75
14, 38945, Control_c, 14, 11, 72
14, 38946, Note_on_c, 14, 48, 104
14, 38976, Note_on_c, 14, 48, 0
14, 39006, Control_c, 14, 11, 67
14, 39006, Note_on_c, 14, 36, 104
14, 39014, Control_c, 14, 11, 64
14, 39023, Control_c, 14, 11, 61
14, 39032, Control_c, 14, 11, 58
14, 39036, Note_on_c, 14, 36, 0
14, 39041, Control_c, 14, 11, 55
14, 39050, Control_c, 14, 11, 52
14, 39059, Control_c, 14, 11, 49
14, 39066, Note_on_c, 14, 41, 104
14, 39096, Control_c, 14, 11, 47
14, 39101, Control_c, 14, 11, 44
14, 39107, Control_c, 14, 11, 41
14, 39113, Control_c, 14, 11, 38
14, 39119, Control_c, 14, 11, 35
14, 39125, Control_c, 14, 11, 32
14, 39126, Note_on_c, 14, 41, 0
14, 39246, Control_c, 14, 11, 37
14, 39246, Note_on_c, 14, 36, 104
14, 39306, Note_on_c, 14, 36, 0
14, 39366, Note_on_c, 14, 36, 104
14, 39426, Note_on_c, 14, 36, 0
14, 39486, Note_on_c, 14, 36, 104
14, 39546, Note_on_c, 14, 36, 0
14, 39606, Note_on_c, 14, 36, 104
14, 39666, Note_on_c, 14, 36, 0
14, 39726, Note_on_c, 14, 36, 104
14, 39786, Note_on_c, 14, 36, 0
14, 39846, Note_on_c, 14, 36, 104
14, 39906, Note_on_c, 14, 36, 0
14, 39966, Note_on_c, 14, 36, 104
14, 40026, Note_on_c, 14, 36, 0
14, 40086, Note_on_c, 14, 36, 104
14, 40146, Note_on_c, 14, 36, 0
14, 40206, Note_on_c, 14, 36, 104
14, 40266, Note_on_c, 14, 36, 0
14, 40326, Note_on_c, 14, 36, 104
14, 40381, Note_on_c, 14, 36, 0
14, 40386, Note_on_c, 14, 36, 104
14, 40441, Note_on_c, 14, 36, 0
14, 40446, Note_on_c, 14, 36, 104
14, 40501, Note_on_c, 14, 36, 0
14, 40506, Note_on_c, 14, 41, 89
14, 40541, Control_c, 14, 11, 37
14, 40548, Control_c, 14, 11, 34
14, 40555, Control_c, 14, 11, 31
14, 40562, Control_c, 14, 11, 28
14, 40566, Note_on_c, 14, 41, 0
14, 40986, Control_c, 14, 11, 37
14, 40986, Note_on_c, 14, 45, 104
14, 41004, Control_c, 14, 11, 40
14, 41022, Control_c, 14, 11, 43
14, 41040, Control_c, 14, 11, 46
14, 41046, Note_on_c, 14, 45, 0
14, 41046, Note_on_c, 14, 41, 104
14, 41076, Note_on_c, 14, 41, 0
14, 41166, Note_on_c, 14, 41, 104
14, 41226, Note_on_c, 14, 41, 0
14, 41226, Note_on_c, 14, 36, 104
14, 41256, Note_on_c, 14, 36, 0
14, 41346, Note_on_c, 14, 36, 104
14, 41406, Note_on_c, 14, 36, 0
14, 41406, Note_on_c, 14, 48, 104
14, 41436, Note_on_c, 14, 48, 0
14, 41526, Note_on_c, 14, 46, 104
14, 41586, Note_on_c, 14, 46, 0
14, 41586, Note_on_c, 14, 45, 104
14, 41616, Note_on_c, 14, 45, 0
14, 41646, Note_on_c, 14, 43, 104
14, 41676, Note_on_c, 14, 43, 0
14, 41706, Note_on_c, 14, 41, 104
14, 41736, Note_on_c, 14, 41, 0
14, 41766, Note_on_c, 14, 40, 104
14, 41796, Note_on_c, 14, 40, 0
14, 41826, Note_on_c, 14, 36, 104
14, 41856, Note_on_c, 14, 36, 0
14, 41886, Note_on_c, 14, 41, 104
14, 41916, Note_on_c, 14, 41, 0
14, 41946, Control_c, 14, 11, 47
14, 41946, Note_on_c, 14, 36, 104
14, 41970, Control_c, 14, 11, 48
14, 41976, Note_on_c, 14, 36, 0
14, 41994, Control_c, 14, 11, 49
14, 42006, Note_on_c, 14, 36, 104
14, 42018, Control_c, 14, 11, 50
14, 42036, Note_on_c, 14, 36, 0
14, 42042, Control_c, 14, 11, 51
14, 42066, Note_on_c, 14, 36, 104
14, 42066, Control_c, 14, 11, 52
14, 42090, Control_c, 14, 11, 53
14, 42096, Note_on_c, 14, 36, 0
14, 42114, Control_c, 14, 11, 54
14, 42126, Note_on_c, 14, 36, 104
14, 42138, Control_c, 14, 11, 55
14, 42162, Control_c, 14, 11, 56
14, 42186, Control_c, 14, 11, 57
14, 42210, Control_c, 14, 11, 58
14, 42234, Control_c, 14, 11, 59
14, 42246, Note_on_c, 14, 36, 0
14, 42258, Control_c, 14, 11, 60
14, 42282, Control_c, 14, 11, 61
14, 42306, Control_c, 14, 11, 50
14, 42306, Note_on_c, 14, 46, 104
14, 42336, Note_on_c, 14, 46, 0
14, 42366, Note_on_c, 14, 45, 104
14, 42396, Note_on_c, 14, 45, 0
14, 42426, Note_on_c, 14, 43, 104
14, 42456, Note_on_c, 14, 43, 0
14, 42486, Note_on_c, 14, 42, 104
14, 42516, Note_on_c, 14, 42, 0
14, 42546, Note_on_c, 14, 38, 104
14, 42576, Note_on_c, 14, 38, 0
14, 42606, Note_on_c, 14, 43, 104
14, 42636, Note_on_c, 14, 43, 0
14, 42666, Control_c, 14, 11, 50
14, 42666, Note_on_c, 14, 38, 104
14, 42694, Control_c, 14, 11, 52
14, 42696, Note_on_c, 14, 38, 0
14, 42709, Control_c, 14, 11, 53
14, 42726, Note_on_c, 14, 38, 104
14, 42738, Control_c, 14, 11, 55
14, 42756, Note_on_c, 14, 38, 0
14, 42766, Control_c, 14, 11, 57
14, 42781, Control_c, 14, 11, 58
14, 42786, Note_on_c, 14, 38, 104
14, 42810, Control_c, 14, 11, 60
14, 42816, Note_on_c, 14, 38, 0
14, 42838, Control_c, 14, 11, 62
14, 42846, Note_on_c, 14, 38, 104
14, 42853, Control_c, 14, 11, 63
14, 42882, Control_c, 14, 11, 65
14, 42906, Note_on_c, 14, 38, 0
14, 42910, Control_c, 14, 11, 67
14, 42925, Control_c, 14, 11, 68
14, 42954, Control_c, 14, 11, 70
14, 42982, Control_c, 14, 11, 72
14, 42997, Control_c, 14, 11, 73
14, 43026, Note_on_c, 14, 50, 89
14, 43026, Control_c, 14, 11, 87
14, 43086, Note_on_c, 14, 50, 0
14, 43086, Note_on_c, 14, 48, 94
14, 43146, Note_on_c, 14, 48, 0
14, 43146, Note_on_c, 14, 46, 99
14, 43201, Note_on_c, 14, 46, 0
14, 43206, Control_c, 14, 11, 107
14, 43206, Note_on_c, 14, 45, 104
14, 43215, Control_c, 14, 11, 104
14, 43224, Control_c, 14, 11, 101
14, 43233, Control_c, 14, 11, 98
14, 43242, Control_c, 14, 11, 95
14, 43251, Control_c, 14, 11, 92
14, 43260, Control_c, 14, 11, 89
14, 43266, Note_on_c, 14, 45, 0
14, 43266, Note_on_c, 14, 41, 104
14, 43326, Note_on_c, 14, 41, 0
14, 43326, Note_on_c, 14, 46, 104
14, 43381, Note_on_c, 14, 46, 0
14, 43386, Control_c, 14, 11, 107
14, 43386, Note_on_c, 14, 42, 104
14, 43395, Control_c, 14, 11, 104
14, 43404, Control_c, 14, 11, 101
14, 43413, Control_c, 14, 11, 98
14, 43422, Control_c, 14, 11, 95
14, 43431, Control_c, 14, 11, 92
14, 43440, Control_c, 14, 11, 89
14, 43446, Note_on_c, 14, 42, 0
14, 43446, Note_on_c, 14, 38, 104
14, 43506, Note_on_c, 14, 38, 0
14, 43506, Note_on_c, 14, 43, 104
14, 43561, Note_on_c, 14, 43, 0
14, 43566, Control_c, 14, 11, 107
14, 43566, Note_on_c, 14, 40, 104
14, 43575, Control_c, 14, 11, 104
14, 43584, Control_c, 14, 11, 101
14, 43593, Control_c, 14, 11, 98
14, 43602, Control_c, 14, 11, 95
14, 43611, Control_c, 14, 11, 92
14, 43620, Control_c, 14, 11, 89
14, 43626, Note_on_c, 14, 40, 0
14, 43626, Note_on_c, 14, 36, 104
14, 43686, Note_on_c, 14, 36, 0
14, 43686, Note_on_c, 14, 41, 104
14, 43741, Note_on_c, 14, 41, 0
14, 43746, Control_c, 14, 11, 107
14, 43746, Note_on_c, 14, 46, 104
14, 43755, Control_c, 14, 11, 104
14, 43764, Control_c, 14, 11, 101
14, 43773, Control_c, 14, 11, 98
14, 43782, Control_c, 14, 11, 95
14, 43791, Control_c, 14, 11, 92
14, 43800, Control_c, 14, 11, 89
14, 43806, Note_on_c, 14, 46, 0
14, 43806, Note_on_c, 14, 45, 104
14, 43866, Note_on_c, 14, 45, 0
14, 43866, Note_on_c, 14, 43, 104
14, 43921, Note_on_c, 14, 43, 0
14, 43926, Note_on_c, 14, 48, 104
14, 43986, Note_on_c, 14, 48, 0
14, 43986, Note_on_c, 14, 36, 104
14, 44046, Note_on_c, 14, 36, 0
14, 44046, Note_on_c, 14, 36, 104
14, 44106, Note_on_c, 14, 36, 0
14, 44106, Note_on_c, 14, 36, 104
14, 44161, Note_on_c, 14, 36, 0
14, 44166, Note_on_c, 14, 36, 96
14, 44221, Note_on_c, 14, 36, 0
14, 44226, Note_on_c, 14, 36, 96
14, 44266, Control_c, 14, 11, 87
14, 44268, Control_c, 14, 11, 83
14, 44270, Control_c, 14, 11, 79
14, 44272, Control_c, 14, 11, 75
14, 44274, Control_c, 14, 11, 71
14, 44276, Control_c, 14, 11, 67
14, 44278, Control_c, 14, 11, 63
14, 44280, Control_c, 14, 11, 59
14, 44281, Note_on_c, 14, 36, 0
14, 44282, Control_c, 14, 11, 55
14, 44284, Control_c, 14, 11, 51
14, 44286, Note_on_c, 14, 29, 99
14, 44286, Control_c, 14, 11, 47
14, 44346, Note_on_c, 14, 29, 0
14, 44405, Program_c, 14, 45
14, 44406, Control_c, 14, 11, 100
14, 44406, Note_on_c, 14, 48, 44
14, 44466, Note_on_c, 14, 48, 0
14, 44466, Note_on_c, 14, 45, 44
14, 44526, Note_on_c, 14, 45, 0
14, 44586, Note_on_c, 14, 41, 44
14, 44646, Note_on_c, 14, 41, 0
14, 44646, Note_on_c, 14, 36, 44
14, 44706, Note_on_c, 14, 36, 0
14, 44766, Note_on_c, 14, 40, 44
14, 44826, Note_on_c, 14, 40, 0
14, 44826, Note_on_c, 14, 43, 44
14, 44886, Note_on_c, 14, 43, 0
14, 44946, Note_on_c, 14, 48, 44
14, 45006, Note_on_c, 14, 48, 0
14, 45006, Note_on_c, 14, 41, 44
14, 45066, Note_on_c, 14, 41, 0
14, 45126, Note_on_c, 14, 48, 44
14, 45186, Note_on_c, 14, 48, 0
14, 45186, Note_on_c, 14, 45, 44
14, 45246, Note_on_c, 14, 45, 0
14, 45306, Note_on_c, 14, 41, 44
14, 45366, Note_on_c, 14, 41, 0
14, 45366, Note_on_c, 14, 36, 44
14, 45426, Note_on_c, 14, 36, 0
14, 45486, Note_on_c, 14, 40, 44
14, 45546, Note_on_c, 14, 40, 0
14, 45546, Note_on_c, 14, 43, 44
14, 45606, Note_on_c, 14, 43, 0
14, 45666, Note_on_c, 14, 48, 44
14, 45726, Note_on_c, 14, 48, 0
14, 45726, Note_on_c, 14, 41, 44
14, 45786, Note_on_c, 14, 41, 0
14, 46385, Program_c, 14, 48
14, 46386, Note_on_c, 14, 36, 92
14, 46386, Control_c, 14, 11, 62
14, 46388, Control_c, 14, 11, 65
14, 46391, Control_c, 14, 11, 69
14, 46394, Control_c, 14, 11, 72
14, 46396, Control_c, 14, 11, 75
14, 46399, Control_c, 14, 11, 79
14, 46402, Control_c, 14, 11, 82
14, 46404, Control_c, 14, 11, 85
14, 46446, Note_on_c, 14, 36, 0
14, 46446, Note_on_c, 14, 41, 104
14, 46476, Note_on_c, 14, 41, 0
14, 46506, Control_c, 14, 11, 42
14, 46506, Note_on_c, 14, 29, 104
14, 46536, Note_on_c, 14, 29, 0
14, 46566, Note_on_c, 14, 29, 94
14, 46596, Note_on_c, 14, 29, 0
14, 46626, Note_on_c, 14, 29, 76
14, 46706, Control_c, 14, 11, 42
14, 46712, Control_c, 14, 11, 39
14, 46718, Control_c, 14, 11, 36
14, 46724, Control_c, 14, 11, 33
14, 46730, Control_c, 14, 11, 30
14, 46736, Control_c, 14, 11, 27
14, 46742, Control_c, 14, 11, 24
14, 46746, Note_on_c, 14, 29, 0
14, 46986, Control_c, 14, 121, 0
14, 46986, End_track
15, 0, Start_track
15, 0, MIDI_port, 0
15, 0, Title_t, "Sequ. by J.F.Lucarelli"
15, 0, End_track
16, 0, Start_track
16, 0, MIDI_port, 0
16, 0, Title_t, "j-f.lucarelli@infonie.be  --  http://perso.infonie.fr/espace-midi"
16, 0, End_track
17, 0, Start_track
17, 0, MIDI_port, 0
17, 0, Title_t, "Optimized for AWE 64  + 8 MB memory"
17, 0, End_track
18, 0, Start_track
18, 0, MIDI_port, 0
18, 0, Title_t, "\251 Juni 2001"
18, 0, End_track
19, 0, Start_track
19, 0, MIDI_port, 0
19, 0, Title_t, "Beethoven - Symphony no 1 in C - Andante cantabile con moto"
19, 0, End_track
0, 0, End_of_file