0, 0, Header, 1, 7, 240
1, 0, Start_track
1, 0, Time_signature, 4, 2, 24, 8
1, 0, Tempo, 500000
1, 0, End_track
2, 0, Start_track
2, 0, Text_t, "Piano"
2, 235, Note_on_c, 0, 51, 34
2, 286, Note_off_c, 0, 51, 64
2, 288, Note_on_c, 0, 55, 32
2, 338, Note_off_c, 0, 55, 64
2, 338, Note_on_c, 0, 46, 36
2, 389, Note_off_c, 0, 46, 64
2, 391, Note_on_c, 0, 51, 29
2, 441, Note_off_c, 0, 51, 64
2, 442, Note_on_c, 0, 55, 28
2, 492, Note_off_c, 0, 55, 64
2, 492, Note_on_c, 0, 50, 43
2, 545, Note_off_c, 0, 50, 64
2, 545, Note_on_c, 0, 51, 31
2, 595, Note_off_c, 0, 51, 64
2, 595, Note_on_c, 0, 55, 31
2, 646, Note_off_c, 0, 55, 64
2, 648, Note_on_c, 0, 46, 32
2, 698, Note_off_c, 0, 46, 64
2, 699, Note_on_c, 0, 51, 32
2, 749, Note_off_c, 0, 51, 64
2, 751, Note_on_c, 0, 55, 26
2, 802, Note_off_c, 0, 55, 64
2, 802, Note_on_c, 0, 50, 37
2, 852, Note_off_c, 0, 50, 64
2, 852, Note_on_c, 0, 51, 35
2, 905, Note_off_c, 0, 51, 64
2, 905, Note_on_c, 0, 82, 39
2, 906, Note_on_c, 0, 55, 31
2, 956, Note_off_c, 0, 55, 64
2, 956, Note_off_c, 0, 82, 64
2, 956, Note_on_c, 0, 82, 59
2, 957, Note_on_c, 0, 46, 28
2, 1006, Note_off_c, 0, 46, 64
2, 1008, Note_on_c, 0, 53, 35
2, 1059, Note_off_c, 0, 53, 64
2, 1059, Note_off_c, 0, 82, 64
2, 1059, Note_on_c, 0, 80, 45
2, 1060, Note_on_c, 0, 56, 28
2, 1109, Note_off_c, 0, 56, 64
2, 1111, Note_off_c, 0, 80, 64
2, 1112, Note_on_c, 0, 77, 43
2, 1112, Note_on_c, 0, 52, 37
2, 1162, Note_off_c, 0, 52, 64
2, 1163, Note_on_c, 0, 53, 36
2, 1213, Note_off_c, 0, 53, 64
2, 1215, Note_off_c, 0, 77, 64
2, 1215, Note_on_c, 0, 74, 41
2, 1215, Note_on_c, 0, 56, 29
2, 1265, Note_off_c, 0, 56, 64
2, 1266, Note_off_c, 0, 74, 64
2, 1266, Note_on_c, 0, 75, 43
2, 1267, Note_on_c, 0, 46, 34
2, 1316, Note_off_c, 0, 46, 64
2, 1316, Note_on_c, 0, 51, 31
2, 1368, Note_off_c, 0, 51, 64
2, 1369, Note_off_c, 0, 75, 64
2, 1369, Note_on_c, 0, 55, 27
2, 1419, Note_off_c, 0, 55, 64
2, 1420, Note_on_c, 0, 50, 41
2, 1470, Note_off_c, 0, 50, 64
2, 1472, Note_on_c, 0, 51, 32
2, 1523, Note_off_c, 0, 51, 64
2, 1523, Note_on_c, 0, 70, 39
2, 1524, Note_on_c, 0, 55, 31
2, 1573, Note_off_c, 0, 55, 64
2, 1575, Note_off_c, 0, 70, 64
2, 1575, Note_on_c, 0, 70, 53
2, 1576, Note_on_c, 0, 46, 26
2, 1626, Note_off_c, 0, 46, 64
2, 1626, Note_on_c, 0, 53, 30
2, 1677, Note_off_c, 0, 53, 64
2, 1677, Note_off_c, 0, 70, 64
2, 1677, Note_on_c, 0, 68, 37
2, 1678, Note_on_c, 0, 56, 27
2, 1729, Note_off_c, 0, 56, 64
2, 1729, Note_off_c, 0, 68, 64
2, 1730, Note_on_c, 0, 65, 40
2, 1730, Note_on_c, 0, 52, 31
2, 1780, Note_off_c, 0, 52, 64
2, 1780, Note_on_c, 0, 53, 36
2, 1830, Note_off_c, 0, 53, 64
2, 1832, Note_off_c, 0, 65, 64
2, 1833, Note_on_c, 0, 62, 43
2, 1833, Note_on_c, 0, 56, 30
2, 1883, Note_off_c, 0, 56, 64
2, 1884, Note_off_c, 0, 62, 64
2, 1884, Note_on_c, 0, 51, 32
2, 1884, Note_on_c, 0, 63, 46
2, 1884, Note_on_c, 0, 55, 35
2, 1885, Note_on_c, 0, 39, 25
2, 1934, Note_off_c, 0, 51, 64
2, 1934, Note_off_c, 0, 39, 64
2, 1935, Note_off_c, 0, 63, 64
2, 1936, Note_off_c, 0, 55, 64
2, 2089, Note_on_c, 0, 51, 35
2, 2140, Note_off_c, 0, 51, 64
2, 2140, Note_on_c, 0, 55, 28
2, 2191, Note_off_c, 0, 55, 64
2, 2193, Note_on_c, 0, 46, 30
2, 2244, Note_off_c, 0, 46, 64
2, 2244, Note_on_c, 0, 51, 31
2, 2294, Note_off_c, 0, 51, 64
2, 2296, Note_on_c, 0, 55, 32
2, 2347, Note_off_c, 0, 55, 64
2, 2347, Note_on_c, 0, 50, 44
2, 2398, Note_off_c, 0, 50, 64
2, 2400, Note_on_c, 0, 51, 32
2, 2450, Note_off_c, 0, 51, 64
2, 2450, Note_on_c, 0, 55, 31
2, 2501, Note_off_c, 0, 55, 64
2, 2501, Note_on_c, 0, 46, 36
2, 2553, Note_off_c, 0, 46, 64
2, 2554, Note_on_c, 0, 51, 31
2, 2604, Note_off_c, 0, 51, 64
2, 2604, Note_on_c, 0, 55, 20
2, 2655, Note_off_c, 0, 55, 64
2, 2657, Note_on_c, 0, 50, 43
2, 2707, Note_off_c, 0, 50, 64
2, 2708, Note_on_c, 0, 51, 29
2, 2758, Note_off_c, 0, 51, 64
2, 2760, Note_on_c, 0, 82, 39
2, 2760, Note_on_c, 0, 55, 29
2, 2810, Note_off_c, 0, 55, 64
2, 2811, Note_off_c, 0, 82, 64
2, 2811, Note_on_c, 0, 82, 59
2, 2811, Note_on_c, 0, 46, 31
2, 2861, Note_off_c, 0, 46, 64
2, 2861, Note_on_c, 0, 53, 37
2, 2914, Note_off_c, 0, 82, 64
2, 2914, Note_off_c, 0, 53, 64
2, 2915, Note_on_c, 0, 80, 45
2, 2915, Note_on_c, 0, 56, 29
2, 2964, Note_off_c, 0, 56, 64
2, 2964, Note_off_c, 0, 80, 64
2, 2965, Note_on_c, 0, 77, 43
2, 2965, Note_on_c, 0, 52, 32
2, 3015, Note_off_c, 0, 52, 64
2, 3017, Note_on_c, 0, 53, 38
2, 3068, Note_off_c, 0, 53, 64
2, 3068, Note_off_c, 0, 77, 64
2, 3068, Note_on_c, 0, 74, 41
2, 3069, Note_on_c, 0, 56, 29
2, 3119, Note_off_c, 0, 56, 64
2, 3120, Note_off_c, 0, 74, 64
2, 3120, Note_on_c, 0, 75, 43
2, 3121, Note_on_c, 0, 46, 40
2, 3171, Note_off_c, 0, 46, 64
2, 3171, Note_on_c, 0, 51, 40
2, 3222, Note_off_c, 0, 51, 64
2, 3222, Note_off_c, 0, 75, 64
2, 3222, Note_on_c, 0, 55, 31
2, 3274, Note_off_c, 0, 55, 64
2, 3275, Note_on_c, 0, 50, 36
2, 3325, Note_off_c, 0, 50, 64
2, 3325, Note_on_c, 0, 51, 29
2, 3377, Note_off_c, 0, 51, 64
2, 3378, Note_on_c, 0, 70, 39
2, 3378, Note_on_c, 0, 55, 29
2, 3428, Note_off_c, 0, 55, 64
2, 3429, Note_off_c, 0, 70, 64
2, 3429, Note_on_c, 0, 70, 54
2, 3430, Note_on_c, 0, 46, 38
2, 3479, Note_off_c, 0, 46, 64
2, 3481, Note_on_c, 0, 53, 36
2, 3531, Note_off_c, 0, 53, 64
2, 3532, Note_off_c, 0, 70, 64
2, 3532, Note_on_c, 0, 68, 37
2, 3533, Note_on_c, 0, 56, 27
2, 3582, Note_off_c, 0, 56, 64
2, 3584, Note_off_c, 0, 68, 64
2, 3584, Note_on_c, 0, 65, 40
2, 3585, Note_on_c, 0, 52, 37
2, 3635, Note_off_c, 0, 52, 64
2, 3635, Note_on_c, 0, 53, 41
2, 3685, Note_off_c, 0, 53, 64
2, 3685, Note_off_c, 0, 65, 64
2, 3686, Note_on_c, 0, 62, 43
2, 3686, Note_on_c, 0, 56, 30
2, 3738, Note_off_c, 0, 56, 64
2, 3738, Note_off_c, 0, 62, 64
2, 3739, Note_on_c, 0, 55, 35
2, 3739, Note_on_c, 0, 63, 46
2, 3740, Note_on_c, 0, 39, 37
2, 3740, Note_on_c, 0, 51, 31
2, 3789, Note_off_c, 0, 51, 64
2, 3789, Note_off_c, 0, 39, 64
2, 3790, Note_off_c, 0, 63, 64
2, 3790, Note_off_c, 0, 55, 64
2, 3892, Note_on_c, 0, 58, 39
2, 3942, Note_off_c, 0, 58, 64
2, 3995, Note_on_c, 0, 58, 35
2, 4046, Note_off_c, 0, 58, 64
2, 4046, Control_c, 0, 64, 127
2, 4047, Note_on_c, 0, 63, 52
2, 4047, Note_on_c, 0, 55, 50
2, 4048, Note_on_c, 0, 39, 47
2, 4048, Note_on_c, 0, 51, 38
2, 4098, Note_off_c, 0, 55, 64
2, 4099, Note_off_c, 0, 63, 64
2, 4149, Note_off_c, 0, 51, 64
2, 4149, Note_off_c, 0, 39, 64
2, 4150, Note_on_c, 0, 63, 35
2, 4200, Note_off_c, 0, 63, 64
2, 4201, Note_on_c, 0, 58, 35
2, 4202, Note_on_c, 0, 58, 37
2, 4252, Note_off_c, 0, 58, 64
2, 4303, Note_off_c, 0, 58, 64
2, 4305, Control_c, 0, 64, 0
2, 4305, Note_on_c, 0, 58, 35
2, 4356, Note_off_c, 0, 58, 64
2, 4356, Note_on_c, 0, 63, 40
2, 4356, Note_on_c, 0, 55, 39
2, 4406, Note_off_c, 0, 55, 64
2, 4406, Note_off_c, 0, 63, 64
2, 4459, Note_on_c, 0, 63, 31
2, 4510, Note_off_c, 0, 63, 64
2, 4510, Note_on_c, 0, 58, 34
2, 4511, Note_on_c, 0, 58, 40
2, 4562, Note_off_c, 0, 58, 64
2, 4613, Note_off_c, 0, 58, 64
2, 4613, Note_on_c, 0, 58, 33
2, 4663, Note_off_c, 0, 58, 64
2, 4665, Note_on_c, 0, 63, 39
2, 4666, Note_on_c, 0, 55, 40
2, 4716, Note_off_c, 0, 55, 64
2, 4716, Note_off_c, 0, 63, 64
2, 4769, Note_on_c, 0, 63, 35
2, 4819, Note_off_c, 0, 63, 64
2, 4820, Note_on_c, 0, 58, 33
2, 4820, Note_on_c, 0, 58, 39
2, 4870, Note_off_c, 0, 58, 64
2, 4922, Note_off_c, 0, 58, 64
2, 4922, Note_on_c, 0, 58, 32
2, 4973, Note_off_c, 0, 58, 64
2, 4974, Note_on_c, 0, 62, 37
2, 4974, Note_on_c, 0, 65, 38
2, 4974, Note_on_c, 0, 58, 34
2, 5024, Note_off_c, 0, 65, 64
2, 5024, Note_off_c, 0, 62, 64
2, 5076, Note_off_c, 0, 58, 64
2, 5076, Note_on_c, 0, 62, 43
2, 5077, Note_on_c, 0, 65, 31
2, 5127, Note_off_c, 0, 65, 64
2, 5127, Note_off_c, 0, 62, 64
2, 5129, Note_on_c, 0, 58, 34
2, 5180, Note_off_c, 0, 58, 64
2, 5231, Note_on_c, 0, 58, 35
2, 5283, Note_off_c, 0, 58, 64
2, 5283, Control_c, 0, 64, 127
2, 5284, Note_on_c, 0, 65, 51
2, 5284, Note_on_c, 0, 62, 52
2, 5285, Note_on_c, 0, 34, 47
2, 5285, Note_on_c, 0, 46, 38
2, 5334, Note_off_c, 0, 62, 64
2, 5334, Note_off_c, 0, 65, 64
2, 5384, Note_off_c, 0, 46, 64
2, 5385, Note_off_c, 0, 34, 64
2, 5386, Note_on_c, 0, 62, 49
2, 5387, Note_on_c, 0, 65, 34
2, 5437, Note_off_c, 0, 65, 64
2, 5437, Note_off_c, 0, 62, 64
2, 5437, Note_on_c, 0, 58, 34
2, 5438, Note_on_c, 0, 58, 37
2, 5487, Note_off_c, 0, 58, 64
2, 5541, Note_off_c, 0, 58, 64
2, 5541, Control_c, 0, 64, 0
2, 5541, Note_on_c, 0, 58, 34
2, 5591, Note_off_c, 0, 58, 64
2, 5593, Note_on_c, 0, 65, 38
2, 5593, Note_on_c, 0, 62, 40
2, 5643, Note_off_c, 0, 62, 64
2, 5644, Note_off_c, 0, 65, 64
2, 5694, Note_on_c, 0, 65, 35
2, 5695, Note_on_c, 0, 62, 39
2, 5747, Note_off_c, 0, 62, 64
2, 5747, Note_off_c, 0, 65, 64
2, 5748, Note_on_c, 0, 58, 40
2, 5748, Note_on_c, 0, 58, 35
2, 5797, Note_off_c, 0, 58, 64
2, 5848, Note_off_c, 0, 58, 64
2, 5850, Note_on_c, 0, 58, 34
2, 5901, Note_off_c, 0, 58, 64
2, 5901, Note_on_c, 0, 65, 31
2, 5902, Note_on_c, 0, 62, 34
2, 5952, Note_off_c, 0, 62, 64
2, 5952, Note_off_c, 0, 65, 64
2, 6004, Note_on_c, 0, 65, 31
2, 6004, Note_on_c, 0, 62, 38
2, 6055, Note_off_c, 0, 62, 64
2, 6055, Note_off_c, 0, 65, 64
2, 6056, Note_on_c, 0, 58, 32
2, 6056, Note_on_c, 0, 58, 39
2, 6107, Note_off_c, 0, 58, 64
2, 6158, Note_off_c, 0, 58, 64
2, 6158, Note_on_c, 0, 58, 34
2, 6208, Note_off_c, 0, 58, 64
2, 6211, Note_on_c, 0, 63, 36
2, 6211, Note_on_c, 0, 67, 37
2, 6211, Note_on_c, 0, 58, 34
2, 6261, Note_off_c, 0, 67, 64
2, 6262, Note_off_c, 0, 63, 64
2, 6312, Note_off_c, 0, 58, 64
2, 6314, Note_on_c, 0, 67, 44
2, 6364, Note_off_c, 0, 67, 64
2, 6365, Note_on_c, 0, 51, 38
2, 6365, Note_on_c, 0, 63, 32
2, 6415, Note_off_c, 0, 63, 64
2, 6468, Note_on_c, 0, 63, 31
2, 6518, Note_off_c, 0, 63, 64
2, 6518, Note_on_c, 0, 68, 36
2, 6519, Note_on_c, 0, 48, 34
2, 6569, Note_off_c, 0, 68, 64
2, 6622, Note_on_c, 0, 68, 32
2, 6672, Note_off_c, 0, 68, 64
2, 6672, Note_off_c, 0, 48, 64
2, 6674, Note_on_c, 0, 44, 38
2, 6674, Note_on_c, 0, 72, 41
2, 6725, Note_off_c, 0, 72, 64
2, 6778, Note_on_c, 0, 72, 34
2, 6828, Note_off_c, 0, 72, 64
2, 6828, Note_off_c, 0, 44, 64
2, 6828, Note_on_c, 0, 70, 35
2, 6829, Note_on_c, 0, 43, 34
2, 6879, Note_off_c, 0, 70, 64
2, 6931, Note_off_c, 0, 43, 64
2, 6932, Note_off_c, 0, 51, 64
2, 6932, Note_on_c, 0, 70, 32
2, 6982, Note_off_c, 0, 70, 64
2, 6982, Note_on_c, 0, 75, 40
2, 6983, Note_on_c, 0, 51, 38
2, 7032, Note_off_c, 0, 75, 64
2, 7085, Note_on_c, 0, 75, 45
2, 7136, Note_off_c, 0, 75, 64
2, 7138, Note_on_c, 0, 80, 45
2, 7138, Note_on_c, 0, 48, 34
2, 7188, Note_off_c, 0, 80, 64
2, 7239, Note_on_c, 0, 80, 33
2, 7292, Note_off_c, 0, 80, 64
2, 7292, Note_off_c, 0, 48, 64
2, 7293, Note_on_c, 0, 84, 46
2, 7293, Note_on_c, 0, 44, 38
2, 7343, Note_off_c, 0, 84, 64
2, 7395, Note_on_c, 0, 84, 35
2, 7446, Note_off_c, 0, 84, 64
2, 7446, Note_off_c, 0, 44, 64
2, 7446, Note_on_c, 0, 82, 39
2, 7447, Note_on_c, 0, 43, 34
2, 7496, Note_off_c, 0, 82, 64
2, 7549, Note_off_c, 0, 43, 64
2, 7549, Note_off_c, 0, 51, 64
2, 7549, Note_on_c, 0, 70, 34
2, 7600, Note_off_c, 0, 70, 64
2, 7600, Note_on_c, 0, 51, 38
2, 7600, Note_on_c, 0, 63, 31
2, 7652, Note_off_c, 0, 63, 64
2, 7703, Note_on_c, 0, 63, 28
2, 7755, Note_off_c, 0, 63, 64
2, 7756, Note_on_c, 0, 68, 34
2, 7756, Note_on_c, 0, 48, 34
2, 7806, Note_off_c, 0, 68, 64
2, 7859, Note_on_c, 0, 68, 38
2, 7909, Note_off_c, 0, 68, 64
2, 7910, Note_off_c, 0, 48, 64
2, 7910, Note_on_c, 0, 72, 49
2, 7911, Note_on_c, 0, 44, 38
2, 7960, Note_off_c, 0, 72, 64
2, 8013, Note_on_c, 0, 72, 49
2, 8064, Note_off_c, 0, 72, 64
2, 8064, Note_off_c, 0, 44, 64
2, 8064, Note_on_c, 0, 70, 35
2, 8064, Note_on_c, 0, 43, 34
2, 8116, Note_off_c, 0, 70, 64
2, 8167, Note_off_c, 0, 43, 64
2, 8167, Note_off_c, 0, 51, 64
2, 8167, Note_on_c, 0, 67, 35
2, 8217, Note_off_c, 0, 67, 64
2, 8220, Note_on_c, 0, 65, 37
2, 8220, Note_on_c, 0, 44, 38
2, 8220, Note_on_c, 0, 53, 34
2, 8270, Note_off_c, 0, 65, 64
2, 8320, Note_off_c, 0, 53, 64
2, 8321, Note_off_c, 0, 44, 64
2, 8323, Note_on_c, 0, 68, 35
2, 8373, Note_off_c, 0, 68, 64
2, 8374, Note_on_c, 0, 63, 31
2, 8374, Note_on_c, 0, 46, 35
2, 8374, Note_on_c, 0, 55, 32
2, 8424, Note_off_c, 0, 63, 64
2, 8476, Note_off_c, 0, 55, 64
2, 8476, Note_off_c, 0, 46, 64
2, 8477, Note_on_c, 0, 67, 31
2, 8527, Note_off_c, 0, 67, 64
2, 8527, Note_on_c, 0, 62, 33
2, 8528, Note_on_c, 0, 56, 29
2, 8529, Note_on_c, 0, 46, 33
2, 8578, Note_off_c, 0, 62, 64
2, 8630, Note_off_c, 0, 46, 64
2, 8630, Note_off_c, 0, 56, 64
2, 8631, Note_on_c, 0, 65, 30
2, 8681, Note_off_c, 0, 65, 64
2, 8683, Note_on_c, 0, 63, 35
2, 8683, Note_on_c, 0, 39, 31
2, 8784, Note_off_c, 0, 39, 64
2, 8784, Note_off_c, 0, 63, 64
2, 8837, Note_on_c, 0, 63, 30
2, 8837, Note_on_c, 0, 51, 35
2, 8888, Note_off_c, 0, 63, 64
2, 8940, Note_off_c, 0, 51, 64
2, 8940, Note_on_c, 0, 63, 31
2, 8991, Note_off_c, 0, 63, 64
2, 8991, Note_on_c, 0, 68, 37
2, 8991, Note_on_c, 0, 47, 44
2, 9041, Note_off_c, 0, 68, 64
2, 9094, Note_on_c, 0, 68, 37
2, 9144, Note_off_c, 0, 68, 64
2, 9145, Note_off_c, 0, 47, 64
2, 9147, Note_on_c, 0, 71, 41
2, 9147, Note_on_c, 0, 44, 38
2, 9197, Note_off_c, 0, 71, 64
2, 9248, Note_on_c, 0, 71, 46
2, 9300, Note_off_c, 0, 71, 64
2, 9301, Note_off_c, 0, 44, 64
2, 9301, Note_on_c, 0, 70, 35
2, 9302, Note_on_c, 0, 42, 39
2, 9351, Note_off_c, 0, 70, 64
2, 9402, Note_off_c, 0, 42, 64
2, 9404, Note_on_c, 0, 70, 31
2, 9455, Note_off_c, 0, 70, 64
2, 9455, Note_on_c, 0, 75, 38
2, 9456, Note_on_c, 0, 51, 37
2, 9505, Note_off_c, 0, 75, 64
2, 9558, Note_off_c, 0, 51, 64
2, 9558, Note_on_c, 0, 75, 39
2, 9609, Note_off_c, 0, 75, 64
2, 9609, Note_on_c, 0, 80, 40
2, 9610, Note_on_c, 0, 47, 39
2, 9661, Note_off_c, 0, 80, 64
2, 9712, Note_on_c, 0, 80, 38
2, 9762, Note_off_c, 0, 80, 64
2, 9763, Note_off_c, 0, 47, 64
2, 9764, Note_on_c, 0, 83, 40
2, 9765, Note_on_c, 0, 44, 34
2, 9815, Note_off_c, 0, 83, 64
2, 9868, Note_on_c, 0, 83, 39
2, 9918, Note_off_c, 0, 83, 64
2, 9919, Note_off_c, 0, 44, 64
2, 9919, Note_on_c, 0, 82, 37
2, 9919, Note_on_c, 0, 42, 34
2, 9969, Note_off_c, 0, 82, 64
2, 10021, Note_off_c, 0, 42, 64
2, 10021, Note_on_c, 0, 70, 34
2, 10072, Note_off_c, 0, 70, 64
2, 10072, Note_on_c, 0, 63, 31
2, 10073, Note_on_c, 0, 51, 31
2, 10125, Note_off_c, 0, 63, 64
2, 10176, Note_off_c, 0, 51, 64
2, 10176, Note_on_c, 0, 63, 31
2, 10226, Note_off_c, 0, 63, 64
2, 10228, Note_on_c, 0, 69, 43
2, 10228, Note_on_c, 0, 48, 34
2, 10279, Note_off_c, 0, 69, 64
2, 10332, Note_on_c, 0, 69, 38
2, 10382, Note_off_c, 0, 69, 64
2, 10382, Note_off_c, 0, 48, 64
2, 10382, Note_on_c, 0, 72, 40
2, 10383, Note_on_c, 0, 46, 36
2, 10432, Note_off_c, 0, 72, 64
2, 10485, Note_on_c, 0, 72, 40
2, 10536, Note_off_c, 0, 72, 64
2, 10536, Note_off_c, 0, 46, 64
2, 10537, Note_on_c, 0, 45, 31
2, 10537, Note_on_c, 0, 65, 34
2, 10586, Note_off_c, 0, 45, 64
2, 10589, Note_on_c, 0, 60, 34
2, 10613, Note_off_c, 0, 60, 64
2, 10639, Note_on_c, 0, 63, 25
2, 10666, Note_off_c, 0, 63, 64
2, 10692, Note_on_c, 0, 77, 52
2, 10692, Note_on_c, 0, 57, 39
2, 10716, Note_off_c, 0, 57, 64
2, 10742, Note_on_c, 0, 60, 35
2, 10767, Note_off_c, 0, 60, 64
2, 10794, Note_on_c, 0, 63, 24
2, 10819, Note_off_c, 0, 63, 64
2, 10846, Note_off_c, 0, 77, 64
2, 10846, Note_on_c, 0, 57, 40
2, 10870, Note_off_c, 0, 57, 64
2, 10896, Note_on_c, 0, 60, 25
2, 10922, Note_off_c, 0, 60, 64
2, 10949, Note_on_c, 0, 63, 30
2, 10973, Note_off_c, 0, 63, 64
2, 11000, Note_off_c, 0, 65, 64
2, 11000, Note_on_c, 0, 77, 50
2, 11000, Note_on_c, 0, 57, 41
2, 11026, Note_off_c, 0, 57, 64
2, 11052, Note_on_c, 0, 60, 39
2, 11076, Note_off_c, 0, 60, 64
2, 11103, Note_off_c, 0, 77, 64
2, 11103, Note_on_c, 0, 63, 28
2, 11129, Note_off_c, 0, 63, 64
2, 11156, Note_on_c, 0, 77, 53
2, 11156, Note_on_c, 0, 57, 38
2, 11180, Note_off_c, 0, 57, 64
2, 11206, Note_on_c, 0, 60, 35
2, 11231, Note_off_c, 0, 60, 64
2, 11257, Note_off_c, 0, 77, 64
2, 11257, Note_on_c, 0, 63, 28
2, 11283, Note_off_c, 0, 63, 64
2, 11309, Note_on_c, 0, 77, 56
2, 11310, Note_on_c, 0, 57, 38
2, 11334, Note_off_c, 0, 57, 64
2, 11360, Note_on_c, 0, 60, 34
2, 11386, Note_off_c, 0, 60, 64
2, 11411, Note_off_c, 0, 77, 64
2, 11412, Note_on_c, 0, 63, 30
2, 11437, Note_off_c, 0, 63, 64
2, 11463, Note_on_c, 0, 77, 60
2, 11464, Note_on_c, 0, 57, 47
2, 11490, Note_off_c, 0, 57, 64
2, 11516, Note_on_c, 0, 60, 27
2, 11541, Note_off_c, 0, 60, 64
2, 11567, Note_off_c, 0, 77, 64
2, 11567, Note_on_c, 0, 63, 32
2, 11591, Note_off_c, 0, 63, 64
2, 11617, Note_on_c, 0, 77, 62
2, 11617, Note_on_c, 0, 62, 38
2, 11643, Note_off_c, 0, 62, 64
2, 11670, Note_on_c, 0, 60, 41
2, 11694, Note_off_c, 0, 60, 64
2, 11721, Note_off_c, 0, 77, 64
2, 11721, Note_on_c, 0, 58, 39
2, 11747, Note_off_c, 0, 58, 64
2, 11773, Note_on_c, 0, 77, 44
2, 11774, Note_on_c, 0, 57, 41
2, 11797, Note_off_c, 0, 57, 64
2, 11824, Note_on_c, 0, 60, 35
2, 11850, Note_off_c, 0, 60, 64
2, 11877, Note_on_c, 0, 63, 28
2, 11901, Note_off_c, 0, 63, 64
2, 11927, Note_on_c, 0, 89, 63
2, 11928, Note_on_c, 0, 57, 38
2, 11952, Note_off_c, 0, 57, 64
2, 11978, Note_on_c, 0, 60, 23
2, 12004, Note_off_c, 0, 60, 64
2, 12031, Note_on_c, 0, 63, 27
2, 12055, Note_off_c, 0, 63, 64
2, 12081, Note_off_c, 0, 89, 64
2, 12081, Note_on_c, 0, 57, 41
2, 12107, Note_off_c, 0, 57, 64
2, 12133, Note_on_c, 0, 60, 32
2, 12158, Note_off_c, 0, 60, 64
2, 12184, Note_on_c, 0, 63, 27
2, 12210, Note_off_c, 0, 63, 64
2, 12235, Note_off_c, 0, 77, 64
2, 12237, Note_on_c, 0, 89, 40
2, 12237, Note_on_c, 0, 77, 33
2, 12238, Note_on_c, 0, 57, 43
2, 12261, Note_off_c, 0, 57, 64
2, 12288, Note_on_c, 0, 60, 34
2, 12314, Note_off_c, 0, 60, 64
2, 12338, Note_off_c, 0, 77, 64
2, 12338, Note_off_c, 0, 89, 64
2, 12340, Note_on_c, 0, 63, 32
2, 12364, Note_off_c, 0, 63, 64
2, 12391, Note_on_c, 0, 77, 34
2, 12391, Note_on_c, 0, 89, 44
2, 12392, Note_on_c, 0, 57, 45
2, 12415, Note_off_c, 0, 57, 64
2, 12442, Note_on_c, 0, 60, 32
2, 12468, Note_off_c, 0, 60, 64
2, 12494, Note_off_c, 0, 89, 64
2, 12494, Note_off_c, 0, 77, 64
2, 12494, Note_on_c, 0, 63, 25
2, 12518, Note_off_c, 0, 63, 64
2, 12545, Note_on_c, 0, 89, 47
2, 12545, Note_on_c, 0, 77, 35
2, 12545, Note_on_c, 0, 57, 40
2, 12571, Note_off_c, 0, 57, 64
2, 12598, Note_on_c, 0, 60, 38
2, 12622, Note_off_c, 0, 60, 64
2, 12648, Note_off_c, 0, 77, 64
2, 12648, Note_off_c, 0, 89, 64
2, 12648, Note_on_c, 0, 63, 32
2, 12674, Note_off_c, 0, 63, 64
2, 12701, Note_on_c, 0, 89, 53
2, 12701, Note_on_c, 0, 77, 38
2, 12701, Note_on_c, 0, 57, 40
2, 12725, Note_off_c, 0, 57, 64
2, 12751, Note_on_c, 0, 60, 35
2, 12776, Note_off_c, 0, 60, 64
2, 12802, Note_off_c, 0, 77, 64
2, 12802, Note_off_c, 0, 89, 64
2, 12803, Note_on_c, 0, 63, 31
2, 12828, Note_off_c, 0, 63, 64
2, 12854, Note_on_c, 0, 89, 58
2, 12855, Note_on_c, 0, 77, 42
2, 12855, Note_on_c, 0, 57, 39
2, 12879, Note_off_c, 0, 57, 64
2, 12905, Note_on_c, 0, 60, 38
2, 12931, Note_off_c, 0, 60, 64
2, 12956, Note_off_c, 0, 77, 64
2, 12956, Note_off_c, 0, 89, 64
2, 12958, Note_on_c, 0, 63, 28
2, 12982, Note_off_c, 0, 63, 64
2, 13008, Note_on_c, 0, 89, 61
2, 13009, Note_on_c, 0, 77, 58
2, 13009, Note_on_c, 0, 57, 40
2, 13034, Note_off_c, 0, 57, 64
2, 13061, Note_on_c, 0, 60, 35
2, 13085, Note_off_c, 0, 60, 64
2, 13112, Note_off_c, 0, 77, 64
2, 13112, Note_off_c, 0, 89, 64
2, 13112, Note_on_c, 0, 81, 37
2, 13113, Note_on_c, 0, 63, 30
2, 13136, Note_off_c, 0, 63, 64
2, 13162, Note_off_c, 0, 81, 64
2, 13163, Note_on_c, 0, 82, 38
2, 13163, Note_on_c, 0, 62, 39
2, 13188, Note_off_c, 0, 62, 64
2, 13215, Note_off_c, 0, 82, 64
2, 13215, Note_on_c, 0, 84, 46
2, 13215, Note_on_c, 0, 60, 35
2, 13239, Note_off_c, 0, 60, 64
2, 13266, Note_off_c, 0, 84, 64
2, 13266, Note_on_c, 0, 86, 41
2, 13266, Note_on_c, 0, 58, 34
2, 13292, Note_off_c, 0, 58, 64
2, 13318, Note_off_c, 0, 86, 64
2, 13318, Note_on_c, 0, 57, 38
2, 13343, Note_off_c, 0, 57, 64
2, 13369, Note_on_c, 0, 58, 29
2, 13395, Note_off_c, 0, 58, 64
2, 13421, Note_on_c, 0, 78, 36
2, 13422, Note_on_c, 0, 60, 40
2, 13446, Note_off_c, 0, 60, 64
2, 13472, Note_off_c, 0, 78, 64
2, 13472, Note_on_c, 0, 79, 46
2, 13473, Note_on_c, 0, 58, 38
2, 13499, Note_off_c, 0, 58, 64
2, 13523, Note_off_c, 0, 79, 64
2, 13525, Note_on_c, 0, 81, 45
2, 13525, Note_on_c, 0, 57, 35
2, 13549, Note_off_c, 0, 57, 64
2, 13575, Note_off_c, 0, 81, 64
2, 13575, Note_on_c, 0, 82, 40
2, 13576, Note_on_c, 0, 55, 37
2, 13600, Note_off_c, 0, 55, 64
2, 13626, Note_off_c, 0, 82, 64
2, 13626, Note_on_c, 0, 53, 46
2, 13652, Note_off_c, 0, 53, 64
2, 13679, Note_on_c, 0, 55, 43
2, 13703, Note_off_c, 0, 55, 64
2, 13729, Note_on_c, 0, 74, 35
2, 13730, Note_on_c, 0, 56, 36
2, 13755, Note_off_c, 0, 56, 64
2, 13780, Note_off_c, 0, 74, 64
2, 13782, Note_on_c, 0, 75, 41
2, 13782, Note_on_c, 0, 55, 46
2, 13806, Note_off_c, 0, 55, 64
2, 13833, Note_off_c, 0, 75, 64
2, 13833, Note_on_c, 0, 77, 41
2, 13833, Note_on_c, 0, 53, 41
2, 13859, Note_off_c, 0, 53, 64
2, 13883, Note_off_c, 0, 77, 64
2, 13885, Note_on_c, 0, 79, 44
2, 13886, Note_on_c, 0, 51, 38
2, 13910, Note_off_c, 0, 51, 64
2, 13936, Note_off_c, 0, 79, 64
2, 13936, Note_on_c, 0, 50, 49
2, 13960, Note_off_c, 0, 50, 64
2, 13987, Note_on_c, 0, 51, 34
2, 14013, Note_off_c, 0, 51, 64
2, 14039, Note_on_c, 0, 71, 39
2, 14040, Note_on_c, 0, 53, 35
2, 14064, Note_off_c, 0, 53, 64
2, 14090, Note_off_c, 0, 71, 64
2, 14090, Note_on_c, 0, 72, 47
2, 14090, Note_on_c, 0, 51, 34
2, 14116, Note_off_c, 0, 51, 64
2, 14140, Note_off_c, 0, 72, 64
2, 14143, Note_on_c, 0, 74, 50
2, 14143, Note_on_c, 0, 50, 41
2, 14167, Note_off_c, 0, 50, 64
2, 14193, Note_off_c, 0, 74, 64
2, 14193, Note_on_c, 0, 75, 45
2, 14194, Note_on_c, 0, 48, 37
2, 14220, Note_off_c, 0, 48, 64
2, 14244, Note_off_c, 0, 75, 64
2, 14246, Note_on_c, 0, 39, 39
2, 14296, Note_on_c, 0, 60, 40
2, 14347, Note_off_c, 0, 60, 64
2, 14347, Note_off_c, 0, 39, 64
2, 14349, Note_on_c, 0, 63, 35
2, 14400, Note_off_c, 0, 63, 64
2, 14400, Note_on_c, 0, 67, 41
2, 14450, Note_off_c, 0, 67, 64
2, 14450, Note_on_c, 0, 63, 31
2, 14503, Note_off_c, 0, 63, 64
2, 14503, Note_on_c, 0, 67, 49
2, 14554, Note_off_c, 0, 67, 64
2, 14554, Note_on_c, 0, 72, 43
2, 14554, Note_on_c, 0, 51, 39
2, 14555, Note_on_c, 0, 55, 50
2, 14555, Note_on_c, 0, 60, 43
2, 14604, Note_off_c, 0, 72, 64
2, 14606, Note_on_c, 0, 67, 35
2, 14657, Note_off_c, 0, 67, 64
2, 14657, Note_off_c, 0, 60, 64
2, 14658, Note_off_c, 0, 55, 64
2, 14658, Note_off_c, 0, 51, 64
2, 14658, Note_on_c, 0, 72, 34
2, 14707, Note_off_c, 0, 72, 64
2, 14710, Note_on_c, 0, 75, 44
2, 14760, Note_off_c, 0, 75, 64
2, 14760, Note_on_c, 0, 72, 40
2, 14810, Note_off_c, 0, 72, 64
2, 14811, Note_on_c, 0, 75, 40
2, 14863, Note_off_c, 0, 75, 64
2, 14864, Note_on_c, 0, 79, 47
2, 14914, Note_off_c, 0, 79, 64
2, 14915, Note_on_c, 0, 77, 35
2, 14964, Note_off_c, 0, 77, 64
2, 14966, Note_on_c, 0, 75, 33
2, 15017, Note_off_c, 0, 75, 64
2, 15017, Note_on_c, 0, 74, 41
2, 15018, Note_on_c, 0, 51, 41
2, 15043, Note_off_c, 0, 51, 64
2, 15068, Note_off_c, 0, 74, 64
2, 15070, Note_on_c, 0, 75, 31
2, 15070, Note_on_c, 0, 55, 49
2, 15094, Note_off_c, 0, 55, 64
2, 15120, Note_off_c, 0, 75, 64
2, 15120, Note_on_c, 0, 72, 39
2, 15121, Note_on_c, 0, 60, 41
2, 15145, Note_off_c, 0, 60, 64
2, 15171, Note_off_c, 0, 72, 64
2, 15171, Note_on_c, 0, 77, 47
2, 15172, Note_on_c, 0, 53, 40
2, 15197, Note_off_c, 0, 53, 64
2, 15224, Note_off_c, 0, 77, 64
2, 15224, Note_on_c, 0, 74, 28
2, 15224, Note_on_c, 0, 58, 33
2, 15248, Note_off_c, 0, 58, 64
2, 15275, Note_off_c, 0, 74, 64
2, 15275, Note_on_c, 0, 70, 27
2, 15276, Note_on_c, 0, 62, 35
2, 15300, Note_off_c, 0, 62, 64
2, 15325, Note_off_c, 0, 70, 64
2, 15327, Note_on_c, 0, 75, 37
2, 15327, Note_on_c, 0, 53, 45
2, 15351, Note_off_c, 0, 53, 64
2, 15378, Note_off_c, 0, 75, 64
2, 15378, Note_on_c, 0, 72, 30
2, 15378, Note_on_c, 0, 60, 35
2, 15404, Note_off_c, 0, 60, 64
2, 15428, Note_off_c, 0, 72, 64
2, 15430, Note_on_c, 0, 69, 32
2, 15431, Note_on_c, 0, 63, 32
2, 15455, Note_off_c, 0, 63, 64
2, 15481, Note_off_c, 0, 69, 64
2, 15481, Note_on_c, 0, 57, 41
2, 15507, Note_off_c, 0, 57, 64
2, 15534, Note_on_c, 0, 89, 41
2, 15534, Note_on_c, 0, 60, 39
2, 15558, Note_off_c, 0, 60, 64
2, 15584, Note_off_c, 0, 89, 64
2, 15584, Note_on_c, 0, 81, 40
2, 15585, Note_on_c, 0, 63, 32
2, 15609, Note_off_c, 0, 63, 64
2, 15635, Note_off_c, 0, 81, 64
2, 15635, Note_on_c, 0, 82, 37
2, 15636, Note_on_c, 0, 62, 46
2, 15661, Note_off_c, 0, 62, 64
2, 15687, Note_off_c, 0, 82, 64
2, 15687, Note_on_c, 0, 84, 44
2, 15688, Note_on_c, 0, 60, 36
2, 15712, Note_off_c, 0, 60, 64
2, 15738, Note_off_c, 0, 84, 64
2, 15738, Note_on_c, 0, 86, 50
2, 15739, Note_on_c, 0, 58, 38
2, 15764, Note_off_c, 0, 58, 64
2, 15789, Note_off_c, 0, 86, 64
2, 15791, Note_on_c, 0, 57, 45
2, 15791, Note_on_c, 0, 58, 28
2, 15815, Note_off_c, 0, 58, 64
2, 15816, Note_off_c, 0, 57, 64
2, 15841, Note_on_c, 0, 86, 45
2, 15842, Note_on_c, 0, 58, 37
2, 15868, Note_off_c, 0, 58, 64
2, 15892, Note_off_c, 0, 86, 64
2, 15894, Note_on_c, 0, 78, 37
2, 15894, Note_on_c, 0, 60, 39
2, 15918, Note_off_c, 0, 60, 64
2, 15945, Note_off_c, 0, 78, 64
2, 15945, Note_on_c, 0, 79, 41
2, 15945, Note_on_c, 0, 58, 39
2, 15969, Note_off_c, 0, 58, 64
2, 15996, Note_off_c, 0, 79, 64
2, 15996, Note_on_c, 0, 81, 41
2, 15996, Note_on_c, 0, 57, 34
2, 16021, Note_off_c, 0, 57, 64
2, 16048, Note_off_c, 0, 81, 64
2, 16048, Note_on_c, 0, 82, 45
2, 16048, Note_on_c, 0, 55, 45
2, 16072, Note_off_c, 0, 55, 64
2, 16099, Note_off_c, 0, 82, 64
2, 16099, Note_on_c, 0, 53, 49
2, 16125, Note_off_c, 0, 53, 64
2, 16151, Note_on_c, 0, 82, 39
2, 16152, Note_on_c, 0, 55, 38
2, 16176, Note_off_c, 0, 55, 64
2, 16202, Note_off_c, 0, 82, 64
2, 16202, Note_on_c, 0, 74, 37
2, 16202, Note_on_c, 0, 56, 40
2, 16228, Note_off_c, 0, 56, 64
2, 16252, Note_off_c, 0, 74, 64
2, 16254, Note_on_c, 0, 75, 37
2, 16255, Note_on_c, 0, 55, 45
2, 16279, Note_off_c, 0, 55, 64
2, 16305, Note_off_c, 0, 75, 64
2, 16305, Note_on_c, 0, 77, 46
2, 16306, Note_on_c, 0, 53, 43
2, 16330, Note_off_c, 0, 53, 64
2, 16356, Note_off_c, 0, 77, 64
2, 16356, Note_on_c, 0, 79, 37
2, 16356, Note_on_c, 0, 51, 37
2, 16382, Note_off_c, 0, 51, 64
2, 16408, Note_off_c, 0, 79, 64
2, 16408, Note_on_c, 0, 50, 45
2, 16433, Note_off_c, 0, 50, 64
2, 16459, Note_on_c, 0, 79, 32
2, 16459, Note_on_c, 0, 51, 32
2, 16485, Note_off_c, 0, 51, 64
2, 16512, Note_off_c, 0, 79, 64
2, 16512, Note_on_c, 0, 71, 43
2, 16512, Note_on_c, 0, 53, 43
2, 16536, Note_off_c, 0, 53, 64
2, 16562, Note_off_c, 0, 71, 64
2, 16562, Note_on_c, 0, 72, 38
2, 16563, Note_on_c, 0, 51, 38
2, 16588, Note_off_c, 0, 51, 64
2, 16613, Note_off_c, 0, 72, 64
2, 16615, Note_on_c, 0, 74, 32
2, 16615, Note_on_c, 0, 50, 32
2, 16639, Note_off_c, 0, 50, 64
2, 16666, Note_off_c, 0, 74, 64
2, 16666, Note_on_c, 0, 75, 39
2, 16666, Note_on_c, 0, 48, 44
2, 16692, Note_off_c, 0, 48, 64
2, 16716, Note_off_c, 0, 75, 64
2, 16718, Note_on_c, 0, 39, 50
2, 16769, Note_on_c, 0, 55, 34
2, 16819, Note_off_c, 0, 55, 64
2, 16820, Note_off_c, 0, 39, 64
2, 16820, Note_on_c, 0, 60, 44
2, 16872, Note_off_c, 0, 60, 64
2, 16872, Note_on_c, 0, 63, 39
2, 16923, Note_off_c, 0, 63, 64
2, 16923, Note_on_c, 0, 60, 38
2, 16973, Note_off_c, 0, 60, 64
2, 16975, Note_on_c, 0, 63, 37
2, 17026, Note_off_c, 0, 63, 64
2, 17027, Note_on_c, 0, 67, 45
2, 17027, Note_on_c, 0, 55, 45
2, 17028, Note_on_c, 0, 51, 45
2, 17076, Note_off_c, 0, 51, 64
2, 17077, Note_off_c, 0, 55, 64
2, 17077, Note_off_c, 0, 67, 64
2, 17078, Note_on_c, 0, 60, 40
2, 17129, Note_off_c, 0, 60, 64
2, 17129, Note_on_c, 0, 63, 37
2, 17180, Note_off_c, 0, 63, 64
2, 17180, Note_on_c, 0, 67, 43
2, 17232, Note_off_c, 0, 67, 64
2, 17233, Note_on_c, 0, 63, 34
2, 17283, Note_off_c, 0, 63, 64
2, 17284, Note_on_c, 0, 67, 41
2, 17334, Note_off_c, 0, 67, 64
2, 17336, Note_on_c, 0, 72, 47
2, 17336, Note_on_c, 0, 51, 47
2, 17337, Note_on_c, 0, 60, 47
2, 17337, Note_on_c, 0, 55, 47
2, 17387, Note_off_c, 0, 55, 64
2, 17387, Note_off_c, 0, 60, 64
2, 17387, Note_off_c, 0, 51, 64
2, 17388, Note_off_c, 0, 72, 64
2, 17388, Note_on_c, 0, 63, 35
2, 17437, Note_off_c, 0, 63, 64
2, 17439, Note_on_c, 0, 67, 46
2, 17490, Note_off_c, 0, 67, 64
2, 17490, Note_on_c, 0, 72, 49
2, 17541, Note_off_c, 0, 72, 64
2, 17541, Note_on_c, 0, 67, 39
2, 17593, Note_off_c, 0, 67, 64
2, 17593, Note_on_c, 0, 72, 41
2, 17643, Note_off_c, 0, 72, 64
2, 17644, Note_on_c, 0, 75, 53
2, 17645, Note_on_c, 0, 51, 53
2, 17645, Note_on_c, 0, 63, 53
2, 17645, Note_on_c, 0, 55, 53
2, 17646, Note_on_c, 0, 60, 53
2, 17696, Note_off_c, 0, 60, 64
2, 17697, Note_off_c, 0, 55, 64
2, 17697, Note_off_c, 0, 63, 64
2, 17697, Note_off_c, 0, 51, 64
2, 17698, Note_off_c, 0, 75, 64
2, 17698, Note_on_c, 0, 67, 35
2, 17747, Note_off_c, 0, 67, 64
2, 17747, Note_on_c, 0, 72, 40
2, 17797, Note_off_c, 0, 72, 64
2, 17799, Note_on_c, 0, 75, 40
2, 17850, Note_off_c, 0, 75, 64
2, 17850, Note_on_c, 0, 72, 37
2, 17901, Note_off_c, 0, 72, 64
2, 17903, Note_on_c, 0, 75, 39
2, 17953, Note_off_c, 0, 75, 64
2, 17954, Note_on_c, 0, 79, 54
2, 18004, Note_off_c, 0, 79, 64
2, 18004, Note_on_c, 0, 67, 31
2, 18005, Note_on_c, 0, 63, 31
2, 18031, Note_off_c, 0, 63, 64
2, 18057, Note_off_c, 0, 67, 64
2, 18057, Note_on_c, 0, 72, 32
2, 18057, Note_on_c, 0, 60, 32
2, 18081, Note_off_c, 0, 60, 64
2, 18108, Note_off_c, 0, 72, 64
2, 18108, Note_on_c, 0, 75, 40
2, 18108, Note_on_c, 0, 55, 40
2, 18133, Note_off_c, 0, 55, 64
2, 18158, Note_off_c, 0, 75, 64
2, 18160, Note_on_c, 0, 72, 40
2, 18160, Note_on_c, 0, 60, 40
2, 18184, Note_off_c, 0, 60, 64
2, 18211, Note_off_c, 0, 72, 64
2, 18211, Note_on_c, 0, 75, 34
2, 18211, Note_on_c, 0, 55, 34
2, 18237, Note_off_c, 0, 55, 64
2, 18261, Note_off_c, 0, 75, 64
2, 18264, Note_on_c, 0, 79, 37
2, 18264, Note_on_c, 0, 51, 37
2, 18288, Note_off_c, 0, 51, 64
2, 18314, Note_off_c, 0, 79, 64
2, 18314, Note_on_c, 0, 67, 28
2, 18314, Note_on_c, 0, 63, 28
2, 18338, Note_off_c, 0, 63, 64
2, 18364, Note_off_c, 0, 67, 64
2, 18365, Note_on_c, 0, 72, 35
2, 18365, Note_on_c, 0, 60, 35
2, 18391, Note_off_c, 0, 60, 64
2, 18417, Note_off_c, 0, 72, 64
2, 18417, Note_on_c, 0, 75, 47
2, 18418, Note_on_c, 0, 55, 47
2, 18442, Note_off_c, 0, 55, 64
2, 18468, Note_off_c, 0, 75, 64
2, 18468, Note_on_c, 0, 72, 43
2, 18468, Note_on_c, 0, 60, 43
2, 18494, Note_off_c, 0, 60, 64
2, 18518, Note_off_c, 0, 72, 64
2, 18520, Note_on_c, 0, 75, 35
2, 18521, Note_on_c, 0, 55, 35
2, 18545, Note_off_c, 0, 55, 64
2, 18571, Note_off_c, 0, 75, 64
2, 18571, Note_on_c, 0, 79, 46
2, 18572, Note_on_c, 0, 51, 46
2, 18597, Note_off_c, 0, 51, 64
2, 18622, Note_off_c, 0, 79, 64
2, 18624, Note_on_c, 0, 67, 30
2, 18674, Note_off_c, 0, 67, 64
2, 18674, Note_on_c, 0, 66, 28
2, 18725, Note_off_c, 0, 66, 64
2, 18727, Note_on_c, 0, 67, 33
2, 18778, Note_off_c, 0, 67, 64
2, 18778, Note_on_c, 0, 68, 35
2, 18828, Note_off_c, 0, 68, 64
2, 18828, Note_on_c, 0, 69, 38
2, 18881, Note_off_c, 0, 69, 64
2, 18881, Note_on_c, 0, 70, 40
2, 18932, Note_off_c, 0, 70, 64
2, 18932, Note_on_c, 0, 71, 44
2, 18982, Note_off_c, 0, 71, 64
2, 18984, Note_on_c, 0, 72, 49
2, 19035, Note_off_c, 0, 72, 64
2, 19035, Note_on_c, 0, 73, 53
2, 19085, Note_off_c, 0, 73, 64
2, 19087, Note_on_c, 0, 74, 53
2, 19138, Note_off_c, 0, 74, 64
2, 19139, Note_on_c, 0, 75, 54
2, 19188, Note_off_c, 0, 75, 64
2, 19189, Note_on_c, 0, 76, 59
2, 19241, Note_off_c, 0, 76, 64
2, 19242, Note_on_c, 0, 77, 57
2, 19292, Note_off_c, 0, 77, 64
2, 19292, Note_on_c, 0, 78, 52
2, 19343, Note_off_c, 0, 78, 64
2, 19344, Note_on_c, 0, 79, 48
2, 19345, Note_on_c, 0, 51, 48
2, 19345, Note_on_c, 0, 60, 48
2, 19345, Note_on_c, 0, 55, 48
2, 19395, Note_off_c, 0, 79, 64
2, 19396, Note_on_c, 0, 75, 44
2, 19446, Note_off_c, 0, 75, 64
2, 19446, Note_off_c, 0, 55, 64
2, 19447, Note_off_c, 0, 60, 64
2, 19447, Note_off_c, 0, 51, 64
2, 19448, Note_on_c, 0, 72, 40
2, 19499, Note_off_c, 0, 72, 64
2, 19499, Note_on_c, 0, 70, 35
2, 19500, Note_on_c, 0, 53, 35
2, 19500, Note_on_c, 0, 62, 35
2, 19500, Note_on_c, 0, 58, 35
2, 19549, Note_off_c, 0, 70, 64
2, 19602, Note_off_c, 0, 58, 64
2, 19602, Note_off_c, 0, 62, 64
2, 19602, Note_off_c, 0, 53, 64
2, 19653, Note_on_c, 0, 63, 32
2, 19653, Note_on_c, 0, 53, 32
2, 19654, Note_on_c, 0, 57, 32
2, 19654, Note_on_c, 0, 60, 32
2, 19654, Note_on_c, 0, 53, 32
2, 19658, Note_on_c, 0, 72, 50
2, 19671, Note_off_c, 0, 72, 64
2, 19673, Note_on_c, 0, 74, 43
2, 19686, Note_off_c, 0, 74, 64
2, 19687, Note_on_c, 0, 72, 50
2, 19701, Note_off_c, 0, 72, 64
2, 19702, Note_on_c, 0, 74, 44
2, 19715, Note_off_c, 0, 74, 64
2, 19716, Note_on_c, 0, 72, 50
2, 19729, Note_off_c, 0, 72, 64
2, 19730, Note_on_c, 0, 70, 46
2, 19744, Note_off_c, 0, 70, 64
2, 19745, Note_on_c, 0, 72, 50
2, 19756, Note_off_c, 0, 60, 64
2, 19756, Note_off_c, 0, 57, 64
2, 19756, Note_off_c, 0, 53, 64
2, 19757, Note_off_c, 0, 53, 64
2, 19757, Note_off_c, 0, 63, 64
2, 19759, Note_off_c, 0, 72, 64
2, 19782, Note_on_c, 0, 72, 44
2, 19806, Note_off_c, 0, 72, 64
2, 19808, Note_on_c, 0, 70, 32
2, 19809, Note_on_c, 0, 46, 32
2, 19833, Note_off_c, 0, 46, 64
2, 19833, Note_off_c, 0, 70, 64
2, 19859, Note_on_c, 0, 53, 34
2, 19885, Note_off_c, 0, 53, 64
2, 19911, Note_on_c, 0, 70, 27
2, 19912, Note_on_c, 0, 58, 27
2, 19936, Note_off_c, 0, 58, 64
2, 19962, Note_off_c, 0, 70, 64
2, 19962, Note_on_c, 0, 74, 40
2, 19963, Note_on_c, 0, 62, 40
2, 19987, Note_off_c, 0, 62, 64
2, 19987, Note_off_c, 0, 74, 64
2, 20013, Note_on_c, 0, 58, 29
2, 20039, Note_off_c, 0, 58, 64
2, 20065, Note_on_c, 0, 74, 28
2, 20066, Note_on_c, 0, 53, 28
2, 20090, Note_off_c, 0, 53, 64
2, 20116, Note_off_c, 0, 74, 64
2, 20116, Note_on_c, 0, 77, 34
2, 20117, Note_on_c, 0, 46, 34
2, 20143, Note_off_c, 0, 46, 64
2, 20143, Note_off_c, 0, 77, 64
2, 20169, Note_on_c, 0, 53, 35
2, 20193, Note_off_c, 0, 53, 64
2, 20220, Note_on_c, 0, 77, 35
2, 20220, Note_on_c, 0, 58, 35
2, 20245, Note_off_c, 0, 58, 64
2, 20270, Note_off_c, 0, 77, 64
2, 20272, Note_on_c, 0, 82, 40
2, 20272, Note_on_c, 0, 62, 40
2, 20296, Note_off_c, 0, 62, 64
2, 20297, Note_off_c, 0, 82, 64
2, 20323, Note_on_c, 0, 58, 28
2, 20347, Note_off_c, 0, 58, 64
2, 20374, Note_on_c, 0, 82, 29
2, 20374, Note_on_c, 0, 53, 29
2, 20400, Note_off_c, 0, 53, 64
2, 20426, Note_off_c, 0, 82, 64
2, 20426, Note_on_c, 0, 86, 39
2, 20426, Note_on_c, 0, 46, 39
2, 20450, Note_off_c, 0, 46, 64
2, 20450, Note_off_c, 0, 86, 64
2, 20477, Note_on_c, 0, 53, 26
2, 20503, Note_off_c, 0, 53, 64
2, 20529, Note_on_c, 0, 86, 25
2, 20530, Note_on_c, 0, 58, 25
2, 20554, Note_off_c, 0, 58, 64
2, 20580, Note_off_c, 0, 86, 64
2, 20580, Note_on_c, 0, 89, 33
2, 20580, Note_on_c, 0, 62, 33
2, 20606, Note_off_c, 0, 62, 64
2, 20606, Note_off_c, 0, 89, 64
2, 20633, Note_on_c, 0, 58, 28
2, 20657, Note_off_c, 0, 58, 64
2, 20683, Note_on_c, 0, 82, 26
2, 20684, Note_on_c, 0, 53, 26
2, 20708, Note_off_c, 0, 53, 64
2, 20734, Note_off_c, 0, 82, 64
2, 20734, Note_on_c, 0, 86, 36
2, 20735, Note_on_c, 0, 46, 36
2, 20760, Note_off_c, 0, 46, 64
2, 20760, Note_off_c, 0, 86, 64
2, 20786, Note_on_c, 0, 53, 30
2, 20811, Note_off_c, 0, 53, 64
2, 20837, Note_on_c, 0, 77, 22
2, 20837, Note_on_c, 0, 58, 22
2, 20863, Note_off_c, 0, 58, 64
2, 20888, Note_off_c, 0, 77, 64
2, 20890, Note_on_c, 0, 82, 40
2, 20890, Note_on_c, 0, 62, 40
2, 20914, Note_off_c, 0, 62, 64
2, 20915, Note_off_c, 0, 82, 64
2, 20940, Note_on_c, 0, 58, 32
2, 20966, Note_off_c, 0, 58, 64
2, 20993, Note_on_c, 0, 74, 31
2, 20993, Note_on_c, 0, 53, 31
2, 21017, Note_off_c, 0, 53, 64
2, 21044, Note_off_c, 0, 74, 64
2, 21044, Note_on_c, 0, 77, 34
2, 21044, Note_on_c, 0, 46, 34
2, 21070, Note_off_c, 0, 46, 64
2, 21070, Note_off_c, 0, 77, 64
2, 21096, Note_on_c, 0, 53, 28
2, 21120, Note_off_c, 0, 53, 64
2, 21147, Note_on_c, 0, 70, 43
2, 21147, Note_on_c, 0, 58, 29
2, 21171, Note_off_c, 0, 58, 64
2, 21197, Note_off_c, 0, 70, 64
2, 21198, Note_on_c, 0, 74, 46
2, 21198, Note_on_c, 0, 62, 36
2, 21224, Note_off_c, 0, 62, 64
2, 21224, Note_off_c, 0, 74, 64
2, 21250, Note_on_c, 0, 58, 28
2, 21275, Note_off_c, 0, 58, 64
2, 21301, Note_on_c, 0, 72, 40
2, 21301, Note_on_c, 0, 53, 35
2, 21327, Note_off_c, 0, 53, 64
2, 21351, Note_off_c, 0, 72, 64
2, 21353, Note_on_c, 0, 75, 43
2, 21354, Note_on_c, 0, 41, 43
2, 21378, Note_off_c, 0, 41, 64
2, 21378, Note_off_c, 0, 75, 64
2, 21404, Note_on_c, 0, 53, 34
2, 21430, Note_off_c, 0, 53, 64
2, 21456, Note_on_c, 0, 69, 34
2, 21457, Note_on_c, 0, 57, 32
2, 21481, Note_off_c, 0, 57, 64
2, 21507, Note_off_c, 0, 69, 64
2, 21507, Note_on_c, 0, 72, 37
2, 21508, Note_on_c, 0, 60, 39
2, 21532, Note_off_c, 0, 60, 64
2, 21532, Note_off_c, 0, 72, 64
2, 21558, Note_on_c, 0, 57, 35
2, 21584, Note_off_c, 0, 57, 64
2, 21611, Note_on_c, 0, 69, 38
2, 21611, Note_on_c, 0, 53, 36
2, 21635, Note_off_c, 0, 53, 64
2, 21661, Note_off_c, 0, 69, 64
2, 21661, Note_on_c, 0, 70, 37
2, 21662, Note_on_c, 0, 46, 49
2, 21687, Note_off_c, 0, 46, 64
2, 21688, Note_off_c, 0, 70, 64
2, 21714, Note_on_c, 0, 53, 44
2, 21738, Note_off_c, 0, 53, 64
2, 21765, Note_on_c, 0, 70, 45
2, 21765, Note_on_c, 0, 58, 34
2, 21791, Note_off_c, 0, 58, 64
2, 21815, Note_off_c, 0, 70, 64
2, 21817, Note_on_c, 0, 74, 47
2, 21817, Note_on_c, 0, 62, 39
2, 21841, Note_off_c, 0, 62, 64
2, 21841, Note_off_c, 0, 74, 64
2, 21868, Note_on_c, 0, 58, 34
2, 21892, Note_off_c, 0, 58, 64
2, 21918, Note_on_c, 0, 74, 44
2, 21919, Note_on_c, 0, 53, 32
2, 21945, Note_off_c, 0, 53, 64
2, 21971, Note_off_c, 0, 74, 64
2, 21971, Note_on_c, 0, 77, 43
2, 21972, Note_on_c, 0, 46, 44
2, 21996, Note_off_c, 0, 46, 64
2, 21996, Note_off_c, 0, 77, 64
2, 22022, Note_on_c, 0, 53, 38
2, 22048, Note_off_c, 0, 53, 64
2, 22074, Note_on_c, 0, 77, 41
2, 22075, Note_on_c, 0, 58, 32
2, 22099, Note_off_c, 0, 58, 64
2, 22125, Note_off_c, 0, 77, 64
2, 22125, Note_on_c, 0, 82, 39
2, 22126, Note_on_c, 0, 62, 40
2, 22151, Note_off_c, 0, 62, 64
2, 22152, Note_off_c, 0, 82, 64
2, 22177, Note_on_c, 0, 58, 31
2, 22202, Note_off_c, 0, 58, 64
2, 22228, Note_on_c, 0, 82, 44
2, 22229, Note_on_c, 0, 53, 32
2, 22254, Note_off_c, 0, 53, 64
2, 22279, Note_off_c, 0, 82, 64
2, 22281, Note_on_c, 0, 86, 40
2, 22281, Note_on_c, 0, 46, 44
2, 22305, Note_off_c, 0, 46, 64
2, 22306, Note_off_c, 0, 86, 64
2, 22332, Note_on_c, 0, 53, 35
2, 22356, Note_off_c, 0, 53, 64
2, 22382, Note_on_c, 0, 86, 43
2, 22382, Note_on_c, 0, 58, 32
2, 22408, Note_off_c, 0, 58, 64
2, 22435, Note_off_c, 0, 86, 64
2, 22435, Note_on_c, 0, 89, 46
2, 22435, Note_on_c, 0, 62, 35
2, 22459, Note_off_c, 0, 62, 64
2, 22459, Note_off_c, 0, 89, 64
2, 22486, Note_on_c, 0, 58, 34
2, 22512, Note_off_c, 0, 58, 64
2, 22538, Note_on_c, 0, 82, 41
2, 22538, Note_on_c, 0, 53, 40
2, 22562, Note_off_c, 0, 53, 64
2, 22589, Note_off_c, 0, 82, 64
2, 22589, Note_on_c, 0, 86, 44
2, 22589, Note_on_c, 0, 46, 52
2, 22615, Note_off_c, 0, 46, 64
2, 22615, Note_off_c, 0, 86, 64
2, 22641, Note_on_c, 0, 53, 47
2, 22666, Note_off_c, 0, 53, 64
2, 22692, Note_on_c, 0, 77, 46
2, 22692, Note_on_c, 0, 58, 38
2, 22716, Note_off_c, 0, 58, 64
2, 22742, Note_off_c, 0, 77, 64
2, 22743, Note_on_c, 0, 82, 50
2, 22743, Note_on_c, 0, 62, 49
2, 22769, Note_off_c, 0, 62, 64
2, 22769, Note_off_c, 0, 82, 64
2, 22795, Note_on_c, 0, 58, 31
2, 22820, Note_off_c, 0, 58, 64
2, 22846, Note_on_c, 0, 74, 44
2, 22846, Note_on_c, 0, 53, 37
2, 22872, Note_off_c, 0, 53, 64
2, 22896, Note_off_c, 0, 74, 64
2, 22898, Note_on_c, 0, 77, 50
2, 22899, Note_on_c, 0, 46, 40
2, 22923, Note_off_c, 0, 46, 64
2, 22923, Note_off_c, 0, 77, 64
2, 22949, Note_on_c, 0, 53, 39
2, 22975, Note_off_c, 0, 53, 64
2, 23002, Note_on_c, 0, 70, 37
2, 23003, Note_on_c, 0, 58, 32
2, 23026, Note_off_c, 0, 58, 64
2, 23052, Note_off_c, 0, 70, 64
2, 23052, Note_on_c, 0, 74, 35
2, 23053, Note_on_c, 0, 62, 36
2, 23077, Note_off_c, 0, 62, 64
2, 23077, Note_off_c, 0, 74, 64
2, 23105, Note_on_c, 0, 58, 34
2, 23129, Note_off_c, 0, 58, 64
2, 23156, Note_on_c, 0, 65, 42
2, 23156, Note_on_c, 0, 53, 35
2, 23180, Note_off_c, 0, 53, 64
2, 23206, Note_off_c, 0, 65, 64
2, 23207, Note_on_c, 0, 70, 44
2, 23207, Note_on_c, 0, 46, 44
2, 23232, Note_off_c, 0, 46, 64
2, 23233, Note_off_c, 0, 70, 64
2, 23259, Note_on_c, 0, 50, 38
2, 23283, Note_off_c, 0, 50, 64
2, 23310, Note_on_c, 0, 62, 38
2, 23310, Note_on_c, 0, 53, 41
2, 23336, Note_off_c, 0, 53, 64
2, 23360, Note_off_c, 0, 62, 64
2, 23362, Note_on_c, 0, 65, 42
2, 23363, Note_on_c, 0, 58, 44
2, 23387, Note_off_c, 0, 58, 64
2, 23387, Note_off_c, 0, 65, 64
2, 23413, Note_on_c, 0, 53, 31
2, 23439, Note_off_c, 0, 53, 64
2, 23465, Note_on_c, 0, 58, 42
2, 23466, Note_on_c, 0, 50, 36
2, 23490, Note_off_c, 0, 50, 64
2, 23516, Note_off_c, 0, 58, 64
2, 23517, Note_on_c, 0, 62, 46
2, 23517, Note_on_c, 0, 46, 49
2, 23541, Note_off_c, 0, 46, 64
2, 23541, Note_off_c, 0, 62, 64
2, 23619, Note_on_c, 0, 53, 52
2, 23670, Note_off_c, 0, 53, 64
2, 23670, Note_on_c, 0, 58, 55
2, 23671, Note_on_c, 0, 34, 46
2, 23696, Note_off_c, 0, 58, 64
2, 23773, Note_off_c, 0, 34, 64
2, 23773, Note_on_c, 0, 50, 49
2, 23824, Note_off_c, 0, 50, 64
2, 23826, Note_on_c, 0, 53, 56
2, 23827, Note_on_c, 0, 34, 36
2, 23850, Note_off_c, 0, 53, 64
2, 23927, Note_off_c, 0, 34, 64
2, 23928, Note_on_c, 0, 52, 52
2, 23980, Note_off_c, 0, 52, 64
2, 23980, Note_on_c, 0, 55, 50
2, 23981, Note_on_c, 0, 34, 34
2, 24004, Note_off_c, 0, 55, 64
2, 24081, Note_off_c, 0, 34, 64
2, 24083, Note_on_c, 0, 53, 57
2, 24134, Note_on_c, 0, 56, 44
2, 24134, Note_on_c, 0, 50, 29
2, 24134, Note_on_c, 0, 34, 46
2, 24545, Note_off_c, 0, 34, 64
2, 24648, Note_off_c, 0, 50, 64
2, 24648, Note_off_c, 0, 56, 64
2, 24648, Note_off_c, 0, 53, 64
2, 24958, Note_on_c, 0, 51, 34
2, 25008, Note_off_c, 0, 51, 64
2, 25010, Note_on_c, 0, 55, 32
2, 25061, Note_off_c, 0, 55, 64
2, 25061, Note_on_c, 0, 46, 36
2, 25112, Note_off_c, 0, 46, 64
2, 25112, Note_on_c, 0, 51, 29
2, 25164, Note_off_c, 0, 51, 64
2, 25164, Note_on_c, 0, 55, 28
2, 25215, Note_off_c, 0, 55, 64
2, 25215, Note_on_c, 0, 50, 43
2, 25266, Note_off_c, 0, 50, 64
2, 25268, Note_on_c, 0, 51, 31
2, 25319, Note_off_c, 0, 51, 64
2, 25319, Note_on_c, 0, 55, 31
2, 25369, Note_off_c, 0, 55, 64
2, 25371, Note_on_c, 0, 46, 32
2, 25422, Note_off_c, 0, 46, 64
2, 25422, Note_on_c, 0, 51, 32
2, 25472, Note_off_c, 0, 51, 64
2, 25475, Note_on_c, 0, 55, 26
2, 25525, Note_off_c, 0, 55, 64
2, 25525, Note_on_c, 0, 50, 37
2, 25575, Note_off_c, 0, 50, 64
2, 25576, Note_on_c, 0, 51, 35
2, 25628, Note_off_c, 0, 51, 64
2, 25629, Note_on_c, 0, 82, 39
2, 25629, Note_on_c, 0, 55, 31
2, 25679, Note_off_c, 0, 55, 64
2, 25679, Note_off_c, 0, 82, 64
2, 25680, Note_on_c, 0, 82, 59
2, 25680, Note_on_c, 0, 46, 28
2, 25729, Note_off_c, 0, 46, 64
2, 25731, Note_on_c, 0, 53, 35
2, 25782, Note_off_c, 0, 53, 64
2, 25782, Note_off_c, 0, 82, 64
2, 25783, Note_on_c, 0, 80, 45
2, 25783, Note_on_c, 0, 56, 28
2, 25833, Note_off_c, 0, 56, 64
2, 25835, Note_off_c, 0, 80, 64
2, 25835, Note_on_c, 0, 77, 43
2, 25836, Note_on_c, 0, 52, 37
2, 25885, Note_off_c, 0, 52, 64
2, 25886, Note_on_c, 0, 53, 36
2, 25936, Note_off_c, 0, 77, 64
2, 25936, Note_off_c, 0, 53, 64
2, 25937, Note_on_c, 0, 74, 41
2, 25937, Note_on_c, 0, 56, 29
2, 25989, Note_off_c, 0, 56, 64
2, 25989, Note_off_c, 0, 74, 64
2, 25989, Note_on_c, 0, 75, 43
2, 25990, Note_on_c, 0, 46, 34
2, 26039, Note_off_c, 0, 46, 64
2, 26040, Note_on_c, 0, 51, 31
2, 26090, Note_off_c, 0, 51, 64
2, 26092, Note_off_c, 0, 75, 64
2, 26092, Note_on_c, 0, 55, 27
2, 26143, Note_off_c, 0, 55, 64
2, 26143, Note_on_c, 0, 50, 41
2, 26193, Note_off_c, 0, 50, 64
2, 26195, Note_on_c, 0, 51, 32
2, 26246, Note_off_c, 0, 51, 64
2, 26246, Note_on_c, 0, 70, 39
2, 26246, Note_on_c, 0, 55, 31
2, 26296, Note_off_c, 0, 55, 64
2, 26297, Note_off_c, 0, 70, 64
2, 26297, Note_on_c, 0, 70, 53
2, 26298, Note_on_c, 0, 46, 26
2, 26349, Note_off_c, 0, 46, 64
2, 26349, Note_on_c, 0, 53, 30
2, 26400, Note_off_c, 0, 53, 64
2, 26400, Note_off_c, 0, 70, 64
2, 26400, Note_on_c, 0, 68, 37
2, 26401, Note_on_c, 0, 56, 27
2, 26452, Note_off_c, 0, 56, 64
2, 26453, Note_off_c, 0, 68, 64
2, 26453, Note_on_c, 0, 65, 40
2, 26453, Note_on_c, 0, 52, 31
2, 26503, Note_off_c, 0, 52, 64
2, 26503, Note_on_c, 0, 53, 36
2, 26554, Note_off_c, 0, 53, 64
2, 26556, Note_off_c, 0, 65, 64
2, 26556, Note_on_c, 0, 62, 43
2, 26556, Note_on_c, 0, 56, 30
2, 26606, Note_off_c, 0, 56, 64
2, 26606, Note_off_c, 0, 62, 64
2, 26607, Note_on_c, 0, 55, 35
2, 26607, Note_on_c, 0, 63, 46
2, 26608, Note_on_c, 0, 51, 32
2, 26608, Note_on_c, 0, 39, 25
2, 26657, Note_off_c, 0, 39, 64
2, 26657, Note_off_c, 0, 51, 64
2, 26659, Note_off_c, 0, 63, 64
2, 26659, Note_off_c, 0, 55, 64
2, 26813, Note_on_c, 0, 51, 35
2, 26863, Note_off_c, 0, 51, 64
2, 26864, Note_on_c, 0, 55, 28
2, 26914, Note_off_c, 0, 55, 64
2, 26916, Note_on_c, 0, 46, 30
2, 26967, Note_off_c, 0, 46, 64
2, 26967, Note_on_c, 0, 51, 31
2, 27017, Note_off_c, 0, 51, 64
2, 27019, Note_on_c, 0, 55, 32
2, 27070, Note_off_c, 0, 55, 64
2, 27070, Note_on_c, 0, 50, 44
2, 27120, Note_off_c, 0, 50, 64
2, 27121, Note_on_c, 0, 51, 32
2, 27173, Note_off_c, 0, 51, 64
2, 27174, Note_on_c, 0, 55, 31
2, 27224, Note_off_c, 0, 55, 64
2, 27224, Note_on_c, 0, 46, 36
2, 27275, Note_off_c, 0, 46, 64
2, 27276, Note_on_c, 0, 51, 31
2, 27327, Note_off_c, 0, 51, 64
2, 27327, Note_on_c, 0, 55, 20
2, 27378, Note_off_c, 0, 55, 64
2, 27380, Note_on_c, 0, 50, 43
2, 27431, Note_off_c, 0, 50, 64
2, 27431, Note_on_c, 0, 51, 29
2, 27481, Note_off_c, 0, 51, 64
2, 27481, Note_on_c, 0, 82, 39
2, 27482, Note_on_c, 0, 55, 29
2, 27534, Note_off_c, 0, 55, 64
2, 27534, Note_off_c, 0, 82, 64
2, 27534, Note_on_c, 0, 82, 59
2, 27535, Note_on_c, 0, 46, 31
2, 27584, Note_off_c, 0, 46, 64
2, 27585, Note_on_c, 0, 53, 37
2, 27637, Note_off_c, 0, 53, 64
2, 27637, Note_off_c, 0, 82, 64
2, 27637, Note_on_c, 0, 80, 45
2, 27638, Note_on_c, 0, 56, 29
2, 27687, Note_off_c, 0, 56, 64
2, 27688, Note_off_c, 0, 80, 64
2, 27688, Note_on_c, 0, 77, 43
2, 27689, Note_on_c, 0, 52, 32
2, 27738, Note_off_c, 0, 52, 64
2, 27740, Note_on_c, 0, 53, 38
2, 27791, Note_off_c, 0, 53, 64
2, 27791, Note_off_c, 0, 77, 64
2, 27792, Note_on_c, 0, 56, 29
2, 27792, Note_on_c, 0, 74, 41
2, 27841, Note_off_c, 0, 56, 64
2, 27843, Note_off_c, 0, 74, 64
2, 27843, Note_on_c, 0, 75, 43
2, 27844, Note_on_c, 0, 46, 40
2, 27894, Note_off_c, 0, 46, 64
2, 27894, Note_on_c, 0, 51, 40
2, 27945, Note_off_c, 0, 51, 64
2, 27945, Note_off_c, 0, 75, 64
2, 27946, Note_on_c, 0, 55, 31
2, 27997, Note_off_c, 0, 55, 64
2, 27998, Note_on_c, 0, 50, 36
2, 28048, Note_off_c, 0, 50, 64
2, 28048, Note_on_c, 0, 51, 29
2, 28099, Note_off_c, 0, 51, 64
2, 28101, Note_on_c, 0, 70, 39
2, 28101, Note_on_c, 0, 55, 29
2, 28152, Note_off_c, 0, 55, 64
2, 28152, Note_off_c, 0, 70, 64
2, 28152, Note_on_c, 0, 70, 54
2, 28152, Note_on_c, 0, 46, 38
2, 28202, Note_off_c, 0, 46, 64
2, 28204, Note_on_c, 0, 53, 36
2, 28255, Note_off_c, 0, 53, 64
2, 28255, Note_off_c, 0, 70, 64
2, 28256, Note_on_c, 0, 68, 37
2, 28256, Note_on_c, 0, 56, 27
2, 28305, Note_off_c, 0, 56, 64
2, 28306, Note_off_c, 0, 68, 64
2, 28306, Note_on_c, 0, 65, 40
2, 28307, Note_on_c, 0, 52, 37
2, 28358, Note_off_c, 0, 52, 64
2, 28358, Note_on_c, 0, 53, 41
2, 28408, Note_off_c, 0, 53, 64
2, 28409, Note_off_c, 0, 65, 64
2, 28409, Note_on_c, 0, 62, 43
2, 28410, Note_on_c, 0, 56, 30
2, 28459, Note_off_c, 0, 56, 64
2, 28461, Note_off_c, 0, 62, 64
2, 28461, Note_on_c, 0, 55, 35
2, 28462, Note_on_c, 0, 63, 46
2, 28462, Note_on_c, 0, 39, 37
2, 28463, Note_on_c, 0, 51, 31
2, 28512, Note_off_c, 0, 51, 64
2, 28512, Note_off_c, 0, 39, 64
2, 28512, Note_off_c, 0, 63, 64
2, 28513, Note_off_c, 0, 55, 64
2, 28615, Note_on_c, 0, 58, 39
2, 28666, Note_off_c, 0, 58, 64
2, 28718, Note_on_c, 0, 58, 35
2, 28769, Note_off_c, 0, 58, 64
2, 28770, Note_on_c, 0, 63, 52
2, 28770, Control_c, 0, 64, 127
2, 28771, Note_on_c, 0, 51, 38
2, 28771, Note_on_c, 0, 39, 47
2, 28771, Note_on_c, 0, 55, 50
2, 28822, Note_off_c, 0, 63, 64
2, 28822, Note_off_c, 0, 55, 64
2, 28872, Note_off_c, 0, 39, 64
2, 28872, Note_off_c, 0, 51, 64
2, 28873, Note_on_c, 0, 63, 35
2, 28923, Note_off_c, 0, 63, 64
2, 28925, Note_on_c, 0, 58, 35
2, 28925, Note_on_c, 0, 58, 37
2, 28976, Note_off_c, 0, 58, 64
2, 29027, Note_off_c, 0, 58, 64
2, 29028, Control_c, 0, 64, 0
2, 29028, Note_on_c, 0, 58, 35
2, 29079, Note_off_c, 0, 58, 64
2, 29079, Note_on_c, 0, 63, 40
2, 29079, Note_on_c, 0, 55, 39
2, 29129, Note_off_c, 0, 55, 64
2, 29130, Note_off_c, 0, 63, 64
2, 29182, Note_on_c, 0, 63, 31
2, 29232, Note_off_c, 0, 63, 64
2, 29233, Note_on_c, 0, 58, 34
2, 29233, Note_on_c, 0, 58, 40
2, 29283, Note_off_c, 0, 58, 64
2, 29336, Note_off_c, 0, 58, 64
2, 29336, Note_on_c, 0, 58, 33
2, 29387, Note_off_c, 0, 58, 64
2, 29388, Note_on_c, 0, 63, 39
2, 29389, Note_on_c, 0, 55, 40
2, 29439, Note_off_c, 0, 55, 64
2, 29439, Note_off_c, 0, 63, 64
2, 29490, Note_on_c, 0, 63, 35
2, 29543, Note_off_c, 0, 63, 64
2, 29543, Note_on_c, 0, 58, 33
2, 29544, Note_on_c, 0, 58, 39
2, 29593, Note_off_c, 0, 58, 64
2, 29644, Note_off_c, 0, 58, 64
2, 29646, Note_on_c, 0, 58, 32
2, 29696, Note_off_c, 0, 58, 64
2, 29697, Note_on_c, 0, 62, 37
2, 29697, Note_on_c, 0, 65, 38
2, 29698, Note_on_c, 0, 58, 34
2, 29747, Note_off_c, 0, 65, 64
2, 29748, Note_off_c, 0, 62, 64
2, 29800, Note_off_c, 0, 58, 64
2, 29800, Note_on_c, 0, 62, 43
2, 29800, Note_on_c, 0, 65, 31
2, 29850, Note_off_c, 0, 65, 64
2, 29851, Note_off_c, 0, 62, 64
2, 29852, Note_on_c, 0, 58, 34
2, 29903, Note_off_c, 0, 58, 64
2, 29954, Note_on_c, 0, 58, 35
2, 30007, Note_off_c, 0, 58, 64
2, 30007, Control_c, 0, 64, 127
2, 30007, Note_on_c, 0, 65, 51
2, 30008, Note_on_c, 0, 62, 52
2, 30008, Note_on_c, 0, 34, 47
2, 30009, Note_on_c, 0, 46, 38
2, 30057, Note_off_c, 0, 62, 64
2, 30057, Note_off_c, 0, 65, 64
2, 30108, Note_off_c, 0, 46, 64
2, 30108, Note_off_c, 0, 34, 64
2, 30109, Note_on_c, 0, 62, 49
2, 30110, Note_on_c, 0, 65, 34
2, 30160, Note_off_c, 0, 65, 64
2, 30160, Note_off_c, 0, 62, 64
2, 30161, Note_on_c, 0, 58, 34
2, 30161, Note_on_c, 0, 58, 37
2, 30211, Note_off_c, 0, 58, 64
2, 30264, Note_off_c, 0, 58, 64
2, 30264, Control_c, 0, 64, 0
2, 30264, Note_on_c, 0, 58, 34
2, 30314, Note_off_c, 0, 58, 64
2, 30314, Note_on_c, 0, 65, 38
2, 30315, Note_on_c, 0, 62, 40
2, 30367, Note_off_c, 0, 62, 64
2, 30367, Note_off_c, 0, 65, 64
2, 30418, Note_on_c, 0, 65, 35
2, 30418, Note_on_c, 0, 62, 39
2, 30468, Note_off_c, 0, 62, 64
2, 30468, Note_off_c, 0, 65, 64
2, 30470, Note_on_c, 0, 58, 35
2, 30470, Note_on_c, 0, 58, 40
2, 30520, Note_off_c, 0, 58, 64
2, 30571, Note_off_c, 0, 58, 64
2, 30573, Note_on_c, 0, 58, 34
2, 30624, Note_off_c, 0, 58, 64
2, 30624, Note_on_c, 0, 65, 31
2, 30625, Note_on_c, 0, 62, 34
2, 30674, Note_off_c, 0, 62, 64
2, 30675, Note_off_c, 0, 65, 64
2, 30727, Note_on_c, 0, 65, 31
2, 30728, Note_on_c, 0, 62, 38
2, 30778, Note_off_c, 0, 62, 64
2, 30778, Note_off_c, 0, 65, 64
2, 30779, Note_on_c, 0, 58, 32
2, 30779, Note_on_c, 0, 58, 39
2, 30830, Note_off_c, 0, 58, 64
2, 30881, Note_off_c, 0, 58, 64
2, 30881, Note_on_c, 0, 58, 34
2, 30932, Note_off_c, 0, 58, 64
2, 30934, Note_on_c, 0, 63, 36
2, 30934, Note_on_c, 0, 67, 37
2, 30935, Note_on_c, 0, 58, 34
2, 30984, Note_off_c, 0, 67, 64
2, 30984, Note_off_c, 0, 63, 64
2, 31035, Note_off_c, 0, 58, 64
2, 31037, Note_on_c, 0, 67, 44
2, 31088, Note_off_c, 0, 67, 64
2, 31088, Note_on_c, 0, 63, 32
2, 31089, Note_on_c, 0, 51, 38
2, 31139, Note_off_c, 0, 63, 64
2, 31191, Note_on_c, 0, 63, 31
2, 31241, Note_off_c, 0, 63, 64
2, 31242, Note_on_c, 0, 68, 36
2, 31242, Note_on_c, 0, 48, 34
2, 31292, Note_off_c, 0, 68, 64
2, 31345, Note_on_c, 0, 68, 32
2, 31396, Note_off_c, 0, 68, 64
2, 31396, Note_off_c, 0, 48, 64
2, 31397, Note_on_c, 0, 72, 41
2, 31398, Note_on_c, 0, 44, 38
2, 31448, Note_off_c, 0, 72, 64
2, 31499, Note_on_c, 0, 72, 34
2, 31551, Note_off_c, 0, 72, 64
2, 31551, Note_off_c, 0, 44, 64
2, 31552, Note_on_c, 0, 70, 35
2, 31552, Note_on_c, 0, 43, 34
2, 31602, Note_off_c, 0, 70, 64
2, 31653, Note_off_c, 0, 43, 64
2, 31653, Note_off_c, 0, 51, 64
2, 31655, Note_on_c, 0, 70, 32
2, 31705, Note_off_c, 0, 70, 64
2, 31705, Note_on_c, 0, 75, 40
2, 31706, Note_on_c, 0, 51, 38
2, 31756, Note_off_c, 0, 75, 64
2, 31809, Note_on_c, 0, 75, 45
2, 31859, Note_off_c, 0, 75, 64
2, 31860, Note_on_c, 0, 80, 45
2, 31860, Note_on_c, 0, 48, 34
2, 31912, Note_off_c, 0, 80, 64
2, 31963, Note_on_c, 0, 80, 33
2, 32015, Note_off_c, 0, 80, 64
2, 32015, Note_off_c, 0, 48, 64
2, 32016, Note_on_c, 0, 84, 46
2, 32016, Note_on_c, 0, 44, 38
2, 32065, Note_off_c, 0, 84, 64
2, 32119, Note_on_c, 0, 84, 35
2, 32169, Note_off_c, 0, 84, 64
2, 32169, Note_off_c, 0, 44, 64
2, 32170, Note_on_c, 0, 82, 39
2, 32170, Note_on_c, 0, 43, 34
2, 32220, Note_off_c, 0, 82, 64
2, 32272, Note_off_c, 0, 43, 64
2, 32272, Note_off_c, 0, 51, 64
2, 32273, Note_on_c, 0, 70, 34
2, 32323, Note_off_c, 0, 70, 64
2, 32323, Note_on_c, 0, 63, 31
2, 32324, Note_on_c, 0, 51, 38
2, 32376, Note_off_c, 0, 63, 64
2, 32426, Note_on_c, 0, 63, 28
2, 32477, Note_off_c, 0, 63, 64
2, 32479, Note_on_c, 0, 68, 34
2, 32479, Note_on_c, 0, 48, 34
2, 32529, Note_off_c, 0, 68, 64
2, 32582, Note_on_c, 0, 68, 38
2, 32633, Note_off_c, 0, 68, 64
2, 32633, Note_off_c, 0, 48, 64
2, 32633, Note_on_c, 0, 72, 49
2, 32634, Note_on_c, 0, 44, 38
2, 32683, Note_off_c, 0, 72, 64
2, 32736, Note_on_c, 0, 72, 49
2, 32786, Note_off_c, 0, 72, 64
2, 32787, Note_off_c, 0, 44, 64
2, 32787, Note_on_c, 0, 70, 35
2, 32788, Note_on_c, 0, 43, 34
2, 32837, Note_off_c, 0, 70, 64
2, 32890, Note_off_c, 0, 43, 64
2, 32890, Note_off_c, 0, 51, 64
2, 32890, Note_on_c, 0, 67, 35
2, 32940, Note_off_c, 0, 67, 64
2, 32942, Note_on_c, 0, 65, 37
2, 32943, Note_on_c, 0, 44, 38
2, 32943, Note_on_c, 0, 53, 34
2, 32993, Note_off_c, 0, 65, 64
2, 33044, Note_off_c, 0, 53, 64
2, 33044, Note_off_c, 0, 44, 64
2, 33046, Note_on_c, 0, 68, 35
2, 33096, Note_off_c, 0, 68, 64
2, 33096, Note_on_c, 0, 63, 31
2, 33097, Note_on_c, 0, 46, 35
2, 33097, Note_on_c, 0, 55, 32
2, 33147, Note_off_c, 0, 63, 64
2, 33200, Note_off_c, 0, 55, 64
2, 33200, Note_off_c, 0, 46, 64
2, 33200, Note_on_c, 0, 67, 31
2, 33250, Note_off_c, 0, 67, 64
2, 33251, Note_on_c, 0, 62, 33
2, 33251, Note_on_c, 0, 56, 29
2, 33252, Note_on_c, 0, 46, 33
2, 33301, Note_off_c, 0, 62, 64
2, 33354, Note_off_c, 0, 46, 64
2, 33354, Note_off_c, 0, 56, 64
2, 33354, Note_on_c, 0, 65, 30
2, 33404, Note_off_c, 0, 65, 64
2, 33406, Note_on_c, 0, 63, 35
2, 33407, Note_on_c, 0, 39, 31
2, 33507, Note_off_c, 0, 39, 64
2, 33508, Note_off_c, 0, 63, 64
2, 33560, Note_on_c, 0, 63, 30
2, 33561, Note_on_c, 0, 51, 35
2, 33611, Note_off_c, 0, 63, 64
2, 33661, Note_off_c, 0, 51, 64
2, 33663, Note_on_c, 0, 63, 31
2, 33714, Note_off_c, 0, 63, 64
2, 33714, Note_on_c, 0, 68, 37
2, 33715, Note_on_c, 0, 47, 44
2, 33765, Note_off_c, 0, 68, 64
2, 33817, Note_on_c, 0, 68, 37
2, 33868, Note_off_c, 0, 68, 64
2, 33868, Note_off_c, 0, 47, 64
2, 33869, Note_on_c, 0, 71, 41
2, 33869, Note_on_c, 0, 44, 38
2, 33921, Note_off_c, 0, 71, 64
2, 33972, Note_on_c, 0, 71, 46
2, 34022, Note_off_c, 0, 71, 64
2, 34022, Note_off_c, 0, 44, 64
2, 34024, Note_on_c, 0, 70, 35
2, 34024, Note_on_c, 0, 42, 39
2, 34074, Note_off_c, 0, 70, 64
2, 34125, Note_off_c, 0, 42, 64
2, 34127, Note_on_c, 0, 70, 31
2, 34178, Note_off_c, 0, 70, 64
2, 34178, Note_on_c, 0, 75, 38
2, 34178, Note_on_c, 0, 51, 37
2, 34228, Note_off_c, 0, 75, 64
2, 34281, Note_off_c, 0, 51, 64
2, 34281, Note_on_c, 0, 75, 39
2, 34332, Note_off_c, 0, 75, 64
2, 34332, Note_on_c, 0, 80, 40
2, 34332, Note_on_c, 0, 47, 39
2, 34384, Note_off_c, 0, 80, 64
2, 34435, Note_on_c, 0, 80, 38
2, 34486, Note_off_c, 0, 80, 64
2, 34486, Note_off_c, 0, 47, 64
2, 34488, Note_on_c, 0, 44, 34
2, 34488, Note_on_c, 0, 83, 40
2, 34538, Note_off_c, 0, 83, 64
2, 34591, Note_on_c, 0, 83, 39
2, 34641, Note_off_c, 0, 83, 64
2, 34642, Note_off_c, 0, 44, 64
2, 34642, Note_on_c, 0, 82, 37
2, 34643, Note_on_c, 0, 42, 34
2, 34692, Note_off_c, 0, 82, 64
2, 34745, Note_off_c, 0, 42, 64
2, 34745, Note_on_c, 0, 70, 34
2, 34795, Note_off_c, 0, 70, 64
2, 34796, Note_on_c, 0, 63, 31
2, 34796, Note_on_c, 0, 51, 31
2, 34846, Note_off_c, 0, 63, 64
2, 34898, Note_off_c, 0, 51, 64
2, 34899, Note_on_c, 0, 63, 31
2, 34949, Note_off_c, 0, 63, 64
2, 34951, Note_on_c, 0, 69, 43
2, 34952, Note_on_c, 0, 48, 34
2, 35002, Note_off_c, 0, 69, 64
2, 35052, Note_on_c, 0, 69, 38
2, 35105, Note_off_c, 0, 69, 64
2, 35105, Note_off_c, 0, 48, 64
2, 35106, Note_on_c, 0, 72, 40
2, 35106, Note_on_c, 0, 46, 36
2, 35156, Note_off_c, 0, 72, 64
2, 35208, Note_on_c, 0, 72, 40
2, 35259, Note_off_c, 0, 72, 64
2, 35259, Note_off_c, 0, 46, 64
2, 35260, Note_on_c, 0, 65, 34
2, 35260, Note_on_c, 0, 45, 31
2, 35310, Note_off_c, 0, 45, 64
2, 35312, Note_on_c, 0, 60, 34
2, 35336, Note_off_c, 0, 60, 64
2, 35363, Note_on_c, 0, 63, 25
2, 35388, Note_off_c, 0, 63, 64
2, 35415, Note_on_c, 0, 77, 52
2, 35415, Note_on_c, 0, 57, 39
2, 35439, Note_off_c, 0, 57, 64
2, 35466, Note_on_c, 0, 60, 35
2, 35490, Note_off_c, 0, 60, 64
2, 35517, Note_on_c, 0, 63, 24
2, 35543, Note_off_c, 0, 63, 64
2, 35569, Note_off_c, 0, 77, 64
2, 35569, Note_on_c, 0, 57, 40
2, 35593, Note_off_c, 0, 57, 64
2, 35620, Note_on_c, 0, 60, 25
2, 35646, Note_off_c, 0, 60, 64
2, 35672, Note_on_c, 0, 63, 30
2, 35697, Note_off_c, 0, 63, 64
2, 35723, Note_off_c, 0, 65, 64
2, 35723, Note_on_c, 0, 77, 50
2, 35724, Note_on_c, 0, 57, 41
2, 35749, Note_off_c, 0, 57, 64
2, 35775, Note_on_c, 0, 60, 39
2, 35800, Note_off_c, 0, 60, 64
2, 35826, Note_off_c, 0, 77, 64
2, 35826, Note_on_c, 0, 63, 28
2, 35850, Note_off_c, 0, 63, 64
2, 35877, Note_on_c, 0, 77, 53
2, 35878, Note_on_c, 0, 57, 38
2, 35903, Note_off_c, 0, 57, 64
2, 35929, Note_on_c, 0, 60, 35
2, 35954, Note_off_c, 0, 60, 64
2, 35980, Note_off_c, 0, 77, 64
2, 35980, Note_on_c, 0, 63, 28
2, 36006, Note_off_c, 0, 63, 64
2, 36033, Note_on_c, 0, 77, 56
2, 36033, Note_on_c, 0, 57, 38
2, 36057, Note_off_c, 0, 57, 64
2, 36084, Note_on_c, 0, 60, 34
2, 36109, Note_off_c, 0, 60, 64
2, 36134, Note_off_c, 0, 77, 64
2, 36136, Note_on_c, 0, 63, 30
2, 36160, Note_off_c, 0, 63, 64
2, 36187, Note_on_c, 0, 77, 60
2, 36187, Note_on_c, 0, 57, 47
2, 36211, Note_off_c, 0, 57, 64
2, 36238, Note_on_c, 0, 60, 27
2, 36264, Note_off_c, 0, 60, 64
2, 36290, Note_off_c, 0, 77, 64
2, 36290, Note_on_c, 0, 63, 32
2, 36314, Note_off_c, 0, 63, 64
2, 36341, Note_on_c, 0, 77, 62
2, 36341, Note_on_c, 0, 62, 38
2, 36367, Note_off_c, 0, 62, 64
2, 36393, Note_on_c, 0, 60, 41
2, 36418, Note_off_c, 0, 60, 64
2, 36444, Note_off_c, 0, 77, 64
2, 36444, Note_on_c, 0, 58, 39
2, 36470, Note_off_c, 0, 58, 64
2, 36496, Note_on_c, 0, 77, 44
2, 36497, Note_on_c, 0, 57, 41
2, 36521, Note_off_c, 0, 57, 64
2, 36547, Note_on_c, 0, 60, 35
2, 36573, Note_off_c, 0, 60, 64
2, 36600, Note_on_c, 0, 63, 28
2, 36624, Note_off_c, 0, 63, 64
2, 36650, Note_on_c, 0, 89, 63
2, 36650, Note_on_c, 0, 57, 38
2, 36675, Note_off_c, 0, 57, 64
2, 36701, Note_on_c, 0, 60, 23
2, 36727, Note_off_c, 0, 60, 64
2, 36754, Note_on_c, 0, 63, 27
2, 36778, Note_off_c, 0, 63, 64
2, 36804, Note_off_c, 0, 89, 64
2, 36804, Note_on_c, 0, 57, 41
2, 36830, Note_off_c, 0, 57, 64
2, 36857, Note_on_c, 0, 60, 32
2, 36881, Note_off_c, 0, 60, 64
2, 36908, Note_on_c, 0, 63, 27
2, 36934, Note_off_c, 0, 63, 64
2, 36958, Note_off_c, 0, 77, 64
2, 36960, Note_on_c, 0, 89, 40
2, 36960, Note_on_c, 0, 77, 33
2, 36961, Note_on_c, 0, 57, 43
2, 36984, Note_off_c, 0, 57, 64
2, 37011, Note_on_c, 0, 60, 34
2, 37035, Note_off_c, 0, 60, 64
2, 37061, Note_off_c, 0, 77, 64
2, 37062, Note_off_c, 0, 89, 64
2, 37062, Note_on_c, 0, 63, 32
2, 37088, Note_off_c, 0, 63, 64
2, 37114, Note_on_c, 0, 89, 44
2, 37115, Note_on_c, 0, 77, 34
2, 37115, Note_on_c, 0, 57, 45
2, 37139, Note_off_c, 0, 57, 64
2, 37165, Note_on_c, 0, 60, 32
2, 37191, Note_off_c, 0, 60, 64
2, 37215, Note_off_c, 0, 77, 64
2, 37215, Note_off_c, 0, 89, 64
2, 37217, Note_on_c, 0, 63, 25
2, 37242, Note_off_c, 0, 63, 64
2, 37268, Note_on_c, 0, 89, 47
2, 37268, Note_on_c, 0, 77, 35
2, 37269, Note_on_c, 0, 57, 40
2, 37294, Note_off_c, 0, 57, 64
2, 37320, Note_on_c, 0, 60, 38
2, 37345, Note_off_c, 0, 60, 64
2, 37371, Note_off_c, 0, 77, 64
2, 37371, Note_off_c, 0, 89, 64
2, 37372, Note_on_c, 0, 63, 32
2, 37397, Note_off_c, 0, 63, 64
2, 37424, Note_on_c, 0, 77, 38
2, 37424, Note_on_c, 0, 89, 53
2, 37425, Note_on_c, 0, 57, 40
2, 37448, Note_off_c, 0, 57, 64
2, 37475, Note_on_c, 0, 60, 35
2, 37499, Note_off_c, 0, 60, 64
2, 37525, Note_off_c, 0, 89, 64
2, 37525, Note_off_c, 0, 77, 64
2, 37525, Note_on_c, 0, 63, 31
2, 37551, Note_off_c, 0, 63, 64
2, 37578, Note_on_c, 0, 89, 58
2, 37578, Note_on_c, 0, 77, 42
2, 37578, Note_on_c, 0, 57, 39
2, 37602, Note_off_c, 0, 57, 64
2, 37629, Note_on_c, 0, 60, 38
2, 37655, Note_off_c, 0, 60, 64
2, 37679, Note_off_c, 0, 77, 64
2, 37679, Note_off_c, 0, 89, 64
2, 37681, Note_on_c, 0, 63, 28
2, 37705, Note_off_c, 0, 63, 64
2, 37732, Note_on_c, 0, 89, 61
2, 37732, Note_on_c, 0, 77, 58
2, 37732, Note_on_c, 0, 57, 40
2, 37758, Note_off_c, 0, 57, 64
2, 37784, Note_on_c, 0, 60, 35
2, 37809, Note_off_c, 0, 60, 64
2, 37835, Note_off_c, 0, 77, 64
2, 37835, Note_off_c, 0, 89, 64
2, 37836, Note_on_c, 0, 81, 37
2, 37836, Note_on_c, 0, 63, 30
2, 37859, Note_off_c, 0, 63, 64
2, 37886, Note_off_c, 0, 81, 64
2, 37886, Note_on_c, 0, 82, 38
2, 37886, Note_on_c, 0, 62, 39
2, 37912, Note_off_c, 0, 62, 64
2, 37938, Note_off_c, 0, 82, 64
2, 37938, Note_on_c, 0, 84, 46
2, 37939, Note_on_c, 0, 60, 35
2, 37962, Note_off_c, 0, 60, 64
2, 37989, Note_off_c, 0, 84, 64
2, 37989, Note_on_c, 0, 86, 41
2, 37990, Note_on_c, 0, 58, 34
2, 38015, Note_off_c, 0, 58, 64
2, 38040, Note_off_c, 0, 86, 64
2, 38041, Note_on_c, 0, 57, 38
2, 38066, Note_off_c, 0, 57, 64
2, 38092, Note_on_c, 0, 58, 29
2, 38119, Note_off_c, 0, 58, 64
2, 38145, Note_on_c, 0, 78, 36
2, 38145, Note_on_c, 0, 60, 40
2, 38169, Note_off_c, 0, 60, 64
2, 38195, Note_off_c, 0, 78, 64
2, 38196, Note_on_c, 0, 79, 46
2, 38196, Note_on_c, 0, 58, 38
2, 38220, Note_off_c, 0, 58, 64
2, 38246, Note_off_c, 0, 79, 64
2, 38246, Note_on_c, 0, 81, 45
2, 38247, Note_on_c, 0, 57, 35
2, 38272, Note_off_c, 0, 57, 64
2, 38299, Note_off_c, 0, 81, 64
2, 38299, Note_on_c, 0, 82, 40
2, 38299, Note_on_c, 0, 55, 37
2, 38323, Note_off_c, 0, 55, 64
2, 38349, Note_off_c, 0, 82, 64
2, 38350, Note_on_c, 0, 53, 46
2, 38376, Note_off_c, 0, 53, 64
2, 38402, Note_on_c, 0, 55, 43
2, 38426, Note_off_c, 0, 55, 64
2, 38452, Note_on_c, 0, 74, 35
2, 38453, Note_on_c, 0, 56, 36
2, 38479, Note_off_c, 0, 56, 64
2, 38503, Note_off_c, 0, 74, 64
2, 38505, Note_on_c, 0, 75, 41
2, 38506, Note_on_c, 0, 55, 46
2, 38530, Note_off_c, 0, 55, 64
2, 38556, Note_off_c, 0, 75, 64
2, 38556, Note_on_c, 0, 77, 41
2, 38556, Note_on_c, 0, 53, 41
2, 38582, Note_off_c, 0, 53, 64
2, 38606, Note_off_c, 0, 77, 64
2, 38609, Note_on_c, 0, 79, 44
2, 38609, Note_on_c, 0, 51, 38
2, 38633, Note_off_c, 0, 51, 64
2, 38659, Note_off_c, 0, 79, 64
2, 38659, Note_on_c, 0, 50, 49
2, 38683, Note_off_c, 0, 50, 64
2, 38710, Note_on_c, 0, 51, 34
2, 38736, Note_off_c, 0, 51, 64
2, 38762, Note_on_c, 0, 71, 39
2, 38763, Note_on_c, 0, 53, 35
2, 38787, Note_off_c, 0, 53, 64
2, 38813, Note_off_c, 0, 71, 64
2, 38813, Note_on_c, 0, 72, 47
2, 38814, Note_on_c, 0, 51, 34
2, 38839, Note_off_c, 0, 51, 64
2, 38864, Note_off_c, 0, 72, 64
2, 38866, Note_on_c, 0, 74, 50
2, 38866, Note_on_c, 0, 50, 41
2, 38890, Note_off_c, 0, 50, 64
2, 38916, Note_off_c, 0, 74, 64
2, 38916, Note_on_c, 0, 75, 45
2, 38917, Note_on_c, 0, 48, 37
2, 38942, Note_off_c, 0, 48, 64
2, 38967, Note_off_c, 0, 75, 64
2, 38969, Note_on_c, 0, 39, 39
2, 39020, Note_on_c, 0, 60, 40
2, 39070, Note_off_c, 0, 60, 64
2, 39071, Note_off_c, 0, 39, 64
2, 39071, Note_on_c, 0, 63, 35
2, 39122, Note_off_c, 0, 63, 64
2, 39123, Note_on_c, 0, 67, 41
2, 39173, Note_off_c, 0, 67, 64
2, 39174, Note_on_c, 0, 63, 31
2, 39224, Note_off_c, 0, 63, 64
2, 39226, Note_on_c, 0, 67, 49
2, 39276, Note_off_c, 0, 67, 64
2, 39277, Note_on_c, 0, 51, 39
2, 39277, Note_on_c, 0, 72, 43
2, 39278, Note_on_c, 0, 60, 43
2, 39278, Note_on_c, 0, 55, 50
2, 39327, Note_off_c, 0, 72, 64
2, 39329, Note_on_c, 0, 67, 35
2, 39380, Note_off_c, 0, 67, 64
2, 39380, Note_off_c, 0, 60, 64
2, 39381, Note_off_c, 0, 51, 64
2, 39381, Note_off_c, 0, 55, 64
2, 39381, Note_on_c, 0, 72, 34
2, 39431, Note_off_c, 0, 72, 64
2, 39431, Note_on_c, 0, 75, 44
2, 39483, Note_off_c, 0, 75, 64
2, 39484, Note_on_c, 0, 72, 40
2, 39534, Note_off_c, 0, 72, 64
2, 39534, Note_on_c, 0, 75, 40
2, 39587, Note_off_c, 0, 75, 64
2, 39587, Note_on_c, 0, 79, 47
2, 39637, Note_off_c, 0, 79, 64
2, 39637, Note_on_c, 0, 77, 35
2, 39688, Note_off_c, 0, 77, 64
2, 39690, Note_on_c, 0, 75, 33
2, 39740, Note_off_c, 0, 75, 64
2, 39741, Note_on_c, 0, 74, 41
2, 39741, Note_on_c, 0, 51, 41
2, 39767, Note_off_c, 0, 51, 64
2, 39791, Note_off_c, 0, 74, 64
2, 39793, Note_on_c, 0, 75, 31
2, 39793, Note_on_c, 0, 55, 49
2, 39817, Note_off_c, 0, 55, 64
2, 39844, Note_off_c, 0, 75, 64
2, 39844, Note_on_c, 0, 72, 39
2, 39844, Note_on_c, 0, 60, 41
2, 39868, Note_off_c, 0, 60, 64
2, 39894, Note_off_c, 0, 72, 64
2, 39894, Note_on_c, 0, 77, 47
2, 39895, Note_on_c, 0, 53, 40
2, 39921, Note_off_c, 0, 53, 64
2, 39947, Note_off_c, 0, 77, 64
2, 39947, Note_on_c, 0, 74, 28
2, 39948, Note_on_c, 0, 58, 33
2, 39971, Note_off_c, 0, 58, 64
2, 39997, Note_off_c, 0, 74, 64
2, 39998, Note_on_c, 0, 70, 27
2, 39998, Note_on_c, 0, 62, 35
2, 40024, Note_off_c, 0, 62, 64
2, 40048, Note_off_c, 0, 70, 64
2, 40050, Note_on_c, 0, 75, 37
2, 40051, Note_on_c, 0, 53, 45
2, 40075, Note_off_c, 0, 53, 64
2, 40101, Note_off_c, 0, 75, 64
2, 40101, Note_on_c, 0, 72, 30
2, 40102, Note_on_c, 0, 60, 35
2, 40127, Note_off_c, 0, 60, 64
2, 40152, Note_off_c, 0, 72, 64
2, 40153, Note_on_c, 0, 69, 32
2, 40154, Note_on_c, 0, 63, 32
2, 40178, Note_off_c, 0, 63, 64
2, 40204, Note_off_c, 0, 69, 64
2, 40204, Note_on_c, 0, 57, 41
2, 40228, Note_off_c, 0, 57, 64
2, 40255, Note_on_c, 0, 89, 41
2, 40255, Note_on_c, 0, 60, 39
2, 40281, Note_off_c, 0, 60, 64
2, 40308, Note_off_c, 0, 89, 64
2, 40308, Note_on_c, 0, 63, 32
2, 40308, Note_on_c, 0, 81, 40
2, 40332, Note_off_c, 0, 63, 64
2, 40358, Note_off_c, 0, 81, 64
2, 40358, Note_on_c, 0, 82, 37
2, 40359, Note_on_c, 0, 62, 46
2, 40384, Note_off_c, 0, 62, 64
2, 40409, Note_off_c, 0, 82, 64
2, 40411, Note_on_c, 0, 84, 44
2, 40411, Note_on_c, 0, 60, 36
2, 40435, Note_off_c, 0, 60, 64
2, 40461, Note_off_c, 0, 84, 64
2, 40462, Note_on_c, 0, 86, 50
2, 40462, Note_on_c, 0, 58, 38
2, 40488, Note_off_c, 0, 58, 64
2, 40512, Note_off_c, 0, 86, 64
2, 40514, Note_on_c, 0, 57, 45
2, 40514, Note_on_c, 0, 58, 28
2, 40538, Note_off_c, 0, 58, 64
2, 40538, Note_off_c, 0, 57, 64
2, 40565, Note_on_c, 0, 86, 45
2, 40565, Note_on_c, 0, 58, 37
2, 40589, Note_off_c, 0, 58, 64
2, 40615, Note_off_c, 0, 86, 64
2, 40615, Note_on_c, 0, 78, 37
2, 40616, Note_on_c, 0, 60, 39
2, 40642, Note_off_c, 0, 60, 64
2, 40668, Note_off_c, 0, 78, 64
2, 40668, Note_on_c, 0, 79, 41
2, 40668, Note_on_c, 0, 58, 39
2, 40692, Note_off_c, 0, 58, 64
2, 40718, Note_off_c, 0, 79, 64
2, 40718, Note_on_c, 0, 81, 41
2, 40719, Note_on_c, 0, 57, 34
2, 40745, Note_off_c, 0, 57, 64
2, 40771, Note_off_c, 0, 81, 64
2, 40771, Note_on_c, 0, 82, 45
2, 40772, Note_on_c, 0, 55, 45
2, 40795, Note_off_c, 0, 55, 64
2, 40822, Note_off_c, 0, 82, 64
2, 40822, Note_on_c, 0, 53, 49
2, 40848, Note_off_c, 0, 53, 64
2, 40874, Note_on_c, 0, 82, 39
2, 40875, Note_on_c, 0, 55, 38
2, 40899, Note_off_c, 0, 55, 64
2, 40925, Note_off_c, 0, 82, 64
2, 40925, Note_on_c, 0, 74, 37
2, 40926, Note_on_c, 0, 56, 40
2, 40951, Note_off_c, 0, 56, 64
2, 40976, Note_off_c, 0, 74, 64
2, 40978, Note_on_c, 0, 75, 37
2, 40978, Note_on_c, 0, 55, 45
2, 41002, Note_off_c, 0, 55, 64
2, 41028, Note_off_c, 0, 75, 64
2, 41028, Note_on_c, 0, 77, 46
2, 41029, Note_on_c, 0, 53, 43
2, 41052, Note_off_c, 0, 53, 64
2, 41079, Note_off_c, 0, 77, 64
2, 41079, Note_on_c, 0, 79, 40
2, 41079, Note_on_c, 0, 51, 37
2, 41105, Note_off_c, 0, 51, 64
2, 41131, Note_off_c, 0, 79, 64
2, 41132, Note_on_c, 0, 50, 45
2, 41156, Note_off_c, 0, 50, 64
2, 41182, Note_on_c, 0, 79, 41
2, 41183, Note_on_c, 0, 51, 32
2, 41208, Note_off_c, 0, 51, 64
2, 41233, Note_off_c, 0, 79, 64
2, 41235, Note_on_c, 0, 71, 41
2, 41235, Note_on_c, 0, 53, 43
2, 41259, Note_off_c, 0, 53, 64
2, 41285, Note_off_c, 0, 71, 64
2, 41286, Note_on_c, 0, 72, 46
2, 41286, Note_on_c, 0, 51, 38
2, 41312, Note_off_c, 0, 51, 64
2, 41336, Note_off_c, 0, 72, 64
2, 41338, Note_on_c, 0, 74, 49
2, 41339, Note_on_c, 0, 50, 32
2, 41363, Note_off_c, 0, 50, 64
2, 41388, Note_off_c, 0, 74, 64
2, 41389, Note_on_c, 0, 75, 39
2, 41389, Note_on_c, 0, 48, 44
2, 41413, Note_off_c, 0, 48, 64
2, 41439, Note_off_c, 0, 75, 64
2, 41439, Note_on_c, 0, 39, 50
2, 41492, Note_on_c, 0, 55, 34
2, 41543, Note_off_c, 0, 55, 64
2, 41543, Note_off_c, 0, 39, 64
2, 41544, Note_on_c, 0, 60, 44
2, 41593, Note_off_c, 0, 60, 64
2, 41595, Note_on_c, 0, 63, 39
2, 41646, Note_off_c, 0, 63, 64
2, 41646, Note_on_c, 0, 60, 38
2, 41697, Note_off_c, 0, 60, 64
2, 41699, Note_on_c, 0, 63, 37
2, 41749, Note_off_c, 0, 63, 64
2, 41749, Note_on_c, 0, 67, 52
2, 41750, Note_on_c, 0, 55, 41
2, 41750, Note_on_c, 0, 51, 45
2, 41800, Note_off_c, 0, 51, 64
2, 41800, Note_off_c, 0, 55, 64
2, 41800, Note_off_c, 0, 67, 64
2, 41802, Note_on_c, 0, 60, 40
2, 41852, Note_off_c, 0, 60, 64
2, 41853, Note_on_c, 0, 63, 37
2, 41903, Note_off_c, 0, 63, 64
2, 41904, Note_on_c, 0, 67, 43
2, 41956, Note_off_c, 0, 67, 64
2, 41956, Note_on_c, 0, 63, 34
2, 42006, Note_off_c, 0, 63, 64
2, 42007, Note_on_c, 0, 67, 41
2, 42057, Note_off_c, 0, 67, 64
2, 42059, Note_on_c, 0, 72, 52
2, 42060, Note_on_c, 0, 51, 45
2, 42060, Note_on_c, 0, 60, 46
2, 42060, Note_on_c, 0, 55, 47
2, 42109, Note_off_c, 0, 55, 64
2, 42110, Note_off_c, 0, 60, 64
2, 42110, Note_off_c, 0, 51, 64
2, 42111, Note_off_c, 0, 72, 64
2, 42111, Note_on_c, 0, 63, 35
2, 42160, Note_off_c, 0, 63, 64
2, 42162, Note_on_c, 0, 67, 46
2, 42213, Note_off_c, 0, 67, 64
2, 42213, Note_on_c, 0, 72, 49
2, 42264, Note_off_c, 0, 72, 64
2, 42264, Note_on_c, 0, 67, 39
2, 42316, Note_off_c, 0, 67, 64
2, 42316, Note_on_c, 0, 72, 41
2, 42367, Note_off_c, 0, 72, 64
2, 42367, Note_on_c, 0, 75, 52
2, 42368, Note_on_c, 0, 51, 50
2, 42368, Note_on_c, 0, 63, 40
2, 42368, Note_on_c, 0, 55, 52
2, 42369, Note_on_c, 0, 60, 53
2, 42418, Note_off_c, 0, 60, 64
2, 42418, Note_off_c, 0, 55, 64
2, 42418, Note_off_c, 0, 63, 64
2, 42419, Note_off_c, 0, 51, 64
2, 42419, Note_off_c, 0, 75, 64
2, 42420, Note_on_c, 0, 67, 35
2, 42470, Note_off_c, 0, 67, 64
2, 42470, Note_on_c, 0, 72, 40
2, 42521, Note_off_c, 0, 72, 64
2, 42523, Note_on_c, 0, 75, 40
2, 42573, Note_off_c, 0, 75, 64
2, 42574, Note_on_c, 0, 72, 37
2, 42624, Note_off_c, 0, 72, 64
2, 42624, Note_on_c, 0, 75, 39
2, 42676, Note_off_c, 0, 75, 64
2, 42677, Note_on_c, 0, 79, 54
2, 42727, Note_off_c, 0, 79, 64
2, 42728, Note_on_c, 0, 67, 34
2, 42728, Note_on_c, 0, 63, 31
2, 42754, Note_off_c, 0, 63, 64
2, 42778, Note_off_c, 0, 67, 64
2, 42780, Note_on_c, 0, 72, 40
2, 42780, Note_on_c, 0, 60, 32
2, 42804, Note_off_c, 0, 60, 64
2, 42830, Note_off_c, 0, 72, 64
2, 42831, Note_on_c, 0, 75, 36
2, 42831, Note_on_c, 0, 55, 40
2, 42857, Note_off_c, 0, 55, 64
2, 42881, Note_off_c, 0, 75, 64
2, 42883, Note_on_c, 0, 72, 35
2, 42884, Note_on_c, 0, 60, 40
2, 42908, Note_off_c, 0, 60, 64
2, 42934, Note_off_c, 0, 72, 64
2, 42934, Note_on_c, 0, 75, 35
2, 42935, Note_on_c, 0, 55, 34
2, 42960, Note_off_c, 0, 55, 64
2, 42984, Note_off_c, 0, 75, 64
2, 42986, Note_on_c, 0, 79, 53
2, 42987, Note_on_c, 0, 51, 37
2, 43010, Note_off_c, 0, 51, 64
2, 43037, Note_off_c, 0, 79, 64
2, 43037, Note_on_c, 0, 67, 28
2, 43038, Note_on_c, 0, 63, 28
2, 43061, Note_off_c, 0, 63, 64
2, 43088, Note_off_c, 0, 67, 64
2, 43088, Note_on_c, 0, 72, 37
2, 43089, Note_on_c, 0, 60, 35
2, 43114, Note_off_c, 0, 60, 64
2, 43140, Note_off_c, 0, 72, 64
2, 43140, Note_on_c, 0, 75, 38
2, 43141, Note_on_c, 0, 55, 47
2, 43164, Note_off_c, 0, 55, 64
2, 43191, Note_off_c, 0, 75, 64
2, 43191, Note_on_c, 0, 72, 37
2, 43192, Note_on_c, 0, 60, 43
2, 43217, Note_off_c, 0, 60, 64
2, 43242, Note_off_c, 0, 72, 64
2, 43244, Note_on_c, 0, 75, 40
2, 43244, Note_on_c, 0, 55, 35
2, 43268, Note_off_c, 0, 55, 64
2, 43294, Note_off_c, 0, 75, 64
2, 43294, Note_on_c, 0, 79, 35
2, 43295, Note_on_c, 0, 51, 46
2, 43320, Note_off_c, 0, 51, 64
2, 43345, Note_off_c, 0, 79, 64
2, 43347, Note_on_c, 0, 67, 35
2, 43397, Note_off_c, 0, 67, 64
2, 43398, Note_on_c, 0, 66, 34
2, 43448, Note_off_c, 0, 66, 64
2, 43449, Note_on_c, 0, 67, 40
2, 43500, Note_off_c, 0, 67, 64
2, 43501, Note_on_c, 0, 68, 37
2, 43551, Note_off_c, 0, 68, 64
2, 43552, Note_on_c, 0, 69, 42
2, 43602, Note_off_c, 0, 69, 64
2, 43604, Note_on_c, 0, 70, 37
2, 43655, Note_off_c, 0, 70, 64
2, 43655, Note_on_c, 0, 71, 44
2, 43705, Note_off_c, 0, 71, 64
2, 43707, Note_on_c, 0, 72, 41
2, 43758, Note_off_c, 0, 72, 64
2, 43758, Note_on_c, 0, 73, 47
2, 43809, Note_off_c, 0, 73, 64
2, 43809, Note_on_c, 0, 74, 54
2, 43861, Note_off_c, 0, 74, 64
2, 43862, Note_on_c, 0, 75, 43
2, 43912, Note_off_c, 0, 75, 64
2, 43912, Note_on_c, 0, 76, 59
2, 43963, Note_off_c, 0, 76, 64
2, 43965, Note_on_c, 0, 77, 46
2, 44015, Note_off_c, 0, 77, 64
2, 44016, Note_on_c, 0, 78, 49
2, 44066, Note_off_c, 0, 78, 64
2, 44068, Note_on_c, 0, 60, 44
2, 44068, Note_on_c, 0, 51, 35
2, 44068, Note_on_c, 0, 79, 58
2, 44069, Note_on_c, 0, 55, 45
2, 44119, Note_off_c, 0, 79, 64
2, 44119, Note_on_c, 0, 75, 43
2, 44169, Note_off_c, 0, 75, 64
2, 44170, Note_off_c, 0, 51, 64
2, 44170, Note_off_c, 0, 60, 64
2, 44170, Note_off_c, 0, 55, 64
2, 44171, Note_on_c, 0, 72, 38
2, 44221, Note_off_c, 0, 72, 64
2, 44222, Note_on_c, 0, 70, 41
2, 44223, Note_on_c, 0, 53, 38
2, 44223, Note_on_c, 0, 62, 39
2, 44223, Note_on_c, 0, 58, 35
2, 44272, Note_off_c, 0, 70, 64
2, 44325, Note_off_c, 0, 58, 64
2, 44325, Note_off_c, 0, 62, 64
2, 44326, Note_off_c, 0, 53, 64
2, 44376, Note_on_c, 0, 63, 29
2, 44376, Note_on_c, 0, 53, 29
2, 44376, Note_on_c, 0, 57, 31
2, 44377, Note_on_c, 0, 60, 34
2, 44377, Note_on_c, 0, 53, 32
2, 44381, Note_on_c, 0, 72, 50
2, 44394, Note_off_c, 0, 72, 64
2, 44396, Note_on_c, 0, 74, 43
2, 44410, Note_off_c, 0, 74, 64
2, 44410, Note_on_c, 0, 72, 50
2, 44424, Note_off_c, 0, 72, 64
2, 44424, Note_on_c, 0, 74, 44
2, 44437, Note_off_c, 0, 74, 64
2, 44440, Note_on_c, 0, 72, 50
2, 44452, Note_off_c, 0, 72, 64
2, 44453, Note_on_c, 0, 70, 46
2, 44468, Note_off_c, 0, 70, 64
2, 44468, Note_on_c, 0, 72, 50
2, 44479, Note_off_c, 0, 60, 64
2, 44479, Note_off_c, 0, 53, 64
2, 44480, Note_off_c, 0, 53, 64
2, 44480, Note_off_c, 0, 57, 64
2, 44480, Note_off_c, 0, 63, 64
2, 44483, Note_off_c, 0, 72, 64
2, 44505, Note_on_c, 0, 72, 44
2, 44530, Note_off_c, 0, 72, 64
2, 44532, Note_on_c, 0, 70, 31
2, 44532, Note_on_c, 0, 46, 32
2, 44556, Note_off_c, 0, 46, 64
2, 44556, Note_off_c, 0, 70, 64
2, 44582, Note_on_c, 0, 53, 34
2, 44606, Note_off_c, 0, 53, 64
2, 44633, Note_on_c, 0, 70, 29
2, 44633, Note_on_c, 0, 58, 27
2, 44659, Note_off_c, 0, 58, 64
2, 44685, Note_off_c, 0, 70, 64
2, 44686, Note_on_c, 0, 74, 34
2, 44686, Note_on_c, 0, 62, 40
2, 44710, Note_off_c, 0, 62, 64
2, 44710, Note_off_c, 0, 74, 64
2, 44736, Note_on_c, 0, 58, 29
2, 44762, Note_off_c, 0, 58, 64
2, 44789, Note_on_c, 0, 74, 38
2, 44789, Note_on_c, 0, 53, 28
2, 44813, Note_off_c, 0, 53, 64
2, 44839, Note_off_c, 0, 74, 64
2, 44840, Note_on_c, 0, 77, 43
2, 44840, Note_on_c, 0, 46, 34
2, 44866, Note_off_c, 0, 46, 64
2, 44866, Note_off_c, 0, 77, 64
2, 44892, Note_on_c, 0, 53, 35
2, 44916, Note_off_c, 0, 53, 64
2, 44942, Note_on_c, 0, 77, 36
2, 44943, Note_on_c, 0, 58, 35
2, 44967, Note_off_c, 0, 58, 64
2, 44993, Note_off_c, 0, 77, 64
2, 44994, Note_on_c, 0, 82, 39
2, 44994, Note_on_c, 0, 62, 40
2, 45020, Note_off_c, 0, 62, 64
2, 45020, Note_off_c, 0, 82, 64
2, 45046, Note_on_c, 0, 58, 28
2, 45070, Note_off_c, 0, 58, 64
2, 45096, Note_on_c, 0, 82, 38
2, 45097, Note_on_c, 0, 53, 29
2, 45123, Note_off_c, 0, 53, 64
2, 45149, Note_off_c, 0, 82, 64
2, 45149, Note_on_c, 0, 86, 40
2, 45150, Note_on_c, 0, 46, 39
2, 45173, Note_off_c, 0, 46, 64
2, 45174, Note_off_c, 0, 86, 64
2, 45200, Note_on_c, 0, 53, 26
2, 45226, Note_off_c, 0, 53, 64
2, 45252, Note_on_c, 0, 86, 43
2, 45253, Note_on_c, 0, 58, 25
2, 45276, Note_off_c, 0, 58, 64
2, 45303, Note_off_c, 0, 86, 64
2, 45303, Note_on_c, 0, 89, 46
2, 45304, Note_on_c, 0, 62, 33
2, 45329, Note_off_c, 0, 62, 64
2, 45329, Note_off_c, 0, 89, 64
2, 45356, Note_on_c, 0, 58, 28
2, 45380, Note_off_c, 0, 58, 64
2, 45407, Note_on_c, 0, 82, 47
2, 45407, Note_on_c, 0, 53, 26
2, 45431, Note_off_c, 0, 53, 64
2, 45457, Note_off_c, 0, 82, 64
2, 45457, Note_on_c, 0, 86, 47
2, 45457, Note_on_c, 0, 46, 36
2, 45483, Note_off_c, 0, 46, 64
2, 45484, Note_off_c, 0, 86, 64
2, 45510, Note_on_c, 0, 53, 30
2, 45534, Note_off_c, 0, 53, 64
2, 45560, Note_on_c, 0, 77, 39
2, 45561, Note_on_c, 0, 58, 22
2, 45587, Note_off_c, 0, 58, 64
2, 45611, Note_off_c, 0, 77, 64
2, 45613, Note_on_c, 0, 82, 43
2, 45613, Note_on_c, 0, 62, 40
2, 45637, Note_off_c, 0, 62, 64
2, 45637, Note_off_c, 0, 82, 64
2, 45664, Note_on_c, 0, 58, 32
2, 45690, Note_off_c, 0, 58, 64
2, 45716, Note_on_c, 0, 74, 43
2, 45717, Note_on_c, 0, 53, 31
2, 45740, Note_off_c, 0, 53, 64
2, 45767, Note_off_c, 0, 74, 64
2, 45767, Note_on_c, 0, 77, 46
2, 45768, Note_on_c, 0, 46, 34
2, 45791, Note_off_c, 0, 46, 64
2, 45792, Note_off_c, 0, 77, 64
2, 45817, Note_on_c, 0, 53, 28
2, 45844, Note_off_c, 0, 53, 64
2, 45870, Note_on_c, 0, 70, 43
2, 45870, Note_on_c, 0, 58, 29
2, 45894, Note_off_c, 0, 58, 64
2, 45921, Note_off_c, 0, 70, 64
2, 45921, Note_on_c, 0, 74, 46
2, 45921, Note_on_c, 0, 62, 36
2, 45947, Note_off_c, 0, 62, 64
2, 45947, Note_off_c, 0, 74, 64
2, 45974, Note_on_c, 0, 58, 28
2, 45998, Note_off_c, 0, 58, 64
2, 46024, Note_on_c, 0, 72, 40
2, 46024, Note_on_c, 0, 53, 35
2, 46050, Note_off_c, 0, 53, 64
2, 46075, Note_off_c, 0, 72, 64
2, 46077, Note_on_c, 0, 41, 43
2, 46077, Note_on_c, 0, 75, 43
2, 46101, Note_off_c, 0, 75, 64
2, 46101, Note_off_c, 0, 41, 64
2, 46127, Note_on_c, 0, 53, 34
2, 46152, Note_off_c, 0, 53, 64
2, 46180, Note_on_c, 0, 69, 34
2, 46180, Note_on_c, 0, 57, 32
2, 46204, Note_off_c, 0, 57, 64
2, 46231, Note_off_c, 0, 69, 64
2, 46231, Note_on_c, 0, 72, 37
2, 46231, Note_on_c, 0, 60, 39
2, 46255, Note_off_c, 0, 60, 64
2, 46255, Note_off_c, 0, 72, 64
2, 46281, Note_on_c, 0, 57, 35
2, 46308, Note_off_c, 0, 57, 64
2, 46334, Note_on_c, 0, 69, 38
2, 46334, Note_on_c, 0, 53, 36
2, 46358, Note_off_c, 0, 53, 64
2, 46384, Note_off_c, 0, 69, 64
2, 46384, Note_on_c, 0, 70, 37
2, 46385, Note_on_c, 0, 46, 49
2, 46411, Note_off_c, 0, 46, 64
2, 46411, Note_off_c, 0, 70, 64
2, 46437, Note_on_c, 0, 53, 44
2, 46461, Note_off_c, 0, 53, 64
2, 46488, Note_on_c, 0, 70, 45
2, 46488, Note_on_c, 0, 58, 34
2, 46514, Note_off_c, 0, 58, 64
2, 46538, Note_off_c, 0, 70, 64
2, 46540, Note_on_c, 0, 74, 47
2, 46541, Note_on_c, 0, 62, 39
2, 46565, Note_off_c, 0, 62, 64
2, 46565, Note_off_c, 0, 74, 64
2, 46591, Note_on_c, 0, 58, 34
2, 46615, Note_off_c, 0, 58, 64
2, 46642, Note_on_c, 0, 74, 44
2, 46642, Note_on_c, 0, 53, 32
2, 46668, Note_off_c, 0, 53, 64
2, 46694, Note_off_c, 0, 74, 64
2, 46694, Note_on_c, 0, 77, 43
2, 46695, Note_on_c, 0, 46, 44
2, 46718, Note_off_c, 0, 46, 64
2, 46719, Note_off_c, 0, 77, 64
2, 46745, Note_on_c, 0, 53, 38
2, 46771, Note_off_c, 0, 53, 64
2, 46798, Note_on_c, 0, 77, 41
2, 46798, Note_on_c, 0, 58, 32
2, 46822, Note_off_c, 0, 58, 64
2, 46848, Note_off_c, 0, 77, 64
2, 46848, Note_on_c, 0, 82, 39
2, 46848, Note_on_c, 0, 62, 40
2, 46874, Note_off_c, 0, 62, 64
2, 46875, Note_off_c, 0, 82, 64
2, 46901, Note_on_c, 0, 58, 31
2, 46925, Note_off_c, 0, 58, 64
2, 46951, Note_on_c, 0, 82, 44
2, 46952, Note_on_c, 0, 53, 32
2, 46976, Note_off_c, 0, 53, 64
2, 47002, Note_off_c, 0, 82, 64
2, 47002, Note_on_c, 0, 86, 40
2, 47003, Note_on_c, 0, 46, 44
2, 47028, Note_off_c, 0, 46, 64
2, 47028, Note_off_c, 0, 86, 64
2, 47055, Note_on_c, 0, 53, 35
2, 47079, Note_off_c, 0, 53, 64
2, 47105, Note_on_c, 0, 86, 43
2, 47106, Note_on_c, 0, 58, 32
2, 47132, Note_off_c, 0, 58, 64
2, 47156, Note_off_c, 0, 86, 64
2, 47158, Note_on_c, 0, 89, 46
2, 47158, Note_on_c, 0, 62, 35
2, 47182, Note_off_c, 0, 62, 64
2, 47183, Note_off_c, 0, 89, 64
2, 47208, Note_on_c, 0, 58, 34
2, 47235, Note_off_c, 0, 58, 64
2, 47261, Note_on_c, 0, 82, 41
2, 47261, Note_on_c, 0, 53, 40
2, 47285, Note_off_c, 0, 53, 64
2, 47312, Note_off_c, 0, 82, 64
2, 47312, Note_on_c, 0, 86, 44
2, 47313, Note_on_c, 0, 46, 52
2, 47338, Note_off_c, 0, 46, 64
2, 47339, Note_off_c, 0, 86, 64
2, 47364, Note_on_c, 0, 53, 47
2, 47389, Note_off_c, 0, 53, 64
2, 47415, Note_on_c, 0, 77, 46
2, 47415, Note_on_c, 0, 58, 38
2, 47439, Note_off_c, 0, 58, 64
2, 47466, Note_off_c, 0, 77, 64
2, 47466, Note_on_c, 0, 82, 50
2, 47466, Note_on_c, 0, 62, 49
2, 47492, Note_off_c, 0, 62, 64
2, 47492, Note_off_c, 0, 82, 64
2, 47519, Note_on_c, 0, 58, 31
2, 47543, Note_off_c, 0, 58, 64
2, 47569, Note_on_c, 0, 74, 44
2, 47569, Note_on_c, 0, 53, 37
2, 47595, Note_off_c, 0, 53, 64
2, 47620, Note_off_c, 0, 74, 64
2, 47622, Note_on_c, 0, 77, 50
2, 47622, Note_on_c, 0, 46, 40
2, 47646, Note_off_c, 0, 46, 64
2, 47646, Note_off_c, 0, 77, 64
2, 47672, Note_on_c, 0, 53, 39
2, 47699, Note_off_c, 0, 53, 64
2, 47725, Note_on_c, 0, 70, 37
2, 47725, Note_on_c, 0, 58, 32
2, 47749, Note_off_c, 0, 58, 64
2, 47775, Note_off_c, 0, 70, 64
2, 47775, Note_on_c, 0, 74, 35
2, 47776, Note_on_c, 0, 62, 36
2, 47800, Note_off_c, 0, 62, 64
2, 47800, Note_off_c, 0, 74, 64
2, 47826, Note_on_c, 0, 58, 34
2, 47852, Note_off_c, 0, 58, 64
2, 47879, Note_on_c, 0, 65, 42
2, 47879, Note_on_c, 0, 53, 35
2, 47903, Note_off_c, 0, 53, 64
2, 47929, Note_off_c, 0, 65, 64
2, 47929, Note_on_c, 0, 70, 44
2, 47930, Note_on_c, 0, 46, 44
2, 47956, Note_off_c, 0, 46, 64
2, 47956, Note_off_c, 0, 70, 64
2, 47982, Note_on_c, 0, 50, 38
2, 48006, Note_off_c, 0, 50, 64
2, 48033, Note_on_c, 0, 62, 38
2, 48033, Note_on_c, 0, 53, 41
2, 48059, Note_off_c, 0, 53, 64
2, 48084, Note_off_c, 0, 62, 64
2, 48085, Note_on_c, 0, 65, 42
2, 48085, Note_on_c, 0, 58, 44
2, 48109, Note_off_c, 0, 58, 64
2, 48110, Note_off_c, 0, 65, 64
2, 48136, Note_on_c, 0, 53, 31
2, 48160, Note_off_c, 0, 53, 64
2, 48187, Note_on_c, 0, 58, 42
2, 48187, Note_on_c, 0, 50, 36
2, 48213, Note_off_c, 0, 50, 64
2, 48239, Note_off_c, 0, 58, 64
2, 48240, Note_on_c, 0, 62, 46
2, 48240, Note_on_c, 0, 46, 49
2, 48264, Note_off_c, 0, 46, 64
2, 48264, Note_off_c, 0, 62, 64
2, 48342, Note_on_c, 0, 53, 52
2, 48393, Note_off_c, 0, 53, 64
2, 48394, Note_on_c, 0, 58, 55
2, 48394, Note_on_c, 0, 34, 46
2, 48420, Note_off_c, 0, 58, 64
2, 48496, Note_off_c, 0, 34, 64
2, 48496, Note_on_c, 0, 50, 49
2, 48547, Note_off_c, 0, 50, 64
2, 48549, Note_on_c, 0, 53, 56
2, 48550, Note_on_c, 0, 34, 36
2, 48573, Note_off_c, 0, 53, 64
2, 48650, Note_off_c, 0, 34, 64
2, 48650, Note_on_c, 0, 52, 52
2, 48703, Note_off_c, 0, 52, 64
2, 48703, Note_on_c, 0, 55, 50
2, 48704, Note_on_c, 0, 34, 34
2, 48727, Note_off_c, 0, 55, 64
2, 48804, Note_off_c, 0, 34, 64
2, 48806, Note_on_c, 0, 53, 57
2, 48857, Note_on_c, 0, 50, 29
2, 48857, Note_on_c, 0, 56, 44
2, 48858, Note_on_c, 0, 34, 46
2, 49371, Note_off_c, 0, 34, 64
2, 49475, Note_off_c, 0, 53, 64
2, 49475, Note_off_c, 0, 56, 64
2, 49475, Note_off_c, 0, 50, 64
2, 49578, Note_on_c, 0, 53, 44
2, 49629, Note_off_c, 0, 53, 64
2, 49631, Note_on_c, 0, 56, 42
2, 49631, Note_on_c, 0, 37, 37
2, 49681, Note_off_c, 0, 56, 64
2, 49732, Note_off_c, 0, 37, 64
2, 49734, Note_on_c, 0, 53, 44
2, 49784, Note_off_c, 0, 53, 64
2, 49785, Note_on_c, 0, 56, 43
2, 49785, Note_on_c, 0, 37, 36
2, 49835, Note_off_c, 0, 56, 64
2, 49887, Note_off_c, 0, 37, 64
2, 49888, Note_on_c, 0, 54, 41
2, 49938, Note_off_c, 0, 54, 64
2, 49939, Note_on_c, 0, 58, 54
2, 49939, Note_on_c, 0, 37, 34
2, 49989, Note_off_c, 0, 58, 64
2, 50041, Note_off_c, 0, 37, 64
2, 50041, Note_on_c, 0, 56, 50
2, 50094, Note_on_c, 0, 53, 54
2, 50095, Note_on_c, 0, 59, 52
2, 50095, Note_on_c, 0, 37, 46
2, 50505, Note_off_c, 0, 37, 64
2, 50506, Note_off_c, 0, 59, 64
2, 50506, Note_off_c, 0, 53, 64
2, 50506, Note_off_c, 0, 56, 64
2, 50556, Note_on_c, 0, 61, 28
2, 50608, Note_off_c, 0, 61, 64
2, 50659, Note_on_c, 0, 61, 28
2, 50712, Note_off_c, 0, 61, 64
2, 50712, Note_on_c, 0, 66, 47
2, 50712, Note_on_c, 0, 58, 42
2, 50713, Note_on_c, 0, 30, 44
2, 50713, Note_on_c, 0, 42, 37
2, 50762, Note_off_c, 0, 58, 64
2, 50763, Note_off_c, 0, 66, 64
2, 50813, Note_off_c, 0, 42, 64
2, 50813, Note_off_c, 0, 30, 64
2, 50815, Note_on_c, 0, 66, 28
2, 50866, Note_off_c, 0, 66, 64
2, 50866, Note_on_c, 0, 61, 32
2, 50867, Note_on_c, 0, 73, 37
2, 50916, Note_off_c, 0, 61, 64
2, 50969, Note_off_c, 0, 73, 64
2, 50969, Note_on_c, 0, 61, 35
2, 51020, Note_off_c, 0, 61, 64
2, 51020, Note_on_c, 0, 66, 39
2, 51021, Note_on_c, 0, 58, 31
2, 51072, Note_off_c, 0, 58, 64
2, 51072, Note_off_c, 0, 66, 64
2, 51123, Note_on_c, 0, 66, 41
2, 51173, Note_off_c, 0, 66, 64
2, 51176, Note_on_c, 0, 61, 37
2, 51176, Note_on_c, 0, 73, 38
2, 51226, Note_off_c, 0, 61, 64
2, 51277, Note_off_c, 0, 73, 64
2, 51279, Note_on_c, 0, 61, 34
2, 51329, Note_off_c, 0, 61, 64
2, 51330, Note_on_c, 0, 66, 39
2, 51330, Note_on_c, 0, 58, 33
2, 51380, Note_off_c, 0, 58, 64
2, 51380, Note_off_c, 0, 66, 64
2, 51433, Note_on_c, 0, 58, 31
2, 51433, Note_on_c, 0, 66, 39
2, 51483, Note_off_c, 0, 66, 64
2, 51484, Note_off_c, 0, 58, 64
2, 51484, Note_on_c, 0, 61, 34
2, 51484, Note_on_c, 0, 73, 38
2, 51534, Note_off_c, 0, 61, 64
2, 51587, Note_off_c, 0, 73, 64
2, 51587, Note_on_c, 0, 61, 34
2, 51637, Note_off_c, 0, 61, 64
2, 51639, Note_on_c, 0, 68, 34
2, 51639, Note_on_c, 0, 65, 44
2, 51640, Note_on_c, 0, 73, 38
2, 51690, Note_off_c, 0, 65, 64
2, 51690, Note_off_c, 0, 68, 64
2, 51741, Note_off_c, 0, 73, 64
2, 51743, Note_on_c, 0, 68, 34
2, 51743, Note_on_c, 0, 65, 40
2, 51793, Note_off_c, 0, 65, 64
2, 51793, Note_off_c, 0, 68, 64
2, 51794, Note_on_c, 0, 61, 38
2, 51844, Note_off_c, 0, 61, 64
2, 51897, Note_on_c, 0, 61, 37
2, 51947, Note_off_c, 0, 61, 64
2, 51948, Note_on_c, 0, 68, 52
2, 51948, Note_on_c, 0, 65, 51
2, 51948, Note_on_c, 0, 37, 44
2, 51948, Note_on_c, 0, 49, 37
2, 51998, Note_off_c, 0, 65, 64
2, 51998, Note_off_c, 0, 68, 64
2, 52050, Note_off_c, 0, 49, 64
2, 52050, Note_off_c, 0, 37, 64
2, 52051, Note_on_c, 0, 68, 35
2, 52051, Note_on_c, 0, 65, 31
2, 52101, Note_off_c, 0, 65, 64
2, 52101, Note_off_c, 0, 68, 64
2, 52103, Note_on_c, 0, 61, 34
2, 52103, Note_on_c, 0, 73, 37
2, 52153, Note_off_c, 0, 61, 64
2, 52204, Note_off_c, 0, 73, 64
2, 52204, Note_on_c, 0, 61, 33
2, 52257, Note_off_c, 0, 61, 64
2, 52257, Note_on_c, 0, 65, 39
2, 52258, Note_on_c, 0, 68, 33
2, 52308, Note_off_c, 0, 68, 64
2, 52308, Note_off_c, 0, 65, 64
2, 52360, Note_on_c, 0, 68, 34
2, 52360, Note_on_c, 0, 65, 25
2, 52411, Note_off_c, 0, 65, 64
2, 52411, Note_off_c, 0, 68, 64
2, 52411, Note_on_c, 0, 61, 34
2, 52412, Note_on_c, 0, 73, 38
2, 52462, Note_off_c, 0, 61, 64
2, 52514, Note_off_c, 0, 73, 64
2, 52514, Note_on_c, 0, 61, 34
2, 52565, Note_off_c, 0, 61, 64
2, 52565, Note_on_c, 0, 68, 35
2, 52565, Note_on_c, 0, 65, 36
2, 52617, Note_off_c, 0, 65, 64
2, 52618, Note_off_c, 0, 68, 64
2, 52668, Note_on_c, 0, 65, 35
2, 52668, Note_on_c, 0, 68, 32
2, 52718, Note_off_c, 0, 68, 64
2, 52719, Note_off_c, 0, 65, 64
2, 52721, Note_on_c, 0, 73, 38
2, 52721, Note_on_c, 0, 61, 38
2, 52771, Note_off_c, 0, 61, 64
2, 52822, Note_off_c, 0, 73, 64
2, 52824, Note_on_c, 0, 61, 37
2, 52874, Note_off_c, 0, 61, 64
2, 52875, Note_on_c, 0, 70, 40
2, 52875, Note_on_c, 0, 66, 34
2, 52875, Note_on_c, 0, 73, 38
2, 52925, Note_off_c, 0, 66, 64
2, 52925, Note_off_c, 0, 70, 64
2, 52978, Note_off_c, 0, 73, 64
2, 53028, Note_on_c, 0, 73, 36
2, 53029, Note_on_c, 0, 37, 36
2, 53132, Note_off_c, 0, 37, 64
2, 53132, Note_off_c, 0, 73, 64
2, 53132, Note_on_c, 0, 73, 30
2, 53133, Note_on_c, 0, 37, 30
2, 53182, Note_off_c, 0, 37, 64
2, 53183, Note_off_c, 0, 73, 64
2, 53184, Control_c, 0, 64, 127
2, 53184, Note_on_c, 0, 78, 52
2, 53185, Note_on_c, 0, 66, 50
2, 53185, Note_on_c, 0, 42, 52
2, 53186, Note_on_c, 0, 30, 50
2, 53286, Note_off_c, 0, 30, 64
2, 53286, Note_off_c, 0, 42, 64
2, 53286, Note_off_c, 0, 66, 64
2, 53287, Note_off_c, 0, 78, 64
2, 53288, Note_on_c, 0, 78, 45
2, 53288, Note_on_c, 0, 42, 45
2, 53338, Note_off_c, 0, 42, 64
2, 53339, Note_off_c, 0, 78, 64
2, 53339, Note_on_c, 0, 73, 37
2, 53340, Note_on_c, 0, 37, 37
2, 53441, Note_off_c, 0, 37, 64
2, 53442, Note_off_c, 0, 73, 64
2, 53442, Note_on_c, 0, 73, 31
2, 53443, Note_on_c, 0, 37, 31
2, 53492, Note_off_c, 0, 37, 64
2, 53492, Note_off_c, 0, 73, 64
2, 53493, Note_on_c, 0, 78, 50
2, 53493, Note_on_c, 0, 66, 49
2, 53494, Note_on_c, 0, 42, 50
2, 53494, Note_on_c, 0, 30, 49
2, 53595, Note_off_c, 0, 30, 64
2, 53596, Note_off_c, 0, 42, 64
2, 53596, Note_off_c, 0, 66, 64
2, 53596, Note_off_c, 0, 78, 64
2, 53597, Note_on_c, 0, 78, 46
2, 53597, Note_on_c, 0, 42, 46
2, 53646, Note_off_c, 0, 42, 64
2, 53646, Note_off_c, 0, 78, 64
2, 53648, Note_on_c, 0, 73, 34
2, 53648, Note_on_c, 0, 37, 34
2, 53749, Note_off_c, 0, 37, 64
2, 53749, Note_off_c, 0, 73, 64
2, 53750, Note_on_c, 0, 37, 39
2, 53750, Note_on_c, 0, 73, 39
2, 53802, Note_off_c, 0, 73, 64
2, 53802, Note_off_c, 0, 37, 64
2, 53803, Note_on_c, 0, 78, 50
2, 53803, Note_on_c, 0, 66, 44
2, 53803, Note_on_c, 0, 42, 50
2, 53804, Note_on_c, 0, 30, 44
2, 53905, Note_off_c, 0, 30, 64
2, 53905, Note_off_c, 0, 42, 64
2, 53906, Note_off_c, 0, 66, 64
2, 53906, Note_off_c, 0, 78, 64
2, 53906, Note_on_c, 0, 78, 47
2, 53907, Note_on_c, 0, 42, 47
2, 53956, Note_off_c, 0, 42, 64
2, 53956, Note_off_c, 0, 78, 64
2, 53956, Note_on_c, 0, 73, 32
2, 53957, Note_on_c, 0, 37, 32
2, 54059, Note_off_c, 0, 37, 64
2, 54060, Note_off_c, 0, 73, 64
2, 54060, Note_on_c, 0, 73, 35
2, 54060, Note_on_c, 0, 37, 35
2, 54110, Note_off_c, 0, 37, 64
2, 54110, Note_off_c, 0, 73, 64
2, 54112, Note_on_c, 0, 78, 47
2, 54112, Note_on_c, 0, 66, 34
2, 54112, Note_on_c, 0, 42, 47
2, 54113, Note_on_c, 0, 30, 34
2, 54213, Note_off_c, 0, 30, 64
2, 54213, Note_off_c, 0, 42, 64
2, 54214, Note_off_c, 0, 66, 64
2, 54214, Note_off_c, 0, 78, 64
2, 54215, Note_on_c, 0, 82, 49
2, 54215, Note_on_c, 0, 46, 49
2, 54265, Note_off_c, 0, 46, 64
2, 54266, Note_off_c, 0, 82, 64
2, 54266, Note_on_c, 0, 85, 48
2, 54267, Note_on_c, 0, 49, 48
2, 54367, Note_off_c, 0, 49, 64
2, 54368, Note_off_c, 0, 85, 64
2, 54369, Note_on_c, 0, 78, 58
2, 54369, Note_on_c, 0, 42, 58
2, 54420, Note_off_c, 0, 42, 64
2, 54420, Note_off_c, 0, 78, 64
2, 54420, Note_on_c, 0, 74, 55
2, 54420, Note_on_c, 0, 86, 71
2, 54421, Note_on_c, 0, 35, 49
2, 54446, Note_off_c, 0, 35, 64
2, 54472, Note_on_c, 0, 38, 41
2, 54496, Note_off_c, 0, 38, 64
2, 54523, Note_on_c, 0, 42, 38
2, 54547, Note_off_c, 0, 42, 64
2, 54574, Note_on_c, 0, 47, 38
2, 54600, Note_off_c, 0, 47, 64
2, 54626, Note_on_c, 0, 38, 31
2, 54650, Note_off_c, 0, 38, 64
2, 54677, Note_on_c, 0, 42, 25
2, 54703, Note_off_c, 0, 42, 64
2, 54727, Note_off_c, 0, 74, 64
2, 54728, Note_off_c, 0, 86, 64
2, 54729, Note_on_c, 0, 83, 47
2, 54730, Note_on_c, 0, 71, 41
2, 54730, Note_on_c, 0, 35, 43
2, 54754, Note_off_c, 0, 35, 64
2, 54780, Note_off_c, 0, 71, 64
2, 54780, Note_off_c, 0, 83, 64
2, 54780, Note_on_c, 0, 38, 41
2, 54806, Note_off_c, 0, 38, 64
2, 54833, Note_on_c, 0, 42, 36
2, 54857, Note_off_c, 0, 42, 64
2, 54883, Note_on_c, 0, 66, 41
2, 54884, Note_on_c, 0, 78, 46
2, 54884, Note_on_c, 0, 47, 33
2, 54908, Note_off_c, 0, 47, 64
2, 54934, Note_off_c, 0, 78, 64
2, 54934, Note_off_c, 0, 66, 64
2, 54935, Note_on_c, 0, 38, 40
2, 54960, Note_off_c, 0, 38, 64
2, 54986, Note_on_c, 0, 42, 31
2, 55011, Note_off_c, 0, 42, 64
2, 55037, Control_c, 0, 64, 0
2, 55037, Note_on_c, 0, 74, 50
2, 55038, Note_on_c, 0, 62, 47
2, 55038, Note_on_c, 0, 35, 52
2, 55063, Note_off_c, 0, 35, 64
2, 55090, Note_off_c, 0, 62, 64
2, 55090, Note_off_c, 0, 74, 64
2, 55091, Note_on_c, 0, 38, 39
2, 55115, Note_off_c, 0, 38, 64
2, 55140, Note_on_c, 0, 42, 35
2, 55167, Note_off_c, 0, 42, 64
2, 55193, Note_on_c, 0, 71, 43
2, 55193, Note_on_c, 0, 59, 37
2, 55194, Note_on_c, 0, 47, 34
2, 55217, Note_off_c, 0, 47, 64
2, 55244, Note_off_c, 0, 59, 64
2, 55244, Note_off_c, 0, 71, 64
2, 55244, Note_on_c, 0, 38, 41
2, 55270, Note_off_c, 0, 38, 64
2, 55296, Note_on_c, 0, 42, 34
2, 55320, Note_off_c, 0, 42, 64
2, 55347, Note_on_c, 0, 66, 49
2, 55348, Note_on_c, 0, 54, 39
2, 55348, Note_on_c, 0, 35, 41
2, 55371, Note_off_c, 0, 35, 64
2, 55398, Note_off_c, 0, 54, 64
2, 55398, Note_off_c, 0, 66, 64
2, 55398, Note_on_c, 0, 38, 37
2, 55424, Note_off_c, 0, 38, 64
2, 55450, Note_on_c, 0, 42, 34
2, 55475, Note_off_c, 0, 42, 64
2, 55501, Note_on_c, 0, 62, 41
2, 55501, Note_on_c, 0, 50, 31
2, 55501, Note_on_c, 0, 47, 30
2, 55527, Note_off_c, 0, 47, 64
2, 55551, Note_off_c, 0, 50, 64
2, 55552, Note_off_c, 0, 62, 64
2, 55554, Note_on_c, 0, 35, 35
2, 55578, Note_off_c, 0, 35, 64
2, 55605, Note_on_c, 0, 74, 30
2, 55605, Note_on_c, 0, 38, 29
2, 55631, Note_off_c, 0, 38, 64
2, 55655, Note_off_c, 0, 74, 64
2, 55657, Note_on_c, 0, 67, 50
2, 55657, Note_on_c, 0, 79, 52
2, 55657, Control_c, 0, 64, 127
2, 55658, Note_on_c, 0, 31, 50
2, 55658, Note_on_c, 0, 43, 52
2, 55758, Note_off_c, 0, 43, 64
2, 55758, Note_off_c, 0, 31, 64
2, 55759, Note_off_c, 0, 79, 64
2, 55759, Note_off_c, 0, 67, 64
2, 55759, Note_on_c, 0, 79, 45
2, 55760, Note_on_c, 0, 43, 45
2, 55811, Note_off_c, 0, 43, 64
2, 55811, Note_off_c, 0, 79, 64
2, 55812, Note_on_c, 0, 74, 37
2, 55812, Note_on_c, 0, 38, 37
2, 55912, Note_off_c, 0, 38, 64
2, 55912, Note_off_c, 0, 74, 64
2, 55914, Note_on_c, 0, 74, 31
2, 55914, Note_on_c, 0, 38, 31
2, 55965, Note_off_c, 0, 38, 64
2, 55965, Note_off_c, 0, 74, 64
2, 55966, Note_on_c, 0, 79, 50
2, 55966, Note_on_c, 0, 67, 49
2, 55966, Note_on_c, 0, 43, 50
2, 55967, Note_on_c, 0, 31, 49
2, 56068, Note_off_c, 0, 31, 64
2, 56068, Note_off_c, 0, 43, 64
2, 56068, Note_off_c, 0, 67, 64
2, 56069, Note_off_c, 0, 79, 64
2, 56069, Note_on_c, 0, 79, 46
2, 56070, Note_on_c, 0, 43, 46
2, 56118, Note_off_c, 0, 43, 64
2, 56119, Note_off_c, 0, 79, 64
2, 56121, Note_on_c, 0, 74, 34
2, 56121, Note_on_c, 0, 38, 34
2, 56222, Note_off_c, 0, 38, 64
2, 56222, Note_off_c, 0, 74, 64
2, 56222, Note_on_c, 0, 74, 39
2, 56223, Note_on_c, 0, 38, 39
2, 56274, Note_off_c, 0, 38, 64
2, 56275, Note_off_c, 0, 74, 64
2, 56275, Note_on_c, 0, 79, 50
2, 56276, Note_on_c, 0, 67, 44
2, 56276, Note_on_c, 0, 43, 50
2, 56276, Note_on_c, 0, 31, 44
2, 56376, Note_off_c, 0, 31, 64
2, 56376, Note_off_c, 0, 43, 64
2, 56376, Note_off_c, 0, 67, 64
2, 56376, Note_off_c, 0, 79, 64
2, 56378, Note_on_c, 0, 79, 47
2, 56378, Note_on_c, 0, 43, 47
2, 56428, Note_off_c, 0, 43, 64
2, 56429, Note_off_c, 0, 79, 64
2, 56429, Note_on_c, 0, 74, 32
2, 56429, Note_on_c, 0, 38, 32
2, 56532, Note_off_c, 0, 38, 64
2, 56532, Note_off_c, 0, 74, 64
2, 56532, Note_on_c, 0, 74, 35
2, 56532, Note_on_c, 0, 38, 35
2, 56582, Note_off_c, 0, 38, 64
2, 56582, Note_off_c, 0, 74, 64
2, 56583, Note_on_c, 0, 67, 34
2, 56583, Note_on_c, 0, 79, 47
2, 56584, Note_on_c, 0, 31, 34
2, 56584, Note_on_c, 0, 43, 47
2, 56686, Note_off_c, 0, 67, 64
2, 56686, Note_off_c, 0, 43, 64
2, 56686, Note_off_c, 0, 31, 64
2, 56687, Note_off_c, 0, 79, 64
2, 56687, Note_on_c, 0, 83, 49
2, 56688, Note_on_c, 0, 47, 49
2, 56736, Note_off_c, 0, 47, 64
2, 56736, Note_off_c, 0, 83, 64
2, 56738, Note_on_c, 0, 86, 48
2, 56738, Note_on_c, 0, 50, 48
2, 56839, Note_off_c, 0, 50, 64
2, 56840, Note_off_c, 0, 86, 64
2, 56842, Note_on_c, 0, 79, 58
2, 56842, Note_on_c, 0, 43, 58
2, 56892, Note_off_c, 0, 43, 64
2, 56892, Note_off_c, 0, 79, 64
2, 56892, Note_on_c, 0, 87, 71
2, 56893, Note_on_c, 0, 75, 55
2, 56893, Note_on_c, 0, 36, 49
2, 56916, Note_off_c, 0, 36, 64
2, 56943, Note_on_c, 0, 39, 41
2, 56969, Note_off_c, 0, 39, 64
2, 56995, Note_on_c, 0, 43, 38
2, 57020, Note_off_c, 0, 43, 64
2, 57046, Note_on_c, 0, 48, 38
2, 57072, Note_off_c, 0, 48, 64
2, 57098, Note_on_c, 0, 39, 31
2, 57123, Note_off_c, 0, 39, 64
2, 57149, Note_on_c, 0, 43, 25
2, 57176, Note_off_c, 0, 43, 64
2, 57200, Note_off_c, 0, 75, 64
2, 57200, Note_off_c, 0, 87, 64
2, 57202, Control_c, 0, 64, 0
2, 57203, Note_on_c, 0, 84, 47
2, 57203, Note_on_c, 0, 72, 41
2, 57203, Note_on_c, 0, 36, 43
2, 57226, Note_off_c, 0, 36, 64
2, 57252, Note_off_c, 0, 72, 64
2, 57252, Note_off_c, 0, 84, 64
2, 57253, Note_on_c, 0, 39, 41
2, 57279, Note_off_c, 0, 39, 64
2, 57305, Note_on_c, 0, 43, 36
2, 57329, Note_off_c, 0, 43, 64
2, 57356, Note_on_c, 0, 67, 41
2, 57356, Note_on_c, 0, 79, 46
2, 57357, Note_on_c, 0, 48, 33
2, 57380, Note_off_c, 0, 48, 64
2, 57407, Note_off_c, 0, 79, 64
2, 57407, Note_off_c, 0, 67, 64
2, 57407, Note_on_c, 0, 39, 40
2, 57432, Note_off_c, 0, 39, 64
2, 57459, Note_on_c, 0, 43, 31
2, 57483, Note_off_c, 0, 43, 64
2, 57510, Note_on_c, 0, 75, 50
2, 57510, Note_on_c, 0, 63, 47
2, 57510, Note_on_c, 0, 36, 52
2, 57536, Note_off_c, 0, 36, 64
2, 57560, Note_off_c, 0, 63, 64
2, 57561, Note_off_c, 0, 75, 64
2, 57563, Note_on_c, 0, 39, 39
2, 57587, Note_off_c, 0, 39, 64
2, 57613, Note_on_c, 0, 43, 35
2, 57639, Note_off_c, 0, 43, 64
2, 57666, Note_on_c, 0, 72, 43
2, 57666, Note_on_c, 0, 60, 37
2, 57666, Note_on_c, 0, 48, 34
2, 57690, Note_off_c, 0, 48, 64
2, 57716, Note_off_c, 0, 60, 64
2, 57717, Note_off_c, 0, 72, 64
2, 57717, Note_on_c, 0, 39, 41
2, 57741, Note_off_c, 0, 39, 64
2, 57767, Note_on_c, 0, 43, 34
2, 57793, Note_off_c, 0, 43, 64
2, 57819, Note_on_c, 0, 67, 49
2, 57820, Note_on_c, 0, 55, 39
2, 57820, Note_on_c, 0, 36, 41
2, 57844, Note_off_c, 0, 36, 64
2, 57870, Note_off_c, 0, 55, 64
2, 57870, Note_off_c, 0, 67, 64
2, 57871, Note_on_c, 0, 39, 37
2, 57896, Note_off_c, 0, 39, 64
2, 57923, Note_on_c, 0, 43, 34
2, 57947, Note_off_c, 0, 43, 64
2, 57974, Note_on_c, 0, 63, 41
2, 57974, Note_on_c, 0, 51, 31
2, 57974, Note_on_c, 0, 48, 30
2, 58000, Note_off_c, 0, 48, 64
2, 58024, Note_off_c, 0, 51, 64
2, 58024, Note_off_c, 0, 63, 64
2, 58026, Note_on_c, 0, 36, 35
2, 58050, Note_off_c, 0, 36, 64
2, 58077, Note_on_c, 0, 48, 29
2, 58101, Note_off_c, 0, 48, 64
2, 58128, Control_c, 0, 64, 127
2, 58128, Note_on_c, 0, 75, 71
2, 58128, Note_on_c, 0, 63, 55
2, 58128, Note_on_c, 0, 32, 49
2, 58153, Note_off_c, 0, 32, 64
2, 58180, Note_on_c, 0, 36, 41
2, 58204, Note_off_c, 0, 36, 64
2, 58231, Note_on_c, 0, 39, 38
2, 58257, Note_off_c, 0, 39, 64
2, 58284, Note_on_c, 0, 44, 38
2, 58308, Note_off_c, 0, 44, 64
2, 58334, Note_on_c, 0, 36, 31
2, 58360, Note_off_c, 0, 36, 64
2, 58387, Note_on_c, 0, 39, 25
2, 58411, Note_off_c, 0, 39, 64
2, 58437, Note_off_c, 0, 63, 64
2, 58437, Note_off_c, 0, 75, 64
2, 58438, Note_on_c, 0, 72, 47
2, 58438, Note_on_c, 0, 60, 41
2, 58439, Note_on_c, 0, 32, 43
2, 58464, Note_off_c, 0, 32, 64
2, 58488, Note_off_c, 0, 60, 64
2, 58488, Note_off_c, 0, 72, 64
2, 58490, Note_on_c, 0, 36, 41
2, 58514, Note_off_c, 0, 36, 64
2, 58540, Note_on_c, 0, 39, 36
2, 58565, Note_off_c, 0, 39, 64
2, 58591, Note_on_c, 0, 55, 41
2, 58592, Note_on_c, 0, 67, 46
2, 58592, Note_on_c, 0, 44, 33
2, 58617, Note_off_c, 0, 44, 64
2, 58644, Note_off_c, 0, 67, 64
2, 58644, Note_off_c, 0, 55, 64
2, 58644, Note_on_c, 0, 36, 40
2, 58668, Note_off_c, 0, 36, 64
2, 58694, Note_on_c, 0, 39, 31
2, 58721, Note_off_c, 0, 39, 64
2, 58747, Control_c, 0, 64, 0
2, 58747, Note_on_c, 0, 63, 50
2, 58748, Note_on_c, 0, 51, 47
2, 58748, Note_on_c, 0, 32, 52
2, 58771, Note_off_c, 0, 32, 64
2, 58798, Note_off_c, 0, 51, 64
2, 58798, Note_off_c, 0, 63, 64
2, 58798, Note_on_c, 0, 36, 39
2, 58824, Note_off_c, 0, 36, 64
2, 58850, Note_on_c, 0, 39, 35
2, 58874, Note_off_c, 0, 39, 64
2, 58901, Note_on_c, 0, 60, 43
2, 58901, Note_on_c, 0, 48, 37
2, 58902, Note_on_c, 0, 44, 34
2, 58925, Note_off_c, 0, 44, 64
2, 58951, Note_off_c, 0, 48, 64
2, 58952, Note_off_c, 0, 60, 64
2, 58952, Note_on_c, 0, 36, 41
2, 58978, Note_off_c, 0, 36, 64
2, 59004, Note_on_c, 0, 39, 34
2, 59028, Note_off_c, 0, 39, 64
2, 59055, Note_on_c, 0, 55, 49
2, 59055, Note_on_c, 0, 43, 39
2, 59055, Note_on_c, 0, 32, 41
2, 59081, Note_off_c, 0, 32, 64
2, 59105, Note_off_c, 0, 43, 64
2, 59106, Note_off_c, 0, 55, 64
2, 59107, Note_on_c, 0, 36, 37
2, 59132, Note_off_c, 0, 36, 64
2, 59158, Note_on_c, 0, 39, 34
2, 59184, Note_off_c, 0, 39, 64
2, 59211, Note_on_c, 0, 51, 41
2, 59211, Note_on_c, 0, 39, 31
2, 59212, Note_on_c, 0, 44, 30
2, 59235, Note_off_c, 0, 44, 64
2, 59261, Note_off_c, 0, 39, 64
2, 59261, Note_off_c, 0, 51, 64
2, 59262, Note_on_c, 0, 32, 35
2, 59286, Note_off_c, 0, 32, 64
2, 59312, Note_on_c, 0, 44, 29
2, 59338, Note_off_c, 0, 44, 64
2, 59364, Control_c, 0, 64, 127
2, 59365, Note_on_c, 0, 65, 55
2, 59365, Note_on_c, 0, 77, 71
2, 59366, Note_on_c, 0, 29, 49
2, 59389, Note_off_c, 0, 29, 64
2, 59415, Note_on_c, 0, 32, 41
2, 59441, Note_off_c, 0, 32, 64
2, 59468, Note_on_c, 0, 37, 38
2, 59492, Note_off_c, 0, 37, 64
2, 59519, Note_on_c, 0, 41, 38
2, 59544, Note_off_c, 0, 41, 64
2, 59571, Note_on_c, 0, 32, 31
2, 59595, Note_off_c, 0, 32, 64
2, 59622, Note_on_c, 0, 37, 25
2, 59648, Note_off_c, 0, 37, 64
2, 59672, Note_off_c, 0, 65, 64
2, 59673, Note_off_c, 0, 77, 64
2, 59675, Control_c, 0, 64, 0
2, 59675, Note_on_c, 0, 73, 47
2, 59675, Note_on_c, 0, 61, 41
2, 59676, Note_on_c, 0, 29, 43
2, 59699, Note_off_c, 0, 29, 64
2, 59725, Note_off_c, 0, 61, 64
2, 59725, Note_off_c, 0, 73, 64
2, 59725, Note_on_c, 0, 32, 41
2, 59749, Note_off_c, 0, 32, 64
2, 59776, Note_on_c, 0, 37, 36
2, 59802, Note_off_c, 0, 37, 64
2, 59828, Note_on_c, 0, 56, 41
2, 59829, Note_on_c, 0, 68, 46
2, 59829, Note_on_c, 0, 41, 33
2, 59853, Note_off_c, 0, 41, 64
2, 59879, Note_off_c, 0, 68, 64
2, 59879, Note_off_c, 0, 56, 64
2, 59880, Note_on_c, 0, 32, 40
2, 59905, Note_off_c, 0, 32, 64
2, 59932, Note_on_c, 0, 37, 31
2, 59956, Note_off_c, 0, 37, 64
2, 59982, Note_on_c, 0, 65, 50
2, 59983, Note_on_c, 0, 53, 47
2, 59983, Note_on_c, 0, 29, 52
2, 60009, Note_off_c, 0, 29, 64
2, 60033, Note_off_c, 0, 53, 64
2, 60033, Note_off_c, 0, 65, 64
2, 60035, Note_on_c, 0, 32, 39
2, 60059, Note_off_c, 0, 32, 64
2, 60085, Note_on_c, 0, 37, 35
2, 60110, Note_off_c, 0, 37, 64
2, 60136, Note_on_c, 0, 61, 43
2, 60136, Note_on_c, 0, 49, 37
2, 60137, Note_on_c, 0, 41, 34
2, 60162, Note_off_c, 0, 41, 64
2, 60189, Note_off_c, 0, 49, 64
2, 60189, Note_off_c, 0, 61, 64
2, 60189, Note_on_c, 0, 32, 41
2, 60213, Note_off_c, 0, 32, 64
2, 60240, Note_on_c, 0, 37, 34
2, 60265, Note_off_c, 0, 37, 64
2, 60292, Note_on_c, 0, 56, 49
2, 60292, Note_on_c, 0, 44, 39
2, 60293, Note_on_c, 0, 29, 41
2, 60316, Note_off_c, 0, 29, 64
2, 60343, Note_off_c, 0, 44, 64
2, 60343, Note_off_c, 0, 56, 64
2, 60343, Note_on_c, 0, 32, 37
2, 60369, Note_off_c, 0, 32, 64
2, 60396, Note_on_c, 0, 37, 34
2, 60420, Note_off_c, 0, 37, 64
2, 60446, Note_on_c, 0, 53, 41
2, 60446, Note_on_c, 0, 41, 31
2, 60447, Note_on_c, 0, 41, 30
2, 60472, Note_off_c, 0, 41, 64
2, 60496, Note_off_c, 0, 41, 64
2, 60497, Note_off_c, 0, 53, 64
2, 60499, Note_on_c, 0, 32, 35
2, 60523, Note_off_c, 0, 32, 64
2, 60549, Note_on_c, 0, 38, 29
2, 60574, Note_off_c, 0, 38, 64
2, 60600, Control_c, 0, 64, 127
2, 60600, Note_on_c, 0, 83, 71
2, 60601, Note_on_c, 0, 71, 55
2, 60601, Note_on_c, 0, 31, 49
2, 60626, Note_off_c, 0, 31, 64
2, 60652, Note_on_c, 0, 35, 41
2, 60677, Note_off_c, 0, 35, 64
2, 60703, Note_on_c, 0, 38, 38
2, 60729, Note_off_c, 0, 38, 64
2, 60756, Note_on_c, 0, 43, 38
2, 60780, Note_off_c, 0, 43, 64
2, 60806, Note_on_c, 0, 35, 31
2, 60832, Note_off_c, 0, 35, 64
2, 60859, Note_on_c, 0, 38, 25
2, 60883, Note_off_c, 0, 38, 64
2, 60910, Note_off_c, 0, 71, 64
2, 60910, Note_off_c, 0, 83, 64
2, 60910, Note_on_c, 0, 77, 47
2, 60911, Note_on_c, 0, 65, 41
2, 60911, Note_on_c, 0, 31, 43
2, 60934, Note_off_c, 0, 31, 64
2, 60960, Note_off_c, 0, 65, 64
2, 60960, Note_off_c, 0, 77, 64
2, 60961, Note_on_c, 0, 35, 41
2, 60986, Note_off_c, 0, 35, 64
2, 61013, Note_on_c, 0, 38, 36
2, 61037, Note_off_c, 0, 38, 64
2, 61064, Note_on_c, 0, 62, 41
2, 61064, Note_on_c, 0, 74, 46
2, 61064, Note_on_c, 0, 43, 33
2, 61090, Note_off_c, 0, 43, 64
2, 61114, Note_off_c, 0, 74, 64
2, 61115, Note_off_c, 0, 62, 64
2, 61116, Note_on_c, 0, 35, 40
2, 61140, Note_off_c, 0, 35, 64
2, 61167, Note_on_c, 0, 38, 31
2, 61193, Note_off_c, 0, 38, 64
2, 61219, Control_c, 0, 64, 0
2, 61220, Note_on_c, 0, 71, 50
2, 61220, Note_on_c, 0, 59, 47
2, 61221, Note_on_c, 0, 31, 52
2, 61244, Note_off_c, 0, 31, 64
2, 61270, Note_off_c, 0, 59, 64
2, 61270, Note_off_c, 0, 71, 64
2, 61271, Note_on_c, 0, 35, 39
2, 61295, Note_off_c, 0, 35, 64
2, 61321, Note_on_c, 0, 38, 35
2, 61347, Note_off_c, 0, 38, 64
2, 61373, Note_on_c, 0, 65, 43
2, 61374, Note_on_c, 0, 53, 37
2, 61374, Note_on_c, 0, 43, 34
2, 61398, Note_off_c, 0, 43, 64
2, 61424, Note_off_c, 0, 53, 64
2, 61424, Note_off_c, 0, 65, 64
2, 61425, Note_on_c, 0, 35, 41
2, 61450, Note_off_c, 0, 35, 64
2, 61476, Note_on_c, 0, 38, 34
2, 61501, Note_off_c, 0, 38, 64
2, 61527, Note_on_c, 0, 62, 49
2, 61528, Note_on_c, 0, 50, 39
2, 61528, Note_on_c, 0, 31, 41
2, 61553, Note_off_c, 0, 31, 64
2, 61578, Note_off_c, 0, 50, 64
2, 61578, Note_off_c, 0, 62, 64
2, 61580, Note_on_c, 0, 35, 37
2, 61604, Note_off_c, 0, 35, 64
2, 61631, Note_on_c, 0, 38, 34
2, 61656, Note_off_c, 0, 38, 64
2, 61683, Note_on_c, 0, 59, 41
2, 61683, Note_on_c, 0, 47, 31
2, 61684, Note_on_c, 0, 43, 30
2, 61707, Note_off_c, 0, 43, 64
2, 61734, Note_off_c, 0, 47, 64
2, 61734, Note_off_c, 0, 59, 64
2, 61734, Note_on_c, 0, 41, 35
2, 61758, Note_off_c, 0, 41, 64
2, 61785, Note_on_c, 0, 55, 35
2, 61785, Note_on_c, 0, 38, 29
2, 61811, Note_off_c, 0, 38, 64
2, 61837, Note_off_c, 0, 55, 64
2, 61837, Note_on_c, 0, 60, 57
2, 61838, Note_on_c, 0, 52, 54
2, 61838, Note_on_c, 0, 36, 47
2, 61888, Note_off_c, 0, 52, 64
2, 61888, Note_off_c, 0, 60, 64
2, 61938, Note_off_c, 0, 36, 64
2, 61940, Note_on_c, 0, 60, 37
2, 61991, Note_off_c, 0, 60, 64
2, 61991, Note_on_c, 0, 55, 31
2, 61992, Note_on_c, 0, 67, 39
2, 62041, Note_off_c, 0, 55, 64
2, 62094, Note_off_c, 0, 67, 64
2, 62094, Note_on_c, 0, 55, 37
2, 62145, Note_off_c, 0, 55, 64
2, 62145, Note_on_c, 0, 60, 50
2, 62146, Note_on_c, 0, 52, 43
2, 62197, Note_off_c, 0, 52, 64
2, 62198, Note_off_c, 0, 60, 64
2, 62248, Note_on_c, 0, 60, 41
2, 62299, Note_off_c, 0, 60, 64
2, 62301, Note_on_c, 0, 67, 40
2, 62301, Note_on_c, 0, 55, 34
2, 62352, Note_off_c, 0, 55, 64
2, 62402, Note_off_c, 0, 67, 64
2, 62404, Note_on_c, 0, 55, 35
2, 62455, Note_off_c, 0, 55, 64
2, 62455, Note_on_c, 0, 60, 47
2, 62456, Note_on_c, 0, 52, 47
2, 62505, Note_off_c, 0, 52, 64
2, 62506, Note_off_c, 0, 60, 64
2, 62558, Note_on_c, 0, 60, 40
2, 62608, Note_off_c, 0, 60, 64
2, 62609, Note_on_c, 0, 55, 35
2, 62609, Note_on_c, 0, 67, 35
2, 62661, Note_off_c, 0, 55, 64
2, 62712, Note_off_c, 0, 67, 64
2, 62712, Note_on_c, 0, 55, 35
2, 62762, Note_off_c, 0, 55, 64
2, 62764, Note_on_c, 0, 62, 40
2, 62765, Note_on_c, 0, 59, 43
2, 62765, Note_on_c, 0, 67, 34
2, 62815, Note_off_c, 0, 59, 64
2, 62815, Note_off_c, 0, 62, 64
2, 62866, Note_off_c, 0, 67, 64
2, 62868, Note_on_c, 0, 62, 39
2, 62868, Note_on_c, 0, 59, 31
2, 62918, Note_off_c, 0, 59, 64
2, 62918, Note_off_c, 0, 62, 64
2, 62919, Note_on_c, 0, 55, 33
2, 62920, Note_on_c, 0, 55, 38
2, 62920, Note_on_c, 0, 55, 41
2, 62969, Note_off_c, 0, 55, 64
2, 62969, Note_off_c, 0, 55, 64
2, 62970, Note_off_c, 0, 55, 64
2, 63022, Note_on_c, 0, 55, 38
2, 63072, Note_off_c, 0, 55, 64
2, 63072, Note_on_c, 0, 62, 58
2, 63073, Note_on_c, 0, 59, 56
2, 63073, Note_on_c, 0, 31, 44
2, 63074, Note_on_c, 0, 43, 49
2, 63123, Note_off_c, 0, 59, 64
2, 63123, Note_off_c, 0, 62, 64
2, 63176, Note_off_c, 0, 43, 64
2, 63176, Note_off_c, 0, 31, 64
2, 63176, Note_on_c, 0, 62, 36
2, 63177, Note_on_c, 0, 59, 38
2, 63227, Note_off_c, 0, 59, 64
2, 63227, Note_off_c, 0, 62, 64
2, 63228, Note_on_c, 0, 55, 40
2, 63228, Note_on_c, 0, 67, 39
2, 63279, Note_off_c, 0, 55, 64
2, 63329, Note_off_c, 0, 67, 64
2, 63330, Note_on_c, 0, 55, 43
2, 63382, Note_off_c, 0, 55, 64
2, 63383, Note_on_c, 0, 62, 46
2, 63383, Note_on_c, 0, 59, 41
2, 63432, Note_off_c, 0, 59, 64
2, 63433, Note_off_c, 0, 62, 64
2, 63485, Note_on_c, 0, 59, 36
2, 63486, Note_on_c, 0, 62, 38
2, 63536, Note_off_c, 0, 62, 64
2, 63536, Note_off_c, 0, 59, 64
2, 63537, Note_on_c, 0, 55, 44
2, 63537, Note_on_c, 0, 67, 39
2, 63587, Note_off_c, 0, 55, 64
2, 63639, Note_off_c, 0, 67, 64
2, 63639, Note_on_c, 0, 55, 37
2, 63690, Note_off_c, 0, 55, 64
2, 63690, Note_on_c, 0, 62, 49
2, 63691, Note_on_c, 0, 59, 50
2, 63743, Note_off_c, 0, 59, 64
2, 63743, Note_off_c, 0, 62, 64
2, 63793, Note_on_c, 0, 62, 37
2, 63793, Note_on_c, 0, 59, 35
2, 63846, Note_off_c, 0, 59, 64
2, 63846, Note_off_c, 0, 62, 64
2, 63846, Note_on_c, 0, 55, 43
2, 63847, Note_on_c, 0, 67, 34
2, 63897, Note_off_c, 0, 55, 64
2, 63947, Note_off_c, 0, 67, 64
2, 63949, Note_on_c, 0, 55, 35
2, 64000, Note_off_c, 0, 55, 64
2, 64000, Note_on_c, 0, 64, 39
2, 64001, Note_on_c, 0, 60, 39
2, 64001, Note_on_c, 0, 67, 36
2, 64050, Note_off_c, 0, 60, 64
2, 64051, Note_off_c, 0, 64, 64
2, 64103, Note_off_c, 0, 67, 64
2, 64154, Note_on_c, 0, 58, 35
2, 64257, Note_off_c, 0, 58, 64
2, 64257, Note_on_c, 0, 58, 37
2, 64308, Note_off_c, 0, 58, 64
2, 64309, Note_on_c, 0, 61, 50
2, 64360, Note_on_c, 0, 64, 35
2, 64386, Note_off_c, 0, 64, 64
2, 64411, Note_off_c, 0, 61, 64
2, 64413, Note_on_c, 0, 67, 37
2, 64437, Note_off_c, 0, 67, 64
2, 64464, Note_on_c, 0, 70, 43
2, 64464, Note_on_c, 0, 58, 34
2, 64488, Note_off_c, 0, 70, 64
2, 64514, Note_on_c, 0, 73, 39
2, 64540, Note_off_c, 0, 73, 64
2, 64567, Note_off_c, 0, 58, 64
2, 64567, Note_on_c, 0, 76, 39
2, 64567, Note_on_c, 0, 58, 36
2, 64591, Note_off_c, 0, 76, 64
2, 64617, Note_off_c, 0, 58, 64
2, 64618, Note_on_c, 0, 61, 49
2, 64670, Note_on_c, 0, 67, 34
2, 64694, Note_off_c, 0, 67, 64
2, 64721, Note_off_c, 0, 61, 64
2, 64721, Note_on_c, 0, 70, 38
2, 64747, Note_off_c, 0, 70, 64
2, 64773, Note_on_c, 0, 73, 49
2, 64774, Note_on_c, 0, 58, 35
2, 64798, Note_off_c, 0, 73, 64
2, 64824, Note_on_c, 0, 76, 46
2, 64850, Note_off_c, 0, 76, 64
2, 64874, Note_off_c, 0, 58, 64
2, 64876, Note_on_c, 0, 79, 49
2, 64877, Note_on_c, 0, 58, 39
2, 64901, Note_off_c, 0, 79, 64
2, 64927, Note_off_c, 0, 58, 64
2, 64927, Note_on_c, 0, 61, 50
2, 64978, Note_on_c, 0, 76, 48
2, 65004, Note_off_c, 0, 76, 64
2, 65030, Note_off_c, 0, 61, 64
2, 65030, Note_on_c, 0, 79, 48
2, 65055, Note_off_c, 0, 79, 64
2, 65081, Note_on_c, 0, 82, 48
2, 65082, Note_on_c, 0, 58, 34
2, 65107, Note_off_c, 0, 82, 64
2, 65134, Note_on_c, 0, 85, 46
2, 65158, Note_off_c, 0, 85, 64
2, 65184, Note_off_c, 0, 58, 64
2, 65184, Note_on_c, 0, 88, 55
2, 65185, Note_on_c, 0, 58, 35
2, 65211, Note_off_c, 0, 58, 64
2, 65211, Note_off_c, 0, 88, 64
2, 65237, Note_on_c, 0, 61, 41
2, 65261, Note_off_c, 0, 61, 64
2, 65288, Note_on_c, 0, 58, 31
2, 65312, Note_off_c, 0, 58, 64
2, 65339, Note_on_c, 0, 60, 40
2, 65364, Note_off_c, 0, 60, 64
2, 65391, Note_on_c, 0, 75, 38
2, 65391, Note_on_c, 0, 61, 35
2, 65415, Note_off_c, 0, 61, 64
2, 65442, Note_on_c, 0, 60, 35
2, 65468, Note_off_c, 0, 60, 64
2, 65492, Note_off_c, 0, 75, 64
2, 65494, Note_on_c, 0, 75, 34
2, 65495, Note_on_c, 0, 58, 35
2, 65519, Note_off_c, 0, 58, 64
2, 65545, Note_off_c, 0, 75, 64
2, 65545, Note_on_c, 0, 78, 53
2, 65545, Note_on_c, 0, 57, 35
2, 65571, Note_off_c, 0, 57, 64
2, 65598, Note_on_c, 0, 45, 26
2, 65622, Note_off_c, 0, 45, 64
2, 65648, Note_off_c, 0, 78, 64
2, 65648, Note_on_c, 0, 48, 35
2, 65673, Note_off_c, 0, 48, 64
2, 65699, Note_on_c, 0, 75, 32
2, 65699, Note_on_c, 0, 53, 46
2, 65725, Note_off_c, 0, 53, 64
2, 65751, Note_on_c, 0, 57, 43
2, 65776, Note_off_c, 0, 57, 64
2, 65802, Note_off_c, 0, 75, 64
2, 65802, Note_on_c, 0, 75, 34
2, 65803, Note_on_c, 0, 60, 35
2, 65828, Note_off_c, 0, 60, 64
2, 65853, Note_off_c, 0, 75, 64
2, 65855, Note_on_c, 0, 78, 53
2, 65905, Note_on_c, 0, 48, 40
2, 65931, Note_off_c, 0, 48, 64
2, 65956, Note_off_c, 0, 78, 64
2, 65958, Note_on_c, 0, 53, 35
2, 65982, Note_off_c, 0, 53, 64
2, 66009, Note_on_c, 0, 75, 31
2, 66009, Note_on_c, 0, 57, 45
2, 66035, Note_off_c, 0, 57, 64
2, 66061, Note_on_c, 0, 60, 34
2, 66085, Note_off_c, 0, 60, 64
2, 66112, Note_off_c, 0, 75, 64
2, 66112, Note_on_c, 0, 75, 36
2, 66112, Note_on_c, 0, 65, 26
2, 66136, Note_off_c, 0, 65, 64
2, 66162, Note_off_c, 0, 75, 64
2, 66163, Note_on_c, 0, 78, 54
2, 66215, Note_on_c, 0, 53, 38
2, 66240, Note_off_c, 0, 53, 64
2, 66266, Note_off_c, 0, 78, 64
2, 66266, Note_on_c, 0, 57, 40
2, 66292, Note_off_c, 0, 57, 64
2, 66318, Note_on_c, 0, 75, 35
2, 66319, Note_on_c, 0, 60, 40
2, 66343, Note_off_c, 0, 60, 64
2, 66369, Note_on_c, 0, 65, 40
2, 66395, Note_off_c, 0, 65, 64
2, 66420, Note_off_c, 0, 75, 64
2, 66421, Note_on_c, 0, 75, 34
2, 66422, Note_on_c, 0, 69, 35
2, 66446, Note_off_c, 0, 69, 64
2, 66472, Note_off_c, 0, 75, 64
2, 66472, Note_on_c, 0, 78, 49
2, 66497, Note_off_c, 0, 78, 64
2, 66523, Note_on_c, 0, 75, 31
2, 66549, Note_off_c, 0, 75, 64
2, 66576, Note_on_c, 0, 77, 38
2, 66600, Note_off_c, 0, 77, 64
2, 66626, Note_on_c, 0, 78, 44
2, 66626, Note_on_c, 0, 56, 40
2, 66652, Note_off_c, 0, 78, 64
2, 66679, Note_on_c, 0, 77, 32
2, 66703, Note_off_c, 0, 77, 64
2, 66730, Note_off_c, 0, 56, 64
2, 66730, Note_on_c, 0, 75, 24
2, 66730, Note_on_c, 0, 56, 39
2, 66756, Note_off_c, 0, 75, 64
2, 66780, Note_off_c, 0, 56, 64
2, 66782, Note_on_c, 0, 74, 46
2, 66782, Note_on_c, 0, 59, 49
2, 66806, Note_off_c, 0, 74, 64
2, 66833, Note_on_c, 0, 62, 29
2, 66857, Note_off_c, 0, 62, 64
2, 66883, Note_off_c, 0, 59, 64
2, 66884, Note_on_c, 0, 65, 31
2, 66910, Note_off_c, 0, 65, 64
2, 66936, Note_on_c, 0, 68, 34
2, 66936, Note_on_c, 0, 56, 35
2, 66960, Note_off_c, 0, 68, 64
2, 66987, Note_on_c, 0, 71, 40
2, 67013, Note_off_c, 0, 71, 64
2, 67037, Note_off_c, 0, 56, 64
2, 67039, Note_on_c, 0, 74, 39
2, 67040, Note_on_c, 0, 56, 37
2, 67064, Note_off_c, 0, 74, 64
2, 67090, Note_off_c, 0, 56, 64
2, 67090, Note_on_c, 0, 59, 49
2, 67142, Note_on_c, 0, 65, 35
2, 67167, Note_off_c, 0, 65, 64
2, 67193, Note_off_c, 0, 59, 64
2, 67193, Note_on_c, 0, 68, 34
2, 67219, Note_off_c, 0, 68, 64
2, 67246, Note_on_c, 0, 71, 43
2, 67246, Note_on_c, 0, 56, 33
2, 67270, Note_off_c, 0, 71, 64
2, 67296, Note_on_c, 0, 74, 49
2, 67321, Note_off_c, 0, 74, 64
2, 67347, Note_off_c, 0, 56, 64
2, 67347, Note_on_c, 0, 77, 49
2, 67348, Note_on_c, 0, 56, 35
2, 67373, Note_off_c, 0, 77, 64
2, 67400, Note_off_c, 0, 56, 64
2, 67400, Note_on_c, 0, 59, 49
2, 67451, Note_on_c, 0, 74, 45
2, 67476, Note_off_c, 0, 74, 64
2, 67501, Note_off_c, 0, 59, 64
2, 67503, Note_on_c, 0, 77, 45
2, 67527, Note_off_c, 0, 77, 64
2, 67554, Note_on_c, 0, 80, 52
2, 67554, Note_on_c, 0, 56, 34
2, 67580, Note_off_c, 0, 80, 64
2, 67606, Note_on_c, 0, 83, 55
2, 67631, Note_off_c, 0, 83, 64
2, 67657, Note_off_c, 0, 56, 64
2, 67657, Note_on_c, 0, 86, 50
2, 67657, Note_on_c, 0, 56, 37
2, 67681, Note_off_c, 0, 56, 64
2, 67681, Note_off_c, 0, 86, 64
2, 67708, Note_on_c, 0, 59, 40
2, 67734, Note_off_c, 0, 59, 64
2, 67760, Note_on_c, 0, 56, 35
2, 67785, Note_off_c, 0, 56, 64
2, 67811, Note_on_c, 0, 58, 35
2, 67837, Note_off_c, 0, 58, 64
2, 67863, Note_on_c, 0, 85, 37
2, 67864, Note_on_c, 0, 59, 40
2, 67888, Note_off_c, 0, 59, 64
2, 67914, Note_on_c, 0, 58, 36
2, 67940, Note_off_c, 0, 58, 64
2, 67965, Note_off_c, 0, 85, 64
2, 67967, Note_on_c, 0, 85, 40
2, 67967, Note_on_c, 0, 56, 38
2, 67991, Note_off_c, 0, 56, 64
2, 68017, Note_off_c, 0, 85, 64
2, 68017, Note_on_c, 0, 88, 55
2, 68018, Note_on_c, 0, 55, 35
2, 68041, Note_off_c, 0, 55, 64
2, 68068, Note_on_c, 0, 43, 34
2, 68094, Note_off_c, 0, 43, 64
2, 68121, Note_off_c, 0, 88, 64
2, 68121, Note_on_c, 0, 46, 35
2, 68145, Note_off_c, 0, 46, 64
2, 68172, Note_on_c, 0, 85, 39
2, 68172, Note_on_c, 0, 51, 37
2, 68197, Note_off_c, 0, 51, 64
2, 68224, Note_on_c, 0, 55, 29
2, 68248, Note_off_c, 0, 55, 64
2, 68274, Note_off_c, 0, 85, 64
2, 68275, Note_on_c, 0, 85, 37
2, 68275, Note_on_c, 0, 58, 31
2, 68301, Note_off_c, 0, 58, 64
2, 68325, Note_off_c, 0, 85, 64
2, 68327, Note_on_c, 0, 88, 55
2, 68378, Note_on_c, 0, 46, 38
2, 68404, Note_off_c, 0, 46, 64
2, 68428, Note_off_c, 0, 88, 64
2, 68430, Note_on_c, 0, 51, 35
2, 68455, Note_off_c, 0, 51, 64
2, 68481, Note_on_c, 0, 85, 34
2, 68482, Note_on_c, 0, 55, 49
2, 68505, Note_off_c, 0, 55, 64
2, 68532, Note_on_c, 0, 58, 41
2, 68558, Note_off_c, 0, 58, 64
2, 68584, Note_off_c, 0, 85, 64
2, 68584, Note_on_c, 0, 85, 37
2, 68585, Note_on_c, 0, 63, 37
2, 68608, Note_off_c, 0, 63, 64
2, 68635, Note_off_c, 0, 85, 64
2, 68635, Note_on_c, 0, 88, 55
2, 68688, Note_on_c, 0, 51, 46
2, 68712, Note_off_c, 0, 51, 64
2, 68738, Note_off_c, 0, 88, 64
2, 68738, Note_on_c, 0, 55, 46
2, 68764, Note_off_c, 0, 55, 64
2, 68791, Note_on_c, 0, 85, 39
2, 68791, Note_on_c, 0, 58, 53
2, 68815, Note_off_c, 0, 58, 64
2, 68842, Note_on_c, 0, 63, 37
2, 68866, Note_off_c, 0, 63, 64
2, 68892, Note_off_c, 0, 85, 64
2, 68892, Note_on_c, 0, 85, 35
2, 68892, Note_on_c, 0, 67, 10
2, 68918, Note_off_c, 0, 67, 64
2, 68944, Note_off_c, 0, 85, 64
2, 68945, Note_on_c, 0, 88, 45
2, 68969, Note_off_c, 0, 88, 64
2, 68995, Note_on_c, 0, 85, 34
2, 69022, Note_off_c, 0, 85, 64
2, 69048, Note_on_c, 0, 87, 35
2, 69072, Note_off_c, 0, 87, 64
2, 69098, Note_on_c, 0, 88, 37
2, 69099, Note_on_c, 0, 43, 22
2, 69125, Note_off_c, 0, 88, 64
2, 69151, Note_on_c, 0, 87, 33
2, 69175, Note_off_c, 0, 87, 64
2, 69202, Note_off_c, 0, 43, 64
2, 69203, Note_on_c, 0, 85, 35
2, 69203, Note_on_c, 0, 43, 31
2, 69227, Note_off_c, 0, 43, 64
2, 69227, Note_off_c, 0, 85, 64
2, 69254, Note_on_c, 0, 84, 43
2, 69255, Note_on_c, 0, 44, 36
2, 69279, Note_off_c, 0, 44, 64
2, 69279, Note_off_c, 0, 84, 64
2, 69305, Note_on_c, 0, 80, 28
2, 69305, Note_on_c, 0, 48, 38
2, 69329, Note_off_c, 0, 48, 64
2, 69330, Note_off_c, 0, 80, 64
2, 69356, Note_on_c, 0, 75, 29
2, 69356, Note_on_c, 0, 51, 34
2, 69382, Note_off_c, 0, 51, 64
2, 69382, Note_off_c, 0, 75, 64
2, 69408, Note_on_c, 0, 72, 37
2, 69408, Note_on_c, 0, 56, 39
2, 69432, Note_off_c, 0, 56, 64
2, 69433, Note_off_c, 0, 72, 64
2, 69459, Note_on_c, 0, 80, 32
2, 69460, Note_on_c, 0, 60, 44
2, 69485, Note_off_c, 0, 60, 64
2, 69485, Note_off_c, 0, 80, 64
2, 69512, Note_on_c, 0, 75, 37
2, 69512, Note_on_c, 0, 63, 37
2, 69536, Note_off_c, 0, 63, 64
2, 69536, Note_off_c, 0, 75, 64
2, 69562, Note_on_c, 0, 84, 52
2, 69563, Note_on_c, 0, 56, 41
2, 69588, Note_off_c, 0, 56, 64
2, 69588, Note_off_c, 0, 84, 64
2, 69615, Note_on_c, 0, 80, 36
2, 69615, Note_on_c, 0, 60, 38
2, 69639, Note_off_c, 0, 60, 64
2, 69639, Note_off_c, 0, 80, 64
2, 69666, Note_on_c, 0, 75, 38
2, 69666, Note_on_c, 0, 63, 39
2, 69690, Note_off_c, 0, 63, 64
2, 69690, Note_off_c, 0, 75, 64
2, 69717, Note_on_c, 0, 72, 43
2, 69717, Note_on_c, 0, 68, 41
2, 69743, Note_off_c, 0, 68, 64
2, 69743, Note_off_c, 0, 72, 64
2, 69769, Note_on_c, 0, 80, 34
2, 69769, Note_on_c, 0, 60, 46
2, 69793, Note_off_c, 0, 60, 64
2, 69793, Note_off_c, 0, 80, 64
2, 69819, Note_on_c, 0, 75, 37
2, 69820, Note_on_c, 0, 63, 41
2, 69846, Note_off_c, 0, 63, 64
2, 69846, Note_off_c, 0, 75, 64
2, 69872, Note_on_c, 0, 84, 55
2, 69872, Note_on_c, 0, 51, 44
2, 69896, Note_off_c, 0, 51, 64
2, 69897, Note_off_c, 0, 84, 64
2, 69923, Note_on_c, 0, 80, 37
2, 69923, Note_on_c, 0, 56, 42
2, 69949, Note_off_c, 0, 56, 64
2, 69949, Note_off_c, 0, 80, 64
2, 69975, Note_on_c, 0, 75, 41
2, 69976, Note_on_c, 0, 60, 48
2, 69999, Note_off_c, 0, 60, 64
2, 70000, Note_off_c, 0, 75, 64
2, 70026, Note_on_c, 0, 72, 47
2, 70026, Note_on_c, 0, 63, 46
2, 70050, Note_off_c, 0, 63, 64
2, 70051, Note_off_c, 0, 72, 64
2, 70077, Note_on_c, 0, 56, 40
2, 70077, Note_on_c, 0, 80, 41
2, 70103, Note_off_c, 0, 80, 64
2, 70103, Note_off_c, 0, 56, 64
2, 70129, Note_on_c, 0, 75, 40
2, 70129, Note_on_c, 0, 60, 52
2, 70153, Note_off_c, 0, 60, 64
2, 70154, Note_off_c, 0, 75, 64
2, 70180, Note_on_c, 0, 84, 61
2, 70180, Note_on_c, 0, 48, 58
2, 70206, Note_off_c, 0, 48, 64
2, 70207, Note_off_c, 0, 84, 64
2, 70233, Note_on_c, 0, 80, 46
2, 70233, Note_on_c, 0, 51, 49
2, 70257, Note_off_c, 0, 51, 64
2, 70257, Note_off_c, 0, 80, 64
2, 70283, Note_on_c, 0, 75, 46
2, 70284, Note_on_c, 0, 56, 44
2, 70309, Note_off_c, 0, 56, 64
2, 70309, Note_off_c, 0, 75, 64
2, 70336, Note_on_c, 0, 72, 49
2, 70336, Note_on_c, 0, 60, 46
2, 70360, Note_off_c, 0, 60, 64
2, 70360, Note_off_c, 0, 72, 64
2, 70386, Note_on_c, 0, 80, 45
2, 70387, Note_on_c, 0, 51, 47
2, 70413, Note_off_c, 0, 51, 64
2, 70413, Note_off_c, 0, 80, 64
2, 70439, Note_on_c, 0, 75, 48
2, 70440, Note_on_c, 0, 56, 43
2, 70464, Note_off_c, 0, 56, 64
2, 70464, Note_off_c, 0, 75, 64
2, 70490, Note_on_c, 0, 84, 59
2, 70490, Note_on_c, 0, 75, 59
2, 70490, Note_on_c, 0, 72, 59
2, 70491, Note_on_c, 0, 80, 59
2, 70491, Note_on_c, 0, 44, 49
2, 70491, Note_on_c, 0, 56, 49
2, 70492, Note_on_c, 0, 51, 47
2, 70492, Note_on_c, 0, 48, 52
2, 70850, Note_off_c, 0, 48, 64
2, 70850, Note_off_c, 0, 51, 64
2, 70850, Note_off_c, 0, 56, 64
2, 70851, Note_off_c, 0, 44, 64
2, 70851, Note_off_c, 0, 80, 64
2, 70851, Note_off_c, 0, 72, 64
2, 70852, Note_off_c, 0, 75, 64
2, 70852, Note_off_c, 0, 84, 64
2, 70852, Note_on_c, 0, 80, 35
2, 70874, Note_off_c, 0, 80, 64
2, 70901, Note_on_c, 0, 75, 35
2, 70927, Note_off_c, 0, 75, 64
2, 70953, Note_on_c, 0, 72, 47
2, 70978, Note_off_c, 0, 72, 64
2, 71004, Note_on_c, 0, 68, 34
2, 71030, Note_off_c, 0, 68, 64
2, 71056, Note_on_c, 0, 63, 40
2, 71081, Note_off_c, 0, 63, 64
2, 71107, Note_on_c, 0, 72, 52
2, 71134, Note_off_c, 0, 72, 64
2, 71160, Note_on_c, 0, 68, 34
2, 71184, Note_off_c, 0, 68, 64
2, 71210, Note_on_c, 0, 63, 37
2, 71235, Note_off_c, 0, 63, 64
2, 71261, Note_on_c, 0, 60, 45
2, 71287, Note_off_c, 0, 60, 64
2, 71314, Note_on_c, 0, 56, 39
2, 71338, Note_off_c, 0, 56, 64
2, 71364, Note_on_c, 0, 51, 34
2, 71390, Note_off_c, 0, 51, 64
2, 71417, Note_on_c, 0, 60, 41
2, 71441, Note_off_c, 0, 60, 64
2, 71468, Note_on_c, 0, 56, 34
2, 71494, Note_off_c, 0, 56, 64
2, 71520, Note_on_c, 0, 51, 35
2, 71544, Note_off_c, 0, 51, 64
2, 71571, Note_on_c, 0, 48, 41
2, 71597, Note_off_c, 0, 48, 64
2, 71624, Note_on_c, 0, 44, 34
2, 71648, Note_off_c, 0, 44, 64
2, 71674, Note_on_c, 0, 43, 35
2, 71699, Note_off_c, 0, 43, 64
2, 71725, Note_on_c, 0, 80, 43
2, 71725, Note_on_c, 0, 41, 36
2, 71751, Note_off_c, 0, 41, 64
2, 71751, Note_off_c, 0, 80, 64
2, 71777, Note_on_c, 0, 77, 28
2, 71778, Note_on_c, 0, 44, 38
2, 71802, Note_off_c, 0, 44, 64
2, 71802, Note_off_c, 0, 77, 64
2, 71829, Note_on_c, 0, 72, 29
2, 71829, Note_on_c, 0, 48, 34
2, 71855, Note_off_c, 0, 48, 64
2, 71855, Note_off_c, 0, 72, 64
2, 71881, Note_on_c, 0, 68, 37
2, 71881, Note_on_c, 0, 53, 39
2, 71905, Note_off_c, 0, 53, 64
2, 71905, Note_off_c, 0, 68, 64
2, 71931, Note_on_c, 0, 77, 32
2, 71932, Note_on_c, 0, 56, 44
2, 71958, Note_off_c, 0, 56, 64
2, 71958, Note_off_c, 0, 77, 64
2, 71984, Note_on_c, 0, 60, 37
2, 71984, Note_on_c, 0, 72, 37
2, 72008, Note_off_c, 0, 60, 64
2, 72009, Note_off_c, 0, 72, 64
2, 72035, Note_on_c, 0, 80, 52
2, 72035, Note_on_c, 0, 53, 41
2, 72059, Note_off_c, 0, 53, 64
2, 72059, Note_off_c, 0, 80, 64
2, 72085, Note_on_c, 0, 77, 36
2, 72086, Note_on_c, 0, 56, 38
2, 72111, Note_off_c, 0, 56, 64
2, 72112, Note_off_c, 0, 77, 64
2, 72138, Note_on_c, 0, 72, 38
2, 72138, Note_on_c, 0, 60, 39
2, 72162, Note_off_c, 0, 60, 64
2, 72162, Note_off_c, 0, 72, 64
2, 72189, Note_on_c, 0, 68, 43
2, 72189, Note_on_c, 0, 65, 41
2, 72215, Note_off_c, 0, 65, 64
2, 72215, Note_off_c, 0, 68, 64
2, 72241, Note_on_c, 0, 77, 34
2, 72241, Note_on_c, 0, 56, 46
2, 72265, Note_off_c, 0, 56, 64
2, 72266, Note_off_c, 0, 77, 64
2, 72292, Note_on_c, 0, 72, 37
2, 72292, Note_on_c, 0, 60, 41
2, 72318, Note_off_c, 0, 60, 64
2, 72318, Note_off_c, 0, 72, 64
2, 72344, Note_on_c, 0, 80, 55
2, 72345, Note_on_c, 0, 48, 44
2, 72369, Note_off_c, 0, 48, 64
2, 72369, Note_off_c, 0, 80, 64
2, 72395, Note_on_c, 0, 77, 37
2, 72396, Note_on_c, 0, 53, 42
2, 72420, Note_off_c, 0, 53, 64
2, 72420, Note_off_c, 0, 77, 64
2, 72446, Note_on_c, 0, 72, 41
2, 72446, Note_on_c, 0, 56, 48
2, 72472, Note_off_c, 0, 56, 64
2, 72472, Note_off_c, 0, 72, 64
2, 72498, Note_on_c, 0, 68, 47
2, 72499, Note_on_c, 0, 60, 46
2, 72523, Note_off_c, 0, 60, 64
2, 72523, Note_off_c, 0, 68, 64
2, 72549, Note_on_c, 0, 77, 41
2, 72550, Note_on_c, 0, 53, 40
2, 72576, Note_off_c, 0, 53, 64
2, 72576, Note_off_c, 0, 77, 64
2, 72601, Note_on_c, 0, 72, 40
2, 72602, Note_on_c, 0, 56, 52
2, 72626, Note_off_c, 0, 56, 64
2, 72626, Note_off_c, 0, 72, 64
2, 72652, Note_on_c, 0, 80, 61
2, 72653, Note_on_c, 0, 44, 58
2, 72678, Note_off_c, 0, 44, 64
2, 72679, Note_off_c, 0, 80, 64
2, 72705, Note_on_c, 0, 77, 46
2, 72705, Note_on_c, 0, 48, 49
2, 72729, Note_off_c, 0, 48, 64
2, 72730, Note_off_c, 0, 77, 64
2, 72756, Note_on_c, 0, 72, 46
2, 72756, Note_on_c, 0, 53, 44
2, 72782, Note_off_c, 0, 53, 64
2, 72782, Note_off_c, 0, 72, 64
2, 72808, Note_on_c, 0, 68, 49
2, 72809, Note_on_c, 0, 56, 46
2, 72833, Note_off_c, 0, 56, 64
2, 72833, Note_off_c, 0, 68, 64
2, 72859, Note_on_c, 0, 77, 45
2, 72859, Note_on_c, 0, 48, 47
2, 72883, Note_off_c, 0, 48, 64
2, 72883, Note_off_c, 0, 77, 64
2, 72910, Note_on_c, 0, 72, 48
2, 72910, Note_on_c, 0, 53, 43
2, 72936, Note_off_c, 0, 53, 64
2, 72936, Note_off_c, 0, 72, 64
2, 72962, Note_on_c, 0, 80, 59
2, 72962, Note_on_c, 0, 72, 59
2, 72963, Note_on_c, 0, 68, 59
2, 72963, Note_on_c, 0, 77, 59
2, 72963, Note_on_c, 0, 41, 49
2, 72964, Note_on_c, 0, 53, 49
2, 72964, Note_on_c, 0, 48, 47
2, 72964, Note_on_c, 0, 44, 52
2, 73322, Note_off_c, 0, 44, 64
2, 73323, Note_off_c, 0, 48, 64
2, 73323, Note_off_c, 0, 53, 64
2, 73323, Note_off_c, 0, 41, 64
2, 73324, Note_off_c, 0, 77, 64
2, 73324, Note_off_c, 0, 68, 64
2, 73325, Note_off_c, 0, 72, 64
2, 73325, Note_off_c, 0, 80, 64
2, 73325, Note_on_c, 0, 77, 35
2, 73347, Note_off_c, 0, 77, 64
2, 73373, Note_on_c, 0, 72, 35
2, 73399, Note_off_c, 0, 72, 64
2, 73426, Note_on_c, 0, 68, 47
2, 73450, Note_off_c, 0, 68, 64
2, 73476, Note_on_c, 0, 65, 34
2, 73502, Note_off_c, 0, 65, 64
2, 73529, Note_on_c, 0, 60, 40
2, 73553, Note_off_c, 0, 60, 64
2, 73580, Note_on_c, 0, 68, 52
2, 73604, Note_off_c, 0, 68, 64
2, 73632, Note_on_c, 0, 65, 34
2, 73656, Note_off_c, 0, 65, 64
2, 73683, Note_on_c, 0, 60, 37
2, 73707, Note_off_c, 0, 60, 64
2, 73734, Note_on_c, 0, 56, 45
2, 73760, Note_off_c, 0, 56, 64
2, 73786, Note_on_c, 0, 53, 39
2, 73811, Note_off_c, 0, 53, 64
2, 73837, Note_on_c, 0, 48, 34
2, 73863, Note_off_c, 0, 48, 64
2, 73889, Note_on_c, 0, 56, 41
2, 73914, Note_off_c, 0, 56, 64
2, 73940, Note_on_c, 0, 53, 34
2, 73966, Note_off_c, 0, 53, 64
2, 73992, Note_on_c, 0, 48, 35
2, 74017, Note_off_c, 0, 48, 64
2, 74043, Note_on_c, 0, 44, 41
2, 74068, Note_off_c, 0, 44, 64
2, 74094, Note_on_c, 0, 41, 34
2, 74120, Note_off_c, 0, 41, 64
2, 74147, Note_on_c, 0, 39, 35
2, 74171, Note_off_c, 0, 39, 64
2, 74197, Note_on_c, 0, 80, 43
2, 74198, Note_on_c, 0, 38, 36
2, 74223, Note_off_c, 0, 38, 64
2, 74224, Note_off_c, 0, 80, 64
2, 74250, Note_on_c, 0, 77, 28
2, 74250, Note_on_c, 0, 41, 38
2, 74274, Note_off_c, 0, 41, 64
2, 74274, Note_off_c, 0, 77, 64
2, 74301, Note_on_c, 0, 70, 29
2, 74301, Note_on_c, 0, 46, 34
2, 74327, Note_off_c, 0, 46, 64
2, 74327, Note_off_c, 0, 70, 64
2, 74353, Note_on_c, 0, 68, 37
2, 74353, Note_on_c, 0, 50, 39
2, 74377, Note_off_c, 0, 50, 64
2, 74378, Note_off_c, 0, 68, 64
2, 74404, Note_on_c, 0, 77, 32
2, 74404, Note_on_c, 0, 53, 44
2, 74428, Note_off_c, 0, 53, 64
2, 74428, Note_off_c, 0, 77, 64
2, 74455, Note_on_c, 0, 70, 37
2, 74455, Note_on_c, 0, 58, 37
2, 74481, Note_off_c, 0, 58, 64
2, 74481, Note_off_c, 0, 70, 64
2, 74507, Note_on_c, 0, 80, 52
2, 74508, Note_on_c, 0, 50, 41
2, 74532, Note_off_c, 0, 50, 64
2, 74532, Note_off_c, 0, 80, 64
2, 74558, Note_on_c, 0, 77, 36
2, 74558, Note_on_c, 0, 53, 38
2, 74584, Note_off_c, 0, 53, 64
2, 74584, Note_off_c, 0, 77, 64
2, 74610, Note_on_c, 0, 70, 38
2, 74611, Note_on_c, 0, 58, 39
2, 74635, Note_off_c, 0, 58, 64
2, 74635, Note_off_c, 0, 70, 64
2, 74661, Note_on_c, 0, 68, 43
2, 74661, Note_on_c, 0, 62, 41
2, 74687, Note_off_c, 0, 62, 64
2, 74688, Note_off_c, 0, 68, 64
2, 74713, Note_on_c, 0, 77, 34
2, 74714, Note_on_c, 0, 53, 46
2, 74738, Note_off_c, 0, 53, 64
2, 74738, Note_off_c, 0, 77, 64
2, 74764, Note_on_c, 0, 70, 37
2, 74765, Note_on_c, 0, 58, 41
2, 74790, Note_off_c, 0, 58, 64
2, 74791, Note_off_c, 0, 70, 64
2, 74817, Note_on_c, 0, 80, 55
2, 74817, Note_on_c, 0, 46, 44
2, 74841, Note_off_c, 0, 46, 64
2, 74841, Note_off_c, 0, 80, 64
2, 74868, Note_on_c, 0, 50, 42
2, 74868, Note_on_c, 0, 77, 37
2, 74892, Note_off_c, 0, 77, 64
2, 74892, Note_off_c, 0, 50, 64
2, 74918, Note_on_c, 0, 70, 41
2, 74918, Note_on_c, 0, 53, 48
2, 74944, Note_off_c, 0, 53, 64
2, 74945, Note_off_c, 0, 70, 64
2, 74971, Note_on_c, 0, 68, 47
2, 74971, Note_on_c, 0, 58, 46
2, 74995, Note_off_c, 0, 58, 64
2, 74995, Note_off_c, 0, 68, 64
2, 75022, Note_on_c, 0, 77, 41
2, 75022, Note_on_c, 0, 50, 40
2, 75048, Note_off_c, 0, 50, 64
2, 75048, Note_off_c, 0, 77, 64
2, 75074, Note_on_c, 0, 70, 40
2, 75074, Note_on_c, 0, 53, 52
2, 75098, Note_off_c, 0, 53, 64
2, 75098, Note_off_c, 0, 70, 64
2, 75125, Note_on_c, 0, 80, 61
2, 75125, Note_on_c, 0, 41, 58
2, 75151, Note_off_c, 0, 41, 64
2, 75151, Note_off_c, 0, 80, 64
2, 75177, Note_on_c, 0, 77, 46
2, 75178, Note_on_c, 0, 46, 49
2, 75202, Note_off_c, 0, 46, 64
2, 75202, Note_off_c, 0, 77, 64
2, 75228, Note_on_c, 0, 70, 46
2, 75228, Note_on_c, 0, 53, 44
2, 75252, Note_off_c, 0, 53, 64
2, 75252, Note_off_c, 0, 70, 64
2, 75279, Note_on_c, 0, 68, 49
2, 75279, Note_on_c, 0, 38, 46
2, 75305, Note_off_c, 0, 38, 64
2, 75305, Note_off_c, 0, 68, 64
2, 75331, Note_on_c, 0, 77, 45
2, 75332, Note_on_c, 0, 46, 47
2, 75356, Note_off_c, 0, 46, 64
2, 75356, Note_off_c, 0, 77, 64
2, 75382, Note_on_c, 0, 70, 48
2, 75382, Note_on_c, 0, 50, 43
2, 75408, Note_off_c, 0, 50, 64
2, 75408, Note_off_c, 0, 70, 64
2, 75435, Note_on_c, 0, 80, 59
2, 75435, Note_on_c, 0, 74, 59
2, 75435, Note_on_c, 0, 68, 59
2, 75436, Note_on_c, 0, 77, 59
2, 75436, Note_on_c, 0, 34, 49
2, 75436, Note_on_c, 0, 46, 49
2, 75485, Note_off_c, 0, 46, 64
2, 75485, Note_off_c, 0, 34, 64
2, 75486, Note_off_c, 0, 77, 64
2, 75486, Note_off_c, 0, 68, 64
2, 75486, Note_off_c, 0, 74, 64
2, 75487, Note_off_c, 0, 80, 64
2, 75487, Note_on_c, 0, 50, 29
2, 75511, Note_off_c, 0, 50, 64
2, 75538, Note_on_c, 0, 53, 31
2, 75562, Note_off_c, 0, 53, 64
2, 75590, Note_on_c, 0, 56, 34
2, 75614, Note_off_c, 0, 56, 64
2, 75643, Note_on_c, 0, 53, 25
2, 75667, Note_off_c, 0, 53, 64
2, 75696, Note_on_c, 0, 50, 28
2, 75722, Note_off_c, 0, 50, 64
2, 75748, Note_on_c, 0, 56, 34
2, 75774, Note_off_c, 0, 56, 64
2, 75803, Note_on_c, 0, 53, 32
2, 75828, Note_off_c, 0, 53, 64
2, 75857, Note_on_c, 0, 50, 28
2, 75883, Note_off_c, 0, 50, 64
2, 75912, Note_on_c, 0, 56, 33
2, 75939, Note_off_c, 0, 56, 64
2, 75968, Note_on_c, 0, 53, 31
2, 75994, Note_off_c, 0, 53, 64
2, 76024, Note_on_c, 0, 50, 28
2, 76050, Note_off_c, 0, 50, 64
2, 76079, Note_on_c, 0, 56, 34
2, 76106, Note_off_c, 0, 56, 64
2, 76137, Note_on_c, 0, 53, 31
2, 76164, Note_off_c, 0, 53, 64
2, 76193, Note_on_c, 0, 50, 26
2, 76221, Note_off_c, 0, 50, 64
2, 76251, Note_on_c, 0, 56, 36
2, 76279, Note_off_c, 0, 56, 64
2, 76309, Note_on_c, 0, 53, 30
2, 76337, Note_off_c, 0, 53, 64
2, 76368, Note_on_c, 0, 50, 25
2, 76397, Note_off_c, 0, 50, 64
2, 76428, Note_on_c, 0, 56, 32
2, 76457, Note_off_c, 0, 56, 64
2, 76488, Note_on_c, 0, 53, 27
2, 76516, Note_off_c, 0, 53, 64
2, 76546, Note_on_c, 0, 50, 25
2, 76574, Note_off_c, 0, 50, 64
2, 76602, Note_on_c, 0, 56, 34
2, 76630, Note_off_c, 0, 56, 64
2, 76660, Note_on_c, 0, 53, 32
2, 76687, Note_off_c, 0, 53, 64
2, 76716, Note_on_c, 0, 50, 31
2, 76743, Note_off_c, 0, 50, 64
2, 76771, Note_on_c, 0, 56, 33
2, 76797, Note_off_c, 0, 56, 64
2, 76825, Note_on_c, 0, 53, 32
2, 76852, Note_off_c, 0, 53, 64
2, 76880, Note_on_c, 0, 50, 28
2, 76906, Note_off_c, 0, 50, 64
2, 76934, Note_on_c, 0, 56, 31
2, 76961, Note_off_c, 0, 56, 64
2, 76987, Note_on_c, 0, 53, 28
2, 77013, Note_off_c, 0, 53, 64
2, 77040, Note_on_c, 0, 50, 22
2, 77064, Note_off_c, 0, 50, 64
2, 77090, Note_on_c, 0, 56, 31
2, 77116, Note_off_c, 0, 56, 64
2, 77143, Note_on_c, 0, 53, 27
2, 77167, Note_off_c, 0, 53, 64
2, 77194, Note_on_c, 0, 50, 28
2, 77220, Note_off_c, 0, 50, 64
2, 77246, Note_on_c, 0, 56, 36
2, 77270, Note_off_c, 0, 56, 64
2, 77297, Note_on_c, 0, 53, 31
2, 77321, Note_off_c, 0, 53, 64
2, 77347, Note_on_c, 0, 50, 29
2, 77374, Note_off_c, 0, 50, 64
2, 77400, Note_on_c, 0, 56, 32
2, 77424, Note_off_c, 0, 56, 64
2, 77451, Note_on_c, 0, 53, 28
2, 77477, Note_off_c, 0, 53, 64
2, 77503, Note_on_c, 0, 50, 24
2, 77528, Note_off_c, 0, 50, 64
2, 77554, Note_on_c, 0, 56, 28
2, 77580, Note_off_c, 0, 56, 64
2, 77606, Note_on_c, 0, 53, 22
2, 77631, Note_off_c, 0, 53, 64
2, 77657, Note_on_c, 0, 50, 22
2, 77681, Note_off_c, 0, 50, 64
2, 77708, Note_on_c, 0, 56, 25
2, 77734, Note_off_c, 0, 56, 64
2, 77760, Note_on_c, 0, 53, 22
2, 77785, Note_off_c, 0, 53, 64
2, 77811, Note_on_c, 0, 50, 19
2, 77837, Note_off_c, 0, 50, 64
2, 77864, Note_on_c, 0, 50, 36
2, 77888, Note_off_c, 0, 50, 64
2, 77915, Note_on_c, 0, 51, 29
2, 77941, Note_off_c, 0, 51, 64
2, 77967, Note_on_c, 0, 55, 28
2, 77991, Note_off_c, 0, 55, 64
2, 78018, Note_on_c, 0, 46, 36
2, 78068, Note_off_c, 0, 46, 64
2, 78070, Note_on_c, 0, 51, 29
2, 78121, Note_off_c, 0, 51, 64
2, 78121, Note_on_c, 0, 55, 28
2, 78171, Note_off_c, 0, 55, 64
2, 78172, Note_on_c, 0, 50, 43
2, 78224, Note_off_c, 0, 50, 64
2, 78224, Note_on_c, 0, 51, 31
2, 78275, Note_off_c, 0, 51, 64
2, 78275, Note_on_c, 0, 55, 31
2, 78325, Note_off_c, 0, 55, 64
2, 78327, Note_on_c, 0, 46, 32
2, 78378, Note_off_c, 0, 46, 64
2, 78378, Note_on_c, 0, 51, 32
2, 78429, Note_off_c, 0, 51, 64
2, 78431, Note_on_c, 0, 55, 26
2, 78481, Note_off_c, 0, 55, 64
2, 78481, Note_on_c, 0, 50, 37
2, 78532, Note_off_c, 0, 50, 64
2, 78532, Note_on_c, 0, 51, 35
2, 78585, Note_off_c, 0, 51, 64
2, 78585, Note_on_c, 0, 82, 39
2, 78585, Note_on_c, 0, 55, 31
2, 78635, Note_off_c, 0, 55, 64
2, 78636, Note_off_c, 0, 82, 64
2, 78636, Note_on_c, 0, 82, 59
2, 78636, Note_on_c, 0, 46, 28
2, 78686, Note_off_c, 0, 46, 64
2, 78688, Note_on_c, 0, 53, 35
2, 78738, Note_off_c, 0, 53, 64
2, 78739, Note_off_c, 0, 82, 64
2, 78739, Note_on_c, 0, 80, 45
2, 78740, Note_on_c, 0, 56, 28
2, 78789, Note_off_c, 0, 56, 64
2, 78791, Note_off_c, 0, 80, 64
2, 78791, Note_on_c, 0, 77, 43
2, 78792, Note_on_c, 0, 52, 37
2, 78841, Note_off_c, 0, 52, 64
2, 78842, Note_on_c, 0, 53, 36
2, 78892, Note_off_c, 0, 53, 64
2, 78894, Note_off_c, 0, 77, 64
2, 78895, Note_on_c, 0, 74, 41
2, 78895, Note_on_c, 0, 56, 29
2, 78945, Note_off_c, 0, 56, 64
2, 78945, Note_off_c, 0, 74, 64
2, 78946, Note_on_c, 0, 75, 43
2, 78946, Note_on_c, 0, 46, 34
2, 78996, Note_off_c, 0, 46, 64
2, 78996, Note_on_c, 0, 51, 31
2, 79048, Note_off_c, 0, 51, 64
2, 79048, Note_off_c, 0, 75, 64
2, 79049, Note_on_c, 0, 55, 27
2, 79099, Note_off_c, 0, 55, 64
2, 79099, Note_on_c, 0, 50, 41
2, 79150, Note_off_c, 0, 50, 64
2, 79152, Note_on_c, 0, 51, 32
2, 79202, Note_off_c, 0, 51, 64
2, 79202, Note_on_c, 0, 70, 39
2, 79203, Note_on_c, 0, 55, 31
2, 79253, Note_off_c, 0, 55, 64
2, 79255, Note_off_c, 0, 70, 64
2, 79255, Note_on_c, 0, 70, 53
2, 79255, Note_on_c, 0, 46, 26
2, 79305, Note_off_c, 0, 46, 64
2, 79306, Note_on_c, 0, 53, 30
2, 79356, Note_off_c, 0, 53, 64
2, 79356, Note_off_c, 0, 70, 64
2, 79356, Note_on_c, 0, 68, 37
2, 79357, Note_on_c, 0, 56, 27
2, 79409, Note_off_c, 0, 56, 64
2, 79409, Note_off_c, 0, 68, 64
2, 79409, Note_on_c, 0, 65, 40
2, 79410, Note_on_c, 0, 52, 31
2, 79459, Note_off_c, 0, 52, 64
2, 79460, Note_on_c, 0, 53, 36
2, 79510, Note_off_c, 0, 53, 64
2, 79512, Note_off_c, 0, 65, 64
2, 79512, Note_on_c, 0, 62, 43
2, 79512, Note_on_c, 0, 56, 30
2, 79562, Note_off_c, 0, 56, 64
2, 79563, Note_off_c, 0, 62, 64
2, 79563, Note_on_c, 0, 55, 35
2, 79564, Note_on_c, 0, 63, 46
2, 79564, Note_on_c, 0, 51, 32
2, 79564, Note_on_c, 0, 39, 25
2, 79613, Note_off_c, 0, 39, 64
2, 79614, Note_off_c, 0, 51, 64
2, 79615, Note_off_c, 0, 63, 64
2, 79615, Note_off_c, 0, 55, 64
2, 79769, Note_on_c, 0, 51, 35
2, 79820, Note_off_c, 0, 51, 64
2, 79820, Note_on_c, 0, 55, 28
2, 79871, Note_off_c, 0, 55, 64
2, 79872, Note_on_c, 0, 46, 30
2, 79923, Note_off_c, 0, 46, 64
2, 79923, Note_on_c, 0, 51, 31
2, 79974, Note_off_c, 0, 51, 64
2, 79976, Note_on_c, 0, 55, 32
2, 80026, Note_off_c, 0, 55, 64
2, 80027, Note_on_c, 0, 50, 44
2, 80077, Note_off_c, 0, 50, 64
2, 80079, Note_on_c, 0, 51, 32
2, 80129, Note_off_c, 0, 51, 64
2, 80130, Note_on_c, 0, 55, 31
2, 80180, Note_off_c, 0, 55, 64
2, 80181, Note_on_c, 0, 46, 36
2, 80233, Note_off_c, 0, 46, 64
2, 80233, Note_on_c, 0, 51, 31
2, 80283, Note_off_c, 0, 51, 64
2, 80284, Note_on_c, 0, 55, 20
2, 80334, Note_off_c, 0, 55, 64
2, 80336, Note_on_c, 0, 50, 43
2, 80387, Note_off_c, 0, 50, 64
2, 80387, Note_on_c, 0, 51, 29
2, 80437, Note_off_c, 0, 51, 64
2, 80439, Note_on_c, 0, 82, 39
2, 80440, Note_on_c, 0, 55, 29
2, 80490, Note_off_c, 0, 55, 64
2, 80490, Note_off_c, 0, 82, 64
2, 80491, Note_on_c, 0, 82, 59
2, 80491, Note_on_c, 0, 46, 31
2, 80541, Note_off_c, 0, 46, 64
2, 80541, Note_off_c, 0, 82, 64
2, 80542, Note_on_c, 0, 80, 55
2, 80542, Note_on_c, 0, 53, 37
2, 80593, Note_off_c, 0, 53, 64
2, 80593, Note_off_c, 0, 80, 64
2, 80594, Note_on_c, 0, 56, 29
2, 80594, Note_on_c, 0, 79, 45
2, 80644, Note_off_c, 0, 79, 64
2, 80644, Note_off_c, 0, 56, 64
2, 80644, Note_on_c, 0, 80, 47
2, 80645, Note_on_c, 0, 52, 32
2, 80695, Note_off_c, 0, 52, 64
2, 80696, Note_off_c, 0, 80, 64
2, 80697, Note_on_c, 0, 77, 43
2, 80697, Note_on_c, 0, 53, 38
2, 80747, Note_off_c, 0, 53, 64
2, 80748, Note_off_c, 0, 77, 64
2, 80748, Note_on_c, 0, 74, 41
2, 80748, Note_on_c, 0, 56, 29
2, 80798, Note_off_c, 0, 56, 64
2, 80800, Note_off_c, 0, 74, 64
2, 80800, Note_on_c, 0, 75, 43
2, 80801, Note_on_c, 0, 46, 40
2, 80850, Note_off_c, 0, 46, 64
2, 80851, Note_on_c, 0, 51, 40
2, 80901, Note_off_c, 0, 51, 64
2, 80902, Note_off_c, 0, 75, 64
2, 80902, Note_on_c, 0, 55, 31
2, 80953, Note_off_c, 0, 55, 64
2, 80954, Note_on_c, 0, 50, 36
2, 81004, Note_off_c, 0, 50, 64
2, 81005, Note_on_c, 0, 51, 29
2, 81057, Note_off_c, 0, 51, 64
2, 81058, Note_on_c, 0, 70, 39
2, 81058, Note_on_c, 0, 55, 29
2, 81108, Note_off_c, 0, 55, 64
2, 81108, Note_off_c, 0, 70, 64
2, 81108, Note_on_c, 0, 70, 54
2, 81109, Note_on_c, 0, 46, 38
2, 81158, Note_off_c, 0, 46, 64
2, 81160, Note_off_c, 0, 70, 64
2, 81160, Note_on_c, 0, 68, 40
2, 81161, Note_on_c, 0, 53, 36
2, 81211, Note_off_c, 0, 53, 64
2, 81211, Note_off_c, 0, 68, 64
2, 81212, Note_on_c, 0, 67, 37
2, 81212, Note_on_c, 0, 56, 27
2, 81262, Note_off_c, 0, 56, 64
2, 81264, Note_off_c, 0, 67, 64
2, 81264, Note_on_c, 0, 68, 44
2, 81264, Note_on_c, 0, 52, 37
2, 81314, Note_off_c, 0, 52, 64
2, 81314, Note_off_c, 0, 68, 64
2, 81315, Note_on_c, 0, 65, 40
2, 81315, Note_on_c, 0, 53, 41
2, 81365, Note_off_c, 0, 53, 64
2, 81365, Note_off_c, 0, 65, 64
2, 81366, Note_on_c, 0, 62, 43
2, 81366, Note_on_c, 0, 56, 30
2, 81417, Note_off_c, 0, 56, 64
2, 81418, Note_off_c, 0, 62, 64
2, 81419, Note_on_c, 0, 55, 35
2, 81419, Note_on_c, 0, 63, 46
2, 81419, Note_on_c, 0, 39, 37
2, 81420, Note_on_c, 0, 51, 31
2, 81468, Note_off_c, 0, 51, 64
2, 81468, Note_off_c, 0, 39, 64
2, 81469, Note_off_c, 0, 63, 64
2, 81469, Note_off_c, 0, 55, 64
2, 81572, Note_on_c, 0, 58, 39
2, 81622, Note_off_c, 0, 58, 64
2, 81674, Note_on_c, 0, 58, 35
2, 81725, Note_off_c, 0, 58, 64
2, 81726, Control_c, 0, 64, 127
2, 81726, Note_on_c, 0, 63, 52
2, 81726, Note_on_c, 0, 55, 50
2, 81727, Note_on_c, 0, 39, 47
2, 81727, Note_on_c, 0, 51, 38
2, 81778, Note_off_c, 0, 55, 64
2, 81778, Note_off_c, 0, 63, 64
2, 81828, Note_off_c, 0, 51, 64
2, 81828, Note_off_c, 0, 39, 64
2, 81829, Note_on_c, 0, 63, 35
2, 81879, Note_off_c, 0, 63, 64
2, 81881, Note_on_c, 0, 58, 35
2, 81881, Note_on_c, 0, 58, 37
2, 81932, Note_off_c, 0, 58, 64
2, 81983, Note_off_c, 0, 58, 64
2, 81984, Control_c, 0, 64, 0
2, 81984, Note_on_c, 0, 58, 35
2, 82035, Note_off_c, 0, 58, 64
2, 82035, Note_on_c, 0, 63, 40
2, 82036, Note_on_c, 0, 55, 39
2, 82086, Note_off_c, 0, 55, 64
2, 82086, Note_off_c, 0, 63, 64
2, 82138, Note_on_c, 0, 63, 31
2, 82189, Note_off_c, 0, 63, 64
2, 82189, Note_on_c, 0, 58, 34
2, 82190, Note_on_c, 0, 58, 40
2, 82241, Note_off_c, 0, 58, 64
2, 82292, Note_off_c, 0, 58, 64
2, 82292, Note_on_c, 0, 58, 33
2, 82343, Note_off_c, 0, 58, 64
2, 82345, Note_on_c, 0, 63, 39
2, 82345, Note_on_c, 0, 55, 40
2, 82395, Note_off_c, 0, 55, 64
2, 82396, Note_off_c, 0, 63, 64
2, 82448, Note_on_c, 0, 63, 35
2, 82499, Note_off_c, 0, 63, 64
2, 82499, Note_on_c, 0, 58, 33
2, 82500, Note_on_c, 0, 58, 39
2, 82549, Note_off_c, 0, 58, 64
2, 82602, Note_off_c, 0, 58, 64
2, 82602, Note_on_c, 0, 58, 32
2, 82653, Note_off_c, 0, 58, 64
2, 82653, Note_on_c, 0, 62, 37
2, 82654, Note_on_c, 0, 65, 38
2, 82654, Note_on_c, 0, 58, 34
2, 82704, Note_off_c, 0, 65, 64
2, 82704, Note_off_c, 0, 62, 64
2, 82756, Note_off_c, 0, 58, 64
2, 82756, Note_on_c, 0, 62, 43
2, 82756, Note_on_c, 0, 65, 31
2, 82806, Note_off_c, 0, 65, 64
2, 82807, Note_off_c, 0, 62, 64
2, 82808, Note_on_c, 0, 58, 34
2, 82859, Note_off_c, 0, 58, 64
2, 82910, Note_on_c, 0, 58, 35
2, 82962, Note_off_c, 0, 58, 64
2, 82963, Control_c, 0, 64, 127
2, 82963, Note_on_c, 0, 65, 51
2, 82964, Note_on_c, 0, 62, 52
2, 82964, Note_on_c, 0, 34, 47
2, 82964, Note_on_c, 0, 46, 38
2, 83013, Note_off_c, 0, 62, 64
2, 83013, Note_off_c, 0, 65, 64
2, 83064, Note_off_c, 0, 46, 64
2, 83064, Note_off_c, 0, 34, 64
2, 83065, Note_on_c, 0, 62, 49
2, 83066, Note_on_c, 0, 65, 34
2, 83116, Note_off_c, 0, 65, 64
2, 83117, Note_off_c, 0, 62, 64
2, 83117, Note_on_c, 0, 58, 34
2, 83117, Note_on_c, 0, 58, 37
2, 83167, Note_off_c, 0, 58, 64
2, 83220, Note_off_c, 0, 58, 64
2, 83220, Control_c, 0, 64, 0
2, 83220, Note_on_c, 0, 58, 34
2, 83270, Note_off_c, 0, 58, 64
2, 83272, Note_on_c, 0, 65, 38
2, 83272, Note_on_c, 0, 62, 40
2, 83323, Note_off_c, 0, 62, 64
2, 83323, Note_off_c, 0, 65, 64
2, 83374, Note_on_c, 0, 65, 35
2, 83374, Note_on_c, 0, 62, 39
2, 83426, Note_off_c, 0, 62, 64
2, 83427, Note_off_c, 0, 65, 64
2, 83427, Note_on_c, 0, 58, 40
2, 83427, Note_on_c, 0, 58, 35
2, 83477, Note_off_c, 0, 58, 64
2, 83527, Note_off_c, 0, 58, 64
2, 83530, Note_on_c, 0, 58, 34
2, 83580, Note_off_c, 0, 58, 64
2, 83580, Note_on_c, 0, 65, 31
2, 83581, Note_on_c, 0, 62, 34
2, 83631, Note_off_c, 0, 62, 64
2, 83631, Note_off_c, 0, 65, 64
2, 83684, Note_on_c, 0, 65, 31
2, 83684, Note_on_c, 0, 62, 38
2, 83734, Note_off_c, 0, 62, 64
2, 83734, Note_off_c, 0, 65, 64
2, 83735, Note_on_c, 0, 58, 32
2, 83735, Note_on_c, 0, 58, 39
2, 83786, Note_off_c, 0, 58, 64
2, 83837, Note_off_c, 0, 58, 64
2, 83837, Note_on_c, 0, 58, 34
2, 83888, Note_off_c, 0, 58, 64
2, 83890, Note_on_c, 0, 63, 36
2, 83890, Note_on_c, 0, 67, 37
2, 83891, Note_on_c, 0, 58, 34
2, 83940, Note_off_c, 0, 67, 64
2, 83941, Note_off_c, 0, 63, 64
2, 83991, Note_off_c, 0, 58, 64
2, 83993, Note_on_c, 0, 67, 44
2, 84044, Note_off_c, 0, 67, 64
2, 84044, Note_on_c, 0, 63, 32
2, 84045, Note_on_c, 0, 51, 38
2, 84095, Note_off_c, 0, 63, 64
2, 84147, Note_on_c, 0, 63, 31
2, 84198, Note_off_c, 0, 63, 64
2, 84198, Note_on_c, 0, 68, 36
2, 84199, Note_on_c, 0, 48, 34
2, 84248, Note_off_c, 0, 68, 64
2, 84301, Note_on_c, 0, 68, 32
2, 84351, Note_off_c, 0, 68, 64
2, 84352, Note_off_c, 0, 48, 64
2, 84354, Note_on_c, 0, 44, 38
2, 84354, Note_on_c, 0, 72, 41
2, 84404, Note_off_c, 0, 72, 64
2, 84457, Note_on_c, 0, 72, 34
2, 84507, Note_off_c, 0, 72, 64
2, 84508, Note_off_c, 0, 44, 64
2, 84508, Note_on_c, 0, 70, 35
2, 84509, Note_on_c, 0, 43, 34
2, 84558, Note_off_c, 0, 70, 64
2, 84611, Note_off_c, 0, 43, 64
2, 84611, Note_off_c, 0, 51, 64
2, 84611, Note_on_c, 0, 70, 32
2, 84661, Note_off_c, 0, 70, 64
2, 84661, Note_on_c, 0, 75, 40
2, 84662, Note_on_c, 0, 51, 38
2, 84712, Note_off_c, 0, 75, 64
2, 84765, Note_on_c, 0, 75, 45
2, 84815, Note_off_c, 0, 75, 64
2, 84817, Note_on_c, 0, 80, 45
2, 84817, Note_on_c, 0, 48, 34
2, 84868, Note_off_c, 0, 80, 64
2, 84919, Note_on_c, 0, 80, 33
2, 84971, Note_off_c, 0, 80, 64
2, 84972, Note_off_c, 0, 48, 64
2, 84972, Note_on_c, 0, 84, 46
2, 84972, Note_on_c, 0, 44, 38
2, 85021, Note_off_c, 0, 84, 64
2, 85074, Note_on_c, 0, 84, 35
2, 85125, Note_off_c, 0, 84, 64
2, 85125, Note_off_c, 0, 44, 64
2, 85126, Note_on_c, 0, 82, 39
2, 85126, Note_on_c, 0, 43, 34
2, 85176, Note_off_c, 0, 82, 64
2, 85228, Note_off_c, 0, 43, 64
2, 85228, Note_off_c, 0, 51, 64
2, 85229, Note_on_c, 0, 70, 34
2, 85279, Note_off_c, 0, 70, 64
2, 85279, Note_on_c, 0, 63, 31
2, 85280, Note_on_c, 0, 51, 38
2, 85332, Note_off_c, 0, 63, 64
2, 85382, Note_on_c, 0, 63, 28
2, 85433, Note_off_c, 0, 63, 64
2, 85435, Note_on_c, 0, 48, 34
2, 85435, Note_on_c, 0, 68, 34
2, 85486, Note_off_c, 0, 68, 64
2, 85538, Note_on_c, 0, 68, 38
2, 85589, Note_off_c, 0, 68, 64
2, 85589, Note_off_c, 0, 48, 64
2, 85589, Note_on_c, 0, 72, 49
2, 85590, Note_on_c, 0, 44, 38
2, 85639, Note_off_c, 0, 72, 64
2, 85692, Note_on_c, 0, 72, 49
2, 85743, Note_off_c, 0, 72, 64
2, 85743, Note_off_c, 0, 44, 64
2, 85743, Note_on_c, 0, 70, 35
2, 85744, Note_on_c, 0, 43, 34
2, 85795, Note_off_c, 0, 70, 64
2, 85846, Note_off_c, 0, 43, 64
2, 85846, Note_off_c, 0, 51, 64
2, 85847, Note_on_c, 0, 67, 35
2, 85896, Note_off_c, 0, 67, 64
2, 85898, Note_on_c, 0, 65, 37
2, 85899, Note_on_c, 0, 44, 38
2, 85899, Note_on_c, 0, 53, 34
2, 85949, Note_off_c, 0, 65, 64
2, 86000, Note_off_c, 0, 53, 64
2, 86000, Note_off_c, 0, 44, 64
2, 86002, Note_on_c, 0, 68, 35
2, 86052, Note_off_c, 0, 68, 64
2, 86053, Note_on_c, 0, 63, 31
2, 86053, Note_on_c, 0, 46, 35
2, 86054, Note_on_c, 0, 55, 32
2, 86103, Note_off_c, 0, 63, 64
2, 86156, Note_off_c, 0, 55, 64
2, 86156, Note_off_c, 0, 46, 64
2, 86156, Note_on_c, 0, 67, 31
2, 86206, Note_off_c, 0, 67, 64
2, 86207, Note_on_c, 0, 62, 33
2, 86207, Note_on_c, 0, 56, 29
2, 86208, Note_on_c, 0, 46, 33
2, 86257, Note_off_c, 0, 62, 64
2, 86310, Note_off_c, 0, 46, 64
2, 86310, Note_off_c, 0, 56, 64
2, 86310, Note_on_c, 0, 65, 30
2, 86360, Note_off_c, 0, 65, 64
2, 86362, Note_on_c, 0, 63, 35
2, 86363, Note_on_c, 0, 39, 31
2, 86463, Note_off_c, 0, 39, 64
2, 86464, Note_off_c, 0, 63, 64
2, 86516, Note_on_c, 0, 63, 30
2, 86517, Note_on_c, 0, 51, 35
2, 86567, Note_off_c, 0, 63, 64
2, 86619, Note_off_c, 0, 51, 64
2, 86619, Note_on_c, 0, 63, 31
2, 86670, Note_off_c, 0, 63, 64
2, 86670, Note_on_c, 0, 68, 37
2, 86671, Note_on_c, 0, 47, 44
2, 86721, Note_off_c, 0, 68, 64
2, 86773, Note_on_c, 0, 68, 37
2, 86824, Note_off_c, 0, 68, 64
2, 86824, Note_off_c, 0, 47, 64
2, 86826, Note_on_c, 0, 71, 41
2, 86826, Note_on_c, 0, 44, 38
2, 86877, Note_off_c, 0, 71, 64
2, 86928, Note_on_c, 0, 71, 46
2, 86980, Note_off_c, 0, 71, 64
2, 86980, Note_off_c, 0, 44, 64
2, 86980, Note_on_c, 0, 70, 35
2, 86981, Note_on_c, 0, 42, 39
2, 87031, Note_off_c, 0, 70, 64
2, 87081, Note_off_c, 0, 42, 64
2, 87083, Note_on_c, 0, 70, 31
2, 87134, Note_off_c, 0, 70, 64
2, 87134, Note_on_c, 0, 75, 38
2, 87134, Note_on_c, 0, 51, 37
2, 87184, Note_off_c, 0, 75, 64
2, 87237, Note_off_c, 0, 51, 64
2, 87237, Note_on_c, 0, 75, 39
2, 87288, Note_off_c, 0, 75, 64
2, 87288, Note_on_c, 0, 47, 39
2, 87288, Note_on_c, 0, 80, 40
2, 87340, Note_off_c, 0, 80, 64
2, 87391, Note_on_c, 0, 80, 38
2, 87442, Note_off_c, 0, 80, 64
2, 87442, Note_off_c, 0, 47, 64
2, 87444, Note_on_c, 0, 83, 40
2, 87444, Note_on_c, 0, 44, 34
2, 87494, Note_off_c, 0, 83, 64
2, 87547, Note_on_c, 0, 83, 39
2, 87598, Note_off_c, 0, 83, 64
2, 87598, Note_off_c, 0, 44, 64
2, 87598, Note_on_c, 0, 82, 37
2, 87599, Note_on_c, 0, 42, 34
2, 87648, Note_off_c, 0, 82, 64
2, 87701, Note_off_c, 0, 42, 64
2, 87701, Note_on_c, 0, 70, 34
2, 87751, Note_off_c, 0, 70, 64
2, 87752, Note_on_c, 0, 66, 31
2, 87752, Note_on_c, 0, 54, 31
2, 87804, Note_off_c, 0, 66, 64
2, 87855, Note_on_c, 0, 66, 31
2, 87905, Note_off_c, 0, 66, 64
2, 87907, Note_on_c, 0, 71, 37
2, 87908, Note_on_c, 0, 51, 39
2, 87958, Note_off_c, 0, 71, 64
2, 88010, Note_on_c, 0, 71, 37
2, 88061, Note_off_c, 0, 71, 64
2, 88061, Note_off_c, 0, 51, 64
2, 88062, Note_on_c, 0, 75, 41
2, 88062, Note_on_c, 0, 47, 34
2, 88112, Note_off_c, 0, 75, 64
2, 88164, Note_on_c, 0, 75, 46
2, 88215, Note_off_c, 0, 75, 64
2, 88215, Note_off_c, 0, 47, 64
2, 88216, Note_on_c, 0, 73, 35
2, 88216, Note_on_c, 0, 46, 34
2, 88266, Note_off_c, 0, 73, 64
2, 88318, Note_off_c, 0, 46, 64
2, 88319, Note_off_c, 0, 54, 64
2, 88319, Note_on_c, 0, 73, 31
2, 88369, Note_off_c, 0, 73, 64
2, 88371, Note_on_c, 0, 78, 38
2, 88371, Note_on_c, 0, 54, 31
2, 88421, Note_off_c, 0, 78, 64
2, 88472, Note_on_c, 0, 78, 39
2, 88525, Note_off_c, 0, 78, 64
2, 88525, Note_on_c, 0, 83, 40
2, 88526, Note_on_c, 0, 51, 39
2, 88575, Note_off_c, 0, 83, 64
2, 88628, Note_on_c, 0, 83, 38
2, 88679, Note_off_c, 0, 83, 64
2, 88680, Note_off_c, 0, 51, 64
2, 88680, Note_on_c, 0, 87, 40
2, 88680, Note_on_c, 0, 47, 34
2, 88729, Note_off_c, 0, 87, 64
2, 88782, Note_on_c, 0, 87, 39
2, 88833, Note_off_c, 0, 87, 64
2, 88833, Note_off_c, 0, 47, 64
2, 88835, Note_on_c, 0, 85, 37
2, 88835, Note_on_c, 0, 46, 34
2, 88885, Note_off_c, 0, 85, 64
2, 88936, Note_off_c, 0, 46, 64
2, 88936, Note_off_c, 0, 54, 64
2, 88937, Note_on_c, 0, 73, 34
2, 88989, Note_off_c, 0, 73, 64
2, 88989, Note_on_c, 0, 66, 31
2, 88990, Note_on_c, 0, 57, 34
2, 89039, Note_off_c, 0, 66, 64
2, 89092, Note_on_c, 0, 66, 31
2, 89142, Note_off_c, 0, 66, 64
2, 89143, Note_off_c, 0, 57, 64
2, 89143, Note_on_c, 0, 72, 43
2, 89144, Note_on_c, 0, 56, 34
2, 89193, Note_off_c, 0, 72, 64
2, 89246, Note_on_c, 0, 72, 38
2, 89296, Note_off_c, 0, 72, 64
2, 89297, Note_off_c, 0, 56, 64
2, 89297, Note_on_c, 0, 75, 40
2, 89298, Note_on_c, 0, 54, 36
2, 89349, Note_off_c, 0, 75, 64
2, 89400, Note_on_c, 0, 75, 40
2, 89450, Note_off_c, 0, 75, 64
2, 89451, Note_off_c, 0, 54, 64
2, 89452, Note_on_c, 0, 73, 52
2, 89453, Note_on_c, 0, 53, 31
2, 89477, Note_off_c, 0, 53, 64
2, 89503, Note_on_c, 0, 56, 34
2, 89529, Note_off_c, 0, 56, 64
2, 89556, Note_on_c, 0, 59, 25
2, 89580, Note_off_c, 0, 59, 64
2, 89606, Note_on_c, 0, 53, 39
2, 89630, Note_off_c, 0, 53, 64
2, 89657, Note_on_c, 0, 56, 35
2, 89683, Note_off_c, 0, 56, 64
2, 89710, Note_on_c, 0, 59, 24
2, 89734, Note_off_c, 0, 59, 64
2, 89760, Note_on_c, 0, 53, 40
2, 89786, Note_off_c, 0, 53, 64
2, 89813, Note_on_c, 0, 56, 25
2, 89837, Note_off_c, 0, 56, 64
2, 89864, Note_on_c, 0, 59, 30
2, 89890, Note_off_c, 0, 59, 64
2, 89914, Note_off_c, 0, 73, 64
2, 89916, Note_on_c, 0, 73, 50
2, 89916, Note_on_c, 0, 53, 41
2, 89940, Note_off_c, 0, 53, 64
2, 89967, Note_on_c, 0, 56, 39
2, 89993, Note_off_c, 0, 56, 64
2, 90017, Note_off_c, 0, 73, 64
2, 90019, Note_on_c, 0, 59, 28
2, 90044, Note_off_c, 0, 59, 64
2, 90070, Note_on_c, 0, 73, 53
2, 90070, Note_on_c, 0, 53, 38
2, 90094, Note_off_c, 0, 53, 64
2, 90120, Note_on_c, 0, 56, 35
2, 90147, Note_off_c, 0, 56, 64
2, 90173, Note_off_c, 0, 73, 64
2, 90173, Note_on_c, 0, 59, 28
2, 90197, Note_off_c, 0, 59, 64
2, 90224, Note_on_c, 0, 53, 38
2, 90224, Note_on_c, 0, 73, 56
2, 90250, Note_off_c, 0, 53, 64
2, 90276, Note_on_c, 0, 56, 34
2, 90301, Note_off_c, 0, 56, 64
2, 90327, Note_off_c, 0, 73, 64
2, 90327, Note_on_c, 0, 59, 30
2, 90353, Note_off_c, 0, 59, 64
2, 90380, Note_on_c, 0, 73, 60
2, 90380, Note_on_c, 0, 53, 47
2, 90404, Note_off_c, 0, 53, 64
2, 90431, Note_on_c, 0, 56, 27
2, 90455, Note_off_c, 0, 56, 64
2, 90481, Note_off_c, 0, 73, 64
2, 90481, Note_on_c, 0, 59, 32
2, 90507, Note_off_c, 0, 59, 64
2, 90534, Note_on_c, 0, 73, 62
2, 90534, Note_on_c, 0, 58, 38
2, 90558, Note_off_c, 0, 58, 64
2, 90584, Note_on_c, 0, 56, 41
2, 90611, Note_off_c, 0, 56, 64
2, 90635, Note_off_c, 0, 73, 64
2, 90637, Note_on_c, 0, 54, 39
2, 90661, Note_off_c, 0, 54, 64
2, 90687, Note_on_c, 0, 73, 44
2, 90688, Note_on_c, 0, 53, 41
2, 90714, Note_off_c, 0, 53, 64
2, 90740, Note_on_c, 0, 56, 35
2, 90765, Note_off_c, 0, 56, 64
2, 90791, Note_on_c, 0, 59, 28
2, 90815, Note_off_c, 0, 59, 64
2, 90841, Note_on_c, 0, 85, 63
2, 90842, Note_on_c, 0, 53, 38
2, 90868, Note_off_c, 0, 53, 64
2, 90894, Note_on_c, 0, 56, 23
2, 90918, Note_off_c, 0, 56, 64
2, 90945, Note_on_c, 0, 59, 27
2, 90971, Note_off_c, 0, 59, 64
2, 90997, Note_off_c, 0, 85, 64
2, 90997, Note_on_c, 0, 53, 41
2, 91021, Note_off_c, 0, 53, 64
2, 91048, Note_on_c, 0, 56, 32
2, 91074, Note_off_c, 0, 56, 64
2, 91101, Note_on_c, 0, 59, 27
2, 91125, Note_off_c, 0, 59, 64
2, 91151, Note_off_c, 0, 73, 64
2, 91152, Note_on_c, 0, 73, 33
2, 91152, Note_on_c, 0, 85, 40
2, 91152, Note_on_c, 0, 53, 43
2, 91177, Note_off_c, 0, 53, 64
2, 91204, Note_on_c, 0, 56, 34
2, 91228, Note_off_c, 0, 56, 64
2, 91254, Note_off_c, 0, 73, 64
2, 91255, Note_off_c, 0, 85, 64
2, 91255, Note_on_c, 0, 59, 32
2, 91279, Note_off_c, 0, 59, 64
2, 91306, Note_on_c, 0, 85, 44
2, 91306, Note_on_c, 0, 73, 34
2, 91306, Note_on_c, 0, 53, 45
2, 91332, Note_off_c, 0, 53, 64
2, 91358, Note_on_c, 0, 56, 32
2, 91382, Note_off_c, 0, 56, 64
2, 91408, Note_off_c, 0, 73, 64
2, 91408, Note_off_c, 0, 85, 64
2, 91409, Note_on_c, 0, 59, 25
2, 91435, Note_off_c, 0, 59, 64
2, 91461, Note_on_c, 0, 85, 47
2, 91461, Note_on_c, 0, 73, 35
2, 91462, Note_on_c, 0, 53, 40
2, 91485, Note_off_c, 0, 53, 64
2, 91512, Note_on_c, 0, 56, 38
2, 91538, Note_off_c, 0, 56, 64
2, 91563, Note_off_c, 0, 73, 64
2, 91563, Note_off_c, 0, 85, 64
2, 91564, Note_on_c, 0, 59, 32
2, 91589, Note_off_c, 0, 59, 64
2, 91615, Note_on_c, 0, 85, 53
2, 91615, Note_on_c, 0, 73, 38
2, 91616, Note_on_c, 0, 53, 40
2, 91639, Note_off_c, 0, 53, 64
2, 91666, Note_on_c, 0, 56, 35
2, 91692, Note_off_c, 0, 56, 64
2, 91718, Note_off_c, 0, 73, 64
2, 91718, Note_off_c, 0, 85, 64
2, 91718, Note_on_c, 0, 59, 31
2, 91742, Note_off_c, 0, 59, 64
2, 91769, Note_on_c, 0, 85, 58
2, 91769, Note_on_c, 0, 73, 42
2, 91770, Note_on_c, 0, 53, 39
2, 91795, Note_off_c, 0, 53, 64
2, 91822, Note_on_c, 0, 56, 38
2, 91846, Note_off_c, 0, 56, 64
2, 91872, Note_off_c, 0, 73, 64
2, 91872, Note_off_c, 0, 85, 64
2, 91872, Note_on_c, 0, 59, 28
2, 91898, Note_off_c, 0, 59, 64
2, 91925, Note_on_c, 0, 85, 61
2, 91925, Note_on_c, 0, 73, 58
2, 91925, Note_on_c, 0, 53, 40
2, 91949, Note_off_c, 0, 53, 64
2, 91976, Note_on_c, 0, 56, 35
2, 92000, Note_off_c, 0, 56, 64
2, 92026, Note_off_c, 0, 73, 64
2, 92026, Note_off_c, 0, 85, 64
2, 92027, Note_on_c, 0, 77, 37
2, 92027, Note_on_c, 0, 59, 30
2, 92052, Note_off_c, 0, 59, 64
2, 92078, Note_off_c, 0, 77, 64
2, 92079, Note_on_c, 0, 78, 38
2, 92079, Note_on_c, 0, 58, 39
2, 92103, Note_off_c, 0, 58, 64
2, 92129, Note_off_c, 0, 78, 64
2, 92129, Note_on_c, 0, 80, 46
2, 92130, Note_on_c, 0, 56, 35
2, 92156, Note_off_c, 0, 56, 64
2, 92182, Note_off_c, 0, 80, 64
2, 92182, Note_on_c, 0, 82, 41
2, 92183, Note_on_c, 0, 54, 34
2, 92206, Note_off_c, 0, 54, 64
2, 92232, Note_off_c, 0, 82, 64
2, 92232, Note_on_c, 0, 53, 38
2, 92259, Note_off_c, 0, 53, 64
2, 92285, Note_on_c, 0, 54, 29
2, 92310, Note_off_c, 0, 54, 64
2, 92336, Note_on_c, 0, 74, 36
2, 92336, Note_on_c, 0, 56, 40
2, 92362, Note_off_c, 0, 56, 64
2, 92387, Note_off_c, 0, 74, 64
2, 92388, Note_on_c, 0, 75, 46
2, 92389, Note_on_c, 0, 54, 38
2, 92413, Note_off_c, 0, 54, 64
2, 92439, Note_off_c, 0, 75, 64
2, 92439, Note_on_c, 0, 77, 45
2, 92440, Note_on_c, 0, 53, 35
2, 92463, Note_off_c, 0, 53, 64
2, 92490, Note_off_c, 0, 77, 64
2, 92490, Note_on_c, 0, 78, 40
2, 92490, Note_on_c, 0, 51, 37
2, 92516, Note_off_c, 0, 51, 64
2, 92543, Note_off_c, 0, 78, 64
2, 92543, Note_on_c, 0, 49, 46
2, 92567, Note_off_c, 0, 49, 64
2, 92593, Note_on_c, 0, 51, 43
2, 92619, Note_off_c, 0, 51, 64
2, 92646, Note_on_c, 0, 70, 35
2, 92646, Note_on_c, 0, 52, 36
2, 92670, Note_off_c, 0, 52, 64
2, 92696, Note_off_c, 0, 70, 64
2, 92696, Note_on_c, 0, 71, 41
2, 92697, Note_on_c, 0, 51, 46
2, 92723, Note_off_c, 0, 51, 64
2, 92747, Note_off_c, 0, 71, 64
2, 92749, Note_on_c, 0, 73, 41
2, 92749, Note_on_c, 0, 49, 41
2, 92773, Note_off_c, 0, 49, 64
2, 92800, Note_off_c, 0, 73, 64
2, 92800, Note_on_c, 0, 75, 44
2, 92800, Note_on_c, 0, 47, 38
2, 92824, Note_off_c, 0, 47, 64
2, 92850, Note_off_c, 0, 75, 64
2, 92850, Note_on_c, 0, 46, 49
2, 92877, Note_off_c, 0, 46, 64
2, 92903, Note_on_c, 0, 47, 34
2, 92927, Note_off_c, 0, 47, 64
2, 92953, Note_on_c, 0, 67, 39
2, 92954, Note_on_c, 0, 49, 35
2, 92980, Note_off_c, 0, 49, 64
2, 93004, Note_off_c, 0, 67, 64
2, 93006, Note_on_c, 0, 68, 47
2, 93006, Note_on_c, 0, 47, 34
2, 93030, Note_off_c, 0, 47, 64
2, 93057, Note_off_c, 0, 68, 64
2, 93057, Note_on_c, 0, 70, 50
2, 93058, Note_on_c, 0, 46, 41
2, 93083, Note_off_c, 0, 46, 64
2, 93108, Note_off_c, 0, 70, 64
2, 93109, Note_on_c, 0, 71, 45
2, 93110, Note_on_c, 0, 44, 37
2, 93133, Note_off_c, 0, 44, 64
2, 93160, Note_off_c, 0, 71, 64
2, 93160, Note_on_c, 0, 35, 39
2, 93213, Note_on_c, 0, 56, 40
2, 93263, Note_off_c, 0, 56, 64
2, 93264, Note_off_c, 0, 35, 64
2, 93264, Note_on_c, 0, 59, 35
2, 93314, Note_off_c, 0, 59, 64
2, 93314, Note_on_c, 0, 63, 41
2, 93366, Note_off_c, 0, 63, 64
2, 93367, Note_on_c, 0, 59, 31
2, 93417, Note_off_c, 0, 59, 64
2, 93418, Note_on_c, 0, 63, 49
2, 93468, Note_off_c, 0, 63, 64
2, 93470, Note_on_c, 0, 68, 43
2, 93470, Note_on_c, 0, 47, 39
2, 93470, Note_on_c, 0, 51, 50
2, 93471, Note_on_c, 0, 56, 43
2, 93520, Note_off_c, 0, 68, 64
2, 93520, Note_on_c, 0, 63, 35
2, 93571, Note_off_c, 0, 63, 64
2, 93571, Note_off_c, 0, 56, 64
2, 93572, Note_off_c, 0, 51, 64
2, 93572, Note_off_c, 0, 47, 64
2, 93573, Note_on_c, 0, 68, 34
2, 93624, Note_off_c, 0, 68, 64
2, 93624, Note_on_c, 0, 71, 44
2, 93674, Note_off_c, 0, 71, 64
2, 93675, Note_on_c, 0, 68, 40
2, 93727, Note_off_c, 0, 68, 64
2, 93727, Note_on_c, 0, 71, 40
2, 93778, Note_off_c, 0, 71, 64
2, 93778, Note_on_c, 0, 75, 47
2, 93828, Note_off_c, 0, 75, 64
2, 93830, Note_on_c, 0, 73, 35
2, 93881, Note_off_c, 0, 73, 64
2, 93881, Note_on_c, 0, 71, 33
2, 93931, Note_off_c, 0, 71, 64
2, 93934, Note_on_c, 0, 70, 41
2, 93934, Note_on_c, 0, 47, 41
2, 93958, Note_off_c, 0, 47, 64
2, 93984, Note_off_c, 0, 70, 64
2, 93984, Note_on_c, 0, 71, 31
2, 93984, Note_on_c, 0, 51, 49
2, 94008, Note_off_c, 0, 51, 64
2, 94035, Note_off_c, 0, 71, 64
2, 94035, Note_on_c, 0, 68, 39
2, 94035, Note_on_c, 0, 56, 41
2, 94061, Note_off_c, 0, 56, 64
2, 94087, Note_off_c, 0, 68, 64
2, 94088, Note_on_c, 0, 73, 47
2, 94088, Note_on_c, 0, 49, 40
2, 94112, Note_off_c, 0, 49, 64
2, 94138, Note_off_c, 0, 73, 64
2, 94138, Note_on_c, 0, 70, 28
2, 94139, Note_on_c, 0, 54, 33
2, 94164, Note_off_c, 0, 54, 64
2, 94189, Note_off_c, 0, 70, 64
2, 94190, Note_on_c, 0, 66, 27
2, 94191, Note_on_c, 0, 58, 35
2, 94215, Note_off_c, 0, 58, 64
2, 94241, Note_off_c, 0, 66, 64
2, 94241, Note_on_c, 0, 71, 37
2, 94242, Note_on_c, 0, 49, 45
2, 94268, Note_off_c, 0, 49, 64
2, 94292, Note_off_c, 0, 71, 64
2, 94294, Note_on_c, 0, 68, 30
2, 94294, Note_on_c, 0, 56, 35
2, 94318, Note_off_c, 0, 56, 64
2, 94344, Note_off_c, 0, 68, 64
2, 94344, Note_on_c, 0, 65, 32
2, 94345, Note_on_c, 0, 59, 32
2, 94371, Note_off_c, 0, 59, 64
2, 94395, Note_off_c, 0, 65, 64
2, 94397, Note_on_c, 0, 53, 41
2, 94422, Note_off_c, 0, 53, 64
2, 94448, Note_on_c, 0, 85, 41
2, 94448, Note_on_c, 0, 56, 39
2, 94472, Note_off_c, 0, 56, 64
2, 94499, Note_off_c, 0, 85, 64
2, 94499, Note_on_c, 0, 77, 40
2, 94499, Note_on_c, 0, 59, 32
2, 94524, Note_off_c, 0, 59, 64
2, 94551, Note_off_c, 0, 77, 64
2, 94551, Note_on_c, 0, 78, 37
2, 94552, Note_on_c, 0, 58, 46
2, 94575, Note_off_c, 0, 58, 64
2, 94602, Note_off_c, 0, 78, 64
2, 94602, Note_on_c, 0, 80, 44
2, 94602, Note_on_c, 0, 56, 36
2, 94628, Note_off_c, 0, 56, 64
2, 94652, Note_off_c, 0, 80, 64
2, 94654, Note_on_c, 0, 82, 50
2, 94655, Note_on_c, 0, 54, 38
2, 94679, Note_off_c, 0, 54, 64
2, 94705, Note_off_c, 0, 82, 64
2, 94705, Note_on_c, 0, 53, 45
2, 94705, Note_on_c, 0, 54, 28
2, 94731, Note_off_c, 0, 54, 64
2, 94731, Note_off_c, 0, 53, 64
2, 94758, Note_on_c, 0, 82, 45
2, 94758, Note_on_c, 0, 54, 37
2, 94782, Note_off_c, 0, 54, 64
2, 94808, Note_off_c, 0, 82, 64
2, 94808, Note_on_c, 0, 74, 37
2, 94809, Note_on_c, 0, 56, 39
2, 94833, Note_off_c, 0, 56, 64
2, 94859, Note_off_c, 0, 74, 64
2, 94859, Note_on_c, 0, 75, 41
2, 94860, Note_on_c, 0, 54, 39
2, 94885, Note_off_c, 0, 54, 64
2, 94912, Note_off_c, 0, 75, 64
2, 94912, Note_on_c, 0, 77, 41
2, 94912, Note_on_c, 0, 53, 34
2, 94936, Note_off_c, 0, 53, 64
2, 94962, Note_off_c, 0, 77, 64
2, 94962, Note_on_c, 0, 78, 45
2, 94963, Note_on_c, 0, 51, 45
2, 94989, Note_off_c, 0, 51, 64
2, 95013, Note_off_c, 0, 78, 64
2, 95015, Note_on_c, 0, 49, 49
2, 95039, Note_off_c, 0, 49, 64
2, 95065, Note_on_c, 0, 78, 39
2, 95066, Note_on_c, 0, 51, 38
2, 95092, Note_off_c, 0, 51, 64
2, 95116, Note_off_c, 0, 78, 64
2, 95118, Note_on_c, 0, 70, 37
2, 95118, Note_on_c, 0, 52, 40
2, 95142, Note_off_c, 0, 52, 64
2, 95169, Note_off_c, 0, 70, 64
2, 95169, Note_on_c, 0, 71, 37
2, 95170, Note_on_c, 0, 51, 45
2, 95193, Note_off_c, 0, 51, 64
2, 95220, Note_off_c, 0, 71, 64
2, 95220, Note_on_c, 0, 73, 46
2, 95220, Note_on_c, 0, 49, 43
2, 95245, Note_off_c, 0, 49, 64
2, 95272, Note_off_c, 0, 73, 64
2, 95272, Note_on_c, 0, 75, 40
2, 95273, Note_on_c, 0, 47, 37
2, 95296, Note_off_c, 0, 47, 64
2, 95323, Note_off_c, 0, 75, 64
2, 95323, Note_on_c, 0, 46, 45
2, 95349, Note_off_c, 0, 46, 64
2, 95375, Note_on_c, 0, 75, 41
2, 95376, Note_on_c, 0, 47, 32
2, 95400, Note_off_c, 0, 47, 64
2, 95426, Note_off_c, 0, 75, 64
2, 95426, Note_on_c, 0, 67, 41
2, 95427, Note_on_c, 0, 49, 43
2, 95452, Note_off_c, 0, 49, 64
2, 95476, Note_off_c, 0, 67, 64
2, 95479, Note_on_c, 0, 68, 46
2, 95479, Note_on_c, 0, 47, 38
2, 95503, Note_off_c, 0, 47, 64
2, 95529, Note_off_c, 0, 68, 64
2, 95529, Note_on_c, 0, 70, 49
2, 95530, Note_on_c, 0, 46, 32
2, 95556, Note_off_c, 0, 46, 64
2, 95580, Note_off_c, 0, 70, 64
2, 95582, Note_on_c, 0, 71, 39
2, 95582, Note_on_c, 0, 44, 44
2, 95606, Note_off_c, 0, 44, 64
2, 95632, Note_off_c, 0, 71, 64
2, 95632, Note_on_c, 0, 35, 50
2, 95683, Note_on_c, 0, 56, 34
2, 95736, Note_off_c, 0, 56, 64
2, 95736, Note_off_c, 0, 35, 64
2, 95736, Note_on_c, 0, 59, 44
2, 95786, Note_off_c, 0, 59, 64
2, 95786, Note_on_c, 0, 63, 39
2, 95837, Note_off_c, 0, 63, 64
2, 95839, Note_on_c, 0, 59, 38
2, 95890, Note_off_c, 0, 59, 64
2, 95890, Note_on_c, 0, 63, 37
2, 95940, Note_off_c, 0, 63, 64
2, 95942, Note_on_c, 0, 68, 52
2, 95942, Note_on_c, 0, 51, 41
2, 95943, Note_on_c, 0, 47, 45
2, 95943, Note_on_c, 0, 56, 40
2, 95993, Note_off_c, 0, 56, 64
2, 95993, Note_off_c, 0, 47, 64
2, 95993, Note_off_c, 0, 51, 64
2, 95994, Note_off_c, 0, 68, 64
2, 95994, Note_on_c, 0, 63, 40
2, 96044, Note_off_c, 0, 63, 64
2, 96044, Note_on_c, 0, 68, 37
2, 96096, Note_off_c, 0, 68, 64
2, 96096, Note_on_c, 0, 71, 43
2, 96147, Note_off_c, 0, 71, 64
2, 96147, Note_on_c, 0, 68, 34
2, 96197, Note_off_c, 0, 68, 64
2, 96199, Note_on_c, 0, 71, 41
2, 96250, Note_off_c, 0, 71, 64
2, 96250, Note_on_c, 0, 75, 52
2, 96251, Note_on_c, 0, 47, 45
2, 96251, Note_on_c, 0, 56, 46
2, 96252, Note_on_c, 0, 51, 47
2, 96252, Note_on_c, 0, 59, 40
2, 96300, Note_off_c, 0, 59, 64
2, 96301, Note_off_c, 0, 51, 64
2, 96301, Note_off_c, 0, 56, 64
2, 96302, Note_off_c, 0, 47, 64
2, 96302, Note_off_c, 0, 75, 64
2, 96302, Note_on_c, 0, 63, 35
2, 96353, Note_off_c, 0, 63, 64
2, 96353, Note_on_c, 0, 68, 46
2, 96404, Note_off_c, 0, 68, 64
2, 96404, Note_on_c, 0, 71, 49
2, 96456, Note_off_c, 0, 71, 64
2, 96457, Note_on_c, 0, 68, 39
2, 96507, Note_off_c, 0, 68, 64
2, 96507, Note_on_c, 0, 71, 41
2, 96560, Note_off_c, 0, 71, 64
2, 96560, Note_on_c, 0, 75, 52
2, 96561, Note_on_c, 0, 59, 50
2, 96561, Note_on_c, 0, 63, 52
2, 96561, Note_on_c, 0, 68, 53
2, 96611, Note_off_c, 0, 68, 64
2, 96611, Note_off_c, 0, 63, 64
2, 96611, Note_off_c, 0, 59, 64
2, 96612, Note_off_c, 0, 75, 64
2, 96612, Note_on_c, 0, 71, 35
2, 96661, Note_off_c, 0, 71, 64
2, 96663, Note_on_c, 0, 75, 40
2, 96714, Note_off_c, 0, 75, 64
2, 96714, Note_on_c, 0, 80, 40
2, 96764, Note_off_c, 0, 80, 64
2, 96766, Note_on_c, 0, 75, 37
2, 96817, Note_off_c, 0, 75, 64
2, 96817, Note_on_c, 0, 80, 39
2, 96867, Note_off_c, 0, 80, 64
2, 96868, Note_on_c, 0, 83, 54
2, 96920, Note_off_c, 0, 83, 64
2, 96921, Note_on_c, 0, 75, 34
2, 96921, Note_on_c, 0, 71, 31
2, 96945, Note_off_c, 0, 71, 64
2, 96971, Note_off_c, 0, 75, 64
2, 96971, Note_on_c, 0, 80, 40
2, 96972, Note_on_c, 0, 68, 32
2, 96997, Note_off_c, 0, 68, 64
2, 97021, Note_off_c, 0, 80, 64
2, 97023, Note_on_c, 0, 83, 36
2, 97024, Note_on_c, 0, 63, 40
2, 97048, Note_off_c, 0, 63, 64
2, 97074, Note_off_c, 0, 83, 64
2, 97074, Note_on_c, 0, 80, 35
2, 97075, Note_on_c, 0, 68, 40
2, 97100, Note_off_c, 0, 68, 64
2, 97125, Note_off_c, 0, 80, 64
2, 97127, Note_on_c, 0, 83, 35
2, 97127, Note_on_c, 0, 63, 34
2, 97151, Note_off_c, 0, 63, 64
2, 97177, Note_off_c, 0, 83, 64
2, 97177, Note_on_c, 0, 87, 53
2, 97178, Note_on_c, 0, 59, 37
2, 97202, Note_off_c, 0, 59, 64
2, 97228, Note_off_c, 0, 87, 64
2, 97228, Note_on_c, 0, 75, 28
2, 97229, Note_on_c, 0, 71, 28
2, 97254, Note_off_c, 0, 71, 64
2, 97281, Note_off_c, 0, 75, 64
2, 97281, Note_on_c, 0, 80, 37
2, 97282, Note_on_c, 0, 68, 35
2, 97305, Note_off_c, 0, 68, 64
2, 97332, Note_off_c, 0, 80, 64
2, 97332, Note_on_c, 0, 83, 38
2, 97332, Note_on_c, 0, 63, 47
2, 97357, Note_off_c, 0, 63, 64
2, 97382, Note_off_c, 0, 83, 64
2, 97384, Note_on_c, 0, 80, 37
2, 97384, Note_on_c, 0, 68, 43
2, 97408, Note_off_c, 0, 68, 64
2, 97435, Note_off_c, 0, 80, 64
2, 97435, Note_on_c, 0, 83, 40
2, 97435, Note_on_c, 0, 63, 35
2, 97461, Note_off_c, 0, 63, 64
2, 97485, Note_off_c, 0, 83, 64
2, 97487, Note_on_c, 0, 87, 35
2, 97488, Note_on_c, 0, 59, 46
2, 97512, Note_off_c, 0, 59, 64
2, 97538, Note_off_c, 0, 87, 64
2, 97538, Note_on_c, 0, 75, 35
2, 97588, Note_off_c, 0, 75, 64
2, 97591, Note_on_c, 0, 74, 34
2, 97641, Note_off_c, 0, 74, 64
2, 97642, Note_on_c, 0, 75, 40
2, 97692, Note_off_c, 0, 75, 64
2, 97692, Note_on_c, 0, 76, 37
2, 97744, Note_off_c, 0, 76, 64
2, 97745, Note_on_c, 0, 77, 42
2, 97795, Note_off_c, 0, 77, 64
2, 97796, Note_on_c, 0, 78, 37
2, 97846, Note_off_c, 0, 78, 64
2, 97848, Note_on_c, 0, 79, 44
2, 97898, Note_off_c, 0, 79, 64
2, 97898, Note_on_c, 0, 80, 41
2, 97949, Note_off_c, 0, 80, 64
2, 97951, Note_on_c, 0, 81, 47
2, 98002, Note_off_c, 0, 81, 64
2, 98002, Note_on_c, 0, 82, 54
2, 98052, Note_off_c, 0, 82, 64
2, 98053, Note_on_c, 0, 83, 43
2, 98105, Note_off_c, 0, 83, 64
2, 98105, Note_on_c, 0, 84, 59
2, 98156, Note_off_c, 0, 84, 64
2, 98156, Note_on_c, 0, 85, 46
2, 98206, Note_off_c, 0, 85, 64
2, 98208, Note_on_c, 0, 86, 49
2, 98259, Note_off_c, 0, 86, 64
2, 98259, Note_on_c, 0, 87, 58
2, 98259, Note_on_c, 0, 59, 35
2, 98260, Note_on_c, 0, 68, 44
2, 98260, Note_on_c, 0, 63, 45
2, 98310, Note_off_c, 0, 87, 64
2, 98311, Note_on_c, 0, 83, 43
2, 98362, Note_off_c, 0, 83, 64
2, 98362, Note_off_c, 0, 63, 64
2, 98363, Note_off_c, 0, 68, 64
2, 98363, Note_off_c, 0, 59, 64
2, 98364, Note_on_c, 0, 80, 38
2, 98412, Note_off_c, 0, 80, 64
2, 98413, Note_on_c, 0, 78, 41
2, 98413, Note_on_c, 0, 61, 38
2, 98414, Note_on_c, 0, 70, 39
2, 98414, Note_on_c, 0, 66, 35
2, 98465, Note_off_c, 0, 78, 64
2, 98516, Note_off_c, 0, 66, 64
2, 98516, Note_off_c, 0, 70, 64
2, 98517, Note_off_c, 0, 61, 64
2, 98568, Note_on_c, 0, 71, 29
2, 98569, Note_on_c, 0, 61, 29
2, 98569, Note_on_c, 0, 65, 31
2, 98569, Note_on_c, 0, 68, 34
2, 98570, Note_on_c, 0, 61, 32
2, 98572, Note_on_c, 0, 80, 50
2, 98587, Note_off_c, 0, 80, 64
2, 98588, Note_on_c, 0, 82, 43
2, 98600, Note_off_c, 0, 82, 64
2, 98602, Note_on_c, 0, 80, 50
2, 98616, Note_off_c, 0, 80, 64
2, 98616, Note_on_c, 0, 82, 44
2, 98631, Note_off_c, 0, 82, 64
2, 98631, Note_on_c, 0, 80, 50
2, 98645, Note_off_c, 0, 80, 64
2, 98646, Note_on_c, 0, 78, 46
2, 98659, Note_off_c, 0, 78, 64
2, 98661, Note_on_c, 0, 80, 50
2, 98670, Note_off_c, 0, 68, 64
2, 98670, Note_off_c, 0, 61, 64
2, 98671, Note_off_c, 0, 61, 64
2, 98671, Note_off_c, 0, 65, 64
2, 98671, Note_off_c, 0, 71, 64
2, 98674, Note_off_c, 0, 80, 64
2, 98696, Note_on_c, 0, 80, 44
2, 98723, Note_off_c, 0, 80, 64
2, 98723, Note_on_c, 0, 78, 31
2, 98723, Note_on_c, 0, 42, 54
2, 98748, Note_off_c, 0, 42, 64
2, 98749, Note_off_c, 0, 78, 64
2, 98775, Note_on_c, 0, 49, 34
2, 98799, Note_off_c, 0, 49, 64
2, 98826, Note_on_c, 0, 66, 29
2, 98826, Note_on_c, 0, 54, 27
2, 98850, Note_off_c, 0, 54, 64
2, 98876, Note_off_c, 0, 66, 64
2, 98877, Note_on_c, 0, 58, 40
2, 98877, Note_on_c, 0, 70, 34
2, 98903, Note_off_c, 0, 70, 64
2, 98903, Note_off_c, 0, 58, 64
2, 98929, Note_on_c, 0, 54, 29
2, 98953, Note_off_c, 0, 54, 64
2, 98980, Note_on_c, 0, 70, 38
2, 98980, Note_on_c, 0, 49, 28
2, 99006, Note_off_c, 0, 49, 64
2, 99030, Note_off_c, 0, 70, 64
2, 99033, Note_on_c, 0, 73, 43
2, 99033, Note_on_c, 0, 42, 34
2, 99057, Note_off_c, 0, 42, 64
2, 99057, Note_off_c, 0, 73, 64
2, 99083, Note_on_c, 0, 49, 35
2, 99109, Note_off_c, 0, 49, 64
2, 99135, Note_on_c, 0, 73, 36
2, 99136, Note_on_c, 0, 54, 35
2, 99160, Note_off_c, 0, 54, 64
2, 99186, Note_off_c, 0, 73, 64
2, 99186, Note_on_c, 0, 78, 39
2, 99187, Note_on_c, 0, 58, 40
2, 99210, Note_off_c, 0, 58, 64
2, 99211, Note_off_c, 0, 78, 64
2, 99237, Note_on_c, 0, 54, 28
2, 99263, Note_off_c, 0, 54, 64
2, 99289, Note_on_c, 0, 78, 38
2, 99289, Note_on_c, 0, 49, 29
2, 99313, Note_off_c, 0, 49, 64
2, 99340, Note_off_c, 0, 78, 64
2, 99340, Note_on_c, 0, 82, 40
2, 99341, Note_on_c, 0, 42, 39
2, 99366, Note_off_c, 0, 42, 64
2, 99367, Note_off_c, 0, 82, 64
2, 99393, Note_on_c, 0, 49, 26
2, 99417, Note_off_c, 0, 49, 64
2, 99444, Note_on_c, 0, 82, 43
2, 99444, Note_on_c, 0, 54, 25
2, 99469, Note_off_c, 0, 54, 64
2, 99494, Note_off_c, 0, 82, 64
2, 99496, Note_on_c, 0, 85, 46
2, 99496, Note_on_c, 0, 58, 33
2, 99520, Note_off_c, 0, 58, 64
2, 99520, Note_off_c, 0, 85, 64
2, 99547, Note_on_c, 0, 54, 28
2, 99571, Note_off_c, 0, 54, 64
2, 99597, Note_on_c, 0, 78, 47
2, 99598, Note_on_c, 0, 49, 26
2, 99624, Note_off_c, 0, 49, 64
2, 99650, Note_off_c, 0, 78, 64
2, 99650, Note_on_c, 0, 82, 47
2, 99650, Note_on_c, 0, 42, 36
2, 99674, Note_off_c, 0, 42, 64
2, 99674, Note_off_c, 0, 82, 64
2, 99701, Note_on_c, 0, 49, 30
2, 99727, Note_off_c, 0, 49, 64
2, 99753, Note_on_c, 0, 73, 39
2, 99754, Note_on_c, 0, 54, 22
2, 99778, Note_off_c, 0, 54, 64
2, 99804, Note_off_c, 0, 73, 64
2, 99804, Note_on_c, 0, 78, 43
2, 99804, Note_on_c, 0, 58, 40
2, 99830, Note_off_c, 0, 58, 64
2, 99830, Note_off_c, 0, 78, 64
2, 99856, Note_on_c, 0, 54, 32
2, 99881, Note_off_c, 0, 54, 64
2, 99907, Note_on_c, 0, 70, 43
2, 99908, Note_on_c, 0, 49, 31
2, 99933, Note_off_c, 0, 49, 64
2, 99958, Note_off_c, 0, 70, 64
2, 99960, Note_on_c, 0, 73, 46
2, 99960, Note_on_c, 0, 42, 34
2, 99984, Note_off_c, 0, 42, 64
2, 99984, Note_off_c, 0, 73, 64
2, 100010, Note_on_c, 0, 49, 28
2, 100034, Note_off_c, 0, 49, 64
2, 100061, Note_on_c, 0, 66, 43
2, 100061, Note_on_c, 0, 54, 29
2, 100087, Note_off_c, 0, 54, 64
2, 100114, Note_off_c, 0, 66, 64
2, 100114, Note_on_c, 0, 70, 46
2, 100114, Note_on_c, 0, 58, 36
2, 100138, Note_off_c, 0, 58, 64
2, 100138, Note_off_c, 0, 70, 64
2, 100164, Note_on_c, 0, 54, 28
2, 100190, Note_off_c, 0, 54, 64
2, 100217, Note_on_c, 0, 68, 40
2, 100217, Note_on_c, 0, 49, 35
2, 100241, Note_off_c, 0, 49, 64
2, 100267, Note_off_c, 0, 68, 64
2, 100268, Note_on_c, 0, 71, 43
2, 100268, Note_on_c, 0, 37, 47
2, 100294, Note_off_c, 0, 37, 64
2, 100294, Note_off_c, 0, 71, 64
2, 100320, Note_on_c, 0, 49, 34
2, 100344, Note_off_c, 0, 49, 64
2, 100371, Note_on_c, 0, 65, 34
2, 100371, Note_on_c, 0, 53, 32
2, 100395, Note_off_c, 0, 53, 64
2, 100422, Note_off_c, 0, 65, 64
2, 100422, Note_on_c, 0, 68, 37
2, 100422, Note_on_c, 0, 56, 39
2, 100448, Note_off_c, 0, 56, 64
2, 100448, Note_off_c, 0, 68, 64
2, 100474, Note_on_c, 0, 53, 35
2, 100498, Note_off_c, 0, 53, 64
2, 100524, Note_on_c, 0, 65, 38
2, 100525, Note_on_c, 0, 49, 36
2, 100551, Note_off_c, 0, 49, 64
2, 100575, Note_off_c, 0, 65, 64
2, 100577, Note_on_c, 0, 66, 37
2, 100578, Note_on_c, 0, 42, 54
2, 100602, Note_off_c, 0, 42, 64
2, 100602, Note_off_c, 0, 66, 64
2, 100628, Note_on_c, 0, 49, 44
2, 100655, Note_off_c, 0, 49, 64
2, 100680, Note_on_c, 0, 66, 45
2, 100681, Note_on_c, 0, 54, 34
2, 100705, Note_off_c, 0, 54, 64
2, 100731, Note_off_c, 0, 66, 64
2, 100731, Note_on_c, 0, 70, 47
2, 100732, Note_on_c, 0, 58, 39
2, 100755, Note_off_c, 0, 58, 64
2, 100756, Note_off_c, 0, 70, 64
2, 100782, Note_on_c, 0, 54, 34
2, 100808, Note_off_c, 0, 54, 64
2, 100835, Note_on_c, 0, 70, 44
2, 100835, Note_on_c, 0, 49, 32
2, 100859, Note_off_c, 0, 49, 64
2, 100885, Note_off_c, 0, 70, 64
2, 100885, Note_on_c, 0, 73, 43
2, 100885, Note_on_c, 0, 42, 44
2, 100912, Note_off_c, 0, 42, 64
2, 100912, Note_off_c, 0, 73, 64
2, 100938, Note_on_c, 0, 49, 38
2, 100962, Note_off_c, 0, 49, 64
2, 100989, Note_on_c, 0, 73, 41
2, 100989, Note_on_c, 0, 54, 32
2, 101015, Note_off_c, 0, 54, 64
2, 101039, Note_off_c, 0, 73, 64
2, 101041, Note_on_c, 0, 78, 39
2, 101041, Note_on_c, 0, 58, 40
2, 101065, Note_off_c, 0, 58, 64
2, 101065, Note_off_c, 0, 78, 64
2, 101092, Note_on_c, 0, 54, 31
2, 101118, Note_off_c, 0, 54, 64
2, 101145, Note_on_c, 0, 78, 44
2, 101145, Note_on_c, 0, 49, 32
2, 101169, Note_off_c, 0, 49, 64
2, 101195, Note_off_c, 0, 78, 64
2, 101195, Note_on_c, 0, 82, 40
2, 101196, Note_on_c, 0, 42, 44
2, 101219, Note_off_c, 0, 42, 64
2, 101220, Note_off_c, 0, 82, 64
2, 101245, Note_on_c, 0, 49, 35
2, 101272, Note_off_c, 0, 49, 64
2, 101298, Note_on_c, 0, 82, 43
2, 101298, Note_on_c, 0, 54, 32
2, 101322, Note_off_c, 0, 54, 64
2, 101349, Note_off_c, 0, 82, 64
2, 101349, Note_on_c, 0, 85, 46
2, 101350, Note_on_c, 0, 58, 35
2, 101375, Note_off_c, 0, 58, 64
2, 101376, Note_off_c, 0, 85, 64
2, 101402, Note_on_c, 0, 54, 34
2, 101426, Note_off_c, 0, 54, 64
2, 101452, Note_on_c, 0, 78, 41
2, 101452, Note_on_c, 0, 49, 40
2, 101478, Note_off_c, 0, 49, 64
2, 101503, Note_off_c, 0, 78, 64
2, 101505, Note_on_c, 0, 82, 44
2, 101505, Note_on_c, 0, 42, 52
2, 101529, Note_off_c, 0, 42, 64
2, 101529, Note_off_c, 0, 82, 64
2, 101556, Note_on_c, 0, 49, 47
2, 101580, Note_off_c, 0, 49, 64
2, 101606, Note_on_c, 0, 73, 46
2, 101606, Note_on_c, 0, 54, 38
2, 101632, Note_off_c, 0, 54, 64
2, 101659, Note_off_c, 0, 73, 64
2, 101659, Note_on_c, 0, 78, 50
2, 101659, Note_on_c, 0, 58, 49
2, 101683, Note_off_c, 0, 58, 64
2, 101683, Note_off_c, 0, 78, 64
2, 101709, Note_on_c, 0, 54, 31
2, 101736, Note_off_c, 0, 54, 64
2, 101762, Note_on_c, 0, 70, 44
2, 101762, Note_on_c, 0, 49, 37
2, 101786, Note_off_c, 0, 49, 64
2, 101812, Note_off_c, 0, 70, 64
2, 101813, Note_on_c, 0, 73, 50
2, 101813, Note_on_c, 0, 42, 40
2, 101839, Note_off_c, 0, 42, 64
2, 101839, Note_off_c, 0, 73, 64
2, 101865, Note_on_c, 0, 49, 39
2, 101890, Note_off_c, 0, 49, 64
2, 101916, Note_on_c, 0, 70, 37
2, 101916, Note_on_c, 0, 54, 32
2, 101942, Note_off_c, 0, 54, 64
2, 101966, Note_off_c, 0, 70, 64
2, 101968, Note_on_c, 0, 73, 41
2, 101969, Note_on_c, 0, 42, 36
2, 101993, Note_off_c, 0, 42, 64
2, 101993, Note_off_c, 0, 73, 64
2, 102019, Note_on_c, 0, 49, 34
2, 102043, Note_off_c, 0, 49, 64
2, 102070, Note_on_c, 0, 70, 42
2, 102070, Note_on_c, 0, 54, 35
2, 102096, Note_off_c, 0, 54, 64
2, 102122, Note_off_c, 0, 70, 64
2, 102122, Note_on_c, 0, 74, 44
2, 102123, Note_on_c, 0, 41, 44
2, 102146, Note_off_c, 0, 41, 64
2, 102147, Note_off_c, 0, 74, 64
2, 102173, Note_on_c, 0, 46, 38
2, 102199, Note_off_c, 0, 46, 64
2, 102226, Note_on_c, 0, 68, 38
2, 102226, Note_on_c, 0, 53, 41
2, 102250, Note_off_c, 0, 53, 64
2, 102276, Note_off_c, 0, 68, 64
2, 102276, Note_on_c, 0, 74, 42
2, 102277, Note_on_c, 0, 30, 44
2, 102302, Note_off_c, 0, 30, 64
2, 102303, Note_off_c, 0, 74, 64
2, 102329, Note_on_c, 0, 41, 31
2, 102353, Note_off_c, 0, 41, 64
2, 102379, Note_on_c, 0, 74, 42
2, 102380, Note_on_c, 0, 46, 36
2, 102404, Note_off_c, 0, 46, 64
2, 102430, Note_off_c, 0, 74, 64
2, 102430, Note_on_c, 0, 75, 46
2, 102431, Note_on_c, 0, 39, 56
2, 102456, Note_off_c, 0, 39, 64
2, 102456, Note_off_c, 0, 75, 64
2, 102483, Note_on_c, 0, 46, 35
2, 102507, Note_off_c, 0, 46, 64
2, 102533, Note_on_c, 0, 63, 32
2, 102534, Note_on_c, 0, 51, 32
2, 102560, Note_off_c, 0, 51, 64
2, 102584, Note_off_c, 0, 63, 64
2, 102586, Note_on_c, 0, 66, 38
2, 102586, Note_on_c, 0, 54, 35
2, 102610, Note_off_c, 0, 54, 64
2, 102611, Note_off_c, 0, 66, 64
2, 102636, Note_on_c, 0, 51, 34
2, 102663, Note_off_c, 0, 51, 64
2, 102689, Note_on_c, 0, 66, 31
2, 102690, Note_on_c, 0, 46, 45
2, 102714, Note_off_c, 0, 46, 64
2, 102740, Note_off_c, 0, 66, 64
2, 102740, Note_on_c, 0, 70, 39
2, 102741, Note_on_c, 0, 39, 39
2, 102764, Note_off_c, 0, 39, 64
2, 102765, Note_off_c, 0, 70, 64
2, 102791, Note_on_c, 0, 46, 35
2, 102817, Note_off_c, 0, 46, 64
2, 102843, Note_on_c, 0, 70, 31
2, 102843, Note_on_c, 0, 51, 32
2, 102867, Note_off_c, 0, 51, 64
2, 102894, Note_off_c, 0, 70, 64
2, 102894, Note_on_c, 0, 75, 40
2, 102894, Note_on_c, 0, 54, 35
2, 102920, Note_off_c, 0, 54, 64
2, 102920, Note_off_c, 0, 75, 64
2, 102947, Note_on_c, 0, 51, 34
2, 102971, Note_off_c, 0, 51, 64
2, 102997, Note_on_c, 0, 75, 31
2, 102997, Note_on_c, 0, 46, 41
2, 103023, Note_off_c, 0, 46, 64
2, 103048, Note_off_c, 0, 75, 64
2, 103050, Note_on_c, 0, 78, 43
2, 103050, Note_on_c, 0, 39, 38
2, 103074, Note_off_c, 0, 39, 64
2, 103074, Note_off_c, 0, 78, 64
2, 103100, Note_on_c, 0, 46, 35
2, 103127, Note_off_c, 0, 46, 64
2, 103153, Note_on_c, 0, 78, 32
2, 103153, Note_on_c, 0, 51, 32
2, 103177, Note_off_c, 0, 51, 64
2, 103203, Note_off_c, 0, 78, 64
2, 103204, Note_on_c, 0, 82, 49
2, 103204, Note_on_c, 0, 54, 35
2, 103228, Note_off_c, 0, 54, 64
2, 103228, Note_off_c, 0, 82, 64
2, 103254, Note_on_c, 0, 51, 34
2, 103281, Note_off_c, 0, 51, 64
2, 103307, Note_on_c, 0, 75, 35
2, 103307, Note_on_c, 0, 46, 40
2, 103331, Note_off_c, 0, 46, 64
2, 103357, Note_off_c, 0, 75, 64
2, 103357, Note_on_c, 0, 78, 41
2, 103358, Note_on_c, 0, 39, 38
2, 103384, Note_off_c, 0, 39, 64
2, 103384, Note_off_c, 0, 78, 64
2, 103410, Note_on_c, 0, 46, 35
2, 103434, Note_off_c, 0, 46, 64
2, 103461, Note_on_c, 0, 70, 31
2, 103461, Note_on_c, 0, 51, 32
2, 103487, Note_off_c, 0, 51, 64
2, 103512, Note_off_c, 0, 70, 64
2, 103513, Note_on_c, 0, 75, 34
2, 103514, Note_on_c, 0, 54, 35
2, 103538, Note_off_c, 0, 54, 64
2, 103538, Note_off_c, 0, 75, 64
2, 103564, Note_on_c, 0, 51, 34
2, 103588, Note_off_c, 0, 51, 64
2, 103615, Note_on_c, 0, 66, 34
2, 103615, Note_on_c, 0, 46, 40
2, 103641, Note_off_c, 0, 46, 64
2, 103667, Note_off_c, 0, 66, 64
2, 103668, Note_on_c, 0, 39, 44
2, 103668, Note_on_c, 0, 70, 39
2, 103692, Note_off_c, 0, 70, 64
2, 103692, Note_off_c, 0, 39, 64
2, 103718, Note_on_c, 0, 46, 35
2, 103744, Note_off_c, 0, 46, 64
2, 103771, Note_on_c, 0, 63, 34
2, 103771, Note_on_c, 0, 51, 32
2, 103795, Note_off_c, 0, 51, 64
2, 103821, Note_off_c, 0, 63, 64
2, 103821, Note_on_c, 0, 66, 31
2, 103822, Note_on_c, 0, 54, 35
2, 103848, Note_off_c, 0, 54, 64
2, 103848, Note_off_c, 0, 66, 64
2, 103874, Note_on_c, 0, 51, 34
2, 103898, Note_off_c, 0, 51, 64
2, 103924, Note_on_c, 0, 65, 33
2, 103925, Note_on_c, 0, 46, 40
2, 103949, Note_off_c, 0, 46, 64
2, 103975, Note_off_c, 0, 65, 64
2, 103975, Note_on_c, 0, 68, 38
2, 103976, Note_on_c, 0, 34, 54
2, 104002, Note_off_c, 0, 34, 64
2, 104002, Note_off_c, 0, 68, 64
2, 104028, Note_on_c, 0, 46, 35
2, 104052, Note_off_c, 0, 46, 64
2, 104078, Note_on_c, 0, 62, 35
2, 104079, Note_on_c, 0, 50, 32
2, 104105, Note_off_c, 0, 50, 64
2, 104131, Note_off_c, 0, 62, 64
2, 104131, Note_on_c, 0, 65, 32
2, 104132, Note_on_c, 0, 53, 35
2, 104155, Note_off_c, 0, 53, 64
2, 104156, Note_off_c, 0, 65, 64
2, 104182, Note_on_c, 0, 50, 34
2, 104208, Note_off_c, 0, 50, 64
2, 104234, Note_on_c, 0, 62, 39
2, 104234, Note_on_c, 0, 46, 40
2, 104258, Note_off_c, 0, 46, 64
2, 104285, Note_off_c, 0, 62, 64
2, 104285, Note_on_c, 0, 63, 38
2, 104286, Note_on_c, 0, 39, 54
2, 104311, Note_off_c, 0, 39, 64
2, 104312, Note_off_c, 0, 63, 64
2, 104338, Note_on_c, 0, 46, 35
2, 104362, Note_off_c, 0, 46, 64
2, 104388, Note_on_c, 0, 63, 32
2, 104388, Note_on_c, 0, 51, 32
2, 104412, Note_off_c, 0, 51, 64
2, 104439, Note_off_c, 0, 63, 64
2, 104439, Note_on_c, 0, 66, 37
2, 104439, Note_on_c, 0, 54, 35
2, 104465, Note_off_c, 0, 54, 64
2, 104465, Note_off_c, 0, 66, 64
2, 104492, Note_on_c, 0, 51, 34
2, 104516, Note_off_c, 0, 51, 64
2, 104542, Note_on_c, 0, 66, 35
2, 104543, Note_on_c, 0, 46, 40
2, 104568, Note_off_c, 0, 46, 64
2, 104593, Note_off_c, 0, 66, 64
2, 104595, Note_on_c, 0, 70, 37
2, 104595, Note_on_c, 0, 39, 44
2, 104619, Note_off_c, 0, 39, 64
2, 104619, Note_off_c, 0, 70, 64
2, 104645, Note_on_c, 0, 46, 35
2, 104672, Note_off_c, 0, 46, 64
2, 104698, Note_on_c, 0, 70, 27
2, 104698, Note_on_c, 0, 51, 32
2, 104722, Note_off_c, 0, 51, 64
2, 104748, Note_off_c, 0, 70, 64
2, 104749, Note_on_c, 0, 75, 40
2, 104749, Note_on_c, 0, 54, 35
2, 104773, Note_off_c, 0, 54, 64
2, 104773, Note_off_c, 0, 75, 64
2, 104799, Note_on_c, 0, 51, 34
2, 104825, Note_off_c, 0, 51, 64
2, 104852, Note_on_c, 0, 75, 30
2, 104852, Note_on_c, 0, 46, 40
2, 104876, Note_off_c, 0, 46, 64
2, 104903, Note_off_c, 0, 75, 64
2, 104903, Note_on_c, 0, 78, 38
2, 104903, Note_on_c, 0, 39, 41
2, 104929, Note_off_c, 0, 39, 64
2, 104929, Note_off_c, 0, 78, 64
2, 104955, Note_on_c, 0, 46, 35
2, 104979, Note_off_c, 0, 46, 64
2, 105006, Note_on_c, 0, 78, 35
2, 105006, Note_on_c, 0, 51, 32
2, 105032, Note_off_c, 0, 51, 64
2, 105056, Note_off_c, 0, 78, 64
2, 105059, Note_on_c, 0, 82, 39
2, 105059, Note_on_c, 0, 54, 35
2, 105083, Note_off_c, 0, 54, 64
2, 105083, Note_off_c, 0, 82, 64
2, 105109, Note_on_c, 0, 51, 34
2, 105133, Note_off_c, 0, 51, 64
2, 105160, Note_on_c, 0, 75, 31
2, 105160, Note_on_c, 0, 46, 40
2, 105186, Note_off_c, 0, 46, 64
2, 105212, Note_off_c, 0, 75, 64
2, 105212, Note_on_c, 0, 78, 37
2, 105213, Note_on_c, 0, 39, 41
2, 105237, Note_off_c, 0, 39, 64
2, 105237, Note_off_c, 0, 78, 64
2, 105263, Note_on_c, 0, 46, 35
2, 105289, Note_off_c, 0, 46, 64
2, 105315, Note_on_c, 0, 70, 30
2, 105316, Note_on_c, 0, 51, 32
2, 105340, Note_off_c, 0, 51, 64
2, 105366, Note_off_c, 0, 70, 64
2, 105366, Note_on_c, 0, 75, 40
2, 105367, Note_on_c, 0, 54, 35
2, 105393, Note_off_c, 0, 54, 64
2, 105393, Note_off_c, 0, 75, 64
2, 105419, Note_on_c, 0, 51, 34
2, 105443, Note_off_c, 0, 51, 64
2, 105469, Note_on_c, 0, 66, 29
2, 105470, Note_on_c, 0, 46, 40
2, 105496, Note_off_c, 0, 46, 64
2, 105520, Note_off_c, 0, 66, 64
2, 105522, Note_on_c, 0, 70, 32
2, 105522, Note_on_c, 0, 39, 40
2, 105546, Note_off_c, 0, 39, 64
2, 105547, Note_off_c, 0, 70, 64
2, 105573, Note_on_c, 0, 46, 35
2, 105597, Note_off_c, 0, 46, 64
2, 105624, Note_on_c, 0, 63, 32
2, 105624, Note_on_c, 0, 51, 32
2, 105649, Note_off_c, 0, 51, 64
2, 105676, Note_off_c, 0, 63, 64
2, 105676, Note_on_c, 0, 66, 36
2, 105677, Note_on_c, 0, 54, 35
2, 105700, Note_off_c, 0, 54, 64
2, 105701, Note_off_c, 0, 66, 64
2, 105727, Note_on_c, 0, 51, 34
2, 105753, Note_off_c, 0, 51, 64
2, 105779, Note_on_c, 0, 58, 29
2, 105780, Note_on_c, 0, 46, 40
2, 105804, Note_off_c, 0, 46, 64
2, 105830, Note_off_c, 0, 58, 64
2, 105830, Note_on_c, 0, 63, 35
2, 105830, Note_on_c, 0, 51, 44
2, 105856, Note_off_c, 0, 51, 64
2, 105856, Note_off_c, 0, 63, 64
2, 105883, Note_on_c, 0, 46, 35
2, 105907, Note_off_c, 0, 46, 64
2, 105933, Note_on_c, 0, 57, 32
2, 105934, Note_on_c, 0, 42, 32
2, 105958, Note_off_c, 0, 42, 64
2, 105984, Note_off_c, 0, 57, 64
2, 105984, Note_on_c, 0, 60, 39
2, 105984, Note_on_c, 0, 46, 35
2, 106010, Note_off_c, 0, 46, 64
2, 106010, Note_off_c, 0, 60, 64
2, 106036, Note_on_c, 0, 42, 34
2, 106061, Note_off_c, 0, 42, 64
2, 106087, Note_on_c, 0, 57, 23
2, 106088, Note_on_c, 0, 39, 40
2, 106113, Note_off_c, 0, 39, 64
2, 106114, Note_off_c, 0, 57, 64
2, 106140, Note_on_c, 0, 58, 55
2, 106164, Note_off_c, 0, 58, 64
2, 106190, Note_on_c, 0, 62, 41
2, 106217, Note_off_c, 0, 62, 64
2, 106243, Note_on_c, 0, 65, 43
2, 106267, Note_off_c, 0, 65, 64
2, 106294, Note_on_c, 0, 61, 45
2, 106320, Note_off_c, 0, 61, 64
2, 106346, Note_on_c, 0, 62, 41
2, 106370, Note_off_c, 0, 62, 64
2, 106397, Note_on_c, 0, 65, 34
2, 106421, Note_off_c, 0, 65, 64
2, 106448, Note_on_c, 0, 46, 45
2, 106474, Note_off_c, 0, 46, 64
2, 106500, Note_on_c, 0, 50, 41
2, 106524, Note_off_c, 0, 50, 64
2, 106551, Note_on_c, 0, 53, 43
2, 106577, Note_off_c, 0, 53, 64
2, 106604, Note_on_c, 0, 49, 45
2, 106628, Note_off_c, 0, 49, 64
2, 106655, Note_on_c, 0, 50, 41
2, 106680, Note_off_c, 0, 50, 64
2, 106707, Note_on_c, 0, 53, 34
2, 106731, Note_off_c, 0, 53, 64
2, 106757, Note_on_c, 0, 58, 45
2, 106782, Note_off_c, 0, 58, 64
2, 106808, Note_on_c, 0, 62, 41
2, 106834, Note_off_c, 0, 62, 64
2, 106860, Note_on_c, 0, 65, 43
2, 106885, Note_off_c, 0, 65, 64
2, 106911, Note_on_c, 0, 61, 45
2, 106937, Note_off_c, 0, 61, 64
2, 106964, Note_on_c, 0, 62, 41
2, 106988, Note_off_c, 0, 62, 64
2, 107015, Note_on_c, 0, 65, 34
2, 107040, Note_off_c, 0, 65, 64
2, 107067, Note_on_c, 0, 46, 45
2, 107091, Note_off_c, 0, 46, 64
2, 107118, Note_on_c, 0, 50, 41
2, 107142, Note_off_c, 0, 50, 64
2, 107169, Note_on_c, 0, 53, 43
2, 107195, Note_off_c, 0, 53, 64
2, 107221, Note_on_c, 0, 49, 45
2, 107245, Note_off_c, 0, 49, 64
2, 107272, Note_on_c, 0, 50, 41
2, 107298, Note_off_c, 0, 50, 64
2, 107324, Note_on_c, 0, 53, 34
2, 107349, Note_off_c, 0, 53, 64
2, 107375, Note_on_c, 0, 58, 45
2, 107401, Note_off_c, 0, 58, 64
2, 107428, Note_on_c, 0, 65, 41
2, 107452, Note_off_c, 0, 65, 64
2, 107478, Note_on_c, 0, 68, 43
2, 107505, Note_off_c, 0, 68, 64
2, 107531, Note_on_c, 0, 64, 45
2, 107555, Note_off_c, 0, 64, 64
2, 107581, Note_on_c, 0, 65, 41
2, 107606, Note_off_c, 0, 65, 64
2, 107632, Note_on_c, 0, 68, 34
2, 107658, Note_off_c, 0, 68, 64
2, 107685, Note_on_c, 0, 46, 45
2, 107709, Note_off_c, 0, 46, 64
2, 107736, Note_on_c, 0, 53, 41
2, 107761, Note_off_c, 0, 53, 64
2, 107788, Note_on_c, 0, 56, 43
2, 107812, Note_off_c, 0, 56, 64
2, 107839, Note_on_c, 0, 52, 45
2, 107865, Note_off_c, 0, 52, 64
2, 107892, Note_on_c, 0, 53, 41
2, 107916, Note_off_c, 0, 53, 64
2, 107942, Note_on_c, 0, 56, 34
2, 107966, Note_off_c, 0, 56, 64
2, 107993, Note_on_c, 0, 58, 45
2, 108019, Note_off_c, 0, 58, 64
2, 108045, Note_on_c, 0, 65, 41
2, 108070, Note_off_c, 0, 65, 64
2, 108096, Note_on_c, 0, 68, 43
2, 108122, Note_off_c, 0, 68, 64
2, 108148, Note_on_c, 0, 64, 45
2, 108173, Note_off_c, 0, 64, 64
2, 108199, Note_on_c, 0, 65, 41
2, 108225, Note_off_c, 0, 65, 64
2, 108252, Note_on_c, 0, 68, 34
2, 108276, Note_off_c, 0, 68, 64
2, 108302, Note_on_c, 0, 46, 45
2, 108327, Note_off_c, 0, 46, 64
2, 108353, Note_on_c, 0, 53, 41
2, 108379, Note_off_c, 0, 53, 64
2, 108406, Note_on_c, 0, 56, 43
2, 108430, Note_off_c, 0, 56, 64
2, 108456, Note_on_c, 0, 52, 45
2, 108482, Note_off_c, 0, 52, 64
2, 108509, Note_on_c, 0, 53, 41
2, 108533, Note_off_c, 0, 53, 64
2, 108560, Note_on_c, 0, 56, 34
2, 108586, Note_off_c, 0, 56, 64
2, 108612, Note_on_c, 0, 58, 45
2, 108636, Note_off_c, 0, 58, 64
2, 108663, Note_on_c, 0, 65, 41
2, 108689, Note_off_c, 0, 65, 64
2, 108715, Note_on_c, 0, 68, 43
2, 108740, Note_off_c, 0, 68, 64
2, 108766, Note_on_c, 0, 46, 45
2, 108791, Note_off_c, 0, 46, 64
2, 108817, Note_on_c, 0, 53, 41
2, 108843, Note_off_c, 0, 53, 64
2, 108869, Note_on_c, 0, 56, 43
2, 108894, Note_off_c, 0, 56, 64
2, 108920, Note_on_c, 0, 58, 47
2, 108946, Note_off_c, 0, 58, 64
2, 108972, Note_on_c, 0, 65, 44
2, 108997, Note_off_c, 0, 65, 64
2, 109023, Note_on_c, 0, 68, 46
2, 109049, Note_off_c, 0, 68, 64
2, 109076, Note_on_c, 0, 46, 47
2, 109100, Note_off_c, 0, 46, 64
2, 109127, Note_on_c, 0, 53, 44
2, 109151, Note_off_c, 0, 53, 64
2, 109177, Note_on_c, 0, 56, 46
2, 109203, Note_off_c, 0, 56, 64
2, 109230, Note_on_c, 0, 58, 50
2, 109254, Note_off_c, 0, 58, 64
2, 109281, Note_on_c, 0, 65, 47
2, 109307, Note_off_c, 0, 65, 64
2, 109333, Note_on_c, 0, 68, 49
2, 109357, Note_off_c, 0, 68, 64
2, 109384, Note_on_c, 0, 46, 50
2, 109410, Note_off_c, 0, 46, 64
2, 109436, Note_on_c, 0, 53, 47
2, 109461, Note_off_c, 0, 53, 64
2, 109487, Note_on_c, 0, 56, 49
2, 109512, Note_off_c, 0, 56, 64
2, 109538, Note_on_c, 0, 58, 53
2, 109564, Note_off_c, 0, 58, 64
2, 109590, Note_on_c, 0, 65, 49
2, 109615, Note_off_c, 0, 65, 64
2, 109641, Note_on_c, 0, 68, 51
2, 109667, Note_off_c, 0, 68, 64
2, 109693, Note_on_c, 0, 46, 53
2, 109718, Note_off_c, 0, 46, 64
2, 109744, Note_on_c, 0, 53, 49
2, 109771, Note_off_c, 0, 53, 64
2, 109797, Note_on_c, 0, 56, 51
2, 109821, Note_off_c, 0, 56, 64
2, 109848, Note_on_c, 0, 58, 45
2, 109873, Note_off_c, 0, 58, 64
2, 109900, Note_on_c, 0, 65, 40
2, 109924, Note_off_c, 0, 65, 64
2, 109951, Note_on_c, 0, 68, 41
2, 109975, Note_off_c, 0, 68, 64
2, 110002, Note_on_c, 0, 58, 42
2, 110028, Note_off_c, 0, 58, 64
2, 110054, Note_on_c, 0, 65, 37
2, 110078, Note_off_c, 0, 65, 64
2, 110105, Note_on_c, 0, 68, 38
2, 110131, Note_off_c, 0, 68, 64
2, 110157, Note_on_c, 0, 58, 39
2, 110182, Note_off_c, 0, 58, 64
2, 110208, Note_on_c, 0, 65, 35
2, 110234, Note_off_c, 0, 65, 64
2, 110261, Note_on_c, 0, 68, 35
2, 110285, Note_off_c, 0, 68, 64
2, 110311, Note_on_c, 0, 58, 35
2, 110336, Note_off_c, 0, 58, 64
2, 110362, Note_on_c, 0, 65, 32
2, 110388, Note_off_c, 0, 65, 64
2, 110414, Note_on_c, 0, 68, 32
2, 110439, Note_off_c, 0, 68, 64
2, 110465, Note_on_c, 0, 58, 26
2, 110491, Note_off_c, 0, 58, 64
2, 110518, Note_on_c, 0, 65, 24
2, 110542, Note_off_c, 0, 65, 64
2, 110568, Note_on_c, 0, 68, 25
2, 110594, Note_off_c, 0, 68, 64
2, 110621, Note_on_c, 0, 58, 26
2, 110645, Note_off_c, 0, 58, 64
2, 110672, Note_on_c, 0, 65, 24
2, 110696, Note_off_c, 0, 65, 64
2, 110724, Note_on_c, 0, 68, 25
2, 110748, Note_off_c, 0, 68, 64
2, 110775, Note_on_c, 0, 58, 26
2, 110799, Note_off_c, 0, 58, 64
2, 110825, Note_on_c, 0, 65, 24
2, 110852, Note_off_c, 0, 65, 64
2, 110878, Note_on_c, 0, 68, 25
2, 110903, Note_off_c, 0, 68, 64
2, 110929, Note_on_c, 0, 58, 26
2, 110955, Note_off_c, 0, 58, 64
2, 110981, Note_on_c, 0, 63, 24
2, 111006, Note_off_c, 0, 63, 64
2, 111032, Note_on_c, 0, 67, 25
2, 111058, Note_off_c, 0, 67, 64
2, 111084, Note_on_c, 0, 58, 26
2, 111109, Note_off_c, 0, 58, 64
2, 111135, Note_on_c, 0, 63, 24
2, 111159, Note_off_c, 0, 63, 64
2, 111186, Note_on_c, 0, 67, 25
2, 111212, Note_off_c, 0, 67, 64
2, 111239, Note_on_c, 0, 62, 26
2, 111263, Note_off_c, 0, 62, 64
2, 111289, Note_on_c, 0, 63, 24
2, 111315, Note_off_c, 0, 63, 64
2, 111342, Note_on_c, 0, 67, 25
2, 111366, Note_off_c, 0, 67, 64
2, 111392, Note_on_c, 0, 58, 26
2, 111419, Note_off_c, 0, 58, 64
2, 111445, Note_on_c, 0, 63, 24
2, 111469, Note_off_c, 0, 63, 64
2, 111496, Note_on_c, 0, 67, 25
2, 111520, Note_off_c, 0, 67, 64
2, 111546, Note_on_c, 0, 62, 26
2, 111573, Note_off_c, 0, 62, 64
2, 111599, Note_on_c, 0, 63, 24
2, 111623, Note_off_c, 0, 63, 64
2, 111650, Note_on_c, 0, 67, 25
2, 111650, Note_on_c, 0, 70, 31
2, 111676, Note_off_c, 0, 67, 64
2, 111700, Note_off_c, 0, 70, 64
2, 111702, Note_on_c, 0, 58, 26
2, 111703, Note_on_c, 0, 70, 40
2, 111727, Note_off_c, 0, 58, 64
2, 111753, Note_on_c, 0, 65, 24
2, 111779, Note_off_c, 0, 65, 64
2, 111804, Note_off_c, 0, 70, 64
2, 111805, Note_on_c, 0, 68, 25
2, 111806, Note_on_c, 0, 68, 34
2, 111830, Note_off_c, 0, 68, 64
2, 111856, Note_off_c, 0, 68, 64
2, 111856, Note_on_c, 0, 64, 26
2, 111857, Note_on_c, 0, 65, 35
2, 111882, Note_off_c, 0, 64, 64
2, 111909, Note_on_c, 0, 65, 24
2, 111933, Note_off_c, 0, 65, 64
2, 111959, Note_off_c, 0, 65, 64
2, 111960, Note_on_c, 0, 68, 25
2, 111960, Note_on_c, 0, 62, 34
2, 111984, Note_off_c, 0, 68, 64
2, 112010, Note_off_c, 0, 62, 64
2, 112010, Note_on_c, 0, 58, 26
2, 112011, Note_on_c, 0, 63, 31
2, 112036, Note_off_c, 0, 58, 64
2, 112063, Note_on_c, 0, 63, 24
2, 112087, Note_off_c, 0, 63, 64
2, 112113, Note_off_c, 0, 63, 64
2, 112114, Note_on_c, 0, 67, 25
2, 112140, Note_off_c, 0, 67, 64
2, 112166, Note_on_c, 0, 62, 26
2, 112190, Note_off_c, 0, 62, 64
2, 112217, Note_on_c, 0, 63, 24
2, 112243, Note_off_c, 0, 63, 64
2, 112269, Note_on_c, 0, 67, 25
2, 112270, Note_on_c, 0, 46, 31
2, 112294, Note_off_c, 0, 67, 64
2, 112320, Note_off_c, 0, 46, 64
2, 112320, Note_on_c, 0, 62, 26
2, 112320, Note_on_c, 0, 46, 40
2, 112344, Note_off_c, 0, 62, 64
2, 112370, Note_on_c, 0, 65, 24
2, 112397, Note_off_c, 0, 65, 64
2, 112423, Note_off_c, 0, 46, 64
2, 112423, Note_on_c, 0, 68, 25
2, 112424, Note_on_c, 0, 44, 34
2, 112447, Note_off_c, 0, 68, 64
2, 112474, Note_off_c, 0, 44, 64
2, 112474, Note_on_c, 0, 58, 26
2, 112474, Note_on_c, 0, 41, 35
2, 112500, Note_off_c, 0, 58, 64
2, 112526, Note_on_c, 0, 65, 24
2, 112550, Note_off_c, 0, 65, 64
2, 112577, Note_off_c, 0, 41, 64
2, 112577, Note_on_c, 0, 68, 25
2, 112578, Note_on_c, 0, 38, 34
2, 112603, Note_off_c, 0, 68, 64
2, 112628, Note_off_c, 0, 38, 64
2, 112630, Note_on_c, 0, 58, 26
2, 112630, Note_on_c, 0, 39, 31
2, 112654, Note_off_c, 0, 58, 64
2, 112680, Note_on_c, 0, 63, 24
2, 112704, Note_off_c, 0, 63, 64
2, 112731, Note_off_c, 0, 39, 64
2, 112731, Note_on_c, 0, 67, 25
2, 112757, Note_off_c, 0, 67, 64
2, 112784, Note_on_c, 0, 62, 26
2, 112808, Note_off_c, 0, 62, 64
2, 112834, Note_on_c, 0, 63, 24
2, 112860, Note_off_c, 0, 63, 64
2, 112887, Note_on_c, 0, 67, 25
2, 112911, Note_off_c, 0, 67, 64
2, 112937, Note_on_c, 0, 58, 26
2, 112964, Note_off_c, 0, 58, 64
2, 112990, Note_on_c, 0, 63, 24
2, 113015, Note_off_c, 0, 63, 64
2, 113040, Note_on_c, 0, 67, 25
2, 113067, Note_off_c, 0, 67, 64
2, 113093, Note_on_c, 0, 62, 26
2, 113118, Note_off_c, 0, 62, 64
2, 113144, Note_on_c, 0, 63, 24
2, 113168, Note_off_c, 0, 63, 64
2, 113195, Note_on_c, 0, 67, 25
2, 113221, Note_off_c, 0, 67, 64
2, 113247, Note_on_c, 0, 58, 26
2, 113271, Note_off_c, 0, 58, 64
2, 113298, Note_on_c, 0, 63, 24
2, 113324, Note_off_c, 0, 63, 64
2, 113351, Note_on_c, 0, 67, 25
2, 113375, Note_off_c, 0, 67, 64
2, 113401, Note_on_c, 0, 62, 26
2, 113427, Note_off_c, 0, 62, 64
2, 113454, Note_on_c, 0, 63, 24
2, 113478, Note_off_c, 0, 63, 64
2, 113504, Note_on_c, 0, 67, 25
2, 113505, Note_on_c, 0, 70, 31
2, 113529, Note_off_c, 0, 67, 64
2, 113555, Note_off_c, 0, 70, 64
2, 113555, Note_on_c, 0, 58, 31
2, 113556, Note_on_c, 0, 70, 40
2, 113581, Note_off_c, 0, 58, 64
2, 113608, Note_on_c, 0, 65, 28
2, 113632, Note_off_c, 0, 65, 64
2, 113658, Note_off_c, 0, 70, 64
2, 113658, Note_on_c, 0, 68, 29
2, 113659, Note_on_c, 0, 68, 34
2, 113685, Note_off_c, 0, 68, 64
2, 113709, Note_off_c, 0, 68, 64
2, 113711, Note_on_c, 0, 64, 30
2, 113711, Note_on_c, 0, 65, 35
2, 113735, Note_off_c, 0, 64, 64
2, 113761, Note_on_c, 0, 65, 27
2, 113788, Note_off_c, 0, 65, 64
2, 113812, Note_off_c, 0, 65, 64
2, 113814, Note_on_c, 0, 68, 28
2, 113814, Note_on_c, 0, 62, 34
2, 113838, Note_off_c, 0, 68, 64
2, 113865, Note_off_c, 0, 62, 64
2, 113865, Note_on_c, 0, 58, 29
2, 113866, Note_on_c, 0, 63, 31
2, 113889, Note_off_c, 0, 58, 64
2, 113916, Note_on_c, 0, 63, 26
2, 113941, Note_off_c, 0, 63, 64
2, 113968, Note_off_c, 0, 63, 64
2, 113968, Note_on_c, 0, 67, 27
2, 113992, Note_off_c, 0, 67, 64
2, 114019, Note_on_c, 0, 62, 28
2, 114045, Note_off_c, 0, 62, 64
2, 114072, Note_on_c, 0, 63, 25
2, 114096, Note_off_c, 0, 63, 64
2, 114122, Note_on_c, 0, 67, 26
2, 114122, Note_on_c, 0, 46, 31
2, 114148, Note_off_c, 0, 67, 64
2, 114173, Note_off_c, 0, 46, 64
2, 114175, Note_on_c, 0, 46, 40
2, 114175, Note_on_c, 0, 62, 28
2, 114199, Note_off_c, 0, 62, 64
2, 114225, Note_on_c, 0, 65, 25
2, 114252, Note_off_c, 0, 65, 64
2, 114276, Note_off_c, 0, 46, 64
2, 114278, Note_on_c, 0, 68, 26
2, 114278, Note_on_c, 0, 44, 34
2, 114302, Note_off_c, 0, 68, 64
2, 114328, Note_off_c, 0, 44, 64
2, 114329, Note_on_c, 0, 58, 26
2, 114329, Note_on_c, 0, 41, 35
2, 114353, Note_off_c, 0, 58, 64
2, 114379, Note_on_c, 0, 65, 24
2, 114406, Note_off_c, 0, 65, 64
2, 114432, Note_off_c, 0, 41, 64
2, 114432, Note_on_c, 0, 68, 25
2, 114432, Note_on_c, 0, 38, 34
2, 114456, Note_off_c, 0, 68, 64
2, 114482, Note_off_c, 0, 38, 64
2, 114482, Note_on_c, 0, 58, 26
2, 114483, Note_on_c, 0, 39, 31
2, 114509, Note_off_c, 0, 58, 64
2, 114535, Note_on_c, 0, 63, 24
2, 114559, Note_off_c, 0, 63, 64
2, 114586, Note_off_c, 0, 39, 64
2, 114586, Note_on_c, 0, 67, 25
2, 114612, Note_off_c, 0, 67, 64
2, 114638, Note_on_c, 0, 63, 26
2, 114662, Note_off_c, 0, 63, 64
2, 114689, Note_on_c, 0, 67, 24
2, 114713, Note_off_c, 0, 67, 64
2, 114740, Note_on_c, 0, 70, 25
2, 114740, Note_on_c, 0, 72, 31
2, 114766, Note_off_c, 0, 70, 64
2, 114792, Note_off_c, 0, 72, 64
2, 114792, Note_on_c, 0, 64, 26
2, 114793, Note_on_c, 0, 72, 40
2, 114816, Note_off_c, 0, 64, 64
2, 114843, Note_on_c, 0, 67, 24
2, 114869, Note_off_c, 0, 67, 64
2, 114894, Note_off_c, 0, 72, 64
2, 114896, Note_on_c, 0, 70, 25
2, 114896, Note_on_c, 0, 70, 34
2, 114920, Note_off_c, 0, 70, 64
2, 114946, Note_off_c, 0, 70, 64
2, 114946, Note_on_c, 0, 60, 26
2, 114947, Note_on_c, 0, 67, 35
2, 114972, Note_off_c, 0, 60, 64
2, 114999, Note_on_c, 0, 67, 24
2, 115023, Note_off_c, 0, 67, 64
2, 115049, Note_off_c, 0, 67, 64
2, 115049, Note_on_c, 0, 70, 25
2, 115050, Note_on_c, 0, 64, 34
2, 115074, Note_off_c, 0, 70, 64
2, 115100, Note_off_c, 0, 64, 64
2, 115102, Note_on_c, 0, 60, 26
2, 115103, Note_on_c, 0, 65, 31
2, 115127, Note_off_c, 0, 60, 64
2, 115152, Note_on_c, 0, 65, 24
2, 115177, Note_off_c, 0, 65, 64
2, 115203, Note_off_c, 0, 65, 64
2, 115203, Note_on_c, 0, 68, 25
2, 115230, Note_off_c, 0, 68, 64
2, 115256, Note_on_c, 0, 64, 26
2, 115281, Note_off_c, 0, 64, 64
2, 115307, Note_on_c, 0, 65, 24
2, 115333, Note_off_c, 0, 65, 64
2, 115359, Note_on_c, 0, 68, 25
2, 115359, Note_on_c, 0, 48, 31
2, 115383, Note_off_c, 0, 68, 64
2, 115410, Note_off_c, 0, 48, 64
2, 115410, Note_on_c, 0, 64, 26
2, 115410, Note_on_c, 0, 48, 40
2, 115436, Note_off_c, 0, 64, 64
2, 115463, Note_on_c, 0, 67, 24
2, 115487, Note_off_c, 0, 67, 64
2, 115513, Note_off_c, 0, 48, 64
2, 115513, Note_on_c, 0, 70, 25
2, 115514, Note_on_c, 0, 46, 34
2, 115537, Note_off_c, 0, 70, 64
2, 115564, Note_off_c, 0, 46, 64
2, 115564, Note_on_c, 0, 60, 26
2, 115564, Note_on_c, 0, 43, 35
2, 115590, Note_off_c, 0, 60, 64
2, 115617, Note_on_c, 0, 67, 24
2, 115641, Note_off_c, 0, 67, 64
2, 115667, Note_off_c, 0, 43, 64
2, 115667, Note_on_c, 0, 70, 25
2, 115668, Note_on_c, 0, 40, 34
2, 115693, Note_off_c, 0, 70, 64
2, 115718, Note_off_c, 0, 40, 64
2, 115720, Note_on_c, 0, 60, 26
2, 115720, Note_on_c, 0, 41, 31
2, 115744, Note_off_c, 0, 60, 64
2, 115771, Note_on_c, 0, 65, 24
2, 115797, Note_off_c, 0, 65, 64
2, 115821, Note_off_c, 0, 41, 64
2, 115823, Note_on_c, 0, 68, 25
2, 115847, Note_off_c, 0, 68, 64
2, 115873, Note_on_c, 0, 67, 26
2, 115898, Note_off_c, 0, 67, 64
2, 115924, Note_on_c, 0, 68, 24
2, 115951, Note_off_c, 0, 68, 64
2, 115977, Note_on_c, 0, 72, 25
2, 115977, Note_on_c, 0, 87, 37
2, 116001, Note_off_c, 0, 72, 64
2, 116028, Note_off_c, 0, 87, 64
2, 116028, Note_on_c, 0, 67, 26
2, 116028, Note_on_c, 0, 87, 47
2, 116054, Note_off_c, 0, 67, 64
2, 116080, Note_on_c, 0, 70, 24
2, 116104, Note_off_c, 0, 70, 64
2, 116131, Note_off_c, 0, 87, 64
2, 116131, Note_on_c, 0, 73, 25
2, 116132, Note_on_c, 0, 85, 40
2, 116157, Note_off_c, 0, 73, 64
2, 116182, Note_off_c, 0, 85, 64
2, 116184, Note_on_c, 0, 63, 26
2, 116184, Note_on_c, 0, 82, 42
2, 116208, Note_off_c, 0, 63, 64
2, 116234, Note_on_c, 0, 70, 24
2, 116260, Note_off_c, 0, 70, 64
2, 116285, Note_off_c, 0, 82, 64
2, 116287, Note_on_c, 0, 73, 25
2, 116287, Note_on_c, 0, 79, 41
2, 116311, Note_off_c, 0, 73, 64
2, 116337, Note_off_c, 0, 79, 64
2, 116337, Note_on_c, 0, 63, 26
2, 116338, Note_on_c, 0, 80, 37
2, 116362, Note_off_c, 0, 63, 64
2, 116388, Note_on_c, 0, 68, 24
2, 116414, Note_off_c, 0, 68, 64
2, 116440, Note_off_c, 0, 80, 64
2, 116441, Note_on_c, 0, 72, 25
2, 116465, Note_off_c, 0, 72, 64
2, 116491, Note_on_c, 0, 67, 26
2, 116517, Note_off_c, 0, 67, 64
2, 116544, Note_on_c, 0, 68, 24
2, 116568, Note_off_c, 0, 68, 64
2, 116594, Note_on_c, 0, 72, 25
2, 116595, Note_on_c, 0, 51, 31
2, 116621, Note_off_c, 0, 72, 64
2, 116645, Note_off_c, 0, 51, 64
2, 116647, Note_on_c, 0, 67, 26
2, 116647, Note_on_c, 0, 51, 40
2, 116671, Note_off_c, 0, 67, 64
2, 116698, Note_on_c, 0, 70, 24
2, 116722, Note_off_c, 0, 70, 64
2, 116748, Note_off_c, 0, 51, 64
2, 116748, Note_on_c, 0, 73, 25
2, 116749, Note_on_c, 0, 49, 34
2, 116774, Note_off_c, 0, 73, 64
2, 116801, Note_off_c, 0, 49, 64
2, 116801, Note_on_c, 0, 63, 26
2, 116801, Note_on_c, 0, 46, 35
2, 116825, Note_off_c, 0, 63, 64
2, 116852, Note_on_c, 0, 70, 24
2, 116878, Note_off_c, 0, 70, 64
2, 116902, Note_off_c, 0, 46, 64
2, 116904, Note_on_c, 0, 73, 25
2, 116904, Note_on_c, 0, 43, 34
2, 116928, Note_off_c, 0, 73, 64
2, 116955, Note_off_c, 0, 43, 64
2, 116955, Note_on_c, 0, 63, 26
2, 116955, Note_on_c, 0, 44, 31
2, 116981, Note_off_c, 0, 63, 64
2, 117008, Note_on_c, 0, 68, 24
2, 117032, Note_off_c, 0, 68, 64
2, 117058, Note_off_c, 0, 44, 64
2, 117058, Note_on_c, 0, 72, 25
2, 117083, Note_off_c, 0, 72, 64
2, 117109, Note_on_c, 0, 67, 26
2, 117135, Note_off_c, 0, 67, 64
2, 117161, Note_on_c, 0, 68, 24
2, 117186, Note_off_c, 0, 68, 64
2, 117212, Note_on_c, 0, 72, 25
2, 117212, Note_on_c, 0, 87, 44
2, 117238, Note_off_c, 0, 72, 64
2, 117263, Note_off_c, 0, 87, 64
2, 117264, Note_on_c, 0, 67, 26
2, 117265, Note_on_c, 0, 87, 56
2, 117289, Note_off_c, 0, 67, 64
2, 117315, Note_on_c, 0, 70, 24
2, 117342, Note_off_c, 0, 70, 64
2, 117366, Note_off_c, 0, 87, 64
2, 117368, Note_on_c, 0, 73, 25
2, 117369, Note_on_c, 0, 85, 49
2, 117392, Note_off_c, 0, 73, 64
2, 117419, Note_off_c, 0, 85, 64
2, 117419, Note_on_c, 0, 63, 27
2, 117419, Note_on_c, 0, 82, 50
2, 117445, Note_off_c, 0, 63, 64
2, 117471, Note_on_c, 0, 70, 25
2, 117495, Note_off_c, 0, 70, 64
2, 117522, Note_off_c, 0, 82, 64
2, 117522, Note_on_c, 0, 73, 26
2, 117522, Note_on_c, 0, 79, 50
2, 117546, Note_off_c, 0, 73, 64
2, 117573, Note_off_c, 0, 79, 64
2, 117573, Note_on_c, 0, 67, 28
2, 117573, Note_on_c, 0, 63, 42
2, 117599, Note_off_c, 0, 67, 64
2, 117625, Note_on_c, 0, 70, 26
2, 117650, Note_off_c, 0, 70, 64
2, 117676, Note_off_c, 0, 63, 64
2, 117676, Note_on_c, 0, 73, 28
2, 117676, Note_on_c, 0, 61, 35
2, 117702, Note_off_c, 0, 73, 64
2, 117726, Note_off_c, 0, 61, 64
2, 117728, Note_on_c, 0, 63, 29
2, 117729, Note_on_c, 0, 58, 38
2, 117753, Note_off_c, 0, 63, 64
2, 117779, Note_on_c, 0, 70, 27
2, 117805, Note_off_c, 0, 70, 64
2, 117829, Note_off_c, 0, 58, 64
2, 117832, Note_on_c, 0, 73, 29
2, 117832, Note_on_c, 0, 55, 37
2, 117856, Note_off_c, 0, 73, 64
2, 117882, Note_off_c, 0, 55, 64
2, 117883, Note_on_c, 0, 67, 30
2, 117883, Note_on_c, 0, 63, 44
2, 117907, Note_off_c, 0, 67, 64
2, 117933, Note_on_c, 0, 70, 28
2, 117959, Note_off_c, 0, 70, 64
2, 117985, Note_off_c, 0, 63, 64
2, 117985, Note_on_c, 0, 73, 29
2, 117986, Note_on_c, 0, 61, 37
2, 118010, Note_off_c, 0, 73, 64
2, 118036, Note_off_c, 0, 61, 64
2, 118036, Note_on_c, 0, 63, 31
2, 118037, Note_on_c, 0, 58, 40
2, 118062, Note_off_c, 0, 63, 64
2, 118089, Note_on_c, 0, 70, 29
2, 118113, Note_off_c, 0, 70, 64
2, 118140, Note_off_c, 0, 58, 64
2, 118140, Note_on_c, 0, 73, 31
2, 118140, Note_on_c, 0, 55, 39
2, 118166, Note_off_c, 0, 73, 64
2, 118190, Note_off_c, 0, 55, 64
2, 118192, Note_on_c, 0, 67, 32
2, 118192, Note_on_c, 0, 63, 46
2, 118216, Note_off_c, 0, 67, 64
2, 118243, Note_on_c, 0, 70, 29
2, 118267, Note_off_c, 0, 70, 64
2, 118293, Note_off_c, 0, 63, 64
2, 118294, Note_on_c, 0, 73, 32
2, 118294, Note_on_c, 0, 61, 39
2, 118320, Note_off_c, 0, 73, 64
2, 118346, Note_off_c, 0, 61, 64
2, 118346, Note_on_c, 0, 63, 34
2, 118346, Note_on_c, 0, 58, 41
2, 118370, Note_off_c, 0, 63, 64
2, 118397, Note_on_c, 0, 70, 31
2, 118423, Note_off_c, 0, 70, 64
2, 118449, Note_off_c, 0, 58, 64
2, 118449, Note_on_c, 0, 73, 32
2, 118450, Note_on_c, 0, 55, 41
2, 118474, Note_off_c, 0, 73, 64
2, 118500, Note_off_c, 0, 55, 64
2, 118500, Note_on_c, 0, 63, 40
2, 118500, Note_on_c, 0, 56, 38
2, 118526, Note_off_c, 0, 56, 64
2, 118526, Note_off_c, 0, 63, 64
2, 118552, Note_on_c, 0, 68, 35
2, 118553, Note_on_c, 0, 51, 28
2, 118577, Note_off_c, 0, 51, 64
2, 118577, Note_off_c, 0, 68, 64
2, 118603, Note_on_c, 0, 72, 37
2, 118604, Note_on_c, 0, 48, 30
2, 118630, Note_off_c, 0, 48, 64
2, 118630, Note_off_c, 0, 72, 64
2, 118656, Note_on_c, 0, 67, 40
2, 118656, Note_on_c, 0, 51, 32
2, 118680, Note_off_c, 0, 51, 64
2, 118680, Note_off_c, 0, 67, 64
2, 118706, Note_on_c, 0, 68, 36
2, 118707, Note_on_c, 0, 48, 28
2, 118731, Note_off_c, 0, 48, 64
2, 118731, Note_off_c, 0, 68, 64
2, 118757, Note_on_c, 0, 72, 38
2, 118757, Note_on_c, 0, 44, 30
2, 118783, Note_off_c, 0, 44, 64
2, 118784, Note_off_c, 0, 72, 64
2, 118810, Note_on_c, 0, 63, 41
2, 118810, Note_on_c, 0, 56, 38
2, 118834, Note_off_c, 0, 56, 64
2, 118835, Note_off_c, 0, 63, 64
2, 118860, Note_on_c, 0, 68, 37
2, 118860, Note_on_c, 0, 51, 28
2, 118887, Note_off_c, 0, 51, 64
2, 118887, Note_off_c, 0, 68, 64
2, 118913, Note_on_c, 0, 72, 40
2, 118913, Note_on_c, 0, 48, 30
2, 118937, Note_off_c, 0, 48, 64
2, 118938, Note_off_c, 0, 72, 64
2, 118964, Note_on_c, 0, 67, 42
2, 118964, Note_on_c, 0, 51, 32
2, 118990, Note_off_c, 0, 51, 64
2, 118990, Note_off_c, 0, 67, 64
2, 119016, Note_on_c, 0, 48, 28
2, 119016, Note_on_c, 0, 68, 38
2, 119040, Note_off_c, 0, 48, 64
2, 119041, Note_off_c, 0, 68, 64
2, 119067, Note_on_c, 0, 72, 41
2, 119067, Note_on_c, 0, 44, 30
2, 119091, Note_off_c, 0, 44, 64
2, 119091, Note_off_c, 0, 72, 64
2, 119118, Note_on_c, 0, 63, 44
2, 119118, Note_on_c, 0, 56, 38
2, 119144, Note_off_c, 0, 56, 64
2, 119144, Note_off_c, 0, 63, 64
2, 119170, Note_on_c, 0, 68, 40
2, 119171, Note_on_c, 0, 51, 28
2, 119195, Note_off_c, 0, 51, 64
2, 119195, Note_off_c, 0, 68, 64
2, 119221, Note_on_c, 0, 72, 41
2, 119221, Note_on_c, 0, 48, 30
2, 119247, Note_off_c, 0, 48, 64
2, 119247, Note_off_c, 0, 72, 64
2, 119273, Note_on_c, 0, 67, 44
2, 119274, Note_on_c, 0, 51, 32
2, 119298, Note_off_c, 0, 51, 64
2, 119298, Note_off_c, 0, 67, 64
2, 119324, Note_on_c, 0, 68, 40
2, 119324, Note_on_c, 0, 48, 28
2, 119350, Note_off_c, 0, 48, 64
2, 119351, Note_off_c, 0, 68, 64
2, 119377, Note_on_c, 0, 72, 43
2, 119377, Note_on_c, 0, 44, 30
2, 119401, Note_off_c, 0, 44, 64
2, 119401, Note_off_c, 0, 72, 64
2, 119427, Note_on_c, 0, 63, 47
2, 119428, Note_on_c, 0, 56, 38
2, 119451, Note_off_c, 0, 56, 64
2, 119452, Note_off_c, 0, 63, 64
2, 119478, Note_on_c, 0, 68, 41
2, 119478, Note_on_c, 0, 51, 28
2, 119504, Note_off_c, 0, 51, 64
2, 119505, Note_off_c, 0, 68, 64
2, 119531, Note_on_c, 0, 72, 44
2, 119531, Note_on_c, 0, 48, 30
2, 119555, Note_off_c, 0, 48, 64
2, 119555, Note_off_c, 0, 72, 64
2, 119581, Note_on_c, 0, 67, 47
2, 119581, Note_on_c, 0, 51, 32
2, 119607, Note_off_c, 0, 51, 64
2, 119608, Note_off_c, 0, 67, 64
2, 119634, Note_on_c, 0, 68, 42
2, 119634, Note_on_c, 0, 48, 28
2, 119658, Note_off_c, 0, 48, 64
2, 119658, Note_off_c, 0, 68, 64
2, 119685, Note_on_c, 0, 72, 46
2, 119685, Note_on_c, 0, 44, 30
2, 119711, Note_off_c, 0, 44, 64
2, 119711, Note_off_c, 0, 72, 64
2, 119737, Note_on_c, 0, 45, 41
2, 119737, Note_on_c, 0, 63, 41
2, 119761, Note_on_c, 0, 66, 43
2, 119762, Note_on_c, 0, 48, 41
2, 119788, Note_on_c, 0, 51, 43
2, 119788, Note_on_c, 0, 69, 46
2, 119814, Note_on_c, 0, 54, 38
2, 119814, Note_on_c, 0, 72, 62
2, 119841, Note_on_c, 0, 57, 47
2, 119841, Note_on_c, 0, 75, 53
2, 121132, Note_off_c, 0, 75, 64
2, 121132, Note_off_c, 0, 57, 64
2, 121133, Note_off_c, 0, 69, 64
2, 121133, Note_off_c, 0, 51, 64
2, 121133, Note_off_c, 0, 72, 64
2, 121133, Note_off_c, 0, 54, 64
2, 121134, Note_off_c, 0, 45, 64
2, 121134, Note_off_c, 0, 66, 64
2, 121134, Note_off_c, 0, 48, 64
2, 121135, Note_off_c, 0, 63, 64
2, 121135, Note_on_c, 0, 46, 31
2, 121186, Note_off_c, 0, 46, 64
2, 121187, Note_on_c, 0, 46, 40
2, 121288, Note_off_c, 0, 46, 64
2, 121290, Note_on_c, 0, 44, 34
2, 121340, Note_off_c, 0, 44, 64
2, 121341, Note_on_c, 0, 41, 35
2, 121443, Note_off_c, 0, 41, 64
2, 121444, Note_on_c, 0, 82, 31
2, 121444, Note_on_c, 0, 38, 34
2, 121494, Note_off_c, 0, 38, 64
2, 121495, Note_off_c, 0, 82, 64
2, 121495, Note_on_c, 0, 82, 40
2, 121495, Note_on_c, 0, 39, 31
2, 121597, Note_off_c, 0, 39, 64
2, 121598, Note_off_c, 0, 82, 64
2, 121598, Note_on_c, 0, 80, 34
2, 121648, Note_off_c, 0, 80, 64
2, 121650, Note_on_c, 0, 77, 35
2, 121752, Note_off_c, 0, 77, 64
2, 121753, Note_on_c, 0, 74, 34
2, 121804, Note_off_c, 0, 74, 64
2, 121804, Note_on_c, 0, 70, 40
2, 121805, Note_on_c, 0, 46, 34
2, 121805, Note_on_c, 0, 53, 43
2, 121805, Note_on_c, 0, 56, 34
2, 121907, Note_off_c, 0, 70, 64
2, 121908, Note_on_c, 0, 68, 34
2, 121958, Note_off_c, 0, 68, 64
2, 121958, Note_on_c, 0, 65, 35
2, 122061, Note_off_c, 0, 65, 64
2, 122062, Note_on_c, 0, 62, 34
2, 122112, Note_off_c, 0, 62, 64
2, 122112, Note_off_c, 0, 53, 64
2, 122112, Note_off_c, 0, 46, 64
2, 122113, Note_off_c, 0, 56, 64
2, 122114, Note_on_c, 0, 63, 31
2, 122114, Note_on_c, 0, 55, 37
2, 122114, Note_on_c, 0, 51, 35
2, 122215, Note_off_c, 0, 51, 64
2, 122215, Note_off_c, 0, 55, 64
2, 122216, Note_off_c, 0, 63, 64
2, 122318, Note_on_c, 0, 56, 36
2, 122344, Note_off_c, 0, 56, 64
2, 122371, Note_on_c, 0, 60, 38
2, 122395, Note_off_c, 0, 60, 64
2, 122422, Note_on_c, 0, 51, 41
2, 122422, Note_on_c, 0, 44, 43
2, 122448, Note_off_c, 0, 44, 64
2, 122448, Note_off_c, 0, 51, 64
2, 122474, Note_on_c, 0, 56, 36
2, 122474, Note_on_c, 0, 39, 32
2, 122498, Note_off_c, 0, 39, 64
2, 122499, Note_off_c, 0, 56, 64
2, 122525, Note_on_c, 0, 60, 38
2, 122525, Note_on_c, 0, 36, 34
2, 122551, Note_off_c, 0, 36, 64
2, 122551, Note_off_c, 0, 60, 64
2, 122578, Note_on_c, 0, 55, 41
2, 122578, Note_on_c, 0, 39, 35
2, 122602, Note_off_c, 0, 39, 64
2, 122602, Note_off_c, 0, 55, 64
2, 122628, Note_on_c, 0, 56, 37
2, 122628, Note_on_c, 0, 36, 32
2, 122652, Note_off_c, 0, 36, 64
2, 122653, Note_off_c, 0, 56, 64
2, 122679, Note_on_c, 0, 60, 39
2, 122679, Note_on_c, 0, 32, 34
2, 122705, Note_off_c, 0, 32, 64
2, 122705, Note_off_c, 0, 60, 64
2, 122731, Note_on_c, 0, 51, 43
2, 122732, Note_on_c, 0, 44, 43
2, 122756, Note_off_c, 0, 44, 64
2, 122756, Note_off_c, 0, 51, 64
2, 122782, Note_on_c, 0, 56, 38
2, 122783, Note_on_c, 0, 39, 32
2, 122808, Note_off_c, 0, 39, 64
2, 122808, Note_off_c, 0, 56, 64
2, 122834, Note_on_c, 0, 60, 41
2, 122835, Note_on_c, 0, 36, 34
2, 122859, Note_off_c, 0, 36, 64
2, 122859, Note_off_c, 0, 60, 64
2, 122885, Note_on_c, 0, 55, 43
2, 122886, Note_on_c, 0, 39, 35
2, 122912, Note_off_c, 0, 39, 64
2, 122912, Note_off_c, 0, 55, 64
2, 122938, Note_on_c, 0, 56, 39
2, 122938, Note_on_c, 0, 36, 32
2, 122962, Note_off_c, 0, 36, 64
2, 122963, Note_off_c, 0, 56, 64
2, 122988, Note_on_c, 0, 60, 43
2, 122989, Note_on_c, 0, 32, 34
2, 123013, Note_off_c, 0, 32, 64
2, 123013, Note_off_c, 0, 60, 64
2, 123039, Note_on_c, 0, 51, 44
2, 123039, Note_on_c, 0, 44, 43
2, 123065, Note_off_c, 0, 44, 64
2, 123066, Note_off_c, 0, 51, 64
2, 123092, Note_on_c, 0, 56, 41
2, 123092, Note_on_c, 0, 39, 32
2, 123116, Note_off_c, 0, 39, 64
2, 123117, Note_off_c, 0, 56, 64
2, 123143, Note_on_c, 0, 60, 43
2, 123143, Note_on_c, 0, 36, 34
2, 123168, Note_off_c, 0, 36, 64
2, 123169, Note_off_c, 0, 60, 64
2, 123195, Note_on_c, 0, 55, 46
2, 123195, Note_on_c, 0, 39, 35
2, 123219, Note_off_c, 0, 39, 64
2, 123219, Note_off_c, 0, 55, 64
2, 123246, Note_on_c, 0, 56, 41
2, 123246, Note_on_c, 0, 36, 32
2, 123272, Note_off_c, 0, 36, 64
2, 123273, Note_off_c, 0, 56, 64
2, 123299, Note_on_c, 0, 60, 44
2, 123299, Note_on_c, 0, 32, 34
2, 123323, Note_off_c, 0, 32, 64
2, 123323, Note_off_c, 0, 60, 64
2, 123349, Note_on_c, 0, 51, 47
2, 123349, Note_on_c, 0, 44, 43
2, 123375, Note_off_c, 0, 44, 64
2, 123375, Note_off_c, 0, 51, 64
2, 123402, Note_on_c, 0, 56, 43
2, 123402, Note_on_c, 0, 39, 32
2, 123426, Note_off_c, 0, 39, 64
2, 123426, Note_off_c, 0, 56, 64
2, 123452, Note_on_c, 0, 60, 46
2, 123453, Note_on_c, 0, 36, 34
2, 123477, Note_off_c, 0, 36, 64
2, 123477, Note_off_c, 0, 60, 64
2, 123503, Note_on_c, 0, 55, 48
2, 123503, Note_on_c, 0, 39, 35
2, 123529, Note_off_c, 0, 39, 64
2, 123529, Note_off_c, 0, 55, 64
2, 123555, Note_on_c, 0, 56, 43
2, 123556, Note_on_c, 0, 36, 32
2, 123580, Note_off_c, 0, 36, 64
2, 123580, Note_off_c, 0, 56, 64
2, 123606, Note_on_c, 0, 60, 47
2, 123607, Note_on_c, 0, 32, 34
2, 123632, Note_off_c, 0, 32, 64
2, 123633, Note_off_c, 0, 60, 64
2, 123659, Note_on_c, 0, 33, 41
2, 123659, Note_on_c, 0, 51, 43
2, 123683, Note_on_c, 0, 54, 44
2, 123684, Note_on_c, 0, 36, 41
2, 123709, Note_on_c, 0, 39, 43
2, 123709, Note_on_c, 0, 57, 47
2, 123736, Note_on_c, 0, 42, 38
2, 123736, Note_on_c, 0, 60, 64
2, 123762, Note_on_c, 0, 45, 47
2, 123762, Note_on_c, 0, 63, 55
2, 125055, Note_off_c, 0, 45, 64
2, 125056, Note_off_c, 0, 60, 64
2, 125056, Note_off_c, 0, 42, 64
2, 125056, Note_off_c, 0, 63, 64
2, 125057, Note_off_c, 0, 36, 64
2, 125057, Note_off_c, 0, 57, 64
2, 125057, Note_off_c, 0, 39, 64
2, 125058, Note_off_c, 0, 51, 64
2, 125058, Note_off_c, 0, 33, 64
2, 125058, Note_off_c, 0, 54, 64
2, 125058, Note_on_c, 0, 82, 39
2, 125108, Note_off_c, 0, 82, 64
2, 125108, Note_on_c, 0, 82, 59
2, 125160, Note_off_c, 0, 82, 64
2, 125161, Note_on_c, 0, 80, 55
2, 125215, Note_off_c, 0, 80, 64
2, 125216, Note_on_c, 0, 79, 45
2, 125271, Note_off_c, 0, 79, 64
2, 125272, Note_on_c, 0, 80, 47
2, 125328, Note_off_c, 0, 80, 64
2, 125328, Note_on_c, 0, 77, 43
2, 125384, Note_off_c, 0, 77, 64
2, 125386, Note_on_c, 0, 74, 41
2, 125386, Note_on_c, 0, 46, 31
2, 125444, Note_off_c, 0, 46, 64
2, 125444, Note_off_c, 0, 74, 64
2, 125445, Note_on_c, 0, 75, 43
2, 125445, Note_on_c, 0, 46, 40
2, 125566, Note_off_c, 0, 46, 64
2, 125566, Note_off_c, 0, 75, 64
2, 125567, Note_on_c, 0, 44, 34
2, 125628, Note_off_c, 0, 44, 64
2, 125630, Note_on_c, 0, 41, 35
2, 125760, Note_off_c, 0, 41, 64
2, 125761, Note_on_c, 0, 70, 39
2, 125829, Note_off_c, 0, 70, 64
2, 125829, Note_on_c, 0, 70, 54
2, 125830, Note_on_c, 0, 56, 34
2, 125830, Note_on_c, 0, 53, 43
2, 125831, Note_on_c, 0, 46, 34
2, 125899, Note_off_c, 0, 70, 64
2, 125899, Note_on_c, 0, 68, 40
2, 125970, Note_off_c, 0, 68, 64
2, 125970, Note_on_c, 0, 67, 37
2, 126045, Note_off_c, 0, 67, 64
2, 126045, Note_on_c, 0, 68, 44
2, 126120, Note_off_c, 0, 68, 64
2, 126120, Note_on_c, 0, 65, 40
2, 126197, Note_off_c, 0, 65, 64
2, 126199, Note_on_c, 0, 62, 43
2, 126277, Note_off_c, 0, 46, 64
2, 126278, Note_off_c, 0, 62, 64
2, 126278, Note_off_c, 0, 53, 64
2, 126278, Note_off_c, 0, 56, 64
2, 126279, Note_on_c, 0, 63, 46
2, 126279, Note_on_c, 0, 55, 37
2, 126280, Note_on_c, 0, 51, 35
2, 126362, Note_off_c, 0, 63, 64
2, 126446, Note_off_c, 0, 51, 64
2, 126446, Note_off_c, 0, 55, 64
2, 126721, Note_on_c, 0, 70, 34
2, 126773, Note_off_c, 0, 70, 64
2, 126774, Note_on_c, 0, 70, 44
2, 126774, Note_on_c, 0, 58, 40
2, 126875, Note_off_c, 0, 58, 64
2, 126875, Note_off_c, 0, 70, 64
2, 126876, Note_on_c, 0, 68, 37
2, 126877, Note_on_c, 0, 56, 34
2, 126927, Note_off_c, 0, 56, 64
2, 126927, Note_off_c, 0, 68, 64
2, 126928, Note_on_c, 0, 65, 40
2, 126928, Note_on_c, 0, 53, 35
2, 127030, Note_off_c, 0, 53, 64
2, 127031, Note_off_c, 0, 65, 64
2, 127031, Note_on_c, 0, 62, 40
2, 127032, Note_on_c, 0, 50, 34
2, 127081, Note_off_c, 0, 50, 64
2, 127081, Note_off_c, 0, 62, 64
2, 127082, Note_on_c, 0, 71, 47
2, 127082, Note_on_c, 0, 59, 40
2, 127184, Note_off_c, 0, 59, 64
2, 127185, Note_off_c, 0, 71, 64
2, 127185, Note_on_c, 0, 68, 40
2, 127186, Note_on_c, 0, 56, 34
2, 127235, Note_off_c, 0, 56, 64
2, 127235, Note_off_c, 0, 68, 64
2, 127237, Note_on_c, 0, 65, 42
2, 127237, Note_on_c, 0, 53, 35
2, 127338, Note_off_c, 0, 53, 64
2, 127339, Note_off_c, 0, 65, 64
2, 127340, Note_on_c, 0, 62, 42
2, 127341, Note_on_c, 0, 50, 34
2, 127391, Note_off_c, 0, 50, 64
2, 127391, Note_off_c, 0, 62, 64
2, 127392, Note_on_c, 0, 72, 50
2, 127392, Note_on_c, 0, 60, 40
2, 127494, Note_off_c, 0, 60, 64
2, 127494, Note_off_c, 0, 72, 64
2, 127495, Note_on_c, 0, 68, 43
2, 127495, Note_on_c, 0, 56, 34
2, 127545, Note_off_c, 0, 56, 64
2, 127545, Note_off_c, 0, 68, 64
2, 127546, Note_on_c, 0, 65, 46
2, 127546, Note_on_c, 0, 53, 35
2, 127648, Note_off_c, 0, 53, 64
2, 127648, Note_off_c, 0, 65, 64
2, 127649, Note_on_c, 0, 50, 34
2, 127649, Note_on_c, 0, 62, 46
2, 127699, Note_off_c, 0, 62, 64
2, 127699, Note_off_c, 0, 50, 64
2, 127701, Note_on_c, 0, 71, 54
2, 127701, Note_on_c, 0, 59, 40
2, 127802, Note_off_c, 0, 59, 64
2, 127802, Note_off_c, 0, 71, 64
2, 127804, Note_on_c, 0, 68, 46
2, 127804, Note_on_c, 0, 56, 34
2, 127854, Note_off_c, 0, 56, 64
2, 127855, Note_off_c, 0, 68, 64
2, 127855, Note_on_c, 0, 65, 49
2, 127856, Note_on_c, 0, 53, 35
2, 127957, Note_off_c, 0, 53, 64
2, 127958, Note_off_c, 0, 65, 64
2, 127958, Note_on_c, 0, 62, 49
2, 127959, Note_on_c, 0, 50, 34
2, 128008, Note_off_c, 0, 50, 64
2, 128009, Note_off_c, 0, 62, 64
2, 128009, Note_on_c, 0, 70, 57
2, 128009, Note_on_c, 0, 58, 40
2, 128112, Note_off_c, 0, 58, 64
2, 128112, Note_off_c, 0, 70, 64
2, 128112, Note_on_c, 0, 68, 49
2, 128113, Note_on_c, 0, 56, 34
2, 128162, Note_off_c, 0, 56, 64
2, 128162, Note_off_c, 0, 68, 64
2, 128164, Note_on_c, 0, 65, 52
2, 128165, Note_on_c, 0, 53, 35
2, 128266, Note_off_c, 0, 53, 64
2, 128266, Note_off_c, 0, 65, 64
2, 128266, Note_on_c, 0, 62, 51
2, 128267, Note_on_c, 0, 50, 34
2, 128318, Note_off_c, 0, 50, 64
2, 128318, Note_off_c, 0, 62, 64
2, 128319, Note_on_c, 0, 63, 62
2, 128319, Note_on_c, 0, 51, 40
2, 128421, Note_off_c, 0, 51, 64
2, 128422, Note_off_c, 0, 63, 64
2, 128422, Note_on_c, 0, 58, 52
2, 128423, Note_on_c, 0, 46, 34
2, 128472, Note_off_c, 0, 46, 64
2, 128472, Note_off_c, 0, 58, 64
2, 128473, Note_on_c, 0, 55, 55
2, 128473, Note_on_c, 0, 43, 35
2, 128575, Note_off_c, 0, 43, 64
2, 128576, Note_off_c, 0, 55, 64
2, 128576, Note_on_c, 0, 51, 55
2, 128577, Note_on_c, 0, 39, 34
2, 128626, Note_off_c, 0, 39, 64
2, 128626, Note_off_c, 0, 51, 64
2, 128628, Note_on_c, 0, 46, 46
2, 128628, Note_on_c, 0, 58, 53
2, 128726, Note_off_c, 0, 58, 64
2, 128726, Note_off_c, 0, 46, 64
2, 128776, Note_on_c, 0, 58, 41
2, 128777, Note_on_c, 0, 62, 48
2, 128777, Note_on_c, 0, 53, 38
2, 128777, Note_on_c, 0, 56, 37
2, 128778, Note_on_c, 0, 34, 47
2, 128778, Note_on_c, 0, 46, 47
2, 128876, Note_off_c, 0, 46, 64
2, 128876, Note_off_c, 0, 34, 64
2, 128876, Note_off_c, 0, 56, 64
2, 128877, Note_off_c, 0, 53, 64
2, 128877, Note_off_c, 0, 62, 64
2, 128877, Note_off_c, 0, 58, 64
2, 128927, Note_on_c, 0, 63, 41
2, 128927, Note_on_c, 0, 58, 37
2, 128928, Note_on_c, 0, 55, 40
2, 128928, Note_on_c, 0, 51, 45
2, 128928, Note_on_c, 0, 39, 51
2, 129024, Note_off_c, 0, 39, 64
2, 129024, Note_off_c, 0, 51, 64
2, 129025, Note_off_c, 0, 55, 64
2, 129025, Note_off_c, 0, 58, 64
2, 129025, Note_off_c, 0, 63, 64
2, 129075, Note_on_c, 0, 74, 55
2, 129075, Note_on_c, 0, 70, 39
2, 129075, Note_on_c, 0, 65, 44
2, 129076, Note_on_c, 0, 68, 38
2, 129076, Note_on_c, 0, 46, 49
2, 129076, Note_on_c, 0, 58, 53
2, 129174, Note_off_c, 0, 58, 64
2, 129174, Note_off_c, 0, 46, 64
2, 129175, Note_off_c, 0, 68, 64
2, 129175, Note_off_c, 0, 65, 64
2, 129176, Note_off_c, 0, 70, 64
2, 129176, Note_off_c, 0, 74, 64
2, 129223, Note_on_c, 0, 75, 53
2, 129224, Note_on_c, 0, 70, 43
2, 129224, Note_on_c, 0, 67, 41
2, 129224, Note_on_c, 0, 51, 52
2, 129225, Note_on_c, 0, 63, 52
2, 129323, Note_off_c, 0, 63, 64
2, 129323, Note_off_c, 0, 51, 64
2, 129323, Note_off_c, 0, 67, 64
2, 129324, Note_off_c, 0, 70, 64
2, 129324, Note_off_c, 0, 75, 64
2, 129522, Note_on_c, 0, 86, 58
2, 129522, Note_on_c, 0, 74, 52
2, 129522, Note_on_c, 0, 77, 52
2, 129523, Note_on_c, 0, 58, 68
2, 129523, Note_on_c, 0, 46, 68
2, 129523, Note_on_c, 0, 80, 51
2, 129624, Note_off_c, 0, 46, 64
2, 129624, Note_off_c, 0, 58, 64
2, 129625, Note_off_c, 0, 80, 64
2, 129626, Note_off_c, 0, 77, 64
2, 129626, Note_off_c, 0, 74, 64
2, 129626, Note_off_c, 0, 86, 64
2, 129831, Note_on_c, 0, 87, 59
2, 129831, Note_on_c, 0, 75, 57
2, 129832, Note_on_c, 0, 79, 61
2, 129832, Note_on_c, 0, 39, 71
2, 129832, Note_on_c, 0, 51, 68
2, 129934, Note_off_c, 0, 51, 64
2, 129935, Note_off_c, 0, 39, 64
2, 129935, Note_off_c, 0, 79, 64
2, 129936, Note_off_c, 0, 75, 64
2, 129936, Note_off_c, 0, 87, 64
2, 129936, End_track
3, 0, Start_track
3, 0, Text_t, "Beethoven:  Presto from Sonata"
3, 0, End_track
4, 0, Start_track
4, 0, Text_t, "Performed and step-recorded by"
4, 0, End_track
5, 0, Start_track
5, 0, Text_t, """SlowEater"" (America Online)"
5, 0, End_track
6, 0, Start_track
6, 0, Text_t, "Performed on Technics PX66"
6, 0, End_track
7, 0, Start_track
7, 0, Text_t, "1991"
7, 0, End_track
0, 0, End_of_file