0, 0, Header, 1, 4, 120
1, 0, Start_track
1, 0, Title_t, "Sei minuetti"
1, 0, Title_t, "WoO 10"
1, 0, Copyright_t, "fiorellaearmando@tiscali.it"
1, 0, Text_t, "Ludwig van Beethoven\012"
1, 0, Text_t, "LUDWIG VAN BEETHOVEN\012"
1, 0, Text_t, "SEI MINUETTI WoO 10  (1795)\012"
1, 0, Text_t, "probabilmente per orchestra- rimane solo la parte per pianoforte.\012"
1, 0, Sequencer_specific, 03, 00, 00, 41
1, 0, Time_signature, 3, 2, 24, 8
1, 0, Key_signature, 0, "major"
1, 0, Tempo, 500000
1, 23400, Key_signature, 1, "major"
1, 25926, Tempo, 500000
1, 28770, Tempo, 500000
1, 29030, Tempo, 504202
1, 30476, Tempo, 504202
1, 31930, Tempo, 500000
1, 32256, Tempo, 491803
1, 32300, Tempo, 495868
1, 32340, Tempo, 500000
1, 32380, Tempo, 504202
1, 32420, Tempo, 508475
1, 33356, Tempo, 500000
1, 33503, Tempo, 504202
1, 33506, Tempo, 504202
1, 34560, Tempo, 500000
1, 36350, Tempo, 504202
1, 36996, Tempo, 500000
1, 37440, Tempo, 504202
1, 37896, Tempo, 508475
1, 38153, Tempo, 491803
1, 38326, Tempo, 495868
1, 38496, Tempo, 500000
1, 39223, Tempo, 500000
1, 39440, Tempo, 504202
1, 39653, Tempo, 508475
1, 40316, Tempo, 504202
1, 43210, Tempo, 576923
1, 43220, Tempo, 576923
1, 43240, Tempo, 576923
1, 43250, Tempo, 576923
1, 43270, Tempo, 576923
1, 43280, Tempo, 588235
1, 43290, Tempo, 600000
1, 43300, Tempo, 625000
1, 43310, Tempo, 625000
1, 43330, Tempo, 645161
1, 43340, Tempo, 645161
1, 43360, Tempo, 645161
1, 43370, Tempo, 674157
1, 43380, Tempo, 674157
1, 43390, Tempo, 674157
1, 43400, Tempo, 681818
1, 43410, Tempo, 697674
1, 43440, Tempo, 731707
1, 43450, Tempo, 731707
1, 43470, Tempo, 750000
1, 43480, Tempo, 750000
1, 43490, Tempo, 800000
1, 43510, Tempo, 800000
1, 43530, Tempo, 800000
1, 43540, Tempo, 833333
1, 43550, Tempo, 833333
1, 43570, Tempo, 833333
1, 43580, Tempo, 869565
1, 43590, Tempo, 869565
1, 43610, Tempo, 895522
1, 43620, Tempo, 937500
1, 43630, Tempo, 937500
1, 43640, Tempo, 937500
1, 43650, Tempo, 1000000
1, 43670, Tempo, 1000000
1, 43680, Tempo, 1000000
1, 43690, Tempo, 1090909
1, 43710, Tempo, 1090909
1, 43760, Tempo, 512821
1, 43900, Tempo, 512821
1, 44366, Tempo, 508475
1, 46090, Tempo, 576923
1, 46100, Tempo, 576923
1, 46110, Tempo, 576923
1, 46150, Tempo, 582524
1, 46170, Tempo, 588235
1, 46180, Tempo, 594059
1, 46200, Tempo, 600000
1, 46210, Tempo, 625000
1, 46230, Tempo, 625000
1, 46250, Tempo, 625000
1, 46270, Tempo, 645161
1, 46280, Tempo, 645161
1, 46290, Tempo, 645161
1, 46300, Tempo, 674157
1, 46310, Tempo, 674157
1, 46330, Tempo, 674157
1, 46340, Tempo, 674157
1, 46350, Tempo, 681818
1, 46360, Tempo, 689655
1, 46380, Tempo, 697674
1, 46390, Tempo, 705882
1, 46410, Tempo, 731707
1, 46420, Tempo, 731707
1, 46430, Tempo, 731707
1, 46450, Tempo, 750000
1, 46460, Tempo, 750000
1, 46470, Tempo, 789474
1, 46490, Tempo, 800000
1, 46500, Tempo, 800000
1, 46510, Tempo, 800000
1, 46520, Tempo, 833333
1, 46530, Tempo, 833333
1, 46540, Tempo, 833333
1, 46560, Tempo, 845070
1, 46570, Tempo, 869565
1, 46580, Tempo, 869565
1, 46590, Tempo, 895522
1, 46600, Tempo, 895522
1, 46610, Tempo, 937500
1, 46620, Tempo, 937500
1, 46630, Tempo, 937500
1, 46640, Tempo, 1000000
1, 46660, Tempo, 1000000
1, 46670, Tempo, 1000000
1, 46680, Tempo, 517241
1, 46903, Tempo, 512821
1, 47126, Tempo, 508475
1, 47350, Tempo, 504202
1, 48953, Tempo, 504202
1, 50616, Tempo, 500000
1, 50866, Tempo, 508475
1, 51023, Tempo, 512821
1, 51840, Tempo, 625000
1, 51846, Tempo, 517241
1, 51876, Tempo, 521739
1, 51906, Tempo, 526316
1, 51933, Tempo, 530973
1, 51963, Tempo, 535714
1, 51990, Tempo, 540541
1, 52020, Tempo, 545455
1, 52046, Tempo, 550459
1, 52076, Tempo, 555556
1, 52103, Tempo, 560748
1, 52133, Tempo, 566038
1, 52160, Tempo, 571429
1, 52190, Tempo, 576923
1, 52216, Tempo, 582524
1, 52246, Tempo, 588235
1, 52273, Tempo, 594059
1, 52303, Tempo, 600000
1, 52330, Tempo, 606061
1, 52360, Tempo, 612245
1, 52386, Tempo, 618557
1, 52416, Tempo, 625000
1, 52443, Tempo, 631579
1, 52473, Tempo, 638298
1, 52500, Tempo, 645161
1, 52510, Tempo, 504202
1, 52656, Tempo, 495868
1, 52780, Tempo, 500000
1, 52920, Key_signature, -3, "major"
1, 52920, Tempo, 500000
1, 76680, Key_signature, -2, "major"
1, 85080, Tempo, 500000
1, 85100, Tempo, 495868
1, 85113, Tempo, 500000
1, 85123, Tempo, 504202
1, 85136, Tempo, 508475
1, 85146, Tempo, 512821
1, 85160, Tempo, 517241
1, 85170, Tempo, 521739
1, 85183, Tempo, 526316
1, 85193, Tempo, 530973
1, 85206, Tempo, 535714
1, 85216, Tempo, 540541
1, 85230, Tempo, 545455
1, 85240, Tempo, 550459
1, 85253, Tempo, 555556
1, 85263, Tempo, 560748
1, 85276, Tempo, 566038
1, 85286, Tempo, 571429
1, 85296, Tempo, 576923
1, 85310, Tempo, 582524
1, 85320, Tempo, 588235
1, 85333, Tempo, 594059
1, 85343, Tempo, 600000
1, 85356, Tempo, 606061
1, 85366, Tempo, 612245
1, 85380, Tempo, 618557
1, 85390, Tempo, 625000
1, 85403, Tempo, 631579
1, 85413, Tempo, 638298
1, 85426, Tempo, 645161
1, 85436, Tempo, 652174
1, 85450, Tempo, 659341
1, 85460, Tempo, 666667
1, 85473, Tempo, 674157
1, 85483, Tempo, 681818
1, 85493, Tempo, 689655
1, 85496, Tempo, 512821
1, 85502, Tempo, 504202
1, 87610, Tempo, 508475
1, 88083, Tempo, 504202
1, 88090, Tempo, 508475
1, 88096, Tempo, 512821
1, 88103, Tempo, 517241
1, 88110, Tempo, 521739
1, 88116, Tempo, 526316
1, 88120, Tempo, 530973
1, 88126, Tempo, 535714
1, 88133, Tempo, 540541
1, 88140, Tempo, 545455
1, 88146, Tempo, 550459
1, 88150, Tempo, 555556
1, 88156, Tempo, 560748
1, 88163, Tempo, 566038
1, 88170, Tempo, 571429
1, 88176, Tempo, 576923
1, 88183, Tempo, 582524
1, 88186, Tempo, 588235
1, 88193, Tempo, 594059
1, 88200, Tempo, 600000
1, 88206, Tempo, 606061
1, 88213, Tempo, 612245
1, 88216, Tempo, 618557
1, 88223, Tempo, 625000
1, 88230, Tempo, 631579
1, 88236, Tempo, 638298
1, 88243, Tempo, 645161
1, 88250, Tempo, 652174
1, 88253, Tempo, 659341
1, 88260, Tempo, 666667
1, 88266, Tempo, 674157
1, 88273, Tempo, 681818
1, 88280, Tempo, 689655
1, 88283, Tempo, 697674
1, 88290, Tempo, 705882
1, 88296, Tempo, 714286
1, 88303, Tempo, 722892
1, 88310, Tempo, 731707
1, 88316, Tempo, 740741
1, 88320, Tempo, 750000
1, 88326, Tempo, 759494
1, 88333, Tempo, 769231
1, 88340, Tempo, 779221
1, 88346, Tempo, 789474
1, 88350, Tempo, 800000
1, 88356, Tempo, 810811
1, 88363, Tempo, 821918
1, 88370, Tempo, 833333
1, 88376, Tempo, 845070
1, 88380, Tempo, 857143
1, 88383, Tempo, 504202
1, 98280, Tempo, 500000
1, 98284, Tempo, 504202
1, 98394, Tempo, 504202
1, 98427, Tempo, 508475
1, 98457, Tempo, 512821
1, 98487, Tempo, 517241
1, 98517, Tempo, 521739
1, 98550, Tempo, 526316
1, 98580, Tempo, 530973
1, 98610, Tempo, 535714
1, 98640, Tempo, 540541
1, 98674, Tempo, 545455
1, 98704, Tempo, 550459
1, 98734, Tempo, 555556
1, 98764, Tempo, 560748
1, 98794, Tempo, 566038
1, 98827, Tempo, 571429
1, 98857, Tempo, 576923
1, 98887, Tempo, 582524
1, 98917, Tempo, 588235
1, 98950, Tempo, 594059
1, 98980, Tempo, 600000
1, 99010, Tempo, 606061
1, 99040, Tempo, 612245
1, 99074, Tempo, 618557
1, 99104, Tempo, 625000
1, 99134, Tempo, 631579
1, 99164, Tempo, 638298
1, 99194, Tempo, 645161
1, 99227, Tempo, 652174
1, 99257, Tempo, 659341
1, 99287, Tempo, 666667
1, 99317, Tempo, 674157
1, 99350, Tempo, 681818
1, 99380, Tempo, 689655
1, 99410, Tempo, 697674
1, 99440, Tempo, 705882
1, 99474, Tempo, 714286
1, 99504, Tempo, 722892
1, 99534, Tempo, 731707
1, 99564, Tempo, 740741
1, 99594, Tempo, 750000
1, 99960, Tempo, 495868
1, 100440, Key_signature, 2, "major"
1, 124200, Key_signature, 0, "major"
1, 124200, Tempo, 425532
1, 146873, Tempo, 428571
1, 146886, Tempo, 431655
1, 146896, Tempo, 434783
1, 146910, Tempo, 437956
1, 146920, Tempo, 441176
1, 146933, Tempo, 444444
1, 146943, Tempo, 447761
1, 146956, Tempo, 451128
1, 146966, Tempo, 454545
1, 146980, Tempo, 458015
1, 146990, Tempo, 461538
1, 147003, Tempo, 465116
1, 147013, Tempo, 468750
1, 147026, Tempo, 472441
1, 147036, Tempo, 476190
1, 147050, Tempo, 480000
1, 147060, Tempo, 483871
1, 147073, Tempo, 487805
1, 147083, Tempo, 491803
1, 147096, Tempo, 495868
1, 147106, Tempo, 500000
1, 147120, Tempo, 504202
1, 147130, Tempo, 508475
1, 147143, Tempo, 512821
1, 147153, Tempo, 517241
1, 147166, Tempo, 521739
1, 147176, Tempo, 526316
1, 147190, Tempo, 530973
1, 147200, Tempo, 535714
1, 147213, Tempo, 540541
1, 147223, Tempo, 545455
1, 147233, Tempo, 550459
1, 147246, Tempo, 555556
1, 147256, Tempo, 560748
1, 147270, Tempo, 566038
1, 147280, Tempo, 571429
1, 147293, Tempo, 576923
1, 147303, Tempo, 582524
1, 147316, Tempo, 588235
1, 147326, Tempo, 594059
1, 147340, Tempo, 600000
1, 147350, Tempo, 606061
1, 147363, Tempo, 612245
1, 147373, Tempo, 618557
1, 147386, Tempo, 625000
1, 147396, Tempo, 631579
1, 147410, Tempo, 638298
1, 147420, Tempo, 645161
1, 147433, Tempo, 652174
1, 147443, Tempo, 659341
1, 147456, Tempo, 666667
1, 147466, Tempo, 674157
1, 147480, Tempo, 681818
1, 147490, Tempo, 689655
1, 147503, Tempo, 697674
1, 147513, Tempo, 705882
1, 147526, Tempo, 714286
1, 147536, Tempo, 722892
1, 147550, Tempo, 731707
1, 147560, Tempo, 740741
1, 147573, Tempo, 750000
1, 147583, Tempo, 759494
1, 147593, Tempo, 769231
1, 147596, Tempo, 769231
1, 147600, Tempo, 779221
1, 147600, End_track
2, 0, Start_track
2, 0, Title_t, "piano R"
2, 0, Program_c, 0, 0
2, 0, Control_c, 0, 7, 127
2, 0, Control_c, 0, 10, 39
2, 0, Control_c, 0, 0, 0
2, 0, Control_c, 0, 93, 54
2, 240, Note_on_c, 0, 60, 100
2, 270, Note_on_c, 0, 60, 0
2, 270, Note_on_c, 0, 59, 100
2, 300, Note_on_c, 0, 59, 0
2, 300, Note_on_c, 0, 60, 100
2, 330, Note_on_c, 0, 60, 0
2, 330, Note_on_c, 0, 59, 100
2, 360, Note_on_c, 0, 59, 0
2, 360, Note_on_c, 0, 60, 100
2, 480, Note_on_c, 0, 60, 0
2, 480, Note_on_c, 0, 60, 100
2, 600, Note_on_c, 0, 60, 0
2, 600, Note_on_c, 0, 76, 100
2, 600, Note_on_c, 0, 67, 100
2, 600, Note_on_c, 0, 64, 100
2, 720, Note_on_c, 0, 64, 0
2, 720, Note_on_c, 0, 67, 0
2, 720, Note_on_c, 0, 76, 0
2, 720, Note_on_c, 0, 64, 100
2, 720, Note_on_c, 0, 72, 100
2, 960, Note_on_c, 0, 72, 0
2, 960, Note_on_c, 0, 64, 0
2, 960, Note_on_c, 0, 60, 100
2, 990, Note_on_c, 0, 60, 0
2, 990, Note_on_c, 0, 59, 100
2, 1020, Note_on_c, 0, 59, 0
2, 1020, Note_on_c, 0, 60, 100
2, 1050, Note_on_c, 0, 60, 0
2, 1050, Note_on_c, 0, 59, 100
2, 1080, Note_on_c, 0, 59, 0
2, 1080, Note_on_c, 0, 60, 100
2, 1200, Note_on_c, 0, 60, 0
2, 1200, Note_on_c, 0, 60, 100
2, 1320, Note_on_c, 0, 60, 0
2, 1320, Note_on_c, 0, 79, 100
2, 1320, Note_on_c, 0, 67, 100
2, 1320, Note_on_c, 0, 76, 100
2, 1440, Note_on_c, 0, 76, 0
2, 1440, Note_on_c, 0, 67, 0
2, 1440, Note_on_c, 0, 79, 0
2, 1440, Note_on_c, 0, 76, 100
2, 1440, Note_on_c, 0, 64, 100
2, 1440, Note_on_c, 0, 72, 100
2, 1680, Note_on_c, 0, 72, 0
2, 1680, Note_on_c, 0, 64, 0
2, 1680, Note_on_c, 0, 76, 0
2, 1680, Note_on_c, 0, 67, 100
2, 1710, Note_on_c, 0, 67, 0
2, 1710, Note_on_c, 0, 66, 100
2, 1740, Note_on_c, 0, 66, 0
2, 1740, Note_on_c, 0, 67, 100
2, 1770, Note_on_c, 0, 67, 0
2, 1770, Note_on_c, 0, 66, 100
2, 1800, Note_on_c, 0, 66, 0
2, 1800, Note_on_c, 0, 67, 100
2, 1920, Note_on_c, 0, 67, 0
2, 1920, Note_on_c, 0, 72, 100
2, 2040, Note_on_c, 0, 72, 0
2, 2040, Note_on_c, 0, 76, 100
2, 2160, Note_on_c, 0, 76, 0
2, 2160, Note_on_c, 0, 79, 100
2, 2280, Note_on_c, 0, 79, 0
2, 2280, Note_on_c, 0, 71, 100
2, 2280, Note_on_c, 0, 74, 100
2, 2280, Note_on_c, 0, 83, 100
2, 2280, Note_on_c, 0, 79, 100
2, 2400, Note_on_c, 0, 79, 0
2, 2400, Note_on_c, 0, 71, 0
2, 2400, Note_on_c, 0, 74, 0
2, 2400, Note_on_c, 0, 83, 0
2, 2400, Note_on_c, 0, 84, 100
2, 2400, Note_on_c, 0, 79, 100
2, 2400, Note_on_c, 0, 72, 100
2, 2400, Note_on_c, 0, 76, 100
2, 2520, Note_on_c, 0, 76, 0
2, 2520, Note_on_c, 0, 84, 0
2, 2520, Note_on_c, 0, 79, 0
2, 2520, Note_on_c, 0, 72, 0
2, 2520, Note_on_c, 0, 74, 100
2, 2520, Note_on_c, 0, 77, 100
2, 2520, Note_on_c, 0, 79, 100
2, 2520, Note_on_c, 0, 86, 100
2, 2640, Note_on_c, 0, 86, 0
2, 2640, Note_on_c, 0, 74, 0
2, 2640, Note_on_c, 0, 77, 0
2, 2640, Note_on_c, 0, 79, 0
2, 2640, Note_on_c, 0, 74, 100
2, 2640, Note_on_c, 0, 77, 100
2, 2730, Note_on_c, 0, 77, 0
2, 2730, Note_on_c, 0, 74, 0
2, 2730, Note_on_c, 0, 79, 100
2, 2730, Note_on_c, 0, 76, 100
2, 2760, Note_on_c, 0, 76, 0
2, 2760, Note_on_c, 0, 79, 0
2, 2760, Note_on_c, 0, 72, 100
2, 2760, Note_on_c, 0, 76, 100
2, 2850, Note_on_c, 0, 76, 0
2, 2850, Note_on_c, 0, 72, 0
2, 2850, Note_on_c, 0, 77, 100
2, 2850, Note_on_c, 0, 74, 100
2, 2880, Note_on_c, 0, 74, 0
2, 2880, Note_on_c, 0, 77, 0
2, 2880, Note_on_c, 0, 74, 100
2, 2880, Note_on_c, 0, 71, 100
2, 3000, Note_on_c, 0, 71, 0
2, 3000, Note_on_c, 0, 74, 0
2, 3120, Note_on_c, 0, 60, 100
2, 3150, Note_on_c, 0, 60, 0
2, 3150, Note_on_c, 0, 59, 100
2, 3180, Note_on_c, 0, 59, 0
2, 3180, Note_on_c, 0, 60, 100
2, 3210, Note_on_c, 0, 60, 0
2, 3210, Note_on_c, 0, 59, 100
2, 3240, Note_on_c, 0, 59, 0
2, 3240, Note_on_c, 0, 60, 100
2, 3360, Note_on_c, 0, 60, 0
2, 3360, Note_on_c, 0, 60, 100
2, 3480, Note_on_c, 0, 60, 0
2, 3480, Note_on_c, 0, 76, 100
2, 3480, Note_on_c, 0, 67, 100
2, 3480, Note_on_c, 0, 64, 100
2, 3600, Note_on_c, 0, 64, 0
2, 3600, Note_on_c, 0, 67, 0
2, 3600, Note_on_c, 0, 76, 0
2, 3600, Note_on_c, 0, 72, 100
2, 3600, Note_on_c, 0, 64, 100
2, 3840, Note_on_c, 0, 64, 0
2, 3840, Note_on_c, 0, 72, 0
2, 3840, Note_on_c, 0, 60, 100
2, 3870, Note_on_c, 0, 60, 0
2, 3870, Note_on_c, 0, 59, 100
2, 3900, Note_on_c, 0, 59, 0
2, 3900, Note_on_c, 0, 60, 100
2, 3930, Note_on_c, 0, 60, 0
2, 3930, Note_on_c, 0, 59, 100
2, 3960, Note_on_c, 0, 59, 0
2, 3960, Note_on_c, 0, 60, 100
2, 4080, Note_on_c, 0, 60, 0
2, 4080, Note_on_c, 0, 60, 100
2, 4200, Note_on_c, 0, 60, 0
2, 4200, Note_on_c, 0, 79, 100
2, 4200, Note_on_c, 0, 67, 100
2, 4200, Note_on_c, 0, 76, 100
2, 4320, Note_on_c, 0, 76, 0
2, 4320, Note_on_c, 0, 67, 0
2, 4320, Note_on_c, 0, 79, 0
2, 4320, Note_on_c, 0, 76, 100
2, 4320, Note_on_c, 0, 64, 100
2, 4320, Note_on_c, 0, 72, 100
2, 4560, Note_on_c, 0, 72, 0
2, 4560, Note_on_c, 0, 64, 0
2, 4560, Note_on_c, 0, 76, 0
2, 4560, Note_on_c, 0, 67, 100
2, 4590, Note_on_c, 0, 67, 0
2, 4590, Note_on_c, 0, 66, 100
2, 4620, Note_on_c, 0, 66, 0
2, 4620, Note_on_c, 0, 67, 100
2, 4650, Note_on_c, 0, 67, 0
2, 4650, Note_on_c, 0, 66, 100
2, 4680, Note_on_c, 0, 66, 0
2, 4680, Note_on_c, 0, 67, 100
2, 4800, Note_on_c, 0, 67, 0
2, 4800, Note_on_c, 0, 72, 100
2, 4920, Note_on_c, 0, 72, 0
2, 4920, Note_on_c, 0, 76, 100
2, 5040, Note_on_c, 0, 76, 0
2, 5040, Note_on_c, 0, 79, 100
2, 5160, Note_on_c, 0, 79, 0
2, 5160, Note_on_c, 0, 71, 100
2, 5160, Note_on_c, 0, 74, 100
2, 5160, Note_on_c, 0, 83, 100
2, 5160, Note_on_c, 0, 79, 100
2, 5280, Note_on_c, 0, 79, 0
2, 5280, Note_on_c, 0, 71, 0
2, 5280, Note_on_c, 0, 74, 0
2, 5280, Note_on_c, 0, 83, 0
2, 5280, Note_on_c, 0, 76, 100
2, 5280, Note_on_c, 0, 84, 100
2, 5280, Note_on_c, 0, 79, 100
2, 5280, Note_on_c, 0, 72, 100
2, 5400, Note_on_c, 0, 72, 0
2, 5400, Note_on_c, 0, 76, 0
2, 5400, Note_on_c, 0, 84, 0
2, 5400, Note_on_c, 0, 79, 0
2, 5400, Note_on_c, 0, 74, 100
2, 5400, Note_on_c, 0, 77, 100
2, 5400, Note_on_c, 0, 79, 100
2, 5400, Note_on_c, 0, 86, 100
2, 5520, Note_on_c, 0, 86, 0
2, 5520, Note_on_c, 0, 74, 0
2, 5520, Note_on_c, 0, 77, 0
2, 5520, Note_on_c, 0, 79, 0
2, 5520, Note_on_c, 0, 77, 100
2, 5520, Note_on_c, 0, 74, 100
2, 5610, Note_on_c, 0, 74, 0
2, 5610, Note_on_c, 0, 77, 0
2, 5610, Note_on_c, 0, 76, 100
2, 5610, Note_on_c, 0, 79, 100
2, 5640, Note_on_c, 0, 79, 0
2, 5640, Note_on_c, 0, 76, 0
2, 5640, Note_on_c, 0, 76, 100
2, 5640, Note_on_c, 0, 72, 100
2, 5730, Note_on_c, 0, 72, 0
2, 5730, Note_on_c, 0, 76, 0
2, 5730, Note_on_c, 0, 77, 100
2, 5730, Note_on_c, 0, 74, 100
2, 5760, Note_on_c, 0, 74, 0
2, 5760, Note_on_c, 0, 77, 0
2, 5760, Note_on_c, 0, 74, 100
2, 5760, Note_on_c, 0, 71, 100
2, 5880, Note_on_c, 0, 71, 0
2, 5880, Note_on_c, 0, 74, 0
2, 6000, Note_on_c, 0, 79, 100
2, 6030, Note_on_c, 0, 79, 0
2, 6030, Note_on_c, 0, 78, 100
2, 6060, Note_on_c, 0, 78, 0
2, 6060, Note_on_c, 0, 79, 100
2, 6090, Note_on_c, 0, 79, 0
2, 6090, Note_on_c, 0, 78, 100
2, 6120, Note_on_c, 0, 78, 0
2, 6120, Note_on_c, 0, 71, 100
2, 6120, Note_on_c, 0, 74, 100
2, 6120, Note_on_c, 0, 79, 100
2, 6240, Note_on_c, 0, 79, 0
2, 6240, Note_on_c, 0, 74, 0
2, 6240, Note_on_c, 0, 71, 0
2, 6240, Note_on_c, 0, 74, 100
2, 6240, Note_on_c, 0, 71, 100
2, 6240, Note_on_c, 0, 79, 100
2, 6360, Note_on_c, 0, 79, 0
2, 6360, Note_on_c, 0, 71, 0
2, 6360, Note_on_c, 0, 74, 0
2, 6360, Note_on_c, 0, 71, 100
2, 6360, Note_on_c, 0, 74, 100
2, 6360, Note_on_c, 0, 79, 100
2, 6480, Note_on_c, 0, 79, 0
2, 6480, Note_on_c, 0, 74, 0
2, 6480, Note_on_c, 0, 71, 0
2, 6480, Note_on_c, 0, 71, 100
2, 6480, Note_on_c, 0, 74, 100
2, 6480, Note_on_c, 0, 79, 100
2, 6720, Note_on_c, 0, 79, 0
2, 6720, Note_on_c, 0, 74, 0
2, 6720, Note_on_c, 0, 71, 0
2, 6720, Note_on_c, 0, 79, 100
2, 6750, Note_on_c, 0, 79, 0
2, 6750, Note_on_c, 0, 80, 100
2, 6780, Note_on_c, 0, 80, 0
2, 6780, Note_on_c, 0, 79, 100
2, 6810, Note_on_c, 0, 79, 0
2, 6810, Note_on_c, 0, 80, 100
2, 6840, Note_on_c, 0, 80, 0
2, 6840, Note_on_c, 0, 79, 100
2, 6840, Note_on_c, 0, 71, 100
2, 6840, Note_on_c, 0, 74, 100
2, 6840, Note_on_c, 0, 77, 100
2, 6960, Note_on_c, 0, 77, 0
2, 6960, Note_on_c, 0, 79, 0
2, 6960, Note_on_c, 0, 71, 0
2, 6960, Note_on_c, 0, 74, 0
2, 6960, Note_on_c, 0, 71, 100
2, 6960, Note_on_c, 0, 74, 100
2, 6960, Note_on_c, 0, 79, 100
2, 6960, Note_on_c, 0, 77, 100
2, 7080, Note_on_c, 0, 77, 0
2, 7080, Note_on_c, 0, 71, 0
2, 7080, Note_on_c, 0, 74, 0
2, 7080, Note_on_c, 0, 79, 0
2, 7080, Note_on_c, 0, 74, 100
2, 7080, Note_on_c, 0, 79, 100
2, 7080, Note_on_c, 0, 77, 100
2, 7080, Note_on_c, 0, 71, 100
2, 7200, Note_on_c, 0, 71, 0
2, 7200, Note_on_c, 0, 74, 0
2, 7200, Note_on_c, 0, 79, 0
2, 7200, Note_on_c, 0, 77, 0
2, 7200, Note_on_c, 0, 74, 100
2, 7200, Note_on_c, 0, 77, 100
2, 7200, Note_on_c, 0, 79, 100
2, 7200, Note_on_c, 0, 71, 100
2, 7440, Note_on_c, 0, 71, 0
2, 7440, Note_on_c, 0, 74, 0
2, 7440, Note_on_c, 0, 77, 0
2, 7440, Note_on_c, 0, 79, 0
2, 7440, Note_on_c, 0, 72, 100
2, 7470, Note_on_c, 0, 72, 0
2, 7470, Note_on_c, 0, 71, 100
2, 7500, Note_on_c, 0, 71, 0
2, 7500, Note_on_c, 0, 72, 100
2, 7530, Note_on_c, 0, 72, 0
2, 7530, Note_on_c, 0, 71, 100
2, 7560, Note_on_c, 0, 71, 0
2, 7560, Note_on_c, 0, 72, 100
2, 7680, Note_on_c, 0, 72, 0
2, 7680, Note_on_c, 0, 76, 100
2, 7800, Note_on_c, 0, 76, 0
2, 7800, Note_on_c, 0, 67, 100
2, 7800, Note_on_c, 0, 79, 100
2, 7920, Note_on_c, 0, 79, 0
2, 7920, Note_on_c, 0, 67, 0
2, 7920, Note_on_c, 0, 84, 100
2, 7920, Note_on_c, 0, 72, 100
2, 8040, Note_on_c, 0, 72, 0
2, 8040, Note_on_c, 0, 84, 0
2, 8040, Note_on_c, 0, 88, 100
2, 8040, Note_on_c, 0, 76, 100
2, 8160, Note_on_c, 0, 76, 0
2, 8160, Note_on_c, 0, 88, 0
2, 8160, Note_on_c, 0, 91, 100
2, 8160, Note_on_c, 0, 79, 100
2, 8280, Note_on_c, 0, 79, 0
2, 8280, Note_on_c, 0, 91, 0
2, 8280, Note_on_c, 0, 89, 100
2, 8280, Note_on_c, 0, 77, 100
2, 8520, Note_on_c, 0, 77, 0
2, 8520, Note_on_c, 0, 89, 0
2, 8520, Note_on_c, 0, 88, 100
2, 8550, Note_on_c, 0, 88, 0
2, 8550, Note_on_c, 0, 86, 100
2, 8580, Note_on_c, 0, 86, 0
2, 8580, Note_on_c, 0, 84, 100
2, 8610, Note_on_c, 0, 84, 0
2, 8610, Note_on_c, 0, 83, 100
2, 8640, Note_on_c, 0, 83, 0
2, 8640, Note_on_c, 0, 84, 100
2, 8760, Note_on_c, 0, 84, 0
2, 8880, Note_on_c, 0, 79, 100
2, 8910, Note_on_c, 0, 79, 0
2, 8910, Note_on_c, 0, 78, 100
2, 8940, Note_on_c, 0, 78, 0
2, 8940, Note_on_c, 0, 79, 100
2, 8970, Note_on_c, 0, 79, 0
2, 8970, Note_on_c, 0, 78, 100
2, 9000, Note_on_c, 0, 78, 0
2, 9000, Note_on_c, 0, 79, 100
2, 9000, Note_on_c, 0, 71, 100
2, 9000, Note_on_c, 0, 74, 100
2, 9120, Note_on_c, 0, 74, 0
2, 9120, Note_on_c, 0, 71, 0
2, 9120, Note_on_c, 0, 79, 0
2, 9120, Note_on_c, 0, 74, 100
2, 9120, Note_on_c, 0, 71, 100
2, 9120, Note_on_c, 0, 79, 100
2, 9240, Note_on_c, 0, 79, 0
2, 9240, Note_on_c, 0, 71, 0
2, 9240, Note_on_c, 0, 74, 0
2, 9240, Note_on_c, 0, 71, 100
2, 9240, Note_on_c, 0, 74, 100
2, 9240, Note_on_c, 0, 79, 100
2, 9360, Note_on_c, 0, 79, 0
2, 9360, Note_on_c, 0, 74, 0
2, 9360, Note_on_c, 0, 71, 0
2, 9360, Note_on_c, 0, 71, 100
2, 9360, Note_on_c, 0, 74, 100
2, 9360, Note_on_c, 0, 79, 100
2, 9600, Note_on_c, 0, 79, 0
2, 9600, Note_on_c, 0, 74, 0
2, 9600, Note_on_c, 0, 71, 0
2, 9600, Note_on_c, 0, 79, 100
2, 9630, Note_on_c, 0, 79, 0
2, 9630, Note_on_c, 0, 80, 100
2, 9660, Note_on_c, 0, 80, 0
2, 9660, Note_on_c, 0, 79, 100
2, 9690, Note_on_c, 0, 79, 0
2, 9690, Note_on_c, 0, 80, 100
2, 9720, Note_on_c, 0, 80, 0
2, 9720, Note_on_c, 0, 74, 100
2, 9720, Note_on_c, 0, 77, 100
2, 9720, Note_on_c, 0, 79, 100
2, 9720, Note_on_c, 0, 71, 100
2, 9840, Note_on_c, 0, 71, 0
2, 9840, Note_on_c, 0, 74, 0
2, 9840, Note_on_c, 0, 77, 0
2, 9840, Note_on_c, 0, 79, 0
2, 9840, Note_on_c, 0, 79, 100
2, 9840, Note_on_c, 0, 77, 100
2, 9840, Note_on_c, 0, 71, 100
2, 9840, Note_on_c, 0, 74, 100
2, 9960, Note_on_c, 0, 74, 0
2, 9960, Note_on_c, 0, 79, 0
2, 9960, Note_on_c, 0, 77, 0
2, 9960, Note_on_c, 0, 71, 0
2, 9960, Note_on_c, 0, 77, 100
2, 9960, Note_on_c, 0, 71, 100
2, 9960, Note_on_c, 0, 74, 100
2, 9960, Note_on_c, 0, 79, 100
2, 10080, Note_on_c, 0, 79, 0
2, 10080, Note_on_c, 0, 77, 0
2, 10080, Note_on_c, 0, 71, 0
2, 10080, Note_on_c, 0, 74, 0
2, 10080, Note_on_c, 0, 79, 100
2, 10080, Note_on_c, 0, 71, 100
2, 10080, Note_on_c, 0, 74, 100
2, 10080, Note_on_c, 0, 77, 100
2, 10320, Note_on_c, 0, 77, 0
2, 10320, Note_on_c, 0, 79, 0
2, 10320, Note_on_c, 0, 71, 0
2, 10320, Note_on_c, 0, 74, 0
2, 10320, Note_on_c, 0, 72, 100
2, 10350, Note_on_c, 0, 72, 0
2, 10350, Note_on_c, 0, 71, 100
2, 10380, Note_on_c, 0, 71, 0
2, 10380, Note_on_c, 0, 72, 100
2, 10410, Note_on_c, 0, 72, 0
2, 10410, Note_on_c, 0, 71, 100
2, 10440, Note_on_c, 0, 71, 0
2, 10440, Note_on_c, 0, 72, 100
2, 10560, Note_on_c, 0, 72, 0
2, 10560, Note_on_c, 0, 76, 100
2, 10680, Note_on_c, 0, 76, 0
2, 10680, Note_on_c, 0, 67, 100
2, 10680, Note_on_c, 0, 79, 100
2, 10800, Note_on_c, 0, 79, 0
2, 10800, Note_on_c, 0, 67, 0
2, 10800, Note_on_c, 0, 84, 100
2, 10800, Note_on_c, 0, 72, 100
2, 10920, Note_on_c, 0, 72, 0
2, 10920, Note_on_c, 0, 84, 0
2, 10920, Note_on_c, 0, 88, 100
2, 10920, Note_on_c, 0, 76, 100
2, 11040, Note_on_c, 0, 76, 0
2, 11040, Note_on_c, 0, 88, 0
2, 11040, Note_on_c, 0, 91, 100
2, 11040, Note_on_c, 0, 79, 100
2, 11160, Note_on_c, 0, 79, 0
2, 11160, Note_on_c, 0, 91, 0
2, 11160, Note_on_c, 0, 89, 100
2, 11160, Note_on_c, 0, 77, 100
2, 11400, Note_on_c, 0, 77, 0
2, 11400, Note_on_c, 0, 89, 0
2, 11400, Note_on_c, 0, 88, 100
2, 11430, Note_on_c, 0, 88, 0
2, 11430, Note_on_c, 0, 86, 100
2, 11460, Note_on_c, 0, 86, 0
2, 11460, Note_on_c, 0, 84, 100
2, 11490, Note_on_c, 0, 84, 0
2, 11490, Note_on_c, 0, 83, 100
2, 11520, Note_on_c, 0, 83, 0
2, 11520, Note_on_c, 0, 84, 100
2, 11640, Note_on_c, 0, 84, 0
2, 11760, Note_on_c, 0, 67, 100
2, 11880, Note_on_c, 0, 67, 0
2, 11880, Note_on_c, 0, 72, 100
2, 12060, Note_on_c, 0, 72, 0
2, 12060, Note_on_c, 0, 71, 100
2, 12120, Note_on_c, 0, 71, 0
2, 12120, Note_on_c, 0, 72, 100
2, 12180, Note_on_c, 0, 72, 0
2, 12180, Note_on_c, 0, 73, 100
2, 12240, Note_on_c, 0, 73, 0
2, 12240, Note_on_c, 0, 76, 100
2, 12300, Note_on_c, 0, 76, 0
2, 12300, Note_on_c, 0, 74, 100
2, 12360, Note_on_c, 0, 74, 0
2, 12360, Note_on_c, 0, 72, 100
2, 12420, Note_on_c, 0, 72, 0
2, 12420, Note_on_c, 0, 71, 100
2, 12480, Note_on_c, 0, 71, 0
2, 12480, Note_on_c, 0, 69, 100
2, 12540, Note_on_c, 0, 69, 0
2, 12540, Note_on_c, 0, 67, 100
2, 12600, Note_on_c, 0, 67, 0
2, 12600, Note_on_c, 0, 72, 100
2, 12705, Note_on_c, 0, 74, 100
2, 12720, Note_on_c, 0, 74, 0
2, 12720, Note_on_c, 0, 72, 0
2, 12720, Note_on_c, 0, 72, 100
2, 12780, Note_on_c, 0, 72, 0
2, 12780, Note_on_c, 0, 71, 100
2, 12840, Note_on_c, 0, 71, 0
2, 12840, Note_on_c, 0, 72, 100
2, 12900, Note_on_c, 0, 72, 0
2, 12900, Note_on_c, 0, 74, 100
2, 12960, Note_on_c, 0, 74, 0
2, 12960, Note_on_c, 0, 71, 100
2, 13080, Note_on_c, 0, 71, 0
2, 13200, Note_on_c, 0, 67, 100
2, 13320, Note_on_c, 0, 67, 0
2, 13320, Note_on_c, 0, 77, 100
2, 13500, Note_on_c, 0, 77, 0
2, 13500, Note_on_c, 0, 76, 100
2, 13560, Note_on_c, 0, 76, 0
2, 13560, Note_on_c, 0, 77, 100
2, 13620, Note_on_c, 0, 77, 0
2, 13620, Note_on_c, 0, 79, 100
2, 13680, Note_on_c, 0, 79, 0
2, 13680, Note_on_c, 0, 77, 100
2, 13740, Note_on_c, 0, 77, 0
2, 13740, Note_on_c, 0, 76, 100
2, 13800, Note_on_c, 0, 76, 0
2, 13800, Note_on_c, 0, 74, 100
2, 13860, Note_on_c, 0, 74, 0
2, 13860, Note_on_c, 0, 72, 100
2, 13920, Note_on_c, 0, 72, 0
2, 13920, Note_on_c, 0, 71, 100
2, 13980, Note_on_c, 0, 71, 0
2, 13980, Note_on_c, 0, 72, 100
2, 14040, Note_on_c, 0, 72, 0
2, 14040, Note_on_c, 0, 74, 100
2, 14160, Note_on_c, 0, 74, 0
2, 14160, Note_on_c, 0, 74, 100
2, 14280, Note_on_c, 0, 74, 0
2, 14280, Note_on_c, 0, 74, 100
2, 14370, Note_on_c, 0, 74, 0
2, 14370, Note_on_c, 0, 76, 100
2, 14400, Note_on_c, 0, 76, 0
2, 14400, Note_on_c, 0, 72, 100
2, 14520, Note_on_c, 0, 72, 0
2, 14640, Note_on_c, 0, 67, 100
2, 14760, Note_on_c, 0, 67, 0
2, 14760, Note_on_c, 0, 72, 100
2, 14940, Note_on_c, 0, 72, 0
2, 14940, Note_on_c, 0, 71, 100
2, 15000, Note_on_c, 0, 71, 0
2, 15000, Note_on_c, 0, 72, 100
2, 15060, Note_on_c, 0, 72, 0
2, 15060, Note_on_c, 0, 73, 100
2, 15120, Note_on_c, 0, 73, 0
2, 15120, Note_on_c, 0, 76, 100
2, 15180, Note_on_c, 0, 76, 0
2, 15180, Note_on_c, 0, 74, 100
2, 15240, Note_on_c, 0, 74, 0
2, 15240, Note_on_c, 0, 72, 100
2, 15300, Note_on_c, 0, 72, 0
2, 15300, Note_on_c, 0, 71, 100
2, 15360, Note_on_c, 0, 71, 0
2, 15360, Note_on_c, 0, 69, 100
2, 15420, Note_on_c, 0, 69, 0
2, 15420, Note_on_c, 0, 67, 100
2, 15480, Note_on_c, 0, 67, 0
2, 15480, Note_on_c, 0, 72, 100
2, 15585, Note_on_c, 0, 74, 100
2, 15600, Note_on_c, 0, 74, 0
2, 15600, Note_on_c, 0, 72, 0
2, 15600, Note_on_c, 0, 72, 100
2, 15660, Note_on_c, 0, 72, 0
2, 15660, Note_on_c, 0, 71, 100
2, 15720, Note_on_c, 0, 71, 0
2, 15720, Note_on_c, 0, 72, 100
2, 15780, Note_on_c, 0, 72, 0
2, 15780, Note_on_c, 0, 74, 100
2, 15840, Note_on_c, 0, 74, 0
2, 15840, Note_on_c, 0, 71, 100
2, 15960, Note_on_c, 0, 71, 0
2, 16080, Note_on_c, 0, 67, 100
2, 16200, Note_on_c, 0, 67, 0
2, 16200, Note_on_c, 0, 77, 100
2, 16380, Note_on_c, 0, 77, 0
2, 16380, Note_on_c, 0, 76, 100
2, 16440, Note_on_c, 0, 76, 0
2, 16440, Note_on_c, 0, 77, 100
2, 16500, Note_on_c, 0, 77, 0
2, 16500, Note_on_c, 0, 79, 100
2, 16560, Note_on_c, 0, 79, 0
2, 16560, Note_on_c, 0, 77, 100
2, 16620, Note_on_c, 0, 77, 0
2, 16620, Note_on_c, 0, 76, 100
2, 16680, Note_on_c, 0, 76, 0
2, 16680, Note_on_c, 0, 74, 100
2, 16740, Note_on_c, 0, 74, 0
2, 16740, Note_on_c, 0, 72, 100
2, 16800, Note_on_c, 0, 72, 0
2, 16800, Note_on_c, 0, 71, 100
2, 16860, Note_on_c, 0, 71, 0
2, 16860, Note_on_c, 0, 72, 100
2, 16920, Note_on_c, 0, 72, 0
2, 16920, Note_on_c, 0, 74, 100
2, 17040, Note_on_c, 0, 74, 0
2, 17040, Note_on_c, 0, 74, 100
2, 17160, Note_on_c, 0, 74, 0
2, 17160, Note_on_c, 0, 74, 100
2, 17250, Note_on_c, 0, 74, 0
2, 17250, Note_on_c, 0, 76, 100
2, 17280, Note_on_c, 0, 76, 0
2, 17280, Note_on_c, 0, 72, 100
2, 17400, Note_on_c, 0, 72, 0
2, 17520, Note_on_c, 0, 64, 100
2, 17640, Note_on_c, 0, 64, 0
2, 17640, Note_on_c, 0, 68, 100
2, 17640, Note_on_c, 0, 76, 100
2, 17700, Note_on_c, 0, 76, 0
2, 17700, Note_on_c, 0, 68, 0
2, 17700, Note_on_c, 0, 69, 100
2, 17700, Note_on_c, 0, 76, 100
2, 17760, Note_on_c, 0, 76, 0
2, 17760, Note_on_c, 0, 69, 0
2, 17760, Note_on_c, 0, 71, 100
2, 17760, Note_on_c, 0, 76, 100
2, 17820, Note_on_c, 0, 76, 0
2, 17820, Note_on_c, 0, 71, 0
2, 17820, Note_on_c, 0, 68, 100
2, 17820, Note_on_c, 0, 76, 100
2, 17880, Note_on_c, 0, 76, 0
2, 17880, Note_on_c, 0, 68, 0
2, 17880, Note_on_c, 0, 69, 100
2, 17880, Note_on_c, 0, 76, 100
2, 17940, Note_on_c, 0, 76, 0
2, 17940, Note_on_c, 0, 69, 0
2, 17940, Note_on_c, 0, 71, 100
2, 17940, Note_on_c, 0, 76, 100
2, 18000, Note_on_c, 0, 76, 0
2, 18000, Note_on_c, 0, 71, 0
2, 18000, Note_on_c, 0, 72, 100
2, 18060, Note_on_c, 0, 72, 0
2, 18060, Note_on_c, 0, 72, 100
2, 18120, Note_on_c, 0, 72, 0
2, 18120, Note_on_c, 0, 71, 100
2, 18180, Note_on_c, 0, 71, 0
2, 18180, Note_on_c, 0, 72, 100
2, 18240, Note_on_c, 0, 72, 0
2, 18240, Note_on_c, 0, 71, 100
2, 18300, Note_on_c, 0, 71, 0
2, 18300, Note_on_c, 0, 72, 100
2, 18360, Note_on_c, 0, 72, 0
2, 18360, Note_on_c, 0, 64, 100
2, 18360, Note_on_c, 0, 72, 100
2, 18420, Note_on_c, 0, 72, 0
2, 18420, Note_on_c, 0, 64, 0
2, 18420, Note_on_c, 0, 72, 100
2, 18420, Note_on_c, 0, 65, 100
2, 18480, Note_on_c, 0, 65, 0
2, 18480, Note_on_c, 0, 72, 0
2, 18480, Note_on_c, 0, 72, 100
2, 18480, Note_on_c, 0, 67, 100
2, 18540, Note_on_c, 0, 67, 0
2, 18540, Note_on_c, 0, 72, 0
2, 18540, Note_on_c, 0, 64, 100
2, 18540, Note_on_c, 0, 72, 100
2, 18600, Note_on_c, 0, 72, 0
2, 18600, Note_on_c, 0, 64, 0
2, 18600, Note_on_c, 0, 65, 100
2, 18600, Note_on_c, 0, 72, 100
2, 18660, Note_on_c, 0, 72, 0
2, 18660, Note_on_c, 0, 65, 0
2, 18660, Note_on_c, 0, 67, 100
2, 18660, Note_on_c, 0, 72, 100
2, 18720, Note_on_c, 0, 72, 0
2, 18720, Note_on_c, 0, 67, 0
2, 18720, Note_on_c, 0, 69, 100
2, 18780, Note_on_c, 0, 69, 0
2, 18780, Note_on_c, 0, 69, 100
2, 18840, Note_on_c, 0, 69, 0
2, 18840, Note_on_c, 0, 68, 100
2, 18900, Note_on_c, 0, 68, 0
2, 18900, Note_on_c, 0, 69, 100
2, 18960, Note_on_c, 0, 69, 0
2, 18960, Note_on_c, 0, 68, 100
2, 19020, Note_on_c, 0, 68, 0
2, 19020, Note_on_c, 0, 69, 100
2, 19080, Note_on_c, 0, 69, 0
2, 19080, Note_on_c, 0, 77, 100
2, 19260, Note_on_c, 0, 77, 0
2, 19260, Note_on_c, 0, 76, 100
2, 19320, Note_on_c, 0, 76, 0
2, 19320, Note_on_c, 0, 77, 100
2, 19380, Note_on_c, 0, 77, 0
2, 19380, Note_on_c, 0, 79, 100
2, 19440, Note_on_c, 0, 79, 0
2, 19440, Note_on_c, 0, 77, 100
2, 19500, Note_on_c, 0, 77, 0
2, 19500, Note_on_c, 0, 76, 100
2, 19560, Note_on_c, 0, 76, 0
2, 19560, Note_on_c, 0, 74, 100
2, 19620, Note_on_c, 0, 74, 0
2, 19620, Note_on_c, 0, 72, 100
2, 19680, Note_on_c, 0, 72, 0
2, 19680, Note_on_c, 0, 71, 100
2, 19740, Note_on_c, 0, 71, 0
2, 19740, Note_on_c, 0, 72, 100
2, 19800, Note_on_c, 0, 72, 0
2, 19800, Note_on_c, 0, 74, 100
2, 19920, Note_on_c, 0, 74, 0
2, 19920, Note_on_c, 0, 74, 100
2, 20040, Note_on_c, 0, 74, 0
2, 20040, Note_on_c, 0, 74, 100
2, 20130, Note_on_c, 0, 74, 0
2, 20130, Note_on_c, 0, 76, 100
2, 20160, Note_on_c, 0, 76, 0
2, 20160, Note_on_c, 0, 72, 100
2, 20280, Note_on_c, 0, 72, 0
2, 20400, Note_on_c, 0, 64, 100
2, 20520, Note_on_c, 0, 64, 0
2, 20520, Note_on_c, 0, 68, 100
2, 20520, Note_on_c, 0, 76, 100
2, 20580, Note_on_c, 0, 76, 0
2, 20580, Note_on_c, 0, 68, 0
2, 20580, Note_on_c, 0, 76, 100
2, 20580, Note_on_c, 0, 69, 100
2, 20640, Note_on_c, 0, 69, 0
2, 20640, Note_on_c, 0, 76, 0
2, 20640, Note_on_c, 0, 76, 100
2, 20640, Note_on_c, 0, 71, 100
2, 20700, Note_on_c, 0, 71, 0
2, 20700, Note_on_c, 0, 76, 0
2, 20700, Note_on_c, 0, 76, 100
2, 20700, Note_on_c, 0, 68, 100
2, 20760, Note_on_c, 0, 68, 0
2, 20760, Note_on_c, 0, 76, 0
2, 20760, Note_on_c, 0, 69, 100
2, 20760, Note_on_c, 0, 76, 100
2, 20820, Note_on_c, 0, 76, 0
2, 20820, Note_on_c, 0, 69, 0
2, 20820, Note_on_c, 0, 76, 100
2, 20820, Note_on_c, 0, 71, 100
2, 20880, Note_on_c, 0, 71, 0
2, 20880, Note_on_c, 0, 76, 0
2, 20880, Note_on_c, 0, 72, 100
2, 20940, Note_on_c, 0, 72, 0
2, 20940, Note_on_c, 0, 72, 100
2, 21000, Note_on_c, 0, 72, 0
2, 21000, Note_on_c, 0, 71, 100
2, 21060, Note_on_c, 0, 71, 0
2, 21060, Note_on_c, 0, 72, 100
2, 21120, Note_on_c, 0, 72, 0
2, 21120, Note_on_c, 0, 71, 100
2, 21180, Note_on_c, 0, 71, 0
2, 21180, Note_on_c, 0, 72, 100
2, 21240, Note_on_c, 0, 72, 0
2, 21240, Note_on_c, 0, 64, 100
2, 21240, Note_on_c, 0, 72, 100
2, 21300, Note_on_c, 0, 72, 0
2, 21300, Note_on_c, 0, 64, 0
2, 21300, Note_on_c, 0, 72, 100
2, 21300, Note_on_c, 0, 65, 100
2, 21360, Note_on_c, 0, 65, 0
2, 21360, Note_on_c, 0, 72, 0
2, 21360, Note_on_c, 0, 72, 100
2, 21360, Note_on_c, 0, 67, 100
2, 21420, Note_on_c, 0, 67, 0
2, 21420, Note_on_c, 0, 72, 0
2, 21420, Note_on_c, 0, 72, 100
2, 21420, Note_on_c, 0, 64, 100
2, 21480, Note_on_c, 0, 64, 0
2, 21480, Note_on_c, 0, 72, 0
2, 21480, Note_on_c, 0, 72, 100
2, 21480, Note_on_c, 0, 65, 100
2, 21540, Note_on_c, 0, 65, 0
2, 21540, Note_on_c, 0, 72, 0
2, 21540, Note_on_c, 0, 67, 100
2, 21540, Note_on_c, 0, 72, 100
2, 21600, Note_on_c, 0, 72, 0
2, 21600, Note_on_c, 0, 67, 0
2, 21600, Note_on_c, 0, 69, 100
2, 21660, Note_on_c, 0, 69, 0
2, 21660, Note_on_c, 0, 69, 100
2, 21720, Note_on_c, 0, 69, 0
2, 21720, Note_on_c, 0, 68, 100
2, 21780, Note_on_c, 0, 68, 0
2, 21780, Note_on_c, 0, 69, 100
2, 21840, Note_on_c, 0, 69, 0
2, 21840, Note_on_c, 0, 68, 100
2, 21900, Note_on_c, 0, 68, 0
2, 21900, Note_on_c, 0, 69, 100
2, 21960, Note_on_c, 0, 69, 0
2, 21960, Note_on_c, 0, 77, 100
2, 22140, Note_on_c, 0, 77, 0
2, 22140, Note_on_c, 0, 76, 100
2, 22200, Note_on_c, 0, 76, 0
2, 22200, Note_on_c, 0, 77, 100
2, 22260, Note_on_c, 0, 77, 0
2, 22260, Note_on_c, 0, 79, 100
2, 22320, Note_on_c, 0, 79, 0
2, 22320, Note_on_c, 0, 77, 100
2, 22380, Note_on_c, 0, 77, 0
2, 22380, Note_on_c, 0, 76, 100
2, 22440, Note_on_c, 0, 76, 0
2, 22440, Note_on_c, 0, 74, 100
2, 22500, Note_on_c, 0, 74, 0
2, 22500, Note_on_c, 0, 72, 100
2, 22560, Note_on_c, 0, 72, 0
2, 22560, Note_on_c, 0, 71, 100
2, 22620, Note_on_c, 0, 71, 0
2, 22620, Note_on_c, 0, 72, 100
2, 22680, Note_on_c, 0, 72, 0
2, 22680, Note_on_c, 0, 74, 100
2, 22800, Note_on_c, 0, 74, 0
2, 22800, Note_on_c, 0, 74, 100
2, 22920, Note_on_c, 0, 74, 0
2, 22920, Note_on_c, 0, 74, 100
2, 23010, Note_on_c, 0, 74, 0
2, 23010, Note_on_c, 0, 76, 100
2, 23040, Note_on_c, 0, 76, 0
2, 23040, Note_on_c, 0, 72, 100
2, 23160, Note_on_c, 0, 72, 0
2, 23400, Control_c, 0, 1, 49
2, 23400, Control_c, 0, 11, 75
2, 23400, Control_c, 0, 91, 127
2, 23400, Control_c, 0, 11, 75
2, 23640, Note_on_c, 0, 71, 101
2, 23640, Note_on_c, 0, 67, 88
2, 23730, Note_on_c, 0, 67, 0
2, 23730, Note_on_c, 0, 71, 0
2, 23730, Note_on_c, 0, 72, 94
2, 23730, Note_on_c, 0, 69, 81
2, 23760, Note_on_c, 0, 69, 0
2, 23760, Note_on_c, 0, 72, 0
2, 23760, Note_on_c, 0, 74, 107
2, 23760, Note_on_c, 0, 62, 81
2, 23760, Note_on_c, 0, 71, 94
2, 23760, Note_on_c, 0, 59, 81
2, 23850, Note_on_c, 0, 71, 0
2, 23850, Note_on_c, 0, 74, 0
2, 23850, Note_on_c, 0, 73, 94
2, 23850, Note_on_c, 0, 70, 81
2, 23880, Note_on_c, 0, 70, 0
2, 23880, Note_on_c, 0, 59, 0
2, 23880, Note_on_c, 0, 62, 0
2, 23880, Note_on_c, 0, 73, 0
2, 23880, Note_on_c, 0, 59, 75
2, 23880, Note_on_c, 0, 62, 75
2, 23880, Note_on_c, 0, 71, 88
2, 23880, Note_on_c, 0, 74, 101
2, 23970, Note_on_c, 0, 74, 0
2, 23970, Note_on_c, 0, 71, 0
2, 23970, Note_on_c, 0, 70, 81
2, 23970, Note_on_c, 0, 73, 94
2, 24000, Note_on_c, 0, 73, 0
2, 24000, Note_on_c, 0, 59, 0
2, 24000, Note_on_c, 0, 62, 0
2, 24000, Note_on_c, 0, 70, 0
2, 24000, Note_on_c, 0, 74, 101
2, 24000, Note_on_c, 0, 71, 88
2, 24000, Note_on_c, 0, 62, 75
2, 24000, Note_on_c, 0, 59, 75
2, 24090, Note_on_c, 0, 71, 0
2, 24090, Note_on_c, 0, 74, 0
2, 24090, Note_on_c, 0, 70, 81
2, 24090, Note_on_c, 0, 73, 94
2, 24120, Note_on_c, 0, 73, 0
2, 24120, Note_on_c, 0, 59, 0
2, 24120, Note_on_c, 0, 62, 0
2, 24120, Note_on_c, 0, 70, 0
2, 24120, Note_on_c, 0, 71, 94
2, 24120, Note_on_c, 0, 74, 107
2, 24360, Note_on_c, 0, 74, 0
2, 24360, Note_on_c, 0, 71, 0
2, 24360, Note_on_c, 0, 72, 88
2, 24360, Note_on_c, 0, 76, 101
2, 24450, Note_on_c, 0, 76, 0
2, 24450, Note_on_c, 0, 72, 0
2, 24450, Note_on_c, 0, 71, 94
2, 24450, Note_on_c, 0, 68, 81
2, 24480, Note_on_c, 0, 68, 0
2, 24480, Note_on_c, 0, 71, 0
2, 24480, Note_on_c, 0, 72, 107
2, 24480, Note_on_c, 0, 69, 94
2, 24720, Note_on_c, 0, 69, 0
2, 24720, Note_on_c, 0, 72, 0
2, 24720, Note_on_c, 0, 71, 88
2, 24720, Note_on_c, 0, 74, 101
2, 24810, Note_on_c, 0, 74, 0
2, 24810, Note_on_c, 0, 71, 0
2, 24810, Note_on_c, 0, 69, 94
2, 24810, Note_on_c, 0, 66, 81
2, 24840, Note_on_c, 0, 66, 0
2, 24840, Note_on_c, 0, 69, 0
2, 24840, Note_on_c, 0, 71, 94
2, 24840, Note_on_c, 0, 67, 94
2, 24960, Note_on_c, 0, 67, 0
2, 24960, Note_on_c, 0, 71, 0
2, 25080, Note_on_c, 0, 67, 101
2, 25080, Note_on_c, 0, 59, 88
2, 25170, Note_on_c, 0, 59, 0
2, 25170, Note_on_c, 0, 67, 0
2, 25170, Note_on_c, 0, 62, 81
2, 25170, Note_on_c, 0, 69, 94
2, 25200, Note_on_c, 0, 69, 0
2, 25200, Note_on_c, 0, 62, 0
2, 25200, Note_on_c, 0, 67, 94
2, 25200, Note_on_c, 0, 71, 107
2, 25290, Note_on_c, 0, 71, 0
2, 25290, Note_on_c, 0, 67, 0
2, 25290, Note_on_c, 0, 69, 94
2, 25290, Note_on_c, 0, 66, 81
2, 25320, Note_on_c, 0, 66, 0
2, 25320, Note_on_c, 0, 69, 0
2, 25320, Note_on_c, 0, 71, 101
2, 25320, Note_on_c, 0, 67, 88
2, 25410, Note_on_c, 0, 67, 0
2, 25410, Note_on_c, 0, 71, 0
2, 25410, Note_on_c, 0, 66, 81
2, 25410, Note_on_c, 0, 69, 94
2, 25440, Note_on_c, 0, 69, 0
2, 25440, Note_on_c, 0, 66, 0
2, 25440, Note_on_c, 0, 71, 101
2, 25440, Note_on_c, 0, 67, 88
2, 25530, Note_on_c, 0, 67, 0
2, 25530, Note_on_c, 0, 71, 0
2, 25530, Note_on_c, 0, 69, 94
2, 25530, Note_on_c, 0, 66, 81
2, 25560, Note_on_c, 0, 66, 0
2, 25560, Note_on_c, 0, 69, 0
2, 25560, Note_on_c, 0, 71, 107
2, 25560, Note_on_c, 0, 67, 94
2, 25800, Note_on_c, 0, 67, 0
2, 25800, Note_on_c, 0, 71, 0
2, 25800, Note_on_c, 0, 69, 101
2, 25800, Note_on_c, 0, 66, 88
2, 25860, Note_on_c, 0, 66, 0
2, 25860, Note_on_c, 0, 69, 0
2, 25860, Note_on_c, 0, 67, 94
2, 25860, Note_on_c, 0, 64, 81
2, 25920, Note_on_c, 0, 64, 0
2, 25920, Note_on_c, 0, 67, 0
2, 25920, Note_on_c, 0, 67, 107
2, 25920, Note_on_c, 0, 64, 94
2, 25980, Note_on_c, 0, 64, 0
2, 25980, Note_on_c, 0, 67, 0
2, 25980, Note_on_c, 0, 62, 81
2, 25980, Note_on_c, 0, 66, 94
2, 26040, Note_on_c, 0, 66, 0
2, 26040, Note_on_c, 0, 62, 0
2, 26040, Note_on_c, 0, 62, 88
2, 26040, Note_on_c, 0, 66, 101
2, 26100, Note_on_c, 0, 66, 0
2, 26100, Note_on_c, 0, 62, 0
2, 26100, Note_on_c, 0, 66, 81
2, 26100, Note_on_c, 0, 69, 94
2, 26160, Note_on_c, 0, 69, 0
2, 26160, Note_on_c, 0, 66, 0
2, 26160, Note_on_c, 0, 67, 101
2, 26160, Note_on_c, 0, 64, 88
2, 26220, Note_on_c, 0, 64, 0
2, 26220, Note_on_c, 0, 67, 0
2, 26220, Note_on_c, 0, 64, 94
2, 26220, Note_on_c, 0, 61, 81
2, 26280, Note_on_c, 0, 61, 0
2, 26280, Note_on_c, 0, 64, 0
2, 26280, Note_on_c, 0, 62, 101
2, 26400, Note_on_c, 0, 62, 0
2, 26520, Note_on_c, 0, 71, 101
2, 26520, Note_on_c, 0, 67, 88
2, 26610, Note_on_c, 0, 67, 0
2, 26610, Note_on_c, 0, 71, 0
2, 26610, Note_on_c, 0, 72, 94
2, 26610, Note_on_c, 0, 69, 81
2, 26640, Note_on_c, 0, 69, 0
2, 26640, Note_on_c, 0, 72, 0
2, 26640, Note_on_c, 0, 74, 107
2, 26640, Note_on_c, 0, 62, 81
2, 26640, Note_on_c, 0, 71, 94
2, 26640, Note_on_c, 0, 59, 81
2, 26730, Note_on_c, 0, 71, 0
2, 26730, Note_on_c, 0, 74, 0
2, 26730, Note_on_c, 0, 73, 94
2, 26730, Note_on_c, 0, 70, 81
2, 26760, Note_on_c, 0, 70, 0
2, 26760, Note_on_c, 0, 59, 0
2, 26760, Note_on_c, 0, 62, 0
2, 26760, Note_on_c, 0, 73, 0
2, 26760, Note_on_c, 0, 59, 75
2, 26760, Note_on_c, 0, 62, 75
2, 26760, Note_on_c, 0, 71, 88
2, 26760, Note_on_c, 0, 74, 101
2, 26850, Note_on_c, 0, 74, 0
2, 26850, Note_on_c, 0, 71, 0
2, 26850, Note_on_c, 0, 70, 81
2, 26850, Note_on_c, 0, 73, 94
2, 26880, Note_on_c, 0, 73, 0
2, 26880, Note_on_c, 0, 59, 0
2, 26880, Note_on_c, 0, 62, 0
2, 26880, Note_on_c, 0, 70, 0
2, 26880, Note_on_c, 0, 74, 101
2, 26880, Note_on_c, 0, 71, 88
2, 26880, Note_on_c, 0, 62, 75
2, 26880, Note_on_c, 0, 59, 75
2, 26970, Note_on_c, 0, 71, 0
2, 26970, Note_on_c, 0, 74, 0
2, 26970, Note_on_c, 0, 70, 81
2, 26970, Note_on_c, 0, 73, 94
2, 27000, Note_on_c, 0, 73, 0
2, 27000, Note_on_c, 0, 59, 0
2, 27000, Note_on_c, 0, 62, 0
2, 27000, Note_on_c, 0, 70, 0
2, 27000, Note_on_c, 0, 71, 94
2, 27000, Note_on_c, 0, 74, 107
2, 27240, Note_on_c, 0, 74, 0
2, 27240, Note_on_c, 0, 71, 0
2, 27240, Note_on_c, 0, 72, 88
2, 27240, Note_on_c, 0, 76, 101
2, 27330, Note_on_c, 0, 76, 0
2, 27330, Note_on_c, 0, 72, 0
2, 27330, Note_on_c, 0, 71, 94
2, 27330, Note_on_c, 0, 68, 81
2, 27360, Note_on_c, 0, 68, 0
2, 27360, Note_on_c, 0, 71, 0
2, 27360, Note_on_c, 0, 72, 107
2, 27360, Note_on_c, 0, 69, 94
2, 27600, Note_on_c, 0, 69, 0
2, 27600, Note_on_c, 0, 72, 0
2, 27600, Note_on_c, 0, 71, 88
2, 27600, Note_on_c, 0, 74, 101
2, 27690, Note_on_c, 0, 74, 0
2, 27690, Note_on_c, 0, 71, 0
2, 27690, Note_on_c, 0, 69, 94
2, 27690, Note_on_c, 0, 66, 81
2, 27720, Note_on_c, 0, 66, 0
2, 27720, Note_on_c, 0, 69, 0
2, 27720, Note_on_c, 0, 71, 94
2, 27720, Note_on_c, 0, 67, 94
2, 27840, Note_on_c, 0, 67, 0
2, 27840, Note_on_c, 0, 71, 0
2, 27960, Note_on_c, 0, 67, 101
2, 27960, Note_on_c, 0, 59, 88
2, 28050, Note_on_c, 0, 59, 0
2, 28050, Note_on_c, 0, 67, 0
2, 28050, Note_on_c, 0, 62, 81
2, 28050, Note_on_c, 0, 69, 94
2, 28080, Note_on_c, 0, 69, 0
2, 28080, Note_on_c, 0, 62, 0
2, 28080, Note_on_c, 0, 67, 94
2, 28080, Note_on_c, 0, 71, 107
2, 28170, Note_on_c, 0, 71, 0
2, 28170, Note_on_c, 0, 67, 0
2, 28170, Note_on_c, 0, 69, 94
2, 28170, Note_on_c, 0, 66, 81
2, 28200, Note_on_c, 0, 66, 0
2, 28200, Note_on_c, 0, 69, 0
2, 28200, Note_on_c, 0, 71, 101
2, 28200, Note_on_c, 0, 67, 88
2, 28290, Note_on_c, 0, 67, 0
2, 28290, Note_on_c, 0, 71, 0
2, 28290, Note_on_c, 0, 66, 81
2, 28290, Note_on_c, 0, 69, 94
2, 28320, Note_on_c, 0, 69, 0
2, 28320, Note_on_c, 0, 66, 0
2, 28320, Note_on_c, 0, 71, 101
2, 28320, Note_on_c, 0, 67, 88
2, 28410, Note_on_c, 0, 67, 0
2, 28410, Note_on_c, 0, 71, 0
2, 28410, Note_on_c, 0, 69, 94
2, 28410, Note_on_c, 0, 66, 81
2, 28440, Note_on_c, 0, 66, 0
2, 28440, Note_on_c, 0, 69, 0
2, 28440, Note_on_c, 0, 71, 107
2, 28440, Note_on_c, 0, 67, 94
2, 28680, Note_on_c, 0, 67, 0
2, 28680, Note_on_c, 0, 71, 0
2, 28680, Note_on_c, 0, 69, 101
2, 28680, Note_on_c, 0, 66, 88
2, 28740, Note_on_c, 0, 66, 0
2, 28740, Note_on_c, 0, 69, 0
2, 28740, Note_on_c, 0, 67, 94
2, 28740, Note_on_c, 0, 64, 81
2, 28800, Note_on_c, 0, 64, 0
2, 28800, Note_on_c, 0, 67, 0
2, 28800, Note_on_c, 0, 67, 107
2, 28800, Note_on_c, 0, 64, 94
2, 28860, Note_on_c, 0, 64, 0
2, 28860, Note_on_c, 0, 67, 0
2, 28860, Note_on_c, 0, 62, 81
2, 28860, Note_on_c, 0, 66, 94
2, 28920, Note_on_c, 0, 66, 0
2, 28920, Note_on_c, 0, 62, 0
2, 28920, Note_on_c, 0, 62, 88
2, 28920, Note_on_c, 0, 66, 101
2, 28980, Note_on_c, 0, 66, 0
2, 28980, Note_on_c, 0, 62, 0
2, 28980, Note_on_c, 0, 66, 81
2, 28980, Note_on_c, 0, 69, 94
2, 29040, Note_on_c, 0, 69, 0
2, 29040, Note_on_c, 0, 66, 0
2, 29040, Note_on_c, 0, 67, 101
2, 29040, Note_on_c, 0, 64, 88
2, 29100, Note_on_c, 0, 64, 0
2, 29100, Note_on_c, 0, 67, 0
2, 29100, Note_on_c, 0, 64, 94
2, 29100, Note_on_c, 0, 61, 81
2, 29160, Note_on_c, 0, 61, 0
2, 29160, Note_on_c, 0, 64, 0
2, 29160, Note_on_c, 0, 62, 101
2, 29280, Note_on_c, 0, 62, 0
2, 29400, Note_on_c, 0, 74, 101
2, 29460, Note_on_c, 0, 74, 0
2, 29460, Note_on_c, 0, 79, 94
2, 29520, Note_on_c, 0, 79, 0
2, 29520, Note_on_c, 0, 79, 107
2, 29520, Note_on_c, 0, 74, 94
2, 29640, Note_on_c, 0, 74, 0
2, 29640, Note_on_c, 0, 79, 0
2, 29640, Note_on_c, 0, 78, 101
2, 29640, Note_on_c, 0, 72, 88
2, 29760, Note_on_c, 0, 72, 0
2, 29760, Note_on_c, 0, 78, 0
2, 29760, Note_on_c, 0, 71, 88
2, 29760, Note_on_c, 0, 79, 101
2, 29880, Note_on_c, 0, 79, 0
2, 29880, Note_on_c, 0, 71, 0
2, 29880, Note_on_c, 0, 69, 94
2, 29880, Note_on_c, 0, 81, 107
2, 30000, Note_on_c, 0, 69, 0
2, 30120, Note_on_c, 0, 81, 0
2, 30120, Note_on_c, 0, 79, 101
2, 30150, Note_on_c, 0, 79, 0
2, 30150, Note_on_c, 0, 78, 94
2, 30180, Note_on_c, 0, 78, 0
2, 30180, Note_on_c, 0, 76, 94
2, 30210, Note_on_c, 0, 76, 0
2, 30210, Note_on_c, 0, 74, 94
2, 30240, Note_on_c, 0, 74, 0
2, 30240, Note_on_c, 0, 72, 107
2, 30240, Note_on_c, 0, 69, 94
2, 30360, Note_on_c, 0, 69, 0
2, 30360, Note_on_c, 0, 72, 0
2, 30360, Note_on_c, 0, 71, 101
2, 30360, Note_on_c, 0, 67, 88
2, 30480, Note_on_c, 0, 67, 0
2, 30480, Note_on_c, 0, 71, 0
2, 30480, Note_on_c, 0, 72, 88
2, 30480, Note_on_c, 0, 76, 101
2, 30570, Note_on_c, 0, 76, 0
2, 30570, Note_on_c, 0, 72, 0
2, 30570, Note_on_c, 0, 69, 81
2, 30570, Note_on_c, 0, 72, 94
2, 30600, Note_on_c, 0, 72, 0
2, 30600, Note_on_c, 0, 69, 0
2, 30600, Note_on_c, 0, 71, 107
2, 30600, Note_on_c, 0, 67, 94
2, 30720, Note_on_c, 0, 67, 0
2, 30720, Note_on_c, 0, 71, 0
2, 30720, Note_on_c, 0, 66, 88
2, 30720, Note_on_c, 0, 69, 101
2, 30780, Note_on_c, 0, 69, 0
2, 30780, Note_on_c, 0, 66, 0
2, 30840, Note_on_c, 0, 59, 88
2, 30840, Note_on_c, 0, 67, 94
2, 30930, Note_on_c, 0, 67, 0
2, 30930, Note_on_c, 0, 59, 0
2, 30930, Note_on_c, 0, 60, 81
2, 30930, Note_on_c, 0, 69, 94
2, 30960, Note_on_c, 0, 69, 0
2, 30960, Note_on_c, 0, 60, 0
2, 30960, Note_on_c, 0, 62, 94
2, 30960, Note_on_c, 0, 71, 107
2, 31050, Note_on_c, 0, 71, 0
2, 31050, Note_on_c, 0, 62, 0
2, 31050, Note_on_c, 0, 61, 81
2, 31050, Note_on_c, 0, 70, 94
2, 31080, Note_on_c, 0, 70, 0
2, 31080, Note_on_c, 0, 61, 0
2, 31080, Note_on_c, 0, 71, 101
2, 31080, Note_on_c, 0, 62, 88
2, 31170, Note_on_c, 0, 62, 0
2, 31170, Note_on_c, 0, 71, 0
2, 31170, Note_on_c, 0, 61, 81
2, 31170, Note_on_c, 0, 70, 94
2, 31200, Note_on_c, 0, 70, 0
2, 31200, Note_on_c, 0, 61, 0
2, 31200, Note_on_c, 0, 71, 101
2, 31200, Note_on_c, 0, 62, 88
2, 31290, Note_on_c, 0, 62, 0
2, 31290, Note_on_c, 0, 71, 0
2, 31290, Note_on_c, 0, 70, 94
2, 31290, Note_on_c, 0, 61, 81
2, 31320, Note_on_c, 0, 61, 0
2, 31320, Note_on_c, 0, 70, 0
2, 31320, Note_on_c, 0, 62, 94
2, 31320, Note_on_c, 0, 71, 107
2, 31560, Note_on_c, 0, 71, 0
2, 31560, Note_on_c, 0, 62, 0
2, 31560, Note_on_c, 0, 72, 101
2, 31560, Note_on_c, 0, 64, 88
2, 31650, Note_on_c, 0, 64, 0
2, 31650, Note_on_c, 0, 72, 0
2, 31650, Note_on_c, 0, 59, 94
2, 31650, Note_on_c, 0, 68, 94
2, 31680, Note_on_c, 0, 68, 0
2, 31680, Note_on_c, 0, 59, 0
2, 31680, Note_on_c, 0, 69, 107
2, 31680, Note_on_c, 0, 60, 94
2, 31920, Note_on_c, 0, 60, 0
2, 31920, Note_on_c, 0, 69, 0
2, 31920, Note_on_c, 0, 71, 101
2, 31920, Note_on_c, 0, 62, 88
2, 32010, Note_on_c, 0, 62, 0
2, 32010, Note_on_c, 0, 71, 0
2, 32010, Note_on_c, 0, 66, 94
2, 32010, Note_on_c, 0, 57, 68
2, 32040, Note_on_c, 0, 57, 0
2, 32040, Note_on_c, 0, 66, 0
2, 32040, Note_on_c, 0, 67, 94
2, 32040, Note_on_c, 0, 59, 94
2, 32160, Note_on_c, 0, 59, 0
2, 32160, Note_on_c, 0, 67, 0
2, 32280, Note_on_c, 0, 74, 88
2, 32340, Note_on_c, 0, 74, 0
2, 32340, Note_on_c, 0, 79, 81
2, 32400, Note_on_c, 0, 79, 0
2, 32400, Note_on_c, 0, 79, 94
2, 32400, Note_on_c, 0, 74, 81
2, 32520, Note_on_c, 0, 74, 0
2, 32520, Note_on_c, 0, 79, 0
2, 32520, Note_on_c, 0, 78, 88
2, 32520, Note_on_c, 0, 72, 75
2, 32640, Note_on_c, 0, 72, 0
2, 32640, Note_on_c, 0, 78, 0
2, 32640, Note_on_c, 0, 71, 75
2, 32640, Note_on_c, 0, 79, 88
2, 32760, Note_on_c, 0, 79, 0
2, 32760, Note_on_c, 0, 71, 0
2, 32760, Note_on_c, 0, 69, 81
2, 32760, Note_on_c, 0, 81, 94
2, 32880, Note_on_c, 0, 69, 0
2, 33000, Note_on_c, 0, 81, 0
2, 33000, Note_on_c, 0, 79, 88
2, 33030, Note_on_c, 0, 79, 0
2, 33030, Note_on_c, 0, 78, 81
2, 33060, Note_on_c, 0, 78, 0
2, 33060, Note_on_c, 0, 76, 81
2, 33090, Note_on_c, 0, 76, 0
2, 33090, Note_on_c, 0, 74, 81
2, 33120, Note_on_c, 0, 74, 0
2, 33120, Note_on_c, 0, 69, 81
2, 33120, Note_on_c, 0, 72, 94
2, 33240, Note_on_c, 0, 72, 0
2, 33240, Note_on_c, 0, 69, 0
2, 33240, Note_on_c, 0, 71, 88
2, 33240, Note_on_c, 0, 67, 75
2, 33360, Note_on_c, 0, 67, 0
2, 33360, Note_on_c, 0, 71, 0
2, 33360, Note_on_c, 0, 76, 88
2, 33360, Note_on_c, 0, 72, 75
2, 33450, Note_on_c, 0, 72, 0
2, 33450, Note_on_c, 0, 76, 0
2, 33450, Note_on_c, 0, 72, 81
2, 33450, Note_on_c, 0, 69, 68
2, 33480, Note_on_c, 0, 69, 0
2, 33480, Note_on_c, 0, 72, 0
2, 33480, Note_on_c, 0, 71, 94
2, 33480, Note_on_c, 0, 67, 81
2, 33600, Note_on_c, 0, 67, 0
2, 33600, Note_on_c, 0, 71, 0
2, 33600, Note_on_c, 0, 69, 88
2, 33600, Note_on_c, 0, 66, 75
2, 33660, Note_on_c, 0, 66, 0
2, 33660, Note_on_c, 0, 69, 0
2, 33720, Note_on_c, 0, 59, 88
2, 33720, Note_on_c, 0, 67, 88
2, 33810, Note_on_c, 0, 67, 0
2, 33810, Note_on_c, 0, 59, 0
2, 33810, Note_on_c, 0, 60, 88
2, 33810, Note_on_c, 0, 69, 88
2, 33840, Note_on_c, 0, 69, 0
2, 33840, Note_on_c, 0, 60, 0
2, 33840, Note_on_c, 0, 71, 94
2, 33840, Note_on_c, 0, 62, 81
2, 33930, Note_on_c, 0, 62, 0
2, 33930, Note_on_c, 0, 71, 0
2, 33930, Note_on_c, 0, 70, 94
2, 33930, Note_on_c, 0, 61, 81
2, 33960, Note_on_c, 0, 61, 0
2, 33960, Note_on_c, 0, 70, 0
2, 33960, Note_on_c, 0, 62, 88
2, 33960, Note_on_c, 0, 71, 101
2, 34050, Note_on_c, 0, 71, 0
2, 34050, Note_on_c, 0, 62, 0
2, 34050, Note_on_c, 0, 61, 81
2, 34050, Note_on_c, 0, 70, 94
2, 34080, Note_on_c, 0, 70, 0
2, 34080, Note_on_c, 0, 61, 0
2, 34080, Note_on_c, 0, 71, 101
2, 34080, Note_on_c, 0, 62, 88
2, 34170, Note_on_c, 0, 62, 0
2, 34170, Note_on_c, 0, 71, 0
2, 34170, Note_on_c, 0, 70, 94
2, 34170, Note_on_c, 0, 61, 81
2, 34200, Note_on_c, 0, 61, 0
2, 34200, Note_on_c, 0, 70, 0
2, 34200, Note_on_c, 0, 71, 107
2, 34200, Note_on_c, 0, 62, 94
2, 34440, Note_on_c, 0, 62, 0
2, 34440, Note_on_c, 0, 71, 0
2, 34440, Note_on_c, 0, 72, 101
2, 34440, Note_on_c, 0, 64, 88
2, 34530, Note_on_c, 0, 64, 0
2, 34530, Note_on_c, 0, 72, 0
2, 34530, Note_on_c, 0, 68, 94
2, 34530, Note_on_c, 0, 59, 68
2, 34560, Note_on_c, 0, 59, 0
2, 34560, Note_on_c, 0, 68, 0
2, 34560, Note_on_c, 0, 69, 107
2, 34560, Note_on_c, 0, 60, 94
2, 34800, Note_on_c, 0, 60, 0
2, 34800, Note_on_c, 0, 69, 0
2, 34800, Note_on_c, 0, 71, 101
2, 34800, Note_on_c, 0, 62, 88
2, 34890, Note_on_c, 0, 62, 0
2, 34890, Note_on_c, 0, 71, 0
2, 34890, Note_on_c, 0, 57, 68
2, 34890, Note_on_c, 0, 66, 94
2, 34920, Note_on_c, 0, 66, 0
2, 34920, Note_on_c, 0, 57, 0
2, 34920, Note_on_c, 0, 59, 94
2, 34920, Note_on_c, 0, 67, 94
2, 35040, Note_on_c, 0, 67, 0
2, 35040, Note_on_c, 0, 59, 0
2, 35100, Note_on_c, 0, 74, 94
2, 35160, Note_on_c, 0, 74, 0
2, 35160, Note_on_c, 0, 73, 101
2, 35220, Note_on_c, 0, 73, 0
2, 35220, Note_on_c, 0, 74, 94
2, 35280, Note_on_c, 0, 74, 0
2, 35280, Note_on_c, 0, 71, 88
2, 35340, Note_on_c, 0, 71, 0
2, 35340, Note_on_c, 0, 74, 88
2, 35400, Note_on_c, 0, 74, 0
2, 35400, Note_on_c, 0, 67, 88
2, 35460, Note_on_c, 0, 67, 0
2, 35460, Note_on_c, 0, 71, 88
2, 35520, Note_on_c, 0, 71, 0
2, 35520, Note_on_c, 0, 62, 88
2, 35580, Note_on_c, 0, 62, 0
2, 35580, Note_on_c, 0, 71, 88
2, 35640, Note_on_c, 0, 71, 0
2, 35640, Note_on_c, 0, 69, 88
2, 35700, Note_on_c, 0, 69, 0
2, 35700, Note_on_c, 0, 72, 88
2, 35760, Note_on_c, 0, 72, 0
2, 35760, Note_on_c, 0, 66, 88
2, 35820, Note_on_c, 0, 66, 0
2, 35820, Note_on_c, 0, 69, 88
2, 35880, Note_on_c, 0, 69, 0
2, 35880, Note_on_c, 0, 62, 88
2, 35940, Note_on_c, 0, 62, 0
2, 35940, Note_on_c, 0, 66, 88
2, 36000, Note_on_c, 0, 66, 0
2, 36000, Note_on_c, 0, 67, 88
2, 36060, Note_on_c, 0, 67, 0
2, 36060, Note_on_c, 0, 66, 88
2, 36120, Note_on_c, 0, 66, 0
2, 36120, Note_on_c, 0, 67, 88
2, 36180, Note_on_c, 0, 67, 0
2, 36180, Note_on_c, 0, 69, 88
2, 36240, Note_on_c, 0, 69, 0
2, 36240, Note_on_c, 0, 71, 88
2, 36300, Note_on_c, 0, 71, 0
2, 36300, Note_on_c, 0, 73, 88
2, 36360, Note_on_c, 0, 73, 0
2, 36360, Note_on_c, 0, 74, 88
2, 36420, Note_on_c, 0, 74, 0
2, 36420, Note_on_c, 0, 73, 88
2, 36480, Note_on_c, 0, 73, 0
2, 36480, Note_on_c, 0, 74, 88
2, 36540, Note_on_c, 0, 74, 0
2, 36540, Note_on_c, 0, 76, 88
2, 36600, Note_on_c, 0, 76, 0
2, 36600, Note_on_c, 0, 74, 88
2, 36660, Note_on_c, 0, 74, 0
2, 36660, Note_on_c, 0, 72, 88
2, 36720, Note_on_c, 0, 72, 0
2, 36720, Note_on_c, 0, 71, 88
2, 36780, Note_on_c, 0, 71, 0
2, 36780, Note_on_c, 0, 70, 88
2, 36840, Note_on_c, 0, 70, 0
2, 36840, Note_on_c, 0, 71, 88
2, 36900, Note_on_c, 0, 71, 0
2, 36900, Note_on_c, 0, 72, 88
2, 36960, Note_on_c, 0, 72, 0
2, 36960, Note_on_c, 0, 71, 88
2, 37020, Note_on_c, 0, 71, 0
2, 37020, Note_on_c, 0, 69, 88
2, 37080, Note_on_c, 0, 69, 0
2, 37080, Note_on_c, 0, 67, 88
2, 37140, Note_on_c, 0, 67, 0
2, 37140, Note_on_c, 0, 71, 88
2, 37200, Note_on_c, 0, 71, 0
2, 37200, Note_on_c, 0, 69, 88
2, 37260, Note_on_c, 0, 69, 0
2, 37260, Note_on_c, 0, 67, 88
2, 37320, Note_on_c, 0, 67, 0
2, 37320, Note_on_c, 0, 66, 88
2, 37380, Note_on_c, 0, 66, 0
2, 37380, Note_on_c, 0, 69, 88
2, 37440, Note_on_c, 0, 69, 0
2, 37440, Note_on_c, 0, 64, 88
2, 37500, Note_on_c, 0, 64, 0
2, 37500, Note_on_c, 0, 66, 88
2, 37560, Note_on_c, 0, 66, 0
2, 37560, Note_on_c, 0, 67, 88
2, 37620, Note_on_c, 0, 67, 0
2, 37620, Note_on_c, 0, 64, 88
2, 37680, Note_on_c, 0, 64, 0
2, 37680, Note_on_c, 0, 61, 88
2, 37740, Note_on_c, 0, 61, 0
2, 37740, Note_on_c, 0, 57, 88
2, 37800, Note_on_c, 0, 57, 0
2, 37800, Note_on_c, 0, 62, 88
2, 37920, Note_on_c, 0, 62, 0
2, 37980, Note_on_c, 0, 74, 94
2, 38040, Note_on_c, 0, 74, 0
2, 38040, Note_on_c, 0, 73, 101
2, 38100, Note_on_c, 0, 73, 0
2, 38100, Note_on_c, 0, 74, 94
2, 38160, Note_on_c, 0, 74, 0
2, 38160, Note_on_c, 0, 71, 88
2, 38220, Note_on_c, 0, 71, 0
2, 38220, Note_on_c, 0, 74, 88
2, 38280, Note_on_c, 0, 74, 0
2, 38280, Note_on_c, 0, 67, 88
2, 38340, Note_on_c, 0, 67, 0
2, 38340, Note_on_c, 0, 71, 88
2, 38400, Note_on_c, 0, 71, 0
2, 38400, Note_on_c, 0, 62, 88
2, 38460, Note_on_c, 0, 62, 0
2, 38460, Note_on_c, 0, 71, 88
2, 38520, Note_on_c, 0, 71, 0
2, 38520, Note_on_c, 0, 69, 88
2, 38580, Note_on_c, 0, 69, 0
2, 38580, Note_on_c, 0, 72, 88
2, 38640, Note_on_c, 0, 72, 0
2, 38640, Note_on_c, 0, 66, 88
2, 38700, Note_on_c, 0, 66, 0
2, 38700, Note_on_c, 0, 69, 88
2, 38760, Note_on_c, 0, 69, 0
2, 38760, Note_on_c, 0, 62, 88
2, 38820, Note_on_c, 0, 62, 0
2, 38820, Note_on_c, 0, 66, 88
2, 38880, Note_on_c, 0, 66, 0
2, 38880, Note_on_c, 0, 67, 88
2, 38940, Note_on_c, 0, 67, 0
2, 38940, Note_on_c, 0, 66, 88
2, 39000, Note_on_c, 0, 66, 0
2, 39000, Note_on_c, 0, 67, 88
2, 39060, Note_on_c, 0, 67, 0
2, 39060, Note_on_c, 0, 69, 88
2, 39120, Note_on_c, 0, 69, 0
2, 39120, Note_on_c, 0, 71, 88
2, 39180, Note_on_c, 0, 71, 0
2, 39180, Note_on_c, 0, 73, 88
2, 39240, Note_on_c, 0, 73, 0
2, 39240, Note_on_c, 0, 74, 88
2, 39300, Note_on_c, 0, 74, 0
2, 39300, Note_on_c, 0, 73, 88
2, 39360, Note_on_c, 0, 73, 0
2, 39360, Note_on_c, 0, 74, 88
2, 39420, Note_on_c, 0, 74, 0
2, 39420, Note_on_c, 0, 76, 88
2, 39480, Note_on_c, 0, 76, 0
2, 39480, Note_on_c, 0, 74, 88
2, 39540, Note_on_c, 0, 74, 0
2, 39540, Note_on_c, 0, 72, 88
2, 39600, Note_on_c, 0, 72, 0
2, 39600, Note_on_c, 0, 71, 88
2, 39660, Note_on_c, 0, 71, 0
2, 39660, Note_on_c, 0, 70, 88
2, 39720, Note_on_c, 0, 70, 0
2, 39720, Note_on_c, 0, 71, 88
2, 39780, Note_on_c, 0, 71, 0
2, 39780, Note_on_c, 0, 72, 88
2, 39840, Note_on_c, 0, 72, 0
2, 39840, Note_on_c, 0, 71, 88
2, 39900, Note_on_c, 0, 71, 0
2, 39900, Note_on_c, 0, 69, 88
2, 39960, Note_on_c, 0, 69, 0
2, 39960, Note_on_c, 0, 67, 88
2, 40020, Note_on_c, 0, 67, 0
2, 40020, Note_on_c, 0, 71, 88
2, 40080, Note_on_c, 0, 71, 0
2, 40080, Note_on_c, 0, 69, 88
2, 40140, Note_on_c, 0, 69, 0
2, 40140, Note_on_c, 0, 67, 88
2, 40200, Note_on_c, 0, 67, 0
2, 40200, Note_on_c, 0, 66, 88
2, 40260, Note_on_c, 0, 66, 0
2, 40260, Note_on_c, 0, 69, 88
2, 40320, Note_on_c, 0, 69, 0
2, 40320, Note_on_c, 0, 64, 88
2, 40380, Note_on_c, 0, 64, 0
2, 40380, Note_on_c, 0, 66, 88
2, 40440, Note_on_c, 0, 66, 0
2, 40440, Note_on_c, 0, 67, 88
2, 40500, Note_on_c, 0, 67, 0
2, 40500, Note_on_c, 0, 64, 88
2, 40560, Note_on_c, 0, 64, 0
2, 40560, Note_on_c, 0, 61, 88
2, 40620, Note_on_c, 0, 61, 0
2, 40620, Note_on_c, 0, 57, 88
2, 40680, Note_on_c, 0, 57, 0
2, 40680, Note_on_c, 0, 62, 88
2, 40800, Note_on_c, 0, 62, 0
2, 40860, Note_on_c, 0, 74, 94
2, 40920, Note_on_c, 0, 74, 0
2, 40920, Note_on_c, 0, 73, 94
2, 40980, Note_on_c, 0, 73, 0
2, 40980, Note_on_c, 0, 74, 94
2, 41040, Note_on_c, 0, 74, 0
2, 41040, Note_on_c, 0, 76, 94
2, 41100, Note_on_c, 0, 76, 0
2, 41100, Note_on_c, 0, 72, 94
2, 41160, Note_on_c, 0, 72, 0
2, 41160, Note_on_c, 0, 69, 94
2, 41220, Note_on_c, 0, 69, 0
2, 41220, Note_on_c, 0, 71, 94
2, 41280, Note_on_c, 0, 71, 0
2, 41280, Note_on_c, 0, 69, 94
2, 41340, Note_on_c, 0, 69, 0
2, 41340, Note_on_c, 0, 71, 94
2, 41400, Note_on_c, 0, 71, 0
2, 41400, Note_on_c, 0, 72, 94
2, 41460, Note_on_c, 0, 72, 0
2, 41460, Note_on_c, 0, 69, 94
2, 41520, Note_on_c, 0, 69, 0
2, 41520, Note_on_c, 0, 66, 94
2, 41580, Note_on_c, 0, 66, 0
2, 41580, Note_on_c, 0, 74, 94
2, 41640, Note_on_c, 0, 74, 0
2, 41640, Note_on_c, 0, 73, 94
2, 41700, Note_on_c, 0, 73, 0
2, 41700, Note_on_c, 0, 74, 94
2, 41760, Note_on_c, 0, 74, 0
2, 41760, Note_on_c, 0, 76, 94
2, 41820, Note_on_c, 0, 76, 0
2, 41820, Note_on_c, 0, 72, 94
2, 41880, Note_on_c, 0, 72, 0
2, 41880, Note_on_c, 0, 69, 94
2, 41940, Note_on_c, 0, 69, 0
2, 41940, Note_on_c, 0, 71, 94
2, 42000, Note_on_c, 0, 71, 0
2, 42000, Note_on_c, 0, 69, 94
2, 42060, Note_on_c, 0, 69, 0
2, 42060, Note_on_c, 0, 71, 94
2, 42120, Note_on_c, 0, 71, 0
2, 42120, Note_on_c, 0, 72, 94
2, 42180, Note_on_c, 0, 72, 0
2, 42180, Note_on_c, 0, 69, 94
2, 42240, Note_on_c, 0, 69, 0
2, 42240, Note_on_c, 0, 66, 94
2, 42300, Note_on_c, 0, 66, 0
2, 42300, Note_on_c, 0, 74, 94
2, 42360, Note_on_c, 0, 74, 0
2, 42360, Note_on_c, 0, 73, 94
2, 42420, Note_on_c, 0, 73, 0
2, 42420, Note_on_c, 0, 74, 94
2, 42480, Note_on_c, 0, 74, 0
2, 42480, Note_on_c, 0, 71, 94
2, 42540, Note_on_c, 0, 71, 0
2, 42540, Note_on_c, 0, 74, 94
2, 42600, Note_on_c, 0, 74, 0
2, 42600, Note_on_c, 0, 67, 94
2, 42660, Note_on_c, 0, 67, 0
2, 42660, Note_on_c, 0, 71, 94
2, 42720, Note_on_c, 0, 71, 0
2, 42720, Note_on_c, 0, 62, 94
2, 42780, Note_on_c, 0, 62, 0
2, 42780, Note_on_c, 0, 79, 94
2, 42840, Note_on_c, 0, 79, 0
2, 42840, Note_on_c, 0, 76, 94
2, 42900, Note_on_c, 0, 76, 0
2, 42900, Note_on_c, 0, 79, 94
2, 42960, Note_on_c, 0, 79, 0
2, 42960, Note_on_c, 0, 72, 94
2, 43020, Note_on_c, 0, 72, 0
2, 43020, Note_on_c, 0, 76, 94
2, 43080, Note_on_c, 0, 76, 0
2, 43080, Note_on_c, 0, 69, 94
2, 43140, Note_on_c, 0, 69, 0
2, 43140, Note_on_c, 0, 72, 94
2, 43200, Note_on_c, 0, 72, 0
2, 43200, Note_on_c, 0, 66, 94
2, 43260, Note_on_c, 0, 66, 0
2, 43260, Note_on_c, 0, 69, 94
2, 43320, Note_on_c, 0, 69, 0
2, 43320, Note_on_c, 0, 62, 94
2, 43380, Note_on_c, 0, 62, 0
2, 43380, Note_on_c, 0, 64, 94
2, 43440, Note_on_c, 0, 64, 0
2, 43440, Note_on_c, 0, 65, 94
2, 43500, Note_on_c, 0, 65, 0
2, 43500, Note_on_c, 0, 66, 94
2, 43560, Note_on_c, 0, 66, 0
2, 43560, Note_on_c, 0, 69, 94
2, 43680, Note_on_c, 0, 69, 0
2, 43680, Note_on_c, 0, 67, 94
2, 43740, Note_on_c, 0, 67, 0
2, 43740, Note_on_c, 0, 74, 94
2, 43800, Note_on_c, 0, 74, 0
2, 43800, Note_on_c, 0, 73, 94
2, 43860, Note_on_c, 0, 73, 0
2, 43860, Note_on_c, 0, 74, 94
2, 43920, Note_on_c, 0, 74, 0
2, 43920, Note_on_c, 0, 76, 94
2, 43980, Note_on_c, 0, 76, 0
2, 43980, Note_on_c, 0, 72, 94
2, 44040, Note_on_c, 0, 72, 0
2, 44040, Note_on_c, 0, 69, 94
2, 44100, Note_on_c, 0, 69, 0
2, 44100, Note_on_c, 0, 71, 94
2, 44160, Note_on_c, 0, 71, 0
2, 44160, Note_on_c, 0, 69, 94
2, 44220, Note_on_c, 0, 69, 0
2, 44220, Note_on_c, 0, 71, 94
2, 44280, Note_on_c, 0, 71, 0
2, 44280, Note_on_c, 0, 72, 94
2, 44340, Note_on_c, 0, 72, 0
2, 44340, Note_on_c, 0, 69, 94
2, 44400, Note_on_c, 0, 69, 0
2, 44400, Note_on_c, 0, 66, 94
2, 44460, Note_on_c, 0, 66, 0
2, 44460, Note_on_c, 0, 74, 94
2, 44520, Note_on_c, 0, 74, 0
2, 44520, Note_on_c, 0, 73, 94
2, 44580, Note_on_c, 0, 73, 0
2, 44580, Note_on_c, 0, 74, 94
2, 44640, Note_on_c, 0, 74, 0
2, 44640, Note_on_c, 0, 76, 94
2, 44700, Note_on_c, 0, 76, 0
2, 44700, Note_on_c, 0, 72, 94
2, 44760, Note_on_c, 0, 72, 0
2, 44760, Note_on_c, 0, 69, 94
2, 44820, Note_on_c, 0, 69, 0
2, 44820, Note_on_c, 0, 71, 94
2, 44880, Note_on_c, 0, 71, 0
2, 44880, Note_on_c, 0, 69, 94
2, 44940, Note_on_c, 0, 69, 0
2, 44940, Note_on_c, 0, 71, 94
2, 45000, Note_on_c, 0, 71, 0
2, 45000, Note_on_c, 0, 72, 94
2, 45060, Note_on_c, 0, 72, 0
2, 45060, Note_on_c, 0, 69, 94
2, 45120, Note_on_c, 0, 69, 0
2, 45120, Note_on_c, 0, 66, 94
2, 45180, Note_on_c, 0, 66, 0
2, 45180, Note_on_c, 0, 74, 94
2, 45240, Note_on_c, 0, 74, 0
2, 45240, Note_on_c, 0, 73, 94
2, 45300, Note_on_c, 0, 73, 0
2, 45300, Note_on_c, 0, 74, 94
2, 45360, Note_on_c, 0, 74, 0
2, 45360, Note_on_c, 0, 71, 94
2, 45420, Note_on_c, 0, 71, 0
2, 45420, Note_on_c, 0, 74, 94
2, 45480, Note_on_c, 0, 74, 0
2, 45480, Note_on_c, 0, 67, 94
2, 45540, Note_on_c, 0, 67, 0
2, 45540, Note_on_c, 0, 71, 94
2, 45600, Note_on_c, 0, 71, 0
2, 45600, Note_on_c, 0, 62, 94
2, 45660, Note_on_c, 0, 62, 0
2, 45660, Note_on_c, 0, 79, 94
2, 45720, Note_on_c, 0, 79, 0
2, 45720, Note_on_c, 0, 76, 94
2, 45780, Note_on_c, 0, 76, 0
2, 45780, Note_on_c, 0, 79, 94
2, 45840, Note_on_c, 0, 79, 0
2, 45840, Note_on_c, 0, 72, 94
2, 45900, Note_on_c, 0, 72, 0
2, 45900, Note_on_c, 0, 76, 94
2, 45960, Note_on_c, 0, 76, 0
2, 45960, Note_on_c, 0, 69, 94
2, 46020, Note_on_c, 0, 69, 0
2, 46020, Note_on_c, 0, 72, 94
2, 46080, Note_on_c, 0, 72, 0
2, 46080, Note_on_c, 0, 66, 94
2, 46140, Note_on_c, 0, 66, 0
2, 46140, Note_on_c, 0, 69, 94
2, 46200, Note_on_c, 0, 69, 0
2, 46200, Note_on_c, 0, 62, 94
2, 46260, Note_on_c, 0, 62, 0
2, 46260, Note_on_c, 0, 64, 94
2, 46320, Note_on_c, 0, 64, 0
2, 46320, Note_on_c, 0, 65, 94
2, 46380, Note_on_c, 0, 65, 0
2, 46380, Note_on_c, 0, 66, 94
2, 46440, Note_on_c, 0, 66, 0
2, 46440, Note_on_c, 0, 69, 94
2, 46560, Note_on_c, 0, 69, 0
2, 46560, Note_on_c, 0, 67, 94
2, 46620, Note_on_c, 0, 67, 0
2, 46680, Control_c, 0, 91, 127
2, 46680, Control_c, 0, 11, 75
2, 46680, Control_c, 0, 1, 49
2, 46680, Control_c, 0, 11, 75
2, 46680, Note_on_c, 0, 71, 101
2, 46680, Note_on_c, 0, 67, 88
2, 46770, Note_on_c, 0, 67, 0
2, 46770, Note_on_c, 0, 71, 0
2, 46770, Note_on_c, 0, 72, 94
2, 46770, Note_on_c, 0, 69, 81
2, 46800, Note_on_c, 0, 69, 0
2, 46800, Note_on_c, 0, 72, 0
2, 46800, Note_on_c, 0, 74, 107
2, 46800, Note_on_c, 0, 62, 81
2, 46800, Note_on_c, 0, 59, 81
2, 46800, Note_on_c, 0, 71, 94
2, 46890, Note_on_c, 0, 71, 0
2, 46890, Note_on_c, 0, 74, 0
2, 46890, Note_on_c, 0, 73, 94
2, 46890, Note_on_c, 0, 70, 81
2, 46920, Note_on_c, 0, 70, 0
2, 46920, Note_on_c, 0, 62, 0
2, 46920, Note_on_c, 0, 59, 0
2, 46920, Note_on_c, 0, 73, 0
2, 46920, Note_on_c, 0, 59, 75
2, 46920, Note_on_c, 0, 74, 101
2, 46920, Note_on_c, 0, 71, 88
2, 46920, Note_on_c, 0, 62, 75
2, 47010, Note_on_c, 0, 71, 0
2, 47010, Note_on_c, 0, 74, 0
2, 47010, Note_on_c, 0, 70, 81
2, 47010, Note_on_c, 0, 73, 94
2, 47040, Note_on_c, 0, 73, 0
2, 47040, Note_on_c, 0, 62, 0
2, 47040, Note_on_c, 0, 59, 0
2, 47040, Note_on_c, 0, 70, 0
2, 47040, Note_on_c, 0, 71, 88
2, 47040, Note_on_c, 0, 59, 75
2, 47040, Note_on_c, 0, 62, 75
2, 47040, Note_on_c, 0, 74, 101
2, 47130, Note_on_c, 0, 74, 0
2, 47130, Note_on_c, 0, 71, 0
2, 47130, Note_on_c, 0, 70, 81
2, 47130, Note_on_c, 0, 73, 94
2, 47160, Note_on_c, 0, 73, 0
2, 47160, Note_on_c, 0, 59, 0
2, 47160, Note_on_c, 0, 62, 0
2, 47160, Note_on_c, 0, 70, 0
2, 47160, Note_on_c, 0, 71, 94
2, 47160, Note_on_c, 0, 74, 107
2, 47400, Note_on_c, 0, 74, 0
2, 47400, Note_on_c, 0, 71, 0
2, 47400, Note_on_c, 0, 76, 101
2, 47400, Note_on_c, 0, 72, 88
2, 47490, Note_on_c, 0, 72, 0
2, 47490, Note_on_c, 0, 76, 0
2, 47490, Note_on_c, 0, 71, 94
2, 47490, Note_on_c, 0, 68, 81
2, 47520, Note_on_c, 0, 68, 0
2, 47520, Note_on_c, 0, 71, 0
2, 47520, Note_on_c, 0, 72, 107
2, 47520, Note_on_c, 0, 69, 94
2, 47760, Note_on_c, 0, 69, 0
2, 47760, Note_on_c, 0, 72, 0
2, 47760, Note_on_c, 0, 71, 88
2, 47760, Note_on_c, 0, 74, 101
2, 47850, Note_on_c, 0, 74, 0
2, 47850, Note_on_c, 0, 71, 0
2, 47850, Note_on_c, 0, 69, 94
2, 47850, Note_on_c, 0, 66, 81
2, 47880, Note_on_c, 0, 66, 0
2, 47880, Note_on_c, 0, 69, 0
2, 47880, Note_on_c, 0, 67, 94
2, 47880, Note_on_c, 0, 71, 94
2, 48000, Note_on_c, 0, 71, 0
2, 48000, Note_on_c, 0, 67, 0
2, 48120, Note_on_c, 0, 67, 101
2, 48120, Note_on_c, 0, 59, 88
2, 48210, Note_on_c, 0, 59, 0
2, 48210, Note_on_c, 0, 67, 0
2, 48210, Note_on_c, 0, 62, 81
2, 48210, Note_on_c, 0, 69, 94
2, 48240, Note_on_c, 0, 69, 0
2, 48240, Note_on_c, 0, 62, 0
2, 48240, Note_on_c, 0, 67, 94
2, 48240, Note_on_c, 0, 71, 107
2, 48330, Note_on_c, 0, 71, 0
2, 48330, Note_on_c, 0, 67, 0
2, 48330, Note_on_c, 0, 66, 81
2, 48330, Note_on_c, 0, 69, 94
2, 48360, Note_on_c, 0, 69, 0
2, 48360, Note_on_c, 0, 66, 0
2, 48360, Note_on_c, 0, 71, 101
2, 48360, Note_on_c, 0, 67, 88
2, 48450, Note_on_c, 0, 67, 0
2, 48450, Note_on_c, 0, 71, 0
2, 48450, Note_on_c, 0, 66, 81
2, 48450, Note_on_c, 0, 69, 94
2, 48480, Note_on_c, 0, 69, 0
2, 48480, Note_on_c, 0, 66, 0
2, 48480, Note_on_c, 0, 71, 101
2, 48480, Note_on_c, 0, 67, 88
2, 48570, Note_on_c, 0, 67, 0
2, 48570, Note_on_c, 0, 71, 0
2, 48570, Note_on_c, 0, 69, 94
2, 48570, Note_on_c, 0, 66, 81
2, 48600, Note_on_c, 0, 66, 0
2, 48600, Note_on_c, 0, 69, 0
2, 48600, Note_on_c, 0, 67, 94
2, 48600, Note_on_c, 0, 71, 107
2, 48840, Note_on_c, 0, 71, 0
2, 48840, Note_on_c, 0, 67, 0
2, 48840, Note_on_c, 0, 69, 101
2, 48840, Note_on_c, 0, 66, 88
2, 48900, Note_on_c, 0, 66, 0
2, 48900, Note_on_c, 0, 69, 0
2, 48900, Note_on_c, 0, 67, 94
2, 48900, Note_on_c, 0, 64, 81
2, 48960, Note_on_c, 0, 64, 0
2, 48960, Note_on_c, 0, 67, 0
2, 48960, Note_on_c, 0, 67, 107
2, 48960, Note_on_c, 0, 64, 94
2, 49020, Note_on_c, 0, 64, 0
2, 49020, Note_on_c, 0, 67, 0
2, 49020, Note_on_c, 0, 66, 94
2, 49020, Note_on_c, 0, 62, 81
2, 49080, Note_on_c, 0, 62, 0
2, 49080, Note_on_c, 0, 66, 0
2, 49080, Note_on_c, 0, 62, 88
2, 49080, Note_on_c, 0, 66, 101
2, 49140, Note_on_c, 0, 66, 0
2, 49140, Note_on_c, 0, 62, 0
2, 49140, Note_on_c, 0, 66, 81
2, 49140, Note_on_c, 0, 69, 94
2, 49200, Note_on_c, 0, 69, 0
2, 49200, Note_on_c, 0, 66, 0
2, 49200, Note_on_c, 0, 67, 101
2, 49200, Note_on_c, 0, 64, 88
2, 49260, Note_on_c, 0, 64, 0
2, 49260, Note_on_c, 0, 67, 0
2, 49260, Note_on_c, 0, 64, 94
2, 49260, Note_on_c, 0, 61, 81
2, 49320, Note_on_c, 0, 61, 0
2, 49320, Note_on_c, 0, 64, 0
2, 49320, Note_on_c, 0, 62, 101
2, 49440, Note_on_c, 0, 62, 0
2, 49560, Note_on_c, 0, 67, 88
2, 49560, Note_on_c, 0, 71, 101
2, 49650, Note_on_c, 0, 71, 0
2, 49650, Note_on_c, 0, 67, 0
2, 49650, Note_on_c, 0, 72, 94
2, 49650, Note_on_c, 0, 69, 81
2, 49680, Note_on_c, 0, 69, 0
2, 49680, Note_on_c, 0, 72, 0
2, 49680, Note_on_c, 0, 71, 94
2, 49680, Note_on_c, 0, 59, 81
2, 49680, Note_on_c, 0, 74, 107
2, 49680, Note_on_c, 0, 62, 81
2, 49770, Note_on_c, 0, 74, 0
2, 49770, Note_on_c, 0, 71, 0
2, 49770, Note_on_c, 0, 70, 81
2, 49770, Note_on_c, 0, 73, 94
2, 49800, Note_on_c, 0, 73, 0
2, 49800, Note_on_c, 0, 62, 0
2, 49800, Note_on_c, 0, 59, 0
2, 49800, Note_on_c, 0, 70, 0
2, 49800, Note_on_c, 0, 71, 88
2, 49800, Note_on_c, 0, 62, 75
2, 49800, Note_on_c, 0, 59, 75
2, 49800, Note_on_c, 0, 74, 101
2, 49890, Note_on_c, 0, 74, 0
2, 49890, Note_on_c, 0, 71, 0
2, 49890, Note_on_c, 0, 70, 81
2, 49890, Note_on_c, 0, 73, 94
2, 49920, Note_on_c, 0, 73, 0
2, 49920, Note_on_c, 0, 62, 0
2, 49920, Note_on_c, 0, 59, 0
2, 49920, Note_on_c, 0, 70, 0
2, 49920, Note_on_c, 0, 74, 101
2, 49920, Note_on_c, 0, 59, 75
2, 49920, Note_on_c, 0, 71, 88
2, 49920, Note_on_c, 0, 62, 75
2, 50010, Note_on_c, 0, 71, 0
2, 50010, Note_on_c, 0, 74, 0
2, 50010, Note_on_c, 0, 70, 81
2, 50010, Note_on_c, 0, 73, 94
2, 50040, Note_on_c, 0, 73, 0
2, 50040, Note_on_c, 0, 62, 0
2, 50040, Note_on_c, 0, 59, 0
2, 50040, Note_on_c, 0, 70, 0
2, 50040, Note_on_c, 0, 71, 94
2, 50040, Note_on_c, 0, 74, 107
2, 50280, Note_on_c, 0, 74, 0
2, 50280, Note_on_c, 0, 71, 0
2, 50280, Note_on_c, 0, 72, 88
2, 50280, Note_on_c, 0, 76, 101
2, 50370, Note_on_c, 0, 76, 0
2, 50370, Note_on_c, 0, 72, 0
2, 50370, Note_on_c, 0, 68, 81
2, 50370, Note_on_c, 0, 71, 94
2, 50400, Note_on_c, 0, 71, 0
2, 50400, Note_on_c, 0, 68, 0
2, 50400, Note_on_c, 0, 72, 107
2, 50400, Note_on_c, 0, 69, 94
2, 50640, Note_on_c, 0, 69, 0
2, 50640, Note_on_c, 0, 72, 0
2, 50640, Note_on_c, 0, 71, 88
2, 50640, Note_on_c, 0, 74, 101
2, 50730, Note_on_c, 0, 74, 0
2, 50730, Note_on_c, 0, 71, 0
2, 50730, Note_on_c, 0, 69, 94
2, 50730, Note_on_c, 0, 66, 81
2, 50760, Note_on_c, 0, 66, 0
2, 50760, Note_on_c, 0, 69, 0
2, 50760, Note_on_c, 0, 71, 94
2, 50760, Note_on_c, 0, 67, 94
2, 50880, Note_on_c, 0, 67, 0
2, 50880, Note_on_c, 0, 71, 0
2, 51000, Note_on_c, 0, 59, 88
2, 51000, Note_on_c, 0, 67, 101
2, 51090, Note_on_c, 0, 67, 0
2, 51090, Note_on_c, 0, 59, 0
2, 51090, Note_on_c, 0, 62, 81
2, 51090, Note_on_c, 0, 69, 94
2, 51120, Note_on_c, 0, 69, 0
2, 51120, Note_on_c, 0, 62, 0
2, 51120, Note_on_c, 0, 67, 94
2, 51120, Note_on_c, 0, 71, 107
2, 51210, Note_on_c, 0, 71, 0
2, 51210, Note_on_c, 0, 67, 0
2, 51210, Note_on_c, 0, 69, 94
2, 51210, Note_on_c, 0, 66, 81
2, 51240, Note_on_c, 0, 66, 0
2, 51240, Note_on_c, 0, 69, 0
2, 51240, Note_on_c, 0, 67, 88
2, 51240, Note_on_c, 0, 71, 101
2, 51330, Note_on_c, 0, 71, 0
2, 51330, Note_on_c, 0, 67, 0
2, 51330, Note_on_c, 0, 66, 81
2, 51330, Note_on_c, 0, 69, 94
2, 51360, Note_on_c, 0, 69, 0
2, 51360, Note_on_c, 0, 66, 0
2, 51360, Note_on_c, 0, 71, 101
2, 51360, Note_on_c, 0, 67, 88
2, 51450, Note_on_c, 0, 67, 0
2, 51450, Note_on_c, 0, 71, 0
2, 51450, Note_on_c, 0, 69, 94
2, 51450, Note_on_c, 0, 66, 81
2, 51480, Note_on_c, 0, 66, 0
2, 51480, Note_on_c, 0, 69, 0
2, 51480, Note_on_c, 0, 71, 107
2, 51480, Note_on_c, 0, 67, 94
2, 51720, Note_on_c, 0, 67, 0
2, 51720, Note_on_c, 0, 71, 0
2, 51720, Note_on_c, 0, 66, 88
2, 51720, Note_on_c, 0, 69, 101
2, 51780, Note_on_c, 0, 69, 0
2, 51780, Note_on_c, 0, 66, 0
2, 51780, Note_on_c, 0, 67, 94
2, 51780, Note_on_c, 0, 64, 81
2, 51840, Note_on_c, 0, 64, 0
2, 51840, Note_on_c, 0, 67, 0
2, 51840, Note_on_c, 0, 67, 107
2, 51840, Note_on_c, 0, 64, 94
2, 51900, Note_on_c, 0, 64, 0
2, 51900, Note_on_c, 0, 67, 0
2, 51900, Note_on_c, 0, 62, 81
2, 51900, Note_on_c, 0, 66, 94
2, 51960, Note_on_c, 0, 66, 0
2, 51960, Note_on_c, 0, 62, 0
2, 51960, Note_on_c, 0, 66, 101
2, 51960, Note_on_c, 0, 62, 88
2, 52020, Note_on_c, 0, 62, 0
2, 52020, Note_on_c, 0, 66, 0
2, 52020, Note_on_c, 0, 66, 81
2, 52020, Note_on_c, 0, 69, 94
2, 52080, Note_on_c, 0, 69, 0
2, 52080, Note_on_c, 0, 66, 0
2, 52080, Note_on_c, 0, 67, 101
2, 52080, Note_on_c, 0, 64, 88
2, 52140, Note_on_c, 0, 64, 0
2, 52140, Note_on_c, 0, 67, 0
2, 52140, Note_on_c, 0, 64, 94
2, 52140, Note_on_c, 0, 61, 81
2, 52200, Note_on_c, 0, 61, 0
2, 52200, Note_on_c, 0, 64, 0
2, 52200, Note_on_c, 0, 62, 101
2, 52320, Note_on_c, 0, 62, 0
2, 52320, Control_c, 0, 121, 0
2, 52320, Control_c, 0, 121, 0
2, 53160, Note_on_c, 0, 70, 100
2, 53250, Note_on_c, 0, 70, 0
2, 53250, Note_on_c, 0, 75, 100
2, 53280, Note_on_c, 0, 75, 0
2, 53280, Note_on_c, 0, 63, 100
2, 53280, Note_on_c, 0, 75, 100
2, 53520, Note_on_c, 0, 75, 0
2, 53520, Note_on_c, 0, 63, 0
2, 53520, Note_on_c, 0, 70, 100
2, 53610, Note_on_c, 0, 70, 0
2, 53610, Note_on_c, 0, 79, 100
2, 53640, Note_on_c, 0, 79, 0
2, 53640, Note_on_c, 0, 67, 100
2, 53640, Note_on_c, 0, 79, 100
2, 53880, Note_on_c, 0, 79, 0
2, 53880, Note_on_c, 0, 67, 0
2, 53880, Note_on_c, 0, 70, 100
2, 53970, Note_on_c, 0, 70, 0
2, 53970, Note_on_c, 0, 82, 100
2, 54000, Note_on_c, 0, 82, 0
2, 54000, Note_on_c, 0, 70, 100
2, 54000, Note_on_c, 0, 82, 100
2, 54240, Note_on_c, 0, 82, 0
2, 54240, Note_on_c, 0, 70, 0
2, 54240, Note_on_c, 0, 80, 100
2, 54270, Note_on_c, 0, 80, 0
2, 54270, Note_on_c, 0, 79, 100
2, 54300, Note_on_c, 0, 79, 0
2, 54300, Note_on_c, 0, 77, 100
2, 54330, Note_on_c, 0, 77, 0
2, 54330, Note_on_c, 0, 75, 100
2, 54360, Note_on_c, 0, 75, 0
2, 54360, Note_on_c, 0, 75, 100
2, 54480, Note_on_c, 0, 75, 0
2, 54480, Note_on_c, 0, 74, 100
2, 54540, Note_on_c, 0, 74, 0
2, 54600, Note_on_c, 0, 70, 100
2, 54690, Note_on_c, 0, 70, 0
2, 54690, Note_on_c, 0, 80, 100
2, 54720, Note_on_c, 0, 80, 0
2, 54720, Note_on_c, 0, 80, 100
2, 54900, Note_on_c, 0, 80, 0
2, 54900, Note_on_c, 0, 77, 100
2, 54960, Note_on_c, 0, 77, 0
2, 54960, Note_on_c, 0, 74, 100
2, 55020, Note_on_c, 0, 74, 0
2, 55020, Note_on_c, 0, 70, 100
2, 55080, Note_on_c, 0, 70, 0
2, 55080, Note_on_c, 0, 68, 100
2, 55140, Note_on_c, 0, 68, 0
2, 55140, Note_on_c, 0, 65, 100
2, 55200, Note_on_c, 0, 65, 0
2, 55200, Note_on_c, 0, 62, 100
2, 55260, Note_on_c, 0, 62, 0
2, 55260, Note_on_c, 0, 58, 100
2, 55320, Note_on_c, 0, 58, 0
2, 55320, Note_on_c, 0, 63, 100
2, 55380, Note_on_c, 0, 63, 0
2, 55380, Note_on_c, 0, 67, 100
2, 55440, Note_on_c, 0, 67, 0
2, 55440, Note_on_c, 0, 70, 100
2, 55440, Note_on_c, 0, 67, 100
2, 55530, Note_on_c, 0, 67, 0
2, 55530, Note_on_c, 0, 70, 0
2, 55530, Note_on_c, 0, 68, 100
2, 55530, Note_on_c, 0, 65, 100
2, 55560, Note_on_c, 0, 65, 0
2, 55560, Note_on_c, 0, 68, 0
2, 55560, Note_on_c, 0, 67, 100
2, 55560, Note_on_c, 0, 63, 100
2, 55680, Note_on_c, 0, 63, 0
2, 55680, Note_on_c, 0, 67, 0
2, 55680, Note_on_c, 0, 56, 100
2, 55680, Note_on_c, 0, 62, 100
2, 55680, Note_on_c, 0, 65, 100
2, 55800, Note_on_c, 0, 65, 0
2, 55800, Note_on_c, 0, 62, 0
2, 55800, Note_on_c, 0, 56, 0
2, 55800, Note_on_c, 0, 63, 100
2, 55800, Note_on_c, 0, 55, 100
2, 55920, Note_on_c, 0, 55, 0
2, 55920, Note_on_c, 0, 63, 0
2, 56040, Note_on_c, 0, 70, 100
2, 56130, Note_on_c, 0, 70, 0
2, 56130, Note_on_c, 0, 75, 100
2, 56160, Note_on_c, 0, 75, 0
2, 56160, Note_on_c, 0, 63, 100
2, 56160, Note_on_c, 0, 75, 100
2, 56400, Note_on_c, 0, 75, 0
2, 56400, Note_on_c, 0, 63, 0
2, 56400, Note_on_c, 0, 70, 100
2, 56490, Note_on_c, 0, 70, 0
2, 56490, Note_on_c, 0, 79, 100
2, 56520, Note_on_c, 0, 79, 0
2, 56520, Note_on_c, 0, 67, 100
2, 56520, Note_on_c, 0, 79, 100
2, 56760, Note_on_c, 0, 79, 0
2, 56760, Note_on_c, 0, 67, 0
2, 56760, Note_on_c, 0, 70, 100
2, 56850, Note_on_c, 0, 70, 0
2, 56850, Note_on_c, 0, 82, 100
2, 56880, Note_on_c, 0, 82, 0
2, 56880, Note_on_c, 0, 70, 100
2, 56880, Note_on_c, 0, 82, 100
2, 57120, Note_on_c, 0, 82, 0
2, 57120, Note_on_c, 0, 70, 0
2, 57120, Note_on_c, 0, 80, 100
2, 57150, Note_on_c, 0, 80, 0
2, 57150, Note_on_c, 0, 79, 100
2, 57180, Note_on_c, 0, 79, 0
2, 57180, Note_on_c, 0, 77, 100
2, 57210, Note_on_c, 0, 77, 0
2, 57210, Note_on_c, 0, 75, 100
2, 57240, Note_on_c, 0, 75, 0
2, 57240, Note_on_c, 0, 75, 100
2, 57360, Note_on_c, 0, 75, 0
2, 57360, Note_on_c, 0, 74, 100
2, 57420, Note_on_c, 0, 74, 0
2, 57480, Note_on_c, 0, 70, 100
2, 57570, Note_on_c, 0, 70, 0
2, 57570, Note_on_c, 0, 80, 100
2, 57600, Note_on_c, 0, 80, 0
2, 57600, Note_on_c, 0, 80, 100
2, 57780, Note_on_c, 0, 80, 0
2, 57780, Note_on_c, 0, 77, 100
2, 57840, Note_on_c, 0, 77, 0
2, 57840, Note_on_c, 0, 74, 100
2, 57900, Note_on_c, 0, 74, 0
2, 57900, Note_on_c, 0, 70, 100
2, 57960, Note_on_c, 0, 70, 0
2, 57960, Note_on_c, 0, 68, 100
2, 58020, Note_on_c, 0, 68, 0
2, 58020, Note_on_c, 0, 65, 100
2, 58080, Note_on_c, 0, 65, 0
2, 58080, Note_on_c, 0, 62, 100
2, 58140, Note_on_c, 0, 62, 0
2, 58140, Note_on_c, 0, 58, 100
2, 58200, Note_on_c, 0, 58, 0
2, 58200, Note_on_c, 0, 63, 100
2, 58260, Note_on_c, 0, 63, 0
2, 58260, Note_on_c, 0, 67, 100
2, 58320, Note_on_c, 0, 67, 0
2, 58320, Note_on_c, 0, 70, 100
2, 58320, Note_on_c, 0, 67, 100
2, 58410, Note_on_c, 0, 67, 0
2, 58410, Note_on_c, 0, 70, 0
2, 58410, Note_on_c, 0, 68, 100
2, 58410, Note_on_c, 0, 65, 100
2, 58440, Note_on_c, 0, 65, 0
2, 58440, Note_on_c, 0, 68, 0
2, 58440, Note_on_c, 0, 67, 100
2, 58440, Note_on_c, 0, 63, 100
2, 58560, Note_on_c, 0, 63, 0
2, 58560, Note_on_c, 0, 67, 0
2, 58560, Note_on_c, 0, 56, 100
2, 58560, Note_on_c, 0, 62, 100
2, 58560, Note_on_c, 0, 65, 100
2, 58680, Note_on_c, 0, 65, 0
2, 58680, Note_on_c, 0, 62, 0
2, 58680, Note_on_c, 0, 56, 0
2, 58680, Note_on_c, 0, 63, 100
2, 58680, Note_on_c, 0, 55, 100
2, 58800, Note_on_c, 0, 55, 0
2, 58800, Note_on_c, 0, 63, 0
2, 58920, Note_on_c, 0, 63, 100
2, 59010, Note_on_c, 0, 63, 0
2, 59010, Note_on_c, 0, 75, 100
2, 59040, Note_on_c, 0, 75, 0
2, 59040, Note_on_c, 0, 75, 100
2, 59040, Note_on_c, 0, 63, 100
2, 59160, Note_on_c, 0, 63, 0
2, 59160, Note_on_c, 0, 75, 0
2, 59160, Note_on_c, 0, 74, 100
2, 59160, Note_on_c, 0, 63, 100
2, 59280, Note_on_c, 0, 63, 0
2, 59280, Note_on_c, 0, 74, 0
2, 59280, Note_on_c, 0, 72, 100
2, 59280, Note_on_c, 0, 63, 100
2, 59400, Note_on_c, 0, 63, 0
2, 59400, Note_on_c, 0, 72, 0
2, 59400, Note_on_c, 0, 70, 100
2, 59400, Note_on_c, 0, 63, 100
2, 59520, Note_on_c, 0, 63, 0
2, 59520, Note_on_c, 0, 70, 0
2, 59640, Note_on_c, 0, 63, 100
2, 59730, Note_on_c, 0, 63, 0
2, 59730, Note_on_c, 0, 75, 100
2, 59760, Note_on_c, 0, 75, 0
2, 59760, Note_on_c, 0, 75, 100
2, 59760, Note_on_c, 0, 63, 100
2, 59880, Note_on_c, 0, 63, 0
2, 59880, Note_on_c, 0, 75, 0
2, 59880, Note_on_c, 0, 74, 100
2, 59880, Note_on_c, 0, 63, 100
2, 60000, Note_on_c, 0, 63, 0
2, 60000, Note_on_c, 0, 74, 0
2, 60000, Note_on_c, 0, 72, 100
2, 60000, Note_on_c, 0, 63, 100
2, 60120, Note_on_c, 0, 63, 0
2, 60120, Note_on_c, 0, 72, 0
2, 60120, Note_on_c, 0, 70, 100
2, 60120, Note_on_c, 0, 63, 100
2, 60240, Note_on_c, 0, 63, 0
2, 60240, Note_on_c, 0, 70, 0
2, 60360, Note_on_c, 0, 70, 100
2, 60450, Note_on_c, 0, 70, 0
2, 60450, Note_on_c, 0, 80, 100
2, 60480, Note_on_c, 0, 80, 0
2, 60480, Note_on_c, 0, 68, 100
2, 60480, Note_on_c, 0, 80, 100
2, 60660, Note_on_c, 0, 80, 0
2, 60660, Note_on_c, 0, 68, 0
2, 60660, Note_on_c, 0, 77, 100
2, 60720, Note_on_c, 0, 77, 0
2, 60720, Note_on_c, 0, 74, 100
2, 60780, Note_on_c, 0, 74, 0
2, 60780, Note_on_c, 0, 70, 100
2, 60840, Note_on_c, 0, 70, 0
2, 60840, Note_on_c, 0, 68, 100
2, 60900, Note_on_c, 0, 68, 0
2, 60900, Note_on_c, 0, 65, 100
2, 60960, Note_on_c, 0, 65, 0
2, 60960, Note_on_c, 0, 62, 100
2, 61020, Note_on_c, 0, 62, 0
2, 61020, Note_on_c, 0, 58, 100
2, 61080, Note_on_c, 0, 58, 0
2, 61080, Note_on_c, 0, 63, 100
2, 61140, Note_on_c, 0, 63, 0
2, 61140, Note_on_c, 0, 67, 100
2, 61200, Note_on_c, 0, 67, 0
2, 61200, Note_on_c, 0, 70, 100
2, 61200, Note_on_c, 0, 67, 100
2, 61290, Note_on_c, 0, 67, 0
2, 61290, Note_on_c, 0, 70, 0
2, 61290, Note_on_c, 0, 68, 100
2, 61290, Note_on_c, 0, 65, 100
2, 61320, Note_on_c, 0, 65, 0
2, 61320, Note_on_c, 0, 68, 0
2, 61320, Note_on_c, 0, 67, 100
2, 61320, Note_on_c, 0, 63, 100
2, 61440, Note_on_c, 0, 63, 0
2, 61440, Note_on_c, 0, 67, 0
2, 61440, Note_on_c, 0, 62, 119
2, 61440, Note_on_c, 0, 56, 119
2, 61440, Note_on_c, 0, 65, 119
2, 61560, Note_on_c, 0, 65, 0
2, 61560, Note_on_c, 0, 56, 0
2, 61560, Note_on_c, 0, 62, 0
2, 61560, Note_on_c, 0, 55, 119
2, 61560, Note_on_c, 0, 63, 119
2, 61680, Note_on_c, 0, 63, 0
2, 61680, Note_on_c, 0, 55, 0
2, 61800, Note_on_c, 0, 63, 85
2, 61890, Note_on_c, 0, 63, 0
2, 61890, Note_on_c, 0, 75, 88
2, 61920, Note_on_c, 0, 75, 0
2, 61920, Note_on_c, 0, 75, 89
2, 61920, Note_on_c, 0, 63, 89
2, 62040, Note_on_c, 0, 63, 0
2, 62040, Note_on_c, 0, 75, 0
2, 62040, Note_on_c, 0, 74, 89
2, 62040, Note_on_c, 0, 63, 89
2, 62160, Note_on_c, 0, 63, 0
2, 62160, Note_on_c, 0, 74, 0
2, 62160, Note_on_c, 0, 72, 90
2, 62160, Note_on_c, 0, 63, 90
2, 62280, Note_on_c, 0, 63, 0
2, 62280, Note_on_c, 0, 72, 0
2, 62280, Note_on_c, 0, 70, 92
2, 62280, Note_on_c, 0, 63, 92
2, 62400, Note_on_c, 0, 63, 0
2, 62400, Note_on_c, 0, 70, 0
2, 62520, Note_on_c, 0, 63, 95
2, 62610, Note_on_c, 0, 63, 0
2, 62610, Note_on_c, 0, 75, 95
2, 62640, Note_on_c, 0, 75, 0
2, 62640, Note_on_c, 0, 75, 95
2, 62640, Note_on_c, 0, 63, 95
2, 62760, Note_on_c, 0, 63, 0
2, 62760, Note_on_c, 0, 75, 0
2, 62760, Note_on_c, 0, 74, 95
2, 62760, Note_on_c, 0, 63, 95
2, 62880, Note_on_c, 0, 63, 0
2, 62880, Note_on_c, 0, 74, 0
2, 62880, Note_on_c, 0, 72, 95
2, 62880, Note_on_c, 0, 63, 95
2, 63000, Note_on_c, 0, 63, 0
2, 63000, Note_on_c, 0, 72, 0
2, 63000, Note_on_c, 0, 70, 95
2, 63000, Note_on_c, 0, 63, 95
2, 63120, Note_on_c, 0, 63, 0
2, 63120, Note_on_c, 0, 70, 0
2, 63240, Note_on_c, 0, 70, 117
2, 63330, Note_on_c, 0, 70, 0
2, 63330, Note_on_c, 0, 80, 117
2, 63360, Note_on_c, 0, 80, 0
2, 63360, Note_on_c, 0, 68, 117
2, 63360, Note_on_c, 0, 80, 117
2, 63540, Note_on_c, 0, 80, 0
2, 63540, Note_on_c, 0, 68, 0
2, 63540, Note_on_c, 0, 77, 95
2, 63600, Note_on_c, 0, 77, 0
2, 63600, Note_on_c, 0, 74, 94
2, 63660, Note_on_c, 0, 74, 0
2, 63660, Note_on_c, 0, 70, 94
2, 63720, Note_on_c, 0, 70, 0
2, 63720, Note_on_c, 0, 68, 94
2, 63780, Note_on_c, 0, 68, 0
2, 63780, Note_on_c, 0, 65, 93
2, 63840, Note_on_c, 0, 65, 0
2, 63840, Note_on_c, 0, 62, 93
2, 63900, Note_on_c, 0, 62, 0
2, 63900, Note_on_c, 0, 58, 93
2, 63960, Note_on_c, 0, 58, 0
2, 63960, Note_on_c, 0, 63, 93
2, 64020, Note_on_c, 0, 63, 0
2, 64020, Note_on_c, 0, 67, 92
2, 64080, Note_on_c, 0, 67, 0
2, 64080, Note_on_c, 0, 70, 92
2, 64080, Note_on_c, 0, 67, 92
2, 64170, Note_on_c, 0, 67, 0
2, 64170, Note_on_c, 0, 70, 0
2, 64170, Note_on_c, 0, 68, 90
2, 64170, Note_on_c, 0, 65, 90
2, 64200, Note_on_c, 0, 65, 0
2, 64200, Note_on_c, 0, 68, 0
2, 64200, Note_on_c, 0, 67, 90
2, 64200, Note_on_c, 0, 63, 90
2, 64320, Note_on_c, 0, 63, 0
2, 64320, Note_on_c, 0, 67, 0
2, 64320, Note_on_c, 0, 62, 124
2, 64320, Note_on_c, 0, 56, 124
2, 64320, Note_on_c, 0, 65, 124
2, 64440, Note_on_c, 0, 65, 0
2, 64440, Note_on_c, 0, 56, 0
2, 64440, Note_on_c, 0, 62, 0
2, 64440, Note_on_c, 0, 55, 119
2, 64440, Note_on_c, 0, 63, 119
2, 64560, Note_on_c, 0, 63, 0
2, 64560, Note_on_c, 0, 55, 0
2, 64680, Note_on_c, 0, 58, 90
2, 64800, Note_on_c, 0, 58, 0
2, 64800, Note_on_c, 0, 63, 90
2, 65160, Note_on_c, 0, 63, 0
2, 65160, Note_on_c, 0, 65, 90
2, 65260, Note_on_c, 0, 67, 90
2, 65275, Note_on_c, 0, 67, 0
2, 65280, Note_on_c, 0, 65, 0
2, 65280, Note_on_c, 0, 65, 90
2, 65340, Note_on_c, 0, 65, 0
2, 65340, Note_on_c, 0, 63, 90
2, 65400, Note_on_c, 0, 63, 0
2, 65400, Note_on_c, 0, 65, 90
2, 65460, Note_on_c, 0, 65, 0
2, 65460, Note_on_c, 0, 67, 90
2, 65520, Note_on_c, 0, 67, 0
2, 65520, Note_on_c, 0, 63, 91
2, 65760, Note_on_c, 0, 63, 0
2, 65760, Note_on_c, 0, 65, 91
2, 65850, Note_on_c, 0, 65, 0
2, 65850, Note_on_c, 0, 67, 91
2, 65880, Note_on_c, 0, 67, 0
2, 65880, Note_on_c, 0, 68, 91
2, 65980, Note_on_c, 0, 70, 91
2, 65995, Note_on_c, 0, 70, 0
2, 66000, Note_on_c, 0, 68, 0
2, 66000, Note_on_c, 0, 68, 91
2, 66060, Note_on_c, 0, 68, 0
2, 66060, Note_on_c, 0, 67, 91
2, 66120, Note_on_c, 0, 67, 0
2, 66120, Note_on_c, 0, 68, 91
2, 66180, Note_on_c, 0, 68, 0
2, 66180, Note_on_c, 0, 70, 91
2, 66240, Note_on_c, 0, 70, 0
2, 66240, Note_on_c, 0, 67, 91
2, 66360, Note_on_c, 0, 67, 0
2, 66360, Note_on_c, 0, 79, 91
2, 66480, Note_on_c, 0, 79, 0
2, 66480, Note_on_c, 0, 79, 91
2, 66600, Note_on_c, 0, 79, 0
2, 66600, Note_on_c, 0, 79, 91
2, 66780, Note_on_c, 0, 79, 0
2, 66780, Note_on_c, 0, 77, 90
2, 66840, Note_on_c, 0, 77, 0
2, 66840, Note_on_c, 0, 76, 90
2, 66900, Note_on_c, 0, 76, 0
2, 66900, Note_on_c, 0, 75, 96
2, 66960, Note_on_c, 0, 75, 0
2, 66960, Note_on_c, 0, 74, 96
2, 67020, Note_on_c, 0, 74, 0
2, 67020, Note_on_c, 0, 75, 96
2, 67080, Note_on_c, 0, 75, 0
2, 67080, Note_on_c, 0, 72, 95
2, 67140, Note_on_c, 0, 72, 0
2, 67140, Note_on_c, 0, 74, 95
2, 67200, Note_on_c, 0, 74, 0
2, 67200, Note_on_c, 0, 75, 95
2, 67260, Note_on_c, 0, 75, 0
2, 67260, Note_on_c, 0, 77, 95
2, 67320, Note_on_c, 0, 77, 0
2, 67320, Note_on_c, 0, 70, 95
2, 67440, Note_on_c, 0, 70, 0
2, 67680, Note_on_c, 0, 63, 95
2, 68040, Note_on_c, 0, 63, 0
2, 68040, Note_on_c, 0, 65, 95
2, 68140, Note_on_c, 0, 67, 95
2, 68155, Note_on_c, 0, 67, 0
2, 68160, Note_on_c, 0, 65, 0
2, 68160, Note_on_c, 0, 65, 95
2, 68220, Note_on_c, 0, 65, 0
2, 68220, Note_on_c, 0, 63, 95
2, 68280, Note_on_c, 0, 63, 0
2, 68280, Note_on_c, 0, 65, 95
2, 68340, Note_on_c, 0, 65, 0
2, 68340, Note_on_c, 0, 67, 96
2, 68400, Note_on_c, 0, 67, 0
2, 68400, Note_on_c, 0, 63, 97
2, 68640, Note_on_c, 0, 63, 0
2, 68640, Note_on_c, 0, 65, 99
2, 68730, Note_on_c, 0, 65, 0
2, 68730, Note_on_c, 0, 67, 99
2, 68760, Note_on_c, 0, 67, 0
2, 68760, Note_on_c, 0, 68, 99
2, 68860, Note_on_c, 0, 70, 100
2, 68875, Note_on_c, 0, 70, 0
2, 68880, Note_on_c, 0, 68, 0
2, 68880, Note_on_c, 0, 68, 100
2, 68940, Note_on_c, 0, 68, 0
2, 68940, Note_on_c, 0, 67, 102
2, 69000, Note_on_c, 0, 67, 0
2, 69000, Note_on_c, 0, 68, 102
2, 69060, Note_on_c, 0, 68, 0
2, 69060, Note_on_c, 0, 70, 102
2, 69120, Note_on_c, 0, 70, 0
2, 69120, Note_on_c, 0, 67, 102
2, 69240, Note_on_c, 0, 67, 0
2, 69240, Note_on_c, 0, 79, 100
2, 69360, Note_on_c, 0, 79, 0
2, 69360, Note_on_c, 0, 79, 100
2, 69480, Note_on_c, 0, 79, 0
2, 69480, Note_on_c, 0, 79, 100
2, 69660, Note_on_c, 0, 79, 0
2, 69660, Note_on_c, 0, 77, 100
2, 69720, Note_on_c, 0, 77, 0
2, 69720, Note_on_c, 0, 76, 99
2, 69780, Note_on_c, 0, 76, 0
2, 69780, Note_on_c, 0, 75, 98
2, 69840, Note_on_c, 0, 75, 0
2, 69840, Note_on_c, 0, 74, 98
2, 69900, Note_on_c, 0, 74, 0
2, 69900, Note_on_c, 0, 75, 96
2, 69960, Note_on_c, 0, 75, 0
2, 69960, Note_on_c, 0, 72, 93
2, 70020, Note_on_c, 0, 72, 0
2, 70020, Note_on_c, 0, 74, 92
2, 70080, Note_on_c, 0, 74, 0
2, 70080, Note_on_c, 0, 75, 91
2, 70140, Note_on_c, 0, 75, 0
2, 70140, Note_on_c, 0, 77, 90
2, 70200, Note_on_c, 0, 77, 0
2, 70200, Note_on_c, 0, 70, 89
2, 70320, Note_on_c, 0, 70, 0
2, 70560, Note_on_c, 0, 70, 92
2, 70680, Note_on_c, 0, 70, 0
2, 70860, Note_on_c, 0, 70, 94
2, 70920, Note_on_c, 0, 70, 0
2, 70920, Note_on_c, 0, 69, 94
2, 70980, Note_on_c, 0, 69, 0
2, 70980, Note_on_c, 0, 70, 94
2, 71040, Note_on_c, 0, 70, 0
2, 71040, Note_on_c, 0, 69, 94
2, 71100, Note_on_c, 0, 69, 0
2, 71100, Note_on_c, 0, 70, 94
2, 71160, Note_on_c, 0, 70, 0
2, 71160, Note_on_c, 0, 77, 94
2, 71220, Note_on_c, 0, 77, 0
2, 71220, Note_on_c, 0, 75, 95
2, 71280, Note_on_c, 0, 75, 0
2, 71280, Note_on_c, 0, 75, 95
2, 71400, Note_on_c, 0, 75, 0
2, 71400, Note_on_c, 0, 74, 95
2, 71520, Note_on_c, 0, 74, 0
2, 71580, Note_on_c, 0, 70, 96
2, 71640, Note_on_c, 0, 70, 0
2, 71640, Note_on_c, 0, 69, 96
2, 71700, Note_on_c, 0, 69, 0
2, 71700, Note_on_c, 0, 70, 96
2, 71760, Note_on_c, 0, 70, 0
2, 71760, Note_on_c, 0, 69, 96
2, 71820, Note_on_c, 0, 69, 0
2, 71820, Note_on_c, 0, 70, 96
2, 71880, Note_on_c, 0, 70, 0
2, 71880, Note_on_c, 0, 78, 97
2, 71880, Note_on_c, 0, 74, 97
2, 71940, Note_on_c, 0, 74, 0
2, 71940, Note_on_c, 0, 78, 0
2, 71940, Note_on_c, 0, 79, 97
2, 71940, Note_on_c, 0, 75, 97
2, 72000, Note_on_c, 0, 75, 0
2, 72000, Note_on_c, 0, 79, 0
2, 72000, Note_on_c, 0, 75, 97
2, 72000, Note_on_c, 0, 79, 97
2, 72120, Note_on_c, 0, 79, 0
2, 72120, Note_on_c, 0, 75, 0
2, 72120, Note_on_c, 0, 74, 97
2, 72120, Note_on_c, 0, 77, 97
2, 72240, Note_on_c, 0, 77, 0
2, 72240, Note_on_c, 0, 74, 0
2, 72300, Note_on_c, 0, 70, 98
2, 72360, Note_on_c, 0, 70, 0
2, 72360, Note_on_c, 0, 75, 99
2, 72600, Note_on_c, 0, 75, 0
2, 72600, Note_on_c, 0, 77, 124
2, 72630, Note_on_c, 0, 77, 0
2, 72630, Note_on_c, 0, 75, 124
2, 72660, Note_on_c, 0, 75, 0
2, 72660, Note_on_c, 0, 74, 124
2, 72690, Note_on_c, 0, 74, 0
2, 72690, Note_on_c, 0, 75, 124
2, 72720, Note_on_c, 0, 75, 0
2, 72720, Note_on_c, 0, 77, 124
2, 72900, Note_on_c, 0, 77, 0
2, 72900, Note_on_c, 0, 79, 92
2, 72960, Note_on_c, 0, 79, 0
2, 72960, Note_on_c, 0, 80, 92
2, 73020, Note_on_c, 0, 80, 0
2, 73020, Note_on_c, 0, 74, 92
2, 73080, Note_on_c, 0, 74, 0
2, 73080, Note_on_c, 0, 75, 92
2, 73140, Note_on_c, 0, 75, 0
2, 73140, Note_on_c, 0, 76, 92
2, 73200, Note_on_c, 0, 76, 0
2, 73200, Note_on_c, 0, 77, 92
2, 73260, Note_on_c, 0, 77, 0
2, 73260, Note_on_c, 0, 79, 92
2, 73320, Note_on_c, 0, 79, 0
2, 73320, Note_on_c, 0, 80, 92
2, 73380, Note_on_c, 0, 80, 0
2, 73380, Note_on_c, 0, 74, 93
2, 73440, Note_on_c, 0, 74, 0
2, 73440, Note_on_c, 0, 75, 93
2, 73560, Note_on_c, 0, 75, 0
2, 73800, Note_on_c, 0, 69, 93
2, 73860, Note_on_c, 0, 69, 0
2, 73860, Note_on_c, 0, 70, 93
2, 73920, Note_on_c, 0, 70, 0
2, 73920, Note_on_c, 0, 69, 93
2, 73980, Note_on_c, 0, 69, 0
2, 73980, Note_on_c, 0, 70, 93
2, 74040, Note_on_c, 0, 70, 0
2, 74040, Note_on_c, 0, 78, 94
2, 74040, Note_on_c, 0, 74, 94
2, 74100, Note_on_c, 0, 74, 0
2, 74100, Note_on_c, 0, 78, 0
2, 74100, Note_on_c, 0, 79, 94
2, 74100, Note_on_c, 0, 75, 94
2, 74160, Note_on_c, 0, 75, 0
2, 74160, Note_on_c, 0, 79, 0
2, 74160, Note_on_c, 0, 75, 94
2, 74160, Note_on_c, 0, 79, 94
2, 74280, Note_on_c, 0, 79, 0
2, 74280, Note_on_c, 0, 75, 0
2, 74280, Note_on_c, 0, 74, 97
2, 74280, Note_on_c, 0, 77, 97
2, 74400, Note_on_c, 0, 77, 0
2, 74400, Note_on_c, 0, 74, 0
2, 74460, Note_on_c, 0, 70, 99
2, 74520, Note_on_c, 0, 70, 0
2, 74520, Note_on_c, 0, 75, 101
2, 74760, Note_on_c, 0, 75, 0
2, 74760, Note_on_c, 0, 77, 125
2, 74790, Note_on_c, 0, 77, 0
2, 74790, Note_on_c, 0, 75, 125
2, 74820, Note_on_c, 0, 75, 0
2, 74820, Note_on_c, 0, 74, 125
2, 74850, Note_on_c, 0, 74, 0
2, 74850, Note_on_c, 0, 75, 125
2, 74880, Note_on_c, 0, 75, 0
2, 74880, Note_on_c, 0, 77, 125
2, 75060, Note_on_c, 0, 77, 0
2, 75060, Note_on_c, 0, 79, 106
2, 75120, Note_on_c, 0, 79, 0
2, 75120, Note_on_c, 0, 80, 104
2, 75180, Note_on_c, 0, 80, 0
2, 75180, Note_on_c, 0, 74, 103
2, 75240, Note_on_c, 0, 74, 0
2, 75240, Note_on_c, 0, 75, 100
2, 75300, Note_on_c, 0, 75, 0
2, 75300, Note_on_c, 0, 76, 97
2, 75360, Note_on_c, 0, 76, 0
2, 75360, Note_on_c, 0, 77, 95
2, 75420, Note_on_c, 0, 77, 0
2, 75420, Note_on_c, 0, 79, 92
2, 75480, Note_on_c, 0, 79, 0
2, 75480, Note_on_c, 0, 80, 89
2, 75540, Note_on_c, 0, 80, 0
2, 75540, Note_on_c, 0, 74, 87
2, 75600, Note_on_c, 0, 74, 0
2, 75600, Note_on_c, 0, 75, 85
2, 75720, Note_on_c, 0, 75, 0
2, 75960, Note_on_c, 0, 75, 81
2, 76080, Note_on_c, 0, 75, 0
2, 76860, Note_on_c, 0, 58, 70
2, 76920, Note_on_c, 0, 58, 0
2, 76920, Note_on_c, 0, 62, 70
2, 76980, Note_on_c, 0, 62, 0
2, 76980, Note_on_c, 0, 65, 70
2, 77040, Note_on_c, 0, 65, 0
2, 77040, Note_on_c, 0, 62, 70
2, 77040, Note_on_c, 0, 65, 70
2, 77040, Note_on_c, 0, 70, 70
2, 77400, Note_on_c, 0, 70, 0
2, 77400, Note_on_c, 0, 65, 0
2, 77400, Note_on_c, 0, 62, 0
2, 77400, Note_on_c, 0, 74, 60
2, 77460, Note_on_c, 0, 74, 0
2, 77460, Note_on_c, 0, 72, 67
2, 77520, Note_on_c, 0, 72, 0
2, 77520, Note_on_c, 0, 72, 68
2, 77560, Note_on_c, 0, 72, 0
2, 77560, Note_on_c, 0, 71, 68
2, 77600, Note_on_c, 0, 71, 0
2, 77600, Note_on_c, 0, 72, 68
2, 77640, Note_on_c, 0, 72, 0
2, 77640, Note_on_c, 0, 65, 68
2, 77760, Note_on_c, 0, 65, 0
2, 77760, Note_on_c, 0, 65, 68
2, 77760, Note_on_c, 0, 70, 68
2, 77760, Note_on_c, 0, 74, 68
2, 78120, Note_on_c, 0, 74, 0
2, 78120, Note_on_c, 0, 70, 0
2, 78120, Note_on_c, 0, 65, 0
2, 78120, Note_on_c, 0, 77, 100
2, 78120, Note_on_c, 0, 69, 100
2, 78120, Note_on_c, 0, 65, 100
2, 78180, Note_on_c, 0, 77, 0
2, 78180, Note_on_c, 0, 75, 100
2, 78240, Note_on_c, 0, 75, 0
2, 78240, Note_on_c, 0, 65, 0
2, 78240, Note_on_c, 0, 69, 0
2, 78240, Note_on_c, 0, 72, 100
2, 78240, Note_on_c, 0, 69, 100
2, 78240, Note_on_c, 0, 65, 100
2, 78360, Note_on_c, 0, 65, 0
2, 78360, Note_on_c, 0, 69, 0
2, 78360, Note_on_c, 0, 72, 0
2, 78480, Note_on_c, 0, 69, 60
2, 78480, Note_on_c, 0, 65, 60
2, 78480, Note_on_c, 0, 60, 60
2, 78840, Note_on_c, 0, 60, 0
2, 78840, Note_on_c, 0, 65, 0
2, 78840, Note_on_c, 0, 69, 0
2, 78840, Note_on_c, 0, 65, 60
2, 78840, Note_on_c, 0, 62, 60
2, 78840, Note_on_c, 0, 70, 60
2, 78960, Note_on_c, 0, 70, 0
2, 78960, Note_on_c, 0, 62, 0
2, 78960, Note_on_c, 0, 65, 0
2, 78960, Note_on_c, 0, 63, 71
2, 78960, Note_on_c, 0, 69, 71
2, 78960, Note_on_c, 0, 72, 71
2, 79080, Note_on_c, 0, 72, 0
2, 79080, Note_on_c, 0, 69, 0
2, 79080, Note_on_c, 0, 63, 0
2, 79080, Note_on_c, 0, 74, 71
2, 79080, Note_on_c, 0, 70, 71
2, 79080, Note_on_c, 0, 65, 71
2, 79200, Note_on_c, 0, 65, 0
2, 79200, Note_on_c, 0, 70, 0
2, 79200, Note_on_c, 0, 74, 0
2, 79200, Note_on_c, 0, 67, 71
2, 79320, Note_on_c, 0, 67, 0
2, 79320, Note_on_c, 0, 67, 71
2, 79320, Note_on_c, 0, 63, 71
2, 79320, Note_on_c, 0, 72, 71
2, 79440, Note_on_c, 0, 72, 0
2, 79440, Note_on_c, 0, 63, 0
2, 79440, Note_on_c, 0, 67, 0
2, 79440, Note_on_c, 0, 69, 71
2, 79440, Note_on_c, 0, 63, 71
2, 79560, Note_on_c, 0, 63, 0
2, 79560, Note_on_c, 0, 69, 0
2, 79560, Note_on_c, 0, 70, 71
2, 79560, Note_on_c, 0, 62, 71
2, 79680, Note_on_c, 0, 62, 0
2, 79680, Note_on_c, 0, 70, 0
2, 79740, Note_on_c, 0, 58, 71
2, 79800, Note_on_c, 0, 58, 0
2, 79800, Note_on_c, 0, 62, 71
2, 79860, Note_on_c, 0, 62, 0
2, 79860, Note_on_c, 0, 65, 71
2, 79920, Note_on_c, 0, 65, 0
2, 79920, Note_on_c, 0, 62, 71
2, 79920, Note_on_c, 0, 65, 71
2, 79920, Note_on_c, 0, 70, 71
2, 80280, Note_on_c, 0, 70, 0
2, 80280, Note_on_c, 0, 65, 0
2, 80280, Note_on_c, 0, 62, 0
2, 80280, Note_on_c, 0, 74, 70
2, 80340, Note_on_c, 0, 74, 0
2, 80340, Note_on_c, 0, 72, 70
2, 80400, Note_on_c, 0, 72, 0
2, 80400, Note_on_c, 0, 72, 70
2, 80440, Note_on_c, 0, 72, 0
2, 80440, Note_on_c, 0, 71, 70
2, 80480, Note_on_c, 0, 71, 0
2, 80480, Note_on_c, 0, 72, 70
2, 80520, Note_on_c, 0, 72, 0
2, 80520, Note_on_c, 0, 65, 70
2, 80640, Note_on_c, 0, 65, 0
2, 80640, Note_on_c, 0, 65, 76
2, 80640, Note_on_c, 0, 70, 76
2, 80640, Note_on_c, 0, 74, 76
2, 81000, Note_on_c, 0, 74, 0
2, 81000, Note_on_c, 0, 70, 0
2, 81000, Note_on_c, 0, 65, 0
2, 81000, Note_on_c, 0, 77, 100
2, 81000, Note_on_c, 0, 69, 100
2, 81000, Note_on_c, 0, 65, 100
2, 81060, Note_on_c, 0, 77, 0
2, 81060, Note_on_c, 0, 75, 100
2, 81120, Note_on_c, 0, 75, 0
2, 81120, Note_on_c, 0, 65, 0
2, 81120, Note_on_c, 0, 69, 0
2, 81120, Note_on_c, 0, 65, 100
2, 81120, Note_on_c, 0, 72, 100
2, 81120, Note_on_c, 0, 69, 100
2, 81240, Note_on_c, 0, 69, 0
2, 81240, Note_on_c, 0, 72, 0
2, 81240, Note_on_c, 0, 65, 0
2, 81360, Note_on_c, 0, 69, 60
2, 81360, Note_on_c, 0, 65, 60
2, 81360, Note_on_c, 0, 60, 60
2, 81720, Note_on_c, 0, 60, 0
2, 81720, Note_on_c, 0, 65, 0
2, 81720, Note_on_c, 0, 69, 0
2, 81720, Note_on_c, 0, 62, 64
2, 81720, Note_on_c, 0, 70, 64
2, 81720, Note_on_c, 0, 65, 64
2, 81840, Note_on_c, 0, 65, 0
2, 81840, Note_on_c, 0, 70, 0
2, 81840, Note_on_c, 0, 62, 0
2, 81840, Note_on_c, 0, 63, 63
2, 81840, Note_on_c, 0, 69, 63
2, 81840, Note_on_c, 0, 72, 63
2, 81960, Note_on_c, 0, 72, 0
2, 81960, Note_on_c, 0, 69, 0
2, 81960, Note_on_c, 0, 63, 0
2, 81960, Note_on_c, 0, 74, 63
2, 81960, Note_on_c, 0, 70, 63
2, 81960, Note_on_c, 0, 65, 63
2, 82080, Note_on_c, 0, 65, 0
2, 82080, Note_on_c, 0, 70, 0
2, 82080, Note_on_c, 0, 74, 0
2, 82080, Note_on_c, 0, 67, 63
2, 82200, Note_on_c, 0, 67, 0
2, 82200, Note_on_c, 0, 63, 63
2, 82200, Note_on_c, 0, 72, 63
2, 82200, Note_on_c, 0, 67, 63
2, 82320, Note_on_c, 0, 67, 0
2, 82320, Note_on_c, 0, 72, 0
2, 82320, Note_on_c, 0, 63, 0
2, 82320, Note_on_c, 0, 69, 64
2, 82320, Note_on_c, 0, 63, 64
2, 82440, Note_on_c, 0, 63, 0
2, 82440, Note_on_c, 0, 69, 0
2, 82440, Note_on_c, 0, 70, 65
2, 82440, Note_on_c, 0, 62, 65
2, 82560, Note_on_c, 0, 62, 0
2, 82560, Note_on_c, 0, 70, 0
2, 82620, Note_on_c, 0, 65, 69
2, 82680, Note_on_c, 0, 65, 0
2, 82680, Note_on_c, 0, 69, 78
2, 82740, Note_on_c, 0, 69, 0
2, 82740, Note_on_c, 0, 72, 77
2, 82800, Note_on_c, 0, 72, 0
2, 82800, Note_on_c, 0, 77, 76
2, 83160, Note_on_c, 0, 77, 0
2, 83160, Note_on_c, 0, 77, 75
2, 83220, Note_on_c, 0, 77, 0
2, 83220, Note_on_c, 0, 76, 75
2, 83280, Note_on_c, 0, 76, 0
2, 83280, Note_on_c, 0, 76, 75
2, 83320, Note_on_c, 0, 76, 0
2, 83320, Note_on_c, 0, 74, 75
2, 83360, Note_on_c, 0, 74, 0
2, 83360, Note_on_c, 0, 76, 75
2, 83400, Note_on_c, 0, 76, 0
2, 83400, Note_on_c, 0, 72, 75
2, 83520, Note_on_c, 0, 72, 0
2, 83520, Note_on_c, 0, 77, 75
2, 83880, Note_on_c, 0, 77, 0
2, 83880, Note_on_c, 0, 77, 75
2, 83940, Note_on_c, 0, 77, 0
2, 83940, Note_on_c, 0, 75, 75
2, 84000, Note_on_c, 0, 75, 0
2, 84000, Note_on_c, 0, 75, 75
2, 84060, Note_on_c, 0, 75, 0
2, 84060, Note_on_c, 0, 74, 75
2, 84120, Note_on_c, 0, 74, 0
2, 84120, Note_on_c, 0, 75, 75
2, 84180, Note_on_c, 0, 75, 0
2, 84180, Note_on_c, 0, 72, 74
2, 84240, Note_on_c, 0, 72, 0
2, 84240, Note_on_c, 0, 62, 74
2, 84240, Note_on_c, 0, 65, 74
2, 84240, Note_on_c, 0, 70, 74
2, 84600, Note_on_c, 0, 70, 0
2, 84600, Note_on_c, 0, 65, 0
2, 84600, Note_on_c, 0, 62, 0
2, 84600, Note_on_c, 0, 74, 72
2, 84600, Note_on_c, 0, 63, 72
2, 84600, Note_on_c, 0, 65, 72
2, 84660, Note_on_c, 0, 74, 0
2, 84660, Note_on_c, 0, 72, 71
2, 84720, Note_on_c, 0, 72, 0
2, 84720, Note_on_c, 0, 65, 0
2, 84720, Note_on_c, 0, 63, 0
2, 84720, Note_on_c, 0, 72, 71
2, 84760, Note_on_c, 0, 72, 0
2, 84760, Note_on_c, 0, 71, 71
2, 84800, Note_on_c, 0, 71, 0
2, 84800, Note_on_c, 0, 72, 71
2, 84840, Note_on_c, 0, 72, 0
2, 84840, Note_on_c, 0, 65, 71
2, 84960, Note_on_c, 0, 65, 0
2, 84960, Note_on_c, 0, 65, 70
2, 85020, Note_on_c, 0, 65, 0
2, 85020, Note_on_c, 0, 74, 69
2, 85080, Note_on_c, 0, 74, 0
2, 85080, Note_on_c, 0, 72, 69
2, 85080, Note_on_c, 0, 63, 69
2, 85140, Note_on_c, 0, 63, 0
2, 85140, Note_on_c, 0, 72, 0
2, 85140, Note_on_c, 0, 67, 69
2, 85140, Note_on_c, 0, 75, 69
2, 85200, Note_on_c, 0, 75, 0
2, 85200, Note_on_c, 0, 67, 0
2, 85200, Note_on_c, 0, 60, 69
2, 85200, Note_on_c, 0, 69, 69
2, 85260, Note_on_c, 0, 69, 0
2, 85260, Note_on_c, 0, 60, 0
2, 85260, Note_on_c, 0, 72, 69
2, 85260, Note_on_c, 0, 63, 69
2, 85320, Note_on_c, 0, 63, 0
2, 85320, Note_on_c, 0, 72, 0
2, 85320, Note_on_c, 0, 63, 68
2, 85320, Note_on_c, 0, 72, 68
2, 85440, Note_on_c, 0, 72, 0
2, 85440, Note_on_c, 0, 63, 0
2, 85440, Note_on_c, 0, 70, 67
2, 85440, Note_on_c, 0, 62, 67
2, 85500, Note_on_c, 0, 62, 0
2, 85500, Note_on_c, 0, 70, 0
2, 85500, Note_on_c, 0, 65, 67
2, 85560, Note_on_c, 0, 65, 0
2, 85560, Note_on_c, 0, 69, 67
2, 85620, Note_on_c, 0, 69, 0
2, 85620, Note_on_c, 0, 72, 66
2, 85680, Note_on_c, 0, 72, 0
2, 85680, Note_on_c, 0, 77, 66
2, 86040, Note_on_c, 0, 77, 0
2, 86040, Note_on_c, 0, 77, 85
2, 86100, Note_on_c, 0, 77, 0
2, 86100, Note_on_c, 0, 76, 85
2, 86160, Note_on_c, 0, 76, 0
2, 86160, Note_on_c, 0, 76, 85
2, 86200, Note_on_c, 0, 76, 0
2, 86200, Note_on_c, 0, 74, 85
2, 86240, Note_on_c, 0, 74, 0
2, 86240, Note_on_c, 0, 76, 85
2, 86280, Note_on_c, 0, 76, 0
2, 86280, Note_on_c, 0, 72, 85
2, 86400, Note_on_c, 0, 72, 0
2, 86400, Note_on_c, 0, 77, 85
2, 86760, Note_on_c, 0, 77, 0
2, 86760, Note_on_c, 0, 77, 56
2, 86820, Note_on_c, 0, 77, 0
2, 86820, Note_on_c, 0, 75, 57
2, 86880, Note_on_c, 0, 75, 0
2, 86880, Note_on_c, 0, 75, 57
2, 86940, Note_on_c, 0, 75, 0
2, 86940, Note_on_c, 0, 74, 57
2, 87000, Note_on_c, 0, 74, 0
2, 87000, Note_on_c, 0, 75, 57
2, 87060, Note_on_c, 0, 75, 0
2, 87060, Note_on_c, 0, 72, 57
2, 87120, Note_on_c, 0, 72, 0
2, 87120, Note_on_c, 0, 62, 57
2, 87120, Note_on_c, 0, 65, 57
2, 87120, Note_on_c, 0, 70, 57
2, 87480, Note_on_c, 0, 70, 0
2, 87480, Note_on_c, 0, 65, 0
2, 87480, Note_on_c, 0, 62, 0
2, 87480, Note_on_c, 0, 74, 62
2, 87480, Note_on_c, 0, 63, 62
2, 87480, Note_on_c, 0, 65, 62
2, 87540, Note_on_c, 0, 74, 0
2, 87540, Note_on_c, 0, 72, 62
2, 87600, Note_on_c, 0, 72, 0
2, 87600, Note_on_c, 0, 65, 0
2, 87600, Note_on_c, 0, 63, 0
2, 87600, Note_on_c, 0, 72, 63
2, 87640, Note_on_c, 0, 72, 0
2, 87640, Note_on_c, 0, 71, 63
2, 87680, Note_on_c, 0, 71, 0
2, 87680, Note_on_c, 0, 72, 63
2, 87720, Note_on_c, 0, 72, 0
2, 87720, Note_on_c, 0, 65, 63
2, 87840, Note_on_c, 0, 65, 0
2, 87840, Note_on_c, 0, 65, 63
2, 87900, Note_on_c, 0, 65, 0
2, 87900, Note_on_c, 0, 74, 63
2, 87960, Note_on_c, 0, 74, 0
2, 87960, Note_on_c, 0, 72, 63
2, 87960, Note_on_c, 0, 63, 63
2, 88020, Note_on_c, 0, 63, 0
2, 88020, Note_on_c, 0, 72, 0
2, 88020, Note_on_c, 0, 67, 65
2, 88020, Note_on_c, 0, 75, 65
2, 88080, Note_on_c, 0, 75, 0
2, 88080, Note_on_c, 0, 67, 0
2, 88080, Note_on_c, 0, 60, 67
2, 88080, Note_on_c, 0, 69, 67
2, 88140, Note_on_c, 0, 69, 0
2, 88140, Note_on_c, 0, 60, 0
2, 88140, Note_on_c, 0, 72, 67
2, 88140, Note_on_c, 0, 63, 67
2, 88200, Note_on_c, 0, 63, 0
2, 88200, Note_on_c, 0, 72, 0
2, 88200, Note_on_c, 0, 63, 69
2, 88200, Note_on_c, 0, 72, 69
2, 88320, Note_on_c, 0, 72, 0
2, 88320, Note_on_c, 0, 63, 0
2, 88320, Note_on_c, 0, 70, 71
2, 88320, Note_on_c, 0, 62, 71
2, 88380, Note_on_c, 0, 62, 0
2, 88380, Note_on_c, 0, 70, 0
2, 88440, Note_on_c, 0, 65, 74
2, 88620, Note_on_c, 0, 65, 0
2, 88620, Note_on_c, 0, 63, 76
2, 88680, Note_on_c, 0, 63, 0
2, 88680, Note_on_c, 0, 62, 76
2, 88740, Note_on_c, 0, 62, 0
2, 88740, Note_on_c, 0, 60, 83
2, 88800, Note_on_c, 0, 60, 0
2, 88800, Note_on_c, 0, 58, 86
2, 88800, Note_on_c, 0, 70, 86
2, 88920, Note_on_c, 0, 58, 0
2, 88980, Note_on_c, 0, 70, 0
2, 88980, Note_on_c, 0, 69, 86
2, 89040, Note_on_c, 0, 69, 0
2, 89040, Note_on_c, 0, 67, 86
2, 89100, Note_on_c, 0, 67, 0
2, 89100, Note_on_c, 0, 65, 86
2, 89160, Note_on_c, 0, 65, 0
2, 89160, Note_on_c, 0, 75, 86
2, 89160, Note_on_c, 0, 63, 86
2, 89280, Note_on_c, 0, 63, 0
2, 89340, Note_on_c, 0, 75, 0
2, 89340, Note_on_c, 0, 74, 86
2, 89400, Note_on_c, 0, 74, 0
2, 89400, Note_on_c, 0, 72, 86
2, 89460, Note_on_c, 0, 72, 0
2, 89460, Note_on_c, 0, 70, 86
2, 89520, Note_on_c, 0, 70, 0
2, 89520, Note_on_c, 0, 77, 86
2, 89520, Note_on_c, 0, 69, 86
2, 89640, Note_on_c, 0, 69, 0
2, 89640, Note_on_c, 0, 70, 86
2, 89700, Note_on_c, 0, 77, 0
2, 89700, Note_on_c, 0, 75, 86
2, 89760, Note_on_c, 0, 75, 0
2, 89760, Note_on_c, 0, 70, 0
2, 89760, Note_on_c, 0, 74, 86
2, 89820, Note_on_c, 0, 74, 0
2, 89820, Note_on_c, 0, 72, 86
2, 89880, Note_on_c, 0, 72, 0
2, 89880, Note_on_c, 0, 86, 86
2, 89880, Note_on_c, 0, 82, 86
2, 90060, Note_on_c, 0, 82, 0
2, 90060, Note_on_c, 0, 86, 0
2, 90060, Note_on_c, 0, 84, 81
2, 90060, Note_on_c, 0, 81, 81
2, 90120, Note_on_c, 0, 81, 0
2, 90120, Note_on_c, 0, 84, 0
2, 90120, Note_on_c, 0, 82, 81
2, 90120, Note_on_c, 0, 79, 81
2, 90180, Note_on_c, 0, 79, 0
2, 90180, Note_on_c, 0, 82, 0
2, 90180, Note_on_c, 0, 81, 79
2, 90180, Note_on_c, 0, 77, 79
2, 90240, Note_on_c, 0, 77, 0
2, 90240, Note_on_c, 0, 81, 0
2, 90240, Note_on_c, 0, 72, 76
2, 90240, Note_on_c, 0, 79, 76
2, 90240, Note_on_c, 0, 76, 76
2, 90360, Note_on_c, 0, 76, 0
2, 90360, Note_on_c, 0, 79, 0
2, 90360, Note_on_c, 0, 77, 74
2, 90360, Note_on_c, 0, 81, 74
2, 90420, Note_on_c, 0, 72, 0
2, 90420, Note_on_c, 0, 70, 74
2, 90480, Note_on_c, 0, 70, 0
2, 90480, Note_on_c, 0, 81, 0
2, 90480, Note_on_c, 0, 77, 0
2, 90480, Note_on_c, 0, 69, 74
2, 90540, Note_on_c, 0, 69, 0
2, 90540, Note_on_c, 0, 67, 71
2, 90600, Note_on_c, 0, 67, 0
2, 90600, Note_on_c, 0, 81, 71
2, 90600, Note_on_c, 0, 77, 71
2, 90600, Note_on_c, 0, 69, 71
2, 90660, Note_on_c, 0, 77, 0
2, 90660, Note_on_c, 0, 81, 0
2, 90660, Note_on_c, 0, 84, 71
2, 90660, Note_on_c, 0, 81, 71
2, 90720, Note_on_c, 0, 81, 0
2, 90720, Note_on_c, 0, 84, 0
2, 90720, Note_on_c, 0, 69, 0
2, 90720, Note_on_c, 0, 84, 70
2, 90720, Note_on_c, 0, 81, 70
2, 90780, Note_on_c, 0, 81, 0
2, 90780, Note_on_c, 0, 84, 0
2, 90780, Note_on_c, 0, 82, 70
2, 90780, Note_on_c, 0, 79, 70
2, 90840, Note_on_c, 0, 79, 0
2, 90840, Note_on_c, 0, 82, 0
2, 90840, Note_on_c, 0, 82, 68
2, 90840, Note_on_c, 0, 79, 68
2, 90900, Note_on_c, 0, 79, 0
2, 90900, Note_on_c, 0, 82, 0
2, 90900, Note_on_c, 0, 81, 68
2, 90900, Note_on_c, 0, 77, 68
2, 90960, Note_on_c, 0, 77, 0
2, 90960, Note_on_c, 0, 81, 0
2, 90960, Note_on_c, 0, 81, 68
2, 90960, Note_on_c, 0, 77, 68
2, 91020, Note_on_c, 0, 77, 0
2, 91020, Note_on_c, 0, 81, 0
2, 91020, Note_on_c, 0, 79, 68
2, 91020, Note_on_c, 0, 76, 68
2, 91080, Note_on_c, 0, 76, 0
2, 91080, Note_on_c, 0, 79, 0
2, 91080, Note_on_c, 0, 77, 68
2, 91200, Note_on_c, 0, 77, 0
2, 91320, Note_on_c, 0, 65, 61
2, 91500, Note_on_c, 0, 65, 0
2, 91500, Note_on_c, 0, 63, 60
2, 91560, Note_on_c, 0, 63, 0
2, 91560, Note_on_c, 0, 62, 60
2, 91620, Note_on_c, 0, 62, 0
2, 91620, Note_on_c, 0, 60, 60
2, 91680, Note_on_c, 0, 60, 0
2, 91680, Note_on_c, 0, 58, 60
2, 91680, Note_on_c, 0, 70, 60
2, 91800, Note_on_c, 0, 58, 0
2, 91860, Note_on_c, 0, 70, 0
2, 91860, Note_on_c, 0, 69, 58
2, 91920, Note_on_c, 0, 69, 0
2, 91920, Note_on_c, 0, 67, 58
2, 91980, Note_on_c, 0, 67, 0
2, 91980, Note_on_c, 0, 65, 57
2, 92040, Note_on_c, 0, 65, 0
2, 92040, Note_on_c, 0, 75, 57
2, 92040, Note_on_c, 0, 63, 57
2, 92160, Note_on_c, 0, 63, 0
2, 92220, Note_on_c, 0, 75, 0
2, 92220, Note_on_c, 0, 74, 55
2, 92280, Note_on_c, 0, 74, 0
2, 92280, Note_on_c, 0, 72, 55
2, 92340, Note_on_c, 0, 72, 0
2, 92340, Note_on_c, 0, 70, 55
2, 92400, Note_on_c, 0, 70, 0
2, 92400, Note_on_c, 0, 77, 54
2, 92400, Note_on_c, 0, 69, 54
2, 92520, Note_on_c, 0, 69, 0
2, 92520, Note_on_c, 0, 70, 54
2, 92580, Note_on_c, 0, 77, 0
2, 92580, Note_on_c, 0, 75, 54
2, 92640, Note_on_c, 0, 75, 0
2, 92640, Note_on_c, 0, 70, 0
2, 92640, Note_on_c, 0, 74, 54
2, 92700, Note_on_c, 0, 74, 0
2, 92700, Note_on_c, 0, 72, 54
2, 92760, Note_on_c, 0, 72, 0
2, 92760, Note_on_c, 0, 86, 54
2, 92760, Note_on_c, 0, 82, 54
2, 92940, Note_on_c, 0, 82, 0
2, 92940, Note_on_c, 0, 86, 0
2, 92940, Note_on_c, 0, 84, 54
2, 92940, Note_on_c, 0, 81, 54
2, 93000, Note_on_c, 0, 81, 0
2, 93000, Note_on_c, 0, 84, 0
2, 93000, Note_on_c, 0, 82, 54
2, 93000, Note_on_c, 0, 79, 54
2, 93060, Note_on_c, 0, 79, 0
2, 93060, Note_on_c, 0, 82, 0
2, 93060, Note_on_c, 0, 81, 53
2, 93060, Note_on_c, 0, 77, 53
2, 93120, Note_on_c, 0, 77, 0
2, 93120, Note_on_c, 0, 81, 0
2, 93120, Note_on_c, 0, 79, 53
2, 93120, Note_on_c, 0, 76, 53
2, 93120, Note_on_c, 0, 72, 53
2, 93240, Note_on_c, 0, 76, 0
2, 93240, Note_on_c, 0, 79, 0
2, 93240, Note_on_c, 0, 77, 53
2, 93240, Note_on_c, 0, 81, 53
2, 93300, Note_on_c, 0, 72, 0
2, 93300, Note_on_c, 0, 70, 53
2, 93360, Note_on_c, 0, 70, 0
2, 93360, Note_on_c, 0, 81, 0
2, 93360, Note_on_c, 0, 77, 0
2, 93360, Note_on_c, 0, 69, 53
2, 93420, Note_on_c, 0, 69, 0
2, 93420, Note_on_c, 0, 67, 55
2, 93480, Note_on_c, 0, 67, 0
2, 93480, Note_on_c, 0, 81, 55
2, 93480, Note_on_c, 0, 77, 55
2, 93480, Note_on_c, 0, 69, 55
2, 93540, Note_on_c, 0, 77, 0
2, 93540, Note_on_c, 0, 81, 0
2, 93540, Note_on_c, 0, 84, 57
2, 93540, Note_on_c, 0, 81, 57
2, 93600, Note_on_c, 0, 81, 0
2, 93600, Note_on_c, 0, 84, 0
2, 93600, Note_on_c, 0, 69, 0
2, 93600, Note_on_c, 0, 84, 63
2, 93600, Note_on_c, 0, 81, 63
2, 93660, Note_on_c, 0, 81, 0
2, 93660, Note_on_c, 0, 84, 0
2, 93660, Note_on_c, 0, 82, 64
2, 93660, Note_on_c, 0, 79, 64
2, 93720, Note_on_c, 0, 79, 0
2, 93720, Note_on_c, 0, 82, 0
2, 93720, Note_on_c, 0, 82, 67
2, 93720, Note_on_c, 0, 79, 67
2, 93780, Note_on_c, 0, 79, 0
2, 93780, Note_on_c, 0, 82, 0
2, 93780, Note_on_c, 0, 81, 70
2, 93780, Note_on_c, 0, 77, 70
2, 93840, Note_on_c, 0, 77, 0
2, 93840, Note_on_c, 0, 81, 0
2, 93840, Note_on_c, 0, 81, 71
2, 93840, Note_on_c, 0, 77, 71
2, 93900, Note_on_c, 0, 77, 0
2, 93900, Note_on_c, 0, 81, 0
2, 93900, Note_on_c, 0, 79, 73
2, 93900, Note_on_c, 0, 76, 73
2, 93960, Note_on_c, 0, 76, 0
2, 93960, Note_on_c, 0, 79, 0
2, 93960, Note_on_c, 0, 77, 78
2, 94080, Note_on_c, 0, 77, 0
2, 94200, Note_on_c, 0, 65, 60
2, 94380, Note_on_c, 0, 65, 0
2, 94380, Note_on_c, 0, 63, 59
2, 94440, Note_on_c, 0, 63, 0
2, 94440, Note_on_c, 0, 62, 59
2, 94500, Note_on_c, 0, 62, 0
2, 94500, Note_on_c, 0, 60, 59
2, 94560, Note_on_c, 0, 60, 0
2, 94560, Note_on_c, 0, 79, 59
2, 94740, Note_on_c, 0, 79, 0
2, 94740, Note_on_c, 0, 77, 59
2, 94800, Note_on_c, 0, 77, 0
2, 94800, Note_on_c, 0, 75, 59
2, 94860, Note_on_c, 0, 75, 0
2, 94860, Note_on_c, 0, 74, 59
2, 94920, Note_on_c, 0, 74, 0
2, 94920, Note_on_c, 0, 72, 59
2, 94920, Note_on_c, 0, 63, 59
2, 95040, Note_on_c, 0, 72, 0
2, 95100, Note_on_c, 0, 63, 0
2, 95100, Note_on_c, 0, 62, 59
2, 95160, Note_on_c, 0, 62, 0
2, 95160, Note_on_c, 0, 60, 59
2, 95220, Note_on_c, 0, 60, 0
2, 95220, Note_on_c, 0, 58, 59
2, 95280, Note_on_c, 0, 58, 0
2, 95280, Note_on_c, 0, 77, 59
2, 95460, Note_on_c, 0, 77, 0
2, 95460, Note_on_c, 0, 75, 59
2, 95520, Note_on_c, 0, 75, 0
2, 95520, Note_on_c, 0, 74, 59
2, 95580, Note_on_c, 0, 74, 0
2, 95580, Note_on_c, 0, 72, 59
2, 95640, Note_on_c, 0, 72, 0
2, 95640, Note_on_c, 0, 86, 59
2, 95640, Note_on_c, 0, 77, 59
2, 95820, Note_on_c, 0, 77, 0
2, 95820, Note_on_c, 0, 86, 0
2, 95820, Note_on_c, 0, 75, 58
2, 95820, Note_on_c, 0, 84, 58
2, 95880, Note_on_c, 0, 84, 0
2, 95880, Note_on_c, 0, 75, 0
2, 95880, Note_on_c, 0, 74, 57
2, 95880, Note_on_c, 0, 82, 57
2, 95940, Note_on_c, 0, 82, 0
2, 95940, Note_on_c, 0, 74, 0
2, 95940, Note_on_c, 0, 72, 57
2, 95940, Note_on_c, 0, 81, 57
2, 96000, Note_on_c, 0, 81, 0
2, 96000, Note_on_c, 0, 72, 0
2, 96000, Note_on_c, 0, 89, 57
2, 96000, Note_on_c, 0, 86, 57
2, 96180, Note_on_c, 0, 86, 0
2, 96180, Note_on_c, 0, 89, 0
2, 96180, Note_on_c, 0, 87, 56
2, 96180, Note_on_c, 0, 84, 56
2, 96240, Note_on_c, 0, 84, 0
2, 96240, Note_on_c, 0, 87, 0
2, 96240, Note_on_c, 0, 86, 56
2, 96240, Note_on_c, 0, 82, 56
2, 96300, Note_on_c, 0, 82, 0
2, 96300, Note_on_c, 0, 86, 0
2, 96300, Note_on_c, 0, 84, 56
2, 96300, Note_on_c, 0, 81, 56
2, 96360, Note_on_c, 0, 81, 0
2, 96360, Note_on_c, 0, 84, 0
2, 96360, Note_on_c, 0, 86, 56
2, 96360, Note_on_c, 0, 82, 56
2, 96420, Note_on_c, 0, 82, 0
2, 96420, Note_on_c, 0, 86, 0
2, 96420, Note_on_c, 0, 89, 56
2, 96420, Note_on_c, 0, 86, 56
2, 96480, Note_on_c, 0, 86, 0
2, 96480, Note_on_c, 0, 89, 0
2, 96480, Note_on_c, 0, 86, 56
2, 96480, Note_on_c, 0, 89, 56
2, 96540, Note_on_c, 0, 89, 0
2, 96540, Note_on_c, 0, 86, 0
2, 96540, Note_on_c, 0, 87, 56
2, 96540, Note_on_c, 0, 84, 56
2, 96600, Note_on_c, 0, 84, 0
2, 96600, Note_on_c, 0, 87, 0
2, 96600, Note_on_c, 0, 87, 57
2, 96600, Note_on_c, 0, 84, 57
2, 96660, Note_on_c, 0, 84, 0
2, 96660, Note_on_c, 0, 87, 0
2, 96660, Note_on_c, 0, 86, 57
2, 96660, Note_on_c, 0, 82, 57
2, 96720, Note_on_c, 0, 82, 0
2, 96720, Note_on_c, 0, 86, 0
2, 96720, Note_on_c, 0, 86, 57
2, 96720, Note_on_c, 0, 82, 57
2, 96780, Note_on_c, 0, 82, 0
2, 96780, Note_on_c, 0, 86, 0
2, 96780, Note_on_c, 0, 84, 57
2, 96780, Note_on_c, 0, 81, 57
2, 96840, Note_on_c, 0, 81, 0
2, 96840, Note_on_c, 0, 84, 0
2, 96840, Note_on_c, 0, 82, 58
2, 96960, Note_on_c, 0, 82, 0
2, 97080, Note_on_c, 0, 65, 60
2, 97260, Note_on_c, 0, 65, 0
2, 97260, Note_on_c, 0, 63, 60
2, 97320, Note_on_c, 0, 63, 0
2, 97320, Note_on_c, 0, 62, 60
2, 97380, Note_on_c, 0, 62, 0
2, 97380, Note_on_c, 0, 60, 60
2, 97440, Note_on_c, 0, 60, 0
2, 97440, Note_on_c, 0, 79, 60
2, 97620, Note_on_c, 0, 79, 0
2, 97620, Note_on_c, 0, 77, 60
2, 97680, Note_on_c, 0, 77, 0
2, 97680, Note_on_c, 0, 75, 60
2, 97740, Note_on_c, 0, 75, 0
2, 97740, Note_on_c, 0, 74, 60
2, 97800, Note_on_c, 0, 74, 0
2, 97800, Note_on_c, 0, 72, 60
2, 97800, Note_on_c, 0, 63, 60
2, 97920, Note_on_c, 0, 72, 0
2, 97980, Note_on_c, 0, 63, 0
2, 97980, Note_on_c, 0, 62, 60
2, 98040, Note_on_c, 0, 62, 0
2, 98040, Note_on_c, 0, 60, 60
2, 98100, Note_on_c, 0, 60, 0
2, 98100, Note_on_c, 0, 58, 60
2, 98160, Note_on_c, 0, 58, 0
2, 98160, Note_on_c, 0, 77, 60
2, 98340, Note_on_c, 0, 77, 0
2, 98340, Note_on_c, 0, 75, 60
2, 98400, Note_on_c, 0, 75, 0
2, 98400, Note_on_c, 0, 74, 60
2, 98460, Note_on_c, 0, 74, 0
2, 98460, Note_on_c, 0, 72, 60
2, 98520, Note_on_c, 0, 72, 0
2, 98520, Note_on_c, 0, 86, 60
2, 98520, Note_on_c, 0, 77, 60
2, 98700, Note_on_c, 0, 77, 0
2, 98700, Note_on_c, 0, 86, 0
2, 98700, Note_on_c, 0, 75, 60
2, 98700, Note_on_c, 0, 84, 60
2, 98760, Note_on_c, 0, 84, 0
2, 98760, Note_on_c, 0, 75, 0
2, 98760, Note_on_c, 0, 74, 60
2, 98760, Note_on_c, 0, 82, 60
2, 98820, Note_on_c, 0, 82, 0
2, 98820, Note_on_c, 0, 74, 0
2, 98820, Note_on_c, 0, 72, 60
2, 98820, Note_on_c, 0, 81, 60
2, 98880, Note_on_c, 0, 81, 0
2, 98880, Note_on_c, 0, 72, 0
2, 98880, Note_on_c, 0, 89, 60
2, 98880, Note_on_c, 0, 86, 60
2, 99060, Note_on_c, 0, 86, 0
2, 99060, Note_on_c, 0, 89, 0
2, 99060, Note_on_c, 0, 87, 60
2, 99060, Note_on_c, 0, 84, 60
2, 99120, Note_on_c, 0, 84, 0
2, 99120, Note_on_c, 0, 87, 0
2, 99120, Note_on_c, 0, 86, 60
2, 99120, Note_on_c, 0, 82, 60
2, 99180, Note_on_c, 0, 82, 0
2, 99180, Note_on_c, 0, 86, 0
2, 99180, Note_on_c, 0, 84, 60
2, 99180, Note_on_c, 0, 81, 60
2, 99240, Note_on_c, 0, 81, 0
2, 99240, Note_on_c, 0, 84, 0
2, 99240, Note_on_c, 0, 86, 60
2, 99240, Note_on_c, 0, 82, 60
2, 99300, Note_on_c, 0, 82, 0
2, 99300, Note_on_c, 0, 86, 0
2, 99300, Note_on_c, 0, 89, 60
2, 99300, Note_on_c, 0, 86, 60
2, 99360, Note_on_c, 0, 86, 0
2, 99360, Note_on_c, 0, 89, 0
2, 99360, Note_on_c, 0, 86, 60
2, 99360, Note_on_c, 0, 89, 60
2, 99420, Note_on_c, 0, 89, 0
2, 99420, Note_on_c, 0, 86, 0
2, 99420, Note_on_c, 0, 87, 60
2, 99420, Note_on_c, 0, 84, 60
2, 99480, Note_on_c, 0, 84, 0
2, 99480, Note_on_c, 0, 87, 0
2, 99480, Note_on_c, 0, 87, 60
2, 99480, Note_on_c, 0, 84, 60
2, 99540, Note_on_c, 0, 84, 0
2, 99540, Note_on_c, 0, 87, 0
2, 99540, Note_on_c, 0, 86, 60
2, 99540, Note_on_c, 0, 82, 60
2, 99600, Note_on_c, 0, 82, 0
2, 99600, Note_on_c, 0, 86, 0
2, 99600, Note_on_c, 0, 86, 60
2, 99600, Note_on_c, 0, 82, 60
2, 99660, Note_on_c, 0, 82, 0
2, 99660, Note_on_c, 0, 86, 0
2, 99660, Note_on_c, 0, 84, 60
2, 99660, Note_on_c, 0, 81, 60
2, 99720, Note_on_c, 0, 81, 0
2, 99720, Note_on_c, 0, 84, 0
2, 99720, Note_on_c, 0, 82, 60
2, 99840, Note_on_c, 0, 82, 0
2, 100680, Note_on_c, 0, 62, 100
2, 100680, Note_on_c, 0, 74, 100
2, 100800, Note_on_c, 0, 74, 0
2, 100800, Note_on_c, 0, 62, 0
2, 100800, Note_on_c, 0, 62, 100
2, 100980, Note_on_c, 0, 62, 0
2, 100980, Note_on_c, 0, 61, 100
2, 101010, Note_on_c, 0, 61, 0
2, 101010, Note_on_c, 0, 62, 100
2, 101040, Note_on_c, 0, 62, 0
2, 101040, Note_on_c, 0, 64, 100
2, 101070, Note_on_c, 0, 64, 0
2, 101070, Note_on_c, 0, 62, 100
2, 101100, Note_on_c, 0, 62, 0
2, 101100, Note_on_c, 0, 61, 100
2, 101130, Note_on_c, 0, 61, 0
2, 101130, Note_on_c, 0, 59, 100
2, 101160, Note_on_c, 0, 59, 0
2, 101160, Note_on_c, 0, 57, 100
2, 101280, Note_on_c, 0, 57, 0
2, 101400, Note_on_c, 0, 57, 100
2, 101490, Note_on_c, 0, 57, 0
2, 101490, Note_on_c, 0, 57, 100
2, 101520, Note_on_c, 0, 57, 0
2, 101520, Note_on_c, 0, 67, 100
2, 101700, Note_on_c, 0, 67, 0
2, 101700, Note_on_c, 0, 66, 100
2, 101730, Note_on_c, 0, 66, 0
2, 101730, Note_on_c, 0, 67, 100
2, 101760, Note_on_c, 0, 67, 0
2, 101760, Note_on_c, 0, 69, 100
2, 101790, Note_on_c, 0, 69, 0
2, 101790, Note_on_c, 0, 67, 100
2, 101820, Note_on_c, 0, 67, 0
2, 101820, Note_on_c, 0, 66, 100
2, 101850, Note_on_c, 0, 66, 0
2, 101850, Note_on_c, 0, 64, 100
2, 101880, Note_on_c, 0, 64, 0
2, 101880, Note_on_c, 0, 62, 100
2, 102000, Note_on_c, 0, 62, 0
2, 102120, Note_on_c, 0, 69, 100
2, 102240, Note_on_c, 0, 69, 0
2, 102240, Note_on_c, 0, 66, 100
2, 102240, Note_on_c, 0, 69, 100
2, 102240, Note_on_c, 0, 74, 100
2, 102240, Note_on_c, 0, 78, 100
2, 102420, Note_on_c, 0, 78, 0
2, 102420, Note_on_c, 0, 66, 0
2, 102420, Note_on_c, 0, 69, 0
2, 102420, Note_on_c, 0, 74, 0
2, 102420, Note_on_c, 0, 76, 82
2, 102450, Note_on_c, 0, 76, 0
2, 102450, Note_on_c, 0, 78, 82
2, 102480, Note_on_c, 0, 78, 0
2, 102480, Note_on_c, 0, 79, 82
2, 102510, Note_on_c, 0, 79, 0
2, 102510, Note_on_c, 0, 78, 82
2, 102540, Note_on_c, 0, 78, 0
2, 102540, Note_on_c, 0, 76, 82
2, 102570, Note_on_c, 0, 76, 0
2, 102570, Note_on_c, 0, 74, 82
2, 102600, Note_on_c, 0, 74, 0
2, 102600, Note_on_c, 0, 74, 82
2, 102630, Note_on_c, 0, 74, 0
2, 102630, Note_on_c, 0, 73, 82
2, 102660, Note_on_c, 0, 73, 0
2, 102660, Note_on_c, 0, 71, 82
2, 102690, Note_on_c, 0, 71, 0
2, 102690, Note_on_c, 0, 69, 82
2, 102720, Note_on_c, 0, 69, 0
2, 102720, Note_on_c, 0, 69, 82
2, 102750, Note_on_c, 0, 69, 0
2, 102750, Note_on_c, 0, 67, 81
2, 102780, Note_on_c, 0, 67, 0
2, 102780, Note_on_c, 0, 66, 81
2, 102810, Note_on_c, 0, 66, 0
2, 102810, Note_on_c, 0, 64, 81
2, 102840, Note_on_c, 0, 64, 0
2, 102840, Note_on_c, 0, 64, 81
2, 102870, Note_on_c, 0, 64, 0
2, 102870, Note_on_c, 0, 62, 81
2, 102900, Note_on_c, 0, 62, 0
2, 102900, Note_on_c, 0, 61, 81
2, 102930, Note_on_c, 0, 61, 0
2, 102930, Note_on_c, 0, 59, 81
2, 102960, Note_on_c, 0, 59, 0
2, 102960, Note_on_c, 0, 57, 81
2, 103050, Note_on_c, 0, 57, 0
2, 103050, Note_on_c, 0, 64, 81
2, 103080, Note_on_c, 0, 64, 0
2, 103080, Note_on_c, 0, 67, 81
2, 103080, Note_on_c, 0, 64, 81
2, 103080, Note_on_c, 0, 57, 81
2, 103200, Note_on_c, 0, 57, 0
2, 103200, Note_on_c, 0, 64, 0
2, 103200, Note_on_c, 0, 67, 0
2, 103200, Note_on_c, 0, 57, 81
2, 103200, Note_on_c, 0, 62, 81
2, 103200, Note_on_c, 0, 66, 81
2, 103320, Note_on_c, 0, 66, 0
2, 103320, Note_on_c, 0, 62, 0
2, 103320, Note_on_c, 0, 57, 0
2, 103320, Note_on_c, 0, 57, 81
2, 103320, Note_on_c, 0, 61, 81
2, 103320, Note_on_c, 0, 64, 81
2, 103440, Note_on_c, 0, 64, 0
2, 103440, Note_on_c, 0, 61, 0
2, 103440, Note_on_c, 0, 57, 0
2, 103560, Note_on_c, 0, 62, 100
2, 103560, Note_on_c, 0, 74, 100
2, 103680, Note_on_c, 0, 74, 0
2, 103680, Note_on_c, 0, 62, 0
2, 103680, Note_on_c, 0, 62, 100
2, 103860, Note_on_c, 0, 62, 0
2, 103860, Note_on_c, 0, 61, 100
2, 103890, Note_on_c, 0, 61, 0
2, 103890, Note_on_c, 0, 62, 100
2, 103920, Note_on_c, 0, 62, 0
2, 103920, Note_on_c, 0, 64, 100
2, 103950, Note_on_c, 0, 64, 0
2, 103950, Note_on_c, 0, 62, 100
2, 103980, Note_on_c, 0, 62, 0
2, 103980, Note_on_c, 0, 61, 100
2, 104010, Note_on_c, 0, 61, 0
2, 104010, Note_on_c, 0, 59, 100
2, 104040, Note_on_c, 0, 59, 0
2, 104040, Note_on_c, 0, 57, 100
2, 104160, Note_on_c, 0, 57, 0
2, 104280, Note_on_c, 0, 57, 100
2, 104370, Note_on_c, 0, 57, 0
2, 104370, Note_on_c, 0, 57, 100
2, 104400, Note_on_c, 0, 57, 0
2, 104400, Note_on_c, 0, 67, 100
2, 104580, Note_on_c, 0, 67, 0
2, 104580, Note_on_c, 0, 66, 100
2, 104610, Note_on_c, 0, 66, 0
2, 104610, Note_on_c, 0, 67, 100
2, 104640, Note_on_c, 0, 67, 0
2, 104640, Note_on_c, 0, 69, 100
2, 104670, Note_on_c, 0, 69, 0
2, 104670, Note_on_c, 0, 67, 100
2, 104700, Note_on_c, 0, 67, 0
2, 104700, Note_on_c, 0, 66, 100
2, 104730, Note_on_c, 0, 66, 0
2, 104730, Note_on_c, 0, 64, 100
2, 104760, Note_on_c, 0, 64, 0
2, 104760, Note_on_c, 0, 62, 100
2, 104880, Note_on_c, 0, 62, 0
2, 105000, Note_on_c, 0, 69, 100
2, 105120, Note_on_c, 0, 69, 0
2, 105120, Note_on_c, 0, 66, 100
2, 105120, Note_on_c, 0, 69, 100
2, 105120, Note_on_c, 0, 74, 100
2, 105120, Note_on_c, 0, 78, 100
2, 105300, Note_on_c, 0, 78, 0
2, 105300, Note_on_c, 0, 66, 0
2, 105300, Note_on_c, 0, 69, 0
2, 105300, Note_on_c, 0, 74, 0
2, 105300, Note_on_c, 0, 76, 82
2, 105330, Note_on_c, 0, 76, 0
2, 105330, Note_on_c, 0, 78, 82
2, 105360, Note_on_c, 0, 78, 0
2, 105360, Note_on_c, 0, 79, 82
2, 105390, Note_on_c, 0, 79, 0
2, 105390, Note_on_c, 0, 78, 82
2, 105420, Note_on_c, 0, 78, 0
2, 105420, Note_on_c, 0, 76, 82
2, 105450, Note_on_c, 0, 76, 0
2, 105450, Note_on_c, 0, 74, 82
2, 105480, Note_on_c, 0, 74, 0
2, 105480, Note_on_c, 0, 74, 82
2, 105510, Note_on_c, 0, 74, 0
2, 105510, Note_on_c, 0, 73, 82
2, 105540, Note_on_c, 0, 73, 0
2, 105540, Note_on_c, 0, 71, 82
2, 105570, Note_on_c, 0, 71, 0
2, 105570, Note_on_c, 0, 69, 82
2, 105600, Note_on_c, 0, 69, 0
2, 105600, Note_on_c, 0, 69, 82
2, 105630, Note_on_c, 0, 69, 0
2, 105630, Note_on_c, 0, 67, 81
2, 105660, Note_on_c, 0, 67, 0
2, 105660, Note_on_c, 0, 66, 81
2, 105690, Note_on_c, 0, 66, 0
2, 105690, Note_on_c, 0, 64, 81
2, 105720, Note_on_c, 0, 64, 0
2, 105720, Note_on_c, 0, 64, 81
2, 105750, Note_on_c, 0, 64, 0
2, 105750, Note_on_c, 0, 62, 81
2, 105780, Note_on_c, 0, 62, 0
2, 105780, Note_on_c, 0, 61, 81
2, 105810, Note_on_c, 0, 61, 0
2, 105810, Note_on_c, 0, 59, 81
2, 105840, Note_on_c, 0, 59, 0
2, 105840, Note_on_c, 0, 57, 81
2, 105930, Note_on_c, 0, 57, 0
2, 105930, Note_on_c, 0, 64, 81
2, 105960, Note_on_c, 0, 64, 0
2, 105960, Note_on_c, 0, 67, 81
2, 105960, Note_on_c, 0, 64, 81
2, 105960, Note_on_c, 0, 57, 81
2, 106080, Note_on_c, 0, 57, 0
2, 106080, Note_on_c, 0, 64, 0
2, 106080, Note_on_c, 0, 67, 0
2, 106080, Note_on_c, 0, 57, 81
2, 106080, Note_on_c, 0, 62, 81
2, 106080, Note_on_c, 0, 66, 81
2, 106200, Note_on_c, 0, 66, 0
2, 106200, Note_on_c, 0, 62, 0
2, 106200, Note_on_c, 0, 57, 0
2, 106200, Note_on_c, 0, 57, 81
2, 106200, Note_on_c, 0, 61, 81
2, 106200, Note_on_c, 0, 64, 81
2, 106320, Note_on_c, 0, 64, 0
2, 106320, Note_on_c, 0, 61, 0
2, 106320, Note_on_c, 0, 57, 0
2, 106440, Note_on_c, 0, 81, 100
2, 106560, Note_on_c, 0, 81, 0
2, 106560, Note_on_c, 0, 69, 100
2, 106740, Note_on_c, 0, 69, 0
2, 106740, Note_on_c, 0, 68, 100
2, 106770, Note_on_c, 0, 68, 0
2, 106770, Note_on_c, 0, 69, 100
2, 106800, Note_on_c, 0, 69, 0
2, 106800, Note_on_c, 0, 71, 100
2, 106830, Note_on_c, 0, 71, 0
2, 106830, Note_on_c, 0, 69, 100
2, 106860, Note_on_c, 0, 69, 0
2, 106860, Note_on_c, 0, 68, 100
2, 106890, Note_on_c, 0, 68, 0
2, 106890, Note_on_c, 0, 69, 100
2, 106920, Note_on_c, 0, 69, 0
2, 106920, Note_on_c, 0, 73, 100
2, 107040, Note_on_c, 0, 73, 0
2, 107040, Note_on_c, 0, 71, 100
2, 107100, Note_on_c, 0, 71, 0
2, 107100, Note_on_c, 0, 70, 100
2, 107130, Note_on_c, 0, 70, 0
2, 107130, Note_on_c, 0, 71, 100
2, 107160, Note_on_c, 0, 71, 0
2, 107160, Note_on_c, 0, 73, 100
2, 107190, Note_on_c, 0, 73, 0
2, 107190, Note_on_c, 0, 71, 100
2, 107220, Note_on_c, 0, 71, 0
2, 107220, Note_on_c, 0, 70, 100
2, 107250, Note_on_c, 0, 70, 0
2, 107250, Note_on_c, 0, 71, 100
2, 107280, Note_on_c, 0, 71, 0
2, 107280, Note_on_c, 0, 74, 100
2, 107400, Note_on_c, 0, 74, 0
2, 107400, Note_on_c, 0, 73, 100
2, 107520, Note_on_c, 0, 73, 0
2, 107520, Note_on_c, 0, 76, 100
2, 107640, Note_on_c, 0, 76, 0
2, 107640, Note_on_c, 0, 79, 100
2, 107760, Note_on_c, 0, 79, 0
2, 107880, Note_on_c, 0, 81, 100
2, 108000, Note_on_c, 0, 81, 0
2, 108000, Note_on_c, 0, 86, 100
2, 108000, Note_on_c, 0, 74, 100
2, 108000, Note_on_c, 0, 78, 100
2, 108000, Note_on_c, 0, 81, 100
2, 108180, Note_on_c, 0, 81, 0
2, 108180, Note_on_c, 0, 86, 0
2, 108180, Note_on_c, 0, 74, 0
2, 108180, Note_on_c, 0, 78, 0
2, 108180, Note_on_c, 0, 85, 100
2, 108210, Note_on_c, 0, 85, 0
2, 108210, Note_on_c, 0, 86, 100
2, 108240, Note_on_c, 0, 86, 0
2, 108240, Note_on_c, 0, 88, 100
2, 108270, Note_on_c, 0, 88, 0
2, 108270, Note_on_c, 0, 86, 100
2, 108300, Note_on_c, 0, 86, 0
2, 108300, Note_on_c, 0, 85, 100
2, 108330, Note_on_c, 0, 85, 0
2, 108330, Note_on_c, 0, 83, 100
2, 108360, Note_on_c, 0, 83, 0
2, 108360, Note_on_c, 0, 83, 100
2, 108390, Note_on_c, 0, 83, 0
2, 108390, Note_on_c, 0, 81, 100
2, 108420, Note_on_c, 0, 81, 0
2, 108420, Note_on_c, 0, 79, 100
2, 108450, Note_on_c, 0, 79, 0
2, 108450, Note_on_c, 0, 78, 100
2, 108480, Note_on_c, 0, 78, 0
2, 108480, Note_on_c, 0, 78, 100
2, 108510, Note_on_c, 0, 78, 0
2, 108510, Note_on_c, 0, 76, 100
2, 108540, Note_on_c, 0, 76, 0
2, 108540, Note_on_c, 0, 74, 100
2, 108570, Note_on_c, 0, 74, 0
2, 108570, Note_on_c, 0, 73, 100
2, 108600, Note_on_c, 0, 73, 0
2, 108600, Note_on_c, 0, 73, 100
2, 108630, Note_on_c, 0, 73, 0
2, 108630, Note_on_c, 0, 71, 100
2, 108660, Note_on_c, 0, 71, 0
2, 108660, Note_on_c, 0, 69, 100
2, 108690, Note_on_c, 0, 69, 0
2, 108690, Note_on_c, 0, 68, 100
2, 108720, Note_on_c, 0, 68, 0
2, 108720, Note_on_c, 0, 69, 100
2, 108810, Note_on_c, 0, 69, 0
2, 108810, Note_on_c, 0, 74, 100
2, 108840, Note_on_c, 0, 74, 0
2, 108840, Note_on_c, 0, 69, 100
2, 108840, Note_on_c, 0, 74, 100
2, 108840, Note_on_c, 0, 78, 100
2, 108960, Note_on_c, 0, 78, 0
2, 108960, Note_on_c, 0, 74, 0
2, 108960, Note_on_c, 0, 69, 0
2, 108960, Note_on_c, 0, 67, 100
2, 108960, Note_on_c, 0, 73, 100
2, 108960, Note_on_c, 0, 76, 100
2, 109080, Note_on_c, 0, 76, 0
2, 109080, Note_on_c, 0, 73, 0
2, 109080, Note_on_c, 0, 67, 0
2, 109080, Note_on_c, 0, 74, 100
2, 109080, Note_on_c, 0, 66, 100
2, 109200, Note_on_c, 0, 66, 0
2, 109200, Note_on_c, 0, 74, 0
2, 109320, Note_on_c, 0, 81, 100
2, 109440, Note_on_c, 0, 81, 0
2, 109440, Note_on_c, 0, 69, 100
2, 109620, Note_on_c, 0, 69, 0
2, 109620, Note_on_c, 0, 68, 100
2, 109650, Note_on_c, 0, 68, 0
2, 109650, Note_on_c, 0, 69, 100
2, 109680, Note_on_c, 0, 69, 0
2, 109680, Note_on_c, 0, 71, 100
2, 109710, Note_on_c, 0, 71, 0
2, 109710, Note_on_c, 0, 69, 100
2, 109740, Note_on_c, 0, 69, 0
2, 109740, Note_on_c, 0, 68, 100
2, 109770, Note_on_c, 0, 68, 0
2, 109770, Note_on_c, 0, 69, 100
2, 109800, Note_on_c, 0, 69, 0
2, 109800, Note_on_c, 0, 73, 100
2, 109920, Note_on_c, 0, 73, 0
2, 109920, Note_on_c, 0, 71, 100
2, 109980, Note_on_c, 0, 71, 0
2, 109980, Note_on_c, 0, 70, 100
2, 110010, Note_on_c, 0, 70, 0
2, 110010, Note_on_c, 0, 71, 100
2, 110040, Note_on_c, 0, 71, 0
2, 110040, Note_on_c, 0, 73, 100
2, 110070, Note_on_c, 0, 73, 0
2, 110070, Note_on_c, 0, 71, 100
2, 110100, Note_on_c, 0, 71, 0
2, 110100, Note_on_c, 0, 70, 100
2, 110130, Note_on_c, 0, 70, 0
2, 110130, Note_on_c, 0, 71, 100
2, 110160, Note_on_c, 0, 71, 0
2, 110160, Note_on_c, 0, 74, 100
2, 110280, Note_on_c, 0, 74, 0
2, 110280, Note_on_c, 0, 73, 100
2, 110400, Note_on_c, 0, 73, 0
2, 110400, Note_on_c, 0, 76, 100
2, 110520, Note_on_c, 0, 76, 0
2, 110520, Note_on_c, 0, 79, 100
2, 110640, Note_on_c, 0, 79, 0
2, 110760, Note_on_c, 0, 81, 100
2, 110880, Note_on_c, 0, 81, 0
2, 110880, Note_on_c, 0, 86, 100
2, 110880, Note_on_c, 0, 74, 100
2, 110880, Note_on_c, 0, 78, 100
2, 110880, Note_on_c, 0, 81, 100
2, 111060, Note_on_c, 0, 81, 0
2, 111060, Note_on_c, 0, 86, 0
2, 111060, Note_on_c, 0, 74, 0
2, 111060, Note_on_c, 0, 78, 0
2, 111060, Note_on_c, 0, 85, 100
2, 111090, Note_on_c, 0, 85, 0
2, 111090, Note_on_c, 0, 86, 100
2, 111120, Note_on_c, 0, 86, 0
2, 111120, Note_on_c, 0, 88, 100
2, 111150, Note_on_c, 0, 88, 0
2, 111150, Note_on_c, 0, 86, 100
2, 111180, Note_on_c, 0, 86, 0
2, 111180, Note_on_c, 0, 85, 100
2, 111210, Note_on_c, 0, 85, 0
2, 111210, Note_on_c, 0, 83, 100
2, 111240, Note_on_c, 0, 83, 0
2, 111240, Note_on_c, 0, 83, 100
2, 111270, Note_on_c, 0, 83, 0
2, 111270, Note_on_c, 0, 81, 100
2, 111300, Note_on_c, 0, 81, 0
2, 111300, Note_on_c, 0, 79, 100
2, 111330, Note_on_c, 0, 79, 0
2, 111330, Note_on_c, 0, 78, 100
2, 111360, Note_on_c, 0, 78, 0
2, 111360, Note_on_c, 0, 78, 100
2, 111390, Note_on_c, 0, 78, 0
2, 111390, Note_on_c, 0, 76, 100
2, 111420, Note_on_c, 0, 76, 0
2, 111420, Note_on_c, 0, 74, 100
2, 111450, Note_on_c, 0, 74, 0
2, 111450, Note_on_c, 0, 73, 100
2, 111480, Note_on_c, 0, 73, 0
2, 111480, Note_on_c, 0, 73, 100
2, 111510, Note_on_c, 0, 73, 0
2, 111510, Note_on_c, 0, 71, 100
2, 111540, Note_on_c, 0, 71, 0
2, 111540, Note_on_c, 0, 69, 100
2, 111570, Note_on_c, 0, 69, 0
2, 111570, Note_on_c, 0, 68, 100
2, 111600, Note_on_c, 0, 68, 0
2, 111600, Note_on_c, 0, 69, 100
2, 111690, Note_on_c, 0, 69, 0
2, 111690, Note_on_c, 0, 74, 100
2, 111720, Note_on_c, 0, 74, 0
2, 111720, Note_on_c, 0, 69, 100
2, 111720, Note_on_c, 0, 74, 100
2, 111720, Note_on_c, 0, 78, 100
2, 111840, Note_on_c, 0, 78, 0
2, 111840, Note_on_c, 0, 74, 0
2, 111840, Note_on_c, 0, 69, 0
2, 111840, Note_on_c, 0, 67, 100
2, 111840, Note_on_c, 0, 73, 100
2, 111840, Note_on_c, 0, 76, 100
2, 111960, Note_on_c, 0, 76, 0
2, 111960, Note_on_c, 0, 73, 0
2, 111960, Note_on_c, 0, 67, 0
2, 111960, Note_on_c, 0, 74, 100
2, 111960, Note_on_c, 0, 66, 100
2, 112080, Note_on_c, 0, 66, 0
2, 112080, Note_on_c, 0, 74, 0
2, 112200, Note_on_c, 0, 74, 100
2, 112200, Note_on_c, 0, 62, 100
2, 112290, Note_on_c, 0, 62, 0
2, 112290, Note_on_c, 0, 74, 0
2, 112290, Note_on_c, 0, 78, 100
2, 112290, Note_on_c, 0, 66, 100
2, 112320, Note_on_c, 0, 66, 0
2, 112320, Note_on_c, 0, 78, 0
2, 112320, Note_on_c, 0, 69, 100
2, 112320, Note_on_c, 0, 66, 100
2, 112320, Note_on_c, 0, 81, 127
2, 112380, Note_on_c, 0, 66, 0
2, 112380, Note_on_c, 0, 69, 0
2, 112440, Note_on_c, 0, 64, 100
2, 112440, Note_on_c, 0, 67, 100
2, 112440, Note_on_c, 0, 76, 100
2, 112440, Note_on_c, 0, 79, 100
2, 112500, Note_on_c, 0, 79, 0
2, 112500, Note_on_c, 0, 67, 0
2, 112500, Note_on_c, 0, 76, 0
2, 112500, Note_on_c, 0, 64, 0
2, 112560, Note_on_c, 0, 62, 100
2, 112560, Note_on_c, 0, 66, 100
2, 112560, Note_on_c, 0, 78, 100
2, 112560, Note_on_c, 0, 74, 100
2, 112620, Note_on_c, 0, 74, 0
2, 112620, Note_on_c, 0, 66, 0
2, 112620, Note_on_c, 0, 78, 0
2, 112620, Note_on_c, 0, 62, 0
2, 112680, Note_on_c, 0, 57, 100
2, 112680, Note_on_c, 0, 64, 100
2, 112680, Note_on_c, 0, 76, 100
2, 112680, Note_on_c, 0, 73, 100
2, 112740, Note_on_c, 0, 73, 0
2, 112740, Note_on_c, 0, 64, 0
2, 112740, Note_on_c, 0, 76, 0
2, 112740, Note_on_c, 0, 57, 0
2, 112800, Note_on_c, 0, 62, 100
2, 112800, Note_on_c, 0, 54, 100
2, 112800, Note_on_c, 0, 69, 100
2, 112800, Note_on_c, 0, 74, 100
2, 112860, Note_on_c, 0, 74, 0
2, 112860, Note_on_c, 0, 54, 0
2, 112860, Note_on_c, 0, 69, 0
2, 112860, Note_on_c, 0, 62, 0
2, 112920, Note_on_c, 0, 57, 100
2, 112920, Note_on_c, 0, 64, 100
2, 112920, Note_on_c, 0, 73, 100
2, 112920, Note_on_c, 0, 76, 100
2, 112980, Note_on_c, 0, 76, 0
2, 112980, Note_on_c, 0, 64, 0
2, 112980, Note_on_c, 0, 73, 0
2, 112980, Note_on_c, 0, 57, 0
2, 113040, Note_on_c, 0, 62, 100
2, 113040, Note_on_c, 0, 66, 100
2, 113040, Note_on_c, 0, 78, 100
2, 113040, Note_on_c, 0, 74, 100
2, 113100, Note_on_c, 0, 74, 0
2, 113100, Note_on_c, 0, 66, 0
2, 113100, Note_on_c, 0, 81, 0
2, 113100, Note_on_c, 0, 62, 0
2, 113100, Note_on_c, 0, 78, 0
2, 113160, Note_on_c, 0, 61, 100
2, 113160, Note_on_c, 0, 64, 100
2, 113160, Note_on_c, 0, 67, 100
2, 113160, Note_on_c, 0, 76, 100
2, 113160, Note_on_c, 0, 79, 100
2, 113160, Note_on_c, 0, 81, 100
2, 113220, Note_on_c, 0, 81, 0
2, 113220, Note_on_c, 0, 64, 0
2, 113220, Note_on_c, 0, 67, 0
2, 113220, Note_on_c, 0, 61, 0
2, 113220, Note_on_c, 0, 79, 0
2, 113220, Note_on_c, 0, 76, 0
2, 113280, Note_on_c, 0, 62, 100
2, 113280, Note_on_c, 0, 66, 100
2, 113280, Note_on_c, 0, 74, 100
2, 113280, Note_on_c, 0, 78, 100
2, 113280, Note_on_c, 0, 81, 100
2, 113340, Note_on_c, 0, 81, 0
2, 113340, Note_on_c, 0, 74, 0
2, 113340, Note_on_c, 0, 62, 0
2, 113340, Note_on_c, 0, 66, 0
2, 113340, Note_on_c, 0, 78, 0
2, 113400, Note_on_c, 0, 64, 100
2, 113400, Note_on_c, 0, 57, 100
2, 113400, Note_on_c, 0, 81, 100
2, 113400, Note_on_c, 0, 73, 100
2, 113400, Note_on_c, 0, 76, 100
2, 113460, Note_on_c, 0, 76, 0
2, 113460, Note_on_c, 0, 57, 0
2, 113460, Note_on_c, 0, 64, 0
2, 113460, Note_on_c, 0, 73, 0
2, 113520, Note_on_c, 0, 81, 0
2, 113640, Note_on_c, 0, 81, 100
2, 113730, Note_on_c, 0, 81, 0
2, 113730, Note_on_c, 0, 85, 100
2, 113760, Note_on_c, 0, 85, 0
2, 113760, Note_on_c, 0, 88, 127
2, 113880, Note_on_c, 0, 86, 100
2, 113880, Note_on_c, 0, 83, 100
2, 113940, Note_on_c, 0, 83, 0
2, 113940, Note_on_c, 0, 86, 0
2, 114000, Note_on_c, 0, 85, 100
2, 114000, Note_on_c, 0, 81, 100
2, 114060, Note_on_c, 0, 81, 0
2, 114060, Note_on_c, 0, 85, 0
2, 114120, Note_on_c, 0, 83, 100
2, 114120, Note_on_c, 0, 80, 100
2, 114180, Note_on_c, 0, 80, 0
2, 114180, Note_on_c, 0, 83, 0
2, 114240, Note_on_c, 0, 81, 100
2, 114240, Note_on_c, 0, 76, 100
2, 114300, Note_on_c, 0, 76, 0
2, 114300, Note_on_c, 0, 81, 0
2, 114360, Note_on_c, 0, 83, 100
2, 114360, Note_on_c, 0, 80, 100
2, 114420, Note_on_c, 0, 80, 0
2, 114420, Note_on_c, 0, 83, 0
2, 114480, Note_on_c, 0, 81, 100
2, 114480, Note_on_c, 0, 85, 100
2, 114540, Note_on_c, 0, 85, 0
2, 114540, Note_on_c, 0, 81, 0
2, 114540, Note_on_c, 0, 88, 0
2, 114600, Note_on_c, 0, 88, 100
2, 114600, Note_on_c, 0, 86, 100
2, 114600, Note_on_c, 0, 83, 100
2, 114660, Note_on_c, 0, 83, 0
2, 114660, Note_on_c, 0, 86, 0
2, 114660, Note_on_c, 0, 88, 0
2, 114720, Note_on_c, 0, 88, 100
2, 114720, Note_on_c, 0, 83, 100
2, 114720, Note_on_c, 0, 80, 100
2, 114780, Note_on_c, 0, 80, 0
2, 114780, Note_on_c, 0, 83, 0
2, 114780, Note_on_c, 0, 88, 0
2, 114840, Note_on_c, 0, 81, 100
2, 114960, Note_on_c, 0, 81, 0
2, 115080, Note_on_c, 0, 74, 100
2, 115080, Note_on_c, 0, 62, 100
2, 115170, Note_on_c, 0, 62, 0
2, 115170, Note_on_c, 0, 74, 0
2, 115170, Note_on_c, 0, 78, 100
2, 115170, Note_on_c, 0, 66, 100
2, 115200, Note_on_c, 0, 66, 0
2, 115200, Note_on_c, 0, 78, 0
2, 115200, Note_on_c, 0, 69, 100
2, 115200, Note_on_c, 0, 66, 100
2, 115200, Note_on_c, 0, 81, 127
2, 115260, Note_on_c, 0, 66, 0
2, 115260, Note_on_c, 0, 69, 0
2, 115320, Note_on_c, 0, 64, 100
2, 115320, Note_on_c, 0, 67, 100
2, 115320, Note_on_c, 0, 76, 100
2, 115320, Note_on_c, 0, 79, 100
2, 115380, Note_on_c, 0, 79, 0
2, 115380, Note_on_c, 0, 67, 0
2, 115380, Note_on_c, 0, 76, 0
2, 115380, Note_on_c, 0, 64, 0
2, 115440, Note_on_c, 0, 62, 100
2, 115440, Note_on_c, 0, 66, 100
2, 115440, Note_on_c, 0, 78, 100
2, 115440, Note_on_c, 0, 74, 100
2, 115500, Note_on_c, 0, 74, 0
2, 115500, Note_on_c, 0, 66, 0
2, 115500, Note_on_c, 0, 78, 0
2, 115500, Note_on_c, 0, 62, 0
2, 115560, Note_on_c, 0, 57, 100
2, 115560, Note_on_c, 0, 64, 100
2, 115560, Note_on_c, 0, 76, 100
2, 115560, Note_on_c, 0, 73, 100
2, 115620, Note_on_c, 0, 73, 0
2, 115620, Note_on_c, 0, 64, 0
2, 115620, Note_on_c, 0, 76, 0
2, 115620, Note_on_c, 0, 57, 0
2, 115680, Note_on_c, 0, 62, 100
2, 115680, Note_on_c, 0, 54, 100
2, 115680, Note_on_c, 0, 69, 100
2, 115680, Note_on_c, 0, 74, 100
2, 115740, Note_on_c, 0, 74, 0
2, 115740, Note_on_c, 0, 54, 0
2, 115740, Note_on_c, 0, 69, 0
2, 115740, Note_on_c, 0, 62, 0
2, 115800, Note_on_c, 0, 57, 100
2, 115800, Note_on_c, 0, 64, 100
2, 115800, Note_on_c, 0, 73, 100
2, 115800, Note_on_c, 0, 76, 100
2, 115860, Note_on_c, 0, 76, 0
2, 115860, Note_on_c, 0, 64, 0
2, 115860, Note_on_c, 0, 73, 0
2, 115860, Note_on_c, 0, 57, 0
2, 115920, Note_on_c, 0, 62, 100
2, 115920, Note_on_c, 0, 66, 100
2, 115920, Note_on_c, 0, 78, 100
2, 115920, Note_on_c, 0, 74, 100
2, 115980, Note_on_c, 0, 74, 0
2, 115980, Note_on_c, 0, 66, 0
2, 115980, Note_on_c, 0, 81, 0
2, 115980, Note_on_c, 0, 62, 0
2, 115980, Note_on_c, 0, 78, 0
2, 116040, Note_on_c, 0, 61, 100
2, 116040, Note_on_c, 0, 64, 100
2, 116040, Note_on_c, 0, 67, 100
2, 116040, Note_on_c, 0, 76, 100
2, 116040, Note_on_c, 0, 79, 100
2, 116040, Note_on_c, 0, 81, 100
2, 116100, Note_on_c, 0, 81, 0
2, 116100, Note_on_c, 0, 64, 0
2, 116100, Note_on_c, 0, 67, 0
2, 116100, Note_on_c, 0, 61, 0
2, 116100, Note_on_c, 0, 79, 0
2, 116100, Note_on_c, 0, 76, 0
2, 116160, Note_on_c, 0, 62, 100
2, 116160, Note_on_c, 0, 66, 100
2, 116160, Note_on_c, 0, 74, 100
2, 116160, Note_on_c, 0, 78, 100
2, 116160, Note_on_c, 0, 81, 100
2, 116220, Note_on_c, 0, 81, 0
2, 116220, Note_on_c, 0, 74, 0
2, 116220, Note_on_c, 0, 62, 0
2, 116220, Note_on_c, 0, 66, 0
2, 116220, Note_on_c, 0, 78, 0
2, 116280, Note_on_c, 0, 64, 100
2, 116280, Note_on_c, 0, 57, 100
2, 116280, Note_on_c, 0, 81, 100
2, 116280, Note_on_c, 0, 73, 100
2, 116280, Note_on_c, 0, 76, 100
2, 116340, Note_on_c, 0, 76, 0
2, 116340, Note_on_c, 0, 57, 0
2, 116340, Note_on_c, 0, 64, 0
2, 116340, Note_on_c, 0, 73, 0
2, 116400, Note_on_c, 0, 81, 0
2, 116520, Note_on_c, 0, 81, 100
2, 116610, Note_on_c, 0, 81, 0
2, 116610, Note_on_c, 0, 85, 100
2, 116640, Note_on_c, 0, 85, 0
2, 116640, Note_on_c, 0, 88, 127
2, 116760, Note_on_c, 0, 86, 100
2, 116760, Note_on_c, 0, 83, 100
2, 116820, Note_on_c, 0, 83, 0
2, 116820, Note_on_c, 0, 86, 0
2, 116880, Note_on_c, 0, 85, 100
2, 116880, Note_on_c, 0, 81, 100
2, 116940, Note_on_c, 0, 81, 0
2, 116940, Note_on_c, 0, 85, 0
2, 117000, Note_on_c, 0, 83, 100
2, 117000, Note_on_c, 0, 80, 100
2, 117060, Note_on_c, 0, 80, 0
2, 117060, Note_on_c, 0, 83, 0
2, 117120, Note_on_c, 0, 81, 100
2, 117120, Note_on_c, 0, 76, 100
2, 117180, Note_on_c, 0, 76, 0
2, 117180, Note_on_c, 0, 81, 0
2, 117240, Note_on_c, 0, 83, 100
2, 117240, Note_on_c, 0, 80, 100
2, 117300, Note_on_c, 0, 80, 0
2, 117300, Note_on_c, 0, 83, 0
2, 117360, Note_on_c, 0, 81, 100
2, 117360, Note_on_c, 0, 85, 100
2, 117420, Note_on_c, 0, 85, 0
2, 117420, Note_on_c, 0, 81, 0
2, 117420, Note_on_c, 0, 88, 0
2, 117480, Note_on_c, 0, 88, 100
2, 117480, Note_on_c, 0, 86, 100
2, 117480, Note_on_c, 0, 83, 100
2, 117540, Note_on_c, 0, 83, 0
2, 117540, Note_on_c, 0, 86, 0
2, 117540, Note_on_c, 0, 88, 0
2, 117600, Note_on_c, 0, 88, 100
2, 117600, Note_on_c, 0, 83, 100
2, 117600, Note_on_c, 0, 80, 100
2, 117660, Note_on_c, 0, 80, 0
2, 117660, Note_on_c, 0, 83, 0
2, 117660, Note_on_c, 0, 88, 0
2, 117720, Note_on_c, 0, 81, 100
2, 117840, Note_on_c, 0, 81, 0
2, 117960, Note_on_c, 0, 74, 100
2, 118050, Note_on_c, 0, 74, 0
2, 118050, Note_on_c, 0, 78, 100
2, 118080, Note_on_c, 0, 78, 0
2, 118080, Note_on_c, 0, 61, 100
2, 118080, Note_on_c, 0, 64, 100
2, 118080, Note_on_c, 0, 67, 100
2, 118080, Note_on_c, 0, 76, 100
2, 118080, Note_on_c, 0, 79, 100
2, 118080, Note_on_c, 0, 81, 100
2, 118200, Note_on_c, 0, 79, 0
2, 118200, Note_on_c, 0, 76, 0
2, 118200, Note_on_c, 0, 67, 0
2, 118200, Note_on_c, 0, 61, 0
2, 118200, Note_on_c, 0, 64, 0
2, 118200, Note_on_c, 0, 74, 100
2, 118200, Note_on_c, 0, 78, 100
2, 118200, Note_on_c, 0, 62, 100
2, 118200, Note_on_c, 0, 66, 100
2, 118260, Note_on_c, 0, 66, 0
2, 118260, Note_on_c, 0, 78, 0
2, 118260, Note_on_c, 0, 62, 0
2, 118260, Note_on_c, 0, 74, 0
2, 118320, Note_on_c, 0, 76, 100
2, 118410, Note_on_c, 0, 76, 0
2, 118410, Note_on_c, 0, 79, 100
2, 118440, Note_on_c, 0, 79, 0
2, 118440, Note_on_c, 0, 81, 0
2, 118440, Note_on_c, 0, 63, 100
2, 118440, Note_on_c, 0, 69, 100
2, 118440, Note_on_c, 0, 66, 100
2, 118440, Note_on_c, 0, 78, 100
2, 118440, Note_on_c, 0, 81, 100
2, 118440, Note_on_c, 0, 83, 100
2, 118560, Note_on_c, 0, 81, 0
2, 118560, Note_on_c, 0, 78, 0
2, 118560, Note_on_c, 0, 66, 0
2, 118560, Note_on_c, 0, 63, 0
2, 118560, Note_on_c, 0, 69, 0
2, 118560, Note_on_c, 0, 67, 100
2, 118560, Note_on_c, 0, 64, 100
2, 118560, Note_on_c, 0, 76, 100
2, 118560, Note_on_c, 0, 79, 100
2, 118620, Note_on_c, 0, 79, 0
2, 118620, Note_on_c, 0, 64, 0
2, 118620, Note_on_c, 0, 76, 0
2, 118620, Note_on_c, 0, 67, 0
2, 118680, Note_on_c, 0, 83, 0
2, 118680, Note_on_c, 0, 67, 100
2, 118680, Note_on_c, 0, 79, 100
2, 118770, Note_on_c, 0, 79, 0
2, 118770, Note_on_c, 0, 67, 0
2, 118770, Note_on_c, 0, 71, 100
2, 118770, Note_on_c, 0, 83, 100
2, 118800, Note_on_c, 0, 83, 0
2, 118800, Note_on_c, 0, 71, 0
2, 118800, Note_on_c, 0, 86, 100
2, 118800, Note_on_c, 0, 66, 100
2, 118800, Note_on_c, 0, 69, 100
2, 118800, Note_on_c, 0, 72, 100
2, 118800, Note_on_c, 0, 84, 100
2, 118800, Note_on_c, 0, 81, 100
2, 118920, Note_on_c, 0, 81, 0
2, 118920, Note_on_c, 0, 66, 0
2, 118920, Note_on_c, 0, 69, 0
2, 118920, Note_on_c, 0, 72, 0
2, 118920, Note_on_c, 0, 84, 0
2, 118920, Note_on_c, 0, 83, 100
2, 118920, Note_on_c, 0, 79, 100
2, 118920, Note_on_c, 0, 71, 100
2, 118920, Note_on_c, 0, 67, 100
2, 119040, Note_on_c, 0, 67, 0
2, 119040, Note_on_c, 0, 79, 0
2, 119040, Note_on_c, 0, 86, 0
2, 119040, Note_on_c, 0, 83, 0
2, 119040, Note_on_c, 0, 71, 0
2, 119040, Note_on_c, 0, 64, 100
2, 119040, Note_on_c, 0, 88, 100
2, 119040, Note_on_c, 0, 79, 100
2, 119160, Note_on_c, 0, 79, 0
2, 119160, Note_on_c, 0, 88, 0
2, 119160, Note_on_c, 0, 64, 0
2, 119160, Note_on_c, 0, 86, 100
2, 119160, Note_on_c, 0, 78, 100
2, 119160, Note_on_c, 0, 69, 100
2, 119280, Note_on_c, 0, 69, 0
2, 119280, Note_on_c, 0, 78, 0
2, 119280, Note_on_c, 0, 86, 0
2, 119280, Note_on_c, 0, 57, 100
2, 119280, Note_on_c, 0, 85, 100
2, 119280, Note_on_c, 0, 76, 100
2, 119340, Note_on_c, 0, 76, 0
2, 119340, Note_on_c, 0, 85, 0
2, 119340, Note_on_c, 0, 57, 0
2, 119400, Note_on_c, 0, 74, 100
2, 119490, Note_on_c, 0, 74, 0
2, 119490, Note_on_c, 0, 78, 100
2, 119520, Note_on_c, 0, 78, 0
2, 119520, Note_on_c, 0, 81, 127
2, 119640, Note_on_c, 0, 76, 100
2, 119640, Note_on_c, 0, 79, 100
2, 119700, Note_on_c, 0, 79, 0
2, 119700, Note_on_c, 0, 76, 0
2, 119760, Note_on_c, 0, 78, 100
2, 119760, Note_on_c, 0, 74, 100
2, 119820, Note_on_c, 0, 74, 0
2, 119820, Note_on_c, 0, 78, 0
2, 119880, Note_on_c, 0, 76, 100
2, 119880, Note_on_c, 0, 73, 100
2, 119940, Note_on_c, 0, 73, 0
2, 119940, Note_on_c, 0, 76, 0
2, 120000, Note_on_c, 0, 69, 100
2, 120000, Note_on_c, 0, 74, 100
2, 120060, Note_on_c, 0, 74, 0
2, 120060, Note_on_c, 0, 69, 0
2, 120120, Note_on_c, 0, 73, 100
2, 120120, Note_on_c, 0, 76, 100
2, 120180, Note_on_c, 0, 76, 0
2, 120180, Note_on_c, 0, 73, 0
2, 120240, Note_on_c, 0, 78, 100
2, 120240, Note_on_c, 0, 74, 100
2, 120300, Note_on_c, 0, 74, 0
2, 120300, Note_on_c, 0, 78, 0
2, 120300, Note_on_c, 0, 81, 0
2, 120360, Note_on_c, 0, 76, 100
2, 120360, Note_on_c, 0, 79, 100
2, 120360, Note_on_c, 0, 81, 100
2, 120420, Note_on_c, 0, 81, 0
2, 120420, Note_on_c, 0, 79, 0
2, 120420, Note_on_c, 0, 76, 0
2, 120480, Note_on_c, 0, 73, 100
2, 120480, Note_on_c, 0, 76, 100
2, 120480, Note_on_c, 0, 81, 100
2, 120540, Note_on_c, 0, 81, 0
2, 120540, Note_on_c, 0, 76, 0
2, 120540, Note_on_c, 0, 73, 0
2, 120600, Note_on_c, 0, 81, 100
2, 120720, Note_on_c, 0, 81, 0
2, 120840, Note_on_c, 0, 74, 100
2, 120930, Note_on_c, 0, 74, 0
2, 120930, Note_on_c, 0, 78, 100
2, 120960, Note_on_c, 0, 78, 0
2, 120960, Note_on_c, 0, 61, 100
2, 120960, Note_on_c, 0, 64, 100
2, 120960, Note_on_c, 0, 67, 100
2, 120960, Note_on_c, 0, 76, 100
2, 120960, Note_on_c, 0, 79, 100
2, 120960, Note_on_c, 0, 81, 100
2, 121080, Note_on_c, 0, 79, 0
2, 121080, Note_on_c, 0, 76, 0
2, 121080, Note_on_c, 0, 67, 0
2, 121080, Note_on_c, 0, 61, 0
2, 121080, Note_on_c, 0, 64, 0
2, 121080, Note_on_c, 0, 74, 100
2, 121080, Note_on_c, 0, 78, 100
2, 121080, Note_on_c, 0, 62, 100
2, 121080, Note_on_c, 0, 66, 100
2, 121140, Note_on_c, 0, 66, 0
2, 121140, Note_on_c, 0, 78, 0
2, 121140, Note_on_c, 0, 62, 0
2, 121140, Note_on_c, 0, 74, 0
2, 121200, Note_on_c, 0, 76, 100
2, 121290, Note_on_c, 0, 76, 0
2, 121290, Note_on_c, 0, 79, 100
2, 121320, Note_on_c, 0, 79, 0
2, 121320, Note_on_c, 0, 81, 0
2, 121320, Note_on_c, 0, 63, 100
2, 121320, Note_on_c, 0, 69, 100
2, 121320, Note_on_c, 0, 66, 100
2, 121320, Note_on_c, 0, 78, 100
2, 121320, Note_on_c, 0, 81, 100
2, 121320, Note_on_c, 0, 83, 100
2, 121440, Note_on_c, 0, 81, 0
2, 121440, Note_on_c, 0, 78, 0
2, 121440, Note_on_c, 0, 66, 0
2, 121440, Note_on_c, 0, 63, 0
2, 121440, Note_on_c, 0, 69, 0
2, 121440, Note_on_c, 0, 67, 100
2, 121440, Note_on_c, 0, 64, 100
2, 121440, Note_on_c, 0, 76, 100
2, 121440, Note_on_c, 0, 79, 100
2, 121500, Note_on_c, 0, 79, 0
2, 121500, Note_on_c, 0, 64, 0
2, 121500, Note_on_c, 0, 76, 0
2, 121500, Note_on_c, 0, 67, 0
2, 121560, Note_on_c, 0, 83, 0
2, 121560, Note_on_c, 0, 67, 100
2, 121560, Note_on_c, 0, 79, 100
2, 121650, Note_on_c, 0, 79, 0
2, 121650, Note_on_c, 0, 67, 0
2, 121650, Note_on_c, 0, 71, 100
2, 121650, Note_on_c, 0, 83, 100
2, 121680, Note_on_c, 0, 83, 0
2, 121680, Note_on_c, 0, 71, 0
2, 121680, Note_on_c, 0, 86, 100
2, 121680, Note_on_c, 0, 66, 100
2, 121680, Note_on_c, 0, 69, 100
2, 121680, Note_on_c, 0, 72, 100
2, 121680, Note_on_c, 0, 84, 100
2, 121680, Note_on_c, 0, 81, 100
2, 121800, Note_on_c, 0, 81, 0
2, 121800, Note_on_c, 0, 66, 0
2, 121800, Note_on_c, 0, 69, 0
2, 121800, Note_on_c, 0, 72, 0
2, 121800, Note_on_c, 0, 84, 0
2, 121800, Note_on_c, 0, 83, 100
2, 121800, Note_on_c, 0, 79, 100
2, 121800, Note_on_c, 0, 71, 100
2, 121800, Note_on_c, 0, 67, 100
2, 121920, Note_on_c, 0, 67, 0
2, 121920, Note_on_c, 0, 79, 0
2, 121920, Note_on_c, 0, 86, 0
2, 121920, Note_on_c, 0, 83, 0
2, 121920, Note_on_c, 0, 71, 0
2, 121920, Note_on_c, 0, 64, 100
2, 121920, Note_on_c, 0, 88, 100
2, 121920, Note_on_c, 0, 79, 100
2, 122040, Note_on_c, 0, 79, 0
2, 122040, Note_on_c, 0, 88, 0
2, 122040, Note_on_c, 0, 64, 0
2, 122040, Note_on_c, 0, 86, 100
2, 122040, Note_on_c, 0, 78, 100
2, 122040, Note_on_c, 0, 69, 100
2, 122160, Note_on_c, 0, 69, 0
2, 122160, Note_on_c, 0, 78, 0
2, 122160, Note_on_c, 0, 86, 0
2, 122160, Note_on_c, 0, 57, 100
2, 122160, Note_on_c, 0, 85, 100
2, 122160, Note_on_c, 0, 76, 100
2, 122220, Note_on_c, 0, 76, 0
2, 122220, Note_on_c, 0, 85, 0
2, 122220, Note_on_c, 0, 57, 0
2, 122280, Note_on_c, 0, 74, 100
2, 122370, Note_on_c, 0, 74, 0
2, 122370, Note_on_c, 0, 78, 100
2, 122400, Note_on_c, 0, 78, 0
2, 122400, Note_on_c, 0, 81, 127
2, 122520, Note_on_c, 0, 76, 100
2, 122520, Note_on_c, 0, 79, 100
2, 122580, Note_on_c, 0, 79, 0
2, 122580, Note_on_c, 0, 76, 0
2, 122640, Note_on_c, 0, 78, 100
2, 122640, Note_on_c, 0, 74, 100
2, 122700, Note_on_c, 0, 74, 0
2, 122700, Note_on_c, 0, 78, 0
2, 122760, Note_on_c, 0, 76, 100
2, 122760, Note_on_c, 0, 73, 100
2, 122820, Note_on_c, 0, 73, 0
2, 122820, Note_on_c, 0, 76, 0
2, 122880, Note_on_c, 0, 69, 100
2, 122880, Note_on_c, 0, 74, 100
2, 122940, Note_on_c, 0, 74, 0
2, 122940, Note_on_c, 0, 69, 0
2, 123000, Note_on_c, 0, 73, 100
2, 123000, Note_on_c, 0, 76, 100
2, 123060, Note_on_c, 0, 76, 0
2, 123060, Note_on_c, 0, 73, 0
2, 123120, Note_on_c, 0, 78, 100
2, 123120, Note_on_c, 0, 74, 100
2, 123180, Note_on_c, 0, 74, 0
2, 123180, Note_on_c, 0, 78, 0
2, 123180, Note_on_c, 0, 81, 0
2, 123240, Note_on_c, 0, 76, 100
2, 123240, Note_on_c, 0, 79, 100
2, 123240, Note_on_c, 0, 81, 100
2, 123300, Note_on_c, 0, 81, 0
2, 123300, Note_on_c, 0, 79, 0
2, 123300, Note_on_c, 0, 76, 0
2, 123360, Note_on_c, 0, 73, 100
2, 123360, Note_on_c, 0, 76, 100
2, 123360, Note_on_c, 0, 81, 100
2, 123420, Note_on_c, 0, 81, 0
2, 123420, Note_on_c, 0, 76, 0
2, 123420, Note_on_c, 0, 73, 0
2, 123480, Note_on_c, 0, 81, 100
2, 123600, Note_on_c, 0, 81, 0
2, 124440, Note_on_c, 0, 79, 100
2, 124530, Note_on_c, 0, 79, 0
2, 124530, Note_on_c, 0, 84, 100
2, 124560, Note_on_c, 0, 84, 0
2, 124560, Note_on_c, 0, 88, 100
2, 124560, Note_on_c, 0, 79, 100
2, 124560, Note_on_c, 0, 76, 100
2, 124680, Note_on_c, 0, 60, 100
2, 124680, Note_on_c, 0, 72, 100
2, 124800, Note_on_c, 0, 72, 0
2, 124800, Note_on_c, 0, 76, 0
2, 124800, Note_on_c, 0, 88, 0
2, 124800, Note_on_c, 0, 79, 0
2, 124800, Note_on_c, 0, 60, 0
2, 124800, Note_on_c, 0, 72, 100
2, 124800, Note_on_c, 0, 60, 100
2, 124800, Note_on_c, 0, 74, 100
2, 124800, Note_on_c, 0, 77, 100
2, 124800, Note_on_c, 0, 86, 100
2, 124920, Note_on_c, 0, 86, 0
2, 124920, Note_on_c, 0, 74, 0
2, 124920, Note_on_c, 0, 72, 0
2, 124920, Note_on_c, 0, 60, 0
2, 124920, Note_on_c, 0, 77, 0
2, 124920, Note_on_c, 0, 60, 100
2, 124920, Note_on_c, 0, 72, 100
2, 124920, Note_on_c, 0, 76, 100
2, 124920, Note_on_c, 0, 84, 100
2, 125040, Note_on_c, 0, 84, 0
2, 125040, Note_on_c, 0, 60, 0
2, 125040, Note_on_c, 0, 72, 0
2, 125040, Note_on_c, 0, 76, 0
2, 125040, Note_on_c, 0, 71, 100
2, 125040, Note_on_c, 0, 67, 100
2, 125040, Note_on_c, 0, 60, 100
2, 125040, Note_on_c, 0, 76, 100
2, 125040, Note_on_c, 0, 84, 100
2, 125160, Note_on_c, 0, 84, 0
2, 125160, Note_on_c, 0, 60, 0
2, 125160, Note_on_c, 0, 71, 0
2, 125160, Note_on_c, 0, 67, 0
2, 125160, Note_on_c, 0, 76, 0
2, 125160, Note_on_c, 0, 69, 100
2, 125160, Note_on_c, 0, 65, 100
2, 125160, Note_on_c, 0, 60, 100
2, 125160, Note_on_c, 0, 76, 100
2, 125160, Note_on_c, 0, 84, 100
2, 125280, Note_on_c, 0, 84, 0
2, 125280, Note_on_c, 0, 60, 0
2, 125280, Note_on_c, 0, 69, 0
2, 125280, Note_on_c, 0, 65, 0
2, 125280, Note_on_c, 0, 76, 0
2, 125280, Note_on_c, 0, 60, 100
2, 125280, Note_on_c, 0, 64, 100
2, 125280, Note_on_c, 0, 67, 100
2, 125280, Note_on_c, 0, 72, 100
2, 125280, Note_on_c, 0, 84, 100
2, 125400, Note_on_c, 0, 84, 0
2, 125400, Note_on_c, 0, 67, 0
2, 125400, Note_on_c, 0, 60, 0
2, 125400, Note_on_c, 0, 64, 0
2, 125400, Note_on_c, 0, 72, 0
2, 125400, Note_on_c, 0, 67, 100
2, 125400, Note_on_c, 0, 65, 100
2, 125400, Note_on_c, 0, 62, 100
2, 125400, Note_on_c, 0, 71, 100
2, 125400, Note_on_c, 0, 83, 100
2, 125520, Note_on_c, 0, 83, 0
2, 125520, Note_on_c, 0, 62, 0
2, 125520, Note_on_c, 0, 67, 0
2, 125520, Note_on_c, 0, 65, 0
2, 125520, Note_on_c, 0, 71, 0
2, 125520, Note_on_c, 0, 86, 100
2, 125520, Note_on_c, 0, 67, 100
2, 125520, Note_on_c, 0, 64, 100
2, 125520, Note_on_c, 0, 60, 100
2, 125550, Note_on_c, 0, 86, 0
2, 125550, Note_on_c, 0, 84, 100
2, 125580, Note_on_c, 0, 84, 0
2, 125580, Note_on_c, 0, 83, 100
2, 125610, Note_on_c, 0, 83, 0
2, 125610, Note_on_c, 0, 84, 100
2, 125640, Note_on_c, 0, 84, 0
2, 125640, Note_on_c, 0, 60, 0
2, 125640, Note_on_c, 0, 64, 0
2, 125640, Note_on_c, 0, 67, 0
2, 125640, Note_on_c, 0, 59, 100
2, 125640, Note_on_c, 0, 62, 100
2, 125640, Note_on_c, 0, 67, 100
2, 125640, Note_on_c, 0, 86, 100
2, 125640, Note_on_c, 0, 79, 100
2, 125640, Note_on_c, 0, 74, 100
2, 125760, Note_on_c, 0, 74, 0
2, 125760, Note_on_c, 0, 62, 0
2, 125760, Note_on_c, 0, 67, 0
2, 125760, Note_on_c, 0, 59, 0
2, 125760, Note_on_c, 0, 79, 0
2, 125760, Note_on_c, 0, 86, 0
2, 125760, Note_on_c, 0, 55, 100
2, 125880, Note_on_c, 0, 55, 0
2, 125880, Note_on_c, 0, 79, 100
2, 125970, Note_on_c, 0, 79, 0
2, 125970, Note_on_c, 0, 84, 100
2, 126000, Note_on_c, 0, 84, 0
2, 126000, Note_on_c, 0, 88, 100
2, 126000, Note_on_c, 0, 76, 100
2, 126120, Note_on_c, 0, 67, 100
2, 126120, Note_on_c, 0, 64, 100
2, 126120, Note_on_c, 0, 60, 100
2, 126240, Note_on_c, 0, 60, 0
2, 126240, Note_on_c, 0, 67, 0
2, 126240, Note_on_c, 0, 88, 0
2, 126240, Note_on_c, 0, 76, 0
2, 126240, Note_on_c, 0, 64, 0
2, 126240, Note_on_c, 0, 59, 100
2, 126240, Note_on_c, 0, 62, 100
2, 126240, Note_on_c, 0, 64, 100
2, 126240, Note_on_c, 0, 68, 100
2, 126240, Note_on_c, 0, 76, 100
2, 126240, Note_on_c, 0, 88, 100
2, 126360, Note_on_c, 0, 88, 0
2, 126360, Note_on_c, 0, 62, 0
2, 126360, Note_on_c, 0, 64, 0
2, 126360, Note_on_c, 0, 59, 0
2, 126360, Note_on_c, 0, 76, 0
2, 126360, Note_on_c, 0, 68, 0
2, 126360, Note_on_c, 0, 57, 100
2, 126360, Note_on_c, 0, 60, 100
2, 126360, Note_on_c, 0, 64, 100
2, 126360, Note_on_c, 0, 69, 100
2, 126360, Note_on_c, 0, 76, 100
2, 126360, Note_on_c, 0, 88, 100
2, 126480, Note_on_c, 0, 88, 0
2, 126480, Note_on_c, 0, 60, 0
2, 126480, Note_on_c, 0, 64, 0
2, 126480, Note_on_c, 0, 57, 0
2, 126480, Note_on_c, 0, 76, 0
2, 126480, Note_on_c, 0, 69, 0
2, 126480, Note_on_c, 0, 59, 100
2, 126480, Note_on_c, 0, 62, 100
2, 126480, Note_on_c, 0, 64, 100
2, 126480, Note_on_c, 0, 68, 100
2, 126480, Note_on_c, 0, 86, 100
2, 126480, Note_on_c, 0, 74, 100
2, 126600, Note_on_c, 0, 74, 0
2, 126600, Note_on_c, 0, 62, 0
2, 126600, Note_on_c, 0, 64, 0
2, 126600, Note_on_c, 0, 59, 0
2, 126600, Note_on_c, 0, 86, 0
2, 126600, Note_on_c, 0, 68, 0
2, 126600, Note_on_c, 0, 60, 100
2, 126600, Note_on_c, 0, 64, 100
2, 126600, Note_on_c, 0, 69, 100
2, 126600, Note_on_c, 0, 84, 100
2, 126600, Note_on_c, 0, 72, 100
2, 126720, Note_on_c, 0, 72, 0
2, 126720, Note_on_c, 0, 69, 0
2, 126720, Note_on_c, 0, 60, 0
2, 126720, Note_on_c, 0, 64, 0
2, 126720, Note_on_c, 0, 84, 0
2, 126720, Note_on_c, 0, 62, 100
2, 126720, Note_on_c, 0, 67, 100
2, 126720, Note_on_c, 0, 71, 100
2, 126720, Note_on_c, 0, 83, 100
2, 126840, Note_on_c, 0, 83, 0
2, 126840, Note_on_c, 0, 71, 0
2, 126840, Note_on_c, 0, 67, 0
2, 126840, Note_on_c, 0, 69, 100
2, 126840, Note_on_c, 0, 72, 100
2, 126840, Note_on_c, 0, 84, 100
2, 126960, Note_on_c, 0, 84, 0
2, 126960, Note_on_c, 0, 62, 0
2, 126960, Note_on_c, 0, 69, 0
2, 126960, Note_on_c, 0, 72, 0
2, 126960, Note_on_c, 0, 62, 100
2, 126960, Note_on_c, 0, 66, 100
2, 126960, Note_on_c, 0, 69, 100
2, 126960, Note_on_c, 0, 81, 100
2, 127080, Note_on_c, 0, 81, 0
2, 127080, Note_on_c, 0, 62, 0
2, 127080, Note_on_c, 0, 66, 0
2, 127080, Note_on_c, 0, 69, 0
2, 127080, Note_on_c, 0, 67, 100
2, 127080, Note_on_c, 0, 79, 100
2, 127200, Note_on_c, 0, 79, 0
2, 127200, Note_on_c, 0, 67, 0
2, 127320, Note_on_c, 0, 79, 100
2, 127410, Note_on_c, 0, 79, 0
2, 127410, Note_on_c, 0, 84, 100
2, 127440, Note_on_c, 0, 84, 0
2, 127440, Note_on_c, 0, 88, 100
2, 127440, Note_on_c, 0, 79, 100
2, 127440, Note_on_c, 0, 76, 100
2, 127560, Note_on_c, 0, 60, 100
2, 127560, Note_on_c, 0, 72, 100
2, 127680, Note_on_c, 0, 72, 0
2, 127680, Note_on_c, 0, 76, 0
2, 127680, Note_on_c, 0, 88, 0
2, 127680, Note_on_c, 0, 79, 0
2, 127680, Note_on_c, 0, 60, 0
2, 127680, Note_on_c, 0, 72, 100
2, 127680, Note_on_c, 0, 60, 100
2, 127680, Note_on_c, 0, 74, 100
2, 127680, Note_on_c, 0, 77, 100
2, 127680, Note_on_c, 0, 86, 100
2, 127800, Note_on_c, 0, 86, 0
2, 127800, Note_on_c, 0, 74, 0
2, 127800, Note_on_c, 0, 72, 0
2, 127800, Note_on_c, 0, 60, 0
2, 127800, Note_on_c, 0, 77, 0
2, 127800, Note_on_c, 0, 60, 100
2, 127800, Note_on_c, 0, 72, 100
2, 127800, Note_on_c, 0, 76, 100
2, 127800, Note_on_c, 0, 84, 100
2, 127920, Note_on_c, 0, 84, 0
2, 127920, Note_on_c, 0, 60, 0
2, 127920, Note_on_c, 0, 72, 0
2, 127920, Note_on_c, 0, 76, 0
2, 127920, Note_on_c, 0, 71, 100
2, 127920, Note_on_c, 0, 67, 100
2, 127920, Note_on_c, 0, 60, 100
2, 127920, Note_on_c, 0, 76, 100
2, 127920, Note_on_c, 0, 84, 100
2, 128040, Note_on_c, 0, 84, 0
2, 128040, Note_on_c, 0, 60, 0
2, 128040, Note_on_c, 0, 71, 0
2, 128040, Note_on_c, 0, 67, 0
2, 128040, Note_on_c, 0, 76, 0
2, 128040, Note_on_c, 0, 69, 100
2, 128040, Note_on_c, 0, 65, 100
2, 128040, Note_on_c, 0, 60, 100
2, 128040, Note_on_c, 0, 76, 100
2, 128040, Note_on_c, 0, 84, 100
2, 128160, Note_on_c, 0, 84, 0
2, 128160, Note_on_c, 0, 60, 0
2, 128160, Note_on_c, 0, 69, 0
2, 128160, Note_on_c, 0, 65, 0
2, 128160, Note_on_c, 0, 76, 0
2, 128160, Note_on_c, 0, 60, 100
2, 128160, Note_on_c, 0, 64, 100
2, 128160, Note_on_c, 0, 67, 100
2, 128160, Note_on_c, 0, 72, 100
2, 128160, Note_on_c, 0, 84, 100
2, 128280, Note_on_c, 0, 84, 0
2, 128280, Note_on_c, 0, 67, 0
2, 128280, Note_on_c, 0, 60, 0
2, 128280, Note_on_c, 0, 64, 0
2, 128280, Note_on_c, 0, 72, 0
2, 128280, Note_on_c, 0, 67, 100
2, 128280, Note_on_c, 0, 65, 100
2, 128280, Note_on_c, 0, 62, 100
2, 128280, Note_on_c, 0, 71, 100
2, 128280, Note_on_c, 0, 83, 100
2, 128400, Note_on_c, 0, 83, 0
2, 128400, Note_on_c, 0, 62, 0
2, 128400, Note_on_c, 0, 67, 0
2, 128400, Note_on_c, 0, 65, 0
2, 128400, Note_on_c, 0, 71, 0
2, 128400, Note_on_c, 0, 86, 100
2, 128400, Note_on_c, 0, 67, 100
2, 128400, Note_on_c, 0, 64, 100
2, 128400, Note_on_c, 0, 60, 100
2, 128430, Note_on_c, 0, 86, 0
2, 128430, Note_on_c, 0, 84, 100
2, 128460, Note_on_c, 0, 84, 0
2, 128460, Note_on_c, 0, 83, 100
2, 128490, Note_on_c, 0, 83, 0
2, 128490, Note_on_c, 0, 84, 100
2, 128520, Note_on_c, 0, 84, 0
2, 128520, Note_on_c, 0, 60, 0
2, 128520, Note_on_c, 0, 64, 0
2, 128520, Note_on_c, 0, 67, 0
2, 128520, Note_on_c, 0, 59, 100
2, 128520, Note_on_c, 0, 62, 100
2, 128520, Note_on_c, 0, 67, 100
2, 128520, Note_on_c, 0, 86, 100
2, 128520, Note_on_c, 0, 79, 100
2, 128520, Note_on_c, 0, 74, 100
2, 128640, Note_on_c, 0, 74, 0
2, 128640, Note_on_c, 0, 62, 0
2, 128640, Note_on_c, 0, 67, 0
2, 128640, Note_on_c, 0, 59, 0
2, 128640, Note_on_c, 0, 79, 0
2, 128640, Note_on_c, 0, 86, 0
2, 128640, Note_on_c, 0, 55, 100
2, 128760, Note_on_c, 0, 55, 0
2, 128760, Note_on_c, 0, 79, 100
2, 128850, Note_on_c, 0, 79, 0
2, 128850, Note_on_c, 0, 84, 100
2, 128880, Note_on_c, 0, 84, 0
2, 128880, Note_on_c, 0, 88, 100
2, 128880, Note_on_c, 0, 76, 100
2, 129000, Note_on_c, 0, 67, 100
2, 129000, Note_on_c, 0, 64, 100
2, 129000, Note_on_c, 0, 60, 100
2, 129120, Note_on_c, 0, 60, 0
2, 129120, Note_on_c, 0, 67, 0
2, 129120, Note_on_c, 0, 88, 0
2, 129120, Note_on_c, 0, 76, 0
2, 129120, Note_on_c, 0, 64, 0
2, 129120, Note_on_c, 0, 59, 100
2, 129120, Note_on_c, 0, 62, 100
2, 129120, Note_on_c, 0, 64, 100
2, 129120, Note_on_c, 0, 68, 100
2, 129120, Note_on_c, 0, 76, 100
2, 129120, Note_on_c, 0, 88, 100
2, 129240, Note_on_c, 0, 88, 0
2, 129240, Note_on_c, 0, 62, 0
2, 129240, Note_on_c, 0, 64, 0
2, 129240, Note_on_c, 0, 59, 0
2, 129240, Note_on_c, 0, 76, 0
2, 129240, Note_on_c, 0, 68, 0
2, 129240, Note_on_c, 0, 57, 100
2, 129240, Note_on_c, 0, 60, 100
2, 129240, Note_on_c, 0, 64, 100
2, 129240, Note_on_c, 0, 69, 100
2, 129240, Note_on_c, 0, 76, 100
2, 129240, Note_on_c, 0, 88, 100
2, 129360, Note_on_c, 0, 88, 0
2, 129360, Note_on_c, 0, 60, 0
2, 129360, Note_on_c, 0, 64, 0
2, 129360, Note_on_c, 0, 57, 0
2, 129360, Note_on_c, 0, 76, 0
2, 129360, Note_on_c, 0, 69, 0
2, 129360, Note_on_c, 0, 59, 100
2, 129360, Note_on_c, 0, 62, 100
2, 129360, Note_on_c, 0, 64, 100
2, 129360, Note_on_c, 0, 68, 100
2, 129360, Note_on_c, 0, 86, 100
2, 129360, Note_on_c, 0, 74, 100
2, 129480, Note_on_c, 0, 74, 0
2, 129480, Note_on_c, 0, 62, 0
2, 129480, Note_on_c, 0, 64, 0
2, 129480, Note_on_c, 0, 59, 0
2, 129480, Note_on_c, 0, 86, 0
2, 129480, Note_on_c, 0, 68, 0
2, 129480, Note_on_c, 0, 60, 100
2, 129480, Note_on_c, 0, 64, 100
2, 129480, Note_on_c, 0, 69, 100
2, 129480, Note_on_c, 0, 84, 100
2, 129480, Note_on_c, 0, 72, 100
2, 129600, Note_on_c, 0, 72, 0
2, 129600, Note_on_c, 0, 69, 0
2, 129600, Note_on_c, 0, 60, 0
2, 129600, Note_on_c, 0, 64, 0
2, 129600, Note_on_c, 0, 84, 0
2, 129600, Note_on_c, 0, 62, 100
2, 129600, Note_on_c, 0, 67, 100
2, 129600, Note_on_c, 0, 71, 100
2, 129600, Note_on_c, 0, 83, 100
2, 129720, Note_on_c, 0, 83, 0
2, 129720, Note_on_c, 0, 71, 0
2, 129720, Note_on_c, 0, 67, 0
2, 129720, Note_on_c, 0, 69, 100
2, 129720, Note_on_c, 0, 72, 100
2, 129720, Note_on_c, 0, 84, 100
2, 129840, Note_on_c, 0, 84, 0
2, 129840, Note_on_c, 0, 62, 0
2, 129840, Note_on_c, 0, 69, 0
2, 129840, Note_on_c, 0, 72, 0
2, 129840, Note_on_c, 0, 62, 100
2, 129840, Note_on_c, 0, 66, 100
2, 129840, Note_on_c, 0, 69, 100
2, 129840, Note_on_c, 0, 81, 100
2, 129960, Note_on_c, 0, 81, 0
2, 129960, Note_on_c, 0, 62, 0
2, 129960, Note_on_c, 0, 66, 0
2, 129960, Note_on_c, 0, 69, 0
2, 129960, Note_on_c, 0, 67, 100
2, 129960, Note_on_c, 0, 79, 100
2, 130080, Note_on_c, 0, 79, 0
2, 130080, Note_on_c, 0, 67, 0
2, 130200, Note_on_c, 0, 79, 100
2, 130290, Note_on_c, 0, 79, 0
2, 130290, Note_on_c, 0, 86, 100
2, 130320, Note_on_c, 0, 86, 0
2, 130320, Note_on_c, 0, 77, 100
2, 130320, Note_on_c, 0, 89, 100
2, 130440, Note_on_c, 0, 89, 0
2, 130440, Note_on_c, 0, 77, 0
2, 130440, Note_on_c, 0, 89, 100
2, 130440, Note_on_c, 0, 77, 100
2, 130500, Note_on_c, 0, 77, 0
2, 130500, Note_on_c, 0, 89, 0
2, 130500, Note_on_c, 0, 88, 100
2, 130500, Note_on_c, 0, 76, 100
2, 130560, Note_on_c, 0, 76, 0
2, 130560, Note_on_c, 0, 88, 0
2, 130560, Note_on_c, 0, 86, 100
2, 130560, Note_on_c, 0, 74, 100
2, 130620, Note_on_c, 0, 74, 0
2, 130620, Note_on_c, 0, 86, 0
2, 130620, Note_on_c, 0, 84, 100
2, 130620, Note_on_c, 0, 72, 100
2, 130680, Note_on_c, 0, 72, 0
2, 130680, Note_on_c, 0, 84, 0
2, 130680, Note_on_c, 0, 84, 100
2, 130680, Note_on_c, 0, 72, 100
2, 130800, Note_on_c, 0, 72, 0
2, 130800, Note_on_c, 0, 84, 0
2, 130800, Note_on_c, 0, 83, 100
2, 130800, Note_on_c, 0, 71, 100
2, 130920, Note_on_c, 0, 71, 0
2, 130920, Note_on_c, 0, 83, 0
2, 130920, Note_on_c, 0, 84, 100
2, 130920, Note_on_c, 0, 72, 100
2, 130980, Note_on_c, 0, 72, 0
2, 130980, Note_on_c, 0, 84, 0
2, 130980, Note_on_c, 0, 91, 100
2, 130980, Note_on_c, 0, 79, 100
2, 131040, Note_on_c, 0, 79, 0
2, 131040, Note_on_c, 0, 91, 0
2, 131040, Note_on_c, 0, 79, 100
2, 131040, Note_on_c, 0, 91, 100
2, 131100, Note_on_c, 0, 91, 0
2, 131100, Note_on_c, 0, 79, 0
2, 131100, Note_on_c, 0, 77, 100
2, 131100, Note_on_c, 0, 89, 100
2, 131160, Note_on_c, 0, 89, 0
2, 131160, Note_on_c, 0, 77, 0
2, 131160, Note_on_c, 0, 76, 100
2, 131160, Note_on_c, 0, 89, 100
2, 131220, Note_on_c, 0, 89, 0
2, 131220, Note_on_c, 0, 76, 0
2, 131220, Note_on_c, 0, 74, 100
2, 131220, Note_on_c, 0, 88, 100
2, 131280, Note_on_c, 0, 88, 0
2, 131280, Note_on_c, 0, 74, 0
2, 131280, Note_on_c, 0, 72, 100
2, 131280, Note_on_c, 0, 86, 100
2, 131340, Note_on_c, 0, 86, 0
2, 131340, Note_on_c, 0, 72, 0
2, 131340, Note_on_c, 0, 71, 100
2, 131340, Note_on_c, 0, 84, 100
2, 131400, Note_on_c, 0, 84, 0
2, 131400, Note_on_c, 0, 71, 0
2, 131400, Note_on_c, 0, 72, 100
2, 131400, Note_on_c, 0, 84, 100
2, 131520, Note_on_c, 0, 84, 0
2, 131520, Note_on_c, 0, 72, 0
2, 131520, Note_on_c, 0, 83, 100
2, 131520, Note_on_c, 0, 71, 100
2, 131640, Note_on_c, 0, 71, 0
2, 131640, Note_on_c, 0, 83, 0
2, 131640, Note_on_c, 0, 79, 100
2, 131730, Note_on_c, 0, 79, 0
2, 131730, Note_on_c, 0, 84, 100
2, 131760, Note_on_c, 0, 84, 0
2, 131760, Note_on_c, 0, 88, 100
2, 131760, Note_on_c, 0, 79, 100
2, 131760, Note_on_c, 0, 76, 100
2, 132000, Note_on_c, 0, 76, 0
2, 132000, Note_on_c, 0, 79, 0
2, 132000, Note_on_c, 0, 88, 0
2, 132000, Note_on_c, 0, 74, 100
2, 132000, Note_on_c, 0, 77, 100
2, 132000, Note_on_c, 0, 86, 100
2, 132120, Note_on_c, 0, 86, 0
2, 132120, Note_on_c, 0, 77, 0
2, 132120, Note_on_c, 0, 74, 0
2, 132120, Note_on_c, 0, 84, 100
2, 132120, Note_on_c, 0, 76, 100
2, 132120, Note_on_c, 0, 72, 100
2, 132240, Note_on_c, 0, 72, 0
2, 132240, Note_on_c, 0, 76, 0
2, 132240, Note_on_c, 0, 84, 0
2, 132240, Note_on_c, 0, 84, 100
2, 132240, Note_on_c, 0, 72, 100
2, 132240, Note_on_c, 0, 76, 100
2, 132360, Note_on_c, 0, 76, 0
2, 132360, Note_on_c, 0, 72, 0
2, 132360, Note_on_c, 0, 84, 0
2, 132360, Note_on_c, 0, 84, 100
2, 132360, Note_on_c, 0, 76, 100
2, 132360, Note_on_c, 0, 72, 100
2, 132480, Note_on_c, 0, 72, 0
2, 132480, Note_on_c, 0, 76, 0
2, 132480, Note_on_c, 0, 84, 0
2, 132480, Note_on_c, 0, 72, 100
2, 132480, Note_on_c, 0, 81, 100
2, 132480, Note_on_c, 0, 84, 100
2, 132600, Note_on_c, 0, 84, 0
2, 132600, Note_on_c, 0, 81, 0
2, 132600, Note_on_c, 0, 72, 0
2, 132600, Note_on_c, 0, 86, 100
2, 132600, Note_on_c, 0, 81, 100
2, 132600, Note_on_c, 0, 77, 100
2, 132720, Note_on_c, 0, 77, 0
2, 132720, Note_on_c, 0, 81, 0
2, 132720, Note_on_c, 0, 86, 0
2, 132720, Note_on_c, 0, 74, 100
2, 132720, Note_on_c, 0, 77, 100
2, 132720, Note_on_c, 0, 83, 100
2, 132840, Note_on_c, 0, 83, 0
2, 132840, Note_on_c, 0, 77, 0
2, 132840, Note_on_c, 0, 74, 0
2, 132840, Note_on_c, 0, 84, 100
2, 132840, Note_on_c, 0, 76, 100
2, 132840, Note_on_c, 0, 72, 100
2, 132960, Note_on_c, 0, 72, 0
2, 132960, Note_on_c, 0, 76, 0
2, 132960, Note_on_c, 0, 84, 0
2, 133080, Note_on_c, 0, 79, 100
2, 133170, Note_on_c, 0, 79, 0
2, 133170, Note_on_c, 0, 86, 100
2, 133200, Note_on_c, 0, 86, 0
2, 133200, Note_on_c, 0, 77, 100
2, 133200, Note_on_c, 0, 89, 100
2, 133320, Note_on_c, 0, 89, 0
2, 133320, Note_on_c, 0, 77, 0
2, 133320, Note_on_c, 0, 89, 100
2, 133320, Note_on_c, 0, 77, 100
2, 133380, Note_on_c, 0, 77, 0
2, 133380, Note_on_c, 0, 89, 0
2, 133380, Note_on_c, 0, 88, 100
2, 133380, Note_on_c, 0, 76, 100
2, 133440, Note_on_c, 0, 76, 0
2, 133440, Note_on_c, 0, 88, 0
2, 133440, Note_on_c, 0, 86, 100
2, 133440, Note_on_c, 0, 74, 100
2, 133500, Note_on_c, 0, 74, 0
2, 133500, Note_on_c, 0, 86, 0
2, 133500, Note_on_c, 0, 84, 100
2, 133500, Note_on_c, 0, 72, 100
2, 133560, Note_on_c, 0, 72, 0
2, 133560, Note_on_c, 0, 84, 0
2, 133560, Note_on_c, 0, 84, 100
2, 133560, Note_on_c, 0, 72, 100
2, 133680, Note_on_c, 0, 72, 0
2, 133680, Note_on_c, 0, 84, 0
2, 133680, Note_on_c, 0, 83, 100
2, 133680, Note_on_c, 0, 71, 100
2, 133800, Note_on_c, 0, 71, 0
2, 133800, Note_on_c, 0, 83, 0
2, 133800, Note_on_c, 0, 84, 100
2, 133800, Note_on_c, 0, 72, 100
2, 133860, Note_on_c, 0, 72, 0
2, 133860, Note_on_c, 0, 84, 0
2, 133860, Note_on_c, 0, 91, 100
2, 133860, Note_on_c, 0, 79, 100
2, 133920, Note_on_c, 0, 79, 0
2, 133920, Note_on_c, 0, 91, 0
2, 133920, Note_on_c, 0, 79, 100
2, 133920, Note_on_c, 0, 91, 100
2, 133980, Note_on_c, 0, 91, 0
2, 133980, Note_on_c, 0, 79, 0
2, 133980, Note_on_c, 0, 77, 100
2, 133980, Note_on_c, 0, 89, 100
2, 134040, Note_on_c, 0, 89, 0
2, 134040, Note_on_c, 0, 77, 0
2, 134040, Note_on_c, 0, 76, 100
2, 134040, Note_on_c, 0, 89, 100
2, 134100, Note_on_c, 0, 89, 0
2, 134100, Note_on_c, 0, 76, 0
2, 134100, Note_on_c, 0, 74, 100
2, 134100, Note_on_c, 0, 88, 100
2, 134160, Note_on_c, 0, 88, 0
2, 134160, Note_on_c, 0, 74, 0
2, 134160, Note_on_c, 0, 72, 100
2, 134160, Note_on_c, 0, 86, 100
2, 134220, Note_on_c, 0, 86, 0
2, 134220, Note_on_c, 0, 72, 0
2, 134220, Note_on_c, 0, 71, 100
2, 134220, Note_on_c, 0, 84, 100
2, 134280, Note_on_c, 0, 84, 0
2, 134280, Note_on_c, 0, 71, 0
2, 134280, Note_on_c, 0, 72, 100
2, 134280, Note_on_c, 0, 84, 100
2, 134400, Note_on_c, 0, 84, 0
2, 134400, Note_on_c, 0, 72, 0
2, 134400, Note_on_c, 0, 83, 100
2, 134400, Note_on_c, 0, 71, 100
2, 134520, Note_on_c, 0, 71, 0
2, 134520, Note_on_c, 0, 83, 0
2, 134520, Note_on_c, 0, 79, 100
2, 134610, Note_on_c, 0, 79, 0
2, 134610, Note_on_c, 0, 84, 100
2, 134640, Note_on_c, 0, 84, 0
2, 134640, Note_on_c, 0, 88, 100
2, 134640, Note_on_c, 0, 79, 100
2, 134640, Note_on_c, 0, 76, 100
2, 134880, Note_on_c, 0, 76, 0
2, 134880, Note_on_c, 0, 79, 0
2, 134880, Note_on_c, 0, 88, 0
2, 134880, Note_on_c, 0, 74, 100
2, 134880, Note_on_c, 0, 77, 100
2, 134880, Note_on_c, 0, 86, 100
2, 135000, Note_on_c, 0, 86, 0
2, 135000, Note_on_c, 0, 77, 0
2, 135000, Note_on_c, 0, 74, 0
2, 135000, Note_on_c, 0, 84, 100
2, 135000, Note_on_c, 0, 76, 100
2, 135000, Note_on_c, 0, 72, 100
2, 135120, Note_on_c, 0, 72, 0
2, 135120, Note_on_c, 0, 76, 0
2, 135120, Note_on_c, 0, 84, 0
2, 135120, Note_on_c, 0, 84, 100
2, 135120, Note_on_c, 0, 72, 100
2, 135120, Note_on_c, 0, 76, 100
2, 135240, Note_on_c, 0, 76, 0
2, 135240, Note_on_c, 0, 72, 0
2, 135240, Note_on_c, 0, 84, 0
2, 135240, Note_on_c, 0, 84, 100
2, 135240, Note_on_c, 0, 76, 100
2, 135240, Note_on_c, 0, 72, 100
2, 135360, Note_on_c, 0, 72, 0
2, 135360, Note_on_c, 0, 76, 0
2, 135360, Note_on_c, 0, 84, 0
2, 135360, Note_on_c, 0, 72, 100
2, 135360, Note_on_c, 0, 81, 100
2, 135360, Note_on_c, 0, 84, 100
2, 135480, Note_on_c, 0, 84, 0
2, 135480, Note_on_c, 0, 81, 0
2, 135480, Note_on_c, 0, 72, 0
2, 135480, Note_on_c, 0, 86, 100
2, 135480, Note_on_c, 0, 81, 100
2, 135480, Note_on_c, 0, 77, 100
2, 135600, Note_on_c, 0, 77, 0
2, 135600, Note_on_c, 0, 81, 0
2, 135600, Note_on_c, 0, 86, 0
2, 135600, Note_on_c, 0, 74, 100
2, 135600, Note_on_c, 0, 77, 100
2, 135600, Note_on_c, 0, 83, 100
2, 135720, Note_on_c, 0, 83, 0
2, 135720, Note_on_c, 0, 77, 0
2, 135720, Note_on_c, 0, 74, 0
2, 135720, Note_on_c, 0, 84, 100
2, 135720, Note_on_c, 0, 76, 100
2, 135720, Note_on_c, 0, 72, 100
2, 135840, Note_on_c, 0, 72, 0
2, 135840, Note_on_c, 0, 76, 0
2, 135840, Note_on_c, 0, 84, 0
2, 135960, Note_on_c, 0, 55, 100
2, 136050, Note_on_c, 0, 55, 0
2, 136050, Note_on_c, 0, 55, 100
2, 136080, Note_on_c, 0, 55, 0
2, 136080, Note_on_c, 0, 60, 100
2, 136200, Note_on_c, 0, 60, 0
2, 136200, Note_on_c, 0, 72, 100
2, 136200, Note_on_c, 0, 67, 100
2, 136320, Note_on_c, 0, 67, 0
2, 136320, Note_on_c, 0, 72, 0
2, 136320, Note_on_c, 0, 72, 100
2, 136320, Note_on_c, 0, 67, 100
2, 136410, Note_on_c, 0, 67, 0
2, 136410, Note_on_c, 0, 72, 0
2, 136410, Note_on_c, 0, 72, 100
2, 136410, Note_on_c, 0, 67, 100
2, 136440, Note_on_c, 0, 67, 0
2, 136440, Note_on_c, 0, 72, 0
2, 136440, Note_on_c, 0, 71, 100
2, 136440, Note_on_c, 0, 74, 100
2, 136560, Note_on_c, 0, 74, 0
2, 136560, Note_on_c, 0, 71, 0
2, 136560, Note_on_c, 0, 67, 100
2, 136560, Note_on_c, 0, 72, 100
2, 136620, Note_on_c, 0, 72, 0
2, 136620, Note_on_c, 0, 67, 0
2, 136680, Note_on_c, 0, 55, 100
2, 136770, Note_on_c, 0, 55, 0
2, 136770, Note_on_c, 0, 55, 100
2, 136800, Note_on_c, 0, 55, 0
2, 136800, Note_on_c, 0, 60, 100
2, 136920, Note_on_c, 0, 60, 0
2, 136920, Note_on_c, 0, 72, 100
2, 136920, Note_on_c, 0, 76, 100
2, 137040, Note_on_c, 0, 76, 0
2, 137040, Note_on_c, 0, 72, 0
2, 137040, Note_on_c, 0, 72, 100
2, 137040, Note_on_c, 0, 76, 100
2, 137130, Note_on_c, 0, 76, 0
2, 137130, Note_on_c, 0, 72, 0
2, 137130, Note_on_c, 0, 76, 100
2, 137130, Note_on_c, 0, 72, 100
2, 137160, Note_on_c, 0, 72, 0
2, 137160, Note_on_c, 0, 76, 0
2, 137160, Note_on_c, 0, 71, 100
2, 137160, Note_on_c, 0, 77, 100
2, 137280, Note_on_c, 0, 77, 0
2, 137280, Note_on_c, 0, 71, 0
2, 137280, Note_on_c, 0, 72, 100
2, 137280, Note_on_c, 0, 76, 100
2, 137340, Note_on_c, 0, 76, 0
2, 137340, Note_on_c, 0, 72, 0
2, 137400, Note_on_c, 0, 60, 100
2, 137400, Note_on_c, 0, 72, 100
2, 137490, Note_on_c, 0, 72, 0
2, 137490, Note_on_c, 0, 60, 0
2, 137490, Note_on_c, 0, 60, 100
2, 137490, Note_on_c, 0, 72, 100
2, 137520, Note_on_c, 0, 72, 0
2, 137520, Note_on_c, 0, 60, 0
2, 137520, Note_on_c, 0, 57, 100
2, 137520, Note_on_c, 0, 69, 100
2, 137640, Note_on_c, 0, 69, 0
2, 137640, Note_on_c, 0, 57, 0
2, 137640, Note_on_c, 0, 84, 100
2, 137640, Note_on_c, 0, 81, 100
2, 137640, Note_on_c, 0, 76, 100
2, 137760, Note_on_c, 0, 76, 0
2, 137760, Note_on_c, 0, 81, 0
2, 137760, Note_on_c, 0, 84, 0
2, 137760, Note_on_c, 0, 54, 100
2, 137760, Note_on_c, 0, 66, 100
2, 137760, Note_on_c, 0, 84, 100
2, 137760, Note_on_c, 0, 81, 100
2, 137760, Note_on_c, 0, 74, 100
2, 137850, Note_on_c, 0, 66, 0
2, 137850, Note_on_c, 0, 54, 0
2, 137850, Note_on_c, 0, 54, 100
2, 137850, Note_on_c, 0, 66, 100
2, 137880, Note_on_c, 0, 66, 0
2, 137880, Note_on_c, 0, 81, 0
2, 137880, Note_on_c, 0, 74, 0
2, 137880, Note_on_c, 0, 84, 0
2, 137880, Note_on_c, 0, 54, 0
2, 137880, Note_on_c, 0, 55, 100
2, 137880, Note_on_c, 0, 67, 100
2, 138000, Note_on_c, 0, 67, 0
2, 138000, Note_on_c, 0, 55, 0
2, 138000, Note_on_c, 0, 83, 100
2, 138000, Note_on_c, 0, 79, 100
2, 138000, Note_on_c, 0, 74, 100
2, 138120, Note_on_c, 0, 74, 0
2, 138120, Note_on_c, 0, 79, 0
2, 138120, Note_on_c, 0, 83, 0
2, 138120, Note_on_c, 0, 71, 100
2, 138120, Note_on_c, 0, 79, 100
2, 138240, Note_on_c, 0, 79, 0
2, 138240, Note_on_c, 0, 71, 0
2, 138360, Note_on_c, 0, 71, 100
2, 138360, Note_on_c, 0, 74, 100
2, 138360, Note_on_c, 0, 79, 100
2, 138480, Note_on_c, 0, 79, 0
2, 138480, Note_on_c, 0, 74, 0
2, 138480, Note_on_c, 0, 71, 0
2, 138480, Note_on_c, 0, 69, 100
2, 138480, Note_on_c, 0, 72, 100
2, 138480, Note_on_c, 0, 74, 100
2, 138480, Note_on_c, 0, 78, 100
2, 138600, Note_on_c, 0, 78, 0
2, 138600, Note_on_c, 0, 69, 0
2, 138600, Note_on_c, 0, 72, 0
2, 138600, Note_on_c, 0, 74, 0
2, 138600, Note_on_c, 0, 79, 100
2, 138600, Note_on_c, 0, 74, 100
2, 138600, Note_on_c, 0, 71, 100
2, 138600, Note_on_c, 0, 67, 100
2, 138720, Note_on_c, 0, 67, 0
2, 138720, Note_on_c, 0, 79, 0
2, 138720, Note_on_c, 0, 74, 0
2, 138720, Note_on_c, 0, 71, 0
2, 138840, Note_on_c, 0, 55, 100
2, 138930, Note_on_c, 0, 55, 0
2, 138930, Note_on_c, 0, 55, 100
2, 138960, Note_on_c, 0, 55, 0
2, 138960, Note_on_c, 0, 60, 100
2, 139080, Note_on_c, 0, 60, 0
2, 139080, Note_on_c, 0, 72, 100
2, 139080, Note_on_c, 0, 67, 100
2, 139200, Note_on_c, 0, 67, 0
2, 139200, Note_on_c, 0, 72, 0
2, 139200, Note_on_c, 0, 72, 100
2, 139200, Note_on_c, 0, 67, 100
2, 139290, Note_on_c, 0, 67, 0
2, 139290, Note_on_c, 0, 72, 0
2, 139290, Note_on_c, 0, 72, 100
2, 139290, Note_on_c, 0, 67, 100
2, 139320, Note_on_c, 0, 67, 0
2, 139320, Note_on_c, 0, 72, 0
2, 139320, Note_on_c, 0, 71, 100
2, 139320, Note_on_c, 0, 74, 100
2, 139440, Note_on_c, 0, 74, 0
2, 139440, Note_on_c, 0, 71, 0
2, 139440, Note_on_c, 0, 67, 100
2, 139440, Note_on_c, 0, 72, 100
2, 139500, Note_on_c, 0, 72, 0
2, 139500, Note_on_c, 0, 67, 0
2, 139560, Note_on_c, 0, 55, 100
2, 139650, Note_on_c, 0, 55, 0
2, 139650, Note_on_c, 0, 55, 100
2, 139680, Note_on_c, 0, 55, 0
2, 139680, Note_on_c, 0, 60, 100
2, 139800, Note_on_c, 0, 60, 0
2, 139800, Note_on_c, 0, 72, 100
2, 139800, Note_on_c, 0, 76, 100
2, 139920, Note_on_c, 0, 76, 0
2, 139920, Note_on_c, 0, 72, 0
2, 139920, Note_on_c, 0, 72, 100
2, 139920, Note_on_c, 0, 76, 100
2, 140010, Note_on_c, 0, 76, 0
2, 140010, Note_on_c, 0, 72, 0
2, 140010, Note_on_c, 0, 76, 100
2, 140010, Note_on_c, 0, 72, 100
2, 140040, Note_on_c, 0, 72, 0
2, 140040, Note_on_c, 0, 76, 0
2, 140040, Note_on_c, 0, 71, 100
2, 140040, Note_on_c, 0, 77, 100
2, 140160, Note_on_c, 0, 77, 0
2, 140160, Note_on_c, 0, 71, 0
2, 140160, Note_on_c, 0, 72, 100
2, 140160, Note_on_c, 0, 76, 100
2, 140220, Note_on_c, 0, 76, 0
2, 140220, Note_on_c, 0, 72, 0
2, 140280, Note_on_c, 0, 60, 100
2, 140280, Note_on_c, 0, 72, 100
2, 140370, Note_on_c, 0, 72, 0
2, 140370, Note_on_c, 0, 60, 0
2, 140370, Note_on_c, 0, 60, 100
2, 140370, Note_on_c, 0, 72, 100
2, 140400, Note_on_c, 0, 72, 0
2, 140400, Note_on_c, 0, 60, 0
2, 140400, Note_on_c, 0, 57, 100
2, 140400, Note_on_c, 0, 69, 100
2, 140520, Note_on_c, 0, 69, 0
2, 140520, Note_on_c, 0, 57, 0
2, 140520, Note_on_c, 0, 84, 100
2, 140520, Note_on_c, 0, 81, 100
2, 140520, Note_on_c, 0, 76, 100
2, 140640, Note_on_c, 0, 76, 0
2, 140640, Note_on_c, 0, 81, 0
2, 140640, Note_on_c, 0, 84, 0
2, 140640, Note_on_c, 0, 54, 100
2, 140640, Note_on_c, 0, 66, 100
2, 140640, Note_on_c, 0, 84, 100
2, 140640, Note_on_c, 0, 81, 100
2, 140640, Note_on_c, 0, 74, 100
2, 140730, Note_on_c, 0, 66, 0
2, 140730, Note_on_c, 0, 54, 0
2, 140730, Note_on_c, 0, 54, 100
2, 140730, Note_on_c, 0, 66, 100
2, 140760, Note_on_c, 0, 66, 0
2, 140760, Note_on_c, 0, 81, 0
2, 140760, Note_on_c, 0, 74, 0
2, 140760, Note_on_c, 0, 84, 0
2, 140760, Note_on_c, 0, 54, 0
2, 140760, Note_on_c, 0, 55, 100
2, 140760, Note_on_c, 0, 67, 100
2, 140880, Note_on_c, 0, 67, 0
2, 140880, Note_on_c, 0, 55, 0
2, 140880, Note_on_c, 0, 83, 100
2, 140880, Note_on_c, 0, 79, 100
2, 140880, Note_on_c, 0, 74, 100
2, 141000, Note_on_c, 0, 74, 0
2, 141000, Note_on_c, 0, 79, 0
2, 141000, Note_on_c, 0, 83, 0
2, 141000, Note_on_c, 0, 71, 100
2, 141000, Note_on_c, 0, 79, 100
2, 141120, Note_on_c, 0, 79, 0
2, 141120, Note_on_c, 0, 71, 0
2, 141240, Note_on_c, 0, 71, 100
2, 141240, Note_on_c, 0, 74, 100
2, 141240, Note_on_c, 0, 79, 100
2, 141360, Note_on_c, 0, 79, 0
2, 141360, Note_on_c, 0, 74, 0
2, 141360, Note_on_c, 0, 71, 0
2, 141360, Note_on_c, 0, 69, 100
2, 141360, Note_on_c, 0, 72, 100
2, 141360, Note_on_c, 0, 74, 100
2, 141360, Note_on_c, 0, 78, 100
2, 141480, Note_on_c, 0, 78, 0
2, 141480, Note_on_c, 0, 69, 0
2, 141480, Note_on_c, 0, 72, 0
2, 141480, Note_on_c, 0, 74, 0
2, 141480, Note_on_c, 0, 79, 100
2, 141480, Note_on_c, 0, 74, 100
2, 141480, Note_on_c, 0, 71, 100
2, 141480, Note_on_c, 0, 67, 100
2, 141600, Note_on_c, 0, 67, 0
2, 141600, Note_on_c, 0, 79, 0
2, 141600, Note_on_c, 0, 74, 0
2, 141600, Note_on_c, 0, 71, 0
2, 141720, Note_on_c, 0, 55, 100
2, 141810, Note_on_c, 0, 55, 0
2, 141810, Note_on_c, 0, 55, 100
2, 141840, Note_on_c, 0, 55, 0
2, 141840, Note_on_c, 0, 56, 100
2, 141960, Note_on_c, 0, 56, 0
2, 141960, Note_on_c, 0, 55, 100
2, 142020, Note_on_c, 0, 55, 0
2, 142080, Note_on_c, 0, 71, 100
2, 142080, Note_on_c, 0, 79, 100
2, 142170, Note_on_c, 0, 79, 0
2, 142170, Note_on_c, 0, 71, 0
2, 142170, Note_on_c, 0, 71, 100
2, 142170, Note_on_c, 0, 79, 100
2, 142200, Note_on_c, 0, 79, 0
2, 142200, Note_on_c, 0, 71, 0
2, 142200, Note_on_c, 0, 72, 100
2, 142200, Note_on_c, 0, 78, 100
2, 142320, Note_on_c, 0, 78, 0
2, 142320, Note_on_c, 0, 72, 0
2, 142320, Note_on_c, 0, 71, 100
2, 142320, Note_on_c, 0, 79, 100
2, 142380, Note_on_c, 0, 79, 0
2, 142380, Note_on_c, 0, 71, 0
2, 142440, Note_on_c, 0, 55, 100
2, 142530, Note_on_c, 0, 55, 0
2, 142530, Note_on_c, 0, 55, 100
2, 142560, Note_on_c, 0, 55, 0
2, 142560, Note_on_c, 0, 54, 100
2, 142680, Note_on_c, 0, 54, 0
2, 142680, Note_on_c, 0, 55, 100
2, 142740, Note_on_c, 0, 55, 0
2, 142800, Note_on_c, 0, 71, 100
2, 142800, Note_on_c, 0, 79, 100
2, 142890, Note_on_c, 0, 79, 0
2, 142890, Note_on_c, 0, 71, 0
2, 142890, Note_on_c, 0, 71, 100
2, 142890, Note_on_c, 0, 79, 100
2, 142920, Note_on_c, 0, 79, 0
2, 142920, Note_on_c, 0, 71, 0
2, 142920, Note_on_c, 0, 72, 100
2, 142920, Note_on_c, 0, 81, 100
2, 143040, Note_on_c, 0, 81, 0
2, 143040, Note_on_c, 0, 72, 0
2, 143040, Note_on_c, 0, 79, 100
2, 143040, Note_on_c, 0, 71, 100
2, 143100, Note_on_c, 0, 71, 0
2, 143100, Note_on_c, 0, 79, 0
2, 143160, Note_on_c, 0, 55, 100
2, 143160, Note_on_c, 0, 67, 100
2, 143250, Note_on_c, 0, 67, 0
2, 143250, Note_on_c, 0, 55, 0
2, 143250, Note_on_c, 0, 55, 100
2, 143250, Note_on_c, 0, 67, 100
2, 143280, Note_on_c, 0, 67, 0
2, 143280, Note_on_c, 0, 55, 0
2, 143280, Note_on_c, 0, 60, 100
2, 143280, Note_on_c, 0, 72, 100
2, 143400, Note_on_c, 0, 72, 0
2, 143400, Note_on_c, 0, 60, 0
2, 143400, Note_on_c, 0, 84, 100
2, 143400, Note_on_c, 0, 76, 100
2, 143400, Note_on_c, 0, 72, 100
2, 143520, Note_on_c, 0, 72, 0
2, 143520, Note_on_c, 0, 76, 0
2, 143520, Note_on_c, 0, 84, 0
2, 143520, Note_on_c, 0, 57, 100
2, 143520, Note_on_c, 0, 69, 100
2, 143520, Note_on_c, 0, 72, 100
2, 143520, Note_on_c, 0, 76, 100
2, 143520, Note_on_c, 0, 84, 100
2, 143610, Note_on_c, 0, 69, 0
2, 143610, Note_on_c, 0, 57, 0
2, 143610, Note_on_c, 0, 57, 100
2, 143610, Note_on_c, 0, 69, 100
2, 143640, Note_on_c, 0, 69, 0
2, 143640, Note_on_c, 0, 76, 0
2, 143640, Note_on_c, 0, 84, 0
2, 143640, Note_on_c, 0, 72, 0
2, 143640, Note_on_c, 0, 57, 0
2, 143640, Note_on_c, 0, 53, 100
2, 143640, Note_on_c, 0, 65, 100
2, 143760, Note_on_c, 0, 65, 0
2, 143760, Note_on_c, 0, 53, 0
2, 143760, Note_on_c, 0, 84, 100
2, 143760, Note_on_c, 0, 81, 100
2, 143760, Note_on_c, 0, 74, 100
2, 143760, Note_on_c, 0, 72, 100
2, 143880, Note_on_c, 0, 72, 0
2, 143880, Note_on_c, 0, 84, 0
2, 143880, Note_on_c, 0, 81, 0
2, 143880, Note_on_c, 0, 74, 0
2, 143880, Note_on_c, 0, 54, 100
2, 143880, Note_on_c, 0, 66, 100
2, 143880, Note_on_c, 0, 72, 100
2, 143880, Note_on_c, 0, 75, 100
2, 143880, Note_on_c, 0, 81, 100
2, 143880, Note_on_c, 0, 84, 100
2, 143970, Note_on_c, 0, 66, 0
2, 143970, Note_on_c, 0, 54, 0
2, 143970, Note_on_c, 0, 54, 100
2, 143970, Note_on_c, 0, 66, 100
2, 144000, Note_on_c, 0, 66, 0
2, 144000, Note_on_c, 0, 84, 0
2, 144000, Note_on_c, 0, 72, 0
2, 144000, Note_on_c, 0, 75, 0
2, 144000, Note_on_c, 0, 54, 0
2, 144000, Note_on_c, 0, 81, 0
2, 144000, Note_on_c, 0, 55, 100
2, 144000, Note_on_c, 0, 67, 100
2, 144120, Note_on_c, 0, 67, 0
2, 144120, Note_on_c, 0, 55, 0
2, 144120, Note_on_c, 0, 72, 100
2, 144120, Note_on_c, 0, 79, 100
2, 144120, Note_on_c, 0, 76, 100
2, 144120, Note_on_c, 0, 84, 100
2, 144240, Note_on_c, 0, 84, 0
2, 144240, Note_on_c, 0, 72, 0
2, 144240, Note_on_c, 0, 79, 0
2, 144240, Note_on_c, 0, 76, 0
2, 144240, Note_on_c, 0, 74, 100
2, 144240, Note_on_c, 0, 83, 100
2, 144240, Note_on_c, 0, 79, 100
2, 144240, Note_on_c, 0, 77, 100
2, 144360, Note_on_c, 0, 77, 0
2, 144360, Note_on_c, 0, 74, 0
2, 144360, Note_on_c, 0, 83, 0
2, 144360, Note_on_c, 0, 79, 0
2, 144360, Note_on_c, 0, 72, 100
2, 144360, Note_on_c, 0, 76, 100
2, 144360, Note_on_c, 0, 79, 100
2, 144360, Note_on_c, 0, 84, 100
2, 144480, Note_on_c, 0, 84, 0
2, 144480, Note_on_c, 0, 72, 0
2, 144480, Note_on_c, 0, 76, 0
2, 144480, Note_on_c, 0, 79, 0
2, 144600, Note_on_c, 0, 55, 100
2, 144690, Note_on_c, 0, 55, 0
2, 144690, Note_on_c, 0, 55, 100
2, 144720, Note_on_c, 0, 55, 0
2, 144720, Note_on_c, 0, 56, 100
2, 144840, Note_on_c, 0, 56, 0
2, 144840, Note_on_c, 0, 55, 100
2, 144900, Note_on_c, 0, 55, 0
2, 144960, Note_on_c, 0, 71, 100
2, 144960, Note_on_c, 0, 79, 100
2, 145050, Note_on_c, 0, 79, 0
2, 145050, Note_on_c, 0, 71, 0
2, 145050, Note_on_c, 0, 71, 100
2, 145050, Note_on_c, 0, 79, 100
2, 145080, Note_on_c, 0, 79, 0
2, 145080, Note_on_c, 0, 71, 0
2, 145080, Note_on_c, 0, 72, 100
2, 145080, Note_on_c, 0, 78, 100
2, 145200, Note_on_c, 0, 78, 0
2, 145200, Note_on_c, 0, 72, 0
2, 145200, Note_on_c, 0, 71, 100
2, 145200, Note_on_c, 0, 79, 100
2, 145260, Note_on_c, 0, 79, 0
2, 145260, Note_on_c, 0, 71, 0
2, 145320, Note_on_c, 0, 55, 100
2, 145410, Note_on_c, 0, 55, 0
2, 145410, Note_on_c, 0, 55, 100
2, 145440, Note_on_c, 0, 55, 0
2, 145440, Note_on_c, 0, 54, 100
2, 145560, Note_on_c, 0, 54, 0
2, 145560, Note_on_c, 0, 55, 100
2, 145620, Note_on_c, 0, 55, 0
2, 145680, Note_on_c, 0, 71, 100
2, 145680, Note_on_c, 0, 79, 100
2, 145770, Note_on_c, 0, 79, 0
2, 145770, Note_on_c, 0, 71, 0
2, 145770, Note_on_c, 0, 71, 100
2, 145770, Note_on_c, 0, 79, 100
2, 145800, Note_on_c, 0, 79, 0
2, 145800, Note_on_c, 0, 71, 0
2, 145800, Note_on_c, 0, 72, 100
2, 145800, Note_on_c, 0, 81, 100
2, 145920, Note_on_c, 0, 81, 0
2, 145920, Note_on_c, 0, 72, 0
2, 145920, Note_on_c, 0, 79, 102
2, 145920, Note_on_c, 0, 71, 102
2, 145980, Note_on_c, 0, 71, 0
2, 145980, Note_on_c, 0, 79, 0
2, 146040, Note_on_c, 0, 55, 108
2, 146040, Note_on_c, 0, 67, 108
2, 146130, Note_on_c, 0, 67, 0
2, 146130, Note_on_c, 0, 55, 0
2, 146130, Note_on_c, 0, 55, 114
2, 146130, Note_on_c, 0, 67, 114
2, 146160, Note_on_c, 0, 67, 0
2, 146160, Note_on_c, 0, 55, 0
2, 146160, Note_on_c, 0, 60, 116
2, 146160, Note_on_c, 0, 72, 116
2, 146280, Note_on_c, 0, 72, 0
2, 146280, Note_on_c, 0, 60, 0
2, 146280, Note_on_c, 0, 84, 117
2, 146280, Note_on_c, 0, 76, 117
2, 146280, Note_on_c, 0, 72, 117
2, 146400, Note_on_c, 0, 72, 0
2, 146400, Note_on_c, 0, 76, 0
2, 146400, Note_on_c, 0, 84, 0
2, 146400, Note_on_c, 0, 57, 117
2, 146400, Note_on_c, 0, 69, 117
2, 146400, Note_on_c, 0, 72, 117
2, 146400, Note_on_c, 0, 76, 117
2, 146400, Note_on_c, 0, 84, 117
2, 146490, Note_on_c, 0, 69, 0
2, 146490, Note_on_c, 0, 57, 0
2, 146490, Note_on_c, 0, 57, 117
2, 146490, Note_on_c, 0, 69, 117
2, 146520, Note_on_c, 0, 69, 0
2, 146520, Note_on_c, 0, 76, 0
2, 146520, Note_on_c, 0, 84, 0
2, 146520, Note_on_c, 0, 72, 0
2, 146520, Note_on_c, 0, 57, 0
2, 146520, Note_on_c, 0, 53, 117
2, 146520, Note_on_c, 0, 65, 117
2, 146640, Note_on_c, 0, 65, 0
2, 146640, Note_on_c, 0, 53, 0
2, 146640, Note_on_c, 0, 84, 115
2, 146640, Note_on_c, 0, 81, 115
2, 146640, Note_on_c, 0, 74, 115
2, 146640, Note_on_c, 0, 72, 115
2, 146760, Note_on_c, 0, 72, 0
2, 146760, Note_on_c, 0, 84, 0
2, 146760, Note_on_c, 0, 81, 0
2, 146760, Note_on_c, 0, 74, 0
2, 146760, Note_on_c, 0, 54, 115
2, 146760, Note_on_c, 0, 66, 115
2, 146760, Note_on_c, 0, 72, 115
2, 146760, Note_on_c, 0, 75, 115
2, 146760, Note_on_c, 0, 81, 115
2, 146760, Note_on_c, 0, 84, 115
2, 146850, Note_on_c, 0, 66, 0
2, 146850, Note_on_c, 0, 54, 0
2, 146850, Note_on_c, 0, 54, 115
2, 146850, Note_on_c, 0, 66, 115
2, 146880, Note_on_c, 0, 66, 0
2, 146880, Note_on_c, 0, 84, 0
2, 146880, Note_on_c, 0, 72, 0
2, 146880, Note_on_c, 0, 75, 0
2, 146880, Note_on_c, 0, 54, 0
2, 146880, Note_on_c, 0, 81, 0
2, 146880, Note_on_c, 0, 55, 115
2, 146880, Note_on_c, 0, 67, 115
2, 147000, Note_on_c, 0, 67, 0
2, 147000, Note_on_c, 0, 55, 0
2, 147000, Note_on_c, 0, 72, 115
2, 147000, Note_on_c, 0, 79, 115
2, 147000, Note_on_c, 0, 76, 115
2, 147000, Note_on_c, 0, 84, 115
2, 147120, Note_on_c, 0, 84, 0
2, 147120, Note_on_c, 0, 72, 0
2, 147120, Note_on_c, 0, 79, 0
2, 147120, Note_on_c, 0, 76, 0
2, 147120, Note_on_c, 0, 74, 118
2, 147120, Note_on_c, 0, 83, 118
2, 147120, Note_on_c, 0, 79, 118
2, 147120, Note_on_c, 0, 77, 118
2, 147240, Note_on_c, 0, 77, 0
2, 147240, Note_on_c, 0, 74, 0
2, 147240, Note_on_c, 0, 83, 0
2, 147240, Note_on_c, 0, 79, 0
2, 147240, Note_on_c, 0, 72, 100
2, 147240, Note_on_c, 0, 76, 100
2, 147240, Note_on_c, 0, 79, 100
2, 147240, Note_on_c, 0, 84, 100
2, 147360, Note_on_c, 0, 84, 0
2, 147360, Note_on_c, 0, 72, 0
2, 147360, Note_on_c, 0, 76, 0
2, 147360, Note_on_c, 0, 79, 0
2, 147360, End_track
3, 0, Start_track
3, 0, Title_t, "piano L"
3, 0, Program_c, 1, 0
3, 0, Control_c, 1, 7, 127
3, 0, Control_c, 1, 10, 88
3, 240, Note_on_c, 1, 48, 100
3, 270, Note_on_c, 1, 48, 0
3, 270, Note_on_c, 1, 47, 100
3, 300, Note_on_c, 1, 47, 0
3, 300, Note_on_c, 1, 48, 100
3, 330, Note_on_c, 1, 48, 0
3, 330, Note_on_c, 1, 47, 100
3, 360, Note_on_c, 1, 47, 0
3, 360, Note_on_c, 1, 48, 100
3, 480, Note_on_c, 1, 48, 0
3, 480, Note_on_c, 1, 48, 100
3, 600, Note_on_c, 1, 48, 0
3, 600, Note_on_c, 1, 60, 100
3, 600, Note_on_c, 1, 48, 100
3, 720, Note_on_c, 1, 48, 0
3, 720, Note_on_c, 1, 60, 0
3, 720, Note_on_c, 1, 48, 100
3, 720, Note_on_c, 1, 60, 100
3, 840, Note_on_c, 1, 60, 0
3, 840, Note_on_c, 1, 48, 0
3, 840, Note_on_c, 1, 48, 100
3, 840, Note_on_c, 1, 36, 100
3, 960, Note_on_c, 1, 36, 0
3, 960, Note_on_c, 1, 48, 0
3, 960, Note_on_c, 1, 48, 100
3, 990, Note_on_c, 1, 48, 0
3, 990, Note_on_c, 1, 47, 100
3, 1020, Note_on_c, 1, 47, 0
3, 1020, Note_on_c, 1, 48, 100
3, 1050, Note_on_c, 1, 48, 0
3, 1050, Note_on_c, 1, 47, 100
3, 1080, Note_on_c, 1, 47, 0
3, 1080, Note_on_c, 1, 48, 100
3, 1200, Note_on_c, 1, 48, 0
3, 1200, Note_on_c, 1, 48, 100
3, 1320, Note_on_c, 1, 48, 0
3, 1320, Note_on_c, 1, 60, 100
3, 1320, Note_on_c, 1, 48, 100
3, 1440, Note_on_c, 1, 48, 0
3, 1440, Note_on_c, 1, 60, 0
3, 1440, Note_on_c, 1, 48, 100
3, 1440, Note_on_c, 1, 60, 100
3, 1560, Note_on_c, 1, 60, 0
3, 1560, Note_on_c, 1, 48, 0
3, 1560, Note_on_c, 1, 48, 100
3, 1560, Note_on_c, 1, 36, 100
3, 1680, Note_on_c, 1, 36, 0
3, 1680, Note_on_c, 1, 48, 0
3, 1680, Note_on_c, 1, 55, 100
3, 1710, Note_on_c, 1, 55, 0
3, 1710, Note_on_c, 1, 54, 100
3, 1740, Note_on_c, 1, 54, 0
3, 1740, Note_on_c, 1, 55, 100
3, 1770, Note_on_c, 1, 55, 0
3, 1770, Note_on_c, 1, 54, 100
3, 1800, Note_on_c, 1, 54, 0
3, 1800, Note_on_c, 1, 55, 100
3, 1920, Note_on_c, 1, 55, 0
3, 1920, Note_on_c, 1, 60, 100
3, 2040, Note_on_c, 1, 60, 0
3, 2040, Note_on_c, 1, 64, 100
3, 2160, Note_on_c, 1, 64, 0
3, 2160, Note_on_c, 1, 55, 100
3, 2160, Note_on_c, 1, 67, 100
3, 2280, Note_on_c, 1, 67, 0
3, 2280, Note_on_c, 1, 55, 0
3, 2280, Note_on_c, 1, 53, 100
3, 2280, Note_on_c, 1, 65, 100
3, 2400, Note_on_c, 1, 65, 0
3, 2400, Note_on_c, 1, 53, 0
3, 2400, Note_on_c, 1, 52, 100
3, 2400, Note_on_c, 1, 64, 100
3, 2520, Note_on_c, 1, 64, 0
3, 2520, Note_on_c, 1, 52, 0
3, 2520, Note_on_c, 1, 47, 100
3, 2520, Note_on_c, 1, 59, 100
3, 2640, Note_on_c, 1, 59, 0
3, 2640, Note_on_c, 1, 47, 0
3, 2640, Note_on_c, 1, 43, 100
3, 2640, Note_on_c, 1, 55, 100
3, 2760, Note_on_c, 1, 55, 0
3, 2760, Note_on_c, 1, 43, 0
3, 2760, Note_on_c, 1, 48, 100
3, 2760, Note_on_c, 1, 60, 100
3, 2880, Note_on_c, 1, 60, 0
3, 2880, Note_on_c, 1, 48, 0
3, 2880, Note_on_c, 1, 43, 100
3, 2880, Note_on_c, 1, 55, 100
3, 3000, Note_on_c, 1, 55, 0
3, 3000, Note_on_c, 1, 43, 0
3, 3000, Note_on_c, 1, 43, 100
3, 3120, Note_on_c, 1, 43, 0
3, 3120, Note_on_c, 1, 48, 100
3, 3150, Note_on_c, 1, 48, 0
3, 3150, Note_on_c, 1, 47, 100
3, 3180, Note_on_c, 1, 47, 0
3, 3180, Note_on_c, 1, 48, 100
3, 3210, Note_on_c, 1, 48, 0
3, 3210, Note_on_c, 1, 47, 100
3, 3240, Note_on_c, 1, 47, 0
3, 3240, Note_on_c, 1, 48, 100
3, 3360, Note_on_c, 1, 48, 0
3, 3360, Note_on_c, 1, 48, 100
3, 3480, Note_on_c, 1, 48, 0
3, 3480, Note_on_c, 1, 60, 100
3, 3480, Note_on_c, 1, 48, 100
3, 3600, Note_on_c, 1, 48, 0
3, 3600, Note_on_c, 1, 60, 0
3, 3600, Note_on_c, 1, 60, 100
3, 3600, Note_on_c, 1, 48, 100
3, 3720, Note_on_c, 1, 48, 0
3, 3720, Note_on_c, 1, 60, 0
3, 3720, Note_on_c, 1, 36, 100
3, 3720, Note_on_c, 1, 48, 100
3, 3840, Note_on_c, 1, 48, 0
3, 3840, Note_on_c, 1, 36, 0
3, 3840, Note_on_c, 1, 48, 100
3, 3870, Note_on_c, 1, 48, 0
3, 3870, Note_on_c, 1, 47, 100
3, 3900, Note_on_c, 1, 47, 0
3, 3900, Note_on_c, 1, 48, 100
3, 3930, Note_on_c, 1, 48, 0
3, 3930, Note_on_c, 1, 47, 100
3, 3960, Note_on_c, 1, 47, 0
3, 3960, Note_on_c, 1, 48, 100
3, 4080, Note_on_c, 1, 48, 0
3, 4080, Note_on_c, 1, 48, 100
3, 4200, Note_on_c, 1, 48, 0
3, 4200, Note_on_c, 1, 48, 100
3, 4200, Note_on_c, 1, 60, 100
3, 4320, Note_on_c, 1, 60, 0
3, 4320, Note_on_c, 1, 48, 0
3, 4320, Note_on_c, 1, 48, 100
3, 4320, Note_on_c, 1, 60, 100
3, 4440, Note_on_c, 1, 60, 0
3, 4440, Note_on_c, 1, 48, 0
3, 4440, Note_on_c, 1, 48, 100
3, 4440, Note_on_c, 1, 36, 100
3, 4560, Note_on_c, 1, 36, 0
3, 4560, Note_on_c, 1, 48, 0
3, 4560, Note_on_c, 1, 55, 100
3, 4590, Note_on_c, 1, 55, 0
3, 4590, Note_on_c, 1, 54, 100
3, 4620, Note_on_c, 1, 54, 0
3, 4620, Note_on_c, 1, 55, 100
3, 4650, Note_on_c, 1, 55, 0
3, 4650, Note_on_c, 1, 54, 100
3, 4680, Note_on_c, 1, 54, 0
3, 4680, Note_on_c, 1, 55, 100
3, 4800, Note_on_c, 1, 55, 0
3, 4800, Note_on_c, 1, 60, 100
3, 4920, Note_on_c, 1, 60, 0
3, 4920, Note_on_c, 1, 64, 100
3, 5040, Note_on_c, 1, 64, 0
3, 5040, Note_on_c, 1, 55, 100
3, 5040, Note_on_c, 1, 67, 100
3, 5160, Note_on_c, 1, 67, 0
3, 5160, Note_on_c, 1, 55, 0
3, 5160, Note_on_c, 1, 53, 100
3, 5160, Note_on_c, 1, 65, 100
3, 5280, Note_on_c, 1, 65, 0
3, 5280, Note_on_c, 1, 53, 0
3, 5280, Note_on_c, 1, 64, 100
3, 5280, Note_on_c, 1, 52, 100
3, 5400, Note_on_c, 1, 52, 0
3, 5400, Note_on_c, 1, 64, 0
3, 5400, Note_on_c, 1, 47, 100
3, 5400, Note_on_c, 1, 59, 100
3, 5520, Note_on_c, 1, 59, 0
3, 5520, Note_on_c, 1, 47, 0
3, 5520, Note_on_c, 1, 43, 100
3, 5520, Note_on_c, 1, 55, 100
3, 5640, Note_on_c, 1, 55, 0
3, 5640, Note_on_c, 1, 43, 0
3, 5640, Note_on_c, 1, 60, 100
3, 5640, Note_on_c, 1, 48, 100
3, 5760, Note_on_c, 1, 48, 0
3, 5760, Note_on_c, 1, 60, 0
3, 5760, Note_on_c, 1, 55, 100
3, 5760, Note_on_c, 1, 43, 100
3, 5880, Note_on_c, 1, 43, 0
3, 5880, Note_on_c, 1, 55, 0
3, 5880, Note_on_c, 1, 43, 100
3, 6000, Note_on_c, 1, 43, 0
3, 6120, Note_on_c, 1, 31, 100
3, 6120, Note_on_c, 1, 43, 100
3, 6240, Note_on_c, 1, 43, 0
3, 6240, Note_on_c, 1, 31, 0
3, 6240, Note_on_c, 1, 47, 100
3, 6240, Note_on_c, 1, 35, 100
3, 6360, Note_on_c, 1, 35, 0
3, 6360, Note_on_c, 1, 47, 0
3, 6360, Note_on_c, 1, 50, 100
3, 6360, Note_on_c, 1, 38, 100
3, 6480, Note_on_c, 1, 38, 0
3, 6480, Note_on_c, 1, 50, 0
3, 6480, Note_on_c, 1, 55, 100
3, 6480, Note_on_c, 1, 43, 100
3, 6600, Note_on_c, 1, 43, 0
3, 6600, Note_on_c, 1, 55, 0
3, 6600, Note_on_c, 1, 59, 100
3, 6600, Note_on_c, 1, 47, 100
3, 6720, Note_on_c, 1, 47, 0
3, 6720, Note_on_c, 1, 59, 0
3, 6720, Note_on_c, 1, 62, 100
3, 6720, Note_on_c, 1, 50, 100
3, 6840, Note_on_c, 1, 50, 0
3, 6840, Note_on_c, 1, 62, 0
3, 6840, Note_on_c, 1, 53, 100
3, 6840, Note_on_c, 1, 65, 100
3, 6960, Note_on_c, 1, 65, 0
3, 6960, Note_on_c, 1, 53, 0
3, 6960, Note_on_c, 1, 50, 100
3, 6960, Note_on_c, 1, 62, 100
3, 7080, Note_on_c, 1, 62, 0
3, 7080, Note_on_c, 1, 50, 0
3, 7080, Note_on_c, 1, 47, 100
3, 7080, Note_on_c, 1, 59, 100
3, 7200, Note_on_c, 1, 59, 0
3, 7200, Note_on_c, 1, 47, 0
3, 7200, Note_on_c, 1, 43, 100
3, 7200, Note_on_c, 1, 55, 100
3, 7320, Note_on_c, 1, 55, 0
3, 7320, Note_on_c, 1, 43, 0
3, 7320, Note_on_c, 1, 41, 100
3, 7320, Note_on_c, 1, 53, 100
3, 7440, Note_on_c, 1, 53, 0
3, 7440, Note_on_c, 1, 41, 0
3, 7440, Note_on_c, 1, 38, 100
3, 7440, Note_on_c, 1, 50, 100
3, 7560, Note_on_c, 1, 50, 0
3, 7560, Note_on_c, 1, 38, 0
3, 7560, Note_on_c, 1, 36, 100
3, 7560, Note_on_c, 1, 48, 100
3, 7680, Note_on_c, 1, 48, 0
3, 7680, Note_on_c, 1, 36, 0
3, 7680, Note_on_c, 1, 52, 100
3, 7800, Note_on_c, 1, 52, 0
3, 7800, Note_on_c, 1, 55, 100
3, 7920, Note_on_c, 1, 55, 0
3, 7920, Note_on_c, 1, 60, 100
3, 8040, Note_on_c, 1, 60, 0
3, 8040, Note_on_c, 1, 64, 100
3, 8160, Note_on_c, 1, 64, 0
3, 8160, Note_on_c, 1, 67, 100
3, 8280, Note_on_c, 1, 67, 0
3, 8280, Note_on_c, 1, 65, 100
3, 8280, Note_on_c, 1, 62, 100
3, 8280, Note_on_c, 1, 59, 100
3, 8280, Note_on_c, 1, 55, 100
3, 8400, Note_on_c, 1, 55, 0
3, 8400, Note_on_c, 1, 65, 0
3, 8400, Note_on_c, 1, 62, 0
3, 8400, Note_on_c, 1, 59, 0
3, 8400, Note_on_c, 1, 65, 100
3, 8400, Note_on_c, 1, 62, 100
3, 8400, Note_on_c, 1, 59, 100
3, 8400, Note_on_c, 1, 55, 100
3, 8520, Note_on_c, 1, 55, 0
3, 8520, Note_on_c, 1, 65, 0
3, 8520, Note_on_c, 1, 62, 0
3, 8520, Note_on_c, 1, 59, 0
3, 8520, Note_on_c, 1, 65, 100
3, 8520, Note_on_c, 1, 62, 100
3, 8520, Note_on_c, 1, 59, 100
3, 8520, Note_on_c, 1, 55, 100
3, 8640, Note_on_c, 1, 55, 0
3, 8640, Note_on_c, 1, 65, 0
3, 8640, Note_on_c, 1, 62, 0
3, 8640, Note_on_c, 1, 59, 0
3, 8640, Note_on_c, 1, 64, 100
3, 8640, Note_on_c, 1, 60, 100
3, 8760, Note_on_c, 1, 60, 0
3, 8760, Note_on_c, 1, 64, 0
3, 8760, Note_on_c, 1, 48, 100
3, 8880, Note_on_c, 1, 48, 0
3, 9000, Note_on_c, 1, 31, 100
3, 9000, Note_on_c, 1, 43, 100
3, 9120, Note_on_c, 1, 43, 0
3, 9120, Note_on_c, 1, 31, 0
3, 9120, Note_on_c, 1, 47, 100
3, 9120, Note_on_c, 1, 35, 100
3, 9240, Note_on_c, 1, 35, 0
3, 9240, Note_on_c, 1, 47, 0
3, 9240, Note_on_c, 1, 50, 100
3, 9240, Note_on_c, 1, 38, 100
3, 9360, Note_on_c, 1, 38, 0
3, 9360, Note_on_c, 1, 50, 0
3, 9360, Note_on_c, 1, 55, 100
3, 9360, Note_on_c, 1, 43, 100
3, 9480, Note_on_c, 1, 43, 0
3, 9480, Note_on_c, 1, 55, 0
3, 9480, Note_on_c, 1, 59, 100
3, 9480, Note_on_c, 1, 47, 100
3, 9600, Note_on_c, 1, 47, 0
3, 9600, Note_on_c, 1, 59, 0
3, 9600, Note_on_c, 1, 62, 100
3, 9600, Note_on_c, 1, 50, 100
3, 9720, Note_on_c, 1, 50, 0
3, 9720, Note_on_c, 1, 62, 0
3, 9720, Note_on_c, 1, 53, 100
3, 9720, Note_on_c, 1, 65, 100
3, 9840, Note_on_c, 1, 65, 0
3, 9840, Note_on_c, 1, 53, 0
3, 9840, Note_on_c, 1, 50, 100
3, 9840, Note_on_c, 1, 62, 100
3, 9960, Note_on_c, 1, 62, 0
3, 9960, Note_on_c, 1, 50, 0
3, 9960, Note_on_c, 1, 47, 100
3, 9960, Note_on_c, 1, 59, 100
3, 10080, Note_on_c, 1, 59, 0
3, 10080, Note_on_c, 1, 47, 0
3, 10080, Note_on_c, 1, 43, 100
3, 10080, Note_on_c, 1, 55, 100
3, 10200, Note_on_c, 1, 55, 0
3, 10200, Note_on_c, 1, 43, 0
3, 10200, Note_on_c, 1, 41, 100
3, 10200, Note_on_c, 1, 53, 100
3, 10320, Note_on_c, 1, 53, 0
3, 10320, Note_on_c, 1, 41, 0
3, 10320, Note_on_c, 1, 38, 100
3, 10320, Note_on_c, 1, 50, 100
3, 10440, Note_on_c, 1, 50, 0
3, 10440, Note_on_c, 1, 38, 0
3, 10440, Note_on_c, 1, 36, 100
3, 10440, Note_on_c, 1, 48, 100
3, 10560, Note_on_c, 1, 48, 0
3, 10560, Note_on_c, 1, 36, 0
3, 10560, Note_on_c, 1, 52, 100
3, 10680, Note_on_c, 1, 52, 0
3, 10680, Note_on_c, 1, 55, 100
3, 10800, Note_on_c, 1, 55, 0
3, 10800, Note_on_c, 1, 60, 100
3, 10920, Note_on_c, 1, 60, 0
3, 10920, Note_on_c, 1, 64, 100
3, 11040, Note_on_c, 1, 64, 0
3, 11040, Note_on_c, 1, 67, 100
3, 11160, Note_on_c, 1, 67, 0
3, 11160, Note_on_c, 1, 65, 100
3, 11160, Note_on_c, 1, 62, 100
3, 11160, Note_on_c, 1, 59, 100
3, 11160, Note_on_c, 1, 55, 100
3, 11280, Note_on_c, 1, 55, 0
3, 11280, Note_on_c, 1, 65, 0
3, 11280, Note_on_c, 1, 62, 0
3, 11280, Note_on_c, 1, 59, 0
3, 11280, Note_on_c, 1, 65, 100
3, 11280, Note_on_c, 1, 62, 100
3, 11280, Note_on_c, 1, 59, 100
3, 11280, Note_on_c, 1, 55, 100
3, 11400, Note_on_c, 1, 55, 0
3, 11400, Note_on_c, 1, 65, 0
3, 11400, Note_on_c, 1, 62, 0
3, 11400, Note_on_c, 1, 59, 0
3, 11400, Note_on_c, 1, 65, 100
3, 11400, Note_on_c, 1, 62, 100
3, 11400, Note_on_c, 1, 59, 100
3, 11400, Note_on_c, 1, 55, 100
3, 11520, Note_on_c, 1, 55, 0
3, 11520, Note_on_c, 1, 65, 0
3, 11520, Note_on_c, 1, 62, 0
3, 11520, Note_on_c, 1, 59, 0
3, 11520, Note_on_c, 1, 64, 100
3, 11520, Note_on_c, 1, 60, 100
3, 11640, Note_on_c, 1, 60, 0
3, 11640, Note_on_c, 1, 64, 0
3, 11640, Note_on_c, 1, 48, 100
3, 11760, Note_on_c, 1, 48, 0
3, 11880, Note_on_c, 1, 48, 100
3, 11880, Note_on_c, 1, 52, 100
3, 11940, Note_on_c, 1, 52, 0
3, 11940, Note_on_c, 1, 55, 100
3, 12000, Note_on_c, 1, 55, 0
3, 12000, Note_on_c, 1, 52, 100
3, 12060, Note_on_c, 1, 52, 0
3, 12060, Note_on_c, 1, 55, 100
3, 12120, Note_on_c, 1, 55, 0
3, 12120, Note_on_c, 1, 52, 100
3, 12180, Note_on_c, 1, 52, 0
3, 12180, Note_on_c, 1, 55, 100
3, 12240, Note_on_c, 1, 55, 0
3, 12240, Note_on_c, 1, 48, 0
3, 12240, Note_on_c, 1, 47, 100
3, 12240, Note_on_c, 1, 53, 100
3, 12300, Note_on_c, 1, 53, 0
3, 12300, Note_on_c, 1, 55, 100
3, 12360, Note_on_c, 1, 55, 0
3, 12360, Note_on_c, 1, 53, 100
3, 12420, Note_on_c, 1, 53, 0
3, 12420, Note_on_c, 1, 55, 100
3, 12480, Note_on_c, 1, 55, 0
3, 12480, Note_on_c, 1, 53, 100
3, 12540, Note_on_c, 1, 53, 0
3, 12540, Note_on_c, 1, 55, 100
3, 12600, Note_on_c, 1, 55, 0
3, 12600, Note_on_c, 1, 47, 0
3, 12600, Note_on_c, 1, 48, 100
3, 12600, Note_on_c, 1, 52, 100
3, 12660, Note_on_c, 1, 52, 0
3, 12660, Note_on_c, 1, 55, 100
3, 12720, Note_on_c, 1, 55, 0
3, 12720, Note_on_c, 1, 52, 100
3, 12780, Note_on_c, 1, 52, 0
3, 12780, Note_on_c, 1, 55, 100
3, 12840, Note_on_c, 1, 55, 0
3, 12840, Note_on_c, 1, 52, 100
3, 12900, Note_on_c, 1, 52, 0
3, 12900, Note_on_c, 1, 55, 100
3, 12960, Note_on_c, 1, 55, 0
3, 12960, Note_on_c, 1, 48, 0
3, 12960, Note_on_c, 1, 43, 100
3, 13020, Note_on_c, 1, 43, 0
3, 13020, Note_on_c, 1, 55, 100
3, 13080, Note_on_c, 1, 55, 0
3, 13080, Note_on_c, 1, 54, 100
3, 13140, Note_on_c, 1, 54, 0
3, 13140, Note_on_c, 1, 55, 100
3, 13200, Note_on_c, 1, 55, 0
3, 13200, Note_on_c, 1, 59, 100
3, 13260, Note_on_c, 1, 59, 0
3, 13260, Note_on_c, 1, 55, 100
3, 13320, Note_on_c, 1, 55, 0
3, 13320, Note_on_c, 1, 62, 100
3, 13380, Note_on_c, 1, 62, 0
3, 13380, Note_on_c, 1, 55, 100
3, 13440, Note_on_c, 1, 55, 0
3, 13440, Note_on_c, 1, 57, 100
3, 13500, Note_on_c, 1, 57, 0
3, 13500, Note_on_c, 1, 55, 100
3, 13560, Note_on_c, 1, 55, 0
3, 13560, Note_on_c, 1, 57, 100
3, 13620, Note_on_c, 1, 57, 0
3, 13620, Note_on_c, 1, 55, 100
3, 13680, Note_on_c, 1, 55, 0
3, 13680, Note_on_c, 1, 60, 100
3, 13740, Note_on_c, 1, 60, 0
3, 13740, Note_on_c, 1, 55, 100
3, 13800, Note_on_c, 1, 55, 0
3, 13800, Note_on_c, 1, 62, 100
3, 13860, Note_on_c, 1, 62, 0
3, 13860, Note_on_c, 1, 55, 100
3, 13920, Note_on_c, 1, 55, 0
3, 13920, Note_on_c, 1, 64, 100
3, 13980, Note_on_c, 1, 64, 0
3, 13980, Note_on_c, 1, 55, 100
3, 14040, Note_on_c, 1, 55, 0
3, 14040, Note_on_c, 1, 65, 100
3, 14100, Note_on_c, 1, 65, 0
3, 14100, Note_on_c, 1, 55, 100
3, 14160, Note_on_c, 1, 55, 0
3, 14160, Note_on_c, 1, 65, 100
3, 14220, Note_on_c, 1, 65, 0
3, 14220, Note_on_c, 1, 55, 100
3, 14280, Note_on_c, 1, 55, 0
3, 14280, Note_on_c, 1, 65, 100
3, 14340, Note_on_c, 1, 65, 0
3, 14340, Note_on_c, 1, 55, 100
3, 14400, Note_on_c, 1, 55, 0
3, 14400, Note_on_c, 1, 64, 100
3, 14400, Note_on_c, 1, 60, 100
3, 14520, Note_on_c, 1, 60, 0
3, 14520, Note_on_c, 1, 64, 0
3, 14520, Note_on_c, 1, 48, 100
3, 14640, Note_on_c, 1, 48, 0
3, 14760, Note_on_c, 1, 48, 100
3, 14760, Note_on_c, 1, 52, 100
3, 14820, Note_on_c, 1, 52, 0
3, 14820, Note_on_c, 1, 55, 100
3, 14880, Note_on_c, 1, 55, 0
3, 14880, Note_on_c, 1, 52, 100
3, 14940, Note_on_c, 1, 52, 0
3, 14940, Note_on_c, 1, 55, 100
3, 15000, Note_on_c, 1, 55, 0
3, 15000, Note_on_c, 1, 52, 100
3, 15060, Note_on_c, 1, 52, 0
3, 15060, Note_on_c, 1, 55, 100
3, 15120, Note_on_c, 1, 55, 0
3, 15120, Note_on_c, 1, 48, 0
3, 15120, Note_on_c, 1, 47, 100
3, 15120, Note_on_c, 1, 53, 100
3, 15180, Note_on_c, 1, 53, 0
3, 15180, Note_on_c, 1, 55, 100
3, 15240, Note_on_c, 1, 55, 0
3, 15240, Note_on_c, 1, 53, 100
3, 15300, Note_on_c, 1, 53, 0
3, 15300, Note_on_c, 1, 55, 100
3, 15360, Note_on_c, 1, 55, 0
3, 15360, Note_on_c, 1, 53, 100
3, 15420, Note_on_c, 1, 53, 0
3, 15420, Note_on_c, 1, 55, 100
3, 15480, Note_on_c, 1, 55, 0
3, 15480, Note_on_c, 1, 47, 0
3, 15480, Note_on_c, 1, 48, 100
3, 15480, Note_on_c, 1, 52, 100
3, 15540, Note_on_c, 1, 52, 0
3, 15540, Note_on_c, 1, 55, 100
3, 15600, Note_on_c, 1, 55, 0
3, 15600, Note_on_c, 1, 52, 100
3, 15660, Note_on_c, 1, 52, 0
3, 15660, Note_on_c, 1, 55, 100
3, 15720, Note_on_c, 1, 55, 0
3, 15720, Note_on_c, 1, 52, 100
3, 15780, Note_on_c, 1, 52, 0
3, 15780, Note_on_c, 1, 55, 100
3, 15840, Note_on_c, 1, 55, 0
3, 15840, Note_on_c, 1, 48, 0
3, 15840, Note_on_c, 1, 43, 100
3, 15900, Note_on_c, 1, 43, 0
3, 15900, Note_on_c, 1, 55, 100
3, 15960, Note_on_c, 1, 55, 0
3, 15960, Note_on_c, 1, 54, 100
3, 16020, Note_on_c, 1, 54, 0
3, 16020, Note_on_c, 1, 55, 100
3, 16080, Note_on_c, 1, 55, 0
3, 16080, Note_on_c, 1, 59, 100
3, 16140, Note_on_c, 1, 59, 0
3, 16140, Note_on_c, 1, 55, 100
3, 16200, Note_on_c, 1, 55, 0
3, 16200, Note_on_c, 1, 62, 100
3, 16260, Note_on_c, 1, 62, 0
3, 16260, Note_on_c, 1, 55, 100
3, 16320, Note_on_c, 1, 55, 0
3, 16320, Note_on_c, 1, 57, 100
3, 16380, Note_on_c, 1, 57, 0
3, 16380, Note_on_c, 1, 55, 100
3, 16440, Note_on_c, 1, 55, 0
3, 16440, Note_on_c, 1, 57, 100
3, 16500, Note_on_c, 1, 57, 0
3, 16500, Note_on_c, 1, 55, 100
3, 16560, Note_on_c, 1, 55, 0
3, 16560, Note_on_c, 1, 60, 100
3, 16620, Note_on_c, 1, 60, 0
3, 16620, Note_on_c, 1, 55, 100
3, 16680, Note_on_c, 1, 55, 0
3, 16680, Note_on_c, 1, 62, 100
3, 16740, Note_on_c, 1, 62, 0
3, 16740, Note_on_c, 1, 55, 100
3, 16800, Note_on_c, 1, 55, 0
3, 16800, Note_on_c, 1, 64, 100
3, 16860, Note_on_c, 1, 64, 0
3, 16860, Note_on_c, 1, 55, 100
3, 16920, Note_on_c, 1, 55, 0
3, 16920, Note_on_c, 1, 65, 100
3, 16980, Note_on_c, 1, 65, 0
3, 16980, Note_on_c, 1, 55, 100
3, 17040, Note_on_c, 1, 55, 0
3, 17040, Note_on_c, 1, 65, 100
3, 17100, Note_on_c, 1, 65, 0
3, 17100, Note_on_c, 1, 55, 100
3, 17160, Note_on_c, 1, 55, 0
3, 17160, Note_on_c, 1, 65, 100
3, 17220, Note_on_c, 1, 65, 0
3, 17220, Note_on_c, 1, 55, 100
3, 17280, Note_on_c, 1, 55, 0
3, 17280, Note_on_c, 1, 64, 100
3, 17280, Note_on_c, 1, 60, 100
3, 17400, Note_on_c, 1, 60, 0
3, 17400, Note_on_c, 1, 64, 0
3, 17400, Note_on_c, 1, 48, 100
3, 17520, Note_on_c, 1, 48, 0
3, 17640, Note_on_c, 1, 52, 100
3, 17700, Note_on_c, 1, 52, 0
3, 17700, Note_on_c, 1, 54, 100
3, 17760, Note_on_c, 1, 54, 0
3, 17760, Note_on_c, 1, 56, 100
3, 17820, Note_on_c, 1, 56, 0
3, 17820, Note_on_c, 1, 52, 100
3, 17880, Note_on_c, 1, 52, 0
3, 17880, Note_on_c, 1, 54, 100
3, 17940, Note_on_c, 1, 54, 0
3, 17940, Note_on_c, 1, 56, 100
3, 18000, Note_on_c, 1, 56, 0
3, 18000, Note_on_c, 1, 57, 100
3, 18060, Note_on_c, 1, 57, 0
3, 18360, Note_on_c, 1, 48, 100
3, 18420, Note_on_c, 1, 48, 0
3, 18420, Note_on_c, 1, 50, 100
3, 18480, Note_on_c, 1, 50, 0
3, 18480, Note_on_c, 1, 52, 100
3, 18540, Note_on_c, 1, 52, 0
3, 18540, Note_on_c, 1, 48, 100
3, 18600, Note_on_c, 1, 48, 0
3, 18600, Note_on_c, 1, 50, 100
3, 18660, Note_on_c, 1, 50, 0
3, 18660, Note_on_c, 1, 52, 100
3, 18720, Note_on_c, 1, 52, 0
3, 18720, Note_on_c, 1, 53, 100
3, 18780, Note_on_c, 1, 53, 0
3, 19080, Note_on_c, 1, 62, 100
3, 19140, Note_on_c, 1, 62, 0
3, 19140, Note_on_c, 1, 55, 100
3, 19200, Note_on_c, 1, 55, 0
3, 19200, Note_on_c, 1, 57, 100
3, 19260, Note_on_c, 1, 57, 0
3, 19260, Note_on_c, 1, 55, 100
3, 19320, Note_on_c, 1, 55, 0
3, 19320, Note_on_c, 1, 57, 100
3, 19380, Note_on_c, 1, 57, 0
3, 19380, Note_on_c, 1, 55, 100
3, 19440, Note_on_c, 1, 55, 0
3, 19440, Note_on_c, 1, 60, 100
3, 19500, Note_on_c, 1, 60, 0
3, 19500, Note_on_c, 1, 55, 100
3, 19560, Note_on_c, 1, 55, 0
3, 19560, Note_on_c, 1, 62, 100
3, 19620, Note_on_c, 1, 62, 0
3, 19620, Note_on_c, 1, 55, 100
3, 19680, Note_on_c, 1, 55, 0
3, 19680, Note_on_c, 1, 64, 100
3, 19740, Note_on_c, 1, 64, 0
3, 19740, Note_on_c, 1, 55, 100
3, 19800, Note_on_c, 1, 55, 0
3, 19800, Note_on_c, 1, 65, 100
3, 19860, Note_on_c, 1, 65, 0
3, 19860, Note_on_c, 1, 55, 100
3, 19920, Note_on_c, 1, 55, 0
3, 19920, Note_on_c, 1, 65, 100
3, 19980, Note_on_c, 1, 65, 0
3, 19980, Note_on_c, 1, 55, 100
3, 20040, Note_on_c, 1, 55, 0
3, 20040, Note_on_c, 1, 65, 100
3, 20100, Note_on_c, 1, 65, 0
3, 20100, Note_on_c, 1, 55, 100
3, 20160, Note_on_c, 1, 55, 0
3, 20160, Note_on_c, 1, 60, 100
3, 20160, Note_on_c, 1, 64, 100
3, 20280, Note_on_c, 1, 64, 0
3, 20280, Note_on_c, 1, 60, 0
3, 20280, Note_on_c, 1, 48, 100
3, 20400, Note_on_c, 1, 48, 0
3, 20520, Note_on_c, 1, 52, 100
3, 20580, Note_on_c, 1, 52, 0
3, 20580, Note_on_c, 1, 54, 100
3, 20640, Note_on_c, 1, 54, 0
3, 20640, Note_on_c, 1, 56, 100
3, 20700, Note_on_c, 1, 56, 0
3, 20700, Note_on_c, 1, 52, 100
3, 20760, Note_on_c, 1, 52, 0
3, 20760, Note_on_c, 1, 54, 100
3, 20820, Note_on_c, 1, 54, 0
3, 20820, Note_on_c, 1, 56, 100
3, 20880, Note_on_c, 1, 56, 0
3, 20880, Note_on_c, 1, 57, 100
3, 20940, Note_on_c, 1, 57, 0
3, 21240, Note_on_c, 1, 48, 100
3, 21300, Note_on_c, 1, 48, 0
3, 21300, Note_on_c, 1, 50, 100
3, 21360, Note_on_c, 1, 50, 0
3, 21360, Note_on_c, 1, 52, 100
3, 21420, Note_on_c, 1, 52, 0
3, 21420, Note_on_c, 1, 48, 100
3, 21480, Note_on_c, 1, 48, 0
3, 21480, Note_on_c, 1, 50, 100
3, 21540, Note_on_c, 1, 50, 0
3, 21540, Note_on_c, 1, 52, 100
3, 21600, Note_on_c, 1, 52, 0
3, 21600, Note_on_c, 1, 53, 100
3, 21660, Note_on_c, 1, 53, 0
3, 21960, Note_on_c, 1, 62, 100
3, 22020, Note_on_c, 1, 62, 0
3, 22020, Note_on_c, 1, 55, 100
3, 22080, Note_on_c, 1, 55, 0
3, 22080, Note_on_c, 1, 57, 100
3, 22140, Note_on_c, 1, 57, 0
3, 22140, Note_on_c, 1, 55, 100
3, 22200, Note_on_c, 1, 55, 0
3, 22200, Note_on_c, 1, 57, 100
3, 22260, Note_on_c, 1, 57, 0
3, 22260, Note_on_c, 1, 55, 100
3, 22320, Note_on_c, 1, 55, 0
3, 22320, Note_on_c, 1, 60, 100
3, 22380, Note_on_c, 1, 60, 0
3, 22380, Note_on_c, 1, 55, 100
3, 22440, Note_on_c, 1, 55, 0
3, 22440, Note_on_c, 1, 62, 100
3, 22500, Note_on_c, 1, 62, 0
3, 22500, Note_on_c, 1, 55, 100
3, 22560, Note_on_c, 1, 55, 0
3, 22560, Note_on_c, 1, 64, 100
3, 22620, Note_on_c, 1, 64, 0
3, 22620, Note_on_c, 1, 55, 100
3, 22680, Note_on_c, 1, 55, 0
3, 22680, Note_on_c, 1, 65, 100
3, 22740, Note_on_c, 1, 65, 0
3, 22740, Note_on_c, 1, 55, 100
3, 22800, Note_on_c, 1, 55, 0
3, 22800, Note_on_c, 1, 65, 100
3, 22860, Note_on_c, 1, 65, 0
3, 22860, Note_on_c, 1, 55, 100
3, 22920, Note_on_c, 1, 55, 0
3, 22920, Note_on_c, 1, 65, 100
3, 22980, Note_on_c, 1, 65, 0
3, 22980, Note_on_c, 1, 55, 100
3, 23040, Note_on_c, 1, 55, 0
3, 23040, Note_on_c, 1, 60, 100
3, 23040, Note_on_c, 1, 64, 100
3, 23160, Note_on_c, 1, 64, 0
3, 23160, Note_on_c, 1, 60, 0
3, 23160, Note_on_c, 1, 48, 100
3, 23280, Note_on_c, 1, 48, 0
3, 23399, Control_c, 1, 0, 0
3, 23399, Control_c, 1, 32, 0
3, 23400, Program_c, 1, 0
3, 23400, Control_c, 1, 11, 75
3, 23400, Control_c, 1, 7, 92
3, 23400, Control_c, 1, 7, 100
3, 23400, Control_c, 1, 91, 127
3, 23400, Control_c, 1, 10, 64
3, 23760, Note_on_c, 1, 43, 94
3, 23880, Note_on_c, 1, 43, 0
3, 23880, Note_on_c, 1, 47, 88
3, 24000, Note_on_c, 1, 47, 0
3, 24000, Note_on_c, 1, 50, 88
3, 24120, Note_on_c, 1, 50, 0
3, 24120, Note_on_c, 1, 55, 94
3, 24240, Note_on_c, 1, 55, 0
3, 24240, Note_on_c, 1, 43, 88
3, 24360, Note_on_c, 1, 43, 0
3, 24480, Note_on_c, 1, 50, 94
3, 24600, Note_on_c, 1, 50, 0
3, 24600, Note_on_c, 1, 38, 88
3, 24720, Note_on_c, 1, 38, 0
3, 24840, Note_on_c, 1, 43, 94
3, 24960, Note_on_c, 1, 43, 0
3, 24960, Note_on_c, 1, 31, 88
3, 25080, Note_on_c, 1, 31, 0
3, 25200, Note_on_c, 1, 43, 94
3, 25320, Note_on_c, 1, 43, 0
3, 25320, Note_on_c, 1, 47, 88
3, 25440, Note_on_c, 1, 47, 0
3, 25440, Note_on_c, 1, 51, 88
3, 25560, Note_on_c, 1, 51, 0
3, 25560, Note_on_c, 1, 52, 94
3, 25680, Note_on_c, 1, 52, 0
3, 25680, Note_on_c, 1, 54, 88
3, 25800, Note_on_c, 1, 54, 0
3, 25800, Note_on_c, 1, 55, 88
3, 25920, Note_on_c, 1, 55, 0
3, 25920, Note_on_c, 1, 45, 94
3, 26040, Note_on_c, 1, 45, 0
3, 26160, Note_on_c, 1, 45, 88
3, 26280, Note_on_c, 1, 45, 0
3, 26280, Note_on_c, 1, 50, 94
3, 26400, Note_on_c, 1, 50, 0
3, 26400, Note_on_c, 1, 62, 88
3, 26520, Note_on_c, 1, 62, 0
3, 26640, Note_on_c, 1, 43, 94
3, 26760, Note_on_c, 1, 43, 0
3, 26760, Note_on_c, 1, 47, 88
3, 26880, Note_on_c, 1, 47, 0
3, 26880, Note_on_c, 1, 50, 88
3, 27000, Note_on_c, 1, 50, 0
3, 27000, Note_on_c, 1, 55, 94
3, 27120, Note_on_c, 1, 55, 0
3, 27120, Note_on_c, 1, 43, 88
3, 27240, Note_on_c, 1, 43, 0
3, 27360, Note_on_c, 1, 50, 94
3, 27480, Note_on_c, 1, 50, 0
3, 27480, Note_on_c, 1, 38, 88
3, 27600, Note_on_c, 1, 38, 0
3, 27720, Note_on_c, 1, 43, 94
3, 27840, Note_on_c, 1, 43, 0
3, 27840, Note_on_c, 1, 31, 88
3, 27960, Note_on_c, 1, 31, 0
3, 28080, Note_on_c, 1, 43, 94
3, 28200, Note_on_c, 1, 43, 0
3, 28200, Note_on_c, 1, 47, 88
3, 28320, Note_on_c, 1, 47, 0
3, 28320, Note_on_c, 1, 51, 88
3, 28440, Note_on_c, 1, 51, 0
3, 28440, Note_on_c, 1, 52, 94
3, 28560, Note_on_c, 1, 52, 0
3, 28560, Note_on_c, 1, 54, 88
3, 28680, Note_on_c, 1, 54, 0
3, 28680, Note_on_c, 1, 55, 88
3, 28800, Note_on_c, 1, 55, 0
3, 28800, Note_on_c, 1, 45, 94
3, 28920, Note_on_c, 1, 45, 0
3, 29040, Note_on_c, 1, 45, 88
3, 29160, Note_on_c, 1, 45, 0
3, 29160, Note_on_c, 1, 50, 94
3, 29280, Note_on_c, 1, 50, 0
3, 29280, Note_on_c, 1, 62, 88
3, 29400, Note_on_c, 1, 62, 0
3, 29520, Note_on_c, 1, 59, 94
3, 29520, Note_on_c, 1, 62, 81
3, 29640, Note_on_c, 1, 62, 0
3, 29640, Note_on_c, 1, 59, 0
3, 29640, Note_on_c, 1, 62, 75
3, 29640, Note_on_c, 1, 57, 88
3, 29760, Note_on_c, 1, 57, 0
3, 29760, Note_on_c, 1, 62, 0
3, 29760, Note_on_c, 1, 62, 75
3, 29760, Note_on_c, 1, 55, 88
3, 29880, Note_on_c, 1, 55, 0
3, 29880, Note_on_c, 1, 62, 0
3, 29880, Note_on_c, 1, 54, 94
3, 29880, Note_on_c, 1, 62, 81
3, 30000, Note_on_c, 1, 54, 0
3, 30000, Note_on_c, 1, 50, 88
3, 30120, Note_on_c, 1, 50, 0
3, 30120, Note_on_c, 1, 62, 0
3, 30120, Note_on_c, 1, 54, 88
3, 30240, Note_on_c, 1, 54, 0
3, 30240, Note_on_c, 1, 55, 94
3, 30480, Note_on_c, 1, 55, 0
3, 30480, Note_on_c, 1, 48, 88
3, 30600, Note_on_c, 1, 48, 0
3, 30600, Note_on_c, 1, 50, 94
3, 30720, Note_on_c, 1, 50, 0
3, 30960, Note_on_c, 1, 31, 94
3, 30960, Note_on_c, 1, 43, 81
3, 31080, Note_on_c, 1, 43, 0
3, 31080, Note_on_c, 1, 31, 0
3, 31080, Note_on_c, 1, 47, 75
3, 31080, Note_on_c, 1, 35, 88
3, 31200, Note_on_c, 1, 35, 0
3, 31200, Note_on_c, 1, 47, 0
3, 31200, Note_on_c, 1, 50, 75
3, 31200, Note_on_c, 1, 38, 88
3, 31320, Note_on_c, 1, 38, 0
3, 31320, Note_on_c, 1, 50, 0
3, 31320, Note_on_c, 1, 55, 81
3, 31320, Note_on_c, 1, 43, 94
3, 31440, Note_on_c, 1, 43, 0
3, 31440, Note_on_c, 1, 55, 0
3, 31440, Note_on_c, 1, 53, 75
3, 31440, Note_on_c, 1, 41, 88
3, 31560, Note_on_c, 1, 41, 0
3, 31560, Note_on_c, 1, 53, 0
3, 31560, Note_on_c, 1, 52, 75
3, 31560, Note_on_c, 1, 40, 88
3, 31800, Note_on_c, 1, 40, 0
3, 31800, Note_on_c, 1, 52, 0
3, 31800, Note_on_c, 1, 51, 75
3, 31800, Note_on_c, 1, 39, 88
3, 31920, Note_on_c, 1, 39, 0
3, 31920, Note_on_c, 1, 51, 0
3, 31920, Note_on_c, 1, 38, 88
3, 31920, Note_on_c, 1, 50, 75
3, 32040, Note_on_c, 1, 50, 0
3, 32040, Note_on_c, 1, 38, 0
3, 32040, Note_on_c, 1, 43, 94
3, 32160, Note_on_c, 1, 43, 0
3, 32160, Note_on_c, 1, 55, 88
3, 32280, Note_on_c, 1, 55, 0
3, 32400, Note_on_c, 1, 62, 68
3, 32400, Note_on_c, 1, 59, 81
3, 32520, Note_on_c, 1, 59, 0
3, 32520, Note_on_c, 1, 62, 0
3, 32520, Note_on_c, 1, 62, 62
3, 32520, Note_on_c, 1, 57, 75
3, 32640, Note_on_c, 1, 57, 0
3, 32640, Note_on_c, 1, 62, 0
3, 32640, Note_on_c, 1, 55, 75
3, 32640, Note_on_c, 1, 62, 62
3, 32760, Note_on_c, 1, 62, 0
3, 32760, Note_on_c, 1, 55, 0
3, 32760, Note_on_c, 1, 62, 68
3, 32760, Note_on_c, 1, 54, 81
3, 32880, Note_on_c, 1, 54, 0
3, 32880, Note_on_c, 1, 50, 75
3, 33000, Note_on_c, 1, 50, 0
3, 33000, Note_on_c, 1, 62, 0
3, 33000, Note_on_c, 1, 54, 75
3, 33120, Note_on_c, 1, 54, 0
3, 33120, Note_on_c, 1, 55, 81
3, 33360, Note_on_c, 1, 55, 0
3, 33360, Note_on_c, 1, 48, 75
3, 33480, Note_on_c, 1, 48, 0
3, 33480, Note_on_c, 1, 50, 81
3, 33600, Note_on_c, 1, 50, 0
3, 33840, Note_on_c, 1, 31, 81
3, 33840, Note_on_c, 1, 43, 68
3, 33960, Note_on_c, 1, 43, 0
3, 33960, Note_on_c, 1, 31, 0
3, 33960, Note_on_c, 1, 47, 75
3, 33960, Note_on_c, 1, 35, 88
3, 34080, Note_on_c, 1, 35, 0
3, 34080, Note_on_c, 1, 47, 0
3, 34080, Note_on_c, 1, 38, 88
3, 34080, Note_on_c, 1, 50, 75
3, 34200, Note_on_c, 1, 50, 0
3, 34200, Note_on_c, 1, 38, 0
3, 34200, Note_on_c, 1, 55, 81
3, 34200, Note_on_c, 1, 43, 94
3, 34320, Note_on_c, 1, 43, 0
3, 34320, Note_on_c, 1, 55, 0
3, 34320, Note_on_c, 1, 41, 88
3, 34320, Note_on_c, 1, 53, 75
3, 34440, Note_on_c, 1, 53, 0
3, 34440, Note_on_c, 1, 41, 0
3, 34440, Note_on_c, 1, 52, 75
3, 34440, Note_on_c, 1, 40, 88
3, 34680, Note_on_c, 1, 40, 0
3, 34680, Note_on_c, 1, 52, 0
3, 34680, Note_on_c, 1, 51, 75
3, 34680, Note_on_c, 1, 39, 88
3, 34800, Note_on_c, 1, 39, 0
3, 34800, Note_on_c, 1, 51, 0
3, 34800, Note_on_c, 1, 50, 75
3, 34800, Note_on_c, 1, 38, 88
3, 34920, Note_on_c, 1, 38, 0
3, 34920, Note_on_c, 1, 50, 0
3, 34920, Note_on_c, 1, 43, 94
3, 35040, Note_on_c, 1, 43, 0
3, 35040, Note_on_c, 1, 55, 88
3, 35160, Note_on_c, 1, 55, 0
3, 35280, Note_on_c, 1, 43, 88
3, 35400, Note_on_c, 1, 43, 0
3, 35400, Note_on_c, 1, 50, 88
3, 35520, Note_on_c, 1, 50, 0
3, 35520, Note_on_c, 1, 55, 88
3, 35640, Note_on_c, 1, 55, 0
3, 35640, Note_on_c, 1, 48, 88
3, 35760, Note_on_c, 1, 48, 0
3, 35760, Note_on_c, 1, 50, 88
3, 35880, Note_on_c, 1, 50, 0
3, 35880, Note_on_c, 1, 54, 88
3, 36000, Note_on_c, 1, 54, 0
3, 36000, Note_on_c, 1, 47, 88
3, 36120, Note_on_c, 1, 47, 0
3, 36120, Note_on_c, 1, 50, 88
3, 36240, Note_on_c, 1, 50, 0
3, 36240, Note_on_c, 1, 55, 88
3, 36360, Note_on_c, 1, 55, 0
3, 36360, Note_on_c, 1, 54, 88
3, 36480, Note_on_c, 1, 54, 0
3, 36480, Note_on_c, 1, 57, 88
3, 36600, Note_on_c, 1, 57, 0
3, 36600, Note_on_c, 1, 62, 88
3, 36720, Note_on_c, 1, 62, 0
3, 36720, Note_on_c, 1, 55, 88
3, 36840, Note_on_c, 1, 55, 0
3, 36840, Note_on_c, 1, 59, 88
3, 36960, Note_on_c, 1, 59, 0
3, 36960, Note_on_c, 1, 51, 88
3, 37080, Note_on_c, 1, 51, 0
3, 37080, Note_on_c, 1, 52, 88
3, 37200, Note_on_c, 1, 52, 0
3, 37200, Note_on_c, 1, 49, 88
3, 37320, Note_on_c, 1, 49, 0
3, 37320, Note_on_c, 1, 50, 88
3, 37440, Note_on_c, 1, 50, 0
3, 37440, Note_on_c, 1, 43, 88
3, 37560, Note_on_c, 1, 43, 0
3, 37680, Note_on_c, 1, 45, 88
3, 37800, Note_on_c, 1, 45, 0
3, 37800, Note_on_c, 1, 50, 88
3, 37920, Note_on_c, 1, 50, 0
3, 37920, Note_on_c, 1, 55, 88
3, 38040, Note_on_c, 1, 55, 0
3, 38160, Note_on_c, 1, 43, 88
3, 38280, Note_on_c, 1, 43, 0
3, 38280, Note_on_c, 1, 50, 88
3, 38400, Note_on_c, 1, 50, 0
3, 38400, Note_on_c, 1, 55, 88
3, 38520, Note_on_c, 1, 55, 0
3, 38520, Note_on_c, 1, 48, 88
3, 38640, Note_on_c, 1, 48, 0
3, 38640, Note_on_c, 1, 50, 88
3, 38760, Note_on_c, 1, 50, 0
3, 38760, Note_on_c, 1, 54, 88
3, 38880, Note_on_c, 1, 54, 0
3, 38880, Note_on_c, 1, 47, 88
3, 39000, Note_on_c, 1, 47, 0
3, 39000, Note_on_c, 1, 50, 88
3, 39120, Note_on_c, 1, 50, 0
3, 39120, Note_on_c, 1, 55, 88
3, 39240, Note_on_c, 1, 55, 0
3, 39240, Note_on_c, 1, 54, 88
3, 39360, Note_on_c, 1, 54, 0
3, 39360, Note_on_c, 1, 57, 88
3, 39480, Note_on_c, 1, 57, 0
3, 39480, Note_on_c, 1, 62, 88
3, 39600, Note_on_c, 1, 62, 0
3, 39600, Note_on_c, 1, 55, 88
3, 39720, Note_on_c, 1, 55, 0
3, 39720, Note_on_c, 1, 59, 88
3, 39840, Note_on_c, 1, 59, 0
3, 39840, Note_on_c, 1, 51, 88
3, 39960, Note_on_c, 1, 51, 0
3, 39960, Note_on_c, 1, 52, 88
3, 40080, Note_on_c, 1, 52, 0
3, 40080, Note_on_c, 1, 49, 88
3, 40200, Note_on_c, 1, 49, 0
3, 40200, Note_on_c, 1, 50, 88
3, 40320, Note_on_c, 1, 50, 0
3, 40320, Note_on_c, 1, 43, 88
3, 40440, Note_on_c, 1, 43, 0
3, 40560, Note_on_c, 1, 45, 88
3, 40680, Note_on_c, 1, 45, 0
3, 40680, Note_on_c, 1, 50, 88
3, 40800, Note_on_c, 1, 50, 0
3, 41040, Note_on_c, 1, 50, 94
3, 41160, Note_on_c, 1, 50, 0
3, 41220, Note_on_c, 1, 62, 94
3, 41280, Note_on_c, 1, 62, 0
3, 41280, Note_on_c, 1, 61, 94
3, 41340, Note_on_c, 1, 61, 0
3, 41340, Note_on_c, 1, 62, 94
3, 41400, Note_on_c, 1, 62, 0
3, 41400, Note_on_c, 1, 64, 94
3, 41460, Note_on_c, 1, 64, 0
3, 41460, Note_on_c, 1, 60, 94
3, 41520, Note_on_c, 1, 60, 0
3, 41520, Note_on_c, 1, 57, 94
3, 41580, Note_on_c, 1, 57, 0
3, 41580, Note_on_c, 1, 59, 94
3, 41640, Note_on_c, 1, 59, 0
3, 41640, Note_on_c, 1, 58, 94
3, 41700, Note_on_c, 1, 58, 0
3, 41700, Note_on_c, 1, 59, 94
3, 41760, Note_on_c, 1, 59, 0
3, 41760, Note_on_c, 1, 60, 94
3, 41820, Note_on_c, 1, 60, 0
3, 41820, Note_on_c, 1, 57, 94
3, 41880, Note_on_c, 1, 57, 0
3, 41880, Note_on_c, 1, 54, 94
3, 41940, Note_on_c, 1, 54, 0
3, 41940, Note_on_c, 1, 55, 94
3, 42000, Note_on_c, 1, 55, 0
3, 42000, Note_on_c, 1, 54, 94
3, 42060, Note_on_c, 1, 54, 0
3, 42060, Note_on_c, 1, 55, 94
3, 42120, Note_on_c, 1, 55, 0
3, 42120, Note_on_c, 1, 57, 94
3, 42180, Note_on_c, 1, 57, 0
3, 42180, Note_on_c, 1, 54, 94
3, 42240, Note_on_c, 1, 54, 0
3, 42240, Note_on_c, 1, 50, 94
3, 42300, Note_on_c, 1, 50, 0
3, 42300, Note_on_c, 1, 50, 94
3, 42360, Note_on_c, 1, 50, 0
3, 42360, Note_on_c, 1, 52, 94
3, 42420, Note_on_c, 1, 52, 0
3, 42420, Note_on_c, 1, 54, 94
3, 42480, Note_on_c, 1, 54, 0
3, 42480, Note_on_c, 1, 55, 94
3, 42600, Note_on_c, 1, 55, 0
3, 42600, Note_on_c, 1, 59, 94
3, 42720, Note_on_c, 1, 59, 0
3, 42720, Note_on_c, 1, 47, 94
3, 42840, Note_on_c, 1, 47, 0
3, 42840, Note_on_c, 1, 48, 94
3, 42840, Note_on_c, 1, 48, 94
3, 42960, Note_on_c, 1, 48, 0
3, 42960, Note_on_c, 1, 52, 94
3, 43080, Note_on_c, 1, 52, 0
3, 43080, Note_on_c, 1, 57, 94
3, 43200, Note_on_c, 1, 57, 0
3, 43200, Note_on_c, 1, 48, 0
3, 43200, Note_on_c, 1, 50, 94
3, 43200, Note_on_c, 1, 54, 94
3, 43320, Note_on_c, 1, 54, 0
3, 43320, Note_on_c, 1, 57, 94
3, 43440, Note_on_c, 1, 57, 0
3, 43440, Note_on_c, 1, 60, 94
3, 43560, Note_on_c, 1, 60, 0
3, 43560, Note_on_c, 1, 50, 0
3, 43560, Note_on_c, 1, 55, 94
3, 43560, Note_on_c, 1, 60, 94
3, 43680, Note_on_c, 1, 60, 0
3, 43680, Note_on_c, 1, 59, 94
3, 43740, Note_on_c, 1, 59, 0
3, 43740, Note_on_c, 1, 55, 0
3, 43920, Note_on_c, 1, 50, 94
3, 44040, Note_on_c, 1, 50, 0
3, 44100, Note_on_c, 1, 62, 94
3, 44160, Note_on_c, 1, 62, 0
3, 44160, Note_on_c, 1, 61, 94
3, 44220, Note_on_c, 1, 61, 0
3, 44220, Note_on_c, 1, 62, 94
3, 44280, Note_on_c, 1, 62, 0
3, 44280, Note_on_c, 1, 64, 94
3, 44340, Note_on_c, 1, 64, 0
3, 44340, Note_on_c, 1, 60, 94
3, 44400, Note_on_c, 1, 60, 0
3, 44400, Note_on_c, 1, 57, 94
3, 44460, Note_on_c, 1, 57, 0
3, 44460, Note_on_c, 1, 59, 94
3, 44520, Note_on_c, 1, 59, 0
3, 44520, Note_on_c, 1, 58, 94
3, 44580, Note_on_c, 1, 58, 0
3, 44580, Note_on_c, 1, 59, 94
3, 44640, Note_on_c, 1, 59, 0
3, 44640, Note_on_c, 1, 60, 94
3, 44700, Note_on_c, 1, 60, 0
3, 44700, Note_on_c, 1, 57, 94
3, 44760, Note_on_c, 1, 57, 0
3, 44760, Note_on_c, 1, 54, 94
3, 44820, Note_on_c, 1, 54, 0
3, 44820, Note_on_c, 1, 55, 94
3, 44880, Note_on_c, 1, 55, 0
3, 44880, Note_on_c, 1, 54, 94
3, 44940, Note_on_c, 1, 54, 0
3, 44940, Note_on_c, 1, 55, 94
3, 45000, Note_on_c, 1, 55, 0
3, 45000, Note_on_c, 1, 57, 94
3, 45060, Note_on_c, 1, 57, 0
3, 45060, Note_on_c, 1, 54, 94
3, 45120, Note_on_c, 1, 54, 0
3, 45120, Note_on_c, 1, 50, 94
3, 45180, Note_on_c, 1, 50, 0
3, 45180, Note_on_c, 1, 50, 94
3, 45240, Note_on_c, 1, 50, 0
3, 45240, Note_on_c, 1, 52, 94
3, 45300, Note_on_c, 1, 52, 0
3, 45300, Note_on_c, 1, 54, 94
3, 45360, Note_on_c, 1, 54, 0
3, 45360, Note_on_c, 1, 55, 94
3, 45480, Note_on_c, 1, 55, 0
3, 45480, Note_on_c, 1, 59, 94
3, 45600, Note_on_c, 1, 59, 0
3, 45600, Note_on_c, 1, 47, 94
3, 45720, Note_on_c, 1, 47, 0
3, 45720, Note_on_c, 1, 48, 94
3, 45720, Note_on_c, 1, 48, 94
3, 45840, Note_on_c, 1, 48, 0
3, 45840, Note_on_c, 1, 52, 94
3, 45960, Note_on_c, 1, 52, 0
3, 45960, Note_on_c, 1, 57, 94
3, 46080, Note_on_c, 1, 57, 0
3, 46080, Note_on_c, 1, 48, 0
3, 46080, Note_on_c, 1, 50, 94
3, 46080, Note_on_c, 1, 54, 94
3, 46200, Note_on_c, 1, 54, 0
3, 46200, Note_on_c, 1, 57, 94
3, 46320, Note_on_c, 1, 57, 0
3, 46320, Note_on_c, 1, 60, 94
3, 46440, Note_on_c, 1, 60, 0
3, 46440, Note_on_c, 1, 50, 0
3, 46440, Note_on_c, 1, 55, 94
3, 46440, Note_on_c, 1, 60, 94
3, 46560, Note_on_c, 1, 60, 0
3, 46560, Note_on_c, 1, 59, 94
3, 46620, Note_on_c, 1, 59, 0
3, 46620, Note_on_c, 1, 55, 0
3, 46679, Control_c, 1, 0, 0
3, 46679, Control_c, 1, 32, 0
3, 46680, Program_c, 1, 0
3, 46680, Control_c, 1, 11, 75
3, 46680, Control_c, 1, 7, 92
3, 46680, Control_c, 1, 7, 100
3, 46680, Control_c, 1, 91, 127
3, 46680, Control_c, 1, 10, 64
3, 46800, Note_on_c, 1, 43, 94
3, 46920, Note_on_c, 1, 43, 0
3, 46920, Note_on_c, 1, 47, 88
3, 47040, Note_on_c, 1, 47, 0
3, 47040, Note_on_c, 1, 50, 88
3, 47160, Note_on_c, 1, 50, 0
3, 47160, Note_on_c, 1, 55, 94
3, 47280, Note_on_c, 1, 55, 0
3, 47280, Note_on_c, 1, 43, 88
3, 47400, Note_on_c, 1, 43, 0
3, 47520, Note_on_c, 1, 50, 94
3, 47640, Note_on_c, 1, 50, 0
3, 47640, Note_on_c, 1, 38, 88
3, 47760, Note_on_c, 1, 38, 0
3, 47880, Note_on_c, 1, 43, 94
3, 48000, Note_on_c, 1, 43, 0
3, 48000, Note_on_c, 1, 31, 88
3, 48120, Note_on_c, 1, 31, 0
3, 48240, Note_on_c, 1, 43, 94
3, 48360, Note_on_c, 1, 43, 0
3, 48360, Note_on_c, 1, 47, 88
3, 48480, Note_on_c, 1, 47, 0
3, 48480, Note_on_c, 1, 51, 88
3, 48600, Note_on_c, 1, 51, 0
3, 48600, Note_on_c, 1, 52, 94
3, 48720, Note_on_c, 1, 52, 0
3, 48720, Note_on_c, 1, 54, 88
3, 48840, Note_on_c, 1, 54, 0
3, 48840, Note_on_c, 1, 55, 88
3, 48960, Note_on_c, 1, 55, 0
3, 48960, Note_on_c, 1, 45, 94
3, 49080, Note_on_c, 1, 45, 0
3, 49200, Note_on_c, 1, 45, 88
3, 49320, Note_on_c, 1, 45, 0
3, 49320, Note_on_c, 1, 50, 94
3, 49440, Note_on_c, 1, 50, 0
3, 49440, Note_on_c, 1, 62, 88
3, 49560, Note_on_c, 1, 62, 0
3, 49680, Note_on_c, 1, 43, 94
3, 49800, Note_on_c, 1, 43, 0
3, 49800, Note_on_c, 1, 47, 88
3, 49920, Note_on_c, 1, 47, 0
3, 49920, Note_on_c, 1, 50, 88
3, 50040, Note_on_c, 1, 50, 0
3, 50040, Note_on_c, 1, 55, 94
3, 50160, Note_on_c, 1, 55, 0
3, 50160, Note_on_c, 1, 43, 88
3, 50280, Note_on_c, 1, 43, 0
3, 50400, Note_on_c, 1, 50, 94
3, 50520, Note_on_c, 1, 50, 0
3, 50520, Note_on_c, 1, 38, 88
3, 50640, Note_on_c, 1, 38, 0
3, 50760, Note_on_c, 1, 43, 94
3, 50880, Note_on_c, 1, 43, 0
3, 50880, Note_on_c, 1, 31, 88
3, 51000, Note_on_c, 1, 31, 0
3, 51120, Note_on_c, 1, 43, 94
3, 51240, Note_on_c, 1, 43, 0
3, 51240, Note_on_c, 1, 47, 88
3, 51360, Note_on_c, 1, 47, 0
3, 51360, Note_on_c, 1, 51, 88
3, 51480, Note_on_c, 1, 51, 0
3, 51480, Note_on_c, 1, 52, 94
3, 51600, Note_on_c, 1, 52, 0
3, 51600, Note_on_c, 1, 54, 88
3, 51720, Note_on_c, 1, 54, 0
3, 51720, Note_on_c, 1, 55, 88
3, 51840, Note_on_c, 1, 55, 0
3, 51840, Note_on_c, 1, 45, 94
3, 51960, Note_on_c, 1, 45, 0
3, 52080, Note_on_c, 1, 45, 88
3, 52200, Note_on_c, 1, 45, 0
3, 52200, Note_on_c, 1, 50, 94
3, 52320, Note_on_c, 1, 50, 0
3, 52320, Note_on_c, 1, 62, 101
3, 52320, Control_c, 1, 121, 0
3, 52440, Note_on_c, 1, 62, 0
3, 53280, Note_on_c, 1, 51, 100
3, 53280, Note_on_c, 1, 55, 100
3, 53370, Note_on_c, 1, 55, 0
3, 53370, Note_on_c, 1, 51, 0
3, 53370, Note_on_c, 1, 55, 100
3, 53370, Note_on_c, 1, 51, 100
3, 53400, Note_on_c, 1, 51, 0
3, 53400, Note_on_c, 1, 55, 0
3, 53400, Note_on_c, 1, 51, 100
3, 53400, Note_on_c, 1, 55, 100
3, 53520, Note_on_c, 1, 55, 0
3, 53520, Note_on_c, 1, 51, 0
3, 53640, Note_on_c, 1, 51, 100
3, 53640, Note_on_c, 1, 55, 100
3, 53730, Note_on_c, 1, 55, 0
3, 53730, Note_on_c, 1, 51, 0
3, 53730, Note_on_c, 1, 51, 100
3, 53730, Note_on_c, 1, 55, 100
3, 53760, Note_on_c, 1, 55, 0
3, 53760, Note_on_c, 1, 51, 0
3, 53760, Note_on_c, 1, 51, 100
3, 53760, Note_on_c, 1, 55, 100
3, 53880, Note_on_c, 1, 55, 0
3, 53880, Note_on_c, 1, 51, 0
3, 54000, Note_on_c, 1, 55, 100
3, 54000, Note_on_c, 1, 51, 100
3, 54090, Note_on_c, 1, 51, 0
3, 54090, Note_on_c, 1, 55, 0
3, 54090, Note_on_c, 1, 55, 100
3, 54090, Note_on_c, 1, 51, 100
3, 54120, Note_on_c, 1, 51, 0
3, 54120, Note_on_c, 1, 55, 0
3, 54120, Note_on_c, 1, 55, 100
3, 54120, Note_on_c, 1, 51, 100
3, 54210, Note_on_c, 1, 51, 0
3, 54210, Note_on_c, 1, 55, 0
3, 54210, Note_on_c, 1, 55, 100
3, 54210, Note_on_c, 1, 51, 100
3, 54240, Note_on_c, 1, 51, 0
3, 54240, Note_on_c, 1, 55, 0
3, 54240, Note_on_c, 1, 55, 100
3, 54240, Note_on_c, 1, 51, 100
3, 54330, Note_on_c, 1, 51, 0
3, 54330, Note_on_c, 1, 55, 0
3, 54330, Note_on_c, 1, 51, 100
3, 54330, Note_on_c, 1, 55, 100
3, 54360, Note_on_c, 1, 55, 0
3, 54360, Note_on_c, 1, 51, 0
3, 54360, Note_on_c, 1, 53, 100
3, 54360, Note_on_c, 1, 56, 100
3, 54540, Note_on_c, 1, 56, 0
3, 54540, Note_on_c, 1, 53, 0
3, 54720, Note_on_c, 1, 34, 100
3, 54720, Note_on_c, 1, 46, 100
3, 54840, Note_on_c, 1, 46, 0
3, 54840, Note_on_c, 1, 34, 0
3, 54840, Note_on_c, 1, 58, 100
3, 54840, Note_on_c, 1, 46, 100
3, 54960, Note_on_c, 1, 46, 0
3, 54960, Note_on_c, 1, 58, 0
3, 55260, Note_on_c, 1, 46, 100
3, 55320, Note_on_c, 1, 46, 0
3, 55320, Note_on_c, 1, 51, 100
3, 55380, Note_on_c, 1, 51, 0
3, 55380, Note_on_c, 1, 55, 100
3, 55440, Note_on_c, 1, 55, 0
3, 55440, Note_on_c, 1, 58, 100
3, 55560, Note_on_c, 1, 58, 0
3, 55680, Note_on_c, 1, 46, 100
3, 55800, Note_on_c, 1, 46, 0
3, 55800, Note_on_c, 1, 51, 100
3, 55920, Note_on_c, 1, 51, 0
3, 55920, Note_on_c, 1, 39, 100
3, 56040, Note_on_c, 1, 39, 0
3, 56160, Note_on_c, 1, 51, 100
3, 56160, Note_on_c, 1, 55, 100
3, 56250, Note_on_c, 1, 55, 0
3, 56250, Note_on_c, 1, 51, 0
3, 56250, Note_on_c, 1, 55, 100
3, 56250, Note_on_c, 1, 51, 100
3, 56280, Note_on_c, 1, 51, 0
3, 56280, Note_on_c, 1, 55, 0
3, 56280, Note_on_c, 1, 51, 100
3, 56280, Note_on_c, 1, 55, 100
3, 56400, Note_on_c, 1, 55, 0
3, 56400, Note_on_c, 1, 51, 0
3, 56520, Note_on_c, 1, 51, 100
3, 56520, Note_on_c, 1, 55, 100
3, 56610, Note_on_c, 1, 55, 0
3, 56610, Note_on_c, 1, 51, 0
3, 56610, Note_on_c, 1, 51, 100
3, 56610, Note_on_c, 1, 55, 100
3, 56640, Note_on_c, 1, 55, 0
3, 56640, Note_on_c, 1, 51, 0
3, 56640, Note_on_c, 1, 51, 100
3, 56640, Note_on_c, 1, 55, 100
3, 56760, Note_on_c, 1, 55, 0
3, 56760, Note_on_c, 1, 51, 0
3, 56880, Note_on_c, 1, 55, 100
3, 56880, Note_on_c, 1, 51, 100
3, 56970, Note_on_c, 1, 51, 0
3, 56970, Note_on_c, 1, 55, 0
3, 56970, Note_on_c, 1, 55, 100
3, 56970, Note_on_c, 1, 51, 100
3, 57000, Note_on_c, 1, 51, 0
3, 57000, Note_on_c, 1, 55, 0
3, 57000, Note_on_c, 1, 55, 100
3, 57000, Note_on_c, 1, 51, 100
3, 57090, Note_on_c, 1, 51, 0
3, 57090, Note_on_c, 1, 55, 0
3, 57090, Note_on_c, 1, 55, 100
3, 57090, Note_on_c, 1, 51, 100
3, 57120, Note_on_c, 1, 51, 0
3, 57120, Note_on_c, 1, 55, 0
3, 57120, Note_on_c, 1, 55, 100
3, 57120, Note_on_c, 1, 51, 100
3, 57210, Note_on_c, 1, 51, 0
3, 57210, Note_on_c, 1, 55, 0
3, 57210, Note_on_c, 1, 51, 100
3, 57210, Note_on_c, 1, 55, 100
3, 57240, Note_on_c, 1, 55, 0
3, 57240, Note_on_c, 1, 51, 0
3, 57240, Note_on_c, 1, 53, 100
3, 57240, Note_on_c, 1, 56, 100
3, 57420, Note_on_c, 1, 56, 0
3, 57420, Note_on_c, 1, 53, 0
3, 57600, Note_on_c, 1, 34, 100
3, 57600, Note_on_c, 1, 46, 100
3, 57720, Note_on_c, 1, 46, 0
3, 57720, Note_on_c, 1, 34, 0
3, 57720, Note_on_c, 1, 58, 100
3, 57720, Note_on_c, 1, 46, 100
3, 57840, Note_on_c, 1, 46, 0
3, 57840, Note_on_c, 1, 58, 0
3, 58140, Note_on_c, 1, 46, 100
3, 58200, Note_on_c, 1, 46, 0
3, 58200, Note_on_c, 1, 51, 100
3, 58260, Note_on_c, 1, 51, 0
3, 58260, Note_on_c, 1, 55, 100
3, 58320, Note_on_c, 1, 55, 0
3, 58320, Note_on_c, 1, 58, 100
3, 58440, Note_on_c, 1, 58, 0
3, 58560, Note_on_c, 1, 46, 100
3, 58680, Note_on_c, 1, 46, 0
3, 58680, Note_on_c, 1, 51, 100
3, 58800, Note_on_c, 1, 51, 0
3, 58800, Note_on_c, 1, 39, 100
3, 58920, Note_on_c, 1, 39, 0
3, 59040, Note_on_c, 1, 48, 100
3, 59100, Note_on_c, 1, 48, 0
3, 59100, Note_on_c, 1, 51, 100
3, 59160, Note_on_c, 1, 51, 0
3, 59160, Note_on_c, 1, 46, 100
3, 59220, Note_on_c, 1, 46, 0
3, 59220, Note_on_c, 1, 51, 100
3, 59280, Note_on_c, 1, 51, 0
3, 59280, Note_on_c, 1, 44, 100
3, 59340, Note_on_c, 1, 44, 0
3, 59340, Note_on_c, 1, 51, 100
3, 59400, Note_on_c, 1, 51, 0
3, 59400, Note_on_c, 1, 43, 100
3, 59460, Note_on_c, 1, 43, 0
3, 59460, Note_on_c, 1, 51, 100
3, 59520, Note_on_c, 1, 51, 0
3, 59520, Note_on_c, 1, 51, 100
3, 59580, Note_on_c, 1, 51, 0
3, 59580, Note_on_c, 1, 51, 100
3, 59640, Note_on_c, 1, 51, 0
3, 59640, Note_on_c, 1, 51, 100
3, 59700, Note_on_c, 1, 51, 0
3, 59700, Note_on_c, 1, 51, 100
3, 59760, Note_on_c, 1, 51, 0
3, 59760, Note_on_c, 1, 48, 100
3, 59820, Note_on_c, 1, 48, 0
3, 59820, Note_on_c, 1, 51, 100
3, 59880, Note_on_c, 1, 51, 0
3, 59880, Note_on_c, 1, 46, 100
3, 59940, Note_on_c, 1, 46, 0
3, 59940, Note_on_c, 1, 51, 100
3, 60000, Note_on_c, 1, 51, 0
3, 60000, Note_on_c, 1, 44, 100
3, 60060, Note_on_c, 1, 44, 0
3, 60060, Note_on_c, 1, 51, 100
3, 60120, Note_on_c, 1, 51, 0
3, 60120, Note_on_c, 1, 43, 100
3, 60180, Note_on_c, 1, 43, 0
3, 60180, Note_on_c, 1, 58, 100
3, 60240, Note_on_c, 1, 58, 0
3, 60240, Note_on_c, 1, 56, 100
3, 60300, Note_on_c, 1, 56, 0
3, 60300, Note_on_c, 1, 55, 100
3, 60360, Note_on_c, 1, 55, 0
3, 60360, Note_on_c, 1, 53, 100
3, 60420, Note_on_c, 1, 53, 0
3, 60420, Note_on_c, 1, 51, 100
3, 60480, Note_on_c, 1, 51, 0
3, 60480, Note_on_c, 1, 56, 100
3, 60480, Note_on_c, 1, 50, 100
3, 60480, Note_on_c, 1, 53, 100
3, 60480, Note_on_c, 1, 58, 100
3, 60600, Note_on_c, 1, 58, 0
3, 60600, Note_on_c, 1, 56, 0
3, 60600, Note_on_c, 1, 50, 0
3, 60600, Note_on_c, 1, 53, 0
3, 60600, Note_on_c, 1, 56, 100
3, 60600, Note_on_c, 1, 50, 100
3, 60600, Note_on_c, 1, 53, 100
3, 60600, Note_on_c, 1, 58, 100
3, 60720, Note_on_c, 1, 58, 0
3, 60720, Note_on_c, 1, 56, 0
3, 60720, Note_on_c, 1, 50, 0
3, 60720, Note_on_c, 1, 53, 0
3, 61020, Note_on_c, 1, 56, 100
3, 61080, Note_on_c, 1, 56, 0
3, 61080, Note_on_c, 1, 55, 100
3, 61140, Note_on_c, 1, 55, 0
3, 61140, Note_on_c, 1, 51, 100
3, 61200, Note_on_c, 1, 51, 0
3, 61200, Note_on_c, 1, 58, 100
3, 61320, Note_on_c, 1, 58, 0
3, 61440, Note_on_c, 1, 46, 100
3, 61560, Note_on_c, 1, 46, 0
3, 61560, Note_on_c, 1, 51, 100
3, 61680, Note_on_c, 1, 51, 0
3, 61680, Note_on_c, 1, 39, 100
3, 61800, Note_on_c, 1, 39, 0
3, 61920, Note_on_c, 1, 48, 100
3, 61980, Note_on_c, 1, 48, 0
3, 61980, Note_on_c, 1, 51, 100
3, 62040, Note_on_c, 1, 51, 0
3, 62040, Note_on_c, 1, 46, 100
3, 62100, Note_on_c, 1, 46, 0
3, 62100, Note_on_c, 1, 51, 100
3, 62160, Note_on_c, 1, 51, 0
3, 62160, Note_on_c, 1, 44, 100
3, 62220, Note_on_c, 1, 44, 0
3, 62220, Note_on_c, 1, 51, 100
3, 62280, Note_on_c, 1, 51, 0
3, 62280, Note_on_c, 1, 43, 100
3, 62340, Note_on_c, 1, 43, 0
3, 62340, Note_on_c, 1, 51, 100
3, 62400, Note_on_c, 1, 51, 0
3, 62400, Note_on_c, 1, 51, 100
3, 62460, Note_on_c, 1, 51, 0
3, 62460, Note_on_c, 1, 51, 100
3, 62520, Note_on_c, 1, 51, 0
3, 62520, Note_on_c, 1, 51, 100
3, 62580, Note_on_c, 1, 51, 0
3, 62580, Note_on_c, 1, 51, 100
3, 62640, Note_on_c, 1, 51, 0
3, 62640, Note_on_c, 1, 48, 100
3, 62700, Note_on_c, 1, 48, 0
3, 62700, Note_on_c, 1, 51, 100
3, 62760, Note_on_c, 1, 51, 0
3, 62760, Note_on_c, 1, 46, 100
3, 62820, Note_on_c, 1, 46, 0
3, 62820, Note_on_c, 1, 51, 100
3, 62880, Note_on_c, 1, 51, 0
3, 62880, Note_on_c, 1, 44, 100
3, 62940, Note_on_c, 1, 44, 0
3, 62940, Note_on_c, 1, 51, 100
3, 63000, Note_on_c, 1, 51, 0
3, 63000, Note_on_c, 1, 43, 100
3, 63060, Note_on_c, 1, 43, 0
3, 63060, Note_on_c, 1, 58, 100
3, 63120, Note_on_c, 1, 58, 0
3, 63120, Note_on_c, 1, 56, 100
3, 63180, Note_on_c, 1, 56, 0
3, 63180, Note_on_c, 1, 55, 100
3, 63240, Note_on_c, 1, 55, 0
3, 63240, Note_on_c, 1, 53, 100
3, 63300, Note_on_c, 1, 53, 0
3, 63300, Note_on_c, 1, 51, 100
3, 63360, Note_on_c, 1, 51, 0
3, 63360, Note_on_c, 1, 50, 100
3, 63360, Note_on_c, 1, 56, 100
3, 63360, Note_on_c, 1, 53, 100
3, 63360, Note_on_c, 1, 58, 100
3, 63480, Note_on_c, 1, 58, 0
3, 63480, Note_on_c, 1, 50, 0
3, 63480, Note_on_c, 1, 56, 0
3, 63480, Note_on_c, 1, 53, 0
3, 63480, Note_on_c, 1, 53, 100
3, 63480, Note_on_c, 1, 56, 100
3, 63480, Note_on_c, 1, 58, 100
3, 63480, Note_on_c, 1, 50, 100
3, 63600, Note_on_c, 1, 50, 0
3, 63600, Note_on_c, 1, 53, 0
3, 63600, Note_on_c, 1, 56, 0
3, 63600, Note_on_c, 1, 58, 0
3, 63900, Note_on_c, 1, 56, 100
3, 63960, Note_on_c, 1, 56, 0
3, 63960, Note_on_c, 1, 55, 100
3, 64020, Note_on_c, 1, 55, 0
3, 64020, Note_on_c, 1, 51, 100
3, 64080, Note_on_c, 1, 51, 0
3, 64080, Note_on_c, 1, 58, 100
3, 64200, Note_on_c, 1, 58, 0
3, 64320, Note_on_c, 1, 46, 100
3, 64440, Note_on_c, 1, 46, 0
3, 64440, Note_on_c, 1, 51, 100
3, 64560, Note_on_c, 1, 51, 0
3, 64560, Note_on_c, 1, 39, 100
3, 64680, Note_on_c, 1, 39, 0
3, 64800, Note_on_c, 1, 51, 100
3, 64800, Note_on_c, 1, 55, 100
3, 64860, Note_on_c, 1, 55, 0
3, 64860, Note_on_c, 1, 58, 100
3, 64920, Note_on_c, 1, 58, 0
3, 64920, Note_on_c, 1, 51, 0
3, 64920, Note_on_c, 1, 55, 100
3, 64920, Note_on_c, 1, 50, 100
3, 64980, Note_on_c, 1, 55, 0
3, 64980, Note_on_c, 1, 58, 100
3, 65040, Note_on_c, 1, 58, 0
3, 65040, Note_on_c, 1, 50, 0
3, 65040, Note_on_c, 1, 48, 100
3, 65040, Note_on_c, 1, 55, 100
3, 65100, Note_on_c, 1, 55, 0
3, 65100, Note_on_c, 1, 58, 100
3, 65160, Note_on_c, 1, 58, 0
3, 65160, Note_on_c, 1, 48, 0
3, 65160, Note_on_c, 1, 46, 100
3, 65160, Note_on_c, 1, 56, 100
3, 65220, Note_on_c, 1, 56, 0
3, 65220, Note_on_c, 1, 58, 100
3, 65280, Note_on_c, 1, 58, 0
3, 65280, Note_on_c, 1, 56, 100
3, 65340, Note_on_c, 1, 56, 0
3, 65340, Note_on_c, 1, 58, 100
3, 65400, Note_on_c, 1, 58, 0
3, 65400, Note_on_c, 1, 56, 100
3, 65460, Note_on_c, 1, 56, 0
3, 65460, Note_on_c, 1, 58, 100
3, 65520, Note_on_c, 1, 58, 0
3, 65520, Note_on_c, 1, 46, 0
3, 65520, Note_on_c, 1, 55, 100
3, 65520, Note_on_c, 1, 51, 100
3, 65580, Note_on_c, 1, 55, 0
3, 65580, Note_on_c, 1, 58, 100
3, 65640, Note_on_c, 1, 58, 0
3, 65640, Note_on_c, 1, 51, 0
3, 65640, Note_on_c, 1, 55, 100
3, 65640, Note_on_c, 1, 50, 100
3, 65700, Note_on_c, 1, 55, 0
3, 65700, Note_on_c, 1, 58, 100
3, 65760, Note_on_c, 1, 58, 0
3, 65760, Note_on_c, 1, 50, 0
3, 65760, Note_on_c, 1, 48, 100
3, 65760, Note_on_c, 1, 55, 100
3, 65820, Note_on_c, 1, 55, 0
3, 65820, Note_on_c, 1, 58, 100
3, 65880, Note_on_c, 1, 58, 0
3, 65880, Note_on_c, 1, 48, 0
3, 65880, Note_on_c, 1, 50, 100
3, 65880, Note_on_c, 1, 46, 100
3, 65940, Note_on_c, 1, 50, 0
3, 65940, Note_on_c, 1, 58, 100
3, 66000, Note_on_c, 1, 58, 0
3, 66000, Note_on_c, 1, 50, 100
3, 66060, Note_on_c, 1, 50, 0
3, 66060, Note_on_c, 1, 58, 100
3, 66120, Note_on_c, 1, 58, 0
3, 66120, Note_on_c, 1, 50, 100
3, 66180, Note_on_c, 1, 50, 0
3, 66180, Note_on_c, 1, 58, 100
3, 66240, Note_on_c, 1, 58, 0
3, 66240, Note_on_c, 1, 46, 0
3, 66240, Note_on_c, 1, 51, 100
3, 66300, Note_on_c, 1, 51, 0
3, 66300, Note_on_c, 1, 63, 100
3, 66360, Note_on_c, 1, 63, 0
3, 66360, Note_on_c, 1, 50, 100
3, 66420, Note_on_c, 1, 50, 0
3, 66420, Note_on_c, 1, 62, 100
3, 66480, Note_on_c, 1, 62, 0
3, 66480, Note_on_c, 1, 48, 100
3, 66540, Note_on_c, 1, 48, 0
3, 66540, Note_on_c, 1, 60, 100
3, 66600, Note_on_c, 1, 60, 0
3, 66600, Note_on_c, 1, 47, 100
3, 66660, Note_on_c, 1, 47, 0
3, 66660, Note_on_c, 1, 59, 100
3, 66720, Note_on_c, 1, 59, 0
3, 66720, Note_on_c, 1, 47, 100
3, 66780, Note_on_c, 1, 47, 0
3, 66780, Note_on_c, 1, 59, 100
3, 66840, Note_on_c, 1, 59, 0
3, 66840, Note_on_c, 1, 48, 100
3, 66900, Note_on_c, 1, 48, 0
3, 66900, Note_on_c, 1, 60, 100
3, 66960, Note_on_c, 1, 60, 0
3, 66960, Note_on_c, 1, 53, 100
3, 67020, Note_on_c, 1, 53, 0
3, 67020, Note_on_c, 1, 58, 100
3, 67080, Note_on_c, 1, 58, 0
3, 67080, Note_on_c, 1, 53, 100
3, 67140, Note_on_c, 1, 53, 0
3, 67140, Note_on_c, 1, 58, 100
3, 67200, Note_on_c, 1, 58, 0
3, 67200, Note_on_c, 1, 53, 100
3, 67260, Note_on_c, 1, 53, 0
3, 67260, Note_on_c, 1, 57, 100
3, 67320, Note_on_c, 1, 57, 0
3, 67320, Note_on_c, 1, 46, 100
3, 67380, Note_on_c, 1, 46, 0
3, 67380, Note_on_c, 1, 58, 100
3, 67440, Note_on_c, 1, 58, 0
3, 67440, Note_on_c, 1, 57, 100
3, 67500, Note_on_c, 1, 57, 0
3, 67500, Note_on_c, 1, 58, 100
3, 67560, Note_on_c, 1, 58, 0
3, 67560, Note_on_c, 1, 56, 100
3, 67620, Note_on_c, 1, 56, 0
3, 67620, Note_on_c, 1, 58, 100
3, 67680, Note_on_c, 1, 58, 0
3, 67680, Note_on_c, 1, 55, 100
3, 67680, Note_on_c, 1, 51, 100
3, 67740, Note_on_c, 1, 55, 0
3, 67740, Note_on_c, 1, 58, 100
3, 67800, Note_on_c, 1, 58, 0
3, 67800, Note_on_c, 1, 51, 0
3, 67800, Note_on_c, 1, 50, 100
3, 67800, Note_on_c, 1, 55, 100
3, 67860, Note_on_c, 1, 55, 0
3, 67860, Note_on_c, 1, 58, 100
3, 67920, Note_on_c, 1, 58, 0
3, 67920, Note_on_c, 1, 50, 0
3, 67920, Note_on_c, 1, 55, 100
3, 67920, Note_on_c, 1, 48, 100
3, 67980, Note_on_c, 1, 55, 0
3, 67980, Note_on_c, 1, 58, 100
3, 68040, Note_on_c, 1, 58, 0
3, 68040, Note_on_c, 1, 48, 0
3, 68040, Note_on_c, 1, 56, 100
3, 68040, Note_on_c, 1, 46, 100
3, 68100, Note_on_c, 1, 56, 0
3, 68100, Note_on_c, 1, 58, 100
3, 68160, Note_on_c, 1, 58, 0
3, 68160, Note_on_c, 1, 56, 100
3, 68220, Note_on_c, 1, 56, 0
3, 68220, Note_on_c, 1, 58, 100
3, 68280, Note_on_c, 1, 58, 0
3, 68280, Note_on_c, 1, 56, 100
3, 68340, Note_on_c, 1, 56, 0
3, 68340, Note_on_c, 1, 58, 100
3, 68400, Note_on_c, 1, 58, 0
3, 68400, Note_on_c, 1, 46, 0
3, 68400, Note_on_c, 1, 55, 100
3, 68400, Note_on_c, 1, 51, 100
3, 68460, Note_on_c, 1, 55, 0
3, 68460, Note_on_c, 1, 58, 100
3, 68520, Note_on_c, 1, 58, 0
3, 68520, Note_on_c, 1, 51, 0
3, 68520, Note_on_c, 1, 55, 100
3, 68520, Note_on_c, 1, 50, 100
3, 68580, Note_on_c, 1, 55, 0
3, 68580, Note_on_c, 1, 58, 100
3, 68640, Note_on_c, 1, 58, 0
3, 68640, Note_on_c, 1, 50, 0
3, 68640, Note_on_c, 1, 48, 100
3, 68640, Note_on_c, 1, 55, 100
3, 68700, Note_on_c, 1, 55, 0
3, 68700, Note_on_c, 1, 58, 100
3, 68760, Note_on_c, 1, 58, 0
3, 68760, Note_on_c, 1, 48, 0
3, 68760, Note_on_c, 1, 50, 100
3, 68760, Note_on_c, 1, 46, 100
3, 68820, Note_on_c, 1, 50, 0
3, 68820, Note_on_c, 1, 58, 100
3, 68880, Note_on_c, 1, 58, 0
3, 68880, Note_on_c, 1, 50, 100
3, 68940, Note_on_c, 1, 50, 0
3, 68940, Note_on_c, 1, 58, 100
3, 69000, Note_on_c, 1, 58, 0
3, 69000, Note_on_c, 1, 50, 100
3, 69060, Note_on_c, 1, 50, 0
3, 69060, Note_on_c, 1, 58, 100
3, 69120, Note_on_c, 1, 58, 0
3, 69120, Note_on_c, 1, 46, 0
3, 69120, Note_on_c, 1, 51, 100
3, 69180, Note_on_c, 1, 51, 0
3, 69180, Note_on_c, 1, 63, 100
3, 69240, Note_on_c, 1, 63, 0
3, 69240, Note_on_c, 1, 50, 100
3, 69300, Note_on_c, 1, 50, 0
3, 69300, Note_on_c, 1, 62, 100
3, 69360, Note_on_c, 1, 62, 0
3, 69360, Note_on_c, 1, 48, 100
3, 69420, Note_on_c, 1, 48, 0
3, 69420, Note_on_c, 1, 60, 100
3, 69480, Note_on_c, 1, 60, 0
3, 69480, Note_on_c, 1, 47, 100
3, 69540, Note_on_c, 1, 47, 0
3, 69540, Note_on_c, 1, 59, 100
3, 69600, Note_on_c, 1, 59, 0
3, 69600, Note_on_c, 1, 47, 100
3, 69660, Note_on_c, 1, 47, 0
3, 69660, Note_on_c, 1, 59, 100
3, 69720, Note_on_c, 1, 59, 0
3, 69720, Note_on_c, 1, 48, 100
3, 69780, Note_on_c, 1, 48, 0
3, 69780, Note_on_c, 1, 60, 100
3, 69840, Note_on_c, 1, 60, 0
3, 69840, Note_on_c, 1, 53, 100
3, 69900, Note_on_c, 1, 53, 0
3, 69900, Note_on_c, 1, 58, 100
3, 69960, Note_on_c, 1, 58, 0
3, 69960, Note_on_c, 1, 53, 100
3, 70020, Note_on_c, 1, 53, 0
3, 70020, Note_on_c, 1, 58, 100
3, 70080, Note_on_c, 1, 58, 0
3, 70080, Note_on_c, 1, 53, 100
3, 70140, Note_on_c, 1, 53, 0
3, 70140, Note_on_c, 1, 57, 100
3, 70200, Note_on_c, 1, 57, 0
3, 70200, Note_on_c, 1, 46, 100
3, 70260, Note_on_c, 1, 46, 0
3, 70260, Note_on_c, 1, 58, 100
3, 70320, Note_on_c, 1, 58, 0
3, 70320, Note_on_c, 1, 57, 100
3, 70380, Note_on_c, 1, 57, 0
3, 70380, Note_on_c, 1, 58, 100
3, 70440, Note_on_c, 1, 58, 0
3, 70440, Note_on_c, 1, 56, 100
3, 70500, Note_on_c, 1, 56, 0
3, 70500, Note_on_c, 1, 58, 100
3, 70560, Note_on_c, 1, 58, 0
3, 70560, Note_on_c, 1, 46, 100
3, 70620, Note_on_c, 1, 46, 0
3, 70620, Note_on_c, 1, 58, 100
3, 70680, Note_on_c, 1, 58, 0
3, 70680, Note_on_c, 1, 58, 100
3, 70740, Note_on_c, 1, 58, 0
3, 70740, Note_on_c, 1, 58, 100
3, 70800, Note_on_c, 1, 58, 0
3, 70800, Note_on_c, 1, 58, 100
3, 70860, Note_on_c, 1, 58, 0
3, 70860, Note_on_c, 1, 58, 100
3, 70920, Note_on_c, 1, 58, 0
3, 70920, Note_on_c, 1, 57, 100
3, 70980, Note_on_c, 1, 57, 0
3, 70980, Note_on_c, 1, 58, 100
3, 71040, Note_on_c, 1, 58, 0
3, 71040, Note_on_c, 1, 57, 100
3, 71100, Note_on_c, 1, 57, 0
3, 71100, Note_on_c, 1, 58, 100
3, 71160, Note_on_c, 1, 58, 0
3, 71160, Note_on_c, 1, 51, 100
3, 71220, Note_on_c, 1, 51, 0
3, 71220, Note_on_c, 1, 58, 100
3, 71280, Note_on_c, 1, 58, 0
3, 71280, Note_on_c, 1, 53, 100
3, 71340, Note_on_c, 1, 53, 0
3, 71340, Note_on_c, 1, 58, 100
3, 71400, Note_on_c, 1, 58, 0
3, 71400, Note_on_c, 1, 58, 100
3, 71460, Note_on_c, 1, 58, 0
3, 71460, Note_on_c, 1, 58, 100
3, 71520, Note_on_c, 1, 58, 0
3, 71520, Note_on_c, 1, 58, 100
3, 71580, Note_on_c, 1, 58, 0
3, 71580, Note_on_c, 1, 58, 100
3, 71640, Note_on_c, 1, 58, 0
3, 71640, Note_on_c, 1, 55, 100
3, 71700, Note_on_c, 1, 55, 0
3, 71700, Note_on_c, 1, 58, 100
3, 71760, Note_on_c, 1, 58, 0
3, 71760, Note_on_c, 1, 53, 100
3, 71820, Note_on_c, 1, 53, 0
3, 71820, Note_on_c, 1, 58, 100
3, 71880, Note_on_c, 1, 58, 0
3, 71880, Note_on_c, 1, 51, 100
3, 71940, Note_on_c, 1, 51, 0
3, 71940, Note_on_c, 1, 58, 100
3, 72000, Note_on_c, 1, 58, 0
3, 72000, Note_on_c, 1, 46, 100
3, 72060, Note_on_c, 1, 46, 0
3, 72060, Note_on_c, 1, 58, 100
3, 72120, Note_on_c, 1, 58, 0
3, 72120, Note_on_c, 1, 58, 100
3, 72180, Note_on_c, 1, 58, 0
3, 72180, Note_on_c, 1, 58, 100
3, 72240, Note_on_c, 1, 58, 0
3, 72240, Note_on_c, 1, 57, 100
3, 72300, Note_on_c, 1, 57, 0
3, 72300, Note_on_c, 1, 58, 100
3, 72360, Note_on_c, 1, 58, 0
3, 72360, Note_on_c, 1, 55, 100
3, 72360, Note_on_c, 1, 51, 100
3, 72420, Note_on_c, 1, 55, 0
3, 72420, Note_on_c, 1, 58, 100
3, 72480, Note_on_c, 1, 58, 0
3, 72480, Note_on_c, 1, 51, 0
3, 72480, Note_on_c, 1, 50, 100
3, 72480, Note_on_c, 1, 55, 100
3, 72540, Note_on_c, 1, 55, 0
3, 72540, Note_on_c, 1, 58, 100
3, 72600, Note_on_c, 1, 58, 0
3, 72600, Note_on_c, 1, 50, 0
3, 72600, Note_on_c, 1, 55, 100
3, 72600, Note_on_c, 1, 48, 100
3, 72660, Note_on_c, 1, 55, 0
3, 72660, Note_on_c, 1, 58, 100
3, 72720, Note_on_c, 1, 58, 0
3, 72720, Note_on_c, 1, 48, 0
3, 72720, Note_on_c, 1, 46, 100
3, 72720, Note_on_c, 1, 56, 100
3, 72780, Note_on_c, 1, 56, 0
3, 72780, Note_on_c, 1, 58, 100
3, 72840, Note_on_c, 1, 58, 0
3, 72840, Note_on_c, 1, 56, 100
3, 72900, Note_on_c, 1, 56, 0
3, 72900, Note_on_c, 1, 58, 100
3, 72960, Note_on_c, 1, 58, 0
3, 72960, Note_on_c, 1, 46, 0
3, 72960, Note_on_c, 1, 53, 100
3, 72960, Note_on_c, 1, 56, 100
3, 73020, Note_on_c, 1, 56, 0
3, 73020, Note_on_c, 1, 58, 100
3, 73080, Note_on_c, 1, 58, 0
3, 73080, Note_on_c, 1, 53, 0
3, 73080, Note_on_c, 1, 55, 100
3, 73080, Note_on_c, 1, 51, 100
3, 73140, Note_on_c, 1, 55, 0
3, 73140, Note_on_c, 1, 58, 100
3, 73200, Note_on_c, 1, 58, 0
3, 73200, Note_on_c, 1, 51, 0
3, 73200, Note_on_c, 1, 46, 100
3, 73200, Note_on_c, 1, 56, 100
3, 73260, Note_on_c, 1, 56, 0
3, 73260, Note_on_c, 1, 58, 100
3, 73320, Note_on_c, 1, 58, 0
3, 73320, Note_on_c, 1, 46, 0
3, 73320, Note_on_c, 1, 46, 100
3, 73320, Note_on_c, 1, 56, 100
3, 73380, Note_on_c, 1, 56, 0
3, 73380, Note_on_c, 1, 58, 100
3, 73440, Note_on_c, 1, 58, 0
3, 73440, Note_on_c, 1, 46, 0
3, 73440, Note_on_c, 1, 51, 100
3, 73440, Note_on_c, 1, 55, 100
3, 73500, Note_on_c, 1, 55, 0
3, 73500, Note_on_c, 1, 51, 0
3, 73500, Note_on_c, 1, 58, 100
3, 73560, Note_on_c, 1, 58, 0
3, 73560, Note_on_c, 1, 58, 100
3, 73620, Note_on_c, 1, 58, 0
3, 73620, Note_on_c, 1, 58, 100
3, 73680, Note_on_c, 1, 58, 0
3, 73680, Note_on_c, 1, 58, 100
3, 73740, Note_on_c, 1, 58, 0
3, 73740, Note_on_c, 1, 58, 100
3, 73800, Note_on_c, 1, 58, 0
3, 73800, Note_on_c, 1, 55, 100
3, 73860, Note_on_c, 1, 55, 0
3, 73860, Note_on_c, 1, 58, 100
3, 73920, Note_on_c, 1, 58, 0
3, 73920, Note_on_c, 1, 53, 100
3, 73980, Note_on_c, 1, 53, 0
3, 73980, Note_on_c, 1, 58, 100
3, 74040, Note_on_c, 1, 58, 0
3, 74040, Note_on_c, 1, 51, 100
3, 74100, Note_on_c, 1, 51, 0
3, 74100, Note_on_c, 1, 58, 100
3, 74160, Note_on_c, 1, 58, 0
3, 74160, Note_on_c, 1, 46, 100
3, 74220, Note_on_c, 1, 46, 0
3, 74220, Note_on_c, 1, 58, 100
3, 74280, Note_on_c, 1, 58, 0
3, 74280, Note_on_c, 1, 58, 100
3, 74340, Note_on_c, 1, 58, 0
3, 74340, Note_on_c, 1, 58, 100
3, 74400, Note_on_c, 1, 58, 0
3, 74400, Note_on_c, 1, 57, 100
3, 74460, Note_on_c, 1, 57, 0
3, 74460, Note_on_c, 1, 58, 100
3, 74520, Note_on_c, 1, 58, 0
3, 74520, Note_on_c, 1, 55, 100
3, 74520, Note_on_c, 1, 51, 100
3, 74580, Note_on_c, 1, 55, 0
3, 74580, Note_on_c, 1, 58, 100
3, 74640, Note_on_c, 1, 58, 0
3, 74640, Note_on_c, 1, 51, 0
3, 74640, Note_on_c, 1, 50, 100
3, 74640, Note_on_c, 1, 55, 100
3, 74700, Note_on_c, 1, 55, 0
3, 74700, Note_on_c, 1, 58, 100
3, 74760, Note_on_c, 1, 58, 0
3, 74760, Note_on_c, 1, 50, 0
3, 74760, Note_on_c, 1, 48, 100
3, 74760, Note_on_c, 1, 55, 100
3, 74820, Note_on_c, 1, 55, 0
3, 74820, Note_on_c, 1, 58, 100
3, 74880, Note_on_c, 1, 58, 0
3, 74880, Note_on_c, 1, 48, 0
3, 74880, Note_on_c, 1, 56, 100
3, 74880, Note_on_c, 1, 46, 100
3, 74940, Note_on_c, 1, 56, 0
3, 74940, Note_on_c, 1, 58, 100
3, 75000, Note_on_c, 1, 58, 0
3, 75000, Note_on_c, 1, 56, 100
3, 75060, Note_on_c, 1, 56, 0
3, 75060, Note_on_c, 1, 58, 100
3, 75120, Note_on_c, 1, 58, 0
3, 75120, Note_on_c, 1, 46, 0
3, 75120, Note_on_c, 1, 53, 100
3, 75120, Note_on_c, 1, 56, 100
3, 75180, Note_on_c, 1, 56, 0
3, 75180, Note_on_c, 1, 58, 100
3, 75240, Note_on_c, 1, 58, 0
3, 75240, Note_on_c, 1, 53, 0
3, 75240, Note_on_c, 1, 51, 100
3, 75240, Note_on_c, 1, 55, 100
3, 75300, Note_on_c, 1, 55, 0
3, 75300, Note_on_c, 1, 58, 100
3, 75360, Note_on_c, 1, 58, 0
3, 75360, Note_on_c, 1, 51, 0
3, 75360, Note_on_c, 1, 56, 100
3, 75360, Note_on_c, 1, 46, 100
3, 75420, Note_on_c, 1, 56, 0
3, 75420, Note_on_c, 1, 58, 100
3, 75480, Note_on_c, 1, 58, 0
3, 75480, Note_on_c, 1, 46, 0
3, 75480, Note_on_c, 1, 46, 100
3, 75480, Note_on_c, 1, 56, 100
3, 75540, Note_on_c, 1, 56, 0
3, 75540, Note_on_c, 1, 58, 100
3, 75600, Note_on_c, 1, 58, 0
3, 75600, Note_on_c, 1, 46, 0
3, 75600, Note_on_c, 1, 55, 100
3, 75600, Note_on_c, 1, 51, 100
3, 75660, Note_on_c, 1, 51, 0
3, 75660, Note_on_c, 1, 55, 0
3, 75660, Note_on_c, 1, 58, 100
3, 75720, Note_on_c, 1, 58, 0
3, 75720, Note_on_c, 1, 58, 100
3, 75780, Note_on_c, 1, 58, 0
3, 75780, Note_on_c, 1, 58, 100
3, 75840, Note_on_c, 1, 58, 0
3, 75840, Note_on_c, 1, 58, 100
3, 75900, Note_on_c, 1, 58, 0
3, 75900, Note_on_c, 1, 58, 100
3, 75960, Note_on_c, 1, 58, 0
3, 75960, Note_on_c, 1, 55, 100
3, 75960, Note_on_c, 1, 51, 100
3, 76080, Note_on_c, 1, 51, 0
3, 76080, Note_on_c, 1, 55, 0
3, 77040, Note_on_c, 1, 46, 60
3, 77040, Note_on_c, 1, 58, 60
3, 77160, Note_on_c, 1, 58, 0
3, 77160, Note_on_c, 1, 46, 0
3, 77160, Note_on_c, 1, 53, 60
3, 77280, Note_on_c, 1, 53, 0
3, 77280, Note_on_c, 1, 46, 60
3, 77280, Note_on_c, 1, 58, 60
3, 77400, Note_on_c, 1, 58, 0
3, 77400, Note_on_c, 1, 46, 0
3, 77400, Note_on_c, 1, 57, 60
3, 77400, Note_on_c, 1, 45, 60
3, 77520, Note_on_c, 1, 45, 0
3, 77520, Note_on_c, 1, 57, 0
3, 77520, Note_on_c, 1, 41, 60
3, 77520, Note_on_c, 1, 53, 60
3, 77640, Note_on_c, 1, 53, 0
3, 77640, Note_on_c, 1, 41, 0
3, 77640, Note_on_c, 1, 45, 60
3, 77640, Note_on_c, 1, 57, 60
3, 77760, Note_on_c, 1, 57, 0
3, 77760, Note_on_c, 1, 45, 0
3, 77760, Note_on_c, 1, 46, 60
3, 77760, Note_on_c, 1, 58, 60
3, 77880, Note_on_c, 1, 58, 0
3, 77880, Note_on_c, 1, 46, 0
3, 77880, Note_on_c, 1, 53, 60
3, 77880, Note_on_c, 1, 41, 60
3, 78000, Note_on_c, 1, 41, 0
3, 78000, Note_on_c, 1, 53, 0
3, 78000, Note_on_c, 1, 46, 60
3, 78000, Note_on_c, 1, 58, 60
3, 78120, Note_on_c, 1, 58, 0
3, 78120, Note_on_c, 1, 46, 0
3, 78120, Note_on_c, 1, 48, 100
3, 78120, Note_on_c, 1, 60, 100
3, 78240, Note_on_c, 1, 60, 0
3, 78240, Note_on_c, 1, 48, 0
3, 78240, Note_on_c, 1, 53, 100
3, 78240, Note_on_c, 1, 41, 100
3, 78360, Note_on_c, 1, 41, 0
3, 78360, Note_on_c, 1, 53, 0
3, 78600, Note_on_c, 1, 53, 60
3, 78720, Note_on_c, 1, 53, 0
3, 78720, Note_on_c, 1, 51, 60
3, 78840, Note_on_c, 1, 51, 0
3, 78840, Note_on_c, 1, 50, 60
3, 78960, Note_on_c, 1, 50, 0
3, 78960, Note_on_c, 1, 48, 60
3, 79080, Note_on_c, 1, 48, 0
3, 79080, Note_on_c, 1, 46, 60
3, 79200, Note_on_c, 1, 46, 0
3, 79200, Note_on_c, 1, 51, 60
3, 79320, Note_on_c, 1, 51, 0
3, 79320, Note_on_c, 1, 48, 60
3, 79440, Note_on_c, 1, 48, 0
3, 79440, Note_on_c, 1, 53, 60
3, 79560, Note_on_c, 1, 53, 0
3, 79560, Note_on_c, 1, 46, 60
3, 79680, Note_on_c, 1, 46, 0
3, 79920, Note_on_c, 1, 58, 60
3, 79920, Note_on_c, 1, 46, 60
3, 80040, Note_on_c, 1, 46, 0
3, 80040, Note_on_c, 1, 58, 0
3, 80040, Note_on_c, 1, 53, 60
3, 80160, Note_on_c, 1, 53, 0
3, 80160, Note_on_c, 1, 58, 60
3, 80160, Note_on_c, 1, 46, 60
3, 80280, Note_on_c, 1, 46, 0
3, 80280, Note_on_c, 1, 58, 0
3, 80280, Note_on_c, 1, 57, 60
3, 80280, Note_on_c, 1, 45, 60
3, 80400, Note_on_c, 1, 45, 0
3, 80400, Note_on_c, 1, 57, 0
3, 80400, Note_on_c, 1, 53, 60
3, 80400, Note_on_c, 1, 41, 60
3, 80520, Note_on_c, 1, 41, 0
3, 80520, Note_on_c, 1, 53, 0
3, 80520, Note_on_c, 1, 45, 60
3, 80520, Note_on_c, 1, 57, 60
3, 80640, Note_on_c, 1, 57, 0
3, 80640, Note_on_c, 1, 45, 0
3, 80640, Note_on_c, 1, 46, 60
3, 80640, Note_on_c, 1, 58, 60
3, 80760, Note_on_c, 1, 58, 0
3, 80760, Note_on_c, 1, 46, 0
3, 80760, Note_on_c, 1, 53, 60
3, 80760, Note_on_c, 1, 41, 60
3, 80880, Note_on_c, 1, 41, 0
3, 80880, Note_on_c, 1, 53, 0
3, 80880, Note_on_c, 1, 58, 60
3, 80880, Note_on_c, 1, 46, 60
3, 81000, Note_on_c, 1, 46, 0
3, 81000, Note_on_c, 1, 58, 0
3, 81000, Note_on_c, 1, 48, 100
3, 81000, Note_on_c, 1, 60, 100
3, 81120, Note_on_c, 1, 60, 0
3, 81120, Note_on_c, 1, 48, 0
3, 81120, Note_on_c, 1, 53, 100
3, 81120, Note_on_c, 1, 41, 100
3, 81240, Note_on_c, 1, 41, 0
3, 81240, Note_on_c, 1, 53, 0
3, 81480, Note_on_c, 1, 53, 60
3, 81600, Note_on_c, 1, 53, 0
3, 81600, Note_on_c, 1, 51, 60
3, 81720, Note_on_c, 1, 51, 0
3, 81720, Note_on_c, 1, 50, 60
3, 81840, Note_on_c, 1, 50, 0
3, 81840, Note_on_c, 1, 48, 60
3, 81960, Note_on_c, 1, 48, 0
3, 81960, Note_on_c, 1, 46, 60
3, 82080, Note_on_c, 1, 46, 0
3, 82080, Note_on_c, 1, 51, 60
3, 82200, Note_on_c, 1, 51, 0
3, 82200, Note_on_c, 1, 48, 60
3, 82320, Note_on_c, 1, 48, 0
3, 82320, Note_on_c, 1, 53, 60
3, 82440, Note_on_c, 1, 53, 0
3, 82440, Note_on_c, 1, 46, 60
3, 82560, Note_on_c, 1, 46, 0
3, 82800, Note_on_c, 1, 57, 60
3, 82800, Note_on_c, 1, 53, 60
3, 82800, Note_on_c, 1, 60, 60
3, 82920, Note_on_c, 1, 60, 0
3, 82920, Note_on_c, 1, 53, 0
3, 82920, Note_on_c, 1, 57, 0
3, 82920, Note_on_c, 1, 53, 60
3, 82920, Note_on_c, 1, 60, 60
3, 82920, Note_on_c, 1, 57, 60
3, 83040, Note_on_c, 1, 57, 0
3, 83040, Note_on_c, 1, 60, 0
3, 83040, Note_on_c, 1, 53, 0
3, 83040, Note_on_c, 1, 57, 60
3, 83040, Note_on_c, 1, 53, 60
3, 83040, Note_on_c, 1, 60, 60
3, 83160, Note_on_c, 1, 60, 0
3, 83160, Note_on_c, 1, 53, 0
3, 83160, Note_on_c, 1, 57, 0
3, 83160, Note_on_c, 1, 53, 60
3, 83160, Note_on_c, 1, 55, 60
3, 83160, Note_on_c, 1, 58, 60
3, 83280, Note_on_c, 1, 58, 0
3, 83280, Note_on_c, 1, 55, 0
3, 83280, Note_on_c, 1, 53, 0
3, 83280, Note_on_c, 1, 55, 60
3, 83280, Note_on_c, 1, 58, 60
3, 83280, Note_on_c, 1, 53, 60
3, 83400, Note_on_c, 1, 53, 0
3, 83400, Note_on_c, 1, 58, 0
3, 83400, Note_on_c, 1, 55, 0
3, 83400, Note_on_c, 1, 53, 60
3, 83400, Note_on_c, 1, 58, 60
3, 83400, Note_on_c, 1, 55, 60
3, 83520, Note_on_c, 1, 55, 0
3, 83520, Note_on_c, 1, 58, 0
3, 83520, Note_on_c, 1, 53, 0
3, 83520, Note_on_c, 1, 53, 60
3, 83520, Note_on_c, 1, 60, 60
3, 83520, Note_on_c, 1, 57, 60
3, 83640, Note_on_c, 1, 57, 0
3, 83640, Note_on_c, 1, 60, 0
3, 83640, Note_on_c, 1, 53, 0
3, 83640, Note_on_c, 1, 57, 60
3, 83640, Note_on_c, 1, 60, 60
3, 83640, Note_on_c, 1, 53, 60
3, 83760, Note_on_c, 1, 53, 0
3, 83760, Note_on_c, 1, 60, 0
3, 83760, Note_on_c, 1, 57, 0
3, 83760, Note_on_c, 1, 57, 60
3, 83760, Note_on_c, 1, 53, 60
3, 83760, Note_on_c, 1, 60, 60
3, 83880, Note_on_c, 1, 60, 0
3, 83880, Note_on_c, 1, 53, 0
3, 83880, Note_on_c, 1, 57, 0
3, 83880, Note_on_c, 1, 60, 60
3, 83880, Note_on_c, 1, 57, 60
3, 83880, Note_on_c, 1, 53, 60
3, 83940, Note_on_c, 1, 53, 0
3, 83940, Note_on_c, 1, 57, 0
3, 83940, Note_on_c, 1, 60, 0
3, 83940, Note_on_c, 1, 63, 60
3, 84000, Note_on_c, 1, 63, 0
3, 84000, Note_on_c, 1, 63, 60
3, 84060, Note_on_c, 1, 63, 0
3, 84060, Note_on_c, 1, 62, 60
3, 84120, Note_on_c, 1, 62, 0
3, 84120, Note_on_c, 1, 63, 60
3, 84180, Note_on_c, 1, 63, 0
3, 84180, Note_on_c, 1, 60, 60
3, 84240, Note_on_c, 1, 60, 0
3, 84240, Note_on_c, 1, 58, 60
3, 84240, Note_on_c, 1, 46, 60
3, 84360, Note_on_c, 1, 46, 0
3, 84360, Note_on_c, 1, 58, 0
3, 84360, Note_on_c, 1, 53, 60
3, 84360, Note_on_c, 1, 41, 60
3, 84480, Note_on_c, 1, 41, 0
3, 84480, Note_on_c, 1, 53, 0
3, 84480, Note_on_c, 1, 58, 60
3, 84480, Note_on_c, 1, 46, 60
3, 84600, Note_on_c, 1, 46, 0
3, 84600, Note_on_c, 1, 58, 0
3, 84600, Note_on_c, 1, 45, 60
3, 84600, Note_on_c, 1, 57, 60
3, 84720, Note_on_c, 1, 57, 0
3, 84720, Note_on_c, 1, 45, 0
3, 84720, Note_on_c, 1, 53, 60
3, 84720, Note_on_c, 1, 41, 60
3, 84840, Note_on_c, 1, 41, 0
3, 84840, Note_on_c, 1, 53, 0
3, 84840, Note_on_c, 1, 45, 60
3, 84840, Note_on_c, 1, 57, 60
3, 84960, Note_on_c, 1, 57, 0
3, 84960, Note_on_c, 1, 45, 0
3, 84960, Note_on_c, 1, 46, 60
3, 84960, Note_on_c, 1, 58, 60
3, 85080, Note_on_c, 1, 58, 0
3, 85080, Note_on_c, 1, 46, 0
3, 85080, Note_on_c, 1, 51, 60
3, 85080, Note_on_c, 1, 39, 60
3, 85200, Note_on_c, 1, 39, 0
3, 85200, Note_on_c, 1, 51, 0
3, 85200, Note_on_c, 1, 41, 60
3, 85200, Note_on_c, 1, 53, 60
3, 85320, Note_on_c, 1, 53, 0
3, 85320, Note_on_c, 1, 41, 0
3, 85320, Note_on_c, 1, 46, 60
3, 85440, Note_on_c, 1, 46, 0
3, 85680, Note_on_c, 1, 57, 60
3, 85680, Note_on_c, 1, 60, 60
3, 85680, Note_on_c, 1, 53, 60
3, 85800, Note_on_c, 1, 53, 0
3, 85800, Note_on_c, 1, 60, 0
3, 85800, Note_on_c, 1, 57, 0
3, 85800, Note_on_c, 1, 57, 60
3, 85800, Note_on_c, 1, 60, 60
3, 85800, Note_on_c, 1, 53, 60
3, 85920, Note_on_c, 1, 53, 0
3, 85920, Note_on_c, 1, 60, 0
3, 85920, Note_on_c, 1, 57, 0
3, 85920, Note_on_c, 1, 53, 60
3, 85920, Note_on_c, 1, 60, 60
3, 85920, Note_on_c, 1, 57, 60
3, 86040, Note_on_c, 1, 57, 0
3, 86040, Note_on_c, 1, 60, 0
3, 86040, Note_on_c, 1, 53, 0
3, 86040, Note_on_c, 1, 55, 60
3, 86040, Note_on_c, 1, 53, 60
3, 86040, Note_on_c, 1, 58, 60
3, 86160, Note_on_c, 1, 58, 0
3, 86160, Note_on_c, 1, 53, 0
3, 86160, Note_on_c, 1, 55, 0
3, 86160, Note_on_c, 1, 53, 60
3, 86160, Note_on_c, 1, 58, 60
3, 86160, Note_on_c, 1, 55, 60
3, 86280, Note_on_c, 1, 55, 0
3, 86280, Note_on_c, 1, 58, 0
3, 86280, Note_on_c, 1, 53, 0
3, 86280, Note_on_c, 1, 53, 60
3, 86280, Note_on_c, 1, 58, 60
3, 86280, Note_on_c, 1, 55, 60
3, 86400, Note_on_c, 1, 55, 0
3, 86400, Note_on_c, 1, 58, 0
3, 86400, Note_on_c, 1, 53, 0
3, 86400, Note_on_c, 1, 57, 60
3, 86400, Note_on_c, 1, 60, 60
3, 86400, Note_on_c, 1, 53, 60
3, 86520, Note_on_c, 1, 53, 0
3, 86520, Note_on_c, 1, 60, 0
3, 86520, Note_on_c, 1, 57, 0
3, 86520, Note_on_c, 1, 53, 60
3, 86520, Note_on_c, 1, 60, 60
3, 86520, Note_on_c, 1, 57, 60
3, 86640, Note_on_c, 1, 57, 0
3, 86640, Note_on_c, 1, 60, 0
3, 86640, Note_on_c, 1, 53, 0
3, 86640, Note_on_c, 1, 53, 60
3, 86640, Note_on_c, 1, 60, 60
3, 86640, Note_on_c, 1, 57, 60
3, 86760, Note_on_c, 1, 57, 0
3, 86760, Note_on_c, 1, 60, 0
3, 86760, Note_on_c, 1, 53, 0
3, 86760, Note_on_c, 1, 53, 60
3, 86760, Note_on_c, 1, 57, 60
3, 86760, Note_on_c, 1, 60, 60
3, 86820, Note_on_c, 1, 60, 0
3, 86820, Note_on_c, 1, 57, 0
3, 86820, Note_on_c, 1, 53, 0
3, 86820, Note_on_c, 1, 63, 60
3, 86880, Note_on_c, 1, 63, 0
3, 86880, Note_on_c, 1, 63, 60
3, 86940, Note_on_c, 1, 63, 0
3, 86940, Note_on_c, 1, 62, 60
3, 87000, Note_on_c, 1, 62, 0
3, 87000, Note_on_c, 1, 63, 60
3, 87060, Note_on_c, 1, 63, 0
3, 87060, Note_on_c, 1, 60, 60
3, 87120, Note_on_c, 1, 60, 0
3, 87120, Note_on_c, 1, 58, 60
3, 87120, Note_on_c, 1, 46, 60
3, 87240, Note_on_c, 1, 46, 0
3, 87240, Note_on_c, 1, 58, 0
3, 87240, Note_on_c, 1, 53, 60
3, 87240, Note_on_c, 1, 41, 60
3, 87360, Note_on_c, 1, 41, 0
3, 87360, Note_on_c, 1, 53, 0
3, 87360, Note_on_c, 1, 58, 60
3, 87360, Note_on_c, 1, 46, 60
3, 87480, Note_on_c, 1, 46, 0
3, 87480, Note_on_c, 1, 58, 0
3, 87480, Note_on_c, 1, 57, 60
3, 87480, Note_on_c, 1, 45, 60
3, 87600, Note_on_c, 1, 45, 0
3, 87600, Note_on_c, 1, 57, 0
3, 87600, Note_on_c, 1, 53, 60
3, 87600, Note_on_c, 1, 41, 60
3, 87720, Note_on_c, 1, 41, 0
3, 87720, Note_on_c, 1, 53, 0
3, 87720, Note_on_c, 1, 45, 60
3, 87720, Note_on_c, 1, 57, 60
3, 87840, Note_on_c, 1, 57, 0
3, 87840, Note_on_c, 1, 45, 0
3, 87840, Note_on_c, 1, 46, 60
3, 87840, Note_on_c, 1, 58, 60
3, 87960, Note_on_c, 1, 58, 0
3, 87960, Note_on_c, 1, 46, 0
3, 87960, Note_on_c, 1, 39, 60
3, 87960, Note_on_c, 1, 51, 60
3, 88080, Note_on_c, 1, 51, 0
3, 88080, Note_on_c, 1, 39, 0
3, 88080, Note_on_c, 1, 53, 60
3, 88080, Note_on_c, 1, 41, 60
3, 88200, Note_on_c, 1, 41, 0
3, 88200, Note_on_c, 1, 53, 0
3, 88200, Note_on_c, 1, 46, 60
3, 88320, Note_on_c, 1, 46, 0
3, 88560, Note_on_c, 1, 46, 60
3, 88680, Note_on_c, 1, 46, 0
3, 88680, Note_on_c, 1, 50, 60
3, 88800, Note_on_c, 1, 50, 0
3, 88800, Note_on_c, 1, 53, 60
3, 88920, Note_on_c, 1, 53, 0
3, 88920, Note_on_c, 1, 43, 60
3, 89040, Note_on_c, 1, 43, 0
3, 89040, Note_on_c, 1, 46, 60
3, 89160, Note_on_c, 1, 46, 0
3, 89160, Note_on_c, 1, 51, 60
3, 89280, Note_on_c, 1, 51, 0
3, 89280, Note_on_c, 1, 41, 60
3, 89400, Note_on_c, 1, 41, 0
3, 89400, Note_on_c, 1, 48, 60
3, 89520, Note_on_c, 1, 48, 0
3, 89520, Note_on_c, 1, 51, 60
3, 89640, Note_on_c, 1, 51, 0
3, 89640, Note_on_c, 1, 50, 60
3, 89760, Note_on_c, 1, 50, 0
3, 89760, Note_on_c, 1, 46, 60
3, 89880, Note_on_c, 1, 46, 0
3, 90000, Note_on_c, 1, 48, 60
3, 90120, Note_on_c, 1, 48, 0
3, 90120, Note_on_c, 1, 60, 60
3, 90240, Note_on_c, 1, 60, 0
3, 90240, Note_on_c, 1, 58, 60
3, 90360, Note_on_c, 1, 58, 0
3, 90360, Note_on_c, 1, 57, 60
3, 90480, Note_on_c, 1, 57, 0
3, 90480, Note_on_c, 1, 53, 60
3, 90600, Note_on_c, 1, 53, 0
3, 90720, Note_on_c, 1, 58, 60
3, 90840, Note_on_c, 1, 58, 0
3, 90840, Note_on_c, 1, 60, 60
3, 90960, Note_on_c, 1, 60, 0
3, 90960, Note_on_c, 1, 48, 60
3, 91080, Note_on_c, 1, 48, 0
3, 91080, Note_on_c, 1, 53, 60
3, 91200, Note_on_c, 1, 53, 0
3, 91200, Note_on_c, 1, 41, 60
3, 91320, Note_on_c, 1, 41, 0
3, 91440, Note_on_c, 1, 46, 60
3, 91560, Note_on_c, 1, 46, 0
3, 91560, Note_on_c, 1, 50, 60
3, 91680, Note_on_c, 1, 50, 0
3, 91680, Note_on_c, 1, 53, 60
3, 91800, Note_on_c, 1, 53, 0
3, 91800, Note_on_c, 1, 43, 60
3, 91920, Note_on_c, 1, 43, 0
3, 91920, Note_on_c, 1, 46, 60
3, 92040, Note_on_c, 1, 46, 0
3, 92040, Note_on_c, 1, 51, 60
3, 92160, Note_on_c, 1, 51, 0
3, 92160, Note_on_c, 1, 41, 60
3, 92280, Note_on_c, 1, 41, 0
3, 92280, Note_on_c, 1, 48, 60
3, 92400, Note_on_c, 1, 48, 0
3, 92400, Note_on_c, 1, 51, 60
3, 92520, Note_on_c, 1, 51, 0
3, 92520, Note_on_c, 1, 50, 60
3, 92640, Note_on_c, 1, 50, 0
3, 92640, Note_on_c, 1, 46, 60
3, 92760, Note_on_c, 1, 46, 0
3, 92880, Note_on_c, 1, 48, 60
3, 93000, Note_on_c, 1, 48, 0
3, 93000, Note_on_c, 1, 60, 60
3, 93120, Note_on_c, 1, 60, 0
3, 93120, Note_on_c, 1, 58, 60
3, 93240, Note_on_c, 1, 58, 0
3, 93240, Note_on_c, 1, 57, 60
3, 93360, Note_on_c, 1, 57, 0
3, 93360, Note_on_c, 1, 53, 60
3, 93480, Note_on_c, 1, 53, 0
3, 93600, Note_on_c, 1, 58, 60
3, 93720, Note_on_c, 1, 58, 0
3, 93720, Note_on_c, 1, 60, 60
3, 93840, Note_on_c, 1, 60, 0
3, 93840, Note_on_c, 1, 48, 60
3, 93960, Note_on_c, 1, 48, 0
3, 93960, Note_on_c, 1, 53, 60
3, 94080, Note_on_c, 1, 53, 0
3, 94080, Note_on_c, 1, 41, 60
3, 94200, Note_on_c, 1, 41, 0
3, 94320, Note_on_c, 1, 43, 60
3, 94440, Note_on_c, 1, 43, 0
3, 94440, Note_on_c, 1, 55, 60
3, 94560, Note_on_c, 1, 55, 0
3, 94560, Note_on_c, 1, 53, 60
3, 94560, Note_on_c, 1, 59, 60
3, 94680, Note_on_c, 1, 59, 0
3, 94680, Note_on_c, 1, 53, 0
3, 94680, Note_on_c, 1, 51, 60
3, 94680, Note_on_c, 1, 60, 60
3, 94800, Note_on_c, 1, 60, 0
3, 94800, Note_on_c, 1, 51, 0
3, 94800, Note_on_c, 1, 48, 60
3, 94920, Note_on_c, 1, 48, 0
3, 95040, Note_on_c, 1, 41, 60
3, 95160, Note_on_c, 1, 41, 0
3, 95160, Note_on_c, 1, 53, 60
3, 95280, Note_on_c, 1, 53, 0
3, 95280, Note_on_c, 1, 57, 60
3, 95280, Note_on_c, 1, 51, 60
3, 95400, Note_on_c, 1, 51, 0
3, 95400, Note_on_c, 1, 57, 0
3, 95400, Note_on_c, 1, 58, 60
3, 95400, Note_on_c, 1, 50, 60
3, 95520, Note_on_c, 1, 50, 0
3, 95520, Note_on_c, 1, 58, 0
3, 95520, Note_on_c, 1, 46, 60
3, 95640, Note_on_c, 1, 46, 0
3, 95760, Note_on_c, 1, 46, 60
3, 95880, Note_on_c, 1, 46, 0
3, 95880, Note_on_c, 1, 58, 60
3, 96000, Note_on_c, 1, 58, 0
3, 96120, Note_on_c, 1, 46, 60
3, 96240, Note_on_c, 1, 46, 0
3, 96240, Note_on_c, 1, 58, 60
3, 96360, Note_on_c, 1, 58, 0
3, 96480, Note_on_c, 1, 51, 60
3, 96600, Note_on_c, 1, 51, 0
3, 96600, Note_on_c, 1, 53, 60
3, 96720, Note_on_c, 1, 53, 0
3, 96720, Note_on_c, 1, 41, 60
3, 96840, Note_on_c, 1, 41, 0
3, 96840, Note_on_c, 1, 46, 60
3, 96960, Note_on_c, 1, 46, 0
3, 96960, Note_on_c, 1, 58, 60
3, 97080, Note_on_c, 1, 58, 0
3, 97200, Note_on_c, 1, 43, 60
3, 97320, Note_on_c, 1, 43, 0
3, 97320, Note_on_c, 1, 55, 60
3, 97440, Note_on_c, 1, 55, 0
3, 97440, Note_on_c, 1, 53, 60
3, 97440, Note_on_c, 1, 59, 60
3, 97560, Note_on_c, 1, 59, 0
3, 97560, Note_on_c, 1, 53, 0
3, 97560, Note_on_c, 1, 51, 60
3, 97560, Note_on_c, 1, 60, 60
3, 97680, Note_on_c, 1, 60, 0
3, 97680, Note_on_c, 1, 51, 0
3, 97680, Note_on_c, 1, 48, 60
3, 97800, Note_on_c, 1, 48, 0
3, 97920, Note_on_c, 1, 41, 60
3, 98040, Note_on_c, 1, 41, 0
3, 98040, Note_on_c, 1, 53, 60
3, 98160, Note_on_c, 1, 53, 0
3, 98160, Note_on_c, 1, 51, 60
3, 98160, Note_on_c, 1, 57, 60
3, 98280, Note_on_c, 1, 57, 0
3, 98280, Note_on_c, 1, 51, 0
3, 98280, Note_on_c, 1, 50, 60
3, 98280, Note_on_c, 1, 58, 60
3, 98400, Note_on_c, 1, 58, 0
3, 98400, Note_on_c, 1, 50, 0
3, 98400, Note_on_c, 1, 46, 60
3, 98520, Note_on_c, 1, 46, 0
3, 98640, Note_on_c, 1, 46, 60
3, 98760, Note_on_c, 1, 46, 0
3, 98760, Note_on_c, 1, 58, 60
3, 98880, Note_on_c, 1, 58, 0
3, 99000, Note_on_c, 1, 46, 60
3, 99120, Note_on_c, 1, 46, 0
3, 99120, Note_on_c, 1, 58, 60
3, 99240, Note_on_c, 1, 58, 0
3, 99360, Note_on_c, 1, 51, 60
3, 99480, Note_on_c, 1, 51, 0
3, 99480, Note_on_c, 1, 53, 60
3, 99600, Note_on_c, 1, 53, 0
3, 99600, Note_on_c, 1, 41, 60
3, 99720, Note_on_c, 1, 41, 0
3, 99720, Note_on_c, 1, 46, 60
3, 99840, Note_on_c, 1, 46, 0
3, 99840, Note_on_c, 1, 58, 60
3, 99960, Note_on_c, 1, 58, 0
3, 100680, Note_on_c, 1, 38, 100
3, 100680, Note_on_c, 1, 50, 100
3, 100800, Note_on_c, 1, 50, 0
3, 100800, Note_on_c, 1, 38, 0
3, 100800, Note_on_c, 1, 50, 100
3, 100980, Note_on_c, 1, 50, 0
3, 100980, Note_on_c, 1, 49, 100
3, 101010, Note_on_c, 1, 49, 0
3, 101010, Note_on_c, 1, 50, 100
3, 101040, Note_on_c, 1, 50, 0
3, 101040, Note_on_c, 1, 52, 100
3, 101070, Note_on_c, 1, 52, 0
3, 101070, Note_on_c, 1, 50, 100
3, 101100, Note_on_c, 1, 50, 0
3, 101100, Note_on_c, 1, 49, 100
3, 101130, Note_on_c, 1, 49, 0
3, 101130, Note_on_c, 1, 47, 100
3, 101160, Note_on_c, 1, 47, 0
3, 101160, Note_on_c, 1, 45, 100
3, 101280, Note_on_c, 1, 45, 0
3, 101400, Note_on_c, 1, 33, 100
3, 101400, Note_on_c, 1, 45, 100
3, 101490, Note_on_c, 1, 45, 0
3, 101490, Note_on_c, 1, 33, 0
3, 101490, Note_on_c, 1, 33, 100
3, 101490, Note_on_c, 1, 45, 100
3, 101520, Note_on_c, 1, 45, 0
3, 101520, Note_on_c, 1, 33, 0
3, 101520, Note_on_c, 1, 43, 100
3, 101520, Note_on_c, 1, 55, 100
3, 101700, Note_on_c, 1, 55, 0
3, 101700, Note_on_c, 1, 43, 0
3, 101700, Note_on_c, 1, 54, 100
3, 101730, Note_on_c, 1, 54, 0
3, 101730, Note_on_c, 1, 55, 100
3, 101760, Note_on_c, 1, 55, 0
3, 101760, Note_on_c, 1, 57, 100
3, 101790, Note_on_c, 1, 57, 0
3, 101790, Note_on_c, 1, 55, 100
3, 101820, Note_on_c, 1, 55, 0
3, 101820, Note_on_c, 1, 54, 100
3, 101850, Note_on_c, 1, 54, 0
3, 101850, Note_on_c, 1, 52, 100
3, 101880, Note_on_c, 1, 52, 0
3, 101880, Note_on_c, 1, 50, 100
3, 102000, Note_on_c, 1, 50, 0
3, 102240, Note_on_c, 1, 38, 78
3, 102240, Note_on_c, 1, 50, 78
3, 102360, Note_on_c, 1, 50, 0
3, 102360, Note_on_c, 1, 38, 0
3, 102360, Note_on_c, 1, 62, 78
3, 102360, Note_on_c, 1, 50, 78
3, 102480, Note_on_c, 1, 50, 0
3, 102480, Note_on_c, 1, 62, 0
3, 102960, Note_on_c, 1, 45, 78
3, 103080, Note_on_c, 1, 45, 0
3, 103080, Note_on_c, 1, 49, 78
3, 103200, Note_on_c, 1, 49, 0
3, 103200, Note_on_c, 1, 50, 78
3, 103320, Note_on_c, 1, 50, 0
3, 103320, Note_on_c, 1, 45, 78
3, 103440, Note_on_c, 1, 45, 0
3, 103560, Note_on_c, 1, 38, 100
3, 103560, Note_on_c, 1, 50, 100
3, 103680, Note_on_c, 1, 50, 0
3, 103680, Note_on_c, 1, 38, 0
3, 103680, Note_on_c, 1, 50, 100
3, 103860, Note_on_c, 1, 50, 0
3, 103860, Note_on_c, 1, 49, 100
3, 103890, Note_on_c, 1, 49, 0
3, 103890, Note_on_c, 1, 50, 100
3, 103920, Note_on_c, 1, 50, 0
3, 103920, Note_on_c, 1, 52, 100
3, 103950, Note_on_c, 1, 52, 0
3, 103950, Note_on_c, 1, 50, 100
3, 103980, Note_on_c, 1, 50, 0
3, 103980, Note_on_c, 1, 49, 100
3, 104010, Note_on_c, 1, 49, 0
3, 104010, Note_on_c, 1, 47, 100
3, 104040, Note_on_c, 1, 47, 0
3, 104040, Note_on_c, 1, 45, 100
3, 104160, Note_on_c, 1, 45, 0
3, 104280, Note_on_c, 1, 33, 100
3, 104280, Note_on_c, 1, 45, 100
3, 104370, Note_on_c, 1, 45, 0
3, 104370, Note_on_c, 1, 33, 0
3, 104370, Note_on_c, 1, 33, 100
3, 104370, Note_on_c, 1, 45, 100
3, 104400, Note_on_c, 1, 45, 0
3, 104400, Note_on_c, 1, 33, 0
3, 104400, Note_on_c, 1, 43, 100
3, 104400, Note_on_c, 1, 55, 100
3, 104580, Note_on_c, 1, 55, 0
3, 104580, Note_on_c, 1, 43, 0
3, 104580, Note_on_c, 1, 54, 100
3, 104610, Note_on_c, 1, 54, 0
3, 104610, Note_on_c, 1, 55, 100
3, 104640, Note_on_c, 1, 55, 0
3, 104640, Note_on_c, 1, 57, 100
3, 104670, Note_on_c, 1, 57, 0
3, 104670, Note_on_c, 1, 55, 100
3, 104700, Note_on_c, 1, 55, 0
3, 104700, Note_on_c, 1, 54, 100
3, 104730, Note_on_c, 1, 54, 0
3, 104730, Note_on_c, 1, 52, 100
3, 104760, Note_on_c, 1, 52, 0
3, 104760, Note_on_c, 1, 50, 100
3, 104880, Note_on_c, 1, 50, 0
3, 105120, Note_on_c, 1, 38, 78
3, 105120, Note_on_c, 1, 50, 78
3, 105240, Note_on_c, 1, 50, 0
3, 105240, Note_on_c, 1, 38, 0
3, 105240, Note_on_c, 1, 62, 78
3, 105240, Note_on_c, 1, 50, 78
3, 105360, Note_on_c, 1, 50, 0
3, 105360, Note_on_c, 1, 62, 0
3, 105840, Note_on_c, 1, 45, 78
3, 105960, Note_on_c, 1, 45, 0
3, 105960, Note_on_c, 1, 49, 78
3, 106080, Note_on_c, 1, 49, 0
3, 106080, Note_on_c, 1, 50, 78
3, 106200, Note_on_c, 1, 50, 0
3, 106200, Note_on_c, 1, 45, 78
3, 106320, Note_on_c, 1, 45, 0
3, 106560, Note_on_c, 1, 45, 100
3, 106590, Note_on_c, 1, 45, 0
3, 106590, Note_on_c, 1, 49, 100
3, 106620, Note_on_c, 1, 49, 0
3, 106620, Note_on_c, 1, 52, 100
3, 106650, Note_on_c, 1, 52, 0
3, 106650, Note_on_c, 1, 57, 100
3, 106680, Note_on_c, 1, 57, 0
3, 106680, Note_on_c, 1, 45, 100
3, 106710, Note_on_c, 1, 45, 0
3, 106710, Note_on_c, 1, 49, 100
3, 106740, Note_on_c, 1, 49, 0
3, 106740, Note_on_c, 1, 52, 100
3, 106770, Note_on_c, 1, 52, 0
3, 106770, Note_on_c, 1, 57, 100
3, 106800, Note_on_c, 1, 57, 0
3, 106800, Note_on_c, 1, 45, 100
3, 106830, Note_on_c, 1, 45, 0
3, 106830, Note_on_c, 1, 49, 100
3, 106860, Note_on_c, 1, 49, 0
3, 106860, Note_on_c, 1, 52, 100
3, 106890, Note_on_c, 1, 52, 0
3, 106890, Note_on_c, 1, 57, 100
3, 106920, Note_on_c, 1, 57, 0
3, 106920, Note_on_c, 1, 45, 100
3, 106950, Note_on_c, 1, 45, 0
3, 106950, Note_on_c, 1, 50, 100
3, 106980, Note_on_c, 1, 50, 0
3, 106980, Note_on_c, 1, 53, 100
3, 107010, Note_on_c, 1, 53, 0
3, 107010, Note_on_c, 1, 56, 100
3, 107040, Note_on_c, 1, 56, 0
3, 107040, Note_on_c, 1, 45, 100
3, 107070, Note_on_c, 1, 45, 0
3, 107070, Note_on_c, 1, 50, 100
3, 107100, Note_on_c, 1, 50, 0
3, 107100, Note_on_c, 1, 53, 100
3, 107130, Note_on_c, 1, 53, 0
3, 107130, Note_on_c, 1, 56, 100
3, 107160, Note_on_c, 1, 56, 0
3, 107160, Note_on_c, 1, 45, 100
3, 107190, Note_on_c, 1, 45, 0
3, 107190, Note_on_c, 1, 50, 100
3, 107220, Note_on_c, 1, 50, 0
3, 107220, Note_on_c, 1, 53, 100
3, 107250, Note_on_c, 1, 53, 0
3, 107250, Note_on_c, 1, 56, 100
3, 107280, Note_on_c, 1, 56, 0
3, 107280, Note_on_c, 1, 45, 100
3, 107310, Note_on_c, 1, 45, 0
3, 107310, Note_on_c, 1, 52, 100
3, 107340, Note_on_c, 1, 52, 0
3, 107340, Note_on_c, 1, 55, 100
3, 107370, Note_on_c, 1, 55, 0
3, 107370, Note_on_c, 1, 57, 100
3, 107400, Note_on_c, 1, 57, 0
3, 107400, Note_on_c, 1, 45, 100
3, 107430, Note_on_c, 1, 45, 0
3, 107430, Note_on_c, 1, 52, 100
3, 107460, Note_on_c, 1, 52, 0
3, 107460, Note_on_c, 1, 55, 100
3, 107490, Note_on_c, 1, 55, 0
3, 107490, Note_on_c, 1, 57, 100
3, 107520, Note_on_c, 1, 57, 0
3, 107520, Note_on_c, 1, 45, 100
3, 107550, Note_on_c, 1, 45, 0
3, 107550, Note_on_c, 1, 52, 100
3, 107580, Note_on_c, 1, 52, 0
3, 107580, Note_on_c, 1, 55, 100
3, 107610, Note_on_c, 1, 55, 0
3, 107610, Note_on_c, 1, 57, 100
3, 107640, Note_on_c, 1, 57, 0
3, 107640, Note_on_c, 1, 45, 100
3, 107670, Note_on_c, 1, 45, 0
3, 107670, Note_on_c, 1, 52, 100
3, 107700, Note_on_c, 1, 52, 0
3, 107700, Note_on_c, 1, 55, 100
3, 107730, Note_on_c, 1, 55, 0
3, 107730, Note_on_c, 1, 57, 100
3, 107760, Note_on_c, 1, 57, 0
3, 107760, Note_on_c, 1, 45, 100
3, 107790, Note_on_c, 1, 45, 0
3, 107790, Note_on_c, 1, 52, 100
3, 107820, Note_on_c, 1, 52, 0
3, 107820, Note_on_c, 1, 55, 100
3, 107850, Note_on_c, 1, 55, 0
3, 107850, Note_on_c, 1, 57, 100
3, 107880, Note_on_c, 1, 57, 0
3, 107880, Note_on_c, 1, 43, 100
3, 107910, Note_on_c, 1, 43, 0
3, 107910, Note_on_c, 1, 49, 100
3, 107940, Note_on_c, 1, 49, 0
3, 107940, Note_on_c, 1, 52, 100
3, 107970, Note_on_c, 1, 52, 0
3, 107970, Note_on_c, 1, 55, 100
3, 108000, Note_on_c, 1, 55, 0
3, 108000, Note_on_c, 1, 42, 100
3, 108000, Note_on_c, 1, 45, 100
3, 108000, Note_on_c, 1, 50, 100
3, 108120, Note_on_c, 1, 50, 0
3, 108120, Note_on_c, 1, 45, 0
3, 108120, Note_on_c, 1, 42, 0
3, 108120, Note_on_c, 1, 62, 100
3, 108120, Note_on_c, 1, 57, 100
3, 108120, Note_on_c, 1, 54, 100
3, 108240, Note_on_c, 1, 54, 0
3, 108240, Note_on_c, 1, 57, 0
3, 108240, Note_on_c, 1, 62, 0
3, 108840, Note_on_c, 1, 57, 100
3, 108960, Note_on_c, 1, 57, 0
3, 108960, Note_on_c, 1, 45, 100
3, 109080, Note_on_c, 1, 45, 0
3, 109080, Note_on_c, 1, 50, 100
3, 109200, Note_on_c, 1, 50, 0
3, 109440, Note_on_c, 1, 45, 100
3, 109470, Note_on_c, 1, 45, 0
3, 109470, Note_on_c, 1, 49, 100
3, 109500, Note_on_c, 1, 49, 0
3, 109500, Note_on_c, 1, 52, 100
3, 109530, Note_on_c, 1, 52, 0
3, 109530, Note_on_c, 1, 57, 100
3, 109560, Note_on_c, 1, 57, 0
3, 109560, Note_on_c, 1, 45, 100
3, 109590, Note_on_c, 1, 45, 0
3, 109590, Note_on_c, 1, 49, 100
3, 109620, Note_on_c, 1, 49, 0
3, 109620, Note_on_c, 1, 52, 100
3, 109650, Note_on_c, 1, 52, 0
3, 109650, Note_on_c, 1, 57, 100
3, 109680, Note_on_c, 1, 57, 0
3, 109680, Note_on_c, 1, 45, 100
3, 109710, Note_on_c, 1, 45, 0
3, 109710, Note_on_c, 1, 49, 100
3, 109740, Note_on_c, 1, 49, 0
3, 109740, Note_on_c, 1, 52, 100
3, 109770, Note_on_c, 1, 52, 0
3, 109770, Note_on_c, 1, 57, 100
3, 109800, Note_on_c, 1, 57, 0
3, 109800, Note_on_c, 1, 45, 100
3, 109830, Note_on_c, 1, 45, 0
3, 109830, Note_on_c, 1, 50, 100
3, 109860, Note_on_c, 1, 50, 0
3, 109860, Note_on_c, 1, 53, 100
3, 109890, Note_on_c, 1, 53, 0
3, 109890, Note_on_c, 1, 56, 100
3, 109920, Note_on_c, 1, 56, 0
3, 109920, Note_on_c, 1, 45, 100
3, 109950, Note_on_c, 1, 45, 0
3, 109950, Note_on_c, 1, 50, 100
3, 109980, Note_on_c, 1, 50, 0
3, 109980, Note_on_c, 1, 53, 100
3, 110010, Note_on_c, 1, 53, 0
3, 110010, Note_on_c, 1, 56, 100
3, 110040, Note_on_c, 1, 56, 0
3, 110040, Note_on_c, 1, 45, 100
3, 110070, Note_on_c, 1, 45, 0
3, 110070, Note_on_c, 1, 50, 100
3, 110100, Note_on_c, 1, 50, 0
3, 110100, Note_on_c, 1, 53, 100
3, 110130, Note_on_c, 1, 53, 0
3, 110130, Note_on_c, 1, 56, 100
3, 110160, Note_on_c, 1, 56, 0
3, 110160, Note_on_c, 1, 45, 100
3, 110190, Note_on_c, 1, 45, 0
3, 110190, Note_on_c, 1, 52, 100
3, 110220, Note_on_c, 1, 52, 0
3, 110220, Note_on_c, 1, 55, 100
3, 110250, Note_on_c, 1, 55, 0
3, 110250, Note_on_c, 1, 57, 100
3, 110280, Note_on_c, 1, 57, 0
3, 110280, Note_on_c, 1, 45, 100
3, 110310, Note_on_c, 1, 45, 0
3, 110310, Note_on_c, 1, 52, 100
3, 110340, Note_on_c, 1, 52, 0
3, 110340, Note_on_c, 1, 55, 100
3, 110370, Note_on_c, 1, 55, 0
3, 110370, Note_on_c, 1, 57, 100
3, 110400, Note_on_c, 1, 57, 0
3, 110400, Note_on_c, 1, 45, 100
3, 110430, Note_on_c, 1, 45, 0
3, 110430, Note_on_c, 1, 52, 100
3, 110460, Note_on_c, 1, 52, 0
3, 110460, Note_on_c, 1, 55, 100
3, 110490, Note_on_c, 1, 55, 0
3, 110490, Note_on_c, 1, 57, 100
3, 110520, Note_on_c, 1, 57, 0
3, 110520, Note_on_c, 1, 45, 100
3, 110550, Note_on_c, 1, 45, 0
3, 110550, Note_on_c, 1, 52, 100
3, 110580, Note_on_c, 1, 52, 0
3, 110580, Note_on_c, 1, 55, 100
3, 110610, Note_on_c, 1, 55, 0
3, 110610, Note_on_c, 1, 57, 100
3, 110640, Note_on_c, 1, 57, 0
3, 110640, Note_on_c, 1, 45, 100
3, 110670, Note_on_c, 1, 45, 0
3, 110670, Note_on_c, 1, 52, 100
3, 110700, Note_on_c, 1, 52, 0
3, 110700, Note_on_c, 1, 55, 100
3, 110730, Note_on_c, 1, 55, 0
3, 110730, Note_on_c, 1, 57, 100
3, 110760, Note_on_c, 1, 57, 0
3, 110760, Note_on_c, 1, 43, 100
3, 110790, Note_on_c, 1, 43, 0
3, 110790, Note_on_c, 1, 49, 100
3, 110820, Note_on_c, 1, 49, 0
3, 110820, Note_on_c, 1, 52, 100
3, 110850, Note_on_c, 1, 52, 0
3, 110850, Note_on_c, 1, 55, 100
3, 110880, Note_on_c, 1, 55, 0
3, 110880, Note_on_c, 1, 42, 100
3, 110880, Note_on_c, 1, 45, 100
3, 110880, Note_on_c, 1, 50, 100
3, 111000, Note_on_c, 1, 50, 0
3, 111000, Note_on_c, 1, 45, 0
3, 111000, Note_on_c, 1, 42, 0
3, 111000, Note_on_c, 1, 62, 100
3, 111000, Note_on_c, 1, 57, 100
3, 111000, Note_on_c, 1, 54, 100
3, 111120, Note_on_c, 1, 54, 0
3, 111120, Note_on_c, 1, 57, 0
3, 111120, Note_on_c, 1, 62, 0
3, 111720, Note_on_c, 1, 57, 100
3, 111840, Note_on_c, 1, 57, 0
3, 111840, Note_on_c, 1, 45, 100
3, 111960, Note_on_c, 1, 45, 0
3, 111960, Note_on_c, 1, 50, 100
3, 112080, Note_on_c, 1, 50, 0
3, 113520, Note_on_c, 1, 45, 100
3, 113580, Note_on_c, 1, 45, 0
3, 113640, Note_on_c, 1, 57, 100
3, 113730, Note_on_c, 1, 57, 0
3, 113730, Note_on_c, 1, 61, 100
3, 113760, Note_on_c, 1, 61, 0
3, 113760, Note_on_c, 1, 64, 100
3, 113760, Note_on_c, 1, 61, 100
3, 113820, Note_on_c, 1, 61, 0
3, 113820, Note_on_c, 1, 64, 0
3, 113880, Note_on_c, 1, 62, 100
3, 113880, Note_on_c, 1, 59, 100
3, 113940, Note_on_c, 1, 59, 0
3, 113940, Note_on_c, 1, 62, 0
3, 114000, Note_on_c, 1, 61, 100
3, 114000, Note_on_c, 1, 57, 100
3, 114060, Note_on_c, 1, 57, 0
3, 114060, Note_on_c, 1, 61, 0
3, 114120, Note_on_c, 1, 52, 100
3, 114120, Note_on_c, 1, 59, 100
3, 114180, Note_on_c, 1, 59, 0
3, 114180, Note_on_c, 1, 52, 0
3, 114240, Note_on_c, 1, 49, 100
3, 114240, Note_on_c, 1, 57, 100
3, 114300, Note_on_c, 1, 57, 0
3, 114300, Note_on_c, 1, 49, 0
3, 114360, Note_on_c, 1, 52, 100
3, 114360, Note_on_c, 1, 59, 100
3, 114420, Note_on_c, 1, 59, 0
3, 114420, Note_on_c, 1, 52, 0
3, 114480, Note_on_c, 1, 61, 100
3, 114480, Note_on_c, 1, 57, 100
3, 114540, Note_on_c, 1, 57, 0
3, 114540, Note_on_c, 1, 61, 0
3, 114600, Note_on_c, 1, 62, 100
3, 114600, Note_on_c, 1, 59, 100
3, 114660, Note_on_c, 1, 59, 0
3, 114660, Note_on_c, 1, 62, 0
3, 114720, Note_on_c, 1, 52, 100
3, 114720, Note_on_c, 1, 59, 100
3, 114780, Note_on_c, 1, 59, 0
3, 114780, Note_on_c, 1, 52, 0
3, 114840, Note_on_c, 1, 57, 100
3, 114960, Note_on_c, 1, 57, 0
3, 114960, Note_on_c, 1, 45, 100
3, 115080, Note_on_c, 1, 45, 0
3, 116400, Note_on_c, 1, 45, 100
3, 116460, Note_on_c, 1, 45, 0
3, 116520, Note_on_c, 1, 57, 100
3, 116610, Note_on_c, 1, 57, 0
3, 116610, Note_on_c, 1, 61, 100
3, 116640, Note_on_c, 1, 61, 0
3, 116640, Note_on_c, 1, 64, 100
3, 116640, Note_on_c, 1, 61, 100
3, 116700, Note_on_c, 1, 61, 0
3, 116700, Note_on_c, 1, 64, 0
3, 116760, Note_on_c, 1, 62, 100
3, 116760, Note_on_c, 1, 59, 100
3, 116820, Note_on_c, 1, 59, 0
3, 116820, Note_on_c, 1, 62, 0
3, 116880, Note_on_c, 1, 61, 100
3, 116880, Note_on_c, 1, 57, 100
3, 116940, Note_on_c, 1, 57, 0
3, 116940, Note_on_c, 1, 61, 0
3, 117000, Note_on_c, 1, 52, 100
3, 117000, Note_on_c, 1, 59, 100
3, 117060, Note_on_c, 1, 59, 0
3, 117060, Note_on_c, 1, 52, 0
3, 117120, Note_on_c, 1, 49, 100
3, 117120, Note_on_c, 1, 57, 100
3, 117180, Note_on_c, 1, 57, 0
3, 117180, Note_on_c, 1, 49, 0
3, 117240, Note_on_c, 1, 52, 100
3, 117240, Note_on_c, 1, 59, 100
3, 117300, Note_on_c, 1, 59, 0
3, 117300, Note_on_c, 1, 52, 0
3, 117360, Note_on_c, 1, 61, 100
3, 117360, Note_on_c, 1, 57, 100
3, 117420, Note_on_c, 1, 57, 0
3, 117420, Note_on_c, 1, 61, 0
3, 117480, Note_on_c, 1, 62, 100
3, 117480, Note_on_c, 1, 59, 100
3, 117540, Note_on_c, 1, 59, 0
3, 117540, Note_on_c, 1, 62, 0
3, 117600, Note_on_c, 1, 52, 100
3, 117600, Note_on_c, 1, 59, 100
3, 117660, Note_on_c, 1, 59, 0
3, 117660, Note_on_c, 1, 52, 0
3, 117720, Note_on_c, 1, 57, 100
3, 117840, Note_on_c, 1, 57, 0
3, 117840, Note_on_c, 1, 45, 100
3, 117960, Note_on_c, 1, 45, 0
3, 119400, Note_on_c, 1, 50, 100
3, 119490, Note_on_c, 1, 50, 0
3, 119490, Note_on_c, 1, 54, 100
3, 119520, Note_on_c, 1, 54, 0
3, 119520, Note_on_c, 1, 54, 100
3, 119520, Note_on_c, 1, 57, 100
3, 119580, Note_on_c, 1, 57, 0
3, 119580, Note_on_c, 1, 54, 0
3, 119640, Note_on_c, 1, 52, 100
3, 119640, Note_on_c, 1, 55, 100
3, 119700, Note_on_c, 1, 55, 0
3, 119700, Note_on_c, 1, 52, 0
3, 119760, Note_on_c, 1, 54, 100
3, 119760, Note_on_c, 1, 50, 100
3, 119820, Note_on_c, 1, 50, 0
3, 119820, Note_on_c, 1, 54, 0
3, 119880, Note_on_c, 1, 52, 100
3, 119880, Note_on_c, 1, 45, 100
3, 119940, Note_on_c, 1, 45, 0
3, 119940, Note_on_c, 1, 52, 0
3, 120000, Note_on_c, 1, 42, 100
3, 120000, Note_on_c, 1, 50, 100
3, 120060, Note_on_c, 1, 50, 0
3, 120060, Note_on_c, 1, 42, 0
3, 120120, Note_on_c, 1, 52, 100
3, 120120, Note_on_c, 1, 45, 100
3, 120180, Note_on_c, 1, 45, 0
3, 120180, Note_on_c, 1, 52, 0
3, 120240, Note_on_c, 1, 54, 100
3, 120240, Note_on_c, 1, 50, 100
3, 120300, Note_on_c, 1, 50, 0
3, 120300, Note_on_c, 1, 54, 0
3, 120360, Note_on_c, 1, 52, 100
3, 120360, Note_on_c, 1, 55, 100
3, 120420, Note_on_c, 1, 55, 0
3, 120420, Note_on_c, 1, 52, 0
3, 120480, Note_on_c, 1, 52, 100
3, 120480, Note_on_c, 1, 45, 100
3, 120540, Note_on_c, 1, 45, 0
3, 120540, Note_on_c, 1, 52, 0
3, 120600, Note_on_c, 1, 50, 100
3, 120660, Note_on_c, 1, 50, 0
3, 120720, Note_on_c, 1, 38, 100
3, 120780, Note_on_c, 1, 38, 0
3, 122280, Note_on_c, 1, 50, 100
3, 122370, Note_on_c, 1, 50, 0
3, 122370, Note_on_c, 1, 54, 100
3, 122400, Note_on_c, 1, 54, 0
3, 122400, Note_on_c, 1, 54, 100
3, 122400, Note_on_c, 1, 57, 100
3, 122460, Note_on_c, 1, 57, 0
3, 122460, Note_on_c, 1, 54, 0
3, 122520, Note_on_c, 1, 52, 100
3, 122520, Note_on_c, 1, 55, 100
3, 122580, Note_on_c, 1, 55, 0
3, 122580, Note_on_c, 1, 52, 0
3, 122640, Note_on_c, 1, 54, 100
3, 122640, Note_on_c, 1, 50, 100
3, 122700, Note_on_c, 1, 50, 0
3, 122700, Note_on_c, 1, 54, 0
3, 122760, Note_on_c, 1, 52, 100
3, 122760, Note_on_c, 1, 45, 100
3, 122820, Note_on_c, 1, 45, 0
3, 122820, Note_on_c, 1, 52, 0
3, 122880, Note_on_c, 1, 42, 100
3, 122880, Note_on_c, 1, 50, 100
3, 122940, Note_on_c, 1, 50, 0
3, 122940, Note_on_c, 1, 42, 0
3, 123000, Note_on_c, 1, 52, 100
3, 123000, Note_on_c, 1, 45, 100
3, 123060, Note_on_c, 1, 45, 0
3, 123060, Note_on_c, 1, 52, 0
3, 123120, Note_on_c, 1, 54, 100
3, 123120, Note_on_c, 1, 50, 100
3, 123180, Note_on_c, 1, 50, 0
3, 123180, Note_on_c, 1, 54, 0
3, 123240, Note_on_c, 1, 52, 100
3, 123240, Note_on_c, 1, 55, 100
3, 123300, Note_on_c, 1, 55, 0
3, 123300, Note_on_c, 1, 52, 0
3, 123360, Note_on_c, 1, 52, 100
3, 123360, Note_on_c, 1, 45, 100
3, 123420, Note_on_c, 1, 45, 0
3, 123420, Note_on_c, 1, 52, 0
3, 123480, Note_on_c, 1, 50, 100
3, 123540, Note_on_c, 1, 50, 0
3, 123600, Note_on_c, 1, 38, 100
3, 123660, Note_on_c, 1, 38, 0
3, 124560, Note_on_c, 1, 48, 100
3, 124560, Note_on_c, 1, 60, 100
3, 124680, Note_on_c, 1, 60, 0
3, 124680, Note_on_c, 1, 48, 0
3, 126000, Note_on_c, 1, 48, 100
3, 126000, Note_on_c, 1, 60, 100
3, 126120, Note_on_c, 1, 60, 0
3, 126120, Note_on_c, 1, 48, 0
3, 127080, Note_on_c, 1, 55, 100
3, 127200, Note_on_c, 1, 55, 0
3, 127200, Note_on_c, 1, 43, 100
3, 127320, Note_on_c, 1, 43, 0
3, 127440, Note_on_c, 1, 48, 100
3, 127440, Note_on_c, 1, 60, 100
3, 127560, Note_on_c, 1, 60, 0
3, 127560, Note_on_c, 1, 48, 0
3, 128880, Note_on_c, 1, 48, 100
3, 128880, Note_on_c, 1, 60, 100
3, 129000, Note_on_c, 1, 60, 0
3, 129000, Note_on_c, 1, 48, 0
3, 129960, Note_on_c, 1, 55, 100
3, 130080, Note_on_c, 1, 55, 0
3, 130080, Note_on_c, 1, 43, 100
3, 130200, Note_on_c, 1, 43, 0
3, 130320, Note_on_c, 1, 62, 100
3, 130320, Note_on_c, 1, 59, 100
3, 130380, Note_on_c, 1, 59, 0
3, 130380, Note_on_c, 1, 62, 0
3, 130380, Note_on_c, 1, 55, 100
3, 130440, Note_on_c, 1, 55, 0
3, 130440, Note_on_c, 1, 62, 100
3, 130440, Note_on_c, 1, 59, 100
3, 130500, Note_on_c, 1, 59, 0
3, 130500, Note_on_c, 1, 62, 0
3, 130500, Note_on_c, 1, 55, 100
3, 130560, Note_on_c, 1, 55, 0
3, 130560, Note_on_c, 1, 64, 100
3, 130560, Note_on_c, 1, 60, 100
3, 130620, Note_on_c, 1, 60, 0
3, 130620, Note_on_c, 1, 64, 0
3, 130620, Note_on_c, 1, 55, 100
3, 130680, Note_on_c, 1, 55, 0
3, 130680, Note_on_c, 1, 62, 100
3, 130680, Note_on_c, 1, 59, 100
3, 130740, Note_on_c, 1, 59, 0
3, 130740, Note_on_c, 1, 62, 0
3, 130740, Note_on_c, 1, 55, 100
3, 130800, Note_on_c, 1, 55, 0
3, 130800, Note_on_c, 1, 62, 100
3, 130800, Note_on_c, 1, 59, 100
3, 130860, Note_on_c, 1, 59, 0
3, 130860, Note_on_c, 1, 62, 0
3, 130860, Note_on_c, 1, 55, 100
3, 130920, Note_on_c, 1, 55, 0
3, 130920, Note_on_c, 1, 64, 100
3, 130920, Note_on_c, 1, 60, 100
3, 130980, Note_on_c, 1, 60, 0
3, 130980, Note_on_c, 1, 64, 0
3, 130980, Note_on_c, 1, 55, 100
3, 131040, Note_on_c, 1, 55, 0
3, 131040, Note_on_c, 1, 62, 100
3, 131040, Note_on_c, 1, 59, 100
3, 131100, Note_on_c, 1, 59, 0
3, 131100, Note_on_c, 1, 62, 0
3, 131100, Note_on_c, 1, 55, 100
3, 131160, Note_on_c, 1, 55, 0
3, 131160, Note_on_c, 1, 62, 100
3, 131160, Note_on_c, 1, 59, 100
3, 131220, Note_on_c, 1, 59, 0
3, 131220, Note_on_c, 1, 62, 0
3, 131220, Note_on_c, 1, 55, 100
3, 131280, Note_on_c, 1, 55, 0
3, 131280, Note_on_c, 1, 64, 100
3, 131280, Note_on_c, 1, 60, 100
3, 131340, Note_on_c, 1, 60, 0
3, 131340, Note_on_c, 1, 64, 0
3, 131340, Note_on_c, 1, 55, 100
3, 131400, Note_on_c, 1, 55, 0
3, 131400, Note_on_c, 1, 65, 100
3, 131400, Note_on_c, 1, 62, 100
3, 131460, Note_on_c, 1, 62, 0
3, 131460, Note_on_c, 1, 65, 0
3, 131460, Note_on_c, 1, 64, 100
3, 131460, Note_on_c, 1, 61, 100
3, 131520, Note_on_c, 1, 61, 0
3, 131520, Note_on_c, 1, 64, 0
3, 131520, Note_on_c, 1, 65, 100
3, 131520, Note_on_c, 1, 62, 100
3, 131580, Note_on_c, 1, 62, 0
3, 131580, Note_on_c, 1, 65, 0
3, 131580, Note_on_c, 1, 64, 100
3, 131580, Note_on_c, 1, 61, 100
3, 131640, Note_on_c, 1, 61, 0
3, 131640, Note_on_c, 1, 64, 0
3, 131640, Note_on_c, 1, 65, 100
3, 131640, Note_on_c, 1, 62, 100
3, 131700, Note_on_c, 1, 62, 0
3, 131700, Note_on_c, 1, 65, 0
3, 131700, Note_on_c, 1, 59, 100
3, 131700, Note_on_c, 1, 62, 100
3, 131760, Note_on_c, 1, 62, 0
3, 131760, Note_on_c, 1, 59, 0
3, 131760, Note_on_c, 1, 60, 100
3, 131760, Note_on_c, 1, 48, 100
3, 131880, Note_on_c, 1, 48, 0
3, 131880, Note_on_c, 1, 60, 0
3, 131880, Note_on_c, 1, 60, 100
3, 131880, Note_on_c, 1, 48, 100
3, 132000, Note_on_c, 1, 48, 0
3, 132000, Note_on_c, 1, 60, 0
3, 132000, Note_on_c, 1, 60, 100
3, 132000, Note_on_c, 1, 48, 100
3, 132120, Note_on_c, 1, 48, 0
3, 132120, Note_on_c, 1, 60, 0
3, 132120, Note_on_c, 1, 48, 100
3, 132120, Note_on_c, 1, 60, 100
3, 132240, Note_on_c, 1, 60, 0
3, 132240, Note_on_c, 1, 48, 0
3, 132240, Note_on_c, 1, 44, 100
3, 132240, Note_on_c, 1, 56, 100
3, 132360, Note_on_c, 1, 56, 0
3, 132360, Note_on_c, 1, 44, 0
3, 132360, Note_on_c, 1, 57, 100
3, 132360, Note_on_c, 1, 45, 100
3, 132480, Note_on_c, 1, 45, 0
3, 132480, Note_on_c, 1, 57, 0
3, 132480, Note_on_c, 1, 41, 100
3, 132480, Note_on_c, 1, 53, 100
3, 132600, Note_on_c, 1, 53, 0
3, 132600, Note_on_c, 1, 41, 0
3, 132600, Note_on_c, 1, 50, 100
3, 132600, Note_on_c, 1, 38, 100
3, 132720, Note_on_c, 1, 38, 0
3, 132720, Note_on_c, 1, 50, 0
3, 132720, Note_on_c, 1, 55, 100
3, 132720, Note_on_c, 1, 43, 100
3, 132840, Note_on_c, 1, 43, 0
3, 132840, Note_on_c, 1, 55, 0
3, 132840, Note_on_c, 1, 36, 100
3, 132840, Note_on_c, 1, 48, 100
3, 132960, Note_on_c, 1, 48, 0
3, 132960, Note_on_c, 1, 36, 0
3, 132960, Note_on_c, 1, 60, 100
3, 132960, Note_on_c, 1, 48, 100
3, 133080, Note_on_c, 1, 48, 0
3, 133080, Note_on_c, 1, 60, 0
3, 133200, Note_on_c, 1, 62, 100
3, 133200, Note_on_c, 1, 59, 100
3, 133260, Note_on_c, 1, 59, 0
3, 133260, Note_on_c, 1, 62, 0
3, 133260, Note_on_c, 1, 55, 100
3, 133320, Note_on_c, 1, 55, 0
3, 133320, Note_on_c, 1, 62, 100
3, 133320, Note_on_c, 1, 59, 100
3, 133380, Note_on_c, 1, 59, 0
3, 133380, Note_on_c, 1, 62, 0
3, 133380, Note_on_c, 1, 55, 100
3, 133440, Note_on_c, 1, 55, 0
3, 133440, Note_on_c, 1, 64, 100
3, 133440, Note_on_c, 1, 60, 100
3, 133500, Note_on_c, 1, 60, 0
3, 133500, Note_on_c, 1, 64, 0
3, 133500, Note_on_c, 1, 55, 100
3, 133560, Note_on_c, 1, 55, 0
3, 133560, Note_on_c, 1, 62, 100
3, 133560, Note_on_c, 1, 59, 100
3, 133620, Note_on_c, 1, 59, 0
3, 133620, Note_on_c, 1, 62, 0
3, 133620, Note_on_c, 1, 55, 100
3, 133680, Note_on_c, 1, 55, 0
3, 133680, Note_on_c, 1, 62, 100
3, 133680, Note_on_c, 1, 59, 100
3, 133740, Note_on_c, 1, 59, 0
3, 133740, Note_on_c, 1, 62, 0
3, 133740, Note_on_c, 1, 55, 100
3, 133800, Note_on_c, 1, 55, 0
3, 133800, Note_on_c, 1, 64, 100
3, 133800, Note_on_c, 1, 60, 100
3, 133860, Note_on_c, 1, 60, 0
3, 133860, Note_on_c, 1, 64, 0
3, 133860, Note_on_c, 1, 55, 100
3, 133920, Note_on_c, 1, 55, 0
3, 133920, Note_on_c, 1, 62, 100
3, 133920, Note_on_c, 1, 59, 100
3, 133980, Note_on_c, 1, 59, 0
3, 133980, Note_on_c, 1, 62, 0
3, 133980, Note_on_c, 1, 55, 100
3, 134040, Note_on_c, 1, 55, 0
3, 134040, Note_on_c, 1, 62, 100
3, 134040, Note_on_c, 1, 59, 100
3, 134100, Note_on_c, 1, 59, 0
3, 134100, Note_on_c, 1, 62, 0
3, 134100, Note_on_c, 1, 55, 100
3, 134160, Note_on_c, 1, 55, 0
3, 134160, Note_on_c, 1, 64, 100
3, 134160, Note_on_c, 1, 60, 100
3, 134220, Note_on_c, 1, 60, 0
3, 134220, Note_on_c, 1, 64, 0
3, 134220, Note_on_c, 1, 55, 100
3, 134280, Note_on_c, 1, 55, 0
3, 134280, Note_on_c, 1, 65, 100
3, 134280, Note_on_c, 1, 62, 100
3, 134340, Note_on_c, 1, 62, 0
3, 134340, Note_on_c, 1, 65, 0
3, 134340, Note_on_c, 1, 64, 100
3, 134340, Note_on_c, 1, 61, 100
3, 134400, Note_on_c, 1, 61, 0
3, 134400, Note_on_c, 1, 64, 0
3, 134400, Note_on_c, 1, 65, 100
3, 134400, Note_on_c, 1, 62, 100
3, 134460, Note_on_c, 1, 62, 0
3, 134460, Note_on_c, 1, 65, 0
3, 134460, Note_on_c, 1, 64, 100
3, 134460, Note_on_c, 1, 61, 100
3, 134520, Note_on_c, 1, 61, 0
3, 134520, Note_on_c, 1, 64, 0
3, 134520, Note_on_c, 1, 65, 100
3, 134520, Note_on_c, 1, 62, 100
3, 134580, Note_on_c, 1, 62, 0
3, 134580, Note_on_c, 1, 65, 0
3, 134580, Note_on_c, 1, 59, 100
3, 134580, Note_on_c, 1, 62, 100
3, 134640, Note_on_c, 1, 62, 0
3, 134640, Note_on_c, 1, 59, 0
3, 134640, Note_on_c, 1, 60, 100
3, 134640, Note_on_c, 1, 48, 100
3, 134760, Note_on_c, 1, 48, 0
3, 134760, Note_on_c, 1, 60, 0
3, 134760, Note_on_c, 1, 60, 100
3, 134760, Note_on_c, 1, 48, 100
3, 134880, Note_on_c, 1, 48, 0
3, 134880, Note_on_c, 1, 60, 0
3, 134880, Note_on_c, 1, 60, 100
3, 134880, Note_on_c, 1, 48, 100
3, 135000, Note_on_c, 1, 48, 0
3, 135000, Note_on_c, 1, 60, 0
3, 135000, Note_on_c, 1, 48, 100
3, 135000, Note_on_c, 1, 60, 100
3, 135120, Note_on_c, 1, 60, 0
3, 135120, Note_on_c, 1, 48, 0
3, 135120, Note_on_c, 1, 44, 100
3, 135120, Note_on_c, 1, 56, 100
3, 135240, Note_on_c, 1, 56, 0
3, 135240, Note_on_c, 1, 44, 0
3, 135240, Note_on_c, 1, 57, 100
3, 135240, Note_on_c, 1, 45, 100
3, 135360, Note_on_c, 1, 45, 0
3, 135360, Note_on_c, 1, 57, 0
3, 135360, Note_on_c, 1, 41, 100
3, 135360, Note_on_c, 1, 53, 100
3, 135480, Note_on_c, 1, 53, 0
3, 135480, Note_on_c, 1, 41, 0
3, 135480, Note_on_c, 1, 50, 100
3, 135480, Note_on_c, 1, 38, 100
3, 135600, Note_on_c, 1, 38, 0
3, 135600, Note_on_c, 1, 50, 0
3, 135600, Note_on_c, 1, 55, 100
3, 135600, Note_on_c, 1, 43, 100
3, 135720, Note_on_c, 1, 43, 0
3, 135720, Note_on_c, 1, 55, 0
3, 135720, Note_on_c, 1, 36, 100
3, 135720, Note_on_c, 1, 48, 100
3, 135840, Note_on_c, 1, 48, 0
3, 135840, Note_on_c, 1, 36, 0
3, 135840, Note_on_c, 1, 60, 100
3, 135840, Note_on_c, 1, 48, 100
3, 135960, Note_on_c, 1, 48, 0
3, 135960, Note_on_c, 1, 60, 0
3, 135960, Note_on_c, 1, 43, 100
3, 136050, Note_on_c, 1, 43, 0
3, 136050, Note_on_c, 1, 43, 100
3, 136080, Note_on_c, 1, 43, 0
3, 136080, Note_on_c, 1, 48, 100
3, 136200, Note_on_c, 1, 48, 0
3, 136200, Note_on_c, 1, 60, 100
3, 136200, Note_on_c, 1, 52, 100
3, 136320, Note_on_c, 1, 52, 0
3, 136320, Note_on_c, 1, 60, 0
3, 136320, Note_on_c, 1, 52, 100
3, 136320, Note_on_c, 1, 60, 100
3, 136410, Note_on_c, 1, 60, 0
3, 136410, Note_on_c, 1, 52, 0
3, 136410, Note_on_c, 1, 60, 100
3, 136410, Note_on_c, 1, 52, 100
3, 136440, Note_on_c, 1, 52, 0
3, 136440, Note_on_c, 1, 60, 0
3, 136440, Note_on_c, 1, 55, 100
3, 136440, Note_on_c, 1, 62, 100
3, 136560, Note_on_c, 1, 62, 0
3, 136560, Note_on_c, 1, 55, 0
3, 136560, Note_on_c, 1, 52, 100
3, 136560, Note_on_c, 1, 60, 100
3, 136620, Note_on_c, 1, 60, 0
3, 136620, Note_on_c, 1, 52, 0
3, 136680, Note_on_c, 1, 43, 100
3, 136770, Note_on_c, 1, 43, 0
3, 136770, Note_on_c, 1, 43, 100
3, 136800, Note_on_c, 1, 43, 0
3, 136800, Note_on_c, 1, 48, 100
3, 136920, Note_on_c, 1, 48, 0
3, 136920, Note_on_c, 1, 64, 100
3, 136920, Note_on_c, 1, 60, 100
3, 137040, Note_on_c, 1, 60, 0
3, 137040, Note_on_c, 1, 64, 0
3, 137040, Note_on_c, 1, 64, 100
3, 137040, Note_on_c, 1, 60, 100
3, 137130, Note_on_c, 1, 60, 0
3, 137130, Note_on_c, 1, 64, 0
3, 137130, Note_on_c, 1, 60, 100
3, 137130, Note_on_c, 1, 64, 100
3, 137160, Note_on_c, 1, 64, 0
3, 137160, Note_on_c, 1, 60, 0
3, 137160, Note_on_c, 1, 55, 100
3, 137160, Note_on_c, 1, 62, 100
3, 137280, Note_on_c, 1, 62, 0
3, 137280, Note_on_c, 1, 55, 0
3, 137280, Note_on_c, 1, 64, 100
3, 137280, Note_on_c, 1, 60, 100
3, 137340, Note_on_c, 1, 60, 0
3, 137340, Note_on_c, 1, 64, 0
3, 138120, Note_on_c, 1, 49, 100
3, 138120, Note_on_c, 1, 61, 100
3, 138210, Note_on_c, 1, 61, 0
3, 138210, Note_on_c, 1, 49, 0
3, 138210, Note_on_c, 1, 61, 100
3, 138210, Note_on_c, 1, 49, 100
3, 138240, Note_on_c, 1, 49, 0
3, 138240, Note_on_c, 1, 61, 0
3, 138240, Note_on_c, 1, 50, 100
3, 138240, Note_on_c, 1, 62, 100
3, 138360, Note_on_c, 1, 62, 0
3, 138360, Note_on_c, 1, 50, 0
3, 138480, Note_on_c, 1, 50, 100
3, 138480, Note_on_c, 1, 62, 100
3, 138570, Note_on_c, 1, 62, 0
3, 138570, Note_on_c, 1, 50, 0
3, 138570, Note_on_c, 1, 50, 100
3, 138570, Note_on_c, 1, 62, 100
3, 138600, Note_on_c, 1, 62, 0
3, 138600, Note_on_c, 1, 50, 0
3, 138600, Note_on_c, 1, 43, 100
3, 138600, Note_on_c, 1, 55, 100
3, 138720, Note_on_c, 1, 55, 0
3, 138720, Note_on_c, 1, 43, 0
3, 138840, Note_on_c, 1, 43, 100
3, 138930, Note_on_c, 1, 43, 0
3, 138930, Note_on_c, 1, 43, 100
3, 138960, Note_on_c, 1, 43, 0
3, 138960, Note_on_c, 1, 48, 100
3, 139080, Note_on_c, 1, 48, 0
3, 139080, Note_on_c, 1, 60, 100
3, 139080, Note_on_c, 1, 52, 100
3, 139200, Note_on_c, 1, 52, 0
3, 139200, Note_on_c, 1, 60, 0
3, 139200, Note_on_c, 1, 52, 100
3, 139200, Note_on_c, 1, 60, 100
3, 139290, Note_on_c, 1, 60, 0
3, 139290, Note_on_c, 1, 52, 0
3, 139290, Note_on_c, 1, 60, 100
3, 139290, Note_on_c, 1, 52, 100
3, 139320, Note_on_c, 1, 52, 0
3, 139320, Note_on_c, 1, 60, 0
3, 139320, Note_on_c, 1, 55, 100
3, 139320, Note_on_c, 1, 62, 100
3, 139440, Note_on_c, 1, 62, 0
3, 139440, Note_on_c, 1, 55, 0
3, 139440, Note_on_c, 1, 52, 100
3, 139440, Note_on_c, 1, 60, 100
3, 139500, Note_on_c, 1, 60, 0
3, 139500, Note_on_c, 1, 52, 0
3, 139560, Note_on_c, 1, 43, 100
3, 139650, Note_on_c, 1, 43, 0
3, 139650, Note_on_c, 1, 43, 100
3, 139680, Note_on_c, 1, 43, 0
3, 139680, Note_on_c, 1, 48, 100
3, 139800, Note_on_c, 1, 48, 0
3, 139800, Note_on_c, 1, 64, 100
3, 139800, Note_on_c, 1, 60, 100
3, 139920, Note_on_c, 1, 60, 0
3, 139920, Note_on_c, 1, 64, 0
3, 139920, Note_on_c, 1, 64, 100
3, 139920, Note_on_c, 1, 60, 100
3, 140010, Note_on_c, 1, 60, 0
3, 140010, Note_on_c, 1, 64, 0
3, 140010, Note_on_c, 1, 60, 100
3, 140010, Note_on_c, 1, 64, 100
3, 140040, Note_on_c, 1, 64, 0
3, 140040, Note_on_c, 1, 60, 0
3, 140040, Note_on_c, 1, 55, 100
3, 140040, Note_on_c, 1, 62, 100
3, 140160, Note_on_c, 1, 62, 0
3, 140160, Note_on_c, 1, 55, 0
3, 140160, Note_on_c, 1, 64, 100
3, 140160, Note_on_c, 1, 60, 100
3, 140220, Note_on_c, 1, 60, 0
3, 140220, Note_on_c, 1, 64, 0
3, 141000, Note_on_c, 1, 49, 100
3, 141000, Note_on_c, 1, 61, 100
3, 141090, Note_on_c, 1, 61, 0
3, 141090, Note_on_c, 1, 49, 0
3, 141090, Note_on_c, 1, 61, 100
3, 141090, Note_on_c, 1, 49, 100
3, 141120, Note_on_c, 1, 49, 0
3, 141120, Note_on_c, 1, 61, 0
3, 141120, Note_on_c, 1, 50, 100
3, 141120, Note_on_c, 1, 62, 100
3, 141240, Note_on_c, 1, 62, 0
3, 141240, Note_on_c, 1, 50, 0
3, 141360, Note_on_c, 1, 50, 100
3, 141360, Note_on_c, 1, 62, 100
3, 141450, Note_on_c, 1, 62, 0
3, 141450, Note_on_c, 1, 50, 0
3, 141450, Note_on_c, 1, 50, 100
3, 141450, Note_on_c, 1, 62, 100
3, 141480, Note_on_c, 1, 62, 0
3, 141480, Note_on_c, 1, 50, 0
3, 141480, Note_on_c, 1, 43, 100
3, 141480, Note_on_c, 1, 55, 100
3, 141600, Note_on_c, 1, 55, 0
3, 141600, Note_on_c, 1, 43, 0
3, 141720, Note_on_c, 1, 43, 100
3, 141810, Note_on_c, 1, 43, 0
3, 141810, Note_on_c, 1, 43, 100
3, 141840, Note_on_c, 1, 43, 0
3, 141840, Note_on_c, 1, 44, 100
3, 141960, Note_on_c, 1, 44, 0
3, 141960, Note_on_c, 1, 43, 100
3, 142020, Note_on_c, 1, 43, 0
3, 142080, Note_on_c, 1, 55, 100
3, 142080, Note_on_c, 1, 62, 100
3, 142170, Note_on_c, 1, 62, 0
3, 142170, Note_on_c, 1, 55, 0
3, 142170, Note_on_c, 1, 55, 100
3, 142170, Note_on_c, 1, 62, 100
3, 142200, Note_on_c, 1, 62, 0
3, 142200, Note_on_c, 1, 55, 0
3, 142200, Note_on_c, 1, 56, 100
3, 142200, Note_on_c, 1, 60, 100
3, 142320, Note_on_c, 1, 60, 0
3, 142320, Note_on_c, 1, 56, 0
3, 142320, Note_on_c, 1, 55, 100
3, 142320, Note_on_c, 1, 62, 100
3, 142380, Note_on_c, 1, 62, 0
3, 142380, Note_on_c, 1, 55, 0
3, 142440, Note_on_c, 1, 43, 100
3, 142530, Note_on_c, 1, 43, 0
3, 142530, Note_on_c, 1, 43, 100
3, 142560, Note_on_c, 1, 43, 0
3, 142560, Note_on_c, 1, 42, 100
3, 142680, Note_on_c, 1, 42, 0
3, 142680, Note_on_c, 1, 43, 100
3, 142740, Note_on_c, 1, 43, 0
3, 142800, Note_on_c, 1, 55, 100
3, 142800, Note_on_c, 1, 62, 100
3, 142890, Note_on_c, 1, 62, 0
3, 142890, Note_on_c, 1, 55, 0
3, 142890, Note_on_c, 1, 55, 100
3, 142890, Note_on_c, 1, 62, 100
3, 142920, Note_on_c, 1, 62, 0
3, 142920, Note_on_c, 1, 55, 0
3, 142920, Note_on_c, 1, 54, 100
3, 142920, Note_on_c, 1, 63, 100
3, 143040, Note_on_c, 1, 63, 0
3, 143040, Note_on_c, 1, 54, 0
3, 143040, Note_on_c, 1, 62, 100
3, 143040, Note_on_c, 1, 55, 100
3, 143100, Note_on_c, 1, 55, 0
3, 143100, Note_on_c, 1, 62, 0
3, 144240, Note_on_c, 1, 43, 100
3, 144240, Note_on_c, 1, 55, 100
3, 144330, Note_on_c, 1, 55, 0
3, 144330, Note_on_c, 1, 43, 0
3, 144330, Note_on_c, 1, 43, 100
3, 144330, Note_on_c, 1, 55, 100
3, 144360, Note_on_c, 1, 55, 0
3, 144360, Note_on_c, 1, 43, 0
3, 144360, Note_on_c, 1, 36, 100
3, 144360, Note_on_c, 1, 48, 100
3, 144480, Note_on_c, 1, 48, 0
3, 144480, Note_on_c, 1, 36, 0
3, 144600, Note_on_c, 1, 43, 100
3, 144690, Note_on_c, 1, 43, 0
3, 144690, Note_on_c, 1, 43, 100
3, 144720, Note_on_c, 1, 43, 0
3, 144720, Note_on_c, 1, 44, 100
3, 144840, Note_on_c, 1, 44, 0
3, 144840, Note_on_c, 1, 43, 100
3, 144900, Note_on_c, 1, 43, 0
3, 144960, Note_on_c, 1, 55, 100
3, 144960, Note_on_c, 1, 62, 100
3, 145050, Note_on_c, 1, 62, 0
3, 145050, Note_on_c, 1, 55, 0
3, 145050, Note_on_c, 1, 55, 100
3, 145050, Note_on_c, 1, 62, 100
3, 145080, Note_on_c, 1, 62, 0
3, 145080, Note_on_c, 1, 55, 0
3, 145080, Note_on_c, 1, 56, 100
3, 145080, Note_on_c, 1, 60, 100
3, 145200, Note_on_c, 1, 60, 0
3, 145200, Note_on_c, 1, 56, 0
3, 145200, Note_on_c, 1, 55, 100
3, 145200, Note_on_c, 1, 62, 100
3, 145260, Note_on_c, 1, 62, 0
3, 145260, Note_on_c, 1, 55, 0
3, 145320, Note_on_c, 1, 43, 100
3, 145410, Note_on_c, 1, 43, 0
3, 145410, Note_on_c, 1, 43, 100
3, 145440, Note_on_c, 1, 43, 0
3, 145440, Note_on_c, 1, 42, 100
3, 145560, Note_on_c, 1, 42, 0
3, 145560, Note_on_c, 1, 43, 100
3, 145620, Note_on_c, 1, 43, 0
3, 145680, Note_on_c, 1, 55, 100
3, 145680, Note_on_c, 1, 62, 100
3, 145770, Note_on_c, 1, 62, 0
3, 145770, Note_on_c, 1, 55, 0
3, 145770, Note_on_c, 1, 55, 100
3, 145770, Note_on_c, 1, 62, 100
3, 145800, Note_on_c, 1, 62, 0
3, 145800, Note_on_c, 1, 55, 0
3, 145800, Note_on_c, 1, 54, 100
3, 145800, Note_on_c, 1, 63, 100
3, 145920, Note_on_c, 1, 63, 0
3, 145920, Note_on_c, 1, 54, 0
3, 145920, Note_on_c, 1, 62, 100
3, 145920, Note_on_c, 1, 55, 100
3, 145980, Note_on_c, 1, 55, 0
3, 145980, Note_on_c, 1, 62, 0
3, 147120, Note_on_c, 1, 43, 100
3, 147120, Note_on_c, 1, 55, 100
3, 147210, Note_on_c, 1, 55, 0
3, 147210, Note_on_c, 1, 43, 0
3, 147210, Note_on_c, 1, 43, 100
3, 147210, Note_on_c, 1, 55, 100
3, 147240, Note_on_c, 1, 55, 0
3, 147240, Note_on_c, 1, 43, 0
3, 147240, Note_on_c, 1, 36, 100
3, 147240, Note_on_c, 1, 48, 100
3, 147360, Note_on_c, 1, 48, 0
3, 147360, Note_on_c, 1, 36, 0
3, 147360, End_track
4, 0, Start_track
4, 0, End_track
0, 0, End_of_file