0, 0, Header, 1, 5, 120
1, 0, Start_track
1, 0, Title_t, "untitled"
1, 0, Copyright_t, "Copyright \251 2002 di FIORELLAEARMANDO@PANET.IT"
1, 0, Text_t, "FIORELLAEARMANDO@PANET.IT"
1, 0, Time_signature, 3, 2, 24, 8
1, 0, Key_signature, 3, "major"
1, 0, Tempo, 750000
1, 0, End_track
2, 0, Start_track
2, 0, MIDI_port, 0
2, 0, Title_t, "Voice"
2, 0, Program_c, 0, 71
2, 0, Control_c, 0, 7, 120
2, 0, Control_c, 0, 10, 64
2, 0, Control_c, 0, 93, 11
2, 0, Control_c, 0, 91, 16
2, 360, Note_on_c, 0, 66, 58
2, 600, Note_on_c, 0, 66, 0
2, 600, Note_on_c, 0, 66, 57
2, 720, Note_on_c, 0, 66, 0
2, 720, Note_on_c, 0, 66, 57
2, 960, Note_on_c, 0, 66, 0
2, 960, Note_on_c, 0, 66, 56
2, 1080, Note_on_c, 0, 66, 0
2, 1080, Note_on_c, 0, 66, 56
2, 1320, Note_on_c, 0, 66, 0
2, 1320, Note_on_c, 0, 66, 56
2, 1440, Note_on_c, 0, 66, 0
2, 1440, Note_on_c, 0, 67, 56
2, 1800, Note_on_c, 0, 67, 0
2, 1800, Note_on_c, 0, 67, 55
2, 2040, Note_on_c, 0, 67, 0
2, 2040, Note_on_c, 0, 67, 55
2, 2160, Note_on_c, 0, 67, 0
2, 2160, Note_on_c, 0, 67, 55
2, 2400, Note_on_c, 0, 67, 0
2, 2400, Note_on_c, 0, 67, 55
2, 2520, Note_on_c, 0, 67, 0
2, 2520, Note_on_c, 0, 72, 56
2, 2760, Note_on_c, 0, 72, 0
2, 2760, Note_on_c, 0, 71, 56
2, 2880, Note_on_c, 0, 71, 0
2, 2880, Note_on_c, 0, 71, 56
2, 3120, Note_on_c, 0, 71, 0
2, 3120, Note_on_c, 0, 70, 52
2, 3240, Note_on_c, 0, 70, 0
2, 3360, Note_on_c, 0, 70, 52
2, 3480, Note_on_c, 0, 70, 0
2, 3480, Note_on_c, 0, 70, 52
2, 3600, Note_on_c, 0, 70, 0
2, 3600, Note_on_c, 0, 76, 86
2, 3840, Note_on_c, 0, 76, 0
2, 3840, Note_on_c, 0, 78, 93
2, 3960, Note_on_c, 0, 78, 0
2, 3960, Note_on_c, 0, 79, 95
2, 4200, Note_on_c, 0, 79, 0
2, 4200, Note_on_c, 0, 70, 100
2, 4320, Note_on_c, 0, 70, 0
2, 4320, Note_on_c, 0, 70, 103
2, 4560, Note_on_c, 0, 70, 0
2, 4560, Note_on_c, 0, 71, 59
2, 4680, Note_on_c, 0, 71, 0
2, 4800, Note_on_c, 0, 71, 60
2, 4920, Note_on_c, 0, 71, 0
2, 4920, Note_on_c, 0, 71, 61
2, 5040, Note_on_c, 0, 71, 0
2, 5040, Note_on_c, 0, 72, 73
2, 5280, Note_on_c, 0, 72, 0
2, 5280, Note_on_c, 0, 72, 82
2, 5400, Note_on_c, 0, 72, 0
2, 5400, Note_on_c, 0, 72, 90
2, 5640, Note_on_c, 0, 72, 0
2, 5640, Note_on_c, 0, 72, 91
2, 5760, Note_on_c, 0, 72, 0
2, 5760, Note_on_c, 0, 73, 93
2, 6000, Note_on_c, 0, 73, 0
2, 6000, Note_on_c, 0, 61, 100
2, 6120, Note_on_c, 0, 61, 0
2, 7560, Note_on_c, 0, 61, 56
2, 7800, Note_on_c, 0, 61, 0
2, 7800, Note_on_c, 0, 61, 56
2, 7920, Note_on_c, 0, 61, 0
2, 7920, Note_on_c, 0, 66, 57
2, 8160, Note_on_c, 0, 66, 0
2, 8160, Note_on_c, 0, 68, 57
2, 8280, Note_on_c, 0, 68, 0
2, 8280, Note_on_c, 0, 69, 57
2, 8520, Note_on_c, 0, 69, 0
2, 8520, Note_on_c, 0, 66, 57
2, 8640, Note_on_c, 0, 66, 0
2, 8640, Note_on_c, 0, 61, 57
2, 9000, Note_on_c, 0, 61, 0
2, 9000, Note_on_c, 0, 65, 57
2, 9240, Note_on_c, 0, 65, 0
2, 9240, Note_on_c, 0, 65, 57
2, 9360, Note_on_c, 0, 65, 0
2, 9360, Note_on_c, 0, 65, 58
2, 9600, Note_on_c, 0, 65, 0
2, 9600, Note_on_c, 0, 65, 73
2, 9720, Note_on_c, 0, 65, 0
2, 9720, Note_on_c, 0, 65, 74
2, 9960, Note_on_c, 0, 65, 0
2, 9960, Note_on_c, 0, 65, 80
2, 10080, Note_on_c, 0, 65, 0
2, 10080, Note_on_c, 0, 66, 83
2, 10440, Note_on_c, 0, 66, 0
2, 10440, Note_on_c, 0, 67, 93
2, 10680, Note_on_c, 0, 67, 0
2, 10680, Note_on_c, 0, 67, 105
2, 10800, Note_on_c, 0, 67, 0
2, 10800, Note_on_c, 0, 67, 114
2, 11400, Note_on_c, 0, 67, 0
2, 11400, Note_on_c, 0, 66, 73
2, 11520, Note_on_c, 0, 66, 0
2, 11520, Note_on_c, 0, 73, 65
2, 11880, Note_on_c, 0, 73, 0
2, 11880, Note_on_c, 0, 61, 58
2, 12240, Note_on_c, 0, 61, 0
2, 12240, Note_on_c, 0, 62, 58
2, 12600, Note_on_c, 0, 62, 0
2, 12600, Note_on_c, 0, 66, 70
2, 12840, Note_on_c, 0, 66, 0
2, 12840, Note_on_c, 0, 66, 88
2, 12960, Note_on_c, 0, 66, 0
2, 12960, Note_on_c, 0, 67, 89
2, 13560, Note_on_c, 0, 67, 0
2, 13560, Note_on_c, 0, 66, 63
2, 13680, Note_on_c, 0, 66, 0
2, 13680, Note_on_c, 0, 73, 65
2, 14040, Note_on_c, 0, 73, 0
2, 14040, Note_on_c, 0, 61, 46
2, 14400, Note_on_c, 0, 61, 0
2, 14400, Note_on_c, 0, 66, 46
2, 14760, Note_on_c, 0, 66, 0
2, 14760, End_track
3, 0, Start_track
3, 0, MIDI_port, 0
3, 0, Title_t, "Piano Right"
3, 0, Program_c, 1, 0
3, 0, Control_c, 1, 7, 110
3, 0, Control_c, 1, 10, 32
3, 0, Control_c, 1, 93, 16
3, 0, Control_c, 1, 91, 11
3, 0, Control_c, 1, 0, 0
3, 0, Control_c, 1, 32, 0
3, 0, Program_c, 1, 0
3, 0, Control_c, 1, 7, 100
3, 0, Note_on_c, 1, 66, 73
3, 0, Note_on_c, 1, 61, 73
3, 0, Note_on_c, 1, 57, 73
3, 360, Note_on_c, 1, 57, 0
3, 360, Note_on_c, 1, 61, 0
3, 360, Note_on_c, 1, 66, 0
3, 360, Note_on_c, 1, 66, 47
3, 713, Note_on_c, 1, 66, 0
3, 720, Note_on_c, 1, 66, 47
3, 1073, Note_on_c, 1, 66, 0
3, 1080, Note_on_c, 1, 66, 48
3, 1433, Note_on_c, 1, 66, 0
3, 1440, Note_on_c, 1, 66, 48
3, 1440, Note_on_c, 1, 67, 48
3, 1680, Note_on_c, 1, 67, 0
3, 1680, Note_on_c, 1, 66, 0
3, 1680, Note_on_c, 1, 66, 48
3, 1680, Note_on_c, 1, 67, 48
3, 1800, Note_on_c, 1, 67, 0
3, 1800, Note_on_c, 1, 66, 0
3, 1800, Note_on_c, 1, 66, 48
3, 1800, Note_on_c, 1, 67, 48
3, 2040, Note_on_c, 1, 67, 0
3, 2040, Note_on_c, 1, 66, 0
3, 2040, Note_on_c, 1, 66, 48
3, 2040, Note_on_c, 1, 67, 48
3, 2160, Note_on_c, 1, 67, 0
3, 2160, Note_on_c, 1, 66, 0
3, 2160, Note_on_c, 1, 64, 50
3, 2160, Note_on_c, 1, 67, 50
3, 2400, Note_on_c, 1, 67, 0
3, 2400, Note_on_c, 1, 64, 0
3, 2400, Note_on_c, 1, 64, 50
3, 2400, Note_on_c, 1, 67, 50
3, 2520, Note_on_c, 1, 67, 0
3, 2520, Note_on_c, 1, 64, 0
3, 2520, Note_on_c, 1, 64, 50
3, 2520, Note_on_c, 1, 67, 50
3, 2520, Note_on_c, 1, 72, 50
3, 2760, Note_on_c, 1, 72, 0
3, 2760, Note_on_c, 1, 67, 0
3, 2760, Note_on_c, 1, 64, 0
3, 2760, Note_on_c, 1, 64, 50
3, 2760, Note_on_c, 1, 67, 50
3, 2760, Note_on_c, 1, 71, 50
3, 2880, Note_on_c, 1, 71, 0
3, 2880, Note_on_c, 1, 67, 0
3, 2880, Note_on_c, 1, 64, 0
3, 2880, Note_on_c, 1, 64, 50
3, 2880, Note_on_c, 1, 67, 50
3, 2880, Note_on_c, 1, 71, 50
3, 3120, Note_on_c, 1, 71, 0
3, 3120, Note_on_c, 1, 67, 0
3, 3120, Note_on_c, 1, 64, 0
3, 3120, Note_on_c, 1, 64, 50
3, 3120, Note_on_c, 1, 68, 50
3, 3120, Note_on_c, 1, 69, 50
3, 3240, Note_on_c, 1, 69, 0
3, 3240, Note_on_c, 1, 68, 0
3, 3240, Note_on_c, 1, 64, 0
3, 3360, Note_on_c, 1, 70, 50
3, 3360, Note_on_c, 1, 58, 50
3, 3480, Note_on_c, 1, 58, 0
3, 3480, Note_on_c, 1, 70, 0
3, 3480, Note_on_c, 1, 70, 59
3, 3480, Note_on_c, 1, 58, 59
3, 3600, Note_on_c, 1, 58, 0
3, 3600, Note_on_c, 1, 70, 0
3, 3600, Note_on_c, 1, 76, 92
3, 3600, Note_on_c, 1, 64, 92
3, 3840, Note_on_c, 1, 64, 0
3, 3840, Note_on_c, 1, 76, 0
3, 3840, Note_on_c, 1, 78, 94
3, 3840, Note_on_c, 1, 66, 94
3, 3960, Note_on_c, 1, 66, 0
3, 3960, Note_on_c, 1, 78, 0
3, 3960, Note_on_c, 1, 79, 96
3, 3960, Note_on_c, 1, 67, 96
3, 4200, Note_on_c, 1, 67, 0
3, 4200, Note_on_c, 1, 79, 0
3, 4200, Note_on_c, 1, 70, 100
3, 4200, Note_on_c, 1, 58, 100
3, 4320, Note_on_c, 1, 58, 0
3, 4320, Note_on_c, 1, 70, 0
3, 4320, Note_on_c, 1, 70, 105
3, 4320, Note_on_c, 1, 58, 105
3, 4560, Note_on_c, 1, 58, 0
3, 4560, Note_on_c, 1, 70, 0
3, 4560, Note_on_c, 1, 71, 106
3, 4560, Note_on_c, 1, 59, 106
3, 4680, Note_on_c, 1, 59, 0
3, 4680, Note_on_c, 1, 71, 0
3, 4800, Note_on_c, 1, 71, 61
3, 4800, Note_on_c, 1, 59, 61
3, 4920, Note_on_c, 1, 59, 0
3, 4920, Note_on_c, 1, 71, 0
3, 4920, Note_on_c, 1, 71, 60
3, 4920, Note_on_c, 1, 59, 60
3, 5040, Note_on_c, 1, 59, 0
3, 5040, Note_on_c, 1, 71, 0
3, 5040, Note_on_c, 1, 72, 61
3, 5040, Note_on_c, 1, 60, 61
3, 5280, Note_on_c, 1, 60, 0
3, 5280, Note_on_c, 1, 72, 0
3, 5280, Note_on_c, 1, 66, 76
3, 5280, Note_on_c, 1, 72, 76
3, 5400, Note_on_c, 1, 72, 0
3, 5400, Note_on_c, 1, 66, 0
3, 5400, Note_on_c, 1, 72, 79
3, 5400, Note_on_c, 1, 68, 79
3, 5640, Note_on_c, 1, 68, 0
3, 5640, Note_on_c, 1, 72, 0
3, 5640, Note_on_c, 1, 72, 86
3, 5640, Note_on_c, 1, 69, 86
3, 5760, Note_on_c, 1, 69, 0
3, 5760, Note_on_c, 1, 72, 0
3, 5760, Note_on_c, 1, 73, 90
3, 5760, Note_on_c, 1, 65, 90
3, 6000, Note_on_c, 1, 65, 0
3, 6000, Note_on_c, 1, 73, 0
3, 6000, Note_on_c, 1, 61, 100
3, 6120, Note_on_c, 1, 61, 0
3, 6120, Note_on_c, 1, 61, 61
3, 6480, Note_on_c, 1, 61, 0
3, 6480, Note_on_c, 1, 66, 61
3, 6720, Note_on_c, 1, 66, 0
3, 6720, Note_on_c, 1, 68, 61
3, 6840, Note_on_c, 1, 68, 0
3, 6840, Note_on_c, 1, 69, 61
3, 7080, Note_on_c, 1, 69, 0
3, 7080, Note_on_c, 1, 66, 61
3, 7200, Note_on_c, 1, 66, 0
3, 7200, Note_on_c, 1, 65, 61
3, 7440, Note_on_c, 1, 65, 0
3, 7440, Note_on_c, 1, 61, 61
3, 7560, Note_on_c, 1, 61, 0
3, 7560, Note_on_c, 1, 61, 61
3, 7800, Note_on_c, 1, 61, 0
3, 7800, Note_on_c, 1, 61, 61
3, 7920, Note_on_c, 1, 61, 0
3, 7920, Note_on_c, 1, 66, 61
3, 8160, Note_on_c, 1, 66, 0
3, 8160, Note_on_c, 1, 68, 61
3, 8280, Note_on_c, 1, 68, 0
3, 8280, Note_on_c, 1, 69, 61
3, 8520, Note_on_c, 1, 69, 0
3, 8520, Note_on_c, 1, 66, 61
3, 8640, Note_on_c, 1, 66, 0
3, 8640, Note_on_c, 1, 61, 61
3, 9000, Note_on_c, 1, 61, 0
3, 9000, Note_on_c, 1, 65, 61
3, 9000, Note_on_c, 1, 61, 61
3, 9000, Note_on_c, 1, 56, 61
3, 9240, Note_on_c, 1, 56, 0
3, 9240, Note_on_c, 1, 61, 0
3, 9240, Note_on_c, 1, 65, 0
3, 9240, Note_on_c, 1, 65, 61
3, 9240, Note_on_c, 1, 61, 61
3, 9240, Note_on_c, 1, 56, 61
3, 9360, Note_on_c, 1, 56, 0
3, 9360, Note_on_c, 1, 61, 0
3, 9360, Note_on_c, 1, 65, 0
3, 9360, Note_on_c, 1, 56, 61
3, 9360, Note_on_c, 1, 62, 61
3, 9360, Note_on_c, 1, 65, 61
3, 9600, Note_on_c, 1, 65, 0
3, 9600, Note_on_c, 1, 62, 0
3, 9600, Note_on_c, 1, 56, 0
3, 9600, Note_on_c, 1, 65, 68
3, 9600, Note_on_c, 1, 62, 68
3, 9600, Note_on_c, 1, 56, 68
3, 9720, Note_on_c, 1, 56, 0
3, 9720, Note_on_c, 1, 62, 0
3, 9720, Note_on_c, 1, 65, 0
3, 9720, Note_on_c, 1, 65, 72
3, 9720, Note_on_c, 1, 62, 72
3, 9720, Note_on_c, 1, 56, 72
3, 9960, Note_on_c, 1, 56, 0
3, 9960, Note_on_c, 1, 62, 0
3, 9960, Note_on_c, 1, 65, 0
3, 9960, Note_on_c, 1, 65, 78
3, 9960, Note_on_c, 1, 62, 78
3, 9960, Note_on_c, 1, 56, 78
3, 10080, Note_on_c, 1, 56, 0
3, 10080, Note_on_c, 1, 62, 0
3, 10080, Note_on_c, 1, 65, 0
3, 10080, Note_on_c, 1, 66, 82
3, 10080, Note_on_c, 1, 61, 82
3, 10080, Note_on_c, 1, 57, 82
3, 10440, Note_on_c, 1, 57, 0
3, 10440, Note_on_c, 1, 61, 0
3, 10440, Note_on_c, 1, 66, 0
3, 10440, Note_on_c, 1, 58, 91
3, 10440, Note_on_c, 1, 61, 91
3, 10440, Note_on_c, 1, 64, 91
3, 10440, Note_on_c, 1, 67, 91
3, 10680, Note_on_c, 1, 67, 0
3, 10680, Note_on_c, 1, 58, 0
3, 10680, Note_on_c, 1, 61, 0
3, 10680, Note_on_c, 1, 64, 0
3, 10680, Note_on_c, 1, 58, 99
3, 10680, Note_on_c, 1, 61, 99
3, 10680, Note_on_c, 1, 67, 99
3, 10680, Note_on_c, 1, 64, 99
3, 10800, Note_on_c, 1, 64, 0
3, 10800, Note_on_c, 1, 58, 0
3, 10800, Note_on_c, 1, 61, 0
3, 10800, Note_on_c, 1, 67, 0
3, 10800, Note_on_c, 1, 67, 102
3, 10800, Note_on_c, 1, 64, 102
3, 10800, Note_on_c, 1, 61, 102
3, 10800, Note_on_c, 1, 58, 102
3, 11395, Note_on_c, 1, 58, 0
3, 11395, Note_on_c, 1, 67, 0
3, 11395, Note_on_c, 1, 64, 0
3, 11395, Note_on_c, 1, 61, 0
3, 11400, Note_on_c, 1, 66, 60
3, 11400, Note_on_c, 1, 62, 60
3, 11400, Note_on_c, 1, 59, 60
3, 11520, Note_on_c, 1, 59, 0
3, 11520, Note_on_c, 1, 62, 0
3, 11520, Note_on_c, 1, 66, 0
3, 11520, Note_on_c, 1, 66, 59
3, 11520, Note_on_c, 1, 61, 59
3, 11520, Note_on_c, 1, 57, 59
3, 11880, Note_on_c, 1, 57, 0
3, 11880, Note_on_c, 1, 61, 0
3, 11880, Note_on_c, 1, 66, 0
3, 11880, Note_on_c, 1, 65, 58
3, 11880, Note_on_c, 1, 61, 58
3, 11880, Note_on_c, 1, 56, 58
3, 12120, Note_on_c, 1, 56, 0
3, 12120, Note_on_c, 1, 61, 0
3, 12120, Note_on_c, 1, 59, 58
3, 12240, Note_on_c, 1, 59, 0
3, 12240, Note_on_c, 1, 65, 0
3, 12240, Note_on_c, 1, 66, 59
3, 12240, Note_on_c, 1, 57, 59
3, 12240, Note_on_c, 1, 54, 59
3, 12600, Note_on_c, 1, 54, 0
3, 12600, Note_on_c, 1, 57, 0
3, 12600, Note_on_c, 1, 66, 0
3, 12600, Note_on_c, 1, 66, 64
3, 12600, Note_on_c, 1, 57, 64
3, 12600, Note_on_c, 1, 60, 64
3, 12840, Note_on_c, 1, 60, 0
3, 12840, Note_on_c, 1, 57, 0
3, 12840, Note_on_c, 1, 66, 0
3, 12840, Note_on_c, 1, 66, 85
3, 12840, Note_on_c, 1, 57, 85
3, 12840, Note_on_c, 1, 60, 85
3, 12960, Note_on_c, 1, 60, 0
3, 12960, Note_on_c, 1, 57, 0
3, 12960, Note_on_c, 1, 66, 0
3, 12960, Note_on_c, 1, 61, 94
3, 12960, Note_on_c, 1, 58, 94
3, 12960, Note_on_c, 1, 67, 94
3, 13320, Note_on_c, 1, 58, 0
3, 13320, Note_on_c, 1, 61, 0
3, 13320, Note_on_c, 1, 62, 60
3, 13320, Note_on_c, 1, 59, 60
3, 13560, Note_on_c, 1, 59, 0
3, 13560, Note_on_c, 1, 62, 0
3, 13560, Note_on_c, 1, 66, 60
3, 13560, Note_on_c, 1, 60, 60
3, 13560, Note_on_c, 1, 57, 60
3, 13680, Note_on_c, 1, 57, 0
3, 13680, Note_on_c, 1, 67, 0
3, 13680, Note_on_c, 1, 66, 0
3, 13680, Note_on_c, 1, 60, 0
3, 13680, Note_on_c, 1, 66, 60
3, 13680, Note_on_c, 1, 61, 60
3, 13680, Note_on_c, 1, 57, 60
3, 14040, Note_on_c, 1, 57, 0
3, 14040, Note_on_c, 1, 61, 0
3, 14040, Note_on_c, 1, 66, 0
3, 14040, Note_on_c, 1, 65, 46
3, 14040, Note_on_c, 1, 61, 46
3, 14040, Note_on_c, 1, 56, 46
3, 14400, Note_on_c, 1, 56, 0
3, 14400, Note_on_c, 1, 61, 0
3, 14400, Note_on_c, 1, 65, 0
3, 14400, Note_on_c, 1, 66, 48
3, 14400, Note_on_c, 1, 61, 48
3, 14400, Note_on_c, 1, 57, 48
3, 14760, Note_on_c, 1, 57, 0
3, 14760, Note_on_c, 1, 61, 0
3, 14760, Note_on_c, 1, 66, 0
3, 15000, Note_on_c, 1, 62, 51
3, 15000, Note_on_c, 1, 59, 51
3, 15120, Note_on_c, 1, 59, 0
3, 15120, Note_on_c, 1, 62, 0
3, 15120, Note_on_c, 1, 61, 55
3, 15480, Note_on_c, 1, 61, 0
3, 15480, End_track
4, 0, Start_track
4, 0, MIDI_port, 0
4, 0, Title_t, "Piano Left"
4, 0, Program_c, 2, 0
4, 0, Control_c, 2, 7, 104
4, 0, Control_c, 2, 10, 94
4, 0, Control_c, 2, 93, 12
4, 0, Control_c, 2, 91, 14
4, 0, Control_c, 2, 0, 0
4, 0, Control_c, 2, 32, 0
4, 0, Program_c, 2, 0
4, 0, Control_c, 2, 7, 100
4, 0, Note_on_c, 2, 54, 72
4, 0, Note_on_c, 2, 49, 72
4, 0, Note_on_c, 2, 45, 72
4, 0, Note_on_c, 2, 42, 72
4, 360, Note_on_c, 2, 42, 0
4, 360, Note_on_c, 2, 54, 0
4, 360, Note_on_c, 2, 49, 0
4, 360, Note_on_c, 2, 45, 0
4, 2520, Note_on_c, 2, 55, 64
4, 2520, Note_on_c, 2, 52, 64
4, 2760, Note_on_c, 2, 52, 0
4, 2760, Note_on_c, 2, 55, 0
4, 2760, Note_on_c, 2, 55, 60
4, 2760, Note_on_c, 2, 52, 60
4, 2880, Note_on_c, 2, 52, 0
4, 2880, Note_on_c, 2, 55, 0
4, 2880, Note_on_c, 2, 55, 60
4, 2880, Note_on_c, 2, 52, 60
4, 2880, Note_on_c, 2, 49, 60
4, 3120, Note_on_c, 2, 49, 0
4, 3120, Note_on_c, 2, 52, 0
4, 3120, Note_on_c, 2, 55, 0
4, 3120, Note_on_c, 2, 55, 60
4, 3120, Note_on_c, 2, 52, 60
4, 3120, Note_on_c, 2, 49, 60
4, 3240, Note_on_c, 2, 49, 0
4, 3240, Note_on_c, 2, 52, 0
4, 3240, Note_on_c, 2, 55, 0
4, 3240, Note_on_c, 2, 55, 60
4, 3240, Note_on_c, 2, 52, 60
4, 3240, Note_on_c, 2, 49, 60
4, 3480, Note_on_c, 2, 49, 0
4, 3480, Note_on_c, 2, 52, 0
4, 3480, Note_on_c, 2, 55, 0
4, 3480, Note_on_c, 2, 55, 60
4, 3480, Note_on_c, 2, 52, 60
4, 3480, Note_on_c, 2, 49, 60
4, 3600, Note_on_c, 2, 49, 0
4, 3600, Note_on_c, 2, 52, 0
4, 3600, Note_on_c, 2, 55, 0
4, 3600, Note_on_c, 2, 58, 86
4, 3600, Note_on_c, 2, 55, 86
4, 3600, Note_on_c, 2, 52, 86
4, 3600, Note_on_c, 2, 49, 86
4, 3840, Note_on_c, 2, 49, 0
4, 3840, Note_on_c, 2, 58, 0
4, 3840, Note_on_c, 2, 55, 0
4, 3840, Note_on_c, 2, 52, 0
4, 3840, Note_on_c, 2, 58, 90
4, 3840, Note_on_c, 2, 55, 90
4, 3840, Note_on_c, 2, 52, 90
4, 3840, Note_on_c, 2, 49, 90
4, 3960, Note_on_c, 2, 49, 0
4, 3960, Note_on_c, 2, 58, 0
4, 3960, Note_on_c, 2, 55, 0
4, 3960, Note_on_c, 2, 52, 0
4, 3960, Note_on_c, 2, 58, 92
4, 3960, Note_on_c, 2, 55, 92
4, 3960, Note_on_c, 2, 52, 92
4, 3960, Note_on_c, 2, 49, 92
4, 4200, Note_on_c, 2, 49, 0
4, 4200, Note_on_c, 2, 58, 0
4, 4200, Note_on_c, 2, 55, 0
4, 4200, Note_on_c, 2, 52, 0
4, 4200, Note_on_c, 2, 55, 97
4, 4200, Note_on_c, 2, 52, 97
4, 4200, Note_on_c, 2, 49, 97
4, 4320, Note_on_c, 2, 49, 0
4, 4320, Note_on_c, 2, 52, 0
4, 4320, Note_on_c, 2, 55, 0
4, 4320, Note_on_c, 2, 54, 98
4, 4320, Note_on_c, 2, 50, 98
4, 4560, Note_on_c, 2, 50, 0
4, 4560, Note_on_c, 2, 54, 0
4, 4560, Note_on_c, 2, 54, 99
4, 4560, Note_on_c, 2, 50, 99
4, 4680, Note_on_c, 2, 50, 0
4, 4680, Note_on_c, 2, 54, 0
4, 4680, Note_on_c, 2, 54, 59
4, 4680, Note_on_c, 2, 50, 59
4, 4920, Note_on_c, 2, 50, 0
4, 4920, Note_on_c, 2, 54, 0
4, 4920, Note_on_c, 2, 54, 60
4, 4920, Note_on_c, 2, 50, 60
4, 5040, Note_on_c, 2, 50, 0
4, 5040, Note_on_c, 2, 54, 0
4, 5040, Note_on_c, 2, 54, 71
4, 5040, Note_on_c, 2, 50, 71
4, 5280, Note_on_c, 2, 50, 0
4, 5280, Note_on_c, 2, 54, 0
4, 5280, Note_on_c, 2, 50, 85
4, 5280, Note_on_c, 2, 57, 85
4, 5400, Note_on_c, 2, 57, 0
4, 5400, Note_on_c, 2, 50, 0
4, 5400, Note_on_c, 2, 56, 88
4, 5400, Note_on_c, 2, 50, 88
4, 5640, Note_on_c, 2, 50, 0
4, 5640, Note_on_c, 2, 56, 0
4, 5640, Note_on_c, 2, 54, 92
4, 5640, Note_on_c, 2, 50, 92
4, 5760, Note_on_c, 2, 50, 0
4, 5760, Note_on_c, 2, 54, 0
4, 5760, Note_on_c, 2, 56, 94
4, 5760, Note_on_c, 2, 49, 94
4, 6000, Note_on_c, 2, 49, 0
4, 6000, Note_on_c, 2, 56, 0
4, 6000, Note_on_c, 2, 49, 99
4, 6120, Note_on_c, 2, 49, 0
4, 6120, Note_on_c, 2, 49, 59
4, 6360, Note_on_c, 2, 49, 0
4, 6360, Note_on_c, 2, 49, 59
4, 6480, Note_on_c, 2, 49, 0
4, 6480, Note_on_c, 2, 54, 59
4, 6480, Note_on_c, 2, 49, 59
4, 6480, Note_on_c, 2, 42, 59
4, 6720, Note_on_c, 2, 42, 0
4, 6720, Note_on_c, 2, 49, 0
4, 6720, Note_on_c, 2, 54, 0
4, 6720, Note_on_c, 2, 56, 59
4, 6720, Note_on_c, 2, 49, 59
4, 6720, Note_on_c, 2, 44, 59
4, 6840, Note_on_c, 2, 44, 0
4, 6840, Note_on_c, 2, 49, 0
4, 6840, Note_on_c, 2, 56, 0
4, 6840, Note_on_c, 2, 57, 59
4, 6840, Note_on_c, 2, 49, 59
4, 6840, Note_on_c, 2, 45, 59
4, 7080, Note_on_c, 2, 45, 0
4, 7080, Note_on_c, 2, 49, 0
4, 7080, Note_on_c, 2, 57, 0
4, 7080, Note_on_c, 2, 54, 60
4, 7080, Note_on_c, 2, 49, 60
4, 7080, Note_on_c, 2, 42, 60
4, 7200, Note_on_c, 2, 42, 0
4, 7200, Note_on_c, 2, 49, 0
4, 7200, Note_on_c, 2, 54, 0
4, 7200, Note_on_c, 2, 53, 60
4, 7200, Note_on_c, 2, 49, 60
4, 7200, Note_on_c, 2, 41, 60
4, 7440, Note_on_c, 2, 41, 0
4, 7440, Note_on_c, 2, 49, 0
4, 7440, Note_on_c, 2, 53, 0
4, 7440, Note_on_c, 2, 49, 61
4, 7440, Note_on_c, 2, 37, 61
4, 7560, Note_on_c, 2, 37, 0
4, 7560, Note_on_c, 2, 49, 0
4, 7560, Note_on_c, 2, 49, 61
4, 7560, Note_on_c, 2, 37, 61
4, 7800, Note_on_c, 2, 37, 0
4, 7800, Note_on_c, 2, 49, 0
4, 7800, Note_on_c, 2, 49, 61
4, 7800, Note_on_c, 2, 37, 61
4, 7920, Note_on_c, 2, 37, 0
4, 7920, Note_on_c, 2, 49, 0
4, 7920, Note_on_c, 2, 54, 54
4, 7920, Note_on_c, 2, 49, 54
4, 7920, Note_on_c, 2, 42, 54
4, 8160, Note_on_c, 2, 42, 0
4, 8160, Note_on_c, 2, 49, 0
4, 8160, Note_on_c, 2, 54, 0
4, 8160, Note_on_c, 2, 56, 58
4, 8160, Note_on_c, 2, 49, 58
4, 8160, Note_on_c, 2, 44, 58
4, 8280, Note_on_c, 2, 44, 0
4, 8280, Note_on_c, 2, 49, 0
4, 8280, Note_on_c, 2, 56, 0
4, 8280, Note_on_c, 2, 57, 58
4, 8280, Note_on_c, 2, 49, 58
4, 8280, Note_on_c, 2, 45, 58
4, 8520, Note_on_c, 2, 45, 0
4, 8520, Note_on_c, 2, 49, 0
4, 8520, Note_on_c, 2, 57, 0
4, 8520, Note_on_c, 2, 54, 59
4, 8520, Note_on_c, 2, 49, 59
4, 8520, Note_on_c, 2, 42, 59
4, 8640, Note_on_c, 2, 42, 0
4, 8640, Note_on_c, 2, 49, 0
4, 8640, Note_on_c, 2, 54, 0
4, 8640, Note_on_c, 2, 49, 59
4, 8640, Note_on_c, 2, 37, 59
4, 8880, Note_on_c, 2, 37, 0
4, 8880, Note_on_c, 2, 49, 0
4, 8880, Note_on_c, 2, 49, 59
4, 8880, Note_on_c, 2, 37, 59
4, 9000, Note_on_c, 2, 37, 0
4, 9000, Note_on_c, 2, 49, 0
4, 9000, Note_on_c, 2, 37, 59
4, 9000, Note_on_c, 2, 49, 59
4, 9240, Note_on_c, 2, 49, 0
4, 9240, Note_on_c, 2, 37, 0
4, 9240, Note_on_c, 2, 37, 60
4, 9240, Note_on_c, 2, 49, 60
4, 9360, Note_on_c, 2, 49, 0
4, 9360, Note_on_c, 2, 37, 0
4, 9360, Note_on_c, 2, 47, 60
4, 9360, Note_on_c, 2, 35, 60
4, 9600, Note_on_c, 2, 35, 0
4, 9600, Note_on_c, 2, 47, 0
4, 9600, Note_on_c, 2, 47, 72
4, 9600, Note_on_c, 2, 35, 72
4, 9720, Note_on_c, 2, 35, 0
4, 9720, Note_on_c, 2, 47, 0
4, 9720, Note_on_c, 2, 47, 74
4, 9720, Note_on_c, 2, 35, 74
4, 9960, Note_on_c, 2, 35, 0
4, 9960, Note_on_c, 2, 47, 0
4, 9960, Note_on_c, 2, 47, 80
4, 9960, Note_on_c, 2, 35, 80
4, 10080, Note_on_c, 2, 35, 0
4, 10080, Note_on_c, 2, 47, 0
4, 10080, Note_on_c, 2, 45, 81
4, 10080, Note_on_c, 2, 33, 81
4, 10320, Note_on_c, 2, 33, 0
4, 10320, Note_on_c, 2, 45, 0
4, 10320, Note_on_c, 2, 45, 87
4, 10320, Note_on_c, 2, 33, 87
4, 10440, Note_on_c, 2, 33, 0
4, 10440, Note_on_c, 2, 45, 0
4, 10440, Note_on_c, 2, 45, 90
4, 10440, Note_on_c, 2, 33, 90
4, 10680, Note_on_c, 2, 33, 0
4, 10680, Note_on_c, 2, 45, 0
4, 10680, Note_on_c, 2, 45, 98
4, 10680, Note_on_c, 2, 33, 98
4, 10800, Note_on_c, 2, 33, 0
4, 10800, Note_on_c, 2, 45, 0
4, 10800, Note_on_c, 2, 46, 100
4, 10800, Note_on_c, 2, 34, 100
4, 11040, Note_on_c, 2, 34, 0
4, 11040, Note_on_c, 2, 46, 0
4, 11040, Note_on_c, 2, 46, 102
4, 11040, Note_on_c, 2, 34, 102
4, 11160, Note_on_c, 2, 34, 0
4, 11160, Note_on_c, 2, 46, 0
4, 11160, Note_on_c, 2, 46, 96
4, 11160, Note_on_c, 2, 34, 96
4, 11400, Note_on_c, 2, 34, 0
4, 11400, Note_on_c, 2, 46, 0
4, 11400, Note_on_c, 2, 47, 78
4, 11400, Note_on_c, 2, 35, 78
4, 11520, Note_on_c, 2, 35, 0
4, 11520, Note_on_c, 2, 47, 0
4, 11520, Note_on_c, 2, 49, 57
4, 11520, Note_on_c, 2, 37, 57
4, 11760, Note_on_c, 2, 37, 0
4, 11760, Note_on_c, 2, 49, 0
4, 11760, Note_on_c, 2, 49, 57
4, 11760, Note_on_c, 2, 37, 57
4, 11880, Note_on_c, 2, 37, 0
4, 11880, Note_on_c, 2, 49, 0
4, 11880, Note_on_c, 2, 49, 57
4, 11880, Note_on_c, 2, 37, 57
4, 12120, Note_on_c, 2, 37, 0
4, 12120, Note_on_c, 2, 49, 0
4, 12120, Note_on_c, 2, 49, 57
4, 12120, Note_on_c, 2, 37, 57
4, 12240, Note_on_c, 2, 37, 0
4, 12240, Note_on_c, 2, 49, 0
4, 12240, Note_on_c, 2, 50, 57
4, 12240, Note_on_c, 2, 38, 57
4, 12480, Note_on_c, 2, 38, 0
4, 12480, Note_on_c, 2, 50, 0
4, 12480, Note_on_c, 2, 50, 57
4, 12480, Note_on_c, 2, 38, 57
4, 12600, Note_on_c, 2, 38, 0
4, 12600, Note_on_c, 2, 50, 0
4, 12600, Note_on_c, 2, 50, 64
4, 12600, Note_on_c, 2, 38, 64
4, 12840, Note_on_c, 2, 38, 0
4, 12840, Note_on_c, 2, 50, 0
4, 12840, Note_on_c, 2, 50, 78
4, 12840, Note_on_c, 2, 38, 78
4, 12960, Note_on_c, 2, 38, 0
4, 12960, Note_on_c, 2, 50, 0
4, 12960, Note_on_c, 2, 50, 82
4, 12960, Note_on_c, 2, 38, 82
4, 13200, Note_on_c, 2, 38, 0
4, 13200, Note_on_c, 2, 50, 0
4, 13200, Note_on_c, 2, 50, 89
4, 13200, Note_on_c, 2, 38, 89
4, 13320, Note_on_c, 2, 38, 0
4, 13320, Note_on_c, 2, 50, 0
4, 13320, Note_on_c, 2, 50, 92
4, 13320, Note_on_c, 2, 38, 92
4, 13560, Note_on_c, 2, 38, 0
4, 13560, Note_on_c, 2, 50, 0
4, 13560, Note_on_c, 2, 50, 101
4, 13560, Note_on_c, 2, 38, 101
4, 13680, Note_on_c, 2, 38, 0
4, 13680, Note_on_c, 2, 50, 0
4, 13680, Note_on_c, 2, 49, 52
4, 13680, Note_on_c, 2, 37, 52
4, 13920, Note_on_c, 2, 37, 0
4, 13920, Note_on_c, 2, 49, 0
4, 13920, Note_on_c, 2, 49, 52
4, 13920, Note_on_c, 2, 37, 52
4, 14040, Note_on_c, 2, 37, 0
4, 14040, Note_on_c, 2, 49, 0
4, 14040, Note_on_c, 2, 49, 52
4, 14040, Note_on_c, 2, 37, 52
4, 14280, Note_on_c, 2, 37, 0
4, 14280, Note_on_c, 2, 49, 0
4, 14280, Note_on_c, 2, 49, 53
4, 14280, Note_on_c, 2, 37, 53
4, 14400, Note_on_c, 2, 37, 0
4, 14400, Note_on_c, 2, 49, 0
4, 14400, Note_on_c, 2, 42, 53
4, 14400, Note_on_c, 2, 30, 53
4, 14640, Note_on_c, 2, 30, 0
4, 14640, Note_on_c, 2, 42, 0
4, 14640, Note_on_c, 2, 30, 53
4, 14760, Note_on_c, 2, 30, 0
4, 14760, Note_on_c, 2, 30, 53
4, 15000, Note_on_c, 2, 30, 0
4, 15000, Note_on_c, 2, 56, 53
4, 15000, Note_on_c, 2, 53, 53
4, 15000, Note_on_c, 2, 30, 53
4, 15120, Note_on_c, 2, 30, 0
4, 15120, Note_on_c, 2, 53, 0
4, 15120, Note_on_c, 2, 56, 0
4, 15120, Note_on_c, 2, 57, 55
4, 15120, Note_on_c, 2, 54, 55
4, 15120, Note_on_c, 2, 30, 55
4, 15360, Note_on_c, 2, 30, 0
4, 15360, Note_on_c, 2, 30, 55
4, 15480, Note_on_c, 2, 30, 0
4, 15480, Note_on_c, 2, 54, 0
4, 15480, Note_on_c, 2, 57, 0
4, 15480, Note_on_c, 2, 30, 55
4, 15720, Note_on_c, 2, 30, 0
4, 15720, Note_on_c, 2, 59, 55
4, 15720, Note_on_c, 2, 56, 55
4, 15720, Note_on_c, 2, 53, 55
4, 15720, Note_on_c, 2, 50, 55
4, 15720, Note_on_c, 2, 30, 55
4, 15840, Note_on_c, 2, 30, 0
4, 15840, Note_on_c, 2, 53, 0
4, 15840, Note_on_c, 2, 59, 0
4, 15840, Note_on_c, 2, 56, 0
4, 15840, Note_on_c, 2, 50, 0
4, 15840, Note_on_c, 2, 57, 54
4, 15840, Note_on_c, 2, 54, 54
4, 15840, Note_on_c, 2, 49, 54
4, 15840, Note_on_c, 2, 30, 54
4, 16080, Note_on_c, 2, 30, 0
4, 16080, Note_on_c, 2, 30, 54
4, 16200, Note_on_c, 2, 30, 0
4, 16200, Note_on_c, 2, 49, 0
4, 16200, Note_on_c, 2, 54, 0
4, 16200, Note_on_c, 2, 57, 0
4, 16200, Note_on_c, 2, 30, 54
4, 16440, Note_on_c, 2, 30, 0
4, 16440, Note_on_c, 2, 56, 54
4, 16440, Note_on_c, 2, 53, 54
4, 16440, Note_on_c, 2, 50, 54
4, 16440, Note_on_c, 2, 47, 54
4, 16440, Note_on_c, 2, 30, 54
4, 16560, Note_on_c, 2, 30, 0
4, 16560, Note_on_c, 2, 50, 0
4, 16560, Note_on_c, 2, 56, 0
4, 16560, Note_on_c, 2, 53, 0
4, 16560, Note_on_c, 2, 47, 0
4, 16560, Note_on_c, 2, 54, 54
4, 16560, Note_on_c, 2, 49, 54
4, 16560, Note_on_c, 2, 45, 54
4, 16560, Note_on_c, 2, 30, 54
4, 16800, Note_on_c, 2, 30, 0
4, 16800, Note_on_c, 2, 54, 0
4, 16800, Note_on_c, 2, 49, 0
4, 16800, Note_on_c, 2, 45, 0
4, 16800, Note_on_c, 2, 54, 54
4, 16800, Note_on_c, 2, 49, 54
4, 16800, Note_on_c, 2, 45, 54
4, 16800, Note_on_c, 2, 42, 54
4, 16920, Note_on_c, 2, 42, 0
4, 16920, Note_on_c, 2, 54, 0
4, 16920, Note_on_c, 2, 49, 0
4, 16920, Note_on_c, 2, 45, 0
4, 16920, Note_on_c, 2, 54, 40
4, 16920, Note_on_c, 2, 49, 40
4, 16920, Note_on_c, 2, 45, 40
4, 16920, Note_on_c, 2, 42, 40
4, 16920, Note_on_c, 2, 37, 40
4, 17160, Note_on_c, 2, 37, 0
4, 17160, Note_on_c, 2, 45, 0
4, 17160, Note_on_c, 2, 42, 0
4, 17160, Note_on_c, 2, 49, 0
4, 17160, Note_on_c, 2, 49, 41
4, 17160, Note_on_c, 2, 45, 41
4, 17160, Note_on_c, 2, 42, 41
4, 17160, Note_on_c, 2, 33, 41
4, 17280, Note_on_c, 2, 33, 0
4, 17280, Note_on_c, 2, 45, 0
4, 17280, Note_on_c, 2, 54, 0
4, 17280, Note_on_c, 2, 49, 0
4, 17280, Note_on_c, 2, 42, 0
4, 17280, Note_on_c, 2, 54, 41
4, 17280, Note_on_c, 2, 49, 41
4, 17280, Note_on_c, 2, 45, 41
4, 17280, Note_on_c, 2, 42, 41
4, 17280, Note_on_c, 2, 30, 41
4, 17640, Note_on_c, 2, 30, 0
4, 17640, Note_on_c, 2, 45, 0
4, 17640, Note_on_c, 2, 54, 0
4, 17640, Note_on_c, 2, 49, 0
4, 17640, Note_on_c, 2, 42, 0
4, 17640, End_track
5, 0, Start_track
5, 0, MIDI_port, 0
5, 0, Title_t, "Chor"
5, 0, Program_c, 3, 61
5, 0, Control_c, 3, 7, 121
5, 0, Control_c, 3, 10, 64
5, 0, Control_c, 3, 93, 18
5, 0, Control_c, 3, 91, 11
5, 0, Control_c, 3, 7, 100
5, 0, End_track
0, 0, End_of_file