0, 0, Header, 1, 4, 120
1, 0, Start_track
1, 0, Title_t, "Menuetto in D - Major uncatalogued (1793)"
1, 0, Title_t, "London, (British Library, Kafka Miscellany, folio 39recto "
1, 0, Copyright_t, "Copyright \251 2002 di FIORELLA ED ARMANDO ORLANDI"
1, 0, Text_t, "FIORELLA ED ARMANDO ORLANDI\012"
1, 0, Time_signature, 3, 2, 24, 8
1, 0, Key_signature, 2, "major"
1, 0, Tempo, 512821
1, 3120, Tempo, 512821
1, 11314, Tempo, 512821
1, 11320, Tempo, 517241
1, 11324, Tempo, 521739
1, 11328, Tempo, 526316
1, 11334, Tempo, 530973
1, 11338, Tempo, 535714
1, 11342, Tempo, 540541
1, 11346, Tempo, 545455
1, 11352, Tempo, 550459
1, 11356, Tempo, 555556
1, 11360, Tempo, 560748
1, 11364, Tempo, 566038
1, 11370, Tempo, 571429
1, 11374, Tempo, 576923
1, 11378, Tempo, 582524
1, 11382, Tempo, 588235
1, 11388, Tempo, 594059
1, 11392, Tempo, 600000
1, 11396, Tempo, 606061
1, 11400, Tempo, 612245
1, 11406, Tempo, 618557
1, 11410, Tempo, 625000
1, 11414, Tempo, 631579
1, 11418, Tempo, 638298
1, 11424, Tempo, 645161
1, 11428, Tempo, 652174
1, 11432, Tempo, 659341
1, 11436, Tempo, 666667
1, 11442, Tempo, 674157
1, 11446, Tempo, 681818
1, 11450, Tempo, 689655
1, 11456, Tempo, 697674
1, 11460, Tempo, 705882
1, 11464, Tempo, 714286
1, 11468, Tempo, 722892
1, 11474, Tempo, 731707
1, 11478, Tempo, 740741
1, 11482, Tempo, 750000
1, 11486, Tempo, 759494
1, 11492, Tempo, 769231
1, 11496, Tempo, 779221
1, 11500, Tempo, 789474
1, 11504, Tempo, 800000
1, 11510, Tempo, 810811
1, 11514, Tempo, 821918
1, 11518, Tempo, 833333
1, 11522, Tempo, 845070
1, 11528, Tempo, 857143
1, 11532, Tempo, 869565
1, 11536, Tempo, 882353
1, 11540, Tempo, 895522
1, 11546, Tempo, 909091
1, 11550, Tempo, 923077
1, 11554, Tempo, 937500
1, 11558, Tempo, 952381
1, 11564, Tempo, 967742
1, 11568, Tempo, 983607
1, 11572, Tempo, 1000000
1, 11578, Tempo, 1016949
1, 11582, Tempo, 1034483
1, 11586, Tempo, 1052632
1, 11590, Tempo, 1071429
1, 11596, Tempo, 1090909
1, 11600, Tempo, 1111111
1, 11604, Tempo, 1132075
1, 11608, Tempo, 1153846
1, 11614, Tempo, 1176471
1, 11618, Tempo, 1200000
1, 11622, Tempo, 1224490
1, 11626, Tempo, 1250000
1, 11632, Tempo, 1276596
1, 11636, Tempo, 1304348
1, 11640, Tempo, 1333333
1, 11644, Tempo, 1363636
1, 11650, Tempo, 1395349
1, 11654, Tempo, 1428571
1, 11658, Tempo, 1463415
1, 11662, Tempo, 1500000
1, 11668, Tempo, 1538462
1, 11672, Tempo, 1578947
1, 11676, Tempo, 1621622
1, 11680, Tempo, 1666667
1, 11686, Tempo, 1714286
1, 11690, Tempo, 1764706
1, 11694, Tempo, 1818182
1, 11700, Tempo, 1875000
1, 11704, Tempo, 1935484
1, 11708, Tempo, 2000000
1, 11712, Tempo, 2068966
1, 11718, Tempo, 2142857
1, 11722, Tempo, 2222222
1, 11726, Tempo, 2307692
1, 11730, Tempo, 2400000
1, 11736, Tempo, 2500000
1, 11740, Tempo, 2608696
1, 11744, Tempo, 2727273
1, 11748, Tempo, 2857143
1, 11754, Tempo, 3000000
1, 11758, Tempo, 3157895
1, 11762, Tempo, 3333333
1, 11766, Tempo, 3529412
1, 11772, Tempo, 3750000
1, 11776, Tempo, 4000000
1, 11780, Tempo, 4285714
1, 11784, Tempo, 4615385
1, 11790, Tempo, 5000000
1, 11794, Tempo, 5454545
1, 11798, Tempo, 6000000
1, 11802, Tempo, 6666667
1, 11808, Tempo, 7500000
1, 11812, Tempo, 7500000
1, 11816, Tempo, 7500000
1, 11820, Tempo, 7500000
1, 11820, End_track
2, 0, Start_track
2, 0, Title_t, "PianoR"
2, 0, Program_c, 0, 0
2, 0, Control_c, 0, 7, 127
2, 0, Control_c, 0, 10, 45
2, 0, Control_c, 0, 93, 15
2, 0, Control_c, 0, 91, 21
2, 240, Note_on_c, 0, 74, 75
2, 330, Note_on_c, 0, 74, 0
2, 330, Note_on_c, 0, 76, 66
2, 360, Note_on_c, 0, 76, 0
2, 360, Note_on_c, 0, 69, 66
2, 360, Note_on_c, 0, 78, 66
2, 480, Note_on_c, 0, 78, 0
2, 480, Note_on_c, 0, 69, 0
2, 480, Note_on_c, 0, 69, 66
2, 480, Note_on_c, 0, 78, 66
2, 600, Note_on_c, 0, 78, 0
2, 600, Note_on_c, 0, 69, 0
2, 600, Note_on_c, 0, 78, 65
2, 600, Note_on_c, 0, 69, 66
2, 690, Note_on_c, 0, 78, 0
2, 690, Note_on_c, 0, 78, 66
2, 720, Note_on_c, 0, 78, 0
2, 720, Note_on_c, 0, 69, 0
2, 720, Note_on_c, 0, 78, 66
2, 720, Note_on_c, 0, 69, 66
2, 780, Note_on_c, 0, 78, 0
2, 780, Note_on_c, 0, 76, 66
2, 840, Note_on_c, 0, 76, 0
2, 840, Note_on_c, 0, 69, 0
2, 840, Note_on_c, 0, 69, 66
2, 840, Note_on_c, 0, 76, 66
2, 960, Note_on_c, 0, 76, 0
2, 960, Note_on_c, 0, 69, 0
2, 960, Note_on_c, 0, 78, 66
2, 960, Note_on_c, 0, 69, 66
2, 1020, Note_on_c, 0, 78, 0
2, 1020, Note_on_c, 0, 79, 66
2, 1080, Note_on_c, 0, 79, 0
2, 1080, Note_on_c, 0, 69, 0
2, 1080, Note_on_c, 0, 81, 65
2, 1080, Note_on_c, 0, 69, 66
2, 1170, Note_on_c, 0, 81, 0
2, 1170, Note_on_c, 0, 83, 66
2, 1200, Note_on_c, 0, 83, 0
2, 1200, Note_on_c, 0, 69, 0
2, 1200, Note_on_c, 0, 79, 65
2, 1200, Note_on_c, 0, 69, 66
2, 1290, Note_on_c, 0, 79, 0
2, 1290, Note_on_c, 0, 81, 66
2, 1320, Note_on_c, 0, 81, 0
2, 1320, Note_on_c, 0, 69, 0
2, 1320, Note_on_c, 0, 78, 65
2, 1320, Note_on_c, 0, 69, 66
2, 1410, Note_on_c, 0, 78, 0
2, 1410, Note_on_c, 0, 79, 66
2, 1440, Note_on_c, 0, 79, 0
2, 1440, Note_on_c, 0, 69, 0
2, 1440, Note_on_c, 0, 78, 66
2, 1440, Note_on_c, 0, 69, 66
2, 1560, Note_on_c, 0, 78, 0
2, 1560, Note_on_c, 0, 76, 66
2, 1680, Note_on_c, 0, 76, 0
2, 1680, Note_on_c, 0, 69, 0
2, 1680, Note_on_c, 0, 74, 65
2, 1770, Note_on_c, 0, 74, 0
2, 1770, Note_on_c, 0, 76, 66
2, 1800, Note_on_c, 0, 76, 0
2, 1800, Note_on_c, 0, 74, 66
2, 1800, Note_on_c, 0, 78, 66
2, 1920, Note_on_c, 0, 78, 0
2, 1920, Note_on_c, 0, 74, 0
2, 1920, Note_on_c, 0, 74, 66
2, 1920, Note_on_c, 0, 78, 66
2, 2040, Note_on_c, 0, 78, 0
2, 2040, Note_on_c, 0, 74, 0
2, 2040, Note_on_c, 0, 78, 65
2, 2040, Note_on_c, 0, 74, 66
2, 2130, Note_on_c, 0, 78, 0
2, 2130, Note_on_c, 0, 78, 66
2, 2160, Note_on_c, 0, 78, 0
2, 2160, Note_on_c, 0, 74, 0
2, 2160, Note_on_c, 0, 78, 66
2, 2160, Note_on_c, 0, 71, 66
2, 2220, Note_on_c, 0, 78, 0
2, 2220, Note_on_c, 0, 76, 66
2, 2280, Note_on_c, 0, 76, 0
2, 2280, Note_on_c, 0, 76, 66
2, 2400, Note_on_c, 0, 76, 0
2, 2400, Note_on_c, 0, 71, 0
2, 2400, Note_on_c, 0, 74, 66
2, 2400, Note_on_c, 0, 64, 66
2, 2460, Note_on_c, 0, 74, 0
2, 2460, Note_on_c, 0, 73, 66
2, 2520, Note_on_c, 0, 64, 0
2, 2520, Note_on_c, 0, 66, 66
2, 2580, Note_on_c, 0, 73, 0
2, 2580, Note_on_c, 0, 71, 66
2, 2640, Note_on_c, 0, 71, 0
2, 2640, Note_on_c, 0, 66, 0
2, 2640, Note_on_c, 0, 69, 66
2, 2640, Note_on_c, 0, 64, 66
2, 2760, Note_on_c, 0, 64, 0
2, 2760, Note_on_c, 0, 69, 0
2, 2760, Note_on_c, 0, 69, 66
2, 2760, Note_on_c, 0, 64, 66
2, 2820, Note_on_c, 0, 69, 0
2, 2820, Note_on_c, 0, 68, 66
2, 2880, Note_on_c, 0, 68, 0
2, 2880, Note_on_c, 0, 64, 0
2, 2880, Note_on_c, 0, 71, 66
2, 2880, Note_on_c, 0, 62, 66
2, 3000, Note_on_c, 0, 62, 0
2, 3000, Note_on_c, 0, 71, 0
2, 3000, Note_on_c, 0, 69, 66
2, 3000, Note_on_c, 0, 61, 66
2, 3120, Note_on_c, 0, 61, 0
2, 3120, Note_on_c, 0, 69, 0
2, 3120, Control_c, 0, 93, 15
2, 3120, Control_c, 0, 91, 21
2, 3120, Note_on_c, 0, 74, 75
2, 3210, Note_on_c, 0, 74, 0
2, 3210, Note_on_c, 0, 76, 66
2, 3240, Note_on_c, 0, 76, 0
2, 3240, Note_on_c, 0, 69, 66
2, 3240, Note_on_c, 0, 78, 66
2, 3360, Note_on_c, 0, 78, 0
2, 3360, Note_on_c, 0, 69, 0
2, 3360, Note_on_c, 0, 69, 66
2, 3360, Note_on_c, 0, 78, 66
2, 3480, Note_on_c, 0, 78, 0
2, 3480, Note_on_c, 0, 69, 0
2, 3480, Note_on_c, 0, 78, 65
2, 3480, Note_on_c, 0, 69, 66
2, 3570, Note_on_c, 0, 78, 0
2, 3570, Note_on_c, 0, 78, 66
2, 3600, Note_on_c, 0, 78, 0
2, 3600, Note_on_c, 0, 69, 0
2, 3600, Note_on_c, 0, 78, 66
2, 3600, Note_on_c, 0, 69, 66
2, 3660, Note_on_c, 0, 78, 0
2, 3660, Note_on_c, 0, 76, 66
2, 3720, Note_on_c, 0, 76, 0
2, 3720, Note_on_c, 0, 69, 0
2, 3720, Note_on_c, 0, 69, 66
2, 3720, Note_on_c, 0, 76, 66
2, 3840, Note_on_c, 0, 76, 0
2, 3840, Note_on_c, 0, 69, 0
2, 3840, Note_on_c, 0, 78, 66
2, 3840, Note_on_c, 0, 69, 66
2, 3900, Note_on_c, 0, 78, 0
2, 3900, Note_on_c, 0, 79, 66
2, 3960, Note_on_c, 0, 79, 0
2, 3960, Note_on_c, 0, 69, 0
2, 3960, Note_on_c, 0, 81, 65
2, 3960, Note_on_c, 0, 69, 66
2, 4050, Note_on_c, 0, 81, 0
2, 4050, Note_on_c, 0, 83, 66
2, 4080, Note_on_c, 0, 83, 0
2, 4080, Note_on_c, 0, 69, 0
2, 4080, Note_on_c, 0, 79, 65
2, 4080, Note_on_c, 0, 69, 66
2, 4170, Note_on_c, 0, 79, 0
2, 4170, Note_on_c, 0, 81, 66
2, 4200, Note_on_c, 0, 81, 0
2, 4200, Note_on_c, 0, 69, 0
2, 4200, Note_on_c, 0, 78, 65
2, 4200, Note_on_c, 0, 69, 66
2, 4290, Note_on_c, 0, 78, 0
2, 4290, Note_on_c, 0, 79, 66
2, 4320, Note_on_c, 0, 79, 0
2, 4320, Note_on_c, 0, 69, 0
2, 4320, Note_on_c, 0, 78, 66
2, 4320, Note_on_c, 0, 69, 66
2, 4440, Note_on_c, 0, 78, 0
2, 4440, Note_on_c, 0, 76, 66
2, 4560, Note_on_c, 0, 76, 0
2, 4560, Note_on_c, 0, 69, 0
2, 4560, Note_on_c, 0, 74, 65
2, 4650, Note_on_c, 0, 74, 0
2, 4650, Note_on_c, 0, 76, 66
2, 4680, Note_on_c, 0, 76, 0
2, 4680, Note_on_c, 0, 74, 66
2, 4680, Note_on_c, 0, 78, 66
2, 4800, Note_on_c, 0, 78, 0
2, 4800, Note_on_c, 0, 74, 0
2, 4800, Note_on_c, 0, 74, 66
2, 4800, Note_on_c, 0, 78, 66
2, 4920, Note_on_c, 0, 78, 0
2, 4920, Note_on_c, 0, 74, 0
2, 4920, Note_on_c, 0, 78, 65
2, 4920, Note_on_c, 0, 74, 66
2, 5010, Note_on_c, 0, 78, 0
2, 5010, Note_on_c, 0, 78, 66
2, 5040, Note_on_c, 0, 78, 0
2, 5040, Note_on_c, 0, 74, 0
2, 5040, Note_on_c, 0, 78, 66
2, 5040, Note_on_c, 0, 71, 66
2, 5100, Note_on_c, 0, 78, 0
2, 5100, Note_on_c, 0, 76, 66
2, 5160, Note_on_c, 0, 76, 0
2, 5160, Note_on_c, 0, 76, 66
2, 5280, Note_on_c, 0, 76, 0
2, 5280, Note_on_c, 0, 71, 0
2, 5280, Note_on_c, 0, 74, 66
2, 5280, Note_on_c, 0, 64, 66
2, 5340, Note_on_c, 0, 74, 0
2, 5340, Note_on_c, 0, 73, 66
2, 5400, Note_on_c, 0, 64, 0
2, 5400, Note_on_c, 0, 66, 66
2, 5460, Note_on_c, 0, 73, 0
2, 5460, Note_on_c, 0, 71, 66
2, 5520, Note_on_c, 0, 71, 0
2, 5520, Note_on_c, 0, 66, 0
2, 5520, Note_on_c, 0, 69, 66
2, 5520, Note_on_c, 0, 64, 66
2, 5640, Note_on_c, 0, 64, 0
2, 5640, Note_on_c, 0, 69, 0
2, 5640, Note_on_c, 0, 69, 66
2, 5640, Note_on_c, 0, 64, 66
2, 5700, Note_on_c, 0, 69, 0
2, 5700, Note_on_c, 0, 68, 66
2, 5760, Note_on_c, 0, 68, 0
2, 5760, Note_on_c, 0, 64, 0
2, 5760, Note_on_c, 0, 71, 66
2, 5760, Note_on_c, 0, 62, 66
2, 5880, Note_on_c, 0, 62, 0
2, 5880, Note_on_c, 0, 71, 0
2, 5880, Note_on_c, 0, 69, 66
2, 5880, Note_on_c, 0, 61, 66
2, 6000, Note_on_c, 0, 61, 0
2, 6000, Note_on_c, 0, 69, 0
2, 6000, Note_on_c, 0, 69, 66
2, 6120, Note_on_c, 0, 69, 0
2, 6120, Note_on_c, 0, 66, 66
2, 6120, Note_on_c, 0, 74, 66
2, 6240, Note_on_c, 0, 74, 0
2, 6240, Note_on_c, 0, 74, 66
2, 6360, Note_on_c, 0, 74, 0
2, 6360, Note_on_c, 0, 66, 0
2, 6360, Note_on_c, 0, 74, 66
2, 6360, Note_on_c, 0, 68, 66
2, 6450, Note_on_c, 0, 74, 0
2, 6450, Note_on_c, 0, 74, 66
2, 6480, Note_on_c, 0, 74, 0
2, 6480, Note_on_c, 0, 68, 0
2, 6480, Note_on_c, 0, 69, 66
2, 6480, Note_on_c, 0, 74, 66
2, 6600, Note_on_c, 0, 74, 0
2, 6600, Note_on_c, 0, 73, 66
2, 6720, Note_on_c, 0, 73, 0
2, 6720, Note_on_c, 0, 69, 0
2, 6720, Note_on_c, 0, 72, 66
2, 6720, Note_on_c, 0, 69, 66
2, 6810, Note_on_c, 0, 72, 0
2, 6810, Note_on_c, 0, 72, 66
2, 6840, Note_on_c, 0, 72, 0
2, 6840, Note_on_c, 0, 69, 0
2, 6840, Note_on_c, 0, 71, 66
2, 6840, Note_on_c, 0, 67, 66
2, 6960, Note_on_c, 0, 67, 0
2, 6960, Note_on_c, 0, 71, 0
2, 6960, Note_on_c, 0, 83, 66
2, 7020, Note_on_c, 0, 83, 0
2, 7020, Note_on_c, 0, 81, 66
2, 7080, Note_on_c, 0, 81, 0
2, 7080, Note_on_c, 0, 79, 66
2, 7080, Note_on_c, 0, 71, 66
2, 7140, Note_on_c, 0, 79, 0
2, 7140, Note_on_c, 0, 78, 66
2, 7200, Note_on_c, 0, 78, 0
2, 7200, Note_on_c, 0, 71, 0
2, 7200, Note_on_c, 0, 69, 66
2, 7200, Note_on_c, 0, 78, 66
2, 7320, Note_on_c, 0, 78, 0
2, 7320, Note_on_c, 0, 76, 66
2, 7440, Note_on_c, 0, 76, 0
2, 7440, Note_on_c, 0, 69, 0
2, 7440, Note_on_c, 0, 74, 66
2, 7530, Note_on_c, 0, 74, 0
2, 7530, Note_on_c, 0, 76, 66
2, 7555, Note_on_c, 0, 69, 66
2, 7555, Note_on_c, 0, 78, 66
2, 7560, Note_on_c, 0, 76, 0
2, 7675, Note_on_c, 0, 78, 0
2, 7675, Note_on_c, 0, 69, 0
2, 7675, Note_on_c, 0, 69, 66
2, 7675, Note_on_c, 0, 78, 66
2, 7795, Note_on_c, 0, 78, 0
2, 7795, Note_on_c, 0, 69, 0
2, 7795, Note_on_c, 0, 78, 65
2, 7795, Note_on_c, 0, 69, 66
2, 7885, Note_on_c, 0, 78, 0
2, 7885, Note_on_c, 0, 78, 66
2, 7915, Note_on_c, 0, 78, 0
2, 7915, Note_on_c, 0, 69, 0
2, 7915, Note_on_c, 0, 78, 66
2, 7915, Note_on_c, 0, 69, 66
2, 7975, Note_on_c, 0, 78, 0
2, 7975, Note_on_c, 0, 76, 66
2, 8035, Note_on_c, 0, 76, 0
2, 8035, Note_on_c, 0, 69, 0
2, 8035, Note_on_c, 0, 69, 66
2, 8035, Note_on_c, 0, 76, 66
2, 8155, Note_on_c, 0, 76, 0
2, 8155, Note_on_c, 0, 69, 0
2, 8155, Note_on_c, 0, 78, 66
2, 8155, Note_on_c, 0, 69, 66
2, 8215, Note_on_c, 0, 78, 0
2, 8215, Note_on_c, 0, 79, 66
2, 8275, Note_on_c, 0, 79, 0
2, 8275, Note_on_c, 0, 69, 0
2, 8280, Note_on_c, 0, 81, 66
2, 8280, Note_on_c, 0, 69, 66
2, 8340, Note_on_c, 0, 81, 0
2, 8340, Note_on_c, 0, 78, 66
2, 8400, Note_on_c, 0, 78, 0
2, 8400, Note_on_c, 0, 69, 0
2, 8400, Note_on_c, 0, 74, 66
2, 8400, Note_on_c, 0, 66, 66
2, 8460, Note_on_c, 0, 74, 0
2, 8460, Note_on_c, 0, 73, 66
2, 8520, Note_on_c, 0, 73, 0
2, 8520, Note_on_c, 0, 66, 0
2, 8520, Note_on_c, 0, 76, 66
2, 8520, Note_on_c, 0, 67, 66
2, 8580, Note_on_c, 0, 76, 0
2, 8580, Note_on_c, 0, 73, 66
2, 8640, Note_on_c, 0, 73, 0
2, 8640, Note_on_c, 0, 67, 0
2, 8640, Note_on_c, 0, 76, 66
2, 8640, Note_on_c, 0, 67, 66
2, 8760, Note_on_c, 0, 67, 0
2, 8760, Note_on_c, 0, 76, 0
2, 8760, Note_on_c, 0, 74, 66
2, 8760, Note_on_c, 0, 66, 66
2, 8879, Note_on_c, 0, 69, 66
2, 8880, Note_on_c, 0, 66, 0
2, 8880, Note_on_c, 0, 74, 0
2, 8999, Note_on_c, 0, 69, 0
2, 8999, Note_on_c, 0, 66, 66
2, 8999, Note_on_c, 0, 74, 66
2, 9119, Note_on_c, 0, 74, 0
2, 9119, Note_on_c, 0, 74, 66
2, 9239, Note_on_c, 0, 74, 0
2, 9239, Note_on_c, 0, 66, 0
2, 9239, Note_on_c, 0, 74, 66
2, 9239, Note_on_c, 0, 68, 66
2, 9329, Note_on_c, 0, 74, 0
2, 9329, Note_on_c, 0, 74, 66
2, 9359, Note_on_c, 0, 74, 0
2, 9359, Note_on_c, 0, 68, 0
2, 9359, Note_on_c, 0, 69, 66
2, 9359, Note_on_c, 0, 74, 66
2, 9479, Note_on_c, 0, 74, 0
2, 9479, Note_on_c, 0, 73, 66
2, 9599, Note_on_c, 0, 73, 0
2, 9599, Note_on_c, 0, 69, 0
2, 9599, Note_on_c, 0, 72, 66
2, 9599, Note_on_c, 0, 69, 66
2, 9689, Note_on_c, 0, 72, 0
2, 9689, Note_on_c, 0, 72, 66
2, 9719, Note_on_c, 0, 72, 0
2, 9719, Note_on_c, 0, 69, 0
2, 9719, Note_on_c, 0, 71, 66
2, 9719, Note_on_c, 0, 67, 66
2, 9839, Note_on_c, 0, 67, 0
2, 9839, Note_on_c, 0, 71, 0
2, 9839, Note_on_c, 0, 83, 66
2, 9899, Note_on_c, 0, 83, 0
2, 9899, Note_on_c, 0, 81, 66
2, 9959, Note_on_c, 0, 81, 0
2, 9959, Note_on_c, 0, 79, 66
2, 9959, Note_on_c, 0, 71, 66
2, 10019, Note_on_c, 0, 79, 0
2, 10019, Note_on_c, 0, 78, 66
2, 10079, Note_on_c, 0, 78, 0
2, 10079, Note_on_c, 0, 71, 0
2, 10079, Note_on_c, 0, 69, 66
2, 10079, Note_on_c, 0, 78, 66
2, 10199, Note_on_c, 0, 78, 0
2, 10199, Note_on_c, 0, 76, 66
2, 10319, Note_on_c, 0, 76, 0
2, 10319, Note_on_c, 0, 69, 0
2, 10319, Note_on_c, 0, 74, 66
2, 10409, Note_on_c, 0, 74, 0
2, 10409, Note_on_c, 0, 76, 66
2, 10434, Note_on_c, 0, 69, 66
2, 10434, Note_on_c, 0, 78, 66
2, 10439, Note_on_c, 0, 76, 0
2, 10554, Note_on_c, 0, 78, 0
2, 10554, Note_on_c, 0, 69, 0
2, 10554, Note_on_c, 0, 69, 66
2, 10554, Note_on_c, 0, 78, 66
2, 10674, Note_on_c, 0, 78, 0
2, 10674, Note_on_c, 0, 69, 0
2, 10674, Note_on_c, 0, 78, 65
2, 10674, Note_on_c, 0, 69, 66
2, 10764, Note_on_c, 0, 78, 0
2, 10764, Note_on_c, 0, 78, 66
2, 10794, Note_on_c, 0, 78, 0
2, 10794, Note_on_c, 0, 69, 0
2, 10794, Note_on_c, 0, 78, 66
2, 10794, Note_on_c, 0, 69, 66
2, 10854, Note_on_c, 0, 78, 0
2, 10854, Note_on_c, 0, 76, 66
2, 10914, Note_on_c, 0, 76, 0
2, 10914, Note_on_c, 0, 69, 0
2, 10914, Note_on_c, 0, 69, 66
2, 10914, Note_on_c, 0, 76, 66
2, 11034, Note_on_c, 0, 76, 0
2, 11034, Note_on_c, 0, 69, 0
2, 11034, Note_on_c, 0, 78, 66
2, 11034, Note_on_c, 0, 69, 66
2, 11094, Note_on_c, 0, 78, 0
2, 11094, Note_on_c, 0, 79, 66
2, 11154, Note_on_c, 0, 79, 0
2, 11154, Note_on_c, 0, 69, 0
2, 11159, Note_on_c, 0, 81, 66
2, 11159, Note_on_c, 0, 69, 66
2, 11219, Note_on_c, 0, 81, 0
2, 11219, Note_on_c, 0, 78, 66
2, 11279, Note_on_c, 0, 78, 0
2, 11279, Note_on_c, 0, 69, 0
2, 11279, Note_on_c, 0, 74, 66
2, 11279, Note_on_c, 0, 66, 66
2, 11339, Note_on_c, 0, 74, 0
2, 11339, Note_on_c, 0, 73, 66
2, 11399, Note_on_c, 0, 73, 0
2, 11399, Note_on_c, 0, 66, 0
2, 11399, Note_on_c, 0, 76, 66
2, 11399, Note_on_c, 0, 67, 66
2, 11459, Note_on_c, 0, 76, 0
2, 11459, Note_on_c, 0, 73, 66
2, 11519, Note_on_c, 0, 73, 0
2, 11519, Note_on_c, 0, 67, 0
2, 11519, Note_on_c, 0, 76, 66
2, 11519, Note_on_c, 0, 67, 66
2, 11639, Note_on_c, 0, 67, 0
2, 11639, Note_on_c, 0, 76, 0
2, 11639, Note_on_c, 0, 74, 66
2, 11639, Note_on_c, 0, 66, 66
2, 11759, Note_on_c, 0, 66, 0
2, 11759, Note_on_c, 0, 74, 0
2, 11759, End_track
3, 0, Start_track
3, 0, Title_t, "PianoL"
3, 0, Program_c, 1, 0
3, 0, Control_c, 1, 7, 127
3, 0, Control_c, 1, 10, 83
3, 0, Control_c, 1, 93, 13
3, 0, Control_c, 1, 91, 18
3, 360, Note_on_c, 1, 50, 66
3, 360, Note_on_c, 1, 62, 66
3, 480, Note_on_c, 1, 62, 0
3, 480, Note_on_c, 1, 50, 0
3, 480, Note_on_c, 1, 54, 66
3, 480, Note_on_c, 1, 62, 66
3, 600, Note_on_c, 1, 62, 0
3, 600, Note_on_c, 1, 54, 0
3, 600, Note_on_c, 1, 50, 66
3, 600, Note_on_c, 1, 62, 66
3, 720, Note_on_c, 1, 62, 0
3, 720, Note_on_c, 1, 50, 0
3, 720, Note_on_c, 1, 62, 66
3, 720, Note_on_c, 1, 55, 66
3, 780, Note_on_c, 1, 62, 0
3, 780, Note_on_c, 1, 61, 66
3, 840, Note_on_c, 1, 61, 0
3, 840, Note_on_c, 1, 55, 0
3, 840, Note_on_c, 1, 61, 66
3, 840, Note_on_c, 1, 55, 66
3, 960, Note_on_c, 1, 55, 0
3, 960, Note_on_c, 1, 61, 0
3, 960, Note_on_c, 1, 54, 66
3, 960, Note_on_c, 1, 62, 66
3, 1020, Note_on_c, 1, 62, 0
3, 1020, Note_on_c, 1, 54, 0
3, 1020, Note_on_c, 1, 52, 66
3, 1020, Note_on_c, 1, 64, 66
3, 1080, Note_on_c, 1, 64, 0
3, 1080, Note_on_c, 1, 52, 0
3, 1080, Note_on_c, 1, 62, 66
3, 1080, Note_on_c, 1, 54, 66
3, 1200, Note_on_c, 1, 54, 0
3, 1200, Note_on_c, 1, 62, 0
3, 1200, Note_on_c, 1, 52, 66
3, 1200, Note_on_c, 1, 61, 66
3, 1320, Note_on_c, 1, 61, 0
3, 1320, Note_on_c, 1, 52, 0
3, 1320, Note_on_c, 1, 50, 66
3, 1320, Note_on_c, 1, 62, 66
3, 1440, Note_on_c, 1, 62, 0
3, 1440, Note_on_c, 1, 50, 0
3, 1440, Note_on_c, 1, 57, 66
3, 1440, Note_on_c, 1, 62, 66
3, 1560, Note_on_c, 1, 62, 0
3, 1560, Note_on_c, 1, 61, 66
3, 1680, Note_on_c, 1, 61, 0
3, 1680, Note_on_c, 1, 57, 0
3, 1800, Note_on_c, 1, 62, 66
3, 1920, Note_on_c, 1, 62, 0
3, 1920, Note_on_c, 1, 59, 66
3, 2040, Note_on_c, 1, 59, 0
3, 2040, Note_on_c, 1, 57, 66
3, 2160, Note_on_c, 1, 57, 0
3, 2160, Note_on_c, 1, 56, 66
3, 2400, Note_on_c, 1, 56, 0
3, 2400, Note_on_c, 1, 57, 66
3, 2520, Note_on_c, 1, 57, 0
3, 2520, Note_on_c, 1, 50, 66
3, 2640, Note_on_c, 1, 50, 0
3, 2640, Note_on_c, 1, 52, 66
3, 2760, Note_on_c, 1, 52, 0
3, 2760, Note_on_c, 1, 40, 66
3, 2880, Note_on_c, 1, 40, 0
3, 2880, Note_on_c, 1, 45, 66
3, 3000, Note_on_c, 1, 45, 0
3, 3120, Control_c, 1, 93, 13
3, 3120, Control_c, 1, 91, 18
3, 3240, Note_on_c, 1, 50, 66
3, 3240, Note_on_c, 1, 62, 66
3, 3360, Note_on_c, 1, 62, 0
3, 3360, Note_on_c, 1, 50, 0
3, 3360, Note_on_c, 1, 54, 66
3, 3360, Note_on_c, 1, 62, 66
3, 3480, Note_on_c, 1, 62, 0
3, 3480, Note_on_c, 1, 54, 0
3, 3480, Note_on_c, 1, 50, 66
3, 3480, Note_on_c, 1, 62, 66
3, 3600, Note_on_c, 1, 62, 0
3, 3600, Note_on_c, 1, 50, 0
3, 3600, Note_on_c, 1, 62, 66
3, 3600, Note_on_c, 1, 55, 66
3, 3660, Note_on_c, 1, 62, 0
3, 3660, Note_on_c, 1, 61, 66
3, 3720, Note_on_c, 1, 61, 0
3, 3720, Note_on_c, 1, 55, 0
3, 3720, Note_on_c, 1, 61, 66
3, 3720, Note_on_c, 1, 55, 66
3, 3840, Note_on_c, 1, 55, 0
3, 3840, Note_on_c, 1, 61, 0
3, 3840, Note_on_c, 1, 54, 66
3, 3840, Note_on_c, 1, 62, 66
3, 3900, Note_on_c, 1, 62, 0
3, 3900, Note_on_c, 1, 54, 0
3, 3900, Note_on_c, 1, 52, 66
3, 3900, Note_on_c, 1, 64, 66
3, 3960, Note_on_c, 1, 64, 0
3, 3960, Note_on_c, 1, 52, 0
3, 3960, Note_on_c, 1, 62, 66
3, 3960, Note_on_c, 1, 54, 66
3, 4080, Note_on_c, 1, 54, 0
3, 4080, Note_on_c, 1, 62, 0
3, 4080, Note_on_c, 1, 52, 66
3, 4080, Note_on_c, 1, 61, 66
3, 4200, Note_on_c, 1, 61, 0
3, 4200, Note_on_c, 1, 52, 0
3, 4200, Note_on_c, 1, 50, 66
3, 4200, Note_on_c, 1, 62, 66
3, 4320, Note_on_c, 1, 62, 0
3, 4320, Note_on_c, 1, 50, 0
3, 4320, Note_on_c, 1, 57, 66
3, 4320, Note_on_c, 1, 62, 66
3, 4440, Note_on_c, 1, 62, 0
3, 4440, Note_on_c, 1, 61, 66
3, 4560, Note_on_c, 1, 61, 0
3, 4560, Note_on_c, 1, 57, 0
3, 4680, Note_on_c, 1, 62, 66
3, 4800, Note_on_c, 1, 62, 0
3, 4800, Note_on_c, 1, 59, 66
3, 4920, Note_on_c, 1, 59, 0
3, 4920, Note_on_c, 1, 57, 66
3, 5040, Note_on_c, 1, 57, 0
3, 5040, Note_on_c, 1, 56, 66
3, 5280, Note_on_c, 1, 56, 0
3, 5280, Note_on_c, 1, 57, 66
3, 5400, Note_on_c, 1, 57, 0
3, 5400, Note_on_c, 1, 50, 66
3, 5520, Note_on_c, 1, 50, 0
3, 5520, Note_on_c, 1, 52, 66
3, 5640, Note_on_c, 1, 52, 0
3, 5640, Note_on_c, 1, 40, 66
3, 5760, Note_on_c, 1, 40, 0
3, 5760, Note_on_c, 1, 45, 66
3, 5880, Note_on_c, 1, 45, 0
3, 6120, Note_on_c, 1, 62, 66
3, 6120, Note_on_c, 1, 59, 66
3, 6360, Note_on_c, 1, 59, 0
3, 6360, Note_on_c, 1, 62, 0
3, 6360, Note_on_c, 1, 62, 66
3, 6360, Note_on_c, 1, 59, 66
3, 6480, Note_on_c, 1, 59, 0
3, 6480, Note_on_c, 1, 62, 0
3, 6480, Note_on_c, 1, 64, 66
3, 6480, Note_on_c, 1, 57, 66
3, 6720, Note_on_c, 1, 57, 0
3, 6720, Note_on_c, 1, 64, 0
3, 6720, Note_on_c, 1, 62, 66
3, 6720, Note_on_c, 1, 54, 66
3, 6840, Note_on_c, 1, 54, 0
3, 6840, Note_on_c, 1, 62, 0
3, 6840, Note_on_c, 1, 55, 66
3, 6840, Note_on_c, 1, 62, 66
3, 6960, Note_on_c, 1, 62, 0
3, 6960, Note_on_c, 1, 55, 0
3, 7080, Note_on_c, 1, 62, 66
3, 7080, Note_on_c, 1, 55, 66
3, 7200, Note_on_c, 1, 55, 0
3, 7200, Note_on_c, 1, 57, 66
3, 7320, Note_on_c, 1, 62, 0
3, 7320, Note_on_c, 1, 61, 66
3, 7440, Note_on_c, 1, 61, 0
3, 7440, Note_on_c, 1, 57, 0
3, 7555, Note_on_c, 1, 50, 66
3, 7555, Note_on_c, 1, 62, 66
3, 7675, Note_on_c, 1, 62, 0
3, 7675, Note_on_c, 1, 50, 0
3, 7675, Note_on_c, 1, 54, 66
3, 7675, Note_on_c, 1, 62, 66
3, 7795, Note_on_c, 1, 62, 0
3, 7795, Note_on_c, 1, 54, 0
3, 7795, Note_on_c, 1, 50, 66
3, 7795, Note_on_c, 1, 62, 66
3, 7915, Note_on_c, 1, 62, 0
3, 7915, Note_on_c, 1, 50, 0
3, 7915, Note_on_c, 1, 62, 66
3, 7915, Note_on_c, 1, 55, 66
3, 7975, Note_on_c, 1, 62, 0
3, 7975, Note_on_c, 1, 61, 66
3, 8035, Note_on_c, 1, 61, 0
3, 8035, Note_on_c, 1, 55, 0
3, 8035, Note_on_c, 1, 61, 66
3, 8035, Note_on_c, 1, 55, 66
3, 8155, Note_on_c, 1, 55, 0
3, 8155, Note_on_c, 1, 61, 0
3, 8155, Note_on_c, 1, 54, 66
3, 8155, Note_on_c, 1, 62, 66
3, 8215, Note_on_c, 1, 62, 0
3, 8215, Note_on_c, 1, 54, 0
3, 8215, Note_on_c, 1, 52, 66
3, 8215, Note_on_c, 1, 64, 66
3, 8275, Note_on_c, 1, 64, 0
3, 8275, Note_on_c, 1, 52, 0
3, 8280, Note_on_c, 1, 54, 66
3, 8280, Note_on_c, 1, 62, 66
3, 8400, Note_on_c, 1, 62, 0
3, 8400, Note_on_c, 1, 54, 0
3, 8400, Note_on_c, 1, 57, 66
3, 8520, Note_on_c, 1, 57, 0
3, 8520, Note_on_c, 1, 45, 66
3, 8640, Note_on_c, 1, 45, 0
3, 8640, Note_on_c, 1, 50, 66
3, 8880, Note_on_c, 1, 50, 0
3, 8999, Note_on_c, 1, 62, 66
3, 8999, Note_on_c, 1, 59, 66
3, 9239, Note_on_c, 1, 59, 0
3, 9239, Note_on_c, 1, 62, 0
3, 9239, Note_on_c, 1, 62, 66
3, 9239, Note_on_c, 1, 59, 66
3, 9359, Note_on_c, 1, 59, 0
3, 9359, Note_on_c, 1, 62, 0
3, 9359, Note_on_c, 1, 64, 66
3, 9359, Note_on_c, 1, 57, 66
3, 9599, Note_on_c, 1, 57, 0
3, 9599, Note_on_c, 1, 64, 0
3, 9599, Note_on_c, 1, 62, 66
3, 9599, Note_on_c, 1, 54, 66
3, 9719, Note_on_c, 1, 54, 0
3, 9719, Note_on_c, 1, 62, 0
3, 9719, Note_on_c, 1, 55, 66
3, 9719, Note_on_c, 1, 62, 66
3, 9839, Note_on_c, 1, 62, 0
3, 9839, Note_on_c, 1, 55, 0
3, 9959, Note_on_c, 1, 62, 66
3, 9959, Note_on_c, 1, 55, 66
3, 10079, Note_on_c, 1, 55, 0
3, 10079, Note_on_c, 1, 57, 66
3, 10199, Note_on_c, 1, 62, 0
3, 10199, Note_on_c, 1, 61, 66
3, 10319, Note_on_c, 1, 61, 0
3, 10319, Note_on_c, 1, 57, 0
3, 10434, Note_on_c, 1, 50, 66
3, 10434, Note_on_c, 1, 62, 66
3, 10554, Note_on_c, 1, 62, 0
3, 10554, Note_on_c, 1, 50, 0
3, 10554, Note_on_c, 1, 54, 66
3, 10554, Note_on_c, 1, 62, 66
3, 10674, Note_on_c, 1, 62, 0
3, 10674, Note_on_c, 1, 54, 0
3, 10674, Note_on_c, 1, 50, 66
3, 10674, Note_on_c, 1, 62, 66
3, 10794, Note_on_c, 1, 62, 0
3, 10794, Note_on_c, 1, 50, 0
3, 10794, Note_on_c, 1, 62, 66
3, 10794, Note_on_c, 1, 55, 66
3, 10854, Note_on_c, 1, 62, 0
3, 10854, Note_on_c, 1, 61, 66
3, 10914, Note_on_c, 1, 61, 0
3, 10914, Note_on_c, 1, 55, 0
3, 10914, Note_on_c, 1, 61, 66
3, 10914, Note_on_c, 1, 55, 66
3, 11034, Note_on_c, 1, 55, 0
3, 11034, Note_on_c, 1, 61, 0
3, 11034, Note_on_c, 1, 54, 66
3, 11034, Note_on_c, 1, 62, 66
3, 11094, Note_on_c, 1, 62, 0
3, 11094, Note_on_c, 1, 54, 0
3, 11094, Note_on_c, 1, 52, 66
3, 11094, Note_on_c, 1, 64, 66
3, 11154, Note_on_c, 1, 64, 0
3, 11154, Note_on_c, 1, 52, 0
3, 11159, Note_on_c, 1, 54, 66
3, 11159, Note_on_c, 1, 62, 66
3, 11279, Note_on_c, 1, 62, 0
3, 11279, Note_on_c, 1, 54, 0
3, 11279, Note_on_c, 1, 57, 66
3, 11399, Note_on_c, 1, 57, 0
3, 11399, Note_on_c, 1, 45, 66
3, 11519, Note_on_c, 1, 45, 0
3, 11519, Note_on_c, 1, 50, 66
3, 11759, Note_on_c, 1, 50, 0
3, 11759, End_track
4, 0, Start_track
4, 0, End_track
0, 0, End_of_file