0, 0, Header, 1, 6, 240
1, 0, Start_track
1, 0, Time_signature, 4, 2, 24, 8
1, 0, Tempo, 625000
1, 0, Marker_t, "----------------------------"
1, 0, Marker_t, "               [GS] Beethoven: ROMANCE  Op.50"
1, 0, Marker_t, "\202kudwig van \202aEETHOVEN"
1, 0, Marker_t, "by MOCLIN(GBA02512)"
1, 0, Marker_t, "CVS Ver5.03 Created"
1, 0, Marker_t, "for piano solo"
1, 0, Marker_t, "Op.50"
1, 0, Marker_t, "Roland GS"
1, 0, Marker_t, "\201u\203\215\203}\203\223\203X\201v"
1, 60, Marker_t, "<SC-55 Reset>"
1, 120, Marker_t, "<Master Volume>"
1, 180, Marker_t, "<Master Reverve>"
1, 690, Marker_t, "<Env Attack>"
1, 700, Marker_t, "<Env Attack>"
1, 720, Tempo, 1250000
1, 720, Marker_t, "<Env Decay>"
1, 730, Marker_t, "<Env Decay>"
1, 750, Marker_t, "<Env Release>"
1, 760, Marker_t, "<Env Release>"
1, 960, Tempo, 1304348
1, 1080, Tempo, 1250000
1, 1320, Tempo, 1333333
1, 1440, Tempo, 1304348
1, 1560, Tempo, 1250000
1, 1800, Tempo, 1333333
1, 1920, Tempo, 1304348
1, 2040, Tempo, 1250000
1, 2280, Tempo, 1333333
1, 2400, Tempo, 1304348
1, 2520, Tempo, 1250000
1, 2760, Tempo, 1333333
1, 2880, Tempo, 1304348
1, 3000, Tempo, 1250000
1, 3240, Tempo, 1333333
1, 3360, Tempo, 1304348
1, 3480, Tempo, 1250000
1, 3720, Tempo, 1333333
1, 3840, Tempo, 1304348
1, 3960, Tempo, 1250000
1, 4200, Tempo, 1333333
1, 4260, Tempo, 1463415
1, 4320, Tempo, 1333333
1, 4440, Tempo, 1250000
1, 4680, Tempo, 1333333
1, 4800, Tempo, 1304348
1, 4920, Tempo, 1250000
1, 5160, Tempo, 1333333
1, 5280, Tempo, 1304348
1, 5400, Tempo, 1250000
1, 5640, Tempo, 1333333
1, 5760, Tempo, 1304348
1, 5880, Tempo, 1250000
1, 6120, Tempo, 1333333
1, 6240, Tempo, 1304348
1, 6360, Tempo, 1250000
1, 6600, Tempo, 1333333
1, 6720, Tempo, 1304348
1, 6840, Tempo, 1250000
1, 7080, Tempo, 1333333
1, 7200, Tempo, 1304348
1, 7320, Tempo, 1250000
1, 7560, Tempo, 1333333
1, 7680, Tempo, 1304348
1, 7800, Tempo, 1250000
1, 8040, Tempo, 1333333
1, 8100, Tempo, 1463415
1, 8160, Tempo, 1395349
1, 8220, Tempo, 1333333
1, 8280, Tempo, 1304348
1, 8340, Tempo, 1333333
1, 8400, Tempo, 1250000
1, 8460, Tempo, 1333333
1, 8520, Tempo, 1304348
1, 8580, Tempo, 1395349
1, 8640, Tempo, 1304348
1, 8760, Tempo, 1250000
1, 9000, Tempo, 1333333
1, 9120, Tempo, 1304348
1, 9240, Tempo, 1250000
1, 9480, Tempo, 1333333
1, 9600, Tempo, 1304348
1, 9720, Tempo, 1250000
1, 9960, Tempo, 1304348
1, 10080, Tempo, 1276596
1, 10200, Tempo, 1250000
1, 10440, Tempo, 1304348
1, 10560, Tempo, 1276596
1, 10680, Tempo, 1250000
1, 10920, Tempo, 1304348
1, 11040, Tempo, 1276596
1, 11160, Tempo, 1250000
1, 11400, Tempo, 1304348
1, 11520, Tempo, 1276596
1, 11640, Tempo, 1250000
1, 11880, Tempo, 1304348
1, 11940, Tempo, 1333333
1, 12000, Tempo, 1304348
1, 12120, Tempo, 1250000
1, 12240, Tempo, 1304348
1, 12360, Tempo, 1395349
1, 12480, Tempo, 1304348
1, 12540, Tempo, 1250000
1, 12600, Tempo, 1224490
1, 12660, Tempo, 1250000
1, 12720, Tempo, 1224490
1, 12780, Tempo, 1304348
1, 12840, Tempo, 1250000
1, 12900, Tempo, 1333333
1, 12960, Tempo, 1304348
1, 13080, Tempo, 1250000
1, 13320, Tempo, 1333333
1, 13440, Tempo, 1304348
1, 13500, Tempo, 1250000
1, 13560, Tempo, 1224490
1, 13620, Tempo, 1250000
1, 13680, Tempo, 1224490
1, 13740, Tempo, 1304348
1, 13800, Tempo, 1250000
1, 13860, Tempo, 1333333
1, 13920, Tempo, 1304348
1, 14040, Tempo, 1250000
1, 14280, Tempo, 1333333
1, 14400, Tempo, 1304348
1, 14520, Tempo, 1250000
1, 14760, Tempo, 1333333
1, 14880, Tempo, 1304348
1, 15000, Tempo, 1250000
1, 15120, Tempo, 1304348
1, 15240, Tempo, 1363636
1, 15300, Tempo, 1463415
1, 15360, Tempo, 1333333
1, 15480, Tempo, 1250000
1, 15600, Tempo, 1304348
1, 15810, Tempo, 1153846
1, 15840, Tempo, 1176471
1, 16080, Tempo, 1304348
1, 16290, Tempo, 1176471
1, 16320, Tempo, 1250000
1, 16560, Tempo, 1224490
1, 16770, Tempo, 1176471
1, 16800, Tempo, 1250000
1, 17040, Tempo, 1333333
1, 17250, Tempo, 1621622
1, 17280, Tempo, 1224490
1, 17640, Tempo, 1250000
1, 17880, Tempo, 1276596
1, 18000, Tempo, 1250000
1, 18060, Tempo, 1304348
1, 18120, Tempo, 1276596
1, 18180, Tempo, 1463415
1, 18240, Tempo, 1395349
1, 18480, Tempo, 1304348
1, 18690, Tempo, 2000000
1, 18720, Tempo, 1463415
1, 18960, Tempo, 1333333
1, 19200, Tempo, 1276596
1, 19320, Tempo, 1250000
1, 19560, Tempo, 1304348
1, 19680, Tempo, 1276596
1, 19800, Tempo, 1250000
1, 20040, Tempo, 1304348
1, 20160, Tempo, 1276596
1, 20280, Tempo, 1250000
1, 20520, Tempo, 1304348
1, 20640, Tempo, 1276596
1, 20760, Tempo, 1250000
1, 21000, Tempo, 1304348
1, 21120, Tempo, 1276596
1, 21240, Tempo, 1250000
1, 21480, Tempo, 1276596
1, 21600, Tempo, 1250000
1, 21840, Tempo, 1224490
1, 21960, Tempo, 1304348
1, 22080, Tempo, 1276596
1, 22200, Tempo, 1250000
1, 22440, Tempo, 1395349
1, 22560, Tempo, 1333333
1, 22680, Tempo, 1304348
1, 22800, Tempo, 1250000
1, 22920, Tempo, 1395349
1, 23040, Tempo, 1333333
1, 23160, Tempo, 1250000
1, 23400, Tempo, 1304348
1, 23520, Tempo, 1276596
1, 23640, Tempo, 1250000
1, 23880, Tempo, 1304348
1, 24000, Tempo, 1276596
1, 24120, Tempo, 1250000
1, 24360, Tempo, 1304348
1, 24480, Tempo, 1276596
1, 24600, Tempo, 1250000
1, 24840, Tempo, 1304348
1, 24960, Tempo, 1276596
1, 25080, Tempo, 1250000
1, 25320, Tempo, 1304348
1, 25440, Tempo, 1276596
1, 25560, Tempo, 1250000
1, 25800, Tempo, 1304348
1, 25920, Tempo, 1276596
1, 26040, Tempo, 1224490
1, 26160, Tempo, 1250000
1, 26280, Tempo, 1176471
1, 26400, Tempo, 1224490
1, 26520, Tempo, 1304348
1, 26640, Tempo, 1250000
1, 26760, Tempo, 1304348
1, 26880, Tempo, 1333333
1, 27000, Tempo, 1250000
1, 27120, Tempo, 1224490
1, 27240, Tempo, 1176471
1, 27360, Tempo, 1153846
1, 27480, Tempo, 1250000
1, 27600, Tempo, 1224490
1, 27720, Tempo, 1176471
1, 27840, Tempo, 1250000
1, 27960, Tempo, 1224490
1, 28200, Tempo, 1250000
1, 28320, Tempo, 1224490
1, 28440, Tempo, 1200000
1, 28680, Tempo, 1250000
1, 28800, Tempo, 1224490
1, 28920, Tempo, 1200000
1, 29160, Tempo, 1250000
1, 29280, Tempo, 1224490
1, 29400, Tempo, 1200000
1, 29640, Tempo, 1250000
1, 29880, Tempo, 1224490
1, 30120, Tempo, 1276596
1, 30240, Tempo, 1250000
1, 30360, Tempo, 1224490
1, 30480, Tempo, 1276596
1, 30600, Tempo, 1395349
1, 30720, Tempo, 1276596
1, 30840, Tempo, 1250000
1, 31080, Tempo, 1304348
1, 31200, Tempo, 1276596
1, 31320, Tempo, 1250000
1, 31440, Tempo, 1304348
1, 31560, Tempo, 1395349
1, 31620, Tempo, 1463415
1, 31650, Tempo, 1621622
1, 31680, Tempo, 1333333
1, 31920, Tempo, 1463415
1, 32130, Tempo, 1250000
1, 32160, Tempo, 1224490
1, 32370, Tempo, 1250000
1, 32400, Tempo, 1176471
1, 32610, Tempo, 1333333
1, 32640, Tempo, 1304348
1, 32760, Tempo, 1224490
1, 32880, Tempo, 1176471
1, 33000, Tempo, 1304348
1, 33120, Tempo, 1276596
1, 33240, Tempo, 1250000
1, 33480, Tempo, 1304348
1, 33600, Tempo, 1250000
1, 33840, Tempo, 1224490
1, 34050, Tempo, 1333333
1, 34080, Tempo, 1224490
1, 34290, Tempo, 1250000
1, 34320, Tempo, 1176471
1, 34530, Tempo, 1333333
1, 34560, Tempo, 1304348
1, 34680, Tempo, 1224490
1, 34800, Tempo, 1176471
1, 34920, Tempo, 1304348
1, 35040, Tempo, 1276596
1, 35160, Tempo, 1250000
1, 35400, Tempo, 1304348
1, 35490, Tempo, 1463415
1, 35520, Tempo, 1621622
1, 35560, Tempo, 1304348
1, 35600, Tempo, 1333333
1, 35640, Tempo, 1250000
1, 35760, Tempo, 1176471
1, 35880, Tempo, 1224490
1, 36000, Tempo, 1176471
1, 36120, Tempo, 1153846
1, 36360, Tempo, 1176471
1, 36480, Tempo, 1153846
1, 36600, Tempo, 1111111
1, 36840, Tempo, 1153846
1, 36960, Tempo, 1111111
1, 37080, Tempo, 1090909
1, 37320, Tempo, 1153846
1, 37440, Tempo, 1132075
1, 37560, Tempo, 1111111
1, 37680, Tempo, 1153846
1, 37800, Tempo, 1224490
1, 37920, Tempo, 1176471
1, 38040, Tempo, 1153846
1, 38160, Tempo, 1250000
1, 38280, Tempo, 1304348
1, 38320, Tempo, 1621622
1, 38360, Tempo, 2000000
1, 38380, Tempo, 3333333
1, 38400, Tempo, 1304348
1, 38520, Tempo, 1250000
1, 38760, Tempo, 1333333
1, 38880, Tempo, 1304348
1, 39000, Tempo, 1250000
1, 39240, Tempo, 1333333
1, 39360, Tempo, 1304348
1, 39480, Tempo, 1250000
1, 39720, Tempo, 1333333
1, 39840, Tempo, 1304348
1, 39960, Tempo, 1250000
1, 40200, Tempo, 1333333
1, 40320, Tempo, 1304348
1, 40440, Tempo, 1250000
1, 40680, Tempo, 1333333
1, 40800, Tempo, 1304348
1, 40920, Tempo, 1250000
1, 41160, Tempo, 1333333
1, 41280, Tempo, 1304348
1, 41400, Tempo, 1250000
1, 41640, Tempo, 1333333
1, 41700, Tempo, 1463415
1, 41760, Tempo, 1333333
1, 41880, Tempo, 1250000
1, 42120, Tempo, 1333333
1, 42240, Tempo, 1304348
1, 42360, Tempo, 1250000
1, 42600, Tempo, 1333333
1, 42720, Tempo, 1304348
1, 42840, Tempo, 1250000
1, 43080, Tempo, 1333333
1, 43200, Tempo, 1304348
1, 43320, Tempo, 1250000
1, 43560, Tempo, 1333333
1, 43680, Tempo, 1304348
1, 43800, Tempo, 1250000
1, 44040, Tempo, 1333333
1, 44160, Tempo, 1304348
1, 44280, Tempo, 1250000
1, 44520, Tempo, 1333333
1, 44640, Tempo, 1304348
1, 44760, Tempo, 1250000
1, 45000, Tempo, 1333333
1, 45120, Tempo, 1304348
1, 45240, Tempo, 1250000
1, 45480, Tempo, 1333333
1, 45540, Tempo, 1463415
1, 45600, Tempo, 1395349
1, 45660, Tempo, 1304348
1, 45720, Tempo, 1224490
1, 45780, Tempo, 1304348
1, 45840, Tempo, 1250000
1, 45900, Tempo, 1333333
1, 45960, Tempo, 1304348
1, 46020, Tempo, 1395349
1, 46080, Tempo, 1304348
1, 46200, Tempo, 1250000
1, 46440, Tempo, 1333333
1, 46560, Tempo, 1304348
1, 46680, Tempo, 1250000
1, 46920, Tempo, 1333333
1, 47040, Tempo, 1304348
1, 47160, Tempo, 1250000
1, 47400, Tempo, 1304348
1, 47520, Tempo, 1276596
1, 47640, Tempo, 1250000
1, 47880, Tempo, 1304348
1, 48000, Tempo, 1276596
1, 48120, Tempo, 1250000
1, 48360, Tempo, 1304348
1, 48480, Tempo, 1276596
1, 48600, Tempo, 1250000
1, 48840, Tempo, 1304348
1, 48960, Tempo, 1276596
1, 49080, Tempo, 1250000
1, 49320, Tempo, 1304348
1, 49380, Tempo, 1333333
1, 49440, Tempo, 1304348
1, 49560, Tempo, 1250000
1, 49680, Tempo, 1304348
1, 49800, Tempo, 1395349
1, 49920, Tempo, 1304348
1, 49980, Tempo, 1250000
1, 50040, Tempo, 1224490
1, 50100, Tempo, 1250000
1, 50160, Tempo, 1224490
1, 50220, Tempo, 1304348
1, 50280, Tempo, 1250000
1, 50340, Tempo, 1333333
1, 50400, Tempo, 1304348
1, 50520, Tempo, 1250000
1, 50760, Tempo, 1333333
1, 50880, Tempo, 1304348
1, 50940, Tempo, 1250000
1, 51000, Tempo, 1224490
1, 51060, Tempo, 1250000
1, 51120, Tempo, 1224490
1, 51180, Tempo, 1304348
1, 51240, Tempo, 1250000
1, 51300, Tempo, 1333333
1, 51360, Tempo, 1304348
1, 51480, Tempo, 1250000
1, 51720, Tempo, 1333333
1, 51840, Tempo, 1304348
1, 51960, Tempo, 1250000
1, 52200, Tempo, 1333333
1, 52320, Tempo, 1304348
1, 52440, Tempo, 1250000
1, 52560, Tempo, 1304348
1, 52680, Tempo, 1363636
1, 52740, Tempo, 1463415
1, 52800, Tempo, 1333333
1, 52920, Tempo, 1250000
1, 53040, Tempo, 1304348
1, 53250, Tempo, 1153846
1, 53280, Tempo, 1176471
1, 53520, Tempo, 1304348
1, 53730, Tempo, 1176471
1, 53760, Tempo, 1250000
1, 54000, Tempo, 1224490
1, 54210, Tempo, 1176471
1, 54240, Tempo, 1250000
1, 54480, Tempo, 1333333
1, 54690, Tempo, 1621622
1, 54720, Tempo, 1224490
1, 55080, Tempo, 1250000
1, 55320, Tempo, 1276596
1, 55440, Tempo, 1250000
1, 55500, Tempo, 1304348
1, 55560, Tempo, 1276596
1, 55620, Tempo, 1463415
1, 55680, Tempo, 1304348
1, 55800, Tempo, 1250000
1, 56040, Tempo, 1333333
1, 56160, Tempo, 1304348
1, 56280, Tempo, 1250000
1, 56520, Tempo, 1333333
1, 56640, Tempo, 1304348
1, 56760, Tempo, 1250000
1, 57000, Tempo, 1333333
1, 57120, Tempo, 1304348
1, 57240, Tempo, 1250000
1, 57480, Tempo, 1333333
1, 57600, Tempo, 1304348
1, 57720, Tempo, 1250000
1, 57960, Tempo, 1333333
1, 58080, Tempo, 1304348
1, 58200, Tempo, 1250000
1, 58440, Tempo, 1333333
1, 58560, Tempo, 1304348
1, 58680, Tempo, 1250000
1, 58800, Tempo, 1224490
1, 58920, Tempo, 1250000
1, 59040, Tempo, 1224490
1, 59160, Tempo, 1176471
1, 59400, Tempo, 1224490
1, 59520, Tempo, 1176471
1, 59640, Tempo, 1153846
1, 59760, Tempo, 1176471
1, 59880, Tempo, 1224490
1, 60000, Tempo, 1250000
1, 60120, Tempo, 1224490
1, 60240, Tempo, 1250000
1, 60360, Tempo, 1333333
1, 60480, Tempo, 1304348
1, 60600, Tempo, 1250000
1, 60720, Tempo, 1224490
1, 60840, Tempo, 1304348
1, 60960, Tempo, 1224490
1, 61080, Tempo, 1276596
1, 61200, Tempo, 1395349
1, 61320, Tempo, 1463415
1, 61360, Tempo, 1621622
1, 61400, Tempo, 2000000
1, 61440, Tempo, 1200000
1, 61560, Tempo, 1176471
1, 61800, Tempo, 1250000
1, 61920, Tempo, 1200000
1, 62040, Tempo, 1176471
1, 62280, Tempo, 1250000
1, 62400, Tempo, 1200000
1, 62520, Tempo, 1176471
1, 62760, Tempo, 1250000
1, 62880, Tempo, 1200000
1, 63000, Tempo, 1176471
1, 63240, Tempo, 1250000
1, 63360, Tempo, 1200000
1, 63480, Tempo, 1176471
1, 63720, Tempo, 1250000
1, 63840, Tempo, 1200000
1, 63960, Tempo, 1176471
1, 64200, Tempo, 1250000
1, 64320, Tempo, 1200000
1, 64440, Tempo, 1176471
1, 64680, Tempo, 1250000
1, 64800, Tempo, 1200000
1, 64920, Tempo, 1176471
1, 65160, Tempo, 1250000
1, 65280, Tempo, 1176471
1, 65400, Tempo, 1153846
1, 65640, Tempo, 1224490
1, 65760, Tempo, 1176471
1, 65880, Tempo, 1153846
1, 66120, Tempo, 1176471
1, 66240, Tempo, 1224490
1, 66360, Tempo, 1153846
1, 66600, Tempo, 1224490
1, 66720, Tempo, 1176471
1, 66840, Tempo, 1153846
1, 67080, Tempo, 1224490
1, 67200, Tempo, 1200000
1, 67320, Tempo, 1176471
1, 67560, Tempo, 1224490
1, 67680, Tempo, 1200000
1, 67800, Tempo, 1176471
1, 68040, Tempo, 1224490
1, 68160, Tempo, 1200000
1, 68280, Tempo, 1176471
1, 68520, Tempo, 1224490
1, 68640, Tempo, 1200000
1, 68760, Tempo, 1176471
1, 69000, Tempo, 1224490
1, 69120, Tempo, 1200000
1, 69240, Tempo, 1176471
1, 69480, Tempo, 1224490
1, 69600, Tempo, 1200000
1, 69720, Tempo, 1176471
1, 69960, Tempo, 1224490
1, 70080, Tempo, 1200000
1, 70200, Tempo, 1250000
1, 70320, Tempo, 1224490
1, 70440, Tempo, 1250000
1, 70680, Tempo, 1276596
1, 70800, Tempo, 1250000
1, 70860, Tempo, 1333333
1, 70920, Tempo, 1304348
1, 70980, Tempo, 1463415
1, 71040, Tempo, 1395349
1, 71100, Tempo, 1250000
1, 71160, Tempo, 1224490
1, 71280, Tempo, 1176471
1, 71400, Tempo, 1224490
1, 71520, Tempo, 1176471
1, 71640, Tempo, 1224490
1, 71760, Tempo, 1153846
1, 71880, Tempo, 1176471
1, 72000, Tempo, 1153846
1, 72120, Tempo, 1111111
1, 72360, Tempo, 1153846
1, 72480, Tempo, 1111111
1, 72600, Tempo, 1153846
1, 72720, Tempo, 1111111
1, 72840, Tempo, 1176471
1, 72960, Tempo, 1153846
1, 73080, Tempo, 1111111
1, 73320, Tempo, 1176471
1, 73440, Tempo, 1153846
1, 73560, Tempo, 1111111
1, 73800, Tempo, 1153846
1, 73860, Tempo, 1224490
1, 73920, Tempo, 1176471
1, 74040, Tempo, 1153846
1, 74280, Tempo, 1224490
1, 74400, Tempo, 1176471
1, 74520, Tempo, 1153846
1, 74760, Tempo, 1224490
1, 74880, Tempo, 1176471
1, 75000, Tempo, 1153846
1, 75120, Tempo, 1176471
1, 75240, Tempo, 1224490
1, 75360, Tempo, 1176471
1, 75420, Tempo, 1250000
1, 75480, Tempo, 1224490
1, 75540, Tempo, 1304348
1, 75600, Tempo, 1250000
1, 75630, Tempo, 1333333
1, 75660, Tempo, 1304348
1, 75690, Tempo, 1395349
1, 75720, Tempo, 1463415
1, 75750, Tempo, 1621622
1, 75780, Tempo, 1538462
1, 75810, Tempo, 2000000
1, 75840, Tempo, 1395349
1, 75960, Tempo, 1250000
1, 76200, Tempo, 1333333
1, 76320, Tempo, 1304348
1, 76440, Tempo, 1250000
1, 76680, Tempo, 1333333
1, 76800, Tempo, 1304348
1, 76920, Tempo, 1250000
1, 77160, Tempo, 1333333
1, 77280, Tempo, 1304348
1, 77400, Tempo, 1250000
1, 77640, Tempo, 1333333
1, 77760, Tempo, 1276596
1, 77880, Tempo, 1250000
1, 78120, Tempo, 1304348
1, 78240, Tempo, 1276596
1, 78360, Tempo, 1250000
1, 78600, Tempo, 1304348
1, 78720, Tempo, 1276596
1, 78840, Tempo, 1250000
1, 79080, Tempo, 1304348
1, 79140, Tempo, 1333333
1, 79200, Tempo, 1304348
1, 79320, Tempo, 1250000
1, 79440, Tempo, 1304348
1, 79560, Tempo, 1395349
1, 79680, Tempo, 1304348
1, 79740, Tempo, 1250000
1, 79800, Tempo, 1224490
1, 79860, Tempo, 1250000
1, 79920, Tempo, 1224490
1, 79980, Tempo, 1304348
1, 80040, Tempo, 1250000
1, 80100, Tempo, 1333333
1, 80160, Tempo, 1304348
1, 80280, Tempo, 1250000
1, 80520, Tempo, 1333333
1, 80640, Tempo, 1304348
1, 80700, Tempo, 1250000
1, 80760, Tempo, 1224490
1, 80820, Tempo, 1250000
1, 80880, Tempo, 1224490
1, 80940, Tempo, 1304348
1, 81000, Tempo, 1250000
1, 81060, Tempo, 1333333
1, 81120, Tempo, 1304348
1, 81240, Tempo, 1250000
1, 81480, Tempo, 1333333
1, 81600, Tempo, 1304348
1, 81720, Tempo, 1250000
1, 81960, Tempo, 1333333
1, 82080, Tempo, 1304348
1, 82200, Tempo, 1250000
1, 82320, Tempo, 1304348
1, 82440, Tempo, 1363636
1, 82500, Tempo, 1463415
1, 82560, Tempo, 1333333
1, 82680, Tempo, 1250000
1, 82800, Tempo, 1304348
1, 83010, Tempo, 1153846
1, 83040, Tempo, 1176471
1, 83280, Tempo, 1304348
1, 83490, Tempo, 1176471
1, 83520, Tempo, 1250000
1, 83760, Tempo, 1224490
1, 83970, Tempo, 1176471
1, 84000, Tempo, 1250000
1, 84240, Tempo, 1333333
1, 84450, Tempo, 1621622
1, 84480, Tempo, 1224490
1, 84840, Tempo, 1250000
1, 85080, Tempo, 1276596
1, 85200, Tempo, 1250000
1, 85260, Tempo, 1304348
1, 85320, Tempo, 1276596
1, 85380, Tempo, 1463415
1, 85440, Tempo, 1395349
1, 85500, Tempo, 1250000
1, 85560, Tempo, 1224490
1, 85620, Tempo, 1176471
1, 85800, Tempo, 1250000
1, 85920, Tempo, 1224490
1, 86040, Tempo, 1176471
1, 86280, Tempo, 1250000
1, 86400, Tempo, 1224490
1, 86520, Tempo, 1176471
1, 86760, Tempo, 1250000
1, 86880, Tempo, 1224490
1, 87000, Tempo, 1176471
1, 87120, Tempo, 1250000
1, 87240, Tempo, 1333333
1, 87300, Tempo, 1538462
1, 87360, Tempo, 1333333
1, 87420, Tempo, 1250000
1, 87480, Tempo, 1224490
1, 87600, Tempo, 1176471
1, 87720, Tempo, 1224490
1, 87840, Tempo, 1176471
1, 87960, Tempo, 1224490
1, 88080, Tempo, 1176471
1, 88200, Tempo, 1250000
1, 88320, Tempo, 1224490
1, 88440, Tempo, 1176471
1, 88680, Tempo, 1224490
1, 88800, Tempo, 1200000
1, 88920, Tempo, 1176471
1, 89160, Tempo, 1200000
1, 89280, Tempo, 1176471
1, 89400, Tempo, 1153846
1, 89640, Tempo, 1224490
1, 89760, Tempo, 1176471
1, 89880, Tempo, 1153846
1, 90000, Tempo, 1176471
1, 90120, Tempo, 1224490
1, 90160, Tempo, 1276596
1, 90200, Tempo, 1395349
1, 90240, Tempo, 1333333
1, 90280, Tempo, 1250000
1, 90360, Tempo, 1224490
1, 90600, Tempo, 1304348
1, 90720, Tempo, 1250000
1, 91080, Tempo, 1333333
1, 91200, Tempo, 1276596
1, 91320, Tempo, 1250000
1, 91560, Tempo, 1304348
1, 91680, Tempo, 1276596
1, 91800, Tempo, 1250000
1, 91920, Tempo, 1304348
1, 92040, Tempo, 1395349
1, 92100, Tempo, 1463415
1, 92130, Tempo, 1621622
1, 92160, Tempo, 1395349
1, 92220, Tempo, 1304348
1, 92280, Tempo, 1250000
1, 92340, Tempo, 1224490
1, 92520, Tempo, 1304348
1, 92640, Tempo, 1250000
1, 92760, Tempo, 1224490
1, 93000, Tempo, 1304348
1, 93120, Tempo, 1250000
1, 93240, Tempo, 1224490
1, 93480, Tempo, 1304348
1, 93600, Tempo, 1250000
1, 93720, Tempo, 1224490
1, 93840, Tempo, 1250000
1, 93960, Tempo, 1333333
1, 94020, Tempo, 1463415
1, 94080, Tempo, 1395349
1, 94140, Tempo, 1304348
1, 94200, Tempo, 1250000
1, 94260, Tempo, 1224490
1, 94440, Tempo, 1304348
1, 94560, Tempo, 1250000
1, 94680, Tempo, 1224490
1, 94920, Tempo, 1304348
1, 95040, Tempo, 1250000
1, 95160, Tempo, 1224490
1, 95400, Tempo, 1304348
1, 95520, Tempo, 1250000
1, 95640, Tempo, 1224490
1, 95760, Tempo, 1276596
1, 95880, Tempo, 1333333
1, 95940, Tempo, 1463415
1, 96000, Tempo, 1395349
1, 96120, Tempo, 1304348
1, 96240, Tempo, 1250000
1, 96360, Tempo, 1333333
1, 96480, Tempo, 1304348
1, 96600, Tempo, 1250000
1, 96840, Tempo, 1333333
1, 96960, Tempo, 1304348
1, 97080, Tempo, 1250000
1, 97200, Tempo, 1276596
1, 97320, Tempo, 1333333
1, 97380, Tempo, 1463415
1, 97440, Tempo, 1395349
1, 97680, Tempo, 1250000
1, 97800, Tempo, 1333333
1, 97920, Tempo, 1304348
1, 98160, Tempo, 1250000
1, 98280, Tempo, 1333333
1, 98400, Tempo, 1304348
1, 98640, Tempo, 1395349
1, 98760, Tempo, 1621622
1, 98880, Tempo, 1463415
1, 99000, Tempo, 1621622
1, 99120, Tempo, 1538462
1, 99240, Tempo, 2000000
1, 99300, Tempo, 1666667
1, 99360, Tempo, 1818182
1, 99420, Tempo, 6000000
1, 99480, Tempo, 5454545
1, 99600, Tempo, 4000000
1, 99840, Tempo, 1250000
1, 99840, Marker_t, "-------------------"
1, 99840, Marker_t, "==================="
1, 99840, Marker_t, "1995.12.01(fri)"
1, 99840, Marker_t, "MOCLIN(GBA02512)"
1, 99840, End_track
2, 0, Start_track
2, 0, Title_t, "[SC-55 Initialize]"
2, 0, End_track
3, 0, Start_track
3, 0, Title_t, "Piano(R.H.)"
3, 0, Program_c, 0, 0
3, 0, Control_c, 0, 7, 127
3, 480, Control_c, 0, 32, 1
3, 510, Control_c, 0, 0, 0
3, 570, Control_c, 0, 10, 74
3, 600, Control_c, 0, 91, 80
3, 660, Control_c, 0, 11, 127
3, 690, Control_c, 0, 99, 1
3, 700, Control_c, 0, 98, 99
3, 710, Control_c, 0, 6, 62
3, 720, Control_c, 0, 98, 100
3, 735, Control_c, 0, 6, 75
3, 750, Control_c, 0, 98, 101
3, 765, Control_c, 0, 6, 90
3, 925, Note_on_c, 0, 69, 40
3, 945, Note_on_c, 0, 72, 35
3, 960, Note_on_c, 0, 77, 50
3, 1165, Note_off_c, 0, 69, 64
3, 1185, Note_off_c, 0, 72, 64
3, 1320, Note_on_c, 0, 79, 52
3, 1330, Note_off_c, 0, 77, 64
3, 1355, Note_on_c, 0, 77, 45
3, 1365, Note_off_c, 0, 79, 64
3, 1380, Note_on_c, 0, 76, 48
3, 1390, Note_off_c, 0, 77, 64
3, 1410, Note_on_c, 0, 77, 43
3, 1420, Note_off_c, 0, 76, 64
3, 1440, Note_on_c, 0, 81, 45
3, 1450, Note_off_c, 0, 77, 64
3, 1620, Note_on_c, 0, 79, 48
3, 1630, Note_off_c, 0, 81, 64
3, 1680, Note_on_c, 0, 82, 42
3, 1690, Note_off_c, 0, 79, 64
3, 1860, Note_on_c, 0, 79, 45
3, 1870, Note_off_c, 0, 82, 64
3, 1920, Note_on_c, 0, 77, 48
3, 1930, Note_off_c, 0, 79, 64
3, 2220, Note_on_c, 0, 76, 52
3, 2230, Note_off_c, 0, 77, 64
3, 2280, Note_on_c, 0, 79, 45
3, 2290, Note_off_c, 0, 76, 64
3, 2340, Note_on_c, 0, 76, 47
3, 2350, Note_off_c, 0, 79, 64
3, 2400, Note_on_c, 0, 72, 42
3, 2410, Note_off_c, 0, 76, 64
3, 2640, Note_off_c, 0, 72, 64
3, 2760, Note_on_c, 0, 72, 55
3, 2880, Note_off_c, 0, 72, 64
3, 2880, Note_on_c, 0, 77, 60
3, 2880, Note_on_c, 0, 72, 40
3, 3105, Note_on_c, 0, 81, 50
3, 3120, Note_off_c, 0, 72, 64
3, 3120, Note_off_c, 0, 77, 64
3, 3120, Note_on_c, 0, 79, 55
3, 3120, Note_on_c, 0, 72, 35
3, 3125, Note_off_c, 0, 81, 64
3, 3180, Note_on_c, 0, 78, 58
3, 3190, Note_off_c, 0, 79, 64
3, 3240, Note_on_c, 0, 79, 53
3, 3250, Note_off_c, 0, 78, 64
3, 3300, Note_on_c, 0, 80, 48
3, 3310, Note_off_c, 0, 79, 64
3, 3360, Note_off_c, 0, 72, 64
3, 3360, Note_on_c, 0, 81, 50
3, 3360, Note_on_c, 0, 72, 30
3, 3370, Note_off_c, 0, 80, 64
3, 3585, Note_on_c, 0, 84, 45
3, 3600, Note_off_c, 0, 72, 64
3, 3600, Note_off_c, 0, 81, 64
3, 3600, Note_on_c, 0, 74, 32
3, 3600, Note_on_c, 0, 82, 52
3, 3605, Note_off_c, 0, 84, 64
3, 3660, Note_on_c, 0, 81, 55
3, 3670, Note_off_c, 0, 82, 64
3, 3720, Note_on_c, 0, 82, 50
3, 3730, Note_off_c, 0, 81, 64
3, 3780, Note_on_c, 0, 86, 45
3, 3790, Note_off_c, 0, 82, 64
3, 3815, Note_on_c, 0, 72, 30
3, 3830, Note_on_c, 0, 77, 25
3, 3840, Note_off_c, 0, 74, 64
3, 3840, Note_on_c, 0, 81, 48
3, 3850, Note_off_c, 0, 86, 64
3, 4140, Note_on_c, 0, 82, 50
3, 4150, Note_off_c, 0, 81, 64
3, 4200, Note_on_c, 0, 83, 52
3, 4210, Note_off_c, 0, 82, 64
3, 4260, Note_on_c, 0, 84, 54
3, 4270, Note_off_c, 0, 83, 64
3, 4295, Note_off_c, 0, 72, 64
3, 4310, Note_off_c, 0, 77, 64
3, 4320, Note_on_c, 0, 79, 48
3, 4320, Note_on_c, 0, 76, 35
3, 4320, Note_on_c, 0, 72, 20
3, 4330, Note_off_c, 0, 84, 64
3, 4560, Note_off_c, 0, 72, 64
3, 4560, Note_off_c, 0, 76, 64
3, 4560, Note_off_c, 0, 79, 64
3, 4680, Note_on_c, 0, 72, 60
3, 4800, Note_off_c, 0, 72, 64
3, 4800, Note_on_c, 0, 82, 70
3, 4800, Note_on_c, 0, 76, 62
3, 4800, Note_on_c, 0, 72, 45
3, 5160, Note_on_c, 0, 79, 65
3, 5170, Note_off_c, 0, 76, 64
3, 5170, Note_off_c, 0, 82, 64
3, 5190, Note_on_c, 0, 81, 58
3, 5195, Note_off_c, 0, 79, 64
3, 5210, Note_on_c, 0, 79, 61
3, 5215, Note_off_c, 0, 81, 64
3, 5230, Note_on_c, 0, 78, 63
3, 5235, Note_off_c, 0, 79, 64
3, 5255, Note_on_c, 0, 79, 60
3, 5260, Note_off_c, 0, 78, 64
3, 5280, Note_on_c, 0, 76, 65
3, 5285, Note_off_c, 0, 79, 64
3, 5330, Note_off_c, 0, 76, 64
3, 5330, Note_off_c, 0, 72, 64
3, 5400, Note_on_c, 0, 77, 52
3, 5400, Note_on_c, 0, 72, 38
3, 5520, Note_off_c, 0, 72, 64
3, 5520, Note_on_c, 0, 76, 55
3, 5520, Note_on_c, 0, 72, 40
3, 5530, Note_off_c, 0, 77, 64
3, 5640, Note_off_c, 0, 72, 64
3, 5640, Note_on_c, 0, 72, 45
3, 5640, Note_on_c, 0, 77, 57
3, 5650, Note_off_c, 0, 76, 64
3, 5760, Note_off_c, 0, 72, 64
3, 5760, Note_on_c, 0, 82, 60
3, 5760, Note_on_c, 0, 76, 52
3, 5760, Note_on_c, 0, 72, 35
3, 5770, Note_off_c, 0, 77, 64
3, 6120, Note_on_c, 0, 79, 55
3, 6130, Note_off_c, 0, 76, 64
3, 6130, Note_off_c, 0, 82, 64
3, 6150, Note_on_c, 0, 81, 48
3, 6155, Note_off_c, 0, 79, 64
3, 6170, Note_on_c, 0, 79, 51
3, 6175, Note_off_c, 0, 81, 64
3, 6190, Note_on_c, 0, 78, 53
3, 6195, Note_off_c, 0, 79, 64
3, 6215, Note_on_c, 0, 79, 50
3, 6220, Note_off_c, 0, 78, 64
3, 6240, Note_on_c, 0, 76, 55
3, 6245, Note_off_c, 0, 79, 64
3, 6300, Note_off_c, 0, 76, 64
3, 6300, Note_off_c, 0, 72, 64
3, 6360, Note_on_c, 0, 84, 42
3, 6360, Note_on_c, 0, 72, 28
3, 6480, Note_on_c, 0, 83, 40
3, 6480, Note_on_c, 0, 71, 25
3, 6490, Note_off_c, 0, 72, 64
3, 6490, Note_off_c, 0, 84, 64
3, 6600, Note_on_c, 0, 72, 31
3, 6600, Note_on_c, 0, 84, 46
3, 6610, Note_off_c, 0, 71, 64
3, 6610, Note_off_c, 0, 83, 64
3, 6720, Note_on_c, 0, 86, 50
3, 6720, Note_on_c, 0, 74, 35
3, 6730, Note_off_c, 0, 84, 64
3, 6730, Note_off_c, 0, 72, 64
3, 7020, Note_on_c, 0, 88, 45
3, 7030, Note_off_c, 0, 74, 64
3, 7030, Note_off_c, 0, 86, 64
3, 7040, Note_on_c, 0, 86, 40
3, 7045, Note_off_c, 0, 88, 64
3, 7055, Note_on_c, 0, 85, 42
3, 7060, Note_off_c, 0, 86, 64
3, 7065, Note_on_c, 0, 86, 45
3, 7075, Note_off_c, 0, 85, 64
3, 7080, Note_on_c, 0, 88, 50
3, 7085, Note_off_c, 0, 86, 64
3, 7130, Note_off_c, 0, 88, 64
3, 7140, Note_on_c, 0, 89, 55
3, 7180, Note_off_c, 0, 89, 64
3, 7200, Note_on_c, 0, 77, 60
3, 7560, Note_on_c, 0, 81, 53
3, 7570, Note_off_c, 0, 77, 64
3, 7620, Note_on_c, 0, 79, 57
3, 7630, Note_off_c, 0, 81, 64
3, 7680, Note_off_c, 0, 79, 64
3, 7680, Note_on_c, 0, 79, 55
3, 8040, Note_on_c, 0, 84, 48
3, 8050, Note_off_c, 0, 79, 64
3, 8100, Note_on_c, 0, 76, 52
3, 8110, Note_off_c, 0, 84, 64
3, 8160, Note_on_c, 0, 77, 45
3, 8170, Note_off_c, 0, 76, 64
3, 8280, Note_off_c, 0, 77, 64
3, 8640, Note_on_c, 0, 77, 68
3, 8640, Note_on_c, 0, 69, 40
3, 8640, Note_on_c, 0, 65, 52
3, 9120, Note_off_c, 0, 65, 64
3, 9120, Note_off_c, 0, 69, 64
3, 9120, Note_off_c, 0, 77, 64
3, 9120, Note_on_c, 0, 81, 72
3, 9120, Note_on_c, 0, 74, 45
3, 9120, Note_on_c, 0, 69, 65
3, 9300, Note_on_c, 0, 79, 75
3, 9300, Note_on_c, 0, 67, 68
3, 9310, Note_off_c, 0, 69, 64
3, 9310, Note_off_c, 0, 74, 64
3, 9310, Note_off_c, 0, 81, 64
3, 9360, Note_on_c, 0, 82, 62
3, 9360, Note_on_c, 0, 74, 40
3, 9360, Note_on_c, 0, 70, 55
3, 9370, Note_off_c, 0, 67, 64
3, 9370, Note_off_c, 0, 79, 64
3, 9540, Note_on_c, 0, 67, 57
3, 9540, Note_on_c, 0, 79, 65
3, 9550, Note_off_c, 0, 70, 64
3, 9550, Note_off_c, 0, 74, 64
3, 9550, Note_off_c, 0, 82, 64
3, 9600, Note_on_c, 0, 77, 68
3, 9600, Note_on_c, 0, 72, 45
3, 9600, Note_on_c, 0, 65, 53
3, 9610, Note_off_c, 0, 79, 64
3, 9610, Note_off_c, 0, 67, 64
3, 9900, Note_on_c, 0, 76, 72
3, 9900, Note_on_c, 0, 64, 60
3, 9910, Note_off_c, 0, 65, 64
3, 9910, Note_off_c, 0, 72, 64
3, 9910, Note_off_c, 0, 77, 64
3, 9960, Note_on_c, 0, 79, 65
3, 9960, Note_on_c, 0, 67, 53
3, 9970, Note_off_c, 0, 64, 64
3, 9970, Note_off_c, 0, 76, 64
3, 10020, Note_on_c, 0, 76, 67
3, 10020, Note_on_c, 0, 64, 55
3, 10030, Note_off_c, 0, 67, 64
3, 10030, Note_off_c, 0, 79, 64
3, 10070, Note_on_c, 0, 60, 45
3, 10080, Note_on_c, 0, 72, 62
3, 10090, Note_off_c, 0, 64, 64
3, 10090, Note_off_c, 0, 76, 64
3, 10310, Note_off_c, 0, 60, 64
3, 10320, Note_off_c, 0, 72, 64
3, 10440, Note_on_c, 0, 72, 75
3, 10560, Note_on_c, 0, 65, 50
3, 10570, Note_off_c, 0, 72, 64
3, 10570, Note_on_c, 0, 77, 80
3, 10785, Note_on_c, 0, 81, 60
3, 10800, Note_off_c, 0, 65, 64
3, 10800, Note_on_c, 0, 79, 75
3, 10800, Note_on_c, 0, 67, 60
3, 10805, Note_off_c, 0, 81, 64
3, 10810, Note_off_c, 0, 77, 64
3, 10860, Note_on_c, 0, 78, 78
3, 10860, Note_on_c, 0, 66, 63
3, 10870, Note_off_c, 0, 67, 64
3, 10870, Note_off_c, 0, 79, 64
3, 10920, Note_on_c, 0, 79, 73
3, 10920, Note_on_c, 0, 67, 58
3, 10930, Note_off_c, 0, 66, 64
3, 10930, Note_off_c, 0, 78, 64
3, 10980, Note_on_c, 0, 80, 68
3, 10980, Note_on_c, 0, 68, 53
3, 10990, Note_off_c, 0, 67, 64
3, 10990, Note_off_c, 0, 79, 64
3, 11040, Note_on_c, 0, 81, 70
3, 11040, Note_on_c, 0, 69, 50
3, 11050, Note_off_c, 0, 68, 64
3, 11050, Note_off_c, 0, 80, 64
3, 11265, Note_on_c, 0, 84, 60
3, 11280, Note_off_c, 0, 69, 64
3, 11280, Note_off_c, 0, 81, 64
3, 11280, Note_on_c, 0, 82, 72
3, 11280, Note_on_c, 0, 70, 52
3, 11285, Note_off_c, 0, 84, 64
3, 11340, Note_on_c, 0, 81, 75
3, 11340, Note_on_c, 0, 69, 55
3, 11350, Note_off_c, 0, 70, 64
3, 11350, Note_off_c, 0, 82, 64
3, 11400, Note_on_c, 0, 82, 70
3, 11400, Note_on_c, 0, 70, 57
3, 11410, Note_off_c, 0, 69, 64
3, 11410, Note_off_c, 0, 81, 64
3, 11460, Note_on_c, 0, 74, 52
3, 11460, Note_on_c, 0, 86, 65
3, 11470, Note_off_c, 0, 70, 64
3, 11470, Note_off_c, 0, 82, 64
3, 11520, Note_on_c, 0, 81, 68
3, 11520, Note_on_c, 0, 77, 40
3, 11520, Note_on_c, 0, 69, 55
3, 11530, Note_off_c, 0, 86, 64
3, 11530, Note_off_c, 0, 74, 64
3, 11820, Note_on_c, 0, 82, 70
3, 11820, Note_on_c, 0, 70, 57
3, 11830, Note_off_c, 0, 69, 64
3, 11830, Note_off_c, 0, 77, 64
3, 11830, Note_off_c, 0, 81, 64
3, 11880, Note_on_c, 0, 83, 65
3, 11880, Note_on_c, 0, 71, 52
3, 11890, Note_off_c, 0, 70, 64
3, 11890, Note_off_c, 0, 82, 64
3, 11940, Note_on_c, 0, 84, 63
3, 11940, Note_on_c, 0, 72, 51
3, 11950, Note_off_c, 0, 71, 64
3, 11950, Note_off_c, 0, 83, 64
3, 12000, Note_on_c, 0, 79, 60
3, 12000, Note_on_c, 0, 76, 32
3, 12000, Note_on_c, 0, 67, 50
3, 12010, Note_off_c, 0, 72, 64
3, 12010, Note_off_c, 0, 84, 64
3, 12240, Note_off_c, 0, 67, 64
3, 12240, Note_off_c, 0, 76, 64
3, 12240, Note_off_c, 0, 79, 64
3, 12360, Note_on_c, 0, 72, 80
3, 12480, Note_off_c, 0, 72, 64
3, 12480, Note_on_c, 0, 82, 90
3, 12480, Note_on_c, 0, 79, 75
3, 12480, Note_on_c, 0, 76, 82
3, 12480, Note_on_c, 0, 72, 65
3, 12840, Note_off_c, 0, 79, 64
3, 12840, Note_on_c, 0, 79, 85
3, 12850, Note_off_c, 0, 72, 64
3, 12850, Note_off_c, 0, 76, 64
3, 12850, Note_off_c, 0, 82, 64
3, 12865, Note_on_c, 0, 81, 70
3, 12875, Note_off_c, 0, 79, 64
3, 12880, Note_on_c, 0, 79, 60
3, 12885, Note_off_c, 0, 81, 64
3, 12895, Note_on_c, 0, 81, 63
3, 12900, Note_off_c, 0, 79, 64
3, 12910, Note_on_c, 0, 79, 66
3, 12915, Note_off_c, 0, 81, 64
3, 12925, Note_on_c, 0, 78, 68
3, 12930, Note_off_c, 0, 79, 64
3, 12940, Note_on_c, 0, 79, 70
3, 12945, Note_off_c, 0, 78, 64
3, 12960, Note_off_c, 0, 79, 64
3, 12960, Note_on_c, 0, 76, 85
3, 12960, Note_on_c, 0, 72, 70
3, 13010, Note_off_c, 0, 72, 64
3, 13010, Note_off_c, 0, 76, 64
3, 13080, Note_on_c, 0, 77, 82
3, 13080, Note_on_c, 0, 65, 68
3, 13200, Note_on_c, 0, 76, 85
3, 13200, Note_on_c, 0, 64, 70
3, 13210, Note_off_c, 0, 65, 64
3, 13210, Note_off_c, 0, 77, 64
3, 13320, Note_on_c, 0, 65, 65
3, 13320, Note_on_c, 0, 77, 80
3, 13330, Note_off_c, 0, 64, 64
3, 13330, Note_off_c, 0, 76, 64
3, 13440, Note_on_c, 0, 82, 85
3, 13440, Note_on_c, 0, 79, 60
3, 13440, Note_on_c, 0, 76, 77
3, 13440, Note_on_c, 0, 72, 65
3, 13450, Note_off_c, 0, 77, 64
3, 13450, Note_off_c, 0, 65, 64
3, 13800, Note_off_c, 0, 79, 64
3, 13800, Note_on_c, 0, 79, 80
3, 13810, Note_off_c, 0, 72, 64
3, 13810, Note_off_c, 0, 76, 64
3, 13810, Note_off_c, 0, 82, 64
3, 13825, Note_on_c, 0, 81, 68
3, 13835, Note_off_c, 0, 79, 64
3, 13840, Note_on_c, 0, 79, 60
3, 13845, Note_off_c, 0, 81, 64
3, 13855, Note_on_c, 0, 81, 62
3, 13860, Note_off_c, 0, 79, 64
3, 13870, Note_on_c, 0, 79, 64
3, 13875, Note_off_c, 0, 81, 64
3, 13885, Note_on_c, 0, 78, 66
3, 13890, Note_off_c, 0, 79, 64
3, 13900, Note_on_c, 0, 79, 68
3, 13905, Note_off_c, 0, 78, 64
3, 13920, Note_on_c, 0, 76, 80
3, 13920, Note_on_c, 0, 72, 60
3, 13925, Note_off_c, 0, 79, 64
3, 13980, Note_off_c, 0, 72, 64
3, 13980, Note_off_c, 0, 76, 64
3, 14040, Note_on_c, 0, 84, 67
3, 14040, Note_on_c, 0, 77, 45
3, 14040, Note_on_c, 0, 72, 53
3, 14160, Note_off_c, 0, 77, 64
3, 14160, Note_on_c, 0, 83, 75
3, 14160, Note_on_c, 0, 77, 40
3, 14160, Note_on_c, 0, 71, 60
3, 14170, Note_off_c, 0, 72, 64
3, 14170, Note_off_c, 0, 84, 64
3, 14280, Note_off_c, 0, 77, 64
3, 14280, Note_on_c, 0, 72, 56
3, 14280, Note_on_c, 0, 77, 43
3, 14280, Note_on_c, 0, 84, 71
3, 14290, Note_off_c, 0, 71, 64
3, 14290, Note_off_c, 0, 83, 64
3, 14400, Note_off_c, 0, 77, 64
3, 14400, Note_on_c, 0, 86, 65
3, 14400, Note_on_c, 0, 77, 40
3, 14400, Note_on_c, 0, 74, 50
3, 14410, Note_off_c, 0, 84, 64
3, 14410, Note_off_c, 0, 72, 64
3, 14690, Note_off_c, 0, 74, 64
3, 14690, Note_off_c, 0, 77, 64
3, 14690, Note_off_c, 0, 86, 64
3, 14700, Note_on_c, 0, 86, 70
3, 14700, Note_on_c, 0, 74, 55
3, 14730, Note_off_c, 0, 74, 64
3, 14730, Note_off_c, 0, 86, 64
3, 14760, Note_on_c, 0, 88, 63
3, 14760, Note_on_c, 0, 76, 52
3, 14785, Note_off_c, 0, 76, 64
3, 14785, Note_off_c, 0, 88, 64
3, 14820, Note_on_c, 0, 89, 60
3, 14820, Note_on_c, 0, 77, 50
3, 14850, Note_off_c, 0, 77, 64
3, 14850, Note_off_c, 0, 89, 64
3, 14880, Note_on_c, 0, 77, 65
3, 14880, Note_on_c, 0, 65, 60
3, 15120, Note_on_c, 0, 81, 68
3, 15120, Note_on_c, 0, 69, 55
3, 15130, Note_off_c, 0, 65, 64
3, 15130, Note_off_c, 0, 77, 64
3, 15300, Note_on_c, 0, 67, 47
3, 15300, Note_on_c, 0, 79, 62
3, 15310, Note_off_c, 0, 69, 64
3, 15310, Note_off_c, 0, 81, 64
3, 15360, Note_off_c, 0, 79, 64
3, 15360, Note_off_c, 0, 67, 64
3, 15360, Note_on_c, 0, 77, 60
3, 15360, Note_on_c, 0, 65, 43
3, 15560, Note_off_c, 0, 65, 64
3, 15560, Note_off_c, 0, 77, 64
3, 15600, Note_on_c, 0, 69, 100
3, 15810, Note_off_c, 0, 69, 64
3, 15810, Note_on_c, 0, 69, 95
3, 15840, Note_on_c, 0, 62, 105
3, 15850, Note_off_c, 0, 69, 64
3, 16040, Note_off_c, 0, 62, 64
3, 16080, Note_on_c, 0, 86, 100
3, 16080, Note_on_c, 0, 74, 80
3, 16290, Note_off_c, 0, 74, 64
3, 16290, Note_off_c, 0, 86, 64
3, 16290, Note_on_c, 0, 74, 78
3, 16290, Note_on_c, 0, 86, 95
3, 16320, Note_on_c, 0, 79, 105
3, 16320, Note_on_c, 0, 67, 75
3, 16330, Note_off_c, 0, 86, 64
3, 16330, Note_off_c, 0, 74, 64
3, 16520, Note_off_c, 0, 67, 64
3, 16520, Note_off_c, 0, 79, 64
3, 16560, Note_on_c, 0, 82, 100
3, 16560, Note_on_c, 0, 70, 80
3, 16770, Note_off_c, 0, 70, 64
3, 16770, Note_off_c, 0, 82, 64
3, 16770, Note_on_c, 0, 82, 95
3, 16770, Note_on_c, 0, 70, 75
3, 16800, Note_off_c, 0, 82, 64
3, 16800, Note_on_c, 0, 88, 110
3, 16800, Note_on_c, 0, 82, 65
3, 16800, Note_on_c, 0, 79, 78
3, 16800, Note_on_c, 0, 76, 85
3, 16810, Note_off_c, 0, 70, 64
3, 17000, Note_off_c, 0, 76, 64
3, 17000, Note_off_c, 0, 79, 64
3, 17000, Note_off_c, 0, 82, 64
3, 17000, Note_off_c, 0, 88, 64
3, 17040, Note_on_c, 0, 89, 115
3, 17040, Note_on_c, 0, 81, 78
3, 17040, Note_on_c, 0, 77, 90
3, 17220, Note_off_c, 0, 77, 64
3, 17220, Note_off_c, 0, 81, 64
3, 17220, Note_off_c, 0, 89, 64
3, 17280, Note_on_c, 0, 79, 70
3, 17280, Note_on_c, 0, 77, 55
3, 17280, Note_on_c, 0, 74, 35
3, 17280, Note_on_c, 0, 67, 60
3, 17580, Note_on_c, 0, 81, 72
3, 17580, Note_on_c, 0, 69, 58
3, 17590, Note_off_c, 0, 67, 64
3, 17590, Note_off_c, 0, 74, 64
3, 17590, Note_off_c, 0, 77, 64
3, 17590, Note_off_c, 0, 79, 64
3, 17640, Note_on_c, 0, 82, 66
3, 17640, Note_on_c, 0, 70, 56
3, 17650, Note_off_c, 0, 69, 64
3, 17650, Note_off_c, 0, 81, 64
3, 17700, Note_on_c, 0, 86, 63
3, 17700, Note_on_c, 0, 74, 54
3, 17710, Note_off_c, 0, 70, 64
3, 17710, Note_off_c, 0, 82, 64
3, 17750, Note_off_c, 0, 74, 64
3, 17750, Note_off_c, 0, 86, 64
3, 17760, Note_on_c, 0, 86, 58
3, 17760, Note_on_c, 0, 74, 50
3, 17820, Note_on_c, 0, 84, 62
3, 17820, Note_on_c, 0, 72, 52
3, 17830, Note_off_c, 0, 74, 64
3, 17830, Note_off_c, 0, 86, 64
3, 17880, Note_on_c, 0, 82, 65
3, 17880, Note_on_c, 0, 70, 54
3, 17890, Note_off_c, 0, 72, 64
3, 17890, Note_off_c, 0, 84, 64
3, 17940, Note_on_c, 0, 81, 67
3, 17940, Note_on_c, 0, 69, 56
3, 17950, Note_off_c, 0, 70, 64
3, 17950, Note_off_c, 0, 82, 64
3, 17990, Note_off_c, 0, 69, 64
3, 17990, Note_off_c, 0, 81, 64
3, 18000, Note_on_c, 0, 81, 64
3, 18000, Note_on_c, 0, 69, 53
3, 18060, Note_on_c, 0, 79, 66
3, 18060, Note_on_c, 0, 67, 55
3, 18070, Note_off_c, 0, 69, 64
3, 18070, Note_off_c, 0, 81, 64
3, 18120, Note_on_c, 0, 82, 62
3, 18120, Note_on_c, 0, 70, 48
3, 18130, Note_off_c, 0, 67, 64
3, 18130, Note_off_c, 0, 79, 64
3, 18180, Note_on_c, 0, 64, 50
3, 18180, Note_on_c, 0, 76, 65
3, 18190, Note_off_c, 0, 70, 64
3, 18190, Note_off_c, 0, 82, 64
3, 18240, Note_on_c, 0, 77, 60
3, 18240, Note_on_c, 0, 65, 40
3, 18250, Note_off_c, 0, 76, 64
3, 18250, Note_off_c, 0, 64, 64
3, 18440, Note_off_c, 0, 65, 64
3, 18440, Note_off_c, 0, 77, 64
3, 18480, Note_on_c, 0, 77, 52
3, 18480, Note_on_c, 0, 72, 30
3, 18480, Note_on_c, 0, 69, 45
3, 18690, Note_off_c, 0, 69, 64
3, 18690, Note_off_c, 0, 72, 64
3, 18690, Note_off_c, 0, 77, 64
3, 18690, Note_on_c, 0, 77, 45
3, 18690, Note_on_c, 0, 72, 22
3, 18690, Note_on_c, 0, 69, 38
3, 18715, Note_off_c, 0, 69, 64
3, 18715, Note_off_c, 0, 72, 64
3, 18715, Note_off_c, 0, 77, 64
3, 18720, Note_on_c, 0, 77, 50
3, 18720, Note_on_c, 0, 69, 25
3, 18720, Note_on_c, 0, 65, 35
3, 18960, Note_off_c, 0, 65, 64
3, 18960, Note_off_c, 0, 69, 64
3, 18960, Note_off_c, 0, 77, 64
3, 19150, Note_on_c, 0, 72, 35
3, 19200, Note_on_c, 0, 81, 50
3, 19210, Note_off_c, 0, 72, 64
3, 19560, Note_on_c, 0, 82, 45
3, 19570, Note_off_c, 0, 81, 64
3, 19595, Note_on_c, 0, 81, 47
3, 19605, Note_off_c, 0, 82, 64
3, 19625, Note_on_c, 0, 79, 43
3, 19635, Note_off_c, 0, 81, 64
3, 19650, Note_on_c, 0, 81, 45
3, 19660, Note_off_c, 0, 79, 64
3, 19680, Note_on_c, 0, 84, 40
3, 19690, Note_off_c, 0, 81, 64
3, 20040, Note_on_c, 0, 76, 48
3, 20050, Note_off_c, 0, 84, 64
3, 20160, Note_on_c, 0, 77, 45
3, 20170, Note_off_c, 0, 76, 64
3, 20520, Note_on_c, 0, 81, 43
3, 20530, Note_off_c, 0, 77, 64
3, 20580, Note_on_c, 0, 79, 48
3, 20590, Note_off_c, 0, 81, 64
3, 20630, Note_off_c, 0, 79, 64
3, 20640, Note_on_c, 0, 79, 52
3, 21000, Note_on_c, 0, 82, 48
3, 21010, Note_off_c, 0, 79, 64
3, 21060, Note_on_c, 0, 81, 53
3, 21070, Note_off_c, 0, 82, 64
3, 21110, Note_off_c, 0, 81, 64
3, 21120, Note_on_c, 0, 81, 55
3, 21480, Note_on_c, 0, 82, 52
3, 21490, Note_off_c, 0, 81, 64
3, 21540, Note_on_c, 0, 84, 58
3, 21550, Note_off_c, 0, 82, 64
3, 21600, Note_on_c, 0, 86, 60
3, 21610, Note_off_c, 0, 84, 64
3, 21660, Note_on_c, 0, 88, 62
3, 21670, Note_off_c, 0, 86, 64
3, 21720, Note_on_c, 0, 89, 58
3, 21730, Note_off_c, 0, 88, 64
3, 21780, Note_on_c, 0, 88, 60
3, 21790, Note_off_c, 0, 89, 64
3, 21840, Note_on_c, 0, 89, 62
3, 21850, Note_off_c, 0, 88, 64
3, 21900, Note_on_c, 0, 86, 64
3, 21910, Note_off_c, 0, 89, 64
3, 21960, Note_on_c, 0, 84, 58
3, 21970, Note_off_c, 0, 86, 64
3, 22020, Note_on_c, 0, 82, 53
3, 22030, Note_off_c, 0, 84, 64
3, 22080, Note_on_c, 0, 81, 55
3, 22090, Note_off_c, 0, 82, 64
3, 22380, Note_on_c, 0, 84, 50
3, 22390, Note_off_c, 0, 81, 64
3, 22440, Note_on_c, 0, 83, 52
3, 22450, Note_off_c, 0, 84, 64
3, 22500, Note_on_c, 0, 84, 48
3, 22510, Note_off_c, 0, 83, 64
3, 22560, Note_on_c, 0, 79, 45
3, 22570, Note_off_c, 0, 84, 64
3, 22800, Note_off_c, 0, 79, 64
3, 23010, Note_on_c, 0, 57, 75
3, 23040, Note_on_c, 0, 69, 90
3, 23050, Note_off_c, 0, 57, 64
3, 23500, Note_on_c, 0, 79, 40
3, 23520, Note_off_c, 0, 69, 64
3, 23520, Note_on_c, 0, 91, 55
3, 23530, Note_off_c, 0, 79, 64
3, 24060, Note_on_c, 0, 89, 42
3, 24070, Note_off_c, 0, 91, 64
3, 24120, Note_on_c, 0, 88, 44
3, 24130, Note_off_c, 0, 89, 64
3, 24180, Note_on_c, 0, 86, 46
3, 24190, Note_off_c, 0, 88, 64
3, 24240, Note_on_c, 0, 85, 48
3, 24250, Note_off_c, 0, 86, 64
3, 24300, Note_on_c, 0, 86, 45
3, 24310, Note_off_c, 0, 85, 64
3, 24360, Note_on_c, 0, 89, 42
3, 24370, Note_off_c, 0, 86, 64
3, 24420, Note_on_c, 0, 86, 44
3, 24430, Note_off_c, 0, 89, 64
3, 24480, Note_on_c, 0, 84, 46
3, 24490, Note_off_c, 0, 86, 64
3, 24540, Note_on_c, 0, 82, 48
3, 24550, Note_off_c, 0, 84, 64
3, 24600, Note_on_c, 0, 86, 45
3, 24610, Note_off_c, 0, 82, 64
3, 24660, Note_on_c, 0, 82, 47
3, 24670, Note_off_c, 0, 86, 64
3, 24720, Note_on_c, 0, 81, 49
3, 24730, Note_off_c, 0, 82, 64
3, 24780, Note_on_c, 0, 79, 51
3, 24790, Note_off_c, 0, 81, 64
3, 24840, Note_on_c, 0, 77, 53
3, 24850, Note_off_c, 0, 79, 64
3, 24900, Note_on_c, 0, 76, 55
3, 24910, Note_off_c, 0, 77, 64
3, 24960, Note_on_c, 0, 81, 50
3, 24970, Note_off_c, 0, 76, 64
3, 25170, Note_on_c, 0, 82, 55
3, 25180, Note_off_c, 0, 81, 64
3, 25200, Note_on_c, 0, 74, 58
3, 25210, Note_off_c, 0, 82, 64
3, 25560, Note_on_c, 0, 76, 52
3, 25570, Note_off_c, 0, 74, 64
3, 25595, Note_on_c, 0, 74, 50
3, 25605, Note_off_c, 0, 76, 64
3, 25625, Note_on_c, 0, 73, 53
3, 25635, Note_off_c, 0, 74, 64
3, 25650, Note_on_c, 0, 74, 51
3, 25660, Note_off_c, 0, 73, 64
3, 25680, Note_on_c, 0, 67, 22
3, 25680, Note_on_c, 0, 69, 18
3, 25680, Note_on_c, 0, 73, 30
3, 25680, Note_on_c, 0, 77, 48
3, 25690, Note_off_c, 0, 74, 64
3, 25800, Note_on_c, 0, 76, 50
3, 25810, Note_off_c, 0, 77, 64
3, 25920, Note_off_c, 0, 69, 64
3, 25920, Note_on_c, 0, 74, 45
3, 25920, Note_on_c, 0, 69, 20
3, 25920, Note_on_c, 0, 65, 28
3, 25930, Note_off_c, 0, 76, 64
3, 25930, Note_off_c, 0, 73, 64
3, 25930, Note_off_c, 0, 67, 64
3, 26020, Note_off_c, 0, 65, 64
3, 26020, Note_off_c, 0, 69, 64
3, 26020, Note_off_c, 0, 74, 64
3, 26040, Note_on_c, 0, 65, 88
3, 26160, Note_on_c, 0, 69, 90
3, 26170, Note_off_c, 0, 65, 64
3, 26280, Note_on_c, 0, 67, 86
3, 26290, Note_off_c, 0, 69, 64
3, 26400, Note_on_c, 0, 65, 83
3, 26410, Note_off_c, 0, 67, 64
3, 26520, Note_on_c, 0, 64, 80
3, 26530, Note_off_c, 0, 65, 64
3, 26640, Note_on_c, 0, 62, 75
3, 26650, Note_off_c, 0, 64, 64
3, 26760, Note_on_c, 0, 60, 70
3, 26770, Note_off_c, 0, 62, 64
3, 26880, Note_on_c, 0, 55, 100
3, 26890, Note_off_c, 0, 60, 64
3, 27345, Note_on_c, 0, 77, 40
3, 27360, Note_off_c, 0, 55, 64
3, 27360, Note_on_c, 0, 89, 55
3, 27365, Note_off_c, 0, 77, 64
3, 27630, Note_on_c, 0, 86, 48
3, 27640, Note_off_c, 0, 89, 64
3, 27660, Note_on_c, 0, 83, 50
3, 27670, Note_off_c, 0, 86, 64
3, 27690, Note_on_c, 0, 79, 52
3, 27700, Note_off_c, 0, 83, 64
3, 27720, Note_on_c, 0, 77, 54
3, 27730, Note_off_c, 0, 79, 64
3, 27750, Note_on_c, 0, 74, 56
3, 27760, Note_off_c, 0, 77, 64
3, 27780, Note_on_c, 0, 71, 58
3, 27790, Note_off_c, 0, 74, 64
3, 27810, Note_on_c, 0, 65, 62
3, 27820, Note_off_c, 0, 71, 64
3, 27840, Note_on_c, 0, 64, 60
3, 27850, Note_off_c, 0, 65, 64
3, 27870, Note_on_c, 0, 66, 58
3, 27880, Note_off_c, 0, 64, 64
3, 27900, Note_on_c, 0, 67, 56
3, 27910, Note_off_c, 0, 66, 64
3, 27930, Note_on_c, 0, 66, 59
3, 27940, Note_off_c, 0, 67, 64
3, 27960, Note_on_c, 0, 67, 57
3, 27970, Note_off_c, 0, 66, 64
3, 27990, Note_on_c, 0, 71, 55
3, 28000, Note_off_c, 0, 67, 64
3, 28020, Note_on_c, 0, 72, 53
3, 28030, Note_off_c, 0, 71, 64
3, 28050, Note_on_c, 0, 71, 56
3, 28060, Note_off_c, 0, 72, 64
3, 28080, Note_on_c, 0, 72, 54
3, 28090, Note_off_c, 0, 71, 64
3, 28110, Note_on_c, 0, 75, 52
3, 28120, Note_off_c, 0, 72, 64
3, 28140, Note_on_c, 0, 76, 50
3, 28150, Note_off_c, 0, 75, 64
3, 28170, Note_on_c, 0, 75, 53
3, 28180, Note_off_c, 0, 76, 64
3, 28200, Note_on_c, 0, 76, 51
3, 28210, Note_off_c, 0, 75, 64
3, 28230, Note_on_c, 0, 78, 49
3, 28240, Note_off_c, 0, 76, 64
3, 28260, Note_on_c, 0, 79, 47
3, 28270, Note_off_c, 0, 78, 64
3, 28290, Note_on_c, 0, 78, 50
3, 28300, Note_off_c, 0, 79, 64
3, 28320, Note_on_c, 0, 79, 48
3, 28330, Note_off_c, 0, 78, 64
3, 28350, Note_on_c, 0, 83, 46
3, 28360, Note_off_c, 0, 79, 64
3, 28380, Note_on_c, 0, 84, 44
3, 28390, Note_off_c, 0, 83, 64
3, 28410, Note_on_c, 0, 83, 47
3, 28420, Note_off_c, 0, 84, 64
3, 28440, Note_on_c, 0, 84, 45
3, 28450, Note_off_c, 0, 83, 64
3, 28470, Note_on_c, 0, 87, 43
3, 28480, Note_off_c, 0, 84, 64
3, 28500, Note_on_c, 0, 88, 41
3, 28510, Note_off_c, 0, 87, 64
3, 28530, Note_on_c, 0, 87, 44
3, 28540, Note_off_c, 0, 88, 64
3, 28560, Note_on_c, 0, 88, 42
3, 28570, Note_off_c, 0, 87, 64
3, 28590, Note_on_c, 0, 86, 45
3, 28600, Note_off_c, 0, 88, 64
3, 28620, Note_on_c, 0, 84, 48
3, 28630, Note_off_c, 0, 86, 64
3, 28650, Note_on_c, 0, 83, 51
3, 28660, Note_off_c, 0, 84, 64
3, 28680, Note_on_c, 0, 81, 54
3, 28690, Note_off_c, 0, 83, 64
3, 28710, Note_on_c, 0, 79, 57
3, 28720, Note_off_c, 0, 81, 64
3, 28740, Note_on_c, 0, 77, 52
3, 28750, Note_off_c, 0, 79, 64
3, 28770, Note_on_c, 0, 76, 48
3, 28780, Note_off_c, 0, 77, 64
3, 28800, Note_on_c, 0, 74, 50
3, 28810, Note_off_c, 0, 76, 64
3, 28820, Note_off_c, 0, 74, 64
3, 28830, Note_on_c, 0, 69, 52
3, 28845, Note_off_c, 0, 69, 64
3, 28860, Note_on_c, 0, 71, 49
3, 28875, Note_off_c, 0, 71, 64
3, 28890, Note_on_c, 0, 73, 46
3, 28905, Note_off_c, 0, 73, 64
3, 28920, Note_on_c, 0, 74, 48
3, 28935, Note_off_c, 0, 74, 64
3, 28950, Note_on_c, 0, 76, 45
3, 28965, Note_off_c, 0, 76, 64
3, 28980, Note_on_c, 0, 77, 43
3, 28995, Note_off_c, 0, 77, 64
3, 29010, Note_on_c, 0, 76, 46
3, 29025, Note_off_c, 0, 76, 64
3, 29040, Note_on_c, 0, 74, 50
3, 29060, Note_off_c, 0, 74, 64
3, 29070, Note_on_c, 0, 69, 52
3, 29085, Note_off_c, 0, 69, 64
3, 29100, Note_on_c, 0, 71, 49
3, 29115, Note_off_c, 0, 71, 64
3, 29130, Note_on_c, 0, 73, 46
3, 29145, Note_off_c, 0, 73, 64
3, 29160, Note_on_c, 0, 74, 48
3, 29175, Note_off_c, 0, 74, 64
3, 29190, Note_on_c, 0, 76, 45
3, 29205, Note_off_c, 0, 76, 64
3, 29220, Note_on_c, 0, 77, 43
3, 29235, Note_off_c, 0, 77, 64
3, 29250, Note_on_c, 0, 76, 46
3, 29265, Note_off_c, 0, 76, 64
3, 29280, Note_on_c, 0, 74, 50
3, 29300, Note_off_c, 0, 74, 64
3, 29310, Note_on_c, 0, 69, 52
3, 29325, Note_off_c, 0, 69, 64
3, 29340, Note_on_c, 0, 71, 49
3, 29355, Note_off_c, 0, 71, 64
3, 29370, Note_on_c, 0, 73, 46
3, 29385, Note_off_c, 0, 73, 64
3, 29400, Note_on_c, 0, 74, 48
3, 29415, Note_off_c, 0, 74, 64
3, 29430, Note_on_c, 0, 76, 45
3, 29445, Note_off_c, 0, 76, 64
3, 29460, Note_on_c, 0, 77, 43
3, 29475, Note_off_c, 0, 77, 64
3, 29490, Note_on_c, 0, 79, 40
3, 29505, Note_off_c, 0, 79, 64
3, 29520, Note_on_c, 0, 81, 55
3, 29550, Note_on_c, 0, 79, 42
3, 29560, Note_off_c, 0, 81, 64
3, 29565, Note_off_c, 0, 79, 64
3, 29580, Note_on_c, 0, 77, 45
3, 29595, Note_off_c, 0, 77, 64
3, 29610, Note_on_c, 0, 76, 48
3, 29625, Note_off_c, 0, 76, 64
3, 29640, Note_on_c, 0, 74, 51
3, 29655, Note_off_c, 0, 74, 64
3, 29670, Note_on_c, 0, 72, 54
3, 29685, Note_off_c, 0, 72, 64
3, 29700, Note_on_c, 0, 71, 56
3, 29715, Note_off_c, 0, 71, 64
3, 29730, Note_on_c, 0, 69, 58
3, 29745, Note_off_c, 0, 69, 64
3, 29760, Note_on_c, 0, 67, 60
3, 29820, Note_on_c, 0, 69, 62
3, 29830, Note_off_c, 0, 67, 64
3, 29850, Note_on_c, 0, 71, 59
3, 29860, Note_off_c, 0, 69, 64
3, 29880, Note_on_c, 0, 72, 57
3, 29890, Note_off_c, 0, 71, 64
3, 29910, Note_on_c, 0, 74, 55
3, 29920, Note_off_c, 0, 72, 64
3, 29940, Note_on_c, 0, 76, 53
3, 29950, Note_off_c, 0, 74, 64
3, 29970, Note_on_c, 0, 77, 56
3, 29980, Note_off_c, 0, 76, 64
3, 30000, Note_on_c, 0, 79, 59
3, 30010, Note_off_c, 0, 77, 64
3, 30060, Note_on_c, 0, 81, 61
3, 30070, Note_off_c, 0, 79, 64
3, 30090, Note_on_c, 0, 83, 63
3, 30100, Note_off_c, 0, 81, 64
3, 30120, Note_on_c, 0, 84, 60
3, 30130, Note_off_c, 0, 83, 64
3, 30150, Note_on_c, 0, 86, 58
3, 30160, Note_off_c, 0, 84, 64
3, 30180, Note_on_c, 0, 88, 56
3, 30190, Note_off_c, 0, 86, 64
3, 30210, Note_on_c, 0, 89, 54
3, 30220, Note_off_c, 0, 88, 64
3, 30240, Note_on_c, 0, 91, 57
3, 30250, Note_off_c, 0, 89, 64
3, 30290, Note_off_c, 0, 91, 64
3, 30360, Note_on_c, 0, 93, 62
3, 30400, Note_off_c, 0, 93, 64
3, 30480, Note_on_c, 0, 95, 66
3, 30510, Note_off_c, 0, 95, 64
3, 30600, Note_on_c, 0, 96, 70
3, 30640, Note_off_c, 0, 96, 64
3, 30720, Note_on_c, 0, 74, 55
3, 30750, Note_on_c, 0, 76, 40
3, 30760, Note_off_c, 0, 74, 64
3, 30770, Note_on_c, 0, 74, 43
3, 30775, Note_off_c, 0, 76, 64
3, 30785, Note_on_c, 0, 76, 41
3, 30790, Note_off_c, 0, 74, 64
3, 30795, Note_on_c, 0, 74, 44
3, 30805, Note_off_c, 0, 76, 64
3, 30810, Note_on_c, 0, 76, 47
3, 30815, Note_off_c, 0, 74, 64
3, 30825, Note_on_c, 0, 74, 43
3, 30830, Note_off_c, 0, 76, 64
3, 30840, Note_on_c, 0, 76, 48
3, 30845, Note_off_c, 0, 74, 64
3, 30850, Note_on_c, 0, 74, 46
3, 30860, Note_off_c, 0, 76, 64
3, 30865, Note_on_c, 0, 76, 50
3, 30870, Note_off_c, 0, 74, 64
3, 30875, Note_on_c, 0, 74, 52
3, 30885, Note_off_c, 0, 76, 64
3, 30885, Note_on_c, 0, 76, 48
3, 30895, Note_off_c, 0, 74, 64
3, 30900, Note_on_c, 0, 74, 50
3, 30905, Note_off_c, 0, 76, 64
3, 30910, Note_on_c, 0, 76, 55
3, 30920, Note_off_c, 0, 74, 64
3, 30925, Note_on_c, 0, 74, 52
3, 30930, Note_off_c, 0, 76, 64
3, 30935, Note_on_c, 0, 76, 49
3, 30945, Note_off_c, 0, 74, 64
3, 30950, Note_on_c, 0, 74, 58
3, 30955, Note_off_c, 0, 76, 64
3, 30965, Note_on_c, 0, 76, 52
3, 30970, Note_off_c, 0, 74, 64
3, 30975, Note_on_c, 0, 74, 55
3, 30985, Note_off_c, 0, 76, 64
3, 30990, Note_on_c, 0, 76, 60
3, 30995, Note_off_c, 0, 74, 64
3, 31000, Note_on_c, 0, 74, 62
3, 31010, Note_off_c, 0, 76, 64
3, 31010, Note_on_c, 0, 76, 58
3, 31020, Note_off_c, 0, 74, 64
3, 31025, Note_on_c, 0, 74, 65
3, 31030, Note_off_c, 0, 76, 64
3, 31040, Note_on_c, 0, 76, 68
3, 31045, Note_off_c, 0, 74, 64
3, 31050, Note_on_c, 0, 74, 64
3, 31060, Note_off_c, 0, 76, 64
3, 31060, Note_on_c, 0, 76, 66
3, 31070, Note_off_c, 0, 74, 64
3, 31075, Note_on_c, 0, 74, 70
3, 31080, Note_off_c, 0, 76, 64
3, 31085, Note_on_c, 0, 76, 72
3, 31095, Note_off_c, 0, 74, 64
3, 31100, Note_on_c, 0, 74, 69
3, 31105, Note_off_c, 0, 76, 64
3, 31110, Note_on_c, 0, 76, 73
3, 31120, Note_off_c, 0, 74, 64
3, 31130, Note_on_c, 0, 73, 76
3, 31135, Note_off_c, 0, 76, 64
3, 31160, Note_on_c, 0, 74, 80
3, 31165, Note_off_c, 0, 73, 64
3, 31200, Note_on_c, 0, 79, 85
3, 31205, Note_off_c, 0, 74, 64
3, 31230, Note_on_c, 0, 81, 70
3, 31240, Note_off_c, 0, 79, 64
3, 31250, Note_on_c, 0, 79, 73
3, 31255, Note_off_c, 0, 81, 64
3, 31265, Note_on_c, 0, 81, 71
3, 31270, Note_off_c, 0, 79, 64
3, 31275, Note_on_c, 0, 79, 74
3, 31285, Note_off_c, 0, 81, 64
3, 31290, Note_on_c, 0, 81, 77
3, 31295, Note_off_c, 0, 79, 64
3, 31305, Note_on_c, 0, 79, 73
3, 31310, Note_off_c, 0, 81, 64
3, 31320, Note_on_c, 0, 81, 70
3, 31325, Note_off_c, 0, 79, 64
3, 31330, Note_on_c, 0, 79, 75
3, 31340, Note_off_c, 0, 81, 64
3, 31345, Note_on_c, 0, 81, 74
3, 31350, Note_off_c, 0, 79, 64
3, 31355, Note_on_c, 0, 79, 77
3, 31365, Note_off_c, 0, 81, 64
3, 31365, Note_on_c, 0, 81, 76
3, 31375, Note_off_c, 0, 79, 64
3, 31380, Note_on_c, 0, 79, 74
3, 31385, Note_off_c, 0, 81, 64
3, 31390, Note_on_c, 0, 81, 70
3, 31400, Note_off_c, 0, 79, 64
3, 31405, Note_on_c, 0, 79, 68
3, 31410, Note_off_c, 0, 81, 64
3, 31415, Note_on_c, 0, 81, 75
3, 31425, Note_off_c, 0, 79, 64
3, 31430, Note_on_c, 0, 79, 72
3, 31435, Note_off_c, 0, 81, 64
3, 31445, Note_on_c, 0, 81, 74
3, 31450, Note_off_c, 0, 79, 64
3, 31455, Note_on_c, 0, 79, 69
3, 31465, Note_off_c, 0, 81, 64
3, 31470, Note_on_c, 0, 81, 72
3, 31475, Note_off_c, 0, 79, 64
3, 31480, Note_on_c, 0, 79, 67
3, 31490, Note_off_c, 0, 81, 64
3, 31490, Note_on_c, 0, 81, 75
3, 31500, Note_off_c, 0, 79, 64
3, 31505, Note_on_c, 0, 79, 72
3, 31510, Note_off_c, 0, 81, 64
3, 31520, Note_on_c, 0, 81, 69
3, 31525, Note_off_c, 0, 79, 64
3, 31530, Note_on_c, 0, 79, 72
3, 31540, Note_off_c, 0, 81, 64
3, 31540, Note_on_c, 0, 81, 78
3, 31550, Note_off_c, 0, 79, 64
3, 31555, Note_on_c, 0, 79, 70
3, 31560, Note_off_c, 0, 81, 64
3, 31565, Note_on_c, 0, 81, 72
3, 31575, Note_off_c, 0, 79, 64
3, 31580, Note_on_c, 0, 79, 75
3, 31585, Note_off_c, 0, 81, 64
3, 31590, Note_on_c, 0, 81, 80
3, 31600, Note_off_c, 0, 79, 64
3, 31610, Note_on_c, 0, 78, 84
3, 31615, Note_off_c, 0, 81, 64
3, 31640, Note_on_c, 0, 79, 88
3, 31645, Note_off_c, 0, 78, 64
3, 31680, Note_on_c, 0, 72, 95
3, 31680, Note_on_c, 0, 67, 70
3, 31680, Note_on_c, 0, 64, 82
3, 31685, Note_off_c, 0, 79, 64
3, 32040, Note_off_c, 0, 64, 64
3, 32040, Note_off_c, 0, 67, 64
3, 32040, Note_off_c, 0, 72, 64
3, 32130, Note_on_c, 0, 79, 95
3, 32130, Note_on_c, 0, 76, 75
3, 32130, Note_on_c, 0, 72, 60
3, 32130, Note_on_c, 0, 67, 80
3, 32160, Note_off_c, 0, 67, 64
3, 32160, Note_off_c, 0, 72, 64
3, 32160, Note_off_c, 0, 76, 64
3, 32160, Note_off_c, 0, 79, 64
3, 32160, Note_on_c, 0, 81, 100
3, 32160, Note_on_c, 0, 77, 78
3, 32160, Note_on_c, 0, 72, 60
3, 32160, Note_on_c, 0, 69, 85
3, 32360, Note_off_c, 0, 69, 64
3, 32360, Note_off_c, 0, 72, 64
3, 32360, Note_off_c, 0, 77, 64
3, 32360, Note_off_c, 0, 81, 64
3, 32370, Note_on_c, 0, 77, 98
3, 32370, Note_on_c, 0, 72, 50
3, 32370, Note_on_c, 0, 69, 80
3, 32400, Note_off_c, 0, 69, 64
3, 32400, Note_off_c, 0, 72, 64
3, 32400, Note_off_c, 0, 77, 64
3, 32400, Note_on_c, 0, 84, 105
3, 32400, Note_on_c, 0, 77, 68
3, 32400, Note_on_c, 0, 72, 90
3, 32600, Note_off_c, 0, 72, 64
3, 32600, Note_off_c, 0, 77, 64
3, 32600, Note_off_c, 0, 84, 64
3, 32610, Note_on_c, 0, 72, 85
3, 32610, Note_on_c, 0, 77, 72
3, 32610, Note_on_c, 0, 81, 101
3, 32640, Note_off_c, 0, 81, 64
3, 32640, Note_off_c, 0, 77, 64
3, 32640, Note_off_c, 0, 72, 64
3, 32640, Note_on_c, 0, 79, 95
3, 32640, Note_on_c, 0, 76, 88
3, 32640, Note_on_c, 0, 72, 75
3, 32710, Note_off_c, 0, 72, 64
3, 32710, Note_off_c, 0, 76, 64
3, 32710, Note_off_c, 0, 79, 64
3, 32760, Note_on_c, 0, 72, 60
3, 32810, Note_off_c, 0, 72, 64
3, 32820, Note_on_c, 0, 74, 55
3, 32860, Note_off_c, 0, 74, 64
3, 32880, Note_on_c, 0, 76, 50
3, 32925, Note_off_c, 0, 76, 64
3, 32940, Note_on_c, 0, 77, 47
3, 32980, Note_off_c, 0, 77, 64
3, 33000, Note_on_c, 0, 78, 49
3, 33040, Note_off_c, 0, 78, 64
3, 33060, Note_on_c, 0, 79, 43
3, 33100, Note_off_c, 0, 79, 64
3, 33120, Note_on_c, 0, 81, 45
3, 33180, Note_on_c, 0, 80, 47
3, 33190, Note_off_c, 0, 81, 64
3, 33240, Note_on_c, 0, 81, 43
3, 33250, Note_off_c, 0, 80, 64
3, 33300, Note_on_c, 0, 77, 45
3, 33310, Note_off_c, 0, 81, 64
3, 33360, Note_off_c, 0, 77, 64
3, 33360, Note_on_c, 0, 84, 43
3, 33420, Note_on_c, 0, 83, 45
3, 33430, Note_off_c, 0, 84, 64
3, 33480, Note_on_c, 0, 84, 41
3, 33490, Note_off_c, 0, 83, 64
3, 33540, Note_on_c, 0, 81, 45
3, 33550, Note_off_c, 0, 84, 64
3, 33600, Note_off_c, 0, 81, 64
3, 33600, Note_on_c, 0, 79, 40
3, 33840, Note_off_c, 0, 79, 64
3, 34050, Note_on_c, 0, 79, 95
3, 34050, Note_on_c, 0, 76, 75
3, 34050, Note_on_c, 0, 72, 60
3, 34050, Note_on_c, 0, 67, 80
3, 34080, Note_off_c, 0, 67, 64
3, 34080, Note_off_c, 0, 72, 64
3, 34080, Note_off_c, 0, 76, 64
3, 34080, Note_off_c, 0, 79, 64
3, 34080, Note_on_c, 0, 80, 100
3, 34080, Note_on_c, 0, 77, 78
3, 34080, Note_on_c, 0, 72, 60
3, 34080, Note_on_c, 0, 68, 85
3, 34280, Note_off_c, 0, 68, 64
3, 34280, Note_off_c, 0, 72, 64
3, 34280, Note_off_c, 0, 77, 64
3, 34280, Note_off_c, 0, 80, 64
3, 34290, Note_on_c, 0, 77, 98
3, 34290, Note_on_c, 0, 72, 50
3, 34290, Note_on_c, 0, 68, 80
3, 34320, Note_off_c, 0, 68, 64
3, 34320, Note_off_c, 0, 72, 64
3, 34320, Note_off_c, 0, 77, 64
3, 34320, Note_on_c, 0, 84, 105
3, 34320, Note_on_c, 0, 77, 68
3, 34320, Note_on_c, 0, 72, 90
3, 34520, Note_off_c, 0, 72, 64
3, 34520, Note_off_c, 0, 77, 64
3, 34520, Note_off_c, 0, 84, 64
3, 34530, Note_on_c, 0, 72, 85
3, 34530, Note_on_c, 0, 77, 72
3, 34530, Note_on_c, 0, 80, 101
3, 34560, Note_off_c, 0, 80, 64
3, 34560, Note_off_c, 0, 77, 64
3, 34560, Note_off_c, 0, 72, 64
3, 34560, Note_on_c, 0, 79, 95
3, 34560, Note_on_c, 0, 76, 88
3, 34560, Note_on_c, 0, 72, 75
3, 34630, Note_off_c, 0, 72, 64
3, 34630, Note_off_c, 0, 76, 64
3, 34630, Note_off_c, 0, 79, 64
3, 34680, Note_on_c, 0, 72, 60
3, 34730, Note_off_c, 0, 72, 64
3, 34740, Note_on_c, 0, 74, 55
3, 34780, Note_off_c, 0, 74, 64
3, 34800, Note_on_c, 0, 76, 50
3, 34845, Note_off_c, 0, 76, 64
3, 34860, Note_on_c, 0, 77, 47
3, 34900, Note_off_c, 0, 77, 64
3, 34920, Note_on_c, 0, 78, 49
3, 34960, Note_off_c, 0, 78, 64
3, 34980, Note_on_c, 0, 79, 43
3, 35020, Note_off_c, 0, 79, 64
3, 35040, Note_on_c, 0, 80, 45
3, 35130, Note_on_c, 0, 77, 47
3, 35140, Note_off_c, 0, 80, 64
3, 35160, Note_on_c, 0, 84, 50
3, 35170, Note_off_c, 0, 77, 64
3, 35250, Note_on_c, 0, 80, 42
3, 35260, Note_off_c, 0, 84, 64
3, 35280, Note_on_c, 0, 89, 48
3, 35290, Note_off_c, 0, 80, 64
3, 35490, Note_on_c, 0, 80, 45
3, 35500, Note_off_c, 0, 89, 64
3, 35520, Note_on_c, 0, 79, 50
3, 35530, Note_off_c, 0, 80, 64
3, 35550, Note_off_c, 0, 79, 64
3, 35565, Note_on_c, 0, 84, 42
3, 35585, Note_off_c, 0, 84, 64
3, 35600, Note_on_c, 0, 83, 44
3, 35620, Note_off_c, 0, 83, 64
3, 35640, Note_on_c, 0, 84, 46
3, 35660, Note_off_c, 0, 84, 64
3, 35680, Note_on_c, 0, 83, 40
3, 35700, Note_off_c, 0, 83, 64
3, 35720, Note_on_c, 0, 84, 43
3, 35740, Note_off_c, 0, 84, 64
3, 35760, Note_on_c, 0, 80, 46
3, 35790, Note_off_c, 0, 80, 64
3, 35805, Note_on_c, 0, 84, 42
3, 35825, Note_off_c, 0, 84, 64
3, 35840, Note_on_c, 0, 83, 44
3, 35860, Note_off_c, 0, 83, 64
3, 35880, Note_on_c, 0, 84, 46
3, 35900, Note_off_c, 0, 84, 64
3, 35920, Note_on_c, 0, 83, 40
3, 35940, Note_off_c, 0, 83, 64
3, 35960, Note_on_c, 0, 84, 43
3, 35980, Note_off_c, 0, 84, 64
3, 36000, Note_on_c, 0, 79, 48
3, 36030, Note_off_c, 0, 79, 64
3, 36040, Note_on_c, 0, 84, 42
3, 36060, Note_off_c, 0, 84, 64
3, 36080, Note_on_c, 0, 83, 44
3, 36100, Note_off_c, 0, 83, 64
3, 36120, Note_on_c, 0, 84, 46
3, 36140, Note_off_c, 0, 84, 64
3, 36160, Note_on_c, 0, 83, 40
3, 36180, Note_off_c, 0, 83, 64
3, 36200, Note_on_c, 0, 84, 43
3, 36220, Note_off_c, 0, 84, 64
3, 36240, Note_on_c, 0, 80, 45
3, 36270, Note_off_c, 0, 80, 64
3, 36280, Note_on_c, 0, 84, 42
3, 36300, Note_off_c, 0, 84, 64
3, 36320, Note_on_c, 0, 83, 44
3, 36340, Note_off_c, 0, 83, 64
3, 36360, Note_on_c, 0, 84, 46
3, 36380, Note_off_c, 0, 84, 64
3, 36400, Note_on_c, 0, 83, 40
3, 36420, Note_off_c, 0, 83, 64
3, 36440, Note_on_c, 0, 84, 43
3, 36460, Note_off_c, 0, 84, 64
3, 36480, Note_on_c, 0, 83, 46
3, 36500, Note_off_c, 0, 83, 64
3, 36520, Note_on_c, 0, 84, 42
3, 36540, Note_off_c, 0, 84, 64
3, 36560, Note_on_c, 0, 83, 44
3, 36580, Note_off_c, 0, 83, 64
3, 36600, Note_on_c, 0, 84, 42
3, 36620, Note_off_c, 0, 84, 64
3, 36640, Note_on_c, 0, 83, 45
3, 36660, Note_off_c, 0, 83, 64
3, 36680, Note_on_c, 0, 84, 43
3, 36700, Note_off_c, 0, 84, 64
3, 36720, Note_on_c, 0, 83, 46
3, 36740, Note_off_c, 0, 83, 64
3, 36760, Note_on_c, 0, 84, 44
3, 36780, Note_off_c, 0, 84, 64
3, 36800, Note_on_c, 0, 83, 47
3, 36820, Note_off_c, 0, 83, 64
3, 36840, Note_on_c, 0, 84, 45
3, 36860, Note_off_c, 0, 84, 64
3, 36880, Note_on_c, 0, 83, 48
3, 36900, Note_off_c, 0, 83, 64
3, 36920, Note_on_c, 0, 84, 46
3, 36940, Note_off_c, 0, 84, 64
3, 36960, Note_on_c, 0, 83, 49
3, 36980, Note_off_c, 0, 83, 64
3, 37000, Note_on_c, 0, 84, 47
3, 37020, Note_off_c, 0, 84, 64
3, 37040, Note_on_c, 0, 86, 45
3, 37060, Note_off_c, 0, 86, 64
3, 37080, Note_on_c, 0, 84, 48
3, 37100, Note_off_c, 0, 84, 64
3, 37120, Note_on_c, 0, 82, 51
3, 37140, Note_off_c, 0, 82, 64
3, 37160, Note_on_c, 0, 81, 54
3, 37180, Note_off_c, 0, 81, 64
3, 37200, Note_on_c, 0, 79, 57
3, 37220, Note_off_c, 0, 79, 64
3, 37240, Note_on_c, 0, 81, 55
3, 37260, Note_off_c, 0, 81, 64
3, 37280, Note_on_c, 0, 82, 53
3, 37300, Note_off_c, 0, 82, 64
3, 37320, Note_on_c, 0, 81, 56
3, 37340, Note_off_c, 0, 81, 64
3, 37360, Note_on_c, 0, 79, 59
3, 37380, Note_off_c, 0, 79, 64
3, 37400, Note_on_c, 0, 77, 62
3, 37420, Note_off_c, 0, 77, 64
3, 37440, Note_on_c, 0, 76, 65
3, 37460, Note_off_c, 0, 76, 64
3, 37480, Note_on_c, 0, 77, 63
3, 37500, Note_off_c, 0, 77, 64
3, 37520, Note_on_c, 0, 79, 61
3, 37540, Note_off_c, 0, 79, 64
3, 37560, Note_on_c, 0, 77, 64
3, 37580, Note_off_c, 0, 77, 64
3, 37600, Note_on_c, 0, 76, 67
3, 37620, Note_off_c, 0, 76, 64
3, 37640, Note_on_c, 0, 74, 70
3, 37660, Note_off_c, 0, 74, 64
3, 37680, Note_on_c, 0, 72, 73
3, 37700, Note_off_c, 0, 72, 64
3, 37720, Note_on_c, 0, 73, 71
3, 37740, Note_off_c, 0, 73, 64
3, 37760, Note_on_c, 0, 74, 69
3, 37780, Note_off_c, 0, 74, 64
3, 37800, Note_on_c, 0, 75, 67
3, 37820, Note_off_c, 0, 75, 64
3, 37840, Note_on_c, 0, 76, 65
3, 37860, Note_off_c, 0, 76, 64
3, 37880, Note_on_c, 0, 77, 63
3, 37900, Note_off_c, 0, 77, 64
3, 37920, Note_on_c, 0, 78, 61
3, 37940, Note_off_c, 0, 78, 64
3, 37960, Note_on_c, 0, 79, 59
3, 37980, Note_off_c, 0, 79, 64
3, 38000, Note_on_c, 0, 80, 57
3, 38020, Note_off_c, 0, 80, 64
3, 38040, Note_on_c, 0, 81, 55
3, 38060, Note_off_c, 0, 81, 64
3, 38080, Note_on_c, 0, 82, 53
3, 38100, Note_off_c, 0, 82, 64
3, 38120, Note_on_c, 0, 83, 51
3, 38140, Note_off_c, 0, 83, 64
3, 38160, Note_on_c, 0, 84, 49
3, 38180, Note_off_c, 0, 84, 64
3, 38200, Note_on_c, 0, 83, 52
3, 38220, Note_off_c, 0, 83, 64
3, 38240, Note_on_c, 0, 86, 50
3, 38260, Note_off_c, 0, 86, 64
3, 38280, Note_on_c, 0, 84, 53
3, 38300, Note_off_c, 0, 84, 64
3, 38320, Note_on_c, 0, 82, 58
3, 38340, Note_off_c, 0, 82, 64
3, 38360, Note_on_c, 0, 79, 55
3, 38380, Note_off_c, 0, 79, 64
3, 38380, Note_on_c, 0, 69, 40
3, 38390, Note_on_c, 0, 72, 44
3, 38400, Note_off_c, 0, 69, 64
3, 38400, Note_on_c, 0, 77, 50
3, 38410, Note_off_c, 0, 72, 64
3, 38760, Note_on_c, 0, 79, 52
3, 38770, Note_off_c, 0, 77, 64
3, 38795, Note_on_c, 0, 77, 45
3, 38805, Note_off_c, 0, 79, 64
3, 38820, Note_on_c, 0, 76, 48
3, 38830, Note_off_c, 0, 77, 64
3, 38850, Note_on_c, 0, 77, 43
3, 38860, Note_off_c, 0, 76, 64
3, 38880, Note_on_c, 0, 81, 45
3, 38890, Note_off_c, 0, 77, 64
3, 39060, Note_on_c, 0, 79, 48
3, 39070, Note_off_c, 0, 81, 64
3, 39120, Note_on_c, 0, 82, 42
3, 39130, Note_off_c, 0, 79, 64
3, 39300, Note_on_c, 0, 79, 45
3, 39310, Note_off_c, 0, 82, 64
3, 39360, Note_on_c, 0, 77, 48
3, 39370, Note_off_c, 0, 79, 64
3, 39660, Note_on_c, 0, 76, 52
3, 39670, Note_off_c, 0, 77, 64
3, 39720, Note_on_c, 0, 79, 45
3, 39730, Note_off_c, 0, 76, 64
3, 39780, Note_on_c, 0, 76, 47
3, 39790, Note_off_c, 0, 79, 64
3, 39840, Note_on_c, 0, 72, 42
3, 39850, Note_off_c, 0, 76, 64
3, 40080, Note_off_c, 0, 72, 64
3, 40200, Note_on_c, 0, 72, 55
3, 40320, Note_off_c, 0, 72, 64
3, 40320, Note_on_c, 0, 72, 52
3, 40330, Note_on_c, 0, 77, 60
3, 40545, Note_on_c, 0, 81, 50
3, 40560, Note_off_c, 0, 72, 64
3, 40560, Note_on_c, 0, 79, 55
3, 40560, Note_on_c, 0, 72, 35
3, 40565, Note_off_c, 0, 81, 64
3, 40570, Note_off_c, 0, 77, 64
3, 40620, Note_on_c, 0, 78, 58
3, 40630, Note_off_c, 0, 79, 64
3, 40680, Note_on_c, 0, 79, 53
3, 40690, Note_off_c, 0, 78, 64
3, 40740, Note_on_c, 0, 80, 48
3, 40750, Note_off_c, 0, 79, 64
3, 40800, Note_off_c, 0, 72, 64
3, 40800, Note_on_c, 0, 72, 30
3, 40810, Note_off_c, 0, 80, 64
3, 40810, Note_on_c, 0, 81, 50
3, 41025, Note_on_c, 0, 84, 45
3, 41040, Note_off_c, 0, 72, 64
3, 41040, Note_on_c, 0, 74, 32
3, 41040, Note_on_c, 0, 82, 52
3, 41045, Note_off_c, 0, 84, 64
3, 41050, Note_off_c, 0, 81, 64
3, 41100, Note_on_c, 0, 81, 55
3, 41110, Note_off_c, 0, 82, 64
3, 41160, Note_on_c, 0, 82, 50
3, 41170, Note_off_c, 0, 81, 64
3, 41220, Note_on_c, 0, 86, 45
3, 41230, Note_off_c, 0, 82, 64
3, 41255, Note_on_c, 0, 72, 30
3, 41270, Note_on_c, 0, 77, 25
3, 41280, Note_off_c, 0, 74, 64
3, 41280, Note_on_c, 0, 81, 48
3, 41290, Note_off_c, 0, 86, 64
3, 41580, Note_on_c, 0, 82, 50
3, 41590, Note_off_c, 0, 81, 64
3, 41640, Note_on_c, 0, 83, 52
3, 41650, Note_off_c, 0, 82, 64
3, 41700, Note_on_c, 0, 84, 54
3, 41710, Note_off_c, 0, 83, 64
3, 41735, Note_off_c, 0, 72, 64
3, 41750, Note_off_c, 0, 77, 64
3, 41760, Note_on_c, 0, 79, 48
3, 41760, Note_on_c, 0, 76, 35
3, 41760, Note_on_c, 0, 72, 20
3, 41770, Note_off_c, 0, 84, 64
3, 42000, Note_off_c, 0, 72, 64
3, 42000, Note_off_c, 0, 76, 64
3, 42000, Note_off_c, 0, 79, 64
3, 42120, Note_on_c, 0, 72, 60
3, 42240, Note_off_c, 0, 72, 64
3, 42240, Note_on_c, 0, 82, 70
3, 42240, Note_on_c, 0, 76, 62
3, 42240, Note_on_c, 0, 72, 45
3, 42600, Note_on_c, 0, 79, 65
3, 42610, Note_off_c, 0, 76, 64
3, 42610, Note_off_c, 0, 82, 64
3, 42630, Note_on_c, 0, 81, 58
3, 42635, Note_off_c, 0, 79, 64
3, 42650, Note_on_c, 0, 79, 61
3, 42655, Note_off_c, 0, 81, 64
3, 42670, Note_on_c, 0, 78, 63
3, 42675, Note_off_c, 0, 79, 64
3, 42695, Note_on_c, 0, 79, 60
3, 42700, Note_off_c, 0, 78, 64
3, 42720, Note_on_c, 0, 76, 65
3, 42725, Note_off_c, 0, 79, 64
3, 42770, Note_off_c, 0, 76, 64
3, 42770, Note_off_c, 0, 72, 64
3, 42840, Note_on_c, 0, 77, 52
3, 42840, Note_on_c, 0, 72, 38
3, 42960, Note_off_c, 0, 72, 64
3, 42960, Note_on_c, 0, 76, 55
3, 42960, Note_on_c, 0, 72, 40
3, 42970, Note_off_c, 0, 77, 64
3, 43080, Note_off_c, 0, 72, 64
3, 43080, Note_on_c, 0, 72, 45
3, 43080, Note_on_c, 0, 77, 57
3, 43090, Note_off_c, 0, 76, 64
3, 43200, Note_off_c, 0, 72, 64
3, 43200, Note_on_c, 0, 82, 60
3, 43200, Note_on_c, 0, 76, 52
3, 43200, Note_on_c, 0, 72, 35
3, 43210, Note_off_c, 0, 77, 64
3, 43560, Note_on_c, 0, 79, 55
3, 43570, Note_off_c, 0, 76, 64
3, 43570, Note_off_c, 0, 82, 64
3, 43590, Note_on_c, 0, 81, 48
3, 43595, Note_off_c, 0, 79, 64
3, 43610, Note_on_c, 0, 79, 51
3, 43615, Note_off_c, 0, 81, 64
3, 43630, Note_on_c, 0, 78, 53
3, 43635, Note_off_c, 0, 79, 64
3, 43655, Note_on_c, 0, 79, 50
3, 43660, Note_off_c, 0, 78, 64
3, 43680, Note_on_c, 0, 76, 55
3, 43685, Note_off_c, 0, 79, 64
3, 43740, Note_off_c, 0, 76, 64
3, 43740, Note_off_c, 0, 72, 64
3, 43800, Note_on_c, 0, 84, 42
3, 43800, Note_on_c, 0, 72, 28
3, 43920, Note_on_c, 0, 83, 40
3, 43920, Note_on_c, 0, 71, 25
3, 43930, Note_off_c, 0, 72, 64
3, 43930, Note_off_c, 0, 84, 64
3, 44040, Note_on_c, 0, 72, 31
3, 44040, Note_on_c, 0, 84, 46
3, 44050, Note_off_c, 0, 71, 64
3, 44050, Note_off_c, 0, 83, 64
3, 44160, Note_on_c, 0, 86, 50
3, 44160, Note_on_c, 0, 74, 35
3, 44170, Note_off_c, 0, 84, 64
3, 44170, Note_off_c, 0, 72, 64
3, 44460, Note_on_c, 0, 88, 45
3, 44470, Note_off_c, 0, 74, 64
3, 44470, Note_off_c, 0, 86, 64
3, 44480, Note_on_c, 0, 86, 40
3, 44485, Note_off_c, 0, 88, 64
3, 44495, Note_on_c, 0, 85, 42
3, 44500, Note_off_c, 0, 86, 64
3, 44505, Note_on_c, 0, 86, 45
3, 44515, Note_off_c, 0, 85, 64
3, 44520, Note_on_c, 0, 88, 50
3, 44525, Note_off_c, 0, 86, 64
3, 44570, Note_off_c, 0, 88, 64
3, 44580, Note_on_c, 0, 89, 55
3, 44620, Note_off_c, 0, 89, 64
3, 44640, Note_on_c, 0, 77, 60
3, 44640, Note_on_c, 0, 72, 35
3, 44640, Note_on_c, 0, 69, 42
3, 45000, Note_on_c, 0, 70, 48
3, 45000, Note_on_c, 0, 76, 40
3, 45000, Note_on_c, 0, 81, 53
3, 45010, Note_off_c, 0, 69, 64
3, 45010, Note_off_c, 0, 72, 64
3, 45010, Note_off_c, 0, 77, 64
3, 45060, Note_on_c, 0, 79, 57
3, 45070, Note_off_c, 0, 81, 64
3, 45120, Note_off_c, 0, 79, 64
3, 45120, Note_off_c, 0, 76, 64
3, 45120, Note_off_c, 0, 70, 64
3, 45120, Note_on_c, 0, 79, 55
3, 45120, Note_on_c, 0, 76, 42
3, 45120, Note_on_c, 0, 70, 45
3, 45480, Note_on_c, 0, 84, 48
3, 45490, Note_off_c, 0, 70, 64
3, 45490, Note_off_c, 0, 76, 64
3, 45490, Note_off_c, 0, 79, 64
3, 45540, Note_on_c, 0, 76, 52
3, 45550, Note_off_c, 0, 84, 64
3, 45600, Note_on_c, 0, 77, 45
3, 45600, Note_on_c, 0, 72, 25
3, 45600, Note_on_c, 0, 69, 32
3, 45610, Note_off_c, 0, 76, 64
3, 45720, Note_off_c, 0, 69, 64
3, 45720, Note_off_c, 0, 72, 64
3, 45720, Note_off_c, 0, 77, 64
3, 46080, Note_on_c, 0, 77, 68
3, 46080, Note_on_c, 0, 69, 40
3, 46080, Note_on_c, 0, 65, 52
3, 46560, Note_off_c, 0, 65, 64
3, 46560, Note_off_c, 0, 69, 64
3, 46560, Note_off_c, 0, 77, 64
3, 46560, Note_on_c, 0, 81, 72
3, 46560, Note_on_c, 0, 74, 45
3, 46560, Note_on_c, 0, 69, 65
3, 46740, Note_on_c, 0, 79, 75
3, 46740, Note_on_c, 0, 67, 68
3, 46750, Note_off_c, 0, 69, 64
3, 46750, Note_off_c, 0, 74, 64
3, 46750, Note_off_c, 0, 81, 64
3, 46800, Note_on_c, 0, 82, 62
3, 46800, Note_on_c, 0, 74, 40
3, 46800, Note_on_c, 0, 70, 55
3, 46810, Note_off_c, 0, 67, 64
3, 46810, Note_off_c, 0, 79, 64
3, 46980, Note_on_c, 0, 67, 57
3, 46980, Note_on_c, 0, 79, 65
3, 46990, Note_off_c, 0, 70, 64
3, 46990, Note_off_c, 0, 74, 64
3, 46990, Note_off_c, 0, 82, 64
3, 47040, Note_on_c, 0, 77, 68
3, 47040, Note_on_c, 0, 72, 45
3, 47040, Note_on_c, 0, 65, 53
3, 47050, Note_off_c, 0, 79, 64
3, 47050, Note_off_c, 0, 67, 64
3, 47340, Note_on_c, 0, 76, 72
3, 47340, Note_on_c, 0, 64, 60
3, 47350, Note_off_c, 0, 65, 64
3, 47350, Note_off_c, 0, 72, 64
3, 47350, Note_off_c, 0, 77, 64
3, 47400, Note_on_c, 0, 79, 65
3, 47400, Note_on_c, 0, 67, 53
3, 47410, Note_off_c, 0, 64, 64
3, 47410, Note_off_c, 0, 76, 64
3, 47460, Note_on_c, 0, 76, 67
3, 47460, Note_on_c, 0, 64, 55
3, 47470, Note_off_c, 0, 67, 64
3, 47470, Note_off_c, 0, 79, 64
3, 47510, Note_on_c, 0, 60, 45
3, 47520, Note_on_c, 0, 72, 62
3, 47530, Note_off_c, 0, 64, 64
3, 47530, Note_off_c, 0, 76, 64
3, 47750, Note_off_c, 0, 60, 64
3, 47760, Note_off_c, 0, 72, 64
3, 47880, Note_on_c, 0, 72, 75
3, 48000, Note_on_c, 0, 65, 50
3, 48010, Note_off_c, 0, 72, 64
3, 48010, Note_on_c, 0, 77, 80
3, 48225, Note_on_c, 0, 81, 60
3, 48240, Note_off_c, 0, 65, 64
3, 48240, Note_on_c, 0, 79, 75
3, 48240, Note_on_c, 0, 67, 60
3, 48245, Note_off_c, 0, 81, 64
3, 48250, Note_off_c, 0, 77, 64
3, 48300, Note_on_c, 0, 78, 78
3, 48300, Note_on_c, 0, 66, 63
3, 48310, Note_off_c, 0, 67, 64
3, 48310, Note_off_c, 0, 79, 64
3, 48360, Note_on_c, 0, 79, 73
3, 48360, Note_on_c, 0, 67, 58
3, 48370, Note_off_c, 0, 66, 64
3, 48370, Note_off_c, 0, 78, 64
3, 48420, Note_on_c, 0, 80, 68
3, 48420, Note_on_c, 0, 68, 53
3, 48430, Note_off_c, 0, 67, 64
3, 48430, Note_off_c, 0, 79, 64
3, 48480, Note_on_c, 0, 81, 70
3, 48480, Note_on_c, 0, 69, 50
3, 48490, Note_off_c, 0, 68, 64
3, 48490, Note_off_c, 0, 80, 64
3, 48705, Note_on_c, 0, 84, 60
3, 48720, Note_off_c, 0, 69, 64
3, 48720, Note_off_c, 0, 81, 64
3, 48720, Note_on_c, 0, 82, 72
3, 48720, Note_on_c, 0, 70, 52
3, 48725, Note_off_c, 0, 84, 64
3, 48780, Note_on_c, 0, 81, 75
3, 48780, Note_on_c, 0, 69, 55
3, 48790, Note_off_c, 0, 70, 64
3, 48790, Note_off_c, 0, 82, 64
3, 48840, Note_on_c, 0, 82, 70
3, 48840, Note_on_c, 0, 70, 57
3, 48850, Note_off_c, 0, 69, 64
3, 48850, Note_off_c, 0, 81, 64
3, 48900, Note_on_c, 0, 74, 52
3, 48900, Note_on_c, 0, 86, 65
3, 48910, Note_off_c, 0, 70, 64
3, 48910, Note_off_c, 0, 82, 64
3, 48960, Note_on_c, 0, 81, 68
3, 48960, Note_on_c, 0, 77, 40
3, 48960, Note_on_c, 0, 69, 55
3, 48970, Note_off_c, 0, 86, 64
3, 48970, Note_off_c, 0, 74, 64
3, 49260, Note_on_c, 0, 82, 70
3, 49260, Note_on_c, 0, 70, 57
3, 49270, Note_off_c, 0, 69, 64
3, 49270, Note_off_c, 0, 77, 64
3, 49270, Note_off_c, 0, 81, 64
3, 49320, Note_on_c, 0, 83, 65
3, 49320, Note_on_c, 0, 71, 52
3, 49330, Note_off_c, 0, 70, 64
3, 49330, Note_off_c, 0, 82, 64
3, 49380, Note_on_c, 0, 84, 63
3, 49380, Note_on_c, 0, 72, 51
3, 49390, Note_off_c, 0, 71, 64
3, 49390, Note_off_c, 0, 83, 64
3, 49440, Note_on_c, 0, 79, 60
3, 49440, Note_on_c, 0, 76, 32
3, 49440, Note_on_c, 0, 67, 50
3, 49450, Note_off_c, 0, 72, 64
3, 49450, Note_off_c, 0, 84, 64
3, 49680, Note_off_c, 0, 67, 64
3, 49680, Note_off_c, 0, 76, 64
3, 49680, Note_off_c, 0, 79, 64
3, 49800, Note_on_c, 0, 72, 80
3, 49920, Note_off_c, 0, 72, 64
3, 49920, Note_on_c, 0, 82, 90
3, 49920, Note_on_c, 0, 79, 75
3, 49920, Note_on_c, 0, 76, 82
3, 49920, Note_on_c, 0, 72, 65
3, 50280, Note_off_c, 0, 79, 64
3, 50280, Note_on_c, 0, 79, 85
3, 50290, Note_off_c, 0, 72, 64
3, 50290, Note_off_c, 0, 76, 64
3, 50290, Note_off_c, 0, 82, 64
3, 50305, Note_on_c, 0, 81, 70
3, 50315, Note_off_c, 0, 79, 64
3, 50320, Note_on_c, 0, 79, 60
3, 50325, Note_off_c, 0, 81, 64
3, 50335, Note_on_c, 0, 81, 63
3, 50340, Note_off_c, 0, 79, 64
3, 50350, Note_on_c, 0, 79, 66
3, 50355, Note_off_c, 0, 81, 64
3, 50365, Note_on_c, 0, 78, 68
3, 50370, Note_off_c, 0, 79, 64
3, 50380, Note_on_c, 0, 79, 70
3, 50385, Note_off_c, 0, 78, 64
3, 50400, Note_off_c, 0, 79, 64
3, 50400, Note_on_c, 0, 76, 85
3, 50400, Note_on_c, 0, 72, 70
3, 50450, Note_off_c, 0, 72, 64
3, 50450, Note_off_c, 0, 76, 64
3, 50520, Note_on_c, 0, 77, 82
3, 50520, Note_on_c, 0, 65, 68
3, 50640, Note_on_c, 0, 76, 85
3, 50640, Note_on_c, 0, 64, 70
3, 50650, Note_off_c, 0, 65, 64
3, 50650, Note_off_c, 0, 77, 64
3, 50760, Note_on_c, 0, 65, 65
3, 50760, Note_on_c, 0, 77, 80
3, 50770, Note_off_c, 0, 64, 64
3, 50770, Note_off_c, 0, 76, 64
3, 50880, Note_on_c, 0, 82, 85
3, 50880, Note_on_c, 0, 79, 60
3, 50880, Note_on_c, 0, 76, 77
3, 50880, Note_on_c, 0, 72, 65
3, 50890, Note_off_c, 0, 77, 64
3, 50890, Note_off_c, 0, 65, 64
3, 51240, Note_off_c, 0, 79, 64
3, 51240, Note_on_c, 0, 79, 80
3, 51250, Note_off_c, 0, 72, 64
3, 51250, Note_off_c, 0, 76, 64
3, 51250, Note_off_c, 0, 82, 64
3, 51265, Note_on_c, 0, 81, 68
3, 51275, Note_off_c, 0, 79, 64
3, 51280, Note_on_c, 0, 79, 60
3, 51285, Note_off_c, 0, 81, 64
3, 51295, Note_on_c, 0, 81, 62
3, 51300, Note_off_c, 0, 79, 64
3, 51310, Note_on_c, 0, 79, 64
3, 51315, Note_off_c, 0, 81, 64
3, 51325, Note_on_c, 0, 78, 66
3, 51330, Note_off_c, 0, 79, 64
3, 51340, Note_on_c, 0, 79, 68
3, 51345, Note_off_c, 0, 78, 64
3, 51360, Note_on_c, 0, 76, 80
3, 51360, Note_on_c, 0, 72, 60
3, 51365, Note_off_c, 0, 79, 64
3, 51420, Note_off_c, 0, 72, 64
3, 51420, Note_off_c, 0, 76, 64
3, 51480, Note_on_c, 0, 84, 67
3, 51480, Note_on_c, 0, 77, 45
3, 51480, Note_on_c, 0, 72, 53
3, 51600, Note_off_c, 0, 77, 64
3, 51600, Note_on_c, 0, 83, 75
3, 51600, Note_on_c, 0, 77, 48
3, 51600, Note_on_c, 0, 71, 60
3, 51610, Note_off_c, 0, 72, 64
3, 51610, Note_off_c, 0, 84, 64
3, 51720, Note_off_c, 0, 77, 64
3, 51720, Note_on_c, 0, 72, 56
3, 51720, Note_on_c, 0, 77, 43
3, 51720, Note_on_c, 0, 84, 71
3, 51730, Note_off_c, 0, 71, 64
3, 51730, Note_off_c, 0, 83, 64
3, 51840, Note_off_c, 0, 77, 64
3, 51840, Note_on_c, 0, 86, 65
3, 51840, Note_on_c, 0, 77, 40
3, 51840, Note_on_c, 0, 74, 50
3, 51850, Note_off_c, 0, 84, 64
3, 51850, Note_off_c, 0, 72, 64
3, 52130, Note_off_c, 0, 74, 64
3, 52130, Note_off_c, 0, 77, 64
3, 52130, Note_off_c, 0, 86, 64
3, 52140, Note_on_c, 0, 86, 70
3, 52140, Note_on_c, 0, 74, 55
3, 52170, Note_off_c, 0, 74, 64
3, 52170, Note_off_c, 0, 86, 64
3, 52200, Note_on_c, 0, 88, 63
3, 52200, Note_on_c, 0, 76, 52
3, 52225, Note_off_c, 0, 76, 64
3, 52225, Note_off_c, 0, 88, 64
3, 52260, Note_on_c, 0, 89, 60
3, 52260, Note_on_c, 0, 77, 50
3, 52290, Note_off_c, 0, 77, 64
3, 52290, Note_off_c, 0, 89, 64
3, 52320, Note_on_c, 0, 77, 65
3, 52320, Note_on_c, 0, 65, 60
3, 52560, Note_on_c, 0, 81, 68
3, 52560, Note_on_c, 0, 69, 55
3, 52570, Note_off_c, 0, 65, 64
3, 52570, Note_off_c, 0, 77, 64
3, 52740, Note_on_c, 0, 67, 47
3, 52740, Note_on_c, 0, 79, 62
3, 52750, Note_off_c, 0, 69, 64
3, 52750, Note_off_c, 0, 81, 64
3, 52800, Note_off_c, 0, 79, 64
3, 52800, Note_off_c, 0, 67, 64
3, 52800, Note_on_c, 0, 77, 60
3, 52800, Note_on_c, 0, 65, 43
3, 53000, Note_off_c, 0, 65, 64
3, 53000, Note_off_c, 0, 77, 64
3, 53040, Note_on_c, 0, 69, 100
3, 53250, Note_off_c, 0, 69, 64
3, 53250, Note_on_c, 0, 69, 95
3, 53280, Note_on_c, 0, 62, 105
3, 53290, Note_off_c, 0, 69, 64
3, 53480, Note_off_c, 0, 62, 64
3, 53520, Note_on_c, 0, 86, 100
3, 53520, Note_on_c, 0, 74, 80
3, 53730, Note_off_c, 0, 74, 64
3, 53730, Note_off_c, 0, 86, 64
3, 53730, Note_on_c, 0, 74, 78
3, 53730, Note_on_c, 0, 86, 95
3, 53760, Note_on_c, 0, 79, 105
3, 53760, Note_on_c, 0, 67, 75
3, 53770, Note_off_c, 0, 86, 64
3, 53770, Note_off_c, 0, 74, 64
3, 53960, Note_off_c, 0, 67, 64
3, 53960, Note_off_c, 0, 79, 64
3, 54000, Note_on_c, 0, 82, 100
3, 54000, Note_on_c, 0, 70, 80
3, 54210, Note_off_c, 0, 70, 64
3, 54210, Note_off_c, 0, 82, 64
3, 54210, Note_on_c, 0, 82, 95
3, 54210, Note_on_c, 0, 70, 75
3, 54240, Note_off_c, 0, 82, 64
3, 54240, Note_on_c, 0, 88, 105
3, 54240, Note_on_c, 0, 82, 60
3, 54240, Note_on_c, 0, 76, 80
3, 54250, Note_off_c, 0, 70, 64
3, 54440, Note_off_c, 0, 76, 64
3, 54440, Note_off_c, 0, 82, 64
3, 54440, Note_off_c, 0, 88, 64
3, 54480, Note_on_c, 0, 89, 95
3, 54480, Note_on_c, 0, 80, 58
3, 54480, Note_on_c, 0, 77, 70
3, 54660, Note_off_c, 0, 77, 64
3, 54660, Note_off_c, 0, 80, 64
3, 54660, Note_off_c, 0, 89, 64
3, 54720, Note_on_c, 0, 79, 80
3, 54720, Note_on_c, 0, 77, 65
3, 54720, Note_on_c, 0, 73, 45
3, 54720, Note_on_c, 0, 67, 70
3, 54960, Note_on_c, 0, 74, 45
3, 54970, Note_off_c, 0, 73, 64
3, 55020, Note_on_c, 0, 80, 82
3, 55020, Note_on_c, 0, 68, 68
3, 55030, Note_off_c, 0, 74, 64
3, 55030, Note_off_c, 0, 67, 64
3, 55030, Note_off_c, 0, 77, 64
3, 55030, Note_off_c, 0, 79, 64
3, 55080, Note_on_c, 0, 82, 76
3, 55080, Note_on_c, 0, 70, 66
3, 55090, Note_off_c, 0, 68, 64
3, 55090, Note_off_c, 0, 80, 64
3, 55140, Note_on_c, 0, 85, 73
3, 55140, Note_on_c, 0, 73, 64
3, 55150, Note_off_c, 0, 70, 64
3, 55150, Note_off_c, 0, 82, 64
3, 55190, Note_off_c, 0, 73, 64
3, 55190, Note_off_c, 0, 85, 64
3, 55200, Note_on_c, 0, 85, 68
3, 55200, Note_on_c, 0, 73, 60
3, 55260, Note_on_c, 0, 84, 72
3, 55260, Note_on_c, 0, 72, 62
3, 55270, Note_off_c, 0, 73, 64
3, 55270, Note_off_c, 0, 85, 64
3, 55320, Note_on_c, 0, 82, 75
3, 55320, Note_on_c, 0, 70, 64
3, 55330, Note_off_c, 0, 72, 64
3, 55330, Note_off_c, 0, 84, 64
3, 55380, Note_on_c, 0, 80, 77
3, 55380, Note_on_c, 0, 68, 66
3, 55390, Note_off_c, 0, 70, 64
3, 55390, Note_off_c, 0, 82, 64
3, 55430, Note_off_c, 0, 68, 64
3, 55430, Note_off_c, 0, 80, 64
3, 55440, Note_on_c, 0, 80, 74
3, 55440, Note_on_c, 0, 68, 63
3, 55500, Note_on_c, 0, 79, 76
3, 55500, Note_on_c, 0, 67, 65
3, 55510, Note_off_c, 0, 68, 64
3, 55510, Note_off_c, 0, 80, 64
3, 55560, Note_on_c, 0, 82, 72
3, 55560, Note_on_c, 0, 70, 58
3, 55570, Note_off_c, 0, 67, 64
3, 55570, Note_off_c, 0, 79, 64
3, 55620, Note_on_c, 0, 64, 60
3, 55620, Note_on_c, 0, 76, 75
3, 55630, Note_off_c, 0, 70, 64
3, 55630, Note_off_c, 0, 82, 64
3, 55665, Note_on_c, 0, 77, 90
3, 55680, Note_on_c, 0, 89, 115
3, 55690, Note_off_c, 0, 76, 64
3, 55690, Note_off_c, 0, 64, 64
3, 56145, Note_off_c, 0, 77, 64
3, 56160, Note_on_c, 0, 84, 70
3, 56160, Note_on_c, 0, 72, 55
3, 56170, Note_off_c, 0, 89, 64
3, 56520, Note_on_c, 0, 80, 60
3, 56520, Note_on_c, 0, 68, 45
3, 56530, Note_off_c, 0, 72, 64
3, 56530, Note_off_c, 0, 84, 64
3, 56580, Note_on_c, 0, 65, 48
3, 56580, Note_on_c, 0, 77, 62
3, 56590, Note_off_c, 0, 68, 64
3, 56590, Note_off_c, 0, 80, 64
3, 56640, Note_on_c, 0, 76, 65
3, 56640, Note_on_c, 0, 64, 50
3, 56650, Note_off_c, 0, 77, 64
3, 56650, Note_off_c, 0, 65, 64
3, 56820, Note_on_c, 0, 77, 62
3, 56820, Note_on_c, 0, 65, 48
3, 56830, Note_off_c, 0, 64, 64
3, 56830, Note_off_c, 0, 76, 64
3, 56870, Note_off_c, 0, 65, 64
3, 56870, Note_off_c, 0, 77, 64
3, 56880, Note_on_c, 0, 79, 67
3, 56880, Note_on_c, 0, 67, 52
3, 57060, Note_on_c, 0, 80, 72
3, 57060, Note_on_c, 0, 68, 58
3, 57070, Note_off_c, 0, 67, 64
3, 57070, Note_off_c, 0, 79, 64
3, 57110, Note_off_c, 0, 68, 64
3, 57110, Note_off_c, 0, 80, 64
3, 57120, Note_on_c, 0, 82, 77
3, 57120, Note_on_c, 0, 70, 62
3, 57300, Note_on_c, 0, 84, 87
3, 57300, Note_on_c, 0, 72, 73
3, 57310, Note_off_c, 0, 70, 64
3, 57310, Note_off_c, 0, 82, 64
3, 57350, Note_off_c, 0, 72, 64
3, 57350, Note_off_c, 0, 84, 64
3, 57360, Note_on_c, 0, 85, 84
3, 57360, Note_on_c, 0, 73, 69
3, 57540, Note_on_c, 0, 76, 79
3, 57540, Note_on_c, 0, 64, 65
3, 57550, Note_off_c, 0, 73, 64
3, 57550, Note_off_c, 0, 85, 64
3, 57585, Note_on_c, 0, 65, 70
3, 57590, Note_off_c, 0, 64, 64
3, 57590, Note_off_c, 0, 76, 64
3, 57600, Note_on_c, 0, 77, 85
3, 57610, Note_off_c, 0, 65, 64
3, 57840, Note_on_c, 0, 65, 78
3, 57850, Note_off_c, 0, 77, 64
3, 58070, Note_on_c, 0, 68, 60
3, 58080, Note_on_c, 0, 72, 66
3, 58085, Note_on_c, 0, 80, 82
3, 58090, Note_off_c, 0, 65, 64
3, 58370, Note_off_c, 0, 80, 64
3, 58370, Note_off_c, 0, 72, 64
3, 58370, Note_off_c, 0, 68, 64
3, 58380, Note_on_c, 0, 79, 90
3, 58410, Note_on_c, 0, 80, 87
3, 58420, Note_off_c, 0, 79, 64
3, 58440, Note_on_c, 0, 82, 82
3, 58450, Note_off_c, 0, 80, 64
3, 58470, Note_off_c, 0, 82, 64
3, 58500, Note_on_c, 0, 80, 85
3, 58530, Note_off_c, 0, 80, 64
3, 58550, Note_on_c, 0, 68, 60
3, 58560, Note_on_c, 0, 72, 68
3, 58570, Note_off_c, 0, 68, 64
3, 58570, Note_on_c, 0, 78, 85
3, 58580, Note_off_c, 0, 72, 64
3, 58590, Note_off_c, 0, 78, 64
3, 58605, Note_on_c, 0, 77, 88
3, 58620, Note_off_c, 0, 77, 64
3, 58640, Note_on_c, 0, 78, 84
3, 58655, Note_off_c, 0, 78, 64
3, 58680, Note_on_c, 0, 82, 80
3, 58695, Note_off_c, 0, 82, 64
3, 58720, Note_on_c, 0, 80, 76
3, 58735, Note_off_c, 0, 80, 64
3, 58760, Note_on_c, 0, 78, 73
3, 58775, Note_off_c, 0, 78, 64
3, 58800, Note_on_c, 0, 77, 76
3, 58815, Note_off_c, 0, 77, 64
3, 58840, Note_on_c, 0, 75, 78
3, 58855, Note_off_c, 0, 75, 64
3, 58880, Note_on_c, 0, 73, 80
3, 58895, Note_off_c, 0, 73, 64
3, 58920, Note_on_c, 0, 72, 77
3, 58935, Note_off_c, 0, 72, 64
3, 58960, Note_on_c, 0, 70, 74
3, 58975, Note_off_c, 0, 70, 64
3, 59000, Note_on_c, 0, 68, 68
3, 59015, Note_off_c, 0, 68, 64
3, 59040, Note_on_c, 0, 67, 70
3, 59055, Note_off_c, 0, 67, 64
3, 59080, Note_on_c, 0, 68, 72
3, 59095, Note_off_c, 0, 68, 64
3, 59120, Note_on_c, 0, 70, 74
3, 59135, Note_off_c, 0, 70, 64
3, 59160, Note_on_c, 0, 72, 76
3, 59175, Note_off_c, 0, 72, 64
3, 59200, Note_on_c, 0, 73, 76
3, 59215, Note_off_c, 0, 73, 64
3, 59240, Note_on_c, 0, 75, 73
3, 59255, Note_off_c, 0, 75, 64
3, 59280, Note_on_c, 0, 77, 70
3, 59295, Note_off_c, 0, 77, 64
3, 59320, Note_on_c, 0, 78, 67
3, 59335, Note_off_c, 0, 78, 64
3, 59360, Note_on_c, 0, 75, 69
3, 59375, Note_off_c, 0, 75, 64
3, 59400, Note_on_c, 0, 72, 71
3, 59415, Note_off_c, 0, 72, 64
3, 59440, Note_on_c, 0, 68, 73
3, 59455, Note_off_c, 0, 68, 64
3, 59480, Note_on_c, 0, 66, 75
3, 59495, Note_off_c, 0, 66, 64
3, 59520, Note_on_c, 0, 65, 78
3, 59535, Note_off_c, 0, 65, 64
3, 59565, Note_on_c, 0, 61, 76
3, 59580, Note_off_c, 0, 61, 64
3, 59600, Note_on_c, 0, 63, 74
3, 59615, Note_off_c, 0, 63, 64
3, 59640, Note_on_c, 0, 65, 72
3, 59655, Note_off_c, 0, 65, 64
3, 59680, Note_on_c, 0, 66, 70
3, 59695, Note_off_c, 0, 66, 64
3, 59720, Note_on_c, 0, 68, 68
3, 59735, Note_off_c, 0, 68, 64
3, 59760, Note_on_c, 0, 70, 71
3, 59775, Note_off_c, 0, 70, 64
3, 59800, Note_on_c, 0, 72, 74
3, 59815, Note_off_c, 0, 72, 64
3, 59840, Note_on_c, 0, 73, 76
3, 59855, Note_off_c, 0, 73, 64
3, 59880, Note_on_c, 0, 75, 77
3, 59895, Note_off_c, 0, 75, 64
3, 59920, Note_on_c, 0, 77, 78
3, 59935, Note_off_c, 0, 77, 64
3, 59960, Note_on_c, 0, 78, 79
3, 59975, Note_off_c, 0, 78, 64
3, 60000, Note_on_c, 0, 80, 80
3, 60015, Note_off_c, 0, 80, 64
3, 60040, Note_on_c, 0, 82, 77
3, 60055, Note_off_c, 0, 82, 64
3, 60080, Note_on_c, 0, 84, 74
3, 60095, Note_off_c, 0, 84, 64
3, 60120, Note_on_c, 0, 85, 71
3, 60135, Note_off_c, 0, 85, 64
3, 60160, Note_on_c, 0, 87, 68
3, 60175, Note_off_c, 0, 87, 64
3, 60200, Note_on_c, 0, 88, 65
3, 60215, Note_off_c, 0, 88, 64
3, 60240, Note_on_c, 0, 89, 60
3, 60300, Note_off_c, 0, 89, 64
3, 60360, Note_on_c, 0, 57, 80
3, 60410, Note_off_c, 0, 57, 64
3, 60480, Note_on_c, 0, 58, 72
3, 60550, Note_off_c, 0, 58, 64
3, 60600, Note_on_c, 0, 82, 70
3, 60615, Note_off_c, 0, 82, 64
3, 60645, Note_on_c, 0, 81, 66
3, 60660, Note_off_c, 0, 81, 64
3, 60680, Note_on_c, 0, 82, 60
3, 60695, Note_off_c, 0, 82, 64
3, 60720, Note_on_c, 0, 75, 72
3, 60735, Note_off_c, 0, 75, 64
3, 60760, Note_on_c, 0, 74, 68
3, 60775, Note_off_c, 0, 74, 64
3, 60800, Note_on_c, 0, 75, 62
3, 60815, Note_off_c, 0, 75, 64
3, 60840, Note_on_c, 0, 78, 67
3, 60855, Note_off_c, 0, 78, 64
3, 60880, Note_on_c, 0, 77, 63
3, 60895, Note_off_c, 0, 77, 64
3, 60920, Note_on_c, 0, 78, 57
3, 60935, Note_off_c, 0, 78, 64
3, 60960, Note_on_c, 0, 72, 69
3, 60975, Note_off_c, 0, 72, 64
3, 61000, Note_on_c, 0, 71, 65
3, 61015, Note_off_c, 0, 71, 64
3, 61040, Note_on_c, 0, 72, 59
3, 61055, Note_off_c, 0, 72, 64
3, 61080, Note_on_c, 0, 75, 63
3, 61095, Note_off_c, 0, 75, 64
3, 61120, Note_on_c, 0, 74, 69
3, 61135, Note_off_c, 0, 74, 64
3, 61160, Note_on_c, 0, 75, 63
3, 61175, Note_off_c, 0, 75, 64
3, 61200, Note_on_c, 0, 66, 60
3, 61215, Note_off_c, 0, 66, 64
3, 61240, Note_on_c, 0, 70, 55
3, 61255, Note_off_c, 0, 70, 64
3, 61280, Note_on_c, 0, 68, 57
3, 61295, Note_off_c, 0, 68, 64
3, 61320, Note_on_c, 0, 66, 59
3, 61335, Note_off_c, 0, 66, 64
3, 61360, Note_on_c, 0, 65, 53
3, 61375, Note_off_c, 0, 65, 64
3, 61395, Note_on_c, 0, 63, 50
3, 61410, Note_off_c, 0, 63, 64
3, 61420, Note_on_c, 0, 53, 50
3, 61430, Note_on_c, 0, 56, 54
3, 61440, Note_off_c, 0, 53, 64
3, 61440, Note_on_c, 0, 61, 60
3, 61450, Note_off_c, 0, 56, 64
3, 61920, Note_on_c, 0, 65, 55
3, 61930, Note_off_c, 0, 61, 64
3, 62130, Note_on_c, 0, 63, 58
3, 62140, Note_off_c, 0, 65, 64
3, 62160, Note_on_c, 0, 66, 52
3, 62170, Note_off_c, 0, 63, 64
3, 62370, Note_on_c, 0, 63, 55
3, 62380, Note_off_c, 0, 66, 64
3, 62400, Note_on_c, 0, 61, 58
3, 62410, Note_off_c, 0, 63, 64
3, 62700, Note_on_c, 0, 60, 62
3, 62710, Note_off_c, 0, 61, 64
3, 62760, Note_on_c, 0, 63, 55
3, 62770, Note_off_c, 0, 60, 64
3, 62820, Note_on_c, 0, 60, 57
3, 62830, Note_off_c, 0, 63, 64
3, 62880, Note_on_c, 0, 56, 52
3, 62890, Note_off_c, 0, 60, 64
3, 62980, Note_off_c, 0, 56, 64
3, 63120, Note_on_c, 0, 63, 55
3, 63120, Note_on_c, 0, 75, 70
3, 63610, Note_off_c, 0, 63, 64
3, 63660, Note_on_c, 0, 74, 72
3, 63670, Note_off_c, 0, 75, 64
3, 63720, Note_on_c, 0, 77, 65
3, 63730, Note_off_c, 0, 74, 64
3, 63780, Note_on_c, 0, 74, 68
3, 63790, Note_off_c, 0, 77, 64
3, 63840, Note_on_c, 0, 70, 70
3, 63840, Note_on_c, 0, 63, 60
3, 63850, Note_off_c, 0, 74, 64
3, 63900, Note_on_c, 0, 62, 65
3, 63910, Note_off_c, 0, 63, 64
3, 63960, Note_on_c, 0, 65, 55
3, 63970, Note_off_c, 0, 62, 64
3, 64020, Note_on_c, 0, 62, 58
3, 64030, Note_off_c, 0, 65, 64
3, 64050, Note_off_c, 0, 70, 64
3, 64080, Note_on_c, 0, 65, 65
3, 64080, Note_on_c, 0, 77, 80
3, 64090, Note_off_c, 0, 62, 64
3, 64570, Note_off_c, 0, 65, 64
3, 64620, Note_on_c, 0, 76, 82
3, 64630, Note_off_c, 0, 77, 64
3, 64680, Note_on_c, 0, 79, 75
3, 64690, Note_off_c, 0, 76, 64
3, 64740, Note_on_c, 0, 76, 78
3, 64750, Note_off_c, 0, 79, 64
3, 64800, Note_on_c, 0, 72, 80
3, 64800, Note_on_c, 0, 65, 70
3, 64810, Note_off_c, 0, 76, 64
3, 64860, Note_on_c, 0, 64, 75
3, 64870, Note_off_c, 0, 65, 64
3, 64920, Note_on_c, 0, 67, 65
3, 64930, Note_off_c, 0, 64, 64
3, 64980, Note_on_c, 0, 64, 68
3, 64990, Note_off_c, 0, 67, 64
3, 65010, Note_off_c, 0, 72, 64
3, 65040, Note_off_c, 0, 64, 64
3, 65040, Note_on_c, 0, 64, 60
3, 65040, Note_on_c, 0, 72, 70
3, 65040, Note_on_c, 0, 60, 55
3, 65140, Note_off_c, 0, 60, 64
3, 65140, Note_off_c, 0, 72, 64
3, 65160, Note_on_c, 0, 60, 75
3, 65160, Note_on_c, 0, 72, 100
3, 65280, Note_off_c, 0, 72, 64
3, 65280, Note_off_c, 0, 64, 64
3, 65280, Note_on_c, 0, 84, 105
3, 65280, Note_on_c, 0, 77, 70
3, 65280, Note_on_c, 0, 72, 95
3, 65290, Note_off_c, 0, 60, 64
3, 65580, Note_on_c, 0, 80, 97
3, 65580, Note_on_c, 0, 68, 77
3, 65590, Note_off_c, 0, 72, 64
3, 65590, Note_off_c, 0, 77, 64
3, 65590, Note_off_c, 0, 84, 64
3, 65640, Note_on_c, 0, 84, 90
3, 65640, Note_on_c, 0, 72, 70
3, 65650, Note_off_c, 0, 68, 64
3, 65650, Note_off_c, 0, 80, 64
3, 65700, Note_on_c, 0, 80, 86
3, 65700, Note_on_c, 0, 68, 66
3, 65710, Note_off_c, 0, 72, 64
3, 65710, Note_off_c, 0, 84, 64
3, 65760, Note_on_c, 0, 79, 90
3, 65760, Note_on_c, 0, 67, 70
3, 65770, Note_off_c, 0, 68, 64
3, 65770, Note_off_c, 0, 80, 64
3, 65820, Note_on_c, 0, 77, 93
3, 65820, Note_on_c, 0, 65, 73
3, 65830, Note_off_c, 0, 67, 64
3, 65830, Note_off_c, 0, 79, 64
3, 65880, Note_on_c, 0, 80, 96
3, 65880, Note_on_c, 0, 68, 76
3, 65890, Note_off_c, 0, 65, 64
3, 65890, Note_off_c, 0, 77, 64
3, 65940, Note_on_c, 0, 77, 99
3, 65940, Note_on_c, 0, 65, 79
3, 65950, Note_off_c, 0, 68, 64
3, 65950, Note_off_c, 0, 80, 64
3, 66000, Note_on_c, 0, 75, 102
3, 66000, Note_on_c, 0, 63, 82
3, 66010, Note_off_c, 0, 65, 64
3, 66010, Note_off_c, 0, 77, 64
3, 66060, Note_on_c, 0, 73, 105
3, 66060, Note_on_c, 0, 61, 85
3, 66070, Note_off_c, 0, 63, 64
3, 66070, Note_off_c, 0, 75, 64
3, 66120, Note_on_c, 0, 72, 108
3, 66120, Note_on_c, 0, 60, 88
3, 66130, Note_off_c, 0, 61, 64
3, 66130, Note_off_c, 0, 73, 64
3, 66180, Note_on_c, 0, 59, 91
3, 66180, Note_on_c, 0, 71, 111
3, 66190, Note_off_c, 0, 60, 64
3, 66190, Note_off_c, 0, 72, 64
3, 66240, Note_on_c, 0, 72, 115
3, 66240, Note_on_c, 0, 60, 95
3, 66250, Note_off_c, 0, 71, 64
3, 66250, Note_off_c, 0, 59, 64
3, 66270, Note_off_c, 0, 60, 64
3, 66270, Note_off_c, 0, 72, 64
3, 66300, Note_on_c, 0, 55, 120
3, 66320, Note_off_c, 0, 55, 64
3, 66360, Note_on_c, 0, 60, 115
3, 66380, Note_off_c, 0, 60, 64
3, 66420, Note_on_c, 0, 64, 111
3, 66440, Note_off_c, 0, 64, 64
3, 66480, Note_on_c, 0, 67, 118
3, 66500, Note_off_c, 0, 67, 64
3, 66540, Note_on_c, 0, 64, 107
3, 66560, Note_off_c, 0, 64, 64
3, 66600, Note_on_c, 0, 67, 110
3, 66620, Note_off_c, 0, 67, 64
3, 66660, Note_on_c, 0, 64, 98
3, 66680, Note_off_c, 0, 64, 64
3, 66720, Note_on_c, 0, 72, 100
3, 66720, Note_on_c, 0, 60, 90
3, 66750, Note_off_c, 0, 60, 64
3, 66750, Note_off_c, 0, 72, 64
3, 66780, Note_on_c, 0, 67, 110
3, 66800, Note_off_c, 0, 67, 64
3, 66840, Note_on_c, 0, 72, 105
3, 66860, Note_off_c, 0, 72, 64
3, 66900, Note_on_c, 0, 76, 101
3, 66920, Note_off_c, 0, 76, 64
3, 66960, Note_on_c, 0, 79, 108
3, 66980, Note_off_c, 0, 79, 64
3, 67020, Note_on_c, 0, 76, 97
3, 67040, Note_off_c, 0, 76, 64
3, 67080, Note_on_c, 0, 79, 100
3, 67100, Note_off_c, 0, 79, 64
3, 67140, Note_on_c, 0, 76, 88
3, 67160, Note_off_c, 0, 76, 64
3, 67200, Note_on_c, 0, 72, 90
3, 67230, Note_off_c, 0, 72, 64
3, 67260, Note_on_c, 0, 60, 115
3, 67280, Note_off_c, 0, 60, 64
3, 67320, Note_on_c, 0, 64, 110
3, 67340, Note_off_c, 0, 64, 64
3, 67380, Note_on_c, 0, 67, 106
3, 67400, Note_off_c, 0, 67, 64
3, 67440, Note_on_c, 0, 72, 113
3, 67460, Note_off_c, 0, 72, 64
3, 67500, Note_on_c, 0, 67, 102
3, 67520, Note_off_c, 0, 67, 64
3, 67560, Note_on_c, 0, 72, 105
3, 67580, Note_off_c, 0, 72, 64
3, 67620, Note_on_c, 0, 67, 93
3, 67640, Note_off_c, 0, 67, 64
3, 67680, Note_on_c, 0, 79, 95
3, 67710, Note_off_c, 0, 79, 64
3, 67740, Note_on_c, 0, 72, 105
3, 67760, Note_off_c, 0, 72, 64
3, 67800, Note_on_c, 0, 76, 100
3, 67820, Note_off_c, 0, 76, 64
3, 67860, Note_on_c, 0, 79, 96
3, 67880, Note_off_c, 0, 79, 64
3, 67920, Note_on_c, 0, 84, 103
3, 67940, Note_off_c, 0, 84, 64
3, 67980, Note_on_c, 0, 79, 92
3, 68000, Note_off_c, 0, 79, 64
3, 68040, Note_on_c, 0, 84, 95
3, 68060, Note_off_c, 0, 84, 64
3, 68100, Note_on_c, 0, 79, 83
3, 68120, Note_off_c, 0, 79, 64
3, 68160, Note_on_c, 0, 76, 85
3, 68190, Note_off_c, 0, 76, 64
3, 68220, Note_on_c, 0, 64, 105
3, 68240, Note_off_c, 0, 64, 64
3, 68280, Note_on_c, 0, 67, 100
3, 68300, Note_off_c, 0, 67, 64
3, 68340, Note_on_c, 0, 72, 96
3, 68360, Note_off_c, 0, 72, 64
3, 68400, Note_on_c, 0, 76, 103
3, 68420, Note_off_c, 0, 76, 64
3, 68460, Note_on_c, 0, 72, 92
3, 68480, Note_off_c, 0, 72, 64
3, 68520, Note_on_c, 0, 76, 95
3, 68540, Note_off_c, 0, 76, 64
3, 68580, Note_on_c, 0, 72, 83
3, 68600, Note_off_c, 0, 72, 64
3, 68640, Note_on_c, 0, 76, 85
3, 68670, Note_off_c, 0, 76, 64
3, 68700, Note_on_c, 0, 67, 95
3, 68720, Note_off_c, 0, 67, 64
3, 68760, Note_on_c, 0, 72, 90
3, 68780, Note_off_c, 0, 72, 64
3, 68820, Note_on_c, 0, 76, 86
3, 68840, Note_off_c, 0, 76, 64
3, 68880, Note_on_c, 0, 79, 93
3, 68900, Note_off_c, 0, 79, 64
3, 68940, Note_on_c, 0, 76, 82
3, 68960, Note_off_c, 0, 76, 64
3, 69000, Note_on_c, 0, 79, 85
3, 69020, Note_off_c, 0, 79, 64
3, 69060, Note_on_c, 0, 76, 73
3, 69080, Note_off_c, 0, 76, 64
3, 69120, Note_on_c, 0, 84, 75
3, 69120, Note_on_c, 0, 72, 65
3, 69150, Note_off_c, 0, 72, 64
3, 69150, Note_off_c, 0, 84, 64
3, 69180, Note_on_c, 0, 76, 90
3, 69200, Note_off_c, 0, 76, 64
3, 69240, Note_on_c, 0, 79, 85
3, 69260, Note_off_c, 0, 79, 64
3, 69300, Note_on_c, 0, 84, 81
3, 69320, Note_off_c, 0, 84, 64
3, 69360, Note_on_c, 0, 88, 88
3, 69380, Note_off_c, 0, 88, 64
3, 69420, Note_on_c, 0, 84, 77
3, 69440, Note_off_c, 0, 84, 64
3, 69480, Note_on_c, 0, 88, 80
3, 69500, Note_off_c, 0, 88, 64
3, 69540, Note_on_c, 0, 84, 68
3, 69560, Note_off_c, 0, 84, 64
3, 69600, Note_on_c, 0, 88, 70
3, 69630, Note_off_c, 0, 88, 64
3, 69660, Note_on_c, 0, 79, 80
3, 69680, Note_off_c, 0, 79, 64
3, 69720, Note_on_c, 0, 84, 75
3, 69740, Note_off_c, 0, 84, 64
3, 69780, Note_on_c, 0, 88, 71
3, 69800, Note_off_c, 0, 88, 64
3, 69840, Note_on_c, 0, 91, 78
3, 69860, Note_off_c, 0, 91, 64
3, 69900, Note_on_c, 0, 88, 67
3, 69920, Note_off_c, 0, 88, 64
3, 69960, Note_on_c, 0, 91, 70
3, 69980, Note_off_c, 0, 91, 64
3, 70020, Note_on_c, 0, 88, 58
3, 70040, Note_off_c, 0, 88, 64
3, 70080, Note_on_c, 0, 84, 60
3, 70200, Note_off_c, 0, 84, 64
3, 70320, Note_on_c, 0, 67, 58
3, 70350, Note_off_c, 0, 67, 64
3, 70380, Note_on_c, 0, 64, 47
3, 70400, Note_off_c, 0, 64, 64
3, 70440, Note_on_c, 0, 67, 50
3, 70460, Note_off_c, 0, 67, 64
3, 70500, Note_on_c, 0, 64, 38
3, 70520, Note_off_c, 0, 64, 64
3, 70560, Note_on_c, 0, 60, 40
3, 70800, Note_off_c, 0, 60, 64
3, 71040, Note_on_c, 0, 79, 38
3, 71070, Note_off_c, 0, 79, 64
3, 71100, Note_on_c, 0, 76, 27
3, 71120, Note_off_c, 0, 76, 64
3, 71160, Note_on_c, 0, 79, 30
3, 71180, Note_off_c, 0, 79, 64
3, 71220, Note_on_c, 0, 76, 20
3, 71240, Note_off_c, 0, 76, 64
3, 71280, Note_on_c, 0, 79, 33
3, 71300, Note_off_c, 0, 79, 64
3, 71340, Note_on_c, 0, 76, 22
3, 71360, Note_off_c, 0, 76, 64
3, 71400, Note_on_c, 0, 79, 36
3, 71420, Note_off_c, 0, 79, 64
3, 71460, Note_on_c, 0, 76, 24
3, 71480, Note_off_c, 0, 76, 64
3, 71520, Note_on_c, 0, 80, 38
3, 71550, Note_off_c, 0, 80, 64
3, 71580, Note_on_c, 0, 77, 27
3, 71600, Note_off_c, 0, 77, 64
3, 71640, Note_on_c, 0, 80, 40
3, 71660, Note_off_c, 0, 80, 64
3, 71700, Note_on_c, 0, 77, 30
3, 71720, Note_off_c, 0, 77, 64
3, 71760, Note_on_c, 0, 81, 43
3, 71790, Note_off_c, 0, 81, 64
3, 71820, Note_on_c, 0, 78, 32
3, 71840, Note_off_c, 0, 78, 64
3, 71880, Note_on_c, 0, 81, 46
3, 71900, Note_off_c, 0, 81, 64
3, 71940, Note_on_c, 0, 78, 34
3, 71960, Note_off_c, 0, 78, 64
3, 72000, Note_on_c, 0, 82, 48
3, 72030, Note_off_c, 0, 82, 64
3, 72060, Note_on_c, 0, 79, 37
3, 72080, Note_off_c, 0, 79, 64
3, 72120, Note_on_c, 0, 82, 40
3, 72140, Note_off_c, 0, 82, 64
3, 72180, Note_on_c, 0, 79, 30
3, 72200, Note_off_c, 0, 79, 64
3, 72240, Note_on_c, 0, 82, 43
3, 72260, Note_off_c, 0, 82, 64
3, 72300, Note_on_c, 0, 79, 32
3, 72320, Note_off_c, 0, 79, 64
3, 72360, Note_on_c, 0, 82, 46
3, 72380, Note_off_c, 0, 82, 64
3, 72420, Note_on_c, 0, 79, 34
3, 72440, Note_off_c, 0, 79, 64
3, 72480, Note_on_c, 0, 84, 48
3, 72510, Note_off_c, 0, 84, 64
3, 72540, Note_on_c, 0, 81, 37
3, 72560, Note_off_c, 0, 81, 64
3, 72600, Note_on_c, 0, 84, 50
3, 72620, Note_off_c, 0, 84, 64
3, 72660, Note_on_c, 0, 81, 40
3, 72680, Note_off_c, 0, 81, 64
3, 72720, Note_on_c, 0, 85, 53
3, 72750, Note_off_c, 0, 85, 64
3, 72780, Note_on_c, 0, 81, 42
3, 72800, Note_off_c, 0, 81, 64
3, 72840, Note_on_c, 0, 85, 56
3, 72860, Note_off_c, 0, 85, 64
3, 72900, Note_on_c, 0, 81, 44
3, 72920, Note_off_c, 0, 81, 64
3, 72960, Note_on_c, 0, 86, 60
3, 73020, Note_on_c, 0, 85, 55
3, 73030, Note_off_c, 0, 86, 64
3, 73080, Note_on_c, 0, 86, 57
3, 73090, Note_off_c, 0, 85, 64
3, 73140, Note_on_c, 0, 82, 52
3, 73150, Note_off_c, 0, 86, 64
3, 73200, Note_off_c, 0, 82, 64
3, 73200, Note_on_c, 0, 84, 55
3, 73260, Note_on_c, 0, 83, 50
3, 73270, Note_off_c, 0, 84, 64
3, 73320, Note_on_c, 0, 84, 52
3, 73330, Note_off_c, 0, 83, 64
3, 73380, Note_on_c, 0, 81, 47
3, 73390, Note_off_c, 0, 84, 64
3, 73440, Note_off_c, 0, 81, 64
3, 73440, Note_on_c, 0, 82, 50
3, 73500, Note_on_c, 0, 81, 45
3, 73510, Note_off_c, 0, 82, 64
3, 73560, Note_on_c, 0, 82, 47
3, 73570, Note_off_c, 0, 81, 64
3, 73620, Note_on_c, 0, 79, 42
3, 73630, Note_off_c, 0, 82, 64
3, 73680, Note_off_c, 0, 79, 64
3, 73680, Note_on_c, 0, 81, 45
3, 73740, Note_on_c, 0, 80, 40
3, 73750, Note_off_c, 0, 81, 64
3, 73800, Note_on_c, 0, 81, 42
3, 73810, Note_off_c, 0, 80, 64
3, 73860, Note_on_c, 0, 78, 37
3, 73870, Note_off_c, 0, 81, 64
3, 73920, Note_off_c, 0, 78, 64
3, 73920, Note_on_c, 0, 79, 45
3, 73950, Note_on_c, 0, 81, 43
3, 73960, Note_off_c, 0, 79, 64
3, 73980, Note_on_c, 0, 82, 47
3, 73990, Note_off_c, 0, 81, 64
3, 74010, Note_on_c, 0, 81, 50
3, 74020, Note_off_c, 0, 82, 64
3, 74040, Note_on_c, 0, 84, 53
3, 74050, Note_off_c, 0, 81, 64
3, 74070, Note_on_c, 0, 82, 48
3, 74080, Note_off_c, 0, 84, 64
3, 74100, Note_on_c, 0, 86, 55
3, 74110, Note_off_c, 0, 82, 64
3, 74130, Note_on_c, 0, 84, 52
3, 74140, Note_off_c, 0, 86, 64
3, 74160, Note_on_c, 0, 82, 49
3, 74170, Note_off_c, 0, 84, 64
3, 74190, Note_on_c, 0, 84, 45
3, 74200, Note_off_c, 0, 82, 64
3, 74220, Note_on_c, 0, 81, 47
3, 74230, Note_off_c, 0, 84, 64
3, 74250, Note_on_c, 0, 82, 43
3, 74260, Note_off_c, 0, 81, 64
3, 74280, Note_on_c, 0, 79, 45
3, 74290, Note_off_c, 0, 82, 64
3, 74310, Note_on_c, 0, 81, 41
3, 74320, Note_off_c, 0, 79, 64
3, 74340, Note_on_c, 0, 78, 43
3, 74350, Note_off_c, 0, 81, 64
3, 74370, Note_on_c, 0, 81, 38
3, 74380, Note_off_c, 0, 78, 64
3, 74400, Note_off_c, 0, 81, 64
3, 74400, Note_on_c, 0, 79, 35
3, 74430, Note_on_c, 0, 81, 33
3, 74440, Note_off_c, 0, 79, 64
3, 74460, Note_on_c, 0, 82, 37
3, 74470, Note_off_c, 0, 81, 64
3, 74490, Note_on_c, 0, 81, 40
3, 74500, Note_off_c, 0, 82, 64
3, 74520, Note_on_c, 0, 84, 43
3, 74530, Note_off_c, 0, 81, 64
3, 74550, Note_on_c, 0, 82, 38
3, 74560, Note_off_c, 0, 84, 64
3, 74580, Note_on_c, 0, 86, 45
3, 74590, Note_off_c, 0, 82, 64
3, 74610, Note_on_c, 0, 84, 42
3, 74620, Note_off_c, 0, 86, 64
3, 74640, Note_on_c, 0, 82, 39
3, 74650, Note_off_c, 0, 84, 64
3, 74670, Note_on_c, 0, 84, 35
3, 74680, Note_off_c, 0, 82, 64
3, 74700, Note_on_c, 0, 81, 37
3, 74710, Note_off_c, 0, 84, 64
3, 74730, Note_on_c, 0, 82, 33
3, 74740, Note_off_c, 0, 81, 64
3, 74760, Note_on_c, 0, 79, 35
3, 74770, Note_off_c, 0, 82, 64
3, 74790, Note_on_c, 0, 81, 37
3, 74800, Note_off_c, 0, 79, 64
3, 74820, Note_on_c, 0, 78, 39
3, 74830, Note_off_c, 0, 81, 64
3, 74850, Note_on_c, 0, 81, 36
3, 74860, Note_off_c, 0, 78, 64
3, 74880, Note_off_c, 0, 81, 64
3, 74880, Note_on_c, 0, 79, 40
3, 74910, Note_on_c, 0, 81, 38
3, 74920, Note_off_c, 0, 79, 64
3, 74940, Note_on_c, 0, 82, 42
3, 74950, Note_off_c, 0, 81, 64
3, 74970, Note_on_c, 0, 81, 40
3, 74980, Note_off_c, 0, 82, 64
3, 75000, Note_on_c, 0, 84, 44
3, 75010, Note_off_c, 0, 81, 64
3, 75030, Note_on_c, 0, 82, 42
3, 75040, Note_off_c, 0, 84, 64
3, 75060, Note_on_c, 0, 81, 46
3, 75070, Note_off_c, 0, 82, 64
3, 75090, Note_on_c, 0, 82, 44
3, 75100, Note_off_c, 0, 81, 64
3, 75120, Note_on_c, 0, 79, 48
3, 75130, Note_off_c, 0, 82, 64
3, 75150, Note_on_c, 0, 81, 46
3, 75160, Note_off_c, 0, 79, 64
3, 75180, Note_on_c, 0, 77, 50
3, 75190, Note_off_c, 0, 81, 64
3, 75210, Note_on_c, 0, 79, 48
3, 75220, Note_off_c, 0, 77, 64
3, 75240, Note_on_c, 0, 76, 52
3, 75250, Note_off_c, 0, 79, 64
3, 75270, Note_on_c, 0, 77, 50
3, 75280, Note_off_c, 0, 76, 64
3, 75300, Note_on_c, 0, 74, 54
3, 75310, Note_off_c, 0, 77, 64
3, 75330, Note_on_c, 0, 76, 52
3, 75340, Note_off_c, 0, 74, 64
3, 75360, Note_off_c, 0, 76, 64
3, 75360, Note_on_c, 0, 72, 55
3, 75390, Note_on_c, 0, 76, 51
3, 75400, Note_off_c, 0, 72, 64
3, 75420, Note_on_c, 0, 74, 53
3, 75430, Note_off_c, 0, 76, 64
3, 75450, Note_on_c, 0, 77, 49
3, 75460, Note_off_c, 0, 74, 64
3, 75480, Note_on_c, 0, 76, 51
3, 75490, Note_off_c, 0, 77, 64
3, 75510, Note_on_c, 0, 79, 47
3, 75520, Note_off_c, 0, 76, 64
3, 75540, Note_on_c, 0, 77, 49
3, 75550, Note_off_c, 0, 79, 64
3, 75570, Note_on_c, 0, 81, 45
3, 75580, Note_off_c, 0, 77, 64
3, 75600, Note_on_c, 0, 79, 47
3, 75610, Note_off_c, 0, 81, 64
3, 75630, Note_on_c, 0, 82, 43
3, 75640, Note_off_c, 0, 79, 64
3, 75660, Note_on_c, 0, 81, 45
3, 75670, Note_off_c, 0, 82, 64
3, 75690, Note_on_c, 0, 84, 41
3, 75700, Note_off_c, 0, 81, 64
3, 75720, Note_on_c, 0, 82, 43
3, 75730, Note_off_c, 0, 84, 64
3, 75750, Note_on_c, 0, 81, 45
3, 75760, Note_off_c, 0, 82, 64
3, 75780, Note_on_c, 0, 82, 41
3, 75790, Note_off_c, 0, 81, 64
3, 75810, Note_on_c, 0, 79, 35
3, 75820, Note_off_c, 0, 82, 64
3, 75840, Note_off_c, 0, 79, 64
3, 75840, Note_on_c, 0, 69, 35
3, 75850, Note_on_c, 0, 72, 38
3, 75860, Note_on_c, 0, 77, 50
3, 76200, Note_off_c, 0, 72, 64
3, 76200, Note_off_c, 0, 69, 64
3, 76200, Note_on_c, 0, 79, 52
3, 76210, Note_off_c, 0, 77, 64
3, 76235, Note_on_c, 0, 77, 45
3, 76245, Note_off_c, 0, 79, 64
3, 76260, Note_on_c, 0, 76, 48
3, 76270, Note_off_c, 0, 77, 64
3, 76290, Note_on_c, 0, 77, 43
3, 76300, Note_off_c, 0, 76, 64
3, 76310, Note_on_c, 0, 70, 30
3, 76320, Note_on_c, 0, 74, 33
3, 76330, Note_off_c, 0, 77, 64
3, 76330, Note_on_c, 0, 81, 45
3, 76350, Note_off_c, 0, 70, 64
3, 76360, Note_off_c, 0, 74, 64
3, 76500, Note_on_c, 0, 79, 48
3, 76510, Note_off_c, 0, 81, 64
3, 76560, Note_on_c, 0, 82, 42
3, 76570, Note_off_c, 0, 79, 64
3, 76740, Note_on_c, 0, 79, 45
3, 76750, Note_off_c, 0, 82, 64
3, 76780, Note_on_c, 0, 69, 35
3, 76790, Note_on_c, 0, 72, 38
3, 76800, Note_on_c, 0, 77, 48
3, 76810, Note_off_c, 0, 79, 64
3, 77040, Note_on_c, 0, 67, 30
3, 77050, Note_off_c, 0, 69, 64
3, 77100, Note_on_c, 0, 76, 52
3, 77110, Note_off_c, 0, 77, 64
3, 77160, Note_on_c, 0, 79, 45
3, 77170, Note_off_c, 0, 76, 64
3, 77220, Note_on_c, 0, 76, 47
3, 77230, Note_off_c, 0, 79, 64
3, 77260, Note_on_c, 0, 64, 28
3, 77270, Note_off_c, 0, 67, 64
3, 77270, Note_on_c, 0, 67, 32
3, 77280, Note_off_c, 0, 72, 64
3, 77280, Note_on_c, 0, 72, 42
3, 77290, Note_off_c, 0, 76, 64
3, 77330, Note_off_c, 0, 64, 64
3, 77340, Note_off_c, 0, 67, 64
3, 77520, Note_off_c, 0, 72, 64
3, 77640, Note_on_c, 0, 72, 55
3, 77745, Note_on_c, 0, 79, 50
3, 77760, Note_off_c, 0, 72, 64
3, 77760, Note_on_c, 0, 77, 57
3, 77760, Note_on_c, 0, 65, 42
3, 77765, Note_off_c, 0, 79, 64
3, 77820, Note_on_c, 0, 76, 60
3, 77820, Note_on_c, 0, 64, 45
3, 77830, Note_off_c, 0, 65, 64
3, 77830, Note_off_c, 0, 77, 64
3, 77880, Note_on_c, 0, 77, 62
3, 77880, Note_on_c, 0, 65, 47
3, 77890, Note_off_c, 0, 64, 64
3, 77890, Note_off_c, 0, 76, 64
3, 77940, Note_on_c, 0, 78, 57
3, 77940, Note_on_c, 0, 66, 42
3, 77950, Note_off_c, 0, 65, 64
3, 77950, Note_off_c, 0, 77, 64
3, 77985, Note_on_c, 0, 81, 50
3, 78000, Note_on_c, 0, 79, 65
3, 78000, Note_on_c, 0, 67, 50
3, 78005, Note_off_c, 0, 81, 64
3, 78010, Note_off_c, 0, 66, 64
3, 78010, Note_off_c, 0, 78, 64
3, 78060, Note_on_c, 0, 78, 68
3, 78060, Note_on_c, 0, 66, 53
3, 78070, Note_off_c, 0, 67, 64
3, 78070, Note_off_c, 0, 79, 64
3, 78120, Note_on_c, 0, 79, 70
3, 78120, Note_on_c, 0, 67, 55
3, 78130, Note_off_c, 0, 66, 64
3, 78130, Note_off_c, 0, 78, 64
3, 78180, Note_on_c, 0, 80, 65
3, 78180, Note_on_c, 0, 68, 50
3, 78190, Note_off_c, 0, 67, 64
3, 78190, Note_off_c, 0, 79, 64
3, 78225, Note_on_c, 0, 82, 59
3, 78240, Note_on_c, 0, 81, 74
3, 78240, Note_on_c, 0, 69, 59
3, 78245, Note_off_c, 0, 82, 64
3, 78250, Note_off_c, 0, 68, 64
3, 78250, Note_off_c, 0, 80, 64
3, 78300, Note_on_c, 0, 80, 77
3, 78300, Note_on_c, 0, 68, 62
3, 78310, Note_off_c, 0, 69, 64
3, 78310, Note_off_c, 0, 81, 64
3, 78360, Note_on_c, 0, 81, 72
3, 78360, Note_on_c, 0, 69, 57
3, 78370, Note_off_c, 0, 68, 64
3, 78370, Note_off_c, 0, 80, 64
3, 78420, Note_on_c, 0, 84, 70
3, 78420, Note_on_c, 0, 72, 55
3, 78430, Note_off_c, 0, 69, 64
3, 78430, Note_off_c, 0, 81, 64
3, 78480, Note_on_c, 0, 82, 77
3, 78480, Note_on_c, 0, 70, 62
3, 78490, Note_off_c, 0, 72, 64
3, 78490, Note_off_c, 0, 84, 64
3, 78540, Note_on_c, 0, 84, 80
3, 78540, Note_on_c, 0, 72, 65
3, 78550, Note_off_c, 0, 70, 64
3, 78550, Note_off_c, 0, 82, 64
3, 78600, Note_on_c, 0, 86, 75
3, 78600, Note_on_c, 0, 74, 60
3, 78610, Note_off_c, 0, 72, 64
3, 78610, Note_off_c, 0, 84, 64
3, 78660, Note_on_c, 0, 70, 55
3, 78660, Note_on_c, 0, 82, 70
3, 78670, Note_off_c, 0, 74, 64
3, 78670, Note_off_c, 0, 86, 64
3, 78690, Note_on_c, 0, 69, 58
3, 78710, Note_on_c, 0, 72, 50
3, 78720, Note_on_c, 0, 77, 55
3, 78730, Note_off_c, 0, 82, 64
3, 78730, Note_off_c, 0, 70, 64
3, 78730, Note_on_c, 0, 81, 68
3, 78990, Note_on_c, 0, 84, 50
3, 79000, Note_off_c, 0, 81, 64
3, 79000, Note_off_c, 0, 77, 64
3, 79000, Note_off_c, 0, 69, 64
3, 79000, Note_off_c, 0, 72, 64
3, 79020, Note_on_c, 0, 89, 52
3, 79030, Note_off_c, 0, 84, 64
3, 79035, Note_off_c, 0, 89, 64
3, 79050, Note_on_c, 0, 88, 54
3, 79065, Note_off_c, 0, 88, 64
3, 79080, Note_on_c, 0, 86, 56
3, 79095, Note_off_c, 0, 86, 64
3, 79110, Note_on_c, 0, 84, 58
3, 79125, Note_off_c, 0, 84, 64
3, 79140, Note_on_c, 0, 82, 60
3, 79155, Note_off_c, 0, 82, 64
3, 79170, Note_on_c, 0, 81, 62
3, 79185, Note_off_c, 0, 81, 64
3, 79200, Note_on_c, 0, 79, 58
3, 79200, Note_on_c, 0, 76, 32
3, 79200, Note_on_c, 0, 72, 50
3, 79440, Note_off_c, 0, 72, 64
3, 79440, Note_off_c, 0, 76, 64
3, 79440, Note_off_c, 0, 79, 64
3, 79560, Note_on_c, 0, 72, 80
3, 79660, Note_off_c, 0, 72, 64
3, 79660, Note_on_c, 0, 72, 75
3, 79670, Note_on_c, 0, 76, 82
3, 79680, Note_on_c, 0, 82, 100
3, 80040, Note_on_c, 0, 79, 85
3, 80050, Note_off_c, 0, 82, 64
3, 80050, Note_off_c, 0, 76, 64
3, 80065, Note_on_c, 0, 81, 70
3, 80075, Note_off_c, 0, 79, 64
3, 80080, Note_on_c, 0, 79, 60
3, 80085, Note_off_c, 0, 81, 64
3, 80095, Note_on_c, 0, 81, 63
3, 80100, Note_off_c, 0, 79, 64
3, 80110, Note_on_c, 0, 79, 66
3, 80115, Note_off_c, 0, 81, 64
3, 80125, Note_on_c, 0, 78, 68
3, 80130, Note_off_c, 0, 79, 64
3, 80140, Note_on_c, 0, 79, 70
3, 80145, Note_off_c, 0, 78, 64
3, 80160, Note_off_c, 0, 79, 64
3, 80160, Note_on_c, 0, 76, 85
3, 80210, Note_off_c, 0, 76, 64
3, 80210, Note_off_c, 0, 72, 64
3, 80280, Note_on_c, 0, 77, 82
3, 80280, Note_on_c, 0, 72, 55
3, 80280, Note_on_c, 0, 65, 68
3, 80400, Note_on_c, 0, 76, 85
3, 80400, Note_on_c, 0, 64, 70
3, 80410, Note_off_c, 0, 65, 64
3, 80410, Note_off_c, 0, 77, 64
3, 80520, Note_off_c, 0, 72, 64
3, 80520, Note_on_c, 0, 65, 65
3, 80520, Note_on_c, 0, 77, 80
3, 80520, Note_on_c, 0, 72, 52
3, 80530, Note_off_c, 0, 64, 64
3, 80530, Note_off_c, 0, 76, 64
3, 80620, Note_off_c, 0, 72, 64
3, 80620, Note_on_c, 0, 72, 65
3, 80630, Note_on_c, 0, 76, 72
3, 80640, Note_on_c, 0, 82, 95
3, 80650, Note_off_c, 0, 77, 64
3, 80650, Note_off_c, 0, 65, 64
3, 81000, Note_on_c, 0, 79, 80
3, 81010, Note_off_c, 0, 82, 64
3, 81010, Note_off_c, 0, 76, 64
3, 81025, Note_on_c, 0, 81, 68
3, 81035, Note_off_c, 0, 79, 64
3, 81040, Note_on_c, 0, 79, 60
3, 81045, Note_off_c, 0, 81, 64
3, 81055, Note_on_c, 0, 81, 62
3, 81060, Note_off_c, 0, 79, 64
3, 81070, Note_on_c, 0, 79, 64
3, 81075, Note_off_c, 0, 81, 64
3, 81085, Note_on_c, 0, 78, 66
3, 81090, Note_off_c, 0, 79, 64
3, 81100, Note_on_c, 0, 79, 68
3, 81105, Note_off_c, 0, 78, 64
3, 81120, Note_on_c, 0, 76, 80
3, 81125, Note_off_c, 0, 79, 64
3, 81180, Note_off_c, 0, 76, 64
3, 81180, Note_off_c, 0, 72, 64
3, 81240, Note_on_c, 0, 84, 67
3, 81240, Note_on_c, 0, 77, 45
3, 81240, Note_on_c, 0, 72, 53
3, 81360, Note_on_c, 0, 83, 75
3, 81360, Note_on_c, 0, 71, 60
3, 81370, Note_off_c, 0, 72, 64
3, 81370, Note_off_c, 0, 84, 64
3, 81480, Note_off_c, 0, 77, 64
3, 81480, Note_on_c, 0, 72, 56
3, 81480, Note_on_c, 0, 77, 43
3, 81480, Note_on_c, 0, 84, 71
3, 81490, Note_off_c, 0, 71, 64
3, 81490, Note_off_c, 0, 83, 64
3, 81600, Note_off_c, 0, 77, 64
3, 81600, Note_on_c, 0, 86, 65
3, 81600, Note_on_c, 0, 77, 40
3, 81600, Note_on_c, 0, 74, 50
3, 81610, Note_off_c, 0, 84, 64
3, 81610, Note_off_c, 0, 72, 64
3, 81890, Note_off_c, 0, 74, 64
3, 81890, Note_off_c, 0, 77, 64
3, 81890, Note_off_c, 0, 86, 64
3, 81900, Note_on_c, 0, 88, 70
3, 81920, Note_on_c, 0, 86, 63
3, 81930, Note_off_c, 0, 88, 64
3, 81935, Note_on_c, 0, 85, 65
3, 81945, Note_off_c, 0, 86, 64
3, 81945, Note_on_c, 0, 86, 60
3, 81955, Note_off_c, 0, 85, 64
3, 81960, Note_on_c, 0, 88, 63
3, 81970, Note_off_c, 0, 86, 64
3, 81985, Note_off_c, 0, 88, 64
3, 82020, Note_on_c, 0, 89, 60
3, 82050, Note_off_c, 0, 89, 64
3, 82060, Note_on_c, 0, 69, 50
3, 82070, Note_on_c, 0, 72, 55
3, 82080, Note_off_c, 0, 69, 64
3, 82080, Note_on_c, 0, 77, 65
3, 82090, Note_off_c, 0, 72, 64
3, 82420, Note_on_c, 0, 70, 50
3, 82430, Note_on_c, 0, 76, 55
3, 82440, Note_on_c, 0, 81, 68
3, 82450, Note_off_c, 0, 77, 64
3, 82500, Note_on_c, 0, 79, 62
3, 82510, Note_off_c, 0, 81, 64
3, 82540, Note_off_c, 0, 70, 64
3, 82550, Note_off_c, 0, 76, 64
3, 82560, Note_off_c, 0, 79, 64
3, 82560, Note_on_c, 0, 77, 60
3, 82560, Note_on_c, 0, 72, 40
3, 82560, Note_on_c, 0, 69, 62
3, 82760, Note_off_c, 0, 69, 64
3, 82760, Note_off_c, 0, 72, 64
3, 82760, Note_off_c, 0, 77, 64
3, 82800, Note_on_c, 0, 69, 100
3, 83010, Note_off_c, 0, 69, 64
3, 83010, Note_on_c, 0, 69, 95
3, 83040, Note_on_c, 0, 62, 105
3, 83050, Note_off_c, 0, 69, 64
3, 83240, Note_off_c, 0, 62, 64
3, 83280, Note_on_c, 0, 86, 100
3, 83280, Note_on_c, 0, 74, 80
3, 83490, Note_off_c, 0, 74, 64
3, 83490, Note_off_c, 0, 86, 64
3, 83490, Note_on_c, 0, 74, 78
3, 83490, Note_on_c, 0, 86, 95
3, 83520, Note_on_c, 0, 79, 105
3, 83520, Note_on_c, 0, 67, 75
3, 83530, Note_off_c, 0, 86, 64
3, 83530, Note_off_c, 0, 74, 64
3, 83720, Note_off_c, 0, 67, 64
3, 83720, Note_off_c, 0, 79, 64
3, 83760, Note_on_c, 0, 82, 100
3, 83760, Note_on_c, 0, 70, 80
3, 83970, Note_off_c, 0, 70, 64
3, 83970, Note_off_c, 0, 82, 64
3, 83970, Note_on_c, 0, 82, 95
3, 83970, Note_on_c, 0, 70, 75
3, 84000, Note_off_c, 0, 82, 64
3, 84000, Note_on_c, 0, 88, 110
3, 84000, Note_on_c, 0, 82, 65
3, 84000, Note_on_c, 0, 79, 78
3, 84000, Note_on_c, 0, 76, 85
3, 84010, Note_off_c, 0, 70, 64
3, 84200, Note_off_c, 0, 76, 64
3, 84200, Note_off_c, 0, 79, 64
3, 84200, Note_off_c, 0, 82, 64
3, 84200, Note_off_c, 0, 88, 64
3, 84240, Note_on_c, 0, 89, 115
3, 84240, Note_on_c, 0, 81, 78
3, 84240, Note_on_c, 0, 77, 90
3, 84420, Note_off_c, 0, 77, 64
3, 84420, Note_off_c, 0, 81, 64
3, 84420, Note_off_c, 0, 89, 64
3, 84480, Note_on_c, 0, 79, 80
3, 84480, Note_on_c, 0, 77, 65
3, 84480, Note_on_c, 0, 74, 45
3, 84480, Note_on_c, 0, 67, 70
3, 84780, Note_on_c, 0, 81, 82
3, 84780, Note_on_c, 0, 69, 68
3, 84790, Note_off_c, 0, 67, 64
3, 84790, Note_off_c, 0, 74, 64
3, 84790, Note_off_c, 0, 77, 64
3, 84790, Note_off_c, 0, 79, 64
3, 84840, Note_on_c, 0, 82, 76
3, 84840, Note_on_c, 0, 70, 66
3, 84850, Note_off_c, 0, 69, 64
3, 84850, Note_off_c, 0, 81, 64
3, 84900, Note_on_c, 0, 86, 73
3, 84900, Note_on_c, 0, 74, 64
3, 84910, Note_off_c, 0, 70, 64
3, 84910, Note_off_c, 0, 82, 64
3, 84950, Note_off_c, 0, 74, 64
3, 84950, Note_off_c, 0, 86, 64
3, 84960, Note_on_c, 0, 86, 68
3, 84960, Note_on_c, 0, 74, 60
3, 85020, Note_on_c, 0, 84, 72
3, 85020, Note_on_c, 0, 72, 62
3, 85030, Note_off_c, 0, 74, 64
3, 85030, Note_off_c, 0, 86, 64
3, 85080, Note_on_c, 0, 82, 75
3, 85080, Note_on_c, 0, 70, 64
3, 85090, Note_off_c, 0, 72, 64
3, 85090, Note_off_c, 0, 84, 64
3, 85140, Note_on_c, 0, 81, 77
3, 85140, Note_on_c, 0, 69, 66
3, 85150, Note_off_c, 0, 70, 64
3, 85150, Note_off_c, 0, 82, 64
3, 85190, Note_off_c, 0, 69, 64
3, 85190, Note_off_c, 0, 81, 64
3, 85200, Note_on_c, 0, 81, 74
3, 85200, Note_on_c, 0, 69, 63
3, 85260, Note_on_c, 0, 79, 76
3, 85260, Note_on_c, 0, 67, 65
3, 85270, Note_off_c, 0, 69, 64
3, 85270, Note_off_c, 0, 81, 64
3, 85320, Note_on_c, 0, 82, 72
3, 85320, Note_on_c, 0, 70, 58
3, 85330, Note_off_c, 0, 67, 64
3, 85330, Note_off_c, 0, 79, 64
3, 85380, Note_on_c, 0, 64, 60
3, 85380, Note_on_c, 0, 76, 75
3, 85390, Note_off_c, 0, 70, 64
3, 85390, Note_off_c, 0, 82, 64
3, 85440, Note_on_c, 0, 77, 70
3, 85440, Note_on_c, 0, 65, 55
3, 85450, Note_off_c, 0, 76, 64
3, 85450, Note_off_c, 0, 64, 64
3, 85490, Note_off_c, 0, 65, 64
3, 85490, Note_off_c, 0, 77, 64
3, 85500, Note_on_c, 0, 69, 40
3, 85520, Note_off_c, 0, 69, 64
3, 85560, Note_on_c, 0, 68, 48
3, 85580, Note_off_c, 0, 68, 64
3, 85620, Note_on_c, 0, 69, 45
3, 85640, Note_off_c, 0, 69, 64
3, 85680, Note_on_c, 0, 70, 47
3, 85700, Note_off_c, 0, 70, 64
3, 85740, Note_on_c, 0, 71, 44
3, 85760, Note_off_c, 0, 71, 64
3, 85800, Note_on_c, 0, 72, 46
3, 85820, Note_off_c, 0, 72, 64
3, 85860, Note_on_c, 0, 73, 48
3, 85880, Note_off_c, 0, 73, 64
3, 85920, Note_on_c, 0, 74, 50
3, 85940, Note_off_c, 0, 74, 64
3, 85980, Note_on_c, 0, 75, 46
3, 86000, Note_off_c, 0, 75, 64
3, 86040, Note_on_c, 0, 76, 48
3, 86060, Note_off_c, 0, 76, 64
3, 86100, Note_on_c, 0, 77, 44
3, 86120, Note_off_c, 0, 77, 64
3, 86160, Note_on_c, 0, 78, 46
3, 86180, Note_off_c, 0, 78, 64
3, 86220, Note_on_c, 0, 79, 43
3, 86240, Note_off_c, 0, 79, 64
3, 86280, Note_on_c, 0, 80, 40
3, 86300, Note_off_c, 0, 80, 64
3, 86340, Note_on_c, 0, 81, 42
3, 86360, Note_off_c, 0, 81, 64
3, 86400, Note_on_c, 0, 82, 45
3, 86430, Note_off_c, 0, 82, 64
3, 86460, Note_on_c, 0, 84, 43
3, 86480, Note_off_c, 0, 84, 64
3, 86520, Note_on_c, 0, 85, 41
3, 86540, Note_off_c, 0, 85, 64
3, 86580, Note_on_c, 0, 86, 46
3, 86600, Note_off_c, 0, 86, 64
3, 86640, Note_on_c, 0, 74, 50
3, 86660, Note_off_c, 0, 74, 64
3, 86700, Note_on_c, 0, 76, 46
3, 86720, Note_off_c, 0, 76, 64
3, 86760, Note_on_c, 0, 77, 48
3, 86780, Note_off_c, 0, 77, 64
3, 86820, Note_on_c, 0, 78, 44
3, 86840, Note_off_c, 0, 78, 64
3, 86880, Note_on_c, 0, 79, 46
3, 86900, Note_off_c, 0, 79, 64
3, 86940, Note_on_c, 0, 81, 42
3, 86960, Note_off_c, 0, 81, 64
3, 87000, Note_on_c, 0, 82, 44
3, 87020, Note_off_c, 0, 82, 64
3, 87060, Note_on_c, 0, 81, 48
3, 87080, Note_off_c, 0, 81, 64
3, 87120, Note_on_c, 0, 82, 46
3, 87140, Note_off_c, 0, 82, 64
3, 87180, Note_on_c, 0, 81, 50
3, 87200, Note_off_c, 0, 81, 64
3, 87240, Note_on_c, 0, 82, 52
3, 87260, Note_off_c, 0, 82, 64
3, 87300, Note_on_c, 0, 81, 47
3, 87320, Note_off_c, 0, 81, 64
3, 87360, Note_on_c, 0, 82, 50
3, 87390, Note_on_c, 0, 81, 47
3, 87400, Note_off_c, 0, 82, 64
3, 87420, Note_on_c, 0, 86, 43
3, 87430, Note_off_c, 0, 81, 64
3, 87450, Note_on_c, 0, 84, 45
3, 87460, Note_off_c, 0, 86, 64
3, 87480, Note_on_c, 0, 82, 48
3, 87490, Note_off_c, 0, 84, 64
3, 87510, Note_on_c, 0, 81, 45
3, 87520, Note_off_c, 0, 82, 64
3, 87540, Note_on_c, 0, 86, 41
3, 87550, Note_off_c, 0, 81, 64
3, 87570, Note_on_c, 0, 84, 43
3, 87580, Note_off_c, 0, 86, 64
3, 87600, Note_on_c, 0, 82, 46
3, 87610, Note_off_c, 0, 84, 64
3, 87630, Note_on_c, 0, 81, 43
3, 87640, Note_off_c, 0, 82, 64
3, 87660, Note_on_c, 0, 86, 39
3, 87670, Note_off_c, 0, 81, 64
3, 87690, Note_on_c, 0, 84, 41
3, 87700, Note_off_c, 0, 86, 64
3, 87720, Note_on_c, 0, 82, 44
3, 87730, Note_off_c, 0, 84, 64
3, 87750, Note_on_c, 0, 81, 41
3, 87760, Note_off_c, 0, 82, 64
3, 87780, Note_on_c, 0, 86, 37
3, 87790, Note_off_c, 0, 81, 64
3, 87810, Note_on_c, 0, 84, 39
3, 87820, Note_off_c, 0, 86, 64
3, 87840, Note_on_c, 0, 82, 42
3, 87850, Note_off_c, 0, 84, 64
3, 87870, Note_on_c, 0, 81, 39
3, 87880, Note_off_c, 0, 82, 64
3, 87900, Note_on_c, 0, 86, 35
3, 87910, Note_off_c, 0, 81, 64
3, 87930, Note_on_c, 0, 84, 37
3, 87940, Note_off_c, 0, 86, 64
3, 87960, Note_on_c, 0, 82, 40
3, 87970, Note_off_c, 0, 84, 64
3, 87990, Note_on_c, 0, 81, 37
3, 88000, Note_off_c, 0, 82, 64
3, 88020, Note_on_c, 0, 86, 33
3, 88030, Note_off_c, 0, 81, 64
3, 88050, Note_on_c, 0, 84, 35
3, 88060, Note_off_c, 0, 86, 64
3, 88080, Note_on_c, 0, 82, 37
3, 88090, Note_off_c, 0, 84, 64
3, 88110, Note_on_c, 0, 81, 39
3, 88120, Note_off_c, 0, 82, 64
3, 88140, Note_on_c, 0, 79, 41
3, 88150, Note_off_c, 0, 81, 64
3, 88170, Note_on_c, 0, 77, 43
3, 88180, Note_off_c, 0, 79, 64
3, 88200, Note_on_c, 0, 76, 45
3, 88210, Note_off_c, 0, 77, 64
3, 88230, Note_on_c, 0, 74, 47
3, 88240, Note_off_c, 0, 76, 64
3, 88260, Note_on_c, 0, 72, 49
3, 88270, Note_off_c, 0, 74, 64
3, 88290, Note_on_c, 0, 70, 46
3, 88300, Note_off_c, 0, 72, 64
3, 88320, Note_on_c, 0, 69, 50
3, 88330, Note_off_c, 0, 70, 64
3, 88360, Note_off_c, 0, 69, 64
3, 88380, Note_on_c, 0, 70, 46
3, 88400, Note_off_c, 0, 70, 64
3, 88440, Note_on_c, 0, 72, 48
3, 88460, Note_off_c, 0, 72, 64
3, 88500, Note_on_c, 0, 74, 44
3, 88520, Note_off_c, 0, 74, 64
3, 88560, Note_on_c, 0, 76, 46
3, 88580, Note_off_c, 0, 76, 64
3, 88620, Note_on_c, 0, 77, 42
3, 88640, Note_off_c, 0, 77, 64
3, 88680, Note_on_c, 0, 79, 44
3, 88700, Note_off_c, 0, 79, 64
3, 88740, Note_on_c, 0, 81, 40
3, 88760, Note_off_c, 0, 81, 64
3, 88800, Note_on_c, 0, 82, 42
3, 88820, Note_off_c, 0, 82, 64
3, 88860, Note_on_c, 0, 83, 38
3, 88880, Note_off_c, 0, 83, 64
3, 88920, Note_on_c, 0, 84, 40
3, 88940, Note_off_c, 0, 84, 64
3, 88980, Note_on_c, 0, 85, 42
3, 89000, Note_off_c, 0, 85, 64
3, 89040, Note_on_c, 0, 86, 44
3, 89060, Note_off_c, 0, 86, 64
3, 89100, Note_on_c, 0, 88, 38
3, 89120, Note_off_c, 0, 88, 64
3, 89160, Note_on_c, 0, 89, 40
3, 89180, Note_off_c, 0, 89, 64
3, 89220, Note_on_c, 0, 81, 35
3, 89240, Note_off_c, 0, 81, 64
3, 89340, Note_on_c, 0, 78, 45
3, 89400, Note_on_c, 0, 81, 37
3, 89410, Note_off_c, 0, 78, 64
3, 89460, Note_on_c, 0, 79, 40
3, 89470, Note_off_c, 0, 81, 64
3, 89520, Note_off_c, 0, 79, 64
3, 89580, Note_on_c, 0, 81, 50
3, 89640, Note_on_c, 0, 84, 42
3, 89650, Note_off_c, 0, 81, 64
3, 89700, Note_on_c, 0, 82, 45
3, 89710, Note_off_c, 0, 84, 64
3, 89760, Note_off_c, 0, 82, 64
3, 89820, Note_on_c, 0, 85, 52
3, 89880, Note_on_c, 0, 88, 44
3, 89890, Note_off_c, 0, 85, 64
3, 89940, Note_on_c, 0, 86, 47
3, 89950, Note_off_c, 0, 88, 64
3, 90000, Note_off_c, 0, 86, 64
3, 90060, Note_on_c, 0, 88, 47
3, 90120, Note_on_c, 0, 89, 39
3, 90130, Note_off_c, 0, 88, 64
3, 90180, Note_on_c, 0, 86, 42
3, 90190, Note_off_c, 0, 89, 64
3, 90240, Note_off_c, 0, 86, 64
3, 90240, Note_on_c, 0, 84, 45
3, 90270, Note_off_c, 0, 84, 64
3, 90285, Note_on_c, 0, 89, 35
3, 90300, Note_off_c, 0, 89, 64
3, 90320, Note_on_c, 0, 88, 37
3, 90335, Note_off_c, 0, 88, 64
3, 90360, Note_on_c, 0, 86, 39
3, 90375, Note_off_c, 0, 86, 64
3, 90400, Note_on_c, 0, 84, 36
3, 90415, Note_off_c, 0, 84, 64
3, 90440, Note_on_c, 0, 83, 38
3, 90455, Note_off_c, 0, 83, 64
3, 90480, Note_on_c, 0, 84, 40
3, 90495, Note_off_c, 0, 84, 64
3, 90520, Note_on_c, 0, 89, 32
3, 90535, Note_off_c, 0, 89, 64
3, 90560, Note_on_c, 0, 88, 34
3, 90575, Note_off_c, 0, 88, 64
3, 90600, Note_on_c, 0, 86, 36
3, 90615, Note_off_c, 0, 86, 64
3, 90640, Note_on_c, 0, 84, 33
3, 90655, Note_off_c, 0, 84, 64
3, 90680, Note_on_c, 0, 83, 35
3, 90695, Note_off_c, 0, 83, 64
3, 90720, Note_on_c, 0, 84, 37
3, 90735, Note_off_c, 0, 84, 64
3, 90760, Note_on_c, 0, 89, 34
3, 90775, Note_off_c, 0, 89, 64
3, 90800, Note_on_c, 0, 88, 36
3, 90815, Note_off_c, 0, 88, 64
3, 90840, Note_on_c, 0, 86, 38
3, 90855, Note_off_c, 0, 86, 64
3, 90880, Note_on_c, 0, 84, 40
3, 90895, Note_off_c, 0, 84, 64
3, 90920, Note_on_c, 0, 83, 42
3, 90935, Note_off_c, 0, 83, 64
3, 90960, Note_on_c, 0, 86, 39
3, 91000, Note_on_c, 0, 84, 41
3, 91010, Note_off_c, 0, 86, 64
3, 91040, Note_on_c, 0, 83, 43
3, 91050, Note_off_c, 0, 84, 64
3, 91080, Note_on_c, 0, 86, 45
3, 91090, Note_off_c, 0, 83, 64
3, 91115, Note_on_c, 0, 84, 42
3, 91125, Note_off_c, 0, 86, 64
3, 91145, Note_on_c, 0, 82, 48
3, 91155, Note_off_c, 0, 84, 64
3, 91170, Note_on_c, 0, 81, 52
3, 91180, Note_off_c, 0, 82, 64
3, 91200, Note_on_c, 0, 79, 55
3, 91210, Note_off_c, 0, 81, 64
3, 91230, Note_on_c, 0, 81, 40
3, 91240, Note_off_c, 0, 79, 64
3, 91250, Note_on_c, 0, 79, 43
3, 91255, Note_off_c, 0, 81, 64
3, 91265, Note_on_c, 0, 81, 41
3, 91270, Note_off_c, 0, 79, 64
3, 91275, Note_on_c, 0, 79, 44
3, 91285, Note_off_c, 0, 81, 64
3, 91290, Note_on_c, 0, 81, 47
3, 91295, Note_off_c, 0, 79, 64
3, 91305, Note_on_c, 0, 79, 43
3, 91310, Note_off_c, 0, 81, 64
3, 91320, Note_on_c, 0, 81, 48
3, 91325, Note_off_c, 0, 79, 64
3, 91330, Note_on_c, 0, 79, 46
3, 91340, Note_off_c, 0, 81, 64
3, 91345, Note_on_c, 0, 81, 50
3, 91350, Note_off_c, 0, 79, 64
3, 91355, Note_on_c, 0, 79, 52
3, 91365, Note_off_c, 0, 81, 64
3, 91365, Note_on_c, 0, 81, 48
3, 91375, Note_off_c, 0, 79, 64
3, 91380, Note_on_c, 0, 79, 50
3, 91385, Note_off_c, 0, 81, 64
3, 91390, Note_on_c, 0, 81, 55
3, 91400, Note_off_c, 0, 79, 64
3, 91405, Note_on_c, 0, 79, 52
3, 91410, Note_off_c, 0, 81, 64
3, 91415, Note_on_c, 0, 81, 49
3, 91425, Note_off_c, 0, 79, 64
3, 91430, Note_on_c, 0, 79, 58
3, 91435, Note_off_c, 0, 81, 64
3, 91445, Note_on_c, 0, 81, 52
3, 91450, Note_off_c, 0, 79, 64
3, 91455, Note_on_c, 0, 79, 55
3, 91465, Note_off_c, 0, 81, 64
3, 91470, Note_on_c, 0, 81, 60
3, 91475, Note_off_c, 0, 79, 64
3, 91480, Note_on_c, 0, 79, 62
3, 91490, Note_off_c, 0, 81, 64
3, 91490, Note_on_c, 0, 81, 58
3, 91500, Note_off_c, 0, 79, 64
3, 91505, Note_on_c, 0, 79, 65
3, 91510, Note_off_c, 0, 81, 64
3, 91520, Note_on_c, 0, 81, 68
3, 91525, Note_off_c, 0, 79, 64
3, 91530, Note_on_c, 0, 79, 64
3, 91540, Note_off_c, 0, 81, 64
3, 91540, Note_on_c, 0, 81, 66
3, 91550, Note_off_c, 0, 79, 64
3, 91555, Note_on_c, 0, 79, 70
3, 91560, Note_off_c, 0, 81, 64
3, 91565, Note_on_c, 0, 81, 72
3, 91575, Note_off_c, 0, 79, 64
3, 91580, Note_on_c, 0, 79, 69
3, 91585, Note_off_c, 0, 81, 64
3, 91590, Note_on_c, 0, 81, 73
3, 91600, Note_off_c, 0, 79, 64
3, 91610, Note_on_c, 0, 78, 76
3, 91615, Note_off_c, 0, 81, 64
3, 91640, Note_on_c, 0, 79, 80
3, 91645, Note_off_c, 0, 78, 64
3, 91680, Note_on_c, 0, 84, 85
3, 91685, Note_off_c, 0, 79, 64
3, 91710, Note_on_c, 0, 86, 70
3, 91720, Note_off_c, 0, 84, 64
3, 91730, Note_on_c, 0, 84, 73
3, 91735, Note_off_c, 0, 86, 64
3, 91745, Note_on_c, 0, 86, 71
3, 91750, Note_off_c, 0, 84, 64
3, 91755, Note_on_c, 0, 84, 74
3, 91765, Note_off_c, 0, 86, 64
3, 91770, Note_on_c, 0, 86, 77
3, 91775, Note_off_c, 0, 84, 64
3, 91785, Note_on_c, 0, 84, 73
3, 91790, Note_off_c, 0, 86, 64
3, 91800, Note_on_c, 0, 86, 70
3, 91805, Note_off_c, 0, 84, 64
3, 91810, Note_on_c, 0, 84, 75
3, 91820, Note_off_c, 0, 86, 64
3, 91825, Note_on_c, 0, 86, 74
3, 91830, Note_off_c, 0, 84, 64
3, 91835, Note_on_c, 0, 84, 77
3, 91845, Note_off_c, 0, 86, 64
3, 91845, Note_on_c, 0, 86, 76
3, 91855, Note_off_c, 0, 84, 64
3, 91860, Note_on_c, 0, 84, 74
3, 91865, Note_off_c, 0, 86, 64
3, 91870, Note_on_c, 0, 86, 70
3, 91880, Note_off_c, 0, 84, 64
3, 91885, Note_on_c, 0, 84, 68
3, 91890, Note_off_c, 0, 86, 64
3, 91895, Note_on_c, 0, 86, 75
3, 91905, Note_off_c, 0, 84, 64
3, 91910, Note_on_c, 0, 84, 72
3, 91915, Note_off_c, 0, 86, 64
3, 91925, Note_on_c, 0, 86, 74
3, 91930, Note_off_c, 0, 84, 64
3, 91935, Note_on_c, 0, 84, 69
3, 91945, Note_off_c, 0, 86, 64
3, 91950, Note_on_c, 0, 86, 72
3, 91955, Note_off_c, 0, 84, 64
3, 91960, Note_on_c, 0, 84, 67
3, 91970, Note_off_c, 0, 86, 64
3, 91970, Note_on_c, 0, 86, 75
3, 91980, Note_off_c, 0, 84, 64
3, 91985, Note_on_c, 0, 84, 72
3, 91990, Note_off_c, 0, 86, 64
3, 92000, Note_on_c, 0, 86, 69
3, 92005, Note_off_c, 0, 84, 64
3, 92010, Note_on_c, 0, 84, 72
3, 92020, Note_off_c, 0, 86, 64
3, 92020, Note_on_c, 0, 86, 78
3, 92030, Note_off_c, 0, 84, 64
3, 92035, Note_on_c, 0, 84, 70
3, 92040, Note_off_c, 0, 86, 64
3, 92045, Note_on_c, 0, 86, 72
3, 92055, Note_off_c, 0, 84, 64
3, 92060, Note_on_c, 0, 84, 75
3, 92065, Note_off_c, 0, 86, 64
3, 92070, Note_on_c, 0, 86, 80
3, 92080, Note_off_c, 0, 84, 64
3, 92090, Note_on_c, 0, 83, 84
3, 92095, Note_off_c, 0, 86, 64
3, 92120, Note_on_c, 0, 84, 88
3, 92125, Note_off_c, 0, 83, 64
3, 92160, Note_on_c, 0, 77, 95
3, 92160, Note_on_c, 0, 69, 75
3, 92160, Note_on_c, 0, 65, 88
3, 92165, Note_off_c, 0, 84, 64
3, 92640, Note_off_c, 0, 65, 64
3, 92640, Note_off_c, 0, 69, 64
3, 92640, Note_off_c, 0, 77, 64
3, 92640, Note_on_c, 0, 81, 87
3, 92640, Note_on_c, 0, 75, 67
3, 92640, Note_on_c, 0, 69, 80
3, 93000, Note_off_c, 0, 75, 64
3, 93000, Note_on_c, 0, 82, 90
3, 93000, Note_on_c, 0, 75, 70
3, 93000, Note_on_c, 0, 70, 83
3, 93010, Note_off_c, 0, 69, 64
3, 93010, Note_off_c, 0, 81, 64
3, 93060, Note_on_c, 0, 72, 70
3, 93060, Note_on_c, 0, 84, 77
3, 93070, Note_off_c, 0, 70, 64
3, 93070, Note_off_c, 0, 75, 64
3, 93070, Note_off_c, 0, 82, 64
3, 93090, Note_on_c, 0, 74, 40
3, 93100, Note_on_c, 0, 77, 43
3, 93110, Note_off_c, 0, 74, 64
3, 93110, Note_on_c, 0, 82, 46
3, 93120, Note_off_c, 0, 77, 64
3, 93120, Note_on_c, 0, 86, 58
3, 93130, Note_off_c, 0, 84, 64
3, 93130, Note_off_c, 0, 82, 64
3, 93130, Note_off_c, 0, 72, 64
3, 93465, Note_off_c, 0, 86, 64
3, 93465, Note_on_c, 0, 86, 35
3, 93480, Note_on_c, 0, 84, 50
3, 93490, Note_off_c, 0, 86, 64
3, 93540, Note_on_c, 0, 82, 45
3, 93550, Note_off_c, 0, 84, 64
3, 93585, Note_on_c, 0, 84, 38
3, 93590, Note_off_c, 0, 82, 64
3, 93600, Note_on_c, 0, 82, 53
3, 93610, Note_off_c, 0, 84, 64
3, 93660, Note_on_c, 0, 81, 48
3, 93670, Note_off_c, 0, 82, 64
3, 93705, Note_on_c, 0, 82, 41
3, 93710, Note_off_c, 0, 81, 64
3, 93720, Note_on_c, 0, 81, 56
3, 93730, Note_off_c, 0, 82, 64
3, 93780, Note_on_c, 0, 79, 51
3, 93790, Note_off_c, 0, 81, 64
3, 93825, Note_on_c, 0, 81, 44
3, 93830, Note_off_c, 0, 79, 64
3, 93840, Note_on_c, 0, 79, 59
3, 93850, Note_off_c, 0, 81, 64
3, 93900, Note_on_c, 0, 77, 48
3, 93910, Note_off_c, 0, 79, 64
3, 93945, Note_on_c, 0, 79, 48
3, 93950, Note_off_c, 0, 77, 64
3, 93960, Note_on_c, 0, 77, 63
3, 93970, Note_off_c, 0, 79, 64
3, 94020, Note_on_c, 0, 76, 58
3, 94030, Note_off_c, 0, 77, 64
3, 94070, Note_off_c, 0, 76, 64
3, 94080, Note_on_c, 0, 77, 85
3, 94080, Note_on_c, 0, 69, 65
3, 94080, Note_on_c, 0, 65, 78
3, 94440, Note_off_c, 0, 65, 64
3, 94440, Note_off_c, 0, 69, 64
3, 94440, Note_off_c, 0, 77, 64
3, 94440, Note_on_c, 0, 77, 90
3, 94440, Note_on_c, 0, 69, 70
3, 94440, Note_on_c, 0, 65, 83
3, 94560, Note_off_c, 0, 65, 64
3, 94560, Note_off_c, 0, 69, 64
3, 94560, Note_off_c, 0, 77, 64
3, 94560, Note_on_c, 0, 81, 83
3, 94560, Note_on_c, 0, 75, 68
3, 94560, Note_on_c, 0, 72, 53
3, 94560, Note_on_c, 0, 69, 76
3, 94680, Note_off_c, 0, 72, 64
3, 94680, Note_on_c, 0, 84, 85
3, 94680, Note_on_c, 0, 72, 91
3, 94690, Note_off_c, 0, 69, 64
3, 94690, Note_off_c, 0, 75, 64
3, 94690, Note_off_c, 0, 81, 64
3, 94800, Note_on_c, 0, 87, 81
3, 94800, Note_on_c, 0, 75, 88
3, 94810, Note_off_c, 0, 72, 64
3, 94810, Note_off_c, 0, 84, 64
3, 94920, Note_on_c, 0, 69, 93
3, 94920, Note_on_c, 0, 81, 83
3, 94930, Note_off_c, 0, 75, 64
3, 94930, Note_off_c, 0, 87, 64
3, 95010, Note_on_c, 0, 74, 30
3, 95020, Note_on_c, 0, 77, 33
3, 95030, Note_off_c, 0, 74, 64
3, 95030, Note_on_c, 0, 82, 36
3, 95040, Note_off_c, 0, 77, 64
3, 95040, Note_on_c, 0, 86, 45
3, 95050, Note_off_c, 0, 82, 64
3, 95050, Note_off_c, 0, 81, 64
3, 95050, Note_off_c, 0, 69, 64
3, 95340, Note_off_c, 0, 86, 64
3, 95340, Note_on_c, 0, 85, 48
3, 95370, Note_on_c, 0, 86, 44
3, 95380, Note_off_c, 0, 85, 64
3, 95400, Note_on_c, 0, 88, 40
3, 95410, Note_off_c, 0, 86, 64
3, 95430, Note_on_c, 0, 86, 42
3, 95440, Note_off_c, 0, 88, 64
3, 95460, Note_on_c, 0, 84, 44
3, 95470, Note_off_c, 0, 86, 64
3, 95490, Note_on_c, 0, 82, 46
3, 95500, Note_off_c, 0, 84, 64
3, 95520, Note_on_c, 0, 84, 43
3, 95530, Note_off_c, 0, 82, 64
3, 95550, Note_on_c, 0, 82, 45
3, 95560, Note_off_c, 0, 84, 64
3, 95580, Note_on_c, 0, 81, 47
3, 95590, Note_off_c, 0, 82, 64
3, 95610, Note_on_c, 0, 79, 49
3, 95620, Note_off_c, 0, 81, 64
3, 95640, Note_on_c, 0, 81, 46
3, 95650, Note_off_c, 0, 79, 64
3, 95670, Note_on_c, 0, 79, 48
3, 95680, Note_off_c, 0, 81, 64
3, 95700, Note_on_c, 0, 77, 50
3, 95710, Note_off_c, 0, 79, 64
3, 95730, Note_on_c, 0, 76, 52
3, 95740, Note_off_c, 0, 77, 64
3, 95760, Note_on_c, 0, 77, 49
3, 95770, Note_off_c, 0, 76, 64
3, 95790, Note_on_c, 0, 76, 51
3, 95800, Note_off_c, 0, 77, 64
3, 95820, Note_on_c, 0, 74, 53
3, 95830, Note_off_c, 0, 76, 64
3, 95850, Note_on_c, 0, 72, 55
3, 95860, Note_off_c, 0, 74, 64
3, 95880, Note_on_c, 0, 71, 57
3, 95890, Note_off_c, 0, 72, 64
3, 95910, Note_on_c, 0, 72, 54
3, 95920, Note_off_c, 0, 71, 64
3, 95940, Note_on_c, 0, 74, 51
3, 95950, Note_off_c, 0, 72, 64
3, 95970, Note_on_c, 0, 76, 48
3, 95980, Note_off_c, 0, 74, 64
3, 96000, Note_on_c, 0, 65, 30
3, 96010, Note_off_c, 0, 76, 64
3, 96010, Note_on_c, 0, 69, 35
3, 96020, Note_on_c, 0, 77, 50
3, 96100, Note_off_c, 0, 77, 64
3, 96100, Note_off_c, 0, 69, 64
3, 96100, Note_off_c, 0, 65, 64
3, 96120, Note_on_c, 0, 79, 55
3, 96170, Note_off_c, 0, 79, 64
3, 96180, Note_on_c, 0, 81, 53
3, 96230, Note_off_c, 0, 81, 64
3, 96240, Note_on_c, 0, 82, 56
3, 96290, Note_off_c, 0, 82, 64
3, 96300, Note_on_c, 0, 84, 54
3, 96350, Note_off_c, 0, 84, 64
3, 96360, Note_on_c, 0, 86, 52
3, 96410, Note_off_c, 0, 86, 64
3, 96420, Note_on_c, 0, 88, 50
3, 96470, Note_off_c, 0, 88, 64
3, 96480, Note_on_c, 0, 89, 53
3, 96530, Note_off_c, 0, 89, 64
3, 96540, Note_on_c, 0, 81, 56
3, 96590, Note_off_c, 0, 81, 64
3, 96600, Note_on_c, 0, 82, 54
3, 96650, Note_off_c, 0, 82, 64
3, 96660, Note_on_c, 0, 84, 52
3, 96710, Note_off_c, 0, 84, 64
3, 96720, Note_on_c, 0, 86, 55
3, 96770, Note_off_c, 0, 86, 64
3, 96780, Note_on_c, 0, 88, 53
3, 96830, Note_off_c, 0, 88, 64
3, 96840, Note_on_c, 0, 89, 51
3, 96890, Note_off_c, 0, 89, 64
3, 96900, Note_on_c, 0, 91, 48
3, 96950, Note_off_c, 0, 91, 64
3, 96960, Note_on_c, 0, 93, 50
3, 97010, Note_off_c, 0, 93, 64
3, 97020, Note_on_c, 0, 84, 53
3, 97070, Note_off_c, 0, 84, 64
3, 97080, Note_on_c, 0, 86, 51
3, 97130, Note_off_c, 0, 86, 64
3, 97140, Note_on_c, 0, 88, 49
3, 97190, Note_off_c, 0, 88, 64
3, 97200, Note_on_c, 0, 89, 47
3, 97250, Note_off_c, 0, 89, 64
3, 97260, Note_on_c, 0, 91, 45
3, 97310, Note_off_c, 0, 91, 64
3, 97320, Note_on_c, 0, 93, 43
3, 97370, Note_off_c, 0, 93, 64
3, 97380, Note_on_c, 0, 94, 47
3, 97430, Note_off_c, 0, 94, 64
3, 97440, Note_on_c, 0, 96, 55
3, 97800, Note_on_c, 0, 93, 48
3, 97810, Note_off_c, 0, 96, 64
3, 97920, Note_on_c, 0, 89, 50
3, 97930, Note_off_c, 0, 93, 64
3, 98160, Note_off_c, 0, 89, 64
3, 98400, Note_on_c, 0, 72, 40
3, 98760, Note_on_c, 0, 69, 33
3, 98770, Note_off_c, 0, 72, 64
3, 98880, Note_on_c, 0, 65, 35
3, 98890, Note_off_c, 0, 69, 64
3, 99000, Note_off_c, 0, 65, 64
3, 99120, Note_on_c, 0, 69, 15
3, 99130, Note_on_c, 0, 72, 20
3, 99140, Note_on_c, 0, 77, 30
3, 99240, Note_off_c, 0, 77, 64
3, 99240, Note_off_c, 0, 72, 64
3, 99240, Note_off_c, 0, 69, 64
3, 99330, Note_on_c, 0, 65, 12
3, 99360, Note_on_c, 0, 69, 18
3, 99380, Note_on_c, 0, 77, 25
3, 99480, Note_off_c, 0, 77, 64
3, 99480, Note_off_c, 0, 69, 64
3, 99480, Note_off_c, 0, 65, 64
3, 99480, End_track
4, 0, Start_track
4, 0, Title_t, "Piano(L.H.)"
4, 0, Program_c, 1, 0
4, 0, Control_c, 1, 7, 127
4, 490, Control_c, 1, 32, 1
4, 520, Control_c, 1, 0, 0
4, 580, Control_c, 1, 10, 68
4, 610, Control_c, 1, 91, 80
4, 670, Control_c, 1, 11, 127
4, 700, Control_c, 1, 99, 1
4, 710, Control_c, 1, 98, 99
4, 720, Control_c, 1, 6, 64
4, 730, Control_c, 1, 98, 100
4, 745, Control_c, 1, 6, 75
4, 760, Control_c, 1, 98, 101
4, 775, Control_c, 1, 6, 90
4, 960, Note_on_c, 1, 53, 30
4, 960, Note_on_c, 1, 41, 45
4, 1200, Note_on_c, 1, 65, 38
4, 1200, Note_on_c, 1, 60, 25
4, 1200, Note_on_c, 1, 57, 30
4, 1210, Note_off_c, 1, 41, 64
4, 1210, Note_off_c, 1, 53, 64
4, 1440, Note_off_c, 1, 57, 64
4, 1440, Note_off_c, 1, 60, 64
4, 1440, Note_off_c, 1, 65, 64
4, 1440, Note_on_c, 1, 46, 48
4, 1680, Note_on_c, 1, 58, 28
4, 1680, Note_on_c, 1, 62, 20
4, 1680, Note_on_c, 1, 67, 35
4, 1690, Note_off_c, 1, 46, 64
4, 1920, Note_off_c, 1, 67, 64
4, 1920, Note_off_c, 1, 62, 64
4, 1920, Note_off_c, 1, 58, 64
4, 1920, Note_on_c, 1, 48, 40
4, 2160, Note_on_c, 1, 64, 35
4, 2160, Note_on_c, 1, 60, 32
4, 2160, Note_on_c, 1, 55, 20
4, 2170, Note_off_c, 1, 48, 64
4, 2400, Note_off_c, 1, 55, 64
4, 2400, Note_off_c, 1, 60, 64
4, 2400, Note_off_c, 1, 64, 64
4, 2400, Note_on_c, 1, 64, 33
4, 2400, Note_on_c, 1, 60, 30
4, 2400, Note_on_c, 1, 55, 18
4, 2640, Note_off_c, 1, 55, 64
4, 2640, Note_off_c, 1, 60, 64
4, 2640, Note_off_c, 1, 64, 64
4, 2640, Note_on_c, 1, 58, 35
4, 2640, Note_on_c, 1, 60, 20
4, 2640, Note_on_c, 1, 64, 30
4, 2880, Note_off_c, 1, 64, 64
4, 2880, Note_off_c, 1, 60, 64
4, 2880, Note_off_c, 1, 58, 64
4, 2880, Note_on_c, 1, 65, 35
4, 2880, Note_on_c, 1, 60, 22
4, 2880, Note_on_c, 1, 57, 38
4, 3120, Note_off_c, 1, 60, 64
4, 3120, Note_off_c, 1, 65, 64
4, 3120, Note_on_c, 1, 60, 25
4, 3120, Note_on_c, 1, 52, 40
4, 3130, Note_off_c, 1, 57, 64
4, 3360, Note_off_c, 1, 60, 64
4, 3360, Note_on_c, 1, 60, 20
4, 3360, Note_on_c, 1, 53, 42
4, 3370, Note_off_c, 1, 52, 64
4, 3540, Note_on_c, 1, 46, 45
4, 3580, Note_on_c, 1, 55, 30
4, 3600, Note_off_c, 1, 60, 64
4, 3600, Note_on_c, 1, 62, 38
4, 3610, Note_off_c, 1, 53, 64
4, 3840, Note_off_c, 1, 62, 64
4, 3840, Note_off_c, 1, 55, 64
4, 3840, Note_off_c, 1, 46, 64
4, 3840, Note_on_c, 1, 48, 40
4, 4080, Note_on_c, 1, 69, 35
4, 4080, Note_on_c, 1, 65, 28
4, 4080, Note_on_c, 1, 60, 20
4, 4090, Note_off_c, 1, 48, 64
4, 4320, Note_off_c, 1, 60, 64
4, 4320, Note_on_c, 1, 67, 30
4, 4320, Note_on_c, 1, 64, 25
4, 4320, Note_on_c, 1, 60, 15
4, 4330, Note_off_c, 1, 65, 64
4, 4330, Note_off_c, 1, 69, 64
4, 4440, Note_off_c, 1, 60, 64
4, 4440, Note_off_c, 1, 64, 64
4, 4440, Note_off_c, 1, 67, 64
4, 4740, Note_on_c, 1, 48, 70
4, 4770, Note_on_c, 1, 55, 54
4, 4785, Note_on_c, 1, 58, 57
4, 4800, Note_on_c, 1, 64, 60
4, 5330, Note_off_c, 1, 64, 64
4, 5330, Note_off_c, 1, 48, 64
4, 5330, Note_off_c, 1, 55, 64
4, 5330, Note_off_c, 1, 58, 64
4, 5400, Note_on_c, 1, 69, 50
4, 5520, Note_on_c, 1, 70, 45
4, 5520, Note_on_c, 1, 67, 52
4, 5530, Note_off_c, 1, 69, 64
4, 5640, Note_on_c, 1, 65, 55
4, 5640, Note_on_c, 1, 69, 42
4, 5650, Note_off_c, 1, 67, 64
4, 5650, Note_off_c, 1, 70, 64
4, 5720, Note_on_c, 1, 48, 60
4, 5740, Note_on_c, 1, 55, 44
4, 5750, Note_on_c, 1, 58, 47
4, 5760, Note_on_c, 1, 64, 50
4, 5770, Note_off_c, 1, 69, 64
4, 5770, Note_off_c, 1, 65, 64
4, 6300, Note_off_c, 1, 64, 64
4, 6300, Note_off_c, 1, 48, 64
4, 6300, Note_off_c, 1, 55, 64
4, 6300, Note_off_c, 1, 58, 64
4, 6360, Note_on_c, 1, 65, 30
4, 6360, Note_on_c, 1, 57, 40
4, 6470, Note_off_c, 1, 57, 64
4, 6470, Note_off_c, 1, 65, 64
4, 6480, Note_on_c, 1, 65, 32
4, 6480, Note_on_c, 1, 56, 42
4, 6590, Note_off_c, 1, 56, 64
4, 6590, Note_off_c, 1, 65, 64
4, 6600, Note_on_c, 1, 65, 27
4, 6600, Note_on_c, 1, 57, 40
4, 6710, Note_off_c, 1, 57, 64
4, 6710, Note_off_c, 1, 65, 64
4, 6720, Note_on_c, 1, 65, 30
4, 6720, Note_on_c, 1, 58, 45
4, 6960, Note_off_c, 1, 58, 64
4, 6960, Note_off_c, 1, 65, 64
4, 6960, Note_on_c, 1, 53, 25
4, 6960, Note_on_c, 1, 50, 28
4, 6960, Note_on_c, 1, 46, 40
4, 7200, Note_off_c, 1, 46, 64
4, 7200, Note_off_c, 1, 50, 64
4, 7200, Note_off_c, 1, 53, 64
4, 7200, Note_on_c, 1, 57, 30
4, 7200, Note_on_c, 1, 53, 22
4, 7200, Note_on_c, 1, 48, 48
4, 7440, Note_off_c, 1, 48, 64
4, 7440, Note_off_c, 1, 53, 64
4, 7440, Note_off_c, 1, 57, 64
4, 7440, Note_on_c, 1, 48, 52
4, 7440, Note_on_c, 1, 52, 32
4, 7440, Note_on_c, 1, 58, 40
4, 7680, Note_off_c, 1, 58, 64
4, 7680, Note_off_c, 1, 52, 64
4, 7680, Note_off_c, 1, 48, 64
4, 7680, Note_on_c, 1, 64, 45
4, 7680, Note_on_c, 1, 60, 25
4, 7680, Note_on_c, 1, 58, 33
4, 7680, Note_on_c, 1, 53, 50
4, 7920, Note_on_c, 1, 41, 40
4, 7930, Note_off_c, 1, 53, 64
4, 8160, Note_on_c, 1, 65, 40
4, 8160, Note_on_c, 1, 57, 28
4, 8160, Note_on_c, 1, 53, 45
4, 8170, Note_off_c, 1, 41, 64
4, 8170, Note_off_c, 1, 58, 64
4, 8170, Note_off_c, 1, 64, 64
4, 8210, Note_off_c, 1, 53, 64
4, 8210, Note_off_c, 1, 57, 64
4, 8210, Note_off_c, 1, 65, 64
4, 8210, Note_off_c, 1, 60, 64
4, 8220, Note_on_c, 1, 60, 50
4, 8280, Note_on_c, 1, 59, 52
4, 8290, Note_off_c, 1, 60, 64
4, 8340, Note_on_c, 1, 60, 48
4, 8350, Note_off_c, 1, 59, 64
4, 8400, Note_on_c, 1, 62, 45
4, 8410, Note_off_c, 1, 60, 64
4, 8460, Note_on_c, 1, 60, 52
4, 8470, Note_off_c, 1, 62, 64
4, 8520, Note_on_c, 1, 58, 56
4, 8530, Note_off_c, 1, 60, 64
4, 8580, Note_on_c, 1, 55, 60
4, 8590, Note_off_c, 1, 58, 64
4, 8640, Note_on_c, 1, 53, 40
4, 8640, Note_on_c, 1, 41, 55
4, 8650, Note_off_c, 1, 55, 64
4, 8700, Note_on_c, 1, 60, 28
4, 8700, Note_on_c, 1, 57, 35
4, 8710, Note_off_c, 1, 41, 64
4, 8710, Note_off_c, 1, 53, 64
4, 8730, Note_off_c, 1, 57, 64
4, 8730, Note_off_c, 1, 60, 64
4, 8760, Note_on_c, 1, 60, 30
4, 8760, Note_on_c, 1, 57, 37
4, 8800, Note_off_c, 1, 57, 64
4, 8800, Note_off_c, 1, 60, 64
4, 8820, Note_on_c, 1, 60, 27
4, 8820, Note_on_c, 1, 57, 32
4, 8850, Note_off_c, 1, 57, 64
4, 8850, Note_off_c, 1, 60, 64
4, 8880, Note_on_c, 1, 53, 48
4, 8940, Note_on_c, 1, 60, 25
4, 8940, Note_on_c, 1, 57, 32
4, 8950, Note_off_c, 1, 53, 64
4, 8970, Note_off_c, 1, 57, 64
4, 8970, Note_off_c, 1, 60, 64
4, 9000, Note_on_c, 1, 60, 27
4, 9000, Note_on_c, 1, 57, 34
4, 9040, Note_off_c, 1, 57, 64
4, 9040, Note_off_c, 1, 60, 64
4, 9060, Note_on_c, 1, 60, 24
4, 9060, Note_on_c, 1, 57, 29
4, 9090, Note_off_c, 1, 57, 64
4, 9090, Note_off_c, 1, 60, 64
4, 9120, Note_on_c, 1, 46, 30
4, 9120, Note_on_c, 1, 34, 50
4, 9180, Note_on_c, 1, 62, 28
4, 9180, Note_on_c, 1, 58, 35
4, 9190, Note_off_c, 1, 34, 64
4, 9190, Note_off_c, 1, 46, 64
4, 9210, Note_off_c, 1, 58, 64
4, 9210, Note_off_c, 1, 62, 64
4, 9240, Note_on_c, 1, 62, 30
4, 9240, Note_on_c, 1, 58, 37
4, 9280, Note_off_c, 1, 58, 64
4, 9280, Note_off_c, 1, 62, 64
4, 9300, Note_on_c, 1, 62, 27
4, 9300, Note_on_c, 1, 58, 32
4, 9330, Note_off_c, 1, 58, 64
4, 9330, Note_off_c, 1, 62, 64
4, 9360, Note_on_c, 1, 46, 45
4, 9420, Note_on_c, 1, 62, 25
4, 9420, Note_on_c, 1, 58, 32
4, 9430, Note_off_c, 1, 46, 64
4, 9450, Note_off_c, 1, 58, 64
4, 9450, Note_off_c, 1, 62, 64
4, 9480, Note_on_c, 1, 62, 27
4, 9480, Note_on_c, 1, 58, 34
4, 9520, Note_off_c, 1, 58, 64
4, 9520, Note_off_c, 1, 62, 64
4, 9540, Note_on_c, 1, 62, 32
4, 9540, Note_on_c, 1, 58, 37
4, 9570, Note_off_c, 1, 58, 64
4, 9570, Note_off_c, 1, 62, 64
4, 9600, Note_on_c, 1, 48, 40
4, 9600, Note_on_c, 1, 36, 55
4, 9660, Note_on_c, 1, 60, 28
4, 9660, Note_on_c, 1, 55, 35
4, 9670, Note_off_c, 1, 36, 64
4, 9670, Note_off_c, 1, 48, 64
4, 9690, Note_off_c, 1, 55, 64
4, 9690, Note_off_c, 1, 60, 64
4, 9720, Note_on_c, 1, 60, 30
4, 9720, Note_on_c, 1, 55, 37
4, 9760, Note_off_c, 1, 55, 64
4, 9760, Note_off_c, 1, 60, 64
4, 9780, Note_on_c, 1, 60, 27
4, 9780, Note_on_c, 1, 55, 32
4, 9810, Note_off_c, 1, 55, 64
4, 9810, Note_off_c, 1, 60, 64
4, 9840, Note_on_c, 1, 48, 48
4, 9900, Note_on_c, 1, 60, 25
4, 9900, Note_on_c, 1, 55, 32
4, 9930, Note_off_c, 1, 55, 64
4, 9930, Note_off_c, 1, 60, 64
4, 9960, Note_on_c, 1, 60, 27
4, 9960, Note_on_c, 1, 55, 34
4, 10000, Note_off_c, 1, 55, 64
4, 10000, Note_off_c, 1, 60, 64
4, 10020, Note_on_c, 1, 60, 24
4, 10020, Note_on_c, 1, 55, 29
4, 10050, Note_off_c, 1, 55, 64
4, 10050, Note_off_c, 1, 60, 64
4, 10080, Note_off_c, 1, 48, 64
4, 10080, Note_on_c, 1, 48, 45
4, 10140, Note_on_c, 1, 60, 28
4, 10140, Note_on_c, 1, 55, 20
4, 10140, Note_on_c, 1, 52, 35
4, 10170, Note_off_c, 1, 52, 64
4, 10170, Note_off_c, 1, 55, 64
4, 10170, Note_off_c, 1, 60, 64
4, 10200, Note_on_c, 1, 60, 30
4, 10200, Note_on_c, 1, 55, 18
4, 10200, Note_on_c, 1, 52, 37
4, 10240, Note_off_c, 1, 52, 64
4, 10240, Note_off_c, 1, 55, 64
4, 10240, Note_off_c, 1, 60, 64
4, 10260, Note_on_c, 1, 60, 27
4, 10260, Note_on_c, 1, 55, 20
4, 10260, Note_on_c, 1, 52, 32
4, 10290, Note_off_c, 1, 52, 64
4, 10290, Note_off_c, 1, 55, 64
4, 10290, Note_off_c, 1, 60, 64
4, 10320, Note_off_c, 1, 48, 64
4, 10320, Note_on_c, 1, 46, 50
4, 10380, Note_on_c, 1, 60, 25
4, 10380, Note_on_c, 1, 55, 15
4, 10380, Note_on_c, 1, 52, 32
4, 10410, Note_off_c, 1, 52, 64
4, 10410, Note_off_c, 1, 55, 64
4, 10410, Note_off_c, 1, 60, 64
4, 10440, Note_on_c, 1, 60, 27
4, 10440, Note_on_c, 1, 55, 18
4, 10440, Note_on_c, 1, 52, 34
4, 10480, Note_off_c, 1, 52, 64
4, 10480, Note_off_c, 1, 55, 64
4, 10480, Note_off_c, 1, 60, 64
4, 10500, Note_on_c, 1, 60, 32
4, 10500, Note_on_c, 1, 55, 20
4, 10500, Note_on_c, 1, 52, 37
4, 10530, Note_off_c, 1, 52, 64
4, 10530, Note_off_c, 1, 55, 64
4, 10530, Note_off_c, 1, 60, 64
4, 10560, Note_off_c, 1, 46, 64
4, 10560, Note_on_c, 1, 45, 55
4, 10620, Note_on_c, 1, 60, 28
4, 10620, Note_on_c, 1, 53, 35
4, 10650, Note_off_c, 1, 53, 64
4, 10650, Note_off_c, 1, 60, 64
4, 10680, Note_on_c, 1, 60, 30
4, 10680, Note_on_c, 1, 53, 37
4, 10720, Note_off_c, 1, 53, 64
4, 10720, Note_off_c, 1, 60, 64
4, 10740, Note_on_c, 1, 60, 27
4, 10740, Note_on_c, 1, 53, 32
4, 10770, Note_off_c, 1, 53, 64
4, 10770, Note_off_c, 1, 60, 64
4, 10800, Note_off_c, 1, 45, 64
4, 10800, Note_on_c, 1, 52, 48
4, 10860, Note_on_c, 1, 60, 25
4, 10860, Note_on_c, 1, 58, 32
4, 10890, Note_off_c, 1, 58, 64
4, 10890, Note_off_c, 1, 60, 64
4, 10920, Note_on_c, 1, 60, 27
4, 10920, Note_on_c, 1, 58, 34
4, 10960, Note_off_c, 1, 58, 64
4, 10960, Note_off_c, 1, 60, 64
4, 10980, Note_on_c, 1, 60, 24
4, 10980, Note_on_c, 1, 58, 29
4, 11010, Note_off_c, 1, 58, 64
4, 11010, Note_off_c, 1, 60, 64
4, 11040, Note_off_c, 1, 52, 64
4, 11040, Note_on_c, 1, 53, 50
4, 11100, Note_on_c, 1, 60, 28
4, 11100, Note_on_c, 1, 57, 35
4, 11130, Note_off_c, 1, 57, 64
4, 11130, Note_off_c, 1, 60, 64
4, 11160, Note_on_c, 1, 60, 30
4, 11160, Note_on_c, 1, 57, 37
4, 11200, Note_off_c, 1, 57, 64
4, 11200, Note_off_c, 1, 60, 64
4, 11220, Note_on_c, 1, 60, 27
4, 11220, Note_on_c, 1, 57, 32
4, 11250, Note_off_c, 1, 57, 64
4, 11250, Note_off_c, 1, 60, 64
4, 11280, Note_off_c, 1, 53, 64
4, 11280, Note_on_c, 1, 46, 55
4, 11340, Note_on_c, 1, 62, 30
4, 11340, Note_on_c, 1, 58, 37
4, 11370, Note_off_c, 1, 58, 64
4, 11370, Note_off_c, 1, 62, 64
4, 11400, Note_on_c, 1, 62, 32
4, 11400, Note_on_c, 1, 58, 39
4, 11440, Note_off_c, 1, 58, 64
4, 11440, Note_off_c, 1, 62, 64
4, 11460, Note_on_c, 1, 62, 37
4, 11460, Note_on_c, 1, 58, 42
4, 11490, Note_off_c, 1, 58, 64
4, 11490, Note_off_c, 1, 62, 64
4, 11520, Note_off_c, 1, 46, 64
4, 11520, Note_on_c, 1, 48, 50
4, 11580, Note_on_c, 1, 60, 28
4, 11580, Note_on_c, 1, 57, 35
4, 11610, Note_off_c, 1, 57, 64
4, 11610, Note_off_c, 1, 60, 64
4, 11640, Note_on_c, 1, 60, 30
4, 11640, Note_on_c, 1, 57, 37
4, 11680, Note_off_c, 1, 57, 64
4, 11680, Note_off_c, 1, 60, 64
4, 11700, Note_on_c, 1, 60, 27
4, 11700, Note_on_c, 1, 57, 32
4, 11730, Note_off_c, 1, 57, 64
4, 11730, Note_off_c, 1, 60, 64
4, 11760, Note_off_c, 1, 48, 64
4, 11760, Note_on_c, 1, 48, 48
4, 11820, Note_on_c, 1, 60, 25
4, 11820, Note_on_c, 1, 57, 32
4, 11820, Note_on_c, 1, 53, 28
4, 11850, Note_off_c, 1, 53, 64
4, 11850, Note_off_c, 1, 57, 64
4, 11850, Note_off_c, 1, 60, 64
4, 11880, Note_on_c, 1, 60, 25
4, 11880, Note_on_c, 1, 57, 34
4, 11880, Note_on_c, 1, 53, 23
4, 11920, Note_off_c, 1, 53, 64
4, 11920, Note_off_c, 1, 57, 64
4, 11920, Note_off_c, 1, 60, 64
4, 11940, Note_on_c, 1, 60, 20
4, 11940, Note_on_c, 1, 57, 29
4, 11940, Note_on_c, 1, 53, 25
4, 11970, Note_off_c, 1, 53, 64
4, 11970, Note_off_c, 1, 57, 64
4, 11970, Note_off_c, 1, 60, 64
4, 12000, Note_off_c, 1, 48, 64
4, 12000, Note_on_c, 1, 48, 45
4, 12060, Note_on_c, 1, 60, 28
4, 12060, Note_on_c, 1, 55, 20
4, 12060, Note_on_c, 1, 52, 35
4, 12090, Note_off_c, 1, 52, 64
4, 12090, Note_off_c, 1, 55, 64
4, 12090, Note_off_c, 1, 60, 64
4, 12120, Note_on_c, 1, 60, 30
4, 12120, Note_on_c, 1, 55, 18
4, 12120, Note_on_c, 1, 52, 37
4, 12160, Note_off_c, 1, 52, 64
4, 12160, Note_off_c, 1, 55, 64
4, 12160, Note_off_c, 1, 60, 64
4, 12180, Note_on_c, 1, 60, 27
4, 12180, Note_on_c, 1, 55, 20
4, 12180, Note_on_c, 1, 52, 32
4, 12210, Note_off_c, 1, 52, 64
4, 12210, Note_off_c, 1, 55, 64
4, 12210, Note_off_c, 1, 60, 64
4, 12240, Note_off_c, 1, 48, 64
4, 12240, Note_on_c, 1, 48, 50
4, 12300, Note_on_c, 1, 60, 25
4, 12300, Note_on_c, 1, 55, 15
4, 12300, Note_on_c, 1, 52, 32
4, 12330, Note_off_c, 1, 52, 64
4, 12330, Note_off_c, 1, 55, 64
4, 12330, Note_off_c, 1, 60, 64
4, 12360, Note_on_c, 1, 60, 27
4, 12360, Note_on_c, 1, 55, 18
4, 12360, Note_on_c, 1, 52, 34
4, 12400, Note_off_c, 1, 52, 64
4, 12400, Note_off_c, 1, 55, 64
4, 12400, Note_off_c, 1, 60, 64
4, 12420, Note_on_c, 1, 60, 32
4, 12420, Note_on_c, 1, 55, 20
4, 12420, Note_on_c, 1, 52, 37
4, 12450, Note_off_c, 1, 52, 64
4, 12450, Note_off_c, 1, 55, 64
4, 12450, Note_off_c, 1, 60, 64
4, 12480, Note_off_c, 1, 48, 64
4, 12540, Note_on_c, 1, 48, 65
4, 12540, Note_on_c, 1, 36, 80
4, 12590, Note_off_c, 1, 36, 64
4, 12590, Note_off_c, 1, 48, 64
4, 12600, Note_on_c, 1, 52, 62
4, 12600, Note_on_c, 1, 40, 75
4, 12650, Note_off_c, 1, 40, 64
4, 12650, Note_off_c, 1, 52, 64
4, 12660, Note_on_c, 1, 48, 64
4, 12660, Note_on_c, 1, 36, 78
4, 12710, Note_off_c, 1, 36, 64
4, 12710, Note_off_c, 1, 48, 64
4, 12720, Note_on_c, 1, 52, 60
4, 12720, Note_on_c, 1, 40, 72
4, 12770, Note_off_c, 1, 40, 64
4, 12770, Note_off_c, 1, 52, 64
4, 12780, Note_on_c, 1, 48, 62
4, 12780, Note_on_c, 1, 36, 75
4, 12830, Note_off_c, 1, 36, 64
4, 12830, Note_off_c, 1, 48, 64
4, 12840, Note_on_c, 1, 52, 58
4, 12840, Note_on_c, 1, 40, 68
4, 12890, Note_off_c, 1, 40, 64
4, 12890, Note_off_c, 1, 52, 64
4, 12900, Note_on_c, 1, 55, 55
4, 12900, Note_on_c, 1, 43, 64
4, 12950, Note_off_c, 1, 43, 64
4, 12950, Note_off_c, 1, 55, 64
4, 12960, Note_on_c, 1, 58, 50
4, 12960, Note_on_c, 1, 46, 60
4, 13010, Note_off_c, 1, 46, 64
4, 13010, Note_off_c, 1, 58, 64
4, 13080, Note_on_c, 1, 60, 40
4, 13080, Note_on_c, 1, 57, 70
4, 13200, Note_on_c, 1, 58, 60
4, 13200, Note_on_c, 1, 55, 72
4, 13210, Note_off_c, 1, 57, 64
4, 13320, Note_off_c, 1, 60, 64
4, 13320, Note_on_c, 1, 53, 75
4, 13320, Note_on_c, 1, 57, 55
4, 13320, Note_on_c, 1, 60, 45
4, 13330, Note_off_c, 1, 55, 64
4, 13330, Note_off_c, 1, 58, 64
4, 13450, Note_off_c, 1, 60, 64
4, 13450, Note_off_c, 1, 57, 64
4, 13450, Note_off_c, 1, 53, 64
4, 13500, Note_on_c, 1, 48, 60
4, 13500, Note_on_c, 1, 36, 75
4, 13550, Note_off_c, 1, 36, 64
4, 13550, Note_off_c, 1, 48, 64
4, 13560, Note_on_c, 1, 52, 57
4, 13560, Note_on_c, 1, 40, 70
4, 13610, Note_off_c, 1, 40, 64
4, 13610, Note_off_c, 1, 52, 64
4, 13620, Note_on_c, 1, 48, 59
4, 13620, Note_on_c, 1, 36, 73
4, 13670, Note_off_c, 1, 36, 64
4, 13670, Note_off_c, 1, 48, 64
4, 13680, Note_on_c, 1, 52, 55
4, 13680, Note_on_c, 1, 40, 67
4, 13730, Note_off_c, 1, 40, 64
4, 13730, Note_off_c, 1, 52, 64
4, 13740, Note_on_c, 1, 48, 57
4, 13740, Note_on_c, 1, 36, 70
4, 13790, Note_off_c, 1, 36, 64
4, 13790, Note_off_c, 1, 48, 64
4, 13800, Note_on_c, 1, 52, 53
4, 13800, Note_on_c, 1, 40, 63
4, 13850, Note_off_c, 1, 40, 64
4, 13850, Note_off_c, 1, 52, 64
4, 13860, Note_on_c, 1, 55, 50
4, 13860, Note_on_c, 1, 43, 59
4, 13910, Note_off_c, 1, 43, 64
4, 13910, Note_off_c, 1, 55, 64
4, 13920, Note_on_c, 1, 58, 45
4, 13920, Note_on_c, 1, 46, 55
4, 13970, Note_off_c, 1, 46, 64
4, 13970, Note_off_c, 1, 58, 64
4, 14040, Note_on_c, 1, 60, 45
4, 14040, Note_on_c, 1, 57, 65
4, 14160, Note_on_c, 1, 59, 63
4, 14160, Note_on_c, 1, 56, 70
4, 14170, Note_off_c, 1, 57, 64
4, 14170, Note_off_c, 1, 60, 64
4, 14280, Note_on_c, 1, 57, 64
4, 14280, Note_on_c, 1, 60, 51
4, 14290, Note_off_c, 1, 56, 64
4, 14290, Note_off_c, 1, 59, 64
4, 14400, Note_on_c, 1, 55, 52
4, 14400, Note_on_c, 1, 53, 42
4, 14400, Note_on_c, 1, 46, 62
4, 14410, Note_off_c, 1, 60, 64
4, 14410, Note_off_c, 1, 57, 64
4, 14640, Note_on_c, 1, 47, 57
4, 14650, Note_off_c, 1, 46, 64
4, 14760, Note_off_c, 1, 53, 64
4, 14760, Note_off_c, 1, 55, 64
4, 14760, Note_on_c, 1, 55, 30
4, 14760, Note_on_c, 1, 53, 42
4, 14760, Note_on_c, 1, 50, 22
4, 14880, Note_off_c, 1, 50, 64
4, 14880, Note_off_c, 1, 53, 64
4, 14880, Note_off_c, 1, 55, 64
4, 14880, Note_on_c, 1, 57, 37
4, 14880, Note_on_c, 1, 53, 29
4, 14880, Note_on_c, 1, 48, 55
4, 14890, Note_off_c, 1, 47, 64
4, 15120, Note_off_c, 1, 48, 64
4, 15120, Note_off_c, 1, 53, 64
4, 15120, Note_off_c, 1, 57, 64
4, 15120, Note_on_c, 1, 48, 49
4, 15120, Note_on_c, 1, 52, 34
4, 15120, Note_on_c, 1, 58, 40
4, 15360, Note_off_c, 1, 58, 64
4, 15360, Note_off_c, 1, 52, 64
4, 15360, Note_off_c, 1, 48, 64
4, 15360, Note_on_c, 1, 57, 38
4, 15360, Note_on_c, 1, 53, 45
4, 15560, Note_off_c, 1, 53, 64
4, 15560, Note_off_c, 1, 57, 64
4, 15600, Note_on_c, 1, 57, 80
4, 15600, Note_on_c, 1, 45, 100
4, 15810, Note_off_c, 1, 45, 64
4, 15810, Note_off_c, 1, 57, 64
4, 15810, Note_on_c, 1, 57, 78
4, 15810, Note_on_c, 1, 45, 95
4, 15840, Note_on_c, 1, 50, 75
4, 15840, Note_on_c, 1, 38, 105
4, 15850, Note_off_c, 1, 45, 64
4, 15850, Note_off_c, 1, 57, 64
4, 16040, Note_off_c, 1, 38, 64
4, 16040, Note_off_c, 1, 50, 64
4, 16080, Note_on_c, 1, 62, 80
4, 16080, Note_on_c, 1, 50, 100
4, 16290, Note_off_c, 1, 50, 64
4, 16290, Note_off_c, 1, 62, 64
4, 16290, Note_on_c, 1, 50, 95
4, 16290, Note_on_c, 1, 62, 78
4, 16320, Note_on_c, 1, 55, 75
4, 16320, Note_on_c, 1, 43, 105
4, 16330, Note_off_c, 1, 62, 64
4, 16330, Note_off_c, 1, 50, 64
4, 16520, Note_off_c, 1, 43, 64
4, 16520, Note_off_c, 1, 55, 64
4, 16560, Note_on_c, 1, 58, 80
4, 16560, Note_on_c, 1, 46, 100
4, 16770, Note_off_c, 1, 46, 64
4, 16770, Note_off_c, 1, 58, 64
4, 16770, Note_on_c, 1, 58, 78
4, 16770, Note_on_c, 1, 46, 95
4, 16800, Note_on_c, 1, 49, 85
4, 16800, Note_on_c, 1, 37, 115
4, 16810, Note_off_c, 1, 46, 64
4, 16810, Note_off_c, 1, 58, 64
4, 17000, Note_off_c, 1, 37, 64
4, 17000, Note_off_c, 1, 49, 64
4, 17040, Note_on_c, 1, 50, 78
4, 17040, Note_on_c, 1, 38, 105
4, 17220, Note_off_c, 1, 38, 64
4, 17220, Note_off_c, 1, 50, 64
4, 17280, Note_on_c, 1, 46, 45
4, 17280, Note_on_c, 1, 34, 60
4, 17520, Note_off_c, 1, 46, 64
4, 17520, Note_on_c, 1, 55, 40
4, 17520, Note_on_c, 1, 53, 32
4, 17520, Note_on_c, 1, 50, 15
4, 17520, Note_on_c, 1, 46, 28
4, 17530, Note_off_c, 1, 34, 64
4, 17760, Note_off_c, 1, 46, 64
4, 17760, Note_off_c, 1, 50, 64
4, 17760, Note_off_c, 1, 53, 64
4, 17760, Note_off_c, 1, 55, 64
4, 17760, Note_on_c, 1, 57, 48
4, 17760, Note_on_c, 1, 53, 25
4, 17760, Note_on_c, 1, 48, 50
4, 17880, Note_on_c, 1, 60, 43
4, 17890, Note_off_c, 1, 57, 64
4, 18000, Note_off_c, 1, 48, 64
4, 18000, Note_on_c, 1, 48, 42
4, 18000, Note_on_c, 1, 58, 45
4, 18000, Note_on_c, 1, 52, 33
4, 18010, Note_off_c, 1, 60, 64
4, 18010, Note_off_c, 1, 53, 64
4, 18120, Note_on_c, 1, 55, 36
4, 18130, Note_off_c, 1, 52, 64
4, 18240, Note_off_c, 1, 48, 64
4, 18240, Note_on_c, 1, 57, 30
4, 18240, Note_on_c, 1, 53, 40
4, 18250, Note_off_c, 1, 58, 64
4, 18250, Note_off_c, 1, 55, 64
4, 18440, Note_off_c, 1, 53, 64
4, 18440, Note_off_c, 1, 57, 64
4, 18480, Note_on_c, 1, 53, 28
4, 18480, Note_on_c, 1, 41, 45
4, 18690, Note_off_c, 1, 41, 64
4, 18690, Note_off_c, 1, 53, 64
4, 18690, Note_on_c, 1, 53, 25
4, 18690, Note_on_c, 1, 41, 38
4, 18715, Note_off_c, 1, 41, 64
4, 18715, Note_off_c, 1, 53, 64
4, 18720, Note_on_c, 1, 53, 20
4, 18720, Note_on_c, 1, 41, 40
4, 18960, Note_off_c, 1, 41, 64
4, 18960, Note_off_c, 1, 53, 64
4, 19200, Note_on_c, 1, 53, 45
4, 19320, Note_on_c, 1, 60, 38
4, 19440, Note_off_c, 1, 53, 64
4, 19440, Note_on_c, 1, 65, 32
4, 19450, Note_off_c, 1, 60, 64
4, 19560, Note_on_c, 1, 69, 28
4, 19570, Note_off_c, 1, 65, 64
4, 19680, Note_on_c, 1, 67, 30
4, 19680, Note_on_c, 1, 58, 40
4, 19690, Note_off_c, 1, 69, 64
4, 19800, Note_on_c, 1, 72, 37
4, 19810, Note_off_c, 1, 67, 64
4, 19920, Note_off_c, 1, 58, 64
4, 19920, Note_on_c, 1, 64, 43
4, 19930, Note_off_c, 1, 72, 64
4, 20040, Note_on_c, 1, 67, 40
4, 20050, Note_off_c, 1, 64, 64
4, 20160, Note_on_c, 1, 57, 45
4, 20170, Note_off_c, 1, 67, 64
4, 20280, Note_on_c, 1, 60, 35
4, 20400, Note_off_c, 1, 57, 64
4, 20400, Note_on_c, 1, 65, 33
4, 20410, Note_off_c, 1, 60, 64
4, 20520, Note_on_c, 1, 69, 28
4, 20530, Note_off_c, 1, 65, 64
4, 20640, Note_on_c, 1, 60, 30
4, 20640, Note_on_c, 1, 52, 40
4, 20650, Note_off_c, 1, 69, 64
4, 20760, Note_on_c, 1, 58, 34
4, 20770, Note_off_c, 1, 60, 64
4, 20880, Note_off_c, 1, 52, 64
4, 20880, Note_on_c, 1, 55, 38
4, 20890, Note_off_c, 1, 58, 64
4, 21000, Note_on_c, 1, 60, 35
4, 21010, Note_off_c, 1, 55, 64
4, 21120, Note_on_c, 1, 53, 45
4, 21130, Note_off_c, 1, 60, 64
4, 21240, Note_off_c, 1, 53, 64
4, 21240, Note_on_c, 1, 53, 35
4, 21360, Note_on_c, 1, 57, 32
4, 21370, Note_off_c, 1, 53, 64
4, 21480, Note_on_c, 1, 60, 38
4, 21490, Note_off_c, 1, 57, 64
4, 21600, Note_on_c, 1, 58, 40
4, 21600, Note_on_c, 1, 46, 48
4, 21610, Note_off_c, 1, 60, 64
4, 21720, Note_on_c, 1, 60, 36
4, 21730, Note_off_c, 1, 58, 64
4, 21840, Note_off_c, 1, 46, 64
4, 21840, Note_on_c, 1, 62, 33
4, 21850, Note_off_c, 1, 60, 64
4, 21960, Note_on_c, 1, 55, 38
4, 21960, Note_on_c, 1, 58, 35
4, 21970, Note_off_c, 1, 62, 64
4, 22080, Note_on_c, 1, 48, 50
4, 22090, Note_off_c, 1, 58, 64
4, 22090, Note_off_c, 1, 55, 64
4, 22200, Note_on_c, 1, 57, 40
4, 22200, Note_on_c, 1, 53, 30
4, 22320, Note_off_c, 1, 57, 64
4, 22320, Note_off_c, 1, 48, 64
4, 22320, Note_on_c, 1, 60, 42
4, 22320, Note_on_c, 1, 57, 28
4, 22330, Note_off_c, 1, 53, 64
4, 22440, Note_off_c, 1, 57, 64
4, 22440, Note_on_c, 1, 57, 38
4, 22440, Note_on_c, 1, 53, 25
4, 22450, Note_off_c, 1, 60, 64
4, 22560, Note_off_c, 1, 53, 64
4, 22560, Note_off_c, 1, 57, 64
4, 22560, Note_on_c, 1, 55, 33
4, 22560, Note_on_c, 1, 52, 20
4, 22560, Note_on_c, 1, 48, 40
4, 22640, Note_off_c, 1, 48, 64
4, 22640, Note_off_c, 1, 52, 64
4, 22640, Note_off_c, 1, 55, 64
4, 22680, Note_on_c, 1, 55, 50
4, 22680, Note_on_c, 1, 43, 70
4, 22800, Note_on_c, 1, 52, 55
4, 22800, Note_on_c, 1, 40, 72
4, 22810, Note_off_c, 1, 43, 64
4, 22810, Note_off_c, 1, 55, 64
4, 22920, Note_on_c, 1, 38, 77
4, 22920, Note_on_c, 1, 50, 58
4, 22930, Note_off_c, 1, 40, 64
4, 22930, Note_off_c, 1, 52, 64
4, 23040, Note_on_c, 1, 49, 65
4, 23040, Note_on_c, 1, 37, 80
4, 23050, Note_off_c, 1, 50, 64
4, 23050, Note_off_c, 1, 38, 64
4, 23160, Note_on_c, 1, 64, 50
4, 23160, Note_on_c, 1, 61, 45
4, 23160, Note_on_c, 1, 57, 35
4, 23170, Note_off_c, 1, 37, 64
4, 23170, Note_off_c, 1, 49, 64
4, 23230, Note_off_c, 1, 57, 64
4, 23230, Note_off_c, 1, 61, 64
4, 23230, Note_off_c, 1, 64, 64
4, 23280, Note_on_c, 1, 64, 43
4, 23280, Note_on_c, 1, 61, 38
4, 23280, Note_on_c, 1, 57, 28
4, 23370, Note_off_c, 1, 57, 64
4, 23370, Note_off_c, 1, 61, 64
4, 23370, Note_off_c, 1, 64, 64
4, 23400, Note_on_c, 1, 64, 38
4, 23400, Note_on_c, 1, 61, 33
4, 23400, Note_on_c, 1, 57, 23
4, 23480, Note_off_c, 1, 57, 64
4, 23480, Note_off_c, 1, 61, 64
4, 23480, Note_off_c, 1, 64, 64
4, 23520, Note_on_c, 1, 45, 30
4, 23520, Note_on_c, 1, 33, 45
4, 23640, Note_on_c, 1, 67, 30
4, 23640, Note_on_c, 1, 64, 18
4, 23640, Note_on_c, 1, 61, 25
4, 23640, Note_on_c, 1, 57, 15
4, 23650, Note_off_c, 1, 33, 64
4, 23650, Note_off_c, 1, 45, 64
4, 23710, Note_off_c, 1, 57, 64
4, 23710, Note_off_c, 1, 61, 64
4, 23710, Note_off_c, 1, 64, 64
4, 23710, Note_off_c, 1, 67, 64
4, 23760, Note_on_c, 1, 67, 35
4, 23760, Note_on_c, 1, 64, 22
4, 23760, Note_on_c, 1, 61, 30
4, 23760, Note_on_c, 1, 57, 20
4, 23850, Note_off_c, 1, 57, 64
4, 23850, Note_off_c, 1, 61, 64
4, 23850, Note_off_c, 1, 64, 64
4, 23850, Note_off_c, 1, 67, 64
4, 23880, Note_on_c, 1, 67, 32
4, 23880, Note_on_c, 1, 64, 20
4, 23880, Note_on_c, 1, 61, 27
4, 23880, Note_on_c, 1, 57, 17
4, 23960, Note_off_c, 1, 57, 64
4, 23960, Note_off_c, 1, 61, 64
4, 23960, Note_off_c, 1, 64, 64
4, 23960, Note_off_c, 1, 67, 64
4, 24000, Note_on_c, 1, 50, 35
4, 24000, Note_on_c, 1, 38, 50
4, 24120, Note_on_c, 1, 65, 30
4, 24120, Note_on_c, 1, 62, 25
4, 24120, Note_on_c, 1, 57, 15
4, 24130, Note_off_c, 1, 38, 64
4, 24130, Note_off_c, 1, 50, 64
4, 24190, Note_off_c, 1, 57, 64
4, 24190, Note_off_c, 1, 62, 64
4, 24190, Note_off_c, 1, 65, 64
4, 24240, Note_on_c, 1, 65, 35
4, 24240, Note_on_c, 1, 62, 26
4, 24240, Note_on_c, 1, 57, 20
4, 24330, Note_off_c, 1, 57, 64
4, 24330, Note_off_c, 1, 62, 64
4, 24330, Note_off_c, 1, 65, 64
4, 24360, Note_on_c, 1, 65, 32
4, 24360, Note_on_c, 1, 62, 27
4, 24360, Note_on_c, 1, 57, 17
4, 24440, Note_off_c, 1, 57, 64
4, 24440, Note_off_c, 1, 62, 64
4, 24440, Note_off_c, 1, 65, 64
4, 24480, Note_on_c, 1, 55, 30
4, 24480, Note_on_c, 1, 43, 45
4, 24600, Note_off_c, 1, 55, 64
4, 24600, Note_on_c, 1, 64, 30
4, 24600, Note_on_c, 1, 62, 18
4, 24600, Note_on_c, 1, 58, 25
4, 24600, Note_on_c, 1, 55, 15
4, 24610, Note_off_c, 1, 43, 64
4, 24670, Note_off_c, 1, 55, 64
4, 24670, Note_off_c, 1, 58, 64
4, 24670, Note_off_c, 1, 62, 64
4, 24670, Note_off_c, 1, 64, 64
4, 24720, Note_on_c, 1, 64, 35
4, 24720, Note_on_c, 1, 62, 22
4, 24720, Note_on_c, 1, 58, 30
4, 24720, Note_on_c, 1, 55, 20
4, 24810, Note_off_c, 1, 55, 64
4, 24810, Note_off_c, 1, 58, 64
4, 24810, Note_off_c, 1, 62, 64
4, 24810, Note_off_c, 1, 64, 64
4, 24840, Note_on_c, 1, 64, 39
4, 24840, Note_on_c, 1, 62, 27
4, 24840, Note_on_c, 1, 58, 34
4, 24840, Note_on_c, 1, 55, 24
4, 24920, Note_off_c, 1, 55, 64
4, 24920, Note_off_c, 1, 58, 64
4, 24920, Note_off_c, 1, 62, 64
4, 24920, Note_off_c, 1, 64, 64
4, 24960, Note_on_c, 1, 57, 40
4, 24960, Note_on_c, 1, 45, 55
4, 25080, Note_off_c, 1, 57, 64
4, 25080, Note_on_c, 1, 65, 30
4, 25080, Note_on_c, 1, 62, 25
4, 25080, Note_on_c, 1, 57, 15
4, 25090, Note_off_c, 1, 45, 64
4, 25150, Note_off_c, 1, 57, 64
4, 25150, Note_off_c, 1, 62, 64
4, 25150, Note_off_c, 1, 65, 64
4, 25200, Note_on_c, 1, 57, 32
4, 25200, Note_on_c, 1, 45, 45
4, 25320, Note_off_c, 1, 57, 64
4, 25320, Note_on_c, 1, 65, 30
4, 25320, Note_on_c, 1, 62, 25
4, 25320, Note_on_c, 1, 57, 15
4, 25330, Note_off_c, 1, 45, 64
4, 25400, Note_off_c, 1, 57, 64
4, 25400, Note_off_c, 1, 62, 64
4, 25400, Note_off_c, 1, 65, 64
4, 25440, Note_on_c, 1, 45, 35
4, 25440, Note_on_c, 1, 33, 50
4, 25560, Note_on_c, 1, 65, 30
4, 25560, Note_on_c, 1, 62, 18
4, 25560, Note_on_c, 1, 57, 15
4, 25570, Note_off_c, 1, 33, 64
4, 25570, Note_off_c, 1, 45, 64
4, 25630, Note_off_c, 1, 57, 64
4, 25630, Note_off_c, 1, 62, 64
4, 25630, Note_off_c, 1, 65, 64
4, 25680, Note_on_c, 1, 45, 33
4, 25680, Note_on_c, 1, 33, 45
4, 25800, Note_on_c, 1, 61, 30
4, 25800, Note_on_c, 1, 57, 16
4, 25800, Note_on_c, 1, 55, 27
4, 25810, Note_off_c, 1, 33, 64
4, 25810, Note_off_c, 1, 45, 64
4, 25880, Note_off_c, 1, 55, 64
4, 25880, Note_off_c, 1, 57, 64
4, 25880, Note_off_c, 1, 61, 64
4, 25920, Note_on_c, 1, 50, 28
4, 25920, Note_on_c, 1, 38, 40
4, 26020, Note_off_c, 1, 38, 64
4, 26020, Note_off_c, 1, 50, 64
4, 26040, Note_on_c, 1, 53, 88
4, 26160, Note_on_c, 1, 57, 90
4, 26170, Note_off_c, 1, 53, 64
4, 26280, Note_on_c, 1, 55, 86
4, 26290, Note_off_c, 1, 57, 64
4, 26400, Note_on_c, 1, 53, 83
4, 26410, Note_off_c, 1, 55, 64
4, 26520, Note_on_c, 1, 52, 80
4, 26530, Note_off_c, 1, 53, 64
4, 26640, Note_on_c, 1, 50, 76
4, 26650, Note_off_c, 1, 52, 64
4, 26760, Note_on_c, 1, 48, 73
4, 26770, Note_off_c, 1, 50, 64
4, 26880, Note_on_c, 1, 47, 50
4, 26880, Note_on_c, 1, 35, 70
4, 26890, Note_off_c, 1, 48, 64
4, 27000, Note_on_c, 1, 65, 68
4, 27000, Note_on_c, 1, 62, 48
4, 27000, Note_on_c, 1, 55, 60
4, 27070, Note_off_c, 1, 55, 64
4, 27070, Note_off_c, 1, 62, 64
4, 27070, Note_off_c, 1, 65, 64
4, 27120, Note_on_c, 1, 65, 56
4, 27120, Note_on_c, 1, 62, 36
4, 27120, Note_on_c, 1, 55, 48
4, 27210, Note_off_c, 1, 55, 64
4, 27210, Note_off_c, 1, 62, 64
4, 27210, Note_off_c, 1, 65, 64
4, 27240, Note_on_c, 1, 65, 48
4, 27240, Note_on_c, 1, 62, 28
4, 27240, Note_on_c, 1, 55, 40
4, 27320, Note_off_c, 1, 55, 64
4, 27320, Note_off_c, 1, 62, 64
4, 27320, Note_off_c, 1, 65, 64
4, 27360, Note_off_c, 1, 35, 64
4, 27360, Note_off_c, 1, 47, 64
4, 27360, Note_on_c, 1, 31, 45
4, 27360, Note_on_c, 1, 43, 30
4, 27480, Note_on_c, 1, 59, 32
4, 27480, Note_on_c, 1, 55, 16
4, 27480, Note_on_c, 1, 53, 19
4, 27480, Note_on_c, 1, 50, 24
4, 27550, Note_off_c, 1, 50, 64
4, 27550, Note_off_c, 1, 53, 64
4, 27550, Note_off_c, 1, 55, 64
4, 27550, Note_off_c, 1, 59, 64
4, 27600, Note_on_c, 1, 59, 35
4, 27600, Note_on_c, 1, 55, 10
4, 27600, Note_on_c, 1, 53, 16
4, 27600, Note_on_c, 1, 50, 28
4, 27690, Note_off_c, 1, 50, 64
4, 27690, Note_off_c, 1, 53, 64
4, 27690, Note_off_c, 1, 55, 64
4, 27690, Note_off_c, 1, 59, 64
4, 27720, Note_on_c, 1, 59, 30
4, 27720, Note_on_c, 1, 55, 12
4, 27720, Note_on_c, 1, 53, 18
4, 27720, Note_on_c, 1, 50, 22
4, 27800, Note_off_c, 1, 50, 64
4, 27800, Note_off_c, 1, 53, 64
4, 27800, Note_off_c, 1, 55, 64
4, 27800, Note_off_c, 1, 59, 64
4, 27840, Note_off_c, 1, 43, 64
4, 27840, Note_off_c, 1, 31, 64
4, 27840, Note_on_c, 1, 48, 35
4, 27840, Note_on_c, 1, 36, 50
4, 27960, Note_on_c, 1, 60, 30
4, 27960, Note_on_c, 1, 55, 25
4, 27960, Note_on_c, 1, 52, 15
4, 27970, Note_off_c, 1, 36, 64
4, 27970, Note_off_c, 1, 48, 64
4, 28030, Note_off_c, 1, 52, 64
4, 28030, Note_off_c, 1, 55, 64
4, 28030, Note_off_c, 1, 60, 64
4, 28080, Note_on_c, 1, 60, 35
4, 28080, Note_on_c, 1, 55, 26
4, 28080, Note_on_c, 1, 52, 20
4, 28170, Note_off_c, 1, 52, 64
4, 28170, Note_off_c, 1, 55, 64
4, 28170, Note_off_c, 1, 60, 64
4, 28200, Note_on_c, 1, 60, 32
4, 28200, Note_on_c, 1, 55, 27
4, 28200, Note_on_c, 1, 52, 17
4, 28280, Note_off_c, 1, 52, 64
4, 28280, Note_off_c, 1, 55, 64
4, 28280, Note_off_c, 1, 60, 64
4, 28320, Note_on_c, 1, 52, 30
4, 28320, Note_on_c, 1, 40, 45
4, 28440, Note_off_c, 1, 52, 64
4, 28440, Note_on_c, 1, 60, 30
4, 28440, Note_on_c, 1, 55, 18
4, 28440, Note_on_c, 1, 52, 25
4, 28450, Note_off_c, 1, 40, 64
4, 28510, Note_off_c, 1, 52, 64
4, 28510, Note_off_c, 1, 55, 64
4, 28510, Note_off_c, 1, 60, 64
4, 28560, Note_on_c, 1, 60, 35
4, 28560, Note_on_c, 1, 55, 22
4, 28560, Note_on_c, 1, 52, 30
4, 28650, Note_off_c, 1, 52, 64
4, 28650, Note_off_c, 1, 55, 64
4, 28650, Note_off_c, 1, 60, 64
4, 28680, Note_on_c, 1, 60, 39
4, 28680, Note_on_c, 1, 55, 27
4, 28680, Note_on_c, 1, 52, 34
4, 28760, Note_off_c, 1, 52, 64
4, 28760, Note_off_c, 1, 55, 64
4, 28760, Note_off_c, 1, 60, 64
4, 28800, Note_on_c, 1, 53, 40
4, 28800, Note_on_c, 1, 41, 55
4, 28920, Note_off_c, 1, 53, 64
4, 28920, Note_on_c, 1, 62, 30
4, 28920, Note_on_c, 1, 60, 25
4, 28920, Note_on_c, 1, 57, 15
4, 28930, Note_off_c, 1, 41, 64
4, 28990, Note_off_c, 1, 57, 64
4, 28990, Note_off_c, 1, 60, 64
4, 28990, Note_off_c, 1, 62, 64
4, 29040, Note_on_c, 1, 53, 45
4, 29130, Note_off_c, 1, 53, 64
4, 29160, Note_on_c, 1, 62, 30
4, 29160, Note_on_c, 1, 60, 25
4, 29160, Note_on_c, 1, 57, 15
4, 29240, Note_off_c, 1, 57, 64
4, 29240, Note_off_c, 1, 60, 64
4, 29240, Note_off_c, 1, 62, 64
4, 29280, Note_on_c, 1, 53, 35
4, 29280, Note_on_c, 1, 41, 50
4, 29380, Note_off_c, 1, 41, 64
4, 29380, Note_off_c, 1, 53, 64
4, 29400, Note_on_c, 1, 62, 30
4, 29400, Note_on_c, 1, 60, 18
4, 29400, Note_on_c, 1, 57, 15
4, 29470, Note_off_c, 1, 57, 64
4, 29470, Note_off_c, 1, 60, 64
4, 29470, Note_off_c, 1, 62, 64
4, 29520, Note_on_c, 1, 53, 40
4, 29600, Note_off_c, 1, 53, 64
4, 29640, Note_on_c, 1, 62, 30
4, 29640, Note_on_c, 1, 60, 16
4, 29640, Note_on_c, 1, 57, 27
4, 29700, Note_off_c, 1, 57, 64
4, 29700, Note_off_c, 1, 60, 64
4, 29700, Note_off_c, 1, 62, 64
4, 29760, Note_on_c, 1, 43, 35
4, 29760, Note_on_c, 1, 31, 50
4, 29880, Note_on_c, 1, 64, 30
4, 29880, Note_on_c, 1, 60, 25
4, 29880, Note_on_c, 1, 55, 15
4, 29890, Note_off_c, 1, 31, 64
4, 29890, Note_off_c, 1, 43, 64
4, 29950, Note_off_c, 1, 55, 64
4, 29950, Note_off_c, 1, 60, 64
4, 29950, Note_off_c, 1, 64, 64
4, 30000, Note_on_c, 1, 64, 35
4, 30000, Note_on_c, 1, 60, 26
4, 30000, Note_on_c, 1, 55, 20
4, 30090, Note_off_c, 1, 55, 64
4, 30090, Note_off_c, 1, 60, 64
4, 30090, Note_off_c, 1, 64, 64
4, 30120, Note_on_c, 1, 64, 32
4, 30120, Note_on_c, 1, 60, 27
4, 30120, Note_on_c, 1, 55, 17
4, 30200, Note_off_c, 1, 55, 64
4, 30200, Note_off_c, 1, 60, 64
4, 30200, Note_off_c, 1, 64, 64
4, 30240, Note_on_c, 1, 64, 35
4, 30240, Note_on_c, 1, 60, 25
4, 30240, Note_on_c, 1, 55, 20
4, 30360, Note_off_c, 1, 55, 64
4, 30360, Note_off_c, 1, 60, 64
4, 30360, Note_off_c, 1, 64, 64
4, 30720, Note_on_c, 1, 43, 35
4, 30720, Note_on_c, 1, 31, 50
4, 30840, Note_on_c, 1, 65, 40
4, 30840, Note_on_c, 1, 62, 28
4, 30840, Note_on_c, 1, 60, 35
4, 30840, Note_on_c, 1, 55, 25
4, 30850, Note_off_c, 1, 31, 64
4, 30850, Note_off_c, 1, 43, 64
4, 30910, Note_off_c, 1, 55, 64
4, 30910, Note_off_c, 1, 60, 64
4, 30910, Note_off_c, 1, 62, 64
4, 30910, Note_off_c, 1, 65, 64
4, 30960, Note_on_c, 1, 65, 50
4, 30960, Note_on_c, 1, 62, 50
4, 30960, Note_on_c, 1, 60, 41
4, 30960, Note_on_c, 1, 55, 35
4, 31050, Note_off_c, 1, 55, 64
4, 31050, Note_off_c, 1, 60, 64
4, 31050, Note_off_c, 1, 62, 64
4, 31050, Note_off_c, 1, 65, 64
4, 31080, Note_on_c, 1, 65, 62
4, 31080, Note_on_c, 1, 62, 62
4, 31080, Note_on_c, 1, 60, 57
4, 31080, Note_on_c, 1, 55, 47
4, 31160, Note_off_c, 1, 55, 64
4, 31160, Note_off_c, 1, 60, 64
4, 31160, Note_off_c, 1, 62, 64
4, 31160, Note_off_c, 1, 65, 64
4, 31200, Note_on_c, 1, 43, 70
4, 31200, Note_on_c, 1, 31, 90
4, 31285, Note_on_c, 1, 55, 80
4, 31300, Note_on_c, 1, 59, 77
4, 31310, Note_off_c, 1, 55, 64
4, 31310, Note_on_c, 1, 62, 81
4, 31320, Note_off_c, 1, 59, 64
4, 31320, Note_off_c, 1, 31, 64
4, 31320, Note_off_c, 1, 43, 64
4, 31320, Note_on_c, 1, 65, 85
4, 31330, Note_off_c, 1, 62, 64
4, 31350, Note_on_c, 1, 64, 83
4, 31360, Note_off_c, 1, 65, 64
4, 31380, Note_on_c, 1, 62, 81
4, 31390, Note_off_c, 1, 64, 64
4, 31410, Note_on_c, 1, 60, 79
4, 31420, Note_off_c, 1, 62, 64
4, 31440, Note_on_c, 1, 59, 82
4, 31450, Note_off_c, 1, 60, 64
4, 31470, Note_on_c, 1, 57, 80
4, 31480, Note_off_c, 1, 59, 64
4, 31500, Note_on_c, 1, 55, 78
4, 31510, Note_off_c, 1, 57, 64
4, 31530, Note_on_c, 1, 53, 76
4, 31540, Note_off_c, 1, 55, 64
4, 31560, Note_on_c, 1, 52, 79
4, 31570, Note_off_c, 1, 53, 64
4, 31590, Note_on_c, 1, 50, 77
4, 31600, Note_off_c, 1, 52, 64
4, 31620, Note_on_c, 1, 48, 80
4, 31630, Note_off_c, 1, 50, 64
4, 31650, Note_on_c, 1, 47, 85
4, 31660, Note_off_c, 1, 48, 64
4, 31680, Note_on_c, 1, 48, 70
4, 31680, Note_on_c, 1, 36, 90
4, 31690, Note_off_c, 1, 47, 64
4, 32040, Note_off_c, 1, 36, 64
4, 32040, Note_off_c, 1, 48, 64
4, 32130, Note_on_c, 1, 48, 75
4, 32130, Note_on_c, 1, 36, 95
4, 32160, Note_off_c, 1, 36, 64
4, 32160, Note_off_c, 1, 48, 64
4, 32160, Note_on_c, 1, 53, 80
4, 32160, Note_on_c, 1, 48, 60
4, 32160, Note_on_c, 1, 41, 102
4, 32360, Note_off_c, 1, 41, 64
4, 32360, Note_off_c, 1, 48, 64
4, 32360, Note_off_c, 1, 53, 64
4, 32370, Note_on_c, 1, 53, 75
4, 32370, Note_on_c, 1, 48, 50
4, 32370, Note_on_c, 1, 41, 98
4, 32400, Note_off_c, 1, 41, 64
4, 32400, Note_off_c, 1, 48, 64
4, 32400, Note_off_c, 1, 53, 64
4, 32400, Note_on_c, 1, 53, 83
4, 32400, Note_on_c, 1, 48, 63
4, 32400, Note_on_c, 1, 45, 105
4, 32600, Note_off_c, 1, 45, 64
4, 32600, Note_off_c, 1, 48, 64
4, 32600, Note_off_c, 1, 53, 64
4, 32610, Note_on_c, 1, 45, 101
4, 32610, Note_on_c, 1, 48, 53
4, 32610, Note_on_c, 1, 53, 78
4, 32640, Note_off_c, 1, 53, 64
4, 32640, Note_off_c, 1, 48, 64
4, 32640, Note_off_c, 1, 45, 64
4, 32640, Note_on_c, 1, 55, 60
4, 32640, Note_on_c, 1, 52, 90
4, 32640, Note_on_c, 1, 48, 95
4, 32710, Note_off_c, 1, 48, 64
4, 32710, Note_off_c, 1, 52, 64
4, 32710, Note_off_c, 1, 55, 64
4, 33090, Note_on_c, 1, 64, 45
4, 33090, Note_on_c, 1, 60, 42
4, 33120, Note_off_c, 1, 60, 64
4, 33120, Note_off_c, 1, 64, 64
4, 33120, Note_on_c, 1, 65, 40
4, 33120, Note_on_c, 1, 60, 30
4, 33120, Note_on_c, 1, 53, 47
4, 33320, Note_off_c, 1, 53, 64
4, 33320, Note_off_c, 1, 60, 64
4, 33320, Note_off_c, 1, 65, 64
4, 33330, Note_on_c, 1, 65, 38
4, 33330, Note_on_c, 1, 60, 28
4, 33330, Note_on_c, 1, 53, 43
4, 33360, Note_off_c, 1, 53, 64
4, 33360, Note_off_c, 1, 60, 64
4, 33360, Note_off_c, 1, 65, 64
4, 33360, Note_on_c, 1, 65, 42
4, 33360, Note_on_c, 1, 60, 32
4, 33360, Note_on_c, 1, 57, 50
4, 33560, Note_off_c, 1, 57, 64
4, 33560, Note_off_c, 1, 60, 64
4, 33560, Note_off_c, 1, 65, 64
4, 33570, Note_on_c, 1, 57, 46
4, 33570, Note_on_c, 1, 60, 30
4, 33570, Note_on_c, 1, 65, 40
4, 33600, Note_off_c, 1, 65, 64
4, 33600, Note_off_c, 1, 60, 64
4, 33600, Note_off_c, 1, 57, 64
4, 33600, Note_on_c, 1, 64, 35
4, 33600, Note_on_c, 1, 60, 40
4, 33840, Note_off_c, 1, 60, 64
4, 33840, Note_off_c, 1, 64, 64
4, 34050, Note_on_c, 1, 48, 75
4, 34050, Note_on_c, 1, 36, 95
4, 34080, Note_off_c, 1, 36, 64
4, 34080, Note_off_c, 1, 48, 64
4, 34080, Note_on_c, 1, 53, 80
4, 34080, Note_on_c, 1, 48, 60
4, 34080, Note_on_c, 1, 41, 102
4, 34280, Note_off_c, 1, 41, 64
4, 34280, Note_off_c, 1, 48, 64
4, 34280, Note_off_c, 1, 53, 64
4, 34290, Note_on_c, 1, 53, 75
4, 34290, Note_on_c, 1, 48, 50
4, 34290, Note_on_c, 1, 41, 98
4, 34320, Note_off_c, 1, 41, 64
4, 34320, Note_off_c, 1, 48, 64
4, 34320, Note_off_c, 1, 53, 64
4, 34320, Note_on_c, 1, 53, 83
4, 34320, Note_on_c, 1, 48, 63
4, 34320, Note_on_c, 1, 44, 105
4, 34520, Note_off_c, 1, 44, 64
4, 34520, Note_off_c, 1, 48, 64
4, 34520, Note_off_c, 1, 53, 64
4, 34530, Note_on_c, 1, 44, 101
4, 34530, Note_on_c, 1, 48, 53
4, 34530, Note_on_c, 1, 53, 78
4, 34560, Note_off_c, 1, 53, 64
4, 34560, Note_off_c, 1, 48, 64
4, 34560, Note_off_c, 1, 44, 64
4, 34560, Note_on_c, 1, 55, 60
4, 34560, Note_on_c, 1, 52, 90
4, 34560, Note_on_c, 1, 48, 95
4, 34630, Note_off_c, 1, 48, 64
4, 34630, Note_off_c, 1, 52, 64
4, 34630, Note_off_c, 1, 55, 64
4, 35010, Note_on_c, 1, 64, 45
4, 35010, Note_on_c, 1, 60, 42
4, 35040, Note_off_c, 1, 60, 64
4, 35040, Note_off_c, 1, 64, 64
4, 35040, Note_on_c, 1, 65, 40
4, 35040, Note_on_c, 1, 60, 30
4, 35040, Note_on_c, 1, 53, 47
4, 35240, Note_off_c, 1, 53, 64
4, 35240, Note_off_c, 1, 60, 64
4, 35240, Note_off_c, 1, 65, 64
4, 35250, Note_on_c, 1, 65, 38
4, 35250, Note_on_c, 1, 60, 28
4, 35250, Note_on_c, 1, 53, 43
4, 35280, Note_off_c, 1, 53, 64
4, 35280, Note_off_c, 1, 60, 64
4, 35280, Note_off_c, 1, 65, 64
4, 35280, Note_on_c, 1, 65, 42
4, 35280, Note_on_c, 1, 60, 32
4, 35280, Note_on_c, 1, 56, 50
4, 35480, Note_off_c, 1, 56, 64
4, 35480, Note_off_c, 1, 60, 64
4, 35480, Note_off_c, 1, 65, 64
4, 35490, Note_on_c, 1, 56, 46
4, 35490, Note_on_c, 1, 60, 30
4, 35490, Note_on_c, 1, 65, 40
4, 35520, Note_off_c, 1, 65, 64
4, 35520, Note_off_c, 1, 60, 64
4, 35520, Note_off_c, 1, 56, 64
4, 35520, Note_on_c, 1, 64, 35
4, 35520, Note_on_c, 1, 60, 50
4, 35640, Note_off_c, 1, 60, 64
4, 35640, Note_off_c, 1, 64, 64
4, 35640, Note_on_c, 1, 67, 40
4, 35640, Note_on_c, 1, 64, 35
4, 35640, Note_on_c, 1, 60, 20
4, 35720, Note_off_c, 1, 60, 64
4, 35720, Note_off_c, 1, 64, 64
4, 35720, Note_off_c, 1, 67, 64
4, 35760, Note_on_c, 1, 53, 45
4, 35880, Note_off_c, 1, 53, 64
4, 35880, Note_on_c, 1, 65, 38
4, 35880, Note_on_c, 1, 60, 20
4, 35880, Note_on_c, 1, 56, 32
4, 35960, Note_off_c, 1, 56, 64
4, 35960, Note_off_c, 1, 60, 64
4, 35960, Note_off_c, 1, 65, 64
4, 35970, Note_on_c, 1, 48, 48
4, 36000, Note_on_c, 1, 55, 30
4, 36015, Note_on_c, 1, 64, 38
4, 36090, Note_off_c, 1, 48, 64
4, 36120, Note_off_c, 1, 64, 64
4, 36120, Note_off_c, 1, 55, 64
4, 36120, Note_on_c, 1, 67, 40
4, 36120, Note_on_c, 1, 64, 35
4, 36120, Note_on_c, 1, 60, 20
4, 36200, Note_off_c, 1, 60, 64
4, 36200, Note_off_c, 1, 64, 64
4, 36200, Note_off_c, 1, 67, 64
4, 36240, Note_on_c, 1, 53, 52
4, 36360, Note_off_c, 1, 53, 64
4, 36360, Note_on_c, 1, 65, 45
4, 36360, Note_on_c, 1, 60, 27
4, 36360, Note_on_c, 1, 56, 39
4, 36440, Note_off_c, 1, 56, 64
4, 36440, Note_off_c, 1, 60, 64
4, 36440, Note_off_c, 1, 65, 64
4, 36460, Note_on_c, 1, 48, 55
4, 36480, Note_on_c, 1, 55, 35
4, 36490, Note_on_c, 1, 64, 42
4, 36580, Note_off_c, 1, 64, 64
4, 36580, Note_off_c, 1, 55, 64
4, 36580, Note_off_c, 1, 48, 64
4, 36600, Note_on_c, 1, 67, 47
4, 36600, Note_on_c, 1, 64, 42
4, 36600, Note_on_c, 1, 60, 27
4, 36680, Note_off_c, 1, 60, 64
4, 36680, Note_off_c, 1, 64, 64
4, 36680, Note_off_c, 1, 67, 64
4, 36720, Note_on_c, 1, 48, 53
4, 36840, Note_off_c, 1, 48, 64
4, 36840, Note_on_c, 1, 69, 41
4, 36840, Note_on_c, 1, 66, 23
4, 36840, Note_on_c, 1, 60, 35
4, 36920, Note_off_c, 1, 60, 64
4, 36920, Note_off_c, 1, 66, 64
4, 36920, Note_off_c, 1, 69, 64
4, 36960, Note_on_c, 1, 48, 50
4, 37080, Note_off_c, 1, 48, 64
4, 37080, Note_on_c, 1, 70, 36
4, 37080, Note_on_c, 1, 67, 18
4, 37080, Note_on_c, 1, 60, 30
4, 37160, Note_off_c, 1, 60, 64
4, 37160, Note_off_c, 1, 67, 64
4, 37160, Note_off_c, 1, 70, 64
4, 37200, Note_on_c, 1, 48, 54
4, 37320, Note_off_c, 1, 48, 64
4, 37320, Note_on_c, 1, 67, 38
4, 37320, Note_on_c, 1, 64, 20
4, 37320, Note_on_c, 1, 58, 32
4, 37400, Note_off_c, 1, 58, 64
4, 37400, Note_off_c, 1, 64, 64
4, 37400, Note_off_c, 1, 67, 64
4, 37440, Note_on_c, 1, 48, 44
4, 37440, Note_on_c, 1, 36, 57
4, 37560, Note_off_c, 1, 36, 64
4, 37560, Note_off_c, 1, 48, 64
4, 37560, Note_on_c, 1, 64, 40
4, 37560, Note_on_c, 1, 58, 22
4, 37560, Note_on_c, 1, 55, 34
4, 37640, Note_off_c, 1, 55, 64
4, 37640, Note_off_c, 1, 58, 64
4, 37640, Note_off_c, 1, 64, 64
4, 37680, Note_on_c, 1, 48, 37
4, 37680, Note_on_c, 1, 36, 50
4, 37800, Note_off_c, 1, 36, 64
4, 37800, Note_off_c, 1, 48, 64
4, 37800, Note_on_c, 1, 64, 35
4, 37800, Note_on_c, 1, 58, 17
4, 37800, Note_on_c, 1, 55, 29
4, 37880, Note_off_c, 1, 55, 64
4, 37880, Note_off_c, 1, 58, 64
4, 37880, Note_off_c, 1, 64, 64
4, 38400, Note_on_c, 1, 53, 30
4, 38400, Note_on_c, 1, 41, 45
4, 38520, Note_off_c, 1, 41, 64
4, 38520, Note_off_c, 1, 53, 64
4, 38520, Note_on_c, 1, 65, 38
4, 38520, Note_on_c, 1, 60, 25
4, 38520, Note_on_c, 1, 57, 30
4, 38620, Note_off_c, 1, 57, 64
4, 38620, Note_off_c, 1, 60, 64
4, 38620, Note_off_c, 1, 65, 64
4, 38640, Note_on_c, 1, 53, 40
4, 38760, Note_off_c, 1, 53, 64
4, 38760, Note_on_c, 1, 65, 33
4, 38760, Note_on_c, 1, 60, 20
4, 38760, Note_on_c, 1, 57, 25
4, 38860, Note_off_c, 1, 57, 64
4, 38860, Note_off_c, 1, 60, 64
4, 38860, Note_off_c, 1, 65, 64
4, 38880, Note_on_c, 1, 46, 44
4, 39000, Note_off_c, 1, 46, 64
4, 39000, Note_on_c, 1, 67, 31
4, 39000, Note_on_c, 1, 62, 16
4, 39000, Note_on_c, 1, 58, 24
4, 39100, Note_off_c, 1, 58, 64
4, 39100, Note_off_c, 1, 62, 64
4, 39100, Note_off_c, 1, 67, 64
4, 39120, Note_on_c, 1, 46, 48
4, 39240, Note_off_c, 1, 46, 64
4, 39240, Note_on_c, 1, 67, 35
4, 39240, Note_on_c, 1, 62, 20
4, 39240, Note_on_c, 1, 58, 28
4, 39340, Note_off_c, 1, 58, 64
4, 39340, Note_off_c, 1, 62, 64
4, 39340, Note_off_c, 1, 67, 64
4, 39360, Note_on_c, 1, 48, 50
4, 39480, Note_off_c, 1, 48, 64
4, 39480, Note_on_c, 1, 65, 35
4, 39480, Note_on_c, 1, 60, 20
4, 39480, Note_on_c, 1, 57, 28
4, 39580, Note_off_c, 1, 57, 64
4, 39580, Note_off_c, 1, 60, 64
4, 39580, Note_off_c, 1, 65, 64
4, 39600, Note_on_c, 1, 48, 47
4, 39720, Note_off_c, 1, 48, 64
4, 39720, Note_on_c, 1, 64, 32
4, 39720, Note_on_c, 1, 60, 25
4, 39720, Note_on_c, 1, 55, 17
4, 39820, Note_off_c, 1, 55, 64
4, 39820, Note_off_c, 1, 60, 64
4, 39820, Note_off_c, 1, 64, 64
4, 39840, Note_on_c, 1, 48, 43
4, 39960, Note_off_c, 1, 48, 64
4, 39960, Note_on_c, 1, 64, 28
4, 39960, Note_on_c, 1, 60, 25
4, 39960, Note_on_c, 1, 55, 13
4, 40060, Note_off_c, 1, 55, 64
4, 40060, Note_off_c, 1, 60, 64
4, 40060, Note_off_c, 1, 64, 64
4, 40080, Note_on_c, 1, 46, 45
4, 40200, Note_off_c, 1, 46, 64
4, 40200, Note_on_c, 1, 64, 30
4, 40200, Note_on_c, 1, 60, 20
4, 40200, Note_on_c, 1, 55, 15
4, 40300, Note_off_c, 1, 55, 64
4, 40300, Note_off_c, 1, 60, 64
4, 40300, Note_off_c, 1, 64, 64
4, 40320, Note_on_c, 1, 45, 50
4, 40440, Note_off_c, 1, 45, 64
4, 40440, Note_on_c, 1, 65, 35
4, 40440, Note_on_c, 1, 60, 20
4, 40440, Note_on_c, 1, 57, 28
4, 40540, Note_off_c, 1, 57, 64
4, 40540, Note_off_c, 1, 60, 64
4, 40540, Note_off_c, 1, 65, 64
4, 40560, Note_on_c, 1, 52, 48
4, 40680, Note_off_c, 1, 52, 64
4, 40680, Note_on_c, 1, 67, 33
4, 40680, Note_on_c, 1, 60, 22
4, 40780, Note_off_c, 1, 60, 64
4, 40780, Note_off_c, 1, 67, 64
4, 40800, Note_on_c, 1, 53, 52
4, 40920, Note_off_c, 1, 53, 64
4, 40920, Note_on_c, 1, 69, 37
4, 40920, Note_on_c, 1, 65, 30
4, 40920, Note_on_c, 1, 60, 22
4, 41020, Note_off_c, 1, 60, 64
4, 41020, Note_off_c, 1, 65, 64
4, 41020, Note_off_c, 1, 69, 64
4, 41040, Note_on_c, 1, 46, 55
4, 41160, Note_off_c, 1, 46, 64
4, 41160, Note_on_c, 1, 70, 35
4, 41160, Note_on_c, 1, 67, 30
4, 41160, Note_on_c, 1, 62, 20
4, 41260, Note_off_c, 1, 62, 64
4, 41260, Note_off_c, 1, 67, 64
4, 41260, Note_off_c, 1, 70, 64
4, 41280, Note_on_c, 1, 48, 48
4, 41400, Note_off_c, 1, 48, 64
4, 41400, Note_on_c, 1, 69, 35
4, 41400, Note_on_c, 1, 65, 28
4, 41400, Note_on_c, 1, 60, 20
4, 41500, Note_off_c, 1, 60, 64
4, 41500, Note_off_c, 1, 65, 64
4, 41500, Note_off_c, 1, 69, 64
4, 41520, Note_on_c, 1, 48, 43
4, 41640, Note_off_c, 1, 48, 64
4, 41640, Note_on_c, 1, 69, 30
4, 41640, Note_on_c, 1, 65, 23
4, 41640, Note_on_c, 1, 60, 15
4, 41740, Note_off_c, 1, 60, 64
4, 41740, Note_off_c, 1, 65, 64
4, 41740, Note_off_c, 1, 69, 64
4, 41760, Note_on_c, 1, 48, 45
4, 41880, Note_off_c, 1, 48, 64
4, 41880, Note_on_c, 1, 67, 32
4, 41880, Note_on_c, 1, 64, 25
4, 41880, Note_on_c, 1, 60, 17
4, 41980, Note_off_c, 1, 60, 64
4, 41980, Note_off_c, 1, 64, 64
4, 41980, Note_off_c, 1, 67, 64
4, 42000, Note_on_c, 1, 48, 40
4, 42120, Note_off_c, 1, 48, 64
4, 42120, Note_on_c, 1, 67, 30
4, 42120, Note_on_c, 1, 64, 23
4, 42120, Note_on_c, 1, 60, 15
4, 42180, Note_on_c, 1, 48, 70
4, 42210, Note_on_c, 1, 55, 54
4, 42220, Note_off_c, 1, 60, 64
4, 42220, Note_off_c, 1, 64, 64
4, 42220, Note_off_c, 1, 67, 64
4, 42225, Note_on_c, 1, 58, 57
4, 42240, Note_on_c, 1, 64, 60
4, 42770, Note_off_c, 1, 64, 64
4, 42770, Note_off_c, 1, 58, 64
4, 42770, Note_off_c, 1, 48, 64
4, 42770, Note_off_c, 1, 55, 64
4, 42840, Note_on_c, 1, 69, 50
4, 42960, Note_on_c, 1, 70, 45
4, 42960, Note_on_c, 1, 67, 52
4, 42970, Note_off_c, 1, 69, 64
4, 43080, Note_on_c, 1, 65, 55
4, 43080, Note_on_c, 1, 69, 42
4, 43090, Note_off_c, 1, 67, 64
4, 43090, Note_off_c, 1, 70, 64
4, 43160, Note_on_c, 1, 48, 60
4, 43180, Note_on_c, 1, 55, 44
4, 43190, Note_on_c, 1, 58, 47
4, 43200, Note_on_c, 1, 64, 50
4, 43210, Note_off_c, 1, 69, 64
4, 43210, Note_off_c, 1, 65, 64
4, 43740, Note_off_c, 1, 64, 64
4, 43740, Note_off_c, 1, 48, 64
4, 43740, Note_off_c, 1, 55, 64
4, 43740, Note_off_c, 1, 58, 64
4, 43800, Note_on_c, 1, 65, 30
4, 43800, Note_on_c, 1, 57, 40
4, 43910, Note_off_c, 1, 57, 64
4, 43910, Note_off_c, 1, 65, 64
4, 43920, Note_on_c, 1, 65, 32
4, 43920, Note_on_c, 1, 56, 42
4, 44030, Note_off_c, 1, 56, 64
4, 44030, Note_off_c, 1, 65, 64
4, 44040, Note_on_c, 1, 65, 27
4, 44040, Note_on_c, 1, 57, 40
4, 44150, Note_off_c, 1, 57, 64
4, 44150, Note_off_c, 1, 65, 64
4, 44160, Note_on_c, 1, 46, 45
4, 44280, Note_off_c, 1, 46, 64
4, 44280, Note_on_c, 1, 65, 38
4, 44280, Note_on_c, 1, 62, 30
4, 44280, Note_on_c, 1, 58, 25
4, 44380, Note_off_c, 1, 58, 64
4, 44380, Note_off_c, 1, 62, 64
4, 44380, Note_off_c, 1, 65, 64
4, 44400, Note_on_c, 1, 46, 48
4, 44520, Note_off_c, 1, 46, 64
4, 44520, Note_on_c, 1, 65, 40
4, 44520, Note_on_c, 1, 62, 35
4, 44520, Note_on_c, 1, 58, 22
4, 44620, Note_off_c, 1, 58, 64
4, 44620, Note_off_c, 1, 62, 64
4, 44620, Note_off_c, 1, 65, 64
4, 44640, Note_on_c, 1, 48, 50
4, 44760, Note_off_c, 1, 48, 64
4, 44760, Note_on_c, 1, 65, 42
4, 44760, Note_on_c, 1, 60, 28
4, 44760, Note_on_c, 1, 57, 38
4, 44860, Note_off_c, 1, 57, 64
4, 44860, Note_off_c, 1, 60, 64
4, 44860, Note_off_c, 1, 65, 64
4, 44880, Note_on_c, 1, 48, 38
4, 44880, Note_on_c, 1, 36, 55
4, 45000, Note_off_c, 1, 36, 64
4, 45000, Note_off_c, 1, 48, 64
4, 45000, Note_on_c, 1, 64, 42
4, 45000, Note_on_c, 1, 60, 22
4, 45000, Note_on_c, 1, 58, 28
4, 45100, Note_off_c, 1, 58, 64
4, 45100, Note_off_c, 1, 60, 64
4, 45100, Note_off_c, 1, 64, 64
4, 45120, Note_on_c, 1, 64, 45
4, 45120, Note_on_c, 1, 60, 25
4, 45120, Note_on_c, 1, 58, 33
4, 45120, Note_on_c, 1, 53, 50
4, 45220, Note_off_c, 1, 53, 64
4, 45360, Note_on_c, 1, 41, 40
4, 45440, Note_off_c, 1, 41, 64
4, 45600, Note_on_c, 1, 65, 40
4, 45600, Note_on_c, 1, 57, 28
4, 45600, Note_on_c, 1, 53, 45
4, 45610, Note_off_c, 1, 58, 64
4, 45610, Note_off_c, 1, 64, 64
4, 45650, Note_off_c, 1, 53, 64
4, 45650, Note_off_c, 1, 57, 64
4, 45650, Note_off_c, 1, 65, 64
4, 45650, Note_off_c, 1, 60, 64
4, 45660, Note_on_c, 1, 60, 50
4, 45720, Note_on_c, 1, 59, 52
4, 45730, Note_off_c, 1, 60, 64
4, 45780, Note_on_c, 1, 60, 48
4, 45790, Note_off_c, 1, 59, 64
4, 45840, Note_on_c, 1, 62, 45
4, 45850, Note_off_c, 1, 60, 64
4, 45900, Note_on_c, 1, 60, 52
4, 45910, Note_off_c, 1, 62, 64
4, 45960, Note_on_c, 1, 58, 56
4, 45970, Note_off_c, 1, 60, 64
4, 46020, Note_on_c, 1, 55, 60
4, 46030, Note_off_c, 1, 58, 64
4, 46080, Note_on_c, 1, 53, 40
4, 46080, Note_on_c, 1, 41, 55
4, 46090, Note_off_c, 1, 55, 64
4, 46140, Note_on_c, 1, 60, 28
4, 46140, Note_on_c, 1, 57, 35
4, 46150, Note_off_c, 1, 41, 64
4, 46150, Note_off_c, 1, 53, 64
4, 46170, Note_off_c, 1, 57, 64
4, 46170, Note_off_c, 1, 60, 64
4, 46200, Note_on_c, 1, 60, 30
4, 46200, Note_on_c, 1, 57, 37
4, 46240, Note_off_c, 1, 57, 64
4, 46240, Note_off_c, 1, 60, 64
4, 46260, Note_on_c, 1, 60, 27
4, 46260, Note_on_c, 1, 57, 32
4, 46290, Note_off_c, 1, 57, 64
4, 46290, Note_off_c, 1, 60, 64
4, 46320, Note_on_c, 1, 53, 48
4, 46380, Note_on_c, 1, 60, 25
4, 46380, Note_on_c, 1, 57, 32
4, 46390, Note_off_c, 1, 53, 64
4, 46410, Note_off_c, 1, 57, 64
4, 46410, Note_off_c, 1, 60, 64
4, 46440, Note_on_c, 1, 60, 27
4, 46440, Note_on_c, 1, 57, 34
4, 46480, Note_off_c, 1, 57, 64
4, 46480, Note_off_c, 1, 60, 64
4, 46500, Note_on_c, 1, 60, 24
4, 46500, Note_on_c, 1, 57, 29
4, 46530, Note_off_c, 1, 57, 64
4, 46530, Note_off_c, 1, 60, 64
4, 46560, Note_on_c, 1, 46, 30
4, 46560, Note_on_c, 1, 34, 50
4, 46620, Note_on_c, 1, 62, 28
4, 46620, Note_on_c, 1, 58, 35
4, 46630, Note_off_c, 1, 34, 64
4, 46630, Note_off_c, 1, 46, 64
4, 46650, Note_off_c, 1, 58, 64
4, 46650, Note_off_c, 1, 62, 64
4, 46680, Note_on_c, 1, 62, 30
4, 46680, Note_on_c, 1, 58, 37
4, 46720, Note_off_c, 1, 58, 64
4, 46720, Note_off_c, 1, 62, 64
4, 46740, Note_on_c, 1, 62, 27
4, 46740, Note_on_c, 1, 58, 32
4, 46770, Note_off_c, 1, 58, 64
4, 46770, Note_off_c, 1, 62, 64
4, 46800, Note_on_c, 1, 46, 45
4, 46860, Note_on_c, 1, 62, 25
4, 46860, Note_on_c, 1, 58, 32
4, 46870, Note_off_c, 1, 46, 64
4, 46890, Note_off_c, 1, 58, 64
4, 46890, Note_off_c, 1, 62, 64
4, 46920, Note_on_c, 1, 62, 27
4, 46920, Note_on_c, 1, 58, 34
4, 46960, Note_off_c, 1, 58, 64
4, 46960, Note_off_c, 1, 62, 64
4, 46980, Note_on_c, 1, 62, 32
4, 46980, Note_on_c, 1, 58, 37
4, 47010, Note_off_c, 1, 58, 64
4, 47010, Note_off_c, 1, 62, 64
4, 47040, Note_on_c, 1, 48, 40
4, 47040, Note_on_c, 1, 36, 55
4, 47100, Note_on_c, 1, 60, 28
4, 47100, Note_on_c, 1, 55, 35
4, 47110, Note_off_c, 1, 36, 64
4, 47110, Note_off_c, 1, 48, 64
4, 47130, Note_off_c, 1, 55, 64
4, 47130, Note_off_c, 1, 60, 64
4, 47160, Note_on_c, 1, 60, 30
4, 47160, Note_on_c, 1, 55, 37
4, 47200, Note_off_c, 1, 55, 64
4, 47200, Note_off_c, 1, 60, 64
4, 47220, Note_on_c, 1, 60, 27
4, 47220, Note_on_c, 1, 55, 32
4, 47250, Note_off_c, 1, 55, 64
4, 47250, Note_off_c, 1, 60, 64
4, 47280, Note_on_c, 1, 48, 48
4, 47340, Note_on_c, 1, 60, 25
4, 47340, Note_on_c, 1, 55, 32
4, 47370, Note_off_c, 1, 55, 64
4, 47370, Note_off_c, 1, 60, 64
4, 47400, Note_on_c, 1, 60, 27
4, 47400, Note_on_c, 1, 55, 34
4, 47440, Note_off_c, 1, 55, 64
4, 47440, Note_off_c, 1, 60, 64
4, 47460, Note_on_c, 1, 60, 24
4, 47460, Note_on_c, 1, 55, 29
4, 47490, Note_off_c, 1, 55, 64
4, 47490, Note_off_c, 1, 60, 64
4, 47520, Note_off_c, 1, 48, 64
4, 47520, Note_on_c, 1, 48, 45
4, 47580, Note_on_c, 1, 60, 28
4, 47580, Note_on_c, 1, 55, 20
4, 47580, Note_on_c, 1, 52, 35
4, 47610, Note_off_c, 1, 52, 64
4, 47610, Note_off_c, 1, 55, 64
4, 47610, Note_off_c, 1, 60, 64
4, 47640, Note_on_c, 1, 60, 30
4, 47640, Note_on_c, 1, 55, 18
4, 47640, Note_on_c, 1, 52, 37
4, 47680, Note_off_c, 1, 52, 64
4, 47680, Note_off_c, 1, 55, 64
4, 47680, Note_off_c, 1, 60, 64
4, 47700, Note_on_c, 1, 60, 27
4, 47700, Note_on_c, 1, 55, 20
4, 47700, Note_on_c, 1, 52, 32
4, 47730, Note_off_c, 1, 52, 64
4, 47730, Note_off_c, 1, 55, 64
4, 47730, Note_off_c, 1, 60, 64
4, 47760, Note_off_c, 1, 48, 64
4, 47760, Note_on_c, 1, 46, 50
4, 47820, Note_on_c, 1, 60, 25
4, 47820, Note_on_c, 1, 55, 15
4, 47820, Note_on_c, 1, 52, 32
4, 47850, Note_off_c, 1, 52, 64
4, 47850, Note_off_c, 1, 55, 64
4, 47850, Note_off_c, 1, 60, 64
4, 47880, Note_on_c, 1, 60, 27
4, 47880, Note_on_c, 1, 55, 18
4, 47880, Note_on_c, 1, 52, 34
4, 47920, Note_off_c, 1, 52, 64
4, 47920, Note_off_c, 1, 55, 64
4, 47920, Note_off_c, 1, 60, 64
4, 47940, Note_on_c, 1, 60, 32
4, 47940, Note_on_c, 1, 55, 20
4, 47940, Note_on_c, 1, 52, 37
4, 47970, Note_off_c, 1, 52, 64
4, 47970, Note_off_c, 1, 55, 64
4, 47970, Note_off_c, 1, 60, 64
4, 48000, Note_off_c, 1, 46, 64
4, 48000, Note_on_c, 1, 45, 55
4, 48060, Note_on_c, 1, 60, 28
4, 48060, Note_on_c, 1, 53, 35
4, 48090, Note_off_c, 1, 53, 64
4, 48090, Note_off_c, 1, 60, 64
4, 48120, Note_on_c, 1, 60, 30
4, 48120, Note_on_c, 1, 53, 37
4, 48160, Note_off_c, 1, 53, 64
4, 48160, Note_off_c, 1, 60, 64
4, 48180, Note_on_c, 1, 60, 27
4, 48180, Note_on_c, 1, 53, 32
4, 48210, Note_off_c, 1, 53, 64
4, 48210, Note_off_c, 1, 60, 64
4, 48240, Note_off_c, 1, 45, 64
4, 48240, Note_on_c, 1, 52, 48
4, 48300, Note_on_c, 1, 60, 25
4, 48300, Note_on_c, 1, 58, 32
4, 48330, Note_off_c, 1, 58, 64
4, 48330, Note_off_c, 1, 60, 64
4, 48360, Note_on_c, 1, 60, 27
4, 48360, Note_on_c, 1, 58, 34
4, 48400, Note_off_c, 1, 58, 64
4, 48400, Note_off_c, 1, 60, 64
4, 48420, Note_on_c, 1, 60, 24
4, 48420, Note_on_c, 1, 58, 29
4, 48450, Note_off_c, 1, 58, 64
4, 48450, Note_off_c, 1, 60, 64
4, 48480, Note_off_c, 1, 52, 64
4, 48480, Note_on_c, 1, 53, 50
4, 48540, Note_on_c, 1, 60, 28
4, 48540, Note_on_c, 1, 57, 35
4, 48570, Note_off_c, 1, 57, 64
4, 48570, Note_off_c, 1, 60, 64
4, 48600, Note_on_c, 1, 60, 30
4, 48600, Note_on_c, 1, 57, 37
4, 48640, Note_off_c, 1, 57, 64
4, 48640, Note_off_c, 1, 60, 64
4, 48660, Note_on_c, 1, 60, 27
4, 48660, Note_on_c, 1, 57, 32
4, 48690, Note_off_c, 1, 57, 64
4, 48690, Note_off_c, 1, 60, 64
4, 48720, Note_off_c, 1, 53, 64
4, 48720, Note_on_c, 1, 46, 55
4, 48780, Note_on_c, 1, 62, 30
4, 48780, Note_on_c, 1, 58, 37
4, 48810, Note_off_c, 1, 58, 64
4, 48810, Note_off_c, 1, 62, 64
4, 48840, Note_on_c, 1, 62, 32
4, 48840, Note_on_c, 1, 58, 39
4, 48880, Note_off_c, 1, 58, 64
4, 48880, Note_off_c, 1, 62, 64
4, 48900, Note_on_c, 1, 62, 37
4, 48900, Note_on_c, 1, 58, 42
4, 48930, Note_off_c, 1, 58, 64
4, 48930, Note_off_c, 1, 62, 64
4, 48960, Note_off_c, 1, 46, 64
4, 48960, Note_on_c, 1, 48, 50
4, 49020, Note_on_c, 1, 60, 28
4, 49020, Note_on_c, 1, 57, 35
4, 49050, Note_off_c, 1, 57, 64
4, 49050, Note_off_c, 1, 60, 64
4, 49080, Note_on_c, 1, 60, 30
4, 49080, Note_on_c, 1, 57, 37
4, 49120, Note_off_c, 1, 57, 64
4, 49120, Note_off_c, 1, 60, 64
4, 49140, Note_on_c, 1, 60, 27
4, 49140, Note_on_c, 1, 57, 32
4, 49170, Note_off_c, 1, 57, 64
4, 49170, Note_off_c, 1, 60, 64
4, 49200, Note_off_c, 1, 48, 64
4, 49200, Note_on_c, 1, 48, 48
4, 49260, Note_on_c, 1, 60, 25
4, 49260, Note_on_c, 1, 57, 32
4, 49260, Note_on_c, 1, 53, 28
4, 49290, Note_off_c, 1, 53, 64
4, 49290, Note_off_c, 1, 57, 64
4, 49290, Note_off_c, 1, 60, 64
4, 49320, Note_on_c, 1, 60, 25
4, 49320, Note_on_c, 1, 57, 34
4, 49320, Note_on_c, 1, 53, 23
4, 49360, Note_off_c, 1, 53, 64
4, 49360, Note_off_c, 1, 57, 64
4, 49360, Note_off_c, 1, 60, 64
4, 49380, Note_on_c, 1, 60, 20
4, 49380, Note_on_c, 1, 57, 29
4, 49380, Note_on_c, 1, 53, 25
4, 49410, Note_off_c, 1, 53, 64
4, 49410, Note_off_c, 1, 57, 64
4, 49410, Note_off_c, 1, 60, 64
4, 49440, Note_off_c, 1, 48, 64
4, 49440, Note_on_c, 1, 48, 45
4, 49500, Note_on_c, 1, 60, 28
4, 49500, Note_on_c, 1, 55, 20
4, 49500, Note_on_c, 1, 52, 35
4, 49530, Note_off_c, 1, 52, 64
4, 49530, Note_off_c, 1, 55, 64
4, 49530, Note_off_c, 1, 60, 64
4, 49560, Note_on_c, 1, 60, 30
4, 49560, Note_on_c, 1, 55, 18
4, 49560, Note_on_c, 1, 52, 37
4, 49600, Note_off_c, 1, 52, 64
4, 49600, Note_off_c, 1, 55, 64
4, 49600, Note_off_c, 1, 60, 64
4, 49620, Note_on_c, 1, 60, 27
4, 49620, Note_on_c, 1, 55, 20
4, 49620, Note_on_c, 1, 52, 32
4, 49650, Note_off_c, 1, 52, 64
4, 49650, Note_off_c, 1, 55, 64
4, 49650, Note_off_c, 1, 60, 64
4, 49680, Note_off_c, 1, 48, 64
4, 49680, Note_on_c, 1, 48, 50
4, 49740, Note_on_c, 1, 60, 25
4, 49740, Note_on_c, 1, 55, 15
4, 49740, Note_on_c, 1, 52, 32
4, 49770, Note_off_c, 1, 52, 64
4, 49770, Note_off_c, 1, 55, 64
4, 49770, Note_off_c, 1, 60, 64
4, 49800, Note_on_c, 1, 60, 27
4, 49800, Note_on_c, 1, 55, 18
4, 49800, Note_on_c, 1, 52, 34
4, 49840, Note_off_c, 1, 52, 64
4, 49840, Note_off_c, 1, 55, 64
4, 49840, Note_off_c, 1, 60, 64
4, 49860, Note_on_c, 1, 60, 32
4, 49860, Note_on_c, 1, 55, 20
4, 49860, Note_on_c, 1, 52, 37
4, 49890, Note_off_c, 1, 52, 64
4, 49890, Note_off_c, 1, 55, 64
4, 49890, Note_off_c, 1, 60, 64
4, 49920, Note_off_c, 1, 48, 64
4, 49980, Note_on_c, 1, 48, 65
4, 49980, Note_on_c, 1, 36, 80
4, 50030, Note_off_c, 1, 36, 64
4, 50030, Note_off_c, 1, 48, 64
4, 50040, Note_on_c, 1, 52, 62
4, 50040, Note_on_c, 1, 40, 75
4, 50090, Note_off_c, 1, 40, 64
4, 50090, Note_off_c, 1, 52, 64
4, 50100, Note_on_c, 1, 48, 64
4, 50100, Note_on_c, 1, 36, 78
4, 50150, Note_off_c, 1, 36, 64
4, 50150, Note_off_c, 1, 48, 64
4, 50160, Note_on_c, 1, 52, 60
4, 50160, Note_on_c, 1, 40, 72
4, 50210, Note_off_c, 1, 40, 64
4, 50210, Note_off_c, 1, 52, 64
4, 50220, Note_on_c, 1, 48, 62
4, 50220, Note_on_c, 1, 36, 75
4, 50270, Note_off_c, 1, 36, 64
4, 50270, Note_off_c, 1, 48, 64
4, 50280, Note_on_c, 1, 52, 58
4, 50280, Note_on_c, 1, 40, 68
4, 50330, Note_off_c, 1, 40, 64
4, 50330, Note_off_c, 1, 52, 64
4, 50340, Note_on_c, 1, 55, 55
4, 50340, Note_on_c, 1, 43, 64
4, 50390, Note_off_c, 1, 43, 64
4, 50390, Note_off_c, 1, 55, 64
4, 50400, Note_on_c, 1, 58, 50
4, 50400, Note_on_c, 1, 46, 60
4, 50450, Note_off_c, 1, 46, 64
4, 50450, Note_off_c, 1, 58, 64
4, 50520, Note_on_c, 1, 60, 40
4, 50520, Note_on_c, 1, 57, 70
4, 50640, Note_on_c, 1, 58, 60
4, 50640, Note_on_c, 1, 55, 72
4, 50650, Note_off_c, 1, 57, 64
4, 50760, Note_off_c, 1, 60, 64
4, 50760, Note_on_c, 1, 53, 75
4, 50760, Note_on_c, 1, 57, 55
4, 50760, Note_on_c, 1, 60, 45
4, 50770, Note_off_c, 1, 55, 64
4, 50770, Note_off_c, 1, 58, 64
4, 50890, Note_off_c, 1, 60, 64
4, 50890, Note_off_c, 1, 57, 64
4, 50890, Note_off_c, 1, 53, 64
4, 50940, Note_on_c, 1, 48, 60
4, 50940, Note_on_c, 1, 36, 75
4, 50990, Note_off_c, 1, 36, 64
4, 50990, Note_off_c, 1, 48, 64
4, 51000, Note_on_c, 1, 52, 57
4, 51000, Note_on_c, 1, 40, 70
4, 51050, Note_off_c, 1, 40, 64
4, 51050, Note_off_c, 1, 52, 64
4, 51060, Note_on_c, 1, 48, 59
4, 51060, Note_on_c, 1, 36, 73
4, 51110, Note_off_c, 1, 36, 64
4, 51110, Note_off_c, 1, 48, 64
4, 51120, Note_on_c, 1, 52, 55
4, 51120, Note_on_c, 1, 40, 67
4, 51170, Note_off_c, 1, 40, 64
4, 51170, Note_off_c, 1, 52, 64
4, 51180, Note_on_c, 1, 48, 57
4, 51180, Note_on_c, 1, 36, 70
4, 51230, Note_off_c, 1, 36, 64
4, 51230, Note_off_c, 1, 48, 64
4, 51240, Note_on_c, 1, 52, 53
4, 51240, Note_on_c, 1, 40, 63
4, 51290, Note_off_c, 1, 40, 64
4, 51290, Note_off_c, 1, 52, 64
4, 51300, Note_on_c, 1, 55, 50
4, 51300, Note_on_c, 1, 43, 59
4, 51350, Note_off_c, 1, 43, 64
4, 51350, Note_off_c, 1, 55, 64
4, 51360, Note_on_c, 1, 58, 45
4, 51360, Note_on_c, 1, 46, 55
4, 51410, Note_off_c, 1, 46, 64
4, 51410, Note_off_c, 1, 58, 64
4, 51480, Note_on_c, 1, 60, 45
4, 51480, Note_on_c, 1, 57, 65
4, 51600, Note_on_c, 1, 59, 63
4, 51600, Note_on_c, 1, 56, 70
4, 51610, Note_off_c, 1, 57, 64
4, 51610, Note_off_c, 1, 60, 64
4, 51720, Note_on_c, 1, 57, 64
4, 51720, Note_on_c, 1, 60, 51
4, 51730, Note_off_c, 1, 56, 64
4, 51730, Note_off_c, 1, 59, 64
4, 51840, Note_on_c, 1, 55, 52
4, 51840, Note_on_c, 1, 53, 42
4, 51840, Note_on_c, 1, 46, 62
4, 51850, Note_off_c, 1, 60, 64
4, 51850, Note_off_c, 1, 57, 64
4, 52080, Note_on_c, 1, 47, 57
4, 52090, Note_off_c, 1, 46, 64
4, 52200, Note_off_c, 1, 53, 64
4, 52200, Note_off_c, 1, 55, 64
4, 52200, Note_on_c, 1, 55, 30
4, 52200, Note_on_c, 1, 53, 42
4, 52200, Note_on_c, 1, 50, 22
4, 52320, Note_off_c, 1, 50, 64
4, 52320, Note_off_c, 1, 53, 64
4, 52320, Note_off_c, 1, 55, 64
4, 52320, Note_on_c, 1, 57, 37
4, 52320, Note_on_c, 1, 53, 29
4, 52320, Note_on_c, 1, 48, 55
4, 52330, Note_off_c, 1, 47, 64
4, 52560, Note_off_c, 1, 48, 64
4, 52560, Note_off_c, 1, 53, 64
4, 52560, Note_off_c, 1, 57, 64
4, 52560, Note_on_c, 1, 48, 49
4, 52560, Note_on_c, 1, 52, 34
4, 52560, Note_on_c, 1, 58, 40
4, 52800, Note_off_c, 1, 58, 64
4, 52800, Note_off_c, 1, 52, 64
4, 52800, Note_off_c, 1, 48, 64
4, 52800, Note_on_c, 1, 57, 38
4, 52800, Note_on_c, 1, 53, 45
4, 53000, Note_off_c, 1, 53, 64
4, 53000, Note_off_c, 1, 57, 64
4, 53040, Note_on_c, 1, 57, 80
4, 53040, Note_on_c, 1, 45, 100
4, 53250, Note_off_c, 1, 45, 64
4, 53250, Note_off_c, 1, 57, 64
4, 53250, Note_on_c, 1, 57, 78
4, 53250, Note_on_c, 1, 45, 95
4, 53280, Note_on_c, 1, 50, 75
4, 53280, Note_on_c, 1, 38, 105
4, 53290, Note_off_c, 1, 45, 64
4, 53290, Note_off_c, 1, 57, 64
4, 53480, Note_off_c, 1, 38, 64
4, 53480, Note_off_c, 1, 50, 64
4, 53520, Note_on_c, 1, 62, 80
4, 53520, Note_on_c, 1, 50, 100
4, 53730, Note_off_c, 1, 50, 64
4, 53730, Note_off_c, 1, 62, 64
4, 53730, Note_on_c, 1, 50, 95
4, 53730, Note_on_c, 1, 62, 78
4, 53760, Note_on_c, 1, 55, 75
4, 53760, Note_on_c, 1, 43, 105
4, 53770, Note_off_c, 1, 62, 64
4, 53770, Note_off_c, 1, 50, 64
4, 53960, Note_off_c, 1, 43, 64
4, 53960, Note_off_c, 1, 55, 64
4, 54000, Note_on_c, 1, 58, 80
4, 54000, Note_on_c, 1, 46, 100
4, 54210, Note_off_c, 1, 46, 64
4, 54210, Note_off_c, 1, 58, 64
4, 54210, Note_on_c, 1, 58, 78
4, 54210, Note_on_c, 1, 46, 95
4, 54240, Note_on_c, 1, 48, 75
4, 54240, Note_on_c, 1, 36, 105
4, 54250, Note_off_c, 1, 46, 64
4, 54250, Note_off_c, 1, 58, 64
4, 54440, Note_off_c, 1, 36, 64
4, 54440, Note_off_c, 1, 48, 64
4, 54480, Note_on_c, 1, 49, 68
4, 54480, Note_on_c, 1, 37, 95
4, 54660, Note_off_c, 1, 37, 64
4, 54660, Note_off_c, 1, 49, 64
4, 54720, Note_on_c, 1, 46, 55
4, 54720, Note_on_c, 1, 34, 70
4, 54960, Note_off_c, 1, 46, 64
4, 54960, Note_on_c, 1, 55, 50
4, 54960, Note_on_c, 1, 53, 42
4, 54960, Note_on_c, 1, 50, 25
4, 54960, Note_on_c, 1, 46, 38
4, 54970, Note_off_c, 1, 34, 64
4, 55200, Note_off_c, 1, 46, 64
4, 55200, Note_off_c, 1, 50, 64
4, 55200, Note_off_c, 1, 53, 64
4, 55200, Note_off_c, 1, 55, 64
4, 55200, Note_on_c, 1, 56, 58
4, 55200, Note_on_c, 1, 53, 35
4, 55200, Note_on_c, 1, 48, 60
4, 55320, Note_on_c, 1, 60, 53
4, 55330, Note_off_c, 1, 56, 64
4, 55440, Note_off_c, 1, 48, 64
4, 55440, Note_on_c, 1, 48, 52
4, 55440, Note_on_c, 1, 58, 55
4, 55440, Note_on_c, 1, 52, 43
4, 55450, Note_off_c, 1, 60, 64
4, 55450, Note_off_c, 1, 53, 64
4, 55560, Note_on_c, 1, 55, 46
4, 55570, Note_off_c, 1, 52, 64
4, 55680, Note_off_c, 1, 48, 64
4, 55680, Note_on_c, 1, 53, 65
4, 55680, Note_on_c, 1, 41, 90
4, 55690, Note_off_c, 1, 58, 64
4, 55690, Note_off_c, 1, 55, 64
4, 55740, Note_off_c, 1, 41, 64
4, 55740, Note_off_c, 1, 53, 64
4, 55740, Note_on_c, 1, 65, 43
4, 55740, Note_on_c, 1, 60, 35
4, 55740, Note_on_c, 1, 56, 50
4, 55770, Note_off_c, 1, 56, 64
4, 55770, Note_off_c, 1, 60, 64
4, 55800, Note_off_c, 1, 65, 64
4, 55800, Note_on_c, 1, 65, 37
4, 55800, Note_on_c, 1, 60, 28
4, 55800, Note_on_c, 1, 56, 44
4, 55840, Note_off_c, 1, 56, 64
4, 55840, Note_off_c, 1, 60, 64
4, 55840, Note_off_c, 1, 65, 64
4, 55860, Note_on_c, 1, 65, 32
4, 55860, Note_on_c, 1, 60, 25
4, 55860, Note_on_c, 1, 56, 37
4, 55890, Note_off_c, 1, 56, 64
4, 55890, Note_off_c, 1, 60, 64
4, 55890, Note_off_c, 1, 65, 64
4, 55920, Note_on_c, 1, 53, 48
4, 55980, Note_on_c, 1, 65, 25
4, 55980, Note_on_c, 1, 60, 32
4, 55980, Note_on_c, 1, 56, 28
4, 56010, Note_off_c, 1, 56, 64
4, 56010, Note_off_c, 1, 60, 64
4, 56010, Note_off_c, 1, 65, 64
4, 56040, Note_off_c, 1, 53, 64
4, 56040, Note_on_c, 1, 65, 25
4, 56040, Note_on_c, 1, 60, 34
4, 56040, Note_on_c, 1, 56, 23
4, 56080, Note_off_c, 1, 56, 64
4, 56080, Note_off_c, 1, 60, 64
4, 56080, Note_off_c, 1, 65, 64
4, 56100, Note_on_c, 1, 65, 20
4, 56100, Note_on_c, 1, 60, 29
4, 56100, Note_on_c, 1, 56, 25
4, 56130, Note_off_c, 1, 56, 64
4, 56130, Note_off_c, 1, 60, 64
4, 56130, Note_off_c, 1, 65, 64
4, 56160, Note_on_c, 1, 53, 45
4, 56220, Note_on_c, 1, 65, 28
4, 56220, Note_on_c, 1, 60, 20
4, 56220, Note_on_c, 1, 56, 35
4, 56250, Note_off_c, 1, 56, 64
4, 56250, Note_off_c, 1, 60, 64
4, 56250, Note_off_c, 1, 65, 64
4, 56280, Note_off_c, 1, 53, 64
4, 56280, Note_on_c, 1, 65, 30
4, 56280, Note_on_c, 1, 60, 18
4, 56280, Note_on_c, 1, 56, 37
4, 56320, Note_off_c, 1, 56, 64
4, 56320, Note_off_c, 1, 60, 64
4, 56320, Note_off_c, 1, 65, 64
4, 56340, Note_on_c, 1, 65, 27
4, 56340, Note_on_c, 1, 60, 20
4, 56340, Note_on_c, 1, 56, 32
4, 56370, Note_off_c, 1, 56, 64
4, 56370, Note_off_c, 1, 60, 64
4, 56370, Note_off_c, 1, 65, 64
4, 56400, Note_on_c, 1, 53, 50
4, 56460, Note_on_c, 1, 65, 25
4, 56460, Note_on_c, 1, 60, 15
4, 56460, Note_on_c, 1, 56, 32
4, 56490, Note_off_c, 1, 56, 64
4, 56490, Note_off_c, 1, 60, 64
4, 56490, Note_off_c, 1, 65, 64
4, 56520, Note_off_c, 1, 53, 64
4, 56520, Note_on_c, 1, 65, 27
4, 56520, Note_on_c, 1, 60, 18
4, 56520, Note_on_c, 1, 56, 34
4, 56560, Note_off_c, 1, 56, 64
4, 56560, Note_off_c, 1, 60, 64
4, 56560, Note_off_c, 1, 65, 64
4, 56580, Note_on_c, 1, 60, 32
4, 56580, Note_on_c, 1, 56, 37
4, 56610, Note_off_c, 1, 56, 64
4, 56610, Note_off_c, 1, 60, 64
4, 56640, Note_on_c, 1, 41, 55
4, 56700, Note_on_c, 1, 61, 28
4, 56700, Note_on_c, 1, 58, 20
4, 56700, Note_on_c, 1, 55, 35
4, 56730, Note_off_c, 1, 55, 64
4, 56730, Note_off_c, 1, 58, 64
4, 56730, Note_off_c, 1, 61, 64
4, 56760, Note_off_c, 1, 41, 64
4, 56760, Note_on_c, 1, 61, 32
4, 56760, Note_on_c, 1, 58, 23
4, 56760, Note_on_c, 1, 55, 39
4, 56800, Note_off_c, 1, 55, 64
4, 56800, Note_off_c, 1, 58, 64
4, 56800, Note_off_c, 1, 61, 64
4, 56820, Note_on_c, 1, 61, 30
4, 56820, Note_on_c, 1, 58, 23
4, 56820, Note_on_c, 1, 55, 35
4, 56850, Note_off_c, 1, 55, 64
4, 56850, Note_off_c, 1, 58, 64
4, 56850, Note_off_c, 1, 61, 64
4, 56880, Note_on_c, 1, 53, 48
4, 56940, Note_on_c, 1, 64, 25
4, 56940, Note_on_c, 1, 61, 18
4, 56940, Note_on_c, 1, 58, 22
4, 56940, Note_on_c, 1, 55, 32
4, 56970, Note_off_c, 1, 55, 64
4, 56970, Note_off_c, 1, 58, 64
4, 56970, Note_off_c, 1, 61, 64
4, 56970, Note_off_c, 1, 64, 64
4, 57000, Note_off_c, 1, 53, 64
4, 57000, Note_on_c, 1, 64, 30
4, 57000, Note_on_c, 1, 61, 25
4, 57000, Note_on_c, 1, 58, 20
4, 57000, Note_on_c, 1, 55, 34
4, 57040, Note_off_c, 1, 55, 64
4, 57040, Note_off_c, 1, 58, 64
4, 57040, Note_off_c, 1, 61, 64
4, 57040, Note_off_c, 1, 64, 64
4, 57060, Note_on_c, 1, 64, 25
4, 57060, Note_on_c, 1, 61, 20
4, 57060, Note_on_c, 1, 58, 15
4, 57060, Note_on_c, 1, 55, 29
4, 57090, Note_off_c, 1, 55, 64
4, 57090, Note_off_c, 1, 58, 64
4, 57090, Note_off_c, 1, 61, 64
4, 57090, Note_off_c, 1, 64, 64
4, 57120, Note_on_c, 1, 53, 55
4, 57180, Note_on_c, 1, 64, 38
4, 57180, Note_on_c, 1, 61, 30
4, 57180, Note_on_c, 1, 58, 25
4, 57180, Note_on_c, 1, 55, 45
4, 57210, Note_off_c, 1, 55, 64
4, 57210, Note_off_c, 1, 58, 64
4, 57210, Note_off_c, 1, 61, 64
4, 57210, Note_off_c, 1, 64, 64
4, 57240, Note_off_c, 1, 53, 64
4, 57240, Note_on_c, 1, 64, 40
4, 57240, Note_on_c, 1, 61, 32
4, 57240, Note_on_c, 1, 58, 28
4, 57240, Note_on_c, 1, 55, 47
4, 57280, Note_off_c, 1, 55, 64
4, 57280, Note_off_c, 1, 58, 64
4, 57280, Note_off_c, 1, 61, 64
4, 57280, Note_off_c, 1, 64, 64
4, 57300, Note_on_c, 1, 64, 37
4, 57300, Note_on_c, 1, 61, 32
4, 57300, Note_on_c, 1, 58, 30
4, 57300, Note_on_c, 1, 55, 42
4, 57330, Note_off_c, 1, 55, 64
4, 57330, Note_off_c, 1, 58, 64
4, 57330, Note_off_c, 1, 61, 64
4, 57330, Note_off_c, 1, 64, 64
4, 57360, Note_on_c, 1, 53, 60
4, 57420, Note_on_c, 1, 64, 35
4, 57420, Note_on_c, 1, 61, 28
4, 57420, Note_on_c, 1, 58, 25
4, 57420, Note_on_c, 1, 55, 42
4, 57450, Note_off_c, 1, 55, 64
4, 57450, Note_off_c, 1, 58, 64
4, 57450, Note_off_c, 1, 61, 64
4, 57450, Note_off_c, 1, 64, 64
4, 57480, Note_off_c, 1, 53, 64
4, 57480, Note_on_c, 1, 64, 37
4, 57480, Note_on_c, 1, 61, 30
4, 57480, Note_on_c, 1, 58, 28
4, 57480, Note_on_c, 1, 55, 44
4, 57520, Note_off_c, 1, 55, 64
4, 57520, Note_off_c, 1, 58, 64
4, 57520, Note_off_c, 1, 61, 64
4, 57520, Note_off_c, 1, 64, 64
4, 57540, Note_on_c, 1, 61, 42
4, 57540, Note_on_c, 1, 58, 32
4, 57540, Note_on_c, 1, 55, 47
4, 57570, Note_off_c, 1, 55, 64
4, 57570, Note_off_c, 1, 58, 64
4, 57570, Note_off_c, 1, 61, 64
4, 57600, Note_on_c, 1, 53, 35
4, 57600, Note_on_c, 1, 41, 60
4, 57660, Note_off_c, 1, 41, 64
4, 57660, Note_off_c, 1, 53, 64
4, 57660, Note_on_c, 1, 65, 33
4, 57660, Note_on_c, 1, 60, 25
4, 57660, Note_on_c, 1, 56, 40
4, 57690, Note_off_c, 1, 56, 64
4, 57690, Note_off_c, 1, 60, 64
4, 57690, Note_off_c, 1, 65, 64
4, 57720, Note_on_c, 1, 65, 37
4, 57720, Note_on_c, 1, 60, 28
4, 57720, Note_on_c, 1, 56, 44
4, 57760, Note_off_c, 1, 56, 64
4, 57760, Note_off_c, 1, 60, 64
4, 57760, Note_off_c, 1, 65, 64
4, 57780, Note_on_c, 1, 65, 32
4, 57780, Note_on_c, 1, 60, 25
4, 57780, Note_on_c, 1, 56, 37
4, 57810, Note_off_c, 1, 56, 64
4, 57810, Note_off_c, 1, 60, 64
4, 57810, Note_off_c, 1, 65, 64
4, 57840, Note_on_c, 1, 53, 58
4, 57900, Note_on_c, 1, 60, 35
4, 57900, Note_on_c, 1, 56, 38
4, 57930, Note_off_c, 1, 56, 64
4, 57930, Note_off_c, 1, 60, 64
4, 57960, Note_off_c, 1, 53, 64
4, 57960, Note_on_c, 1, 60, 35
4, 57960, Note_on_c, 1, 56, 33
4, 58000, Note_off_c, 1, 56, 64
4, 58000, Note_off_c, 1, 60, 64
4, 58020, Note_on_c, 1, 60, 30
4, 58020, Note_on_c, 1, 56, 35
4, 58050, Note_off_c, 1, 56, 64
4, 58050, Note_off_c, 1, 60, 64
4, 58080, Note_on_c, 1, 53, 65
4, 58140, Note_on_c, 1, 65, 48
4, 58140, Note_on_c, 1, 60, 40
4, 58140, Note_on_c, 1, 56, 55
4, 58170, Note_off_c, 1, 56, 64
4, 58170, Note_off_c, 1, 60, 64
4, 58170, Note_off_c, 1, 65, 64
4, 58200, Note_off_c, 1, 53, 64
4, 58200, Note_on_c, 1, 65, 50
4, 58200, Note_on_c, 1, 60, 38
4, 58200, Note_on_c, 1, 56, 57
4, 58240, Note_off_c, 1, 56, 64
4, 58240, Note_off_c, 1, 60, 64
4, 58240, Note_off_c, 1, 65, 64
4, 58260, Note_on_c, 1, 65, 47
4, 58260, Note_on_c, 1, 60, 40
4, 58260, Note_on_c, 1, 56, 52
4, 58290, Note_off_c, 1, 56, 64
4, 58290, Note_off_c, 1, 60, 64
4, 58290, Note_off_c, 1, 65, 64
4, 58320, Note_on_c, 1, 53, 70
4, 58380, Note_on_c, 1, 65, 45
4, 58380, Note_on_c, 1, 60, 35
4, 58380, Note_on_c, 1, 56, 52
4, 58410, Note_off_c, 1, 56, 64
4, 58410, Note_off_c, 1, 60, 64
4, 58410, Note_off_c, 1, 65, 64
4, 58440, Note_off_c, 1, 53, 64
4, 58440, Note_on_c, 1, 65, 47
4, 58440, Note_on_c, 1, 60, 38
4, 58440, Note_on_c, 1, 56, 54
4, 58480, Note_off_c, 1, 56, 64
4, 58480, Note_off_c, 1, 60, 64
4, 58480, Note_off_c, 1, 65, 64
4, 58500, Note_on_c, 1, 65, 52
4, 58500, Note_on_c, 1, 60, 40
4, 58500, Note_on_c, 1, 56, 57
4, 58530, Note_off_c, 1, 56, 64
4, 58530, Note_off_c, 1, 60, 64
4, 58530, Note_off_c, 1, 65, 64
4, 58560, Note_on_c, 1, 51, 45
4, 58560, Note_on_c, 1, 39, 70
4, 58620, Note_on_c, 1, 56, 50
4, 58630, Note_off_c, 1, 39, 64
4, 58630, Note_off_c, 1, 51, 64
4, 58680, Note_on_c, 1, 60, 52
4, 58690, Note_off_c, 1, 56, 64
4, 58740, Note_on_c, 1, 66, 40
4, 58750, Note_off_c, 1, 60, 64
4, 58800, Note_off_c, 1, 66, 64
4, 58800, Note_on_c, 1, 51, 60
4, 58860, Note_on_c, 1, 56, 48
4, 58870, Note_off_c, 1, 51, 64
4, 58920, Note_on_c, 1, 60, 50
4, 58930, Note_off_c, 1, 56, 64
4, 58980, Note_on_c, 1, 66, 45
4, 58990, Note_off_c, 1, 60, 64
4, 59040, Note_off_c, 1, 66, 64
4, 59040, Note_on_c, 1, 44, 40
4, 59040, Note_on_c, 1, 32, 65
4, 59100, Note_on_c, 1, 51, 50
4, 59110, Note_off_c, 1, 32, 64
4, 59110, Note_off_c, 1, 44, 64
4, 59160, Note_on_c, 1, 54, 52
4, 59170, Note_off_c, 1, 51, 64
4, 59220, Note_on_c, 1, 60, 48
4, 59230, Note_off_c, 1, 54, 64
4, 59280, Note_off_c, 1, 60, 64
4, 59280, Note_on_c, 1, 44, 60
4, 59340, Note_on_c, 1, 51, 48
4, 59350, Note_off_c, 1, 44, 64
4, 59400, Note_on_c, 1, 54, 50
4, 59410, Note_off_c, 1, 51, 64
4, 59460, Note_on_c, 1, 60, 45
4, 59470, Note_off_c, 1, 54, 64
4, 59520, Note_off_c, 1, 60, 64
4, 59520, Note_on_c, 1, 49, 42
4, 59520, Note_on_c, 1, 37, 60
4, 59580, Note_on_c, 1, 56, 50
4, 59590, Note_off_c, 1, 37, 64
4, 59590, Note_off_c, 1, 49, 64
4, 59640, Note_on_c, 1, 61, 52
4, 59650, Note_off_c, 1, 56, 64
4, 59700, Note_on_c, 1, 65, 40
4, 59710, Note_off_c, 1, 61, 64
4, 59760, Note_off_c, 1, 65, 64
4, 59760, Note_on_c, 1, 49, 60
4, 59820, Note_on_c, 1, 56, 48
4, 59830, Note_off_c, 1, 49, 64
4, 59880, Note_on_c, 1, 61, 50
4, 59890, Note_off_c, 1, 56, 64
4, 59940, Note_on_c, 1, 65, 45
4, 59950, Note_off_c, 1, 61, 64
4, 60000, Note_off_c, 1, 65, 64
4, 60000, Note_on_c, 1, 53, 40
4, 60000, Note_on_c, 1, 41, 65
4, 60060, Note_on_c, 1, 56, 50
4, 60070, Note_off_c, 1, 41, 64
4, 60070, Note_off_c, 1, 53, 64
4, 60120, Note_on_c, 1, 61, 52
4, 60130, Note_off_c, 1, 56, 64
4, 60180, Note_on_c, 1, 65, 48
4, 60190, Note_off_c, 1, 61, 64
4, 60240, Note_off_c, 1, 65, 64
4, 60240, Note_on_c, 1, 61, 45
4, 60300, Note_on_c, 1, 56, 48
4, 60310, Note_off_c, 1, 61, 64
4, 60360, Note_on_c, 1, 53, 50
4, 60370, Note_off_c, 1, 56, 64
4, 60420, Note_on_c, 1, 49, 45
4, 60430, Note_off_c, 1, 53, 64
4, 60480, Note_off_c, 1, 49, 64
4, 60480, Note_on_c, 1, 42, 70
4, 60540, Note_on_c, 1, 49, 50
4, 60550, Note_off_c, 1, 42, 64
4, 60600, Note_on_c, 1, 51, 52
4, 60610, Note_off_c, 1, 49, 64
4, 60660, Note_on_c, 1, 58, 40
4, 60670, Note_off_c, 1, 51, 64
4, 60720, Note_off_c, 1, 58, 64
4, 60720, Note_on_c, 1, 42, 60
4, 60780, Note_on_c, 1, 49, 48
4, 60790, Note_off_c, 1, 42, 64
4, 60840, Note_on_c, 1, 51, 50
4, 60850, Note_off_c, 1, 49, 64
4, 60900, Note_on_c, 1, 58, 45
4, 60910, Note_off_c, 1, 51, 64
4, 60960, Note_off_c, 1, 58, 64
4, 60960, Note_on_c, 1, 44, 65
4, 61020, Note_on_c, 1, 51, 48
4, 61030, Note_off_c, 1, 44, 64
4, 61080, Note_on_c, 1, 54, 50
4, 61090, Note_off_c, 1, 51, 64
4, 61140, Note_on_c, 1, 60, 40
4, 61150, Note_off_c, 1, 54, 64
4, 61200, Note_off_c, 1, 60, 64
4, 61200, Note_on_c, 1, 44, 55
4, 61260, Note_on_c, 1, 51, 43
4, 61270, Note_off_c, 1, 44, 64
4, 61320, Note_on_c, 1, 54, 38
4, 61330, Note_off_c, 1, 51, 64
4, 61380, Note_on_c, 1, 60, 30
4, 61390, Note_off_c, 1, 54, 64
4, 61440, Note_off_c, 1, 60, 64
4, 61440, Note_on_c, 1, 49, 35
4, 61440, Note_on_c, 1, 37, 50
4, 61560, Note_off_c, 1, 37, 64
4, 61560, Note_off_c, 1, 49, 64
4, 61560, Note_on_c, 1, 56, 43
4, 61560, Note_on_c, 1, 53, 35
4, 61660, Note_off_c, 1, 53, 64
4, 61660, Note_off_c, 1, 56, 64
4, 61680, Note_on_c, 1, 49, 45
4, 61800, Note_off_c, 1, 49, 64
4, 61800, Note_on_c, 1, 56, 38
4, 61800, Note_on_c, 1, 53, 30
4, 61900, Note_off_c, 1, 53, 64
4, 61900, Note_off_c, 1, 56, 64
4, 61920, Note_on_c, 1, 42, 49
4, 62040, Note_off_c, 1, 42, 64
4, 62040, Note_on_c, 1, 58, 36
4, 62040, Note_on_c, 1, 54, 29
4, 62140, Note_off_c, 1, 54, 64
4, 62140, Note_off_c, 1, 58, 64
4, 62160, Note_on_c, 1, 42, 53
4, 62280, Note_off_c, 1, 42, 64
4, 62280, Note_on_c, 1, 58, 40
4, 62280, Note_on_c, 1, 54, 33
4, 62380, Note_off_c, 1, 54, 64
4, 62380, Note_off_c, 1, 58, 64
4, 62400, Note_on_c, 1, 44, 55
4, 62520, Note_off_c, 1, 44, 64
4, 62520, Note_on_c, 1, 56, 40
4, 62520, Note_on_c, 1, 53, 33
4, 62620, Note_off_c, 1, 53, 64
4, 62620, Note_off_c, 1, 56, 64
4, 62640, Note_on_c, 1, 44, 52
4, 62760, Note_off_c, 1, 44, 64
4, 62760, Note_on_c, 1, 56, 37
4, 62760, Note_on_c, 1, 51, 22
4, 62860, Note_off_c, 1, 51, 64
4, 62860, Note_off_c, 1, 56, 64
4, 62880, Note_on_c, 1, 44, 48
4, 63000, Note_off_c, 1, 44, 64
4, 63000, Note_on_c, 1, 56, 40
4, 63000, Note_on_c, 1, 51, 18
4, 63000, Note_on_c, 1, 48, 25
4, 63100, Note_off_c, 1, 48, 64
4, 63100, Note_off_c, 1, 51, 64
4, 63100, Note_off_c, 1, 56, 64
4, 63120, Note_on_c, 1, 47, 60
4, 63240, Note_on_c, 1, 57, 40
4, 63240, Note_on_c, 1, 51, 28
4, 63340, Note_off_c, 1, 51, 64
4, 63340, Note_off_c, 1, 57, 64
4, 63360, Note_off_c, 1, 47, 64
4, 63360, Note_on_c, 1, 46, 53
4, 63480, Note_on_c, 1, 57, 38
4, 63480, Note_on_c, 1, 54, 20
4, 63480, Note_on_c, 1, 51, 26
4, 63580, Note_off_c, 1, 51, 64
4, 63580, Note_off_c, 1, 54, 64
4, 63580, Note_off_c, 1, 57, 64
4, 63600, Note_off_c, 1, 46, 64
4, 63600, Note_on_c, 1, 46, 50
4, 63720, Note_on_c, 1, 58, 35
4, 63720, Note_on_c, 1, 53, 17
4, 63720, Note_on_c, 1, 50, 23
4, 63820, Note_off_c, 1, 50, 64
4, 63820, Note_off_c, 1, 53, 64
4, 63820, Note_off_c, 1, 58, 64
4, 63840, Note_off_c, 1, 46, 64
4, 63840, Note_on_c, 1, 46, 55
4, 64080, Note_off_c, 1, 46, 64
4, 64080, Note_on_c, 1, 49, 70
4, 64080, Note_on_c, 1, 58, 58
4, 64200, Note_on_c, 1, 53, 30
4, 64200, Note_on_c, 1, 59, 52
4, 64210, Note_off_c, 1, 58, 64
4, 64320, Note_off_c, 1, 49, 64
4, 64320, Note_on_c, 1, 48, 63
4, 64330, Note_off_c, 1, 59, 64
4, 64330, Note_off_c, 1, 53, 64
4, 64440, Note_on_c, 1, 59, 48
4, 64440, Note_on_c, 1, 56, 30
4, 64440, Note_on_c, 1, 53, 36
4, 64540, Note_off_c, 1, 53, 64
4, 64540, Note_off_c, 1, 56, 64
4, 64540, Note_off_c, 1, 59, 64
4, 64560, Note_off_c, 1, 48, 64
4, 64560, Note_on_c, 1, 48, 60
4, 64680, Note_on_c, 1, 60, 45
4, 64680, Note_on_c, 1, 55, 27
4, 64680, Note_on_c, 1, 52, 33
4, 64780, Note_off_c, 1, 52, 64
4, 64780, Note_off_c, 1, 55, 64
4, 64780, Note_off_c, 1, 60, 64
4, 64800, Note_off_c, 1, 48, 64
4, 64800, Note_on_c, 1, 48, 65
4, 65040, Note_off_c, 1, 48, 64
4, 65040, Note_on_c, 1, 46, 80
4, 65040, Note_on_c, 1, 58, 68
4, 65340, Note_on_c, 1, 56, 66
4, 65340, Note_on_c, 1, 44, 78
4, 65350, Note_off_c, 1, 58, 64
4, 65350, Note_off_c, 1, 46, 64
4, 65400, Note_on_c, 1, 60, 63
4, 65400, Note_on_c, 1, 48, 75
4, 65410, Note_off_c, 1, 44, 64
4, 65410, Note_off_c, 1, 56, 64
4, 65460, Note_on_c, 1, 56, 68
4, 65460, Note_on_c, 1, 44, 80
4, 65470, Note_off_c, 1, 48, 64
4, 65470, Note_off_c, 1, 60, 64
4, 65520, Note_on_c, 1, 55, 72
4, 65520, Note_on_c, 1, 43, 84
4, 65530, Note_off_c, 1, 44, 64
4, 65530, Note_off_c, 1, 56, 64
4, 65580, Note_on_c, 1, 53, 76
4, 65580, Note_on_c, 1, 41, 88
4, 65590, Note_off_c, 1, 43, 64
4, 65590, Note_off_c, 1, 55, 64
4, 65640, Note_on_c, 1, 56, 80
4, 65640, Note_on_c, 1, 44, 92
4, 65650, Note_off_c, 1, 41, 64
4, 65650, Note_off_c, 1, 53, 64
4, 65700, Note_on_c, 1, 53, 84
4, 65700, Note_on_c, 1, 41, 96
4, 65710, Note_off_c, 1, 44, 64
4, 65710, Note_off_c, 1, 56, 64
4, 65760, Note_on_c, 1, 49, 88
4, 65760, Note_on_c, 1, 37, 100
4, 65770, Note_off_c, 1, 41, 64
4, 65770, Note_off_c, 1, 53, 64
4, 65950, Note_off_c, 1, 37, 64
4, 65950, Note_off_c, 1, 49, 64
4, 65970, Note_on_c, 1, 53, 80
4, 65970, Note_on_c, 1, 49, 95
4, 65990, Note_off_c, 1, 49, 64
4, 65990, Note_off_c, 1, 53, 64
4, 66000, Note_on_c, 1, 53, 95
4, 66000, Note_on_c, 1, 49, 105
4, 66190, Note_off_c, 1, 49, 64
4, 66190, Note_off_c, 1, 53, 64
4, 66210, Note_on_c, 1, 53, 88
4, 66210, Note_on_c, 1, 49, 102
4, 66230, Note_off_c, 1, 49, 64
4, 66230, Note_off_c, 1, 53, 64
4, 66240, Note_on_c, 1, 52, 95
4, 66240, Note_on_c, 1, 48, 110
4, 66270, Note_off_c, 1, 48, 64
4, 66270, Note_off_c, 1, 52, 64
4, 66300, Note_on_c, 1, 43, 100
4, 66300, Note_on_c, 1, 31, 120
4, 66320, Note_off_c, 1, 31, 64
4, 66320, Note_off_c, 1, 43, 64
4, 66360, Note_on_c, 1, 48, 95
4, 66360, Note_on_c, 1, 36, 115
4, 66380, Note_off_c, 1, 36, 64
4, 66380, Note_off_c, 1, 48, 64
4, 66420, Note_on_c, 1, 52, 91
4, 66420, Note_on_c, 1, 40, 111
4, 66440, Note_off_c, 1, 40, 64
4, 66440, Note_off_c, 1, 52, 64
4, 66480, Note_on_c, 1, 55, 98
4, 66480, Note_on_c, 1, 43, 118
4, 66500, Note_off_c, 1, 43, 64
4, 66500, Note_off_c, 1, 55, 64
4, 66540, Note_on_c, 1, 52, 87
4, 66540, Note_on_c, 1, 40, 107
4, 66560, Note_off_c, 1, 40, 64
4, 66560, Note_off_c, 1, 52, 64
4, 66600, Note_on_c, 1, 55, 90
4, 66600, Note_on_c, 1, 43, 110
4, 66620, Note_off_c, 1, 43, 64
4, 66620, Note_off_c, 1, 55, 64
4, 66660, Note_on_c, 1, 52, 78
4, 66660, Note_on_c, 1, 40, 98
4, 66680, Note_off_c, 1, 40, 64
4, 66680, Note_off_c, 1, 52, 64
4, 66720, Note_on_c, 1, 48, 80
4, 66720, Note_on_c, 1, 36, 100
4, 66840, Note_off_c, 1, 36, 64
4, 66840, Note_off_c, 1, 48, 64
4, 67200, Note_on_c, 1, 55, 97
4, 67200, Note_on_c, 1, 43, 112
4, 67230, Note_off_c, 1, 43, 64
4, 67230, Note_off_c, 1, 55, 64
4, 67260, Note_on_c, 1, 48, 95
4, 67260, Note_on_c, 1, 36, 115
4, 67280, Note_off_c, 1, 36, 64
4, 67280, Note_off_c, 1, 48, 64
4, 67320, Note_on_c, 1, 52, 90
4, 67320, Note_on_c, 1, 40, 110
4, 67340, Note_off_c, 1, 40, 64
4, 67340, Note_off_c, 1, 52, 64
4, 67380, Note_on_c, 1, 55, 86
4, 67380, Note_on_c, 1, 43, 106
4, 67400, Note_off_c, 1, 43, 64
4, 67400, Note_off_c, 1, 55, 64
4, 67440, Note_on_c, 1, 60, 93
4, 67440, Note_on_c, 1, 48, 113
4, 67460, Note_off_c, 1, 48, 64
4, 67460, Note_off_c, 1, 60, 64
4, 67500, Note_on_c, 1, 55, 82
4, 67500, Note_on_c, 1, 43, 102
4, 67520, Note_off_c, 1, 43, 64
4, 67520, Note_off_c, 1, 55, 64
4, 67560, Note_on_c, 1, 60, 85
4, 67560, Note_on_c, 1, 48, 105
4, 67580, Note_off_c, 1, 48, 64
4, 67580, Note_off_c, 1, 60, 64
4, 67620, Note_on_c, 1, 55, 73
4, 67620, Note_on_c, 1, 43, 93
4, 67640, Note_off_c, 1, 43, 64
4, 67640, Note_off_c, 1, 55, 64
4, 67680, Note_on_c, 1, 52, 75
4, 67680, Note_on_c, 1, 40, 95
4, 67800, Note_off_c, 1, 40, 64
4, 67800, Note_off_c, 1, 52, 64
4, 68160, Note_on_c, 1, 60, 97
4, 68160, Note_on_c, 1, 48, 112
4, 68190, Note_off_c, 1, 48, 64
4, 68190, Note_off_c, 1, 60, 64
4, 68220, Note_on_c, 1, 52, 115
4, 68240, Note_off_c, 1, 52, 64
4, 68280, Note_on_c, 1, 55, 90
4, 68280, Note_on_c, 1, 43, 110
4, 68300, Note_off_c, 1, 43, 64
4, 68300, Note_off_c, 1, 55, 64
4, 68340, Note_on_c, 1, 60, 86
4, 68340, Note_on_c, 1, 48, 106
4, 68360, Note_off_c, 1, 48, 64
4, 68360, Note_off_c, 1, 60, 64
4, 68400, Note_on_c, 1, 64, 93
4, 68400, Note_on_c, 1, 52, 113
4, 68420, Note_off_c, 1, 52, 64
4, 68420, Note_off_c, 1, 64, 64
4, 68460, Note_on_c, 1, 60, 82
4, 68460, Note_on_c, 1, 48, 102
4, 68480, Note_off_c, 1, 48, 64
4, 68480, Note_off_c, 1, 60, 64
4, 68520, Note_on_c, 1, 64, 85
4, 68520, Note_on_c, 1, 52, 105
4, 68540, Note_off_c, 1, 52, 64
4, 68540, Note_off_c, 1, 64, 64
4, 68580, Note_on_c, 1, 60, 78
4, 68580, Note_on_c, 1, 48, 98
4, 68600, Note_off_c, 1, 48, 64
4, 68600, Note_off_c, 1, 60, 64
4, 68640, Note_on_c, 1, 64, 87
4, 68640, Note_on_c, 1, 52, 102
4, 68670, Note_off_c, 1, 52, 64
4, 68670, Note_off_c, 1, 64, 64
4, 68700, Note_on_c, 1, 55, 105
4, 68720, Note_off_c, 1, 55, 64
4, 68760, Note_on_c, 1, 60, 80
4, 68760, Note_on_c, 1, 48, 100
4, 68780, Note_off_c, 1, 48, 64
4, 68780, Note_off_c, 1, 60, 64
4, 68820, Note_on_c, 1, 64, 76
4, 68820, Note_on_c, 1, 52, 96
4, 68840, Note_off_c, 1, 52, 64
4, 68840, Note_off_c, 1, 64, 64
4, 68880, Note_on_c, 1, 67, 83
4, 68880, Note_on_c, 1, 55, 103
4, 68900, Note_off_c, 1, 55, 64
4, 68900, Note_off_c, 1, 67, 64
4, 68940, Note_on_c, 1, 64, 72
4, 68940, Note_on_c, 1, 52, 92
4, 68960, Note_off_c, 1, 52, 64
4, 68960, Note_off_c, 1, 64, 64
4, 69000, Note_on_c, 1, 67, 75
4, 69000, Note_on_c, 1, 55, 95
4, 69020, Note_off_c, 1, 55, 64
4, 69020, Note_off_c, 1, 67, 64
4, 69060, Note_on_c, 1, 64, 63
4, 69060, Note_on_c, 1, 52, 83
4, 69080, Note_off_c, 1, 52, 64
4, 69080, Note_off_c, 1, 64, 64
4, 69120, Note_on_c, 1, 60, 60
4, 69120, Note_on_c, 1, 48, 85
4, 69240, Note_off_c, 1, 48, 64
4, 69240, Note_off_c, 1, 60, 64
4, 70080, Note_on_c, 1, 79, 68
4, 70110, Note_off_c, 1, 79, 64
4, 70140, Note_on_c, 1, 76, 57
4, 70160, Note_off_c, 1, 76, 64
4, 70200, Note_on_c, 1, 79, 60
4, 70220, Note_off_c, 1, 79, 64
4, 70260, Note_on_c, 1, 76, 48
4, 70280, Note_off_c, 1, 76, 64
4, 70320, Note_on_c, 1, 72, 50
4, 70520, Note_off_c, 1, 72, 64
4, 70560, Note_on_c, 1, 55, 48
4, 70590, Note_off_c, 1, 55, 64
4, 70620, Note_on_c, 1, 52, 37
4, 70640, Note_off_c, 1, 52, 64
4, 70680, Note_on_c, 1, 55, 40
4, 70700, Note_off_c, 1, 55, 64
4, 70740, Note_on_c, 1, 52, 30
4, 70760, Note_off_c, 1, 52, 64
4, 70800, Note_on_c, 1, 55, 43
4, 70820, Note_off_c, 1, 55, 64
4, 70860, Note_on_c, 1, 52, 32
4, 70880, Note_off_c, 1, 52, 64
4, 70920, Note_on_c, 1, 55, 46
4, 70940, Note_off_c, 1, 55, 64
4, 70980, Note_on_c, 1, 52, 34
4, 71000, Note_off_c, 1, 52, 64
4, 71040, Note_on_c, 1, 48, 40
4, 71160, Note_off_c, 1, 48, 64
4, 71160, Note_on_c, 1, 67, 32
4, 71160, Note_on_c, 1, 64, 25
4, 71220, Note_off_c, 1, 64, 64
4, 71220, Note_off_c, 1, 67, 64
4, 71280, Note_on_c, 1, 67, 35
4, 71280, Note_on_c, 1, 64, 22
4, 71350, Note_off_c, 1, 64, 64
4, 71350, Note_off_c, 1, 67, 64
4, 71400, Note_on_c, 1, 67, 30
4, 71400, Note_on_c, 1, 64, 24
4, 71450, Note_off_c, 1, 64, 64
4, 71450, Note_off_c, 1, 67, 64
4, 71520, Note_on_c, 1, 48, 44
4, 71640, Note_off_c, 1, 48, 64
4, 71640, Note_on_c, 1, 68, 36
4, 71640, Note_on_c, 1, 65, 29
4, 71700, Note_off_c, 1, 65, 64
4, 71700, Note_off_c, 1, 68, 64
4, 71760, Note_on_c, 1, 48, 47
4, 71880, Note_off_c, 1, 48, 64
4, 71880, Note_on_c, 1, 69, 39
4, 71880, Note_on_c, 1, 66, 32
4, 71940, Note_off_c, 1, 66, 64
4, 71940, Note_off_c, 1, 69, 64
4, 72000, Note_on_c, 1, 48, 50
4, 72120, Note_off_c, 1, 48, 64
4, 72120, Note_on_c, 1, 70, 42
4, 72120, Note_on_c, 1, 67, 35
4, 72180, Note_off_c, 1, 67, 64
4, 72180, Note_off_c, 1, 70, 64
4, 72240, Note_on_c, 1, 70, 45
4, 72240, Note_on_c, 1, 67, 32
4, 72310, Note_off_c, 1, 67, 64
4, 72310, Note_off_c, 1, 70, 64
4, 72360, Note_on_c, 1, 70, 40
4, 72360, Note_on_c, 1, 67, 34
4, 72410, Note_off_c, 1, 67, 64
4, 72410, Note_off_c, 1, 70, 64
4, 72480, Note_on_c, 1, 48, 54
4, 72600, Note_off_c, 1, 48, 64
4, 72600, Note_on_c, 1, 72, 46
4, 72600, Note_on_c, 1, 69, 39
4, 72660, Note_off_c, 1, 69, 64
4, 72660, Note_off_c, 1, 72, 64
4, 72720, Note_on_c, 1, 48, 57
4, 72840, Note_off_c, 1, 48, 64
4, 72840, Note_on_c, 1, 73, 49
4, 72840, Note_on_c, 1, 69, 42
4, 72900, Note_off_c, 1, 69, 64
4, 72900, Note_off_c, 1, 73, 64
4, 72960, Note_on_c, 1, 48, 60
4, 73080, Note_off_c, 1, 48, 64
4, 73080, Note_on_c, 1, 74, 52
4, 73080, Note_on_c, 1, 70, 45
4, 73140, Note_off_c, 1, 70, 64
4, 73140, Note_off_c, 1, 74, 64
4, 73200, Note_on_c, 1, 48, 63
4, 73320, Note_off_c, 1, 48, 64
4, 73320, Note_on_c, 1, 72, 53
4, 73320, Note_on_c, 1, 69, 47
4, 73370, Note_off_c, 1, 69, 64
4, 73370, Note_off_c, 1, 72, 64
4, 73440, Note_on_c, 1, 48, 58
4, 73560, Note_off_c, 1, 48, 64
4, 73560, Note_on_c, 1, 70, 50
4, 73560, Note_on_c, 1, 67, 43
4, 73620, Note_off_c, 1, 67, 64
4, 73620, Note_off_c, 1, 70, 64
4, 73680, Note_on_c, 1, 48, 50
4, 73800, Note_off_c, 1, 48, 64
4, 73800, Note_on_c, 1, 69, 42
4, 73800, Note_on_c, 1, 66, 35
4, 73860, Note_off_c, 1, 66, 64
4, 73860, Note_off_c, 1, 69, 64
4, 73920, Note_on_c, 1, 48, 55
4, 74040, Note_off_c, 1, 48, 64
4, 74040, Note_on_c, 1, 70, 49
4, 74040, Note_on_c, 1, 67, 42
4, 74100, Note_off_c, 1, 67, 64
4, 74100, Note_off_c, 1, 70, 64
4, 74160, Note_on_c, 1, 48, 52
4, 74280, Note_off_c, 1, 48, 64
4, 74280, Note_on_c, 1, 67, 42
4, 74280, Note_on_c, 1, 64, 36
4, 74330, Note_off_c, 1, 64, 64
4, 74330, Note_off_c, 1, 67, 64
4, 74400, Note_on_c, 1, 48, 37
4, 74520, Note_off_c, 1, 48, 64
4, 74520, Note_on_c, 1, 70, 29
4, 74520, Note_on_c, 1, 67, 22
4, 74580, Note_off_c, 1, 67, 64
4, 74580, Note_off_c, 1, 70, 64
4, 74640, Note_on_c, 1, 48, 34
4, 74760, Note_off_c, 1, 48, 64
4, 74760, Note_on_c, 1, 67, 26
4, 74760, Note_on_c, 1, 64, 19
4, 74820, Note_off_c, 1, 64, 64
4, 74820, Note_off_c, 1, 67, 64
4, 74880, Note_on_c, 1, 48, 47
4, 75000, Note_off_c, 1, 48, 64
4, 75000, Note_on_c, 1, 70, 39
4, 75000, Note_on_c, 1, 67, 25
4, 75000, Note_on_c, 1, 64, 32
4, 75060, Note_off_c, 1, 64, 64
4, 75060, Note_off_c, 1, 67, 64
4, 75060, Note_off_c, 1, 70, 64
4, 75120, Note_on_c, 1, 48, 42
4, 75240, Note_off_c, 1, 48, 64
4, 75240, Note_on_c, 1, 67, 32
4, 75240, Note_on_c, 1, 64, 20
4, 75240, Note_on_c, 1, 58, 26
4, 75290, Note_off_c, 1, 58, 64
4, 75290, Note_off_c, 1, 64, 64
4, 75290, Note_off_c, 1, 67, 64
4, 75360, Note_on_c, 1, 36, 45
4, 75480, Note_off_c, 1, 36, 64
4, 75480, Note_on_c, 1, 64, 37
4, 75480, Note_on_c, 1, 58, 22
4, 75480, Note_on_c, 1, 55, 30
4, 75580, Note_off_c, 1, 55, 64
4, 75580, Note_off_c, 1, 58, 64
4, 75580, Note_off_c, 1, 64, 64
4, 75840, Note_on_c, 1, 41, 50
4, 75900, Note_on_c, 1, 60, 38
4, 75910, Note_off_c, 1, 41, 64
4, 75960, Note_on_c, 1, 57, 40
4, 75970, Note_off_c, 1, 60, 64
4, 76020, Note_on_c, 1, 60, 35
4, 76030, Note_off_c, 1, 57, 64
4, 76080, Note_on_c, 1, 65, 33
4, 76090, Note_off_c, 1, 60, 64
4, 76140, Note_on_c, 1, 60, 37
4, 76150, Note_off_c, 1, 65, 64
4, 76200, Note_on_c, 1, 57, 40
4, 76210, Note_off_c, 1, 60, 64
4, 76260, Note_on_c, 1, 60, 35
4, 76270, Note_off_c, 1, 57, 64
4, 76320, Note_on_c, 1, 46, 45
4, 76330, Note_off_c, 1, 60, 64
4, 76380, Note_on_c, 1, 62, 33
4, 76390, Note_off_c, 1, 46, 64
4, 76440, Note_on_c, 1, 58, 35
4, 76450, Note_off_c, 1, 62, 64
4, 76500, Note_on_c, 1, 62, 30
4, 76510, Note_off_c, 1, 58, 64
4, 76560, Note_on_c, 1, 67, 28
4, 76570, Note_off_c, 1, 62, 64
4, 76620, Note_on_c, 1, 62, 32
4, 76630, Note_off_c, 1, 67, 64
4, 76680, Note_on_c, 1, 58, 35
4, 76690, Note_off_c, 1, 62, 64
4, 76740, Note_on_c, 1, 62, 38
4, 76750, Note_off_c, 1, 58, 64
4, 76800, Note_on_c, 1, 48, 50
4, 76810, Note_off_c, 1, 62, 64
4, 76860, Note_on_c, 1, 57, 38
4, 76870, Note_off_c, 1, 48, 64
4, 76920, Note_on_c, 1, 60, 40
4, 76930, Note_off_c, 1, 57, 64
4, 76980, Note_on_c, 1, 65, 35
4, 76990, Note_off_c, 1, 60, 64
4, 77040, Note_off_c, 1, 65, 64
4, 77040, Note_on_c, 1, 48, 45
4, 77100, Note_on_c, 1, 55, 33
4, 77110, Note_off_c, 1, 48, 64
4, 77160, Note_on_c, 1, 60, 35
4, 77170, Note_off_c, 1, 55, 64
4, 77220, Note_on_c, 1, 64, 30
4, 77230, Note_off_c, 1, 60, 64
4, 77280, Note_off_c, 1, 64, 64
4, 77280, Note_on_c, 1, 48, 48
4, 77340, Note_on_c, 1, 55, 35
4, 77350, Note_off_c, 1, 48, 64
4, 77400, Note_on_c, 1, 52, 37
4, 77410, Note_off_c, 1, 55, 64
4, 77460, Note_on_c, 1, 55, 32
4, 77470, Note_off_c, 1, 52, 64
4, 77520, Note_on_c, 1, 46, 52
4, 77520, Note_on_c, 1, 60, 28
4, 77530, Note_off_c, 1, 55, 64
4, 77580, Note_on_c, 1, 55, 31
4, 77590, Note_off_c, 1, 60, 64
4, 77640, Note_on_c, 1, 52, 33
4, 77650, Note_off_c, 1, 55, 64
4, 77700, Note_on_c, 1, 55, 30
4, 77710, Note_off_c, 1, 52, 64
4, 77760, Note_off_c, 1, 55, 64
4, 77760, Note_off_c, 1, 46, 64
4, 77760, Note_on_c, 1, 45, 55
4, 77820, Note_on_c, 1, 53, 35
4, 77830, Note_off_c, 1, 45, 64
4, 77880, Note_on_c, 1, 48, 37
4, 77890, Note_off_c, 1, 53, 64
4, 77940, Note_on_c, 1, 57, 32
4, 77950, Note_off_c, 1, 48, 64
4, 78000, Note_off_c, 1, 57, 64
4, 78000, Note_on_c, 1, 40, 58
4, 78060, Note_on_c, 1, 55, 37
4, 78070, Note_off_c, 1, 40, 64
4, 78120, Note_on_c, 1, 52, 40
4, 78130, Note_off_c, 1, 55, 64
4, 78180, Note_on_c, 1, 60, 35
4, 78190, Note_off_c, 1, 52, 64
4, 78240, Note_off_c, 1, 60, 64
4, 78240, Note_on_c, 1, 41, 53
4, 78300, Note_on_c, 1, 60, 32
4, 78310, Note_off_c, 1, 41, 64
4, 78360, Note_on_c, 1, 57, 35
4, 78370, Note_off_c, 1, 60, 64
4, 78420, Note_on_c, 1, 65, 30
4, 78430, Note_off_c, 1, 57, 64
4, 78480, Note_off_c, 1, 65, 64
4, 78480, Note_on_c, 1, 46, 55
4, 78540, Note_on_c, 1, 62, 30
4, 78550, Note_off_c, 1, 46, 64
4, 78600, Note_on_c, 1, 58, 32
4, 78610, Note_off_c, 1, 62, 64
4, 78660, Note_on_c, 1, 67, 28
4, 78670, Note_off_c, 1, 58, 64
4, 78720, Note_off_c, 1, 67, 64
4, 78720, Note_on_c, 1, 48, 60
4, 78780, Note_on_c, 1, 57, 43
4, 78790, Note_off_c, 1, 48, 64
4, 78840, Note_on_c, 1, 53, 45
4, 78850, Note_off_c, 1, 57, 64
4, 78900, Note_on_c, 1, 60, 40
4, 78910, Note_off_c, 1, 53, 64
4, 78960, Note_on_c, 1, 57, 42
4, 78970, Note_off_c, 1, 60, 64
4, 79020, Note_on_c, 1, 65, 37
4, 79030, Note_off_c, 1, 57, 64
4, 79080, Note_on_c, 1, 60, 39
4, 79090, Note_off_c, 1, 65, 64
4, 79140, Note_on_c, 1, 69, 33
4, 79150, Note_off_c, 1, 60, 64
4, 79200, Note_on_c, 1, 48, 50
4, 79210, Note_off_c, 1, 69, 64
4, 79260, Note_on_c, 1, 55, 35
4, 79270, Note_off_c, 1, 48, 64
4, 79320, Note_on_c, 1, 52, 37
4, 79330, Note_off_c, 1, 55, 64
4, 79380, Note_on_c, 1, 60, 32
4, 79390, Note_off_c, 1, 52, 64
4, 79440, Note_on_c, 1, 55, 34
4, 79450, Note_off_c, 1, 60, 64
4, 79500, Note_on_c, 1, 64, 37
4, 79510, Note_off_c, 1, 55, 64
4, 79560, Note_on_c, 1, 60, 40
4, 79570, Note_off_c, 1, 64, 64
4, 79620, Note_on_c, 1, 67, 35
4, 79630, Note_off_c, 1, 60, 64
4, 79680, Note_on_c, 1, 48, 72
4, 79680, Note_on_c, 1, 36, 90
4, 79690, Note_off_c, 1, 67, 64
4, 79740, Note_off_c, 1, 48, 64
4, 79740, Note_on_c, 1, 48, 70
4, 79780, Note_off_c, 1, 48, 64
4, 79800, Note_on_c, 1, 52, 65
4, 79835, Note_off_c, 1, 52, 64
4, 79860, Note_on_c, 1, 48, 68
4, 79890, Note_off_c, 1, 48, 64
4, 79920, Note_on_c, 1, 52, 62
4, 79955, Note_off_c, 1, 52, 64
4, 79980, Note_on_c, 1, 48, 65
4, 80040, Note_on_c, 1, 52, 58
4, 80075, Note_off_c, 1, 52, 64
4, 80100, Note_on_c, 1, 55, 54
4, 80130, Note_off_c, 1, 55, 64
4, 80160, Note_on_c, 1, 58, 50
4, 80210, Note_off_c, 1, 58, 64
4, 80210, Note_off_c, 1, 48, 64
4, 80210, Note_off_c, 1, 36, 64
4, 80280, Note_on_c, 1, 60, 30
4, 80280, Note_on_c, 1, 57, 60
4, 80400, Note_on_c, 1, 58, 50
4, 80400, Note_on_c, 1, 55, 62
4, 80410, Note_off_c, 1, 57, 64
4, 80520, Note_off_c, 1, 60, 64
4, 80520, Note_on_c, 1, 53, 65
4, 80520, Note_on_c, 1, 57, 45
4, 80520, Note_on_c, 1, 60, 35
4, 80530, Note_off_c, 1, 55, 64
4, 80530, Note_off_c, 1, 58, 64
4, 80640, Note_on_c, 1, 48, 62
4, 80640, Note_on_c, 1, 36, 80
4, 80650, Note_off_c, 1, 60, 64
4, 80650, Note_off_c, 1, 57, 64
4, 80650, Note_off_c, 1, 53, 64
4, 80700, Note_off_c, 1, 48, 64
4, 80700, Note_on_c, 1, 48, 60
4, 80740, Note_off_c, 1, 48, 64
4, 80760, Note_on_c, 1, 52, 55
4, 80795, Note_off_c, 1, 52, 64
4, 80820, Note_on_c, 1, 48, 58
4, 80850, Note_off_c, 1, 48, 64
4, 80880, Note_on_c, 1, 52, 52
4, 80915, Note_off_c, 1, 52, 64
4, 80940, Note_on_c, 1, 48, 55
4, 81000, Note_on_c, 1, 52, 48
4, 81035, Note_off_c, 1, 52, 64
4, 81060, Note_on_c, 1, 55, 44
4, 81090, Note_off_c, 1, 55, 64
4, 81120, Note_on_c, 1, 58, 40
4, 81170, Note_off_c, 1, 58, 64
4, 81170, Note_off_c, 1, 48, 64
4, 81170, Note_off_c, 1, 36, 64
4, 81240, Note_on_c, 1, 65, 50
4, 81240, Note_on_c, 1, 60, 30
4, 81240, Note_on_c, 1, 57, 60
4, 81360, Note_on_c, 1, 59, 55
4, 81360, Note_on_c, 1, 56, 62
4, 81370, Note_off_c, 1, 57, 64
4, 81480, Note_off_c, 1, 60, 64
4, 81480, Note_off_c, 1, 65, 64
4, 81480, Note_on_c, 1, 57, 58
4, 81480, Note_on_c, 1, 60, 45
4, 81480, Note_on_c, 1, 65, 35
4, 81490, Note_off_c, 1, 56, 64
4, 81490, Note_off_c, 1, 59, 64
4, 81600, Note_on_c, 1, 58, 45
4, 81600, Note_on_c, 1, 46, 60
4, 81610, Note_off_c, 1, 65, 64
4, 81610, Note_off_c, 1, 60, 64
4, 81610, Note_off_c, 1, 57, 64
4, 81660, Note_on_c, 1, 67, 33
4, 81660, Note_on_c, 1, 65, 25
4, 81660, Note_on_c, 1, 62, 40
4, 81670, Note_off_c, 1, 46, 64
4, 81670, Note_off_c, 1, 58, 64
4, 81690, Note_off_c, 1, 62, 64
4, 81690, Note_off_c, 1, 65, 64
4, 81690, Note_off_c, 1, 67, 64
4, 81720, Note_on_c, 1, 67, 35
4, 81720, Note_on_c, 1, 65, 28
4, 81720, Note_on_c, 1, 62, 42
4, 81760, Note_off_c, 1, 62, 64
4, 81760, Note_off_c, 1, 65, 64
4, 81760, Note_off_c, 1, 67, 64
4, 81780, Note_on_c, 1, 67, 32
4, 81780, Note_on_c, 1, 65, 25
4, 81780, Note_on_c, 1, 62, 37
4, 81810, Note_off_c, 1, 62, 64
4, 81810, Note_off_c, 1, 65, 64
4, 81810, Note_off_c, 1, 67, 64
4, 81840, Note_on_c, 1, 59, 43
4, 81840, Note_on_c, 1, 47, 53
4, 81870, Note_off_c, 1, 59, 64
4, 81900, Note_on_c, 1, 67, 30
4, 81900, Note_on_c, 1, 65, 22
4, 81900, Note_on_c, 1, 62, 37
4, 81910, Note_off_c, 1, 47, 64
4, 81930, Note_off_c, 1, 62, 64
4, 81930, Note_off_c, 1, 65, 64
4, 81930, Note_off_c, 1, 67, 64
4, 81960, Note_on_c, 1, 67, 32
4, 81960, Note_on_c, 1, 65, 25
4, 81960, Note_on_c, 1, 62, 39
4, 82000, Note_off_c, 1, 62, 64
4, 82000, Note_off_c, 1, 65, 64
4, 82000, Note_off_c, 1, 67, 64
4, 82020, Note_on_c, 1, 67, 30
4, 82020, Note_on_c, 1, 65, 20
4, 82020, Note_on_c, 1, 62, 34
4, 82050, Note_off_c, 1, 62, 64
4, 82050, Note_off_c, 1, 65, 64
4, 82050, Note_off_c, 1, 67, 64
4, 82080, Note_on_c, 1, 48, 55
4, 82140, Note_on_c, 1, 69, 33
4, 82140, Note_on_c, 1, 65, 25
4, 82140, Note_on_c, 1, 60, 40
4, 82150, Note_off_c, 1, 48, 64
4, 82170, Note_off_c, 1, 60, 64
4, 82170, Note_off_c, 1, 65, 64
4, 82170, Note_off_c, 1, 69, 64
4, 82200, Note_on_c, 1, 69, 35
4, 82200, Note_on_c, 1, 65, 28
4, 82200, Note_on_c, 1, 60, 42
4, 82240, Note_off_c, 1, 60, 64
4, 82240, Note_off_c, 1, 65, 64
4, 82240, Note_off_c, 1, 69, 64
4, 82260, Note_on_c, 1, 69, 32
4, 82260, Note_on_c, 1, 65, 20
4, 82260, Note_on_c, 1, 60, 37
4, 82290, Note_off_c, 1, 60, 64
4, 82290, Note_off_c, 1, 65, 64
4, 82290, Note_off_c, 1, 69, 64
4, 82320, Note_on_c, 1, 48, 40
4, 82320, Note_on_c, 1, 36, 58
4, 82380, Note_on_c, 1, 64, 30
4, 82380, Note_on_c, 1, 60, 25
4, 82380, Note_on_c, 1, 58, 37
4, 82390, Note_off_c, 1, 36, 64
4, 82390, Note_off_c, 1, 48, 64
4, 82410, Note_off_c, 1, 58, 64
4, 82410, Note_off_c, 1, 60, 64
4, 82410, Note_off_c, 1, 64, 64
4, 82440, Note_on_c, 1, 64, 32
4, 82440, Note_on_c, 1, 60, 27
4, 82440, Note_on_c, 1, 58, 39
4, 82480, Note_off_c, 1, 58, 64
4, 82480, Note_off_c, 1, 60, 64
4, 82480, Note_off_c, 1, 64, 64
4, 82500, Note_on_c, 1, 64, 37
4, 82500, Note_on_c, 1, 60, 22
4, 82500, Note_on_c, 1, 58, 42
4, 82520, Note_on_c, 1, 41, 50
4, 82530, Note_off_c, 1, 58, 64
4, 82530, Note_off_c, 1, 60, 64
4, 82530, Note_off_c, 1, 64, 64
4, 82550, Note_on_c, 1, 60, 35
4, 82560, Note_on_c, 1, 57, 40
4, 82760, Note_off_c, 1, 57, 64
4, 82760, Note_off_c, 1, 41, 64
4, 82790, Note_off_c, 1, 60, 64
4, 82800, Note_on_c, 1, 57, 80
4, 82800, Note_on_c, 1, 45, 100
4, 83000, Note_off_c, 1, 57, 64
4, 83010, Note_off_c, 1, 45, 64
4, 83010, Note_on_c, 1, 57, 78
4, 83010, Note_on_c, 1, 45, 95
4, 83040, Note_on_c, 1, 50, 75
4, 83040, Note_on_c, 1, 38, 105
4, 83050, Note_off_c, 1, 45, 64
4, 83050, Note_off_c, 1, 57, 64
4, 83240, Note_off_c, 1, 38, 64
4, 83240, Note_off_c, 1, 50, 64
4, 83280, Note_on_c, 1, 62, 80
4, 83280, Note_on_c, 1, 50, 100
4, 83490, Note_off_c, 1, 50, 64
4, 83490, Note_off_c, 1, 62, 64
4, 83490, Note_on_c, 1, 50, 95
4, 83490, Note_on_c, 1, 62, 78
4, 83520, Note_on_c, 1, 55, 75
4, 83520, Note_on_c, 1, 43, 105
4, 83530, Note_off_c, 1, 62, 64
4, 83530, Note_off_c, 1, 50, 64
4, 83720, Note_off_c, 1, 43, 64
4, 83720, Note_off_c, 1, 55, 64
4, 83760, Note_on_c, 1, 58, 80
4, 83760, Note_on_c, 1, 46, 100
4, 83970, Note_off_c, 1, 46, 64
4, 83970, Note_off_c, 1, 58, 64
4, 83970, Note_on_c, 1, 58, 78
4, 83970, Note_on_c, 1, 46, 95
4, 84000, Note_on_c, 1, 49, 85
4, 84000, Note_on_c, 1, 37, 115
4, 84010, Note_off_c, 1, 46, 64
4, 84010, Note_off_c, 1, 58, 64
4, 84200, Note_off_c, 1, 37, 64
4, 84200, Note_off_c, 1, 49, 64
4, 84240, Note_on_c, 1, 50, 78
4, 84240, Note_on_c, 1, 38, 105
4, 84420, Note_off_c, 1, 38, 64
4, 84420, Note_off_c, 1, 50, 64
4, 84480, Note_on_c, 1, 46, 60
4, 84480, Note_on_c, 1, 34, 75
4, 84720, Note_off_c, 1, 46, 64
4, 84720, Note_on_c, 1, 46, 55
4, 84730, Note_off_c, 1, 34, 64
4, 84840, Note_on_c, 1, 55, 47
4, 84840, Note_on_c, 1, 53, 40
4, 84840, Note_on_c, 1, 50, 30
4, 84960, Note_off_c, 1, 50, 64
4, 84960, Note_off_c, 1, 53, 64
4, 84960, Note_off_c, 1, 55, 64
4, 84960, Note_off_c, 1, 46, 64
4, 84960, Note_on_c, 1, 57, 63
4, 84960, Note_on_c, 1, 53, 40
4, 84960, Note_on_c, 1, 48, 65
4, 85080, Note_on_c, 1, 60, 58
4, 85090, Note_off_c, 1, 57, 64
4, 85200, Note_off_c, 1, 48, 64
4, 85200, Note_on_c, 1, 48, 57
4, 85200, Note_on_c, 1, 58, 60
4, 85200, Note_on_c, 1, 52, 48
4, 85210, Note_off_c, 1, 60, 64
4, 85210, Note_off_c, 1, 53, 64
4, 85320, Note_on_c, 1, 55, 51
4, 85330, Note_off_c, 1, 52, 64
4, 85440, Note_off_c, 1, 48, 64
4, 85440, Note_on_c, 1, 57, 30
4, 85440, Note_on_c, 1, 53, 55
4, 85450, Note_off_c, 1, 58, 64
4, 85450, Note_off_c, 1, 55, 64
4, 85640, Note_off_c, 1, 53, 64
4, 85640, Note_off_c, 1, 57, 64
4, 85680, Note_on_c, 1, 57, 40
4, 85890, Note_off_c, 1, 57, 64
4, 85890, Note_on_c, 1, 57, 35
4, 85920, Note_on_c, 1, 50, 45
4, 85930, Note_off_c, 1, 57, 64
4, 86120, Note_off_c, 1, 50, 64
4, 86160, Note_on_c, 1, 62, 45
4, 86160, Note_on_c, 1, 50, 40
4, 86370, Note_off_c, 1, 50, 64
4, 86370, Note_off_c, 1, 62, 64
4, 86370, Note_on_c, 1, 50, 35
4, 86370, Note_on_c, 1, 62, 40
4, 86400, Note_on_c, 1, 55, 47
4, 86400, Note_on_c, 1, 43, 42
4, 86410, Note_off_c, 1, 62, 64
4, 86410, Note_off_c, 1, 50, 64
4, 86600, Note_off_c, 1, 43, 64
4, 86600, Note_off_c, 1, 55, 64
4, 86640, Note_on_c, 1, 58, 50
4, 86850, Note_off_c, 1, 58, 64
4, 86850, Note_on_c, 1, 58, 45
4, 86880, Note_on_c, 1, 52, 55
4, 86890, Note_off_c, 1, 58, 64
4, 87080, Note_off_c, 1, 52, 64
4, 87120, Note_on_c, 1, 67, 50
4, 87120, Note_on_c, 1, 55, 45
4, 87330, Note_off_c, 1, 55, 64
4, 87330, Note_off_c, 1, 67, 64
4, 87330, Note_on_c, 1, 55, 38
4, 87330, Note_on_c, 1, 67, 43
4, 87360, Note_on_c, 1, 48, 50
4, 87370, Note_off_c, 1, 67, 64
4, 87370, Note_off_c, 1, 55, 64
4, 87480, Note_off_c, 1, 48, 64
4, 87480, Note_on_c, 1, 64, 40
4, 87480, Note_on_c, 1, 60, 25
4, 87480, Note_on_c, 1, 58, 36
4, 87580, Note_off_c, 1, 58, 64
4, 87580, Note_off_c, 1, 60, 64
4, 87580, Note_off_c, 1, 64, 64
4, 87600, Note_on_c, 1, 50, 47
4, 87720, Note_off_c, 1, 50, 64
4, 87720, Note_on_c, 1, 65, 37
4, 87720, Note_on_c, 1, 60, 22
4, 87720, Note_on_c, 1, 58, 33
4, 87820, Note_off_c, 1, 58, 64
4, 87820, Note_off_c, 1, 60, 64
4, 87820, Note_off_c, 1, 65, 64
4, 87840, Note_on_c, 1, 52, 43
4, 87960, Note_off_c, 1, 52, 64
4, 87960, Note_on_c, 1, 67, 33
4, 87960, Note_on_c, 1, 60, 18
4, 87960, Note_on_c, 1, 58, 29
4, 88060, Note_off_c, 1, 58, 64
4, 88060, Note_off_c, 1, 60, 64
4, 88060, Note_off_c, 1, 67, 64
4, 88080, Note_on_c, 1, 48, 45
4, 88200, Note_off_c, 1, 48, 64
4, 88200, Note_on_c, 1, 64, 35
4, 88200, Note_on_c, 1, 60, 20
4, 88200, Note_on_c, 1, 58, 31
4, 88300, Note_off_c, 1, 58, 64
4, 88300, Note_off_c, 1, 60, 64
4, 88300, Note_off_c, 1, 64, 64
4, 88320, Note_on_c, 1, 53, 35
4, 88320, Note_on_c, 1, 41, 50
4, 88440, Note_off_c, 1, 41, 64
4, 88440, Note_off_c, 1, 53, 64
4, 88440, Note_on_c, 1, 65, 35
4, 88440, Note_on_c, 1, 60, 20
4, 88440, Note_on_c, 1, 57, 31
4, 88490, Note_off_c, 1, 57, 64
4, 88490, Note_off_c, 1, 60, 64
4, 88490, Note_off_c, 1, 65, 64
4, 88560, Note_on_c, 1, 60, 33
4, 88560, Note_on_c, 1, 57, 18
4, 88560, Note_on_c, 1, 53, 29
4, 88620, Note_off_c, 1, 53, 64
4, 88620, Note_off_c, 1, 57, 64
4, 88620, Note_off_c, 1, 60, 64
4, 88680, Note_on_c, 1, 57, 30
4, 88680, Note_on_c, 1, 53, 15
4, 88680, Note_on_c, 1, 48, 26
4, 88720, Note_off_c, 1, 48, 64
4, 88720, Note_off_c, 1, 53, 64
4, 88720, Note_off_c, 1, 57, 64
4, 88800, Note_on_c, 1, 45, 35
4, 88800, Note_on_c, 1, 33, 45
4, 88920, Note_off_c, 1, 33, 64
4, 88920, Note_off_c, 1, 45, 64
4, 88920, Note_on_c, 1, 69, 30
4, 88920, Note_on_c, 1, 65, 22
4, 88920, Note_on_c, 1, 60, 33
4, 88970, Note_off_c, 1, 60, 64
4, 88970, Note_off_c, 1, 65, 64
4, 88970, Note_off_c, 1, 69, 64
4, 89040, Note_on_c, 1, 65, 35
4, 89040, Note_on_c, 1, 60, 20
4, 89040, Note_on_c, 1, 57, 31
4, 89100, Note_off_c, 1, 57, 64
4, 89100, Note_off_c, 1, 60, 64
4, 89100, Note_off_c, 1, 65, 64
4, 89160, Note_on_c, 1, 60, 32
4, 89160, Note_on_c, 1, 57, 17
4, 89160, Note_on_c, 1, 53, 28
4, 89200, Note_off_c, 1, 53, 64
4, 89200, Note_off_c, 1, 57, 64
4, 89200, Note_off_c, 1, 60, 64
4, 89280, Note_on_c, 1, 46, 35
4, 89280, Note_on_c, 1, 34, 50
4, 89400, Note_off_c, 1, 34, 64
4, 89400, Note_off_c, 1, 46, 64
4, 89400, Note_on_c, 1, 67, 35
4, 89400, Note_on_c, 1, 65, 20
4, 89400, Note_on_c, 1, 62, 31
4, 89500, Note_off_c, 1, 62, 64
4, 89500, Note_off_c, 1, 65, 64
4, 89500, Note_off_c, 1, 67, 64
4, 89520, Note_on_c, 1, 67, 33
4, 89520, Note_on_c, 1, 65, 18
4, 89520, Note_on_c, 1, 62, 29
4, 89620, Note_off_c, 1, 62, 64
4, 89620, Note_off_c, 1, 65, 64
4, 89620, Note_off_c, 1, 67, 64
4, 89640, Note_on_c, 1, 67, 30
4, 89640, Note_on_c, 1, 65, 15
4, 89640, Note_on_c, 1, 62, 26
4, 89740, Note_off_c, 1, 62, 64
4, 89740, Note_off_c, 1, 65, 64
4, 89740, Note_off_c, 1, 67, 64
4, 89760, Note_on_c, 1, 47, 45
4, 89760, Note_on_c, 1, 35, 55
4, 89880, Note_off_c, 1, 35, 64
4, 89880, Note_off_c, 1, 47, 64
4, 89880, Note_on_c, 1, 67, 40
4, 89880, Note_on_c, 1, 65, 32
4, 89880, Note_on_c, 1, 62, 43
4, 89980, Note_off_c, 1, 62, 64
4, 89980, Note_off_c, 1, 65, 64
4, 89980, Note_off_c, 1, 67, 64
4, 90000, Note_on_c, 1, 67, 45
4, 90000, Note_on_c, 1, 65, 30
4, 90000, Note_on_c, 1, 62, 41
4, 90100, Note_off_c, 1, 62, 64
4, 90100, Note_off_c, 1, 65, 64
4, 90100, Note_off_c, 1, 67, 64
4, 90120, Note_on_c, 1, 67, 42
4, 90120, Note_on_c, 1, 65, 27
4, 90120, Note_on_c, 1, 62, 38
4, 90220, Note_off_c, 1, 62, 64
4, 90220, Note_off_c, 1, 65, 64
4, 90220, Note_off_c, 1, 67, 64
4, 90240, Note_on_c, 1, 48, 35
4, 90240, Note_on_c, 1, 36, 50
4, 90360, Note_off_c, 1, 36, 64
4, 90360, Note_off_c, 1, 48, 64
4, 90360, Note_on_c, 1, 57, 40
4, 90360, Note_on_c, 1, 53, 25
4, 90360, Note_on_c, 1, 48, 36
4, 90460, Note_off_c, 1, 48, 64
4, 90460, Note_off_c, 1, 53, 64
4, 90460, Note_off_c, 1, 57, 64
4, 90480, Note_on_c, 1, 69, 35
4, 90480, Note_on_c, 1, 65, 20
4, 90480, Note_on_c, 1, 60, 27
4, 90720, Note_off_c, 1, 60, 64
4, 90720, Note_off_c, 1, 65, 64
4, 90720, Note_off_c, 1, 69, 64
4, 91200, Note_on_c, 1, 48, 35
4, 91200, Note_on_c, 1, 36, 50
4, 91320, Note_on_c, 1, 70, 40
4, 91320, Note_on_c, 1, 67, 28
4, 91320, Note_on_c, 1, 65, 35
4, 91320, Note_on_c, 1, 60, 25
4, 91330, Note_off_c, 1, 36, 64
4, 91330, Note_off_c, 1, 48, 64
4, 91390, Note_off_c, 1, 60, 64
4, 91390, Note_off_c, 1, 65, 64
4, 91390, Note_off_c, 1, 67, 64
4, 91390, Note_off_c, 1, 70, 64
4, 91440, Note_on_c, 1, 70, 50
4, 91440, Note_on_c, 1, 67, 50
4, 91440, Note_on_c, 1, 65, 41
4, 91440, Note_on_c, 1, 60, 35
4, 91530, Note_off_c, 1, 60, 64
4, 91530, Note_off_c, 1, 65, 64
4, 91530, Note_off_c, 1, 67, 64
4, 91530, Note_off_c, 1, 70, 64
4, 91560, Note_on_c, 1, 70, 62
4, 91560, Note_on_c, 1, 67, 62
4, 91560, Note_on_c, 1, 65, 57
4, 91560, Note_on_c, 1, 60, 47
4, 91640, Note_off_c, 1, 60, 64
4, 91640, Note_off_c, 1, 65, 64
4, 91640, Note_off_c, 1, 67, 64
4, 91640, Note_off_c, 1, 70, 64
4, 91680, Note_on_c, 1, 48, 70
4, 91680, Note_on_c, 1, 36, 90
4, 91765, Note_on_c, 1, 60, 80
4, 91780, Note_on_c, 1, 64, 77
4, 91790, Note_off_c, 1, 60, 64
4, 91790, Note_on_c, 1, 67, 81
4, 91800, Note_off_c, 1, 64, 64
4, 91800, Note_off_c, 1, 36, 64
4, 91800, Note_off_c, 1, 48, 64
4, 91800, Note_on_c, 1, 70, 85
4, 91810, Note_off_c, 1, 67, 64
4, 91830, Note_on_c, 1, 69, 83
4, 91840, Note_off_c, 1, 70, 64
4, 91860, Note_on_c, 1, 67, 81
4, 91870, Note_off_c, 1, 69, 64
4, 91890, Note_on_c, 1, 65, 79
4, 91900, Note_off_c, 1, 67, 64
4, 91920, Note_on_c, 1, 64, 82
4, 91930, Note_off_c, 1, 65, 64
4, 91950, Note_on_c, 1, 62, 80
4, 91960, Note_off_c, 1, 64, 64
4, 91980, Note_on_c, 1, 60, 78
4, 91990, Note_off_c, 1, 62, 64
4, 92010, Note_on_c, 1, 58, 76
4, 92020, Note_off_c, 1, 60, 64
4, 92040, Note_on_c, 1, 57, 79
4, 92050, Note_off_c, 1, 58, 64
4, 92070, Note_on_c, 1, 55, 77
4, 92080, Note_off_c, 1, 57, 64
4, 92100, Note_on_c, 1, 53, 80
4, 92110, Note_off_c, 1, 55, 64
4, 92130, Note_on_c, 1, 52, 85
4, 92140, Note_off_c, 1, 53, 64
4, 92160, Note_on_c, 1, 53, 70
4, 92160, Note_on_c, 1, 41, 85
4, 92170, Note_off_c, 1, 52, 64
4, 92220, Note_off_c, 1, 53, 64
4, 92220, Note_on_c, 1, 57, 48
4, 92220, Note_on_c, 1, 53, 55
4, 92230, Note_off_c, 1, 41, 64
4, 92250, Note_off_c, 1, 53, 64
4, 92250, Note_off_c, 1, 57, 64
4, 92280, Note_on_c, 1, 57, 50
4, 92280, Note_on_c, 1, 53, 57
4, 92320, Note_off_c, 1, 53, 64
4, 92320, Note_off_c, 1, 57, 64
4, 92340, Note_on_c, 1, 57, 47
4, 92340, Note_on_c, 1, 53, 52
4, 92370, Note_off_c, 1, 53, 64
4, 92370, Note_off_c, 1, 57, 64
4, 92400, Note_on_c, 1, 53, 60
4, 92400, Note_on_c, 1, 41, 78
4, 92460, Note_off_c, 1, 53, 64
4, 92460, Note_on_c, 1, 57, 45
4, 92460, Note_on_c, 1, 53, 52
4, 92470, Note_off_c, 1, 41, 64
4, 92490, Note_off_c, 1, 53, 64
4, 92490, Note_off_c, 1, 57, 64
4, 92520, Note_on_c, 1, 53, 47
4, 92520, Note_on_c, 1, 57, 54
4, 92560, Note_off_c, 1, 57, 64
4, 92560, Note_off_c, 1, 53, 64
4, 92580, Note_on_c, 1, 57, 44
4, 92580, Note_on_c, 1, 53, 49
4, 92610, Note_off_c, 1, 53, 64
4, 92610, Note_off_c, 1, 57, 64
4, 92640, Note_on_c, 1, 53, 60
4, 92640, Note_on_c, 1, 41, 80
4, 92700, Note_off_c, 1, 53, 64
4, 92700, Note_on_c, 1, 63, 48
4, 92700, Note_on_c, 1, 60, 40
4, 92700, Note_on_c, 1, 53, 55
4, 92710, Note_off_c, 1, 41, 64
4, 92730, Note_off_c, 1, 53, 64
4, 92730, Note_off_c, 1, 60, 64
4, 92730, Note_off_c, 1, 63, 64
4, 92760, Note_on_c, 1, 63, 50
4, 92760, Note_on_c, 1, 60, 42
4, 92760, Note_on_c, 1, 53, 57
4, 92800, Note_off_c, 1, 53, 64
4, 92800, Note_off_c, 1, 60, 64
4, 92800, Note_off_c, 1, 63, 64
4, 92820, Note_on_c, 1, 63, 47
4, 92820, Note_on_c, 1, 60, 38
4, 92820, Note_on_c, 1, 53, 52
4, 92850, Note_off_c, 1, 53, 64
4, 92850, Note_off_c, 1, 60, 64
4, 92850, Note_off_c, 1, 63, 64
4, 92880, Note_on_c, 1, 53, 75
4, 92880, Note_on_c, 1, 41, 75
4, 92940, Note_off_c, 1, 53, 64
4, 92940, Note_on_c, 1, 63, 45
4, 92940, Note_on_c, 1, 60, 38
4, 92940, Note_on_c, 1, 53, 52
4, 92950, Note_off_c, 1, 41, 64
4, 92970, Note_off_c, 1, 53, 64
4, 92970, Note_off_c, 1, 60, 64
4, 92970, Note_off_c, 1, 63, 64
4, 93000, Note_on_c, 1, 63, 37
4, 93000, Note_on_c, 1, 60, 30
4, 93000, Note_on_c, 1, 53, 44
4, 93040, Note_off_c, 1, 53, 64
4, 93040, Note_off_c, 1, 60, 64
4, 93040, Note_off_c, 1, 63, 64
4, 93060, Note_on_c, 1, 63, 32
4, 93060, Note_on_c, 1, 60, 15
4, 93060, Note_on_c, 1, 53, 37
4, 93090, Note_off_c, 1, 53, 64
4, 93090, Note_off_c, 1, 60, 64
4, 93090, Note_off_c, 1, 63, 64
4, 93120, Note_on_c, 1, 41, 55
4, 93180, Note_on_c, 1, 46, 40
4, 93190, Note_off_c, 1, 41, 64
4, 93240, Note_on_c, 1, 50, 42
4, 93250, Note_off_c, 1, 46, 64
4, 93300, Note_on_c, 1, 53, 35
4, 93310, Note_off_c, 1, 50, 64
4, 93360, Note_on_c, 1, 50, 38
4, 93370, Note_off_c, 1, 53, 64
4, 93420, Note_on_c, 1, 53, 40
4, 93430, Note_off_c, 1, 50, 64
4, 93480, Note_on_c, 1, 58, 36
4, 93490, Note_off_c, 1, 53, 64
4, 93540, Note_on_c, 1, 62, 30
4, 93550, Note_off_c, 1, 58, 64
4, 93600, Note_off_c, 1, 62, 64
4, 93600, Note_on_c, 1, 41, 45
4, 93660, Note_on_c, 1, 43, 40
4, 93670, Note_off_c, 1, 41, 64
4, 93720, Note_on_c, 1, 46, 42
4, 93730, Note_off_c, 1, 43, 64
4, 93780, Note_on_c, 1, 48, 39
4, 93790, Note_off_c, 1, 46, 64
4, 93840, Note_on_c, 1, 52, 36
4, 93850, Note_off_c, 1, 48, 64
4, 93900, Note_on_c, 1, 55, 38
4, 93910, Note_off_c, 1, 52, 64
4, 93960, Note_on_c, 1, 58, 42
4, 93970, Note_off_c, 1, 55, 64
4, 94020, Note_on_c, 1, 60, 45
4, 94030, Note_off_c, 1, 58, 64
4, 94080, Note_off_c, 1, 60, 64
4, 94080, Note_on_c, 1, 53, 60
4, 94080, Note_on_c, 1, 41, 75
4, 94140, Note_off_c, 1, 53, 64
4, 94140, Note_on_c, 1, 57, 38
4, 94140, Note_on_c, 1, 53, 45
4, 94150, Note_off_c, 1, 41, 64
4, 94170, Note_off_c, 1, 53, 64
4, 94170, Note_off_c, 1, 57, 64
4, 94200, Note_on_c, 1, 57, 40
4, 94200, Note_on_c, 1, 53, 47
4, 94240, Note_off_c, 1, 53, 64
4, 94240, Note_off_c, 1, 57, 64
4, 94260, Note_on_c, 1, 57, 37
4, 94260, Note_on_c, 1, 53, 42
4, 94290, Note_off_c, 1, 53, 64
4, 94290, Note_off_c, 1, 57, 64
4, 94320, Note_on_c, 1, 53, 50
4, 94320, Note_on_c, 1, 41, 68
4, 94380, Note_off_c, 1, 53, 64
4, 94380, Note_on_c, 1, 57, 35
4, 94380, Note_on_c, 1, 53, 42
4, 94390, Note_off_c, 1, 41, 64
4, 94410, Note_off_c, 1, 53, 64
4, 94410, Note_off_c, 1, 57, 64
4, 94440, Note_on_c, 1, 53, 37
4, 94440, Note_on_c, 1, 57, 44
4, 94480, Note_off_c, 1, 57, 64
4, 94480, Note_off_c, 1, 53, 64
4, 94500, Note_on_c, 1, 57, 34
4, 94500, Note_on_c, 1, 53, 39
4, 94530, Note_off_c, 1, 53, 64
4, 94530, Note_off_c, 1, 57, 64
4, 94560, Note_on_c, 1, 53, 50
4, 94560, Note_on_c, 1, 41, 70
4, 94620, Note_off_c, 1, 53, 64
4, 94620, Note_on_c, 1, 63, 38
4, 94620, Note_on_c, 1, 60, 30
4, 94620, Note_on_c, 1, 53, 45
4, 94630, Note_off_c, 1, 41, 64
4, 94650, Note_off_c, 1, 53, 64
4, 94650, Note_off_c, 1, 60, 64
4, 94650, Note_off_c, 1, 63, 64
4, 94680, Note_on_c, 1, 63, 40
4, 94680, Note_on_c, 1, 60, 32
4, 94680, Note_on_c, 1, 53, 47
4, 94720, Note_off_c, 1, 53, 64
4, 94720, Note_off_c, 1, 60, 64
4, 94720, Note_off_c, 1, 63, 64
4, 94740, Note_on_c, 1, 63, 37
4, 94740, Note_on_c, 1, 60, 28
4, 94740, Note_on_c, 1, 53, 42
4, 94770, Note_off_c, 1, 53, 64
4, 94770, Note_off_c, 1, 60, 64
4, 94770, Note_off_c, 1, 63, 64
4, 94800, Note_on_c, 1, 63, 35
4, 94800, Note_on_c, 1, 57, 25
4, 94800, Note_on_c, 1, 53, 45
4, 94840, Note_off_c, 1, 53, 64
4, 94840, Note_off_c, 1, 57, 64
4, 94840, Note_off_c, 1, 63, 64
4, 94860, Note_on_c, 1, 63, 35
4, 94860, Note_on_c, 1, 57, 28
4, 94860, Note_on_c, 1, 53, 42
4, 94890, Note_off_c, 1, 53, 64
4, 94890, Note_off_c, 1, 57, 64
4, 94890, Note_off_c, 1, 63, 64
4, 94920, Note_on_c, 1, 63, 32
4, 94920, Note_on_c, 1, 60, 25
4, 94920, Note_on_c, 1, 53, 39
4, 94960, Note_off_c, 1, 53, 64
4, 94960, Note_off_c, 1, 60, 64
4, 94960, Note_off_c, 1, 63, 64
4, 94980, Note_on_c, 1, 63, 27
4, 94980, Note_on_c, 1, 60, 15
4, 94980, Note_on_c, 1, 53, 32
4, 95010, Note_off_c, 1, 53, 64
4, 95010, Note_off_c, 1, 60, 64
4, 95010, Note_off_c, 1, 63, 64
4, 95040, Note_on_c, 1, 41, 40
4, 95100, Note_on_c, 1, 46, 30
4, 95110, Note_off_c, 1, 41, 64
4, 95160, Note_on_c, 1, 50, 32
4, 95170, Note_off_c, 1, 46, 64
4, 95220, Note_on_c, 1, 53, 25
4, 95230, Note_off_c, 1, 50, 64
4, 95280, Note_on_c, 1, 50, 28
4, 95290, Note_off_c, 1, 53, 64
4, 95340, Note_on_c, 1, 53, 30
4, 95350, Note_off_c, 1, 50, 64
4, 95400, Note_on_c, 1, 58, 26
4, 95410, Note_off_c, 1, 53, 64
4, 95460, Note_on_c, 1, 62, 20
4, 95470, Note_off_c, 1, 58, 64
4, 95520, Note_off_c, 1, 62, 64
4, 95520, Note_on_c, 1, 41, 35
4, 95580, Note_on_c, 1, 43, 30
4, 95590, Note_off_c, 1, 41, 64
4, 95640, Note_on_c, 1, 46, 32
4, 95650, Note_off_c, 1, 43, 64
4, 95700, Note_on_c, 1, 48, 29
4, 95710, Note_off_c, 1, 46, 64
4, 95760, Note_on_c, 1, 52, 26
4, 95770, Note_off_c, 1, 48, 64
4, 95820, Note_on_c, 1, 55, 28
4, 95830, Note_off_c, 1, 52, 64
4, 95880, Note_on_c, 1, 58, 25
4, 95890, Note_off_c, 1, 55, 64
4, 95940, Note_on_c, 1, 60, 20
4, 95950, Note_off_c, 1, 58, 64
4, 95970, Note_on_c, 1, 41, 40
4, 96000, Note_off_c, 1, 60, 64
4, 96000, Note_on_c, 1, 48, 25
4, 96010, Note_on_c, 1, 57, 30
4, 96120, Note_off_c, 1, 57, 64
4, 96120, Note_off_c, 1, 48, 64
4, 96120, Note_off_c, 1, 41, 64
4, 96480, Note_on_c, 1, 60, 30
4, 96480, Note_on_c, 1, 57, 18
4, 96480, Note_on_c, 1, 53, 25
4, 96600, Note_off_c, 1, 53, 64
4, 96600, Note_off_c, 1, 57, 64
4, 96600, Note_off_c, 1, 60, 64
4, 96960, Note_on_c, 1, 65, 25
4, 96960, Note_on_c, 1, 60, 15
4, 96960, Note_on_c, 1, 57, 22
4, 96960, Note_on_c, 1, 53, 30
4, 97080, Note_off_c, 1, 53, 64
4, 97080, Note_off_c, 1, 57, 64
4, 97080, Note_off_c, 1, 60, 64
4, 97080, Note_off_c, 1, 65, 64
4, 97920, Note_on_c, 1, 84, 60
4, 98280, Note_on_c, 1, 81, 45
4, 98290, Note_off_c, 1, 84, 64
4, 98400, Note_on_c, 1, 77, 50
4, 98410, Note_off_c, 1, 81, 64
4, 98520, Note_off_c, 1, 77, 64
4, 99120, Note_on_c, 1, 41, 30
4, 99130, Note_on_c, 1, 48, 15
4, 99140, Note_on_c, 1, 57, 20
4, 99240, Note_off_c, 1, 57, 64
4, 99240, Note_off_c, 1, 48, 64
4, 99240, Note_off_c, 1, 41, 64
4, 99330, Note_on_c, 1, 41, 25
4, 99360, Note_on_c, 1, 48, 12
4, 99380, Note_on_c, 1, 57, 18
4, 99480, Note_off_c, 1, 57, 64
4, 99480, Note_off_c, 1, 48, 64
4, 99480, Note_off_c, 1, 41, 64
4, 99480, End_track
5, 0, Start_track
5, 0, Title_t, "Dumper Pedal(R.H.)"
5, 840, Control_c, 0, 64, 127
5, 960, Control_c, 0, 64, 127
5, 1450, Control_c, 0, 64, 0
5, 1460, Control_c, 0, 64, 127
5, 1920, Control_c, 0, 64, 127
5, 1930, Control_c, 0, 64, 0
5, 1940, Control_c, 0, 64, 127
5, 2410, Control_c, 0, 64, 0
5, 2420, Control_c, 0, 64, 127
5, 2880, Control_c, 0, 64, 127
5, 2890, Control_c, 0, 64, 0
5, 2900, Control_c, 0, 64, 127
5, 3130, Control_c, 0, 64, 0
5, 3140, Control_c, 0, 64, 127
5, 3370, Control_c, 0, 64, 0
5, 3380, Control_c, 0, 64, 127
5, 3610, Control_c, 0, 64, 0
5, 3620, Control_c, 0, 64, 127
5, 3840, Control_c, 0, 64, 127
5, 3850, Control_c, 0, 64, 0
5, 3860, Control_c, 0, 64, 127
5, 4340, Control_c, 0, 64, 0
5, 4800, Control_c, 0, 64, 0
5, 4820, Control_c, 0, 64, 127
5, 5300, Control_c, 0, 64, 0
5, 5420, Control_c, 0, 64, 127
5, 5530, Control_c, 0, 64, 0
5, 5540, Control_c, 0, 64, 127
5, 5650, Control_c, 0, 64, 0
5, 5660, Control_c, 0, 64, 127
5, 5760, Control_c, 0, 64, 127
5, 5770, Control_c, 0, 64, 0
5, 5780, Control_c, 0, 64, 127
5, 6260, Control_c, 0, 64, 0
5, 6380, Control_c, 0, 64, 127
5, 6490, Control_c, 0, 64, 0
5, 6500, Control_c, 0, 64, 127
5, 6610, Control_c, 0, 64, 0
5, 6620, Control_c, 0, 64, 127
5, 6720, Control_c, 0, 64, 127
5, 6730, Control_c, 0, 64, 0
5, 6740, Control_c, 0, 64, 127
5, 7210, Control_c, 0, 64, 0
5, 7220, Control_c, 0, 64, 127
5, 7450, Control_c, 0, 64, 0
5, 7460, Control_c, 0, 64, 127
5, 7680, Control_c, 0, 64, 127
5, 7690, Control_c, 0, 64, 0
5, 7700, Control_c, 0, 64, 127
5, 8180, Control_c, 0, 64, 0
5, 8640, Control_c, 0, 64, 0
5, 8660, Control_c, 0, 64, 127
5, 8890, Control_c, 0, 64, 0
5, 8900, Control_c, 0, 64, 127
5, 9130, Control_c, 0, 64, 0
5, 9140, Control_c, 0, 64, 127
5, 9370, Control_c, 0, 64, 0
5, 9380, Control_c, 0, 64, 127
5, 9600, Control_c, 0, 64, 127
5, 9610, Control_c, 0, 64, 0
5, 9620, Control_c, 0, 64, 127
5, 9850, Control_c, 0, 64, 0
5, 9860, Control_c, 0, 64, 127
5, 10090, Control_c, 0, 64, 0
5, 10100, Control_c, 0, 64, 127
5, 10330, Control_c, 0, 64, 0
5, 10340, Control_c, 0, 64, 127
5, 10560, Control_c, 0, 64, 127
5, 10570, Control_c, 0, 64, 0
5, 10580, Control_c, 0, 64, 127
5, 10810, Control_c, 0, 64, 0
5, 10820, Control_c, 0, 64, 127
5, 11050, Control_c, 0, 64, 0
5, 11060, Control_c, 0, 64, 127
5, 11290, Control_c, 0, 64, 0
5, 11300, Control_c, 0, 64, 127
5, 11520, Control_c, 0, 64, 127
5, 11530, Control_c, 0, 64, 0
5, 11540, Control_c, 0, 64, 127
5, 12010, Control_c, 0, 64, 0
5, 12020, Control_c, 0, 64, 127
5, 12460, Control_c, 0, 64, 0
5, 12480, Control_c, 0, 64, 0
5, 13100, Control_c, 0, 64, 127
5, 13210, Control_c, 0, 64, 0
5, 13220, Control_c, 0, 64, 127
5, 13330, Control_c, 0, 64, 0
5, 13340, Control_c, 0, 64, 127
5, 13440, Control_c, 0, 64, 127
5, 13450, Control_c, 0, 64, 0
5, 14060, Control_c, 0, 64, 127
5, 14170, Control_c, 0, 64, 0
5, 14180, Control_c, 0, 64, 127
5, 14290, Control_c, 0, 64, 0
5, 14300, Control_c, 0, 64, 127
5, 14400, Control_c, 0, 64, 127
5, 14410, Control_c, 0, 64, 0
5, 14420, Control_c, 0, 64, 127
5, 14650, Control_c, 0, 64, 0
5, 14660, Control_c, 0, 64, 127
5, 14890, Control_c, 0, 64, 0
5, 14900, Control_c, 0, 64, 127
5, 15130, Control_c, 0, 64, 0
5, 15140, Control_c, 0, 64, 127
5, 15360, Control_c, 0, 64, 127
5, 15370, Control_c, 0, 64, 0
5, 15620, Control_c, 0, 64, 127
5, 15860, Control_c, 0, 64, 0
5, 16100, Control_c, 0, 64, 127
5, 16320, Control_c, 0, 64, 127
5, 16340, Control_c, 0, 64, 0
5, 16580, Control_c, 0, 64, 127
5, 16820, Control_c, 0, 64, 0
5, 17280, Control_c, 0, 64, 127
5, 17290, Control_c, 0, 64, 0
5, 17300, Control_c, 0, 64, 127
5, 17770, Control_c, 0, 64, 0
5, 17780, Control_c, 0, 64, 127
5, 18010, Control_c, 0, 64, 0
5, 18020, Control_c, 0, 64, 127
5, 18240, Control_c, 0, 64, 127
5, 18250, Control_c, 0, 64, 0
5, 18500, Control_c, 0, 64, 127
5, 18740, Control_c, 0, 64, 0
5, 19080, Control_c, 0, 64, 127
5, 19200, Control_c, 0, 64, 127
5, 19690, Control_c, 0, 64, 0
5, 19700, Control_c, 0, 64, 127
5, 20160, Control_c, 0, 64, 127
5, 20170, Control_c, 0, 64, 0
5, 20180, Control_c, 0, 64, 127
5, 20650, Control_c, 0, 64, 0
5, 20660, Control_c, 0, 64, 127
5, 21120, Control_c, 0, 64, 127
5, 21130, Control_c, 0, 64, 0
5, 21140, Control_c, 0, 64, 127
5, 21610, Control_c, 0, 64, 0
5, 21620, Control_c, 0, 64, 127
5, 22080, Control_c, 0, 64, 0
5, 22100, Control_c, 0, 64, 127
5, 22570, Control_c, 0, 64, 0
5, 23040, Control_c, 0, 64, 0
5, 23080, Control_c, 0, 64, 127
5, 23530, Control_c, 0, 64, 0
5, 23540, Control_c, 0, 64, 127
5, 24000, Control_c, 0, 64, 127
5, 24010, Control_c, 0, 64, 0
5, 24020, Control_c, 0, 64, 127
5, 24490, Control_c, 0, 64, 0
5, 24500, Control_c, 0, 64, 127
5, 24960, Control_c, 0, 64, 127
5, 24970, Control_c, 0, 64, 0
5, 24980, Control_c, 0, 64, 127
5, 25210, Control_c, 0, 64, 0
5, 25220, Control_c, 0, 64, 127
5, 25690, Control_c, 0, 64, 0
5, 25700, Control_c, 0, 64, 127
5, 25920, Control_c, 0, 64, 127
5, 25930, Control_c, 0, 64, 0
5, 26880, Control_c, 0, 64, 0
5, 26900, Control_c, 0, 64, 127
5, 27370, Control_c, 0, 64, 0
5, 27380, Control_c, 0, 64, 127
5, 27840, Control_c, 0, 64, 127
5, 27850, Control_c, 0, 64, 0
5, 27860, Control_c, 0, 64, 127
5, 28330, Control_c, 0, 64, 0
5, 28340, Control_c, 0, 64, 127
5, 28800, Control_c, 0, 64, 127
5, 28810, Control_c, 0, 64, 0
5, 29760, Control_c, 0, 64, 0
5, 29780, Control_c, 0, 64, 127
5, 30260, Control_c, 0, 64, 0
5, 30720, Control_c, 0, 64, 0
5, 30740, Control_c, 0, 64, 127
5, 31220, Control_c, 0, 64, 0
5, 31230, Control_c, 0, 64, 127
5, 31580, Control_c, 0, 64, 0
5, 31680, Control_c, 0, 64, 0
5, 32180, Control_c, 0, 64, 127
5, 32640, Control_c, 0, 64, 127
5, 32650, Control_c, 0, 64, 0
5, 33140, Control_c, 0, 64, 127
5, 33370, Control_c, 0, 64, 0
5, 33380, Control_c, 0, 64, 127
5, 33600, Control_c, 0, 64, 127
5, 33610, Control_c, 0, 64, 0
5, 34100, Control_c, 0, 64, 127
5, 34560, Control_c, 0, 64, 127
5, 34570, Control_c, 0, 64, 0
5, 35060, Control_c, 0, 64, 127
5, 35290, Control_c, 0, 64, 0
5, 35300, Control_c, 0, 64, 127
5, 35520, Control_c, 0, 64, 127
5, 35530, Control_c, 0, 64, 0
5, 36480, Control_c, 0, 64, 0
5, 37440, Control_c, 0, 64, 0
5, 38400, Control_c, 0, 64, 127
5, 38890, Control_c, 0, 64, 0
5, 38900, Control_c, 0, 64, 127
5, 39360, Control_c, 0, 64, 127
5, 39370, Control_c, 0, 64, 0
5, 39380, Control_c, 0, 64, 127
5, 39610, Control_c, 0, 64, 0
5, 39620, Control_c, 0, 64, 127
5, 39850, Control_c, 0, 64, 0
5, 39860, Control_c, 0, 64, 127
5, 40320, Control_c, 0, 64, 127
5, 40330, Control_c, 0, 64, 0
5, 40340, Control_c, 0, 64, 127
5, 40570, Control_c, 0, 64, 0
5, 40580, Control_c, 0, 64, 127
5, 40810, Control_c, 0, 64, 0
5, 40820, Control_c, 0, 64, 127
5, 41050, Control_c, 0, 64, 0
5, 41060, Control_c, 0, 64, 127
5, 41280, Control_c, 0, 64, 127
5, 41290, Control_c, 0, 64, 0
5, 41300, Control_c, 0, 64, 127
5, 41780, Control_c, 0, 64, 0
5, 42240, Control_c, 0, 64, 0
5, 42260, Control_c, 0, 64, 127
5, 42740, Control_c, 0, 64, 0
5, 42860, Control_c, 0, 64, 127
5, 42970, Control_c, 0, 64, 0
5, 42980, Control_c, 0, 64, 127
5, 43090, Control_c, 0, 64, 0
5, 43100, Control_c, 0, 64, 127
5, 43200, Control_c, 0, 64, 127
5, 43210, Control_c, 0, 64, 0
5, 43220, Control_c, 0, 64, 127
5, 43700, Control_c, 0, 64, 0
5, 43820, Control_c, 0, 64, 127
5, 43930, Control_c, 0, 64, 0
5, 43940, Control_c, 0, 64, 127
5, 44050, Control_c, 0, 64, 0
5, 44060, Control_c, 0, 64, 127
5, 44160, Control_c, 0, 64, 127
5, 44170, Control_c, 0, 64, 0
5, 44180, Control_c, 0, 64, 127
5, 44650, Control_c, 0, 64, 0
5, 44660, Control_c, 0, 64, 127
5, 44890, Control_c, 0, 64, 0
5, 44900, Control_c, 0, 64, 127
5, 45120, Control_c, 0, 64, 127
5, 45130, Control_c, 0, 64, 0
5, 45140, Control_c, 0, 64, 127
5, 45620, Control_c, 0, 64, 0
5, 46080, Control_c, 0, 64, 0
5, 46100, Control_c, 0, 64, 127
5, 46330, Control_c, 0, 64, 0
5, 46340, Control_c, 0, 64, 127
5, 46570, Control_c, 0, 64, 0
5, 46580, Control_c, 0, 64, 127
5, 46810, Control_c, 0, 64, 0
5, 46820, Control_c, 0, 64, 127
5, 47040, Control_c, 0, 64, 127
5, 47050, Control_c, 0, 64, 0
5, 47060, Control_c, 0, 64, 127
5, 47290, Control_c, 0, 64, 0
5, 47300, Control_c, 0, 64, 127
5, 47530, Control_c, 0, 64, 0
5, 47540, Control_c, 0, 64, 127
5, 47770, Control_c, 0, 64, 0
5, 47780, Control_c, 0, 64, 127
5, 48000, Control_c, 0, 64, 127
5, 48010, Control_c, 0, 64, 0
5, 48020, Control_c, 0, 64, 127
5, 48250, Control_c, 0, 64, 0
5, 48260, Control_c, 0, 64, 127
5, 48490, Control_c, 0, 64, 0
5, 48500, Control_c, 0, 64, 127
5, 48730, Control_c, 0, 64, 0
5, 48740, Control_c, 0, 64, 127
5, 48960, Control_c, 0, 64, 127
5, 48970, Control_c, 0, 64, 0
5, 48980, Control_c, 0, 64, 127
5, 49450, Control_c, 0, 64, 0
5, 49460, Control_c, 0, 64, 127
5, 49900, Control_c, 0, 64, 0
5, 49920, Control_c, 0, 64, 0
5, 50540, Control_c, 0, 64, 127
5, 50650, Control_c, 0, 64, 0
5, 50660, Control_c, 0, 64, 127
5, 50770, Control_c, 0, 64, 0
5, 50780, Control_c, 0, 64, 127
5, 50880, Control_c, 0, 64, 127
5, 50890, Control_c, 0, 64, 0
5, 51500, Control_c, 0, 64, 127
5, 51610, Control_c, 0, 64, 0
5, 51620, Control_c, 0, 64, 127
5, 51730, Control_c, 0, 64, 0
5, 51740, Control_c, 0, 64, 127
5, 51840, Control_c, 0, 64, 127
5, 51850, Control_c, 0, 64, 0
5, 51860, Control_c, 0, 64, 127
5, 52090, Control_c, 0, 64, 0
5, 52100, Control_c, 0, 64, 127
5, 52330, Control_c, 0, 64, 0
5, 52340, Control_c, 0, 64, 127
5, 52570, Control_c, 0, 64, 0
5, 52580, Control_c, 0, 64, 127
5, 52800, Control_c, 0, 64, 127
5, 52810, Control_c, 0, 64, 0
5, 53060, Control_c, 0, 64, 127
5, 53300, Control_c, 0, 64, 0
5, 53540, Control_c, 0, 64, 127
5, 53760, Control_c, 0, 64, 127
5, 53780, Control_c, 0, 64, 0
5, 54020, Control_c, 0, 64, 127
5, 54260, Control_c, 0, 64, 0
5, 54720, Control_c, 0, 64, 127
5, 54730, Control_c, 0, 64, 0
5, 54740, Control_c, 0, 64, 127
5, 55210, Control_c, 0, 64, 0
5, 55220, Control_c, 0, 64, 127
5, 55450, Control_c, 0, 64, 0
5, 55460, Control_c, 0, 64, 127
5, 55680, Control_c, 0, 64, 0
5, 55700, Control_c, 0, 64, 127
5, 56170, Control_c, 0, 64, 0
5, 56180, Control_c, 0, 64, 127
5, 56640, Control_c, 0, 64, 127
5, 56650, Control_c, 0, 64, 0
5, 56660, Control_c, 0, 64, 127
5, 56890, Control_c, 0, 64, 0
5, 56900, Control_c, 0, 64, 127
5, 57130, Control_c, 0, 64, 0
5, 57140, Control_c, 0, 64, 127
5, 57370, Control_c, 0, 64, 0
5, 57380, Control_c, 0, 64, 127
5, 57600, Control_c, 0, 64, 127
5, 57610, Control_c, 0, 64, 0
5, 57620, Control_c, 0, 64, 127
5, 58090, Control_c, 0, 64, 0
5, 58100, Control_c, 0, 64, 127
5, 58550, Control_c, 0, 64, 0
5, 58560, Control_c, 0, 64, 127
5, 58640, Control_c, 0, 64, 0
5, 58800, Control_c, 0, 64, 127
5, 58880, Control_c, 0, 64, 0
5, 59040, Control_c, 0, 64, 127
5, 59120, Control_c, 0, 64, 0
5, 59280, Control_c, 0, 64, 127
5, 59360, Control_c, 0, 64, 0
5, 59520, Control_c, 0, 64, 127
5, 59600, Control_c, 0, 64, 0
5, 59760, Control_c, 0, 64, 127
5, 59840, Control_c, 0, 64, 0
5, 60000, Control_c, 0, 64, 127
5, 60080, Control_c, 0, 64, 0
5, 60240, Control_c, 0, 64, 127
5, 60320, Control_c, 0, 64, 0
5, 60480, Control_c, 0, 64, 127
5, 60560, Control_c, 0, 64, 0
5, 60720, Control_c, 0, 64, 127
5, 60800, Control_c, 0, 64, 0
5, 60960, Control_c, 0, 64, 127
5, 61040, Control_c, 0, 64, 0
5, 61200, Control_c, 0, 64, 127
5, 61280, Control_c, 0, 64, 0
5, 61440, Control_c, 0, 64, 0
5, 61460, Control_c, 0, 64, 127
5, 61930, Control_c, 0, 64, 0
5, 61940, Control_c, 0, 64, 127
5, 62400, Control_c, 0, 64, 127
5, 62410, Control_c, 0, 64, 0
5, 62420, Control_c, 0, 64, 127
5, 62650, Control_c, 0, 64, 0
5, 62660, Control_c, 0, 64, 127
5, 62890, Control_c, 0, 64, 0
5, 62900, Control_c, 0, 64, 127
5, 63130, Control_c, 0, 64, 0
5, 63140, Control_c, 0, 64, 127
5, 63360, Control_c, 0, 64, 127
5, 63370, Control_c, 0, 64, 0
5, 63380, Control_c, 0, 64, 127
5, 63610, Control_c, 0, 64, 0
5, 63620, Control_c, 0, 64, 127
5, 63850, Control_c, 0, 64, 0
5, 63860, Control_c, 0, 64, 127
5, 64090, Control_c, 0, 64, 0
5, 64100, Control_c, 0, 64, 127
5, 64220, Control_c, 0, 64, 0
5, 64320, Control_c, 0, 64, 127
5, 64330, Control_c, 0, 64, 0
5, 64340, Control_c, 0, 64, 127
5, 64570, Control_c, 0, 64, 0
5, 64580, Control_c, 0, 64, 127
5, 64810, Control_c, 0, 64, 0
5, 64820, Control_c, 0, 64, 127
5, 65050, Control_c, 0, 64, 0
5, 65060, Control_c, 0, 64, 127
5, 65280, Control_c, 0, 64, 127
5, 65290, Control_c, 0, 64, 0
5, 65300, Control_c, 0, 64, 127
5, 65410, Control_c, 0, 64, 0
5, 65420, Control_c, 0, 64, 127
5, 65530, Control_c, 0, 64, 0
5, 65540, Control_c, 0, 64, 127
5, 65650, Control_c, 0, 64, 0
5, 65660, Control_c, 0, 64, 127
5, 65770, Control_c, 0, 64, 0
5, 65780, Control_c, 0, 64, 127
5, 66010, Control_c, 0, 64, 0
5, 66020, Control_c, 0, 64, 127
5, 66240, Control_c, 0, 64, 127
5, 66250, Control_c, 0, 64, 0
5, 67200, Control_c, 0, 64, 0
5, 68160, Control_c, 0, 64, 0
5, 69120, Control_c, 0, 64, 0
5, 70080, Control_c, 0, 64, 0
5, 71040, Control_c, 0, 64, 0
5, 71060, Control_c, 0, 64, 127
5, 71180, Control_c, 0, 64, 0
5, 71540, Control_c, 0, 64, 127
5, 71660, Control_c, 0, 64, 0
5, 71780, Control_c, 0, 64, 127
5, 71900, Control_c, 0, 64, 0
5, 72000, Control_c, 0, 64, 0
5, 72020, Control_c, 0, 64, 127
5, 72140, Control_c, 0, 64, 0
5, 72500, Control_c, 0, 64, 127
5, 72620, Control_c, 0, 64, 0
5, 72740, Control_c, 0, 64, 127
5, 72860, Control_c, 0, 64, 0
5, 72960, Control_c, 0, 64, 0
5, 72980, Control_c, 0, 64, 127
5, 73100, Control_c, 0, 64, 0
5, 73220, Control_c, 0, 64, 127
5, 73340, Control_c, 0, 64, 0
5, 73460, Control_c, 0, 64, 127
5, 73580, Control_c, 0, 64, 0
5, 73700, Control_c, 0, 64, 127
5, 73820, Control_c, 0, 64, 0
5, 73920, Control_c, 0, 64, 0
5, 73940, Control_c, 0, 64, 127
5, 74060, Control_c, 0, 64, 0
5, 74180, Control_c, 0, 64, 127
5, 74300, Control_c, 0, 64, 0
5, 74420, Control_c, 0, 64, 127
5, 74540, Control_c, 0, 64, 0
5, 74660, Control_c, 0, 64, 127
5, 74780, Control_c, 0, 64, 0
5, 74880, Control_c, 0, 64, 0
5, 74900, Control_c, 0, 64, 127
5, 75020, Control_c, 0, 64, 0
5, 75140, Control_c, 0, 64, 127
5, 75260, Control_c, 0, 64, 0
5, 75380, Control_c, 0, 64, 127
5, 75500, Control_c, 0, 64, 0
5, 75840, Control_c, 0, 64, 127
5, 76330, Control_c, 0, 64, 0
5, 76340, Control_c, 0, 64, 127
5, 76800, Control_c, 0, 64, 127
5, 76810, Control_c, 0, 64, 0
5, 76820, Control_c, 0, 64, 127
5, 77050, Control_c, 0, 64, 0
5, 77060, Control_c, 0, 64, 127
5, 77290, Control_c, 0, 64, 0
5, 77300, Control_c, 0, 64, 127
5, 77760, Control_c, 0, 64, 127
5, 77770, Control_c, 0, 64, 0
5, 77780, Control_c, 0, 64, 127
5, 78010, Control_c, 0, 64, 0
5, 78020, Control_c, 0, 64, 127
5, 78250, Control_c, 0, 64, 0
5, 78260, Control_c, 0, 64, 127
5, 78490, Control_c, 0, 64, 0
5, 78500, Control_c, 0, 64, 127
5, 78720, Control_c, 0, 64, 127
5, 78730, Control_c, 0, 64, 0
5, 78740, Control_c, 0, 64, 127
5, 79210, Control_c, 0, 64, 0
5, 79220, Control_c, 0, 64, 127
5, 79650, Control_c, 0, 64, 0
5, 79680, Control_c, 0, 64, 0
5, 79700, Control_c, 0, 64, 127
5, 80180, Control_c, 0, 64, 0
5, 80300, Control_c, 0, 64, 127
5, 80410, Control_c, 0, 64, 0
5, 80420, Control_c, 0, 64, 127
5, 80530, Control_c, 0, 64, 0
5, 80540, Control_c, 0, 64, 127
5, 80640, Control_c, 0, 64, 127
5, 80650, Control_c, 0, 64, 0
5, 80660, Control_c, 0, 64, 127
5, 81140, Control_c, 0, 64, 0
5, 81260, Control_c, 0, 64, 127
5, 81370, Control_c, 0, 64, 0
5, 81380, Control_c, 0, 64, 127
5, 81490, Control_c, 0, 64, 0
5, 81500, Control_c, 0, 64, 127
5, 81600, Control_c, 0, 64, 127
5, 81610, Control_c, 0, 64, 0
5, 81620, Control_c, 0, 64, 127
5, 81850, Control_c, 0, 64, 0
5, 81860, Control_c, 0, 64, 127
5, 82090, Control_c, 0, 64, 0
5, 82100, Control_c, 0, 64, 127
5, 82330, Control_c, 0, 64, 0
5, 82340, Control_c, 0, 64, 127
5, 82560, Control_c, 0, 64, 127
5, 82570, Control_c, 0, 64, 0
5, 82810, Control_c, 0, 64, 127
5, 83050, Control_c, 0, 64, 0
5, 83290, Control_c, 0, 64, 127
5, 83520, Control_c, 0, 64, 127
5, 83530, Control_c, 0, 64, 0
5, 83770, Control_c, 0, 64, 127
5, 84010, Control_c, 0, 64, 0
5, 84480, Control_c, 0, 64, 0
5, 84500, Control_c, 0, 64, 127
5, 84730, Control_c, 0, 64, 0
5, 84740, Control_c, 0, 64, 127
5, 84970, Control_c, 0, 64, 0
5, 84980, Control_c, 0, 64, 127
5, 85210, Control_c, 0, 64, 0
5, 85220, Control_c, 0, 64, 127
5, 85440, Control_c, 0, 64, 0
5, 86400, Control_c, 0, 64, 0
5, 87360, Control_c, 0, 64, 0
5, 87380, Control_c, 0, 64, 127
5, 87610, Control_c, 0, 64, 0
5, 87620, Control_c, 0, 64, 127
5, 87850, Control_c, 0, 64, 0
5, 87860, Control_c, 0, 64, 127
5, 88090, Control_c, 0, 64, 0
5, 88100, Control_c, 0, 64, 127
5, 88320, Control_c, 0, 64, 127
5, 88330, Control_c, 0, 64, 0
5, 88340, Control_c, 0, 64, 127
5, 88450, Control_c, 0, 64, 0
5, 88820, Control_c, 0, 64, 127
5, 88930, Control_c, 0, 64, 0
5, 89280, Control_c, 0, 64, 0
5, 89300, Control_c, 0, 64, 127
5, 89770, Control_c, 0, 64, 0
5, 89780, Control_c, 0, 64, 127
5, 90240, Control_c, 0, 64, 127
5, 90250, Control_c, 0, 64, 0
5, 90260, Control_c, 0, 64, 127
5, 90490, Control_c, 0, 64, 0
5, 91200, Control_c, 0, 64, 0
5, 91220, Control_c, 0, 64, 127
5, 91700, Control_c, 0, 64, 0
5, 91710, Control_c, 0, 64, 127
5, 92120, Control_c, 0, 64, 0
5, 92160, Control_c, 0, 64, 0
5, 92180, Control_c, 0, 64, 127
5, 92410, Control_c, 0, 64, 0
5, 92420, Control_c, 0, 64, 127
5, 92650, Control_c, 0, 64, 0
5, 92660, Control_c, 0, 64, 127
5, 92890, Control_c, 0, 64, 0
5, 92900, Control_c, 0, 64, 127
5, 93120, Control_c, 0, 64, 127
5, 93130, Control_c, 0, 64, 0
5, 93140, Control_c, 0, 64, 127
5, 93610, Control_c, 0, 64, 0
5, 93620, Control_c, 0, 64, 127
5, 94080, Control_c, 0, 64, 127
5, 94090, Control_c, 0, 64, 0
5, 94100, Control_c, 0, 64, 127
5, 94330, Control_c, 0, 64, 0
5, 94340, Control_c, 0, 64, 127
5, 94570, Control_c, 0, 64, 0
5, 94580, Control_c, 0, 64, 127
5, 95040, Control_c, 0, 64, 127
5, 95050, Control_c, 0, 64, 0
5, 95060, Control_c, 0, 64, 127
5, 95530, Control_c, 0, 64, 0
5, 95540, Control_c, 0, 64, 127
5, 96000, Control_c, 0, 64, 127
5, 96010, Control_c, 0, 64, 0
5, 96960, Control_c, 0, 64, 0
5, 97460, Control_c, 0, 64, 127
5, 97920, Control_c, 0, 64, 127
5, 98880, Control_c, 0, 64, 127
5, 98890, Control_c, 0, 64, 0
5, 98890, End_track
6, 0, Start_track
6, 0, Title_t, "Dumper Pedal(L.H.)"
6, 840, Control_c, 1, 64, 127
6, 960, Control_c, 1, 64, 127
6, 1450, Control_c, 1, 64, 0
6, 1460, Control_c, 1, 64, 127
6, 1920, Control_c, 1, 64, 127
6, 1930, Control_c, 1, 64, 0
6, 1940, Control_c, 1, 64, 127
6, 2410, Control_c, 1, 64, 0
6, 2420, Control_c, 1, 64, 127
6, 2880, Control_c, 1, 64, 127
6, 2890, Control_c, 1, 64, 0
6, 2900, Control_c, 1, 64, 127
6, 3130, Control_c, 1, 64, 0
6, 3140, Control_c, 1, 64, 127
6, 3370, Control_c, 1, 64, 0
6, 3380, Control_c, 1, 64, 127
6, 3610, Control_c, 1, 64, 0
6, 3620, Control_c, 1, 64, 127
6, 3840, Control_c, 1, 64, 127
6, 3850, Control_c, 1, 64, 0
6, 3860, Control_c, 1, 64, 127
6, 4340, Control_c, 1, 64, 0
6, 4800, Control_c, 1, 64, 0
6, 4820, Control_c, 1, 64, 127
6, 5300, Control_c, 1, 64, 0
6, 5420, Control_c, 1, 64, 127
6, 5530, Control_c, 1, 64, 0
6, 5540, Control_c, 1, 64, 127
6, 5650, Control_c, 1, 64, 0
6, 5660, Control_c, 1, 64, 127
6, 5760, Control_c, 1, 64, 127
6, 5770, Control_c, 1, 64, 0
6, 5780, Control_c, 1, 64, 127
6, 6260, Control_c, 1, 64, 0
6, 6380, Control_c, 1, 64, 127
6, 6490, Control_c, 1, 64, 0
6, 6500, Control_c, 1, 64, 127
6, 6610, Control_c, 1, 64, 0
6, 6620, Control_c, 1, 64, 127
6, 6720, Control_c, 1, 64, 127
6, 6730, Control_c, 1, 64, 0
6, 6740, Control_c, 1, 64, 127
6, 7210, Control_c, 1, 64, 0
6, 7220, Control_c, 1, 64, 127
6, 7450, Control_c, 1, 64, 0
6, 7460, Control_c, 1, 64, 127
6, 7680, Control_c, 1, 64, 127
6, 7690, Control_c, 1, 64, 0
6, 7700, Control_c, 1, 64, 127
6, 8180, Control_c, 1, 64, 0
6, 8640, Control_c, 1, 64, 0
6, 8660, Control_c, 1, 64, 127
6, 8890, Control_c, 1, 64, 0
6, 8900, Control_c, 1, 64, 127
6, 9130, Control_c, 1, 64, 0
6, 9140, Control_c, 1, 64, 127
6, 9370, Control_c, 1, 64, 0
6, 9380, Control_c, 1, 64, 127
6, 9600, Control_c, 1, 64, 127
6, 9610, Control_c, 1, 64, 0
6, 9620, Control_c, 1, 64, 127
6, 9850, Control_c, 1, 64, 0
6, 9860, Control_c, 1, 64, 127
6, 10090, Control_c, 1, 64, 0
6, 10100, Control_c, 1, 64, 127
6, 10330, Control_c, 1, 64, 0
6, 10340, Control_c, 1, 64, 127
6, 10560, Control_c, 1, 64, 127
6, 10570, Control_c, 1, 64, 0
6, 10580, Control_c, 1, 64, 127
6, 10810, Control_c, 1, 64, 0
6, 10820, Control_c, 1, 64, 127
6, 11050, Control_c, 1, 64, 0
6, 11060, Control_c, 1, 64, 127
6, 11290, Control_c, 1, 64, 0
6, 11300, Control_c, 1, 64, 127
6, 11520, Control_c, 1, 64, 127
6, 11530, Control_c, 1, 64, 0
6, 11540, Control_c, 1, 64, 127
6, 12010, Control_c, 1, 64, 0
6, 12020, Control_c, 1, 64, 127
6, 12460, Control_c, 1, 64, 0
6, 12480, Control_c, 1, 64, 0
6, 13100, Control_c, 1, 64, 127
6, 13210, Control_c, 1, 64, 0
6, 13220, Control_c, 1, 64, 127
6, 13330, Control_c, 1, 64, 0
6, 13340, Control_c, 1, 64, 127
6, 13440, Control_c, 1, 64, 127
6, 13450, Control_c, 1, 64, 0
6, 14060, Control_c, 1, 64, 127
6, 14170, Control_c, 1, 64, 0
6, 14180, Control_c, 1, 64, 127
6, 14290, Control_c, 1, 64, 0
6, 14300, Control_c, 1, 64, 127
6, 14400, Control_c, 1, 64, 127
6, 14410, Control_c, 1, 64, 0
6, 14420, Control_c, 1, 64, 127
6, 14650, Control_c, 1, 64, 0
6, 14660, Control_c, 1, 64, 127
6, 14890, Control_c, 1, 64, 0
6, 14900, Control_c, 1, 64, 127
6, 15130, Control_c, 1, 64, 0
6, 15140, Control_c, 1, 64, 127
6, 15360, Control_c, 1, 64, 127
6, 15370, Control_c, 1, 64, 0
6, 15620, Control_c, 1, 64, 127
6, 15860, Control_c, 1, 64, 0
6, 16100, Control_c, 1, 64, 127
6, 16320, Control_c, 1, 64, 127
6, 16340, Control_c, 1, 64, 0
6, 16580, Control_c, 1, 64, 127
6, 16820, Control_c, 1, 64, 0
6, 17280, Control_c, 1, 64, 127
6, 17290, Control_c, 1, 64, 0
6, 17300, Control_c, 1, 64, 127
6, 17770, Control_c, 1, 64, 0
6, 17780, Control_c, 1, 64, 127
6, 18010, Control_c, 1, 64, 0
6, 18020, Control_c, 1, 64, 127
6, 18240, Control_c, 1, 64, 127
6, 18250, Control_c, 1, 64, 0
6, 18500, Control_c, 1, 64, 127
6, 18740, Control_c, 1, 64, 0
6, 19080, Control_c, 1, 64, 127
6, 19200, Control_c, 1, 64, 127
6, 19690, Control_c, 1, 64, 0
6, 19700, Control_c, 1, 64, 127
6, 20160, Control_c, 1, 64, 127
6, 20170, Control_c, 1, 64, 0
6, 20180, Control_c, 1, 64, 127
6, 20650, Control_c, 1, 64, 0
6, 20660, Control_c, 1, 64, 127
6, 21120, Control_c, 1, 64, 127
6, 21130, Control_c, 1, 64, 0
6, 21140, Control_c, 1, 64, 127
6, 21610, Control_c, 1, 64, 0
6, 21620, Control_c, 1, 64, 127
6, 22080, Control_c, 1, 64, 0
6, 22100, Control_c, 1, 64, 127
6, 22570, Control_c, 1, 64, 0
6, 23040, Control_c, 1, 64, 0
6, 23080, Control_c, 1, 64, 127
6, 23530, Control_c, 1, 64, 0
6, 23540, Control_c, 1, 64, 127
6, 24000, Control_c, 1, 64, 127
6, 24010, Control_c, 1, 64, 0
6, 24020, Control_c, 1, 64, 127
6, 24490, Control_c, 1, 64, 0
6, 24500, Control_c, 1, 64, 127
6, 24960, Control_c, 1, 64, 127
6, 24970, Control_c, 1, 64, 0
6, 24980, Control_c, 1, 64, 127
6, 25210, Control_c, 1, 64, 0
6, 25220, Control_c, 1, 64, 127
6, 25690, Control_c, 1, 64, 0
6, 25700, Control_c, 1, 64, 127
6, 25920, Control_c, 1, 64, 127
6, 25930, Control_c, 1, 64, 0
6, 26880, Control_c, 1, 64, 0
6, 26900, Control_c, 1, 64, 127
6, 27370, Control_c, 1, 64, 0
6, 27380, Control_c, 1, 64, 127
6, 27840, Control_c, 1, 64, 127
6, 27850, Control_c, 1, 64, 0
6, 27860, Control_c, 1, 64, 127
6, 28330, Control_c, 1, 64, 0
6, 28340, Control_c, 1, 64, 127
6, 28800, Control_c, 1, 64, 127
6, 28810, Control_c, 1, 64, 0
6, 29760, Control_c, 1, 64, 0
6, 29780, Control_c, 1, 64, 127
6, 30260, Control_c, 1, 64, 0
6, 30720, Control_c, 1, 64, 0
6, 30740, Control_c, 1, 64, 127
6, 31220, Control_c, 1, 64, 0
6, 31230, Control_c, 1, 64, 127
6, 31580, Control_c, 1, 64, 0
6, 31680, Control_c, 1, 64, 0
6, 32180, Control_c, 1, 64, 127
6, 32640, Control_c, 1, 64, 127
6, 32650, Control_c, 1, 64, 0
6, 33140, Control_c, 1, 64, 127
6, 33370, Control_c, 1, 64, 0
6, 33380, Control_c, 1, 64, 127
6, 33600, Control_c, 1, 64, 127
6, 33610, Control_c, 1, 64, 0
6, 34100, Control_c, 1, 64, 127
6, 34560, Control_c, 1, 64, 127
6, 34570, Control_c, 1, 64, 0
6, 35060, Control_c, 1, 64, 127
6, 35290, Control_c, 1, 64, 0
6, 35300, Control_c, 1, 64, 127
6, 35520, Control_c, 1, 64, 127
6, 35530, Control_c, 1, 64, 0
6, 35540, Control_c, 1, 64, 127
6, 35660, Control_c, 1, 64, 0
6, 35780, Control_c, 1, 64, 127
6, 35900, Control_c, 1, 64, 0
6, 36020, Control_c, 1, 64, 127
6, 36140, Control_c, 1, 64, 0
6, 36260, Control_c, 1, 64, 127
6, 36380, Control_c, 1, 64, 0
6, 36480, Control_c, 1, 64, 0
6, 36500, Control_c, 1, 64, 127
6, 36620, Control_c, 1, 64, 0
6, 36740, Control_c, 1, 64, 127
6, 36860, Control_c, 1, 64, 0
6, 36980, Control_c, 1, 64, 127
6, 37100, Control_c, 1, 64, 0
6, 37220, Control_c, 1, 64, 127
6, 37340, Control_c, 1, 64, 0
6, 37440, Control_c, 1, 64, 0
6, 37460, Control_c, 1, 64, 127
6, 37580, Control_c, 1, 64, 0
6, 37700, Control_c, 1, 64, 127
6, 37820, Control_c, 1, 64, 0
6, 38400, Control_c, 1, 64, 127
6, 38890, Control_c, 1, 64, 0
6, 38900, Control_c, 1, 64, 127
6, 39360, Control_c, 1, 64, 127
6, 39370, Control_c, 1, 64, 0
6, 39380, Control_c, 1, 64, 127
6, 39610, Control_c, 1, 64, 0
6, 39620, Control_c, 1, 64, 127
6, 39850, Control_c, 1, 64, 0
6, 39860, Control_c, 1, 64, 127
6, 40320, Control_c, 1, 64, 127
6, 40330, Control_c, 1, 64, 0
6, 40340, Control_c, 1, 64, 127
6, 40570, Control_c, 1, 64, 0
6, 40580, Control_c, 1, 64, 127
6, 40810, Control_c, 1, 64, 0
6, 40820, Control_c, 1, 64, 127
6, 41050, Control_c, 1, 64, 0
6, 41060, Control_c, 1, 64, 127
6, 41280, Control_c, 1, 64, 127
6, 41290, Control_c, 1, 64, 0
6, 41300, Control_c, 1, 64, 127
6, 41780, Control_c, 1, 64, 0
6, 42240, Control_c, 1, 64, 0
6, 42260, Control_c, 1, 64, 127
6, 42740, Control_c, 1, 64, 0
6, 42860, Control_c, 1, 64, 127
6, 42970, Control_c, 1, 64, 0
6, 42980, Control_c, 1, 64, 127
6, 43090, Control_c, 1, 64, 0
6, 43100, Control_c, 1, 64, 127
6, 43200, Control_c, 1, 64, 127
6, 43210, Control_c, 1, 64, 0
6, 43220, Control_c, 1, 64, 127
6, 43700, Control_c, 1, 64, 0
6, 43820, Control_c, 1, 64, 127
6, 43930, Control_c, 1, 64, 0
6, 43940, Control_c, 1, 64, 127
6, 44050, Control_c, 1, 64, 0
6, 44060, Control_c, 1, 64, 127
6, 44160, Control_c, 1, 64, 127
6, 44170, Control_c, 1, 64, 0
6, 44180, Control_c, 1, 64, 127
6, 44650, Control_c, 1, 64, 0
6, 44660, Control_c, 1, 64, 127
6, 44890, Control_c, 1, 64, 0
6, 44900, Control_c, 1, 64, 127
6, 45120, Control_c, 1, 64, 127
6, 45130, Control_c, 1, 64, 0
6, 45140, Control_c, 1, 64, 127
6, 45620, Control_c, 1, 64, 0
6, 46080, Control_c, 1, 64, 0
6, 46100, Control_c, 1, 64, 127
6, 46330, Control_c, 1, 64, 0
6, 46340, Control_c, 1, 64, 127
6, 46570, Control_c, 1, 64, 0
6, 46580, Control_c, 1, 64, 127
6, 46810, Control_c, 1, 64, 0
6, 46820, Control_c, 1, 64, 127
6, 47040, Control_c, 1, 64, 127
6, 47050, Control_c, 1, 64, 0
6, 47060, Control_c, 1, 64, 127
6, 47290, Control_c, 1, 64, 0
6, 47300, Control_c, 1, 64, 127
6, 47530, Control_c, 1, 64, 0
6, 47540, Control_c, 1, 64, 127
6, 47770, Control_c, 1, 64, 0
6, 47780, Control_c, 1, 64, 127
6, 48000, Control_c, 1, 64, 127
6, 48010, Control_c, 1, 64, 0
6, 48020, Control_c, 1, 64, 127
6, 48250, Control_c, 1, 64, 0
6, 48260, Control_c, 1, 64, 127
6, 48490, Control_c, 1, 64, 0
6, 48500, Control_c, 1, 64, 127
6, 48730, Control_c, 1, 64, 0
6, 48740, Control_c, 1, 64, 127
6, 48960, Control_c, 1, 64, 127
6, 48970, Control_c, 1, 64, 0
6, 48980, Control_c, 1, 64, 127
6, 49450, Control_c, 1, 64, 0
6, 49460, Control_c, 1, 64, 127
6, 49900, Control_c, 1, 64, 0
6, 49920, Control_c, 1, 64, 0
6, 50540, Control_c, 1, 64, 127
6, 50650, Control_c, 1, 64, 0
6, 50660, Control_c, 1, 64, 127
6, 50770, Control_c, 1, 64, 0
6, 50780, Control_c, 1, 64, 127
6, 50880, Control_c, 1, 64, 127
6, 50890, Control_c, 1, 64, 0
6, 51500, Control_c, 1, 64, 127
6, 51610, Control_c, 1, 64, 0
6, 51620, Control_c, 1, 64, 127
6, 51730, Control_c, 1, 64, 0
6, 51740, Control_c, 1, 64, 127
6, 51840, Control_c, 1, 64, 127
6, 51850, Control_c, 1, 64, 0
6, 51860, Control_c, 1, 64, 127
6, 52090, Control_c, 1, 64, 0
6, 52100, Control_c, 1, 64, 127
6, 52330, Control_c, 1, 64, 0
6, 52340, Control_c, 1, 64, 127
6, 52570, Control_c, 1, 64, 0
6, 52580, Control_c, 1, 64, 127
6, 52800, Control_c, 1, 64, 127
6, 52810, Control_c, 1, 64, 0
6, 53060, Control_c, 1, 64, 127
6, 53300, Control_c, 1, 64, 0
6, 53540, Control_c, 1, 64, 127
6, 53760, Control_c, 1, 64, 127
6, 53780, Control_c, 1, 64, 0
6, 54020, Control_c, 1, 64, 127
6, 54260, Control_c, 1, 64, 0
6, 54720, Control_c, 1, 64, 127
6, 54730, Control_c, 1, 64, 0
6, 54740, Control_c, 1, 64, 127
6, 55210, Control_c, 1, 64, 0
6, 55220, Control_c, 1, 64, 127
6, 55450, Control_c, 1, 64, 0
6, 55460, Control_c, 1, 64, 127
6, 55680, Control_c, 1, 64, 0
6, 55700, Control_c, 1, 64, 127
6, 56170, Control_c, 1, 64, 0
6, 56180, Control_c, 1, 64, 127
6, 56640, Control_c, 1, 64, 127
6, 56650, Control_c, 1, 64, 0
6, 56660, Control_c, 1, 64, 127
6, 56890, Control_c, 1, 64, 0
6, 56900, Control_c, 1, 64, 127
6, 57130, Control_c, 1, 64, 0
6, 57140, Control_c, 1, 64, 127
6, 57370, Control_c, 1, 64, 0
6, 57380, Control_c, 1, 64, 127
6, 57600, Control_c, 1, 64, 127
6, 57610, Control_c, 1, 64, 0
6, 57620, Control_c, 1, 64, 127
6, 58090, Control_c, 1, 64, 0
6, 58100, Control_c, 1, 64, 127
6, 58550, Control_c, 1, 64, 0
6, 58560, Control_c, 1, 64, 127
6, 58640, Control_c, 1, 64, 0
6, 58800, Control_c, 1, 64, 127
6, 58880, Control_c, 1, 64, 0
6, 59040, Control_c, 1, 64, 127
6, 59120, Control_c, 1, 64, 0
6, 59280, Control_c, 1, 64, 127
6, 59360, Control_c, 1, 64, 0
6, 59520, Control_c, 1, 64, 127
6, 59600, Control_c, 1, 64, 0
6, 59760, Control_c, 1, 64, 127
6, 59840, Control_c, 1, 64, 0
6, 60000, Control_c, 1, 64, 127
6, 60080, Control_c, 1, 64, 0
6, 60240, Control_c, 1, 64, 127
6, 60320, Control_c, 1, 64, 0
6, 60480, Control_c, 1, 64, 127
6, 60560, Control_c, 1, 64, 0
6, 60720, Control_c, 1, 64, 127
6, 60800, Control_c, 1, 64, 0
6, 60960, Control_c, 1, 64, 127
6, 61040, Control_c, 1, 64, 0
6, 61200, Control_c, 1, 64, 127
6, 61280, Control_c, 1, 64, 0
6, 61440, Control_c, 1, 64, 127
6, 61450, Control_c, 1, 64, 0
6, 61460, Control_c, 1, 64, 127
6, 61930, Control_c, 1, 64, 0
6, 61940, Control_c, 1, 64, 127
6, 62400, Control_c, 1, 64, 127
6, 62410, Control_c, 1, 64, 0
6, 62420, Control_c, 1, 64, 127
6, 62650, Control_c, 1, 64, 0
6, 62660, Control_c, 1, 64, 127
6, 62890, Control_c, 1, 64, 0
6, 62900, Control_c, 1, 64, 127
6, 63130, Control_c, 1, 64, 0
6, 63140, Control_c, 1, 64, 127
6, 63360, Control_c, 1, 64, 127
6, 63370, Control_c, 1, 64, 0
6, 63380, Control_c, 1, 64, 127
6, 63610, Control_c, 1, 64, 0
6, 63620, Control_c, 1, 64, 127
6, 63850, Control_c, 1, 64, 0
6, 63860, Control_c, 1, 64, 127
6, 64090, Control_c, 1, 64, 0
6, 64100, Control_c, 1, 64, 127
6, 64220, Control_c, 1, 64, 0
6, 64320, Control_c, 1, 64, 127
6, 64330, Control_c, 1, 64, 0
6, 64340, Control_c, 1, 64, 127
6, 64570, Control_c, 1, 64, 0
6, 64580, Control_c, 1, 64, 127
6, 64810, Control_c, 1, 64, 0
6, 64820, Control_c, 1, 64, 127
6, 65050, Control_c, 1, 64, 0
6, 65060, Control_c, 1, 64, 127
6, 65280, Control_c, 1, 64, 127
6, 65290, Control_c, 1, 64, 0
6, 65300, Control_c, 1, 64, 127
6, 65410, Control_c, 1, 64, 0
6, 65420, Control_c, 1, 64, 127
6, 65530, Control_c, 1, 64, 0
6, 65540, Control_c, 1, 64, 127
6, 65650, Control_c, 1, 64, 0
6, 65660, Control_c, 1, 64, 127
6, 65770, Control_c, 1, 64, 0
6, 65780, Control_c, 1, 64, 127
6, 66010, Control_c, 1, 64, 0
6, 66020, Control_c, 1, 64, 127
6, 66240, Control_c, 1, 64, 127
6, 66250, Control_c, 1, 64, 0
6, 67200, Control_c, 1, 64, 0
6, 68160, Control_c, 1, 64, 0
6, 69120, Control_c, 1, 64, 0
6, 70080, Control_c, 1, 64, 0
6, 71040, Control_c, 1, 64, 0
6, 71060, Control_c, 1, 64, 127
6, 71180, Control_c, 1, 64, 0
6, 71540, Control_c, 1, 64, 127
6, 71660, Control_c, 1, 64, 0
6, 71780, Control_c, 1, 64, 127
6, 71900, Control_c, 1, 64, 0
6, 72000, Control_c, 1, 64, 0
6, 72020, Control_c, 1, 64, 127
6, 72140, Control_c, 1, 64, 0
6, 72500, Control_c, 1, 64, 127
6, 72620, Control_c, 1, 64, 0
6, 72740, Control_c, 1, 64, 127
6, 72860, Control_c, 1, 64, 0
6, 72960, Control_c, 1, 64, 0
6, 72980, Control_c, 1, 64, 127
6, 73100, Control_c, 1, 64, 0
6, 73220, Control_c, 1, 64, 127
6, 73340, Control_c, 1, 64, 0
6, 73460, Control_c, 1, 64, 127
6, 73580, Control_c, 1, 64, 0
6, 73700, Control_c, 1, 64, 127
6, 73820, Control_c, 1, 64, 0
6, 73920, Control_c, 1, 64, 0
6, 73940, Control_c, 1, 64, 127
6, 74060, Control_c, 1, 64, 0
6, 74180, Control_c, 1, 64, 127
6, 74300, Control_c, 1, 64, 0
6, 74420, Control_c, 1, 64, 127
6, 74540, Control_c, 1, 64, 0
6, 74660, Control_c, 1, 64, 127
6, 74780, Control_c, 1, 64, 0
6, 74880, Control_c, 1, 64, 0
6, 74900, Control_c, 1, 64, 127
6, 75020, Control_c, 1, 64, 0
6, 75140, Control_c, 1, 64, 127
6, 75260, Control_c, 1, 64, 0
6, 75380, Control_c, 1, 64, 127
6, 75500, Control_c, 1, 64, 0
6, 75840, Control_c, 1, 64, 127
6, 76330, Control_c, 1, 64, 0
6, 76340, Control_c, 1, 64, 127
6, 76800, Control_c, 1, 64, 127
6, 76810, Control_c, 1, 64, 0
6, 76820, Control_c, 1, 64, 127
6, 77050, Control_c, 1, 64, 0
6, 77060, Control_c, 1, 64, 127
6, 77290, Control_c, 1, 64, 0
6, 77300, Control_c, 1, 64, 127
6, 77760, Control_c, 1, 64, 127
6, 77770, Control_c, 1, 64, 0
6, 77780, Control_c, 1, 64, 127
6, 78010, Control_c, 1, 64, 0
6, 78020, Control_c, 1, 64, 127
6, 78250, Control_c, 1, 64, 0
6, 78260, Control_c, 1, 64, 127
6, 78490, Control_c, 1, 64, 0
6, 78500, Control_c, 1, 64, 127
6, 78720, Control_c, 1, 64, 127
6, 78730, Control_c, 1, 64, 0
6, 78740, Control_c, 1, 64, 127
6, 79210, Control_c, 1, 64, 0
6, 79220, Control_c, 1, 64, 127
6, 79650, Control_c, 1, 64, 0
6, 79680, Control_c, 1, 64, 0
6, 79700, Control_c, 1, 64, 127
6, 80180, Control_c, 1, 64, 0
6, 80300, Control_c, 1, 64, 127
6, 80410, Control_c, 1, 64, 0
6, 80420, Control_c, 1, 64, 127
6, 80530, Control_c, 1, 64, 0
6, 80540, Control_c, 1, 64, 127
6, 80640, Control_c, 1, 64, 127
6, 80650, Control_c, 1, 64, 0
6, 80660, Control_c, 1, 64, 127
6, 81140, Control_c, 1, 64, 0
6, 81260, Control_c, 1, 64, 127
6, 81370, Control_c, 1, 64, 0
6, 81380, Control_c, 1, 64, 127
6, 81490, Control_c, 1, 64, 0
6, 81500, Control_c, 1, 64, 127
6, 81600, Control_c, 1, 64, 127
6, 81610, Control_c, 1, 64, 0
6, 81620, Control_c, 1, 64, 127
6, 82090, Control_c, 1, 64, 0
6, 82100, Control_c, 1, 64, 127
6, 82330, Control_c, 1, 64, 0
6, 82340, Control_c, 1, 64, 127
6, 82560, Control_c, 1, 64, 127
6, 82570, Control_c, 1, 64, 0
6, 82810, Control_c, 1, 64, 127
6, 83050, Control_c, 1, 64, 0
6, 83290, Control_c, 1, 64, 127
6, 83520, Control_c, 1, 64, 127
6, 83530, Control_c, 1, 64, 0
6, 83770, Control_c, 1, 64, 127
6, 84010, Control_c, 1, 64, 0
6, 84480, Control_c, 1, 64, 0
6, 84500, Control_c, 1, 64, 127
6, 84730, Control_c, 1, 64, 0
6, 84740, Control_c, 1, 64, 127
6, 84970, Control_c, 1, 64, 0
6, 84980, Control_c, 1, 64, 127
6, 85210, Control_c, 1, 64, 0
6, 85220, Control_c, 1, 64, 127
6, 85440, Control_c, 1, 64, 0
6, 86400, Control_c, 1, 64, 0
6, 87360, Control_c, 1, 64, 0
6, 87380, Control_c, 1, 64, 127
6, 87610, Control_c, 1, 64, 0
6, 87620, Control_c, 1, 64, 127
6, 87850, Control_c, 1, 64, 0
6, 87860, Control_c, 1, 64, 127
6, 88090, Control_c, 1, 64, 0
6, 88100, Control_c, 1, 64, 127
6, 88320, Control_c, 1, 64, 127
6, 88330, Control_c, 1, 64, 0
6, 88340, Control_c, 1, 64, 127
6, 88450, Control_c, 1, 64, 0
6, 88820, Control_c, 1, 64, 127
6, 88930, Control_c, 1, 64, 0
6, 89280, Control_c, 1, 64, 0
6, 89300, Control_c, 1, 64, 127
6, 89770, Control_c, 1, 64, 0
6, 89780, Control_c, 1, 64, 127
6, 90240, Control_c, 1, 64, 127
6, 90250, Control_c, 1, 64, 0
6, 90260, Control_c, 1, 64, 127
6, 90490, Control_c, 1, 64, 0
6, 91200, Control_c, 1, 64, 0
6, 91220, Control_c, 1, 64, 127
6, 91700, Control_c, 1, 64, 0
6, 91710, Control_c, 1, 64, 127
6, 92120, Control_c, 1, 64, 0
6, 92160, Control_c, 1, 64, 0
6, 92180, Control_c, 1, 64, 127
6, 92410, Control_c, 1, 64, 0
6, 92420, Control_c, 1, 64, 127
6, 92650, Control_c, 1, 64, 0
6, 92660, Control_c, 1, 64, 127
6, 92890, Control_c, 1, 64, 0
6, 92900, Control_c, 1, 64, 127
6, 93120, Control_c, 1, 64, 127
6, 93130, Control_c, 1, 64, 0
6, 93140, Control_c, 1, 64, 127
6, 93610, Control_c, 1, 64, 0
6, 93620, Control_c, 1, 64, 127
6, 94080, Control_c, 1, 64, 127
6, 94090, Control_c, 1, 64, 0
6, 94100, Control_c, 1, 64, 127
6, 94330, Control_c, 1, 64, 0
6, 94340, Control_c, 1, 64, 127
6, 94570, Control_c, 1, 64, 0
6, 94580, Control_c, 1, 64, 127
6, 95040, Control_c, 1, 64, 127
6, 95050, Control_c, 1, 64, 0
6, 95060, Control_c, 1, 64, 127
6, 95530, Control_c, 1, 64, 0
6, 95540, Control_c, 1, 64, 127
6, 96000, Control_c, 1, 64, 127
6, 96010, Control_c, 1, 64, 0
6, 96960, Control_c, 1, 64, 0
6, 97460, Control_c, 1, 64, 127
6, 97920, Control_c, 1, 64, 127
6, 98880, Control_c, 1, 64, 127
6, 98890, Control_c, 1, 64, 0
6, 98890, End_track
0, 0, End_of_file