0, 0, Header, 1, 5, 192
1, 0, Start_track
1, 0, Title_t, "String Quartet No.2 - I"
1, 0, Text_t, "By Ludwig van Beethoven"
1, 0, Copyright_t, "Copyright \251 2000 by S.E.Edwards"
1, 0, Copyright_t, "All Rights Reserved"
1, 0, Text_t, "Generated by NoteWorthy Composer"
1, 0, Tempo, 588235
1, 0, Key_signature, 1, "major"
1, 0, Time_signature, 2, 2, 24, 8
1, 31104, Tempo, 588235
1, 31104, End_track
2, 0, Start_track
2, 0, MIDI_port, 0
2, 0, Title_t, "Violino I."
2, 0, Program_c, 1, 0
2, 0, Control_c, 1, 7, 127
2, 0, Control_c, 1, 10, 64
2, 0, Note_on_c, 1, 74, 45
2, 192, Note_on_c, 1, 74, 0
2, 192, Note_on_c, 1, 71, 45
2, 216, Note_on_c, 1, 71, 0
2, 216, Note_on_c, 1, 72, 45
2, 240, Note_on_c, 1, 72, 0
2, 240, Note_on_c, 1, 71, 45
2, 264, Note_on_c, 1, 71, 0
2, 264, Note_on_c, 1, 72, 45
2, 288, Note_on_c, 1, 72, 0
2, 288, Note_on_c, 1, 74, 45
2, 312, Note_on_c, 1, 74, 0
2, 312, Note_on_c, 1, 76, 45
2, 336, Note_on_c, 1, 76, 0
2, 336, Note_on_c, 1, 78, 45
2, 360, Note_on_c, 1, 78, 0
2, 360, Note_on_c, 1, 79, 45
2, 382, Note_on_c, 1, 79, 0
2, 384, Note_on_c, 1, 74, 45
2, 544, Note_on_c, 1, 74, 0
2, 744, Note_on_c, 1, 71, 45
2, 766, Note_on_c, 1, 71, 0
2, 768, Note_on_c, 1, 74, 45
2, 790, Note_on_c, 1, 74, 0
2, 792, Note_on_c, 1, 72, 45
2, 862, Note_on_c, 1, 72, 0
2, 936, Note_on_c, 1, 72, 60
2, 958, Note_on_c, 1, 72, 0
2, 960, Note_on_c, 1, 69, 60
2, 1054, Note_on_c, 1, 69, 0
2, 1128, Note_on_c, 1, 66, 60
2, 1150, Note_on_c, 1, 66, 0
2, 1152, Note_on_c, 1, 62, 60
2, 1312, Note_on_c, 1, 62, 0
2, 1440, Note_on_c, 1, 62, 45
2, 1534, Note_on_c, 1, 62, 0
2, 1536, Note_on_c, 1, 67, 45
2, 1728, Note_on_c, 1, 67, 0
2, 1728, Note_on_c, 1, 69, 45
2, 1776, Note_on_c, 1, 69, 0
2, 1776, Note_on_c, 1, 71, 45
2, 1824, Note_on_c, 1, 71, 0
2, 1824, Note_on_c, 1, 72, 45
2, 1872, Note_on_c, 1, 72, 0
2, 1872, Note_on_c, 1, 69, 45
2, 1918, Note_on_c, 1, 69, 0
2, 1920, Note_on_c, 1, 74, 45
2, 2112, Note_on_c, 1, 74, 0
2, 2112, Note_on_c, 1, 79, 45
2, 2206, Note_on_c, 1, 79, 0
2, 2208, Note_on_c, 1, 62, 45
2, 2302, Note_on_c, 1, 62, 0
2, 2304, Note_on_c, 1, 67, 45
2, 2496, Note_on_c, 1, 67, 0
2, 2496, Note_on_c, 1, 69, 45
2, 2544, Note_on_c, 1, 69, 0
2, 2544, Note_on_c, 1, 71, 45
2, 2592, Note_on_c, 1, 71, 0
2, 2592, Note_on_c, 1, 72, 45
2, 2640, Note_on_c, 1, 72, 0
2, 2640, Note_on_c, 1, 69, 45
2, 2686, Note_on_c, 1, 69, 0
2, 2688, Note_on_c, 1, 67, 45
2, 2782, Note_on_c, 1, 67, 0
2, 3072, Note_on_c, 1, 71, 92
2, 3072, Note_on_c, 1, 83, 92
2, 3232, Note_on_c, 1, 71, 0
2, 3232, Note_on_c, 1, 83, 0
2, 3264, Note_on_c, 1, 81, 92
2, 3288, Note_on_c, 1, 81, 0
2, 3288, Note_on_c, 1, 79, 92
2, 3312, Note_on_c, 1, 79, 0
2, 3312, Note_on_c, 1, 78, 92
2, 3336, Note_on_c, 1, 78, 0
2, 3336, Note_on_c, 1, 79, 92
2, 3360, Note_on_c, 1, 79, 0
2, 3360, Note_on_c, 1, 78, 92
2, 3384, Note_on_c, 1, 78, 0
2, 3384, Note_on_c, 1, 79, 92
2, 3408, Note_on_c, 1, 79, 0
2, 3408, Note_on_c, 1, 83, 92
2, 3432, Note_on_c, 1, 83, 0
2, 3432, Note_on_c, 1, 79, 92
2, 3454, Note_on_c, 1, 79, 0
2, 3456, Note_on_c, 1, 74, 92
2, 3550, Note_on_c, 1, 74, 0
2, 3816, Note_on_c, 1, 62, 60
2, 3838, Note_on_c, 1, 62, 0
2, 3840, Note_on_c, 1, 67, 60
2, 3934, Note_on_c, 1, 67, 0
2, 4008, Note_on_c, 1, 67, 60
2, 4030, Note_on_c, 1, 67, 0
2, 4032, Note_on_c, 1, 71, 60
2, 4126, Note_on_c, 1, 71, 0
2, 4200, Note_on_c, 1, 71, 60
2, 4222, Note_on_c, 1, 71, 0
2, 4224, Note_on_c, 1, 74, 60
2, 4318, Note_on_c, 1, 74, 0
2, 4608, Note_on_c, 1, 62, 92
2, 4608, Note_on_c, 1, 71, 92
2, 4608, Note_on_c, 1, 83, 92
2, 4768, Note_on_c, 1, 62, 0
2, 4768, Note_on_c, 1, 71, 0
2, 4768, Note_on_c, 1, 83, 0
2, 4800, Note_on_c, 1, 81, 92
2, 4824, Note_on_c, 1, 81, 0
2, 4824, Note_on_c, 1, 79, 92
2, 4848, Note_on_c, 1, 79, 0
2, 4848, Note_on_c, 1, 78, 92
2, 4872, Note_on_c, 1, 78, 0
2, 4872, Note_on_c, 1, 79, 92
2, 4896, Note_on_c, 1, 79, 0
2, 4896, Note_on_c, 1, 78, 92
2, 4920, Note_on_c, 1, 78, 0
2, 4920, Note_on_c, 1, 79, 92
2, 4944, Note_on_c, 1, 79, 0
2, 4944, Note_on_c, 1, 83, 92
2, 4968, Note_on_c, 1, 83, 0
2, 4968, Note_on_c, 1, 79, 92
2, 4990, Note_on_c, 1, 79, 0
2, 4992, Note_on_c, 1, 74, 92
2, 5152, Note_on_c, 1, 74, 0
2, 5352, Note_on_c, 1, 74, 45
2, 5374, Note_on_c, 1, 74, 0
2, 5376, Note_on_c, 1, 79, 45
2, 5470, Note_on_c, 1, 79, 0
2, 5544, Note_on_c, 1, 79, 45
2, 5566, Note_on_c, 1, 79, 0
2, 5568, Note_on_c, 1, 83, 45
2, 5662, Note_on_c, 1, 83, 0
2, 5736, Note_on_c, 1, 83, 45
2, 5758, Note_on_c, 1, 83, 0
2, 5760, Note_on_c, 1, 86, 45
2, 5854, Note_on_c, 1, 86, 0
2, 6144, Note_on_c, 1, 72, 45
2, 6480, Note_on_c, 1, 72, 0
2, 6528, Note_on_c, 1, 84, 92
2, 6744, Note_on_c, 1, 84, 0
2, 6744, Note_on_c, 1, 83, 88
2, 6768, Note_on_c, 1, 83, 0
2, 6768, Note_on_c, 1, 81, 84
2, 6792, Note_on_c, 1, 81, 0
2, 6792, Note_on_c, 1, 79, 80
2, 6816, Note_on_c, 1, 79, 0
2, 6816, Note_on_c, 1, 78, 76
2, 6840, Note_on_c, 1, 78, 0
2, 6840, Note_on_c, 1, 76, 72
2, 6864, Note_on_c, 1, 76, 0
2, 6864, Note_on_c, 1, 74, 68
2, 6888, Note_on_c, 1, 74, 0
2, 6888, Note_on_c, 1, 72, 64
2, 6910, Note_on_c, 1, 72, 0
2, 6912, Note_on_c, 1, 71, 60
2, 7006, Note_on_c, 1, 71, 0
2, 7080, Note_on_c, 1, 79, 45
2, 7102, Note_on_c, 1, 79, 0
2, 7104, Note_on_c, 1, 69, 45
2, 7198, Note_on_c, 1, 69, 0
2, 7272, Note_on_c, 1, 74, 45
2, 7294, Note_on_c, 1, 74, 0
2, 7296, Note_on_c, 1, 67, 60
2, 7390, Note_on_c, 1, 67, 0
2, 7680, Note_on_c, 1, 62, 108
2, 7728, Note_on_c, 1, 62, 0
2, 7872, Note_on_c, 1, 62, 108
2, 7920, Note_on_c, 1, 62, 0
2, 8064, Note_on_c, 1, 67, 127
2, 8320, Note_on_c, 1, 67, 0
2, 8352, Note_on_c, 1, 71, 45
2, 8400, Note_on_c, 1, 71, 0
2, 8400, Note_on_c, 1, 67, 45
2, 8446, Note_on_c, 1, 67, 0
2, 8448, Note_on_c, 1, 67, 45
2, 8496, Note_on_c, 1, 67, 0
2, 8496, Note_on_c, 1, 66, 45
2, 8542, Note_on_c, 1, 66, 0
2, 8544, Note_on_c, 1, 69, 45
2, 8592, Note_on_c, 1, 69, 0
2, 8592, Note_on_c, 1, 66, 45
2, 8638, Note_on_c, 1, 66, 0
2, 8640, Note_on_c, 1, 69, 45
2, 8688, Note_on_c, 1, 69, 0
2, 8688, Note_on_c, 1, 67, 45
2, 8734, Note_on_c, 1, 67, 0
2, 8736, Note_on_c, 1, 71, 45
2, 8784, Note_on_c, 1, 71, 0
2, 8784, Note_on_c, 1, 67, 45
2, 8830, Note_on_c, 1, 67, 0
2, 8832, Note_on_c, 1, 74, 45
2, 8926, Note_on_c, 1, 74, 0
2, 9888, Note_on_c, 1, 79, 45
2, 9936, Note_on_c, 1, 79, 0
2, 9936, Note_on_c, 1, 76, 45
2, 9982, Note_on_c, 1, 76, 0
2, 9984, Note_on_c, 1, 76, 45
2, 10032, Note_on_c, 1, 76, 0
2, 10032, Note_on_c, 1, 75, 45
2, 10078, Note_on_c, 1, 75, 0
2, 10080, Note_on_c, 1, 78, 45
2, 10128, Note_on_c, 1, 78, 0
2, 10128, Note_on_c, 1, 75, 45
2, 10174, Note_on_c, 1, 75, 0
2, 10176, Note_on_c, 1, 78, 45
2, 10224, Note_on_c, 1, 78, 0
2, 10224, Note_on_c, 1, 76, 45
2, 10270, Note_on_c, 1, 76, 0
2, 10272, Note_on_c, 1, 79, 45
2, 10320, Note_on_c, 1, 79, 0
2, 10320, Note_on_c, 1, 76, 45
2, 10366, Note_on_c, 1, 76, 0
2, 10368, Note_on_c, 1, 83, 45
2, 10528, Note_on_c, 1, 83, 0
2, 10656, Note_on_c, 1, 79, 45
2, 10704, Note_on_c, 1, 79, 0
2, 10704, Note_on_c, 1, 76, 45
2, 10750, Note_on_c, 1, 76, 0
2, 10752, Note_on_c, 1, 74, 45
2, 10800, Note_on_c, 1, 74, 0
2, 10800, Note_on_c, 1, 73, 45
2, 10846, Note_on_c, 1, 73, 0
2, 10848, Note_on_c, 1, 76, 45
2, 10896, Note_on_c, 1, 76, 0
2, 10896, Note_on_c, 1, 73, 45
2, 10942, Note_on_c, 1, 73, 0
2, 10944, Note_on_c, 1, 76, 45
2, 10992, Note_on_c, 1, 76, 0
2, 10992, Note_on_c, 1, 74, 45
2, 11038, Note_on_c, 1, 74, 0
2, 11040, Note_on_c, 1, 78, 45
2, 11088, Note_on_c, 1, 78, 0
2, 11088, Note_on_c, 1, 74, 45
2, 11134, Note_on_c, 1, 74, 0
2, 11136, Note_on_c, 1, 81, 45
2, 11296, Note_on_c, 1, 81, 0
2, 11424, Note_on_c, 1, 77, 45
2, 11472, Note_on_c, 1, 77, 0
2, 11472, Note_on_c, 1, 74, 45
2, 11518, Note_on_c, 1, 74, 0
2, 11520, Note_on_c, 1, 74, 45
2, 11568, Note_on_c, 1, 74, 0
2, 11568, Note_on_c, 1, 73, 45
2, 11614, Note_on_c, 1, 73, 0
2, 11616, Note_on_c, 1, 76, 45
2, 11664, Note_on_c, 1, 76, 0
2, 11664, Note_on_c, 1, 73, 45
2, 11710, Note_on_c, 1, 73, 0
2, 11712, Note_on_c, 1, 76, 45
2, 11760, Note_on_c, 1, 76, 0
2, 11760, Note_on_c, 1, 74, 45
2, 11806, Note_on_c, 1, 74, 0
2, 11808, Note_on_c, 1, 77, 45
2, 11856, Note_on_c, 1, 77, 0
2, 11856, Note_on_c, 1, 74, 45
2, 11902, Note_on_c, 1, 74, 0
2, 11904, Note_on_c, 1, 81, 45
2, 11950, Note_on_c, 1, 81, 0
2, 11952, Note_on_c, 1, 69, 47
2, 11998, Note_on_c, 1, 69, 0
2, 12000, Note_on_c, 1, 81, 50
2, 12142, Note_on_c, 1, 81, 0
2, 12144, Note_on_c, 1, 69, 59
2, 12190, Note_on_c, 1, 69, 0
2, 12192, Note_on_c, 1, 81, 62
2, 12334, Note_on_c, 1, 81, 0
2, 12336, Note_on_c, 1, 69, 71
2, 12382, Note_on_c, 1, 69, 0
2, 12384, Note_on_c, 1, 81, 74
2, 12526, Note_on_c, 1, 81, 0
2, 12528, Note_on_c, 1, 69, 83
2, 12574, Note_on_c, 1, 69, 0
2, 12576, Note_on_c, 1, 81, 86
2, 12702, Note_on_c, 1, 81, 0
2, 12704, Note_on_c, 1, 69, 92
2, 12725, Note_on_c, 1, 69, 0
2, 12736, Note_on_c, 1, 73, 92
2, 12757, Note_on_c, 1, 73, 0
2, 12768, Note_on_c, 1, 76, 92
2, 12789, Note_on_c, 1, 76, 0
2, 12800, Note_on_c, 1, 81, 92
2, 12821, Note_on_c, 1, 81, 0
2, 12832, Note_on_c, 1, 85, 92
2, 12853, Note_on_c, 1, 85, 0
2, 12864, Note_on_c, 1, 88, 92
2, 12885, Note_on_c, 1, 88, 0
2, 12896, Note_on_c, 1, 85, 92
2, 12917, Note_on_c, 1, 85, 0
2, 12928, Note_on_c, 1, 81, 92
2, 12949, Note_on_c, 1, 81, 0
2, 12960, Note_on_c, 1, 76, 92
2, 12981, Note_on_c, 1, 76, 0
2, 12992, Note_on_c, 1, 73, 92
2, 13013, Note_on_c, 1, 73, 0
2, 13024, Note_on_c, 1, 69, 92
2, 13045, Note_on_c, 1, 69, 0
2, 13056, Note_on_c, 1, 57, 108
2, 13216, Note_on_c, 1, 57, 0
2, 13344, Note_on_c, 1, 69, 45
2, 13438, Note_on_c, 1, 69, 0
2, 13440, Note_on_c, 1, 78, 45
2, 13488, Note_on_c, 1, 78, 0
2, 13632, Note_on_c, 1, 76, 45
2, 13680, Note_on_c, 1, 76, 0
2, 13824, Note_on_c, 1, 81, 63
2, 14080, Note_on_c, 1, 81, 0
2, 14112, Note_on_c, 1, 79, 45
2, 14206, Note_on_c, 1, 79, 0
2, 14208, Note_on_c, 1, 78, 45
2, 14240, Note_on_c, 1, 78, 0
2, 14304, Note_on_c, 1, 76, 45
2, 14336, Note_on_c, 1, 76, 0
2, 14400, Note_on_c, 1, 74, 45
2, 14432, Note_on_c, 1, 74, 0
2, 14496, Note_on_c, 1, 76, 45
2, 14528, Note_on_c, 1, 76, 0
2, 14592, Note_on_c, 1, 69, 45
2, 14624, Note_on_c, 1, 69, 0
2, 14640, Note_on_c, 1, 69, 45
2, 14672, Note_on_c, 1, 69, 0
2, 14688, Note_on_c, 1, 71, 45
2, 14720, Note_on_c, 1, 71, 0
2, 14736, Note_on_c, 1, 73, 45
2, 14768, Note_on_c, 1, 73, 0
2, 14784, Note_on_c, 1, 74, 45
2, 14816, Note_on_c, 1, 74, 0
2, 14832, Note_on_c, 1, 75, 45
2, 14864, Note_on_c, 1, 75, 0
2, 14880, Note_on_c, 1, 76, 45
2, 14912, Note_on_c, 1, 76, 0
2, 14928, Note_on_c, 1, 78, 45
2, 14960, Note_on_c, 1, 78, 0
2, 14976, Note_on_c, 1, 79, 45
2, 15024, Note_on_c, 1, 79, 0
2, 15168, Note_on_c, 1, 78, 45
2, 15216, Note_on_c, 1, 78, 0
2, 15360, Note_on_c, 1, 83, 63
2, 15616, Note_on_c, 1, 83, 0
2, 15648, Note_on_c, 1, 86, 45
2, 15664, Note_on_c, 1, 86, 0
2, 15664, Note_on_c, 1, 85, 45
2, 15680, Note_on_c, 1, 85, 0
2, 15680, Note_on_c, 1, 86, 45
2, 15696, Note_on_c, 1, 86, 0
2, 15696, Note_on_c, 1, 85, 45
2, 15712, Note_on_c, 1, 85, 0
2, 15712, Note_on_c, 1, 83, 45
2, 15728, Note_on_c, 1, 83, 0
2, 15728, Note_on_c, 1, 85, 45
2, 15744, Note_on_c, 1, 85, 0
2, 15744, Note_on_c, 1, 86, 45
2, 15776, Note_on_c, 1, 86, 0
2, 15840, Note_on_c, 1, 88, 45
2, 15872, Note_on_c, 1, 88, 0
2, 15936, Note_on_c, 1, 81, 45
2, 15968, Note_on_c, 1, 81, 0
2, 16032, Note_on_c, 1, 85, 45
2, 16064, Note_on_c, 1, 85, 0
2, 16128, Note_on_c, 1, 86, 45
2, 16222, Note_on_c, 1, 86, 0
2, 16560, Note_on_c, 1, 69, 45
2, 16592, Note_on_c, 1, 69, 0
2, 16608, Note_on_c, 1, 71, 45
2, 16640, Note_on_c, 1, 71, 0
2, 16656, Note_on_c, 1, 73, 45
2, 16688, Note_on_c, 1, 73, 0
2, 16704, Note_on_c, 1, 74, 45
2, 16736, Note_on_c, 1, 74, 0
2, 16752, Note_on_c, 1, 76, 45
2, 16784, Note_on_c, 1, 76, 0
2, 16800, Note_on_c, 1, 78, 45
2, 16832, Note_on_c, 1, 78, 0
2, 16848, Note_on_c, 1, 79, 45
2, 16880, Note_on_c, 1, 79, 0
2, 16896, Note_on_c, 1, 81, 45
2, 16942, Note_on_c, 1, 81, 0
2, 16944, Note_on_c, 1, 81, 45
2, 16990, Note_on_c, 1, 81, 0
2, 16992, Note_on_c, 1, 83, 45
2, 17038, Note_on_c, 1, 83, 0
2, 17040, Note_on_c, 1, 85, 45
2, 17086, Note_on_c, 1, 85, 0
2, 17088, Note_on_c, 1, 86, 45
2, 17134, Note_on_c, 1, 86, 0
2, 17136, Note_on_c, 1, 88, 45
2, 17182, Note_on_c, 1, 88, 0
2, 17184, Note_on_c, 1, 90, 45
2, 17230, Note_on_c, 1, 90, 0
2, 17232, Note_on_c, 1, 91, 45
2, 17278, Note_on_c, 1, 91, 0
2, 17280, Note_on_c, 1, 93, 45
2, 17326, Note_on_c, 1, 93, 0
2, 17328, Note_on_c, 1, 93, 45
2, 17374, Note_on_c, 1, 93, 0
2, 17376, Note_on_c, 1, 93, 45
2, 17422, Note_on_c, 1, 93, 0
2, 17424, Note_on_c, 1, 93, 45
2, 17470, Note_on_c, 1, 93, 0
2, 17472, Note_on_c, 1, 93, 45
2, 17518, Note_on_c, 1, 93, 0
2, 17520, Note_on_c, 1, 92, 45
2, 17566, Note_on_c, 1, 92, 0
2, 17568, Note_on_c, 1, 90, 45
2, 17614, Note_on_c, 1, 90, 0
2, 17616, Note_on_c, 1, 92, 45
2, 17662, Note_on_c, 1, 92, 0
2, 17664, Note_on_c, 1, 93, 45
2, 17758, Note_on_c, 1, 93, 0
2, 18096, Note_on_c, 1, 71, 45
2, 18128, Note_on_c, 1, 71, 0
2, 18144, Note_on_c, 1, 73, 45
2, 18176, Note_on_c, 1, 73, 0
2, 18192, Note_on_c, 1, 75, 45
2, 18224, Note_on_c, 1, 75, 0
2, 18240, Note_on_c, 1, 76, 45
2, 18272, Note_on_c, 1, 76, 0
2, 18288, Note_on_c, 1, 78, 45
2, 18320, Note_on_c, 1, 78, 0
2, 18336, Note_on_c, 1, 79, 45
2, 18368, Note_on_c, 1, 79, 0
2, 18384, Note_on_c, 1, 81, 45
2, 18416, Note_on_c, 1, 81, 0
2, 18432, Note_on_c, 1, 83, 45
2, 18478, Note_on_c, 1, 83, 0
2, 18480, Note_on_c, 1, 83, 45
2, 18526, Note_on_c, 1, 83, 0
2, 18528, Note_on_c, 1, 85, 45
2, 18574, Note_on_c, 1, 85, 0
2, 18576, Note_on_c, 1, 87, 45
2, 18622, Note_on_c, 1, 87, 0
2, 18624, Note_on_c, 1, 88, 45
2, 18670, Note_on_c, 1, 88, 0
2, 18672, Note_on_c, 1, 90, 45
2, 18718, Note_on_c, 1, 90, 0
2, 18720, Note_on_c, 1, 91, 45
2, 18766, Note_on_c, 1, 91, 0
2, 18768, Note_on_c, 1, 93, 45
2, 18814, Note_on_c, 1, 93, 0
2, 18816, Note_on_c, 1, 95, 92
2, 18862, Note_on_c, 1, 95, 0
2, 18864, Note_on_c, 1, 83, 87
2, 18910, Note_on_c, 1, 83, 0
2, 18912, Note_on_c, 1, 83, 81
2, 18958, Note_on_c, 1, 83, 0
2, 18960, Note_on_c, 1, 83, 75
2, 19006, Note_on_c, 1, 83, 0
2, 19008, Note_on_c, 1, 83, 69
2, 19054, Note_on_c, 1, 83, 0
2, 19056, Note_on_c, 1, 83, 63
2, 19102, Note_on_c, 1, 83, 0
2, 19104, Note_on_c, 1, 83, 57
2, 19150, Note_on_c, 1, 83, 0
2, 19152, Note_on_c, 1, 83, 51
2, 19198, Note_on_c, 1, 83, 0
2, 19200, Note_on_c, 1, 82, 45
2, 19294, Note_on_c, 1, 82, 0
2, 19368, Note_on_c, 1, 66, 45
2, 19390, Note_on_c, 1, 66, 0
2, 19392, Note_on_c, 1, 78, 45
2, 19488, Note_on_c, 1, 78, 0
2, 19488, Note_on_c, 1, 76, 45
2, 19680, Note_on_c, 1, 76, 0
2, 19680, Note_on_c, 1, 74, 45
2, 19726, Note_on_c, 1, 74, 0
2, 19752, Note_on_c, 1, 66, 45
2, 19774, Note_on_c, 1, 66, 0
2, 19776, Note_on_c, 1, 78, 45
2, 19872, Note_on_c, 1, 78, 0
2, 19872, Note_on_c, 1, 76, 45
2, 20064, Note_on_c, 1, 76, 0
2, 20064, Note_on_c, 1, 74, 45
2, 20110, Note_on_c, 1, 74, 0
2, 20136, Note_on_c, 1, 66, 45
2, 20158, Note_on_c, 1, 66, 0
2, 20160, Note_on_c, 1, 78, 45
2, 20256, Note_on_c, 1, 78, 0
2, 20256, Note_on_c, 1, 76, 46
2, 20448, Note_on_c, 1, 76, 0
2, 20448, Note_on_c, 1, 74, 50
2, 20542, Note_on_c, 1, 74, 0
2, 20544, Note_on_c, 1, 75, 72
2, 20704, Note_on_c, 1, 75, 0
2, 20736, Note_on_c, 1, 76, 56
2, 20808, Note_on_c, 1, 76, 0
2, 20808, Note_on_c, 1, 71, 57
2, 20832, Note_on_c, 1, 71, 0
2, 20832, Note_on_c, 1, 79, 57
2, 20904, Note_on_c, 1, 79, 0
2, 20904, Note_on_c, 1, 76, 58
2, 20926, Note_on_c, 1, 76, 0
2, 20928, Note_on_c, 1, 74, 58
2, 21022, Note_on_c, 1, 74, 0
2, 21024, Note_on_c, 1, 74, 60
2, 21040, Note_on_c, 1, 74, 0
2, 21040, Note_on_c, 1, 73, 60
2, 21056, Note_on_c, 1, 73, 0
2, 21056, Note_on_c, 1, 74, 60
2, 21072, Note_on_c, 1, 74, 0
2, 21072, Note_on_c, 1, 73, 60
2, 21088, Note_on_c, 1, 73, 0
2, 21088, Note_on_c, 1, 71, 60
2, 21104, Note_on_c, 1, 71, 0
2, 21104, Note_on_c, 1, 73, 60
2, 21118, Note_on_c, 1, 73, 0
2, 21120, Note_on_c, 1, 74, 60
2, 21214, Note_on_c, 1, 74, 0
2, 21408, Note_on_c, 1, 78, 66
2, 21552, Note_on_c, 1, 78, 0
2, 21552, Note_on_c, 1, 82, 69
2, 21600, Note_on_c, 1, 82, 0
2, 21600, Note_on_c, 1, 83, 70
2, 21648, Note_on_c, 1, 83, 0
2, 21648, Note_on_c, 1, 79, 71
2, 21694, Note_on_c, 1, 79, 0
2, 21696, Note_on_c, 1, 78, 72
2, 21728, Note_on_c, 1, 78, 0
2, 21792, Note_on_c, 1, 78, 74
2, 21936, Note_on_c, 1, 78, 0
2, 21936, Note_on_c, 1, 82, 77
2, 21984, Note_on_c, 1, 82, 0
2, 21984, Note_on_c, 1, 83, 78
2, 22032, Note_on_c, 1, 83, 0
2, 22032, Note_on_c, 1, 79, 79
2, 22078, Note_on_c, 1, 79, 0
2, 22080, Note_on_c, 1, 78, 80
2, 22112, Note_on_c, 1, 78, 0
2, 22176, Note_on_c, 1, 78, 83
2, 22320, Note_on_c, 1, 78, 0
2, 22320, Note_on_c, 1, 83, 87
2, 22368, Note_on_c, 1, 83, 0
2, 22368, Note_on_c, 1, 82, 88
2, 22416, Note_on_c, 1, 82, 0
2, 22416, Note_on_c, 1, 83, 90
2, 22462, Note_on_c, 1, 83, 0
2, 22464, Note_on_c, 1, 84, 127
2, 22704, Note_on_c, 1, 84, 0
2, 22704, Note_on_c, 1, 83, 92
2, 22752, Note_on_c, 1, 83, 0
2, 22752, Note_on_c, 1, 81, 92
2, 22776, Note_on_c, 1, 81, 0
2, 22776, Note_on_c, 1, 79, 92
2, 22800, Note_on_c, 1, 79, 0
2, 22800, Note_on_c, 1, 78, 92
2, 22824, Note_on_c, 1, 78, 0
2, 22824, Note_on_c, 1, 76, 92
2, 22846, Note_on_c, 1, 76, 0
2, 22848, Note_on_c, 1, 74, 92
2, 22942, Note_on_c, 1, 74, 0
2, 22944, Note_on_c, 1, 74, 92
2, 22960, Note_on_c, 1, 74, 0
2, 22960, Note_on_c, 1, 73, 92
2, 22976, Note_on_c, 1, 73, 0
2, 22976, Note_on_c, 1, 74, 92
2, 22992, Note_on_c, 1, 74, 0
2, 22992, Note_on_c, 1, 73, 92
2, 23008, Note_on_c, 1, 73, 0
2, 23008, Note_on_c, 1, 71, 92
2, 23024, Note_on_c, 1, 71, 0
2, 23024, Note_on_c, 1, 73, 92
2, 23038, Note_on_c, 1, 73, 0
2, 23040, Note_on_c, 1, 74, 92
2, 23134, Note_on_c, 1, 74, 0
2, 24000, Note_on_c, 1, 76, 45
2, 24021, Note_on_c, 1, 76, 0
2, 24032, Note_on_c, 1, 78, 45
2, 24053, Note_on_c, 1, 78, 0
2, 24064, Note_on_c, 1, 79, 45
2, 24085, Note_on_c, 1, 79, 0
2, 24096, Note_on_c, 1, 81, 45
2, 24117, Note_on_c, 1, 81, 0
2, 24128, Note_on_c, 1, 83, 45
2, 24149, Note_on_c, 1, 83, 0
2, 24160, Note_on_c, 1, 85, 45
2, 24181, Note_on_c, 1, 85, 0
2, 24192, Note_on_c, 1, 86, 45
2, 24224, Note_on_c, 1, 86, 0
2, 24240, Note_on_c, 1, 86, 45
2, 24288, Note_on_c, 1, 86, 0
2, 24288, Note_on_c, 1, 81, 45
2, 24336, Note_on_c, 1, 81, 0
2, 24336, Note_on_c, 1, 90, 45
2, 24382, Note_on_c, 1, 90, 0
2, 24384, Note_on_c, 1, 88, 45
2, 24416, Note_on_c, 1, 88, 0
2, 24432, Note_on_c, 1, 88, 45
2, 24480, Note_on_c, 1, 88, 0
2, 24480, Note_on_c, 1, 85, 45
2, 24528, Note_on_c, 1, 85, 0
2, 24528, Note_on_c, 1, 91, 45
2, 24574, Note_on_c, 1, 91, 0
2, 24576, Note_on_c, 1, 90, 45
2, 24608, Note_on_c, 1, 90, 0
2, 24624, Note_on_c, 1, 90, 45
2, 24672, Note_on_c, 1, 90, 0
2, 24672, Note_on_c, 1, 86, 45
2, 24720, Note_on_c, 1, 86, 0
2, 24720, Note_on_c, 1, 93, 45
2, 24766, Note_on_c, 1, 93, 0
2, 25536, Note_on_c, 1, 76, 45
2, 25557, Note_on_c, 1, 76, 0
2, 25568, Note_on_c, 1, 78, 45
2, 25589, Note_on_c, 1, 78, 0
2, 25600, Note_on_c, 1, 79, 45
2, 25621, Note_on_c, 1, 79, 0
2, 25632, Note_on_c, 1, 81, 45
2, 25653, Note_on_c, 1, 81, 0
2, 25664, Note_on_c, 1, 83, 45
2, 25685, Note_on_c, 1, 83, 0
2, 25696, Note_on_c, 1, 85, 45
2, 25717, Note_on_c, 1, 85, 0
2, 25728, Note_on_c, 1, 86, 45
2, 25749, Note_on_c, 1, 86, 0
2, 25760, Note_on_c, 1, 88, 45
2, 25781, Note_on_c, 1, 88, 0
2, 25792, Note_on_c, 1, 86, 45
2, 25813, Note_on_c, 1, 86, 0
2, 25824, Note_on_c, 1, 82, 45
2, 25845, Note_on_c, 1, 82, 0
2, 25856, Note_on_c, 1, 83, 45
2, 25877, Note_on_c, 1, 83, 0
2, 25888, Note_on_c, 1, 82, 45
2, 25909, Note_on_c, 1, 82, 0
2, 25920, Note_on_c, 1, 83, 45
2, 25941, Note_on_c, 1, 83, 0
2, 25952, Note_on_c, 1, 84, 45
2, 25973, Note_on_c, 1, 84, 0
2, 25984, Note_on_c, 1, 83, 45
2, 26005, Note_on_c, 1, 83, 0
2, 26016, Note_on_c, 1, 78, 45
2, 26037, Note_on_c, 1, 78, 0
2, 26048, Note_on_c, 1, 79, 45
2, 26069, Note_on_c, 1, 79, 0
2, 26080, Note_on_c, 1, 78, 45
2, 26101, Note_on_c, 1, 78, 0
2, 26112, Note_on_c, 1, 79, 45
2, 26142, Note_on_c, 1, 79, 0
2, 26144, Note_on_c, 1, 81, 45
2, 26174, Note_on_c, 1, 81, 0
2, 26176, Note_on_c, 1, 79, 45
2, 26206, Note_on_c, 1, 79, 0
2, 26208, Note_on_c, 1, 75, 45
2, 26238, Note_on_c, 1, 75, 0
2, 26240, Note_on_c, 1, 76, 45
2, 26270, Note_on_c, 1, 76, 0
2, 26272, Note_on_c, 1, 75, 45
2, 26302, Note_on_c, 1, 75, 0
2, 26304, Note_on_c, 1, 76, 45
2, 26334, Note_on_c, 1, 76, 0
2, 26336, Note_on_c, 1, 78, 45
2, 26366, Note_on_c, 1, 78, 0
2, 26368, Note_on_c, 1, 76, 45
2, 26398, Note_on_c, 1, 76, 0
2, 26400, Note_on_c, 1, 74, 45
2, 26430, Note_on_c, 1, 74, 0
2, 26432, Note_on_c, 1, 76, 45
2, 26462, Note_on_c, 1, 76, 0
2, 26464, Note_on_c, 1, 74, 45
2, 26494, Note_on_c, 1, 74, 0
2, 26496, Note_on_c, 1, 73, 45
2, 26526, Note_on_c, 1, 73, 0
2, 26528, Note_on_c, 1, 74, 45
2, 26558, Note_on_c, 1, 74, 0
2, 26560, Note_on_c, 1, 73, 45
2, 26590, Note_on_c, 1, 73, 0
2, 26592, Note_on_c, 1, 71, 45
2, 26622, Note_on_c, 1, 71, 0
2, 26624, Note_on_c, 1, 73, 45
2, 26654, Note_on_c, 1, 73, 0
2, 26656, Note_on_c, 1, 71, 45
2, 26686, Note_on_c, 1, 71, 0
2, 26688, Note_on_c, 1, 69, 45
2, 26718, Note_on_c, 1, 69, 0
2, 26720, Note_on_c, 1, 71, 45
2, 26750, Note_on_c, 1, 71, 0
2, 26752, Note_on_c, 1, 69, 45
2, 26782, Note_on_c, 1, 69, 0
2, 26784, Note_on_c, 1, 67, 45
2, 26814, Note_on_c, 1, 67, 0
2, 26816, Note_on_c, 1, 69, 45
2, 26846, Note_on_c, 1, 69, 0
2, 26848, Note_on_c, 1, 67, 45
2, 26878, Note_on_c, 1, 67, 0
2, 26880, Note_on_c, 1, 66, 45
2, 26926, Note_on_c, 1, 66, 0
2, 26928, Note_on_c, 1, 78, 46
2, 26974, Note_on_c, 1, 78, 0
2, 26976, Note_on_c, 1, 66, 47
2, 27022, Note_on_c, 1, 66, 0
2, 27024, Note_on_c, 1, 78, 48
2, 27070, Note_on_c, 1, 78, 0
2, 27072, Note_on_c, 1, 67, 49
2, 27118, Note_on_c, 1, 67, 0
2, 27120, Note_on_c, 1, 79, 50
2, 27166, Note_on_c, 1, 79, 0
2, 27168, Note_on_c, 1, 69, 51
2, 27214, Note_on_c, 1, 69, 0
2, 27216, Note_on_c, 1, 81, 52
2, 27262, Note_on_c, 1, 81, 0
2, 27264, Note_on_c, 1, 71, 53
2, 27310, Note_on_c, 1, 71, 0
2, 27312, Note_on_c, 1, 83, 54
2, 27358, Note_on_c, 1, 83, 0
2, 27360, Note_on_c, 1, 73, 55
2, 27406, Note_on_c, 1, 73, 0
2, 27408, Note_on_c, 1, 85, 56
2, 27454, Note_on_c, 1, 85, 0
2, 27456, Note_on_c, 1, 74, 57
2, 27502, Note_on_c, 1, 74, 0
2, 27504, Note_on_c, 1, 86, 58
2, 27550, Note_on_c, 1, 86, 0
2, 27552, Note_on_c, 1, 76, 59
2, 27598, Note_on_c, 1, 76, 0
2, 27600, Note_on_c, 1, 88, 60
2, 27646, Note_on_c, 1, 88, 0
2, 27648, Note_on_c, 1, 78, 61
2, 27694, Note_on_c, 1, 78, 0
2, 27696, Note_on_c, 1, 90, 62
2, 27728, Note_on_c, 1, 90, 0
2, 27792, Note_on_c, 1, 90, 65
2, 27824, Note_on_c, 1, 90, 0
2, 27888, Note_on_c, 1, 90, 68
2, 27920, Note_on_c, 1, 90, 0
2, 27984, Note_on_c, 1, 90, 71
2, 28078, Note_on_c, 1, 90, 0
2, 28080, Note_on_c, 1, 90, 74
2, 28174, Note_on_c, 1, 90, 0
2, 28176, Note_on_c, 1, 90, 78
2, 28270, Note_on_c, 1, 90, 0
2, 28272, Note_on_c, 1, 90, 82
2, 28366, Note_on_c, 1, 90, 0
2, 28368, Note_on_c, 1, 90, 86
2, 28510, Note_on_c, 1, 90, 0
2, 28512, Note_on_c, 1, 78, 127
2, 28544, Note_on_c, 1, 78, 0
2, 28544, Note_on_c, 1, 74, 92
2, 28576, Note_on_c, 1, 74, 0
2, 28576, Note_on_c, 1, 78, 92
2, 28606, Note_on_c, 1, 78, 0
2, 28608, Note_on_c, 1, 79, 92
2, 28640, Note_on_c, 1, 79, 0
2, 28640, Note_on_c, 1, 76, 92
2, 28672, Note_on_c, 1, 76, 0
2, 28672, Note_on_c, 1, 79, 92
2, 28702, Note_on_c, 1, 79, 0
2, 28704, Note_on_c, 1, 80, 92
2, 28736, Note_on_c, 1, 80, 0
2, 28736, Note_on_c, 1, 77, 92
2, 28768, Note_on_c, 1, 77, 0
2, 28768, Note_on_c, 1, 80, 92
2, 28798, Note_on_c, 1, 80, 0
2, 28800, Note_on_c, 1, 81, 92
2, 28830, Note_on_c, 1, 81, 0
2, 28832, Note_on_c, 1, 78, 92
2, 28862, Note_on_c, 1, 78, 0
2, 28864, Note_on_c, 1, 81, 92
2, 28894, Note_on_c, 1, 81, 0
2, 28896, Note_on_c, 1, 78, 127
2, 28926, Note_on_c, 1, 78, 0
2, 28928, Note_on_c, 1, 74, 92
2, 28958, Note_on_c, 1, 74, 0
2, 28960, Note_on_c, 1, 78, 92
2, 28990, Note_on_c, 1, 78, 0
2, 28992, Note_on_c, 1, 79, 92
2, 29022, Note_on_c, 1, 79, 0
2, 29024, Note_on_c, 1, 76, 92
2, 29054, Note_on_c, 1, 76, 0
2, 29056, Note_on_c, 1, 79, 92
2, 29086, Note_on_c, 1, 79, 0
2, 29088, Note_on_c, 1, 80, 92
2, 29118, Note_on_c, 1, 80, 0
2, 29120, Note_on_c, 1, 77, 92
2, 29150, Note_on_c, 1, 77, 0
2, 29152, Note_on_c, 1, 80, 92
2, 29182, Note_on_c, 1, 80, 0
2, 29184, Note_on_c, 1, 81, 92
2, 29214, Note_on_c, 1, 81, 0
2, 29216, Note_on_c, 1, 78, 92
2, 29246, Note_on_c, 1, 78, 0
2, 29248, Note_on_c, 1, 81, 92
2, 29278, Note_on_c, 1, 81, 0
2, 29472, Note_on_c, 1, 69, 45
2, 29566, Note_on_c, 1, 69, 0
2, 29568, Note_on_c, 1, 74, 45
2, 29760, Note_on_c, 1, 74, 0
2, 29760, Note_on_c, 1, 76, 45
2, 29808, Note_on_c, 1, 76, 0
2, 29808, Note_on_c, 1, 78, 45
2, 29856, Note_on_c, 1, 78, 0
2, 29856, Note_on_c, 1, 79, 45
2, 29904, Note_on_c, 1, 79, 0
2, 29904, Note_on_c, 1, 76, 45
2, 29950, Note_on_c, 1, 76, 0
2, 29952, Note_on_c, 1, 81, 45
2, 30144, Note_on_c, 1, 81, 0
2, 30144, Note_on_c, 1, 86, 45
2, 30238, Note_on_c, 1, 86, 0
2, 30240, Note_on_c, 1, 57, 45
2, 30334, Note_on_c, 1, 57, 0
2, 30336, Note_on_c, 1, 62, 45
2, 30528, Note_on_c, 1, 62, 0
2, 30528, Note_on_c, 1, 64, 45
2, 30576, Note_on_c, 1, 64, 0
2, 30576, Note_on_c, 1, 66, 45
2, 30624, Note_on_c, 1, 66, 0
2, 30624, Note_on_c, 1, 67, 45
2, 30672, Note_on_c, 1, 67, 0
2, 30672, Note_on_c, 1, 64, 45
2, 30718, Note_on_c, 1, 64, 0
2, 30720, Note_on_c, 1, 62, 45
2, 30880, Note_on_c, 1, 62, 0
2, 31104, Note_on_c, 1, 74, 45
2, 31296, Note_on_c, 1, 74, 0
2, 31296, Note_on_c, 1, 71, 45
2, 31320, Note_on_c, 1, 71, 0
2, 31320, Note_on_c, 1, 72, 45
2, 31344, Note_on_c, 1, 72, 0
2, 31344, Note_on_c, 1, 71, 45
2, 31368, Note_on_c, 1, 71, 0
2, 31368, Note_on_c, 1, 72, 45
2, 31392, Note_on_c, 1, 72, 0
2, 31392, Note_on_c, 1, 74, 45
2, 31416, Note_on_c, 1, 74, 0
2, 31416, Note_on_c, 1, 76, 45
2, 31440, Note_on_c, 1, 76, 0
2, 31440, Note_on_c, 1, 78, 45
2, 31464, Note_on_c, 1, 78, 0
2, 31464, Note_on_c, 1, 79, 45
2, 31486, Note_on_c, 1, 79, 0
2, 31488, Note_on_c, 1, 74, 45
2, 31648, Note_on_c, 1, 74, 0
2, 31848, Note_on_c, 1, 71, 45
2, 31870, Note_on_c, 1, 71, 0
2, 31872, Note_on_c, 1, 74, 45
2, 31894, Note_on_c, 1, 74, 0
2, 31896, Note_on_c, 1, 72, 45
2, 31966, Note_on_c, 1, 72, 0
2, 32040, Note_on_c, 1, 72, 60
2, 32062, Note_on_c, 1, 72, 0
2, 32064, Note_on_c, 1, 69, 60
2, 32158, Note_on_c, 1, 69, 0
2, 32232, Note_on_c, 1, 66, 60
2, 32254, Note_on_c, 1, 66, 0
2, 32256, Note_on_c, 1, 62, 60
2, 32416, Note_on_c, 1, 62, 0
2, 32544, Note_on_c, 1, 62, 45
2, 32638, Note_on_c, 1, 62, 0
2, 32640, Note_on_c, 1, 67, 45
2, 32832, Note_on_c, 1, 67, 0
2, 32832, Note_on_c, 1, 69, 45
2, 32880, Note_on_c, 1, 69, 0
2, 32880, Note_on_c, 1, 71, 45
2, 32928, Note_on_c, 1, 71, 0
2, 32928, Note_on_c, 1, 72, 45
2, 32976, Note_on_c, 1, 72, 0
2, 32976, Note_on_c, 1, 69, 45
2, 33022, Note_on_c, 1, 69, 0
2, 33024, Note_on_c, 1, 74, 45
2, 33216, Note_on_c, 1, 74, 0
2, 33216, Note_on_c, 1, 79, 45
2, 33310, Note_on_c, 1, 79, 0
2, 33312, Note_on_c, 1, 62, 45
2, 33406, Note_on_c, 1, 62, 0
2, 33408, Note_on_c, 1, 67, 45
2, 33600, Note_on_c, 1, 67, 0
2, 33600, Note_on_c, 1, 69, 45
2, 33648, Note_on_c, 1, 69, 0
2, 33648, Note_on_c, 1, 71, 45
2, 33696, Note_on_c, 1, 71, 0
2, 33696, Note_on_c, 1, 72, 45
2, 33744, Note_on_c, 1, 72, 0
2, 33744, Note_on_c, 1, 69, 45
2, 33790, Note_on_c, 1, 69, 0
2, 33792, Note_on_c, 1, 67, 45
2, 33886, Note_on_c, 1, 67, 0
2, 34176, Note_on_c, 1, 71, 92
2, 34176, Note_on_c, 1, 83, 92
2, 34336, Note_on_c, 1, 71, 0
2, 34336, Note_on_c, 1, 83, 0
2, 34368, Note_on_c, 1, 81, 92
2, 34392, Note_on_c, 1, 81, 0
2, 34392, Note_on_c, 1, 79, 92
2, 34416, Note_on_c, 1, 79, 0
2, 34416, Note_on_c, 1, 78, 92
2, 34440, Note_on_c, 1, 78, 0
2, 34440, Note_on_c, 1, 79, 92
2, 34464, Note_on_c, 1, 79, 0
2, 34464, Note_on_c, 1, 78, 92
2, 34488, Note_on_c, 1, 78, 0
2, 34488, Note_on_c, 1, 79, 92
2, 34512, Note_on_c, 1, 79, 0
2, 34512, Note_on_c, 1, 83, 92
2, 34536, Note_on_c, 1, 83, 0
2, 34536, Note_on_c, 1, 79, 92
2, 34558, Note_on_c, 1, 79, 0
2, 34560, Note_on_c, 1, 74, 92
2, 34654, Note_on_c, 1, 74, 0
2, 34920, Note_on_c, 1, 62, 60
2, 34942, Note_on_c, 1, 62, 0
2, 34944, Note_on_c, 1, 67, 60
2, 35038, Note_on_c, 1, 67, 0
2, 35112, Note_on_c, 1, 67, 60
2, 35134, Note_on_c, 1, 67, 0
2, 35136, Note_on_c, 1, 71, 60
2, 35230, Note_on_c, 1, 71, 0
2, 35304, Note_on_c, 1, 71, 60
2, 35326, Note_on_c, 1, 71, 0
2, 35328, Note_on_c, 1, 74, 60
2, 35422, Note_on_c, 1, 74, 0
2, 35712, Note_on_c, 1, 62, 92
2, 35712, Note_on_c, 1, 71, 92
2, 35712, Note_on_c, 1, 83, 92
2, 35872, Note_on_c, 1, 62, 0
2, 35872, Note_on_c, 1, 71, 0
2, 35872, Note_on_c, 1, 83, 0
2, 35904, Note_on_c, 1, 81, 92
2, 35928, Note_on_c, 1, 81, 0
2, 35928, Note_on_c, 1, 79, 92
2, 35952, Note_on_c, 1, 79, 0
2, 35952, Note_on_c, 1, 78, 92
2, 35976, Note_on_c, 1, 78, 0
2, 35976, Note_on_c, 1, 79, 92
2, 36000, Note_on_c, 1, 79, 0
2, 36000, Note_on_c, 1, 78, 92
2, 36024, Note_on_c, 1, 78, 0
2, 36024, Note_on_c, 1, 79, 92
2, 36048, Note_on_c, 1, 79, 0
2, 36048, Note_on_c, 1, 83, 92
2, 36072, Note_on_c, 1, 83, 0
2, 36072, Note_on_c, 1, 79, 92
2, 36094, Note_on_c, 1, 79, 0
2, 36096, Note_on_c, 1, 74, 92
2, 36256, Note_on_c, 1, 74, 0
2, 36456, Note_on_c, 1, 74, 45
2, 36478, Note_on_c, 1, 74, 0
2, 36480, Note_on_c, 1, 79, 45
2, 36574, Note_on_c, 1, 79, 0
2, 36648, Note_on_c, 1, 79, 45
2, 36670, Note_on_c, 1, 79, 0
2, 36672, Note_on_c, 1, 83, 45
2, 36766, Note_on_c, 1, 83, 0
2, 36840, Note_on_c, 1, 83, 45
2, 36862, Note_on_c, 1, 83, 0
2, 36864, Note_on_c, 1, 86, 45
2, 36958, Note_on_c, 1, 86, 0
2, 37248, Note_on_c, 1, 72, 45
2, 37584, Note_on_c, 1, 72, 0
2, 37632, Note_on_c, 1, 84, 92
2, 37848, Note_on_c, 1, 84, 0
2, 37848, Note_on_c, 1, 83, 88
2, 37872, Note_on_c, 1, 83, 0
2, 37872, Note_on_c, 1, 81, 84
2, 37896, Note_on_c, 1, 81, 0
2, 37896, Note_on_c, 1, 79, 80
2, 37920, Note_on_c, 1, 79, 0
2, 37920, Note_on_c, 1, 78, 76
2, 37944, Note_on_c, 1, 78, 0
2, 37944, Note_on_c, 1, 76, 72
2, 37968, Note_on_c, 1, 76, 0
2, 37968, Note_on_c, 1, 74, 68
2, 37992, Note_on_c, 1, 74, 0
2, 37992, Note_on_c, 1, 72, 64
2, 38014, Note_on_c, 1, 72, 0
2, 38016, Note_on_c, 1, 71, 60
2, 38110, Note_on_c, 1, 71, 0
2, 38184, Note_on_c, 1, 79, 45
2, 38206, Note_on_c, 1, 79, 0
2, 38208, Note_on_c, 1, 69, 45
2, 38302, Note_on_c, 1, 69, 0
2, 38376, Note_on_c, 1, 74, 45
2, 38398, Note_on_c, 1, 74, 0
2, 38400, Note_on_c, 1, 67, 60
2, 38494, Note_on_c, 1, 67, 0
2, 38784, Note_on_c, 1, 62, 108
2, 38832, Note_on_c, 1, 62, 0
2, 38976, Note_on_c, 1, 62, 108
2, 39024, Note_on_c, 1, 62, 0
2, 39168, Note_on_c, 1, 67, 127
2, 39424, Note_on_c, 1, 67, 0
2, 39456, Note_on_c, 1, 71, 45
2, 39504, Note_on_c, 1, 71, 0
2, 39504, Note_on_c, 1, 67, 45
2, 39550, Note_on_c, 1, 67, 0
2, 39552, Note_on_c, 1, 67, 45
2, 39600, Note_on_c, 1, 67, 0
2, 39600, Note_on_c, 1, 66, 45
2, 39646, Note_on_c, 1, 66, 0
2, 39648, Note_on_c, 1, 69, 45
2, 39696, Note_on_c, 1, 69, 0
2, 39696, Note_on_c, 1, 66, 45
2, 39742, Note_on_c, 1, 66, 0
2, 39744, Note_on_c, 1, 69, 45
2, 39792, Note_on_c, 1, 69, 0
2, 39792, Note_on_c, 1, 67, 45
2, 39838, Note_on_c, 1, 67, 0
2, 39840, Note_on_c, 1, 71, 45
2, 39888, Note_on_c, 1, 71, 0
2, 39888, Note_on_c, 1, 67, 45
2, 39934, Note_on_c, 1, 67, 0
2, 39936, Note_on_c, 1, 74, 45
2, 40030, Note_on_c, 1, 74, 0
2, 40992, Note_on_c, 1, 79, 45
2, 41040, Note_on_c, 1, 79, 0
2, 41040, Note_on_c, 1, 76, 45
2, 41086, Note_on_c, 1, 76, 0
2, 41088, Note_on_c, 1, 76, 45
2, 41136, Note_on_c, 1, 76, 0
2, 41136, Note_on_c, 1, 75, 45
2, 41182, Note_on_c, 1, 75, 0
2, 41184, Note_on_c, 1, 78, 45
2, 41232, Note_on_c, 1, 78, 0
2, 41232, Note_on_c, 1, 75, 45
2, 41278, Note_on_c, 1, 75, 0
2, 41280, Note_on_c, 1, 78, 45
2, 41328, Note_on_c, 1, 78, 0
2, 41328, Note_on_c, 1, 76, 45
2, 41374, Note_on_c, 1, 76, 0
2, 41376, Note_on_c, 1, 79, 45
2, 41424, Note_on_c, 1, 79, 0
2, 41424, Note_on_c, 1, 76, 45
2, 41470, Note_on_c, 1, 76, 0
2, 41472, Note_on_c, 1, 83, 45
2, 41632, Note_on_c, 1, 83, 0
2, 41760, Note_on_c, 1, 79, 45
2, 41808, Note_on_c, 1, 79, 0
2, 41808, Note_on_c, 1, 76, 45
2, 41854, Note_on_c, 1, 76, 0
2, 41856, Note_on_c, 1, 74, 45
2, 41904, Note_on_c, 1, 74, 0
2, 41904, Note_on_c, 1, 73, 45
2, 41950, Note_on_c, 1, 73, 0
2, 41952, Note_on_c, 1, 76, 45
2, 42000, Note_on_c, 1, 76, 0
2, 42000, Note_on_c, 1, 73, 45
2, 42046, Note_on_c, 1, 73, 0
2, 42048, Note_on_c, 1, 76, 45
2, 42096, Note_on_c, 1, 76, 0
2, 42096, Note_on_c, 1, 74, 45
2, 42142, Note_on_c, 1, 74, 0
2, 42144, Note_on_c, 1, 78, 45
2, 42192, Note_on_c, 1, 78, 0
2, 42192, Note_on_c, 1, 74, 45
2, 42238, Note_on_c, 1, 74, 0
2, 42240, Note_on_c, 1, 81, 45
2, 42400, Note_on_c, 1, 81, 0
2, 42528, Note_on_c, 1, 77, 45
2, 42576, Note_on_c, 1, 77, 0
2, 42576, Note_on_c, 1, 74, 45
2, 42622, Note_on_c, 1, 74, 0
2, 42624, Note_on_c, 1, 74, 45
2, 42672, Note_on_c, 1, 74, 0
2, 42672, Note_on_c, 1, 73, 45
2, 42718, Note_on_c, 1, 73, 0
2, 42720, Note_on_c, 1, 76, 45
2, 42768, Note_on_c, 1, 76, 0
2, 42768, Note_on_c, 1, 73, 45
2, 42814, Note_on_c, 1, 73, 0
2, 42816, Note_on_c, 1, 76, 45
2, 42864, Note_on_c, 1, 76, 0
2, 42864, Note_on_c, 1, 74, 45
2, 42910, Note_on_c, 1, 74, 0
2, 42912, Note_on_c, 1, 77, 45
2, 42960, Note_on_c, 1, 77, 0
2, 42960, Note_on_c, 1, 74, 45
2, 43006, Note_on_c, 1, 74, 0
2, 43008, Note_on_c, 1, 81, 45
2, 43054, Note_on_c, 1, 81, 0
2, 43056, Note_on_c, 1, 69, 47
2, 43102, Note_on_c, 1, 69, 0
2, 43104, Note_on_c, 1, 81, 50
2, 43246, Note_on_c, 1, 81, 0
2, 43248, Note_on_c, 1, 69, 59
2, 43294, Note_on_c, 1, 69, 0
2, 43296, Note_on_c, 1, 81, 62
2, 43438, Note_on_c, 1, 81, 0
2, 43440, Note_on_c, 1, 69, 71
2, 43486, Note_on_c, 1, 69, 0
2, 43488, Note_on_c, 1, 81, 74
2, 43630, Note_on_c, 1, 81, 0
2, 43632, Note_on_c, 1, 69, 83
2, 43678, Note_on_c, 1, 69, 0
2, 43680, Note_on_c, 1, 81, 86
2, 43806, Note_on_c, 1, 81, 0
2, 43808, Note_on_c, 1, 69, 92
2, 43829, Note_on_c, 1, 69, 0
2, 43840, Note_on_c, 1, 73, 92
2, 43861, Note_on_c, 1, 73, 0
2, 43872, Note_on_c, 1, 76, 92
2, 43893, Note_on_c, 1, 76, 0
2, 43904, Note_on_c, 1, 81, 92
2, 43925, Note_on_c, 1, 81, 0
2, 43936, Note_on_c, 1, 85, 92
2, 43957, Note_on_c, 1, 85, 0
2, 43968, Note_on_c, 1, 88, 92
2, 43989, Note_on_c, 1, 88, 0
2, 44000, Note_on_c, 1, 85, 92
2, 44021, Note_on_c, 1, 85, 0
2, 44032, Note_on_c, 1, 81, 92
2, 44053, Note_on_c, 1, 81, 0
2, 44064, Note_on_c, 1, 76, 92
2, 44085, Note_on_c, 1, 76, 0
2, 44096, Note_on_c, 1, 73, 92
2, 44117, Note_on_c, 1, 73, 0
2, 44128, Note_on_c, 1, 69, 92
2, 44149, Note_on_c, 1, 69, 0
2, 44160, Note_on_c, 1, 57, 108
2, 44320, Note_on_c, 1, 57, 0
2, 44448, Note_on_c, 1, 69, 45
2, 44542, Note_on_c, 1, 69, 0
2, 44544, Note_on_c, 1, 78, 45
2, 44592, Note_on_c, 1, 78, 0
2, 44736, Note_on_c, 1, 76, 45
2, 44784, Note_on_c, 1, 76, 0
2, 44928, Note_on_c, 1, 81, 63
2, 45184, Note_on_c, 1, 81, 0
2, 45216, Note_on_c, 1, 79, 45
2, 45310, Note_on_c, 1, 79, 0
2, 45312, Note_on_c, 1, 78, 45
2, 45344, Note_on_c, 1, 78, 0
2, 45408, Note_on_c, 1, 76, 45
2, 45440, Note_on_c, 1, 76, 0
2, 45504, Note_on_c, 1, 74, 45
2, 45536, Note_on_c, 1, 74, 0
2, 45600, Note_on_c, 1, 76, 45
2, 45632, Note_on_c, 1, 76, 0
2, 45696, Note_on_c, 1, 69, 45
2, 45728, Note_on_c, 1, 69, 0
2, 45744, Note_on_c, 1, 69, 45
2, 45776, Note_on_c, 1, 69, 0
2, 45792, Note_on_c, 1, 71, 45
2, 45824, Note_on_c, 1, 71, 0
2, 45840, Note_on_c, 1, 73, 45
2, 45872, Note_on_c, 1, 73, 0
2, 45888, Note_on_c, 1, 74, 45
2, 45920, Note_on_c, 1, 74, 0
2, 45936, Note_on_c, 1, 75, 45
2, 45968, Note_on_c, 1, 75, 0
2, 45984, Note_on_c, 1, 76, 45
2, 46016, Note_on_c, 1, 76, 0
2, 46032, Note_on_c, 1, 78, 45
2, 46064, Note_on_c, 1, 78, 0
2, 46080, Note_on_c, 1, 79, 45
2, 46128, Note_on_c, 1, 79, 0
2, 46272, Note_on_c, 1, 78, 45
2, 46320, Note_on_c, 1, 78, 0
2, 46464, Note_on_c, 1, 83, 63
2, 46720, Note_on_c, 1, 83, 0
2, 46752, Note_on_c, 1, 86, 45
2, 46768, Note_on_c, 1, 86, 0
2, 46768, Note_on_c, 1, 85, 45
2, 46784, Note_on_c, 1, 85, 0
2, 46784, Note_on_c, 1, 86, 45
2, 46800, Note_on_c, 1, 86, 0
2, 46800, Note_on_c, 1, 85, 45
2, 46816, Note_on_c, 1, 85, 0
2, 46816, Note_on_c, 1, 83, 45
2, 46832, Note_on_c, 1, 83, 0
2, 46832, Note_on_c, 1, 85, 45
2, 46848, Note_on_c, 1, 85, 0
2, 46848, Note_on_c, 1, 86, 45
2, 46880, Note_on_c, 1, 86, 0
2, 46944, Note_on_c, 1, 88, 45
2, 46976, Note_on_c, 1, 88, 0
2, 47040, Note_on_c, 1, 81, 45
2, 47072, Note_on_c, 1, 81, 0
2, 47136, Note_on_c, 1, 85, 45
2, 47168, Note_on_c, 1, 85, 0
2, 47232, Note_on_c, 1, 86, 45
2, 47326, Note_on_c, 1, 86, 0
2, 47664, Note_on_c, 1, 69, 45
2, 47696, Note_on_c, 1, 69, 0
2, 47712, Note_on_c, 1, 71, 45
2, 47744, Note_on_c, 1, 71, 0
2, 47760, Note_on_c, 1, 73, 45
2, 47792, Note_on_c, 1, 73, 0
2, 47808, Note_on_c, 1, 74, 45
2, 47840, Note_on_c, 1, 74, 0
2, 47856, Note_on_c, 1, 76, 45
2, 47888, Note_on_c, 1, 76, 0
2, 47904, Note_on_c, 1, 78, 45
2, 47936, Note_on_c, 1, 78, 0
2, 47952, Note_on_c, 1, 79, 45
2, 47984, Note_on_c, 1, 79, 0
2, 48000, Note_on_c, 1, 81, 45
2, 48046, Note_on_c, 1, 81, 0
2, 48048, Note_on_c, 1, 81, 45
2, 48094, Note_on_c, 1, 81, 0
2, 48096, Note_on_c, 1, 83, 45
2, 48142, Note_on_c, 1, 83, 0
2, 48144, Note_on_c, 1, 85, 45
2, 48190, Note_on_c, 1, 85, 0
2, 48192, Note_on_c, 1, 86, 45
2, 48238, Note_on_c, 1, 86, 0
2, 48240, Note_on_c, 1, 88, 45
2, 48286, Note_on_c, 1, 88, 0
2, 48288, Note_on_c, 1, 90, 45
2, 48334, Note_on_c, 1, 90, 0
2, 48336, Note_on_c, 1, 91, 45
2, 48382, Note_on_c, 1, 91, 0
2, 48384, Note_on_c, 1, 93, 45
2, 48430, Note_on_c, 1, 93, 0
2, 48432, Note_on_c, 1, 93, 45
2, 48478, Note_on_c, 1, 93, 0
2, 48480, Note_on_c, 1, 93, 45
2, 48526, Note_on_c, 1, 93, 0
2, 48528, Note_on_c, 1, 93, 45
2, 48574, Note_on_c, 1, 93, 0
2, 48576, Note_on_c, 1, 93, 45
2, 48622, Note_on_c, 1, 93, 0
2, 48624, Note_on_c, 1, 92, 45
2, 48670, Note_on_c, 1, 92, 0
2, 48672, Note_on_c, 1, 90, 45
2, 48718, Note_on_c, 1, 90, 0
2, 48720, Note_on_c, 1, 92, 45
2, 48766, Note_on_c, 1, 92, 0
2, 48768, Note_on_c, 1, 93, 45
2, 48862, Note_on_c, 1, 93, 0
2, 49200, Note_on_c, 1, 71, 45
2, 49232, Note_on_c, 1, 71, 0
2, 49248, Note_on_c, 1, 73, 45
2, 49280, Note_on_c, 1, 73, 0
2, 49296, Note_on_c, 1, 75, 45
2, 49328, Note_on_c, 1, 75, 0
2, 49344, Note_on_c, 1, 76, 45
2, 49376, Note_on_c, 1, 76, 0
2, 49392, Note_on_c, 1, 78, 45
2, 49424, Note_on_c, 1, 78, 0
2, 49440, Note_on_c, 1, 79, 45
2, 49472, Note_on_c, 1, 79, 0
2, 49488, Note_on_c, 1, 81, 45
2, 49520, Note_on_c, 1, 81, 0
2, 49536, Note_on_c, 1, 83, 45
2, 49582, Note_on_c, 1, 83, 0
2, 49584, Note_on_c, 1, 83, 45
2, 49630, Note_on_c, 1, 83, 0
2, 49632, Note_on_c, 1, 85, 45
2, 49678, Note_on_c, 1, 85, 0
2, 49680, Note_on_c, 1, 87, 45
2, 49726, Note_on_c, 1, 87, 0
2, 49728, Note_on_c, 1, 88, 45
2, 49774, Note_on_c, 1, 88, 0
2, 49776, Note_on_c, 1, 90, 45
2, 49822, Note_on_c, 1, 90, 0
2, 49824, Note_on_c, 1, 91, 45
2, 49870, Note_on_c, 1, 91, 0
2, 49872, Note_on_c, 1, 93, 45
2, 49918, Note_on_c, 1, 93, 0
2, 49920, Note_on_c, 1, 95, 92
2, 49966, Note_on_c, 1, 95, 0
2, 49968, Note_on_c, 1, 83, 87
2, 50014, Note_on_c, 1, 83, 0
2, 50016, Note_on_c, 1, 83, 81
2, 50062, Note_on_c, 1, 83, 0
2, 50064, Note_on_c, 1, 83, 75
2, 50110, Note_on_c, 1, 83, 0
2, 50112, Note_on_c, 1, 83, 69
2, 50158, Note_on_c, 1, 83, 0
2, 50160, Note_on_c, 1, 83, 63
2, 50206, Note_on_c, 1, 83, 0
2, 50208, Note_on_c, 1, 83, 57
2, 50254, Note_on_c, 1, 83, 0
2, 50256, Note_on_c, 1, 83, 51
2, 50302, Note_on_c, 1, 83, 0
2, 50304, Note_on_c, 1, 82, 45
2, 50398, Note_on_c, 1, 82, 0
2, 50472, Note_on_c, 1, 66, 45
2, 50494, Note_on_c, 1, 66, 0
2, 50496, Note_on_c, 1, 78, 45
2, 50592, Note_on_c, 1, 78, 0
2, 50592, Note_on_c, 1, 76, 45
2, 50784, Note_on_c, 1, 76, 0
2, 50784, Note_on_c, 1, 74, 45
2, 50830, Note_on_c, 1, 74, 0
2, 50856, Note_on_c, 1, 66, 45
2, 50878, Note_on_c, 1, 66, 0
2, 50880, Note_on_c, 1, 78, 45
2, 50976, Note_on_c, 1, 78, 0
2, 50976, Note_on_c, 1, 76, 45
2, 51168, Note_on_c, 1, 76, 0
2, 51168, Note_on_c, 1, 74, 45
2, 51214, Note_on_c, 1, 74, 0
2, 51240, Note_on_c, 1, 66, 45
2, 51262, Note_on_c, 1, 66, 0
2, 51264, Note_on_c, 1, 78, 45
2, 51360, Note_on_c, 1, 78, 0
2, 51360, Note_on_c, 1, 76, 46
2, 51552, Note_on_c, 1, 76, 0
2, 51552, Note_on_c, 1, 74, 50
2, 51646, Note_on_c, 1, 74, 0
2, 51648, Note_on_c, 1, 75, 72
2, 51808, Note_on_c, 1, 75, 0
2, 51840, Note_on_c, 1, 76, 56
2, 51912, Note_on_c, 1, 76, 0
2, 51912, Note_on_c, 1, 71, 57
2, 51936, Note_on_c, 1, 71, 0
2, 51936, Note_on_c, 1, 79, 57
2, 52008, Note_on_c, 1, 79, 0
2, 52008, Note_on_c, 1, 76, 58
2, 52030, Note_on_c, 1, 76, 0
2, 52032, Note_on_c, 1, 74, 58
2, 52126, Note_on_c, 1, 74, 0
2, 52128, Note_on_c, 1, 74, 60
2, 52144, Note_on_c, 1, 74, 0
2, 52144, Note_on_c, 1, 73, 60
2, 52160, Note_on_c, 1, 73, 0
2, 52160, Note_on_c, 1, 74, 60
2, 52176, Note_on_c, 1, 74, 0
2, 52176, Note_on_c, 1, 73, 60
2, 52192, Note_on_c, 1, 73, 0
2, 52192, Note_on_c, 1, 71, 60
2, 52208, Note_on_c, 1, 71, 0
2, 52208, Note_on_c, 1, 73, 60
2, 52222, Note_on_c, 1, 73, 0
2, 52224, Note_on_c, 1, 74, 60
2, 52318, Note_on_c, 1, 74, 0
2, 52512, Note_on_c, 1, 78, 66
2, 52656, Note_on_c, 1, 78, 0
2, 52656, Note_on_c, 1, 82, 69
2, 52704, Note_on_c, 1, 82, 0
2, 52704, Note_on_c, 1, 83, 70
2, 52752, Note_on_c, 1, 83, 0
2, 52752, Note_on_c, 1, 79, 71
2, 52798, Note_on_c, 1, 79, 0
2, 52800, Note_on_c, 1, 78, 72
2, 52832, Note_on_c, 1, 78, 0
2, 52896, Note_on_c, 1, 78, 74
2, 53040, Note_on_c, 1, 78, 0
2, 53040, Note_on_c, 1, 82, 77
2, 53088, Note_on_c, 1, 82, 0
2, 53088, Note_on_c, 1, 83, 78
2, 53136, Note_on_c, 1, 83, 0
2, 53136, Note_on_c, 1, 79, 79
2, 53182, Note_on_c, 1, 79, 0
2, 53184, Note_on_c, 1, 78, 80
2, 53216, Note_on_c, 1, 78, 0
2, 53280, Note_on_c, 1, 78, 83
2, 53424, Note_on_c, 1, 78, 0
2, 53424, Note_on_c, 1, 83, 87
2, 53472, Note_on_c, 1, 83, 0
2, 53472, Note_on_c, 1, 82, 88
2, 53520, Note_on_c, 1, 82, 0
2, 53520, Note_on_c, 1, 83, 90
2, 53566, Note_on_c, 1, 83, 0
2, 53568, Note_on_c, 1, 84, 127
2, 53808, Note_on_c, 1, 84, 0
2, 53808, Note_on_c, 1, 83, 92
2, 53856, Note_on_c, 1, 83, 0
2, 53856, Note_on_c, 1, 81, 92
2, 53880, Note_on_c, 1, 81, 0
2, 53880, Note_on_c, 1, 79, 92
2, 53904, Note_on_c, 1, 79, 0
2, 53904, Note_on_c, 1, 78, 92
2, 53928, Note_on_c, 1, 78, 0
2, 53928, Note_on_c, 1, 76, 92
2, 53950, Note_on_c, 1, 76, 0
2, 53952, Note_on_c, 1, 74, 92
2, 54046, Note_on_c, 1, 74, 0
2, 54048, Note_on_c, 1, 74, 92
2, 54064, Note_on_c, 1, 74, 0
2, 54064, Note_on_c, 1, 73, 92
2, 54080, Note_on_c, 1, 73, 0
2, 54080, Note_on_c, 1, 74, 92
2, 54096, Note_on_c, 1, 74, 0
2, 54096, Note_on_c, 1, 73, 92
2, 54112, Note_on_c, 1, 73, 0
2, 54112, Note_on_c, 1, 71, 92
2, 54128, Note_on_c, 1, 71, 0
2, 54128, Note_on_c, 1, 73, 92
2, 54142, Note_on_c, 1, 73, 0
2, 54144, Note_on_c, 1, 74, 92
2, 54238, Note_on_c, 1, 74, 0
2, 55104, Note_on_c, 1, 76, 45
2, 55125, Note_on_c, 1, 76, 0
2, 55136, Note_on_c, 1, 78, 45
2, 55157, Note_on_c, 1, 78, 0
2, 55168, Note_on_c, 1, 79, 45
2, 55189, Note_on_c, 1, 79, 0
2, 55200, Note_on_c, 1, 81, 45
2, 55221, Note_on_c, 1, 81, 0
2, 55232, Note_on_c, 1, 83, 45
2, 55253, Note_on_c, 1, 83, 0
2, 55264, Note_on_c, 1, 85, 45
2, 55285, Note_on_c, 1, 85, 0
2, 55296, Note_on_c, 1, 86, 45
2, 55328, Note_on_c, 1, 86, 0
2, 55344, Note_on_c, 1, 86, 45
2, 55392, Note_on_c, 1, 86, 0
2, 55392, Note_on_c, 1, 81, 45
2, 55440, Note_on_c, 1, 81, 0
2, 55440, Note_on_c, 1, 90, 45
2, 55486, Note_on_c, 1, 90, 0
2, 55488, Note_on_c, 1, 88, 45
2, 55520, Note_on_c, 1, 88, 0
2, 55536, Note_on_c, 1, 88, 45
2, 55584, Note_on_c, 1, 88, 0
2, 55584, Note_on_c, 1, 85, 45
2, 55632, Note_on_c, 1, 85, 0
2, 55632, Note_on_c, 1, 91, 45
2, 55678, Note_on_c, 1, 91, 0
2, 55680, Note_on_c, 1, 90, 45
2, 55712, Note_on_c, 1, 90, 0
2, 55728, Note_on_c, 1, 90, 45
2, 55776, Note_on_c, 1, 90, 0
2, 55776, Note_on_c, 1, 86, 45
2, 55824, Note_on_c, 1, 86, 0
2, 55824, Note_on_c, 1, 93, 45
2, 55870, Note_on_c, 1, 93, 0
2, 56640, Note_on_c, 1, 76, 45
2, 56661, Note_on_c, 1, 76, 0
2, 56672, Note_on_c, 1, 78, 45
2, 56693, Note_on_c, 1, 78, 0
2, 56704, Note_on_c, 1, 79, 45
2, 56725, Note_on_c, 1, 79, 0
2, 56736, Note_on_c, 1, 81, 45
2, 56757, Note_on_c, 1, 81, 0
2, 56768, Note_on_c, 1, 83, 45
2, 56789, Note_on_c, 1, 83, 0
2, 56800, Note_on_c, 1, 85, 45
2, 56821, Note_on_c, 1, 85, 0
2, 56832, Note_on_c, 1, 86, 45
2, 56853, Note_on_c, 1, 86, 0
2, 56864, Note_on_c, 1, 88, 45
2, 56885, Note_on_c, 1, 88, 0
2, 56896, Note_on_c, 1, 86, 45
2, 56917, Note_on_c, 1, 86, 0
2, 56928, Note_on_c, 1, 82, 45
2, 56949, Note_on_c, 1, 82, 0
2, 56960, Note_on_c, 1, 83, 45
2, 56981, Note_on_c, 1, 83, 0
2, 56992, Note_on_c, 1, 82, 45
2, 57013, Note_on_c, 1, 82, 0
2, 57024, Note_on_c, 1, 83, 45
2, 57045, Note_on_c, 1, 83, 0
2, 57056, Note_on_c, 1, 84, 45
2, 57077, Note_on_c, 1, 84, 0
2, 57088, Note_on_c, 1, 83, 45
2, 57109, Note_on_c, 1, 83, 0
2, 57120, Note_on_c, 1, 78, 45
2, 57141, Note_on_c, 1, 78, 0
2, 57152, Note_on_c, 1, 79, 45
2, 57173, Note_on_c, 1, 79, 0
2, 57184, Note_on_c, 1, 78, 45
2, 57205, Note_on_c, 1, 78, 0
2, 57216, Note_on_c, 1, 79, 45
2, 57246, Note_on_c, 1, 79, 0
2, 57248, Note_on_c, 1, 81, 45
2, 57278, Note_on_c, 1, 81, 0
2, 57280, Note_on_c, 1, 79, 45
2, 57310, Note_on_c, 1, 79, 0
2, 57312, Note_on_c, 1, 75, 45
2, 57342, Note_on_c, 1, 75, 0
2, 57344, Note_on_c, 1, 76, 45
2, 57374, Note_on_c, 1, 76, 0
2, 57376, Note_on_c, 1, 75, 45
2, 57406, Note_on_c, 1, 75, 0
2, 57408, Note_on_c, 1, 76, 45
2, 57438, Note_on_c, 1, 76, 0
2, 57440, Note_on_c, 1, 78, 45
2, 57470, Note_on_c, 1, 78, 0
2, 57472, Note_on_c, 1, 76, 45
2, 57502, Note_on_c, 1, 76, 0
2, 57504, Note_on_c, 1, 74, 45
2, 57534, Note_on_c, 1, 74, 0
2, 57536, Note_on_c, 1, 76, 45
2, 57566, Note_on_c, 1, 76, 0
2, 57568, Note_on_c, 1, 74, 45
2, 57598, Note_on_c, 1, 74, 0
2, 57600, Note_on_c, 1, 73, 45
2, 57630, Note_on_c, 1, 73, 0
2, 57632, Note_on_c, 1, 74, 45
2, 57662, Note_on_c, 1, 74, 0
2, 57664, Note_on_c, 1, 73, 45
2, 57694, Note_on_c, 1, 73, 0
2, 57696, Note_on_c, 1, 71, 45
2, 57726, Note_on_c, 1, 71, 0
2, 57728, Note_on_c, 1, 73, 45
2, 57758, Note_on_c, 1, 73, 0
2, 57760, Note_on_c, 1, 71, 45
2, 57790, Note_on_c, 1, 71, 0
2, 57792, Note_on_c, 1, 69, 45
2, 57822, Note_on_c, 1, 69, 0
2, 57824, Note_on_c, 1, 71, 45
2, 57854, Note_on_c, 1, 71, 0
2, 57856, Note_on_c, 1, 69, 45
2, 57886, Note_on_c, 1, 69, 0
2, 57888, Note_on_c, 1, 67, 45
2, 57918, Note_on_c, 1, 67, 0
2, 57920, Note_on_c, 1, 69, 45
2, 57950, Note_on_c, 1, 69, 0
2, 57952, Note_on_c, 1, 67, 45
2, 57982, Note_on_c, 1, 67, 0
2, 57984, Note_on_c, 1, 66, 45
2, 58030, Note_on_c, 1, 66, 0
2, 58032, Note_on_c, 1, 78, 46
2, 58078, Note_on_c, 1, 78, 0
2, 58080, Note_on_c, 1, 66, 47
2, 58126, Note_on_c, 1, 66, 0
2, 58128, Note_on_c, 1, 78, 48
2, 58174, Note_on_c, 1, 78, 0
2, 58176, Note_on_c, 1, 67, 49
2, 58222, Note_on_c, 1, 67, 0
2, 58224, Note_on_c, 1, 79, 50
2, 58270, Note_on_c, 1, 79, 0
2, 58272, Note_on_c, 1, 69, 51
2, 58318, Note_on_c, 1, 69, 0
2, 58320, Note_on_c, 1, 81, 52
2, 58366, Note_on_c, 1, 81, 0
2, 58368, Note_on_c, 1, 71, 53
2, 58414, Note_on_c, 1, 71, 0
2, 58416, Note_on_c, 1, 83, 54
2, 58462, Note_on_c, 1, 83, 0
2, 58464, Note_on_c, 1, 73, 55
2, 58510, Note_on_c, 1, 73, 0
2, 58512, Note_on_c, 1, 85, 56
2, 58558, Note_on_c, 1, 85, 0
2, 58560, Note_on_c, 1, 74, 57
2, 58606, Note_on_c, 1, 74, 0
2, 58608, Note_on_c, 1, 86, 58
2, 58654, Note_on_c, 1, 86, 0
2, 58656, Note_on_c, 1, 76, 59
2, 58702, Note_on_c, 1, 76, 0
2, 58704, Note_on_c, 1, 88, 60
2, 58750, Note_on_c, 1, 88, 0
2, 58752, Note_on_c, 1, 78, 61
2, 58798, Note_on_c, 1, 78, 0
2, 58800, Note_on_c, 1, 90, 62
2, 58832, Note_on_c, 1, 90, 0
2, 58896, Note_on_c, 1, 90, 65
2, 58928, Note_on_c, 1, 90, 0
2, 58992, Note_on_c, 1, 90, 68
2, 59024, Note_on_c, 1, 90, 0
2, 59088, Note_on_c, 1, 90, 71
2, 59182, Note_on_c, 1, 90, 0
2, 59184, Note_on_c, 1, 90, 74
2, 59278, Note_on_c, 1, 90, 0
2, 59280, Note_on_c, 1, 90, 78
2, 59374, Note_on_c, 1, 90, 0
2, 59376, Note_on_c, 1, 90, 82
2, 59470, Note_on_c, 1, 90, 0
2, 59472, Note_on_c, 1, 90, 86
2, 59614, Note_on_c, 1, 90, 0
2, 59616, Note_on_c, 1, 78, 127
2, 59648, Note_on_c, 1, 78, 0
2, 59648, Note_on_c, 1, 74, 92
2, 59680, Note_on_c, 1, 74, 0
2, 59680, Note_on_c, 1, 78, 92
2, 59710, Note_on_c, 1, 78, 0
2, 59712, Note_on_c, 1, 79, 92
2, 59744, Note_on_c, 1, 79, 0
2, 59744, Note_on_c, 1, 76, 92
2, 59776, Note_on_c, 1, 76, 0
2, 59776, Note_on_c, 1, 79, 92
2, 59806, Note_on_c, 1, 79, 0
2, 59808, Note_on_c, 1, 80, 92
2, 59840, Note_on_c, 1, 80, 0
2, 59840, Note_on_c, 1, 77, 92
2, 59872, Note_on_c, 1, 77, 0
2, 59872, Note_on_c, 1, 80, 92
2, 59902, Note_on_c, 1, 80, 0
2, 59904, Note_on_c, 1, 81, 92
2, 59934, Note_on_c, 1, 81, 0
2, 59936, Note_on_c, 1, 78, 92
2, 59966, Note_on_c, 1, 78, 0
2, 59968, Note_on_c, 1, 81, 92
2, 59998, Note_on_c, 1, 81, 0
2, 60000, Note_on_c, 1, 78, 127
2, 60030, Note_on_c, 1, 78, 0
2, 60032, Note_on_c, 1, 74, 92
2, 60062, Note_on_c, 1, 74, 0
2, 60064, Note_on_c, 1, 78, 92
2, 60094, Note_on_c, 1, 78, 0
2, 60096, Note_on_c, 1, 79, 92
2, 60126, Note_on_c, 1, 79, 0
2, 60128, Note_on_c, 1, 76, 92
2, 60158, Note_on_c, 1, 76, 0
2, 60160, Note_on_c, 1, 79, 92
2, 60190, Note_on_c, 1, 79, 0
2, 60192, Note_on_c, 1, 80, 92
2, 60222, Note_on_c, 1, 80, 0
2, 60224, Note_on_c, 1, 77, 92
2, 60254, Note_on_c, 1, 77, 0
2, 60256, Note_on_c, 1, 80, 92
2, 60286, Note_on_c, 1, 80, 0
2, 60288, Note_on_c, 1, 81, 92
2, 60318, Note_on_c, 1, 81, 0
2, 60320, Note_on_c, 1, 78, 92
2, 60350, Note_on_c, 1, 78, 0
2, 60352, Note_on_c, 1, 81, 92
2, 60382, Note_on_c, 1, 81, 0
2, 60576, Note_on_c, 1, 69, 45
2, 60670, Note_on_c, 1, 69, 0
2, 60672, Note_on_c, 1, 74, 45
2, 60864, Note_on_c, 1, 74, 0
2, 60864, Note_on_c, 1, 76, 45
2, 60912, Note_on_c, 1, 76, 0
2, 60912, Note_on_c, 1, 78, 45
2, 60960, Note_on_c, 1, 78, 0
2, 60960, Note_on_c, 1, 79, 45
2, 61008, Note_on_c, 1, 79, 0
2, 61008, Note_on_c, 1, 76, 45
2, 61054, Note_on_c, 1, 76, 0
2, 61056, Note_on_c, 1, 81, 45
2, 61248, Note_on_c, 1, 81, 0
2, 61248, Note_on_c, 1, 86, 45
2, 61342, Note_on_c, 1, 86, 0
2, 61344, Note_on_c, 1, 57, 45
2, 61438, Note_on_c, 1, 57, 0
2, 61440, Note_on_c, 1, 62, 45
2, 61632, Note_on_c, 1, 62, 0
2, 61632, Note_on_c, 1, 64, 45
2, 61680, Note_on_c, 1, 64, 0
2, 61680, Note_on_c, 1, 66, 45
2, 61728, Note_on_c, 1, 66, 0
2, 61728, Note_on_c, 1, 67, 45
2, 61776, Note_on_c, 1, 67, 0
2, 61776, Note_on_c, 1, 64, 45
2, 61822, Note_on_c, 1, 64, 0
2, 61824, Note_on_c, 1, 62, 45
2, 61984, Note_on_c, 1, 62, 0
2, 62208, Note_on_c, 1, 69, 45
2, 62302, Note_on_c, 1, 69, 0
2, 62304, Note_on_c, 1, 74, 45
2, 62496, Note_on_c, 1, 74, 0
2, 62496, Note_on_c, 1, 76, 45
2, 62544, Note_on_c, 1, 76, 0
2, 62544, Note_on_c, 1, 77, 45
2, 62592, Note_on_c, 1, 77, 0
2, 62592, Note_on_c, 1, 79, 45
2, 62640, Note_on_c, 1, 79, 0
2, 62640, Note_on_c, 1, 76, 45
2, 62686, Note_on_c, 1, 76, 0
2, 62688, Note_on_c, 1, 81, 45
2, 62880, Note_on_c, 1, 81, 0
2, 62880, Note_on_c, 1, 86, 45
2, 62974, Note_on_c, 1, 86, 0
2, 62976, Note_on_c, 1, 81, 92
2, 63070, Note_on_c, 1, 81, 0
2, 63072, Note_on_c, 1, 86, 92
2, 63264, Note_on_c, 1, 86, 0
2, 63264, Note_on_c, 1, 88, 92
2, 63312, Note_on_c, 1, 88, 0
2, 63312, Note_on_c, 1, 89, 92
2, 63360, Note_on_c, 1, 89, 0
2, 63360, Note_on_c, 1, 91, 92
2, 63408, Note_on_c, 1, 91, 0
2, 63408, Note_on_c, 1, 88, 92
2, 63454, Note_on_c, 1, 88, 0
2, 63456, Note_on_c, 1, 86, 92
2, 63550, Note_on_c, 1, 86, 0
2, 63840, Note_on_c, 1, 57, 127
2, 63888, Note_on_c, 1, 57, 0
2, 64032, Note_on_c, 1, 57, 127
2, 64080, Note_on_c, 1, 57, 0
2, 64224, Note_on_c, 1, 62, 127
2, 64480, Note_on_c, 1, 62, 0
2, 64512, Note_on_c, 1, 65, 45
2, 64560, Note_on_c, 1, 65, 0
2, 64560, Note_on_c, 1, 62, 45
2, 64606, Note_on_c, 1, 62, 0
2, 64608, Note_on_c, 1, 62, 45
2, 64656, Note_on_c, 1, 62, 0
2, 64656, Note_on_c, 1, 61, 45
2, 64702, Note_on_c, 1, 61, 0
2, 64704, Note_on_c, 1, 64, 45
2, 64752, Note_on_c, 1, 64, 0
2, 64752, Note_on_c, 1, 61, 45
2, 64798, Note_on_c, 1, 61, 0
2, 64800, Note_on_c, 1, 64, 45
2, 64848, Note_on_c, 1, 64, 0
2, 64848, Note_on_c, 1, 62, 45
2, 64894, Note_on_c, 1, 62, 0
2, 64896, Note_on_c, 1, 65, 45
2, 64944, Note_on_c, 1, 65, 0
2, 64944, Note_on_c, 1, 62, 45
2, 64990, Note_on_c, 1, 62, 0
2, 64992, Note_on_c, 1, 69, 45
2, 65086, Note_on_c, 1, 69, 0
2, 66048, Note_on_c, 1, 74, 45
2, 66096, Note_on_c, 1, 74, 0
2, 66096, Note_on_c, 1, 70, 45
2, 66142, Note_on_c, 1, 70, 0
2, 66144, Note_on_c, 1, 70, 45
2, 66192, Note_on_c, 1, 70, 0
2, 66192, Note_on_c, 1, 69, 45
2, 66238, Note_on_c, 1, 69, 0
2, 66240, Note_on_c, 1, 72, 45
2, 66288, Note_on_c, 1, 72, 0
2, 66288, Note_on_c, 1, 69, 45
2, 66334, Note_on_c, 1, 69, 0
2, 66336, Note_on_c, 1, 72, 45
2, 66384, Note_on_c, 1, 72, 0
2, 66384, Note_on_c, 1, 70, 45
2, 66430, Note_on_c, 1, 70, 0
2, 66432, Note_on_c, 1, 74, 45
2, 66480, Note_on_c, 1, 74, 0
2, 66480, Note_on_c, 1, 70, 45
2, 66526, Note_on_c, 1, 70, 0
2, 66528, Note_on_c, 1, 77, 45
2, 66622, Note_on_c, 1, 77, 0
2, 66816, Note_on_c, 1, 75, 45
2, 66864, Note_on_c, 1, 75, 0
2, 66864, Note_on_c, 1, 72, 45
2, 66910, Note_on_c, 1, 72, 0
2, 66912, Note_on_c, 1, 72, 45
2, 66960, Note_on_c, 1, 72, 0
2, 66960, Note_on_c, 1, 71, 45
2, 67006, Note_on_c, 1, 71, 0
2, 67008, Note_on_c, 1, 74, 45
2, 67056, Note_on_c, 1, 74, 0
2, 67056, Note_on_c, 1, 71, 45
2, 67102, Note_on_c, 1, 71, 0
2, 67104, Note_on_c, 1, 74, 45
2, 67152, Note_on_c, 1, 74, 0
2, 67152, Note_on_c, 1, 72, 45
2, 67198, Note_on_c, 1, 72, 0
2, 67200, Note_on_c, 1, 75, 45
2, 67248, Note_on_c, 1, 75, 0
2, 67248, Note_on_c, 1, 72, 45
2, 67294, Note_on_c, 1, 72, 0
2, 67296, Note_on_c, 1, 79, 45
2, 67390, Note_on_c, 1, 79, 0
2, 68160, Note_on_c, 1, 70, 45
2, 68192, Note_on_c, 1, 70, 0
2, 68256, Note_on_c, 1, 82, 45
2, 68288, Note_on_c, 1, 82, 0
2, 68544, Note_on_c, 1, 70, 45
2, 68576, Note_on_c, 1, 70, 0
2, 68640, Note_on_c, 1, 82, 45
2, 68672, Note_on_c, 1, 82, 0
2, 68928, Note_on_c, 1, 70, 50
2, 68976, Note_on_c, 1, 70, 0
2, 68976, Note_on_c, 1, 82, 53
2, 69022, Note_on_c, 1, 82, 0
2, 69120, Note_on_c, 1, 70, 62
2, 69168, Note_on_c, 1, 70, 0
2, 69168, Note_on_c, 1, 82, 65
2, 69214, Note_on_c, 1, 82, 0
2, 69312, Note_on_c, 1, 70, 74
2, 69360, Note_on_c, 1, 70, 0
2, 69360, Note_on_c, 1, 82, 77
2, 69406, Note_on_c, 1, 82, 0
2, 69504, Note_on_c, 1, 70, 86
2, 69598, Note_on_c, 1, 70, 0
2, 69600, Note_on_c, 1, 55, 92
2, 69600, Note_on_c, 1, 63, 92
2, 69600, Note_on_c, 1, 70, 92
2, 69600, Note_on_c, 1, 79, 92
2, 69760, Note_on_c, 1, 55, 0
2, 69760, Note_on_c, 1, 63, 0
2, 69760, Note_on_c, 1, 70, 0
2, 69760, Note_on_c, 1, 79, 0
2, 69792, Note_on_c, 1, 77, 92
2, 69816, Note_on_c, 1, 77, 0
2, 69816, Note_on_c, 1, 75, 92
2, 69840, Note_on_c, 1, 75, 0
2, 69840, Note_on_c, 1, 74, 92
2, 69864, Note_on_c, 1, 74, 0
2, 69864, Note_on_c, 1, 75, 92
2, 69888, Note_on_c, 1, 75, 0
2, 69888, Note_on_c, 1, 74, 92
2, 69912, Note_on_c, 1, 74, 0
2, 69912, Note_on_c, 1, 75, 92
2, 69936, Note_on_c, 1, 75, 0
2, 69936, Note_on_c, 1, 79, 92
2, 69960, Note_on_c, 1, 79, 0
2, 69960, Note_on_c, 1, 75, 92
2, 69982, Note_on_c, 1, 75, 0
2, 69984, Note_on_c, 1, 70, 92
2, 70144, Note_on_c, 1, 70, 0
2, 70344, Note_on_c, 1, 70, 92
2, 70366, Note_on_c, 1, 70, 0
2, 70368, Note_on_c, 1, 75, 92
2, 70462, Note_on_c, 1, 75, 0
2, 70536, Note_on_c, 1, 75, 92
2, 70558, Note_on_c, 1, 75, 0
2, 70560, Note_on_c, 1, 79, 92
2, 70654, Note_on_c, 1, 79, 0
2, 70728, Note_on_c, 1, 79, 92
2, 70750, Note_on_c, 1, 79, 0
2, 70752, Note_on_c, 1, 82, 92
2, 70846, Note_on_c, 1, 82, 0
2, 71136, Note_on_c, 1, 63, 30
2, 71520, Note_on_c, 1, 63, 0
2, 71520, Note_on_c, 1, 65, 30
2, 71952, Note_on_c, 1, 66, 0
2, 71952, Note_on_c, 1, 67, 30
2, 71998, Note_on_c, 1, 67, 0
2, 72000, Note_on_c, 1, 68, 30
2, 72032, Note_on_c, 1, 68, 0
2, 72048, Note_on_c, 1, 69, 30
2, 72080, Note_on_c, 1, 69, 0
2, 72096, Note_on_c, 1, 70, 30
2, 72128, Note_on_c, 1, 70, 0
2, 72144, Note_on_c, 1, 69, 30
2, 72176, Note_on_c, 1, 69, 0
2, 72192, Note_on_c, 1, 70, 30
2, 72224, Note_on_c, 1, 70, 0
2, 72240, Note_on_c, 1, 69, 30
2, 72272, Note_on_c, 1, 69, 0
2, 72288, Note_on_c, 1, 70, 30
2, 72720, Note_on_c, 1, 71, 0
2, 72720, Note_on_c, 1, 72, 30
2, 72766, Note_on_c, 1, 72, 0
2, 72768, Note_on_c, 1, 73, 30
2, 72800, Note_on_c, 1, 73, 0
2, 72816, Note_on_c, 1, 74, 30
2, 72848, Note_on_c, 1, 74, 0
2, 72864, Note_on_c, 1, 75, 30
2, 72896, Note_on_c, 1, 75, 0
2, 72912, Note_on_c, 1, 74, 30
2, 72944, Note_on_c, 1, 74, 0
2, 72960, Note_on_c, 1, 75, 30
2, 72992, Note_on_c, 1, 75, 0
2, 73008, Note_on_c, 1, 74, 30
2, 73040, Note_on_c, 1, 74, 0
2, 73056, Note_on_c, 1, 75, 30
2, 73776, Note_on_c, 1, 75, 0
2, 73824, Note_on_c, 1, 74, 30
2, 73918, Note_on_c, 1, 74, 0
2, 73992, Note_on_c, 1, 86, 30
2, 74014, Note_on_c, 1, 86, 0
2, 74016, Note_on_c, 1, 82, 30
2, 74110, Note_on_c, 1, 82, 0
2, 74184, Note_on_c, 1, 82, 30
2, 74206, Note_on_c, 1, 82, 0
2, 74208, Note_on_c, 1, 77, 30
2, 74302, Note_on_c, 1, 77, 0
2, 74376, Note_on_c, 1, 77, 30
2, 74398, Note_on_c, 1, 77, 0
2, 74400, Note_on_c, 1, 89, 30
2, 74494, Note_on_c, 1, 89, 0
2, 74568, Note_on_c, 1, 89, 30
2, 74590, Note_on_c, 1, 89, 0
2, 74592, Note_on_c, 1, 87, 30
2, 74686, Note_on_c, 1, 87, 0
2, 74760, Note_on_c, 1, 87, 30
2, 74782, Note_on_c, 1, 87, 0
2, 74784, Note_on_c, 1, 84, 30
2, 74878, Note_on_c, 1, 84, 0
2, 74952, Note_on_c, 1, 84, 30
2, 74974, Note_on_c, 1, 84, 0
2, 74976, Note_on_c, 1, 85, 30
2, 75070, Note_on_c, 1, 85, 0
2, 75144, Note_on_c, 1, 85, 30
2, 75166, Note_on_c, 1, 85, 0
2, 75168, Note_on_c, 1, 82, 30
2, 75262, Note_on_c, 1, 82, 0
2, 75336, Note_on_c, 1, 82, 30
2, 75358, Note_on_c, 1, 82, 0
2, 75360, Note_on_c, 1, 79, 30
2, 75454, Note_on_c, 1, 79, 0
2, 75528, Note_on_c, 1, 79, 30
2, 75550, Note_on_c, 1, 79, 0
2, 75552, Note_on_c, 1, 84, 30
2, 75646, Note_on_c, 1, 84, 0
2, 75720, Note_on_c, 1, 84, 30
2, 75742, Note_on_c, 1, 84, 0
2, 75744, Note_on_c, 1, 77, 30
2, 75838, Note_on_c, 1, 77, 0
2, 75840, Note_on_c, 1, 65, 30
2, 75934, Note_on_c, 1, 65, 0
2, 76032, Note_on_c, 1, 80, 30
2, 76126, Note_on_c, 1, 80, 0
2, 76224, Note_on_c, 1, 82, 30
2, 76318, Note_on_c, 1, 82, 0
2, 76416, Note_on_c, 1, 76, 30
2, 76510, Note_on_c, 1, 76, 0
2, 76608, Note_on_c, 1, 76, 30
2, 76702, Note_on_c, 1, 76, 0
2, 76800, Note_on_c, 1, 85, 30
2, 76894, Note_on_c, 1, 85, 0
2, 76992, Note_on_c, 1, 84, 30
2, 77086, Note_on_c, 1, 84, 0
2, 77184, Note_on_c, 1, 84, 30
2, 77278, Note_on_c, 1, 84, 0
2, 77376, Note_on_c, 1, 78, 30
2, 77470, Note_on_c, 1, 78, 0
2, 77568, Note_on_c, 1, 84, 30
2, 77662, Note_on_c, 1, 84, 0
2, 77664, Note_on_c, 1, 82, 30
2, 77696, Note_on_c, 1, 82, 0
2, 77712, Note_on_c, 1, 79, 30
2, 77744, Note_on_c, 1, 79, 0
2, 77760, Note_on_c, 1, 79, 30
2, 77792, Note_on_c, 1, 79, 0
2, 77904, Note_on_c, 1, 82, 30
2, 77936, Note_on_c, 1, 82, 0
2, 77952, Note_on_c, 1, 82, 30
2, 77984, Note_on_c, 1, 82, 0
2, 78096, Note_on_c, 1, 85, 30
2, 78128, Note_on_c, 1, 85, 0
2, 78144, Note_on_c, 1, 85, 30
2, 78176, Note_on_c, 1, 85, 0
2, 78288, Note_on_c, 1, 86, 30
2, 78320, Note_on_c, 1, 86, 0
2, 78336, Note_on_c, 1, 86, 30
2, 78368, Note_on_c, 1, 86, 0
2, 78480, Note_on_c, 1, 78, 31
2, 78526, Note_on_c, 1, 78, 0
2, 78528, Note_on_c, 1, 78, 32
2, 78574, Note_on_c, 1, 78, 0
2, 78672, Note_on_c, 1, 87, 35
2, 78718, Note_on_c, 1, 87, 0
2, 78720, Note_on_c, 1, 87, 36
2, 78766, Note_on_c, 1, 87, 0
2, 78864, Note_on_c, 1, 86, 39
2, 78910, Note_on_c, 1, 86, 0
2, 78912, Note_on_c, 1, 86, 40
2, 78958, Note_on_c, 1, 86, 0
2, 79056, Note_on_c, 1, 89, 43
2, 79102, Note_on_c, 1, 89, 0
2, 79104, Note_on_c, 1, 89, 44
2, 79150, Note_on_c, 1, 89, 0
2, 79248, Note_on_c, 1, 80, 47
2, 79294, Note_on_c, 1, 80, 0
2, 79296, Note_on_c, 1, 80, 48
2, 79342, Note_on_c, 1, 80, 0
2, 79440, Note_on_c, 1, 89, 51
2, 79486, Note_on_c, 1, 89, 0
2, 79488, Note_on_c, 1, 89, 52
2, 79534, Note_on_c, 1, 89, 0
2, 79632, Note_on_c, 1, 88, 58
2, 79678, Note_on_c, 1, 88, 0
2, 79680, Note_on_c, 1, 88, 60
2, 79726, Note_on_c, 1, 88, 0
2, 79824, Note_on_c, 1, 91, 66
2, 79870, Note_on_c, 1, 91, 0
2, 79872, Note_on_c, 1, 91, 68
2, 79918, Note_on_c, 1, 91, 0
2, 80016, Note_on_c, 1, 73, 74
2, 80062, Note_on_c, 1, 73, 0
2, 80064, Note_on_c, 1, 73, 76
2, 80110, Note_on_c, 1, 73, 0
2, 80208, Note_on_c, 1, 82, 82
2, 80254, Note_on_c, 1, 82, 0
2, 80256, Note_on_c, 1, 82, 84
2, 80302, Note_on_c, 1, 82, 0
2, 80448, Note_on_c, 1, 73, 92
2, 80448, Note_on_c, 1, 82, 92
2, 80542, Note_on_c, 1, 73, 0
2, 80542, Note_on_c, 1, 82, 0
2, 80736, Note_on_c, 1, 73, 45
2, 80784, Note_on_c, 1, 73, 0
2, 80928, Note_on_c, 1, 73, 45
2, 80976, Note_on_c, 1, 73, 0
2, 81120, Note_on_c, 1, 82, 63
2, 81376, Note_on_c, 1, 82, 0
2, 81408, Note_on_c, 1, 82, 45
2, 81456, Note_on_c, 1, 82, 0
2, 81456, Note_on_c, 1, 79, 45
2, 81502, Note_on_c, 1, 79, 0
2, 81504, Note_on_c, 1, 81, 45
2, 81552, Note_on_c, 1, 81, 0
2, 81552, Note_on_c, 1, 79, 45
2, 81598, Note_on_c, 1, 79, 0
2, 81600, Note_on_c, 1, 82, 45
2, 81648, Note_on_c, 1, 82, 0
2, 81648, Note_on_c, 1, 79, 45
2, 81694, Note_on_c, 1, 79, 0
2, 81696, Note_on_c, 1, 81, 45
2, 81744, Note_on_c, 1, 81, 0
2, 81744, Note_on_c, 1, 79, 45
2, 81790, Note_on_c, 1, 79, 0
2, 81792, Note_on_c, 1, 82, 45
2, 81840, Note_on_c, 1, 82, 0
2, 81840, Note_on_c, 1, 79, 45
2, 81886, Note_on_c, 1, 79, 0
2, 81888, Note_on_c, 1, 81, 45
2, 81936, Note_on_c, 1, 81, 0
2, 81936, Note_on_c, 1, 79, 45
2, 81982, Note_on_c, 1, 79, 0
2, 82272, Note_on_c, 1, 73, 45
2, 82320, Note_on_c, 1, 73, 0
2, 82464, Note_on_c, 1, 73, 68
2, 82512, Note_on_c, 1, 73, 0
2, 82656, Note_on_c, 1, 72, 127
2, 82656, Note_on_c, 1, 81, 127
2, 82912, Note_on_c, 1, 72, 0
2, 82912, Note_on_c, 1, 81, 0
2, 82944, Note_on_c, 1, 84, 45
2, 82992, Note_on_c, 1, 84, 0
2, 82992, Note_on_c, 1, 81, 45
2, 83038, Note_on_c, 1, 81, 0
2, 83040, Note_on_c, 1, 83, 45
2, 83088, Note_on_c, 1, 83, 0
2, 83088, Note_on_c, 1, 81, 45
2, 83134, Note_on_c, 1, 81, 0
2, 83136, Note_on_c, 1, 84, 45
2, 83184, Note_on_c, 1, 84, 0
2, 83184, Note_on_c, 1, 81, 45
2, 83230, Note_on_c, 1, 81, 0
2, 83232, Note_on_c, 1, 83, 45
2, 83280, Note_on_c, 1, 83, 0
2, 83280, Note_on_c, 1, 81, 45
2, 83326, Note_on_c, 1, 81, 0
2, 83328, Note_on_c, 1, 84, 45
2, 83376, Note_on_c, 1, 84, 0
2, 83376, Note_on_c, 1, 81, 45
2, 83422, Note_on_c, 1, 81, 0
2, 83424, Note_on_c, 1, 83, 45
2, 83472, Note_on_c, 1, 83, 0
2, 83472, Note_on_c, 1, 81, 45
2, 83518, Note_on_c, 1, 81, 0
2, 83712, Note_on_c, 1, 88, 45
2, 83760, Note_on_c, 1, 88, 0
2, 83760, Note_on_c, 1, 84, 45
2, 83806, Note_on_c, 1, 84, 0
2, 83808, Note_on_c, 1, 86, 45
2, 83856, Note_on_c, 1, 86, 0
2, 83856, Note_on_c, 1, 84, 45
2, 83902, Note_on_c, 1, 84, 0
2, 83904, Note_on_c, 1, 88, 45
2, 83952, Note_on_c, 1, 88, 0
2, 83952, Note_on_c, 1, 84, 45
2, 83998, Note_on_c, 1, 84, 0
2, 84000, Note_on_c, 1, 86, 45
2, 84048, Note_on_c, 1, 86, 0
2, 84048, Note_on_c, 1, 84, 45
2, 84094, Note_on_c, 1, 84, 0
2, 84096, Note_on_c, 1, 88, 45
2, 84144, Note_on_c, 1, 88, 0
2, 84144, Note_on_c, 1, 84, 45
2, 84190, Note_on_c, 1, 84, 0
2, 84192, Note_on_c, 1, 86, 45
2, 84240, Note_on_c, 1, 86, 0
2, 84240, Note_on_c, 1, 84, 45
2, 84286, Note_on_c, 1, 84, 0
2, 84480, Note_on_c, 1, 88, 45
2, 84528, Note_on_c, 1, 88, 0
2, 84528, Note_on_c, 1, 84, 44
2, 84574, Note_on_c, 1, 84, 0
2, 84576, Note_on_c, 1, 86, 42
2, 84624, Note_on_c, 1, 86, 0
2, 84624, Note_on_c, 1, 84, 40
2, 84670, Note_on_c, 1, 84, 0
2, 84864, Note_on_c, 1, 88, 30
2, 84912, Note_on_c, 1, 88, 0
2, 84912, Note_on_c, 1, 84, 30
2, 84958, Note_on_c, 1, 84, 0
2, 84960, Note_on_c, 1, 86, 30
2, 85008, Note_on_c, 1, 86, 0
2, 85008, Note_on_c, 1, 84, 30
2, 85054, Note_on_c, 1, 84, 0
2, 86496, Note_on_c, 1, 74, 92
2, 86544, Note_on_c, 1, 74, 0
2, 86688, Note_on_c, 1, 62, 92
2, 86688, Note_on_c, 1, 74, 92
2, 86736, Note_on_c, 1, 62, 0
2, 86736, Note_on_c, 1, 74, 0
2, 86880, Note_on_c, 1, 62, 127
2, 87216, Note_on_c, 1, 62, 0
2, 87264, Note_on_c, 1, 62, 92
2, 87264, Note_on_c, 1, 74, 92
2, 87312, Note_on_c, 1, 62, 0
2, 87312, Note_on_c, 1, 74, 0
2, 87456, Note_on_c, 1, 62, 92
2, 87456, Note_on_c, 1, 74, 92
2, 87504, Note_on_c, 1, 62, 0
2, 87504, Note_on_c, 1, 74, 0
2, 87648, Note_on_c, 1, 62, 127
2, 87648, Note_on_c, 1, 74, 127
2, 87984, Note_on_c, 1, 62, 0
2, 87984, Note_on_c, 1, 74, 0
2, 88032, Note_on_c, 1, 74, 92
2, 88192, Note_on_c, 1, 74, 0
2, 88224, Note_on_c, 1, 71, 92
2, 88248, Note_on_c, 1, 71, 0
2, 88248, Note_on_c, 1, 72, 92
2, 88272, Note_on_c, 1, 72, 0
2, 88272, Note_on_c, 1, 71, 92
2, 88296, Note_on_c, 1, 71, 0
2, 88296, Note_on_c, 1, 72, 92
2, 88320, Note_on_c, 1, 72, 0
2, 88320, Note_on_c, 1, 74, 92
2, 88344, Note_on_c, 1, 74, 0
2, 88344, Note_on_c, 1, 76, 92
2, 88368, Note_on_c, 1, 76, 0
2, 88368, Note_on_c, 1, 78, 92
2, 88392, Note_on_c, 1, 78, 0
2, 88392, Note_on_c, 1, 79, 92
2, 88414, Note_on_c, 1, 79, 0
2, 88416, Note_on_c, 1, 74, 92
2, 88576, Note_on_c, 1, 74, 0
2, 88752, Note_on_c, 1, 71, 92
2, 88798, Note_on_c, 1, 71, 0
2, 88800, Note_on_c, 1, 74, 92
2, 88822, Note_on_c, 1, 74, 0
2, 88824, Note_on_c, 1, 72, 92
2, 88894, Note_on_c, 1, 72, 0
2, 88968, Note_on_c, 1, 72, 92
2, 88990, Note_on_c, 1, 72, 0
2, 88992, Note_on_c, 1, 69, 92
2, 89086, Note_on_c, 1, 69, 0
2, 89160, Note_on_c, 1, 66, 92
2, 89182, Note_on_c, 1, 66, 0
2, 89184, Note_on_c, 1, 62, 92
2, 89344, Note_on_c, 1, 62, 0
2, 89472, Note_on_c, 1, 62, 95
2, 89566, Note_on_c, 1, 62, 0
2, 89568, Note_on_c, 1, 67, 96
2, 89760, Note_on_c, 1, 67, 0
2, 89760, Note_on_c, 1, 69, 99
2, 89808, Note_on_c, 1, 69, 0
2, 89808, Note_on_c, 1, 71, 99
2, 89856, Note_on_c, 1, 71, 0
2, 89856, Note_on_c, 1, 72, 99
2, 89904, Note_on_c, 1, 72, 0
2, 89904, Note_on_c, 1, 69, 99
2, 89950, Note_on_c, 1, 69, 0
2, 89952, Note_on_c, 1, 74, 100
2, 90144, Note_on_c, 1, 74, 0
2, 90144, Note_on_c, 1, 79, 104
2, 90238, Note_on_c, 1, 79, 0
2, 90240, Note_on_c, 1, 55, 106
2, 90334, Note_on_c, 1, 55, 0
2, 90336, Note_on_c, 1, 67, 45
2, 90528, Note_on_c, 1, 67, 0
2, 90528, Note_on_c, 1, 69, 45
2, 90576, Note_on_c, 1, 69, 0
2, 90576, Note_on_c, 1, 71, 45
2, 90624, Note_on_c, 1, 71, 0
2, 90624, Note_on_c, 1, 72, 45
2, 90672, Note_on_c, 1, 72, 0
2, 90672, Note_on_c, 1, 69, 45
2, 90718, Note_on_c, 1, 69, 0
2, 90720, Note_on_c, 1, 67, 60
2, 90880, Note_on_c, 1, 67, 0
2, 91104, Note_on_c, 1, 71, 92
2, 91104, Note_on_c, 1, 83, 92
2, 91264, Note_on_c, 1, 71, 0
2, 91264, Note_on_c, 1, 83, 0
2, 91296, Note_on_c, 1, 81, 92
2, 91320, Note_on_c, 1, 81, 0
2, 91320, Note_on_c, 1, 79, 92
2, 91344, Note_on_c, 1, 79, 0
2, 91344, Note_on_c, 1, 78, 92
2, 91368, Note_on_c, 1, 78, 0
2, 91368, Note_on_c, 1, 79, 92
2, 91392, Note_on_c, 1, 79, 0
2, 91392, Note_on_c, 1, 78, 92
2, 91416, Note_on_c, 1, 78, 0
2, 91416, Note_on_c, 1, 79, 92
2, 91440, Note_on_c, 1, 79, 0
2, 91440, Note_on_c, 1, 83, 92
2, 91464, Note_on_c, 1, 83, 0
2, 91464, Note_on_c, 1, 79, 92
2, 91486, Note_on_c, 1, 79, 0
2, 91488, Note_on_c, 1, 74, 92
2, 91648, Note_on_c, 1, 74, 0
2, 91848, Note_on_c, 1, 62, 45
2, 91870, Note_on_c, 1, 62, 0
2, 91872, Note_on_c, 1, 67, 45
2, 91966, Note_on_c, 1, 67, 0
2, 92040, Note_on_c, 1, 67, 45
2, 92062, Note_on_c, 1, 67, 0
2, 92064, Note_on_c, 1, 71, 45
2, 92158, Note_on_c, 1, 71, 0
2, 92232, Note_on_c, 1, 71, 45
2, 92254, Note_on_c, 1, 71, 0
2, 92256, Note_on_c, 1, 74, 45
2, 92350, Note_on_c, 1, 74, 0
2, 93024, Note_on_c, 1, 77, 30
2, 93184, Note_on_c, 1, 77, 0
2, 93216, Note_on_c, 1, 76, 30
2, 93240, Note_on_c, 1, 76, 0
2, 93240, Note_on_c, 1, 74, 30
2, 93264, Note_on_c, 1, 74, 0
2, 93264, Note_on_c, 1, 73, 30
2, 93288, Note_on_c, 1, 73, 0
2, 93288, Note_on_c, 1, 74, 30
2, 93312, Note_on_c, 1, 74, 0
2, 93312, Note_on_c, 1, 73, 30
2, 93336, Note_on_c, 1, 73, 0
2, 93336, Note_on_c, 1, 74, 30
2, 93360, Note_on_c, 1, 74, 0
2, 93360, Note_on_c, 1, 77, 30
2, 93384, Note_on_c, 1, 77, 0
2, 93384, Note_on_c, 1, 74, 30
2, 93406, Note_on_c, 1, 74, 0
2, 93408, Note_on_c, 1, 69, 30
2, 93502, Note_on_c, 1, 69, 0
2, 93792, Note_on_c, 1, 79, 30
2, 93952, Note_on_c, 1, 79, 0
2, 93984, Note_on_c, 1, 78, 30
2, 94008, Note_on_c, 1, 78, 0
2, 94008, Note_on_c, 1, 76, 30
2, 94032, Note_on_c, 1, 76, 0
2, 94032, Note_on_c, 1, 75, 30
2, 94056, Note_on_c, 1, 75, 0
2, 94056, Note_on_c, 1, 76, 30
2, 94080, Note_on_c, 1, 76, 0
2, 94080, Note_on_c, 1, 75, 30
2, 94104, Note_on_c, 1, 75, 0
2, 94104, Note_on_c, 1, 76, 30
2, 94128, Note_on_c, 1, 76, 0
2, 94128, Note_on_c, 1, 79, 30
2, 94152, Note_on_c, 1, 79, 0
2, 94152, Note_on_c, 1, 76, 30
2, 94174, Note_on_c, 1, 76, 0
2, 94176, Note_on_c, 1, 75, 30
2, 94368, Note_on_c, 1, 75, 0
2, 94368, Note_on_c, 1, 76, 30
2, 94464, Note_on_c, 1, 76, 0
2, 94464, Note_on_c, 1, 79, 30
2, 94558, Note_on_c, 1, 79, 0
2, 94560, Note_on_c, 1, 83, 30
2, 94848, Note_on_c, 1, 83, 0
2, 94848, Note_on_c, 1, 82, 35
2, 94942, Note_on_c, 1, 82, 0
2, 94944, Note_on_c, 1, 83, 37
2, 95232, Note_on_c, 1, 83, 0
2, 95232, Note_on_c, 1, 82, 43
2, 95326, Note_on_c, 1, 82, 0
2, 95328, Note_on_c, 1, 83, 45
2, 95422, Note_on_c, 1, 83, 0
2, 95520, Note_on_c, 1, 71, 45
2, 95614, Note_on_c, 1, 71, 0
2, 95712, Note_on_c, 1, 71, 45
2, 95806, Note_on_c, 1, 71, 0
2, 96096, Note_on_c, 1, 71, 30
2, 96256, Note_on_c, 1, 71, 0
2, 96288, Note_on_c, 1, 68, 30
2, 96312, Note_on_c, 1, 68, 0
2, 96312, Note_on_c, 1, 69, 30
2, 96336, Note_on_c, 1, 69, 0
2, 96336, Note_on_c, 1, 68, 30
2, 96360, Note_on_c, 1, 68, 0
2, 96360, Note_on_c, 1, 69, 30
2, 96384, Note_on_c, 1, 69, 0
2, 96384, Note_on_c, 1, 71, 30
2, 96408, Note_on_c, 1, 71, 0
2, 96408, Note_on_c, 1, 73, 30
2, 96432, Note_on_c, 1, 73, 0
2, 96432, Note_on_c, 1, 75, 30
2, 96456, Note_on_c, 1, 75, 0
2, 96456, Note_on_c, 1, 76, 30
2, 96478, Note_on_c, 1, 76, 0
2, 96480, Note_on_c, 1, 71, 30
2, 96640, Note_on_c, 1, 71, 0
2, 96840, Note_on_c, 1, 68, 45
2, 96862, Note_on_c, 1, 68, 0
2, 96864, Note_on_c, 1, 71, 45
2, 96886, Note_on_c, 1, 71, 0
2, 96888, Note_on_c, 1, 69, 45
2, 96958, Note_on_c, 1, 69, 0
2, 97032, Note_on_c, 1, 69, 60
2, 97054, Note_on_c, 1, 69, 0
2, 97056, Note_on_c, 1, 66, 60
2, 97150, Note_on_c, 1, 66, 0
2, 97224, Note_on_c, 1, 63, 60
2, 97246, Note_on_c, 1, 63, 0
2, 97248, Note_on_c, 1, 59, 60
2, 97408, Note_on_c, 1, 59, 0
2, 97536, Note_on_c, 1, 71, 30
2, 97630, Note_on_c, 1, 71, 0
2, 97632, Note_on_c, 1, 76, 30
2, 97824, Note_on_c, 1, 76, 0
2, 97824, Note_on_c, 1, 78, 30
2, 97872, Note_on_c, 1, 78, 0
2, 97872, Note_on_c, 1, 80, 30
2, 97920, Note_on_c, 1, 80, 0
2, 97920, Note_on_c, 1, 81, 30
2, 97968, Note_on_c, 1, 81, 0
2, 97968, Note_on_c, 1, 78, 30
2, 98014, Note_on_c, 1, 78, 0
2, 98016, Note_on_c, 1, 83, 30
2, 98208, Note_on_c, 1, 83, 0
2, 98208, Note_on_c, 1, 88, 30
2, 98302, Note_on_c, 1, 88, 0
2, 98304, Note_on_c, 1, 71, 30
2, 98398, Note_on_c, 1, 71, 0
2, 98400, Note_on_c, 1, 76, 30
2, 98592, Note_on_c, 1, 76, 0
2, 98592, Note_on_c, 1, 78, 30
2, 98640, Note_on_c, 1, 78, 0
2, 98640, Note_on_c, 1, 79, 30
2, 98688, Note_on_c, 1, 79, 0
2, 98688, Note_on_c, 1, 81, 30
2, 98736, Note_on_c, 1, 81, 0
2, 98736, Note_on_c, 1, 78, 30
2, 98782, Note_on_c, 1, 78, 0
2, 98784, Note_on_c, 1, 79, 30
2, 98976, Note_on_c, 1, 79, 0
2, 98976, Note_on_c, 1, 81, 30
2, 99024, Note_on_c, 1, 81, 0
2, 99024, Note_on_c, 1, 83, 30
2, 99072, Note_on_c, 1, 83, 0
2, 99072, Note_on_c, 1, 84, 30
2, 99120, Note_on_c, 1, 84, 0
2, 99120, Note_on_c, 1, 81, 30
2, 99166, Note_on_c, 1, 81, 0
2, 99168, Note_on_c, 1, 83, 30
2, 99360, Note_on_c, 1, 83, 0
2, 99360, Note_on_c, 1, 85, 30
2, 99408, Note_on_c, 1, 85, 0
2, 99408, Note_on_c, 1, 86, 30
2, 99456, Note_on_c, 1, 86, 0
2, 99456, Note_on_c, 1, 88, 30
2, 99504, Note_on_c, 1, 88, 0
2, 99504, Note_on_c, 1, 85, 30
2, 99550, Note_on_c, 1, 85, 0
2, 99552, Note_on_c, 1, 86, 30
2, 99712, Note_on_c, 1, 86, 0
2, 99744, Note_on_c, 1, 84, 35
2, 99904, Note_on_c, 1, 84, 0
2, 99936, Note_on_c, 1, 83, 40
2, 100096, Note_on_c, 1, 83, 0
2, 100128, Note_on_c, 1, 85, 45
2, 100288, Note_on_c, 1, 85, 0
2, 100320, Note_on_c, 1, 86, 50
2, 100512, Note_on_c, 1, 86, 0
2, 100512, Note_on_c, 1, 87, 55
2, 100560, Note_on_c, 1, 87, 0
2, 100560, Note_on_c, 1, 88, 56
2, 100608, Note_on_c, 1, 88, 0
2, 100608, Note_on_c, 1, 90, 57
2, 100656, Note_on_c, 1, 90, 0
2, 100656, Note_on_c, 1, 87, 58
2, 100702, Note_on_c, 1, 87, 0
2, 100704, Note_on_c, 1, 88, 59
2, 100896, Note_on_c, 1, 88, 0
2, 100896, Note_on_c, 1, 85, 64
2, 100944, Note_on_c, 1, 85, 0
2, 100944, Note_on_c, 1, 86, 65
2, 100992, Note_on_c, 1, 86, 0
2, 100992, Note_on_c, 1, 88, 66
2, 101040, Note_on_c, 1, 88, 0
2, 101040, Note_on_c, 1, 85, 67
2, 101086, Note_on_c, 1, 85, 0
2, 101088, Note_on_c, 1, 86, 68
2, 101109, Note_on_c, 1, 86, 0
2, 101120, Note_on_c, 1, 86, 69
2, 101152, Note_on_c, 1, 86, 0
2, 101152, Note_on_c, 1, 85, 70
2, 101182, Note_on_c, 1, 85, 0
2, 101184, Note_on_c, 1, 86, 71
2, 101205, Note_on_c, 1, 86, 0
2, 101216, Note_on_c, 1, 88, 72
2, 101237, Note_on_c, 1, 88, 0
2, 101248, Note_on_c, 1, 90, 73
2, 101269, Note_on_c, 1, 90, 0
2, 101280, Note_on_c, 1, 91, 74
2, 101310, Note_on_c, 1, 91, 0
2, 101312, Note_on_c, 1, 88, 75
2, 101342, Note_on_c, 1, 88, 0
2, 101344, Note_on_c, 1, 85, 76
2, 101374, Note_on_c, 1, 85, 0
2, 101376, Note_on_c, 1, 81, 77
2, 101406, Note_on_c, 1, 81, 0
2, 101408, Note_on_c, 1, 83, 78
2, 101438, Note_on_c, 1, 83, 0
2, 101440, Note_on_c, 1, 85, 79
2, 101470, Note_on_c, 1, 85, 0
2, 101472, Note_on_c, 1, 86, 80
2, 101502, Note_on_c, 1, 86, 0
2, 101504, Note_on_c, 1, 81, 81
2, 101534, Note_on_c, 1, 81, 0
2, 101536, Note_on_c, 1, 78, 82
2, 101566, Note_on_c, 1, 78, 0
2, 101568, Note_on_c, 1, 74, 83
2, 101598, Note_on_c, 1, 74, 0
2, 101600, Note_on_c, 1, 76, 84
2, 101630, Note_on_c, 1, 76, 0
2, 101632, Note_on_c, 1, 78, 85
2, 101662, Note_on_c, 1, 78, 0
2, 101664, Note_on_c, 1, 79, 86
2, 101694, Note_on_c, 1, 79, 0
2, 101696, Note_on_c, 1, 76, 87
2, 101726, Note_on_c, 1, 76, 0
2, 101728, Note_on_c, 1, 73, 88
2, 101758, Note_on_c, 1, 73, 0
2, 101760, Note_on_c, 1, 69, 89
2, 101790, Note_on_c, 1, 69, 0
2, 101792, Note_on_c, 1, 71, 90
2, 101822, Note_on_c, 1, 71, 0
2, 101824, Note_on_c, 1, 73, 91
2, 101854, Note_on_c, 1, 73, 0
2, 101856, Note_on_c, 1, 74, 92
2, 101886, Note_on_c, 1, 74, 0
2, 101888, Note_on_c, 1, 78, 92
2, 101918, Note_on_c, 1, 78, 0
2, 101920, Note_on_c, 1, 81, 92
2, 101950, Note_on_c, 1, 81, 0
2, 101952, Note_on_c, 1, 86, 92
2, 101982, Note_on_c, 1, 86, 0
2, 101984, Note_on_c, 1, 81, 92
2, 102014, Note_on_c, 1, 81, 0
2, 102016, Note_on_c, 1, 78, 92
2, 102046, Note_on_c, 1, 78, 0
2, 102048, Note_on_c, 1, 74, 92
2, 102078, Note_on_c, 1, 74, 0
2, 102080, Note_on_c, 1, 69, 92
2, 102110, Note_on_c, 1, 69, 0
2, 102112, Note_on_c, 1, 66, 92
2, 102142, Note_on_c, 1, 66, 0
2, 102144, Note_on_c, 1, 74, 92
2, 102174, Note_on_c, 1, 74, 0
2, 102176, Note_on_c, 1, 69, 92
2, 102206, Note_on_c, 1, 69, 0
2, 102208, Note_on_c, 1, 66, 92
2, 102238, Note_on_c, 1, 66, 0
2, 102240, Note_on_c, 1, 62, 75
2, 102400, Note_on_c, 1, 62, 0
2, 102816, Note_on_c, 1, 66, 45
2, 102864, Note_on_c, 1, 66, 0
2, 103008, Note_on_c, 1, 67, 63
2, 103264, Note_on_c, 1, 67, 0
2, 103296, Note_on_c, 1, 63, 45
2, 103390, Note_on_c, 1, 63, 0
2, 103392, Note_on_c, 1, 64, 45
2, 103424, Note_on_c, 1, 64, 0
2, 103488, Note_on_c, 1, 60, 45
2, 103520, Note_on_c, 1, 60, 0
2, 103584, Note_on_c, 1, 59, 45
2, 103616, Note_on_c, 1, 59, 0
2, 103680, Note_on_c, 1, 57, 45
2, 103712, Note_on_c, 1, 57, 0
2, 103776, Note_on_c, 1, 57, 45
2, 103870, Note_on_c, 1, 57, 0
2, 104352, Note_on_c, 1, 68, 45
2, 104400, Note_on_c, 1, 68, 0
2, 104544, Note_on_c, 1, 69, 63
2, 104800, Note_on_c, 1, 69, 0
2, 104832, Note_on_c, 1, 69, 45
2, 104928, Note_on_c, 1, 69, 0
2, 104928, Note_on_c, 1, 67, 45
2, 104960, Note_on_c, 1, 67, 0
2, 105024, Note_on_c, 1, 69, 45
2, 105056, Note_on_c, 1, 69, 0
2, 105120, Note_on_c, 1, 71, 45
2, 105152, Note_on_c, 1, 71, 0
2, 105216, Note_on_c, 1, 72, 45
2, 105248, Note_on_c, 1, 72, 0
2, 105312, Note_on_c, 1, 71, 45
2, 105344, Note_on_c, 1, 71, 0
2, 105360, Note_on_c, 1, 74, 45
2, 105392, Note_on_c, 1, 74, 0
2, 105408, Note_on_c, 1, 76, 45
2, 105440, Note_on_c, 1, 76, 0
2, 105456, Note_on_c, 1, 78, 45
2, 105488, Note_on_c, 1, 78, 0
2, 105504, Note_on_c, 1, 79, 45
2, 105536, Note_on_c, 1, 79, 0
2, 105552, Note_on_c, 1, 80, 45
2, 105584, Note_on_c, 1, 80, 0
2, 105600, Note_on_c, 1, 81, 45
2, 105632, Note_on_c, 1, 81, 0
2, 105648, Note_on_c, 1, 82, 45
2, 105680, Note_on_c, 1, 82, 0
2, 105696, Note_on_c, 1, 83, 45
2, 105744, Note_on_c, 1, 83, 0
2, 105888, Note_on_c, 1, 81, 45
2, 105936, Note_on_c, 1, 81, 0
2, 106080, Note_on_c, 1, 86, 63
2, 106336, Note_on_c, 1, 86, 0
2, 106368, Note_on_c, 1, 84, 45
2, 106462, Note_on_c, 1, 84, 0
2, 106464, Note_on_c, 1, 83, 45
2, 106496, Note_on_c, 1, 83, 0
2, 106560, Note_on_c, 1, 81, 45
2, 106592, Note_on_c, 1, 81, 0
2, 106656, Note_on_c, 1, 79, 45
2, 106688, Note_on_c, 1, 79, 0
2, 106752, Note_on_c, 1, 81, 45
2, 106784, Note_on_c, 1, 81, 0
2, 106848, Note_on_c, 1, 74, 45
2, 106880, Note_on_c, 1, 74, 0
2, 106896, Note_on_c, 1, 74, 45
2, 106928, Note_on_c, 1, 74, 0
2, 106944, Note_on_c, 1, 76, 45
2, 106976, Note_on_c, 1, 76, 0
2, 106992, Note_on_c, 1, 78, 45
2, 107024, Note_on_c, 1, 78, 0
2, 107040, Note_on_c, 1, 79, 45
2, 107072, Note_on_c, 1, 79, 0
2, 107088, Note_on_c, 1, 80, 45
2, 107120, Note_on_c, 1, 80, 0
2, 107136, Note_on_c, 1, 81, 45
2, 107168, Note_on_c, 1, 81, 0
2, 107184, Note_on_c, 1, 83, 45
2, 107216, Note_on_c, 1, 83, 0
2, 107232, Note_on_c, 1, 84, 45
2, 107280, Note_on_c, 1, 84, 0
2, 107424, Note_on_c, 1, 83, 45
2, 107472, Note_on_c, 1, 83, 0
2, 107616, Note_on_c, 1, 88, 63
2, 107872, Note_on_c, 1, 88, 0
2, 107904, Note_on_c, 1, 86, 45
2, 107998, Note_on_c, 1, 86, 0
2, 108000, Note_on_c, 1, 84, 45
2, 108032, Note_on_c, 1, 84, 0
2, 108096, Note_on_c, 1, 83, 45
2, 108128, Note_on_c, 1, 83, 0
2, 108192, Note_on_c, 1, 81, 45
2, 108286, Note_on_c, 1, 81, 0
2, 108288, Note_on_c, 1, 82, 45
2, 108382, Note_on_c, 1, 82, 0
2, 108384, Note_on_c, 1, 83, 45
2, 108478, Note_on_c, 1, 83, 0
2, 108552, Note_on_c, 1, 71, 45
2, 108574, Note_on_c, 1, 71, 0
2, 108576, Note_on_c, 1, 83, 45
2, 108672, Note_on_c, 1, 83, 0
2, 108672, Note_on_c, 1, 81, 45
2, 108864, Note_on_c, 1, 81, 0
2, 108864, Note_on_c, 1, 79, 45
2, 108910, Note_on_c, 1, 79, 0
2, 108936, Note_on_c, 1, 71, 45
2, 108958, Note_on_c, 1, 71, 0
2, 108960, Note_on_c, 1, 83, 45
2, 109056, Note_on_c, 1, 83, 0
2, 109056, Note_on_c, 1, 81, 45
2, 109248, Note_on_c, 1, 81, 0
2, 109248, Note_on_c, 1, 79, 45
2, 109294, Note_on_c, 1, 79, 0
2, 109320, Note_on_c, 1, 71, 45
2, 109342, Note_on_c, 1, 71, 0
2, 109344, Note_on_c, 1, 83, 45
2, 109440, Note_on_c, 1, 83, 0
2, 109440, Note_on_c, 1, 81, 45
2, 109632, Note_on_c, 1, 81, 0
2, 109632, Note_on_c, 1, 79, 45
2, 109726, Note_on_c, 1, 79, 0
2, 109728, Note_on_c, 1, 80, 63
2, 109888, Note_on_c, 1, 80, 0
2, 109920, Note_on_c, 1, 81, 45
2, 109992, Note_on_c, 1, 81, 0
2, 109992, Note_on_c, 1, 76, 45
2, 110016, Note_on_c, 1, 76, 0
2, 110016, Note_on_c, 1, 84, 45
2, 110088, Note_on_c, 1, 84, 0
2, 110088, Note_on_c, 1, 81, 45
2, 110110, Note_on_c, 1, 81, 0
2, 110112, Note_on_c, 1, 79, 45
2, 110144, Note_on_c, 1, 79, 0
2, 110208, Note_on_c, 1, 79, 45
2, 110224, Note_on_c, 1, 79, 0
2, 110224, Note_on_c, 1, 78, 45
2, 110240, Note_on_c, 1, 78, 0
2, 110240, Note_on_c, 1, 79, 45
2, 110256, Note_on_c, 1, 79, 0
2, 110256, Note_on_c, 1, 78, 45
2, 110272, Note_on_c, 1, 78, 0
2, 110272, Note_on_c, 1, 76, 45
2, 110288, Note_on_c, 1, 76, 0
2, 110288, Note_on_c, 1, 78, 45
2, 110302, Note_on_c, 1, 78, 0
2, 110304, Note_on_c, 1, 79, 45
2, 110398, Note_on_c, 1, 79, 0
2, 110592, Note_on_c, 1, 83, 45
2, 110736, Note_on_c, 1, 83, 0
2, 110736, Note_on_c, 1, 87, 45
2, 110784, Note_on_c, 1, 87, 0
2, 110784, Note_on_c, 1, 88, 45
2, 110832, Note_on_c, 1, 88, 0
2, 110832, Note_on_c, 1, 84, 45
2, 110878, Note_on_c, 1, 84, 0
2, 110880, Note_on_c, 1, 83, 45
2, 110912, Note_on_c, 1, 83, 0
2, 110976, Note_on_c, 1, 83, 45
2, 111120, Note_on_c, 1, 83, 0
2, 111120, Note_on_c, 1, 87, 45
2, 111168, Note_on_c, 1, 87, 0
2, 111168, Note_on_c, 1, 88, 45
2, 111216, Note_on_c, 1, 88, 0
2, 111216, Note_on_c, 1, 84, 45
2, 111262, Note_on_c, 1, 84, 0
2, 111264, Note_on_c, 1, 83, 45
2, 111296, Note_on_c, 1, 83, 0
2, 111360, Note_on_c, 1, 83, 56
2, 111504, Note_on_c, 1, 83, 0
2, 111504, Note_on_c, 1, 88, 74
2, 111552, Note_on_c, 1, 88, 0
2, 111552, Note_on_c, 1, 86, 80
2, 111600, Note_on_c, 1, 86, 0
2, 111600, Note_on_c, 1, 88, 86
2, 111646, Note_on_c, 1, 88, 0
2, 111648, Note_on_c, 1, 89, 127
2, 111888, Note_on_c, 1, 90, 0
2, 111888, Note_on_c, 1, 88, 92
2, 111934, Note_on_c, 1, 88, 0
2, 111936, Note_on_c, 1, 86, 92
2, 111960, Note_on_c, 1, 86, 0
2, 111960, Note_on_c, 1, 84, 92
2, 111984, Note_on_c, 1, 84, 0
2, 111984, Note_on_c, 1, 83, 92
2, 112008, Note_on_c, 1, 83, 0
2, 112008, Note_on_c, 1, 81, 92
2, 112030, Note_on_c, 1, 81, 0
2, 112032, Note_on_c, 1, 79, 92
2, 112064, Note_on_c, 1, 79, 0
2, 112128, Note_on_c, 1, 79, 92
2, 112144, Note_on_c, 1, 79, 0
2, 112144, Note_on_c, 1, 78, 92
2, 112160, Note_on_c, 1, 78, 0
2, 112160, Note_on_c, 1, 79, 92
2, 112176, Note_on_c, 1, 79, 0
2, 112176, Note_on_c, 1, 78, 92
2, 112192, Note_on_c, 1, 78, 0
2, 112192, Note_on_c, 1, 76, 92
2, 112208, Note_on_c, 1, 76, 0
2, 112208, Note_on_c, 1, 78, 92
2, 112222, Note_on_c, 1, 78, 0
2, 112224, Note_on_c, 1, 79, 92
2, 112318, Note_on_c, 1, 79, 0
2, 112416, Note_on_c, 1, 69, 45
2, 112437, Note_on_c, 1, 69, 0
2, 112448, Note_on_c, 1, 71, 45
2, 112469, Note_on_c, 1, 71, 0
2, 112480, Note_on_c, 1, 72, 45
2, 112501, Note_on_c, 1, 72, 0
2, 112512, Note_on_c, 1, 74, 45
2, 112533, Note_on_c, 1, 74, 0
2, 112544, Note_on_c, 1, 76, 45
2, 112565, Note_on_c, 1, 76, 0
2, 112576, Note_on_c, 1, 78, 45
2, 112597, Note_on_c, 1, 78, 0
2, 112608, Note_on_c, 1, 79, 45
2, 112680, Note_on_c, 1, 79, 0
2, 112680, Note_on_c, 1, 74, 45
2, 112702, Note_on_c, 1, 74, 0
2, 112704, Note_on_c, 1, 83, 45
2, 112736, Note_on_c, 1, 83, 0
2, 112800, Note_on_c, 1, 81, 45
2, 112872, Note_on_c, 1, 81, 0
2, 112872, Note_on_c, 1, 74, 45
2, 112894, Note_on_c, 1, 74, 0
2, 112896, Note_on_c, 1, 84, 45
2, 112928, Note_on_c, 1, 84, 0
2, 112992, Note_on_c, 1, 83, 45
2, 113064, Note_on_c, 1, 83, 0
2, 113064, Note_on_c, 1, 74, 45
2, 113086, Note_on_c, 1, 74, 0
2, 113088, Note_on_c, 1, 86, 45
2, 113120, Note_on_c, 1, 86, 0
2, 113984, Note_on_c, 1, 71, 45
2, 114005, Note_on_c, 1, 71, 0
2, 114016, Note_on_c, 1, 72, 45
2, 114037, Note_on_c, 1, 72, 0
2, 114048, Note_on_c, 1, 74, 45
2, 114069, Note_on_c, 1, 74, 0
2, 114080, Note_on_c, 1, 76, 45
2, 114101, Note_on_c, 1, 76, 0
2, 114112, Note_on_c, 1, 78, 45
2, 114133, Note_on_c, 1, 78, 0
2, 114144, Note_on_c, 1, 79, 45
2, 114176, Note_on_c, 1, 79, 0
2, 114192, Note_on_c, 1, 79, 45
2, 114240, Note_on_c, 1, 79, 0
2, 114240, Note_on_c, 1, 74, 45
2, 114288, Note_on_c, 1, 74, 0
2, 114288, Note_on_c, 1, 83, 45
2, 114334, Note_on_c, 1, 83, 0
2, 114336, Note_on_c, 1, 81, 45
2, 114368, Note_on_c, 1, 81, 0
2, 114384, Note_on_c, 1, 81, 45
2, 114432, Note_on_c, 1, 81, 0
2, 114432, Note_on_c, 1, 74, 45
2, 114480, Note_on_c, 1, 74, 0
2, 114480, Note_on_c, 1, 84, 45
2, 114526, Note_on_c, 1, 84, 0
2, 114528, Note_on_c, 1, 83, 45
2, 114560, Note_on_c, 1, 83, 0
2, 114576, Note_on_c, 1, 83, 45
2, 114624, Note_on_c, 1, 83, 0
2, 114624, Note_on_c, 1, 74, 45
2, 114672, Note_on_c, 1, 74, 0
2, 114672, Note_on_c, 1, 86, 45
2, 114718, Note_on_c, 1, 86, 0
2, 114720, Note_on_c, 1, 81, 45
2, 114741, Note_on_c, 1, 81, 0
2, 114752, Note_on_c, 1, 83, 45
2, 114773, Note_on_c, 1, 83, 0
2, 114784, Note_on_c, 1, 84, 45
2, 114805, Note_on_c, 1, 84, 0
2, 114816, Note_on_c, 1, 86, 45
2, 114837, Note_on_c, 1, 86, 0
2, 114848, Note_on_c, 1, 88, 45
2, 114869, Note_on_c, 1, 88, 0
2, 114880, Note_on_c, 1, 90, 45
2, 114901, Note_on_c, 1, 90, 0
2, 114912, Note_on_c, 1, 91, 45
2, 114942, Note_on_c, 1, 91, 0
2, 114944, Note_on_c, 1, 90, 45
2, 114974, Note_on_c, 1, 90, 0
2, 114976, Note_on_c, 1, 91, 45
2, 115006, Note_on_c, 1, 91, 0
2, 115008, Note_on_c, 1, 87, 45
2, 115038, Note_on_c, 1, 87, 0
2, 115040, Note_on_c, 1, 88, 45
2, 115070, Note_on_c, 1, 88, 0
2, 115072, Note_on_c, 1, 87, 45
2, 115102, Note_on_c, 1, 87, 0
2, 115104, Note_on_c, 1, 88, 45
2, 115134, Note_on_c, 1, 88, 0
2, 115136, Note_on_c, 1, 90, 45
2, 115166, Note_on_c, 1, 90, 0
2, 115168, Note_on_c, 1, 88, 45
2, 115198, Note_on_c, 1, 88, 0
2, 115200, Note_on_c, 1, 83, 45
2, 115230, Note_on_c, 1, 83, 0
2, 115232, Note_on_c, 1, 84, 45
2, 115262, Note_on_c, 1, 84, 0
2, 115264, Note_on_c, 1, 83, 45
2, 115294, Note_on_c, 1, 83, 0
2, 115296, Note_on_c, 1, 84, 45
2, 115326, Note_on_c, 1, 84, 0
2, 115328, Note_on_c, 1, 86, 45
2, 115358, Note_on_c, 1, 86, 0
2, 115360, Note_on_c, 1, 84, 45
2, 115390, Note_on_c, 1, 84, 0
2, 115392, Note_on_c, 1, 80, 45
2, 115422, Note_on_c, 1, 80, 0
2, 115424, Note_on_c, 1, 81, 45
2, 115454, Note_on_c, 1, 81, 0
2, 115456, Note_on_c, 1, 80, 45
2, 115486, Note_on_c, 1, 80, 0
2, 115488, Note_on_c, 1, 81, 45
2, 115518, Note_on_c, 1, 81, 0
2, 115520, Note_on_c, 1, 83, 45
2, 115550, Note_on_c, 1, 83, 0
2, 115552, Note_on_c, 1, 81, 45
2, 115582, Note_on_c, 1, 81, 0
2, 115584, Note_on_c, 1, 79, 45
2, 115614, Note_on_c, 1, 79, 0
2, 115616, Note_on_c, 1, 81, 45
2, 115646, Note_on_c, 1, 81, 0
2, 115648, Note_on_c, 1, 79, 45
2, 115678, Note_on_c, 1, 79, 0
2, 115680, Note_on_c, 1, 78, 45
2, 115710, Note_on_c, 1, 78, 0
2, 115712, Note_on_c, 1, 79, 45
2, 115742, Note_on_c, 1, 79, 0
2, 115744, Note_on_c, 1, 78, 45
2, 115774, Note_on_c, 1, 78, 0
2, 115776, Note_on_c, 1, 76, 45
2, 115806, Note_on_c, 1, 76, 0
2, 115808, Note_on_c, 1, 78, 45
2, 115838, Note_on_c, 1, 78, 0
2, 115840, Note_on_c, 1, 76, 45
2, 115870, Note_on_c, 1, 76, 0
2, 115872, Note_on_c, 1, 74, 45
2, 115902, Note_on_c, 1, 74, 0
2, 115904, Note_on_c, 1, 76, 45
2, 115934, Note_on_c, 1, 76, 0
2, 115936, Note_on_c, 1, 74, 45
2, 115966, Note_on_c, 1, 74, 0
2, 115968, Note_on_c, 1, 72, 45
2, 115998, Note_on_c, 1, 72, 0
2, 116000, Note_on_c, 1, 74, 45
2, 116030, Note_on_c, 1, 74, 0
2, 116032, Note_on_c, 1, 72, 45
2, 116062, Note_on_c, 1, 72, 0
2, 116064, Note_on_c, 1, 71, 45
2, 116110, Note_on_c, 1, 71, 0
2, 116112, Note_on_c, 1, 83, 46
2, 116158, Note_on_c, 1, 83, 0
2, 116160, Note_on_c, 1, 71, 47
2, 116206, Note_on_c, 1, 71, 0
2, 116208, Note_on_c, 1, 83, 48
2, 116254, Note_on_c, 1, 83, 0
2, 116256, Note_on_c, 1, 72, 49
2, 116302, Note_on_c, 1, 72, 0
2, 116304, Note_on_c, 1, 84, 50
2, 116350, Note_on_c, 1, 84, 0
2, 116352, Note_on_c, 1, 74, 51
2, 116398, Note_on_c, 1, 74, 0
2, 116400, Note_on_c, 1, 86, 52
2, 116446, Note_on_c, 1, 86, 0
2, 116448, Note_on_c, 1, 76, 53
2, 116494, Note_on_c, 1, 76, 0
2, 116496, Note_on_c, 1, 88, 54
2, 116542, Note_on_c, 1, 88, 0
2, 116544, Note_on_c, 1, 78, 55
2, 116590, Note_on_c, 1, 78, 0
2, 116592, Note_on_c, 1, 90, 56
2, 116638, Note_on_c, 1, 90, 0
2, 116640, Note_on_c, 1, 79, 57
2, 116686, Note_on_c, 1, 79, 0
2, 116688, Note_on_c, 1, 91, 58
2, 116734, Note_on_c, 1, 91, 0
2, 116736, Note_on_c, 1, 81, 59
2, 116782, Note_on_c, 1, 81, 0
2, 116784, Note_on_c, 1, 93, 60
2, 116830, Note_on_c, 1, 93, 0
2, 116832, Note_on_c, 1, 83, 61
2, 116878, Note_on_c, 1, 83, 0
2, 116880, Note_on_c, 1, 95, 62
2, 116974, Note_on_c, 1, 95, 0
2, 116976, Note_on_c, 1, 95, 65
2, 117070, Note_on_c, 1, 95, 0
2, 117072, Note_on_c, 1, 95, 68
2, 117166, Note_on_c, 1, 95, 0
2, 117168, Note_on_c, 1, 95, 71
2, 117262, Note_on_c, 1, 95, 0
2, 117264, Note_on_c, 1, 95, 74
2, 117358, Note_on_c, 1, 95, 0
2, 117360, Note_on_c, 1, 95, 78
2, 117454, Note_on_c, 1, 95, 0
2, 117456, Note_on_c, 1, 95, 82
2, 117550, Note_on_c, 1, 95, 0
2, 117552, Note_on_c, 1, 95, 86
2, 117694, Note_on_c, 1, 95, 0
2, 117696, Note_on_c, 1, 83, 127
2, 117728, Note_on_c, 1, 83, 0
2, 117728, Note_on_c, 1, 79, 92
2, 117760, Note_on_c, 1, 79, 0
2, 117760, Note_on_c, 1, 83, 92
2, 117790, Note_on_c, 1, 83, 0
2, 117792, Note_on_c, 1, 84, 92
2, 117824, Note_on_c, 1, 84, 0
2, 117824, Note_on_c, 1, 81, 92
2, 117856, Note_on_c, 1, 81, 0
2, 117856, Note_on_c, 1, 84, 92
2, 117886, Note_on_c, 1, 84, 0
2, 117888, Note_on_c, 1, 85, 92
2, 117920, Note_on_c, 1, 85, 0
2, 117920, Note_on_c, 1, 82, 92
2, 117952, Note_on_c, 1, 82, 0
2, 117952, Note_on_c, 1, 85, 92
2, 117982, Note_on_c, 1, 85, 0
2, 117984, Note_on_c, 1, 86, 92
2, 118014, Note_on_c, 1, 86, 0
2, 118016, Note_on_c, 1, 83, 92
2, 118046, Note_on_c, 1, 83, 0
2, 118048, Note_on_c, 1, 86, 92
2, 118078, Note_on_c, 1, 86, 0
2, 118080, Note_on_c, 1, 83, 127
2, 118110, Note_on_c, 1, 83, 0
2, 118112, Note_on_c, 1, 79, 92
2, 118142, Note_on_c, 1, 79, 0
2, 118144, Note_on_c, 1, 83, 92
2, 118174, Note_on_c, 1, 83, 0
2, 118176, Note_on_c, 1, 84, 92
2, 118206, Note_on_c, 1, 84, 0
2, 118208, Note_on_c, 1, 81, 92
2, 118238, Note_on_c, 1, 81, 0
2, 118240, Note_on_c, 1, 84, 92
2, 118270, Note_on_c, 1, 84, 0
2, 118272, Note_on_c, 1, 85, 92
2, 118302, Note_on_c, 1, 85, 0
2, 118304, Note_on_c, 1, 82, 92
2, 118334, Note_on_c, 1, 82, 0
2, 118336, Note_on_c, 1, 85, 92
2, 118366, Note_on_c, 1, 85, 0
2, 118368, Note_on_c, 1, 86, 92
2, 118398, Note_on_c, 1, 86, 0
2, 118400, Note_on_c, 1, 83, 92
2, 118430, Note_on_c, 1, 83, 0
2, 118432, Note_on_c, 1, 86, 92
2, 118462, Note_on_c, 1, 86, 0
2, 118656, Note_on_c, 1, 74, 45
2, 118750, Note_on_c, 1, 74, 0
2, 118752, Note_on_c, 1, 79, 45
2, 118944, Note_on_c, 1, 79, 0
2, 118944, Note_on_c, 1, 81, 45
2, 118992, Note_on_c, 1, 81, 0
2, 118992, Note_on_c, 1, 83, 45
2, 119040, Note_on_c, 1, 83, 0
2, 119040, Note_on_c, 1, 84, 45
2, 119088, Note_on_c, 1, 84, 0
2, 119088, Note_on_c, 1, 81, 45
2, 119134, Note_on_c, 1, 81, 0
2, 119136, Note_on_c, 1, 86, 45
2, 119328, Note_on_c, 1, 86, 0
2, 119328, Note_on_c, 1, 91, 45
2, 119422, Note_on_c, 1, 91, 0
2, 119424, Note_on_c, 1, 62, 45
2, 119518, Note_on_c, 1, 62, 0
2, 119520, Note_on_c, 1, 67, 45
2, 119712, Note_on_c, 1, 67, 0
2, 119712, Note_on_c, 1, 69, 45
2, 119760, Note_on_c, 1, 69, 0
2, 119760, Note_on_c, 1, 71, 45
2, 119806, Note_on_c, 1, 71, 0
2, 119856, Note_on_c, 1, 69, 45
2, 119902, Note_on_c, 1, 69, 0
2, 119904, Note_on_c, 1, 67, 45
2, 120064, Note_on_c, 1, 67, 0
2, 120672, Note_on_c, 1, 67, 45
2, 121536, Note_on_c, 1, 67, 0
2, 121536, Note_on_c, 1, 68, 45
2, 122160, Note_on_c, 1, 68, 0
2, 122208, Note_on_c, 1, 71, 45
2, 122688, Note_on_c, 1, 71, 0
2, 122688, Note_on_c, 1, 72, 45
2, 123312, Note_on_c, 1, 72, 0
2, 123360, Note_on_c, 1, 74, 45
2, 123840, Note_on_c, 1, 74, 0
2, 123840, Note_on_c, 1, 75, 45
2, 124464, Note_on_c, 1, 75, 0
2, 124512, Note_on_c, 1, 74, 30
2, 124672, Note_on_c, 1, 74, 0
2, 124704, Note_on_c, 1, 71, 30
2, 124728, Note_on_c, 1, 71, 0
2, 124728, Note_on_c, 1, 72, 30
2, 124752, Note_on_c, 1, 72, 0
2, 124752, Note_on_c, 1, 71, 30
2, 124776, Note_on_c, 1, 71, 0
2, 124776, Note_on_c, 1, 72, 30
2, 124800, Note_on_c, 1, 72, 0
2, 124800, Note_on_c, 1, 74, 30
2, 124824, Note_on_c, 1, 74, 0
2, 124824, Note_on_c, 1, 76, 30
2, 124848, Note_on_c, 1, 76, 0
2, 124848, Note_on_c, 1, 78, 30
2, 124872, Note_on_c, 1, 78, 0
2, 124872, Note_on_c, 1, 79, 30
2, 124894, Note_on_c, 1, 79, 0
2, 124896, Note_on_c, 1, 74, 30
2, 125056, Note_on_c, 1, 74, 0
2, 125256, Note_on_c, 1, 71, 30
2, 125278, Note_on_c, 1, 71, 0
2, 125280, Note_on_c, 1, 74, 30
2, 125302, Note_on_c, 1, 74, 0
2, 125304, Note_on_c, 1, 72, 30
2, 125374, Note_on_c, 1, 72, 0
2, 125448, Note_on_c, 1, 72, 45
2, 125470, Note_on_c, 1, 72, 0
2, 125472, Note_on_c, 1, 69, 45
2, 125566, Note_on_c, 1, 69, 0
2, 125640, Note_on_c, 1, 66, 45
2, 125662, Note_on_c, 1, 66, 0
2, 125664, Note_on_c, 1, 62, 45
2, 125824, Note_on_c, 1, 62, 0
2, 125952, Note_on_c, 1, 74, 30
2, 126046, Note_on_c, 1, 74, 0
2, 126048, Note_on_c, 1, 79, 30
2, 126240, Note_on_c, 1, 79, 0
2, 126240, Note_on_c, 1, 81, 30
2, 126288, Note_on_c, 1, 81, 0
2, 126288, Note_on_c, 1, 83, 30
2, 126336, Note_on_c, 1, 83, 0
2, 126336, Note_on_c, 1, 84, 30
2, 126384, Note_on_c, 1, 84, 0
2, 126384, Note_on_c, 1, 81, 30
2, 126430, Note_on_c, 1, 81, 0
2, 126432, Note_on_c, 1, 86, 30
2, 126624, Note_on_c, 1, 86, 0
2, 126624, Note_on_c, 1, 91, 30
2, 126718, Note_on_c, 1, 91, 0
2, 127104, Note_on_c, 1, 69, 30
2, 127104, Note_on_c, 1, 78, 30
2, 127198, Note_on_c, 1, 69, 0
2, 127198, Note_on_c, 1, 78, 0
2, 127200, Note_on_c, 1, 71, 45
2, 127294, Note_on_c, 1, 71, 0
2, 127584, Control_c, 1, 7, 0
2, 127584, Note_on_c, 1, 71, 60
2, 128304, Note_on_c, 1, 71, 0
2, 128304, End_track
3, 0, Start_track
3, 0, MIDI_port, 0
3, 0, Title_t, "Violino II."
3, 0, Program_c, 2, 0
3, 0, Control_c, 2, 7, 127
3, 0, Control_c, 2, 10, 64
3, 0, Note_on_c, 2, 62, 45
3, 544, Note_on_c, 2, 62, 0
3, 744, Note_on_c, 2, 59, 75
3, 766, Note_on_c, 2, 59, 0
3, 768, Note_on_c, 2, 60, 75
3, 862, Note_on_c, 2, 60, 0
3, 1632, Note_on_c, 2, 67, 45
3, 1792, Note_on_c, 2, 67, 0
3, 1824, Note_on_c, 2, 66, 45
3, 1856, Note_on_c, 2, 66, 0
3, 1920, Note_on_c, 2, 67, 45
3, 1952, Note_on_c, 2, 67, 0
3, 2016, Note_on_c, 2, 71, 45
3, 2048, Note_on_c, 2, 71, 0
3, 2400, Note_on_c, 2, 59, 45
3, 2432, Note_on_c, 2, 59, 0
3, 2496, Note_on_c, 2, 64, 45
3, 2528, Note_on_c, 2, 64, 0
3, 2592, Note_on_c, 2, 60, 45
3, 2624, Note_on_c, 2, 60, 0
3, 2688, Note_on_c, 2, 59, 45
3, 2782, Note_on_c, 2, 59, 0
3, 3072, Note_on_c, 2, 62, 108
3, 3456, Note_on_c, 2, 72, 92
3, 3550, Note_on_c, 2, 62, 0
3, 3550, Note_on_c, 2, 72, 0
3, 3840, Note_on_c, 2, 62, 60
3, 3934, Note_on_c, 2, 62, 0
3, 4008, Note_on_c, 2, 62, 60
3, 4030, Note_on_c, 2, 62, 0
3, 4032, Note_on_c, 2, 67, 45
3, 4126, Note_on_c, 2, 67, 0
3, 4200, Note_on_c, 2, 67, 45
3, 4222, Note_on_c, 2, 67, 0
3, 4224, Note_on_c, 2, 66, 45
3, 4318, Note_on_c, 2, 66, 0
3, 4608, Note_on_c, 2, 59, 108
3, 4992, Note_on_c, 2, 59, 0
3, 4992, Note_on_c, 2, 60, 92
3, 5152, Note_on_c, 2, 60, 0
3, 5352, Note_on_c, 2, 60, 45
3, 5374, Note_on_c, 2, 60, 0
3, 5376, Note_on_c, 2, 62, 45
3, 5470, Note_on_c, 2, 62, 0
3, 5544, Note_on_c, 2, 62, 45
3, 5566, Note_on_c, 2, 62, 0
3, 5568, Note_on_c, 2, 71, 45
3, 5662, Note_on_c, 2, 71, 0
3, 5736, Note_on_c, 2, 71, 45
3, 5758, Note_on_c, 2, 71, 0
3, 5760, Note_on_c, 2, 69, 45
3, 5854, Note_on_c, 2, 69, 0
3, 6144, Note_on_c, 2, 67, 45
3, 6480, Note_on_c, 2, 67, 0
3, 6528, Note_on_c, 2, 69, 92
3, 6784, Note_on_c, 2, 69, 0
3, 6816, Note_on_c, 2, 69, 92
3, 6910, Note_on_c, 2, 69, 0
3, 7080, Note_on_c, 2, 67, 45
3, 7102, Note_on_c, 2, 67, 0
3, 7104, Note_on_c, 2, 67, 45
3, 7198, Note_on_c, 2, 67, 0
3, 7272, Note_on_c, 2, 66, 45
3, 7294, Note_on_c, 2, 66, 0
3, 8352, Note_on_c, 2, 59, 45
3, 8400, Note_on_c, 2, 59, 0
3, 8400, Note_on_c, 2, 62, 45
3, 8446, Note_on_c, 2, 62, 0
3, 8448, Note_on_c, 2, 60, 45
3, 8496, Note_on_c, 2, 60, 0
3, 8496, Note_on_c, 2, 62, 45
3, 8542, Note_on_c, 2, 62, 0
3, 8544, Note_on_c, 2, 60, 45
3, 8592, Note_on_c, 2, 60, 0
3, 8592, Note_on_c, 2, 62, 45
3, 8638, Note_on_c, 2, 62, 0
3, 8640, Note_on_c, 2, 59, 45
3, 8688, Note_on_c, 2, 59, 0
3, 8688, Note_on_c, 2, 62, 45
3, 8734, Note_on_c, 2, 62, 0
3, 8736, Note_on_c, 2, 59, 45
3, 8784, Note_on_c, 2, 59, 0
3, 8784, Note_on_c, 2, 62, 45
3, 8830, Note_on_c, 2, 62, 0
3, 8832, Note_on_c, 2, 57, 45
3, 8880, Note_on_c, 2, 57, 0
3, 8880, Note_on_c, 2, 62, 45
3, 8926, Note_on_c, 2, 62, 0
3, 9216, Note_on_c, 2, 59, 108
3, 9264, Note_on_c, 2, 59, 0
3, 9408, Note_on_c, 2, 59, 108
3, 9456, Note_on_c, 2, 59, 0
3, 9600, Note_on_c, 2, 64, 127
3, 9856, Note_on_c, 2, 64, 0
3, 9888, Note_on_c, 2, 67, 45
3, 9936, Note_on_c, 2, 67, 0
3, 9936, Note_on_c, 2, 71, 45
3, 9982, Note_on_c, 2, 71, 0
3, 9984, Note_on_c, 2, 69, 45
3, 10032, Note_on_c, 2, 69, 0
3, 10032, Note_on_c, 2, 71, 45
3, 10078, Note_on_c, 2, 71, 0
3, 10080, Note_on_c, 2, 69, 45
3, 10128, Note_on_c, 2, 69, 0
3, 10128, Note_on_c, 2, 71, 45
3, 10174, Note_on_c, 2, 71, 0
3, 10176, Note_on_c, 2, 67, 45
3, 10224, Note_on_c, 2, 67, 0
3, 10224, Note_on_c, 2, 71, 45
3, 10272, Note_on_c, 2, 71, 0
3, 10272, Note_on_c, 2, 67, 45
3, 10320, Note_on_c, 2, 67, 0
3, 10320, Note_on_c, 2, 71, 45
3, 10366, Note_on_c, 2, 71, 0
3, 10368, Note_on_c, 2, 66, 45
3, 10416, Note_on_c, 2, 66, 0
3, 10416, Note_on_c, 2, 71, 45
3, 10462, Note_on_c, 2, 71, 0
3, 10656, Note_on_c, 2, 67, 45
3, 10704, Note_on_c, 2, 67, 0
3, 10704, Note_on_c, 2, 71, 45
3, 10750, Note_on_c, 2, 71, 0
3, 10752, Note_on_c, 2, 67, 45
3, 10800, Note_on_c, 2, 67, 0
3, 10800, Note_on_c, 2, 69, 45
3, 10846, Note_on_c, 2, 69, 0
3, 10848, Note_on_c, 2, 67, 45
3, 10896, Note_on_c, 2, 67, 0
3, 10896, Note_on_c, 2, 69, 45
3, 10942, Note_on_c, 2, 69, 0
3, 10944, Note_on_c, 2, 66, 45
3, 10992, Note_on_c, 2, 66, 0
3, 10992, Note_on_c, 2, 69, 45
3, 11038, Note_on_c, 2, 69, 0
3, 11040, Note_on_c, 2, 66, 45
3, 11088, Note_on_c, 2, 66, 0
3, 11088, Note_on_c, 2, 69, 45
3, 11134, Note_on_c, 2, 69, 0
3, 11136, Note_on_c, 2, 64, 45
3, 11184, Note_on_c, 2, 64, 0
3, 11184, Note_on_c, 2, 69, 45
3, 11230, Note_on_c, 2, 69, 0
3, 11424, Note_on_c, 2, 65, 45
3, 11472, Note_on_c, 2, 65, 0
3, 11472, Note_on_c, 2, 69, 45
3, 11518, Note_on_c, 2, 69, 0
3, 11520, Note_on_c, 2, 67, 45
3, 11568, Note_on_c, 2, 67, 0
3, 11568, Note_on_c, 2, 69, 45
3, 11614, Note_on_c, 2, 69, 0
3, 11616, Note_on_c, 2, 67, 45
3, 11664, Note_on_c, 2, 67, 0
3, 11664, Note_on_c, 2, 69, 45
3, 11710, Note_on_c, 2, 69, 0
3, 11712, Note_on_c, 2, 65, 45
3, 11760, Note_on_c, 2, 65, 0
3, 11760, Note_on_c, 2, 69, 45
3, 11806, Note_on_c, 2, 69, 0
3, 11808, Note_on_c, 2, 65, 45
3, 11856, Note_on_c, 2, 65, 0
3, 11856, Note_on_c, 2, 69, 45
3, 11902, Note_on_c, 2, 69, 0
3, 11904, Note_on_c, 2, 64, 45
3, 11936, Note_on_c, 2, 64, 0
3, 11952, Note_on_c, 2, 64, 47
3, 12000, Note_on_c, 2, 64, 0
3, 12000, Note_on_c, 2, 61, 50
3, 12048, Note_on_c, 2, 61, 0
3, 12048, Note_on_c, 2, 64, 53
3, 12094, Note_on_c, 2, 64, 0
3, 12096, Note_on_c, 2, 65, 56
3, 12128, Note_on_c, 2, 65, 0
3, 12144, Note_on_c, 2, 65, 59
3, 12192, Note_on_c, 2, 65, 0
3, 12192, Note_on_c, 2, 62, 62
3, 12240, Note_on_c, 2, 62, 0
3, 12240, Note_on_c, 2, 65, 65
3, 12286, Note_on_c, 2, 65, 0
3, 12288, Note_on_c, 2, 64, 68
3, 12320, Note_on_c, 2, 64, 0
3, 12336, Note_on_c, 2, 76, 71
3, 12384, Note_on_c, 2, 76, 0
3, 12384, Note_on_c, 2, 73, 74
3, 12432, Note_on_c, 2, 73, 0
3, 12432, Note_on_c, 2, 76, 77
3, 12478, Note_on_c, 2, 76, 0
3, 12480, Note_on_c, 2, 77, 80
3, 12512, Note_on_c, 2, 77, 0
3, 12528, Note_on_c, 2, 77, 83
3, 12576, Note_on_c, 2, 77, 0
3, 12576, Note_on_c, 2, 74, 86
3, 12624, Note_on_c, 2, 74, 0
3, 12624, Note_on_c, 2, 77, 89
3, 12670, Note_on_c, 2, 77, 0
3, 12672, Note_on_c, 2, 76, 92
3, 12832, Note_on_c, 2, 76, 0
3, 12960, Note_on_c, 2, 57, 108
3, 12981, Note_on_c, 2, 57, 0
3, 12992, Note_on_c, 2, 61, 108
3, 13013, Note_on_c, 2, 61, 0
3, 13024, Note_on_c, 2, 64, 108
3, 13045, Note_on_c, 2, 64, 0
3, 13056, Note_on_c, 2, 69, 108
3, 13216, Note_on_c, 2, 69, 0
3, 13632, Note_on_c, 2, 73, 45
3, 13792, Note_on_c, 2, 73, 0
3, 13824, Note_on_c, 2, 74, 63
3, 14080, Note_on_c, 2, 74, 0
3, 14112, Note_on_c, 2, 70, 45
3, 14206, Note_on_c, 2, 70, 0
3, 14208, Note_on_c, 2, 69, 45
3, 14240, Note_on_c, 2, 69, 0
3, 14304, Note_on_c, 2, 67, 45
3, 14336, Note_on_c, 2, 67, 0
3, 14400, Note_on_c, 2, 66, 45
3, 14432, Note_on_c, 2, 66, 0
3, 14496, Note_on_c, 2, 64, 45
3, 14528, Note_on_c, 2, 64, 0
3, 14592, Note_on_c, 2, 64, 45
3, 14686, Note_on_c, 2, 64, 0
3, 15168, Note_on_c, 2, 75, 45
3, 15216, Note_on_c, 2, 75, 0
3, 15360, Note_on_c, 2, 76, 63
3, 15616, Note_on_c, 2, 76, 0
3, 15648, Note_on_c, 2, 76, 45
3, 15744, Note_on_c, 2, 76, 0
3, 15744, Note_on_c, 2, 74, 45
3, 15776, Note_on_c, 2, 74, 0
3, 15840, Note_on_c, 2, 76, 45
3, 15872, Note_on_c, 2, 76, 0
3, 15936, Note_on_c, 2, 78, 45
3, 15968, Note_on_c, 2, 78, 0
3, 16032, Note_on_c, 2, 79, 45
3, 16064, Note_on_c, 2, 79, 0
3, 16128, Note_on_c, 2, 78, 45
3, 16160, Note_on_c, 2, 78, 0
3, 16176, Note_on_c, 2, 57, 45
3, 16208, Note_on_c, 2, 57, 0
3, 16224, Note_on_c, 2, 59, 45
3, 16256, Note_on_c, 2, 59, 0
3, 16272, Note_on_c, 2, 61, 45
3, 16304, Note_on_c, 2, 61, 0
3, 16320, Note_on_c, 2, 62, 45
3, 16352, Note_on_c, 2, 62, 0
3, 16368, Note_on_c, 2, 63, 45
3, 16400, Note_on_c, 2, 63, 0
3, 16416, Note_on_c, 2, 64, 45
3, 16448, Note_on_c, 2, 64, 0
3, 16464, Note_on_c, 2, 65, 45
3, 16496, Note_on_c, 2, 65, 0
3, 16512, Note_on_c, 2, 66, 45
3, 16560, Note_on_c, 2, 66, 0
3, 16704, Note_on_c, 2, 64, 45
3, 16752, Note_on_c, 2, 64, 0
3, 16896, Note_on_c, 2, 69, 63
3, 17152, Note_on_c, 2, 69, 0
3, 17184, Note_on_c, 2, 67, 45
3, 17216, Note_on_c, 2, 67, 0
3, 17280, Note_on_c, 2, 66, 45
3, 17312, Note_on_c, 2, 66, 0
3, 17376, Note_on_c, 2, 64, 45
3, 17408, Note_on_c, 2, 64, 0
3, 17472, Note_on_c, 2, 62, 45
3, 17504, Note_on_c, 2, 62, 0
3, 17568, Note_on_c, 2, 62, 45
3, 17600, Note_on_c, 2, 62, 0
3, 17664, Note_on_c, 2, 61, 45
3, 17696, Note_on_c, 2, 61, 0
3, 17712, Note_on_c, 2, 57, 45
3, 17744, Note_on_c, 2, 57, 0
3, 17760, Note_on_c, 2, 59, 45
3, 17792, Note_on_c, 2, 59, 0
3, 17808, Note_on_c, 2, 61, 45
3, 17840, Note_on_c, 2, 61, 0
3, 17856, Note_on_c, 2, 62, 45
3, 17902, Note_on_c, 2, 62, 0
3, 17904, Note_on_c, 2, 63, 45
3, 17950, Note_on_c, 2, 63, 0
3, 17952, Note_on_c, 2, 64, 45
3, 17998, Note_on_c, 2, 64, 0
3, 18000, Note_on_c, 2, 66, 45
3, 18046, Note_on_c, 2, 66, 0
3, 18048, Note_on_c, 2, 67, 45
3, 18096, Note_on_c, 2, 67, 0
3, 18240, Note_on_c, 2, 66, 45
3, 18288, Note_on_c, 2, 66, 0
3, 18432, Note_on_c, 2, 71, 63
3, 18688, Note_on_c, 2, 71, 0
3, 18720, Note_on_c, 2, 69, 45
3, 18814, Note_on_c, 2, 69, 0
3, 18816, Note_on_c, 2, 67, 92
3, 18848, Note_on_c, 2, 67, 0
3, 18912, Note_on_c, 2, 66, 81
3, 18944, Note_on_c, 2, 66, 0
3, 19008, Note_on_c, 2, 65, 69
3, 19040, Note_on_c, 2, 65, 0
3, 19104, Note_on_c, 2, 65, 57
3, 19136, Note_on_c, 2, 65, 0
3, 19200, Note_on_c, 2, 66, 45
3, 19294, Note_on_c, 2, 66, 0
3, 19392, Note_on_c, 2, 74, 45
3, 19488, Note_on_c, 2, 74, 0
3, 19488, Note_on_c, 2, 73, 45
3, 19680, Note_on_c, 2, 73, 0
3, 19680, Note_on_c, 2, 71, 45
3, 19726, Note_on_c, 2, 71, 0
3, 19776, Note_on_c, 2, 74, 45
3, 19872, Note_on_c, 2, 74, 0
3, 19872, Note_on_c, 2, 73, 45
3, 20064, Note_on_c, 2, 73, 0
3, 20064, Note_on_c, 2, 71, 45
3, 20110, Note_on_c, 2, 71, 0
3, 20160, Note_on_c, 2, 74, 45
3, 20256, Note_on_c, 2, 74, 0
3, 20256, Note_on_c, 2, 73, 46
3, 20448, Note_on_c, 2, 73, 0
3, 20448, Note_on_c, 2, 71, 50
3, 20542, Note_on_c, 2, 71, 0
3, 20544, Note_on_c, 2, 72, 72
3, 20704, Note_on_c, 2, 72, 0
3, 20736, Note_on_c, 2, 71, 56
3, 20830, Note_on_c, 2, 71, 0
3, 20832, Note_on_c, 2, 71, 58
3, 20904, Note_on_c, 2, 71, 0
3, 20904, Note_on_c, 2, 67, 59
3, 20926, Note_on_c, 2, 67, 0
3, 20928, Note_on_c, 2, 66, 59
3, 21022, Note_on_c, 2, 66, 0
3, 21024, Note_on_c, 2, 67, 61
3, 21118, Note_on_c, 2, 67, 0
3, 21120, Note_on_c, 2, 66, 63
3, 21214, Note_on_c, 2, 66, 0
3, 21288, Note_on_c, 2, 66, 66
3, 21310, Note_on_c, 2, 66, 0
3, 21312, Note_on_c, 2, 78, 66
3, 21408, Note_on_c, 2, 78, 0
3, 21408, Note_on_c, 2, 76, 68
3, 21600, Note_on_c, 2, 76, 0
3, 21600, Note_on_c, 2, 74, 72
3, 21646, Note_on_c, 2, 74, 0
3, 21672, Note_on_c, 2, 66, 73
3, 21694, Note_on_c, 2, 66, 0
3, 21792, Note_on_c, 2, 76, 75
3, 21984, Note_on_c, 2, 76, 0
3, 21984, Note_on_c, 2, 74, 79
3, 22030, Note_on_c, 2, 74, 0
3, 22056, Note_on_c, 2, 66, 80
3, 22078, Note_on_c, 2, 66, 0
3, 22176, Note_on_c, 2, 76, 83
3, 22368, Note_on_c, 2, 76, 0
3, 22368, Note_on_c, 2, 74, 89
3, 22462, Note_on_c, 2, 74, 0
3, 22464, Note_on_c, 2, 75, 127
3, 22656, Note_on_c, 2, 75, 0
3, 22656, Note_on_c, 2, 76, 92
3, 22750, Note_on_c, 2, 76, 0
3, 22800, Note_on_c, 2, 71, 92
3, 22846, Note_on_c, 2, 71, 0
3, 22848, Note_on_c, 2, 66, 92
3, 22942, Note_on_c, 2, 66, 0
3, 22944, Note_on_c, 2, 67, 92
3, 23038, Note_on_c, 2, 67, 0
3, 23040, Note_on_c, 2, 66, 92
3, 23134, Note_on_c, 2, 66, 0
3, 23232, Note_on_c, 2, 64, 45
3, 23262, Note_on_c, 2, 64, 0
3, 23264, Note_on_c, 2, 66, 45
3, 23294, Note_on_c, 2, 66, 0
3, 23296, Note_on_c, 2, 67, 45
3, 23326, Note_on_c, 2, 67, 0
3, 23328, Note_on_c, 2, 69, 45
3, 23358, Note_on_c, 2, 69, 0
3, 23360, Note_on_c, 2, 71, 45
3, 23390, Note_on_c, 2, 71, 0
3, 23392, Note_on_c, 2, 73, 45
3, 23422, Note_on_c, 2, 73, 0
3, 23424, Note_on_c, 2, 74, 45
3, 23496, Note_on_c, 2, 74, 0
3, 23496, Note_on_c, 2, 69, 45
3, 23518, Note_on_c, 2, 69, 0
3, 23520, Note_on_c, 2, 78, 45
3, 23552, Note_on_c, 2, 78, 0
3, 23616, Note_on_c, 2, 76, 45
3, 23688, Note_on_c, 2, 76, 0
3, 23688, Note_on_c, 2, 69, 45
3, 23710, Note_on_c, 2, 69, 0
3, 23712, Note_on_c, 2, 79, 45
3, 23744, Note_on_c, 2, 79, 0
3, 23808, Note_on_c, 2, 78, 45
3, 23880, Note_on_c, 2, 78, 0
3, 23880, Note_on_c, 2, 69, 45
3, 23902, Note_on_c, 2, 69, 0
3, 23904, Note_on_c, 2, 81, 45
3, 23936, Note_on_c, 2, 81, 0
3, 24000, Note_on_c, 2, 64, 45
3, 24032, Note_on_c, 2, 64, 0
3, 24048, Note_on_c, 2, 69, 45
3, 24080, Note_on_c, 2, 69, 0
3, 24096, Note_on_c, 2, 64, 45
3, 24128, Note_on_c, 2, 64, 0
3, 24144, Note_on_c, 2, 69, 45
3, 24176, Note_on_c, 2, 69, 0
3, 24192, Note_on_c, 2, 66, 45
3, 24224, Note_on_c, 2, 66, 0
3, 24240, Note_on_c, 2, 69, 45
3, 24272, Note_on_c, 2, 69, 0
3, 24288, Note_on_c, 2, 66, 45
3, 24320, Note_on_c, 2, 66, 0
3, 24336, Note_on_c, 2, 69, 45
3, 24368, Note_on_c, 2, 69, 0
3, 24384, Note_on_c, 2, 67, 45
3, 24416, Note_on_c, 2, 67, 0
3, 24432, Note_on_c, 2, 69, 45
3, 24464, Note_on_c, 2, 69, 0
3, 24480, Note_on_c, 2, 67, 45
3, 24512, Note_on_c, 2, 67, 0
3, 24528, Note_on_c, 2, 69, 45
3, 24560, Note_on_c, 2, 69, 0
3, 24576, Note_on_c, 2, 66, 45
3, 24608, Note_on_c, 2, 66, 0
3, 24624, Note_on_c, 2, 69, 45
3, 24656, Note_on_c, 2, 69, 0
3, 24672, Note_on_c, 2, 66, 45
3, 24704, Note_on_c, 2, 66, 0
3, 24720, Note_on_c, 2, 69, 45
3, 24752, Note_on_c, 2, 69, 0
3, 24768, Note_on_c, 2, 64, 45
3, 24789, Note_on_c, 2, 64, 0
3, 24800, Note_on_c, 2, 66, 45
3, 24821, Note_on_c, 2, 66, 0
3, 24832, Note_on_c, 2, 67, 45
3, 24853, Note_on_c, 2, 67, 0
3, 24864, Note_on_c, 2, 69, 45
3, 24885, Note_on_c, 2, 69, 0
3, 24896, Note_on_c, 2, 71, 45
3, 24917, Note_on_c, 2, 71, 0
3, 24928, Note_on_c, 2, 73, 45
3, 24949, Note_on_c, 2, 73, 0
3, 24960, Note_on_c, 2, 74, 45
3, 24992, Note_on_c, 2, 74, 0
3, 25008, Note_on_c, 2, 74, 45
3, 25056, Note_on_c, 2, 74, 0
3, 25056, Note_on_c, 2, 69, 45
3, 25104, Note_on_c, 2, 69, 0
3, 25104, Note_on_c, 2, 78, 45
3, 25150, Note_on_c, 2, 78, 0
3, 25152, Note_on_c, 2, 76, 45
3, 25184, Note_on_c, 2, 76, 0
3, 25200, Note_on_c, 2, 76, 45
3, 25248, Note_on_c, 2, 76, 0
3, 25248, Note_on_c, 2, 69, 45
3, 25296, Note_on_c, 2, 69, 0
3, 25296, Note_on_c, 2, 79, 45
3, 25342, Note_on_c, 2, 79, 0
3, 25344, Note_on_c, 2, 78, 45
3, 25376, Note_on_c, 2, 78, 0
3, 25392, Note_on_c, 2, 78, 45
3, 25440, Note_on_c, 2, 78, 0
3, 25440, Note_on_c, 2, 69, 45
3, 25488, Note_on_c, 2, 69, 0
3, 25488, Note_on_c, 2, 81, 45
3, 25534, Note_on_c, 2, 81, 0
3, 25536, Note_on_c, 2, 64, 45
3, 25568, Note_on_c, 2, 64, 0
3, 25584, Note_on_c, 2, 69, 45
3, 25616, Note_on_c, 2, 69, 0
3, 25632, Note_on_c, 2, 64, 45
3, 25664, Note_on_c, 2, 64, 0
3, 25680, Note_on_c, 2, 69, 45
3, 25712, Note_on_c, 2, 69, 0
3, 25728, Note_on_c, 2, 66, 45
3, 25822, Note_on_c, 2, 66, 0
3, 25824, Note_on_c, 2, 78, 45
3, 25918, Note_on_c, 2, 78, 0
3, 25920, Note_on_c, 2, 79, 45
3, 25952, Note_on_c, 2, 79, 0
3, 26016, Note_on_c, 2, 75, 45
3, 26048, Note_on_c, 2, 75, 0
3, 26112, Note_on_c, 2, 76, 45
3, 26144, Note_on_c, 2, 76, 0
3, 26208, Note_on_c, 2, 72, 45
3, 26240, Note_on_c, 2, 72, 0
3, 26304, Note_on_c, 2, 73, 45
3, 26336, Note_on_c, 2, 73, 0
3, 26400, Note_on_c, 2, 71, 45
3, 26432, Note_on_c, 2, 71, 0
3, 26496, Note_on_c, 2, 69, 45
3, 26528, Note_on_c, 2, 69, 0
3, 26592, Note_on_c, 2, 67, 45
3, 26624, Note_on_c, 2, 67, 0
3, 26688, Note_on_c, 2, 66, 45
3, 26720, Note_on_c, 2, 66, 0
3, 26784, Note_on_c, 2, 64, 45
3, 26816, Note_on_c, 2, 64, 0
3, 26880, Note_on_c, 2, 62, 45
3, 26974, Note_on_c, 2, 62, 0
3, 26976, Note_on_c, 2, 62, 47
3, 27136, Note_on_c, 2, 62, 0
3, 27168, Note_on_c, 2, 62, 52
3, 27358, Note_on_c, 2, 62, 0
3, 27360, Note_on_c, 2, 69, 56
3, 27520, Note_on_c, 2, 69, 0
3, 27552, Note_on_c, 2, 69, 62
3, 27742, Note_on_c, 2, 69, 0
3, 27744, Note_on_c, 2, 66, 68
3, 27904, Note_on_c, 2, 66, 0
3, 27936, Note_on_c, 2, 66, 74
3, 28126, Note_on_c, 2, 66, 0
3, 28128, Note_on_c, 2, 66, 80
3, 28288, Note_on_c, 2, 66, 0
3, 28320, Note_on_c, 2, 66, 86
3, 28510, Note_on_c, 2, 66, 0
3, 28512, Note_on_c, 2, 74, 127
3, 28608, Note_on_c, 2, 74, 0
3, 28608, Note_on_c, 2, 73, 92
3, 28704, Note_on_c, 2, 73, 0
3, 28704, Note_on_c, 2, 71, 92
3, 28800, Note_on_c, 2, 71, 0
3, 28800, Note_on_c, 2, 69, 92
3, 28832, Note_on_c, 2, 69, 0
3, 28896, Note_on_c, 2, 62, 127
3, 28992, Note_on_c, 2, 62, 0
3, 28992, Note_on_c, 2, 61, 108
3, 29088, Note_on_c, 2, 61, 0
3, 29088, Note_on_c, 2, 59, 108
3, 29184, Note_on_c, 2, 59, 0
3, 29184, Note_on_c, 2, 57, 108
3, 29216, Note_on_c, 2, 57, 0
3, 29664, Note_on_c, 2, 74, 45
3, 29824, Note_on_c, 2, 74, 0
3, 29856, Note_on_c, 2, 73, 45
3, 29888, Note_on_c, 2, 73, 0
3, 29952, Note_on_c, 2, 74, 45
3, 29984, Note_on_c, 2, 74, 0
3, 30048, Note_on_c, 2, 78, 45
3, 30080, Note_on_c, 2, 78, 0
3, 30432, Note_on_c, 2, 66, 45
3, 30464, Note_on_c, 2, 66, 0
3, 30528, Note_on_c, 2, 71, 45
3, 30560, Note_on_c, 2, 71, 0
3, 30624, Note_on_c, 2, 67, 45
3, 30656, Note_on_c, 2, 67, 0
3, 30720, Note_on_c, 2, 66, 45
3, 30880, Note_on_c, 2, 66, 0
3, 31104, Note_on_c, 2, 62, 45
3, 31648, Note_on_c, 2, 62, 0
3, 31848, Note_on_c, 2, 59, 75
3, 31870, Note_on_c, 2, 59, 0
3, 31872, Note_on_c, 2, 60, 75
3, 31966, Note_on_c, 2, 60, 0
3, 32736, Note_on_c, 2, 67, 45
3, 32896, Note_on_c, 2, 67, 0
3, 32928, Note_on_c, 2, 66, 45
3, 32960, Note_on_c, 2, 66, 0
3, 33024, Note_on_c, 2, 67, 45
3, 33056, Note_on_c, 2, 67, 0
3, 33120, Note_on_c, 2, 71, 45
3, 33152, Note_on_c, 2, 71, 0
3, 33504, Note_on_c, 2, 59, 45
3, 33536, Note_on_c, 2, 59, 0
3, 33600, Note_on_c, 2, 64, 45
3, 33632, Note_on_c, 2, 64, 0
3, 33696, Note_on_c, 2, 60, 45
3, 33728, Note_on_c, 2, 60, 0
3, 33792, Note_on_c, 2, 59, 45
3, 33886, Note_on_c, 2, 59, 0
3, 34176, Note_on_c, 2, 62, 108
3, 34560, Note_on_c, 2, 72, 92
3, 34654, Note_on_c, 2, 62, 0
3, 34654, Note_on_c, 2, 72, 0
3, 34944, Note_on_c, 2, 62, 60
3, 35038, Note_on_c, 2, 62, 0
3, 35112, Note_on_c, 2, 62, 60
3, 35134, Note_on_c, 2, 62, 0
3, 35136, Note_on_c, 2, 67, 45
3, 35230, Note_on_c, 2, 67, 0
3, 35304, Note_on_c, 2, 67, 45
3, 35326, Note_on_c, 2, 67, 0
3, 35328, Note_on_c, 2, 66, 45
3, 35422, Note_on_c, 2, 66, 0
3, 35712, Note_on_c, 2, 59, 108
3, 36096, Note_on_c, 2, 59, 0
3, 36096, Note_on_c, 2, 60, 92
3, 36256, Note_on_c, 2, 60, 0
3, 36456, Note_on_c, 2, 60, 45
3, 36478, Note_on_c, 2, 60, 0
3, 36480, Note_on_c, 2, 62, 45
3, 36574, Note_on_c, 2, 62, 0
3, 36648, Note_on_c, 2, 62, 45
3, 36670, Note_on_c, 2, 62, 0
3, 36672, Note_on_c, 2, 71, 45
3, 36766, Note_on_c, 2, 71, 0
3, 36840, Note_on_c, 2, 71, 45
3, 36862, Note_on_c, 2, 71, 0
3, 36864, Note_on_c, 2, 69, 45
3, 36958, Note_on_c, 2, 69, 0
3, 37248, Note_on_c, 2, 67, 45
3, 37584, Note_on_c, 2, 67, 0
3, 37632, Note_on_c, 2, 69, 92
3, 37888, Note_on_c, 2, 69, 0
3, 37920, Note_on_c, 2, 69, 92
3, 38014, Note_on_c, 2, 69, 0
3, 38184, Note_on_c, 2, 67, 45
3, 38206, Note_on_c, 2, 67, 0
3, 38208, Note_on_c, 2, 67, 45
3, 38302, Note_on_c, 2, 67, 0
3, 38376, Note_on_c, 2, 66, 45
3, 38398, Note_on_c, 2, 66, 0
3, 39456, Note_on_c, 2, 59, 45
3, 39504, Note_on_c, 2, 59, 0
3, 39504, Note_on_c, 2, 62, 45
3, 39550, Note_on_c, 2, 62, 0
3, 39552, Note_on_c, 2, 60, 45
3, 39600, Note_on_c, 2, 60, 0
3, 39600, Note_on_c, 2, 62, 45
3, 39646, Note_on_c, 2, 62, 0
3, 39648, Note_on_c, 2, 60, 45
3, 39696, Note_on_c, 2, 60, 0
3, 39696, Note_on_c, 2, 62, 45
3, 39742, Note_on_c, 2, 62, 0
3, 39744, Note_on_c, 2, 59, 45
3, 39792, Note_on_c, 2, 59, 0
3, 39792, Note_on_c, 2, 62, 45
3, 39838, Note_on_c, 2, 62, 0
3, 39840, Note_on_c, 2, 59, 45
3, 39888, Note_on_c, 2, 59, 0
3, 39888, Note_on_c, 2, 62, 45
3, 39934, Note_on_c, 2, 62, 0
3, 39936, Note_on_c, 2, 57, 45
3, 39984, Note_on_c, 2, 57, 0
3, 39984, Note_on_c, 2, 62, 45
3, 40030, Note_on_c, 2, 62, 0
3, 40320, Note_on_c, 2, 59, 108
3, 40368, Note_on_c, 2, 59, 0
3, 40512, Note_on_c, 2, 59, 108
3, 40560, Note_on_c, 2, 59, 0
3, 40704, Note_on_c, 2, 64, 127
3, 40960, Note_on_c, 2, 64, 0
3, 40992, Note_on_c, 2, 67, 45
3, 41040, Note_on_c, 2, 67, 0
3, 41040, Note_on_c, 2, 71, 45
3, 41086, Note_on_c, 2, 71, 0
3, 41088, Note_on_c, 2, 69, 45
3, 41136, Note_on_c, 2, 69, 0
3, 41136, Note_on_c, 2, 71, 45
3, 41182, Note_on_c, 2, 71, 0
3, 41184, Note_on_c, 2, 69, 45
3, 41232, Note_on_c, 2, 69, 0
3, 41232, Note_on_c, 2, 71, 45
3, 41278, Note_on_c, 2, 71, 0
3, 41280, Note_on_c, 2, 67, 45
3, 41328, Note_on_c, 2, 67, 0
3, 41328, Note_on_c, 2, 71, 45
3, 41376, Note_on_c, 2, 71, 0
3, 41376, Note_on_c, 2, 67, 45
3, 41424, Note_on_c, 2, 67, 0
3, 41424, Note_on_c, 2, 71, 45
3, 41470, Note_on_c, 2, 71, 0
3, 41472, Note_on_c, 2, 66, 45
3, 41520, Note_on_c, 2, 66, 0
3, 41520, Note_on_c, 2, 71, 45
3, 41566, Note_on_c, 2, 71, 0
3, 41760, Note_on_c, 2, 67, 45
3, 41808, Note_on_c, 2, 67, 0
3, 41808, Note_on_c, 2, 71, 45
3, 41854, Note_on_c, 2, 71, 0
3, 41856, Note_on_c, 2, 67, 45
3, 41904, Note_on_c, 2, 67, 0
3, 41904, Note_on_c, 2, 69, 45
3, 41950, Note_on_c, 2, 69, 0
3, 41952, Note_on_c, 2, 67, 45
3, 42000, Note_on_c, 2, 67, 0
3, 42000, Note_on_c, 2, 69, 45
3, 42046, Note_on_c, 2, 69, 0
3, 42048, Note_on_c, 2, 66, 45
3, 42096, Note_on_c, 2, 66, 0
3, 42096, Note_on_c, 2, 69, 45
3, 42142, Note_on_c, 2, 69, 0
3, 42144, Note_on_c, 2, 66, 45
3, 42192, Note_on_c, 2, 66, 0
3, 42192, Note_on_c, 2, 69, 45
3, 42238, Note_on_c, 2, 69, 0
3, 42240, Note_on_c, 2, 64, 45
3, 42288, Note_on_c, 2, 64, 0
3, 42288, Note_on_c, 2, 69, 45
3, 42334, Note_on_c, 2, 69, 0
3, 42528, Note_on_c, 2, 65, 45
3, 42576, Note_on_c, 2, 65, 0
3, 42576, Note_on_c, 2, 69, 45
3, 42622, Note_on_c, 2, 69, 0
3, 42624, Note_on_c, 2, 67, 45
3, 42672, Note_on_c, 2, 67, 0
3, 42672, Note_on_c, 2, 69, 45
3, 42718, Note_on_c, 2, 69, 0
3, 42720, Note_on_c, 2, 67, 45
3, 42768, Note_on_c, 2, 67, 0
3, 42768, Note_on_c, 2, 69, 45
3, 42814, Note_on_c, 2, 69, 0
3, 42816, Note_on_c, 2, 65, 45
3, 42864, Note_on_c, 2, 65, 0
3, 42864, Note_on_c, 2, 69, 45
3, 42910, Note_on_c, 2, 69, 0
3, 42912, Note_on_c, 2, 65, 45
3, 42960, Note_on_c, 2, 65, 0
3, 42960, Note_on_c, 2, 69, 45
3, 43006, Note_on_c, 2, 69, 0
3, 43008, Note_on_c, 2, 64, 45
3, 43040, Note_on_c, 2, 64, 0
3, 43056, Note_on_c, 2, 64, 47
3, 43104, Note_on_c, 2, 64, 0
3, 43104, Note_on_c, 2, 61, 50
3, 43152, Note_on_c, 2, 61, 0
3, 43152, Note_on_c, 2, 64, 53
3, 43198, Note_on_c, 2, 64, 0
3, 43200, Note_on_c, 2, 65, 56
3, 43232, Note_on_c, 2, 65, 0
3, 43248, Note_on_c, 2, 65, 59
3, 43296, Note_on_c, 2, 65, 0
3, 43296, Note_on_c, 2, 62, 62
3, 43344, Note_on_c, 2, 62, 0
3, 43344, Note_on_c, 2, 65, 65
3, 43390, Note_on_c, 2, 65, 0
3, 43392, Note_on_c, 2, 64, 68
3, 43424, Note_on_c, 2, 64, 0
3, 43440, Note_on_c, 2, 76, 71
3, 43488, Note_on_c, 2, 76, 0
3, 43488, Note_on_c, 2, 73, 74
3, 43536, Note_on_c, 2, 73, 0
3, 43536, Note_on_c, 2, 76, 77
3, 43582, Note_on_c, 2, 76, 0
3, 43584, Note_on_c, 2, 77, 80
3, 43616, Note_on_c, 2, 77, 0
3, 43632, Note_on_c, 2, 77, 83
3, 43680, Note_on_c, 2, 77, 0
3, 43680, Note_on_c, 2, 74, 86
3, 43728, Note_on_c, 2, 74, 0
3, 43728, Note_on_c, 2, 77, 89
3, 43774, Note_on_c, 2, 77, 0
3, 43776, Note_on_c, 2, 76, 92
3, 43936, Note_on_c, 2, 76, 0
3, 44064, Note_on_c, 2, 57, 108
3, 44085, Note_on_c, 2, 57, 0
3, 44096, Note_on_c, 2, 61, 108
3, 44117, Note_on_c, 2, 61, 0
3, 44128, Note_on_c, 2, 64, 108
3, 44149, Note_on_c, 2, 64, 0
3, 44160, Note_on_c, 2, 69, 108
3, 44320, Note_on_c, 2, 69, 0
3, 44736, Note_on_c, 2, 73, 45
3, 44896, Note_on_c, 2, 73, 0
3, 44928, Note_on_c, 2, 74, 63
3, 45184, Note_on_c, 2, 74, 0
3, 45216, Note_on_c, 2, 70, 45
3, 45310, Note_on_c, 2, 70, 0
3, 45312, Note_on_c, 2, 69, 45
3, 45344, Note_on_c, 2, 69, 0
3, 45408, Note_on_c, 2, 67, 45
3, 45440, Note_on_c, 2, 67, 0
3, 45504, Note_on_c, 2, 66, 45
3, 45536, Note_on_c, 2, 66, 0
3, 45600, Note_on_c, 2, 64, 45
3, 45632, Note_on_c, 2, 64, 0
3, 45696, Note_on_c, 2, 64, 45
3, 45790, Note_on_c, 2, 64, 0
3, 46272, Note_on_c, 2, 75, 45
3, 46320, Note_on_c, 2, 75, 0
3, 46464, Note_on_c, 2, 76, 63
3, 46720, Note_on_c, 2, 76, 0
3, 46752, Note_on_c, 2, 76, 45
3, 46848, Note_on_c, 2, 76, 0
3, 46848, Note_on_c, 2, 74, 45
3, 46880, Note_on_c, 2, 74, 0
3, 46944, Note_on_c, 2, 76, 45
3, 46976, Note_on_c, 2, 76, 0
3, 47040, Note_on_c, 2, 78, 45
3, 47072, Note_on_c, 2, 78, 0
3, 47136, Note_on_c, 2, 79, 45
3, 47168, Note_on_c, 2, 79, 0
3, 47232, Note_on_c, 2, 78, 45
3, 47264, Note_on_c, 2, 78, 0
3, 47280, Note_on_c, 2, 57, 45
3, 47312, Note_on_c, 2, 57, 0
3, 47328, Note_on_c, 2, 59, 45
3, 47360, Note_on_c, 2, 59, 0
3, 47376, Note_on_c, 2, 61, 45
3, 47408, Note_on_c, 2, 61, 0
3, 47424, Note_on_c, 2, 62, 45
3, 47456, Note_on_c, 2, 62, 0
3, 47472, Note_on_c, 2, 63, 45
3, 47504, Note_on_c, 2, 63, 0
3, 47520, Note_on_c, 2, 64, 45
3, 47552, Note_on_c, 2, 64, 0
3, 47568, Note_on_c, 2, 65, 45
3, 47600, Note_on_c, 2, 65, 0
3, 47616, Note_on_c, 2, 66, 45
3, 47664, Note_on_c, 2, 66, 0
3, 47808, Note_on_c, 2, 64, 45
3, 47856, Note_on_c, 2, 64, 0
3, 48000, Note_on_c, 2, 69, 63
3, 48256, Note_on_c, 2, 69, 0
3, 48288, Note_on_c, 2, 67, 45
3, 48320, Note_on_c, 2, 67, 0
3, 48384, Note_on_c, 2, 66, 45
3, 48416, Note_on_c, 2, 66, 0
3, 48480, Note_on_c, 2, 64, 45
3, 48512, Note_on_c, 2, 64, 0
3, 48576, Note_on_c, 2, 62, 45
3, 48608, Note_on_c, 2, 62, 0
3, 48672, Note_on_c, 2, 62, 45
3, 48704, Note_on_c, 2, 62, 0
3, 48768, Note_on_c, 2, 61, 45
3, 48800, Note_on_c, 2, 61, 0
3, 48816, Note_on_c, 2, 57, 45
3, 48848, Note_on_c, 2, 57, 0
3, 48864, Note_on_c, 2, 59, 45
3, 48896, Note_on_c, 2, 59, 0
3, 48912, Note_on_c, 2, 61, 45
3, 48944, Note_on_c, 2, 61, 0
3, 48960, Note_on_c, 2, 62, 45
3, 49006, Note_on_c, 2, 62, 0
3, 49008, Note_on_c, 2, 63, 45
3, 49054, Note_on_c, 2, 63, 0
3, 49056, Note_on_c, 2, 64, 45
3, 49102, Note_on_c, 2, 64, 0
3, 49104, Note_on_c, 2, 66, 45
3, 49150, Note_on_c, 2, 66, 0
3, 49152, Note_on_c, 2, 67, 45
3, 49200, Note_on_c, 2, 67, 0
3, 49344, Note_on_c, 2, 66, 45
3, 49392, Note_on_c, 2, 66, 0
3, 49536, Note_on_c, 2, 71, 63
3, 49792, Note_on_c, 2, 71, 0
3, 49824, Note_on_c, 2, 69, 45
3, 49918, Note_on_c, 2, 69, 0
3, 49920, Note_on_c, 2, 67, 92
3, 49952, Note_on_c, 2, 67, 0
3, 50016, Note_on_c, 2, 66, 81
3, 50048, Note_on_c, 2, 66, 0
3, 50112, Note_on_c, 2, 65, 69
3, 50144, Note_on_c, 2, 65, 0
3, 50208, Note_on_c, 2, 65, 57
3, 50240, Note_on_c, 2, 65, 0
3, 50304, Note_on_c, 2, 66, 45
3, 50398, Note_on_c, 2, 66, 0
3, 50496, Note_on_c, 2, 74, 45
3, 50592, Note_on_c, 2, 74, 0
3, 50592, Note_on_c, 2, 73, 45
3, 50784, Note_on_c, 2, 73, 0
3, 50784, Note_on_c, 2, 71, 45
3, 50830, Note_on_c, 2, 71, 0
3, 50880, Note_on_c, 2, 74, 45
3, 50976, Note_on_c, 2, 74, 0
3, 50976, Note_on_c, 2, 73, 45
3, 51168, Note_on_c, 2, 73, 0
3, 51168, Note_on_c, 2, 71, 45
3, 51214, Note_on_c, 2, 71, 0
3, 51264, Note_on_c, 2, 74, 45
3, 51360, Note_on_c, 2, 74, 0
3, 51360, Note_on_c, 2, 73, 46
3, 51552, Note_on_c, 2, 73, 0
3, 51552, Note_on_c, 2, 71, 50
3, 51646, Note_on_c, 2, 71, 0
3, 51648, Note_on_c, 2, 72, 72
3, 51808, Note_on_c, 2, 72, 0
3, 51840, Note_on_c, 2, 71, 56
3, 51934, Note_on_c, 2, 71, 0
3, 51936, Note_on_c, 2, 71, 58
3, 52008, Note_on_c, 2, 71, 0
3, 52008, Note_on_c, 2, 67, 59
3, 52030, Note_on_c, 2, 67, 0
3, 52032, Note_on_c, 2, 66, 59
3, 52126, Note_on_c, 2, 66, 0
3, 52128, Note_on_c, 2, 67, 61
3, 52222, Note_on_c, 2, 67, 0
3, 52224, Note_on_c, 2, 66, 63
3, 52318, Note_on_c, 2, 66, 0
3, 52392, Note_on_c, 2, 66, 66
3, 52414, Note_on_c, 2, 66, 0
3, 52416, Note_on_c, 2, 78, 66
3, 52512, Note_on_c, 2, 78, 0
3, 52512, Note_on_c, 2, 76, 68
3, 52704, Note_on_c, 2, 76, 0
3, 52704, Note_on_c, 2, 74, 72
3, 52750, Note_on_c, 2, 74, 0
3, 52776, Note_on_c, 2, 66, 73
3, 52798, Note_on_c, 2, 66, 0
3, 52896, Note_on_c, 2, 76, 75
3, 53088, Note_on_c, 2, 76, 0
3, 53088, Note_on_c, 2, 74, 79
3, 53134, Note_on_c, 2, 74, 0
3, 53160, Note_on_c, 2, 66, 80
3, 53182, Note_on_c, 2, 66, 0
3, 53280, Note_on_c, 2, 76, 83
3, 53472, Note_on_c, 2, 76, 0
3, 53472, Note_on_c, 2, 74, 89
3, 53566, Note_on_c, 2, 74, 0
3, 53568, Note_on_c, 2, 75, 127
3, 53760, Note_on_c, 2, 75, 0
3, 53760, Note_on_c, 2, 76, 92
3, 53854, Note_on_c, 2, 76, 0
3, 53904, Note_on_c, 2, 71, 92
3, 53950, Note_on_c, 2, 71, 0
3, 53952, Note_on_c, 2, 66, 92
3, 54046, Note_on_c, 2, 66, 0
3, 54048, Note_on_c, 2, 67, 92
3, 54142, Note_on_c, 2, 67, 0
3, 54144, Note_on_c, 2, 66, 92
3, 54238, Note_on_c, 2, 66, 0
3, 54336, Note_on_c, 2, 64, 45
3, 54366, Note_on_c, 2, 64, 0
3, 54368, Note_on_c, 2, 66, 45
3, 54398, Note_on_c, 2, 66, 0
3, 54400, Note_on_c, 2, 67, 45
3, 54430, Note_on_c, 2, 67, 0
3, 54432, Note_on_c, 2, 69, 45
3, 54462, Note_on_c, 2, 69, 0
3, 54464, Note_on_c, 2, 71, 45
3, 54494, Note_on_c, 2, 71, 0
3, 54496, Note_on_c, 2, 73, 45
3, 54526, Note_on_c, 2, 73, 0
3, 54528, Note_on_c, 2, 74, 45
3, 54600, Note_on_c, 2, 74, 0
3, 54600, Note_on_c, 2, 69, 45
3, 54622, Note_on_c, 2, 69, 0
3, 54624, Note_on_c, 2, 78, 45
3, 54656, Note_on_c, 2, 78, 0
3, 54720, Note_on_c, 2, 76, 45
3, 54792, Note_on_c, 2, 76, 0
3, 54792, Note_on_c, 2, 69, 45
3, 54814, Note_on_c, 2, 69, 0
3, 54816, Note_on_c, 2, 79, 45
3, 54848, Note_on_c, 2, 79, 0
3, 54912, Note_on_c, 2, 78, 45
3, 54984, Note_on_c, 2, 78, 0
3, 54984, Note_on_c, 2, 69, 45
3, 55006, Note_on_c, 2, 69, 0
3, 55008, Note_on_c, 2, 81, 45
3, 55040, Note_on_c, 2, 81, 0
3, 55104, Note_on_c, 2, 64, 45
3, 55136, Note_on_c, 2, 64, 0
3, 55152, Note_on_c, 2, 69, 45
3, 55184, Note_on_c, 2, 69, 0
3, 55200, Note_on_c, 2, 64, 45
3, 55232, Note_on_c, 2, 64, 0
3, 55248, Note_on_c, 2, 69, 45
3, 55280, Note_on_c, 2, 69, 0
3, 55296, Note_on_c, 2, 66, 45
3, 55328, Note_on_c, 2, 66, 0
3, 55344, Note_on_c, 2, 69, 45
3, 55376, Note_on_c, 2, 69, 0
3, 55392, Note_on_c, 2, 66, 45
3, 55424, Note_on_c, 2, 66, 0
3, 55440, Note_on_c, 2, 69, 45
3, 55472, Note_on_c, 2, 69, 0
3, 55488, Note_on_c, 2, 67, 45
3, 55520, Note_on_c, 2, 67, 0
3, 55536, Note_on_c, 2, 69, 45
3, 55568, Note_on_c, 2, 69, 0
3, 55584, Note_on_c, 2, 67, 45
3, 55616, Note_on_c, 2, 67, 0
3, 55632, Note_on_c, 2, 69, 45
3, 55664, Note_on_c, 2, 69, 0
3, 55680, Note_on_c, 2, 66, 45
3, 55712, Note_on_c, 2, 66, 0
3, 55728, Note_on_c, 2, 69, 45
3, 55760, Note_on_c, 2, 69, 0
3, 55776, Note_on_c, 2, 66, 45
3, 55808, Note_on_c, 2, 66, 0
3, 55824, Note_on_c, 2, 69, 45
3, 55856, Note_on_c, 2, 69, 0
3, 55872, Note_on_c, 2, 64, 45
3, 55893, Note_on_c, 2, 64, 0
3, 55904, Note_on_c, 2, 66, 45
3, 55925, Note_on_c, 2, 66, 0
3, 55936, Note_on_c, 2, 67, 45
3, 55957, Note_on_c, 2, 67, 0
3, 55968, Note_on_c, 2, 69, 45
3, 55989, Note_on_c, 2, 69, 0
3, 56000, Note_on_c, 2, 71, 45
3, 56021, Note_on_c, 2, 71, 0
3, 56032, Note_on_c, 2, 73, 45
3, 56053, Note_on_c, 2, 73, 0
3, 56064, Note_on_c, 2, 74, 45
3, 56096, Note_on_c, 2, 74, 0
3, 56112, Note_on_c, 2, 74, 45
3, 56160, Note_on_c, 2, 74, 0
3, 56160, Note_on_c, 2, 69, 45
3, 56208, Note_on_c, 2, 69, 0
3, 56208, Note_on_c, 2, 78, 45
3, 56254, Note_on_c, 2, 78, 0
3, 56256, Note_on_c, 2, 76, 45
3, 56288, Note_on_c, 2, 76, 0
3, 56304, Note_on_c, 2, 76, 45
3, 56352, Note_on_c, 2, 76, 0
3, 56352, Note_on_c, 2, 69, 45
3, 56400, Note_on_c, 2, 69, 0
3, 56400, Note_on_c, 2, 79, 45
3, 56446, Note_on_c, 2, 79, 0
3, 56448, Note_on_c, 2, 78, 45
3, 56480, Note_on_c, 2, 78, 0
3, 56496, Note_on_c, 2, 78, 45
3, 56544, Note_on_c, 2, 78, 0
3, 56544, Note_on_c, 2, 69, 45
3, 56592, Note_on_c, 2, 69, 0
3, 56592, Note_on_c, 2, 81, 45
3, 56638, Note_on_c, 2, 81, 0
3, 56640, Note_on_c, 2, 64, 45
3, 56672, Note_on_c, 2, 64, 0
3, 56688, Note_on_c, 2, 69, 45
3, 56720, Note_on_c, 2, 69, 0
3, 56736, Note_on_c, 2, 64, 45
3, 56768, Note_on_c, 2, 64, 0
3, 56784, Note_on_c, 2, 69, 45
3, 56816, Note_on_c, 2, 69, 0
3, 56832, Note_on_c, 2, 66, 45
3, 56926, Note_on_c, 2, 66, 0
3, 56928, Note_on_c, 2, 78, 45
3, 57022, Note_on_c, 2, 78, 0
3, 57024, Note_on_c, 2, 79, 45
3, 57056, Note_on_c, 2, 79, 0
3, 57120, Note_on_c, 2, 75, 45
3, 57152, Note_on_c, 2, 75, 0
3, 57216, Note_on_c, 2, 76, 45
3, 57248, Note_on_c, 2, 76, 0
3, 57312, Note_on_c, 2, 72, 45
3, 57344, Note_on_c, 2, 72, 0
3, 57408, Note_on_c, 2, 73, 45
3, 57440, Note_on_c, 2, 73, 0
3, 57504, Note_on_c, 2, 71, 45
3, 57536, Note_on_c, 2, 71, 0
3, 57600, Note_on_c, 2, 69, 45
3, 57632, Note_on_c, 2, 69, 0
3, 57696, Note_on_c, 2, 67, 45
3, 57728, Note_on_c, 2, 67, 0
3, 57792, Note_on_c, 2, 66, 45
3, 57824, Note_on_c, 2, 66, 0
3, 57888, Note_on_c, 2, 64, 45
3, 57920, Note_on_c, 2, 64, 0
3, 57984, Note_on_c, 2, 62, 45
3, 58078, Note_on_c, 2, 62, 0
3, 58080, Note_on_c, 2, 62, 47
3, 58240, Note_on_c, 2, 62, 0
3, 58272, Note_on_c, 2, 62, 52
3, 58462, Note_on_c, 2, 62, 0
3, 58464, Note_on_c, 2, 69, 56
3, 58624, Note_on_c, 2, 69, 0
3, 58656, Note_on_c, 2, 69, 62
3, 58846, Note_on_c, 2, 69, 0
3, 58848, Note_on_c, 2, 66, 68
3, 59008, Note_on_c, 2, 66, 0
3, 59040, Note_on_c, 2, 66, 74
3, 59230, Note_on_c, 2, 66, 0
3, 59232, Note_on_c, 2, 66, 80
3, 59392, Note_on_c, 2, 66, 0
3, 59424, Note_on_c, 2, 66, 86
3, 59614, Note_on_c, 2, 66, 0
3, 59616, Note_on_c, 2, 74, 127
3, 59712, Note_on_c, 2, 74, 0
3, 59712, Note_on_c, 2, 73, 92
3, 59808, Note_on_c, 2, 73, 0
3, 59808, Note_on_c, 2, 71, 92
3, 59904, Note_on_c, 2, 71, 0
3, 59904, Note_on_c, 2, 69, 92
3, 59936, Note_on_c, 2, 69, 0
3, 60000, Note_on_c, 2, 62, 127
3, 60096, Note_on_c, 2, 62, 0
3, 60096, Note_on_c, 2, 61, 108
3, 60192, Note_on_c, 2, 61, 0
3, 60192, Note_on_c, 2, 59, 108
3, 60288, Note_on_c, 2, 59, 0
3, 60288, Note_on_c, 2, 57, 108
3, 60320, Note_on_c, 2, 57, 0
3, 60768, Note_on_c, 2, 74, 45
3, 60928, Note_on_c, 2, 74, 0
3, 60960, Note_on_c, 2, 73, 45
3, 60992, Note_on_c, 2, 73, 0
3, 61056, Note_on_c, 2, 74, 45
3, 61088, Note_on_c, 2, 74, 0
3, 61152, Note_on_c, 2, 78, 45
3, 61184, Note_on_c, 2, 78, 0
3, 61536, Note_on_c, 2, 66, 45
3, 61568, Note_on_c, 2, 66, 0
3, 61632, Note_on_c, 2, 71, 45
3, 61664, Note_on_c, 2, 71, 0
3, 61728, Note_on_c, 2, 67, 45
3, 61760, Note_on_c, 2, 67, 0
3, 61824, Note_on_c, 2, 66, 45
3, 61984, Note_on_c, 2, 66, 0
3, 62400, Note_on_c, 2, 74, 45
3, 62560, Note_on_c, 2, 74, 0
3, 62592, Note_on_c, 2, 73, 45
3, 62624, Note_on_c, 2, 73, 0
3, 62688, Note_on_c, 2, 74, 45
3, 62720, Note_on_c, 2, 74, 0
3, 62784, Note_on_c, 2, 77, 45
3, 62816, Note_on_c, 2, 77, 0
3, 62976, Note_on_c, 2, 69, 92
3, 63070, Note_on_c, 2, 69, 0
3, 63072, Note_on_c, 2, 74, 92
3, 63264, Note_on_c, 2, 74, 0
3, 63264, Note_on_c, 2, 76, 92
3, 63312, Note_on_c, 2, 76, 0
3, 63312, Note_on_c, 2, 77, 92
3, 63360, Note_on_c, 2, 77, 0
3, 63360, Note_on_c, 2, 79, 92
3, 63408, Note_on_c, 2, 79, 0
3, 63408, Note_on_c, 2, 76, 92
3, 63454, Note_on_c, 2, 76, 0
3, 63456, Note_on_c, 2, 74, 92
3, 63550, Note_on_c, 2, 74, 0
3, 64704, Note_on_c, 2, 68, 30
3, 64728, Note_on_c, 2, 68, 0
3, 64728, Note_on_c, 2, 69, 30
3, 64798, Note_on_c, 2, 69, 0
3, 64896, Note_on_c, 2, 68, 30
3, 64920, Note_on_c, 2, 68, 0
3, 64920, Note_on_c, 2, 69, 30
3, 64990, Note_on_c, 2, 69, 0
3, 65088, Note_on_c, 2, 68, 30
3, 65112, Note_on_c, 2, 68, 0
3, 65112, Note_on_c, 2, 69, 30
3, 65182, Note_on_c, 2, 69, 0
3, 65376, Note_on_c, 2, 65, 92
3, 65424, Note_on_c, 2, 65, 0
3, 65568, Note_on_c, 2, 65, 92
3, 65616, Note_on_c, 2, 65, 0
3, 65760, Note_on_c, 2, 70, 127
3, 66016, Note_on_c, 2, 70, 0
3, 66048, Note_on_c, 2, 62, 45
3, 66096, Note_on_c, 2, 62, 0
3, 66096, Note_on_c, 2, 66, 45
3, 66142, Note_on_c, 2, 66, 0
3, 66144, Note_on_c, 2, 63, 45
3, 66192, Note_on_c, 2, 63, 0
3, 66192, Note_on_c, 2, 65, 45
3, 66238, Note_on_c, 2, 65, 0
3, 66240, Note_on_c, 2, 63, 45
3, 66288, Note_on_c, 2, 63, 0
3, 66288, Note_on_c, 2, 65, 45
3, 66334, Note_on_c, 2, 65, 0
3, 66336, Note_on_c, 2, 62, 45
3, 66384, Note_on_c, 2, 62, 0
3, 66384, Note_on_c, 2, 65, 45
3, 66430, Note_on_c, 2, 65, 0
3, 66432, Note_on_c, 2, 62, 45
3, 66480, Note_on_c, 2, 62, 0
3, 66480, Note_on_c, 2, 65, 45
3, 66526, Note_on_c, 2, 65, 0
3, 66528, Note_on_c, 2, 60, 45
3, 66576, Note_on_c, 2, 60, 0
3, 66576, Note_on_c, 2, 65, 45
3, 66622, Note_on_c, 2, 65, 0
3, 66816, Note_on_c, 2, 63, 45
3, 66864, Note_on_c, 2, 63, 0
3, 66864, Note_on_c, 2, 67, 45
3, 66910, Note_on_c, 2, 67, 0
3, 66912, Note_on_c, 2, 65, 45
3, 66960, Note_on_c, 2, 65, 0
3, 66960, Note_on_c, 2, 67, 45
3, 67006, Note_on_c, 2, 67, 0
3, 67008, Note_on_c, 2, 65, 45
3, 67056, Note_on_c, 2, 65, 0
3, 67056, Note_on_c, 2, 67, 45
3, 67102, Note_on_c, 2, 67, 0
3, 67104, Note_on_c, 2, 63, 45
3, 67152, Note_on_c, 2, 63, 0
3, 67152, Note_on_c, 2, 67, 45
3, 67198, Note_on_c, 2, 67, 0
3, 67200, Note_on_c, 2, 63, 45
3, 67248, Note_on_c, 2, 63, 0
3, 67248, Note_on_c, 2, 67, 45
3, 67294, Note_on_c, 2, 67, 0
3, 67296, Note_on_c, 2, 62, 45
3, 67344, Note_on_c, 2, 62, 0
3, 67344, Note_on_c, 2, 67, 45
3, 67390, Note_on_c, 2, 67, 0
3, 68352, Note_on_c, 2, 63, 45
3, 68400, Note_on_c, 2, 63, 0
3, 68400, Note_on_c, 2, 67, 45
3, 68446, Note_on_c, 2, 67, 0
3, 68448, Note_on_c, 2, 65, 45
3, 68608, Note_on_c, 2, 65, 0
3, 68736, Note_on_c, 2, 63, 45
3, 68784, Note_on_c, 2, 63, 0
3, 68784, Note_on_c, 2, 67, 45
3, 68830, Note_on_c, 2, 67, 0
3, 68832, Note_on_c, 2, 62, 45
3, 68864, Note_on_c, 2, 62, 0
3, 68928, Note_on_c, 2, 63, 50
3, 68976, Note_on_c, 2, 63, 0
3, 68976, Note_on_c, 2, 67, 53
3, 69022, Note_on_c, 2, 67, 0
3, 69024, Note_on_c, 2, 62, 56
3, 69056, Note_on_c, 2, 62, 0
3, 69120, Note_on_c, 2, 63, 62
3, 69168, Note_on_c, 2, 63, 0
3, 69168, Note_on_c, 2, 67, 65
3, 69214, Note_on_c, 2, 67, 0
3, 69216, Note_on_c, 2, 62, 68
3, 69310, Note_on_c, 2, 62, 0
3, 69600, Note_on_c, 2, 58, 92
3, 69984, Note_on_c, 2, 58, 0
3, 69984, Note_on_c, 2, 62, 92
3, 70144, Note_on_c, 2, 62, 0
3, 70344, Note_on_c, 2, 62, 92
3, 70366, Note_on_c, 2, 62, 0
3, 70368, Note_on_c, 2, 63, 92
3, 70462, Note_on_c, 2, 63, 0
3, 70536, Note_on_c, 2, 63, 92
3, 70558, Note_on_c, 2, 63, 0
3, 70560, Note_on_c, 2, 58, 92
3, 70560, Note_on_c, 2, 67, 92
3, 70654, Note_on_c, 2, 58, 0
3, 70654, Note_on_c, 2, 67, 0
3, 70728, Note_on_c, 2, 58, 92
3, 70728, Note_on_c, 2, 67, 92
3, 70750, Note_on_c, 2, 58, 0
3, 70750, Note_on_c, 2, 67, 0
3, 70752, Note_on_c, 2, 58, 92
3, 70752, Note_on_c, 2, 65, 92
3, 70846, Note_on_c, 2, 58, 0
3, 70846, Note_on_c, 2, 65, 0
3, 73632, Note_on_c, 2, 72, 30
3, 73824, Note_on_c, 2, 72, 0
3, 73824, Note_on_c, 2, 70, 30
3, 74208, Note_on_c, 2, 70, 0
3, 74208, Note_on_c, 2, 72, 30
3, 74640, Note_on_c, 2, 72, 0
3, 74640, Note_on_c, 2, 74, 30
3, 74686, Note_on_c, 2, 74, 0
3, 74688, Note_on_c, 2, 75, 30
3, 74720, Note_on_c, 2, 75, 0
3, 74736, Note_on_c, 2, 76, 30
3, 74768, Note_on_c, 2, 76, 0
3, 74784, Note_on_c, 2, 77, 30
3, 74816, Note_on_c, 2, 77, 0
3, 74832, Note_on_c, 2, 76, 30
3, 74864, Note_on_c, 2, 76, 0
3, 74880, Note_on_c, 2, 77, 30
3, 74912, Note_on_c, 2, 77, 0
3, 74928, Note_on_c, 2, 76, 30
3, 74960, Note_on_c, 2, 76, 0
3, 74976, Note_on_c, 2, 77, 30
3, 75408, Note_on_c, 2, 78, 0
3, 75408, Note_on_c, 2, 76, 30
3, 75454, Note_on_c, 2, 76, 0
3, 75456, Note_on_c, 2, 82, 30
3, 75488, Note_on_c, 2, 82, 0
3, 75504, Note_on_c, 2, 79, 30
3, 75536, Note_on_c, 2, 79, 0
3, 75552, Note_on_c, 2, 76, 30
3, 75584, Note_on_c, 2, 76, 0
3, 75600, Note_on_c, 2, 72, 30
3, 75632, Note_on_c, 2, 72, 0
3, 75648, Note_on_c, 2, 70, 30
3, 75680, Note_on_c, 2, 70, 0
3, 75696, Note_on_c, 2, 67, 30
3, 75728, Note_on_c, 2, 67, 0
3, 75744, Note_on_c, 2, 68, 30
3, 75838, Note_on_c, 2, 68, 0
3, 75912, Note_on_c, 2, 68, 30
3, 75934, Note_on_c, 2, 68, 0
3, 75936, Note_on_c, 2, 65, 30
3, 76030, Note_on_c, 2, 65, 0
3, 76104, Note_on_c, 2, 65, 30
3, 76126, Note_on_c, 2, 65, 0
3, 76128, Note_on_c, 2, 64, 30
3, 76222, Note_on_c, 2, 64, 0
3, 76296, Note_on_c, 2, 64, 30
3, 76318, Note_on_c, 2, 64, 0
3, 76320, Note_on_c, 2, 70, 30
3, 76414, Note_on_c, 2, 70, 0
3, 76488, Note_on_c, 2, 70, 30
3, 76510, Note_on_c, 2, 70, 0
3, 76512, Note_on_c, 2, 73, 30
3, 76606, Note_on_c, 2, 73, 0
3, 76680, Note_on_c, 2, 73, 30
3, 76702, Note_on_c, 2, 73, 0
3, 76704, Note_on_c, 2, 64, 30
3, 76798, Note_on_c, 2, 64, 0
3, 76872, Note_on_c, 2, 64, 30
3, 76894, Note_on_c, 2, 64, 0
3, 76896, Note_on_c, 2, 66, 30
3, 76990, Note_on_c, 2, 66, 0
3, 77064, Note_on_c, 2, 66, 30
3, 77086, Note_on_c, 2, 66, 0
3, 77088, Note_on_c, 2, 65, 30
3, 77182, Note_on_c, 2, 65, 0
3, 77256, Note_on_c, 2, 65, 30
3, 77278, Note_on_c, 2, 65, 0
3, 77280, Note_on_c, 2, 75, 30
3, 77374, Note_on_c, 2, 75, 0
3, 77448, Note_on_c, 2, 75, 30
3, 77470, Note_on_c, 2, 75, 0
3, 77472, Note_on_c, 2, 74, 30
3, 77566, Note_on_c, 2, 74, 0
3, 77640, Note_on_c, 2, 72, 30
3, 77662, Note_on_c, 2, 72, 0
3, 77664, Note_on_c, 2, 70, 30
3, 77696, Note_on_c, 2, 70, 0
3, 77712, Note_on_c, 2, 67, 30
3, 77744, Note_on_c, 2, 67, 0
3, 77760, Note_on_c, 2, 67, 30
3, 77792, Note_on_c, 2, 67, 0
3, 77904, Note_on_c, 2, 70, 30
3, 77936, Note_on_c, 2, 70, 0
3, 77952, Note_on_c, 2, 70, 30
3, 77984, Note_on_c, 2, 70, 0
3, 78096, Note_on_c, 2, 73, 30
3, 78128, Note_on_c, 2, 73, 0
3, 78144, Note_on_c, 2, 73, 30
3, 78176, Note_on_c, 2, 73, 0
3, 78288, Note_on_c, 2, 74, 30
3, 78320, Note_on_c, 2, 74, 0
3, 78336, Note_on_c, 2, 74, 30
3, 78368, Note_on_c, 2, 74, 0
3, 78480, Note_on_c, 2, 66, 31
3, 78526, Note_on_c, 2, 66, 0
3, 78528, Note_on_c, 2, 66, 32
3, 78574, Note_on_c, 2, 66, 0
3, 78672, Note_on_c, 2, 75, 35
3, 78718, Note_on_c, 2, 75, 0
3, 78720, Note_on_c, 2, 75, 36
3, 78766, Note_on_c, 2, 75, 0
3, 78864, Note_on_c, 2, 74, 39
3, 78910, Note_on_c, 2, 74, 0
3, 78912, Note_on_c, 2, 74, 40
3, 78958, Note_on_c, 2, 74, 0
3, 79056, Note_on_c, 2, 77, 43
3, 79102, Note_on_c, 2, 77, 0
3, 79104, Note_on_c, 2, 77, 44
3, 79150, Note_on_c, 2, 77, 0
3, 79248, Note_on_c, 2, 68, 47
3, 79294, Note_on_c, 2, 68, 0
3, 79296, Note_on_c, 2, 68, 48
3, 79342, Note_on_c, 2, 68, 0
3, 79440, Note_on_c, 2, 77, 51
3, 79486, Note_on_c, 2, 77, 0
3, 79488, Note_on_c, 2, 77, 52
3, 79534, Note_on_c, 2, 77, 0
3, 79632, Note_on_c, 2, 76, 58
3, 79678, Note_on_c, 2, 76, 0
3, 79680, Note_on_c, 2, 76, 60
3, 79726, Note_on_c, 2, 76, 0
3, 79824, Note_on_c, 2, 79, 66
3, 79870, Note_on_c, 2, 79, 0
3, 79872, Note_on_c, 2, 79, 68
3, 79918, Note_on_c, 2, 79, 0
3, 80016, Note_on_c, 2, 61, 74
3, 80062, Note_on_c, 2, 61, 0
3, 80064, Note_on_c, 2, 61, 76
3, 80110, Note_on_c, 2, 61, 0
3, 80208, Note_on_c, 2, 70, 82
3, 80254, Note_on_c, 2, 70, 0
3, 80256, Note_on_c, 2, 70, 84
3, 80302, Note_on_c, 2, 70, 0
3, 80448, Note_on_c, 2, 67, 92
3, 80542, Note_on_c, 2, 67, 0
3, 81120, Note_on_c, 2, 73, 63
3, 81376, Note_on_c, 2, 73, 0
3, 81408, Note_on_c, 2, 73, 45
3, 81502, Note_on_c, 2, 73, 0
3, 81504, Note_on_c, 2, 73, 45
3, 81536, Note_on_c, 2, 73, 0
3, 81600, Note_on_c, 2, 73, 45
3, 81632, Note_on_c, 2, 73, 0
3, 81696, Note_on_c, 2, 73, 45
3, 81728, Note_on_c, 2, 73, 0
3, 81792, Note_on_c, 2, 73, 45
3, 81824, Note_on_c, 2, 73, 0
3, 81888, Note_on_c, 2, 73, 45
3, 81982, Note_on_c, 2, 73, 0
3, 82272, Note_on_c, 2, 70, 45
3, 82320, Note_on_c, 2, 70, 0
3, 82464, Note_on_c, 2, 70, 68
3, 82512, Note_on_c, 2, 70, 0
3, 82656, Note_on_c, 2, 69, 127
3, 82912, Note_on_c, 2, 69, 0
3, 82944, Note_on_c, 2, 72, 45
3, 82992, Note_on_c, 2, 72, 0
3, 82992, Note_on_c, 2, 69, 45
3, 83038, Note_on_c, 2, 69, 0
3, 83040, Note_on_c, 2, 68, 45
3, 83088, Note_on_c, 2, 68, 0
3, 83088, Note_on_c, 2, 69, 45
3, 83134, Note_on_c, 2, 69, 0
3, 83136, Note_on_c, 2, 72, 45
3, 83184, Note_on_c, 2, 72, 0
3, 83184, Note_on_c, 2, 69, 45
3, 83230, Note_on_c, 2, 69, 0
3, 83232, Note_on_c, 2, 68, 45
3, 83280, Note_on_c, 2, 68, 0
3, 83280, Note_on_c, 2, 69, 45
3, 83326, Note_on_c, 2, 69, 0
3, 83328, Note_on_c, 2, 72, 45
3, 83376, Note_on_c, 2, 72, 0
3, 83376, Note_on_c, 2, 69, 45
3, 83422, Note_on_c, 2, 69, 0
3, 83424, Note_on_c, 2, 68, 45
3, 83472, Note_on_c, 2, 68, 0
3, 83472, Note_on_c, 2, 69, 45
3, 83518, Note_on_c, 2, 69, 0
3, 83712, Note_on_c, 2, 84, 45
3, 83760, Note_on_c, 2, 84, 0
3, 83760, Note_on_c, 2, 81, 45
3, 83806, Note_on_c, 2, 81, 0
3, 83808, Note_on_c, 2, 80, 45
3, 83856, Note_on_c, 2, 80, 0
3, 83856, Note_on_c, 2, 81, 45
3, 83902, Note_on_c, 2, 81, 0
3, 83904, Note_on_c, 2, 84, 45
3, 83952, Note_on_c, 2, 84, 0
3, 83952, Note_on_c, 2, 81, 45
3, 83998, Note_on_c, 2, 81, 0
3, 84000, Note_on_c, 2, 80, 45
3, 84048, Note_on_c, 2, 80, 0
3, 84048, Note_on_c, 2, 81, 45
3, 84094, Note_on_c, 2, 81, 0
3, 84096, Note_on_c, 2, 84, 45
3, 84144, Note_on_c, 2, 84, 0
3, 84144, Note_on_c, 2, 81, 45
3, 84190, Note_on_c, 2, 81, 0
3, 84192, Note_on_c, 2, 80, 45
3, 84240, Note_on_c, 2, 80, 0
3, 84240, Note_on_c, 2, 81, 45
3, 84286, Note_on_c, 2, 81, 0
3, 84480, Note_on_c, 2, 84, 45
3, 84528, Note_on_c, 2, 84, 0
3, 84528, Note_on_c, 2, 81, 44
3, 84574, Note_on_c, 2, 81, 0
3, 84576, Note_on_c, 2, 80, 42
3, 84624, Note_on_c, 2, 80, 0
3, 84624, Note_on_c, 2, 81, 40
3, 84670, Note_on_c, 2, 81, 0
3, 84864, Note_on_c, 2, 84, 30
3, 84912, Note_on_c, 2, 84, 0
3, 84912, Note_on_c, 2, 81, 30
3, 84958, Note_on_c, 2, 81, 0
3, 84960, Note_on_c, 2, 83, 30
3, 85008, Note_on_c, 2, 83, 0
3, 85008, Note_on_c, 2, 81, 30
3, 85054, Note_on_c, 2, 81, 0
3, 86880, Note_on_c, 2, 74, 92
3, 87216, Note_on_c, 2, 74, 0
3, 87264, Note_on_c, 2, 72, 92
3, 87312, Note_on_c, 2, 72, 0
3, 87456, Note_on_c, 2, 72, 92
3, 87504, Note_on_c, 2, 72, 0
3, 87648, Note_on_c, 2, 72, 127
3, 87904, Note_on_c, 2, 72, 0
3, 87936, Note_on_c, 2, 69, 92
3, 88030, Note_on_c, 2, 69, 0
3, 88032, Note_on_c, 2, 67, 92
3, 88192, Note_on_c, 2, 67, 0
3, 88416, Note_on_c, 2, 62, 92
3, 88576, Note_on_c, 2, 62, 0
3, 88608, Note_on_c, 2, 59, 92
3, 88632, Note_on_c, 2, 59, 0
3, 88632, Note_on_c, 2, 60, 92
3, 88656, Note_on_c, 2, 60, 0
3, 88656, Note_on_c, 2, 59, 92
3, 88680, Note_on_c, 2, 59, 0
3, 88680, Note_on_c, 2, 60, 92
3, 88704, Note_on_c, 2, 60, 0
3, 88704, Note_on_c, 2, 62, 92
3, 88728, Note_on_c, 2, 62, 0
3, 88728, Note_on_c, 2, 64, 92
3, 88752, Note_on_c, 2, 64, 0
3, 88752, Note_on_c, 2, 66, 92
3, 88776, Note_on_c, 2, 66, 0
3, 88776, Note_on_c, 2, 67, 92
3, 88798, Note_on_c, 2, 67, 0
3, 88800, Note_on_c, 2, 69, 92
3, 88960, Note_on_c, 2, 69, 0
3, 89160, Note_on_c, 2, 71, 92
3, 89182, Note_on_c, 2, 71, 0
3, 89184, Note_on_c, 2, 72, 92
3, 89278, Note_on_c, 2, 72, 0
3, 89352, Note_on_c, 2, 72, 94
3, 89374, Note_on_c, 2, 72, 0
3, 89376, Note_on_c, 2, 69, 94
3, 89470, Note_on_c, 2, 69, 0
3, 89544, Note_on_c, 2, 66, 96
3, 89566, Note_on_c, 2, 66, 0
3, 89568, Note_on_c, 2, 62, 127
3, 89600, Note_on_c, 2, 62, 0
3, 89664, Note_on_c, 2, 67, 97
3, 89824, Note_on_c, 2, 67, 0
3, 89856, Note_on_c, 2, 66, 100
3, 89888, Note_on_c, 2, 66, 0
3, 89952, Note_on_c, 2, 71, 127
3, 90208, Note_on_c, 2, 71, 0
3, 90240, Note_on_c, 2, 69, 106
3, 90272, Note_on_c, 2, 69, 0
3, 90336, Note_on_c, 2, 74, 45
3, 90368, Note_on_c, 2, 74, 0
3, 90432, Note_on_c, 2, 76, 45
3, 90464, Note_on_c, 2, 76, 0
3, 90528, Note_on_c, 2, 74, 45
3, 90560, Note_on_c, 2, 74, 0
3, 90624, Note_on_c, 2, 66, 45
3, 90672, Note_on_c, 2, 66, 0
3, 90672, Note_on_c, 2, 69, 45
3, 90718, Note_on_c, 2, 69, 0
3, 91104, Note_on_c, 2, 59, 92
3, 91488, Note_on_c, 2, 59, 0
3, 91488, Note_on_c, 2, 60, 92
3, 91648, Note_on_c, 2, 60, 0
3, 91848, Note_on_c, 2, 60, 45
3, 91870, Note_on_c, 2, 60, 0
3, 91872, Note_on_c, 2, 62, 45
3, 91966, Note_on_c, 2, 62, 0
3, 92040, Note_on_c, 2, 62, 45
3, 92062, Note_on_c, 2, 62, 0
3, 92064, Note_on_c, 2, 59, 45
3, 92158, Note_on_c, 2, 59, 0
3, 92232, Note_on_c, 2, 59, 45
3, 92254, Note_on_c, 2, 59, 0
3, 92256, Note_on_c, 2, 57, 45
3, 92350, Note_on_c, 2, 57, 0
3, 92640, Note_on_c, 2, 71, 30
3, 92800, Note_on_c, 2, 71, 0
3, 92832, Note_on_c, 2, 69, 30
3, 92856, Note_on_c, 2, 69, 0
3, 92856, Note_on_c, 2, 67, 30
3, 92880, Note_on_c, 2, 67, 0
3, 92880, Note_on_c, 2, 66, 30
3, 92904, Note_on_c, 2, 66, 0
3, 92904, Note_on_c, 2, 67, 30
3, 92928, Note_on_c, 2, 67, 0
3, 92928, Note_on_c, 2, 66, 30
3, 92952, Note_on_c, 2, 66, 0
3, 92952, Note_on_c, 2, 67, 30
3, 92976, Note_on_c, 2, 67, 0
3, 92976, Note_on_c, 2, 71, 30
3, 93000, Note_on_c, 2, 71, 0
3, 93000, Note_on_c, 2, 67, 30
3, 93022, Note_on_c, 2, 67, 0
3, 93024, Note_on_c, 2, 62, 45
3, 93118, Note_on_c, 2, 62, 0
3, 93408, Note_on_c, 2, 72, 30
3, 93568, Note_on_c, 2, 72, 0
3, 93600, Note_on_c, 2, 71, 30
3, 93624, Note_on_c, 2, 71, 0
3, 93624, Note_on_c, 2, 69, 30
3, 93648, Note_on_c, 2, 69, 0
3, 93648, Note_on_c, 2, 68, 30
3, 93672, Note_on_c, 2, 68, 0
3, 93672, Note_on_c, 2, 69, 30
3, 93696, Note_on_c, 2, 69, 0
3, 93696, Note_on_c, 2, 68, 30
3, 93720, Note_on_c, 2, 68, 0
3, 93720, Note_on_c, 2, 69, 30
3, 93744, Note_on_c, 2, 69, 0
3, 93744, Note_on_c, 2, 72, 30
3, 93768, Note_on_c, 2, 72, 0
3, 93768, Note_on_c, 2, 69, 30
3, 93790, Note_on_c, 2, 69, 0
3, 93792, Note_on_c, 2, 64, 45
3, 93886, Note_on_c, 2, 64, 0
3, 94176, Note_on_c, 2, 71, 30
3, 94336, Note_on_c, 2, 71, 0
3, 94368, Note_on_c, 2, 69, 30
3, 94392, Note_on_c, 2, 69, 0
3, 94392, Note_on_c, 2, 67, 30
3, 94416, Note_on_c, 2, 67, 0
3, 94416, Note_on_c, 2, 66, 30
3, 94440, Note_on_c, 2, 66, 0
3, 94440, Note_on_c, 2, 64, 30
3, 94464, Note_on_c, 2, 64, 0
3, 94464, Note_on_c, 2, 63, 30
3, 94488, Note_on_c, 2, 63, 0
3, 94488, Note_on_c, 2, 64, 30
3, 94512, Note_on_c, 2, 64, 0
3, 94512, Note_on_c, 2, 67, 30
3, 94536, Note_on_c, 2, 67, 0
3, 94536, Note_on_c, 2, 64, 30
3, 94558, Note_on_c, 2, 64, 0
3, 94560, Note_on_c, 2, 63, 30
3, 94656, Note_on_c, 2, 63, 0
3, 94656, Note_on_c, 2, 69, 31
3, 94776, Note_on_c, 2, 69, 0
3, 94776, Note_on_c, 2, 67, 33
3, 94800, Note_on_c, 2, 67, 0
3, 94800, Note_on_c, 2, 66, 33
3, 94824, Note_on_c, 2, 66, 0
3, 94824, Note_on_c, 2, 64, 33
3, 94848, Note_on_c, 2, 64, 0
3, 94848, Note_on_c, 2, 63, 33
3, 94872, Note_on_c, 2, 63, 0
3, 94872, Note_on_c, 2, 64, 33
3, 94896, Note_on_c, 2, 64, 0
3, 94896, Note_on_c, 2, 67, 33
3, 94920, Note_on_c, 2, 67, 0
3, 94920, Note_on_c, 2, 64, 33
3, 94942, Note_on_c, 2, 64, 0
3, 94944, Note_on_c, 2, 63, 33
3, 95040, Note_on_c, 2, 63, 0
3, 95040, Note_on_c, 2, 69, 36
3, 95160, Note_on_c, 2, 69, 0
3, 95160, Note_on_c, 2, 67, 39
3, 95184, Note_on_c, 2, 67, 0
3, 95184, Note_on_c, 2, 66, 39
3, 95208, Note_on_c, 2, 66, 0
3, 95208, Note_on_c, 2, 64, 40
3, 95232, Note_on_c, 2, 64, 0
3, 95232, Note_on_c, 2, 63, 41
3, 95256, Note_on_c, 2, 63, 0
3, 95256, Note_on_c, 2, 64, 42
3, 95280, Note_on_c, 2, 64, 0
3, 95280, Note_on_c, 2, 67, 43
3, 95304, Note_on_c, 2, 67, 0
3, 95304, Note_on_c, 2, 64, 44
3, 95326, Note_on_c, 2, 64, 0
3, 95328, Note_on_c, 2, 63, 45
3, 95422, Note_on_c, 2, 63, 0
3, 95520, Note_on_c, 2, 63, 45
3, 95614, Note_on_c, 2, 63, 0
3, 95712, Note_on_c, 2, 63, 45
3, 95806, Note_on_c, 2, 63, 0
3, 96096, Note_on_c, 2, 59, 30
3, 96640, Note_on_c, 2, 59, 0
3, 97728, Note_on_c, 2, 76, 30
3, 97888, Note_on_c, 2, 76, 0
3, 97920, Note_on_c, 2, 75, 30
3, 97952, Note_on_c, 2, 75, 0
3, 98016, Note_on_c, 2, 76, 30
3, 98048, Note_on_c, 2, 76, 0
3, 98112, Note_on_c, 2, 80, 30
3, 98144, Note_on_c, 2, 80, 0
3, 98304, Note_on_c, 2, 59, 30
3, 98398, Note_on_c, 2, 59, 0
3, 98400, Note_on_c, 2, 64, 30
3, 98592, Note_on_c, 2, 64, 0
3, 98592, Note_on_c, 2, 66, 30
3, 98640, Note_on_c, 2, 66, 0
3, 98640, Note_on_c, 2, 67, 30
3, 98688, Note_on_c, 2, 67, 0
3, 98688, Note_on_c, 2, 69, 30
3, 98736, Note_on_c, 2, 69, 0
3, 98736, Note_on_c, 2, 66, 30
3, 98782, Note_on_c, 2, 66, 0
3, 98784, Note_on_c, 2, 67, 30
3, 98976, Note_on_c, 2, 67, 0
3, 98976, Note_on_c, 2, 69, 30
3, 99024, Note_on_c, 2, 69, 0
3, 99024, Note_on_c, 2, 71, 30
3, 99072, Note_on_c, 2, 71, 0
3, 99072, Note_on_c, 2, 72, 30
3, 99120, Note_on_c, 2, 72, 0
3, 99120, Note_on_c, 2, 69, 30
3, 99166, Note_on_c, 2, 69, 0
3, 99168, Note_on_c, 2, 71, 30
3, 99360, Note_on_c, 2, 71, 0
3, 99360, Note_on_c, 2, 73, 30
3, 99408, Note_on_c, 2, 73, 0
3, 99408, Note_on_c, 2, 74, 30
3, 99456, Note_on_c, 2, 74, 0
3, 99456, Note_on_c, 2, 76, 30
3, 99504, Note_on_c, 2, 76, 0
3, 99504, Note_on_c, 2, 73, 30
3, 99550, Note_on_c, 2, 73, 0
3, 99552, Note_on_c, 2, 74, 30
3, 99712, Note_on_c, 2, 74, 0
3, 99744, Note_on_c, 2, 72, 35
3, 99904, Note_on_c, 2, 72, 0
3, 99936, Note_on_c, 2, 71, 40
3, 100096, Note_on_c, 2, 71, 0
3, 100128, Note_on_c, 2, 73, 45
3, 100288, Note_on_c, 2, 73, 0
3, 100320, Note_on_c, 2, 74, 50
3, 100512, Note_on_c, 2, 74, 0
3, 100512, Note_on_c, 2, 72, 55
3, 100560, Note_on_c, 2, 72, 0
3, 100560, Note_on_c, 2, 71, 56
3, 100608, Note_on_c, 2, 71, 0
3, 100608, Note_on_c, 2, 69, 57
3, 100656, Note_on_c, 2, 69, 0
3, 100656, Note_on_c, 2, 72, 58
3, 100702, Note_on_c, 2, 72, 0
3, 100704, Note_on_c, 2, 71, 59
3, 100896, Note_on_c, 2, 71, 0
3, 100896, Note_on_c, 2, 70, 64
3, 100944, Note_on_c, 2, 70, 0
3, 100944, Note_on_c, 2, 69, 65
3, 100992, Note_on_c, 2, 69, 0
3, 100992, Note_on_c, 2, 67, 66
3, 101040, Note_on_c, 2, 67, 0
3, 101040, Note_on_c, 2, 70, 67
3, 101086, Note_on_c, 2, 70, 0
3, 101088, Note_on_c, 2, 69, 68
3, 101120, Note_on_c, 2, 69, 0
3, 101184, Note_on_c, 2, 57, 71
3, 101184, Note_on_c, 2, 66, 71
3, 101216, Note_on_c, 2, 57, 0
3, 101216, Note_on_c, 2, 66, 0
3, 101376, Note_on_c, 2, 57, 77
3, 101376, Note_on_c, 2, 67, 77
3, 101470, Note_on_c, 2, 57, 0
3, 101470, Note_on_c, 2, 67, 0
3, 101568, Note_on_c, 2, 57, 83
3, 101568, Note_on_c, 2, 66, 83
3, 101662, Note_on_c, 2, 57, 0
3, 101662, Note_on_c, 2, 66, 0
3, 101760, Note_on_c, 2, 57, 89
3, 101760, Note_on_c, 2, 67, 89
3, 101854, Note_on_c, 2, 57, 0
3, 101854, Note_on_c, 2, 67, 0
3, 101856, Note_on_c, 2, 57, 92
3, 101856, Note_on_c, 2, 66, 92
3, 102016, Note_on_c, 2, 57, 0
3, 102016, Note_on_c, 2, 66, 0
3, 102144, Note_on_c, 2, 62, 92
3, 102165, Note_on_c, 2, 62, 0
3, 102176, Note_on_c, 2, 66, 92
3, 102197, Note_on_c, 2, 66, 0
3, 102208, Note_on_c, 2, 69, 92
3, 102229, Note_on_c, 2, 69, 0
3, 102240, Note_on_c, 2, 74, 92
3, 102400, Note_on_c, 2, 74, 0
3, 102528, Note_on_c, 2, 62, 45
3, 102622, Note_on_c, 2, 62, 0
3, 102624, Note_on_c, 2, 71, 45
3, 102672, Note_on_c, 2, 71, 0
3, 102816, Note_on_c, 2, 69, 45
3, 102864, Note_on_c, 2, 69, 0
3, 103008, Note_on_c, 2, 74, 63
3, 103264, Note_on_c, 2, 74, 0
3, 103296, Note_on_c, 2, 72, 45
3, 103390, Note_on_c, 2, 72, 0
3, 103392, Note_on_c, 2, 71, 45
3, 103424, Note_on_c, 2, 71, 0
3, 103488, Note_on_c, 2, 69, 45
3, 103520, Note_on_c, 2, 69, 0
3, 103584, Note_on_c, 2, 67, 45
3, 103616, Note_on_c, 2, 67, 0
3, 103680, Note_on_c, 2, 69, 45
3, 103712, Note_on_c, 2, 69, 0
3, 103776, Note_on_c, 2, 62, 45
3, 103808, Note_on_c, 2, 62, 0
3, 103824, Note_on_c, 2, 62, 45
3, 103856, Note_on_c, 2, 62, 0
3, 103872, Note_on_c, 2, 64, 45
3, 103904, Note_on_c, 2, 64, 0
3, 103920, Note_on_c, 2, 66, 45
3, 103952, Note_on_c, 2, 66, 0
3, 103968, Note_on_c, 2, 67, 45
3, 104000, Note_on_c, 2, 67, 0
3, 104016, Note_on_c, 2, 68, 45
3, 104048, Note_on_c, 2, 68, 0
3, 104064, Note_on_c, 2, 69, 45
3, 104096, Note_on_c, 2, 69, 0
3, 104112, Note_on_c, 2, 71, 45
3, 104144, Note_on_c, 2, 71, 0
3, 104160, Note_on_c, 2, 72, 45
3, 104208, Note_on_c, 2, 72, 0
3, 104352, Note_on_c, 2, 71, 45
3, 104400, Note_on_c, 2, 71, 0
3, 104544, Note_on_c, 2, 76, 63
3, 104800, Note_on_c, 2, 76, 0
3, 104832, Note_on_c, 2, 79, 45
3, 104848, Note_on_c, 2, 79, 0
3, 104848, Note_on_c, 2, 78, 45
3, 104864, Note_on_c, 2, 78, 0
3, 104864, Note_on_c, 2, 79, 45
3, 104880, Note_on_c, 2, 79, 0
3, 104880, Note_on_c, 2, 78, 45
3, 104896, Note_on_c, 2, 78, 0
3, 104896, Note_on_c, 2, 76, 45
3, 104912, Note_on_c, 2, 76, 0
3, 104912, Note_on_c, 2, 78, 45
3, 104928, Note_on_c, 2, 78, 0
3, 104928, Note_on_c, 2, 79, 45
3, 104960, Note_on_c, 2, 79, 0
3, 105024, Note_on_c, 2, 81, 45
3, 105056, Note_on_c, 2, 81, 0
3, 105120, Note_on_c, 2, 74, 45
3, 105152, Note_on_c, 2, 74, 0
3, 105216, Note_on_c, 2, 78, 45
3, 105248, Note_on_c, 2, 78, 0
3, 105312, Note_on_c, 2, 79, 45
3, 105406, Note_on_c, 2, 79, 0
3, 106128, Note_on_c, 2, 62, 45
3, 106160, Note_on_c, 2, 62, 0
3, 106176, Note_on_c, 2, 64, 45
3, 106208, Note_on_c, 2, 64, 0
3, 106224, Note_on_c, 2, 66, 45
3, 106256, Note_on_c, 2, 66, 0
3, 106272, Note_on_c, 2, 67, 45
3, 106304, Note_on_c, 2, 67, 0
3, 106320, Note_on_c, 2, 69, 45
3, 106352, Note_on_c, 2, 69, 0
3, 106368, Note_on_c, 2, 71, 45
3, 106400, Note_on_c, 2, 71, 0
3, 106416, Note_on_c, 2, 72, 45
3, 106448, Note_on_c, 2, 72, 0
3, 106464, Note_on_c, 2, 74, 45
3, 106510, Note_on_c, 2, 74, 0
3, 106512, Note_on_c, 2, 74, 45
3, 106558, Note_on_c, 2, 74, 0
3, 106560, Note_on_c, 2, 76, 45
3, 106606, Note_on_c, 2, 76, 0
3, 106608, Note_on_c, 2, 78, 45
3, 106654, Note_on_c, 2, 78, 0
3, 106704, Note_on_c, 2, 76, 45
3, 106750, Note_on_c, 2, 76, 0
3, 106752, Note_on_c, 2, 71, 45
3, 106798, Note_on_c, 2, 71, 0
3, 106800, Note_on_c, 2, 73, 45
3, 106846, Note_on_c, 2, 73, 0
3, 107664, Note_on_c, 2, 64, 45
3, 107696, Note_on_c, 2, 64, 0
3, 107712, Note_on_c, 2, 66, 45
3, 107744, Note_on_c, 2, 66, 0
3, 107760, Note_on_c, 2, 68, 45
3, 107792, Note_on_c, 2, 68, 0
3, 107808, Note_on_c, 2, 69, 45
3, 107840, Note_on_c, 2, 69, 0
3, 107856, Note_on_c, 2, 71, 45
3, 107888, Note_on_c, 2, 71, 0
3, 107904, Note_on_c, 2, 72, 45
3, 107936, Note_on_c, 2, 72, 0
3, 107952, Note_on_c, 2, 74, 45
3, 107984, Note_on_c, 2, 74, 0
3, 108000, Note_on_c, 2, 76, 45
3, 108046, Note_on_c, 2, 76, 0
3, 108048, Note_on_c, 2, 76, 45
3, 108094, Note_on_c, 2, 76, 0
3, 108096, Note_on_c, 2, 76, 45
3, 108142, Note_on_c, 2, 76, 0
3, 108144, Note_on_c, 2, 76, 45
3, 108190, Note_on_c, 2, 76, 0
3, 108192, Note_on_c, 2, 76, 45
3, 108238, Note_on_c, 2, 76, 0
3, 108240, Note_on_c, 2, 76, 45
3, 108286, Note_on_c, 2, 76, 0
3, 108288, Note_on_c, 2, 78, 45
3, 108334, Note_on_c, 2, 78, 0
3, 108336, Note_on_c, 2, 76, 45
3, 108382, Note_on_c, 2, 76, 0
3, 108384, Note_on_c, 2, 75, 45
3, 108478, Note_on_c, 2, 75, 0
3, 108576, Note_on_c, 2, 79, 45
3, 108672, Note_on_c, 2, 79, 0
3, 108672, Note_on_c, 2, 78, 45
3, 108864, Note_on_c, 2, 78, 0
3, 108864, Note_on_c, 2, 76, 45
3, 108910, Note_on_c, 2, 76, 0
3, 108960, Note_on_c, 2, 79, 45
3, 109056, Note_on_c, 2, 79, 0
3, 109056, Note_on_c, 2, 78, 45
3, 109248, Note_on_c, 2, 78, 0
3, 109248, Note_on_c, 2, 76, 45
3, 109294, Note_on_c, 2, 76, 0
3, 109344, Note_on_c, 2, 79, 45
3, 109440, Note_on_c, 2, 79, 0
3, 109440, Note_on_c, 2, 78, 45
3, 109632, Note_on_c, 2, 78, 0
3, 109632, Note_on_c, 2, 76, 45
3, 109726, Note_on_c, 2, 76, 0
3, 109728, Note_on_c, 2, 71, 63
3, 109888, Note_on_c, 2, 71, 0
3, 109920, Note_on_c, 2, 72, 45
3, 110016, Note_on_c, 2, 72, 0
3, 110016, Note_on_c, 2, 76, 45
3, 110088, Note_on_c, 2, 76, 0
3, 110088, Note_on_c, 2, 72, 45
3, 110110, Note_on_c, 2, 72, 0
3, 110112, Note_on_c, 2, 71, 45
3, 110206, Note_on_c, 2, 71, 0
3, 110208, Note_on_c, 2, 72, 45
3, 110302, Note_on_c, 2, 72, 0
3, 110304, Note_on_c, 2, 71, 45
3, 110398, Note_on_c, 2, 71, 0
3, 110472, Note_on_c, 2, 71, 45
3, 110494, Note_on_c, 2, 71, 0
3, 110496, Note_on_c, 2, 83, 45
3, 110592, Note_on_c, 2, 83, 0
3, 110592, Note_on_c, 2, 81, 45
3, 110784, Note_on_c, 2, 81, 0
3, 110784, Note_on_c, 2, 79, 45
3, 110830, Note_on_c, 2, 79, 0
3, 110856, Note_on_c, 2, 71, 45
3, 110878, Note_on_c, 2, 71, 0
3, 110976, Note_on_c, 2, 81, 45
3, 111168, Note_on_c, 2, 81, 0
3, 111168, Note_on_c, 2, 79, 45
3, 111214, Note_on_c, 2, 79, 0
3, 111240, Note_on_c, 2, 71, 45
3, 111262, Note_on_c, 2, 71, 0
3, 111360, Note_on_c, 2, 81, 56
3, 111552, Note_on_c, 2, 81, 0
3, 111552, Note_on_c, 2, 79, 80
3, 111598, Note_on_c, 2, 79, 0
3, 111648, Note_on_c, 2, 80, 127
3, 111840, Note_on_c, 2, 80, 0
3, 111840, Note_on_c, 2, 81, 92
3, 111886, Note_on_c, 2, 81, 0
3, 111888, Note_on_c, 2, 72, 92
3, 111936, Note_on_c, 2, 72, 0
3, 111936, Note_on_c, 2, 74, 92
3, 111984, Note_on_c, 2, 74, 0
3, 111984, Note_on_c, 2, 76, 92
3, 112032, Note_on_c, 2, 76, 0
3, 112032, Note_on_c, 2, 71, 92
3, 112126, Note_on_c, 2, 71, 0
3, 112128, Note_on_c, 2, 72, 92
3, 112222, Note_on_c, 2, 72, 0
3, 112224, Note_on_c, 2, 71, 92
3, 112256, Note_on_c, 2, 71, 0
3, 112272, Note_on_c, 2, 62, 92
3, 112320, Note_on_c, 2, 62, 0
3, 112320, Note_on_c, 2, 67, 92
3, 112368, Note_on_c, 2, 67, 0
3, 112368, Note_on_c, 2, 62, 92
3, 112414, Note_on_c, 2, 62, 0
3, 112464, Note_on_c, 2, 62, 45
3, 112512, Note_on_c, 2, 62, 0
3, 112512, Note_on_c, 2, 66, 45
3, 112560, Note_on_c, 2, 66, 0
3, 112560, Note_on_c, 2, 62, 45
3, 112606, Note_on_c, 2, 62, 0
3, 112656, Note_on_c, 2, 62, 45
3, 112704, Note_on_c, 2, 62, 0
3, 112704, Note_on_c, 2, 67, 45
3, 112752, Note_on_c, 2, 67, 0
3, 112752, Note_on_c, 2, 62, 45
3, 112798, Note_on_c, 2, 62, 0
3, 112848, Note_on_c, 2, 62, 45
3, 112896, Note_on_c, 2, 62, 0
3, 112896, Note_on_c, 2, 69, 45
3, 112944, Note_on_c, 2, 69, 0
3, 112944, Note_on_c, 2, 62, 45
3, 112990, Note_on_c, 2, 62, 0
3, 113040, Note_on_c, 2, 62, 45
3, 113088, Note_on_c, 2, 62, 0
3, 113088, Note_on_c, 2, 71, 45
3, 113136, Note_on_c, 2, 71, 0
3, 113136, Note_on_c, 2, 62, 45
3, 113182, Note_on_c, 2, 62, 0
3, 113184, Note_on_c, 2, 57, 45
3, 113205, Note_on_c, 2, 57, 0
3, 113216, Note_on_c, 2, 59, 45
3, 113237, Note_on_c, 2, 59, 0
3, 113248, Note_on_c, 2, 60, 45
3, 113269, Note_on_c, 2, 60, 0
3, 113280, Note_on_c, 2, 62, 45
3, 113301, Note_on_c, 2, 62, 0
3, 113312, Note_on_c, 2, 64, 45
3, 113333, Note_on_c, 2, 64, 0
3, 113344, Note_on_c, 2, 66, 45
3, 113365, Note_on_c, 2, 66, 0
3, 113376, Note_on_c, 2, 67, 45
3, 113408, Note_on_c, 2, 67, 0
3, 113424, Note_on_c, 2, 67, 45
3, 113472, Note_on_c, 2, 67, 0
3, 113472, Note_on_c, 2, 62, 45
3, 113520, Note_on_c, 2, 62, 0
3, 113520, Note_on_c, 2, 71, 45
3, 113566, Note_on_c, 2, 71, 0
3, 113568, Note_on_c, 2, 69, 45
3, 113600, Note_on_c, 2, 69, 0
3, 113616, Note_on_c, 2, 69, 45
3, 113664, Note_on_c, 2, 69, 0
3, 113664, Note_on_c, 2, 62, 45
3, 113712, Note_on_c, 2, 62, 0
3, 113712, Note_on_c, 2, 72, 45
3, 113758, Note_on_c, 2, 72, 0
3, 113760, Note_on_c, 2, 71, 45
3, 113792, Note_on_c, 2, 71, 0
3, 113808, Note_on_c, 2, 71, 45
3, 113856, Note_on_c, 2, 71, 0
3, 113856, Note_on_c, 2, 62, 45
3, 113904, Note_on_c, 2, 62, 0
3, 113904, Note_on_c, 2, 74, 45
3, 113950, Note_on_c, 2, 74, 0
3, 113952, Note_on_c, 2, 69, 60
3, 113984, Note_on_c, 2, 69, 0
3, 114000, Note_on_c, 2, 74, 45
3, 114032, Note_on_c, 2, 74, 0
3, 114048, Note_on_c, 2, 69, 45
3, 114080, Note_on_c, 2, 69, 0
3, 114096, Note_on_c, 2, 74, 45
3, 114128, Note_on_c, 2, 74, 0
3, 114144, Note_on_c, 2, 71, 45
3, 114190, Note_on_c, 2, 71, 0
3, 114192, Note_on_c, 2, 74, 45
3, 114238, Note_on_c, 2, 74, 0
3, 114240, Note_on_c, 2, 71, 45
3, 114286, Note_on_c, 2, 71, 0
3, 114288, Note_on_c, 2, 74, 45
3, 114334, Note_on_c, 2, 74, 0
3, 114336, Note_on_c, 2, 72, 45
3, 114382, Note_on_c, 2, 72, 0
3, 114384, Note_on_c, 2, 74, 45
3, 114430, Note_on_c, 2, 74, 0
3, 114432, Note_on_c, 2, 72, 45
3, 114478, Note_on_c, 2, 72, 0
3, 114480, Note_on_c, 2, 74, 45
3, 114526, Note_on_c, 2, 74, 0
3, 114528, Note_on_c, 2, 71, 45
3, 114574, Note_on_c, 2, 71, 0
3, 114576, Note_on_c, 2, 74, 45
3, 114622, Note_on_c, 2, 74, 0
3, 114624, Note_on_c, 2, 71, 45
3, 114670, Note_on_c, 2, 71, 0
3, 114672, Note_on_c, 2, 74, 45
3, 114718, Note_on_c, 2, 74, 0
3, 114720, Note_on_c, 2, 69, 45
3, 114766, Note_on_c, 2, 69, 0
3, 114768, Note_on_c, 2, 74, 45
3, 114814, Note_on_c, 2, 74, 0
3, 114816, Note_on_c, 2, 69, 45
3, 114862, Note_on_c, 2, 69, 0
3, 114864, Note_on_c, 2, 74, 45
3, 114910, Note_on_c, 2, 74, 0
3, 114912, Note_on_c, 2, 71, 45
3, 115006, Note_on_c, 2, 71, 0
3, 115008, Note_on_c, 2, 71, 45
3, 115040, Note_on_c, 2, 71, 0
3, 115104, Note_on_c, 2, 72, 45
3, 115136, Note_on_c, 2, 72, 0
3, 115200, Note_on_c, 2, 68, 45
3, 115232, Note_on_c, 2, 68, 0
3, 115296, Note_on_c, 2, 69, 45
3, 115328, Note_on_c, 2, 69, 0
3, 115392, Note_on_c, 2, 65, 45
3, 115424, Note_on_c, 2, 65, 0
3, 115488, Note_on_c, 2, 66, 45
3, 115520, Note_on_c, 2, 66, 0
3, 115584, Note_on_c, 2, 64, 45
3, 115616, Note_on_c, 2, 64, 0
3, 115680, Note_on_c, 2, 62, 45
3, 115712, Note_on_c, 2, 62, 0
3, 115776, Note_on_c, 2, 60, 45
3, 115808, Note_on_c, 2, 60, 0
3, 115872, Note_on_c, 2, 59, 45
3, 115904, Note_on_c, 2, 59, 0
3, 115968, Note_on_c, 2, 57, 60
3, 116000, Note_on_c, 2, 57, 0
3, 116064, Note_on_c, 2, 55, 45
3, 116158, Note_on_c, 2, 55, 0
3, 116160, Note_on_c, 2, 67, 47
3, 116320, Note_on_c, 2, 67, 0
3, 116352, Note_on_c, 2, 67, 52
3, 116542, Note_on_c, 2, 67, 0
3, 116544, Note_on_c, 2, 74, 56
3, 116704, Note_on_c, 2, 74, 0
3, 116736, Note_on_c, 2, 74, 62
3, 116926, Note_on_c, 2, 74, 0
3, 116928, Note_on_c, 2, 71, 68
3, 117088, Note_on_c, 2, 71, 0
3, 117120, Note_on_c, 2, 71, 74
3, 117310, Note_on_c, 2, 71, 0
3, 117312, Note_on_c, 2, 71, 80
3, 117472, Note_on_c, 2, 71, 0
3, 117504, Note_on_c, 2, 71, 86
3, 117694, Note_on_c, 2, 71, 0
3, 117696, Note_on_c, 2, 79, 127
3, 117792, Note_on_c, 2, 79, 0
3, 117792, Note_on_c, 2, 78, 92
3, 117888, Note_on_c, 2, 78, 0
3, 117888, Note_on_c, 2, 76, 92
3, 117984, Note_on_c, 2, 76, 0
3, 117984, Note_on_c, 2, 74, 92
3, 118016, Note_on_c, 2, 74, 0
3, 118080, Note_on_c, 2, 67, 127
3, 118176, Note_on_c, 2, 67, 0
3, 118176, Note_on_c, 2, 66, 92
3, 118272, Note_on_c, 2, 66, 0
3, 118272, Note_on_c, 2, 64, 92
3, 118368, Note_on_c, 2, 64, 0
3, 118368, Note_on_c, 2, 62, 92
3, 118400, Note_on_c, 2, 62, 0
3, 118848, Note_on_c, 2, 79, 45
3, 119008, Note_on_c, 2, 79, 0
3, 119040, Note_on_c, 2, 78, 45
3, 119134, Note_on_c, 2, 78, 0
3, 119136, Note_on_c, 2, 79, 45
3, 119168, Note_on_c, 2, 79, 0
3, 119232, Note_on_c, 2, 83, 45
3, 119264, Note_on_c, 2, 83, 0
3, 119616, Note_on_c, 2, 71, 45
3, 119648, Note_on_c, 2, 71, 0
3, 119712, Note_on_c, 2, 76, 45
3, 119744, Note_on_c, 2, 76, 0
3, 119808, Note_on_c, 2, 72, 60
3, 119840, Note_on_c, 2, 72, 0
3, 119904, Note_on_c, 2, 71, 45
3, 120064, Note_on_c, 2, 71, 0
3, 121056, Note_on_c, 2, 77, 45
3, 121248, Note_on_c, 2, 77, 0
3, 121248, Note_on_c, 2, 76, 68
3, 121296, Note_on_c, 2, 76, 0
3, 121296, Note_on_c, 2, 74, 74
3, 121344, Note_on_c, 2, 74, 0
3, 121344, Note_on_c, 2, 72, 80
3, 121392, Note_on_c, 2, 72, 0
3, 121392, Note_on_c, 2, 76, 86
3, 121438, Note_on_c, 2, 76, 0
3, 121440, Note_on_c, 2, 71, 45
3, 122160, Note_on_c, 2, 71, 0
3, 122208, Note_on_c, 2, 69, 45
3, 122400, Note_on_c, 2, 69, 0
3, 122400, Note_on_c, 2, 67, 45
3, 122448, Note_on_c, 2, 67, 0
3, 122448, Note_on_c, 2, 66, 45
3, 122496, Note_on_c, 2, 66, 0
3, 122496, Note_on_c, 2, 64, 45
3, 122544, Note_on_c, 2, 64, 0
3, 122544, Note_on_c, 2, 67, 45
3, 122590, Note_on_c, 2, 67, 0
3, 122592, Note_on_c, 2, 63, 45
3, 123312, Note_on_c, 2, 63, 0
3, 123360, Note_on_c, 2, 72, 45
3, 123552, Note_on_c, 2, 72, 0
3, 123552, Note_on_c, 2, 71, 45
3, 123600, Note_on_c, 2, 71, 0
3, 123600, Note_on_c, 2, 69, 45
3, 123648, Note_on_c, 2, 69, 0
3, 123648, Note_on_c, 2, 67, 45
3, 123696, Note_on_c, 2, 67, 0
3, 123696, Note_on_c, 2, 71, 45
3, 123742, Note_on_c, 2, 71, 0
3, 123744, Note_on_c, 2, 66, 45
3, 124464, Note_on_c, 2, 66, 0
3, 124512, Note_on_c, 2, 67, 30
3, 124606, Note_on_c, 2, 67, 0
3, 126144, Note_on_c, 2, 79, 30
3, 126304, Note_on_c, 2, 79, 0
3, 126336, Note_on_c, 2, 78, 30
3, 126368, Note_on_c, 2, 78, 0
3, 126432, Note_on_c, 2, 79, 30
3, 126464, Note_on_c, 2, 79, 0
3, 126528, Note_on_c, 2, 83, 30
3, 126560, Note_on_c, 2, 83, 0
3, 127104, Note_on_c, 2, 62, 30
3, 127104, Note_on_c, 2, 72, 30
3, 127198, Note_on_c, 2, 62, 0
3, 127198, Note_on_c, 2, 72, 0
3, 127200, Note_on_c, 2, 62, 30
3, 127200, Note_on_c, 2, 79, 30
3, 127294, Note_on_c, 2, 62, 0
3, 127294, Note_on_c, 2, 79, 0
3, 127294, End_track
4, 0, Start_track
4, 0, MIDI_port, 0
4, 0, Title_t, "Viola."
4, 0, Program_c, 3, 0
4, 0, Control_c, 3, 7, 127
4, 0, Control_c, 3, 10, 64
4, 0, Note_on_c, 3, 59, 45
4, 544, Note_on_c, 3, 59, 0
4, 936, Note_on_c, 3, 60, 60
4, 958, Note_on_c, 3, 60, 0
4, 960, Note_on_c, 3, 57, 60
4, 1054, Note_on_c, 3, 57, 0
4, 1128, Note_on_c, 3, 54, 60
4, 1150, Note_on_c, 3, 54, 0
4, 1152, Note_on_c, 3, 50, 60
4, 1312, Note_on_c, 3, 50, 0
4, 1632, Note_on_c, 3, 64, 45
4, 1664, Note_on_c, 3, 64, 0
4, 1728, Note_on_c, 3, 60, 45
4, 1760, Note_on_c, 3, 60, 0
4, 1824, Note_on_c, 3, 62, 45
4, 1856, Note_on_c, 3, 62, 0
4, 1920, Note_on_c, 3, 59, 45
4, 1952, Note_on_c, 3, 59, 0
4, 2016, Note_on_c, 3, 55, 45
4, 2048, Note_on_c, 3, 55, 0
4, 2400, Note_on_c, 3, 55, 45
4, 2560, Note_on_c, 3, 55, 0
4, 2592, Note_on_c, 3, 54, 45
4, 2624, Note_on_c, 3, 54, 0
4, 2688, Note_on_c, 3, 55, 45
4, 2782, Note_on_c, 3, 55, 0
4, 3456, Note_on_c, 3, 66, 92
4, 3550, Note_on_c, 3, 66, 0
4, 3816, Note_on_c, 3, 60, 45
4, 3838, Note_on_c, 3, 60, 0
4, 4032, Note_on_c, 3, 59, 45
4, 4126, Note_on_c, 3, 59, 0
4, 4200, Note_on_c, 3, 59, 45
4, 4222, Note_on_c, 3, 59, 0
4, 4224, Note_on_c, 3, 57, 45
4, 4318, Note_on_c, 3, 57, 0
4, 4608, Note_on_c, 3, 50, 92
4, 5152, Note_on_c, 3, 50, 0
4, 5352, Note_on_c, 3, 50, 45
4, 5374, Note_on_c, 3, 50, 0
4, 5376, Note_on_c, 3, 50, 45
4, 5470, Note_on_c, 3, 50, 0
4, 5544, Note_on_c, 3, 50, 45
4, 5566, Note_on_c, 3, 50, 0
4, 5568, Note_on_c, 3, 55, 45
4, 5662, Note_on_c, 3, 55, 0
4, 5736, Note_on_c, 3, 55, 45
4, 5758, Note_on_c, 3, 55, 0
4, 5760, Note_on_c, 3, 54, 45
4, 5854, Note_on_c, 3, 54, 0
4, 6528, Note_on_c, 3, 66, 92
4, 6784, Note_on_c, 3, 66, 0
4, 6816, Note_on_c, 3, 62, 92
4, 6910, Note_on_c, 3, 62, 0
4, 6912, Note_on_c, 3, 67, 45
4, 7006, Note_on_c, 3, 67, 0
4, 7080, Note_on_c, 3, 59, 45
4, 7102, Note_on_c, 3, 59, 0
4, 7104, Note_on_c, 3, 64, 45
4, 7198, Note_on_c, 3, 64, 0
4, 7272, Note_on_c, 3, 60, 45
4, 7294, Note_on_c, 3, 60, 0
4, 7296, Note_on_c, 3, 59, 45
4, 7390, Note_on_c, 3, 59, 0
4, 7680, Note_on_c, 3, 50, 108
4, 7728, Note_on_c, 3, 50, 0
4, 7872, Note_on_c, 3, 50, 108
4, 7920, Note_on_c, 3, 50, 0
4, 8064, Note_on_c, 3, 55, 127
4, 8320, Note_on_c, 3, 55, 0
4, 8352, Note_on_c, 3, 55, 45
4, 8446, Note_on_c, 3, 55, 0
4, 8448, Note_on_c, 3, 57, 45
4, 8480, Note_on_c, 3, 57, 0
4, 8544, Note_on_c, 3, 57, 45
4, 8576, Note_on_c, 3, 57, 0
4, 8640, Note_on_c, 3, 55, 45
4, 8672, Note_on_c, 3, 55, 0
4, 8736, Note_on_c, 3, 55, 45
4, 8768, Note_on_c, 3, 55, 0
4, 8832, Note_on_c, 3, 54, 45
4, 8926, Note_on_c, 3, 54, 0
4, 9888, Note_on_c, 3, 64, 45
4, 9920, Note_on_c, 3, 64, 0
4, 9984, Note_on_c, 3, 66, 45
4, 10016, Note_on_c, 3, 66, 0
4, 10080, Note_on_c, 3, 66, 45
4, 10112, Note_on_c, 3, 66, 0
4, 10176, Note_on_c, 3, 64, 45
4, 10208, Note_on_c, 3, 64, 0
4, 10272, Note_on_c, 3, 64, 45
4, 10304, Note_on_c, 3, 64, 0
4, 10368, Note_on_c, 3, 63, 45
4, 10462, Note_on_c, 3, 63, 0
4, 10656, Note_on_c, 3, 64, 45
4, 10750, Note_on_c, 3, 64, 0
4, 10752, Note_on_c, 3, 64, 45
4, 10784, Note_on_c, 3, 64, 0
4, 10848, Note_on_c, 3, 64, 45
4, 10880, Note_on_c, 3, 64, 0
4, 10944, Note_on_c, 3, 62, 45
4, 10976, Note_on_c, 3, 62, 0
4, 11040, Note_on_c, 3, 62, 45
4, 11072, Note_on_c, 3, 62, 0
4, 11136, Note_on_c, 3, 61, 45
4, 11230, Note_on_c, 3, 61, 0
4, 11424, Note_on_c, 3, 62, 45
4, 11518, Note_on_c, 3, 62, 0
4, 11520, Note_on_c, 3, 64, 45
4, 11552, Note_on_c, 3, 64, 0
4, 11616, Note_on_c, 3, 64, 45
4, 11648, Note_on_c, 3, 64, 0
4, 11712, Note_on_c, 3, 62, 45
4, 11744, Note_on_c, 3, 62, 0
4, 11808, Note_on_c, 3, 62, 45
4, 11840, Note_on_c, 3, 62, 0
4, 11904, Note_on_c, 3, 61, 45
4, 11936, Note_on_c, 3, 61, 0
4, 11952, Note_on_c, 3, 61, 47
4, 12000, Note_on_c, 3, 61, 0
4, 12000, Note_on_c, 3, 57, 50
4, 12048, Note_on_c, 3, 57, 0
4, 12048, Note_on_c, 3, 61, 53
4, 12094, Note_on_c, 3, 61, 0
4, 12096, Note_on_c, 3, 62, 56
4, 12128, Note_on_c, 3, 62, 0
4, 12144, Note_on_c, 3, 62, 59
4, 12192, Note_on_c, 3, 62, 0
4, 12192, Note_on_c, 3, 57, 62
4, 12240, Note_on_c, 3, 57, 0
4, 12240, Note_on_c, 3, 62, 65
4, 12286, Note_on_c, 3, 62, 0
4, 12288, Note_on_c, 3, 61, 68
4, 12320, Note_on_c, 3, 61, 0
4, 12336, Note_on_c, 3, 61, 71
4, 12384, Note_on_c, 3, 61, 0
4, 12384, Note_on_c, 3, 64, 74
4, 12432, Note_on_c, 3, 64, 0
4, 12432, Note_on_c, 3, 61, 77
4, 12478, Note_on_c, 3, 61, 0
4, 12480, Note_on_c, 3, 62, 80
4, 12512, Note_on_c, 3, 62, 0
4, 12528, Note_on_c, 3, 62, 83
4, 12576, Note_on_c, 3, 62, 0
4, 12576, Note_on_c, 3, 65, 86
4, 12624, Note_on_c, 3, 65, 0
4, 12624, Note_on_c, 3, 62, 89
4, 12670, Note_on_c, 3, 62, 0
4, 12672, Note_on_c, 3, 61, 92
4, 12832, Note_on_c, 3, 61, 0
4, 13440, Note_on_c, 3, 69, 45
4, 13488, Note_on_c, 3, 69, 0
4, 13632, Note_on_c, 3, 69, 45
4, 13680, Note_on_c, 3, 69, 0
4, 13824, Note_on_c, 3, 69, 63
4, 14080, Note_on_c, 3, 69, 0
4, 14112, Note_on_c, 3, 64, 45
4, 14144, Note_on_c, 3, 64, 0
4, 14208, Note_on_c, 3, 66, 45
4, 14240, Note_on_c, 3, 66, 0
4, 14304, Note_on_c, 3, 61, 45
4, 14336, Note_on_c, 3, 61, 0
4, 14400, Note_on_c, 3, 62, 45
4, 14432, Note_on_c, 3, 62, 0
4, 14496, Note_on_c, 3, 62, 45
4, 14528, Note_on_c, 3, 62, 0
4, 14592, Note_on_c, 3, 61, 45
4, 14686, Note_on_c, 3, 61, 0
4, 14976, Note_on_c, 3, 71, 45
4, 15024, Note_on_c, 3, 71, 0
4, 15168, Note_on_c, 3, 71, 45
4, 15216, Note_on_c, 3, 71, 0
4, 15360, Note_on_c, 3, 71, 63
4, 15616, Note_on_c, 3, 71, 0
4, 15648, Note_on_c, 3, 69, 45
4, 15776, Note_on_c, 3, 69, 0
4, 15840, Note_on_c, 3, 71, 45
4, 15872, Note_on_c, 3, 71, 0
4, 15936, Note_on_c, 3, 74, 45
4, 15968, Note_on_c, 3, 74, 0
4, 16032, Note_on_c, 3, 76, 45
4, 16064, Note_on_c, 3, 76, 0
4, 16128, Note_on_c, 3, 74, 45
4, 16288, Note_on_c, 3, 74, 0
4, 16512, Note_on_c, 3, 57, 45
4, 16560, Note_on_c, 3, 57, 0
4, 16704, Note_on_c, 3, 57, 45
4, 16752, Note_on_c, 3, 57, 0
4, 16896, Note_on_c, 3, 57, 63
4, 17152, Note_on_c, 3, 57, 0
4, 17184, Note_on_c, 3, 57, 45
4, 17216, Note_on_c, 3, 57, 0
4, 17280, Note_on_c, 3, 57, 45
4, 17312, Note_on_c, 3, 57, 0
4, 17376, Note_on_c, 3, 57, 45
4, 17408, Note_on_c, 3, 57, 0
4, 17472, Note_on_c, 3, 57, 45
4, 17504, Note_on_c, 3, 57, 0
4, 17568, Note_on_c, 3, 52, 45
4, 17600, Note_on_c, 3, 52, 0
4, 17664, Note_on_c, 3, 57, 45
4, 17758, Note_on_c, 3, 57, 0
4, 18048, Note_on_c, 3, 59, 45
4, 18096, Note_on_c, 3, 59, 0
4, 18240, Note_on_c, 3, 59, 45
4, 18288, Note_on_c, 3, 59, 0
4, 18432, Note_on_c, 3, 59, 63
4, 18688, Note_on_c, 3, 59, 0
4, 18720, Note_on_c, 3, 59, 45
4, 18814, Note_on_c, 3, 59, 0
4, 18816, Note_on_c, 3, 59, 92
4, 18848, Note_on_c, 3, 59, 0
4, 18912, Note_on_c, 3, 59, 81
4, 18944, Note_on_c, 3, 59, 0
4, 19008, Note_on_c, 3, 62, 69
4, 19040, Note_on_c, 3, 62, 0
4, 19104, Note_on_c, 3, 59, 57
4, 19136, Note_on_c, 3, 59, 0
4, 19200, Note_on_c, 3, 61, 45
4, 19294, Note_on_c, 3, 61, 0
4, 19488, Note_on_c, 3, 54, 45
4, 19584, Note_on_c, 3, 54, 0
4, 19584, Note_on_c, 3, 66, 45
4, 19840, Note_on_c, 3, 66, 0
4, 19872, Note_on_c, 3, 54, 45
4, 19968, Note_on_c, 3, 54, 0
4, 19968, Note_on_c, 3, 66, 45
4, 20224, Note_on_c, 3, 66, 0
4, 20256, Note_on_c, 3, 54, 45
4, 20352, Note_on_c, 3, 54, 0
4, 20352, Note_on_c, 3, 66, 47
4, 20512, Note_on_c, 3, 66, 0
4, 20544, Note_on_c, 3, 66, 71
4, 20704, Note_on_c, 3, 66, 0
4, 20736, Note_on_c, 3, 67, 55
4, 20832, Note_on_c, 3, 67, 0
4, 20832, Note_on_c, 3, 55, 57
4, 20904, Note_on_c, 3, 55, 0
4, 20904, Note_on_c, 3, 59, 58
4, 20926, Note_on_c, 3, 59, 0
4, 20928, Note_on_c, 3, 57, 58
4, 21022, Note_on_c, 3, 57, 0
4, 21024, Note_on_c, 3, 57, 60
4, 21118, Note_on_c, 3, 57, 0
4, 21120, Note_on_c, 3, 57, 62
4, 21214, Note_on_c, 3, 57, 0
4, 21312, Note_on_c, 3, 62, 66
4, 21408, Note_on_c, 3, 62, 0
4, 21408, Note_on_c, 3, 61, 68
4, 21600, Note_on_c, 3, 61, 0
4, 21600, Note_on_c, 3, 59, 72
4, 21646, Note_on_c, 3, 59, 0
4, 21696, Note_on_c, 3, 62, 74
4, 21792, Note_on_c, 3, 62, 0
4, 21792, Note_on_c, 3, 61, 76
4, 21984, Note_on_c, 3, 61, 0
4, 21984, Note_on_c, 3, 59, 80
4, 22030, Note_on_c, 3, 59, 0
4, 22080, Note_on_c, 3, 62, 82
4, 22176, Note_on_c, 3, 62, 0
4, 22176, Note_on_c, 3, 61, 84
4, 22368, Note_on_c, 3, 61, 0
4, 22368, Note_on_c, 3, 59, 89
4, 22414, Note_on_c, 3, 59, 0
4, 22464, Note_on_c, 3, 54, 127
4, 22656, Note_on_c, 3, 54, 0
4, 22656, Note_on_c, 3, 55, 92
4, 22702, Note_on_c, 3, 55, 0
4, 22704, Note_on_c, 3, 55, 92
4, 22752, Note_on_c, 3, 55, 0
4, 22752, Note_on_c, 3, 57, 92
4, 22800, Note_on_c, 3, 57, 0
4, 22800, Note_on_c, 3, 59, 92
4, 22846, Note_on_c, 3, 59, 0
4, 22848, Note_on_c, 3, 57, 92
4, 22942, Note_on_c, 3, 57, 0
4, 22944, Note_on_c, 3, 57, 92
4, 23038, Note_on_c, 3, 57, 0
4, 23040, Note_on_c, 3, 50, 92
4, 23072, Note_on_c, 3, 50, 0
4, 23088, Note_on_c, 3, 59, 92
4, 23136, Note_on_c, 3, 59, 0
4, 23136, Note_on_c, 3, 64, 92
4, 23184, Note_on_c, 3, 64, 0
4, 23184, Note_on_c, 3, 59, 92
4, 23230, Note_on_c, 3, 59, 0
4, 23280, Note_on_c, 3, 57, 45
4, 23328, Note_on_c, 3, 57, 0
4, 23328, Note_on_c, 3, 61, 45
4, 23376, Note_on_c, 3, 61, 0
4, 23376, Note_on_c, 3, 57, 45
4, 23422, Note_on_c, 3, 57, 0
4, 23472, Note_on_c, 3, 57, 45
4, 23520, Note_on_c, 3, 57, 0
4, 23520, Note_on_c, 3, 62, 45
4, 23568, Note_on_c, 3, 62, 0
4, 23568, Note_on_c, 3, 57, 45
4, 23614, Note_on_c, 3, 57, 0
4, 23664, Note_on_c, 3, 57, 45
4, 23712, Note_on_c, 3, 57, 0
4, 23712, Note_on_c, 3, 64, 45
4, 23760, Note_on_c, 3, 64, 0
4, 23760, Note_on_c, 3, 57, 45
4, 23806, Note_on_c, 3, 57, 0
4, 23856, Note_on_c, 3, 57, 45
4, 23904, Note_on_c, 3, 57, 0
4, 23904, Note_on_c, 3, 66, 45
4, 23952, Note_on_c, 3, 66, 0
4, 23952, Note_on_c, 3, 57, 45
4, 23998, Note_on_c, 3, 57, 0
4, 24000, Note_on_c, 3, 61, 45
4, 24032, Note_on_c, 3, 61, 0
4, 24048, Note_on_c, 3, 57, 45
4, 24080, Note_on_c, 3, 57, 0
4, 24096, Note_on_c, 3, 61, 45
4, 24128, Note_on_c, 3, 61, 0
4, 24144, Note_on_c, 3, 57, 45
4, 24176, Note_on_c, 3, 57, 0
4, 24192, Note_on_c, 3, 62, 45
4, 24224, Note_on_c, 3, 62, 0
4, 24240, Note_on_c, 3, 57, 45
4, 24272, Note_on_c, 3, 57, 0
4, 24288, Note_on_c, 3, 62, 45
4, 24320, Note_on_c, 3, 62, 0
4, 24336, Note_on_c, 3, 57, 45
4, 24368, Note_on_c, 3, 57, 0
4, 24384, Note_on_c, 3, 61, 45
4, 24416, Note_on_c, 3, 61, 0
4, 24432, Note_on_c, 3, 57, 45
4, 24464, Note_on_c, 3, 57, 0
4, 24480, Note_on_c, 3, 64, 45
4, 24512, Note_on_c, 3, 64, 0
4, 24528, Note_on_c, 3, 57, 45
4, 24560, Note_on_c, 3, 57, 0
4, 24576, Note_on_c, 3, 62, 45
4, 24608, Note_on_c, 3, 62, 0
4, 24624, Note_on_c, 3, 57, 45
4, 24656, Note_on_c, 3, 57, 0
4, 24672, Note_on_c, 3, 62, 45
4, 24704, Note_on_c, 3, 62, 0
4, 24720, Note_on_c, 3, 57, 45
4, 24752, Note_on_c, 3, 57, 0
4, 24816, Note_on_c, 3, 57, 45
4, 24864, Note_on_c, 3, 57, 0
4, 24864, Note_on_c, 3, 61, 45
4, 24912, Note_on_c, 3, 61, 0
4, 24912, Note_on_c, 3, 57, 45
4, 24958, Note_on_c, 3, 57, 0
4, 25008, Note_on_c, 3, 57, 45
4, 25056, Note_on_c, 3, 57, 0
4, 25056, Note_on_c, 3, 62, 45
4, 25104, Note_on_c, 3, 62, 0
4, 25104, Note_on_c, 3, 57, 45
4, 25150, Note_on_c, 3, 57, 0
4, 25200, Note_on_c, 3, 57, 45
4, 25248, Note_on_c, 3, 57, 0
4, 25248, Note_on_c, 3, 64, 45
4, 25296, Note_on_c, 3, 64, 0
4, 25296, Note_on_c, 3, 57, 45
4, 25342, Note_on_c, 3, 57, 0
4, 25392, Note_on_c, 3, 57, 45
4, 25440, Note_on_c, 3, 57, 0
4, 25440, Note_on_c, 3, 66, 45
4, 25488, Note_on_c, 3, 66, 0
4, 25488, Note_on_c, 3, 57, 45
4, 25534, Note_on_c, 3, 57, 0
4, 25536, Note_on_c, 3, 61, 45
4, 25568, Note_on_c, 3, 61, 0
4, 25584, Note_on_c, 3, 57, 45
4, 25616, Note_on_c, 3, 57, 0
4, 25632, Note_on_c, 3, 61, 45
4, 25664, Note_on_c, 3, 61, 0
4, 25680, Note_on_c, 3, 57, 45
4, 25712, Note_on_c, 3, 57, 0
4, 25728, Note_on_c, 3, 69, 45
4, 25822, Note_on_c, 3, 69, 0
4, 26592, Note_on_c, 3, 49, 45
4, 26624, Note_on_c, 3, 49, 0
4, 26688, Note_on_c, 3, 50, 45
4, 26720, Note_on_c, 3, 50, 0
4, 26784, Note_on_c, 3, 52, 45
4, 26816, Note_on_c, 3, 52, 0
4, 26880, Note_on_c, 3, 54, 45
4, 26974, Note_on_c, 3, 54, 0
4, 26976, Note_on_c, 3, 50, 47
4, 27136, Note_on_c, 3, 50, 0
4, 27168, Note_on_c, 3, 60, 52
4, 27264, Note_on_c, 3, 60, 0
4, 27264, Note_on_c, 3, 59, 54
4, 27358, Note_on_c, 3, 59, 0
4, 27360, Note_on_c, 3, 55, 56
4, 27392, Note_on_c, 3, 55, 0
4, 27456, Note_on_c, 3, 57, 59
4, 27488, Note_on_c, 3, 57, 0
4, 27552, Note_on_c, 3, 67, 62
4, 27648, Note_on_c, 3, 67, 0
4, 27648, Note_on_c, 3, 66, 65
4, 27742, Note_on_c, 3, 66, 0
4, 27744, Note_on_c, 3, 62, 68
4, 27904, Note_on_c, 3, 62, 0
4, 27936, Note_on_c, 3, 62, 74
4, 28126, Note_on_c, 3, 62, 0
4, 28128, Note_on_c, 3, 62, 80
4, 28288, Note_on_c, 3, 62, 0
4, 28320, Note_on_c, 3, 62, 86
4, 28510, Note_on_c, 3, 62, 0
4, 28512, Note_on_c, 3, 62, 127
4, 28608, Note_on_c, 3, 62, 0
4, 28608, Note_on_c, 3, 61, 92
4, 28704, Note_on_c, 3, 61, 0
4, 28704, Note_on_c, 3, 59, 92
4, 28800, Note_on_c, 3, 59, 0
4, 28800, Note_on_c, 3, 57, 92
4, 28832, Note_on_c, 3, 57, 0
4, 29664, Note_on_c, 3, 71, 45
4, 29696, Note_on_c, 3, 71, 0
4, 29760, Note_on_c, 3, 67, 45
4, 29792, Note_on_c, 3, 67, 0
4, 29856, Note_on_c, 3, 69, 45
4, 29888, Note_on_c, 3, 69, 0
4, 29952, Note_on_c, 3, 66, 45
4, 29984, Note_on_c, 3, 66, 0
4, 30048, Note_on_c, 3, 62, 45
4, 30080, Note_on_c, 3, 62, 0
4, 30432, Note_on_c, 3, 50, 45
4, 30592, Note_on_c, 3, 50, 0
4, 30624, Note_on_c, 3, 49, 45
4, 30656, Note_on_c, 3, 49, 0
4, 30720, Note_on_c, 3, 50, 45
4, 30880, Note_on_c, 3, 50, 0
4, 31104, Note_on_c, 3, 59, 45
4, 31648, Note_on_c, 3, 59, 0
4, 32040, Note_on_c, 3, 60, 60
4, 32062, Note_on_c, 3, 60, 0
4, 32064, Note_on_c, 3, 57, 60
4, 32158, Note_on_c, 3, 57, 0
4, 32232, Note_on_c, 3, 54, 60
4, 32254, Note_on_c, 3, 54, 0
4, 32256, Note_on_c, 3, 50, 60
4, 32416, Note_on_c, 3, 50, 0
4, 32736, Note_on_c, 3, 64, 45
4, 32768, Note_on_c, 3, 64, 0
4, 32832, Note_on_c, 3, 60, 45
4, 32864, Note_on_c, 3, 60, 0
4, 32928, Note_on_c, 3, 62, 45
4, 32960, Note_on_c, 3, 62, 0
4, 33024, Note_on_c, 3, 59, 45
4, 33056, Note_on_c, 3, 59, 0
4, 33120, Note_on_c, 3, 55, 45
4, 33152, Note_on_c, 3, 55, 0
4, 33504, Note_on_c, 3, 55, 45
4, 33664, Note_on_c, 3, 55, 0
4, 33696, Note_on_c, 3, 54, 45
4, 33728, Note_on_c, 3, 54, 0
4, 33792, Note_on_c, 3, 55, 45
4, 33886, Note_on_c, 3, 55, 0
4, 34560, Note_on_c, 3, 66, 92
4, 34654, Note_on_c, 3, 66, 0
4, 34920, Note_on_c, 3, 60, 45
4, 34942, Note_on_c, 3, 60, 0
4, 35136, Note_on_c, 3, 59, 45
4, 35230, Note_on_c, 3, 59, 0
4, 35304, Note_on_c, 3, 59, 45
4, 35326, Note_on_c, 3, 59, 0
4, 35328, Note_on_c, 3, 57, 45
4, 35422, Note_on_c, 3, 57, 0
4, 35712, Note_on_c, 3, 50, 92
4, 36256, Note_on_c, 3, 50, 0
4, 36456, Note_on_c, 3, 50, 45
4, 36478, Note_on_c, 3, 50, 0
4, 36480, Note_on_c, 3, 50, 45
4, 36574, Note_on_c, 3, 50, 0
4, 36648, Note_on_c, 3, 50, 45
4, 36670, Note_on_c, 3, 50, 0
4, 36672, Note_on_c, 3, 55, 45
4, 36766, Note_on_c, 3, 55, 0
4, 36840, Note_on_c, 3, 55, 45
4, 36862, Note_on_c, 3, 55, 0
4, 36864, Note_on_c, 3, 54, 45
4, 36958, Note_on_c, 3, 54, 0
4, 37632, Note_on_c, 3, 66, 92
4, 37888, Note_on_c, 3, 66, 0
4, 37920, Note_on_c, 3, 62, 92
4, 38014, Note_on_c, 3, 62, 0
4, 38016, Note_on_c, 3, 67, 45
4, 38110, Note_on_c, 3, 67, 0
4, 38184, Note_on_c, 3, 59, 45
4, 38206, Note_on_c, 3, 59, 0
4, 38208, Note_on_c, 3, 64, 45
4, 38302, Note_on_c, 3, 64, 0
4, 38376, Note_on_c, 3, 60, 45
4, 38398, Note_on_c, 3, 60, 0
4, 38400, Note_on_c, 3, 59, 45
4, 38494, Note_on_c, 3, 59, 0
4, 38784, Note_on_c, 3, 50, 108
4, 38832, Note_on_c, 3, 50, 0
4, 38976, Note_on_c, 3, 50, 108
4, 39024, Note_on_c, 3, 50, 0
4, 39168, Note_on_c, 3, 55, 127
4, 39424, Note_on_c, 3, 55, 0
4, 39456, Note_on_c, 3, 55, 45
4, 39550, Note_on_c, 3, 55, 0
4, 39552, Note_on_c, 3, 57, 45
4, 39584, Note_on_c, 3, 57, 0
4, 39648, Note_on_c, 3, 57, 45
4, 39680, Note_on_c, 3, 57, 0
4, 39744, Note_on_c, 3, 55, 45
4, 39776, Note_on_c, 3, 55, 0
4, 39840, Note_on_c, 3, 55, 45
4, 39872, Note_on_c, 3, 55, 0
4, 39936, Note_on_c, 3, 54, 45
4, 40030, Note_on_c, 3, 54, 0
4, 40992, Note_on_c, 3, 64, 45
4, 41024, Note_on_c, 3, 64, 0
4, 41088, Note_on_c, 3, 66, 45
4, 41120, Note_on_c, 3, 66, 0
4, 41184, Note_on_c, 3, 66, 45
4, 41216, Note_on_c, 3, 66, 0
4, 41280, Note_on_c, 3, 64, 45
4, 41312, Note_on_c, 3, 64, 0
4, 41376, Note_on_c, 3, 64, 45
4, 41408, Note_on_c, 3, 64, 0
4, 41472, Note_on_c, 3, 63, 45
4, 41566, Note_on_c, 3, 63, 0
4, 41760, Note_on_c, 3, 64, 45
4, 41854, Note_on_c, 3, 64, 0
4, 41856, Note_on_c, 3, 64, 45
4, 41888, Note_on_c, 3, 64, 0
4, 41952, Note_on_c, 3, 64, 45
4, 41984, Note_on_c, 3, 64, 0
4, 42048, Note_on_c, 3, 62, 45
4, 42080, Note_on_c, 3, 62, 0
4, 42144, Note_on_c, 3, 62, 45
4, 42176, Note_on_c, 3, 62, 0
4, 42240, Note_on_c, 3, 61, 45
4, 42334, Note_on_c, 3, 61, 0
4, 42528, Note_on_c, 3, 62, 45
4, 42622, Note_on_c, 3, 62, 0
4, 42624, Note_on_c, 3, 64, 45
4, 42656, Note_on_c, 3, 64, 0
4, 42720, Note_on_c, 3, 64, 45
4, 42752, Note_on_c, 3, 64, 0
4, 42816, Note_on_c, 3, 62, 45
4, 42848, Note_on_c, 3, 62, 0
4, 42912, Note_on_c, 3, 62, 45
4, 42944, Note_on_c, 3, 62, 0
4, 43008, Note_on_c, 3, 61, 45
4, 43040, Note_on_c, 3, 61, 0
4, 43056, Note_on_c, 3, 61, 47
4, 43104, Note_on_c, 3, 61, 0
4, 43104, Note_on_c, 3, 57, 50
4, 43152, Note_on_c, 3, 57, 0
4, 43152, Note_on_c, 3, 61, 53
4, 43198, Note_on_c, 3, 61, 0
4, 43200, Note_on_c, 3, 62, 56
4, 43232, Note_on_c, 3, 62, 0
4, 43248, Note_on_c, 3, 62, 59
4, 43296, Note_on_c, 3, 62, 0
4, 43296, Note_on_c, 3, 57, 62
4, 43344, Note_on_c, 3, 57, 0
4, 43344, Note_on_c, 3, 62, 65
4, 43390, Note_on_c, 3, 62, 0
4, 43392, Note_on_c, 3, 61, 68
4, 43424, Note_on_c, 3, 61, 0
4, 43440, Note_on_c, 3, 61, 71
4, 43488, Note_on_c, 3, 61, 0
4, 43488, Note_on_c, 3, 64, 74
4, 43536, Note_on_c, 3, 64, 0
4, 43536, Note_on_c, 3, 61, 77
4, 43582, Note_on_c, 3, 61, 0
4, 43584, Note_on_c, 3, 62, 80
4, 43616, Note_on_c, 3, 62, 0
4, 43632, Note_on_c, 3, 62, 83
4, 43680, Note_on_c, 3, 62, 0
4, 43680, Note_on_c, 3, 65, 86
4, 43728, Note_on_c, 3, 65, 0
4, 43728, Note_on_c, 3, 62, 89
4, 43774, Note_on_c, 3, 62, 0
4, 43776, Note_on_c, 3, 61, 92
4, 43936, Note_on_c, 3, 61, 0
4, 44544, Note_on_c, 3, 69, 45
4, 44592, Note_on_c, 3, 69, 0
4, 44736, Note_on_c, 3, 69, 45
4, 44784, Note_on_c, 3, 69, 0
4, 44928, Note_on_c, 3, 69, 63
4, 45184, Note_on_c, 3, 69, 0
4, 45216, Note_on_c, 3, 64, 45
4, 45248, Note_on_c, 3, 64, 0
4, 45312, Note_on_c, 3, 66, 45
4, 45344, Note_on_c, 3, 66, 0
4, 45408, Note_on_c, 3, 61, 45
4, 45440, Note_on_c, 3, 61, 0
4, 45504, Note_on_c, 3, 62, 45
4, 45536, Note_on_c, 3, 62, 0
4, 45600, Note_on_c, 3, 62, 45
4, 45632, Note_on_c, 3, 62, 0
4, 45696, Note_on_c, 3, 61, 45
4, 45790, Note_on_c, 3, 61, 0
4, 46080, Note_on_c, 3, 71, 45
4, 46128, Note_on_c, 3, 71, 0
4, 46272, Note_on_c, 3, 71, 45
4, 46320, Note_on_c, 3, 71, 0
4, 46464, Note_on_c, 3, 71, 63
4, 46720, Note_on_c, 3, 71, 0
4, 46752, Note_on_c, 3, 69, 45
4, 46880, Note_on_c, 3, 69, 0
4, 46944, Note_on_c, 3, 71, 45
4, 46976, Note_on_c, 3, 71, 0
4, 47040, Note_on_c, 3, 74, 45
4, 47072, Note_on_c, 3, 74, 0
4, 47136, Note_on_c, 3, 76, 45
4, 47168, Note_on_c, 3, 76, 0
4, 47232, Note_on_c, 3, 74, 45
4, 47392, Note_on_c, 3, 74, 0
4, 47616, Note_on_c, 3, 57, 45
4, 47664, Note_on_c, 3, 57, 0
4, 47808, Note_on_c, 3, 57, 45
4, 47856, Note_on_c, 3, 57, 0
4, 48000, Note_on_c, 3, 57, 63
4, 48256, Note_on_c, 3, 57, 0
4, 48288, Note_on_c, 3, 57, 45
4, 48320, Note_on_c, 3, 57, 0
4, 48384, Note_on_c, 3, 57, 45
4, 48416, Note_on_c, 3, 57, 0
4, 48480, Note_on_c, 3, 57, 45
4, 48512, Note_on_c, 3, 57, 0
4, 48576, Note_on_c, 3, 57, 45
4, 48608, Note_on_c, 3, 57, 0
4, 48672, Note_on_c, 3, 52, 45
4, 48704, Note_on_c, 3, 52, 0
4, 48768, Note_on_c, 3, 57, 45
4, 48862, Note_on_c, 3, 57, 0
4, 49152, Note_on_c, 3, 59, 45
4, 49200, Note_on_c, 3, 59, 0
4, 49344, Note_on_c, 3, 59, 45
4, 49392, Note_on_c, 3, 59, 0
4, 49536, Note_on_c, 3, 59, 63
4, 49792, Note_on_c, 3, 59, 0
4, 49824, Note_on_c, 3, 59, 45
4, 49918, Note_on_c, 3, 59, 0
4, 49920, Note_on_c, 3, 59, 92
4, 49952, Note_on_c, 3, 59, 0
4, 50016, Note_on_c, 3, 59, 81
4, 50048, Note_on_c, 3, 59, 0
4, 50112, Note_on_c, 3, 62, 69
4, 50144, Note_on_c, 3, 62, 0
4, 50208, Note_on_c, 3, 59, 57
4, 50240, Note_on_c, 3, 59, 0
4, 50304, Note_on_c, 3, 61, 45
4, 50398, Note_on_c, 3, 61, 0
4, 50592, Note_on_c, 3, 54, 45
4, 50688, Note_on_c, 3, 54, 0
4, 50688, Note_on_c, 3, 66, 45
4, 50944, Note_on_c, 3, 66, 0
4, 50976, Note_on_c, 3, 54, 45
4, 51072, Note_on_c, 3, 54, 0
4, 51072, Note_on_c, 3, 66, 45
4, 51328, Note_on_c, 3, 66, 0
4, 51360, Note_on_c, 3, 54, 45
4, 51456, Note_on_c, 3, 54, 0
4, 51456, Note_on_c, 3, 66, 47
4, 51616, Note_on_c, 3, 66, 0
4, 51648, Note_on_c, 3, 66, 71
4, 51808, Note_on_c, 3, 66, 0
4, 51840, Note_on_c, 3, 67, 55
4, 51936, Note_on_c, 3, 67, 0
4, 51936, Note_on_c, 3, 55, 57
4, 52008, Note_on_c, 3, 55, 0
4, 52008, Note_on_c, 3, 59, 58
4, 52030, Note_on_c, 3, 59, 0
4, 52032, Note_on_c, 3, 57, 58
4, 52126, Note_on_c, 3, 57, 0
4, 52128, Note_on_c, 3, 57, 60
4, 52222, Note_on_c, 3, 57, 0
4, 52224, Note_on_c, 3, 57, 62
4, 52318, Note_on_c, 3, 57, 0
4, 52416, Note_on_c, 3, 62, 66
4, 52512, Note_on_c, 3, 62, 0
4, 52512, Note_on_c, 3, 61, 68
4, 52704, Note_on_c, 3, 61, 0
4, 52704, Note_on_c, 3, 59, 72
4, 52750, Note_on_c, 3, 59, 0
4, 52800, Note_on_c, 3, 62, 74
4, 52896, Note_on_c, 3, 62, 0
4, 52896, Note_on_c, 3, 61, 76
4, 53088, Note_on_c, 3, 61, 0
4, 53088, Note_on_c, 3, 59, 80
4, 53134, Note_on_c, 3, 59, 0
4, 53184, Note_on_c, 3, 62, 82
4, 53280, Note_on_c, 3, 62, 0
4, 53280, Note_on_c, 3, 61, 84
4, 53472, Note_on_c, 3, 61, 0
4, 53472, Note_on_c, 3, 59, 89
4, 53518, Note_on_c, 3, 59, 0
4, 53568, Note_on_c, 3, 54, 127
4, 53760, Note_on_c, 3, 54, 0
4, 53760, Note_on_c, 3, 55, 92
4, 53806, Note_on_c, 3, 55, 0
4, 53808, Note_on_c, 3, 55, 92
4, 53856, Note_on_c, 3, 55, 0
4, 53856, Note_on_c, 3, 57, 92
4, 53904, Note_on_c, 3, 57, 0
4, 53904, Note_on_c, 3, 59, 92
4, 53950, Note_on_c, 3, 59, 0
4, 53952, Note_on_c, 3, 57, 92
4, 54046, Note_on_c, 3, 57, 0
4, 54048, Note_on_c, 3, 57, 92
4, 54142, Note_on_c, 3, 57, 0
4, 54144, Note_on_c, 3, 50, 92
4, 54176, Note_on_c, 3, 50, 0
4, 54192, Note_on_c, 3, 59, 92
4, 54240, Note_on_c, 3, 59, 0
4, 54240, Note_on_c, 3, 64, 92
4, 54288, Note_on_c, 3, 64, 0
4, 54288, Note_on_c, 3, 59, 92
4, 54334, Note_on_c, 3, 59, 0
4, 54384, Note_on_c, 3, 57, 45
4, 54432, Note_on_c, 3, 57, 0
4, 54432, Note_on_c, 3, 61, 45
4, 54480, Note_on_c, 3, 61, 0
4, 54480, Note_on_c, 3, 57, 45
4, 54526, Note_on_c, 3, 57, 0
4, 54576, Note_on_c, 3, 57, 45
4, 54624, Note_on_c, 3, 57, 0
4, 54624, Note_on_c, 3, 62, 45
4, 54672, Note_on_c, 3, 62, 0
4, 54672, Note_on_c, 3, 57, 45
4, 54718, Note_on_c, 3, 57, 0
4, 54768, Note_on_c, 3, 57, 45
4, 54816, Note_on_c, 3, 57, 0
4, 54816, Note_on_c, 3, 64, 45
4, 54864, Note_on_c, 3, 64, 0
4, 54864, Note_on_c, 3, 57, 45
4, 54910, Note_on_c, 3, 57, 0
4, 54960, Note_on_c, 3, 57, 45
4, 55008, Note_on_c, 3, 57, 0
4, 55008, Note_on_c, 3, 66, 45
4, 55056, Note_on_c, 3, 66, 0
4, 55056, Note_on_c, 3, 57, 45
4, 55102, Note_on_c, 3, 57, 0
4, 55104, Note_on_c, 3, 61, 45
4, 55136, Note_on_c, 3, 61, 0
4, 55152, Note_on_c, 3, 57, 45
4, 55184, Note_on_c, 3, 57, 0
4, 55200, Note_on_c, 3, 61, 45
4, 55232, Note_on_c, 3, 61, 0
4, 55248, Note_on_c, 3, 57, 45
4, 55280, Note_on_c, 3, 57, 0
4, 55296, Note_on_c, 3, 62, 45
4, 55328, Note_on_c, 3, 62, 0
4, 55344, Note_on_c, 3, 57, 45
4, 55376, Note_on_c, 3, 57, 0
4, 55392, Note_on_c, 3, 62, 45
4, 55424, Note_on_c, 3, 62, 0
4, 55440, Note_on_c, 3, 57, 45
4, 55472, Note_on_c, 3, 57, 0
4, 55488, Note_on_c, 3, 61, 45
4, 55520, Note_on_c, 3, 61, 0
4, 55536, Note_on_c, 3, 57, 45
4, 55568, Note_on_c, 3, 57, 0
4, 55584, Note_on_c, 3, 64, 45
4, 55616, Note_on_c, 3, 64, 0
4, 55632, Note_on_c, 3, 57, 45
4, 55664, Note_on_c, 3, 57, 0
4, 55680, Note_on_c, 3, 62, 45
4, 55712, Note_on_c, 3, 62, 0
4, 55728, Note_on_c, 3, 57, 45
4, 55760, Note_on_c, 3, 57, 0
4, 55776, Note_on_c, 3, 62, 45
4, 55808, Note_on_c, 3, 62, 0
4, 55824, Note_on_c, 3, 57, 45
4, 55856, Note_on_c, 3, 57, 0
4, 55920, Note_on_c, 3, 57, 45
4, 55968, Note_on_c, 3, 57, 0
4, 55968, Note_on_c, 3, 61, 45
4, 56016, Note_on_c, 3, 61, 0
4, 56016, Note_on_c, 3, 57, 45
4, 56062, Note_on_c, 3, 57, 0
4, 56112, Note_on_c, 3, 57, 45
4, 56160, Note_on_c, 3, 57, 0
4, 56160, Note_on_c, 3, 62, 45
4, 56208, Note_on_c, 3, 62, 0
4, 56208, Note_on_c, 3, 57, 45
4, 56254, Note_on_c, 3, 57, 0
4, 56304, Note_on_c, 3, 57, 45
4, 56352, Note_on_c, 3, 57, 0
4, 56352, Note_on_c, 3, 64, 45
4, 56400, Note_on_c, 3, 64, 0
4, 56400, Note_on_c, 3, 57, 45
4, 56446, Note_on_c, 3, 57, 0
4, 56496, Note_on_c, 3, 57, 45
4, 56544, Note_on_c, 3, 57, 0
4, 56544, Note_on_c, 3, 66, 45
4, 56592, Note_on_c, 3, 66, 0
4, 56592, Note_on_c, 3, 57, 45
4, 56638, Note_on_c, 3, 57, 0
4, 56640, Note_on_c, 3, 61, 45
4, 56672, Note_on_c, 3, 61, 0
4, 56688, Note_on_c, 3, 57, 45
4, 56720, Note_on_c, 3, 57, 0
4, 56736, Note_on_c, 3, 61, 45
4, 56768, Note_on_c, 3, 61, 0
4, 56784, Note_on_c, 3, 57, 45
4, 56816, Note_on_c, 3, 57, 0
4, 56832, Note_on_c, 3, 69, 45
4, 56926, Note_on_c, 3, 69, 0
4, 57696, Note_on_c, 3, 49, 45
4, 57728, Note_on_c, 3, 49, 0
4, 57792, Note_on_c, 3, 50, 45
4, 57824, Note_on_c, 3, 50, 0
4, 57888, Note_on_c, 3, 52, 45
4, 57920, Note_on_c, 3, 52, 0
4, 57984, Note_on_c, 3, 54, 45
4, 58078, Note_on_c, 3, 54, 0
4, 58080, Note_on_c, 3, 50, 47
4, 58240, Note_on_c, 3, 50, 0
4, 58272, Note_on_c, 3, 60, 52
4, 58368, Note_on_c, 3, 60, 0
4, 58368, Note_on_c, 3, 59, 54
4, 58462, Note_on_c, 3, 59, 0
4, 58464, Note_on_c, 3, 55, 56
4, 58496, Note_on_c, 3, 55, 0
4, 58560, Note_on_c, 3, 57, 59
4, 58592, Note_on_c, 3, 57, 0
4, 58656, Note_on_c, 3, 67, 62
4, 58752, Note_on_c, 3, 67, 0
4, 58752, Note_on_c, 3, 66, 65
4, 58846, Note_on_c, 3, 66, 0
4, 58848, Note_on_c, 3, 62, 68
4, 59008, Note_on_c, 3, 62, 0
4, 59040, Note_on_c, 3, 62, 74
4, 59230, Note_on_c, 3, 62, 0
4, 59232, Note_on_c, 3, 62, 80
4, 59392, Note_on_c, 3, 62, 0
4, 59424, Note_on_c, 3, 62, 86
4, 59614, Note_on_c, 3, 62, 0
4, 59616, Note_on_c, 3, 62, 127
4, 59712, Note_on_c, 3, 62, 0
4, 59712, Note_on_c, 3, 61, 92
4, 59808, Note_on_c, 3, 61, 0
4, 59808, Note_on_c, 3, 59, 92
4, 59904, Note_on_c, 3, 59, 0
4, 59904, Note_on_c, 3, 57, 92
4, 59936, Note_on_c, 3, 57, 0
4, 60768, Note_on_c, 3, 71, 45
4, 60800, Note_on_c, 3, 71, 0
4, 60864, Note_on_c, 3, 67, 45
4, 60896, Note_on_c, 3, 67, 0
4, 60960, Note_on_c, 3, 69, 45
4, 60992, Note_on_c, 3, 69, 0
4, 61056, Note_on_c, 3, 66, 45
4, 61088, Note_on_c, 3, 66, 0
4, 61152, Note_on_c, 3, 62, 45
4, 61184, Note_on_c, 3, 62, 0
4, 61536, Note_on_c, 3, 50, 45
4, 61696, Note_on_c, 3, 50, 0
4, 61728, Note_on_c, 3, 49, 45
4, 61760, Note_on_c, 3, 49, 0
4, 61824, Note_on_c, 3, 50, 45
4, 61984, Note_on_c, 3, 50, 0
4, 62400, Note_on_c, 3, 70, 45
4, 62432, Note_on_c, 3, 70, 0
4, 62496, Note_on_c, 3, 67, 45
4, 62528, Note_on_c, 3, 67, 0
4, 62592, Note_on_c, 3, 69, 45
4, 62624, Note_on_c, 3, 69, 0
4, 62688, Note_on_c, 3, 65, 45
4, 62720, Note_on_c, 3, 65, 0
4, 62784, Note_on_c, 3, 62, 45
4, 62816, Note_on_c, 3, 62, 0
4, 63168, Note_on_c, 3, 62, 92
4, 63328, Note_on_c, 3, 62, 0
4, 63360, Note_on_c, 3, 61, 92
4, 63392, Note_on_c, 3, 61, 0
4, 63456, Note_on_c, 3, 62, 92
4, 63550, Note_on_c, 3, 62, 0
4, 64512, Note_on_c, 3, 53, 45
4, 64560, Note_on_c, 3, 53, 0
4, 64560, Note_on_c, 3, 57, 45
4, 64606, Note_on_c, 3, 57, 0
4, 64608, Note_on_c, 3, 55, 45
4, 64656, Note_on_c, 3, 55, 0
4, 64656, Note_on_c, 3, 57, 45
4, 64702, Note_on_c, 3, 57, 0
4, 64704, Note_on_c, 3, 55, 45
4, 64752, Note_on_c, 3, 55, 0
4, 64752, Note_on_c, 3, 57, 45
4, 64798, Note_on_c, 3, 57, 0
4, 64800, Note_on_c, 3, 53, 45
4, 64848, Note_on_c, 3, 53, 0
4, 64848, Note_on_c, 3, 57, 45
4, 64894, Note_on_c, 3, 57, 0
4, 64896, Note_on_c, 3, 53, 45
4, 64944, Note_on_c, 3, 53, 0
4, 64944, Note_on_c, 3, 57, 45
4, 64990, Note_on_c, 3, 57, 0
4, 64992, Note_on_c, 3, 52, 45
4, 65086, Note_on_c, 3, 52, 0
4, 65376, Note_on_c, 3, 53, 92
4, 65424, Note_on_c, 3, 53, 0
4, 65568, Note_on_c, 3, 53, 92
4, 65616, Note_on_c, 3, 53, 0
4, 65760, Note_on_c, 3, 58, 127
4, 66016, Note_on_c, 3, 58, 0
4, 66048, Note_on_c, 3, 58, 45
4, 66142, Note_on_c, 3, 58, 0
4, 66144, Note_on_c, 3, 60, 45
4, 66176, Note_on_c, 3, 60, 0
4, 66240, Note_on_c, 3, 60, 45
4, 66272, Note_on_c, 3, 60, 0
4, 66336, Note_on_c, 3, 58, 45
4, 66368, Note_on_c, 3, 58, 0
4, 66432, Note_on_c, 3, 58, 45
4, 66464, Note_on_c, 3, 58, 0
4, 66528, Note_on_c, 3, 57, 45
4, 66622, Note_on_c, 3, 57, 0
4, 66816, Note_on_c, 3, 60, 45
4, 66910, Note_on_c, 3, 60, 0
4, 66912, Note_on_c, 3, 62, 45
4, 66944, Note_on_c, 3, 62, 0
4, 67008, Note_on_c, 3, 62, 45
4, 67040, Note_on_c, 3, 62, 0
4, 67104, Note_on_c, 3, 60, 45
4, 67136, Note_on_c, 3, 60, 0
4, 67200, Note_on_c, 3, 60, 45
4, 67232, Note_on_c, 3, 60, 0
4, 67296, Note_on_c, 3, 59, 45
4, 67456, Note_on_c, 3, 59, 0
4, 67584, Note_on_c, 3, 67, 92
4, 67632, Note_on_c, 3, 67, 0
4, 67632, Note_on_c, 3, 63, 92
4, 67678, Note_on_c, 3, 63, 0
4, 67680, Note_on_c, 3, 63, 92
4, 67728, Note_on_c, 3, 63, 0
4, 67728, Note_on_c, 3, 62, 92
4, 67774, Note_on_c, 3, 62, 0
4, 67776, Note_on_c, 3, 65, 92
4, 67824, Note_on_c, 3, 65, 0
4, 67824, Note_on_c, 3, 62, 92
4, 67870, Note_on_c, 3, 62, 0
4, 67872, Note_on_c, 3, 65, 92
4, 67920, Note_on_c, 3, 65, 0
4, 67920, Note_on_c, 3, 63, 92
4, 67966, Note_on_c, 3, 63, 0
4, 67968, Note_on_c, 3, 67, 92
4, 68016, Note_on_c, 3, 67, 0
4, 68016, Note_on_c, 3, 63, 92
4, 68062, Note_on_c, 3, 63, 0
4, 68064, Note_on_c, 3, 70, 92
4, 68224, Note_on_c, 3, 70, 0
4, 68352, Note_on_c, 3, 58, 45
4, 68400, Note_on_c, 3, 58, 0
4, 68400, Note_on_c, 3, 63, 45
4, 68446, Note_on_c, 3, 63, 0
4, 68448, Note_on_c, 3, 62, 45
4, 68608, Note_on_c, 3, 62, 0
4, 68736, Note_on_c, 3, 58, 45
4, 68784, Note_on_c, 3, 58, 0
4, 68784, Note_on_c, 3, 55, 45
4, 68830, Note_on_c, 3, 55, 0
4, 68832, Note_on_c, 3, 53, 45
4, 68864, Note_on_c, 3, 53, 0
4, 68928, Note_on_c, 3, 58, 50
4, 68976, Note_on_c, 3, 58, 0
4, 68976, Note_on_c, 3, 55, 53
4, 69022, Note_on_c, 3, 55, 0
4, 69024, Note_on_c, 3, 53, 56
4, 69056, Note_on_c, 3, 53, 0
4, 69120, Note_on_c, 3, 58, 62
4, 69168, Note_on_c, 3, 58, 0
4, 69168, Note_on_c, 3, 55, 65
4, 69214, Note_on_c, 3, 55, 0
4, 69216, Note_on_c, 3, 53, 68
4, 69310, Note_on_c, 3, 53, 0
4, 69600, Note_on_c, 3, 55, 92
4, 69984, Note_on_c, 3, 55, 0
4, 69984, Note_on_c, 3, 56, 92
4, 70144, Note_on_c, 3, 56, 0
4, 70344, Note_on_c, 3, 56, 92
4, 70366, Note_on_c, 3, 56, 0
4, 70368, Note_on_c, 3, 58, 92
4, 70462, Note_on_c, 3, 58, 0
4, 70536, Note_on_c, 3, 58, 92
4, 70558, Note_on_c, 3, 58, 0
4, 70560, Note_on_c, 3, 63, 92
4, 70654, Note_on_c, 3, 63, 0
4, 70728, Note_on_c, 3, 63, 92
4, 70750, Note_on_c, 3, 63, 0
4, 70752, Note_on_c, 3, 62, 92
4, 70846, Note_on_c, 3, 62, 0
4, 71520, Note_on_c, 3, 63, 30
4, 71904, Note_on_c, 3, 63, 0
4, 71904, Note_on_c, 3, 62, 30
4, 72096, Note_on_c, 3, 62, 0
4, 72096, Note_on_c, 3, 68, 30
4, 72480, Note_on_c, 3, 69, 0
4, 72480, Note_on_c, 3, 67, 30
4, 72832, Note_on_c, 3, 67, 0
4, 72864, Note_on_c, 3, 73, 30
4, 73008, Note_on_c, 3, 73, 0
4, 73008, Note_on_c, 3, 67, 30
4, 73054, Note_on_c, 3, 67, 0
4, 73056, Note_on_c, 3, 68, 30
4, 73248, Note_on_c, 3, 68, 0
4, 73248, Note_on_c, 3, 67, 30
4, 73408, Note_on_c, 3, 67, 0
4, 73440, Note_on_c, 3, 65, 30
4, 73918, Note_on_c, 3, 66, 0
4, 74208, Note_on_c, 3, 70, 30
4, 74592, Note_on_c, 3, 70, 0
4, 74592, Note_on_c, 3, 69, 30
4, 74928, Note_on_c, 3, 69, 0
4, 74976, Note_on_c, 3, 70, 30
4, 75024, Note_on_c, 3, 70, 0
4, 75024, Note_on_c, 3, 69, 30
4, 75070, Note_on_c, 3, 69, 0
4, 75072, Note_on_c, 3, 70, 30
4, 75104, Note_on_c, 3, 70, 0
4, 75120, Note_on_c, 3, 72, 30
4, 75152, Note_on_c, 3, 72, 0
4, 75168, Note_on_c, 3, 73, 30
4, 75200, Note_on_c, 3, 73, 0
4, 75216, Note_on_c, 3, 72, 30
4, 75248, Note_on_c, 3, 72, 0
4, 75264, Note_on_c, 3, 73, 30
4, 75296, Note_on_c, 3, 73, 0
4, 75312, Note_on_c, 3, 72, 30
4, 75344, Note_on_c, 3, 72, 0
4, 75360, Note_on_c, 3, 70, 30
4, 75616, Note_on_c, 3, 70, 0
4, 75648, Note_on_c, 3, 52, 30
4, 75742, Note_on_c, 3, 52, 0
4, 75744, Note_on_c, 3, 53, 30
4, 76080, Note_on_c, 3, 53, 0
4, 76128, Note_on_c, 3, 55, 30
4, 76560, Note_on_c, 3, 55, 0
4, 76560, Note_on_c, 3, 57, 30
4, 76606, Note_on_c, 3, 57, 0
4, 76608, Note_on_c, 3, 58, 30
4, 76640, Note_on_c, 3, 58, 0
4, 76656, Note_on_c, 3, 57, 30
4, 76688, Note_on_c, 3, 57, 0
4, 76704, Note_on_c, 3, 58, 30
4, 76736, Note_on_c, 3, 58, 0
4, 76752, Note_on_c, 3, 57, 30
4, 76784, Note_on_c, 3, 57, 0
4, 76800, Note_on_c, 3, 58, 30
4, 76832, Note_on_c, 3, 58, 0
4, 76848, Note_on_c, 3, 57, 30
4, 76880, Note_on_c, 3, 57, 0
4, 76896, Note_on_c, 3, 58, 30
4, 77088, Note_on_c, 3, 58, 0
4, 77088, Note_on_c, 3, 57, 30
4, 77328, Note_on_c, 3, 57, 0
4, 77328, Note_on_c, 3, 59, 30
4, 77374, Note_on_c, 3, 59, 0
4, 77376, Note_on_c, 3, 60, 30
4, 77408, Note_on_c, 3, 60, 0
4, 77424, Note_on_c, 3, 59, 30
4, 77456, Note_on_c, 3, 59, 0
4, 77472, Note_on_c, 3, 60, 30
4, 77504, Note_on_c, 3, 60, 0
4, 77520, Note_on_c, 3, 57, 30
4, 77552, Note_on_c, 3, 57, 0
4, 77568, Note_on_c, 3, 54, 30
4, 77600, Note_on_c, 3, 54, 0
4, 77616, Note_on_c, 3, 50, 30
4, 77648, Note_on_c, 3, 50, 0
4, 77664, Note_on_c, 3, 58, 30
4, 77758, Note_on_c, 3, 58, 0
4, 77832, Note_on_c, 3, 58, 30
4, 77854, Note_on_c, 3, 58, 0
4, 77856, Note_on_c, 3, 55, 30
4, 77950, Note_on_c, 3, 55, 0
4, 78024, Note_on_c, 3, 55, 30
4, 78046, Note_on_c, 3, 55, 0
4, 78048, Note_on_c, 3, 54, 30
4, 78142, Note_on_c, 3, 54, 0
4, 78216, Note_on_c, 3, 54, 30
4, 78238, Note_on_c, 3, 54, 0
4, 78240, Note_on_c, 3, 60, 30
4, 78334, Note_on_c, 3, 60, 0
4, 78408, Note_on_c, 3, 60, 30
4, 78430, Note_on_c, 3, 60, 0
4, 78432, Note_on_c, 3, 63, 30
4, 78526, Note_on_c, 3, 63, 0
4, 78600, Note_on_c, 3, 63, 35
4, 78622, Note_on_c, 3, 63, 0
4, 78624, Note_on_c, 3, 54, 35
4, 78718, Note_on_c, 3, 54, 0
4, 78792, Note_on_c, 3, 54, 40
4, 78814, Note_on_c, 3, 54, 0
4, 78816, Note_on_c, 3, 56, 40
4, 78910, Note_on_c, 3, 56, 0
4, 78984, Note_on_c, 3, 56, 45
4, 79006, Note_on_c, 3, 56, 0
4, 79008, Note_on_c, 3, 55, 45
4, 79102, Note_on_c, 3, 55, 0
4, 79176, Note_on_c, 3, 55, 50
4, 79198, Note_on_c, 3, 55, 0
4, 79200, Note_on_c, 3, 65, 50
4, 79294, Note_on_c, 3, 65, 0
4, 79368, Note_on_c, 3, 65, 55
4, 79390, Note_on_c, 3, 65, 0
4, 79392, Note_on_c, 3, 56, 55
4, 79486, Note_on_c, 3, 56, 0
4, 79560, Note_on_c, 3, 56, 60
4, 79582, Note_on_c, 3, 56, 0
4, 79584, Note_on_c, 3, 58, 60
4, 79678, Note_on_c, 3, 58, 0
4, 79752, Note_on_c, 3, 58, 67
4, 79774, Note_on_c, 3, 58, 0
4, 79776, Note_on_c, 3, 57, 67
4, 79870, Note_on_c, 3, 57, 0
4, 79944, Note_on_c, 3, 57, 74
4, 79966, Note_on_c, 3, 57, 0
4, 79968, Note_on_c, 3, 67, 75
4, 80062, Note_on_c, 3, 67, 0
4, 80136, Note_on_c, 3, 67, 82
4, 80158, Note_on_c, 3, 67, 0
4, 80160, Note_on_c, 3, 61, 83
4, 80254, Note_on_c, 3, 61, 0
4, 80328, Note_on_c, 3, 61, 90
4, 80350, Note_on_c, 3, 61, 0
4, 80352, Note_on_c, 3, 67, 92
4, 80384, Note_on_c, 3, 67, 0
4, 80448, Note_on_c, 3, 64, 92
4, 80480, Note_on_c, 3, 64, 0
4, 80736, Note_on_c, 3, 67, 45
4, 80784, Note_on_c, 3, 67, 0
4, 80928, Note_on_c, 3, 67, 45
4, 80976, Note_on_c, 3, 67, 0
4, 81120, Note_on_c, 3, 67, 63
4, 81376, Note_on_c, 3, 67, 0
4, 81408, Note_on_c, 3, 67, 45
4, 81456, Note_on_c, 3, 67, 0
4, 81456, Note_on_c, 3, 70, 45
4, 81502, Note_on_c, 3, 70, 0
4, 81504, Note_on_c, 3, 69, 45
4, 81552, Note_on_c, 3, 69, 0
4, 81552, Note_on_c, 3, 70, 45
4, 81598, Note_on_c, 3, 70, 0
4, 81600, Note_on_c, 3, 67, 45
4, 81648, Note_on_c, 3, 67, 0
4, 81648, Note_on_c, 3, 70, 45
4, 81694, Note_on_c, 3, 70, 0
4, 81696, Note_on_c, 3, 69, 45
4, 81744, Note_on_c, 3, 69, 0
4, 81744, Note_on_c, 3, 70, 45
4, 81790, Note_on_c, 3, 70, 0
4, 81792, Note_on_c, 3, 67, 45
4, 81840, Note_on_c, 3, 67, 0
4, 81840, Note_on_c, 3, 70, 45
4, 81886, Note_on_c, 3, 70, 0
4, 81888, Note_on_c, 3, 69, 45
4, 81936, Note_on_c, 3, 69, 0
4, 81936, Note_on_c, 3, 70, 45
4, 81982, Note_on_c, 3, 70, 0
4, 82272, Note_on_c, 3, 67, 45
4, 82320, Note_on_c, 3, 67, 0
4, 82464, Note_on_c, 3, 67, 68
4, 82512, Note_on_c, 3, 67, 0
4, 82656, Note_on_c, 3, 62, 127
4, 82912, Note_on_c, 3, 62, 0
4, 82944, Note_on_c, 3, 74, 45
4, 83038, Note_on_c, 3, 74, 0
4, 83040, Note_on_c, 3, 74, 45
4, 83134, Note_on_c, 3, 74, 0
4, 83136, Note_on_c, 3, 74, 45
4, 83230, Note_on_c, 3, 74, 0
4, 83232, Note_on_c, 3, 74, 45
4, 83326, Note_on_c, 3, 74, 0
4, 83328, Note_on_c, 3, 74, 45
4, 83422, Note_on_c, 3, 74, 0
4, 83424, Note_on_c, 3, 74, 45
4, 83518, Note_on_c, 3, 74, 0
4, 84288, Note_on_c, 3, 69, 45
4, 84336, Note_on_c, 3, 69, 0
4, 84336, Note_on_c, 3, 72, 44
4, 84382, Note_on_c, 3, 72, 0
4, 84384, Note_on_c, 3, 71, 42
4, 84432, Note_on_c, 3, 71, 0
4, 84432, Note_on_c, 3, 72, 40
4, 84478, Note_on_c, 3, 72, 0
4, 84672, Note_on_c, 3, 69, 30
4, 84720, Note_on_c, 3, 69, 0
4, 84720, Note_on_c, 3, 72, 30
4, 84766, Note_on_c, 3, 72, 0
4, 84768, Note_on_c, 3, 71, 30
4, 84816, Note_on_c, 3, 71, 0
4, 84816, Note_on_c, 3, 72, 30
4, 84862, Note_on_c, 3, 72, 0
4, 85728, Note_on_c, 3, 60, 92
4, 85776, Note_on_c, 3, 60, 0
4, 85920, Note_on_c, 3, 60, 92
4, 85968, Note_on_c, 3, 60, 0
4, 86112, Note_on_c, 3, 60, 127
4, 86448, Note_on_c, 3, 60, 0
4, 86496, Note_on_c, 3, 59, 92
4, 86528, Note_on_c, 3, 59, 0
4, 86592, Note_on_c, 3, 67, 92
4, 86624, Note_on_c, 3, 67, 0
4, 86688, Note_on_c, 3, 62, 92
4, 86720, Note_on_c, 3, 62, 0
4, 86784, Note_on_c, 3, 59, 92
4, 86816, Note_on_c, 3, 59, 0
4, 86880, Note_on_c, 3, 55, 92
4, 86912, Note_on_c, 3, 55, 0
4, 86976, Note_on_c, 3, 62, 92
4, 87008, Note_on_c, 3, 62, 0
4, 87072, Note_on_c, 3, 59, 92
4, 87104, Note_on_c, 3, 59, 0
4, 87168, Note_on_c, 3, 55, 92
4, 87200, Note_on_c, 3, 55, 0
4, 87264, Note_on_c, 3, 54, 92
4, 87296, Note_on_c, 3, 54, 0
4, 87360, Note_on_c, 3, 50, 92
4, 87392, Note_on_c, 3, 50, 0
4, 87456, Note_on_c, 3, 54, 92
4, 87488, Note_on_c, 3, 54, 0
4, 87552, Note_on_c, 3, 57, 92
4, 87584, Note_on_c, 3, 57, 0
4, 87648, Note_on_c, 3, 60, 127
4, 87680, Note_on_c, 3, 60, 0
4, 87744, Note_on_c, 3, 57, 92
4, 87776, Note_on_c, 3, 57, 0
4, 87840, Note_on_c, 3, 54, 92
4, 87872, Note_on_c, 3, 54, 0
4, 87936, Note_on_c, 3, 50, 92
4, 87968, Note_on_c, 3, 50, 0
4, 88032, Note_on_c, 3, 55, 92
4, 88126, Note_on_c, 3, 55, 0
4, 88128, Note_on_c, 3, 50, 92
4, 88128, Note_on_c, 3, 59, 92
4, 88288, Note_on_c, 3, 50, 0
4, 88288, Note_on_c, 3, 59, 0
4, 88320, Note_on_c, 3, 50, 92
4, 88320, Note_on_c, 3, 59, 92
4, 88510, Note_on_c, 3, 50, 0
4, 88510, Note_on_c, 3, 59, 0
4, 88512, Note_on_c, 3, 59, 92
4, 88672, Note_on_c, 3, 59, 0
4, 88704, Note_on_c, 3, 50, 92
4, 88704, Note_on_c, 3, 59, 92
4, 88800, Note_on_c, 3, 59, 0
4, 88800, Note_on_c, 3, 60, 92
4, 88894, Note_on_c, 3, 50, 0
4, 88894, Note_on_c, 3, 60, 0
4, 88896, Note_on_c, 3, 50, 92
4, 88896, Note_on_c, 3, 60, 92
4, 89056, Note_on_c, 3, 50, 0
4, 89056, Note_on_c, 3, 60, 0
4, 89088, Note_on_c, 3, 50, 92
4, 89088, Note_on_c, 3, 60, 92
4, 89278, Note_on_c, 3, 50, 0
4, 89278, Note_on_c, 3, 60, 0
4, 89280, Note_on_c, 3, 50, 93
4, 89280, Note_on_c, 3, 60, 93
4, 89440, Note_on_c, 3, 50, 0
4, 89440, Note_on_c, 3, 60, 0
4, 89472, Note_on_c, 3, 50, 95
4, 89472, Note_on_c, 3, 60, 95
4, 89568, Note_on_c, 3, 60, 0
4, 89568, Note_on_c, 3, 59, 96
4, 89662, Note_on_c, 3, 50, 0
4, 89662, Note_on_c, 3, 59, 0
4, 89760, Note_on_c, 3, 69, 127
4, 90046, Note_on_c, 3, 69, 0
4, 90048, Note_on_c, 3, 67, 102
4, 90142, Note_on_c, 3, 67, 0
4, 90144, Note_on_c, 3, 72, 127
4, 90304, Note_on_c, 3, 72, 0
4, 90336, Note_on_c, 3, 71, 45
4, 90368, Note_on_c, 3, 71, 0
4, 90432, Note_on_c, 3, 55, 45
4, 90464, Note_on_c, 3, 55, 0
4, 90528, Note_on_c, 3, 55, 45
4, 90560, Note_on_c, 3, 55, 0
4, 90624, Note_on_c, 3, 57, 45
4, 90672, Note_on_c, 3, 57, 0
4, 90672, Note_on_c, 3, 60, 45
4, 90718, Note_on_c, 3, 60, 0
4, 90720, Note_on_c, 3, 59, 45
4, 90880, Note_on_c, 3, 59, 0
4, 91104, Note_on_c, 3, 50, 92
4, 91648, Note_on_c, 3, 50, 0
4, 91848, Note_on_c, 3, 50, 45
4, 91870, Note_on_c, 3, 50, 0
4, 91872, Note_on_c, 3, 50, 45
4, 91966, Note_on_c, 3, 50, 0
4, 92040, Note_on_c, 3, 50, 45
4, 92062, Note_on_c, 3, 50, 0
4, 92064, Note_on_c, 3, 55, 45
4, 92158, Note_on_c, 3, 55, 0
4, 92232, Note_on_c, 3, 55, 45
4, 92254, Note_on_c, 3, 55, 0
4, 92256, Note_on_c, 3, 54, 45
4, 92350, Note_on_c, 3, 54, 0
4, 92640, Note_on_c, 3, 55, 30
4, 92832, Note_on_c, 3, 55, 0
4, 92832, Note_on_c, 3, 59, 30
4, 92992, Note_on_c, 3, 59, 0
4, 93408, Note_on_c, 3, 57, 30
4, 93600, Note_on_c, 3, 57, 0
4, 93600, Note_on_c, 3, 60, 30
4, 93760, Note_on_c, 3, 60, 0
4, 94176, Note_on_c, 3, 59, 30
4, 94368, Note_on_c, 3, 59, 0
4, 94368, Note_on_c, 3, 60, 30
4, 94528, Note_on_c, 3, 60, 0
4, 94560, Note_on_c, 3, 59, 30
4, 94752, Note_on_c, 3, 59, 0
4, 94752, Note_on_c, 3, 52, 33
4, 94848, Note_on_c, 3, 52, 0
4, 94848, Note_on_c, 3, 55, 35
4, 94942, Note_on_c, 3, 55, 0
4, 94944, Note_on_c, 3, 59, 37
4, 95136, Note_on_c, 3, 59, 0
4, 95136, Note_on_c, 3, 52, 41
4, 95232, Note_on_c, 3, 52, 0
4, 95232, Note_on_c, 3, 55, 43
4, 95326, Note_on_c, 3, 55, 0
4, 95328, Note_on_c, 3, 59, 45
4, 95422, Note_on_c, 3, 59, 0
4, 95520, Note_on_c, 3, 54, 45
4, 95614, Note_on_c, 3, 54, 0
4, 95712, Note_on_c, 3, 54, 45
4, 95806, Note_on_c, 3, 54, 0
4, 96096, Note_on_c, 3, 56, 30
4, 96640, Note_on_c, 3, 56, 0
4, 96840, Note_on_c, 3, 56, 45
4, 96862, Note_on_c, 3, 56, 0
4, 96864, Note_on_c, 3, 57, 45
4, 96958, Note_on_c, 3, 57, 0
4, 97728, Note_on_c, 3, 73, 30
4, 97760, Note_on_c, 3, 73, 0
4, 97824, Note_on_c, 3, 69, 30
4, 97856, Note_on_c, 3, 69, 0
4, 97920, Note_on_c, 3, 71, 30
4, 97952, Note_on_c, 3, 71, 0
4, 98016, Note_on_c, 3, 68, 30
4, 98048, Note_on_c, 3, 68, 0
4, 98112, Note_on_c, 3, 64, 30
4, 98144, Note_on_c, 3, 64, 0
4, 98448, Note_on_c, 3, 55, 30
4, 98480, Note_on_c, 3, 55, 0
4, 98496, Note_on_c, 3, 54, 30
4, 98528, Note_on_c, 3, 54, 0
4, 98544, Note_on_c, 3, 52, 30
4, 98576, Note_on_c, 3, 52, 0
4, 98592, Note_on_c, 3, 60, 30
4, 98624, Note_on_c, 3, 60, 0
4, 98688, Note_on_c, 3, 51, 30
4, 98720, Note_on_c, 3, 51, 0
4, 98832, Note_on_c, 3, 59, 30
4, 98864, Note_on_c, 3, 59, 0
4, 98880, Note_on_c, 3, 57, 30
4, 98912, Note_on_c, 3, 57, 0
4, 98928, Note_on_c, 3, 55, 30
4, 98960, Note_on_c, 3, 55, 0
4, 98976, Note_on_c, 3, 64, 30
4, 99008, Note_on_c, 3, 64, 0
4, 99072, Note_on_c, 3, 54, 30
4, 99104, Note_on_c, 3, 54, 0
4, 99216, Note_on_c, 3, 62, 30
4, 99264, Note_on_c, 3, 62, 0
4, 99264, Note_on_c, 3, 61, 30
4, 99312, Note_on_c, 3, 61, 0
4, 99312, Note_on_c, 3, 62, 30
4, 99360, Note_on_c, 3, 62, 0
4, 99360, Note_on_c, 3, 67, 30
4, 99408, Note_on_c, 3, 67, 0
4, 99408, Note_on_c, 3, 64, 30
4, 99456, Note_on_c, 3, 64, 0
4, 99456, Note_on_c, 3, 61, 30
4, 99504, Note_on_c, 3, 61, 0
4, 99504, Note_on_c, 3, 55, 30
4, 99550, Note_on_c, 3, 55, 0
4, 99552, Note_on_c, 3, 54, 30
4, 99792, Note_on_c, 3, 54, 0
4, 99792, Note_on_c, 3, 55, 36
4, 99840, Note_on_c, 3, 55, 0
4, 99840, Note_on_c, 3, 57, 37
4, 99888, Note_on_c, 3, 57, 0
4, 99888, Note_on_c, 3, 54, 38
4, 99934, Note_on_c, 3, 54, 0
4, 99936, Note_on_c, 3, 55, 39
4, 100128, Note_on_c, 3, 55, 0
4, 100128, Note_on_c, 3, 52, 44
4, 100176, Note_on_c, 3, 52, 0
4, 100176, Note_on_c, 3, 54, 45
4, 100224, Note_on_c, 3, 54, 0
4, 100224, Note_on_c, 3, 55, 46
4, 100272, Note_on_c, 3, 55, 0
4, 100272, Note_on_c, 3, 52, 47
4, 100318, Note_on_c, 3, 52, 0
4, 100320, Note_on_c, 3, 54, 48
4, 100480, Note_on_c, 3, 54, 0
4, 100512, Note_on_c, 3, 69, 53
4, 100560, Note_on_c, 3, 69, 0
4, 100560, Note_on_c, 3, 67, 54
4, 100608, Note_on_c, 3, 67, 0
4, 100608, Note_on_c, 3, 66, 55
4, 100656, Note_on_c, 3, 66, 0
4, 100656, Note_on_c, 3, 69, 56
4, 100702, Note_on_c, 3, 69, 0
4, 100704, Note_on_c, 3, 67, 57
4, 100944, Note_on_c, 3, 67, 0
4, 100944, Note_on_c, 3, 66, 63
4, 100992, Note_on_c, 3, 66, 0
4, 100992, Note_on_c, 3, 64, 64
4, 101040, Note_on_c, 3, 64, 0
4, 101040, Note_on_c, 3, 67, 65
4, 101086, Note_on_c, 3, 67, 0
4, 101088, Note_on_c, 3, 66, 66
4, 101120, Note_on_c, 3, 66, 0
4, 101184, Note_on_c, 3, 62, 69
4, 101216, Note_on_c, 3, 62, 0
4, 101376, Note_on_c, 3, 64, 75
4, 101470, Note_on_c, 3, 64, 0
4, 101568, Note_on_c, 3, 62, 81
4, 101662, Note_on_c, 3, 62, 0
4, 101760, Note_on_c, 3, 64, 88
4, 101854, Note_on_c, 3, 64, 0
4, 101856, Note_on_c, 3, 62, 92
4, 102016, Note_on_c, 3, 62, 0
4, 102144, Note_on_c, 3, 50, 92
4, 102165, Note_on_c, 3, 50, 0
4, 102176, Note_on_c, 3, 54, 92
4, 102197, Note_on_c, 3, 54, 0
4, 102208, Note_on_c, 3, 57, 92
4, 102229, Note_on_c, 3, 57, 0
4, 102624, Note_on_c, 3, 62, 45
4, 102672, Note_on_c, 3, 62, 0
4, 102816, Note_on_c, 3, 62, 45
4, 102864, Note_on_c, 3, 62, 0
4, 103008, Note_on_c, 3, 62, 63
4, 103264, Note_on_c, 3, 62, 0
4, 103296, Note_on_c, 3, 57, 45
4, 103390, Note_on_c, 3, 57, 0
4, 103392, Note_on_c, 3, 59, 45
4, 103424, Note_on_c, 3, 59, 0
4, 103488, Note_on_c, 3, 54, 45
4, 103520, Note_on_c, 3, 54, 0
4, 103584, Note_on_c, 3, 55, 45
4, 103616, Note_on_c, 3, 55, 0
4, 103680, Note_on_c, 3, 55, 45
4, 103712, Note_on_c, 3, 55, 0
4, 103776, Note_on_c, 3, 54, 45
4, 103870, Note_on_c, 3, 54, 0
4, 104160, Note_on_c, 3, 64, 45
4, 104208, Note_on_c, 3, 64, 0
4, 104352, Note_on_c, 3, 64, 45
4, 104400, Note_on_c, 3, 64, 0
4, 104544, Note_on_c, 3, 64, 63
4, 104800, Note_on_c, 3, 64, 0
4, 104832, Note_on_c, 3, 62, 45
4, 104960, Note_on_c, 3, 62, 0
4, 105024, Note_on_c, 3, 64, 45
4, 105056, Note_on_c, 3, 64, 0
4, 105120, Note_on_c, 3, 67, 45
4, 105152, Note_on_c, 3, 67, 0
4, 105216, Note_on_c, 3, 69, 45
4, 105248, Note_on_c, 3, 69, 0
4, 105312, Note_on_c, 3, 67, 45
4, 105406, Note_on_c, 3, 67, 0
4, 105744, Note_on_c, 3, 50, 45
4, 105776, Note_on_c, 3, 50, 0
4, 105792, Note_on_c, 3, 52, 45
4, 105824, Note_on_c, 3, 52, 0
4, 105840, Note_on_c, 3, 54, 45
4, 105872, Note_on_c, 3, 54, 0
4, 105888, Note_on_c, 3, 55, 45
4, 105920, Note_on_c, 3, 55, 0
4, 105936, Note_on_c, 3, 57, 45
4, 105968, Note_on_c, 3, 57, 0
4, 105984, Note_on_c, 3, 59, 45
4, 106016, Note_on_c, 3, 59, 0
4, 106032, Note_on_c, 3, 60, 45
4, 106064, Note_on_c, 3, 60, 0
4, 106080, Note_on_c, 3, 62, 63
4, 106336, Note_on_c, 3, 62, 0
4, 106368, Note_on_c, 3, 62, 45
4, 106462, Note_on_c, 3, 62, 0
4, 106464, Note_on_c, 3, 62, 45
4, 106496, Note_on_c, 3, 62, 0
4, 106560, Note_on_c, 3, 62, 45
4, 106592, Note_on_c, 3, 62, 0
4, 106656, Note_on_c, 3, 62, 45
4, 106688, Note_on_c, 3, 62, 0
4, 106752, Note_on_c, 3, 67, 45
4, 106784, Note_on_c, 3, 67, 0
4, 106848, Note_on_c, 3, 66, 45
4, 106942, Note_on_c, 3, 66, 0
4, 107280, Note_on_c, 3, 52, 45
4, 107312, Note_on_c, 3, 52, 0
4, 107328, Note_on_c, 3, 54, 45
4, 107360, Note_on_c, 3, 54, 0
4, 107376, Note_on_c, 3, 56, 45
4, 107408, Note_on_c, 3, 56, 0
4, 107424, Note_on_c, 3, 57, 45
4, 107456, Note_on_c, 3, 57, 0
4, 107472, Note_on_c, 3, 59, 45
4, 107504, Note_on_c, 3, 59, 0
4, 107520, Note_on_c, 3, 60, 45
4, 107552, Note_on_c, 3, 60, 0
4, 107568, Note_on_c, 3, 62, 45
4, 107600, Note_on_c, 3, 62, 0
4, 107616, Note_on_c, 3, 64, 63
4, 107872, Note_on_c, 3, 64, 0
4, 107904, Note_on_c, 3, 64, 45
4, 107998, Note_on_c, 3, 64, 0
4, 108000, Note_on_c, 3, 64, 45
4, 108046, Note_on_c, 3, 64, 0
4, 108048, Note_on_c, 3, 64, 45
4, 108094, Note_on_c, 3, 64, 0
4, 108096, Note_on_c, 3, 64, 45
4, 108142, Note_on_c, 3, 64, 0
4, 108144, Note_on_c, 3, 64, 45
4, 108190, Note_on_c, 3, 64, 0
4, 108192, Note_on_c, 3, 64, 45
4, 108238, Note_on_c, 3, 64, 0
4, 108240, Note_on_c, 3, 64, 45
4, 108286, Note_on_c, 3, 64, 0
4, 108288, Note_on_c, 3, 66, 45
4, 108334, Note_on_c, 3, 66, 0
4, 108336, Note_on_c, 3, 64, 45
4, 108382, Note_on_c, 3, 64, 0
4, 108384, Note_on_c, 3, 63, 45
4, 108478, Note_on_c, 3, 63, 0
4, 108672, Note_on_c, 3, 59, 45
4, 108768, Note_on_c, 3, 59, 0
4, 108768, Note_on_c, 3, 71, 45
4, 109024, Note_on_c, 3, 71, 0
4, 109056, Note_on_c, 3, 59, 45
4, 109152, Note_on_c, 3, 59, 0
4, 109152, Note_on_c, 3, 71, 45
4, 109408, Note_on_c, 3, 71, 0
4, 109440, Note_on_c, 3, 59, 45
4, 109536, Note_on_c, 3, 59, 0
4, 109536, Note_on_c, 3, 71, 45
4, 109696, Note_on_c, 3, 71, 0
4, 109728, Note_on_c, 3, 65, 63
4, 109888, Note_on_c, 3, 65, 0
4, 109920, Note_on_c, 3, 64, 45
4, 110016, Note_on_c, 3, 64, 0
4, 110016, Note_on_c, 3, 60, 45
4, 110088, Note_on_c, 3, 60, 0
4, 110088, Note_on_c, 3, 64, 45
4, 110110, Note_on_c, 3, 64, 0
4, 110112, Note_on_c, 3, 62, 60
4, 110206, Note_on_c, 3, 62, 0
4, 110208, Note_on_c, 3, 62, 45
4, 110302, Note_on_c, 3, 62, 0
4, 110304, Note_on_c, 3, 62, 45
4, 110398, Note_on_c, 3, 62, 0
4, 110496, Note_on_c, 3, 67, 45
4, 110592, Note_on_c, 3, 67, 0
4, 110592, Note_on_c, 3, 66, 45
4, 110784, Note_on_c, 3, 66, 0
4, 110784, Note_on_c, 3, 64, 45
4, 110830, Note_on_c, 3, 64, 0
4, 110880, Note_on_c, 3, 67, 45
4, 110976, Note_on_c, 3, 67, 0
4, 110976, Note_on_c, 3, 66, 45
4, 111168, Note_on_c, 3, 66, 0
4, 111168, Note_on_c, 3, 64, 45
4, 111214, Note_on_c, 3, 64, 0
4, 111264, Note_on_c, 3, 67, 45
4, 111360, Note_on_c, 3, 67, 0
4, 111360, Note_on_c, 3, 66, 56
4, 111552, Note_on_c, 3, 66, 0
4, 111552, Note_on_c, 3, 64, 80
4, 111598, Note_on_c, 3, 64, 0
4, 111648, Note_on_c, 3, 59, 92
4, 111840, Note_on_c, 3, 59, 0
4, 111840, Note_on_c, 3, 60, 92
4, 111886, Note_on_c, 3, 60, 0
4, 111888, Note_on_c, 3, 60, 92
4, 111936, Note_on_c, 3, 60, 0
4, 111936, Note_on_c, 3, 62, 92
4, 111984, Note_on_c, 3, 62, 0
4, 111984, Note_on_c, 3, 64, 92
4, 112032, Note_on_c, 3, 64, 0
4, 112032, Note_on_c, 3, 62, 92
4, 112126, Note_on_c, 3, 62, 0
4, 112128, Note_on_c, 3, 50, 92
4, 112222, Note_on_c, 3, 50, 0
4, 112224, Note_on_c, 3, 55, 92
4, 112318, Note_on_c, 3, 55, 0
4, 112416, Note_on_c, 3, 60, 45
4, 112510, Note_on_c, 3, 60, 0
4, 112608, Note_on_c, 3, 59, 45
4, 112702, Note_on_c, 3, 59, 0
4, 112800, Note_on_c, 3, 54, 45
4, 112894, Note_on_c, 3, 54, 0
4, 112992, Note_on_c, 3, 55, 45
4, 113086, Note_on_c, 3, 55, 0
4, 113232, Note_on_c, 3, 50, 45
4, 113280, Note_on_c, 3, 50, 0
4, 113280, Note_on_c, 3, 54, 45
4, 113328, Note_on_c, 3, 54, 0
4, 113328, Note_on_c, 3, 50, 45
4, 113374, Note_on_c, 3, 50, 0
4, 113424, Note_on_c, 3, 50, 45
4, 113472, Note_on_c, 3, 50, 0
4, 113472, Note_on_c, 3, 55, 45
4, 113520, Note_on_c, 3, 55, 0
4, 113520, Note_on_c, 3, 50, 45
4, 113566, Note_on_c, 3, 50, 0
4, 113616, Note_on_c, 3, 50, 45
4, 113664, Note_on_c, 3, 50, 0
4, 113664, Note_on_c, 3, 57, 45
4, 113712, Note_on_c, 3, 57, 0
4, 113712, Note_on_c, 3, 50, 45
4, 113758, Note_on_c, 3, 50, 0
4, 113808, Note_on_c, 3, 50, 45
4, 113856, Note_on_c, 3, 50, 0
4, 113856, Note_on_c, 3, 59, 45
4, 113904, Note_on_c, 3, 59, 0
4, 113904, Note_on_c, 3, 50, 45
4, 113950, Note_on_c, 3, 50, 0
4, 113952, Note_on_c, 3, 66, 45
4, 113984, Note_on_c, 3, 66, 0
4, 114000, Note_on_c, 3, 62, 45
4, 114032, Note_on_c, 3, 62, 0
4, 114048, Note_on_c, 3, 66, 45
4, 114080, Note_on_c, 3, 66, 0
4, 114096, Note_on_c, 3, 62, 45
4, 114128, Note_on_c, 3, 62, 0
4, 114144, Note_on_c, 3, 67, 45
4, 114190, Note_on_c, 3, 67, 0
4, 114192, Note_on_c, 3, 62, 45
4, 114238, Note_on_c, 3, 62, 0
4, 114240, Note_on_c, 3, 67, 45
4, 114286, Note_on_c, 3, 67, 0
4, 114288, Note_on_c, 3, 62, 45
4, 114334, Note_on_c, 3, 62, 0
4, 114336, Note_on_c, 3, 69, 45
4, 114382, Note_on_c, 3, 69, 0
4, 114384, Note_on_c, 3, 62, 45
4, 114430, Note_on_c, 3, 62, 0
4, 114432, Note_on_c, 3, 69, 45
4, 114478, Note_on_c, 3, 69, 0
4, 114480, Note_on_c, 3, 62, 45
4, 114526, Note_on_c, 3, 62, 0
4, 114528, Note_on_c, 3, 67, 45
4, 114574, Note_on_c, 3, 67, 0
4, 114576, Note_on_c, 3, 62, 45
4, 114622, Note_on_c, 3, 62, 0
4, 114624, Note_on_c, 3, 67, 45
4, 114670, Note_on_c, 3, 67, 0
4, 114672, Note_on_c, 3, 62, 45
4, 114718, Note_on_c, 3, 62, 0
4, 114720, Note_on_c, 3, 66, 45
4, 114766, Note_on_c, 3, 66, 0
4, 114768, Note_on_c, 3, 62, 45
4, 114814, Note_on_c, 3, 62, 0
4, 114816, Note_on_c, 3, 66, 45
4, 114862, Note_on_c, 3, 66, 0
4, 114864, Note_on_c, 3, 62, 45
4, 114910, Note_on_c, 3, 62, 0
4, 114912, Note_on_c, 3, 67, 45
4, 115006, Note_on_c, 3, 67, 0
4, 115776, Note_on_c, 3, 54, 45
4, 115808, Note_on_c, 3, 54, 0
4, 115872, Note_on_c, 3, 55, 45
4, 115904, Note_on_c, 3, 55, 0
4, 116064, Note_on_c, 3, 59, 45
4, 116158, Note_on_c, 3, 59, 0
4, 116160, Note_on_c, 3, 55, 47
4, 116320, Note_on_c, 3, 55, 0
4, 116352, Note_on_c, 3, 65, 52
4, 116448, Note_on_c, 3, 65, 0
4, 116448, Note_on_c, 3, 64, 54
4, 116542, Note_on_c, 3, 64, 0
4, 116544, Note_on_c, 3, 60, 56
4, 116638, Note_on_c, 3, 60, 0
4, 116640, Note_on_c, 3, 62, 59
4, 116734, Note_on_c, 3, 62, 0
4, 116736, Note_on_c, 3, 62, 62
4, 116926, Note_on_c, 3, 62, 0
4, 116928, Note_on_c, 3, 55, 68
4, 117088, Note_on_c, 3, 55, 0
4, 117120, Note_on_c, 3, 55, 74
4, 117310, Note_on_c, 3, 55, 0
4, 117312, Note_on_c, 3, 55, 80
4, 117472, Note_on_c, 3, 55, 0
4, 117504, Note_on_c, 3, 55, 86
4, 117694, Note_on_c, 3, 55, 0
4, 117696, Note_on_c, 3, 67, 127
4, 117792, Note_on_c, 3, 67, 0
4, 117792, Note_on_c, 3, 66, 92
4, 117888, Note_on_c, 3, 66, 0
4, 117888, Note_on_c, 3, 64, 92
4, 117984, Note_on_c, 3, 64, 0
4, 117984, Note_on_c, 3, 62, 92
4, 118016, Note_on_c, 3, 62, 0
4, 118080, Note_on_c, 3, 55, 127
4, 118176, Note_on_c, 3, 55, 0
4, 118176, Note_on_c, 3, 54, 92
4, 118272, Note_on_c, 3, 54, 0
4, 118272, Note_on_c, 3, 52, 92
4, 118368, Note_on_c, 3, 52, 0
4, 118368, Note_on_c, 3, 50, 92
4, 118400, Note_on_c, 3, 50, 0
4, 118848, Note_on_c, 3, 76, 45
4, 118880, Note_on_c, 3, 76, 0
4, 118944, Note_on_c, 3, 72, 45
4, 118976, Note_on_c, 3, 72, 0
4, 119040, Note_on_c, 3, 74, 45
4, 119072, Note_on_c, 3, 74, 0
4, 119136, Note_on_c, 3, 71, 45
4, 119168, Note_on_c, 3, 71, 0
4, 119232, Note_on_c, 3, 67, 45
4, 119264, Note_on_c, 3, 67, 0
4, 119616, Note_on_c, 3, 55, 45
4, 119776, Note_on_c, 3, 55, 0
4, 119808, Note_on_c, 3, 54, 45
4, 119840, Note_on_c, 3, 54, 0
4, 119904, Note_on_c, 3, 55, 45
4, 119998, Note_on_c, 3, 55, 0
4, 120672, Note_on_c, 3, 55, 45
4, 120864, Note_on_c, 3, 55, 0
4, 120864, Note_on_c, 3, 57, 56
4, 120912, Note_on_c, 3, 57, 0
4, 120912, Note_on_c, 3, 59, 59
4, 120960, Note_on_c, 3, 59, 0
4, 120960, Note_on_c, 3, 60, 62
4, 121008, Note_on_c, 3, 60, 0
4, 121008, Note_on_c, 3, 57, 65
4, 121054, Note_on_c, 3, 57, 0
4, 121056, Note_on_c, 3, 59, 68
4, 121248, Note_on_c, 3, 59, 0
4, 121248, Note_on_c, 3, 60, 80
4, 121296, Note_on_c, 3, 60, 0
4, 121296, Note_on_c, 3, 62, 83
4, 121344, Note_on_c, 3, 62, 0
4, 121344, Note_on_c, 3, 64, 86
4, 121392, Note_on_c, 3, 64, 0
4, 121392, Note_on_c, 3, 60, 89
4, 121438, Note_on_c, 3, 60, 0
4, 121440, Note_on_c, 3, 62, 45
4, 122160, Note_on_c, 3, 62, 0
4, 122208, Note_on_c, 3, 54, 45
4, 122400, Note_on_c, 3, 54, 0
4, 122400, Note_on_c, 3, 55, 45
4, 122448, Note_on_c, 3, 55, 0
4, 122448, Note_on_c, 3, 57, 45
4, 122496, Note_on_c, 3, 57, 0
4, 122496, Note_on_c, 3, 59, 45
4, 122544, Note_on_c, 3, 59, 0
4, 122544, Note_on_c, 3, 55, 45
4, 122590, Note_on_c, 3, 55, 0
4, 122592, Note_on_c, 3, 57, 45
4, 123312, Note_on_c, 3, 57, 0
4, 123360, Note_on_c, 3, 57, 45
4, 123552, Note_on_c, 3, 57, 0
4, 123552, Note_on_c, 3, 59, 45
4, 123600, Note_on_c, 3, 59, 0
4, 123600, Note_on_c, 3, 60, 45
4, 123648, Note_on_c, 3, 60, 0
4, 123648, Note_on_c, 3, 62, 45
4, 123696, Note_on_c, 3, 62, 0
4, 123696, Note_on_c, 3, 59, 45
4, 123742, Note_on_c, 3, 59, 0
4, 123744, Note_on_c, 3, 60, 45
4, 124464, Note_on_c, 3, 60, 0
4, 124512, Note_on_c, 3, 62, 30
4, 124606, Note_on_c, 3, 62, 0
4, 125256, Note_on_c, 3, 59, 60
4, 125278, Note_on_c, 3, 59, 0
4, 125280, Note_on_c, 3, 60, 60
4, 125374, Note_on_c, 3, 60, 0
4, 125448, Note_on_c, 3, 60, 45
4, 125470, Note_on_c, 3, 60, 0
4, 125472, Note_on_c, 3, 57, 45
4, 125566, Note_on_c, 3, 57, 0
4, 125640, Note_on_c, 3, 54, 45
4, 125662, Note_on_c, 3, 54, 0
4, 125664, Note_on_c, 3, 50, 45
4, 125824, Note_on_c, 3, 50, 0
4, 126144, Note_on_c, 3, 76, 30
4, 126176, Note_on_c, 3, 76, 0
4, 126240, Note_on_c, 3, 72, 30
4, 126272, Note_on_c, 3, 72, 0
4, 126336, Note_on_c, 3, 74, 30
4, 126368, Note_on_c, 3, 74, 0
4, 126432, Note_on_c, 3, 71, 30
4, 126464, Note_on_c, 3, 71, 0
4, 126528, Note_on_c, 3, 67, 30
4, 126560, Note_on_c, 3, 67, 0
4, 126720, Note_on_c, 3, 50, 30
4, 126814, Note_on_c, 3, 50, 0
4, 126816, Note_on_c, 3, 55, 30
4, 127008, Note_on_c, 3, 55, 0
4, 127008, Note_on_c, 3, 57, 30
4, 127056, Note_on_c, 3, 57, 0
4, 127056, Note_on_c, 3, 59, 30
4, 127104, Note_on_c, 3, 59, 0
4, 127104, Note_on_c, 3, 60, 30
4, 127152, Note_on_c, 3, 60, 0
4, 127152, Note_on_c, 3, 57, 30
4, 127198, Note_on_c, 3, 57, 0
4, 127200, Note_on_c, 3, 55, 30
4, 127294, Note_on_c, 3, 55, 0
4, 127294, End_track
5, 0, Start_track
5, 0, MIDI_port, 0
5, 0, Title_t, "Violoncello."
5, 0, Program_c, 4, 0
5, 0, Control_c, 4, 7, 127
5, 0, Control_c, 4, 10, 64
5, 0, Note_on_c, 4, 55, 45
5, 544, Note_on_c, 4, 55, 0
5, 2400, Note_on_c, 4, 52, 45
5, 2432, Note_on_c, 4, 52, 0
5, 2496, Note_on_c, 4, 48, 45
5, 2528, Note_on_c, 4, 48, 0
5, 2592, Note_on_c, 4, 50, 45
5, 2624, Note_on_c, 4, 50, 0
5, 2688, Note_on_c, 4, 43, 45
5, 2782, Note_on_c, 4, 43, 0
5, 3072, Note_on_c, 4, 55, 92
5, 3456, Note_on_c, 4, 55, 0
5, 3456, Note_on_c, 4, 57, 92
5, 3550, Note_on_c, 4, 57, 0
5, 3816, Note_on_c, 4, 57, 45
5, 3838, Note_on_c, 4, 57, 0
5, 3840, Note_on_c, 4, 59, 45
5, 3934, Note_on_c, 4, 59, 0
5, 4008, Note_on_c, 4, 59, 45
5, 4030, Note_on_c, 4, 59, 0
5, 4032, Note_on_c, 4, 55, 45
5, 4126, Note_on_c, 4, 55, 0
5, 4200, Note_on_c, 4, 55, 45
5, 4222, Note_on_c, 4, 55, 0
5, 4224, Note_on_c, 4, 50, 45
5, 4318, Note_on_c, 4, 50, 0
5, 4608, Note_on_c, 4, 43, 92
5, 4992, Note_on_c, 4, 43, 0
5, 4992, Note_on_c, 4, 45, 92
5, 5152, Note_on_c, 4, 45, 0
5, 5352, Note_on_c, 4, 45, 45
5, 5374, Note_on_c, 4, 45, 0
5, 5376, Note_on_c, 4, 47, 45
5, 5470, Note_on_c, 4, 47, 0
5, 5544, Note_on_c, 4, 47, 45
5, 5566, Note_on_c, 4, 47, 0
5, 5568, Note_on_c, 4, 43, 45
5, 5662, Note_on_c, 4, 43, 0
5, 5736, Note_on_c, 4, 43, 45
5, 5758, Note_on_c, 4, 43, 0
5, 5760, Note_on_c, 4, 38, 45
5, 5854, Note_on_c, 4, 38, 0
5, 6144, Note_on_c, 4, 64, 45
5, 6336, Note_on_c, 4, 64, 0
5, 6336, Note_on_c, 4, 63, 68
5, 6496, Note_on_c, 4, 63, 0
5, 6528, Note_on_c, 4, 62, 92
5, 6784, Note_on_c, 4, 62, 0
5, 6816, Note_on_c, 4, 54, 92
5, 6910, Note_on_c, 4, 54, 0
5, 6912, Note_on_c, 4, 55, 45
5, 7006, Note_on_c, 4, 55, 0
5, 7080, Note_on_c, 4, 52, 45
5, 7102, Note_on_c, 4, 52, 0
5, 7104, Note_on_c, 4, 48, 45
5, 7198, Note_on_c, 4, 48, 0
5, 7272, Note_on_c, 4, 50, 45
5, 7294, Note_on_c, 4, 50, 0
5, 7296, Note_on_c, 4, 55, 45
5, 7390, Note_on_c, 4, 55, 0
5, 9216, Note_on_c, 4, 47, 92
5, 9264, Note_on_c, 4, 47, 0
5, 9408, Note_on_c, 4, 47, 92
5, 9456, Note_on_c, 4, 47, 0
5, 9600, Note_on_c, 4, 52, 127
5, 9856, Note_on_c, 4, 52, 0
5, 10464, Note_on_c, 4, 47, 45
5, 10496, Note_on_c, 4, 47, 0
5, 10560, Note_on_c, 4, 52, 45
5, 10592, Note_on_c, 4, 52, 0
5, 11232, Note_on_c, 4, 45, 45
5, 11264, Note_on_c, 4, 45, 0
5, 11328, Note_on_c, 4, 50, 45
5, 11360, Note_on_c, 4, 50, 0
5, 11904, Note_on_c, 4, 45, 45
5, 11998, Note_on_c, 4, 45, 0
5, 12096, Note_on_c, 4, 50, 56
5, 12190, Note_on_c, 4, 50, 0
5, 12288, Note_on_c, 4, 45, 68
5, 12382, Note_on_c, 4, 45, 0
5, 12480, Note_on_c, 4, 50, 80
5, 12574, Note_on_c, 4, 50, 0
5, 12672, Note_on_c, 4, 45, 92
5, 12832, Note_on_c, 4, 45, 0
5, 12960, Note_on_c, 4, 45, 92
5, 12981, Note_on_c, 4, 45, 0
5, 12992, Note_on_c, 4, 49, 92
5, 13013, Note_on_c, 4, 49, 0
5, 13024, Note_on_c, 4, 52, 92
5, 13045, Note_on_c, 4, 52, 0
5, 13440, Note_on_c, 4, 62, 45
5, 13488, Note_on_c, 4, 62, 0
5, 13632, Note_on_c, 4, 67, 45
5, 13680, Note_on_c, 4, 67, 0
5, 13824, Note_on_c, 4, 66, 63
5, 14080, Note_on_c, 4, 66, 0
5, 14112, Note_on_c, 4, 61, 45
5, 14144, Note_on_c, 4, 61, 0
5, 14208, Note_on_c, 4, 62, 45
5, 14240, Note_on_c, 4, 62, 0
5, 14304, Note_on_c, 4, 58, 45
5, 14336, Note_on_c, 4, 58, 0
5, 14400, Note_on_c, 4, 59, 45
5, 14432, Note_on_c, 4, 59, 0
5, 14496, Note_on_c, 4, 56, 45
5, 14528, Note_on_c, 4, 56, 0
5, 14592, Note_on_c, 4, 57, 45
5, 14686, Note_on_c, 4, 57, 0
5, 14976, Note_on_c, 4, 64, 45
5, 15024, Note_on_c, 4, 64, 0
5, 15168, Note_on_c, 4, 69, 45
5, 15216, Note_on_c, 4, 69, 0
5, 15360, Note_on_c, 4, 67, 63
5, 15616, Note_on_c, 4, 67, 0
5, 15648, Note_on_c, 4, 67, 45
5, 15744, Note_on_c, 4, 67, 0
5, 15744, Note_on_c, 4, 66, 45
5, 15776, Note_on_c, 4, 66, 0
5, 15840, Note_on_c, 4, 67, 45
5, 15872, Note_on_c, 4, 67, 0
5, 15936, Note_on_c, 4, 69, 45
5, 15968, Note_on_c, 4, 69, 0
5, 16032, Note_on_c, 4, 57, 45
5, 16064, Note_on_c, 4, 57, 0
5, 16128, Note_on_c, 4, 62, 45
5, 16288, Note_on_c, 4, 62, 0
5, 16512, Note_on_c, 4, 50, 45
5, 16560, Note_on_c, 4, 50, 0
5, 16704, Note_on_c, 4, 55, 45
5, 16752, Note_on_c, 4, 55, 0
5, 16896, Note_on_c, 4, 54, 63
5, 17152, Note_on_c, 4, 54, 0
5, 17184, Note_on_c, 4, 52, 45
5, 17216, Note_on_c, 4, 52, 0
5, 17280, Note_on_c, 4, 50, 45
5, 17312, Note_on_c, 4, 50, 0
5, 17376, Note_on_c, 4, 49, 45
5, 17408, Note_on_c, 4, 49, 0
5, 17472, Note_on_c, 4, 47, 45
5, 17504, Note_on_c, 4, 47, 0
5, 17568, Note_on_c, 4, 40, 45
5, 17600, Note_on_c, 4, 40, 0
5, 17664, Note_on_c, 4, 45, 45
5, 17758, Note_on_c, 4, 45, 0
5, 18048, Note_on_c, 4, 52, 45
5, 18096, Note_on_c, 4, 52, 0
5, 18240, Note_on_c, 4, 57, 45
5, 18288, Note_on_c, 4, 57, 0
5, 18432, Note_on_c, 4, 55, 63
5, 18688, Note_on_c, 4, 55, 0
5, 18720, Note_on_c, 4, 54, 45
5, 18814, Note_on_c, 4, 54, 0
5, 18816, Note_on_c, 4, 52, 92
5, 18848, Note_on_c, 4, 52, 0
5, 18912, Note_on_c, 4, 54, 81
5, 18944, Note_on_c, 4, 54, 0
5, 19008, Note_on_c, 4, 55, 69
5, 19040, Note_on_c, 4, 55, 0
5, 19104, Note_on_c, 4, 55, 57
5, 19136, Note_on_c, 4, 55, 0
5, 19200, Note_on_c, 4, 54, 45
5, 19294, Note_on_c, 4, 54, 0
5, 19440, Note_on_c, 4, 42, 45
5, 19472, Note_on_c, 4, 42, 0
5, 19488, Note_on_c, 4, 44, 45
5, 19520, Note_on_c, 4, 44, 0
5, 19536, Note_on_c, 4, 46, 45
5, 19568, Note_on_c, 4, 46, 0
5, 19584, Note_on_c, 4, 47, 45
5, 19678, Note_on_c, 4, 47, 0
5, 19680, Note_on_c, 4, 47, 45
5, 19774, Note_on_c, 4, 47, 0
5, 19824, Note_on_c, 4, 42, 45
5, 19856, Note_on_c, 4, 42, 0
5, 19872, Note_on_c, 4, 44, 45
5, 19904, Note_on_c, 4, 44, 0
5, 19920, Note_on_c, 4, 46, 45
5, 19952, Note_on_c, 4, 46, 0
5, 19968, Note_on_c, 4, 47, 45
5, 20062, Note_on_c, 4, 47, 0
5, 20064, Note_on_c, 4, 47, 45
5, 20158, Note_on_c, 4, 47, 0
5, 20208, Note_on_c, 4, 42, 45
5, 20240, Note_on_c, 4, 42, 0
5, 20256, Note_on_c, 4, 44, 45
5, 20288, Note_on_c, 4, 44, 0
5, 20304, Note_on_c, 4, 46, 46
5, 20336, Note_on_c, 4, 46, 0
5, 20352, Note_on_c, 4, 47, 47
5, 20446, Note_on_c, 4, 47, 0
5, 20448, Note_on_c, 4, 47, 49
5, 20542, Note_on_c, 4, 47, 0
5, 20544, Note_on_c, 4, 57, 71
5, 20704, Note_on_c, 4, 57, 0
5, 20736, Note_on_c, 4, 55, 55
5, 20832, Note_on_c, 4, 55, 0
5, 20832, Note_on_c, 4, 52, 57
5, 20904, Note_on_c, 4, 52, 0
5, 20904, Note_on_c, 4, 55, 58
5, 20926, Note_on_c, 4, 55, 0
5, 21024, Note_on_c, 4, 45, 60
5, 21118, Note_on_c, 4, 45, 0
5, 21120, Note_on_c, 4, 50, 62
5, 21214, Note_on_c, 4, 50, 0
5, 21360, Note_on_c, 4, 42, 67
5, 21392, Note_on_c, 4, 42, 0
5, 21408, Note_on_c, 4, 44, 68
5, 21440, Note_on_c, 4, 44, 0
5, 21456, Note_on_c, 4, 46, 69
5, 21488, Note_on_c, 4, 46, 0
5, 21504, Note_on_c, 4, 47, 70
5, 21598, Note_on_c, 4, 47, 0
5, 21600, Note_on_c, 4, 47, 72
5, 21694, Note_on_c, 4, 47, 0
5, 21744, Note_on_c, 4, 42, 75
5, 21776, Note_on_c, 4, 42, 0
5, 21792, Note_on_c, 4, 44, 76
5, 21824, Note_on_c, 4, 44, 0
5, 21840, Note_on_c, 4, 46, 77
5, 21872, Note_on_c, 4, 46, 0
5, 21888, Note_on_c, 4, 47, 78
5, 21982, Note_on_c, 4, 47, 0
5, 21984, Note_on_c, 4, 47, 80
5, 22078, Note_on_c, 4, 47, 0
5, 22128, Note_on_c, 4, 42, 83
5, 22160, Note_on_c, 4, 42, 0
5, 22176, Note_on_c, 4, 44, 84
5, 22208, Note_on_c, 4, 44, 0
5, 22224, Note_on_c, 4, 46, 85
5, 22256, Note_on_c, 4, 46, 0
5, 22272, Note_on_c, 4, 47, 86
5, 22366, Note_on_c, 4, 47, 0
5, 22368, Note_on_c, 4, 47, 89
5, 22462, Note_on_c, 4, 47, 0
5, 22464, Note_on_c, 4, 45, 127
5, 22656, Note_on_c, 4, 45, 0
5, 22656, Note_on_c, 4, 43, 92
5, 22702, Note_on_c, 4, 43, 0
5, 22704, Note_on_c, 4, 40, 92
5, 22752, Note_on_c, 4, 40, 0
5, 22752, Note_on_c, 4, 42, 92
5, 22800, Note_on_c, 4, 42, 0
5, 22800, Note_on_c, 4, 43, 92
5, 22846, Note_on_c, 4, 43, 0
5, 22848, Note_on_c, 4, 45, 92
5, 22942, Note_on_c, 4, 45, 0
5, 22944, Note_on_c, 4, 45, 92
5, 23038, Note_on_c, 4, 45, 0
5, 23040, Note_on_c, 4, 38, 92
5, 23134, Note_on_c, 4, 38, 0
5, 23232, Note_on_c, 4, 55, 45
5, 23326, Note_on_c, 4, 55, 0
5, 23424, Note_on_c, 4, 54, 45
5, 23518, Note_on_c, 4, 54, 0
5, 23616, Note_on_c, 4, 49, 45
5, 23710, Note_on_c, 4, 49, 0
5, 23808, Note_on_c, 4, 50, 45
5, 23902, Note_on_c, 4, 50, 0
5, 24000, Note_on_c, 4, 55, 45
5, 24094, Note_on_c, 4, 55, 0
5, 24192, Note_on_c, 4, 54, 45
5, 24286, Note_on_c, 4, 54, 0
5, 24384, Note_on_c, 4, 45, 45
5, 24478, Note_on_c, 4, 45, 0
5, 24576, Note_on_c, 4, 38, 45
5, 24670, Note_on_c, 4, 38, 0
5, 24768, Note_on_c, 4, 55, 45
5, 24862, Note_on_c, 4, 55, 0
5, 24960, Note_on_c, 4, 54, 45
5, 25054, Note_on_c, 4, 54, 0
5, 25152, Note_on_c, 4, 49, 45
5, 25246, Note_on_c, 4, 49, 0
5, 25344, Note_on_c, 4, 50, 45
5, 25438, Note_on_c, 4, 50, 0
5, 25536, Note_on_c, 4, 55, 45
5, 25630, Note_on_c, 4, 55, 0
5, 25728, Note_on_c, 4, 54, 45
5, 25822, Note_on_c, 4, 54, 0
5, 26592, Note_on_c, 4, 45, 45
5, 26624, Note_on_c, 4, 45, 0
5, 26688, Note_on_c, 4, 47, 45
5, 26720, Note_on_c, 4, 47, 0
5, 26784, Note_on_c, 4, 49, 45
5, 26816, Note_on_c, 4, 49, 0
5, 26880, Note_on_c, 4, 50, 45
5, 26912, Note_on_c, 4, 50, 0
5, 26976, Note_on_c, 4, 48, 47
5, 27008, Note_on_c, 4, 48, 0
5, 27072, Note_on_c, 4, 47, 49
5, 27104, Note_on_c, 4, 47, 0
5, 27168, Note_on_c, 4, 42, 51
5, 27200, Note_on_c, 4, 42, 0
5, 27264, Note_on_c, 4, 43, 53
5, 27296, Note_on_c, 4, 43, 0
5, 27360, Note_on_c, 4, 40, 55
5, 27392, Note_on_c, 4, 40, 0
5, 27456, Note_on_c, 4, 42, 57
5, 27488, Note_on_c, 4, 42, 0
5, 27552, Note_on_c, 4, 37, 59
5, 27584, Note_on_c, 4, 37, 0
5, 27648, Note_on_c, 4, 38, 61
5, 27680, Note_on_c, 4, 38, 0
5, 27744, Note_on_c, 4, 46, 63
5, 27776, Note_on_c, 4, 46, 0
5, 27840, Note_on_c, 4, 47, 65
5, 27872, Note_on_c, 4, 47, 0
5, 27936, Note_on_c, 4, 44, 67
5, 27968, Note_on_c, 4, 44, 0
5, 28032, Note_on_c, 4, 45, 69
5, 28064, Note_on_c, 4, 45, 0
5, 28128, Note_on_c, 4, 46, 71
5, 28160, Note_on_c, 4, 46, 0
5, 28224, Note_on_c, 4, 47, 73
5, 28256, Note_on_c, 4, 47, 0
5, 28320, Note_on_c, 4, 44, 75
5, 28352, Note_on_c, 4, 44, 0
5, 28416, Note_on_c, 4, 45, 77
5, 28894, Note_on_c, 4, 45, 0
5, 28896, Note_on_c, 4, 50, 127
5, 28992, Note_on_c, 4, 50, 0
5, 28992, Note_on_c, 4, 49, 92
5, 29088, Note_on_c, 4, 49, 0
5, 29088, Note_on_c, 4, 47, 92
5, 29184, Note_on_c, 4, 47, 0
5, 29184, Note_on_c, 4, 45, 92
5, 29216, Note_on_c, 4, 45, 0
5, 30432, Note_on_c, 4, 47, 45
5, 30464, Note_on_c, 4, 47, 0
5, 30528, Note_on_c, 4, 43, 45
5, 30560, Note_on_c, 4, 43, 0
5, 30624, Note_on_c, 4, 45, 45
5, 30656, Note_on_c, 4, 45, 0
5, 30720, Note_on_c, 4, 38, 45
5, 30880, Note_on_c, 4, 38, 0
5, 31104, Note_on_c, 4, 55, 45
5, 31648, Note_on_c, 4, 55, 0
5, 33504, Note_on_c, 4, 52, 45
5, 33536, Note_on_c, 4, 52, 0
5, 33600, Note_on_c, 4, 48, 45
5, 33632, Note_on_c, 4, 48, 0
5, 33696, Note_on_c, 4, 50, 45
5, 33728, Note_on_c, 4, 50, 0
5, 33792, Note_on_c, 4, 43, 45
5, 33886, Note_on_c, 4, 43, 0
5, 34176, Note_on_c, 4, 55, 92
5, 34560, Note_on_c, 4, 55, 0
5, 34560, Note_on_c, 4, 57, 92
5, 34654, Note_on_c, 4, 57, 0
5, 34920, Note_on_c, 4, 57, 45
5, 34942, Note_on_c, 4, 57, 0
5, 34944, Note_on_c, 4, 59, 45
5, 35038, Note_on_c, 4, 59, 0
5, 35112, Note_on_c, 4, 59, 45
5, 35134, Note_on_c, 4, 59, 0
5, 35136, Note_on_c, 4, 55, 45
5, 35230, Note_on_c, 4, 55, 0
5, 35304, Note_on_c, 4, 55, 45
5, 35326, Note_on_c, 4, 55, 0
5, 35328, Note_on_c, 4, 50, 45
5, 35422, Note_on_c, 4, 50, 0
5, 35712, Note_on_c, 4, 43, 92
5, 36096, Note_on_c, 4, 43, 0
5, 36096, Note_on_c, 4, 45, 92
5, 36256, Note_on_c, 4, 45, 0
5, 36456, Note_on_c, 4, 45, 45
5, 36478, Note_on_c, 4, 45, 0
5, 36480, Note_on_c, 4, 47, 45
5, 36574, Note_on_c, 4, 47, 0
5, 36648, Note_on_c, 4, 47, 45
5, 36670, Note_on_c, 4, 47, 0
5, 36672, Note_on_c, 4, 43, 45
5, 36766, Note_on_c, 4, 43, 0
5, 36840, Note_on_c, 4, 43, 45
5, 36862, Note_on_c, 4, 43, 0
5, 36864, Note_on_c, 4, 38, 45
5, 36958, Note_on_c, 4, 38, 0
5, 37248, Note_on_c, 4, 64, 45
5, 37440, Note_on_c, 4, 64, 0
5, 37440, Note_on_c, 4, 63, 68
5, 37600, Note_on_c, 4, 63, 0
5, 37632, Note_on_c, 4, 62, 92
5, 37888, Note_on_c, 4, 62, 0
5, 37920, Note_on_c, 4, 54, 92
5, 38014, Note_on_c, 4, 54, 0
5, 38016, Note_on_c, 4, 55, 45
5, 38110, Note_on_c, 4, 55, 0
5, 38184, Note_on_c, 4, 52, 45
5, 38206, Note_on_c, 4, 52, 0
5, 38208, Note_on_c, 4, 48, 45
5, 38302, Note_on_c, 4, 48, 0
5, 38376, Note_on_c, 4, 50, 45
5, 38398, Note_on_c, 4, 50, 0
5, 38400, Note_on_c, 4, 55, 45
5, 38494, Note_on_c, 4, 55, 0
5, 40320, Note_on_c, 4, 47, 92
5, 40368, Note_on_c, 4, 47, 0
5, 40512, Note_on_c, 4, 47, 92
5, 40560, Note_on_c, 4, 47, 0
5, 40704, Note_on_c, 4, 52, 127
5, 40960, Note_on_c, 4, 52, 0
5, 41568, Note_on_c, 4, 47, 45
5, 41600, Note_on_c, 4, 47, 0
5, 41664, Note_on_c, 4, 52, 45
5, 41696, Note_on_c, 4, 52, 0
5, 42336, Note_on_c, 4, 45, 45
5, 42368, Note_on_c, 4, 45, 0
5, 42432, Note_on_c, 4, 50, 45
5, 42464, Note_on_c, 4, 50, 0
5, 43008, Note_on_c, 4, 45, 45
5, 43102, Note_on_c, 4, 45, 0
5, 43200, Note_on_c, 4, 50, 56
5, 43294, Note_on_c, 4, 50, 0
5, 43392, Note_on_c, 4, 45, 68
5, 43486, Note_on_c, 4, 45, 0
5, 43584, Note_on_c, 4, 50, 80
5, 43678, Note_on_c, 4, 50, 0
5, 43776, Note_on_c, 4, 45, 92
5, 43936, Note_on_c, 4, 45, 0
5, 44064, Note_on_c, 4, 45, 92
5, 44085, Note_on_c, 4, 45, 0
5, 44096, Note_on_c, 4, 49, 92
5, 44117, Note_on_c, 4, 49, 0
5, 44128, Note_on_c, 4, 52, 92
5, 44149, Note_on_c, 4, 52, 0
5, 44544, Note_on_c, 4, 62, 45
5, 44592, Note_on_c, 4, 62, 0
5, 44736, Note_on_c, 4, 67, 45
5, 44784, Note_on_c, 4, 67, 0
5, 44928, Note_on_c, 4, 66, 63
5, 45184, Note_on_c, 4, 66, 0
5, 45216, Note_on_c, 4, 61, 45
5, 45248, Note_on_c, 4, 61, 0
5, 45312, Note_on_c, 4, 62, 45
5, 45344, Note_on_c, 4, 62, 0
5, 45408, Note_on_c, 4, 58, 45
5, 45440, Note_on_c, 4, 58, 0
5, 45504, Note_on_c, 4, 59, 45
5, 45536, Note_on_c, 4, 59, 0
5, 45600, Note_on_c, 4, 56, 45
5, 45632, Note_on_c, 4, 56, 0
5, 45696, Note_on_c, 4, 57, 45
5, 45790, Note_on_c, 4, 57, 0
5, 46080, Note_on_c, 4, 64, 45
5, 46128, Note_on_c, 4, 64, 0
5, 46272, Note_on_c, 4, 69, 45
5, 46320, Note_on_c, 4, 69, 0
5, 46464, Note_on_c, 4, 67, 63
5, 46720, Note_on_c, 4, 67, 0
5, 46752, Note_on_c, 4, 67, 45
5, 46848, Note_on_c, 4, 67, 0
5, 46848, Note_on_c, 4, 66, 45
5, 46880, Note_on_c, 4, 66, 0
5, 46944, Note_on_c, 4, 67, 45
5, 46976, Note_on_c, 4, 67, 0
5, 47040, Note_on_c, 4, 69, 45
5, 47072, Note_on_c, 4, 69, 0
5, 47136, Note_on_c, 4, 57, 45
5, 47168, Note_on_c, 4, 57, 0
5, 47232, Note_on_c, 4, 62, 45
5, 47392, Note_on_c, 4, 62, 0
5, 47616, Note_on_c, 4, 50, 45
5, 47664, Note_on_c, 4, 50, 0
5, 47808, Note_on_c, 4, 55, 45
5, 47856, Note_on_c, 4, 55, 0
5, 48000, Note_on_c, 4, 54, 63
5, 48256, Note_on_c, 4, 54, 0
5, 48288, Note_on_c, 4, 52, 45
5, 48320, Note_on_c, 4, 52, 0
5, 48384, Note_on_c, 4, 50, 45
5, 48416, Note_on_c, 4, 50, 0
5, 48480, Note_on_c, 4, 49, 45
5, 48512, Note_on_c, 4, 49, 0
5, 48576, Note_on_c, 4, 47, 45
5, 48608, Note_on_c, 4, 47, 0
5, 48672, Note_on_c, 4, 40, 45
5, 48704, Note_on_c, 4, 40, 0
5, 48768, Note_on_c, 4, 45, 45
5, 48862, Note_on_c, 4, 45, 0
5, 49152, Note_on_c, 4, 52, 45
5, 49200, Note_on_c, 4, 52, 0
5, 49344, Note_on_c, 4, 57, 45
5, 49392, Note_on_c, 4, 57, 0
5, 49536, Note_on_c, 4, 55, 63
5, 49792, Note_on_c, 4, 55, 0
5, 49824, Note_on_c, 4, 54, 45
5, 49918, Note_on_c, 4, 54, 0
5, 49920, Note_on_c, 4, 52, 92
5, 49952, Note_on_c, 4, 52, 0
5, 50016, Note_on_c, 4, 54, 81
5, 50048, Note_on_c, 4, 54, 0
5, 50112, Note_on_c, 4, 55, 69
5, 50144, Note_on_c, 4, 55, 0
5, 50208, Note_on_c, 4, 55, 57
5, 50240, Note_on_c, 4, 55, 0
5, 50304, Note_on_c, 4, 54, 45
5, 50398, Note_on_c, 4, 54, 0
5, 50544, Note_on_c, 4, 42, 45
5, 50576, Note_on_c, 4, 42, 0
5, 50592, Note_on_c, 4, 44, 45
5, 50624, Note_on_c, 4, 44, 0
5, 50640, Note_on_c, 4, 46, 45
5, 50672, Note_on_c, 4, 46, 0
5, 50688, Note_on_c, 4, 47, 45
5, 50782, Note_on_c, 4, 47, 0
5, 50784, Note_on_c, 4, 47, 45
5, 50878, Note_on_c, 4, 47, 0
5, 50928, Note_on_c, 4, 42, 45
5, 50960, Note_on_c, 4, 42, 0
5, 50976, Note_on_c, 4, 44, 45
5, 51008, Note_on_c, 4, 44, 0
5, 51024, Note_on_c, 4, 46, 45
5, 51056, Note_on_c, 4, 46, 0
5, 51072, Note_on_c, 4, 47, 45
5, 51166, Note_on_c, 4, 47, 0
5, 51168, Note_on_c, 4, 47, 45
5, 51262, Note_on_c, 4, 47, 0
5, 51312, Note_on_c, 4, 42, 45
5, 51344, Note_on_c, 4, 42, 0
5, 51360, Note_on_c, 4, 44, 45
5, 51392, Note_on_c, 4, 44, 0
5, 51408, Note_on_c, 4, 46, 46
5, 51440, Note_on_c, 4, 46, 0
5, 51456, Note_on_c, 4, 47, 47
5, 51550, Note_on_c, 4, 47, 0
5, 51552, Note_on_c, 4, 47, 49
5, 51646, Note_on_c, 4, 47, 0
5, 51648, Note_on_c, 4, 57, 71
5, 51808, Note_on_c, 4, 57, 0
5, 51840, Note_on_c, 4, 55, 55
5, 51936, Note_on_c, 4, 55, 0
5, 51936, Note_on_c, 4, 52, 57
5, 52008, Note_on_c, 4, 52, 0
5, 52008, Note_on_c, 4, 55, 58
5, 52030, Note_on_c, 4, 55, 0
5, 52128, Note_on_c, 4, 45, 60
5, 52222, Note_on_c, 4, 45, 0
5, 52224, Note_on_c, 4, 50, 62
5, 52318, Note_on_c, 4, 50, 0
5, 52464, Note_on_c, 4, 42, 67
5, 52496, Note_on_c, 4, 42, 0
5, 52512, Note_on_c, 4, 44, 68
5, 52544, Note_on_c, 4, 44, 0
5, 52560, Note_on_c, 4, 46, 69
5, 52592, Note_on_c, 4, 46, 0
5, 52608, Note_on_c, 4, 47, 70
5, 52702, Note_on_c, 4, 47, 0
5, 52704, Note_on_c, 4, 47, 72
5, 52798, Note_on_c, 4, 47, 0
5, 52848, Note_on_c, 4, 42, 75
5, 52880, Note_on_c, 4, 42, 0
5, 52896, Note_on_c, 4, 44, 76
5, 52928, Note_on_c, 4, 44, 0
5, 52944, Note_on_c, 4, 46, 77
5, 52976, Note_on_c, 4, 46, 0
5, 52992, Note_on_c, 4, 47, 78
5, 53086, Note_on_c, 4, 47, 0
5, 53088, Note_on_c, 4, 47, 80
5, 53182, Note_on_c, 4, 47, 0
5, 53232, Note_on_c, 4, 42, 83
5, 53264, Note_on_c, 4, 42, 0
5, 53280, Note_on_c, 4, 44, 84
5, 53312, Note_on_c, 4, 44, 0
5, 53328, Note_on_c, 4, 46, 85
5, 53360, Note_on_c, 4, 46, 0
5, 53376, Note_on_c, 4, 47, 86
5, 53470, Note_on_c, 4, 47, 0
5, 53472, Note_on_c, 4, 47, 89
5, 53566, Note_on_c, 4, 47, 0
5, 53568, Note_on_c, 4, 45, 127
5, 53760, Note_on_c, 4, 45, 0
5, 53760, Note_on_c, 4, 43, 92
5, 53806, Note_on_c, 4, 43, 0
5, 53808, Note_on_c, 4, 40, 92
5, 53856, Note_on_c, 4, 40, 0
5, 53856, Note_on_c, 4, 42, 92
5, 53904, Note_on_c, 4, 42, 0
5, 53904, Note_on_c, 4, 43, 92
5, 53950, Note_on_c, 4, 43, 0
5, 53952, Note_on_c, 4, 45, 92
5, 54046, Note_on_c, 4, 45, 0
5, 54048, Note_on_c, 4, 45, 92
5, 54142, Note_on_c, 4, 45, 0
5, 54144, Note_on_c, 4, 38, 92
5, 54238, Note_on_c, 4, 38, 0
5, 54336, Note_on_c, 4, 55, 45
5, 54430, Note_on_c, 4, 55, 0
5, 54528, Note_on_c, 4, 54, 45
5, 54622, Note_on_c, 4, 54, 0
5, 54720, Note_on_c, 4, 49, 45
5, 54814, Note_on_c, 4, 49, 0
5, 54912, Note_on_c, 4, 50, 45
5, 55006, Note_on_c, 4, 50, 0
5, 55104, Note_on_c, 4, 55, 45
5, 55198, Note_on_c, 4, 55, 0
5, 55296, Note_on_c, 4, 54, 45
5, 55390, Note_on_c, 4, 54, 0
5, 55488, Note_on_c, 4, 45, 45
5, 55582, Note_on_c, 4, 45, 0
5, 55680, Note_on_c, 4, 38, 45
5, 55774, Note_on_c, 4, 38, 0
5, 55872, Note_on_c, 4, 55, 45
5, 55966, Note_on_c, 4, 55, 0
5, 56064, Note_on_c, 4, 54, 45
5, 56158, Note_on_c, 4, 54, 0
5, 56256, Note_on_c, 4, 49, 45
5, 56350, Note_on_c, 4, 49, 0
5, 56448, Note_on_c, 4, 50, 45
5, 56542, Note_on_c, 4, 50, 0
5, 56640, Note_on_c, 4, 55, 45
5, 56734, Note_on_c, 4, 55, 0
5, 56832, Note_on_c, 4, 54, 45
5, 56926, Note_on_c, 4, 54, 0
5, 57696, Note_on_c, 4, 45, 45
5, 57728, Note_on_c, 4, 45, 0
5, 57792, Note_on_c, 4, 47, 45
5, 57824, Note_on_c, 4, 47, 0
5, 57888, Note_on_c, 4, 49, 45
5, 57920, Note_on_c, 4, 49, 0
5, 57984, Note_on_c, 4, 50, 45
5, 58016, Note_on_c, 4, 50, 0
5, 58080, Note_on_c, 4, 48, 47
5, 58112, Note_on_c, 4, 48, 0
5, 58176, Note_on_c, 4, 47, 49
5, 58208, Note_on_c, 4, 47, 0
5, 58272, Note_on_c, 4, 42, 51
5, 58304, Note_on_c, 4, 42, 0
5, 58368, Note_on_c, 4, 43, 53
5, 58400, Note_on_c, 4, 43, 0
5, 58464, Note_on_c, 4, 40, 55
5, 58496, Note_on_c, 4, 40, 0
5, 58560, Note_on_c, 4, 42, 57
5, 58592, Note_on_c, 4, 42, 0
5, 58656, Note_on_c, 4, 37, 59
5, 58688, Note_on_c, 4, 37, 0
5, 58752, Note_on_c, 4, 38, 61
5, 58784, Note_on_c, 4, 38, 0
5, 58848, Note_on_c, 4, 46, 63
5, 58880, Note_on_c, 4, 46, 0
5, 58944, Note_on_c, 4, 47, 65
5, 58976, Note_on_c, 4, 47, 0
5, 59040, Note_on_c, 4, 44, 67
5, 59072, Note_on_c, 4, 44, 0
5, 59136, Note_on_c, 4, 45, 69
5, 59168, Note_on_c, 4, 45, 0
5, 59232, Note_on_c, 4, 46, 71
5, 59264, Note_on_c, 4, 46, 0
5, 59328, Note_on_c, 4, 47, 73
5, 59360, Note_on_c, 4, 47, 0
5, 59424, Note_on_c, 4, 44, 75
5, 59456, Note_on_c, 4, 44, 0
5, 59520, Note_on_c, 4, 45, 77
5, 59998, Note_on_c, 4, 45, 0
5, 60000, Note_on_c, 4, 50, 127
5, 60096, Note_on_c, 4, 50, 0
5, 60096, Note_on_c, 4, 49, 92
5, 60192, Note_on_c, 4, 49, 0
5, 60192, Note_on_c, 4, 47, 92
5, 60288, Note_on_c, 4, 47, 0
5, 60288, Note_on_c, 4, 45, 92
5, 60320, Note_on_c, 4, 45, 0
5, 61536, Note_on_c, 4, 47, 45
5, 61568, Note_on_c, 4, 47, 0
5, 61632, Note_on_c, 4, 43, 45
5, 61664, Note_on_c, 4, 43, 0
5, 61728, Note_on_c, 4, 45, 45
5, 61760, Note_on_c, 4, 45, 0
5, 61824, Note_on_c, 4, 38, 45
5, 61984, Note_on_c, 4, 38, 0
5, 63168, Note_on_c, 4, 58, 92
5, 63200, Note_on_c, 4, 58, 0
5, 63264, Note_on_c, 4, 55, 92
5, 63296, Note_on_c, 4, 55, 0
5, 63360, Note_on_c, 4, 57, 92
5, 63392, Note_on_c, 4, 57, 0
5, 63456, Note_on_c, 4, 50, 92
5, 63550, Note_on_c, 4, 50, 0
5, 63840, Note_on_c, 4, 45, 92
5, 63888, Note_on_c, 4, 45, 0
5, 64032, Note_on_c, 4, 45, 92
5, 64080, Note_on_c, 4, 45, 0
5, 64224, Note_on_c, 4, 50, 127
5, 64480, Note_on_c, 4, 50, 0
5, 64512, Note_on_c, 4, 50, 45
5, 64606, Note_on_c, 4, 50, 0
5, 64608, Note_on_c, 4, 52, 45
5, 64640, Note_on_c, 4, 52, 0
5, 64704, Note_on_c, 4, 52, 45
5, 64736, Note_on_c, 4, 52, 0
5, 64800, Note_on_c, 4, 50, 45
5, 64832, Note_on_c, 4, 50, 0
5, 64896, Note_on_c, 4, 50, 45
5, 64928, Note_on_c, 4, 50, 0
5, 64992, Note_on_c, 4, 45, 45
5, 65086, Note_on_c, 4, 45, 0
5, 65376, Note_on_c, 4, 41, 92
5, 65424, Note_on_c, 4, 41, 0
5, 65568, Note_on_c, 4, 41, 92
5, 65616, Note_on_c, 4, 41, 0
5, 65760, Note_on_c, 4, 46, 127
5, 66016, Note_on_c, 4, 46, 0
5, 66624, Note_on_c, 4, 41, 45
5, 66656, Note_on_c, 4, 41, 0
5, 66720, Note_on_c, 4, 48, 45
5, 66752, Note_on_c, 4, 48, 0
5, 67392, Note_on_c, 4, 43, 45
5, 67424, Note_on_c, 4, 43, 0
5, 67488, Note_on_c, 4, 51, 45
5, 67582, Note_on_c, 4, 51, 0
5, 67584, Note_on_c, 4, 55, 92
5, 67632, Note_on_c, 4, 55, 0
5, 67632, Note_on_c, 4, 51, 92
5, 67678, Note_on_c, 4, 51, 0
5, 67680, Note_on_c, 4, 51, 92
5, 67728, Note_on_c, 4, 51, 0
5, 67728, Note_on_c, 4, 50, 92
5, 67774, Note_on_c, 4, 50, 0
5, 67776, Note_on_c, 4, 53, 92
5, 67824, Note_on_c, 4, 53, 0
5, 67824, Note_on_c, 4, 50, 92
5, 67870, Note_on_c, 4, 50, 0
5, 67872, Note_on_c, 4, 53, 92
5, 67920, Note_on_c, 4, 53, 0
5, 67920, Note_on_c, 4, 51, 92
5, 67966, Note_on_c, 4, 51, 0
5, 67968, Note_on_c, 4, 55, 92
5, 68016, Note_on_c, 4, 55, 0
5, 68016, Note_on_c, 4, 51, 92
5, 68062, Note_on_c, 4, 51, 0
5, 68064, Note_on_c, 4, 58, 92
5, 68224, Note_on_c, 4, 58, 0
5, 68352, Note_on_c, 4, 55, 45
5, 68400, Note_on_c, 4, 55, 0
5, 68400, Note_on_c, 4, 51, 45
5, 68446, Note_on_c, 4, 51, 0
5, 68448, Note_on_c, 4, 58, 45
5, 68608, Note_on_c, 4, 58, 0
5, 68736, Note_on_c, 4, 43, 45
5, 68784, Note_on_c, 4, 43, 0
5, 68784, Note_on_c, 4, 39, 45
5, 68830, Note_on_c, 4, 39, 0
5, 68832, Note_on_c, 4, 46, 45
5, 68864, Note_on_c, 4, 46, 0
5, 68928, Note_on_c, 4, 43, 50
5, 68976, Note_on_c, 4, 43, 0
5, 68976, Note_on_c, 4, 39, 53
5, 69022, Note_on_c, 4, 39, 0
5, 69024, Note_on_c, 4, 46, 56
5, 69056, Note_on_c, 4, 46, 0
5, 69120, Note_on_c, 4, 43, 62
5, 69168, Note_on_c, 4, 43, 0
5, 69168, Note_on_c, 4, 39, 65
5, 69214, Note_on_c, 4, 39, 0
5, 69216, Note_on_c, 4, 46, 68
5, 69310, Note_on_c, 4, 46, 0
5, 69600, Note_on_c, 4, 51, 92
5, 69984, Note_on_c, 4, 51, 0
5, 69984, Note_on_c, 4, 53, 92
5, 70144, Note_on_c, 4, 53, 0
5, 70344, Note_on_c, 4, 53, 92
5, 70366, Note_on_c, 4, 53, 0
5, 70368, Note_on_c, 4, 55, 92
5, 70462, Note_on_c, 4, 55, 0
5, 70536, Note_on_c, 4, 55, 92
5, 70558, Note_on_c, 4, 55, 0
5, 70560, Note_on_c, 4, 51, 92
5, 70654, Note_on_c, 4, 51, 0
5, 70728, Note_on_c, 4, 51, 92
5, 70750, Note_on_c, 4, 51, 0
5, 70752, Note_on_c, 4, 46, 92
5, 70846, Note_on_c, 4, 46, 0
5, 71136, Note_on_c, 4, 55, 30
5, 71230, Note_on_c, 4, 55, 0
5, 71304, Note_on_c, 4, 55, 30
5, 71326, Note_on_c, 4, 55, 0
5, 71328, Note_on_c, 4, 51, 30
5, 71422, Note_on_c, 4, 51, 0
5, 71496, Note_on_c, 4, 51, 30
5, 71518, Note_on_c, 4, 51, 0
5, 71520, Note_on_c, 4, 46, 30
5, 71614, Note_on_c, 4, 46, 0
5, 71688, Note_on_c, 4, 46, 30
5, 71710, Note_on_c, 4, 46, 0
5, 71712, Note_on_c, 4, 58, 30
5, 71806, Note_on_c, 4, 58, 0
5, 71880, Note_on_c, 4, 58, 30
5, 71902, Note_on_c, 4, 58, 0
5, 71904, Note_on_c, 4, 56, 30
5, 71998, Note_on_c, 4, 56, 0
5, 72072, Note_on_c, 4, 56, 30
5, 72094, Note_on_c, 4, 56, 0
5, 72096, Note_on_c, 4, 53, 30
5, 72190, Note_on_c, 4, 53, 0
5, 72264, Note_on_c, 4, 53, 30
5, 72286, Note_on_c, 4, 53, 0
5, 72288, Note_on_c, 4, 51, 30
5, 72382, Note_on_c, 4, 51, 0
5, 72456, Note_on_c, 4, 51, 30
5, 72478, Note_on_c, 4, 51, 0
5, 72480, Note_on_c, 4, 63, 30
5, 72574, Note_on_c, 4, 63, 0
5, 72648, Note_on_c, 4, 63, 30
5, 72670, Note_on_c, 4, 63, 0
5, 72672, Note_on_c, 4, 61, 30
5, 72766, Note_on_c, 4, 61, 0
5, 72840, Note_on_c, 4, 61, 30
5, 72862, Note_on_c, 4, 61, 0
5, 72864, Note_on_c, 4, 58, 30
5, 72958, Note_on_c, 4, 58, 0
5, 73032, Note_on_c, 4, 58, 30
5, 73054, Note_on_c, 4, 58, 0
5, 73056, Note_on_c, 4, 60, 30
5, 73150, Note_on_c, 4, 60, 0
5, 73224, Note_on_c, 4, 60, 30
5, 73246, Note_on_c, 4, 60, 0
5, 73248, Note_on_c, 4, 58, 30
5, 73342, Note_on_c, 4, 58, 0
5, 73416, Note_on_c, 4, 58, 30
5, 73438, Note_on_c, 4, 58, 0
5, 73440, Note_on_c, 4, 56, 30
5, 73534, Note_on_c, 4, 56, 0
5, 73608, Note_on_c, 4, 56, 30
5, 73630, Note_on_c, 4, 56, 0
5, 73632, Note_on_c, 4, 57, 30
5, 73726, Note_on_c, 4, 57, 0
5, 73800, Note_on_c, 4, 57, 30
5, 73822, Note_on_c, 4, 57, 0
5, 73824, Note_on_c, 4, 58, 30
5, 73918, Note_on_c, 4, 58, 0
5, 73920, Note_on_c, 4, 46, 30
5, 74014, Note_on_c, 4, 46, 0
5, 74112, Note_on_c, 4, 50, 30
5, 74206, Note_on_c, 4, 50, 0
5, 74304, Note_on_c, 4, 53, 30
5, 74398, Note_on_c, 4, 53, 0
5, 74496, Note_on_c, 4, 41, 30
5, 74590, Note_on_c, 4, 41, 0
5, 74688, Note_on_c, 4, 53, 30
5, 74782, Note_on_c, 4, 53, 0
5, 74880, Note_on_c, 4, 41, 30
5, 74974, Note_on_c, 4, 41, 0
5, 75072, Note_on_c, 4, 46, 30
5, 75166, Note_on_c, 4, 46, 0
5, 75264, Note_on_c, 4, 58, 30
5, 75358, Note_on_c, 4, 58, 0
5, 75456, Note_on_c, 4, 60, 30
5, 75550, Note_on_c, 4, 60, 0
5, 75648, Note_on_c, 4, 48, 30
5, 75742, Note_on_c, 4, 48, 0
5, 75744, Note_on_c, 4, 41, 30
5, 75838, Note_on_c, 4, 41, 0
5, 76128, Note_on_c, 4, 61, 30
5, 76160, Note_on_c, 4, 61, 0
5, 76176, Note_on_c, 4, 60, 30
5, 76208, Note_on_c, 4, 60, 0
5, 76224, Note_on_c, 4, 61, 30
5, 76256, Note_on_c, 4, 61, 0
5, 76272, Note_on_c, 4, 60, 30
5, 76304, Note_on_c, 4, 60, 0
5, 76320, Note_on_c, 4, 61, 30
5, 76352, Note_on_c, 4, 61, 0
5, 76368, Note_on_c, 4, 60, 30
5, 76400, Note_on_c, 4, 60, 0
5, 76416, Note_on_c, 4, 61, 30
5, 76448, Note_on_c, 4, 61, 0
5, 76464, Note_on_c, 4, 60, 30
5, 76496, Note_on_c, 4, 60, 0
5, 76512, Note_on_c, 4, 58, 30
5, 76606, Note_on_c, 4, 58, 0
5, 76896, Note_on_c, 4, 63, 30
5, 76942, Note_on_c, 4, 63, 0
5, 76944, Note_on_c, 4, 62, 30
5, 76990, Note_on_c, 4, 62, 0
5, 76992, Note_on_c, 4, 63, 30
5, 77038, Note_on_c, 4, 63, 0
5, 77040, Note_on_c, 4, 62, 30
5, 77086, Note_on_c, 4, 62, 0
5, 77088, Note_on_c, 4, 63, 30
5, 77134, Note_on_c, 4, 63, 0
5, 77136, Note_on_c, 4, 62, 30
5, 77182, Note_on_c, 4, 62, 0
5, 77184, Note_on_c, 4, 63, 30
5, 77230, Note_on_c, 4, 63, 0
5, 77232, Note_on_c, 4, 61, 30
5, 77278, Note_on_c, 4, 61, 0
5, 77280, Note_on_c, 4, 60, 30
5, 77374, Note_on_c, 4, 60, 0
5, 77568, Note_on_c, 4, 38, 30
5, 77662, Note_on_c, 4, 38, 0
5, 77664, Note_on_c, 4, 43, 30
5, 78000, Note_on_c, 4, 43, 0
5, 78048, Note_on_c, 4, 45, 30
5, 78480, Note_on_c, 4, 45, 0
5, 78480, Note_on_c, 4, 47, 31
5, 78526, Note_on_c, 4, 47, 0
5, 78528, Note_on_c, 4, 48, 32
5, 78560, Note_on_c, 4, 48, 0
5, 78576, Note_on_c, 4, 47, 33
5, 78608, Note_on_c, 4, 47, 0
5, 78624, Note_on_c, 4, 48, 34
5, 78656, Note_on_c, 4, 48, 0
5, 78672, Note_on_c, 4, 47, 35
5, 78704, Note_on_c, 4, 47, 0
5, 78720, Note_on_c, 4, 48, 36
5, 78752, Note_on_c, 4, 48, 0
5, 78768, Note_on_c, 4, 47, 37
5, 78800, Note_on_c, 4, 47, 0
5, 78816, Note_on_c, 4, 48, 38
5, 79008, Note_on_c, 4, 48, 0
5, 79008, Note_on_c, 4, 47, 44
5, 79248, Note_on_c, 4, 47, 0
5, 79248, Note_on_c, 4, 48, 51
5, 79294, Note_on_c, 4, 48, 0
5, 79296, Note_on_c, 4, 50, 52
5, 79328, Note_on_c, 4, 50, 0
5, 79344, Note_on_c, 4, 49, 53
5, 79376, Note_on_c, 4, 49, 0
5, 79392, Note_on_c, 4, 50, 54
5, 79424, Note_on_c, 4, 50, 0
5, 79440, Note_on_c, 4, 49, 55
5, 79472, Note_on_c, 4, 49, 0
5, 79488, Note_on_c, 4, 50, 56
5, 79520, Note_on_c, 4, 50, 0
5, 79536, Note_on_c, 4, 49, 58
5, 79568, Note_on_c, 4, 49, 0
5, 79584, Note_on_c, 4, 50, 60
5, 79776, Note_on_c, 4, 50, 0
5, 79776, Note_on_c, 4, 49, 68
5, 80016, Note_on_c, 4, 49, 0
5, 80016, Note_on_c, 4, 50, 78
5, 80062, Note_on_c, 4, 50, 0
5, 80064, Note_on_c, 4, 52, 80
5, 80096, Note_on_c, 4, 52, 0
5, 80112, Note_on_c, 4, 51, 82
5, 80158, Note_on_c, 4, 51, 0
5, 80160, Note_on_c, 4, 52, 84
5, 80192, Note_on_c, 4, 52, 0
5, 80208, Note_on_c, 4, 51, 86
5, 80240, Note_on_c, 4, 51, 0
5, 80256, Note_on_c, 4, 52, 88
5, 80288, Note_on_c, 4, 52, 0
5, 80304, Note_on_c, 4, 51, 90
5, 80336, Note_on_c, 4, 51, 0
5, 80352, Note_on_c, 4, 52, 92
5, 80446, Note_on_c, 4, 52, 0
5, 80736, Note_on_c, 4, 64, 45
5, 80784, Note_on_c, 4, 64, 0
5, 80928, Note_on_c, 4, 64, 45
5, 80976, Note_on_c, 4, 64, 0
5, 81120, Note_on_c, 4, 64, 63
5, 81376, Note_on_c, 4, 64, 0
5, 81408, Note_on_c, 4, 64, 45
5, 81502, Note_on_c, 4, 64, 0
5, 81504, Note_on_c, 4, 64, 45
5, 81536, Note_on_c, 4, 64, 0
5, 81600, Note_on_c, 4, 64, 45
5, 81632, Note_on_c, 4, 64, 0
5, 81696, Note_on_c, 4, 64, 45
5, 81728, Note_on_c, 4, 64, 0
5, 81792, Note_on_c, 4, 64, 45
5, 81824, Note_on_c, 4, 64, 0
5, 81888, Note_on_c, 4, 64, 45
5, 81982, Note_on_c, 4, 64, 0
5, 82272, Note_on_c, 4, 52, 45
5, 82320, Note_on_c, 4, 52, 0
5, 82464, Note_on_c, 4, 52, 68
5, 82512, Note_on_c, 4, 52, 0
5, 82656, Note_on_c, 4, 54, 127
5, 82912, Note_on_c, 4, 54, 0
5, 82944, Note_on_c, 4, 66, 45
5, 83038, Note_on_c, 4, 66, 0
5, 83040, Note_on_c, 4, 66, 45
5, 83134, Note_on_c, 4, 66, 0
5, 83136, Note_on_c, 4, 66, 45
5, 83230, Note_on_c, 4, 66, 0
5, 83232, Note_on_c, 4, 66, 45
5, 83326, Note_on_c, 4, 66, 0
5, 83328, Note_on_c, 4, 66, 45
5, 83422, Note_on_c, 4, 66, 0
5, 83424, Note_on_c, 4, 66, 45
5, 83518, Note_on_c, 4, 66, 0
5, 84288, Note_on_c, 4, 66, 45
5, 84336, Note_on_c, 4, 66, 0
5, 84336, Note_on_c, 4, 69, 45
5, 84382, Note_on_c, 4, 69, 0
5, 84384, Note_on_c, 4, 68, 45
5, 84432, Note_on_c, 4, 68, 0
5, 84432, Note_on_c, 4, 69, 45
5, 84478, Note_on_c, 4, 69, 0
5, 84672, Note_on_c, 4, 66, 30
5, 84720, Note_on_c, 4, 66, 0
5, 84720, Note_on_c, 4, 69, 30
5, 84766, Note_on_c, 4, 69, 0
5, 84768, Note_on_c, 4, 68, 30
5, 84816, Note_on_c, 4, 68, 0
5, 84816, Note_on_c, 4, 69, 30
5, 84862, Note_on_c, 4, 69, 0
5, 84960, Note_on_c, 4, 62, 92
5, 85008, Note_on_c, 4, 62, 0
5, 85152, Note_on_c, 4, 62, 92
5, 85200, Note_on_c, 4, 62, 0
5, 85344, Note_on_c, 4, 62, 127
5, 85680, Note_on_c, 4, 62, 0
5, 85728, Note_on_c, 4, 62, 92
5, 85776, Note_on_c, 4, 62, 0
5, 85920, Note_on_c, 4, 62, 92
5, 85968, Note_on_c, 4, 62, 0
5, 86112, Note_on_c, 4, 62, 127
5, 86448, Note_on_c, 4, 62, 0
5, 86496, Note_on_c, 4, 62, 108
5, 86656, Note_on_c, 4, 62, 0
5, 86688, Note_on_c, 4, 59, 92
5, 86712, Note_on_c, 4, 59, 0
5, 86712, Note_on_c, 4, 60, 92
5, 86736, Note_on_c, 4, 60, 0
5, 86736, Note_on_c, 4, 59, 92
5, 86760, Note_on_c, 4, 59, 0
5, 86760, Note_on_c, 4, 60, 92
5, 86784, Note_on_c, 4, 60, 0
5, 86784, Note_on_c, 4, 62, 92
5, 86808, Note_on_c, 4, 62, 0
5, 86808, Note_on_c, 4, 64, 92
5, 86832, Note_on_c, 4, 64, 0
5, 86832, Note_on_c, 4, 66, 92
5, 86856, Note_on_c, 4, 66, 0
5, 86856, Note_on_c, 4, 67, 92
5, 86878, Note_on_c, 4, 67, 0
5, 87216, Note_on_c, 4, 59, 92
5, 87262, Note_on_c, 4, 59, 0
5, 87264, Note_on_c, 4, 62, 92
5, 87286, Note_on_c, 4, 62, 0
5, 87288, Note_on_c, 4, 60, 92
5, 87358, Note_on_c, 4, 60, 0
5, 87432, Note_on_c, 4, 60, 92
5, 87454, Note_on_c, 4, 60, 0
5, 87456, Note_on_c, 4, 57, 92
5, 87550, Note_on_c, 4, 57, 0
5, 87624, Note_on_c, 4, 54, 92
5, 87646, Note_on_c, 4, 54, 0
5, 87648, Note_on_c, 4, 50, 127
5, 87904, Note_on_c, 4, 50, 0
5, 87936, Note_on_c, 4, 48, 92
5, 88030, Note_on_c, 4, 48, 0
5, 88032, Note_on_c, 4, 47, 92
5, 88064, Note_on_c, 4, 47, 0
5, 88128, Note_on_c, 4, 55, 92
5, 88160, Note_on_c, 4, 55, 0
5, 88224, Note_on_c, 4, 50, 92
5, 88256, Note_on_c, 4, 50, 0
5, 88320, Note_on_c, 4, 47, 92
5, 88352, Note_on_c, 4, 47, 0
5, 88416, Note_on_c, 4, 43, 92
5, 88448, Note_on_c, 4, 43, 0
5, 88512, Note_on_c, 4, 50, 108
5, 88544, Note_on_c, 4, 50, 0
5, 88608, Note_on_c, 4, 47, 92
5, 88640, Note_on_c, 4, 47, 0
5, 88704, Note_on_c, 4, 43, 92
5, 88736, Note_on_c, 4, 43, 0
5, 88800, Note_on_c, 4, 42, 92
5, 88832, Note_on_c, 4, 42, 0
5, 88896, Note_on_c, 4, 38, 92
5, 88928, Note_on_c, 4, 38, 0
5, 88992, Note_on_c, 4, 42, 92
5, 89024, Note_on_c, 4, 42, 0
5, 89088, Note_on_c, 4, 45, 92
5, 89120, Note_on_c, 4, 45, 0
5, 89184, Note_on_c, 4, 50, 92
5, 89216, Note_on_c, 4, 50, 0
5, 89280, Note_on_c, 4, 54, 93
5, 89312, Note_on_c, 4, 54, 0
5, 89376, Note_on_c, 4, 57, 94
5, 89408, Note_on_c, 4, 57, 0
5, 89472, Note_on_c, 4, 60, 95
5, 89504, Note_on_c, 4, 60, 0
5, 89568, Note_on_c, 4, 59, 96
5, 89600, Note_on_c, 4, 59, 0
5, 89664, Note_on_c, 4, 52, 97
5, 89696, Note_on_c, 4, 52, 0
5, 89760, Note_on_c, 4, 50, 98
5, 89792, Note_on_c, 4, 50, 0
5, 89856, Note_on_c, 4, 48, 99
5, 89888, Note_on_c, 4, 48, 0
5, 89952, Note_on_c, 4, 47, 100
5, 89984, Note_on_c, 4, 47, 0
5, 90048, Note_on_c, 4, 43, 102
5, 90080, Note_on_c, 4, 43, 0
5, 90144, Note_on_c, 4, 42, 104
5, 90176, Note_on_c, 4, 42, 0
5, 90240, Note_on_c, 4, 40, 106
5, 90272, Note_on_c, 4, 40, 0
5, 90336, Note_on_c, 4, 38, 45
5, 90430, Note_on_c, 4, 38, 0
5, 90432, Note_on_c, 4, 37, 45
5, 90526, Note_on_c, 4, 37, 0
5, 90528, Note_on_c, 4, 38, 45
5, 90622, Note_on_c, 4, 38, 0
5, 90624, Note_on_c, 4, 38, 45
5, 90718, Note_on_c, 4, 38, 0
5, 90720, Note_on_c, 4, 43, 45
5, 90880, Note_on_c, 4, 43, 0
5, 91104, Note_on_c, 4, 43, 92
5, 91488, Note_on_c, 4, 43, 0
5, 91488, Note_on_c, 4, 45, 92
5, 91648, Note_on_c, 4, 45, 0
5, 91848, Note_on_c, 4, 45, 45
5, 91870, Note_on_c, 4, 45, 0
5, 91872, Note_on_c, 4, 47, 45
5, 91966, Note_on_c, 4, 47, 0
5, 92040, Note_on_c, 4, 47, 45
5, 92062, Note_on_c, 4, 47, 0
5, 92064, Note_on_c, 4, 43, 45
5, 92158, Note_on_c, 4, 43, 0
5, 92232, Note_on_c, 4, 43, 45
5, 92254, Note_on_c, 4, 43, 0
5, 92256, Note_on_c, 4, 38, 45
5, 92350, Note_on_c, 4, 38, 0
5, 93024, Note_on_c, 4, 50, 30
5, 93216, Note_on_c, 4, 50, 0
5, 93216, Note_on_c, 4, 53, 30
5, 93376, Note_on_c, 4, 53, 0
5, 93792, Note_on_c, 4, 52, 30
5, 93984, Note_on_c, 4, 52, 0
5, 93984, Note_on_c, 4, 55, 30
5, 94144, Note_on_c, 4, 55, 0
5, 94560, Note_on_c, 4, 47, 30
5, 94752, Note_on_c, 4, 47, 0
5, 94752, Note_on_c, 4, 48, 33
5, 94944, Note_on_c, 4, 48, 0
5, 94944, Note_on_c, 4, 47, 37
5, 95136, Note_on_c, 4, 47, 0
5, 95136, Note_on_c, 4, 48, 41
5, 95296, Note_on_c, 4, 48, 0
5, 95328, Note_on_c, 4, 47, 45
5, 95422, Note_on_c, 4, 47, 0
5, 95520, Note_on_c, 4, 47, 45
5, 95614, Note_on_c, 4, 47, 0
5, 95712, Note_on_c, 4, 47, 45
5, 95806, Note_on_c, 4, 47, 0
5, 96096, Note_on_c, 4, 52, 30
5, 96640, Note_on_c, 4, 52, 0
5, 97032, Note_on_c, 4, 57, 30
5, 97054, Note_on_c, 4, 57, 0
5, 97056, Note_on_c, 4, 54, 30
5, 97150, Note_on_c, 4, 54, 0
5, 97224, Note_on_c, 4, 51, 30
5, 97246, Note_on_c, 4, 51, 0
5, 97248, Note_on_c, 4, 47, 30
5, 97342, Note_on_c, 4, 47, 0
5, 98496, Note_on_c, 4, 48, 30
5, 98528, Note_on_c, 4, 48, 0
5, 98592, Note_on_c, 4, 45, 30
5, 98624, Note_on_c, 4, 45, 0
5, 98688, Note_on_c, 4, 47, 30
5, 98720, Note_on_c, 4, 47, 0
5, 98784, Note_on_c, 4, 40, 30
5, 98878, Note_on_c, 4, 40, 0
5, 98880, Note_on_c, 4, 52, 30
5, 98974, Note_on_c, 4, 52, 0
5, 98976, Note_on_c, 4, 48, 30
5, 99070, Note_on_c, 4, 48, 0
5, 99072, Note_on_c, 4, 50, 30
5, 99166, Note_on_c, 4, 50, 0
5, 99168, Note_on_c, 4, 43, 30
5, 99262, Note_on_c, 4, 43, 0
5, 99264, Note_on_c, 4, 55, 30
5, 99358, Note_on_c, 4, 55, 0
5, 99360, Note_on_c, 4, 52, 30
5, 99454, Note_on_c, 4, 52, 0
5, 99456, Note_on_c, 4, 57, 30
5, 99550, Note_on_c, 4, 57, 0
5, 99552, Note_on_c, 4, 50, 30
5, 99646, Note_on_c, 4, 50, 0
5, 99648, Note_on_c, 4, 50, 32
5, 99742, Note_on_c, 4, 50, 0
5, 99744, Note_on_c, 4, 38, 34
5, 99838, Note_on_c, 4, 38, 0
5, 99840, Note_on_c, 4, 50, 36
5, 99934, Note_on_c, 4, 50, 0
5, 99936, Note_on_c, 4, 38, 38
5, 100030, Note_on_c, 4, 38, 0
5, 100032, Note_on_c, 4, 50, 40
5, 100126, Note_on_c, 4, 50, 0
5, 100128, Note_on_c, 4, 38, 42
5, 100222, Note_on_c, 4, 38, 0
5, 100224, Note_on_c, 4, 50, 44
5, 100318, Note_on_c, 4, 50, 0
5, 100320, Note_on_c, 4, 38, 46
5, 100414, Note_on_c, 4, 38, 0
5, 100416, Note_on_c, 4, 62, 48
5, 100510, Note_on_c, 4, 62, 0
5, 100512, Note_on_c, 4, 50, 50
5, 100606, Note_on_c, 4, 50, 0
5, 100608, Note_on_c, 4, 62, 53
5, 100702, Note_on_c, 4, 62, 0
5, 100704, Note_on_c, 4, 50, 56
5, 100798, Note_on_c, 4, 50, 0
5, 100800, Note_on_c, 4, 62, 59
5, 100894, Note_on_c, 4, 62, 0
5, 100896, Note_on_c, 4, 50, 62
5, 100990, Note_on_c, 4, 50, 0
5, 100992, Note_on_c, 4, 62, 65
5, 101086, Note_on_c, 4, 62, 0
5, 101088, Note_on_c, 4, 50, 68
5, 101182, Note_on_c, 4, 50, 0
5, 101280, Note_on_c, 4, 57, 74
5, 101374, Note_on_c, 4, 57, 0
5, 101472, Note_on_c, 4, 50, 80
5, 101566, Note_on_c, 4, 50, 0
5, 101664, Note_on_c, 4, 45, 86
5, 101758, Note_on_c, 4, 45, 0
5, 101856, Note_on_c, 4, 50, 92
5, 102016, Note_on_c, 4, 50, 0
5, 102144, Note_on_c, 4, 38, 92
5, 102165, Note_on_c, 4, 38, 0
5, 102176, Note_on_c, 4, 42, 92
5, 102197, Note_on_c, 4, 42, 0
5, 102208, Note_on_c, 4, 45, 92
5, 102229, Note_on_c, 4, 45, 0
5, 102240, Note_on_c, 4, 50, 92
5, 102400, Note_on_c, 4, 50, 0
5, 102624, Note_on_c, 4, 55, 45
5, 102672, Note_on_c, 4, 55, 0
5, 102816, Note_on_c, 4, 60, 45
5, 102864, Note_on_c, 4, 60, 0
5, 103008, Note_on_c, 4, 59, 63
5, 103264, Note_on_c, 4, 59, 0
5, 103296, Note_on_c, 4, 54, 45
5, 103390, Note_on_c, 4, 54, 0
5, 103392, Note_on_c, 4, 55, 45
5, 103424, Note_on_c, 4, 55, 0
5, 103488, Note_on_c, 4, 51, 45
5, 103520, Note_on_c, 4, 51, 0
5, 103584, Note_on_c, 4, 52, 45
5, 103616, Note_on_c, 4, 52, 0
5, 103680, Note_on_c, 4, 49, 45
5, 103712, Note_on_c, 4, 49, 0
5, 103776, Note_on_c, 4, 50, 45
5, 103870, Note_on_c, 4, 50, 0
5, 104160, Note_on_c, 4, 57, 45
5, 104208, Note_on_c, 4, 57, 0
5, 104352, Note_on_c, 4, 62, 45
5, 104400, Note_on_c, 4, 62, 0
5, 104544, Note_on_c, 4, 60, 63
5, 104800, Note_on_c, 4, 60, 0
5, 104832, Note_on_c, 4, 60, 45
5, 104928, Note_on_c, 4, 60, 0
5, 104928, Note_on_c, 4, 59, 45
5, 104960, Note_on_c, 4, 59, 0
5, 105024, Note_on_c, 4, 60, 45
5, 105056, Note_on_c, 4, 60, 0
5, 105120, Note_on_c, 4, 62, 45
5, 105152, Note_on_c, 4, 62, 0
5, 105216, Note_on_c, 4, 50, 45
5, 105248, Note_on_c, 4, 50, 0
5, 105312, Note_on_c, 4, 55, 45
5, 105406, Note_on_c, 4, 55, 0
5, 105696, Note_on_c, 4, 43, 45
5, 105744, Note_on_c, 4, 43, 0
5, 105888, Note_on_c, 4, 48, 45
5, 105936, Note_on_c, 4, 48, 0
5, 106080, Note_on_c, 4, 47, 63
5, 106336, Note_on_c, 4, 47, 0
5, 106368, Note_on_c, 4, 45, 45
5, 106462, Note_on_c, 4, 45, 0
5, 106464, Note_on_c, 4, 43, 45
5, 106496, Note_on_c, 4, 43, 0
5, 106560, Note_on_c, 4, 42, 45
5, 106592, Note_on_c, 4, 42, 0
5, 106656, Note_on_c, 4, 40, 45
5, 106688, Note_on_c, 4, 40, 0
5, 106752, Note_on_c, 4, 52, 45
5, 106784, Note_on_c, 4, 52, 0
5, 106848, Note_on_c, 4, 50, 45
5, 106942, Note_on_c, 4, 50, 0
5, 107232, Note_on_c, 4, 45, 45
5, 107280, Note_on_c, 4, 45, 0
5, 107424, Note_on_c, 4, 50, 45
5, 107472, Note_on_c, 4, 50, 0
5, 107616, Note_on_c, 4, 48, 63
5, 107872, Note_on_c, 4, 48, 0
5, 107904, Note_on_c, 4, 47, 45
5, 107998, Note_on_c, 4, 47, 0
5, 108000, Note_on_c, 4, 45, 45
5, 108094, Note_on_c, 4, 45, 0
5, 108096, Note_on_c, 4, 47, 45
5, 108190, Note_on_c, 4, 47, 0
5, 108192, Note_on_c, 4, 48, 45
5, 108286, Note_on_c, 4, 48, 0
5, 108288, Note_on_c, 4, 48, 45
5, 108382, Note_on_c, 4, 48, 0
5, 108384, Note_on_c, 4, 47, 45
5, 108478, Note_on_c, 4, 47, 0
5, 108624, Note_on_c, 4, 47, 45
5, 108656, Note_on_c, 4, 47, 0
5, 108672, Note_on_c, 4, 49, 45
5, 108704, Note_on_c, 4, 49, 0
5, 108720, Note_on_c, 4, 51, 45
5, 108752, Note_on_c, 4, 51, 0
5, 108768, Note_on_c, 4, 52, 45
5, 108800, Note_on_c, 4, 52, 0
5, 108864, Note_on_c, 4, 52, 45
5, 108896, Note_on_c, 4, 52, 0
5, 109008, Note_on_c, 4, 47, 45
5, 109040, Note_on_c, 4, 47, 0
5, 109056, Note_on_c, 4, 49, 45
5, 109088, Note_on_c, 4, 49, 0
5, 109104, Note_on_c, 4, 51, 45
5, 109136, Note_on_c, 4, 51, 0
5, 109152, Note_on_c, 4, 52, 45
5, 109184, Note_on_c, 4, 52, 0
5, 109248, Note_on_c, 4, 52, 45
5, 109280, Note_on_c, 4, 52, 0
5, 109392, Note_on_c, 4, 47, 45
5, 109424, Note_on_c, 4, 47, 0
5, 109440, Note_on_c, 4, 49, 45
5, 109472, Note_on_c, 4, 49, 0
5, 109488, Note_on_c, 4, 51, 45
5, 109520, Note_on_c, 4, 51, 0
5, 109536, Note_on_c, 4, 52, 45
5, 109568, Note_on_c, 4, 52, 0
5, 109632, Note_on_c, 4, 52, 45
5, 109664, Note_on_c, 4, 52, 0
5, 109728, Note_on_c, 4, 62, 63
5, 109888, Note_on_c, 4, 62, 0
5, 109920, Note_on_c, 4, 60, 45
5, 110016, Note_on_c, 4, 60, 0
5, 110016, Note_on_c, 4, 57, 45
5, 110088, Note_on_c, 4, 57, 0
5, 110088, Note_on_c, 4, 60, 45
5, 110110, Note_on_c, 4, 60, 0
5, 110208, Note_on_c, 4, 50, 45
5, 110302, Note_on_c, 4, 50, 0
5, 110304, Note_on_c, 4, 55, 45
5, 110398, Note_on_c, 4, 55, 0
5, 110544, Note_on_c, 4, 47, 45
5, 110576, Note_on_c, 4, 47, 0
5, 110592, Note_on_c, 4, 49, 45
5, 110624, Note_on_c, 4, 49, 0
5, 110640, Note_on_c, 4, 51, 45
5, 110672, Note_on_c, 4, 51, 0
5, 110688, Note_on_c, 4, 52, 45
5, 110782, Note_on_c, 4, 52, 0
5, 110784, Note_on_c, 4, 52, 45
5, 110878, Note_on_c, 4, 52, 0
5, 110928, Note_on_c, 4, 47, 45
5, 110960, Note_on_c, 4, 47, 0
5, 110976, Note_on_c, 4, 49, 45
5, 111008, Note_on_c, 4, 49, 0
5, 111024, Note_on_c, 4, 51, 45
5, 111056, Note_on_c, 4, 51, 0
5, 111072, Note_on_c, 4, 52, 45
5, 111166, Note_on_c, 4, 52, 0
5, 111168, Note_on_c, 4, 52, 45
5, 111262, Note_on_c, 4, 52, 0
5, 111312, Note_on_c, 4, 47, 45
5, 111344, Note_on_c, 4, 47, 0
5, 111360, Note_on_c, 4, 49, 51
5, 111392, Note_on_c, 4, 49, 0
5, 111408, Note_on_c, 4, 51, 57
5, 111440, Note_on_c, 4, 51, 0
5, 111456, Note_on_c, 4, 52, 64
5, 111550, Note_on_c, 4, 52, 0
5, 111552, Note_on_c, 4, 52, 78
5, 111646, Note_on_c, 4, 52, 0
5, 111648, Note_on_c, 4, 50, 127
5, 111840, Note_on_c, 4, 50, 0
5, 111840, Note_on_c, 4, 48, 92
5, 111886, Note_on_c, 4, 48, 0
5, 111888, Note_on_c, 4, 45, 92
5, 111936, Note_on_c, 4, 45, 0
5, 111936, Note_on_c, 4, 47, 92
5, 111984, Note_on_c, 4, 47, 0
5, 111984, Note_on_c, 4, 48, 92
5, 112032, Note_on_c, 4, 48, 0
5, 112032, Note_on_c, 4, 50, 92
5, 112126, Note_on_c, 4, 50, 0
5, 112128, Note_on_c, 4, 38, 92
5, 112222, Note_on_c, 4, 38, 0
5, 112224, Note_on_c, 4, 43, 92
5, 112318, Note_on_c, 4, 43, 0
5, 113184, Note_on_c, 4, 48, 45
5, 113278, Note_on_c, 4, 48, 0
5, 113376, Note_on_c, 4, 47, 45
5, 113470, Note_on_c, 4, 47, 0
5, 113568, Note_on_c, 4, 42, 45
5, 113662, Note_on_c, 4, 42, 0
5, 113760, Note_on_c, 4, 43, 45
5, 113854, Note_on_c, 4, 43, 0
5, 113952, Note_on_c, 4, 60, 45
5, 114046, Note_on_c, 4, 60, 0
5, 114144, Note_on_c, 4, 59, 45
5, 114238, Note_on_c, 4, 59, 0
5, 114336, Note_on_c, 4, 54, 45
5, 114430, Note_on_c, 4, 54, 0
5, 114528, Note_on_c, 4, 55, 45
5, 114622, Note_on_c, 4, 55, 0
5, 114720, Note_on_c, 4, 60, 45
5, 114814, Note_on_c, 4, 60, 0
5, 114912, Note_on_c, 4, 59, 45
5, 115006, Note_on_c, 4, 59, 0
5, 115776, Note_on_c, 4, 50, 45
5, 115808, Note_on_c, 4, 50, 0
5, 115872, Note_on_c, 4, 52, 45
5, 115904, Note_on_c, 4, 52, 0
5, 115968, Note_on_c, 4, 54, 45
5, 116000, Note_on_c, 4, 54, 0
5, 116064, Note_on_c, 4, 55, 45
5, 116096, Note_on_c, 4, 55, 0
5, 116160, Note_on_c, 4, 53, 47
5, 116192, Note_on_c, 4, 53, 0
5, 116256, Note_on_c, 4, 52, 50
5, 116288, Note_on_c, 4, 52, 0
5, 116352, Note_on_c, 4, 47, 53
5, 116384, Note_on_c, 4, 47, 0
5, 116448, Note_on_c, 4, 48, 56
5, 116480, Note_on_c, 4, 48, 0
5, 116544, Note_on_c, 4, 45, 59
5, 116576, Note_on_c, 4, 45, 0
5, 116640, Note_on_c, 4, 47, 62
5, 116672, Note_on_c, 4, 47, 0
5, 116736, Note_on_c, 4, 42, 65
5, 116768, Note_on_c, 4, 42, 0
5, 116832, Note_on_c, 4, 43, 68
5, 116864, Note_on_c, 4, 43, 0
5, 116928, Note_on_c, 4, 39, 71
5, 116960, Note_on_c, 4, 39, 0
5, 117024, Note_on_c, 4, 40, 74
5, 117056, Note_on_c, 4, 40, 0
5, 117120, Note_on_c, 4, 37, 77
5, 117152, Note_on_c, 4, 37, 0
5, 117216, Note_on_c, 4, 38, 80
5, 117248, Note_on_c, 4, 38, 0
5, 117312, Note_on_c, 4, 39, 83
5, 117344, Note_on_c, 4, 39, 0
5, 117408, Note_on_c, 4, 40, 86
5, 117440, Note_on_c, 4, 40, 0
5, 117504, Note_on_c, 4, 37, 89
5, 117536, Note_on_c, 4, 37, 0
5, 117600, Note_on_c, 4, 38, 92
5, 118078, Note_on_c, 4, 38, 0
5, 118080, Note_on_c, 4, 43, 127
5, 118176, Note_on_c, 4, 43, 0
5, 118176, Note_on_c, 4, 42, 92
5, 118272, Note_on_c, 4, 42, 0
5, 118272, Note_on_c, 4, 40, 92
5, 118368, Note_on_c, 4, 40, 0
5, 118368, Note_on_c, 4, 38, 92
5, 118400, Note_on_c, 4, 38, 0
5, 119616, Note_on_c, 4, 52, 45
5, 119648, Note_on_c, 4, 52, 0
5, 119712, Note_on_c, 4, 48, 45
5, 119744, Note_on_c, 4, 48, 0
5, 119808, Note_on_c, 4, 50, 45
5, 119840, Note_on_c, 4, 50, 0
5, 119904, Note_on_c, 4, 43, 45
5, 119998, Note_on_c, 4, 43, 0
5, 120192, Note_on_c, 4, 50, 45
5, 120286, Note_on_c, 4, 50, 0
5, 120288, Note_on_c, 4, 55, 45
5, 120480, Note_on_c, 4, 55, 0
5, 120480, Note_on_c, 4, 57, 52
5, 120528, Note_on_c, 4, 57, 0
5, 120528, Note_on_c, 4, 59, 54
5, 120576, Note_on_c, 4, 59, 0
5, 120576, Note_on_c, 4, 60, 56
5, 120624, Note_on_c, 4, 60, 0
5, 120624, Note_on_c, 4, 57, 58
5, 120670, Note_on_c, 4, 57, 0
5, 120672, Note_on_c, 4, 59, 60
5, 120864, Note_on_c, 4, 59, 0
5, 120864, Note_on_c, 4, 60, 68
5, 120912, Note_on_c, 4, 60, 0
5, 120912, Note_on_c, 4, 62, 70
5, 120960, Note_on_c, 4, 62, 0
5, 120960, Note_on_c, 4, 64, 72
5, 121008, Note_on_c, 4, 64, 0
5, 121008, Note_on_c, 4, 60, 74
5, 121054, Note_on_c, 4, 60, 0
5, 121056, Note_on_c, 4, 62, 76
5, 121248, Note_on_c, 4, 62, 0
5, 121248, Note_on_c, 4, 64, 84
5, 121296, Note_on_c, 4, 64, 0
5, 121296, Note_on_c, 4, 65, 86
5, 121344, Note_on_c, 4, 65, 0
5, 121344, Note_on_c, 4, 67, 88
5, 121392, Note_on_c, 4, 67, 0
5, 121392, Note_on_c, 4, 64, 90
5, 121438, Note_on_c, 4, 64, 0
5, 121440, Note_on_c, 4, 65, 45
5, 122160, Note_on_c, 4, 65, 0
5, 122208, Note_on_c, 4, 51, 45
5, 122400, Note_on_c, 4, 51, 0
5, 122400, Note_on_c, 4, 52, 45
5, 122448, Note_on_c, 4, 52, 0
5, 122448, Note_on_c, 4, 54, 45
5, 122496, Note_on_c, 4, 54, 0
5, 122496, Note_on_c, 4, 55, 45
5, 122544, Note_on_c, 4, 55, 0
5, 122544, Note_on_c, 4, 52, 45
5, 122590, Note_on_c, 4, 52, 0
5, 122592, Note_on_c, 4, 54, 45
5, 123312, Note_on_c, 4, 54, 0
5, 123360, Note_on_c, 4, 54, 45
5, 123552, Note_on_c, 4, 54, 0
5, 123552, Note_on_c, 4, 55, 45
5, 123600, Note_on_c, 4, 55, 0
5, 123600, Note_on_c, 4, 57, 45
5, 123648, Note_on_c, 4, 57, 0
5, 123648, Note_on_c, 4, 59, 45
5, 123696, Note_on_c, 4, 59, 0
5, 123696, Note_on_c, 4, 55, 45
5, 123742, Note_on_c, 4, 55, 0
5, 123744, Note_on_c, 4, 57, 45
5, 124464, Note_on_c, 4, 57, 0
5, 124512, Note_on_c, 4, 59, 30
5, 124606, Note_on_c, 4, 59, 0
5, 126912, Note_on_c, 4, 52, 30
5, 127006, Note_on_c, 4, 52, 0
5, 127008, Note_on_c, 4, 48, 30
5, 127102, Note_on_c, 4, 48, 0
5, 127104, Note_on_c, 4, 50, 30
5, 127198, Note_on_c, 4, 50, 0
5, 127200, Note_on_c, 4, 43, 30
5, 127294, Note_on_c, 4, 43, 0
5, 127294, End_track
0, 0, End_of_file