0, 0, Header, 1, 19, 240
1, 0, Start_track
1, 0, Time_signature, 2, 2, 24, 8
1, 0, Key_signature, 0, "major"
1, 0, Tempo, 476190
1, 0, Marker_t, "Allegro"
1, 0, Marker_t, "Ludwig van Beethoven"
1, 0, Marker_t, "Ludwig van Beethoven"
1, 0, Marker_t, "Mov't. 3  RONDO (Allegro)"
1, 0, Marker_t, "Mov't. 3 - RONDO"
1, 0, Marker_t, "Piano Concerto No.1 in C Major, Op.15"
1, 0, Marker_t, "Piano Concerto No.1 in C, Op.15"
1, 0, Marker_t, "RONDO  Allegro\012"
1, 0, Marker_t, "RONDO (Allegro)\012"
1, 0, Marker_t, "untitled"
1, 70320, Tempo, 483871
1, 70560, Tempo, 495868
1, 70800, Tempo, 504202
1, 71040, Tempo, 517241
1, 71280, Tempo, 526316
1, 71520, Tempo, 540541
1, 71760, Tempo, 555556
1, 72000, Tempo, 566038
1, 72240, Tempo, 582524
1, 72480, Tempo, 594059
1, 72720, Tempo, 444444
1, 72960, Tempo, 476190
1, 144000, Tempo, 480000
1, 144240, Tempo, 483871
1, 144480, Tempo, 487805
1, 144720, Tempo, 491803
1, 145200, Tempo, 495868
1, 145440, Tempo, 500000
1, 145680, Tempo, 504202
1, 145920, Tempo, 508475
1, 146400, Tempo, 476190
1, 148320, Tempo, 500000
1, 148560, Tempo, 571429
1, 148800, Tempo, 530973
1, 149280, Tempo, 476190
1, 179760, Tempo, 480000
1, 180000, Tempo, 483871
1, 180240, Tempo, 487805
1, 180480, Tempo, 491803
1, 180720, Tempo, 495868
1, 180960, Tempo, 500000
1, 181440, Tempo, 476190
1, 189600, Tempo, 472441
1, 190080, Tempo, 468750
1, 190560, Tempo, 465116
1, 191040, Tempo, 461538
1, 191520, Tempo, 476190
1, 209520, Tempo, 480000
1, 210000, Tempo, 483871
1, 210720, Tempo, 487805
1, 211200, Tempo, 491803
1, 211680, Tempo, 476190
1, 220560, Tempo, 461538
1, 220800, Tempo, 447761
1, 221040, Tempo, 434783
1, 221280, Tempo, 419580
1, 221520, Tempo, 408163
1, 221760, Tempo, 397351
1, 222000, Tempo, 384615
1, 222240, Tempo, 400000
1, 222480, Tempo, 402685
1, 222720, Tempo, 408163
1, 222960, Tempo, 413793
1, 223200, Tempo, 416667
1, 223440, Tempo, 422535
1, 223680, Tempo, 428571
1, 223920, Tempo, 434783
1, 224160, Tempo, 437956
1, 224400, Tempo, 444444
1, 224640, Tempo, 451128
1, 224880, Tempo, 454545
1, 225120, Tempo, 461538
1, 225360, Tempo, 468750
1, 225600, Tempo, 476190
1, 226320, Tempo, 521739
1, 226560, Tempo, 576923
1, 226800, Tempo, 491803
1, 227040, Tempo, 750000
1, 227520, Tempo, 476190
1, 229200, Tempo, 472441
1, 229440, Tempo, 468750
1, 229680, Tempo, 465116
1, 229920, Tempo, 461538
1, 230160, Tempo, 458015
1, 230400, Tempo, 454545
1, 239760, Tempo, 458015
1, 240000, Tempo, 465116
1, 240240, Tempo, 468750
1, 240480, Tempo, 476190
1, 240720, Tempo, 480000
1, 240960, Tempo, 487805
1, 241200, Tempo, 491803
1, 241440, Tempo, 476190
1, 277920, Tempo, 952381
1, 278880, Tempo, 476190
1, 279600, Tempo, 535714
1, 279840, Tempo, 612245
1, 280080, Tempo, 714286
1, 280320, Tempo, 869565
1, 280800, Tempo, 606061
1, 281280, Tempo, 909091
1, 281760, Tempo, 476190
1, 281760, End_track
2, 0, Start_track
2, 0, MIDI_port, 0
2, 0, Title_t, "Flutes"
2, 0, Program_c, 0, 73
2, 0, Control_c, 0, 7, 100
2, 0, Control_c, 0, 10, 37
2, 0, Control_c, 0, 93, 0
2, 0, Control_c, 0, 91, 66
2, 9960, Note_on_c, 0, 88, 99
2, 10080, Note_on_c, 0, 88, 0
2, 10080, Note_on_c, 0, 88, 104
2, 10140, Note_on_c, 0, 88, 0
2, 10140, Note_on_c, 0, 86, 99
2, 10200, Note_on_c, 0, 86, 0
2, 10200, Note_on_c, 0, 84, 94
2, 10260, Note_on_c, 0, 84, 0
2, 10320, Note_on_c, 0, 84, 99
2, 10380, Note_on_c, 0, 84, 0
2, 10440, Note_on_c, 0, 88, 99
2, 10500, Note_on_c, 0, 88, 0
2, 10560, Note_on_c, 0, 88, 99
2, 10620, Note_on_c, 0, 88, 0
2, 10620, Note_on_c, 0, 86, 104
2, 10680, Note_on_c, 0, 86, 0
2, 10680, Note_on_c, 0, 84, 99
2, 10740, Note_on_c, 0, 84, 0
2, 10800, Note_on_c, 0, 84, 98
2, 10860, Note_on_c, 0, 84, 0
2, 10920, Note_on_c, 0, 88, 105
2, 10980, Note_on_c, 0, 88, 0
2, 11040, Note_on_c, 0, 88, 104
2, 11100, Note_on_c, 0, 88, 0
2, 11100, Note_on_c, 0, 86, 99
2, 11160, Note_on_c, 0, 86, 0
2, 11160, Note_on_c, 0, 84, 99
2, 11220, Note_on_c, 0, 84, 0
2, 11280, Note_on_c, 0, 84, 99
2, 11340, Note_on_c, 0, 84, 0
2, 11340, Note_on_c, 0, 83, 104
2, 11400, Note_on_c, 0, 83, 0
2, 11400, Note_on_c, 0, 81, 99
2, 11460, Note_on_c, 0, 81, 0
2, 11490, Note_on_c, 0, 81, 104
2, 11520, Note_on_c, 0, 81, 0
2, 11520, Note_on_c, 0, 79, 101
2, 11580, Note_on_c, 0, 79, 0
2, 11640, Note_on_c, 0, 79, 99
2, 11700, Note_on_c, 0, 79, 0
2, 11760, Note_on_c, 0, 81, 104
2, 11820, Note_on_c, 0, 81, 0
2, 11880, Note_on_c, 0, 78, 99
2, 11940, Note_on_c, 0, 78, 0
2, 12000, Note_on_c, 0, 79, 104
2, 12060, Note_on_c, 0, 79, 0
2, 12120, Note_on_c, 0, 79, 99
2, 12180, Note_on_c, 0, 79, 0
2, 12240, Note_on_c, 0, 81, 101
2, 12300, Note_on_c, 0, 81, 0
2, 12360, Note_on_c, 0, 78, 95
2, 12420, Note_on_c, 0, 78, 0
2, 12480, Note_on_c, 0, 79, 99
2, 12840, Note_on_c, 0, 79, 0
2, 12840, Note_on_c, 0, 79, 99
2, 12960, Note_on_c, 0, 79, 0
2, 12960, Note_on_c, 0, 79, 94
2, 13020, Note_on_c, 0, 79, 0
2, 13020, Note_on_c, 0, 81, 99
2, 13080, Note_on_c, 0, 81, 0
2, 13080, Note_on_c, 0, 83, 95
2, 13140, Note_on_c, 0, 83, 0
2, 13200, Note_on_c, 0, 83, 99
2, 13260, Note_on_c, 0, 83, 0
2, 13260, Note_on_c, 0, 84, 73
2, 13320, Note_on_c, 0, 84, 0
2, 13320, Note_on_c, 0, 86, 99
2, 13380, Note_on_c, 0, 86, 0
2, 13440, Note_on_c, 0, 86, 119
2, 13800, Note_on_c, 0, 86, 0
2, 13800, Note_on_c, 0, 83, 101
2, 13920, Note_on_c, 0, 83, 0
2, 13920, Note_on_c, 0, 83, 105
2, 13980, Note_on_c, 0, 83, 0
2, 13980, Note_on_c, 0, 84, 99
2, 14040, Note_on_c, 0, 84, 0
2, 14040, Note_on_c, 0, 86, 110
2, 14100, Note_on_c, 0, 86, 0
2, 14160, Note_on_c, 0, 86, 107
2, 14220, Note_on_c, 0, 86, 0
2, 14220, Note_on_c, 0, 88, 105
2, 14280, Note_on_c, 0, 88, 0
2, 14280, Note_on_c, 0, 89, 105
2, 14340, Note_on_c, 0, 89, 0
2, 14400, Note_on_c, 0, 89, 125
2, 14760, Note_on_c, 0, 89, 0
2, 14760, Note_on_c, 0, 93, 93
2, 14880, Note_on_c, 0, 93, 0
2, 14880, Note_on_c, 0, 93, 95
2, 14940, Note_on_c, 0, 93, 0
2, 14940, Note_on_c, 0, 91, 94
2, 15000, Note_on_c, 0, 91, 0
2, 15000, Note_on_c, 0, 89, 104
2, 15060, Note_on_c, 0, 89, 0
2, 15120, Note_on_c, 0, 89, 101
2, 15180, Note_on_c, 0, 89, 0
2, 15240, Note_on_c, 0, 93, 94
2, 15300, Note_on_c, 0, 93, 0
2, 15360, Note_on_c, 0, 93, 98
2, 15420, Note_on_c, 0, 93, 0
2, 15420, Note_on_c, 0, 91, 99
2, 15480, Note_on_c, 0, 91, 0
2, 15480, Note_on_c, 0, 89, 99
2, 15540, Note_on_c, 0, 89, 0
2, 15600, Note_on_c, 0, 89, 104
2, 15660, Note_on_c, 0, 89, 0
2, 15720, Note_on_c, 0, 93, 99
2, 15780, Note_on_c, 0, 93, 0
2, 15840, Note_on_c, 0, 93, 99
2, 15900, Note_on_c, 0, 93, 0
2, 15900, Note_on_c, 0, 91, 104
2, 15960, Note_on_c, 0, 91, 0
2, 15960, Note_on_c, 0, 89, 104
2, 16020, Note_on_c, 0, 89, 0
2, 16080, Note_on_c, 0, 89, 105
2, 16140, Note_on_c, 0, 89, 0
2, 16140, Note_on_c, 0, 88, 104
2, 16200, Note_on_c, 0, 88, 0
2, 16200, Note_on_c, 0, 86, 110
2, 16260, Note_on_c, 0, 86, 0
2, 16290, Note_on_c, 0, 86, 112
2, 16320, Note_on_c, 0, 86, 0
2, 16320, Note_on_c, 0, 84, 99
2, 16380, Note_on_c, 0, 84, 0
2, 16440, Note_on_c, 0, 84, 99
2, 16500, Note_on_c, 0, 84, 0
2, 16560, Note_on_c, 0, 86, 110
2, 16620, Note_on_c, 0, 86, 0
2, 16680, Note_on_c, 0, 83, 104
2, 16740, Note_on_c, 0, 83, 0
2, 16800, Note_on_c, 0, 72, 78
2, 16860, Note_on_c, 0, 72, 0
2, 16860, Note_on_c, 0, 74, 104
2, 16920, Note_on_c, 0, 74, 0
2, 16920, Note_on_c, 0, 76, 101
2, 16980, Note_on_c, 0, 76, 0
2, 16980, Note_on_c, 0, 77, 95
2, 17040, Note_on_c, 0, 77, 0
2, 17040, Note_on_c, 0, 79, 86
2, 17100, Note_on_c, 0, 79, 0
2, 17100, Note_on_c, 0, 81, 95
2, 17160, Note_on_c, 0, 81, 0
2, 17160, Note_on_c, 0, 83, 98
2, 17220, Note_on_c, 0, 83, 0
2, 17220, Note_on_c, 0, 84, 95
2, 17280, Note_on_c, 0, 84, 0
2, 17280, Note_on_c, 0, 86, 98
2, 17340, Note_on_c, 0, 86, 0
2, 17400, Note_on_c, 0, 88, 104
2, 17460, Note_on_c, 0, 88, 0
2, 17520, Note_on_c, 0, 89, 94
2, 17580, Note_on_c, 0, 89, 0
2, 17640, Note_on_c, 0, 83, 99
2, 17700, Note_on_c, 0, 83, 0
2, 17760, Note_on_c, 0, 84, 125
2, 17820, Note_on_c, 0, 84, 0
2, 17820, Note_on_c, 0, 83, 117
2, 17880, Note_on_c, 0, 83, 0
2, 17880, Note_on_c, 0, 81, 119
2, 17940, Note_on_c, 0, 81, 0
2, 17940, Note_on_c, 0, 79, 123
2, 18000, Note_on_c, 0, 79, 0
2, 18000, Note_on_c, 0, 77, 119
2, 18060, Note_on_c, 0, 77, 0
2, 18060, Note_on_c, 0, 76, 119
2, 18120, Note_on_c, 0, 76, 0
2, 18120, Note_on_c, 0, 74, 119
2, 18180, Note_on_c, 0, 74, 0
2, 18180, Note_on_c, 0, 72, 110
2, 18240, Note_on_c, 0, 72, 0
2, 18240, Note_on_c, 0, 74, 123
2, 18300, Note_on_c, 0, 74, 0
2, 18360, Note_on_c, 0, 76, 115
2, 18420, Note_on_c, 0, 76, 0
2, 18480, Note_on_c, 0, 77, 123
2, 18540, Note_on_c, 0, 77, 0
2, 18600, Note_on_c, 0, 83, 125
2, 18660, Note_on_c, 0, 83, 0
2, 18720, Note_on_c, 0, 84, 119
2, 18780, Note_on_c, 0, 84, 0
2, 18840, Note_on_c, 0, 86, 123
2, 18900, Note_on_c, 0, 86, 0
2, 18960, Note_on_c, 0, 84, 127
2, 19020, Note_on_c, 0, 84, 0
2, 19080, Note_on_c, 0, 86, 123
2, 19140, Note_on_c, 0, 86, 0
2, 19200, Note_on_c, 0, 84, 123
2, 19440, Note_on_c, 0, 84, 0
2, 31680, Note_on_c, 0, 86, 70
2, 32040, Note_on_c, 0, 86, 0
2, 32040, Note_on_c, 0, 86, 112
2, 32160, Note_on_c, 0, 86, 0
2, 32160, Note_on_c, 0, 86, 86
2, 32520, Note_on_c, 0, 86, 0
2, 32520, Note_on_c, 0, 86, 112
2, 32640, Note_on_c, 0, 86, 0
2, 32640, Note_on_c, 0, 86, 65
2, 33000, Note_on_c, 0, 86, 0
2, 33000, Note_on_c, 0, 86, 110
2, 33120, Note_on_c, 0, 86, 0
2, 33120, Note_on_c, 0, 86, 93
2, 33360, Note_on_c, 0, 86, 0
2, 33840, Note_on_c, 0, 86, 99
2, 33900, Note_on_c, 0, 86, 0
2, 33960, Note_on_c, 0, 86, 95
2, 34020, Note_on_c, 0, 86, 0
2, 34320, Note_on_c, 0, 86, 94
2, 34380, Note_on_c, 0, 86, 0
2, 34440, Note_on_c, 0, 86, 98
2, 34500, Note_on_c, 0, 86, 0
2, 34560, Note_on_c, 0, 88, 89
2, 34680, Note_on_c, 0, 88, 0
2, 34800, Note_on_c, 0, 88, 98
2, 34920, Note_on_c, 0, 88, 0
2, 35040, Note_on_c, 0, 81, 89
2, 35160, Note_on_c, 0, 81, 0
2, 40800, Note_on_c, 0, 79, 68
2, 40920, Note_on_c, 0, 79, 0
2, 40920, Note_on_c, 0, 79, 65
2, 41040, Note_on_c, 0, 79, 0
2, 41040, Note_on_c, 0, 79, 65
2, 41160, Note_on_c, 0, 79, 0
2, 41160, Note_on_c, 0, 79, 53
2, 41280, Note_on_c, 0, 79, 0
2, 41280, Note_on_c, 0, 79, 61
2, 41400, Note_on_c, 0, 79, 0
2, 41400, Note_on_c, 0, 79, 65
2, 41520, Note_on_c, 0, 79, 0
2, 41520, Note_on_c, 0, 80, 67
2, 41580, Note_on_c, 0, 80, 0
2, 41580, Note_on_c, 0, 79, 68
2, 41640, Note_on_c, 0, 79, 0
2, 41640, Note_on_c, 0, 77, 53
2, 41700, Note_on_c, 0, 77, 0
2, 41700, Note_on_c, 0, 79, 66
2, 41760, Note_on_c, 0, 79, 0
2, 41760, Note_on_c, 0, 80, 73
2, 41880, Note_on_c, 0, 80, 0
2, 41880, Note_on_c, 0, 79, 72
2, 42000, Note_on_c, 0, 79, 0
2, 42000, Note_on_c, 0, 77, 78
2, 42120, Note_on_c, 0, 77, 0
2, 42120, Note_on_c, 0, 75, 94
2, 42240, Note_on_c, 0, 75, 0
2, 42240, Note_on_c, 0, 74, 94
2, 42360, Note_on_c, 0, 74, 0
2, 42360, Note_on_c, 0, 72, 64
2, 42480, Note_on_c, 0, 72, 0
2, 42480, Note_on_c, 0, 74, 104
2, 42600, Note_on_c, 0, 74, 0
2, 42600, Note_on_c, 0, 70, 93
2, 42720, Note_on_c, 0, 70, 0
2, 42720, Note_on_c, 0, 75, 71
2, 42840, Note_on_c, 0, 75, 0
2, 48480, Note_on_c, 0, 86, 66
2, 49920, Note_on_c, 0, 86, 0
2, 61440, Note_on_c, 0, 79, 93
2, 61800, Note_on_c, 0, 79, 0
2, 61800, Note_on_c, 0, 79, 94
2, 61920, Note_on_c, 0, 79, 0
2, 61920, Note_on_c, 0, 79, 95
2, 62040, Note_on_c, 0, 79, 0
2, 62040, Note_on_c, 0, 79, 94
2, 62160, Note_on_c, 0, 79, 0
2, 62160, Note_on_c, 0, 79, 89
2, 62280, Note_on_c, 0, 79, 0
2, 62280, Note_on_c, 0, 79, 95
2, 62400, Note_on_c, 0, 79, 0
2, 62400, Note_on_c, 0, 80, 99
2, 62760, Note_on_c, 0, 80, 0
2, 63720, Note_on_c, 0, 79, 98
2, 63840, Note_on_c, 0, 79, 0
2, 63840, Note_on_c, 0, 80, 95
2, 63960, Note_on_c, 0, 80, 0
2, 63960, Note_on_c, 0, 80, 94
2, 64080, Note_on_c, 0, 80, 0
2, 64080, Note_on_c, 0, 81, 94
2, 64200, Note_on_c, 0, 81, 0
2, 64200, Note_on_c, 0, 81, 99
2, 64320, Note_on_c, 0, 81, 0
2, 64320, Note_on_c, 0, 82, 94
2, 64680, Note_on_c, 0, 82, 0
2, 65640, Note_on_c, 0, 81, 101
2, 65760, Note_on_c, 0, 81, 0
2, 65760, Note_on_c, 0, 82, 94
2, 65880, Note_on_c, 0, 82, 0
2, 65880, Note_on_c, 0, 82, 90
2, 66000, Note_on_c, 0, 82, 0
2, 66000, Note_on_c, 0, 83, 95
2, 66120, Note_on_c, 0, 83, 0
2, 66120, Note_on_c, 0, 83, 99
2, 66240, Note_on_c, 0, 83, 0
2, 66240, Note_on_c, 0, 84, 94
2, 66600, Note_on_c, 0, 84, 0
2, 82440, Note_on_c, 0, 88, 99
2, 82560, Note_on_c, 0, 88, 0
2, 82560, Note_on_c, 0, 88, 104
2, 82620, Note_on_c, 0, 88, 0
2, 82620, Note_on_c, 0, 86, 99
2, 82680, Note_on_c, 0, 86, 0
2, 82680, Note_on_c, 0, 84, 94
2, 82740, Note_on_c, 0, 84, 0
2, 82800, Note_on_c, 0, 84, 99
2, 82860, Note_on_c, 0, 84, 0
2, 82920, Note_on_c, 0, 88, 99
2, 82980, Note_on_c, 0, 88, 0
2, 83040, Note_on_c, 0, 88, 99
2, 83100, Note_on_c, 0, 88, 0
2, 83100, Note_on_c, 0, 86, 104
2, 83160, Note_on_c, 0, 86, 0
2, 83160, Note_on_c, 0, 84, 99
2, 83220, Note_on_c, 0, 84, 0
2, 83280, Note_on_c, 0, 84, 98
2, 83340, Note_on_c, 0, 84, 0
2, 83400, Note_on_c, 0, 88, 105
2, 83460, Note_on_c, 0, 88, 0
2, 83520, Note_on_c, 0, 88, 104
2, 83580, Note_on_c, 0, 88, 0
2, 83580, Note_on_c, 0, 86, 99
2, 83640, Note_on_c, 0, 86, 0
2, 83640, Note_on_c, 0, 84, 99
2, 83700, Note_on_c, 0, 84, 0
2, 83760, Note_on_c, 0, 84, 99
2, 83820, Note_on_c, 0, 84, 0
2, 83820, Note_on_c, 0, 83, 104
2, 83880, Note_on_c, 0, 83, 0
2, 83880, Note_on_c, 0, 81, 99
2, 83940, Note_on_c, 0, 81, 0
2, 83970, Note_on_c, 0, 81, 104
2, 84000, Note_on_c, 0, 81, 0
2, 84000, Note_on_c, 0, 79, 101
2, 84060, Note_on_c, 0, 79, 0
2, 84120, Note_on_c, 0, 79, 99
2, 84180, Note_on_c, 0, 79, 0
2, 84240, Note_on_c, 0, 81, 104
2, 84300, Note_on_c, 0, 81, 0
2, 84360, Note_on_c, 0, 78, 99
2, 84420, Note_on_c, 0, 78, 0
2, 84480, Note_on_c, 0, 79, 104
2, 84540, Note_on_c, 0, 79, 0
2, 84600, Note_on_c, 0, 79, 99
2, 84660, Note_on_c, 0, 79, 0
2, 84720, Note_on_c, 0, 81, 101
2, 84780, Note_on_c, 0, 81, 0
2, 84840, Note_on_c, 0, 78, 95
2, 84900, Note_on_c, 0, 78, 0
2, 84960, Note_on_c, 0, 79, 99
2, 85320, Note_on_c, 0, 79, 0
2, 85320, Note_on_c, 0, 79, 99
2, 85440, Note_on_c, 0, 79, 0
2, 85440, Note_on_c, 0, 79, 94
2, 85500, Note_on_c, 0, 79, 0
2, 85500, Note_on_c, 0, 81, 99
2, 85560, Note_on_c, 0, 81, 0
2, 85560, Note_on_c, 0, 83, 95
2, 85620, Note_on_c, 0, 83, 0
2, 85680, Note_on_c, 0, 83, 99
2, 85740, Note_on_c, 0, 83, 0
2, 85740, Note_on_c, 0, 84, 73
2, 85800, Note_on_c, 0, 84, 0
2, 85800, Note_on_c, 0, 86, 99
2, 85860, Note_on_c, 0, 86, 0
2, 85920, Note_on_c, 0, 86, 119
2, 86280, Note_on_c, 0, 86, 0
2, 86280, Note_on_c, 0, 83, 101
2, 86400, Note_on_c, 0, 83, 0
2, 86400, Note_on_c, 0, 83, 105
2, 86460, Note_on_c, 0, 83, 0
2, 86460, Note_on_c, 0, 84, 99
2, 86520, Note_on_c, 0, 84, 0
2, 86520, Note_on_c, 0, 86, 110
2, 86580, Note_on_c, 0, 86, 0
2, 86640, Note_on_c, 0, 86, 107
2, 86700, Note_on_c, 0, 86, 0
2, 86700, Note_on_c, 0, 88, 105
2, 86760, Note_on_c, 0, 88, 0
2, 86760, Note_on_c, 0, 89, 105
2, 86820, Note_on_c, 0, 89, 0
2, 86880, Note_on_c, 0, 89, 125
2, 87240, Note_on_c, 0, 89, 0
2, 87240, Note_on_c, 0, 93, 93
2, 87360, Note_on_c, 0, 93, 0
2, 87360, Note_on_c, 0, 93, 95
2, 87420, Note_on_c, 0, 93, 0
2, 87420, Note_on_c, 0, 91, 94
2, 87480, Note_on_c, 0, 91, 0
2, 87480, Note_on_c, 0, 89, 104
2, 87540, Note_on_c, 0, 89, 0
2, 87600, Note_on_c, 0, 89, 101
2, 87660, Note_on_c, 0, 89, 0
2, 87720, Note_on_c, 0, 93, 94
2, 87780, Note_on_c, 0, 93, 0
2, 87840, Note_on_c, 0, 93, 98
2, 87900, Note_on_c, 0, 93, 0
2, 87900, Note_on_c, 0, 91, 99
2, 87960, Note_on_c, 0, 91, 0
2, 87960, Note_on_c, 0, 89, 99
2, 88020, Note_on_c, 0, 89, 0
2, 88080, Note_on_c, 0, 89, 104
2, 88140, Note_on_c, 0, 89, 0
2, 88200, Note_on_c, 0, 93, 99
2, 88260, Note_on_c, 0, 93, 0
2, 88320, Note_on_c, 0, 93, 99
2, 88380, Note_on_c, 0, 93, 0
2, 88380, Note_on_c, 0, 91, 104
2, 88440, Note_on_c, 0, 91, 0
2, 88440, Note_on_c, 0, 89, 104
2, 88500, Note_on_c, 0, 89, 0
2, 88560, Note_on_c, 0, 89, 105
2, 88620, Note_on_c, 0, 89, 0
2, 88620, Note_on_c, 0, 88, 104
2, 88680, Note_on_c, 0, 88, 0
2, 88680, Note_on_c, 0, 86, 110
2, 88740, Note_on_c, 0, 86, 0
2, 88770, Note_on_c, 0, 86, 112
2, 88800, Note_on_c, 0, 86, 0
2, 88800, Note_on_c, 0, 84, 99
2, 88860, Note_on_c, 0, 84, 0
2, 88920, Note_on_c, 0, 84, 99
2, 88980, Note_on_c, 0, 84, 0
2, 89040, Note_on_c, 0, 86, 110
2, 89100, Note_on_c, 0, 86, 0
2, 89160, Note_on_c, 0, 83, 104
2, 89220, Note_on_c, 0, 83, 0
2, 89280, Note_on_c, 0, 72, 78
2, 89340, Note_on_c, 0, 72, 0
2, 89340, Note_on_c, 0, 74, 104
2, 89400, Note_on_c, 0, 74, 0
2, 89400, Note_on_c, 0, 76, 101
2, 89460, Note_on_c, 0, 76, 0
2, 89460, Note_on_c, 0, 77, 95
2, 89520, Note_on_c, 0, 77, 0
2, 89520, Note_on_c, 0, 79, 86
2, 89580, Note_on_c, 0, 79, 0
2, 89580, Note_on_c, 0, 81, 95
2, 89640, Note_on_c, 0, 81, 0
2, 89640, Note_on_c, 0, 83, 98
2, 89700, Note_on_c, 0, 83, 0
2, 89700, Note_on_c, 0, 84, 95
2, 89760, Note_on_c, 0, 84, 0
2, 89760, Note_on_c, 0, 86, 98
2, 89820, Note_on_c, 0, 86, 0
2, 89880, Note_on_c, 0, 88, 104
2, 89940, Note_on_c, 0, 88, 0
2, 90000, Note_on_c, 0, 89, 94
2, 90060, Note_on_c, 0, 89, 0
2, 90120, Note_on_c, 0, 83, 99
2, 90180, Note_on_c, 0, 83, 0
2, 90240, Note_on_c, 0, 84, 125
2, 90300, Note_on_c, 0, 84, 0
2, 90300, Note_on_c, 0, 83, 117
2, 90360, Note_on_c, 0, 83, 0
2, 90360, Note_on_c, 0, 81, 119
2, 90420, Note_on_c, 0, 81, 0
2, 90420, Note_on_c, 0, 79, 123
2, 90480, Note_on_c, 0, 79, 0
2, 90480, Note_on_c, 0, 77, 119
2, 90540, Note_on_c, 0, 77, 0
2, 90540, Note_on_c, 0, 76, 119
2, 90600, Note_on_c, 0, 76, 0
2, 90600, Note_on_c, 0, 74, 119
2, 90660, Note_on_c, 0, 74, 0
2, 90660, Note_on_c, 0, 72, 110
2, 90720, Note_on_c, 0, 72, 0
2, 90720, Note_on_c, 0, 74, 123
2, 90780, Note_on_c, 0, 74, 0
2, 90840, Note_on_c, 0, 76, 115
2, 90900, Note_on_c, 0, 76, 0
2, 90960, Note_on_c, 0, 77, 123
2, 91020, Note_on_c, 0, 77, 0
2, 91080, Note_on_c, 0, 83, 125
2, 91140, Note_on_c, 0, 83, 0
2, 91200, Note_on_c, 0, 84, 119
2, 91260, Note_on_c, 0, 84, 0
2, 91320, Note_on_c, 0, 86, 123
2, 91380, Note_on_c, 0, 86, 0
2, 91440, Note_on_c, 0, 84, 127
2, 91500, Note_on_c, 0, 84, 0
2, 91560, Note_on_c, 0, 86, 123
2, 91620, Note_on_c, 0, 86, 0
2, 91680, Note_on_c, 0, 84, 123
2, 91920, Note_on_c, 0, 84, 0
2, 96120, Note_on_c, 0, 76, 61
2, 96240, Note_on_c, 0, 76, 0
2, 96240, Note_on_c, 0, 84, 45
2, 96360, Note_on_c, 0, 84, 0
2, 96360, Note_on_c, 0, 81, 45
2, 96480, Note_on_c, 0, 81, 0
2, 96480, Note_on_c, 0, 80, 40
2, 96600, Note_on_c, 0, 80, 0
2, 97080, Note_on_c, 0, 76, 52
2, 97200, Note_on_c, 0, 76, 0
2, 97200, Note_on_c, 0, 84, 46
2, 97320, Note_on_c, 0, 84, 0
2, 97320, Note_on_c, 0, 81, 52
2, 97440, Note_on_c, 0, 81, 0
2, 97440, Note_on_c, 0, 80, 45
2, 97560, Note_on_c, 0, 80, 0
2, 98160, Note_on_c, 0, 76, 65
2, 98280, Note_on_c, 0, 76, 0
2, 98280, Note_on_c, 0, 81, 63
2, 98400, Note_on_c, 0, 81, 0
2, 98400, Note_on_c, 0, 84, 51
2, 98520, Note_on_c, 0, 84, 0
2, 98520, Note_on_c, 0, 88, 42
2, 98640, Note_on_c, 0, 88, 0
2, 99000, Note_on_c, 0, 76, 72
2, 99120, Note_on_c, 0, 76, 0
2, 99120, Note_on_c, 0, 83, 67
2, 99240, Note_on_c, 0, 83, 0
2, 99240, Note_on_c, 0, 83, 70
2, 99360, Note_on_c, 0, 83, 0
2, 99360, Note_on_c, 0, 76, 59
2, 99480, Note_on_c, 0, 76, 0
2, 107640, Note_on_c, 0, 88, 57
2, 107760, Note_on_c, 0, 88, 0
2, 107760, Note_on_c, 0, 86, 49
2, 107880, Note_on_c, 0, 86, 0
2, 107880, Note_on_c, 0, 84, 43
2, 108000, Note_on_c, 0, 84, 0
2, 108000, Note_on_c, 0, 83, 67
2, 108120, Note_on_c, 0, 83, 0
2, 108120, Note_on_c, 0, 81, 53
2, 108240, Note_on_c, 0, 81, 0
2, 108240, Note_on_c, 0, 80, 44
2, 108360, Note_on_c, 0, 80, 0
2, 108360, Note_on_c, 0, 81, 43
2, 108480, Note_on_c, 0, 81, 0
2, 108480, Note_on_c, 0, 82, 41
2, 108600, Note_on_c, 0, 82, 0
2, 108600, Note_on_c, 0, 83, 40
2, 108840, Note_on_c, 0, 83, 0
2, 108840, Note_on_c, 0, 80, 43
2, 108960, Note_on_c, 0, 80, 0
2, 108960, Note_on_c, 0, 81, 42
2, 109080, Note_on_c, 0, 81, 0
2, 119520, Note_on_c, 0, 78, 64
2, 119640, Note_on_c, 0, 78, 0
2, 119640, Note_on_c, 0, 79, 59
2, 119760, Note_on_c, 0, 79, 0
2, 119760, Note_on_c, 0, 80, 43
2, 119880, Note_on_c, 0, 80, 0
2, 119880, Note_on_c, 0, 81, 67
2, 120000, Note_on_c, 0, 81, 0
2, 120000, Note_on_c, 0, 74, 61
2, 120240, Note_on_c, 0, 74, 0
2, 120240, Note_on_c, 0, 79, 56
2, 120600, Note_on_c, 0, 79, 0
2, 120600, Note_on_c, 0, 76, 71
2, 120720, Note_on_c, 0, 76, 0
2, 120720, Note_on_c, 0, 77, 53
2, 120840, Note_on_c, 0, 77, 0
2, 120840, Note_on_c, 0, 79, 57
2, 120960, Note_on_c, 0, 79, 0
2, 120960, Note_on_c, 0, 81, 68
2, 121080, Note_on_c, 0, 81, 0
2, 121080, Note_on_c, 0, 84, 67
2, 121200, Note_on_c, 0, 84, 0
2, 121200, Note_on_c, 0, 82, 69
2, 121320, Note_on_c, 0, 82, 0
2, 121320, Note_on_c, 0, 81, 76
2, 121440, Note_on_c, 0, 81, 0
2, 121440, Note_on_c, 0, 79, 59
2, 121560, Note_on_c, 0, 79, 0
2, 121560, Note_on_c, 0, 77, 64
2, 121680, Note_on_c, 0, 77, 0
2, 121680, Note_on_c, 0, 76, 78
2, 121800, Note_on_c, 0, 76, 0
2, 121800, Note_on_c, 0, 77, 64
2, 121920, Note_on_c, 0, 77, 0
2, 121920, Note_on_c, 0, 78, 74
2, 122040, Note_on_c, 0, 78, 0
2, 122040, Note_on_c, 0, 79, 67
2, 122280, Note_on_c, 0, 79, 0
2, 122280, Note_on_c, 0, 76, 69
2, 122400, Note_on_c, 0, 76, 0
2, 122400, Note_on_c, 0, 77, 68
2, 122520, Note_on_c, 0, 77, 0
2, 122760, Note_on_c, 0, 89, 64
2, 122880, Note_on_c, 0, 89, 0
2, 122880, Note_on_c, 0, 88, 54
2, 123000, Note_on_c, 0, 88, 0
2, 123000, Note_on_c, 0, 86, 45
2, 123120, Note_on_c, 0, 86, 0
2, 123120, Note_on_c, 0, 85, 64
2, 123240, Note_on_c, 0, 85, 0
2, 123240, Note_on_c, 0, 86, 57
2, 123360, Note_on_c, 0, 86, 0
2, 123360, Note_on_c, 0, 87, 74
2, 123480, Note_on_c, 0, 87, 0
2, 123480, Note_on_c, 0, 88, 77
2, 123720, Note_on_c, 0, 88, 0
2, 123720, Note_on_c, 0, 85, 46
2, 123840, Note_on_c, 0, 85, 0
2, 123840, Note_on_c, 0, 86, 66
2, 123900, Note_on_c, 0, 86, 0
2, 123960, Note_on_c, 0, 88, 76
2, 124080, Note_on_c, 0, 88, 0
2, 124080, Note_on_c, 0, 86, 71
2, 124200, Note_on_c, 0, 86, 0
2, 124200, Note_on_c, 0, 84, 72
2, 124320, Note_on_c, 0, 84, 0
2, 124320, Note_on_c, 0, 83, 81
2, 124440, Note_on_c, 0, 83, 0
2, 124440, Note_on_c, 0, 81, 80
2, 124560, Note_on_c, 0, 81, 0
2, 124560, Note_on_c, 0, 80, 86
2, 124680, Note_on_c, 0, 80, 0
2, 124680, Note_on_c, 0, 81, 94
2, 124800, Note_on_c, 0, 81, 0
2, 124800, Note_on_c, 0, 82, 48
2, 124920, Note_on_c, 0, 82, 0
2, 124920, Note_on_c, 0, 83, 48
2, 125160, Note_on_c, 0, 83, 0
2, 125160, Note_on_c, 0, 80, 45
2, 125280, Note_on_c, 0, 80, 0
2, 125280, Note_on_c, 0, 81, 62
2, 125400, Note_on_c, 0, 81, 0
2, 131040, Note_on_c, 0, 69, 104
2, 131400, Note_on_c, 0, 69, 0
2, 131400, Note_on_c, 0, 69, 105
2, 131520, Note_on_c, 0, 69, 0
2, 131520, Note_on_c, 0, 69, 99
2, 131640, Note_on_c, 0, 69, 0
2, 131640, Note_on_c, 0, 69, 99
2, 131760, Note_on_c, 0, 69, 0
2, 131760, Note_on_c, 0, 69, 99
2, 131880, Note_on_c, 0, 69, 0
2, 131880, Note_on_c, 0, 69, 104
2, 132000, Note_on_c, 0, 69, 0
2, 132000, Note_on_c, 0, 70, 105
2, 132240, Note_on_c, 0, 70, 0
2, 133320, Note_on_c, 0, 69, 95
2, 133440, Note_on_c, 0, 69, 0
2, 133440, Note_on_c, 0, 70, 95
2, 133560, Note_on_c, 0, 70, 0
2, 133560, Note_on_c, 0, 70, 89
2, 133680, Note_on_c, 0, 70, 0
2, 133680, Note_on_c, 0, 71, 99
2, 133800, Note_on_c, 0, 71, 0
2, 133800, Note_on_c, 0, 71, 94
2, 133920, Note_on_c, 0, 71, 0
2, 133920, Note_on_c, 0, 72, 93
2, 134280, Note_on_c, 0, 72, 0
2, 135240, Note_on_c, 0, 71, 90
2, 135360, Note_on_c, 0, 71, 0
2, 135360, Note_on_c, 0, 72, 80
2, 135480, Note_on_c, 0, 72, 0
2, 135480, Note_on_c, 0, 72, 69
2, 135600, Note_on_c, 0, 72, 0
2, 135600, Note_on_c, 0, 73, 84
2, 135720, Note_on_c, 0, 73, 0
2, 135720, Note_on_c, 0, 73, 85
2, 135840, Note_on_c, 0, 73, 0
2, 135840, Note_on_c, 0, 74, 94
2, 136200, Note_on_c, 0, 74, 0
2, 144120, Note_on_c, 0, 83, 45
2, 144180, Note_on_c, 0, 83, 0
2, 144180, Note_on_c, 0, 84, 61
2, 144240, Note_on_c, 0, 84, 0
2, 144240, Note_on_c, 0, 86, 67
2, 144300, Note_on_c, 0, 86, 0
2, 145080, Note_on_c, 0, 84, 67
2, 145140, Note_on_c, 0, 84, 0
2, 145140, Note_on_c, 0, 86, 50
2, 145200, Note_on_c, 0, 86, 0
2, 145200, Note_on_c, 0, 88, 64
2, 145260, Note_on_c, 0, 88, 0
2, 146040, Note_on_c, 0, 86, 81
2, 146100, Note_on_c, 0, 86, 0
2, 146100, Note_on_c, 0, 88, 63
2, 146160, Note_on_c, 0, 88, 0
2, 146160, Note_on_c, 0, 89, 56
2, 146220, Note_on_c, 0, 89, 0
2, 146280, Note_on_c, 0, 86, 78
2, 146340, Note_on_c, 0, 86, 0
2, 146340, Note_on_c, 0, 88, 72
2, 146400, Note_on_c, 0, 88, 0
2, 146400, Note_on_c, 0, 89, 76
2, 146460, Note_on_c, 0, 89, 0
2, 146760, Note_on_c, 0, 86, 78
2, 146820, Note_on_c, 0, 86, 0
2, 146820, Note_on_c, 0, 88, 66
2, 146880, Note_on_c, 0, 88, 0
2, 146880, Note_on_c, 0, 89, 67
2, 146940, Note_on_c, 0, 89, 0
2, 147240, Note_on_c, 0, 86, 68
2, 147300, Note_on_c, 0, 86, 0
2, 147300, Note_on_c, 0, 88, 74
2, 147360, Note_on_c, 0, 88, 0
2, 147360, Note_on_c, 0, 89, 72
2, 147420, Note_on_c, 0, 89, 0
2, 158760, Note_on_c, 0, 88, 99
2, 158880, Note_on_c, 0, 88, 0
2, 158880, Note_on_c, 0, 88, 104
2, 158940, Note_on_c, 0, 88, 0
2, 158940, Note_on_c, 0, 86, 99
2, 159000, Note_on_c, 0, 86, 0
2, 159000, Note_on_c, 0, 84, 94
2, 159060, Note_on_c, 0, 84, 0
2, 159120, Note_on_c, 0, 84, 99
2, 159180, Note_on_c, 0, 84, 0
2, 159240, Note_on_c, 0, 88, 99
2, 159300, Note_on_c, 0, 88, 0
2, 159360, Note_on_c, 0, 88, 99
2, 159420, Note_on_c, 0, 88, 0
2, 159420, Note_on_c, 0, 86, 104
2, 159480, Note_on_c, 0, 86, 0
2, 159480, Note_on_c, 0, 84, 99
2, 159540, Note_on_c, 0, 84, 0
2, 159600, Note_on_c, 0, 84, 98
2, 159660, Note_on_c, 0, 84, 0
2, 159720, Note_on_c, 0, 88, 105
2, 159780, Note_on_c, 0, 88, 0
2, 159840, Note_on_c, 0, 88, 104
2, 159900, Note_on_c, 0, 88, 0
2, 159900, Note_on_c, 0, 86, 99
2, 159960, Note_on_c, 0, 86, 0
2, 159960, Note_on_c, 0, 84, 99
2, 160020, Note_on_c, 0, 84, 0
2, 160080, Note_on_c, 0, 84, 99
2, 160140, Note_on_c, 0, 84, 0
2, 160140, Note_on_c, 0, 83, 104
2, 160200, Note_on_c, 0, 83, 0
2, 160200, Note_on_c, 0, 81, 99
2, 160260, Note_on_c, 0, 81, 0
2, 160290, Note_on_c, 0, 81, 104
2, 160320, Note_on_c, 0, 81, 0
2, 160320, Note_on_c, 0, 79, 101
2, 160380, Note_on_c, 0, 79, 0
2, 160440, Note_on_c, 0, 79, 99
2, 160500, Note_on_c, 0, 79, 0
2, 160560, Note_on_c, 0, 81, 104
2, 160620, Note_on_c, 0, 81, 0
2, 160680, Note_on_c, 0, 78, 99
2, 160740, Note_on_c, 0, 78, 0
2, 160800, Note_on_c, 0, 79, 104
2, 160860, Note_on_c, 0, 79, 0
2, 160920, Note_on_c, 0, 79, 99
2, 160980, Note_on_c, 0, 79, 0
2, 161040, Note_on_c, 0, 81, 101
2, 161100, Note_on_c, 0, 81, 0
2, 161160, Note_on_c, 0, 78, 95
2, 161220, Note_on_c, 0, 78, 0
2, 161280, Note_on_c, 0, 79, 99
2, 161640, Note_on_c, 0, 79, 0
2, 161640, Note_on_c, 0, 79, 99
2, 161760, Note_on_c, 0, 79, 0
2, 161760, Note_on_c, 0, 79, 94
2, 161820, Note_on_c, 0, 79, 0
2, 161820, Note_on_c, 0, 81, 99
2, 161880, Note_on_c, 0, 81, 0
2, 161880, Note_on_c, 0, 83, 95
2, 161940, Note_on_c, 0, 83, 0
2, 162000, Note_on_c, 0, 83, 99
2, 162060, Note_on_c, 0, 83, 0
2, 162060, Note_on_c, 0, 84, 73
2, 162120, Note_on_c, 0, 84, 0
2, 162120, Note_on_c, 0, 86, 99
2, 162180, Note_on_c, 0, 86, 0
2, 162240, Note_on_c, 0, 86, 119
2, 162600, Note_on_c, 0, 86, 0
2, 162600, Note_on_c, 0, 83, 101
2, 162720, Note_on_c, 0, 83, 0
2, 162720, Note_on_c, 0, 83, 105
2, 162780, Note_on_c, 0, 83, 0
2, 162780, Note_on_c, 0, 84, 99
2, 162840, Note_on_c, 0, 84, 0
2, 162840, Note_on_c, 0, 86, 110
2, 162900, Note_on_c, 0, 86, 0
2, 162960, Note_on_c, 0, 86, 107
2, 163020, Note_on_c, 0, 86, 0
2, 163020, Note_on_c, 0, 88, 105
2, 163080, Note_on_c, 0, 88, 0
2, 163080, Note_on_c, 0, 89, 105
2, 163140, Note_on_c, 0, 89, 0
2, 163200, Note_on_c, 0, 89, 125
2, 163560, Note_on_c, 0, 89, 0
2, 163560, Note_on_c, 0, 93, 93
2, 163680, Note_on_c, 0, 93, 0
2, 163680, Note_on_c, 0, 93, 95
2, 163740, Note_on_c, 0, 93, 0
2, 163740, Note_on_c, 0, 91, 94
2, 163800, Note_on_c, 0, 91, 0
2, 163800, Note_on_c, 0, 89, 104
2, 163860, Note_on_c, 0, 89, 0
2, 163920, Note_on_c, 0, 89, 101
2, 163980, Note_on_c, 0, 89, 0
2, 164040, Note_on_c, 0, 93, 94
2, 164100, Note_on_c, 0, 93, 0
2, 164160, Note_on_c, 0, 93, 98
2, 164220, Note_on_c, 0, 93, 0
2, 164220, Note_on_c, 0, 91, 99
2, 164280, Note_on_c, 0, 91, 0
2, 164280, Note_on_c, 0, 89, 99
2, 164340, Note_on_c, 0, 89, 0
2, 164400, Note_on_c, 0, 89, 104
2, 164460, Note_on_c, 0, 89, 0
2, 164520, Note_on_c, 0, 93, 99
2, 164580, Note_on_c, 0, 93, 0
2, 164640, Note_on_c, 0, 93, 99
2, 164700, Note_on_c, 0, 93, 0
2, 164700, Note_on_c, 0, 91, 104
2, 164760, Note_on_c, 0, 91, 0
2, 164760, Note_on_c, 0, 89, 104
2, 164820, Note_on_c, 0, 89, 0
2, 164880, Note_on_c, 0, 89, 105
2, 164940, Note_on_c, 0, 89, 0
2, 164940, Note_on_c, 0, 88, 104
2, 165000, Note_on_c, 0, 88, 0
2, 165000, Note_on_c, 0, 86, 110
2, 165060, Note_on_c, 0, 86, 0
2, 165090, Note_on_c, 0, 86, 112
2, 165120, Note_on_c, 0, 86, 0
2, 165120, Note_on_c, 0, 84, 99
2, 165180, Note_on_c, 0, 84, 0
2, 165240, Note_on_c, 0, 84, 99
2, 165300, Note_on_c, 0, 84, 0
2, 165360, Note_on_c, 0, 86, 110
2, 165420, Note_on_c, 0, 86, 0
2, 165480, Note_on_c, 0, 83, 104
2, 165540, Note_on_c, 0, 83, 0
2, 165600, Note_on_c, 0, 72, 78
2, 165660, Note_on_c, 0, 72, 0
2, 165660, Note_on_c, 0, 74, 104
2, 165720, Note_on_c, 0, 74, 0
2, 165720, Note_on_c, 0, 76, 101
2, 165780, Note_on_c, 0, 76, 0
2, 165780, Note_on_c, 0, 77, 95
2, 165840, Note_on_c, 0, 77, 0
2, 165840, Note_on_c, 0, 79, 86
2, 165900, Note_on_c, 0, 79, 0
2, 165900, Note_on_c, 0, 81, 95
2, 165960, Note_on_c, 0, 81, 0
2, 165960, Note_on_c, 0, 83, 98
2, 166020, Note_on_c, 0, 83, 0
2, 166020, Note_on_c, 0, 84, 95
2, 166080, Note_on_c, 0, 84, 0
2, 166080, Note_on_c, 0, 86, 98
2, 166140, Note_on_c, 0, 86, 0
2, 166200, Note_on_c, 0, 88, 104
2, 166260, Note_on_c, 0, 88, 0
2, 166320, Note_on_c, 0, 89, 94
2, 166380, Note_on_c, 0, 89, 0
2, 166440, Note_on_c, 0, 83, 99
2, 166500, Note_on_c, 0, 83, 0
2, 166560, Note_on_c, 0, 84, 125
2, 166620, Note_on_c, 0, 84, 0
2, 166620, Note_on_c, 0, 83, 117
2, 166680, Note_on_c, 0, 83, 0
2, 166680, Note_on_c, 0, 81, 119
2, 166740, Note_on_c, 0, 81, 0
2, 166740, Note_on_c, 0, 79, 123
2, 166800, Note_on_c, 0, 79, 0
2, 166800, Note_on_c, 0, 77, 119
2, 166860, Note_on_c, 0, 77, 0
2, 166860, Note_on_c, 0, 76, 119
2, 166920, Note_on_c, 0, 76, 0
2, 166920, Note_on_c, 0, 74, 119
2, 166980, Note_on_c, 0, 74, 0
2, 166980, Note_on_c, 0, 72, 110
2, 167040, Note_on_c, 0, 72, 0
2, 167040, Note_on_c, 0, 74, 123
2, 167100, Note_on_c, 0, 74, 0
2, 167160, Note_on_c, 0, 76, 115
2, 167220, Note_on_c, 0, 76, 0
2, 167280, Note_on_c, 0, 77, 123
2, 167340, Note_on_c, 0, 77, 0
2, 167400, Note_on_c, 0, 83, 125
2, 167460, Note_on_c, 0, 83, 0
2, 167520, Note_on_c, 0, 84, 119
2, 167580, Note_on_c, 0, 84, 0
2, 167640, Note_on_c, 0, 86, 123
2, 167700, Note_on_c, 0, 86, 0
2, 167760, Note_on_c, 0, 84, 127
2, 167820, Note_on_c, 0, 84, 0
2, 167880, Note_on_c, 0, 86, 123
2, 167940, Note_on_c, 0, 86, 0
2, 168000, Note_on_c, 0, 84, 123
2, 168240, Note_on_c, 0, 84, 0
2, 183240, Note_on_c, 0, 79, 65
2, 183360, Note_on_c, 0, 79, 0
2, 183360, Note_on_c, 0, 84, 69
2, 183480, Note_on_c, 0, 84, 0
2, 183480, Note_on_c, 0, 83, 53
2, 183600, Note_on_c, 0, 83, 0
2, 183600, Note_on_c, 0, 84, 72
2, 183720, Note_on_c, 0, 84, 0
2, 183720, Note_on_c, 0, 86, 95
2, 183840, Note_on_c, 0, 86, 0
2, 183840, Note_on_c, 0, 84, 61
2, 183960, Note_on_c, 0, 84, 0
2, 183960, Note_on_c, 0, 83, 47
2, 184080, Note_on_c, 0, 83, 0
2, 184080, Note_on_c, 0, 81, 57
2, 184200, Note_on_c, 0, 81, 0
2, 184200, Note_on_c, 0, 79, 78
2, 184320, Note_on_c, 0, 79, 0
2, 184320, Note_on_c, 0, 84, 62
2, 184440, Note_on_c, 0, 84, 0
2, 184440, Note_on_c, 0, 83, 53
2, 184560, Note_on_c, 0, 83, 0
2, 184560, Note_on_c, 0, 84, 56
2, 184680, Note_on_c, 0, 84, 0
2, 184680, Note_on_c, 0, 86, 95
2, 184800, Note_on_c, 0, 86, 0
2, 184800, Note_on_c, 0, 83, 76
2, 185040, Note_on_c, 0, 83, 0
2, 185160, Note_on_c, 0, 79, 80
2, 185280, Note_on_c, 0, 79, 0
2, 185280, Note_on_c, 0, 89, 67
2, 185340, Note_on_c, 0, 89, 0
2, 185400, Note_on_c, 0, 89, 72
2, 185460, Note_on_c, 0, 89, 0
2, 185640, Note_on_c, 0, 89, 74
2, 185760, Note_on_c, 0, 89, 0
2, 185760, Note_on_c, 0, 88, 74
2, 185820, Note_on_c, 0, 88, 0
2, 185880, Note_on_c, 0, 88, 80
2, 185940, Note_on_c, 0, 88, 0
2, 186120, Note_on_c, 0, 88, 76
2, 186180, Note_on_c, 0, 88, 0
2, 186240, Note_on_c, 0, 88, 80
2, 186360, Note_on_c, 0, 88, 0
2, 186360, Note_on_c, 0, 86, 73
2, 186480, Note_on_c, 0, 86, 0
2, 186480, Note_on_c, 0, 86, 72
2, 186600, Note_on_c, 0, 86, 0
2, 186600, Note_on_c, 0, 84, 64
2, 186720, Note_on_c, 0, 84, 0
2, 186720, Note_on_c, 0, 83, 62
2, 186960, Note_on_c, 0, 83, 0
2, 186960, Note_on_c, 0, 86, 71
2, 187080, Note_on_c, 0, 86, 0
2, 192480, Note_on_c, 0, 72, 57
2, 192600, Note_on_c, 0, 72, 0
2, 192600, Note_on_c, 0, 84, 53
2, 192720, Note_on_c, 0, 84, 0
2, 192720, Note_on_c, 0, 84, 61
2, 192840, Note_on_c, 0, 84, 0
2, 192840, Note_on_c, 0, 84, 52
2, 192960, Note_on_c, 0, 84, 0
2, 192960, Note_on_c, 0, 84, 43
2, 193080, Note_on_c, 0, 84, 0
2, 193080, Note_on_c, 0, 84, 58
2, 193200, Note_on_c, 0, 84, 0
2, 193200, Note_on_c, 0, 85, 72
2, 193260, Note_on_c, 0, 85, 0
2, 193260, Note_on_c, 0, 84, 67
2, 193320, Note_on_c, 0, 84, 0
2, 193320, Note_on_c, 0, 82, 64
2, 193380, Note_on_c, 0, 82, 0
2, 193380, Note_on_c, 0, 84, 77
2, 193440, Note_on_c, 0, 84, 0
2, 193440, Note_on_c, 0, 85, 71
2, 193560, Note_on_c, 0, 85, 0
2, 193560, Note_on_c, 0, 84, 77
2, 193680, Note_on_c, 0, 84, 0
2, 193680, Note_on_c, 0, 82, 84
2, 193800, Note_on_c, 0, 82, 0
2, 193800, Note_on_c, 0, 80, 86
2, 193920, Note_on_c, 0, 80, 0
2, 193920, Note_on_c, 0, 79, 84
2, 194040, Note_on_c, 0, 79, 0
2, 194040, Note_on_c, 0, 77, 73
2, 194160, Note_on_c, 0, 77, 0
2, 194160, Note_on_c, 0, 79, 93
2, 194280, Note_on_c, 0, 79, 0
2, 194280, Note_on_c, 0, 75, 74
2, 194400, Note_on_c, 0, 75, 0
2, 194400, Note_on_c, 0, 80, 53
2, 194640, Note_on_c, 0, 80, 0
2, 211200, Note_on_c, 0, 84, 69
2, 211680, Note_on_c, 0, 84, 0
2, 211680, Note_on_c, 0, 86, 71
2, 212160, Note_on_c, 0, 86, 0
2, 212160, Note_on_c, 0, 88, 84
2, 212640, Note_on_c, 0, 88, 0
2, 212640, Note_on_c, 0, 89, 81
2, 213120, Note_on_c, 0, 89, 0
2, 213120, Note_on_c, 0, 91, 76
2, 213600, Note_on_c, 0, 91, 0
2, 213600, Note_on_c, 0, 93, 81
2, 214080, Note_on_c, 0, 93, 0
2, 214080, Note_on_c, 0, 83, 80
2, 214560, Note_on_c, 0, 83, 0
2, 214560, Note_on_c, 0, 84, 66
2, 214800, Note_on_c, 0, 84, 0
2, 214800, Note_on_c, 0, 85, 69
2, 215040, Note_on_c, 0, 85, 0
2, 215040, Note_on_c, 0, 86, 99
2, 215520, Note_on_c, 0, 86, 0
2, 215520, Note_on_c, 0, 87, 93
2, 216000, Note_on_c, 0, 87, 0
2, 216000, Note_on_c, 0, 88, 90
2, 216240, Note_on_c, 0, 88, 0
2, 216240, Note_on_c, 0, 89, 95
2, 216480, Note_on_c, 0, 89, 0
2, 216480, Note_on_c, 0, 88, 94
2, 216720, Note_on_c, 0, 88, 0
2, 216720, Note_on_c, 0, 87, 89
2, 216960, Note_on_c, 0, 87, 0
2, 216960, Note_on_c, 0, 88, 93
2, 217200, Note_on_c, 0, 88, 0
2, 217200, Note_on_c, 0, 89, 89
2, 217440, Note_on_c, 0, 89, 0
2, 217440, Note_on_c, 0, 88, 93
2, 217680, Note_on_c, 0, 88, 0
2, 217680, Note_on_c, 0, 87, 86
2, 217920, Note_on_c, 0, 87, 0
2, 217920, Note_on_c, 0, 88, 89
2, 218160, Note_on_c, 0, 88, 0
2, 218160, Note_on_c, 0, 87, 80
2, 218400, Note_on_c, 0, 87, 0
2, 218400, Note_on_c, 0, 88, 101
2, 218640, Note_on_c, 0, 88, 0
2, 218640, Note_on_c, 0, 87, 99
2, 218880, Note_on_c, 0, 87, 0
2, 218880, Note_on_c, 0, 88, 101
2, 220320, Note_on_c, 0, 88, 0
2, 234960, Note_on_c, 0, 78, 60
2, 235200, Note_on_c, 0, 78, 0
2, 235440, Note_on_c, 0, 78, 44
2, 235680, Note_on_c, 0, 78, 0
2, 235920, Note_on_c, 0, 78, 59
2, 236160, Note_on_c, 0, 78, 0
2, 236400, Note_on_c, 0, 78, 48
2, 236640, Note_on_c, 0, 78, 0
2, 236850, Note_on_c, 0, 78, 53
2, 236880, Note_on_c, 0, 78, 0
2, 236880, Note_on_c, 0, 79, 61
2, 237120, Note_on_c, 0, 79, 0
2, 237330, Note_on_c, 0, 78, 65
2, 237360, Note_on_c, 0, 78, 0
2, 237360, Note_on_c, 0, 79, 55
2, 237600, Note_on_c, 0, 79, 0
2, 237840, Note_on_c, 0, 79, 57
2, 237960, Note_on_c, 0, 79, 0
2, 238080, Note_on_c, 0, 83, 72
2, 238200, Note_on_c, 0, 83, 0
2, 238320, Note_on_c, 0, 86, 53
2, 238560, Note_on_c, 0, 86, 0
2, 238560, Note_on_c, 0, 89, 49
2, 238680, Note_on_c, 0, 89, 0
2, 238800, Note_on_c, 0, 79, 38
2, 238920, Note_on_c, 0, 79, 0
2, 239040, Note_on_c, 0, 83, 43
2, 239160, Note_on_c, 0, 83, 0
2, 239280, Note_on_c, 0, 86, 40
2, 239400, Note_on_c, 0, 86, 0
2, 239520, Note_on_c, 0, 89, 44
2, 240960, Note_on_c, 0, 89, 0
2, 241320, Note_on_c, 0, 88, 99
2, 241440, Note_on_c, 0, 88, 0
2, 241440, Note_on_c, 0, 88, 104
2, 241500, Note_on_c, 0, 88, 0
2, 241500, Note_on_c, 0, 86, 99
2, 241560, Note_on_c, 0, 86, 0
2, 241560, Note_on_c, 0, 84, 94
2, 241620, Note_on_c, 0, 84, 0
2, 241680, Note_on_c, 0, 84, 99
2, 241740, Note_on_c, 0, 84, 0
2, 241800, Note_on_c, 0, 88, 99
2, 241860, Note_on_c, 0, 88, 0
2, 241920, Note_on_c, 0, 88, 99
2, 241980, Note_on_c, 0, 88, 0
2, 241980, Note_on_c, 0, 86, 104
2, 242040, Note_on_c, 0, 86, 0
2, 242040, Note_on_c, 0, 84, 99
2, 242100, Note_on_c, 0, 84, 0
2, 242160, Note_on_c, 0, 84, 98
2, 242220, Note_on_c, 0, 84, 0
2, 242280, Note_on_c, 0, 88, 105
2, 242340, Note_on_c, 0, 88, 0
2, 242400, Note_on_c, 0, 88, 104
2, 242460, Note_on_c, 0, 88, 0
2, 242460, Note_on_c, 0, 86, 99
2, 242520, Note_on_c, 0, 86, 0
2, 242520, Note_on_c, 0, 84, 99
2, 242580, Note_on_c, 0, 84, 0
2, 242640, Note_on_c, 0, 84, 99
2, 242700, Note_on_c, 0, 84, 0
2, 242700, Note_on_c, 0, 83, 104
2, 242760, Note_on_c, 0, 83, 0
2, 242760, Note_on_c, 0, 81, 99
2, 242820, Note_on_c, 0, 81, 0
2, 242850, Note_on_c, 0, 81, 104
2, 242880, Note_on_c, 0, 81, 0
2, 242880, Note_on_c, 0, 79, 101
2, 242940, Note_on_c, 0, 79, 0
2, 243000, Note_on_c, 0, 79, 99
2, 243060, Note_on_c, 0, 79, 0
2, 243120, Note_on_c, 0, 81, 104
2, 243180, Note_on_c, 0, 81, 0
2, 243240, Note_on_c, 0, 78, 99
2, 243300, Note_on_c, 0, 78, 0
2, 243360, Note_on_c, 0, 79, 104
2, 243420, Note_on_c, 0, 79, 0
2, 243480, Note_on_c, 0, 79, 99
2, 243540, Note_on_c, 0, 79, 0
2, 243600, Note_on_c, 0, 81, 101
2, 243660, Note_on_c, 0, 81, 0
2, 243720, Note_on_c, 0, 78, 95
2, 243780, Note_on_c, 0, 78, 0
2, 243840, Note_on_c, 0, 79, 99
2, 244200, Note_on_c, 0, 79, 0
2, 244200, Note_on_c, 0, 79, 99
2, 244320, Note_on_c, 0, 79, 0
2, 244320, Note_on_c, 0, 79, 94
2, 244380, Note_on_c, 0, 79, 0
2, 244380, Note_on_c, 0, 81, 99
2, 244440, Note_on_c, 0, 81, 0
2, 244440, Note_on_c, 0, 83, 95
2, 244500, Note_on_c, 0, 83, 0
2, 244560, Note_on_c, 0, 83, 99
2, 244620, Note_on_c, 0, 83, 0
2, 244620, Note_on_c, 0, 84, 73
2, 244680, Note_on_c, 0, 84, 0
2, 244680, Note_on_c, 0, 86, 99
2, 244740, Note_on_c, 0, 86, 0
2, 244800, Note_on_c, 0, 86, 119
2, 245160, Note_on_c, 0, 86, 0
2, 245160, Note_on_c, 0, 83, 101
2, 245280, Note_on_c, 0, 83, 0
2, 245280, Note_on_c, 0, 83, 105
2, 245340, Note_on_c, 0, 83, 0
2, 245340, Note_on_c, 0, 84, 99
2, 245400, Note_on_c, 0, 84, 0
2, 245400, Note_on_c, 0, 86, 110
2, 245460, Note_on_c, 0, 86, 0
2, 245520, Note_on_c, 0, 86, 107
2, 245580, Note_on_c, 0, 86, 0
2, 245580, Note_on_c, 0, 88, 105
2, 245640, Note_on_c, 0, 88, 0
2, 245640, Note_on_c, 0, 89, 105
2, 245700, Note_on_c, 0, 89, 0
2, 245760, Note_on_c, 0, 89, 125
2, 246120, Note_on_c, 0, 89, 0
2, 246120, Note_on_c, 0, 93, 93
2, 246240, Note_on_c, 0, 93, 0
2, 246240, Note_on_c, 0, 93, 95
2, 246300, Note_on_c, 0, 93, 0
2, 246300, Note_on_c, 0, 91, 94
2, 246360, Note_on_c, 0, 91, 0
2, 246360, Note_on_c, 0, 89, 104
2, 246420, Note_on_c, 0, 89, 0
2, 246480, Note_on_c, 0, 89, 101
2, 246540, Note_on_c, 0, 89, 0
2, 246600, Note_on_c, 0, 93, 94
2, 246660, Note_on_c, 0, 93, 0
2, 246720, Note_on_c, 0, 93, 98
2, 246780, Note_on_c, 0, 93, 0
2, 246780, Note_on_c, 0, 91, 99
2, 246840, Note_on_c, 0, 91, 0
2, 246840, Note_on_c, 0, 89, 99
2, 246900, Note_on_c, 0, 89, 0
2, 246960, Note_on_c, 0, 89, 104
2, 247020, Note_on_c, 0, 89, 0
2, 247080, Note_on_c, 0, 93, 99
2, 247140, Note_on_c, 0, 93, 0
2, 247200, Note_on_c, 0, 93, 99
2, 247260, Note_on_c, 0, 93, 0
2, 247260, Note_on_c, 0, 91, 104
2, 247320, Note_on_c, 0, 91, 0
2, 247320, Note_on_c, 0, 89, 104
2, 247380, Note_on_c, 0, 89, 0
2, 247440, Note_on_c, 0, 89, 105
2, 247500, Note_on_c, 0, 89, 0
2, 247500, Note_on_c, 0, 88, 104
2, 247560, Note_on_c, 0, 88, 0
2, 247560, Note_on_c, 0, 86, 110
2, 247620, Note_on_c, 0, 86, 0
2, 247650, Note_on_c, 0, 86, 112
2, 247680, Note_on_c, 0, 86, 0
2, 247680, Note_on_c, 0, 84, 99
2, 247740, Note_on_c, 0, 84, 0
2, 247800, Note_on_c, 0, 84, 99
2, 247860, Note_on_c, 0, 84, 0
2, 247920, Note_on_c, 0, 86, 110
2, 247980, Note_on_c, 0, 86, 0
2, 248040, Note_on_c, 0, 83, 104
2, 248100, Note_on_c, 0, 83, 0
2, 248160, Note_on_c, 0, 72, 78
2, 248220, Note_on_c, 0, 72, 0
2, 248220, Note_on_c, 0, 74, 104
2, 248280, Note_on_c, 0, 74, 0
2, 248280, Note_on_c, 0, 76, 101
2, 248340, Note_on_c, 0, 76, 0
2, 248340, Note_on_c, 0, 77, 95
2, 248400, Note_on_c, 0, 77, 0
2, 248400, Note_on_c, 0, 79, 86
2, 248460, Note_on_c, 0, 79, 0
2, 248460, Note_on_c, 0, 81, 95
2, 248520, Note_on_c, 0, 81, 0
2, 248520, Note_on_c, 0, 83, 98
2, 248580, Note_on_c, 0, 83, 0
2, 248580, Note_on_c, 0, 84, 95
2, 248640, Note_on_c, 0, 84, 0
2, 248640, Note_on_c, 0, 86, 98
2, 248700, Note_on_c, 0, 86, 0
2, 248760, Note_on_c, 0, 88, 104
2, 248820, Note_on_c, 0, 88, 0
2, 248880, Note_on_c, 0, 89, 94
2, 248940, Note_on_c, 0, 89, 0
2, 249000, Note_on_c, 0, 83, 99
2, 249060, Note_on_c, 0, 83, 0
2, 249120, Note_on_c, 0, 84, 125
2, 249180, Note_on_c, 0, 84, 0
2, 249180, Note_on_c, 0, 83, 117
2, 249240, Note_on_c, 0, 83, 0
2, 249240, Note_on_c, 0, 81, 119
2, 249300, Note_on_c, 0, 81, 0
2, 249300, Note_on_c, 0, 79, 123
2, 249360, Note_on_c, 0, 79, 0
2, 249360, Note_on_c, 0, 77, 119
2, 249420, Note_on_c, 0, 77, 0
2, 249420, Note_on_c, 0, 76, 119
2, 249480, Note_on_c, 0, 76, 0
2, 249480, Note_on_c, 0, 74, 119
2, 249540, Note_on_c, 0, 74, 0
2, 249540, Note_on_c, 0, 72, 110
2, 249600, Note_on_c, 0, 72, 0
2, 249600, Note_on_c, 0, 74, 123
2, 249660, Note_on_c, 0, 74, 0
2, 249720, Note_on_c, 0, 76, 115
2, 249780, Note_on_c, 0, 76, 0
2, 249840, Note_on_c, 0, 77, 123
2, 249900, Note_on_c, 0, 77, 0
2, 249960, Note_on_c, 0, 83, 125
2, 250020, Note_on_c, 0, 83, 0
2, 250080, Note_on_c, 0, 84, 119
2, 250140, Note_on_c, 0, 84, 0
2, 250200, Note_on_c, 0, 86, 123
2, 250260, Note_on_c, 0, 86, 0
2, 250320, Note_on_c, 0, 84, 127
2, 250380, Note_on_c, 0, 84, 0
2, 250440, Note_on_c, 0, 86, 123
2, 250500, Note_on_c, 0, 86, 0
2, 250560, Note_on_c, 0, 84, 123
2, 250800, Note_on_c, 0, 84, 0
2, 252780, Note_on_c, 0, 72, 43
2, 252840, Note_on_c, 0, 72, 0
2, 252840, Note_on_c, 0, 74, 62
2, 252900, Note_on_c, 0, 74, 0
2, 252900, Note_on_c, 0, 76, 61
2, 252960, Note_on_c, 0, 76, 0
2, 252960, Note_on_c, 0, 77, 58
2, 253020, Note_on_c, 0, 77, 0
2, 253020, Note_on_c, 0, 79, 55
2, 253080, Note_on_c, 0, 79, 0
2, 253080, Note_on_c, 0, 81, 54
2, 253140, Note_on_c, 0, 81, 0
2, 253140, Note_on_c, 0, 83, 76
2, 253200, Note_on_c, 0, 83, 0
2, 253200, Note_on_c, 0, 84, 43
2, 253320, Note_on_c, 0, 84, 0
2, 253740, Note_on_c, 0, 74, 69
2, 253800, Note_on_c, 0, 74, 0
2, 253800, Note_on_c, 0, 76, 61
2, 253860, Note_on_c, 0, 76, 0
2, 253860, Note_on_c, 0, 77, 58
2, 253920, Note_on_c, 0, 77, 0
2, 253920, Note_on_c, 0, 79, 53
2, 253980, Note_on_c, 0, 79, 0
2, 253980, Note_on_c, 0, 81, 57
2, 254040, Note_on_c, 0, 81, 0
2, 254040, Note_on_c, 0, 83, 54
2, 254100, Note_on_c, 0, 83, 0
2, 254100, Note_on_c, 0, 84, 53
2, 254160, Note_on_c, 0, 84, 0
2, 254160, Note_on_c, 0, 86, 43
2, 254280, Note_on_c, 0, 86, 0
2, 258600, Note_on_c, 0, 88, 74
2, 258720, Note_on_c, 0, 88, 0
2, 258720, Note_on_c, 0, 88, 67
2, 258780, Note_on_c, 0, 88, 0
2, 258780, Note_on_c, 0, 86, 74
2, 258840, Note_on_c, 0, 86, 0
2, 258840, Note_on_c, 0, 84, 68
2, 258900, Note_on_c, 0, 84, 0
2, 258960, Note_on_c, 0, 84, 67
2, 259020, Note_on_c, 0, 84, 0
2, 259560, Note_on_c, 0, 89, 76
2, 259680, Note_on_c, 0, 89, 0
2, 259680, Note_on_c, 0, 89, 81
2, 259740, Note_on_c, 0, 89, 0
2, 259740, Note_on_c, 0, 88, 60
2, 259800, Note_on_c, 0, 88, 0
2, 259800, Note_on_c, 0, 86, 64
2, 259860, Note_on_c, 0, 86, 0
2, 259920, Note_on_c, 0, 86, 74
2, 259980, Note_on_c, 0, 86, 0
2, 260520, Note_on_c, 0, 91, 58
2, 260640, Note_on_c, 0, 91, 0
2, 260640, Note_on_c, 0, 91, 70
2, 260700, Note_on_c, 0, 91, 0
2, 260700, Note_on_c, 0, 89, 50
2, 260760, Note_on_c, 0, 89, 0
2, 260760, Note_on_c, 0, 88, 80
2, 260820, Note_on_c, 0, 88, 0
2, 260880, Note_on_c, 0, 88, 73
2, 260940, Note_on_c, 0, 88, 0
2, 261000, Note_on_c, 0, 88, 69
2, 261060, Note_on_c, 0, 88, 0
2, 261120, Note_on_c, 0, 88, 89
2, 261180, Note_on_c, 0, 88, 0
2, 261180, Note_on_c, 0, 86, 68
2, 261240, Note_on_c, 0, 86, 0
2, 261240, Note_on_c, 0, 84, 74
2, 261300, Note_on_c, 0, 84, 0
2, 261360, Note_on_c, 0, 84, 74
2, 261420, Note_on_c, 0, 84, 0
2, 261480, Note_on_c, 0, 84, 72
2, 261540, Note_on_c, 0, 84, 0
2, 261600, Note_on_c, 0, 86, 67
2, 261840, Note_on_c, 0, 86, 0
2, 261840, Note_on_c, 0, 83, 82
2, 262080, Note_on_c, 0, 83, 0
2, 262080, Note_on_c, 0, 84, 61
2, 262200, Note_on_c, 0, 84, 0
2, 282600, Note_on_c, 0, 84, 95
2, 282720, Note_on_c, 0, 84, 0
2, 282720, Note_on_c, 0, 86, 99
2, 283200, Note_on_c, 0, 86, 0
2, 283200, Note_on_c, 0, 86, 62
2, 283320, Note_on_c, 0, 86, 0
2, 283320, Note_on_c, 0, 86, 99
2, 283440, Note_on_c, 0, 86, 0
2, 283440, Note_on_c, 0, 86, 99
2, 283560, Note_on_c, 0, 86, 0
2, 283560, Note_on_c, 0, 86, 101
2, 283680, Note_on_c, 0, 86, 0
2, 283680, Note_on_c, 0, 84, 94
2, 283800, Note_on_c, 0, 84, 0
2, 283800, Note_on_c, 0, 86, 95
2, 283920, Note_on_c, 0, 86, 0
2, 283920, Note_on_c, 0, 84, 89
2, 284040, Note_on_c, 0, 84, 0
2, 284040, Note_on_c, 0, 86, 94
2, 284160, Note_on_c, 0, 86, 0
2, 284160, Note_on_c, 0, 84, 93
2, 284280, Note_on_c, 0, 84, 0
2, 284280, Note_on_c, 0, 86, 99
2, 284400, Note_on_c, 0, 86, 0
2, 284400, Note_on_c, 0, 84, 90
2, 284520, Note_on_c, 0, 84, 0
2, 284520, Note_on_c, 0, 86, 95
2, 284640, Note_on_c, 0, 86, 0
2, 284640, Note_on_c, 0, 84, 98
2, 284880, Note_on_c, 0, 84, 0
2, 284880, Note_on_c, 0, 84, 98
2, 285120, Note_on_c, 0, 84, 0
2, 285120, Note_on_c, 0, 72, 84
2, 285360, Note_on_c, 0, 72, 0
2, 285360, End_track
3, 0, Start_track
3, 0, MIDI_port, 0
3, 0, Title_t, "Oboes"
3, 0, Program_c, 1, 68
3, 0, Control_c, 1, 7, 100
3, 0, Control_c, 1, 10, 58
3, 0, Control_c, 1, 93, 0
3, 0, Control_c, 1, 91, 66
3, 9960, Note_on_c, 1, 76, 99
3, 10080, Note_on_c, 1, 76, 0
3, 10080, Note_on_c, 1, 76, 99
3, 10140, Note_on_c, 1, 76, 0
3, 10140, Note_on_c, 1, 74, 99
3, 10200, Note_on_c, 1, 74, 0
3, 10200, Note_on_c, 1, 72, 89
3, 10260, Note_on_c, 1, 72, 0
3, 10320, Note_on_c, 1, 72, 89
3, 10380, Note_on_c, 1, 72, 0
3, 10440, Note_on_c, 1, 76, 101
3, 10500, Note_on_c, 1, 76, 0
3, 10560, Note_on_c, 1, 76, 101
3, 10620, Note_on_c, 1, 76, 0
3, 10620, Note_on_c, 1, 74, 99
3, 10680, Note_on_c, 1, 74, 0
3, 10680, Note_on_c, 1, 72, 86
3, 10740, Note_on_c, 1, 72, 0
3, 10800, Note_on_c, 1, 72, 84
3, 10860, Note_on_c, 1, 72, 0
3, 10920, Note_on_c, 1, 76, 101
3, 10980, Note_on_c, 1, 76, 0
3, 11040, Note_on_c, 1, 76, 105
3, 11100, Note_on_c, 1, 76, 0
3, 11100, Note_on_c, 1, 74, 99
3, 11160, Note_on_c, 1, 74, 0
3, 11160, Note_on_c, 1, 72, 89
3, 11220, Note_on_c, 1, 72, 0
3, 11280, Note_on_c, 1, 72, 93
3, 11340, Note_on_c, 1, 72, 0
3, 11340, Note_on_c, 1, 71, 105
3, 11400, Note_on_c, 1, 71, 0
3, 11400, Note_on_c, 1, 69, 99
3, 11460, Note_on_c, 1, 69, 0
3, 11520, Note_on_c, 1, 67, 99
3, 11580, Note_on_c, 1, 67, 0
3, 11640, Note_on_c, 1, 79, 89
3, 11640, Note_on_c, 1, 71, 105
3, 11700, Note_on_c, 1, 71, 0
3, 11700, Note_on_c, 1, 79, 0
3, 11760, Note_on_c, 1, 81, 93
3, 11760, Note_on_c, 1, 72, 78
3, 11820, Note_on_c, 1, 72, 0
3, 11820, Note_on_c, 1, 81, 0
3, 11880, Note_on_c, 1, 78, 86
3, 11880, Note_on_c, 1, 69, 105
3, 11940, Note_on_c, 1, 69, 0
3, 11940, Note_on_c, 1, 78, 0
3, 12000, Note_on_c, 1, 79, 89
3, 12000, Note_on_c, 1, 71, 99
3, 12060, Note_on_c, 1, 71, 0
3, 12060, Note_on_c, 1, 79, 0
3, 12120, Note_on_c, 1, 79, 85
3, 12120, Note_on_c, 1, 71, 95
3, 12180, Note_on_c, 1, 71, 0
3, 12180, Note_on_c, 1, 79, 0
3, 12240, Note_on_c, 1, 81, 94
3, 12240, Note_on_c, 1, 72, 80
3, 12300, Note_on_c, 1, 72, 0
3, 12300, Note_on_c, 1, 81, 0
3, 12360, Note_on_c, 1, 78, 76
3, 12360, Note_on_c, 1, 69, 98
3, 12420, Note_on_c, 1, 69, 0
3, 12420, Note_on_c, 1, 78, 0
3, 12480, Note_on_c, 1, 79, 82
3, 12480, Note_on_c, 1, 67, 90
3, 12840, Note_on_c, 1, 67, 0
3, 12840, Note_on_c, 1, 79, 0
3, 12840, Note_on_c, 1, 67, 93
3, 12960, Note_on_c, 1, 67, 0
3, 12960, Note_on_c, 1, 67, 95
3, 13020, Note_on_c, 1, 67, 0
3, 13020, Note_on_c, 1, 69, 99
3, 13080, Note_on_c, 1, 69, 0
3, 13080, Note_on_c, 1, 71, 104
3, 13140, Note_on_c, 1, 71, 0
3, 13200, Note_on_c, 1, 71, 99
3, 13200, Note_on_c, 1, 67, 85
3, 13260, Note_on_c, 1, 67, 0
3, 13260, Note_on_c, 1, 71, 0
3, 13260, Note_on_c, 1, 72, 80
3, 13260, Note_on_c, 1, 69, 89
3, 13320, Note_on_c, 1, 69, 0
3, 13320, Note_on_c, 1, 72, 0
3, 13320, Note_on_c, 1, 74, 98
3, 13320, Note_on_c, 1, 71, 84
3, 13380, Note_on_c, 1, 71, 0
3, 13380, Note_on_c, 1, 74, 0
3, 13440, Note_on_c, 1, 74, 99
3, 13440, Note_on_c, 1, 71, 86
3, 13800, Note_on_c, 1, 71, 0
3, 13800, Note_on_c, 1, 74, 0
3, 13800, Note_on_c, 1, 71, 101
3, 13800, Note_on_c, 1, 67, 77
3, 13920, Note_on_c, 1, 67, 0
3, 13920, Note_on_c, 1, 71, 0
3, 13920, Note_on_c, 1, 71, 99
3, 13920, Note_on_c, 1, 67, 89
3, 13980, Note_on_c, 1, 67, 0
3, 13980, Note_on_c, 1, 71, 0
3, 13980, Note_on_c, 1, 72, 80
3, 13980, Note_on_c, 1, 69, 85
3, 14040, Note_on_c, 1, 69, 0
3, 14040, Note_on_c, 1, 72, 0
3, 14040, Note_on_c, 1, 74, 94
3, 14040, Note_on_c, 1, 71, 89
3, 14100, Note_on_c, 1, 71, 0
3, 14100, Note_on_c, 1, 74, 0
3, 14160, Note_on_c, 1, 74, 104
3, 14160, Note_on_c, 1, 71, 86
3, 14220, Note_on_c, 1, 71, 0
3, 14220, Note_on_c, 1, 74, 0
3, 14220, Note_on_c, 1, 76, 98
3, 14220, Note_on_c, 1, 72, 73
3, 14280, Note_on_c, 1, 72, 0
3, 14280, Note_on_c, 1, 76, 0
3, 14280, Note_on_c, 1, 77, 93
3, 14280, Note_on_c, 1, 74, 93
3, 14340, Note_on_c, 1, 74, 0
3, 14340, Note_on_c, 1, 77, 0
3, 14400, Note_on_c, 1, 77, 90
3, 14400, Note_on_c, 1, 74, 94
3, 14760, Note_on_c, 1, 74, 0
3, 14760, Note_on_c, 1, 77, 0
3, 14760, Note_on_c, 1, 81, 95
3, 14760, Note_on_c, 1, 77, 82
3, 14880, Note_on_c, 1, 77, 0
3, 14880, Note_on_c, 1, 81, 0
3, 14880, Note_on_c, 1, 81, 93
3, 14880, Note_on_c, 1, 77, 78
3, 14940, Note_on_c, 1, 77, 0
3, 14940, Note_on_c, 1, 81, 0
3, 14940, Note_on_c, 1, 79, 94
3, 14940, Note_on_c, 1, 76, 85
3, 15000, Note_on_c, 1, 76, 0
3, 15000, Note_on_c, 1, 79, 0
3, 15000, Note_on_c, 1, 77, 119
3, 15000, Note_on_c, 1, 74, 125
3, 15060, Note_on_c, 1, 74, 0
3, 15060, Note_on_c, 1, 77, 0
3, 15120, Note_on_c, 1, 77, 90
3, 15120, Note_on_c, 1, 74, 99
3, 15180, Note_on_c, 1, 74, 0
3, 15180, Note_on_c, 1, 77, 0
3, 15240, Note_on_c, 1, 81, 90
3, 15240, Note_on_c, 1, 77, 80
3, 15300, Note_on_c, 1, 77, 0
3, 15300, Note_on_c, 1, 81, 0
3, 15360, Note_on_c, 1, 81, 94
3, 15360, Note_on_c, 1, 77, 82
3, 15420, Note_on_c, 1, 77, 0
3, 15420, Note_on_c, 1, 81, 0
3, 15420, Note_on_c, 1, 79, 89
3, 15420, Note_on_c, 1, 76, 84
3, 15480, Note_on_c, 1, 76, 0
3, 15480, Note_on_c, 1, 79, 0
3, 15480, Note_on_c, 1, 77, 117
3, 15480, Note_on_c, 1, 74, 119
3, 15540, Note_on_c, 1, 74, 0
3, 15540, Note_on_c, 1, 77, 0
3, 15600, Note_on_c, 1, 77, 86
3, 15600, Note_on_c, 1, 74, 84
3, 15660, Note_on_c, 1, 74, 0
3, 15660, Note_on_c, 1, 77, 0
3, 15720, Note_on_c, 1, 81, 90
3, 15720, Note_on_c, 1, 77, 76
3, 15780, Note_on_c, 1, 77, 0
3, 15780, Note_on_c, 1, 81, 0
3, 15840, Note_on_c, 1, 81, 95
3, 15840, Note_on_c, 1, 77, 89
3, 15900, Note_on_c, 1, 77, 0
3, 15900, Note_on_c, 1, 81, 0
3, 15900, Note_on_c, 1, 79, 93
3, 15900, Note_on_c, 1, 76, 89
3, 15960, Note_on_c, 1, 76, 0
3, 15960, Note_on_c, 1, 79, 0
3, 15960, Note_on_c, 1, 77, 93
3, 15960, Note_on_c, 1, 74, 94
3, 16020, Note_on_c, 1, 74, 0
3, 16020, Note_on_c, 1, 77, 0
3, 16080, Note_on_c, 1, 77, 94
3, 16080, Note_on_c, 1, 72, 93
3, 16140, Note_on_c, 1, 77, 0
3, 16140, Note_on_c, 1, 76, 104
3, 16200, Note_on_c, 1, 76, 0
3, 16200, Note_on_c, 1, 72, 0
3, 16200, Note_on_c, 1, 74, 104
3, 16200, Note_on_c, 1, 69, 101
3, 16260, Note_on_c, 1, 69, 0
3, 16260, Note_on_c, 1, 74, 0
3, 16290, Note_on_c, 1, 74, 115
3, 16320, Note_on_c, 1, 74, 0
3, 16320, Note_on_c, 1, 72, 81
3, 16320, Note_on_c, 1, 64, 104
3, 16380, Note_on_c, 1, 64, 0
3, 16380, Note_on_c, 1, 72, 0
3, 16440, Note_on_c, 1, 72, 68
3, 16440, Note_on_c, 1, 64, 95
3, 16500, Note_on_c, 1, 64, 0
3, 16500, Note_on_c, 1, 72, 0
3, 16560, Note_on_c, 1, 74, 99
3, 16560, Note_on_c, 1, 65, 101
3, 16620, Note_on_c, 1, 65, 0
3, 16620, Note_on_c, 1, 74, 0
3, 16680, Note_on_c, 1, 71, 105
3, 16680, Note_on_c, 1, 65, 93
3, 16740, Note_on_c, 1, 65, 0
3, 16740, Note_on_c, 1, 71, 0
3, 16800, Note_on_c, 1, 60, 78
3, 16860, Note_on_c, 1, 60, 0
3, 16860, Note_on_c, 1, 62, 104
3, 16920, Note_on_c, 1, 62, 0
3, 16920, Note_on_c, 1, 64, 101
3, 16980, Note_on_c, 1, 64, 0
3, 16980, Note_on_c, 1, 65, 95
3, 17040, Note_on_c, 1, 65, 0
3, 17040, Note_on_c, 1, 67, 86
3, 17100, Note_on_c, 1, 67, 0
3, 17100, Note_on_c, 1, 69, 95
3, 17160, Note_on_c, 1, 69, 0
3, 17160, Note_on_c, 1, 71, 98
3, 17220, Note_on_c, 1, 71, 0
3, 17220, Note_on_c, 1, 72, 95
3, 17280, Note_on_c, 1, 72, 0
3, 17280, Note_on_c, 1, 74, 98
3, 17340, Note_on_c, 1, 74, 0
3, 17400, Note_on_c, 1, 76, 104
3, 17460, Note_on_c, 1, 76, 0
3, 17520, Note_on_c, 1, 77, 94
3, 17580, Note_on_c, 1, 77, 0
3, 17640, Note_on_c, 1, 71, 99
3, 17700, Note_on_c, 1, 71, 0
3, 17760, Note_on_c, 1, 72, 125
3, 17820, Note_on_c, 1, 72, 0
3, 17820, Note_on_c, 1, 71, 117
3, 17880, Note_on_c, 1, 71, 0
3, 17880, Note_on_c, 1, 69, 119
3, 17940, Note_on_c, 1, 69, 0
3, 17940, Note_on_c, 1, 67, 123
3, 18000, Note_on_c, 1, 67, 0
3, 18000, Note_on_c, 1, 65, 119
3, 18060, Note_on_c, 1, 65, 0
3, 18060, Note_on_c, 1, 64, 119
3, 18120, Note_on_c, 1, 64, 0
3, 18120, Note_on_c, 1, 62, 119
3, 18180, Note_on_c, 1, 62, 0
3, 18180, Note_on_c, 1, 60, 110
3, 18240, Note_on_c, 1, 60, 0
3, 18240, Note_on_c, 1, 74, 112
3, 18240, Note_on_c, 1, 71, 115
3, 18300, Note_on_c, 1, 71, 0
3, 18300, Note_on_c, 1, 74, 0
3, 18360, Note_on_c, 1, 76, 117
3, 18360, Note_on_c, 1, 72, 112
3, 18420, Note_on_c, 1, 72, 0
3, 18420, Note_on_c, 1, 76, 0
3, 18480, Note_on_c, 1, 77, 99
3, 18480, Note_on_c, 1, 71, 107
3, 18540, Note_on_c, 1, 71, 0
3, 18540, Note_on_c, 1, 77, 0
3, 18600, Note_on_c, 1, 71, 110
3, 18600, Note_on_c, 1, 65, 119
3, 18660, Note_on_c, 1, 65, 0
3, 18660, Note_on_c, 1, 71, 0
3, 18720, Note_on_c, 1, 72, 105
3, 18720, Note_on_c, 1, 64, 119
3, 18780, Note_on_c, 1, 64, 0
3, 18780, Note_on_c, 1, 72, 0
3, 18840, Note_on_c, 1, 74, 115
3, 18840, Note_on_c, 1, 65, 117
3, 18900, Note_on_c, 1, 65, 0
3, 18900, Note_on_c, 1, 74, 0
3, 18960, Note_on_c, 1, 72, 105
3, 18960, Note_on_c, 1, 64, 117
3, 19020, Note_on_c, 1, 64, 0
3, 19020, Note_on_c, 1, 72, 0
3, 19080, Note_on_c, 1, 74, 119
3, 19080, Note_on_c, 1, 65, 112
3, 19140, Note_on_c, 1, 65, 0
3, 19140, Note_on_c, 1, 74, 0
3, 19200, Note_on_c, 1, 72, 101
3, 19200, Note_on_c, 1, 64, 112
3, 19440, Note_on_c, 1, 64, 0
3, 19440, Note_on_c, 1, 72, 0
3, 19560, Note_on_c, 1, 67, 90
3, 19680, Note_on_c, 1, 67, 0
3, 19680, Note_on_c, 1, 72, 84
3, 19740, Note_on_c, 1, 72, 0
3, 19800, Note_on_c, 1, 72, 80
3, 19860, Note_on_c, 1, 72, 0
3, 19920, Note_on_c, 1, 72, 84
3, 19980, Note_on_c, 1, 72, 0
3, 20040, Note_on_c, 1, 67, 90
3, 20100, Note_on_c, 1, 67, 0
3, 20160, Note_on_c, 1, 76, 95
3, 20520, Note_on_c, 1, 76, 0
3, 20520, Note_on_c, 1, 72, 94
3, 20640, Note_on_c, 1, 72, 0
3, 20640, Note_on_c, 1, 79, 95
3, 20700, Note_on_c, 1, 79, 0
3, 20760, Note_on_c, 1, 79, 86
3, 20820, Note_on_c, 1, 79, 0
3, 20880, Note_on_c, 1, 79, 94
3, 20940, Note_on_c, 1, 79, 0
3, 21000, Note_on_c, 1, 76, 105
3, 21060, Note_on_c, 1, 76, 0
3, 21120, Note_on_c, 1, 72, 85
3, 21360, Note_on_c, 1, 72, 0
3, 31560, Note_on_c, 1, 74, 63
3, 31680, Note_on_c, 1, 74, 0
3, 31680, Note_on_c, 1, 79, 43
3, 31680, Note_on_c, 1, 74, 73
3, 31800, Note_on_c, 1, 79, 0
3, 31800, Note_on_c, 1, 78, 68
3, 31920, Note_on_c, 1, 78, 0
3, 31920, Note_on_c, 1, 79, 71
3, 32040, Note_on_c, 1, 79, 0
3, 32040, Note_on_c, 1, 74, 0
3, 32040, Note_on_c, 1, 81, 80
3, 32040, Note_on_c, 1, 74, 71
3, 32160, Note_on_c, 1, 74, 0
3, 32160, Note_on_c, 1, 81, 0
3, 32160, Note_on_c, 1, 79, 54
3, 32160, Note_on_c, 1, 74, 94
3, 32280, Note_on_c, 1, 79, 0
3, 32280, Note_on_c, 1, 78, 65
3, 32400, Note_on_c, 1, 78, 0
3, 32400, Note_on_c, 1, 76, 74
3, 32520, Note_on_c, 1, 76, 0
3, 32520, Note_on_c, 1, 74, 0
3, 32520, Note_on_c, 1, 74, 84
3, 32640, Note_on_c, 1, 74, 0
3, 32640, Note_on_c, 1, 79, 63
3, 32640, Note_on_c, 1, 74, 99
3, 32760, Note_on_c, 1, 79, 0
3, 32760, Note_on_c, 1, 78, 73
3, 32880, Note_on_c, 1, 78, 0
3, 32880, Note_on_c, 1, 79, 64
3, 33000, Note_on_c, 1, 79, 0
3, 33000, Note_on_c, 1, 74, 0
3, 33000, Note_on_c, 1, 81, 81
3, 33000, Note_on_c, 1, 74, 93
3, 33120, Note_on_c, 1, 74, 0
3, 33120, Note_on_c, 1, 81, 0
3, 33120, Note_on_c, 1, 78, 72
3, 33120, Note_on_c, 1, 74, 85
3, 33360, Note_on_c, 1, 74, 0
3, 33360, Note_on_c, 1, 78, 0
3, 33480, Note_on_c, 1, 74, 81
3, 33600, Note_on_c, 1, 74, 0
3, 33600, Note_on_c, 1, 84, 81
3, 33660, Note_on_c, 1, 84, 0
3, 33720, Note_on_c, 1, 84, 89
3, 33780, Note_on_c, 1, 84, 0
3, 33840, Note_on_c, 1, 74, 93
3, 33900, Note_on_c, 1, 74, 0
3, 33960, Note_on_c, 1, 84, 80
3, 33960, Note_on_c, 1, 74, 94
3, 34020, Note_on_c, 1, 74, 0
3, 34080, Note_on_c, 1, 84, 0
3, 34080, Note_on_c, 1, 83, 80
3, 34140, Note_on_c, 1, 83, 0
3, 34200, Note_on_c, 1, 83, 84
3, 34260, Note_on_c, 1, 83, 0
3, 34320, Note_on_c, 1, 74, 94
3, 34380, Note_on_c, 1, 74, 0
3, 34440, Note_on_c, 1, 83, 86
3, 34440, Note_on_c, 1, 74, 84
3, 34500, Note_on_c, 1, 74, 0
3, 34500, Note_on_c, 1, 83, 0
3, 34560, Note_on_c, 1, 83, 86
3, 34560, Note_on_c, 1, 76, 78
3, 34680, Note_on_c, 1, 83, 0
3, 34680, Note_on_c, 1, 81, 78
3, 34800, Note_on_c, 1, 81, 0
3, 34800, Note_on_c, 1, 76, 0
3, 34800, Note_on_c, 1, 76, 84
3, 34800, Note_on_c, 1, 81, 67
3, 34920, Note_on_c, 1, 81, 0
3, 34920, Note_on_c, 1, 79, 70
3, 35040, Note_on_c, 1, 79, 0
3, 35040, Note_on_c, 1, 76, 0
3, 35040, Note_on_c, 1, 78, 80
3, 35040, Note_on_c, 1, 69, 64
3, 35160, Note_on_c, 1, 69, 0
3, 35280, Note_on_c, 1, 78, 0
3, 35280, Note_on_c, 1, 81, 72
3, 35400, Note_on_c, 1, 81, 0
3, 35520, Note_on_c, 1, 74, 56
3, 36480, Note_on_c, 1, 74, 0
3, 36480, Note_on_c, 1, 74, 64
3, 37200, Note_on_c, 1, 74, 0
3, 44640, Note_on_c, 1, 82, 69
3, 44640, Note_on_c, 1, 70, 64
3, 45600, Note_on_c, 1, 70, 0
3, 45600, Note_on_c, 1, 82, 0
3, 45600, Note_on_c, 1, 82, 64
3, 45600, Note_on_c, 1, 70, 70
3, 46320, Note_on_c, 1, 70, 0
3, 46320, Note_on_c, 1, 82, 0
3, 48480, Note_on_c, 1, 74, 71
3, 49920, Note_on_c, 1, 74, 0
3, 50400, Note_on_c, 1, 74, 74
3, 51360, Note_on_c, 1, 74, 0
3, 51360, Note_on_c, 1, 76, 80
3, 51600, Note_on_c, 1, 76, 0
3, 51600, Note_on_c, 1, 74, 71
3, 51840, Note_on_c, 1, 74, 0
3, 51840, Note_on_c, 1, 74, 78
3, 52080, Note_on_c, 1, 74, 0
3, 61440, Note_on_c, 1, 67, 93
3, 61800, Note_on_c, 1, 67, 0
3, 61800, Note_on_c, 1, 67, 94
3, 61920, Note_on_c, 1, 67, 0
3, 61920, Note_on_c, 1, 67, 95
3, 62040, Note_on_c, 1, 67, 0
3, 62040, Note_on_c, 1, 67, 94
3, 62160, Note_on_c, 1, 67, 0
3, 62160, Note_on_c, 1, 67, 89
3, 62280, Note_on_c, 1, 67, 0
3, 62280, Note_on_c, 1, 67, 95
3, 62400, Note_on_c, 1, 67, 0
3, 62400, Note_on_c, 1, 68, 99
3, 62760, Note_on_c, 1, 68, 0
3, 63720, Note_on_c, 1, 67, 98
3, 63840, Note_on_c, 1, 67, 0
3, 63840, Note_on_c, 1, 68, 95
3, 63960, Note_on_c, 1, 68, 0
3, 63960, Note_on_c, 1, 68, 94
3, 64080, Note_on_c, 1, 68, 0
3, 64080, Note_on_c, 1, 69, 94
3, 64200, Note_on_c, 1, 69, 0
3, 64200, Note_on_c, 1, 69, 99
3, 64320, Note_on_c, 1, 69, 0
3, 64320, Note_on_c, 1, 70, 94
3, 64680, Note_on_c, 1, 70, 0
3, 65640, Note_on_c, 1, 69, 101
3, 65760, Note_on_c, 1, 69, 0
3, 65760, Note_on_c, 1, 70, 94
3, 65880, Note_on_c, 1, 70, 0
3, 65880, Note_on_c, 1, 70, 90
3, 66000, Note_on_c, 1, 70, 0
3, 66000, Note_on_c, 1, 71, 95
3, 66120, Note_on_c, 1, 71, 0
3, 66120, Note_on_c, 1, 71, 99
3, 66240, Note_on_c, 1, 71, 0
3, 66240, Note_on_c, 1, 72, 94
3, 66600, Note_on_c, 1, 72, 0
3, 82440, Note_on_c, 1, 76, 99
3, 82560, Note_on_c, 1, 76, 0
3, 82560, Note_on_c, 1, 76, 99
3, 82620, Note_on_c, 1, 76, 0
3, 82620, Note_on_c, 1, 74, 99
3, 82680, Note_on_c, 1, 74, 0
3, 82680, Note_on_c, 1, 72, 89
3, 82740, Note_on_c, 1, 72, 0
3, 82800, Note_on_c, 1, 72, 89
3, 82860, Note_on_c, 1, 72, 0
3, 82920, Note_on_c, 1, 76, 101
3, 82980, Note_on_c, 1, 76, 0
3, 83040, Note_on_c, 1, 76, 101
3, 83100, Note_on_c, 1, 76, 0
3, 83100, Note_on_c, 1, 74, 99
3, 83160, Note_on_c, 1, 74, 0
3, 83160, Note_on_c, 1, 72, 86
3, 83220, Note_on_c, 1, 72, 0
3, 83280, Note_on_c, 1, 72, 84
3, 83340, Note_on_c, 1, 72, 0
3, 83400, Note_on_c, 1, 76, 101
3, 83460, Note_on_c, 1, 76, 0
3, 83520, Note_on_c, 1, 76, 105
3, 83580, Note_on_c, 1, 76, 0
3, 83580, Note_on_c, 1, 74, 99
3, 83640, Note_on_c, 1, 74, 0
3, 83640, Note_on_c, 1, 72, 89
3, 83700, Note_on_c, 1, 72, 0
3, 83760, Note_on_c, 1, 72, 93
3, 83820, Note_on_c, 1, 72, 0
3, 83820, Note_on_c, 1, 71, 105
3, 83880, Note_on_c, 1, 71, 0
3, 83880, Note_on_c, 1, 69, 99
3, 83940, Note_on_c, 1, 69, 0
3, 84000, Note_on_c, 1, 67, 99
3, 84060, Note_on_c, 1, 67, 0
3, 84120, Note_on_c, 1, 79, 89
3, 84120, Note_on_c, 1, 71, 105
3, 84180, Note_on_c, 1, 71, 0
3, 84180, Note_on_c, 1, 79, 0
3, 84240, Note_on_c, 1, 81, 93
3, 84240, Note_on_c, 1, 72, 78
3, 84300, Note_on_c, 1, 72, 0
3, 84300, Note_on_c, 1, 81, 0
3, 84360, Note_on_c, 1, 78, 86
3, 84360, Note_on_c, 1, 69, 105
3, 84420, Note_on_c, 1, 69, 0
3, 84420, Note_on_c, 1, 78, 0
3, 84480, Note_on_c, 1, 79, 89
3, 84480, Note_on_c, 1, 71, 99
3, 84540, Note_on_c, 1, 71, 0
3, 84540, Note_on_c, 1, 79, 0
3, 84600, Note_on_c, 1, 79, 85
3, 84600, Note_on_c, 1, 71, 95
3, 84660, Note_on_c, 1, 71, 0
3, 84660, Note_on_c, 1, 79, 0
3, 84720, Note_on_c, 1, 81, 94
3, 84720, Note_on_c, 1, 72, 80
3, 84780, Note_on_c, 1, 72, 0
3, 84780, Note_on_c, 1, 81, 0
3, 84840, Note_on_c, 1, 78, 76
3, 84840, Note_on_c, 1, 69, 98
3, 84900, Note_on_c, 1, 69, 0
3, 84900, Note_on_c, 1, 78, 0
3, 84960, Note_on_c, 1, 79, 82
3, 84960, Note_on_c, 1, 67, 90
3, 85320, Note_on_c, 1, 67, 0
3, 85320, Note_on_c, 1, 79, 0
3, 85320, Note_on_c, 1, 67, 93
3, 85440, Note_on_c, 1, 67, 0
3, 85440, Note_on_c, 1, 67, 95
3, 85500, Note_on_c, 1, 67, 0
3, 85500, Note_on_c, 1, 69, 99
3, 85560, Note_on_c, 1, 69, 0
3, 85560, Note_on_c, 1, 71, 104
3, 85620, Note_on_c, 1, 71, 0
3, 85680, Note_on_c, 1, 71, 99
3, 85680, Note_on_c, 1, 67, 85
3, 85740, Note_on_c, 1, 67, 0
3, 85740, Note_on_c, 1, 71, 0
3, 85740, Note_on_c, 1, 72, 80
3, 85740, Note_on_c, 1, 69, 89
3, 85800, Note_on_c, 1, 69, 0
3, 85800, Note_on_c, 1, 72, 0
3, 85800, Note_on_c, 1, 74, 98
3, 85800, Note_on_c, 1, 71, 84
3, 85860, Note_on_c, 1, 71, 0
3, 85860, Note_on_c, 1, 74, 0
3, 85920, Note_on_c, 1, 74, 94
3, 85920, Note_on_c, 1, 71, 72
3, 86280, Note_on_c, 1, 71, 0
3, 86280, Note_on_c, 1, 74, 0
3, 86280, Note_on_c, 1, 71, 101
3, 86280, Note_on_c, 1, 67, 77
3, 86400, Note_on_c, 1, 67, 0
3, 86400, Note_on_c, 1, 71, 0
3, 86400, Note_on_c, 1, 71, 99
3, 86400, Note_on_c, 1, 67, 89
3, 86460, Note_on_c, 1, 67, 0
3, 86460, Note_on_c, 1, 71, 0
3, 86460, Note_on_c, 1, 72, 80
3, 86460, Note_on_c, 1, 69, 85
3, 86520, Note_on_c, 1, 69, 0
3, 86520, Note_on_c, 1, 72, 0
3, 86520, Note_on_c, 1, 74, 94
3, 86520, Note_on_c, 1, 71, 89
3, 86580, Note_on_c, 1, 71, 0
3, 86580, Note_on_c, 1, 74, 0
3, 86640, Note_on_c, 1, 74, 104
3, 86640, Note_on_c, 1, 71, 86
3, 86700, Note_on_c, 1, 71, 0
3, 86700, Note_on_c, 1, 74, 0
3, 86700, Note_on_c, 1, 76, 98
3, 86700, Note_on_c, 1, 72, 73
3, 86760, Note_on_c, 1, 72, 0
3, 86760, Note_on_c, 1, 76, 0
3, 86760, Note_on_c, 1, 77, 93
3, 86760, Note_on_c, 1, 74, 93
3, 86820, Note_on_c, 1, 74, 0
3, 86820, Note_on_c, 1, 77, 0
3, 86880, Note_on_c, 1, 77, 86
3, 86880, Note_on_c, 1, 74, 95
3, 87240, Note_on_c, 1, 74, 0
3, 87240, Note_on_c, 1, 77, 0
3, 87240, Note_on_c, 1, 81, 95
3, 87240, Note_on_c, 1, 77, 82
3, 87360, Note_on_c, 1, 77, 0
3, 87360, Note_on_c, 1, 81, 0
3, 87360, Note_on_c, 1, 81, 93
3, 87360, Note_on_c, 1, 77, 78
3, 87420, Note_on_c, 1, 77, 0
3, 87420, Note_on_c, 1, 81, 0
3, 87420, Note_on_c, 1, 79, 94
3, 87420, Note_on_c, 1, 76, 85
3, 87480, Note_on_c, 1, 76, 0
3, 87480, Note_on_c, 1, 79, 0
3, 87480, Note_on_c, 1, 77, 119
3, 87480, Note_on_c, 1, 74, 125
3, 87540, Note_on_c, 1, 74, 0
3, 87540, Note_on_c, 1, 77, 0
3, 87600, Note_on_c, 1, 77, 90
3, 87600, Note_on_c, 1, 74, 99
3, 87660, Note_on_c, 1, 74, 0
3, 87660, Note_on_c, 1, 77, 0
3, 87720, Note_on_c, 1, 81, 90
3, 87720, Note_on_c, 1, 77, 80
3, 87780, Note_on_c, 1, 77, 0
3, 87780, Note_on_c, 1, 81, 0
3, 87840, Note_on_c, 1, 81, 94
3, 87840, Note_on_c, 1, 77, 82
3, 87900, Note_on_c, 1, 77, 0
3, 87900, Note_on_c, 1, 81, 0
3, 87900, Note_on_c, 1, 79, 89
3, 87900, Note_on_c, 1, 76, 84
3, 87960, Note_on_c, 1, 76, 0
3, 87960, Note_on_c, 1, 79, 0
3, 87960, Note_on_c, 1, 77, 117
3, 87960, Note_on_c, 1, 74, 119
3, 88020, Note_on_c, 1, 74, 0
3, 88020, Note_on_c, 1, 77, 0
3, 88080, Note_on_c, 1, 77, 86
3, 88080, Note_on_c, 1, 74, 84
3, 88140, Note_on_c, 1, 74, 0
3, 88140, Note_on_c, 1, 77, 0
3, 88200, Note_on_c, 1, 81, 90
3, 88200, Note_on_c, 1, 77, 76
3, 88260, Note_on_c, 1, 77, 0
3, 88260, Note_on_c, 1, 81, 0
3, 88320, Note_on_c, 1, 81, 95
3, 88320, Note_on_c, 1, 77, 89
3, 88380, Note_on_c, 1, 77, 0
3, 88380, Note_on_c, 1, 81, 0
3, 88380, Note_on_c, 1, 79, 93
3, 88380, Note_on_c, 1, 76, 89
3, 88440, Note_on_c, 1, 76, 0
3, 88440, Note_on_c, 1, 79, 0
3, 88440, Note_on_c, 1, 77, 93
3, 88440, Note_on_c, 1, 74, 94
3, 88500, Note_on_c, 1, 74, 0
3, 88500, Note_on_c, 1, 77, 0
3, 88560, Note_on_c, 1, 77, 94
3, 88560, Note_on_c, 1, 72, 93
3, 88620, Note_on_c, 1, 77, 0
3, 88620, Note_on_c, 1, 76, 104
3, 88680, Note_on_c, 1, 76, 0
3, 88680, Note_on_c, 1, 72, 0
3, 88680, Note_on_c, 1, 74, 104
3, 88680, Note_on_c, 1, 69, 101
3, 88740, Note_on_c, 1, 69, 0
3, 88740, Note_on_c, 1, 74, 0
3, 88770, Note_on_c, 1, 74, 115
3, 88800, Note_on_c, 1, 74, 0
3, 88800, Note_on_c, 1, 72, 81
3, 88800, Note_on_c, 1, 64, 104
3, 88860, Note_on_c, 1, 64, 0
3, 88860, Note_on_c, 1, 72, 0
3, 88920, Note_on_c, 1, 72, 68
3, 88920, Note_on_c, 1, 64, 95
3, 88980, Note_on_c, 1, 64, 0
3, 88980, Note_on_c, 1, 72, 0
3, 89040, Note_on_c, 1, 74, 99
3, 89040, Note_on_c, 1, 65, 101
3, 89100, Note_on_c, 1, 65, 0
3, 89100, Note_on_c, 1, 74, 0
3, 89160, Note_on_c, 1, 71, 105
3, 89160, Note_on_c, 1, 65, 93
3, 89220, Note_on_c, 1, 65, 0
3, 89220, Note_on_c, 1, 71, 0
3, 89280, Note_on_c, 1, 60, 78
3, 89340, Note_on_c, 1, 60, 0
3, 89340, Note_on_c, 1, 62, 104
3, 89400, Note_on_c, 1, 62, 0
3, 89400, Note_on_c, 1, 64, 101
3, 89460, Note_on_c, 1, 64, 0
3, 89460, Note_on_c, 1, 65, 95
3, 89520, Note_on_c, 1, 65, 0
3, 89520, Note_on_c, 1, 67, 86
3, 89580, Note_on_c, 1, 67, 0
3, 89580, Note_on_c, 1, 69, 95
3, 89640, Note_on_c, 1, 69, 0
3, 89640, Note_on_c, 1, 71, 98
3, 89700, Note_on_c, 1, 71, 0
3, 89700, Note_on_c, 1, 72, 95
3, 89760, Note_on_c, 1, 72, 0
3, 89760, Note_on_c, 1, 74, 98
3, 89820, Note_on_c, 1, 74, 0
3, 89880, Note_on_c, 1, 76, 104
3, 89940, Note_on_c, 1, 76, 0
3, 90000, Note_on_c, 1, 77, 94
3, 90060, Note_on_c, 1, 77, 0
3, 90120, Note_on_c, 1, 71, 99
3, 90180, Note_on_c, 1, 71, 0
3, 90240, Note_on_c, 1, 72, 125
3, 90300, Note_on_c, 1, 72, 0
3, 90300, Note_on_c, 1, 71, 117
3, 90360, Note_on_c, 1, 71, 0
3, 90360, Note_on_c, 1, 69, 119
3, 90420, Note_on_c, 1, 69, 0
3, 90420, Note_on_c, 1, 67, 123
3, 90480, Note_on_c, 1, 67, 0
3, 90480, Note_on_c, 1, 65, 119
3, 90540, Note_on_c, 1, 65, 0
3, 90540, Note_on_c, 1, 64, 119
3, 90600, Note_on_c, 1, 64, 0
3, 90600, Note_on_c, 1, 62, 119
3, 90660, Note_on_c, 1, 62, 0
3, 90660, Note_on_c, 1, 60, 110
3, 90720, Note_on_c, 1, 60, 0
3, 90720, Note_on_c, 1, 74, 112
3, 90720, Note_on_c, 1, 71, 115
3, 90780, Note_on_c, 1, 71, 0
3, 90780, Note_on_c, 1, 74, 0
3, 90840, Note_on_c, 1, 76, 117
3, 90840, Note_on_c, 1, 72, 112
3, 90900, Note_on_c, 1, 72, 0
3, 90900, Note_on_c, 1, 76, 0
3, 90960, Note_on_c, 1, 77, 99
3, 90960, Note_on_c, 1, 71, 107
3, 91020, Note_on_c, 1, 71, 0
3, 91020, Note_on_c, 1, 77, 0
3, 91080, Note_on_c, 1, 71, 110
3, 91080, Note_on_c, 1, 65, 119
3, 91140, Note_on_c, 1, 65, 0
3, 91140, Note_on_c, 1, 71, 0
3, 91200, Note_on_c, 1, 72, 105
3, 91200, Note_on_c, 1, 64, 119
3, 91260, Note_on_c, 1, 64, 0
3, 91260, Note_on_c, 1, 72, 0
3, 91320, Note_on_c, 1, 74, 115
3, 91320, Note_on_c, 1, 65, 117
3, 91380, Note_on_c, 1, 65, 0
3, 91380, Note_on_c, 1, 74, 0
3, 91440, Note_on_c, 1, 72, 105
3, 91440, Note_on_c, 1, 64, 117
3, 91500, Note_on_c, 1, 64, 0
3, 91500, Note_on_c, 1, 72, 0
3, 91560, Note_on_c, 1, 74, 119
3, 91560, Note_on_c, 1, 65, 112
3, 91620, Note_on_c, 1, 65, 0
3, 91620, Note_on_c, 1, 74, 0
3, 91680, Note_on_c, 1, 72, 101
3, 91680, Note_on_c, 1, 64, 112
3, 91920, Note_on_c, 1, 64, 0
3, 91920, Note_on_c, 1, 72, 0
3, 104160, Note_on_c, 1, 76, 69
3, 104280, Note_on_c, 1, 76, 0
3, 104280, Note_on_c, 1, 77, 54
3, 104400, Note_on_c, 1, 77, 0
3, 104400, Note_on_c, 1, 79, 49
3, 104520, Note_on_c, 1, 79, 0
3, 104520, Note_on_c, 1, 80, 63
3, 104640, Note_on_c, 1, 80, 0
3, 104640, Note_on_c, 1, 81, 67
3, 104640, Note_on_c, 1, 73, 59
3, 104760, Note_on_c, 1, 73, 0
3, 104760, Note_on_c, 1, 74, 63
3, 104880, Note_on_c, 1, 74, 0
3, 104880, Note_on_c, 1, 75, 62
3, 105000, Note_on_c, 1, 75, 0
3, 105000, Note_on_c, 1, 81, 0
3, 105000, Note_on_c, 1, 76, 72
3, 105000, Note_on_c, 1, 79, 48
3, 105120, Note_on_c, 1, 79, 0
3, 105120, Note_on_c, 1, 76, 0
3, 105120, Note_on_c, 1, 77, 69
3, 105120, Note_on_c, 1, 69, 53
3, 105240, Note_on_c, 1, 77, 0
3, 105240, Note_on_c, 1, 76, 68
3, 105360, Note_on_c, 1, 76, 0
3, 105360, Note_on_c, 1, 77, 57
3, 105480, Note_on_c, 1, 77, 0
3, 105480, Note_on_c, 1, 69, 0
3, 105480, Note_on_c, 1, 76, 43
3, 105480, Note_on_c, 1, 81, 57
3, 105600, Note_on_c, 1, 81, 0
3, 105600, Note_on_c, 1, 76, 0
3, 105600, Note_on_c, 1, 79, 40
3, 105600, Note_on_c, 1, 74, 65
3, 105720, Note_on_c, 1, 74, 0
3, 105720, Note_on_c, 1, 71, 65
3, 105840, Note_on_c, 1, 71, 0
3, 105840, Note_on_c, 1, 74, 59
3, 105960, Note_on_c, 1, 74, 0
3, 105960, Note_on_c, 1, 79, 0
3, 105960, Note_on_c, 1, 77, 43
3, 106080, Note_on_c, 1, 77, 0
3, 106080, Note_on_c, 1, 76, 53
3, 106080, Note_on_c, 1, 67, 46
3, 106200, Note_on_c, 1, 67, 0
3, 106200, Note_on_c, 1, 76, 0
3, 106200, Note_on_c, 1, 79, 43
3, 106200, Note_on_c, 1, 67, 43
3, 106320, Note_on_c, 1, 67, 0
3, 106320, Note_on_c, 1, 79, 0
3, 106320, Note_on_c, 1, 77, 52
3, 106320, Note_on_c, 1, 72, 35
3, 106440, Note_on_c, 1, 72, 0
3, 106440, Note_on_c, 1, 77, 0
3, 106440, Note_on_c, 1, 71, 62
3, 106440, Note_on_c, 1, 76, 50
3, 106560, Note_on_c, 1, 76, 0
3, 106560, Note_on_c, 1, 71, 0
3, 106560, Note_on_c, 1, 74, 46
3, 106560, Note_on_c, 1, 69, 61
3, 106680, Note_on_c, 1, 69, 0
3, 106680, Note_on_c, 1, 74, 0
3, 106680, Note_on_c, 1, 72, 45
3, 106680, Note_on_c, 1, 67, 35
3, 106800, Note_on_c, 1, 67, 0
3, 106800, Note_on_c, 1, 72, 0
3, 106800, Note_on_c, 1, 71, 53
3, 106800, Note_on_c, 1, 65, 47
3, 106920, Note_on_c, 1, 65, 0
3, 106920, Note_on_c, 1, 71, 0
3, 106920, Note_on_c, 1, 64, 48
3, 106920, Note_on_c, 1, 72, 29
3, 107040, Note_on_c, 1, 72, 0
3, 107040, Note_on_c, 1, 64, 0
3, 107040, Note_on_c, 1, 73, 68
3, 107040, Note_on_c, 1, 69, 68
3, 107160, Note_on_c, 1, 73, 0
3, 107160, Note_on_c, 1, 74, 64
3, 107280, Note_on_c, 1, 69, 0
3, 107280, Note_on_c, 1, 65, 54
3, 107400, Note_on_c, 1, 74, 0
3, 107400, Note_on_c, 1, 71, 72
3, 107520, Note_on_c, 1, 71, 0
3, 107520, Note_on_c, 1, 65, 0
3, 107520, Note_on_c, 1, 72, 45
3, 107520, Note_on_c, 1, 64, 54
3, 107640, Note_on_c, 1, 64, 0
3, 107640, Note_on_c, 1, 72, 0
3, 107640, Note_on_c, 1, 76, 53
3, 107640, Note_on_c, 1, 71, 55
3, 107760, Note_on_c, 1, 71, 0
3, 107760, Note_on_c, 1, 76, 0
3, 107760, Note_on_c, 1, 74, 50
3, 107760, Note_on_c, 1, 69, 50
3, 107880, Note_on_c, 1, 69, 0
3, 107880, Note_on_c, 1, 74, 0
3, 107880, Note_on_c, 1, 67, 51
3, 107880, Note_on_c, 1, 72, 34
3, 108000, Note_on_c, 1, 72, 0
3, 108000, Note_on_c, 1, 67, 0
3, 108000, Note_on_c, 1, 71, 56
3, 108000, Note_on_c, 1, 65, 59
3, 108120, Note_on_c, 1, 65, 0
3, 108120, Note_on_c, 1, 71, 0
3, 108120, Note_on_c, 1, 69, 61
3, 108120, Note_on_c, 1, 64, 59
3, 108240, Note_on_c, 1, 64, 0
3, 108240, Note_on_c, 1, 69, 0
3, 108240, Note_on_c, 1, 68, 68
3, 108240, Note_on_c, 1, 62, 68
3, 108360, Note_on_c, 1, 62, 0
3, 108360, Note_on_c, 1, 68, 0
3, 108360, Note_on_c, 1, 64, 67
3, 108360, Note_on_c, 1, 69, 72
3, 108480, Note_on_c, 1, 69, 0
3, 108480, Note_on_c, 1, 64, 0
3, 108480, Note_on_c, 1, 77, 45
3, 108480, Note_on_c, 1, 65, 52
3, 108720, Note_on_c, 1, 65, 0
3, 108720, Note_on_c, 1, 77, 0
3, 108720, Note_on_c, 1, 71, 43
3, 108720, Note_on_c, 1, 74, 44
3, 108960, Note_on_c, 1, 74, 0
3, 108960, Note_on_c, 1, 71, 0
3, 108960, Note_on_c, 1, 72, 29
3, 108960, Note_on_c, 1, 69, 35
3, 109080, Note_on_c, 1, 69, 0
3, 109080, Note_on_c, 1, 72, 0
3, 119040, Note_on_c, 1, 69, 72
3, 119160, Note_on_c, 1, 69, 0
3, 119160, Note_on_c, 1, 71, 64
3, 119280, Note_on_c, 1, 71, 0
3, 119280, Note_on_c, 1, 72, 32
3, 119400, Note_on_c, 1, 72, 0
3, 119400, Note_on_c, 1, 73, 49
3, 119520, Note_on_c, 1, 73, 0
3, 119520, Note_on_c, 1, 74, 65
3, 119880, Note_on_c, 1, 74, 0
3, 119880, Note_on_c, 1, 72, 29
3, 120000, Note_on_c, 1, 72, 0
3, 120000, Note_on_c, 1, 70, 51
3, 120120, Note_on_c, 1, 70, 0
3, 120120, Note_on_c, 1, 69, 68
3, 120240, Note_on_c, 1, 69, 0
3, 120240, Note_on_c, 1, 70, 67
3, 120360, Note_on_c, 1, 70, 0
3, 120360, Note_on_c, 1, 71, 72
3, 120480, Note_on_c, 1, 71, 0
3, 120480, Note_on_c, 1, 72, 62
3, 120840, Note_on_c, 1, 72, 0
3, 120840, Note_on_c, 1, 70, 74
3, 120960, Note_on_c, 1, 70, 0
3, 120960, Note_on_c, 1, 69, 72
3, 121080, Note_on_c, 1, 69, 0
3, 121080, Note_on_c, 1, 72, 41
3, 121200, Note_on_c, 1, 72, 0
3, 121200, Note_on_c, 1, 77, 69
3, 121320, Note_on_c, 1, 77, 0
3, 121320, Note_on_c, 1, 76, 54
3, 121440, Note_on_c, 1, 76, 0
3, 121440, Note_on_c, 1, 74, 50
3, 121560, Note_on_c, 1, 74, 0
3, 121560, Note_on_c, 1, 72, 52
3, 121680, Note_on_c, 1, 72, 0
3, 121680, Note_on_c, 1, 70, 61
3, 121800, Note_on_c, 1, 70, 0
3, 121800, Note_on_c, 1, 69, 59
3, 121920, Note_on_c, 1, 69, 0
3, 121920, Note_on_c, 1, 74, 65
3, 121920, Note_on_c, 1, 62, 51
3, 122160, Note_on_c, 1, 62, 0
3, 122160, Note_on_c, 1, 74, 0
3, 122160, Note_on_c, 1, 70, 62
3, 122160, Note_on_c, 1, 67, 58
3, 122400, Note_on_c, 1, 67, 0
3, 122400, Note_on_c, 1, 70, 0
3, 122400, Note_on_c, 1, 69, 57
3, 122400, Note_on_c, 1, 65, 62
3, 122520, Note_on_c, 1, 65, 0
3, 122520, Note_on_c, 1, 69, 0
3, 122520, Note_on_c, 1, 81, 51
3, 122520, Note_on_c, 1, 72, 29
3, 122640, Note_on_c, 1, 72, 0
3, 122640, Note_on_c, 1, 81, 0
3, 122640, Note_on_c, 1, 79, 64
3, 122640, Note_on_c, 1, 70, 40
3, 122760, Note_on_c, 1, 70, 0
3, 122760, Note_on_c, 1, 79, 0
3, 122760, Note_on_c, 1, 77, 45
3, 122760, Note_on_c, 1, 69, 65
3, 122880, Note_on_c, 1, 69, 0
3, 122880, Note_on_c, 1, 77, 0
3, 122880, Note_on_c, 1, 76, 62
3, 122880, Note_on_c, 1, 67, 57
3, 123000, Note_on_c, 1, 67, 0
3, 123000, Note_on_c, 1, 76, 0
3, 123000, Note_on_c, 1, 74, 63
3, 123000, Note_on_c, 1, 69, 62
3, 123120, Note_on_c, 1, 69, 0
3, 123120, Note_on_c, 1, 74, 0
3, 123120, Note_on_c, 1, 73, 43
3, 123120, Note_on_c, 1, 67, 52
3, 123240, Note_on_c, 1, 67, 0
3, 123240, Note_on_c, 1, 73, 0
3, 123240, Note_on_c, 1, 74, 73
3, 123240, Note_on_c, 1, 65, 72
3, 123360, Note_on_c, 1, 65, 0
3, 123360, Note_on_c, 1, 74, 0
3, 123360, Note_on_c, 1, 75, 68
3, 123360, Note_on_c, 1, 70, 69
3, 123480, Note_on_c, 1, 75, 0
3, 123480, Note_on_c, 1, 76, 44
3, 123600, Note_on_c, 1, 70, 0
3, 123600, Note_on_c, 1, 67, 62
3, 123720, Note_on_c, 1, 76, 0
3, 123720, Note_on_c, 1, 73, 44
3, 123840, Note_on_c, 1, 73, 0
3, 123840, Note_on_c, 1, 67, 0
3, 123840, Note_on_c, 1, 74, 40
3, 123840, Note_on_c, 1, 65, 41
3, 123960, Note_on_c, 1, 65, 0
3, 123960, Note_on_c, 1, 74, 0
3, 125040, Note_on_c, 1, 74, 61
3, 125280, Note_on_c, 1, 74, 0
3, 125280, Note_on_c, 1, 72, 36
3, 125280, Note_on_c, 1, 64, 40
3, 125400, Note_on_c, 1, 64, 0
3, 125400, Note_on_c, 1, 72, 0
3, 131040, Note_on_c, 1, 69, 105
3, 131400, Note_on_c, 1, 69, 0
3, 131400, Note_on_c, 1, 69, 104
3, 131520, Note_on_c, 1, 69, 0
3, 131520, Note_on_c, 1, 69, 101
3, 131640, Note_on_c, 1, 69, 0
3, 131640, Note_on_c, 1, 69, 105
3, 131760, Note_on_c, 1, 69, 0
3, 131760, Note_on_c, 1, 69, 105
3, 131880, Note_on_c, 1, 69, 0
3, 131880, Note_on_c, 1, 69, 105
3, 132000, Note_on_c, 1, 69, 0
3, 132000, Note_on_c, 1, 70, 105
3, 132360, Note_on_c, 1, 70, 0
3, 132360, Note_on_c, 1, 70, 44
3, 132360, Note_on_c, 1, 79, 58
3, 132420, Note_on_c, 1, 79, 0
3, 132450, Note_on_c, 1, 79, 61
3, 132480, Note_on_c, 1, 79, 0
3, 132480, Note_on_c, 1, 70, 0
3, 132480, Note_on_c, 1, 77, 57
3, 132480, Note_on_c, 1, 68, 69
3, 132600, Note_on_c, 1, 68, 0
3, 132600, Note_on_c, 1, 77, 0
3, 132600, Note_on_c, 1, 75, 73
3, 132600, Note_on_c, 1, 67, 39
3, 132720, Note_on_c, 1, 67, 0
3, 132720, Note_on_c, 1, 75, 0
3, 132720, Note_on_c, 1, 75, 78
3, 132720, Note_on_c, 1, 67, 63
3, 132780, Note_on_c, 1, 67, 0
3, 132780, Note_on_c, 1, 75, 0
3, 132840, Note_on_c, 1, 70, 40
3, 132840, Note_on_c, 1, 79, 66
3, 132900, Note_on_c, 1, 79, 0
3, 132930, Note_on_c, 1, 79, 61
3, 132960, Note_on_c, 1, 79, 0
3, 132960, Note_on_c, 1, 70, 0
3, 132960, Note_on_c, 1, 77, 45
3, 132960, Note_on_c, 1, 68, 57
3, 133080, Note_on_c, 1, 68, 0
3, 133080, Note_on_c, 1, 77, 0
3, 133080, Note_on_c, 1, 75, 56
3, 133080, Note_on_c, 1, 67, 59
3, 133200, Note_on_c, 1, 67, 0
3, 133200, Note_on_c, 1, 75, 0
3, 133200, Note_on_c, 1, 75, 78
3, 133200, Note_on_c, 1, 67, 65
3, 133260, Note_on_c, 1, 67, 0
3, 133260, Note_on_c, 1, 75, 0
3, 134280, Note_on_c, 1, 72, 56
3, 134280, Note_on_c, 1, 81, 66
3, 134340, Note_on_c, 1, 81, 0
3, 134370, Note_on_c, 1, 81, 65
3, 134400, Note_on_c, 1, 81, 0
3, 134400, Note_on_c, 1, 72, 0
3, 134400, Note_on_c, 1, 79, 67
3, 134400, Note_on_c, 1, 70, 43
3, 134520, Note_on_c, 1, 70, 0
3, 134520, Note_on_c, 1, 79, 0
3, 134520, Note_on_c, 1, 77, 49
3, 134520, Note_on_c, 1, 69, 55
3, 134640, Note_on_c, 1, 69, 0
3, 134640, Note_on_c, 1, 77, 0
3, 134640, Note_on_c, 1, 77, 45
3, 134640, Note_on_c, 1, 69, 55
3, 134700, Note_on_c, 1, 69, 0
3, 134700, Note_on_c, 1, 77, 0
3, 134760, Note_on_c, 1, 72, 35
3, 134760, Note_on_c, 1, 81, 58
3, 134820, Note_on_c, 1, 81, 0
3, 134850, Note_on_c, 1, 81, 49
3, 134880, Note_on_c, 1, 81, 0
3, 134880, Note_on_c, 1, 72, 0
3, 134880, Note_on_c, 1, 79, 73
3, 134880, Note_on_c, 1, 70, 50
3, 135000, Note_on_c, 1, 70, 0
3, 135000, Note_on_c, 1, 79, 0
3, 135000, Note_on_c, 1, 77, 49
3, 135000, Note_on_c, 1, 69, 44
3, 135120, Note_on_c, 1, 69, 0
3, 135120, Note_on_c, 1, 77, 0
3, 135120, Note_on_c, 1, 77, 44
3, 135120, Note_on_c, 1, 69, 45
3, 135180, Note_on_c, 1, 69, 0
3, 135180, Note_on_c, 1, 77, 0
3, 135240, Note_on_c, 1, 71, 95
3, 135360, Note_on_c, 1, 71, 0
3, 135360, Note_on_c, 1, 72, 81
3, 135480, Note_on_c, 1, 72, 0
3, 135480, Note_on_c, 1, 72, 71
3, 135600, Note_on_c, 1, 72, 0
3, 135600, Note_on_c, 1, 73, 86
3, 135720, Note_on_c, 1, 73, 0
3, 135720, Note_on_c, 1, 73, 73
3, 135840, Note_on_c, 1, 73, 0
3, 135840, Note_on_c, 1, 74, 90
3, 136200, Note_on_c, 1, 74, 0
3, 143880, Note_on_c, 1, 71, 60
3, 143880, Note_on_c, 1, 67, 43
3, 143940, Note_on_c, 1, 67, 0
3, 143940, Note_on_c, 1, 71, 0
3, 143940, Note_on_c, 1, 72, 29
3, 143940, Note_on_c, 1, 69, 39
3, 144000, Note_on_c, 1, 69, 0
3, 144000, Note_on_c, 1, 72, 0
3, 144000, Note_on_c, 1, 74, 43
3, 144000, Note_on_c, 1, 71, 40
3, 144060, Note_on_c, 1, 71, 0
3, 144060, Note_on_c, 1, 74, 0
3, 144120, Note_on_c, 1, 79, 65
3, 144180, Note_on_c, 1, 79, 0
3, 144180, Note_on_c, 1, 81, 64
3, 144240, Note_on_c, 1, 81, 0
3, 144240, Note_on_c, 1, 83, 51
3, 144300, Note_on_c, 1, 83, 0
3, 144840, Note_on_c, 1, 72, 29
3, 144840, Note_on_c, 1, 69, 50
3, 144900, Note_on_c, 1, 69, 0
3, 144900, Note_on_c, 1, 72, 0
3, 144900, Note_on_c, 1, 74, 54
3, 144900, Note_on_c, 1, 71, 49
3, 144960, Note_on_c, 1, 71, 0
3, 144960, Note_on_c, 1, 74, 0
3, 144960, Note_on_c, 1, 76, 43
3, 144960, Note_on_c, 1, 72, 44
3, 145020, Note_on_c, 1, 72, 0
3, 145020, Note_on_c, 1, 76, 0
3, 145080, Note_on_c, 1, 81, 58
3, 145140, Note_on_c, 1, 81, 0
3, 145140, Note_on_c, 1, 83, 59
3, 145200, Note_on_c, 1, 83, 0
3, 145200, Note_on_c, 1, 84, 69
3, 145260, Note_on_c, 1, 84, 0
3, 145800, Note_on_c, 1, 74, 46
3, 145800, Note_on_c, 1, 71, 42
3, 145860, Note_on_c, 1, 71, 0
3, 145860, Note_on_c, 1, 74, 0
3, 145860, Note_on_c, 1, 76, 72
3, 145860, Note_on_c, 1, 72, 40
3, 145920, Note_on_c, 1, 72, 0
3, 145920, Note_on_c, 1, 76, 0
3, 145920, Note_on_c, 1, 77, 43
3, 145920, Note_on_c, 1, 74, 42
3, 145980, Note_on_c, 1, 74, 0
3, 145980, Note_on_c, 1, 77, 0
3, 146040, Note_on_c, 1, 83, 72
3, 146100, Note_on_c, 1, 83, 0
3, 146100, Note_on_c, 1, 84, 68
3, 146160, Note_on_c, 1, 84, 0
3, 146160, Note_on_c, 1, 86, 68
3, 146220, Note_on_c, 1, 86, 0
3, 146280, Note_on_c, 1, 83, 63
3, 146340, Note_on_c, 1, 83, 0
3, 146340, Note_on_c, 1, 84, 71
3, 146400, Note_on_c, 1, 84, 0
3, 146400, Note_on_c, 1, 86, 67
3, 146460, Note_on_c, 1, 86, 0
3, 146760, Note_on_c, 1, 83, 67
3, 146820, Note_on_c, 1, 83, 0
3, 146820, Note_on_c, 1, 84, 58
3, 146880, Note_on_c, 1, 84, 0
3, 146880, Note_on_c, 1, 86, 69
3, 146940, Note_on_c, 1, 86, 0
3, 147240, Note_on_c, 1, 83, 70
3, 147300, Note_on_c, 1, 83, 0
3, 147300, Note_on_c, 1, 84, 66
3, 147360, Note_on_c, 1, 84, 0
3, 147360, Note_on_c, 1, 86, 67
3, 147420, Note_on_c, 1, 86, 0
3, 158760, Note_on_c, 1, 76, 99
3, 158880, Note_on_c, 1, 76, 0
3, 158880, Note_on_c, 1, 76, 99
3, 158940, Note_on_c, 1, 76, 0
3, 158940, Note_on_c, 1, 74, 99
3, 159000, Note_on_c, 1, 74, 0
3, 159000, Note_on_c, 1, 72, 89
3, 159060, Note_on_c, 1, 72, 0
3, 159120, Note_on_c, 1, 72, 89
3, 159180, Note_on_c, 1, 72, 0
3, 159240, Note_on_c, 1, 76, 101
3, 159300, Note_on_c, 1, 76, 0
3, 159360, Note_on_c, 1, 76, 101
3, 159420, Note_on_c, 1, 76, 0
3, 159420, Note_on_c, 1, 74, 99
3, 159480, Note_on_c, 1, 74, 0
3, 159480, Note_on_c, 1, 72, 86
3, 159540, Note_on_c, 1, 72, 0
3, 159600, Note_on_c, 1, 72, 84
3, 159660, Note_on_c, 1, 72, 0
3, 159720, Note_on_c, 1, 76, 101
3, 159780, Note_on_c, 1, 76, 0
3, 159840, Note_on_c, 1, 76, 105
3, 159900, Note_on_c, 1, 76, 0
3, 159900, Note_on_c, 1, 74, 99
3, 159960, Note_on_c, 1, 74, 0
3, 159960, Note_on_c, 1, 72, 89
3, 160020, Note_on_c, 1, 72, 0
3, 160080, Note_on_c, 1, 72, 93
3, 160140, Note_on_c, 1, 72, 0
3, 160140, Note_on_c, 1, 71, 105
3, 160200, Note_on_c, 1, 71, 0
3, 160200, Note_on_c, 1, 69, 99
3, 160260, Note_on_c, 1, 69, 0
3, 160320, Note_on_c, 1, 67, 99
3, 160380, Note_on_c, 1, 67, 0
3, 160440, Note_on_c, 1, 79, 89
3, 160440, Note_on_c, 1, 71, 105
3, 160500, Note_on_c, 1, 71, 0
3, 160500, Note_on_c, 1, 79, 0
3, 160560, Note_on_c, 1, 81, 93
3, 160560, Note_on_c, 1, 72, 78
3, 160620, Note_on_c, 1, 72, 0
3, 160620, Note_on_c, 1, 81, 0
3, 160680, Note_on_c, 1, 78, 86
3, 160680, Note_on_c, 1, 69, 105
3, 160740, Note_on_c, 1, 69, 0
3, 160740, Note_on_c, 1, 78, 0
3, 160800, Note_on_c, 1, 79, 89
3, 160800, Note_on_c, 1, 71, 99
3, 160860, Note_on_c, 1, 71, 0
3, 160860, Note_on_c, 1, 79, 0
3, 160920, Note_on_c, 1, 79, 85
3, 160920, Note_on_c, 1, 71, 95
3, 160980, Note_on_c, 1, 71, 0
3, 160980, Note_on_c, 1, 79, 0
3, 161040, Note_on_c, 1, 81, 94
3, 161040, Note_on_c, 1, 72, 80
3, 161100, Note_on_c, 1, 72, 0
3, 161100, Note_on_c, 1, 81, 0
3, 161160, Note_on_c, 1, 78, 76
3, 161160, Note_on_c, 1, 69, 98
3, 161220, Note_on_c, 1, 69, 0
3, 161220, Note_on_c, 1, 78, 0
3, 161280, Note_on_c, 1, 79, 82
3, 161280, Note_on_c, 1, 67, 90
3, 161640, Note_on_c, 1, 67, 0
3, 161640, Note_on_c, 1, 79, 0
3, 161640, Note_on_c, 1, 67, 93
3, 161760, Note_on_c, 1, 67, 0
3, 161760, Note_on_c, 1, 67, 95
3, 161820, Note_on_c, 1, 67, 0
3, 161820, Note_on_c, 1, 69, 99
3, 161880, Note_on_c, 1, 69, 0
3, 161880, Note_on_c, 1, 71, 104
3, 161940, Note_on_c, 1, 71, 0
3, 162000, Note_on_c, 1, 71, 99
3, 162000, Note_on_c, 1, 67, 85
3, 162060, Note_on_c, 1, 67, 0
3, 162060, Note_on_c, 1, 71, 0
3, 162060, Note_on_c, 1, 72, 80
3, 162060, Note_on_c, 1, 69, 89
3, 162120, Note_on_c, 1, 69, 0
3, 162120, Note_on_c, 1, 72, 0
3, 162120, Note_on_c, 1, 74, 98
3, 162120, Note_on_c, 1, 71, 84
3, 162180, Note_on_c, 1, 71, 0
3, 162180, Note_on_c, 1, 74, 0
3, 162240, Note_on_c, 1, 74, 94
3, 162240, Note_on_c, 1, 71, 89
3, 162600, Note_on_c, 1, 71, 0
3, 162600, Note_on_c, 1, 74, 0
3, 162600, Note_on_c, 1, 71, 101
3, 162600, Note_on_c, 1, 67, 77
3, 162720, Note_on_c, 1, 67, 0
3, 162720, Note_on_c, 1, 71, 0
3, 162720, Note_on_c, 1, 71, 99
3, 162720, Note_on_c, 1, 67, 89
3, 162780, Note_on_c, 1, 67, 0
3, 162780, Note_on_c, 1, 71, 0
3, 162780, Note_on_c, 1, 72, 80
3, 162780, Note_on_c, 1, 69, 85
3, 162840, Note_on_c, 1, 69, 0
3, 162840, Note_on_c, 1, 72, 0
3, 162840, Note_on_c, 1, 74, 94
3, 162840, Note_on_c, 1, 71, 89
3, 162900, Note_on_c, 1, 71, 0
3, 162900, Note_on_c, 1, 74, 0
3, 162960, Note_on_c, 1, 74, 104
3, 162960, Note_on_c, 1, 71, 86
3, 163020, Note_on_c, 1, 71, 0
3, 163020, Note_on_c, 1, 74, 0
3, 163020, Note_on_c, 1, 76, 98
3, 163020, Note_on_c, 1, 72, 73
3, 163080, Note_on_c, 1, 72, 0
3, 163080, Note_on_c, 1, 76, 0
3, 163080, Note_on_c, 1, 77, 93
3, 163080, Note_on_c, 1, 74, 93
3, 163140, Note_on_c, 1, 74, 0
3, 163140, Note_on_c, 1, 77, 0
3, 163200, Note_on_c, 1, 77, 89
3, 163200, Note_on_c, 1, 74, 95
3, 163560, Note_on_c, 1, 74, 0
3, 163560, Note_on_c, 1, 77, 0
3, 163560, Note_on_c, 1, 81, 95
3, 163560, Note_on_c, 1, 77, 82
3, 163680, Note_on_c, 1, 77, 0
3, 163680, Note_on_c, 1, 81, 0
3, 163680, Note_on_c, 1, 81, 93
3, 163680, Note_on_c, 1, 77, 78
3, 163740, Note_on_c, 1, 77, 0
3, 163740, Note_on_c, 1, 81, 0
3, 163740, Note_on_c, 1, 79, 94
3, 163740, Note_on_c, 1, 76, 85
3, 163800, Note_on_c, 1, 76, 0
3, 163800, Note_on_c, 1, 79, 0
3, 163800, Note_on_c, 1, 77, 119
3, 163800, Note_on_c, 1, 74, 125
3, 163860, Note_on_c, 1, 74, 0
3, 163860, Note_on_c, 1, 77, 0
3, 163920, Note_on_c, 1, 77, 90
3, 163920, Note_on_c, 1, 74, 99
3, 163980, Note_on_c, 1, 74, 0
3, 163980, Note_on_c, 1, 77, 0
3, 164040, Note_on_c, 1, 81, 90
3, 164040, Note_on_c, 1, 77, 80
3, 164100, Note_on_c, 1, 77, 0
3, 164100, Note_on_c, 1, 81, 0
3, 164160, Note_on_c, 1, 81, 94
3, 164160, Note_on_c, 1, 77, 82
3, 164220, Note_on_c, 1, 77, 0
3, 164220, Note_on_c, 1, 81, 0
3, 164220, Note_on_c, 1, 79, 89
3, 164220, Note_on_c, 1, 76, 84
3, 164280, Note_on_c, 1, 76, 0
3, 164280, Note_on_c, 1, 79, 0
3, 164280, Note_on_c, 1, 77, 117
3, 164280, Note_on_c, 1, 74, 119
3, 164340, Note_on_c, 1, 74, 0
3, 164340, Note_on_c, 1, 77, 0
3, 164400, Note_on_c, 1, 77, 86
3, 164400, Note_on_c, 1, 74, 84
3, 164460, Note_on_c, 1, 74, 0
3, 164460, Note_on_c, 1, 77, 0
3, 164520, Note_on_c, 1, 81, 90
3, 164520, Note_on_c, 1, 77, 76
3, 164580, Note_on_c, 1, 77, 0
3, 164580, Note_on_c, 1, 81, 0
3, 164640, Note_on_c, 1, 81, 95
3, 164640, Note_on_c, 1, 77, 89
3, 164700, Note_on_c, 1, 77, 0
3, 164700, Note_on_c, 1, 81, 0
3, 164700, Note_on_c, 1, 79, 93
3, 164700, Note_on_c, 1, 76, 89
3, 164760, Note_on_c, 1, 76, 0
3, 164760, Note_on_c, 1, 79, 0
3, 164760, Note_on_c, 1, 77, 93
3, 164760, Note_on_c, 1, 74, 94
3, 164820, Note_on_c, 1, 74, 0
3, 164820, Note_on_c, 1, 77, 0
3, 164880, Note_on_c, 1, 77, 94
3, 164880, Note_on_c, 1, 72, 93
3, 164940, Note_on_c, 1, 77, 0
3, 164940, Note_on_c, 1, 76, 104
3, 165000, Note_on_c, 1, 76, 0
3, 165000, Note_on_c, 1, 72, 0
3, 165000, Note_on_c, 1, 74, 104
3, 165000, Note_on_c, 1, 69, 101
3, 165060, Note_on_c, 1, 69, 0
3, 165060, Note_on_c, 1, 74, 0
3, 165090, Note_on_c, 1, 74, 115
3, 165120, Note_on_c, 1, 74, 0
3, 165120, Note_on_c, 1, 72, 81
3, 165120, Note_on_c, 1, 64, 104
3, 165180, Note_on_c, 1, 64, 0
3, 165180, Note_on_c, 1, 72, 0
3, 165240, Note_on_c, 1, 72, 68
3, 165240, Note_on_c, 1, 64, 95
3, 165300, Note_on_c, 1, 64, 0
3, 165300, Note_on_c, 1, 72, 0
3, 165360, Note_on_c, 1, 74, 99
3, 165360, Note_on_c, 1, 65, 101
3, 165420, Note_on_c, 1, 65, 0
3, 165420, Note_on_c, 1, 74, 0
3, 165480, Note_on_c, 1, 71, 105
3, 165480, Note_on_c, 1, 65, 93
3, 165540, Note_on_c, 1, 65, 0
3, 165540, Note_on_c, 1, 71, 0
3, 165600, Note_on_c, 1, 60, 78
3, 165660, Note_on_c, 1, 60, 0
3, 165660, Note_on_c, 1, 62, 104
3, 165720, Note_on_c, 1, 62, 0
3, 165720, Note_on_c, 1, 64, 101
3, 165780, Note_on_c, 1, 64, 0
3, 165780, Note_on_c, 1, 65, 95
3, 165840, Note_on_c, 1, 65, 0
3, 165840, Note_on_c, 1, 67, 86
3, 165900, Note_on_c, 1, 67, 0
3, 165900, Note_on_c, 1, 69, 95
3, 165960, Note_on_c, 1, 69, 0
3, 165960, Note_on_c, 1, 71, 98
3, 166020, Note_on_c, 1, 71, 0
3, 166020, Note_on_c, 1, 72, 95
3, 166080, Note_on_c, 1, 72, 0
3, 166080, Note_on_c, 1, 74, 98
3, 166140, Note_on_c, 1, 74, 0
3, 166200, Note_on_c, 1, 76, 104
3, 166260, Note_on_c, 1, 76, 0
3, 166320, Note_on_c, 1, 77, 94
3, 166380, Note_on_c, 1, 77, 0
3, 166440, Note_on_c, 1, 71, 99
3, 166500, Note_on_c, 1, 71, 0
3, 166560, Note_on_c, 1, 72, 125
3, 166620, Note_on_c, 1, 72, 0
3, 166620, Note_on_c, 1, 71, 117
3, 166680, Note_on_c, 1, 71, 0
3, 166680, Note_on_c, 1, 69, 119
3, 166740, Note_on_c, 1, 69, 0
3, 166740, Note_on_c, 1, 67, 123
3, 166800, Note_on_c, 1, 67, 0
3, 166800, Note_on_c, 1, 65, 119
3, 166860, Note_on_c, 1, 65, 0
3, 166860, Note_on_c, 1, 64, 119
3, 166920, Note_on_c, 1, 64, 0
3, 166920, Note_on_c, 1, 62, 119
3, 166980, Note_on_c, 1, 62, 0
3, 166980, Note_on_c, 1, 60, 110
3, 167040, Note_on_c, 1, 60, 0
3, 167040, Note_on_c, 1, 74, 112
3, 167040, Note_on_c, 1, 71, 115
3, 167100, Note_on_c, 1, 71, 0
3, 167100, Note_on_c, 1, 74, 0
3, 167160, Note_on_c, 1, 76, 117
3, 167160, Note_on_c, 1, 72, 112
3, 167220, Note_on_c, 1, 72, 0
3, 167220, Note_on_c, 1, 76, 0
3, 167280, Note_on_c, 1, 77, 99
3, 167280, Note_on_c, 1, 71, 107
3, 167340, Note_on_c, 1, 71, 0
3, 167340, Note_on_c, 1, 77, 0
3, 167400, Note_on_c, 1, 71, 110
3, 167400, Note_on_c, 1, 65, 119
3, 167460, Note_on_c, 1, 65, 0
3, 167460, Note_on_c, 1, 71, 0
3, 167520, Note_on_c, 1, 72, 105
3, 167520, Note_on_c, 1, 64, 119
3, 167580, Note_on_c, 1, 64, 0
3, 167580, Note_on_c, 1, 72, 0
3, 167640, Note_on_c, 1, 74, 115
3, 167640, Note_on_c, 1, 65, 117
3, 167700, Note_on_c, 1, 65, 0
3, 167700, Note_on_c, 1, 74, 0
3, 167760, Note_on_c, 1, 72, 105
3, 167760, Note_on_c, 1, 64, 117
3, 167820, Note_on_c, 1, 64, 0
3, 167820, Note_on_c, 1, 72, 0
3, 167880, Note_on_c, 1, 74, 119
3, 167880, Note_on_c, 1, 65, 112
3, 167940, Note_on_c, 1, 65, 0
3, 167940, Note_on_c, 1, 74, 0
3, 168000, Note_on_c, 1, 72, 101
3, 168000, Note_on_c, 1, 64, 112
3, 168240, Note_on_c, 1, 64, 0
3, 168240, Note_on_c, 1, 72, 0
3, 168360, Note_on_c, 1, 67, 90
3, 168480, Note_on_c, 1, 67, 0
3, 168480, Note_on_c, 1, 72, 84
3, 168540, Note_on_c, 1, 72, 0
3, 168600, Note_on_c, 1, 72, 80
3, 168660, Note_on_c, 1, 72, 0
3, 168720, Note_on_c, 1, 72, 84
3, 168780, Note_on_c, 1, 72, 0
3, 168840, Note_on_c, 1, 67, 90
3, 168900, Note_on_c, 1, 67, 0
3, 168960, Note_on_c, 1, 76, 99
3, 169320, Note_on_c, 1, 76, 0
3, 169320, Note_on_c, 1, 72, 94
3, 169440, Note_on_c, 1, 72, 0
3, 169440, Note_on_c, 1, 79, 95
3, 169500, Note_on_c, 1, 79, 0
3, 169560, Note_on_c, 1, 79, 86
3, 169620, Note_on_c, 1, 79, 0
3, 169680, Note_on_c, 1, 79, 94
3, 169740, Note_on_c, 1, 79, 0
3, 169800, Note_on_c, 1, 76, 105
3, 169860, Note_on_c, 1, 76, 0
3, 169920, Note_on_c, 1, 72, 85
3, 170160, Note_on_c, 1, 72, 0
3, 183240, Note_on_c, 1, 67, 65
3, 183360, Note_on_c, 1, 67, 0
3, 183360, Note_on_c, 1, 72, 69
3, 183360, Note_on_c, 1, 67, 74
3, 183480, Note_on_c, 1, 72, 0
3, 183480, Note_on_c, 1, 71, 53
3, 183600, Note_on_c, 1, 71, 0
3, 183600, Note_on_c, 1, 72, 72
3, 183720, Note_on_c, 1, 72, 0
3, 183720, Note_on_c, 1, 67, 0
3, 183720, Note_on_c, 1, 67, 85
3, 183720, Note_on_c, 1, 74, 95
3, 183840, Note_on_c, 1, 74, 0
3, 183840, Note_on_c, 1, 67, 0
3, 183840, Note_on_c, 1, 72, 61
3, 183840, Note_on_c, 1, 67, 72
3, 183960, Note_on_c, 1, 72, 0
3, 183960, Note_on_c, 1, 71, 47
3, 184080, Note_on_c, 1, 71, 0
3, 184080, Note_on_c, 1, 69, 57
3, 184200, Note_on_c, 1, 69, 0
3, 184200, Note_on_c, 1, 67, 0
3, 184200, Note_on_c, 1, 67, 78
3, 184200, Note_on_c, 1, 67, 81
3, 184320, Note_on_c, 1, 67, 0
3, 184320, Note_on_c, 1, 67, 0
3, 184320, Note_on_c, 1, 72, 62
3, 184320, Note_on_c, 1, 67, 76
3, 184440, Note_on_c, 1, 72, 0
3, 184440, Note_on_c, 1, 71, 53
3, 184560, Note_on_c, 1, 71, 0
3, 184560, Note_on_c, 1, 72, 56
3, 184680, Note_on_c, 1, 72, 0
3, 184680, Note_on_c, 1, 67, 0
3, 184680, Note_on_c, 1, 67, 86
3, 184680, Note_on_c, 1, 74, 95
3, 184800, Note_on_c, 1, 74, 0
3, 184800, Note_on_c, 1, 67, 0
3, 184800, Note_on_c, 1, 71, 76
3, 184800, Note_on_c, 1, 67, 69
3, 185040, Note_on_c, 1, 67, 0
3, 185040, Note_on_c, 1, 71, 0
3, 185160, Note_on_c, 1, 67, 80
3, 185280, Note_on_c, 1, 67, 0
3, 185280, Note_on_c, 1, 77, 67
3, 185340, Note_on_c, 1, 77, 0
3, 185400, Note_on_c, 1, 77, 72
3, 185460, Note_on_c, 1, 77, 0
3, 185520, Note_on_c, 1, 67, 69
3, 185640, Note_on_c, 1, 67, 0
3, 185640, Note_on_c, 1, 67, 70
3, 185640, Note_on_c, 1, 77, 74
3, 185760, Note_on_c, 1, 77, 0
3, 185760, Note_on_c, 1, 67, 0
3, 185760, Note_on_c, 1, 76, 74
3, 185820, Note_on_c, 1, 76, 0
3, 185880, Note_on_c, 1, 76, 80
3, 185940, Note_on_c, 1, 76, 0
3, 186000, Note_on_c, 1, 67, 68
3, 186120, Note_on_c, 1, 67, 0
3, 186120, Note_on_c, 1, 67, 68
3, 186120, Note_on_c, 1, 76, 76
3, 186180, Note_on_c, 1, 76, 0
3, 186240, Note_on_c, 1, 67, 0
3, 186240, Note_on_c, 1, 76, 80
3, 186240, Note_on_c, 1, 69, 65
3, 186360, Note_on_c, 1, 76, 0
3, 186360, Note_on_c, 1, 74, 73
3, 186480, Note_on_c, 1, 74, 0
3, 186480, Note_on_c, 1, 69, 0
3, 186480, Note_on_c, 1, 69, 69
3, 186480, Note_on_c, 1, 74, 72
3, 186600, Note_on_c, 1, 74, 0
3, 186600, Note_on_c, 1, 72, 64
3, 186720, Note_on_c, 1, 72, 0
3, 186720, Note_on_c, 1, 69, 0
3, 186720, Note_on_c, 1, 71, 62
3, 186720, Note_on_c, 1, 67, 64
3, 186960, Note_on_c, 1, 67, 0
3, 186960, Note_on_c, 1, 71, 0
3, 186960, Note_on_c, 1, 74, 71
3, 187080, Note_on_c, 1, 74, 0
3, 187200, Note_on_c, 1, 79, 50
3, 188160, Note_on_c, 1, 79, 0
3, 188160, Note_on_c, 1, 79, 42
3, 188880, Note_on_c, 1, 79, 0
3, 196320, Note_on_c, 1, 75, 65
3, 197280, Note_on_c, 1, 75, 0
3, 197280, Note_on_c, 1, 75, 52
3, 198000, Note_on_c, 1, 75, 0
3, 200160, Note_on_c, 1, 79, 60
3, 201120, Note_on_c, 1, 79, 0
3, 201120, Note_on_c, 1, 79, 43
3, 201840, Note_on_c, 1, 79, 0
3, 209160, Note_on_c, 1, 67, 71
3, 209280, Note_on_c, 1, 67, 0
3, 209280, Note_on_c, 1, 72, 69
3, 209400, Note_on_c, 1, 72, 0
3, 209400, Note_on_c, 1, 71, 72
3, 209520, Note_on_c, 1, 71, 0
3, 209520, Note_on_c, 1, 72, 84
3, 209640, Note_on_c, 1, 72, 0
3, 209640, Note_on_c, 1, 74, 73
3, 209760, Note_on_c, 1, 74, 0
3, 209760, Note_on_c, 1, 72, 67
3, 209880, Note_on_c, 1, 72, 0
3, 209880, Note_on_c, 1, 71, 78
3, 210000, Note_on_c, 1, 71, 0
3, 210000, Note_on_c, 1, 69, 65
3, 210120, Note_on_c, 1, 69, 0
3, 210120, Note_on_c, 1, 67, 59
3, 210240, Note_on_c, 1, 67, 0
3, 210240, Note_on_c, 1, 76, 59
3, 210360, Note_on_c, 1, 76, 0
3, 210360, Note_on_c, 1, 74, 76
3, 210480, Note_on_c, 1, 74, 0
3, 210480, Note_on_c, 1, 76, 70
3, 210600, Note_on_c, 1, 76, 0
3, 210600, Note_on_c, 1, 77, 61
3, 210720, Note_on_c, 1, 77, 0
3, 210720, Note_on_c, 1, 76, 76
3, 210840, Note_on_c, 1, 76, 0
3, 210840, Note_on_c, 1, 74, 54
3, 210960, Note_on_c, 1, 74, 0
3, 210960, Note_on_c, 1, 72, 62
3, 211080, Note_on_c, 1, 72, 0
3, 211080, Note_on_c, 1, 71, 45
3, 211200, Note_on_c, 1, 71, 0
3, 211200, Note_on_c, 1, 72, 30
3, 211200, Note_on_c, 1, 64, 62
3, 211680, Note_on_c, 1, 64, 0
3, 211680, Note_on_c, 1, 72, 0
3, 211680, Note_on_c, 1, 74, 63
3, 211680, Note_on_c, 1, 65, 54
3, 212160, Note_on_c, 1, 65, 0
3, 212160, Note_on_c, 1, 74, 0
3, 212160, Note_on_c, 1, 76, 68
3, 212160, Note_on_c, 1, 67, 53
3, 212640, Note_on_c, 1, 67, 0
3, 212640, Note_on_c, 1, 76, 0
3, 212640, Note_on_c, 1, 77, 45
3, 212640, Note_on_c, 1, 69, 52
3, 213120, Note_on_c, 1, 69, 0
3, 213120, Note_on_c, 1, 77, 0
3, 213120, Note_on_c, 1, 79, 40
3, 213120, Note_on_c, 1, 72, 56
3, 213600, Note_on_c, 1, 72, 0
3, 213600, Note_on_c, 1, 79, 0
3, 213600, Note_on_c, 1, 81, 54
3, 213600, Note_on_c, 1, 72, 38
3, 214080, Note_on_c, 1, 72, 0
3, 214080, Note_on_c, 1, 81, 0
3, 214080, Note_on_c, 1, 74, 72
3, 214080, Note_on_c, 1, 71, 53
3, 214560, Note_on_c, 1, 71, 0
3, 214560, Note_on_c, 1, 74, 0
3, 214560, Note_on_c, 1, 76, 80
3, 214560, Note_on_c, 1, 72, 45
3, 214800, Note_on_c, 1, 72, 0
3, 214800, Note_on_c, 1, 73, 62
3, 215040, Note_on_c, 1, 73, 0
3, 215040, Note_on_c, 1, 76, 0
3, 215040, Note_on_c, 1, 77, 81
3, 215040, Note_on_c, 1, 74, 80
3, 215520, Note_on_c, 1, 74, 0
3, 215520, Note_on_c, 1, 77, 0
3, 215520, Note_on_c, 1, 81, 89
3, 215520, Note_on_c, 1, 72, 57
3, 216000, Note_on_c, 1, 72, 0
3, 216000, Note_on_c, 1, 81, 0
3, 216000, Note_on_c, 1, 79, 94
3, 216000, Note_on_c, 1, 72, 68
3, 216240, Note_on_c, 1, 72, 0
3, 216240, Note_on_c, 1, 79, 0
3, 216240, Note_on_c, 1, 77, 73
3, 216240, Note_on_c, 1, 72, 43
3, 216480, Note_on_c, 1, 72, 0
3, 216480, Note_on_c, 1, 77, 0
3, 216480, Note_on_c, 1, 79, 72
3, 216480, Note_on_c, 1, 72, 42
3, 216720, Note_on_c, 1, 72, 0
3, 216720, Note_on_c, 1, 79, 0
3, 216720, Note_on_c, 1, 81, 95
3, 216720, Note_on_c, 1, 72, 76
3, 216960, Note_on_c, 1, 72, 0
3, 216960, Note_on_c, 1, 81, 0
3, 216960, Note_on_c, 1, 79, 68
3, 216960, Note_on_c, 1, 72, 44
3, 217200, Note_on_c, 1, 72, 0
3, 217200, Note_on_c, 1, 79, 0
3, 217200, Note_on_c, 1, 77, 74
3, 217200, Note_on_c, 1, 72, 40
3, 217440, Note_on_c, 1, 72, 0
3, 217440, Note_on_c, 1, 77, 0
3, 217440, Note_on_c, 1, 79, 73
3, 217440, Note_on_c, 1, 72, 45
3, 217680, Note_on_c, 1, 72, 0
3, 217680, Note_on_c, 1, 79, 0
3, 217680, Note_on_c, 1, 81, 99
3, 217680, Note_on_c, 1, 72, 72
3, 217920, Note_on_c, 1, 72, 0
3, 217920, Note_on_c, 1, 81, 0
3, 217920, Note_on_c, 1, 79, 78
3, 217920, Note_on_c, 1, 72, 61
3, 218040, Note_on_c, 1, 72, 0
3, 218040, Note_on_c, 1, 72, 68
3, 218160, Note_on_c, 1, 72, 0
3, 218160, Note_on_c, 1, 79, 0
3, 218160, Note_on_c, 1, 81, 99
3, 218160, Note_on_c, 1, 72, 68
3, 218280, Note_on_c, 1, 72, 0
3, 218280, Note_on_c, 1, 72, 52
3, 218400, Note_on_c, 1, 72, 0
3, 218400, Note_on_c, 1, 81, 0
3, 218400, Note_on_c, 1, 79, 86
3, 218400, Note_on_c, 1, 72, 82
3, 218520, Note_on_c, 1, 72, 0
3, 218520, Note_on_c, 1, 72, 76
3, 218640, Note_on_c, 1, 72, 0
3, 218640, Note_on_c, 1, 79, 0
3, 218640, Note_on_c, 1, 81, 101
3, 218640, Note_on_c, 1, 72, 90
3, 218760, Note_on_c, 1, 72, 0
3, 218760, Note_on_c, 1, 72, 73
3, 218880, Note_on_c, 1, 72, 0
3, 218880, Note_on_c, 1, 81, 0
3, 218880, Note_on_c, 1, 79, 94
3, 218880, Note_on_c, 1, 72, 81
3, 220320, Note_on_c, 1, 72, 0
3, 220320, Note_on_c, 1, 79, 0
3, 238800, Note_on_c, 1, 67, 61
3, 238920, Note_on_c, 1, 67, 0
3, 239040, Note_on_c, 1, 71, 52
3, 239160, Note_on_c, 1, 71, 0
3, 239280, Note_on_c, 1, 74, 60
3, 239400, Note_on_c, 1, 74, 0
3, 239520, Note_on_c, 1, 77, 44
3, 239520, Note_on_c, 1, 71, 43
3, 240960, Note_on_c, 1, 71, 0
3, 240960, Note_on_c, 1, 77, 0
3, 241320, Note_on_c, 1, 76, 99
3, 241440, Note_on_c, 1, 76, 0
3, 241440, Note_on_c, 1, 76, 99
3, 241500, Note_on_c, 1, 76, 0
3, 241500, Note_on_c, 1, 74, 99
3, 241560, Note_on_c, 1, 74, 0
3, 241560, Note_on_c, 1, 72, 89
3, 241620, Note_on_c, 1, 72, 0
3, 241680, Note_on_c, 1, 72, 89
3, 241740, Note_on_c, 1, 72, 0
3, 241800, Note_on_c, 1, 76, 101
3, 241860, Note_on_c, 1, 76, 0
3, 241920, Note_on_c, 1, 76, 101
3, 241980, Note_on_c, 1, 76, 0
3, 241980, Note_on_c, 1, 74, 99
3, 242040, Note_on_c, 1, 74, 0
3, 242040, Note_on_c, 1, 72, 86
3, 242100, Note_on_c, 1, 72, 0
3, 242160, Note_on_c, 1, 72, 84
3, 242220, Note_on_c, 1, 72, 0
3, 242280, Note_on_c, 1, 76, 101
3, 242340, Note_on_c, 1, 76, 0
3, 242400, Note_on_c, 1, 76, 105
3, 242460, Note_on_c, 1, 76, 0
3, 242460, Note_on_c, 1, 74, 99
3, 242520, Note_on_c, 1, 74, 0
3, 242520, Note_on_c, 1, 72, 89
3, 242580, Note_on_c, 1, 72, 0
3, 242640, Note_on_c, 1, 72, 93
3, 242700, Note_on_c, 1, 72, 0
3, 242700, Note_on_c, 1, 71, 105
3, 242760, Note_on_c, 1, 71, 0
3, 242760, Note_on_c, 1, 69, 99
3, 242820, Note_on_c, 1, 69, 0
3, 242880, Note_on_c, 1, 67, 99
3, 242940, Note_on_c, 1, 67, 0
3, 243000, Note_on_c, 1, 79, 89
3, 243000, Note_on_c, 1, 71, 105
3, 243060, Note_on_c, 1, 71, 0
3, 243060, Note_on_c, 1, 79, 0
3, 243120, Note_on_c, 1, 81, 93
3, 243120, Note_on_c, 1, 72, 78
3, 243180, Note_on_c, 1, 72, 0
3, 243180, Note_on_c, 1, 81, 0
3, 243240, Note_on_c, 1, 78, 86
3, 243240, Note_on_c, 1, 69, 105
3, 243300, Note_on_c, 1, 69, 0
3, 243300, Note_on_c, 1, 78, 0
3, 243360, Note_on_c, 1, 79, 89
3, 243360, Note_on_c, 1, 71, 99
3, 243420, Note_on_c, 1, 71, 0
3, 243420, Note_on_c, 1, 79, 0
3, 243480, Note_on_c, 1, 79, 85
3, 243480, Note_on_c, 1, 71, 95
3, 243540, Note_on_c, 1, 71, 0
3, 243540, Note_on_c, 1, 79, 0
3, 243600, Note_on_c, 1, 81, 94
3, 243600, Note_on_c, 1, 72, 80
3, 243660, Note_on_c, 1, 72, 0
3, 243660, Note_on_c, 1, 81, 0
3, 243720, Note_on_c, 1, 78, 76
3, 243720, Note_on_c, 1, 69, 98
3, 243780, Note_on_c, 1, 69, 0
3, 243780, Note_on_c, 1, 78, 0
3, 243840, Note_on_c, 1, 79, 82
3, 243840, Note_on_c, 1, 67, 90
3, 244200, Note_on_c, 1, 67, 0
3, 244200, Note_on_c, 1, 79, 0
3, 244200, Note_on_c, 1, 67, 93
3, 244320, Note_on_c, 1, 67, 0
3, 244320, Note_on_c, 1, 67, 95
3, 244380, Note_on_c, 1, 67, 0
3, 244380, Note_on_c, 1, 69, 99
3, 244440, Note_on_c, 1, 69, 0
3, 244440, Note_on_c, 1, 71, 104
3, 244500, Note_on_c, 1, 71, 0
3, 244560, Note_on_c, 1, 71, 99
3, 244560, Note_on_c, 1, 67, 85
3, 244620, Note_on_c, 1, 67, 0
3, 244620, Note_on_c, 1, 71, 0
3, 244620, Note_on_c, 1, 72, 80
3, 244620, Note_on_c, 1, 69, 89
3, 244680, Note_on_c, 1, 69, 0
3, 244680, Note_on_c, 1, 72, 0
3, 244680, Note_on_c, 1, 74, 98
3, 244680, Note_on_c, 1, 71, 84
3, 244740, Note_on_c, 1, 71, 0
3, 244740, Note_on_c, 1, 74, 0
3, 244800, Note_on_c, 1, 74, 99
3, 244800, Note_on_c, 1, 71, 86
3, 245160, Note_on_c, 1, 71, 0
3, 245160, Note_on_c, 1, 74, 0
3, 245160, Note_on_c, 1, 71, 101
3, 245160, Note_on_c, 1, 67, 77
3, 245280, Note_on_c, 1, 67, 0
3, 245280, Note_on_c, 1, 71, 0
3, 245280, Note_on_c, 1, 71, 99
3, 245280, Note_on_c, 1, 67, 89
3, 245340, Note_on_c, 1, 67, 0
3, 245340, Note_on_c, 1, 71, 0
3, 245340, Note_on_c, 1, 72, 80
3, 245340, Note_on_c, 1, 69, 85
3, 245400, Note_on_c, 1, 69, 0
3, 245400, Note_on_c, 1, 72, 0
3, 245400, Note_on_c, 1, 74, 94
3, 245400, Note_on_c, 1, 71, 89
3, 245460, Note_on_c, 1, 71, 0
3, 245460, Note_on_c, 1, 74, 0
3, 245520, Note_on_c, 1, 74, 104
3, 245520, Note_on_c, 1, 71, 86
3, 245580, Note_on_c, 1, 71, 0
3, 245580, Note_on_c, 1, 74, 0
3, 245580, Note_on_c, 1, 76, 98
3, 245580, Note_on_c, 1, 72, 73
3, 245640, Note_on_c, 1, 72, 0
3, 245640, Note_on_c, 1, 76, 0
3, 245640, Note_on_c, 1, 77, 93
3, 245640, Note_on_c, 1, 74, 93
3, 245700, Note_on_c, 1, 74, 0
3, 245700, Note_on_c, 1, 77, 0
3, 245760, Note_on_c, 1, 77, 90
3, 245760, Note_on_c, 1, 74, 94
3, 246120, Note_on_c, 1, 74, 0
3, 246120, Note_on_c, 1, 77, 0
3, 246120, Note_on_c, 1, 81, 95
3, 246120, Note_on_c, 1, 77, 82
3, 246240, Note_on_c, 1, 77, 0
3, 246240, Note_on_c, 1, 81, 0
3, 246240, Note_on_c, 1, 81, 93
3, 246240, Note_on_c, 1, 77, 78
3, 246300, Note_on_c, 1, 77, 0
3, 246300, Note_on_c, 1, 81, 0
3, 246300, Note_on_c, 1, 79, 94
3, 246300, Note_on_c, 1, 76, 85
3, 246360, Note_on_c, 1, 76, 0
3, 246360, Note_on_c, 1, 79, 0
3, 246360, Note_on_c, 1, 77, 119
3, 246360, Note_on_c, 1, 74, 125
3, 246420, Note_on_c, 1, 74, 0
3, 246420, Note_on_c, 1, 77, 0
3, 246480, Note_on_c, 1, 77, 90
3, 246480, Note_on_c, 1, 74, 99
3, 246540, Note_on_c, 1, 74, 0
3, 246540, Note_on_c, 1, 77, 0
3, 246600, Note_on_c, 1, 81, 90
3, 246600, Note_on_c, 1, 77, 80
3, 246660, Note_on_c, 1, 77, 0
3, 246660, Note_on_c, 1, 81, 0
3, 246720, Note_on_c, 1, 81, 94
3, 246720, Note_on_c, 1, 77, 82
3, 246780, Note_on_c, 1, 77, 0
3, 246780, Note_on_c, 1, 81, 0
3, 246780, Note_on_c, 1, 79, 89
3, 246780, Note_on_c, 1, 76, 84
3, 246840, Note_on_c, 1, 76, 0
3, 246840, Note_on_c, 1, 79, 0
3, 246840, Note_on_c, 1, 77, 117
3, 246840, Note_on_c, 1, 74, 119
3, 246900, Note_on_c, 1, 74, 0
3, 246900, Note_on_c, 1, 77, 0
3, 246960, Note_on_c, 1, 77, 86
3, 246960, Note_on_c, 1, 74, 84
3, 247020, Note_on_c, 1, 74, 0
3, 247020, Note_on_c, 1, 77, 0
3, 247080, Note_on_c, 1, 81, 90
3, 247080, Note_on_c, 1, 77, 76
3, 247140, Note_on_c, 1, 77, 0
3, 247140, Note_on_c, 1, 81, 0
3, 247200, Note_on_c, 1, 81, 95
3, 247200, Note_on_c, 1, 77, 89
3, 247260, Note_on_c, 1, 77, 0
3, 247260, Note_on_c, 1, 81, 0
3, 247260, Note_on_c, 1, 79, 93
3, 247260, Note_on_c, 1, 76, 89
3, 247320, Note_on_c, 1, 76, 0
3, 247320, Note_on_c, 1, 79, 0
3, 247320, Note_on_c, 1, 77, 93
3, 247320, Note_on_c, 1, 74, 94
3, 247380, Note_on_c, 1, 74, 0
3, 247380, Note_on_c, 1, 77, 0
3, 247440, Note_on_c, 1, 77, 94
3, 247440, Note_on_c, 1, 72, 93
3, 247500, Note_on_c, 1, 77, 0
3, 247500, Note_on_c, 1, 76, 104
3, 247560, Note_on_c, 1, 76, 0
3, 247560, Note_on_c, 1, 72, 0
3, 247560, Note_on_c, 1, 74, 104
3, 247560, Note_on_c, 1, 69, 101
3, 247620, Note_on_c, 1, 69, 0
3, 247620, Note_on_c, 1, 74, 0
3, 247650, Note_on_c, 1, 74, 115
3, 247680, Note_on_c, 1, 74, 0
3, 247680, Note_on_c, 1, 72, 81
3, 247680, Note_on_c, 1, 64, 104
3, 247740, Note_on_c, 1, 64, 0
3, 247740, Note_on_c, 1, 72, 0
3, 247800, Note_on_c, 1, 72, 68
3, 247800, Note_on_c, 1, 64, 95
3, 247860, Note_on_c, 1, 64, 0
3, 247860, Note_on_c, 1, 72, 0
3, 247920, Note_on_c, 1, 74, 99
3, 247920, Note_on_c, 1, 65, 101
3, 247980, Note_on_c, 1, 65, 0
3, 247980, Note_on_c, 1, 74, 0
3, 248040, Note_on_c, 1, 71, 105
3, 248040, Note_on_c, 1, 65, 93
3, 248100, Note_on_c, 1, 65, 0
3, 248100, Note_on_c, 1, 71, 0
3, 248160, Note_on_c, 1, 60, 78
3, 248220, Note_on_c, 1, 60, 0
3, 248220, Note_on_c, 1, 62, 104
3, 248280, Note_on_c, 1, 62, 0
3, 248280, Note_on_c, 1, 64, 101
3, 248340, Note_on_c, 1, 64, 0
3, 248340, Note_on_c, 1, 65, 95
3, 248400, Note_on_c, 1, 65, 0
3, 248400, Note_on_c, 1, 67, 86
3, 248460, Note_on_c, 1, 67, 0
3, 248460, Note_on_c, 1, 69, 95
3, 248520, Note_on_c, 1, 69, 0
3, 248520, Note_on_c, 1, 71, 98
3, 248580, Note_on_c, 1, 71, 0
3, 248580, Note_on_c, 1, 72, 95
3, 248640, Note_on_c, 1, 72, 0
3, 248640, Note_on_c, 1, 74, 98
3, 248700, Note_on_c, 1, 74, 0
3, 248760, Note_on_c, 1, 76, 104
3, 248820, Note_on_c, 1, 76, 0
3, 248880, Note_on_c, 1, 77, 94
3, 248940, Note_on_c, 1, 77, 0
3, 249000, Note_on_c, 1, 71, 99
3, 249060, Note_on_c, 1, 71, 0
3, 249120, Note_on_c, 1, 72, 125
3, 249180, Note_on_c, 1, 72, 0
3, 249180, Note_on_c, 1, 71, 117
3, 249240, Note_on_c, 1, 71, 0
3, 249240, Note_on_c, 1, 69, 119
3, 249300, Note_on_c, 1, 69, 0
3, 249300, Note_on_c, 1, 67, 123
3, 249360, Note_on_c, 1, 67, 0
3, 249360, Note_on_c, 1, 65, 119
3, 249420, Note_on_c, 1, 65, 0
3, 249420, Note_on_c, 1, 64, 119
3, 249480, Note_on_c, 1, 64, 0
3, 249480, Note_on_c, 1, 62, 119
3, 249540, Note_on_c, 1, 62, 0
3, 249540, Note_on_c, 1, 60, 110
3, 249600, Note_on_c, 1, 60, 0
3, 249600, Note_on_c, 1, 74, 112
3, 249600, Note_on_c, 1, 71, 115
3, 249660, Note_on_c, 1, 71, 0
3, 249660, Note_on_c, 1, 74, 0
3, 249720, Note_on_c, 1, 76, 117
3, 249720, Note_on_c, 1, 72, 112
3, 249780, Note_on_c, 1, 72, 0
3, 249780, Note_on_c, 1, 76, 0
3, 249840, Note_on_c, 1, 77, 99
3, 249840, Note_on_c, 1, 71, 107
3, 249900, Note_on_c, 1, 71, 0
3, 249900, Note_on_c, 1, 77, 0
3, 249960, Note_on_c, 1, 71, 110
3, 249960, Note_on_c, 1, 65, 119
3, 250020, Note_on_c, 1, 65, 0
3, 250020, Note_on_c, 1, 71, 0
3, 250080, Note_on_c, 1, 72, 105
3, 250080, Note_on_c, 1, 64, 119
3, 250140, Note_on_c, 1, 64, 0
3, 250140, Note_on_c, 1, 72, 0
3, 250200, Note_on_c, 1, 74, 115
3, 250200, Note_on_c, 1, 65, 117
3, 250260, Note_on_c, 1, 65, 0
3, 250260, Note_on_c, 1, 74, 0
3, 250320, Note_on_c, 1, 72, 105
3, 250320, Note_on_c, 1, 64, 117
3, 250380, Note_on_c, 1, 64, 0
3, 250380, Note_on_c, 1, 72, 0
3, 250440, Note_on_c, 1, 74, 119
3, 250440, Note_on_c, 1, 65, 112
3, 250500, Note_on_c, 1, 65, 0
3, 250500, Note_on_c, 1, 74, 0
3, 250560, Note_on_c, 1, 72, 101
3, 250560, Note_on_c, 1, 64, 112
3, 250800, Note_on_c, 1, 64, 0
3, 250800, Note_on_c, 1, 72, 0
3, 251400, Note_on_c, 1, 72, 71
3, 251400, Note_on_c, 1, 76, 45
3, 251520, Note_on_c, 1, 76, 0
3, 251520, Note_on_c, 1, 72, 0
3, 251520, Note_on_c, 1, 76, 51
3, 251520, Note_on_c, 1, 72, 62
3, 251580, Note_on_c, 1, 72, 0
3, 251580, Note_on_c, 1, 76, 0
3, 251580, Note_on_c, 1, 74, 51
3, 251580, Note_on_c, 1, 71, 43
3, 251640, Note_on_c, 1, 71, 0
3, 251640, Note_on_c, 1, 74, 0
3, 251640, Note_on_c, 1, 72, 80
3, 251640, Note_on_c, 1, 67, 57
3, 251700, Note_on_c, 1, 67, 0
3, 251700, Note_on_c, 1, 72, 0
3, 251760, Note_on_c, 1, 72, 76
3, 251760, Note_on_c, 1, 67, 46
3, 251820, Note_on_c, 1, 67, 0
3, 251820, Note_on_c, 1, 72, 0
3, 252360, Note_on_c, 1, 74, 50
3, 252360, Note_on_c, 1, 77, 60
3, 252480, Note_on_c, 1, 77, 0
3, 252480, Note_on_c, 1, 74, 0
3, 252480, Note_on_c, 1, 77, 64
3, 252480, Note_on_c, 1, 74, 72
3, 252540, Note_on_c, 1, 74, 0
3, 252540, Note_on_c, 1, 77, 0
3, 252540, Note_on_c, 1, 76, 43
3, 252540, Note_on_c, 1, 72, 69
3, 252600, Note_on_c, 1, 72, 0
3, 252600, Note_on_c, 1, 76, 0
3, 252600, Note_on_c, 1, 74, 40
3, 252600, Note_on_c, 1, 71, 45
3, 252660, Note_on_c, 1, 71, 0
3, 252660, Note_on_c, 1, 74, 0
3, 252720, Note_on_c, 1, 74, 64
3, 252720, Note_on_c, 1, 71, 46
3, 252780, Note_on_c, 1, 71, 0
3, 252780, Note_on_c, 1, 74, 0
3, 254760, Note_on_c, 1, 67, 53
3, 254760, Note_on_c, 1, 76, 56
3, 254880, Note_on_c, 1, 76, 0
3, 254880, Note_on_c, 1, 67, 0
3, 254880, Note_on_c, 1, 76, 57
3, 254880, Note_on_c, 1, 67, 61
3, 254940, Note_on_c, 1, 67, 0
3, 254940, Note_on_c, 1, 76, 0
3, 254940, Note_on_c, 1, 74, 72
3, 254940, Note_on_c, 1, 65, 49
3, 255000, Note_on_c, 1, 65, 0
3, 255000, Note_on_c, 1, 74, 0
3, 255000, Note_on_c, 1, 72, 60
3, 255000, Note_on_c, 1, 64, 29
3, 255060, Note_on_c, 1, 64, 0
3, 255060, Note_on_c, 1, 72, 0
3, 255120, Note_on_c, 1, 72, 65
3, 255120, Note_on_c, 1, 64, 89
3, 255180, Note_on_c, 1, 64, 0
3, 255180, Note_on_c, 1, 72, 0
3, 255720, Note_on_c, 1, 69, 82
3, 255720, Note_on_c, 1, 77, 68
3, 255840, Note_on_c, 1, 77, 0
3, 255840, Note_on_c, 1, 69, 0
3, 255840, Note_on_c, 1, 77, 64
3, 255840, Note_on_c, 1, 69, 74
3, 255900, Note_on_c, 1, 69, 0
3, 255900, Note_on_c, 1, 77, 0
3, 255900, Note_on_c, 1, 76, 65
3, 255900, Note_on_c, 1, 67, 58
3, 255960, Note_on_c, 1, 67, 0
3, 255960, Note_on_c, 1, 76, 0
3, 255960, Note_on_c, 1, 74, 57
3, 255960, Note_on_c, 1, 65, 45
3, 256020, Note_on_c, 1, 65, 0
3, 256020, Note_on_c, 1, 74, 0
3, 256080, Note_on_c, 1, 74, 61
3, 256080, Note_on_c, 1, 65, 61
3, 256140, Note_on_c, 1, 65, 0
3, 256140, Note_on_c, 1, 74, 0
3, 256680, Note_on_c, 1, 76, 61
3, 256680, Note_on_c, 1, 79, 53
3, 256800, Note_on_c, 1, 79, 0
3, 256800, Note_on_c, 1, 76, 0
3, 256800, Note_on_c, 1, 79, 62
3, 256800, Note_on_c, 1, 76, 58
3, 256860, Note_on_c, 1, 76, 0
3, 256860, Note_on_c, 1, 79, 0
3, 256860, Note_on_c, 1, 77, 60
3, 256860, Note_on_c, 1, 74, 66
3, 256920, Note_on_c, 1, 74, 0
3, 256920, Note_on_c, 1, 77, 0
3, 256920, Note_on_c, 1, 76, 71
3, 256920, Note_on_c, 1, 72, 38
3, 256980, Note_on_c, 1, 72, 0
3, 256980, Note_on_c, 1, 76, 0
3, 257040, Note_on_c, 1, 76, 68
3, 257040, Note_on_c, 1, 72, 40
3, 257100, Note_on_c, 1, 72, 0
3, 257100, Note_on_c, 1, 76, 0
3, 257160, Note_on_c, 1, 76, 57
3, 257160, Note_on_c, 1, 67, 52
3, 257220, Note_on_c, 1, 67, 0
3, 257220, Note_on_c, 1, 76, 0
3, 257280, Note_on_c, 1, 76, 69
3, 257280, Note_on_c, 1, 67, 58
3, 257340, Note_on_c, 1, 67, 0
3, 257340, Note_on_c, 1, 76, 0
3, 257340, Note_on_c, 1, 74, 65
3, 257340, Note_on_c, 1, 65, 48
3, 257400, Note_on_c, 1, 65, 0
3, 257400, Note_on_c, 1, 74, 0
3, 257400, Note_on_c, 1, 72, 43
3, 257400, Note_on_c, 1, 64, 64
3, 257460, Note_on_c, 1, 64, 0
3, 257460, Note_on_c, 1, 72, 0
3, 257520, Note_on_c, 1, 64, 57
3, 257580, Note_on_c, 1, 64, 0
3, 257760, Note_on_c, 1, 74, 60
3, 257760, Note_on_c, 1, 69, 73
3, 258000, Note_on_c, 1, 69, 0
3, 258000, Note_on_c, 1, 74, 0
3, 258000, Note_on_c, 1, 65, 57
3, 258000, Note_on_c, 1, 71, 59
3, 258240, Note_on_c, 1, 71, 0
3, 258240, Note_on_c, 1, 65, 0
3, 258240, Note_on_c, 1, 72, 33
3, 258240, Note_on_c, 1, 64, 71
3, 258480, Note_on_c, 1, 64, 0
3, 258480, Note_on_c, 1, 72, 0
3, 258600, Note_on_c, 1, 79, 69
3, 258720, Note_on_c, 1, 79, 0
3, 258720, Note_on_c, 1, 79, 76
3, 258780, Note_on_c, 1, 79, 0
3, 258780, Note_on_c, 1, 77, 80
3, 258840, Note_on_c, 1, 77, 0
3, 258840, Note_on_c, 1, 76, 72
3, 258900, Note_on_c, 1, 76, 0
3, 258960, Note_on_c, 1, 76, 80
3, 259020, Note_on_c, 1, 76, 0
3, 259080, Note_on_c, 1, 72, 52
3, 259200, Note_on_c, 1, 72, 0
3, 259200, Note_on_c, 1, 72, 50
3, 259260, Note_on_c, 1, 72, 0
3, 259260, Note_on_c, 1, 71, 72
3, 259320, Note_on_c, 1, 71, 0
3, 259320, Note_on_c, 1, 69, 78
3, 259380, Note_on_c, 1, 69, 0
3, 259440, Note_on_c, 1, 69, 73
3, 259500, Note_on_c, 1, 69, 0
3, 259560, Note_on_c, 1, 81, 67
3, 259680, Note_on_c, 1, 81, 0
3, 259680, Note_on_c, 1, 81, 71
3, 259740, Note_on_c, 1, 81, 0
3, 259740, Note_on_c, 1, 79, 32
3, 259800, Note_on_c, 1, 79, 0
3, 259800, Note_on_c, 1, 77, 68
3, 259860, Note_on_c, 1, 77, 0
3, 259920, Note_on_c, 1, 77, 62
3, 259980, Note_on_c, 1, 77, 0
3, 260040, Note_on_c, 1, 74, 81
3, 260160, Note_on_c, 1, 74, 0
3, 260160, Note_on_c, 1, 74, 72
3, 260220, Note_on_c, 1, 74, 0
3, 260220, Note_on_c, 1, 72, 40
3, 260280, Note_on_c, 1, 72, 0
3, 260280, Note_on_c, 1, 71, 71
3, 260340, Note_on_c, 1, 71, 0
3, 260400, Note_on_c, 1, 71, 57
3, 260460, Note_on_c, 1, 71, 0
3, 260520, Note_on_c, 1, 76, 67
3, 260520, Note_on_c, 1, 79, 58
3, 260640, Note_on_c, 1, 79, 0
3, 260640, Note_on_c, 1, 76, 0
3, 260640, Note_on_c, 1, 79, 49
3, 260640, Note_on_c, 1, 76, 64
3, 260700, Note_on_c, 1, 76, 0
3, 260700, Note_on_c, 1, 79, 0
3, 260700, Note_on_c, 1, 77, 68
3, 260700, Note_on_c, 1, 74, 58
3, 260760, Note_on_c, 1, 74, 0
3, 260760, Note_on_c, 1, 77, 0
3, 260760, Note_on_c, 1, 76, 71
3, 260820, Note_on_c, 1, 76, 0
3, 260880, Note_on_c, 1, 76, 69
3, 260940, Note_on_c, 1, 76, 0
3, 261000, Note_on_c, 1, 76, 61
3, 261000, Note_on_c, 1, 72, 43
3, 261060, Note_on_c, 1, 72, 0
3, 261060, Note_on_c, 1, 76, 0
3, 261120, Note_on_c, 1, 76, 68
3, 261180, Note_on_c, 1, 76, 0
3, 261180, Note_on_c, 1, 74, 72
3, 261180, Note_on_c, 1, 71, 68
3, 261240, Note_on_c, 1, 71, 0
3, 261240, Note_on_c, 1, 74, 0
3, 261240, Note_on_c, 1, 72, 29
3, 261240, Note_on_c, 1, 67, 68
3, 261300, Note_on_c, 1, 67, 0
3, 261300, Note_on_c, 1, 72, 0
3, 261360, Note_on_c, 1, 72, 40
3, 261360, Note_on_c, 1, 67, 65
3, 261420, Note_on_c, 1, 67, 0
3, 261420, Note_on_c, 1, 72, 0
3, 261480, Note_on_c, 1, 72, 43
3, 261480, Note_on_c, 1, 67, 68
3, 261540, Note_on_c, 1, 67, 0
3, 261540, Note_on_c, 1, 72, 0
3, 261600, Note_on_c, 1, 74, 68
3, 261600, Note_on_c, 1, 69, 73
3, 261840, Note_on_c, 1, 69, 0
3, 261840, Note_on_c, 1, 74, 0
3, 261840, Note_on_c, 1, 65, 64
3, 261840, Note_on_c, 1, 71, 69
3, 262080, Note_on_c, 1, 71, 0
3, 262080, Note_on_c, 1, 65, 0
3, 262080, Note_on_c, 1, 72, 43
3, 262080, Note_on_c, 1, 64, 68
3, 262320, Note_on_c, 1, 64, 0
3, 262320, Note_on_c, 1, 72, 0
3, 281160, Note_on_c, 1, 72, 58
3, 281160, Note_on_c, 1, 67, 64
3, 281280, Note_on_c, 1, 67, 0
3, 281280, Note_on_c, 1, 72, 0
3, 281280, Note_on_c, 1, 71, 59
3, 281280, Note_on_c, 1, 74, 45
3, 281520, Note_on_c, 1, 76, 81
3, 281560, Note_on_c, 1, 76, 0
3, 281560, Note_on_c, 1, 74, 71
3, 281600, Note_on_c, 1, 74, 0
3, 281600, Note_on_c, 1, 73, 46
3, 281640, Note_on_c, 1, 73, 0
3, 281640, Note_on_c, 1, 74, 44
3, 281700, Note_on_c, 1, 74, 0
3, 281700, Note_on_c, 1, 76, 52
3, 281760, Note_on_c, 1, 76, 0
3, 281760, Note_on_c, 1, 74, 0
3, 281760, Note_on_c, 1, 71, 0
3, 281760, Note_on_c, 1, 72, 41
3, 281760, Note_on_c, 1, 67, 45
3, 282480, Note_on_c, 1, 67, 0
3, 282480, Note_on_c, 1, 72, 0
3, 282600, Note_on_c, 1, 76, 104
3, 282600, Note_on_c, 1, 72, 84
3, 282720, Note_on_c, 1, 72, 0
3, 282720, Note_on_c, 1, 76, 0
3, 282720, Note_on_c, 1, 77, 94
3, 282720, Note_on_c, 1, 74, 90
3, 283200, Note_on_c, 1, 74, 0
3, 283200, Note_on_c, 1, 77, 0
3, 283200, Note_on_c, 1, 77, 66
3, 283200, Note_on_c, 1, 74, 43
3, 283320, Note_on_c, 1, 74, 0
3, 283320, Note_on_c, 1, 77, 0
3, 283320, Note_on_c, 1, 77, 82
3, 283320, Note_on_c, 1, 74, 78
3, 283440, Note_on_c, 1, 74, 0
3, 283440, Note_on_c, 1, 77, 0
3, 283440, Note_on_c, 1, 77, 84
3, 283440, Note_on_c, 1, 74, 77
3, 283560, Note_on_c, 1, 74, 0
3, 283560, Note_on_c, 1, 77, 0
3, 283560, Note_on_c, 1, 77, 90
3, 283560, Note_on_c, 1, 74, 84
3, 283680, Note_on_c, 1, 74, 0
3, 283680, Note_on_c, 1, 77, 0
3, 283680, Note_on_c, 1, 76, 98
3, 283680, Note_on_c, 1, 72, 72
3, 283800, Note_on_c, 1, 72, 0
3, 283800, Note_on_c, 1, 76, 0
3, 283800, Note_on_c, 1, 77, 94
3, 283800, Note_on_c, 1, 74, 90
3, 283920, Note_on_c, 1, 74, 0
3, 283920, Note_on_c, 1, 77, 0
3, 283920, Note_on_c, 1, 76, 90
3, 283920, Note_on_c, 1, 72, 46
3, 284040, Note_on_c, 1, 72, 0
3, 284040, Note_on_c, 1, 76, 0
3, 284040, Note_on_c, 1, 77, 84
3, 284040, Note_on_c, 1, 74, 69
3, 284160, Note_on_c, 1, 74, 0
3, 284160, Note_on_c, 1, 77, 0
3, 284160, Note_on_c, 1, 76, 99
3, 284160, Note_on_c, 1, 72, 49
3, 284280, Note_on_c, 1, 72, 0
3, 284280, Note_on_c, 1, 76, 0
3, 284280, Note_on_c, 1, 77, 95
3, 284280, Note_on_c, 1, 74, 89
3, 284400, Note_on_c, 1, 74, 0
3, 284400, Note_on_c, 1, 77, 0
3, 284400, Note_on_c, 1, 76, 104
3, 284400, Note_on_c, 1, 72, 68
3, 284520, Note_on_c, 1, 72, 0
3, 284520, Note_on_c, 1, 76, 0
3, 284520, Note_on_c, 1, 77, 95
3, 284520, Note_on_c, 1, 74, 95
3, 284640, Note_on_c, 1, 74, 0
3, 284640, Note_on_c, 1, 77, 0
3, 284640, Note_on_c, 1, 76, 99
3, 284640, Note_on_c, 1, 72, 80
3, 284880, Note_on_c, 1, 72, 0
3, 284880, Note_on_c, 1, 76, 0
3, 284880, Note_on_c, 1, 84, 81
3, 284880, Note_on_c, 1, 76, 101
3, 285120, Note_on_c, 1, 76, 0
3, 285120, Note_on_c, 1, 84, 0
3, 285120, Note_on_c, 1, 72, 89
3, 285360, Note_on_c, 1, 72, 0
3, 285360, End_track
4, 0, Start_track
4, 0, MIDI_port, 0
4, 0, Title_t, "Clarinets"
4, 0, Program_c, 2, 71
4, 0, Control_c, 2, 7, 100
4, 0, Control_c, 2, 10, 44
4, 0, Control_c, 2, 93, 0
4, 0, Control_c, 2, 91, 66
4, 9960, Note_on_c, 2, 76, 90
4, 9960, Note_on_c, 2, 64, 93
4, 10080, Note_on_c, 2, 64, 0
4, 10080, Note_on_c, 2, 76, 0
4, 10080, Note_on_c, 2, 76, 98
4, 10080, Note_on_c, 2, 64, 99
4, 10140, Note_on_c, 2, 64, 0
4, 10140, Note_on_c, 2, 76, 0
4, 10140, Note_on_c, 2, 74, 94
4, 10140, Note_on_c, 2, 62, 94
4, 10200, Note_on_c, 2, 62, 0
4, 10200, Note_on_c, 2, 74, 0
4, 10200, Note_on_c, 2, 72, 81
4, 10200, Note_on_c, 2, 60, 95
4, 10260, Note_on_c, 2, 60, 0
4, 10260, Note_on_c, 2, 72, 0
4, 10320, Note_on_c, 2, 72, 80
4, 10320, Note_on_c, 2, 60, 98
4, 10380, Note_on_c, 2, 60, 0
4, 10380, Note_on_c, 2, 72, 0
4, 10440, Note_on_c, 2, 76, 98
4, 10440, Note_on_c, 2, 64, 99
4, 10500, Note_on_c, 2, 64, 0
4, 10500, Note_on_c, 2, 76, 0
4, 10560, Note_on_c, 2, 76, 90
4, 10560, Note_on_c, 2, 64, 94
4, 10620, Note_on_c, 2, 64, 0
4, 10620, Note_on_c, 2, 76, 0
4, 10620, Note_on_c, 2, 74, 98
4, 10620, Note_on_c, 2, 62, 93
4, 10680, Note_on_c, 2, 62, 0
4, 10680, Note_on_c, 2, 74, 0
4, 10680, Note_on_c, 2, 72, 81
4, 10680, Note_on_c, 2, 60, 94
4, 10740, Note_on_c, 2, 60, 0
4, 10740, Note_on_c, 2, 72, 0
4, 10800, Note_on_c, 2, 72, 72
4, 10800, Note_on_c, 2, 60, 95
4, 10860, Note_on_c, 2, 60, 0
4, 10860, Note_on_c, 2, 72, 0
4, 10920, Note_on_c, 2, 76, 94
4, 10920, Note_on_c, 2, 64, 99
4, 10980, Note_on_c, 2, 64, 0
4, 10980, Note_on_c, 2, 76, 0
4, 11040, Note_on_c, 2, 76, 94
4, 11040, Note_on_c, 2, 64, 99
4, 11100, Note_on_c, 2, 64, 0
4, 11100, Note_on_c, 2, 76, 0
4, 11100, Note_on_c, 2, 74, 98
4, 11100, Note_on_c, 2, 62, 94
4, 11160, Note_on_c, 2, 62, 0
4, 11160, Note_on_c, 2, 74, 0
4, 11160, Note_on_c, 2, 72, 81
4, 11160, Note_on_c, 2, 60, 95
4, 11220, Note_on_c, 2, 60, 0
4, 11220, Note_on_c, 2, 72, 0
4, 11280, Note_on_c, 2, 72, 81
4, 11280, Note_on_c, 2, 60, 99
4, 11340, Note_on_c, 2, 60, 0
4, 11340, Note_on_c, 2, 72, 0
4, 11340, Note_on_c, 2, 71, 93
4, 11340, Note_on_c, 2, 59, 98
4, 11400, Note_on_c, 2, 59, 0
4, 11400, Note_on_c, 2, 71, 0
4, 11400, Note_on_c, 2, 69, 99
4, 11400, Note_on_c, 2, 57, 104
4, 11460, Note_on_c, 2, 57, 0
4, 11460, Note_on_c, 2, 69, 0
4, 11520, Note_on_c, 2, 67, 84
4, 11520, Note_on_c, 2, 55, 94
4, 11580, Note_on_c, 2, 55, 0
4, 11580, Note_on_c, 2, 67, 0
4, 11640, Note_on_c, 2, 71, 86
4, 11640, Note_on_c, 2, 67, 94
4, 11700, Note_on_c, 2, 67, 0
4, 11700, Note_on_c, 2, 71, 0
4, 11760, Note_on_c, 2, 72, 72
4, 11760, Note_on_c, 2, 69, 95
4, 11820, Note_on_c, 2, 69, 0
4, 11820, Note_on_c, 2, 72, 0
4, 11880, Note_on_c, 2, 69, 72
4, 11880, Note_on_c, 2, 66, 89
4, 11940, Note_on_c, 2, 66, 0
4, 11940, Note_on_c, 2, 69, 0
4, 12000, Note_on_c, 2, 71, 90
4, 12000, Note_on_c, 2, 67, 94
4, 12060, Note_on_c, 2, 67, 0
4, 12060, Note_on_c, 2, 71, 0
4, 12120, Note_on_c, 2, 71, 89
4, 12120, Note_on_c, 2, 67, 90
4, 12180, Note_on_c, 2, 67, 0
4, 12180, Note_on_c, 2, 71, 0
4, 12240, Note_on_c, 2, 72, 81
4, 12240, Note_on_c, 2, 69, 98
4, 12300, Note_on_c, 2, 69, 0
4, 12300, Note_on_c, 2, 72, 0
4, 12360, Note_on_c, 2, 69, 78
4, 12360, Note_on_c, 2, 66, 90
4, 12420, Note_on_c, 2, 66, 0
4, 12420, Note_on_c, 2, 69, 0
4, 12480, Note_on_c, 2, 71, 82
4, 12480, Note_on_c, 2, 67, 89
4, 12840, Note_on_c, 2, 67, 0
4, 12840, Note_on_c, 2, 71, 0
4, 12840, Note_on_c, 2, 67, 95
4, 12960, Note_on_c, 2, 67, 0
4, 12960, Note_on_c, 2, 67, 95
4, 13020, Note_on_c, 2, 67, 0
4, 13020, Note_on_c, 2, 69, 99
4, 13080, Note_on_c, 2, 69, 0
4, 13080, Note_on_c, 2, 71, 104
4, 13140, Note_on_c, 2, 71, 0
4, 13200, Note_on_c, 2, 71, 99
4, 13200, Note_on_c, 2, 67, 85
4, 13260, Note_on_c, 2, 67, 0
4, 13260, Note_on_c, 2, 71, 0
4, 13260, Note_on_c, 2, 72, 80
4, 13260, Note_on_c, 2, 69, 89
4, 13320, Note_on_c, 2, 69, 0
4, 13320, Note_on_c, 2, 72, 0
4, 13320, Note_on_c, 2, 74, 98
4, 13320, Note_on_c, 2, 71, 84
4, 13380, Note_on_c, 2, 71, 0
4, 13380, Note_on_c, 2, 74, 0
4, 13440, Note_on_c, 2, 74, 86
4, 13440, Note_on_c, 2, 71, 84
4, 13800, Note_on_c, 2, 71, 0
4, 13800, Note_on_c, 2, 74, 0
4, 13800, Note_on_c, 2, 71, 101
4, 13800, Note_on_c, 2, 67, 77
4, 13920, Note_on_c, 2, 67, 0
4, 13920, Note_on_c, 2, 71, 0
4, 13920, Note_on_c, 2, 71, 99
4, 13920, Note_on_c, 2, 67, 89
4, 13980, Note_on_c, 2, 67, 0
4, 13980, Note_on_c, 2, 71, 0
4, 13980, Note_on_c, 2, 72, 80
4, 13980, Note_on_c, 2, 69, 85
4, 14040, Note_on_c, 2, 69, 0
4, 14040, Note_on_c, 2, 72, 0
4, 14040, Note_on_c, 2, 74, 94
4, 14040, Note_on_c, 2, 71, 89
4, 14100, Note_on_c, 2, 71, 0
4, 14100, Note_on_c, 2, 74, 0
4, 14160, Note_on_c, 2, 74, 104
4, 14160, Note_on_c, 2, 71, 86
4, 14220, Note_on_c, 2, 71, 0
4, 14220, Note_on_c, 2, 74, 0
4, 14220, Note_on_c, 2, 76, 98
4, 14220, Note_on_c, 2, 72, 73
4, 14280, Note_on_c, 2, 72, 0
4, 14280, Note_on_c, 2, 76, 0
4, 14280, Note_on_c, 2, 77, 93
4, 14280, Note_on_c, 2, 74, 93
4, 14340, Note_on_c, 2, 74, 0
4, 14340, Note_on_c, 2, 77, 0
4, 14400, Note_on_c, 2, 77, 90
4, 14400, Note_on_c, 2, 74, 94
4, 14760, Note_on_c, 2, 74, 0
4, 14760, Note_on_c, 2, 77, 0
4, 14760, Note_on_c, 2, 69, 90
4, 14760, Note_on_c, 2, 65, 42
4, 14880, Note_on_c, 2, 65, 0
4, 14880, Note_on_c, 2, 69, 0
4, 14880, Note_on_c, 2, 69, 93
4, 14880, Note_on_c, 2, 65, 78
4, 14940, Note_on_c, 2, 65, 0
4, 14940, Note_on_c, 2, 69, 0
4, 14940, Note_on_c, 2, 67, 94
4, 14940, Note_on_c, 2, 64, 85
4, 15000, Note_on_c, 2, 64, 0
4, 15000, Note_on_c, 2, 67, 0
4, 15000, Note_on_c, 2, 65, 119
4, 15000, Note_on_c, 2, 62, 125
4, 15060, Note_on_c, 2, 62, 0
4, 15060, Note_on_c, 2, 65, 0
4, 15120, Note_on_c, 2, 65, 90
4, 15120, Note_on_c, 2, 62, 99
4, 15180, Note_on_c, 2, 62, 0
4, 15180, Note_on_c, 2, 65, 0
4, 15240, Note_on_c, 2, 69, 90
4, 15240, Note_on_c, 2, 65, 80
4, 15300, Note_on_c, 2, 65, 0
4, 15300, Note_on_c, 2, 69, 0
4, 15360, Note_on_c, 2, 69, 94
4, 15360, Note_on_c, 2, 65, 82
4, 15420, Note_on_c, 2, 65, 0
4, 15420, Note_on_c, 2, 69, 0
4, 15420, Note_on_c, 2, 67, 89
4, 15420, Note_on_c, 2, 64, 84
4, 15480, Note_on_c, 2, 64, 0
4, 15480, Note_on_c, 2, 67, 0
4, 15480, Note_on_c, 2, 65, 117
4, 15480, Note_on_c, 2, 62, 119
4, 15540, Note_on_c, 2, 62, 0
4, 15540, Note_on_c, 2, 65, 0
4, 15600, Note_on_c, 2, 65, 86
4, 15600, Note_on_c, 2, 62, 84
4, 15660, Note_on_c, 2, 62, 0
4, 15660, Note_on_c, 2, 65, 0
4, 15720, Note_on_c, 2, 69, 90
4, 15720, Note_on_c, 2, 65, 76
4, 15780, Note_on_c, 2, 65, 0
4, 15780, Note_on_c, 2, 69, 0
4, 15840, Note_on_c, 2, 69, 95
4, 15840, Note_on_c, 2, 65, 89
4, 15900, Note_on_c, 2, 65, 0
4, 15900, Note_on_c, 2, 69, 0
4, 15900, Note_on_c, 2, 67, 93
4, 15900, Note_on_c, 2, 64, 89
4, 15960, Note_on_c, 2, 64, 0
4, 15960, Note_on_c, 2, 67, 0
4, 15960, Note_on_c, 2, 65, 93
4, 15960, Note_on_c, 2, 62, 94
4, 16020, Note_on_c, 2, 62, 0
4, 16020, Note_on_c, 2, 65, 0
4, 16080, Note_on_c, 2, 65, 94
4, 16080, Note_on_c, 2, 60, 93
4, 16140, Note_on_c, 2, 65, 0
4, 16140, Note_on_c, 2, 64, 104
4, 16200, Note_on_c, 2, 64, 0
4, 16200, Note_on_c, 2, 60, 0
4, 16200, Note_on_c, 2, 62, 104
4, 16260, Note_on_c, 2, 62, 0
4, 16320, Note_on_c, 2, 72, 81
4, 16320, Note_on_c, 2, 64, 104
4, 16380, Note_on_c, 2, 64, 0
4, 16380, Note_on_c, 2, 72, 0
4, 16440, Note_on_c, 2, 72, 68
4, 16440, Note_on_c, 2, 64, 95
4, 16500, Note_on_c, 2, 64, 0
4, 16500, Note_on_c, 2, 72, 0
4, 16560, Note_on_c, 2, 74, 99
4, 16560, Note_on_c, 2, 65, 101
4, 16620, Note_on_c, 2, 65, 0
4, 16620, Note_on_c, 2, 74, 0
4, 16680, Note_on_c, 2, 71, 105
4, 16680, Note_on_c, 2, 65, 93
4, 16740, Note_on_c, 2, 65, 0
4, 16740, Note_on_c, 2, 71, 0
4, 16800, Note_on_c, 2, 60, 78
4, 16860, Note_on_c, 2, 60, 0
4, 16860, Note_on_c, 2, 62, 104
4, 16920, Note_on_c, 2, 62, 0
4, 16920, Note_on_c, 2, 64, 101
4, 16980, Note_on_c, 2, 64, 0
4, 16980, Note_on_c, 2, 65, 95
4, 17040, Note_on_c, 2, 65, 0
4, 17040, Note_on_c, 2, 67, 86
4, 17100, Note_on_c, 2, 67, 0
4, 17100, Note_on_c, 2, 69, 95
4, 17160, Note_on_c, 2, 69, 0
4, 17160, Note_on_c, 2, 71, 98
4, 17220, Note_on_c, 2, 71, 0
4, 17220, Note_on_c, 2, 72, 95
4, 17280, Note_on_c, 2, 72, 0
4, 17280, Note_on_c, 2, 74, 98
4, 17280, Note_on_c, 2, 62, 99
4, 17340, Note_on_c, 2, 62, 0
4, 17340, Note_on_c, 2, 74, 0
4, 17400, Note_on_c, 2, 76, 104
4, 17400, Note_on_c, 2, 64, 99
4, 17460, Note_on_c, 2, 64, 0
4, 17460, Note_on_c, 2, 76, 0
4, 17520, Note_on_c, 2, 77, 94
4, 17520, Note_on_c, 2, 65, 99
4, 17580, Note_on_c, 2, 65, 0
4, 17580, Note_on_c, 2, 77, 0
4, 17640, Note_on_c, 2, 71, 99
4, 17700, Note_on_c, 2, 71, 0
4, 17760, Note_on_c, 2, 72, 125
4, 17820, Note_on_c, 2, 72, 0
4, 17820, Note_on_c, 2, 71, 117
4, 17880, Note_on_c, 2, 71, 0
4, 17880, Note_on_c, 2, 69, 119
4, 17940, Note_on_c, 2, 69, 0
4, 17940, Note_on_c, 2, 67, 123
4, 18000, Note_on_c, 2, 67, 0
4, 18000, Note_on_c, 2, 65, 119
4, 18060, Note_on_c, 2, 65, 0
4, 18060, Note_on_c, 2, 64, 119
4, 18120, Note_on_c, 2, 64, 0
4, 18120, Note_on_c, 2, 62, 119
4, 18180, Note_on_c, 2, 62, 0
4, 18180, Note_on_c, 2, 60, 110
4, 18240, Note_on_c, 2, 60, 0
4, 18240, Note_on_c, 2, 71, 110
4, 18240, Note_on_c, 2, 62, 112
4, 18300, Note_on_c, 2, 62, 0
4, 18300, Note_on_c, 2, 71, 0
4, 18360, Note_on_c, 2, 72, 99
4, 18360, Note_on_c, 2, 64, 112
4, 18420, Note_on_c, 2, 64, 0
4, 18420, Note_on_c, 2, 72, 0
4, 18480, Note_on_c, 2, 74, 112
4, 18480, Note_on_c, 2, 65, 119
4, 18540, Note_on_c, 2, 65, 0
4, 18540, Note_on_c, 2, 74, 0
4, 18600, Note_on_c, 2, 71, 107
4, 18600, Note_on_c, 2, 65, 117
4, 18660, Note_on_c, 2, 65, 0
4, 18660, Note_on_c, 2, 71, 0
4, 18720, Note_on_c, 2, 72, 98
4, 18720, Note_on_c, 2, 64, 112
4, 18780, Note_on_c, 2, 64, 0
4, 18780, Note_on_c, 2, 72, 0
4, 18840, Note_on_c, 2, 74, 112
4, 18840, Note_on_c, 2, 65, 115
4, 18900, Note_on_c, 2, 65, 0
4, 18900, Note_on_c, 2, 74, 0
4, 18960, Note_on_c, 2, 72, 104
4, 18960, Note_on_c, 2, 64, 117
4, 19020, Note_on_c, 2, 64, 0
4, 19020, Note_on_c, 2, 72, 0
4, 19080, Note_on_c, 2, 74, 112
4, 19080, Note_on_c, 2, 65, 112
4, 19140, Note_on_c, 2, 65, 0
4, 19140, Note_on_c, 2, 74, 0
4, 19200, Note_on_c, 2, 72, 105
4, 19200, Note_on_c, 2, 64, 119
4, 19440, Note_on_c, 2, 64, 0
4, 19440, Note_on_c, 2, 72, 0
4, 19560, Note_on_c, 2, 67, 80
4, 19560, Note_on_c, 2, 55, 82
4, 19680, Note_on_c, 2, 55, 0
4, 19680, Note_on_c, 2, 67, 0
4, 19680, Note_on_c, 2, 72, 67
4, 19680, Note_on_c, 2, 60, 81
4, 19740, Note_on_c, 2, 60, 0
4, 19740, Note_on_c, 2, 72, 0
4, 19800, Note_on_c, 2, 72, 57
4, 19800, Note_on_c, 2, 60, 80
4, 19860, Note_on_c, 2, 60, 0
4, 19860, Note_on_c, 2, 72, 0
4, 19920, Note_on_c, 2, 72, 53
4, 19920, Note_on_c, 2, 60, 80
4, 19980, Note_on_c, 2, 60, 0
4, 19980, Note_on_c, 2, 72, 0
4, 20040, Note_on_c, 2, 67, 69
4, 20040, Note_on_c, 2, 55, 84
4, 20100, Note_on_c, 2, 55, 0
4, 20100, Note_on_c, 2, 67, 0
4, 20160, Note_on_c, 2, 76, 94
4, 20160, Note_on_c, 2, 64, 86
4, 20520, Note_on_c, 2, 64, 0
4, 20520, Note_on_c, 2, 76, 0
4, 20520, Note_on_c, 2, 72, 80
4, 20520, Note_on_c, 2, 60, 99
4, 20640, Note_on_c, 2, 60, 0
4, 20640, Note_on_c, 2, 72, 0
4, 20640, Note_on_c, 2, 79, 84
4, 20640, Note_on_c, 2, 67, 86
4, 20700, Note_on_c, 2, 67, 0
4, 20700, Note_on_c, 2, 79, 0
4, 20760, Note_on_c, 2, 79, 82
4, 20760, Note_on_c, 2, 67, 89
4, 20820, Note_on_c, 2, 67, 0
4, 20820, Note_on_c, 2, 79, 0
4, 20880, Note_on_c, 2, 79, 80
4, 20880, Note_on_c, 2, 67, 84
4, 20940, Note_on_c, 2, 67, 0
4, 20940, Note_on_c, 2, 79, 0
4, 21000, Note_on_c, 2, 76, 94
4, 21000, Note_on_c, 2, 64, 86
4, 21060, Note_on_c, 2, 64, 0
4, 21060, Note_on_c, 2, 76, 0
4, 21120, Note_on_c, 2, 72, 69
4, 21120, Note_on_c, 2, 60, 82
4, 21360, Note_on_c, 2, 60, 0
4, 21360, Note_on_c, 2, 72, 0
4, 31680, Note_on_c, 2, 62, 81
4, 31680, Note_on_c, 2, 71, 60
4, 32160, Note_on_c, 2, 71, 0
4, 32160, Note_on_c, 2, 72, 44
4, 32640, Note_on_c, 2, 72, 0
4, 32640, Note_on_c, 2, 62, 0
4, 32640, Note_on_c, 2, 74, 73
4, 32640, Note_on_c, 2, 62, 72
4, 33360, Note_on_c, 2, 62, 0
4, 33360, Note_on_c, 2, 74, 0
4, 33840, Note_on_c, 2, 72, 29
4, 33840, Note_on_c, 2, 69, 73
4, 33900, Note_on_c, 2, 69, 0
4, 33900, Note_on_c, 2, 72, 0
4, 33960, Note_on_c, 2, 72, 45
4, 33960, Note_on_c, 2, 69, 64
4, 34020, Note_on_c, 2, 69, 0
4, 34020, Note_on_c, 2, 72, 0
4, 34320, Note_on_c, 2, 71, 68
4, 34320, Note_on_c, 2, 67, 66
4, 34380, Note_on_c, 2, 67, 0
4, 34380, Note_on_c, 2, 71, 0
4, 34440, Note_on_c, 2, 71, 69
4, 34440, Note_on_c, 2, 67, 39
4, 34500, Note_on_c, 2, 67, 0
4, 34500, Note_on_c, 2, 71, 0
4, 34560, Note_on_c, 2, 64, 65
4, 34800, Note_on_c, 2, 64, 0
4, 34800, Note_on_c, 2, 64, 72
4, 35040, Note_on_c, 2, 64, 0
4, 35040, Note_on_c, 2, 69, 64
4, 35280, Note_on_c, 2, 69, 0
4, 82440, Note_on_c, 2, 76, 90
4, 82440, Note_on_c, 2, 64, 93
4, 82560, Note_on_c, 2, 64, 0
4, 82560, Note_on_c, 2, 76, 0
4, 82560, Note_on_c, 2, 76, 98
4, 82560, Note_on_c, 2, 64, 99
4, 82620, Note_on_c, 2, 64, 0
4, 82620, Note_on_c, 2, 76, 0
4, 82620, Note_on_c, 2, 74, 94
4, 82620, Note_on_c, 2, 62, 94
4, 82680, Note_on_c, 2, 62, 0
4, 82680, Note_on_c, 2, 74, 0
4, 82680, Note_on_c, 2, 72, 81
4, 82680, Note_on_c, 2, 60, 95
4, 82740, Note_on_c, 2, 60, 0
4, 82740, Note_on_c, 2, 72, 0
4, 82800, Note_on_c, 2, 72, 80
4, 82800, Note_on_c, 2, 60, 98
4, 82860, Note_on_c, 2, 60, 0
4, 82860, Note_on_c, 2, 72, 0
4, 82920, Note_on_c, 2, 76, 98
4, 82920, Note_on_c, 2, 64, 99
4, 82980, Note_on_c, 2, 64, 0
4, 82980, Note_on_c, 2, 76, 0
4, 83040, Note_on_c, 2, 76, 90
4, 83040, Note_on_c, 2, 64, 94
4, 83100, Note_on_c, 2, 64, 0
4, 83100, Note_on_c, 2, 76, 0
4, 83100, Note_on_c, 2, 74, 98
4, 83100, Note_on_c, 2, 62, 93
4, 83160, Note_on_c, 2, 62, 0
4, 83160, Note_on_c, 2, 74, 0
4, 83160, Note_on_c, 2, 72, 81
4, 83160, Note_on_c, 2, 60, 94
4, 83220, Note_on_c, 2, 60, 0
4, 83220, Note_on_c, 2, 72, 0
4, 83280, Note_on_c, 2, 72, 72
4, 83280, Note_on_c, 2, 60, 95
4, 83340, Note_on_c, 2, 60, 0
4, 83340, Note_on_c, 2, 72, 0
4, 83400, Note_on_c, 2, 76, 94
4, 83400, Note_on_c, 2, 64, 99
4, 83460, Note_on_c, 2, 64, 0
4, 83460, Note_on_c, 2, 76, 0
4, 83520, Note_on_c, 2, 76, 94
4, 83520, Note_on_c, 2, 64, 99
4, 83580, Note_on_c, 2, 64, 0
4, 83580, Note_on_c, 2, 76, 0
4, 83580, Note_on_c, 2, 74, 98
4, 83580, Note_on_c, 2, 62, 94
4, 83640, Note_on_c, 2, 62, 0
4, 83640, Note_on_c, 2, 74, 0
4, 83640, Note_on_c, 2, 72, 81
4, 83640, Note_on_c, 2, 60, 95
4, 83700, Note_on_c, 2, 60, 0
4, 83700, Note_on_c, 2, 72, 0
4, 83760, Note_on_c, 2, 72, 81
4, 83760, Note_on_c, 2, 60, 99
4, 83820, Note_on_c, 2, 60, 0
4, 83820, Note_on_c, 2, 72, 0
4, 83820, Note_on_c, 2, 71, 93
4, 83820, Note_on_c, 2, 59, 98
4, 83880, Note_on_c, 2, 59, 0
4, 83880, Note_on_c, 2, 71, 0
4, 83880, Note_on_c, 2, 69, 99
4, 83880, Note_on_c, 2, 57, 104
4, 83940, Note_on_c, 2, 57, 0
4, 83940, Note_on_c, 2, 69, 0
4, 84000, Note_on_c, 2, 67, 84
4, 84000, Note_on_c, 2, 55, 94
4, 84060, Note_on_c, 2, 55, 0
4, 84060, Note_on_c, 2, 67, 0
4, 84120, Note_on_c, 2, 71, 86
4, 84120, Note_on_c, 2, 67, 94
4, 84180, Note_on_c, 2, 67, 0
4, 84180, Note_on_c, 2, 71, 0
4, 84240, Note_on_c, 2, 72, 72
4, 84240, Note_on_c, 2, 69, 95
4, 84300, Note_on_c, 2, 69, 0
4, 84300, Note_on_c, 2, 72, 0
4, 84360, Note_on_c, 2, 69, 72
4, 84360, Note_on_c, 2, 66, 89
4, 84420, Note_on_c, 2, 66, 0
4, 84420, Note_on_c, 2, 69, 0
4, 84480, Note_on_c, 2, 71, 90
4, 84480, Note_on_c, 2, 67, 94
4, 84540, Note_on_c, 2, 67, 0
4, 84540, Note_on_c, 2, 71, 0
4, 84600, Note_on_c, 2, 71, 89
4, 84600, Note_on_c, 2, 67, 90
4, 84660, Note_on_c, 2, 67, 0
4, 84660, Note_on_c, 2, 71, 0
4, 84720, Note_on_c, 2, 72, 81
4, 84720, Note_on_c, 2, 69, 98
4, 84780, Note_on_c, 2, 69, 0
4, 84780, Note_on_c, 2, 72, 0
4, 84840, Note_on_c, 2, 69, 78
4, 84840, Note_on_c, 2, 66, 90
4, 84900, Note_on_c, 2, 66, 0
4, 84900, Note_on_c, 2, 69, 0
4, 84960, Note_on_c, 2, 71, 82
4, 84960, Note_on_c, 2, 67, 89
4, 85320, Note_on_c, 2, 67, 0
4, 85320, Note_on_c, 2, 71, 0
4, 85320, Note_on_c, 2, 67, 95
4, 85440, Note_on_c, 2, 67, 0
4, 85440, Note_on_c, 2, 67, 95
4, 85500, Note_on_c, 2, 67, 0
4, 85500, Note_on_c, 2, 69, 99
4, 85560, Note_on_c, 2, 69, 0
4, 85560, Note_on_c, 2, 71, 104
4, 85620, Note_on_c, 2, 71, 0
4, 85680, Note_on_c, 2, 71, 99
4, 85680, Note_on_c, 2, 67, 85
4, 85740, Note_on_c, 2, 67, 0
4, 85740, Note_on_c, 2, 71, 0
4, 85740, Note_on_c, 2, 72, 80
4, 85740, Note_on_c, 2, 69, 89
4, 85800, Note_on_c, 2, 69, 0
4, 85800, Note_on_c, 2, 72, 0
4, 85800, Note_on_c, 2, 74, 98
4, 85800, Note_on_c, 2, 71, 84
4, 85860, Note_on_c, 2, 71, 0
4, 85860, Note_on_c, 2, 74, 0
4, 85920, Note_on_c, 2, 74, 93
4, 85920, Note_on_c, 2, 71, 82
4, 86280, Note_on_c, 2, 71, 0
4, 86280, Note_on_c, 2, 74, 0
4, 86280, Note_on_c, 2, 71, 101
4, 86280, Note_on_c, 2, 67, 77
4, 86400, Note_on_c, 2, 67, 0
4, 86400, Note_on_c, 2, 71, 0
4, 86400, Note_on_c, 2, 71, 99
4, 86400, Note_on_c, 2, 67, 89
4, 86460, Note_on_c, 2, 67, 0
4, 86460, Note_on_c, 2, 71, 0
4, 86460, Note_on_c, 2, 72, 80
4, 86460, Note_on_c, 2, 69, 85
4, 86520, Note_on_c, 2, 69, 0
4, 86520, Note_on_c, 2, 72, 0
4, 86520, Note_on_c, 2, 74, 94
4, 86520, Note_on_c, 2, 71, 89
4, 86580, Note_on_c, 2, 71, 0
4, 86580, Note_on_c, 2, 74, 0
4, 86640, Note_on_c, 2, 74, 104
4, 86640, Note_on_c, 2, 71, 86
4, 86700, Note_on_c, 2, 71, 0
4, 86700, Note_on_c, 2, 74, 0
4, 86700, Note_on_c, 2, 76, 98
4, 86700, Note_on_c, 2, 72, 73
4, 86760, Note_on_c, 2, 72, 0
4, 86760, Note_on_c, 2, 76, 0
4, 86760, Note_on_c, 2, 77, 93
4, 86760, Note_on_c, 2, 74, 93
4, 86820, Note_on_c, 2, 74, 0
4, 86820, Note_on_c, 2, 77, 0
4, 86880, Note_on_c, 2, 77, 89
4, 86880, Note_on_c, 2, 74, 94
4, 87240, Note_on_c, 2, 74, 0
4, 87240, Note_on_c, 2, 77, 0
4, 87240, Note_on_c, 2, 69, 90
4, 87240, Note_on_c, 2, 65, 42
4, 87360, Note_on_c, 2, 65, 0
4, 87360, Note_on_c, 2, 69, 0
4, 87360, Note_on_c, 2, 69, 93
4, 87360, Note_on_c, 2, 65, 78
4, 87420, Note_on_c, 2, 65, 0
4, 87420, Note_on_c, 2, 69, 0
4, 87420, Note_on_c, 2, 67, 94
4, 87420, Note_on_c, 2, 64, 85
4, 87480, Note_on_c, 2, 64, 0
4, 87480, Note_on_c, 2, 67, 0
4, 87480, Note_on_c, 2, 65, 119
4, 87480, Note_on_c, 2, 62, 125
4, 87540, Note_on_c, 2, 62, 0
4, 87540, Note_on_c, 2, 65, 0
4, 87600, Note_on_c, 2, 65, 90
4, 87600, Note_on_c, 2, 62, 99
4, 87660, Note_on_c, 2, 62, 0
4, 87660, Note_on_c, 2, 65, 0
4, 87720, Note_on_c, 2, 69, 90
4, 87720, Note_on_c, 2, 65, 80
4, 87780, Note_on_c, 2, 65, 0
4, 87780, Note_on_c, 2, 69, 0
4, 87840, Note_on_c, 2, 69, 94
4, 87840, Note_on_c, 2, 65, 82
4, 87900, Note_on_c, 2, 65, 0
4, 87900, Note_on_c, 2, 69, 0
4, 87900, Note_on_c, 2, 67, 89
4, 87900, Note_on_c, 2, 64, 84
4, 87960, Note_on_c, 2, 64, 0
4, 87960, Note_on_c, 2, 67, 0
4, 87960, Note_on_c, 2, 65, 117
4, 87960, Note_on_c, 2, 62, 119
4, 88020, Note_on_c, 2, 62, 0
4, 88020, Note_on_c, 2, 65, 0
4, 88080, Note_on_c, 2, 65, 86
4, 88080, Note_on_c, 2, 62, 84
4, 88140, Note_on_c, 2, 62, 0
4, 88140, Note_on_c, 2, 65, 0
4, 88200, Note_on_c, 2, 69, 90
4, 88200, Note_on_c, 2, 65, 76
4, 88260, Note_on_c, 2, 65, 0
4, 88260, Note_on_c, 2, 69, 0
4, 88320, Note_on_c, 2, 69, 95
4, 88320, Note_on_c, 2, 65, 89
4, 88380, Note_on_c, 2, 65, 0
4, 88380, Note_on_c, 2, 69, 0
4, 88380, Note_on_c, 2, 67, 93
4, 88380, Note_on_c, 2, 64, 89
4, 88440, Note_on_c, 2, 64, 0
4, 88440, Note_on_c, 2, 67, 0
4, 88440, Note_on_c, 2, 65, 93
4, 88440, Note_on_c, 2, 62, 94
4, 88500, Note_on_c, 2, 62, 0
4, 88500, Note_on_c, 2, 65, 0
4, 88560, Note_on_c, 2, 65, 94
4, 88560, Note_on_c, 2, 60, 93
4, 88620, Note_on_c, 2, 65, 0
4, 88620, Note_on_c, 2, 64, 104
4, 88680, Note_on_c, 2, 64, 0
4, 88680, Note_on_c, 2, 60, 0
4, 88680, Note_on_c, 2, 62, 104
4, 88740, Note_on_c, 2, 62, 0
4, 88800, Note_on_c, 2, 72, 81
4, 88800, Note_on_c, 2, 64, 104
4, 88860, Note_on_c, 2, 64, 0
4, 88860, Note_on_c, 2, 72, 0
4, 88920, Note_on_c, 2, 72, 68
4, 88920, Note_on_c, 2, 64, 95
4, 88980, Note_on_c, 2, 64, 0
4, 88980, Note_on_c, 2, 72, 0
4, 89040, Note_on_c, 2, 74, 99
4, 89040, Note_on_c, 2, 65, 101
4, 89100, Note_on_c, 2, 65, 0
4, 89100, Note_on_c, 2, 74, 0
4, 89160, Note_on_c, 2, 71, 105
4, 89160, Note_on_c, 2, 65, 93
4, 89220, Note_on_c, 2, 65, 0
4, 89220, Note_on_c, 2, 71, 0
4, 89280, Note_on_c, 2, 60, 78
4, 89340, Note_on_c, 2, 60, 0
4, 89340, Note_on_c, 2, 62, 104
4, 89400, Note_on_c, 2, 62, 0
4, 89400, Note_on_c, 2, 64, 101
4, 89460, Note_on_c, 2, 64, 0
4, 89460, Note_on_c, 2, 65, 95
4, 89520, Note_on_c, 2, 65, 0
4, 89520, Note_on_c, 2, 67, 86
4, 89580, Note_on_c, 2, 67, 0
4, 89580, Note_on_c, 2, 69, 95
4, 89640, Note_on_c, 2, 69, 0
4, 89640, Note_on_c, 2, 71, 98
4, 89700, Note_on_c, 2, 71, 0
4, 89700, Note_on_c, 2, 72, 95
4, 89760, Note_on_c, 2, 72, 0
4, 89760, Note_on_c, 2, 74, 98
4, 89760, Note_on_c, 2, 62, 99
4, 89820, Note_on_c, 2, 62, 0
4, 89820, Note_on_c, 2, 74, 0
4, 89880, Note_on_c, 2, 76, 104
4, 89880, Note_on_c, 2, 64, 99
4, 89940, Note_on_c, 2, 64, 0
4, 89940, Note_on_c, 2, 76, 0
4, 90000, Note_on_c, 2, 77, 94
4, 90000, Note_on_c, 2, 65, 99
4, 90060, Note_on_c, 2, 65, 0
4, 90060, Note_on_c, 2, 77, 0
4, 90120, Note_on_c, 2, 71, 99
4, 90180, Note_on_c, 2, 71, 0
4, 90240, Note_on_c, 2, 72, 125
4, 90300, Note_on_c, 2, 72, 0
4, 90300, Note_on_c, 2, 71, 117
4, 90360, Note_on_c, 2, 71, 0
4, 90360, Note_on_c, 2, 69, 119
4, 90420, Note_on_c, 2, 69, 0
4, 90420, Note_on_c, 2, 67, 123
4, 90480, Note_on_c, 2, 67, 0
4, 90480, Note_on_c, 2, 65, 119
4, 90540, Note_on_c, 2, 65, 0
4, 90540, Note_on_c, 2, 64, 119
4, 90600, Note_on_c, 2, 64, 0
4, 90600, Note_on_c, 2, 62, 119
4, 90660, Note_on_c, 2, 62, 0
4, 90660, Note_on_c, 2, 60, 110
4, 90720, Note_on_c, 2, 60, 0
4, 90720, Note_on_c, 2, 71, 110
4, 90720, Note_on_c, 2, 62, 112
4, 90780, Note_on_c, 2, 62, 0
4, 90780, Note_on_c, 2, 71, 0
4, 90840, Note_on_c, 2, 72, 99
4, 90840, Note_on_c, 2, 64, 112
4, 90900, Note_on_c, 2, 64, 0
4, 90900, Note_on_c, 2, 72, 0
4, 90960, Note_on_c, 2, 74, 112
4, 90960, Note_on_c, 2, 65, 119
4, 91020, Note_on_c, 2, 65, 0
4, 91020, Note_on_c, 2, 74, 0
4, 91080, Note_on_c, 2, 71, 107
4, 91080, Note_on_c, 2, 65, 117
4, 91140, Note_on_c, 2, 65, 0
4, 91140, Note_on_c, 2, 71, 0
4, 91200, Note_on_c, 2, 72, 98
4, 91200, Note_on_c, 2, 64, 112
4, 91260, Note_on_c, 2, 64, 0
4, 91260, Note_on_c, 2, 72, 0
4, 91320, Note_on_c, 2, 74, 112
4, 91320, Note_on_c, 2, 65, 115
4, 91380, Note_on_c, 2, 65, 0
4, 91380, Note_on_c, 2, 74, 0
4, 91440, Note_on_c, 2, 72, 104
4, 91440, Note_on_c, 2, 64, 117
4, 91500, Note_on_c, 2, 64, 0
4, 91500, Note_on_c, 2, 72, 0
4, 91560, Note_on_c, 2, 74, 112
4, 91560, Note_on_c, 2, 65, 112
4, 91620, Note_on_c, 2, 65, 0
4, 91620, Note_on_c, 2, 74, 0
4, 91680, Note_on_c, 2, 72, 105
4, 91680, Note_on_c, 2, 64, 119
4, 91920, Note_on_c, 2, 64, 0
4, 91920, Note_on_c, 2, 72, 0
4, 158760, Note_on_c, 2, 76, 90
4, 158760, Note_on_c, 2, 64, 93
4, 158880, Note_on_c, 2, 64, 0
4, 158880, Note_on_c, 2, 76, 0
4, 158880, Note_on_c, 2, 76, 98
4, 158880, Note_on_c, 2, 64, 99
4, 158940, Note_on_c, 2, 64, 0
4, 158940, Note_on_c, 2, 76, 0
4, 158940, Note_on_c, 2, 74, 94
4, 158940, Note_on_c, 2, 62, 94
4, 159000, Note_on_c, 2, 62, 0
4, 159000, Note_on_c, 2, 74, 0
4, 159000, Note_on_c, 2, 72, 81
4, 159000, Note_on_c, 2, 60, 95
4, 159060, Note_on_c, 2, 60, 0
4, 159060, Note_on_c, 2, 72, 0
4, 159120, Note_on_c, 2, 72, 80
4, 159120, Note_on_c, 2, 60, 98
4, 159180, Note_on_c, 2, 60, 0
4, 159180, Note_on_c, 2, 72, 0
4, 159240, Note_on_c, 2, 76, 98
4, 159240, Note_on_c, 2, 64, 99
4, 159300, Note_on_c, 2, 64, 0
4, 159300, Note_on_c, 2, 76, 0
4, 159360, Note_on_c, 2, 76, 90
4, 159360, Note_on_c, 2, 64, 94
4, 159420, Note_on_c, 2, 64, 0
4, 159420, Note_on_c, 2, 76, 0
4, 159420, Note_on_c, 2, 74, 98
4, 159420, Note_on_c, 2, 62, 93
4, 159480, Note_on_c, 2, 62, 0
4, 159480, Note_on_c, 2, 74, 0
4, 159480, Note_on_c, 2, 72, 81
4, 159480, Note_on_c, 2, 60, 94
4, 159540, Note_on_c, 2, 60, 0
4, 159540, Note_on_c, 2, 72, 0
4, 159600, Note_on_c, 2, 72, 72
4, 159600, Note_on_c, 2, 60, 95
4, 159660, Note_on_c, 2, 60, 0
4, 159660, Note_on_c, 2, 72, 0
4, 159720, Note_on_c, 2, 76, 94
4, 159720, Note_on_c, 2, 64, 99
4, 159780, Note_on_c, 2, 64, 0
4, 159780, Note_on_c, 2, 76, 0
4, 159840, Note_on_c, 2, 76, 94
4, 159840, Note_on_c, 2, 64, 99
4, 159900, Note_on_c, 2, 64, 0
4, 159900, Note_on_c, 2, 76, 0
4, 159900, Note_on_c, 2, 74, 98
4, 159900, Note_on_c, 2, 62, 94
4, 159960, Note_on_c, 2, 62, 0
4, 159960, Note_on_c, 2, 74, 0
4, 159960, Note_on_c, 2, 72, 81
4, 159960, Note_on_c, 2, 60, 95
4, 160020, Note_on_c, 2, 60, 0
4, 160020, Note_on_c, 2, 72, 0
4, 160080, Note_on_c, 2, 72, 81
4, 160080, Note_on_c, 2, 60, 99
4, 160140, Note_on_c, 2, 60, 0
4, 160140, Note_on_c, 2, 72, 0
4, 160140, Note_on_c, 2, 71, 93
4, 160140, Note_on_c, 2, 59, 98
4, 160200, Note_on_c, 2, 59, 0
4, 160200, Note_on_c, 2, 71, 0
4, 160200, Note_on_c, 2, 69, 99
4, 160200, Note_on_c, 2, 57, 104
4, 160260, Note_on_c, 2, 57, 0
4, 160260, Note_on_c, 2, 69, 0
4, 160320, Note_on_c, 2, 67, 84
4, 160320, Note_on_c, 2, 55, 94
4, 160380, Note_on_c, 2, 55, 0
4, 160380, Note_on_c, 2, 67, 0
4, 160440, Note_on_c, 2, 71, 86
4, 160440, Note_on_c, 2, 67, 94
4, 160500, Note_on_c, 2, 67, 0
4, 160500, Note_on_c, 2, 71, 0
4, 160560, Note_on_c, 2, 72, 72
4, 160560, Note_on_c, 2, 69, 95
4, 160620, Note_on_c, 2, 69, 0
4, 160620, Note_on_c, 2, 72, 0
4, 160680, Note_on_c, 2, 69, 72
4, 160680, Note_on_c, 2, 66, 89
4, 160740, Note_on_c, 2, 66, 0
4, 160740, Note_on_c, 2, 69, 0
4, 160800, Note_on_c, 2, 71, 90
4, 160800, Note_on_c, 2, 67, 94
4, 160860, Note_on_c, 2, 67, 0
4, 160860, Note_on_c, 2, 71, 0
4, 160920, Note_on_c, 2, 71, 89
4, 160920, Note_on_c, 2, 67, 90
4, 160980, Note_on_c, 2, 67, 0
4, 160980, Note_on_c, 2, 71, 0
4, 161040, Note_on_c, 2, 72, 81
4, 161040, Note_on_c, 2, 69, 98
4, 161100, Note_on_c, 2, 69, 0
4, 161100, Note_on_c, 2, 72, 0
4, 161160, Note_on_c, 2, 69, 78
4, 161160, Note_on_c, 2, 66, 90
4, 161220, Note_on_c, 2, 66, 0
4, 161220, Note_on_c, 2, 69, 0
4, 161280, Note_on_c, 2, 71, 82
4, 161280, Note_on_c, 2, 67, 89
4, 161640, Note_on_c, 2, 67, 0
4, 161640, Note_on_c, 2, 71, 0
4, 161640, Note_on_c, 2, 67, 95
4, 161760, Note_on_c, 2, 67, 0
4, 161760, Note_on_c, 2, 67, 95
4, 161820, Note_on_c, 2, 67, 0
4, 161820, Note_on_c, 2, 69, 99
4, 161880, Note_on_c, 2, 69, 0
4, 161880, Note_on_c, 2, 71, 104
4, 161940, Note_on_c, 2, 71, 0
4, 162000, Note_on_c, 2, 71, 99
4, 162000, Note_on_c, 2, 67, 85
4, 162060, Note_on_c, 2, 67, 0
4, 162060, Note_on_c, 2, 71, 0
4, 162060, Note_on_c, 2, 72, 80
4, 162060, Note_on_c, 2, 69, 89
4, 162120, Note_on_c, 2, 69, 0
4, 162120, Note_on_c, 2, 72, 0
4, 162120, Note_on_c, 2, 74, 98
4, 162120, Note_on_c, 2, 71, 84
4, 162180, Note_on_c, 2, 71, 0
4, 162180, Note_on_c, 2, 74, 0
4, 162240, Note_on_c, 2, 74, 98
4, 162240, Note_on_c, 2, 71, 85
4, 162600, Note_on_c, 2, 71, 0
4, 162600, Note_on_c, 2, 74, 0
4, 162600, Note_on_c, 2, 71, 101
4, 162600, Note_on_c, 2, 67, 77
4, 162720, Note_on_c, 2, 67, 0
4, 162720, Note_on_c, 2, 71, 0
4, 162720, Note_on_c, 2, 71, 99
4, 162720, Note_on_c, 2, 67, 89
4, 162780, Note_on_c, 2, 67, 0
4, 162780, Note_on_c, 2, 71, 0
4, 162780, Note_on_c, 2, 72, 80
4, 162780, Note_on_c, 2, 69, 85
4, 162840, Note_on_c, 2, 69, 0
4, 162840, Note_on_c, 2, 72, 0
4, 162840, Note_on_c, 2, 74, 94
4, 162840, Note_on_c, 2, 71, 89
4, 162900, Note_on_c, 2, 71, 0
4, 162900, Note_on_c, 2, 74, 0
4, 162960, Note_on_c, 2, 74, 104
4, 162960, Note_on_c, 2, 71, 86
4, 163020, Note_on_c, 2, 71, 0
4, 163020, Note_on_c, 2, 74, 0
4, 163020, Note_on_c, 2, 76, 98
4, 163020, Note_on_c, 2, 72, 73
4, 163080, Note_on_c, 2, 72, 0
4, 163080, Note_on_c, 2, 76, 0
4, 163080, Note_on_c, 2, 77, 93
4, 163080, Note_on_c, 2, 74, 93
4, 163140, Note_on_c, 2, 74, 0
4, 163140, Note_on_c, 2, 77, 0
4, 163200, Note_on_c, 2, 77, 89
4, 163200, Note_on_c, 2, 74, 95
4, 163560, Note_on_c, 2, 74, 0
4, 163560, Note_on_c, 2, 77, 0
4, 163560, Note_on_c, 2, 69, 90
4, 163560, Note_on_c, 2, 65, 42
4, 163680, Note_on_c, 2, 65, 0
4, 163680, Note_on_c, 2, 69, 0
4, 163680, Note_on_c, 2, 69, 93
4, 163680, Note_on_c, 2, 65, 78
4, 163740, Note_on_c, 2, 65, 0
4, 163740, Note_on_c, 2, 69, 0
4, 163740, Note_on_c, 2, 67, 94
4, 163740, Note_on_c, 2, 64, 85
4, 163800, Note_on_c, 2, 64, 0
4, 163800, Note_on_c, 2, 67, 0
4, 163800, Note_on_c, 2, 65, 119
4, 163800, Note_on_c, 2, 62, 125
4, 163860, Note_on_c, 2, 62, 0
4, 163860, Note_on_c, 2, 65, 0
4, 163920, Note_on_c, 2, 65, 90
4, 163920, Note_on_c, 2, 62, 99
4, 163980, Note_on_c, 2, 62, 0
4, 163980, Note_on_c, 2, 65, 0
4, 164040, Note_on_c, 2, 69, 90
4, 164040, Note_on_c, 2, 65, 80
4, 164100, Note_on_c, 2, 65, 0
4, 164100, Note_on_c, 2, 69, 0
4, 164160, Note_on_c, 2, 69, 94
4, 164160, Note_on_c, 2, 65, 82
4, 164220, Note_on_c, 2, 65, 0
4, 164220, Note_on_c, 2, 69, 0
4, 164220, Note_on_c, 2, 67, 89
4, 164220, Note_on_c, 2, 64, 84
4, 164280, Note_on_c, 2, 64, 0
4, 164280, Note_on_c, 2, 67, 0
4, 164280, Note_on_c, 2, 65, 117
4, 164280, Note_on_c, 2, 62, 119
4, 164340, Note_on_c, 2, 62, 0
4, 164340, Note_on_c, 2, 65, 0
4, 164400, Note_on_c, 2, 65, 86
4, 164400, Note_on_c, 2, 62, 84
4, 164460, Note_on_c, 2, 62, 0
4, 164460, Note_on_c, 2, 65, 0
4, 164520, Note_on_c, 2, 69, 90
4, 164520, Note_on_c, 2, 65, 76
4, 164580, Note_on_c, 2, 65, 0
4, 164580, Note_on_c, 2, 69, 0
4, 164640, Note_on_c, 2, 69, 95
4, 164640, Note_on_c, 2, 65, 89
4, 164700, Note_on_c, 2, 65, 0
4, 164700, Note_on_c, 2, 69, 0
4, 164700, Note_on_c, 2, 67, 93
4, 164700, Note_on_c, 2, 64, 89
4, 164760, Note_on_c, 2, 64, 0
4, 164760, Note_on_c, 2, 67, 0
4, 164760, Note_on_c, 2, 65, 93
4, 164760, Note_on_c, 2, 62, 94
4, 164820, Note_on_c, 2, 62, 0
4, 164820, Note_on_c, 2, 65, 0
4, 164880, Note_on_c, 2, 65, 94
4, 164880, Note_on_c, 2, 60, 93
4, 164940, Note_on_c, 2, 65, 0
4, 164940, Note_on_c, 2, 64, 104
4, 165000, Note_on_c, 2, 64, 0
4, 165000, Note_on_c, 2, 60, 0
4, 165000, Note_on_c, 2, 62, 104
4, 165060, Note_on_c, 2, 62, 0
4, 165120, Note_on_c, 2, 72, 81
4, 165120, Note_on_c, 2, 64, 104
4, 165180, Note_on_c, 2, 64, 0
4, 165180, Note_on_c, 2, 72, 0
4, 165240, Note_on_c, 2, 72, 68
4, 165240, Note_on_c, 2, 64, 95
4, 165300, Note_on_c, 2, 64, 0
4, 165300, Note_on_c, 2, 72, 0
4, 165360, Note_on_c, 2, 74, 99
4, 165360, Note_on_c, 2, 65, 101
4, 165420, Note_on_c, 2, 65, 0
4, 165420, Note_on_c, 2, 74, 0
4, 165480, Note_on_c, 2, 71, 105
4, 165480, Note_on_c, 2, 65, 93
4, 165540, Note_on_c, 2, 65, 0
4, 165540, Note_on_c, 2, 71, 0
4, 165600, Note_on_c, 2, 60, 78
4, 165660, Note_on_c, 2, 60, 0
4, 165660, Note_on_c, 2, 62, 104
4, 165720, Note_on_c, 2, 62, 0
4, 165720, Note_on_c, 2, 64, 101
4, 165780, Note_on_c, 2, 64, 0
4, 165780, Note_on_c, 2, 65, 95
4, 165840, Note_on_c, 2, 65, 0
4, 165840, Note_on_c, 2, 67, 86
4, 165900, Note_on_c, 2, 67, 0
4, 165900, Note_on_c, 2, 69, 95
4, 165960, Note_on_c, 2, 69, 0
4, 165960, Note_on_c, 2, 71, 98
4, 166020, Note_on_c, 2, 71, 0
4, 166020, Note_on_c, 2, 72, 95
4, 166080, Note_on_c, 2, 72, 0
4, 166080, Note_on_c, 2, 74, 98
4, 166080, Note_on_c, 2, 62, 99
4, 166140, Note_on_c, 2, 62, 0
4, 166140, Note_on_c, 2, 74, 0
4, 166200, Note_on_c, 2, 76, 104
4, 166200, Note_on_c, 2, 64, 99
4, 166260, Note_on_c, 2, 64, 0
4, 166260, Note_on_c, 2, 76, 0
4, 166320, Note_on_c, 2, 77, 94
4, 166320, Note_on_c, 2, 65, 99
4, 166380, Note_on_c, 2, 65, 0
4, 166380, Note_on_c, 2, 77, 0
4, 166440, Note_on_c, 2, 71, 99
4, 166500, Note_on_c, 2, 71, 0
4, 166560, Note_on_c, 2, 72, 125
4, 166620, Note_on_c, 2, 72, 0
4, 166620, Note_on_c, 2, 71, 117
4, 166680, Note_on_c, 2, 71, 0
4, 166680, Note_on_c, 2, 69, 119
4, 166740, Note_on_c, 2, 69, 0
4, 166740, Note_on_c, 2, 67, 123
4, 166800, Note_on_c, 2, 67, 0
4, 166800, Note_on_c, 2, 65, 119
4, 166860, Note_on_c, 2, 65, 0
4, 166860, Note_on_c, 2, 64, 119
4, 166920, Note_on_c, 2, 64, 0
4, 166920, Note_on_c, 2, 62, 119
4, 166980, Note_on_c, 2, 62, 0
4, 166980, Note_on_c, 2, 60, 110
4, 167040, Note_on_c, 2, 60, 0
4, 167040, Note_on_c, 2, 71, 110
4, 167040, Note_on_c, 2, 62, 112
4, 167100, Note_on_c, 2, 62, 0
4, 167100, Note_on_c, 2, 71, 0
4, 167160, Note_on_c, 2, 72, 99
4, 167160, Note_on_c, 2, 64, 112
4, 167220, Note_on_c, 2, 64, 0
4, 167220, Note_on_c, 2, 72, 0
4, 167280, Note_on_c, 2, 74, 112
4, 167280, Note_on_c, 2, 65, 119
4, 167340, Note_on_c, 2, 65, 0
4, 167340, Note_on_c, 2, 74, 0
4, 167400, Note_on_c, 2, 71, 107
4, 167400, Note_on_c, 2, 65, 117
4, 167460, Note_on_c, 2, 65, 0
4, 167460, Note_on_c, 2, 71, 0
4, 167520, Note_on_c, 2, 72, 98
4, 167520, Note_on_c, 2, 64, 112
4, 167580, Note_on_c, 2, 64, 0
4, 167580, Note_on_c, 2, 72, 0
4, 167640, Note_on_c, 2, 74, 112
4, 167640, Note_on_c, 2, 65, 115
4, 167700, Note_on_c, 2, 65, 0
4, 167700, Note_on_c, 2, 74, 0
4, 167760, Note_on_c, 2, 72, 104
4, 167760, Note_on_c, 2, 64, 117
4, 167820, Note_on_c, 2, 64, 0
4, 167820, Note_on_c, 2, 72, 0
4, 167880, Note_on_c, 2, 74, 112
4, 167880, Note_on_c, 2, 65, 112
4, 167940, Note_on_c, 2, 65, 0
4, 167940, Note_on_c, 2, 74, 0
4, 168000, Note_on_c, 2, 72, 105
4, 168000, Note_on_c, 2, 64, 119
4, 168240, Note_on_c, 2, 64, 0
4, 168240, Note_on_c, 2, 72, 0
4, 168360, Note_on_c, 2, 67, 80
4, 168360, Note_on_c, 2, 55, 82
4, 168480, Note_on_c, 2, 55, 0
4, 168480, Note_on_c, 2, 67, 0
4, 168480, Note_on_c, 2, 72, 67
4, 168480, Note_on_c, 2, 60, 81
4, 168540, Note_on_c, 2, 60, 0
4, 168540, Note_on_c, 2, 72, 0
4, 168600, Note_on_c, 2, 72, 57
4, 168600, Note_on_c, 2, 60, 80
4, 168660, Note_on_c, 2, 60, 0
4, 168660, Note_on_c, 2, 72, 0
4, 168720, Note_on_c, 2, 72, 53
4, 168720, Note_on_c, 2, 60, 80
4, 168780, Note_on_c, 2, 60, 0
4, 168780, Note_on_c, 2, 72, 0
4, 168840, Note_on_c, 2, 67, 69
4, 168840, Note_on_c, 2, 55, 84
4, 168900, Note_on_c, 2, 55, 0
4, 168900, Note_on_c, 2, 67, 0
4, 168960, Note_on_c, 2, 76, 90
4, 168960, Note_on_c, 2, 64, 93
4, 169320, Note_on_c, 2, 64, 0
4, 169320, Note_on_c, 2, 76, 0
4, 169320, Note_on_c, 2, 72, 80
4, 169320, Note_on_c, 2, 60, 99
4, 169440, Note_on_c, 2, 60, 0
4, 169440, Note_on_c, 2, 72, 0
4, 169440, Note_on_c, 2, 79, 84
4, 169440, Note_on_c, 2, 67, 86
4, 169500, Note_on_c, 2, 67, 0
4, 169500, Note_on_c, 2, 79, 0
4, 169560, Note_on_c, 2, 79, 82
4, 169560, Note_on_c, 2, 67, 89
4, 169620, Note_on_c, 2, 67, 0
4, 169620, Note_on_c, 2, 79, 0
4, 169680, Note_on_c, 2, 79, 80
4, 169680, Note_on_c, 2, 67, 84
4, 169740, Note_on_c, 2, 67, 0
4, 169740, Note_on_c, 2, 79, 0
4, 169800, Note_on_c, 2, 76, 94
4, 169800, Note_on_c, 2, 64, 86
4, 169860, Note_on_c, 2, 64, 0
4, 169860, Note_on_c, 2, 76, 0
4, 169920, Note_on_c, 2, 72, 69
4, 169920, Note_on_c, 2, 60, 82
4, 170160, Note_on_c, 2, 60, 0
4, 170160, Note_on_c, 2, 72, 0
4, 183360, Note_on_c, 2, 67, 59
4, 183360, Note_on_c, 2, 64, 71
4, 183840, Note_on_c, 2, 64, 0
4, 183840, Note_on_c, 2, 65, 46
4, 184320, Note_on_c, 2, 65, 0
4, 184320, Note_on_c, 2, 67, 0
4, 184320, Note_on_c, 2, 67, 53
4, 184320, Note_on_c, 2, 64, 64
4, 184800, Note_on_c, 2, 64, 0
4, 184800, Note_on_c, 2, 65, 62
4, 185280, Note_on_c, 2, 65, 0
4, 185280, Note_on_c, 2, 67, 0
4, 185520, Note_on_c, 2, 74, 53
4, 185520, Note_on_c, 2, 65, 53
4, 185580, Note_on_c, 2, 65, 0
4, 185580, Note_on_c, 2, 74, 0
4, 185640, Note_on_c, 2, 74, 65
4, 185640, Note_on_c, 2, 65, 67
4, 185700, Note_on_c, 2, 65, 0
4, 185700, Note_on_c, 2, 74, 0
4, 186000, Note_on_c, 2, 72, 32
4, 186000, Note_on_c, 2, 64, 64
4, 186060, Note_on_c, 2, 64, 0
4, 186060, Note_on_c, 2, 72, 0
4, 186120, Note_on_c, 2, 72, 43
4, 186120, Note_on_c, 2, 64, 71
4, 186180, Note_on_c, 2, 64, 0
4, 186180, Note_on_c, 2, 72, 0
4, 186480, Note_on_c, 2, 69, 52
4, 186480, Note_on_c, 2, 62, 61
4, 186720, Note_on_c, 2, 62, 0
4, 186720, Note_on_c, 2, 69, 0
4, 186720, Note_on_c, 2, 67, 40
4, 186720, Note_on_c, 2, 62, 70
4, 186960, Note_on_c, 2, 62, 0
4, 186960, Note_on_c, 2, 67, 0
4, 211200, Note_on_c, 2, 64, 54
4, 211200, Note_on_c, 2, 60, 57
4, 211680, Note_on_c, 2, 60, 0
4, 211680, Note_on_c, 2, 64, 0
4, 211680, Note_on_c, 2, 65, 64
4, 211680, Note_on_c, 2, 62, 45
4, 212160, Note_on_c, 2, 62, 0
4, 212160, Note_on_c, 2, 65, 0
4, 212160, Note_on_c, 2, 67, 58
4, 212160, Note_on_c, 2, 64, 53
4, 212640, Note_on_c, 2, 64, 0
4, 212640, Note_on_c, 2, 67, 0
4, 212640, Note_on_c, 2, 69, 61
4, 212640, Note_on_c, 2, 65, 51
4, 213120, Note_on_c, 2, 65, 0
4, 213120, Note_on_c, 2, 69, 0
4, 213120, Note_on_c, 2, 76, 69
4, 213120, Note_on_c, 2, 67, 59
4, 213600, Note_on_c, 2, 67, 0
4, 213600, Note_on_c, 2, 76, 0
4, 213600, Note_on_c, 2, 77, 54
4, 213600, Note_on_c, 2, 69, 60
4, 214080, Note_on_c, 2, 69, 0
4, 214080, Note_on_c, 2, 77, 0
4, 214080, Note_on_c, 2, 71, 53
4, 214080, Note_on_c, 2, 62, 52
4, 214560, Note_on_c, 2, 62, 0
4, 214560, Note_on_c, 2, 71, 0
4, 214560, Note_on_c, 2, 64, 76
4, 214560, Note_on_c, 2, 72, 61
4, 214800, Note_on_c, 2, 72, 0
4, 214800, Note_on_c, 2, 73, 66
4, 215040, Note_on_c, 2, 73, 0
4, 215040, Note_on_c, 2, 64, 0
4, 215040, Note_on_c, 2, 74, 94
4, 215040, Note_on_c, 2, 69, 81
4, 215520, Note_on_c, 2, 69, 0
4, 215520, Note_on_c, 2, 74, 0
4, 215520, Note_on_c, 2, 75, 89
4, 215520, Note_on_c, 2, 69, 77
4, 216000, Note_on_c, 2, 69, 0
4, 216000, Note_on_c, 2, 75, 0
4, 216000, Note_on_c, 2, 76, 94
4, 216000, Note_on_c, 2, 64, 98
4, 216240, Note_on_c, 2, 64, 0
4, 216240, Note_on_c, 2, 76, 0
4, 216240, Note_on_c, 2, 77, 80
4, 216240, Note_on_c, 2, 65, 81
4, 216480, Note_on_c, 2, 65, 0
4, 216480, Note_on_c, 2, 77, 0
4, 216480, Note_on_c, 2, 76, 84
4, 216480, Note_on_c, 2, 64, 78
4, 216720, Note_on_c, 2, 64, 0
4, 216720, Note_on_c, 2, 76, 0
4, 216720, Note_on_c, 2, 75, 95
4, 216720, Note_on_c, 2, 63, 95
4, 216960, Note_on_c, 2, 63, 0
4, 216960, Note_on_c, 2, 75, 0
4, 216960, Note_on_c, 2, 76, 81
4, 216960, Note_on_c, 2, 64, 89
4, 217200, Note_on_c, 2, 64, 0
4, 217200, Note_on_c, 2, 76, 0
4, 217200, Note_on_c, 2, 77, 82
4, 217200, Note_on_c, 2, 65, 84
4, 217440, Note_on_c, 2, 65, 0
4, 217440, Note_on_c, 2, 77, 0
4, 217440, Note_on_c, 2, 76, 89
4, 217440, Note_on_c, 2, 64, 84
4, 217680, Note_on_c, 2, 64, 0
4, 217680, Note_on_c, 2, 76, 0
4, 217680, Note_on_c, 2, 75, 93
4, 217680, Note_on_c, 2, 63, 94
4, 217920, Note_on_c, 2, 63, 0
4, 217920, Note_on_c, 2, 75, 0
4, 217920, Note_on_c, 2, 76, 90
4, 217920, Note_on_c, 2, 64, 85
4, 218160, Note_on_c, 2, 64, 0
4, 218160, Note_on_c, 2, 76, 0
4, 218160, Note_on_c, 2, 75, 99
4, 218160, Note_on_c, 2, 63, 93
4, 218400, Note_on_c, 2, 63, 0
4, 218400, Note_on_c, 2, 75, 0
4, 218400, Note_on_c, 2, 76, 99
4, 218400, Note_on_c, 2, 64, 95
4, 218640, Note_on_c, 2, 64, 0
4, 218640, Note_on_c, 2, 76, 0
4, 218640, Note_on_c, 2, 75, 104
4, 218640, Note_on_c, 2, 63, 95
4, 218880, Note_on_c, 2, 63, 0
4, 218880, Note_on_c, 2, 75, 0
4, 218880, Note_on_c, 2, 76, 104
4, 218880, Note_on_c, 2, 64, 105
4, 220320, Note_on_c, 2, 64, 0
4, 220320, Note_on_c, 2, 76, 0
4, 241320, Note_on_c, 2, 76, 90
4, 241320, Note_on_c, 2, 64, 93
4, 241440, Note_on_c, 2, 64, 0
4, 241440, Note_on_c, 2, 76, 0
4, 241440, Note_on_c, 2, 76, 98
4, 241440, Note_on_c, 2, 64, 99
4, 241500, Note_on_c, 2, 64, 0
4, 241500, Note_on_c, 2, 76, 0
4, 241500, Note_on_c, 2, 74, 94
4, 241500, Note_on_c, 2, 62, 94
4, 241560, Note_on_c, 2, 62, 0
4, 241560, Note_on_c, 2, 74, 0
4, 241560, Note_on_c, 2, 72, 81
4, 241560, Note_on_c, 2, 60, 95
4, 241620, Note_on_c, 2, 60, 0
4, 241620, Note_on_c, 2, 72, 0
4, 241680, Note_on_c, 2, 72, 80
4, 241680, Note_on_c, 2, 60, 98
4, 241740, Note_on_c, 2, 60, 0
4, 241740, Note_on_c, 2, 72, 0
4, 241800, Note_on_c, 2, 76, 98
4, 241800, Note_on_c, 2, 64, 99
4, 241860, Note_on_c, 2, 64, 0
4, 241860, Note_on_c, 2, 76, 0
4, 241920, Note_on_c, 2, 76, 90
4, 241920, Note_on_c, 2, 64, 94
4, 241980, Note_on_c, 2, 64, 0
4, 241980, Note_on_c, 2, 76, 0
4, 241980, Note_on_c, 2, 74, 98
4, 241980, Note_on_c, 2, 62, 93
4, 242040, Note_on_c, 2, 62, 0
4, 242040, Note_on_c, 2, 74, 0
4, 242040, Note_on_c, 2, 72, 81
4, 242040, Note_on_c, 2, 60, 94
4, 242100, Note_on_c, 2, 60, 0
4, 242100, Note_on_c, 2, 72, 0
4, 242160, Note_on_c, 2, 72, 72
4, 242160, Note_on_c, 2, 60, 95
4, 242220, Note_on_c, 2, 60, 0
4, 242220, Note_on_c, 2, 72, 0
4, 242280, Note_on_c, 2, 76, 94
4, 242280, Note_on_c, 2, 64, 99
4, 242340, Note_on_c, 2, 64, 0
4, 242340, Note_on_c, 2, 76, 0
4, 242400, Note_on_c, 2, 76, 94
4, 242400, Note_on_c, 2, 64, 99
4, 242460, Note_on_c, 2, 64, 0
4, 242460, Note_on_c, 2, 76, 0
4, 242460, Note_on_c, 2, 74, 98
4, 242460, Note_on_c, 2, 62, 94
4, 242520, Note_on_c, 2, 62, 0
4, 242520, Note_on_c, 2, 74, 0
4, 242520, Note_on_c, 2, 72, 81
4, 242520, Note_on_c, 2, 60, 95
4, 242580, Note_on_c, 2, 60, 0
4, 242580, Note_on_c, 2, 72, 0
4, 242640, Note_on_c, 2, 72, 81
4, 242640, Note_on_c, 2, 60, 99
4, 242700, Note_on_c, 2, 60, 0
4, 242700, Note_on_c, 2, 72, 0
4, 242700, Note_on_c, 2, 71, 93
4, 242700, Note_on_c, 2, 59, 98
4, 242760, Note_on_c, 2, 59, 0
4, 242760, Note_on_c, 2, 71, 0
4, 242760, Note_on_c, 2, 69, 99
4, 242760, Note_on_c, 2, 57, 104
4, 242820, Note_on_c, 2, 57, 0
4, 242820, Note_on_c, 2, 69, 0
4, 242880, Note_on_c, 2, 67, 84
4, 242880, Note_on_c, 2, 55, 94
4, 242940, Note_on_c, 2, 55, 0
4, 242940, Note_on_c, 2, 67, 0
4, 243000, Note_on_c, 2, 71, 86
4, 243000, Note_on_c, 2, 67, 94
4, 243060, Note_on_c, 2, 67, 0
4, 243060, Note_on_c, 2, 71, 0
4, 243120, Note_on_c, 2, 72, 72
4, 243120, Note_on_c, 2, 69, 95
4, 243180, Note_on_c, 2, 69, 0
4, 243180, Note_on_c, 2, 72, 0
4, 243240, Note_on_c, 2, 69, 72
4, 243240, Note_on_c, 2, 66, 89
4, 243300, Note_on_c, 2, 66, 0
4, 243300, Note_on_c, 2, 69, 0
4, 243360, Note_on_c, 2, 71, 90
4, 243360, Note_on_c, 2, 67, 94
4, 243420, Note_on_c, 2, 67, 0
4, 243420, Note_on_c, 2, 71, 0
4, 243480, Note_on_c, 2, 71, 89
4, 243480, Note_on_c, 2, 67, 90
4, 243540, Note_on_c, 2, 67, 0
4, 243540, Note_on_c, 2, 71, 0
4, 243600, Note_on_c, 2, 72, 81
4, 243600, Note_on_c, 2, 69, 98
4, 243660, Note_on_c, 2, 69, 0
4, 243660, Note_on_c, 2, 72, 0
4, 243720, Note_on_c, 2, 69, 78
4, 243720, Note_on_c, 2, 66, 90
4, 243780, Note_on_c, 2, 66, 0
4, 243780, Note_on_c, 2, 69, 0
4, 243840, Note_on_c, 2, 71, 82
4, 243840, Note_on_c, 2, 67, 89
4, 244200, Note_on_c, 2, 67, 0
4, 244200, Note_on_c, 2, 71, 0
4, 244200, Note_on_c, 2, 67, 95
4, 244320, Note_on_c, 2, 67, 0
4, 244320, Note_on_c, 2, 67, 95
4, 244380, Note_on_c, 2, 67, 0
4, 244380, Note_on_c, 2, 69, 99
4, 244440, Note_on_c, 2, 69, 0
4, 244440, Note_on_c, 2, 71, 104
4, 244500, Note_on_c, 2, 71, 0
4, 244560, Note_on_c, 2, 71, 99
4, 244560, Note_on_c, 2, 67, 85
4, 244620, Note_on_c, 2, 67, 0
4, 244620, Note_on_c, 2, 71, 0
4, 244620, Note_on_c, 2, 72, 80
4, 244620, Note_on_c, 2, 69, 89
4, 244680, Note_on_c, 2, 69, 0
4, 244680, Note_on_c, 2, 72, 0
4, 244680, Note_on_c, 2, 74, 98
4, 244680, Note_on_c, 2, 71, 84
4, 244740, Note_on_c, 2, 71, 0
4, 244740, Note_on_c, 2, 74, 0
4, 244800, Note_on_c, 2, 74, 86
4, 244800, Note_on_c, 2, 71, 84
4, 245160, Note_on_c, 2, 71, 0
4, 245160, Note_on_c, 2, 74, 0
4, 245160, Note_on_c, 2, 71, 101
4, 245160, Note_on_c, 2, 67, 77
4, 245280, Note_on_c, 2, 67, 0
4, 245280, Note_on_c, 2, 71, 0
4, 245280, Note_on_c, 2, 71, 99
4, 245280, Note_on_c, 2, 67, 89
4, 245340, Note_on_c, 2, 67, 0
4, 245340, Note_on_c, 2, 71, 0
4, 245340, Note_on_c, 2, 72, 80
4, 245340, Note_on_c, 2, 69, 85
4, 245400, Note_on_c, 2, 69, 0
4, 245400, Note_on_c, 2, 72, 0
4, 245400, Note_on_c, 2, 74, 94
4, 245400, Note_on_c, 2, 71, 89
4, 245460, Note_on_c, 2, 71, 0
4, 245460, Note_on_c, 2, 74, 0
4, 245520, Note_on_c, 2, 74, 104
4, 245520, Note_on_c, 2, 71, 86
4, 245580, Note_on_c, 2, 71, 0
4, 245580, Note_on_c, 2, 74, 0
4, 245580, Note_on_c, 2, 76, 98
4, 245580, Note_on_c, 2, 72, 73
4, 245640, Note_on_c, 2, 72, 0
4, 245640, Note_on_c, 2, 76, 0
4, 245640, Note_on_c, 2, 77, 93
4, 245640, Note_on_c, 2, 74, 93
4, 245700, Note_on_c, 2, 74, 0
4, 245700, Note_on_c, 2, 77, 0
4, 245760, Note_on_c, 2, 77, 90
4, 245760, Note_on_c, 2, 74, 94
4, 246120, Note_on_c, 2, 74, 0
4, 246120, Note_on_c, 2, 77, 0
4, 246120, Note_on_c, 2, 69, 90
4, 246120, Note_on_c, 2, 65, 42
4, 246240, Note_on_c, 2, 65, 0
4, 246240, Note_on_c, 2, 69, 0
4, 246240, Note_on_c, 2, 69, 93
4, 246240, Note_on_c, 2, 65, 78
4, 246300, Note_on_c, 2, 65, 0
4, 246300, Note_on_c, 2, 69, 0
4, 246300, Note_on_c, 2, 67, 94
4, 246300, Note_on_c, 2, 64, 85
4, 246360, Note_on_c, 2, 64, 0
4, 246360, Note_on_c, 2, 67, 0
4, 246360, Note_on_c, 2, 65, 119
4, 246360, Note_on_c, 2, 62, 125
4, 246420, Note_on_c, 2, 62, 0
4, 246420, Note_on_c, 2, 65, 0
4, 246480, Note_on_c, 2, 65, 90
4, 246480, Note_on_c, 2, 62, 99
4, 246540, Note_on_c, 2, 62, 0
4, 246540, Note_on_c, 2, 65, 0
4, 246600, Note_on_c, 2, 69, 90
4, 246600, Note_on_c, 2, 65, 80
4, 246660, Note_on_c, 2, 65, 0
4, 246660, Note_on_c, 2, 69, 0
4, 246720, Note_on_c, 2, 69, 94
4, 246720, Note_on_c, 2, 65, 82
4, 246780, Note_on_c, 2, 65, 0
4, 246780, Note_on_c, 2, 69, 0
4, 246780, Note_on_c, 2, 67, 89
4, 246780, Note_on_c, 2, 64, 84
4, 246840, Note_on_c, 2, 64, 0
4, 246840, Note_on_c, 2, 67, 0
4, 246840, Note_on_c, 2, 65, 117
4, 246840, Note_on_c, 2, 62, 119
4, 246900, Note_on_c, 2, 62, 0
4, 246900, Note_on_c, 2, 65, 0
4, 246960, Note_on_c, 2, 65, 86
4, 246960, Note_on_c, 2, 62, 84
4, 247020, Note_on_c, 2, 62, 0
4, 247020, Note_on_c, 2, 65, 0
4, 247080, Note_on_c, 2, 69, 90
4, 247080, Note_on_c, 2, 65, 76
4, 247140, Note_on_c, 2, 65, 0
4, 247140, Note_on_c, 2, 69, 0
4, 247200, Note_on_c, 2, 69, 95
4, 247200, Note_on_c, 2, 65, 89
4, 247260, Note_on_c, 2, 65, 0
4, 247260, Note_on_c, 2, 69, 0
4, 247260, Note_on_c, 2, 67, 93
4, 247260, Note_on_c, 2, 64, 89
4, 247320, Note_on_c, 2, 64, 0
4, 247320, Note_on_c, 2, 67, 0
4, 247320, Note_on_c, 2, 65, 93
4, 247320, Note_on_c, 2, 62, 94
4, 247380, Note_on_c, 2, 62, 0
4, 247380, Note_on_c, 2, 65, 0
4, 247440, Note_on_c, 2, 65, 94
4, 247440, Note_on_c, 2, 60, 93
4, 247500, Note_on_c, 2, 65, 0
4, 247500, Note_on_c, 2, 64, 104
4, 247560, Note_on_c, 2, 64, 0
4, 247560, Note_on_c, 2, 60, 0
4, 247560, Note_on_c, 2, 62, 104
4, 247620, Note_on_c, 2, 62, 0
4, 247680, Note_on_c, 2, 72, 81
4, 247680, Note_on_c, 2, 64, 104
4, 247740, Note_on_c, 2, 64, 0
4, 247740, Note_on_c, 2, 72, 0
4, 247800, Note_on_c, 2, 72, 68
4, 247800, Note_on_c, 2, 64, 95
4, 247860, Note_on_c, 2, 64, 0
4, 247860, Note_on_c, 2, 72, 0
4, 247920, Note_on_c, 2, 74, 99
4, 247920, Note_on_c, 2, 65, 101
4, 247980, Note_on_c, 2, 65, 0
4, 247980, Note_on_c, 2, 74, 0
4, 248040, Note_on_c, 2, 71, 105
4, 248040, Note_on_c, 2, 65, 93
4, 248100, Note_on_c, 2, 65, 0
4, 248100, Note_on_c, 2, 71, 0
4, 248160, Note_on_c, 2, 60, 78
4, 248220, Note_on_c, 2, 60, 0
4, 248220, Note_on_c, 2, 62, 104
4, 248280, Note_on_c, 2, 62, 0
4, 248280, Note_on_c, 2, 64, 101
4, 248340, Note_on_c, 2, 64, 0
4, 248340, Note_on_c, 2, 65, 95
4, 248400, Note_on_c, 2, 65, 0
4, 248400, Note_on_c, 2, 67, 86
4, 248460, Note_on_c, 2, 67, 0
4, 248460, Note_on_c, 2, 69, 95
4, 248520, Note_on_c, 2, 69, 0
4, 248520, Note_on_c, 2, 71, 98
4, 248580, Note_on_c, 2, 71, 0
4, 248580, Note_on_c, 2, 72, 95
4, 248640, Note_on_c, 2, 72, 0
4, 248640, Note_on_c, 2, 74, 98
4, 248640, Note_on_c, 2, 62, 99
4, 248700, Note_on_c, 2, 62, 0
4, 248700, Note_on_c, 2, 74, 0
4, 248760, Note_on_c, 2, 76, 104
4, 248760, Note_on_c, 2, 64, 99
4, 248820, Note_on_c, 2, 64, 0
4, 248820, Note_on_c, 2, 76, 0
4, 248880, Note_on_c, 2, 77, 94
4, 248880, Note_on_c, 2, 65, 99
4, 248940, Note_on_c, 2, 65, 0
4, 248940, Note_on_c, 2, 77, 0
4, 249000, Note_on_c, 2, 71, 99
4, 249060, Note_on_c, 2, 71, 0
4, 249120, Note_on_c, 2, 72, 125
4, 249180, Note_on_c, 2, 72, 0
4, 249180, Note_on_c, 2, 71, 117
4, 249240, Note_on_c, 2, 71, 0
4, 249240, Note_on_c, 2, 69, 119
4, 249300, Note_on_c, 2, 69, 0
4, 249300, Note_on_c, 2, 67, 123
4, 249360, Note_on_c, 2, 67, 0
4, 249360, Note_on_c, 2, 65, 119
4, 249420, Note_on_c, 2, 65, 0
4, 249420, Note_on_c, 2, 64, 119
4, 249480, Note_on_c, 2, 64, 0
4, 249480, Note_on_c, 2, 62, 119
4, 249540, Note_on_c, 2, 62, 0
4, 249540, Note_on_c, 2, 60, 110
4, 249600, Note_on_c, 2, 60, 0
4, 249600, Note_on_c, 2, 71, 110
4, 249600, Note_on_c, 2, 62, 112
4, 249660, Note_on_c, 2, 62, 0
4, 249660, Note_on_c, 2, 71, 0
4, 249720, Note_on_c, 2, 72, 99
4, 249720, Note_on_c, 2, 64, 112
4, 249780, Note_on_c, 2, 64, 0
4, 249780, Note_on_c, 2, 72, 0
4, 249840, Note_on_c, 2, 74, 112
4, 249840, Note_on_c, 2, 65, 119
4, 249900, Note_on_c, 2, 65, 0
4, 249900, Note_on_c, 2, 74, 0
4, 249960, Note_on_c, 2, 71, 107
4, 249960, Note_on_c, 2, 65, 117
4, 250020, Note_on_c, 2, 65, 0
4, 250020, Note_on_c, 2, 71, 0
4, 250080, Note_on_c, 2, 72, 98
4, 250080, Note_on_c, 2, 64, 112
4, 250140, Note_on_c, 2, 64, 0
4, 250140, Note_on_c, 2, 72, 0
4, 250200, Note_on_c, 2, 74, 112
4, 250200, Note_on_c, 2, 65, 115
4, 250260, Note_on_c, 2, 65, 0
4, 250260, Note_on_c, 2, 74, 0
4, 250320, Note_on_c, 2, 72, 104
4, 250320, Note_on_c, 2, 64, 117
4, 250380, Note_on_c, 2, 64, 0
4, 250380, Note_on_c, 2, 72, 0
4, 250440, Note_on_c, 2, 74, 112
4, 250440, Note_on_c, 2, 65, 112
4, 250500, Note_on_c, 2, 65, 0
4, 250500, Note_on_c, 2, 74, 0
4, 250560, Note_on_c, 2, 72, 105
4, 250560, Note_on_c, 2, 64, 119
4, 250800, Note_on_c, 2, 64, 0
4, 250800, Note_on_c, 2, 72, 0
4, 282600, Note_on_c, 2, 72, 80
4, 282600, Note_on_c, 2, 64, 101
4, 282720, Note_on_c, 2, 64, 0
4, 282720, Note_on_c, 2, 72, 0
4, 282720, Note_on_c, 2, 74, 93
4, 282720, Note_on_c, 2, 65, 98
4, 283200, Note_on_c, 2, 65, 0
4, 283200, Note_on_c, 2, 74, 0
4, 283200, Note_on_c, 2, 74, 85
4, 283200, Note_on_c, 2, 65, 81
4, 283320, Note_on_c, 2, 65, 0
4, 283320, Note_on_c, 2, 74, 0
4, 283320, Note_on_c, 2, 74, 85
4, 283320, Note_on_c, 2, 65, 95
4, 283440, Note_on_c, 2, 65, 0
4, 283440, Note_on_c, 2, 74, 0
4, 283440, Note_on_c, 2, 74, 98
4, 283440, Note_on_c, 2, 65, 95
4, 283560, Note_on_c, 2, 65, 0
4, 283560, Note_on_c, 2, 74, 0
4, 283560, Note_on_c, 2, 74, 95
4, 283560, Note_on_c, 2, 65, 104
4, 283680, Note_on_c, 2, 65, 0
4, 283680, Note_on_c, 2, 74, 0
4, 283680, Note_on_c, 2, 72, 80
4, 283680, Note_on_c, 2, 64, 99
4, 283800, Note_on_c, 2, 64, 0
4, 283800, Note_on_c, 2, 72, 0
4, 283800, Note_on_c, 2, 74, 94
4, 283800, Note_on_c, 2, 65, 93
4, 283920, Note_on_c, 2, 65, 0
4, 283920, Note_on_c, 2, 74, 0
4, 283920, Note_on_c, 2, 72, 70
4, 283920, Note_on_c, 2, 64, 94
4, 284040, Note_on_c, 2, 64, 0
4, 284040, Note_on_c, 2, 72, 0
4, 284040, Note_on_c, 2, 74, 89
4, 284040, Note_on_c, 2, 65, 95
4, 284160, Note_on_c, 2, 65, 0
4, 284160, Note_on_c, 2, 74, 0
4, 284160, Note_on_c, 2, 72, 80
4, 284160, Note_on_c, 2, 64, 99
4, 284280, Note_on_c, 2, 64, 0
4, 284280, Note_on_c, 2, 72, 0
4, 284280, Note_on_c, 2, 74, 89
4, 284280, Note_on_c, 2, 65, 93
4, 284400, Note_on_c, 2, 65, 0
4, 284400, Note_on_c, 2, 74, 0
4, 284400, Note_on_c, 2, 72, 72
4, 284400, Note_on_c, 2, 64, 99
4, 284520, Note_on_c, 2, 64, 0
4, 284520, Note_on_c, 2, 72, 0
4, 284520, Note_on_c, 2, 74, 90
4, 284520, Note_on_c, 2, 65, 95
4, 284640, Note_on_c, 2, 65, 0
4, 284640, Note_on_c, 2, 74, 0
4, 284640, Note_on_c, 2, 72, 74
4, 284640, Note_on_c, 2, 64, 104
4, 284880, Note_on_c, 2, 64, 0
4, 284880, Note_on_c, 2, 72, 0
4, 284880, Note_on_c, 2, 72, 80
4, 284880, Note_on_c, 2, 64, 98
4, 285120, Note_on_c, 2, 64, 0
4, 285120, Note_on_c, 2, 72, 0
4, 285120, Note_on_c, 2, 72, 81
4, 285120, Note_on_c, 2, 64, 99
4, 285360, Note_on_c, 2, 64, 0
4, 285360, Note_on_c, 2, 72, 0
4, 285360, End_track
5, 0, Start_track
5, 0, MIDI_port, 0
5, 0, Title_t, "Bassoons"
5, 0, Program_c, 3, 70
5, 0, Control_c, 3, 7, 100
5, 0, Control_c, 3, 10, 95
5, 0, Control_c, 3, 93, 0
5, 0, Control_c, 3, 91, 66
5, 9960, Note_on_c, 3, 64, 104
5, 10080, Note_on_c, 3, 64, 0
5, 10080, Note_on_c, 3, 64, 101
5, 10080, Note_on_c, 3, 36, 105
5, 10140, Note_on_c, 3, 64, 0
5, 10140, Note_on_c, 3, 62, 95
5, 10200, Note_on_c, 3, 62, 0
5, 10200, Note_on_c, 3, 36, 0
5, 10200, Note_on_c, 3, 60, 89
5, 10200, Note_on_c, 3, 48, 94
5, 10260, Note_on_c, 3, 60, 0
5, 10320, Note_on_c, 3, 48, 0
5, 10320, Note_on_c, 3, 60, 93
5, 10320, Note_on_c, 3, 48, 94
5, 10380, Note_on_c, 3, 60, 0
5, 10440, Note_on_c, 3, 48, 0
5, 10440, Note_on_c, 3, 64, 99
5, 10440, Note_on_c, 3, 48, 93
5, 10500, Note_on_c, 3, 64, 0
5, 10560, Note_on_c, 3, 48, 0
5, 10560, Note_on_c, 3, 64, 99
5, 10560, Note_on_c, 3, 36, 104
5, 10620, Note_on_c, 3, 64, 0
5, 10620, Note_on_c, 3, 62, 95
5, 10680, Note_on_c, 3, 62, 0
5, 10680, Note_on_c, 3, 36, 0
5, 10680, Note_on_c, 3, 60, 99
5, 10680, Note_on_c, 3, 48, 94
5, 10740, Note_on_c, 3, 60, 0
5, 10800, Note_on_c, 3, 48, 0
5, 10800, Note_on_c, 3, 60, 95
5, 10800, Note_on_c, 3, 48, 95
5, 10860, Note_on_c, 3, 60, 0
5, 10920, Note_on_c, 3, 48, 0
5, 10920, Note_on_c, 3, 64, 104
5, 10920, Note_on_c, 3, 48, 93
5, 10980, Note_on_c, 3, 64, 0
5, 11040, Note_on_c, 3, 48, 0
5, 11040, Note_on_c, 3, 64, 99
5, 11040, Note_on_c, 3, 36, 104
5, 11100, Note_on_c, 3, 64, 0
5, 11100, Note_on_c, 3, 62, 94
5, 11160, Note_on_c, 3, 62, 0
5, 11160, Note_on_c, 3, 36, 0
5, 11160, Note_on_c, 3, 60, 99
5, 11160, Note_on_c, 3, 48, 95
5, 11220, Note_on_c, 3, 60, 0
5, 11280, Note_on_c, 3, 48, 0
5, 11280, Note_on_c, 3, 60, 99
5, 11280, Note_on_c, 3, 48, 94
5, 11340, Note_on_c, 3, 60, 0
5, 11340, Note_on_c, 3, 59, 99
5, 11400, Note_on_c, 3, 59, 0
5, 11400, Note_on_c, 3, 48, 0
5, 11400, Note_on_c, 3, 57, 105
5, 11400, Note_on_c, 3, 48, 93
5, 11460, Note_on_c, 3, 57, 0
5, 11520, Note_on_c, 3, 48, 0
5, 11520, Note_on_c, 3, 55, 84
5, 11520, Note_on_c, 3, 47, 95
5, 11580, Note_on_c, 3, 47, 0
5, 11580, Note_on_c, 3, 55, 0
5, 11640, Note_on_c, 3, 64, 94
5, 11640, Note_on_c, 3, 55, 94
5, 11700, Note_on_c, 3, 55, 0
5, 11700, Note_on_c, 3, 64, 0
5, 11760, Note_on_c, 3, 60, 84
5, 11760, Note_on_c, 3, 48, 94
5, 11820, Note_on_c, 3, 48, 0
5, 11820, Note_on_c, 3, 60, 0
5, 11880, Note_on_c, 3, 57, 82
5, 11880, Note_on_c, 3, 50, 98
5, 11940, Note_on_c, 3, 50, 0
5, 11940, Note_on_c, 3, 57, 0
5, 12000, Note_on_c, 3, 59, 85
5, 12000, Note_on_c, 3, 43, 94
5, 12060, Note_on_c, 3, 43, 0
5, 12060, Note_on_c, 3, 59, 0
5, 12120, Note_on_c, 3, 59, 82
5, 12120, Note_on_c, 3, 52, 101
5, 12180, Note_on_c, 3, 52, 0
5, 12180, Note_on_c, 3, 59, 0
5, 12240, Note_on_c, 3, 60, 85
5, 12240, Note_on_c, 3, 48, 93
5, 12300, Note_on_c, 3, 48, 0
5, 12300, Note_on_c, 3, 60, 0
5, 12360, Note_on_c, 3, 57, 80
5, 12360, Note_on_c, 3, 50, 94
5, 12420, Note_on_c, 3, 50, 0
5, 12420, Note_on_c, 3, 57, 0
5, 12480, Note_on_c, 3, 59, 99
5, 12480, Note_on_c, 3, 43, 99
5, 12540, Note_on_c, 3, 43, 0
5, 12600, Note_on_c, 3, 55, 84
5, 12660, Note_on_c, 3, 55, 0
5, 12720, Note_on_c, 3, 43, 99
5, 12780, Note_on_c, 3, 43, 0
5, 12840, Note_on_c, 3, 59, 0
5, 12840, Note_on_c, 3, 55, 94
5, 12960, Note_on_c, 3, 55, 0
5, 12960, Note_on_c, 3, 55, 95
5, 13020, Note_on_c, 3, 55, 0
5, 13020, Note_on_c, 3, 57, 99
5, 13080, Note_on_c, 3, 57, 0
5, 13080, Note_on_c, 3, 59, 104
5, 13140, Note_on_c, 3, 59, 0
5, 13200, Note_on_c, 3, 59, 99
5, 13200, Note_on_c, 3, 55, 85
5, 13260, Note_on_c, 3, 55, 0
5, 13260, Note_on_c, 3, 59, 0
5, 13260, Note_on_c, 3, 60, 80
5, 13260, Note_on_c, 3, 57, 89
5, 13320, Note_on_c, 3, 57, 0
5, 13320, Note_on_c, 3, 60, 0
5, 13320, Note_on_c, 3, 62, 98
5, 13320, Note_on_c, 3, 59, 84
5, 13380, Note_on_c, 3, 59, 0
5, 13380, Note_on_c, 3, 62, 0
5, 13440, Note_on_c, 3, 62, 89
5, 13440, Note_on_c, 3, 59, 90
5, 13800, Note_on_c, 3, 59, 0
5, 13800, Note_on_c, 3, 62, 0
5, 13800, Note_on_c, 3, 59, 101
5, 13800, Note_on_c, 3, 55, 77
5, 13920, Note_on_c, 3, 55, 0
5, 13920, Note_on_c, 3, 59, 0
5, 13920, Note_on_c, 3, 59, 99
5, 13920, Note_on_c, 3, 55, 89
5, 13980, Note_on_c, 3, 55, 0
5, 13980, Note_on_c, 3, 59, 0
5, 13980, Note_on_c, 3, 60, 80
5, 13980, Note_on_c, 3, 57, 85
5, 14040, Note_on_c, 3, 57, 0
5, 14040, Note_on_c, 3, 60, 0
5, 14040, Note_on_c, 3, 62, 94
5, 14040, Note_on_c, 3, 59, 89
5, 14100, Note_on_c, 3, 59, 0
5, 14100, Note_on_c, 3, 62, 0
5, 14160, Note_on_c, 3, 62, 104
5, 14160, Note_on_c, 3, 59, 86
5, 14220, Note_on_c, 3, 59, 0
5, 14220, Note_on_c, 3, 62, 0
5, 14220, Note_on_c, 3, 64, 98
5, 14220, Note_on_c, 3, 60, 73
5, 14280, Note_on_c, 3, 60, 0
5, 14280, Note_on_c, 3, 64, 0
5, 14280, Note_on_c, 3, 65, 93
5, 14280, Note_on_c, 3, 62, 93
5, 14340, Note_on_c, 3, 62, 0
5, 14340, Note_on_c, 3, 65, 0
5, 14400, Note_on_c, 3, 65, 93
5, 14400, Note_on_c, 3, 62, 80
5, 14760, Note_on_c, 3, 62, 0
5, 14760, Note_on_c, 3, 65, 0
5, 14880, Note_on_c, 3, 59, 94
5, 14880, Note_on_c, 3, 55, 82
5, 15000, Note_on_c, 3, 55, 0
5, 15000, Note_on_c, 3, 59, 0
5, 15000, Note_on_c, 3, 60, 105
5, 15000, Note_on_c, 3, 56, 117
5, 15120, Note_on_c, 3, 56, 0
5, 15120, Note_on_c, 3, 60, 0
5, 15120, Note_on_c, 3, 59, 95
5, 15120, Note_on_c, 3, 55, 89
5, 15480, Note_on_c, 3, 55, 0
5, 15480, Note_on_c, 3, 59, 0
5, 15480, Note_on_c, 3, 60, 105
5, 15480, Note_on_c, 3, 56, 117
5, 15600, Note_on_c, 3, 56, 0
5, 15600, Note_on_c, 3, 60, 0
5, 15600, Note_on_c, 3, 59, 95
5, 15600, Note_on_c, 3, 55, 80
5, 15960, Note_on_c, 3, 55, 0
5, 15960, Note_on_c, 3, 59, 0
5, 15960, Note_on_c, 3, 59, 80
5, 15960, Note_on_c, 3, 56, 89
5, 16080, Note_on_c, 3, 56, 0
5, 16080, Note_on_c, 3, 59, 0
5, 16080, Note_on_c, 3, 60, 86
5, 16080, Note_on_c, 3, 57, 98
5, 16140, Note_on_c, 3, 57, 0
5, 16140, Note_on_c, 3, 60, 0
5, 16200, Note_on_c, 3, 62, 80
5, 16200, Note_on_c, 3, 53, 93
5, 16260, Note_on_c, 3, 53, 0
5, 16260, Note_on_c, 3, 62, 0
5, 16320, Note_on_c, 3, 60, 84
5, 16320, Note_on_c, 3, 55, 89
5, 16380, Note_on_c, 3, 55, 0
5, 16380, Note_on_c, 3, 60, 0
5, 16440, Note_on_c, 3, 60, 93
5, 16440, Note_on_c, 3, 55, 98
5, 16500, Note_on_c, 3, 55, 0
5, 16500, Note_on_c, 3, 60, 0
5, 16560, Note_on_c, 3, 59, 90
5, 16560, Note_on_c, 3, 43, 95
5, 16620, Note_on_c, 3, 43, 0
5, 16620, Note_on_c, 3, 59, 0
5, 16680, Note_on_c, 3, 59, 84
5, 16680, Note_on_c, 3, 55, 89
5, 16740, Note_on_c, 3, 55, 0
5, 16740, Note_on_c, 3, 59, 0
5, 16800, Note_on_c, 3, 48, 78
5, 16860, Note_on_c, 3, 48, 0
5, 16860, Note_on_c, 3, 50, 104
5, 16920, Note_on_c, 3, 50, 0
5, 16920, Note_on_c, 3, 52, 101
5, 16980, Note_on_c, 3, 52, 0
5, 16980, Note_on_c, 3, 53, 95
5, 17040, Note_on_c, 3, 53, 0
5, 17040, Note_on_c, 3, 55, 86
5, 17100, Note_on_c, 3, 55, 0
5, 17100, Note_on_c, 3, 57, 95
5, 17160, Note_on_c, 3, 57, 0
5, 17160, Note_on_c, 3, 59, 98
5, 17220, Note_on_c, 3, 59, 0
5, 17220, Note_on_c, 3, 60, 95
5, 17280, Note_on_c, 3, 60, 0
5, 17280, Note_on_c, 3, 62, 98
5, 17280, Note_on_c, 3, 55, 99
5, 17340, Note_on_c, 3, 62, 0
5, 17400, Note_on_c, 3, 64, 104
5, 17460, Note_on_c, 3, 64, 0
5, 17520, Note_on_c, 3, 55, 0
5, 17520, Note_on_c, 3, 65, 94
5, 17580, Note_on_c, 3, 65, 0
5, 17640, Note_on_c, 3, 59, 99
5, 17700, Note_on_c, 3, 59, 0
5, 17760, Note_on_c, 3, 60, 125
5, 17820, Note_on_c, 3, 60, 0
5, 17820, Note_on_c, 3, 59, 117
5, 17880, Note_on_c, 3, 59, 0
5, 17880, Note_on_c, 3, 57, 119
5, 17940, Note_on_c, 3, 57, 0
5, 17940, Note_on_c, 3, 55, 123
5, 18000, Note_on_c, 3, 55, 0
5, 18000, Note_on_c, 3, 53, 119
5, 18060, Note_on_c, 3, 53, 0
5, 18060, Note_on_c, 3, 52, 119
5, 18120, Note_on_c, 3, 52, 0
5, 18120, Note_on_c, 3, 50, 119
5, 18180, Note_on_c, 3, 50, 0
5, 18180, Note_on_c, 3, 48, 110
5, 18240, Note_on_c, 3, 48, 0
5, 18240, Note_on_c, 3, 62, 99
5, 18240, Note_on_c, 3, 59, 119
5, 18300, Note_on_c, 3, 59, 0
5, 18300, Note_on_c, 3, 62, 0
5, 18360, Note_on_c, 3, 64, 104
5, 18360, Note_on_c, 3, 60, 112
5, 18420, Note_on_c, 3, 60, 0
5, 18420, Note_on_c, 3, 64, 0
5, 18480, Note_on_c, 3, 65, 104
5, 18480, Note_on_c, 3, 62, 112
5, 18540, Note_on_c, 3, 62, 0
5, 18540, Note_on_c, 3, 65, 0
5, 18600, Note_on_c, 3, 59, 105
5, 18600, Note_on_c, 3, 53, 112
5, 18660, Note_on_c, 3, 53, 0
5, 18660, Note_on_c, 3, 59, 0
5, 18720, Note_on_c, 3, 60, 105
5, 18720, Note_on_c, 3, 52, 112
5, 18780, Note_on_c, 3, 52, 0
5, 18780, Note_on_c, 3, 60, 0
5, 18840, Note_on_c, 3, 62, 99
5, 18840, Note_on_c, 3, 53, 110
5, 18900, Note_on_c, 3, 53, 0
5, 18900, Note_on_c, 3, 62, 0
5, 18960, Note_on_c, 3, 60, 104
5, 18960, Note_on_c, 3, 52, 112
5, 19020, Note_on_c, 3, 52, 0
5, 19020, Note_on_c, 3, 60, 0
5, 19080, Note_on_c, 3, 62, 98
5, 19080, Note_on_c, 3, 53, 104
5, 19140, Note_on_c, 3, 53, 0
5, 19140, Note_on_c, 3, 62, 0
5, 19200, Note_on_c, 3, 60, 104
5, 19200, Note_on_c, 3, 52, 112
5, 19440, Note_on_c, 3, 52, 0
5, 19440, Note_on_c, 3, 60, 0
5, 19560, Note_on_c, 3, 55, 72
5, 19560, Note_on_c, 3, 43, 81
5, 19680, Note_on_c, 3, 43, 0
5, 19680, Note_on_c, 3, 55, 0
5, 19680, Note_on_c, 3, 60, 67
5, 19680, Note_on_c, 3, 48, 81
5, 19740, Note_on_c, 3, 48, 0
5, 19740, Note_on_c, 3, 60, 0
5, 19800, Note_on_c, 3, 60, 57
5, 19800, Note_on_c, 3, 48, 80
5, 19860, Note_on_c, 3, 48, 0
5, 19860, Note_on_c, 3, 60, 0
5, 19920, Note_on_c, 3, 60, 53
5, 19920, Note_on_c, 3, 48, 80
5, 19980, Note_on_c, 3, 48, 0
5, 19980, Note_on_c, 3, 60, 0
5, 20040, Note_on_c, 3, 55, 69
5, 20040, Note_on_c, 3, 43, 84
5, 20100, Note_on_c, 3, 43, 0
5, 20100, Note_on_c, 3, 55, 0
5, 20160, Note_on_c, 3, 64, 115
5, 20160, Note_on_c, 3, 52, 117
5, 20520, Note_on_c, 3, 52, 0
5, 20520, Note_on_c, 3, 64, 0
5, 20520, Note_on_c, 3, 60, 80
5, 20520, Note_on_c, 3, 48, 99
5, 20640, Note_on_c, 3, 48, 0
5, 20640, Note_on_c, 3, 60, 0
5, 20640, Note_on_c, 3, 67, 84
5, 20640, Note_on_c, 3, 55, 86
5, 20700, Note_on_c, 3, 55, 0
5, 20700, Note_on_c, 3, 67, 0
5, 20760, Note_on_c, 3, 67, 82
5, 20760, Note_on_c, 3, 55, 89
5, 20820, Note_on_c, 3, 55, 0
5, 20820, Note_on_c, 3, 67, 0
5, 20880, Note_on_c, 3, 67, 80
5, 20880, Note_on_c, 3, 55, 84
5, 20940, Note_on_c, 3, 55, 0
5, 20940, Note_on_c, 3, 67, 0
5, 21000, Note_on_c, 3, 64, 94
5, 21000, Note_on_c, 3, 52, 86
5, 21060, Note_on_c, 3, 52, 0
5, 21060, Note_on_c, 3, 64, 0
5, 21120, Note_on_c, 3, 60, 69
5, 21120, Note_on_c, 3, 48, 82
5, 21360, Note_on_c, 3, 48, 0
5, 21360, Note_on_c, 3, 60, 0
5, 31680, Note_on_c, 3, 59, 81
5, 31680, Note_on_c, 3, 55, 46
5, 32040, Note_on_c, 3, 55, 0
5, 32040, Note_on_c, 3, 59, 0
5, 32040, Note_on_c, 3, 59, 105
5, 32040, Note_on_c, 3, 55, 94
5, 32160, Note_on_c, 3, 55, 0
5, 32160, Note_on_c, 3, 59, 0
5, 32160, Note_on_c, 3, 60, 72
5, 32160, Note_on_c, 3, 57, 84
5, 32520, Note_on_c, 3, 57, 0
5, 32520, Note_on_c, 3, 60, 0
5, 32520, Note_on_c, 3, 60, 99
5, 32520, Note_on_c, 3, 57, 99
5, 32640, Note_on_c, 3, 57, 0
5, 32640, Note_on_c, 3, 60, 0
5, 32640, Note_on_c, 3, 59, 89
5, 32640, Note_on_c, 3, 55, 67
5, 33000, Note_on_c, 3, 55, 0
5, 33000, Note_on_c, 3, 59, 0
5, 33000, Note_on_c, 3, 59, 104
5, 33000, Note_on_c, 3, 55, 90
5, 33120, Note_on_c, 3, 55, 0
5, 33120, Note_on_c, 3, 59, 0
5, 33120, Note_on_c, 3, 60, 86
5, 33120, Note_on_c, 3, 57, 76
5, 33360, Note_on_c, 3, 57, 0
5, 33360, Note_on_c, 3, 60, 0
5, 33840, Note_on_c, 3, 60, 73
5, 33840, Note_on_c, 3, 57, 68
5, 33900, Note_on_c, 3, 57, 0
5, 33900, Note_on_c, 3, 60, 0
5, 33960, Note_on_c, 3, 60, 76
5, 33960, Note_on_c, 3, 57, 81
5, 34020, Note_on_c, 3, 57, 0
5, 34020, Note_on_c, 3, 60, 0
5, 34320, Note_on_c, 3, 59, 70
5, 34320, Note_on_c, 3, 55, 58
5, 34380, Note_on_c, 3, 55, 0
5, 34380, Note_on_c, 3, 59, 0
5, 34440, Note_on_c, 3, 59, 76
5, 34440, Note_on_c, 3, 55, 68
5, 34500, Note_on_c, 3, 55, 0
5, 34500, Note_on_c, 3, 59, 0
5, 34560, Note_on_c, 3, 60, 74
5, 34680, Note_on_c, 3, 60, 0
5, 34680, Note_on_c, 3, 59, 76
5, 34800, Note_on_c, 3, 59, 0
5, 34800, Note_on_c, 3, 60, 67
5, 34920, Note_on_c, 3, 60, 0
5, 34920, Note_on_c, 3, 61, 66
5, 35040, Note_on_c, 3, 61, 0
5, 35040, Note_on_c, 3, 62, 71
5, 35280, Note_on_c, 3, 62, 0
5, 35520, Note_on_c, 3, 62, 73
5, 36480, Note_on_c, 3, 62, 0
5, 36480, Note_on_c, 3, 62, 67
5, 37200, Note_on_c, 3, 62, 0
5, 40800, Note_on_c, 3, 43, 69
5, 40920, Note_on_c, 3, 43, 0
5, 40920, Note_on_c, 3, 55, 53
5, 41040, Note_on_c, 3, 55, 0
5, 41040, Note_on_c, 3, 55, 71
5, 41160, Note_on_c, 3, 55, 0
5, 41160, Note_on_c, 3, 55, 69
5, 41280, Note_on_c, 3, 55, 0
5, 41280, Note_on_c, 3, 55, 66
5, 41400, Note_on_c, 3, 55, 0
5, 41400, Note_on_c, 3, 55, 69
5, 41520, Note_on_c, 3, 55, 0
5, 41520, Note_on_c, 3, 56, 73
5, 41580, Note_on_c, 3, 56, 0
5, 41580, Note_on_c, 3, 55, 65
5, 41640, Note_on_c, 3, 55, 0
5, 41640, Note_on_c, 3, 53, 45
5, 41700, Note_on_c, 3, 53, 0
5, 41700, Note_on_c, 3, 55, 54
5, 41760, Note_on_c, 3, 55, 0
5, 41760, Note_on_c, 3, 56, 73
5, 41880, Note_on_c, 3, 56, 0
5, 41880, Note_on_c, 3, 55, 77
5, 42000, Note_on_c, 3, 55, 0
5, 42000, Note_on_c, 3, 53, 76
5, 42120, Note_on_c, 3, 53, 0
5, 42120, Note_on_c, 3, 51, 86
5, 42240, Note_on_c, 3, 51, 0
5, 42240, Note_on_c, 3, 50, 95
5, 42360, Note_on_c, 3, 50, 0
5, 42360, Note_on_c, 3, 48, 86
5, 42480, Note_on_c, 3, 48, 0
5, 42480, Note_on_c, 3, 50, 101
5, 42600, Note_on_c, 3, 50, 0
5, 42600, Note_on_c, 3, 46, 80
5, 42720, Note_on_c, 3, 46, 0
5, 42720, Note_on_c, 3, 51, 43
5, 42840, Note_on_c, 3, 51, 0
5, 50400, Note_on_c, 3, 62, 72
5, 51360, Note_on_c, 3, 62, 0
5, 51360, Note_on_c, 3, 64, 72
5, 51600, Note_on_c, 3, 64, 0
5, 51600, Note_on_c, 3, 62, 74
5, 51840, Note_on_c, 3, 62, 0
5, 51840, Note_on_c, 3, 62, 69
5, 52080, Note_on_c, 3, 62, 0
5, 61440, Note_on_c, 3, 55, 77
5, 61440, Note_on_c, 3, 43, 86
5, 61800, Note_on_c, 3, 43, 0
5, 61800, Note_on_c, 3, 55, 0
5, 61800, Note_on_c, 3, 55, 81
5, 61800, Note_on_c, 3, 43, 89
5, 61920, Note_on_c, 3, 43, 0
5, 61920, Note_on_c, 3, 55, 0
5, 61920, Note_on_c, 3, 55, 80
5, 61920, Note_on_c, 3, 43, 81
5, 62040, Note_on_c, 3, 43, 0
5, 62040, Note_on_c, 3, 55, 0
5, 62040, Note_on_c, 3, 55, 80
5, 62040, Note_on_c, 3, 43, 93
5, 62160, Note_on_c, 3, 43, 0
5, 62160, Note_on_c, 3, 55, 0
5, 62160, Note_on_c, 3, 55, 74
5, 62160, Note_on_c, 3, 43, 84
5, 62280, Note_on_c, 3, 43, 0
5, 62280, Note_on_c, 3, 55, 0
5, 62280, Note_on_c, 3, 55, 68
5, 62280, Note_on_c, 3, 43, 85
5, 62400, Note_on_c, 3, 43, 0
5, 62400, Note_on_c, 3, 55, 0
5, 62400, Note_on_c, 3, 56, 80
5, 62400, Note_on_c, 3, 44, 94
5, 62760, Note_on_c, 3, 44, 0
5, 62760, Note_on_c, 3, 56, 0
5, 62760, Note_on_c, 3, 56, 65
5, 62880, Note_on_c, 3, 56, 0
5, 62880, Note_on_c, 3, 60, 67
5, 63000, Note_on_c, 3, 60, 0
5, 63000, Note_on_c, 3, 61, 64
5, 63120, Note_on_c, 3, 61, 0
5, 63120, Note_on_c, 3, 61, 64
5, 63180, Note_on_c, 3, 61, 0
5, 63240, Note_on_c, 3, 56, 72
5, 63300, Note_on_c, 3, 56, 0
5, 63360, Note_on_c, 3, 60, 72
5, 63480, Note_on_c, 3, 60, 0
5, 63480, Note_on_c, 3, 61, 68
5, 63600, Note_on_c, 3, 61, 0
5, 63600, Note_on_c, 3, 61, 56
5, 63660, Note_on_c, 3, 61, 0
5, 63720, Note_on_c, 3, 55, 84
5, 63720, Note_on_c, 3, 43, 90
5, 63840, Note_on_c, 3, 43, 0
5, 63840, Note_on_c, 3, 55, 0
5, 63840, Note_on_c, 3, 56, 84
5, 63840, Note_on_c, 3, 44, 95
5, 63960, Note_on_c, 3, 44, 0
5, 63960, Note_on_c, 3, 56, 0
5, 63960, Note_on_c, 3, 56, 81
5, 63960, Note_on_c, 3, 44, 95
5, 64080, Note_on_c, 3, 44, 0
5, 64080, Note_on_c, 3, 56, 0
5, 64080, Note_on_c, 3, 57, 94
5, 64080, Note_on_c, 3, 45, 85
5, 64200, Note_on_c, 3, 45, 0
5, 64200, Note_on_c, 3, 57, 0
5, 64200, Note_on_c, 3, 57, 89
5, 64200, Note_on_c, 3, 45, 65
5, 64320, Note_on_c, 3, 45, 0
5, 64320, Note_on_c, 3, 57, 0
5, 64320, Note_on_c, 3, 58, 78
5, 64320, Note_on_c, 3, 46, 94
5, 64680, Note_on_c, 3, 46, 0
5, 64680, Note_on_c, 3, 58, 0
5, 64680, Note_on_c, 3, 58, 59
5, 64800, Note_on_c, 3, 58, 0
5, 64800, Note_on_c, 3, 62, 63
5, 64920, Note_on_c, 3, 62, 0
5, 64920, Note_on_c, 3, 63, 60
5, 65040, Note_on_c, 3, 63, 0
5, 65040, Note_on_c, 3, 63, 58
5, 65100, Note_on_c, 3, 63, 0
5, 65160, Note_on_c, 3, 58, 50
5, 65220, Note_on_c, 3, 58, 0
5, 65280, Note_on_c, 3, 62, 68
5, 65400, Note_on_c, 3, 62, 0
5, 65400, Note_on_c, 3, 63, 61
5, 65520, Note_on_c, 3, 63, 0
5, 65520, Note_on_c, 3, 63, 57
5, 65580, Note_on_c, 3, 63, 0
5, 65640, Note_on_c, 3, 57, 99
5, 65640, Note_on_c, 3, 45, 99
5, 65760, Note_on_c, 3, 45, 0
5, 65760, Note_on_c, 3, 57, 0
5, 65760, Note_on_c, 3, 58, 85
5, 65760, Note_on_c, 3, 46, 98
5, 65880, Note_on_c, 3, 46, 0
5, 65880, Note_on_c, 3, 58, 0
5, 65880, Note_on_c, 3, 58, 93
5, 65880, Note_on_c, 3, 46, 99
5, 66000, Note_on_c, 3, 46, 0
5, 66000, Note_on_c, 3, 58, 0
5, 66000, Note_on_c, 3, 59, 93
5, 66000, Note_on_c, 3, 47, 94
5, 66120, Note_on_c, 3, 47, 0
5, 66120, Note_on_c, 3, 59, 0
5, 66120, Note_on_c, 3, 59, 90
5, 66120, Note_on_c, 3, 47, 99
5, 66240, Note_on_c, 3, 47, 0
5, 66240, Note_on_c, 3, 59, 0
5, 66240, Note_on_c, 3, 60, 86
5, 66240, Note_on_c, 3, 48, 94
5, 66600, Note_on_c, 3, 48, 0
5, 66600, Note_on_c, 3, 60, 0
5, 82440, Note_on_c, 3, 64, 104
5, 82560, Note_on_c, 3, 64, 0
5, 82560, Note_on_c, 3, 64, 101
5, 82560, Note_on_c, 3, 36, 105
5, 82620, Note_on_c, 3, 64, 0
5, 82620, Note_on_c, 3, 62, 95
5, 82680, Note_on_c, 3, 62, 0
5, 82680, Note_on_c, 3, 36, 0
5, 82680, Note_on_c, 3, 60, 89
5, 82680, Note_on_c, 3, 48, 94
5, 82740, Note_on_c, 3, 60, 0
5, 82800, Note_on_c, 3, 48, 0
5, 82800, Note_on_c, 3, 60, 93
5, 82800, Note_on_c, 3, 48, 94
5, 82860, Note_on_c, 3, 60, 0
5, 82920, Note_on_c, 3, 48, 0
5, 82920, Note_on_c, 3, 64, 99
5, 82920, Note_on_c, 3, 48, 93
5, 82980, Note_on_c, 3, 64, 0
5, 83040, Note_on_c, 3, 48, 0
5, 83040, Note_on_c, 3, 64, 99
5, 83040, Note_on_c, 3, 36, 104
5, 83100, Note_on_c, 3, 64, 0
5, 83100, Note_on_c, 3, 62, 95
5, 83160, Note_on_c, 3, 62, 0
5, 83160, Note_on_c, 3, 36, 0
5, 83160, Note_on_c, 3, 60, 99
5, 83160, Note_on_c, 3, 48, 94
5, 83220, Note_on_c, 3, 60, 0
5, 83280, Note_on_c, 3, 48, 0
5, 83280, Note_on_c, 3, 60, 95
5, 83280, Note_on_c, 3, 48, 95
5, 83340, Note_on_c, 3, 60, 0
5, 83400, Note_on_c, 3, 48, 0
5, 83400, Note_on_c, 3, 64, 104
5, 83400, Note_on_c, 3, 48, 93
5, 83460, Note_on_c, 3, 64, 0
5, 83520, Note_on_c, 3, 48, 0
5, 83520, Note_on_c, 3, 64, 99
5, 83520, Note_on_c, 3, 36, 104
5, 83580, Note_on_c, 3, 64, 0
5, 83580, Note_on_c, 3, 62, 94
5, 83640, Note_on_c, 3, 62, 0
5, 83640, Note_on_c, 3, 36, 0
5, 83640, Note_on_c, 3, 60, 99
5, 83640, Note_on_c, 3, 48, 95
5, 83700, Note_on_c, 3, 60, 0
5, 83760, Note_on_c, 3, 48, 0
5, 83760, Note_on_c, 3, 60, 99
5, 83760, Note_on_c, 3, 48, 94
5, 83820, Note_on_c, 3, 60, 0
5, 83820, Note_on_c, 3, 59, 99
5, 83880, Note_on_c, 3, 59, 0
5, 83880, Note_on_c, 3, 48, 0
5, 83880, Note_on_c, 3, 57, 105
5, 83880, Note_on_c, 3, 48, 93
5, 83940, Note_on_c, 3, 57, 0
5, 84000, Note_on_c, 3, 48, 0
5, 84000, Note_on_c, 3, 55, 84
5, 84000, Note_on_c, 3, 47, 95
5, 84060, Note_on_c, 3, 47, 0
5, 84060, Note_on_c, 3, 55, 0
5, 84120, Note_on_c, 3, 64, 94
5, 84120, Note_on_c, 3, 55, 94
5, 84180, Note_on_c, 3, 55, 0
5, 84180, Note_on_c, 3, 64, 0
5, 84240, Note_on_c, 3, 60, 84
5, 84240, Note_on_c, 3, 48, 94
5, 84300, Note_on_c, 3, 48, 0
5, 84300, Note_on_c, 3, 60, 0
5, 84360, Note_on_c, 3, 57, 82
5, 84360, Note_on_c, 3, 50, 98
5, 84420, Note_on_c, 3, 50, 0
5, 84420, Note_on_c, 3, 57, 0
5, 84480, Note_on_c, 3, 59, 85
5, 84480, Note_on_c, 3, 43, 94
5, 84540, Note_on_c, 3, 43, 0
5, 84540, Note_on_c, 3, 59, 0
5, 84600, Note_on_c, 3, 59, 82
5, 84600, Note_on_c, 3, 52, 101
5, 84660, Note_on_c, 3, 52, 0
5, 84660, Note_on_c, 3, 59, 0
5, 84720, Note_on_c, 3, 60, 85
5, 84720, Note_on_c, 3, 48, 93
5, 84780, Note_on_c, 3, 48, 0
5, 84780, Note_on_c, 3, 60, 0
5, 84840, Note_on_c, 3, 57, 80
5, 84840, Note_on_c, 3, 50, 94
5, 84900, Note_on_c, 3, 50, 0
5, 84900, Note_on_c, 3, 57, 0
5, 84960, Note_on_c, 3, 59, 99
5, 84960, Note_on_c, 3, 43, 99
5, 85020, Note_on_c, 3, 43, 0
5, 85080, Note_on_c, 3, 55, 84
5, 85140, Note_on_c, 3, 55, 0
5, 85200, Note_on_c, 3, 43, 99
5, 85260, Note_on_c, 3, 43, 0
5, 85320, Note_on_c, 3, 59, 0
5, 85320, Note_on_c, 3, 55, 94
5, 85440, Note_on_c, 3, 55, 0
5, 85440, Note_on_c, 3, 55, 95
5, 85500, Note_on_c, 3, 55, 0
5, 85500, Note_on_c, 3, 57, 99
5, 85560, Note_on_c, 3, 57, 0
5, 85560, Note_on_c, 3, 59, 104
5, 85620, Note_on_c, 3, 59, 0
5, 85680, Note_on_c, 3, 59, 99
5, 85680, Note_on_c, 3, 55, 85
5, 85740, Note_on_c, 3, 55, 0
5, 85740, Note_on_c, 3, 59, 0
5, 85740, Note_on_c, 3, 60, 80
5, 85740, Note_on_c, 3, 57, 89
5, 85800, Note_on_c, 3, 57, 0
5, 85800, Note_on_c, 3, 60, 0
5, 85800, Note_on_c, 3, 62, 98
5, 85800, Note_on_c, 3, 59, 84
5, 85860, Note_on_c, 3, 59, 0
5, 85860, Note_on_c, 3, 62, 0
5, 85920, Note_on_c, 3, 62, 89
5, 85920, Note_on_c, 3, 59, 78
5, 86280, Note_on_c, 3, 59, 0
5, 86280, Note_on_c, 3, 62, 0
5, 86280, Note_on_c, 3, 59, 101
5, 86280, Note_on_c, 3, 55, 77
5, 86400, Note_on_c, 3, 55, 0
5, 86400, Note_on_c, 3, 59, 0
5, 86400, Note_on_c, 3, 59, 99
5, 86400, Note_on_c, 3, 55, 89
5, 86460, Note_on_c, 3, 55, 0
5, 86460, Note_on_c, 3, 59, 0
5, 86460, Note_on_c, 3, 60, 80
5, 86460, Note_on_c, 3, 57, 85
5, 86520, Note_on_c, 3, 57, 0
5, 86520, Note_on_c, 3, 60, 0
5, 86520, Note_on_c, 3, 62, 94
5, 86520, Note_on_c, 3, 59, 89
5, 86580, Note_on_c, 3, 59, 0
5, 86580, Note_on_c, 3, 62, 0
5, 86640, Note_on_c, 3, 62, 104
5, 86640, Note_on_c, 3, 59, 86
5, 86700, Note_on_c, 3, 59, 0
5, 86700, Note_on_c, 3, 62, 0
5, 86700, Note_on_c, 3, 64, 98
5, 86700, Note_on_c, 3, 60, 73
5, 86760, Note_on_c, 3, 60, 0
5, 86760, Note_on_c, 3, 64, 0
5, 86760, Note_on_c, 3, 65, 93
5, 86760, Note_on_c, 3, 62, 93
5, 86820, Note_on_c, 3, 62, 0
5, 86820, Note_on_c, 3, 65, 0
5, 86880, Note_on_c, 3, 65, 94
5, 86880, Note_on_c, 3, 62, 82
5, 87240, Note_on_c, 3, 62, 0
5, 87240, Note_on_c, 3, 65, 0
5, 87360, Note_on_c, 3, 59, 94
5, 87360, Note_on_c, 3, 55, 82
5, 87480, Note_on_c, 3, 55, 0
5, 87480, Note_on_c, 3, 59, 0
5, 87480, Note_on_c, 3, 60, 105
5, 87480, Note_on_c, 3, 56, 117
5, 87600, Note_on_c, 3, 56, 0
5, 87600, Note_on_c, 3, 60, 0
5, 87600, Note_on_c, 3, 59, 95
5, 87600, Note_on_c, 3, 55, 89
5, 87960, Note_on_c, 3, 55, 0
5, 87960, Note_on_c, 3, 59, 0
5, 87960, Note_on_c, 3, 60, 105
5, 87960, Note_on_c, 3, 56, 117
5, 88080, Note_on_c, 3, 56, 0
5, 88080, Note_on_c, 3, 60, 0
5, 88080, Note_on_c, 3, 59, 95
5, 88080, Note_on_c, 3, 55, 80
5, 88440, Note_on_c, 3, 55, 0
5, 88440, Note_on_c, 3, 59, 0
5, 88440, Note_on_c, 3, 59, 80
5, 88440, Note_on_c, 3, 56, 89
5, 88560, Note_on_c, 3, 56, 0
5, 88560, Note_on_c, 3, 59, 0
5, 88560, Note_on_c, 3, 60, 86
5, 88560, Note_on_c, 3, 57, 98
5, 88620, Note_on_c, 3, 57, 0
5, 88620, Note_on_c, 3, 60, 0
5, 88680, Note_on_c, 3, 62, 80
5, 88680, Note_on_c, 3, 53, 93
5, 88740, Note_on_c, 3, 53, 0
5, 88740, Note_on_c, 3, 62, 0
5, 88800, Note_on_c, 3, 60, 84
5, 88800, Note_on_c, 3, 55, 89
5, 88860, Note_on_c, 3, 55, 0
5, 88860, Note_on_c, 3, 60, 0
5, 88920, Note_on_c, 3, 60, 93
5, 88920, Note_on_c, 3, 55, 98
5, 88980, Note_on_c, 3, 55, 0
5, 88980, Note_on_c, 3, 60, 0
5, 89040, Note_on_c, 3, 59, 90
5, 89040, Note_on_c, 3, 43, 95
5, 89100, Note_on_c, 3, 43, 0
5, 89100, Note_on_c, 3, 59, 0
5, 89160, Note_on_c, 3, 59, 84
5, 89160, Note_on_c, 3, 55, 89
5, 89220, Note_on_c, 3, 55, 0
5, 89220, Note_on_c, 3, 59, 0
5, 89280, Note_on_c, 3, 48, 78
5, 89340, Note_on_c, 3, 48, 0
5, 89340, Note_on_c, 3, 50, 104
5, 89400, Note_on_c, 3, 50, 0
5, 89400, Note_on_c, 3, 52, 101
5, 89460, Note_on_c, 3, 52, 0
5, 89460, Note_on_c, 3, 53, 95
5, 89520, Note_on_c, 3, 53, 0
5, 89520, Note_on_c, 3, 55, 86
5, 89580, Note_on_c, 3, 55, 0
5, 89580, Note_on_c, 3, 57, 95
5, 89640, Note_on_c, 3, 57, 0
5, 89640, Note_on_c, 3, 59, 98
5, 89700, Note_on_c, 3, 59, 0
5, 89700, Note_on_c, 3, 60, 95
5, 89760, Note_on_c, 3, 60, 0
5, 89760, Note_on_c, 3, 62, 98
5, 89760, Note_on_c, 3, 55, 99
5, 89820, Note_on_c, 3, 62, 0
5, 89880, Note_on_c, 3, 64, 104
5, 89940, Note_on_c, 3, 64, 0
5, 90000, Note_on_c, 3, 55, 0
5, 90000, Note_on_c, 3, 65, 94
5, 90060, Note_on_c, 3, 65, 0
5, 90120, Note_on_c, 3, 59, 99
5, 90180, Note_on_c, 3, 59, 0
5, 90240, Note_on_c, 3, 60, 125
5, 90300, Note_on_c, 3, 60, 0
5, 90300, Note_on_c, 3, 59, 117
5, 90360, Note_on_c, 3, 59, 0
5, 90360, Note_on_c, 3, 57, 119
5, 90420, Note_on_c, 3, 57, 0
5, 90420, Note_on_c, 3, 55, 123
5, 90480, Note_on_c, 3, 55, 0
5, 90480, Note_on_c, 3, 53, 119
5, 90540, Note_on_c, 3, 53, 0
5, 90540, Note_on_c, 3, 52, 119
5, 90600, Note_on_c, 3, 52, 0
5, 90600, Note_on_c, 3, 50, 119
5, 90660, Note_on_c, 3, 50, 0
5, 90660, Note_on_c, 3, 48, 110
5, 90720, Note_on_c, 3, 48, 0
5, 90720, Note_on_c, 3, 62, 99
5, 90720, Note_on_c, 3, 59, 119
5, 90780, Note_on_c, 3, 59, 0
5, 90780, Note_on_c, 3, 62, 0
5, 90840, Note_on_c, 3, 64, 104
5, 90840, Note_on_c, 3, 60, 112
5, 90900, Note_on_c, 3, 60, 0
5, 90900, Note_on_c, 3, 64, 0
5, 90960, Note_on_c, 3, 65, 104
5, 90960, Note_on_c, 3, 62, 112
5, 91020, Note_on_c, 3, 62, 0
5, 91020, Note_on_c, 3, 65, 0
5, 91080, Note_on_c, 3, 59, 105
5, 91080, Note_on_c, 3, 53, 112
5, 91140, Note_on_c, 3, 53, 0
5, 91140, Note_on_c, 3, 59, 0
5, 91200, Note_on_c, 3, 60, 105
5, 91200, Note_on_c, 3, 52, 112
5, 91260, Note_on_c, 3, 52, 0
5, 91260, Note_on_c, 3, 60, 0
5, 91320, Note_on_c, 3, 62, 99
5, 91320, Note_on_c, 3, 53, 110
5, 91380, Note_on_c, 3, 53, 0
5, 91380, Note_on_c, 3, 62, 0
5, 91440, Note_on_c, 3, 60, 104
5, 91440, Note_on_c, 3, 52, 112
5, 91500, Note_on_c, 3, 52, 0
5, 91500, Note_on_c, 3, 60, 0
5, 91560, Note_on_c, 3, 62, 98
5, 91560, Note_on_c, 3, 53, 104
5, 91620, Note_on_c, 3, 53, 0
5, 91620, Note_on_c, 3, 62, 0
5, 91680, Note_on_c, 3, 60, 104
5, 91680, Note_on_c, 3, 52, 112
5, 91920, Note_on_c, 3, 52, 0
5, 91920, Note_on_c, 3, 60, 0
5, 96600, Note_on_c, 3, 52, 74
5, 96720, Note_on_c, 3, 52, 0
5, 96720, Note_on_c, 3, 62, 46
5, 96840, Note_on_c, 3, 62, 0
5, 96840, Note_on_c, 3, 59, 53
5, 96960, Note_on_c, 3, 59, 0
5, 96960, Note_on_c, 3, 60, 47
5, 97080, Note_on_c, 3, 60, 0
5, 97560, Note_on_c, 3, 52, 81
5, 97680, Note_on_c, 3, 52, 0
5, 97680, Note_on_c, 3, 62, 43
5, 97800, Note_on_c, 3, 62, 0
5, 97800, Note_on_c, 3, 59, 68
5, 97920, Note_on_c, 3, 59, 0
5, 97920, Note_on_c, 3, 60, 54
5, 98040, Note_on_c, 3, 60, 0
5, 98520, Note_on_c, 3, 64, 69
5, 98640, Note_on_c, 3, 64, 0
5, 98640, Note_on_c, 3, 67, 63
5, 98760, Note_on_c, 3, 67, 0
5, 98760, Note_on_c, 3, 64, 69
5, 98880, Note_on_c, 3, 64, 0
5, 98880, Note_on_c, 3, 59, 72
5, 99120, Note_on_c, 3, 59, 0
5, 99120, Note_on_c, 3, 47, 77
5, 99360, Note_on_c, 3, 47, 0
5, 99360, Note_on_c, 3, 52, 54
5, 99480, Note_on_c, 3, 52, 0
5, 104640, Note_on_c, 3, 57, 66
5, 104760, Note_on_c, 3, 57, 0
5, 104760, Note_on_c, 3, 59, 64
5, 104880, Note_on_c, 3, 59, 0
5, 104880, Note_on_c, 3, 60, 45
5, 105000, Note_on_c, 3, 60, 0
5, 105000, Note_on_c, 3, 61, 43
5, 105120, Note_on_c, 3, 61, 0
5, 105120, Note_on_c, 3, 62, 50
5, 105480, Note_on_c, 3, 62, 0
5, 105480, Note_on_c, 3, 60, 61
5, 105600, Note_on_c, 3, 60, 0
5, 105600, Note_on_c, 3, 59, 49
5, 105720, Note_on_c, 3, 59, 0
5, 105720, Note_on_c, 3, 55, 57
5, 105840, Note_on_c, 3, 55, 0
5, 105840, Note_on_c, 3, 57, 69
5, 105960, Note_on_c, 3, 57, 0
5, 105960, Note_on_c, 3, 59, 45
5, 106080, Note_on_c, 3, 59, 0
5, 106080, Note_on_c, 3, 60, 55
5, 106200, Note_on_c, 3, 60, 0
5, 106200, Note_on_c, 3, 59, 57
5, 106320, Note_on_c, 3, 59, 0
5, 106320, Note_on_c, 3, 57, 61
5, 106440, Note_on_c, 3, 57, 0
5, 106440, Note_on_c, 3, 55, 45
5, 106560, Note_on_c, 3, 55, 0
5, 106560, Note_on_c, 3, 53, 52
5, 106680, Note_on_c, 3, 53, 0
5, 106680, Note_on_c, 3, 52, 62
5, 106800, Note_on_c, 3, 52, 0
5, 106800, Note_on_c, 3, 50, 46
5, 106920, Note_on_c, 3, 50, 0
5, 106920, Note_on_c, 3, 48, 56
5, 107040, Note_on_c, 3, 48, 0
5, 107040, Note_on_c, 3, 53, 65
5, 107280, Note_on_c, 3, 53, 0
5, 107280, Note_on_c, 3, 55, 62
5, 107520, Note_on_c, 3, 55, 0
5, 107520, Note_on_c, 3, 48, 52
5, 107640, Note_on_c, 3, 48, 0
5, 107640, Note_on_c, 3, 67, 60
5, 107760, Note_on_c, 3, 67, 0
5, 107760, Note_on_c, 3, 65, 72
5, 107880, Note_on_c, 3, 65, 0
5, 107880, Note_on_c, 3, 64, 54
5, 108000, Note_on_c, 3, 64, 0
5, 108000, Note_on_c, 3, 62, 48
5, 108120, Note_on_c, 3, 62, 0
5, 108120, Note_on_c, 3, 60, 57
5, 108240, Note_on_c, 3, 60, 0
5, 108240, Note_on_c, 3, 59, 43
5, 108360, Note_on_c, 3, 59, 0
5, 108360, Note_on_c, 3, 60, 58
5, 108480, Note_on_c, 3, 60, 0
5, 108480, Note_on_c, 3, 62, 57
5, 108720, Note_on_c, 3, 62, 0
5, 108720, Note_on_c, 3, 64, 46
5, 108960, Note_on_c, 3, 64, 0
5, 108960, Note_on_c, 3, 57, 65
5, 109080, Note_on_c, 3, 57, 0
5, 119520, Note_on_c, 3, 62, 54
5, 119640, Note_on_c, 3, 62, 0
5, 119640, Note_on_c, 3, 64, 74
5, 119760, Note_on_c, 3, 64, 0
5, 119760, Note_on_c, 3, 65, 73
5, 119880, Note_on_c, 3, 65, 0
5, 119880, Note_on_c, 3, 66, 69
5, 120000, Note_on_c, 3, 66, 0
5, 120000, Note_on_c, 3, 67, 46
5, 120360, Note_on_c, 3, 67, 0
5, 120360, Note_on_c, 3, 65, 46
5, 120480, Note_on_c, 3, 65, 0
5, 120480, Note_on_c, 3, 64, 63
5, 120600, Note_on_c, 3, 64, 0
5, 120600, Note_on_c, 3, 60, 62
5, 120720, Note_on_c, 3, 60, 0
5, 120720, Note_on_c, 3, 62, 61
5, 120840, Note_on_c, 3, 62, 0
5, 120840, Note_on_c, 3, 64, 65
5, 120960, Note_on_c, 3, 64, 0
5, 120960, Note_on_c, 3, 65, 59
5, 121080, Note_on_c, 3, 65, 0
5, 121080, Note_on_c, 3, 64, 69
5, 121200, Note_on_c, 3, 64, 0
5, 121200, Note_on_c, 3, 62, 53
5, 121320, Note_on_c, 3, 62, 0
5, 121320, Note_on_c, 3, 60, 59
5, 121440, Note_on_c, 3, 60, 0
5, 121440, Note_on_c, 3, 58, 58
5, 121560, Note_on_c, 3, 58, 0
5, 121560, Note_on_c, 3, 57, 84
5, 121680, Note_on_c, 3, 57, 0
5, 121680, Note_on_c, 3, 55, 53
5, 121800, Note_on_c, 3, 55, 0
5, 121800, Note_on_c, 3, 53, 45
5, 121920, Note_on_c, 3, 53, 0
5, 121920, Note_on_c, 3, 58, 73
5, 122160, Note_on_c, 3, 58, 0
5, 122160, Note_on_c, 3, 60, 68
5, 122400, Note_on_c, 3, 60, 0
5, 122400, Note_on_c, 3, 53, 58
5, 122520, Note_on_c, 3, 53, 0
5, 123000, Note_on_c, 3, 65, 66
5, 123120, Note_on_c, 3, 65, 0
5, 123120, Note_on_c, 3, 64, 61
5, 123240, Note_on_c, 3, 64, 0
5, 123240, Note_on_c, 3, 62, 47
5, 123360, Note_on_c, 3, 62, 0
5, 123360, Note_on_c, 3, 55, 62
5, 123600, Note_on_c, 3, 55, 0
5, 123600, Note_on_c, 3, 57, 67
5, 123840, Note_on_c, 3, 57, 0
5, 123840, Note_on_c, 3, 50, 61
5, 123960, Note_on_c, 3, 50, 0
5, 124440, Note_on_c, 3, 60, 59
5, 124440, Note_on_c, 3, 57, 61
5, 124560, Note_on_c, 3, 57, 0
5, 124560, Note_on_c, 3, 60, 0
5, 124560, Note_on_c, 3, 62, 80
5, 124560, Note_on_c, 3, 59, 84
5, 124680, Note_on_c, 3, 59, 0
5, 124680, Note_on_c, 3, 62, 0
5, 124680, Note_on_c, 3, 64, 84
5, 124680, Note_on_c, 3, 60, 90
5, 124800, Note_on_c, 3, 60, 0
5, 124800, Note_on_c, 3, 64, 0
5, 124800, Note_on_c, 3, 65, 46
5, 124800, Note_on_c, 3, 62, 43
5, 125040, Note_on_c, 3, 62, 0
5, 125040, Note_on_c, 3, 65, 0
5, 125040, Note_on_c, 3, 64, 40
5, 125040, Note_on_c, 3, 62, 37
5, 125280, Note_on_c, 3, 62, 0
5, 125280, Note_on_c, 3, 64, 0
5, 125280, Note_on_c, 3, 64, 43
5, 125280, Note_on_c, 3, 60, 42
5, 125400, Note_on_c, 3, 60, 0
5, 125400, Note_on_c, 3, 64, 0
5, 131040, Note_on_c, 3, 45, 105
5, 131400, Note_on_c, 3, 45, 0
5, 131400, Note_on_c, 3, 45, 101
5, 131520, Note_on_c, 3, 45, 0
5, 131520, Note_on_c, 3, 45, 99
5, 131640, Note_on_c, 3, 45, 0
5, 131640, Note_on_c, 3, 45, 104
5, 131760, Note_on_c, 3, 45, 0
5, 131760, Note_on_c, 3, 45, 101
5, 131880, Note_on_c, 3, 45, 0
5, 131880, Note_on_c, 3, 45, 105
5, 132000, Note_on_c, 3, 45, 0
5, 132000, Note_on_c, 3, 46, 104
5, 132360, Note_on_c, 3, 46, 0
5, 132360, Note_on_c, 3, 58, 69
5, 132480, Note_on_c, 3, 58, 0
5, 132480, Note_on_c, 3, 62, 72
5, 132600, Note_on_c, 3, 62, 0
5, 132600, Note_on_c, 3, 63, 68
5, 132720, Note_on_c, 3, 63, 0
5, 132720, Note_on_c, 3, 63, 67
5, 132780, Note_on_c, 3, 63, 0
5, 132840, Note_on_c, 3, 58, 57
5, 132960, Note_on_c, 3, 58, 0
5, 132960, Note_on_c, 3, 62, 65
5, 133080, Note_on_c, 3, 62, 0
5, 133080, Note_on_c, 3, 63, 61
5, 133200, Note_on_c, 3, 63, 0
5, 133200, Note_on_c, 3, 63, 69
5, 133260, Note_on_c, 3, 63, 0
5, 133320, Note_on_c, 3, 45, 112
5, 133440, Note_on_c, 3, 45, 0
5, 133440, Note_on_c, 3, 58, 80
5, 133560, Note_on_c, 3, 58, 0
5, 133560, Note_on_c, 3, 58, 80
5, 133680, Note_on_c, 3, 58, 0
5, 133680, Note_on_c, 3, 59, 86
5, 133800, Note_on_c, 3, 59, 0
5, 133800, Note_on_c, 3, 59, 86
5, 133920, Note_on_c, 3, 59, 0
5, 133920, Note_on_c, 3, 60, 85
5, 134280, Note_on_c, 3, 60, 0
5, 134280, Note_on_c, 3, 60, 70
5, 134400, Note_on_c, 3, 60, 0
5, 134400, Note_on_c, 3, 64, 72
5, 134520, Note_on_c, 3, 64, 0
5, 134520, Note_on_c, 3, 65, 52
5, 134640, Note_on_c, 3, 65, 0
5, 134640, Note_on_c, 3, 65, 53
5, 134700, Note_on_c, 3, 65, 0
5, 134760, Note_on_c, 3, 60, 64
5, 134880, Note_on_c, 3, 60, 0
5, 134880, Note_on_c, 3, 64, 45
5, 135000, Note_on_c, 3, 64, 0
5, 135000, Note_on_c, 3, 65, 51
5, 135120, Note_on_c, 3, 65, 0
5, 135120, Note_on_c, 3, 65, 64
5, 135180, Note_on_c, 3, 65, 0
5, 135240, Note_on_c, 3, 59, 89
5, 135240, Note_on_c, 3, 47, 85
5, 135360, Note_on_c, 3, 47, 0
5, 135360, Note_on_c, 3, 59, 0
5, 135360, Note_on_c, 3, 60, 81
5, 135360, Note_on_c, 3, 48, 85
5, 135480, Note_on_c, 3, 48, 0
5, 135480, Note_on_c, 3, 60, 0
5, 135480, Note_on_c, 3, 60, 85
5, 135480, Note_on_c, 3, 48, 90
5, 135600, Note_on_c, 3, 48, 0
5, 135600, Note_on_c, 3, 60, 0
5, 135600, Note_on_c, 3, 61, 76
5, 135600, Note_on_c, 3, 49, 89
5, 135720, Note_on_c, 3, 49, 0
5, 135720, Note_on_c, 3, 61, 0
5, 135720, Note_on_c, 3, 61, 67
5, 135720, Note_on_c, 3, 49, 80
5, 135840, Note_on_c, 3, 49, 0
5, 135840, Note_on_c, 3, 61, 0
5, 135840, Note_on_c, 3, 62, 74
5, 135840, Note_on_c, 3, 50, 90
5, 136200, Note_on_c, 3, 50, 0
5, 136200, Note_on_c, 3, 62, 0
5, 143880, Note_on_c, 3, 59, 65
5, 143880, Note_on_c, 3, 55, 47
5, 143940, Note_on_c, 3, 55, 0
5, 143940, Note_on_c, 3, 59, 0
5, 143940, Note_on_c, 3, 60, 61
5, 143940, Note_on_c, 3, 57, 62
5, 144000, Note_on_c, 3, 57, 0
5, 144000, Note_on_c, 3, 60, 0
5, 144000, Note_on_c, 3, 62, 42
5, 144000, Note_on_c, 3, 59, 38
5, 144060, Note_on_c, 3, 59, 0
5, 144060, Note_on_c, 3, 62, 0
5, 144840, Note_on_c, 3, 60, 45
5, 144840, Note_on_c, 3, 57, 50
5, 144900, Note_on_c, 3, 57, 0
5, 144900, Note_on_c, 3, 60, 0
5, 144900, Note_on_c, 3, 62, 46
5, 144900, Note_on_c, 3, 59, 52
5, 144960, Note_on_c, 3, 59, 0
5, 144960, Note_on_c, 3, 62, 0
5, 144960, Note_on_c, 3, 64, 58
5, 144960, Note_on_c, 3, 60, 46
5, 145020, Note_on_c, 3, 60, 0
5, 145020, Note_on_c, 3, 64, 0
5, 145800, Note_on_c, 3, 62, 55
5, 145800, Note_on_c, 3, 59, 42
5, 145860, Note_on_c, 3, 59, 0
5, 145860, Note_on_c, 3, 62, 0
5, 145860, Note_on_c, 3, 64, 50
5, 145860, Note_on_c, 3, 60, 43
5, 145920, Note_on_c, 3, 60, 0
5, 145920, Note_on_c, 3, 64, 0
5, 145920, Note_on_c, 3, 65, 64
5, 145920, Note_on_c, 3, 62, 57
5, 145980, Note_on_c, 3, 62, 0
5, 145980, Note_on_c, 3, 65, 0
5, 146520, Note_on_c, 3, 62, 56
5, 146520, Note_on_c, 3, 59, 53
5, 146580, Note_on_c, 3, 59, 0
5, 146580, Note_on_c, 3, 62, 0
5, 146580, Note_on_c, 3, 64, 64
5, 146580, Note_on_c, 3, 60, 56
5, 146640, Note_on_c, 3, 60, 0
5, 146640, Note_on_c, 3, 64, 0
5, 146640, Note_on_c, 3, 65, 52
5, 146640, Note_on_c, 3, 62, 44
5, 146700, Note_on_c, 3, 62, 0
5, 146700, Note_on_c, 3, 65, 0
5, 147000, Note_on_c, 3, 62, 52
5, 147000, Note_on_c, 3, 59, 50
5, 147060, Note_on_c, 3, 59, 0
5, 147060, Note_on_c, 3, 62, 0
5, 147060, Note_on_c, 3, 64, 53
5, 147060, Note_on_c, 3, 60, 45
5, 147120, Note_on_c, 3, 60, 0
5, 147120, Note_on_c, 3, 64, 0
5, 147120, Note_on_c, 3, 65, 42
5, 147120, Note_on_c, 3, 62, 43
5, 147180, Note_on_c, 3, 62, 0
5, 147180, Note_on_c, 3, 65, 0
5, 158760, Note_on_c, 3, 64, 104
5, 158880, Note_on_c, 3, 64, 0
5, 158880, Note_on_c, 3, 64, 101
5, 158880, Note_on_c, 3, 36, 105
5, 158940, Note_on_c, 3, 64, 0
5, 158940, Note_on_c, 3, 62, 95
5, 159000, Note_on_c, 3, 62, 0
5, 159000, Note_on_c, 3, 36, 0
5, 159000, Note_on_c, 3, 60, 89
5, 159000, Note_on_c, 3, 48, 94
5, 159060, Note_on_c, 3, 60, 0
5, 159120, Note_on_c, 3, 48, 0
5, 159120, Note_on_c, 3, 60, 93
5, 159120, Note_on_c, 3, 48, 94
5, 159180, Note_on_c, 3, 60, 0
5, 159240, Note_on_c, 3, 48, 0
5, 159240, Note_on_c, 3, 64, 99
5, 159240, Note_on_c, 3, 48, 93
5, 159300, Note_on_c, 3, 64, 0
5, 159360, Note_on_c, 3, 48, 0
5, 159360, Note_on_c, 3, 64, 99
5, 159360, Note_on_c, 3, 36, 104
5, 159420, Note_on_c, 3, 64, 0
5, 159420, Note_on_c, 3, 62, 95
5, 159480, Note_on_c, 3, 62, 0
5, 159480, Note_on_c, 3, 36, 0
5, 159480, Note_on_c, 3, 60, 99
5, 159480, Note_on_c, 3, 48, 94
5, 159540, Note_on_c, 3, 60, 0
5, 159600, Note_on_c, 3, 48, 0
5, 159600, Note_on_c, 3, 60, 95
5, 159600, Note_on_c, 3, 48, 95
5, 159660, Note_on_c, 3, 60, 0
5, 159720, Note_on_c, 3, 48, 0
5, 159720, Note_on_c, 3, 64, 104
5, 159720, Note_on_c, 3, 48, 93
5, 159780, Note_on_c, 3, 64, 0
5, 159840, Note_on_c, 3, 48, 0
5, 159840, Note_on_c, 3, 64, 99
5, 159840, Note_on_c, 3, 36, 104
5, 159900, Note_on_c, 3, 64, 0
5, 159900, Note_on_c, 3, 62, 94
5, 159960, Note_on_c, 3, 62, 0
5, 159960, Note_on_c, 3, 36, 0
5, 159960, Note_on_c, 3, 60, 99
5, 159960, Note_on_c, 3, 48, 95
5, 160020, Note_on_c, 3, 60, 0
5, 160080, Note_on_c, 3, 48, 0
5, 160080, Note_on_c, 3, 60, 99
5, 160080, Note_on_c, 3, 48, 94
5, 160140, Note_on_c, 3, 60, 0
5, 160140, Note_on_c, 3, 59, 99
5, 160200, Note_on_c, 3, 59, 0
5, 160200, Note_on_c, 3, 48, 0
5, 160200, Note_on_c, 3, 57, 105
5, 160200, Note_on_c, 3, 48, 93
5, 160260, Note_on_c, 3, 57, 0
5, 160320, Note_on_c, 3, 48, 0
5, 160320, Note_on_c, 3, 55, 84
5, 160320, Note_on_c, 3, 47, 95
5, 160380, Note_on_c, 3, 47, 0
5, 160380, Note_on_c, 3, 55, 0
5, 160440, Note_on_c, 3, 64, 94
5, 160440, Note_on_c, 3, 55, 94
5, 160500, Note_on_c, 3, 55, 0
5, 160500, Note_on_c, 3, 64, 0
5, 160560, Note_on_c, 3, 60, 84
5, 160560, Note_on_c, 3, 48, 94
5, 160620, Note_on_c, 3, 48, 0
5, 160620, Note_on_c, 3, 60, 0
5, 160680, Note_on_c, 3, 57, 82
5, 160680, Note_on_c, 3, 50, 98
5, 160740, Note_on_c, 3, 50, 0
5, 160740, Note_on_c, 3, 57, 0
5, 160800, Note_on_c, 3, 59, 85
5, 160800, Note_on_c, 3, 43, 94
5, 160860, Note_on_c, 3, 43, 0
5, 160860, Note_on_c, 3, 59, 0
5, 160920, Note_on_c, 3, 59, 82
5, 160920, Note_on_c, 3, 52, 101
5, 160980, Note_on_c, 3, 52, 0
5, 160980, Note_on_c, 3, 59, 0
5, 161040, Note_on_c, 3, 60, 85
5, 161040, Note_on_c, 3, 48, 93
5, 161100, Note_on_c, 3, 48, 0
5, 161100, Note_on_c, 3, 60, 0
5, 161160, Note_on_c, 3, 57, 80
5, 161160, Note_on_c, 3, 50, 94
5, 161220, Note_on_c, 3, 50, 0
5, 161220, Note_on_c, 3, 57, 0
5, 161280, Note_on_c, 3, 59, 99
5, 161280, Note_on_c, 3, 43, 99
5, 161340, Note_on_c, 3, 43, 0
5, 161400, Note_on_c, 3, 55, 84
5, 161460, Note_on_c, 3, 55, 0
5, 161520, Note_on_c, 3, 43, 99
5, 161580, Note_on_c, 3, 43, 0
5, 161640, Note_on_c, 3, 59, 0
5, 161640, Note_on_c, 3, 55, 94
5, 161760, Note_on_c, 3, 55, 0
5, 161760, Note_on_c, 3, 55, 95
5, 161820, Note_on_c, 3, 55, 0
5, 161820, Note_on_c, 3, 57, 99
5, 161880, Note_on_c, 3, 57, 0
5, 161880, Note_on_c, 3, 59, 104
5, 161940, Note_on_c, 3, 59, 0
5, 162000, Note_on_c, 3, 59, 99
5, 162000, Note_on_c, 3, 55, 85
5, 162060, Note_on_c, 3, 55, 0
5, 162060, Note_on_c, 3, 59, 0
5, 162060, Note_on_c, 3, 60, 80
5, 162060, Note_on_c, 3, 57, 89
5, 162120, Note_on_c, 3, 57, 0
5, 162120, Note_on_c, 3, 60, 0
5, 162120, Note_on_c, 3, 62, 98
5, 162120, Note_on_c, 3, 59, 84
5, 162180, Note_on_c, 3, 59, 0
5, 162180, Note_on_c, 3, 62, 0
5, 162240, Note_on_c, 3, 62, 94
5, 162240, Note_on_c, 3, 59, 85
5, 162600, Note_on_c, 3, 59, 0
5, 162600, Note_on_c, 3, 62, 0
5, 162600, Note_on_c, 3, 59, 101
5, 162600, Note_on_c, 3, 55, 77
5, 162720, Note_on_c, 3, 55, 0
5, 162720, Note_on_c, 3, 59, 0
5, 162720, Note_on_c, 3, 59, 99
5, 162720, Note_on_c, 3, 55, 89
5, 162780, Note_on_c, 3, 55, 0
5, 162780, Note_on_c, 3, 59, 0
5, 162780, Note_on_c, 3, 60, 80
5, 162780, Note_on_c, 3, 57, 85
5, 162840, Note_on_c, 3, 57, 0
5, 162840, Note_on_c, 3, 60, 0
5, 162840, Note_on_c, 3, 62, 94
5, 162840, Note_on_c, 3, 59, 89
5, 162900, Note_on_c, 3, 59, 0
5, 162900, Note_on_c, 3, 62, 0
5, 162960, Note_on_c, 3, 62, 104
5, 162960, Note_on_c, 3, 59, 86
5, 163020, Note_on_c, 3, 59, 0
5, 163020, Note_on_c, 3, 62, 0
5, 163020, Note_on_c, 3, 64, 98
5, 163020, Note_on_c, 3, 60, 73
5, 163080, Note_on_c, 3, 60, 0
5, 163080, Note_on_c, 3, 64, 0
5, 163080, Note_on_c, 3, 65, 93
5, 163080, Note_on_c, 3, 62, 93
5, 163140, Note_on_c, 3, 62, 0
5, 163140, Note_on_c, 3, 65, 0
5, 163200, Note_on_c, 3, 65, 94
5, 163200, Note_on_c, 3, 62, 85
5, 163560, Note_on_c, 3, 62, 0
5, 163560, Note_on_c, 3, 65, 0
5, 163680, Note_on_c, 3, 59, 94
5, 163680, Note_on_c, 3, 55, 82
5, 163800, Note_on_c, 3, 55, 0
5, 163800, Note_on_c, 3, 59, 0
5, 163800, Note_on_c, 3, 60, 105
5, 163800, Note_on_c, 3, 56, 117
5, 163920, Note_on_c, 3, 56, 0
5, 163920, Note_on_c, 3, 60, 0
5, 163920, Note_on_c, 3, 59, 95
5, 163920, Note_on_c, 3, 55, 89
5, 164280, Note_on_c, 3, 55, 0
5, 164280, Note_on_c, 3, 59, 0
5, 164280, Note_on_c, 3, 60, 105
5, 164280, Note_on_c, 3, 56, 117
5, 164400, Note_on_c, 3, 56, 0
5, 164400, Note_on_c, 3, 60, 0
5, 164400, Note_on_c, 3, 59, 95
5, 164400, Note_on_c, 3, 55, 80
5, 164760, Note_on_c, 3, 55, 0
5, 164760, Note_on_c, 3, 59, 0
5, 164760, Note_on_c, 3, 59, 80
5, 164760, Note_on_c, 3, 56, 89
5, 164880, Note_on_c, 3, 56, 0
5, 164880, Note_on_c, 3, 59, 0
5, 164880, Note_on_c, 3, 60, 86
5, 164880, Note_on_c, 3, 57, 98
5, 164940, Note_on_c, 3, 57, 0
5, 164940, Note_on_c, 3, 60, 0
5, 165000, Note_on_c, 3, 62, 80
5, 165000, Note_on_c, 3, 53, 93
5, 165060, Note_on_c, 3, 53, 0
5, 165060, Note_on_c, 3, 62, 0
5, 165120, Note_on_c, 3, 60, 84
5, 165120, Note_on_c, 3, 55, 89
5, 165180, Note_on_c, 3, 55, 0
5, 165180, Note_on_c, 3, 60, 0
5, 165240, Note_on_c, 3, 60, 93
5, 165240, Note_on_c, 3, 55, 98
5, 165300, Note_on_c, 3, 55, 0
5, 165300, Note_on_c, 3, 60, 0
5, 165360, Note_on_c, 3, 59, 90
5, 165360, Note_on_c, 3, 43, 95
5, 165420, Note_on_c, 3, 43, 0
5, 165420, Note_on_c, 3, 59, 0
5, 165480, Note_on_c, 3, 59, 84
5, 165480, Note_on_c, 3, 55, 89
5, 165540, Note_on_c, 3, 55, 0
5, 165540, Note_on_c, 3, 59, 0
5, 165600, Note_on_c, 3, 48, 78
5, 165660, Note_on_c, 3, 48, 0
5, 165660, Note_on_c, 3, 50, 104
5, 165720, Note_on_c, 3, 50, 0
5, 165720, Note_on_c, 3, 52, 101
5, 165780, Note_on_c, 3, 52, 0
5, 165780, Note_on_c, 3, 53, 95
5, 165840, Note_on_c, 3, 53, 0
5, 165840, Note_on_c, 3, 55, 86
5, 165900, Note_on_c, 3, 55, 0
5, 165900, Note_on_c, 3, 57, 95
5, 165960, Note_on_c, 3, 57, 0
5, 165960, Note_on_c, 3, 59, 98
5, 166020, Note_on_c, 3, 59, 0
5, 166020, Note_on_c, 3, 60, 95
5, 166080, Note_on_c, 3, 60, 0
5, 166080, Note_on_c, 3, 62, 98
5, 166080, Note_on_c, 3, 55, 99
5, 166140, Note_on_c, 3, 62, 0
5, 166200, Note_on_c, 3, 64, 104
5, 166260, Note_on_c, 3, 64, 0
5, 166320, Note_on_c, 3, 55, 0
5, 166320, Note_on_c, 3, 65, 94
5, 166380, Note_on_c, 3, 65, 0
5, 166440, Note_on_c, 3, 59, 99
5, 166500, Note_on_c, 3, 59, 0
5, 166560, Note_on_c, 3, 60, 125
5, 166620, Note_on_c, 3, 60, 0
5, 166620, Note_on_c, 3, 59, 117
5, 166680, Note_on_c, 3, 59, 0
5, 166680, Note_on_c, 3, 57, 119
5, 166740, Note_on_c, 3, 57, 0
5, 166740, Note_on_c, 3, 55, 123
5, 166800, Note_on_c, 3, 55, 0
5, 166800, Note_on_c, 3, 53, 119
5, 166860, Note_on_c, 3, 53, 0
5, 166860, Note_on_c, 3, 52, 119
5, 166920, Note_on_c, 3, 52, 0
5, 166920, Note_on_c, 3, 50, 119
5, 166980, Note_on_c, 3, 50, 0
5, 166980, Note_on_c, 3, 48, 110
5, 167040, Note_on_c, 3, 48, 0
5, 167040, Note_on_c, 3, 62, 99
5, 167040, Note_on_c, 3, 59, 119
5, 167100, Note_on_c, 3, 59, 0
5, 167100, Note_on_c, 3, 62, 0
5, 167160, Note_on_c, 3, 64, 104
5, 167160, Note_on_c, 3, 60, 112
5, 167220, Note_on_c, 3, 60, 0
5, 167220, Note_on_c, 3, 64, 0
5, 167280, Note_on_c, 3, 65, 104
5, 167280, Note_on_c, 3, 62, 112
5, 167340, Note_on_c, 3, 62, 0
5, 167340, Note_on_c, 3, 65, 0
5, 167400, Note_on_c, 3, 59, 105
5, 167400, Note_on_c, 3, 53, 112
5, 167460, Note_on_c, 3, 53, 0
5, 167460, Note_on_c, 3, 59, 0
5, 167520, Note_on_c, 3, 60, 105
5, 167520, Note_on_c, 3, 52, 112
5, 167580, Note_on_c, 3, 52, 0
5, 167580, Note_on_c, 3, 60, 0
5, 167640, Note_on_c, 3, 62, 99
5, 167640, Note_on_c, 3, 53, 110
5, 167700, Note_on_c, 3, 53, 0
5, 167700, Note_on_c, 3, 62, 0
5, 167760, Note_on_c, 3, 60, 104
5, 167760, Note_on_c, 3, 52, 112
5, 167820, Note_on_c, 3, 52, 0
5, 167820, Note_on_c, 3, 60, 0
5, 167880, Note_on_c, 3, 62, 98
5, 167880, Note_on_c, 3, 53, 104
5, 167940, Note_on_c, 3, 53, 0
5, 167940, Note_on_c, 3, 62, 0
5, 168000, Note_on_c, 3, 60, 104
5, 168000, Note_on_c, 3, 52, 112
5, 168240, Note_on_c, 3, 52, 0
5, 168240, Note_on_c, 3, 60, 0
5, 168360, Note_on_c, 3, 55, 72
5, 168360, Note_on_c, 3, 43, 81
5, 168480, Note_on_c, 3, 43, 0
5, 168480, Note_on_c, 3, 55, 0
5, 168480, Note_on_c, 3, 60, 67
5, 168480, Note_on_c, 3, 48, 81
5, 168540, Note_on_c, 3, 48, 0
5, 168540, Note_on_c, 3, 60, 0
5, 168600, Note_on_c, 3, 60, 57
5, 168600, Note_on_c, 3, 48, 80
5, 168660, Note_on_c, 3, 48, 0
5, 168660, Note_on_c, 3, 60, 0
5, 168720, Note_on_c, 3, 60, 53
5, 168720, Note_on_c, 3, 48, 80
5, 168780, Note_on_c, 3, 48, 0
5, 168780, Note_on_c, 3, 60, 0
5, 168840, Note_on_c, 3, 55, 69
5, 168840, Note_on_c, 3, 43, 84
5, 168900, Note_on_c, 3, 43, 0
5, 168900, Note_on_c, 3, 55, 0
5, 168960, Note_on_c, 3, 64, 115
5, 168960, Note_on_c, 3, 52, 117
5, 169320, Note_on_c, 3, 52, 0
5, 169320, Note_on_c, 3, 64, 0
5, 169320, Note_on_c, 3, 60, 80
5, 169320, Note_on_c, 3, 48, 99
5, 169440, Note_on_c, 3, 48, 0
5, 169440, Note_on_c, 3, 60, 0
5, 169440, Note_on_c, 3, 67, 84
5, 169440, Note_on_c, 3, 55, 86
5, 169500, Note_on_c, 3, 55, 0
5, 169500, Note_on_c, 3, 67, 0
5, 169560, Note_on_c, 3, 67, 82
5, 169560, Note_on_c, 3, 55, 89
5, 169620, Note_on_c, 3, 55, 0
5, 169620, Note_on_c, 3, 67, 0
5, 169680, Note_on_c, 3, 67, 80
5, 169680, Note_on_c, 3, 55, 84
5, 169740, Note_on_c, 3, 55, 0
5, 169740, Note_on_c, 3, 67, 0
5, 169800, Note_on_c, 3, 64, 94
5, 169800, Note_on_c, 3, 52, 86
5, 169860, Note_on_c, 3, 52, 0
5, 169860, Note_on_c, 3, 64, 0
5, 169920, Note_on_c, 3, 60, 69
5, 169920, Note_on_c, 3, 48, 82
5, 170160, Note_on_c, 3, 48, 0
5, 170160, Note_on_c, 3, 60, 0
5, 183240, Note_on_c, 3, 55, 65
5, 183360, Note_on_c, 3, 55, 0
5, 183360, Note_on_c, 3, 60, 69
5, 183360, Note_on_c, 3, 48, 76
5, 183480, Note_on_c, 3, 60, 0
5, 183480, Note_on_c, 3, 59, 53
5, 183600, Note_on_c, 3, 59, 0
5, 183600, Note_on_c, 3, 60, 72
5, 183720, Note_on_c, 3, 60, 0
5, 183720, Note_on_c, 3, 48, 0
5, 183720, Note_on_c, 3, 62, 95
5, 183720, Note_on_c, 3, 43, 80
5, 183840, Note_on_c, 3, 43, 0
5, 183840, Note_on_c, 3, 62, 0
5, 183840, Note_on_c, 3, 60, 61
5, 183840, Note_on_c, 3, 50, 67
5, 183960, Note_on_c, 3, 60, 0
5, 183960, Note_on_c, 3, 59, 47
5, 184080, Note_on_c, 3, 59, 0
5, 184080, Note_on_c, 3, 57, 57
5, 184200, Note_on_c, 3, 57, 0
5, 184200, Note_on_c, 3, 50, 0
5, 184200, Note_on_c, 3, 55, 78
5, 184200, Note_on_c, 3, 50, 95
5, 184320, Note_on_c, 3, 50, 0
5, 184320, Note_on_c, 3, 55, 0
5, 184320, Note_on_c, 3, 60, 62
5, 184320, Note_on_c, 3, 48, 67
5, 184440, Note_on_c, 3, 60, 0
5, 184440, Note_on_c, 3, 59, 53
5, 184560, Note_on_c, 3, 59, 0
5, 184560, Note_on_c, 3, 60, 56
5, 184680, Note_on_c, 3, 60, 0
5, 184680, Note_on_c, 3, 48, 0
5, 184680, Note_on_c, 3, 62, 95
5, 184680, Note_on_c, 3, 43, 76
5, 184800, Note_on_c, 3, 43, 0
5, 184800, Note_on_c, 3, 62, 0
5, 184800, Note_on_c, 3, 59, 76
5, 184800, Note_on_c, 3, 50, 84
5, 185040, Note_on_c, 3, 50, 0
5, 185040, Note_on_c, 3, 59, 0
5, 185160, Note_on_c, 3, 55, 80
5, 185280, Note_on_c, 3, 55, 0
5, 185280, Note_on_c, 3, 65, 67
5, 185280, Note_on_c, 3, 62, 66
5, 185340, Note_on_c, 3, 62, 0
5, 185340, Note_on_c, 3, 65, 0
5, 185400, Note_on_c, 3, 65, 72
5, 185400, Note_on_c, 3, 62, 76
5, 185460, Note_on_c, 3, 62, 0
5, 185460, Note_on_c, 3, 65, 0
5, 185640, Note_on_c, 3, 65, 74
5, 185640, Note_on_c, 3, 62, 65
5, 185760, Note_on_c, 3, 62, 0
5, 185760, Note_on_c, 3, 65, 0
5, 185760, Note_on_c, 3, 64, 74
5, 185760, Note_on_c, 3, 60, 61
5, 185820, Note_on_c, 3, 60, 0
5, 185820, Note_on_c, 3, 64, 0
5, 185880, Note_on_c, 3, 64, 80
5, 185880, Note_on_c, 3, 60, 54
5, 185940, Note_on_c, 3, 60, 0
5, 185940, Note_on_c, 3, 64, 0
5, 186120, Note_on_c, 3, 64, 76
5, 186120, Note_on_c, 3, 52, 81
5, 186180, Note_on_c, 3, 52, 0
5, 186180, Note_on_c, 3, 64, 0
5, 186240, Note_on_c, 3, 64, 80
5, 186240, Note_on_c, 3, 53, 50
5, 186360, Note_on_c, 3, 53, 0
5, 186360, Note_on_c, 3, 64, 0
5, 186360, Note_on_c, 3, 62, 73
5, 186360, Note_on_c, 3, 52, 43
5, 186480, Note_on_c, 3, 52, 0
5, 186480, Note_on_c, 3, 62, 0
5, 186480, Note_on_c, 3, 62, 72
5, 186480, Note_on_c, 3, 53, 53
5, 186600, Note_on_c, 3, 53, 0
5, 186600, Note_on_c, 3, 62, 0
5, 186600, Note_on_c, 3, 60, 64
5, 186600, Note_on_c, 3, 54, 67
5, 186720, Note_on_c, 3, 54, 0
5, 186720, Note_on_c, 3, 60, 0
5, 186720, Note_on_c, 3, 59, 62
5, 186720, Note_on_c, 3, 55, 51
5, 186960, Note_on_c, 3, 55, 0
5, 186960, Note_on_c, 3, 59, 0
5, 186960, Note_on_c, 3, 62, 71
5, 187080, Note_on_c, 3, 62, 0
5, 187200, Note_on_c, 3, 67, 57
5, 188160, Note_on_c, 3, 67, 0
5, 188160, Note_on_c, 3, 67, 61
5, 188880, Note_on_c, 3, 67, 0
5, 192480, Note_on_c, 3, 48, 74
5, 192600, Note_on_c, 3, 48, 0
5, 192600, Note_on_c, 3, 60, 74
5, 192720, Note_on_c, 3, 60, 0
5, 192720, Note_on_c, 3, 60, 68
5, 192840, Note_on_c, 3, 60, 0
5, 192840, Note_on_c, 3, 60, 74
5, 192960, Note_on_c, 3, 60, 0
5, 192960, Note_on_c, 3, 60, 71
5, 193080, Note_on_c, 3, 60, 0
5, 193080, Note_on_c, 3, 60, 65
5, 193200, Note_on_c, 3, 60, 0
5, 193200, Note_on_c, 3, 61, 58
5, 193260, Note_on_c, 3, 61, 0
5, 193260, Note_on_c, 3, 60, 84
5, 193320, Note_on_c, 3, 60, 0
5, 193320, Note_on_c, 3, 58, 71
5, 193380, Note_on_c, 3, 58, 0
5, 193380, Note_on_c, 3, 60, 72
5, 193440, Note_on_c, 3, 60, 0
5, 193440, Note_on_c, 3, 61, 62
5, 193560, Note_on_c, 3, 61, 0
5, 193560, Note_on_c, 3, 60, 78
5, 193680, Note_on_c, 3, 60, 0
5, 193680, Note_on_c, 3, 58, 63
5, 193800, Note_on_c, 3, 58, 0
5, 193800, Note_on_c, 3, 56, 89
5, 193920, Note_on_c, 3, 56, 0
5, 193920, Note_on_c, 3, 55, 89
5, 194040, Note_on_c, 3, 55, 0
5, 194040, Note_on_c, 3, 53, 80
5, 194160, Note_on_c, 3, 53, 0
5, 194160, Note_on_c, 3, 55, 80
5, 194280, Note_on_c, 3, 55, 0
5, 194280, Note_on_c, 3, 51, 90
5, 194400, Note_on_c, 3, 51, 0
5, 194400, Note_on_c, 3, 56, 35
5, 194640, Note_on_c, 3, 56, 0
5, 196320, Note_on_c, 3, 63, 60
5, 197280, Note_on_c, 3, 63, 0
5, 197280, Note_on_c, 3, 63, 57
5, 198000, Note_on_c, 3, 63, 0
5, 200160, Note_on_c, 3, 67, 59
5, 201120, Note_on_c, 3, 67, 0
5, 201120, Note_on_c, 3, 67, 59
5, 201840, Note_on_c, 3, 67, 0
5, 210120, Note_on_c, 3, 55, 68
5, 210240, Note_on_c, 3, 55, 0
5, 210240, Note_on_c, 3, 60, 68
5, 210360, Note_on_c, 3, 60, 0
5, 210360, Note_on_c, 3, 59, 84
5, 210480, Note_on_c, 3, 59, 0
5, 210480, Note_on_c, 3, 60, 71
5, 210600, Note_on_c, 3, 60, 0
5, 210600, Note_on_c, 3, 62, 63
5, 210720, Note_on_c, 3, 62, 0
5, 210720, Note_on_c, 3, 60, 71
5, 210840, Note_on_c, 3, 60, 0
5, 210840, Note_on_c, 3, 59, 69
5, 210960, Note_on_c, 3, 59, 0
5, 210960, Note_on_c, 3, 57, 71
5, 211080, Note_on_c, 3, 57, 0
5, 211080, Note_on_c, 3, 55, 69
5, 211200, Note_on_c, 3, 55, 0
5, 211200, Note_on_c, 3, 60, 68
5, 211320, Note_on_c, 3, 60, 0
5, 211320, Note_on_c, 3, 59, 90
5, 211440, Note_on_c, 3, 59, 0
5, 211440, Note_on_c, 3, 60, 86
5, 211560, Note_on_c, 3, 60, 0
5, 211560, Note_on_c, 3, 62, 81
5, 211680, Note_on_c, 3, 62, 0
5, 211680, Note_on_c, 3, 60, 80
5, 211800, Note_on_c, 3, 60, 0
5, 211800, Note_on_c, 3, 59, 80
5, 211920, Note_on_c, 3, 59, 0
5, 211920, Note_on_c, 3, 57, 86
5, 212040, Note_on_c, 3, 57, 0
5, 212040, Note_on_c, 3, 55, 71
5, 212160, Note_on_c, 3, 55, 0
5, 212160, Note_on_c, 3, 58, 78
5, 212280, Note_on_c, 3, 58, 0
5, 212280, Note_on_c, 3, 57, 86
5, 212400, Note_on_c, 3, 57, 0
5, 212400, Note_on_c, 3, 58, 70
5, 212520, Note_on_c, 3, 58, 0
5, 212520, Note_on_c, 3, 60, 72
5, 212640, Note_on_c, 3, 60, 0
5, 212640, Note_on_c, 3, 58, 73
5, 212760, Note_on_c, 3, 58, 0
5, 212760, Note_on_c, 3, 57, 84
5, 212880, Note_on_c, 3, 57, 0
5, 212880, Note_on_c, 3, 55, 71
5, 213000, Note_on_c, 3, 55, 0
5, 213000, Note_on_c, 3, 53, 57
5, 213120, Note_on_c, 3, 53, 0
5, 213120, Note_on_c, 3, 52, 85
5, 213240, Note_on_c, 3, 52, 0
5, 213240, Note_on_c, 3, 62, 77
5, 213240, Note_on_c, 3, 50, 80
5, 213360, Note_on_c, 3, 50, 0
5, 213360, Note_on_c, 3, 62, 0
5, 213360, Note_on_c, 3, 60, 72
5, 213360, Note_on_c, 3, 48, 80
5, 213480, Note_on_c, 3, 48, 0
5, 213480, Note_on_c, 3, 60, 0
5, 213480, Note_on_c, 3, 58, 74
5, 213480, Note_on_c, 3, 46, 80
5, 213600, Note_on_c, 3, 46, 0
5, 213600, Note_on_c, 3, 58, 0
5, 213600, Note_on_c, 3, 57, 68
5, 213600, Note_on_c, 3, 45, 74
5, 213660, Note_on_c, 3, 45, 0
5, 213660, Note_on_c, 3, 57, 0
5, 213720, Note_on_c, 3, 53, 40
5, 213720, Note_on_c, 3, 41, 66
5, 213780, Note_on_c, 3, 41, 0
5, 213780, Note_on_c, 3, 53, 0
5, 213840, Note_on_c, 3, 65, 57
5, 213840, Note_on_c, 3, 53, 58
5, 213900, Note_on_c, 3, 53, 0
5, 213900, Note_on_c, 3, 65, 0
5, 213960, Note_on_c, 3, 64, 67
5, 213960, Note_on_c, 3, 52, 76
5, 214020, Note_on_c, 3, 52, 0
5, 214020, Note_on_c, 3, 64, 0
5, 214080, Note_on_c, 3, 62, 53
5, 214080, Note_on_c, 3, 50, 69
5, 214200, Note_on_c, 3, 50, 0
5, 214200, Note_on_c, 3, 62, 0
5, 214200, Note_on_c, 3, 53, 74
5, 214320, Note_on_c, 3, 53, 0
5, 214320, Note_on_c, 3, 55, 80
5, 214440, Note_on_c, 3, 55, 0
5, 214440, Note_on_c, 3, 53, 68
5, 214560, Note_on_c, 3, 53, 0
5, 214560, Note_on_c, 3, 52, 85
5, 214680, Note_on_c, 3, 52, 0
5, 214680, Note_on_c, 3, 55, 42
5, 214800, Note_on_c, 3, 55, 0
5, 214800, Note_on_c, 3, 57, 81
5, 214920, Note_on_c, 3, 57, 0
5, 214920, Note_on_c, 3, 55, 76
5, 215040, Note_on_c, 3, 55, 0
5, 215040, Note_on_c, 3, 53, 86
5, 215160, Note_on_c, 3, 53, 0
5, 215160, Note_on_c, 3, 53, 85
5, 215280, Note_on_c, 3, 53, 0
5, 215280, Note_on_c, 3, 53, 86
5, 215400, Note_on_c, 3, 53, 0
5, 215400, Note_on_c, 3, 53, 86
5, 215520, Note_on_c, 3, 53, 0
5, 215520, Note_on_c, 3, 54, 89
5, 215640, Note_on_c, 3, 54, 0
5, 215640, Note_on_c, 3, 54, 76
5, 215760, Note_on_c, 3, 54, 0
5, 215760, Note_on_c, 3, 54, 86
5, 215880, Note_on_c, 3, 54, 0
5, 215880, Note_on_c, 3, 54, 84
5, 216000, Note_on_c, 3, 54, 0
5, 216000, Note_on_c, 3, 55, 99
5, 216120, Note_on_c, 3, 55, 0
5, 216120, Note_on_c, 3, 55, 82
5, 216240, Note_on_c, 3, 55, 0
5, 216240, Note_on_c, 3, 56, 85
5, 216360, Note_on_c, 3, 56, 0
5, 216360, Note_on_c, 3, 56, 86
5, 216480, Note_on_c, 3, 56, 0
5, 216480, Note_on_c, 3, 55, 89
5, 216600, Note_on_c, 3, 55, 0
5, 216600, Note_on_c, 3, 55, 86
5, 216720, Note_on_c, 3, 55, 0
5, 216720, Note_on_c, 3, 54, 107
5, 216840, Note_on_c, 3, 54, 0
5, 216840, Note_on_c, 3, 54, 80
5, 216960, Note_on_c, 3, 54, 0
5, 216960, Note_on_c, 3, 55, 84
5, 217080, Note_on_c, 3, 55, 0
5, 217080, Note_on_c, 3, 55, 85
5, 217200, Note_on_c, 3, 55, 0
5, 217200, Note_on_c, 3, 57, 94
5, 217320, Note_on_c, 3, 57, 0
5, 217320, Note_on_c, 3, 57, 93
5, 217440, Note_on_c, 3, 57, 0
5, 217440, Note_on_c, 3, 55, 81
5, 217560, Note_on_c, 3, 55, 0
5, 217560, Note_on_c, 3, 55, 86
5, 217680, Note_on_c, 3, 55, 0
5, 217680, Note_on_c, 3, 54, 95
5, 217800, Note_on_c, 3, 54, 0
5, 217800, Note_on_c, 3, 54, 76
5, 217920, Note_on_c, 3, 54, 0
5, 217920, Note_on_c, 3, 55, 84
5, 218040, Note_on_c, 3, 55, 0
5, 218040, Note_on_c, 3, 55, 89
5, 218160, Note_on_c, 3, 55, 0
5, 218160, Note_on_c, 3, 54, 95
5, 218280, Note_on_c, 3, 54, 0
5, 218280, Note_on_c, 3, 54, 81
5, 218400, Note_on_c, 3, 54, 0
5, 218400, Note_on_c, 3, 55, 90
5, 218520, Note_on_c, 3, 55, 0
5, 218520, Note_on_c, 3, 55, 89
5, 218640, Note_on_c, 3, 55, 0
5, 218640, Note_on_c, 3, 54, 101
5, 218760, Note_on_c, 3, 54, 0
5, 218760, Note_on_c, 3, 54, 82
5, 218880, Note_on_c, 3, 54, 0
5, 218880, Note_on_c, 3, 55, 99
5, 220320, Note_on_c, 3, 55, 0
5, 238800, Note_on_c, 3, 55, 50
5, 238920, Note_on_c, 3, 55, 0
5, 239040, Note_on_c, 3, 59, 52
5, 239160, Note_on_c, 3, 59, 0
5, 239280, Note_on_c, 3, 62, 61
5, 239400, Note_on_c, 3, 62, 0
5, 239520, Note_on_c, 3, 65, 43
5, 240960, Note_on_c, 3, 65, 0
5, 241320, Note_on_c, 3, 64, 104
5, 241440, Note_on_c, 3, 64, 0
5, 241440, Note_on_c, 3, 64, 101
5, 241440, Note_on_c, 3, 36, 105
5, 241500, Note_on_c, 3, 64, 0
5, 241500, Note_on_c, 3, 62, 95
5, 241560, Note_on_c, 3, 62, 0
5, 241560, Note_on_c, 3, 36, 0
5, 241560, Note_on_c, 3, 60, 89
5, 241560, Note_on_c, 3, 48, 94
5, 241620, Note_on_c, 3, 60, 0
5, 241680, Note_on_c, 3, 48, 0
5, 241680, Note_on_c, 3, 60, 93
5, 241680, Note_on_c, 3, 48, 94
5, 241740, Note_on_c, 3, 60, 0
5, 241800, Note_on_c, 3, 48, 0
5, 241800, Note_on_c, 3, 64, 99
5, 241800, Note_on_c, 3, 48, 93
5, 241860, Note_on_c, 3, 64, 0
5, 241920, Note_on_c, 3, 48, 0
5, 241920, Note_on_c, 3, 64, 99
5, 241920, Note_on_c, 3, 36, 104
5, 241980, Note_on_c, 3, 64, 0
5, 241980, Note_on_c, 3, 62, 95
5, 242040, Note_on_c, 3, 62, 0
5, 242040, Note_on_c, 3, 36, 0
5, 242040, Note_on_c, 3, 60, 99
5, 242040, Note_on_c, 3, 48, 94
5, 242100, Note_on_c, 3, 60, 0
5, 242160, Note_on_c, 3, 48, 0
5, 242160, Note_on_c, 3, 60, 95
5, 242160, Note_on_c, 3, 48, 95
5, 242220, Note_on_c, 3, 60, 0
5, 242280, Note_on_c, 3, 48, 0
5, 242280, Note_on_c, 3, 64, 104
5, 242280, Note_on_c, 3, 48, 93
5, 242340, Note_on_c, 3, 64, 0
5, 242400, Note_on_c, 3, 48, 0
5, 242400, Note_on_c, 3, 64, 99
5, 242400, Note_on_c, 3, 36, 104
5, 242460, Note_on_c, 3, 64, 0
5, 242460, Note_on_c, 3, 62, 94
5, 242520, Note_on_c, 3, 62, 0
5, 242520, Note_on_c, 3, 36, 0
5, 242520, Note_on_c, 3, 60, 99
5, 242520, Note_on_c, 3, 48, 95
5, 242580, Note_on_c, 3, 60, 0
5, 242640, Note_on_c, 3, 48, 0
5, 242640, Note_on_c, 3, 60, 99
5, 242640, Note_on_c, 3, 48, 94
5, 242700, Note_on_c, 3, 60, 0
5, 242700, Note_on_c, 3, 59, 99
5, 242760, Note_on_c, 3, 59, 0
5, 242760, Note_on_c, 3, 48, 0
5, 242760, Note_on_c, 3, 57, 105
5, 242760, Note_on_c, 3, 48, 93
5, 242820, Note_on_c, 3, 57, 0
5, 242880, Note_on_c, 3, 48, 0
5, 242880, Note_on_c, 3, 55, 84
5, 242880, Note_on_c, 3, 47, 95
5, 242940, Note_on_c, 3, 47, 0
5, 242940, Note_on_c, 3, 55, 0
5, 243000, Note_on_c, 3, 64, 94
5, 243000, Note_on_c, 3, 55, 94
5, 243060, Note_on_c, 3, 55, 0
5, 243060, Note_on_c, 3, 64, 0
5, 243120, Note_on_c, 3, 60, 84
5, 243120, Note_on_c, 3, 48, 94
5, 243180, Note_on_c, 3, 48, 0
5, 243180, Note_on_c, 3, 60, 0
5, 243240, Note_on_c, 3, 57, 82
5, 243240, Note_on_c, 3, 50, 98
5, 243300, Note_on_c, 3, 50, 0
5, 243300, Note_on_c, 3, 57, 0
5, 243360, Note_on_c, 3, 59, 85
5, 243360, Note_on_c, 3, 43, 94
5, 243420, Note_on_c, 3, 43, 0
5, 243420, Note_on_c, 3, 59, 0
5, 243480, Note_on_c, 3, 59, 82
5, 243480, Note_on_c, 3, 52, 101
5, 243540, Note_on_c, 3, 52, 0
5, 243540, Note_on_c, 3, 59, 0
5, 243600, Note_on_c, 3, 60, 85
5, 243600, Note_on_c, 3, 48, 93
5, 243660, Note_on_c, 3, 48, 0
5, 243660, Note_on_c, 3, 60, 0
5, 243720, Note_on_c, 3, 57, 80
5, 243720, Note_on_c, 3, 50, 94
5, 243780, Note_on_c, 3, 50, 0
5, 243780, Note_on_c, 3, 57, 0
5, 243840, Note_on_c, 3, 59, 99
5, 243840, Note_on_c, 3, 43, 99
5, 243900, Note_on_c, 3, 43, 0
5, 243960, Note_on_c, 3, 55, 84
5, 244020, Note_on_c, 3, 55, 0
5, 244080, Note_on_c, 3, 43, 99
5, 244140, Note_on_c, 3, 43, 0
5, 244200, Note_on_c, 3, 59, 0
5, 244200, Note_on_c, 3, 55, 94
5, 244320, Note_on_c, 3, 55, 0
5, 244320, Note_on_c, 3, 55, 95
5, 244380, Note_on_c, 3, 55, 0
5, 244380, Note_on_c, 3, 57, 99
5, 244440, Note_on_c, 3, 57, 0
5, 244440, Note_on_c, 3, 59, 104
5, 244500, Note_on_c, 3, 59, 0
5, 244560, Note_on_c, 3, 59, 99
5, 244560, Note_on_c, 3, 55, 85
5, 244620, Note_on_c, 3, 55, 0
5, 244620, Note_on_c, 3, 59, 0
5, 244620, Note_on_c, 3, 60, 80
5, 244620, Note_on_c, 3, 57, 89
5, 244680, Note_on_c, 3, 57, 0
5, 244680, Note_on_c, 3, 60, 0
5, 244680, Note_on_c, 3, 62, 98
5, 244680, Note_on_c, 3, 59, 84
5, 244740, Note_on_c, 3, 59, 0
5, 244740, Note_on_c, 3, 62, 0
5, 244800, Note_on_c, 3, 62, 89
5, 244800, Note_on_c, 3, 59, 90
5, 245160, Note_on_c, 3, 59, 0
5, 245160, Note_on_c, 3, 62, 0
5, 245160, Note_on_c, 3, 59, 101
5, 245160, Note_on_c, 3, 55, 77
5, 245280, Note_on_c, 3, 55, 0
5, 245280, Note_on_c, 3, 59, 0
5, 245280, Note_on_c, 3, 59, 99
5, 245280, Note_on_c, 3, 55, 89
5, 245340, Note_on_c, 3, 55, 0
5, 245340, Note_on_c, 3, 59, 0
5, 245340, Note_on_c, 3, 60, 80
5, 245340, Note_on_c, 3, 57, 85
5, 245400, Note_on_c, 3, 57, 0
5, 245400, Note_on_c, 3, 60, 0
5, 245400, Note_on_c, 3, 62, 94
5, 245400, Note_on_c, 3, 59, 89
5, 245460, Note_on_c, 3, 59, 0
5, 245460, Note_on_c, 3, 62, 0
5, 245520, Note_on_c, 3, 62, 104
5, 245520, Note_on_c, 3, 59, 86
5, 245580, Note_on_c, 3, 59, 0
5, 245580, Note_on_c, 3, 62, 0
5, 245580, Note_on_c, 3, 64, 98
5, 245580, Note_on_c, 3, 60, 73
5, 245640, Note_on_c, 3, 60, 0
5, 245640, Note_on_c, 3, 64, 0
5, 245640, Note_on_c, 3, 65, 93
5, 245640, Note_on_c, 3, 62, 93
5, 245700, Note_on_c, 3, 62, 0
5, 245700, Note_on_c, 3, 65, 0
5, 245760, Note_on_c, 3, 65, 93
5, 245760, Note_on_c, 3, 62, 80
5, 246120, Note_on_c, 3, 62, 0
5, 246120, Note_on_c, 3, 65, 0
5, 246240, Note_on_c, 3, 59, 94
5, 246240, Note_on_c, 3, 55, 82
5, 246360, Note_on_c, 3, 55, 0
5, 246360, Note_on_c, 3, 59, 0
5, 246360, Note_on_c, 3, 60, 105
5, 246360, Note_on_c, 3, 56, 117
5, 246480, Note_on_c, 3, 56, 0
5, 246480, Note_on_c, 3, 60, 0
5, 246480, Note_on_c, 3, 59, 95
5, 246480, Note_on_c, 3, 55, 89
5, 246840, Note_on_c, 3, 55, 0
5, 246840, Note_on_c, 3, 59, 0
5, 246840, Note_on_c, 3, 60, 105
5, 246840, Note_on_c, 3, 56, 117
5, 246960, Note_on_c, 3, 56, 0
5, 246960, Note_on_c, 3, 60, 0
5, 246960, Note_on_c, 3, 59, 95
5, 246960, Note_on_c, 3, 55, 80
5, 247320, Note_on_c, 3, 55, 0
5, 247320, Note_on_c, 3, 59, 0
5, 247320, Note_on_c, 3, 59, 80
5, 247320, Note_on_c, 3, 56, 89
5, 247440, Note_on_c, 3, 56, 0
5, 247440, Note_on_c, 3, 59, 0
5, 247440, Note_on_c, 3, 60, 86
5, 247440, Note_on_c, 3, 57, 98
5, 247500, Note_on_c, 3, 57, 0
5, 247500, Note_on_c, 3, 60, 0
5, 247560, Note_on_c, 3, 62, 80
5, 247560, Note_on_c, 3, 53, 93
5, 247620, Note_on_c, 3, 53, 0
5, 247620, Note_on_c, 3, 62, 0
5, 247680, Note_on_c, 3, 60, 84
5, 247680, Note_on_c, 3, 55, 89
5, 247740, Note_on_c, 3, 55, 0
5, 247740, Note_on_c, 3, 60, 0
5, 247800, Note_on_c, 3, 60, 93
5, 247800, Note_on_c, 3, 55, 98
5, 247860, Note_on_c, 3, 55, 0
5, 247860, Note_on_c, 3, 60, 0
5, 247920, Note_on_c, 3, 59, 90
5, 247920, Note_on_c, 3, 43, 95
5, 247980, Note_on_c, 3, 43, 0
5, 247980, Note_on_c, 3, 59, 0
5, 248040, Note_on_c, 3, 59, 84
5, 248040, Note_on_c, 3, 55, 89
5, 248100, Note_on_c, 3, 55, 0
5, 248100, Note_on_c, 3, 59, 0
5, 248160, Note_on_c, 3, 48, 78
5, 248220, Note_on_c, 3, 48, 0
5, 248220, Note_on_c, 3, 50, 104
5, 248280, Note_on_c, 3, 50, 0
5, 248280, Note_on_c, 3, 52, 101
5, 248340, Note_on_c, 3, 52, 0
5, 248340, Note_on_c, 3, 53, 95
5, 248400, Note_on_c, 3, 53, 0
5, 248400, Note_on_c, 3, 55, 86
5, 248460, Note_on_c, 3, 55, 0
5, 248460, Note_on_c, 3, 57, 95
5, 248520, Note_on_c, 3, 57, 0
5, 248520, Note_on_c, 3, 59, 98
5, 248580, Note_on_c, 3, 59, 0
5, 248580, Note_on_c, 3, 60, 95
5, 248640, Note_on_c, 3, 60, 0
5, 248640, Note_on_c, 3, 62, 98
5, 248640, Note_on_c, 3, 55, 99
5, 248700, Note_on_c, 3, 62, 0
5, 248760, Note_on_c, 3, 64, 104
5, 248820, Note_on_c, 3, 64, 0
5, 248880, Note_on_c, 3, 55, 0
5, 248880, Note_on_c, 3, 65, 94
5, 248940, Note_on_c, 3, 65, 0
5, 249000, Note_on_c, 3, 59, 99
5, 249060, Note_on_c, 3, 59, 0
5, 249120, Note_on_c, 3, 60, 125
5, 249180, Note_on_c, 3, 60, 0
5, 249180, Note_on_c, 3, 59, 117
5, 249240, Note_on_c, 3, 59, 0
5, 249240, Note_on_c, 3, 57, 119
5, 249300, Note_on_c, 3, 57, 0
5, 249300, Note_on_c, 3, 55, 123
5, 249360, Note_on_c, 3, 55, 0
5, 249360, Note_on_c, 3, 53, 119
5, 249420, Note_on_c, 3, 53, 0
5, 249420, Note_on_c, 3, 52, 119
5, 249480, Note_on_c, 3, 52, 0
5, 249480, Note_on_c, 3, 50, 119
5, 249540, Note_on_c, 3, 50, 0
5, 249540, Note_on_c, 3, 48, 110
5, 249600, Note_on_c, 3, 48, 0
5, 249600, Note_on_c, 3, 62, 99
5, 249600, Note_on_c, 3, 59, 119
5, 249660, Note_on_c, 3, 59, 0
5, 249660, Note_on_c, 3, 62, 0
5, 249720, Note_on_c, 3, 64, 104
5, 249720, Note_on_c, 3, 60, 112
5, 249780, Note_on_c, 3, 60, 0
5, 249780, Note_on_c, 3, 64, 0
5, 249840, Note_on_c, 3, 65, 104
5, 249840, Note_on_c, 3, 62, 112
5, 249900, Note_on_c, 3, 62, 0
5, 249900, Note_on_c, 3, 65, 0
5, 249960, Note_on_c, 3, 59, 105
5, 249960, Note_on_c, 3, 53, 112
5, 250020, Note_on_c, 3, 53, 0
5, 250020, Note_on_c, 3, 59, 0
5, 250080, Note_on_c, 3, 60, 105
5, 250080, Note_on_c, 3, 52, 112
5, 250140, Note_on_c, 3, 52, 0
5, 250140, Note_on_c, 3, 60, 0
5, 250200, Note_on_c, 3, 62, 99
5, 250200, Note_on_c, 3, 53, 110
5, 250260, Note_on_c, 3, 53, 0
5, 250260, Note_on_c, 3, 62, 0
5, 250320, Note_on_c, 3, 60, 104
5, 250320, Note_on_c, 3, 52, 112
5, 250380, Note_on_c, 3, 52, 0
5, 250380, Note_on_c, 3, 60, 0
5, 250440, Note_on_c, 3, 62, 98
5, 250440, Note_on_c, 3, 53, 104
5, 250500, Note_on_c, 3, 53, 0
5, 250500, Note_on_c, 3, 62, 0
5, 250560, Note_on_c, 3, 60, 104
5, 250560, Note_on_c, 3, 52, 112
5, 250800, Note_on_c, 3, 52, 0
5, 250800, Note_on_c, 3, 60, 0
5, 255240, Note_on_c, 3, 60, 71
5, 255240, Note_on_c, 3, 57, 63
5, 255360, Note_on_c, 3, 57, 0
5, 255360, Note_on_c, 3, 60, 0
5, 255360, Note_on_c, 3, 60, 69
5, 255360, Note_on_c, 3, 57, 62
5, 255420, Note_on_c, 3, 57, 0
5, 255420, Note_on_c, 3, 60, 0
5, 255420, Note_on_c, 3, 59, 68
5, 255420, Note_on_c, 3, 55, 46
5, 255480, Note_on_c, 3, 55, 0
5, 255480, Note_on_c, 3, 59, 0
5, 255480, Note_on_c, 3, 57, 64
5, 255480, Note_on_c, 3, 53, 46
5, 255540, Note_on_c, 3, 53, 0
5, 255540, Note_on_c, 3, 57, 0
5, 255600, Note_on_c, 3, 57, 64
5, 255600, Note_on_c, 3, 53, 50
5, 255660, Note_on_c, 3, 53, 0
5, 255660, Note_on_c, 3, 57, 0
5, 256200, Note_on_c, 3, 62, 53
5, 256200, Note_on_c, 3, 59, 68
5, 256320, Note_on_c, 3, 59, 0
5, 256320, Note_on_c, 3, 62, 0
5, 256320, Note_on_c, 3, 62, 64
5, 256320, Note_on_c, 3, 59, 73
5, 256380, Note_on_c, 3, 59, 0
5, 256380, Note_on_c, 3, 62, 0
5, 256380, Note_on_c, 3, 60, 61
5, 256380, Note_on_c, 3, 57, 68
5, 256440, Note_on_c, 3, 57, 0
5, 256440, Note_on_c, 3, 60, 0
5, 256440, Note_on_c, 3, 59, 72
5, 256440, Note_on_c, 3, 55, 70
5, 256500, Note_on_c, 3, 55, 0
5, 256500, Note_on_c, 3, 59, 0
5, 256560, Note_on_c, 3, 59, 48
5, 256560, Note_on_c, 3, 55, 73
5, 256620, Note_on_c, 3, 55, 0
5, 256620, Note_on_c, 3, 59, 0
5, 257160, Note_on_c, 3, 64, 64
5, 257160, Note_on_c, 3, 55, 69
5, 257280, Note_on_c, 3, 55, 0
5, 257280, Note_on_c, 3, 64, 0
5, 257280, Note_on_c, 3, 64, 65
5, 257280, Note_on_c, 3, 55, 69
5, 257340, Note_on_c, 3, 55, 0
5, 257340, Note_on_c, 3, 64, 0
5, 257340, Note_on_c, 3, 62, 61
5, 257340, Note_on_c, 3, 53, 46
5, 257400, Note_on_c, 3, 53, 0
5, 257400, Note_on_c, 3, 62, 0
5, 257400, Note_on_c, 3, 60, 58
5, 257400, Note_on_c, 3, 52, 63
5, 257460, Note_on_c, 3, 52, 0
5, 257460, Note_on_c, 3, 60, 0
5, 257520, Note_on_c, 3, 60, 53
5, 257520, Note_on_c, 3, 52, 72
5, 257580, Note_on_c, 3, 52, 0
5, 257580, Note_on_c, 3, 60, 0
5, 257640, Note_on_c, 3, 60, 56
5, 257640, Note_on_c, 3, 48, 70
5, 257700, Note_on_c, 3, 48, 0
5, 257700, Note_on_c, 3, 60, 0
5, 257760, Note_on_c, 3, 65, 62
5, 257760, Note_on_c, 3, 53, 69
5, 258000, Note_on_c, 3, 53, 0
5, 258000, Note_on_c, 3, 65, 0
5, 258000, Note_on_c, 3, 62, 46
5, 258000, Note_on_c, 3, 55, 64
5, 258240, Note_on_c, 3, 55, 0
5, 258240, Note_on_c, 3, 62, 0
5, 258240, Note_on_c, 3, 60, 58
5, 258240, Note_on_c, 3, 48, 59
5, 258480, Note_on_c, 3, 48, 0
5, 258480, Note_on_c, 3, 60, 0
5, 259080, Note_on_c, 3, 60, 52
5, 259080, Note_on_c, 3, 57, 73
5, 259200, Note_on_c, 3, 57, 0
5, 259200, Note_on_c, 3, 60, 0
5, 259200, Note_on_c, 3, 60, 62
5, 259200, Note_on_c, 3, 57, 77
5, 259260, Note_on_c, 3, 57, 0
5, 259260, Note_on_c, 3, 60, 0
5, 259260, Note_on_c, 3, 59, 62
5, 259260, Note_on_c, 3, 55, 58
5, 259320, Note_on_c, 3, 55, 0
5, 259320, Note_on_c, 3, 59, 0
5, 259320, Note_on_c, 3, 57, 54
5, 259320, Note_on_c, 3, 53, 46
5, 259380, Note_on_c, 3, 53, 0
5, 259380, Note_on_c, 3, 57, 0
5, 259440, Note_on_c, 3, 57, 65
5, 259440, Note_on_c, 3, 53, 70
5, 259500, Note_on_c, 3, 53, 0
5, 259500, Note_on_c, 3, 57, 0
5, 260040, Note_on_c, 3, 62, 65
5, 260040, Note_on_c, 3, 59, 63
5, 260160, Note_on_c, 3, 59, 0
5, 260160, Note_on_c, 3, 62, 0
5, 260160, Note_on_c, 3, 62, 53
5, 260160, Note_on_c, 3, 59, 63
5, 260220, Note_on_c, 3, 59, 0
5, 260220, Note_on_c, 3, 62, 0
5, 260220, Note_on_c, 3, 60, 61
5, 260220, Note_on_c, 3, 57, 81
5, 260280, Note_on_c, 3, 57, 0
5, 260280, Note_on_c, 3, 60, 0
5, 260280, Note_on_c, 3, 59, 70
5, 260280, Note_on_c, 3, 55, 68
5, 260340, Note_on_c, 3, 55, 0
5, 260340, Note_on_c, 3, 59, 0
5, 260400, Note_on_c, 3, 59, 55
5, 260400, Note_on_c, 3, 55, 55
5, 260460, Note_on_c, 3, 55, 0
5, 260460, Note_on_c, 3, 59, 0
5, 261000, Note_on_c, 3, 64, 52
5, 261000, Note_on_c, 3, 60, 68
5, 261120, Note_on_c, 3, 60, 0
5, 261120, Note_on_c, 3, 64, 0
5, 261120, Note_on_c, 3, 64, 72
5, 261120, Note_on_c, 3, 60, 71
5, 261180, Note_on_c, 3, 60, 0
5, 261180, Note_on_c, 3, 64, 0
5, 261180, Note_on_c, 3, 62, 73
5, 261180, Note_on_c, 3, 59, 73
5, 261240, Note_on_c, 3, 59, 0
5, 261240, Note_on_c, 3, 62, 0
5, 261240, Note_on_c, 3, 60, 64
5, 261240, Note_on_c, 3, 55, 66
5, 261300, Note_on_c, 3, 55, 0
5, 261300, Note_on_c, 3, 60, 0
5, 261360, Note_on_c, 3, 60, 64
5, 261360, Note_on_c, 3, 55, 64
5, 261420, Note_on_c, 3, 55, 0
5, 261420, Note_on_c, 3, 60, 0
5, 261480, Note_on_c, 3, 60, 57
5, 261480, Note_on_c, 3, 48, 69
5, 261540, Note_on_c, 3, 48, 0
5, 261540, Note_on_c, 3, 60, 0
5, 261600, Note_on_c, 3, 65, 61
5, 261600, Note_on_c, 3, 53, 67
5, 261840, Note_on_c, 3, 53, 0
5, 261840, Note_on_c, 3, 65, 0
5, 261840, Note_on_c, 3, 62, 63
5, 261840, Note_on_c, 3, 55, 69
5, 262080, Note_on_c, 3, 55, 0
5, 262080, Note_on_c, 3, 62, 0
5, 262080, Note_on_c, 3, 60, 55
5, 262080, Note_on_c, 3, 48, 70
5, 262320, Note_on_c, 3, 48, 0
5, 262320, Note_on_c, 3, 60, 0
5, 282600, Note_on_c, 3, 60, 84
5, 282600, Note_on_c, 3, 52, 99
5, 282720, Note_on_c, 3, 52, 0
5, 282720, Note_on_c, 3, 60, 0
5, 282720, Note_on_c, 3, 62, 80
5, 282720, Note_on_c, 3, 59, 90
5, 283200, Note_on_c, 3, 59, 0
5, 283200, Note_on_c, 3, 62, 0
5, 283200, Note_on_c, 3, 62, 78
5, 283200, Note_on_c, 3, 59, 85
5, 283320, Note_on_c, 3, 59, 0
5, 283320, Note_on_c, 3, 62, 0
5, 283320, Note_on_c, 3, 62, 89
5, 283320, Note_on_c, 3, 59, 94
5, 283440, Note_on_c, 3, 59, 0
5, 283440, Note_on_c, 3, 62, 0
5, 283440, Note_on_c, 3, 62, 89
5, 283440, Note_on_c, 3, 59, 99
5, 283560, Note_on_c, 3, 59, 0
5, 283560, Note_on_c, 3, 62, 0
5, 283560, Note_on_c, 3, 62, 85
5, 283560, Note_on_c, 3, 59, 95
5, 283680, Note_on_c, 3, 59, 0
5, 283680, Note_on_c, 3, 62, 0
5, 283680, Note_on_c, 3, 60, 99
5, 283800, Note_on_c, 3, 60, 0
5, 283800, Note_on_c, 3, 55, 89
5, 283800, Note_on_c, 3, 43, 94
5, 283920, Note_on_c, 3, 43, 0
5, 283920, Note_on_c, 3, 55, 0
5, 283920, Note_on_c, 3, 60, 99
5, 283920, Note_on_c, 3, 48, 99
5, 284040, Note_on_c, 3, 48, 0
5, 284040, Note_on_c, 3, 60, 0
5, 284040, Note_on_c, 3, 55, 94
5, 284040, Note_on_c, 3, 43, 98
5, 284160, Note_on_c, 3, 43, 0
5, 284160, Note_on_c, 3, 55, 0
5, 284160, Note_on_c, 3, 60, 95
5, 284160, Note_on_c, 3, 48, 95
5, 284280, Note_on_c, 3, 48, 0
5, 284280, Note_on_c, 3, 60, 0
5, 284280, Note_on_c, 3, 55, 93
5, 284280, Note_on_c, 3, 43, 90
5, 284400, Note_on_c, 3, 43, 0
5, 284400, Note_on_c, 3, 55, 0
5, 284400, Note_on_c, 3, 60, 99
5, 284400, Note_on_c, 3, 48, 99
5, 284520, Note_on_c, 3, 48, 0
5, 284520, Note_on_c, 3, 60, 0
5, 284520, Note_on_c, 3, 55, 93
5, 284520, Note_on_c, 3, 43, 98
5, 284640, Note_on_c, 3, 43, 0
5, 284640, Note_on_c, 3, 55, 0
5, 284640, Note_on_c, 3, 60, 98
5, 284640, Note_on_c, 3, 48, 104
5, 284880, Note_on_c, 3, 48, 0
5, 284880, Note_on_c, 3, 60, 0
5, 284880, Note_on_c, 3, 60, 99
5, 285120, Note_on_c, 3, 60, 0
5, 285120, Note_on_c, 3, 48, 105
5, 285360, Note_on_c, 3, 48, 0
5, 285360, End_track
6, 0, Start_track
6, 0, MIDI_port, 0
6, 0, Title_t, "French Horns"
6, 0, Program_c, 4, 60
6, 0, Control_c, 4, 7, 100
6, 0, Control_c, 4, 10, 64
6, 0, Control_c, 4, 93, 0
6, 0, Control_c, 4, 91, 66
6, 10080, Note_on_c, 4, 72, 71
6, 10080, Note_on_c, 4, 64, 95
6, 10440, Note_on_c, 4, 64, 0
6, 10440, Note_on_c, 4, 72, 0
6, 10440, Note_on_c, 4, 72, 68
6, 10440, Note_on_c, 4, 64, 95
6, 10500, Note_on_c, 4, 64, 0
6, 10500, Note_on_c, 4, 72, 0
6, 10560, Note_on_c, 4, 72, 63
6, 10560, Note_on_c, 4, 64, 99
6, 10920, Note_on_c, 4, 64, 0
6, 10920, Note_on_c, 4, 72, 0
6, 10920, Note_on_c, 4, 72, 71
6, 10920, Note_on_c, 4, 64, 93
6, 10980, Note_on_c, 4, 64, 0
6, 10980, Note_on_c, 4, 72, 0
6, 11040, Note_on_c, 4, 72, 68
6, 11040, Note_on_c, 4, 64, 95
6, 11160, Note_on_c, 4, 64, 0
6, 11160, Note_on_c, 4, 72, 0
6, 11160, Note_on_c, 4, 72, 70
6, 11160, Note_on_c, 4, 64, 99
6, 11280, Note_on_c, 4, 64, 0
6, 11280, Note_on_c, 4, 72, 0
6, 11280, Note_on_c, 4, 72, 76
6, 11280, Note_on_c, 4, 64, 99
6, 11400, Note_on_c, 4, 64, 0
6, 11400, Note_on_c, 4, 72, 0
6, 11400, Note_on_c, 4, 64, 101
6, 11400, Note_on_c, 4, 72, 78
6, 11520, Note_on_c, 4, 72, 0
6, 11520, Note_on_c, 4, 64, 0
6, 11520, Note_on_c, 4, 74, 94
6, 11520, Note_on_c, 4, 67, 95
6, 11640, Note_on_c, 4, 67, 0
6, 11640, Note_on_c, 4, 74, 0
6, 11880, Note_on_c, 4, 74, 104
6, 12000, Note_on_c, 4, 74, 0
6, 12000, Note_on_c, 4, 79, 82
6, 12000, Note_on_c, 4, 67, 89
6, 12240, Note_on_c, 4, 67, 0
6, 12240, Note_on_c, 4, 79, 0
6, 12360, Note_on_c, 4, 74, 105
6, 12480, Note_on_c, 4, 74, 0
6, 12480, Note_on_c, 4, 74, 93
6, 12480, Note_on_c, 4, 67, 94
6, 12720, Note_on_c, 4, 67, 0
6, 12720, Note_on_c, 4, 74, 0
6, 12960, Note_on_c, 4, 79, 80
6, 12960, Note_on_c, 4, 67, 85
6, 13200, Note_on_c, 4, 67, 0
6, 13200, Note_on_c, 4, 79, 0
6, 13200, Note_on_c, 4, 67, 90
6, 13200, Note_on_c, 4, 79, 85
6, 13440, Note_on_c, 4, 79, 0
6, 13440, Note_on_c, 4, 67, 0
6, 13440, Note_on_c, 4, 79, 107
6, 13440, Note_on_c, 4, 67, 112
6, 13800, Note_on_c, 4, 67, 0
6, 13800, Note_on_c, 4, 79, 0
6, 13800, Note_on_c, 4, 67, 89
6, 13800, Note_on_c, 4, 79, 80
6, 13920, Note_on_c, 4, 79, 0
6, 13920, Note_on_c, 4, 67, 0
6, 13920, Note_on_c, 4, 74, 86
6, 13920, Note_on_c, 4, 67, 86
6, 14160, Note_on_c, 4, 67, 0
6, 14160, Note_on_c, 4, 74, 0
6, 14160, Note_on_c, 4, 67, 94
6, 14160, Note_on_c, 4, 74, 98
6, 14400, Note_on_c, 4, 74, 0
6, 14400, Note_on_c, 4, 67, 0
6, 14400, Note_on_c, 4, 74, 112
6, 14400, Note_on_c, 4, 67, 117
6, 14760, Note_on_c, 4, 67, 0
6, 14760, Note_on_c, 4, 74, 0
6, 15120, Note_on_c, 4, 67, 119
6, 15120, Note_on_c, 4, 74, 112
6, 15360, Note_on_c, 4, 74, 0
6, 15360, Note_on_c, 4, 67, 0
6, 15600, Note_on_c, 4, 67, 119
6, 15600, Note_on_c, 4, 74, 112
6, 15840, Note_on_c, 4, 74, 0
6, 15840, Note_on_c, 4, 67, 0
6, 15960, Note_on_c, 4, 77, 85
6, 15960, Note_on_c, 4, 74, 101
6, 16020, Note_on_c, 4, 74, 0
6, 16020, Note_on_c, 4, 77, 0
6, 16080, Note_on_c, 4, 76, 98
6, 16080, Note_on_c, 4, 72, 84
6, 16140, Note_on_c, 4, 72, 0
6, 16140, Note_on_c, 4, 76, 0
6, 16200, Note_on_c, 4, 74, 105
6, 16200, Note_on_c, 4, 72, 86
6, 16260, Note_on_c, 4, 72, 0
6, 16260, Note_on_c, 4, 74, 0
6, 16320, Note_on_c, 4, 76, 94
6, 16320, Note_on_c, 4, 72, 84
6, 16380, Note_on_c, 4, 72, 0
6, 16380, Note_on_c, 4, 76, 0
6, 16440, Note_on_c, 4, 76, 94
6, 16440, Note_on_c, 4, 72, 80
6, 16500, Note_on_c, 4, 72, 0
6, 16500, Note_on_c, 4, 76, 0
6, 16560, Note_on_c, 4, 77, 86
6, 16560, Note_on_c, 4, 74, 104
6, 16620, Note_on_c, 4, 74, 0
6, 16620, Note_on_c, 4, 77, 0
6, 16680, Note_on_c, 4, 74, 81
6, 16680, Note_on_c, 4, 67, 94
6, 16740, Note_on_c, 4, 67, 0
6, 16740, Note_on_c, 4, 74, 0
6, 16800, Note_on_c, 4, 72, 62
6, 16800, Note_on_c, 4, 64, 94
6, 17040, Note_on_c, 4, 64, 0
6, 17040, Note_on_c, 4, 72, 0
6, 17280, Note_on_c, 4, 74, 89
6, 17280, Note_on_c, 4, 67, 93
6, 17520, Note_on_c, 4, 67, 0
6, 17520, Note_on_c, 4, 74, 0
6, 17760, Note_on_c, 4, 72, 107
6, 17760, Note_on_c, 4, 76, 123
6, 18240, Note_on_c, 4, 76, 0
6, 18240, Note_on_c, 4, 72, 0
6, 18240, Note_on_c, 4, 74, 110
6, 18240, Note_on_c, 4, 67, 107
6, 18300, Note_on_c, 4, 67, 0
6, 18300, Note_on_c, 4, 74, 0
6, 18360, Note_on_c, 4, 76, 110
6, 18360, Note_on_c, 4, 72, 105
6, 18420, Note_on_c, 4, 72, 0
6, 18420, Note_on_c, 4, 76, 0
6, 18480, Note_on_c, 4, 77, 107
6, 18480, Note_on_c, 4, 74, 119
6, 18540, Note_on_c, 4, 74, 0
6, 18540, Note_on_c, 4, 77, 0
6, 18600, Note_on_c, 4, 74, 110
6, 18600, Note_on_c, 4, 67, 112
6, 18660, Note_on_c, 4, 67, 0
6, 18660, Note_on_c, 4, 74, 0
6, 18720, Note_on_c, 4, 72, 93
6, 18720, Note_on_c, 4, 64, 105
6, 18780, Note_on_c, 4, 64, 0
6, 18780, Note_on_c, 4, 72, 0
6, 18840, Note_on_c, 4, 74, 112
6, 18840, Note_on_c, 4, 65, 112
6, 18900, Note_on_c, 4, 65, 0
6, 18900, Note_on_c, 4, 74, 0
6, 18960, Note_on_c, 4, 72, 99
6, 18960, Note_on_c, 4, 64, 112
6, 19020, Note_on_c, 4, 64, 0
6, 19020, Note_on_c, 4, 72, 0
6, 19080, Note_on_c, 4, 74, 117
6, 19080, Note_on_c, 4, 65, 115
6, 19140, Note_on_c, 4, 65, 0
6, 19140, Note_on_c, 4, 74, 0
6, 19200, Note_on_c, 4, 72, 104
6, 19200, Note_on_c, 4, 64, 117
6, 19440, Note_on_c, 4, 64, 0
6, 19440, Note_on_c, 4, 72, 0
6, 19560, Note_on_c, 4, 55, 89
6, 19560, Note_on_c, 4, 67, 76
6, 19680, Note_on_c, 4, 67, 0
6, 19680, Note_on_c, 4, 55, 0
6, 19680, Note_on_c, 4, 72, 67
6, 19680, Note_on_c, 4, 60, 81
6, 19740, Note_on_c, 4, 60, 0
6, 19740, Note_on_c, 4, 72, 0
6, 19800, Note_on_c, 4, 72, 57
6, 19800, Note_on_c, 4, 60, 80
6, 19860, Note_on_c, 4, 60, 0
6, 19860, Note_on_c, 4, 72, 0
6, 19920, Note_on_c, 4, 72, 53
6, 19920, Note_on_c, 4, 60, 80
6, 19980, Note_on_c, 4, 60, 0
6, 19980, Note_on_c, 4, 72, 0
6, 20040, Note_on_c, 4, 67, 69
6, 20040, Note_on_c, 4, 55, 84
6, 20100, Note_on_c, 4, 55, 0
6, 20100, Note_on_c, 4, 67, 0
6, 20160, Note_on_c, 4, 76, 115
6, 20160, Note_on_c, 4, 64, 117
6, 20520, Note_on_c, 4, 64, 0
6, 20520, Note_on_c, 4, 76, 0
6, 20520, Note_on_c, 4, 60, 99
6, 20520, Note_on_c, 4, 72, 80
6, 20640, Note_on_c, 4, 72, 0
6, 20640, Note_on_c, 4, 60, 0
6, 20640, Note_on_c, 4, 79, 84
6, 20640, Note_on_c, 4, 67, 86
6, 20700, Note_on_c, 4, 67, 0
6, 20700, Note_on_c, 4, 79, 0
6, 20760, Note_on_c, 4, 79, 82
6, 20760, Note_on_c, 4, 67, 89
6, 20820, Note_on_c, 4, 67, 0
6, 20820, Note_on_c, 4, 79, 0
6, 20880, Note_on_c, 4, 79, 80
6, 20880, Note_on_c, 4, 67, 84
6, 20940, Note_on_c, 4, 67, 0
6, 20940, Note_on_c, 4, 79, 0
6, 21000, Note_on_c, 4, 76, 94
6, 21000, Note_on_c, 4, 64, 86
6, 21060, Note_on_c, 4, 64, 0
6, 21060, Note_on_c, 4, 76, 0
6, 21120, Note_on_c, 4, 72, 69
6, 21120, Note_on_c, 4, 60, 82
6, 21360, Note_on_c, 4, 60, 0
6, 21360, Note_on_c, 4, 72, 0
6, 31680, Note_on_c, 4, 74, 85
6, 32040, Note_on_c, 4, 74, 0
6, 32040, Note_on_c, 4, 74, 107
6, 32160, Note_on_c, 4, 74, 0
6, 32160, Note_on_c, 4, 74, 94
6, 32520, Note_on_c, 4, 74, 0
6, 32520, Note_on_c, 4, 74, 110
6, 32640, Note_on_c, 4, 74, 0
6, 32640, Note_on_c, 4, 74, 89
6, 33000, Note_on_c, 4, 74, 0
6, 33000, Note_on_c, 4, 74, 110
6, 33120, Note_on_c, 4, 74, 0
6, 33120, Note_on_c, 4, 74, 94
6, 33840, Note_on_c, 4, 74, 0
6, 33840, Note_on_c, 4, 74, 94
6, 33900, Note_on_c, 4, 74, 0
6, 33960, Note_on_c, 4, 74, 86
6, 34020, Note_on_c, 4, 74, 0
6, 34320, Note_on_c, 4, 74, 89
6, 34380, Note_on_c, 4, 74, 0
6, 34440, Note_on_c, 4, 74, 90
6, 34500, Note_on_c, 4, 74, 0
6, 34560, Note_on_c, 4, 76, 76
6, 34800, Note_on_c, 4, 76, 0
6, 34800, Note_on_c, 4, 76, 86
6, 35040, Note_on_c, 4, 76, 0
6, 35040, Note_on_c, 4, 74, 84
6, 35280, Note_on_c, 4, 74, 0
6, 46560, Note_on_c, 4, 67, 78
6, 46560, Note_on_c, 4, 79, 74
6, 47520, Note_on_c, 4, 79, 0
6, 47520, Note_on_c, 4, 67, 0
6, 47520, Note_on_c, 4, 67, 76
6, 47520, Note_on_c, 4, 79, 72
6, 48240, Note_on_c, 4, 79, 0
6, 48240, Note_on_c, 4, 67, 0
6, 82560, Note_on_c, 4, 72, 71
6, 82560, Note_on_c, 4, 64, 95
6, 82920, Note_on_c, 4, 64, 0
6, 82920, Note_on_c, 4, 72, 0
6, 82920, Note_on_c, 4, 72, 68
6, 82920, Note_on_c, 4, 64, 95
6, 82980, Note_on_c, 4, 64, 0
6, 82980, Note_on_c, 4, 72, 0
6, 83040, Note_on_c, 4, 72, 63
6, 83040, Note_on_c, 4, 64, 99
6, 83400, Note_on_c, 4, 64, 0
6, 83400, Note_on_c, 4, 72, 0
6, 83400, Note_on_c, 4, 72, 71
6, 83400, Note_on_c, 4, 64, 93
6, 83460, Note_on_c, 4, 64, 0
6, 83460, Note_on_c, 4, 72, 0
6, 83520, Note_on_c, 4, 72, 68
6, 83520, Note_on_c, 4, 64, 95
6, 83640, Note_on_c, 4, 64, 0
6, 83640, Note_on_c, 4, 72, 0
6, 83640, Note_on_c, 4, 72, 70
6, 83640, Note_on_c, 4, 64, 99
6, 83760, Note_on_c, 4, 64, 0
6, 83760, Note_on_c, 4, 72, 0
6, 83760, Note_on_c, 4, 72, 76
6, 83760, Note_on_c, 4, 64, 99
6, 83880, Note_on_c, 4, 64, 0
6, 83880, Note_on_c, 4, 72, 0
6, 83880, Note_on_c, 4, 64, 101
6, 83880, Note_on_c, 4, 72, 78
6, 84000, Note_on_c, 4, 72, 0
6, 84000, Note_on_c, 4, 64, 0
6, 84000, Note_on_c, 4, 74, 94
6, 84000, Note_on_c, 4, 67, 95
6, 84120, Note_on_c, 4, 67, 0
6, 84120, Note_on_c, 4, 74, 0
6, 84360, Note_on_c, 4, 74, 104
6, 84480, Note_on_c, 4, 74, 0
6, 84480, Note_on_c, 4, 79, 82
6, 84480, Note_on_c, 4, 67, 89
6, 84720, Note_on_c, 4, 67, 0
6, 84720, Note_on_c, 4, 79, 0
6, 84840, Note_on_c, 4, 74, 105
6, 84960, Note_on_c, 4, 74, 0
6, 84960, Note_on_c, 4, 74, 93
6, 84960, Note_on_c, 4, 67, 94
6, 85200, Note_on_c, 4, 67, 0
6, 85200, Note_on_c, 4, 74, 0
6, 85440, Note_on_c, 4, 79, 80
6, 85440, Note_on_c, 4, 67, 85
6, 85680, Note_on_c, 4, 67, 0
6, 85680, Note_on_c, 4, 79, 0
6, 85680, Note_on_c, 4, 67, 90
6, 85680, Note_on_c, 4, 79, 85
6, 85920, Note_on_c, 4, 79, 0
6, 85920, Note_on_c, 4, 67, 0
6, 85920, Note_on_c, 4, 79, 107
6, 85920, Note_on_c, 4, 67, 112
6, 86280, Note_on_c, 4, 67, 0
6, 86280, Note_on_c, 4, 79, 0
6, 86280, Note_on_c, 4, 67, 89
6, 86280, Note_on_c, 4, 79, 80
6, 86400, Note_on_c, 4, 79, 0
6, 86400, Note_on_c, 4, 67, 0
6, 86400, Note_on_c, 4, 74, 86
6, 86400, Note_on_c, 4, 67, 86
6, 86640, Note_on_c, 4, 67, 0
6, 86640, Note_on_c, 4, 74, 0
6, 86640, Note_on_c, 4, 67, 94
6, 86640, Note_on_c, 4, 74, 98
6, 86880, Note_on_c, 4, 74, 0
6, 86880, Note_on_c, 4, 67, 0
6, 86880, Note_on_c, 4, 74, 112
6, 86880, Note_on_c, 4, 67, 117
6, 87240, Note_on_c, 4, 67, 0
6, 87240, Note_on_c, 4, 74, 0
6, 87600, Note_on_c, 4, 67, 119
6, 87600, Note_on_c, 4, 74, 112
6, 87840, Note_on_c, 4, 74, 0
6, 87840, Note_on_c, 4, 67, 0
6, 88080, Note_on_c, 4, 67, 119
6, 88080, Note_on_c, 4, 74, 112
6, 88320, Note_on_c, 4, 74, 0
6, 88320, Note_on_c, 4, 67, 0
6, 88440, Note_on_c, 4, 77, 85
6, 88440, Note_on_c, 4, 74, 101
6, 88500, Note_on_c, 4, 74, 0
6, 88500, Note_on_c, 4, 77, 0
6, 88560, Note_on_c, 4, 76, 98
6, 88560, Note_on_c, 4, 72, 84
6, 88620, Note_on_c, 4, 72, 0
6, 88620, Note_on_c, 4, 76, 0
6, 88680, Note_on_c, 4, 74, 105
6, 88680, Note_on_c, 4, 72, 86
6, 88740, Note_on_c, 4, 72, 0
6, 88740, Note_on_c, 4, 74, 0
6, 88800, Note_on_c, 4, 76, 94
6, 88800, Note_on_c, 4, 72, 84
6, 88860, Note_on_c, 4, 72, 0
6, 88860, Note_on_c, 4, 76, 0
6, 88920, Note_on_c, 4, 76, 94
6, 88920, Note_on_c, 4, 72, 80
6, 88980, Note_on_c, 4, 72, 0
6, 88980, Note_on_c, 4, 76, 0
6, 89040, Note_on_c, 4, 77, 86
6, 89040, Note_on_c, 4, 74, 104
6, 89100, Note_on_c, 4, 74, 0
6, 89100, Note_on_c, 4, 77, 0
6, 89160, Note_on_c, 4, 74, 81
6, 89160, Note_on_c, 4, 67, 94
6, 89220, Note_on_c, 4, 67, 0
6, 89220, Note_on_c, 4, 74, 0
6, 89280, Note_on_c, 4, 72, 62
6, 89280, Note_on_c, 4, 64, 94
6, 89520, Note_on_c, 4, 64, 0
6, 89520, Note_on_c, 4, 72, 0
6, 89760, Note_on_c, 4, 74, 89
6, 89760, Note_on_c, 4, 67, 93
6, 90000, Note_on_c, 4, 67, 0
6, 90000, Note_on_c, 4, 74, 0
6, 90240, Note_on_c, 4, 76, 123
6, 90240, Note_on_c, 4, 72, 107
6, 90720, Note_on_c, 4, 72, 0
6, 90720, Note_on_c, 4, 76, 0
6, 90720, Note_on_c, 4, 74, 110
6, 90720, Note_on_c, 4, 67, 107
6, 90780, Note_on_c, 4, 67, 0
6, 90780, Note_on_c, 4, 74, 0
6, 90840, Note_on_c, 4, 76, 110
6, 90840, Note_on_c, 4, 72, 105
6, 90900, Note_on_c, 4, 72, 0
6, 90900, Note_on_c, 4, 76, 0
6, 90960, Note_on_c, 4, 77, 107
6, 90960, Note_on_c, 4, 74, 119
6, 91020, Note_on_c, 4, 74, 0
6, 91020, Note_on_c, 4, 77, 0
6, 91080, Note_on_c, 4, 74, 110
6, 91080, Note_on_c, 4, 67, 112
6, 91140, Note_on_c, 4, 67, 0
6, 91140, Note_on_c, 4, 74, 0
6, 91200, Note_on_c, 4, 72, 93
6, 91200, Note_on_c, 4, 64, 105
6, 91260, Note_on_c, 4, 64, 0
6, 91260, Note_on_c, 4, 72, 0
6, 91320, Note_on_c, 4, 74, 112
6, 91320, Note_on_c, 4, 65, 112
6, 91380, Note_on_c, 4, 65, 0
6, 91380, Note_on_c, 4, 74, 0
6, 91440, Note_on_c, 4, 72, 99
6, 91440, Note_on_c, 4, 64, 112
6, 91500, Note_on_c, 4, 64, 0
6, 91500, Note_on_c, 4, 72, 0
6, 91560, Note_on_c, 4, 74, 117
6, 91560, Note_on_c, 4, 65, 115
6, 91620, Note_on_c, 4, 65, 0
6, 91620, Note_on_c, 4, 74, 0
6, 91680, Note_on_c, 4, 72, 104
6, 91680, Note_on_c, 4, 64, 117
6, 91920, Note_on_c, 4, 64, 0
6, 91920, Note_on_c, 4, 72, 0
6, 96000, Note_on_c, 4, 52, 42
6, 96000, Note_on_c, 4, 64, 45
6, 97440, Note_on_c, 4, 64, 0
6, 97440, Note_on_c, 4, 52, 0
6, 97440, Note_on_c, 4, 52, 44
6, 97440, Note_on_c, 4, 64, 45
6, 98880, Note_on_c, 4, 64, 0
6, 98880, Note_on_c, 4, 52, 0
6, 108960, Note_on_c, 4, 64, 57
6, 108960, Note_on_c, 4, 76, 65
6, 109920, Note_on_c, 4, 76, 0
6, 109920, Note_on_c, 4, 64, 0
6, 109920, Note_on_c, 4, 64, 58
6, 109920, Note_on_c, 4, 76, 58
6, 110880, Note_on_c, 4, 76, 0
6, 110880, Note_on_c, 4, 64, 0
6, 124440, Note_on_c, 4, 76, 60
6, 124440, Note_on_c, 4, 64, 61
6, 124560, Note_on_c, 4, 64, 0
6, 124560, Note_on_c, 4, 76, 0
6, 124560, Note_on_c, 4, 76, 85
6, 124560, Note_on_c, 4, 64, 80
6, 124680, Note_on_c, 4, 64, 0
6, 124680, Note_on_c, 4, 76, 0
6, 124680, Note_on_c, 4, 76, 89
6, 124680, Note_on_c, 4, 64, 89
6, 124800, Note_on_c, 4, 64, 0
6, 124800, Note_on_c, 4, 76, 0
6, 124800, Note_on_c, 4, 77, 43
6, 124800, Note_on_c, 4, 74, 49
6, 125040, Note_on_c, 4, 74, 0
6, 125040, Note_on_c, 4, 77, 0
6, 125040, Note_on_c, 4, 76, 40
6, 125040, Note_on_c, 4, 64, 43
6, 125280, Note_on_c, 4, 64, 0
6, 125280, Note_on_c, 4, 76, 0
6, 125280, Note_on_c, 4, 76, 64
6, 125280, Note_on_c, 4, 64, 67
6, 126240, Note_on_c, 4, 64, 0
6, 126240, Note_on_c, 4, 76, 0
6, 126240, Note_on_c, 4, 76, 58
6, 126240, Note_on_c, 4, 64, 41
6, 127200, Note_on_c, 4, 64, 0
6, 127200, Note_on_c, 4, 76, 0
6, 158880, Note_on_c, 4, 72, 71
6, 158880, Note_on_c, 4, 64, 95
6, 159240, Note_on_c, 4, 64, 0
6, 159240, Note_on_c, 4, 72, 0
6, 159240, Note_on_c, 4, 72, 68
6, 159240, Note_on_c, 4, 64, 95
6, 159300, Note_on_c, 4, 64, 0
6, 159300, Note_on_c, 4, 72, 0
6, 159360, Note_on_c, 4, 72, 63
6, 159360, Note_on_c, 4, 64, 99
6, 159720, Note_on_c, 4, 64, 0
6, 159720, Note_on_c, 4, 72, 0
6, 159720, Note_on_c, 4, 72, 71
6, 159720, Note_on_c, 4, 64, 93
6, 159780, Note_on_c, 4, 64, 0
6, 159780, Note_on_c, 4, 72, 0
6, 159840, Note_on_c, 4, 72, 68
6, 159840, Note_on_c, 4, 64, 95
6, 159960, Note_on_c, 4, 64, 0
6, 159960, Note_on_c, 4, 72, 0
6, 159960, Note_on_c, 4, 72, 70
6, 159960, Note_on_c, 4, 64, 99
6, 160080, Note_on_c, 4, 64, 0
6, 160080, Note_on_c, 4, 72, 0
6, 160080, Note_on_c, 4, 72, 76
6, 160080, Note_on_c, 4, 64, 99
6, 160200, Note_on_c, 4, 64, 0
6, 160200, Note_on_c, 4, 72, 0
6, 160200, Note_on_c, 4, 64, 101
6, 160200, Note_on_c, 4, 72, 78
6, 160320, Note_on_c, 4, 72, 0
6, 160320, Note_on_c, 4, 64, 0
6, 160320, Note_on_c, 4, 74, 94
6, 160320, Note_on_c, 4, 67, 95
6, 160440, Note_on_c, 4, 67, 0
6, 160440, Note_on_c, 4, 74, 0
6, 160680, Note_on_c, 4, 74, 104
6, 160800, Note_on_c, 4, 74, 0
6, 160800, Note_on_c, 4, 79, 82
6, 160800, Note_on_c, 4, 67, 89
6, 161040, Note_on_c, 4, 67, 0
6, 161040, Note_on_c, 4, 79, 0
6, 161160, Note_on_c, 4, 74, 105
6, 161280, Note_on_c, 4, 74, 0
6, 161280, Note_on_c, 4, 74, 93
6, 161280, Note_on_c, 4, 67, 94
6, 161520, Note_on_c, 4, 67, 0
6, 161520, Note_on_c, 4, 74, 0
6, 161760, Note_on_c, 4, 79, 80
6, 161760, Note_on_c, 4, 67, 85
6, 162000, Note_on_c, 4, 67, 0
6, 162000, Note_on_c, 4, 79, 0
6, 162000, Note_on_c, 4, 67, 90
6, 162000, Note_on_c, 4, 79, 85
6, 162240, Note_on_c, 4, 79, 0
6, 162240, Note_on_c, 4, 67, 0
6, 162240, Note_on_c, 4, 79, 107
6, 162240, Note_on_c, 4, 67, 112
6, 162600, Note_on_c, 4, 67, 0
6, 162600, Note_on_c, 4, 79, 0
6, 162600, Note_on_c, 4, 67, 89
6, 162600, Note_on_c, 4, 79, 80
6, 162720, Note_on_c, 4, 79, 0
6, 162720, Note_on_c, 4, 67, 0
6, 162720, Note_on_c, 4, 74, 86
6, 162720, Note_on_c, 4, 67, 86
6, 162960, Note_on_c, 4, 67, 0
6, 162960, Note_on_c, 4, 74, 0
6, 162960, Note_on_c, 4, 67, 94
6, 162960, Note_on_c, 4, 74, 98
6, 163200, Note_on_c, 4, 74, 0
6, 163200, Note_on_c, 4, 67, 0
6, 163200, Note_on_c, 4, 74, 112
6, 163200, Note_on_c, 4, 67, 117
6, 163560, Note_on_c, 4, 67, 0
6, 163560, Note_on_c, 4, 74, 0
6, 163920, Note_on_c, 4, 67, 119
6, 163920, Note_on_c, 4, 74, 112
6, 164160, Note_on_c, 4, 74, 0
6, 164160, Note_on_c, 4, 67, 0
6, 164400, Note_on_c, 4, 67, 119
6, 164400, Note_on_c, 4, 74, 112
6, 164640, Note_on_c, 4, 74, 0
6, 164640, Note_on_c, 4, 67, 0
6, 164760, Note_on_c, 4, 77, 85
6, 164760, Note_on_c, 4, 74, 101
6, 164820, Note_on_c, 4, 74, 0
6, 164820, Note_on_c, 4, 77, 0
6, 164880, Note_on_c, 4, 76, 98
6, 164880, Note_on_c, 4, 72, 84
6, 164940, Note_on_c, 4, 72, 0
6, 164940, Note_on_c, 4, 76, 0
6, 165000, Note_on_c, 4, 74, 105
6, 165000, Note_on_c, 4, 72, 86
6, 165060, Note_on_c, 4, 72, 0
6, 165060, Note_on_c, 4, 74, 0
6, 165120, Note_on_c, 4, 76, 94
6, 165120, Note_on_c, 4, 72, 84
6, 165180, Note_on_c, 4, 72, 0
6, 165180, Note_on_c, 4, 76, 0
6, 165240, Note_on_c, 4, 76, 94
6, 165240, Note_on_c, 4, 72, 80
6, 165300, Note_on_c, 4, 72, 0
6, 165300, Note_on_c, 4, 76, 0
6, 165360, Note_on_c, 4, 77, 86
6, 165360, Note_on_c, 4, 74, 104
6, 165420, Note_on_c, 4, 74, 0
6, 165420, Note_on_c, 4, 77, 0
6, 165480, Note_on_c, 4, 74, 81
6, 165480, Note_on_c, 4, 67, 94
6, 165540, Note_on_c, 4, 67, 0
6, 165540, Note_on_c, 4, 74, 0
6, 165600, Note_on_c, 4, 72, 62
6, 165600, Note_on_c, 4, 64, 94
6, 165840, Note_on_c, 4, 64, 0
6, 165840, Note_on_c, 4, 72, 0
6, 166080, Note_on_c, 4, 74, 89
6, 166080, Note_on_c, 4, 67, 93
6, 166320, Note_on_c, 4, 67, 0
6, 166320, Note_on_c, 4, 74, 0
6, 166560, Note_on_c, 4, 72, 107
6, 166560, Note_on_c, 4, 76, 123
6, 167040, Note_on_c, 4, 76, 0
6, 167040, Note_on_c, 4, 72, 0
6, 167040, Note_on_c, 4, 74, 110
6, 167040, Note_on_c, 4, 67, 107
6, 167100, Note_on_c, 4, 67, 0
6, 167100, Note_on_c, 4, 74, 0
6, 167160, Note_on_c, 4, 76, 110
6, 167160, Note_on_c, 4, 72, 105
6, 167220, Note_on_c, 4, 72, 0
6, 167220, Note_on_c, 4, 76, 0
6, 167280, Note_on_c, 4, 77, 107
6, 167280, Note_on_c, 4, 74, 119
6, 167340, Note_on_c, 4, 74, 0
6, 167340, Note_on_c, 4, 77, 0
6, 167400, Note_on_c, 4, 74, 110
6, 167400, Note_on_c, 4, 67, 112
6, 167460, Note_on_c, 4, 67, 0
6, 167460, Note_on_c, 4, 74, 0
6, 167520, Note_on_c, 4, 72, 93
6, 167520, Note_on_c, 4, 64, 105
6, 167580, Note_on_c, 4, 64, 0
6, 167580, Note_on_c, 4, 72, 0
6, 167640, Note_on_c, 4, 74, 112
6, 167640, Note_on_c, 4, 65, 112
6, 167700, Note_on_c, 4, 65, 0
6, 167700, Note_on_c, 4, 74, 0
6, 167760, Note_on_c, 4, 72, 99
6, 167760, Note_on_c, 4, 64, 112
6, 167820, Note_on_c, 4, 64, 0
6, 167820, Note_on_c, 4, 72, 0
6, 167880, Note_on_c, 4, 74, 117
6, 167880, Note_on_c, 4, 65, 115
6, 167940, Note_on_c, 4, 65, 0
6, 167940, Note_on_c, 4, 74, 0
6, 168000, Note_on_c, 4, 72, 104
6, 168000, Note_on_c, 4, 64, 117
6, 168240, Note_on_c, 4, 64, 0
6, 168240, Note_on_c, 4, 72, 0
6, 168360, Note_on_c, 4, 67, 76
6, 168360, Note_on_c, 4, 55, 89
6, 168480, Note_on_c, 4, 55, 0
6, 168480, Note_on_c, 4, 67, 0
6, 168480, Note_on_c, 4, 72, 67
6, 168480, Note_on_c, 4, 60, 81
6, 168540, Note_on_c, 4, 60, 0
6, 168540, Note_on_c, 4, 72, 0
6, 168600, Note_on_c, 4, 72, 57
6, 168600, Note_on_c, 4, 60, 80
6, 168660, Note_on_c, 4, 60, 0
6, 168660, Note_on_c, 4, 72, 0
6, 168720, Note_on_c, 4, 72, 53
6, 168720, Note_on_c, 4, 60, 80
6, 168780, Note_on_c, 4, 60, 0
6, 168780, Note_on_c, 4, 72, 0
6, 168840, Note_on_c, 4, 67, 69
6, 168840, Note_on_c, 4, 55, 84
6, 168900, Note_on_c, 4, 55, 0
6, 168900, Note_on_c, 4, 67, 0
6, 168960, Note_on_c, 4, 76, 86
6, 168960, Note_on_c, 4, 64, 98
6, 169320, Note_on_c, 4, 64, 0
6, 169320, Note_on_c, 4, 76, 0
6, 169320, Note_on_c, 4, 72, 80
6, 169320, Note_on_c, 4, 60, 99
6, 169440, Note_on_c, 4, 60, 0
6, 169440, Note_on_c, 4, 72, 0
6, 169440, Note_on_c, 4, 79, 84
6, 169440, Note_on_c, 4, 67, 86
6, 169500, Note_on_c, 4, 67, 0
6, 169500, Note_on_c, 4, 79, 0
6, 169560, Note_on_c, 4, 79, 82
6, 169560, Note_on_c, 4, 67, 89
6, 169620, Note_on_c, 4, 67, 0
6, 169620, Note_on_c, 4, 79, 0
6, 169680, Note_on_c, 4, 79, 80
6, 169680, Note_on_c, 4, 67, 84
6, 169740, Note_on_c, 4, 67, 0
6, 169740, Note_on_c, 4, 79, 0
6, 169800, Note_on_c, 4, 76, 94
6, 169800, Note_on_c, 4, 64, 86
6, 169860, Note_on_c, 4, 64, 0
6, 169860, Note_on_c, 4, 76, 0
6, 169920, Note_on_c, 4, 72, 69
6, 169920, Note_on_c, 4, 60, 82
6, 170160, Note_on_c, 4, 60, 0
6, 170160, Note_on_c, 4, 72, 0
6, 183360, Note_on_c, 4, 79, 53
6, 183360, Note_on_c, 4, 67, 67
6, 183720, Note_on_c, 4, 67, 0
6, 183720, Note_on_c, 4, 79, 0
6, 183720, Note_on_c, 4, 67, 85
6, 183720, Note_on_c, 4, 79, 80
6, 183840, Note_on_c, 4, 79, 0
6, 183840, Note_on_c, 4, 67, 0
6, 183840, Note_on_c, 4, 79, 57
6, 183840, Note_on_c, 4, 67, 60
6, 184200, Note_on_c, 4, 67, 0
6, 184200, Note_on_c, 4, 79, 0
6, 184200, Note_on_c, 4, 67, 93
6, 184200, Note_on_c, 4, 79, 77
6, 184320, Note_on_c, 4, 79, 0
6, 184320, Note_on_c, 4, 67, 0
6, 184320, Note_on_c, 4, 79, 43
6, 184320, Note_on_c, 4, 67, 53
6, 184680, Note_on_c, 4, 67, 0
6, 184680, Note_on_c, 4, 79, 0
6, 184680, Note_on_c, 4, 67, 86
6, 184680, Note_on_c, 4, 79, 80
6, 184800, Note_on_c, 4, 79, 0
6, 184800, Note_on_c, 4, 67, 0
6, 184800, Note_on_c, 4, 67, 71
6, 184800, Note_on_c, 4, 79, 64
6, 185520, Note_on_c, 4, 79, 0
6, 185520, Note_on_c, 4, 67, 0
6, 185520, Note_on_c, 4, 74, 60
6, 185520, Note_on_c, 4, 67, 71
6, 185580, Note_on_c, 4, 67, 0
6, 185580, Note_on_c, 4, 74, 0
6, 185640, Note_on_c, 4, 74, 58
6, 185640, Note_on_c, 4, 67, 70
6, 185700, Note_on_c, 4, 67, 0
6, 185700, Note_on_c, 4, 74, 0
6, 186000, Note_on_c, 4, 72, 41
6, 186000, Note_on_c, 4, 64, 69
6, 186060, Note_on_c, 4, 64, 0
6, 186060, Note_on_c, 4, 72, 0
6, 186120, Note_on_c, 4, 64, 61
6, 186180, Note_on_c, 4, 64, 0
6, 186240, Note_on_c, 4, 74, 82
6, 186480, Note_on_c, 4, 74, 0
6, 186480, Note_on_c, 4, 74, 84
6, 186720, Note_on_c, 4, 74, 0
6, 186720, Note_on_c, 4, 74, 61
6, 186720, Note_on_c, 4, 67, 56
6, 186960, Note_on_c, 4, 67, 0
6, 186960, Note_on_c, 4, 74, 0
6, 198240, Note_on_c, 4, 60, 55
6, 198240, Note_on_c, 4, 72, 43
6, 199200, Note_on_c, 4, 72, 0
6, 199200, Note_on_c, 4, 60, 0
6, 199200, Note_on_c, 4, 60, 62
6, 199200, Note_on_c, 4, 72, 45
6, 199920, Note_on_c, 4, 72, 0
6, 199920, Note_on_c, 4, 60, 0
6, 202080, Note_on_c, 4, 67, 45
6, 202080, Note_on_c, 4, 79, 72
6, 203040, Note_on_c, 4, 79, 0
6, 203040, Note_on_c, 4, 67, 0
6, 203040, Note_on_c, 4, 77, 53
6, 203040, Note_on_c, 4, 74, 63
6, 203280, Note_on_c, 4, 74, 0
6, 203280, Note_on_c, 4, 77, 0
6, 203280, Note_on_c, 4, 67, 72
6, 203280, Note_on_c, 4, 74, 60
6, 203520, Note_on_c, 4, 74, 0
6, 203520, Note_on_c, 4, 67, 0
6, 203520, Note_on_c, 4, 72, 45
6, 203520, Note_on_c, 4, 64, 81
6, 203760, Note_on_c, 4, 64, 0
6, 203760, Note_on_c, 4, 72, 0
6, 209280, Note_on_c, 4, 72, 29
6, 209280, Note_on_c, 4, 64, 68
6, 209760, Note_on_c, 4, 64, 0
6, 209760, Note_on_c, 4, 72, 0
6, 209760, Note_on_c, 4, 74, 62
6, 209760, Note_on_c, 4, 67, 69
6, 210240, Note_on_c, 4, 67, 0
6, 210240, Note_on_c, 4, 74, 0
6, 210240, Note_on_c, 4, 76, 70
6, 210240, Note_on_c, 4, 72, 41
6, 210720, Note_on_c, 4, 72, 0
6, 210720, Note_on_c, 4, 76, 0
6, 210720, Note_on_c, 4, 74, 66
6, 210720, Note_on_c, 4, 67, 68
6, 211200, Note_on_c, 4, 67, 0
6, 211200, Note_on_c, 4, 74, 0
6, 211200, Note_on_c, 4, 72, 38
6, 211200, Note_on_c, 4, 64, 76
6, 211680, Note_on_c, 4, 64, 0
6, 211680, Note_on_c, 4, 72, 0
6, 211680, Note_on_c, 4, 74, 76
6, 211680, Note_on_c, 4, 67, 64
6, 212160, Note_on_c, 4, 67, 0
6, 212160, Note_on_c, 4, 74, 0
6, 212160, Note_on_c, 4, 72, 51
6, 212160, Note_on_c, 4, 60, 81
6, 212640, Note_on_c, 4, 60, 0
6, 212640, Note_on_c, 4, 72, 0
6, 212640, Note_on_c, 4, 72, 40
6, 212640, Note_on_c, 4, 60, 73
6, 213120, Note_on_c, 4, 60, 0
6, 213120, Note_on_c, 4, 72, 0
6, 213120, Note_on_c, 4, 72, 58
6, 213120, Note_on_c, 4, 60, 68
6, 213600, Note_on_c, 4, 60, 0
6, 213600, Note_on_c, 4, 72, 0
6, 213600, Note_on_c, 4, 72, 55
6, 213600, Note_on_c, 4, 60, 73
6, 214080, Note_on_c, 4, 60, 0
6, 214080, Note_on_c, 4, 72, 0
6, 214080, Note_on_c, 4, 74, 70
6, 214080, Note_on_c, 4, 67, 52
6, 214560, Note_on_c, 4, 67, 0
6, 214560, Note_on_c, 4, 74, 0
6, 214560, Note_on_c, 4, 74, 61
6, 214560, Note_on_c, 4, 67, 46
6, 214800, Note_on_c, 4, 67, 0
6, 214800, Note_on_c, 4, 74, 0
6, 214800, Note_on_c, 4, 74, 58
6, 214800, Note_on_c, 4, 67, 55
6, 215040, Note_on_c, 4, 67, 0
6, 215040, Note_on_c, 4, 74, 0
6, 215040, Note_on_c, 4, 72, 84
6, 215040, Note_on_c, 4, 60, 93
6, 215520, Note_on_c, 4, 60, 0
6, 215520, Note_on_c, 4, 72, 0
6, 215520, Note_on_c, 4, 72, 85
6, 215520, Note_on_c, 4, 60, 94
6, 216000, Note_on_c, 4, 60, 0
6, 216000, Note_on_c, 4, 72, 0
6, 216000, Note_on_c, 4, 72, 74
6, 216000, Note_on_c, 4, 60, 95
6, 216720, Note_on_c, 4, 60, 0
6, 216720, Note_on_c, 4, 72, 0
6, 216720, Note_on_c, 4, 72, 73
6, 216720, Note_on_c, 4, 60, 94
6, 216960, Note_on_c, 4, 60, 0
6, 216960, Note_on_c, 4, 72, 0
6, 216960, Note_on_c, 4, 72, 45
6, 216960, Note_on_c, 4, 60, 73
6, 217680, Note_on_c, 4, 60, 0
6, 217680, Note_on_c, 4, 72, 0
6, 217680, Note_on_c, 4, 72, 70
6, 217680, Note_on_c, 4, 60, 94
6, 217920, Note_on_c, 4, 60, 0
6, 217920, Note_on_c, 4, 72, 0
6, 217920, Note_on_c, 4, 72, 53
6, 217920, Note_on_c, 4, 60, 84
6, 218040, Note_on_c, 4, 60, 0
6, 218040, Note_on_c, 4, 72, 0
6, 218040, Note_on_c, 4, 72, 53
6, 218040, Note_on_c, 4, 60, 84
6, 218160, Note_on_c, 4, 60, 0
6, 218160, Note_on_c, 4, 72, 0
6, 218160, Note_on_c, 4, 72, 90
6, 218160, Note_on_c, 4, 60, 99
6, 218280, Note_on_c, 4, 60, 0
6, 218280, Note_on_c, 4, 72, 0
6, 218280, Note_on_c, 4, 72, 46
6, 218280, Note_on_c, 4, 60, 82
6, 218400, Note_on_c, 4, 60, 0
6, 218400, Note_on_c, 4, 72, 0
6, 218400, Note_on_c, 4, 72, 65
6, 218400, Note_on_c, 4, 60, 82
6, 218520, Note_on_c, 4, 60, 0
6, 218520, Note_on_c, 4, 72, 0
6, 218520, Note_on_c, 4, 72, 72
6, 218520, Note_on_c, 4, 60, 90
6, 218640, Note_on_c, 4, 60, 0
6, 218640, Note_on_c, 4, 72, 0
6, 218640, Note_on_c, 4, 72, 94
6, 218640, Note_on_c, 4, 60, 101
6, 218760, Note_on_c, 4, 60, 0
6, 218760, Note_on_c, 4, 72, 0
6, 218760, Note_on_c, 4, 72, 72
6, 218760, Note_on_c, 4, 60, 90
6, 218880, Note_on_c, 4, 60, 0
6, 218880, Note_on_c, 4, 72, 0
6, 218880, Note_on_c, 4, 72, 89
6, 218880, Note_on_c, 4, 60, 99
6, 220320, Note_on_c, 4, 60, 0
6, 220320, Note_on_c, 4, 72, 0
6, 238800, Note_on_c, 4, 74, 42
6, 238800, Note_on_c, 4, 67, 38
6, 238920, Note_on_c, 4, 67, 0
6, 238920, Note_on_c, 4, 74, 0
6, 239040, Note_on_c, 4, 74, 53
6, 239040, Note_on_c, 4, 67, 41
6, 239160, Note_on_c, 4, 67, 0
6, 239160, Note_on_c, 4, 74, 0
6, 239280, Note_on_c, 4, 74, 52
6, 239280, Note_on_c, 4, 67, 43
6, 239400, Note_on_c, 4, 67, 0
6, 239400, Note_on_c, 4, 74, 0
6, 239520, Note_on_c, 4, 74, 45
6, 239520, Note_on_c, 4, 67, 43
6, 240960, Note_on_c, 4, 67, 0
6, 240960, Note_on_c, 4, 74, 0
6, 241440, Note_on_c, 4, 72, 71
6, 241440, Note_on_c, 4, 64, 95
6, 241800, Note_on_c, 4, 64, 0
6, 241800, Note_on_c, 4, 72, 0
6, 241800, Note_on_c, 4, 72, 68
6, 241800, Note_on_c, 4, 64, 95
6, 241860, Note_on_c, 4, 64, 0
6, 241860, Note_on_c, 4, 72, 0
6, 241920, Note_on_c, 4, 72, 63
6, 241920, Note_on_c, 4, 64, 99
6, 242280, Note_on_c, 4, 64, 0
6, 242280, Note_on_c, 4, 72, 0
6, 242280, Note_on_c, 4, 72, 71
6, 242280, Note_on_c, 4, 64, 93
6, 242340, Note_on_c, 4, 64, 0
6, 242340, Note_on_c, 4, 72, 0
6, 242400, Note_on_c, 4, 72, 68
6, 242400, Note_on_c, 4, 64, 95
6, 242520, Note_on_c, 4, 64, 0
6, 242520, Note_on_c, 4, 72, 0
6, 242520, Note_on_c, 4, 72, 70
6, 242520, Note_on_c, 4, 64, 99
6, 242640, Note_on_c, 4, 64, 0
6, 242640, Note_on_c, 4, 72, 0
6, 242640, Note_on_c, 4, 72, 76
6, 242640, Note_on_c, 4, 64, 99
6, 242760, Note_on_c, 4, 64, 0
6, 242760, Note_on_c, 4, 72, 0
6, 242760, Note_on_c, 4, 64, 101
6, 242760, Note_on_c, 4, 72, 78
6, 242880, Note_on_c, 4, 72, 0
6, 242880, Note_on_c, 4, 64, 0
6, 242880, Note_on_c, 4, 74, 94
6, 242880, Note_on_c, 4, 67, 95
6, 243000, Note_on_c, 4, 67, 0
6, 243000, Note_on_c, 4, 74, 0
6, 243240, Note_on_c, 4, 74, 104
6, 243360, Note_on_c, 4, 74, 0
6, 243360, Note_on_c, 4, 79, 82
6, 243360, Note_on_c, 4, 67, 89
6, 243600, Note_on_c, 4, 67, 0
6, 243600, Note_on_c, 4, 79, 0
6, 243720, Note_on_c, 4, 74, 105
6, 243840, Note_on_c, 4, 74, 0
6, 243840, Note_on_c, 4, 74, 93
6, 243840, Note_on_c, 4, 67, 94
6, 244080, Note_on_c, 4, 67, 0
6, 244080, Note_on_c, 4, 74, 0
6, 244320, Note_on_c, 4, 79, 80
6, 244320, Note_on_c, 4, 67, 85
6, 244560, Note_on_c, 4, 67, 0
6, 244560, Note_on_c, 4, 79, 0
6, 244560, Note_on_c, 4, 67, 90
6, 244560, Note_on_c, 4, 79, 85
6, 244800, Note_on_c, 4, 79, 0
6, 244800, Note_on_c, 4, 67, 0
6, 244800, Note_on_c, 4, 79, 107
6, 244800, Note_on_c, 4, 67, 112
6, 245160, Note_on_c, 4, 67, 0
6, 245160, Note_on_c, 4, 79, 0
6, 245160, Note_on_c, 4, 67, 89
6, 245160, Note_on_c, 4, 79, 80
6, 245280, Note_on_c, 4, 79, 0
6, 245280, Note_on_c, 4, 67, 0
6, 245280, Note_on_c, 4, 74, 86
6, 245280, Note_on_c, 4, 67, 86
6, 245520, Note_on_c, 4, 67, 0
6, 245520, Note_on_c, 4, 74, 0
6, 245520, Note_on_c, 4, 67, 94
6, 245520, Note_on_c, 4, 74, 98
6, 245760, Note_on_c, 4, 74, 0
6, 245760, Note_on_c, 4, 67, 0
6, 245760, Note_on_c, 4, 74, 112
6, 245760, Note_on_c, 4, 67, 117
6, 246120, Note_on_c, 4, 67, 0
6, 246120, Note_on_c, 4, 74, 0
6, 246480, Note_on_c, 4, 67, 119
6, 246480, Note_on_c, 4, 74, 112
6, 246720, Note_on_c, 4, 74, 0
6, 246720, Note_on_c, 4, 67, 0
6, 246960, Note_on_c, 4, 67, 119
6, 246960, Note_on_c, 4, 74, 112
6, 247200, Note_on_c, 4, 74, 0
6, 247200, Note_on_c, 4, 67, 0
6, 247320, Note_on_c, 4, 77, 85
6, 247320, Note_on_c, 4, 74, 101
6, 247380, Note_on_c, 4, 74, 0
6, 247380, Note_on_c, 4, 77, 0
6, 247440, Note_on_c, 4, 76, 98
6, 247440, Note_on_c, 4, 72, 84
6, 247500, Note_on_c, 4, 72, 0
6, 247500, Note_on_c, 4, 76, 0
6, 247560, Note_on_c, 4, 74, 105
6, 247560, Note_on_c, 4, 72, 86
6, 247620, Note_on_c, 4, 72, 0
6, 247620, Note_on_c, 4, 74, 0
6, 247680, Note_on_c, 4, 76, 94
6, 247680, Note_on_c, 4, 72, 84
6, 247740, Note_on_c, 4, 72, 0
6, 247740, Note_on_c, 4, 76, 0
6, 247800, Note_on_c, 4, 76, 94
6, 247800, Note_on_c, 4, 72, 80
6, 247860, Note_on_c, 4, 72, 0
6, 247860, Note_on_c, 4, 76, 0
6, 247920, Note_on_c, 4, 77, 86
6, 247920, Note_on_c, 4, 74, 104
6, 247980, Note_on_c, 4, 74, 0
6, 247980, Note_on_c, 4, 77, 0
6, 248040, Note_on_c, 4, 74, 81
6, 248040, Note_on_c, 4, 67, 94
6, 248100, Note_on_c, 4, 67, 0
6, 248100, Note_on_c, 4, 74, 0
6, 248160, Note_on_c, 4, 72, 62
6, 248160, Note_on_c, 4, 64, 94
6, 248400, Note_on_c, 4, 64, 0
6, 248400, Note_on_c, 4, 72, 0
6, 248640, Note_on_c, 4, 74, 89
6, 248640, Note_on_c, 4, 67, 93
6, 248880, Note_on_c, 4, 67, 0
6, 248880, Note_on_c, 4, 74, 0
6, 249120, Note_on_c, 4, 72, 107
6, 249120, Note_on_c, 4, 76, 123
6, 249600, Note_on_c, 4, 76, 0
6, 249600, Note_on_c, 4, 72, 0
6, 249600, Note_on_c, 4, 74, 110
6, 249600, Note_on_c, 4, 67, 107
6, 249660, Note_on_c, 4, 67, 0
6, 249660, Note_on_c, 4, 74, 0
6, 249720, Note_on_c, 4, 76, 110
6, 249720, Note_on_c, 4, 72, 105
6, 249780, Note_on_c, 4, 72, 0
6, 249780, Note_on_c, 4, 76, 0
6, 249840, Note_on_c, 4, 77, 107
6, 249840, Note_on_c, 4, 74, 119
6, 249900, Note_on_c, 4, 74, 0
6, 249900, Note_on_c, 4, 77, 0
6, 249960, Note_on_c, 4, 74, 110
6, 249960, Note_on_c, 4, 67, 112
6, 250020, Note_on_c, 4, 67, 0
6, 250020, Note_on_c, 4, 74, 0
6, 250080, Note_on_c, 4, 72, 93
6, 250080, Note_on_c, 4, 64, 105
6, 250140, Note_on_c, 4, 64, 0
6, 250140, Note_on_c, 4, 72, 0
6, 250200, Note_on_c, 4, 74, 112
6, 250200, Note_on_c, 4, 65, 112
6, 250260, Note_on_c, 4, 65, 0
6, 250260, Note_on_c, 4, 74, 0
6, 250320, Note_on_c, 4, 72, 99
6, 250320, Note_on_c, 4, 64, 112
6, 250380, Note_on_c, 4, 64, 0
6, 250380, Note_on_c, 4, 72, 0
6, 250440, Note_on_c, 4, 74, 117
6, 250440, Note_on_c, 4, 65, 115
6, 250500, Note_on_c, 4, 65, 0
6, 250500, Note_on_c, 4, 74, 0
6, 250560, Note_on_c, 4, 72, 104
6, 250560, Note_on_c, 4, 64, 117
6, 250800, Note_on_c, 4, 64, 0
6, 250800, Note_on_c, 4, 72, 0
6, 251400, Note_on_c, 4, 72, 41
6, 251400, Note_on_c, 4, 76, 58
6, 251520, Note_on_c, 4, 76, 0
6, 251520, Note_on_c, 4, 72, 0
6, 251520, Note_on_c, 4, 76, 90
6, 251520, Note_on_c, 4, 72, 44
6, 251580, Note_on_c, 4, 72, 0
6, 251580, Note_on_c, 4, 76, 0
6, 251580, Note_on_c, 4, 74, 48
6, 251580, Note_on_c, 4, 67, 39
6, 251640, Note_on_c, 4, 67, 0
6, 251640, Note_on_c, 4, 74, 0
6, 251640, Note_on_c, 4, 72, 57
6, 251640, Note_on_c, 4, 64, 66
6, 251700, Note_on_c, 4, 64, 0
6, 251700, Note_on_c, 4, 72, 0
6, 251760, Note_on_c, 4, 72, 29
6, 251760, Note_on_c, 4, 64, 72
6, 251820, Note_on_c, 4, 64, 0
6, 251820, Note_on_c, 4, 72, 0
6, 252360, Note_on_c, 4, 74, 47
6, 252360, Note_on_c, 4, 77, 57
6, 252480, Note_on_c, 4, 77, 0
6, 252480, Note_on_c, 4, 74, 0
6, 252480, Note_on_c, 4, 77, 57
6, 252480, Note_on_c, 4, 74, 45
6, 252540, Note_on_c, 4, 74, 0
6, 252540, Note_on_c, 4, 77, 0
6, 252540, Note_on_c, 4, 76, 29
6, 252540, Note_on_c, 4, 72, 71
6, 252600, Note_on_c, 4, 72, 0
6, 252600, Note_on_c, 4, 76, 0
6, 252600, Note_on_c, 4, 74, 56
6, 252600, Note_on_c, 4, 71, 48
6, 252660, Note_on_c, 4, 71, 0
6, 252660, Note_on_c, 4, 74, 0
6, 252720, Note_on_c, 4, 74, 49
6, 252720, Note_on_c, 4, 71, 43
6, 252780, Note_on_c, 4, 71, 0
6, 252780, Note_on_c, 4, 74, 0
6, 256680, Note_on_c, 4, 76, 72
6, 256680, Note_on_c, 4, 79, 61
6, 256800, Note_on_c, 4, 79, 0
6, 256800, Note_on_c, 4, 76, 0
6, 256800, Note_on_c, 4, 79, 62
6, 256800, Note_on_c, 4, 76, 70
6, 256860, Note_on_c, 4, 76, 0
6, 256860, Note_on_c, 4, 79, 0
6, 256860, Note_on_c, 4, 77, 78
6, 256860, Note_on_c, 4, 74, 74
6, 256920, Note_on_c, 4, 74, 0
6, 256920, Note_on_c, 4, 77, 0
6, 256920, Note_on_c, 4, 76, 74
6, 256920, Note_on_c, 4, 72, 41
6, 256980, Note_on_c, 4, 72, 0
6, 256980, Note_on_c, 4, 76, 0
6, 257040, Note_on_c, 4, 76, 65
6, 257040, Note_on_c, 4, 72, 48
6, 257100, Note_on_c, 4, 72, 0
6, 257100, Note_on_c, 4, 76, 0
6, 257160, Note_on_c, 4, 76, 71
6, 257160, Note_on_c, 4, 72, 43
6, 257220, Note_on_c, 4, 72, 0
6, 257220, Note_on_c, 4, 76, 0
6, 257280, Note_on_c, 4, 76, 72
6, 257280, Note_on_c, 4, 72, 44
6, 257340, Note_on_c, 4, 72, 0
6, 257340, Note_on_c, 4, 76, 0
6, 257340, Note_on_c, 4, 74, 64
6, 257340, Note_on_c, 4, 67, 57
6, 257400, Note_on_c, 4, 67, 0
6, 257400, Note_on_c, 4, 74, 0
6, 257400, Note_on_c, 4, 72, 43
6, 257400, Note_on_c, 4, 64, 76
6, 257460, Note_on_c, 4, 64, 0
6, 257460, Note_on_c, 4, 72, 0
6, 257520, Note_on_c, 4, 72, 45
6, 257520, Note_on_c, 4, 64, 81
6, 257580, Note_on_c, 4, 64, 0
6, 257580, Note_on_c, 4, 72, 0
6, 257640, Note_on_c, 4, 72, 29
6, 257640, Note_on_c, 4, 64, 67
6, 257700, Note_on_c, 4, 64, 0
6, 257700, Note_on_c, 4, 72, 0
6, 257760, Note_on_c, 4, 77, 63
6, 257760, Note_on_c, 4, 74, 76
6, 258000, Note_on_c, 4, 74, 0
6, 258000, Note_on_c, 4, 77, 0
6, 258000, Note_on_c, 4, 67, 58
6, 258000, Note_on_c, 4, 74, 57
6, 258240, Note_on_c, 4, 74, 0
6, 258240, Note_on_c, 4, 67, 0
6, 258240, Note_on_c, 4, 72, 41
6, 258240, Note_on_c, 4, 64, 67
6, 258480, Note_on_c, 4, 64, 0
6, 258480, Note_on_c, 4, 72, 0
6, 260520, Note_on_c, 4, 76, 84
6, 260520, Note_on_c, 4, 79, 53
6, 260640, Note_on_c, 4, 79, 0
6, 260640, Note_on_c, 4, 76, 0
6, 260640, Note_on_c, 4, 79, 64
6, 260640, Note_on_c, 4, 76, 76
6, 260700, Note_on_c, 4, 76, 0
6, 260700, Note_on_c, 4, 79, 0
6, 260700, Note_on_c, 4, 77, 65
6, 260700, Note_on_c, 4, 74, 70
6, 260760, Note_on_c, 4, 74, 0
6, 260760, Note_on_c, 4, 77, 0
6, 260760, Note_on_c, 4, 76, 73
6, 260760, Note_on_c, 4, 72, 39
6, 260820, Note_on_c, 4, 72, 0
6, 260820, Note_on_c, 4, 76, 0
6, 260880, Note_on_c, 4, 76, 62
6, 260880, Note_on_c, 4, 72, 41
6, 260940, Note_on_c, 4, 72, 0
6, 260940, Note_on_c, 4, 76, 0
6, 261000, Note_on_c, 4, 76, 68
6, 261000, Note_on_c, 4, 72, 43
6, 261060, Note_on_c, 4, 72, 0
6, 261060, Note_on_c, 4, 76, 0
6, 261120, Note_on_c, 4, 76, 68
6, 261120, Note_on_c, 4, 72, 42
6, 261180, Note_on_c, 4, 72, 0
6, 261180, Note_on_c, 4, 76, 0
6, 261180, Note_on_c, 4, 74, 65
6, 261180, Note_on_c, 4, 67, 71
6, 261240, Note_on_c, 4, 67, 0
6, 261240, Note_on_c, 4, 74, 0
6, 261240, Note_on_c, 4, 72, 43
6, 261240, Note_on_c, 4, 64, 65
6, 261300, Note_on_c, 4, 64, 0
6, 261300, Note_on_c, 4, 72, 0
6, 261360, Note_on_c, 4, 72, 29
6, 261360, Note_on_c, 4, 64, 66
6, 261420, Note_on_c, 4, 64, 0
6, 261420, Note_on_c, 4, 72, 0
6, 261480, Note_on_c, 4, 72, 44
6, 261480, Note_on_c, 4, 64, 80
6, 261540, Note_on_c, 4, 64, 0
6, 261540, Note_on_c, 4, 72, 0
6, 261600, Note_on_c, 4, 77, 58
6, 261600, Note_on_c, 4, 74, 74
6, 261840, Note_on_c, 4, 74, 0
6, 261840, Note_on_c, 4, 77, 0
6, 261840, Note_on_c, 4, 67, 62
6, 261840, Note_on_c, 4, 74, 58
6, 262080, Note_on_c, 4, 74, 0
6, 262080, Note_on_c, 4, 67, 0
6, 262080, Note_on_c, 4, 72, 33
6, 262080, Note_on_c, 4, 64, 72
6, 262320, Note_on_c, 4, 64, 0
6, 262320, Note_on_c, 4, 72, 0
6, 281160, Note_on_c, 4, 72, 40
6, 281160, Note_on_c, 4, 64, 56
6, 281280, Note_on_c, 4, 64, 0
6, 281280, Note_on_c, 4, 72, 0
6, 281280, Note_on_c, 4, 74, 53
6, 281280, Note_on_c, 4, 67, 43
6, 281760, Note_on_c, 4, 67, 0
6, 281760, Note_on_c, 4, 74, 0
6, 281760, Note_on_c, 4, 72, 39
6, 281760, Note_on_c, 4, 64, 47
6, 282480, Note_on_c, 4, 64, 0
6, 282480, Note_on_c, 4, 72, 0
6, 282600, Note_on_c, 4, 72, 74
6, 282600, Note_on_c, 4, 64, 101
6, 282720, Note_on_c, 4, 64, 0
6, 282720, Note_on_c, 4, 72, 0
6, 282720, Note_on_c, 4, 74, 98
6, 282720, Note_on_c, 4, 67, 94
6, 283200, Note_on_c, 4, 67, 0
6, 283200, Note_on_c, 4, 74, 0
6, 283200, Note_on_c, 4, 74, 86
6, 283200, Note_on_c, 4, 67, 85
6, 283320, Note_on_c, 4, 67, 0
6, 283320, Note_on_c, 4, 74, 0
6, 283320, Note_on_c, 4, 74, 99
6, 283320, Note_on_c, 4, 67, 99
6, 283440, Note_on_c, 4, 67, 0
6, 283440, Note_on_c, 4, 74, 0
6, 283440, Note_on_c, 4, 74, 94
6, 283440, Note_on_c, 4, 67, 99
6, 283560, Note_on_c, 4, 67, 0
6, 283560, Note_on_c, 4, 74, 0
6, 283560, Note_on_c, 4, 74, 98
6, 283560, Note_on_c, 4, 67, 99
6, 283680, Note_on_c, 4, 67, 0
6, 283680, Note_on_c, 4, 74, 0
6, 283680, Note_on_c, 4, 72, 84
6, 283680, Note_on_c, 4, 64, 101
6, 283800, Note_on_c, 4, 64, 0
6, 283800, Note_on_c, 4, 72, 0
6, 283800, Note_on_c, 4, 74, 101
6, 283800, Note_on_c, 4, 67, 94
6, 283920, Note_on_c, 4, 67, 0
6, 283920, Note_on_c, 4, 74, 0
6, 283920, Note_on_c, 4, 72, 81
6, 283920, Note_on_c, 4, 64, 94
6, 284040, Note_on_c, 4, 64, 0
6, 284040, Note_on_c, 4, 72, 0
6, 284040, Note_on_c, 4, 74, 89
6, 284040, Note_on_c, 4, 67, 94
6, 284160, Note_on_c, 4, 67, 0
6, 284160, Note_on_c, 4, 74, 0
6, 284160, Note_on_c, 4, 72, 81
6, 284160, Note_on_c, 4, 64, 98
6, 284280, Note_on_c, 4, 64, 0
6, 284280, Note_on_c, 4, 72, 0
6, 284280, Note_on_c, 4, 74, 94
6, 284280, Note_on_c, 4, 67, 94
6, 284400, Note_on_c, 4, 67, 0
6, 284400, Note_on_c, 4, 74, 0
6, 284400, Note_on_c, 4, 72, 77
6, 284400, Note_on_c, 4, 64, 94
6, 284520, Note_on_c, 4, 64, 0
6, 284520, Note_on_c, 4, 72, 0
6, 284520, Note_on_c, 4, 74, 93
6, 284520, Note_on_c, 4, 67, 93
6, 284640, Note_on_c, 4, 67, 0
6, 284640, Note_on_c, 4, 74, 0
6, 284640, Note_on_c, 4, 72, 86
6, 284640, Note_on_c, 4, 64, 104
6, 284880, Note_on_c, 4, 64, 0
6, 284880, Note_on_c, 4, 72, 0
6, 284880, Note_on_c, 4, 72, 68
6, 284880, Note_on_c, 4, 60, 89
6, 285120, Note_on_c, 4, 60, 0
6, 285120, Note_on_c, 4, 72, 0
6, 285120, Note_on_c, 4, 72, 76
6, 285120, Note_on_c, 4, 60, 93
6, 285360, Note_on_c, 4, 60, 0
6, 285360, Note_on_c, 4, 72, 0
6, 285360, End_track
7, 0, Start_track
7, 0, MIDI_port, 0
7, 0, Title_t, "Trumpets"
7, 0, Program_c, 5, 56
7, 0, Control_c, 5, 7, 100
7, 0, Control_c, 5, 10, 84
7, 0, Control_c, 5, 93, 0
7, 0, Control_c, 5, 91, 66
7, 10080, Note_on_c, 5, 72, 71
7, 10080, Note_on_c, 5, 64, 95
7, 10440, Note_on_c, 5, 64, 0
7, 10440, Note_on_c, 5, 72, 0
7, 10440, Note_on_c, 5, 72, 68
7, 10440, Note_on_c, 5, 64, 95
7, 10500, Note_on_c, 5, 64, 0
7, 10500, Note_on_c, 5, 72, 0
7, 10560, Note_on_c, 5, 72, 63
7, 10560, Note_on_c, 5, 64, 99
7, 10920, Note_on_c, 5, 64, 0
7, 10920, Note_on_c, 5, 72, 0
7, 10920, Note_on_c, 5, 72, 71
7, 10920, Note_on_c, 5, 64, 93
7, 10980, Note_on_c, 5, 64, 0
7, 10980, Note_on_c, 5, 72, 0
7, 11040, Note_on_c, 5, 72, 68
7, 11040, Note_on_c, 5, 64, 95
7, 11160, Note_on_c, 5, 64, 0
7, 11160, Note_on_c, 5, 72, 0
7, 11160, Note_on_c, 5, 72, 70
7, 11160, Note_on_c, 5, 64, 99
7, 11280, Note_on_c, 5, 64, 0
7, 11280, Note_on_c, 5, 72, 0
7, 11280, Note_on_c, 5, 72, 76
7, 11280, Note_on_c, 5, 64, 99
7, 11400, Note_on_c, 5, 64, 0
7, 11400, Note_on_c, 5, 72, 0
7, 11400, Note_on_c, 5, 72, 78
7, 11400, Note_on_c, 5, 64, 101
7, 11520, Note_on_c, 5, 64, 0
7, 11520, Note_on_c, 5, 72, 0
7, 11520, Note_on_c, 5, 74, 94
7, 11520, Note_on_c, 5, 67, 95
7, 11640, Note_on_c, 5, 67, 0
7, 11640, Note_on_c, 5, 74, 0
7, 11880, Note_on_c, 5, 74, 104
7, 12000, Note_on_c, 5, 74, 0
7, 12000, Note_on_c, 5, 74, 104
7, 12000, Note_on_c, 5, 67, 89
7, 12240, Note_on_c, 5, 67, 0
7, 12240, Note_on_c, 5, 74, 0
7, 12360, Note_on_c, 5, 74, 105
7, 12480, Note_on_c, 5, 74, 0
7, 12480, Note_on_c, 5, 74, 93
7, 12480, Note_on_c, 5, 67, 94
7, 12720, Note_on_c, 5, 67, 0
7, 12720, Note_on_c, 5, 74, 0
7, 12960, Note_on_c, 5, 67, 89
7, 12960, Note_on_c, 5, 55, 93
7, 13200, Note_on_c, 5, 55, 0
7, 13200, Note_on_c, 5, 67, 0
7, 13200, Note_on_c, 5, 67, 85
7, 13200, Note_on_c, 5, 55, 94
7, 13440, Note_on_c, 5, 55, 0
7, 13440, Note_on_c, 5, 67, 0
7, 13440, Note_on_c, 5, 67, 107
7, 13440, Note_on_c, 5, 55, 112
7, 13800, Note_on_c, 5, 55, 0
7, 13800, Note_on_c, 5, 67, 0
7, 13800, Note_on_c, 5, 67, 85
7, 13800, Note_on_c, 5, 55, 89
7, 13920, Note_on_c, 5, 55, 0
7, 13920, Note_on_c, 5, 67, 0
7, 13920, Note_on_c, 5, 67, 84
7, 13920, Note_on_c, 5, 55, 89
7, 14160, Note_on_c, 5, 55, 0
7, 14160, Note_on_c, 5, 67, 0
7, 14160, Note_on_c, 5, 67, 89
7, 14160, Note_on_c, 5, 55, 90
7, 14400, Note_on_c, 5, 55, 0
7, 14400, Note_on_c, 5, 67, 0
7, 14400, Note_on_c, 5, 67, 110
7, 14400, Note_on_c, 5, 55, 112
7, 14760, Note_on_c, 5, 55, 0
7, 14760, Note_on_c, 5, 67, 0
7, 15120, Note_on_c, 5, 74, 107
7, 15120, Note_on_c, 5, 67, 112
7, 15360, Note_on_c, 5, 67, 0
7, 15360, Note_on_c, 5, 74, 0
7, 15600, Note_on_c, 5, 74, 112
7, 15600, Note_on_c, 5, 67, 112
7, 15840, Note_on_c, 5, 67, 0
7, 15840, Note_on_c, 5, 74, 0
7, 15960, Note_on_c, 5, 74, 110
7, 16020, Note_on_c, 5, 74, 0
7, 16080, Note_on_c, 5, 72, 89
7, 16140, Note_on_c, 5, 72, 0
7, 16200, Note_on_c, 5, 72, 76
7, 16200, Note_on_c, 5, 60, 94
7, 16260, Note_on_c, 5, 60, 0
7, 16260, Note_on_c, 5, 72, 0
7, 16320, Note_on_c, 5, 72, 85
7, 16320, Note_on_c, 5, 64, 105
7, 16380, Note_on_c, 5, 64, 0
7, 16380, Note_on_c, 5, 72, 0
7, 16440, Note_on_c, 5, 72, 74
7, 16440, Note_on_c, 5, 64, 99
7, 16500, Note_on_c, 5, 64, 0
7, 16500, Note_on_c, 5, 72, 0
7, 16560, Note_on_c, 5, 74, 99
7, 16560, Note_on_c, 5, 67, 99
7, 16620, Note_on_c, 5, 67, 0
7, 16620, Note_on_c, 5, 74, 0
7, 16680, Note_on_c, 5, 74, 93
7, 16680, Note_on_c, 5, 67, 94
7, 16740, Note_on_c, 5, 67, 0
7, 16740, Note_on_c, 5, 74, 0
7, 16800, Note_on_c, 5, 72, 72
7, 16800, Note_on_c, 5, 64, 98
7, 17040, Note_on_c, 5, 64, 0
7, 17040, Note_on_c, 5, 72, 0
7, 17280, Note_on_c, 5, 74, 94
7, 17280, Note_on_c, 5, 67, 98
7, 17520, Note_on_c, 5, 67, 0
7, 17520, Note_on_c, 5, 74, 0
7, 17760, Note_on_c, 5, 76, 112
7, 17760, Note_on_c, 5, 72, 105
7, 18240, Note_on_c, 5, 72, 0
7, 18240, Note_on_c, 5, 76, 0
7, 18240, Note_on_c, 5, 74, 112
7, 18240, Note_on_c, 5, 67, 107
7, 18300, Note_on_c, 5, 67, 0
7, 18300, Note_on_c, 5, 74, 0
7, 18360, Note_on_c, 5, 67, 107
7, 18360, Note_on_c, 5, 55, 112
7, 18420, Note_on_c, 5, 55, 0
7, 18420, Note_on_c, 5, 67, 0
7, 18480, Note_on_c, 5, 67, 107
7, 18480, Note_on_c, 5, 55, 110
7, 18540, Note_on_c, 5, 55, 0
7, 18540, Note_on_c, 5, 67, 0
7, 18600, Note_on_c, 5, 74, 112
7, 18600, Note_on_c, 5, 67, 112
7, 18660, Note_on_c, 5, 67, 0
7, 18660, Note_on_c, 5, 74, 0
7, 18720, Note_on_c, 5, 72, 101
7, 18720, Note_on_c, 5, 64, 112
7, 18780, Note_on_c, 5, 64, 0
7, 18780, Note_on_c, 5, 72, 0
7, 18840, Note_on_c, 5, 74, 112
7, 18840, Note_on_c, 5, 65, 115
7, 18900, Note_on_c, 5, 65, 0
7, 18900, Note_on_c, 5, 74, 0
7, 18960, Note_on_c, 5, 72, 99
7, 18960, Note_on_c, 5, 64, 110
7, 19020, Note_on_c, 5, 64, 0
7, 19020, Note_on_c, 5, 72, 0
7, 19080, Note_on_c, 5, 74, 115
7, 19080, Note_on_c, 5, 65, 117
7, 19140, Note_on_c, 5, 65, 0
7, 19140, Note_on_c, 5, 74, 0
7, 19200, Note_on_c, 5, 72, 105
7, 19200, Note_on_c, 5, 64, 117
7, 19440, Note_on_c, 5, 64, 0
7, 19440, Note_on_c, 5, 72, 0
7, 82560, Note_on_c, 5, 72, 71
7, 82560, Note_on_c, 5, 64, 95
7, 82920, Note_on_c, 5, 64, 0
7, 82920, Note_on_c, 5, 72, 0
7, 82920, Note_on_c, 5, 72, 68
7, 82920, Note_on_c, 5, 64, 95
7, 82980, Note_on_c, 5, 64, 0
7, 82980, Note_on_c, 5, 72, 0
7, 83040, Note_on_c, 5, 72, 63
7, 83040, Note_on_c, 5, 64, 99
7, 83400, Note_on_c, 5, 64, 0
7, 83400, Note_on_c, 5, 72, 0
7, 83400, Note_on_c, 5, 72, 71
7, 83400, Note_on_c, 5, 64, 93
7, 83460, Note_on_c, 5, 64, 0
7, 83460, Note_on_c, 5, 72, 0
7, 83520, Note_on_c, 5, 72, 68
7, 83520, Note_on_c, 5, 64, 95
7, 83640, Note_on_c, 5, 64, 0
7, 83640, Note_on_c, 5, 72, 0
7, 83640, Note_on_c, 5, 72, 70
7, 83640, Note_on_c, 5, 64, 99
7, 83760, Note_on_c, 5, 64, 0
7, 83760, Note_on_c, 5, 72, 0
7, 83760, Note_on_c, 5, 72, 76
7, 83760, Note_on_c, 5, 64, 99
7, 83880, Note_on_c, 5, 64, 0
7, 83880, Note_on_c, 5, 72, 0
7, 83880, Note_on_c, 5, 72, 78
7, 83880, Note_on_c, 5, 64, 101
7, 84000, Note_on_c, 5, 64, 0
7, 84000, Note_on_c, 5, 72, 0
7, 84000, Note_on_c, 5, 74, 94
7, 84000, Note_on_c, 5, 67, 95
7, 84120, Note_on_c, 5, 67, 0
7, 84120, Note_on_c, 5, 74, 0
7, 84360, Note_on_c, 5, 74, 104
7, 84480, Note_on_c, 5, 74, 0
7, 84480, Note_on_c, 5, 74, 104
7, 84480, Note_on_c, 5, 67, 89
7, 84720, Note_on_c, 5, 67, 0
7, 84720, Note_on_c, 5, 74, 0
7, 84840, Note_on_c, 5, 74, 105
7, 84960, Note_on_c, 5, 74, 0
7, 84960, Note_on_c, 5, 74, 93
7, 84960, Note_on_c, 5, 67, 94
7, 85200, Note_on_c, 5, 67, 0
7, 85200, Note_on_c, 5, 74, 0
7, 85440, Note_on_c, 5, 67, 89
7, 85440, Note_on_c, 5, 55, 93
7, 85680, Note_on_c, 5, 55, 0
7, 85680, Note_on_c, 5, 67, 0
7, 85680, Note_on_c, 5, 67, 85
7, 85680, Note_on_c, 5, 55, 94
7, 85920, Note_on_c, 5, 55, 0
7, 85920, Note_on_c, 5, 67, 0
7, 85920, Note_on_c, 5, 67, 107
7, 85920, Note_on_c, 5, 55, 112
7, 86280, Note_on_c, 5, 55, 0
7, 86280, Note_on_c, 5, 67, 0
7, 86280, Note_on_c, 5, 67, 85
7, 86280, Note_on_c, 5, 55, 89
7, 86400, Note_on_c, 5, 55, 0
7, 86400, Note_on_c, 5, 67, 0
7, 86400, Note_on_c, 5, 67, 84
7, 86400, Note_on_c, 5, 55, 89
7, 86640, Note_on_c, 5, 55, 0
7, 86640, Note_on_c, 5, 67, 0
7, 86640, Note_on_c, 5, 67, 89
7, 86640, Note_on_c, 5, 55, 90
7, 86880, Note_on_c, 5, 55, 0
7, 86880, Note_on_c, 5, 67, 0
7, 86880, Note_on_c, 5, 67, 110
7, 86880, Note_on_c, 5, 55, 112
7, 87240, Note_on_c, 5, 55, 0
7, 87240, Note_on_c, 5, 67, 0
7, 87600, Note_on_c, 5, 74, 107
7, 87600, Note_on_c, 5, 67, 112
7, 87840, Note_on_c, 5, 67, 0
7, 87840, Note_on_c, 5, 74, 0
7, 88080, Note_on_c, 5, 74, 112
7, 88080, Note_on_c, 5, 67, 112
7, 88320, Note_on_c, 5, 67, 0
7, 88320, Note_on_c, 5, 74, 0
7, 88440, Note_on_c, 5, 74, 110
7, 88500, Note_on_c, 5, 74, 0
7, 88560, Note_on_c, 5, 72, 89
7, 88620, Note_on_c, 5, 72, 0
7, 88680, Note_on_c, 5, 72, 76
7, 88680, Note_on_c, 5, 60, 94
7, 88740, Note_on_c, 5, 60, 0
7, 88740, Note_on_c, 5, 72, 0
7, 88800, Note_on_c, 5, 72, 85
7, 88800, Note_on_c, 5, 64, 105
7, 88860, Note_on_c, 5, 64, 0
7, 88860, Note_on_c, 5, 72, 0
7, 88920, Note_on_c, 5, 72, 74
7, 88920, Note_on_c, 5, 64, 99
7, 88980, Note_on_c, 5, 64, 0
7, 88980, Note_on_c, 5, 72, 0
7, 89040, Note_on_c, 5, 74, 99
7, 89040, Note_on_c, 5, 67, 99
7, 89100, Note_on_c, 5, 67, 0
7, 89100, Note_on_c, 5, 74, 0
7, 89160, Note_on_c, 5, 74, 93
7, 89160, Note_on_c, 5, 67, 94
7, 89220, Note_on_c, 5, 67, 0
7, 89220, Note_on_c, 5, 74, 0
7, 89280, Note_on_c, 5, 72, 72
7, 89280, Note_on_c, 5, 64, 98
7, 89520, Note_on_c, 5, 64, 0
7, 89520, Note_on_c, 5, 72, 0
7, 89760, Note_on_c, 5, 74, 94
7, 89760, Note_on_c, 5, 67, 98
7, 90000, Note_on_c, 5, 67, 0
7, 90000, Note_on_c, 5, 74, 0
7, 90240, Note_on_c, 5, 76, 112
7, 90240, Note_on_c, 5, 72, 105
7, 90720, Note_on_c, 5, 72, 0
7, 90720, Note_on_c, 5, 76, 0
7, 90720, Note_on_c, 5, 74, 112
7, 90720, Note_on_c, 5, 67, 107
7, 90780, Note_on_c, 5, 67, 0
7, 90780, Note_on_c, 5, 74, 0
7, 90840, Note_on_c, 5, 67, 107
7, 90840, Note_on_c, 5, 55, 112
7, 90900, Note_on_c, 5, 55, 0
7, 90900, Note_on_c, 5, 67, 0
7, 90960, Note_on_c, 5, 67, 107
7, 90960, Note_on_c, 5, 55, 110
7, 91020, Note_on_c, 5, 55, 0
7, 91020, Note_on_c, 5, 67, 0
7, 91080, Note_on_c, 5, 74, 112
7, 91080, Note_on_c, 5, 67, 112
7, 91140, Note_on_c, 5, 67, 0
7, 91140, Note_on_c, 5, 74, 0
7, 91200, Note_on_c, 5, 72, 101
7, 91200, Note_on_c, 5, 64, 112
7, 91260, Note_on_c, 5, 64, 0
7, 91260, Note_on_c, 5, 72, 0
7, 91320, Note_on_c, 5, 74, 112
7, 91320, Note_on_c, 5, 65, 115
7, 91380, Note_on_c, 5, 65, 0
7, 91380, Note_on_c, 5, 74, 0
7, 91440, Note_on_c, 5, 72, 99
7, 91440, Note_on_c, 5, 64, 110
7, 91500, Note_on_c, 5, 64, 0
7, 91500, Note_on_c, 5, 72, 0
7, 91560, Note_on_c, 5, 74, 115
7, 91560, Note_on_c, 5, 65, 117
7, 91620, Note_on_c, 5, 65, 0
7, 91620, Note_on_c, 5, 74, 0
7, 91680, Note_on_c, 5, 72, 105
7, 91680, Note_on_c, 5, 64, 117
7, 91920, Note_on_c, 5, 64, 0
7, 91920, Note_on_c, 5, 72, 0
7, 158880, Note_on_c, 5, 72, 71
7, 158880, Note_on_c, 5, 64, 95
7, 159240, Note_on_c, 5, 64, 0
7, 159240, Note_on_c, 5, 72, 0
7, 159240, Note_on_c, 5, 72, 68
7, 159240, Note_on_c, 5, 64, 95
7, 159300, Note_on_c, 5, 64, 0
7, 159300, Note_on_c, 5, 72, 0
7, 159360, Note_on_c, 5, 72, 63
7, 159360, Note_on_c, 5, 64, 99
7, 159720, Note_on_c, 5, 64, 0
7, 159720, Note_on_c, 5, 72, 0
7, 159720, Note_on_c, 5, 72, 71
7, 159720, Note_on_c, 5, 64, 93
7, 159780, Note_on_c, 5, 64, 0
7, 159780, Note_on_c, 5, 72, 0
7, 159840, Note_on_c, 5, 72, 68
7, 159840, Note_on_c, 5, 64, 95
7, 159960, Note_on_c, 5, 64, 0
7, 159960, Note_on_c, 5, 72, 0
7, 159960, Note_on_c, 5, 72, 70
7, 159960, Note_on_c, 5, 64, 99
7, 160080, Note_on_c, 5, 64, 0
7, 160080, Note_on_c, 5, 72, 0
7, 160080, Note_on_c, 5, 72, 76
7, 160080, Note_on_c, 5, 64, 99
7, 160200, Note_on_c, 5, 64, 0
7, 160200, Note_on_c, 5, 72, 0
7, 160200, Note_on_c, 5, 72, 78
7, 160200, Note_on_c, 5, 64, 101
7, 160320, Note_on_c, 5, 64, 0
7, 160320, Note_on_c, 5, 72, 0
7, 160320, Note_on_c, 5, 74, 94
7, 160320, Note_on_c, 5, 67, 95
7, 160440, Note_on_c, 5, 67, 0
7, 160440, Note_on_c, 5, 74, 0
7, 160680, Note_on_c, 5, 74, 104
7, 160800, Note_on_c, 5, 74, 0
7, 160800, Note_on_c, 5, 74, 104
7, 160800, Note_on_c, 5, 67, 89
7, 161040, Note_on_c, 5, 67, 0
7, 161040, Note_on_c, 5, 74, 0
7, 161160, Note_on_c, 5, 74, 105
7, 161280, Note_on_c, 5, 74, 0
7, 161280, Note_on_c, 5, 74, 93
7, 161280, Note_on_c, 5, 67, 94
7, 161520, Note_on_c, 5, 67, 0
7, 161520, Note_on_c, 5, 74, 0
7, 161760, Note_on_c, 5, 67, 89
7, 161760, Note_on_c, 5, 55, 93
7, 162000, Note_on_c, 5, 55, 0
7, 162000, Note_on_c, 5, 67, 0
7, 162000, Note_on_c, 5, 67, 85
7, 162000, Note_on_c, 5, 55, 94
7, 162240, Note_on_c, 5, 55, 0
7, 162240, Note_on_c, 5, 67, 0
7, 162240, Note_on_c, 5, 67, 107
7, 162240, Note_on_c, 5, 55, 112
7, 162600, Note_on_c, 5, 55, 0
7, 162600, Note_on_c, 5, 67, 0
7, 162600, Note_on_c, 5, 67, 85
7, 162600, Note_on_c, 5, 55, 89
7, 162720, Note_on_c, 5, 55, 0
7, 162720, Note_on_c, 5, 67, 0
7, 162720, Note_on_c, 5, 67, 84
7, 162720, Note_on_c, 5, 55, 89
7, 162960, Note_on_c, 5, 55, 0
7, 162960, Note_on_c, 5, 67, 0
7, 162960, Note_on_c, 5, 67, 89
7, 162960, Note_on_c, 5, 55, 90
7, 163200, Note_on_c, 5, 55, 0
7, 163200, Note_on_c, 5, 67, 0
7, 163200, Note_on_c, 5, 67, 110
7, 163200, Note_on_c, 5, 55, 112
7, 163560, Note_on_c, 5, 55, 0
7, 163560, Note_on_c, 5, 67, 0
7, 163920, Note_on_c, 5, 74, 107
7, 163920, Note_on_c, 5, 67, 112
7, 164160, Note_on_c, 5, 67, 0
7, 164160, Note_on_c, 5, 74, 0
7, 164400, Note_on_c, 5, 74, 112
7, 164400, Note_on_c, 5, 67, 112
7, 164640, Note_on_c, 5, 67, 0
7, 164640, Note_on_c, 5, 74, 0
7, 164760, Note_on_c, 5, 74, 110
7, 164820, Note_on_c, 5, 74, 0
7, 164880, Note_on_c, 5, 72, 89
7, 164940, Note_on_c, 5, 72, 0
7, 165000, Note_on_c, 5, 72, 76
7, 165000, Note_on_c, 5, 60, 94
7, 165060, Note_on_c, 5, 60, 0
7, 165060, Note_on_c, 5, 72, 0
7, 165120, Note_on_c, 5, 72, 85
7, 165120, Note_on_c, 5, 64, 105
7, 165180, Note_on_c, 5, 64, 0
7, 165180, Note_on_c, 5, 72, 0
7, 165240, Note_on_c, 5, 72, 74
7, 165240, Note_on_c, 5, 64, 99
7, 165300, Note_on_c, 5, 64, 0
7, 165300, Note_on_c, 5, 72, 0
7, 165360, Note_on_c, 5, 74, 99
7, 165360, Note_on_c, 5, 67, 99
7, 165420, Note_on_c, 5, 67, 0
7, 165420, Note_on_c, 5, 74, 0
7, 165480, Note_on_c, 5, 74, 93
7, 165480, Note_on_c, 5, 67, 94
7, 165540, Note_on_c, 5, 67, 0
7, 165540, Note_on_c, 5, 74, 0
7, 165600, Note_on_c, 5, 72, 72
7, 165600, Note_on_c, 5, 64, 98
7, 165840, Note_on_c, 5, 64, 0
7, 165840, Note_on_c, 5, 72, 0
7, 166080, Note_on_c, 5, 74, 94
7, 166080, Note_on_c, 5, 67, 98
7, 166320, Note_on_c, 5, 67, 0
7, 166320, Note_on_c, 5, 74, 0
7, 166560, Note_on_c, 5, 76, 112
7, 166560, Note_on_c, 5, 72, 105
7, 167040, Note_on_c, 5, 72, 0
7, 167040, Note_on_c, 5, 76, 0
7, 167040, Note_on_c, 5, 74, 112
7, 167040, Note_on_c, 5, 67, 107
7, 167100, Note_on_c, 5, 67, 0
7, 167100, Note_on_c, 5, 74, 0
7, 167160, Note_on_c, 5, 67, 107
7, 167160, Note_on_c, 5, 55, 112
7, 167220, Note_on_c, 5, 55, 0
7, 167220, Note_on_c, 5, 67, 0
7, 167280, Note_on_c, 5, 67, 107
7, 167280, Note_on_c, 5, 55, 110
7, 167340, Note_on_c, 5, 55, 0
7, 167340, Note_on_c, 5, 67, 0
7, 167400, Note_on_c, 5, 74, 112
7, 167400, Note_on_c, 5, 67, 112
7, 167460, Note_on_c, 5, 67, 0
7, 167460, Note_on_c, 5, 74, 0
7, 167520, Note_on_c, 5, 72, 101
7, 167520, Note_on_c, 5, 64, 112
7, 167580, Note_on_c, 5, 64, 0
7, 167580, Note_on_c, 5, 72, 0
7, 167640, Note_on_c, 5, 74, 112
7, 167640, Note_on_c, 5, 65, 115
7, 167700, Note_on_c, 5, 65, 0
7, 167700, Note_on_c, 5, 74, 0
7, 167760, Note_on_c, 5, 72, 99
7, 167760, Note_on_c, 5, 64, 110
7, 167820, Note_on_c, 5, 64, 0
7, 167820, Note_on_c, 5, 72, 0
7, 167880, Note_on_c, 5, 74, 115
7, 167880, Note_on_c, 5, 65, 117
7, 167940, Note_on_c, 5, 65, 0
7, 167940, Note_on_c, 5, 74, 0
7, 168000, Note_on_c, 5, 72, 105
7, 168000, Note_on_c, 5, 64, 117
7, 168240, Note_on_c, 5, 64, 0
7, 168240, Note_on_c, 5, 72, 0
7, 211200, Note_on_c, 5, 72, 40
7, 211200, Note_on_c, 5, 64, 70
7, 211680, Note_on_c, 5, 64, 0
7, 211680, Note_on_c, 5, 72, 0
7, 211680, Note_on_c, 5, 74, 71
7, 211680, Note_on_c, 5, 67, 58
7, 212160, Note_on_c, 5, 67, 0
7, 212160, Note_on_c, 5, 74, 0
7, 212160, Note_on_c, 5, 72, 71
7, 212160, Note_on_c, 5, 60, 59
7, 212640, Note_on_c, 5, 60, 0
7, 212640, Note_on_c, 5, 72, 0
7, 212640, Note_on_c, 5, 72, 70
7, 212640, Note_on_c, 5, 60, 64
7, 213120, Note_on_c, 5, 60, 0
7, 213120, Note_on_c, 5, 72, 0
7, 213120, Note_on_c, 5, 72, 54
7, 213120, Note_on_c, 5, 60, 55
7, 213600, Note_on_c, 5, 60, 0
7, 213600, Note_on_c, 5, 72, 0
7, 213600, Note_on_c, 5, 72, 65
7, 213600, Note_on_c, 5, 60, 61
7, 214080, Note_on_c, 5, 60, 0
7, 214080, Note_on_c, 5, 72, 0
7, 214080, Note_on_c, 5, 67, 61
7, 214080, Note_on_c, 5, 55, 77
7, 214560, Note_on_c, 5, 55, 0
7, 214560, Note_on_c, 5, 67, 0
7, 214560, Note_on_c, 5, 67, 68
7, 214560, Note_on_c, 5, 55, 68
7, 215040, Note_on_c, 5, 55, 0
7, 215040, Note_on_c, 5, 67, 0
7, 215040, Note_on_c, 5, 72, 84
7, 215040, Note_on_c, 5, 60, 93
7, 215520, Note_on_c, 5, 60, 0
7, 215520, Note_on_c, 5, 72, 0
7, 215520, Note_on_c, 5, 72, 85
7, 215520, Note_on_c, 5, 60, 94
7, 216000, Note_on_c, 5, 60, 0
7, 216000, Note_on_c, 5, 72, 0
7, 216000, Note_on_c, 5, 72, 74
7, 216000, Note_on_c, 5, 60, 95
7, 216720, Note_on_c, 5, 60, 0
7, 216720, Note_on_c, 5, 72, 0
7, 216720, Note_on_c, 5, 72, 73
7, 216720, Note_on_c, 5, 60, 94
7, 216960, Note_on_c, 5, 60, 0
7, 216960, Note_on_c, 5, 72, 0
7, 216960, Note_on_c, 5, 72, 45
7, 216960, Note_on_c, 5, 60, 73
7, 217680, Note_on_c, 5, 60, 0
7, 217680, Note_on_c, 5, 72, 0
7, 217680, Note_on_c, 5, 72, 70
7, 217680, Note_on_c, 5, 60, 94
7, 217920, Note_on_c, 5, 60, 0
7, 217920, Note_on_c, 5, 72, 0
7, 217920, Note_on_c, 5, 72, 53
7, 217920, Note_on_c, 5, 60, 84
7, 218040, Note_on_c, 5, 60, 0
7, 218040, Note_on_c, 5, 72, 0
7, 218040, Note_on_c, 5, 72, 53
7, 218040, Note_on_c, 5, 60, 84
7, 218160, Note_on_c, 5, 60, 0
7, 218160, Note_on_c, 5, 72, 0
7, 218160, Note_on_c, 5, 72, 90
7, 218160, Note_on_c, 5, 60, 99
7, 218280, Note_on_c, 5, 60, 0
7, 218280, Note_on_c, 5, 72, 0
7, 218280, Note_on_c, 5, 72, 46
7, 218280, Note_on_c, 5, 60, 82
7, 218400, Note_on_c, 5, 60, 0
7, 218400, Note_on_c, 5, 72, 0
7, 218400, Note_on_c, 5, 72, 65
7, 218400, Note_on_c, 5, 60, 82
7, 218520, Note_on_c, 5, 60, 0
7, 218520, Note_on_c, 5, 72, 0
7, 218520, Note_on_c, 5, 72, 72
7, 218520, Note_on_c, 5, 60, 90
7, 218640, Note_on_c, 5, 60, 0
7, 218640, Note_on_c, 5, 72, 0
7, 218640, Note_on_c, 5, 72, 94
7, 218640, Note_on_c, 5, 60, 101
7, 218760, Note_on_c, 5, 60, 0
7, 218760, Note_on_c, 5, 72, 0
7, 218760, Note_on_c, 5, 72, 72
7, 218760, Note_on_c, 5, 60, 90
7, 218880, Note_on_c, 5, 60, 0
7, 218880, Note_on_c, 5, 72, 0
7, 218880, Note_on_c, 5, 72, 89
7, 218880, Note_on_c, 5, 60, 99
7, 220320, Note_on_c, 5, 60, 0
7, 220320, Note_on_c, 5, 72, 0
7, 241440, Note_on_c, 5, 72, 71
7, 241440, Note_on_c, 5, 64, 95
7, 241800, Note_on_c, 5, 64, 0
7, 241800, Note_on_c, 5, 72, 0
7, 241800, Note_on_c, 5, 72, 68
7, 241800, Note_on_c, 5, 64, 95
7, 241860, Note_on_c, 5, 64, 0
7, 241860, Note_on_c, 5, 72, 0
7, 241920, Note_on_c, 5, 72, 63
7, 241920, Note_on_c, 5, 64, 99
7, 242280, Note_on_c, 5, 64, 0
7, 242280, Note_on_c, 5, 72, 0
7, 242280, Note_on_c, 5, 72, 71
7, 242280, Note_on_c, 5, 64, 93
7, 242340, Note_on_c, 5, 64, 0
7, 242340, Note_on_c, 5, 72, 0
7, 242400, Note_on_c, 5, 72, 68
7, 242400, Note_on_c, 5, 64, 95
7, 242520, Note_on_c, 5, 64, 0
7, 242520, Note_on_c, 5, 72, 0
7, 242520, Note_on_c, 5, 72, 70
7, 242520, Note_on_c, 5, 64, 99
7, 242640, Note_on_c, 5, 64, 0
7, 242640, Note_on_c, 5, 72, 0
7, 242640, Note_on_c, 5, 72, 76
7, 242640, Note_on_c, 5, 64, 99
7, 242760, Note_on_c, 5, 64, 0
7, 242760, Note_on_c, 5, 72, 0
7, 242760, Note_on_c, 5, 72, 78
7, 242760, Note_on_c, 5, 64, 101
7, 242880, Note_on_c, 5, 64, 0
7, 242880, Note_on_c, 5, 72, 0
7, 242880, Note_on_c, 5, 74, 94
7, 242880, Note_on_c, 5, 67, 95
7, 243000, Note_on_c, 5, 67, 0
7, 243000, Note_on_c, 5, 74, 0
7, 243240, Note_on_c, 5, 74, 104
7, 243360, Note_on_c, 5, 74, 0
7, 243360, Note_on_c, 5, 74, 104
7, 243360, Note_on_c, 5, 67, 89
7, 243600, Note_on_c, 5, 67, 0
7, 243600, Note_on_c, 5, 74, 0
7, 243720, Note_on_c, 5, 74, 105
7, 243840, Note_on_c, 5, 74, 0
7, 243840, Note_on_c, 5, 74, 93
7, 243840, Note_on_c, 5, 67, 94
7, 244080, Note_on_c, 5, 67, 0
7, 244080, Note_on_c, 5, 74, 0
7, 244320, Note_on_c, 5, 67, 89
7, 244320, Note_on_c, 5, 55, 93
7, 244560, Note_on_c, 5, 55, 0
7, 244560, Note_on_c, 5, 67, 0
7, 244560, Note_on_c, 5, 67, 85
7, 244560, Note_on_c, 5, 55, 94
7, 244800, Note_on_c, 5, 55, 0
7, 244800, Note_on_c, 5, 67, 0
7, 244800, Note_on_c, 5, 67, 107
7, 244800, Note_on_c, 5, 55, 112
7, 245160, Note_on_c, 5, 55, 0
7, 245160, Note_on_c, 5, 67, 0
7, 245160, Note_on_c, 5, 67, 85
7, 245160, Note_on_c, 5, 55, 89
7, 245280, Note_on_c, 5, 55, 0
7, 245280, Note_on_c, 5, 67, 0
7, 245280, Note_on_c, 5, 67, 84
7, 245280, Note_on_c, 5, 55, 89
7, 245520, Note_on_c, 5, 55, 0
7, 245520, Note_on_c, 5, 67, 0
7, 245520, Note_on_c, 5, 67, 89
7, 245520, Note_on_c, 5, 55, 90
7, 245760, Note_on_c, 5, 55, 0
7, 245760, Note_on_c, 5, 67, 0
7, 245760, Note_on_c, 5, 67, 110
7, 245760, Note_on_c, 5, 55, 112
7, 246120, Note_on_c, 5, 55, 0
7, 246120, Note_on_c, 5, 67, 0
7, 246480, Note_on_c, 5, 74, 107
7, 246480, Note_on_c, 5, 67, 112
7, 246720, Note_on_c, 5, 67, 0
7, 246720, Note_on_c, 5, 74, 0
7, 246960, Note_on_c, 5, 74, 112
7, 246960, Note_on_c, 5, 67, 112
7, 247200, Note_on_c, 5, 67, 0
7, 247200, Note_on_c, 5, 74, 0
7, 247320, Note_on_c, 5, 74, 110
7, 247380, Note_on_c, 5, 74, 0
7, 247440, Note_on_c, 5, 72, 89
7, 247500, Note_on_c, 5, 72, 0
7, 247560, Note_on_c, 5, 72, 76
7, 247560, Note_on_c, 5, 60, 94
7, 247620, Note_on_c, 5, 60, 0
7, 247620, Note_on_c, 5, 72, 0
7, 247680, Note_on_c, 5, 72, 85
7, 247680, Note_on_c, 5, 64, 105
7, 247740, Note_on_c, 5, 64, 0
7, 247740, Note_on_c, 5, 72, 0
7, 247800, Note_on_c, 5, 72, 74
7, 247800, Note_on_c, 5, 64, 99
7, 247860, Note_on_c, 5, 64, 0
7, 247860, Note_on_c, 5, 72, 0
7, 247920, Note_on_c, 5, 74, 99
7, 247920, Note_on_c, 5, 67, 99
7, 247980, Note_on_c, 5, 67, 0
7, 247980, Note_on_c, 5, 74, 0
7, 248040, Note_on_c, 5, 74, 93
7, 248040, Note_on_c, 5, 67, 94
7, 248100, Note_on_c, 5, 67, 0
7, 248100, Note_on_c, 5, 74, 0
7, 248160, Note_on_c, 5, 72, 72
7, 248160, Note_on_c, 5, 64, 98
7, 248400, Note_on_c, 5, 64, 0
7, 248400, Note_on_c, 5, 72, 0
7, 248640, Note_on_c, 5, 74, 94
7, 248640, Note_on_c, 5, 67, 98
7, 248880, Note_on_c, 5, 67, 0
7, 248880, Note_on_c, 5, 74, 0
7, 249120, Note_on_c, 5, 76, 112
7, 249120, Note_on_c, 5, 72, 105
7, 249600, Note_on_c, 5, 72, 0
7, 249600, Note_on_c, 5, 76, 0
7, 249600, Note_on_c, 5, 74, 112
7, 249600, Note_on_c, 5, 67, 107
7, 249660, Note_on_c, 5, 67, 0
7, 249660, Note_on_c, 5, 74, 0
7, 249720, Note_on_c, 5, 67, 107
7, 249720, Note_on_c, 5, 55, 112
7, 249780, Note_on_c, 5, 55, 0
7, 249780, Note_on_c, 5, 67, 0
7, 249840, Note_on_c, 5, 67, 107
7, 249840, Note_on_c, 5, 55, 110
7, 249900, Note_on_c, 5, 55, 0
7, 249900, Note_on_c, 5, 67, 0
7, 249960, Note_on_c, 5, 74, 112
7, 249960, Note_on_c, 5, 67, 112
7, 250020, Note_on_c, 5, 67, 0
7, 250020, Note_on_c, 5, 74, 0
7, 250080, Note_on_c, 5, 72, 101
7, 250080, Note_on_c, 5, 64, 112
7, 250140, Note_on_c, 5, 64, 0
7, 250140, Note_on_c, 5, 72, 0
7, 250200, Note_on_c, 5, 74, 112
7, 250200, Note_on_c, 5, 65, 115
7, 250260, Note_on_c, 5, 65, 0
7, 250260, Note_on_c, 5, 74, 0
7, 250320, Note_on_c, 5, 72, 99
7, 250320, Note_on_c, 5, 64, 110
7, 250380, Note_on_c, 5, 64, 0
7, 250380, Note_on_c, 5, 72, 0
7, 250440, Note_on_c, 5, 74, 115
7, 250440, Note_on_c, 5, 65, 117
7, 250500, Note_on_c, 5, 65, 0
7, 250500, Note_on_c, 5, 74, 0
7, 250560, Note_on_c, 5, 72, 105
7, 250560, Note_on_c, 5, 64, 117
7, 250800, Note_on_c, 5, 64, 0
7, 250800, Note_on_c, 5, 72, 0
7, 282600, Note_on_c, 5, 72, 80
7, 282600, Note_on_c, 5, 64, 99
7, 282720, Note_on_c, 5, 64, 0
7, 282720, Note_on_c, 5, 72, 0
7, 282720, Note_on_c, 5, 74, 98
7, 282720, Note_on_c, 5, 67, 94
7, 283200, Note_on_c, 5, 67, 0
7, 283200, Note_on_c, 5, 74, 0
7, 283200, Note_on_c, 5, 74, 76
7, 283200, Note_on_c, 5, 67, 68
7, 283320, Note_on_c, 5, 67, 0
7, 283320, Note_on_c, 5, 74, 0
7, 283320, Note_on_c, 5, 74, 104
7, 283320, Note_on_c, 5, 67, 98
7, 283440, Note_on_c, 5, 67, 0
7, 283440, Note_on_c, 5, 74, 0
7, 283440, Note_on_c, 5, 74, 99
7, 283440, Note_on_c, 5, 67, 95
7, 283560, Note_on_c, 5, 67, 0
7, 283560, Note_on_c, 5, 74, 0
7, 283560, Note_on_c, 5, 74, 99
7, 283560, Note_on_c, 5, 67, 99
7, 283680, Note_on_c, 5, 67, 0
7, 283680, Note_on_c, 5, 74, 0
7, 283680, Note_on_c, 5, 72, 80
7, 283680, Note_on_c, 5, 64, 98
7, 283800, Note_on_c, 5, 64, 0
7, 283800, Note_on_c, 5, 72, 0
7, 283800, Note_on_c, 5, 74, 89
7, 283800, Note_on_c, 5, 67, 89
7, 283920, Note_on_c, 5, 67, 0
7, 283920, Note_on_c, 5, 74, 0
7, 283920, Note_on_c, 5, 72, 74
7, 283920, Note_on_c, 5, 64, 95
7, 284040, Note_on_c, 5, 64, 0
7, 284040, Note_on_c, 5, 72, 0
7, 284040, Note_on_c, 5, 74, 90
7, 284040, Note_on_c, 5, 67, 93
7, 284160, Note_on_c, 5, 67, 0
7, 284160, Note_on_c, 5, 74, 0
7, 284160, Note_on_c, 5, 72, 81
7, 284160, Note_on_c, 5, 64, 99
7, 284280, Note_on_c, 5, 64, 0
7, 284280, Note_on_c, 5, 72, 0
7, 284280, Note_on_c, 5, 74, 98
7, 284280, Note_on_c, 5, 67, 94
7, 284400, Note_on_c, 5, 67, 0
7, 284400, Note_on_c, 5, 74, 0
7, 284400, Note_on_c, 5, 72, 81
7, 284400, Note_on_c, 5, 64, 95
7, 284520, Note_on_c, 5, 64, 0
7, 284520, Note_on_c, 5, 72, 0
7, 284520, Note_on_c, 5, 74, 99
7, 284520, Note_on_c, 5, 67, 95
7, 284640, Note_on_c, 5, 67, 0
7, 284640, Note_on_c, 5, 74, 0
7, 284640, Note_on_c, 5, 72, 77
7, 284640, Note_on_c, 5, 64, 99
7, 284880, Note_on_c, 5, 64, 0
7, 284880, Note_on_c, 5, 72, 0
7, 284880, Note_on_c, 5, 72, 84
7, 284880, Note_on_c, 5, 60, 89
7, 285120, Note_on_c, 5, 60, 0
7, 285120, Note_on_c, 5, 72, 0
7, 285120, Note_on_c, 5, 60, 99
7, 285360, Note_on_c, 5, 60, 0
7, 285360, End_track
8, 0, Start_track
8, 0, MIDI_port, 0
8, 0, Title_t, "Timpani "
8, 0, Program_c, 6, 47
8, 0, Control_c, 6, 7, 100
8, 0, Control_c, 6, 10, 43
8, 0, Control_c, 6, 93, 0
8, 0, Control_c, 6, 91, 66
8, 10080, Note_on_c, 6, 48, 99
8, 10320, Note_on_c, 6, 48, 0
8, 10560, Note_on_c, 6, 48, 101
8, 10800, Note_on_c, 6, 48, 0
8, 11040, Note_on_c, 6, 48, 99
8, 11280, Note_on_c, 6, 48, 0
8, 11280, Note_on_c, 6, 48, 98
8, 11520, Note_on_c, 6, 48, 0
8, 11520, Note_on_c, 6, 43, 95
8, 11760, Note_on_c, 6, 43, 0
8, 12000, Note_on_c, 6, 43, 95
8, 12240, Note_on_c, 6, 43, 0
8, 12480, Note_on_c, 6, 43, 99
8, 12720, Note_on_c, 6, 43, 0
8, 12960, Note_on_c, 6, 43, 98
8, 13200, Note_on_c, 6, 43, 0
8, 13200, Note_on_c, 6, 43, 95
8, 13440, Note_on_c, 6, 43, 0
8, 13440, Note_on_c, 6, 43, 125
8, 13680, Note_on_c, 6, 43, 0
8, 13920, Note_on_c, 6, 43, 94
8, 14160, Note_on_c, 6, 43, 0
8, 14160, Note_on_c, 6, 43, 99
8, 14400, Note_on_c, 6, 43, 0
8, 14400, Note_on_c, 6, 43, 119
8, 14640, Note_on_c, 6, 43, 0
8, 15120, Note_on_c, 6, 43, 125
8, 15360, Note_on_c, 6, 43, 0
8, 15600, Note_on_c, 6, 43, 119
8, 15840, Note_on_c, 6, 43, 0
8, 16080, Note_on_c, 6, 48, 105
8, 16140, Note_on_c, 6, 48, 0
8, 16200, Note_on_c, 6, 48, 105
8, 16260, Note_on_c, 6, 48, 0
8, 16320, Note_on_c, 6, 43, 94
8, 16350, Note_on_c, 6, 43, 0
8, 16350, Note_on_c, 6, 43, 99
8, 16380, Note_on_c, 6, 43, 0
8, 16380, Note_on_c, 6, 43, 95
8, 16410, Note_on_c, 6, 43, 0
8, 16410, Note_on_c, 6, 43, 95
8, 16440, Note_on_c, 6, 43, 0
8, 16440, Note_on_c, 6, 43, 95
8, 16470, Note_on_c, 6, 43, 0
8, 16470, Note_on_c, 6, 43, 94
8, 16500, Note_on_c, 6, 43, 0
8, 16500, Note_on_c, 6, 43, 94
8, 16530, Note_on_c, 6, 43, 0
8, 16530, Note_on_c, 6, 43, 95
8, 16560, Note_on_c, 6, 43, 0
8, 16560, Note_on_c, 6, 43, 95
8, 16590, Note_on_c, 6, 43, 0
8, 16590, Note_on_c, 6, 43, 94
8, 16620, Note_on_c, 6, 43, 0
8, 16620, Note_on_c, 6, 43, 94
8, 16650, Note_on_c, 6, 43, 0
8, 16650, Note_on_c, 6, 43, 98
8, 16680, Note_on_c, 6, 43, 0
8, 16680, Note_on_c, 6, 43, 98
8, 16710, Note_on_c, 6, 43, 0
8, 16710, Note_on_c, 6, 43, 94
8, 16740, Note_on_c, 6, 43, 0
8, 16740, Note_on_c, 6, 43, 95
8, 16770, Note_on_c, 6, 43, 0
8, 16770, Note_on_c, 6, 43, 98
8, 16800, Note_on_c, 6, 43, 0
8, 16800, Note_on_c, 6, 48, 99
8, 17040, Note_on_c, 6, 48, 0
8, 17280, Note_on_c, 6, 43, 99
8, 17520, Note_on_c, 6, 43, 0
8, 17760, Note_on_c, 6, 48, 123
8, 17820, Note_on_c, 6, 48, 0
8, 17820, Note_on_c, 6, 48, 119
8, 17880, Note_on_c, 6, 48, 0
8, 17880, Note_on_c, 6, 48, 119
8, 17940, Note_on_c, 6, 48, 0
8, 17940, Note_on_c, 6, 48, 117
8, 18000, Note_on_c, 6, 48, 0
8, 18000, Note_on_c, 6, 48, 115
8, 18060, Note_on_c, 6, 48, 0
8, 18060, Note_on_c, 6, 48, 119
8, 18120, Note_on_c, 6, 48, 0
8, 18120, Note_on_c, 6, 48, 119
8, 18180, Note_on_c, 6, 48, 0
8, 18180, Note_on_c, 6, 48, 123
8, 18240, Note_on_c, 6, 48, 0
8, 18240, Note_on_c, 6, 43, 119
8, 18270, Note_on_c, 6, 43, 0
8, 18270, Note_on_c, 6, 43, 115
8, 18300, Note_on_c, 6, 43, 0
8, 18300, Note_on_c, 6, 43, 115
8, 18330, Note_on_c, 6, 43, 0
8, 18330, Note_on_c, 6, 43, 119
8, 18360, Note_on_c, 6, 43, 0
8, 18360, Note_on_c, 6, 43, 119
8, 18390, Note_on_c, 6, 43, 0
8, 18390, Note_on_c, 6, 43, 119
8, 18420, Note_on_c, 6, 43, 0
8, 18420, Note_on_c, 6, 43, 119
8, 18450, Note_on_c, 6, 43, 0
8, 18450, Note_on_c, 6, 43, 119
8, 18480, Note_on_c, 6, 43, 0
8, 18480, Note_on_c, 6, 43, 119
8, 18510, Note_on_c, 6, 43, 0
8, 18510, Note_on_c, 6, 43, 119
8, 18540, Note_on_c, 6, 43, 0
8, 18540, Note_on_c, 6, 43, 119
8, 18570, Note_on_c, 6, 43, 0
8, 18570, Note_on_c, 6, 43, 123
8, 18600, Note_on_c, 6, 43, 0
8, 18600, Note_on_c, 6, 43, 119
8, 18630, Note_on_c, 6, 43, 0
8, 18630, Note_on_c, 6, 43, 119
8, 18660, Note_on_c, 6, 43, 0
8, 18660, Note_on_c, 6, 43, 117
8, 18690, Note_on_c, 6, 43, 0
8, 18690, Note_on_c, 6, 43, 123
8, 18720, Note_on_c, 6, 43, 0
8, 18720, Note_on_c, 6, 48, 125
8, 18780, Note_on_c, 6, 48, 0
8, 18840, Note_on_c, 6, 43, 119
8, 18900, Note_on_c, 6, 43, 0
8, 18960, Note_on_c, 6, 48, 125
8, 19020, Note_on_c, 6, 48, 0
8, 19080, Note_on_c, 6, 43, 125
8, 19140, Note_on_c, 6, 43, 0
8, 19200, Note_on_c, 6, 48, 127
8, 19440, Note_on_c, 6, 48, 0
8, 82560, Note_on_c, 6, 48, 99
8, 82800, Note_on_c, 6, 48, 0
8, 83040, Note_on_c, 6, 48, 101
8, 83280, Note_on_c, 6, 48, 0
8, 83520, Note_on_c, 6, 48, 99
8, 83760, Note_on_c, 6, 48, 0
8, 83760, Note_on_c, 6, 48, 98
8, 84000, Note_on_c, 6, 48, 0
8, 84000, Note_on_c, 6, 43, 95
8, 84240, Note_on_c, 6, 43, 0
8, 84480, Note_on_c, 6, 43, 95
8, 84720, Note_on_c, 6, 43, 0
8, 84960, Note_on_c, 6, 43, 99
8, 85200, Note_on_c, 6, 43, 0
8, 85440, Note_on_c, 6, 43, 98
8, 85680, Note_on_c, 6, 43, 0
8, 85680, Note_on_c, 6, 43, 95
8, 85920, Note_on_c, 6, 43, 0
8, 85920, Note_on_c, 6, 43, 125
8, 86160, Note_on_c, 6, 43, 0
8, 86400, Note_on_c, 6, 43, 94
8, 86640, Note_on_c, 6, 43, 0
8, 86640, Note_on_c, 6, 43, 99
8, 86880, Note_on_c, 6, 43, 0
8, 86880, Note_on_c, 6, 43, 119
8, 87120, Note_on_c, 6, 43, 0
8, 87600, Note_on_c, 6, 43, 125
8, 87840, Note_on_c, 6, 43, 0
8, 88080, Note_on_c, 6, 43, 119
8, 88320, Note_on_c, 6, 43, 0
8, 88560, Note_on_c, 6, 48, 105
8, 88620, Note_on_c, 6, 48, 0
8, 88680, Note_on_c, 6, 48, 105
8, 88740, Note_on_c, 6, 48, 0
8, 88800, Note_on_c, 6, 43, 94
8, 88830, Note_on_c, 6, 43, 0
8, 88830, Note_on_c, 6, 43, 99
8, 88860, Note_on_c, 6, 43, 0
8, 88860, Note_on_c, 6, 43, 95
8, 88890, Note_on_c, 6, 43, 0
8, 88890, Note_on_c, 6, 43, 95
8, 88920, Note_on_c, 6, 43, 0
8, 88920, Note_on_c, 6, 43, 95
8, 88950, Note_on_c, 6, 43, 0
8, 88950, Note_on_c, 6, 43, 94
8, 88980, Note_on_c, 6, 43, 0
8, 88980, Note_on_c, 6, 43, 94
8, 89010, Note_on_c, 6, 43, 0
8, 89010, Note_on_c, 6, 43, 95
8, 89040, Note_on_c, 6, 43, 0
8, 89040, Note_on_c, 6, 43, 95
8, 89070, Note_on_c, 6, 43, 0
8, 89070, Note_on_c, 6, 43, 94
8, 89100, Note_on_c, 6, 43, 0
8, 89100, Note_on_c, 6, 43, 94
8, 89130, Note_on_c, 6, 43, 0
8, 89130, Note_on_c, 6, 43, 98
8, 89160, Note_on_c, 6, 43, 0
8, 89160, Note_on_c, 6, 43, 98
8, 89190, Note_on_c, 6, 43, 0
8, 89190, Note_on_c, 6, 43, 94
8, 89220, Note_on_c, 6, 43, 0
8, 89220, Note_on_c, 6, 43, 95
8, 89250, Note_on_c, 6, 43, 0
8, 89250, Note_on_c, 6, 43, 98
8, 89280, Note_on_c, 6, 43, 0
8, 89280, Note_on_c, 6, 48, 99
8, 89520, Note_on_c, 6, 48, 0
8, 89760, Note_on_c, 6, 43, 99
8, 90000, Note_on_c, 6, 43, 0
8, 90240, Note_on_c, 6, 48, 123
8, 90300, Note_on_c, 6, 48, 0
8, 90300, Note_on_c, 6, 48, 119
8, 90360, Note_on_c, 6, 48, 0
8, 90360, Note_on_c, 6, 48, 119
8, 90420, Note_on_c, 6, 48, 0
8, 90420, Note_on_c, 6, 48, 117
8, 90480, Note_on_c, 6, 48, 0
8, 90480, Note_on_c, 6, 48, 115
8, 90540, Note_on_c, 6, 48, 0
8, 90540, Note_on_c, 6, 48, 119
8, 90600, Note_on_c, 6, 48, 0
8, 90600, Note_on_c, 6, 48, 119
8, 90660, Note_on_c, 6, 48, 0
8, 90660, Note_on_c, 6, 48, 123
8, 90720, Note_on_c, 6, 48, 0
8, 90720, Note_on_c, 6, 43, 119
8, 90750, Note_on_c, 6, 43, 0
8, 90750, Note_on_c, 6, 43, 115
8, 90780, Note_on_c, 6, 43, 0
8, 90780, Note_on_c, 6, 43, 115
8, 90810, Note_on_c, 6, 43, 0
8, 90810, Note_on_c, 6, 43, 119
8, 90840, Note_on_c, 6, 43, 0
8, 90840, Note_on_c, 6, 43, 119
8, 90870, Note_on_c, 6, 43, 0
8, 90870, Note_on_c, 6, 43, 119
8, 90900, Note_on_c, 6, 43, 0
8, 90900, Note_on_c, 6, 43, 119
8, 90930, Note_on_c, 6, 43, 0
8, 90930, Note_on_c, 6, 43, 119
8, 90960, Note_on_c, 6, 43, 0
8, 90960, Note_on_c, 6, 43, 119
8, 90990, Note_on_c, 6, 43, 0
8, 90990, Note_on_c, 6, 43, 119
8, 91020, Note_on_c, 6, 43, 0
8, 91020, Note_on_c, 6, 43, 119
8, 91050, Note_on_c, 6, 43, 0
8, 91050, Note_on_c, 6, 43, 123
8, 91080, Note_on_c, 6, 43, 0
8, 91080, Note_on_c, 6, 43, 119
8, 91110, Note_on_c, 6, 43, 0
8, 91110, Note_on_c, 6, 43, 119
8, 91140, Note_on_c, 6, 43, 0
8, 91140, Note_on_c, 6, 43, 117
8, 91170, Note_on_c, 6, 43, 0
8, 91170, Note_on_c, 6, 43, 123
8, 91200, Note_on_c, 6, 43, 0
8, 91200, Note_on_c, 6, 48, 125
8, 91260, Note_on_c, 6, 48, 0
8, 91320, Note_on_c, 6, 43, 119
8, 91380, Note_on_c, 6, 43, 0
8, 91440, Note_on_c, 6, 48, 125
8, 91500, Note_on_c, 6, 48, 0
8, 91560, Note_on_c, 6, 43, 125
8, 91620, Note_on_c, 6, 43, 0
8, 91680, Note_on_c, 6, 48, 127
8, 91920, Note_on_c, 6, 48, 0
8, 158880, Note_on_c, 6, 48, 99
8, 159120, Note_on_c, 6, 48, 0
8, 159360, Note_on_c, 6, 48, 101
8, 159600, Note_on_c, 6, 48, 0
8, 159840, Note_on_c, 6, 48, 99
8, 160080, Note_on_c, 6, 48, 0
8, 160080, Note_on_c, 6, 48, 98
8, 160320, Note_on_c, 6, 48, 0
8, 160320, Note_on_c, 6, 43, 95
8, 160560, Note_on_c, 6, 43, 0
8, 160800, Note_on_c, 6, 43, 95
8, 161040, Note_on_c, 6, 43, 0
8, 161280, Note_on_c, 6, 43, 99
8, 161520, Note_on_c, 6, 43, 0
8, 161760, Note_on_c, 6, 43, 98
8, 162000, Note_on_c, 6, 43, 0
8, 162000, Note_on_c, 6, 43, 95
8, 162240, Note_on_c, 6, 43, 0
8, 162240, Note_on_c, 6, 43, 125
8, 162480, Note_on_c, 6, 43, 0
8, 162720, Note_on_c, 6, 43, 94
8, 162960, Note_on_c, 6, 43, 0
8, 162960, Note_on_c, 6, 43, 99
8, 163200, Note_on_c, 6, 43, 0
8, 163200, Note_on_c, 6, 43, 119
8, 163440, Note_on_c, 6, 43, 0
8, 163920, Note_on_c, 6, 43, 125
8, 164160, Note_on_c, 6, 43, 0
8, 164400, Note_on_c, 6, 43, 119
8, 164640, Note_on_c, 6, 43, 0
8, 164880, Note_on_c, 6, 48, 105
8, 164940, Note_on_c, 6, 48, 0
8, 165000, Note_on_c, 6, 48, 105
8, 165060, Note_on_c, 6, 48, 0
8, 165120, Note_on_c, 6, 43, 94
8, 165150, Note_on_c, 6, 43, 0
8, 165150, Note_on_c, 6, 43, 99
8, 165180, Note_on_c, 6, 43, 0
8, 165180, Note_on_c, 6, 43, 95
8, 165210, Note_on_c, 6, 43, 0
8, 165210, Note_on_c, 6, 43, 95
8, 165240, Note_on_c, 6, 43, 0
8, 165240, Note_on_c, 6, 43, 95
8, 165270, Note_on_c, 6, 43, 0
8, 165270, Note_on_c, 6, 43, 94
8, 165300, Note_on_c, 6, 43, 0
8, 165300, Note_on_c, 6, 43, 94
8, 165330, Note_on_c, 6, 43, 0
8, 165330, Note_on_c, 6, 43, 95
8, 165360, Note_on_c, 6, 43, 0
8, 165360, Note_on_c, 6, 43, 95
8, 165390, Note_on_c, 6, 43, 0
8, 165390, Note_on_c, 6, 43, 94
8, 165420, Note_on_c, 6, 43, 0
8, 165420, Note_on_c, 6, 43, 94
8, 165450, Note_on_c, 6, 43, 0
8, 165450, Note_on_c, 6, 43, 98
8, 165480, Note_on_c, 6, 43, 0
8, 165480, Note_on_c, 6, 43, 98
8, 165510, Note_on_c, 6, 43, 0
8, 165510, Note_on_c, 6, 43, 94
8, 165540, Note_on_c, 6, 43, 0
8, 165540, Note_on_c, 6, 43, 95
8, 165570, Note_on_c, 6, 43, 0
8, 165570, Note_on_c, 6, 43, 98
8, 165600, Note_on_c, 6, 43, 0
8, 165600, Note_on_c, 6, 48, 99
8, 165840, Note_on_c, 6, 48, 0
8, 166080, Note_on_c, 6, 43, 99
8, 166320, Note_on_c, 6, 43, 0
8, 166560, Note_on_c, 6, 48, 123
8, 166620, Note_on_c, 6, 48, 0
8, 166620, Note_on_c, 6, 48, 119
8, 166680, Note_on_c, 6, 48, 0
8, 166680, Note_on_c, 6, 48, 119
8, 166740, Note_on_c, 6, 48, 0
8, 166740, Note_on_c, 6, 48, 117
8, 166800, Note_on_c, 6, 48, 0
8, 166800, Note_on_c, 6, 48, 115
8, 166860, Note_on_c, 6, 48, 0
8, 166860, Note_on_c, 6, 48, 119
8, 166920, Note_on_c, 6, 48, 0
8, 166920, Note_on_c, 6, 48, 119
8, 166980, Note_on_c, 6, 48, 0
8, 166980, Note_on_c, 6, 48, 123
8, 167040, Note_on_c, 6, 48, 0
8, 167040, Note_on_c, 6, 43, 119
8, 167070, Note_on_c, 6, 43, 0
8, 167070, Note_on_c, 6, 43, 115
8, 167100, Note_on_c, 6, 43, 0
8, 167100, Note_on_c, 6, 43, 115
8, 167130, Note_on_c, 6, 43, 0
8, 167130, Note_on_c, 6, 43, 119
8, 167160, Note_on_c, 6, 43, 0
8, 167160, Note_on_c, 6, 43, 119
8, 167190, Note_on_c, 6, 43, 0
8, 167190, Note_on_c, 6, 43, 119
8, 167220, Note_on_c, 6, 43, 0
8, 167220, Note_on_c, 6, 43, 119
8, 167250, Note_on_c, 6, 43, 0
8, 167250, Note_on_c, 6, 43, 119
8, 167280, Note_on_c, 6, 43, 0
8, 167280, Note_on_c, 6, 43, 119
8, 167310, Note_on_c, 6, 43, 0
8, 167310, Note_on_c, 6, 43, 119
8, 167340, Note_on_c, 6, 43, 0
8, 167340, Note_on_c, 6, 43, 119
8, 167370, Note_on_c, 6, 43, 0
8, 167370, Note_on_c, 6, 43, 123
8, 167400, Note_on_c, 6, 43, 0
8, 167400, Note_on_c, 6, 43, 119
8, 167430, Note_on_c, 6, 43, 0
8, 167430, Note_on_c, 6, 43, 119
8, 167460, Note_on_c, 6, 43, 0
8, 167460, Note_on_c, 6, 43, 117
8, 167490, Note_on_c, 6, 43, 0
8, 167490, Note_on_c, 6, 43, 123
8, 167520, Note_on_c, 6, 43, 0
8, 167520, Note_on_c, 6, 48, 125
8, 167580, Note_on_c, 6, 48, 0
8, 167640, Note_on_c, 6, 43, 119
8, 167700, Note_on_c, 6, 43, 0
8, 167760, Note_on_c, 6, 48, 125
8, 167820, Note_on_c, 6, 48, 0
8, 167880, Note_on_c, 6, 43, 125
8, 167940, Note_on_c, 6, 43, 0
8, 168000, Note_on_c, 6, 48, 127
8, 168240, Note_on_c, 6, 48, 0
8, 211200, Note_on_c, 6, 48, 66
8, 211440, Note_on_c, 6, 48, 0
8, 211680, Note_on_c, 6, 43, 84
8, 211920, Note_on_c, 6, 43, 0
8, 212160, Note_on_c, 6, 48, 77
8, 212400, Note_on_c, 6, 48, 0
8, 212640, Note_on_c, 6, 48, 80
8, 212880, Note_on_c, 6, 48, 0
8, 213120, Note_on_c, 6, 48, 81
8, 213360, Note_on_c, 6, 48, 0
8, 213600, Note_on_c, 6, 48, 76
8, 213840, Note_on_c, 6, 48, 0
8, 214080, Note_on_c, 6, 43, 74
8, 214320, Note_on_c, 6, 43, 0
8, 214560, Note_on_c, 6, 43, 74
8, 214800, Note_on_c, 6, 43, 0
8, 215040, Note_on_c, 6, 48, 95
8, 215280, Note_on_c, 6, 48, 0
8, 215520, Note_on_c, 6, 48, 94
8, 215760, Note_on_c, 6, 48, 0
8, 216000, Note_on_c, 6, 48, 104
8, 216240, Note_on_c, 6, 48, 0
8, 216720, Note_on_c, 6, 48, 105
8, 216780, Note_on_c, 6, 48, 0
8, 216780, Note_on_c, 6, 48, 99
8, 216840, Note_on_c, 6, 48, 0
8, 216840, Note_on_c, 6, 48, 89
8, 216900, Note_on_c, 6, 48, 0
8, 216900, Note_on_c, 6, 48, 86
8, 216960, Note_on_c, 6, 48, 0
8, 216960, Note_on_c, 6, 48, 90
8, 217200, Note_on_c, 6, 48, 0
8, 217680, Note_on_c, 6, 48, 104
8, 217740, Note_on_c, 6, 48, 0
8, 217740, Note_on_c, 6, 48, 84
8, 217800, Note_on_c, 6, 48, 0
8, 217800, Note_on_c, 6, 48, 89
8, 217860, Note_on_c, 6, 48, 0
8, 217860, Note_on_c, 6, 48, 86
8, 217920, Note_on_c, 6, 48, 0
8, 217920, Note_on_c, 6, 48, 86
8, 217980, Note_on_c, 6, 48, 0
8, 217980, Note_on_c, 6, 48, 84
8, 218040, Note_on_c, 6, 48, 0
8, 218040, Note_on_c, 6, 48, 85
8, 218100, Note_on_c, 6, 48, 0
8, 218100, Note_on_c, 6, 48, 89
8, 218160, Note_on_c, 6, 48, 0
8, 218160, Note_on_c, 6, 48, 99
8, 218220, Note_on_c, 6, 48, 0
8, 218220, Note_on_c, 6, 48, 90
8, 218280, Note_on_c, 6, 48, 0
8, 218280, Note_on_c, 6, 48, 86
8, 218340, Note_on_c, 6, 48, 0
8, 218340, Note_on_c, 6, 48, 84
8, 218400, Note_on_c, 6, 48, 0
8, 218400, Note_on_c, 6, 48, 95
8, 218460, Note_on_c, 6, 48, 0
8, 218460, Note_on_c, 6, 48, 95
8, 218520, Note_on_c, 6, 48, 0
8, 218520, Note_on_c, 6, 48, 95
8, 218580, Note_on_c, 6, 48, 0
8, 218580, Note_on_c, 6, 48, 94
8, 218640, Note_on_c, 6, 48, 0
8, 218640, Note_on_c, 6, 48, 105
8, 218700, Note_on_c, 6, 48, 0
8, 218700, Note_on_c, 6, 48, 94
8, 218760, Note_on_c, 6, 48, 0
8, 218760, Note_on_c, 6, 48, 95
8, 218820, Note_on_c, 6, 48, 0
8, 218820, Note_on_c, 6, 48, 98
8, 218880, Note_on_c, 6, 48, 0
8, 218880, Note_on_c, 6, 43, 104
8, 218940, Note_on_c, 6, 43, 0
8, 218940, Note_on_c, 6, 43, 99
8, 219000, Note_on_c, 6, 43, 0
8, 219000, Note_on_c, 6, 43, 101
8, 219060, Note_on_c, 6, 43, 0
8, 219060, Note_on_c, 6, 43, 101
8, 219120, Note_on_c, 6, 43, 0
8, 219120, Note_on_c, 6, 43, 95
8, 219180, Note_on_c, 6, 43, 0
8, 219180, Note_on_c, 6, 43, 95
8, 219240, Note_on_c, 6, 43, 0
8, 219240, Note_on_c, 6, 43, 99
8, 219300, Note_on_c, 6, 43, 0
8, 219300, Note_on_c, 6, 43, 99
8, 219360, Note_on_c, 6, 43, 0
8, 219360, Note_on_c, 6, 43, 98
8, 219390, Note_on_c, 6, 43, 0
8, 219390, Note_on_c, 6, 43, 98
8, 219420, Note_on_c, 6, 43, 0
8, 219420, Note_on_c, 6, 43, 95
8, 219450, Note_on_c, 6, 43, 0
8, 219450, Note_on_c, 6, 43, 99
8, 219480, Note_on_c, 6, 43, 0
8, 219480, Note_on_c, 6, 43, 94
8, 219510, Note_on_c, 6, 43, 0
8, 219510, Note_on_c, 6, 43, 95
8, 219540, Note_on_c, 6, 43, 0
8, 219540, Note_on_c, 6, 43, 94
8, 219570, Note_on_c, 6, 43, 0
8, 219570, Note_on_c, 6, 43, 95
8, 219600, Note_on_c, 6, 43, 0
8, 219600, Note_on_c, 6, 43, 95
8, 219630, Note_on_c, 6, 43, 0
8, 219630, Note_on_c, 6, 43, 95
8, 219660, Note_on_c, 6, 43, 0
8, 219660, Note_on_c, 6, 43, 98
8, 219690, Note_on_c, 6, 43, 0
8, 219690, Note_on_c, 6, 43, 99
8, 219720, Note_on_c, 6, 43, 0
8, 219720, Note_on_c, 6, 43, 95
8, 219750, Note_on_c, 6, 43, 0
8, 219750, Note_on_c, 6, 43, 94
8, 219780, Note_on_c, 6, 43, 0
8, 219780, Note_on_c, 6, 43, 95
8, 219810, Note_on_c, 6, 43, 0
8, 219810, Note_on_c, 6, 43, 99
8, 219840, Note_on_c, 6, 43, 0
8, 219840, Note_on_c, 6, 43, 98
8, 219870, Note_on_c, 6, 43, 0
8, 219870, Note_on_c, 6, 43, 98
8, 219900, Note_on_c, 6, 43, 0
8, 219900, Note_on_c, 6, 43, 95
8, 219930, Note_on_c, 6, 43, 0
8, 219930, Note_on_c, 6, 43, 99
8, 219960, Note_on_c, 6, 43, 0
8, 219960, Note_on_c, 6, 43, 94
8, 219990, Note_on_c, 6, 43, 0
8, 219990, Note_on_c, 6, 43, 95
8, 220020, Note_on_c, 6, 43, 0
8, 220020, Note_on_c, 6, 43, 94
8, 220050, Note_on_c, 6, 43, 0
8, 220050, Note_on_c, 6, 43, 95
8, 220080, Note_on_c, 6, 43, 0
8, 220080, Note_on_c, 6, 43, 95
8, 220110, Note_on_c, 6, 43, 0
8, 220110, Note_on_c, 6, 43, 95
8, 220140, Note_on_c, 6, 43, 0
8, 220140, Note_on_c, 6, 43, 98
8, 220170, Note_on_c, 6, 43, 0
8, 220170, Note_on_c, 6, 43, 99
8, 220200, Note_on_c, 6, 43, 0
8, 220200, Note_on_c, 6, 43, 95
8, 220230, Note_on_c, 6, 43, 0
8, 220230, Note_on_c, 6, 43, 94
8, 220260, Note_on_c, 6, 43, 0
8, 220260, Note_on_c, 6, 43, 95
8, 220290, Note_on_c, 6, 43, 0
8, 220290, Note_on_c, 6, 43, 99
8, 220320, Note_on_c, 6, 43, 0
8, 239520, Note_on_c, 6, 43, 42
8, 239580, Note_on_c, 6, 43, 0
8, 239580, Note_on_c, 6, 43, 43
8, 239640, Note_on_c, 6, 43, 0
8, 239640, Note_on_c, 6, 43, 41
8, 239670, Note_on_c, 6, 43, 0
8, 239670, Note_on_c, 6, 43, 41
8, 239700, Note_on_c, 6, 43, 0
8, 239700, Note_on_c, 6, 43, 40
8, 239730, Note_on_c, 6, 43, 0
8, 239730, Note_on_c, 6, 43, 44
8, 239760, Note_on_c, 6, 43, 0
8, 239760, Note_on_c, 6, 43, 43
8, 239790, Note_on_c, 6, 43, 0
8, 239790, Note_on_c, 6, 43, 43
8, 239820, Note_on_c, 6, 43, 0
8, 239820, Note_on_c, 6, 43, 40
8, 239850, Note_on_c, 6, 43, 0
8, 239850, Note_on_c, 6, 43, 43
8, 239880, Note_on_c, 6, 43, 0
8, 239880, Note_on_c, 6, 43, 43
8, 239910, Note_on_c, 6, 43, 0
8, 239910, Note_on_c, 6, 43, 43
8, 239940, Note_on_c, 6, 43, 0
8, 239940, Note_on_c, 6, 43, 43
8, 239970, Note_on_c, 6, 43, 0
8, 239970, Note_on_c, 6, 43, 40
8, 240000, Note_on_c, 6, 43, 0
8, 240000, Note_on_c, 6, 43, 43
8, 240030, Note_on_c, 6, 43, 0
8, 240030, Note_on_c, 6, 43, 43
8, 240060, Note_on_c, 6, 43, 0
8, 240060, Note_on_c, 6, 43, 43
8, 240090, Note_on_c, 6, 43, 0
8, 240090, Note_on_c, 6, 43, 43
8, 240120, Note_on_c, 6, 43, 0
8, 240120, Note_on_c, 6, 43, 43
8, 240150, Note_on_c, 6, 43, 0
8, 240150, Note_on_c, 6, 43, 43
8, 240180, Note_on_c, 6, 43, 0
8, 240180, Note_on_c, 6, 43, 40
8, 240210, Note_on_c, 6, 43, 0
8, 240210, Note_on_c, 6, 43, 39
8, 240240, Note_on_c, 6, 43, 0
8, 240240, Note_on_c, 6, 43, 40
8, 240270, Note_on_c, 6, 43, 0
8, 240270, Note_on_c, 6, 43, 38
8, 240300, Note_on_c, 6, 43, 0
8, 240300, Note_on_c, 6, 43, 43
8, 240330, Note_on_c, 6, 43, 0
8, 240330, Note_on_c, 6, 43, 42
8, 240360, Note_on_c, 6, 43, 0
8, 240360, Note_on_c, 6, 43, 40
8, 240390, Note_on_c, 6, 43, 0
8, 240390, Note_on_c, 6, 43, 43
8, 240420, Note_on_c, 6, 43, 0
8, 240420, Note_on_c, 6, 43, 40
8, 240450, Note_on_c, 6, 43, 0
8, 240450, Note_on_c, 6, 43, 43
8, 240480, Note_on_c, 6, 43, 0
8, 240480, Note_on_c, 6, 43, 43
8, 240494, Note_on_c, 6, 43, 43
8, 240496, Note_on_c, 6, 43, 0
8, 240510, Note_on_c, 6, 43, 0
8, 240510, Note_on_c, 6, 43, 44
8, 240524, Note_on_c, 6, 43, 39
8, 240526, Note_on_c, 6, 43, 0
8, 240540, Note_on_c, 6, 43, 0
8, 240540, Note_on_c, 6, 43, 41
8, 240554, Note_on_c, 6, 43, 29
8, 240556, Note_on_c, 6, 43, 0
8, 240570, Note_on_c, 6, 43, 0
8, 240570, Note_on_c, 6, 43, 43
8, 240584, Note_on_c, 6, 43, 38
8, 240586, Note_on_c, 6, 43, 0
8, 240600, Note_on_c, 6, 43, 0
8, 240600, Note_on_c, 6, 43, 40
8, 240614, Note_on_c, 6, 43, 40
8, 240616, Note_on_c, 6, 43, 0
8, 240630, Note_on_c, 6, 43, 0
8, 240630, Note_on_c, 6, 43, 40
8, 240644, Note_on_c, 6, 43, 43
8, 240646, Note_on_c, 6, 43, 0
8, 240660, Note_on_c, 6, 43, 0
8, 240660, Note_on_c, 6, 43, 40
8, 240674, Note_on_c, 6, 43, 40
8, 240676, Note_on_c, 6, 43, 0
8, 240690, Note_on_c, 6, 43, 0
8, 240690, Note_on_c, 6, 43, 37
8, 240704, Note_on_c, 6, 43, 43
8, 240706, Note_on_c, 6, 43, 0
8, 240720, Note_on_c, 6, 43, 0
8, 240720, Note_on_c, 6, 43, 40
8, 240734, Note_on_c, 6, 43, 40
8, 240736, Note_on_c, 6, 43, 0
8, 240750, Note_on_c, 6, 43, 0
8, 240750, Note_on_c, 6, 43, 41
8, 240764, Note_on_c, 6, 43, 41
8, 240766, Note_on_c, 6, 43, 0
8, 240780, Note_on_c, 6, 43, 0
8, 240780, Note_on_c, 6, 43, 40
8, 240794, Note_on_c, 6, 43, 40
8, 240796, Note_on_c, 6, 43, 0
8, 240810, Note_on_c, 6, 43, 0
8, 240810, Note_on_c, 6, 43, 40
8, 240824, Note_on_c, 6, 43, 43
8, 240826, Note_on_c, 6, 43, 0
8, 240840, Note_on_c, 6, 43, 0
8, 240840, Note_on_c, 6, 43, 38
8, 240854, Note_on_c, 6, 43, 41
8, 240856, Note_on_c, 6, 43, 0
8, 240870, Note_on_c, 6, 43, 0
8, 240870, Note_on_c, 6, 43, 43
8, 240884, Note_on_c, 6, 43, 40
8, 240886, Note_on_c, 6, 43, 0
8, 240900, Note_on_c, 6, 43, 0
8, 240900, Note_on_c, 6, 43, 42
8, 240914, Note_on_c, 6, 43, 41
8, 240916, Note_on_c, 6, 43, 0
8, 240930, Note_on_c, 6, 43, 0
8, 240930, Note_on_c, 6, 43, 41
8, 240944, Note_on_c, 6, 43, 40
8, 240946, Note_on_c, 6, 43, 0
8, 240960, Note_on_c, 6, 43, 0
8, 241440, Note_on_c, 6, 48, 99
8, 241680, Note_on_c, 6, 48, 0
8, 241920, Note_on_c, 6, 48, 101
8, 242160, Note_on_c, 6, 48, 0
8, 242400, Note_on_c, 6, 48, 99
8, 242640, Note_on_c, 6, 48, 0
8, 242640, Note_on_c, 6, 48, 98
8, 242880, Note_on_c, 6, 48, 0
8, 242880, Note_on_c, 6, 43, 95
8, 243120, Note_on_c, 6, 43, 0
8, 243360, Note_on_c, 6, 43, 95
8, 243600, Note_on_c, 6, 43, 0
8, 243840, Note_on_c, 6, 43, 99
8, 244080, Note_on_c, 6, 43, 0
8, 244320, Note_on_c, 6, 43, 98
8, 244560, Note_on_c, 6, 43, 0
8, 244560, Note_on_c, 6, 43, 95
8, 244800, Note_on_c, 6, 43, 0
8, 244800, Note_on_c, 6, 43, 125
8, 245040, Note_on_c, 6, 43, 0
8, 245280, Note_on_c, 6, 43, 94
8, 245520, Note_on_c, 6, 43, 0
8, 245520, Note_on_c, 6, 43, 99
8, 245760, Note_on_c, 6, 43, 0
8, 245760, Note_on_c, 6, 43, 119
8, 246000, Note_on_c, 6, 43, 0
8, 246480, Note_on_c, 6, 43, 125
8, 246720, Note_on_c, 6, 43, 0
8, 246960, Note_on_c, 6, 43, 119
8, 247200, Note_on_c, 6, 43, 0
8, 247440, Note_on_c, 6, 48, 105
8, 247500, Note_on_c, 6, 48, 0
8, 247560, Note_on_c, 6, 48, 105
8, 247620, Note_on_c, 6, 48, 0
8, 247680, Note_on_c, 6, 43, 94
8, 247710, Note_on_c, 6, 43, 0
8, 247710, Note_on_c, 6, 43, 99
8, 247740, Note_on_c, 6, 43, 0
8, 247740, Note_on_c, 6, 43, 95
8, 247770, Note_on_c, 6, 43, 0
8, 247770, Note_on_c, 6, 43, 95
8, 247800, Note_on_c, 6, 43, 0
8, 247800, Note_on_c, 6, 43, 95
8, 247830, Note_on_c, 6, 43, 0
8, 247830, Note_on_c, 6, 43, 94
8, 247860, Note_on_c, 6, 43, 0
8, 247860, Note_on_c, 6, 43, 94
8, 247890, Note_on_c, 6, 43, 0
8, 247890, Note_on_c, 6, 43, 95
8, 247920, Note_on_c, 6, 43, 0
8, 247920, Note_on_c, 6, 43, 95
8, 247950, Note_on_c, 6, 43, 0
8, 247950, Note_on_c, 6, 43, 94
8, 247980, Note_on_c, 6, 43, 0
8, 247980, Note_on_c, 6, 43, 94
8, 248010, Note_on_c, 6, 43, 0
8, 248010, Note_on_c, 6, 43, 98
8, 248040, Note_on_c, 6, 43, 0
8, 248040, Note_on_c, 6, 43, 98
8, 248070, Note_on_c, 6, 43, 0
8, 248070, Note_on_c, 6, 43, 94
8, 248100, Note_on_c, 6, 43, 0
8, 248100, Note_on_c, 6, 43, 95
8, 248130, Note_on_c, 6, 43, 0
8, 248130, Note_on_c, 6, 43, 98
8, 248160, Note_on_c, 6, 43, 0
8, 248160, Note_on_c, 6, 48, 99
8, 248400, Note_on_c, 6, 48, 0
8, 248640, Note_on_c, 6, 43, 99
8, 248880, Note_on_c, 6, 43, 0
8, 249120, Note_on_c, 6, 48, 123
8, 249180, Note_on_c, 6, 48, 0
8, 249180, Note_on_c, 6, 48, 119
8, 249240, Note_on_c, 6, 48, 0
8, 249240, Note_on_c, 6, 48, 119
8, 249300, Note_on_c, 6, 48, 0
8, 249300, Note_on_c, 6, 48, 117
8, 249360, Note_on_c, 6, 48, 0
8, 249360, Note_on_c, 6, 48, 115
8, 249420, Note_on_c, 6, 48, 0
8, 249420, Note_on_c, 6, 48, 119
8, 249480, Note_on_c, 6, 48, 0
8, 249480, Note_on_c, 6, 48, 119
8, 249540, Note_on_c, 6, 48, 0
8, 249540, Note_on_c, 6, 48, 123
8, 249600, Note_on_c, 6, 48, 0
8, 249600, Note_on_c, 6, 43, 119
8, 249630, Note_on_c, 6, 43, 0
8, 249630, Note_on_c, 6, 43, 115
8, 249660, Note_on_c, 6, 43, 0
8, 249660, Note_on_c, 6, 43, 115
8, 249690, Note_on_c, 6, 43, 0
8, 249690, Note_on_c, 6, 43, 119
8, 249720, Note_on_c, 6, 43, 0
8, 249720, Note_on_c, 6, 43, 119
8, 249750, Note_on_c, 6, 43, 0
8, 249750, Note_on_c, 6, 43, 119
8, 249780, Note_on_c, 6, 43, 0
8, 249780, Note_on_c, 6, 43, 119
8, 249810, Note_on_c, 6, 43, 0
8, 249810, Note_on_c, 6, 43, 119
8, 249840, Note_on_c, 6, 43, 0
8, 249840, Note_on_c, 6, 43, 119
8, 249870, Note_on_c, 6, 43, 0
8, 249870, Note_on_c, 6, 43, 119
8, 249900, Note_on_c, 6, 43, 0
8, 249900, Note_on_c, 6, 43, 119
8, 249930, Note_on_c, 6, 43, 0
8, 249930, Note_on_c, 6, 43, 123
8, 249960, Note_on_c, 6, 43, 0
8, 249960, Note_on_c, 6, 43, 119
8, 249990, Note_on_c, 6, 43, 0
8, 249990, Note_on_c, 6, 43, 119
8, 250020, Note_on_c, 6, 43, 0
8, 250020, Note_on_c, 6, 43, 117
8, 250050, Note_on_c, 6, 43, 0
8, 250050, Note_on_c, 6, 43, 123
8, 250080, Note_on_c, 6, 43, 0
8, 250080, Note_on_c, 6, 48, 125
8, 250140, Note_on_c, 6, 48, 0
8, 250200, Note_on_c, 6, 43, 119
8, 250260, Note_on_c, 6, 43, 0
8, 250320, Note_on_c, 6, 48, 125
8, 250380, Note_on_c, 6, 48, 0
8, 250440, Note_on_c, 6, 43, 125
8, 250500, Note_on_c, 6, 43, 0
8, 250560, Note_on_c, 6, 48, 127
8, 250800, Note_on_c, 6, 48, 0
8, 282600, Note_on_c, 6, 48, 101
8, 282660, Note_on_c, 6, 48, 0
8, 282660, Note_on_c, 6, 48, 104
8, 282720, Note_on_c, 6, 48, 0
8, 282720, Note_on_c, 6, 43, 99
8, 282780, Note_on_c, 6, 43, 0
8, 282780, Note_on_c, 6, 43, 99
8, 282840, Note_on_c, 6, 43, 0
8, 282840, Note_on_c, 6, 43, 99
8, 282870, Note_on_c, 6, 43, 0
8, 282870, Note_on_c, 6, 43, 99
8, 282900, Note_on_c, 6, 43, 0
8, 282900, Note_on_c, 6, 43, 99
8, 282930, Note_on_c, 6, 43, 0
8, 282930, Note_on_c, 6, 43, 99
8, 282960, Note_on_c, 6, 43, 0
8, 282960, Note_on_c, 6, 43, 104
8, 282990, Note_on_c, 6, 43, 0
8, 282990, Note_on_c, 6, 43, 101
8, 283020, Note_on_c, 6, 43, 0
8, 283020, Note_on_c, 6, 43, 99
8, 283050, Note_on_c, 6, 43, 0
8, 283050, Note_on_c, 6, 43, 95
8, 283080, Note_on_c, 6, 43, 0
8, 283080, Note_on_c, 6, 43, 98
8, 283110, Note_on_c, 6, 43, 0
8, 283110, Note_on_c, 6, 43, 98
8, 283140, Note_on_c, 6, 43, 0
8, 283140, Note_on_c, 6, 43, 99
8, 283170, Note_on_c, 6, 43, 0
8, 283170, Note_on_c, 6, 43, 99
8, 283200, Note_on_c, 6, 43, 0
8, 283200, Note_on_c, 6, 43, 95
8, 283230, Note_on_c, 6, 43, 0
8, 283230, Note_on_c, 6, 43, 99
8, 283260, Note_on_c, 6, 43, 0
8, 283260, Note_on_c, 6, 43, 99
8, 283290, Note_on_c, 6, 43, 0
8, 283290, Note_on_c, 6, 43, 98
8, 283320, Note_on_c, 6, 43, 0
8, 283320, Note_on_c, 6, 43, 99
8, 283350, Note_on_c, 6, 43, 0
8, 283350, Note_on_c, 6, 43, 99
8, 283380, Note_on_c, 6, 43, 0
8, 283380, Note_on_c, 6, 43, 104
8, 283410, Note_on_c, 6, 43, 0
8, 283410, Note_on_c, 6, 43, 104
8, 283440, Note_on_c, 6, 43, 0
8, 283440, Note_on_c, 6, 43, 101
8, 283470, Note_on_c, 6, 43, 0
8, 283470, Note_on_c, 6, 43, 99
8, 283500, Note_on_c, 6, 43, 0
8, 283500, Note_on_c, 6, 43, 98
8, 283530, Note_on_c, 6, 43, 0
8, 283530, Note_on_c, 6, 43, 99
8, 283560, Note_on_c, 6, 43, 0
8, 283560, Note_on_c, 6, 43, 99
8, 283590, Note_on_c, 6, 43, 0
8, 283590, Note_on_c, 6, 43, 99
8, 283620, Note_on_c, 6, 43, 0
8, 283620, Note_on_c, 6, 43, 99
8, 283650, Note_on_c, 6, 43, 0
8, 283650, Note_on_c, 6, 43, 104
8, 283680, Note_on_c, 6, 43, 0
8, 283680, Note_on_c, 6, 48, 101
8, 283740, Note_on_c, 6, 48, 0
8, 283740, Note_on_c, 6, 48, 99
8, 283800, Note_on_c, 6, 48, 0
8, 283800, Note_on_c, 6, 43, 101
8, 283860, Note_on_c, 6, 43, 0
8, 283860, Note_on_c, 6, 43, 104
8, 283920, Note_on_c, 6, 43, 0
8, 283920, Note_on_c, 6, 48, 101
8, 283980, Note_on_c, 6, 48, 0
8, 283980, Note_on_c, 6, 48, 105
8, 284040, Note_on_c, 6, 48, 0
8, 284040, Note_on_c, 6, 43, 101
8, 284100, Note_on_c, 6, 43, 0
8, 284100, Note_on_c, 6, 43, 104
8, 284160, Note_on_c, 6, 43, 0
8, 284160, Note_on_c, 6, 48, 99
8, 284220, Note_on_c, 6, 48, 0
8, 284220, Note_on_c, 6, 48, 101
8, 284280, Note_on_c, 6, 48, 0
8, 284280, Note_on_c, 6, 43, 99
8, 284340, Note_on_c, 6, 43, 0
8, 284340, Note_on_c, 6, 43, 101
8, 284400, Note_on_c, 6, 43, 0
8, 284400, Note_on_c, 6, 48, 104
8, 284460, Note_on_c, 6, 48, 0
8, 284460, Note_on_c, 6, 48, 101
8, 284520, Note_on_c, 6, 48, 0
8, 284520, Note_on_c, 6, 43, 105
8, 284580, Note_on_c, 6, 43, 0
8, 284580, Note_on_c, 6, 43, 104
8, 284640, Note_on_c, 6, 43, 0
8, 284640, Note_on_c, 6, 48, 105
8, 284880, Note_on_c, 6, 48, 0
8, 284880, Note_on_c, 6, 48, 105
8, 285120, Note_on_c, 6, 48, 0
8, 285120, Note_on_c, 6, 48, 110
8, 285360, Note_on_c, 6, 48, 0
8, 285360, End_track
9, 0, Start_track
9, 0, MIDI_port, 0
9, 0, Title_t, "Piano"
9, 0, Program_c, 7, 0
9, 0, Control_c, 7, 7, 124
9, 0, Control_c, 7, 10, 64
9, 0, Control_c, 7, 93, 0
9, 0, Control_c, 7, 91, 66
9, 360, Note_on_c, 7, 76, 88
9, 360, Note_on_c, 7, 72, 79
9, 360, Note_on_c, 7, 67, 80
9, 360, Note_on_c, 7, 60, 88
9, 480, Note_on_c, 7, 60, 0
9, 480, Note_on_c, 7, 76, 0
9, 480, Note_on_c, 7, 72, 0
9, 480, Note_on_c, 7, 67, 0
9, 480, Note_on_c, 7, 76, 92
9, 480, Note_on_c, 7, 72, 80
9, 480, Note_on_c, 7, 67, 95
9, 480, Note_on_c, 7, 60, 99
9, 540, Note_on_c, 7, 67, 0
9, 540, Note_on_c, 7, 76, 0
9, 540, Note_on_c, 7, 72, 0
9, 540, Note_on_c, 7, 74, 97
9, 540, Note_on_c, 7, 67, 80
9, 540, Note_on_c, 7, 65, 95
9, 600, Note_on_c, 7, 65, 0
9, 600, Note_on_c, 7, 60, 0
9, 600, Note_on_c, 7, 74, 0
9, 600, Note_on_c, 7, 67, 0
9, 600, Note_on_c, 7, 72, 88
9, 600, Note_on_c, 7, 64, 104
9, 600, Note_on_c, 7, 64, 99
9, 600, Note_on_c, 7, 60, 98
9, 660, Note_on_c, 7, 60, 0
9, 660, Note_on_c, 7, 72, 0
9, 660, Note_on_c, 7, 64, 0
9, 660, Note_on_c, 7, 64, 0
9, 720, Note_on_c, 7, 72, 90
9, 720, Note_on_c, 7, 64, 101
9, 720, Note_on_c, 7, 64, 97
9, 720, Note_on_c, 7, 60, 95
9, 780, Note_on_c, 7, 60, 0
9, 780, Note_on_c, 7, 72, 0
9, 780, Note_on_c, 7, 64, 0
9, 780, Note_on_c, 7, 64, 0
9, 840, Note_on_c, 7, 76, 95
9, 840, Note_on_c, 7, 72, 89
9, 840, Note_on_c, 7, 67, 99
9, 840, Note_on_c, 7, 60, 95
9, 900, Note_on_c, 7, 60, 0
9, 900, Note_on_c, 7, 76, 0
9, 900, Note_on_c, 7, 72, 0
9, 900, Note_on_c, 7, 67, 0
9, 960, Note_on_c, 7, 76, 99
9, 960, Note_on_c, 7, 72, 79
9, 960, Note_on_c, 7, 67, 95
9, 960, Note_on_c, 7, 60, 99
9, 1020, Note_on_c, 7, 67, 0
9, 1020, Note_on_c, 7, 76, 0
9, 1020, Note_on_c, 7, 72, 0
9, 1020, Note_on_c, 7, 74, 99
9, 1020, Note_on_c, 7, 67, 89
9, 1020, Note_on_c, 7, 65, 95
9, 1080, Note_on_c, 7, 65, 0
9, 1080, Note_on_c, 7, 60, 0
9, 1080, Note_on_c, 7, 74, 0
9, 1080, Note_on_c, 7, 67, 0
9, 1080, Note_on_c, 7, 72, 73
9, 1080, Note_on_c, 7, 64, 104
9, 1080, Note_on_c, 7, 64, 94
9, 1080, Note_on_c, 7, 60, 99
9, 1140, Note_on_c, 7, 60, 0
9, 1140, Note_on_c, 7, 72, 0
9, 1140, Note_on_c, 7, 64, 0
9, 1140, Note_on_c, 7, 64, 0
9, 1200, Note_on_c, 7, 72, 78
9, 1200, Note_on_c, 7, 64, 99
9, 1200, Note_on_c, 7, 64, 95
9, 1200, Note_on_c, 7, 60, 95
9, 1260, Note_on_c, 7, 60, 0
9, 1260, Note_on_c, 7, 72, 0
9, 1260, Note_on_c, 7, 64, 0
9, 1260, Note_on_c, 7, 64, 0
9, 1320, Note_on_c, 7, 76, 99
9, 1320, Note_on_c, 7, 72, 89
9, 1320, Note_on_c, 7, 67, 93
9, 1320, Note_on_c, 7, 60, 99
9, 1380, Note_on_c, 7, 60, 0
9, 1380, Note_on_c, 7, 76, 0
9, 1380, Note_on_c, 7, 72, 0
9, 1380, Note_on_c, 7, 67, 0
9, 1440, Note_on_c, 7, 76, 95
9, 1440, Note_on_c, 7, 72, 93
9, 1440, Note_on_c, 7, 67, 94
9, 1440, Note_on_c, 7, 60, 98
9, 1500, Note_on_c, 7, 67, 0
9, 1500, Note_on_c, 7, 76, 0
9, 1500, Note_on_c, 7, 72, 0
9, 1500, Note_on_c, 7, 74, 99
9, 1500, Note_on_c, 7, 67, 99
9, 1500, Note_on_c, 7, 65, 98
9, 1560, Note_on_c, 7, 65, 0
9, 1560, Note_on_c, 7, 60, 0
9, 1560, Note_on_c, 7, 74, 0
9, 1560, Note_on_c, 7, 67, 0
9, 1560, Note_on_c, 7, 72, 82
9, 1560, Note_on_c, 7, 64, 105
9, 1560, Note_on_c, 7, 64, 99
9, 1560, Note_on_c, 7, 60, 99
9, 1620, Note_on_c, 7, 64, 0
9, 1620, Note_on_c, 7, 72, 0
9, 1620, Note_on_c, 7, 64, 0
9, 1680, Note_on_c, 7, 60, 0
9, 1680, Note_on_c, 7, 72, 92
9, 1680, Note_on_c, 7, 65, 99
9, 1680, Note_on_c, 7, 62, 92
9, 1680, Note_on_c, 7, 48, 99
9, 1740, Note_on_c, 7, 48, 0
9, 1740, Note_on_c, 7, 72, 0
9, 1740, Note_on_c, 7, 71, 104
9, 1800, Note_on_c, 7, 71, 0
9, 1800, Note_on_c, 7, 62, 0
9, 1800, Note_on_c, 7, 65, 0
9, 1800, Note_on_c, 7, 69, 94
9, 1800, Note_on_c, 7, 64, 99
9, 1800, Note_on_c, 7, 60, 94
9, 1800, Note_on_c, 7, 48, 99
9, 1860, Note_on_c, 7, 48, 0
9, 1860, Note_on_c, 7, 69, 0
9, 1860, Note_on_c, 7, 64, 0
9, 1860, Note_on_c, 7, 60, 0
9, 1890, Note_on_c, 7, 69, 104
9, 1920, Note_on_c, 7, 69, 0
9, 1920, Note_on_c, 7, 67, 92
9, 1920, Note_on_c, 7, 62, 99
9, 1920, Note_on_c, 7, 59, 92
9, 1920, Note_on_c, 7, 50, 104
9, 1980, Note_on_c, 7, 50, 0
9, 1980, Note_on_c, 7, 67, 0
9, 1980, Note_on_c, 7, 62, 0
9, 1980, Note_on_c, 7, 59, 0
9, 2040, Note_on_c, 7, 67, 94
9, 2040, Note_on_c, 7, 62, 97
9, 2040, Note_on_c, 7, 59, 88
9, 2040, Note_on_c, 7, 50, 105
9, 2100, Note_on_c, 7, 50, 0
9, 2100, Note_on_c, 7, 67, 0
9, 2100, Note_on_c, 7, 62, 0
9, 2100, Note_on_c, 7, 59, 0
9, 2160, Note_on_c, 7, 69, 93
9, 2160, Note_on_c, 7, 62, 92
9, 2160, Note_on_c, 7, 60, 85
9, 2160, Note_on_c, 7, 38, 94
9, 2220, Note_on_c, 7, 38, 0
9, 2220, Note_on_c, 7, 69, 0
9, 2220, Note_on_c, 7, 62, 0
9, 2220, Note_on_c, 7, 60, 0
9, 2280, Note_on_c, 7, 66, 92
9, 2280, Note_on_c, 7, 62, 98
9, 2280, Note_on_c, 7, 60, 94
9, 2280, Note_on_c, 7, 38, 98
9, 2340, Note_on_c, 7, 38, 0
9, 2340, Note_on_c, 7, 66, 0
9, 2340, Note_on_c, 7, 62, 0
9, 2340, Note_on_c, 7, 60, 0
9, 2400, Note_on_c, 7, 67, 99
9, 2400, Note_on_c, 7, 62, 94
9, 2400, Note_on_c, 7, 59, 92
9, 2400, Note_on_c, 7, 43, 94
9, 2460, Note_on_c, 7, 43, 0
9, 2460, Note_on_c, 7, 67, 0
9, 2460, Note_on_c, 7, 62, 0
9, 2460, Note_on_c, 7, 59, 0
9, 2520, Note_on_c, 7, 67, 95
9, 2520, Note_on_c, 7, 62, 93
9, 2520, Note_on_c, 7, 59, 90
9, 2520, Note_on_c, 7, 47, 101
9, 2580, Note_on_c, 7, 47, 0
9, 2580, Note_on_c, 7, 67, 0
9, 2580, Note_on_c, 7, 62, 0
9, 2580, Note_on_c, 7, 59, 0
9, 2640, Note_on_c, 7, 69, 98
9, 2640, Note_on_c, 7, 62, 94
9, 2640, Note_on_c, 7, 60, 90
9, 2640, Note_on_c, 7, 50, 105
9, 2700, Note_on_c, 7, 50, 0
9, 2700, Note_on_c, 7, 69, 0
9, 2700, Note_on_c, 7, 62, 0
9, 2700, Note_on_c, 7, 60, 0
9, 2760, Note_on_c, 7, 66, 94
9, 2760, Note_on_c, 7, 62, 94
9, 2760, Note_on_c, 7, 60, 92
9, 2760, Note_on_c, 7, 38, 98
9, 2820, Note_on_c, 7, 38, 0
9, 2820, Note_on_c, 7, 66, 0
9, 2820, Note_on_c, 7, 62, 0
9, 2820, Note_on_c, 7, 60, 0
9, 2880, Note_on_c, 7, 67, 98
9, 2880, Note_on_c, 7, 62, 93
9, 2880, Note_on_c, 7, 59, 89
9, 2880, Note_on_c, 7, 43, 101
9, 2940, Note_on_c, 7, 43, 0
9, 3000, Note_on_c, 7, 55, 93
9, 3060, Note_on_c, 7, 55, 0
9, 3120, Note_on_c, 7, 43, 105
9, 3180, Note_on_c, 7, 43, 0
9, 3240, Note_on_c, 7, 67, 0
9, 3240, Note_on_c, 7, 62, 0
9, 3240, Note_on_c, 7, 59, 0
9, 3240, Note_on_c, 7, 67, 97
9, 3240, Note_on_c, 7, 59, 105
9, 3300, Note_on_c, 7, 59, 0
9, 3300, Note_on_c, 7, 67, 0
9, 3360, Note_on_c, 7, 67, 93
9, 3360, Note_on_c, 7, 59, 104
9, 3420, Note_on_c, 7, 59, 0
9, 3420, Note_on_c, 7, 67, 0
9, 3420, Note_on_c, 7, 69, 99
9, 3420, Note_on_c, 7, 62, 99
9, 3480, Note_on_c, 7, 62, 0
9, 3480, Note_on_c, 7, 69, 0
9, 3480, Note_on_c, 7, 71, 95
9, 3480, Note_on_c, 7, 67, 93
9, 3540, Note_on_c, 7, 67, 0
9, 3540, Note_on_c, 7, 71, 0
9, 3600, Note_on_c, 7, 71, 95
9, 3600, Note_on_c, 7, 67, 93
9, 3660, Note_on_c, 7, 67, 0
9, 3660, Note_on_c, 7, 71, 0
9, 3660, Note_on_c, 7, 72, 88
9, 3660, Note_on_c, 7, 69, 94
9, 3720, Note_on_c, 7, 69, 0
9, 3720, Note_on_c, 7, 72, 0
9, 3720, Note_on_c, 7, 74, 98
9, 3720, Note_on_c, 7, 71, 104
9, 3780, Note_on_c, 7, 71, 0
9, 3780, Note_on_c, 7, 74, 0
9, 3840, Note_on_c, 7, 74, 104
9, 3840, Note_on_c, 7, 71, 95
9, 3900, Note_on_c, 7, 43, 98
9, 3960, Note_on_c, 7, 43, 0
9, 3960, Note_on_c, 7, 42, 99
9, 4020, Note_on_c, 7, 42, 0
9, 4020, Note_on_c, 7, 43, 99
9, 4080, Note_on_c, 7, 43, 0
9, 4080, Note_on_c, 7, 31, 88
9, 4140, Note_on_c, 7, 31, 0
9, 4200, Note_on_c, 7, 71, 0
9, 4200, Note_on_c, 7, 74, 0
9, 4200, Note_on_c, 7, 71, 101
9, 4200, Note_on_c, 7, 67, 97
9, 4260, Note_on_c, 7, 67, 0
9, 4260, Note_on_c, 7, 71, 0
9, 4320, Note_on_c, 7, 71, 94
9, 4320, Note_on_c, 7, 67, 92
9, 4380, Note_on_c, 7, 67, 0
9, 4380, Note_on_c, 7, 71, 0
9, 4380, Note_on_c, 7, 72, 79
9, 4380, Note_on_c, 7, 69, 94
9, 4440, Note_on_c, 7, 69, 0
9, 4440, Note_on_c, 7, 72, 0
9, 4440, Note_on_c, 7, 74, 99
9, 4440, Note_on_c, 7, 71, 97
9, 4500, Note_on_c, 7, 71, 0
9, 4500, Note_on_c, 7, 74, 0
9, 4560, Note_on_c, 7, 74, 104
9, 4560, Note_on_c, 7, 71, 94
9, 4620, Note_on_c, 7, 71, 0
9, 4620, Note_on_c, 7, 74, 0
9, 4620, Note_on_c, 7, 76, 98
9, 4620, Note_on_c, 7, 72, 83
9, 4680, Note_on_c, 7, 72, 0
9, 4680, Note_on_c, 7, 76, 0
9, 4680, Note_on_c, 7, 77, 94
9, 4680, Note_on_c, 7, 74, 99
9, 4740, Note_on_c, 7, 74, 0
9, 4740, Note_on_c, 7, 77, 0
9, 4800, Note_on_c, 7, 77, 101
9, 4800, Note_on_c, 7, 74, 82
9, 4860, Note_on_c, 7, 55, 99
9, 4920, Note_on_c, 7, 55, 0
9, 4920, Note_on_c, 7, 54, 95
9, 4980, Note_on_c, 7, 54, 0
9, 4980, Note_on_c, 7, 55, 104
9, 5040, Note_on_c, 7, 55, 0
9, 5040, Note_on_c, 7, 43, 98
9, 5100, Note_on_c, 7, 43, 0
9, 5160, Note_on_c, 7, 74, 0
9, 5160, Note_on_c, 7, 77, 0
9, 5160, Note_on_c, 7, 81, 101
9, 5160, Note_on_c, 7, 77, 97
9, 5220, Note_on_c, 7, 77, 0
9, 5220, Note_on_c, 7, 81, 0
9, 5280, Note_on_c, 7, 81, 94
9, 5280, Note_on_c, 7, 77, 99
9, 5340, Note_on_c, 7, 77, 0
9, 5340, Note_on_c, 7, 81, 0
9, 5340, Note_on_c, 7, 79, 97
9, 5340, Note_on_c, 7, 76, 105
9, 5340, Note_on_c, 7, 67, 94
9, 5400, Note_on_c, 7, 67, 0
9, 5400, Note_on_c, 7, 76, 0
9, 5400, Note_on_c, 7, 79, 0
9, 5400, Note_on_c, 7, 77, 94
9, 5400, Note_on_c, 7, 74, 94
9, 5400, Note_on_c, 7, 66, 99
9, 5460, Note_on_c, 7, 66, 0
9, 5460, Note_on_c, 7, 74, 0
9, 5460, Note_on_c, 7, 77, 0
9, 5460, Note_on_c, 7, 67, 99
9, 5520, Note_on_c, 7, 67, 0
9, 5520, Note_on_c, 7, 77, 94
9, 5520, Note_on_c, 7, 74, 94
9, 5520, Note_on_c, 7, 55, 99
9, 5580, Note_on_c, 7, 55, 0
9, 5580, Note_on_c, 7, 74, 0
9, 5580, Note_on_c, 7, 77, 0
9, 5640, Note_on_c, 7, 81, 101
9, 5640, Note_on_c, 7, 77, 92
9, 5700, Note_on_c, 7, 77, 0
9, 5700, Note_on_c, 7, 81, 0
9, 5760, Note_on_c, 7, 81, 94
9, 5760, Note_on_c, 7, 77, 95
9, 5820, Note_on_c, 7, 77, 0
9, 5820, Note_on_c, 7, 81, 0
9, 5820, Note_on_c, 7, 79, 93
9, 5820, Note_on_c, 7, 76, 104
9, 5820, Note_on_c, 7, 55, 98
9, 5880, Note_on_c, 7, 55, 0
9, 5880, Note_on_c, 7, 76, 0
9, 5880, Note_on_c, 7, 79, 0
9, 5880, Note_on_c, 7, 77, 95
9, 5880, Note_on_c, 7, 74, 99
9, 5880, Note_on_c, 7, 54, 94
9, 5940, Note_on_c, 7, 54, 0
9, 5940, Note_on_c, 7, 74, 0
9, 5940, Note_on_c, 7, 77, 0
9, 5940, Note_on_c, 7, 55, 99
9, 6000, Note_on_c, 7, 55, 0
9, 6000, Note_on_c, 7, 77, 98
9, 6000, Note_on_c, 7, 74, 99
9, 6000, Note_on_c, 7, 43, 101
9, 6060, Note_on_c, 7, 43, 0
9, 6060, Note_on_c, 7, 74, 0
9, 6060, Note_on_c, 7, 77, 0
9, 6120, Note_on_c, 7, 81, 99
9, 6120, Note_on_c, 7, 77, 94
9, 6180, Note_on_c, 7, 77, 0
9, 6180, Note_on_c, 7, 81, 0
9, 6240, Note_on_c, 7, 81, 99
9, 6240, Note_on_c, 7, 77, 92
9, 6300, Note_on_c, 7, 77, 0
9, 6300, Note_on_c, 7, 81, 0
9, 6300, Note_on_c, 7, 79, 93
9, 6300, Note_on_c, 7, 76, 99
9, 6360, Note_on_c, 7, 76, 0
9, 6360, Note_on_c, 7, 79, 0
9, 6360, Note_on_c, 7, 77, 94
9, 6360, Note_on_c, 7, 74, 98
9, 6360, Note_on_c, 7, 68, 98
9, 6420, Note_on_c, 7, 68, 0
9, 6420, Note_on_c, 7, 74, 0
9, 6420, Note_on_c, 7, 77, 0
9, 6480, Note_on_c, 7, 77, 97
9, 6480, Note_on_c, 7, 74, 95
9, 6480, Note_on_c, 7, 69, 104
9, 6540, Note_on_c, 7, 69, 0
9, 6540, Note_on_c, 7, 74, 0
9, 6540, Note_on_c, 7, 77, 0
9, 6540, Note_on_c, 7, 76, 104
9, 6540, Note_on_c, 7, 72, 80
9, 6600, Note_on_c, 7, 72, 0
9, 6600, Note_on_c, 7, 76, 0
9, 6600, Note_on_c, 7, 74, 98
9, 6600, Note_on_c, 7, 69, 104
9, 6600, Note_on_c, 7, 65, 104
9, 6660, Note_on_c, 7, 65, 0
9, 6660, Note_on_c, 7, 69, 0
9, 6660, Note_on_c, 7, 74, 0
9, 6690, Note_on_c, 7, 74, 107
9, 6720, Note_on_c, 7, 74, 0
9, 6720, Note_on_c, 7, 72, 92
9, 6720, Note_on_c, 7, 67, 90
9, 6720, Note_on_c, 7, 64, 97
9, 6720, Note_on_c, 7, 55, 94
9, 6780, Note_on_c, 7, 55, 0
9, 6780, Note_on_c, 7, 72, 0
9, 6780, Note_on_c, 7, 67, 0
9, 6780, Note_on_c, 7, 64, 0
9, 6840, Note_on_c, 7, 72, 92
9, 6840, Note_on_c, 7, 67, 92
9, 6840, Note_on_c, 7, 64, 94
9, 6840, Note_on_c, 7, 55, 97
9, 6900, Note_on_c, 7, 55, 0
9, 6900, Note_on_c, 7, 72, 0
9, 6900, Note_on_c, 7, 67, 0
9, 6900, Note_on_c, 7, 64, 0
9, 6960, Note_on_c, 7, 74, 99
9, 6960, Note_on_c, 7, 67, 93
9, 6960, Note_on_c, 7, 65, 94
9, 6960, Note_on_c, 7, 55, 94
9, 7020, Note_on_c, 7, 55, 0
9, 7020, Note_on_c, 7, 74, 0
9, 7020, Note_on_c, 7, 67, 0
9, 7020, Note_on_c, 7, 65, 0
9, 7080, Note_on_c, 7, 71, 95
9, 7080, Note_on_c, 7, 67, 90
9, 7080, Note_on_c, 7, 62, 83
9, 7080, Note_on_c, 7, 55, 93
9, 7140, Note_on_c, 7, 55, 0
9, 7140, Note_on_c, 7, 71, 0
9, 7140, Note_on_c, 7, 67, 0
9, 7140, Note_on_c, 7, 62, 0
9, 7200, Note_on_c, 7, 72, 85
9, 7200, Note_on_c, 7, 64, 99
9, 7200, Note_on_c, 7, 60, 92
9, 7260, Note_on_c, 7, 72, 0
9, 7260, Note_on_c, 7, 74, 99
9, 7320, Note_on_c, 7, 74, 0
9, 7320, Note_on_c, 7, 76, 104
9, 7380, Note_on_c, 7, 76, 0
9, 7380, Note_on_c, 7, 77, 101
9, 7440, Note_on_c, 7, 77, 0
9, 7440, Note_on_c, 7, 60, 0
9, 7440, Note_on_c, 7, 64, 0
9, 7440, Note_on_c, 7, 79, 97
9, 7500, Note_on_c, 7, 79, 0
9, 7500, Note_on_c, 7, 81, 99
9, 7560, Note_on_c, 7, 81, 0
9, 7560, Note_on_c, 7, 83, 99
9, 7620, Note_on_c, 7, 83, 0
9, 7620, Note_on_c, 7, 84, 95
9, 7680, Note_on_c, 7, 84, 0
9, 7680, Note_on_c, 7, 86, 99
9, 7680, Note_on_c, 7, 77, 88
9, 7680, Note_on_c, 7, 74, 94
9, 7680, Note_on_c, 7, 67, 81
9, 7740, Note_on_c, 7, 67, 0
9, 7740, Note_on_c, 7, 86, 0
9, 7740, Note_on_c, 7, 77, 0
9, 7740, Note_on_c, 7, 74, 0
9, 7800, Note_on_c, 7, 88, 99
9, 7800, Note_on_c, 7, 76, 93
9, 7800, Note_on_c, 7, 72, 88
9, 7800, Note_on_c, 7, 67, 89
9, 7860, Note_on_c, 7, 67, 0
9, 7860, Note_on_c, 7, 88, 0
9, 7860, Note_on_c, 7, 76, 0
9, 7860, Note_on_c, 7, 72, 0
9, 7920, Note_on_c, 7, 89, 98
9, 7920, Note_on_c, 7, 74, 93
9, 7920, Note_on_c, 7, 71, 93
9, 7920, Note_on_c, 7, 67, 97
9, 7980, Note_on_c, 7, 67, 0
9, 7980, Note_on_c, 7, 89, 0
9, 7980, Note_on_c, 7, 74, 0
9, 7980, Note_on_c, 7, 71, 0
9, 8040, Note_on_c, 7, 86, 105
9, 8040, Note_on_c, 7, 77, 94
9, 8040, Note_on_c, 7, 74, 99
9, 8040, Note_on_c, 7, 67, 92
9, 8100, Note_on_c, 7, 67, 0
9, 8100, Note_on_c, 7, 86, 0
9, 8100, Note_on_c, 7, 77, 0
9, 8100, Note_on_c, 7, 74, 0
9, 8160, Note_on_c, 7, 84, 99
9, 8160, Note_on_c, 7, 76, 99
9, 8160, Note_on_c, 7, 72, 84
9, 8220, Note_on_c, 7, 84, 0
9, 8220, Note_on_c, 7, 83, 99
9, 8280, Note_on_c, 7, 83, 0
9, 8280, Note_on_c, 7, 81, 104
9, 8340, Note_on_c, 7, 81, 0
9, 8340, Note_on_c, 7, 79, 99
9, 8400, Note_on_c, 7, 79, 0
9, 8400, Note_on_c, 7, 72, 0
9, 8400, Note_on_c, 7, 76, 0
9, 8400, Note_on_c, 7, 77, 94
9, 8460, Note_on_c, 7, 77, 0
9, 8460, Note_on_c, 7, 76, 104
9, 8520, Note_on_c, 7, 76, 0
9, 8520, Note_on_c, 7, 74, 104
9, 8580, Note_on_c, 7, 74, 0
9, 8580, Note_on_c, 7, 72, 90
9, 8640, Note_on_c, 7, 72, 0
9, 8640, Note_on_c, 7, 74, 107
9, 8640, Note_on_c, 7, 65, 92
9, 8640, Note_on_c, 7, 62, 99
9, 8640, Note_on_c, 7, 55, 94
9, 8700, Note_on_c, 7, 55, 0
9, 8700, Note_on_c, 7, 74, 0
9, 8700, Note_on_c, 7, 65, 0
9, 8700, Note_on_c, 7, 62, 0
9, 8760, Note_on_c, 7, 76, 105
9, 8760, Note_on_c, 7, 64, 92
9, 8760, Note_on_c, 7, 60, 94
9, 8760, Note_on_c, 7, 55, 97
9, 8820, Note_on_c, 7, 55, 0
9, 8820, Note_on_c, 7, 76, 0
9, 8820, Note_on_c, 7, 64, 0
9, 8820, Note_on_c, 7, 60, 0
9, 8880, Note_on_c, 7, 77, 99
9, 8880, Note_on_c, 7, 62, 88
9, 8880, Note_on_c, 7, 59, 99
9, 8880, Note_on_c, 7, 55, 93
9, 8940, Note_on_c, 7, 55, 0
9, 8940, Note_on_c, 7, 77, 0
9, 8940, Note_on_c, 7, 62, 0
9, 8940, Note_on_c, 7, 59, 0
9, 9000, Note_on_c, 7, 71, 98
9, 9000, Note_on_c, 7, 65, 94
9, 9000, Note_on_c, 7, 55, 97
9, 9000, Note_on_c, 7, 43, 94
9, 9060, Note_on_c, 7, 43, 0
9, 9060, Note_on_c, 7, 71, 0
9, 9060, Note_on_c, 7, 65, 0
9, 9060, Note_on_c, 7, 55, 0
9, 9120, Note_on_c, 7, 72, 94
9, 9120, Note_on_c, 7, 64, 97
9, 9120, Note_on_c, 7, 55, 84
9, 9120, Note_on_c, 7, 48, 94
9, 9180, Note_on_c, 7, 48, 0
9, 9180, Note_on_c, 7, 72, 0
9, 9180, Note_on_c, 7, 64, 0
9, 9180, Note_on_c, 7, 55, 0
9, 9240, Note_on_c, 7, 74, 98
9, 9240, Note_on_c, 7, 65, 92
9, 9240, Note_on_c, 7, 55, 93
9, 9240, Note_on_c, 7, 43, 95
9, 9300, Note_on_c, 7, 43, 0
9, 9300, Note_on_c, 7, 74, 0
9, 9300, Note_on_c, 7, 65, 0
9, 9300, Note_on_c, 7, 55, 0
9, 9360, Note_on_c, 7, 72, 94
9, 9360, Note_on_c, 7, 64, 94
9, 9360, Note_on_c, 7, 55, 92
9, 9360, Note_on_c, 7, 48, 99
9, 9420, Note_on_c, 7, 48, 0
9, 9420, Note_on_c, 7, 72, 0
9, 9420, Note_on_c, 7, 64, 0
9, 9420, Note_on_c, 7, 55, 0
9, 9480, Note_on_c, 7, 74, 99
9, 9480, Note_on_c, 7, 65, 93
9, 9480, Note_on_c, 7, 55, 97
9, 9480, Note_on_c, 7, 43, 95
9, 9540, Note_on_c, 7, 43, 0
9, 9540, Note_on_c, 7, 74, 0
9, 9540, Note_on_c, 7, 65, 0
9, 9540, Note_on_c, 7, 55, 0
9, 9600, Note_on_c, 7, 72, 92
9, 9600, Note_on_c, 7, 64, 97
9, 9600, Note_on_c, 7, 55, 84
9, 9600, Note_on_c, 7, 48, 93
9, 9840, Note_on_c, 7, 48, 0
9, 9840, Note_on_c, 7, 72, 0
9, 9840, Note_on_c, 7, 64, 0
9, 9840, Note_on_c, 7, 55, 0
9, 21180, Note_on_c, 7, 84, 95
9, 21240, Note_on_c, 7, 84, 0
9, 21240, Note_on_c, 7, 83, 99
9, 21300, Note_on_c, 7, 83, 0
9, 21300, Note_on_c, 7, 84, 95
9, 21360, Note_on_c, 7, 84, 0
9, 21360, Note_on_c, 7, 88, 104
9, 21420, Note_on_c, 7, 88, 0
9, 21420, Note_on_c, 7, 84, 93
9, 21480, Note_on_c, 7, 84, 0
9, 21480, Note_on_c, 7, 81, 101
9, 21540, Note_on_c, 7, 81, 0
9, 21540, Note_on_c, 7, 78, 94
9, 21600, Note_on_c, 7, 78, 0
9, 21600, Note_on_c, 7, 79, 94
9, 21600, Note_on_c, 7, 67, 97
9, 21660, Note_on_c, 7, 67, 0
9, 21660, Note_on_c, 7, 79, 0
9, 21660, Note_on_c, 7, 78, 88
9, 21660, Note_on_c, 7, 66, 97
9, 21720, Note_on_c, 7, 66, 0
9, 21720, Note_on_c, 7, 78, 0
9, 21720, Note_on_c, 7, 79, 95
9, 21720, Note_on_c, 7, 67, 94
9, 21780, Note_on_c, 7, 67, 0
9, 21780, Note_on_c, 7, 79, 0
9, 21780, Note_on_c, 7, 81, 94
9, 21780, Note_on_c, 7, 69, 99
9, 21840, Note_on_c, 7, 69, 0
9, 21840, Note_on_c, 7, 81, 0
9, 21840, Note_on_c, 7, 79, 93
9, 21840, Note_on_c, 7, 67, 97
9, 21900, Note_on_c, 7, 67, 0
9, 21900, Note_on_c, 7, 79, 0
9, 21900, Note_on_c, 7, 77, 97
9, 21900, Note_on_c, 7, 65, 93
9, 21960, Note_on_c, 7, 65, 0
9, 21960, Note_on_c, 7, 77, 0
9, 21960, Note_on_c, 7, 76, 95
9, 21960, Note_on_c, 7, 64, 94
9, 22020, Note_on_c, 7, 64, 0
9, 22020, Note_on_c, 7, 76, 0
9, 22020, Note_on_c, 7, 62, 92
9, 22020, Note_on_c, 7, 74, 95
9, 22080, Note_on_c, 7, 74, 0
9, 22080, Note_on_c, 7, 62, 0
9, 22080, Note_on_c, 7, 72, 97
9, 22080, Note_on_c, 7, 60, 89
9, 22110, Note_on_c, 7, 72, 0
9, 22140, Note_on_c, 7, 72, 99
9, 22200, Note_on_c, 7, 72, 0
9, 22200, Note_on_c, 7, 60, 0
9, 22200, Note_on_c, 7, 71, 99
9, 22260, Note_on_c, 7, 71, 0
9, 22260, Note_on_c, 7, 72, 97
9, 22320, Note_on_c, 7, 72, 0
9, 22320, Note_on_c, 7, 76, 105
9, 22380, Note_on_c, 7, 76, 0
9, 22380, Note_on_c, 7, 72, 94
9, 22440, Note_on_c, 7, 72, 0
9, 22440, Note_on_c, 7, 69, 104
9, 22500, Note_on_c, 7, 69, 0
9, 22500, Note_on_c, 7, 66, 94
9, 22560, Note_on_c, 7, 66, 0
9, 22560, Note_on_c, 7, 67, 99
9, 22560, Note_on_c, 7, 55, 99
9, 22620, Note_on_c, 7, 55, 0
9, 22620, Note_on_c, 7, 67, 0
9, 22620, Note_on_c, 7, 66, 97
9, 22620, Note_on_c, 7, 54, 94
9, 22680, Note_on_c, 7, 54, 0
9, 22680, Note_on_c, 7, 66, 0
9, 22680, Note_on_c, 7, 67, 99
9, 22680, Note_on_c, 7, 55, 94
9, 22740, Note_on_c, 7, 55, 0
9, 22740, Note_on_c, 7, 67, 0
9, 22740, Note_on_c, 7, 69, 101
9, 22740, Note_on_c, 7, 57, 99
9, 22800, Note_on_c, 7, 57, 0
9, 22800, Note_on_c, 7, 69, 0
9, 22800, Note_on_c, 7, 67, 95
9, 22800, Note_on_c, 7, 55, 94
9, 22860, Note_on_c, 7, 55, 0
9, 22860, Note_on_c, 7, 67, 0
9, 22860, Note_on_c, 7, 65, 99
9, 22860, Note_on_c, 7, 53, 94
9, 22920, Note_on_c, 7, 53, 0
9, 22920, Note_on_c, 7, 65, 0
9, 22920, Note_on_c, 7, 64, 93
9, 22920, Note_on_c, 7, 52, 101
9, 22980, Note_on_c, 7, 52, 0
9, 22980, Note_on_c, 7, 64, 0
9, 22980, Note_on_c, 7, 50, 99
9, 22980, Note_on_c, 7, 62, 98
9, 23040, Note_on_c, 7, 62, 0
9, 23040, Note_on_c, 7, 50, 0
9, 23040, Note_on_c, 7, 60, 98
9, 23040, Note_on_c, 7, 48, 104
9, 23070, Note_on_c, 7, 60, 0
9, 23100, Note_on_c, 7, 81, 105
9, 23160, Note_on_c, 7, 81, 0
9, 23160, Note_on_c, 7, 48, 0
9, 23160, Note_on_c, 7, 80, 94
9, 23220, Note_on_c, 7, 80, 0
9, 23220, Note_on_c, 7, 81, 104
9, 23280, Note_on_c, 7, 81, 0
9, 23280, Note_on_c, 7, 84, 98
9, 23340, Note_on_c, 7, 84, 0
9, 23340, Note_on_c, 7, 81, 105
9, 23400, Note_on_c, 7, 81, 0
9, 23400, Note_on_c, 7, 77, 99
9, 23460, Note_on_c, 7, 77, 0
9, 23460, Note_on_c, 7, 75, 99
9, 23520, Note_on_c, 7, 75, 0
9, 23520, Note_on_c, 7, 76, 104
9, 23520, Note_on_c, 7, 64, 105
9, 23580, Note_on_c, 7, 64, 0
9, 23580, Note_on_c, 7, 76, 0
9, 23580, Note_on_c, 7, 75, 93
9, 23580, Note_on_c, 7, 63, 92
9, 23640, Note_on_c, 7, 63, 0
9, 23640, Note_on_c, 7, 75, 0
9, 23640, Note_on_c, 7, 76, 105
9, 23640, Note_on_c, 7, 64, 101
9, 23700, Note_on_c, 7, 64, 0
9, 23700, Note_on_c, 7, 76, 0
9, 23700, Note_on_c, 7, 77, 98
9, 23700, Note_on_c, 7, 65, 94
9, 23760, Note_on_c, 7, 65, 0
9, 23760, Note_on_c, 7, 77, 0
9, 23760, Note_on_c, 7, 76, 99
9, 23760, Note_on_c, 7, 64, 94
9, 23820, Note_on_c, 7, 64, 0
9, 23820, Note_on_c, 7, 76, 0
9, 23820, Note_on_c, 7, 74, 104
9, 23820, Note_on_c, 7, 62, 99
9, 23880, Note_on_c, 7, 62, 0
9, 23880, Note_on_c, 7, 74, 0
9, 23880, Note_on_c, 7, 72, 99
9, 23880, Note_on_c, 7, 60, 101
9, 23940, Note_on_c, 7, 60, 0
9, 23940, Note_on_c, 7, 72, 0
9, 23940, Note_on_c, 7, 59, 104
9, 23940, Note_on_c, 7, 71, 99
9, 24000, Note_on_c, 7, 71, 0
9, 24000, Note_on_c, 7, 59, 0
9, 24000, Note_on_c, 7, 69, 98
9, 24000, Note_on_c, 7, 57, 95
9, 24030, Note_on_c, 7, 69, 0
9, 24060, Note_on_c, 7, 69, 101
9, 24120, Note_on_c, 7, 69, 0
9, 24120, Note_on_c, 7, 57, 0
9, 24120, Note_on_c, 7, 68, 94
9, 24180, Note_on_c, 7, 68, 0
9, 24180, Note_on_c, 7, 69, 95
9, 24240, Note_on_c, 7, 69, 0
9, 24240, Note_on_c, 7, 72, 78
9, 24300, Note_on_c, 7, 72, 0
9, 24300, Note_on_c, 7, 69, 104
9, 24360, Note_on_c, 7, 69, 0
9, 24360, Note_on_c, 7, 65, 99
9, 24420, Note_on_c, 7, 65, 0
9, 24420, Note_on_c, 7, 63, 95
9, 24480, Note_on_c, 7, 63, 0
9, 24480, Note_on_c, 7, 64, 99
9, 24480, Note_on_c, 7, 52, 99
9, 24540, Note_on_c, 7, 52, 0
9, 24540, Note_on_c, 7, 64, 0
9, 24540, Note_on_c, 7, 63, 99
9, 24540, Note_on_c, 7, 51, 99
9, 24600, Note_on_c, 7, 51, 0
9, 24600, Note_on_c, 7, 63, 0
9, 24600, Note_on_c, 7, 64, 95
9, 24600, Note_on_c, 7, 52, 94
9, 24660, Note_on_c, 7, 52, 0
9, 24660, Note_on_c, 7, 64, 0
9, 24660, Note_on_c, 7, 65, 99
9, 24660, Note_on_c, 7, 53, 92
9, 24720, Note_on_c, 7, 53, 0
9, 24720, Note_on_c, 7, 65, 0
9, 24720, Note_on_c, 7, 64, 93
9, 24720, Note_on_c, 7, 52, 95
9, 24780, Note_on_c, 7, 52, 0
9, 24780, Note_on_c, 7, 64, 0
9, 24780, Note_on_c, 7, 62, 94
9, 24780, Note_on_c, 7, 50, 98
9, 24840, Note_on_c, 7, 50, 0
9, 24840, Note_on_c, 7, 62, 0
9, 24840, Note_on_c, 7, 60, 93
9, 24840, Note_on_c, 7, 48, 94
9, 24900, Note_on_c, 7, 48, 0
9, 24900, Note_on_c, 7, 60, 0
9, 24900, Note_on_c, 7, 47, 99
9, 24900, Note_on_c, 7, 59, 93
9, 24960, Note_on_c, 7, 59, 0
9, 24960, Note_on_c, 7, 47, 0
9, 24960, Note_on_c, 7, 57, 99
9, 25080, Note_on_c, 7, 57, 0
9, 25080, Note_on_c, 7, 45, 105
9, 25140, Note_on_c, 7, 45, 0
9, 25200, Note_on_c, 7, 72, 94
9, 25320, Note_on_c, 7, 72, 0
9, 25320, Note_on_c, 7, 43, 99
9, 25380, Note_on_c, 7, 43, 0
9, 25440, Note_on_c, 7, 69, 98
9, 25560, Note_on_c, 7, 69, 0
9, 25560, Note_on_c, 7, 42, 93
9, 25620, Note_on_c, 7, 42, 0
9, 25680, Note_on_c, 7, 84, 94
9, 25800, Note_on_c, 7, 84, 0
9, 25800, Note_on_c, 7, 40, 101
9, 25860, Note_on_c, 7, 40, 0
9, 25920, Note_on_c, 7, 57, 98
9, 25920, Note_on_c, 7, 38, 93
9, 25980, Note_on_c, 7, 57, 0
9, 25980, Note_on_c, 7, 66, 97
9, 26040, Note_on_c, 7, 66, 0
9, 26040, Note_on_c, 7, 60, 94
9, 26100, Note_on_c, 7, 60, 0
9, 26100, Note_on_c, 7, 72, 97
9, 26160, Note_on_c, 7, 72, 0
9, 26160, Note_on_c, 7, 38, 0
9, 26160, Note_on_c, 7, 69, 94
9, 26220, Note_on_c, 7, 69, 0
9, 26220, Note_on_c, 7, 74, 101
9, 26280, Note_on_c, 7, 74, 0
9, 26280, Note_on_c, 7, 72, 78
9, 26340, Note_on_c, 7, 72, 0
9, 26340, Note_on_c, 7, 78, 93
9, 26400, Note_on_c, 7, 78, 0
9, 26400, Note_on_c, 7, 74, 99
9, 26460, Note_on_c, 7, 74, 0
9, 26460, Note_on_c, 7, 81, 104
9, 26520, Note_on_c, 7, 81, 0
9, 26520, Note_on_c, 7, 78, 94
9, 26580, Note_on_c, 7, 78, 0
9, 26580, Note_on_c, 7, 84, 99
9, 26640, Note_on_c, 7, 84, 0
9, 26640, Note_on_c, 7, 81, 99
9, 26700, Note_on_c, 7, 81, 0
9, 26700, Note_on_c, 7, 78, 97
9, 26760, Note_on_c, 7, 78, 0
9, 26760, Note_on_c, 7, 74, 95
9, 26820, Note_on_c, 7, 74, 0
9, 26820, Note_on_c, 7, 72, 93
9, 26880, Note_on_c, 7, 72, 0
9, 26880, Note_on_c, 7, 71, 105
9, 27000, Note_on_c, 7, 71, 0
9, 27000, Note_on_c, 7, 55, 95
9, 27060, Note_on_c, 7, 55, 0
9, 27120, Note_on_c, 7, 83, 99
9, 27240, Note_on_c, 7, 83, 0
9, 27240, Note_on_c, 7, 54, 94
9, 27300, Note_on_c, 7, 54, 0
9, 27360, Note_on_c, 7, 67, 94
9, 27480, Note_on_c, 7, 67, 0
9, 27480, Note_on_c, 7, 52, 101
9, 27540, Note_on_c, 7, 52, 0
9, 27600, Note_on_c, 7, 83, 95
9, 27720, Note_on_c, 7, 83, 0
9, 27720, Note_on_c, 7, 50, 105
9, 27780, Note_on_c, 7, 50, 0
9, 27840, Note_on_c, 7, 49, 93
9, 27900, Note_on_c, 7, 64, 93
9, 27960, Note_on_c, 7, 64, 0
9, 27960, Note_on_c, 7, 73, 94
9, 28020, Note_on_c, 7, 73, 0
9, 28020, Note_on_c, 7, 69, 99
9, 28080, Note_on_c, 7, 69, 0
9, 28080, Note_on_c, 7, 49, 0
9, 28080, Note_on_c, 7, 76, 98
9, 28140, Note_on_c, 7, 76, 0
9, 28140, Note_on_c, 7, 73, 89
9, 28200, Note_on_c, 7, 73, 0
9, 28200, Note_on_c, 7, 81, 94
9, 28260, Note_on_c, 7, 81, 0
9, 28260, Note_on_c, 7, 76, 95
9, 28320, Note_on_c, 7, 76, 0
9, 28320, Note_on_c, 7, 85, 89
9, 28380, Note_on_c, 7, 85, 0
9, 28380, Note_on_c, 7, 81, 99
9, 28440, Note_on_c, 7, 81, 0
9, 28440, Note_on_c, 7, 88, 104
9, 28500, Note_on_c, 7, 88, 0
9, 28500, Note_on_c, 7, 86, 104
9, 28560, Note_on_c, 7, 86, 0
9, 28560, Note_on_c, 7, 85, 99
9, 28620, Note_on_c, 7, 85, 0
9, 28620, Note_on_c, 7, 83, 99
9, 28680, Note_on_c, 7, 83, 0
9, 28680, Note_on_c, 7, 81, 94
9, 28740, Note_on_c, 7, 81, 0
9, 28740, Note_on_c, 7, 79, 94
9, 28800, Note_on_c, 7, 79, 0
9, 28800, Note_on_c, 7, 78, 99
9, 28800, Note_on_c, 7, 62, 97
9, 28860, Note_on_c, 7, 78, 0
9, 28860, Note_on_c, 7, 73, 88
9, 28920, Note_on_c, 7, 73, 0
9, 28920, Note_on_c, 7, 62, 0
9, 28920, Note_on_c, 7, 74, 105
9, 28920, Note_on_c, 7, 72, 92
9, 28980, Note_on_c, 7, 74, 0
9, 28980, Note_on_c, 7, 81, 104
9, 29040, Note_on_c, 7, 81, 0
9, 29040, Note_on_c, 7, 72, 0
9, 29040, Note_on_c, 7, 79, 99
9, 29040, Note_on_c, 7, 71, 95
9, 29100, Note_on_c, 7, 79, 0
9, 29100, Note_on_c, 7, 73, 84
9, 29160, Note_on_c, 7, 73, 0
9, 29160, Note_on_c, 7, 71, 0
9, 29160, Note_on_c, 7, 67, 92
9, 29160, Note_on_c, 7, 74, 105
9, 29220, Note_on_c, 7, 74, 0
9, 29220, Note_on_c, 7, 83, 95
9, 29280, Note_on_c, 7, 83, 0
9, 29280, Note_on_c, 7, 67, 0
9, 29280, Note_on_c, 7, 81, 95
9, 29280, Note_on_c, 7, 66, 93
9, 29340, Note_on_c, 7, 81, 0
9, 29340, Note_on_c, 7, 73, 84
9, 29400, Note_on_c, 7, 73, 0
9, 29400, Note_on_c, 7, 66, 0
9, 29400, Note_on_c, 7, 74, 105
9, 29400, Note_on_c, 7, 62, 95
9, 29460, Note_on_c, 7, 74, 0
9, 29460, Note_on_c, 7, 84, 93
9, 29520, Note_on_c, 7, 84, 0
9, 29520, Note_on_c, 7, 62, 0
9, 29520, Note_on_c, 7, 83, 95
9, 29520, Note_on_c, 7, 67, 94
9, 29580, Note_on_c, 7, 83, 0
9, 29580, Note_on_c, 7, 74, 95
9, 29640, Note_on_c, 7, 74, 0
9, 29640, Note_on_c, 7, 67, 0
9, 29640, Note_on_c, 7, 64, 99
9, 29640, Note_on_c, 7, 85, 94
9, 29700, Note_on_c, 7, 85, 0
9, 29700, Note_on_c, 7, 74, 94
9, 29760, Note_on_c, 7, 74, 0
9, 29760, Note_on_c, 7, 64, 0
9, 29760, Note_on_c, 7, 86, 104
9, 29760, Note_on_c, 7, 50, 104
9, 29820, Note_on_c, 7, 50, 0
9, 29820, Note_on_c, 7, 86, 0
9, 29820, Note_on_c, 7, 62, 94
9, 29880, Note_on_c, 7, 62, 0
9, 29880, Note_on_c, 7, 78, 85
9, 29880, Note_on_c, 7, 60, 94
9, 29940, Note_on_c, 7, 60, 0
9, 29940, Note_on_c, 7, 78, 0
9, 29940, Note_on_c, 7, 86, 99
9, 29940, Note_on_c, 7, 62, 92
9, 30000, Note_on_c, 7, 62, 0
9, 30000, Note_on_c, 7, 86, 0
9, 30000, Note_on_c, 7, 79, 94
9, 30000, Note_on_c, 7, 59, 93
9, 30060, Note_on_c, 7, 59, 0
9, 30060, Note_on_c, 7, 79, 0
9, 30060, Note_on_c, 7, 86, 99
9, 30060, Note_on_c, 7, 62, 99
9, 30120, Note_on_c, 7, 62, 0
9, 30120, Note_on_c, 7, 86, 0
9, 30120, Note_on_c, 7, 83, 94
9, 30120, Note_on_c, 7, 55, 95
9, 30180, Note_on_c, 7, 55, 0
9, 30180, Note_on_c, 7, 83, 0
9, 30180, Note_on_c, 7, 62, 94
9, 30180, Note_on_c, 7, 86, 110
9, 30240, Note_on_c, 7, 86, 0
9, 30240, Note_on_c, 7, 62, 0
9, 30240, Note_on_c, 7, 81, 95
9, 30240, Note_on_c, 7, 54, 92
9, 30300, Note_on_c, 7, 54, 0
9, 30300, Note_on_c, 7, 81, 0
9, 30300, Note_on_c, 7, 86, 105
9, 30300, Note_on_c, 7, 62, 94
9, 30360, Note_on_c, 7, 62, 0
9, 30360, Note_on_c, 7, 86, 0
9, 30360, Note_on_c, 7, 84, 99
9, 30360, Note_on_c, 7, 50, 101
9, 30420, Note_on_c, 7, 50, 0
9, 30420, Note_on_c, 7, 84, 0
9, 30420, Note_on_c, 7, 86, 104
9, 30420, Note_on_c, 7, 62, 88
9, 30480, Note_on_c, 7, 62, 0
9, 30480, Note_on_c, 7, 86, 0
9, 30480, Note_on_c, 7, 83, 99
9, 30480, Note_on_c, 7, 55, 95
9, 30540, Note_on_c, 7, 55, 0
9, 30540, Note_on_c, 7, 83, 0
9, 30540, Note_on_c, 7, 86, 94
9, 30540, Note_on_c, 7, 62, 94
9, 30600, Note_on_c, 7, 62, 0
9, 30600, Note_on_c, 7, 86, 0
9, 30600, Note_on_c, 7, 85, 93
9, 30600, Note_on_c, 7, 55, 93
9, 30660, Note_on_c, 7, 55, 0
9, 30660, Note_on_c, 7, 85, 0
9, 30660, Note_on_c, 7, 62, 94
9, 30660, Note_on_c, 7, 88, 105
9, 30720, Note_on_c, 7, 88, 0
9, 30720, Note_on_c, 7, 62, 0
9, 30720, Note_on_c, 7, 86, 104
9, 30720, Note_on_c, 7, 54, 97
9, 30780, Note_on_c, 7, 54, 0
9, 30780, Note_on_c, 7, 86, 0
9, 30780, Note_on_c, 7, 88, 99
9, 30780, Note_on_c, 7, 62, 97
9, 30840, Note_on_c, 7, 62, 0
9, 30840, Note_on_c, 7, 88, 0
9, 30840, Note_on_c, 7, 85, 97
9, 30840, Note_on_c, 7, 55, 94
9, 30900, Note_on_c, 7, 55, 0
9, 30900, Note_on_c, 7, 85, 0
9, 30900, Note_on_c, 7, 88, 104
9, 30900, Note_on_c, 7, 62, 93
9, 30960, Note_on_c, 7, 62, 0
9, 30960, Note_on_c, 7, 88, 0
9, 30960, Note_on_c, 7, 86, 99
9, 30960, Note_on_c, 7, 54, 97
9, 31020, Note_on_c, 7, 54, 0
9, 31020, Note_on_c, 7, 86, 0
9, 31020, Note_on_c, 7, 88, 104
9, 31020, Note_on_c, 7, 62, 94
9, 31080, Note_on_c, 7, 62, 0
9, 31080, Note_on_c, 7, 88, 0
9, 31080, Note_on_c, 7, 85, 93
9, 31080, Note_on_c, 7, 55, 95
9, 31140, Note_on_c, 7, 55, 0
9, 31140, Note_on_c, 7, 85, 0
9, 31140, Note_on_c, 7, 62, 99
9, 31140, Note_on_c, 7, 88, 99
9, 31200, Note_on_c, 7, 88, 0
9, 31200, Note_on_c, 7, 62, 0
9, 31200, Note_on_c, 7, 86, 105
9, 31200, Note_on_c, 7, 54, 98
9, 31440, Note_on_c, 7, 54, 0
9, 31440, Note_on_c, 7, 86, 0
9, 35400, Note_on_c, 7, 74, 99
9, 35520, Note_on_c, 7, 74, 0
9, 35520, Note_on_c, 7, 79, 94
9, 35520, Note_on_c, 7, 59, 97
9, 35580, Note_on_c, 7, 59, 0
9, 35580, Note_on_c, 7, 62, 83
9, 35640, Note_on_c, 7, 62, 0
9, 35640, Note_on_c, 7, 79, 0
9, 35640, Note_on_c, 7, 78, 89
9, 35640, Note_on_c, 7, 59, 97
9, 35700, Note_on_c, 7, 59, 0
9, 35700, Note_on_c, 7, 62, 84
9, 35760, Note_on_c, 7, 62, 0
9, 35760, Note_on_c, 7, 78, 0
9, 35760, Note_on_c, 7, 79, 99
9, 35760, Note_on_c, 7, 59, 94
9, 35820, Note_on_c, 7, 59, 0
9, 35820, Note_on_c, 7, 62, 125
9, 35880, Note_on_c, 7, 62, 0
9, 35880, Note_on_c, 7, 79, 0
9, 35880, Note_on_c, 7, 81, 94
9, 35880, Note_on_c, 7, 59, 89
9, 35940, Note_on_c, 7, 59, 0
9, 35940, Note_on_c, 7, 62, 81
9, 36000, Note_on_c, 7, 62, 0
9, 36000, Note_on_c, 7, 81, 0
9, 36000, Note_on_c, 7, 79, 97
9, 36000, Note_on_c, 7, 60, 99
9, 36060, Note_on_c, 7, 60, 0
9, 36060, Note_on_c, 7, 62, 94
9, 36120, Note_on_c, 7, 62, 0
9, 36120, Note_on_c, 7, 79, 0
9, 36120, Note_on_c, 7, 78, 92
9, 36120, Note_on_c, 7, 60, 92
9, 36180, Note_on_c, 7, 60, 0
9, 36180, Note_on_c, 7, 62, 89
9, 36240, Note_on_c, 7, 62, 0
9, 36240, Note_on_c, 7, 78, 0
9, 36240, Note_on_c, 7, 76, 93
9, 36240, Note_on_c, 7, 60, 93
9, 36300, Note_on_c, 7, 60, 0
9, 36300, Note_on_c, 7, 62, 119
9, 36360, Note_on_c, 7, 62, 0
9, 36360, Note_on_c, 7, 76, 0
9, 36360, Note_on_c, 7, 74, 84
9, 36360, Note_on_c, 7, 60, 83
9, 36420, Note_on_c, 7, 60, 0
9, 36420, Note_on_c, 7, 62, 80
9, 36480, Note_on_c, 7, 62, 0
9, 36480, Note_on_c, 7, 74, 0
9, 36480, Note_on_c, 7, 79, 92
9, 36480, Note_on_c, 7, 59, 80
9, 36540, Note_on_c, 7, 59, 0
9, 36540, Note_on_c, 7, 62, 81
9, 36600, Note_on_c, 7, 62, 0
9, 36600, Note_on_c, 7, 79, 0
9, 36600, Note_on_c, 7, 78, 80
9, 36600, Note_on_c, 7, 59, 89
9, 36660, Note_on_c, 7, 59, 0
9, 36660, Note_on_c, 7, 62, 85
9, 36720, Note_on_c, 7, 62, 0
9, 36720, Note_on_c, 7, 78, 0
9, 36720, Note_on_c, 7, 79, 85
9, 36720, Note_on_c, 7, 59, 93
9, 36780, Note_on_c, 7, 59, 0
9, 36780, Note_on_c, 7, 62, 117
9, 36840, Note_on_c, 7, 62, 0
9, 36840, Note_on_c, 7, 79, 0
9, 36840, Note_on_c, 7, 81, 97
9, 36840, Note_on_c, 7, 59, 80
9, 36900, Note_on_c, 7, 59, 0
9, 36900, Note_on_c, 7, 62, 89
9, 36960, Note_on_c, 7, 62, 0
9, 36960, Note_on_c, 7, 81, 0
9, 36960, Note_on_c, 7, 78, 89
9, 36960, Note_on_c, 7, 60, 89
9, 37020, Note_on_c, 7, 60, 0
9, 37020, Note_on_c, 7, 62, 97
9, 37080, Note_on_c, 7, 62, 0
9, 37080, Note_on_c, 7, 60, 94
9, 37140, Note_on_c, 7, 60, 0
9, 37140, Note_on_c, 7, 62, 97
9, 37200, Note_on_c, 7, 62, 0
9, 37200, Note_on_c, 7, 78, 0
9, 37200, Note_on_c, 7, 60, 99
9, 37260, Note_on_c, 7, 60, 0
9, 37260, Note_on_c, 7, 62, 94
9, 37320, Note_on_c, 7, 62, 0
9, 37320, Note_on_c, 7, 74, 99
9, 37320, Note_on_c, 7, 60, 89
9, 37380, Note_on_c, 7, 60, 0
9, 37380, Note_on_c, 7, 62, 97
9, 37440, Note_on_c, 7, 62, 0
9, 37440, Note_on_c, 7, 74, 0
9, 37440, Note_on_c, 7, 84, 94
9, 37440, Note_on_c, 7, 52, 94
9, 37500, Note_on_c, 7, 52, 0
9, 37500, Note_on_c, 7, 84, 0
9, 37500, Note_on_c, 7, 64, 95
9, 37560, Note_on_c, 7, 64, 0
9, 37560, Note_on_c, 7, 84, 95
9, 37560, Note_on_c, 7, 63, 90
9, 37620, Note_on_c, 7, 63, 0
9, 37620, Note_on_c, 7, 64, 94
9, 37680, Note_on_c, 7, 64, 0
9, 37680, Note_on_c, 7, 54, 93
9, 37740, Note_on_c, 7, 54, 0
9, 37740, Note_on_c, 7, 66, 97
9, 37800, Note_on_c, 7, 66, 0
9, 37800, Note_on_c, 7, 84, 0
9, 37800, Note_on_c, 7, 81, 99
9, 37800, Note_on_c, 7, 65, 97
9, 37860, Note_on_c, 7, 65, 0
9, 37860, Note_on_c, 7, 66, 94
9, 37920, Note_on_c, 7, 66, 0
9, 37920, Note_on_c, 7, 55, 95
9, 37980, Note_on_c, 7, 55, 0
9, 37980, Note_on_c, 7, 67, 94
9, 38040, Note_on_c, 7, 67, 0
9, 38040, Note_on_c, 7, 81, 0
9, 38040, Note_on_c, 7, 83, 94
9, 38040, Note_on_c, 7, 66, 92
9, 38100, Note_on_c, 7, 66, 0
9, 38100, Note_on_c, 7, 67, 99
9, 38160, Note_on_c, 7, 67, 0
9, 38160, Note_on_c, 7, 52, 95
9, 38220, Note_on_c, 7, 52, 0
9, 38220, Note_on_c, 7, 64, 99
9, 38280, Note_on_c, 7, 64, 0
9, 38280, Note_on_c, 7, 83, 0
9, 38280, Note_on_c, 7, 79, 94
9, 38280, Note_on_c, 7, 63, 83
9, 38340, Note_on_c, 7, 63, 0
9, 38340, Note_on_c, 7, 64, 95
9, 38400, Note_on_c, 7, 64, 0
9, 38400, Note_on_c, 7, 48, 95
9, 38460, Note_on_c, 7, 48, 0
9, 38460, Note_on_c, 7, 60, 95
9, 38520, Note_on_c, 7, 60, 0
9, 38520, Note_on_c, 7, 79, 0
9, 38520, Note_on_c, 7, 81, 99
9, 38520, Note_on_c, 7, 59, 95
9, 38580, Note_on_c, 7, 59, 0
9, 38580, Note_on_c, 7, 60, 93
9, 38640, Note_on_c, 7, 60, 0
9, 38640, Note_on_c, 7, 50, 94
9, 38700, Note_on_c, 7, 50, 0
9, 38700, Note_on_c, 7, 62, 94
9, 38760, Note_on_c, 7, 62, 0
9, 38760, Note_on_c, 7, 81, 0
9, 38760, Note_on_c, 7, 78, 94
9, 38760, Note_on_c, 7, 61, 92
9, 38820, Note_on_c, 7, 61, 0
9, 38820, Note_on_c, 7, 62, 94
9, 38880, Note_on_c, 7, 62, 0
9, 38880, Note_on_c, 7, 78, 0
9, 38880, Note_on_c, 7, 79, 95
9, 38880, Note_on_c, 7, 47, 94
9, 38940, Note_on_c, 7, 47, 0
9, 38940, Note_on_c, 7, 59, 94
9, 39000, Note_on_c, 7, 59, 0
9, 39000, Note_on_c, 7, 79, 0
9, 39000, Note_on_c, 7, 86, 89
9, 39000, Note_on_c, 7, 74, 84
9, 39000, Note_on_c, 7, 58, 88
9, 39060, Note_on_c, 7, 58, 0
9, 39060, Note_on_c, 7, 59, 97
9, 39120, Note_on_c, 7, 59, 0
9, 39120, Note_on_c, 7, 74, 0
9, 39120, Note_on_c, 7, 86, 0
9, 39120, Note_on_c, 7, 86, 93
9, 39120, Note_on_c, 7, 74, 83
9, 39120, Note_on_c, 7, 44, 97
9, 39180, Note_on_c, 7, 44, 0
9, 39180, Note_on_c, 7, 56, 95
9, 39240, Note_on_c, 7, 56, 0
9, 39240, Note_on_c, 7, 74, 0
9, 39240, Note_on_c, 7, 86, 0
9, 39240, Note_on_c, 7, 74, 97
9, 39240, Note_on_c, 7, 86, 81
9, 39240, Note_on_c, 7, 54, 97
9, 39300, Note_on_c, 7, 54, 0
9, 39300, Note_on_c, 7, 56, 97
9, 39360, Note_on_c, 7, 56, 0
9, 39360, Note_on_c, 7, 86, 0
9, 39360, Note_on_c, 7, 74, 0
9, 39360, Note_on_c, 7, 86, 89
9, 39360, Note_on_c, 7, 74, 93
9, 39360, Note_on_c, 7, 45, 99
9, 39420, Note_on_c, 7, 45, 0
9, 39420, Note_on_c, 7, 57, 99
9, 39480, Note_on_c, 7, 57, 0
9, 39480, Note_on_c, 7, 74, 0
9, 39480, Note_on_c, 7, 86, 0
9, 39480, Note_on_c, 7, 84, 94
9, 39480, Note_on_c, 7, 72, 88
9, 39480, Note_on_c, 7, 56, 80
9, 39540, Note_on_c, 7, 56, 0
9, 39540, Note_on_c, 7, 57, 94
9, 39600, Note_on_c, 7, 57, 0
9, 39600, Note_on_c, 7, 42, 92
9, 39660, Note_on_c, 7, 42, 0
9, 39660, Note_on_c, 7, 54, 94
9, 39720, Note_on_c, 7, 54, 0
9, 39720, Note_on_c, 7, 72, 0
9, 39720, Note_on_c, 7, 84, 0
9, 39720, Note_on_c, 7, 70, 92
9, 39720, Note_on_c, 7, 82, 93
9, 39720, Note_on_c, 7, 53, 93
9, 39780, Note_on_c, 7, 53, 0
9, 39780, Note_on_c, 7, 54, 94
9, 39840, Note_on_c, 7, 54, 0
9, 39840, Note_on_c, 7, 43, 94
9, 39900, Note_on_c, 7, 43, 0
9, 39900, Note_on_c, 7, 55, 97
9, 39960, Note_on_c, 7, 55, 0
9, 39960, Note_on_c, 7, 82, 0
9, 39960, Note_on_c, 7, 70, 0
9, 39960, Note_on_c, 7, 83, 94
9, 39960, Note_on_c, 7, 71, 93
9, 39960, Note_on_c, 7, 54, 89
9, 40020, Note_on_c, 7, 54, 0
9, 40020, Note_on_c, 7, 55, 99
9, 40080, Note_on_c, 7, 55, 0
9, 40080, Note_on_c, 7, 40, 98
9, 40140, Note_on_c, 7, 40, 0
9, 40140, Note_on_c, 7, 52, 99
9, 40200, Note_on_c, 7, 52, 0
9, 40200, Note_on_c, 7, 71, 0
9, 40200, Note_on_c, 7, 83, 0
9, 40200, Note_on_c, 7, 68, 94
9, 40200, Note_on_c, 7, 80, 93
9, 40200, Note_on_c, 7, 51, 92
9, 40260, Note_on_c, 7, 51, 0
9, 40260, Note_on_c, 7, 52, 99
9, 40320, Note_on_c, 7, 52, 0
9, 40320, Note_on_c, 7, 36, 95
9, 40380, Note_on_c, 7, 36, 0
9, 40380, Note_on_c, 7, 48, 97
9, 40440, Note_on_c, 7, 48, 0
9, 40440, Note_on_c, 7, 80, 0
9, 40440, Note_on_c, 7, 68, 0
9, 40440, Note_on_c, 7, 81, 94
9, 40440, Note_on_c, 7, 69, 97
9, 40440, Note_on_c, 7, 47, 97
9, 40500, Note_on_c, 7, 47, 0
9, 40500, Note_on_c, 7, 48, 97
9, 40560, Note_on_c, 7, 48, 0
9, 40560, Note_on_c, 7, 38, 99
9, 40620, Note_on_c, 7, 38, 0
9, 40620, Note_on_c, 7, 50, 99
9, 40680, Note_on_c, 7, 50, 0
9, 40680, Note_on_c, 7, 69, 0
9, 40680, Note_on_c, 7, 81, 0
9, 40680, Note_on_c, 7, 66, 99
9, 40680, Note_on_c, 7, 78, 80
9, 40680, Note_on_c, 7, 49, 88
9, 40740, Note_on_c, 7, 49, 0
9, 40740, Note_on_c, 7, 50, 95
9, 40800, Note_on_c, 7, 50, 0
9, 40800, Note_on_c, 7, 78, 0
9, 40800, Note_on_c, 7, 66, 0
9, 40800, Note_on_c, 7, 79, 97
9, 40800, Note_on_c, 7, 67, 92
9, 40800, Note_on_c, 7, 43, 88
9, 40920, Note_on_c, 7, 43, 0
9, 40920, Note_on_c, 7, 67, 0
9, 40920, Note_on_c, 7, 79, 0
9, 42600, Note_on_c, 7, 34, 88
9, 42720, Note_on_c, 7, 34, 0
9, 42720, Note_on_c, 7, 55, 90
9, 42720, Note_on_c, 7, 39, 92
9, 42780, Note_on_c, 7, 55, 0
9, 42780, Note_on_c, 7, 63, 85
9, 42840, Note_on_c, 7, 63, 0
9, 42840, Note_on_c, 7, 39, 0
9, 42840, Note_on_c, 7, 58, 92
9, 42840, Note_on_c, 7, 38, 93
9, 42900, Note_on_c, 7, 58, 0
9, 42900, Note_on_c, 7, 63, 82
9, 42960, Note_on_c, 7, 63, 0
9, 42960, Note_on_c, 7, 38, 0
9, 42960, Note_on_c, 7, 55, 89
9, 42960, Note_on_c, 7, 39, 90
9, 43020, Note_on_c, 7, 55, 0
9, 43020, Note_on_c, 7, 63, 92
9, 43080, Note_on_c, 7, 63, 0
9, 43080, Note_on_c, 7, 39, 0
9, 43080, Note_on_c, 7, 41, 97
9, 43080, Note_on_c, 7, 58, 90
9, 43140, Note_on_c, 7, 58, 0
9, 43140, Note_on_c, 7, 63, 94
9, 43200, Note_on_c, 7, 63, 0
9, 43200, Note_on_c, 7, 41, 0
9, 43200, Note_on_c, 7, 56, 89
9, 43200, Note_on_c, 7, 39, 92
9, 43260, Note_on_c, 7, 56, 0
9, 43260, Note_on_c, 7, 65, 94
9, 43320, Note_on_c, 7, 65, 0
9, 43320, Note_on_c, 7, 39, 0
9, 43320, Note_on_c, 7, 58, 88
9, 43320, Note_on_c, 7, 38, 97
9, 43380, Note_on_c, 7, 58, 0
9, 43380, Note_on_c, 7, 65, 93
9, 43440, Note_on_c, 7, 65, 0
9, 43440, Note_on_c, 7, 38, 0
9, 43440, Note_on_c, 7, 56, 84
9, 43440, Note_on_c, 7, 36, 83
9, 43500, Note_on_c, 7, 56, 0
9, 43500, Note_on_c, 7, 65, 99
9, 43560, Note_on_c, 7, 65, 0
9, 43560, Note_on_c, 7, 36, 0
9, 43560, Note_on_c, 7, 34, 92
9, 43560, Note_on_c, 7, 58, 89
9, 43620, Note_on_c, 7, 58, 0
9, 43620, Note_on_c, 7, 65, 95
9, 43680, Note_on_c, 7, 65, 0
9, 43680, Note_on_c, 7, 34, 0
9, 43680, Note_on_c, 7, 55, 92
9, 43680, Note_on_c, 7, 39, 90
9, 43740, Note_on_c, 7, 55, 0
9, 43740, Note_on_c, 7, 63, 93
9, 43800, Note_on_c, 7, 63, 0
9, 43800, Note_on_c, 7, 39, 0
9, 43800, Note_on_c, 7, 58, 93
9, 43800, Note_on_c, 7, 38, 94
9, 43860, Note_on_c, 7, 58, 0
9, 43860, Note_on_c, 7, 63, 92
9, 43920, Note_on_c, 7, 63, 0
9, 43920, Note_on_c, 7, 38, 0
9, 43920, Note_on_c, 7, 55, 90
9, 43920, Note_on_c, 7, 39, 93
9, 43980, Note_on_c, 7, 55, 0
9, 43980, Note_on_c, 7, 63, 89
9, 44040, Note_on_c, 7, 63, 0
9, 44040, Note_on_c, 7, 39, 0
9, 44040, Note_on_c, 7, 41, 77
9, 44040, Note_on_c, 7, 58, 89
9, 44100, Note_on_c, 7, 58, 0
9, 44100, Note_on_c, 7, 63, 89
9, 44160, Note_on_c, 7, 63, 0
9, 44160, Note_on_c, 7, 41, 0
9, 44160, Note_on_c, 7, 53, 83
9, 44160, Note_on_c, 7, 34, 92
9, 44220, Note_on_c, 7, 53, 0
9, 44220, Note_on_c, 7, 62, 89
9, 44280, Note_on_c, 7, 62, 0
9, 44280, Note_on_c, 7, 58, 92
9, 44340, Note_on_c, 7, 58, 0
9, 44340, Note_on_c, 7, 62, 97
9, 44400, Note_on_c, 7, 62, 0
9, 44400, Note_on_c, 7, 34, 0
9, 44400, Note_on_c, 7, 53, 78
9, 44460, Note_on_c, 7, 53, 0
9, 44460, Note_on_c, 7, 62, 97
9, 44520, Note_on_c, 7, 62, 0
9, 44520, Note_on_c, 7, 70, 105
9, 44520, Note_on_c, 7, 58, 88
9, 44580, Note_on_c, 7, 58, 0
9, 44580, Note_on_c, 7, 62, 94
9, 44640, Note_on_c, 7, 62, 0
9, 44640, Note_on_c, 7, 70, 0
9, 44640, Note_on_c, 7, 80, 99
9, 44640, Note_on_c, 7, 53, 93
9, 44700, Note_on_c, 7, 53, 0
9, 44700, Note_on_c, 7, 62, 99
9, 44760, Note_on_c, 7, 62, 0
9, 44760, Note_on_c, 7, 80, 0
9, 44760, Note_on_c, 7, 58, 92
9, 44820, Note_on_c, 7, 58, 0
9, 44820, Note_on_c, 7, 62, 94
9, 44880, Note_on_c, 7, 62, 0
9, 44880, Note_on_c, 7, 53, 78
9, 44940, Note_on_c, 7, 53, 0
9, 44940, Note_on_c, 7, 62, 94
9, 45000, Note_on_c, 7, 62, 0
9, 45000, Note_on_c, 7, 70, 99
9, 45000, Note_on_c, 7, 58, 94
9, 45060, Note_on_c, 7, 58, 0
9, 45060, Note_on_c, 7, 62, 94
9, 45120, Note_on_c, 7, 62, 0
9, 45120, Note_on_c, 7, 70, 0
9, 45120, Note_on_c, 7, 79, 105
9, 45120, Note_on_c, 7, 55, 89
9, 45180, Note_on_c, 7, 55, 0
9, 45180, Note_on_c, 7, 63, 89
9, 45240, Note_on_c, 7, 63, 0
9, 45240, Note_on_c, 7, 79, 0
9, 45240, Note_on_c, 7, 58, 92
9, 45300, Note_on_c, 7, 58, 0
9, 45300, Note_on_c, 7, 63, 84
9, 45360, Note_on_c, 7, 63, 0
9, 45360, Note_on_c, 7, 55, 84
9, 45420, Note_on_c, 7, 55, 0
9, 45420, Note_on_c, 7, 63, 85
9, 45480, Note_on_c, 7, 63, 0
9, 45480, Note_on_c, 7, 70, 99
9, 45480, Note_on_c, 7, 58, 97
9, 45540, Note_on_c, 7, 58, 0
9, 45540, Note_on_c, 7, 63, 89
9, 45600, Note_on_c, 7, 63, 0
9, 45600, Note_on_c, 7, 70, 0
9, 45600, Note_on_c, 7, 77, 95
9, 45600, Note_on_c, 7, 56, 89
9, 45660, Note_on_c, 7, 56, 0
9, 45660, Note_on_c, 7, 77, 0
9, 45660, Note_on_c, 7, 65, 99
9, 45720, Note_on_c, 7, 65, 0
9, 45720, Note_on_c, 7, 70, 99
9, 45720, Note_on_c, 7, 58, 94
9, 45780, Note_on_c, 7, 58, 0
9, 45780, Note_on_c, 7, 70, 0
9, 45780, Note_on_c, 7, 65, 95
9, 45840, Note_on_c, 7, 65, 0
9, 45840, Note_on_c, 7, 74, 104
9, 45840, Note_on_c, 7, 56, 89
9, 45900, Note_on_c, 7, 56, 0
9, 45900, Note_on_c, 7, 74, 0
9, 45900, Note_on_c, 7, 65, 95
9, 45960, Note_on_c, 7, 65, 0
9, 45960, Note_on_c, 7, 70, 101
9, 45960, Note_on_c, 7, 58, 94
9, 46020, Note_on_c, 7, 58, 0
9, 46020, Note_on_c, 7, 70, 0
9, 46020, Note_on_c, 7, 65, 101
9, 46080, Note_on_c, 7, 65, 0
9, 46080, Note_on_c, 7, 75, 101
9, 46080, Note_on_c, 7, 55, 99
9, 46140, Note_on_c, 7, 55, 0
9, 46140, Note_on_c, 7, 58, 94
9, 46200, Note_on_c, 7, 58, 0
9, 46200, Note_on_c, 7, 75, 0
9, 46200, Note_on_c, 7, 56, 94
9, 46260, Note_on_c, 7, 56, 0
9, 46260, Note_on_c, 7, 55, 94
9, 46320, Note_on_c, 7, 55, 0
9, 46320, Note_on_c, 7, 53, 94
9, 46380, Note_on_c, 7, 53, 0
9, 46380, Note_on_c, 7, 51, 95
9, 46440, Note_on_c, 7, 51, 0
9, 46440, Note_on_c, 7, 31, 92
9, 46440, Note_on_c, 7, 50, 101
9, 46500, Note_on_c, 7, 50, 0
9, 46500, Note_on_c, 7, 51, 95
9, 46560, Note_on_c, 7, 51, 0
9, 46560, Note_on_c, 7, 31, 0
9, 46560, Note_on_c, 7, 50, 97
9, 46560, Note_on_c, 7, 41, 99
9, 46620, Note_on_c, 7, 50, 0
9, 46620, Note_on_c, 7, 59, 95
9, 46680, Note_on_c, 7, 59, 0
9, 46680, Note_on_c, 7, 55, 93
9, 46740, Note_on_c, 7, 55, 0
9, 46740, Note_on_c, 7, 59, 94
9, 46800, Note_on_c, 7, 59, 0
9, 46800, Note_on_c, 7, 41, 0
9, 46800, Note_on_c, 7, 50, 94
9, 46860, Note_on_c, 7, 50, 0
9, 46860, Note_on_c, 7, 59, 99
9, 46920, Note_on_c, 7, 59, 0
9, 46920, Note_on_c, 7, 31, 99
9, 46920, Note_on_c, 7, 55, 85
9, 46980, Note_on_c, 7, 55, 0
9, 46980, Note_on_c, 7, 59, 95
9, 47040, Note_on_c, 7, 59, 0
9, 47040, Note_on_c, 7, 31, 0
9, 47040, Note_on_c, 7, 51, 94
9, 47040, Note_on_c, 7, 39, 94
9, 47100, Note_on_c, 7, 51, 0
9, 47100, Note_on_c, 7, 60, 95
9, 47160, Note_on_c, 7, 60, 0
9, 47160, Note_on_c, 7, 55, 92
9, 47220, Note_on_c, 7, 55, 0
9, 47220, Note_on_c, 7, 60, 95
9, 47280, Note_on_c, 7, 60, 0
9, 47280, Note_on_c, 7, 39, 0
9, 47280, Note_on_c, 7, 51, 93
9, 47340, Note_on_c, 7, 51, 0
9, 47340, Note_on_c, 7, 60, 99
9, 47400, Note_on_c, 7, 60, 0
9, 47400, Note_on_c, 7, 31, 99
9, 47400, Note_on_c, 7, 55, 80
9, 47460, Note_on_c, 7, 55, 0
9, 47460, Note_on_c, 7, 60, 95
9, 47520, Note_on_c, 7, 60, 0
9, 47520, Note_on_c, 7, 31, 0
9, 47520, Note_on_c, 7, 53, 97
9, 47520, Note_on_c, 7, 38, 94
9, 47580, Note_on_c, 7, 38, 0
9, 47580, Note_on_c, 7, 53, 0
9, 47580, Note_on_c, 7, 59, 97
9, 47640, Note_on_c, 7, 59, 0
9, 47640, Note_on_c, 7, 55, 92
9, 47640, Note_on_c, 7, 31, 88
9, 47700, Note_on_c, 7, 31, 0
9, 47700, Note_on_c, 7, 55, 0
9, 47700, Note_on_c, 7, 59, 99
9, 47760, Note_on_c, 7, 59, 0
9, 47760, Note_on_c, 7, 53, 97
9, 47760, Note_on_c, 7, 35, 94
9, 47820, Note_on_c, 7, 35, 0
9, 47820, Note_on_c, 7, 53, 0
9, 47820, Note_on_c, 7, 62, 97
9, 47880, Note_on_c, 7, 62, 0
9, 47880, Note_on_c, 7, 53, 93
9, 47880, Note_on_c, 7, 31, 94
9, 47940, Note_on_c, 7, 31, 0
9, 47940, Note_on_c, 7, 53, 0
9, 47940, Note_on_c, 7, 62, 95
9, 48000, Note_on_c, 7, 62, 0
9, 48000, Note_on_c, 7, 51, 97
9, 48000, Note_on_c, 7, 36, 99
9, 48060, Note_on_c, 7, 51, 0
9, 48060, Note_on_c, 7, 55, 93
9, 48120, Note_on_c, 7, 55, 0
9, 48120, Note_on_c, 7, 36, 0
9, 48120, Note_on_c, 7, 63, 93
9, 48180, Note_on_c, 7, 63, 0
9, 48180, Note_on_c, 7, 62, 99
9, 48240, Note_on_c, 7, 62, 0
9, 48240, Note_on_c, 7, 60, 94
9, 48300, Note_on_c, 7, 60, 0
9, 48300, Note_on_c, 7, 58, 99
9, 48360, Note_on_c, 7, 58, 0
9, 48360, Note_on_c, 7, 74, 105
9, 48360, Note_on_c, 7, 57, 95
9, 48420, Note_on_c, 7, 57, 0
9, 48420, Note_on_c, 7, 55, 78
9, 48480, Note_on_c, 7, 55, 0
9, 48480, Note_on_c, 7, 74, 0
9, 48480, Note_on_c, 7, 84, 99
9, 48480, Note_on_c, 7, 54, 97
9, 48540, Note_on_c, 7, 54, 0
9, 48540, Note_on_c, 7, 62, 95
9, 48600, Note_on_c, 7, 62, 0
9, 48600, Note_on_c, 7, 84, 0
9, 48600, Note_on_c, 7, 57, 97
9, 48660, Note_on_c, 7, 57, 0
9, 48660, Note_on_c, 7, 62, 94
9, 48720, Note_on_c, 7, 62, 0
9, 48720, Note_on_c, 7, 54, 92
9, 48780, Note_on_c, 7, 54, 0
9, 48780, Note_on_c, 7, 62, 97
9, 48840, Note_on_c, 7, 62, 0
9, 48840, Note_on_c, 7, 74, 105
9, 48840, Note_on_c, 7, 57, 94
9, 48900, Note_on_c, 7, 57, 0
9, 48900, Note_on_c, 7, 62, 94
9, 48960, Note_on_c, 7, 62, 0
9, 48960, Note_on_c, 7, 74, 0
9, 48960, Note_on_c, 7, 82, 101
9, 48960, Note_on_c, 7, 55, 89
9, 49020, Note_on_c, 7, 55, 0
9, 49020, Note_on_c, 7, 62, 94
9, 49080, Note_on_c, 7, 62, 0
9, 49080, Note_on_c, 7, 82, 0
9, 49080, Note_on_c, 7, 58, 92
9, 49140, Note_on_c, 7, 58, 0
9, 49140, Note_on_c, 7, 62, 94
9, 49200, Note_on_c, 7, 62, 0
9, 49200, Note_on_c, 7, 55, 94
9, 49260, Note_on_c, 7, 55, 0
9, 49260, Note_on_c, 7, 62, 97
9, 49320, Note_on_c, 7, 62, 0
9, 49320, Note_on_c, 7, 74, 107
9, 49320, Note_on_c, 7, 58, 92
9, 49380, Note_on_c, 7, 58, 0
9, 49380, Note_on_c, 7, 62, 97
9, 49440, Note_on_c, 7, 62, 0
9, 49440, Note_on_c, 7, 74, 0
9, 49440, Note_on_c, 7, 81, 95
9, 49440, Note_on_c, 7, 57, 104
9, 49500, Note_on_c, 7, 57, 0
9, 49500, Note_on_c, 7, 81, 0
9, 49500, Note_on_c, 7, 62, 93
9, 49560, Note_on_c, 7, 62, 0
9, 49560, Note_on_c, 7, 74, 105
9, 49560, Note_on_c, 7, 60, 97
9, 49620, Note_on_c, 7, 60, 0
9, 49620, Note_on_c, 7, 74, 0
9, 49620, Note_on_c, 7, 62, 97
9, 49680, Note_on_c, 7, 62, 0
9, 49680, Note_on_c, 7, 78, 95
9, 49680, Note_on_c, 7, 57, 104
9, 49740, Note_on_c, 7, 57, 0
9, 49740, Note_on_c, 7, 78, 0
9, 49740, Note_on_c, 7, 62, 93
9, 49800, Note_on_c, 7, 62, 0
9, 49800, Note_on_c, 7, 74, 112
9, 49800, Note_on_c, 7, 60, 90
9, 49860, Note_on_c, 7, 60, 0
9, 49860, Note_on_c, 7, 74, 0
9, 49860, Note_on_c, 7, 62, 94
9, 49920, Note_on_c, 7, 62, 0
9, 49920, Note_on_c, 7, 79, 104
9, 49920, Note_on_c, 7, 58, 93
9, 49980, Note_on_c, 7, 58, 0
9, 49980, Note_on_c, 7, 62, 94
9, 50040, Note_on_c, 7, 62, 0
9, 50040, Note_on_c, 7, 61, 66
9, 50100, Note_on_c, 7, 61, 0
9, 50100, Note_on_c, 7, 62, 99
9, 50160, Note_on_c, 7, 62, 0
9, 50160, Note_on_c, 7, 79, 0
9, 50160, Note_on_c, 7, 60, 94
9, 50220, Note_on_c, 7, 60, 0
9, 50220, Note_on_c, 7, 58, 93
9, 50280, Note_on_c, 7, 58, 0
9, 50280, Note_on_c, 7, 38, 94
9, 50280, Note_on_c, 7, 57, 101
9, 50340, Note_on_c, 7, 57, 0
9, 50340, Note_on_c, 7, 55, 94
9, 50400, Note_on_c, 7, 55, 0
9, 50400, Note_on_c, 7, 38, 0
9, 50400, Note_on_c, 7, 54, 93
9, 50400, Note_on_c, 7, 48, 101
9, 50460, Note_on_c, 7, 54, 0
9, 50460, Note_on_c, 7, 62, 99
9, 50520, Note_on_c, 7, 62, 0
9, 50520, Note_on_c, 7, 48, 0
9, 50520, Note_on_c, 7, 57, 94
9, 50580, Note_on_c, 7, 57, 0
9, 50580, Note_on_c, 7, 62, 97
9, 50640, Note_on_c, 7, 62, 0
9, 50640, Note_on_c, 7, 54, 94
9, 50700, Note_on_c, 7, 54, 0
9, 50700, Note_on_c, 7, 62, 95
9, 50760, Note_on_c, 7, 62, 0
9, 50760, Note_on_c, 7, 38, 99
9, 50760, Note_on_c, 7, 57, 97
9, 50820, Note_on_c, 7, 57, 0
9, 50820, Note_on_c, 7, 62, 99
9, 50880, Note_on_c, 7, 62, 0
9, 50880, Note_on_c, 7, 38, 0
9, 50880, Note_on_c, 7, 55, 94
9, 50880, Note_on_c, 7, 47, 95
9, 50940, Note_on_c, 7, 55, 0
9, 50940, Note_on_c, 7, 62, 95
9, 51000, Note_on_c, 7, 62, 0
9, 51000, Note_on_c, 7, 47, 0
9, 51000, Note_on_c, 7, 59, 95
9, 51060, Note_on_c, 7, 59, 0
9, 51060, Note_on_c, 7, 62, 95
9, 51120, Note_on_c, 7, 62, 0
9, 51120, Note_on_c, 7, 55, 94
9, 51180, Note_on_c, 7, 55, 0
9, 51180, Note_on_c, 7, 62, 99
9, 51240, Note_on_c, 7, 62, 0
9, 51240, Note_on_c, 7, 43, 95
9, 51240, Note_on_c, 7, 59, 94
9, 51300, Note_on_c, 7, 59, 0
9, 51300, Note_on_c, 7, 62, 94
9, 51360, Note_on_c, 7, 62, 0
9, 51360, Note_on_c, 7, 43, 0
9, 51360, Note_on_c, 7, 55, 95
9, 51360, Note_on_c, 7, 48, 94
9, 51420, Note_on_c, 7, 48, 0
9, 51420, Note_on_c, 7, 55, 0
9, 51420, Note_on_c, 7, 64, 98
9, 51480, Note_on_c, 7, 64, 0
9, 51480, Note_on_c, 7, 57, 99
9, 51480, Note_on_c, 7, 45, 99
9, 51540, Note_on_c, 7, 45, 0
9, 51540, Note_on_c, 7, 57, 0
9, 51540, Note_on_c, 7, 64, 99
9, 51600, Note_on_c, 7, 64, 0
9, 51600, Note_on_c, 7, 54, 93
9, 51600, Note_on_c, 7, 50, 104
9, 51660, Note_on_c, 7, 50, 0
9, 51660, Note_on_c, 7, 54, 0
9, 51660, Note_on_c, 7, 62, 94
9, 51720, Note_on_c, 7, 62, 0
9, 51720, Note_on_c, 7, 57, 101
9, 51720, Note_on_c, 7, 38, 104
9, 51780, Note_on_c, 7, 38, 0
9, 51780, Note_on_c, 7, 57, 0
9, 51780, Note_on_c, 7, 62, 95
9, 51840, Note_on_c, 7, 62, 0
9, 51840, Note_on_c, 7, 55, 95
9, 51840, Note_on_c, 7, 43, 95
9, 51900, Note_on_c, 7, 55, 0
9, 51900, Note_on_c, 7, 65, 98
9, 51960, Note_on_c, 7, 65, 0
9, 51960, Note_on_c, 7, 43, 0
9, 51960, Note_on_c, 7, 74, 105
9, 51960, Note_on_c, 7, 62, 94
9, 52020, Note_on_c, 7, 62, 0
9, 52020, Note_on_c, 7, 65, 95
9, 52080, Note_on_c, 7, 65, 0
9, 52080, Note_on_c, 7, 74, 0
9, 52080, Note_on_c, 7, 79, 99
9, 52080, Note_on_c, 7, 55, 98
9, 52140, Note_on_c, 7, 55, 0
9, 52140, Note_on_c, 7, 65, 95
9, 52200, Note_on_c, 7, 65, 0
9, 52200, Note_on_c, 7, 79, 0
9, 52200, Note_on_c, 7, 62, 97
9, 52260, Note_on_c, 7, 62, 0
9, 52260, Note_on_c, 7, 65, 99
9, 52320, Note_on_c, 7, 65, 0
9, 52320, Note_on_c, 7, 59, 95
9, 52380, Note_on_c, 7, 59, 0
9, 52380, Note_on_c, 7, 67, 94
9, 52440, Note_on_c, 7, 67, 0
9, 52440, Note_on_c, 7, 62, 94
9, 52440, Note_on_c, 7, 47, 99
9, 52500, Note_on_c, 7, 62, 0
9, 52500, Note_on_c, 7, 67, 93
9, 52560, Note_on_c, 7, 67, 0
9, 52560, Note_on_c, 7, 47, 0
9, 52560, Note_on_c, 7, 59, 99
9, 52560, Note_on_c, 7, 43, 99
9, 52620, Note_on_c, 7, 59, 0
9, 52620, Note_on_c, 7, 67, 94
9, 52680, Note_on_c, 7, 67, 0
9, 52680, Note_on_c, 7, 43, 0
9, 52680, Note_on_c, 7, 62, 83
9, 52740, Note_on_c, 7, 62, 0
9, 52740, Note_on_c, 7, 67, 98
9, 52800, Note_on_c, 7, 67, 0
9, 52800, Note_on_c, 7, 60, 94
9, 52860, Note_on_c, 7, 60, 0
9, 52860, Note_on_c, 7, 67, 95
9, 52920, Note_on_c, 7, 67, 0
9, 52920, Note_on_c, 7, 76, 105
9, 52920, Note_on_c, 7, 64, 92
9, 52980, Note_on_c, 7, 64, 0
9, 52980, Note_on_c, 7, 67, 94
9, 53040, Note_on_c, 7, 67, 0
9, 53040, Note_on_c, 7, 76, 0
9, 53040, Note_on_c, 7, 81, 105
9, 53040, Note_on_c, 7, 60, 99
9, 53100, Note_on_c, 7, 60, 0
9, 53100, Note_on_c, 7, 69, 99
9, 53160, Note_on_c, 7, 69, 0
9, 53160, Note_on_c, 7, 81, 0
9, 53160, Note_on_c, 7, 64, 97
9, 53220, Note_on_c, 7, 64, 0
9, 53220, Note_on_c, 7, 69, 99
9, 53280, Note_on_c, 7, 69, 0
9, 53280, Note_on_c, 7, 60, 99
9, 53340, Note_on_c, 7, 60, 0
9, 53340, Note_on_c, 7, 69, 99
9, 53400, Note_on_c, 7, 69, 0
9, 53400, Note_on_c, 7, 64, 92
9, 53400, Note_on_c, 7, 48, 105
9, 53460, Note_on_c, 7, 64, 0
9, 53460, Note_on_c, 7, 69, 99
9, 53520, Note_on_c, 7, 69, 0
9, 53520, Note_on_c, 7, 48, 0
9, 53520, Note_on_c, 7, 60, 99
9, 53520, Note_on_c, 7, 45, 104
9, 53580, Note_on_c, 7, 60, 0
9, 53580, Note_on_c, 7, 69, 98
9, 53640, Note_on_c, 7, 69, 0
9, 53640, Note_on_c, 7, 45, 0
9, 53640, Note_on_c, 7, 64, 89
9, 53700, Note_on_c, 7, 64, 0
9, 53700, Note_on_c, 7, 69, 99
9, 53760, Note_on_c, 7, 69, 0
9, 53760, Note_on_c, 7, 59, 99
9, 53820, Note_on_c, 7, 59, 0
9, 53820, Note_on_c, 7, 67, 94
9, 53880, Note_on_c, 7, 67, 0
9, 53880, Note_on_c, 7, 85, 98
9, 53880, Note_on_c, 7, 62, 88
9, 53940, Note_on_c, 7, 62, 0
9, 53940, Note_on_c, 7, 67, 95
9, 54000, Note_on_c, 7, 67, 0
9, 54000, Note_on_c, 7, 85, 0
9, 54000, Note_on_c, 7, 86, 107
9, 54000, Note_on_c, 7, 59, 95
9, 54060, Note_on_c, 7, 59, 0
9, 54060, Note_on_c, 7, 67, 99
9, 54120, Note_on_c, 7, 67, 0
9, 54120, Note_on_c, 7, 86, 0
9, 54120, Note_on_c, 7, 62, 97
9, 54180, Note_on_c, 7, 62, 0
9, 54180, Note_on_c, 7, 67, 95
9, 54240, Note_on_c, 7, 67, 0
9, 54240, Note_on_c, 7, 57, 105
9, 54300, Note_on_c, 7, 57, 0
9, 54300, Note_on_c, 7, 66, 94
9, 54360, Note_on_c, 7, 66, 0
9, 54360, Note_on_c, 7, 62, 92
9, 54360, Note_on_c, 7, 49, 95
9, 54420, Note_on_c, 7, 62, 0
9, 54420, Note_on_c, 7, 66, 94
9, 54480, Note_on_c, 7, 66, 0
9, 54480, Note_on_c, 7, 49, 0
9, 54480, Note_on_c, 7, 57, 105
9, 54480, Note_on_c, 7, 50, 105
9, 54540, Note_on_c, 7, 57, 0
9, 54540, Note_on_c, 7, 66, 94
9, 54600, Note_on_c, 7, 66, 0
9, 54600, Note_on_c, 7, 50, 0
9, 54600, Note_on_c, 7, 62, 94
9, 54660, Note_on_c, 7, 62, 0
9, 54660, Note_on_c, 7, 66, 95
9, 54720, Note_on_c, 7, 66, 0
9, 54720, Note_on_c, 7, 59, 94
9, 54780, Note_on_c, 7, 59, 0
9, 54780, Note_on_c, 7, 67, 99
9, 54840, Note_on_c, 7, 67, 0
9, 54840, Note_on_c, 7, 74, 107
9, 54840, Note_on_c, 7, 62, 90
9, 54900, Note_on_c, 7, 62, 0
9, 54900, Note_on_c, 7, 74, 0
9, 54900, Note_on_c, 7, 67, 95
9, 54960, Note_on_c, 7, 67, 0
9, 54960, Note_on_c, 7, 74, 105
9, 54960, Note_on_c, 7, 59, 99
9, 55020, Note_on_c, 7, 59, 0
9, 55020, Note_on_c, 7, 67, 94
9, 55080, Note_on_c, 7, 67, 0
9, 55080, Note_on_c, 7, 74, 0
9, 55080, Note_on_c, 7, 79, 99
9, 55080, Note_on_c, 7, 62, 92
9, 55140, Note_on_c, 7, 62, 0
9, 55140, Note_on_c, 7, 67, 95
9, 55200, Note_on_c, 7, 67, 0
9, 55200, Note_on_c, 7, 79, 0
9, 55200, Note_on_c, 7, 59, 99
9, 55260, Note_on_c, 7, 59, 0
9, 55260, Note_on_c, 7, 67, 95
9, 55320, Note_on_c, 7, 67, 0
9, 55320, Note_on_c, 7, 62, 97
9, 55320, Note_on_c, 7, 47, 101
9, 55380, Note_on_c, 7, 47, 0
9, 55380, Note_on_c, 7, 62, 0
9, 55380, Note_on_c, 7, 67, 101
9, 55440, Note_on_c, 7, 67, 0
9, 55440, Note_on_c, 7, 59, 99
9, 55440, Note_on_c, 7, 47, 95
9, 55500, Note_on_c, 7, 59, 0
9, 55500, Note_on_c, 7, 67, 98
9, 55560, Note_on_c, 7, 67, 0
9, 55560, Note_on_c, 7, 47, 0
9, 55560, Note_on_c, 7, 43, 99
9, 55560, Note_on_c, 7, 62, 93
9, 55620, Note_on_c, 7, 62, 0
9, 55620, Note_on_c, 7, 67, 95
9, 55680, Note_on_c, 7, 67, 0
9, 55680, Note_on_c, 7, 43, 0
9, 55680, Note_on_c, 7, 60, 99
9, 55740, Note_on_c, 7, 60, 0
9, 55740, Note_on_c, 7, 67, 99
9, 55800, Note_on_c, 7, 67, 0
9, 55800, Note_on_c, 7, 76, 105
9, 55800, Note_on_c, 7, 64, 99
9, 55860, Note_on_c, 7, 64, 0
9, 55860, Note_on_c, 7, 76, 0
9, 55860, Note_on_c, 7, 67, 95
9, 55920, Note_on_c, 7, 67, 0
9, 55920, Note_on_c, 7, 76, 105
9, 55920, Note_on_c, 7, 60, 101
9, 55980, Note_on_c, 7, 60, 0
9, 55980, Note_on_c, 7, 69, 101
9, 56040, Note_on_c, 7, 69, 0
9, 56040, Note_on_c, 7, 76, 0
9, 56040, Note_on_c, 7, 81, 104
9, 56040, Note_on_c, 7, 64, 95
9, 56100, Note_on_c, 7, 64, 0
9, 56100, Note_on_c, 7, 69, 101
9, 56160, Note_on_c, 7, 69, 0
9, 56160, Note_on_c, 7, 81, 0
9, 56160, Note_on_c, 7, 60, 95
9, 56220, Note_on_c, 7, 60, 0
9, 56220, Note_on_c, 7, 69, 98
9, 56280, Note_on_c, 7, 69, 0
9, 56280, Note_on_c, 7, 64, 99
9, 56280, Note_on_c, 7, 48, 99
9, 56340, Note_on_c, 7, 48, 0
9, 56340, Note_on_c, 7, 64, 0
9, 56340, Note_on_c, 7, 69, 104
9, 56400, Note_on_c, 7, 69, 0
9, 56400, Note_on_c, 7, 60, 95
9, 56400, Note_on_c, 7, 48, 105
9, 56460, Note_on_c, 7, 60, 0
9, 56460, Note_on_c, 7, 69, 99
9, 56520, Note_on_c, 7, 69, 0
9, 56520, Note_on_c, 7, 48, 0
9, 56520, Note_on_c, 7, 45, 105
9, 56520, Note_on_c, 7, 64, 98
9, 56580, Note_on_c, 7, 64, 0
9, 56580, Note_on_c, 7, 69, 94
9, 56640, Note_on_c, 7, 69, 0
9, 56640, Note_on_c, 7, 45, 0
9, 56640, Note_on_c, 7, 59, 101
9, 56700, Note_on_c, 7, 59, 0
9, 56700, Note_on_c, 7, 67, 99
9, 56760, Note_on_c, 7, 67, 0
9, 56760, Note_on_c, 7, 85, 99
9, 56760, Note_on_c, 7, 62, 95
9, 56820, Note_on_c, 7, 62, 0
9, 56820, Note_on_c, 7, 85, 0
9, 56820, Note_on_c, 7, 67, 97
9, 56880, Note_on_c, 7, 67, 0
9, 56880, Note_on_c, 7, 85, 99
9, 56880, Note_on_c, 7, 59, 99
9, 56940, Note_on_c, 7, 59, 0
9, 56940, Note_on_c, 7, 67, 95
9, 57000, Note_on_c, 7, 67, 0
9, 57000, Note_on_c, 7, 85, 0
9, 57000, Note_on_c, 7, 86, 112
9, 57000, Note_on_c, 7, 62, 95
9, 57060, Note_on_c, 7, 62, 0
9, 57060, Note_on_c, 7, 67, 94
9, 57120, Note_on_c, 7, 67, 0
9, 57120, Note_on_c, 7, 86, 0
9, 57120, Note_on_c, 7, 57, 107
9, 57180, Note_on_c, 7, 57, 0
9, 57180, Note_on_c, 7, 66, 94
9, 57240, Note_on_c, 7, 66, 0
9, 57240, Note_on_c, 7, 62, 83
9, 57240, Note_on_c, 7, 49, 101
9, 57300, Note_on_c, 7, 49, 0
9, 57300, Note_on_c, 7, 62, 0
9, 57300, Note_on_c, 7, 66, 99
9, 57360, Note_on_c, 7, 66, 0
9, 57360, Note_on_c, 7, 57, 107
9, 57360, Note_on_c, 7, 49, 101
9, 57420, Note_on_c, 7, 57, 0
9, 57420, Note_on_c, 7, 66, 95
9, 57480, Note_on_c, 7, 66, 0
9, 57480, Note_on_c, 7, 49, 0
9, 57480, Note_on_c, 7, 50, 112
9, 57480, Note_on_c, 7, 62, 99
9, 57540, Note_on_c, 7, 62, 0
9, 57540, Note_on_c, 7, 66, 99
9, 57600, Note_on_c, 7, 66, 0
9, 57600, Note_on_c, 7, 50, 0
9, 57600, Note_on_c, 7, 55, 99
9, 57600, Note_on_c, 7, 43, 99
9, 57660, Note_on_c, 7, 74, 94
9, 57720, Note_on_c, 7, 74, 0
9, 57720, Note_on_c, 7, 79, 98
9, 57780, Note_on_c, 7, 79, 0
9, 57780, Note_on_c, 7, 83, 94
9, 57840, Note_on_c, 7, 83, 0
9, 57840, Note_on_c, 7, 43, 0
9, 57840, Note_on_c, 7, 55, 0
9, 57840, Note_on_c, 7, 86, 104
9, 57900, Note_on_c, 7, 86, 0
9, 57900, Note_on_c, 7, 85, 94
9, 57960, Note_on_c, 7, 85, 0
9, 57960, Note_on_c, 7, 86, 104
9, 58020, Note_on_c, 7, 86, 0
9, 58020, Note_on_c, 7, 85, 94
9, 58080, Note_on_c, 7, 85, 0
9, 58080, Note_on_c, 7, 86, 101
9, 58080, Note_on_c, 7, 83, 93
9, 58140, Note_on_c, 7, 67, 94
9, 58200, Note_on_c, 7, 67, 0
9, 58200, Note_on_c, 7, 71, 104
9, 58260, Note_on_c, 7, 71, 0
9, 58260, Note_on_c, 7, 74, 112
9, 58320, Note_on_c, 7, 74, 0
9, 58320, Note_on_c, 7, 79, 99
9, 58380, Note_on_c, 7, 79, 0
9, 58380, Note_on_c, 7, 78, 99
9, 58440, Note_on_c, 7, 78, 0
9, 58440, Note_on_c, 7, 83, 0
9, 58440, Note_on_c, 7, 86, 0
9, 58440, Note_on_c, 7, 87, 99
9, 58440, Note_on_c, 7, 83, 95
9, 58440, Note_on_c, 7, 79, 104
9, 58500, Note_on_c, 7, 79, 0
9, 58500, Note_on_c, 7, 78, 94
9, 58560, Note_on_c, 7, 78, 0
9, 58560, Note_on_c, 7, 83, 0
9, 58560, Note_on_c, 7, 87, 0
9, 58560, Note_on_c, 7, 88, 105
9, 58560, Note_on_c, 7, 84, 97
9, 58560, Note_on_c, 7, 79, 101
9, 58620, Note_on_c, 7, 79, 0
9, 58620, Note_on_c, 7, 78, 95
9, 58680, Note_on_c, 7, 78, 0
9, 58680, Note_on_c, 7, 84, 0
9, 58680, Note_on_c, 7, 88, 0
9, 58680, Note_on_c, 7, 76, 105
9, 58740, Note_on_c, 7, 76, 0
9, 58740, Note_on_c, 7, 74, 99
9, 58800, Note_on_c, 7, 74, 0
9, 58800, Note_on_c, 7, 88, 99
9, 58800, Note_on_c, 7, 81, 98
9, 58800, Note_on_c, 7, 79, 92
9, 58800, Note_on_c, 7, 72, 92
9, 58860, Note_on_c, 7, 72, 0
9, 58860, Note_on_c, 7, 74, 105
9, 58920, Note_on_c, 7, 74, 0
9, 58920, Note_on_c, 7, 79, 0
9, 58920, Note_on_c, 7, 81, 0
9, 58920, Note_on_c, 7, 88, 0
9, 58920, Note_on_c, 7, 76, 104
9, 58980, Note_on_c, 7, 76, 0
9, 58980, Note_on_c, 7, 72, 90
9, 59040, Note_on_c, 7, 72, 0
9, 59040, Note_on_c, 7, 83, 98
9, 59040, Note_on_c, 7, 79, 99
9, 59040, Note_on_c, 7, 74, 112
9, 59100, Note_on_c, 7, 74, 0
9, 59100, Note_on_c, 7, 73, 95
9, 59160, Note_on_c, 7, 73, 0
9, 59160, Note_on_c, 7, 79, 0
9, 59160, Note_on_c, 7, 83, 0
9, 59160, Note_on_c, 7, 74, 112
9, 59220, Note_on_c, 7, 74, 0
9, 59220, Note_on_c, 7, 62, 104
9, 59280, Note_on_c, 7, 62, 0
9, 59280, Note_on_c, 7, 81, 99
9, 59280, Note_on_c, 7, 78, 93
9, 59280, Note_on_c, 7, 74, 115
9, 59280, Note_on_c, 7, 72, 81
9, 59340, Note_on_c, 7, 74, 0
9, 59340, Note_on_c, 7, 73, 94
9, 59400, Note_on_c, 7, 73, 0
9, 59400, Note_on_c, 7, 72, 0
9, 59400, Note_on_c, 7, 78, 0
9, 59400, Note_on_c, 7, 81, 0
9, 59400, Note_on_c, 7, 74, 115
9, 59460, Note_on_c, 7, 74, 0
9, 59460, Note_on_c, 7, 62, 105
9, 59520, Note_on_c, 7, 62, 0
9, 59520, Note_on_c, 7, 86, 110
9, 59520, Note_on_c, 7, 67, 99
9, 59580, Note_on_c, 7, 86, 0
9, 59580, Note_on_c, 7, 83, 105
9, 59640, Note_on_c, 7, 83, 0
9, 59640, Note_on_c, 7, 79, 99
9, 59700, Note_on_c, 7, 79, 0
9, 59700, Note_on_c, 7, 74, 110
9, 59760, Note_on_c, 7, 74, 0
9, 59760, Note_on_c, 7, 67, 0
9, 59760, Note_on_c, 7, 71, 98
9, 59820, Note_on_c, 7, 71, 0
9, 59820, Note_on_c, 7, 79, 101
9, 59880, Note_on_c, 7, 79, 0
9, 59880, Note_on_c, 7, 74, 110
9, 59940, Note_on_c, 7, 74, 0
9, 59940, Note_on_c, 7, 71, 99
9, 60000, Note_on_c, 7, 71, 0
9, 60000, Note_on_c, 7, 67, 101
9, 60000, Note_on_c, 7, 62, 94
9, 60000, Note_on_c, 7, 59, 98
9, 60060, Note_on_c, 7, 67, 0
9, 60060, Note_on_c, 7, 66, 98
9, 60120, Note_on_c, 7, 66, 0
9, 60120, Note_on_c, 7, 59, 0
9, 60120, Note_on_c, 7, 62, 0
9, 60120, Note_on_c, 7, 67, 105
9, 60120, Note_on_c, 7, 62, 98
9, 60120, Note_on_c, 7, 59, 105
9, 60180, Note_on_c, 7, 67, 0
9, 60180, Note_on_c, 7, 66, 99
9, 60240, Note_on_c, 7, 66, 0
9, 60240, Note_on_c, 7, 59, 0
9, 60240, Note_on_c, 7, 62, 0
9, 60240, Note_on_c, 7, 67, 104
9, 60240, Note_on_c, 7, 62, 99
9, 60240, Note_on_c, 7, 59, 105
9, 60300, Note_on_c, 7, 67, 0
9, 60300, Note_on_c, 7, 66, 95
9, 60360, Note_on_c, 7, 66, 0
9, 60360, Note_on_c, 7, 59, 0
9, 60360, Note_on_c, 7, 62, 0
9, 60360, Note_on_c, 7, 65, 105
9, 60360, Note_on_c, 7, 62, 94
9, 60360, Note_on_c, 7, 59, 105
9, 60360, Note_on_c, 7, 67, 104
9, 60420, Note_on_c, 7, 67, 0
9, 60420, Note_on_c, 7, 68, 119
9, 60480, Note_on_c, 7, 68, 0
9, 60480, Note_on_c, 7, 59, 0
9, 60480, Note_on_c, 7, 62, 0
9, 60480, Note_on_c, 7, 65, 0
9, 60480, Note_on_c, 7, 69, 115
9, 60480, Note_on_c, 7, 64, 107
9, 60480, Note_on_c, 7, 60, 115
9, 60540, Note_on_c, 7, 69, 0
9, 60540, Note_on_c, 7, 70, 123
9, 60600, Note_on_c, 7, 70, 0
9, 60600, Note_on_c, 7, 60, 0
9, 60600, Note_on_c, 7, 64, 0
9, 60600, Note_on_c, 7, 71, 115
9, 60600, Note_on_c, 7, 64, 112
9, 60600, Note_on_c, 7, 60, 119
9, 60660, Note_on_c, 7, 71, 0
9, 60660, Note_on_c, 7, 72, 110
9, 60720, Note_on_c, 7, 72, 0
9, 60720, Note_on_c, 7, 60, 0
9, 60720, Note_on_c, 7, 64, 0
9, 60720, Note_on_c, 7, 73, 119
9, 60720, Note_on_c, 7, 64, 112
9, 60720, Note_on_c, 7, 60, 119
9, 60780, Note_on_c, 7, 73, 0
9, 60780, Note_on_c, 7, 74, 119
9, 60840, Note_on_c, 7, 74, 0
9, 60840, Note_on_c, 7, 60, 0
9, 60840, Note_on_c, 7, 64, 0
9, 60840, Note_on_c, 7, 64, 117
9, 60840, Note_on_c, 7, 60, 123
9, 60840, Note_on_c, 7, 75, 125
9, 60900, Note_on_c, 7, 75, 0
9, 60900, Note_on_c, 7, 76, 125
9, 60960, Note_on_c, 7, 76, 0
9, 60960, Note_on_c, 7, 60, 0
9, 60960, Note_on_c, 7, 64, 0
9, 60960, Note_on_c, 7, 67, 93
9, 60960, Note_on_c, 7, 59, 58
9, 60960, Note_on_c, 7, 50, 63
9, 61080, Note_on_c, 7, 50, 0
9, 61080, Note_on_c, 7, 59, 0
9, 61080, Note_on_c, 7, 67, 0
9, 61080, Note_on_c, 7, 59, 57
9, 61080, Note_on_c, 7, 50, 57
9, 61200, Note_on_c, 7, 50, 0
9, 61200, Note_on_c, 7, 59, 0
9, 61200, Note_on_c, 7, 66, 89
9, 61200, Note_on_c, 7, 60, 57
9, 61200, Note_on_c, 7, 50, 58
9, 61230, Note_on_c, 7, 66, 0
9, 61230, Note_on_c, 7, 67, 97
9, 61260, Note_on_c, 7, 67, 0
9, 61260, Note_on_c, 7, 66, 97
9, 61290, Note_on_c, 7, 66, 0
9, 61290, Note_on_c, 7, 67, 99
9, 61320, Note_on_c, 7, 67, 0
9, 61320, Note_on_c, 7, 50, 0
9, 61320, Note_on_c, 7, 60, 0
9, 61320, Note_on_c, 7, 60, 58
9, 61320, Note_on_c, 7, 50, 72
9, 61320, Note_on_c, 7, 66, 93
9, 61350, Note_on_c, 7, 66, 0
9, 61360, Note_on_c, 7, 64, 99
9, 61400, Note_on_c, 7, 64, 0
9, 61400, Note_on_c, 7, 66, 94
9, 61440, Note_on_c, 7, 66, 0
9, 61440, Note_on_c, 7, 50, 0
9, 61440, Note_on_c, 7, 60, 0
9, 61440, Note_on_c, 7, 67, 117
9, 61440, Note_on_c, 7, 59, 99
9, 61440, Note_on_c, 7, 55, 94
9, 61800, Note_on_c, 7, 55, 0
9, 61800, Note_on_c, 7, 59, 0
9, 61800, Note_on_c, 7, 67, 0
9, 66600, Note_on_c, 7, 80, 90
9, 66660, Note_on_c, 7, 80, 0
9, 66690, Note_on_c, 7, 80, 84
9, 66720, Note_on_c, 7, 80, 0
9, 66720, Note_on_c, 7, 79, 62
9, 66720, Note_on_c, 7, 60, 58
9, 66720, Note_on_c, 7, 56, 52
9, 66720, Note_on_c, 7, 53, 52
9, 66780, Note_on_c, 7, 79, 0
9, 66840, Note_on_c, 7, 60, 0
9, 66840, Note_on_c, 7, 56, 0
9, 66840, Note_on_c, 7, 53, 0
9, 66840, Note_on_c, 7, 77, 60
9, 66840, Note_on_c, 7, 60, 58
9, 66840, Note_on_c, 7, 56, 52
9, 66840, Note_on_c, 7, 53, 58
9, 66900, Note_on_c, 7, 77, 0
9, 66960, Note_on_c, 7, 60, 0
9, 66960, Note_on_c, 7, 56, 0
9, 66960, Note_on_c, 7, 53, 0
9, 66960, Note_on_c, 7, 77, 67
9, 66960, Note_on_c, 7, 60, 58
9, 66960, Note_on_c, 7, 56, 52
9, 66960, Note_on_c, 7, 53, 58
9, 67020, Note_on_c, 7, 77, 0
9, 67080, Note_on_c, 7, 60, 0
9, 67080, Note_on_c, 7, 56, 0
9, 67080, Note_on_c, 7, 53, 0
9, 67080, Note_on_c, 7, 60, 60
9, 67080, Note_on_c, 7, 56, 52
9, 67080, Note_on_c, 7, 53, 62
9, 67080, Note_on_c, 7, 80, 75
9, 67140, Note_on_c, 7, 80, 0
9, 67170, Note_on_c, 7, 80, 60
9, 67200, Note_on_c, 7, 80, 0
9, 67200, Note_on_c, 7, 53, 0
9, 67200, Note_on_c, 7, 56, 0
9, 67200, Note_on_c, 7, 60, 0
9, 67200, Note_on_c, 7, 79, 63
9, 67200, Note_on_c, 7, 60, 60
9, 67200, Note_on_c, 7, 56, 58
9, 67200, Note_on_c, 7, 53, 57
9, 67260, Note_on_c, 7, 79, 0
9, 67320, Note_on_c, 7, 60, 0
9, 67320, Note_on_c, 7, 56, 0
9, 67320, Note_on_c, 7, 53, 0
9, 67320, Note_on_c, 7, 77, 63
9, 67320, Note_on_c, 7, 60, 57
9, 67320, Note_on_c, 7, 56, 58
9, 67320, Note_on_c, 7, 53, 57
9, 67380, Note_on_c, 7, 77, 0
9, 67440, Note_on_c, 7, 60, 0
9, 67440, Note_on_c, 7, 56, 0
9, 67440, Note_on_c, 7, 53, 0
9, 67440, Note_on_c, 7, 77, 60
9, 67440, Note_on_c, 7, 60, 60
9, 67440, Note_on_c, 7, 56, 57
9, 67440, Note_on_c, 7, 53, 57
9, 67500, Note_on_c, 7, 77, 0
9, 67560, Note_on_c, 7, 60, 0
9, 67560, Note_on_c, 7, 56, 0
9, 67560, Note_on_c, 7, 53, 0
9, 67560, Note_on_c, 7, 60, 60
9, 67560, Note_on_c, 7, 56, 52
9, 67560, Note_on_c, 7, 53, 57
9, 67560, Note_on_c, 7, 80, 55
9, 67620, Note_on_c, 7, 80, 0
9, 67650, Note_on_c, 7, 79, 57
9, 67680, Note_on_c, 7, 79, 0
9, 67680, Note_on_c, 7, 53, 0
9, 67680, Note_on_c, 7, 56, 0
9, 67680, Note_on_c, 7, 60, 0
9, 67680, Note_on_c, 7, 77, 60
9, 67680, Note_on_c, 7, 62, 60
9, 67680, Note_on_c, 7, 60, 58
9, 67680, Note_on_c, 7, 56, 52
9, 67680, Note_on_c, 7, 53, 58
9, 67740, Note_on_c, 7, 77, 0
9, 67800, Note_on_c, 7, 56, 0
9, 67800, Note_on_c, 7, 62, 0
9, 67800, Note_on_c, 7, 60, 0
9, 67800, Note_on_c, 7, 53, 0
9, 67800, Note_on_c, 7, 75, 58
9, 67800, Note_on_c, 7, 62, 60
9, 67800, Note_on_c, 7, 60, 57
9, 67800, Note_on_c, 7, 56, 58
9, 67800, Note_on_c, 7, 53, 60
9, 67860, Note_on_c, 7, 75, 0
9, 67890, Note_on_c, 7, 75, 70
9, 67920, Note_on_c, 7, 75, 0
9, 67920, Note_on_c, 7, 53, 0
9, 67920, Note_on_c, 7, 62, 0
9, 67920, Note_on_c, 7, 60, 0
9, 67920, Note_on_c, 7, 56, 0
9, 67920, Note_on_c, 7, 74, 63
9, 67920, Note_on_c, 7, 62, 60
9, 67920, Note_on_c, 7, 60, 58
9, 67920, Note_on_c, 7, 56, 60
9, 67920, Note_on_c, 7, 53, 58
9, 67980, Note_on_c, 7, 74, 0
9, 68040, Note_on_c, 7, 56, 0
9, 68040, Note_on_c, 7, 62, 0
9, 68040, Note_on_c, 7, 60, 0
9, 68040, Note_on_c, 7, 53, 0
9, 68040, Note_on_c, 7, 62, 60
9, 68040, Note_on_c, 7, 60, 58
9, 68040, Note_on_c, 7, 56, 52
9, 68040, Note_on_c, 7, 53, 58
9, 68040, Note_on_c, 7, 72, 52
9, 68100, Note_on_c, 7, 72, 0
9, 68130, Note_on_c, 7, 74, 66
9, 68160, Note_on_c, 7, 74, 0
9, 68160, Note_on_c, 7, 53, 0
9, 68160, Note_on_c, 7, 62, 0
9, 68160, Note_on_c, 7, 60, 0
9, 68160, Note_on_c, 7, 56, 0
9, 68160, Note_on_c, 7, 72, 57
9, 68160, Note_on_c, 7, 65, 60
9, 68160, Note_on_c, 7, 62, 60
9, 68160, Note_on_c, 7, 55, 60
9, 68280, Note_on_c, 7, 55, 0
9, 68280, Note_on_c, 7, 72, 0
9, 68280, Note_on_c, 7, 65, 0
9, 68280, Note_on_c, 7, 62, 0
9, 68280, Note_on_c, 7, 71, 61
9, 68280, Note_on_c, 7, 65, 58
9, 68280, Note_on_c, 7, 62, 58
9, 68280, Note_on_c, 7, 55, 57
9, 68400, Note_on_c, 7, 55, 0
9, 68400, Note_on_c, 7, 71, 0
9, 68400, Note_on_c, 7, 65, 0
9, 68400, Note_on_c, 7, 62, 0
9, 68400, Note_on_c, 7, 71, 60
9, 68400, Note_on_c, 7, 65, 60
9, 68400, Note_on_c, 7, 62, 58
9, 68400, Note_on_c, 7, 55, 61
9, 68520, Note_on_c, 7, 55, 0
9, 68520, Note_on_c, 7, 71, 0
9, 68520, Note_on_c, 7, 65, 0
9, 68520, Note_on_c, 7, 62, 0
9, 68520, Note_on_c, 7, 65, 77
9, 68520, Note_on_c, 7, 62, 79
9, 68520, Note_on_c, 7, 55, 79
9, 68520, Note_on_c, 7, 71, 93
9, 68550, Note_on_c, 7, 71, 0
9, 68550, Note_on_c, 7, 80, 81
9, 68610, Note_on_c, 7, 80, 0
9, 68610, Note_on_c, 7, 74, 86
9, 68640, Note_on_c, 7, 74, 0
9, 68640, Note_on_c, 7, 65, 0
9, 68640, Note_on_c, 7, 62, 0
9, 68640, Note_on_c, 7, 55, 0
9, 68640, Note_on_c, 7, 72, 80
9, 68640, Note_on_c, 7, 65, 72
9, 68640, Note_on_c, 7, 62, 72
9, 68640, Note_on_c, 7, 55, 78
9, 68760, Note_on_c, 7, 55, 0
9, 68760, Note_on_c, 7, 72, 0
9, 68760, Note_on_c, 7, 65, 0
9, 68760, Note_on_c, 7, 62, 0
9, 68760, Note_on_c, 7, 71, 86
9, 68760, Note_on_c, 7, 65, 75
9, 68760, Note_on_c, 7, 62, 60
9, 68760, Note_on_c, 7, 55, 78
9, 68880, Note_on_c, 7, 55, 0
9, 68880, Note_on_c, 7, 71, 0
9, 68880, Note_on_c, 7, 65, 0
9, 68880, Note_on_c, 7, 62, 0
9, 68880, Note_on_c, 7, 71, 94
9, 68880, Note_on_c, 7, 65, 68
9, 68880, Note_on_c, 7, 62, 57
9, 68880, Note_on_c, 7, 55, 77
9, 69000, Note_on_c, 7, 55, 0
9, 69000, Note_on_c, 7, 71, 0
9, 69000, Note_on_c, 7, 65, 0
9, 69000, Note_on_c, 7, 62, 0
9, 69000, Note_on_c, 7, 65, 74
9, 69000, Note_on_c, 7, 62, 74
9, 69000, Note_on_c, 7, 55, 78
9, 69000, Note_on_c, 7, 71, 95
9, 69030, Note_on_c, 7, 71, 0
9, 69030, Note_on_c, 7, 79, 84
9, 69090, Note_on_c, 7, 79, 0
9, 69090, Note_on_c, 7, 74, 89
9, 69120, Note_on_c, 7, 74, 0
9, 69120, Note_on_c, 7, 65, 0
9, 69120, Note_on_c, 7, 62, 0
9, 69120, Note_on_c, 7, 55, 0
9, 69120, Note_on_c, 7, 72, 85
9, 69120, Note_on_c, 7, 65, 81
9, 69120, Note_on_c, 7, 62, 69
9, 69120, Note_on_c, 7, 55, 79
9, 69240, Note_on_c, 7, 55, 0
9, 69240, Note_on_c, 7, 72, 0
9, 69240, Note_on_c, 7, 65, 0
9, 69240, Note_on_c, 7, 62, 0
9, 69240, Note_on_c, 7, 71, 90
9, 69240, Note_on_c, 7, 65, 75
9, 69240, Note_on_c, 7, 62, 68
9, 69240, Note_on_c, 7, 55, 84
9, 69360, Note_on_c, 7, 55, 0
9, 69360, Note_on_c, 7, 71, 0
9, 69360, Note_on_c, 7, 65, 0
9, 69360, Note_on_c, 7, 62, 0
9, 69360, Note_on_c, 7, 71, 92
9, 69360, Note_on_c, 7, 65, 68
9, 69360, Note_on_c, 7, 62, 69
9, 69360, Note_on_c, 7, 55, 84
9, 69480, Note_on_c, 7, 55, 0
9, 69480, Note_on_c, 7, 71, 0
9, 69480, Note_on_c, 7, 65, 0
9, 69480, Note_on_c, 7, 62, 0
9, 69480, Note_on_c, 7, 65, 72
9, 69480, Note_on_c, 7, 62, 69
9, 69480, Note_on_c, 7, 55, 79
9, 69480, Note_on_c, 7, 71, 99
9, 69510, Note_on_c, 7, 71, 0
9, 69510, Note_on_c, 7, 80, 84
9, 69570, Note_on_c, 7, 80, 0
9, 69570, Note_on_c, 7, 74, 87
9, 69600, Note_on_c, 7, 74, 0
9, 69600, Note_on_c, 7, 65, 0
9, 69600, Note_on_c, 7, 62, 0
9, 69600, Note_on_c, 7, 55, 0
9, 69600, Note_on_c, 7, 72, 84
9, 69600, Note_on_c, 7, 65, 76
9, 69600, Note_on_c, 7, 62, 68
9, 69600, Note_on_c, 7, 55, 83
9, 69720, Note_on_c, 7, 55, 0
9, 69720, Note_on_c, 7, 72, 0
9, 69720, Note_on_c, 7, 65, 0
9, 69720, Note_on_c, 7, 62, 0
9, 69720, Note_on_c, 7, 71, 99
9, 69720, Note_on_c, 7, 65, 62
9, 69720, Note_on_c, 7, 62, 68
9, 69720, Note_on_c, 7, 55, 73
9, 69840, Note_on_c, 7, 55, 0
9, 69840, Note_on_c, 7, 71, 0
9, 69840, Note_on_c, 7, 65, 0
9, 69840, Note_on_c, 7, 62, 0
9, 69840, Note_on_c, 7, 71, 95
9, 69840, Note_on_c, 7, 65, 60
9, 69840, Note_on_c, 7, 62, 61
9, 69840, Note_on_c, 7, 55, 73
9, 69960, Note_on_c, 7, 55, 0
9, 69960, Note_on_c, 7, 71, 0
9, 69960, Note_on_c, 7, 65, 0
9, 69960, Note_on_c, 7, 62, 0
9, 69960, Note_on_c, 7, 65, 50
9, 69960, Note_on_c, 7, 62, 58
9, 69960, Note_on_c, 7, 55, 58
9, 69960, Note_on_c, 7, 71, 98
9, 69990, Note_on_c, 7, 71, 0
9, 69990, Note_on_c, 7, 79, 82
9, 70050, Note_on_c, 7, 79, 0
9, 70080, Note_on_c, 7, 55, 0
9, 70080, Note_on_c, 7, 62, 0
9, 70080, Note_on_c, 7, 65, 0
9, 70080, Note_on_c, 7, 71, 93
9, 70080, Note_on_c, 7, 65, 76
9, 70080, Note_on_c, 7, 62, 79
9, 70080, Note_on_c, 7, 55, 83
9, 70140, Note_on_c, 7, 71, 0
9, 70200, Note_on_c, 7, 65, 0
9, 70200, Note_on_c, 7, 62, 0
9, 70200, Note_on_c, 7, 55, 0
9, 70200, Note_on_c, 7, 71, 94
9, 70200, Note_on_c, 7, 65, 71
9, 70200, Note_on_c, 7, 62, 66
9, 70200, Note_on_c, 7, 55, 78
9, 70230, Note_on_c, 7, 71, 0
9, 70230, Note_on_c, 7, 78, 84
9, 70290, Note_on_c, 7, 78, 0
9, 70320, Note_on_c, 7, 55, 0
9, 70320, Note_on_c, 7, 62, 0
9, 70320, Note_on_c, 7, 65, 0
9, 70320, Note_on_c, 7, 71, 89
9, 70320, Note_on_c, 7, 65, 68
9, 70320, Note_on_c, 7, 62, 61
9, 70320, Note_on_c, 7, 55, 77
9, 70380, Note_on_c, 7, 71, 0
9, 70440, Note_on_c, 7, 65, 0
9, 70440, Note_on_c, 7, 62, 0
9, 70440, Note_on_c, 7, 55, 0
9, 70440, Note_on_c, 7, 65, 57
9, 70440, Note_on_c, 7, 62, 61
9, 70440, Note_on_c, 7, 55, 66
9, 70440, Note_on_c, 7, 71, 99
9, 70470, Note_on_c, 7, 71, 0
9, 70470, Note_on_c, 7, 79, 90
9, 70530, Note_on_c, 7, 79, 0
9, 70560, Note_on_c, 7, 55, 0
9, 70560, Note_on_c, 7, 62, 0
9, 70560, Note_on_c, 7, 65, 0
9, 70560, Note_on_c, 7, 71, 88
9, 70560, Note_on_c, 7, 65, 61
9, 70560, Note_on_c, 7, 62, 58
9, 70560, Note_on_c, 7, 55, 58
9, 70620, Note_on_c, 7, 71, 0
9, 70680, Note_on_c, 7, 65, 0
9, 70680, Note_on_c, 7, 62, 0
9, 70680, Note_on_c, 7, 55, 0
9, 70680, Note_on_c, 7, 71, 93
9, 70680, Note_on_c, 7, 65, 61
9, 70680, Note_on_c, 7, 62, 55
9, 70680, Note_on_c, 7, 55, 60
9, 70710, Note_on_c, 7, 71, 0
9, 70710, Note_on_c, 7, 78, 80
9, 70770, Note_on_c, 7, 78, 0
9, 70800, Note_on_c, 7, 55, 0
9, 70800, Note_on_c, 7, 62, 0
9, 70800, Note_on_c, 7, 65, 0
9, 70800, Note_on_c, 7, 71, 74
9, 70800, Note_on_c, 7, 65, 58
9, 70800, Note_on_c, 7, 62, 57
9, 70800, Note_on_c, 7, 55, 61
9, 70860, Note_on_c, 7, 71, 0
9, 70920, Note_on_c, 7, 65, 0
9, 70920, Note_on_c, 7, 62, 0
9, 70920, Note_on_c, 7, 55, 0
9, 70920, Note_on_c, 7, 65, 49
9, 70920, Note_on_c, 7, 62, 50
9, 70920, Note_on_c, 7, 55, 61
9, 70920, Note_on_c, 7, 71, 77
9, 70950, Note_on_c, 7, 71, 0
9, 70950, Note_on_c, 7, 77, 73
9, 71010, Note_on_c, 7, 77, 0
9, 71040, Note_on_c, 7, 55, 0
9, 71040, Note_on_c, 7, 62, 0
9, 71040, Note_on_c, 7, 65, 0
9, 71040, Control_c, 7, 64, 2
9, 71040, Note_on_c, 7, 71, 61
9, 71040, Note_on_c, 7, 65, 58
9, 71040, Note_on_c, 7, 62, 58
9, 71040, Note_on_c, 7, 55, 61
9, 71044, Control_c, 7, 64, 10
9, 71048, Control_c, 7, 64, 12
9, 71052, Control_c, 7, 64, 16
9, 71060, Control_c, 7, 64, 18
9, 71064, Control_c, 7, 64, 21
9, 71068, Control_c, 7, 64, 23
9, 71076, Control_c, 7, 64, 26
9, 71080, Control_c, 7, 64, 32
9, 71084, Control_c, 7, 64, 72
9, 71088, Control_c, 7, 64, 74
9, 71092, Control_c, 7, 64, 78
9, 71096, Control_c, 7, 64, 89
9, 71100, Control_c, 7, 64, 91
9, 71104, Control_c, 7, 64, 94
9, 71112, Control_c, 7, 64, 97
9, 71116, Control_c, 7, 64, 98
9, 71120, Control_c, 7, 64, 99
9, 71124, Control_c, 7, 64, 101
9, 71136, Control_c, 7, 64, 103
9, 71144, Control_c, 7, 64, 105
9, 71148, Control_c, 7, 64, 108
9, 71152, Control_c, 7, 64, 109
9, 71156, Control_c, 7, 64, 111
9, 71160, Note_on_c, 7, 55, 0
9, 71160, Note_on_c, 7, 71, 0
9, 71160, Note_on_c, 7, 65, 0
9, 71160, Note_on_c, 7, 62, 0
9, 71160, Note_on_c, 7, 71, 57
9, 71160, Note_on_c, 7, 65, 61
9, 71160, Note_on_c, 7, 62, 58
9, 71160, Note_on_c, 7, 55, 57
9, 71168, Control_c, 7, 64, 115
9, 71172, Control_c, 7, 64, 117
9, 71188, Control_c, 7, 64, 118
9, 71216, Control_c, 7, 64, 120
9, 71224, Control_c, 7, 64, 121
9, 71236, Control_c, 7, 64, 122
9, 71244, Control_c, 7, 64, 124
9, 71260, Control_c, 7, 64, 125
9, 71268, Control_c, 7, 64, 126
9, 71280, Note_on_c, 7, 55, 0
9, 71280, Note_on_c, 7, 71, 0
9, 71280, Note_on_c, 7, 65, 0
9, 71280, Note_on_c, 7, 62, 0
9, 71280, Note_on_c, 7, 71, 72
9, 71280, Note_on_c, 7, 65, 55
9, 71280, Note_on_c, 7, 62, 53
9, 71280, Note_on_c, 7, 55, 61
9, 71392, Control_c, 7, 64, 127
9, 71396, Control_c, 7, 64, 123
9, 71400, Note_on_c, 7, 55, 0
9, 71400, Note_on_c, 7, 71, 0
9, 71400, Note_on_c, 7, 65, 0
9, 71400, Note_on_c, 7, 62, 0
9, 71400, Note_on_c, 7, 65, 60
9, 71400, Note_on_c, 7, 62, 60
9, 71400, Note_on_c, 7, 55, 57
9, 71400, Note_on_c, 7, 71, 58
9, 71430, Note_on_c, 7, 71, 0
9, 71430, Note_on_c, 7, 77, 58
9, 71520, Note_on_c, 7, 77, 0
9, 71520, Note_on_c, 7, 55, 0
9, 71520, Note_on_c, 7, 62, 0
9, 71520, Note_on_c, 7, 65, 0
9, 71520, Note_on_c, 7, 71, 58
9, 71520, Note_on_c, 7, 65, 60
9, 71520, Note_on_c, 7, 62, 60
9, 71520, Note_on_c, 7, 55, 58
9, 71608, Control_c, 7, 64, 124
9, 71640, Note_on_c, 7, 55, 0
9, 71640, Note_on_c, 7, 71, 0
9, 71640, Note_on_c, 7, 65, 0
9, 71640, Note_on_c, 7, 62, 0
9, 71640, Note_on_c, 7, 71, 63
9, 71640, Note_on_c, 7, 65, 58
9, 71640, Note_on_c, 7, 62, 58
9, 71640, Note_on_c, 7, 55, 55
9, 71644, Control_c, 7, 64, 125
9, 71664, Control_c, 7, 64, 126
9, 71668, Control_c, 7, 64, 127
9, 71760, Note_on_c, 7, 55, 0
9, 71760, Note_on_c, 7, 71, 0
9, 71760, Note_on_c, 7, 65, 0
9, 71760, Note_on_c, 7, 62, 0
9, 71760, Note_on_c, 7, 71, 60
9, 71760, Note_on_c, 7, 65, 57
9, 71760, Note_on_c, 7, 62, 57
9, 71760, Note_on_c, 7, 55, 58
9, 71880, Note_on_c, 7, 55, 0
9, 71880, Note_on_c, 7, 71, 0
9, 71880, Note_on_c, 7, 65, 0
9, 71880, Note_on_c, 7, 62, 0
9, 71880, Note_on_c, 7, 65, 57
9, 71880, Note_on_c, 7, 62, 58
9, 71880, Note_on_c, 7, 55, 58
9, 71880, Note_on_c, 7, 71, 60
9, 71910, Note_on_c, 7, 71, 0
9, 71910, Note_on_c, 7, 77, 62
9, 72000, Note_on_c, 7, 77, 0
9, 72000, Note_on_c, 7, 55, 0
9, 72000, Note_on_c, 7, 62, 0
9, 72000, Note_on_c, 7, 65, 0
9, 72000, Note_on_c, 7, 71, 66
9, 72000, Note_on_c, 7, 65, 60
9, 72000, Note_on_c, 7, 62, 58
9, 72000, Note_on_c, 7, 55, 58
9, 72120, Note_on_c, 7, 55, 0
9, 72120, Note_on_c, 7, 71, 0
9, 72120, Note_on_c, 7, 65, 0
9, 72120, Note_on_c, 7, 62, 0
9, 72120, Note_on_c, 7, 71, 60
9, 72120, Note_on_c, 7, 65, 58
9, 72120, Note_on_c, 7, 62, 58
9, 72120, Note_on_c, 7, 55, 53
9, 72150, Note_on_c, 7, 71, 0
9, 72150, Note_on_c, 7, 77, 63
9, 72210, Note_on_c, 7, 77, 0
9, 72240, Note_on_c, 7, 55, 0
9, 72240, Note_on_c, 7, 62, 0
9, 72240, Note_on_c, 7, 65, 0
9, 72240, Note_on_c, 7, 71, 60
9, 72240, Note_on_c, 7, 65, 52
9, 72240, Note_on_c, 7, 62, 55
9, 72240, Note_on_c, 7, 55, 49
9, 72360, Note_on_c, 7, 55, 0
9, 72360, Note_on_c, 7, 71, 0
9, 72360, Note_on_c, 7, 65, 0
9, 72360, Note_on_c, 7, 62, 0
9, 72360, Note_on_c, 7, 65, 58
9, 72360, Note_on_c, 7, 62, 58
9, 72360, Note_on_c, 7, 55, 50
9, 72360, Note_on_c, 7, 71, 63
9, 72390, Note_on_c, 7, 71, 0
9, 72390, Note_on_c, 7, 77, 61
9, 72450, Note_on_c, 7, 77, 0
9, 72480, Note_on_c, 7, 55, 0
9, 72480, Note_on_c, 7, 62, 0
9, 72480, Note_on_c, 7, 65, 0
9, 72480, Note_on_c, 7, 71, 66
9, 72480, Note_on_c, 7, 65, 58
9, 72480, Note_on_c, 7, 62, 52
9, 72480, Note_on_c, 7, 55, 57
9, 72600, Note_on_c, 7, 55, 0
9, 72600, Note_on_c, 7, 71, 0
9, 72600, Note_on_c, 7, 65, 0
9, 72600, Note_on_c, 7, 62, 0
9, 72600, Note_on_c, 7, 71, 58
9, 72600, Note_on_c, 7, 65, 57
9, 72600, Note_on_c, 7, 62, 55
9, 72600, Note_on_c, 7, 55, 58
9, 72628, Control_c, 7, 64, 125
9, 72630, Note_on_c, 7, 71, 0
9, 72630, Note_on_c, 7, 77, 57
9, 72660, Control_c, 7, 64, 123
9, 72684, Control_c, 7, 64, 121
9, 72690, Note_on_c, 7, 77, 0
9, 72696, Control_c, 7, 64, 119
9, 72712, Control_c, 7, 64, 117
9, 72720, Note_on_c, 7, 55, 0
9, 72720, Note_on_c, 7, 62, 0
9, 72720, Note_on_c, 7, 65, 0
9, 72720, Control_c, 7, 64, 115
9, 72720, Note_on_c, 7, 71, 61
9, 72720, Note_on_c, 7, 65, 57
9, 72720, Note_on_c, 7, 62, 58
9, 72720, Note_on_c, 7, 55, 55
9, 72732, Control_c, 7, 64, 111
9, 72736, Control_c, 7, 64, 109
9, 72740, Control_c, 7, 64, 107
9, 72744, Control_c, 7, 64, 104
9, 72752, Control_c, 7, 64, 102
9, 72756, Control_c, 7, 64, 99
9, 72760, Control_c, 7, 64, 97
9, 72764, Control_c, 7, 64, 95
9, 72772, Control_c, 7, 64, 89
9, 72780, Control_c, 7, 64, 87
9, 72784, Control_c, 7, 64, 83
9, 72788, Control_c, 7, 64, 81
9, 72792, Control_c, 7, 64, 80
9, 72796, Control_c, 7, 64, 77
9, 72800, Control_c, 7, 64, 75
9, 72804, Control_c, 7, 64, 70
9, 72808, Control_c, 7, 64, 68
9, 72812, Control_c, 7, 64, 45
9, 72816, Control_c, 7, 64, 41
9, 72820, Control_c, 7, 64, 33
9, 72824, Control_c, 7, 64, 31
9, 72828, Control_c, 7, 64, 27
9, 72832, Control_c, 7, 64, 19
9, 72836, Control_c, 7, 64, 0
9, 72840, Note_on_c, 7, 55, 0
9, 72840, Note_on_c, 7, 71, 0
9, 72840, Note_on_c, 7, 65, 0
9, 72840, Note_on_c, 7, 62, 0
9, 72840, Note_on_c, 7, 76, 77
9, 72840, Note_on_c, 7, 72, 44
9, 72840, Note_on_c, 7, 67, 58
9, 72840, Note_on_c, 7, 60, 81
9, 72844, Control_c, 7, 64, 2
9, 72960, Note_on_c, 7, 60, 0
9, 72960, Note_on_c, 7, 76, 0
9, 72960, Note_on_c, 7, 72, 0
9, 72960, Note_on_c, 7, 67, 0
9, 72960, Note_on_c, 7, 76, 84
9, 72960, Note_on_c, 7, 72, 57
9, 72960, Note_on_c, 7, 67, 66
9, 72960, Note_on_c, 7, 60, 80
9, 73020, Note_on_c, 7, 67, 0
9, 73020, Note_on_c, 7, 76, 0
9, 73020, Note_on_c, 7, 72, 0
9, 73020, Note_on_c, 7, 74, 78
9, 73020, Note_on_c, 7, 69, 80
9, 73020, Note_on_c, 7, 65, 74
9, 73080, Note_on_c, 7, 65, 0
9, 73080, Note_on_c, 7, 60, 0
9, 73080, Note_on_c, 7, 74, 0
9, 73080, Note_on_c, 7, 69, 0
9, 73080, Note_on_c, 7, 72, 61
9, 73080, Note_on_c, 7, 67, 73
9, 73080, Note_on_c, 7, 64, 79
9, 73080, Note_on_c, 7, 60, 77
9, 73140, Note_on_c, 7, 60, 0
9, 73140, Note_on_c, 7, 72, 0
9, 73140, Note_on_c, 7, 67, 0
9, 73140, Note_on_c, 7, 64, 0
9, 73200, Note_on_c, 7, 72, 77
9, 73200, Note_on_c, 7, 67, 57
9, 73200, Note_on_c, 7, 64, 83
9, 73200, Note_on_c, 7, 60, 60
9, 73260, Note_on_c, 7, 60, 0
9, 73260, Note_on_c, 7, 72, 0
9, 73260, Note_on_c, 7, 67, 0
9, 73260, Note_on_c, 7, 64, 0
9, 73320, Note_on_c, 7, 76, 81
9, 73320, Note_on_c, 7, 72, 58
9, 73320, Note_on_c, 7, 67, 68
9, 73320, Note_on_c, 7, 60, 66
9, 73380, Note_on_c, 7, 60, 0
9, 73380, Note_on_c, 7, 76, 0
9, 73380, Note_on_c, 7, 72, 0
9, 73380, Note_on_c, 7, 67, 0
9, 73440, Note_on_c, 7, 76, 77
9, 73440, Note_on_c, 7, 67, 78
9, 73440, Note_on_c, 7, 60, 70
9, 73500, Note_on_c, 7, 67, 0
9, 73500, Note_on_c, 7, 76, 0
9, 73500, Note_on_c, 7, 74, 66
9, 73500, Note_on_c, 7, 69, 78
9, 73500, Note_on_c, 7, 65, 80
9, 73560, Note_on_c, 7, 65, 0
9, 73560, Note_on_c, 7, 60, 0
9, 73560, Note_on_c, 7, 74, 0
9, 73560, Note_on_c, 7, 69, 0
9, 73560, Note_on_c, 7, 67, 77
9, 73560, Note_on_c, 7, 64, 89
9, 73560, Note_on_c, 7, 60, 63
9, 73620, Note_on_c, 7, 60, 0
9, 73620, Note_on_c, 7, 64, 0
9, 73620, Note_on_c, 7, 67, 0
9, 73680, Note_on_c, 7, 67, 77
9, 73680, Note_on_c, 7, 64, 92
9, 73680, Note_on_c, 7, 60, 58
9, 73740, Note_on_c, 7, 60, 0
9, 73740, Note_on_c, 7, 64, 0
9, 73740, Note_on_c, 7, 67, 0
9, 73800, Note_on_c, 7, 76, 68
9, 73800, Note_on_c, 7, 67, 82
9, 73800, Note_on_c, 7, 60, 73
9, 73860, Note_on_c, 7, 60, 0
9, 73860, Note_on_c, 7, 67, 0
9, 73860, Note_on_c, 7, 76, 0
9, 73920, Note_on_c, 7, 76, 75
9, 73920, Note_on_c, 7, 72, 66
9, 73920, Note_on_c, 7, 67, 78
9, 73920, Note_on_c, 7, 60, 78
9, 73980, Note_on_c, 7, 67, 0
9, 73980, Note_on_c, 7, 76, 0
9, 73980, Note_on_c, 7, 72, 0
9, 73980, Note_on_c, 7, 74, 61
9, 73980, Note_on_c, 7, 69, 77
9, 73980, Note_on_c, 7, 65, 73
9, 74040, Note_on_c, 7, 65, 0
9, 74040, Note_on_c, 7, 60, 0
9, 74040, Note_on_c, 7, 74, 0
9, 74040, Note_on_c, 7, 69, 0
9, 74040, Note_on_c, 7, 67, 70
9, 74040, Note_on_c, 7, 64, 78
9, 74040, Note_on_c, 7, 60, 77
9, 74100, Note_on_c, 7, 64, 0
9, 74100, Note_on_c, 7, 67, 0
9, 74160, Note_on_c, 7, 60, 0
9, 74160, Note_on_c, 7, 72, 58
9, 74160, Note_on_c, 7, 65, 60
9, 74160, Note_on_c, 7, 62, 75
9, 74220, Note_on_c, 7, 72, 0
9, 74220, Note_on_c, 7, 71, 80
9, 74280, Note_on_c, 7, 71, 0
9, 74280, Note_on_c, 7, 62, 0
9, 74280, Note_on_c, 7, 65, 0
9, 74280, Note_on_c, 7, 64, 61
9, 74280, Note_on_c, 7, 60, 66
9, 74280, Note_on_c, 7, 69, 73
9, 74340, Note_on_c, 7, 69, 0
9, 74370, Note_on_c, 7, 69, 88
9, 74400, Note_on_c, 7, 69, 0
9, 74400, Note_on_c, 7, 60, 0
9, 74400, Note_on_c, 7, 64, 0
9, 74400, Note_on_c, 7, 67, 68
9, 74400, Note_on_c, 7, 62, 77
9, 74400, Note_on_c, 7, 59, 60
9, 74400, Note_on_c, 7, 50, 80
9, 74460, Note_on_c, 7, 50, 0
9, 74460, Note_on_c, 7, 67, 0
9, 74460, Note_on_c, 7, 62, 0
9, 74460, Note_on_c, 7, 59, 0
9, 74520, Note_on_c, 7, 67, 69
9, 74520, Note_on_c, 7, 62, 74
9, 74520, Note_on_c, 7, 59, 61
9, 74520, Note_on_c, 7, 50, 80
9, 74580, Note_on_c, 7, 50, 0
9, 74580, Note_on_c, 7, 67, 0
9, 74580, Note_on_c, 7, 62, 0
9, 74580, Note_on_c, 7, 59, 0
9, 74640, Note_on_c, 7, 69, 77
9, 74640, Note_on_c, 7, 62, 74
9, 74640, Note_on_c, 7, 60, 61
9, 74640, Note_on_c, 7, 38, 80
9, 74700, Note_on_c, 7, 38, 0
9, 74700, Note_on_c, 7, 69, 0
9, 74700, Note_on_c, 7, 62, 0
9, 74700, Note_on_c, 7, 60, 0
9, 74760, Note_on_c, 7, 66, 79
9, 74760, Note_on_c, 7, 62, 81
9, 74760, Note_on_c, 7, 60, 72
9, 74760, Note_on_c, 7, 38, 68
9, 74820, Note_on_c, 7, 38, 0
9, 74820, Note_on_c, 7, 66, 0
9, 74820, Note_on_c, 7, 62, 0
9, 74820, Note_on_c, 7, 60, 0
9, 74880, Note_on_c, 7, 67, 70
9, 74880, Note_on_c, 7, 62, 84
9, 74880, Note_on_c, 7, 59, 57
9, 74880, Note_on_c, 7, 43, 74
9, 74940, Note_on_c, 7, 43, 0
9, 74940, Note_on_c, 7, 67, 0
9, 74940, Note_on_c, 7, 62, 0
9, 74940, Note_on_c, 7, 59, 0
9, 75000, Note_on_c, 7, 67, 58
9, 75000, Note_on_c, 7, 62, 63
9, 75000, Note_on_c, 7, 59, 63
9, 75000, Note_on_c, 7, 47, 75
9, 75060, Note_on_c, 7, 47, 0
9, 75060, Note_on_c, 7, 67, 0
9, 75060, Note_on_c, 7, 62, 0
9, 75060, Note_on_c, 7, 59, 0
9, 75120, Note_on_c, 7, 69, 72
9, 75120, Note_on_c, 7, 62, 69
9, 75120, Note_on_c, 7, 60, 60
9, 75120, Note_on_c, 7, 50, 81
9, 75180, Note_on_c, 7, 50, 0
9, 75180, Note_on_c, 7, 69, 0
9, 75180, Note_on_c, 7, 62, 0
9, 75180, Note_on_c, 7, 60, 0
9, 75240, Note_on_c, 7, 66, 68
9, 75240, Note_on_c, 7, 62, 77
9, 75240, Note_on_c, 7, 60, 60
9, 75240, Note_on_c, 7, 38, 61
9, 75300, Note_on_c, 7, 38, 0
9, 75300, Note_on_c, 7, 66, 0
9, 75300, Note_on_c, 7, 62, 0
9, 75300, Note_on_c, 7, 60, 0
9, 75360, Note_on_c, 7, 67, 66
9, 75360, Note_on_c, 7, 62, 70
9, 75360, Note_on_c, 7, 59, 66
9, 75360, Note_on_c, 7, 43, 80
9, 75420, Note_on_c, 7, 43, 0
9, 75480, Note_on_c, 7, 55, 66
9, 75540, Note_on_c, 7, 55, 0
9, 75600, Note_on_c, 7, 43, 64
9, 75660, Note_on_c, 7, 43, 0
9, 75720, Note_on_c, 7, 67, 0
9, 75720, Note_on_c, 7, 62, 0
9, 75720, Note_on_c, 7, 59, 0
9, 75720, Note_on_c, 7, 67, 73
9, 75720, Note_on_c, 7, 59, 78
9, 75780, Note_on_c, 7, 59, 0
9, 75780, Note_on_c, 7, 67, 0
9, 75840, Note_on_c, 7, 67, 77
9, 75840, Note_on_c, 7, 59, 63
9, 75900, Note_on_c, 7, 59, 0
9, 75900, Note_on_c, 7, 67, 0
9, 75900, Note_on_c, 7, 69, 69
9, 75900, Note_on_c, 7, 62, 61
9, 75960, Note_on_c, 7, 62, 0
9, 75960, Note_on_c, 7, 69, 0
9, 75960, Note_on_c, 7, 71, 69
9, 75960, Note_on_c, 7, 67, 68
9, 76020, Note_on_c, 7, 67, 0
9, 76020, Note_on_c, 7, 71, 0
9, 76080, Note_on_c, 7, 71, 72
9, 76080, Note_on_c, 7, 67, 58
9, 76140, Note_on_c, 7, 67, 0
9, 76140, Note_on_c, 7, 71, 0
9, 76140, Note_on_c, 7, 69, 73
9, 76200, Note_on_c, 7, 69, 0
9, 76200, Note_on_c, 7, 74, 80
9, 76200, Note_on_c, 7, 71, 78
9, 76260, Note_on_c, 7, 71, 0
9, 76260, Note_on_c, 7, 74, 0
9, 76320, Note_on_c, 7, 74, 83
9, 76320, Note_on_c, 7, 71, 82
9, 76380, Note_on_c, 7, 43, 79
9, 76440, Note_on_c, 7, 43, 0
9, 76440, Note_on_c, 7, 42, 63
9, 76500, Note_on_c, 7, 42, 0
9, 76500, Note_on_c, 7, 43, 81
9, 76560, Note_on_c, 7, 43, 0
9, 76560, Note_on_c, 7, 31, 88
9, 76620, Note_on_c, 7, 31, 0
9, 76680, Note_on_c, 7, 71, 0
9, 76680, Note_on_c, 7, 74, 0
9, 76680, Note_on_c, 7, 71, 82
9, 76680, Note_on_c, 7, 67, 62
9, 76740, Note_on_c, 7, 67, 0
9, 76740, Note_on_c, 7, 71, 0
9, 76800, Note_on_c, 7, 71, 77
9, 76800, Note_on_c, 7, 67, 61
9, 76860, Note_on_c, 7, 67, 0
9, 76860, Note_on_c, 7, 71, 0
9, 76860, Note_on_c, 7, 72, 60
9, 76860, Note_on_c, 7, 69, 82
9, 76920, Note_on_c, 7, 69, 0
9, 76920, Note_on_c, 7, 72, 0
9, 76920, Note_on_c, 7, 74, 69
9, 76920, Note_on_c, 7, 71, 63
9, 76980, Note_on_c, 7, 71, 0
9, 76980, Note_on_c, 7, 74, 0
9, 77040, Note_on_c, 7, 74, 77
9, 77040, Note_on_c, 7, 71, 61
9, 77100, Note_on_c, 7, 71, 0
9, 77100, Note_on_c, 7, 74, 0
9, 77100, Note_on_c, 7, 76, 82
9, 77100, Note_on_c, 7, 72, 58
9, 77160, Note_on_c, 7, 72, 0
9, 77160, Note_on_c, 7, 76, 0
9, 77160, Note_on_c, 7, 77, 58
9, 77160, Note_on_c, 7, 74, 63
9, 77220, Note_on_c, 7, 74, 0
9, 77220, Note_on_c, 7, 77, 0
9, 77280, Note_on_c, 7, 77, 77
9, 77280, Note_on_c, 7, 74, 77
9, 77340, Note_on_c, 7, 55, 78
9, 77400, Note_on_c, 7, 55, 0
9, 77400, Note_on_c, 7, 54, 81
9, 77460, Note_on_c, 7, 54, 0
9, 77460, Note_on_c, 7, 55, 77
9, 77520, Note_on_c, 7, 55, 0
9, 77520, Note_on_c, 7, 43, 73
9, 77640, Note_on_c, 7, 43, 0
9, 77640, Note_on_c, 7, 74, 0
9, 77640, Note_on_c, 7, 77, 0
9, 77640, Note_on_c, 7, 81, 78
9, 77640, Note_on_c, 7, 77, 68
9, 77700, Note_on_c, 7, 77, 0
9, 77700, Note_on_c, 7, 81, 0
9, 77760, Note_on_c, 7, 81, 78
9, 77760, Note_on_c, 7, 77, 78
9, 77820, Note_on_c, 7, 77, 0
9, 77820, Note_on_c, 7, 81, 0
9, 77820, Note_on_c, 7, 79, 80
9, 77820, Note_on_c, 7, 76, 80
9, 77820, Note_on_c, 7, 67, 74
9, 77880, Note_on_c, 7, 67, 0
9, 77880, Note_on_c, 7, 76, 0
9, 77880, Note_on_c, 7, 79, 0
9, 77880, Note_on_c, 7, 77, 74
9, 77880, Note_on_c, 7, 74, 60
9, 77880, Note_on_c, 7, 66, 63
9, 77940, Note_on_c, 7, 66, 0
9, 77940, Note_on_c, 7, 74, 0
9, 77940, Note_on_c, 7, 77, 0
9, 77940, Note_on_c, 7, 67, 57
9, 78000, Note_on_c, 7, 67, 0
9, 78000, Note_on_c, 7, 77, 81
9, 78000, Note_on_c, 7, 74, 68
9, 78000, Note_on_c, 7, 55, 66
9, 78060, Note_on_c, 7, 74, 0
9, 78060, Note_on_c, 7, 77, 0
9, 78120, Note_on_c, 7, 55, 0
9, 78120, Note_on_c, 7, 81, 66
9, 78120, Note_on_c, 7, 77, 63
9, 78180, Note_on_c, 7, 77, 0
9, 78180, Note_on_c, 7, 81, 0
9, 78240, Note_on_c, 7, 81, 68
9, 78240, Note_on_c, 7, 77, 58
9, 78300, Note_on_c, 7, 77, 0
9, 78300, Note_on_c, 7, 81, 0
9, 78300, Note_on_c, 7, 79, 70
9, 78300, Note_on_c, 7, 76, 74
9, 78300, Note_on_c, 7, 55, 58
9, 78360, Note_on_c, 7, 55, 0
9, 78360, Note_on_c, 7, 76, 0
9, 78360, Note_on_c, 7, 79, 0
9, 78360, Note_on_c, 7, 77, 79
9, 78360, Note_on_c, 7, 74, 74
9, 78360, Note_on_c, 7, 54, 69
9, 78420, Note_on_c, 7, 54, 0
9, 78420, Note_on_c, 7, 74, 0
9, 78420, Note_on_c, 7, 77, 0
9, 78420, Note_on_c, 7, 55, 60
9, 78480, Note_on_c, 7, 55, 0
9, 78480, Note_on_c, 7, 77, 69
9, 78480, Note_on_c, 7, 74, 70
9, 78480, Note_on_c, 7, 43, 58
9, 78540, Note_on_c, 7, 74, 0
9, 78540, Note_on_c, 7, 77, 0
9, 78600, Note_on_c, 7, 43, 0
9, 78600, Note_on_c, 7, 81, 78
9, 78600, Note_on_c, 7, 77, 77
9, 78660, Note_on_c, 7, 77, 0
9, 78660, Note_on_c, 7, 81, 0
9, 78720, Note_on_c, 7, 81, 80
9, 78720, Note_on_c, 7, 77, 84
9, 78780, Note_on_c, 7, 77, 0
9, 78780, Note_on_c, 7, 81, 0
9, 78780, Note_on_c, 7, 79, 73
9, 78780, Note_on_c, 7, 76, 78
9, 78840, Note_on_c, 7, 76, 0
9, 78840, Note_on_c, 7, 79, 0
9, 78840, Note_on_c, 7, 77, 81
9, 78840, Note_on_c, 7, 74, 75
9, 78840, Note_on_c, 7, 68, 79
9, 78900, Note_on_c, 7, 68, 0
9, 78900, Note_on_c, 7, 74, 0
9, 78900, Note_on_c, 7, 77, 0
9, 78960, Note_on_c, 7, 77, 74
9, 78960, Note_on_c, 7, 74, 80
9, 78960, Note_on_c, 7, 69, 75
9, 79020, Note_on_c, 7, 69, 0
9, 79020, Note_on_c, 7, 74, 0
9, 79020, Note_on_c, 7, 77, 0
9, 79020, Note_on_c, 7, 76, 68
9, 79020, Note_on_c, 7, 72, 49
9, 79080, Note_on_c, 7, 72, 0
9, 79080, Note_on_c, 7, 76, 0
9, 79080, Note_on_c, 7, 74, 66
9, 79080, Note_on_c, 7, 69, 78
9, 79080, Note_on_c, 7, 65, 70
9, 79140, Note_on_c, 7, 65, 0
9, 79140, Note_on_c, 7, 69, 0
9, 79140, Note_on_c, 7, 74, 0
9, 79170, Note_on_c, 7, 74, 85
9, 79200, Note_on_c, 7, 74, 0
9, 79200, Note_on_c, 7, 72, 68
9, 79200, Note_on_c, 7, 67, 74
9, 79200, Note_on_c, 7, 64, 81
9, 79200, Note_on_c, 7, 55, 70
9, 79260, Note_on_c, 7, 55, 0
9, 79260, Note_on_c, 7, 72, 0
9, 79260, Note_on_c, 7, 67, 0
9, 79260, Note_on_c, 7, 64, 0
9, 79320, Note_on_c, 7, 72, 63
9, 79320, Note_on_c, 7, 67, 61
9, 79320, Note_on_c, 7, 64, 58
9, 79320, Note_on_c, 7, 55, 61
9, 79380, Note_on_c, 7, 55, 0
9, 79380, Note_on_c, 7, 72, 0
9, 79380, Note_on_c, 7, 67, 0
9, 79380, Note_on_c, 7, 64, 0
9, 79440, Note_on_c, 7, 74, 73
9, 79440, Note_on_c, 7, 67, 61
9, 79440, Note_on_c, 7, 65, 77
9, 79440, Note_on_c, 7, 55, 72
9, 79500, Note_on_c, 7, 55, 0
9, 79500, Note_on_c, 7, 74, 0
9, 79500, Note_on_c, 7, 67, 0
9, 79500, Note_on_c, 7, 65, 0
9, 79560, Note_on_c, 7, 71, 75
9, 79560, Note_on_c, 7, 67, 61
9, 79560, Note_on_c, 7, 62, 69
9, 79560, Note_on_c, 7, 55, 78
9, 79620, Note_on_c, 7, 55, 0
9, 79620, Note_on_c, 7, 71, 0
9, 79620, Note_on_c, 7, 67, 0
9, 79620, Note_on_c, 7, 62, 0
9, 79680, Note_on_c, 7, 72, 70
9, 79680, Note_on_c, 7, 64, 68
9, 79680, Note_on_c, 7, 60, 61
9, 79740, Note_on_c, 7, 72, 0
9, 79740, Note_on_c, 7, 74, 81
9, 79800, Note_on_c, 7, 74, 0
9, 79800, Note_on_c, 7, 76, 78
9, 79860, Note_on_c, 7, 76, 0
9, 79860, Note_on_c, 7, 77, 68
9, 79920, Note_on_c, 7, 77, 0
9, 79920, Note_on_c, 7, 60, 0
9, 79920, Note_on_c, 7, 64, 0
9, 79920, Note_on_c, 7, 79, 60
9, 79980, Note_on_c, 7, 79, 0
9, 79980, Note_on_c, 7, 81, 60
9, 80040, Note_on_c, 7, 81, 0
9, 80040, Note_on_c, 7, 83, 60
9, 80100, Note_on_c, 7, 83, 0
9, 80100, Note_on_c, 7, 84, 68
9, 80160, Note_on_c, 7, 84, 0
9, 80160, Note_on_c, 7, 86, 66
9, 80160, Note_on_c, 7, 77, 61
9, 80160, Note_on_c, 7, 74, 84
9, 80160, Note_on_c, 7, 67, 61
9, 80220, Note_on_c, 7, 67, 0
9, 80220, Note_on_c, 7, 86, 0
9, 80220, Note_on_c, 7, 77, 0
9, 80220, Note_on_c, 7, 74, 0
9, 80280, Note_on_c, 7, 88, 63
9, 80280, Note_on_c, 7, 76, 60
9, 80280, Note_on_c, 7, 72, 44
9, 80280, Note_on_c, 7, 67, 66
9, 80340, Note_on_c, 7, 67, 0
9, 80340, Note_on_c, 7, 88, 0
9, 80340, Note_on_c, 7, 76, 0
9, 80340, Note_on_c, 7, 72, 0
9, 80400, Note_on_c, 7, 89, 69
9, 80400, Note_on_c, 7, 74, 74
9, 80400, Note_on_c, 7, 71, 73
9, 80400, Note_on_c, 7, 67, 57
9, 80460, Note_on_c, 7, 67, 0
9, 80460, Note_on_c, 7, 89, 0
9, 80460, Note_on_c, 7, 74, 0
9, 80460, Note_on_c, 7, 71, 0
9, 80520, Note_on_c, 7, 86, 77
9, 80520, Note_on_c, 7, 77, 66
9, 80520, Note_on_c, 7, 74, 90
9, 80520, Note_on_c, 7, 67, 63
9, 80580, Note_on_c, 7, 67, 0
9, 80580, Note_on_c, 7, 86, 0
9, 80580, Note_on_c, 7, 77, 0
9, 80580, Note_on_c, 7, 74, 0
9, 80640, Note_on_c, 7, 84, 73
9, 80640, Note_on_c, 7, 76, 68
9, 80640, Note_on_c, 7, 72, 57
9, 80700, Note_on_c, 7, 84, 0
9, 80700, Note_on_c, 7, 83, 74
9, 80760, Note_on_c, 7, 83, 0
9, 80760, Note_on_c, 7, 81, 60
9, 80820, Note_on_c, 7, 81, 0
9, 80820, Note_on_c, 7, 79, 58
9, 80880, Note_on_c, 7, 79, 0
9, 80880, Note_on_c, 7, 72, 0
9, 80880, Note_on_c, 7, 76, 0
9, 80880, Note_on_c, 7, 77, 73
9, 80940, Note_on_c, 7, 77, 0
9, 80940, Note_on_c, 7, 76, 79
9, 81000, Note_on_c, 7, 76, 0
9, 81000, Note_on_c, 7, 74, 68
9, 81060, Note_on_c, 7, 74, 0
9, 81060, Note_on_c, 7, 72, 68
9, 81120, Note_on_c, 7, 72, 0
9, 81120, Note_on_c, 7, 74, 66
9, 81120, Note_on_c, 7, 65, 58
9, 81120, Note_on_c, 7, 62, 63
9, 81120, Note_on_c, 7, 55, 63
9, 81180, Note_on_c, 7, 55, 0
9, 81180, Note_on_c, 7, 74, 0
9, 81180, Note_on_c, 7, 65, 0
9, 81180, Note_on_c, 7, 62, 0
9, 81240, Note_on_c, 7, 76, 60
9, 81240, Note_on_c, 7, 64, 57
9, 81240, Note_on_c, 7, 60, 57
9, 81240, Note_on_c, 7, 55, 58
9, 81300, Note_on_c, 7, 55, 0
9, 81300, Note_on_c, 7, 76, 0
9, 81300, Note_on_c, 7, 64, 0
9, 81300, Note_on_c, 7, 60, 0
9, 81360, Note_on_c, 7, 77, 75
9, 81360, Note_on_c, 7, 62, 58
9, 81360, Note_on_c, 7, 59, 73
9, 81360, Note_on_c, 7, 55, 63
9, 81420, Note_on_c, 7, 55, 0
9, 81420, Note_on_c, 7, 77, 0
9, 81420, Note_on_c, 7, 62, 0
9, 81420, Note_on_c, 7, 59, 0
9, 81480, Note_on_c, 7, 71, 73
9, 81480, Note_on_c, 7, 65, 67
9, 81480, Note_on_c, 7, 55, 74
9, 81480, Note_on_c, 7, 43, 80
9, 81540, Note_on_c, 7, 43, 0
9, 81540, Note_on_c, 7, 71, 0
9, 81540, Note_on_c, 7, 65, 0
9, 81540, Note_on_c, 7, 55, 0
9, 81600, Note_on_c, 7, 72, 74
9, 81600, Note_on_c, 7, 64, 58
9, 81600, Note_on_c, 7, 55, 62
9, 81600, Note_on_c, 7, 48, 69
9, 81660, Note_on_c, 7, 48, 0
9, 81660, Note_on_c, 7, 72, 0
9, 81660, Note_on_c, 7, 64, 0
9, 81660, Note_on_c, 7, 55, 0
9, 81720, Note_on_c, 7, 74, 84
9, 81720, Note_on_c, 7, 65, 69
9, 81720, Note_on_c, 7, 55, 66
9, 81720, Note_on_c, 7, 43, 78
9, 81780, Note_on_c, 7, 43, 0
9, 81780, Note_on_c, 7, 74, 0
9, 81780, Note_on_c, 7, 65, 0
9, 81780, Note_on_c, 7, 55, 0
9, 81840, Note_on_c, 7, 72, 80
9, 81840, Note_on_c, 7, 64, 69
9, 81840, Note_on_c, 7, 55, 63
9, 81840, Note_on_c, 7, 48, 78
9, 81900, Note_on_c, 7, 48, 0
9, 81900, Note_on_c, 7, 72, 0
9, 81900, Note_on_c, 7, 64, 0
9, 81900, Note_on_c, 7, 55, 0
9, 81960, Note_on_c, 7, 74, 78
9, 81960, Note_on_c, 7, 65, 68
9, 81960, Note_on_c, 7, 55, 66
9, 81960, Note_on_c, 7, 43, 82
9, 82020, Note_on_c, 7, 43, 0
9, 82020, Note_on_c, 7, 74, 0
9, 82020, Note_on_c, 7, 65, 0
9, 82020, Note_on_c, 7, 55, 0
9, 82080, Note_on_c, 7, 72, 83
9, 82080, Note_on_c, 7, 64, 72
9, 82080, Note_on_c, 7, 55, 68
9, 82080, Note_on_c, 7, 48, 78
9, 82320, Note_on_c, 7, 48, 0
9, 82320, Note_on_c, 7, 72, 0
9, 82320, Note_on_c, 7, 64, 0
9, 82320, Note_on_c, 7, 55, 0
9, 91980, Note_on_c, 7, 76, 74
9, 92040, Note_on_c, 7, 76, 0
9, 92040, Note_on_c, 7, 75, 77
9, 92100, Note_on_c, 7, 75, 0
9, 92100, Note_on_c, 7, 76, 81
9, 92160, Note_on_c, 7, 76, 0
9, 92160, Note_on_c, 7, 81, 77
9, 92160, Note_on_c, 7, 45, 77
9, 92220, Note_on_c, 7, 45, 0
9, 92280, Note_on_c, 7, 81, 0
9, 92280, Note_on_c, 7, 76, 80
9, 92280, Note_on_c, 7, 60, 62
9, 92340, Note_on_c, 7, 60, 0
9, 92400, Note_on_c, 7, 76, 0
9, 92400, Note_on_c, 7, 48, 57
9, 92460, Note_on_c, 7, 48, 0
9, 92460, Note_on_c, 7, 76, 80
9, 92520, Note_on_c, 7, 76, 0
9, 92520, Note_on_c, 7, 75, 63
9, 92520, Note_on_c, 7, 64, 79
9, 92580, Note_on_c, 7, 64, 0
9, 92580, Note_on_c, 7, 75, 0
9, 92580, Note_on_c, 7, 76, 83
9, 92640, Note_on_c, 7, 76, 0
9, 92640, Note_on_c, 7, 77, 99
9, 92640, Note_on_c, 7, 47, 104
9, 92700, Note_on_c, 7, 47, 0
9, 92760, Note_on_c, 7, 77, 0
9, 92760, Note_on_c, 7, 76, 93
9, 92760, Note_on_c, 7, 62, 83
9, 92820, Note_on_c, 7, 62, 0
9, 92880, Note_on_c, 7, 76, 0
9, 92880, Note_on_c, 7, 40, 78
9, 92940, Note_on_c, 7, 40, 0
9, 92940, Note_on_c, 7, 76, 89
9, 93000, Note_on_c, 7, 76, 0
9, 93000, Note_on_c, 7, 75, 79
9, 93000, Note_on_c, 7, 59, 84
9, 93060, Note_on_c, 7, 59, 0
9, 93060, Note_on_c, 7, 75, 0
9, 93060, Note_on_c, 7, 76, 92
9, 93120, Note_on_c, 7, 76, 0
9, 93120, Note_on_c, 7, 81, 84
9, 93120, Note_on_c, 7, 45, 81
9, 93180, Note_on_c, 7, 45, 0
9, 93240, Note_on_c, 7, 81, 0
9, 93240, Note_on_c, 7, 76, 85
9, 93240, Note_on_c, 7, 60, 78
9, 93300, Note_on_c, 7, 60, 0
9, 93360, Note_on_c, 7, 76, 0
9, 93360, Note_on_c, 7, 48, 82
9, 93420, Note_on_c, 7, 48, 0
9, 93420, Note_on_c, 7, 76, 81
9, 93480, Note_on_c, 7, 76, 0
9, 93480, Note_on_c, 7, 75, 78
9, 93480, Note_on_c, 7, 64, 93
9, 93540, Note_on_c, 7, 64, 0
9, 93540, Note_on_c, 7, 75, 0
9, 93540, Note_on_c, 7, 76, 88
9, 93600, Note_on_c, 7, 76, 0
9, 93600, Note_on_c, 7, 77, 99
9, 93600, Note_on_c, 7, 47, 105
9, 93660, Note_on_c, 7, 47, 0
9, 93720, Note_on_c, 7, 77, 0
9, 93720, Note_on_c, 7, 76, 97
9, 93720, Note_on_c, 7, 62, 97
9, 93780, Note_on_c, 7, 62, 0
9, 93840, Note_on_c, 7, 76, 0
9, 93840, Note_on_c, 7, 40, 93
9, 93900, Note_on_c, 7, 40, 0
9, 93900, Note_on_c, 7, 76, 92
9, 93960, Note_on_c, 7, 76, 0
9, 93960, Note_on_c, 7, 75, 79
9, 93960, Note_on_c, 7, 59, 84
9, 94020, Note_on_c, 7, 59, 0
9, 94020, Note_on_c, 7, 75, 0
9, 94020, Note_on_c, 7, 76, 92
9, 94080, Note_on_c, 7, 76, 0
9, 94080, Note_on_c, 7, 81, 83
9, 94080, Note_on_c, 7, 45, 88
9, 94140, Note_on_c, 7, 45, 0
9, 94200, Note_on_c, 7, 81, 0
9, 94200, Note_on_c, 7, 76, 77
9, 94200, Note_on_c, 7, 60, 81
9, 94260, Note_on_c, 7, 60, 0
9, 94320, Note_on_c, 7, 76, 0
9, 94320, Note_on_c, 7, 48, 67
9, 94380, Note_on_c, 7, 48, 0
9, 94380, Note_on_c, 7, 76, 84
9, 94440, Note_on_c, 7, 76, 0
9, 94440, Note_on_c, 7, 75, 78
9, 94440, Note_on_c, 7, 64, 84
9, 94500, Note_on_c, 7, 64, 0
9, 94500, Note_on_c, 7, 75, 0
9, 94500, Note_on_c, 7, 76, 93
9, 94560, Note_on_c, 7, 76, 0
9, 94560, Note_on_c, 7, 78, 99
9, 94560, Note_on_c, 7, 47, 105
9, 94620, Note_on_c, 7, 47, 0
9, 94680, Note_on_c, 7, 78, 0
9, 94680, Note_on_c, 7, 76, 94
9, 94680, Note_on_c, 7, 64, 88
9, 94740, Note_on_c, 7, 64, 0
9, 94800, Note_on_c, 7, 76, 0
9, 94800, Note_on_c, 7, 46, 89
9, 94860, Note_on_c, 7, 46, 0
9, 94860, Note_on_c, 7, 76, 74
9, 94920, Note_on_c, 7, 76, 0
9, 94920, Note_on_c, 7, 75, 84
9, 94920, Note_on_c, 7, 64, 58
9, 94980, Note_on_c, 7, 64, 0
9, 94980, Note_on_c, 7, 75, 0
9, 94980, Note_on_c, 7, 76, 81
9, 95040, Note_on_c, 7, 76, 0
9, 95040, Note_on_c, 7, 67, 81
9, 95040, Note_on_c, 7, 47, 79
9, 95100, Note_on_c, 7, 47, 0
9, 95100, Note_on_c, 7, 67, 0
9, 95160, Note_on_c, 7, 71, 92
9, 95160, Note_on_c, 7, 64, 81
9, 95220, Note_on_c, 7, 64, 0
9, 95220, Note_on_c, 7, 71, 0
9, 95280, Note_on_c, 7, 66, 89
9, 95280, Note_on_c, 7, 47, 85
9, 95340, Note_on_c, 7, 47, 0
9, 95340, Note_on_c, 7, 66, 0
9, 95400, Note_on_c, 7, 71, 89
9, 95400, Note_on_c, 7, 63, 78
9, 95460, Note_on_c, 7, 63, 0
9, 95460, Note_on_c, 7, 71, 0
9, 95520, Note_on_c, 7, 64, 97
9, 95520, Note_on_c, 7, 52, 93
9, 95760, Note_on_c, 7, 52, 0
9, 95760, Note_on_c, 7, 64, 0
9, 95820, Note_on_c, 7, 76, 67
9, 95820, Note_on_c, 7, 64, 63
9, 95880, Note_on_c, 7, 64, 0
9, 95880, Note_on_c, 7, 76, 0
9, 95880, Note_on_c, 7, 75, 64
9, 95880, Note_on_c, 7, 63, 73
9, 95940, Note_on_c, 7, 63, 0
9, 95940, Note_on_c, 7, 75, 0
9, 95940, Note_on_c, 7, 76, 68
9, 95940, Note_on_c, 7, 64, 77
9, 96000, Note_on_c, 7, 64, 0
9, 96000, Note_on_c, 7, 76, 0
9, 96000, Note_on_c, 7, 81, 68
9, 96000, Note_on_c, 7, 69, 73
9, 96120, Note_on_c, 7, 69, 0
9, 96120, Note_on_c, 7, 81, 0
9, 96120, Note_on_c, 7, 76, 77
9, 96120, Note_on_c, 7, 64, 78
9, 96240, Note_on_c, 7, 64, 0
9, 96240, Note_on_c, 7, 76, 0
9, 96300, Note_on_c, 7, 76, 64
9, 96300, Note_on_c, 7, 64, 77
9, 96360, Note_on_c, 7, 64, 0
9, 96360, Note_on_c, 7, 76, 0
9, 96360, Note_on_c, 7, 75, 60
9, 96360, Note_on_c, 7, 63, 77
9, 96420, Note_on_c, 7, 63, 0
9, 96420, Note_on_c, 7, 75, 0
9, 96420, Note_on_c, 7, 76, 72
9, 96420, Note_on_c, 7, 64, 78
9, 96480, Note_on_c, 7, 64, 0
9, 96480, Note_on_c, 7, 76, 0
9, 96480, Note_on_c, 7, 77, 94
9, 96480, Note_on_c, 7, 65, 94
9, 96600, Note_on_c, 7, 65, 0
9, 96600, Note_on_c, 7, 77, 0
9, 96600, Note_on_c, 7, 76, 80
9, 96600, Note_on_c, 7, 64, 80
9, 96720, Note_on_c, 7, 64, 0
9, 96720, Note_on_c, 7, 76, 0
9, 96780, Note_on_c, 7, 76, 80
9, 96780, Note_on_c, 7, 64, 88
9, 96840, Note_on_c, 7, 64, 0
9, 96840, Note_on_c, 7, 76, 0
9, 96840, Note_on_c, 7, 75, 69
9, 96840, Note_on_c, 7, 63, 72
9, 96900, Note_on_c, 7, 63, 0
9, 96900, Note_on_c, 7, 75, 0
9, 96900, Note_on_c, 7, 76, 74
9, 96900, Note_on_c, 7, 64, 81
9, 96960, Note_on_c, 7, 64, 0
9, 96960, Note_on_c, 7, 76, 0
9, 96960, Note_on_c, 7, 81, 82
9, 96960, Note_on_c, 7, 69, 81
9, 97080, Note_on_c, 7, 69, 0
9, 97080, Note_on_c, 7, 81, 0
9, 97080, Note_on_c, 7, 76, 68
9, 97080, Note_on_c, 7, 64, 68
9, 97200, Note_on_c, 7, 64, 0
9, 97200, Note_on_c, 7, 76, 0
9, 97260, Note_on_c, 7, 76, 74
9, 97260, Note_on_c, 7, 64, 78
9, 97320, Note_on_c, 7, 64, 0
9, 97320, Note_on_c, 7, 76, 0
9, 97320, Note_on_c, 7, 75, 57
9, 97320, Note_on_c, 7, 63, 63
9, 97380, Note_on_c, 7, 63, 0
9, 97380, Note_on_c, 7, 75, 0
9, 97380, Note_on_c, 7, 76, 70
9, 97380, Note_on_c, 7, 64, 80
9, 97440, Note_on_c, 7, 64, 0
9, 97440, Note_on_c, 7, 76, 0
9, 97440, Note_on_c, 7, 77, 98
9, 97440, Note_on_c, 7, 65, 101
9, 97560, Note_on_c, 7, 65, 0
9, 97560, Note_on_c, 7, 77, 0
9, 97560, Note_on_c, 7, 76, 84
9, 97560, Note_on_c, 7, 64, 90
9, 97680, Note_on_c, 7, 64, 0
9, 97680, Note_on_c, 7, 76, 0
9, 97740, Note_on_c, 7, 76, 81
9, 97740, Note_on_c, 7, 64, 82
9, 97800, Note_on_c, 7, 64, 0
9, 97800, Note_on_c, 7, 76, 0
9, 97800, Note_on_c, 7, 75, 77
9, 97800, Note_on_c, 7, 63, 64
9, 97860, Note_on_c, 7, 63, 0
9, 97860, Note_on_c, 7, 75, 0
9, 97860, Note_on_c, 7, 76, 69
9, 97860, Note_on_c, 7, 64, 85
9, 97920, Note_on_c, 7, 64, 0
9, 97920, Note_on_c, 7, 76, 0
9, 97920, Note_on_c, 7, 81, 84
9, 97920, Note_on_c, 7, 69, 81
9, 97980, Note_on_c, 7, 69, 0
9, 97980, Note_on_c, 7, 81, 0
9, 97980, Note_on_c, 7, 76, 83
9, 97980, Note_on_c, 7, 64, 92
9, 98040, Note_on_c, 7, 64, 0
9, 98040, Note_on_c, 7, 76, 0
9, 98040, Note_on_c, 7, 75, 81
9, 98040, Note_on_c, 7, 63, 84
9, 98100, Note_on_c, 7, 63, 0
9, 98100, Note_on_c, 7, 75, 0
9, 98100, Note_on_c, 7, 76, 85
9, 98100, Note_on_c, 7, 64, 94
9, 98160, Note_on_c, 7, 64, 0
9, 98160, Note_on_c, 7, 76, 0
9, 98160, Note_on_c, 7, 78, 84
9, 98160, Note_on_c, 7, 66, 85
9, 98220, Note_on_c, 7, 66, 0
9, 98220, Note_on_c, 7, 78, 0
9, 98220, Note_on_c, 7, 76, 89
9, 98220, Note_on_c, 7, 64, 84
9, 98280, Note_on_c, 7, 64, 0
9, 98280, Note_on_c, 7, 76, 0
9, 98280, Note_on_c, 7, 75, 97
9, 98280, Note_on_c, 7, 63, 83
9, 98340, Note_on_c, 7, 63, 0
9, 98340, Note_on_c, 7, 75, 0
9, 98340, Note_on_c, 7, 76, 92
9, 98340, Note_on_c, 7, 64, 92
9, 98400, Note_on_c, 7, 64, 0
9, 98400, Note_on_c, 7, 76, 0
9, 98400, Note_on_c, 7, 78, 93
9, 98400, Note_on_c, 7, 66, 93
9, 98460, Note_on_c, 7, 66, 0
9, 98460, Note_on_c, 7, 78, 0
9, 98460, Note_on_c, 7, 76, 93
9, 98460, Note_on_c, 7, 64, 98
9, 98520, Note_on_c, 7, 64, 0
9, 98520, Note_on_c, 7, 76, 0
9, 98520, Note_on_c, 7, 75, 94
9, 98520, Note_on_c, 7, 63, 90
9, 98580, Note_on_c, 7, 63, 0
9, 98580, Note_on_c, 7, 75, 0
9, 98580, Note_on_c, 7, 76, 101
9, 98580, Note_on_c, 7, 64, 98
9, 98640, Note_on_c, 7, 64, 0
9, 98640, Note_on_c, 7, 76, 0
9, 98640, Note_on_c, 7, 78, 97
9, 98640, Note_on_c, 7, 66, 94
9, 98700, Note_on_c, 7, 66, 0
9, 98700, Note_on_c, 7, 78, 0
9, 98700, Note_on_c, 7, 76, 97
9, 98700, Note_on_c, 7, 64, 95
9, 98760, Note_on_c, 7, 64, 0
9, 98760, Note_on_c, 7, 76, 0
9, 98760, Note_on_c, 7, 75, 94
9, 98760, Note_on_c, 7, 63, 92
9, 98820, Note_on_c, 7, 63, 0
9, 98820, Note_on_c, 7, 75, 0
9, 98820, Note_on_c, 7, 76, 94
9, 98820, Note_on_c, 7, 64, 95
9, 98880, Note_on_c, 7, 64, 0
9, 98880, Note_on_c, 7, 76, 0
9, 98880, Note_on_c, 7, 67, 99
9, 98880, Note_on_c, 7, 55, 94
9, 98940, Note_on_c, 7, 55, 0
9, 98940, Note_on_c, 7, 67, 0
9, 98940, Note_on_c, 7, 71, 94
9, 98940, Note_on_c, 7, 59, 97
9, 99000, Note_on_c, 7, 59, 0
9, 99000, Note_on_c, 7, 71, 0
9, 99000, Note_on_c, 7, 68, 93
9, 99000, Note_on_c, 7, 56, 94
9, 99060, Note_on_c, 7, 56, 0
9, 99060, Note_on_c, 7, 68, 0
9, 99060, Note_on_c, 7, 71, 97
9, 99060, Note_on_c, 7, 59, 92
9, 99120, Note_on_c, 7, 59, 0
9, 99120, Note_on_c, 7, 71, 0
9, 99120, Note_on_c, 7, 66, 90
9, 99120, Note_on_c, 7, 54, 97
9, 99180, Note_on_c, 7, 54, 0
9, 99180, Note_on_c, 7, 66, 0
9, 99180, Note_on_c, 7, 71, 94
9, 99180, Note_on_c, 7, 59, 93
9, 99240, Note_on_c, 7, 59, 0
9, 99240, Note_on_c, 7, 71, 0
9, 99240, Note_on_c, 7, 69, 95
9, 99240, Note_on_c, 7, 57, 101
9, 99300, Note_on_c, 7, 57, 0
9, 99300, Note_on_c, 7, 69, 0
9, 99300, Note_on_c, 7, 71, 94
9, 99300, Note_on_c, 7, 59, 99
9, 99360, Note_on_c, 7, 59, 0
9, 99360, Note_on_c, 7, 71, 0
9, 99360, Note_on_c, 7, 64, 85
9, 99360, Note_on_c, 7, 52, 80
9, 99480, Note_on_c, 7, 64, 0
9, 99480, Note_on_c, 7, 66, 80
9, 99600, Note_on_c, 7, 66, 0
9, 99600, Note_on_c, 7, 52, 0
9, 99600, Note_on_c, 7, 67, 81
9, 99720, Note_on_c, 7, 67, 0
9, 99720, Note_on_c, 7, 68, 78
9, 99840, Note_on_c, 7, 68, 0
9, 99840, Note_on_c, 7, 73, 74
9, 99840, Note_on_c, 7, 69, 88
9, 99840, Note_on_c, 7, 57, 78
9, 99960, Note_on_c, 7, 57, 0
9, 99960, Note_on_c, 7, 73, 0
9, 99960, Note_on_c, 7, 74, 81
9, 99960, Note_on_c, 7, 59, 60
9, 100080, Note_on_c, 7, 59, 0
9, 100080, Note_on_c, 7, 74, 0
9, 100080, Note_on_c, 7, 75, 66
9, 100080, Note_on_c, 7, 60, 68
9, 100200, Note_on_c, 7, 60, 0
9, 100200, Note_on_c, 7, 75, 0
9, 100200, Note_on_c, 7, 69, 0
9, 100200, Note_on_c, 7, 76, 69
9, 100200, Note_on_c, 7, 67, 58
9, 100200, Note_on_c, 7, 61, 78
9, 100320, Note_on_c, 7, 61, 0
9, 100320, Note_on_c, 7, 67, 0
9, 100320, Note_on_c, 7, 76, 0
9, 100320, Note_on_c, 7, 77, 57
9, 100320, Note_on_c, 7, 65, 67
9, 100320, Note_on_c, 7, 62, 60
9, 100440, Note_on_c, 7, 77, 0
9, 100440, Note_on_c, 7, 76, 68
9, 100560, Note_on_c, 7, 76, 0
9, 100560, Note_on_c, 7, 77, 61
9, 100680, Note_on_c, 7, 77, 0
9, 100680, Note_on_c, 7, 62, 0
9, 100680, Note_on_c, 7, 65, 0
9, 100680, Note_on_c, 7, 81, 61
9, 100680, Note_on_c, 7, 76, 72
9, 100680, Note_on_c, 7, 60, 60
9, 100800, Note_on_c, 7, 60, 0
9, 100800, Note_on_c, 7, 76, 0
9, 100800, Note_on_c, 7, 81, 0
9, 100800, Note_on_c, 7, 79, 61
9, 100800, Note_on_c, 7, 74, 61
9, 100800, Note_on_c, 7, 59, 57
9, 100920, Note_on_c, 7, 59, 0
9, 100920, Note_on_c, 7, 74, 0
9, 100920, Note_on_c, 7, 71, 58
9, 100920, Note_on_c, 7, 55, 63
9, 101040, Note_on_c, 7, 55, 0
9, 101040, Note_on_c, 7, 71, 0
9, 101040, Note_on_c, 7, 57, 63
9, 101160, Note_on_c, 7, 57, 0
9, 101160, Note_on_c, 7, 79, 0
9, 101160, Note_on_c, 7, 77, 58
9, 101160, Note_on_c, 7, 74, 58
9, 101160, Note_on_c, 7, 59, 58
9, 101280, Note_on_c, 7, 59, 0
9, 101280, Note_on_c, 7, 74, 0
9, 101280, Note_on_c, 7, 77, 0
9, 101280, Note_on_c, 7, 76, 61
9, 101280, Note_on_c, 7, 67, 55
9, 101280, Note_on_c, 7, 60, 57
9, 101400, Note_on_c, 7, 60, 0
9, 101400, Note_on_c, 7, 67, 0
9, 101400, Note_on_c, 7, 76, 0
9, 101400, Note_on_c, 7, 79, 60
9, 101400, Note_on_c, 7, 74, 61
9, 101400, Note_on_c, 7, 71, 72
9, 101520, Note_on_c, 7, 71, 0
9, 101520, Note_on_c, 7, 74, 0
9, 101520, Note_on_c, 7, 79, 0
9, 101520, Note_on_c, 7, 77, 61
9, 101520, Note_on_c, 7, 72, 44
9, 101520, Note_on_c, 7, 69, 57
9, 101640, Note_on_c, 7, 69, 0
9, 101640, Note_on_c, 7, 72, 0
9, 101640, Note_on_c, 7, 77, 0
9, 101640, Note_on_c, 7, 76, 58
9, 101640, Note_on_c, 7, 71, 58
9, 101640, Note_on_c, 7, 67, 44
9, 101760, Note_on_c, 7, 67, 0
9, 101760, Note_on_c, 7, 71, 0
9, 101760, Note_on_c, 7, 76, 0
9, 101760, Note_on_c, 7, 74, 57
9, 101760, Note_on_c, 7, 69, 61
9, 101760, Note_on_c, 7, 65, 58
9, 101880, Note_on_c, 7, 65, 0
9, 101880, Note_on_c, 7, 69, 0
9, 101880, Note_on_c, 7, 74, 0
9, 101880, Note_on_c, 7, 72, 44
9, 101880, Note_on_c, 7, 67, 57
9, 101880, Note_on_c, 7, 64, 63
9, 102000, Note_on_c, 7, 64, 0
9, 102000, Note_on_c, 7, 67, 0
9, 102000, Note_on_c, 7, 72, 0
9, 102000, Note_on_c, 7, 71, 44
9, 102000, Note_on_c, 7, 65, 57
9, 102000, Note_on_c, 7, 62, 61
9, 102120, Note_on_c, 7, 62, 0
9, 102120, Note_on_c, 7, 65, 0
9, 102120, Note_on_c, 7, 71, 0
9, 102120, Note_on_c, 7, 72, 50
9, 102120, Note_on_c, 7, 64, 60
9, 102120, Note_on_c, 7, 60, 57
9, 102240, Note_on_c, 7, 60, 0
9, 102240, Note_on_c, 7, 64, 0
9, 102240, Note_on_c, 7, 72, 0
9, 102240, Note_on_c, 7, 73, 52
9, 102240, Note_on_c, 7, 69, 58
9, 102240, Note_on_c, 7, 53, 58
9, 102360, Note_on_c, 7, 73, 0
9, 102360, Note_on_c, 7, 74, 58
9, 102480, Note_on_c, 7, 53, 0
9, 102480, Note_on_c, 7, 69, 0
9, 102480, Note_on_c, 7, 65, 60
9, 102480, Note_on_c, 7, 55, 58
9, 102600, Note_on_c, 7, 74, 0
9, 102600, Note_on_c, 7, 71, 66
9, 102720, Note_on_c, 7, 71, 0
9, 102720, Note_on_c, 7, 55, 0
9, 102720, Note_on_c, 7, 65, 0
9, 102720, Note_on_c, 7, 64, 61
9, 102720, Note_on_c, 7, 48, 57
9, 102780, Note_on_c, 7, 48, 0
9, 102780, Note_on_c, 7, 64, 0
9, 102780, Note_on_c, 7, 76, 57
9, 102780, Note_on_c, 7, 60, 73
9, 102840, Note_on_c, 7, 60, 0
9, 102840, Note_on_c, 7, 76, 0
9, 102840, Note_on_c, 7, 67, 58
9, 102840, Note_on_c, 7, 47, 69
9, 102900, Note_on_c, 7, 47, 0
9, 102900, Note_on_c, 7, 67, 0
9, 102900, Note_on_c, 7, 79, 77
9, 102900, Note_on_c, 7, 59, 68
9, 102960, Note_on_c, 7, 59, 0
9, 102960, Note_on_c, 7, 79, 0
9, 102960, Note_on_c, 7, 65, 68
9, 102960, Note_on_c, 7, 45, 83
9, 103020, Note_on_c, 7, 45, 0
9, 103020, Note_on_c, 7, 65, 0
9, 103020, Note_on_c, 7, 77, 81
9, 103020, Note_on_c, 7, 57, 85
9, 103080, Note_on_c, 7, 57, 0
9, 103080, Note_on_c, 7, 77, 0
9, 103080, Note_on_c, 7, 64, 80
9, 103080, Note_on_c, 7, 43, 97
9, 103140, Note_on_c, 7, 43, 0
9, 103140, Note_on_c, 7, 64, 0
9, 103140, Note_on_c, 7, 76, 78
9, 103140, Note_on_c, 7, 55, 80
9, 103200, Note_on_c, 7, 55, 0
9, 103200, Note_on_c, 7, 76, 0
9, 103200, Note_on_c, 7, 62, 78
9, 103200, Note_on_c, 7, 41, 94
9, 103260, Note_on_c, 7, 41, 0
9, 103260, Note_on_c, 7, 62, 0
9, 103260, Note_on_c, 7, 74, 94
9, 103260, Note_on_c, 7, 53, 89
9, 103320, Note_on_c, 7, 53, 0
9, 103320, Note_on_c, 7, 74, 0
9, 103320, Note_on_c, 7, 60, 85
9, 103320, Note_on_c, 7, 40, 95
9, 103380, Note_on_c, 7, 40, 0
9, 103380, Note_on_c, 7, 60, 0
9, 103380, Note_on_c, 7, 72, 79
9, 103380, Note_on_c, 7, 52, 99
9, 103440, Note_on_c, 7, 52, 0
9, 103440, Note_on_c, 7, 72, 0
9, 103440, Note_on_c, 7, 59, 92
9, 103440, Note_on_c, 7, 38, 97
9, 103500, Note_on_c, 7, 38, 0
9, 103500, Note_on_c, 7, 59, 0
9, 103500, Note_on_c, 7, 71, 94
9, 103500, Note_on_c, 7, 50, 94
9, 103560, Note_on_c, 7, 50, 0
9, 103560, Note_on_c, 7, 71, 0
9, 103560, Note_on_c, 7, 60, 89
9, 103560, Note_on_c, 7, 36, 98
9, 103620, Note_on_c, 7, 36, 0
9, 103620, Note_on_c, 7, 60, 0
9, 103620, Note_on_c, 7, 72, 88
9, 103620, Note_on_c, 7, 48, 99
9, 103680, Note_on_c, 7, 48, 0
9, 103680, Note_on_c, 7, 72, 0
9, 103680, Note_on_c, 7, 73, 93
9, 103680, Note_on_c, 7, 61, 85
9, 103680, Note_on_c, 7, 41, 94
9, 103800, Note_on_c, 7, 41, 0
9, 103800, Note_on_c, 7, 61, 0
9, 103800, Note_on_c, 7, 73, 0
9, 103800, Note_on_c, 7, 74, 94
9, 103800, Note_on_c, 7, 62, 92
9, 103800, Note_on_c, 7, 53, 97
9, 103920, Note_on_c, 7, 53, 0
9, 103920, Note_on_c, 7, 43, 95
9, 104040, Note_on_c, 7, 43, 0
9, 104040, Note_on_c, 7, 62, 0
9, 104040, Note_on_c, 7, 74, 0
9, 104040, Note_on_c, 7, 71, 99
9, 104040, Note_on_c, 7, 59, 99
9, 104040, Note_on_c, 7, 55, 97
9, 104160, Note_on_c, 7, 55, 0
9, 104160, Note_on_c, 7, 59, 0
9, 104160, Note_on_c, 7, 71, 0
9, 104160, Note_on_c, 7, 72, 84
9, 104160, Note_on_c, 7, 60, 93
9, 104160, Note_on_c, 7, 48, 94
9, 104400, Note_on_c, 7, 48, 0
9, 104400, Note_on_c, 7, 60, 0
9, 104400, Note_on_c, 7, 72, 0
9, 108780, Note_on_c, 7, 76, 74
9, 108840, Note_on_c, 7, 76, 0
9, 108840, Note_on_c, 7, 75, 77
9, 108900, Note_on_c, 7, 75, 0
9, 108900, Note_on_c, 7, 76, 81
9, 108960, Note_on_c, 7, 76, 0
9, 108960, Note_on_c, 7, 81, 77
9, 108960, Note_on_c, 7, 45, 77
9, 109020, Note_on_c, 7, 45, 0
9, 109080, Note_on_c, 7, 81, 0
9, 109080, Note_on_c, 7, 76, 80
9, 109080, Note_on_c, 7, 60, 62
9, 109140, Note_on_c, 7, 60, 0
9, 109200, Note_on_c, 7, 76, 0
9, 109200, Note_on_c, 7, 48, 57
9, 109260, Note_on_c, 7, 48, 0
9, 109260, Note_on_c, 7, 76, 80
9, 109320, Note_on_c, 7, 76, 0
9, 109320, Note_on_c, 7, 75, 63
9, 109320, Note_on_c, 7, 64, 79
9, 109380, Note_on_c, 7, 64, 0
9, 109380, Note_on_c, 7, 75, 0
9, 109380, Note_on_c, 7, 76, 83
9, 109440, Note_on_c, 7, 76, 0
9, 109440, Note_on_c, 7, 77, 99
9, 109440, Note_on_c, 7, 47, 104
9, 109500, Note_on_c, 7, 47, 0
9, 109560, Note_on_c, 7, 77, 0
9, 109560, Note_on_c, 7, 76, 93
9, 109560, Note_on_c, 7, 62, 83
9, 109620, Note_on_c, 7, 62, 0
9, 109680, Note_on_c, 7, 76, 0
9, 109680, Note_on_c, 7, 40, 78
9, 109740, Note_on_c, 7, 40, 0
9, 109740, Note_on_c, 7, 76, 89
9, 109800, Note_on_c, 7, 76, 0
9, 109800, Note_on_c, 7, 75, 79
9, 109800, Note_on_c, 7, 59, 84
9, 109860, Note_on_c, 7, 59, 0
9, 109860, Note_on_c, 7, 75, 0
9, 109860, Note_on_c, 7, 76, 92
9, 109920, Note_on_c, 7, 76, 0
9, 109920, Note_on_c, 7, 81, 84
9, 109920, Note_on_c, 7, 45, 81
9, 109980, Note_on_c, 7, 45, 0
9, 110040, Note_on_c, 7, 81, 0
9, 110040, Note_on_c, 7, 76, 85
9, 110040, Note_on_c, 7, 60, 78
9, 110100, Note_on_c, 7, 60, 0
9, 110160, Note_on_c, 7, 76, 0
9, 110160, Note_on_c, 7, 48, 82
9, 110220, Note_on_c, 7, 48, 0
9, 110220, Note_on_c, 7, 76, 81
9, 110280, Note_on_c, 7, 76, 0
9, 110280, Note_on_c, 7, 75, 78
9, 110280, Note_on_c, 7, 64, 93
9, 110340, Note_on_c, 7, 64, 0
9, 110340, Note_on_c, 7, 75, 0
9, 110340, Note_on_c, 7, 76, 88
9, 110400, Note_on_c, 7, 76, 0
9, 110400, Note_on_c, 7, 77, 99
9, 110400, Note_on_c, 7, 47, 105
9, 110460, Note_on_c, 7, 47, 0
9, 110520, Note_on_c, 7, 77, 0
9, 110520, Note_on_c, 7, 76, 97
9, 110520, Note_on_c, 7, 62, 97
9, 110580, Note_on_c, 7, 62, 0
9, 110640, Note_on_c, 7, 76, 0
9, 110640, Note_on_c, 7, 40, 93
9, 110700, Note_on_c, 7, 40, 0
9, 110700, Note_on_c, 7, 76, 92
9, 110760, Note_on_c, 7, 76, 0
9, 110760, Note_on_c, 7, 75, 79
9, 110760, Note_on_c, 7, 59, 84
9, 110820, Note_on_c, 7, 59, 0
9, 110820, Note_on_c, 7, 75, 0
9, 110820, Note_on_c, 7, 76, 92
9, 110880, Note_on_c, 7, 76, 0
9, 110880, Note_on_c, 7, 81, 83
9, 110880, Note_on_c, 7, 45, 88
9, 110940, Note_on_c, 7, 45, 0
9, 111000, Note_on_c, 7, 81, 0
9, 111000, Note_on_c, 7, 76, 77
9, 111000, Note_on_c, 7, 60, 81
9, 111060, Note_on_c, 7, 60, 0
9, 111120, Note_on_c, 7, 76, 0
9, 111120, Note_on_c, 7, 48, 67
9, 111180, Note_on_c, 7, 48, 0
9, 111180, Note_on_c, 7, 76, 84
9, 111240, Note_on_c, 7, 76, 0
9, 111240, Note_on_c, 7, 75, 78
9, 111240, Note_on_c, 7, 64, 84
9, 111300, Note_on_c, 7, 64, 0
9, 111300, Note_on_c, 7, 75, 0
9, 111300, Note_on_c, 7, 76, 93
9, 111360, Note_on_c, 7, 76, 0
9, 111360, Note_on_c, 7, 77, 92
9, 111360, Note_on_c, 7, 50, 74
9, 111420, Note_on_c, 7, 50, 0
9, 111480, Note_on_c, 7, 77, 0
9, 111480, Note_on_c, 7, 74, 78
9, 111480, Note_on_c, 7, 62, 80
9, 111540, Note_on_c, 7, 62, 0
9, 111600, Note_on_c, 7, 74, 0
9, 111600, Note_on_c, 7, 47, 79
9, 111660, Note_on_c, 7, 47, 0
9, 111660, Note_on_c, 7, 74, 78
9, 111720, Note_on_c, 7, 74, 0
9, 111720, Note_on_c, 7, 73, 78
9, 111720, Note_on_c, 7, 59, 79
9, 111780, Note_on_c, 7, 59, 0
9, 111780, Note_on_c, 7, 73, 0
9, 111780, Note_on_c, 7, 74, 78
9, 111840, Note_on_c, 7, 74, 0
9, 111840, Note_on_c, 7, 71, 81
9, 111840, Note_on_c, 7, 52, 90
9, 111900, Note_on_c, 7, 52, 0
9, 111960, Note_on_c, 7, 71, 0
9, 111960, Note_on_c, 7, 76, 81
9, 111960, Note_on_c, 7, 64, 80
9, 112020, Note_on_c, 7, 64, 0
9, 112080, Note_on_c, 7, 76, 0
9, 112080, Note_on_c, 7, 40, 70
9, 112140, Note_on_c, 7, 40, 0
9, 112140, Note_on_c, 7, 76, 88
9, 112200, Note_on_c, 7, 76, 0
9, 112200, Note_on_c, 7, 75, 83
9, 112200, Note_on_c, 7, 52, 78
9, 112260, Note_on_c, 7, 52, 0
9, 112260, Note_on_c, 7, 75, 0
9, 112260, Note_on_c, 7, 76, 79
9, 112320, Note_on_c, 7, 76, 0
9, 112320, Note_on_c, 7, 72, 67
9, 112320, Note_on_c, 7, 45, 80
9, 112380, Note_on_c, 7, 45, 0
9, 112440, Note_on_c, 7, 72, 0
9, 112440, Note_on_c, 7, 76, 80
9, 112440, Note_on_c, 7, 57, 80
9, 112500, Note_on_c, 7, 57, 0
9, 112560, Note_on_c, 7, 76, 0
9, 112560, Note_on_c, 7, 52, 92
9, 112620, Note_on_c, 7, 52, 0
9, 112620, Note_on_c, 7, 76, 90
9, 112680, Note_on_c, 7, 76, 0
9, 112680, Note_on_c, 7, 75, 93
9, 112680, Note_on_c, 7, 48, 84
9, 112740, Note_on_c, 7, 48, 0
9, 112740, Note_on_c, 7, 75, 0
9, 112740, Note_on_c, 7, 76, 89
9, 112800, Note_on_c, 7, 76, 0
9, 112800, Note_on_c, 7, 81, 88
9, 112800, Note_on_c, 7, 45, 80
9, 112860, Note_on_c, 7, 45, 0
9, 112920, Note_on_c, 7, 81, 0
9, 112920, Note_on_c, 7, 76, 68
9, 112920, Note_on_c, 7, 60, 77
9, 112980, Note_on_c, 7, 60, 0
9, 113040, Note_on_c, 7, 76, 0
9, 113040, Note_on_c, 7, 48, 80
9, 113100, Note_on_c, 7, 48, 0
9, 113100, Note_on_c, 7, 76, 81
9, 113160, Note_on_c, 7, 76, 0
9, 113160, Note_on_c, 7, 75, 81
9, 113160, Note_on_c, 7, 64, 88
9, 113220, Note_on_c, 7, 64, 0
9, 113220, Note_on_c, 7, 75, 0
9, 113220, Note_on_c, 7, 76, 88
9, 113280, Note_on_c, 7, 76, 0
9, 113280, Note_on_c, 7, 77, 79
9, 113280, Note_on_c, 7, 50, 83
9, 113340, Note_on_c, 7, 50, 0
9, 113400, Note_on_c, 7, 77, 0
9, 113400, Note_on_c, 7, 74, 88
9, 113400, Note_on_c, 7, 62, 74
9, 113460, Note_on_c, 7, 62, 0
9, 113520, Note_on_c, 7, 74, 0
9, 113520, Note_on_c, 7, 47, 85
9, 113580, Note_on_c, 7, 47, 0
9, 113580, Note_on_c, 7, 74, 89
9, 113640, Note_on_c, 7, 74, 0
9, 113640, Note_on_c, 7, 73, 81
9, 113640, Note_on_c, 7, 59, 66
9, 113700, Note_on_c, 7, 59, 0
9, 113700, Note_on_c, 7, 73, 0
9, 113700, Note_on_c, 7, 74, 89
9, 113760, Note_on_c, 7, 74, 0
9, 113760, Note_on_c, 7, 71, 79
9, 113760, Note_on_c, 7, 52, 92
9, 113820, Note_on_c, 7, 52, 0
9, 113880, Note_on_c, 7, 71, 0
9, 113880, Note_on_c, 7, 76, 75
9, 113880, Note_on_c, 7, 64, 69
9, 113940, Note_on_c, 7, 64, 0
9, 114000, Note_on_c, 7, 76, 0
9, 114000, Note_on_c, 7, 40, 93
9, 114060, Note_on_c, 7, 40, 0
9, 114060, Note_on_c, 7, 76, 88
9, 114120, Note_on_c, 7, 76, 0
9, 114120, Note_on_c, 7, 75, 90
9, 114120, Note_on_c, 7, 52, 83
9, 114180, Note_on_c, 7, 52, 0
9, 114180, Note_on_c, 7, 75, 0
9, 114180, Note_on_c, 7, 76, 97
9, 114240, Note_on_c, 7, 76, 0
9, 114240, Note_on_c, 7, 69, 80
9, 114240, Note_on_c, 7, 57, 69
9, 114240, Note_on_c, 7, 45, 69
9, 114360, Note_on_c, 7, 69, 0
9, 114360, Note_on_c, 7, 71, 82
9, 114480, Note_on_c, 7, 71, 0
9, 114480, Note_on_c, 7, 45, 0
9, 114480, Note_on_c, 7, 57, 0
9, 114480, Note_on_c, 7, 72, 61
9, 114600, Note_on_c, 7, 72, 0
9, 114600, Note_on_c, 7, 73, 61
9, 114720, Note_on_c, 7, 73, 0
9, 114720, Note_on_c, 7, 78, 62
9, 114720, Note_on_c, 7, 74, 61
9, 114720, Note_on_c, 7, 62, 70
9, 114840, Note_on_c, 7, 62, 0
9, 114840, Note_on_c, 7, 78, 0
9, 114840, Note_on_c, 7, 79, 64
9, 114840, Note_on_c, 7, 64, 60
9, 114960, Note_on_c, 7, 64, 0
9, 114960, Note_on_c, 7, 79, 0
9, 114960, Note_on_c, 7, 80, 73
9, 114960, Note_on_c, 7, 65, 69
9, 115080, Note_on_c, 7, 65, 0
9, 115080, Note_on_c, 7, 80, 0
9, 115080, Note_on_c, 7, 74, 0
9, 115080, Note_on_c, 7, 81, 58
9, 115080, Note_on_c, 7, 72, 44
9, 115080, Note_on_c, 7, 66, 72
9, 115200, Note_on_c, 7, 66, 0
9, 115200, Note_on_c, 7, 72, 0
9, 115200, Note_on_c, 7, 81, 0
9, 115200, Note_on_c, 7, 74, 61
9, 115200, Note_on_c, 7, 70, 66
9, 115200, Note_on_c, 7, 67, 82
9, 115320, Note_on_c, 7, 70, 0
9, 115320, Note_on_c, 7, 69, 58
9, 115440, Note_on_c, 7, 69, 0
9, 115440, Note_on_c, 7, 70, 70
9, 115560, Note_on_c, 7, 70, 0
9, 115560, Note_on_c, 7, 67, 0
9, 115560, Note_on_c, 7, 74, 0
9, 115560, Note_on_c, 7, 79, 62
9, 115560, Note_on_c, 7, 71, 58
9, 115560, Note_on_c, 7, 65, 58
9, 115680, Note_on_c, 7, 65, 0
9, 115680, Note_on_c, 7, 71, 0
9, 115680, Note_on_c, 7, 72, 44
9, 115680, Note_on_c, 7, 64, 74
9, 115800, Note_on_c, 7, 64, 0
9, 115800, Note_on_c, 7, 79, 0
9, 115800, Note_on_c, 7, 76, 68
9, 115800, Note_on_c, 7, 60, 66
9, 115920, Note_on_c, 7, 60, 0
9, 115920, Note_on_c, 7, 76, 0
9, 115920, Note_on_c, 7, 77, 61
9, 115920, Note_on_c, 7, 62, 58
9, 116040, Note_on_c, 7, 62, 0
9, 116040, Note_on_c, 7, 77, 0
9, 116040, Note_on_c, 7, 72, 0
9, 116040, Note_on_c, 7, 79, 61
9, 116040, Note_on_c, 7, 70, 77
9, 116040, Note_on_c, 7, 64, 66
9, 116160, Note_on_c, 7, 64, 0
9, 116160, Note_on_c, 7, 70, 0
9, 116160, Note_on_c, 7, 79, 0
9, 116160, Note_on_c, 7, 72, 81
9, 116160, Note_on_c, 7, 69, 66
9, 116160, Note_on_c, 7, 65, 74
9, 116280, Note_on_c, 7, 65, 0
9, 116280, Note_on_c, 7, 69, 0
9, 116280, Note_on_c, 7, 72, 0
9, 116280, Note_on_c, 7, 72, 78
9, 116280, Note_on_c, 7, 67, 67
9, 116280, Note_on_c, 7, 64, 60
9, 116400, Note_on_c, 7, 64, 0
9, 116400, Note_on_c, 7, 67, 0
9, 116400, Note_on_c, 7, 72, 0
9, 116400, Note_on_c, 7, 70, 80
9, 116400, Note_on_c, 7, 65, 80
9, 116400, Note_on_c, 7, 62, 66
9, 116520, Note_on_c, 7, 62, 0
9, 116520, Note_on_c, 7, 65, 0
9, 116520, Note_on_c, 7, 70, 0
9, 116520, Note_on_c, 7, 69, 79
9, 116520, Note_on_c, 7, 64, 73
9, 116520, Note_on_c, 7, 60, 77
9, 116640, Note_on_c, 7, 60, 0
9, 116640, Note_on_c, 7, 64, 0
9, 116640, Note_on_c, 7, 69, 0
9, 116640, Note_on_c, 7, 67, 69
9, 116640, Note_on_c, 7, 62, 68
9, 116640, Note_on_c, 7, 58, 72
9, 116760, Note_on_c, 7, 58, 0
9, 116760, Note_on_c, 7, 62, 0
9, 116760, Note_on_c, 7, 67, 0
9, 116760, Note_on_c, 7, 65, 63
9, 116760, Note_on_c, 7, 60, 67
9, 116760, Note_on_c, 7, 57, 73
9, 116880, Note_on_c, 7, 57, 0
9, 116880, Note_on_c, 7, 60, 0
9, 116880, Note_on_c, 7, 65, 0
9, 116880, Note_on_c, 7, 64, 79
9, 116880, Note_on_c, 7, 58, 60
9, 116880, Note_on_c, 7, 55, 60
9, 117000, Note_on_c, 7, 55, 0
9, 117000, Note_on_c, 7, 58, 0
9, 117000, Note_on_c, 7, 64, 0
9, 117000, Note_on_c, 7, 65, 67
9, 117000, Note_on_c, 7, 57, 70
9, 117000, Note_on_c, 7, 53, 61
9, 117120, Note_on_c, 7, 53, 0
9, 117120, Note_on_c, 7, 57, 0
9, 117120, Note_on_c, 7, 65, 0
9, 117120, Note_on_c, 7, 66, 80
9, 117120, Note_on_c, 7, 62, 68
9, 117120, Note_on_c, 7, 46, 81
9, 117240, Note_on_c, 7, 66, 0
9, 117240, Note_on_c, 7, 67, 78
9, 117360, Note_on_c, 7, 46, 0
9, 117360, Note_on_c, 7, 62, 0
9, 117360, Note_on_c, 7, 58, 58
9, 117360, Note_on_c, 7, 48, 58
9, 117480, Note_on_c, 7, 67, 0
9, 117480, Note_on_c, 7, 64, 58
9, 117600, Note_on_c, 7, 64, 0
9, 117600, Note_on_c, 7, 48, 0
9, 117600, Note_on_c, 7, 58, 0
9, 117600, Note_on_c, 7, 69, 58
9, 117600, Note_on_c, 7, 53, 62
9, 117660, Note_on_c, 7, 53, 0
9, 117660, Note_on_c, 7, 69, 0
9, 117660, Note_on_c, 7, 81, 61
9, 117660, Note_on_c, 7, 65, 74
9, 117720, Note_on_c, 7, 65, 0
9, 117720, Note_on_c, 7, 81, 0
9, 117720, Note_on_c, 7, 72, 44
9, 117720, Note_on_c, 7, 52, 77
9, 117780, Note_on_c, 7, 52, 0
9, 117780, Note_on_c, 7, 72, 0
9, 117780, Note_on_c, 7, 84, 61
9, 117780, Note_on_c, 7, 64, 63
9, 117840, Note_on_c, 7, 64, 0
9, 117840, Note_on_c, 7, 84, 0
9, 117840, Note_on_c, 7, 70, 73
9, 117840, Note_on_c, 7, 50, 77
9, 117900, Note_on_c, 7, 50, 0
9, 117900, Note_on_c, 7, 70, 0
9, 117900, Note_on_c, 7, 82, 63
9, 117900, Note_on_c, 7, 62, 66
9, 117960, Note_on_c, 7, 62, 0
9, 117960, Note_on_c, 7, 82, 0
9, 117960, Note_on_c, 7, 69, 77
9, 117960, Note_on_c, 7, 48, 69
9, 118020, Note_on_c, 7, 48, 0
9, 118020, Note_on_c, 7, 69, 0
9, 118020, Note_on_c, 7, 81, 79
9, 118020, Note_on_c, 7, 60, 82
9, 118080, Note_on_c, 7, 60, 0
9, 118080, Note_on_c, 7, 81, 0
9, 118080, Note_on_c, 7, 67, 80
9, 118080, Note_on_c, 7, 46, 93
9, 118140, Note_on_c, 7, 46, 0
9, 118140, Note_on_c, 7, 67, 0
9, 118140, Note_on_c, 7, 79, 83
9, 118140, Note_on_c, 7, 58, 60
9, 118200, Note_on_c, 7, 58, 0
9, 118200, Note_on_c, 7, 79, 0
9, 118200, Note_on_c, 7, 65, 78
9, 118200, Note_on_c, 7, 45, 94
9, 118260, Note_on_c, 7, 45, 0
9, 118260, Note_on_c, 7, 65, 0
9, 118260, Note_on_c, 7, 77, 89
9, 118260, Note_on_c, 7, 57, 93
9, 118320, Note_on_c, 7, 57, 0
9, 118320, Note_on_c, 7, 77, 0
9, 118320, Note_on_c, 7, 64, 88
9, 118320, Note_on_c, 7, 43, 93
9, 118380, Note_on_c, 7, 43, 0
9, 118380, Note_on_c, 7, 64, 0
9, 118380, Note_on_c, 7, 76, 97
9, 118380, Note_on_c, 7, 55, 93
9, 118440, Note_on_c, 7, 55, 0
9, 118440, Note_on_c, 7, 76, 0
9, 118440, Note_on_c, 7, 65, 99
9, 118440, Note_on_c, 7, 41, 97
9, 118500, Note_on_c, 7, 41, 0
9, 118500, Note_on_c, 7, 65, 0
9, 118500, Note_on_c, 7, 77, 94
9, 118500, Note_on_c, 7, 53, 92
9, 118560, Note_on_c, 7, 53, 0
9, 118560, Note_on_c, 7, 77, 0
9, 118560, Note_on_c, 7, 78, 94
9, 118560, Note_on_c, 7, 66, 92
9, 118560, Note_on_c, 7, 46, 94
9, 118680, Note_on_c, 7, 46, 0
9, 118680, Note_on_c, 7, 66, 0
9, 118680, Note_on_c, 7, 78, 0
9, 118680, Note_on_c, 7, 79, 92
9, 118680, Note_on_c, 7, 67, 89
9, 118680, Note_on_c, 7, 58, 94
9, 118800, Note_on_c, 7, 58, 0
9, 118800, Note_on_c, 7, 48, 95
9, 118920, Note_on_c, 7, 48, 0
9, 118920, Note_on_c, 7, 67, 0
9, 118920, Note_on_c, 7, 79, 0
9, 118920, Note_on_c, 7, 76, 94
9, 118920, Note_on_c, 7, 64, 94
9, 118920, Note_on_c, 7, 60, 94
9, 119040, Note_on_c, 7, 60, 0
9, 119040, Note_on_c, 7, 64, 0
9, 119040, Note_on_c, 7, 76, 0
9, 119040, Note_on_c, 7, 77, 94
9, 119040, Note_on_c, 7, 65, 94
9, 119040, Note_on_c, 7, 53, 85
9, 119040, Note_on_c, 7, 41, 97
9, 119160, Note_on_c, 7, 41, 0
9, 119160, Note_on_c, 7, 77, 0
9, 119160, Note_on_c, 7, 65, 0
9, 119160, Note_on_c, 7, 53, 0
9, 125100, Note_on_c, 7, 76, 74
9, 125160, Note_on_c, 7, 76, 0
9, 125160, Note_on_c, 7, 75, 77
9, 125220, Note_on_c, 7, 75, 0
9, 125220, Note_on_c, 7, 76, 81
9, 125280, Note_on_c, 7, 76, 0
9, 125280, Note_on_c, 7, 81, 77
9, 125280, Note_on_c, 7, 45, 77
9, 125340, Note_on_c, 7, 45, 0
9, 125400, Note_on_c, 7, 81, 0
9, 125400, Note_on_c, 7, 76, 80
9, 125400, Note_on_c, 7, 60, 62
9, 125460, Note_on_c, 7, 60, 0
9, 125520, Note_on_c, 7, 76, 0
9, 125520, Note_on_c, 7, 48, 57
9, 125580, Note_on_c, 7, 48, 0
9, 125580, Note_on_c, 7, 76, 80
9, 125640, Note_on_c, 7, 76, 0
9, 125640, Note_on_c, 7, 75, 63
9, 125640, Note_on_c, 7, 64, 79
9, 125700, Note_on_c, 7, 64, 0
9, 125700, Note_on_c, 7, 75, 0
9, 125700, Note_on_c, 7, 76, 83
9, 125760, Note_on_c, 7, 76, 0
9, 125760, Note_on_c, 7, 77, 99
9, 125760, Note_on_c, 7, 47, 104
9, 125820, Note_on_c, 7, 47, 0
9, 125880, Note_on_c, 7, 77, 0
9, 125880, Note_on_c, 7, 76, 93
9, 125880, Note_on_c, 7, 62, 83
9, 125940, Note_on_c, 7, 62, 0
9, 126000, Note_on_c, 7, 76, 0
9, 126000, Note_on_c, 7, 40, 78
9, 126060, Note_on_c, 7, 40, 0
9, 126060, Note_on_c, 7, 76, 89
9, 126120, Note_on_c, 7, 76, 0
9, 126120, Note_on_c, 7, 75, 79
9, 126120, Note_on_c, 7, 59, 84
9, 126180, Note_on_c, 7, 59, 0
9, 126180, Note_on_c, 7, 75, 0
9, 126180, Note_on_c, 7, 76, 92
9, 126240, Note_on_c, 7, 76, 0
9, 126240, Note_on_c, 7, 81, 84
9, 126240, Note_on_c, 7, 45, 81
9, 126300, Note_on_c, 7, 45, 0
9, 126360, Note_on_c, 7, 81, 0
9, 126360, Note_on_c, 7, 76, 85
9, 126360, Note_on_c, 7, 60, 78
9, 126420, Note_on_c, 7, 60, 0
9, 126480, Note_on_c, 7, 76, 0
9, 126480, Note_on_c, 7, 48, 82
9, 126540, Note_on_c, 7, 48, 0
9, 126540, Note_on_c, 7, 76, 81
9, 126600, Note_on_c, 7, 76, 0
9, 126600, Note_on_c, 7, 75, 78
9, 126600, Note_on_c, 7, 64, 93
9, 126660, Note_on_c, 7, 64, 0
9, 126660, Note_on_c, 7, 75, 0
9, 126660, Note_on_c, 7, 76, 88
9, 126720, Note_on_c, 7, 76, 0
9, 126720, Note_on_c, 7, 77, 99
9, 126720, Note_on_c, 7, 47, 105
9, 126780, Note_on_c, 7, 47, 0
9, 126840, Note_on_c, 7, 77, 0
9, 126840, Note_on_c, 7, 76, 97
9, 126840, Note_on_c, 7, 62, 97
9, 126900, Note_on_c, 7, 62, 0
9, 126960, Note_on_c, 7, 76, 0
9, 126960, Note_on_c, 7, 40, 93
9, 127020, Note_on_c, 7, 40, 0
9, 127020, Note_on_c, 7, 76, 92
9, 127080, Note_on_c, 7, 76, 0
9, 127080, Note_on_c, 7, 75, 79
9, 127080, Note_on_c, 7, 59, 84
9, 127140, Note_on_c, 7, 59, 0
9, 127140, Note_on_c, 7, 75, 0
9, 127140, Note_on_c, 7, 76, 92
9, 127200, Note_on_c, 7, 76, 0
9, 127200, Note_on_c, 7, 81, 92
9, 127200, Note_on_c, 7, 45, 80
9, 127260, Note_on_c, 7, 45, 0
9, 127320, Note_on_c, 7, 81, 0
9, 127320, Note_on_c, 7, 76, 83
9, 127320, Note_on_c, 7, 60, 78
9, 127380, Note_on_c, 7, 60, 0
9, 127440, Note_on_c, 7, 76, 0
9, 127440, Note_on_c, 7, 43, 77
9, 127500, Note_on_c, 7, 43, 0
9, 127500, Note_on_c, 7, 76, 80
9, 127560, Note_on_c, 7, 76, 0
9, 127560, Note_on_c, 7, 75, 80
9, 127560, Note_on_c, 7, 58, 82
9, 127620, Note_on_c, 7, 58, 0
9, 127620, Note_on_c, 7, 75, 0
9, 127620, Note_on_c, 7, 76, 78
9, 127680, Note_on_c, 7, 76, 0
9, 127680, Note_on_c, 7, 77, 78
9, 127680, Note_on_c, 7, 41, 80
9, 127740, Note_on_c, 7, 41, 0
9, 127800, Note_on_c, 7, 77, 0
9, 127800, Note_on_c, 7, 72, 80
9, 127800, Note_on_c, 7, 57, 97
9, 127860, Note_on_c, 7, 57, 0
9, 127920, Note_on_c, 7, 72, 0
9, 127920, Note_on_c, 7, 40, 81
9, 127980, Note_on_c, 7, 40, 0
9, 127980, Note_on_c, 7, 73, 79
9, 128040, Note_on_c, 7, 73, 0
9, 128040, Note_on_c, 7, 71, 66
9, 128040, Note_on_c, 7, 55, 83
9, 128100, Note_on_c, 7, 55, 0
9, 128100, Note_on_c, 7, 71, 0
9, 128100, Note_on_c, 7, 73, 78
9, 128160, Note_on_c, 7, 73, 0
9, 128160, Note_on_c, 7, 74, 83
9, 128160, Note_on_c, 7, 38, 74
9, 128220, Note_on_c, 7, 38, 0
9, 128280, Note_on_c, 7, 74, 0
9, 128280, Note_on_c, 7, 74, 89
9, 128280, Note_on_c, 7, 53, 72
9, 128340, Note_on_c, 7, 53, 0
9, 128400, Note_on_c, 7, 74, 0
9, 128400, Note_on_c, 7, 41, 68
9, 128460, Note_on_c, 7, 41, 0
9, 128520, Note_on_c, 7, 86, 75
9, 128520, Note_on_c, 7, 74, 88
9, 128520, Note_on_c, 7, 57, 80
9, 128580, Note_on_c, 7, 57, 0
9, 128640, Note_on_c, 7, 74, 0
9, 128640, Note_on_c, 7, 86, 0
9, 128640, Note_on_c, 7, 40, 79
9, 128700, Note_on_c, 7, 40, 0
9, 128760, Note_on_c, 7, 84, 81
9, 128760, Note_on_c, 7, 72, 53
9, 128760, Note_on_c, 7, 57, 60
9, 128820, Note_on_c, 7, 57, 0
9, 128880, Note_on_c, 7, 72, 0
9, 128880, Note_on_c, 7, 84, 0
9, 128880, Note_on_c, 7, 40, 83
9, 128940, Note_on_c, 7, 40, 0
9, 129000, Note_on_c, 7, 83, 73
9, 129000, Note_on_c, 7, 71, 81
9, 129000, Note_on_c, 7, 56, 78
9, 129060, Note_on_c, 7, 56, 0
9, 129120, Note_on_c, 7, 71, 0
9, 129120, Note_on_c, 7, 83, 0
9, 129120, Note_on_c, 7, 45, 79
9, 129180, Note_on_c, 7, 45, 0
9, 129180, Note_on_c, 7, 76, 89
9, 129240, Note_on_c, 7, 76, 0
9, 129240, Note_on_c, 7, 88, 89
9, 129240, Note_on_c, 7, 60, 81
9, 129300, Note_on_c, 7, 60, 0
9, 129300, Note_on_c, 7, 88, 0
9, 129300, Note_on_c, 7, 76, 83
9, 129360, Note_on_c, 7, 76, 0
9, 129360, Note_on_c, 7, 43, 84
9, 129420, Note_on_c, 7, 43, 0
9, 129420, Note_on_c, 7, 76, 93
9, 129480, Note_on_c, 7, 76, 0
9, 129480, Note_on_c, 7, 88, 79
9, 129480, Note_on_c, 7, 58, 78
9, 129540, Note_on_c, 7, 58, 0
9, 129540, Note_on_c, 7, 88, 0
9, 129540, Note_on_c, 7, 76, 92
9, 129600, Note_on_c, 7, 76, 0
9, 129600, Note_on_c, 7, 41, 83
9, 129660, Note_on_c, 7, 41, 0
9, 129660, Note_on_c, 7, 77, 84
9, 129720, Note_on_c, 7, 77, 0
9, 129720, Note_on_c, 7, 89, 79
9, 129720, Note_on_c, 7, 57, 97
9, 129780, Note_on_c, 7, 57, 0
9, 129780, Note_on_c, 7, 89, 0
9, 129780, Note_on_c, 7, 77, 85
9, 129840, Note_on_c, 7, 77, 0
9, 129840, Note_on_c, 7, 40, 94
9, 129900, Note_on_c, 7, 40, 0
9, 129900, Note_on_c, 7, 73, 94
9, 129960, Note_on_c, 7, 73, 0
9, 129960, Note_on_c, 7, 85, 80
9, 129960, Note_on_c, 7, 55, 97
9, 130020, Note_on_c, 7, 55, 0
9, 130020, Note_on_c, 7, 85, 0
9, 130020, Note_on_c, 7, 73, 94
9, 130080, Note_on_c, 7, 73, 0
9, 130080, Note_on_c, 7, 38, 97
9, 130140, Note_on_c, 7, 38, 0
9, 130140, Note_on_c, 7, 74, 95
9, 130200, Note_on_c, 7, 74, 0
9, 130200, Note_on_c, 7, 86, 93
9, 130200, Note_on_c, 7, 53, 97
9, 130260, Note_on_c, 7, 53, 0
9, 130260, Note_on_c, 7, 86, 0
9, 130260, Note_on_c, 7, 74, 105
9, 130320, Note_on_c, 7, 74, 0
9, 130320, Note_on_c, 7, 41, 98
9, 130380, Note_on_c, 7, 41, 0
9, 130380, Note_on_c, 7, 74, 110
9, 130440, Note_on_c, 7, 74, 0
9, 130440, Note_on_c, 7, 86, 98
9, 130440, Note_on_c, 7, 57, 105
9, 130500, Note_on_c, 7, 57, 0
9, 130500, Note_on_c, 7, 86, 0
9, 130500, Note_on_c, 7, 74, 107
9, 130560, Note_on_c, 7, 74, 0
9, 130560, Note_on_c, 7, 40, 105
9, 130620, Note_on_c, 7, 40, 0
9, 130620, Note_on_c, 7, 72, 99
9, 130680, Note_on_c, 7, 72, 0
9, 130680, Note_on_c, 7, 84, 95
9, 130680, Note_on_c, 7, 57, 105
9, 130740, Note_on_c, 7, 57, 0
9, 130740, Note_on_c, 7, 84, 0
9, 130740, Note_on_c, 7, 72, 93
9, 130800, Note_on_c, 7, 72, 0
9, 130800, Note_on_c, 7, 40, 107
9, 130860, Note_on_c, 7, 40, 0
9, 130860, Note_on_c, 7, 71, 105
9, 130920, Note_on_c, 7, 71, 0
9, 130920, Note_on_c, 7, 83, 99
9, 130920, Note_on_c, 7, 56, 105
9, 130980, Note_on_c, 7, 56, 0
9, 130980, Note_on_c, 7, 83, 0
9, 130980, Note_on_c, 7, 71, 105
9, 131040, Note_on_c, 7, 71, 0
9, 131040, Note_on_c, 7, 81, 99
9, 131040, Note_on_c, 7, 69, 98
9, 131040, Note_on_c, 7, 45, 103
9, 131280, Note_on_c, 7, 45, 0
9, 131280, Note_on_c, 7, 69, 0
9, 131280, Note_on_c, 7, 81, 0
9, 136200, Note_on_c, 7, 82, 63
9, 136260, Note_on_c, 7, 82, 0
9, 136290, Note_on_c, 7, 82, 66
9, 136320, Note_on_c, 7, 82, 0
9, 136320, Note_on_c, 7, 81, 63
9, 136320, Note_on_c, 7, 62, 62
9, 136320, Note_on_c, 7, 58, 67
9, 136320, Note_on_c, 7, 55, 67
9, 136380, Note_on_c, 7, 81, 0
9, 136440, Note_on_c, 7, 62, 0
9, 136440, Note_on_c, 7, 58, 0
9, 136440, Note_on_c, 7, 55, 0
9, 136440, Note_on_c, 7, 79, 67
9, 136440, Note_on_c, 7, 62, 61
9, 136440, Note_on_c, 7, 58, 63
9, 136440, Note_on_c, 7, 55, 67
9, 136500, Note_on_c, 7, 79, 0
9, 136560, Note_on_c, 7, 62, 0
9, 136560, Note_on_c, 7, 58, 0
9, 136560, Note_on_c, 7, 55, 0
9, 136560, Note_on_c, 7, 79, 67
9, 136560, Note_on_c, 7, 62, 57
9, 136560, Note_on_c, 7, 58, 68
9, 136560, Note_on_c, 7, 55, 67
9, 136620, Note_on_c, 7, 79, 0
9, 136680, Note_on_c, 7, 62, 0
9, 136680, Note_on_c, 7, 58, 0
9, 136680, Note_on_c, 7, 55, 0
9, 136680, Note_on_c, 7, 62, 58
9, 136680, Note_on_c, 7, 58, 63
9, 136680, Note_on_c, 7, 55, 57
9, 136680, Note_on_c, 7, 82, 63
9, 136740, Note_on_c, 7, 82, 0
9, 136770, Note_on_c, 7, 82, 74
9, 136800, Note_on_c, 7, 82, 0
9, 136800, Note_on_c, 7, 55, 0
9, 136800, Note_on_c, 7, 58, 0
9, 136800, Note_on_c, 7, 62, 0
9, 136800, Note_on_c, 7, 81, 78
9, 136800, Note_on_c, 7, 62, 62
9, 136800, Note_on_c, 7, 58, 67
9, 136800, Note_on_c, 7, 55, 67
9, 136860, Note_on_c, 7, 81, 0
9, 136920, Note_on_c, 7, 62, 0
9, 136920, Note_on_c, 7, 58, 0
9, 136920, Note_on_c, 7, 55, 0
9, 136920, Note_on_c, 7, 79, 81
9, 136920, Note_on_c, 7, 62, 62
9, 136920, Note_on_c, 7, 58, 66
9, 136920, Note_on_c, 7, 55, 63
9, 136980, Note_on_c, 7, 79, 0
9, 137040, Note_on_c, 7, 62, 0
9, 137040, Note_on_c, 7, 58, 0
9, 137040, Note_on_c, 7, 55, 0
9, 137040, Note_on_c, 7, 79, 85
9, 137040, Note_on_c, 7, 62, 57
9, 137040, Note_on_c, 7, 58, 66
9, 137040, Note_on_c, 7, 55, 62
9, 137100, Note_on_c, 7, 79, 0
9, 137160, Note_on_c, 7, 62, 0
9, 137160, Note_on_c, 7, 58, 0
9, 137160, Note_on_c, 7, 55, 0
9, 137160, Note_on_c, 7, 62, 66
9, 137160, Note_on_c, 7, 58, 68
9, 137160, Note_on_c, 7, 55, 81
9, 137160, Note_on_c, 7, 82, 75
9, 137220, Note_on_c, 7, 82, 0
9, 137250, Note_on_c, 7, 81, 68
9, 137280, Note_on_c, 7, 81, 0
9, 137280, Note_on_c, 7, 55, 0
9, 137280, Note_on_c, 7, 58, 0
9, 137280, Note_on_c, 7, 62, 0
9, 137280, Note_on_c, 7, 79, 80
9, 137280, Note_on_c, 7, 64, 68
9, 137280, Note_on_c, 7, 62, 67
9, 137280, Note_on_c, 7, 58, 67
9, 137280, Note_on_c, 7, 55, 67
9, 137340, Note_on_c, 7, 79, 0
9, 137400, Note_on_c, 7, 58, 0
9, 137400, Note_on_c, 7, 64, 0
9, 137400, Note_on_c, 7, 62, 0
9, 137400, Note_on_c, 7, 55, 0
9, 137400, Note_on_c, 7, 77, 66
9, 137400, Note_on_c, 7, 64, 66
9, 137400, Note_on_c, 7, 62, 67
9, 137400, Note_on_c, 7, 58, 66
9, 137400, Note_on_c, 7, 55, 62
9, 137460, Note_on_c, 7, 77, 0
9, 137490, Note_on_c, 7, 77, 62
9, 137520, Note_on_c, 7, 77, 0
9, 137520, Note_on_c, 7, 55, 0
9, 137520, Note_on_c, 7, 64, 0
9, 137520, Note_on_c, 7, 62, 0
9, 137520, Note_on_c, 7, 58, 0
9, 137520, Note_on_c, 7, 76, 70
9, 137520, Note_on_c, 7, 64, 66
9, 137520, Note_on_c, 7, 62, 62
9, 137520, Note_on_c, 7, 58, 67
9, 137520, Note_on_c, 7, 55, 60
9, 137580, Note_on_c, 7, 76, 0
9, 137640, Note_on_c, 7, 58, 0
9, 137640, Note_on_c, 7, 64, 0
9, 137640, Note_on_c, 7, 62, 0
9, 137640, Note_on_c, 7, 55, 0
9, 137640, Note_on_c, 7, 64, 68
9, 137640, Note_on_c, 7, 62, 67
9, 137640, Note_on_c, 7, 58, 67
9, 137640, Note_on_c, 7, 55, 62
9, 137640, Note_on_c, 7, 74, 74
9, 137700, Note_on_c, 7, 74, 0
9, 137730, Note_on_c, 7, 76, 87
9, 137760, Note_on_c, 7, 76, 0
9, 137760, Note_on_c, 7, 55, 0
9, 137760, Note_on_c, 7, 64, 0
9, 137760, Note_on_c, 7, 62, 0
9, 137760, Note_on_c, 7, 58, 0
9, 137760, Note_on_c, 7, 74, 78
9, 137760, Note_on_c, 7, 67, 73
9, 137760, Note_on_c, 7, 64, 70
9, 137760, Note_on_c, 7, 57, 82
9, 137880, Note_on_c, 7, 57, 0
9, 137880, Note_on_c, 7, 74, 0
9, 137880, Note_on_c, 7, 67, 0
9, 137880, Note_on_c, 7, 64, 0
9, 137880, Note_on_c, 7, 73, 67
9, 137880, Note_on_c, 7, 67, 67
9, 137880, Note_on_c, 7, 64, 67
9, 137880, Note_on_c, 7, 57, 63
9, 138000, Note_on_c, 7, 57, 0
9, 138000, Note_on_c, 7, 73, 0
9, 138000, Note_on_c, 7, 67, 0
9, 138000, Note_on_c, 7, 64, 0
9, 138000, Note_on_c, 7, 73, 70
9, 138000, Note_on_c, 7, 67, 68
9, 138000, Note_on_c, 7, 64, 66
9, 138000, Note_on_c, 7, 57, 67
9, 138120, Note_on_c, 7, 57, 0
9, 138120, Note_on_c, 7, 73, 0
9, 138120, Note_on_c, 7, 67, 0
9, 138120, Note_on_c, 7, 64, 0
9, 138120, Note_on_c, 7, 67, 78
9, 138120, Note_on_c, 7, 64, 83
9, 138120, Note_on_c, 7, 57, 86
9, 138120, Note_on_c, 7, 73, 78
9, 138150, Note_on_c, 7, 73, 0
9, 138150, Note_on_c, 7, 82, 78
9, 138210, Note_on_c, 7, 82, 0
9, 138210, Note_on_c, 7, 76, 77
9, 138240, Note_on_c, 7, 76, 0
9, 138240, Note_on_c, 7, 67, 0
9, 138240, Note_on_c, 7, 64, 0
9, 138240, Note_on_c, 7, 57, 0
9, 138240, Note_on_c, 7, 74, 68
9, 138240, Note_on_c, 7, 67, 64
9, 138240, Note_on_c, 7, 64, 70
9, 138240, Note_on_c, 7, 57, 84
9, 138360, Note_on_c, 7, 57, 0
9, 138360, Note_on_c, 7, 74, 0
9, 138360, Note_on_c, 7, 67, 0
9, 138360, Note_on_c, 7, 64, 0
9, 138360, Note_on_c, 7, 73, 70
9, 138360, Note_on_c, 7, 67, 66
9, 138360, Note_on_c, 7, 64, 66
9, 138360, Note_on_c, 7, 57, 74
9, 138480, Note_on_c, 7, 57, 0
9, 138480, Note_on_c, 7, 73, 0
9, 138480, Note_on_c, 7, 67, 0
9, 138480, Note_on_c, 7, 64, 0
9, 138480, Note_on_c, 7, 73, 73
9, 138480, Note_on_c, 7, 67, 61
9, 138480, Note_on_c, 7, 64, 62
9, 138480, Note_on_c, 7, 57, 80
9, 138600, Note_on_c, 7, 57, 0
9, 138600, Note_on_c, 7, 73, 0
9, 138600, Note_on_c, 7, 67, 0
9, 138600, Note_on_c, 7, 64, 0
9, 138600, Note_on_c, 7, 67, 79
9, 138600, Note_on_c, 7, 64, 85
9, 138600, Note_on_c, 7, 57, 91
9, 138600, Note_on_c, 7, 73, 86
9, 138630, Note_on_c, 7, 73, 0
9, 138630, Note_on_c, 7, 81, 87
9, 138690, Note_on_c, 7, 81, 0
9, 138690, Note_on_c, 7, 76, 78
9, 138720, Note_on_c, 7, 76, 0
9, 138720, Note_on_c, 7, 67, 0
9, 138720, Note_on_c, 7, 64, 0
9, 138720, Note_on_c, 7, 57, 0
9, 138720, Note_on_c, 7, 74, 79
9, 138720, Note_on_c, 7, 67, 61
9, 138720, Note_on_c, 7, 64, 61
9, 138720, Note_on_c, 7, 57, 69
9, 138840, Note_on_c, 7, 57, 0
9, 138840, Note_on_c, 7, 74, 0
9, 138840, Note_on_c, 7, 67, 0
9, 138840, Note_on_c, 7, 64, 0
9, 138840, Note_on_c, 7, 73, 81
9, 138840, Note_on_c, 7, 67, 60
9, 138840, Note_on_c, 7, 64, 62
9, 138840, Note_on_c, 7, 57, 66
9, 138960, Note_on_c, 7, 57, 0
9, 138960, Note_on_c, 7, 73, 0
9, 138960, Note_on_c, 7, 67, 0
9, 138960, Note_on_c, 7, 64, 0
9, 138960, Note_on_c, 7, 73, 80
9, 138960, Note_on_c, 7, 67, 61
9, 138960, Note_on_c, 7, 64, 61
9, 138960, Note_on_c, 7, 57, 78
9, 139080, Note_on_c, 7, 57, 0
9, 139080, Note_on_c, 7, 73, 0
9, 139080, Note_on_c, 7, 67, 0
9, 139080, Note_on_c, 7, 64, 0
9, 139080, Note_on_c, 7, 67, 81
9, 139080, Note_on_c, 7, 64, 87
9, 139080, Note_on_c, 7, 57, 94
9, 139080, Note_on_c, 7, 73, 92
9, 139110, Note_on_c, 7, 73, 0
9, 139110, Note_on_c, 7, 82, 97
9, 139170, Note_on_c, 7, 82, 0
9, 139200, Note_on_c, 7, 57, 0
9, 139200, Note_on_c, 7, 64, 0
9, 139200, Note_on_c, 7, 67, 0
9, 139200, Note_on_c, 7, 73, 78
9, 139200, Note_on_c, 7, 67, 58
9, 139200, Note_on_c, 7, 64, 57
9, 139200, Note_on_c, 7, 57, 74
9, 139320, Note_on_c, 7, 57, 0
9, 139320, Note_on_c, 7, 73, 0
9, 139320, Note_on_c, 7, 67, 0
9, 139320, Note_on_c, 7, 64, 0
9, 139320, Note_on_c, 7, 73, 81
9, 139320, Note_on_c, 7, 67, 57
9, 139320, Note_on_c, 7, 64, 57
9, 139320, Note_on_c, 7, 57, 72
9, 139350, Note_on_c, 7, 73, 0
9, 139350, Note_on_c, 7, 81, 79
9, 139410, Note_on_c, 7, 81, 0
9, 139440, Note_on_c, 7, 57, 0
9, 139440, Note_on_c, 7, 64, 0
9, 139440, Note_on_c, 7, 67, 0
9, 139440, Note_on_c, 7, 73, 74
9, 139440, Note_on_c, 7, 67, 58
9, 139440, Note_on_c, 7, 64, 58
9, 139440, Note_on_c, 7, 57, 81
9, 139560, Note_on_c, 7, 57, 0
9, 139560, Note_on_c, 7, 73, 0
9, 139560, Note_on_c, 7, 67, 0
9, 139560, Note_on_c, 7, 64, 0
9, 139560, Note_on_c, 7, 67, 53
9, 139560, Note_on_c, 7, 64, 58
9, 139560, Note_on_c, 7, 57, 77
9, 139560, Note_on_c, 7, 73, 79
9, 139590, Note_on_c, 7, 73, 0
9, 139590, Note_on_c, 7, 81, 68
9, 139650, Note_on_c, 7, 81, 0
9, 139650, Note_on_c, 7, 76, 79
9, 139680, Note_on_c, 7, 76, 0
9, 139680, Note_on_c, 7, 67, 0
9, 139680, Note_on_c, 7, 64, 0
9, 139680, Note_on_c, 7, 57, 0
9, 139680, Note_on_c, 7, 74, 70
9, 139680, Note_on_c, 7, 66, 67
9, 139680, Note_on_c, 7, 62, 60
9, 139740, Note_on_c, 7, 74, 0
9, 139800, Note_on_c, 7, 62, 0
9, 139800, Note_on_c, 7, 66, 0
9, 139800, Note_on_c, 7, 72, 79
9, 139800, Note_on_c, 7, 66, 58
9, 139800, Note_on_c, 7, 62, 58
9, 139860, Note_on_c, 7, 72, 0
9, 139920, Note_on_c, 7, 62, 0
9, 139920, Note_on_c, 7, 66, 0
9, 139920, Note_on_c, 7, 72, 74
9, 139920, Note_on_c, 7, 66, 61
9, 139920, Note_on_c, 7, 62, 60
9, 139980, Note_on_c, 7, 72, 0
9, 140040, Note_on_c, 7, 62, 0
9, 140040, Note_on_c, 7, 66, 0
9, 140040, Note_on_c, 7, 66, 81
9, 140040, Note_on_c, 7, 62, 82
9, 140040, Note_on_c, 7, 72, 86
9, 140070, Note_on_c, 7, 72, 0
9, 140070, Note_on_c, 7, 81, 89
9, 140130, Note_on_c, 7, 81, 0
9, 140160, Note_on_c, 7, 62, 0
9, 140160, Note_on_c, 7, 66, 0
9, 140160, Note_on_c, 7, 72, 78
9, 140160, Note_on_c, 7, 66, 61
9, 140160, Note_on_c, 7, 62, 62
9, 140280, Note_on_c, 7, 62, 0
9, 140280, Note_on_c, 7, 66, 0
9, 140280, Note_on_c, 7, 72, 0
9, 140280, Note_on_c, 7, 72, 57
9, 140280, Note_on_c, 7, 66, 66
9, 140280, Note_on_c, 7, 62, 62
9, 140310, Note_on_c, 7, 72, 0
9, 140310, Note_on_c, 7, 81, 78
9, 140370, Note_on_c, 7, 81, 0
9, 140400, Note_on_c, 7, 62, 0
9, 140400, Note_on_c, 7, 66, 0
9, 140400, Note_on_c, 7, 72, 77
9, 140400, Note_on_c, 7, 66, 58
9, 140400, Note_on_c, 7, 62, 60
9, 140520, Note_on_c, 7, 62, 0
9, 140520, Note_on_c, 7, 66, 0
9, 140520, Note_on_c, 7, 72, 0
9, 140520, Note_on_c, 7, 66, 57
9, 140520, Note_on_c, 7, 62, 58
9, 140520, Note_on_c, 7, 72, 77
9, 140550, Note_on_c, 7, 72, 0
9, 140550, Note_on_c, 7, 81, 74
9, 140610, Note_on_c, 7, 81, 0
9, 140610, Note_on_c, 7, 74, 80
9, 140640, Note_on_c, 7, 74, 0
9, 140640, Note_on_c, 7, 62, 0
9, 140640, Note_on_c, 7, 66, 0
9, 140640, Note_on_c, 7, 72, 80
9, 140640, Note_on_c, 7, 65, 57
9, 140640, Note_on_c, 7, 62, 61
9, 140640, Note_on_c, 7, 55, 74
9, 140700, Note_on_c, 7, 72, 0
9, 140760, Note_on_c, 7, 65, 0
9, 140760, Note_on_c, 7, 62, 0
9, 140760, Note_on_c, 7, 55, 0
9, 140760, Note_on_c, 7, 71, 82
9, 140760, Note_on_c, 7, 65, 58
9, 140760, Note_on_c, 7, 62, 58
9, 140760, Note_on_c, 7, 55, 73
9, 140820, Note_on_c, 7, 71, 0
9, 140880, Note_on_c, 7, 65, 0
9, 140880, Note_on_c, 7, 62, 0
9, 140880, Note_on_c, 7, 55, 0
9, 140880, Note_on_c, 7, 71, 78
9, 140880, Note_on_c, 7, 65, 58
9, 140880, Note_on_c, 7, 62, 62
9, 140880, Note_on_c, 7, 55, 69
9, 140940, Note_on_c, 7, 71, 0
9, 141000, Note_on_c, 7, 65, 0
9, 141000, Note_on_c, 7, 62, 0
9, 141000, Note_on_c, 7, 55, 0
9, 141000, Note_on_c, 7, 65, 83
9, 141000, Note_on_c, 7, 62, 88
9, 141000, Note_on_c, 7, 55, 89
9, 141000, Note_on_c, 7, 71, 89
9, 141030, Note_on_c, 7, 71, 0
9, 141030, Note_on_c, 7, 80, 83
9, 141090, Note_on_c, 7, 80, 0
9, 141120, Note_on_c, 7, 55, 0
9, 141120, Note_on_c, 7, 62, 0
9, 141120, Note_on_c, 7, 65, 0
9, 141120, Note_on_c, 7, 71, 84
9, 141120, Note_on_c, 7, 65, 61
9, 141120, Note_on_c, 7, 62, 64
9, 141120, Note_on_c, 7, 55, 66
9, 141240, Note_on_c, 7, 55, 0
9, 141240, Note_on_c, 7, 71, 0
9, 141240, Note_on_c, 7, 65, 0
9, 141240, Note_on_c, 7, 62, 0
9, 141240, Note_on_c, 7, 71, 77
9, 141240, Note_on_c, 7, 65, 60
9, 141240, Note_on_c, 7, 62, 60
9, 141240, Note_on_c, 7, 55, 63
9, 141270, Note_on_c, 7, 71, 0
9, 141270, Note_on_c, 7, 80, 82
9, 141330, Note_on_c, 7, 80, 0
9, 141360, Note_on_c, 7, 55, 0
9, 141360, Note_on_c, 7, 62, 0
9, 141360, Note_on_c, 7, 65, 0
9, 141360, Note_on_c, 7, 71, 83
9, 141360, Note_on_c, 7, 65, 62
9, 141360, Note_on_c, 7, 62, 58
9, 141360, Note_on_c, 7, 55, 73
9, 141480, Note_on_c, 7, 55, 0
9, 141480, Note_on_c, 7, 71, 0
9, 141480, Note_on_c, 7, 65, 0
9, 141480, Note_on_c, 7, 62, 0
9, 141480, Note_on_c, 7, 65, 63
9, 141480, Note_on_c, 7, 62, 63
9, 141480, Note_on_c, 7, 55, 73
9, 141480, Note_on_c, 7, 71, 79
9, 141510, Note_on_c, 7, 71, 0
9, 141510, Note_on_c, 7, 79, 78
9, 141570, Note_on_c, 7, 79, 0
9, 141570, Note_on_c, 7, 74, 84
9, 141600, Note_on_c, 7, 74, 0
9, 141600, Note_on_c, 7, 65, 0
9, 141600, Note_on_c, 7, 62, 0
9, 141600, Note_on_c, 7, 55, 0
9, 141600, Note_on_c, 7, 72, 60
9, 141600, Note_on_c, 7, 64, 61
9, 141600, Note_on_c, 7, 60, 57
9, 141660, Note_on_c, 7, 72, 0
9, 141720, Note_on_c, 7, 60, 0
9, 141720, Note_on_c, 7, 64, 0
9, 141720, Note_on_c, 7, 70, 78
9, 141720, Note_on_c, 7, 64, 63
9, 141720, Note_on_c, 7, 60, 64
9, 141780, Note_on_c, 7, 70, 0
9, 141840, Note_on_c, 7, 60, 0
9, 141840, Note_on_c, 7, 64, 0
9, 141840, Note_on_c, 7, 70, 79
9, 141840, Note_on_c, 7, 64, 73
9, 141840, Note_on_c, 7, 60, 66
9, 141900, Note_on_c, 7, 70, 0
9, 141960, Note_on_c, 7, 60, 0
9, 141960, Note_on_c, 7, 64, 0
9, 141960, Note_on_c, 7, 64, 84
9, 141960, Note_on_c, 7, 60, 79
9, 141960, Note_on_c, 7, 70, 79
9, 141990, Note_on_c, 7, 70, 0
9, 141990, Note_on_c, 7, 79, 78
9, 142050, Note_on_c, 7, 79, 0
9, 142080, Note_on_c, 7, 60, 0
9, 142080, Note_on_c, 7, 64, 0
9, 142080, Note_on_c, 7, 70, 63
9, 142080, Note_on_c, 7, 64, 61
9, 142080, Note_on_c, 7, 60, 62
9, 142200, Note_on_c, 7, 60, 0
9, 142200, Note_on_c, 7, 64, 0
9, 142200, Note_on_c, 7, 70, 0
9, 142200, Note_on_c, 7, 70, 62
9, 142200, Note_on_c, 7, 64, 58
9, 142200, Note_on_c, 7, 60, 60
9, 142230, Note_on_c, 7, 70, 0
9, 142230, Note_on_c, 7, 79, 61
9, 142290, Note_on_c, 7, 79, 0
9, 142320, Note_on_c, 7, 60, 0
9, 142320, Note_on_c, 7, 64, 0
9, 142320, Note_on_c, 7, 70, 61
9, 142320, Note_on_c, 7, 64, 68
9, 142320, Note_on_c, 7, 60, 57
9, 142440, Note_on_c, 7, 60, 0
9, 142440, Note_on_c, 7, 64, 0
9, 142440, Note_on_c, 7, 70, 0
9, 142440, Note_on_c, 7, 64, 61
9, 142440, Note_on_c, 7, 60, 58
9, 142440, Note_on_c, 7, 70, 78
9, 142470, Note_on_c, 7, 70, 0
9, 142470, Note_on_c, 7, 79, 61
9, 142530, Note_on_c, 7, 79, 0
9, 142560, Note_on_c, 7, 60, 0
9, 142560, Note_on_c, 7, 64, 0
9, 142560, Note_on_c, 7, 69, 72
9, 142560, Note_on_c, 7, 60, 58
9, 142560, Note_on_c, 7, 53, 58
9, 142680, Note_on_c, 7, 53, 0
9, 142680, Note_on_c, 7, 60, 0
9, 142680, Note_on_c, 7, 69, 0
9, 142680, Note_on_c, 7, 69, 74
9, 142680, Note_on_c, 7, 60, 63
9, 142680, Note_on_c, 7, 53, 82
9, 142710, Note_on_c, 7, 69, 0
9, 142710, Note_on_c, 7, 77, 68
9, 142770, Note_on_c, 7, 77, 0
9, 142800, Note_on_c, 7, 53, 0
9, 142800, Note_on_c, 7, 60, 0
9, 142800, Note_on_c, 7, 69, 80
9, 142800, Note_on_c, 7, 61, 61
9, 142800, Note_on_c, 7, 53, 63
9, 142920, Note_on_c, 7, 53, 0
9, 142920, Note_on_c, 7, 61, 0
9, 142920, Note_on_c, 7, 69, 0
9, 142920, Note_on_c, 7, 61, 67
9, 142920, Note_on_c, 7, 53, 69
9, 142920, Note_on_c, 7, 69, 64
9, 142950, Note_on_c, 7, 69, 0
9, 142950, Note_on_c, 7, 76, 78
9, 143010, Note_on_c, 7, 76, 0
9, 143040, Note_on_c, 7, 53, 0
9, 143040, Note_on_c, 7, 61, 0
9, 143040, Note_on_c, 7, 69, 80
9, 143040, Note_on_c, 7, 62, 58
9, 143040, Note_on_c, 7, 53, 60
9, 143160, Note_on_c, 7, 53, 0
9, 143160, Note_on_c, 7, 62, 0
9, 143160, Note_on_c, 7, 69, 0
9, 143160, Note_on_c, 7, 69, 97
9, 143160, Note_on_c, 7, 62, 57
9, 143160, Note_on_c, 7, 53, 66
9, 143190, Note_on_c, 7, 69, 0
9, 143190, Note_on_c, 7, 74, 70
9, 143250, Note_on_c, 7, 74, 0
9, 143280, Note_on_c, 7, 53, 0
9, 143280, Note_on_c, 7, 62, 0
9, 143280, Note_on_c, 7, 69, 78
9, 143280, Note_on_c, 7, 62, 58
9, 143280, Note_on_c, 7, 54, 58
9, 143400, Note_on_c, 7, 54, 0
9, 143400, Note_on_c, 7, 62, 0
9, 143400, Note_on_c, 7, 69, 0
9, 143400, Note_on_c, 7, 62, 58
9, 143400, Note_on_c, 7, 54, 61
9, 143400, Note_on_c, 7, 69, 79
9, 143430, Note_on_c, 7, 69, 0
9, 143430, Note_on_c, 7, 72, 81
9, 143490, Note_on_c, 7, 72, 0
9, 143520, Note_on_c, 7, 54, 0
9, 143520, Note_on_c, 7, 62, 0
9, 143520, Note_on_c, 7, 71, 83
9, 143520, Note_on_c, 7, 62, 61
9, 143520, Note_on_c, 7, 55, 81
9, 143640, Note_on_c, 7, 71, 0
9, 143640, Note_on_c, 7, 67, 69
9, 143700, Note_on_c, 7, 67, 0
9, 143700, Note_on_c, 7, 79, 84
9, 143760, Note_on_c, 7, 79, 0
9, 143760, Note_on_c, 7, 55, 0
9, 143760, Note_on_c, 7, 62, 0
9, 143760, Note_on_c, 7, 67, 68
9, 143820, Note_on_c, 7, 67, 0
9, 143820, Note_on_c, 7, 79, 81
9, 143880, Note_on_c, 7, 79, 0
9, 143880, Note_on_c, 7, 67, 74
9, 143940, Note_on_c, 7, 67, 0
9, 143940, Note_on_c, 7, 79, 80
9, 144000, Note_on_c, 7, 79, 0
9, 144000, Note_on_c, 7, 67, 78
9, 144060, Note_on_c, 7, 67, 0
9, 144060, Note_on_c, 7, 79, 83
9, 144120, Note_on_c, 7, 79, 0
9, 144120, Note_on_c, 7, 67, 84
9, 144180, Note_on_c, 7, 67, 0
9, 144180, Note_on_c, 7, 79, 79
9, 144240, Note_on_c, 7, 79, 0
9, 144240, Note_on_c, 7, 67, 77
9, 144300, Note_on_c, 7, 67, 0
9, 144300, Note_on_c, 7, 79, 83
9, 144360, Note_on_c, 7, 79, 0
9, 144360, Note_on_c, 7, 67, 84
9, 144420, Note_on_c, 7, 67, 0
9, 144420, Note_on_c, 7, 79, 81
9, 144480, Note_on_c, 7, 79, 0
9, 144480, Note_on_c, 7, 67, 70
9, 144480, Note_on_c, 7, 31, 88
9, 144540, Note_on_c, 7, 67, 0
9, 144540, Note_on_c, 7, 79, 79
9, 144600, Note_on_c, 7, 79, 0
9, 144600, Note_on_c, 7, 31, 0
9, 144600, Note_on_c, 7, 67, 74
9, 144600, Note_on_c, 7, 43, 74
9, 144660, Note_on_c, 7, 67, 0
9, 144660, Note_on_c, 7, 79, 77
9, 144720, Note_on_c, 7, 79, 0
9, 144720, Note_on_c, 7, 43, 0
9, 144720, Note_on_c, 7, 67, 74
9, 144780, Note_on_c, 7, 67, 0
9, 144780, Note_on_c, 7, 79, 75
9, 144840, Note_on_c, 7, 79, 0
9, 144840, Note_on_c, 7, 67, 77
9, 144900, Note_on_c, 7, 67, 0
9, 144900, Note_on_c, 7, 79, 81
9, 144960, Note_on_c, 7, 79, 0
9, 144960, Note_on_c, 7, 67, 74
9, 145020, Note_on_c, 7, 67, 0
9, 145020, Note_on_c, 7, 79, 80
9, 145080, Note_on_c, 7, 79, 0
9, 145080, Note_on_c, 7, 67, 75
9, 145140, Note_on_c, 7, 67, 0
9, 145140, Note_on_c, 7, 79, 81
9, 145200, Note_on_c, 7, 79, 0
9, 145200, Note_on_c, 7, 67, 67
9, 145260, Note_on_c, 7, 67, 0
9, 145260, Note_on_c, 7, 79, 79
9, 145320, Note_on_c, 7, 79, 0
9, 145320, Note_on_c, 7, 67, 78
9, 145380, Note_on_c, 7, 67, 0
9, 145380, Note_on_c, 7, 79, 84
9, 145440, Note_on_c, 7, 79, 0
9, 145440, Note_on_c, 7, 67, 81
9, 145440, Note_on_c, 7, 31, 88
9, 145500, Note_on_c, 7, 67, 0
9, 145500, Note_on_c, 7, 79, 84
9, 145560, Note_on_c, 7, 79, 0
9, 145560, Note_on_c, 7, 31, 0
9, 145560, Note_on_c, 7, 67, 74
9, 145560, Note_on_c, 7, 43, 69
9, 145620, Note_on_c, 7, 67, 0
9, 145620, Note_on_c, 7, 79, 88
9, 145680, Note_on_c, 7, 79, 0
9, 145680, Note_on_c, 7, 43, 0
9, 145680, Note_on_c, 7, 67, 77
9, 145740, Note_on_c, 7, 67, 0
9, 145740, Note_on_c, 7, 79, 79
9, 145800, Note_on_c, 7, 79, 0
9, 145800, Note_on_c, 7, 67, 77
9, 145860, Note_on_c, 7, 67, 0
9, 145860, Note_on_c, 7, 79, 83
9, 145920, Note_on_c, 7, 79, 0
9, 145920, Note_on_c, 7, 67, 78
9, 145980, Note_on_c, 7, 67, 0
9, 145980, Note_on_c, 7, 79, 78
9, 146040, Note_on_c, 7, 79, 0
9, 146040, Note_on_c, 7, 67, 75
9, 146100, Note_on_c, 7, 67, 0
9, 146100, Note_on_c, 7, 79, 82
9, 146160, Note_on_c, 7, 79, 0
9, 146160, Note_on_c, 7, 67, 69
9, 146220, Note_on_c, 7, 67, 0
9, 146220, Note_on_c, 7, 79, 83
9, 146280, Note_on_c, 7, 79, 0
9, 146280, Note_on_c, 7, 67, 78
9, 146340, Note_on_c, 7, 67, 0
9, 146340, Note_on_c, 7, 79, 81
9, 146400, Note_on_c, 7, 79, 0
9, 146400, Note_on_c, 7, 67, 77
9, 146400, Note_on_c, 7, 31, 88
9, 146460, Note_on_c, 7, 67, 0
9, 146460, Note_on_c, 7, 79, 80
9, 146520, Note_on_c, 7, 79, 0
9, 146520, Note_on_c, 7, 31, 0
9, 146520, Note_on_c, 7, 67, 69
9, 146520, Note_on_c, 7, 43, 81
9, 146580, Note_on_c, 7, 67, 0
9, 146580, Note_on_c, 7, 79, 79
9, 146640, Note_on_c, 7, 79, 0
9, 146640, Note_on_c, 7, 43, 0
9, 146640, Note_on_c, 7, 67, 67
9, 146700, Note_on_c, 7, 67, 0
9, 146700, Note_on_c, 7, 79, 82
9, 146760, Note_on_c, 7, 79, 0
9, 146760, Note_on_c, 7, 67, 72
9, 146820, Note_on_c, 7, 67, 0
9, 146820, Note_on_c, 7, 79, 81
9, 146880, Note_on_c, 7, 79, 0
9, 146880, Note_on_c, 7, 67, 77
9, 146880, Note_on_c, 7, 31, 88
9, 146940, Note_on_c, 7, 67, 0
9, 146940, Note_on_c, 7, 79, 83
9, 147000, Note_on_c, 7, 79, 0
9, 147000, Note_on_c, 7, 31, 0
9, 147000, Note_on_c, 7, 67, 69
9, 147000, Note_on_c, 7, 43, 68
9, 147060, Note_on_c, 7, 67, 0
9, 147060, Note_on_c, 7, 79, 81
9, 147120, Note_on_c, 7, 79, 0
9, 147120, Note_on_c, 7, 43, 0
9, 147120, Note_on_c, 7, 67, 63
9, 147180, Note_on_c, 7, 67, 0
9, 147180, Note_on_c, 7, 79, 73
9, 147240, Note_on_c, 7, 79, 0
9, 147240, Note_on_c, 7, 67, 74
9, 147300, Note_on_c, 7, 67, 0
9, 147300, Note_on_c, 7, 79, 81
9, 147360, Note_on_c, 7, 79, 0
9, 147360, Note_on_c, 7, 79, 78
9, 147360, Note_on_c, 7, 31, 88
9, 147480, Note_on_c, 7, 31, 0
9, 147480, Note_on_c, 7, 79, 0
9, 147480, Note_on_c, 7, 55, 77
9, 147480, Note_on_c, 7, 43, 74
9, 147540, Note_on_c, 7, 55, 0
9, 147540, Note_on_c, 7, 57, 88
9, 147600, Note_on_c, 7, 57, 0
9, 147600, Note_on_c, 7, 43, 0
9, 147600, Note_on_c, 7, 59, 80
9, 147660, Note_on_c, 7, 59, 0
9, 147660, Note_on_c, 7, 60, 64
9, 147720, Note_on_c, 7, 60, 0
9, 147720, Note_on_c, 7, 62, 81
9, 147780, Note_on_c, 7, 62, 0
9, 147780, Note_on_c, 7, 64, 80
9, 147840, Note_on_c, 7, 64, 0
9, 147840, Note_on_c, 7, 65, 88
9, 147900, Note_on_c, 7, 65, 0
9, 147900, Note_on_c, 7, 67, 85
9, 147960, Note_on_c, 7, 67, 0
9, 147960, Note_on_c, 7, 69, 93
9, 148020, Note_on_c, 7, 69, 0
9, 148020, Note_on_c, 7, 71, 94
9, 148080, Note_on_c, 7, 71, 0
9, 148080, Note_on_c, 7, 72, 80
9, 148140, Note_on_c, 7, 72, 0
9, 148140, Note_on_c, 7, 73, 93
9, 148200, Note_on_c, 7, 73, 0
9, 148200, Note_on_c, 7, 74, 99
9, 148260, Note_on_c, 7, 74, 0
9, 148260, Note_on_c, 7, 76, 97
9, 148320, Note_on_c, 7, 76, 0
9, 148320, Note_on_c, 7, 77, 89
9, 148380, Note_on_c, 7, 77, 0
9, 148380, Note_on_c, 7, 79, 93
9, 148440, Note_on_c, 7, 79, 0
9, 148440, Note_on_c, 7, 81, 94
9, 148500, Note_on_c, 7, 81, 0
9, 148500, Note_on_c, 7, 83, 99
9, 148560, Note_on_c, 7, 83, 0
9, 148560, Note_on_c, 7, 84, 97
9, 148620, Note_on_c, 7, 84, 0
9, 148620, Note_on_c, 7, 86, 95
9, 148680, Note_on_c, 7, 86, 0
9, 148680, Note_on_c, 7, 87, 95
9, 148740, Note_on_c, 7, 87, 0
9, 148740, Note_on_c, 7, 88, 99
9, 148800, Note_on_c, 7, 88, 0
9, 148800, Note_on_c, 7, 89, 93
9, 148860, Note_on_c, 7, 89, 0
9, 148860, Note_on_c, 7, 87, 94
9, 148920, Note_on_c, 7, 87, 0
9, 148920, Note_on_c, 7, 89, 94
9, 148980, Note_on_c, 7, 89, 0
9, 148980, Note_on_c, 7, 87, 94
9, 149040, Note_on_c, 7, 87, 0
9, 149040, Note_on_c, 7, 89, 97
9, 149100, Note_on_c, 7, 89, 0
9, 149100, Note_on_c, 7, 87, 95
9, 149160, Note_on_c, 7, 87, 0
9, 149160, Note_on_c, 7, 88, 68
9, 149160, Note_on_c, 7, 84, 63
9, 149160, Note_on_c, 7, 79, 60
9, 149160, Note_on_c, 7, 72, 61
9, 149220, Note_on_c, 7, 72, 0
9, 149220, Note_on_c, 7, 88, 0
9, 149220, Note_on_c, 7, 84, 0
9, 149220, Note_on_c, 7, 79, 0
9, 149280, Note_on_c, 7, 88, 77
9, 149280, Note_on_c, 7, 84, 80
9, 149280, Note_on_c, 7, 79, 81
9, 149280, Note_on_c, 7, 72, 55
9, 149340, Note_on_c, 7, 79, 0
9, 149340, Note_on_c, 7, 88, 0
9, 149340, Note_on_c, 7, 84, 0
9, 149340, Note_on_c, 7, 86, 84
9, 149340, Note_on_c, 7, 81, 68
9, 149340, Note_on_c, 7, 77, 74
9, 149400, Note_on_c, 7, 77, 0
9, 149400, Note_on_c, 7, 72, 0
9, 149400, Note_on_c, 7, 86, 0
9, 149400, Note_on_c, 7, 81, 0
9, 149400, Note_on_c, 7, 84, 81
9, 149400, Note_on_c, 7, 79, 74
9, 149400, Note_on_c, 7, 76, 80
9, 149400, Note_on_c, 7, 72, 48
9, 149460, Note_on_c, 7, 76, 0
9, 149460, Note_on_c, 7, 84, 0
9, 149460, Note_on_c, 7, 79, 0
9, 149520, Note_on_c, 7, 72, 0
9, 149520, Note_on_c, 7, 84, 74
9, 149520, Note_on_c, 7, 79, 78
9, 149520, Note_on_c, 7, 76, 82
9, 149520, Note_on_c, 7, 72, 52
9, 149580, Note_on_c, 7, 76, 0
9, 149580, Note_on_c, 7, 84, 0
9, 149580, Note_on_c, 7, 79, 0
9, 149640, Note_on_c, 7, 72, 0
9, 149640, Note_on_c, 7, 72, 49
9, 149640, Note_on_c, 7, 88, 81
9, 149640, Note_on_c, 7, 84, 66
9, 149640, Note_on_c, 7, 79, 85
9, 149700, Note_on_c, 7, 79, 0
9, 149700, Note_on_c, 7, 84, 0
9, 149700, Note_on_c, 7, 88, 0
9, 149760, Note_on_c, 7, 72, 0
9, 149760, Note_on_c, 7, 88, 80
9, 149760, Note_on_c, 7, 84, 83
9, 149760, Note_on_c, 7, 79, 79
9, 149760, Note_on_c, 7, 72, 58
9, 149820, Note_on_c, 7, 79, 0
9, 149820, Note_on_c, 7, 88, 0
9, 149820, Note_on_c, 7, 84, 0
9, 149820, Note_on_c, 7, 86, 89
9, 149820, Note_on_c, 7, 81, 66
9, 149820, Note_on_c, 7, 77, 80
9, 149880, Note_on_c, 7, 77, 0
9, 149880, Note_on_c, 7, 72, 0
9, 149880, Note_on_c, 7, 86, 0
9, 149880, Note_on_c, 7, 81, 0
9, 149880, Note_on_c, 7, 84, 79
9, 149880, Note_on_c, 7, 79, 81
9, 149880, Note_on_c, 7, 76, 80
9, 149880, Note_on_c, 7, 72, 57
9, 149940, Note_on_c, 7, 76, 0
9, 149940, Note_on_c, 7, 84, 0
9, 149940, Note_on_c, 7, 79, 0
9, 150000, Note_on_c, 7, 72, 0
9, 150000, Note_on_c, 7, 84, 79
9, 150000, Note_on_c, 7, 79, 84
9, 150000, Note_on_c, 7, 76, 84
9, 150000, Note_on_c, 7, 72, 58
9, 150060, Note_on_c, 7, 76, 0
9, 150060, Note_on_c, 7, 84, 0
9, 150060, Note_on_c, 7, 79, 0
9, 150120, Note_on_c, 7, 72, 0
9, 150120, Note_on_c, 7, 72, 58
9, 150120, Note_on_c, 7, 88, 66
9, 150120, Note_on_c, 7, 84, 78
9, 150120, Note_on_c, 7, 79, 69
9, 150180, Note_on_c, 7, 79, 0
9, 150180, Note_on_c, 7, 84, 0
9, 150180, Note_on_c, 7, 88, 0
9, 150240, Note_on_c, 7, 72, 0
9, 150240, Note_on_c, 7, 88, 83
9, 150240, Note_on_c, 7, 84, 81
9, 150240, Note_on_c, 7, 79, 89
9, 150240, Note_on_c, 7, 72, 57
9, 150300, Note_on_c, 7, 79, 0
9, 150300, Note_on_c, 7, 88, 0
9, 150300, Note_on_c, 7, 84, 0
9, 150300, Note_on_c, 7, 86, 85
9, 150300, Note_on_c, 7, 81, 80
9, 150300, Note_on_c, 7, 77, 81
9, 150360, Note_on_c, 7, 77, 0
9, 150360, Note_on_c, 7, 72, 0
9, 150360, Note_on_c, 7, 86, 0
9, 150360, Note_on_c, 7, 81, 0
9, 150360, Note_on_c, 7, 84, 79
9, 150360, Note_on_c, 7, 79, 64
9, 150360, Note_on_c, 7, 76, 88
9, 150360, Note_on_c, 7, 72, 57
9, 150420, Note_on_c, 7, 76, 0
9, 150420, Note_on_c, 7, 84, 0
9, 150420, Note_on_c, 7, 79, 0
9, 150480, Note_on_c, 7, 72, 0
9, 150480, Note_on_c, 7, 84, 92
9, 150480, Note_on_c, 7, 77, 72
9, 150480, Note_on_c, 7, 74, 77
9, 150480, Note_on_c, 7, 60, 80
9, 150540, Note_on_c, 7, 60, 0
9, 150540, Note_on_c, 7, 84, 0
9, 150540, Note_on_c, 7, 83, 78
9, 150600, Note_on_c, 7, 83, 0
9, 150600, Note_on_c, 7, 74, 0
9, 150600, Note_on_c, 7, 77, 0
9, 150600, Note_on_c, 7, 76, 74
9, 150600, Note_on_c, 7, 72, 61
9, 150600, Note_on_c, 7, 81, 80
9, 150600, Note_on_c, 7, 60, 74
9, 150660, Note_on_c, 7, 60, 0
9, 150660, Note_on_c, 7, 81, 0
9, 150720, Note_on_c, 7, 72, 0
9, 150720, Note_on_c, 7, 76, 0
9, 150720, Note_on_c, 7, 79, 73
9, 150720, Note_on_c, 7, 74, 79
9, 150720, Note_on_c, 7, 71, 81
9, 150720, Note_on_c, 7, 62, 84
9, 150780, Note_on_c, 7, 62, 0
9, 150780, Note_on_c, 7, 79, 0
9, 150780, Note_on_c, 7, 74, 0
9, 150780, Note_on_c, 7, 71, 0
9, 150840, Note_on_c, 7, 79, 68
9, 150840, Note_on_c, 7, 74, 82
9, 150840, Note_on_c, 7, 71, 69
9, 150840, Note_on_c, 7, 62, 84
9, 150900, Note_on_c, 7, 62, 0
9, 150900, Note_on_c, 7, 79, 0
9, 150900, Note_on_c, 7, 74, 0
9, 150900, Note_on_c, 7, 71, 0
9, 150960, Note_on_c, 7, 81, 61
9, 150960, Note_on_c, 7, 74, 80
9, 150960, Note_on_c, 7, 72, 57
9, 150960, Note_on_c, 7, 50, 81
9, 151020, Note_on_c, 7, 50, 0
9, 151020, Note_on_c, 7, 81, 0
9, 151020, Note_on_c, 7, 74, 0
9, 151020, Note_on_c, 7, 72, 0
9, 151080, Note_on_c, 7, 78, 84
9, 151080, Note_on_c, 7, 74, 88
9, 151080, Note_on_c, 7, 72, 44
9, 151080, Note_on_c, 7, 50, 83
9, 151140, Note_on_c, 7, 50, 0
9, 151140, Note_on_c, 7, 78, 0
9, 151140, Note_on_c, 7, 74, 0
9, 151140, Note_on_c, 7, 72, 0
9, 151200, Note_on_c, 7, 79, 75
9, 151200, Note_on_c, 7, 74, 80
9, 151200, Note_on_c, 7, 71, 73
9, 151200, Note_on_c, 7, 55, 81
9, 151260, Note_on_c, 7, 55, 0
9, 151260, Note_on_c, 7, 79, 0
9, 151260, Note_on_c, 7, 74, 0
9, 151260, Note_on_c, 7, 71, 0
9, 151320, Note_on_c, 7, 79, 73
9, 151320, Note_on_c, 7, 74, 81
9, 151320, Note_on_c, 7, 71, 66
9, 151320, Note_on_c, 7, 59, 85
9, 151380, Note_on_c, 7, 59, 0
9, 151380, Note_on_c, 7, 79, 0
9, 151380, Note_on_c, 7, 74, 0
9, 151380, Note_on_c, 7, 71, 0
9, 151440, Note_on_c, 7, 81, 75
9, 151440, Note_on_c, 7, 74, 80
9, 151440, Note_on_c, 7, 72, 44
9, 151440, Note_on_c, 7, 62, 80
9, 151500, Note_on_c, 7, 62, 0
9, 151500, Note_on_c, 7, 81, 0
9, 151500, Note_on_c, 7, 74, 0
9, 151500, Note_on_c, 7, 72, 0
9, 151560, Note_on_c, 7, 78, 80
9, 151560, Note_on_c, 7, 74, 81
9, 151560, Note_on_c, 7, 72, 57
9, 151560, Note_on_c, 7, 50, 92
9, 151620, Note_on_c, 7, 50, 0
9, 151620, Note_on_c, 7, 78, 0
9, 151620, Note_on_c, 7, 74, 0
9, 151620, Note_on_c, 7, 72, 0
9, 151680, Note_on_c, 7, 79, 81
9, 151680, Note_on_c, 7, 74, 78
9, 151680, Note_on_c, 7, 71, 68
9, 151680, Note_on_c, 7, 55, 88
9, 151740, Note_on_c, 7, 55, 0
9, 151800, Note_on_c, 7, 67, 70
9, 151860, Note_on_c, 7, 67, 0
9, 151920, Note_on_c, 7, 55, 90
9, 151980, Note_on_c, 7, 55, 0
9, 152040, Note_on_c, 7, 79, 0
9, 152040, Note_on_c, 7, 74, 0
9, 152040, Note_on_c, 7, 71, 0
9, 152040, Note_on_c, 7, 79, 88
9, 152040, Note_on_c, 7, 71, 80
9, 152160, Note_on_c, 7, 71, 0
9, 152160, Note_on_c, 7, 79, 0
9, 152160, Note_on_c, 7, 79, 78
9, 152160, Note_on_c, 7, 71, 69
9, 152220, Note_on_c, 7, 71, 0
9, 152220, Note_on_c, 7, 79, 0
9, 152220, Note_on_c, 7, 81, 66
9, 152220, Note_on_c, 7, 74, 79
9, 152280, Note_on_c, 7, 74, 0
9, 152280, Note_on_c, 7, 81, 0
9, 152280, Note_on_c, 7, 83, 57
9, 152280, Note_on_c, 7, 79, 74
9, 152340, Note_on_c, 7, 79, 0
9, 152340, Note_on_c, 7, 83, 0
9, 152400, Note_on_c, 7, 83, 63
9, 152400, Note_on_c, 7, 79, 60
9, 152460, Note_on_c, 7, 79, 0
9, 152460, Note_on_c, 7, 83, 0
9, 152460, Note_on_c, 7, 84, 63
9, 152460, Note_on_c, 7, 81, 72
9, 152520, Note_on_c, 7, 81, 0
9, 152520, Note_on_c, 7, 84, 0
9, 152520, Note_on_c, 7, 86, 79
9, 152520, Note_on_c, 7, 83, 74
9, 152580, Note_on_c, 7, 83, 0
9, 152580, Note_on_c, 7, 86, 0
9, 152640, Note_on_c, 7, 86, 80
9, 152640, Note_on_c, 7, 83, 80
9, 152700, Note_on_c, 7, 55, 78
9, 152760, Note_on_c, 7, 55, 0
9, 152760, Note_on_c, 7, 54, 81
9, 152820, Note_on_c, 7, 54, 0
9, 152820, Note_on_c, 7, 55, 80
9, 152880, Note_on_c, 7, 55, 0
9, 152880, Note_on_c, 7, 43, 64
9, 152940, Note_on_c, 7, 43, 0
9, 153000, Note_on_c, 7, 83, 0
9, 153000, Note_on_c, 7, 86, 0
9, 153000, Note_on_c, 7, 83, 72
9, 153000, Note_on_c, 7, 79, 58
9, 153120, Note_on_c, 7, 79, 0
9, 153120, Note_on_c, 7, 83, 0
9, 153120, Note_on_c, 7, 83, 72
9, 153120, Note_on_c, 7, 79, 67
9, 153180, Note_on_c, 7, 79, 0
9, 153180, Note_on_c, 7, 83, 0
9, 153180, Note_on_c, 7, 84, 68
9, 153180, Note_on_c, 7, 81, 73
9, 153240, Note_on_c, 7, 81, 0
9, 153240, Note_on_c, 7, 84, 0
9, 153240, Note_on_c, 7, 86, 74
9, 153240, Note_on_c, 7, 83, 68
9, 153300, Note_on_c, 7, 83, 0
9, 153300, Note_on_c, 7, 86, 0
9, 153360, Note_on_c, 7, 86, 49
9, 153360, Note_on_c, 7, 83, 57
9, 153420, Note_on_c, 7, 83, 0
9, 153420, Note_on_c, 7, 86, 0
9, 153420, Note_on_c, 7, 88, 73
9, 153420, Note_on_c, 7, 84, 77
9, 153480, Note_on_c, 7, 84, 0
9, 153480, Note_on_c, 7, 88, 0
9, 153480, Note_on_c, 7, 89, 74
9, 153480, Note_on_c, 7, 86, 80
9, 153540, Note_on_c, 7, 86, 0
9, 153540, Note_on_c, 7, 89, 0
9, 153600, Note_on_c, 7, 89, 68
9, 153600, Note_on_c, 7, 86, 63
9, 153660, Note_on_c, 7, 67, 66
9, 153720, Note_on_c, 7, 67, 0
9, 153720, Note_on_c, 7, 66, 82
9, 153780, Note_on_c, 7, 66, 0
9, 153780, Note_on_c, 7, 67, 74
9, 153840, Note_on_c, 7, 67, 0
9, 153840, Note_on_c, 7, 55, 67
9, 153900, Note_on_c, 7, 55, 0
9, 153960, Note_on_c, 7, 86, 0
9, 153960, Note_on_c, 7, 89, 0
9, 153960, Note_on_c, 7, 81, 68
9, 153960, Note_on_c, 7, 77, 69
9, 154020, Note_on_c, 7, 77, 0
9, 154020, Note_on_c, 7, 81, 0
9, 154080, Note_on_c, 7, 81, 72
9, 154080, Note_on_c, 7, 77, 81
9, 154140, Note_on_c, 7, 77, 0
9, 154140, Note_on_c, 7, 81, 0
9, 154140, Note_on_c, 7, 79, 81
9, 154140, Note_on_c, 7, 76, 81
9, 154140, Note_on_c, 7, 55, 63
9, 154200, Note_on_c, 7, 55, 0
9, 154200, Note_on_c, 7, 76, 0
9, 154200, Note_on_c, 7, 79, 0
9, 154200, Note_on_c, 7, 77, 84
9, 154200, Note_on_c, 7, 74, 73
9, 154200, Note_on_c, 7, 54, 81
9, 154260, Note_on_c, 7, 54, 0
9, 154260, Note_on_c, 7, 74, 0
9, 154260, Note_on_c, 7, 77, 0
9, 154260, Note_on_c, 7, 55, 77
9, 154320, Note_on_c, 7, 55, 0
9, 154320, Note_on_c, 7, 77, 66
9, 154320, Note_on_c, 7, 74, 67
9, 154320, Note_on_c, 7, 43, 74
9, 154380, Note_on_c, 7, 43, 0
9, 154380, Note_on_c, 7, 74, 0
9, 154380, Note_on_c, 7, 77, 0
9, 154440, Note_on_c, 7, 81, 63
9, 154440, Note_on_c, 7, 77, 72
9, 154500, Note_on_c, 7, 77, 0
9, 154500, Note_on_c, 7, 81, 0
9, 154560, Note_on_c, 7, 81, 75
9, 154560, Note_on_c, 7, 77, 83
9, 154620, Note_on_c, 7, 77, 0
9, 154620, Note_on_c, 7, 81, 0
9, 154620, Note_on_c, 7, 79, 68
9, 154620, Note_on_c, 7, 76, 75
9, 154620, Note_on_c, 7, 67, 57
9, 154680, Note_on_c, 7, 67, 0
9, 154680, Note_on_c, 7, 76, 0
9, 154680, Note_on_c, 7, 79, 0
9, 154680, Note_on_c, 7, 77, 66
9, 154680, Note_on_c, 7, 74, 78
9, 154680, Note_on_c, 7, 66, 84
9, 154740, Note_on_c, 7, 66, 0
9, 154740, Note_on_c, 7, 74, 0
9, 154740, Note_on_c, 7, 77, 0
9, 154740, Note_on_c, 7, 67, 81
9, 154800, Note_on_c, 7, 67, 0
9, 154800, Note_on_c, 7, 77, 72
9, 154800, Note_on_c, 7, 74, 79
9, 154800, Note_on_c, 7, 55, 84
9, 154860, Note_on_c, 7, 55, 0
9, 154860, Note_on_c, 7, 74, 0
9, 154860, Note_on_c, 7, 77, 0
9, 154920, Note_on_c, 7, 81, 79
9, 154920, Note_on_c, 7, 77, 70
9, 154980, Note_on_c, 7, 77, 0
9, 154980, Note_on_c, 7, 81, 0
9, 155040, Note_on_c, 7, 81, 80
9, 155040, Note_on_c, 7, 77, 81
9, 155100, Note_on_c, 7, 77, 0
9, 155100, Note_on_c, 7, 81, 0
9, 155100, Note_on_c, 7, 79, 75
9, 155100, Note_on_c, 7, 76, 84
9, 155160, Note_on_c, 7, 76, 0
9, 155160, Note_on_c, 7, 79, 0
9, 155160, Note_on_c, 7, 77, 79
9, 155160, Note_on_c, 7, 74, 81
9, 155160, Note_on_c, 7, 68, 92
9, 155220, Note_on_c, 7, 68, 0
9, 155220, Note_on_c, 7, 74, 0
9, 155220, Note_on_c, 7, 77, 0
9, 155280, Note_on_c, 7, 77, 68
9, 155280, Note_on_c, 7, 74, 88
9, 155280, Note_on_c, 7, 69, 92
9, 155340, Note_on_c, 7, 69, 0
9, 155340, Note_on_c, 7, 74, 0
9, 155340, Note_on_c, 7, 77, 0
9, 155340, Note_on_c, 7, 76, 79
9, 155400, Note_on_c, 7, 76, 0
9, 155400, Note_on_c, 7, 74, 78
9, 155400, Note_on_c, 7, 69, 81
9, 155400, Note_on_c, 7, 65, 88
9, 155460, Note_on_c, 7, 65, 0
9, 155460, Note_on_c, 7, 69, 0
9, 155460, Note_on_c, 7, 74, 0
9, 155490, Note_on_c, 7, 74, 89
9, 155520, Note_on_c, 7, 74, 0
9, 155520, Note_on_c, 7, 72, 60
9, 155520, Note_on_c, 7, 67, 78
9, 155520, Note_on_c, 7, 64, 80
9, 155520, Note_on_c, 7, 55, 80
9, 155580, Note_on_c, 7, 55, 0
9, 155580, Note_on_c, 7, 72, 0
9, 155580, Note_on_c, 7, 67, 0
9, 155580, Note_on_c, 7, 64, 0
9, 155640, Note_on_c, 7, 72, 73
9, 155640, Note_on_c, 7, 67, 69
9, 155640, Note_on_c, 7, 64, 73
9, 155640, Note_on_c, 7, 55, 84
9, 155700, Note_on_c, 7, 55, 0
9, 155700, Note_on_c, 7, 72, 0
9, 155700, Note_on_c, 7, 67, 0
9, 155700, Note_on_c, 7, 64, 0
9, 155760, Note_on_c, 7, 74, 80
9, 155760, Note_on_c, 7, 67, 74
9, 155760, Note_on_c, 7, 65, 84
9, 155760, Note_on_c, 7, 55, 79
9, 155820, Note_on_c, 7, 55, 0
9, 155820, Note_on_c, 7, 74, 0
9, 155820, Note_on_c, 7, 67, 0
9, 155820, Note_on_c, 7, 65, 0
9, 155880, Note_on_c, 7, 71, 78
9, 155880, Note_on_c, 7, 67, 79
9, 155880, Note_on_c, 7, 62, 63
9, 155880, Note_on_c, 7, 55, 82
9, 155940, Note_on_c, 7, 55, 0
9, 155940, Note_on_c, 7, 71, 0
9, 155940, Note_on_c, 7, 67, 0
9, 155940, Note_on_c, 7, 62, 0
9, 156000, Note_on_c, 7, 72, 78
9, 156000, Note_on_c, 7, 64, 82
9, 156000, Note_on_c, 7, 60, 75
9, 156060, Note_on_c, 7, 72, 0
9, 156060, Note_on_c, 7, 74, 79
9, 156120, Note_on_c, 7, 74, 0
9, 156120, Note_on_c, 7, 76, 83
9, 156180, Note_on_c, 7, 76, 0
9, 156180, Note_on_c, 7, 77, 81
9, 156240, Note_on_c, 7, 77, 0
9, 156240, Note_on_c, 7, 60, 0
9, 156240, Note_on_c, 7, 64, 0
9, 156240, Note_on_c, 7, 79, 63
9, 156300, Note_on_c, 7, 79, 0
9, 156300, Note_on_c, 7, 81, 63
9, 156360, Note_on_c, 7, 81, 0
9, 156360, Note_on_c, 7, 83, 72
9, 156420, Note_on_c, 7, 83, 0
9, 156420, Note_on_c, 7, 84, 78
9, 156480, Note_on_c, 7, 84, 0
9, 156480, Note_on_c, 7, 86, 75
9, 156480, Note_on_c, 7, 77, 69
9, 156480, Note_on_c, 7, 74, 81
9, 156480, Note_on_c, 7, 67, 69
9, 156540, Note_on_c, 7, 67, 0
9, 156540, Note_on_c, 7, 86, 0
9, 156540, Note_on_c, 7, 77, 0
9, 156540, Note_on_c, 7, 74, 0
9, 156600, Note_on_c, 7, 88, 83
9, 156600, Note_on_c, 7, 76, 75
9, 156600, Note_on_c, 7, 72, 84
9, 156600, Note_on_c, 7, 67, 77
9, 156660, Note_on_c, 7, 67, 0
9, 156660, Note_on_c, 7, 88, 0
9, 156660, Note_on_c, 7, 76, 0
9, 156660, Note_on_c, 7, 72, 0
9, 156720, Note_on_c, 7, 89, 88
9, 156720, Note_on_c, 7, 74, 68
9, 156720, Note_on_c, 7, 71, 80
9, 156720, Note_on_c, 7, 67, 67
9, 156780, Note_on_c, 7, 67, 0
9, 156780, Note_on_c, 7, 89, 0
9, 156780, Note_on_c, 7, 74, 0
9, 156780, Note_on_c, 7, 71, 0
9, 156840, Note_on_c, 7, 86, 83
9, 156840, Note_on_c, 7, 77, 67
9, 156840, Note_on_c, 7, 74, 81
9, 156840, Note_on_c, 7, 67, 61
9, 156900, Note_on_c, 7, 67, 0
9, 156900, Note_on_c, 7, 86, 0
9, 156900, Note_on_c, 7, 77, 0
9, 156900, Note_on_c, 7, 74, 0
9, 156960, Note_on_c, 7, 84, 82
9, 156960, Note_on_c, 7, 76, 83
9, 156960, Note_on_c, 7, 72, 61
9, 157020, Note_on_c, 7, 84, 0
9, 157020, Note_on_c, 7, 83, 81
9, 157080, Note_on_c, 7, 83, 0
9, 157080, Note_on_c, 7, 81, 82
9, 157140, Note_on_c, 7, 81, 0
9, 157140, Note_on_c, 7, 79, 73
9, 157200, Note_on_c, 7, 79, 0
9, 157200, Note_on_c, 7, 72, 0
9, 157200, Note_on_c, 7, 76, 0
9, 157200, Note_on_c, 7, 77, 79
9, 157260, Note_on_c, 7, 77, 0
9, 157260, Note_on_c, 7, 76, 88
9, 157320, Note_on_c, 7, 76, 0
9, 157320, Note_on_c, 7, 74, 79
9, 157380, Note_on_c, 7, 74, 0
9, 157380, Note_on_c, 7, 72, 67
9, 157440, Note_on_c, 7, 72, 0
9, 157440, Note_on_c, 7, 74, 80
9, 157440, Note_on_c, 7, 65, 77
9, 157440, Note_on_c, 7, 62, 77
9, 157440, Note_on_c, 7, 55, 73
9, 157500, Note_on_c, 7, 55, 0
9, 157500, Note_on_c, 7, 74, 0
9, 157500, Note_on_c, 7, 65, 0
9, 157500, Note_on_c, 7, 62, 0
9, 157560, Note_on_c, 7, 76, 79
9, 157560, Note_on_c, 7, 64, 68
9, 157560, Note_on_c, 7, 60, 74
9, 157560, Note_on_c, 7, 55, 63
9, 157620, Note_on_c, 7, 55, 0
9, 157620, Note_on_c, 7, 76, 0
9, 157620, Note_on_c, 7, 64, 0
9, 157620, Note_on_c, 7, 60, 0
9, 157680, Note_on_c, 7, 77, 81
9, 157680, Note_on_c, 7, 62, 63
9, 157680, Note_on_c, 7, 59, 77
9, 157680, Note_on_c, 7, 55, 66
9, 157740, Note_on_c, 7, 55, 0
9, 157740, Note_on_c, 7, 77, 0
9, 157740, Note_on_c, 7, 62, 0
9, 157740, Note_on_c, 7, 59, 0
9, 157800, Note_on_c, 7, 71, 80
9, 157800, Note_on_c, 7, 65, 80
9, 157800, Note_on_c, 7, 55, 80
9, 157800, Note_on_c, 7, 43, 84
9, 157860, Note_on_c, 7, 43, 0
9, 157860, Note_on_c, 7, 71, 0
9, 157860, Note_on_c, 7, 65, 0
9, 157860, Note_on_c, 7, 55, 0
9, 157920, Note_on_c, 7, 72, 84
9, 157920, Note_on_c, 7, 64, 84
9, 157920, Note_on_c, 7, 55, 68
9, 157920, Note_on_c, 7, 48, 82
9, 157980, Note_on_c, 7, 48, 0
9, 157980, Note_on_c, 7, 72, 0
9, 157980, Note_on_c, 7, 64, 0
9, 157980, Note_on_c, 7, 55, 0
9, 158040, Note_on_c, 7, 74, 78
9, 158040, Note_on_c, 7, 65, 78
9, 158040, Note_on_c, 7, 55, 68
9, 158040, Note_on_c, 7, 43, 79
9, 158100, Note_on_c, 7, 43, 0
9, 158100, Note_on_c, 7, 74, 0
9, 158100, Note_on_c, 7, 65, 0
9, 158100, Note_on_c, 7, 55, 0
9, 158160, Note_on_c, 7, 72, 81
9, 158160, Note_on_c, 7, 64, 73
9, 158160, Note_on_c, 7, 55, 79
9, 158160, Note_on_c, 7, 48, 79
9, 158220, Note_on_c, 7, 48, 0
9, 158220, Note_on_c, 7, 72, 0
9, 158220, Note_on_c, 7, 64, 0
9, 158220, Note_on_c, 7, 55, 0
9, 158280, Note_on_c, 7, 74, 79
9, 158280, Note_on_c, 7, 65, 84
9, 158280, Note_on_c, 7, 55, 66
9, 158280, Note_on_c, 7, 43, 80
9, 158340, Note_on_c, 7, 43, 0
9, 158340, Note_on_c, 7, 74, 0
9, 158340, Note_on_c, 7, 65, 0
9, 158340, Note_on_c, 7, 55, 0
9, 158400, Note_on_c, 7, 72, 79
9, 158400, Note_on_c, 7, 64, 79
9, 158400, Note_on_c, 7, 55, 66
9, 158400, Note_on_c, 7, 48, 80
9, 158640, Note_on_c, 7, 48, 0
9, 158640, Note_on_c, 7, 72, 0
9, 158640, Note_on_c, 7, 64, 0
9, 158640, Note_on_c, 7, 55, 0
9, 169980, Note_on_c, 7, 84, 92
9, 170040, Note_on_c, 7, 84, 0
9, 170040, Note_on_c, 7, 83, 83
9, 170100, Note_on_c, 7, 83, 0
9, 170100, Note_on_c, 7, 84, 92
9, 170160, Note_on_c, 7, 84, 0
9, 170160, Note_on_c, 7, 88, 81
9, 170220, Note_on_c, 7, 88, 0
9, 170220, Note_on_c, 7, 84, 80
9, 170280, Note_on_c, 7, 84, 0
9, 170280, Note_on_c, 7, 81, 78
9, 170340, Note_on_c, 7, 81, 0
9, 170340, Note_on_c, 7, 78, 84
9, 170400, Note_on_c, 7, 78, 0
9, 170400, Note_on_c, 7, 79, 88
9, 170400, Note_on_c, 7, 67, 84
9, 170460, Note_on_c, 7, 67, 0
9, 170460, Note_on_c, 7, 79, 0
9, 170460, Note_on_c, 7, 78, 78
9, 170460, Note_on_c, 7, 66, 83
9, 170520, Note_on_c, 7, 66, 0
9, 170520, Note_on_c, 7, 78, 0
9, 170520, Note_on_c, 7, 79, 83
9, 170520, Note_on_c, 7, 67, 85
9, 170580, Note_on_c, 7, 67, 0
9, 170580, Note_on_c, 7, 79, 0
9, 170580, Note_on_c, 7, 81, 79
9, 170580, Note_on_c, 7, 69, 80
9, 170640, Note_on_c, 7, 69, 0
9, 170640, Note_on_c, 7, 81, 0
9, 170640, Note_on_c, 7, 79, 78
9, 170640, Note_on_c, 7, 67, 88
9, 170700, Note_on_c, 7, 67, 0
9, 170700, Note_on_c, 7, 79, 0
9, 170700, Note_on_c, 7, 77, 84
9, 170700, Note_on_c, 7, 65, 83
9, 170760, Note_on_c, 7, 65, 0
9, 170760, Note_on_c, 7, 77, 0
9, 170760, Note_on_c, 7, 76, 84
9, 170760, Note_on_c, 7, 64, 89
9, 170820, Note_on_c, 7, 64, 0
9, 170820, Note_on_c, 7, 76, 0
9, 170820, Note_on_c, 7, 74, 83
9, 170820, Note_on_c, 7, 62, 88
9, 170880, Note_on_c, 7, 62, 0
9, 170880, Note_on_c, 7, 74, 0
9, 170880, Note_on_c, 7, 72, 88
9, 170880, Note_on_c, 7, 60, 92
9, 170910, Note_on_c, 7, 72, 0
9, 170940, Note_on_c, 7, 72, 84
9, 171000, Note_on_c, 7, 72, 0
9, 171000, Note_on_c, 7, 60, 0
9, 171000, Note_on_c, 7, 71, 92
9, 171060, Note_on_c, 7, 71, 0
9, 171060, Note_on_c, 7, 72, 83
9, 171120, Note_on_c, 7, 72, 0
9, 171120, Note_on_c, 7, 76, 97
9, 171180, Note_on_c, 7, 76, 0
9, 171180, Note_on_c, 7, 72, 81
9, 171240, Note_on_c, 7, 72, 0
9, 171240, Note_on_c, 7, 69, 83
9, 171300, Note_on_c, 7, 69, 0
9, 171300, Note_on_c, 7, 66, 83
9, 171360, Note_on_c, 7, 66, 0
9, 171360, Note_on_c, 7, 67, 92
9, 171360, Note_on_c, 7, 55, 89
9, 171420, Note_on_c, 7, 55, 0
9, 171420, Note_on_c, 7, 67, 0
9, 171420, Note_on_c, 7, 66, 78
9, 171420, Note_on_c, 7, 54, 83
9, 171480, Note_on_c, 7, 54, 0
9, 171480, Note_on_c, 7, 66, 0
9, 171480, Note_on_c, 7, 67, 92
9, 171480, Note_on_c, 7, 55, 89
9, 171540, Note_on_c, 7, 55, 0
9, 171540, Note_on_c, 7, 67, 0
9, 171540, Note_on_c, 7, 69, 93
9, 171540, Note_on_c, 7, 57, 94
9, 171600, Note_on_c, 7, 57, 0
9, 171600, Note_on_c, 7, 69, 0
9, 171600, Note_on_c, 7, 67, 90
9, 171600, Note_on_c, 7, 55, 88
9, 171660, Note_on_c, 7, 55, 0
9, 171660, Note_on_c, 7, 67, 0
9, 171660, Note_on_c, 7, 65, 85
9, 171660, Note_on_c, 7, 53, 83
9, 171720, Note_on_c, 7, 53, 0
9, 171720, Note_on_c, 7, 65, 0
9, 171720, Note_on_c, 7, 64, 89
9, 171720, Note_on_c, 7, 52, 93
9, 171780, Note_on_c, 7, 52, 0
9, 171780, Note_on_c, 7, 64, 0
9, 171780, Note_on_c, 7, 62, 92
9, 171780, Note_on_c, 7, 50, 93
9, 171840, Note_on_c, 7, 50, 0
9, 171840, Note_on_c, 7, 62, 0
9, 171840, Note_on_c, 7, 60, 89
9, 171840, Note_on_c, 7, 48, 81
9, 171870, Note_on_c, 7, 60, 0
9, 171900, Note_on_c, 7, 84, 88
9, 171960, Note_on_c, 7, 84, 0
9, 171960, Note_on_c, 7, 48, 0
9, 171960, Note_on_c, 7, 83, 93
9, 172020, Note_on_c, 7, 83, 0
9, 172020, Note_on_c, 7, 84, 81
9, 172080, Note_on_c, 7, 84, 0
9, 172080, Note_on_c, 7, 87, 97
9, 172140, Note_on_c, 7, 87, 0
9, 172140, Note_on_c, 7, 84, 97
9, 172200, Note_on_c, 7, 84, 0
9, 172200, Note_on_c, 7, 80, 94
9, 172260, Note_on_c, 7, 80, 0
9, 172260, Note_on_c, 7, 78, 83
9, 172320, Note_on_c, 7, 78, 0
9, 172320, Note_on_c, 7, 79, 88
9, 172320, Note_on_c, 7, 67, 82
9, 172380, Note_on_c, 7, 67, 0
9, 172380, Note_on_c, 7, 79, 0
9, 172380, Note_on_c, 7, 78, 83
9, 172380, Note_on_c, 7, 66, 80
9, 172440, Note_on_c, 7, 66, 0
9, 172440, Note_on_c, 7, 78, 0
9, 172440, Note_on_c, 7, 79, 88
9, 172440, Note_on_c, 7, 67, 79
9, 172500, Note_on_c, 7, 67, 0
9, 172500, Note_on_c, 7, 79, 0
9, 172500, Note_on_c, 7, 80, 89
9, 172500, Note_on_c, 7, 68, 84
9, 172560, Note_on_c, 7, 68, 0
9, 172560, Note_on_c, 7, 80, 0
9, 172560, Note_on_c, 7, 79, 93
9, 172560, Note_on_c, 7, 67, 88
9, 172620, Note_on_c, 7, 67, 0
9, 172620, Note_on_c, 7, 79, 0
9, 172620, Note_on_c, 7, 77, 81
9, 172620, Note_on_c, 7, 65, 89
9, 172680, Note_on_c, 7, 65, 0
9, 172680, Note_on_c, 7, 77, 0
9, 172680, Note_on_c, 7, 75, 97
9, 172680, Note_on_c, 7, 63, 81
9, 172740, Note_on_c, 7, 63, 0
9, 172740, Note_on_c, 7, 75, 0
9, 172740, Note_on_c, 7, 74, 84
9, 172740, Note_on_c, 7, 62, 81
9, 172800, Note_on_c, 7, 62, 0
9, 172800, Note_on_c, 7, 74, 0
9, 172800, Note_on_c, 7, 72, 85
9, 172800, Note_on_c, 7, 60, 94
9, 172830, Note_on_c, 7, 72, 0
9, 172860, Note_on_c, 7, 72, 85
9, 172920, Note_on_c, 7, 72, 0
9, 172920, Note_on_c, 7, 60, 0
9, 172920, Note_on_c, 7, 71, 80
9, 172980, Note_on_c, 7, 71, 0
9, 172980, Note_on_c, 7, 72, 78
9, 173040, Note_on_c, 7, 72, 0
9, 173040, Note_on_c, 7, 75, 94
9, 173100, Note_on_c, 7, 75, 0
9, 173100, Note_on_c, 7, 72, 78
9, 173160, Note_on_c, 7, 72, 0
9, 173160, Note_on_c, 7, 68, 81
9, 173220, Note_on_c, 7, 68, 0
9, 173220, Note_on_c, 7, 66, 77
9, 173280, Note_on_c, 7, 66, 0
9, 173280, Note_on_c, 7, 67, 84
9, 173280, Note_on_c, 7, 55, 84
9, 173340, Note_on_c, 7, 55, 0
9, 173340, Note_on_c, 7, 67, 0
9, 173340, Note_on_c, 7, 66, 81
9, 173340, Note_on_c, 7, 54, 83
9, 173400, Note_on_c, 7, 54, 0
9, 173400, Note_on_c, 7, 66, 0
9, 173400, Note_on_c, 7, 67, 82
9, 173400, Note_on_c, 7, 55, 90
9, 173460, Note_on_c, 7, 55, 0
9, 173460, Note_on_c, 7, 67, 0
9, 173460, Note_on_c, 7, 68, 83
9, 173460, Note_on_c, 7, 56, 77
9, 173520, Note_on_c, 7, 56, 0
9, 173520, Note_on_c, 7, 68, 0
9, 173520, Note_on_c, 7, 67, 81
9, 173520, Note_on_c, 7, 55, 73
9, 173580, Note_on_c, 7, 55, 0
9, 173580, Note_on_c, 7, 67, 0
9, 173580, Note_on_c, 7, 65, 81
9, 173580, Note_on_c, 7, 53, 72
9, 173640, Note_on_c, 7, 53, 0
9, 173640, Note_on_c, 7, 65, 0
9, 173640, Note_on_c, 7, 63, 84
9, 173640, Note_on_c, 7, 51, 84
9, 173700, Note_on_c, 7, 51, 0
9, 173700, Note_on_c, 7, 63, 0
9, 173700, Note_on_c, 7, 62, 80
9, 173700, Note_on_c, 7, 50, 81
9, 173760, Note_on_c, 7, 50, 0
9, 173760, Note_on_c, 7, 62, 0
9, 173760, Note_on_c, 7, 60, 84
9, 173760, Note_on_c, 7, 48, 97
9, 173790, Note_on_c, 7, 60, 0
9, 173820, Note_on_c, 7, 80, 89
9, 173880, Note_on_c, 7, 80, 0
9, 173880, Note_on_c, 7, 48, 0
9, 173880, Note_on_c, 7, 79, 89
9, 173940, Note_on_c, 7, 79, 0
9, 173940, Note_on_c, 7, 80, 85
9, 174000, Note_on_c, 7, 80, 0
9, 174000, Note_on_c, 7, 84, 80
9, 174060, Note_on_c, 7, 84, 0
9, 174060, Note_on_c, 7, 80, 83
9, 174120, Note_on_c, 7, 80, 0
9, 174120, Note_on_c, 7, 77, 79
9, 174180, Note_on_c, 7, 77, 0
9, 174180, Note_on_c, 7, 74, 84
9, 174240, Note_on_c, 7, 74, 0
9, 174240, Note_on_c, 7, 75, 89
9, 174240, Note_on_c, 7, 63, 81
9, 174300, Note_on_c, 7, 63, 0
9, 174300, Note_on_c, 7, 75, 0
9, 174300, Note_on_c, 7, 74, 80
9, 174300, Note_on_c, 7, 62, 89
9, 174360, Note_on_c, 7, 62, 0
9, 174360, Note_on_c, 7, 74, 0
9, 174360, Note_on_c, 7, 75, 94
9, 174360, Note_on_c, 7, 63, 83
9, 174420, Note_on_c, 7, 63, 0
9, 174420, Note_on_c, 7, 75, 0
9, 174420, Note_on_c, 7, 77, 84
9, 174420, Note_on_c, 7, 65, 68
9, 174480, Note_on_c, 7, 65, 0
9, 174480, Note_on_c, 7, 77, 0
9, 174480, Note_on_c, 7, 75, 90
9, 174480, Note_on_c, 7, 63, 80
9, 174540, Note_on_c, 7, 63, 0
9, 174540, Note_on_c, 7, 75, 0
9, 174540, Note_on_c, 7, 73, 84
9, 174540, Note_on_c, 7, 61, 80
9, 174600, Note_on_c, 7, 61, 0
9, 174600, Note_on_c, 7, 73, 0
9, 174600, Note_on_c, 7, 72, 60
9, 174600, Note_on_c, 7, 60, 79
9, 174660, Note_on_c, 7, 60, 0
9, 174660, Note_on_c, 7, 72, 0
9, 174660, Note_on_c, 7, 70, 93
9, 174660, Note_on_c, 7, 58, 81
9, 174720, Note_on_c, 7, 58, 0
9, 174720, Note_on_c, 7, 70, 0
9, 174720, Note_on_c, 7, 68, 80
9, 174720, Note_on_c, 7, 56, 64
9, 174750, Note_on_c, 7, 68, 0
9, 174780, Note_on_c, 7, 68, 90
9, 174840, Note_on_c, 7, 68, 0
9, 174840, Note_on_c, 7, 56, 0
9, 174840, Note_on_c, 7, 67, 79
9, 174900, Note_on_c, 7, 67, 0
9, 174900, Note_on_c, 7, 68, 79
9, 174960, Note_on_c, 7, 68, 0
9, 174960, Note_on_c, 7, 70, 90
9, 175020, Note_on_c, 7, 70, 0
9, 175020, Note_on_c, 7, 68, 97
9, 175080, Note_on_c, 7, 68, 0
9, 175080, Note_on_c, 7, 65, 83
9, 175140, Note_on_c, 7, 65, 0
9, 175140, Note_on_c, 7, 62, 78
9, 175200, Note_on_c, 7, 62, 0
9, 175200, Note_on_c, 7, 63, 84
9, 175200, Note_on_c, 7, 51, 88
9, 175260, Note_on_c, 7, 51, 0
9, 175260, Note_on_c, 7, 63, 0
9, 175260, Note_on_c, 7, 62, 81
9, 175260, Note_on_c, 7, 50, 84
9, 175320, Note_on_c, 7, 50, 0
9, 175320, Note_on_c, 7, 62, 0
9, 175320, Note_on_c, 7, 63, 85
9, 175320, Note_on_c, 7, 51, 83
9, 175380, Note_on_c, 7, 51, 0
9, 175380, Note_on_c, 7, 63, 0
9, 175380, Note_on_c, 7, 65, 88
9, 175380, Note_on_c, 7, 53, 69
9, 175440, Note_on_c, 7, 53, 0
9, 175440, Note_on_c, 7, 65, 0
9, 175440, Note_on_c, 7, 63, 89
9, 175440, Note_on_c, 7, 51, 88
9, 175500, Note_on_c, 7, 51, 0
9, 175500, Note_on_c, 7, 63, 0
9, 175500, Note_on_c, 7, 61, 85
9, 175500, Note_on_c, 7, 49, 80
9, 175560, Note_on_c, 7, 49, 0
9, 175560, Note_on_c, 7, 61, 0
9, 175560, Note_on_c, 7, 60, 81
9, 175560, Note_on_c, 7, 48, 83
9, 175620, Note_on_c, 7, 48, 0
9, 175620, Note_on_c, 7, 60, 0
9, 175620, Note_on_c, 7, 58, 90
9, 175620, Note_on_c, 7, 46, 78
9, 175680, Note_on_c, 7, 46, 0
9, 175680, Note_on_c, 7, 58, 0
9, 175680, Note_on_c, 7, 56, 89
9, 175680, Note_on_c, 7, 44, 84
9, 175710, Note_on_c, 7, 44, 0
9, 175740, Note_on_c, 7, 56, 0
9, 175740, Note_on_c, 7, 53, 82
9, 175800, Note_on_c, 7, 53, 0
9, 175800, Note_on_c, 7, 52, 90
9, 175860, Note_on_c, 7, 52, 0
9, 175860, Note_on_c, 7, 53, 92
9, 175920, Note_on_c, 7, 53, 0
9, 175920, Note_on_c, 7, 56, 81
9, 175980, Note_on_c, 7, 56, 0
9, 175980, Note_on_c, 7, 53, 83
9, 176040, Note_on_c, 7, 53, 0
9, 176040, Note_on_c, 7, 49, 88
9, 176100, Note_on_c, 7, 49, 0
9, 176100, Note_on_c, 7, 47, 85
9, 176160, Note_on_c, 7, 47, 0
9, 176160, Note_on_c, 7, 60, 94
9, 176160, Note_on_c, 7, 48, 89
9, 176220, Note_on_c, 7, 48, 0
9, 176220, Note_on_c, 7, 60, 0
9, 176220, Note_on_c, 7, 58, 83
9, 176220, Note_on_c, 7, 46, 92
9, 176280, Note_on_c, 7, 46, 0
9, 176280, Note_on_c, 7, 58, 0
9, 176280, Note_on_c, 7, 60, 81
9, 176280, Note_on_c, 7, 48, 83
9, 176340, Note_on_c, 7, 48, 0
9, 176340, Note_on_c, 7, 60, 0
9, 176340, Note_on_c, 7, 61, 79
9, 176340, Note_on_c, 7, 49, 79
9, 176400, Note_on_c, 7, 49, 0
9, 176400, Note_on_c, 7, 61, 0
9, 176400, Note_on_c, 7, 60, 88
9, 176400, Note_on_c, 7, 48, 83
9, 176460, Note_on_c, 7, 48, 0
9, 176460, Note_on_c, 7, 60, 0
9, 176460, Note_on_c, 7, 58, 80
9, 176460, Note_on_c, 7, 46, 88
9, 176520, Note_on_c, 7, 46, 0
9, 176520, Note_on_c, 7, 58, 0
9, 176520, Note_on_c, 7, 56, 84
9, 176520, Note_on_c, 7, 44, 83
9, 176580, Note_on_c, 7, 44, 0
9, 176580, Note_on_c, 7, 56, 0
9, 176580, Note_on_c, 7, 55, 83
9, 176580, Note_on_c, 7, 43, 80
9, 176640, Note_on_c, 7, 43, 0
9, 176640, Note_on_c, 7, 55, 0
9, 176640, Note_on_c, 7, 53, 81
9, 176640, Note_on_c, 7, 41, 88
9, 176700, Note_on_c, 7, 41, 0
9, 176760, Note_on_c, 7, 53, 0
9, 176760, Note_on_c, 7, 53, 85
9, 176820, Note_on_c, 7, 53, 0
9, 176820, Note_on_c, 7, 55, 83
9, 176880, Note_on_c, 7, 55, 0
9, 176880, Note_on_c, 7, 56, 82
9, 176940, Note_on_c, 7, 56, 0
9, 176940, Note_on_c, 7, 55, 81
9, 177000, Note_on_c, 7, 55, 0
9, 177000, Note_on_c, 7, 77, 84
9, 177000, Note_on_c, 7, 53, 79
9, 177060, Note_on_c, 7, 53, 0
9, 177060, Note_on_c, 7, 77, 0
9, 177060, Note_on_c, 7, 79, 88
9, 177060, Note_on_c, 7, 51, 81
9, 177120, Note_on_c, 7, 51, 0
9, 177120, Note_on_c, 7, 79, 0
9, 177120, Note_on_c, 7, 80, 94
9, 177120, Note_on_c, 7, 50, 101
9, 177180, Note_on_c, 7, 50, 0
9, 177180, Note_on_c, 7, 51, 80
9, 177240, Note_on_c, 7, 51, 0
9, 177240, Note_on_c, 7, 53, 80
9, 177300, Note_on_c, 7, 53, 0
9, 177300, Note_on_c, 7, 51, 88
9, 177360, Note_on_c, 7, 51, 0
9, 177360, Note_on_c, 7, 50, 84
9, 177420, Note_on_c, 7, 50, 0
9, 177420, Note_on_c, 7, 48, 83
9, 177480, Note_on_c, 7, 48, 0
9, 177480, Note_on_c, 7, 80, 0
9, 177480, Note_on_c, 7, 74, 95
9, 177480, Note_on_c, 7, 46, 81
9, 177540, Note_on_c, 7, 46, 0
9, 177540, Note_on_c, 7, 44, 83
9, 177600, Note_on_c, 7, 44, 0
9, 177600, Note_on_c, 7, 74, 0
9, 177600, Note_on_c, 7, 75, 92
9, 177600, Note_on_c, 7, 43, 81
9, 177660, Note_on_c, 7, 43, 0
9, 177660, Note_on_c, 7, 75, 0
9, 177720, Note_on_c, 7, 55, 81
9, 177780, Note_on_c, 7, 55, 0
9, 177780, Note_on_c, 7, 56, 84
9, 177840, Note_on_c, 7, 56, 0
9, 177840, Note_on_c, 7, 58, 78
9, 177900, Note_on_c, 7, 58, 0
9, 177900, Note_on_c, 7, 56, 90
9, 177960, Note_on_c, 7, 56, 0
9, 177960, Note_on_c, 7, 79, 80
9, 177960, Note_on_c, 7, 55, 83
9, 178020, Note_on_c, 7, 55, 0
9, 178020, Note_on_c, 7, 79, 0
9, 178020, Note_on_c, 7, 80, 85
9, 178020, Note_on_c, 7, 53, 83
9, 178080, Note_on_c, 7, 53, 0
9, 178080, Note_on_c, 7, 80, 0
9, 178080, Note_on_c, 7, 82, 94
9, 178080, Note_on_c, 7, 52, 92
9, 178140, Note_on_c, 7, 52, 0
9, 178140, Note_on_c, 7, 53, 80
9, 178200, Note_on_c, 7, 53, 0
9, 178200, Note_on_c, 7, 55, 84
9, 178260, Note_on_c, 7, 55, 0
9, 178260, Note_on_c, 7, 53, 81
9, 178320, Note_on_c, 7, 53, 0
9, 178320, Note_on_c, 7, 52, 94
9, 178380, Note_on_c, 7, 52, 0
9, 178380, Note_on_c, 7, 49, 93
9, 178440, Note_on_c, 7, 49, 0
9, 178440, Note_on_c, 7, 82, 0
9, 178440, Note_on_c, 7, 76, 89
9, 178440, Note_on_c, 7, 48, 92
9, 178500, Note_on_c, 7, 48, 0
9, 178500, Note_on_c, 7, 46, 94
9, 178560, Note_on_c, 7, 46, 0
9, 178560, Note_on_c, 7, 76, 0
9, 178560, Note_on_c, 7, 77, 83
9, 178560, Note_on_c, 7, 45, 88
9, 178620, Note_on_c, 7, 45, 0
9, 178620, Note_on_c, 7, 77, 0
9, 178680, Note_on_c, 7, 56, 88
9, 178740, Note_on_c, 7, 56, 0
9, 178740, Note_on_c, 7, 58, 79
9, 178800, Note_on_c, 7, 58, 0
9, 178800, Note_on_c, 7, 60, 85
9, 178860, Note_on_c, 7, 60, 0
9, 178860, Note_on_c, 7, 58, 81
9, 178920, Note_on_c, 7, 58, 0
9, 178920, Note_on_c, 7, 80, 88
9, 178920, Note_on_c, 7, 56, 88
9, 178980, Note_on_c, 7, 56, 0
9, 178980, Note_on_c, 7, 80, 0
9, 178980, Note_on_c, 7, 82, 92
9, 178980, Note_on_c, 7, 55, 89
9, 179040, Note_on_c, 7, 55, 0
9, 179040, Note_on_c, 7, 82, 0
9, 179040, Note_on_c, 7, 84, 95
9, 179040, Note_on_c, 7, 53, 97
9, 179100, Note_on_c, 7, 53, 0
9, 179100, Note_on_c, 7, 55, 88
9, 179160, Note_on_c, 7, 55, 0
9, 179160, Note_on_c, 7, 56, 89
9, 179220, Note_on_c, 7, 56, 0
9, 179220, Note_on_c, 7, 55, 81
9, 179280, Note_on_c, 7, 55, 0
9, 179280, Note_on_c, 7, 53, 78
9, 179340, Note_on_c, 7, 53, 0
9, 179340, Note_on_c, 7, 51, 81
9, 179400, Note_on_c, 7, 51, 0
9, 179400, Note_on_c, 7, 84, 0
9, 179400, Note_on_c, 7, 86, 89
9, 179400, Note_on_c, 7, 50, 81
9, 179460, Note_on_c, 7, 50, 0
9, 179460, Note_on_c, 7, 86, 0
9, 179460, Note_on_c, 7, 87, 79
9, 179460, Note_on_c, 7, 48, 85
9, 179520, Note_on_c, 7, 48, 0
9, 179520, Note_on_c, 7, 87, 0
9, 179520, Note_on_c, 7, 89, 83
9, 179520, Note_on_c, 7, 47, 92
9, 179580, Note_on_c, 7, 47, 0
9, 179580, Note_on_c, 7, 48, 83
9, 179640, Note_on_c, 7, 48, 0
9, 179640, Note_on_c, 7, 47, 85
9, 179700, Note_on_c, 7, 47, 0
9, 179700, Note_on_c, 7, 44, 92
9, 179760, Note_on_c, 7, 44, 0
9, 179760, Note_on_c, 7, 43, 88
9, 179820, Note_on_c, 7, 43, 0
9, 179820, Note_on_c, 7, 41, 79
9, 179880, Note_on_c, 7, 41, 0
9, 179880, Note_on_c, 7, 89, 0
9, 179880, Note_on_c, 7, 83, 81
9, 179880, Note_on_c, 7, 39, 88
9, 179910, Note_on_c, 7, 83, 0
9, 179910, Note_on_c, 7, 84, 94
9, 179930, Note_on_c, 7, 84, 0
9, 179930, Note_on_c, 7, 83, 90
9, 179940, Note_on_c, 7, 39, 0
9, 179940, Note_on_c, 7, 38, 85
9, 179950, Note_on_c, 7, 83, 0
9, 179950, Note_on_c, 7, 81, 89
9, 179970, Note_on_c, 7, 81, 0
9, 179970, Note_on_c, 7, 83, 92
9, 179990, Note_on_c, 7, 83, 0
9, 180000, Note_on_c, 7, 38, 0
9, 180000, Note_on_c, 7, 84, 88
9, 180000, Note_on_c, 7, 36, 99
9, 180120, Note_on_c, 7, 36, 0
9, 180120, Note_on_c, 7, 84, 0
9, 180120, Note_on_c, 7, 38, 81
9, 180240, Note_on_c, 7, 38, 0
9, 180240, Note_on_c, 7, 75, 85
9, 180240, Note_on_c, 7, 39, 80
9, 180360, Note_on_c, 7, 39, 0
9, 180360, Note_on_c, 7, 75, 0
9, 180360, Note_on_c, 7, 42, 88
9, 180480, Note_on_c, 7, 42, 0
9, 180480, Note_on_c, 7, 74, 63
9, 180480, Note_on_c, 7, 71, 74
9, 180480, Note_on_c, 7, 43, 69
9, 180540, Note_on_c, 7, 43, 0
9, 180540, Note_on_c, 7, 71, 0
9, 180540, Note_on_c, 7, 74, 0
9, 180540, Note_on_c, 7, 66, 80
9, 180600, Note_on_c, 7, 66, 0
9, 180600, Note_on_c, 7, 67, 78
9, 180600, Note_on_c, 7, 65, 83
9, 180660, Note_on_c, 7, 67, 0
9, 180660, Note_on_c, 7, 74, 77
9, 180720, Note_on_c, 7, 74, 0
9, 180720, Note_on_c, 7, 65, 0
9, 180720, Note_on_c, 7, 72, 84
9, 180720, Note_on_c, 7, 63, 78
9, 180780, Note_on_c, 7, 72, 0
9, 180780, Note_on_c, 7, 66, 80
9, 180840, Note_on_c, 7, 66, 0
9, 180840, Note_on_c, 7, 63, 0
9, 180840, Note_on_c, 7, 60, 74
9, 180840, Note_on_c, 7, 67, 81
9, 180900, Note_on_c, 7, 67, 0
9, 180900, Note_on_c, 7, 75, 84
9, 180960, Note_on_c, 7, 75, 0
9, 180960, Note_on_c, 7, 60, 0
9, 180960, Note_on_c, 7, 74, 77
9, 180960, Note_on_c, 7, 59, 81
9, 181020, Note_on_c, 7, 74, 0
9, 181020, Note_on_c, 7, 66, 81
9, 181080, Note_on_c, 7, 66, 0
9, 181080, Note_on_c, 7, 59, 0
9, 181080, Note_on_c, 7, 67, 79
9, 181080, Note_on_c, 7, 55, 83
9, 181140, Note_on_c, 7, 67, 0
9, 181140, Note_on_c, 7, 77, 72
9, 181200, Note_on_c, 7, 77, 0
9, 181200, Note_on_c, 7, 55, 0
9, 181200, Note_on_c, 7, 75, 81
9, 181200, Note_on_c, 7, 60, 74
9, 181260, Note_on_c, 7, 75, 0
9, 181260, Note_on_c, 7, 67, 78
9, 181320, Note_on_c, 7, 67, 0
9, 181320, Note_on_c, 7, 60, 0
9, 181320, Note_on_c, 7, 57, 89
9, 181320, Note_on_c, 7, 78, 85
9, 181380, Note_on_c, 7, 78, 0
9, 181380, Note_on_c, 7, 67, 83
9, 181440, Note_on_c, 7, 67, 0
9, 181440, Note_on_c, 7, 57, 0
9, 181440, Note_on_c, 7, 79, 80
9, 181440, Note_on_c, 7, 55, 80
9, 181500, Note_on_c, 7, 55, 0
9, 181500, Note_on_c, 7, 79, 0
9, 181500, Note_on_c, 7, 67, 79
9, 181560, Note_on_c, 7, 67, 0
9, 181560, Note_on_c, 7, 71, 79
9, 181560, Note_on_c, 7, 65, 83
9, 181620, Note_on_c, 7, 65, 0
9, 181620, Note_on_c, 7, 71, 0
9, 181620, Note_on_c, 7, 79, 80
9, 181620, Note_on_c, 7, 67, 64
9, 181680, Note_on_c, 7, 67, 0
9, 181680, Note_on_c, 7, 79, 0
9, 181680, Note_on_c, 7, 72, 44
9, 181680, Note_on_c, 7, 63, 79
9, 181740, Note_on_c, 7, 63, 0
9, 181740, Note_on_c, 7, 72, 0
9, 181740, Note_on_c, 7, 79, 90
9, 181740, Note_on_c, 7, 67, 79
9, 181800, Note_on_c, 7, 67, 0
9, 181800, Note_on_c, 7, 79, 0
9, 181800, Note_on_c, 7, 75, 85
9, 181800, Note_on_c, 7, 60, 64
9, 181860, Note_on_c, 7, 60, 0
9, 181860, Note_on_c, 7, 75, 0
9, 181860, Note_on_c, 7, 79, 83
9, 181860, Note_on_c, 7, 67, 77
9, 181920, Note_on_c, 7, 67, 0
9, 181920, Note_on_c, 7, 79, 0
9, 181920, Note_on_c, 7, 74, 81
9, 181920, Note_on_c, 7, 59, 81
9, 181980, Note_on_c, 7, 59, 0
9, 181980, Note_on_c, 7, 74, 0
9, 181980, Note_on_c, 7, 79, 79
9, 181980, Note_on_c, 7, 67, 74
9, 182040, Note_on_c, 7, 67, 0
9, 182040, Note_on_c, 7, 79, 0
9, 182040, Note_on_c, 7, 77, 85
9, 182040, Note_on_c, 7, 55, 83
9, 182100, Note_on_c, 7, 55, 0
9, 182100, Note_on_c, 7, 77, 0
9, 182100, Note_on_c, 7, 79, 88
9, 182100, Note_on_c, 7, 67, 80
9, 182160, Note_on_c, 7, 67, 0
9, 182160, Note_on_c, 7, 79, 0
9, 182160, Note_on_c, 7, 75, 93
9, 182160, Note_on_c, 7, 60, 88
9, 182220, Note_on_c, 7, 60, 0
9, 182220, Note_on_c, 7, 75, 0
9, 182220, Note_on_c, 7, 79, 79
9, 182220, Note_on_c, 7, 67, 72
9, 182280, Note_on_c, 7, 67, 0
9, 182280, Note_on_c, 7, 79, 0
9, 182280, Note_on_c, 7, 78, 84
9, 182280, Note_on_c, 7, 60, 80
9, 182340, Note_on_c, 7, 60, 0
9, 182340, Note_on_c, 7, 78, 0
9, 182340, Note_on_c, 7, 81, 92
9, 182340, Note_on_c, 7, 67, 80
9, 182400, Note_on_c, 7, 67, 0
9, 182400, Note_on_c, 7, 81, 0
9, 182400, Note_on_c, 7, 79, 81
9, 182400, Note_on_c, 7, 59, 80
9, 182460, Note_on_c, 7, 59, 0
9, 182460, Note_on_c, 7, 79, 0
9, 182460, Note_on_c, 7, 81, 81
9, 182460, Note_on_c, 7, 67, 78
9, 182520, Note_on_c, 7, 67, 0
9, 182520, Note_on_c, 7, 81, 0
9, 182520, Note_on_c, 7, 78, 74
9, 182520, Note_on_c, 7, 60, 79
9, 182580, Note_on_c, 7, 60, 0
9, 182580, Note_on_c, 7, 78, 0
9, 182580, Note_on_c, 7, 81, 88
9, 182580, Note_on_c, 7, 67, 74
9, 182640, Note_on_c, 7, 67, 0
9, 182640, Note_on_c, 7, 81, 0
9, 182640, Note_on_c, 7, 79, 79
9, 182640, Note_on_c, 7, 59, 81
9, 182700, Note_on_c, 7, 59, 0
9, 182700, Note_on_c, 7, 79, 0
9, 182700, Note_on_c, 7, 81, 80
9, 182700, Note_on_c, 7, 67, 80
9, 182760, Note_on_c, 7, 67, 0
9, 182760, Note_on_c, 7, 81, 0
9, 182760, Note_on_c, 7, 78, 78
9, 182760, Note_on_c, 7, 60, 70
9, 182820, Note_on_c, 7, 60, 0
9, 182820, Note_on_c, 7, 78, 0
9, 182820, Note_on_c, 7, 81, 88
9, 182820, Note_on_c, 7, 67, 79
9, 182880, Note_on_c, 7, 67, 0
9, 182880, Note_on_c, 7, 81, 0
9, 182880, Note_on_c, 7, 79, 83
9, 182880, Note_on_c, 7, 59, 84
9, 183120, Note_on_c, 7, 59, 0
9, 183120, Note_on_c, 7, 79, 0
9, 187080, Note_on_c, 7, 79, 79
9, 187200, Note_on_c, 7, 79, 0
9, 187200, Note_on_c, 7, 84, 88
9, 187200, Note_on_c, 7, 64, 90
9, 187260, Note_on_c, 7, 64, 0
9, 187260, Note_on_c, 7, 67, 77
9, 187320, Note_on_c, 7, 67, 0
9, 187320, Note_on_c, 7, 84, 0
9, 187320, Note_on_c, 7, 83, 81
9, 187320, Note_on_c, 7, 64, 89
9, 187380, Note_on_c, 7, 64, 0
9, 187380, Note_on_c, 7, 67, 77
9, 187440, Note_on_c, 7, 67, 0
9, 187440, Note_on_c, 7, 83, 0
9, 187440, Note_on_c, 7, 84, 92
9, 187440, Note_on_c, 7, 64, 84
9, 187500, Note_on_c, 7, 64, 0
9, 187500, Note_on_c, 7, 67, 85
9, 187560, Note_on_c, 7, 67, 0
9, 187560, Note_on_c, 7, 84, 0
9, 187560, Note_on_c, 7, 86, 98
9, 187560, Note_on_c, 7, 64, 105
9, 187620, Note_on_c, 7, 64, 0
9, 187620, Note_on_c, 7, 67, 92
9, 187680, Note_on_c, 7, 67, 0
9, 187680, Note_on_c, 7, 86, 0
9, 187680, Note_on_c, 7, 84, 62
9, 187680, Note_on_c, 7, 65, 85
9, 187740, Note_on_c, 7, 65, 0
9, 187740, Note_on_c, 7, 67, 80
9, 187800, Note_on_c, 7, 67, 0
9, 187800, Note_on_c, 7, 84, 0
9, 187800, Note_on_c, 7, 83, 80
9, 187800, Note_on_c, 7, 65, 85
9, 187860, Note_on_c, 7, 65, 0
9, 187860, Note_on_c, 7, 67, 81
9, 187920, Note_on_c, 7, 67, 0
9, 187920, Note_on_c, 7, 83, 0
9, 187920, Note_on_c, 7, 81, 88
9, 187920, Note_on_c, 7, 65, 89
9, 187980, Note_on_c, 7, 65, 0
9, 187980, Note_on_c, 7, 67, 92
9, 188040, Note_on_c, 7, 67, 0
9, 188040, Note_on_c, 7, 81, 0
9, 188040, Note_on_c, 7, 79, 99
9, 188040, Note_on_c, 7, 65, 105
9, 188100, Note_on_c, 7, 65, 0
9, 188100, Note_on_c, 7, 67, 78
9, 188160, Note_on_c, 7, 67, 0
9, 188160, Note_on_c, 7, 79, 0
9, 188160, Note_on_c, 7, 84, 79
9, 188160, Note_on_c, 7, 64, 82
9, 188220, Note_on_c, 7, 64, 0
9, 188220, Note_on_c, 7, 67, 74
9, 188280, Note_on_c, 7, 67, 0
9, 188280, Note_on_c, 7, 84, 0
9, 188280, Note_on_c, 7, 83, 78
9, 188280, Note_on_c, 7, 64, 82
9, 188340, Note_on_c, 7, 64, 0
9, 188340, Note_on_c, 7, 67, 77
9, 188400, Note_on_c, 7, 67, 0
9, 188400, Note_on_c, 7, 83, 0
9, 188400, Note_on_c, 7, 84, 81
9, 188400, Note_on_c, 7, 64, 84
9, 188460, Note_on_c, 7, 64, 0
9, 188460, Note_on_c, 7, 67, 89
9, 188520, Note_on_c, 7, 67, 0
9, 188520, Note_on_c, 7, 84, 0
9, 188520, Note_on_c, 7, 86, 105
9, 188520, Note_on_c, 7, 64, 104
9, 188580, Note_on_c, 7, 64, 0
9, 188580, Note_on_c, 7, 67, 81
9, 188640, Note_on_c, 7, 67, 0
9, 188640, Note_on_c, 7, 86, 0
9, 188640, Note_on_c, 7, 83, 99
9, 188640, Note_on_c, 7, 65, 77
9, 188700, Note_on_c, 7, 65, 0
9, 188700, Note_on_c, 7, 67, 74
9, 188760, Note_on_c, 7, 67, 0
9, 188760, Note_on_c, 7, 65, 80
9, 188820, Note_on_c, 7, 65, 0
9, 188820, Note_on_c, 7, 67, 80
9, 188880, Note_on_c, 7, 67, 0
9, 188880, Note_on_c, 7, 83, 0
9, 188880, Note_on_c, 7, 79, 83
9, 188880, Note_on_c, 7, 65, 80
9, 188940, Note_on_c, 7, 65, 0
9, 188940, Note_on_c, 7, 67, 78
9, 189000, Note_on_c, 7, 67, 0
9, 189000, Note_on_c, 7, 79, 0
9, 189000, Note_on_c, 7, 65, 83
9, 189060, Note_on_c, 7, 65, 0
9, 189060, Note_on_c, 7, 67, 82
9, 189120, Note_on_c, 7, 67, 0
9, 189120, Note_on_c, 7, 89, 80
9, 189120, Note_on_c, 7, 57, 78
9, 189180, Note_on_c, 7, 57, 0
9, 189180, Note_on_c, 7, 89, 0
9, 189180, Note_on_c, 7, 69, 78
9, 189240, Note_on_c, 7, 69, 0
9, 189240, Note_on_c, 7, 89, 81
9, 189240, Note_on_c, 7, 68, 80
9, 189300, Note_on_c, 7, 68, 0
9, 189300, Note_on_c, 7, 69, 85
9, 189360, Note_on_c, 7, 69, 0
9, 189360, Note_on_c, 7, 59, 83
9, 189420, Note_on_c, 7, 59, 0
9, 189420, Note_on_c, 7, 71, 80
9, 189480, Note_on_c, 7, 71, 0
9, 189480, Note_on_c, 7, 89, 0
9, 189480, Note_on_c, 7, 86, 89
9, 189480, Note_on_c, 7, 70, 81
9, 189540, Note_on_c, 7, 70, 0
9, 189540, Note_on_c, 7, 71, 79
9, 189600, Note_on_c, 7, 71, 0
9, 189600, Note_on_c, 7, 60, 85
9, 189660, Note_on_c, 7, 60, 0
9, 189660, Note_on_c, 7, 72, 78
9, 189720, Note_on_c, 7, 72, 0
9, 189720, Note_on_c, 7, 86, 0
9, 189720, Note_on_c, 7, 88, 84
9, 189720, Note_on_c, 7, 71, 85
9, 189780, Note_on_c, 7, 71, 0
9, 189780, Note_on_c, 7, 72, 80
9, 189840, Note_on_c, 7, 72, 0
9, 189840, Note_on_c, 7, 57, 93
9, 189900, Note_on_c, 7, 57, 0
9, 189900, Note_on_c, 7, 69, 83
9, 189960, Note_on_c, 7, 69, 0
9, 189960, Note_on_c, 7, 88, 0
9, 189960, Note_on_c, 7, 84, 78
9, 189960, Note_on_c, 7, 68, 78
9, 190020, Note_on_c, 7, 68, 0
9, 190020, Note_on_c, 7, 69, 84
9, 190080, Note_on_c, 7, 69, 0
9, 190080, Note_on_c, 7, 53, 80
9, 190140, Note_on_c, 7, 53, 0
9, 190140, Note_on_c, 7, 65, 66
9, 190200, Note_on_c, 7, 65, 0
9, 190200, Note_on_c, 7, 84, 0
9, 190200, Note_on_c, 7, 86, 82
9, 190200, Note_on_c, 7, 64, 79
9, 190260, Note_on_c, 7, 64, 0
9, 190260, Note_on_c, 7, 65, 78
9, 190320, Note_on_c, 7, 65, 0
9, 190320, Note_on_c, 7, 55, 78
9, 190380, Note_on_c, 7, 55, 0
9, 190380, Note_on_c, 7, 67, 80
9, 190440, Note_on_c, 7, 67, 0
9, 190440, Note_on_c, 7, 86, 0
9, 190440, Note_on_c, 7, 83, 80
9, 190440, Note_on_c, 7, 66, 81
9, 190500, Note_on_c, 7, 66, 0
9, 190500, Note_on_c, 7, 67, 83
9, 190560, Note_on_c, 7, 67, 0
9, 190560, Note_on_c, 7, 83, 0
9, 190560, Note_on_c, 7, 84, 90
9, 190560, Note_on_c, 7, 52, 82
9, 190620, Note_on_c, 7, 52, 0
9, 190620, Note_on_c, 7, 64, 79
9, 190680, Note_on_c, 7, 64, 0
9, 190680, Note_on_c, 7, 84, 0
9, 190680, Note_on_c, 7, 79, 63
9, 190680, Note_on_c, 7, 67, 63
9, 190680, Note_on_c, 7, 63, 83
9, 190740, Note_on_c, 7, 63, 0
9, 190740, Note_on_c, 7, 64, 88
9, 190800, Note_on_c, 7, 64, 0
9, 190800, Note_on_c, 7, 67, 0
9, 190800, Note_on_c, 7, 79, 0
9, 190800, Note_on_c, 7, 79, 61
9, 190800, Note_on_c, 7, 67, 67
9, 190800, Note_on_c, 7, 49, 92
9, 190860, Note_on_c, 7, 49, 0
9, 190860, Note_on_c, 7, 61, 77
9, 190920, Note_on_c, 7, 61, 0
9, 190920, Note_on_c, 7, 67, 0
9, 190920, Note_on_c, 7, 79, 0
9, 190920, Note_on_c, 7, 79, 61
9, 190920, Note_on_c, 7, 67, 67
9, 190920, Note_on_c, 7, 60, 89
9, 190980, Note_on_c, 7, 60, 0
9, 190980, Note_on_c, 7, 61, 80
9, 191040, Note_on_c, 7, 61, 0
9, 191040, Note_on_c, 7, 67, 0
9, 191040, Note_on_c, 7, 79, 0
9, 191040, Note_on_c, 7, 79, 72
9, 191040, Note_on_c, 7, 67, 63
9, 191040, Note_on_c, 7, 50, 74
9, 191100, Note_on_c, 7, 50, 0
9, 191100, Note_on_c, 7, 62, 80
9, 191160, Note_on_c, 7, 62, 0
9, 191160, Note_on_c, 7, 67, 0
9, 191160, Note_on_c, 7, 79, 0
9, 191160, Note_on_c, 7, 77, 80
9, 191160, Note_on_c, 7, 65, 83
9, 191160, Note_on_c, 7, 61, 81
9, 191220, Note_on_c, 7, 61, 0
9, 191220, Note_on_c, 7, 62, 83
9, 191280, Note_on_c, 7, 62, 0
9, 191280, Note_on_c, 7, 47, 89
9, 191340, Note_on_c, 7, 47, 0
9, 191340, Note_on_c, 7, 59, 81
9, 191400, Note_on_c, 7, 59, 0
9, 191400, Note_on_c, 7, 65, 0
9, 191400, Note_on_c, 7, 77, 0
9, 191400, Note_on_c, 7, 75, 81
9, 191400, Note_on_c, 7, 63, 84
9, 191400, Note_on_c, 7, 58, 84
9, 191460, Note_on_c, 7, 58, 0
9, 191460, Note_on_c, 7, 59, 89
9, 191520, Note_on_c, 7, 59, 0
9, 191520, Note_on_c, 7, 48, 89
9, 191580, Note_on_c, 7, 48, 0
9, 191580, Note_on_c, 7, 60, 73
9, 191640, Note_on_c, 7, 60, 0
9, 191640, Note_on_c, 7, 63, 0
9, 191640, Note_on_c, 7, 75, 0
9, 191640, Note_on_c, 7, 76, 78
9, 191640, Note_on_c, 7, 64, 84
9, 191640, Note_on_c, 7, 59, 85
9, 191700, Note_on_c, 7, 59, 0
9, 191700, Note_on_c, 7, 60, 83
9, 191760, Note_on_c, 7, 60, 0
9, 191760, Note_on_c, 7, 45, 88
9, 191820, Note_on_c, 7, 45, 0
9, 191820, Note_on_c, 7, 57, 92
9, 191880, Note_on_c, 7, 57, 0
9, 191880, Note_on_c, 7, 64, 0
9, 191880, Note_on_c, 7, 76, 0
9, 191880, Note_on_c, 7, 73, 73
9, 191880, Note_on_c, 7, 61, 80
9, 191880, Note_on_c, 7, 56, 88
9, 191940, Note_on_c, 7, 56, 0
9, 191940, Note_on_c, 7, 57, 93
9, 192000, Note_on_c, 7, 57, 0
9, 192000, Note_on_c, 7, 41, 78
9, 192060, Note_on_c, 7, 41, 0
9, 192060, Note_on_c, 7, 53, 78
9, 192120, Note_on_c, 7, 53, 0
9, 192120, Note_on_c, 7, 61, 0
9, 192120, Note_on_c, 7, 73, 0
9, 192120, Note_on_c, 7, 74, 78
9, 192120, Note_on_c, 7, 62, 84
9, 192120, Note_on_c, 7, 52, 92
9, 192180, Note_on_c, 7, 52, 0
9, 192180, Note_on_c, 7, 53, 80
9, 192240, Note_on_c, 7, 53, 0
9, 192240, Note_on_c, 7, 43, 88
9, 192300, Note_on_c, 7, 43, 0
9, 192300, Note_on_c, 7, 55, 78
9, 192360, Note_on_c, 7, 55, 0
9, 192360, Note_on_c, 7, 62, 0
9, 192360, Note_on_c, 7, 74, 0
9, 192360, Note_on_c, 7, 71, 78
9, 192360, Note_on_c, 7, 59, 94
9, 192360, Note_on_c, 7, 54, 79
9, 192420, Note_on_c, 7, 54, 0
9, 192420, Note_on_c, 7, 55, 83
9, 192480, Note_on_c, 7, 55, 0
9, 192480, Note_on_c, 7, 59, 0
9, 192480, Note_on_c, 7, 71, 0
9, 192480, Note_on_c, 7, 72, 57
9, 192480, Note_on_c, 7, 60, 81
9, 192480, Note_on_c, 7, 48, 69
9, 192480, Note_on_c, 7, 36, 85
9, 192720, Note_on_c, 7, 36, 0
9, 192720, Note_on_c, 7, 72, 0
9, 192720, Note_on_c, 7, 60, 0
9, 192720, Note_on_c, 7, 48, 0
9, 194280, Note_on_c, 7, 39, 83
9, 194400, Note_on_c, 7, 39, 0
9, 194400, Note_on_c, 7, 60, 84
9, 194400, Note_on_c, 7, 44, 60
9, 194460, Note_on_c, 7, 60, 0
9, 194460, Note_on_c, 7, 68, 77
9, 194520, Note_on_c, 7, 68, 0
9, 194520, Note_on_c, 7, 44, 0
9, 194520, Note_on_c, 7, 63, 84
9, 194520, Note_on_c, 7, 43, 78
9, 194580, Note_on_c, 7, 63, 0
9, 194580, Note_on_c, 7, 68, 80
9, 194640, Note_on_c, 7, 68, 0
9, 194640, Note_on_c, 7, 43, 0
9, 194640, Note_on_c, 7, 60, 80
9, 194640, Note_on_c, 7, 44, 80
9, 194700, Note_on_c, 7, 60, 0
9, 194700, Note_on_c, 7, 68, 77
9, 194760, Note_on_c, 7, 68, 0
9, 194760, Note_on_c, 7, 44, 0
9, 194760, Note_on_c, 7, 46, 70
9, 194760, Note_on_c, 7, 63, 81
9, 194820, Note_on_c, 7, 63, 0
9, 194820, Note_on_c, 7, 68, 64
9, 194880, Note_on_c, 7, 68, 0
9, 194880, Note_on_c, 7, 46, 0
9, 194880, Note_on_c, 7, 61, 72
9, 194880, Note_on_c, 7, 44, 77
9, 194940, Note_on_c, 7, 61, 0
9, 194940, Note_on_c, 7, 70, 89
9, 195000, Note_on_c, 7, 70, 0
9, 195000, Note_on_c, 7, 44, 0
9, 195000, Note_on_c, 7, 63, 89
9, 195000, Note_on_c, 7, 43, 79
9, 195060, Note_on_c, 7, 63, 0
9, 195060, Note_on_c, 7, 70, 88
9, 195120, Note_on_c, 7, 70, 0
9, 195120, Note_on_c, 7, 43, 0
9, 195120, Note_on_c, 7, 61, 77
9, 195120, Note_on_c, 7, 41, 72
9, 195180, Note_on_c, 7, 61, 0
9, 195180, Note_on_c, 7, 70, 84
9, 195240, Note_on_c, 7, 70, 0
9, 195240, Note_on_c, 7, 41, 0
9, 195240, Note_on_c, 7, 39, 64
9, 195240, Note_on_c, 7, 63, 82
9, 195300, Note_on_c, 7, 63, 0
9, 195300, Note_on_c, 7, 70, 66
9, 195360, Note_on_c, 7, 70, 0
9, 195360, Note_on_c, 7, 39, 0
9, 195360, Note_on_c, 7, 60, 78
9, 195360, Note_on_c, 7, 44, 77
9, 195420, Note_on_c, 7, 60, 0
9, 195420, Note_on_c, 7, 68, 78
9, 195480, Note_on_c, 7, 68, 0
9, 195480, Note_on_c, 7, 44, 0
9, 195480, Note_on_c, 7, 63, 79
9, 195480, Note_on_c, 7, 43, 78
9, 195540, Note_on_c, 7, 63, 0
9, 195540, Note_on_c, 7, 68, 81
9, 195600, Note_on_c, 7, 68, 0
9, 195600, Note_on_c, 7, 43, 0
9, 195600, Note_on_c, 7, 60, 79
9, 195600, Note_on_c, 7, 44, 69
9, 195660, Note_on_c, 7, 60, 0
9, 195660, Note_on_c, 7, 68, 75
9, 195720, Note_on_c, 7, 68, 0
9, 195720, Note_on_c, 7, 44, 0
9, 195720, Note_on_c, 7, 46, 67
9, 195720, Note_on_c, 7, 63, 82
9, 195780, Note_on_c, 7, 63, 0
9, 195780, Note_on_c, 7, 68, 68
9, 195840, Note_on_c, 7, 68, 0
9, 195840, Note_on_c, 7, 46, 0
9, 195840, Note_on_c, 7, 58, 72
9, 195840, Note_on_c, 7, 39, 78
9, 195900, Note_on_c, 7, 58, 0
9, 195900, Note_on_c, 7, 67, 79
9, 195960, Note_on_c, 7, 67, 0
9, 195960, Note_on_c, 7, 63, 82
9, 196020, Note_on_c, 7, 63, 0
9, 196020, Note_on_c, 7, 67, 94
9, 196080, Note_on_c, 7, 67, 0
9, 196080, Note_on_c, 7, 39, 0
9, 196080, Note_on_c, 7, 58, 70
9, 196140, Note_on_c, 7, 58, 0
9, 196140, Note_on_c, 7, 67, 81
9, 196200, Note_on_c, 7, 67, 0
9, 196200, Note_on_c, 7, 75, 81
9, 196200, Note_on_c, 7, 63, 82
9, 196260, Note_on_c, 7, 63, 0
9, 196260, Note_on_c, 7, 67, 83
9, 196320, Note_on_c, 7, 67, 0
9, 196320, Note_on_c, 7, 75, 0
9, 196320, Note_on_c, 7, 85, 81
9, 196320, Note_on_c, 7, 58, 68
9, 196380, Note_on_c, 7, 58, 0
9, 196380, Note_on_c, 7, 67, 80
9, 196440, Note_on_c, 7, 67, 0
9, 196440, Note_on_c, 7, 85, 0
9, 196440, Note_on_c, 7, 63, 82
9, 196500, Note_on_c, 7, 63, 0
9, 196500, Note_on_c, 7, 67, 83
9, 196560, Note_on_c, 7, 67, 0
9, 196560, Note_on_c, 7, 58, 73
9, 196620, Note_on_c, 7, 58, 0
9, 196620, Note_on_c, 7, 67, 79
9, 196680, Note_on_c, 7, 67, 0
9, 196680, Note_on_c, 7, 75, 79
9, 196680, Note_on_c, 7, 63, 81
9, 196740, Note_on_c, 7, 63, 0
9, 196740, Note_on_c, 7, 67, 97
9, 196800, Note_on_c, 7, 67, 0
9, 196800, Note_on_c, 7, 75, 0
9, 196800, Note_on_c, 7, 84, 81
9, 196800, Note_on_c, 7, 60, 82
9, 196860, Note_on_c, 7, 60, 0
9, 196860, Note_on_c, 7, 68, 58
9, 196920, Note_on_c, 7, 68, 0
9, 196920, Note_on_c, 7, 84, 0
9, 196920, Note_on_c, 7, 63, 78
9, 196980, Note_on_c, 7, 63, 0
9, 196980, Note_on_c, 7, 68, 79
9, 197040, Note_on_c, 7, 68, 0
9, 197040, Note_on_c, 7, 60, 84
9, 197100, Note_on_c, 7, 60, 0
9, 197100, Note_on_c, 7, 68, 78
9, 197160, Note_on_c, 7, 68, 0
9, 197160, Note_on_c, 7, 75, 79
9, 197160, Note_on_c, 7, 63, 80
9, 197220, Note_on_c, 7, 63, 0
9, 197220, Note_on_c, 7, 68, 83
9, 197280, Note_on_c, 7, 68, 0
9, 197280, Note_on_c, 7, 75, 0
9, 197280, Note_on_c, 7, 82, 74
9, 197280, Note_on_c, 7, 61, 68
9, 197340, Note_on_c, 7, 61, 0
9, 197340, Note_on_c, 7, 82, 0
9, 197340, Note_on_c, 7, 70, 80
9, 197400, Note_on_c, 7, 70, 0
9, 197400, Note_on_c, 7, 75, 58
9, 197400, Note_on_c, 7, 63, 83
9, 197460, Note_on_c, 7, 63, 0
9, 197460, Note_on_c, 7, 75, 0
9, 197460, Note_on_c, 7, 70, 83
9, 197520, Note_on_c, 7, 70, 0
9, 197520, Note_on_c, 7, 79, 83
9, 197520, Note_on_c, 7, 61, 78
9, 197580, Note_on_c, 7, 61, 0
9, 197580, Note_on_c, 7, 79, 0
9, 197580, Note_on_c, 7, 70, 79
9, 197640, Note_on_c, 7, 70, 0
9, 197640, Note_on_c, 7, 75, 88
9, 197640, Note_on_c, 7, 63, 85
9, 197700, Note_on_c, 7, 63, 0
9, 197700, Note_on_c, 7, 75, 0
9, 197700, Note_on_c, 7, 70, 74
9, 197760, Note_on_c, 7, 70, 0
9, 197760, Note_on_c, 7, 80, 88
9, 197760, Note_on_c, 7, 60, 81
9, 197820, Note_on_c, 7, 60, 0
9, 197820, Note_on_c, 7, 63, 83
9, 197880, Note_on_c, 7, 63, 0
9, 197880, Note_on_c, 7, 61, 82
9, 197940, Note_on_c, 7, 61, 0
9, 197940, Note_on_c, 7, 60, 63
9, 198000, Note_on_c, 7, 60, 0
9, 198000, Note_on_c, 7, 80, 0
9, 198000, Note_on_c, 7, 58, 81
9, 198060, Note_on_c, 7, 58, 0
9, 198060, Note_on_c, 7, 56, 69
9, 198120, Note_on_c, 7, 56, 0
9, 198120, Note_on_c, 7, 36, 92
9, 198120, Note_on_c, 7, 55, 78
9, 198180, Note_on_c, 7, 55, 0
9, 198180, Note_on_c, 7, 56, 83
9, 198240, Note_on_c, 7, 56, 0
9, 198240, Note_on_c, 7, 36, 0
9, 198240, Note_on_c, 7, 55, 77
9, 198240, Note_on_c, 7, 46, 80
9, 198300, Note_on_c, 7, 55, 0
9, 198300, Note_on_c, 7, 64, 93
9, 198360, Note_on_c, 7, 64, 0
9, 198360, Note_on_c, 7, 60, 83
9, 198420, Note_on_c, 7, 60, 0
9, 198420, Note_on_c, 7, 64, 78
9, 198480, Note_on_c, 7, 64, 0
9, 198480, Note_on_c, 7, 46, 0
9, 198480, Note_on_c, 7, 55, 78
9, 198540, Note_on_c, 7, 55, 0
9, 198540, Note_on_c, 7, 64, 92
9, 198600, Note_on_c, 7, 64, 0
9, 198600, Note_on_c, 7, 36, 94
9, 198600, Note_on_c, 7, 60, 92
9, 198660, Note_on_c, 7, 60, 0
9, 198660, Note_on_c, 7, 64, 92
9, 198720, Note_on_c, 7, 64, 0
9, 198720, Note_on_c, 7, 36, 0
9, 198720, Note_on_c, 7, 56, 81
9, 198720, Note_on_c, 7, 44, 79
9, 198780, Note_on_c, 7, 56, 0
9, 198780, Note_on_c, 7, 65, 94
9, 198840, Note_on_c, 7, 65, 0
9, 198840, Note_on_c, 7, 60, 94
9, 198900, Note_on_c, 7, 60, 0
9, 198900, Note_on_c, 7, 65, 95
9, 198960, Note_on_c, 7, 65, 0
9, 198960, Note_on_c, 7, 44, 0
9, 198960, Note_on_c, 7, 56, 80
9, 199020, Note_on_c, 7, 56, 0
9, 199020, Note_on_c, 7, 65, 97
9, 199080, Note_on_c, 7, 65, 0
9, 199080, Note_on_c, 7, 36, 85
9, 199080, Note_on_c, 7, 60, 89
9, 199140, Note_on_c, 7, 60, 0
9, 199140, Note_on_c, 7, 65, 85
9, 199200, Note_on_c, 7, 65, 0
9, 199200, Note_on_c, 7, 36, 0
9, 199200, Note_on_c, 7, 67, 84
9, 199200, Note_on_c, 7, 58, 79
9, 199200, Note_on_c, 7, 43, 73
9, 199260, Note_on_c, 7, 43, 0
9, 199260, Note_on_c, 7, 58, 0
9, 199260, Note_on_c, 7, 67, 0
9, 199260, Note_on_c, 7, 60, 83
9, 199320, Note_on_c, 7, 60, 0
9, 199320, Note_on_c, 7, 67, 97
9, 199320, Note_on_c, 7, 36, 83
9, 199380, Note_on_c, 7, 36, 0
9, 199380, Note_on_c, 7, 67, 0
9, 199380, Note_on_c, 7, 58, 80
9, 199440, Note_on_c, 7, 58, 0
9, 199440, Note_on_c, 7, 67, 90
9, 199440, Note_on_c, 7, 40, 80
9, 199500, Note_on_c, 7, 40, 0
9, 199500, Note_on_c, 7, 67, 0
9, 199500, Note_on_c, 7, 60, 90
9, 199560, Note_on_c, 7, 60, 0
9, 199560, Note_on_c, 7, 67, 88
9, 199560, Note_on_c, 7, 36, 84
9, 199620, Note_on_c, 7, 36, 0
9, 199620, Note_on_c, 7, 67, 0
9, 199620, Note_on_c, 7, 56, 83
9, 199680, Note_on_c, 7, 56, 0
9, 199680, Note_on_c, 7, 56, 89
9, 199680, Note_on_c, 7, 41, 81
9, 199740, Note_on_c, 7, 56, 0
9, 199740, Note_on_c, 7, 58, 83
9, 199800, Note_on_c, 7, 58, 0
9, 199800, Note_on_c, 7, 56, 80
9, 199860, Note_on_c, 7, 56, 0
9, 199860, Note_on_c, 7, 55, 79
9, 199920, Note_on_c, 7, 55, 0
9, 199920, Note_on_c, 7, 41, 0
9, 199920, Note_on_c, 7, 53, 81
9, 199980, Note_on_c, 7, 53, 0
9, 199980, Note_on_c, 7, 51, 82
9, 200040, Note_on_c, 7, 51, 0
9, 200040, Note_on_c, 7, 67, 79
9, 200040, Note_on_c, 7, 50, 83
9, 200100, Note_on_c, 7, 50, 0
9, 200100, Note_on_c, 7, 48, 73
9, 200160, Note_on_c, 7, 48, 0
9, 200160, Note_on_c, 7, 67, 0
9, 200160, Note_on_c, 7, 79, 75
9, 200160, Note_on_c, 7, 47, 81
9, 200220, Note_on_c, 7, 47, 0
9, 200220, Note_on_c, 7, 55, 77
9, 200280, Note_on_c, 7, 55, 0
9, 200280, Note_on_c, 7, 79, 0
9, 200280, Note_on_c, 7, 50, 92
9, 200340, Note_on_c, 7, 50, 0
9, 200340, Note_on_c, 7, 55, 74
9, 200400, Note_on_c, 7, 55, 0
9, 200400, Note_on_c, 7, 47, 78
9, 200460, Note_on_c, 7, 47, 0
9, 200460, Note_on_c, 7, 55, 66
9, 200520, Note_on_c, 7, 55, 0
9, 200520, Note_on_c, 7, 67, 85
9, 200520, Note_on_c, 7, 50, 83
9, 200580, Note_on_c, 7, 50, 0
9, 200580, Note_on_c, 7, 55, 78
9, 200640, Note_on_c, 7, 55, 0
9, 200640, Note_on_c, 7, 67, 0
9, 200640, Note_on_c, 7, 75, 89
9, 200640, Note_on_c, 7, 48, 78
9, 200700, Note_on_c, 7, 48, 0
9, 200700, Note_on_c, 7, 55, 82
9, 200760, Note_on_c, 7, 55, 0
9, 200760, Note_on_c, 7, 75, 0
9, 200760, Note_on_c, 7, 51, 85
9, 200820, Note_on_c, 7, 51, 0
9, 200820, Note_on_c, 7, 55, 79
9, 200880, Note_on_c, 7, 55, 0
9, 200880, Note_on_c, 7, 48, 78
9, 200940, Note_on_c, 7, 48, 0
9, 200940, Note_on_c, 7, 55, 81
9, 201000, Note_on_c, 7, 55, 0
9, 201000, Note_on_c, 7, 67, 74
9, 201000, Note_on_c, 7, 51, 90
9, 201060, Note_on_c, 7, 51, 0
9, 201060, Note_on_c, 7, 55, 81
9, 201120, Note_on_c, 7, 55, 0
9, 201120, Note_on_c, 7, 67, 0
9, 201120, Note_on_c, 7, 74, 78
9, 201120, Note_on_c, 7, 50, 90
9, 201180, Note_on_c, 7, 50, 0
9, 201180, Note_on_c, 7, 74, 0
9, 201180, Note_on_c, 7, 55, 72
9, 201240, Note_on_c, 7, 55, 0
9, 201240, Note_on_c, 7, 67, 78
9, 201240, Note_on_c, 7, 53, 78
9, 201300, Note_on_c, 7, 53, 0
9, 201300, Note_on_c, 7, 67, 0
9, 201300, Note_on_c, 7, 55, 72
9, 201360, Note_on_c, 7, 55, 0
9, 201360, Note_on_c, 7, 71, 89
9, 201360, Note_on_c, 7, 50, 84
9, 201420, Note_on_c, 7, 50, 0
9, 201420, Note_on_c, 7, 71, 0
9, 201420, Note_on_c, 7, 55, 77
9, 201480, Note_on_c, 7, 55, 0
9, 201480, Note_on_c, 7, 67, 81
9, 201480, Note_on_c, 7, 53, 79
9, 201540, Note_on_c, 7, 53, 0
9, 201540, Note_on_c, 7, 67, 0
9, 201540, Note_on_c, 7, 55, 73
9, 201600, Note_on_c, 7, 55, 0
9, 201600, Note_on_c, 7, 72, 84
9, 201600, Note_on_c, 7, 51, 73
9, 201660, Note_on_c, 7, 51, 0
9, 201660, Note_on_c, 7, 55, 78
9, 201720, Note_on_c, 7, 55, 0
9, 201720, Note_on_c, 7, 54, 83
9, 201780, Note_on_c, 7, 54, 0
9, 201780, Note_on_c, 7, 55, 79
9, 201840, Note_on_c, 7, 55, 0
9, 201840, Note_on_c, 7, 72, 0
9, 201840, Note_on_c, 7, 53, 81
9, 201900, Note_on_c, 7, 53, 0
9, 201900, Note_on_c, 7, 51, 83
9, 201960, Note_on_c, 7, 51, 0
9, 201960, Note_on_c, 7, 31, 88
9, 201960, Note_on_c, 7, 50, 79
9, 202020, Note_on_c, 7, 50, 0
9, 202020, Note_on_c, 7, 48, 78
9, 202080, Note_on_c, 7, 48, 0
9, 202080, Note_on_c, 7, 31, 0
9, 202080, Note_on_c, 7, 47, 81
9, 202080, Note_on_c, 7, 41, 79
9, 202140, Note_on_c, 7, 47, 0
9, 202140, Note_on_c, 7, 55, 73
9, 202200, Note_on_c, 7, 55, 0
9, 202200, Note_on_c, 7, 50, 94
9, 202260, Note_on_c, 7, 50, 0
9, 202260, Note_on_c, 7, 55, 78
9, 202320, Note_on_c, 7, 55, 0
9, 202320, Note_on_c, 7, 41, 0
9, 202320, Note_on_c, 7, 47, 80
9, 202380, Note_on_c, 7, 47, 0
9, 202380, Note_on_c, 7, 55, 78
9, 202440, Note_on_c, 7, 55, 0
9, 202440, Note_on_c, 7, 31, 88
9, 202440, Note_on_c, 7, 50, 94
9, 202500, Note_on_c, 7, 50, 0
9, 202500, Note_on_c, 7, 55, 81
9, 202560, Note_on_c, 7, 55, 0
9, 202560, Note_on_c, 7, 31, 0
9, 202560, Note_on_c, 7, 48, 81
9, 202560, Note_on_c, 7, 40, 80
9, 202620, Note_on_c, 7, 48, 0
9, 202620, Note_on_c, 7, 55, 78
9, 202680, Note_on_c, 7, 55, 0
9, 202680, Note_on_c, 7, 52, 92
9, 202740, Note_on_c, 7, 52, 0
9, 202740, Note_on_c, 7, 55, 75
9, 202800, Note_on_c, 7, 55, 0
9, 202800, Note_on_c, 7, 40, 0
9, 202800, Note_on_c, 7, 48, 84
9, 202860, Note_on_c, 7, 48, 0
9, 202860, Note_on_c, 7, 55, 74
9, 202920, Note_on_c, 7, 55, 0
9, 202920, Note_on_c, 7, 36, 97
9, 202920, Note_on_c, 7, 52, 89
9, 202980, Note_on_c, 7, 52, 0
9, 202980, Note_on_c, 7, 55, 77
9, 203040, Note_on_c, 7, 55, 0
9, 203040, Note_on_c, 7, 36, 0
9, 203040, Note_on_c, 7, 48, 78
9, 203040, Note_on_c, 7, 41, 68
9, 203100, Note_on_c, 7, 41, 0
9, 203100, Note_on_c, 7, 48, 0
9, 203100, Note_on_c, 7, 57, 81
9, 203160, Note_on_c, 7, 57, 0
9, 203160, Note_on_c, 7, 50, 94
9, 203160, Note_on_c, 7, 38, 89
9, 203220, Note_on_c, 7, 38, 0
9, 203220, Note_on_c, 7, 50, 0
9, 203220, Note_on_c, 7, 57, 81
9, 203280, Note_on_c, 7, 57, 0
9, 203280, Note_on_c, 7, 48, 80
9, 203280, Note_on_c, 7, 43, 88
9, 203340, Note_on_c, 7, 43, 0
9, 203340, Note_on_c, 7, 48, 0
9, 203340, Note_on_c, 7, 55, 74
9, 203400, Note_on_c, 7, 55, 0
9, 203400, Note_on_c, 7, 50, 92
9, 203400, Note_on_c, 7, 31, 88
9, 203460, Note_on_c, 7, 31, 0
9, 203460, Note_on_c, 7, 50, 0
9, 203460, Note_on_c, 7, 55, 94
9, 203520, Note_on_c, 7, 55, 0
9, 203520, Note_on_c, 7, 48, 78
9, 203520, Note_on_c, 7, 36, 97
9, 203580, Note_on_c, 7, 48, 0
9, 203580, Note_on_c, 7, 55, 81
9, 203640, Note_on_c, 7, 55, 0
9, 203640, Note_on_c, 7, 36, 0
9, 203640, Note_on_c, 7, 64, 83
9, 203640, Note_on_c, 7, 52, 89
9, 203700, Note_on_c, 7, 52, 0
9, 203700, Note_on_c, 7, 55, 82
9, 203760, Note_on_c, 7, 55, 0
9, 203760, Note_on_c, 7, 64, 0
9, 203760, Note_on_c, 7, 72, 78
9, 203760, Note_on_c, 7, 52, 92
9, 203820, Note_on_c, 7, 52, 0
9, 203820, Note_on_c, 7, 60, 78
9, 203880, Note_on_c, 7, 60, 0
9, 203880, Note_on_c, 7, 72, 0
9, 203880, Note_on_c, 7, 55, 94
9, 203940, Note_on_c, 7, 55, 0
9, 203940, Note_on_c, 7, 60, 81
9, 204000, Note_on_c, 7, 60, 0
9, 204000, Note_on_c, 7, 52, 88
9, 204060, Note_on_c, 7, 52, 0
9, 204060, Note_on_c, 7, 60, 84
9, 204120, Note_on_c, 7, 60, 0
9, 204120, Note_on_c, 7, 55, 90
9, 204120, Note_on_c, 7, 40, 84
9, 204180, Note_on_c, 7, 55, 0
9, 204180, Note_on_c, 7, 60, 69
9, 204240, Note_on_c, 7, 60, 0
9, 204240, Note_on_c, 7, 40, 0
9, 204240, Note_on_c, 7, 52, 92
9, 204240, Note_on_c, 7, 36, 97
9, 204300, Note_on_c, 7, 52, 0
9, 204300, Note_on_c, 7, 60, 80
9, 204360, Note_on_c, 7, 60, 0
9, 204360, Note_on_c, 7, 36, 0
9, 204360, Note_on_c, 7, 55, 88
9, 204420, Note_on_c, 7, 55, 0
9, 204420, Note_on_c, 7, 60, 80
9, 204480, Note_on_c, 7, 60, 0
9, 204480, Note_on_c, 7, 53, 80
9, 204540, Note_on_c, 7, 53, 0
9, 204540, Note_on_c, 7, 60, 81
9, 204600, Note_on_c, 7, 60, 0
9, 204600, Note_on_c, 7, 69, 97
9, 204600, Note_on_c, 7, 57, 90
9, 204660, Note_on_c, 7, 57, 0
9, 204660, Note_on_c, 7, 60, 82
9, 204720, Note_on_c, 7, 60, 0
9, 204720, Note_on_c, 7, 69, 0
9, 204720, Note_on_c, 7, 74, 92
9, 204720, Note_on_c, 7, 53, 80
9, 204780, Note_on_c, 7, 53, 0
9, 204780, Note_on_c, 7, 62, 82
9, 204840, Note_on_c, 7, 62, 0
9, 204840, Note_on_c, 7, 74, 0
9, 204840, Note_on_c, 7, 57, 92
9, 204900, Note_on_c, 7, 57, 0
9, 204900, Note_on_c, 7, 62, 78
9, 204960, Note_on_c, 7, 62, 0
9, 204960, Note_on_c, 7, 53, 83
9, 205020, Note_on_c, 7, 53, 0
9, 205020, Note_on_c, 7, 62, 78
9, 205080, Note_on_c, 7, 62, 0
9, 205080, Note_on_c, 7, 57, 92
9, 205080, Note_on_c, 7, 41, 81
9, 205140, Note_on_c, 7, 57, 0
9, 205140, Note_on_c, 7, 62, 80
9, 205200, Note_on_c, 7, 62, 0
9, 205200, Note_on_c, 7, 41, 0
9, 205200, Note_on_c, 7, 53, 81
9, 205200, Note_on_c, 7, 38, 82
9, 205260, Note_on_c, 7, 53, 0
9, 205260, Note_on_c, 7, 62, 82
9, 205320, Note_on_c, 7, 62, 0
9, 205320, Note_on_c, 7, 38, 0
9, 205320, Note_on_c, 7, 57, 89
9, 205380, Note_on_c, 7, 57, 0
9, 205380, Note_on_c, 7, 62, 67
9, 205440, Note_on_c, 7, 62, 0
9, 205440, Note_on_c, 7, 52, 77
9, 205500, Note_on_c, 7, 52, 0
9, 205500, Note_on_c, 7, 60, 81
9, 205560, Note_on_c, 7, 60, 0
9, 205560, Note_on_c, 7, 78, 83
9, 205560, Note_on_c, 7, 55, 80
9, 205620, Note_on_c, 7, 55, 0
9, 205620, Note_on_c, 7, 60, 74
9, 205680, Note_on_c, 7, 60, 0
9, 205680, Note_on_c, 7, 78, 0
9, 205680, Note_on_c, 7, 79, 80
9, 205680, Note_on_c, 7, 52, 81
9, 205740, Note_on_c, 7, 52, 0
9, 205740, Note_on_c, 7, 60, 63
9, 205800, Note_on_c, 7, 60, 0
9, 205800, Note_on_c, 7, 79, 0
9, 205800, Note_on_c, 7, 55, 79
9, 205860, Note_on_c, 7, 55, 0
9, 205860, Note_on_c, 7, 60, 79
9, 205920, Note_on_c, 7, 60, 0
9, 205920, Note_on_c, 7, 50, 90
9, 205980, Note_on_c, 7, 50, 0
9, 205980, Note_on_c, 7, 59, 84
9, 206040, Note_on_c, 7, 59, 0
9, 206040, Note_on_c, 7, 55, 58
9, 206040, Note_on_c, 7, 42, 81
9, 206100, Note_on_c, 7, 55, 0
9, 206100, Note_on_c, 7, 59, 77
9, 206160, Note_on_c, 7, 59, 0
9, 206160, Note_on_c, 7, 42, 0
9, 206160, Note_on_c, 7, 50, 80
9, 206160, Note_on_c, 7, 43, 79
9, 206220, Note_on_c, 7, 50, 0
9, 206220, Note_on_c, 7, 59, 66
9, 206280, Note_on_c, 7, 59, 0
9, 206280, Note_on_c, 7, 43, 0
9, 206280, Note_on_c, 7, 55, 84
9, 206340, Note_on_c, 7, 55, 0
9, 206340, Note_on_c, 7, 59, 80
9, 206400, Note_on_c, 7, 59, 0
9, 206400, Note_on_c, 7, 52, 94
9, 206460, Note_on_c, 7, 52, 0
9, 206460, Note_on_c, 7, 60, 83
9, 206520, Note_on_c, 7, 60, 0
9, 206520, Note_on_c, 7, 79, 83
9, 206520, Note_on_c, 7, 55, 88
9, 206580, Note_on_c, 7, 55, 0
9, 206580, Note_on_c, 7, 79, 0
9, 206580, Note_on_c, 7, 60, 73
9, 206640, Note_on_c, 7, 60, 0
9, 206640, Note_on_c, 7, 79, 88
9, 206640, Note_on_c, 7, 55, 89
9, 206700, Note_on_c, 7, 55, 0
9, 206700, Note_on_c, 7, 64, 78
9, 206760, Note_on_c, 7, 64, 0
9, 206760, Note_on_c, 7, 79, 0
9, 206760, Note_on_c, 7, 84, 83
9, 206760, Note_on_c, 7, 60, 90
9, 206820, Note_on_c, 7, 60, 0
9, 206820, Note_on_c, 7, 64, 80
9, 206880, Note_on_c, 7, 64, 0
9, 206880, Note_on_c, 7, 84, 0
9, 206880, Note_on_c, 7, 60, 84
9, 206940, Note_on_c, 7, 60, 0
9, 206940, Note_on_c, 7, 67, 80
9, 207000, Note_on_c, 7, 67, 0
9, 207000, Note_on_c, 7, 64, 97
9, 207000, Note_on_c, 7, 52, 93
9, 207060, Note_on_c, 7, 52, 0
9, 207060, Note_on_c, 7, 64, 0
9, 207060, Note_on_c, 7, 67, 88
9, 207120, Note_on_c, 7, 67, 0
9, 207120, Note_on_c, 7, 64, 83
9, 207120, Note_on_c, 7, 52, 94
9, 207180, Note_on_c, 7, 64, 0
9, 207180, Note_on_c, 7, 72, 61
9, 207240, Note_on_c, 7, 72, 0
9, 207240, Note_on_c, 7, 52, 0
9, 207240, Note_on_c, 7, 48, 88
9, 207240, Note_on_c, 7, 67, 93
9, 207300, Note_on_c, 7, 67, 0
9, 207300, Note_on_c, 7, 72, 70
9, 207360, Note_on_c, 7, 72, 0
9, 207360, Note_on_c, 7, 48, 0
9, 207360, Note_on_c, 7, 65, 97
9, 207420, Note_on_c, 7, 65, 0
9, 207420, Note_on_c, 7, 72, 74
9, 207480, Note_on_c, 7, 72, 0
9, 207480, Note_on_c, 7, 81, 93
9, 207480, Note_on_c, 7, 69, 94
9, 207540, Note_on_c, 7, 69, 0
9, 207540, Note_on_c, 7, 81, 0
9, 207540, Note_on_c, 7, 72, 81
9, 207600, Note_on_c, 7, 72, 0
9, 207600, Note_on_c, 7, 81, 93
9, 207600, Note_on_c, 7, 65, 99
9, 207660, Note_on_c, 7, 65, 0
9, 207660, Note_on_c, 7, 74, 94
9, 207720, Note_on_c, 7, 74, 0
9, 207720, Note_on_c, 7, 81, 0
9, 207720, Note_on_c, 7, 86, 99
9, 207720, Note_on_c, 7, 69, 94
9, 207780, Note_on_c, 7, 69, 0
9, 207780, Note_on_c, 7, 74, 93
9, 207840, Note_on_c, 7, 74, 0
9, 207840, Note_on_c, 7, 86, 0
9, 207840, Note_on_c, 7, 65, 97
9, 207900, Note_on_c, 7, 65, 0
9, 207900, Note_on_c, 7, 74, 97
9, 207960, Note_on_c, 7, 74, 0
9, 207960, Note_on_c, 7, 69, 94
9, 207960, Note_on_c, 7, 53, 92
9, 208020, Note_on_c, 7, 53, 0
9, 208020, Note_on_c, 7, 69, 0
9, 208020, Note_on_c, 7, 74, 92
9, 208080, Note_on_c, 7, 74, 0
9, 208080, Note_on_c, 7, 65, 94
9, 208080, Note_on_c, 7, 53, 97
9, 208140, Note_on_c, 7, 65, 0
9, 208140, Note_on_c, 7, 74, 97
9, 208200, Note_on_c, 7, 74, 0
9, 208200, Note_on_c, 7, 53, 0
9, 208200, Note_on_c, 7, 50, 94
9, 208200, Note_on_c, 7, 69, 95
9, 208260, Note_on_c, 7, 69, 0
9, 208260, Note_on_c, 7, 74, 94
9, 208320, Note_on_c, 7, 74, 0
9, 208320, Note_on_c, 7, 50, 0
9, 208320, Note_on_c, 7, 64, 94
9, 208380, Note_on_c, 7, 64, 0
9, 208380, Note_on_c, 7, 72, 82
9, 208440, Note_on_c, 7, 72, 0
9, 208440, Note_on_c, 7, 78, 92
9, 208440, Note_on_c, 7, 67, 92
9, 208500, Note_on_c, 7, 67, 0
9, 208500, Note_on_c, 7, 78, 0
9, 208500, Note_on_c, 7, 72, 63
9, 208560, Note_on_c, 7, 72, 0
9, 208560, Note_on_c, 7, 78, 80
9, 208560, Note_on_c, 7, 64, 94
9, 208620, Note_on_c, 7, 64, 0
9, 208620, Note_on_c, 7, 72, 78
9, 208680, Note_on_c, 7, 72, 0
9, 208680, Note_on_c, 7, 78, 0
9, 208680, Note_on_c, 7, 79, 95
9, 208680, Note_on_c, 7, 67, 94
9, 208740, Note_on_c, 7, 67, 0
9, 208740, Note_on_c, 7, 72, 74
9, 208800, Note_on_c, 7, 72, 0
9, 208800, Note_on_c, 7, 79, 0
9, 208800, Note_on_c, 7, 62, 93
9, 208860, Note_on_c, 7, 62, 0
9, 208860, Note_on_c, 7, 71, 92
9, 208920, Note_on_c, 7, 71, 0
9, 208920, Note_on_c, 7, 67, 94
9, 208920, Note_on_c, 7, 42, 97
9, 208980, Note_on_c, 7, 42, 0
9, 208980, Note_on_c, 7, 67, 0
9, 208980, Note_on_c, 7, 71, 97
9, 209040, Note_on_c, 7, 71, 0
9, 209040, Note_on_c, 7, 62, 99
9, 209040, Note_on_c, 7, 42, 97
9, 209100, Note_on_c, 7, 62, 0
9, 209100, Note_on_c, 7, 71, 97
9, 209160, Note_on_c, 7, 71, 0
9, 209160, Note_on_c, 7, 42, 0
9, 209160, Note_on_c, 7, 43, 97
9, 209160, Note_on_c, 7, 67, 94
9, 209220, Note_on_c, 7, 67, 0
9, 209220, Note_on_c, 7, 71, 97
9, 209280, Note_on_c, 7, 71, 0
9, 209280, Note_on_c, 7, 43, 0
9, 209280, Note_on_c, 7, 72, 67
9, 209280, Note_on_c, 7, 67, 90
9, 209280, Note_on_c, 7, 64, 82
9, 209280, Note_on_c, 7, 36, 94
9, 209520, Note_on_c, 7, 36, 0
9, 209520, Note_on_c, 7, 72, 0
9, 209520, Note_on_c, 7, 67, 0
9, 209520, Note_on_c, 7, 64, 0
9, 220320, Note_on_c, 7, 88, 89
9, 220400, Note_on_c, 7, 88, 0
9, 220400, Note_on_c, 7, 83, 79
9, 220480, Note_on_c, 7, 83, 0
9, 220480, Note_on_c, 7, 84, 92
9, 220560, Note_on_c, 7, 84, 0
9, 220560, Note_on_c, 7, 88, 93
9, 220640, Note_on_c, 7, 88, 0
9, 220640, Note_on_c, 7, 78, 79
9, 220720, Note_on_c, 7, 78, 0
9, 220720, Note_on_c, 7, 79, 88
9, 220800, Note_on_c, 7, 79, 0
9, 220800, Note_on_c, 7, 84, 97
9, 220880, Note_on_c, 7, 84, 0
9, 220880, Note_on_c, 7, 75, 92
9, 220960, Note_on_c, 7, 75, 0
9, 220960, Note_on_c, 7, 76, 97
9, 221040, Note_on_c, 7, 76, 0
9, 221040, Note_on_c, 7, 79, 99
9, 221120, Note_on_c, 7, 79, 0
9, 221120, Note_on_c, 7, 71, 92
9, 221200, Note_on_c, 7, 71, 0
9, 221200, Note_on_c, 7, 72, 85
9, 221280, Note_on_c, 7, 72, 0
9, 221280, Note_on_c, 7, 76, 97
9, 221360, Note_on_c, 7, 76, 0
9, 221360, Note_on_c, 7, 66, 93
9, 221440, Note_on_c, 7, 66, 0
9, 221440, Note_on_c, 7, 67, 97
9, 221520, Note_on_c, 7, 67, 0
9, 221520, Note_on_c, 7, 72, 92
9, 221600, Note_on_c, 7, 72, 0
9, 221600, Note_on_c, 7, 63, 88
9, 221680, Note_on_c, 7, 63, 0
9, 221680, Note_on_c, 7, 64, 94
9, 221760, Note_on_c, 7, 64, 0
9, 221760, Note_on_c, 7, 67, 99
9, 221840, Note_on_c, 7, 67, 0
9, 221840, Note_on_c, 7, 59, 94
9, 221920, Note_on_c, 7, 59, 0
9, 221920, Note_on_c, 7, 60, 97
9, 222000, Note_on_c, 7, 60, 0
9, 222000, Note_on_c, 7, 64, 94
9, 222080, Note_on_c, 7, 64, 0
9, 222080, Note_on_c, 7, 54, 94
9, 222160, Note_on_c, 7, 54, 0
9, 222160, Note_on_c, 7, 55, 94
9, 222240, Note_on_c, 7, 55, 0
9, 222240, Note_on_c, 7, 60, 83
9, 222360, Note_on_c, 7, 60, 0
9, 222360, Note_on_c, 7, 52, 88
9, 222360, Note_on_c, 7, 40, 99
9, 222420, Note_on_c, 7, 52, 0
9, 222420, Note_on_c, 7, 60, 92
9, 222480, Note_on_c, 7, 60, 0
9, 222480, Note_on_c, 7, 40, 0
9, 222480, Note_on_c, 7, 53, 92
9, 222480, Note_on_c, 7, 41, 89
9, 222540, Note_on_c, 7, 53, 0
9, 222540, Note_on_c, 7, 60, 92
9, 222600, Note_on_c, 7, 60, 0
9, 222600, Note_on_c, 7, 41, 0
9, 222600, Note_on_c, 7, 42, 90
9, 222600, Note_on_c, 7, 54, 92
9, 222660, Note_on_c, 7, 54, 0
9, 222660, Note_on_c, 7, 60, 89
9, 222720, Note_on_c, 7, 60, 0
9, 222720, Note_on_c, 7, 42, 0
9, 222720, Note_on_c, 7, 55, 89
9, 222720, Note_on_c, 7, 43, 93
9, 222780, Note_on_c, 7, 55, 0
9, 222780, Note_on_c, 7, 60, 84
9, 222840, Note_on_c, 7, 60, 0
9, 222840, Note_on_c, 7, 43, 0
9, 222840, Note_on_c, 7, 56, 94
9, 222840, Note_on_c, 7, 44, 94
9, 222900, Note_on_c, 7, 56, 0
9, 222900, Note_on_c, 7, 60, 92
9, 222960, Note_on_c, 7, 60, 0
9, 222960, Note_on_c, 7, 44, 0
9, 222960, Note_on_c, 7, 57, 99
9, 222960, Note_on_c, 7, 45, 99
9, 223020, Note_on_c, 7, 57, 0
9, 223020, Note_on_c, 7, 60, 92
9, 223080, Note_on_c, 7, 60, 0
9, 223080, Note_on_c, 7, 45, 0
9, 223080, Note_on_c, 7, 42, 97
9, 223080, Note_on_c, 7, 54, 97
9, 223140, Note_on_c, 7, 54, 0
9, 223140, Note_on_c, 7, 60, 94
9, 223200, Note_on_c, 7, 60, 0
9, 223200, Note_on_c, 7, 42, 0
9, 223200, Note_on_c, 7, 55, 93
9, 223200, Note_on_c, 7, 43, 97
9, 223260, Note_on_c, 7, 55, 0
9, 223260, Note_on_c, 7, 60, 88
9, 223320, Note_on_c, 7, 60, 0
9, 223320, Note_on_c, 7, 43, 0
9, 223320, Note_on_c, 7, 52, 99
9, 223320, Note_on_c, 7, 40, 94
9, 223380, Note_on_c, 7, 52, 0
9, 223380, Note_on_c, 7, 60, 89
9, 223440, Note_on_c, 7, 60, 0
9, 223440, Note_on_c, 7, 40, 0
9, 223440, Note_on_c, 7, 53, 94
9, 223440, Note_on_c, 7, 41, 93
9, 223500, Note_on_c, 7, 53, 0
9, 223500, Note_on_c, 7, 60, 88
9, 223560, Note_on_c, 7, 60, 0
9, 223560, Note_on_c, 7, 41, 0
9, 223560, Note_on_c, 7, 42, 90
9, 223560, Note_on_c, 7, 54, 89
9, 223620, Note_on_c, 7, 54, 0
9, 223620, Note_on_c, 7, 60, 90
9, 223680, Note_on_c, 7, 60, 0
9, 223680, Note_on_c, 7, 42, 0
9, 223680, Note_on_c, 7, 55, 94
9, 223680, Note_on_c, 7, 43, 97
9, 223740, Note_on_c, 7, 55, 0
9, 223740, Note_on_c, 7, 60, 88
9, 223800, Note_on_c, 7, 60, 0
9, 223800, Note_on_c, 7, 43, 0
9, 223800, Note_on_c, 7, 56, 92
9, 223800, Note_on_c, 7, 44, 97
9, 223860, Note_on_c, 7, 56, 0
9, 223860, Note_on_c, 7, 60, 94
9, 223920, Note_on_c, 7, 60, 0
9, 223920, Note_on_c, 7, 44, 0
9, 223920, Note_on_c, 7, 57, 112
9, 223920, Note_on_c, 7, 45, 104
9, 223980, Note_on_c, 7, 57, 0
9, 223980, Note_on_c, 7, 60, 79
9, 224040, Note_on_c, 7, 60, 0
9, 224040, Note_on_c, 7, 45, 0
9, 224040, Note_on_c, 7, 42, 90
9, 224040, Note_on_c, 7, 54, 92
9, 224100, Note_on_c, 7, 54, 0
9, 224100, Note_on_c, 7, 60, 85
9, 224160, Note_on_c, 7, 60, 0
9, 224160, Note_on_c, 7, 42, 0
9, 224160, Note_on_c, 7, 55, 84
9, 224160, Note_on_c, 7, 43, 99
9, 224220, Note_on_c, 7, 55, 0
9, 224220, Note_on_c, 7, 60, 88
9, 224280, Note_on_c, 7, 60, 0
9, 224280, Note_on_c, 7, 43, 0
9, 224280, Note_on_c, 7, 56, 89
9, 224280, Note_on_c, 7, 44, 97
9, 224340, Note_on_c, 7, 56, 0
9, 224340, Note_on_c, 7, 60, 88
9, 224400, Note_on_c, 7, 60, 0
9, 224400, Note_on_c, 7, 44, 0
9, 224400, Note_on_c, 7, 57, 110
9, 224400, Note_on_c, 7, 45, 104
9, 224460, Note_on_c, 7, 57, 0
9, 224460, Note_on_c, 7, 60, 84
9, 224520, Note_on_c, 7, 60, 0
9, 224520, Note_on_c, 7, 45, 0
9, 224520, Note_on_c, 7, 42, 89
9, 224520, Note_on_c, 7, 54, 92
9, 224580, Note_on_c, 7, 54, 0
9, 224580, Note_on_c, 7, 60, 88
9, 224640, Note_on_c, 7, 60, 0
9, 224640, Note_on_c, 7, 42, 0
9, 224640, Note_on_c, 7, 55, 94
9, 224640, Note_on_c, 7, 43, 94
9, 224700, Note_on_c, 7, 55, 0
9, 224700, Note_on_c, 7, 60, 88
9, 224760, Note_on_c, 7, 60, 0
9, 224760, Note_on_c, 7, 43, 0
9, 224760, Note_on_c, 7, 56, 92
9, 224760, Note_on_c, 7, 44, 97
9, 224820, Note_on_c, 7, 56, 0
9, 224820, Note_on_c, 7, 60, 92
9, 224880, Note_on_c, 7, 60, 0
9, 224880, Note_on_c, 7, 44, 0
9, 224880, Note_on_c, 7, 57, 112
9, 224880, Note_on_c, 7, 45, 104
9, 224940, Note_on_c, 7, 57, 0
9, 224940, Note_on_c, 7, 60, 88
9, 225000, Note_on_c, 7, 60, 0
9, 225000, Note_on_c, 7, 45, 0
9, 225000, Note_on_c, 7, 42, 94
9, 225000, Note_on_c, 7, 54, 97
9, 225060, Note_on_c, 7, 54, 0
9, 225060, Note_on_c, 7, 60, 83
9, 225120, Note_on_c, 7, 60, 0
9, 225120, Note_on_c, 7, 42, 0
9, 225120, Note_on_c, 7, 55, 97
9, 225120, Note_on_c, 7, 43, 93
9, 225180, Note_on_c, 7, 55, 0
9, 225180, Note_on_c, 7, 52, 99
9, 225240, Note_on_c, 7, 52, 0
9, 225240, Note_on_c, 7, 60, 97
9, 225300, Note_on_c, 7, 60, 0
9, 225300, Note_on_c, 7, 55, 99
9, 225360, Note_on_c, 7, 55, 0
9, 225360, Note_on_c, 7, 43, 0
9, 225360, Note_on_c, 7, 64, 99
9, 225420, Note_on_c, 7, 64, 0
9, 225420, Note_on_c, 7, 60, 94
9, 225480, Note_on_c, 7, 60, 0
9, 225480, Note_on_c, 7, 67, 94
9, 225540, Note_on_c, 7, 67, 0
9, 225540, Note_on_c, 7, 64, 93
9, 225600, Note_on_c, 7, 64, 0
9, 225600, Note_on_c, 7, 72, 88
9, 225660, Note_on_c, 7, 72, 0
9, 225660, Note_on_c, 7, 67, 94
9, 225720, Note_on_c, 7, 67, 0
9, 225720, Note_on_c, 7, 76, 99
9, 225780, Note_on_c, 7, 76, 0
9, 225780, Note_on_c, 7, 72, 85
9, 225840, Note_on_c, 7, 72, 0
9, 225840, Note_on_c, 7, 79, 95
9, 225900, Note_on_c, 7, 79, 0
9, 225900, Note_on_c, 7, 76, 93
9, 225960, Note_on_c, 7, 76, 0
9, 225960, Note_on_c, 7, 84, 99
9, 226020, Note_on_c, 7, 84, 0
9, 226020, Note_on_c, 7, 79, 99
9, 226080, Note_on_c, 7, 79, 0
9, 226080, Note_on_c, 7, 88, 105
9, 226320, Note_on_c, 7, 88, 0
9, 226380, Note_on_c, 7, 76, 68
9, 226440, Note_on_c, 7, 76, 0
9, 226440, Note_on_c, 7, 84, 63
9, 226500, Note_on_c, 7, 84, 0
9, 226500, Note_on_c, 7, 79, 81
9, 226560, Note_on_c, 7, 79, 0
9, 226560, Note_on_c, 7, 88, 73
9, 226800, Note_on_c, 7, 88, 0
9, 226860, Note_on_c, 7, 76, 78
9, 226920, Note_on_c, 7, 76, 0
9, 226920, Note_on_c, 7, 84, 83
9, 226980, Note_on_c, 7, 84, 0
9, 226980, Note_on_c, 7, 79, 75
9, 227040, Note_on_c, 7, 79, 0
9, 227040, Note_on_c, 7, 88, 73
9, 227280, Note_on_c, 7, 88, 0
9, 227520, Note_on_c, 7, 74, 60
9, 227520, Note_on_c, 7, 55, 58
9, 227580, Note_on_c, 7, 55, 0
9, 227580, Note_on_c, 7, 74, 0
9, 227580, Note_on_c, 7, 76, 78
9, 227580, Note_on_c, 7, 59, 82
9, 227640, Note_on_c, 7, 59, 0
9, 227640, Note_on_c, 7, 76, 0
9, 227640, Note_on_c, 7, 74, 66
9, 227640, Note_on_c, 7, 62, 68
9, 227680, Note_on_c, 7, 74, 0
9, 227680, Note_on_c, 7, 76, 79
9, 227700, Note_on_c, 7, 62, 0
9, 227700, Note_on_c, 7, 65, 57
9, 227720, Note_on_c, 7, 76, 0
9, 227720, Note_on_c, 7, 74, 82
9, 227750, Note_on_c, 7, 74, 0
9, 227750, Note_on_c, 7, 76, 79
9, 227760, Note_on_c, 7, 65, 0
9, 227760, Note_on_c, 7, 55, 68
9, 227780, Note_on_c, 7, 76, 0
9, 227780, Note_on_c, 7, 74, 77
9, 227810, Note_on_c, 7, 74, 0
9, 227810, Note_on_c, 7, 76, 83
9, 227820, Note_on_c, 7, 55, 0
9, 227820, Note_on_c, 7, 59, 77
9, 227840, Note_on_c, 7, 76, 0
9, 227840, Note_on_c, 7, 74, 77
9, 227870, Note_on_c, 7, 74, 0
9, 227870, Note_on_c, 7, 76, 88
9, 227880, Note_on_c, 7, 59, 0
9, 227880, Note_on_c, 7, 62, 78
9, 227900, Note_on_c, 7, 76, 0
9, 227900, Note_on_c, 7, 74, 78
9, 227930, Note_on_c, 7, 74, 0
9, 227930, Note_on_c, 7, 76, 73
9, 227940, Note_on_c, 7, 62, 0
9, 227940, Note_on_c, 7, 65, 72
9, 227960, Note_on_c, 7, 76, 0
9, 227960, Note_on_c, 7, 74, 62
9, 227990, Note_on_c, 7, 74, 0
9, 228000, Note_on_c, 7, 65, 0
9, 228000, Note_on_c, 7, 74, 69
9, 228000, Note_on_c, 7, 55, 69
9, 228030, Note_on_c, 7, 74, 0
9, 228030, Note_on_c, 7, 76, 68
9, 228060, Note_on_c, 7, 76, 0
9, 228060, Note_on_c, 7, 55, 0
9, 228060, Note_on_c, 7, 74, 68
9, 228060, Note_on_c, 7, 59, 80
9, 228090, Note_on_c, 7, 74, 0
9, 228090, Note_on_c, 7, 76, 68
9, 228120, Note_on_c, 7, 76, 0
9, 228120, Note_on_c, 7, 59, 0
9, 228120, Note_on_c, 7, 74, 67
9, 228120, Note_on_c, 7, 62, 58
9, 228150, Note_on_c, 7, 74, 0
9, 228150, Note_on_c, 7, 76, 66
9, 228180, Note_on_c, 7, 76, 0
9, 228180, Note_on_c, 7, 62, 0
9, 228180, Note_on_c, 7, 74, 63
9, 228180, Note_on_c, 7, 65, 68
9, 228210, Note_on_c, 7, 74, 0
9, 228210, Note_on_c, 7, 76, 58
9, 228240, Note_on_c, 7, 76, 0
9, 228240, Note_on_c, 7, 65, 0
9, 228240, Note_on_c, 7, 74, 60
9, 228240, Note_on_c, 7, 55, 63
9, 228270, Note_on_c, 7, 74, 0
9, 228270, Note_on_c, 7, 76, 66
9, 228300, Note_on_c, 7, 76, 0
9, 228300, Note_on_c, 7, 55, 0
9, 228300, Note_on_c, 7, 74, 60
9, 228300, Note_on_c, 7, 59, 60
9, 228330, Note_on_c, 7, 74, 0
9, 228330, Note_on_c, 7, 76, 69
9, 228360, Note_on_c, 7, 76, 0
9, 228360, Note_on_c, 7, 59, 0
9, 228360, Note_on_c, 7, 74, 60
9, 228360, Note_on_c, 7, 62, 63
9, 228390, Note_on_c, 7, 74, 0
9, 228390, Note_on_c, 7, 76, 70
9, 228420, Note_on_c, 7, 76, 0
9, 228420, Note_on_c, 7, 62, 0
9, 228420, Note_on_c, 7, 65, 61
9, 228420, Note_on_c, 7, 74, 64
9, 228450, Note_on_c, 7, 74, 0
9, 228450, Note_on_c, 7, 76, 77
9, 228480, Note_on_c, 7, 76, 0
9, 228480, Note_on_c, 7, 65, 0
9, 228480, Note_on_c, 7, 74, 68
9, 228480, Note_on_c, 7, 55, 69
9, 228510, Note_on_c, 7, 74, 0
9, 228510, Note_on_c, 7, 76, 62
9, 228540, Note_on_c, 7, 76, 0
9, 228540, Note_on_c, 7, 55, 0
9, 228540, Note_on_c, 7, 74, 68
9, 228540, Note_on_c, 7, 59, 80
9, 228570, Note_on_c, 7, 74, 0
9, 228570, Note_on_c, 7, 76, 68
9, 228600, Note_on_c, 7, 76, 0
9, 228600, Note_on_c, 7, 59, 0
9, 228600, Note_on_c, 7, 74, 67
9, 228600, Note_on_c, 7, 62, 58
9, 228630, Note_on_c, 7, 74, 0
9, 228630, Note_on_c, 7, 76, 66
9, 228660, Note_on_c, 7, 76, 0
9, 228660, Note_on_c, 7, 62, 0
9, 228660, Note_on_c, 7, 74, 63
9, 228660, Note_on_c, 7, 65, 68
9, 228690, Note_on_c, 7, 74, 0
9, 228690, Note_on_c, 7, 76, 58
9, 228720, Note_on_c, 7, 76, 0
9, 228720, Note_on_c, 7, 65, 0
9, 228720, Note_on_c, 7, 74, 60
9, 228720, Note_on_c, 7, 55, 63
9, 228750, Note_on_c, 7, 74, 0
9, 228750, Note_on_c, 7, 76, 66
9, 228780, Note_on_c, 7, 76, 0
9, 228780, Note_on_c, 7, 55, 0
9, 228780, Note_on_c, 7, 74, 60
9, 228780, Note_on_c, 7, 59, 60
9, 228810, Note_on_c, 7, 74, 0
9, 228810, Note_on_c, 7, 76, 69
9, 228840, Note_on_c, 7, 76, 0
9, 228840, Note_on_c, 7, 59, 0
9, 228840, Note_on_c, 7, 74, 60
9, 228840, Note_on_c, 7, 62, 63
9, 228870, Note_on_c, 7, 74, 0
9, 228870, Note_on_c, 7, 76, 70
9, 228900, Note_on_c, 7, 76, 0
9, 228900, Note_on_c, 7, 62, 0
9, 228900, Note_on_c, 7, 65, 61
9, 228900, Note_on_c, 7, 74, 64
9, 228930, Note_on_c, 7, 74, 0
9, 228930, Note_on_c, 7, 76, 77
9, 228960, Note_on_c, 7, 76, 0
9, 228960, Note_on_c, 7, 65, 0
9, 228960, Note_on_c, 7, 74, 69
9, 228960, Note_on_c, 7, 55, 69
9, 228990, Note_on_c, 7, 74, 0
9, 228990, Note_on_c, 7, 76, 68
9, 229020, Note_on_c, 7, 76, 0
9, 229020, Note_on_c, 7, 55, 0
9, 229020, Note_on_c, 7, 74, 68
9, 229020, Note_on_c, 7, 59, 80
9, 229050, Note_on_c, 7, 74, 0
9, 229050, Note_on_c, 7, 76, 68
9, 229080, Note_on_c, 7, 76, 0
9, 229080, Note_on_c, 7, 59, 0
9, 229080, Note_on_c, 7, 74, 67
9, 229080, Note_on_c, 7, 62, 58
9, 229110, Note_on_c, 7, 74, 0
9, 229110, Note_on_c, 7, 76, 66
9, 229140, Note_on_c, 7, 76, 0
9, 229140, Note_on_c, 7, 62, 0
9, 229140, Note_on_c, 7, 74, 63
9, 229140, Note_on_c, 7, 65, 68
9, 229170, Note_on_c, 7, 74, 0
9, 229170, Note_on_c, 7, 76, 58
9, 229200, Note_on_c, 7, 76, 0
9, 229200, Note_on_c, 7, 65, 0
9, 229200, Note_on_c, 7, 74, 60
9, 229200, Note_on_c, 7, 55, 63
9, 229230, Note_on_c, 7, 74, 0
9, 229230, Note_on_c, 7, 76, 66
9, 229260, Note_on_c, 7, 76, 0
9, 229260, Note_on_c, 7, 55, 0
9, 229260, Note_on_c, 7, 74, 60
9, 229260, Note_on_c, 7, 59, 60
9, 229290, Note_on_c, 7, 74, 0
9, 229290, Note_on_c, 7, 76, 69
9, 229320, Note_on_c, 7, 76, 0
9, 229320, Note_on_c, 7, 59, 0
9, 229320, Note_on_c, 7, 74, 60
9, 229320, Note_on_c, 7, 62, 63
9, 229350, Note_on_c, 7, 74, 0
9, 229350, Note_on_c, 7, 76, 70
9, 229380, Note_on_c, 7, 76, 0
9, 229380, Note_on_c, 7, 62, 0
9, 229380, Note_on_c, 7, 65, 61
9, 229380, Note_on_c, 7, 74, 64
9, 229410, Note_on_c, 7, 74, 0
9, 229410, Note_on_c, 7, 76, 77
9, 229440, Note_on_c, 7, 76, 0
9, 229440, Note_on_c, 7, 65, 0
9, 229440, Note_on_c, 7, 75, 78
9, 229440, Note_on_c, 7, 54, 74
9, 229470, Note_on_c, 7, 75, 0
9, 229470, Note_on_c, 7, 76, 80
9, 229500, Note_on_c, 7, 76, 0
9, 229500, Note_on_c, 7, 54, 0
9, 229500, Note_on_c, 7, 75, 79
9, 229500, Note_on_c, 7, 59, 61
9, 229530, Note_on_c, 7, 75, 0
9, 229530, Note_on_c, 7, 76, 73
9, 229560, Note_on_c, 7, 76, 0
9, 229560, Note_on_c, 7, 59, 0
9, 229560, Note_on_c, 7, 75, 82
9, 229560, Note_on_c, 7, 63, 60
9, 229590, Note_on_c, 7, 75, 0
9, 229590, Note_on_c, 7, 76, 79
9, 229620, Note_on_c, 7, 76, 0
9, 229620, Note_on_c, 7, 63, 0
9, 229620, Note_on_c, 7, 75, 82
9, 229620, Note_on_c, 7, 66, 73
9, 229650, Note_on_c, 7, 75, 0
9, 229650, Note_on_c, 7, 76, 81
9, 229680, Note_on_c, 7, 76, 0
9, 229680, Note_on_c, 7, 66, 0
9, 229680, Note_on_c, 7, 75, 79
9, 229680, Note_on_c, 7, 54, 69
9, 229710, Note_on_c, 7, 75, 0
9, 229710, Note_on_c, 7, 76, 88
9, 229740, Note_on_c, 7, 76, 0
9, 229740, Note_on_c, 7, 54, 0
9, 229740, Note_on_c, 7, 75, 80
9, 229740, Note_on_c, 7, 59, 72
9, 229770, Note_on_c, 7, 75, 0
9, 229770, Note_on_c, 7, 76, 79
9, 229800, Note_on_c, 7, 76, 0
9, 229800, Note_on_c, 7, 59, 0
9, 229800, Note_on_c, 7, 75, 80
9, 229800, Note_on_c, 7, 63, 63
9, 229830, Note_on_c, 7, 75, 0
9, 229830, Note_on_c, 7, 76, 83
9, 229860, Note_on_c, 7, 76, 0
9, 229860, Note_on_c, 7, 63, 0
9, 229860, Note_on_c, 7, 66, 70
9, 229860, Note_on_c, 7, 75, 81
9, 229890, Note_on_c, 7, 75, 0
9, 229890, Note_on_c, 7, 76, 83
9, 229920, Note_on_c, 7, 76, 0
9, 229920, Note_on_c, 7, 66, 0
9, 229920, Note_on_c, 7, 75, 92
9, 229920, Note_on_c, 7, 54, 61
9, 229950, Note_on_c, 7, 75, 0
9, 229950, Note_on_c, 7, 76, 81
9, 229980, Note_on_c, 7, 76, 0
9, 229980, Note_on_c, 7, 54, 0
9, 229980, Note_on_c, 7, 75, 79
9, 229980, Note_on_c, 7, 59, 68
9, 230010, Note_on_c, 7, 75, 0
9, 230010, Note_on_c, 7, 76, 77
9, 230040, Note_on_c, 7, 76, 0
9, 230040, Note_on_c, 7, 59, 0
9, 230040, Note_on_c, 7, 75, 80
9, 230040, Note_on_c, 7, 63, 62
9, 230070, Note_on_c, 7, 75, 0
9, 230070, Note_on_c, 7, 76, 73
9, 230100, Note_on_c, 7, 76, 0
9, 230100, Note_on_c, 7, 63, 0
9, 230100, Note_on_c, 7, 75, 77
9, 230100, Note_on_c, 7, 66, 81
9, 230130, Note_on_c, 7, 75, 0
9, 230130, Note_on_c, 7, 76, 66
9, 230160, Note_on_c, 7, 76, 0
9, 230160, Note_on_c, 7, 66, 0
9, 230160, Note_on_c, 7, 75, 60
9, 230160, Note_on_c, 7, 54, 84
9, 230190, Note_on_c, 7, 75, 0
9, 230190, Note_on_c, 7, 76, 67
9, 230220, Note_on_c, 7, 76, 0
9, 230220, Note_on_c, 7, 54, 0
9, 230220, Note_on_c, 7, 75, 64
9, 230220, Note_on_c, 7, 59, 81
9, 230250, Note_on_c, 7, 75, 0
9, 230250, Note_on_c, 7, 76, 78
9, 230280, Note_on_c, 7, 76, 0
9, 230280, Note_on_c, 7, 59, 0
9, 230280, Note_on_c, 7, 87, 79
9, 230280, Note_on_c, 7, 63, 66
9, 230340, Note_on_c, 7, 63, 0
9, 230340, Note_on_c, 7, 87, 0
9, 230340, Note_on_c, 7, 66, 79
9, 230370, Note_on_c, 7, 87, 83
9, 230400, Note_on_c, 7, 87, 0
9, 230400, Note_on_c, 7, 66, 0
9, 230400, Note_on_c, 7, 85, 78
9, 230400, Note_on_c, 7, 66, 60
9, 230400, Note_on_c, 7, 63, 60
9, 230400, Note_on_c, 7, 59, 66
9, 230460, Note_on_c, 7, 85, 0
9, 230520, Note_on_c, 7, 66, 0
9, 230520, Note_on_c, 7, 63, 0
9, 230520, Note_on_c, 7, 59, 0
9, 230520, Note_on_c, 7, 83, 82
9, 230520, Note_on_c, 7, 66, 48
9, 230520, Note_on_c, 7, 63, 58
9, 230520, Note_on_c, 7, 59, 61
9, 230580, Note_on_c, 7, 83, 0
9, 230640, Note_on_c, 7, 66, 0
9, 230640, Note_on_c, 7, 63, 0
9, 230640, Note_on_c, 7, 59, 0
9, 230640, Note_on_c, 7, 83, 81
9, 230640, Note_on_c, 7, 66, 60
9, 230640, Note_on_c, 7, 63, 58
9, 230640, Note_on_c, 7, 59, 66
9, 230700, Note_on_c, 7, 83, 0
9, 230760, Note_on_c, 7, 66, 0
9, 230760, Note_on_c, 7, 63, 0
9, 230760, Note_on_c, 7, 59, 0
9, 230760, Note_on_c, 7, 66, 50
9, 230760, Note_on_c, 7, 63, 50
9, 230760, Note_on_c, 7, 59, 58
9, 230760, Note_on_c, 7, 87, 75
9, 230820, Note_on_c, 7, 87, 0
9, 230850, Note_on_c, 7, 87, 77
9, 230880, Note_on_c, 7, 87, 0
9, 230880, Note_on_c, 7, 59, 0
9, 230880, Note_on_c, 7, 63, 0
9, 230880, Note_on_c, 7, 66, 0
9, 230880, Note_on_c, 7, 85, 79
9, 230880, Note_on_c, 7, 66, 58
9, 230880, Note_on_c, 7, 63, 53
9, 230880, Note_on_c, 7, 59, 48
9, 230940, Note_on_c, 7, 85, 0
9, 231000, Note_on_c, 7, 66, 0
9, 231000, Note_on_c, 7, 63, 0
9, 231000, Note_on_c, 7, 59, 0
9, 231000, Note_on_c, 7, 83, 68
9, 231000, Note_on_c, 7, 66, 55
9, 231000, Note_on_c, 7, 63, 61
9, 231000, Note_on_c, 7, 59, 66
9, 231060, Note_on_c, 7, 83, 0
9, 231120, Note_on_c, 7, 66, 0
9, 231120, Note_on_c, 7, 63, 0
9, 231120, Note_on_c, 7, 59, 0
9, 231120, Note_on_c, 7, 83, 78
9, 231120, Note_on_c, 7, 66, 57
9, 231120, Note_on_c, 7, 63, 61
9, 231120, Note_on_c, 7, 59, 69
9, 231180, Note_on_c, 7, 83, 0
9, 231240, Note_on_c, 7, 66, 0
9, 231240, Note_on_c, 7, 63, 0
9, 231240, Note_on_c, 7, 59, 0
9, 231240, Note_on_c, 7, 66, 67
9, 231240, Note_on_c, 7, 63, 61
9, 231240, Note_on_c, 7, 59, 58
9, 231240, Note_on_c, 7, 87, 80
9, 231300, Note_on_c, 7, 87, 0
9, 231330, Note_on_c, 7, 87, 81
9, 231360, Note_on_c, 7, 87, 0
9, 231360, Note_on_c, 7, 59, 0
9, 231360, Note_on_c, 7, 63, 0
9, 231360, Note_on_c, 7, 66, 0
9, 231360, Note_on_c, 7, 85, 73
9, 231360, Note_on_c, 7, 66, 61
9, 231360, Note_on_c, 7, 63, 61
9, 231360, Note_on_c, 7, 59, 77
9, 231420, Note_on_c, 7, 85, 0
9, 231480, Note_on_c, 7, 66, 0
9, 231480, Note_on_c, 7, 63, 0
9, 231480, Note_on_c, 7, 59, 0
9, 231480, Note_on_c, 7, 83, 81
9, 231480, Note_on_c, 7, 66, 61
9, 231480, Note_on_c, 7, 63, 61
9, 231480, Note_on_c, 7, 59, 67
9, 231540, Note_on_c, 7, 83, 0
9, 231570, Note_on_c, 7, 83, 79
9, 231600, Note_on_c, 7, 83, 0
9, 231600, Note_on_c, 7, 59, 0
9, 231600, Note_on_c, 7, 63, 0
9, 231600, Note_on_c, 7, 66, 0
9, 231600, Note_on_c, 7, 82, 58
9, 231600, Note_on_c, 7, 68, 58
9, 231600, Note_on_c, 7, 66, 60
9, 231600, Note_on_c, 7, 63, 61
9, 231600, Note_on_c, 7, 59, 68
9, 231660, Note_on_c, 7, 82, 0
9, 231720, Note_on_c, 7, 63, 0
9, 231720, Note_on_c, 7, 68, 0
9, 231720, Note_on_c, 7, 66, 0
9, 231720, Note_on_c, 7, 59, 0
9, 231720, Note_on_c, 7, 68, 61
9, 231720, Note_on_c, 7, 66, 61
9, 231720, Note_on_c, 7, 63, 58
9, 231720, Note_on_c, 7, 59, 70
9, 231720, Note_on_c, 7, 80, 75
9, 231780, Note_on_c, 7, 80, 0
9, 231840, Note_on_c, 7, 63, 0
9, 231840, Note_on_c, 7, 68, 0
9, 231840, Note_on_c, 7, 66, 0
9, 231840, Note_on_c, 7, 59, 0
9, 231840, Note_on_c, 7, 78, 70
9, 231840, Note_on_c, 7, 70, 68
9, 231840, Note_on_c, 7, 66, 58
9, 231840, Note_on_c, 7, 61, 60
9, 231900, Note_on_c, 7, 78, 0
9, 231960, Note_on_c, 7, 70, 0
9, 231960, Note_on_c, 7, 66, 0
9, 231960, Note_on_c, 7, 61, 0
9, 231960, Note_on_c, 7, 78, 81
9, 231960, Note_on_c, 7, 70, 68
9, 231960, Note_on_c, 7, 66, 58
9, 231960, Note_on_c, 7, 61, 63
9, 232020, Note_on_c, 7, 78, 0
9, 232080, Note_on_c, 7, 70, 0
9, 232080, Note_on_c, 7, 66, 0
9, 232080, Note_on_c, 7, 61, 0
9, 232080, Note_on_c, 7, 80, 60
9, 232080, Note_on_c, 7, 71, 63
9, 232080, Note_on_c, 7, 66, 60
9, 232080, Note_on_c, 7, 61, 61
9, 232140, Note_on_c, 7, 80, 0
9, 232200, Note_on_c, 7, 71, 0
9, 232200, Note_on_c, 7, 66, 0
9, 232200, Note_on_c, 7, 61, 0
9, 232200, Note_on_c, 7, 71, 58
9, 232200, Note_on_c, 7, 66, 63
9, 232200, Note_on_c, 7, 61, 67
9, 232200, Note_on_c, 7, 77, 81
9, 232260, Note_on_c, 7, 77, 0
9, 232320, Note_on_c, 7, 71, 0
9, 232320, Note_on_c, 7, 66, 0
9, 232320, Note_on_c, 7, 61, 0
9, 232320, Note_on_c, 7, 78, 60
9, 232320, Note_on_c, 7, 70, 63
9, 232320, Note_on_c, 7, 66, 58
9, 232380, Note_on_c, 7, 78, 0
9, 232440, Note_on_c, 7, 66, 0
9, 232440, Note_on_c, 7, 70, 0
9, 232440, Note_on_c, 7, 78, 81
9, 232440, Note_on_c, 7, 70, 63
9, 232440, Note_on_c, 7, 66, 57
9, 232500, Note_on_c, 7, 78, 0
9, 232560, Note_on_c, 7, 66, 0
9, 232560, Note_on_c, 7, 70, 0
9, 232560, Note_on_c, 7, 80, 67
9, 232560, Note_on_c, 7, 71, 62
9, 232560, Note_on_c, 7, 66, 57
9, 232560, Note_on_c, 7, 61, 61
9, 232620, Note_on_c, 7, 80, 0
9, 232680, Note_on_c, 7, 71, 0
9, 232680, Note_on_c, 7, 66, 0
9, 232680, Note_on_c, 7, 61, 0
9, 232680, Note_on_c, 7, 71, 58
9, 232680, Note_on_c, 7, 66, 61
9, 232680, Note_on_c, 7, 61, 63
9, 232680, Note_on_c, 7, 77, 58
9, 232740, Note_on_c, 7, 77, 0
9, 232800, Note_on_c, 7, 71, 0
9, 232800, Note_on_c, 7, 66, 0
9, 232800, Note_on_c, 7, 61, 0
9, 232800, Note_on_c, 7, 78, 78
9, 232800, Note_on_c, 7, 70, 63
9, 232800, Note_on_c, 7, 66, 60
9, 232920, Note_on_c, 7, 66, 0
9, 232920, Note_on_c, 7, 70, 0
9, 232920, Note_on_c, 7, 70, 60
9, 232920, Note_on_c, 7, 66, 61
9, 233040, Note_on_c, 7, 66, 0
9, 233040, Note_on_c, 7, 70, 0
9, 233040, Note_on_c, 7, 73, 66
9, 233040, Note_on_c, 7, 70, 67
9, 233040, Note_on_c, 7, 66, 74
9, 233160, Note_on_c, 7, 66, 0
9, 233160, Note_on_c, 7, 78, 0
9, 233160, Note_on_c, 7, 73, 0
9, 233160, Note_on_c, 7, 70, 0
9, 233160, Note_on_c, 7, 78, 60
9, 233160, Note_on_c, 7, 73, 68
9, 233160, Note_on_c, 7, 70, 57
9, 233160, Note_on_c, 7, 66, 78
9, 233280, Note_on_c, 7, 66, 0
9, 233280, Note_on_c, 7, 78, 0
9, 233280, Note_on_c, 7, 73, 0
9, 233280, Note_on_c, 7, 70, 0
9, 233280, Note_on_c, 7, 78, 74
9, 233280, Note_on_c, 7, 73, 66
9, 233280, Note_on_c, 7, 70, 63
9, 233280, Note_on_c, 7, 66, 81
9, 233340, Note_on_c, 7, 78, 0
9, 233340, Note_on_c, 7, 80, 69
9, 233400, Note_on_c, 7, 80, 0
9, 233400, Note_on_c, 7, 66, 0
9, 233400, Note_on_c, 7, 70, 0
9, 233400, Note_on_c, 7, 73, 0
9, 233400, Note_on_c, 7, 82, 79
9, 233400, Note_on_c, 7, 73, 57
9, 233400, Note_on_c, 7, 70, 61
9, 233400, Note_on_c, 7, 66, 78
9, 233460, Note_on_c, 7, 82, 0
9, 233520, Note_on_c, 7, 73, 0
9, 233520, Note_on_c, 7, 70, 0
9, 233520, Note_on_c, 7, 66, 0
9, 233520, Note_on_c, 7, 82, 80
9, 233520, Note_on_c, 7, 73, 58
9, 233520, Note_on_c, 7, 70, 61
9, 233520, Note_on_c, 7, 66, 73
9, 233580, Note_on_c, 7, 82, 0
9, 233580, Note_on_c, 7, 83, 73
9, 233640, Note_on_c, 7, 83, 0
9, 233640, Note_on_c, 7, 66, 0
9, 233640, Note_on_c, 7, 70, 0
9, 233640, Note_on_c, 7, 73, 0
9, 233640, Note_on_c, 7, 73, 57
9, 233640, Note_on_c, 7, 70, 61
9, 233640, Note_on_c, 7, 66, 77
9, 233640, Note_on_c, 7, 85, 80
9, 233700, Note_on_c, 7, 85, 0
9, 233760, Note_on_c, 7, 73, 0
9, 233760, Note_on_c, 7, 70, 0
9, 233760, Note_on_c, 7, 66, 0
9, 233760, Note_on_c, 7, 85, 82
9, 233760, Note_on_c, 7, 73, 61
9, 233760, Note_on_c, 7, 70, 61
9, 233760, Note_on_c, 7, 66, 68
9, 233880, Note_on_c, 7, 66, 0
9, 233880, Note_on_c, 7, 70, 0
9, 233880, Note_on_c, 7, 73, 0
9, 233880, Note_on_c, 7, 73, 61
9, 233880, Note_on_c, 7, 70, 61
9, 233880, Note_on_c, 7, 66, 61
9, 234000, Note_on_c, 7, 66, 0
9, 234000, Note_on_c, 7, 70, 0
9, 234000, Note_on_c, 7, 73, 0
9, 234000, Note_on_c, 7, 73, 66
9, 234000, Note_on_c, 7, 70, 60
9, 234000, Note_on_c, 7, 66, 58
9, 234120, Note_on_c, 7, 66, 0
9, 234120, Note_on_c, 7, 85, 0
9, 234120, Note_on_c, 7, 73, 0
9, 234120, Note_on_c, 7, 70, 0
9, 234120, Note_on_c, 7, 82, 78
9, 234120, Note_on_c, 7, 73, 57
9, 234120, Note_on_c, 7, 70, 61
9, 234120, Note_on_c, 7, 66, 63
9, 234240, Note_on_c, 7, 66, 0
9, 234240, Note_on_c, 7, 82, 0
9, 234240, Note_on_c, 7, 73, 0
9, 234240, Note_on_c, 7, 70, 0
9, 234240, Note_on_c, 7, 82, 88
9, 234240, Note_on_c, 7, 73, 61
9, 234240, Note_on_c, 7, 70, 61
9, 234240, Note_on_c, 7, 66, 72
9, 234300, Note_on_c, 7, 82, 0
9, 234300, Note_on_c, 7, 83, 88
9, 234360, Note_on_c, 7, 83, 0
9, 234360, Note_on_c, 7, 66, 0
9, 234360, Note_on_c, 7, 70, 0
9, 234360, Note_on_c, 7, 73, 0
9, 234360, Note_on_c, 7, 85, 73
9, 234360, Note_on_c, 7, 73, 68
9, 234360, Note_on_c, 7, 70, 57
9, 234360, Note_on_c, 7, 66, 63
9, 234420, Note_on_c, 7, 85, 0
9, 234480, Note_on_c, 7, 73, 0
9, 234480, Note_on_c, 7, 70, 0
9, 234480, Note_on_c, 7, 66, 0
9, 234480, Note_on_c, 7, 85, 82
9, 234480, Note_on_c, 7, 73, 61
9, 234480, Note_on_c, 7, 70, 57
9, 234480, Note_on_c, 7, 66, 63
9, 234540, Note_on_c, 7, 85, 0
9, 234540, Note_on_c, 7, 87, 78
9, 234600, Note_on_c, 7, 87, 0
9, 234600, Note_on_c, 7, 66, 0
9, 234600, Note_on_c, 7, 70, 0
9, 234600, Note_on_c, 7, 73, 0
9, 234600, Note_on_c, 7, 73, 60
9, 234600, Note_on_c, 7, 70, 60
9, 234600, Note_on_c, 7, 66, 79
9, 234600, Note_on_c, 7, 88, 81
9, 234660, Note_on_c, 7, 88, 0
9, 234720, Note_on_c, 7, 73, 0
9, 234720, Note_on_c, 7, 70, 0
9, 234720, Note_on_c, 7, 66, 0
9, 234720, Note_on_c, 7, 88, 67
9, 234720, Note_on_c, 7, 73, 60
9, 234720, Note_on_c, 7, 70, 70
9, 234720, Note_on_c, 7, 66, 74
9, 234840, Note_on_c, 7, 66, 0
9, 234840, Note_on_c, 7, 88, 0
9, 234840, Note_on_c, 7, 73, 0
9, 234840, Note_on_c, 7, 70, 0
9, 234840, Note_on_c, 7, 70, 58
9, 234840, Note_on_c, 7, 58, 67
9, 234900, Note_on_c, 7, 58, 0
9, 234900, Note_on_c, 7, 70, 0
9, 234900, Note_on_c, 7, 73, 61
9, 234900, Note_on_c, 7, 61, 67
9, 234960, Note_on_c, 7, 61, 0
9, 234960, Note_on_c, 7, 73, 0
9, 234960, Note_on_c, 7, 70, 58
9, 234960, Note_on_c, 7, 58, 60
9, 235020, Note_on_c, 7, 58, 0
9, 235020, Note_on_c, 7, 70, 0
9, 235020, Note_on_c, 7, 73, 67
9, 235020, Note_on_c, 7, 61, 60
9, 235080, Note_on_c, 7, 61, 0
9, 235080, Note_on_c, 7, 73, 0
9, 235080, Note_on_c, 7, 70, 57
9, 235080, Note_on_c, 7, 58, 66
9, 235140, Note_on_c, 7, 58, 0
9, 235140, Note_on_c, 7, 70, 0
9, 235140, Note_on_c, 7, 73, 66
9, 235140, Note_on_c, 7, 61, 68
9, 235200, Note_on_c, 7, 61, 0
9, 235200, Note_on_c, 7, 73, 0
9, 235200, Note_on_c, 7, 70, 61
9, 235200, Note_on_c, 7, 58, 58
9, 235260, Note_on_c, 7, 58, 0
9, 235260, Note_on_c, 7, 70, 0
9, 235260, Note_on_c, 7, 73, 58
9, 235260, Note_on_c, 7, 61, 57
9, 235320, Note_on_c, 7, 61, 0
9, 235320, Note_on_c, 7, 73, 0
9, 235320, Note_on_c, 7, 70, 57
9, 235320, Note_on_c, 7, 58, 61
9, 235380, Note_on_c, 7, 58, 0
9, 235380, Note_on_c, 7, 70, 0
9, 235380, Note_on_c, 7, 73, 49
9, 235380, Note_on_c, 7, 61, 55
9, 235440, Note_on_c, 7, 61, 0
9, 235440, Note_on_c, 7, 73, 0
9, 235440, Note_on_c, 7, 70, 58
9, 235440, Note_on_c, 7, 58, 57
9, 235500, Note_on_c, 7, 58, 0
9, 235500, Note_on_c, 7, 70, 0
9, 235500, Note_on_c, 7, 73, 61
9, 235500, Note_on_c, 7, 61, 61
9, 235560, Note_on_c, 7, 61, 0
9, 235560, Note_on_c, 7, 73, 0
9, 235560, Note_on_c, 7, 70, 61
9, 235560, Note_on_c, 7, 58, 61
9, 235620, Note_on_c, 7, 58, 0
9, 235620, Note_on_c, 7, 70, 0
9, 235620, Note_on_c, 7, 73, 58
9, 235620, Note_on_c, 7, 61, 68
9, 235680, Note_on_c, 7, 61, 0
9, 235680, Note_on_c, 7, 73, 0
9, 235680, Note_on_c, 7, 71, 68
9, 235680, Note_on_c, 7, 59, 60
9, 235740, Note_on_c, 7, 59, 0
9, 235740, Note_on_c, 7, 71, 0
9, 235740, Note_on_c, 7, 74, 61
9, 235740, Note_on_c, 7, 62, 57
9, 235800, Note_on_c, 7, 62, 0
9, 235800, Note_on_c, 7, 74, 0
9, 235800, Note_on_c, 7, 71, 57
9, 235800, Note_on_c, 7, 59, 69
9, 235860, Note_on_c, 7, 59, 0
9, 235860, Note_on_c, 7, 71, 0
9, 235860, Note_on_c, 7, 74, 57
9, 235860, Note_on_c, 7, 62, 57
9, 235920, Note_on_c, 7, 62, 0
9, 235920, Note_on_c, 7, 74, 0
9, 235920, Note_on_c, 7, 71, 60
9, 235920, Note_on_c, 7, 59, 66
9, 235980, Note_on_c, 7, 59, 0
9, 235980, Note_on_c, 7, 71, 0
9, 235980, Note_on_c, 7, 74, 60
9, 235980, Note_on_c, 7, 62, 58
9, 236040, Note_on_c, 7, 62, 0
9, 236040, Note_on_c, 7, 74, 0
9, 236040, Note_on_c, 7, 71, 61
9, 236040, Note_on_c, 7, 59, 63
9, 236100, Note_on_c, 7, 59, 0
9, 236100, Note_on_c, 7, 71, 0
9, 236100, Note_on_c, 7, 74, 68
9, 236100, Note_on_c, 7, 62, 58
9, 236160, Note_on_c, 7, 62, 0
9, 236160, Note_on_c, 7, 74, 0
9, 236160, Note_on_c, 7, 71, 61
9, 236160, Note_on_c, 7, 59, 63
9, 236220, Note_on_c, 7, 59, 0
9, 236220, Note_on_c, 7, 71, 0
9, 236220, Note_on_c, 7, 74, 60
9, 236220, Note_on_c, 7, 62, 58
9, 236280, Note_on_c, 7, 62, 0
9, 236280, Note_on_c, 7, 74, 0
9, 236280, Note_on_c, 7, 71, 60
9, 236280, Note_on_c, 7, 59, 68
9, 236340, Note_on_c, 7, 59, 0
9, 236340, Note_on_c, 7, 71, 0
9, 236340, Note_on_c, 7, 74, 57
9, 236340, Note_on_c, 7, 62, 57
9, 236400, Note_on_c, 7, 62, 0
9, 236400, Note_on_c, 7, 74, 0
9, 236400, Note_on_c, 7, 71, 61
9, 236400, Note_on_c, 7, 59, 63
9, 236460, Note_on_c, 7, 59, 0
9, 236460, Note_on_c, 7, 71, 0
9, 236460, Note_on_c, 7, 74, 58
9, 236460, Note_on_c, 7, 62, 57
9, 236520, Note_on_c, 7, 62, 0
9, 236520, Note_on_c, 7, 74, 0
9, 236520, Note_on_c, 7, 71, 61
9, 236520, Note_on_c, 7, 59, 73
9, 236580, Note_on_c, 7, 59, 0
9, 236580, Note_on_c, 7, 71, 0
9, 236580, Note_on_c, 7, 74, 58
9, 236580, Note_on_c, 7, 62, 60
9, 236640, Note_on_c, 7, 62, 0
9, 236640, Note_on_c, 7, 74, 0
9, 236640, Note_on_c, 7, 71, 60
9, 236640, Note_on_c, 7, 59, 64
9, 236700, Note_on_c, 7, 59, 0
9, 236700, Note_on_c, 7, 71, 0
9, 236700, Note_on_c, 7, 74, 61
9, 236700, Note_on_c, 7, 62, 57
9, 236760, Note_on_c, 7, 62, 0
9, 236760, Note_on_c, 7, 74, 0
9, 236760, Note_on_c, 7, 71, 58
9, 236760, Note_on_c, 7, 59, 69
9, 236820, Note_on_c, 7, 59, 0
9, 236820, Note_on_c, 7, 71, 0
9, 236820, Note_on_c, 7, 74, 58
9, 236820, Note_on_c, 7, 62, 57
9, 236880, Note_on_c, 7, 62, 0
9, 236880, Note_on_c, 7, 74, 0
9, 236880, Note_on_c, 7, 71, 58
9, 236880, Note_on_c, 7, 59, 68
9, 236940, Note_on_c, 7, 59, 0
9, 236940, Note_on_c, 7, 71, 0
9, 236940, Note_on_c, 7, 74, 62
9, 236940, Note_on_c, 7, 62, 58
9, 237000, Note_on_c, 7, 62, 0
9, 237000, Note_on_c, 7, 74, 0
9, 237000, Note_on_c, 7, 71, 57
9, 237000, Note_on_c, 7, 59, 68
9, 237060, Note_on_c, 7, 59, 0
9, 237060, Note_on_c, 7, 71, 0
9, 237060, Note_on_c, 7, 74, 57
9, 237060, Note_on_c, 7, 62, 60
9, 237120, Note_on_c, 7, 62, 0
9, 237120, Note_on_c, 7, 74, 0
9, 237120, Note_on_c, 7, 71, 60
9, 237120, Note_on_c, 7, 59, 69
9, 237180, Note_on_c, 7, 59, 0
9, 237180, Note_on_c, 7, 71, 0
9, 237180, Note_on_c, 7, 74, 60
9, 237180, Note_on_c, 7, 62, 61
9, 237240, Note_on_c, 7, 62, 0
9, 237240, Note_on_c, 7, 74, 0
9, 237240, Note_on_c, 7, 71, 60
9, 237240, Note_on_c, 7, 59, 68
9, 237300, Note_on_c, 7, 59, 0
9, 237300, Note_on_c, 7, 71, 0
9, 237300, Note_on_c, 7, 74, 57
9, 237300, Note_on_c, 7, 62, 63
9, 237360, Note_on_c, 7, 62, 0
9, 237360, Note_on_c, 7, 74, 0
9, 237360, Note_on_c, 7, 71, 57
9, 237360, Note_on_c, 7, 59, 58
9, 237420, Note_on_c, 7, 59, 0
9, 237420, Note_on_c, 7, 71, 0
9, 237420, Note_on_c, 7, 74, 57
9, 237420, Note_on_c, 7, 62, 57
9, 237480, Note_on_c, 7, 62, 0
9, 237480, Note_on_c, 7, 74, 0
9, 237480, Note_on_c, 7, 71, 57
9, 237480, Note_on_c, 7, 59, 61
9, 237540, Note_on_c, 7, 59, 0
9, 237540, Note_on_c, 7, 71, 0
9, 237540, Note_on_c, 7, 74, 57
9, 237540, Note_on_c, 7, 62, 61
9, 237600, Note_on_c, 7, 62, 0
9, 237600, Note_on_c, 7, 74, 0
9, 237600, Note_on_c, 7, 71, 57
9, 237600, Note_on_c, 7, 59, 73
9, 237660, Note_on_c, 7, 59, 0
9, 237660, Note_on_c, 7, 71, 0
9, 237660, Note_on_c, 7, 74, 57
9, 237660, Note_on_c, 7, 62, 61
9, 237720, Note_on_c, 7, 62, 0
9, 237720, Note_on_c, 7, 74, 0
9, 237720, Note_on_c, 7, 71, 58
9, 237720, Note_on_c, 7, 59, 57
9, 237780, Note_on_c, 7, 59, 0
9, 237780, Note_on_c, 7, 71, 0
9, 237780, Note_on_c, 7, 74, 58
9, 237780, Note_on_c, 7, 62, 61
9, 237840, Note_on_c, 7, 62, 0
9, 237840, Note_on_c, 7, 74, 0
9, 237840, Note_on_c, 7, 71, 58
9, 237840, Note_on_c, 7, 59, 60
9, 237900, Note_on_c, 7, 59, 0
9, 237900, Note_on_c, 7, 71, 0
9, 237900, Note_on_c, 7, 74, 60
9, 237900, Note_on_c, 7, 62, 57
9, 237960, Note_on_c, 7, 62, 0
9, 237960, Note_on_c, 7, 74, 0
9, 237960, Note_on_c, 7, 71, 57
9, 237960, Note_on_c, 7, 59, 66
9, 238020, Note_on_c, 7, 59, 0
9, 238020, Note_on_c, 7, 71, 0
9, 238020, Note_on_c, 7, 74, 61
9, 238020, Note_on_c, 7, 62, 61
9, 238080, Note_on_c, 7, 62, 0
9, 238080, Note_on_c, 7, 74, 0
9, 238080, Note_on_c, 7, 71, 58
9, 238080, Note_on_c, 7, 59, 58
9, 238140, Note_on_c, 7, 59, 0
9, 238140, Note_on_c, 7, 71, 0
9, 238140, Note_on_c, 7, 74, 57
9, 238140, Note_on_c, 7, 62, 61
9, 238200, Note_on_c, 7, 62, 0
9, 238200, Note_on_c, 7, 74, 0
9, 238200, Note_on_c, 7, 71, 57
9, 238200, Note_on_c, 7, 59, 60
9, 238260, Note_on_c, 7, 59, 0
9, 238260, Note_on_c, 7, 71, 0
9, 238260, Note_on_c, 7, 74, 57
9, 238260, Note_on_c, 7, 62, 58
9, 238320, Note_on_c, 7, 62, 0
9, 238320, Note_on_c, 7, 74, 0
9, 238320, Note_on_c, 7, 71, 57
9, 238320, Note_on_c, 7, 59, 61
9, 238380, Note_on_c, 7, 59, 0
9, 238380, Note_on_c, 7, 71, 0
9, 238380, Note_on_c, 7, 74, 61
9, 238380, Note_on_c, 7, 62, 61
9, 238440, Note_on_c, 7, 62, 0
9, 238440, Note_on_c, 7, 74, 0
9, 238440, Note_on_c, 7, 71, 60
9, 238440, Note_on_c, 7, 59, 63
9, 238500, Note_on_c, 7, 59, 0
9, 238500, Note_on_c, 7, 71, 0
9, 238500, Note_on_c, 7, 74, 57
9, 238500, Note_on_c, 7, 62, 61
9, 238560, Note_on_c, 7, 62, 0
9, 238560, Note_on_c, 7, 74, 0
9, 238560, Note_on_c, 7, 71, 60
9, 238560, Note_on_c, 7, 59, 68
9, 238620, Note_on_c, 7, 59, 0
9, 238620, Note_on_c, 7, 71, 0
9, 238620, Note_on_c, 7, 74, 57
9, 238620, Note_on_c, 7, 62, 61
9, 238680, Note_on_c, 7, 62, 0
9, 238680, Note_on_c, 7, 74, 0
9, 238680, Note_on_c, 7, 71, 60
9, 238680, Note_on_c, 7, 59, 61
9, 238740, Note_on_c, 7, 59, 0
9, 238740, Note_on_c, 7, 71, 0
9, 238740, Note_on_c, 7, 74, 57
9, 238740, Note_on_c, 7, 62, 61
9, 238800, Note_on_c, 7, 62, 0
9, 238800, Note_on_c, 7, 74, 0
9, 238800, Note_on_c, 7, 71, 61
9, 238800, Note_on_c, 7, 59, 69
9, 238860, Note_on_c, 7, 59, 0
9, 238860, Note_on_c, 7, 71, 0
9, 238860, Note_on_c, 7, 74, 61
9, 238860, Note_on_c, 7, 62, 58
9, 238920, Note_on_c, 7, 62, 0
9, 238920, Note_on_c, 7, 74, 0
9, 238920, Note_on_c, 7, 71, 57
9, 238920, Note_on_c, 7, 59, 60
9, 238980, Note_on_c, 7, 59, 0
9, 238980, Note_on_c, 7, 71, 0
9, 238980, Note_on_c, 7, 74, 61
9, 238980, Note_on_c, 7, 62, 58
9, 239040, Note_on_c, 7, 62, 0
9, 239040, Note_on_c, 7, 74, 0
9, 239040, Note_on_c, 7, 71, 57
9, 239040, Note_on_c, 7, 59, 61
9, 239100, Note_on_c, 7, 59, 0
9, 239100, Note_on_c, 7, 71, 0
9, 239100, Note_on_c, 7, 74, 61
9, 239100, Note_on_c, 7, 62, 57
9, 239160, Note_on_c, 7, 62, 0
9, 239160, Note_on_c, 7, 74, 0
9, 239160, Note_on_c, 7, 71, 57
9, 239160, Note_on_c, 7, 59, 58
9, 239220, Note_on_c, 7, 59, 0
9, 239220, Note_on_c, 7, 71, 0
9, 239220, Note_on_c, 7, 74, 60
9, 239220, Note_on_c, 7, 62, 57
9, 239280, Note_on_c, 7, 62, 0
9, 239280, Note_on_c, 7, 74, 0
9, 239280, Note_on_c, 7, 71, 57
9, 239280, Note_on_c, 7, 59, 61
9, 239340, Note_on_c, 7, 59, 0
9, 239340, Note_on_c, 7, 71, 0
9, 239340, Note_on_c, 7, 74, 60
9, 239340, Note_on_c, 7, 62, 57
9, 239400, Note_on_c, 7, 62, 0
9, 239400, Note_on_c, 7, 74, 0
9, 239400, Note_on_c, 7, 71, 57
9, 239400, Note_on_c, 7, 59, 61
9, 239460, Note_on_c, 7, 59, 0
9, 239460, Note_on_c, 7, 71, 0
9, 239460, Note_on_c, 7, 74, 61
9, 239460, Note_on_c, 7, 62, 58
9, 239520, Note_on_c, 7, 62, 0
9, 239520, Note_on_c, 7, 74, 0
9, 239520, Note_on_c, 7, 77, 68
9, 239524, Control_c, 7, 64, 1
9, 239528, Control_c, 7, 64, 3
9, 239536, Control_c, 7, 64, 5
9, 239544, Control_c, 7, 64, 6
9, 239552, Control_c, 7, 64, 8
9, 239556, Control_c, 7, 64, 10
9, 239560, Control_c, 7, 64, 11
9, 239568, Control_c, 7, 64, 54
9, 239572, Control_c, 7, 64, 61
9, 239576, Control_c, 7, 64, 64
9, 239580, Note_on_c, 7, 77, 0
9, 239580, Note_on_c, 7, 74, 80
9, 239584, Control_c, 7, 64, 69
9, 239588, Control_c, 7, 64, 73
9, 239592, Control_c, 7, 64, 81
9, 239596, Control_c, 7, 64, 88
9, 239600, Control_c, 7, 64, 93
9, 239604, Control_c, 7, 64, 97
9, 239608, Control_c, 7, 64, 99
9, 239612, Control_c, 7, 64, 101
9, 239616, Control_c, 7, 64, 104
9, 239620, Control_c, 7, 64, 107
9, 239624, Control_c, 7, 64, 111
9, 239628, Control_c, 7, 64, 113
9, 239632, Control_c, 7, 64, 115
9, 239636, Control_c, 7, 64, 117
9, 239640, Note_on_c, 7, 74, 0
9, 239640, Note_on_c, 7, 71, 79
9, 239644, Control_c, 7, 64, 119
9, 239648, Control_c, 7, 64, 121
9, 239656, Control_c, 7, 64, 122
9, 239664, Control_c, 7, 64, 123
9, 239672, Control_c, 7, 64, 124
9, 239696, Control_c, 7, 64, 125
9, 239700, Note_on_c, 7, 71, 0
9, 239700, Note_on_c, 7, 67, 70
9, 239760, Note_on_c, 7, 67, 0
9, 239760, Note_on_c, 7, 65, 64
9, 239776, Control_c, 7, 64, 124
9, 239816, Control_c, 7, 64, 123
9, 239820, Note_on_c, 7, 65, 0
9, 239820, Note_on_c, 7, 62, 69
9, 239880, Note_on_c, 7, 62, 0
9, 239880, Note_on_c, 7, 59, 79
9, 239888, Control_c, 7, 64, 122
9, 239940, Note_on_c, 7, 59, 0
9, 239940, Note_on_c, 7, 55, 74
9, 240000, Note_on_c, 7, 55, 0
9, 240000, Note_on_c, 7, 53, 73
9, 240060, Note_on_c, 7, 53, 0
9, 240060, Note_on_c, 7, 50, 75
9, 240120, Note_on_c, 7, 50, 0
9, 240120, Note_on_c, 7, 47, 77
9, 240180, Note_on_c, 7, 47, 0
9, 240180, Note_on_c, 7, 43, 75
9, 240184, Control_c, 7, 64, 123
9, 240212, Control_c, 7, 64, 125
9, 240240, Note_on_c, 7, 43, 0
9, 240240, Note_on_c, 7, 41, 78
9, 240244, Control_c, 7, 64, 126
9, 240264, Control_c, 7, 64, 127
9, 240300, Note_on_c, 7, 41, 0
9, 240300, Note_on_c, 7, 38, 83
9, 240360, Note_on_c, 7, 38, 0
9, 240360, Note_on_c, 7, 35, 81
9, 240420, Note_on_c, 7, 35, 0
9, 240420, Note_on_c, 7, 38, 84
9, 240480, Note_on_c, 7, 38, 0
9, 240480, Note_on_c, 7, 59, 60
9, 240480, Note_on_c, 7, 53, 77
9, 240480, Note_on_c, 7, 50, 68
9, 240480, Note_on_c, 7, 43, 63
9, 240480, Note_on_c, 7, 31, 80
9, 240636, Control_c, 7, 64, 126
9, 240656, Control_c, 7, 64, 124
9, 240680, Control_c, 7, 64, 122
9, 240704, Control_c, 7, 64, 120
9, 240728, Control_c, 7, 64, 118
9, 240772, Control_c, 7, 64, 113
9, 240784, Control_c, 7, 64, 112
9, 240812, Control_c, 7, 64, 110
9, 240820, Control_c, 7, 64, 108
9, 240832, Control_c, 7, 64, 106
9, 240844, Control_c, 7, 64, 104
9, 240852, Control_c, 7, 64, 102
9, 240864, Control_c, 7, 64, 100
9, 240868, Control_c, 7, 64, 99
9, 240876, Control_c, 7, 64, 97
9, 240880, Control_c, 7, 64, 96
9, 240884, Control_c, 7, 64, 92
9, 240892, Control_c, 7, 64, 90
9, 240896, Control_c, 7, 64, 88
9, 240900, Control_c, 7, 64, 86
9, 240904, Control_c, 7, 64, 84
9, 240908, Control_c, 7, 64, 82
9, 240912, Control_c, 7, 64, 80
9, 240916, Control_c, 7, 64, 78
9, 240920, Control_c, 7, 64, 76
9, 240924, Control_c, 7, 64, 74
9, 240928, Control_c, 7, 64, 69
9, 240932, Control_c, 7, 64, 62
9, 240936, Control_c, 7, 64, 59
9, 240940, Control_c, 7, 64, 56
9, 240944, Control_c, 7, 64, 50
9, 240948, Control_c, 7, 64, 23
9, 240952, Control_c, 7, 64, 20
9, 240956, Control_c, 7, 64, 15
9, 240960, Note_on_c, 7, 31, 0
9, 240960, Note_on_c, 7, 50, 0
9, 240960, Note_on_c, 7, 59, 0
9, 240960, Note_on_c, 7, 53, 0
9, 240960, Note_on_c, 7, 43, 0
9, 240960, Control_c, 7, 64, 0
9, 250860, Note_on_c, 7, 72, 61
9, 250920, Note_on_c, 7, 72, 0
9, 250920, Note_on_c, 7, 74, 81
9, 250980, Note_on_c, 7, 74, 0
9, 250980, Note_on_c, 7, 76, 78
9, 251040, Note_on_c, 7, 76, 0
9, 251040, Note_on_c, 7, 77, 57
9, 251100, Note_on_c, 7, 77, 0
9, 251100, Note_on_c, 7, 79, 77
9, 251160, Note_on_c, 7, 79, 0
9, 251160, Note_on_c, 7, 81, 68
9, 251220, Note_on_c, 7, 81, 0
9, 251220, Note_on_c, 7, 83, 61
9, 251280, Note_on_c, 7, 83, 0
9, 251280, Note_on_c, 7, 84, 79
9, 251400, Note_on_c, 7, 84, 0
9, 251820, Note_on_c, 7, 74, 84
9, 251880, Note_on_c, 7, 74, 0
9, 251880, Note_on_c, 7, 76, 74
9, 251940, Note_on_c, 7, 76, 0
9, 251940, Note_on_c, 7, 77, 73
9, 252000, Note_on_c, 7, 77, 0
9, 252000, Note_on_c, 7, 79, 73
9, 252060, Note_on_c, 7, 79, 0
9, 252060, Note_on_c, 7, 81, 60
9, 252120, Note_on_c, 7, 81, 0
9, 252120, Note_on_c, 7, 83, 64
9, 252180, Note_on_c, 7, 83, 0
9, 252180, Note_on_c, 7, 84, 77
9, 252240, Note_on_c, 7, 84, 0
9, 252240, Note_on_c, 7, 86, 68
9, 252360, Note_on_c, 7, 86, 0
9, 253320, Note_on_c, 7, 76, 60
9, 253320, Note_on_c, 7, 72, 80
9, 253320, Note_on_c, 7, 64, 61
9, 253320, Note_on_c, 7, 60, 61
9, 253440, Note_on_c, 7, 60, 0
9, 253440, Note_on_c, 7, 76, 0
9, 253440, Note_on_c, 7, 72, 0
9, 253440, Note_on_c, 7, 64, 0
9, 253440, Note_on_c, 7, 76, 77
9, 253440, Note_on_c, 7, 72, 60
9, 253440, Note_on_c, 7, 64, 68
9, 253440, Note_on_c, 7, 60, 63
9, 253500, Note_on_c, 7, 60, 0
9, 253500, Note_on_c, 7, 76, 0
9, 253500, Note_on_c, 7, 72, 0
9, 253500, Note_on_c, 7, 64, 0
9, 253500, Note_on_c, 7, 74, 68
9, 253500, Note_on_c, 7, 71, 68
9, 253500, Note_on_c, 7, 62, 61
9, 253500, Note_on_c, 7, 59, 63
9, 253560, Note_on_c, 7, 59, 0
9, 253560, Note_on_c, 7, 74, 0
9, 253560, Note_on_c, 7, 71, 0
9, 253560, Note_on_c, 7, 62, 0
9, 253560, Note_on_c, 7, 72, 81
9, 253560, Note_on_c, 7, 67, 61
9, 253560, Note_on_c, 7, 60, 61
9, 253560, Note_on_c, 7, 55, 61
9, 253620, Note_on_c, 7, 55, 0
9, 253620, Note_on_c, 7, 72, 0
9, 253620, Note_on_c, 7, 67, 0
9, 253620, Note_on_c, 7, 60, 0
9, 253680, Note_on_c, 7, 72, 80
9, 253680, Note_on_c, 7, 67, 61
9, 253680, Note_on_c, 7, 60, 57
9, 253680, Note_on_c, 7, 55, 60
9, 253740, Note_on_c, 7, 55, 0
9, 253740, Note_on_c, 7, 72, 0
9, 253740, Note_on_c, 7, 67, 0
9, 253740, Note_on_c, 7, 60, 0
9, 254280, Note_on_c, 7, 77, 63
9, 254280, Note_on_c, 7, 74, 68
9, 254280, Note_on_c, 7, 65, 61
9, 254280, Note_on_c, 7, 62, 73
9, 254400, Note_on_c, 7, 62, 0
9, 254400, Note_on_c, 7, 77, 0
9, 254400, Note_on_c, 7, 74, 0
9, 254400, Note_on_c, 7, 65, 0
9, 254400, Note_on_c, 7, 77, 61
9, 254400, Note_on_c, 7, 74, 57
9, 254400, Note_on_c, 7, 65, 57
9, 254400, Note_on_c, 7, 62, 57
9, 254460, Note_on_c, 7, 62, 0
9, 254460, Note_on_c, 7, 77, 0
9, 254460, Note_on_c, 7, 74, 0
9, 254460, Note_on_c, 7, 65, 0
9, 254460, Note_on_c, 7, 76, 75
9, 254460, Note_on_c, 7, 72, 79
9, 254460, Note_on_c, 7, 64, 72
9, 254460, Note_on_c, 7, 60, 68
9, 254520, Note_on_c, 7, 60, 0
9, 254520, Note_on_c, 7, 76, 0
9, 254520, Note_on_c, 7, 72, 0
9, 254520, Note_on_c, 7, 64, 0
9, 254520, Note_on_c, 7, 74, 74
9, 254520, Note_on_c, 7, 71, 67
9, 254520, Note_on_c, 7, 62, 60
9, 254520, Note_on_c, 7, 59, 79
9, 254580, Note_on_c, 7, 59, 0
9, 254580, Note_on_c, 7, 74, 0
9, 254580, Note_on_c, 7, 71, 0
9, 254580, Note_on_c, 7, 62, 0
9, 254640, Note_on_c, 7, 74, 63
9, 254640, Note_on_c, 7, 71, 69
9, 254640, Note_on_c, 7, 62, 58
9, 254640, Note_on_c, 7, 59, 66
9, 254700, Note_on_c, 7, 59, 0
9, 254700, Note_on_c, 7, 74, 0
9, 254700, Note_on_c, 7, 71, 0
9, 254700, Note_on_c, 7, 62, 0
9, 254700, Note_on_c, 7, 48, 75
9, 254700, Note_on_c, 7, 36, 78
9, 254760, Note_on_c, 7, 36, 0
9, 254760, Note_on_c, 7, 48, 0
9, 254760, Note_on_c, 7, 50, 81
9, 254760, Note_on_c, 7, 38, 78
9, 254820, Note_on_c, 7, 38, 0
9, 254820, Note_on_c, 7, 50, 0
9, 254820, Note_on_c, 7, 52, 80
9, 254820, Note_on_c, 7, 40, 63
9, 254880, Note_on_c, 7, 40, 0
9, 254880, Note_on_c, 7, 52, 0
9, 254880, Note_on_c, 7, 53, 68
9, 254880, Note_on_c, 7, 41, 70
9, 254940, Note_on_c, 7, 41, 0
9, 254940, Note_on_c, 7, 53, 0
9, 254940, Note_on_c, 7, 55, 57
9, 254940, Note_on_c, 7, 43, 64
9, 255000, Note_on_c, 7, 43, 0
9, 255000, Note_on_c, 7, 55, 0
9, 255000, Note_on_c, 7, 57, 81
9, 255000, Note_on_c, 7, 45, 60
9, 255060, Note_on_c, 7, 45, 0
9, 255060, Note_on_c, 7, 57, 0
9, 255060, Note_on_c, 7, 59, 67
9, 255060, Note_on_c, 7, 47, 77
9, 255120, Note_on_c, 7, 47, 0
9, 255120, Note_on_c, 7, 59, 0
9, 255120, Note_on_c, 7, 60, 94
9, 255120, Note_on_c, 7, 48, 93
9, 255180, Note_on_c, 7, 48, 0
9, 255180, Note_on_c, 7, 60, 0
9, 255180, Note_on_c, 7, 53, 70
9, 255180, Note_on_c, 7, 41, 64
9, 255240, Note_on_c, 7, 41, 0
9, 255240, Note_on_c, 7, 53, 0
9, 255240, Note_on_c, 7, 55, 75
9, 255240, Note_on_c, 7, 43, 77
9, 255300, Note_on_c, 7, 43, 0
9, 255300, Note_on_c, 7, 55, 0
9, 255300, Note_on_c, 7, 57, 80
9, 255300, Note_on_c, 7, 45, 82
9, 255360, Note_on_c, 7, 45, 0
9, 255360, Note_on_c, 7, 57, 0
9, 255360, Note_on_c, 7, 59, 73
9, 255360, Note_on_c, 7, 47, 77
9, 255420, Note_on_c, 7, 47, 0
9, 255420, Note_on_c, 7, 59, 0
9, 255420, Note_on_c, 7, 60, 61
9, 255420, Note_on_c, 7, 48, 69
9, 255480, Note_on_c, 7, 48, 0
9, 255480, Note_on_c, 7, 60, 0
9, 255480, Note_on_c, 7, 62, 79
9, 255480, Note_on_c, 7, 50, 78
9, 255540, Note_on_c, 7, 50, 0
9, 255540, Note_on_c, 7, 62, 0
9, 255540, Note_on_c, 7, 64, 82
9, 255540, Note_on_c, 7, 52, 84
9, 255600, Note_on_c, 7, 52, 0
9, 255600, Note_on_c, 7, 64, 0
9, 255600, Note_on_c, 7, 65, 94
9, 255600, Note_on_c, 7, 53, 99
9, 255660, Note_on_c, 7, 53, 0
9, 255660, Note_on_c, 7, 65, 0
9, 255660, Note_on_c, 7, 50, 61
9, 255660, Note_on_c, 7, 38, 66
9, 255720, Note_on_c, 7, 38, 0
9, 255720, Note_on_c, 7, 50, 0
9, 255720, Note_on_c, 7, 52, 82
9, 255720, Note_on_c, 7, 40, 78
9, 255780, Note_on_c, 7, 40, 0
9, 255780, Note_on_c, 7, 52, 0
9, 255780, Note_on_c, 7, 53, 67
9, 255780, Note_on_c, 7, 41, 74
9, 255840, Note_on_c, 7, 41, 0
9, 255840, Note_on_c, 7, 53, 0
9, 255840, Note_on_c, 7, 55, 77
9, 255840, Note_on_c, 7, 43, 68
9, 255900, Note_on_c, 7, 43, 0
9, 255900, Note_on_c, 7, 55, 0
9, 255900, Note_on_c, 7, 57, 79
9, 255900, Note_on_c, 7, 45, 69
9, 255960, Note_on_c, 7, 45, 0
9, 255960, Note_on_c, 7, 57, 0
9, 255960, Note_on_c, 7, 59, 69
9, 255960, Note_on_c, 7, 47, 73
9, 256020, Note_on_c, 7, 47, 0
9, 256020, Note_on_c, 7, 59, 0
9, 256020, Note_on_c, 7, 60, 66
9, 256020, Note_on_c, 7, 48, 77
9, 256080, Note_on_c, 7, 48, 0
9, 256080, Note_on_c, 7, 60, 0
9, 256080, Note_on_c, 7, 62, 99
9, 256080, Note_on_c, 7, 50, 99
9, 256140, Note_on_c, 7, 50, 0
9, 256140, Note_on_c, 7, 62, 0
9, 256140, Note_on_c, 7, 55, 61
9, 256140, Note_on_c, 7, 43, 58
9, 256200, Note_on_c, 7, 43, 0
9, 256200, Note_on_c, 7, 55, 0
9, 256200, Note_on_c, 7, 57, 74
9, 256200, Note_on_c, 7, 45, 72
9, 256260, Note_on_c, 7, 45, 0
9, 256260, Note_on_c, 7, 57, 0
9, 256260, Note_on_c, 7, 59, 58
9, 256260, Note_on_c, 7, 47, 70
9, 256320, Note_on_c, 7, 47, 0
9, 256320, Note_on_c, 7, 59, 0
9, 256320, Note_on_c, 7, 60, 57
9, 256320, Note_on_c, 7, 48, 58
9, 256380, Note_on_c, 7, 48, 0
9, 256380, Note_on_c, 7, 60, 0
9, 256380, Note_on_c, 7, 62, 61
9, 256380, Note_on_c, 7, 50, 61
9, 256440, Note_on_c, 7, 50, 0
9, 256440, Note_on_c, 7, 62, 0
9, 256440, Note_on_c, 7, 64, 78
9, 256440, Note_on_c, 7, 52, 84
9, 256500, Note_on_c, 7, 52, 0
9, 256500, Note_on_c, 7, 64, 0
9, 256500, Note_on_c, 7, 65, 78
9, 256500, Note_on_c, 7, 53, 78
9, 256560, Note_on_c, 7, 53, 0
9, 256560, Note_on_c, 7, 65, 0
9, 256560, Note_on_c, 7, 67, 94
9, 256560, Note_on_c, 7, 55, 92
9, 256620, Note_on_c, 7, 55, 0
9, 256620, Note_on_c, 7, 67, 0
9, 256620, Note_on_c, 7, 60, 69
9, 256620, Note_on_c, 7, 48, 84
9, 256680, Note_on_c, 7, 48, 0
9, 256680, Note_on_c, 7, 60, 0
9, 256680, Note_on_c, 7, 62, 61
9, 256680, Note_on_c, 7, 50, 70
9, 256740, Note_on_c, 7, 50, 0
9, 256740, Note_on_c, 7, 62, 0
9, 256740, Note_on_c, 7, 64, 84
9, 256740, Note_on_c, 7, 52, 84
9, 256800, Note_on_c, 7, 52, 0
9, 256800, Note_on_c, 7, 64, 0
9, 256800, Note_on_c, 7, 65, 88
9, 256800, Note_on_c, 7, 53, 83
9, 256860, Note_on_c, 7, 53, 0
9, 256860, Note_on_c, 7, 65, 0
9, 256860, Note_on_c, 7, 67, 81
9, 256860, Note_on_c, 7, 55, 80
9, 256920, Note_on_c, 7, 55, 0
9, 256920, Note_on_c, 7, 67, 0
9, 256920, Note_on_c, 7, 69, 90
9, 256920, Note_on_c, 7, 57, 97
9, 256980, Note_on_c, 7, 57, 0
9, 256980, Note_on_c, 7, 69, 0
9, 256980, Note_on_c, 7, 71, 83
9, 256980, Note_on_c, 7, 59, 89
9, 257040, Note_on_c, 7, 59, 0
9, 257040, Note_on_c, 7, 71, 0
9, 257040, Note_on_c, 7, 72, 81
9, 257040, Note_on_c, 7, 60, 88
9, 257100, Note_on_c, 7, 60, 0
9, 257100, Note_on_c, 7, 72, 0
9, 257100, Note_on_c, 7, 74, 93
9, 257100, Note_on_c, 7, 62, 88
9, 257160, Note_on_c, 7, 62, 0
9, 257160, Note_on_c, 7, 74, 0
9, 257160, Note_on_c, 7, 76, 97
9, 257160, Note_on_c, 7, 64, 92
9, 257220, Note_on_c, 7, 64, 0
9, 257220, Note_on_c, 7, 76, 0
9, 257220, Note_on_c, 7, 77, 93
9, 257220, Note_on_c, 7, 65, 80
9, 257280, Note_on_c, 7, 65, 0
9, 257280, Note_on_c, 7, 77, 0
9, 257280, Note_on_c, 7, 79, 78
9, 257280, Note_on_c, 7, 67, 83
9, 257340, Note_on_c, 7, 67, 0
9, 257340, Note_on_c, 7, 79, 0
9, 257340, Note_on_c, 7, 79, 83
9, 257340, Note_on_c, 7, 67, 89
9, 257400, Note_on_c, 7, 67, 0
9, 257400, Note_on_c, 7, 79, 0
9, 257400, Note_on_c, 7, 81, 92
9, 257400, Note_on_c, 7, 69, 88
9, 257460, Note_on_c, 7, 69, 0
9, 257460, Note_on_c, 7, 81, 0
9, 257460, Note_on_c, 7, 83, 94
9, 257460, Note_on_c, 7, 71, 92
9, 257520, Note_on_c, 7, 71, 0
9, 257520, Note_on_c, 7, 83, 0
9, 257520, Note_on_c, 7, 84, 97
9, 257520, Note_on_c, 7, 72, 89
9, 257580, Note_on_c, 7, 72, 0
9, 257580, Note_on_c, 7, 84, 0
9, 257580, Note_on_c, 7, 60, 78
9, 257580, Note_on_c, 7, 48, 89
9, 257640, Note_on_c, 7, 48, 0
9, 257640, Note_on_c, 7, 60, 0
9, 257640, Note_on_c, 7, 62, 81
9, 257640, Note_on_c, 7, 50, 81
9, 257700, Note_on_c, 7, 50, 0
9, 257700, Note_on_c, 7, 62, 0
9, 257700, Note_on_c, 7, 64, 83
9, 257700, Note_on_c, 7, 52, 92
9, 257760, Note_on_c, 7, 52, 0
9, 257760, Note_on_c, 7, 64, 0
9, 257760, Note_on_c, 7, 65, 85
9, 257760, Note_on_c, 7, 53, 85
9, 257820, Note_on_c, 7, 53, 0
9, 257820, Note_on_c, 7, 65, 0
9, 257820, Note_on_c, 7, 64, 79
9, 257820, Note_on_c, 7, 52, 85
9, 257880, Note_on_c, 7, 52, 0
9, 257880, Note_on_c, 7, 64, 0
9, 257880, Note_on_c, 7, 65, 90
9, 257880, Note_on_c, 7, 53, 84
9, 257940, Note_on_c, 7, 53, 0
9, 257940, Note_on_c, 7, 65, 0
9, 257940, Note_on_c, 7, 62, 77
9, 257940, Note_on_c, 7, 50, 83
9, 258000, Note_on_c, 7, 50, 0
9, 258000, Note_on_c, 7, 62, 0
9, 258000, Note_on_c, 7, 67, 80
9, 258000, Note_on_c, 7, 55, 78
9, 258060, Note_on_c, 7, 55, 0
9, 258060, Note_on_c, 7, 67, 0
9, 258060, Note_on_c, 7, 66, 75
9, 258060, Note_on_c, 7, 54, 78
9, 258120, Note_on_c, 7, 54, 0
9, 258120, Note_on_c, 7, 66, 0
9, 258120, Note_on_c, 7, 67, 80
9, 258120, Note_on_c, 7, 55, 79
9, 258180, Note_on_c, 7, 55, 0
9, 258180, Note_on_c, 7, 67, 0
9, 258180, Note_on_c, 7, 59, 84
9, 258180, Note_on_c, 7, 43, 82
9, 258240, Note_on_c, 7, 43, 0
9, 258240, Note_on_c, 7, 59, 0
9, 258240, Note_on_c, 7, 60, 84
9, 258240, Note_on_c, 7, 48, 81
9, 258300, Note_on_c, 7, 48, 0
9, 258300, Note_on_c, 7, 60, 0
9, 258300, Note_on_c, 7, 55, 85
9, 258300, Note_on_c, 7, 43, 89
9, 258360, Note_on_c, 7, 43, 0
9, 258360, Note_on_c, 7, 55, 0
9, 258360, Note_on_c, 7, 52, 80
9, 258360, Note_on_c, 7, 40, 88
9, 258420, Note_on_c, 7, 40, 0
9, 258420, Note_on_c, 7, 52, 0
9, 258420, Note_on_c, 7, 55, 88
9, 258420, Note_on_c, 7, 43, 89
9, 258480, Note_on_c, 7, 43, 0
9, 258480, Note_on_c, 7, 55, 0
9, 258480, Note_on_c, 7, 48, 81
9, 258480, Note_on_c, 7, 36, 93
9, 258540, Note_on_c, 7, 36, 0
9, 258540, Note_on_c, 7, 48, 0
9, 258540, Note_on_c, 7, 60, 79
9, 258540, Note_on_c, 7, 48, 84
9, 258600, Note_on_c, 7, 48, 0
9, 258600, Note_on_c, 7, 60, 0
9, 258600, Note_on_c, 7, 62, 80
9, 258600, Note_on_c, 7, 50, 84
9, 258660, Note_on_c, 7, 50, 0
9, 258660, Note_on_c, 7, 62, 0
9, 258660, Note_on_c, 7, 64, 97
9, 258660, Note_on_c, 7, 52, 93
9, 258720, Note_on_c, 7, 52, 0
9, 258720, Note_on_c, 7, 64, 0
9, 258720, Note_on_c, 7, 65, 88
9, 258720, Note_on_c, 7, 53, 84
9, 258780, Note_on_c, 7, 53, 0
9, 258780, Note_on_c, 7, 65, 0
9, 258780, Note_on_c, 7, 67, 78
9, 258780, Note_on_c, 7, 55, 81
9, 258840, Note_on_c, 7, 55, 0
9, 258840, Note_on_c, 7, 67, 0
9, 258840, Note_on_c, 7, 69, 92
9, 258840, Note_on_c, 7, 57, 97
9, 258900, Note_on_c, 7, 57, 0
9, 258900, Note_on_c, 7, 69, 0
9, 258900, Note_on_c, 7, 71, 93
9, 258900, Note_on_c, 7, 59, 89
9, 258960, Note_on_c, 7, 59, 0
9, 258960, Note_on_c, 7, 71, 0
9, 258960, Note_on_c, 7, 72, 88
9, 258960, Note_on_c, 7, 60, 92
9, 259020, Note_on_c, 7, 60, 0
9, 259020, Note_on_c, 7, 72, 0
9, 259020, Note_on_c, 7, 65, 81
9, 259020, Note_on_c, 7, 53, 79
9, 259080, Note_on_c, 7, 53, 0
9, 259080, Note_on_c, 7, 65, 0
9, 259080, Note_on_c, 7, 67, 78
9, 259080, Note_on_c, 7, 55, 83
9, 259140, Note_on_c, 7, 55, 0
9, 259140, Note_on_c, 7, 67, 0
9, 259140, Note_on_c, 7, 69, 88
9, 259140, Note_on_c, 7, 57, 93
9, 259200, Note_on_c, 7, 57, 0
9, 259200, Note_on_c, 7, 69, 0
9, 259200, Note_on_c, 7, 71, 78
9, 259200, Note_on_c, 7, 59, 80
9, 259260, Note_on_c, 7, 59, 0
9, 259260, Note_on_c, 7, 71, 0
9, 259260, Note_on_c, 7, 72, 68
9, 259260, Note_on_c, 7, 60, 84
9, 259320, Note_on_c, 7, 60, 0
9, 259320, Note_on_c, 7, 72, 0
9, 259320, Note_on_c, 7, 74, 94
9, 259320, Note_on_c, 7, 62, 83
9, 259380, Note_on_c, 7, 62, 0
9, 259380, Note_on_c, 7, 74, 0
9, 259380, Note_on_c, 7, 76, 99
9, 259380, Note_on_c, 7, 64, 84
9, 259440, Note_on_c, 7, 64, 0
9, 259440, Note_on_c, 7, 76, 0
9, 259440, Note_on_c, 7, 77, 99
9, 259440, Note_on_c, 7, 65, 97
9, 259500, Note_on_c, 7, 65, 0
9, 259500, Note_on_c, 7, 77, 0
9, 259500, Note_on_c, 7, 62, 79
9, 259500, Note_on_c, 7, 50, 93
9, 259560, Note_on_c, 7, 50, 0
9, 259560, Note_on_c, 7, 62, 0
9, 259560, Note_on_c, 7, 64, 79
9, 259560, Note_on_c, 7, 52, 92
9, 259620, Note_on_c, 7, 52, 0
9, 259620, Note_on_c, 7, 64, 0
9, 259620, Note_on_c, 7, 65, 89
9, 259620, Note_on_c, 7, 53, 89
9, 259680, Note_on_c, 7, 53, 0
9, 259680, Note_on_c, 7, 65, 0
9, 259680, Note_on_c, 7, 67, 66
9, 259680, Note_on_c, 7, 55, 80
9, 259740, Note_on_c, 7, 55, 0
9, 259740, Note_on_c, 7, 67, 0
9, 259740, Note_on_c, 7, 69, 83
9, 259740, Note_on_c, 7, 57, 88
9, 259800, Note_on_c, 7, 57, 0
9, 259800, Note_on_c, 7, 69, 0
9, 259800, Note_on_c, 7, 71, 88
9, 259800, Note_on_c, 7, 59, 92
9, 259860, Note_on_c, 7, 59, 0
9, 259860, Note_on_c, 7, 71, 0
9, 259860, Note_on_c, 7, 72, 83
9, 259860, Note_on_c, 7, 60, 88
9, 259920, Note_on_c, 7, 60, 0
9, 259920, Note_on_c, 7, 72, 0
9, 259920, Note_on_c, 7, 74, 104
9, 259920, Note_on_c, 7, 62, 83
9, 259980, Note_on_c, 7, 62, 0
9, 259980, Note_on_c, 7, 74, 0
9, 259980, Note_on_c, 7, 67, 78
9, 259980, Note_on_c, 7, 55, 81
9, 260040, Note_on_c, 7, 55, 0
9, 260040, Note_on_c, 7, 67, 0
9, 260040, Note_on_c, 7, 69, 73
9, 260040, Note_on_c, 7, 57, 93
9, 260100, Note_on_c, 7, 57, 0
9, 260100, Note_on_c, 7, 69, 0
9, 260100, Note_on_c, 7, 71, 77
9, 260100, Note_on_c, 7, 59, 81
9, 260160, Note_on_c, 7, 59, 0
9, 260160, Note_on_c, 7, 71, 0
9, 260160, Note_on_c, 7, 72, 52
9, 260160, Note_on_c, 7, 60, 83
9, 260220, Note_on_c, 7, 60, 0
9, 260220, Note_on_c, 7, 72, 0
9, 260220, Note_on_c, 7, 74, 90
9, 260220, Note_on_c, 7, 62, 83
9, 260280, Note_on_c, 7, 62, 0
9, 260280, Note_on_c, 7, 74, 0
9, 260280, Note_on_c, 7, 76, 92
9, 260280, Note_on_c, 7, 64, 80
9, 260340, Note_on_c, 7, 64, 0
9, 260340, Note_on_c, 7, 76, 0
9, 260340, Note_on_c, 7, 77, 90
9, 260340, Note_on_c, 7, 65, 94
9, 260400, Note_on_c, 7, 65, 0
9, 260400, Note_on_c, 7, 77, 0
9, 260400, Note_on_c, 7, 79, 98
9, 260400, Note_on_c, 7, 67, 92
9, 260460, Note_on_c, 7, 67, 0
9, 260460, Note_on_c, 7, 79, 0
9, 260460, Note_on_c, 7, 60, 78
9, 260460, Note_on_c, 7, 48, 83
9, 260520, Note_on_c, 7, 48, 0
9, 260520, Note_on_c, 7, 60, 0
9, 260520, Note_on_c, 7, 62, 89
9, 260520, Note_on_c, 7, 50, 93
9, 260580, Note_on_c, 7, 50, 0
9, 260580, Note_on_c, 7, 62, 0
9, 260580, Note_on_c, 7, 64, 89
9, 260580, Note_on_c, 7, 52, 94
9, 260640, Note_on_c, 7, 52, 0
9, 260640, Note_on_c, 7, 64, 0
9, 260640, Note_on_c, 7, 65, 90
9, 260640, Note_on_c, 7, 53, 84
9, 260700, Note_on_c, 7, 53, 0
9, 260700, Note_on_c, 7, 65, 0
9, 260700, Note_on_c, 7, 67, 81
9, 260700, Note_on_c, 7, 55, 84
9, 260760, Note_on_c, 7, 55, 0
9, 260760, Note_on_c, 7, 67, 0
9, 260760, Note_on_c, 7, 69, 94
9, 260760, Note_on_c, 7, 57, 94
9, 260820, Note_on_c, 7, 57, 0
9, 260820, Note_on_c, 7, 69, 0
9, 260820, Note_on_c, 7, 71, 99
9, 260820, Note_on_c, 7, 59, 85
9, 260880, Note_on_c, 7, 59, 0
9, 260880, Note_on_c, 7, 71, 0
9, 260880, Note_on_c, 7, 72, 85
9, 260880, Note_on_c, 7, 60, 83
9, 260940, Note_on_c, 7, 60, 0
9, 260940, Note_on_c, 7, 72, 0
9, 260940, Note_on_c, 7, 74, 97
9, 260940, Note_on_c, 7, 62, 80
9, 261000, Note_on_c, 7, 62, 0
9, 261000, Note_on_c, 7, 74, 0
9, 261000, Note_on_c, 7, 76, 89
9, 261000, Note_on_c, 7, 64, 83
9, 261060, Note_on_c, 7, 64, 0
9, 261060, Note_on_c, 7, 76, 0
9, 261060, Note_on_c, 7, 77, 93
9, 261060, Note_on_c, 7, 65, 97
9, 261120, Note_on_c, 7, 65, 0
9, 261120, Note_on_c, 7, 77, 0
9, 261120, Note_on_c, 7, 79, 97
9, 261120, Note_on_c, 7, 67, 94
9, 261150, Note_on_c, 7, 67, 0
9, 261150, Note_on_c, 7, 79, 0
9, 261180, Note_on_c, 7, 79, 78
9, 261180, Note_on_c, 7, 67, 88
9, 261240, Note_on_c, 7, 67, 0
9, 261240, Note_on_c, 7, 79, 0
9, 261240, Note_on_c, 7, 81, 93
9, 261240, Note_on_c, 7, 69, 93
9, 261300, Note_on_c, 7, 69, 0
9, 261300, Note_on_c, 7, 81, 0
9, 261300, Note_on_c, 7, 83, 99
9, 261300, Note_on_c, 7, 71, 88
9, 261360, Note_on_c, 7, 71, 0
9, 261360, Note_on_c, 7, 83, 0
9, 261360, Note_on_c, 7, 84, 97
9, 261360, Note_on_c, 7, 72, 78
9, 261420, Note_on_c, 7, 72, 0
9, 261420, Note_on_c, 7, 84, 0
9, 261420, Note_on_c, 7, 60, 88
9, 261420, Note_on_c, 7, 48, 97
9, 261480, Note_on_c, 7, 48, 0
9, 261480, Note_on_c, 7, 60, 0
9, 261480, Note_on_c, 7, 62, 92
9, 261480, Note_on_c, 7, 50, 92
9, 261540, Note_on_c, 7, 50, 0
9, 261540, Note_on_c, 7, 62, 0
9, 261540, Note_on_c, 7, 64, 97
9, 261540, Note_on_c, 7, 52, 97
9, 261600, Note_on_c, 7, 52, 0
9, 261600, Note_on_c, 7, 64, 0
9, 261600, Note_on_c, 7, 65, 97
9, 261600, Note_on_c, 7, 53, 79
9, 261660, Note_on_c, 7, 53, 0
9, 261660, Note_on_c, 7, 65, 0
9, 261660, Note_on_c, 7, 64, 93
9, 261660, Note_on_c, 7, 52, 85
9, 261720, Note_on_c, 7, 52, 0
9, 261720, Note_on_c, 7, 64, 0
9, 261720, Note_on_c, 7, 65, 92
9, 261720, Note_on_c, 7, 53, 92
9, 261780, Note_on_c, 7, 53, 0
9, 261780, Note_on_c, 7, 65, 0
9, 261780, Note_on_c, 7, 62, 92
9, 261780, Note_on_c, 7, 50, 97
9, 261840, Note_on_c, 7, 50, 0
9, 261840, Note_on_c, 7, 62, 0
9, 261840, Note_on_c, 7, 67, 80
9, 261840, Note_on_c, 7, 55, 84
9, 261900, Note_on_c, 7, 55, 0
9, 261900, Note_on_c, 7, 67, 0
9, 261900, Note_on_c, 7, 66, 89
9, 261900, Note_on_c, 7, 54, 88
9, 261960, Note_on_c, 7, 54, 0
9, 261960, Note_on_c, 7, 66, 0
9, 261960, Note_on_c, 7, 67, 88
9, 261960, Note_on_c, 7, 55, 85
9, 262020, Note_on_c, 7, 55, 0
9, 262020, Note_on_c, 7, 67, 0
9, 262020, Note_on_c, 7, 55, 84
9, 262020, Note_on_c, 7, 43, 97
9, 262080, Note_on_c, 7, 43, 0
9, 262080, Note_on_c, 7, 55, 0
9, 262080, Note_on_c, 7, 48, 92
9, 262140, Note_on_c, 7, 48, 0
9, 262140, Note_on_c, 7, 60, 85
9, 262200, Note_on_c, 7, 60, 0
9, 262200, Note_on_c, 7, 50, 90
9, 262260, Note_on_c, 7, 50, 0
9, 262260, Note_on_c, 7, 62, 90
9, 262320, Note_on_c, 7, 62, 0
9, 262320, Note_on_c, 7, 52, 89
9, 262320, Note_on_c, 7, 36, 94
9, 262380, Note_on_c, 7, 36, 0
9, 262380, Note_on_c, 7, 52, 0
9, 262380, Note_on_c, 7, 64, 89
9, 262380, Note_on_c, 7, 48, 79
9, 262440, Note_on_c, 7, 48, 0
9, 262440, Note_on_c, 7, 64, 0
9, 262440, Note_on_c, 7, 53, 83
9, 262440, Note_on_c, 7, 38, 99
9, 262500, Note_on_c, 7, 38, 0
9, 262500, Note_on_c, 7, 53, 0
9, 262500, Note_on_c, 7, 65, 99
9, 262500, Note_on_c, 7, 50, 92
9, 262560, Note_on_c, 7, 50, 0
9, 262560, Note_on_c, 7, 65, 0
9, 262560, Note_on_c, 7, 55, 81
9, 262560, Note_on_c, 7, 40, 79
9, 262620, Note_on_c, 7, 40, 0
9, 262620, Note_on_c, 7, 55, 0
9, 262620, Note_on_c, 7, 67, 78
9, 262620, Note_on_c, 7, 52, 85
9, 262680, Note_on_c, 7, 52, 0
9, 262680, Note_on_c, 7, 67, 0
9, 262680, Note_on_c, 7, 57, 83
9, 262680, Note_on_c, 7, 41, 81
9, 262740, Note_on_c, 7, 41, 0
9, 262740, Note_on_c, 7, 57, 0
9, 262740, Note_on_c, 7, 69, 79
9, 262740, Note_on_c, 7, 53, 81
9, 262800, Note_on_c, 7, 53, 0
9, 262800, Note_on_c, 7, 69, 0
9, 262800, Note_on_c, 7, 59, 77
9, 262800, Note_on_c, 7, 43, 78
9, 262860, Note_on_c, 7, 43, 0
9, 262860, Note_on_c, 7, 59, 0
9, 262860, Note_on_c, 7, 71, 93
9, 262860, Note_on_c, 7, 55, 83
9, 262920, Note_on_c, 7, 55, 0
9, 262920, Note_on_c, 7, 71, 0
9, 262920, Note_on_c, 7, 60, 79
9, 262920, Note_on_c, 7, 45, 92
9, 262980, Note_on_c, 7, 45, 0
9, 262980, Note_on_c, 7, 60, 0
9, 262980, Note_on_c, 7, 72, 57
9, 262980, Note_on_c, 7, 57, 89
9, 263040, Note_on_c, 7, 57, 0
9, 263040, Note_on_c, 7, 72, 0
9, 263040, Note_on_c, 7, 62, 78
9, 263040, Note_on_c, 7, 47, 80
9, 263100, Note_on_c, 7, 47, 0
9, 263100, Note_on_c, 7, 62, 0
9, 263100, Note_on_c, 7, 74, 92
9, 263100, Note_on_c, 7, 59, 88
9, 263160, Note_on_c, 7, 59, 0
9, 263160, Note_on_c, 7, 74, 0
9, 263160, Note_on_c, 7, 64, 81
9, 263160, Note_on_c, 7, 48, 90
9, 263220, Note_on_c, 7, 48, 0
9, 263220, Note_on_c, 7, 64, 0
9, 263220, Note_on_c, 7, 76, 93
9, 263220, Note_on_c, 7, 60, 83
9, 263280, Note_on_c, 7, 60, 0
9, 263280, Note_on_c, 7, 76, 0
9, 263280, Note_on_c, 7, 65, 80
9, 263280, Note_on_c, 7, 50, 94
9, 263340, Note_on_c, 7, 50, 0
9, 263340, Note_on_c, 7, 65, 0
9, 263340, Note_on_c, 7, 77, 88
9, 263340, Note_on_c, 7, 62, 84
9, 263400, Note_on_c, 7, 62, 0
9, 263400, Note_on_c, 7, 77, 0
9, 263400, Note_on_c, 7, 67, 81
9, 263400, Note_on_c, 7, 52, 93
9, 263460, Note_on_c, 7, 52, 0
9, 263460, Note_on_c, 7, 67, 0
9, 263460, Note_on_c, 7, 79, 84
9, 263460, Note_on_c, 7, 64, 85
9, 263520, Note_on_c, 7, 64, 0
9, 263520, Note_on_c, 7, 79, 0
9, 263520, Note_on_c, 7, 69, 79
9, 263520, Note_on_c, 7, 53, 88
9, 263580, Note_on_c, 7, 53, 0
9, 263580, Note_on_c, 7, 69, 0
9, 263580, Note_on_c, 7, 81, 88
9, 263580, Note_on_c, 7, 65, 83
9, 263640, Note_on_c, 7, 65, 0
9, 263640, Note_on_c, 7, 81, 0
9, 263640, Note_on_c, 7, 71, 78
9, 263640, Note_on_c, 7, 55, 84
9, 263700, Note_on_c, 7, 55, 0
9, 263700, Note_on_c, 7, 71, 0
9, 263700, Note_on_c, 7, 83, 99
9, 263700, Note_on_c, 7, 67, 85
9, 263760, Note_on_c, 7, 67, 0
9, 263760, Note_on_c, 7, 83, 0
9, 263760, Note_on_c, 7, 72, 60
9, 263760, Note_on_c, 7, 57, 97
9, 263820, Note_on_c, 7, 57, 0
9, 263820, Note_on_c, 7, 72, 0
9, 263820, Note_on_c, 7, 84, 92
9, 263820, Note_on_c, 7, 69, 90
9, 263880, Note_on_c, 7, 69, 0
9, 263880, Note_on_c, 7, 84, 0
9, 263880, Note_on_c, 7, 74, 92
9, 263880, Note_on_c, 7, 59, 81
9, 263940, Note_on_c, 7, 59, 0
9, 263940, Note_on_c, 7, 74, 0
9, 263940, Note_on_c, 7, 86, 98
9, 263940, Note_on_c, 7, 71, 93
9, 264000, Note_on_c, 7, 71, 0
9, 264000, Note_on_c, 7, 86, 0
9, 264000, Note_on_c, 7, 76, 97
9, 264000, Note_on_c, 7, 60, 93
9, 264060, Note_on_c, 7, 60, 0
9, 264060, Note_on_c, 7, 76, 0
9, 264060, Note_on_c, 7, 88, 101
9, 264060, Note_on_c, 7, 72, 80
9, 264120, Note_on_c, 7, 72, 0
9, 264120, Note_on_c, 7, 88, 0
9, 264120, Note_on_c, 7, 80, 92
9, 264120, Note_on_c, 7, 76, 84
9, 264120, Note_on_c, 7, 62, 97
9, 264180, Note_on_c, 7, 62, 0
9, 264180, Note_on_c, 7, 76, 0
9, 264180, Note_on_c, 7, 80, 0
9, 264180, Note_on_c, 7, 88, 93
9, 264180, Note_on_c, 7, 74, 97
9, 264240, Note_on_c, 7, 74, 0
9, 264240, Note_on_c, 7, 88, 0
9, 264240, Note_on_c, 7, 81, 95
9, 264240, Note_on_c, 7, 76, 90
9, 264240, Note_on_c, 7, 60, 88
9, 264300, Note_on_c, 7, 60, 0
9, 264300, Note_on_c, 7, 76, 0
9, 264300, Note_on_c, 7, 81, 0
9, 264300, Note_on_c, 7, 88, 94
9, 264300, Note_on_c, 7, 72, 69
9, 264360, Note_on_c, 7, 72, 0
9, 264360, Note_on_c, 7, 88, 0
9, 264360, Note_on_c, 7, 79, 97
9, 264360, Note_on_c, 7, 76, 85
9, 264360, Note_on_c, 7, 62, 94
9, 264420, Note_on_c, 7, 62, 0
9, 264420, Note_on_c, 7, 76, 0
9, 264420, Note_on_c, 7, 79, 0
9, 264420, Note_on_c, 7, 88, 99
9, 264420, Note_on_c, 7, 74, 92
9, 264480, Note_on_c, 7, 74, 0
9, 264480, Note_on_c, 7, 88, 0
9, 264480, Note_on_c, 7, 81, 97
9, 264480, Note_on_c, 7, 76, 85
9, 264480, Note_on_c, 7, 60, 92
9, 264540, Note_on_c, 7, 60, 0
9, 264540, Note_on_c, 7, 76, 0
9, 264540, Note_on_c, 7, 81, 0
9, 264540, Note_on_c, 7, 88, 94
9, 264540, Note_on_c, 7, 72, 77
9, 264600, Note_on_c, 7, 72, 0
9, 264600, Note_on_c, 7, 88, 0
9, 264600, Note_on_c, 7, 80, 94
9, 264600, Note_on_c, 7, 76, 92
9, 264600, Note_on_c, 7, 62, 90
9, 264660, Note_on_c, 7, 62, 0
9, 264660, Note_on_c, 7, 76, 0
9, 264660, Note_on_c, 7, 80, 0
9, 264660, Note_on_c, 7, 88, 92
9, 264660, Note_on_c, 7, 74, 97
9, 264720, Note_on_c, 7, 74, 0
9, 264720, Note_on_c, 7, 88, 0
9, 264720, Note_on_c, 7, 81, 94
9, 264720, Note_on_c, 7, 76, 93
9, 264720, Note_on_c, 7, 60, 85
9, 264780, Note_on_c, 7, 60, 0
9, 264780, Note_on_c, 7, 76, 0
9, 264780, Note_on_c, 7, 81, 0
9, 264780, Note_on_c, 7, 88, 95
9, 264780, Note_on_c, 7, 72, 73
9, 264840, Note_on_c, 7, 72, 0
9, 264840, Note_on_c, 7, 88, 0
9, 264840, Note_on_c, 7, 83, 88
9, 264840, Note_on_c, 7, 76, 88
9, 264840, Note_on_c, 7, 56, 97
9, 264900, Note_on_c, 7, 56, 0
9, 264900, Note_on_c, 7, 76, 0
9, 264900, Note_on_c, 7, 83, 0
9, 264900, Note_on_c, 7, 88, 94
9, 264900, Note_on_c, 7, 68, 89
9, 264960, Note_on_c, 7, 68, 0
9, 264960, Note_on_c, 7, 88, 0
9, 264960, Note_on_c, 7, 48, 97
9, 264960, Note_on_c, 7, 36, 99
9, 265020, Note_on_c, 7, 76, 94
9, 265080, Note_on_c, 7, 76, 0
9, 265080, Note_on_c, 7, 36, 0
9, 265080, Note_on_c, 7, 48, 0
9, 265080, Note_on_c, 7, 88, 93
9, 265140, Note_on_c, 7, 88, 0
9, 265140, Note_on_c, 7, 84, 94
9, 265200, Note_on_c, 7, 84, 0
9, 265200, Note_on_c, 7, 65, 89
9, 265200, Note_on_c, 7, 53, 88
9, 265260, Note_on_c, 7, 81, 80
9, 265320, Note_on_c, 7, 81, 0
9, 265320, Note_on_c, 7, 53, 0
9, 265320, Note_on_c, 7, 65, 0
9, 265320, Note_on_c, 7, 89, 99
9, 265380, Note_on_c, 7, 89, 0
9, 265380, Note_on_c, 7, 86, 94
9, 265440, Note_on_c, 7, 86, 0
9, 265440, Note_on_c, 7, 67, 78
9, 265440, Note_on_c, 7, 55, 85
9, 265500, Note_on_c, 7, 79, 73
9, 265560, Note_on_c, 7, 79, 0
9, 265560, Note_on_c, 7, 55, 0
9, 265560, Note_on_c, 7, 67, 0
9, 265560, Note_on_c, 7, 86, 78
9, 265620, Note_on_c, 7, 86, 0
9, 265620, Note_on_c, 7, 84, 80
9, 265680, Note_on_c, 7, 84, 0
9, 265680, Note_on_c, 7, 55, 67
9, 265680, Note_on_c, 7, 43, 74
9, 265740, Note_on_c, 7, 77, 75
9, 265800, Note_on_c, 7, 77, 0
9, 265800, Note_on_c, 7, 43, 0
9, 265800, Note_on_c, 7, 55, 0
9, 265800, Note_on_c, 7, 86, 68
9, 265860, Note_on_c, 7, 86, 0
9, 265860, Note_on_c, 7, 83, 80
9, 265920, Note_on_c, 7, 83, 0
9, 265920, Note_on_c, 7, 64, 85
9, 265980, Note_on_c, 7, 64, 0
9, 265980, Note_on_c, 7, 76, 79
9, 266040, Note_on_c, 7, 76, 0
9, 266040, Note_on_c, 7, 62, 78
9, 266100, Note_on_c, 7, 62, 0
9, 266100, Note_on_c, 7, 74, 93
9, 266160, Note_on_c, 7, 74, 0
9, 266160, Note_on_c, 7, 76, 85
9, 266160, Note_on_c, 7, 60, 84
9, 266220, Note_on_c, 7, 60, 0
9, 266220, Note_on_c, 7, 76, 0
9, 266220, Note_on_c, 7, 88, 83
9, 266220, Note_on_c, 7, 72, 60
9, 266280, Note_on_c, 7, 72, 0
9, 266280, Note_on_c, 7, 88, 0
9, 266280, Note_on_c, 7, 74, 84
9, 266280, Note_on_c, 7, 59, 92
9, 266340, Note_on_c, 7, 59, 0
9, 266340, Note_on_c, 7, 74, 0
9, 266340, Note_on_c, 7, 86, 89
9, 266340, Note_on_c, 7, 71, 85
9, 266400, Note_on_c, 7, 71, 0
9, 266400, Note_on_c, 7, 86, 0
9, 266400, Note_on_c, 7, 72, 60
9, 266400, Note_on_c, 7, 57, 93
9, 266460, Note_on_c, 7, 57, 0
9, 266460, Note_on_c, 7, 72, 0
9, 266460, Note_on_c, 7, 84, 88
9, 266460, Note_on_c, 7, 69, 90
9, 266520, Note_on_c, 7, 69, 0
9, 266520, Note_on_c, 7, 84, 0
9, 266520, Note_on_c, 7, 71, 92
9, 266520, Note_on_c, 7, 55, 93
9, 266580, Note_on_c, 7, 55, 0
9, 266580, Note_on_c, 7, 71, 0
9, 266580, Note_on_c, 7, 83, 94
9, 266580, Note_on_c, 7, 67, 88
9, 266640, Note_on_c, 7, 67, 0
9, 266640, Note_on_c, 7, 83, 0
9, 266640, Note_on_c, 7, 69, 92
9, 266640, Note_on_c, 7, 53, 92
9, 266700, Note_on_c, 7, 53, 0
9, 266700, Note_on_c, 7, 69, 0
9, 266700, Note_on_c, 7, 81, 94
9, 266700, Note_on_c, 7, 65, 90
9, 266760, Note_on_c, 7, 65, 0
9, 266760, Note_on_c, 7, 81, 0
9, 266760, Note_on_c, 7, 67, 88
9, 266760, Note_on_c, 7, 52, 98
9, 266820, Note_on_c, 7, 52, 0
9, 266820, Note_on_c, 7, 67, 0
9, 266820, Note_on_c, 7, 79, 94
9, 266820, Note_on_c, 7, 64, 94
9, 266880, Note_on_c, 7, 64, 0
9, 266880, Note_on_c, 7, 79, 0
9, 266880, Note_on_c, 7, 65, 92
9, 266880, Note_on_c, 7, 50, 99
9, 266940, Note_on_c, 7, 50, 0
9, 266940, Note_on_c, 7, 65, 0
9, 266940, Note_on_c, 7, 77, 94
9, 266940, Note_on_c, 7, 62, 97
9, 267000, Note_on_c, 7, 62, 0
9, 267000, Note_on_c, 7, 77, 0
9, 267000, Note_on_c, 7, 64, 97
9, 267000, Note_on_c, 7, 48, 98
9, 267060, Note_on_c, 7, 48, 0
9, 267060, Note_on_c, 7, 64, 0
9, 267060, Note_on_c, 7, 76, 94
9, 267060, Note_on_c, 7, 60, 93
9, 267120, Note_on_c, 7, 60, 0
9, 267120, Note_on_c, 7, 76, 0
9, 267120, Note_on_c, 7, 62, 94
9, 267120, Note_on_c, 7, 47, 94
9, 267180, Note_on_c, 7, 47, 0
9, 267180, Note_on_c, 7, 62, 0
9, 267180, Note_on_c, 7, 74, 99
9, 267180, Note_on_c, 7, 59, 93
9, 267240, Note_on_c, 7, 59, 0
9, 267240, Note_on_c, 7, 74, 0
9, 267240, Note_on_c, 7, 60, 94
9, 267240, Note_on_c, 7, 45, 101
9, 267300, Note_on_c, 7, 45, 0
9, 267300, Note_on_c, 7, 60, 0
9, 267300, Note_on_c, 7, 72, 97
9, 267300, Note_on_c, 7, 57, 101
9, 267360, Note_on_c, 7, 57, 0
9, 267360, Note_on_c, 7, 72, 0
9, 267360, Note_on_c, 7, 59, 94
9, 267360, Note_on_c, 7, 43, 101
9, 267420, Note_on_c, 7, 43, 0
9, 267420, Note_on_c, 7, 59, 0
9, 267420, Note_on_c, 7, 71, 99
9, 267420, Note_on_c, 7, 55, 99
9, 267480, Note_on_c, 7, 55, 0
9, 267480, Note_on_c, 7, 71, 0
9, 267480, Note_on_c, 7, 57, 99
9, 267480, Note_on_c, 7, 41, 98
9, 267540, Note_on_c, 7, 41, 0
9, 267540, Note_on_c, 7, 57, 0
9, 267540, Note_on_c, 7, 69, 98
9, 267540, Note_on_c, 7, 53, 92
9, 267600, Note_on_c, 7, 53, 0
9, 267600, Note_on_c, 7, 69, 0
9, 267600, Note_on_c, 7, 55, 95
9, 267600, Note_on_c, 7, 40, 112
9, 267660, Note_on_c, 7, 40, 0
9, 267660, Note_on_c, 7, 55, 0
9, 267660, Note_on_c, 7, 67, 99
9, 267660, Note_on_c, 7, 52, 105
9, 267720, Note_on_c, 7, 52, 0
9, 267720, Note_on_c, 7, 67, 0
9, 267720, Note_on_c, 7, 53, 85
9, 267720, Note_on_c, 7, 38, 99
9, 267780, Note_on_c, 7, 38, 0
9, 267780, Note_on_c, 7, 53, 0
9, 267780, Note_on_c, 7, 65, 98
9, 267780, Note_on_c, 7, 50, 94
9, 267840, Note_on_c, 7, 50, 0
9, 267840, Note_on_c, 7, 65, 0
9, 267840, Note_on_c, 7, 52, 101
9, 267840, Note_on_c, 7, 36, 105
9, 267900, Note_on_c, 7, 36, 0
9, 267900, Note_on_c, 7, 52, 0
9, 267900, Note_on_c, 7, 64, 94
9, 267900, Note_on_c, 7, 48, 98
9, 267960, Note_on_c, 7, 48, 0
9, 267960, Note_on_c, 7, 64, 0
9, 267960, Note_on_c, 7, 68, 94
9, 267960, Note_on_c, 7, 64, 93
9, 267960, Note_on_c, 7, 38, 99
9, 268020, Note_on_c, 7, 38, 0
9, 268020, Note_on_c, 7, 64, 0
9, 268020, Note_on_c, 7, 68, 0
9, 268020, Note_on_c, 7, 76, 101
9, 268020, Note_on_c, 7, 50, 101
9, 268080, Note_on_c, 7, 50, 0
9, 268080, Note_on_c, 7, 76, 0
9, 268080, Note_on_c, 7, 69, 95
9, 268080, Note_on_c, 7, 64, 93
9, 268080, Note_on_c, 7, 36, 104
9, 268140, Note_on_c, 7, 36, 0
9, 268140, Note_on_c, 7, 64, 0
9, 268140, Note_on_c, 7, 69, 0
9, 268140, Note_on_c, 7, 76, 99
9, 268140, Note_on_c, 7, 48, 99
9, 268200, Note_on_c, 7, 48, 0
9, 268200, Note_on_c, 7, 76, 0
9, 268200, Note_on_c, 7, 68, 95
9, 268200, Note_on_c, 7, 64, 94
9, 268200, Note_on_c, 7, 38, 99
9, 268260, Note_on_c, 7, 38, 0
9, 268260, Note_on_c, 7, 64, 0
9, 268260, Note_on_c, 7, 68, 0
9, 268260, Note_on_c, 7, 76, 101
9, 268260, Note_on_c, 7, 50, 94
9, 268320, Note_on_c, 7, 50, 0
9, 268320, Note_on_c, 7, 76, 0
9, 268320, Note_on_c, 7, 69, 104
9, 268320, Note_on_c, 7, 64, 94
9, 268320, Note_on_c, 7, 36, 105
9, 268380, Note_on_c, 7, 36, 0
9, 268380, Note_on_c, 7, 64, 0
9, 268380, Note_on_c, 7, 69, 0
9, 268380, Note_on_c, 7, 76, 99
9, 268380, Note_on_c, 7, 48, 94
9, 268440, Note_on_c, 7, 48, 0
9, 268440, Note_on_c, 7, 76, 0
9, 268440, Note_on_c, 7, 68, 95
9, 268440, Note_on_c, 7, 64, 93
9, 268440, Note_on_c, 7, 38, 101
9, 268500, Note_on_c, 7, 38, 0
9, 268500, Note_on_c, 7, 64, 0
9, 268500, Note_on_c, 7, 68, 0
9, 268500, Note_on_c, 7, 76, 99
9, 268500, Note_on_c, 7, 50, 94
9, 268560, Note_on_c, 7, 50, 0
9, 268560, Note_on_c, 7, 76, 0
9, 268560, Note_on_c, 7, 69, 101
9, 268560, Note_on_c, 7, 64, 97
9, 268560, Note_on_c, 7, 36, 105
9, 268620, Note_on_c, 7, 36, 0
9, 268620, Note_on_c, 7, 64, 0
9, 268620, Note_on_c, 7, 69, 0
9, 268620, Note_on_c, 7, 76, 104
9, 268620, Note_on_c, 7, 48, 94
9, 268680, Note_on_c, 7, 48, 0
9, 268680, Note_on_c, 7, 76, 0
9, 268680, Note_on_c, 7, 71, 98
9, 268680, Note_on_c, 7, 64, 92
9, 268680, Note_on_c, 7, 32, 88
9, 268740, Note_on_c, 7, 32, 0
9, 268740, Note_on_c, 7, 64, 0
9, 268740, Note_on_c, 7, 71, 0
9, 268740, Note_on_c, 7, 76, 95
9, 268740, Note_on_c, 7, 44, 95
9, 268800, Note_on_c, 7, 44, 0
9, 268800, Note_on_c, 7, 76, 0
9, 268800, Note_on_c, 7, 45, 99
9, 268800, Note_on_c, 7, 33, 99
9, 268860, Note_on_c, 7, 76, 99
9, 268920, Note_on_c, 7, 76, 0
9, 268920, Note_on_c, 7, 88, 99
9, 268980, Note_on_c, 7, 88, 0
9, 268980, Note_on_c, 7, 84, 95
9, 269040, Note_on_c, 7, 84, 0
9, 269040, Note_on_c, 7, 33, 0
9, 269040, Note_on_c, 7, 45, 0
9, 269040, Note_on_c, 7, 53, 85
9, 269040, Note_on_c, 7, 41, 97
9, 269100, Note_on_c, 7, 81, 84
9, 269160, Note_on_c, 7, 81, 0
9, 269160, Note_on_c, 7, 89, 97
9, 269220, Note_on_c, 7, 89, 0
9, 269220, Note_on_c, 7, 86, 80
9, 269280, Note_on_c, 7, 86, 0
9, 269280, Note_on_c, 7, 41, 0
9, 269280, Note_on_c, 7, 53, 0
9, 269280, Note_on_c, 7, 55, 73
9, 269280, Note_on_c, 7, 43, 84
9, 269340, Note_on_c, 7, 79, 81
9, 269400, Note_on_c, 7, 79, 0
9, 269400, Note_on_c, 7, 86, 81
9, 269460, Note_on_c, 7, 86, 0
9, 269460, Note_on_c, 7, 84, 88
9, 269520, Note_on_c, 7, 84, 0
9, 269520, Note_on_c, 7, 43, 0
9, 269520, Note_on_c, 7, 55, 0
9, 269520, Note_on_c, 7, 43, 67
9, 269520, Note_on_c, 7, 31, 73
9, 269580, Note_on_c, 7, 77, 72
9, 269640, Note_on_c, 7, 77, 0
9, 269640, Note_on_c, 7, 86, 69
9, 269700, Note_on_c, 7, 86, 0
9, 269700, Note_on_c, 7, 83, 74
9, 269760, Note_on_c, 7, 83, 0
9, 269760, Note_on_c, 7, 31, 0
9, 269760, Note_on_c, 7, 43, 0
9, 269760, Note_on_c, 7, 84, 63
9, 269760, Note_on_c, 7, 76, 69
9, 269760, Note_on_c, 7, 48, 58
9, 269760, Note_on_c, 7, 36, 74
9, 270000, Note_on_c, 7, 36, 0
9, 270000, Note_on_c, 7, 48, 0
9, 270120, Note_on_c, 7, 76, 0
9, 270120, Note_on_c, 7, 84, 0
9, 270120, Note_on_c, 7, 83, 74
9, 270120, Note_on_c, 7, 71, 80
9, 270180, Note_on_c, 7, 71, 0
9, 270180, Note_on_c, 7, 83, 0
9, 270240, Note_on_c, 7, 84, 80
9, 270240, Note_on_c, 7, 72, 46
9, 270300, Note_on_c, 7, 72, 0
9, 270300, Note_on_c, 7, 84, 0
9, 270360, Note_on_c, 7, 83, 63
9, 270360, Note_on_c, 7, 71, 84
9, 270420, Note_on_c, 7, 71, 0
9, 270420, Note_on_c, 7, 83, 0
9, 270480, Note_on_c, 7, 84, 64
9, 270480, Note_on_c, 7, 72, 44
9, 270540, Note_on_c, 7, 72, 0
9, 270540, Note_on_c, 7, 84, 0
9, 270600, Note_on_c, 7, 85, 81
9, 270600, Note_on_c, 7, 73, 70
9, 270660, Note_on_c, 7, 73, 0
9, 270660, Note_on_c, 7, 85, 0
9, 270720, Note_on_c, 7, 86, 84
9, 270720, Note_on_c, 7, 74, 78
9, 271080, Note_on_c, 7, 74, 0
9, 271080, Note_on_c, 7, 86, 0
9, 271080, Note_on_c, 7, 86, 74
9, 271080, Note_on_c, 7, 74, 74
9, 271140, Note_on_c, 7, 74, 0
9, 271140, Note_on_c, 7, 86, 0
9, 271170, Note_on_c, 7, 86, 69
9, 271170, Note_on_c, 7, 74, 78
9, 271200, Note_on_c, 7, 74, 0
9, 271200, Note_on_c, 7, 86, 0
9, 271200, Note_on_c, 7, 84, 61
9, 271200, Note_on_c, 7, 72, 77
9, 271260, Note_on_c, 7, 72, 0
9, 271320, Note_on_c, 7, 84, 0
9, 271320, Note_on_c, 7, 83, 63
9, 271320, Note_on_c, 7, 71, 74
9, 271380, Note_on_c, 7, 71, 0
9, 271380, Note_on_c, 7, 83, 0
9, 271410, Note_on_c, 7, 83, 66
9, 271410, Note_on_c, 7, 71, 63
9, 271440, Note_on_c, 7, 71, 0
9, 271440, Note_on_c, 7, 83, 0
9, 271440, Note_on_c, 7, 81, 77
9, 271440, Note_on_c, 7, 69, 72
9, 271500, Note_on_c, 7, 69, 0
9, 271500, Note_on_c, 7, 81, 0
9, 271560, Note_on_c, 7, 79, 57
9, 271560, Note_on_c, 7, 67, 69
9, 271620, Note_on_c, 7, 67, 0
9, 271620, Note_on_c, 7, 79, 0
9, 271680, Note_on_c, 7, 79, 81
9, 271680, Note_on_c, 7, 67, 69
9, 271800, Note_on_c, 7, 67, 0
9, 271800, Note_on_c, 7, 79, 0
9, 271800, Note_on_c, 7, 84, 83
9, 271800, Note_on_c, 7, 72, 84
9, 271920, Note_on_c, 7, 72, 0
9, 271920, Note_on_c, 7, 84, 0
9, 272040, Note_on_c, 7, 83, 73
9, 272040, Note_on_c, 7, 71, 78
9, 272100, Note_on_c, 7, 71, 0
9, 272100, Note_on_c, 7, 83, 0
9, 272160, Note_on_c, 7, 84, 68
9, 272160, Note_on_c, 7, 72, 78
9, 272220, Note_on_c, 7, 72, 0
9, 272220, Note_on_c, 7, 84, 0
9, 272280, Note_on_c, 7, 83, 83
9, 272280, Note_on_c, 7, 71, 88
9, 272340, Note_on_c, 7, 71, 0
9, 272340, Note_on_c, 7, 83, 0
9, 272400, Note_on_c, 7, 84, 66
9, 272400, Note_on_c, 7, 72, 78
9, 272460, Note_on_c, 7, 72, 0
9, 272460, Note_on_c, 7, 84, 0
9, 272520, Note_on_c, 7, 85, 73
9, 272520, Note_on_c, 7, 73, 64
9, 272580, Note_on_c, 7, 73, 0
9, 272580, Note_on_c, 7, 85, 0
9, 272640, Note_on_c, 7, 88, 84
9, 272640, Note_on_c, 7, 76, 81
9, 272760, Note_on_c, 7, 76, 0
9, 272760, Note_on_c, 7, 88, 0
9, 272760, Note_on_c, 7, 86, 63
9, 272760, Note_on_c, 7, 74, 60
9, 272880, Note_on_c, 7, 74, 0
9, 272880, Note_on_c, 7, 86, 0
9, 273000, Note_on_c, 7, 86, 75
9, 273000, Note_on_c, 7, 74, 78
9, 273120, Note_on_c, 7, 74, 0
9, 273120, Note_on_c, 7, 86, 0
9, 273120, Note_on_c, 7, 86, 66
9, 273120, Note_on_c, 7, 74, 57
9, 273200, Note_on_c, 7, 74, 0
9, 273200, Note_on_c, 7, 86, 0
9, 273200, Note_on_c, 7, 84, 74
9, 273200, Note_on_c, 7, 72, 78
9, 273280, Note_on_c, 7, 72, 0
9, 273280, Note_on_c, 7, 84, 0
9, 273280, Note_on_c, 7, 83, 68
9, 273280, Note_on_c, 7, 71, 78
9, 273360, Note_on_c, 7, 71, 0
9, 273360, Note_on_c, 7, 83, 0
9, 273360, Note_on_c, 7, 83, 66
9, 273360, Note_on_c, 7, 71, 73
9, 273440, Note_on_c, 7, 71, 0
9, 273440, Note_on_c, 7, 83, 0
9, 273440, Note_on_c, 7, 81, 62
9, 273440, Note_on_c, 7, 69, 63
9, 273520, Note_on_c, 7, 69, 0
9, 273520, Note_on_c, 7, 81, 0
9, 273520, Note_on_c, 7, 79, 60
9, 273520, Note_on_c, 7, 67, 74
9, 273600, Note_on_c, 7, 67, 0
9, 273600, Note_on_c, 7, 79, 0
9, 273600, Note_on_c, 7, 79, 84
9, 273600, Note_on_c, 7, 67, 80
9, 273720, Note_on_c, 7, 67, 0
9, 273720, Note_on_c, 7, 79, 0
9, 273720, Note_on_c, 7, 84, 81
9, 273720, Note_on_c, 7, 72, 80
9, 273840, Note_on_c, 7, 72, 0
9, 273840, Note_on_c, 7, 84, 0
9, 273960, Note_on_c, 7, 86, 80
9, 273960, Note_on_c, 7, 74, 78
9, 274080, Note_on_c, 7, 74, 0
9, 274080, Note_on_c, 7, 86, 0
9, 274080, Note_on_c, 7, 86, 77
9, 274080, Note_on_c, 7, 74, 79
9, 274160, Note_on_c, 7, 74, 0
9, 274160, Note_on_c, 7, 86, 0
9, 274160, Note_on_c, 7, 84, 55
9, 274160, Note_on_c, 7, 72, 63
9, 274240, Note_on_c, 7, 72, 0
9, 274240, Note_on_c, 7, 84, 0
9, 274240, Note_on_c, 7, 83, 63
9, 274240, Note_on_c, 7, 71, 83
9, 274320, Note_on_c, 7, 71, 0
9, 274320, Note_on_c, 7, 83, 0
9, 274320, Note_on_c, 7, 83, 60
9, 274320, Note_on_c, 7, 71, 69
9, 274400, Note_on_c, 7, 71, 0
9, 274400, Note_on_c, 7, 83, 0
9, 274400, Note_on_c, 7, 81, 58
9, 274400, Note_on_c, 7, 69, 58
9, 274480, Note_on_c, 7, 69, 0
9, 274480, Note_on_c, 7, 81, 0
9, 274480, Note_on_c, 7, 79, 61
9, 274480, Note_on_c, 7, 67, 61
9, 274560, Note_on_c, 7, 67, 0
9, 274560, Note_on_c, 7, 79, 0
9, 274560, Note_on_c, 7, 79, 68
9, 274560, Note_on_c, 7, 67, 66
9, 274680, Note_on_c, 7, 67, 0
9, 274680, Note_on_c, 7, 79, 0
9, 274680, Note_on_c, 7, 84, 61
9, 274680, Note_on_c, 7, 72, 66
9, 274800, Note_on_c, 7, 72, 0
9, 274800, Note_on_c, 7, 84, 0
9, 274920, Note_on_c, 7, 86, 61
9, 274920, Note_on_c, 7, 74, 60
9, 275040, Note_on_c, 7, 74, 0
9, 275040, Note_on_c, 7, 86, 0
9, 275040, Note_on_c, 7, 86, 58
9, 275040, Note_on_c, 7, 74, 60
9, 275120, Note_on_c, 7, 74, 0
9, 275120, Note_on_c, 7, 86, 0
9, 275120, Note_on_c, 7, 84, 58
9, 275120, Note_on_c, 7, 72, 81
9, 275200, Note_on_c, 7, 72, 0
9, 275200, Note_on_c, 7, 84, 0
9, 275200, Note_on_c, 7, 83, 55
9, 275200, Note_on_c, 7, 71, 61
9, 275280, Note_on_c, 7, 71, 0
9, 275280, Note_on_c, 7, 83, 0
9, 275280, Note_on_c, 7, 83, 60
9, 275280, Note_on_c, 7, 71, 58
9, 275360, Note_on_c, 7, 71, 0
9, 275360, Note_on_c, 7, 83, 0
9, 275360, Note_on_c, 7, 81, 60
9, 275360, Note_on_c, 7, 69, 57
9, 275440, Note_on_c, 7, 69, 0
9, 275440, Note_on_c, 7, 81, 0
9, 275440, Note_on_c, 7, 79, 60
9, 275440, Note_on_c, 7, 67, 58
9, 275520, Note_on_c, 7, 67, 0
9, 275520, Note_on_c, 7, 79, 0
9, 275520, Note_on_c, 7, 84, 58
9, 275520, Note_on_c, 7, 72, 44
9, 275760, Note_on_c, 7, 72, 0
9, 275760, Note_on_c, 7, 84, 0
9, 275880, Note_on_c, 7, 88, 58
9, 275940, Note_on_c, 7, 88, 0
9, 275970, Note_on_c, 7, 88, 80
9, 276000, Note_on_c, 7, 88, 0
9, 276000, Note_on_c, 7, 86, 73
9, 276060, Note_on_c, 7, 86, 0
9, 276120, Note_on_c, 7, 84, 58
9, 276120, Note_on_c, 7, 76, 57
9, 276120, Note_on_c, 7, 72, 61
9, 276180, Note_on_c, 7, 84, 0
9, 276240, Note_on_c, 7, 72, 0
9, 276240, Note_on_c, 7, 76, 0
9, 276240, Note_on_c, 7, 74, 58
9, 276240, Note_on_c, 7, 67, 52
9, 276360, Note_on_c, 7, 67, 0
9, 276360, Note_on_c, 7, 74, 0
9, 276360, Note_on_c, 7, 72, 68
9, 276360, Note_on_c, 7, 64, 57
9, 276360, Note_on_c, 7, 88, 58
9, 276420, Note_on_c, 7, 88, 0
9, 276450, Note_on_c, 7, 88, 70
9, 276480, Note_on_c, 7, 88, 0
9, 276480, Note_on_c, 7, 64, 0
9, 276480, Note_on_c, 7, 72, 0
9, 276480, Note_on_c, 7, 86, 57
9, 276540, Note_on_c, 7, 86, 0
9, 276600, Note_on_c, 7, 84, 66
9, 276600, Note_on_c, 7, 76, 75
9, 276600, Note_on_c, 7, 72, 61
9, 276660, Note_on_c, 7, 84, 0
9, 276720, Note_on_c, 7, 72, 0
9, 276720, Note_on_c, 7, 76, 0
9, 276720, Note_on_c, 7, 74, 66
9, 276720, Note_on_c, 7, 67, 57
9, 276840, Note_on_c, 7, 67, 0
9, 276840, Note_on_c, 7, 74, 0
9, 276840, Note_on_c, 7, 88, 60
9, 276840, Note_on_c, 7, 72, 77
9, 276840, Note_on_c, 7, 64, 60
9, 276960, Note_on_c, 7, 64, 0
9, 276960, Note_on_c, 7, 72, 0
9, 276960, Note_on_c, 7, 88, 0
9, 276960, Note_on_c, 7, 88, 73
9, 276960, Note_on_c, 7, 74, 61
9, 276960, Note_on_c, 7, 67, 62
9, 277020, Note_on_c, 7, 88, 0
9, 277020, Note_on_c, 7, 86, 66
9, 277080, Note_on_c, 7, 86, 0
9, 277080, Note_on_c, 7, 67, 0
9, 277080, Note_on_c, 7, 74, 0
9, 277080, Note_on_c, 7, 72, 61
9, 277080, Note_on_c, 7, 64, 83
9, 277140, Note_on_c, 7, 84, 78
9, 277170, Note_on_c, 7, 84, 0
9, 277200, Note_on_c, 7, 64, 0
9, 277200, Note_on_c, 7, 72, 0
9, 277200, Note_on_c, 7, 88, 81
9, 277200, Note_on_c, 7, 74, 67
9, 277200, Note_on_c, 7, 67, 66
9, 277260, Note_on_c, 7, 88, 0
9, 277260, Note_on_c, 7, 86, 72
9, 277320, Note_on_c, 7, 86, 0
9, 277320, Note_on_c, 7, 67, 0
9, 277320, Note_on_c, 7, 74, 0
9, 277320, Note_on_c, 7, 72, 57
9, 277320, Note_on_c, 7, 64, 79
9, 277380, Note_on_c, 7, 84, 89
9, 277410, Note_on_c, 7, 84, 0
9, 277440, Note_on_c, 7, 64, 0
9, 277440, Note_on_c, 7, 72, 0
9, 277440, Note_on_c, 7, 88, 80
9, 277440, Note_on_c, 7, 74, 58
9, 277440, Note_on_c, 7, 67, 66
9, 277500, Note_on_c, 7, 88, 0
9, 277500, Note_on_c, 7, 86, 79
9, 277560, Note_on_c, 7, 86, 0
9, 277560, Note_on_c, 7, 67, 0
9, 277560, Note_on_c, 7, 74, 0
9, 277560, Note_on_c, 7, 72, 58
9, 277560, Note_on_c, 7, 64, 81
9, 277620, Note_on_c, 7, 84, 78
9, 277650, Note_on_c, 7, 84, 0
9, 277680, Note_on_c, 7, 64, 0
9, 277680, Note_on_c, 7, 72, 0
9, 277680, Note_on_c, 7, 88, 88
9, 277680, Note_on_c, 7, 74, 78
9, 277680, Note_on_c, 7, 67, 63
9, 277740, Note_on_c, 7, 88, 0
9, 277740, Note_on_c, 7, 86, 78
9, 277800, Note_on_c, 7, 86, 0
9, 277800, Note_on_c, 7, 67, 0
9, 277800, Note_on_c, 7, 74, 0
9, 277800, Note_on_c, 7, 72, 62
9, 277800, Note_on_c, 7, 64, 82
9, 277860, Note_on_c, 7, 84, 81
9, 277890, Note_on_c, 7, 84, 0
9, 277920, Note_on_c, 7, 64, 0
9, 277920, Note_on_c, 7, 72, 0
9, 277920, Note_on_c, 7, 86, 84
9, 277920, Note_on_c, 7, 74, 68
9, 277920, Note_on_c, 7, 67, 73
9, 278880, Note_on_c, 7, 67, 0
9, 278880, Note_on_c, 7, 74, 0
9, 278880, Note_on_c, 7, 86, 0
9, 279120, Note_on_c, 7, 88, 78
9, 279152, Note_on_c, 7, 88, 0
9, 279152, Note_on_c, 7, 86, 73
9, 279184, Note_on_c, 7, 86, 0
9, 279184, Note_on_c, 7, 85, 73
9, 279216, Note_on_c, 7, 85, 0
9, 279216, Note_on_c, 7, 86, 82
9, 279248, Note_on_c, 7, 86, 0
9, 279248, Note_on_c, 7, 88, 83
9, 279280, Note_on_c, 7, 88, 0
9, 279280, Note_on_c, 7, 89, 80
9, 279312, Note_on_c, 7, 89, 0
9, 279312, Note_on_c, 7, 88, 80
9, 279344, Note_on_c, 7, 88, 0
9, 279344, Note_on_c, 7, 86, 78
9, 279376, Note_on_c, 7, 86, 0
9, 279376, Note_on_c, 7, 84, 78
9, 279408, Note_on_c, 7, 84, 0
9, 279408, Note_on_c, 7, 83, 77
9, 279440, Note_on_c, 7, 83, 0
9, 279440, Note_on_c, 7, 81, 81
9, 279472, Note_on_c, 7, 81, 0
9, 279472, Note_on_c, 7, 83, 82
9, 279504, Note_on_c, 7, 83, 0
9, 279504, Note_on_c, 7, 84, 78
9, 279536, Note_on_c, 7, 84, 0
9, 279536, Note_on_c, 7, 86, 79
9, 279568, Note_on_c, 7, 86, 0
9, 279568, Note_on_c, 7, 84, 78
9, 279600, Note_on_c, 7, 84, 0
9, 279600, Note_on_c, 7, 83, 79
9, 279632, Note_on_c, 7, 83, 0
9, 279632, Note_on_c, 7, 81, 81
9, 279664, Note_on_c, 7, 81, 0
9, 279664, Note_on_c, 7, 79, 79
9, 279696, Note_on_c, 7, 79, 0
9, 279696, Note_on_c, 7, 78, 74
9, 279728, Note_on_c, 7, 78, 0
9, 279728, Note_on_c, 7, 79, 72
9, 279760, Note_on_c, 7, 79, 0
9, 279760, Note_on_c, 7, 80, 82
9, 279792, Note_on_c, 7, 80, 0
9, 279792, Note_on_c, 7, 81, 78
9, 279824, Note_on_c, 7, 81, 0
9, 279824, Note_on_c, 7, 82, 72
9, 279840, Note_on_c, 7, 83, 79
9, 279856, Note_on_c, 7, 82, 0
9, 279876, Note_on_c, 7, 83, 0
9, 279876, Note_on_c, 7, 84, 69
9, 279912, Note_on_c, 7, 84, 0
9, 279912, Note_on_c, 7, 85, 72
9, 279948, Note_on_c, 7, 85, 0
9, 279948, Note_on_c, 7, 86, 58
9, 279984, Note_on_c, 7, 86, 0
9, 279984, Note_on_c, 7, 87, 68
9, 280020, Note_on_c, 7, 87, 0
9, 280020, Note_on_c, 7, 88, 72
9, 280056, Note_on_c, 7, 88, 0
9, 280056, Note_on_c, 7, 89, 80
9, 280092, Note_on_c, 7, 89, 0
9, 280092, Note_on_c, 7, 83, 78
9, 280128, Note_on_c, 7, 83, 0
9, 280200, Note_on_c, 7, 86, 80
9, 280440, Note_on_c, 7, 86, 0
9, 280440, Note_on_c, 7, 84, 77
9, 281160, Note_on_c, 7, 84, 0
9, 281160, End_track
10, 0, Start_track
10, 0, MIDI_port, 0
10, 0, Title_t, "1st Violins"
10, 0, Program_c, 8, 48
10, 0, Control_c, 8, 7, 100
10, 0, Control_c, 8, 10, 33
10, 0, Control_c, 8, 93, 0
10, 0, Control_c, 8, 91, 66
10, 9960, Note_on_c, 8, 76, 104
10, 10080, Note_on_c, 8, 76, 0
10, 10080, Note_on_c, 8, 76, 99
10, 10140, Note_on_c, 8, 76, 0
10, 10140, Note_on_c, 8, 74, 104
10, 10200, Note_on_c, 8, 74, 0
10, 10200, Note_on_c, 8, 72, 84
10, 10260, Note_on_c, 8, 72, 0
10, 10320, Note_on_c, 8, 72, 89
10, 10380, Note_on_c, 8, 72, 0
10, 10440, Note_on_c, 8, 76, 99
10, 10500, Note_on_c, 8, 76, 0
10, 10560, Note_on_c, 8, 76, 104
10, 10620, Note_on_c, 8, 76, 0
10, 10620, Note_on_c, 8, 74, 104
10, 10680, Note_on_c, 8, 74, 0
10, 10680, Note_on_c, 8, 72, 89
10, 10740, Note_on_c, 8, 72, 0
10, 10800, Note_on_c, 8, 72, 86
10, 10860, Note_on_c, 8, 72, 0
10, 10920, Note_on_c, 8, 76, 101
10, 10980, Note_on_c, 8, 76, 0
10, 11040, Note_on_c, 8, 76, 104
10, 11100, Note_on_c, 8, 76, 0
10, 11100, Note_on_c, 8, 74, 105
10, 11160, Note_on_c, 8, 74, 0
10, 11160, Note_on_c, 8, 72, 90
10, 11220, Note_on_c, 8, 72, 0
10, 11280, Note_on_c, 8, 72, 89
10, 11340, Note_on_c, 8, 72, 0
10, 11340, Note_on_c, 8, 71, 99
10, 11400, Note_on_c, 8, 71, 0
10, 11400, Note_on_c, 8, 69, 105
10, 11460, Note_on_c, 8, 69, 0
10, 11490, Note_on_c, 8, 69, 104
10, 11520, Note_on_c, 8, 69, 0
10, 11520, Note_on_c, 8, 67, 99
10, 11580, Note_on_c, 8, 67, 0
10, 11640, Note_on_c, 8, 67, 101
10, 11700, Note_on_c, 8, 67, 0
10, 11760, Note_on_c, 8, 69, 99
10, 11820, Note_on_c, 8, 69, 0
10, 11880, Note_on_c, 8, 66, 99
10, 11940, Note_on_c, 8, 66, 0
10, 12000, Note_on_c, 8, 67, 98
10, 12060, Note_on_c, 8, 67, 0
10, 12120, Note_on_c, 8, 67, 98
10, 12180, Note_on_c, 8, 67, 0
10, 12240, Note_on_c, 8, 69, 104
10, 12300, Note_on_c, 8, 69, 0
10, 12360, Note_on_c, 8, 66, 95
10, 12420, Note_on_c, 8, 66, 0
10, 12480, Note_on_c, 8, 67, 99
10, 12840, Note_on_c, 8, 67, 0
10, 12840, Note_on_c, 8, 67, 99
10, 12960, Note_on_c, 8, 67, 0
10, 12960, Note_on_c, 8, 67, 95
10, 13020, Note_on_c, 8, 67, 0
10, 13020, Note_on_c, 8, 69, 95
10, 13080, Note_on_c, 8, 69, 0
10, 13080, Note_on_c, 8, 71, 99
10, 13140, Note_on_c, 8, 71, 0
10, 13200, Note_on_c, 8, 71, 99
10, 13260, Note_on_c, 8, 71, 0
10, 13260, Note_on_c, 8, 72, 89
10, 13320, Note_on_c, 8, 72, 0
10, 13320, Note_on_c, 8, 74, 104
10, 13380, Note_on_c, 8, 74, 0
10, 13440, Note_on_c, 8, 74, 115
10, 13800, Note_on_c, 8, 74, 0
10, 13800, Note_on_c, 8, 71, 94
10, 13920, Note_on_c, 8, 71, 0
10, 13920, Note_on_c, 8, 71, 99
10, 13980, Note_on_c, 8, 71, 0
10, 13980, Note_on_c, 8, 72, 85
10, 14040, Note_on_c, 8, 72, 0
10, 14040, Note_on_c, 8, 74, 94
10, 14100, Note_on_c, 8, 74, 0
10, 14160, Note_on_c, 8, 74, 105
10, 14220, Note_on_c, 8, 74, 0
10, 14220, Note_on_c, 8, 76, 99
10, 14280, Note_on_c, 8, 76, 0
10, 14280, Note_on_c, 8, 77, 95
10, 14340, Note_on_c, 8, 77, 0
10, 14400, Note_on_c, 8, 77, 119
10, 14760, Note_on_c, 8, 77, 0
10, 14760, Note_on_c, 8, 81, 99
10, 14880, Note_on_c, 8, 81, 0
10, 14880, Note_on_c, 8, 81, 98
10, 14940, Note_on_c, 8, 81, 0
10, 14940, Note_on_c, 8, 79, 93
10, 15000, Note_on_c, 8, 79, 0
10, 15000, Note_on_c, 8, 77, 119
10, 15060, Note_on_c, 8, 77, 0
10, 15120, Note_on_c, 8, 77, 94
10, 15180, Note_on_c, 8, 77, 0
10, 15240, Note_on_c, 8, 81, 94
10, 15300, Note_on_c, 8, 81, 0
10, 15360, Note_on_c, 8, 81, 101
10, 15420, Note_on_c, 8, 81, 0
10, 15420, Note_on_c, 8, 79, 93
10, 15480, Note_on_c, 8, 79, 0
10, 15480, Note_on_c, 8, 77, 123
10, 15540, Note_on_c, 8, 77, 0
10, 15600, Note_on_c, 8, 77, 98
10, 15660, Note_on_c, 8, 77, 0
10, 15720, Note_on_c, 8, 81, 99
10, 15780, Note_on_c, 8, 81, 0
10, 15840, Note_on_c, 8, 81, 99
10, 15900, Note_on_c, 8, 81, 0
10, 15900, Note_on_c, 8, 79, 95
10, 15960, Note_on_c, 8, 79, 0
10, 15960, Note_on_c, 8, 77, 98
10, 16020, Note_on_c, 8, 77, 0
10, 16080, Note_on_c, 8, 77, 95
10, 16140, Note_on_c, 8, 77, 0
10, 16140, Note_on_c, 8, 76, 101
10, 16200, Note_on_c, 8, 76, 0
10, 16200, Note_on_c, 8, 74, 104
10, 16260, Note_on_c, 8, 74, 0
10, 16290, Note_on_c, 8, 74, 112
10, 16320, Note_on_c, 8, 74, 0
10, 16320, Note_on_c, 8, 72, 93
10, 16380, Note_on_c, 8, 72, 0
10, 16440, Note_on_c, 8, 72, 84
10, 16500, Note_on_c, 8, 72, 0
10, 16560, Note_on_c, 8, 74, 104
10, 16620, Note_on_c, 8, 74, 0
10, 16680, Note_on_c, 8, 71, 104
10, 16740, Note_on_c, 8, 71, 0
10, 16800, Note_on_c, 8, 72, 80
10, 16800, Note_on_c, 8, 64, 85
10, 16800, Note_on_c, 8, 55, 94
10, 17040, Note_on_c, 8, 55, 0
10, 17040, Note_on_c, 8, 64, 0
10, 17040, Note_on_c, 8, 72, 0
10, 17280, Note_on_c, 8, 83, 94
10, 17280, Note_on_c, 8, 74, 98
10, 17280, Note_on_c, 8, 67, 101
10, 17520, Note_on_c, 8, 67, 0
10, 17520, Note_on_c, 8, 74, 0
10, 17520, Note_on_c, 8, 83, 0
10, 17760, Note_on_c, 8, 84, 125
10, 17820, Note_on_c, 8, 84, 0
10, 17820, Note_on_c, 8, 83, 117
10, 17880, Note_on_c, 8, 83, 0
10, 17880, Note_on_c, 8, 81, 119
10, 17940, Note_on_c, 8, 81, 0
10, 17940, Note_on_c, 8, 79, 123
10, 18000, Note_on_c, 8, 79, 0
10, 18000, Note_on_c, 8, 77, 119
10, 18060, Note_on_c, 8, 77, 0
10, 18060, Note_on_c, 8, 76, 119
10, 18120, Note_on_c, 8, 76, 0
10, 18120, Note_on_c, 8, 74, 119
10, 18180, Note_on_c, 8, 74, 0
10, 18180, Note_on_c, 8, 72, 110
10, 18240, Note_on_c, 8, 72, 0
10, 18240, Note_on_c, 8, 74, 119
10, 18300, Note_on_c, 8, 74, 0
10, 18360, Note_on_c, 8, 76, 123
10, 18420, Note_on_c, 8, 76, 0
10, 18480, Note_on_c, 8, 77, 125
10, 18540, Note_on_c, 8, 77, 0
10, 18600, Note_on_c, 8, 71, 125
10, 18660, Note_on_c, 8, 71, 0
10, 18720, Note_on_c, 8, 72, 112
10, 18780, Note_on_c, 8, 72, 0
10, 18780, Note_on_c, 8, 72, 110
10, 18840, Note_on_c, 8, 72, 0
10, 18840, Note_on_c, 8, 74, 119
10, 18900, Note_on_c, 8, 74, 0
10, 18900, Note_on_c, 8, 74, 123
10, 18960, Note_on_c, 8, 74, 0
10, 18960, Note_on_c, 8, 72, 112
10, 19020, Note_on_c, 8, 72, 0
10, 19020, Note_on_c, 8, 72, 110
10, 19080, Note_on_c, 8, 72, 0
10, 19080, Note_on_c, 8, 74, 119
10, 19140, Note_on_c, 8, 74, 0
10, 19140, Note_on_c, 8, 74, 119
10, 19200, Note_on_c, 8, 74, 0
10, 19200, Note_on_c, 8, 72, 119
10, 19440, Note_on_c, 8, 72, 0
10, 22560, Note_on_c, 8, 79, 57
10, 22920, Note_on_c, 8, 79, 0
10, 22920, Note_on_c, 8, 81, 54
10, 22980, Note_on_c, 8, 81, 0
10, 22980, Note_on_c, 8, 83, 67
10, 23040, Note_on_c, 8, 83, 0
10, 23040, Note_on_c, 8, 84, 68
10, 23100, Note_on_c, 8, 84, 0
10, 24480, Note_on_c, 8, 76, 71
10, 24840, Note_on_c, 8, 76, 0
10, 24840, Note_on_c, 8, 78, 52
10, 24900, Note_on_c, 8, 78, 0
10, 24900, Note_on_c, 8, 80, 45
10, 24960, Note_on_c, 8, 80, 0
10, 24960, Note_on_c, 8, 81, 63
10, 25020, Note_on_c, 8, 81, 0
10, 25920, Note_on_c, 8, 72, 61
10, 26400, Note_on_c, 8, 72, 0
10, 26400, Note_on_c, 8, 66, 71
10, 26880, Note_on_c, 8, 66, 0
10, 26880, Note_on_c, 8, 67, 71
10, 27000, Note_on_c, 8, 67, 0
10, 27840, Note_on_c, 8, 76, 72
10, 28320, Note_on_c, 8, 76, 0
10, 28320, Note_on_c, 8, 67, 65
10, 28800, Note_on_c, 8, 67, 0
10, 28800, Note_on_c, 8, 66, 58
10, 29040, Note_on_c, 8, 66, 0
10, 29760, Note_on_c, 8, 74, 76
10, 30480, Note_on_c, 8, 74, 0
10, 30480, Note_on_c, 8, 74, 43
10, 30600, Note_on_c, 8, 74, 0
10, 30600, Note_on_c, 8, 79, 62
10, 30720, Note_on_c, 8, 79, 0
10, 30720, Note_on_c, 8, 78, 76
10, 30780, Note_on_c, 8, 78, 0
10, 30840, Note_on_c, 8, 67, 81
10, 30900, Note_on_c, 8, 67, 0
10, 30960, Note_on_c, 8, 66, 76
10, 31020, Note_on_c, 8, 66, 0
10, 31080, Note_on_c, 8, 67, 77
10, 31140, Note_on_c, 8, 67, 0
10, 31200, Note_on_c, 8, 66, 67
10, 31440, Note_on_c, 8, 66, 0
10, 31560, Note_on_c, 8, 62, 56
10, 31680, Note_on_c, 8, 62, 0
10, 31680, Note_on_c, 8, 67, 74
10, 31800, Note_on_c, 8, 67, 0
10, 31800, Note_on_c, 8, 66, 72
10, 31920, Note_on_c, 8, 66, 0
10, 31920, Note_on_c, 8, 67, 77
10, 32040, Note_on_c, 8, 67, 0
10, 32040, Note_on_c, 8, 69, 105
10, 32160, Note_on_c, 8, 69, 0
10, 32160, Note_on_c, 8, 67, 64
10, 32280, Note_on_c, 8, 67, 0
10, 32280, Note_on_c, 8, 66, 76
10, 32400, Note_on_c, 8, 66, 0
10, 32400, Note_on_c, 8, 64, 71
10, 32520, Note_on_c, 8, 64, 0
10, 32520, Note_on_c, 8, 62, 104
10, 32640, Note_on_c, 8, 62, 0
10, 32640, Note_on_c, 8, 67, 76
10, 32760, Note_on_c, 8, 67, 0
10, 32760, Note_on_c, 8, 66, 80
10, 32880, Note_on_c, 8, 66, 0
10, 32880, Note_on_c, 8, 67, 84
10, 33000, Note_on_c, 8, 67, 0
10, 33000, Note_on_c, 8, 69, 104
10, 33120, Note_on_c, 8, 69, 0
10, 33120, Note_on_c, 8, 66, 89
10, 33360, Note_on_c, 8, 66, 0
10, 33480, Note_on_c, 8, 64, 73
10, 33600, Note_on_c, 8, 64, 0
10, 33600, Note_on_c, 8, 72, 62
10, 33660, Note_on_c, 8, 72, 0
10, 33720, Note_on_c, 8, 72, 52
10, 33780, Note_on_c, 8, 72, 0
10, 33960, Note_on_c, 8, 72, 61
10, 34080, Note_on_c, 8, 72, 0
10, 34080, Note_on_c, 8, 71, 78
10, 34140, Note_on_c, 8, 71, 0
10, 34200, Note_on_c, 8, 71, 80
10, 34260, Note_on_c, 8, 71, 0
10, 34440, Note_on_c, 8, 71, 89
10, 34500, Note_on_c, 8, 71, 0
10, 34560, Note_on_c, 8, 71, 81
10, 34680, Note_on_c, 8, 71, 0
10, 34680, Note_on_c, 8, 69, 80
10, 34800, Note_on_c, 8, 69, 0
10, 34800, Note_on_c, 8, 69, 84
10, 34920, Note_on_c, 8, 69, 0
10, 34920, Note_on_c, 8, 67, 74
10, 35040, Note_on_c, 8, 67, 0
10, 35040, Note_on_c, 8, 66, 77
10, 35280, Note_on_c, 8, 66, 0
10, 35280, Note_on_c, 8, 69, 67
10, 35400, Note_on_c, 8, 69, 0
10, 35520, Note_on_c, 8, 71, 64
10, 35760, Note_on_c, 8, 71, 0
10, 35880, Note_on_c, 8, 71, 67
10, 36000, Note_on_c, 8, 71, 0
10, 36000, Note_on_c, 8, 72, 54
10, 36240, Note_on_c, 8, 72, 0
10, 36360, Note_on_c, 8, 72, 58
10, 36480, Note_on_c, 8, 72, 0
10, 36480, Note_on_c, 8, 71, 57
10, 36720, Note_on_c, 8, 71, 0
10, 36840, Note_on_c, 8, 71, 69
10, 36960, Note_on_c, 8, 71, 0
10, 36960, Note_on_c, 8, 72, 65
10, 37200, Note_on_c, 8, 72, 0
10, 40800, Note_on_c, 8, 67, 45
10, 40920, Note_on_c, 8, 67, 0
10, 40920, Note_on_c, 8, 67, 57
10, 41040, Note_on_c, 8, 67, 0
10, 41040, Note_on_c, 8, 67, 45
10, 41160, Note_on_c, 8, 67, 0
10, 41160, Note_on_c, 8, 67, 45
10, 41280, Note_on_c, 8, 67, 0
10, 41280, Note_on_c, 8, 67, 59
10, 41400, Note_on_c, 8, 67, 0
10, 41400, Note_on_c, 8, 67, 59
10, 41520, Note_on_c, 8, 67, 0
10, 41520, Note_on_c, 8, 68, 72
10, 41580, Note_on_c, 8, 68, 0
10, 41580, Note_on_c, 8, 67, 44
10, 41640, Note_on_c, 8, 67, 0
10, 41640, Note_on_c, 8, 65, 64
10, 41700, Note_on_c, 8, 65, 0
10, 41700, Note_on_c, 8, 67, 43
10, 41760, Note_on_c, 8, 67, 0
10, 41760, Note_on_c, 8, 68, 61
10, 41880, Note_on_c, 8, 68, 0
10, 41880, Note_on_c, 8, 67, 63
10, 42000, Note_on_c, 8, 67, 0
10, 42000, Note_on_c, 8, 65, 66
10, 42120, Note_on_c, 8, 65, 0
10, 42120, Note_on_c, 8, 63, 84
10, 42240, Note_on_c, 8, 63, 0
10, 42240, Note_on_c, 8, 62, 94
10, 42360, Note_on_c, 8, 62, 0
10, 42360, Note_on_c, 8, 60, 89
10, 42480, Note_on_c, 8, 60, 0
10, 42480, Note_on_c, 8, 62, 95
10, 42600, Note_on_c, 8, 62, 0
10, 42600, Note_on_c, 8, 58, 85
10, 42720, Note_on_c, 8, 58, 0
10, 42720, Note_on_c, 8, 63, 42
10, 42960, Note_on_c, 8, 63, 0
10, 51840, Note_on_c, 8, 62, 78
10, 52320, Note_on_c, 8, 62, 0
10, 52320, Note_on_c, 8, 67, 80
10, 52800, Note_on_c, 8, 67, 0
10, 52800, Note_on_c, 8, 64, 64
10, 53280, Note_on_c, 8, 64, 0
10, 53280, Note_on_c, 8, 69, 65
10, 53760, Note_on_c, 8, 69, 0
10, 53760, Note_on_c, 8, 67, 67
10, 54240, Note_on_c, 8, 67, 0
10, 54240, Note_on_c, 8, 66, 84
10, 54720, Note_on_c, 8, 66, 0
10, 54960, Note_on_c, 8, 62, 84
10, 55080, Note_on_c, 8, 62, 0
10, 55440, Note_on_c, 8, 67, 80
10, 55560, Note_on_c, 8, 67, 0
10, 55920, Note_on_c, 8, 64, 89
10, 56040, Note_on_c, 8, 64, 0
10, 56400, Note_on_c, 8, 69, 89
10, 56520, Note_on_c, 8, 69, 0
10, 56880, Note_on_c, 8, 67, 86
10, 57000, Note_on_c, 8, 67, 0
10, 57360, Note_on_c, 8, 66, 89
10, 57480, Note_on_c, 8, 66, 0
10, 57600, Note_on_c, 8, 67, 89
10, 57720, Note_on_c, 8, 67, 0
10, 61440, Note_on_c, 8, 67, 95
10, 61800, Note_on_c, 8, 67, 0
10, 61800, Note_on_c, 8, 55, 94
10, 61920, Note_on_c, 8, 55, 0
10, 61920, Note_on_c, 8, 55, 90
10, 62040, Note_on_c, 8, 55, 0
10, 62040, Note_on_c, 8, 55, 93
10, 62160, Note_on_c, 8, 55, 0
10, 62160, Note_on_c, 8, 55, 95
10, 62280, Note_on_c, 8, 55, 0
10, 62280, Note_on_c, 8, 55, 94
10, 62400, Note_on_c, 8, 55, 0
10, 62400, Note_on_c, 8, 56, 89
10, 62760, Note_on_c, 8, 56, 0
10, 62760, Note_on_c, 8, 77, 58
10, 62820, Note_on_c, 8, 77, 0
10, 62850, Note_on_c, 8, 77, 63
10, 62880, Note_on_c, 8, 77, 0
10, 62880, Note_on_c, 8, 75, 72
10, 63000, Note_on_c, 8, 75, 0
10, 63000, Note_on_c, 8, 73, 61
10, 63120, Note_on_c, 8, 73, 0
10, 63120, Note_on_c, 8, 73, 43
10, 63180, Note_on_c, 8, 73, 0
10, 63240, Note_on_c, 8, 77, 37
10, 63300, Note_on_c, 8, 77, 0
10, 63330, Note_on_c, 8, 77, 45
10, 63360, Note_on_c, 8, 77, 0
10, 63360, Note_on_c, 8, 75, 71
10, 63480, Note_on_c, 8, 75, 0
10, 63480, Note_on_c, 8, 73, 53
10, 63600, Note_on_c, 8, 73, 0
10, 63600, Note_on_c, 8, 73, 45
10, 63660, Note_on_c, 8, 73, 0
10, 63720, Note_on_c, 8, 55, 94
10, 63840, Note_on_c, 8, 55, 0
10, 63840, Note_on_c, 8, 56, 95
10, 63960, Note_on_c, 8, 56, 0
10, 63960, Note_on_c, 8, 56, 95
10, 64080, Note_on_c, 8, 56, 0
10, 64080, Note_on_c, 8, 57, 105
10, 64200, Note_on_c, 8, 57, 0
10, 64200, Note_on_c, 8, 57, 104
10, 64320, Note_on_c, 8, 57, 0
10, 64320, Note_on_c, 8, 58, 90
10, 64680, Note_on_c, 8, 58, 0
10, 64680, Note_on_c, 8, 79, 64
10, 64740, Note_on_c, 8, 79, 0
10, 64770, Note_on_c, 8, 79, 94
10, 64800, Note_on_c, 8, 79, 0
10, 64800, Note_on_c, 8, 77, 62
10, 64920, Note_on_c, 8, 77, 0
10, 64920, Note_on_c, 8, 75, 74
10, 65040, Note_on_c, 8, 75, 0
10, 65040, Note_on_c, 8, 75, 76
10, 65100, Note_on_c, 8, 75, 0
10, 65160, Note_on_c, 8, 79, 61
10, 65220, Note_on_c, 8, 79, 0
10, 65250, Note_on_c, 8, 79, 89
10, 65280, Note_on_c, 8, 79, 0
10, 65280, Note_on_c, 8, 77, 71
10, 65400, Note_on_c, 8, 77, 0
10, 65400, Note_on_c, 8, 75, 82
10, 65520, Note_on_c, 8, 75, 0
10, 65520, Note_on_c, 8, 75, 72
10, 65580, Note_on_c, 8, 75, 0
10, 65640, Note_on_c, 8, 57, 112
10, 65760, Note_on_c, 8, 57, 0
10, 65760, Note_on_c, 8, 58, 95
10, 65880, Note_on_c, 8, 58, 0
10, 65880, Note_on_c, 8, 58, 94
10, 66000, Note_on_c, 8, 58, 0
10, 66000, Note_on_c, 8, 59, 99
10, 66120, Note_on_c, 8, 59, 0
10, 66120, Note_on_c, 8, 59, 99
10, 66240, Note_on_c, 8, 59, 0
10, 66240, Note_on_c, 8, 60, 99
10, 66600, Note_on_c, 8, 60, 0
10, 68400, Note_on_c, 8, 65, 46
10, 68640, Note_on_c, 8, 65, 0
10, 68880, Note_on_c, 8, 65, 46
10, 69120, Note_on_c, 8, 65, 0
10, 69360, Note_on_c, 8, 65, 46
10, 69600, Note_on_c, 8, 65, 0
10, 69840, Note_on_c, 8, 65, 46
10, 70080, Note_on_c, 8, 65, 0
10, 82440, Note_on_c, 8, 76, 104
10, 82560, Note_on_c, 8, 76, 0
10, 82560, Note_on_c, 8, 76, 99
10, 82620, Note_on_c, 8, 76, 0
10, 82620, Note_on_c, 8, 74, 104
10, 82680, Note_on_c, 8, 74, 0
10, 82680, Note_on_c, 8, 72, 84
10, 82740, Note_on_c, 8, 72, 0
10, 82800, Note_on_c, 8, 72, 89
10, 82860, Note_on_c, 8, 72, 0
10, 82920, Note_on_c, 8, 76, 99
10, 82980, Note_on_c, 8, 76, 0
10, 83040, Note_on_c, 8, 76, 104
10, 83100, Note_on_c, 8, 76, 0
10, 83100, Note_on_c, 8, 74, 104
10, 83160, Note_on_c, 8, 74, 0
10, 83160, Note_on_c, 8, 72, 89
10, 83220, Note_on_c, 8, 72, 0
10, 83280, Note_on_c, 8, 72, 86
10, 83340, Note_on_c, 8, 72, 0
10, 83400, Note_on_c, 8, 76, 101
10, 83460, Note_on_c, 8, 76, 0
10, 83520, Note_on_c, 8, 76, 104
10, 83580, Note_on_c, 8, 76, 0
10, 83580, Note_on_c, 8, 74, 105
10, 83640, Note_on_c, 8, 74, 0
10, 83640, Note_on_c, 8, 72, 90
10, 83700, Note_on_c, 8, 72, 0
10, 83760, Note_on_c, 8, 72, 89
10, 83820, Note_on_c, 8, 72, 0
10, 83820, Note_on_c, 8, 71, 99
10, 83880, Note_on_c, 8, 71, 0
10, 83880, Note_on_c, 8, 69, 105
10, 83940, Note_on_c, 8, 69, 0
10, 83970, Note_on_c, 8, 69, 104
10, 84000, Note_on_c, 8, 69, 0
10, 84000, Note_on_c, 8, 67, 99
10, 84060, Note_on_c, 8, 67, 0
10, 84120, Note_on_c, 8, 67, 101
10, 84180, Note_on_c, 8, 67, 0
10, 84240, Note_on_c, 8, 69, 99
10, 84300, Note_on_c, 8, 69, 0
10, 84360, Note_on_c, 8, 66, 99
10, 84420, Note_on_c, 8, 66, 0
10, 84480, Note_on_c, 8, 67, 98
10, 84540, Note_on_c, 8, 67, 0
10, 84600, Note_on_c, 8, 67, 98
10, 84660, Note_on_c, 8, 67, 0
10, 84720, Note_on_c, 8, 69, 104
10, 84780, Note_on_c, 8, 69, 0
10, 84840, Note_on_c, 8, 66, 95
10, 84900, Note_on_c, 8, 66, 0
10, 84960, Note_on_c, 8, 67, 99
10, 85320, Note_on_c, 8, 67, 0
10, 85320, Note_on_c, 8, 67, 99
10, 85440, Note_on_c, 8, 67, 0
10, 85440, Note_on_c, 8, 67, 95
10, 85500, Note_on_c, 8, 67, 0
10, 85500, Note_on_c, 8, 69, 95
10, 85560, Note_on_c, 8, 69, 0
10, 85560, Note_on_c, 8, 71, 99
10, 85620, Note_on_c, 8, 71, 0
10, 85680, Note_on_c, 8, 71, 99
10, 85740, Note_on_c, 8, 71, 0
10, 85740, Note_on_c, 8, 72, 89
10, 85800, Note_on_c, 8, 72, 0
10, 85800, Note_on_c, 8, 74, 104
10, 85860, Note_on_c, 8, 74, 0
10, 85920, Note_on_c, 8, 74, 115
10, 86280, Note_on_c, 8, 74, 0
10, 86280, Note_on_c, 8, 71, 94
10, 86400, Note_on_c, 8, 71, 0
10, 86400, Note_on_c, 8, 71, 99
10, 86460, Note_on_c, 8, 71, 0
10, 86460, Note_on_c, 8, 72, 85
10, 86520, Note_on_c, 8, 72, 0
10, 86520, Note_on_c, 8, 74, 94
10, 86580, Note_on_c, 8, 74, 0
10, 86640, Note_on_c, 8, 74, 105
10, 86700, Note_on_c, 8, 74, 0
10, 86700, Note_on_c, 8, 76, 99
10, 86760, Note_on_c, 8, 76, 0
10, 86760, Note_on_c, 8, 77, 95
10, 86820, Note_on_c, 8, 77, 0
10, 86880, Note_on_c, 8, 77, 119
10, 87240, Note_on_c, 8, 77, 0
10, 87240, Note_on_c, 8, 81, 99
10, 87360, Note_on_c, 8, 81, 0
10, 87360, Note_on_c, 8, 81, 98
10, 87420, Note_on_c, 8, 81, 0
10, 87420, Note_on_c, 8, 79, 93
10, 87480, Note_on_c, 8, 79, 0
10, 87480, Note_on_c, 8, 77, 119
10, 87540, Note_on_c, 8, 77, 0
10, 87600, Note_on_c, 8, 77, 94
10, 87660, Note_on_c, 8, 77, 0
10, 87720, Note_on_c, 8, 81, 94
10, 87780, Note_on_c, 8, 81, 0
10, 87840, Note_on_c, 8, 81, 101
10, 87900, Note_on_c, 8, 81, 0
10, 87900, Note_on_c, 8, 79, 93
10, 87960, Note_on_c, 8, 79, 0
10, 87960, Note_on_c, 8, 77, 123
10, 88020, Note_on_c, 8, 77, 0
10, 88080, Note_on_c, 8, 77, 98
10, 88140, Note_on_c, 8, 77, 0
10, 88200, Note_on_c, 8, 81, 99
10, 88260, Note_on_c, 8, 81, 0
10, 88320, Note_on_c, 8, 81, 99
10, 88380, Note_on_c, 8, 81, 0
10, 88380, Note_on_c, 8, 79, 95
10, 88440, Note_on_c, 8, 79, 0
10, 88440, Note_on_c, 8, 77, 98
10, 88500, Note_on_c, 8, 77, 0
10, 88560, Note_on_c, 8, 77, 95
10, 88620, Note_on_c, 8, 77, 0
10, 88620, Note_on_c, 8, 76, 101
10, 88680, Note_on_c, 8, 76, 0
10, 88680, Note_on_c, 8, 74, 104
10, 88740, Note_on_c, 8, 74, 0
10, 88770, Note_on_c, 8, 74, 112
10, 88800, Note_on_c, 8, 74, 0
10, 88800, Note_on_c, 8, 72, 93
10, 88860, Note_on_c, 8, 72, 0
10, 88920, Note_on_c, 8, 72, 84
10, 88980, Note_on_c, 8, 72, 0
10, 89040, Note_on_c, 8, 74, 104
10, 89100, Note_on_c, 8, 74, 0
10, 89160, Note_on_c, 8, 71, 104
10, 89220, Note_on_c, 8, 71, 0
10, 89280, Note_on_c, 8, 72, 80
10, 89280, Note_on_c, 8, 64, 85
10, 89280, Note_on_c, 8, 55, 94
10, 89520, Note_on_c, 8, 55, 0
10, 89520, Note_on_c, 8, 64, 0
10, 89520, Note_on_c, 8, 72, 0
10, 89760, Note_on_c, 8, 83, 94
10, 89760, Note_on_c, 8, 74, 98
10, 89760, Note_on_c, 8, 67, 101
10, 90000, Note_on_c, 8, 67, 0
10, 90000, Note_on_c, 8, 74, 0
10, 90000, Note_on_c, 8, 83, 0
10, 90240, Note_on_c, 8, 84, 125
10, 90300, Note_on_c, 8, 84, 0
10, 90300, Note_on_c, 8, 83, 117
10, 90360, Note_on_c, 8, 83, 0
10, 90360, Note_on_c, 8, 81, 119
10, 90420, Note_on_c, 8, 81, 0
10, 90420, Note_on_c, 8, 79, 123
10, 90480, Note_on_c, 8, 79, 0
10, 90480, Note_on_c, 8, 77, 119
10, 90540, Note_on_c, 8, 77, 0
10, 90540, Note_on_c, 8, 76, 119
10, 90600, Note_on_c, 8, 76, 0
10, 90600, Note_on_c, 8, 74, 119
10, 90660, Note_on_c, 8, 74, 0
10, 90660, Note_on_c, 8, 72, 110
10, 90720, Note_on_c, 8, 72, 0
10, 90720, Note_on_c, 8, 74, 119
10, 90780, Note_on_c, 8, 74, 0
10, 90840, Note_on_c, 8, 76, 123
10, 90900, Note_on_c, 8, 76, 0
10, 90960, Note_on_c, 8, 77, 125
10, 91020, Note_on_c, 8, 77, 0
10, 91080, Note_on_c, 8, 71, 125
10, 91140, Note_on_c, 8, 71, 0
10, 91200, Note_on_c, 8, 72, 112
10, 91260, Note_on_c, 8, 72, 0
10, 91260, Note_on_c, 8, 72, 110
10, 91320, Note_on_c, 8, 72, 0
10, 91320, Note_on_c, 8, 74, 119
10, 91380, Note_on_c, 8, 74, 0
10, 91380, Note_on_c, 8, 74, 123
10, 91440, Note_on_c, 8, 74, 0
10, 91440, Note_on_c, 8, 72, 112
10, 91500, Note_on_c, 8, 72, 0
10, 91500, Note_on_c, 8, 72, 110
10, 91560, Note_on_c, 8, 72, 0
10, 91560, Note_on_c, 8, 74, 119
10, 91620, Note_on_c, 8, 74, 0
10, 91620, Note_on_c, 8, 74, 119
10, 91680, Note_on_c, 8, 74, 0
10, 91680, Note_on_c, 8, 72, 119
10, 91920, Note_on_c, 8, 72, 0
10, 92880, Note_on_c, 8, 68, 58
10, 93120, Note_on_c, 8, 68, 0
10, 93120, Note_on_c, 8, 69, 49
10, 93240, Note_on_c, 8, 69, 0
10, 93840, Note_on_c, 8, 68, 53
10, 94080, Note_on_c, 8, 68, 0
10, 94080, Note_on_c, 8, 69, 69
10, 94200, Note_on_c, 8, 69, 0
10, 94320, Note_on_c, 8, 69, 50
10, 94560, Note_on_c, 8, 69, 0
10, 94560, Note_on_c, 8, 67, 65
10, 94800, Note_on_c, 8, 67, 0
10, 94800, Note_on_c, 8, 66, 55
10, 95040, Note_on_c, 8, 66, 0
10, 95040, Note_on_c, 8, 67, 50
10, 95160, Note_on_c, 8, 67, 0
10, 95280, Note_on_c, 8, 63, 52
10, 95400, Note_on_c, 8, 63, 0
10, 95520, Note_on_c, 8, 64, 68
10, 95760, Note_on_c, 8, 64, 0
10, 96480, Note_on_c, 8, 68, 54
10, 96600, Note_on_c, 8, 68, 0
10, 96600, Note_on_c, 8, 68, 57
10, 96840, Note_on_c, 8, 68, 0
10, 96840, Note_on_c, 8, 68, 54
10, 96960, Note_on_c, 8, 68, 0
10, 96960, Note_on_c, 8, 69, 43
10, 97080, Note_on_c, 8, 69, 0
10, 97440, Note_on_c, 8, 68, 43
10, 97560, Note_on_c, 8, 68, 0
10, 97560, Note_on_c, 8, 68, 61
10, 97800, Note_on_c, 8, 68, 0
10, 97800, Note_on_c, 8, 68, 54
10, 97920, Note_on_c, 8, 68, 0
10, 97920, Note_on_c, 8, 69, 45
10, 98040, Note_on_c, 8, 69, 0
10, 98040, Note_on_c, 8, 69, 45
10, 98280, Note_on_c, 8, 69, 0
10, 98280, Note_on_c, 8, 69, 62
10, 98520, Note_on_c, 8, 69, 0
10, 98520, Note_on_c, 8, 67, 40
10, 98760, Note_on_c, 8, 67, 0
10, 98760, Note_on_c, 8, 66, 43
10, 98880, Note_on_c, 8, 66, 0
10, 98880, Note_on_c, 8, 67, 31
10, 99000, Note_on_c, 8, 67, 0
10, 99120, Note_on_c, 8, 63, 53
10, 99240, Note_on_c, 8, 63, 0
10, 99360, Note_on_c, 8, 64, 54
10, 99600, Note_on_c, 8, 64, 0
10, 104160, Note_on_c, 8, 64, 74
10, 104280, Note_on_c, 8, 64, 0
10, 105000, Note_on_c, 8, 64, 65
10, 105120, Note_on_c, 8, 64, 0
10, 105120, Note_on_c, 8, 65, 71
10, 105240, Note_on_c, 8, 65, 0
10, 105960, Note_on_c, 8, 62, 59
10, 106080, Note_on_c, 8, 62, 0
10, 106080, Note_on_c, 8, 64, 65
10, 106200, Note_on_c, 8, 64, 0
10, 108960, Note_on_c, 8, 69, 62
10, 109200, Note_on_c, 8, 69, 0
10, 109680, Note_on_c, 8, 68, 62
10, 109920, Note_on_c, 8, 68, 0
10, 109920, Note_on_c, 8, 69, 58
10, 110040, Note_on_c, 8, 69, 0
10, 110640, Note_on_c, 8, 68, 64
10, 110880, Note_on_c, 8, 68, 0
10, 110880, Note_on_c, 8, 69, 44
10, 111000, Note_on_c, 8, 69, 0
10, 111120, Note_on_c, 8, 60, 71
10, 111360, Note_on_c, 8, 60, 0
10, 111360, Note_on_c, 8, 59, 73
10, 111600, Note_on_c, 8, 59, 0
10, 111600, Note_on_c, 8, 59, 73
10, 112080, Note_on_c, 8, 59, 0
10, 112080, Note_on_c, 8, 59, 73
10, 112320, Note_on_c, 8, 59, 0
10, 112320, Note_on_c, 8, 60, 52
10, 112560, Note_on_c, 8, 60, 0
10, 112800, Note_on_c, 8, 69, 53
10, 113040, Note_on_c, 8, 69, 0
10, 113040, Note_on_c, 8, 69, 52
10, 113520, Note_on_c, 8, 69, 0
10, 113520, Note_on_c, 8, 69, 50
10, 114000, Note_on_c, 8, 69, 0
10, 114000, Note_on_c, 8, 68, 71
10, 114240, Note_on_c, 8, 68, 0
10, 114240, Note_on_c, 8, 69, 56
10, 114360, Note_on_c, 8, 69, 0
10, 119040, Note_on_c, 8, 69, 76
10, 119160, Note_on_c, 8, 69, 0
10, 119880, Note_on_c, 8, 69, 74
10, 120000, Note_on_c, 8, 69, 0
10, 120000, Note_on_c, 8, 70, 71
10, 120120, Note_on_c, 8, 70, 0
10, 120840, Note_on_c, 8, 67, 61
10, 120960, Note_on_c, 8, 67, 0
10, 120960, Note_on_c, 8, 69, 61
10, 121080, Note_on_c, 8, 69, 0
10, 123960, Note_on_c, 8, 76, 52
10, 124080, Note_on_c, 8, 76, 0
10, 124080, Note_on_c, 8, 74, 77
10, 124200, Note_on_c, 8, 74, 0
10, 124200, Note_on_c, 8, 72, 51
10, 124320, Note_on_c, 8, 72, 0
10, 124320, Note_on_c, 8, 71, 73
10, 124440, Note_on_c, 8, 71, 0
10, 124440, Note_on_c, 8, 69, 90
10, 124560, Note_on_c, 8, 69, 0
10, 124560, Note_on_c, 8, 68, 90
10, 124680, Note_on_c, 8, 68, 0
10, 124680, Note_on_c, 8, 69, 94
10, 124800, Note_on_c, 8, 69, 0
10, 124800, Note_on_c, 8, 70, 43
10, 124920, Note_on_c, 8, 70, 0
10, 124920, Note_on_c, 8, 71, 40
10, 125160, Note_on_c, 8, 71, 0
10, 125160, Note_on_c, 8, 68, 46
10, 125280, Note_on_c, 8, 68, 0
10, 125280, Note_on_c, 8, 69, 44
10, 125400, Note_on_c, 8, 69, 0
10, 125760, Note_on_c, 8, 68, 69
10, 125880, Note_on_c, 8, 68, 0
10, 125880, Note_on_c, 8, 68, 68
10, 126120, Note_on_c, 8, 68, 0
10, 126120, Note_on_c, 8, 68, 64
10, 126240, Note_on_c, 8, 68, 0
10, 126240, Note_on_c, 8, 69, 62
10, 126480, Note_on_c, 8, 69, 0
10, 126720, Note_on_c, 8, 68, 72
10, 126840, Note_on_c, 8, 68, 0
10, 126840, Note_on_c, 8, 68, 67
10, 127080, Note_on_c, 8, 68, 0
10, 127080, Note_on_c, 8, 68, 65
10, 127200, Note_on_c, 8, 68, 0
10, 127200, Note_on_c, 8, 69, 62
10, 127440, Note_on_c, 8, 69, 0
10, 127440, Note_on_c, 8, 70, 60
10, 127680, Note_on_c, 8, 70, 0
10, 127680, Note_on_c, 8, 69, 67
10, 127920, Note_on_c, 8, 69, 0
10, 127920, Note_on_c, 8, 67, 59
10, 128160, Note_on_c, 8, 67, 0
10, 128160, Note_on_c, 8, 65, 69
10, 128400, Note_on_c, 8, 65, 0
10, 128400, Note_on_c, 8, 62, 71
10, 128640, Note_on_c, 8, 62, 0
10, 128640, Note_on_c, 8, 64, 68
10, 128760, Note_on_c, 8, 64, 0
10, 128880, Note_on_c, 8, 64, 60
10, 129000, Note_on_c, 8, 64, 0
10, 129120, Note_on_c, 8, 72, 63
10, 129360, Note_on_c, 8, 72, 0
10, 129360, Note_on_c, 8, 70, 73
10, 129600, Note_on_c, 8, 70, 0
10, 129600, Note_on_c, 8, 69, 80
10, 129840, Note_on_c, 8, 69, 0
10, 129840, Note_on_c, 8, 67, 63
10, 130080, Note_on_c, 8, 67, 0
10, 130080, Note_on_c, 8, 65, 62
10, 130320, Note_on_c, 8, 65, 0
10, 130320, Note_on_c, 8, 62, 74
10, 130560, Note_on_c, 8, 62, 0
10, 130560, Note_on_c, 8, 64, 76
10, 130680, Note_on_c, 8, 64, 0
10, 130800, Note_on_c, 8, 64, 72
10, 130920, Note_on_c, 8, 64, 0
10, 131040, Note_on_c, 8, 57, 112
10, 131400, Note_on_c, 8, 57, 0
10, 131400, Note_on_c, 8, 57, 110
10, 131520, Note_on_c, 8, 57, 0
10, 131520, Note_on_c, 8, 57, 110
10, 131640, Note_on_c, 8, 57, 0
10, 131640, Note_on_c, 8, 57, 105
10, 131760, Note_on_c, 8, 57, 0
10, 131760, Note_on_c, 8, 57, 105
10, 131880, Note_on_c, 8, 57, 0
10, 131880, Note_on_c, 8, 57, 110
10, 132000, Note_on_c, 8, 57, 0
10, 132000, Note_on_c, 8, 58, 98
10, 132360, Note_on_c, 8, 58, 0
10, 133320, Note_on_c, 8, 57, 115
10, 133440, Note_on_c, 8, 57, 0
10, 133440, Note_on_c, 8, 58, 84
10, 133560, Note_on_c, 8, 58, 0
10, 133560, Note_on_c, 8, 58, 80
10, 133680, Note_on_c, 8, 58, 0
10, 133680, Note_on_c, 8, 59, 94
10, 133800, Note_on_c, 8, 59, 0
10, 133800, Note_on_c, 8, 59, 86
10, 133920, Note_on_c, 8, 59, 0
10, 133920, Note_on_c, 8, 60, 89
10, 134280, Note_on_c, 8, 60, 0
10, 135240, Note_on_c, 8, 59, 99
10, 135360, Note_on_c, 8, 59, 0
10, 135360, Note_on_c, 8, 60, 89
10, 135480, Note_on_c, 8, 60, 0
10, 135480, Note_on_c, 8, 60, 86
10, 135600, Note_on_c, 8, 60, 0
10, 135600, Note_on_c, 8, 61, 86
10, 135720, Note_on_c, 8, 61, 0
10, 135720, Note_on_c, 8, 61, 90
10, 135840, Note_on_c, 8, 61, 0
10, 135840, Note_on_c, 8, 62, 101
10, 136200, Note_on_c, 8, 62, 0
10, 138000, Note_on_c, 8, 67, 49
10, 138240, Note_on_c, 8, 67, 0
10, 138480, Note_on_c, 8, 67, 54
10, 138720, Note_on_c, 8, 67, 0
10, 138960, Note_on_c, 8, 67, 56
10, 139200, Note_on_c, 8, 67, 0
10, 139920, Note_on_c, 8, 66, 43
10, 140160, Note_on_c, 8, 66, 0
10, 140880, Note_on_c, 8, 65, 45
10, 141120, Note_on_c, 8, 65, 0
10, 141840, Note_on_c, 8, 64, 62
10, 142080, Note_on_c, 8, 64, 0
10, 142560, Note_on_c, 8, 60, 64
10, 142800, Note_on_c, 8, 60, 0
10, 142800, Note_on_c, 8, 61, 59
10, 143040, Note_on_c, 8, 61, 0
10, 143040, Note_on_c, 8, 62, 61
10, 143280, Note_on_c, 8, 62, 0
10, 143280, Note_on_c, 8, 62, 61
10, 143520, Note_on_c, 8, 62, 0
10, 143520, Note_on_c, 8, 62, 65
10, 143640, Note_on_c, 8, 62, 0
10, 143640, Note_on_c, 8, 59, 73
10, 143700, Note_on_c, 8, 59, 0
10, 143700, Note_on_c, 8, 60, 62
10, 143760, Note_on_c, 8, 60, 0
10, 143760, Note_on_c, 8, 62, 69
10, 143820, Note_on_c, 8, 62, 0
10, 144600, Note_on_c, 8, 60, 57
10, 144660, Note_on_c, 8, 60, 0
10, 144660, Note_on_c, 8, 62, 64
10, 144720, Note_on_c, 8, 62, 0
10, 144720, Note_on_c, 8, 64, 60
10, 144780, Note_on_c, 8, 64, 0
10, 145560, Note_on_c, 8, 62, 45
10, 145620, Note_on_c, 8, 62, 0
10, 145620, Note_on_c, 8, 64, 61
10, 145680, Note_on_c, 8, 64, 0
10, 145680, Note_on_c, 8, 65, 58
10, 145740, Note_on_c, 8, 65, 0
10, 158760, Note_on_c, 8, 76, 104
10, 158880, Note_on_c, 8, 76, 0
10, 158880, Note_on_c, 8, 76, 99
10, 158940, Note_on_c, 8, 76, 0
10, 158940, Note_on_c, 8, 74, 104
10, 159000, Note_on_c, 8, 74, 0
10, 159000, Note_on_c, 8, 72, 84
10, 159060, Note_on_c, 8, 72, 0
10, 159120, Note_on_c, 8, 72, 89
10, 159180, Note_on_c, 8, 72, 0
10, 159240, Note_on_c, 8, 76, 99
10, 159300, Note_on_c, 8, 76, 0
10, 159360, Note_on_c, 8, 76, 104
10, 159420, Note_on_c, 8, 76, 0
10, 159420, Note_on_c, 8, 74, 104
10, 159480, Note_on_c, 8, 74, 0
10, 159480, Note_on_c, 8, 72, 89
10, 159540, Note_on_c, 8, 72, 0
10, 159600, Note_on_c, 8, 72, 86
10, 159660, Note_on_c, 8, 72, 0
10, 159720, Note_on_c, 8, 76, 101
10, 159780, Note_on_c, 8, 76, 0
10, 159840, Note_on_c, 8, 76, 104
10, 159900, Note_on_c, 8, 76, 0
10, 159900, Note_on_c, 8, 74, 105
10, 159960, Note_on_c, 8, 74, 0
10, 159960, Note_on_c, 8, 72, 90
10, 160020, Note_on_c, 8, 72, 0
10, 160080, Note_on_c, 8, 72, 89
10, 160140, Note_on_c, 8, 72, 0
10, 160140, Note_on_c, 8, 71, 99
10, 160200, Note_on_c, 8, 71, 0
10, 160200, Note_on_c, 8, 69, 105
10, 160260, Note_on_c, 8, 69, 0
10, 160290, Note_on_c, 8, 69, 104
10, 160320, Note_on_c, 8, 69, 0
10, 160320, Note_on_c, 8, 67, 99
10, 160380, Note_on_c, 8, 67, 0
10, 160440, Note_on_c, 8, 67, 101
10, 160500, Note_on_c, 8, 67, 0
10, 160560, Note_on_c, 8, 69, 99
10, 160620, Note_on_c, 8, 69, 0
10, 160680, Note_on_c, 8, 66, 99
10, 160740, Note_on_c, 8, 66, 0
10, 160800, Note_on_c, 8, 67, 98
10, 160860, Note_on_c, 8, 67, 0
10, 160920, Note_on_c, 8, 67, 98
10, 160980, Note_on_c, 8, 67, 0
10, 161040, Note_on_c, 8, 69, 104
10, 161100, Note_on_c, 8, 69, 0
10, 161160, Note_on_c, 8, 66, 95
10, 161220, Note_on_c, 8, 66, 0
10, 161280, Note_on_c, 8, 67, 99
10, 161640, Note_on_c, 8, 67, 0
10, 161640, Note_on_c, 8, 67, 99
10, 161760, Note_on_c, 8, 67, 0
10, 161760, Note_on_c, 8, 67, 95
10, 161820, Note_on_c, 8, 67, 0
10, 161820, Note_on_c, 8, 69, 95
10, 161880, Note_on_c, 8, 69, 0
10, 161880, Note_on_c, 8, 71, 99
10, 161940, Note_on_c, 8, 71, 0
10, 162000, Note_on_c, 8, 71, 99
10, 162060, Note_on_c, 8, 71, 0
10, 162060, Note_on_c, 8, 72, 89
10, 162120, Note_on_c, 8, 72, 0
10, 162120, Note_on_c, 8, 74, 104
10, 162180, Note_on_c, 8, 74, 0
10, 162240, Note_on_c, 8, 74, 115
10, 162600, Note_on_c, 8, 74, 0
10, 162600, Note_on_c, 8, 71, 94
10, 162720, Note_on_c, 8, 71, 0
10, 162720, Note_on_c, 8, 71, 99
10, 162780, Note_on_c, 8, 71, 0
10, 162780, Note_on_c, 8, 72, 85
10, 162840, Note_on_c, 8, 72, 0
10, 162840, Note_on_c, 8, 74, 94
10, 162900, Note_on_c, 8, 74, 0
10, 162960, Note_on_c, 8, 74, 105
10, 163020, Note_on_c, 8, 74, 0
10, 163020, Note_on_c, 8, 76, 99
10, 163080, Note_on_c, 8, 76, 0
10, 163080, Note_on_c, 8, 77, 95
10, 163140, Note_on_c, 8, 77, 0
10, 163200, Note_on_c, 8, 77, 119
10, 163560, Note_on_c, 8, 77, 0
10, 163560, Note_on_c, 8, 81, 99
10, 163680, Note_on_c, 8, 81, 0
10, 163680, Note_on_c, 8, 81, 98
10, 163740, Note_on_c, 8, 81, 0
10, 163740, Note_on_c, 8, 79, 93
10, 163800, Note_on_c, 8, 79, 0
10, 163800, Note_on_c, 8, 77, 119
10, 163860, Note_on_c, 8, 77, 0
10, 163920, Note_on_c, 8, 77, 94
10, 163980, Note_on_c, 8, 77, 0
10, 164040, Note_on_c, 8, 81, 94
10, 164100, Note_on_c, 8, 81, 0
10, 164160, Note_on_c, 8, 81, 101
10, 164220, Note_on_c, 8, 81, 0
10, 164220, Note_on_c, 8, 79, 93
10, 164280, Note_on_c, 8, 79, 0
10, 164280, Note_on_c, 8, 77, 123
10, 164340, Note_on_c, 8, 77, 0
10, 164400, Note_on_c, 8, 77, 98
10, 164460, Note_on_c, 8, 77, 0
10, 164520, Note_on_c, 8, 81, 99
10, 164580, Note_on_c, 8, 81, 0
10, 164640, Note_on_c, 8, 81, 99
10, 164700, Note_on_c, 8, 81, 0
10, 164700, Note_on_c, 8, 79, 95
10, 164760, Note_on_c, 8, 79, 0
10, 164760, Note_on_c, 8, 77, 98
10, 164820, Note_on_c, 8, 77, 0
10, 164880, Note_on_c, 8, 77, 95
10, 164940, Note_on_c, 8, 77, 0
10, 164940, Note_on_c, 8, 76, 101
10, 165000, Note_on_c, 8, 76, 0
10, 165000, Note_on_c, 8, 74, 104
10, 165060, Note_on_c, 8, 74, 0
10, 165090, Note_on_c, 8, 74, 112
10, 165120, Note_on_c, 8, 74, 0
10, 165120, Note_on_c, 8, 72, 93
10, 165180, Note_on_c, 8, 72, 0
10, 165240, Note_on_c, 8, 72, 84
10, 165300, Note_on_c, 8, 72, 0
10, 165360, Note_on_c, 8, 74, 104
10, 165420, Note_on_c, 8, 74, 0
10, 165480, Note_on_c, 8, 71, 104
10, 165540, Note_on_c, 8, 71, 0
10, 165600, Note_on_c, 8, 72, 80
10, 165600, Note_on_c, 8, 64, 85
10, 165600, Note_on_c, 8, 55, 94
10, 165840, Note_on_c, 8, 55, 0
10, 165840, Note_on_c, 8, 64, 0
10, 165840, Note_on_c, 8, 72, 0
10, 166080, Note_on_c, 8, 83, 94
10, 166080, Note_on_c, 8, 74, 98
10, 166080, Note_on_c, 8, 67, 101
10, 166320, Note_on_c, 8, 67, 0
10, 166320, Note_on_c, 8, 74, 0
10, 166320, Note_on_c, 8, 83, 0
10, 166560, Note_on_c, 8, 84, 125
10, 166620, Note_on_c, 8, 84, 0
10, 166620, Note_on_c, 8, 83, 117
10, 166680, Note_on_c, 8, 83, 0
10, 166680, Note_on_c, 8, 81, 119
10, 166740, Note_on_c, 8, 81, 0
10, 166740, Note_on_c, 8, 79, 123
10, 166800, Note_on_c, 8, 79, 0
10, 166800, Note_on_c, 8, 77, 119
10, 166860, Note_on_c, 8, 77, 0
10, 166860, Note_on_c, 8, 76, 119
10, 166920, Note_on_c, 8, 76, 0
10, 166920, Note_on_c, 8, 74, 119
10, 166980, Note_on_c, 8, 74, 0
10, 166980, Note_on_c, 8, 72, 110
10, 167040, Note_on_c, 8, 72, 0
10, 167040, Note_on_c, 8, 74, 119
10, 167100, Note_on_c, 8, 74, 0
10, 167160, Note_on_c, 8, 76, 123
10, 167220, Note_on_c, 8, 76, 0
10, 167280, Note_on_c, 8, 77, 125
10, 167340, Note_on_c, 8, 77, 0
10, 167400, Note_on_c, 8, 71, 125
10, 167460, Note_on_c, 8, 71, 0
10, 167520, Note_on_c, 8, 72, 112
10, 167580, Note_on_c, 8, 72, 0
10, 167580, Note_on_c, 8, 72, 110
10, 167640, Note_on_c, 8, 72, 0
10, 167640, Note_on_c, 8, 74, 119
10, 167700, Note_on_c, 8, 74, 0
10, 167700, Note_on_c, 8, 74, 123
10, 167760, Note_on_c, 8, 74, 0
10, 167760, Note_on_c, 8, 72, 112
10, 167820, Note_on_c, 8, 72, 0
10, 167820, Note_on_c, 8, 72, 110
10, 167880, Note_on_c, 8, 72, 0
10, 167880, Note_on_c, 8, 74, 119
10, 167940, Note_on_c, 8, 74, 0
10, 167940, Note_on_c, 8, 74, 119
10, 168000, Note_on_c, 8, 74, 0
10, 168000, Note_on_c, 8, 72, 119
10, 168240, Note_on_c, 8, 72, 0
10, 171360, Note_on_c, 8, 79, 57
10, 171720, Note_on_c, 8, 79, 0
10, 171720, Note_on_c, 8, 81, 54
10, 171780, Note_on_c, 8, 81, 0
10, 171780, Note_on_c, 8, 83, 67
10, 171840, Note_on_c, 8, 83, 0
10, 171840, Note_on_c, 8, 84, 76
10, 171900, Note_on_c, 8, 84, 0
10, 173280, Note_on_c, 8, 79, 70
10, 173640, Note_on_c, 8, 79, 0
10, 173640, Note_on_c, 8, 81, 74
10, 173700, Note_on_c, 8, 81, 0
10, 173700, Note_on_c, 8, 83, 70
10, 173760, Note_on_c, 8, 83, 0
10, 173760, Note_on_c, 8, 84, 71
10, 173820, Note_on_c, 8, 84, 0
10, 175200, Note_on_c, 8, 75, 73
10, 175560, Note_on_c, 8, 75, 0
10, 175560, Note_on_c, 8, 77, 59
10, 175620, Note_on_c, 8, 77, 0
10, 175620, Note_on_c, 8, 79, 61
10, 175680, Note_on_c, 8, 79, 0
10, 175680, Note_on_c, 8, 80, 65
10, 175740, Note_on_c, 8, 80, 0
10, 176160, Note_on_c, 8, 72, 65
10, 176520, Note_on_c, 8, 72, 0
10, 176520, Note_on_c, 8, 74, 58
10, 176580, Note_on_c, 8, 74, 0
10, 176580, Note_on_c, 8, 76, 68
10, 176640, Note_on_c, 8, 76, 0
10, 176640, Note_on_c, 8, 77, 61
10, 176700, Note_on_c, 8, 77, 0
10, 179760, Note_on_c, 8, 71, 68
10, 180000, Note_on_c, 8, 71, 0
10, 180000, Note_on_c, 8, 72, 67
10, 180120, Note_on_c, 8, 72, 0
10, 180240, Note_on_c, 8, 63, 61
10, 180360, Note_on_c, 8, 63, 0
10, 180480, Note_on_c, 8, 62, 54
10, 180720, Note_on_c, 8, 62, 0
10, 181440, Note_on_c, 8, 67, 61
10, 182160, Note_on_c, 8, 67, 0
10, 182280, Note_on_c, 8, 72, 53
10, 182400, Note_on_c, 8, 72, 0
10, 182400, Note_on_c, 8, 71, 67
10, 182460, Note_on_c, 8, 71, 0
10, 182520, Note_on_c, 8, 72, 61
10, 182580, Note_on_c, 8, 72, 0
10, 182640, Note_on_c, 8, 71, 59
10, 182700, Note_on_c, 8, 71, 0
10, 182760, Note_on_c, 8, 72, 70
10, 182820, Note_on_c, 8, 72, 0
10, 182880, Note_on_c, 8, 71, 65
10, 183120, Note_on_c, 8, 71, 0
10, 183360, Note_on_c, 8, 64, 43
10, 183360, Note_on_c, 8, 55, 45
10, 183480, Note_on_c, 8, 55, 0
10, 183480, Note_on_c, 8, 64, 0
10, 183480, Note_on_c, 8, 64, 43
10, 183480, Note_on_c, 8, 55, 43
10, 183600, Note_on_c, 8, 55, 0
10, 183600, Note_on_c, 8, 64, 0
10, 183600, Note_on_c, 8, 64, 45
10, 183600, Note_on_c, 8, 55, 51
10, 183720, Note_on_c, 8, 55, 0
10, 183720, Note_on_c, 8, 64, 0
10, 183720, Note_on_c, 8, 55, 77
10, 183720, Note_on_c, 8, 64, 70
10, 183840, Note_on_c, 8, 64, 0
10, 183840, Note_on_c, 8, 55, 0
10, 183840, Note_on_c, 8, 65, 53
10, 183840, Note_on_c, 8, 55, 58
10, 183960, Note_on_c, 8, 55, 0
10, 183960, Note_on_c, 8, 65, 0
10, 183960, Note_on_c, 8, 65, 57
10, 183960, Note_on_c, 8, 55, 51
10, 184080, Note_on_c, 8, 55, 0
10, 184080, Note_on_c, 8, 65, 0
10, 184080, Note_on_c, 8, 65, 66
10, 184080, Note_on_c, 8, 55, 70
10, 184200, Note_on_c, 8, 55, 0
10, 184200, Note_on_c, 8, 65, 0
10, 184200, Note_on_c, 8, 55, 78
10, 184200, Note_on_c, 8, 65, 82
10, 184320, Note_on_c, 8, 65, 0
10, 184320, Note_on_c, 8, 55, 0
10, 184320, Note_on_c, 8, 64, 42
10, 184320, Note_on_c, 8, 55, 47
10, 184440, Note_on_c, 8, 55, 0
10, 184440, Note_on_c, 8, 64, 0
10, 184440, Note_on_c, 8, 64, 46
10, 184440, Note_on_c, 8, 55, 52
10, 184560, Note_on_c, 8, 55, 0
10, 184560, Note_on_c, 8, 64, 0
10, 184560, Note_on_c, 8, 64, 53
10, 184560, Note_on_c, 8, 55, 55
10, 184680, Note_on_c, 8, 55, 0
10, 184680, Note_on_c, 8, 64, 0
10, 184680, Note_on_c, 8, 55, 85
10, 184680, Note_on_c, 8, 64, 84
10, 184800, Note_on_c, 8, 64, 0
10, 184800, Note_on_c, 8, 55, 0
10, 184800, Note_on_c, 8, 65, 45
10, 184800, Note_on_c, 8, 55, 45
10, 184920, Note_on_c, 8, 55, 0
10, 184920, Note_on_c, 8, 65, 0
10, 184920, Note_on_c, 8, 65, 50
10, 184920, Note_on_c, 8, 55, 56
10, 185040, Note_on_c, 8, 55, 0
10, 185040, Note_on_c, 8, 65, 0
10, 185040, Note_on_c, 8, 65, 69
10, 185040, Note_on_c, 8, 55, 65
10, 185160, Note_on_c, 8, 55, 0
10, 185160, Note_on_c, 8, 65, 0
10, 185160, Note_on_c, 8, 67, 73
10, 185280, Note_on_c, 8, 67, 0
10, 185280, Note_on_c, 8, 77, 71
10, 185340, Note_on_c, 8, 77, 0
10, 185400, Note_on_c, 8, 77, 65
10, 185460, Note_on_c, 8, 77, 0
10, 185640, Note_on_c, 8, 77, 73
10, 185760, Note_on_c, 8, 77, 0
10, 185760, Note_on_c, 8, 76, 73
10, 185820, Note_on_c, 8, 76, 0
10, 185880, Note_on_c, 8, 76, 73
10, 185940, Note_on_c, 8, 76, 0
10, 186120, Note_on_c, 8, 76, 82
10, 186180, Note_on_c, 8, 76, 0
10, 186240, Note_on_c, 8, 76, 80
10, 186360, Note_on_c, 8, 76, 0
10, 186360, Note_on_c, 8, 74, 76
10, 186480, Note_on_c, 8, 74, 0
10, 186480, Note_on_c, 8, 74, 80
10, 186600, Note_on_c, 8, 74, 0
10, 186600, Note_on_c, 8, 72, 65
10, 186720, Note_on_c, 8, 72, 0
10, 186720, Note_on_c, 8, 71, 76
10, 186960, Note_on_c, 8, 71, 0
10, 186960, Note_on_c, 8, 74, 59
10, 187080, Note_on_c, 8, 74, 0
10, 187200, Note_on_c, 8, 76, 50
10, 187440, Note_on_c, 8, 76, 0
10, 187560, Note_on_c, 8, 76, 44
10, 187680, Note_on_c, 8, 76, 0
10, 187680, Note_on_c, 8, 77, 45
10, 187920, Note_on_c, 8, 77, 0
10, 188040, Note_on_c, 8, 77, 46
10, 188160, Note_on_c, 8, 77, 0
10, 188160, Note_on_c, 8, 76, 61
10, 188400, Note_on_c, 8, 76, 0
10, 188520, Note_on_c, 8, 76, 64
10, 188640, Note_on_c, 8, 76, 0
10, 188640, Note_on_c, 8, 77, 48
10, 188880, Note_on_c, 8, 77, 0
10, 192480, Note_on_c, 8, 60, 64
10, 192600, Note_on_c, 8, 60, 0
10, 192600, Note_on_c, 8, 72, 65
10, 192720, Note_on_c, 8, 72, 0
10, 192720, Note_on_c, 8, 72, 69
10, 192840, Note_on_c, 8, 72, 0
10, 192840, Note_on_c, 8, 72, 63
10, 192960, Note_on_c, 8, 72, 0
10, 192960, Note_on_c, 8, 72, 64
10, 193080, Note_on_c, 8, 72, 0
10, 193080, Note_on_c, 8, 72, 65
10, 193200, Note_on_c, 8, 72, 0
10, 193200, Note_on_c, 8, 73, 46
10, 193260, Note_on_c, 8, 73, 0
10, 193260, Note_on_c, 8, 72, 61
10, 193320, Note_on_c, 8, 72, 0
10, 193320, Note_on_c, 8, 70, 59
10, 193380, Note_on_c, 8, 70, 0
10, 193380, Note_on_c, 8, 72, 64
10, 193440, Note_on_c, 8, 72, 0
10, 193440, Note_on_c, 8, 73, 62
10, 193560, Note_on_c, 8, 73, 0
10, 193560, Note_on_c, 8, 72, 66
10, 193680, Note_on_c, 8, 72, 0
10, 193680, Note_on_c, 8, 70, 69
10, 193800, Note_on_c, 8, 70, 0
10, 193800, Note_on_c, 8, 68, 81
10, 193920, Note_on_c, 8, 68, 0
10, 193920, Note_on_c, 8, 67, 81
10, 194040, Note_on_c, 8, 67, 0
10, 194040, Note_on_c, 8, 65, 84
10, 194160, Note_on_c, 8, 65, 0
10, 194160, Note_on_c, 8, 67, 80
10, 194280, Note_on_c, 8, 67, 0
10, 194280, Note_on_c, 8, 63, 76
10, 194400, Note_on_c, 8, 63, 0
10, 194400, Note_on_c, 8, 68, 67
10, 194640, Note_on_c, 8, 68, 0
10, 203520, Note_on_c, 8, 67, 61
10, 204000, Note_on_c, 8, 67, 0
10, 204000, Note_on_c, 8, 72, 45
10, 204480, Note_on_c, 8, 72, 0
10, 204480, Note_on_c, 8, 69, 58
10, 204960, Note_on_c, 8, 69, 0
10, 204960, Note_on_c, 8, 74, 73
10, 205440, Note_on_c, 8, 74, 0
10, 205440, Note_on_c, 8, 72, 65
10, 205920, Note_on_c, 8, 72, 0
10, 205920, Note_on_c, 8, 71, 58
10, 206400, Note_on_c, 8, 71, 0
10, 206640, Note_on_c, 8, 67, 74
10, 206760, Note_on_c, 8, 67, 0
10, 207120, Note_on_c, 8, 72, 53
10, 207240, Note_on_c, 8, 72, 0
10, 207600, Note_on_c, 8, 69, 58
10, 207720, Note_on_c, 8, 69, 0
10, 208080, Note_on_c, 8, 74, 68
10, 208200, Note_on_c, 8, 74, 0
10, 208560, Note_on_c, 8, 72, 65
10, 208680, Note_on_c, 8, 72, 0
10, 209040, Note_on_c, 8, 71, 72
10, 209160, Note_on_c, 8, 71, 0
10, 211200, Note_on_c, 8, 60, 65
10, 211260, Note_on_c, 8, 60, 0
10, 211260, Note_on_c, 8, 72, 47
10, 211320, Note_on_c, 8, 72, 0
10, 211320, Note_on_c, 8, 72, 58
10, 211380, Note_on_c, 8, 72, 0
10, 211380, Note_on_c, 8, 72, 73
10, 211440, Note_on_c, 8, 72, 0
10, 211440, Note_on_c, 8, 72, 84
10, 211500, Note_on_c, 8, 72, 0
10, 211500, Note_on_c, 8, 72, 78
10, 211560, Note_on_c, 8, 72, 0
10, 211560, Note_on_c, 8, 72, 80
10, 211620, Note_on_c, 8, 72, 0
10, 211620, Note_on_c, 8, 72, 77
10, 211680, Note_on_c, 8, 72, 0
10, 211680, Note_on_c, 8, 62, 78
10, 211740, Note_on_c, 8, 62, 0
10, 211740, Note_on_c, 8, 74, 89
10, 211800, Note_on_c, 8, 74, 0
10, 211800, Note_on_c, 8, 74, 85
10, 211860, Note_on_c, 8, 74, 0
10, 211860, Note_on_c, 8, 74, 84
10, 211920, Note_on_c, 8, 74, 0
10, 211920, Note_on_c, 8, 74, 89
10, 211980, Note_on_c, 8, 74, 0
10, 211980, Note_on_c, 8, 74, 89
10, 212040, Note_on_c, 8, 74, 0
10, 212040, Note_on_c, 8, 74, 89
10, 212100, Note_on_c, 8, 74, 0
10, 212100, Note_on_c, 8, 74, 90
10, 212160, Note_on_c, 8, 74, 0
10, 212160, Note_on_c, 8, 64, 89
10, 212220, Note_on_c, 8, 64, 0
10, 212220, Note_on_c, 8, 76, 64
10, 212280, Note_on_c, 8, 76, 0
10, 212280, Note_on_c, 8, 76, 67
10, 212340, Note_on_c, 8, 76, 0
10, 212340, Note_on_c, 8, 76, 74
10, 212400, Note_on_c, 8, 76, 0
10, 212400, Note_on_c, 8, 76, 80
10, 212460, Note_on_c, 8, 76, 0
10, 212460, Note_on_c, 8, 76, 71
10, 212520, Note_on_c, 8, 76, 0
10, 212520, Note_on_c, 8, 76, 76
10, 212580, Note_on_c, 8, 76, 0
10, 212580, Note_on_c, 8, 76, 74
10, 212640, Note_on_c, 8, 76, 0
10, 212640, Note_on_c, 8, 65, 49
10, 212700, Note_on_c, 8, 65, 0
10, 212700, Note_on_c, 8, 77, 76
10, 212760, Note_on_c, 8, 77, 0
10, 212760, Note_on_c, 8, 77, 71
10, 212820, Note_on_c, 8, 77, 0
10, 212820, Note_on_c, 8, 77, 71
10, 212880, Note_on_c, 8, 77, 0
10, 212880, Note_on_c, 8, 77, 64
10, 212940, Note_on_c, 8, 77, 0
10, 212940, Note_on_c, 8, 77, 68
10, 213000, Note_on_c, 8, 77, 0
10, 213000, Note_on_c, 8, 77, 71
10, 213060, Note_on_c, 8, 77, 0
10, 213060, Note_on_c, 8, 77, 71
10, 213120, Note_on_c, 8, 77, 0
10, 213120, Note_on_c, 8, 67, 64
10, 213180, Note_on_c, 8, 67, 0
10, 213180, Note_on_c, 8, 79, 41
10, 213240, Note_on_c, 8, 79, 0
10, 213240, Note_on_c, 8, 79, 64
10, 213300, Note_on_c, 8, 79, 0
10, 213300, Note_on_c, 8, 79, 67
10, 213360, Note_on_c, 8, 79, 0
10, 213360, Note_on_c, 8, 79, 68
10, 213420, Note_on_c, 8, 79, 0
10, 213420, Note_on_c, 8, 79, 67
10, 213480, Note_on_c, 8, 79, 0
10, 213480, Note_on_c, 8, 79, 69
10, 213540, Note_on_c, 8, 79, 0
10, 213540, Note_on_c, 8, 79, 67
10, 213600, Note_on_c, 8, 79, 0
10, 213600, Note_on_c, 8, 69, 80
10, 213660, Note_on_c, 8, 69, 0
10, 213660, Note_on_c, 8, 81, 73
10, 213720, Note_on_c, 8, 81, 0
10, 213720, Note_on_c, 8, 81, 65
10, 213780, Note_on_c, 8, 81, 0
10, 213780, Note_on_c, 8, 81, 69
10, 213840, Note_on_c, 8, 81, 0
10, 213840, Note_on_c, 8, 81, 71
10, 213900, Note_on_c, 8, 81, 0
10, 213900, Note_on_c, 8, 81, 71
10, 213960, Note_on_c, 8, 81, 0
10, 213960, Note_on_c, 8, 81, 73
10, 214020, Note_on_c, 8, 81, 0
10, 214020, Note_on_c, 8, 81, 74
10, 214080, Note_on_c, 8, 81, 0
10, 214080, Note_on_c, 8, 71, 84
10, 214140, Note_on_c, 8, 71, 0
10, 214140, Note_on_c, 8, 83, 73
10, 214200, Note_on_c, 8, 83, 0
10, 214200, Note_on_c, 8, 83, 72
10, 214260, Note_on_c, 8, 83, 0
10, 214260, Note_on_c, 8, 83, 68
10, 214320, Note_on_c, 8, 83, 0
10, 214320, Note_on_c, 8, 83, 68
10, 214380, Note_on_c, 8, 83, 0
10, 214380, Note_on_c, 8, 83, 71
10, 214440, Note_on_c, 8, 83, 0
10, 214440, Note_on_c, 8, 83, 69
10, 214500, Note_on_c, 8, 83, 0
10, 214500, Note_on_c, 8, 83, 72
10, 214560, Note_on_c, 8, 83, 0
10, 214560, Note_on_c, 8, 72, 63
10, 214620, Note_on_c, 8, 72, 0
10, 214620, Note_on_c, 8, 84, 73
10, 214680, Note_on_c, 8, 84, 0
10, 214680, Note_on_c, 8, 84, 76
10, 214740, Note_on_c, 8, 84, 0
10, 214740, Note_on_c, 8, 84, 76
10, 214800, Note_on_c, 8, 84, 0
10, 214800, Note_on_c, 8, 73, 73
10, 214860, Note_on_c, 8, 73, 0
10, 214860, Note_on_c, 8, 85, 67
10, 214920, Note_on_c, 8, 85, 0
10, 214920, Note_on_c, 8, 85, 61
10, 214980, Note_on_c, 8, 85, 0
10, 214980, Note_on_c, 8, 85, 64
10, 215040, Note_on_c, 8, 85, 0
10, 215040, Note_on_c, 8, 74, 82
10, 215100, Note_on_c, 8, 74, 0
10, 215100, Note_on_c, 8, 86, 85
10, 215160, Note_on_c, 8, 86, 0
10, 215160, Note_on_c, 8, 86, 95
10, 215220, Note_on_c, 8, 86, 0
10, 215220, Note_on_c, 8, 86, 94
10, 215280, Note_on_c, 8, 86, 0
10, 215280, Note_on_c, 8, 86, 90
10, 215340, Note_on_c, 8, 86, 0
10, 215340, Note_on_c, 8, 86, 95
10, 215400, Note_on_c, 8, 86, 0
10, 215400, Note_on_c, 8, 86, 90
10, 215460, Note_on_c, 8, 86, 0
10, 215460, Note_on_c, 8, 86, 94
10, 215520, Note_on_c, 8, 86, 0
10, 215520, Note_on_c, 8, 75, 77
10, 215580, Note_on_c, 8, 75, 0
10, 215580, Note_on_c, 8, 87, 89
10, 215640, Note_on_c, 8, 87, 0
10, 215640, Note_on_c, 8, 87, 89
10, 215700, Note_on_c, 8, 87, 0
10, 215700, Note_on_c, 8, 87, 89
10, 215760, Note_on_c, 8, 87, 0
10, 215760, Note_on_c, 8, 87, 84
10, 215820, Note_on_c, 8, 87, 0
10, 215820, Note_on_c, 8, 87, 85
10, 215880, Note_on_c, 8, 87, 0
10, 215880, Note_on_c, 8, 87, 86
10, 215940, Note_on_c, 8, 87, 0
10, 215940, Note_on_c, 8, 87, 89
10, 216000, Note_on_c, 8, 87, 0
10, 216000, Note_on_c, 8, 76, 93
10, 216060, Note_on_c, 8, 76, 0
10, 216060, Note_on_c, 8, 88, 84
10, 216120, Note_on_c, 8, 88, 0
10, 216120, Note_on_c, 8, 88, 76
10, 216180, Note_on_c, 8, 88, 0
10, 216180, Note_on_c, 8, 88, 85
10, 216240, Note_on_c, 8, 88, 0
10, 216240, Note_on_c, 8, 89, 81
10, 216300, Note_on_c, 8, 89, 0
10, 216300, Note_on_c, 8, 89, 81
10, 216360, Note_on_c, 8, 89, 0
10, 216360, Note_on_c, 8, 89, 73
10, 216420, Note_on_c, 8, 89, 0
10, 216420, Note_on_c, 8, 89, 86
10, 216480, Note_on_c, 8, 89, 0
10, 216480, Note_on_c, 8, 88, 86
10, 216540, Note_on_c, 8, 88, 0
10, 216540, Note_on_c, 8, 88, 89
10, 216600, Note_on_c, 8, 88, 0
10, 216600, Note_on_c, 8, 88, 84
10, 216660, Note_on_c, 8, 88, 0
10, 216660, Note_on_c, 8, 88, 90
10, 216720, Note_on_c, 8, 88, 0
10, 216720, Note_on_c, 8, 87, 98
10, 216780, Note_on_c, 8, 87, 0
10, 216780, Note_on_c, 8, 87, 81
10, 216840, Note_on_c, 8, 87, 0
10, 216840, Note_on_c, 8, 87, 76
10, 216900, Note_on_c, 8, 87, 0
10, 216900, Note_on_c, 8, 87, 77
10, 216960, Note_on_c, 8, 87, 0
10, 216960, Note_on_c, 8, 88, 81
10, 217020, Note_on_c, 8, 88, 0
10, 217020, Note_on_c, 8, 88, 84
10, 217080, Note_on_c, 8, 88, 0
10, 217080, Note_on_c, 8, 88, 81
10, 217140, Note_on_c, 8, 88, 0
10, 217140, Note_on_c, 8, 88, 85
10, 217200, Note_on_c, 8, 88, 0
10, 217200, Note_on_c, 8, 89, 85
10, 217260, Note_on_c, 8, 89, 0
10, 217260, Note_on_c, 8, 89, 76
10, 217320, Note_on_c, 8, 89, 0
10, 217320, Note_on_c, 8, 89, 72
10, 217380, Note_on_c, 8, 89, 0
10, 217380, Note_on_c, 8, 89, 80
10, 217440, Note_on_c, 8, 89, 0
10, 217440, Note_on_c, 8, 88, 86
10, 217500, Note_on_c, 8, 88, 0
10, 217500, Note_on_c, 8, 88, 86
10, 217560, Note_on_c, 8, 88, 0
10, 217560, Note_on_c, 8, 88, 82
10, 217620, Note_on_c, 8, 88, 0
10, 217620, Note_on_c, 8, 88, 89
10, 217680, Note_on_c, 8, 88, 0
10, 217680, Note_on_c, 8, 87, 99
10, 217740, Note_on_c, 8, 87, 0
10, 217740, Note_on_c, 8, 87, 76
10, 217800, Note_on_c, 8, 87, 0
10, 217800, Note_on_c, 8, 87, 65
10, 217860, Note_on_c, 8, 87, 0
10, 217860, Note_on_c, 8, 87, 65
10, 217920, Note_on_c, 8, 87, 0
10, 217920, Note_on_c, 8, 88, 80
10, 217980, Note_on_c, 8, 88, 0
10, 217980, Note_on_c, 8, 88, 72
10, 218040, Note_on_c, 8, 88, 0
10, 218040, Note_on_c, 8, 88, 72
10, 218100, Note_on_c, 8, 88, 0
10, 218100, Note_on_c, 8, 88, 80
10, 218160, Note_on_c, 8, 88, 0
10, 218160, Note_on_c, 8, 87, 99
10, 218220, Note_on_c, 8, 87, 0
10, 218220, Note_on_c, 8, 87, 73
10, 218280, Note_on_c, 8, 87, 0
10, 218280, Note_on_c, 8, 87, 78
10, 218340, Note_on_c, 8, 87, 0
10, 218340, Note_on_c, 8, 87, 74
10, 218400, Note_on_c, 8, 87, 0
10, 218400, Note_on_c, 8, 88, 93
10, 218460, Note_on_c, 8, 88, 0
10, 218460, Note_on_c, 8, 88, 84
10, 218520, Note_on_c, 8, 88, 0
10, 218520, Note_on_c, 8, 88, 90
10, 218580, Note_on_c, 8, 88, 0
10, 218580, Note_on_c, 8, 88, 86
10, 218640, Note_on_c, 8, 88, 0
10, 218640, Note_on_c, 8, 87, 105
10, 218700, Note_on_c, 8, 87, 0
10, 218700, Note_on_c, 8, 87, 89
10, 218760, Note_on_c, 8, 87, 0
10, 218760, Note_on_c, 8, 87, 84
10, 218820, Note_on_c, 8, 87, 0
10, 218820, Note_on_c, 8, 87, 85
10, 218880, Note_on_c, 8, 87, 0
10, 218880, Note_on_c, 8, 88, 110
10, 220320, Note_on_c, 8, 88, 0
10, 227520, Note_on_c, 8, 71, 57
10, 228960, Note_on_c, 8, 71, 0
10, 228960, Note_on_c, 8, 71, 62
10, 230400, Note_on_c, 8, 71, 0
10, 230400, Note_on_c, 8, 66, 62
10, 230640, Note_on_c, 8, 66, 0
10, 230880, Note_on_c, 8, 66, 63
10, 231120, Note_on_c, 8, 66, 0
10, 231360, Note_on_c, 8, 66, 62
10, 231480, Note_on_c, 8, 66, 0
10, 231600, Note_on_c, 8, 66, 62
10, 231720, Note_on_c, 8, 66, 0
10, 231840, Note_on_c, 8, 66, 63
10, 231960, Note_on_c, 8, 66, 0
10, 232080, Note_on_c, 8, 65, 68
10, 232200, Note_on_c, 8, 65, 0
10, 232320, Note_on_c, 8, 66, 68
10, 232440, Note_on_c, 8, 66, 0
10, 232560, Note_on_c, 8, 65, 54
10, 232680, Note_on_c, 8, 65, 0
10, 232800, Note_on_c, 8, 66, 62
10, 233040, Note_on_c, 8, 66, 0
10, 233760, Note_on_c, 8, 66, 68
10, 233820, Note_on_c, 8, 66, 0
10, 233820, Note_on_c, 8, 65, 52
10, 233880, Note_on_c, 8, 65, 0
10, 233880, Note_on_c, 8, 66, 68
10, 233940, Note_on_c, 8, 66, 0
10, 233940, Note_on_c, 8, 65, 46
10, 234000, Note_on_c, 8, 65, 0
10, 234000, Note_on_c, 8, 66, 71
10, 234120, Note_on_c, 8, 66, 0
10, 234720, Note_on_c, 8, 66, 43
10, 234960, Note_on_c, 8, 66, 0
10, 235200, Note_on_c, 8, 66, 52
10, 235440, Note_on_c, 8, 66, 0
10, 235680, Note_on_c, 8, 66, 45
10, 235920, Note_on_c, 8, 66, 0
10, 236160, Note_on_c, 8, 66, 62
10, 236400, Note_on_c, 8, 66, 0
10, 236640, Note_on_c, 8, 67, 62
10, 236880, Note_on_c, 8, 67, 0
10, 237120, Note_on_c, 8, 67, 61
10, 237360, Note_on_c, 8, 67, 0
10, 238800, Note_on_c, 8, 65, 57
10, 238920, Note_on_c, 8, 65, 0
10, 239040, Note_on_c, 8, 62, 50
10, 239160, Note_on_c, 8, 62, 0
10, 239280, Note_on_c, 8, 59, 49
10, 239400, Note_on_c, 8, 59, 0
10, 239520, Note_on_c, 8, 55, 51
10, 240960, Note_on_c, 8, 55, 0
10, 241320, Note_on_c, 8, 76, 104
10, 241440, Note_on_c, 8, 76, 0
10, 241440, Note_on_c, 8, 76, 99
10, 241500, Note_on_c, 8, 76, 0
10, 241500, Note_on_c, 8, 74, 104
10, 241560, Note_on_c, 8, 74, 0
10, 241560, Note_on_c, 8, 72, 84
10, 241620, Note_on_c, 8, 72, 0
10, 241680, Note_on_c, 8, 72, 89
10, 241740, Note_on_c, 8, 72, 0
10, 241800, Note_on_c, 8, 76, 99
10, 241860, Note_on_c, 8, 76, 0
10, 241920, Note_on_c, 8, 76, 104
10, 241980, Note_on_c, 8, 76, 0
10, 241980, Note_on_c, 8, 74, 104
10, 242040, Note_on_c, 8, 74, 0
10, 242040, Note_on_c, 8, 72, 89
10, 242100, Note_on_c, 8, 72, 0
10, 242160, Note_on_c, 8, 72, 86
10, 242220, Note_on_c, 8, 72, 0
10, 242280, Note_on_c, 8, 76, 101
10, 242340, Note_on_c, 8, 76, 0
10, 242400, Note_on_c, 8, 76, 104
10, 242460, Note_on_c, 8, 76, 0
10, 242460, Note_on_c, 8, 74, 105
10, 242520, Note_on_c, 8, 74, 0
10, 242520, Note_on_c, 8, 72, 90
10, 242580, Note_on_c, 8, 72, 0
10, 242640, Note_on_c, 8, 72, 89
10, 242700, Note_on_c, 8, 72, 0
10, 242700, Note_on_c, 8, 71, 99
10, 242760, Note_on_c, 8, 71, 0
10, 242760, Note_on_c, 8, 69, 105
10, 242820, Note_on_c, 8, 69, 0
10, 242850, Note_on_c, 8, 69, 104
10, 242880, Note_on_c, 8, 69, 0
10, 242880, Note_on_c, 8, 67, 99
10, 242940, Note_on_c, 8, 67, 0
10, 243000, Note_on_c, 8, 67, 101
10, 243060, Note_on_c, 8, 67, 0
10, 243120, Note_on_c, 8, 69, 99
10, 243180, Note_on_c, 8, 69, 0
10, 243240, Note_on_c, 8, 66, 99
10, 243300, Note_on_c, 8, 66, 0
10, 243360, Note_on_c, 8, 67, 98
10, 243420, Note_on_c, 8, 67, 0
10, 243480, Note_on_c, 8, 67, 98
10, 243540, Note_on_c, 8, 67, 0
10, 243600, Note_on_c, 8, 69, 104
10, 243660, Note_on_c, 8, 69, 0
10, 243720, Note_on_c, 8, 66, 95
10, 243780, Note_on_c, 8, 66, 0
10, 243840, Note_on_c, 8, 67, 99
10, 244200, Note_on_c, 8, 67, 0
10, 244200, Note_on_c, 8, 67, 99
10, 244320, Note_on_c, 8, 67, 0
10, 244320, Note_on_c, 8, 67, 95
10, 244380, Note_on_c, 8, 67, 0
10, 244380, Note_on_c, 8, 69, 95
10, 244440, Note_on_c, 8, 69, 0
10, 244440, Note_on_c, 8, 71, 99
10, 244500, Note_on_c, 8, 71, 0
10, 244560, Note_on_c, 8, 71, 99
10, 244620, Note_on_c, 8, 71, 0
10, 244620, Note_on_c, 8, 72, 89
10, 244680, Note_on_c, 8, 72, 0
10, 244680, Note_on_c, 8, 74, 104
10, 244740, Note_on_c, 8, 74, 0
10, 244800, Note_on_c, 8, 74, 115
10, 245160, Note_on_c, 8, 74, 0
10, 245160, Note_on_c, 8, 71, 94
10, 245280, Note_on_c, 8, 71, 0
10, 245280, Note_on_c, 8, 71, 99
10, 245340, Note_on_c, 8, 71, 0
10, 245340, Note_on_c, 8, 72, 85
10, 245400, Note_on_c, 8, 72, 0
10, 245400, Note_on_c, 8, 74, 94
10, 245460, Note_on_c, 8, 74, 0
10, 245520, Note_on_c, 8, 74, 105
10, 245580, Note_on_c, 8, 74, 0
10, 245580, Note_on_c, 8, 76, 99
10, 245640, Note_on_c, 8, 76, 0
10, 245640, Note_on_c, 8, 77, 95
10, 245700, Note_on_c, 8, 77, 0
10, 245760, Note_on_c, 8, 77, 119
10, 246120, Note_on_c, 8, 77, 0
10, 246120, Note_on_c, 8, 81, 99
10, 246240, Note_on_c, 8, 81, 0
10, 246240, Note_on_c, 8, 81, 98
10, 246300, Note_on_c, 8, 81, 0
10, 246300, Note_on_c, 8, 79, 93
10, 246360, Note_on_c, 8, 79, 0
10, 246360, Note_on_c, 8, 77, 119
10, 246420, Note_on_c, 8, 77, 0
10, 246480, Note_on_c, 8, 77, 94
10, 246540, Note_on_c, 8, 77, 0
10, 246600, Note_on_c, 8, 81, 94
10, 246660, Note_on_c, 8, 81, 0
10, 246720, Note_on_c, 8, 81, 101
10, 246780, Note_on_c, 8, 81, 0
10, 246780, Note_on_c, 8, 79, 93
10, 246840, Note_on_c, 8, 79, 0
10, 246840, Note_on_c, 8, 77, 123
10, 246900, Note_on_c, 8, 77, 0
10, 246960, Note_on_c, 8, 77, 98
10, 247020, Note_on_c, 8, 77, 0
10, 247080, Note_on_c, 8, 81, 99
10, 247140, Note_on_c, 8, 81, 0
10, 247200, Note_on_c, 8, 81, 99
10, 247260, Note_on_c, 8, 81, 0
10, 247260, Note_on_c, 8, 79, 95
10, 247320, Note_on_c, 8, 79, 0
10, 247320, Note_on_c, 8, 77, 98
10, 247380, Note_on_c, 8, 77, 0
10, 247440, Note_on_c, 8, 77, 95
10, 247500, Note_on_c, 8, 77, 0
10, 247500, Note_on_c, 8, 76, 101
10, 247560, Note_on_c, 8, 76, 0
10, 247560, Note_on_c, 8, 74, 104
10, 247620, Note_on_c, 8, 74, 0
10, 247650, Note_on_c, 8, 74, 112
10, 247680, Note_on_c, 8, 74, 0
10, 247680, Note_on_c, 8, 72, 93
10, 247740, Note_on_c, 8, 72, 0
10, 247800, Note_on_c, 8, 72, 84
10, 247860, Note_on_c, 8, 72, 0
10, 247920, Note_on_c, 8, 74, 104
10, 247980, Note_on_c, 8, 74, 0
10, 248040, Note_on_c, 8, 71, 104
10, 248100, Note_on_c, 8, 71, 0
10, 248160, Note_on_c, 8, 72, 80
10, 248160, Note_on_c, 8, 64, 85
10, 248160, Note_on_c, 8, 55, 94
10, 248400, Note_on_c, 8, 55, 0
10, 248400, Note_on_c, 8, 64, 0
10, 248400, Note_on_c, 8, 72, 0
10, 248640, Note_on_c, 8, 83, 94
10, 248640, Note_on_c, 8, 74, 98
10, 248640, Note_on_c, 8, 67, 101
10, 248880, Note_on_c, 8, 67, 0
10, 248880, Note_on_c, 8, 74, 0
10, 248880, Note_on_c, 8, 83, 0
10, 249120, Note_on_c, 8, 84, 125
10, 249180, Note_on_c, 8, 84, 0
10, 249180, Note_on_c, 8, 83, 117
10, 249240, Note_on_c, 8, 83, 0
10, 249240, Note_on_c, 8, 81, 119
10, 249300, Note_on_c, 8, 81, 0
10, 249300, Note_on_c, 8, 79, 123
10, 249360, Note_on_c, 8, 79, 0
10, 249360, Note_on_c, 8, 77, 119
10, 249420, Note_on_c, 8, 77, 0
10, 249420, Note_on_c, 8, 76, 119
10, 249480, Note_on_c, 8, 76, 0
10, 249480, Note_on_c, 8, 74, 119
10, 249540, Note_on_c, 8, 74, 0
10, 249540, Note_on_c, 8, 72, 110
10, 249600, Note_on_c, 8, 72, 0
10, 249600, Note_on_c, 8, 74, 119
10, 249660, Note_on_c, 8, 74, 0
10, 249720, Note_on_c, 8, 76, 123
10, 249780, Note_on_c, 8, 76, 0
10, 249840, Note_on_c, 8, 77, 125
10, 249900, Note_on_c, 8, 77, 0
10, 249960, Note_on_c, 8, 71, 125
10, 250020, Note_on_c, 8, 71, 0
10, 250080, Note_on_c, 8, 72, 112
10, 250140, Note_on_c, 8, 72, 0
10, 250140, Note_on_c, 8, 72, 110
10, 250200, Note_on_c, 8, 72, 0
10, 250200, Note_on_c, 8, 74, 119
10, 250260, Note_on_c, 8, 74, 0
10, 250260, Note_on_c, 8, 74, 123
10, 250320, Note_on_c, 8, 74, 0
10, 250320, Note_on_c, 8, 72, 112
10, 250380, Note_on_c, 8, 72, 0
10, 250380, Note_on_c, 8, 72, 110
10, 250440, Note_on_c, 8, 72, 0
10, 250440, Note_on_c, 8, 74, 119
10, 250500, Note_on_c, 8, 74, 0
10, 250500, Note_on_c, 8, 74, 119
10, 250560, Note_on_c, 8, 74, 0
10, 250560, Note_on_c, 8, 72, 119
10, 250800, Note_on_c, 8, 72, 0
10, 254880, Note_on_c, 8, 64, 68
10, 255120, Note_on_c, 8, 64, 0
10, 255360, Note_on_c, 8, 60, 53
10, 255600, Note_on_c, 8, 60, 0
10, 255840, Note_on_c, 8, 65, 72
10, 256080, Note_on_c, 8, 65, 0
10, 256320, Note_on_c, 8, 62, 68
10, 256560, Note_on_c, 8, 62, 0
10, 258720, Note_on_c, 8, 64, 68
10, 258960, Note_on_c, 8, 64, 0
10, 259200, Note_on_c, 8, 60, 58
10, 259440, Note_on_c, 8, 60, 0
10, 259680, Note_on_c, 8, 65, 53
10, 259920, Note_on_c, 8, 65, 0
10, 260160, Note_on_c, 8, 62, 62
10, 260400, Note_on_c, 8, 62, 0
10, 262080, Note_on_c, 8, 60, 80
10, 262200, Note_on_c, 8, 60, 0
10, 262320, Note_on_c, 8, 79, 98
10, 262560, Note_on_c, 8, 79, 0
10, 262560, Note_on_c, 8, 79, 61
10, 264000, Note_on_c, 8, 79, 0
10, 264000, Note_on_c, 8, 79, 62
10, 264120, Note_on_c, 8, 79, 0
10, 264120, Note_on_c, 8, 71, 65
10, 264180, Note_on_c, 8, 71, 0
10, 264240, Note_on_c, 8, 72, 72
10, 264300, Note_on_c, 8, 72, 0
10, 264360, Note_on_c, 8, 71, 71
10, 264420, Note_on_c, 8, 71, 0
10, 264480, Note_on_c, 8, 72, 76
10, 264540, Note_on_c, 8, 72, 0
10, 264600, Note_on_c, 8, 71, 76
10, 264660, Note_on_c, 8, 71, 0
10, 264720, Note_on_c, 8, 72, 72
10, 264780, Note_on_c, 8, 72, 0
10, 264840, Note_on_c, 8, 74, 73
10, 264900, Note_on_c, 8, 74, 0
10, 264960, Note_on_c, 8, 72, 47
10, 265080, Note_on_c, 8, 72, 0
10, 265920, Note_on_c, 8, 60, 80
10, 266040, Note_on_c, 8, 60, 0
10, 266160, Note_on_c, 8, 79, 98
10, 266400, Note_on_c, 8, 79, 0
10, 266400, Note_on_c, 8, 79, 61
10, 267840, Note_on_c, 8, 79, 0
10, 267840, Note_on_c, 8, 79, 62
10, 267960, Note_on_c, 8, 79, 0
10, 267960, Note_on_c, 8, 80, 72
10, 268020, Note_on_c, 8, 80, 0
10, 268080, Note_on_c, 8, 81, 41
10, 268140, Note_on_c, 8, 81, 0
10, 268200, Note_on_c, 8, 80, 78
10, 268260, Note_on_c, 8, 80, 0
10, 268320, Note_on_c, 8, 81, 67
10, 268380, Note_on_c, 8, 81, 0
10, 268440, Note_on_c, 8, 80, 76
10, 268500, Note_on_c, 8, 80, 0
10, 268560, Note_on_c, 8, 81, 80
10, 268620, Note_on_c, 8, 81, 0
10, 268680, Note_on_c, 8, 83, 78
10, 268740, Note_on_c, 8, 83, 0
10, 268800, Note_on_c, 8, 84, 65
10, 268860, Note_on_c, 8, 84, 0
10, 269760, Note_on_c, 8, 64, 58
10, 269760, Note_on_c, 8, 55, 44
10, 269880, Note_on_c, 8, 55, 0
10, 269880, Note_on_c, 8, 64, 0
10, 269880, Note_on_c, 8, 64, 44
10, 269880, Note_on_c, 8, 55, 42
10, 270000, Note_on_c, 8, 55, 0
10, 270000, Note_on_c, 8, 64, 0
10, 270000, Note_on_c, 8, 64, 45
10, 270000, Note_on_c, 8, 55, 39
10, 270120, Note_on_c, 8, 55, 0
10, 270120, Note_on_c, 8, 64, 0
10, 270120, Note_on_c, 8, 64, 43
10, 270120, Note_on_c, 8, 55, 38
10, 270240, Note_on_c, 8, 55, 0
10, 270240, Note_on_c, 8, 64, 0
10, 270240, Note_on_c, 8, 64, 55
10, 270240, Note_on_c, 8, 55, 44
10, 270360, Note_on_c, 8, 55, 0
10, 270360, Note_on_c, 8, 64, 0
10, 270360, Note_on_c, 8, 64, 42
10, 270360, Note_on_c, 8, 55, 43
10, 270480, Note_on_c, 8, 55, 0
10, 270480, Note_on_c, 8, 64, 0
10, 270480, Note_on_c, 8, 64, 43
10, 270480, Note_on_c, 8, 55, 45
10, 270600, Note_on_c, 8, 55, 0
10, 270600, Note_on_c, 8, 64, 0
10, 270600, Note_on_c, 8, 64, 40
10, 270600, Note_on_c, 8, 55, 52
10, 270720, Note_on_c, 8, 55, 0
10, 270720, Note_on_c, 8, 64, 0
10, 270720, Note_on_c, 8, 65, 44
10, 270720, Note_on_c, 8, 55, 43
10, 270840, Note_on_c, 8, 55, 0
10, 270840, Note_on_c, 8, 65, 0
10, 270840, Note_on_c, 8, 65, 43
10, 270840, Note_on_c, 8, 55, 45
10, 270960, Note_on_c, 8, 55, 0
10, 270960, Note_on_c, 8, 65, 0
10, 270960, Note_on_c, 8, 65, 44
10, 270960, Note_on_c, 8, 55, 45
10, 271080, Note_on_c, 8, 55, 0
10, 271080, Note_on_c, 8, 65, 0
10, 271080, Note_on_c, 8, 65, 41
10, 271080, Note_on_c, 8, 55, 50
10, 271200, Note_on_c, 8, 55, 0
10, 271200, Note_on_c, 8, 65, 0
10, 271200, Note_on_c, 8, 65, 43
10, 271200, Note_on_c, 8, 55, 43
10, 271320, Note_on_c, 8, 55, 0
10, 271320, Note_on_c, 8, 65, 0
10, 271320, Note_on_c, 8, 65, 43
10, 271320, Note_on_c, 8, 55, 46
10, 271440, Note_on_c, 8, 55, 0
10, 271440, Note_on_c, 8, 65, 0
10, 271440, Note_on_c, 8, 65, 43
10, 271440, Note_on_c, 8, 55, 46
10, 271560, Note_on_c, 8, 55, 0
10, 271560, Note_on_c, 8, 65, 0
10, 271560, Note_on_c, 8, 65, 41
10, 271560, Note_on_c, 8, 55, 44
10, 271680, Note_on_c, 8, 55, 0
10, 271680, Note_on_c, 8, 65, 0
10, 271680, Note_on_c, 8, 64, 35
10, 271680, Note_on_c, 8, 55, 44
10, 271800, Note_on_c, 8, 55, 0
10, 271800, Note_on_c, 8, 64, 0
10, 271800, Note_on_c, 8, 64, 44
10, 271800, Note_on_c, 8, 55, 53
10, 271920, Note_on_c, 8, 55, 0
10, 271920, Note_on_c, 8, 64, 0
10, 271920, Note_on_c, 8, 64, 40
10, 271920, Note_on_c, 8, 55, 45
10, 272040, Note_on_c, 8, 55, 0
10, 272040, Note_on_c, 8, 64, 0
10, 272040, Note_on_c, 8, 64, 43
10, 272040, Note_on_c, 8, 55, 45
10, 272160, Note_on_c, 8, 55, 0
10, 272160, Note_on_c, 8, 64, 0
10, 272160, Note_on_c, 8, 64, 43
10, 272160, Note_on_c, 8, 55, 43
10, 272280, Note_on_c, 8, 55, 0
10, 272280, Note_on_c, 8, 64, 0
10, 272280, Note_on_c, 8, 64, 40
10, 272280, Note_on_c, 8, 55, 42
10, 272400, Note_on_c, 8, 55, 0
10, 272400, Note_on_c, 8, 64, 0
10, 272400, Note_on_c, 8, 64, 43
10, 272400, Note_on_c, 8, 55, 43
10, 272520, Note_on_c, 8, 55, 0
10, 272520, Note_on_c, 8, 64, 0
10, 272520, Note_on_c, 8, 64, 43
10, 272520, Note_on_c, 8, 55, 53
10, 272640, Note_on_c, 8, 55, 0
10, 272640, Note_on_c, 8, 64, 0
10, 272640, Note_on_c, 8, 65, 43
10, 272640, Note_on_c, 8, 55, 44
10, 272760, Note_on_c, 8, 55, 0
10, 272760, Note_on_c, 8, 65, 0
10, 272760, Note_on_c, 8, 65, 44
10, 272760, Note_on_c, 8, 55, 45
10, 272880, Note_on_c, 8, 55, 0
10, 272880, Note_on_c, 8, 65, 0
10, 272880, Note_on_c, 8, 65, 44
10, 272880, Note_on_c, 8, 55, 43
10, 273000, Note_on_c, 8, 55, 0
10, 273000, Note_on_c, 8, 65, 0
10, 273000, Note_on_c, 8, 65, 40
10, 273000, Note_on_c, 8, 55, 46
10, 273120, Note_on_c, 8, 55, 0
10, 273120, Note_on_c, 8, 65, 0
10, 273120, Note_on_c, 8, 65, 40
10, 273120, Note_on_c, 8, 55, 44
10, 273240, Note_on_c, 8, 55, 0
10, 273240, Note_on_c, 8, 65, 0
10, 273240, Note_on_c, 8, 65, 46
10, 273240, Note_on_c, 8, 55, 61
10, 273360, Note_on_c, 8, 55, 0
10, 273360, Note_on_c, 8, 65, 0
10, 273360, Note_on_c, 8, 65, 45
10, 273360, Note_on_c, 8, 55, 63
10, 273480, Note_on_c, 8, 55, 0
10, 273480, Note_on_c, 8, 65, 0
10, 273480, Note_on_c, 8, 65, 50
10, 273480, Note_on_c, 8, 55, 55
10, 273600, Note_on_c, 8, 55, 0
10, 273600, Note_on_c, 8, 65, 0
10, 273600, Note_on_c, 8, 64, 54
10, 273600, Note_on_c, 8, 55, 45
10, 273720, Note_on_c, 8, 55, 0
10, 273720, Note_on_c, 8, 64, 0
10, 273720, Note_on_c, 8, 64, 43
10, 273720, Note_on_c, 8, 55, 41
10, 273840, Note_on_c, 8, 55, 0
10, 273840, Note_on_c, 8, 64, 0
10, 273840, Note_on_c, 8, 64, 40
10, 273840, Note_on_c, 8, 55, 43
10, 273960, Note_on_c, 8, 55, 0
10, 273960, Note_on_c, 8, 64, 0
10, 273960, Note_on_c, 8, 64, 40
10, 273960, Note_on_c, 8, 55, 43
10, 274080, Note_on_c, 8, 55, 0
10, 274080, Note_on_c, 8, 64, 0
10, 274080, Note_on_c, 8, 65, 35
10, 274080, Note_on_c, 8, 55, 38
10, 274200, Note_on_c, 8, 55, 0
10, 274200, Note_on_c, 8, 65, 0
10, 274200, Note_on_c, 8, 65, 36
10, 274200, Note_on_c, 8, 55, 39
10, 274320, Note_on_c, 8, 55, 0
10, 274320, Note_on_c, 8, 65, 0
10, 274320, Note_on_c, 8, 65, 35
10, 274320, Note_on_c, 8, 55, 40
10, 274440, Note_on_c, 8, 55, 0
10, 274440, Note_on_c, 8, 65, 0
10, 274440, Note_on_c, 8, 65, 45
10, 274440, Note_on_c, 8, 55, 43
10, 274560, Note_on_c, 8, 55, 0
10, 274560, Note_on_c, 8, 65, 0
10, 274560, Note_on_c, 8, 64, 40
10, 274560, Note_on_c, 8, 55, 38
10, 274680, Note_on_c, 8, 55, 0
10, 274680, Note_on_c, 8, 64, 0
10, 274680, Note_on_c, 8, 64, 39
10, 274680, Note_on_c, 8, 55, 39
10, 274800, Note_on_c, 8, 55, 0
10, 274800, Note_on_c, 8, 64, 0
10, 274800, Note_on_c, 8, 64, 40
10, 274800, Note_on_c, 8, 55, 40
10, 274920, Note_on_c, 8, 55, 0
10, 274920, Note_on_c, 8, 64, 0
10, 274920, Note_on_c, 8, 64, 38
10, 274920, Note_on_c, 8, 55, 35
10, 275040, Note_on_c, 8, 55, 0
10, 275040, Note_on_c, 8, 64, 0
10, 275040, Note_on_c, 8, 65, 38
10, 275040, Note_on_c, 8, 55, 35
10, 275160, Note_on_c, 8, 55, 0
10, 275160, Note_on_c, 8, 65, 0
10, 275160, Note_on_c, 8, 65, 32
10, 275160, Note_on_c, 8, 55, 36
10, 275280, Note_on_c, 8, 55, 0
10, 275280, Note_on_c, 8, 65, 0
10, 275280, Note_on_c, 8, 65, 34
10, 275280, Note_on_c, 8, 55, 36
10, 275400, Note_on_c, 8, 55, 0
10, 275400, Note_on_c, 8, 65, 0
10, 275400, Note_on_c, 8, 65, 35
10, 275400, Note_on_c, 8, 55, 32
10, 275520, Note_on_c, 8, 55, 0
10, 275520, Note_on_c, 8, 65, 0
10, 275520, Note_on_c, 8, 64, 43
10, 275520, Note_on_c, 8, 55, 43
10, 275760, Note_on_c, 8, 55, 0
10, 275760, Note_on_c, 8, 64, 0
10, 277920, Note_on_c, 8, 71, 54
10, 278880, Note_on_c, 8, 71, 0
10, 280440, Note_on_c, 8, 72, 61
10, 281160, Note_on_c, 8, 72, 0
10, 282600, Note_on_c, 8, 84, 94
10, 282660, Note_on_c, 8, 84, 0
10, 282660, Note_on_c, 8, 84, 94
10, 282720, Note_on_c, 8, 84, 0
10, 282720, Note_on_c, 8, 86, 104
10, 282780, Note_on_c, 8, 86, 0
10, 282780, Note_on_c, 8, 86, 101
10, 282840, Note_on_c, 8, 86, 0
10, 282840, Note_on_c, 8, 86, 99
10, 282900, Note_on_c, 8, 86, 0
10, 282900, Note_on_c, 8, 86, 99
10, 282960, Note_on_c, 8, 86, 0
10, 282960, Note_on_c, 8, 86, 99
10, 283020, Note_on_c, 8, 86, 0
10, 283020, Note_on_c, 8, 86, 99
10, 283080, Note_on_c, 8, 86, 0
10, 283080, Note_on_c, 8, 86, 101
10, 283140, Note_on_c, 8, 86, 0
10, 283140, Note_on_c, 8, 86, 99
10, 283200, Note_on_c, 8, 86, 0
10, 283200, Note_on_c, 8, 86, 101
10, 283260, Note_on_c, 8, 86, 0
10, 283260, Note_on_c, 8, 86, 99
10, 283320, Note_on_c, 8, 86, 0
10, 283320, Note_on_c, 8, 86, 99
10, 283380, Note_on_c, 8, 86, 0
10, 283380, Note_on_c, 8, 86, 101
10, 283440, Note_on_c, 8, 86, 0
10, 283440, Note_on_c, 8, 86, 94
10, 283500, Note_on_c, 8, 86, 0
10, 283500, Note_on_c, 8, 86, 99
10, 283560, Note_on_c, 8, 86, 0
10, 283560, Note_on_c, 8, 86, 99
10, 283620, Note_on_c, 8, 86, 0
10, 283620, Note_on_c, 8, 86, 104
10, 283680, Note_on_c, 8, 86, 0
10, 283680, Note_on_c, 8, 84, 94
10, 283740, Note_on_c, 8, 84, 0
10, 283740, Note_on_c, 8, 84, 94
10, 283800, Note_on_c, 8, 84, 0
10, 283800, Note_on_c, 8, 86, 99
10, 283860, Note_on_c, 8, 86, 0
10, 283860, Note_on_c, 8, 86, 99
10, 283920, Note_on_c, 8, 86, 0
10, 283920, Note_on_c, 8, 84, 94
10, 283980, Note_on_c, 8, 84, 0
10, 283980, Note_on_c, 8, 84, 90
10, 284040, Note_on_c, 8, 84, 0
10, 284040, Note_on_c, 8, 86, 101
10, 284100, Note_on_c, 8, 86, 0
10, 284100, Note_on_c, 8, 86, 95
10, 284160, Note_on_c, 8, 86, 0
10, 284160, Note_on_c, 8, 84, 94
10, 284220, Note_on_c, 8, 84, 0
10, 284220, Note_on_c, 8, 84, 89
10, 284280, Note_on_c, 8, 84, 0
10, 284280, Note_on_c, 8, 86, 104
10, 284340, Note_on_c, 8, 86, 0
10, 284340, Note_on_c, 8, 86, 95
10, 284400, Note_on_c, 8, 86, 0
10, 284400, Note_on_c, 8, 84, 94
10, 284460, Note_on_c, 8, 84, 0
10, 284460, Note_on_c, 8, 84, 94
10, 284520, Note_on_c, 8, 84, 0
10, 284520, Note_on_c, 8, 86, 101
10, 284580, Note_on_c, 8, 86, 0
10, 284580, Note_on_c, 8, 86, 99
10, 284640, Note_on_c, 8, 86, 0
10, 284640, Note_on_c, 8, 84, 94
10, 284880, Note_on_c, 8, 84, 0
10, 284880, Note_on_c, 8, 72, 73
10, 284880, Note_on_c, 8, 67, 94
10, 284880, Note_on_c, 8, 55, 98
10, 285120, Note_on_c, 8, 55, 0
10, 285120, Note_on_c, 8, 67, 0
10, 285120, Note_on_c, 8, 72, 0
10, 285120, Note_on_c, 8, 60, 95
10, 285360, Note_on_c, 8, 60, 0
10, 285360, End_track
11, 0, Start_track
11, 0, MIDI_port, 0
11, 0, Title_t, "2nd Violins"
11, 0, Program_c, 10, 48
11, 0, Control_c, 10, 7, 100
11, 0, Control_c, 10, 10, 20
11, 0, Control_c, 10, 93, 0
11, 0, Control_c, 10, 91, 66
11, 9960, Note_on_c, 10, 64, 99
11, 10080, Note_on_c, 10, 64, 0
11, 10080, Note_on_c, 10, 64, 65
11, 10080, Note_on_c, 10, 55, 84
11, 10140, Note_on_c, 10, 55, 0
11, 10140, Note_on_c, 10, 64, 0
11, 10140, Note_on_c, 10, 64, 84
11, 10140, Note_on_c, 10, 55, 86
11, 10200, Note_on_c, 10, 55, 0
11, 10200, Note_on_c, 10, 64, 0
11, 10200, Note_on_c, 10, 64, 90
11, 10200, Note_on_c, 10, 55, 81
11, 10260, Note_on_c, 10, 55, 0
11, 10260, Note_on_c, 10, 64, 0
11, 10260, Note_on_c, 10, 64, 89
11, 10260, Note_on_c, 10, 55, 89
11, 10320, Note_on_c, 10, 55, 0
11, 10320, Note_on_c, 10, 64, 0
11, 10320, Note_on_c, 10, 64, 84
11, 10320, Note_on_c, 10, 55, 86
11, 10380, Note_on_c, 10, 55, 0
11, 10380, Note_on_c, 10, 64, 0
11, 10380, Note_on_c, 10, 64, 86
11, 10380, Note_on_c, 10, 55, 90
11, 10440, Note_on_c, 10, 55, 0
11, 10440, Note_on_c, 10, 64, 0
11, 10440, Note_on_c, 10, 64, 89
11, 10440, Note_on_c, 10, 55, 90
11, 10500, Note_on_c, 10, 55, 0
11, 10500, Note_on_c, 10, 64, 0
11, 10500, Note_on_c, 10, 55, 84
11, 10500, Note_on_c, 10, 64, 73
11, 10560, Note_on_c, 10, 64, 0
11, 10560, Note_on_c, 10, 55, 0
11, 10560, Note_on_c, 10, 64, 85
11, 10560, Note_on_c, 10, 55, 93
11, 10620, Note_on_c, 10, 55, 0
11, 10620, Note_on_c, 10, 64, 0
11, 10620, Note_on_c, 10, 64, 81
11, 10620, Note_on_c, 10, 55, 84
11, 10680, Note_on_c, 10, 55, 0
11, 10680, Note_on_c, 10, 64, 0
11, 10680, Note_on_c, 10, 64, 86
11, 10680, Note_on_c, 10, 55, 90
11, 10740, Note_on_c, 10, 55, 0
11, 10740, Note_on_c, 10, 64, 0
11, 10740, Note_on_c, 10, 64, 85
11, 10740, Note_on_c, 10, 55, 86
11, 10800, Note_on_c, 10, 55, 0
11, 10800, Note_on_c, 10, 64, 0
11, 10800, Note_on_c, 10, 64, 89
11, 10800, Note_on_c, 10, 55, 90
11, 10860, Note_on_c, 10, 55, 0
11, 10860, Note_on_c, 10, 64, 0
11, 10860, Note_on_c, 10, 64, 85
11, 10860, Note_on_c, 10, 55, 85
11, 10920, Note_on_c, 10, 55, 0
11, 10920, Note_on_c, 10, 64, 0
11, 10920, Note_on_c, 10, 64, 86
11, 10920, Note_on_c, 10, 55, 86
11, 10980, Note_on_c, 10, 55, 0
11, 10980, Note_on_c, 10, 64, 0
11, 10980, Note_on_c, 10, 55, 89
11, 10980, Note_on_c, 10, 64, 90
11, 11040, Note_on_c, 10, 64, 0
11, 11040, Note_on_c, 10, 55, 0
11, 11040, Note_on_c, 10, 64, 85
11, 11040, Note_on_c, 10, 55, 86
11, 11100, Note_on_c, 10, 55, 0
11, 11100, Note_on_c, 10, 64, 0
11, 11100, Note_on_c, 10, 64, 89
11, 11100, Note_on_c, 10, 55, 86
11, 11160, Note_on_c, 10, 55, 0
11, 11160, Note_on_c, 10, 64, 0
11, 11160, Note_on_c, 10, 64, 89
11, 11160, Note_on_c, 10, 55, 86
11, 11220, Note_on_c, 10, 55, 0
11, 11220, Note_on_c, 10, 64, 0
11, 11220, Note_on_c, 10, 64, 85
11, 11220, Note_on_c, 10, 55, 85
11, 11280, Note_on_c, 10, 55, 0
11, 11280, Note_on_c, 10, 64, 0
11, 11280, Note_on_c, 10, 64, 85
11, 11280, Note_on_c, 10, 55, 90
11, 11340, Note_on_c, 10, 55, 0
11, 11340, Note_on_c, 10, 64, 0
11, 11340, Note_on_c, 10, 64, 89
11, 11340, Note_on_c, 10, 55, 89
11, 11400, Note_on_c, 10, 55, 0
11, 11400, Note_on_c, 10, 64, 0
11, 11400, Note_on_c, 10, 64, 86
11, 11400, Note_on_c, 10, 55, 89
11, 11460, Note_on_c, 10, 55, 0
11, 11460, Note_on_c, 10, 64, 0
11, 11460, Note_on_c, 10, 55, 82
11, 11460, Note_on_c, 10, 64, 86
11, 11520, Note_on_c, 10, 64, 0
11, 11520, Note_on_c, 10, 55, 0
11, 11520, Note_on_c, 10, 62, 84
11, 11580, Note_on_c, 10, 62, 0
11, 11580, Note_on_c, 10, 62, 84
11, 11640, Note_on_c, 10, 62, 0
11, 11640, Note_on_c, 10, 59, 94
11, 11700, Note_on_c, 10, 59, 0
11, 11700, Note_on_c, 10, 59, 99
11, 11760, Note_on_c, 10, 59, 0
11, 11760, Note_on_c, 10, 64, 90
11, 11820, Note_on_c, 10, 64, 0
11, 11820, Note_on_c, 10, 64, 86
11, 11880, Note_on_c, 10, 64, 0
11, 11880, Note_on_c, 10, 60, 94
11, 11940, Note_on_c, 10, 60, 0
11, 11940, Note_on_c, 10, 60, 93
11, 12000, Note_on_c, 10, 60, 0
11, 12000, Note_on_c, 10, 59, 95
11, 12060, Note_on_c, 10, 59, 0
11, 12060, Note_on_c, 10, 59, 98
11, 12120, Note_on_c, 10, 59, 0
11, 12120, Note_on_c, 10, 59, 95
11, 12180, Note_on_c, 10, 59, 0
11, 12180, Note_on_c, 10, 59, 99
11, 12240, Note_on_c, 10, 59, 0
11, 12240, Note_on_c, 10, 64, 95
11, 12300, Note_on_c, 10, 64, 0
11, 12300, Note_on_c, 10, 64, 93
11, 12360, Note_on_c, 10, 64, 0
11, 12360, Note_on_c, 10, 60, 94
11, 12420, Note_on_c, 10, 60, 0
11, 12420, Note_on_c, 10, 60, 94
11, 12480, Note_on_c, 10, 60, 0
11, 12480, Note_on_c, 10, 59, 99
11, 12540, Note_on_c, 10, 59, 0
11, 12540, Note_on_c, 10, 62, 73
11, 12540, Note_on_c, 10, 59, 99
11, 12600, Note_on_c, 10, 59, 0
11, 12600, Note_on_c, 10, 62, 0
11, 12600, Note_on_c, 10, 62, 84
11, 12600, Note_on_c, 10, 59, 93
11, 12660, Note_on_c, 10, 59, 0
11, 12660, Note_on_c, 10, 62, 0
11, 12660, Note_on_c, 10, 62, 85
11, 12660, Note_on_c, 10, 59, 86
11, 12720, Note_on_c, 10, 59, 0
11, 12720, Note_on_c, 10, 62, 0
11, 12720, Note_on_c, 10, 62, 82
11, 12720, Note_on_c, 10, 59, 90
11, 12780, Note_on_c, 10, 59, 0
11, 12780, Note_on_c, 10, 62, 0
11, 12780, Note_on_c, 10, 62, 81
11, 12780, Note_on_c, 10, 59, 89
11, 12840, Note_on_c, 10, 59, 0
11, 12840, Note_on_c, 10, 62, 0
11, 12840, Note_on_c, 10, 62, 80
11, 12840, Note_on_c, 10, 59, 95
11, 12900, Note_on_c, 10, 59, 0
11, 12900, Note_on_c, 10, 62, 0
11, 12900, Note_on_c, 10, 59, 98
11, 12900, Note_on_c, 10, 62, 81
11, 12960, Note_on_c, 10, 62, 0
11, 12960, Note_on_c, 10, 59, 0
11, 12960, Note_on_c, 10, 62, 80
11, 12960, Note_on_c, 10, 59, 85
11, 13020, Note_on_c, 10, 59, 0
11, 13020, Note_on_c, 10, 62, 0
11, 13020, Note_on_c, 10, 62, 81
11, 13020, Note_on_c, 10, 59, 85
11, 13080, Note_on_c, 10, 59, 0
11, 13080, Note_on_c, 10, 62, 0
11, 13080, Note_on_c, 10, 62, 85
11, 13080, Note_on_c, 10, 59, 82
11, 13140, Note_on_c, 10, 59, 0
11, 13140, Note_on_c, 10, 62, 0
11, 13140, Note_on_c, 10, 62, 85
11, 13140, Note_on_c, 10, 59, 81
11, 13200, Note_on_c, 10, 59, 0
11, 13200, Note_on_c, 10, 62, 0
11, 13200, Note_on_c, 10, 62, 89
11, 13200, Note_on_c, 10, 59, 80
11, 13260, Note_on_c, 10, 59, 0
11, 13260, Note_on_c, 10, 62, 0
11, 13260, Note_on_c, 10, 62, 84
11, 13260, Note_on_c, 10, 59, 80
11, 13320, Note_on_c, 10, 59, 0
11, 13320, Note_on_c, 10, 62, 0
11, 13320, Note_on_c, 10, 62, 84
11, 13320, Note_on_c, 10, 59, 81
11, 13380, Note_on_c, 10, 59, 0
11, 13380, Note_on_c, 10, 62, 0
11, 13380, Note_on_c, 10, 59, 84
11, 13380, Note_on_c, 10, 62, 89
11, 13440, Note_on_c, 10, 62, 0
11, 13440, Note_on_c, 10, 59, 0
11, 13440, Note_on_c, 10, 62, 112
11, 13440, Note_on_c, 10, 59, 119
11, 13500, Note_on_c, 10, 59, 0
11, 13500, Note_on_c, 10, 62, 0
11, 13500, Note_on_c, 10, 62, 84
11, 13500, Note_on_c, 10, 59, 90
11, 13560, Note_on_c, 10, 59, 0
11, 13560, Note_on_c, 10, 62, 0
11, 13560, Note_on_c, 10, 62, 85
11, 13560, Note_on_c, 10, 59, 81
11, 13620, Note_on_c, 10, 59, 0
11, 13620, Note_on_c, 10, 62, 0
11, 13620, Note_on_c, 10, 62, 80
11, 13620, Note_on_c, 10, 59, 74
11, 13680, Note_on_c, 10, 59, 0
11, 13680, Note_on_c, 10, 62, 0
11, 13680, Note_on_c, 10, 62, 80
11, 13680, Note_on_c, 10, 59, 76
11, 13740, Note_on_c, 10, 59, 0
11, 13740, Note_on_c, 10, 62, 0
11, 13740, Note_on_c, 10, 62, 80
11, 13740, Note_on_c, 10, 59, 81
11, 13800, Note_on_c, 10, 59, 0
11, 13800, Note_on_c, 10, 62, 0
11, 13800, Note_on_c, 10, 62, 81
11, 13800, Note_on_c, 10, 59, 72
11, 13860, Note_on_c, 10, 59, 0
11, 13860, Note_on_c, 10, 62, 0
11, 13860, Note_on_c, 10, 59, 72
11, 13860, Note_on_c, 10, 62, 80
11, 13920, Note_on_c, 10, 62, 0
11, 13920, Note_on_c, 10, 59, 0
11, 13920, Note_on_c, 10, 62, 81
11, 13920, Note_on_c, 10, 59, 81
11, 13980, Note_on_c, 10, 59, 0
11, 13980, Note_on_c, 10, 62, 0
11, 13980, Note_on_c, 10, 62, 78
11, 13980, Note_on_c, 10, 59, 76
11, 14040, Note_on_c, 10, 59, 0
11, 14040, Note_on_c, 10, 62, 0
11, 14040, Note_on_c, 10, 62, 82
11, 14040, Note_on_c, 10, 59, 81
11, 14100, Note_on_c, 10, 59, 0
11, 14100, Note_on_c, 10, 62, 0
11, 14100, Note_on_c, 10, 62, 82
11, 14100, Note_on_c, 10, 59, 77
11, 14160, Note_on_c, 10, 59, 0
11, 14160, Note_on_c, 10, 62, 0
11, 14160, Note_on_c, 10, 62, 78
11, 14160, Note_on_c, 10, 59, 73
11, 14220, Note_on_c, 10, 59, 0
11, 14220, Note_on_c, 10, 62, 0
11, 14220, Note_on_c, 10, 62, 77
11, 14220, Note_on_c, 10, 59, 73
11, 14280, Note_on_c, 10, 59, 0
11, 14280, Note_on_c, 10, 62, 0
11, 14280, Note_on_c, 10, 62, 80
11, 14280, Note_on_c, 10, 59, 74
11, 14340, Note_on_c, 10, 59, 0
11, 14340, Note_on_c, 10, 62, 0
11, 14340, Note_on_c, 10, 59, 70
11, 14340, Note_on_c, 10, 62, 82
11, 14400, Note_on_c, 10, 62, 0
11, 14400, Note_on_c, 10, 59, 0
11, 14400, Note_on_c, 10, 62, 112
11, 14400, Note_on_c, 10, 59, 115
11, 14460, Note_on_c, 10, 59, 0
11, 14460, Note_on_c, 10, 62, 0
11, 14460, Note_on_c, 10, 62, 89
11, 14460, Note_on_c, 10, 59, 93
11, 14520, Note_on_c, 10, 59, 0
11, 14520, Note_on_c, 10, 62, 0
11, 14520, Note_on_c, 10, 62, 81
11, 14520, Note_on_c, 10, 59, 73
11, 14580, Note_on_c, 10, 59, 0
11, 14580, Note_on_c, 10, 62, 0
11, 14580, Note_on_c, 10, 62, 81
11, 14580, Note_on_c, 10, 59, 74
11, 14640, Note_on_c, 10, 59, 0
11, 14640, Note_on_c, 10, 62, 0
11, 14640, Note_on_c, 10, 62, 80
11, 14640, Note_on_c, 10, 59, 76
11, 14700, Note_on_c, 10, 59, 0
11, 14700, Note_on_c, 10, 62, 0
11, 14700, Note_on_c, 10, 62, 77
11, 14700, Note_on_c, 10, 59, 71
11, 14760, Note_on_c, 10, 59, 0
11, 14760, Note_on_c, 10, 62, 0
11, 14760, Note_on_c, 10, 62, 76
11, 14760, Note_on_c, 10, 59, 72
11, 14820, Note_on_c, 10, 59, 0
11, 14820, Note_on_c, 10, 62, 0
11, 14820, Note_on_c, 10, 59, 76
11, 14820, Note_on_c, 10, 62, 80
11, 14880, Note_on_c, 10, 62, 0
11, 14880, Note_on_c, 10, 59, 0
11, 14880, Note_on_c, 10, 62, 86
11, 14880, Note_on_c, 10, 59, 82
11, 14940, Note_on_c, 10, 59, 0
11, 14940, Note_on_c, 10, 62, 0
11, 14940, Note_on_c, 10, 62, 89
11, 14940, Note_on_c, 10, 59, 85
11, 15000, Note_on_c, 10, 59, 0
11, 15000, Note_on_c, 10, 62, 0
11, 15000, Note_on_c, 10, 62, 107
11, 15000, Note_on_c, 10, 60, 115
11, 15060, Note_on_c, 10, 60, 0
11, 15060, Note_on_c, 10, 62, 0
11, 15060, Note_on_c, 10, 62, 81
11, 15060, Note_on_c, 10, 60, 80
11, 15120, Note_on_c, 10, 60, 0
11, 15120, Note_on_c, 10, 62, 0
11, 15120, Note_on_c, 10, 62, 84
11, 15120, Note_on_c, 10, 59, 81
11, 15180, Note_on_c, 10, 59, 0
11, 15180, Note_on_c, 10, 62, 0
11, 15180, Note_on_c, 10, 62, 77
11, 15180, Note_on_c, 10, 59, 76
11, 15240, Note_on_c, 10, 59, 0
11, 15240, Note_on_c, 10, 62, 0
11, 15240, Note_on_c, 10, 62, 78
11, 15240, Note_on_c, 10, 59, 72
11, 15300, Note_on_c, 10, 59, 0
11, 15300, Note_on_c, 10, 62, 0
11, 15300, Note_on_c, 10, 59, 73
11, 15300, Note_on_c, 10, 62, 78
11, 15360, Note_on_c, 10, 62, 0
11, 15360, Note_on_c, 10, 59, 0
11, 15360, Note_on_c, 10, 62, 86
11, 15360, Note_on_c, 10, 59, 76
11, 15420, Note_on_c, 10, 59, 0
11, 15420, Note_on_c, 10, 62, 0
11, 15420, Note_on_c, 10, 62, 82
11, 15420, Note_on_c, 10, 59, 71
11, 15480, Note_on_c, 10, 59, 0
11, 15480, Note_on_c, 10, 62, 0
11, 15480, Note_on_c, 10, 62, 112
11, 15480, Note_on_c, 10, 60, 110
11, 15540, Note_on_c, 10, 60, 0
11, 15540, Note_on_c, 10, 62, 0
11, 15540, Note_on_c, 10, 62, 77
11, 15540, Note_on_c, 10, 60, 76
11, 15600, Note_on_c, 10, 60, 0
11, 15600, Note_on_c, 10, 62, 0
11, 15600, Note_on_c, 10, 62, 85
11, 15600, Note_on_c, 10, 59, 82
11, 15660, Note_on_c, 10, 59, 0
11, 15660, Note_on_c, 10, 62, 0
11, 15660, Note_on_c, 10, 62, 89
11, 15660, Note_on_c, 10, 59, 84
11, 15720, Note_on_c, 10, 59, 0
11, 15720, Note_on_c, 10, 62, 0
11, 15720, Note_on_c, 10, 62, 89
11, 15720, Note_on_c, 10, 59, 80
11, 15780, Note_on_c, 10, 59, 0
11, 15780, Note_on_c, 10, 62, 0
11, 15780, Note_on_c, 10, 59, 84
11, 15780, Note_on_c, 10, 62, 89
11, 15840, Note_on_c, 10, 62, 0
11, 15840, Note_on_c, 10, 59, 0
11, 15840, Note_on_c, 10, 62, 89
11, 15840, Note_on_c, 10, 59, 84
11, 15900, Note_on_c, 10, 59, 0
11, 15900, Note_on_c, 10, 62, 0
11, 15900, Note_on_c, 10, 62, 86
11, 15900, Note_on_c, 10, 59, 80
11, 15960, Note_on_c, 10, 59, 0
11, 15960, Note_on_c, 10, 62, 0
11, 15960, Note_on_c, 10, 71, 95
11, 16020, Note_on_c, 10, 71, 0
11, 16020, Note_on_c, 10, 71, 101
11, 16080, Note_on_c, 10, 71, 0
11, 16080, Note_on_c, 10, 72, 84
11, 16140, Note_on_c, 10, 72, 0
11, 16140, Note_on_c, 10, 72, 86
11, 16200, Note_on_c, 10, 72, 0
11, 16200, Note_on_c, 10, 69, 99
11, 16260, Note_on_c, 10, 69, 0
11, 16260, Note_on_c, 10, 69, 101
11, 16320, Note_on_c, 10, 69, 0
11, 16320, Note_on_c, 10, 64, 89
11, 16320, Note_on_c, 10, 55, 93
11, 16380, Note_on_c, 10, 55, 0
11, 16380, Note_on_c, 10, 64, 0
11, 16380, Note_on_c, 10, 64, 86
11, 16380, Note_on_c, 10, 55, 90
11, 16440, Note_on_c, 10, 55, 0
11, 16440, Note_on_c, 10, 64, 0
11, 16440, Note_on_c, 10, 64, 89
11, 16440, Note_on_c, 10, 55, 98
11, 16500, Note_on_c, 10, 55, 0
11, 16500, Note_on_c, 10, 64, 0
11, 16500, Note_on_c, 10, 64, 93
11, 16500, Note_on_c, 10, 55, 94
11, 16560, Note_on_c, 10, 55, 0
11, 16560, Note_on_c, 10, 64, 0
11, 16560, Note_on_c, 10, 65, 93
11, 16560, Note_on_c, 10, 55, 89
11, 16620, Note_on_c, 10, 55, 0
11, 16620, Note_on_c, 10, 65, 0
11, 16620, Note_on_c, 10, 65, 94
11, 16620, Note_on_c, 10, 55, 99
11, 16680, Note_on_c, 10, 55, 0
11, 16680, Note_on_c, 10, 65, 0
11, 16680, Note_on_c, 10, 65, 90
11, 16680, Note_on_c, 10, 55, 93
11, 16740, Note_on_c, 10, 55, 0
11, 16740, Note_on_c, 10, 65, 0
11, 16740, Note_on_c, 10, 55, 98
11, 16740, Note_on_c, 10, 65, 94
11, 16800, Note_on_c, 10, 65, 0
11, 16800, Note_on_c, 10, 55, 0
11, 16800, Note_on_c, 10, 64, 98
11, 16860, Note_on_c, 10, 64, 0
11, 16860, Note_on_c, 10, 64, 99
11, 16920, Note_on_c, 10, 64, 0
11, 16920, Note_on_c, 10, 67, 90
11, 16980, Note_on_c, 10, 67, 0
11, 16980, Note_on_c, 10, 67, 95
11, 17040, Note_on_c, 10, 67, 0
11, 17040, Note_on_c, 10, 64, 98
11, 17100, Note_on_c, 10, 64, 0
11, 17100, Note_on_c, 10, 64, 98
11, 17160, Note_on_c, 10, 64, 0
11, 17160, Note_on_c, 10, 67, 84
11, 17220, Note_on_c, 10, 67, 0
11, 17220, Note_on_c, 10, 67, 95
11, 17280, Note_on_c, 10, 67, 0
11, 17280, Note_on_c, 10, 64, 99
11, 17340, Note_on_c, 10, 64, 0
11, 17340, Note_on_c, 10, 64, 101
11, 17400, Note_on_c, 10, 64, 0
11, 17400, Note_on_c, 10, 67, 99
11, 17460, Note_on_c, 10, 67, 0
11, 17460, Note_on_c, 10, 67, 98
11, 17520, Note_on_c, 10, 67, 0
11, 17520, Note_on_c, 10, 65, 94
11, 17580, Note_on_c, 10, 65, 0
11, 17580, Note_on_c, 10, 65, 95
11, 17640, Note_on_c, 10, 65, 0
11, 17640, Note_on_c, 10, 67, 93
11, 17700, Note_on_c, 10, 67, 0
11, 17700, Note_on_c, 10, 67, 95
11, 17760, Note_on_c, 10, 67, 0
11, 17760, Note_on_c, 10, 72, 125
11, 17820, Note_on_c, 10, 72, 0
11, 17820, Note_on_c, 10, 71, 117
11, 17880, Note_on_c, 10, 71, 0
11, 17880, Note_on_c, 10, 69, 119
11, 17940, Note_on_c, 10, 69, 0
11, 17940, Note_on_c, 10, 67, 123
11, 18000, Note_on_c, 10, 67, 0
11, 18000, Note_on_c, 10, 65, 119
11, 18060, Note_on_c, 10, 65, 0
11, 18060, Note_on_c, 10, 64, 119
11, 18120, Note_on_c, 10, 64, 0
11, 18120, Note_on_c, 10, 62, 119
11, 18180, Note_on_c, 10, 62, 0
11, 18180, Note_on_c, 10, 60, 110
11, 18240, Note_on_c, 10, 60, 0
11, 18240, Note_on_c, 10, 62, 119
11, 18300, Note_on_c, 10, 62, 0
11, 18300, Note_on_c, 10, 62, 123
11, 18360, Note_on_c, 10, 62, 0
11, 18360, Note_on_c, 10, 64, 119
11, 18420, Note_on_c, 10, 64, 0
11, 18420, Note_on_c, 10, 64, 117
11, 18480, Note_on_c, 10, 64, 0
11, 18480, Note_on_c, 10, 65, 127
11, 18540, Note_on_c, 10, 65, 0
11, 18540, Note_on_c, 10, 65, 125
11, 18600, Note_on_c, 10, 65, 0
11, 18600, Note_on_c, 10, 65, 119
11, 18660, Note_on_c, 10, 65, 0
11, 18660, Note_on_c, 10, 65, 125
11, 18720, Note_on_c, 10, 65, 0
11, 18720, Note_on_c, 10, 64, 123
11, 18780, Note_on_c, 10, 64, 0
11, 18780, Note_on_c, 10, 64, 119
11, 18840, Note_on_c, 10, 64, 0
11, 18840, Note_on_c, 10, 65, 125
11, 18900, Note_on_c, 10, 65, 0
11, 18900, Note_on_c, 10, 65, 123
11, 18960, Note_on_c, 10, 65, 0
11, 18960, Note_on_c, 10, 64, 125
11, 19020, Note_on_c, 10, 64, 0
11, 19020, Note_on_c, 10, 64, 125
11, 19080, Note_on_c, 10, 64, 0
11, 19080, Note_on_c, 10, 65, 125
11, 19140, Note_on_c, 10, 65, 0
11, 19140, Note_on_c, 10, 65, 127
11, 19200, Note_on_c, 10, 65, 0
11, 19200, Note_on_c, 10, 64, 117
11, 19200, Note_on_c, 10, 55, 119
11, 19440, Note_on_c, 10, 55, 0
11, 19440, Note_on_c, 10, 64, 0
11, 22560, Note_on_c, 10, 67, 66
11, 22920, Note_on_c, 10, 67, 0
11, 22920, Note_on_c, 10, 69, 72
11, 22980, Note_on_c, 10, 69, 0
11, 22980, Note_on_c, 10, 71, 65
11, 23040, Note_on_c, 10, 71, 0
11, 23040, Note_on_c, 10, 72, 43
11, 23100, Note_on_c, 10, 72, 0
11, 24480, Note_on_c, 10, 64, 72
11, 24840, Note_on_c, 10, 64, 0
11, 24840, Note_on_c, 10, 66, 72
11, 24900, Note_on_c, 10, 66, 0
11, 24900, Note_on_c, 10, 68, 71
11, 24960, Note_on_c, 10, 68, 0
11, 24960, Note_on_c, 10, 69, 73
11, 25020, Note_on_c, 10, 69, 0
11, 25920, Note_on_c, 10, 60, 64
11, 26880, Note_on_c, 10, 60, 0
11, 26880, Note_on_c, 10, 59, 67
11, 27000, Note_on_c, 10, 59, 0
11, 27840, Note_on_c, 10, 64, 72
11, 28800, Note_on_c, 10, 64, 0
11, 28800, Note_on_c, 10, 62, 62
11, 29040, Note_on_c, 10, 62, 0
11, 29760, Note_on_c, 10, 62, 72
11, 30240, Note_on_c, 10, 62, 0
11, 30240, Note_on_c, 10, 62, 68
11, 30600, Note_on_c, 10, 62, 0
11, 30600, Note_on_c, 10, 67, 40
11, 30720, Note_on_c, 10, 67, 0
11, 30720, Note_on_c, 10, 66, 76
11, 30840, Note_on_c, 10, 66, 0
11, 30840, Note_on_c, 10, 64, 84
11, 30900, Note_on_c, 10, 64, 0
11, 30960, Note_on_c, 10, 62, 86
11, 31020, Note_on_c, 10, 62, 0
11, 31080, Note_on_c, 10, 64, 84
11, 31140, Note_on_c, 10, 64, 0
11, 31200, Note_on_c, 10, 62, 86
11, 31440, Note_on_c, 10, 62, 0
11, 31680, Note_on_c, 10, 62, 72
11, 31680, Note_on_c, 10, 59, 44
11, 31800, Note_on_c, 10, 59, 0
11, 31800, Note_on_c, 10, 62, 0
11, 31800, Note_on_c, 10, 62, 64
11, 31800, Note_on_c, 10, 59, 65
11, 31920, Note_on_c, 10, 59, 0
11, 31920, Note_on_c, 10, 62, 0
11, 31920, Note_on_c, 10, 62, 64
11, 31920, Note_on_c, 10, 59, 52
11, 32040, Note_on_c, 10, 59, 0
11, 32040, Note_on_c, 10, 62, 0
11, 32040, Note_on_c, 10, 59, 89
11, 32040, Note_on_c, 10, 62, 98
11, 32160, Note_on_c, 10, 62, 0
11, 32160, Note_on_c, 10, 59, 0
11, 32160, Note_on_c, 10, 62, 70
11, 32160, Note_on_c, 10, 60, 65
11, 32280, Note_on_c, 10, 60, 0
11, 32280, Note_on_c, 10, 62, 0
11, 32280, Note_on_c, 10, 62, 58
11, 32280, Note_on_c, 10, 60, 44
11, 32400, Note_on_c, 10, 60, 0
11, 32400, Note_on_c, 10, 62, 0
11, 32400, Note_on_c, 10, 62, 65
11, 32400, Note_on_c, 10, 60, 53
11, 32520, Note_on_c, 10, 60, 0
11, 32520, Note_on_c, 10, 62, 0
11, 32520, Note_on_c, 10, 60, 99
11, 32520, Note_on_c, 10, 62, 104
11, 32640, Note_on_c, 10, 62, 0
11, 32640, Note_on_c, 10, 60, 0
11, 32640, Note_on_c, 10, 62, 68
11, 32640, Note_on_c, 10, 59, 68
11, 32760, Note_on_c, 10, 59, 0
11, 32760, Note_on_c, 10, 62, 0
11, 32760, Note_on_c, 10, 62, 57
11, 32760, Note_on_c, 10, 59, 65
11, 32880, Note_on_c, 10, 59, 0
11, 32880, Note_on_c, 10, 62, 0
11, 32880, Note_on_c, 10, 62, 70
11, 32880, Note_on_c, 10, 59, 45
11, 33000, Note_on_c, 10, 59, 0
11, 33000, Note_on_c, 10, 62, 0
11, 33000, Note_on_c, 10, 59, 99
11, 33000, Note_on_c, 10, 62, 104
11, 33120, Note_on_c, 10, 62, 0
11, 33120, Note_on_c, 10, 59, 0
11, 33120, Note_on_c, 10, 62, 77
11, 33120, Note_on_c, 10, 60, 71
11, 33240, Note_on_c, 10, 60, 0
11, 33240, Note_on_c, 10, 62, 0
11, 33240, Note_on_c, 10, 62, 65
11, 33240, Note_on_c, 10, 60, 58
11, 33360, Note_on_c, 10, 60, 0
11, 33360, Note_on_c, 10, 62, 0
11, 33360, Note_on_c, 10, 62, 61
11, 33360, Note_on_c, 10, 60, 48
11, 33480, Note_on_c, 10, 60, 0
11, 33480, Note_on_c, 10, 62, 0
11, 33480, Note_on_c, 10, 60, 52
11, 33480, Note_on_c, 10, 62, 65
11, 33600, Note_on_c, 10, 62, 0
11, 33600, Note_on_c, 10, 60, 0
11, 33600, Note_on_c, 10, 69, 77
11, 33660, Note_on_c, 10, 69, 0
11, 33720, Note_on_c, 10, 69, 74
11, 33780, Note_on_c, 10, 69, 0
11, 33960, Note_on_c, 10, 69, 80
11, 34080, Note_on_c, 10, 69, 0
11, 34080, Note_on_c, 10, 62, 77
11, 34140, Note_on_c, 10, 62, 0
11, 34200, Note_on_c, 10, 62, 80
11, 34260, Note_on_c, 10, 62, 0
11, 34440, Note_on_c, 10, 67, 66
11, 34500, Note_on_c, 10, 67, 0
11, 34560, Note_on_c, 10, 64, 62
11, 34680, Note_on_c, 10, 64, 0
11, 34680, Note_on_c, 10, 64, 72
11, 34800, Note_on_c, 10, 64, 0
11, 34800, Note_on_c, 10, 64, 76
11, 34920, Note_on_c, 10, 64, 0
11, 34920, Note_on_c, 10, 64, 80
11, 35040, Note_on_c, 10, 64, 0
11, 35040, Note_on_c, 10, 62, 65
11, 35280, Note_on_c, 10, 62, 0
11, 35520, Note_on_c, 10, 59, 53
11, 35760, Note_on_c, 10, 59, 0
11, 35880, Note_on_c, 10, 59, 65
11, 36000, Note_on_c, 10, 59, 0
11, 36000, Note_on_c, 10, 60, 61
11, 36240, Note_on_c, 10, 60, 0
11, 36360, Note_on_c, 10, 60, 68
11, 36480, Note_on_c, 10, 60, 0
11, 36480, Note_on_c, 10, 59, 52
11, 36720, Note_on_c, 10, 59, 0
11, 36840, Note_on_c, 10, 59, 64
11, 36960, Note_on_c, 10, 59, 0
11, 36960, Note_on_c, 10, 60, 45
11, 37200, Note_on_c, 10, 60, 0
11, 40800, Note_on_c, 10, 67, 45
11, 40920, Note_on_c, 10, 67, 0
11, 40920, Note_on_c, 10, 67, 57
11, 41040, Note_on_c, 10, 67, 0
11, 41040, Note_on_c, 10, 67, 45
11, 41160, Note_on_c, 10, 67, 0
11, 41160, Note_on_c, 10, 67, 45
11, 41280, Note_on_c, 10, 67, 0
11, 41280, Note_on_c, 10, 67, 59
11, 41400, Note_on_c, 10, 67, 0
11, 41400, Note_on_c, 10, 67, 59
11, 41520, Note_on_c, 10, 67, 0
11, 41520, Note_on_c, 10, 68, 72
11, 41580, Note_on_c, 10, 68, 0
11, 41580, Note_on_c, 10, 67, 44
11, 41640, Note_on_c, 10, 67, 0
11, 41640, Note_on_c, 10, 65, 64
11, 41700, Note_on_c, 10, 65, 0
11, 41700, Note_on_c, 10, 67, 43
11, 41760, Note_on_c, 10, 67, 0
11, 41760, Note_on_c, 10, 68, 61
11, 41880, Note_on_c, 10, 68, 0
11, 41880, Note_on_c, 10, 67, 63
11, 42000, Note_on_c, 10, 67, 0
11, 42000, Note_on_c, 10, 65, 66
11, 42120, Note_on_c, 10, 65, 0
11, 42120, Note_on_c, 10, 63, 84
11, 42240, Note_on_c, 10, 63, 0
11, 42240, Note_on_c, 10, 62, 94
11, 42360, Note_on_c, 10, 62, 0
11, 42360, Note_on_c, 10, 60, 89
11, 42480, Note_on_c, 10, 60, 0
11, 42480, Note_on_c, 10, 62, 95
11, 42600, Note_on_c, 10, 62, 0
11, 42600, Note_on_c, 10, 58, 85
11, 42720, Note_on_c, 10, 58, 0
11, 42720, Note_on_c, 10, 70, 63
11, 43680, Note_on_c, 10, 70, 0
11, 43680, Note_on_c, 10, 70, 65
11, 44400, Note_on_c, 10, 70, 0
11, 51840, Note_on_c, 10, 59, 80
11, 52320, Note_on_c, 10, 59, 0
11, 52320, Note_on_c, 10, 62, 76
11, 52800, Note_on_c, 10, 62, 0
11, 52800, Note_on_c, 10, 60, 81
11, 53520, Note_on_c, 10, 60, 0
11, 53520, Note_on_c, 10, 64, 78
11, 53760, Note_on_c, 10, 64, 0
11, 53760, Note_on_c, 10, 62, 81
11, 54720, Note_on_c, 10, 62, 0
11, 54960, Note_on_c, 10, 55, 80
11, 55080, Note_on_c, 10, 55, 0
11, 55440, Note_on_c, 10, 62, 84
11, 55560, Note_on_c, 10, 62, 0
11, 55920, Note_on_c, 10, 57, 80
11, 56040, Note_on_c, 10, 57, 0
11, 56400, Note_on_c, 10, 64, 73
11, 56520, Note_on_c, 10, 64, 0
11, 56880, Note_on_c, 10, 59, 81
11, 57000, Note_on_c, 10, 59, 0
11, 57360, Note_on_c, 10, 57, 84
11, 57480, Note_on_c, 10, 57, 0
11, 57600, Note_on_c, 10, 59, 72
11, 57720, Note_on_c, 10, 59, 0
11, 61440, Note_on_c, 10, 67, 95
11, 61800, Note_on_c, 10, 67, 0
11, 61800, Note_on_c, 10, 55, 94
11, 61920, Note_on_c, 10, 55, 0
11, 61920, Note_on_c, 10, 55, 90
11, 62040, Note_on_c, 10, 55, 0
11, 62040, Note_on_c, 10, 55, 93
11, 62160, Note_on_c, 10, 55, 0
11, 62160, Note_on_c, 10, 55, 95
11, 62280, Note_on_c, 10, 55, 0
11, 62280, Note_on_c, 10, 55, 94
11, 62400, Note_on_c, 10, 55, 0
11, 62400, Note_on_c, 10, 56, 85
11, 62760, Note_on_c, 10, 56, 0
11, 62760, Note_on_c, 10, 68, 46
11, 62880, Note_on_c, 10, 68, 0
11, 62880, Note_on_c, 10, 66, 65
11, 63000, Note_on_c, 10, 66, 0
11, 63000, Note_on_c, 10, 65, 66
11, 63120, Note_on_c, 10, 65, 0
11, 63120, Note_on_c, 10, 65, 45
11, 63180, Note_on_c, 10, 65, 0
11, 63240, Note_on_c, 10, 68, 62
11, 63300, Note_on_c, 10, 68, 0
11, 63360, Note_on_c, 10, 66, 50
11, 63480, Note_on_c, 10, 66, 0
11, 63480, Note_on_c, 10, 65, 57
11, 63600, Note_on_c, 10, 65, 0
11, 63600, Note_on_c, 10, 65, 67
11, 63660, Note_on_c, 10, 65, 0
11, 63720, Note_on_c, 10, 55, 95
11, 63840, Note_on_c, 10, 55, 0
11, 63840, Note_on_c, 10, 56, 94
11, 63960, Note_on_c, 10, 56, 0
11, 63960, Note_on_c, 10, 56, 94
11, 64080, Note_on_c, 10, 56, 0
11, 64080, Note_on_c, 10, 57, 105
11, 64200, Note_on_c, 10, 57, 0
11, 64200, Note_on_c, 10, 57, 105
11, 64320, Note_on_c, 10, 57, 0
11, 64320, Note_on_c, 10, 58, 89
11, 64680, Note_on_c, 10, 58, 0
11, 64680, Note_on_c, 10, 70, 67
11, 64800, Note_on_c, 10, 70, 0
11, 64800, Note_on_c, 10, 68, 69
11, 64920, Note_on_c, 10, 68, 0
11, 64920, Note_on_c, 10, 67, 68
11, 65040, Note_on_c, 10, 67, 0
11, 65040, Note_on_c, 10, 67, 52
11, 65100, Note_on_c, 10, 67, 0
11, 65160, Note_on_c, 10, 70, 74
11, 65220, Note_on_c, 10, 70, 0
11, 65280, Note_on_c, 10, 68, 80
11, 65400, Note_on_c, 10, 68, 0
11, 65400, Note_on_c, 10, 67, 65
11, 65520, Note_on_c, 10, 67, 0
11, 65520, Note_on_c, 10, 67, 80
11, 65580, Note_on_c, 10, 67, 0
11, 65640, Note_on_c, 10, 57, 105
11, 65760, Note_on_c, 10, 57, 0
11, 65760, Note_on_c, 10, 58, 95
11, 65880, Note_on_c, 10, 58, 0
11, 65880, Note_on_c, 10, 58, 94
11, 66000, Note_on_c, 10, 58, 0
11, 66000, Note_on_c, 10, 59, 99
11, 66120, Note_on_c, 10, 59, 0
11, 66120, Note_on_c, 10, 59, 99
11, 66240, Note_on_c, 10, 59, 0
11, 66240, Note_on_c, 10, 60, 99
11, 66600, Note_on_c, 10, 60, 0
11, 68400, Note_on_c, 10, 62, 59
11, 68640, Note_on_c, 10, 62, 0
11, 68880, Note_on_c, 10, 62, 59
11, 69120, Note_on_c, 10, 62, 0
11, 69360, Note_on_c, 10, 62, 59
11, 69600, Note_on_c, 10, 62, 0
11, 69840, Note_on_c, 10, 62, 59
11, 70080, Note_on_c, 10, 62, 0
11, 82440, Note_on_c, 10, 64, 99
11, 82560, Note_on_c, 10, 64, 0
11, 82560, Note_on_c, 10, 64, 65
11, 82560, Note_on_c, 10, 55, 84
11, 82620, Note_on_c, 10, 55, 0
11, 82620, Note_on_c, 10, 64, 0
11, 82620, Note_on_c, 10, 64, 84
11, 82620, Note_on_c, 10, 55, 86
11, 82680, Note_on_c, 10, 55, 0
11, 82680, Note_on_c, 10, 64, 0
11, 82680, Note_on_c, 10, 64, 90
11, 82680, Note_on_c, 10, 55, 81
11, 82740, Note_on_c, 10, 55, 0
11, 82740, Note_on_c, 10, 64, 0
11, 82740, Note_on_c, 10, 64, 89
11, 82740, Note_on_c, 10, 55, 89
11, 82800, Note_on_c, 10, 55, 0
11, 82800, Note_on_c, 10, 64, 0
11, 82800, Note_on_c, 10, 64, 84
11, 82800, Note_on_c, 10, 55, 86
11, 82860, Note_on_c, 10, 55, 0
11, 82860, Note_on_c, 10, 64, 0
11, 82860, Note_on_c, 10, 64, 86
11, 82860, Note_on_c, 10, 55, 90
11, 82920, Note_on_c, 10, 55, 0
11, 82920, Note_on_c, 10, 64, 0
11, 82920, Note_on_c, 10, 64, 89
11, 82920, Note_on_c, 10, 55, 90
11, 82980, Note_on_c, 10, 55, 0
11, 82980, Note_on_c, 10, 64, 0
11, 82980, Note_on_c, 10, 55, 84
11, 82980, Note_on_c, 10, 64, 73
11, 83040, Note_on_c, 10, 64, 0
11, 83040, Note_on_c, 10, 55, 0
11, 83040, Note_on_c, 10, 64, 85
11, 83040, Note_on_c, 10, 55, 93
11, 83100, Note_on_c, 10, 55, 0
11, 83100, Note_on_c, 10, 64, 0
11, 83100, Note_on_c, 10, 64, 81
11, 83100, Note_on_c, 10, 55, 84
11, 83160, Note_on_c, 10, 55, 0
11, 83160, Note_on_c, 10, 64, 0
11, 83160, Note_on_c, 10, 64, 86
11, 83160, Note_on_c, 10, 55, 90
11, 83220, Note_on_c, 10, 55, 0
11, 83220, Note_on_c, 10, 64, 0
11, 83220, Note_on_c, 10, 64, 85
11, 83220, Note_on_c, 10, 55, 86
11, 83280, Note_on_c, 10, 55, 0
11, 83280, Note_on_c, 10, 64, 0
11, 83280, Note_on_c, 10, 64, 89
11, 83280, Note_on_c, 10, 55, 90
11, 83340, Note_on_c, 10, 55, 0
11, 83340, Note_on_c, 10, 64, 0
11, 83340, Note_on_c, 10, 64, 85
11, 83340, Note_on_c, 10, 55, 85
11, 83400, Note_on_c, 10, 55, 0
11, 83400, Note_on_c, 10, 64, 0
11, 83400, Note_on_c, 10, 64, 86
11, 83400, Note_on_c, 10, 55, 86
11, 83460, Note_on_c, 10, 55, 0
11, 83460, Note_on_c, 10, 64, 0
11, 83460, Note_on_c, 10, 55, 89
11, 83460, Note_on_c, 10, 64, 90
11, 83520, Note_on_c, 10, 64, 0
11, 83520, Note_on_c, 10, 55, 0
11, 83520, Note_on_c, 10, 64, 85
11, 83520, Note_on_c, 10, 55, 86
11, 83580, Note_on_c, 10, 55, 0
11, 83580, Note_on_c, 10, 64, 0
11, 83580, Note_on_c, 10, 64, 89
11, 83580, Note_on_c, 10, 55, 86
11, 83640, Note_on_c, 10, 55, 0
11, 83640, Note_on_c, 10, 64, 0
11, 83640, Note_on_c, 10, 64, 89
11, 83640, Note_on_c, 10, 55, 86
11, 83700, Note_on_c, 10, 55, 0
11, 83700, Note_on_c, 10, 64, 0
11, 83700, Note_on_c, 10, 64, 85
11, 83700, Note_on_c, 10, 55, 85
11, 83760, Note_on_c, 10, 55, 0
11, 83760, Note_on_c, 10, 64, 0
11, 83760, Note_on_c, 10, 64, 85
11, 83760, Note_on_c, 10, 55, 90
11, 83820, Note_on_c, 10, 55, 0
11, 83820, Note_on_c, 10, 64, 0
11, 83820, Note_on_c, 10, 64, 89
11, 83820, Note_on_c, 10, 55, 89
11, 83880, Note_on_c, 10, 55, 0
11, 83880, Note_on_c, 10, 64, 0
11, 83880, Note_on_c, 10, 64, 86
11, 83880, Note_on_c, 10, 55, 89
11, 83940, Note_on_c, 10, 55, 0
11, 83940, Note_on_c, 10, 64, 0
11, 83940, Note_on_c, 10, 55, 82
11, 83940, Note_on_c, 10, 64, 86
11, 84000, Note_on_c, 10, 64, 0
11, 84000, Note_on_c, 10, 55, 0
11, 84000, Note_on_c, 10, 62, 84
11, 84060, Note_on_c, 10, 62, 0
11, 84060, Note_on_c, 10, 62, 84
11, 84120, Note_on_c, 10, 62, 0
11, 84120, Note_on_c, 10, 59, 94
11, 84180, Note_on_c, 10, 59, 0
11, 84180, Note_on_c, 10, 59, 99
11, 84240, Note_on_c, 10, 59, 0
11, 84240, Note_on_c, 10, 64, 90
11, 84300, Note_on_c, 10, 64, 0
11, 84300, Note_on_c, 10, 64, 86
11, 84360, Note_on_c, 10, 64, 0
11, 84360, Note_on_c, 10, 60, 94
11, 84420, Note_on_c, 10, 60, 0
11, 84420, Note_on_c, 10, 60, 93
11, 84480, Note_on_c, 10, 60, 0
11, 84480, Note_on_c, 10, 59, 95
11, 84540, Note_on_c, 10, 59, 0
11, 84540, Note_on_c, 10, 59, 98
11, 84600, Note_on_c, 10, 59, 0
11, 84600, Note_on_c, 10, 59, 95
11, 84660, Note_on_c, 10, 59, 0
11, 84660, Note_on_c, 10, 59, 99
11, 84720, Note_on_c, 10, 59, 0
11, 84720, Note_on_c, 10, 64, 95
11, 84780, Note_on_c, 10, 64, 0
11, 84780, Note_on_c, 10, 64, 93
11, 84840, Note_on_c, 10, 64, 0
11, 84840, Note_on_c, 10, 60, 94
11, 84900, Note_on_c, 10, 60, 0
11, 84900, Note_on_c, 10, 60, 94
11, 84960, Note_on_c, 10, 60, 0
11, 84960, Note_on_c, 10, 59, 99
11, 85020, Note_on_c, 10, 59, 0
11, 85020, Note_on_c, 10, 62, 73
11, 85020, Note_on_c, 10, 59, 99
11, 85080, Note_on_c, 10, 59, 0
11, 85080, Note_on_c, 10, 62, 0
11, 85080, Note_on_c, 10, 62, 84
11, 85080, Note_on_c, 10, 59, 93
11, 85140, Note_on_c, 10, 59, 0
11, 85140, Note_on_c, 10, 62, 0
11, 85140, Note_on_c, 10, 62, 85
11, 85140, Note_on_c, 10, 59, 86
11, 85200, Note_on_c, 10, 59, 0
11, 85200, Note_on_c, 10, 62, 0
11, 85200, Note_on_c, 10, 62, 82
11, 85200, Note_on_c, 10, 59, 90
11, 85260, Note_on_c, 10, 59, 0
11, 85260, Note_on_c, 10, 62, 0
11, 85260, Note_on_c, 10, 62, 81
11, 85260, Note_on_c, 10, 59, 89
11, 85320, Note_on_c, 10, 59, 0
11, 85320, Note_on_c, 10, 62, 0
11, 85320, Note_on_c, 10, 62, 80
11, 85320, Note_on_c, 10, 59, 95
11, 85380, Note_on_c, 10, 59, 0
11, 85380, Note_on_c, 10, 62, 0
11, 85380, Note_on_c, 10, 59, 98
11, 85380, Note_on_c, 10, 62, 81
11, 85440, Note_on_c, 10, 62, 0
11, 85440, Note_on_c, 10, 59, 0
11, 85440, Note_on_c, 10, 62, 80
11, 85440, Note_on_c, 10, 59, 85
11, 85500, Note_on_c, 10, 59, 0
11, 85500, Note_on_c, 10, 62, 0
11, 85500, Note_on_c, 10, 62, 81
11, 85500, Note_on_c, 10, 59, 85
11, 85560, Note_on_c, 10, 59, 0
11, 85560, Note_on_c, 10, 62, 0
11, 85560, Note_on_c, 10, 62, 85
11, 85560, Note_on_c, 10, 59, 82
11, 85620, Note_on_c, 10, 59, 0
11, 85620, Note_on_c, 10, 62, 0
11, 85620, Note_on_c, 10, 62, 85
11, 85620, Note_on_c, 10, 59, 81
11, 85680, Note_on_c, 10, 59, 0
11, 85680, Note_on_c, 10, 62, 0
11, 85680, Note_on_c, 10, 62, 89
11, 85680, Note_on_c, 10, 59, 80
11, 85740, Note_on_c, 10, 59, 0
11, 85740, Note_on_c, 10, 62, 0
11, 85740, Note_on_c, 10, 62, 84
11, 85740, Note_on_c, 10, 59, 80
11, 85800, Note_on_c, 10, 59, 0
11, 85800, Note_on_c, 10, 62, 0
11, 85800, Note_on_c, 10, 62, 84
11, 85800, Note_on_c, 10, 59, 81
11, 85860, Note_on_c, 10, 59, 0
11, 85860, Note_on_c, 10, 62, 0
11, 85860, Note_on_c, 10, 59, 84
11, 85860, Note_on_c, 10, 62, 89
11, 85920, Note_on_c, 10, 62, 0
11, 85920, Note_on_c, 10, 59, 0
11, 85920, Note_on_c, 10, 62, 112
11, 85920, Note_on_c, 10, 59, 119
11, 85980, Note_on_c, 10, 59, 0
11, 85980, Note_on_c, 10, 62, 0
11, 85980, Note_on_c, 10, 62, 84
11, 85980, Note_on_c, 10, 59, 90
11, 86040, Note_on_c, 10, 59, 0
11, 86040, Note_on_c, 10, 62, 0
11, 86040, Note_on_c, 10, 62, 85
11, 86040, Note_on_c, 10, 59, 81
11, 86100, Note_on_c, 10, 59, 0
11, 86100, Note_on_c, 10, 62, 0
11, 86100, Note_on_c, 10, 62, 80
11, 86100, Note_on_c, 10, 59, 74
11, 86160, Note_on_c, 10, 59, 0
11, 86160, Note_on_c, 10, 62, 0
11, 86160, Note_on_c, 10, 62, 80
11, 86160, Note_on_c, 10, 59, 76
11, 86220, Note_on_c, 10, 59, 0
11, 86220, Note_on_c, 10, 62, 0
11, 86220, Note_on_c, 10, 62, 80
11, 86220, Note_on_c, 10, 59, 81
11, 86280, Note_on_c, 10, 59, 0
11, 86280, Note_on_c, 10, 62, 0
11, 86280, Note_on_c, 10, 62, 81
11, 86280, Note_on_c, 10, 59, 72
11, 86340, Note_on_c, 10, 59, 0
11, 86340, Note_on_c, 10, 62, 0
11, 86340, Note_on_c, 10, 59, 72
11, 86340, Note_on_c, 10, 62, 80
11, 86400, Note_on_c, 10, 62, 0
11, 86400, Note_on_c, 10, 59, 0
11, 86400, Note_on_c, 10, 62, 81
11, 86400, Note_on_c, 10, 59, 81
11, 86460, Note_on_c, 10, 59, 0
11, 86460, Note_on_c, 10, 62, 0
11, 86460, Note_on_c, 10, 62, 78
11, 86460, Note_on_c, 10, 59, 76
11, 86520, Note_on_c, 10, 59, 0
11, 86520, Note_on_c, 10, 62, 0
11, 86520, Note_on_c, 10, 62, 82
11, 86520, Note_on_c, 10, 59, 81
11, 86580, Note_on_c, 10, 59, 0
11, 86580, Note_on_c, 10, 62, 0
11, 86580, Note_on_c, 10, 62, 82
11, 86580, Note_on_c, 10, 59, 77
11, 86640, Note_on_c, 10, 59, 0
11, 86640, Note_on_c, 10, 62, 0
11, 86640, Note_on_c, 10, 62, 78
11, 86640, Note_on_c, 10, 59, 73
11, 86700, Note_on_c, 10, 59, 0
11, 86700, Note_on_c, 10, 62, 0
11, 86700, Note_on_c, 10, 62, 77
11, 86700, Note_on_c, 10, 59, 73
11, 86760, Note_on_c, 10, 59, 0
11, 86760, Note_on_c, 10, 62, 0
11, 86760, Note_on_c, 10, 62, 80
11, 86760, Note_on_c, 10, 59, 74
11, 86820, Note_on_c, 10, 59, 0
11, 86820, Note_on_c, 10, 62, 0
11, 86820, Note_on_c, 10, 59, 70
11, 86820, Note_on_c, 10, 62, 82
11, 86880, Note_on_c, 10, 62, 0
11, 86880, Note_on_c, 10, 59, 0
11, 86880, Note_on_c, 10, 62, 112
11, 86880, Note_on_c, 10, 59, 115
11, 86940, Note_on_c, 10, 59, 0
11, 86940, Note_on_c, 10, 62, 0
11, 86940, Note_on_c, 10, 62, 89
11, 86940, Note_on_c, 10, 59, 93
11, 87000, Note_on_c, 10, 59, 0
11, 87000, Note_on_c, 10, 62, 0
11, 87000, Note_on_c, 10, 62, 81
11, 87000, Note_on_c, 10, 59, 73
11, 87060, Note_on_c, 10, 59, 0
11, 87060, Note_on_c, 10, 62, 0
11, 87060, Note_on_c, 10, 62, 81
11, 87060, Note_on_c, 10, 59, 74
11, 87120, Note_on_c, 10, 59, 0
11, 87120, Note_on_c, 10, 62, 0
11, 87120, Note_on_c, 10, 62, 80
11, 87120, Note_on_c, 10, 59, 76
11, 87180, Note_on_c, 10, 59, 0
11, 87180, Note_on_c, 10, 62, 0
11, 87180, Note_on_c, 10, 62, 77
11, 87180, Note_on_c, 10, 59, 71
11, 87240, Note_on_c, 10, 59, 0
11, 87240, Note_on_c, 10, 62, 0
11, 87240, Note_on_c, 10, 62, 76
11, 87240, Note_on_c, 10, 59, 72
11, 87300, Note_on_c, 10, 59, 0
11, 87300, Note_on_c, 10, 62, 0
11, 87300, Note_on_c, 10, 59, 76
11, 87300, Note_on_c, 10, 62, 80
11, 87360, Note_on_c, 10, 62, 0
11, 87360, Note_on_c, 10, 59, 0
11, 87360, Note_on_c, 10, 62, 86
11, 87360, Note_on_c, 10, 59, 82
11, 87420, Note_on_c, 10, 59, 0
11, 87420, Note_on_c, 10, 62, 0
11, 87420, Note_on_c, 10, 62, 89
11, 87420, Note_on_c, 10, 59, 85
11, 87480, Note_on_c, 10, 59, 0
11, 87480, Note_on_c, 10, 62, 0
11, 87480, Note_on_c, 10, 62, 107
11, 87480, Note_on_c, 10, 60, 115
11, 87540, Note_on_c, 10, 60, 0
11, 87540, Note_on_c, 10, 62, 0
11, 87540, Note_on_c, 10, 62, 81
11, 87540, Note_on_c, 10, 60, 80
11, 87600, Note_on_c, 10, 60, 0
11, 87600, Note_on_c, 10, 62, 0
11, 87600, Note_on_c, 10, 62, 84
11, 87600, Note_on_c, 10, 59, 81
11, 87660, Note_on_c, 10, 59, 0
11, 87660, Note_on_c, 10, 62, 0
11, 87660, Note_on_c, 10, 62, 77
11, 87660, Note_on_c, 10, 59, 76
11, 87720, Note_on_c, 10, 59, 0
11, 87720, Note_on_c, 10, 62, 0
11, 87720, Note_on_c, 10, 62, 78
11, 87720, Note_on_c, 10, 59, 72
11, 87780, Note_on_c, 10, 59, 0
11, 87780, Note_on_c, 10, 62, 0
11, 87780, Note_on_c, 10, 59, 73
11, 87780, Note_on_c, 10, 62, 78
11, 87840, Note_on_c, 10, 62, 0
11, 87840, Note_on_c, 10, 59, 0
11, 87840, Note_on_c, 10, 62, 86
11, 87840, Note_on_c, 10, 59, 76
11, 87900, Note_on_c, 10, 59, 0
11, 87900, Note_on_c, 10, 62, 0
11, 87900, Note_on_c, 10, 62, 82
11, 87900, Note_on_c, 10, 59, 71
11, 87960, Note_on_c, 10, 59, 0
11, 87960, Note_on_c, 10, 62, 0
11, 87960, Note_on_c, 10, 62, 112
11, 87960, Note_on_c, 10, 60, 110
11, 88020, Note_on_c, 10, 60, 0
11, 88020, Note_on_c, 10, 62, 0
11, 88020, Note_on_c, 10, 62, 77
11, 88020, Note_on_c, 10, 60, 76
11, 88080, Note_on_c, 10, 60, 0
11, 88080, Note_on_c, 10, 62, 0
11, 88080, Note_on_c, 10, 62, 85
11, 88080, Note_on_c, 10, 59, 82
11, 88140, Note_on_c, 10, 59, 0
11, 88140, Note_on_c, 10, 62, 0
11, 88140, Note_on_c, 10, 62, 89
11, 88140, Note_on_c, 10, 59, 84
11, 88200, Note_on_c, 10, 59, 0
11, 88200, Note_on_c, 10, 62, 0
11, 88200, Note_on_c, 10, 62, 89
11, 88200, Note_on_c, 10, 59, 80
11, 88260, Note_on_c, 10, 59, 0
11, 88260, Note_on_c, 10, 62, 0
11, 88260, Note_on_c, 10, 59, 84
11, 88260, Note_on_c, 10, 62, 89
11, 88320, Note_on_c, 10, 62, 0
11, 88320, Note_on_c, 10, 59, 0
11, 88320, Note_on_c, 10, 62, 89
11, 88320, Note_on_c, 10, 59, 84
11, 88380, Note_on_c, 10, 59, 0
11, 88380, Note_on_c, 10, 62, 0
11, 88380, Note_on_c, 10, 62, 86
11, 88380, Note_on_c, 10, 59, 80
11, 88440, Note_on_c, 10, 59, 0
11, 88440, Note_on_c, 10, 62, 0
11, 88440, Note_on_c, 10, 71, 95
11, 88500, Note_on_c, 10, 71, 0
11, 88500, Note_on_c, 10, 71, 101
11, 88560, Note_on_c, 10, 71, 0
11, 88560, Note_on_c, 10, 72, 84
11, 88620, Note_on_c, 10, 72, 0
11, 88620, Note_on_c, 10, 72, 86
11, 88680, Note_on_c, 10, 72, 0
11, 88680, Note_on_c, 10, 69, 99
11, 88740, Note_on_c, 10, 69, 0
11, 88740, Note_on_c, 10, 69, 101
11, 88800, Note_on_c, 10, 69, 0
11, 88800, Note_on_c, 10, 64, 89
11, 88800, Note_on_c, 10, 55, 93
11, 88860, Note_on_c, 10, 55, 0
11, 88860, Note_on_c, 10, 64, 0
11, 88860, Note_on_c, 10, 64, 86
11, 88860, Note_on_c, 10, 55, 90
11, 88920, Note_on_c, 10, 55, 0
11, 88920, Note_on_c, 10, 64, 0
11, 88920, Note_on_c, 10, 64, 89
11, 88920, Note_on_c, 10, 55, 98
11, 88980, Note_on_c, 10, 55, 0
11, 88980, Note_on_c, 10, 64, 0
11, 88980, Note_on_c, 10, 64, 93
11, 88980, Note_on_c, 10, 55, 94
11, 89040, Note_on_c, 10, 55, 0
11, 89040, Note_on_c, 10, 64, 0
11, 89040, Note_on_c, 10, 65, 93
11, 89040, Note_on_c, 10, 55, 89
11, 89100, Note_on_c, 10, 55, 0
11, 89100, Note_on_c, 10, 65, 0
11, 89100, Note_on_c, 10, 65, 94
11, 89100, Note_on_c, 10, 55, 99
11, 89160, Note_on_c, 10, 55, 0
11, 89160, Note_on_c, 10, 65, 0
11, 89160, Note_on_c, 10, 65, 90
11, 89160, Note_on_c, 10, 55, 93
11, 89220, Note_on_c, 10, 55, 0
11, 89220, Note_on_c, 10, 65, 0
11, 89220, Note_on_c, 10, 55, 98
11, 89220, Note_on_c, 10, 65, 94
11, 89280, Note_on_c, 10, 65, 0
11, 89280, Note_on_c, 10, 55, 0
11, 89280, Note_on_c, 10, 64, 98
11, 89340, Note_on_c, 10, 64, 0
11, 89340, Note_on_c, 10, 64, 99
11, 89400, Note_on_c, 10, 64, 0
11, 89400, Note_on_c, 10, 67, 90
11, 89460, Note_on_c, 10, 67, 0
11, 89460, Note_on_c, 10, 67, 95
11, 89520, Note_on_c, 10, 67, 0
11, 89520, Note_on_c, 10, 64, 98
11, 89580, Note_on_c, 10, 64, 0
11, 89580, Note_on_c, 10, 64, 98
11, 89640, Note_on_c, 10, 64, 0
11, 89640, Note_on_c, 10, 67, 84
11, 89700, Note_on_c, 10, 67, 0
11, 89700, Note_on_c, 10, 67, 95
11, 89760, Note_on_c, 10, 67, 0
11, 89760, Note_on_c, 10, 64, 99
11, 89820, Note_on_c, 10, 64, 0
11, 89820, Note_on_c, 10, 64, 101
11, 89880, Note_on_c, 10, 64, 0
11, 89880, Note_on_c, 10, 67, 99
11, 89940, Note_on_c, 10, 67, 0
11, 89940, Note_on_c, 10, 67, 98
11, 90000, Note_on_c, 10, 67, 0
11, 90000, Note_on_c, 10, 65, 94
11, 90060, Note_on_c, 10, 65, 0
11, 90060, Note_on_c, 10, 65, 95
11, 90120, Note_on_c, 10, 65, 0
11, 90120, Note_on_c, 10, 67, 93
11, 90180, Note_on_c, 10, 67, 0
11, 90180, Note_on_c, 10, 67, 95
11, 90240, Note_on_c, 10, 67, 0
11, 90240, Note_on_c, 10, 72, 125
11, 90300, Note_on_c, 10, 72, 0
11, 90300, Note_on_c, 10, 71, 117
11, 90360, Note_on_c, 10, 71, 0
11, 90360, Note_on_c, 10, 69, 119
11, 90420, Note_on_c, 10, 69, 0
11, 90420, Note_on_c, 10, 67, 123
11, 90480, Note_on_c, 10, 67, 0
11, 90480, Note_on_c, 10, 65, 119
11, 90540, Note_on_c, 10, 65, 0
11, 90540, Note_on_c, 10, 64, 119
11, 90600, Note_on_c, 10, 64, 0
11, 90600, Note_on_c, 10, 62, 119
11, 90660, Note_on_c, 10, 62, 0
11, 90660, Note_on_c, 10, 60, 110
11, 90720, Note_on_c, 10, 60, 0
11, 90720, Note_on_c, 10, 62, 119
11, 90780, Note_on_c, 10, 62, 0
11, 90780, Note_on_c, 10, 62, 123
11, 90840, Note_on_c, 10, 62, 0
11, 90840, Note_on_c, 10, 64, 119
11, 90900, Note_on_c, 10, 64, 0
11, 90900, Note_on_c, 10, 64, 117
11, 90960, Note_on_c, 10, 64, 0
11, 90960, Note_on_c, 10, 65, 127
11, 91020, Note_on_c, 10, 65, 0
11, 91020, Note_on_c, 10, 65, 125
11, 91080, Note_on_c, 10, 65, 0
11, 91080, Note_on_c, 10, 65, 119
11, 91140, Note_on_c, 10, 65, 0
11, 91140, Note_on_c, 10, 65, 125
11, 91200, Note_on_c, 10, 65, 0
11, 91200, Note_on_c, 10, 64, 123
11, 91260, Note_on_c, 10, 64, 0
11, 91260, Note_on_c, 10, 64, 119
11, 91320, Note_on_c, 10, 64, 0
11, 91320, Note_on_c, 10, 65, 125
11, 91380, Note_on_c, 10, 65, 0
11, 91380, Note_on_c, 10, 65, 123
11, 91440, Note_on_c, 10, 65, 0
11, 91440, Note_on_c, 10, 64, 125
11, 91500, Note_on_c, 10, 64, 0
11, 91500, Note_on_c, 10, 64, 125
11, 91560, Note_on_c, 10, 64, 0
11, 91560, Note_on_c, 10, 65, 125
11, 91620, Note_on_c, 10, 65, 0
11, 91620, Note_on_c, 10, 65, 127
11, 91680, Note_on_c, 10, 65, 0
11, 91680, Note_on_c, 10, 64, 117
11, 91680, Note_on_c, 10, 55, 119
11, 91920, Note_on_c, 10, 55, 0
11, 91920, Note_on_c, 10, 64, 0
11, 92160, Note_on_c, 10, 60, 61
11, 92400, Note_on_c, 10, 60, 0
11, 92400, Note_on_c, 10, 64, 46
11, 92640, Note_on_c, 10, 64, 0
11, 92640, Note_on_c, 10, 62, 60
11, 92880, Note_on_c, 10, 62, 0
11, 92880, Note_on_c, 10, 59, 53
11, 93120, Note_on_c, 10, 59, 0
11, 93120, Note_on_c, 10, 60, 53
11, 93360, Note_on_c, 10, 60, 0
11, 93360, Note_on_c, 10, 64, 57
11, 93600, Note_on_c, 10, 64, 0
11, 93600, Note_on_c, 10, 62, 69
11, 93840, Note_on_c, 10, 62, 0
11, 93840, Note_on_c, 10, 59, 47
11, 94080, Note_on_c, 10, 59, 0
11, 94080, Note_on_c, 10, 60, 53
11, 94320, Note_on_c, 10, 60, 0
11, 94320, Note_on_c, 10, 57, 58
11, 94560, Note_on_c, 10, 57, 0
11, 94560, Note_on_c, 10, 59, 62
11, 94800, Note_on_c, 10, 59, 0
11, 94800, Note_on_c, 10, 61, 68
11, 95040, Note_on_c, 10, 61, 0
11, 95040, Note_on_c, 10, 59, 49
11, 95160, Note_on_c, 10, 59, 0
11, 95280, Note_on_c, 10, 59, 68
11, 95400, Note_on_c, 10, 59, 0
11, 95520, Note_on_c, 10, 59, 68
11, 95760, Note_on_c, 10, 59, 0
11, 96000, Note_on_c, 10, 60, 59
11, 96120, Note_on_c, 10, 60, 0
11, 96120, Note_on_c, 10, 60, 56
11, 96360, Note_on_c, 10, 60, 0
11, 96360, Note_on_c, 10, 60, 59
11, 96480, Note_on_c, 10, 60, 0
11, 96480, Note_on_c, 10, 62, 61
11, 96600, Note_on_c, 10, 62, 0
11, 96960, Note_on_c, 10, 60, 41
11, 97080, Note_on_c, 10, 60, 0
11, 97080, Note_on_c, 10, 60, 64
11, 97320, Note_on_c, 10, 60, 0
11, 97320, Note_on_c, 10, 60, 67
11, 97440, Note_on_c, 10, 60, 0
11, 97440, Note_on_c, 10, 62, 61
11, 97560, Note_on_c, 10, 62, 0
11, 97920, Note_on_c, 10, 60, 50
11, 98040, Note_on_c, 10, 60, 0
11, 98160, Note_on_c, 10, 64, 53
11, 98280, Note_on_c, 10, 64, 0
11, 98400, Note_on_c, 10, 64, 63
11, 98520, Note_on_c, 10, 64, 0
11, 98640, Note_on_c, 10, 64, 52
11, 98760, Note_on_c, 10, 64, 0
11, 98880, Note_on_c, 10, 64, 58
11, 99000, Note_on_c, 10, 64, 0
11, 99120, Note_on_c, 10, 57, 71
11, 99240, Note_on_c, 10, 57, 0
11, 99360, Note_on_c, 10, 55, 38
11, 99600, Note_on_c, 10, 55, 0
11, 104160, Note_on_c, 10, 60, 56
11, 104280, Note_on_c, 10, 60, 0
11, 105000, Note_on_c, 10, 61, 51
11, 105120, Note_on_c, 10, 61, 0
11, 105120, Note_on_c, 10, 62, 69
11, 105240, Note_on_c, 10, 62, 0
11, 105960, Note_on_c, 10, 59, 71
11, 106080, Note_on_c, 10, 59, 0
11, 106080, Note_on_c, 10, 60, 64
11, 106200, Note_on_c, 10, 60, 0
11, 108960, Note_on_c, 10, 60, 58
11, 109200, Note_on_c, 10, 60, 0
11, 109200, Note_on_c, 10, 64, 45
11, 109440, Note_on_c, 10, 64, 0
11, 109440, Note_on_c, 10, 62, 43
11, 109680, Note_on_c, 10, 62, 0
11, 109680, Note_on_c, 10, 59, 56
11, 109920, Note_on_c, 10, 59, 0
11, 109920, Note_on_c, 10, 60, 46
11, 110160, Note_on_c, 10, 60, 0
11, 110160, Note_on_c, 10, 64, 56
11, 110400, Note_on_c, 10, 64, 0
11, 110400, Note_on_c, 10, 62, 62
11, 110640, Note_on_c, 10, 62, 0
11, 110640, Note_on_c, 10, 59, 43
11, 110880, Note_on_c, 10, 59, 0
11, 110880, Note_on_c, 10, 60, 68
11, 111000, Note_on_c, 10, 60, 0
11, 111120, Note_on_c, 10, 57, 63
11, 111600, Note_on_c, 10, 57, 0
11, 111600, Note_on_c, 10, 57, 53
11, 112080, Note_on_c, 10, 57, 0
11, 112080, Note_on_c, 10, 56, 35
11, 112320, Note_on_c, 10, 56, 0
11, 112320, Note_on_c, 10, 57, 44
11, 112560, Note_on_c, 10, 57, 0
11, 112800, Note_on_c, 10, 60, 51
11, 113040, Note_on_c, 10, 60, 0
11, 113040, Note_on_c, 10, 64, 57
11, 113280, Note_on_c, 10, 64, 0
11, 113280, Note_on_c, 10, 65, 38
11, 113520, Note_on_c, 10, 65, 0
11, 113520, Note_on_c, 10, 62, 47
11, 114000, Note_on_c, 10, 62, 0
11, 114000, Note_on_c, 10, 62, 46
11, 114240, Note_on_c, 10, 62, 0
11, 114240, Note_on_c, 10, 60, 61
11, 114360, Note_on_c, 10, 60, 0
11, 119040, Note_on_c, 10, 60, 68
11, 119160, Note_on_c, 10, 60, 0
11, 119880, Note_on_c, 10, 66, 76
11, 120000, Note_on_c, 10, 66, 0
11, 120000, Note_on_c, 10, 67, 65
11, 120120, Note_on_c, 10, 67, 0
11, 120840, Note_on_c, 10, 64, 70
11, 120960, Note_on_c, 10, 64, 0
11, 120960, Note_on_c, 10, 65, 80
11, 121080, Note_on_c, 10, 65, 0
11, 123960, Note_on_c, 10, 71, 45
11, 124080, Note_on_c, 10, 71, 0
11, 124080, Note_on_c, 10, 69, 64
11, 124200, Note_on_c, 10, 69, 0
11, 124200, Note_on_c, 10, 67, 65
11, 124320, Note_on_c, 10, 67, 0
11, 124320, Note_on_c, 10, 65, 76
11, 124440, Note_on_c, 10, 65, 0
11, 124440, Note_on_c, 10, 64, 89
11, 124560, Note_on_c, 10, 64, 0
11, 124560, Note_on_c, 10, 62, 81
11, 124680, Note_on_c, 10, 62, 0
11, 124680, Note_on_c, 10, 64, 85
11, 124800, Note_on_c, 10, 64, 0
11, 124800, Note_on_c, 10, 65, 36
11, 124920, Note_on_c, 10, 65, 0
11, 124920, Note_on_c, 10, 65, 41
11, 125040, Note_on_c, 10, 65, 0
11, 125040, Note_on_c, 10, 62, 39
11, 125160, Note_on_c, 10, 62, 0
11, 125160, Note_on_c, 10, 62, 39
11, 125280, Note_on_c, 10, 62, 0
11, 125280, Note_on_c, 10, 60, 50
11, 125400, Note_on_c, 10, 60, 0
11, 125400, Note_on_c, 10, 60, 72
11, 125640, Note_on_c, 10, 60, 0
11, 125640, Note_on_c, 10, 60, 65
11, 125760, Note_on_c, 10, 60, 0
11, 125760, Note_on_c, 10, 62, 64
11, 125880, Note_on_c, 10, 62, 0
11, 126240, Note_on_c, 10, 60, 53
11, 126360, Note_on_c, 10, 60, 0
11, 126360, Note_on_c, 10, 60, 70
11, 126600, Note_on_c, 10, 60, 0
11, 126600, Note_on_c, 10, 60, 63
11, 126720, Note_on_c, 10, 60, 0
11, 126720, Note_on_c, 10, 62, 68
11, 126840, Note_on_c, 10, 62, 0
11, 127200, Note_on_c, 10, 60, 59
11, 127440, Note_on_c, 10, 60, 0
11, 127440, Note_on_c, 10, 60, 52
11, 127680, Note_on_c, 10, 60, 0
11, 127680, Note_on_c, 10, 60, 59
11, 127920, Note_on_c, 10, 60, 0
11, 127920, Note_on_c, 10, 61, 64
11, 128160, Note_on_c, 10, 61, 0
11, 128160, Note_on_c, 10, 62, 64
11, 128400, Note_on_c, 10, 62, 0
11, 128400, Note_on_c, 10, 57, 65
11, 128640, Note_on_c, 10, 57, 0
11, 128640, Note_on_c, 10, 60, 78
11, 128760, Note_on_c, 10, 60, 0
11, 128880, Note_on_c, 10, 59, 65
11, 129000, Note_on_c, 10, 59, 0
11, 129120, Note_on_c, 10, 60, 70
11, 129360, Note_on_c, 10, 60, 0
11, 129360, Note_on_c, 10, 60, 73
11, 129840, Note_on_c, 10, 60, 0
11, 129840, Note_on_c, 10, 57, 86
11, 130320, Note_on_c, 10, 57, 0
11, 130320, Note_on_c, 10, 57, 76
11, 130560, Note_on_c, 10, 57, 0
11, 130560, Note_on_c, 10, 60, 76
11, 130680, Note_on_c, 10, 60, 0
11, 130800, Note_on_c, 10, 59, 73
11, 130920, Note_on_c, 10, 59, 0
11, 131040, Note_on_c, 10, 57, 107
11, 131400, Note_on_c, 10, 57, 0
11, 131400, Note_on_c, 10, 57, 107
11, 131520, Note_on_c, 10, 57, 0
11, 131520, Note_on_c, 10, 57, 107
11, 131640, Note_on_c, 10, 57, 0
11, 131640, Note_on_c, 10, 57, 107
11, 131760, Note_on_c, 10, 57, 0
11, 131760, Note_on_c, 10, 57, 105
11, 131880, Note_on_c, 10, 57, 0
11, 131880, Note_on_c, 10, 57, 105
11, 132000, Note_on_c, 10, 57, 0
11, 132000, Note_on_c, 10, 58, 99
11, 132360, Note_on_c, 10, 58, 0
11, 133320, Note_on_c, 10, 57, 112
11, 133440, Note_on_c, 10, 57, 0
11, 133440, Note_on_c, 10, 58, 84
11, 133560, Note_on_c, 10, 58, 0
11, 133560, Note_on_c, 10, 58, 80
11, 133680, Note_on_c, 10, 58, 0
11, 133680, Note_on_c, 10, 59, 94
11, 133800, Note_on_c, 10, 59, 0
11, 133800, Note_on_c, 10, 59, 86
11, 133920, Note_on_c, 10, 59, 0
11, 133920, Note_on_c, 10, 60, 89
11, 134280, Note_on_c, 10, 60, 0
11, 135240, Note_on_c, 10, 59, 99
11, 135360, Note_on_c, 10, 59, 0
11, 135360, Note_on_c, 10, 60, 89
11, 135480, Note_on_c, 10, 60, 0
11, 135480, Note_on_c, 10, 60, 86
11, 135600, Note_on_c, 10, 60, 0
11, 135600, Note_on_c, 10, 61, 86
11, 135720, Note_on_c, 10, 61, 0
11, 135720, Note_on_c, 10, 61, 90
11, 135840, Note_on_c, 10, 61, 0
11, 135840, Note_on_c, 10, 62, 101
11, 136200, Note_on_c, 10, 62, 0
11, 138000, Note_on_c, 10, 64, 61
11, 138240, Note_on_c, 10, 64, 0
11, 138480, Note_on_c, 10, 64, 61
11, 138720, Note_on_c, 10, 64, 0
11, 138960, Note_on_c, 10, 64, 60
11, 139200, Note_on_c, 10, 64, 0
11, 139920, Note_on_c, 10, 60, 44
11, 140160, Note_on_c, 10, 60, 0
11, 140880, Note_on_c, 10, 62, 44
11, 141120, Note_on_c, 10, 62, 0
11, 141840, Note_on_c, 10, 58, 61
11, 142080, Note_on_c, 10, 58, 0
11, 142560, Note_on_c, 10, 57, 43
11, 143280, Note_on_c, 10, 57, 0
11, 143280, Note_on_c, 10, 60, 43
11, 143520, Note_on_c, 10, 60, 0
11, 143520, Note_on_c, 10, 59, 74
11, 143640, Note_on_c, 10, 59, 0
11, 143640, Note_on_c, 10, 55, 62
11, 143700, Note_on_c, 10, 55, 0
11, 143700, Note_on_c, 10, 57, 85
11, 143760, Note_on_c, 10, 57, 0
11, 143760, Note_on_c, 10, 59, 72
11, 143820, Note_on_c, 10, 59, 0
11, 144600, Note_on_c, 10, 57, 68
11, 144660, Note_on_c, 10, 57, 0
11, 144660, Note_on_c, 10, 59, 62
11, 144720, Note_on_c, 10, 59, 0
11, 144720, Note_on_c, 10, 60, 58
11, 144780, Note_on_c, 10, 60, 0
11, 145560, Note_on_c, 10, 59, 52
11, 145620, Note_on_c, 10, 59, 0
11, 145620, Note_on_c, 10, 60, 70
11, 145680, Note_on_c, 10, 60, 0
11, 145680, Note_on_c, 10, 62, 70
11, 145740, Note_on_c, 10, 62, 0
11, 158760, Note_on_c, 10, 64, 99
11, 158880, Note_on_c, 10, 64, 0
11, 158880, Note_on_c, 10, 64, 65
11, 158880, Note_on_c, 10, 55, 84
11, 158940, Note_on_c, 10, 55, 0
11, 158940, Note_on_c, 10, 64, 0
11, 158940, Note_on_c, 10, 64, 84
11, 158940, Note_on_c, 10, 55, 86
11, 159000, Note_on_c, 10, 55, 0
11, 159000, Note_on_c, 10, 64, 0
11, 159000, Note_on_c, 10, 64, 90
11, 159000, Note_on_c, 10, 55, 81
11, 159060, Note_on_c, 10, 55, 0
11, 159060, Note_on_c, 10, 64, 0
11, 159060, Note_on_c, 10, 64, 89
11, 159060, Note_on_c, 10, 55, 89
11, 159120, Note_on_c, 10, 55, 0
11, 159120, Note_on_c, 10, 64, 0
11, 159120, Note_on_c, 10, 64, 84
11, 159120, Note_on_c, 10, 55, 86
11, 159180, Note_on_c, 10, 55, 0
11, 159180, Note_on_c, 10, 64, 0
11, 159180, Note_on_c, 10, 64, 86
11, 159180, Note_on_c, 10, 55, 90
11, 159240, Note_on_c, 10, 55, 0
11, 159240, Note_on_c, 10, 64, 0
11, 159240, Note_on_c, 10, 64, 89
11, 159240, Note_on_c, 10, 55, 90
11, 159300, Note_on_c, 10, 55, 0
11, 159300, Note_on_c, 10, 64, 0
11, 159300, Note_on_c, 10, 55, 84
11, 159300, Note_on_c, 10, 64, 73
11, 159360, Note_on_c, 10, 64, 0
11, 159360, Note_on_c, 10, 55, 0
11, 159360, Note_on_c, 10, 64, 85
11, 159360, Note_on_c, 10, 55, 93
11, 159420, Note_on_c, 10, 55, 0
11, 159420, Note_on_c, 10, 64, 0
11, 159420, Note_on_c, 10, 64, 81
11, 159420, Note_on_c, 10, 55, 84
11, 159480, Note_on_c, 10, 55, 0
11, 159480, Note_on_c, 10, 64, 0
11, 159480, Note_on_c, 10, 64, 86
11, 159480, Note_on_c, 10, 55, 90
11, 159540, Note_on_c, 10, 55, 0
11, 159540, Note_on_c, 10, 64, 0
11, 159540, Note_on_c, 10, 64, 85
11, 159540, Note_on_c, 10, 55, 86
11, 159600, Note_on_c, 10, 55, 0
11, 159600, Note_on_c, 10, 64, 0
11, 159600, Note_on_c, 10, 64, 89
11, 159600, Note_on_c, 10, 55, 90
11, 159660, Note_on_c, 10, 55, 0
11, 159660, Note_on_c, 10, 64, 0
11, 159660, Note_on_c, 10, 64, 85
11, 159660, Note_on_c, 10, 55, 85
11, 159720, Note_on_c, 10, 55, 0
11, 159720, Note_on_c, 10, 64, 0
11, 159720, Note_on_c, 10, 64, 86
11, 159720, Note_on_c, 10, 55, 86
11, 159780, Note_on_c, 10, 55, 0
11, 159780, Note_on_c, 10, 64, 0
11, 159780, Note_on_c, 10, 55, 89
11, 159780, Note_on_c, 10, 64, 90
11, 159840, Note_on_c, 10, 64, 0
11, 159840, Note_on_c, 10, 55, 0
11, 159840, Note_on_c, 10, 64, 85
11, 159840, Note_on_c, 10, 55, 86
11, 159900, Note_on_c, 10, 55, 0
11, 159900, Note_on_c, 10, 64, 0
11, 159900, Note_on_c, 10, 64, 89
11, 159900, Note_on_c, 10, 55, 86
11, 159960, Note_on_c, 10, 55, 0
11, 159960, Note_on_c, 10, 64, 0
11, 159960, Note_on_c, 10, 64, 89
11, 159960, Note_on_c, 10, 55, 86
11, 160020, Note_on_c, 10, 55, 0
11, 160020, Note_on_c, 10, 64, 0
11, 160020, Note_on_c, 10, 64, 85
11, 160020, Note_on_c, 10, 55, 85
11, 160080, Note_on_c, 10, 55, 0
11, 160080, Note_on_c, 10, 64, 0
11, 160080, Note_on_c, 10, 64, 85
11, 160080, Note_on_c, 10, 55, 90
11, 160140, Note_on_c, 10, 55, 0
11, 160140, Note_on_c, 10, 64, 0
11, 160140, Note_on_c, 10, 64, 89
11, 160140, Note_on_c, 10, 55, 89
11, 160200, Note_on_c, 10, 55, 0
11, 160200, Note_on_c, 10, 64, 0
11, 160200, Note_on_c, 10, 64, 86
11, 160200, Note_on_c, 10, 55, 89
11, 160260, Note_on_c, 10, 55, 0
11, 160260, Note_on_c, 10, 64, 0
11, 160260, Note_on_c, 10, 55, 82
11, 160260, Note_on_c, 10, 64, 86
11, 160320, Note_on_c, 10, 64, 0
11, 160320, Note_on_c, 10, 55, 0
11, 160320, Note_on_c, 10, 62, 84
11, 160380, Note_on_c, 10, 62, 0
11, 160380, Note_on_c, 10, 62, 84
11, 160440, Note_on_c, 10, 62, 0
11, 160440, Note_on_c, 10, 59, 94
11, 160500, Note_on_c, 10, 59, 0
11, 160500, Note_on_c, 10, 59, 99
11, 160560, Note_on_c, 10, 59, 0
11, 160560, Note_on_c, 10, 64, 90
11, 160620, Note_on_c, 10, 64, 0
11, 160620, Note_on_c, 10, 64, 86
11, 160680, Note_on_c, 10, 64, 0
11, 160680, Note_on_c, 10, 60, 94
11, 160740, Note_on_c, 10, 60, 0
11, 160740, Note_on_c, 10, 60, 93
11, 160800, Note_on_c, 10, 60, 0
11, 160800, Note_on_c, 10, 59, 95
11, 160860, Note_on_c, 10, 59, 0
11, 160860, Note_on_c, 10, 59, 98
11, 160920, Note_on_c, 10, 59, 0
11, 160920, Note_on_c, 10, 59, 95
11, 160980, Note_on_c, 10, 59, 0
11, 160980, Note_on_c, 10, 59, 99
11, 161040, Note_on_c, 10, 59, 0
11, 161040, Note_on_c, 10, 64, 95
11, 161100, Note_on_c, 10, 64, 0
11, 161100, Note_on_c, 10, 64, 93
11, 161160, Note_on_c, 10, 64, 0
11, 161160, Note_on_c, 10, 60, 94
11, 161220, Note_on_c, 10, 60, 0
11, 161220, Note_on_c, 10, 60, 94
11, 161280, Note_on_c, 10, 60, 0
11, 161280, Note_on_c, 10, 59, 99
11, 161340, Note_on_c, 10, 59, 0
11, 161340, Note_on_c, 10, 62, 73
11, 161340, Note_on_c, 10, 59, 99
11, 161400, Note_on_c, 10, 59, 0
11, 161400, Note_on_c, 10, 62, 0
11, 161400, Note_on_c, 10, 62, 84
11, 161400, Note_on_c, 10, 59, 93
11, 161460, Note_on_c, 10, 59, 0
11, 161460, Note_on_c, 10, 62, 0
11, 161460, Note_on_c, 10, 62, 85
11, 161460, Note_on_c, 10, 59, 86
11, 161520, Note_on_c, 10, 59, 0
11, 161520, Note_on_c, 10, 62, 0
11, 161520, Note_on_c, 10, 62, 82
11, 161520, Note_on_c, 10, 59, 90
11, 161580, Note_on_c, 10, 59, 0
11, 161580, Note_on_c, 10, 62, 0
11, 161580, Note_on_c, 10, 62, 81
11, 161580, Note_on_c, 10, 59, 89
11, 161640, Note_on_c, 10, 59, 0
11, 161640, Note_on_c, 10, 62, 0
11, 161640, Note_on_c, 10, 62, 80
11, 161640, Note_on_c, 10, 59, 95
11, 161700, Note_on_c, 10, 59, 0
11, 161700, Note_on_c, 10, 62, 0
11, 161700, Note_on_c, 10, 59, 98
11, 161700, Note_on_c, 10, 62, 81
11, 161760, Note_on_c, 10, 62, 0
11, 161760, Note_on_c, 10, 59, 0
11, 161760, Note_on_c, 10, 62, 80
11, 161760, Note_on_c, 10, 59, 85
11, 161820, Note_on_c, 10, 59, 0
11, 161820, Note_on_c, 10, 62, 0
11, 161820, Note_on_c, 10, 62, 81
11, 161820, Note_on_c, 10, 59, 85
11, 161880, Note_on_c, 10, 59, 0
11, 161880, Note_on_c, 10, 62, 0
11, 161880, Note_on_c, 10, 62, 85
11, 161880, Note_on_c, 10, 59, 82
11, 161940, Note_on_c, 10, 59, 0
11, 161940, Note_on_c, 10, 62, 0
11, 161940, Note_on_c, 10, 62, 85
11, 161940, Note_on_c, 10, 59, 81
11, 162000, Note_on_c, 10, 59, 0
11, 162000, Note_on_c, 10, 62, 0
11, 162000, Note_on_c, 10, 62, 89
11, 162000, Note_on_c, 10, 59, 80
11, 162060, Note_on_c, 10, 59, 0
11, 162060, Note_on_c, 10, 62, 0
11, 162060, Note_on_c, 10, 62, 84
11, 162060, Note_on_c, 10, 59, 80
11, 162120, Note_on_c, 10, 59, 0
11, 162120, Note_on_c, 10, 62, 0
11, 162120, Note_on_c, 10, 62, 84
11, 162120, Note_on_c, 10, 59, 81
11, 162180, Note_on_c, 10, 59, 0
11, 162180, Note_on_c, 10, 62, 0
11, 162180, Note_on_c, 10, 59, 84
11, 162180, Note_on_c, 10, 62, 89
11, 162240, Note_on_c, 10, 62, 0
11, 162240, Note_on_c, 10, 59, 0
11, 162240, Note_on_c, 10, 62, 112
11, 162240, Note_on_c, 10, 59, 119
11, 162300, Note_on_c, 10, 59, 0
11, 162300, Note_on_c, 10, 62, 0
11, 162300, Note_on_c, 10, 62, 84
11, 162300, Note_on_c, 10, 59, 90
11, 162360, Note_on_c, 10, 59, 0
11, 162360, Note_on_c, 10, 62, 0
11, 162360, Note_on_c, 10, 62, 85
11, 162360, Note_on_c, 10, 59, 81
11, 162420, Note_on_c, 10, 59, 0
11, 162420, Note_on_c, 10, 62, 0
11, 162420, Note_on_c, 10, 62, 80
11, 162420, Note_on_c, 10, 59, 74
11, 162480, Note_on_c, 10, 59, 0
11, 162480, Note_on_c, 10, 62, 0
11, 162480, Note_on_c, 10, 62, 80
11, 162480, Note_on_c, 10, 59, 76
11, 162540, Note_on_c, 10, 59, 0
11, 162540, Note_on_c, 10, 62, 0
11, 162540, Note_on_c, 10, 62, 80
11, 162540, Note_on_c, 10, 59, 81
11, 162600, Note_on_c, 10, 59, 0
11, 162600, Note_on_c, 10, 62, 0
11, 162600, Note_on_c, 10, 62, 81
11, 162600, Note_on_c, 10, 59, 72
11, 162660, Note_on_c, 10, 59, 0
11, 162660, Note_on_c, 10, 62, 0
11, 162660, Note_on_c, 10, 59, 72
11, 162660, Note_on_c, 10, 62, 80
11, 162720, Note_on_c, 10, 62, 0
11, 162720, Note_on_c, 10, 59, 0
11, 162720, Note_on_c, 10, 62, 81
11, 162720, Note_on_c, 10, 59, 81
11, 162780, Note_on_c, 10, 59, 0
11, 162780, Note_on_c, 10, 62, 0
11, 162780, Note_on_c, 10, 62, 78
11, 162780, Note_on_c, 10, 59, 76
11, 162840, Note_on_c, 10, 59, 0
11, 162840, Note_on_c, 10, 62, 0
11, 162840, Note_on_c, 10, 62, 82
11, 162840, Note_on_c, 10, 59, 81
11, 162900, Note_on_c, 10, 59, 0
11, 162900, Note_on_c, 10, 62, 0
11, 162900, Note_on_c, 10, 62, 82
11, 162900, Note_on_c, 10, 59, 77
11, 162960, Note_on_c, 10, 59, 0
11, 162960, Note_on_c, 10, 62, 0
11, 162960, Note_on_c, 10, 62, 78
11, 162960, Note_on_c, 10, 59, 73
11, 163020, Note_on_c, 10, 59, 0
11, 163020, Note_on_c, 10, 62, 0
11, 163020, Note_on_c, 10, 62, 77
11, 163020, Note_on_c, 10, 59, 73
11, 163080, Note_on_c, 10, 59, 0
11, 163080, Note_on_c, 10, 62, 0
11, 163080, Note_on_c, 10, 62, 80
11, 163080, Note_on_c, 10, 59, 74
11, 163140, Note_on_c, 10, 59, 0
11, 163140, Note_on_c, 10, 62, 0
11, 163140, Note_on_c, 10, 59, 70
11, 163140, Note_on_c, 10, 62, 82
11, 163200, Note_on_c, 10, 62, 0
11, 163200, Note_on_c, 10, 59, 0
11, 163200, Note_on_c, 10, 62, 112
11, 163200, Note_on_c, 10, 59, 115
11, 163260, Note_on_c, 10, 59, 0
11, 163260, Note_on_c, 10, 62, 0
11, 163260, Note_on_c, 10, 62, 89
11, 163260, Note_on_c, 10, 59, 93
11, 163320, Note_on_c, 10, 59, 0
11, 163320, Note_on_c, 10, 62, 0
11, 163320, Note_on_c, 10, 62, 81
11, 163320, Note_on_c, 10, 59, 73
11, 163380, Note_on_c, 10, 59, 0
11, 163380, Note_on_c, 10, 62, 0
11, 163380, Note_on_c, 10, 62, 81
11, 163380, Note_on_c, 10, 59, 74
11, 163440, Note_on_c, 10, 59, 0
11, 163440, Note_on_c, 10, 62, 0
11, 163440, Note_on_c, 10, 62, 80
11, 163440, Note_on_c, 10, 59, 76
11, 163500, Note_on_c, 10, 59, 0
11, 163500, Note_on_c, 10, 62, 0
11, 163500, Note_on_c, 10, 62, 77
11, 163500, Note_on_c, 10, 59, 71
11, 163560, Note_on_c, 10, 59, 0
11, 163560, Note_on_c, 10, 62, 0
11, 163560, Note_on_c, 10, 62, 76
11, 163560, Note_on_c, 10, 59, 72
11, 163620, Note_on_c, 10, 59, 0
11, 163620, Note_on_c, 10, 62, 0
11, 163620, Note_on_c, 10, 59, 76
11, 163620, Note_on_c, 10, 62, 80
11, 163680, Note_on_c, 10, 62, 0
11, 163680, Note_on_c, 10, 59, 0
11, 163680, Note_on_c, 10, 62, 86
11, 163680, Note_on_c, 10, 59, 82
11, 163740, Note_on_c, 10, 59, 0
11, 163740, Note_on_c, 10, 62, 0
11, 163740, Note_on_c, 10, 62, 89
11, 163740, Note_on_c, 10, 59, 85
11, 163800, Note_on_c, 10, 59, 0
11, 163800, Note_on_c, 10, 62, 0
11, 163800, Note_on_c, 10, 62, 107
11, 163800, Note_on_c, 10, 60, 115
11, 163860, Note_on_c, 10, 60, 0
11, 163860, Note_on_c, 10, 62, 0
11, 163860, Note_on_c, 10, 62, 81
11, 163860, Note_on_c, 10, 60, 80
11, 163920, Note_on_c, 10, 60, 0
11, 163920, Note_on_c, 10, 62, 0
11, 163920, Note_on_c, 10, 62, 84
11, 163920, Note_on_c, 10, 59, 81
11, 163980, Note_on_c, 10, 59, 0
11, 163980, Note_on_c, 10, 62, 0
11, 163980, Note_on_c, 10, 62, 77
11, 163980, Note_on_c, 10, 59, 76
11, 164040, Note_on_c, 10, 59, 0
11, 164040, Note_on_c, 10, 62, 0
11, 164040, Note_on_c, 10, 62, 78
11, 164040, Note_on_c, 10, 59, 72
11, 164100, Note_on_c, 10, 59, 0
11, 164100, Note_on_c, 10, 62, 0
11, 164100, Note_on_c, 10, 59, 73
11, 164100, Note_on_c, 10, 62, 78
11, 164160, Note_on_c, 10, 62, 0
11, 164160, Note_on_c, 10, 59, 0
11, 164160, Note_on_c, 10, 62, 86
11, 164160, Note_on_c, 10, 59, 76
11, 164220, Note_on_c, 10, 59, 0
11, 164220, Note_on_c, 10, 62, 0
11, 164220, Note_on_c, 10, 62, 82
11, 164220, Note_on_c, 10, 59, 71
11, 164280, Note_on_c, 10, 59, 0
11, 164280, Note_on_c, 10, 62, 0
11, 164280, Note_on_c, 10, 62, 112
11, 164280, Note_on_c, 10, 60, 110
11, 164340, Note_on_c, 10, 60, 0
11, 164340, Note_on_c, 10, 62, 0
11, 164340, Note_on_c, 10, 62, 77
11, 164340, Note_on_c, 10, 60, 76
11, 164400, Note_on_c, 10, 60, 0
11, 164400, Note_on_c, 10, 62, 0
11, 164400, Note_on_c, 10, 62, 85
11, 164400, Note_on_c, 10, 59, 82
11, 164460, Note_on_c, 10, 59, 0
11, 164460, Note_on_c, 10, 62, 0
11, 164460, Note_on_c, 10, 62, 89
11, 164460, Note_on_c, 10, 59, 84
11, 164520, Note_on_c, 10, 59, 0
11, 164520, Note_on_c, 10, 62, 0
11, 164520, Note_on_c, 10, 62, 89
11, 164520, Note_on_c, 10, 59, 80
11, 164580, Note_on_c, 10, 59, 0
11, 164580, Note_on_c, 10, 62, 0
11, 164580, Note_on_c, 10, 59, 84
11, 164580, Note_on_c, 10, 62, 89
11, 164640, Note_on_c, 10, 62, 0
11, 164640, Note_on_c, 10, 59, 0
11, 164640, Note_on_c, 10, 62, 89
11, 164640, Note_on_c, 10, 59, 84
11, 164700, Note_on_c, 10, 59, 0
11, 164700, Note_on_c, 10, 62, 0
11, 164700, Note_on_c, 10, 62, 86
11, 164700, Note_on_c, 10, 59, 80
11, 164760, Note_on_c, 10, 59, 0
11, 164760, Note_on_c, 10, 62, 0
11, 164760, Note_on_c, 10, 71, 95
11, 164820, Note_on_c, 10, 71, 0
11, 164820, Note_on_c, 10, 71, 101
11, 164880, Note_on_c, 10, 71, 0
11, 164880, Note_on_c, 10, 72, 84
11, 164940, Note_on_c, 10, 72, 0
11, 164940, Note_on_c, 10, 72, 86
11, 165000, Note_on_c, 10, 72, 0
11, 165000, Note_on_c, 10, 69, 99
11, 165060, Note_on_c, 10, 69, 0
11, 165060, Note_on_c, 10, 69, 101
11, 165120, Note_on_c, 10, 69, 0
11, 165120, Note_on_c, 10, 64, 89
11, 165120, Note_on_c, 10, 55, 93
11, 165180, Note_on_c, 10, 55, 0
11, 165180, Note_on_c, 10, 64, 0
11, 165180, Note_on_c, 10, 64, 86
11, 165180, Note_on_c, 10, 55, 90
11, 165240, Note_on_c, 10, 55, 0
11, 165240, Note_on_c, 10, 64, 0
11, 165240, Note_on_c, 10, 64, 89
11, 165240, Note_on_c, 10, 55, 98
11, 165300, Note_on_c, 10, 55, 0
11, 165300, Note_on_c, 10, 64, 0
11, 165300, Note_on_c, 10, 64, 93
11, 165300, Note_on_c, 10, 55, 94
11, 165360, Note_on_c, 10, 55, 0
11, 165360, Note_on_c, 10, 64, 0
11, 165360, Note_on_c, 10, 65, 93
11, 165360, Note_on_c, 10, 55, 89
11, 165420, Note_on_c, 10, 55, 0
11, 165420, Note_on_c, 10, 65, 0
11, 165420, Note_on_c, 10, 65, 94
11, 165420, Note_on_c, 10, 55, 99
11, 165480, Note_on_c, 10, 55, 0
11, 165480, Note_on_c, 10, 65, 0
11, 165480, Note_on_c, 10, 65, 90
11, 165480, Note_on_c, 10, 55, 93
11, 165540, Note_on_c, 10, 55, 0
11, 165540, Note_on_c, 10, 65, 0
11, 165540, Note_on_c, 10, 55, 98
11, 165540, Note_on_c, 10, 65, 94
11, 165600, Note_on_c, 10, 65, 0
11, 165600, Note_on_c, 10, 55, 0
11, 165600, Note_on_c, 10, 64, 98
11, 165660, Note_on_c, 10, 64, 0
11, 165660, Note_on_c, 10, 64, 99
11, 165720, Note_on_c, 10, 64, 0
11, 165720, Note_on_c, 10, 67, 90
11, 165780, Note_on_c, 10, 67, 0
11, 165780, Note_on_c, 10, 67, 95
11, 165840, Note_on_c, 10, 67, 0
11, 165840, Note_on_c, 10, 64, 98
11, 165900, Note_on_c, 10, 64, 0
11, 165900, Note_on_c, 10, 64, 98
11, 165960, Note_on_c, 10, 64, 0
11, 165960, Note_on_c, 10, 67, 84
11, 166020, Note_on_c, 10, 67, 0
11, 166020, Note_on_c, 10, 67, 95
11, 166080, Note_on_c, 10, 67, 0
11, 166080, Note_on_c, 10, 64, 99
11, 166140, Note_on_c, 10, 64, 0
11, 166140, Note_on_c, 10, 64, 101
11, 166200, Note_on_c, 10, 64, 0
11, 166200, Note_on_c, 10, 67, 99
11, 166260, Note_on_c, 10, 67, 0
11, 166260, Note_on_c, 10, 67, 98
11, 166320, Note_on_c, 10, 67, 0
11, 166320, Note_on_c, 10, 65, 94
11, 166380, Note_on_c, 10, 65, 0
11, 166380, Note_on_c, 10, 65, 95
11, 166440, Note_on_c, 10, 65, 0
11, 166440, Note_on_c, 10, 67, 93
11, 166500, Note_on_c, 10, 67, 0
11, 166500, Note_on_c, 10, 67, 95
11, 166560, Note_on_c, 10, 67, 0
11, 166560, Note_on_c, 10, 72, 125
11, 166620, Note_on_c, 10, 72, 0
11, 166620, Note_on_c, 10, 71, 117
11, 166680, Note_on_c, 10, 71, 0
11, 166680, Note_on_c, 10, 69, 119
11, 166740, Note_on_c, 10, 69, 0
11, 166740, Note_on_c, 10, 67, 123
11, 166800, Note_on_c, 10, 67, 0
11, 166800, Note_on_c, 10, 65, 119
11, 166860, Note_on_c, 10, 65, 0
11, 166860, Note_on_c, 10, 64, 119
11, 166920, Note_on_c, 10, 64, 0
11, 166920, Note_on_c, 10, 62, 119
11, 166980, Note_on_c, 10, 62, 0
11, 166980, Note_on_c, 10, 60, 110
11, 167040, Note_on_c, 10, 60, 0
11, 167040, Note_on_c, 10, 62, 119
11, 167100, Note_on_c, 10, 62, 0
11, 167100, Note_on_c, 10, 62, 123
11, 167160, Note_on_c, 10, 62, 0
11, 167160, Note_on_c, 10, 64, 119
11, 167220, Note_on_c, 10, 64, 0
11, 167220, Note_on_c, 10, 64, 117
11, 167280, Note_on_c, 10, 64, 0
11, 167280, Note_on_c, 10, 65, 127
11, 167340, Note_on_c, 10, 65, 0
11, 167340, Note_on_c, 10, 65, 125
11, 167400, Note_on_c, 10, 65, 0
11, 167400, Note_on_c, 10, 65, 119
11, 167460, Note_on_c, 10, 65, 0
11, 167460, Note_on_c, 10, 65, 125
11, 167520, Note_on_c, 10, 65, 0
11, 167520, Note_on_c, 10, 64, 123
11, 167580, Note_on_c, 10, 64, 0
11, 167580, Note_on_c, 10, 64, 119
11, 167640, Note_on_c, 10, 64, 0
11, 167640, Note_on_c, 10, 65, 125
11, 167700, Note_on_c, 10, 65, 0
11, 167700, Note_on_c, 10, 65, 123
11, 167760, Note_on_c, 10, 65, 0
11, 167760, Note_on_c, 10, 64, 125
11, 167820, Note_on_c, 10, 64, 0
11, 167820, Note_on_c, 10, 64, 125
11, 167880, Note_on_c, 10, 64, 0
11, 167880, Note_on_c, 10, 65, 125
11, 167940, Note_on_c, 10, 65, 0
11, 167940, Note_on_c, 10, 65, 127
11, 168000, Note_on_c, 10, 65, 0
11, 168000, Note_on_c, 10, 64, 117
11, 168000, Note_on_c, 10, 55, 119
11, 168240, Note_on_c, 10, 55, 0
11, 168240, Note_on_c, 10, 64, 0
11, 171360, Note_on_c, 10, 67, 66
11, 171720, Note_on_c, 10, 67, 0
11, 171720, Note_on_c, 10, 69, 72
11, 171780, Note_on_c, 10, 69, 0
11, 171780, Note_on_c, 10, 71, 65
11, 171840, Note_on_c, 10, 71, 0
11, 171840, Note_on_c, 10, 72, 61
11, 171900, Note_on_c, 10, 72, 0
11, 173280, Note_on_c, 10, 67, 70
11, 173640, Note_on_c, 10, 67, 0
11, 173640, Note_on_c, 10, 69, 74
11, 173700, Note_on_c, 10, 69, 0
11, 173700, Note_on_c, 10, 71, 70
11, 173760, Note_on_c, 10, 71, 0
11, 173760, Note_on_c, 10, 72, 71
11, 173820, Note_on_c, 10, 72, 0
11, 175200, Note_on_c, 10, 63, 62
11, 175560, Note_on_c, 10, 63, 0
11, 175560, Note_on_c, 10, 65, 73
11, 175620, Note_on_c, 10, 65, 0
11, 175620, Note_on_c, 10, 67, 55
11, 175680, Note_on_c, 10, 67, 0
11, 175680, Note_on_c, 10, 68, 45
11, 175740, Note_on_c, 10, 68, 0
11, 176160, Note_on_c, 10, 60, 69
11, 176520, Note_on_c, 10, 60, 0
11, 176520, Note_on_c, 10, 62, 72
11, 176580, Note_on_c, 10, 62, 0
11, 176580, Note_on_c, 10, 64, 58
11, 176640, Note_on_c, 10, 64, 0
11, 176640, Note_on_c, 10, 65, 62
11, 176700, Note_on_c, 10, 65, 0
11, 179760, Note_on_c, 10, 65, 65
11, 180000, Note_on_c, 10, 65, 0
11, 180000, Note_on_c, 10, 63, 62
11, 180120, Note_on_c, 10, 63, 0
11, 180240, Note_on_c, 10, 60, 65
11, 180360, Note_on_c, 10, 60, 0
11, 180480, Note_on_c, 10, 59, 65
11, 180720, Note_on_c, 10, 59, 0
11, 181440, Note_on_c, 10, 55, 61
11, 182160, Note_on_c, 10, 55, 0
11, 182280, Note_on_c, 10, 60, 53
11, 182400, Note_on_c, 10, 60, 0
11, 182400, Note_on_c, 10, 59, 69
11, 182460, Note_on_c, 10, 59, 0
11, 182520, Note_on_c, 10, 60, 62
11, 182580, Note_on_c, 10, 60, 0
11, 182640, Note_on_c, 10, 59, 72
11, 182700, Note_on_c, 10, 59, 0
11, 182760, Note_on_c, 10, 60, 62
11, 182820, Note_on_c, 10, 60, 0
11, 182880, Note_on_c, 10, 59, 81
11, 183120, Note_on_c, 10, 59, 0
11, 183360, Note_on_c, 10, 64, 43
11, 183360, Note_on_c, 10, 55, 45
11, 183480, Note_on_c, 10, 55, 0
11, 183480, Note_on_c, 10, 64, 0
11, 183480, Note_on_c, 10, 64, 43
11, 183480, Note_on_c, 10, 55, 43
11, 183600, Note_on_c, 10, 55, 0
11, 183600, Note_on_c, 10, 64, 0
11, 183600, Note_on_c, 10, 64, 45
11, 183600, Note_on_c, 10, 55, 51
11, 183720, Note_on_c, 10, 55, 0
11, 183720, Note_on_c, 10, 64, 0
11, 183720, Note_on_c, 10, 55, 77
11, 183720, Note_on_c, 10, 64, 70
11, 183840, Note_on_c, 10, 64, 0
11, 183840, Note_on_c, 10, 55, 0
11, 183840, Note_on_c, 10, 65, 53
11, 183840, Note_on_c, 10, 55, 58
11, 183960, Note_on_c, 10, 55, 0
11, 183960, Note_on_c, 10, 65, 0
11, 183960, Note_on_c, 10, 65, 57
11, 183960, Note_on_c, 10, 55, 51
11, 184080, Note_on_c, 10, 55, 0
11, 184080, Note_on_c, 10, 65, 0
11, 184080, Note_on_c, 10, 65, 66
11, 184080, Note_on_c, 10, 55, 70
11, 184200, Note_on_c, 10, 55, 0
11, 184200, Note_on_c, 10, 65, 0
11, 184200, Note_on_c, 10, 55, 78
11, 184200, Note_on_c, 10, 65, 82
11, 184320, Note_on_c, 10, 65, 0
11, 184320, Note_on_c, 10, 55, 0
11, 184320, Note_on_c, 10, 64, 42
11, 184320, Note_on_c, 10, 55, 47
11, 184440, Note_on_c, 10, 55, 0
11, 184440, Note_on_c, 10, 64, 0
11, 184440, Note_on_c, 10, 64, 46
11, 184440, Note_on_c, 10, 55, 52
11, 184560, Note_on_c, 10, 55, 0
11, 184560, Note_on_c, 10, 64, 0
11, 184560, Note_on_c, 10, 64, 53
11, 184560, Note_on_c, 10, 55, 55
11, 184680, Note_on_c, 10, 55, 0
11, 184680, Note_on_c, 10, 64, 0
11, 184680, Note_on_c, 10, 55, 85
11, 184680, Note_on_c, 10, 64, 84
11, 184800, Note_on_c, 10, 64, 0
11, 184800, Note_on_c, 10, 55, 0
11, 184800, Note_on_c, 10, 65, 45
11, 184800, Note_on_c, 10, 55, 45
11, 184920, Note_on_c, 10, 55, 0
11, 184920, Note_on_c, 10, 65, 0
11, 184920, Note_on_c, 10, 65, 50
11, 184920, Note_on_c, 10, 55, 56
11, 185040, Note_on_c, 10, 55, 0
11, 185040, Note_on_c, 10, 65, 0
11, 185040, Note_on_c, 10, 65, 69
11, 185040, Note_on_c, 10, 55, 65
11, 185160, Note_on_c, 10, 55, 0
11, 185160, Note_on_c, 10, 65, 0
11, 185160, Note_on_c, 10, 55, 66
11, 185160, Note_on_c, 10, 65, 66
11, 185280, Note_on_c, 10, 65, 0
11, 185280, Note_on_c, 10, 55, 0
11, 185280, Note_on_c, 10, 62, 64
11, 185340, Note_on_c, 10, 62, 0
11, 185400, Note_on_c, 10, 62, 67
11, 185460, Note_on_c, 10, 62, 0
11, 185640, Note_on_c, 10, 59, 69
11, 185760, Note_on_c, 10, 59, 0
11, 185760, Note_on_c, 10, 67, 54
11, 185820, Note_on_c, 10, 67, 0
11, 185880, Note_on_c, 10, 67, 64
11, 185940, Note_on_c, 10, 67, 0
11, 186120, Note_on_c, 10, 60, 64
11, 186180, Note_on_c, 10, 60, 0
11, 186240, Note_on_c, 10, 57, 64
11, 186360, Note_on_c, 10, 57, 0
11, 186360, Note_on_c, 10, 69, 59
11, 186480, Note_on_c, 10, 69, 0
11, 186480, Note_on_c, 10, 69, 72
11, 186600, Note_on_c, 10, 69, 0
11, 186600, Note_on_c, 10, 69, 71
11, 186720, Note_on_c, 10, 69, 0
11, 186720, Note_on_c, 10, 62, 46
11, 186960, Note_on_c, 10, 62, 0
11, 187200, Note_on_c, 10, 64, 50
11, 187440, Note_on_c, 10, 64, 0
11, 187560, Note_on_c, 10, 64, 44
11, 187680, Note_on_c, 10, 64, 0
11, 187680, Note_on_c, 10, 65, 45
11, 187920, Note_on_c, 10, 65, 0
11, 188040, Note_on_c, 10, 65, 46
11, 188160, Note_on_c, 10, 65, 0
11, 188160, Note_on_c, 10, 64, 61
11, 188400, Note_on_c, 10, 64, 0
11, 188520, Note_on_c, 10, 64, 64
11, 188640, Note_on_c, 10, 64, 0
11, 188640, Note_on_c, 10, 65, 48
11, 188880, Note_on_c, 10, 65, 0
11, 192480, Note_on_c, 10, 60, 64
11, 192600, Note_on_c, 10, 60, 0
11, 192600, Note_on_c, 10, 72, 65
11, 192720, Note_on_c, 10, 72, 0
11, 192720, Note_on_c, 10, 72, 69
11, 192840, Note_on_c, 10, 72, 0
11, 192840, Note_on_c, 10, 72, 63
11, 192960, Note_on_c, 10, 72, 0
11, 192960, Note_on_c, 10, 72, 64
11, 193080, Note_on_c, 10, 72, 0
11, 193080, Note_on_c, 10, 72, 65
11, 193200, Note_on_c, 10, 72, 0
11, 193200, Note_on_c, 10, 73, 46
11, 193260, Note_on_c, 10, 73, 0
11, 193260, Note_on_c, 10, 72, 61
11, 193320, Note_on_c, 10, 72, 0
11, 193320, Note_on_c, 10, 70, 59
11, 193380, Note_on_c, 10, 70, 0
11, 193380, Note_on_c, 10, 72, 64
11, 193440, Note_on_c, 10, 72, 0
11, 193440, Note_on_c, 10, 73, 62
11, 193560, Note_on_c, 10, 73, 0
11, 193560, Note_on_c, 10, 72, 66
11, 193680, Note_on_c, 10, 72, 0
11, 193680, Note_on_c, 10, 70, 69
11, 193800, Note_on_c, 10, 70, 0
11, 193800, Note_on_c, 10, 68, 81
11, 193920, Note_on_c, 10, 68, 0
11, 193920, Note_on_c, 10, 67, 81
11, 194040, Note_on_c, 10, 67, 0
11, 194040, Note_on_c, 10, 65, 84
11, 194160, Note_on_c, 10, 65, 0
11, 194160, Note_on_c, 10, 67, 80
11, 194280, Note_on_c, 10, 67, 0
11, 194280, Note_on_c, 10, 63, 76
11, 194400, Note_on_c, 10, 63, 0
11, 194400, Note_on_c, 10, 63, 49
11, 195360, Note_on_c, 10, 63, 0
11, 195360, Note_on_c, 10, 63, 51
11, 196080, Note_on_c, 10, 63, 0
11, 203520, Note_on_c, 10, 64, 73
11, 204000, Note_on_c, 10, 64, 0
11, 204000, Note_on_c, 10, 67, 65
11, 204480, Note_on_c, 10, 67, 0
11, 204480, Note_on_c, 10, 60, 64
11, 204720, Note_on_c, 10, 60, 0
11, 204720, Note_on_c, 10, 62, 72
11, 205200, Note_on_c, 10, 62, 0
11, 205200, Note_on_c, 10, 65, 73
11, 205440, Note_on_c, 10, 65, 0
11, 205440, Note_on_c, 10, 67, 62
11, 206400, Note_on_c, 10, 67, 0
11, 206640, Note_on_c, 10, 60, 72
11, 206760, Note_on_c, 10, 60, 0
11, 207120, Note_on_c, 10, 67, 69
11, 207240, Note_on_c, 10, 67, 0
11, 207600, Note_on_c, 10, 62, 58
11, 207720, Note_on_c, 10, 62, 0
11, 208080, Note_on_c, 10, 69, 69
11, 208200, Note_on_c, 10, 69, 0
11, 208560, Note_on_c, 10, 64, 78
11, 208680, Note_on_c, 10, 64, 0
11, 209040, Note_on_c, 10, 62, 65
11, 209160, Note_on_c, 10, 62, 0
11, 211200, Note_on_c, 10, 64, 78
11, 211260, Note_on_c, 10, 64, 0
11, 211260, Note_on_c, 10, 64, 65
11, 211320, Note_on_c, 10, 64, 0
11, 211320, Note_on_c, 10, 64, 82
11, 211380, Note_on_c, 10, 64, 0
11, 211380, Note_on_c, 10, 64, 80
11, 211440, Note_on_c, 10, 64, 0
11, 211440, Note_on_c, 10, 64, 90
11, 211500, Note_on_c, 10, 64, 0
11, 211500, Note_on_c, 10, 64, 86
11, 211560, Note_on_c, 10, 64, 0
11, 211560, Note_on_c, 10, 64, 85
11, 211620, Note_on_c, 10, 64, 0
11, 211620, Note_on_c, 10, 64, 85
11, 211680, Note_on_c, 10, 64, 0
11, 211680, Note_on_c, 10, 65, 78
11, 211740, Note_on_c, 10, 65, 0
11, 211740, Note_on_c, 10, 65, 89
11, 211800, Note_on_c, 10, 65, 0
11, 211800, Note_on_c, 10, 65, 80
11, 211860, Note_on_c, 10, 65, 0
11, 211860, Note_on_c, 10, 65, 84
11, 211920, Note_on_c, 10, 65, 0
11, 211920, Note_on_c, 10, 65, 86
11, 211980, Note_on_c, 10, 65, 0
11, 211980, Note_on_c, 10, 65, 77
11, 212040, Note_on_c, 10, 65, 0
11, 212040, Note_on_c, 10, 65, 80
11, 212100, Note_on_c, 10, 65, 0
11, 212100, Note_on_c, 10, 65, 82
11, 212160, Note_on_c, 10, 65, 0
11, 212160, Note_on_c, 10, 67, 81
11, 212220, Note_on_c, 10, 67, 0
11, 212220, Note_on_c, 10, 67, 78
11, 212280, Note_on_c, 10, 67, 0
11, 212280, Note_on_c, 10, 67, 72
11, 212340, Note_on_c, 10, 67, 0
11, 212340, Note_on_c, 10, 67, 80
11, 212400, Note_on_c, 10, 67, 0
11, 212400, Note_on_c, 10, 67, 76
11, 212460, Note_on_c, 10, 67, 0
11, 212460, Note_on_c, 10, 67, 74
11, 212520, Note_on_c, 10, 67, 0
11, 212520, Note_on_c, 10, 67, 80
11, 212580, Note_on_c, 10, 67, 0
11, 212580, Note_on_c, 10, 67, 73
11, 212640, Note_on_c, 10, 67, 0
11, 212640, Note_on_c, 10, 60, 84
11, 212700, Note_on_c, 10, 60, 0
11, 212700, Note_on_c, 10, 69, 65
11, 212760, Note_on_c, 10, 69, 0
11, 212760, Note_on_c, 10, 69, 76
11, 212820, Note_on_c, 10, 69, 0
11, 212820, Note_on_c, 10, 69, 84
11, 212880, Note_on_c, 10, 69, 0
11, 212880, Note_on_c, 10, 69, 80
11, 212940, Note_on_c, 10, 69, 0
11, 212940, Note_on_c, 10, 69, 78
11, 213000, Note_on_c, 10, 69, 0
11, 213000, Note_on_c, 10, 69, 78
11, 213060, Note_on_c, 10, 69, 0
11, 213060, Note_on_c, 10, 69, 84
11, 213120, Note_on_c, 10, 69, 0
11, 213120, Note_on_c, 10, 60, 65
11, 213180, Note_on_c, 10, 60, 0
11, 213180, Note_on_c, 10, 64, 84
11, 213240, Note_on_c, 10, 64, 0
11, 213240, Note_on_c, 10, 64, 81
11, 213300, Note_on_c, 10, 64, 0
11, 213300, Note_on_c, 10, 64, 82
11, 213360, Note_on_c, 10, 64, 0
11, 213360, Note_on_c, 10, 64, 84
11, 213420, Note_on_c, 10, 64, 0
11, 213420, Note_on_c, 10, 64, 86
11, 213480, Note_on_c, 10, 64, 0
11, 213480, Note_on_c, 10, 64, 84
11, 213540, Note_on_c, 10, 64, 0
11, 213540, Note_on_c, 10, 64, 84
11, 213600, Note_on_c, 10, 64, 0
11, 213600, Note_on_c, 10, 65, 81
11, 213660, Note_on_c, 10, 65, 0
11, 213660, Note_on_c, 10, 72, 72
11, 213720, Note_on_c, 10, 72, 0
11, 213720, Note_on_c, 10, 72, 80
11, 213780, Note_on_c, 10, 72, 0
11, 213780, Note_on_c, 10, 72, 76
11, 213840, Note_on_c, 10, 72, 0
11, 213840, Note_on_c, 10, 72, 73
11, 213900, Note_on_c, 10, 72, 0
11, 213900, Note_on_c, 10, 72, 71
11, 213960, Note_on_c, 10, 72, 0
11, 213960, Note_on_c, 10, 72, 69
11, 214020, Note_on_c, 10, 72, 0
11, 214020, Note_on_c, 10, 72, 78
11, 214080, Note_on_c, 10, 72, 0
11, 214080, Note_on_c, 10, 65, 84
11, 214140, Note_on_c, 10, 65, 0
11, 214140, Note_on_c, 10, 65, 82
11, 214200, Note_on_c, 10, 65, 0
11, 214200, Note_on_c, 10, 62, 73
11, 214260, Note_on_c, 10, 62, 0
11, 214260, Note_on_c, 10, 62, 71
11, 214320, Note_on_c, 10, 62, 0
11, 214320, Note_on_c, 10, 62, 77
11, 214380, Note_on_c, 10, 62, 0
11, 214380, Note_on_c, 10, 62, 81
11, 214440, Note_on_c, 10, 62, 0
11, 214440, Note_on_c, 10, 74, 74
11, 214500, Note_on_c, 10, 74, 0
11, 214500, Note_on_c, 10, 74, 81
11, 214560, Note_on_c, 10, 74, 0
11, 214560, Note_on_c, 10, 67, 58
11, 214620, Note_on_c, 10, 67, 0
11, 214620, Note_on_c, 10, 67, 77
11, 214680, Note_on_c, 10, 67, 0
11, 214680, Note_on_c, 10, 64, 84
11, 214740, Note_on_c, 10, 64, 0
11, 214740, Note_on_c, 10, 64, 73
11, 214800, Note_on_c, 10, 64, 0
11, 214800, Note_on_c, 10, 64, 80
11, 214860, Note_on_c, 10, 64, 0
11, 214860, Note_on_c, 10, 64, 84
11, 214920, Note_on_c, 10, 64, 0
11, 214920, Note_on_c, 10, 76, 65
11, 214980, Note_on_c, 10, 76, 0
11, 214980, Note_on_c, 10, 76, 78
11, 215040, Note_on_c, 10, 76, 0
11, 215040, Note_on_c, 10, 69, 78
11, 215100, Note_on_c, 10, 69, 0
11, 215100, Note_on_c, 10, 81, 65
11, 215100, Note_on_c, 10, 69, 78
11, 215160, Note_on_c, 10, 69, 0
11, 215160, Note_on_c, 10, 81, 0
11, 215160, Note_on_c, 10, 81, 67
11, 215160, Note_on_c, 10, 69, 68
11, 215220, Note_on_c, 10, 69, 0
11, 215220, Note_on_c, 10, 81, 0
11, 215220, Note_on_c, 10, 81, 72
11, 215220, Note_on_c, 10, 69, 66
11, 215280, Note_on_c, 10, 69, 0
11, 215280, Note_on_c, 10, 81, 0
11, 215280, Note_on_c, 10, 81, 66
11, 215280, Note_on_c, 10, 69, 72
11, 215340, Note_on_c, 10, 69, 0
11, 215340, Note_on_c, 10, 81, 0
11, 215340, Note_on_c, 10, 81, 69
11, 215340, Note_on_c, 10, 69, 69
11, 215400, Note_on_c, 10, 69, 0
11, 215400, Note_on_c, 10, 81, 0
11, 215400, Note_on_c, 10, 81, 65
11, 215400, Note_on_c, 10, 69, 66
11, 215460, Note_on_c, 10, 69, 0
11, 215460, Note_on_c, 10, 81, 0
11, 215460, Note_on_c, 10, 69, 68
11, 215460, Note_on_c, 10, 81, 64
11, 215520, Note_on_c, 10, 81, 0
11, 215520, Note_on_c, 10, 69, 0
11, 215520, Note_on_c, 10, 81, 64
11, 215520, Note_on_c, 10, 72, 47
11, 215580, Note_on_c, 10, 72, 0
11, 215580, Note_on_c, 10, 81, 0
11, 215580, Note_on_c, 10, 81, 73
11, 215580, Note_on_c, 10, 72, 45
11, 215640, Note_on_c, 10, 72, 0
11, 215640, Note_on_c, 10, 81, 0
11, 215640, Note_on_c, 10, 81, 73
11, 215640, Note_on_c, 10, 72, 47
11, 215700, Note_on_c, 10, 72, 0
11, 215700, Note_on_c, 10, 81, 0
11, 215700, Note_on_c, 10, 81, 76
11, 215700, Note_on_c, 10, 72, 44
11, 215760, Note_on_c, 10, 72, 0
11, 215760, Note_on_c, 10, 81, 0
11, 215760, Note_on_c, 10, 81, 66
11, 215760, Note_on_c, 10, 72, 40
11, 215820, Note_on_c, 10, 72, 0
11, 215820, Note_on_c, 10, 81, 0
11, 215820, Note_on_c, 10, 81, 68
11, 215820, Note_on_c, 10, 72, 43
11, 215880, Note_on_c, 10, 72, 0
11, 215880, Note_on_c, 10, 81, 0
11, 215880, Note_on_c, 10, 81, 72
11, 215880, Note_on_c, 10, 72, 53
11, 215940, Note_on_c, 10, 72, 0
11, 215940, Note_on_c, 10, 81, 0
11, 215940, Note_on_c, 10, 72, 62
11, 215940, Note_on_c, 10, 81, 80
11, 216000, Note_on_c, 10, 81, 0
11, 216000, Note_on_c, 10, 72, 0
11, 216000, Note_on_c, 10, 79, 94
11, 216000, Note_on_c, 10, 72, 76
11, 216060, Note_on_c, 10, 72, 0
11, 216060, Note_on_c, 10, 79, 0
11, 216060, Note_on_c, 10, 79, 65
11, 216060, Note_on_c, 10, 72, 89
11, 216120, Note_on_c, 10, 72, 0
11, 216120, Note_on_c, 10, 79, 0
11, 216120, Note_on_c, 10, 79, 69
11, 216120, Note_on_c, 10, 72, 86
11, 216180, Note_on_c, 10, 72, 0
11, 216180, Note_on_c, 10, 79, 0
11, 216180, Note_on_c, 10, 79, 68
11, 216180, Note_on_c, 10, 72, 86
11, 216240, Note_on_c, 10, 72, 0
11, 216240, Note_on_c, 10, 79, 0
11, 216240, Note_on_c, 10, 77, 64
11, 216240, Note_on_c, 10, 72, 86
11, 216300, Note_on_c, 10, 72, 0
11, 216300, Note_on_c, 10, 77, 0
11, 216300, Note_on_c, 10, 77, 66
11, 216300, Note_on_c, 10, 72, 42
11, 216360, Note_on_c, 10, 72, 0
11, 216360, Note_on_c, 10, 77, 0
11, 216360, Note_on_c, 10, 77, 64
11, 216360, Note_on_c, 10, 72, 41
11, 216420, Note_on_c, 10, 72, 0
11, 216420, Note_on_c, 10, 77, 0
11, 216420, Note_on_c, 10, 72, 40
11, 216420, Note_on_c, 10, 77, 66
11, 216480, Note_on_c, 10, 77, 0
11, 216480, Note_on_c, 10, 72, 0
11, 216480, Note_on_c, 10, 79, 74
11, 216480, Note_on_c, 10, 72, 43
11, 216540, Note_on_c, 10, 72, 0
11, 216540, Note_on_c, 10, 79, 0
11, 216540, Note_on_c, 10, 79, 72
11, 216540, Note_on_c, 10, 72, 85
11, 216600, Note_on_c, 10, 72, 0
11, 216600, Note_on_c, 10, 79, 0
11, 216600, Note_on_c, 10, 79, 73
11, 216600, Note_on_c, 10, 72, 85
11, 216660, Note_on_c, 10, 72, 0
11, 216660, Note_on_c, 10, 79, 0
11, 216660, Note_on_c, 10, 79, 81
11, 216660, Note_on_c, 10, 72, 46
11, 216720, Note_on_c, 10, 72, 0
11, 216720, Note_on_c, 10, 79, 0
11, 216720, Note_on_c, 10, 81, 99
11, 216720, Note_on_c, 10, 72, 76
11, 216780, Note_on_c, 10, 72, 0
11, 216780, Note_on_c, 10, 81, 0
11, 216780, Note_on_c, 10, 81, 68
11, 216780, Note_on_c, 10, 72, 50
11, 216840, Note_on_c, 10, 72, 0
11, 216840, Note_on_c, 10, 81, 0
11, 216840, Note_on_c, 10, 81, 65
11, 216840, Note_on_c, 10, 72, 46
11, 216900, Note_on_c, 10, 72, 0
11, 216900, Note_on_c, 10, 81, 0
11, 216900, Note_on_c, 10, 72, 43
11, 216900, Note_on_c, 10, 81, 71
11, 216960, Note_on_c, 10, 81, 0
11, 216960, Note_on_c, 10, 72, 0
11, 216960, Note_on_c, 10, 79, 74
11, 216960, Note_on_c, 10, 72, 43
11, 217020, Note_on_c, 10, 72, 0
11, 217020, Note_on_c, 10, 79, 0
11, 217020, Note_on_c, 10, 79, 68
11, 217020, Note_on_c, 10, 72, 41
11, 217080, Note_on_c, 10, 72, 0
11, 217080, Note_on_c, 10, 79, 0
11, 217080, Note_on_c, 10, 79, 73
11, 217080, Note_on_c, 10, 72, 89
11, 217140, Note_on_c, 10, 72, 0
11, 217140, Note_on_c, 10, 79, 0
11, 217140, Note_on_c, 10, 79, 78
11, 217140, Note_on_c, 10, 72, 84
11, 217200, Note_on_c, 10, 72, 0
11, 217200, Note_on_c, 10, 79, 0
11, 217200, Note_on_c, 10, 77, 68
11, 217200, Note_on_c, 10, 72, 44
11, 217260, Note_on_c, 10, 72, 0
11, 217260, Note_on_c, 10, 77, 0
11, 217260, Note_on_c, 10, 77, 64
11, 217260, Note_on_c, 10, 72, 55
11, 217320, Note_on_c, 10, 72, 0
11, 217320, Note_on_c, 10, 77, 0
11, 217320, Note_on_c, 10, 77, 71
11, 217320, Note_on_c, 10, 72, 50
11, 217380, Note_on_c, 10, 72, 0
11, 217380, Note_on_c, 10, 77, 0
11, 217380, Note_on_c, 10, 72, 46
11, 217380, Note_on_c, 10, 77, 73
11, 217440, Note_on_c, 10, 77, 0
11, 217440, Note_on_c, 10, 72, 0
11, 217440, Note_on_c, 10, 79, 71
11, 217440, Note_on_c, 10, 72, 52
11, 217500, Note_on_c, 10, 72, 0
11, 217500, Note_on_c, 10, 79, 0
11, 217500, Note_on_c, 10, 79, 74
11, 217500, Note_on_c, 10, 72, 48
11, 217560, Note_on_c, 10, 72, 0
11, 217560, Note_on_c, 10, 79, 0
11, 217560, Note_on_c, 10, 79, 70
11, 217560, Note_on_c, 10, 72, 40
11, 217620, Note_on_c, 10, 72, 0
11, 217620, Note_on_c, 10, 79, 0
11, 217620, Note_on_c, 10, 79, 78
11, 217620, Note_on_c, 10, 72, 52
11, 217680, Note_on_c, 10, 72, 0
11, 217680, Note_on_c, 10, 79, 0
11, 217680, Note_on_c, 10, 81, 99
11, 217680, Note_on_c, 10, 72, 80
11, 217740, Note_on_c, 10, 72, 0
11, 217740, Note_on_c, 10, 81, 0
11, 217740, Note_on_c, 10, 81, 67
11, 217740, Note_on_c, 10, 72, 44
11, 217800, Note_on_c, 10, 72, 0
11, 217800, Note_on_c, 10, 81, 0
11, 217800, Note_on_c, 10, 81, 56
11, 217800, Note_on_c, 10, 72, 42
11, 217860, Note_on_c, 10, 72, 0
11, 217860, Note_on_c, 10, 81, 0
11, 217860, Note_on_c, 10, 72, 40
11, 217860, Note_on_c, 10, 81, 65
11, 217920, Note_on_c, 10, 81, 0
11, 217920, Note_on_c, 10, 72, 0
11, 217920, Note_on_c, 10, 79, 76
11, 217920, Note_on_c, 10, 72, 43
11, 217980, Note_on_c, 10, 72, 0
11, 217980, Note_on_c, 10, 79, 0
11, 217980, Note_on_c, 10, 79, 76
11, 217980, Note_on_c, 10, 72, 86
11, 218040, Note_on_c, 10, 72, 0
11, 218040, Note_on_c, 10, 79, 0
11, 218040, Note_on_c, 10, 79, 73
11, 218040, Note_on_c, 10, 72, 94
11, 218100, Note_on_c, 10, 72, 0
11, 218100, Note_on_c, 10, 79, 0
11, 218100, Note_on_c, 10, 79, 73
11, 218100, Note_on_c, 10, 72, 41
11, 218160, Note_on_c, 10, 72, 0
11, 218160, Note_on_c, 10, 79, 0
11, 218160, Note_on_c, 10, 81, 101
11, 218160, Note_on_c, 10, 72, 80
11, 218220, Note_on_c, 10, 72, 0
11, 218220, Note_on_c, 10, 81, 0
11, 218220, Note_on_c, 10, 81, 66
11, 218220, Note_on_c, 10, 72, 89
11, 218280, Note_on_c, 10, 72, 0
11, 218280, Note_on_c, 10, 81, 0
11, 218280, Note_on_c, 10, 81, 69
11, 218280, Note_on_c, 10, 72, 89
11, 218340, Note_on_c, 10, 72, 0
11, 218340, Note_on_c, 10, 81, 0
11, 218340, Note_on_c, 10, 72, 50
11, 218340, Note_on_c, 10, 81, 80
11, 218400, Note_on_c, 10, 81, 0
11, 218400, Note_on_c, 10, 72, 0
11, 218400, Note_on_c, 10, 79, 72
11, 218400, Note_on_c, 10, 72, 61
11, 218460, Note_on_c, 10, 72, 0
11, 218460, Note_on_c, 10, 79, 0
11, 218460, Note_on_c, 10, 79, 58
11, 218460, Note_on_c, 10, 72, 46
11, 218520, Note_on_c, 10, 72, 0
11, 218520, Note_on_c, 10, 79, 0
11, 218520, Note_on_c, 10, 79, 63
11, 218520, Note_on_c, 10, 72, 44
11, 218580, Note_on_c, 10, 72, 0
11, 218580, Note_on_c, 10, 79, 0
11, 218580, Note_on_c, 10, 79, 62
11, 218580, Note_on_c, 10, 72, 63
11, 218640, Note_on_c, 10, 72, 0
11, 218640, Note_on_c, 10, 79, 0
11, 218640, Note_on_c, 10, 81, 99
11, 218640, Note_on_c, 10, 72, 77
11, 218700, Note_on_c, 10, 72, 0
11, 218700, Note_on_c, 10, 81, 0
11, 218700, Note_on_c, 10, 81, 69
11, 218700, Note_on_c, 10, 72, 43
11, 218760, Note_on_c, 10, 72, 0
11, 218760, Note_on_c, 10, 81, 0
11, 218760, Note_on_c, 10, 81, 80
11, 218760, Note_on_c, 10, 72, 52
11, 218820, Note_on_c, 10, 72, 0
11, 218820, Note_on_c, 10, 81, 0
11, 218820, Note_on_c, 10, 72, 62
11, 218820, Note_on_c, 10, 81, 76
11, 218880, Note_on_c, 10, 81, 0
11, 218880, Note_on_c, 10, 72, 0
11, 218880, Note_on_c, 10, 72, 80
11, 218880, Note_on_c, 10, 76, 101
11, 220320, Note_on_c, 10, 76, 0
11, 220320, Note_on_c, 10, 72, 0
11, 227520, Note_on_c, 10, 65, 45
11, 228480, Note_on_c, 10, 65, 0
11, 228480, Note_on_c, 10, 65, 45
11, 229440, Note_on_c, 10, 65, 0
11, 229440, Note_on_c, 10, 66, 52
11, 230400, Note_on_c, 10, 66, 0
11, 230400, Note_on_c, 10, 63, 45
11, 230640, Note_on_c, 10, 63, 0
11, 230880, Note_on_c, 10, 63, 45
11, 231120, Note_on_c, 10, 63, 0
11, 231360, Note_on_c, 10, 63, 50
11, 231480, Note_on_c, 10, 63, 0
11, 231600, Note_on_c, 10, 63, 64
11, 231720, Note_on_c, 10, 63, 0
11, 231840, Note_on_c, 10, 58, 54
11, 231960, Note_on_c, 10, 58, 0
11, 232080, Note_on_c, 10, 59, 60
11, 232200, Note_on_c, 10, 59, 0
11, 232320, Note_on_c, 10, 58, 53
11, 232440, Note_on_c, 10, 58, 0
11, 232560, Note_on_c, 10, 59, 53
11, 232680, Note_on_c, 10, 59, 0
11, 232800, Note_on_c, 10, 58, 46
11, 233040, Note_on_c, 10, 58, 0
11, 233760, Note_on_c, 10, 58, 44
11, 234000, Note_on_c, 10, 58, 0
11, 234720, Note_on_c, 10, 58, 44
11, 234960, Note_on_c, 10, 58, 0
11, 235200, Note_on_c, 10, 58, 60
11, 235440, Note_on_c, 10, 58, 0
11, 235680, Note_on_c, 10, 62, 55
11, 235920, Note_on_c, 10, 62, 0
11, 236160, Note_on_c, 10, 62, 52
11, 236400, Note_on_c, 10, 62, 0
11, 236640, Note_on_c, 10, 62, 40
11, 236880, Note_on_c, 10, 62, 0
11, 237120, Note_on_c, 10, 62, 46
11, 237360, Note_on_c, 10, 62, 0
11, 238800, Note_on_c, 10, 65, 57
11, 238920, Note_on_c, 10, 65, 0
11, 239040, Note_on_c, 10, 62, 50
11, 239160, Note_on_c, 10, 62, 0
11, 239280, Note_on_c, 10, 59, 49
11, 239400, Note_on_c, 10, 59, 0
11, 239520, Note_on_c, 10, 55, 51
11, 240960, Note_on_c, 10, 55, 0
11, 241320, Note_on_c, 10, 64, 99
11, 241440, Note_on_c, 10, 64, 0
11, 241440, Note_on_c, 10, 64, 65
11, 241440, Note_on_c, 10, 55, 84
11, 241500, Note_on_c, 10, 55, 0
11, 241500, Note_on_c, 10, 64, 0
11, 241500, Note_on_c, 10, 64, 84
11, 241500, Note_on_c, 10, 55, 86
11, 241560, Note_on_c, 10, 55, 0
11, 241560, Note_on_c, 10, 64, 0
11, 241560, Note_on_c, 10, 64, 90
11, 241560, Note_on_c, 10, 55, 81
11, 241620, Note_on_c, 10, 55, 0
11, 241620, Note_on_c, 10, 64, 0
11, 241620, Note_on_c, 10, 64, 89
11, 241620, Note_on_c, 10, 55, 89
11, 241680, Note_on_c, 10, 55, 0
11, 241680, Note_on_c, 10, 64, 0
11, 241680, Note_on_c, 10, 64, 84
11, 241680, Note_on_c, 10, 55, 86
11, 241740, Note_on_c, 10, 55, 0
11, 241740, Note_on_c, 10, 64, 0
11, 241740, Note_on_c, 10, 64, 86
11, 241740, Note_on_c, 10, 55, 90
11, 241800, Note_on_c, 10, 55, 0
11, 241800, Note_on_c, 10, 64, 0
11, 241800, Note_on_c, 10, 64, 89
11, 241800, Note_on_c, 10, 55, 90
11, 241860, Note_on_c, 10, 55, 0
11, 241860, Note_on_c, 10, 64, 0
11, 241860, Note_on_c, 10, 55, 84
11, 241860, Note_on_c, 10, 64, 73
11, 241920, Note_on_c, 10, 64, 0
11, 241920, Note_on_c, 10, 55, 0
11, 241920, Note_on_c, 10, 64, 85
11, 241920, Note_on_c, 10, 55, 93
11, 241980, Note_on_c, 10, 55, 0
11, 241980, Note_on_c, 10, 64, 0
11, 241980, Note_on_c, 10, 64, 81
11, 241980, Note_on_c, 10, 55, 84
11, 242040, Note_on_c, 10, 55, 0
11, 242040, Note_on_c, 10, 64, 0
11, 242040, Note_on_c, 10, 64, 86
11, 242040, Note_on_c, 10, 55, 90
11, 242100, Note_on_c, 10, 55, 0
11, 242100, Note_on_c, 10, 64, 0
11, 242100, Note_on_c, 10, 64, 85
11, 242100, Note_on_c, 10, 55, 86
11, 242160, Note_on_c, 10, 55, 0
11, 242160, Note_on_c, 10, 64, 0
11, 242160, Note_on_c, 10, 64, 89
11, 242160, Note_on_c, 10, 55, 90
11, 242220, Note_on_c, 10, 55, 0
11, 242220, Note_on_c, 10, 64, 0
11, 242220, Note_on_c, 10, 64, 85
11, 242220, Note_on_c, 10, 55, 85
11, 242280, Note_on_c, 10, 55, 0
11, 242280, Note_on_c, 10, 64, 0
11, 242280, Note_on_c, 10, 64, 86
11, 242280, Note_on_c, 10, 55, 86
11, 242340, Note_on_c, 10, 55, 0
11, 242340, Note_on_c, 10, 64, 0
11, 242340, Note_on_c, 10, 55, 89
11, 242340, Note_on_c, 10, 64, 90
11, 242400, Note_on_c, 10, 64, 0
11, 242400, Note_on_c, 10, 55, 0
11, 242400, Note_on_c, 10, 64, 85
11, 242400, Note_on_c, 10, 55, 86
11, 242460, Note_on_c, 10, 55, 0
11, 242460, Note_on_c, 10, 64, 0
11, 242460, Note_on_c, 10, 64, 89
11, 242460, Note_on_c, 10, 55, 86
11, 242520, Note_on_c, 10, 55, 0
11, 242520, Note_on_c, 10, 64, 0
11, 242520, Note_on_c, 10, 64, 89
11, 242520, Note_on_c, 10, 55, 86
11, 242580, Note_on_c, 10, 55, 0
11, 242580, Note_on_c, 10, 64, 0
11, 242580, Note_on_c, 10, 64, 85
11, 242580, Note_on_c, 10, 55, 85
11, 242640, Note_on_c, 10, 55, 0
11, 242640, Note_on_c, 10, 64, 0
11, 242640, Note_on_c, 10, 64, 85
11, 242640, Note_on_c, 10, 55, 90
11, 242700, Note_on_c, 10, 55, 0
11, 242700, Note_on_c, 10, 64, 0
11, 242700, Note_on_c, 10, 64, 89
11, 242700, Note_on_c, 10, 55, 89
11, 242760, Note_on_c, 10, 55, 0
11, 242760, Note_on_c, 10, 64, 0
11, 242760, Note_on_c, 10, 64, 86
11, 242760, Note_on_c, 10, 55, 89
11, 242820, Note_on_c, 10, 55, 0
11, 242820, Note_on_c, 10, 64, 0
11, 242820, Note_on_c, 10, 55, 82
11, 242820, Note_on_c, 10, 64, 86
11, 242880, Note_on_c, 10, 64, 0
11, 242880, Note_on_c, 10, 55, 0
11, 242880, Note_on_c, 10, 62, 84
11, 242940, Note_on_c, 10, 62, 0
11, 242940, Note_on_c, 10, 62, 84
11, 243000, Note_on_c, 10, 62, 0
11, 243000, Note_on_c, 10, 59, 94
11, 243060, Note_on_c, 10, 59, 0
11, 243060, Note_on_c, 10, 59, 99
11, 243120, Note_on_c, 10, 59, 0
11, 243120, Note_on_c, 10, 64, 90
11, 243180, Note_on_c, 10, 64, 0
11, 243180, Note_on_c, 10, 64, 86
11, 243240, Note_on_c, 10, 64, 0
11, 243240, Note_on_c, 10, 60, 94
11, 243300, Note_on_c, 10, 60, 0
11, 243300, Note_on_c, 10, 60, 93
11, 243360, Note_on_c, 10, 60, 0
11, 243360, Note_on_c, 10, 59, 95
11, 243420, Note_on_c, 10, 59, 0
11, 243420, Note_on_c, 10, 59, 98
11, 243480, Note_on_c, 10, 59, 0
11, 243480, Note_on_c, 10, 59, 95
11, 243540, Note_on_c, 10, 59, 0
11, 243540, Note_on_c, 10, 59, 99
11, 243600, Note_on_c, 10, 59, 0
11, 243600, Note_on_c, 10, 64, 95
11, 243660, Note_on_c, 10, 64, 0
11, 243660, Note_on_c, 10, 64, 93
11, 243720, Note_on_c, 10, 64, 0
11, 243720, Note_on_c, 10, 60, 94
11, 243780, Note_on_c, 10, 60, 0
11, 243780, Note_on_c, 10, 60, 94
11, 243840, Note_on_c, 10, 60, 0
11, 243840, Note_on_c, 10, 59, 99
11, 243900, Note_on_c, 10, 59, 0
11, 243900, Note_on_c, 10, 62, 73
11, 243900, Note_on_c, 10, 59, 99
11, 243960, Note_on_c, 10, 59, 0
11, 243960, Note_on_c, 10, 62, 0
11, 243960, Note_on_c, 10, 62, 84
11, 243960, Note_on_c, 10, 59, 93
11, 244020, Note_on_c, 10, 59, 0
11, 244020, Note_on_c, 10, 62, 0
11, 244020, Note_on_c, 10, 62, 85
11, 244020, Note_on_c, 10, 59, 86
11, 244080, Note_on_c, 10, 59, 0
11, 244080, Note_on_c, 10, 62, 0
11, 244080, Note_on_c, 10, 62, 82
11, 244080, Note_on_c, 10, 59, 90
11, 244140, Note_on_c, 10, 59, 0
11, 244140, Note_on_c, 10, 62, 0
11, 244140, Note_on_c, 10, 62, 81
11, 244140, Note_on_c, 10, 59, 89
11, 244200, Note_on_c, 10, 59, 0
11, 244200, Note_on_c, 10, 62, 0
11, 244200, Note_on_c, 10, 62, 80
11, 244200, Note_on_c, 10, 59, 95
11, 244260, Note_on_c, 10, 59, 0
11, 244260, Note_on_c, 10, 62, 0
11, 244260, Note_on_c, 10, 59, 98
11, 244260, Note_on_c, 10, 62, 81
11, 244320, Note_on_c, 10, 62, 0
11, 244320, Note_on_c, 10, 59, 0
11, 244320, Note_on_c, 10, 62, 80
11, 244320, Note_on_c, 10, 59, 85
11, 244380, Note_on_c, 10, 59, 0
11, 244380, Note_on_c, 10, 62, 0
11, 244380, Note_on_c, 10, 62, 81
11, 244380, Note_on_c, 10, 59, 85
11, 244440, Note_on_c, 10, 59, 0
11, 244440, Note_on_c, 10, 62, 0
11, 244440, Note_on_c, 10, 62, 85
11, 244440, Note_on_c, 10, 59, 82
11, 244500, Note_on_c, 10, 59, 0
11, 244500, Note_on_c, 10, 62, 0
11, 244500, Note_on_c, 10, 62, 85
11, 244500, Note_on_c, 10, 59, 81
11, 244560, Note_on_c, 10, 59, 0
11, 244560, Note_on_c, 10, 62, 0
11, 244560, Note_on_c, 10, 62, 89
11, 244560, Note_on_c, 10, 59, 80
11, 244620, Note_on_c, 10, 59, 0
11, 244620, Note_on_c, 10, 62, 0
11, 244620, Note_on_c, 10, 62, 84
11, 244620, Note_on_c, 10, 59, 80
11, 244680, Note_on_c, 10, 59, 0
11, 244680, Note_on_c, 10, 62, 0
11, 244680, Note_on_c, 10, 62, 84
11, 244680, Note_on_c, 10, 59, 81
11, 244740, Note_on_c, 10, 59, 0
11, 244740, Note_on_c, 10, 62, 0
11, 244740, Note_on_c, 10, 59, 84
11, 244740, Note_on_c, 10, 62, 89
11, 244800, Note_on_c, 10, 62, 0
11, 244800, Note_on_c, 10, 59, 0
11, 244800, Note_on_c, 10, 62, 112
11, 244800, Note_on_c, 10, 59, 119
11, 244860, Note_on_c, 10, 59, 0
11, 244860, Note_on_c, 10, 62, 0
11, 244860, Note_on_c, 10, 62, 84
11, 244860, Note_on_c, 10, 59, 90
11, 244920, Note_on_c, 10, 59, 0
11, 244920, Note_on_c, 10, 62, 0
11, 244920, Note_on_c, 10, 62, 85
11, 244920, Note_on_c, 10, 59, 81
11, 244980, Note_on_c, 10, 59, 0
11, 244980, Note_on_c, 10, 62, 0
11, 244980, Note_on_c, 10, 62, 80
11, 244980, Note_on_c, 10, 59, 74
11, 245040, Note_on_c, 10, 59, 0
11, 245040, Note_on_c, 10, 62, 0
11, 245040, Note_on_c, 10, 62, 80
11, 245040, Note_on_c, 10, 59, 76
11, 245100, Note_on_c, 10, 59, 0
11, 245100, Note_on_c, 10, 62, 0
11, 245100, Note_on_c, 10, 62, 80
11, 245100, Note_on_c, 10, 59, 81
11, 245160, Note_on_c, 10, 59, 0
11, 245160, Note_on_c, 10, 62, 0
11, 245160, Note_on_c, 10, 62, 81
11, 245160, Note_on_c, 10, 59, 72
11, 245220, Note_on_c, 10, 59, 0
11, 245220, Note_on_c, 10, 62, 0
11, 245220, Note_on_c, 10, 59, 72
11, 245220, Note_on_c, 10, 62, 80
11, 245280, Note_on_c, 10, 62, 0
11, 245280, Note_on_c, 10, 59, 0
11, 245280, Note_on_c, 10, 62, 81
11, 245280, Note_on_c, 10, 59, 81
11, 245340, Note_on_c, 10, 59, 0
11, 245340, Note_on_c, 10, 62, 0
11, 245340, Note_on_c, 10, 62, 78
11, 245340, Note_on_c, 10, 59, 76
11, 245400, Note_on_c, 10, 59, 0
11, 245400, Note_on_c, 10, 62, 0
11, 245400, Note_on_c, 10, 62, 82
11, 245400, Note_on_c, 10, 59, 81
11, 245460, Note_on_c, 10, 59, 0
11, 245460, Note_on_c, 10, 62, 0
11, 245460, Note_on_c, 10, 62, 82
11, 245460, Note_on_c, 10, 59, 77
11, 245520, Note_on_c, 10, 59, 0
11, 245520, Note_on_c, 10, 62, 0
11, 245520, Note_on_c, 10, 62, 78
11, 245520, Note_on_c, 10, 59, 73
11, 245580, Note_on_c, 10, 59, 0
11, 245580, Note_on_c, 10, 62, 0
11, 245580, Note_on_c, 10, 62, 77
11, 245580, Note_on_c, 10, 59, 73
11, 245640, Note_on_c, 10, 59, 0
11, 245640, Note_on_c, 10, 62, 0
11, 245640, Note_on_c, 10, 62, 80
11, 245640, Note_on_c, 10, 59, 74
11, 245700, Note_on_c, 10, 59, 0
11, 245700, Note_on_c, 10, 62, 0
11, 245700, Note_on_c, 10, 59, 70
11, 245700, Note_on_c, 10, 62, 82
11, 245760, Note_on_c, 10, 62, 0
11, 245760, Note_on_c, 10, 59, 0
11, 245760, Note_on_c, 10, 62, 112
11, 245760, Note_on_c, 10, 59, 115
11, 245820, Note_on_c, 10, 59, 0
11, 245820, Note_on_c, 10, 62, 0
11, 245820, Note_on_c, 10, 62, 89
11, 245820, Note_on_c, 10, 59, 93
11, 245880, Note_on_c, 10, 59, 0
11, 245880, Note_on_c, 10, 62, 0
11, 245880, Note_on_c, 10, 62, 81
11, 245880, Note_on_c, 10, 59, 73
11, 245940, Note_on_c, 10, 59, 0
11, 245940, Note_on_c, 10, 62, 0
11, 245940, Note_on_c, 10, 62, 81
11, 245940, Note_on_c, 10, 59, 74
11, 246000, Note_on_c, 10, 59, 0
11, 246000, Note_on_c, 10, 62, 0
11, 246000, Note_on_c, 10, 62, 80
11, 246000, Note_on_c, 10, 59, 76
11, 246060, Note_on_c, 10, 59, 0
11, 246060, Note_on_c, 10, 62, 0
11, 246060, Note_on_c, 10, 62, 77
11, 246060, Note_on_c, 10, 59, 71
11, 246120, Note_on_c, 10, 59, 0
11, 246120, Note_on_c, 10, 62, 0
11, 246120, Note_on_c, 10, 62, 76
11, 246120, Note_on_c, 10, 59, 72
11, 246180, Note_on_c, 10, 59, 0
11, 246180, Note_on_c, 10, 62, 0
11, 246180, Note_on_c, 10, 59, 76
11, 246180, Note_on_c, 10, 62, 80
11, 246240, Note_on_c, 10, 62, 0
11, 246240, Note_on_c, 10, 59, 0
11, 246240, Note_on_c, 10, 62, 86
11, 246240, Note_on_c, 10, 59, 82
11, 246300, Note_on_c, 10, 59, 0
11, 246300, Note_on_c, 10, 62, 0
11, 246300, Note_on_c, 10, 62, 89
11, 246300, Note_on_c, 10, 59, 85
11, 246360, Note_on_c, 10, 59, 0
11, 246360, Note_on_c, 10, 62, 0
11, 246360, Note_on_c, 10, 62, 107
11, 246360, Note_on_c, 10, 60, 115
11, 246420, Note_on_c, 10, 60, 0
11, 246420, Note_on_c, 10, 62, 0
11, 246420, Note_on_c, 10, 62, 81
11, 246420, Note_on_c, 10, 60, 80
11, 246480, Note_on_c, 10, 60, 0
11, 246480, Note_on_c, 10, 62, 0
11, 246480, Note_on_c, 10, 62, 84
11, 246480, Note_on_c, 10, 59, 81
11, 246540, Note_on_c, 10, 59, 0
11, 246540, Note_on_c, 10, 62, 0
11, 246540, Note_on_c, 10, 62, 77
11, 246540, Note_on_c, 10, 59, 76
11, 246600, Note_on_c, 10, 59, 0
11, 246600, Note_on_c, 10, 62, 0
11, 246600, Note_on_c, 10, 62, 78
11, 246600, Note_on_c, 10, 59, 72
11, 246660, Note_on_c, 10, 59, 0
11, 246660, Note_on_c, 10, 62, 0
11, 246660, Note_on_c, 10, 59, 73
11, 246660, Note_on_c, 10, 62, 78
11, 246720, Note_on_c, 10, 62, 0
11, 246720, Note_on_c, 10, 59, 0
11, 246720, Note_on_c, 10, 62, 86
11, 246720, Note_on_c, 10, 59, 76
11, 246780, Note_on_c, 10, 59, 0
11, 246780, Note_on_c, 10, 62, 0
11, 246780, Note_on_c, 10, 62, 82
11, 246780, Note_on_c, 10, 59, 71
11, 246840, Note_on_c, 10, 59, 0
11, 246840, Note_on_c, 10, 62, 0
11, 246840, Note_on_c, 10, 62, 112
11, 246840, Note_on_c, 10, 60, 110
11, 246900, Note_on_c, 10, 60, 0
11, 246900, Note_on_c, 10, 62, 0
11, 246900, Note_on_c, 10, 62, 77
11, 246900, Note_on_c, 10, 60, 76
11, 246960, Note_on_c, 10, 60, 0
11, 246960, Note_on_c, 10, 62, 0
11, 246960, Note_on_c, 10, 62, 85
11, 246960, Note_on_c, 10, 59, 82
11, 247020, Note_on_c, 10, 59, 0
11, 247020, Note_on_c, 10, 62, 0
11, 247020, Note_on_c, 10, 62, 89
11, 247020, Note_on_c, 10, 59, 84
11, 247080, Note_on_c, 10, 59, 0
11, 247080, Note_on_c, 10, 62, 0
11, 247080, Note_on_c, 10, 62, 89
11, 247080, Note_on_c, 10, 59, 80
11, 247140, Note_on_c, 10, 59, 0
11, 247140, Note_on_c, 10, 62, 0
11, 247140, Note_on_c, 10, 59, 84
11, 247140, Note_on_c, 10, 62, 89
11, 247200, Note_on_c, 10, 62, 0
11, 247200, Note_on_c, 10, 59, 0
11, 247200, Note_on_c, 10, 62, 89
11, 247200, Note_on_c, 10, 59, 84
11, 247260, Note_on_c, 10, 59, 0
11, 247260, Note_on_c, 10, 62, 0
11, 247260, Note_on_c, 10, 62, 86
11, 247260, Note_on_c, 10, 59, 80
11, 247320, Note_on_c, 10, 59, 0
11, 247320, Note_on_c, 10, 62, 0
11, 247320, Note_on_c, 10, 71, 95
11, 247380, Note_on_c, 10, 71, 0
11, 247380, Note_on_c, 10, 71, 101
11, 247440, Note_on_c, 10, 71, 0
11, 247440, Note_on_c, 10, 72, 84
11, 247500, Note_on_c, 10, 72, 0
11, 247500, Note_on_c, 10, 72, 86
11, 247560, Note_on_c, 10, 72, 0
11, 247560, Note_on_c, 10, 69, 99
11, 247620, Note_on_c, 10, 69, 0
11, 247620, Note_on_c, 10, 69, 101
11, 247680, Note_on_c, 10, 69, 0
11, 247680, Note_on_c, 10, 64, 89
11, 247680, Note_on_c, 10, 55, 93
11, 247740, Note_on_c, 10, 55, 0
11, 247740, Note_on_c, 10, 64, 0
11, 247740, Note_on_c, 10, 64, 86
11, 247740, Note_on_c, 10, 55, 90
11, 247800, Note_on_c, 10, 55, 0
11, 247800, Note_on_c, 10, 64, 0
11, 247800, Note_on_c, 10, 64, 89
11, 247800, Note_on_c, 10, 55, 98
11, 247860, Note_on_c, 10, 55, 0
11, 247860, Note_on_c, 10, 64, 0
11, 247860, Note_on_c, 10, 64, 93
11, 247860, Note_on_c, 10, 55, 94
11, 247920, Note_on_c, 10, 55, 0
11, 247920, Note_on_c, 10, 64, 0
11, 247920, Note_on_c, 10, 65, 93
11, 247920, Note_on_c, 10, 55, 89
11, 247980, Note_on_c, 10, 55, 0
11, 247980, Note_on_c, 10, 65, 0
11, 247980, Note_on_c, 10, 65, 94
11, 247980, Note_on_c, 10, 55, 99
11, 248040, Note_on_c, 10, 55, 0
11, 248040, Note_on_c, 10, 65, 0
11, 248040, Note_on_c, 10, 65, 90
11, 248040, Note_on_c, 10, 55, 93
11, 248100, Note_on_c, 10, 55, 0
11, 248100, Note_on_c, 10, 65, 0
11, 248100, Note_on_c, 10, 55, 98
11, 248100, Note_on_c, 10, 65, 94
11, 248160, Note_on_c, 10, 65, 0
11, 248160, Note_on_c, 10, 55, 0
11, 248160, Note_on_c, 10, 64, 98
11, 248220, Note_on_c, 10, 64, 0
11, 248220, Note_on_c, 10, 64, 99
11, 248280, Note_on_c, 10, 64, 0
11, 248280, Note_on_c, 10, 67, 90
11, 248340, Note_on_c, 10, 67, 0
11, 248340, Note_on_c, 10, 67, 95
11, 248400, Note_on_c, 10, 67, 0
11, 248400, Note_on_c, 10, 64, 98
11, 248460, Note_on_c, 10, 64, 0
11, 248460, Note_on_c, 10, 64, 98
11, 248520, Note_on_c, 10, 64, 0
11, 248520, Note_on_c, 10, 67, 84
11, 248580, Note_on_c, 10, 67, 0
11, 248580, Note_on_c, 10, 67, 95
11, 248640, Note_on_c, 10, 67, 0
11, 248640, Note_on_c, 10, 64, 99
11, 248700, Note_on_c, 10, 64, 0
11, 248700, Note_on_c, 10, 64, 101
11, 248760, Note_on_c, 10, 64, 0
11, 248760, Note_on_c, 10, 67, 99
11, 248820, Note_on_c, 10, 67, 0
11, 248820, Note_on_c, 10, 67, 98
11, 248880, Note_on_c, 10, 67, 0
11, 248880, Note_on_c, 10, 65, 94
11, 248940, Note_on_c, 10, 65, 0
11, 248940, Note_on_c, 10, 65, 95
11, 249000, Note_on_c, 10, 65, 0
11, 249000, Note_on_c, 10, 67, 93
11, 249060, Note_on_c, 10, 67, 0
11, 249060, Note_on_c, 10, 67, 95
11, 249120, Note_on_c, 10, 67, 0
11, 249120, Note_on_c, 10, 72, 125
11, 249180, Note_on_c, 10, 72, 0
11, 249180, Note_on_c, 10, 71, 117
11, 249240, Note_on_c, 10, 71, 0
11, 249240, Note_on_c, 10, 69, 119
11, 249300, Note_on_c, 10, 69, 0
11, 249300, Note_on_c, 10, 67, 123
11, 249360, Note_on_c, 10, 67, 0
11, 249360, Note_on_c, 10, 65, 119
11, 249420, Note_on_c, 10, 65, 0
11, 249420, Note_on_c, 10, 64, 119
11, 249480, Note_on_c, 10, 64, 0
11, 249480, Note_on_c, 10, 62, 119
11, 249540, Note_on_c, 10, 62, 0
11, 249540, Note_on_c, 10, 60, 110
11, 249600, Note_on_c, 10, 60, 0
11, 249600, Note_on_c, 10, 62, 119
11, 249660, Note_on_c, 10, 62, 0
11, 249660, Note_on_c, 10, 62, 123
11, 249720, Note_on_c, 10, 62, 0
11, 249720, Note_on_c, 10, 64, 119
11, 249780, Note_on_c, 10, 64, 0
11, 249780, Note_on_c, 10, 64, 117
11, 249840, Note_on_c, 10, 64, 0
11, 249840, Note_on_c, 10, 65, 127
11, 249900, Note_on_c, 10, 65, 0
11, 249900, Note_on_c, 10, 65, 125
11, 249960, Note_on_c, 10, 65, 0
11, 249960, Note_on_c, 10, 65, 119
11, 250020, Note_on_c, 10, 65, 0
11, 250020, Note_on_c, 10, 65, 125
11, 250080, Note_on_c, 10, 65, 0
11, 250080, Note_on_c, 10, 64, 123
11, 250140, Note_on_c, 10, 64, 0
11, 250140, Note_on_c, 10, 64, 119
11, 250200, Note_on_c, 10, 64, 0
11, 250200, Note_on_c, 10, 65, 125
11, 250260, Note_on_c, 10, 65, 0
11, 250260, Note_on_c, 10, 65, 123
11, 250320, Note_on_c, 10, 65, 0
11, 250320, Note_on_c, 10, 64, 125
11, 250380, Note_on_c, 10, 64, 0
11, 250380, Note_on_c, 10, 64, 125
11, 250440, Note_on_c, 10, 64, 0
11, 250440, Note_on_c, 10, 65, 125
11, 250500, Note_on_c, 10, 65, 0
11, 250500, Note_on_c, 10, 65, 127
11, 250560, Note_on_c, 10, 65, 0
11, 250560, Note_on_c, 10, 64, 117
11, 250560, Note_on_c, 10, 55, 119
11, 250800, Note_on_c, 10, 55, 0
11, 250800, Note_on_c, 10, 64, 0
11, 254880, Note_on_c, 10, 60, 66
11, 255120, Note_on_c, 10, 60, 0
11, 255360, Note_on_c, 10, 57, 70
11, 255600, Note_on_c, 10, 57, 0
11, 255840, Note_on_c, 10, 62, 58
11, 256080, Note_on_c, 10, 62, 0
11, 256320, Note_on_c, 10, 59, 42
11, 256560, Note_on_c, 10, 59, 0
11, 258720, Note_on_c, 10, 60, 56
11, 258960, Note_on_c, 10, 60, 0
11, 259200, Note_on_c, 10, 57, 68
11, 259440, Note_on_c, 10, 57, 0
11, 259680, Note_on_c, 10, 62, 65
11, 259920, Note_on_c, 10, 62, 0
11, 260160, Note_on_c, 10, 59, 57
11, 260400, Note_on_c, 10, 59, 0
11, 262080, Note_on_c, 10, 60, 72
11, 262200, Note_on_c, 10, 60, 0
11, 262320, Note_on_c, 10, 67, 94
11, 262560, Note_on_c, 10, 67, 0
11, 262560, Note_on_c, 10, 67, 54
11, 264000, Note_on_c, 10, 67, 0
11, 264000, Note_on_c, 10, 67, 52
11, 264120, Note_on_c, 10, 67, 0
11, 264120, Note_on_c, 10, 68, 73
11, 264180, Note_on_c, 10, 68, 0
11, 264240, Note_on_c, 10, 69, 80
11, 264300, Note_on_c, 10, 69, 0
11, 264360, Note_on_c, 10, 68, 73
11, 264420, Note_on_c, 10, 68, 0
11, 264480, Note_on_c, 10, 69, 86
11, 264540, Note_on_c, 10, 69, 0
11, 264600, Note_on_c, 10, 68, 66
11, 264660, Note_on_c, 10, 68, 0
11, 264720, Note_on_c, 10, 69, 73
11, 264780, Note_on_c, 10, 69, 0
11, 264840, Note_on_c, 10, 71, 77
11, 264900, Note_on_c, 10, 71, 0
11, 264960, Note_on_c, 10, 69, 80
11, 265080, Note_on_c, 10, 69, 0
11, 265920, Note_on_c, 10, 60, 72
11, 266040, Note_on_c, 10, 60, 0
11, 266160, Note_on_c, 10, 67, 94
11, 266400, Note_on_c, 10, 67, 0
11, 266400, Note_on_c, 10, 67, 54
11, 267840, Note_on_c, 10, 67, 0
11, 267840, Note_on_c, 10, 67, 52
11, 267960, Note_on_c, 10, 67, 0
11, 267960, Note_on_c, 10, 68, 73
11, 268020, Note_on_c, 10, 68, 0
11, 268080, Note_on_c, 10, 69, 80
11, 268140, Note_on_c, 10, 69, 0
11, 268200, Note_on_c, 10, 68, 73
11, 268260, Note_on_c, 10, 68, 0
11, 268320, Note_on_c, 10, 69, 86
11, 268380, Note_on_c, 10, 69, 0
11, 268440, Note_on_c, 10, 68, 66
11, 268500, Note_on_c, 10, 68, 0
11, 268560, Note_on_c, 10, 69, 73
11, 268620, Note_on_c, 10, 69, 0
11, 268680, Note_on_c, 10, 71, 77
11, 268740, Note_on_c, 10, 71, 0
11, 268800, Note_on_c, 10, 72, 62
11, 268860, Note_on_c, 10, 72, 0
11, 269760, Note_on_c, 10, 60, 46
11, 269880, Note_on_c, 10, 60, 0
11, 269880, Note_on_c, 10, 60, 57
11, 270000, Note_on_c, 10, 60, 0
11, 270000, Note_on_c, 10, 60, 59
11, 270120, Note_on_c, 10, 60, 0
11, 270120, Note_on_c, 10, 60, 53
11, 270240, Note_on_c, 10, 60, 0
11, 270240, Note_on_c, 10, 60, 43
11, 270360, Note_on_c, 10, 60, 0
11, 270360, Note_on_c, 10, 60, 43
11, 270480, Note_on_c, 10, 60, 0
11, 270480, Note_on_c, 10, 60, 45
11, 270600, Note_on_c, 10, 60, 0
11, 270600, Note_on_c, 10, 60, 44
11, 270720, Note_on_c, 10, 60, 0
11, 270720, Note_on_c, 10, 62, 43
11, 270840, Note_on_c, 10, 62, 0
11, 270840, Note_on_c, 10, 62, 43
11, 270960, Note_on_c, 10, 62, 0
11, 270960, Note_on_c, 10, 62, 35
11, 271080, Note_on_c, 10, 62, 0
11, 271080, Note_on_c, 10, 62, 48
11, 271200, Note_on_c, 10, 62, 0
11, 271200, Note_on_c, 10, 62, 41
11, 271320, Note_on_c, 10, 62, 0
11, 271320, Note_on_c, 10, 62, 43
11, 271440, Note_on_c, 10, 62, 0
11, 271440, Note_on_c, 10, 62, 43
11, 271560, Note_on_c, 10, 62, 0
11, 271560, Note_on_c, 10, 62, 48
11, 271680, Note_on_c, 10, 62, 0
11, 271680, Note_on_c, 10, 60, 36
11, 271800, Note_on_c, 10, 60, 0
11, 271800, Note_on_c, 10, 60, 54
11, 271920, Note_on_c, 10, 60, 0
11, 271920, Note_on_c, 10, 60, 43
11, 272040, Note_on_c, 10, 60, 0
11, 272040, Note_on_c, 10, 60, 40
11, 272160, Note_on_c, 10, 60, 0
11, 272160, Note_on_c, 10, 60, 41
11, 272280, Note_on_c, 10, 60, 0
11, 272280, Note_on_c, 10, 60, 43
11, 272400, Note_on_c, 10, 60, 0
11, 272400, Note_on_c, 10, 60, 42
11, 272520, Note_on_c, 10, 60, 0
11, 272520, Note_on_c, 10, 60, 44
11, 272640, Note_on_c, 10, 60, 0
11, 272640, Note_on_c, 10, 62, 58
11, 272760, Note_on_c, 10, 62, 0
11, 272760, Note_on_c, 10, 62, 43
11, 272880, Note_on_c, 10, 62, 0
11, 272880, Note_on_c, 10, 62, 43
11, 273000, Note_on_c, 10, 62, 0
11, 273000, Note_on_c, 10, 62, 43
11, 273120, Note_on_c, 10, 62, 0
11, 273120, Note_on_c, 10, 62, 43
11, 273240, Note_on_c, 10, 62, 0
11, 273240, Note_on_c, 10, 62, 41
11, 273360, Note_on_c, 10, 62, 0
11, 273360, Note_on_c, 10, 62, 43
11, 273480, Note_on_c, 10, 62, 0
11, 273480, Note_on_c, 10, 62, 43
11, 273600, Note_on_c, 10, 62, 0
11, 273600, Note_on_c, 10, 60, 38
11, 273720, Note_on_c, 10, 60, 0
11, 273720, Note_on_c, 10, 60, 40
11, 273840, Note_on_c, 10, 60, 0
11, 273840, Note_on_c, 10, 60, 38
11, 273960, Note_on_c, 10, 60, 0
11, 273960, Note_on_c, 10, 60, 38
11, 274080, Note_on_c, 10, 60, 0
11, 274080, Note_on_c, 10, 62, 33
11, 274200, Note_on_c, 10, 62, 0
11, 274200, Note_on_c, 10, 62, 40
11, 274320, Note_on_c, 10, 62, 0
11, 274320, Note_on_c, 10, 62, 43
11, 274440, Note_on_c, 10, 62, 0
11, 274440, Note_on_c, 10, 62, 38
11, 274560, Note_on_c, 10, 62, 0
11, 274560, Note_on_c, 10, 60, 38
11, 274680, Note_on_c, 10, 60, 0
11, 274680, Note_on_c, 10, 60, 45
11, 274800, Note_on_c, 10, 60, 0
11, 274800, Note_on_c, 10, 60, 43
11, 274920, Note_on_c, 10, 60, 0
11, 274920, Note_on_c, 10, 60, 41
11, 275040, Note_on_c, 10, 60, 0
11, 275040, Note_on_c, 10, 62, 38
11, 275160, Note_on_c, 10, 62, 0
11, 275160, Note_on_c, 10, 62, 39
11, 275280, Note_on_c, 10, 62, 0
11, 275280, Note_on_c, 10, 62, 33
11, 275400, Note_on_c, 10, 62, 0
11, 275400, Note_on_c, 10, 62, 38
11, 275520, Note_on_c, 10, 62, 0
11, 275520, Note_on_c, 10, 60, 50
11, 275760, Note_on_c, 10, 60, 0
11, 277920, Note_on_c, 10, 65, 43
11, 278880, Note_on_c, 10, 65, 0
11, 280440, Note_on_c, 10, 64, 45
11, 281160, Note_on_c, 10, 64, 0
11, 282600, Note_on_c, 10, 76, 99
11, 282660, Note_on_c, 10, 76, 0
11, 282660, Note_on_c, 10, 76, 104
11, 282720, Note_on_c, 10, 76, 0
11, 282720, Note_on_c, 10, 77, 99
11, 282780, Note_on_c, 10, 77, 0
11, 282780, Note_on_c, 10, 77, 101
11, 282840, Note_on_c, 10, 77, 0
11, 282840, Note_on_c, 10, 77, 89
11, 282900, Note_on_c, 10, 77, 0
11, 282900, Note_on_c, 10, 77, 95
11, 282960, Note_on_c, 10, 77, 0
11, 282960, Note_on_c, 10, 77, 94
11, 283020, Note_on_c, 10, 77, 0
11, 283020, Note_on_c, 10, 77, 90
11, 283080, Note_on_c, 10, 77, 0
11, 283080, Note_on_c, 10, 77, 95
11, 283140, Note_on_c, 10, 77, 0
11, 283140, Note_on_c, 10, 77, 94
11, 283200, Note_on_c, 10, 77, 0
11, 283200, Note_on_c, 10, 77, 99
11, 283260, Note_on_c, 10, 77, 0
11, 283260, Note_on_c, 10, 77, 95
11, 283320, Note_on_c, 10, 77, 0
11, 283320, Note_on_c, 10, 77, 95
11, 283380, Note_on_c, 10, 77, 0
11, 283380, Note_on_c, 10, 77, 95
11, 283440, Note_on_c, 10, 77, 0
11, 283440, Note_on_c, 10, 77, 99
11, 283500, Note_on_c, 10, 77, 0
11, 283500, Note_on_c, 10, 77, 99
11, 283560, Note_on_c, 10, 77, 0
11, 283560, Note_on_c, 10, 77, 99
11, 283620, Note_on_c, 10, 77, 0
11, 283620, Note_on_c, 10, 77, 99
11, 283680, Note_on_c, 10, 77, 0
11, 283680, Note_on_c, 10, 76, 104
11, 283740, Note_on_c, 10, 76, 0
11, 283740, Note_on_c, 10, 76, 101
11, 283800, Note_on_c, 10, 76, 0
11, 283800, Note_on_c, 10, 77, 98
11, 283860, Note_on_c, 10, 77, 0
11, 283860, Note_on_c, 10, 77, 99
11, 283920, Note_on_c, 10, 77, 0
11, 283920, Note_on_c, 10, 76, 104
11, 283980, Note_on_c, 10, 76, 0
11, 283980, Note_on_c, 10, 76, 99
11, 284040, Note_on_c, 10, 76, 0
11, 284040, Note_on_c, 10, 77, 95
11, 284100, Note_on_c, 10, 77, 0
11, 284100, Note_on_c, 10, 77, 95
11, 284160, Note_on_c, 10, 77, 0
11, 284160, Note_on_c, 10, 76, 104
11, 284220, Note_on_c, 10, 76, 0
11, 284220, Note_on_c, 10, 76, 99
11, 284280, Note_on_c, 10, 76, 0
11, 284280, Note_on_c, 10, 77, 95
11, 284340, Note_on_c, 10, 77, 0
11, 284340, Note_on_c, 10, 77, 101
11, 284400, Note_on_c, 10, 77, 0
11, 284400, Note_on_c, 10, 76, 104
11, 284460, Note_on_c, 10, 76, 0
11, 284460, Note_on_c, 10, 76, 104
11, 284520, Note_on_c, 10, 76, 0
11, 284520, Note_on_c, 10, 77, 99
11, 284580, Note_on_c, 10, 77, 0
11, 284580, Note_on_c, 10, 77, 99
11, 284640, Note_on_c, 10, 77, 0
11, 284640, Note_on_c, 10, 76, 105
11, 284880, Note_on_c, 10, 76, 0
11, 284880, Note_on_c, 10, 72, 86
11, 284880, Note_on_c, 10, 64, 94
11, 284880, Note_on_c, 10, 55, 95
11, 285120, Note_on_c, 10, 55, 0
11, 285120, Note_on_c, 10, 64, 0
11, 285120, Note_on_c, 10, 72, 0
11, 285120, Note_on_c, 10, 60, 104
11, 285360, Note_on_c, 10, 60, 0
11, 285360, End_track
12, 0, Start_track
12, 0, MIDI_port, 0
12, 0, Title_t, "Violas"
12, 0, Program_c, 11, 48
12, 0, Control_c, 11, 7, 100
12, 0, Control_c, 11, 10, 64
12, 0, Control_c, 11, 93, 0
12, 0, Control_c, 11, 91, 66
12, 10080, Note_on_c, 11, 48, 95
12, 10200, Note_on_c, 11, 48, 0
12, 10200, Note_on_c, 11, 60, 93
12, 10320, Note_on_c, 11, 60, 0
12, 10320, Note_on_c, 11, 60, 89
12, 10440, Note_on_c, 11, 60, 0
12, 10440, Note_on_c, 11, 60, 86
12, 10560, Note_on_c, 11, 60, 0
12, 10560, Note_on_c, 11, 48, 99
12, 10680, Note_on_c, 11, 48, 0
12, 10680, Note_on_c, 11, 60, 89
12, 10800, Note_on_c, 11, 60, 0
12, 10800, Note_on_c, 11, 60, 89
12, 10920, Note_on_c, 11, 60, 0
12, 10920, Note_on_c, 11, 60, 84
12, 11040, Note_on_c, 11, 60, 0
12, 11040, Note_on_c, 11, 48, 101
12, 11160, Note_on_c, 11, 48, 0
12, 11160, Note_on_c, 11, 60, 84
12, 11280, Note_on_c, 11, 60, 0
12, 11280, Note_on_c, 11, 60, 86
12, 11400, Note_on_c, 11, 60, 0
12, 11400, Note_on_c, 11, 60, 86
12, 11520, Note_on_c, 11, 60, 0
12, 11520, Note_on_c, 11, 59, 99
12, 11580, Note_on_c, 11, 59, 0
12, 11640, Note_on_c, 11, 64, 89
12, 11700, Note_on_c, 11, 64, 0
12, 11760, Note_on_c, 11, 60, 94
12, 11820, Note_on_c, 11, 60, 0
12, 11880, Note_on_c, 11, 64, 93
12, 11940, Note_on_c, 11, 64, 0
12, 12000, Note_on_c, 11, 55, 101
12, 12060, Note_on_c, 11, 55, 0
12, 12120, Note_on_c, 11, 64, 86
12, 12180, Note_on_c, 11, 64, 0
12, 12240, Note_on_c, 11, 60, 89
12, 12300, Note_on_c, 11, 60, 0
12, 12360, Note_on_c, 11, 62, 94
12, 12420, Note_on_c, 11, 62, 0
12, 12480, Note_on_c, 11, 55, 95
12, 12540, Note_on_c, 11, 55, 0
12, 12600, Note_on_c, 11, 67, 81
12, 12660, Note_on_c, 11, 67, 0
12, 12720, Note_on_c, 11, 55, 99
12, 12780, Note_on_c, 11, 55, 0
12, 12960, Note_on_c, 11, 55, 94
12, 13200, Note_on_c, 11, 55, 0
12, 13200, Note_on_c, 11, 55, 94
12, 13440, Note_on_c, 11, 55, 0
12, 13440, Note_on_c, 11, 55, 119
12, 13500, Note_on_c, 11, 55, 0
12, 13500, Note_on_c, 11, 54, 95
12, 13560, Note_on_c, 11, 54, 0
12, 13560, Note_on_c, 11, 55, 98
12, 13620, Note_on_c, 11, 55, 0
12, 13620, Note_on_c, 11, 54, 86
12, 13680, Note_on_c, 11, 54, 0
12, 13680, Note_on_c, 11, 55, 99
12, 13800, Note_on_c, 11, 55, 0
12, 13920, Note_on_c, 11, 55, 94
12, 14160, Note_on_c, 11, 55, 0
12, 14160, Note_on_c, 11, 55, 99
12, 14400, Note_on_c, 11, 55, 0
12, 14400, Note_on_c, 11, 55, 119
12, 14460, Note_on_c, 11, 55, 0
12, 14460, Note_on_c, 11, 54, 95
12, 14520, Note_on_c, 11, 54, 0
12, 14520, Note_on_c, 11, 55, 95
12, 14580, Note_on_c, 11, 55, 0
12, 14580, Note_on_c, 11, 54, 94
12, 14640, Note_on_c, 11, 54, 0
12, 14640, Note_on_c, 11, 55, 98
12, 15000, Note_on_c, 11, 55, 0
12, 15000, Note_on_c, 11, 56, 119
12, 15120, Note_on_c, 11, 56, 0
12, 15120, Note_on_c, 11, 55, 94
12, 15480, Note_on_c, 11, 55, 0
12, 15480, Note_on_c, 11, 56, 117
12, 15600, Note_on_c, 11, 56, 0
12, 15600, Note_on_c, 11, 55, 95
12, 15960, Note_on_c, 11, 55, 0
12, 15960, Note_on_c, 11, 56, 98
12, 16080, Note_on_c, 11, 56, 0
12, 16080, Note_on_c, 11, 59, 93
12, 16140, Note_on_c, 11, 59, 0
12, 16200, Note_on_c, 11, 53, 93
12, 16260, Note_on_c, 11, 53, 0
12, 16320, Note_on_c, 11, 55, 94
12, 16380, Note_on_c, 11, 55, 0
12, 16440, Note_on_c, 11, 55, 90
12, 16500, Note_on_c, 11, 55, 0
12, 16560, Note_on_c, 11, 67, 90
12, 16620, Note_on_c, 11, 67, 0
12, 16680, Note_on_c, 11, 67, 95
12, 16740, Note_on_c, 11, 67, 0
12, 16800, Note_on_c, 11, 60, 95
12, 16860, Note_on_c, 11, 60, 0
12, 16860, Note_on_c, 11, 60, 95
12, 16920, Note_on_c, 11, 60, 0
12, 16920, Note_on_c, 11, 55, 98
12, 16980, Note_on_c, 11, 55, 0
12, 16980, Note_on_c, 11, 55, 95
12, 17040, Note_on_c, 11, 55, 0
12, 17040, Note_on_c, 11, 60, 95
12, 17100, Note_on_c, 11, 60, 0
12, 17100, Note_on_c, 11, 60, 99
12, 17160, Note_on_c, 11, 60, 0
12, 17160, Note_on_c, 11, 55, 95
12, 17220, Note_on_c, 11, 55, 0
12, 17220, Note_on_c, 11, 55, 81
12, 17280, Note_on_c, 11, 55, 0
12, 17280, Note_on_c, 11, 59, 104
12, 17340, Note_on_c, 11, 59, 0
12, 17340, Note_on_c, 11, 59, 104
12, 17400, Note_on_c, 11, 59, 0
12, 17400, Note_on_c, 11, 55, 99
12, 17460, Note_on_c, 11, 55, 0
12, 17460, Note_on_c, 11, 55, 99
12, 17520, Note_on_c, 11, 55, 0
12, 17520, Note_on_c, 11, 62, 95
12, 17580, Note_on_c, 11, 62, 0
12, 17580, Note_on_c, 11, 62, 99
12, 17640, Note_on_c, 11, 62, 0
12, 17640, Note_on_c, 11, 55, 99
12, 17700, Note_on_c, 11, 55, 0
12, 17700, Note_on_c, 11, 55, 95
12, 17760, Note_on_c, 11, 55, 0
12, 17760, Note_on_c, 11, 72, 125
12, 17820, Note_on_c, 11, 72, 0
12, 17820, Note_on_c, 11, 71, 117
12, 17880, Note_on_c, 11, 71, 0
12, 17880, Note_on_c, 11, 69, 119
12, 17940, Note_on_c, 11, 69, 0
12, 17940, Note_on_c, 11, 67, 123
12, 18000, Note_on_c, 11, 67, 0
12, 18000, Note_on_c, 11, 65, 119
12, 18060, Note_on_c, 11, 65, 0
12, 18060, Note_on_c, 11, 64, 119
12, 18120, Note_on_c, 11, 64, 0
12, 18120, Note_on_c, 11, 62, 119
12, 18180, Note_on_c, 11, 62, 0
12, 18180, Note_on_c, 11, 60, 110
12, 18240, Note_on_c, 11, 60, 0
12, 18240, Note_on_c, 11, 59, 123
12, 18300, Note_on_c, 11, 59, 0
12, 18300, Note_on_c, 11, 59, 115
12, 18360, Note_on_c, 11, 59, 0
12, 18360, Note_on_c, 11, 60, 123
12, 18420, Note_on_c, 11, 60, 0
12, 18420, Note_on_c, 11, 60, 123
12, 18480, Note_on_c, 11, 60, 0
12, 18480, Note_on_c, 11, 62, 119
12, 18540, Note_on_c, 11, 62, 0
12, 18540, Note_on_c, 11, 62, 119
12, 18600, Note_on_c, 11, 62, 0
12, 18600, Note_on_c, 11, 62, 125
12, 18660, Note_on_c, 11, 62, 0
12, 18660, Note_on_c, 11, 62, 119
12, 18720, Note_on_c, 11, 62, 0
12, 18720, Note_on_c, 11, 60, 123
12, 18780, Note_on_c, 11, 60, 0
12, 18780, Note_on_c, 11, 60, 123
12, 18840, Note_on_c, 11, 60, 0
12, 18840, Note_on_c, 11, 55, 125
12, 18900, Note_on_c, 11, 55, 0
12, 18900, Note_on_c, 11, 55, 117
12, 18960, Note_on_c, 11, 55, 0
12, 18960, Note_on_c, 11, 60, 125
12, 19020, Note_on_c, 11, 60, 0
12, 19020, Note_on_c, 11, 60, 125
12, 19080, Note_on_c, 11, 60, 0
12, 19080, Note_on_c, 11, 55, 119
12, 19140, Note_on_c, 11, 55, 0
12, 19140, Note_on_c, 11, 55, 125
12, 19200, Note_on_c, 11, 55, 0
12, 19200, Note_on_c, 11, 60, 127
12, 19440, Note_on_c, 11, 60, 0
12, 21600, Note_on_c, 11, 55, 64
12, 21960, Note_on_c, 11, 55, 0
12, 21960, Note_on_c, 11, 57, 76
12, 22020, Note_on_c, 11, 57, 0
12, 22020, Note_on_c, 11, 59, 84
12, 22080, Note_on_c, 11, 59, 0
12, 22080, Note_on_c, 11, 60, 73
12, 22140, Note_on_c, 11, 60, 0
12, 23520, Note_on_c, 11, 64, 69
12, 23880, Note_on_c, 11, 64, 0
12, 23880, Note_on_c, 11, 66, 81
12, 23940, Note_on_c, 11, 66, 0
12, 23940, Note_on_c, 11, 68, 80
12, 24000, Note_on_c, 11, 68, 0
12, 24000, Note_on_c, 11, 69, 67
12, 24060, Note_on_c, 11, 69, 0
12, 25920, Note_on_c, 11, 57, 63
12, 26880, Note_on_c, 11, 57, 0
12, 26880, Note_on_c, 11, 55, 64
12, 27000, Note_on_c, 11, 55, 0
12, 27840, Note_on_c, 11, 57, 65
12, 28800, Note_on_c, 11, 57, 0
12, 28800, Note_on_c, 11, 57, 57
12, 29040, Note_on_c, 11, 57, 0
12, 29760, Note_on_c, 11, 62, 89
12, 30000, Note_on_c, 11, 62, 0
12, 30600, Note_on_c, 11, 64, 80
12, 30720, Note_on_c, 11, 64, 0
12, 30720, Note_on_c, 11, 69, 60
12, 30780, Note_on_c, 11, 69, 0
12, 30840, Note_on_c, 11, 69, 77
12, 30900, Note_on_c, 11, 69, 0
12, 30960, Note_on_c, 11, 69, 89
12, 31020, Note_on_c, 11, 69, 0
12, 31080, Note_on_c, 11, 69, 94
12, 31140, Note_on_c, 11, 69, 0
12, 31200, Note_on_c, 11, 69, 84
12, 31440, Note_on_c, 11, 69, 0
12, 31680, Note_on_c, 11, 55, 62
12, 32040, Note_on_c, 11, 55, 0
12, 32040, Note_on_c, 11, 50, 110
12, 32160, Note_on_c, 11, 50, 0
12, 32160, Note_on_c, 11, 57, 50
12, 32520, Note_on_c, 11, 57, 0
12, 32520, Note_on_c, 11, 57, 112
12, 32640, Note_on_c, 11, 57, 0
12, 32640, Note_on_c, 11, 55, 80
12, 33000, Note_on_c, 11, 55, 0
12, 33000, Note_on_c, 11, 50, 112
12, 33120, Note_on_c, 11, 50, 0
12, 33120, Note_on_c, 11, 57, 69
12, 33360, Note_on_c, 11, 57, 0
12, 33600, Note_on_c, 11, 54, 72
12, 33720, Note_on_c, 11, 54, 0
12, 33720, Note_on_c, 11, 52, 80
12, 33840, Note_on_c, 11, 52, 0
12, 33840, Note_on_c, 11, 54, 70
12, 33960, Note_on_c, 11, 54, 0
12, 33960, Note_on_c, 11, 50, 73
12, 34080, Note_on_c, 11, 50, 0
12, 34080, Note_on_c, 11, 55, 72
12, 34200, Note_on_c, 11, 55, 0
12, 34200, Note_on_c, 11, 54, 76
12, 34320, Note_on_c, 11, 54, 0
12, 34320, Note_on_c, 11, 55, 76
12, 34440, Note_on_c, 11, 55, 0
12, 34440, Note_on_c, 11, 59, 74
12, 34560, Note_on_c, 11, 59, 0
12, 34560, Note_on_c, 11, 60, 80
12, 34680, Note_on_c, 11, 60, 0
12, 34680, Note_on_c, 11, 59, 77
12, 34800, Note_on_c, 11, 59, 0
12, 34800, Note_on_c, 11, 60, 76
12, 34920, Note_on_c, 11, 60, 0
12, 34920, Note_on_c, 11, 61, 74
12, 35040, Note_on_c, 11, 61, 0
12, 35040, Note_on_c, 11, 62, 74
12, 35280, Note_on_c, 11, 62, 0
12, 35520, Note_on_c, 11, 55, 56
12, 35760, Note_on_c, 11, 55, 0
12, 35880, Note_on_c, 11, 50, 45
12, 35940, Note_on_c, 11, 50, 0
12, 36000, Note_on_c, 11, 57, 73
12, 36240, Note_on_c, 11, 57, 0
12, 36360, Note_on_c, 11, 57, 76
12, 36420, Note_on_c, 11, 57, 0
12, 36480, Note_on_c, 11, 55, 49
12, 36720, Note_on_c, 11, 55, 0
12, 36840, Note_on_c, 11, 50, 81
12, 36900, Note_on_c, 11, 50, 0
12, 36960, Note_on_c, 11, 57, 74
12, 37200, Note_on_c, 11, 57, 0
12, 40800, Note_on_c, 11, 55, 45
12, 40920, Note_on_c, 11, 55, 0
12, 40920, Note_on_c, 11, 55, 62
12, 41040, Note_on_c, 11, 55, 0
12, 41040, Note_on_c, 11, 55, 62
12, 41160, Note_on_c, 11, 55, 0
12, 41160, Note_on_c, 11, 55, 68
12, 41280, Note_on_c, 11, 55, 0
12, 41280, Note_on_c, 11, 55, 65
12, 41400, Note_on_c, 11, 55, 0
12, 41400, Note_on_c, 11, 55, 65
12, 41520, Note_on_c, 11, 55, 0
12, 41520, Note_on_c, 11, 56, 59
12, 41580, Note_on_c, 11, 56, 0
12, 41580, Note_on_c, 11, 55, 54
12, 41640, Note_on_c, 11, 55, 0
12, 41640, Note_on_c, 11, 53, 51
12, 41700, Note_on_c, 11, 53, 0
12, 41700, Note_on_c, 11, 55, 56
12, 41760, Note_on_c, 11, 55, 0
12, 41760, Note_on_c, 11, 56, 73
12, 41880, Note_on_c, 11, 56, 0
12, 41880, Note_on_c, 11, 67, 43
12, 42000, Note_on_c, 11, 67, 0
12, 42000, Note_on_c, 11, 65, 84
12, 42120, Note_on_c, 11, 65, 0
12, 42120, Note_on_c, 11, 63, 84
12, 42240, Note_on_c, 11, 63, 0
12, 42240, Note_on_c, 11, 62, 81
12, 42360, Note_on_c, 11, 62, 0
12, 42360, Note_on_c, 11, 60, 84
12, 42480, Note_on_c, 11, 60, 0
12, 42480, Note_on_c, 11, 62, 94
12, 42600, Note_on_c, 11, 62, 0
12, 42600, Note_on_c, 11, 58, 81
12, 42720, Note_on_c, 11, 58, 0
12, 42720, Note_on_c, 11, 58, 63
12, 43680, Note_on_c, 11, 58, 0
12, 43680, Note_on_c, 11, 58, 65
12, 44400, Note_on_c, 11, 58, 0
12, 51840, Note_on_c, 11, 55, 82
12, 52320, Note_on_c, 11, 55, 0
12, 52320, Note_on_c, 11, 59, 76
12, 52800, Note_on_c, 11, 59, 0
12, 52800, Note_on_c, 11, 55, 81
12, 53040, Note_on_c, 11, 55, 0
12, 53040, Note_on_c, 11, 52, 72
12, 53520, Note_on_c, 11, 52, 0
12, 53520, Note_on_c, 11, 60, 84
12, 53760, Note_on_c, 11, 60, 0
12, 53760, Note_on_c, 11, 59, 72
12, 54240, Note_on_c, 11, 59, 0
12, 54240, Note_on_c, 11, 57, 72
12, 54720, Note_on_c, 11, 57, 0
12, 54960, Note_on_c, 11, 59, 77
12, 55080, Note_on_c, 11, 59, 0
12, 55440, Note_on_c, 11, 59, 72
12, 55560, Note_on_c, 11, 59, 0
12, 55920, Note_on_c, 11, 60, 80
12, 56040, Note_on_c, 11, 60, 0
12, 56400, Note_on_c, 11, 60, 77
12, 56520, Note_on_c, 11, 60, 0
12, 56880, Note_on_c, 11, 62, 77
12, 57000, Note_on_c, 11, 62, 0
12, 57360, Note_on_c, 11, 62, 78
12, 57480, Note_on_c, 11, 62, 0
12, 57600, Note_on_c, 11, 62, 76
12, 57720, Note_on_c, 11, 62, 0
12, 61440, Note_on_c, 11, 55, 95
12, 61800, Note_on_c, 11, 55, 0
12, 61800, Note_on_c, 11, 55, 81
12, 61920, Note_on_c, 11, 55, 0
12, 61920, Note_on_c, 11, 55, 89
12, 62040, Note_on_c, 11, 55, 0
12, 62040, Note_on_c, 11, 55, 89
12, 62160, Note_on_c, 11, 55, 0
12, 62160, Note_on_c, 11, 55, 85
12, 62280, Note_on_c, 11, 55, 0
12, 62280, Note_on_c, 11, 55, 86
12, 62400, Note_on_c, 11, 55, 0
12, 62400, Note_on_c, 11, 56, 81
12, 62760, Note_on_c, 11, 56, 0
12, 63720, Note_on_c, 11, 55, 94
12, 63840, Note_on_c, 11, 55, 0
12, 63840, Note_on_c, 11, 56, 94
12, 63960, Note_on_c, 11, 56, 0
12, 63960, Note_on_c, 11, 56, 93
12, 64080, Note_on_c, 11, 56, 0
12, 64080, Note_on_c, 11, 57, 105
12, 64200, Note_on_c, 11, 57, 0
12, 64200, Note_on_c, 11, 57, 101
12, 64320, Note_on_c, 11, 57, 0
12, 64320, Note_on_c, 11, 58, 93
12, 64680, Note_on_c, 11, 58, 0
12, 65640, Note_on_c, 11, 57, 110
12, 65760, Note_on_c, 11, 57, 0
12, 65760, Note_on_c, 11, 58, 94
12, 65880, Note_on_c, 11, 58, 0
12, 65880, Note_on_c, 11, 58, 93
12, 66000, Note_on_c, 11, 58, 0
12, 66000, Note_on_c, 11, 59, 98
12, 66120, Note_on_c, 11, 59, 0
12, 66120, Note_on_c, 11, 59, 98
12, 66240, Note_on_c, 11, 59, 0
12, 66240, Note_on_c, 11, 60, 98
12, 66600, Note_on_c, 11, 60, 0
12, 68400, Note_on_c, 11, 55, 52
12, 68640, Note_on_c, 11, 55, 0
12, 68880, Note_on_c, 11, 55, 52
12, 69120, Note_on_c, 11, 55, 0
12, 69360, Note_on_c, 11, 55, 52
12, 69600, Note_on_c, 11, 55, 0
12, 69840, Note_on_c, 11, 55, 52
12, 70080, Note_on_c, 11, 55, 0
12, 82560, Note_on_c, 11, 48, 95
12, 82680, Note_on_c, 11, 48, 0
12, 82680, Note_on_c, 11, 60, 93
12, 82800, Note_on_c, 11, 60, 0
12, 82800, Note_on_c, 11, 60, 89
12, 82920, Note_on_c, 11, 60, 0
12, 82920, Note_on_c, 11, 60, 86
12, 83040, Note_on_c, 11, 60, 0
12, 83040, Note_on_c, 11, 48, 99
12, 83160, Note_on_c, 11, 48, 0
12, 83160, Note_on_c, 11, 60, 89
12, 83280, Note_on_c, 11, 60, 0
12, 83280, Note_on_c, 11, 60, 89
12, 83400, Note_on_c, 11, 60, 0
12, 83400, Note_on_c, 11, 60, 84
12, 83520, Note_on_c, 11, 60, 0
12, 83520, Note_on_c, 11, 48, 101
12, 83640, Note_on_c, 11, 48, 0
12, 83640, Note_on_c, 11, 60, 84
12, 83760, Note_on_c, 11, 60, 0
12, 83760, Note_on_c, 11, 60, 86
12, 83880, Note_on_c, 11, 60, 0
12, 83880, Note_on_c, 11, 60, 86
12, 84000, Note_on_c, 11, 60, 0
12, 84000, Note_on_c, 11, 59, 99
12, 84060, Note_on_c, 11, 59, 0
12, 84120, Note_on_c, 11, 64, 89
12, 84180, Note_on_c, 11, 64, 0
12, 84240, Note_on_c, 11, 60, 94
12, 84300, Note_on_c, 11, 60, 0
12, 84360, Note_on_c, 11, 64, 93
12, 84420, Note_on_c, 11, 64, 0
12, 84480, Note_on_c, 11, 55, 101
12, 84540, Note_on_c, 11, 55, 0
12, 84600, Note_on_c, 11, 64, 86
12, 84660, Note_on_c, 11, 64, 0
12, 84720, Note_on_c, 11, 60, 89
12, 84780, Note_on_c, 11, 60, 0
12, 84840, Note_on_c, 11, 62, 94
12, 84900, Note_on_c, 11, 62, 0
12, 84960, Note_on_c, 11, 55, 95
12, 85020, Note_on_c, 11, 55, 0
12, 85080, Note_on_c, 11, 67, 81
12, 85140, Note_on_c, 11, 67, 0
12, 85200, Note_on_c, 11, 55, 99
12, 85260, Note_on_c, 11, 55, 0
12, 85440, Note_on_c, 11, 55, 94
12, 85680, Note_on_c, 11, 55, 0
12, 85680, Note_on_c, 11, 55, 94
12, 85920, Note_on_c, 11, 55, 0
12, 85920, Note_on_c, 11, 55, 119
12, 85980, Note_on_c, 11, 55, 0
12, 85980, Note_on_c, 11, 54, 95
12, 86040, Note_on_c, 11, 54, 0
12, 86040, Note_on_c, 11, 55, 98
12, 86100, Note_on_c, 11, 55, 0
12, 86100, Note_on_c, 11, 54, 86
12, 86160, Note_on_c, 11, 54, 0
12, 86160, Note_on_c, 11, 55, 99
12, 86280, Note_on_c, 11, 55, 0
12, 86400, Note_on_c, 11, 55, 94
12, 86640, Note_on_c, 11, 55, 0
12, 86640, Note_on_c, 11, 55, 99
12, 86880, Note_on_c, 11, 55, 0
12, 86880, Note_on_c, 11, 55, 119
12, 86940, Note_on_c, 11, 55, 0
12, 86940, Note_on_c, 11, 54, 95
12, 87000, Note_on_c, 11, 54, 0
12, 87000, Note_on_c, 11, 55, 95
12, 87060, Note_on_c, 11, 55, 0
12, 87060, Note_on_c, 11, 54, 94
12, 87120, Note_on_c, 11, 54, 0
12, 87120, Note_on_c, 11, 55, 98
12, 87480, Note_on_c, 11, 55, 0
12, 87480, Note_on_c, 11, 56, 119
12, 87600, Note_on_c, 11, 56, 0
12, 87600, Note_on_c, 11, 55, 94
12, 87960, Note_on_c, 11, 55, 0
12, 87960, Note_on_c, 11, 56, 117
12, 88080, Note_on_c, 11, 56, 0
12, 88080, Note_on_c, 11, 55, 95
12, 88440, Note_on_c, 11, 55, 0
12, 88440, Note_on_c, 11, 56, 98
12, 88560, Note_on_c, 11, 56, 0
12, 88560, Note_on_c, 11, 59, 93
12, 88620, Note_on_c, 11, 59, 0
12, 88680, Note_on_c, 11, 53, 93
12, 88740, Note_on_c, 11, 53, 0
12, 88800, Note_on_c, 11, 55, 94
12, 88860, Note_on_c, 11, 55, 0
12, 88920, Note_on_c, 11, 55, 90
12, 88980, Note_on_c, 11, 55, 0
12, 89040, Note_on_c, 11, 67, 90
12, 89100, Note_on_c, 11, 67, 0
12, 89160, Note_on_c, 11, 67, 95
12, 89220, Note_on_c, 11, 67, 0
12, 89280, Note_on_c, 11, 60, 95
12, 89340, Note_on_c, 11, 60, 0
12, 89340, Note_on_c, 11, 60, 95
12, 89400, Note_on_c, 11, 60, 0
12, 89400, Note_on_c, 11, 55, 98
12, 89460, Note_on_c, 11, 55, 0
12, 89460, Note_on_c, 11, 55, 95
12, 89520, Note_on_c, 11, 55, 0
12, 89520, Note_on_c, 11, 60, 95
12, 89580, Note_on_c, 11, 60, 0
12, 89580, Note_on_c, 11, 60, 99
12, 89640, Note_on_c, 11, 60, 0
12, 89640, Note_on_c, 11, 55, 95
12, 89700, Note_on_c, 11, 55, 0
12, 89700, Note_on_c, 11, 55, 81
12, 89760, Note_on_c, 11, 55, 0
12, 89760, Note_on_c, 11, 59, 104
12, 89820, Note_on_c, 11, 59, 0
12, 89820, Note_on_c, 11, 59, 104
12, 89880, Note_on_c, 11, 59, 0
12, 89880, Note_on_c, 11, 55, 99
12, 89940, Note_on_c, 11, 55, 0
12, 89940, Note_on_c, 11, 55, 99
12, 90000, Note_on_c, 11, 55, 0
12, 90000, Note_on_c, 11, 62, 95
12, 90060, Note_on_c, 11, 62, 0
12, 90060, Note_on_c, 11, 62, 99
12, 90120, Note_on_c, 11, 62, 0
12, 90120, Note_on_c, 11, 55, 99
12, 90180, Note_on_c, 11, 55, 0
12, 90180, Note_on_c, 11, 55, 95
12, 90240, Note_on_c, 11, 55, 0
12, 90240, Note_on_c, 11, 72, 125
12, 90300, Note_on_c, 11, 72, 0
12, 90300, Note_on_c, 11, 71, 117
12, 90360, Note_on_c, 11, 71, 0
12, 90360, Note_on_c, 11, 69, 119
12, 90420, Note_on_c, 11, 69, 0
12, 90420, Note_on_c, 11, 67, 123
12, 90480, Note_on_c, 11, 67, 0
12, 90480, Note_on_c, 11, 65, 119
12, 90540, Note_on_c, 11, 65, 0
12, 90540, Note_on_c, 11, 64, 119
12, 90600, Note_on_c, 11, 64, 0
12, 90600, Note_on_c, 11, 62, 119
12, 90660, Note_on_c, 11, 62, 0
12, 90660, Note_on_c, 11, 60, 110
12, 90720, Note_on_c, 11, 60, 0
12, 90720, Note_on_c, 11, 59, 123
12, 90780, Note_on_c, 11, 59, 0
12, 90780, Note_on_c, 11, 59, 115
12, 90840, Note_on_c, 11, 59, 0
12, 90840, Note_on_c, 11, 60, 123
12, 90900, Note_on_c, 11, 60, 0
12, 90900, Note_on_c, 11, 60, 123
12, 90960, Note_on_c, 11, 60, 0
12, 90960, Note_on_c, 11, 62, 119
12, 91020, Note_on_c, 11, 62, 0
12, 91020, Note_on_c, 11, 62, 119
12, 91080, Note_on_c, 11, 62, 0
12, 91080, Note_on_c, 11, 62, 125
12, 91140, Note_on_c, 11, 62, 0
12, 91140, Note_on_c, 11, 62, 119
12, 91200, Note_on_c, 11, 62, 0
12, 91200, Note_on_c, 11, 60, 123
12, 91260, Note_on_c, 11, 60, 0
12, 91260, Note_on_c, 11, 60, 123
12, 91320, Note_on_c, 11, 60, 0
12, 91320, Note_on_c, 11, 55, 125
12, 91380, Note_on_c, 11, 55, 0
12, 91380, Note_on_c, 11, 55, 117
12, 91440, Note_on_c, 11, 55, 0
12, 91440, Note_on_c, 11, 60, 125
12, 91500, Note_on_c, 11, 60, 0
12, 91500, Note_on_c, 11, 60, 125
12, 91560, Note_on_c, 11, 60, 0
12, 91560, Note_on_c, 11, 55, 119
12, 91620, Note_on_c, 11, 55, 0
12, 91620, Note_on_c, 11, 55, 125
12, 91680, Note_on_c, 11, 55, 0
12, 91680, Note_on_c, 11, 60, 127
12, 91920, Note_on_c, 11, 60, 0
12, 92880, Note_on_c, 11, 64, 57
12, 93240, Note_on_c, 11, 64, 0
12, 93840, Note_on_c, 11, 64, 76
12, 94200, Note_on_c, 11, 64, 0
12, 94320, Note_on_c, 11, 64, 77
12, 94800, Note_on_c, 11, 64, 0
12, 94800, Note_on_c, 11, 64, 64
12, 95160, Note_on_c, 11, 64, 0
12, 95280, Note_on_c, 11, 59, 69
12, 95400, Note_on_c, 11, 59, 0
12, 95520, Note_on_c, 11, 52, 72
12, 95760, Note_on_c, 11, 52, 0
12, 96000, Note_on_c, 11, 57, 53
12, 96120, Note_on_c, 11, 57, 0
12, 96240, Note_on_c, 11, 57, 57
12, 96360, Note_on_c, 11, 57, 0
12, 96480, Note_on_c, 11, 62, 43
12, 96600, Note_on_c, 11, 62, 0
12, 96720, Note_on_c, 11, 59, 47
12, 96840, Note_on_c, 11, 59, 0
12, 96960, Note_on_c, 11, 60, 46
12, 97080, Note_on_c, 11, 60, 0
12, 97200, Note_on_c, 11, 57, 50
12, 97320, Note_on_c, 11, 57, 0
12, 97440, Note_on_c, 11, 62, 53
12, 97560, Note_on_c, 11, 62, 0
12, 97680, Note_on_c, 11, 59, 65
12, 97800, Note_on_c, 11, 59, 0
12, 97920, Note_on_c, 11, 60, 62
12, 98040, Note_on_c, 11, 60, 0
12, 98160, Note_on_c, 11, 57, 52
12, 98280, Note_on_c, 11, 57, 0
12, 98400, Note_on_c, 11, 59, 70
12, 98520, Note_on_c, 11, 59, 0
12, 98640, Note_on_c, 11, 61, 55
12, 98760, Note_on_c, 11, 61, 0
12, 98880, Note_on_c, 11, 59, 59
12, 99000, Note_on_c, 11, 59, 0
12, 99120, Note_on_c, 11, 59, 57
12, 99240, Note_on_c, 11, 59, 0
12, 99360, Note_on_c, 11, 59, 54
12, 99600, Note_on_c, 11, 59, 0
12, 104160, Note_on_c, 11, 55, 74
12, 104280, Note_on_c, 11, 55, 0
12, 105000, Note_on_c, 11, 57, 65
12, 105240, Note_on_c, 11, 57, 0
12, 105960, Note_on_c, 11, 55, 53
12, 106200, Note_on_c, 11, 55, 0
12, 108960, Note_on_c, 11, 57, 51
12, 109200, Note_on_c, 11, 57, 0
12, 109680, Note_on_c, 11, 64, 65
12, 110040, Note_on_c, 11, 64, 0
12, 110640, Note_on_c, 11, 64, 59
12, 111000, Note_on_c, 11, 64, 0
12, 112800, Note_on_c, 11, 60, 54
12, 113040, Note_on_c, 11, 60, 0
12, 113040, Note_on_c, 11, 57, 62
12, 113520, Note_on_c, 11, 57, 0
12, 113520, Note_on_c, 11, 59, 59
12, 114000, Note_on_c, 11, 59, 0
12, 114000, Note_on_c, 11, 59, 43
12, 114240, Note_on_c, 11, 59, 0
12, 114240, Note_on_c, 11, 57, 64
12, 114360, Note_on_c, 11, 57, 0
12, 119040, Note_on_c, 11, 65, 74
12, 119160, Note_on_c, 11, 65, 0
12, 119880, Note_on_c, 11, 62, 65
12, 120120, Note_on_c, 11, 62, 0
12, 120840, Note_on_c, 11, 60, 65
12, 121080, Note_on_c, 11, 60, 0
12, 123960, Note_on_c, 11, 64, 49
12, 124080, Note_on_c, 11, 64, 0
12, 124080, Note_on_c, 11, 65, 44
12, 124200, Note_on_c, 11, 65, 0
12, 124200, Note_on_c, 11, 60, 61
12, 124320, Note_on_c, 11, 60, 0
12, 124320, Note_on_c, 11, 62, 76
12, 124440, Note_on_c, 11, 62, 0
12, 124440, Note_on_c, 11, 57, 90
12, 124560, Note_on_c, 11, 57, 0
12, 124560, Note_on_c, 11, 59, 93
12, 124680, Note_on_c, 11, 59, 0
12, 124680, Note_on_c, 11, 60, 94
12, 124800, Note_on_c, 11, 60, 0
12, 124800, Note_on_c, 11, 62, 35
12, 124920, Note_on_c, 11, 62, 0
12, 124920, Note_on_c, 11, 62, 45
12, 125040, Note_on_c, 11, 62, 0
12, 125040, Note_on_c, 11, 59, 40
12, 125160, Note_on_c, 11, 59, 0
12, 125160, Note_on_c, 11, 59, 45
12, 125280, Note_on_c, 11, 59, 0
12, 125280, Note_on_c, 11, 57, 53
12, 125520, Note_on_c, 11, 57, 0
12, 126000, Note_on_c, 11, 59, 71
12, 126240, Note_on_c, 11, 59, 0
12, 126240, Note_on_c, 11, 60, 62
12, 126360, Note_on_c, 11, 60, 0
12, 127080, Note_on_c, 11, 59, 72
12, 127200, Note_on_c, 11, 59, 0
12, 127200, Note_on_c, 11, 60, 69
12, 127440, Note_on_c, 11, 60, 0
12, 127440, Note_on_c, 11, 58, 62
12, 127680, Note_on_c, 11, 58, 0
12, 127680, Note_on_c, 11, 57, 64
12, 127920, Note_on_c, 11, 57, 0
12, 127920, Note_on_c, 11, 55, 42
12, 128160, Note_on_c, 11, 55, 0
12, 128160, Note_on_c, 11, 53, 72
12, 128400, Note_on_c, 11, 53, 0
12, 128400, Note_on_c, 11, 57, 80
12, 128640, Note_on_c, 11, 57, 0
12, 128640, Note_on_c, 11, 57, 80
12, 128760, Note_on_c, 11, 57, 0
12, 128880, Note_on_c, 11, 56, 60
12, 129000, Note_on_c, 11, 56, 0
12, 129120, Note_on_c, 11, 57, 71
12, 129360, Note_on_c, 11, 57, 0
12, 129360, Note_on_c, 11, 58, 68
12, 129600, Note_on_c, 11, 58, 0
12, 129600, Note_on_c, 11, 57, 77
12, 129840, Note_on_c, 11, 57, 0
12, 129840, Note_on_c, 11, 55, 67
12, 130080, Note_on_c, 11, 55, 0
12, 130080, Note_on_c, 11, 53, 71
12, 130320, Note_on_c, 11, 53, 0
12, 130320, Note_on_c, 11, 57, 81
12, 130680, Note_on_c, 11, 57, 0
12, 130800, Note_on_c, 11, 56, 73
12, 130920, Note_on_c, 11, 56, 0
12, 131040, Note_on_c, 11, 57, 110
12, 131400, Note_on_c, 11, 57, 0
12, 131400, Note_on_c, 11, 57, 105
12, 131520, Note_on_c, 11, 57, 0
12, 131520, Note_on_c, 11, 57, 110
12, 131640, Note_on_c, 11, 57, 0
12, 131640, Note_on_c, 11, 57, 112
12, 131760, Note_on_c, 11, 57, 0
12, 131760, Note_on_c, 11, 57, 104
12, 131880, Note_on_c, 11, 57, 0
12, 131880, Note_on_c, 11, 57, 107
12, 132000, Note_on_c, 11, 57, 0
12, 132000, Note_on_c, 11, 58, 99
12, 132360, Note_on_c, 11, 58, 0
12, 133320, Note_on_c, 11, 57, 112
12, 133440, Note_on_c, 11, 57, 0
12, 133440, Note_on_c, 11, 58, 84
12, 133560, Note_on_c, 11, 58, 0
12, 133560, Note_on_c, 11, 58, 80
12, 133680, Note_on_c, 11, 58, 0
12, 133680, Note_on_c, 11, 59, 94
12, 133800, Note_on_c, 11, 59, 0
12, 133800, Note_on_c, 11, 59, 86
12, 133920, Note_on_c, 11, 59, 0
12, 133920, Note_on_c, 11, 60, 89
12, 134280, Note_on_c, 11, 60, 0
12, 135240, Note_on_c, 11, 59, 99
12, 135360, Note_on_c, 11, 59, 0
12, 135360, Note_on_c, 11, 60, 89
12, 135480, Note_on_c, 11, 60, 0
12, 135480, Note_on_c, 11, 60, 86
12, 135600, Note_on_c, 11, 60, 0
12, 135600, Note_on_c, 11, 61, 86
12, 135720, Note_on_c, 11, 61, 0
12, 135720, Note_on_c, 11, 61, 90
12, 135840, Note_on_c, 11, 61, 0
12, 135840, Note_on_c, 11, 62, 101
12, 136200, Note_on_c, 11, 62, 0
12, 138000, Note_on_c, 11, 57, 72
12, 138240, Note_on_c, 11, 57, 0
12, 138480, Note_on_c, 11, 57, 71
12, 138720, Note_on_c, 11, 57, 0
12, 138960, Note_on_c, 11, 57, 73
12, 139200, Note_on_c, 11, 57, 0
12, 139920, Note_on_c, 11, 57, 46
12, 140160, Note_on_c, 11, 57, 0
12, 140880, Note_on_c, 11, 55, 49
12, 141120, Note_on_c, 11, 55, 0
12, 141840, Note_on_c, 11, 55, 48
12, 142080, Note_on_c, 11, 55, 0
12, 142560, Note_on_c, 11, 53, 44
12, 143280, Note_on_c, 11, 53, 0
12, 143280, Note_on_c, 11, 54, 43
12, 143520, Note_on_c, 11, 54, 0
12, 143520, Note_on_c, 11, 55, 69
12, 143640, Note_on_c, 11, 55, 0
12, 144480, Note_on_c, 11, 55, 65
12, 144720, Note_on_c, 11, 55, 0
12, 145440, Note_on_c, 11, 55, 73
12, 145680, Note_on_c, 11, 55, 0
12, 146400, Note_on_c, 11, 55, 58
12, 146640, Note_on_c, 11, 55, 0
12, 146880, Note_on_c, 11, 55, 60
12, 147120, Note_on_c, 11, 55, 0
12, 147360, Note_on_c, 11, 55, 55
12, 147600, Note_on_c, 11, 55, 0
12, 158880, Note_on_c, 11, 48, 95
12, 159000, Note_on_c, 11, 48, 0
12, 159000, Note_on_c, 11, 60, 93
12, 159120, Note_on_c, 11, 60, 0
12, 159120, Note_on_c, 11, 60, 89
12, 159240, Note_on_c, 11, 60, 0
12, 159240, Note_on_c, 11, 60, 86
12, 159360, Note_on_c, 11, 60, 0
12, 159360, Note_on_c, 11, 48, 99
12, 159480, Note_on_c, 11, 48, 0
12, 159480, Note_on_c, 11, 60, 89
12, 159600, Note_on_c, 11, 60, 0
12, 159600, Note_on_c, 11, 60, 89
12, 159720, Note_on_c, 11, 60, 0
12, 159720, Note_on_c, 11, 60, 84
12, 159840, Note_on_c, 11, 60, 0
12, 159840, Note_on_c, 11, 48, 101
12, 159960, Note_on_c, 11, 48, 0
12, 159960, Note_on_c, 11, 60, 84
12, 160080, Note_on_c, 11, 60, 0
12, 160080, Note_on_c, 11, 60, 86
12, 160200, Note_on_c, 11, 60, 0
12, 160200, Note_on_c, 11, 60, 86
12, 160320, Note_on_c, 11, 60, 0
12, 160320, Note_on_c, 11, 59, 99
12, 160380, Note_on_c, 11, 59, 0
12, 160440, Note_on_c, 11, 64, 89
12, 160500, Note_on_c, 11, 64, 0
12, 160560, Note_on_c, 11, 60, 94
12, 160620, Note_on_c, 11, 60, 0
12, 160680, Note_on_c, 11, 64, 93
12, 160740, Note_on_c, 11, 64, 0
12, 160800, Note_on_c, 11, 55, 101
12, 160860, Note_on_c, 11, 55, 0
12, 160920, Note_on_c, 11, 64, 86
12, 160980, Note_on_c, 11, 64, 0
12, 161040, Note_on_c, 11, 60, 89
12, 161100, Note_on_c, 11, 60, 0
12, 161160, Note_on_c, 11, 62, 94
12, 161220, Note_on_c, 11, 62, 0
12, 161280, Note_on_c, 11, 55, 95
12, 161340, Note_on_c, 11, 55, 0
12, 161400, Note_on_c, 11, 67, 81
12, 161460, Note_on_c, 11, 67, 0
12, 161520, Note_on_c, 11, 55, 99
12, 161580, Note_on_c, 11, 55, 0
12, 161760, Note_on_c, 11, 55, 94
12, 162000, Note_on_c, 11, 55, 0
12, 162000, Note_on_c, 11, 55, 94
12, 162240, Note_on_c, 11, 55, 0
12, 162240, Note_on_c, 11, 55, 119
12, 162300, Note_on_c, 11, 55, 0
12, 162300, Note_on_c, 11, 54, 95
12, 162360, Note_on_c, 11, 54, 0
12, 162360, Note_on_c, 11, 55, 98
12, 162420, Note_on_c, 11, 55, 0
12, 162420, Note_on_c, 11, 54, 86
12, 162480, Note_on_c, 11, 54, 0
12, 162480, Note_on_c, 11, 55, 99
12, 162600, Note_on_c, 11, 55, 0
12, 162720, Note_on_c, 11, 55, 94
12, 162960, Note_on_c, 11, 55, 0
12, 162960, Note_on_c, 11, 55, 99
12, 163200, Note_on_c, 11, 55, 0
12, 163200, Note_on_c, 11, 55, 119
12, 163260, Note_on_c, 11, 55, 0
12, 163260, Note_on_c, 11, 54, 95
12, 163320, Note_on_c, 11, 54, 0
12, 163320, Note_on_c, 11, 55, 95
12, 163380, Note_on_c, 11, 55, 0
12, 163380, Note_on_c, 11, 54, 94
12, 163440, Note_on_c, 11, 54, 0
12, 163440, Note_on_c, 11, 55, 98
12, 163800, Note_on_c, 11, 55, 0
12, 163800, Note_on_c, 11, 56, 119
12, 163920, Note_on_c, 11, 56, 0
12, 163920, Note_on_c, 11, 55, 94
12, 164280, Note_on_c, 11, 55, 0
12, 164280, Note_on_c, 11, 56, 117
12, 164400, Note_on_c, 11, 56, 0
12, 164400, Note_on_c, 11, 55, 95
12, 164760, Note_on_c, 11, 55, 0
12, 164760, Note_on_c, 11, 56, 98
12, 164880, Note_on_c, 11, 56, 0
12, 164880, Note_on_c, 11, 59, 93
12, 164940, Note_on_c, 11, 59, 0
12, 165000, Note_on_c, 11, 53, 93
12, 165060, Note_on_c, 11, 53, 0
12, 165120, Note_on_c, 11, 55, 94
12, 165180, Note_on_c, 11, 55, 0
12, 165240, Note_on_c, 11, 55, 90
12, 165300, Note_on_c, 11, 55, 0
12, 165360, Note_on_c, 11, 67, 90
12, 165420, Note_on_c, 11, 67, 0
12, 165480, Note_on_c, 11, 67, 95
12, 165540, Note_on_c, 11, 67, 0
12, 165600, Note_on_c, 11, 60, 95
12, 165660, Note_on_c, 11, 60, 0
12, 165660, Note_on_c, 11, 60, 95
12, 165720, Note_on_c, 11, 60, 0
12, 165720, Note_on_c, 11, 55, 98
12, 165780, Note_on_c, 11, 55, 0
12, 165780, Note_on_c, 11, 55, 95
12, 165840, Note_on_c, 11, 55, 0
12, 165840, Note_on_c, 11, 60, 95
12, 165900, Note_on_c, 11, 60, 0
12, 165900, Note_on_c, 11, 60, 99
12, 165960, Note_on_c, 11, 60, 0
12, 165960, Note_on_c, 11, 55, 95
12, 166020, Note_on_c, 11, 55, 0
12, 166020, Note_on_c, 11, 55, 81
12, 166080, Note_on_c, 11, 55, 0
12, 166080, Note_on_c, 11, 59, 104
12, 166140, Note_on_c, 11, 59, 0
12, 166140, Note_on_c, 11, 59, 104
12, 166200, Note_on_c, 11, 59, 0
12, 166200, Note_on_c, 11, 55, 99
12, 166260, Note_on_c, 11, 55, 0
12, 166260, Note_on_c, 11, 55, 99
12, 166320, Note_on_c, 11, 55, 0
12, 166320, Note_on_c, 11, 62, 95
12, 166380, Note_on_c, 11, 62, 0
12, 166380, Note_on_c, 11, 62, 99
12, 166440, Note_on_c, 11, 62, 0
12, 166440, Note_on_c, 11, 55, 99
12, 166500, Note_on_c, 11, 55, 0
12, 166500, Note_on_c, 11, 55, 95
12, 166560, Note_on_c, 11, 55, 0
12, 166560, Note_on_c, 11, 72, 125
12, 166620, Note_on_c, 11, 72, 0
12, 166620, Note_on_c, 11, 71, 117
12, 166680, Note_on_c, 11, 71, 0
12, 166680, Note_on_c, 11, 69, 119
12, 166740, Note_on_c, 11, 69, 0
12, 166740, Note_on_c, 11, 67, 123
12, 166800, Note_on_c, 11, 67, 0
12, 166800, Note_on_c, 11, 65, 119
12, 166860, Note_on_c, 11, 65, 0
12, 166860, Note_on_c, 11, 64, 119
12, 166920, Note_on_c, 11, 64, 0
12, 166920, Note_on_c, 11, 62, 119
12, 166980, Note_on_c, 11, 62, 0
12, 166980, Note_on_c, 11, 60, 110
12, 167040, Note_on_c, 11, 60, 0
12, 167040, Note_on_c, 11, 59, 123
12, 167100, Note_on_c, 11, 59, 0
12, 167100, Note_on_c, 11, 59, 115
12, 167160, Note_on_c, 11, 59, 0
12, 167160, Note_on_c, 11, 60, 123
12, 167220, Note_on_c, 11, 60, 0
12, 167220, Note_on_c, 11, 60, 123
12, 167280, Note_on_c, 11, 60, 0
12, 167280, Note_on_c, 11, 62, 119
12, 167340, Note_on_c, 11, 62, 0
12, 167340, Note_on_c, 11, 62, 119
12, 167400, Note_on_c, 11, 62, 0
12, 167400, Note_on_c, 11, 62, 125
12, 167460, Note_on_c, 11, 62, 0
12, 167460, Note_on_c, 11, 62, 119
12, 167520, Note_on_c, 11, 62, 0
12, 167520, Note_on_c, 11, 60, 123
12, 167580, Note_on_c, 11, 60, 0
12, 167580, Note_on_c, 11, 60, 123
12, 167640, Note_on_c, 11, 60, 0
12, 167640, Note_on_c, 11, 55, 125
12, 167700, Note_on_c, 11, 55, 0
12, 167700, Note_on_c, 11, 55, 117
12, 167760, Note_on_c, 11, 55, 0
12, 167760, Note_on_c, 11, 60, 125
12, 167820, Note_on_c, 11, 60, 0
12, 167820, Note_on_c, 11, 60, 125
12, 167880, Note_on_c, 11, 60, 0
12, 167880, Note_on_c, 11, 55, 119
12, 167940, Note_on_c, 11, 55, 0
12, 167940, Note_on_c, 11, 55, 125
12, 168000, Note_on_c, 11, 55, 0
12, 168000, Note_on_c, 11, 60, 127
12, 168240, Note_on_c, 11, 60, 0
12, 170400, Note_on_c, 11, 55, 64
12, 170760, Note_on_c, 11, 55, 0
12, 170760, Note_on_c, 11, 57, 76
12, 170820, Note_on_c, 11, 57, 0
12, 170820, Note_on_c, 11, 59, 84
12, 170880, Note_on_c, 11, 59, 0
12, 170880, Note_on_c, 11, 60, 73
12, 170940, Note_on_c, 11, 60, 0
12, 172320, Note_on_c, 11, 55, 76
12, 172680, Note_on_c, 11, 55, 0
12, 172680, Note_on_c, 11, 57, 76
12, 172740, Note_on_c, 11, 57, 0
12, 172740, Note_on_c, 11, 59, 74
12, 172800, Note_on_c, 11, 59, 0
12, 172800, Note_on_c, 11, 60, 76
12, 172860, Note_on_c, 11, 60, 0
12, 174240, Note_on_c, 11, 51, 65
12, 174600, Note_on_c, 11, 51, 0
12, 174600, Note_on_c, 11, 53, 50
12, 174660, Note_on_c, 11, 53, 0
12, 174660, Note_on_c, 11, 55, 55
12, 174720, Note_on_c, 11, 55, 0
12, 174720, Note_on_c, 11, 56, 61
12, 174780, Note_on_c, 11, 56, 0
12, 179760, Note_on_c, 11, 67, 68
12, 180120, Note_on_c, 11, 67, 0
12, 180240, Note_on_c, 11, 55, 71
12, 180360, Note_on_c, 11, 55, 0
12, 180480, Note_on_c, 11, 55, 61
12, 180720, Note_on_c, 11, 55, 0
12, 181440, Note_on_c, 11, 55, 59
12, 181680, Note_on_c, 11, 55, 0
12, 182280, Note_on_c, 11, 59, 64
12, 182400, Note_on_c, 11, 59, 0
12, 182400, Note_on_c, 11, 62, 69
12, 182460, Note_on_c, 11, 62, 0
12, 182520, Note_on_c, 11, 62, 65
12, 182580, Note_on_c, 11, 62, 0
12, 182640, Note_on_c, 11, 62, 65
12, 182700, Note_on_c, 11, 62, 0
12, 182760, Note_on_c, 11, 62, 72
12, 182820, Note_on_c, 11, 62, 0
12, 182880, Note_on_c, 11, 62, 62
12, 183120, Note_on_c, 11, 62, 0
12, 183360, Note_on_c, 11, 60, 66
12, 183720, Note_on_c, 11, 60, 0
12, 183720, Note_on_c, 11, 55, 78
12, 183840, Note_on_c, 11, 55, 0
12, 183840, Note_on_c, 11, 62, 67
12, 184200, Note_on_c, 11, 62, 0
12, 184200, Note_on_c, 11, 62, 89
12, 184320, Note_on_c, 11, 62, 0
12, 184320, Note_on_c, 11, 60, 65
12, 184680, Note_on_c, 11, 60, 0
12, 184680, Note_on_c, 11, 55, 73
12, 184800, Note_on_c, 11, 55, 0
12, 184800, Note_on_c, 11, 62, 68
12, 185040, Note_on_c, 11, 62, 0
12, 185280, Note_on_c, 11, 59, 76
12, 185400, Note_on_c, 11, 59, 0
12, 185400, Note_on_c, 11, 57, 81
12, 185520, Note_on_c, 11, 57, 0
12, 185520, Note_on_c, 11, 59, 65
12, 185640, Note_on_c, 11, 59, 0
12, 185640, Note_on_c, 11, 55, 69
12, 185760, Note_on_c, 11, 55, 0
12, 185760, Note_on_c, 11, 60, 65
12, 185880, Note_on_c, 11, 60, 0
12, 185880, Note_on_c, 11, 59, 51
12, 186000, Note_on_c, 11, 59, 0
12, 186000, Note_on_c, 11, 60, 65
12, 186120, Note_on_c, 11, 60, 0
12, 186120, Note_on_c, 11, 52, 67
12, 186240, Note_on_c, 11, 52, 0
12, 186240, Note_on_c, 11, 53, 65
12, 186360, Note_on_c, 11, 53, 0
12, 186360, Note_on_c, 11, 52, 61
12, 186480, Note_on_c, 11, 52, 0
12, 186480, Note_on_c, 11, 53, 60
12, 186600, Note_on_c, 11, 53, 0
12, 186600, Note_on_c, 11, 54, 72
12, 186720, Note_on_c, 11, 54, 0
12, 186720, Note_on_c, 11, 55, 60
12, 186960, Note_on_c, 11, 55, 0
12, 187200, Note_on_c, 11, 60, 43
12, 187440, Note_on_c, 11, 60, 0
12, 187560, Note_on_c, 11, 55, 42
12, 187620, Note_on_c, 11, 55, 0
12, 187680, Note_on_c, 11, 62, 50
12, 187920, Note_on_c, 11, 62, 0
12, 188040, Note_on_c, 11, 62, 64
12, 188100, Note_on_c, 11, 62, 0
12, 188160, Note_on_c, 11, 60, 53
12, 188400, Note_on_c, 11, 60, 0
12, 188520, Note_on_c, 11, 55, 40
12, 188580, Note_on_c, 11, 55, 0
12, 188640, Note_on_c, 11, 62, 49
12, 188880, Note_on_c, 11, 62, 0
12, 192480, Note_on_c, 11, 48, 64
12, 192600, Note_on_c, 11, 48, 0
12, 192600, Note_on_c, 11, 60, 65
12, 192720, Note_on_c, 11, 60, 0
12, 192720, Note_on_c, 11, 60, 69
12, 192840, Note_on_c, 11, 60, 0
12, 192840, Note_on_c, 11, 60, 63
12, 192960, Note_on_c, 11, 60, 0
12, 192960, Note_on_c, 11, 60, 64
12, 193080, Note_on_c, 11, 60, 0
12, 193080, Note_on_c, 11, 60, 65
12, 193200, Note_on_c, 11, 60, 0
12, 193200, Note_on_c, 11, 61, 46
12, 193260, Note_on_c, 11, 61, 0
12, 193260, Note_on_c, 11, 60, 61
12, 193320, Note_on_c, 11, 60, 0
12, 193320, Note_on_c, 11, 58, 59
12, 193380, Note_on_c, 11, 58, 0
12, 193380, Note_on_c, 11, 60, 64
12, 193440, Note_on_c, 11, 60, 0
12, 193440, Note_on_c, 11, 61, 62
12, 193560, Note_on_c, 11, 61, 0
12, 193560, Note_on_c, 11, 60, 66
12, 193680, Note_on_c, 11, 60, 0
12, 193680, Note_on_c, 11, 58, 69
12, 193800, Note_on_c, 11, 58, 0
12, 193800, Note_on_c, 11, 56, 81
12, 193920, Note_on_c, 11, 56, 0
12, 193920, Note_on_c, 11, 55, 81
12, 194040, Note_on_c, 11, 55, 0
12, 194040, Note_on_c, 11, 53, 84
12, 194160, Note_on_c, 11, 53, 0
12, 194160, Note_on_c, 11, 55, 80
12, 194280, Note_on_c, 11, 55, 0
12, 194280, Note_on_c, 11, 51, 76
12, 194400, Note_on_c, 11, 51, 0
12, 194400, Note_on_c, 11, 51, 49
12, 195360, Note_on_c, 11, 51, 0
12, 195360, Note_on_c, 11, 51, 51
12, 196080, Note_on_c, 11, 51, 0
12, 203520, Note_on_c, 11, 60, 72
12, 204000, Note_on_c, 11, 60, 0
12, 204000, Note_on_c, 11, 64, 76
12, 204480, Note_on_c, 11, 64, 0
12, 204480, Note_on_c, 11, 65, 61
12, 205200, Note_on_c, 11, 65, 0
12, 205200, Note_on_c, 11, 69, 67
12, 205440, Note_on_c, 11, 69, 0
12, 205440, Note_on_c, 11, 64, 73
12, 205920, Note_on_c, 11, 64, 0
12, 205920, Note_on_c, 11, 62, 69
12, 206400, Note_on_c, 11, 62, 0
12, 206640, Note_on_c, 11, 60, 65
12, 206760, Note_on_c, 11, 60, 0
12, 207120, Note_on_c, 11, 64, 59
12, 207240, Note_on_c, 11, 64, 0
12, 207600, Note_on_c, 11, 65, 61
12, 207720, Note_on_c, 11, 65, 0
12, 208080, Note_on_c, 11, 65, 62
12, 208200, Note_on_c, 11, 65, 0
12, 208560, Note_on_c, 11, 67, 76
12, 208680, Note_on_c, 11, 67, 0
12, 209040, Note_on_c, 11, 67, 73
12, 209160, Note_on_c, 11, 67, 0
12, 209280, Note_on_c, 11, 48, 54
12, 209520, Note_on_c, 11, 48, 0
12, 209760, Note_on_c, 11, 55, 57
12, 210000, Note_on_c, 11, 55, 0
12, 210240, Note_on_c, 11, 60, 70
12, 210480, Note_on_c, 11, 60, 0
12, 210720, Note_on_c, 11, 55, 68
12, 210960, Note_on_c, 11, 55, 0
12, 211080, Note_on_c, 11, 67, 56
12, 211200, Note_on_c, 11, 67, 0
12, 211200, Note_on_c, 11, 72, 48
12, 211320, Note_on_c, 11, 72, 0
12, 211320, Note_on_c, 11, 71, 61
12, 211440, Note_on_c, 11, 71, 0
12, 211440, Note_on_c, 11, 72, 57
12, 211560, Note_on_c, 11, 72, 0
12, 211560, Note_on_c, 11, 74, 78
12, 211680, Note_on_c, 11, 74, 0
12, 211680, Note_on_c, 11, 60, 73
12, 211800, Note_on_c, 11, 60, 0
12, 211800, Note_on_c, 11, 59, 78
12, 211920, Note_on_c, 11, 59, 0
12, 211920, Note_on_c, 11, 57, 76
12, 212040, Note_on_c, 11, 57, 0
12, 212040, Note_on_c, 11, 55, 73
12, 212160, Note_on_c, 11, 55, 0
12, 212160, Note_on_c, 11, 58, 67
12, 212280, Note_on_c, 11, 58, 0
12, 212280, Note_on_c, 11, 57, 84
12, 212400, Note_on_c, 11, 57, 0
12, 212400, Note_on_c, 11, 58, 65
12, 212520, Note_on_c, 11, 58, 0
12, 212520, Note_on_c, 11, 60, 65
12, 212640, Note_on_c, 11, 60, 0
12, 212640, Note_on_c, 11, 58, 70
12, 212760, Note_on_c, 11, 58, 0
12, 212760, Note_on_c, 11, 57, 84
12, 212880, Note_on_c, 11, 57, 0
12, 212880, Note_on_c, 11, 55, 72
12, 213000, Note_on_c, 11, 55, 0
12, 213000, Note_on_c, 11, 53, 76
12, 213120, Note_on_c, 11, 53, 0
12, 213120, Note_on_c, 11, 52, 82
12, 213240, Note_on_c, 11, 52, 0
12, 213240, Note_on_c, 11, 50, 84
12, 213360, Note_on_c, 11, 50, 0
12, 213360, Note_on_c, 11, 48, 71
12, 213480, Note_on_c, 11, 48, 0
12, 213480, Note_on_c, 11, 46, 78
12, 213600, Note_on_c, 11, 46, 0
12, 213600, Note_on_c, 11, 45, 84
12, 213660, Note_on_c, 11, 45, 0
12, 213720, Note_on_c, 11, 41, 81
12, 213780, Note_on_c, 11, 41, 0
12, 213840, Note_on_c, 11, 53, 66
12, 213900, Note_on_c, 11, 53, 0
12, 213960, Note_on_c, 11, 52, 84
12, 214020, Note_on_c, 11, 52, 0
12, 214080, Note_on_c, 11, 50, 77
12, 214200, Note_on_c, 11, 50, 0
12, 214200, Note_on_c, 11, 53, 73
12, 214320, Note_on_c, 11, 53, 0
12, 214320, Note_on_c, 11, 55, 60
12, 214440, Note_on_c, 11, 55, 0
12, 214440, Note_on_c, 11, 53, 73
12, 214560, Note_on_c, 11, 53, 0
12, 214560, Note_on_c, 11, 52, 77
12, 214680, Note_on_c, 11, 52, 0
12, 214680, Note_on_c, 11, 55, 72
12, 214800, Note_on_c, 11, 55, 0
12, 214800, Note_on_c, 11, 57, 89
12, 214920, Note_on_c, 11, 57, 0
12, 214920, Note_on_c, 11, 55, 74
12, 215040, Note_on_c, 11, 55, 0
12, 215040, Note_on_c, 11, 65, 82
12, 215160, Note_on_c, 11, 65, 0
12, 215160, Note_on_c, 11, 65, 85
12, 215280, Note_on_c, 11, 65, 0
12, 215280, Note_on_c, 11, 65, 74
12, 215400, Note_on_c, 11, 65, 0
12, 215400, Note_on_c, 11, 65, 84
12, 215520, Note_on_c, 11, 65, 0
12, 215520, Note_on_c, 11, 66, 81
12, 215640, Note_on_c, 11, 66, 0
12, 215640, Note_on_c, 11, 66, 78
12, 215760, Note_on_c, 11, 66, 0
12, 215760, Note_on_c, 11, 66, 84
12, 215880, Note_on_c, 11, 66, 0
12, 215880, Note_on_c, 11, 66, 84
12, 216000, Note_on_c, 11, 66, 0
12, 216000, Note_on_c, 11, 67, 95
12, 216120, Note_on_c, 11, 67, 0
12, 216120, Note_on_c, 11, 67, 77
12, 216240, Note_on_c, 11, 67, 0
12, 216240, Note_on_c, 11, 68, 80
12, 216360, Note_on_c, 11, 68, 0
12, 216360, Note_on_c, 11, 68, 84
12, 216480, Note_on_c, 11, 68, 0
12, 216480, Note_on_c, 11, 67, 77
12, 216600, Note_on_c, 11, 67, 0
12, 216600, Note_on_c, 11, 67, 73
12, 216720, Note_on_c, 11, 67, 0
12, 216720, Note_on_c, 11, 66, 89
12, 216840, Note_on_c, 11, 66, 0
12, 216840, Note_on_c, 11, 66, 72
12, 216960, Note_on_c, 11, 66, 0
12, 216960, Note_on_c, 11, 67, 69
12, 217080, Note_on_c, 11, 67, 0
12, 217080, Note_on_c, 11, 67, 74
12, 217200, Note_on_c, 11, 67, 0
12, 217200, Note_on_c, 11, 69, 80
12, 217320, Note_on_c, 11, 69, 0
12, 217320, Note_on_c, 11, 69, 82
12, 217440, Note_on_c, 11, 69, 0
12, 217440, Note_on_c, 11, 67, 76
12, 217560, Note_on_c, 11, 67, 0
12, 217560, Note_on_c, 11, 67, 77
12, 217680, Note_on_c, 11, 67, 0
12, 217680, Note_on_c, 11, 66, 93
12, 217800, Note_on_c, 11, 66, 0
12, 217800, Note_on_c, 11, 66, 69
12, 217920, Note_on_c, 11, 66, 0
12, 217920, Note_on_c, 11, 67, 71
12, 218040, Note_on_c, 11, 67, 0
12, 218040, Note_on_c, 11, 67, 81
12, 218160, Note_on_c, 11, 67, 0
12, 218160, Note_on_c, 11, 66, 94
12, 218280, Note_on_c, 11, 66, 0
12, 218280, Note_on_c, 11, 66, 72
12, 218400, Note_on_c, 11, 66, 0
12, 218400, Note_on_c, 11, 67, 90
12, 218520, Note_on_c, 11, 67, 0
12, 218520, Note_on_c, 11, 67, 81
12, 218640, Note_on_c, 11, 67, 0
12, 218640, Note_on_c, 11, 66, 95
12, 218760, Note_on_c, 11, 66, 0
12, 218760, Note_on_c, 11, 66, 94
12, 218880, Note_on_c, 11, 66, 0
12, 218880, Note_on_c, 11, 67, 101
12, 218880, Note_on_c, 11, 55, 93
12, 220320, Note_on_c, 11, 55, 0
12, 220320, Note_on_c, 11, 67, 0
12, 227520, Note_on_c, 11, 59, 43
12, 228960, Note_on_c, 11, 59, 0
12, 228960, Note_on_c, 11, 59, 42
12, 230400, Note_on_c, 11, 59, 0
12, 230400, Note_on_c, 11, 59, 45
12, 230640, Note_on_c, 11, 59, 0
12, 230880, Note_on_c, 11, 59, 58
12, 231120, Note_on_c, 11, 59, 0
12, 231360, Note_on_c, 11, 59, 69
12, 231480, Note_on_c, 11, 59, 0
12, 231600, Note_on_c, 11, 59, 65
12, 231720, Note_on_c, 11, 59, 0
12, 231840, Note_on_c, 11, 61, 39
12, 231960, Note_on_c, 11, 61, 0
12, 232080, Note_on_c, 11, 61, 45
12, 232200, Note_on_c, 11, 61, 0
12, 232320, Note_on_c, 11, 61, 57
12, 232440, Note_on_c, 11, 61, 0
12, 232560, Note_on_c, 11, 61, 50
12, 232680, Note_on_c, 11, 61, 0
12, 232800, Note_on_c, 11, 61, 57
12, 232920, Note_on_c, 11, 61, 0
12, 233760, Note_on_c, 11, 61, 58
12, 233880, Note_on_c, 11, 61, 0
12, 234720, Note_on_c, 11, 61, 44
12, 234960, Note_on_c, 11, 61, 0
12, 235200, Note_on_c, 11, 61, 44
12, 235440, Note_on_c, 11, 61, 0
12, 235680, Note_on_c, 11, 59, 62
12, 235920, Note_on_c, 11, 59, 0
12, 236160, Note_on_c, 11, 59, 59
12, 236400, Note_on_c, 11, 59, 0
12, 236640, Note_on_c, 11, 59, 60
12, 236880, Note_on_c, 11, 59, 0
12, 237120, Note_on_c, 11, 59, 54
12, 237360, Note_on_c, 11, 59, 0
12, 238800, Note_on_c, 11, 65, 57
12, 238920, Note_on_c, 11, 65, 0
12, 239040, Note_on_c, 11, 62, 50
12, 239160, Note_on_c, 11, 62, 0
12, 239280, Note_on_c, 11, 59, 49
12, 239400, Note_on_c, 11, 59, 0
12, 239520, Note_on_c, 11, 55, 51
12, 240960, Note_on_c, 11, 55, 0
12, 241440, Note_on_c, 11, 48, 95
12, 241560, Note_on_c, 11, 48, 0
12, 241560, Note_on_c, 11, 60, 93
12, 241680, Note_on_c, 11, 60, 0
12, 241680, Note_on_c, 11, 60, 89
12, 241800, Note_on_c, 11, 60, 0
12, 241800, Note_on_c, 11, 60, 86
12, 241920, Note_on_c, 11, 60, 0
12, 241920, Note_on_c, 11, 48, 99
12, 242040, Note_on_c, 11, 48, 0
12, 242040, Note_on_c, 11, 60, 89
12, 242160, Note_on_c, 11, 60, 0
12, 242160, Note_on_c, 11, 60, 89
12, 242280, Note_on_c, 11, 60, 0
12, 242280, Note_on_c, 11, 60, 84
12, 242400, Note_on_c, 11, 60, 0
12, 242400, Note_on_c, 11, 48, 101
12, 242520, Note_on_c, 11, 48, 0
12, 242520, Note_on_c, 11, 60, 84
12, 242640, Note_on_c, 11, 60, 0
12, 242640, Note_on_c, 11, 60, 86
12, 242760, Note_on_c, 11, 60, 0
12, 242760, Note_on_c, 11, 60, 86
12, 242880, Note_on_c, 11, 60, 0
12, 242880, Note_on_c, 11, 59, 99
12, 242940, Note_on_c, 11, 59, 0
12, 243000, Note_on_c, 11, 64, 89
12, 243060, Note_on_c, 11, 64, 0
12, 243120, Note_on_c, 11, 60, 94
12, 243180, Note_on_c, 11, 60, 0
12, 243240, Note_on_c, 11, 64, 93
12, 243300, Note_on_c, 11, 64, 0
12, 243360, Note_on_c, 11, 55, 101
12, 243420, Note_on_c, 11, 55, 0
12, 243480, Note_on_c, 11, 64, 86
12, 243540, Note_on_c, 11, 64, 0
12, 243600, Note_on_c, 11, 60, 89
12, 243660, Note_on_c, 11, 60, 0
12, 243720, Note_on_c, 11, 62, 94
12, 243780, Note_on_c, 11, 62, 0
12, 243840, Note_on_c, 11, 55, 95
12, 243900, Note_on_c, 11, 55, 0
12, 243960, Note_on_c, 11, 67, 81
12, 244020, Note_on_c, 11, 67, 0
12, 244080, Note_on_c, 11, 55, 99
12, 244140, Note_on_c, 11, 55, 0
12, 244320, Note_on_c, 11, 55, 94
12, 244560, Note_on_c, 11, 55, 0
12, 244560, Note_on_c, 11, 55, 94
12, 244800, Note_on_c, 11, 55, 0
12, 244800, Note_on_c, 11, 55, 119
12, 244860, Note_on_c, 11, 55, 0
12, 244860, Note_on_c, 11, 54, 95
12, 244920, Note_on_c, 11, 54, 0
12, 244920, Note_on_c, 11, 55, 98
12, 244980, Note_on_c, 11, 55, 0
12, 244980, Note_on_c, 11, 54, 86
12, 245040, Note_on_c, 11, 54, 0
12, 245040, Note_on_c, 11, 55, 99
12, 245160, Note_on_c, 11, 55, 0
12, 245280, Note_on_c, 11, 55, 94
12, 245520, Note_on_c, 11, 55, 0
12, 245520, Note_on_c, 11, 55, 99
12, 245760, Note_on_c, 11, 55, 0
12, 245760, Note_on_c, 11, 55, 119
12, 245820, Note_on_c, 11, 55, 0
12, 245820, Note_on_c, 11, 54, 95
12, 245880, Note_on_c, 11, 54, 0
12, 245880, Note_on_c, 11, 55, 95
12, 245940, Note_on_c, 11, 55, 0
12, 245940, Note_on_c, 11, 54, 94
12, 246000, Note_on_c, 11, 54, 0
12, 246000, Note_on_c, 11, 55, 98
12, 246360, Note_on_c, 11, 55, 0
12, 246360, Note_on_c, 11, 56, 119
12, 246480, Note_on_c, 11, 56, 0
12, 246480, Note_on_c, 11, 55, 94
12, 246840, Note_on_c, 11, 55, 0
12, 246840, Note_on_c, 11, 56, 117
12, 246960, Note_on_c, 11, 56, 0
12, 246960, Note_on_c, 11, 55, 95
12, 247320, Note_on_c, 11, 55, 0
12, 247320, Note_on_c, 11, 56, 98
12, 247440, Note_on_c, 11, 56, 0
12, 247440, Note_on_c, 11, 59, 93
12, 247500, Note_on_c, 11, 59, 0
12, 247560, Note_on_c, 11, 53, 93
12, 247620, Note_on_c, 11, 53, 0
12, 247680, Note_on_c, 11, 55, 94
12, 247740, Note_on_c, 11, 55, 0
12, 247800, Note_on_c, 11, 55, 90
12, 247860, Note_on_c, 11, 55, 0
12, 247920, Note_on_c, 11, 67, 90
12, 247980, Note_on_c, 11, 67, 0
12, 248040, Note_on_c, 11, 67, 95
12, 248100, Note_on_c, 11, 67, 0
12, 248160, Note_on_c, 11, 60, 95
12, 248220, Note_on_c, 11, 60, 0
12, 248220, Note_on_c, 11, 60, 95
12, 248280, Note_on_c, 11, 60, 0
12, 248280, Note_on_c, 11, 55, 98
12, 248340, Note_on_c, 11, 55, 0
12, 248340, Note_on_c, 11, 55, 95
12, 248400, Note_on_c, 11, 55, 0
12, 248400, Note_on_c, 11, 60, 95
12, 248460, Note_on_c, 11, 60, 0
12, 248460, Note_on_c, 11, 60, 99
12, 248520, Note_on_c, 11, 60, 0
12, 248520, Note_on_c, 11, 55, 95
12, 248580, Note_on_c, 11, 55, 0
12, 248580, Note_on_c, 11, 55, 81
12, 248640, Note_on_c, 11, 55, 0
12, 248640, Note_on_c, 11, 59, 104
12, 248700, Note_on_c, 11, 59, 0
12, 248700, Note_on_c, 11, 59, 104
12, 248760, Note_on_c, 11, 59, 0
12, 248760, Note_on_c, 11, 55, 99
12, 248820, Note_on_c, 11, 55, 0
12, 248820, Note_on_c, 11, 55, 99
12, 248880, Note_on_c, 11, 55, 0
12, 248880, Note_on_c, 11, 62, 95
12, 248940, Note_on_c, 11, 62, 0
12, 248940, Note_on_c, 11, 62, 99
12, 249000, Note_on_c, 11, 62, 0
12, 249000, Note_on_c, 11, 55, 99
12, 249060, Note_on_c, 11, 55, 0
12, 249060, Note_on_c, 11, 55, 95
12, 249120, Note_on_c, 11, 55, 0
12, 249120, Note_on_c, 11, 72, 125
12, 249180, Note_on_c, 11, 72, 0
12, 249180, Note_on_c, 11, 71, 117
12, 249240, Note_on_c, 11, 71, 0
12, 249240, Note_on_c, 11, 69, 119
12, 249300, Note_on_c, 11, 69, 0
12, 249300, Note_on_c, 11, 67, 123
12, 249360, Note_on_c, 11, 67, 0
12, 249360, Note_on_c, 11, 65, 119
12, 249420, Note_on_c, 11, 65, 0
12, 249420, Note_on_c, 11, 64, 119
12, 249480, Note_on_c, 11, 64, 0
12, 249480, Note_on_c, 11, 62, 119
12, 249540, Note_on_c, 11, 62, 0
12, 249540, Note_on_c, 11, 60, 110
12, 249600, Note_on_c, 11, 60, 0
12, 249600, Note_on_c, 11, 59, 123
12, 249660, Note_on_c, 11, 59, 0
12, 249660, Note_on_c, 11, 59, 115
12, 249720, Note_on_c, 11, 59, 0
12, 249720, Note_on_c, 11, 60, 123
12, 249780, Note_on_c, 11, 60, 0
12, 249780, Note_on_c, 11, 60, 123
12, 249840, Note_on_c, 11, 60, 0
12, 249840, Note_on_c, 11, 62, 119
12, 249900, Note_on_c, 11, 62, 0
12, 249900, Note_on_c, 11, 62, 119
12, 249960, Note_on_c, 11, 62, 0
12, 249960, Note_on_c, 11, 62, 125
12, 250020, Note_on_c, 11, 62, 0
12, 250020, Note_on_c, 11, 62, 119
12, 250080, Note_on_c, 11, 62, 0
12, 250080, Note_on_c, 11, 60, 123
12, 250140, Note_on_c, 11, 60, 0
12, 250140, Note_on_c, 11, 60, 123
12, 250200, Note_on_c, 11, 60, 0
12, 250200, Note_on_c, 11, 55, 125
12, 250260, Note_on_c, 11, 55, 0
12, 250260, Note_on_c, 11, 55, 117
12, 250320, Note_on_c, 11, 55, 0
12, 250320, Note_on_c, 11, 60, 125
12, 250380, Note_on_c, 11, 60, 0
12, 250380, Note_on_c, 11, 60, 125
12, 250440, Note_on_c, 11, 60, 0
12, 250440, Note_on_c, 11, 55, 119
12, 250500, Note_on_c, 11, 55, 0
12, 250500, Note_on_c, 11, 55, 125
12, 250560, Note_on_c, 11, 55, 0
12, 250560, Note_on_c, 11, 60, 127
12, 250800, Note_on_c, 11, 60, 0
12, 254880, Note_on_c, 11, 55, 57
12, 255120, Note_on_c, 11, 55, 0
12, 255360, Note_on_c, 11, 53, 46
12, 255600, Note_on_c, 11, 53, 0
12, 255840, Note_on_c, 11, 57, 68
12, 256080, Note_on_c, 11, 57, 0
12, 256320, Note_on_c, 11, 55, 49
12, 256560, Note_on_c, 11, 55, 0
12, 258720, Note_on_c, 11, 55, 53
12, 258960, Note_on_c, 11, 55, 0
12, 259200, Note_on_c, 11, 53, 64
12, 259440, Note_on_c, 11, 53, 0
12, 259680, Note_on_c, 11, 57, 67
12, 259920, Note_on_c, 11, 57, 0
12, 260160, Note_on_c, 11, 55, 63
12, 260400, Note_on_c, 11, 55, 0
12, 262080, Note_on_c, 11, 60, 81
12, 262200, Note_on_c, 11, 60, 0
12, 264000, Note_on_c, 11, 64, 74
12, 264060, Note_on_c, 11, 64, 0
12, 264120, Note_on_c, 11, 64, 71
12, 264180, Note_on_c, 11, 64, 0
12, 264240, Note_on_c, 11, 64, 76
12, 264300, Note_on_c, 11, 64, 0
12, 264360, Note_on_c, 11, 64, 77
12, 264420, Note_on_c, 11, 64, 0
12, 264480, Note_on_c, 11, 64, 80
12, 264540, Note_on_c, 11, 64, 0
12, 264600, Note_on_c, 11, 64, 78
12, 264660, Note_on_c, 11, 64, 0
12, 264720, Note_on_c, 11, 64, 84
12, 264780, Note_on_c, 11, 64, 0
12, 264840, Note_on_c, 11, 64, 84
12, 264900, Note_on_c, 11, 64, 0
12, 264960, Note_on_c, 11, 64, 71
12, 265080, Note_on_c, 11, 64, 0
12, 265920, Note_on_c, 11, 60, 81
12, 266040, Note_on_c, 11, 60, 0
12, 267840, Note_on_c, 11, 64, 74
12, 267900, Note_on_c, 11, 64, 0
12, 267960, Note_on_c, 11, 64, 71
12, 268020, Note_on_c, 11, 64, 0
12, 268080, Note_on_c, 11, 64, 76
12, 268140, Note_on_c, 11, 64, 0
12, 268200, Note_on_c, 11, 64, 77
12, 268260, Note_on_c, 11, 64, 0
12, 268320, Note_on_c, 11, 64, 80
12, 268380, Note_on_c, 11, 64, 0
12, 268440, Note_on_c, 11, 64, 78
12, 268500, Note_on_c, 11, 64, 0
12, 268560, Note_on_c, 11, 64, 84
12, 268620, Note_on_c, 11, 64, 0
12, 268680, Note_on_c, 11, 64, 84
12, 268740, Note_on_c, 11, 64, 0
12, 268800, Note_on_c, 11, 64, 81
12, 268860, Note_on_c, 11, 64, 0
12, 269280, Program_c, 11, 45
12, 269760, Note_on_c, 11, 60, 65
12, 270000, Note_on_c, 11, 60, 0
12, 270720, Note_on_c, 11, 55, 53
12, 270960, Note_on_c, 11, 55, 0
12, 271200, Note_on_c, 11, 57, 63
12, 271440, Note_on_c, 11, 57, 0
12, 271440, Note_on_c, 11, 59, 71
12, 271680, Note_on_c, 11, 59, 0
12, 271680, Note_on_c, 11, 60, 46
12, 271920, Note_on_c, 11, 60, 0
12, 272640, Note_on_c, 11, 55, 65
12, 272880, Note_on_c, 11, 55, 0
12, 273120, Note_on_c, 11, 57, 68
12, 273360, Note_on_c, 11, 57, 0
12, 273360, Note_on_c, 11, 59, 63
12, 273600, Note_on_c, 11, 59, 0
12, 273600, Note_on_c, 11, 60, 53
12, 273840, Note_on_c, 11, 60, 0
12, 274080, Note_on_c, 11, 55, 46
12, 274200, Note_on_c, 11, 55, 0
12, 274200, Note_on_c, 11, 55, 55
12, 274320, Note_on_c, 11, 55, 0
12, 274320, Note_on_c, 11, 57, 60
12, 274440, Note_on_c, 11, 57, 0
12, 274440, Note_on_c, 11, 59, 48
12, 274560, Note_on_c, 11, 59, 0
12, 274560, Note_on_c, 11, 60, 33
12, 274800, Note_on_c, 11, 60, 0
12, 275040, Note_on_c, 11, 55, 38
12, 275160, Note_on_c, 11, 55, 0
12, 275160, Note_on_c, 11, 55, 46
12, 275280, Note_on_c, 11, 55, 0
12, 275280, Note_on_c, 11, 57, 57
12, 275400, Note_on_c, 11, 57, 0
12, 275400, Note_on_c, 11, 59, 40
12, 275520, Note_on_c, 11, 59, 0
12, 275520, Note_on_c, 11, 60, 33
12, 275760, Note_on_c, 11, 60, 0
12, 277440, Program_c, 11, 48
12, 277920, Note_on_c, 11, 67, 53
12, 278880, Note_on_c, 11, 67, 0
12, 280440, Note_on_c, 11, 67, 44
12, 281160, Note_on_c, 11, 67, 0
12, 282600, Note_on_c, 11, 60, 95
12, 282660, Note_on_c, 11, 60, 0
12, 282660, Note_on_c, 11, 60, 98
12, 282720, Note_on_c, 11, 60, 0
12, 282720, Note_on_c, 11, 59, 101
12, 282780, Note_on_c, 11, 59, 0
12, 282780, Note_on_c, 11, 59, 99
12, 282840, Note_on_c, 11, 59, 0
12, 282840, Note_on_c, 11, 59, 99
12, 282900, Note_on_c, 11, 59, 0
12, 282900, Note_on_c, 11, 59, 99
12, 282960, Note_on_c, 11, 59, 0
12, 282960, Note_on_c, 11, 59, 99
12, 283020, Note_on_c, 11, 59, 0
12, 283020, Note_on_c, 11, 59, 98
12, 283080, Note_on_c, 11, 59, 0
12, 283080, Note_on_c, 11, 59, 99
12, 283140, Note_on_c, 11, 59, 0
12, 283140, Note_on_c, 11, 59, 98
12, 283200, Note_on_c, 11, 59, 0
12, 283200, Note_on_c, 11, 59, 99
12, 283260, Note_on_c, 11, 59, 0
12, 283260, Note_on_c, 11, 59, 99
12, 283320, Note_on_c, 11, 59, 0
12, 283320, Note_on_c, 11, 59, 98
12, 283380, Note_on_c, 11, 59, 0
12, 283380, Note_on_c, 11, 59, 99
12, 283440, Note_on_c, 11, 59, 0
12, 283440, Note_on_c, 11, 59, 99
12, 283500, Note_on_c, 11, 59, 0
12, 283500, Note_on_c, 11, 59, 99
12, 283560, Note_on_c, 11, 59, 0
12, 283560, Note_on_c, 11, 59, 99
12, 283620, Note_on_c, 11, 59, 0
12, 283620, Note_on_c, 11, 59, 99
12, 283680, Note_on_c, 11, 59, 0
12, 283680, Note_on_c, 11, 60, 99
12, 283740, Note_on_c, 11, 60, 0
12, 283740, Note_on_c, 11, 60, 99
12, 283800, Note_on_c, 11, 60, 0
12, 283800, Note_on_c, 11, 71, 105
12, 283860, Note_on_c, 11, 71, 0
12, 283860, Note_on_c, 11, 71, 101
12, 283920, Note_on_c, 11, 71, 0
12, 283920, Note_on_c, 11, 72, 90
12, 283980, Note_on_c, 11, 72, 0
12, 283980, Note_on_c, 11, 72, 86
12, 284040, Note_on_c, 11, 72, 0
12, 284040, Note_on_c, 11, 71, 104
12, 284100, Note_on_c, 11, 71, 0
12, 284100, Note_on_c, 11, 71, 104
12, 284160, Note_on_c, 11, 71, 0
12, 284160, Note_on_c, 11, 72, 86
12, 284220, Note_on_c, 11, 72, 0
12, 284220, Note_on_c, 11, 72, 85
12, 284280, Note_on_c, 11, 72, 0
12, 284280, Note_on_c, 11, 71, 98
12, 284340, Note_on_c, 11, 71, 0
12, 284340, Note_on_c, 11, 71, 101
12, 284400, Note_on_c, 11, 71, 0
12, 284400, Note_on_c, 11, 72, 86
12, 284460, Note_on_c, 11, 72, 0
12, 284460, Note_on_c, 11, 72, 84
12, 284520, Note_on_c, 11, 72, 0
12, 284520, Note_on_c, 11, 71, 101
12, 284580, Note_on_c, 11, 71, 0
12, 284580, Note_on_c, 11, 71, 101
12, 284640, Note_on_c, 11, 71, 0
12, 284640, Note_on_c, 11, 72, 93
12, 284880, Note_on_c, 11, 72, 0
12, 284880, Note_on_c, 11, 60, 93
12, 285120, Note_on_c, 11, 60, 0
12, 285120, Note_on_c, 11, 48, 101
12, 285360, Note_on_c, 11, 48, 0
12, 285360, End_track
13, 0, Start_track
13, 0, MIDI_port, 0
13, 0, Title_t, "Cellos"
13, 0, Program_c, 12, 48
13, 0, Control_c, 12, 7, 100
13, 0, Control_c, 12, 10, 93
13, 0, Control_c, 12, 93, 0
13, 0, Control_c, 12, 91, 66
13, 10080, Note_on_c, 12, 48, 99
13, 10200, Note_on_c, 12, 48, 0
13, 10200, Note_on_c, 12, 60, 86
13, 10320, Note_on_c, 12, 60, 0
13, 10320, Note_on_c, 12, 60, 93
13, 10440, Note_on_c, 12, 60, 0
13, 10440, Note_on_c, 12, 60, 90
13, 10560, Note_on_c, 12, 60, 0
13, 10560, Note_on_c, 12, 48, 104
13, 10680, Note_on_c, 12, 48, 0
13, 10680, Note_on_c, 12, 60, 93
13, 10800, Note_on_c, 12, 60, 0
13, 10800, Note_on_c, 12, 60, 94
13, 10920, Note_on_c, 12, 60, 0
13, 10920, Note_on_c, 12, 60, 93
13, 11040, Note_on_c, 12, 60, 0
13, 11040, Note_on_c, 12, 48, 105
13, 11160, Note_on_c, 12, 48, 0
13, 11160, Note_on_c, 12, 60, 98
13, 11280, Note_on_c, 12, 60, 0
13, 11280, Note_on_c, 12, 48, 104
13, 11400, Note_on_c, 12, 48, 0
13, 11400, Note_on_c, 12, 48, 104
13, 11520, Note_on_c, 12, 48, 0
13, 11520, Note_on_c, 12, 47, 99
13, 11580, Note_on_c, 12, 47, 0
13, 11640, Note_on_c, 12, 52, 98
13, 11640, Note_on_c, 12, 47, 70
13, 11700, Note_on_c, 12, 47, 0
13, 11700, Note_on_c, 12, 52, 0
13, 11760, Note_on_c, 12, 48, 95
13, 11820, Note_on_c, 12, 48, 0
13, 11880, Note_on_c, 12, 50, 99
13, 11940, Note_on_c, 12, 50, 0
13, 12000, Note_on_c, 12, 43, 95
13, 12060, Note_on_c, 12, 43, 0
13, 12120, Note_on_c, 12, 52, 99
13, 12180, Note_on_c, 12, 52, 0
13, 12240, Note_on_c, 12, 48, 99
13, 12300, Note_on_c, 12, 48, 0
13, 12360, Note_on_c, 12, 50, 104
13, 12420, Note_on_c, 12, 50, 0
13, 12480, Note_on_c, 12, 43, 99
13, 12540, Note_on_c, 12, 43, 0
13, 12600, Note_on_c, 12, 55, 90
13, 12660, Note_on_c, 12, 55, 0
13, 12720, Note_on_c, 12, 43, 101
13, 12780, Note_on_c, 12, 43, 0
13, 12960, Note_on_c, 12, 43, 94
13, 13200, Note_on_c, 12, 43, 0
13, 13200, Note_on_c, 12, 43, 94
13, 13440, Note_on_c, 12, 43, 0
13, 13440, Note_on_c, 12, 43, 119
13, 13500, Note_on_c, 12, 43, 0
13, 13500, Note_on_c, 12, 42, 95
13, 13560, Note_on_c, 12, 42, 0
13, 13560, Note_on_c, 12, 43, 98
13, 13620, Note_on_c, 12, 43, 0
13, 13620, Note_on_c, 12, 42, 86
13, 13680, Note_on_c, 12, 42, 0
13, 13680, Note_on_c, 12, 43, 99
13, 13800, Note_on_c, 12, 43, 0
13, 13920, Note_on_c, 12, 43, 94
13, 14160, Note_on_c, 12, 43, 0
13, 14160, Note_on_c, 12, 43, 99
13, 14400, Note_on_c, 12, 43, 0
13, 14400, Note_on_c, 12, 43, 119
13, 14460, Note_on_c, 12, 43, 0
13, 14460, Note_on_c, 12, 42, 95
13, 14520, Note_on_c, 12, 42, 0
13, 14520, Note_on_c, 12, 43, 95
13, 14580, Note_on_c, 12, 43, 0
13, 14580, Note_on_c, 12, 42, 94
13, 14640, Note_on_c, 12, 42, 0
13, 14640, Note_on_c, 12, 43, 98
13, 15000, Note_on_c, 12, 43, 0
13, 15000, Note_on_c, 12, 44, 119
13, 15120, Note_on_c, 12, 44, 0
13, 15120, Note_on_c, 12, 43, 94
13, 15480, Note_on_c, 12, 43, 0
13, 15480, Note_on_c, 12, 44, 117
13, 15600, Note_on_c, 12, 44, 0
13, 15600, Note_on_c, 12, 43, 95
13, 15960, Note_on_c, 12, 43, 0
13, 15960, Note_on_c, 12, 44, 98
13, 16080, Note_on_c, 12, 44, 0
13, 16080, Note_on_c, 12, 47, 93
13, 16140, Note_on_c, 12, 47, 0
13, 16200, Note_on_c, 12, 41, 93
13, 16260, Note_on_c, 12, 41, 0
13, 16320, Note_on_c, 12, 43, 94
13, 16380, Note_on_c, 12, 43, 0
13, 16440, Note_on_c, 12, 43, 90
13, 16500, Note_on_c, 12, 43, 0
13, 16560, Note_on_c, 12, 55, 90
13, 16620, Note_on_c, 12, 55, 0
13, 16680, Note_on_c, 12, 55, 95
13, 16740, Note_on_c, 12, 55, 0
13, 16800, Note_on_c, 12, 48, 99
13, 17040, Note_on_c, 12, 48, 0
13, 17280, Note_on_c, 12, 55, 95
13, 17520, Note_on_c, 12, 55, 0
13, 17760, Note_on_c, 12, 60, 125
13, 17820, Note_on_c, 12, 60, 0
13, 17820, Note_on_c, 12, 59, 117
13, 17880, Note_on_c, 12, 59, 0
13, 17880, Note_on_c, 12, 57, 119
13, 17940, Note_on_c, 12, 57, 0
13, 17940, Note_on_c, 12, 55, 123
13, 18000, Note_on_c, 12, 55, 0
13, 18000, Note_on_c, 12, 53, 119
13, 18060, Note_on_c, 12, 53, 0
13, 18060, Note_on_c, 12, 52, 119
13, 18120, Note_on_c, 12, 52, 0
13, 18120, Note_on_c, 12, 50, 119
13, 18180, Note_on_c, 12, 50, 0
13, 18180, Note_on_c, 12, 48, 110
13, 18240, Note_on_c, 12, 48, 0
13, 18240, Note_on_c, 12, 43, 119
13, 18300, Note_on_c, 12, 43, 0
13, 18360, Note_on_c, 12, 55, 125
13, 18420, Note_on_c, 12, 55, 0
13, 18480, Note_on_c, 12, 55, 125
13, 18540, Note_on_c, 12, 55, 0
13, 18600, Note_on_c, 12, 55, 127
13, 18660, Note_on_c, 12, 55, 0
13, 18720, Note_on_c, 12, 48, 127
13, 18780, Note_on_c, 12, 48, 0
13, 18840, Note_on_c, 12, 43, 125
13, 18900, Note_on_c, 12, 43, 0
13, 18960, Note_on_c, 12, 48, 127
13, 19020, Note_on_c, 12, 48, 0
13, 19080, Note_on_c, 12, 43, 127
13, 19140, Note_on_c, 12, 43, 0
13, 19200, Note_on_c, 12, 48, 127
13, 19440, Note_on_c, 12, 48, 0
13, 21600, Note_on_c, 12, 43, 81
13, 21960, Note_on_c, 12, 43, 0
13, 21960, Note_on_c, 12, 45, 93
13, 22020, Note_on_c, 12, 45, 0
13, 22020, Note_on_c, 12, 47, 90
13, 22080, Note_on_c, 12, 47, 0
13, 22080, Note_on_c, 12, 48, 90
13, 22140, Note_on_c, 12, 48, 0
13, 23520, Note_on_c, 12, 52, 80
13, 23880, Note_on_c, 12, 52, 0
13, 23880, Note_on_c, 12, 54, 84
13, 23940, Note_on_c, 12, 54, 0
13, 23940, Note_on_c, 12, 56, 69
13, 24000, Note_on_c, 12, 56, 0
13, 24000, Note_on_c, 12, 57, 89
13, 24060, Note_on_c, 12, 57, 0
13, 25920, Note_on_c, 12, 50, 72
13, 26880, Note_on_c, 12, 50, 0
13, 26880, Note_on_c, 12, 55, 72
13, 27000, Note_on_c, 12, 55, 0
13, 27840, Note_on_c, 12, 61, 59
13, 28320, Note_on_c, 12, 61, 0
13, 28320, Note_on_c, 12, 57, 56
13, 28800, Note_on_c, 12, 57, 0
13, 28800, Note_on_c, 12, 62, 67
13, 29040, Note_on_c, 12, 62, 0
13, 29760, Note_on_c, 12, 50, 71
13, 30000, Note_on_c, 12, 50, 0
13, 30600, Note_on_c, 12, 50, 61
13, 30720, Note_on_c, 12, 50, 0
13, 30720, Note_on_c, 12, 50, 81
13, 30960, Note_on_c, 12, 50, 0
13, 30960, Note_on_c, 12, 62, 53
13, 31200, Note_on_c, 12, 62, 0
13, 31200, Note_on_c, 12, 62, 86
13, 31440, Note_on_c, 12, 62, 0
13, 31680, Note_on_c, 12, 55, 68
13, 32040, Note_on_c, 12, 55, 0
13, 32040, Note_on_c, 12, 50, 107
13, 32160, Note_on_c, 12, 50, 0
13, 32160, Note_on_c, 12, 57, 69
13, 32520, Note_on_c, 12, 57, 0
13, 32520, Note_on_c, 12, 57, 112
13, 32640, Note_on_c, 12, 57, 0
13, 32640, Note_on_c, 12, 55, 76
13, 33000, Note_on_c, 12, 55, 0
13, 33000, Note_on_c, 12, 50, 115
13, 33120, Note_on_c, 12, 50, 0
13, 33120, Note_on_c, 12, 57, 99
13, 33360, Note_on_c, 12, 57, 0
13, 33600, Note_on_c, 12, 54, 64
13, 33720, Note_on_c, 12, 54, 0
13, 33720, Note_on_c, 12, 52, 67
13, 33840, Note_on_c, 12, 52, 0
13, 33840, Note_on_c, 12, 54, 64
13, 33960, Note_on_c, 12, 54, 0
13, 33960, Note_on_c, 12, 50, 73
13, 34080, Note_on_c, 12, 50, 0
13, 34080, Note_on_c, 12, 55, 61
13, 34200, Note_on_c, 12, 55, 0
13, 34200, Note_on_c, 12, 54, 67
13, 34320, Note_on_c, 12, 54, 0
13, 34320, Note_on_c, 12, 55, 60
13, 34440, Note_on_c, 12, 55, 0
13, 34440, Note_on_c, 12, 59, 76
13, 34560, Note_on_c, 12, 59, 0
13, 34560, Note_on_c, 12, 60, 73
13, 34680, Note_on_c, 12, 60, 0
13, 34680, Note_on_c, 12, 59, 62
13, 34800, Note_on_c, 12, 59, 0
13, 34800, Note_on_c, 12, 60, 64
13, 34920, Note_on_c, 12, 60, 0
13, 34920, Note_on_c, 12, 61, 53
13, 35040, Note_on_c, 12, 61, 0
13, 35040, Note_on_c, 12, 62, 72
13, 35280, Note_on_c, 12, 62, 0
13, 35520, Note_on_c, 12, 55, 56
13, 35760, Note_on_c, 12, 55, 0
13, 35880, Note_on_c, 12, 50, 45
13, 35940, Note_on_c, 12, 50, 0
13, 36000, Note_on_c, 12, 57, 73
13, 36240, Note_on_c, 12, 57, 0
13, 36360, Note_on_c, 12, 57, 76
13, 36420, Note_on_c, 12, 57, 0
13, 36480, Note_on_c, 12, 55, 49
13, 36720, Note_on_c, 12, 55, 0
13, 36840, Note_on_c, 12, 50, 81
13, 36900, Note_on_c, 12, 50, 0
13, 36960, Note_on_c, 12, 57, 74
13, 37200, Note_on_c, 12, 57, 0
13, 51840, Note_on_c, 12, 47, 81
13, 51960, Note_on_c, 12, 47, 0
13, 52560, Note_on_c, 12, 43, 77
13, 52680, Note_on_c, 12, 43, 0
13, 52800, Note_on_c, 12, 48, 76
13, 52920, Note_on_c, 12, 48, 0
13, 53520, Note_on_c, 12, 45, 81
13, 53640, Note_on_c, 12, 45, 0
13, 53760, Note_on_c, 12, 50, 73
13, 53880, Note_on_c, 12, 50, 0
13, 54240, Note_on_c, 12, 50, 81
13, 54360, Note_on_c, 12, 50, 0
13, 54720, Note_on_c, 12, 47, 84
13, 54840, Note_on_c, 12, 47, 0
13, 55440, Note_on_c, 12, 43, 82
13, 55560, Note_on_c, 12, 43, 0
13, 55680, Note_on_c, 12, 48, 82
13, 55800, Note_on_c, 12, 48, 0
13, 56400, Note_on_c, 12, 45, 76
13, 56520, Note_on_c, 12, 45, 0
13, 56640, Note_on_c, 12, 50, 80
13, 56760, Note_on_c, 12, 50, 0
13, 57120, Note_on_c, 12, 50, 86
13, 57240, Note_on_c, 12, 50, 0
13, 57600, Note_on_c, 12, 55, 74
13, 57720, Note_on_c, 12, 55, 0
13, 61440, Note_on_c, 12, 55, 93
13, 61800, Note_on_c, 12, 55, 0
13, 61800, Note_on_c, 12, 43, 94
13, 61920, Note_on_c, 12, 43, 0
13, 61920, Note_on_c, 12, 43, 93
13, 62040, Note_on_c, 12, 43, 0
13, 62040, Note_on_c, 12, 43, 90
13, 62160, Note_on_c, 12, 43, 0
13, 62160, Note_on_c, 12, 43, 93
13, 62280, Note_on_c, 12, 43, 0
13, 62280, Note_on_c, 12, 43, 89
13, 62400, Note_on_c, 12, 43, 0
13, 62400, Note_on_c, 12, 44, 80
13, 62760, Note_on_c, 12, 44, 0
13, 63720, Note_on_c, 12, 43, 95
13, 63840, Note_on_c, 12, 43, 0
13, 63840, Note_on_c, 12, 44, 89
13, 63960, Note_on_c, 12, 44, 0
13, 63960, Note_on_c, 12, 44, 94
13, 64080, Note_on_c, 12, 44, 0
13, 64080, Note_on_c, 12, 45, 99
13, 64200, Note_on_c, 12, 45, 0
13, 64200, Note_on_c, 12, 45, 99
13, 64320, Note_on_c, 12, 45, 0
13, 64320, Note_on_c, 12, 46, 89
13, 64680, Note_on_c, 12, 46, 0
13, 65640, Note_on_c, 12, 45, 110
13, 65760, Note_on_c, 12, 45, 0
13, 65760, Note_on_c, 12, 46, 94
13, 65880, Note_on_c, 12, 46, 0
13, 65880, Note_on_c, 12, 46, 93
13, 66000, Note_on_c, 12, 46, 0
13, 66000, Note_on_c, 12, 47, 98
13, 66120, Note_on_c, 12, 47, 0
13, 66120, Note_on_c, 12, 47, 98
13, 66240, Note_on_c, 12, 47, 0
13, 66240, Note_on_c, 12, 48, 98
13, 66600, Note_on_c, 12, 48, 0
13, 68160, Note_on_c, 12, 55, 59
13, 68400, Note_on_c, 12, 55, 0
13, 68640, Note_on_c, 12, 55, 59
13, 68880, Note_on_c, 12, 55, 0
13, 69120, Note_on_c, 12, 55, 59
13, 69360, Note_on_c, 12, 55, 0
13, 69600, Note_on_c, 12, 55, 59
13, 69840, Note_on_c, 12, 55, 0
13, 82560, Note_on_c, 12, 48, 99
13, 82680, Note_on_c, 12, 48, 0
13, 82680, Note_on_c, 12, 60, 86
13, 82800, Note_on_c, 12, 60, 0
13, 82800, Note_on_c, 12, 60, 93
13, 82920, Note_on_c, 12, 60, 0
13, 82920, Note_on_c, 12, 60, 90
13, 83040, Note_on_c, 12, 60, 0
13, 83040, Note_on_c, 12, 48, 104
13, 83160, Note_on_c, 12, 48, 0
13, 83160, Note_on_c, 12, 60, 93
13, 83280, Note_on_c, 12, 60, 0
13, 83280, Note_on_c, 12, 60, 94
13, 83400, Note_on_c, 12, 60, 0
13, 83400, Note_on_c, 12, 60, 93
13, 83520, Note_on_c, 12, 60, 0
13, 83520, Note_on_c, 12, 48, 105
13, 83640, Note_on_c, 12, 48, 0
13, 83640, Note_on_c, 12, 60, 98
13, 83760, Note_on_c, 12, 60, 0
13, 83760, Note_on_c, 12, 48, 104
13, 83880, Note_on_c, 12, 48, 0
13, 83880, Note_on_c, 12, 48, 104
13, 84000, Note_on_c, 12, 48, 0
13, 84000, Note_on_c, 12, 47, 99
13, 84060, Note_on_c, 12, 47, 0
13, 84120, Note_on_c, 12, 52, 98
13, 84120, Note_on_c, 12, 47, 70
13, 84180, Note_on_c, 12, 47, 0
13, 84180, Note_on_c, 12, 52, 0
13, 84240, Note_on_c, 12, 48, 95
13, 84300, Note_on_c, 12, 48, 0
13, 84360, Note_on_c, 12, 50, 99
13, 84420, Note_on_c, 12, 50, 0
13, 84480, Note_on_c, 12, 43, 95
13, 84540, Note_on_c, 12, 43, 0
13, 84600, Note_on_c, 12, 52, 99
13, 84660, Note_on_c, 12, 52, 0
13, 84720, Note_on_c, 12, 48, 99
13, 84780, Note_on_c, 12, 48, 0
13, 84840, Note_on_c, 12, 50, 104
13, 84900, Note_on_c, 12, 50, 0
13, 84960, Note_on_c, 12, 43, 99
13, 85020, Note_on_c, 12, 43, 0
13, 85080, Note_on_c, 12, 55, 90
13, 85140, Note_on_c, 12, 55, 0
13, 85200, Note_on_c, 12, 43, 101
13, 85260, Note_on_c, 12, 43, 0
13, 85440, Note_on_c, 12, 43, 94
13, 85680, Note_on_c, 12, 43, 0
13, 85680, Note_on_c, 12, 43, 94
13, 85920, Note_on_c, 12, 43, 0
13, 85920, Note_on_c, 12, 43, 119
13, 85980, Note_on_c, 12, 43, 0
13, 85980, Note_on_c, 12, 42, 95
13, 86040, Note_on_c, 12, 42, 0
13, 86040, Note_on_c, 12, 43, 98
13, 86100, Note_on_c, 12, 43, 0
13, 86100, Note_on_c, 12, 42, 86
13, 86160, Note_on_c, 12, 42, 0
13, 86160, Note_on_c, 12, 43, 99
13, 86280, Note_on_c, 12, 43, 0
13, 86400, Note_on_c, 12, 43, 94
13, 86640, Note_on_c, 12, 43, 0
13, 86640, Note_on_c, 12, 43, 99
13, 86880, Note_on_c, 12, 43, 0
13, 86880, Note_on_c, 12, 43, 119
13, 86940, Note_on_c, 12, 43, 0
13, 86940, Note_on_c, 12, 42, 95
13, 87000, Note_on_c, 12, 42, 0
13, 87000, Note_on_c, 12, 43, 95
13, 87060, Note_on_c, 12, 43, 0
13, 87060, Note_on_c, 12, 42, 94
13, 87120, Note_on_c, 12, 42, 0
13, 87120, Note_on_c, 12, 43, 98
13, 87480, Note_on_c, 12, 43, 0
13, 87480, Note_on_c, 12, 44, 119
13, 87600, Note_on_c, 12, 44, 0
13, 87600, Note_on_c, 12, 43, 94
13, 87960, Note_on_c, 12, 43, 0
13, 87960, Note_on_c, 12, 44, 117
13, 88080, Note_on_c, 12, 44, 0
13, 88080, Note_on_c, 12, 43, 95
13, 88440, Note_on_c, 12, 43, 0
13, 88440, Note_on_c, 12, 44, 98
13, 88560, Note_on_c, 12, 44, 0
13, 88560, Note_on_c, 12, 47, 93
13, 88620, Note_on_c, 12, 47, 0
13, 88680, Note_on_c, 12, 41, 93
13, 88740, Note_on_c, 12, 41, 0
13, 88800, Note_on_c, 12, 43, 94
13, 88860, Note_on_c, 12, 43, 0
13, 88920, Note_on_c, 12, 43, 90
13, 88980, Note_on_c, 12, 43, 0
13, 89040, Note_on_c, 12, 55, 90
13, 89100, Note_on_c, 12, 55, 0
13, 89160, Note_on_c, 12, 55, 95
13, 89220, Note_on_c, 12, 55, 0
13, 89280, Note_on_c, 12, 48, 99
13, 89520, Note_on_c, 12, 48, 0
13, 89760, Note_on_c, 12, 55, 95
13, 90000, Note_on_c, 12, 55, 0
13, 90240, Note_on_c, 12, 60, 125
13, 90300, Note_on_c, 12, 60, 0
13, 90300, Note_on_c, 12, 59, 117
13, 90360, Note_on_c, 12, 59, 0
13, 90360, Note_on_c, 12, 57, 119
13, 90420, Note_on_c, 12, 57, 0
13, 90420, Note_on_c, 12, 55, 123
13, 90480, Note_on_c, 12, 55, 0
13, 90480, Note_on_c, 12, 53, 119
13, 90540, Note_on_c, 12, 53, 0
13, 90540, Note_on_c, 12, 52, 119
13, 90600, Note_on_c, 12, 52, 0
13, 90600, Note_on_c, 12, 50, 119
13, 90660, Note_on_c, 12, 50, 0
13, 90660, Note_on_c, 12, 48, 110
13, 90720, Note_on_c, 12, 48, 0
13, 90720, Note_on_c, 12, 43, 119
13, 90780, Note_on_c, 12, 43, 0
13, 90840, Note_on_c, 12, 55, 125
13, 90900, Note_on_c, 12, 55, 0
13, 90960, Note_on_c, 12, 55, 125
13, 91020, Note_on_c, 12, 55, 0
13, 91080, Note_on_c, 12, 55, 127
13, 91140, Note_on_c, 12, 55, 0
13, 91200, Note_on_c, 12, 48, 127
13, 91260, Note_on_c, 12, 48, 0
13, 91320, Note_on_c, 12, 43, 125
13, 91380, Note_on_c, 12, 43, 0
13, 91440, Note_on_c, 12, 48, 127
13, 91500, Note_on_c, 12, 48, 0
13, 91560, Note_on_c, 12, 43, 127
13, 91620, Note_on_c, 12, 43, 0
13, 91680, Note_on_c, 12, 48, 127
13, 91920, Note_on_c, 12, 48, 0
13, 91920, Program_c, 12, 45
13, 92160, Note_on_c, 12, 57, 72
13, 92400, Note_on_c, 12, 57, 0
13, 92880, Note_on_c, 12, 52, 64
13, 93120, Note_on_c, 12, 52, 0
13, 93120, Note_on_c, 12, 45, 70
13, 93360, Note_on_c, 12, 45, 0
13, 93840, Note_on_c, 12, 52, 76
13, 94080, Note_on_c, 12, 52, 0
13, 94080, Note_on_c, 12, 45, 60
13, 94320, Note_on_c, 12, 45, 0
13, 94320, Note_on_c, 12, 60, 66
13, 94560, Note_on_c, 12, 60, 0
13, 94560, Note_on_c, 12, 59, 67
13, 94800, Note_on_c, 12, 59, 0
13, 94800, Note_on_c, 12, 58, 68
13, 95040, Note_on_c, 12, 58, 0
13, 95040, Note_on_c, 12, 59, 69
13, 95280, Note_on_c, 12, 59, 0
13, 95280, Note_on_c, 12, 47, 72
13, 95520, Note_on_c, 12, 47, 0
13, 95520, Note_on_c, 12, 52, 84
13, 95760, Note_on_c, 12, 52, 0
13, 95760, Program_c, 12, 48
13, 96000, Note_on_c, 12, 45, 54
13, 96120, Note_on_c, 12, 45, 0
13, 96240, Note_on_c, 12, 60, 45
13, 96360, Note_on_c, 12, 60, 0
13, 96480, Note_on_c, 12, 59, 61
13, 96600, Note_on_c, 12, 59, 0
13, 96720, Note_on_c, 12, 52, 65
13, 96840, Note_on_c, 12, 52, 0
13, 96960, Note_on_c, 12, 57, 71
13, 97080, Note_on_c, 12, 57, 0
13, 97200, Note_on_c, 12, 60, 48
13, 97320, Note_on_c, 12, 60, 0
13, 97440, Note_on_c, 12, 59, 67
13, 97560, Note_on_c, 12, 59, 0
13, 97680, Note_on_c, 12, 52, 61
13, 97800, Note_on_c, 12, 52, 0
13, 97920, Note_on_c, 12, 57, 68
13, 98040, Note_on_c, 12, 57, 0
13, 98160, Note_on_c, 12, 60, 43
13, 98280, Note_on_c, 12, 60, 0
13, 98400, Note_on_c, 12, 59, 58
13, 98520, Note_on_c, 12, 59, 0
13, 98640, Note_on_c, 12, 58, 45
13, 98760, Note_on_c, 12, 58, 0
13, 98880, Note_on_c, 12, 59, 62
13, 99000, Note_on_c, 12, 59, 0
13, 99120, Note_on_c, 12, 47, 61
13, 99240, Note_on_c, 12, 47, 0
13, 99360, Note_on_c, 12, 52, 53
13, 99600, Note_on_c, 12, 52, 0
13, 104160, Note_on_c, 12, 48, 71
13, 104280, Note_on_c, 12, 48, 0
13, 104640, Note_on_c, 12, 45, 57
13, 105120, Note_on_c, 12, 45, 0
13, 105120, Note_on_c, 12, 50, 74
13, 105240, Note_on_c, 12, 50, 0
13, 105600, Note_on_c, 12, 43, 58
13, 106080, Note_on_c, 12, 43, 0
13, 106080, Note_on_c, 12, 48, 73
13, 106200, Note_on_c, 12, 48, 0
13, 108960, Program_c, 12, 45
13, 108960, Note_on_c, 12, 57, 84
13, 109200, Note_on_c, 12, 57, 0
13, 109680, Note_on_c, 12, 52, 68
13, 109920, Note_on_c, 12, 52, 0
13, 109920, Note_on_c, 12, 45, 61
13, 110160, Note_on_c, 12, 45, 0
13, 110640, Note_on_c, 12, 52, 74
13, 110880, Note_on_c, 12, 52, 0
13, 110880, Note_on_c, 12, 45, 67
13, 111120, Note_on_c, 12, 45, 0
13, 112800, Note_on_c, 12, 57, 82
13, 113040, Note_on_c, 12, 57, 0
13, 113040, Note_on_c, 12, 60, 71
13, 113280, Note_on_c, 12, 60, 0
13, 113280, Note_on_c, 12, 62, 52
13, 113520, Note_on_c, 12, 62, 0
13, 113520, Note_on_c, 12, 59, 80
13, 113760, Note_on_c, 12, 59, 0
13, 113760, Note_on_c, 12, 64, 71
13, 114000, Note_on_c, 12, 64, 0
13, 114000, Note_on_c, 12, 52, 84
13, 114240, Note_on_c, 12, 52, 0
13, 114240, Note_on_c, 12, 57, 76
13, 114360, Note_on_c, 12, 57, 0
13, 118560, Program_c, 12, 48
13, 119040, Note_on_c, 12, 53, 59
13, 119280, Note_on_c, 12, 53, 0
13, 119520, Note_on_c, 12, 50, 69
13, 120000, Note_on_c, 12, 50, 0
13, 120000, Note_on_c, 12, 55, 70
13, 120120, Note_on_c, 12, 55, 0
13, 120480, Note_on_c, 12, 48, 59
13, 120960, Note_on_c, 12, 48, 0
13, 120960, Note_on_c, 12, 53, 49
13, 121080, Note_on_c, 12, 53, 0
13, 123960, Note_on_c, 12, 55, 43
13, 124080, Note_on_c, 12, 55, 0
13, 124080, Note_on_c, 12, 53, 62
13, 124200, Note_on_c, 12, 53, 0
13, 124200, Note_on_c, 12, 52, 68
13, 124320, Note_on_c, 12, 52, 0
13, 124320, Note_on_c, 12, 50, 74
13, 124440, Note_on_c, 12, 50, 0
13, 124440, Note_on_c, 12, 48, 98
13, 124560, Note_on_c, 12, 48, 0
13, 124560, Note_on_c, 12, 47, 94
13, 124680, Note_on_c, 12, 47, 0
13, 124680, Note_on_c, 12, 45, 99
13, 124800, Note_on_c, 12, 45, 0
13, 124800, Note_on_c, 12, 50, 45
13, 125040, Note_on_c, 12, 50, 0
13, 125040, Note_on_c, 12, 52, 58
13, 125280, Note_on_c, 12, 52, 0
13, 125280, Note_on_c, 12, 57, 43
13, 125520, Note_on_c, 12, 57, 0
13, 125760, Program_c, 12, 45
13, 126000, Note_on_c, 12, 52, 81
13, 126240, Note_on_c, 12, 52, 0
13, 126240, Note_on_c, 12, 45, 81
13, 126480, Note_on_c, 12, 45, 0
13, 126960, Note_on_c, 12, 52, 86
13, 127200, Note_on_c, 12, 52, 0
13, 127200, Note_on_c, 12, 45, 59
13, 127440, Note_on_c, 12, 45, 0
13, 127440, Note_on_c, 12, 55, 78
13, 127680, Note_on_c, 12, 55, 0
13, 127680, Note_on_c, 12, 53, 65
13, 127920, Note_on_c, 12, 53, 0
13, 127920, Note_on_c, 12, 52, 84
13, 128160, Note_on_c, 12, 52, 0
13, 128160, Note_on_c, 12, 50, 76
13, 128400, Note_on_c, 12, 50, 0
13, 128400, Note_on_c, 12, 53, 65
13, 128640, Note_on_c, 12, 53, 0
13, 128640, Note_on_c, 12, 52, 86
13, 128880, Note_on_c, 12, 52, 0
13, 128880, Note_on_c, 12, 52, 84
13, 129120, Note_on_c, 12, 52, 0
13, 129120, Note_on_c, 12, 45, 84
13, 129360, Note_on_c, 12, 45, 0
13, 129360, Note_on_c, 12, 55, 66
13, 129600, Note_on_c, 12, 55, 0
13, 129600, Note_on_c, 12, 53, 68
13, 129840, Note_on_c, 12, 53, 0
13, 129840, Note_on_c, 12, 52, 62
13, 130080, Note_on_c, 12, 52, 0
13, 130080, Note_on_c, 12, 50, 71
13, 130320, Note_on_c, 12, 50, 0
13, 130320, Note_on_c, 12, 53, 72
13, 130560, Note_on_c, 12, 53, 0
13, 130560, Note_on_c, 12, 52, 78
13, 130800, Note_on_c, 12, 52, 0
13, 130800, Note_on_c, 12, 52, 74
13, 131040, Note_on_c, 12, 52, 0
13, 131040, Program_c, 12, 48
13, 131040, Note_on_c, 12, 45, 105
13, 131400, Note_on_c, 12, 45, 0
13, 131400, Note_on_c, 12, 45, 104
13, 131520, Note_on_c, 12, 45, 0
13, 131520, Note_on_c, 12, 45, 104
13, 131640, Note_on_c, 12, 45, 0
13, 131640, Note_on_c, 12, 45, 104
13, 131760, Note_on_c, 12, 45, 0
13, 131760, Note_on_c, 12, 45, 101
13, 131880, Note_on_c, 12, 45, 0
13, 131880, Note_on_c, 12, 45, 99
13, 132000, Note_on_c, 12, 45, 0
13, 132000, Note_on_c, 12, 46, 99
13, 132360, Note_on_c, 12, 46, 0
13, 133320, Note_on_c, 12, 33, 112
13, 133440, Note_on_c, 12, 33, 0
13, 133440, Note_on_c, 12, 46, 84
13, 133560, Note_on_c, 12, 46, 0
13, 133560, Note_on_c, 12, 46, 80
13, 133680, Note_on_c, 12, 46, 0
13, 133680, Note_on_c, 12, 47, 94
13, 133800, Note_on_c, 12, 47, 0
13, 133800, Note_on_c, 12, 47, 86
13, 133920, Note_on_c, 12, 47, 0
13, 133920, Note_on_c, 12, 48, 89
13, 134280, Note_on_c, 12, 48, 0
13, 135240, Note_on_c, 12, 47, 99
13, 135360, Note_on_c, 12, 47, 0
13, 135360, Note_on_c, 12, 48, 89
13, 135480, Note_on_c, 12, 48, 0
13, 135480, Note_on_c, 12, 48, 86
13, 135600, Note_on_c, 12, 48, 0
13, 135600, Note_on_c, 12, 49, 86
13, 135720, Note_on_c, 12, 49, 0
13, 135720, Note_on_c, 12, 49, 90
13, 135840, Note_on_c, 12, 49, 0
13, 135840, Note_on_c, 12, 50, 101
13, 136200, Note_on_c, 12, 50, 0
13, 137760, Note_on_c, 12, 57, 65
13, 138000, Note_on_c, 12, 57, 0
13, 138240, Note_on_c, 12, 57, 57
13, 138480, Note_on_c, 12, 57, 0
13, 138720, Note_on_c, 12, 57, 53
13, 138960, Note_on_c, 12, 57, 0
13, 139680, Note_on_c, 12, 50, 56
13, 139920, Note_on_c, 12, 50, 0
13, 140640, Note_on_c, 12, 55, 59
13, 140880, Note_on_c, 12, 55, 0
13, 141600, Note_on_c, 12, 48, 59
13, 141840, Note_on_c, 12, 48, 0
13, 142560, Note_on_c, 12, 53, 44
13, 143280, Note_on_c, 12, 53, 0
13, 143280, Note_on_c, 12, 54, 43
13, 143520, Note_on_c, 12, 54, 0
13, 143520, Note_on_c, 12, 55, 69
13, 143640, Note_on_c, 12, 55, 0
13, 144480, Note_on_c, 12, 55, 73
13, 144720, Note_on_c, 12, 55, 0
13, 145440, Note_on_c, 12, 55, 68
13, 145680, Note_on_c, 12, 55, 0
13, 146400, Note_on_c, 12, 55, 70
13, 146640, Note_on_c, 12, 55, 0
13, 146880, Note_on_c, 12, 55, 61
13, 147120, Note_on_c, 12, 55, 0
13, 147360, Note_on_c, 12, 55, 61
13, 147600, Note_on_c, 12, 55, 0
13, 158880, Note_on_c, 12, 48, 99
13, 159000, Note_on_c, 12, 48, 0
13, 159000, Note_on_c, 12, 60, 86
13, 159120, Note_on_c, 12, 60, 0
13, 159120, Note_on_c, 12, 60, 93
13, 159240, Note_on_c, 12, 60, 0
13, 159240, Note_on_c, 12, 60, 90
13, 159360, Note_on_c, 12, 60, 0
13, 159360, Note_on_c, 12, 48, 104
13, 159480, Note_on_c, 12, 48, 0
13, 159480, Note_on_c, 12, 60, 93
13, 159600, Note_on_c, 12, 60, 0
13, 159600, Note_on_c, 12, 60, 94
13, 159720, Note_on_c, 12, 60, 0
13, 159720, Note_on_c, 12, 60, 93
13, 159840, Note_on_c, 12, 60, 0
13, 159840, Note_on_c, 12, 48, 105
13, 159960, Note_on_c, 12, 48, 0
13, 159960, Note_on_c, 12, 60, 98
13, 160080, Note_on_c, 12, 60, 0
13, 160080, Note_on_c, 12, 48, 104
13, 160200, Note_on_c, 12, 48, 0
13, 160200, Note_on_c, 12, 48, 104
13, 160320, Note_on_c, 12, 48, 0
13, 160320, Note_on_c, 12, 47, 99
13, 160380, Note_on_c, 12, 47, 0
13, 160440, Note_on_c, 12, 52, 98
13, 160440, Note_on_c, 12, 47, 70
13, 160500, Note_on_c, 12, 47, 0
13, 160500, Note_on_c, 12, 52, 0
13, 160560, Note_on_c, 12, 48, 95
13, 160620, Note_on_c, 12, 48, 0
13, 160680, Note_on_c, 12, 50, 99
13, 160740, Note_on_c, 12, 50, 0
13, 160800, Note_on_c, 12, 43, 95
13, 160860, Note_on_c, 12, 43, 0
13, 160920, Note_on_c, 12, 52, 99
13, 160980, Note_on_c, 12, 52, 0
13, 161040, Note_on_c, 12, 48, 99
13, 161100, Note_on_c, 12, 48, 0
13, 161160, Note_on_c, 12, 50, 104
13, 161220, Note_on_c, 12, 50, 0
13, 161280, Note_on_c, 12, 43, 99
13, 161340, Note_on_c, 12, 43, 0
13, 161400, Note_on_c, 12, 55, 90
13, 161460, Note_on_c, 12, 55, 0
13, 161520, Note_on_c, 12, 43, 101
13, 161580, Note_on_c, 12, 43, 0
13, 161760, Note_on_c, 12, 43, 94
13, 162000, Note_on_c, 12, 43, 0
13, 162000, Note_on_c, 12, 43, 94
13, 162240, Note_on_c, 12, 43, 0
13, 162240, Note_on_c, 12, 43, 119
13, 162300, Note_on_c, 12, 43, 0
13, 162300, Note_on_c, 12, 42, 95
13, 162360, Note_on_c, 12, 42, 0
13, 162360, Note_on_c, 12, 43, 98
13, 162420, Note_on_c, 12, 43, 0
13, 162420, Note_on_c, 12, 42, 86
13, 162480, Note_on_c, 12, 42, 0
13, 162480, Note_on_c, 12, 43, 99
13, 162600, Note_on_c, 12, 43, 0
13, 162720, Note_on_c, 12, 43, 94
13, 162960, Note_on_c, 12, 43, 0
13, 162960, Note_on_c, 12, 43, 99
13, 163200, Note_on_c, 12, 43, 0
13, 163200, Note_on_c, 12, 43, 119
13, 163260, Note_on_c, 12, 43, 0
13, 163260, Note_on_c, 12, 42, 95
13, 163320, Note_on_c, 12, 42, 0
13, 163320, Note_on_c, 12, 43, 95
13, 163380, Note_on_c, 12, 43, 0
13, 163380, Note_on_c, 12, 42, 94
13, 163440, Note_on_c, 12, 42, 0
13, 163440, Note_on_c, 12, 43, 98
13, 163800, Note_on_c, 12, 43, 0
13, 163800, Note_on_c, 12, 44, 119
13, 163920, Note_on_c, 12, 44, 0
13, 163920, Note_on_c, 12, 43, 94
13, 164280, Note_on_c, 12, 43, 0
13, 164280, Note_on_c, 12, 44, 117
13, 164400, Note_on_c, 12, 44, 0
13, 164400, Note_on_c, 12, 43, 95
13, 164760, Note_on_c, 12, 43, 0
13, 164760, Note_on_c, 12, 44, 98
13, 164880, Note_on_c, 12, 44, 0
13, 164880, Note_on_c, 12, 47, 93
13, 164940, Note_on_c, 12, 47, 0
13, 165000, Note_on_c, 12, 41, 93
13, 165060, Note_on_c, 12, 41, 0
13, 165120, Note_on_c, 12, 43, 94
13, 165180, Note_on_c, 12, 43, 0
13, 165240, Note_on_c, 12, 43, 90
13, 165300, Note_on_c, 12, 43, 0
13, 165360, Note_on_c, 12, 55, 90
13, 165420, Note_on_c, 12, 55, 0
13, 165480, Note_on_c, 12, 55, 95
13, 165540, Note_on_c, 12, 55, 0
13, 165600, Note_on_c, 12, 48, 99
13, 165840, Note_on_c, 12, 48, 0
13, 166080, Note_on_c, 12, 55, 95
13, 166320, Note_on_c, 12, 55, 0
13, 166560, Note_on_c, 12, 60, 125
13, 166620, Note_on_c, 12, 60, 0
13, 166620, Note_on_c, 12, 59, 117
13, 166680, Note_on_c, 12, 59, 0
13, 166680, Note_on_c, 12, 57, 119
13, 166740, Note_on_c, 12, 57, 0
13, 166740, Note_on_c, 12, 55, 123
13, 166800, Note_on_c, 12, 55, 0
13, 166800, Note_on_c, 12, 53, 119
13, 166860, Note_on_c, 12, 53, 0
13, 166860, Note_on_c, 12, 52, 119
13, 166920, Note_on_c, 12, 52, 0
13, 166920, Note_on_c, 12, 50, 119
13, 166980, Note_on_c, 12, 50, 0
13, 166980, Note_on_c, 12, 48, 110
13, 167040, Note_on_c, 12, 48, 0
13, 167040, Note_on_c, 12, 43, 119
13, 167100, Note_on_c, 12, 43, 0
13, 167160, Note_on_c, 12, 55, 125
13, 167220, Note_on_c, 12, 55, 0
13, 167280, Note_on_c, 12, 55, 125
13, 167340, Note_on_c, 12, 55, 0
13, 167400, Note_on_c, 12, 55, 127
13, 167460, Note_on_c, 12, 55, 0
13, 167520, Note_on_c, 12, 48, 127
13, 167580, Note_on_c, 12, 48, 0
13, 167640, Note_on_c, 12, 43, 125
13, 167700, Note_on_c, 12, 43, 0
13, 167760, Note_on_c, 12, 48, 127
13, 167820, Note_on_c, 12, 48, 0
13, 167880, Note_on_c, 12, 43, 127
13, 167940, Note_on_c, 12, 43, 0
13, 168000, Note_on_c, 12, 48, 127
13, 168240, Note_on_c, 12, 48, 0
13, 170400, Note_on_c, 12, 43, 81
13, 170760, Note_on_c, 12, 43, 0
13, 170760, Note_on_c, 12, 45, 93
13, 170820, Note_on_c, 12, 45, 0
13, 170820, Note_on_c, 12, 47, 90
13, 170880, Note_on_c, 12, 47, 0
13, 170880, Note_on_c, 12, 48, 90
13, 170940, Note_on_c, 12, 48, 0
13, 172320, Note_on_c, 12, 55, 76
13, 172680, Note_on_c, 12, 55, 0
13, 172680, Note_on_c, 12, 57, 76
13, 172740, Note_on_c, 12, 57, 0
13, 172740, Note_on_c, 12, 59, 74
13, 172800, Note_on_c, 12, 59, 0
13, 172800, Note_on_c, 12, 60, 76
13, 172860, Note_on_c, 12, 60, 0
13, 174240, Note_on_c, 12, 51, 67
13, 174600, Note_on_c, 12, 51, 0
13, 174600, Note_on_c, 12, 53, 46
13, 174660, Note_on_c, 12, 53, 0
13, 174660, Note_on_c, 12, 55, 64
13, 174720, Note_on_c, 12, 55, 0
13, 174720, Note_on_c, 12, 56, 63
13, 174780, Note_on_c, 12, 56, 0
13, 179760, Note_on_c, 12, 55, 64
13, 180000, Note_on_c, 12, 55, 0
13, 180000, Note_on_c, 12, 48, 64
13, 180120, Note_on_c, 12, 48, 0
13, 180240, Note_on_c, 12, 48, 62
13, 180360, Note_on_c, 12, 48, 0
13, 180480, Note_on_c, 12, 55, 70
13, 180720, Note_on_c, 12, 55, 0
13, 181440, Note_on_c, 12, 55, 63
13, 181680, Note_on_c, 12, 55, 0
13, 182280, Note_on_c, 12, 55, 64
13, 182400, Note_on_c, 12, 55, 0
13, 182400, Note_on_c, 12, 55, 62
13, 182640, Note_on_c, 12, 55, 0
13, 182640, Note_on_c, 12, 55, 65
13, 182880, Note_on_c, 12, 55, 0
13, 182880, Note_on_c, 12, 55, 62
13, 183120, Note_on_c, 12, 55, 0
13, 183360, Note_on_c, 12, 48, 66
13, 183720, Note_on_c, 12, 48, 0
13, 183720, Note_on_c, 12, 43, 78
13, 183840, Note_on_c, 12, 43, 0
13, 183840, Note_on_c, 12, 50, 67
13, 184200, Note_on_c, 12, 50, 0
13, 184200, Note_on_c, 12, 50, 89
13, 184320, Note_on_c, 12, 50, 0
13, 184320, Note_on_c, 12, 48, 65
13, 184680, Note_on_c, 12, 48, 0
13, 184680, Note_on_c, 12, 43, 73
13, 184800, Note_on_c, 12, 43, 0
13, 184800, Note_on_c, 12, 50, 68
13, 185040, Note_on_c, 12, 50, 0
13, 185280, Note_on_c, 12, 47, 76
13, 185400, Note_on_c, 12, 47, 0
13, 185400, Note_on_c, 12, 45, 81
13, 185520, Note_on_c, 12, 45, 0
13, 185520, Note_on_c, 12, 47, 65
13, 185640, Note_on_c, 12, 47, 0
13, 185640, Note_on_c, 12, 43, 69
13, 185760, Note_on_c, 12, 43, 0
13, 185760, Note_on_c, 12, 48, 65
13, 185880, Note_on_c, 12, 48, 0
13, 185880, Note_on_c, 12, 47, 51
13, 186000, Note_on_c, 12, 47, 0
13, 186000, Note_on_c, 12, 48, 65
13, 186120, Note_on_c, 12, 48, 0
13, 186120, Note_on_c, 12, 40, 67
13, 186240, Note_on_c, 12, 40, 0
13, 186240, Note_on_c, 12, 41, 65
13, 186360, Note_on_c, 12, 41, 0
13, 186360, Note_on_c, 12, 40, 61
13, 186480, Note_on_c, 12, 40, 0
13, 186480, Note_on_c, 12, 41, 60
13, 186600, Note_on_c, 12, 41, 0
13, 186600, Note_on_c, 12, 42, 72
13, 186720, Note_on_c, 12, 42, 0
13, 186720, Note_on_c, 12, 43, 60
13, 186960, Note_on_c, 12, 43, 0
13, 187200, Note_on_c, 12, 60, 43
13, 187440, Note_on_c, 12, 60, 0
13, 187560, Note_on_c, 12, 55, 42
13, 187620, Note_on_c, 12, 55, 0
13, 187680, Note_on_c, 12, 62, 50
13, 187920, Note_on_c, 12, 62, 0
13, 188040, Note_on_c, 12, 62, 64
13, 188100, Note_on_c, 12, 62, 0
13, 188160, Note_on_c, 12, 60, 53
13, 188400, Note_on_c, 12, 60, 0
13, 188520, Note_on_c, 12, 55, 40
13, 188580, Note_on_c, 12, 55, 0
13, 188640, Note_on_c, 12, 62, 49
13, 188880, Note_on_c, 12, 62, 0
13, 192480, Note_on_c, 12, 36, 64
13, 192600, Note_on_c, 12, 36, 0
13, 192600, Note_on_c, 12, 48, 65
13, 192720, Note_on_c, 12, 48, 0
13, 192720, Note_on_c, 12, 48, 69
13, 192840, Note_on_c, 12, 48, 0
13, 192840, Note_on_c, 12, 48, 63
13, 192960, Note_on_c, 12, 48, 0
13, 192960, Note_on_c, 12, 48, 64
13, 193080, Note_on_c, 12, 48, 0
13, 193080, Note_on_c, 12, 48, 65
13, 193200, Note_on_c, 12, 48, 0
13, 193200, Note_on_c, 12, 49, 46
13, 193260, Note_on_c, 12, 49, 0
13, 193260, Note_on_c, 12, 48, 61
13, 193320, Note_on_c, 12, 48, 0
13, 193320, Note_on_c, 12, 46, 59
13, 193380, Note_on_c, 12, 46, 0
13, 193380, Note_on_c, 12, 48, 64
13, 193440, Note_on_c, 12, 48, 0
13, 193440, Note_on_c, 12, 49, 62
13, 193560, Note_on_c, 12, 49, 0
13, 193560, Note_on_c, 12, 48, 66
13, 193680, Note_on_c, 12, 48, 0
13, 193680, Note_on_c, 12, 46, 69
13, 193800, Note_on_c, 12, 46, 0
13, 193800, Note_on_c, 12, 44, 81
13, 193920, Note_on_c, 12, 44, 0
13, 193920, Note_on_c, 12, 43, 81
13, 194040, Note_on_c, 12, 43, 0
13, 194040, Note_on_c, 12, 41, 84
13, 194160, Note_on_c, 12, 41, 0
13, 194160, Note_on_c, 12, 43, 80
13, 194280, Note_on_c, 12, 43, 0
13, 194280, Note_on_c, 12, 39, 76
13, 194400, Note_on_c, 12, 39, 0
13, 194400, Note_on_c, 12, 56, 46
13, 194640, Note_on_c, 12, 56, 0
13, 203520, Note_on_c, 12, 52, 73
13, 203640, Note_on_c, 12, 52, 0
13, 204240, Note_on_c, 12, 48, 80
13, 204360, Note_on_c, 12, 48, 0
13, 204480, Note_on_c, 12, 53, 77
13, 204600, Note_on_c, 12, 53, 0
13, 205200, Note_on_c, 12, 50, 69
13, 205320, Note_on_c, 12, 50, 0
13, 205440, Note_on_c, 12, 55, 73
13, 205560, Note_on_c, 12, 55, 0
13, 205920, Note_on_c, 12, 55, 69
13, 206040, Note_on_c, 12, 55, 0
13, 206400, Note_on_c, 12, 52, 73
13, 206520, Note_on_c, 12, 52, 0
13, 207120, Note_on_c, 12, 48, 76
13, 207240, Note_on_c, 12, 48, 0
13, 207360, Note_on_c, 12, 53, 59
13, 207480, Note_on_c, 12, 53, 0
13, 208080, Note_on_c, 12, 50, 80
13, 208200, Note_on_c, 12, 50, 0
13, 208320, Note_on_c, 12, 55, 56
13, 208440, Note_on_c, 12, 55, 0
13, 208800, Note_on_c, 12, 55, 61
13, 208920, Note_on_c, 12, 55, 0
13, 209280, Note_on_c, 12, 48, 61
13, 209520, Note_on_c, 12, 48, 0
13, 209760, Note_on_c, 12, 55, 68
13, 210000, Note_on_c, 12, 55, 0
13, 210240, Note_on_c, 12, 60, 58
13, 210480, Note_on_c, 12, 60, 0
13, 210720, Note_on_c, 12, 55, 61
13, 210960, Note_on_c, 12, 55, 0
13, 211080, Note_on_c, 12, 55, 44
13, 211200, Note_on_c, 12, 55, 0
13, 211200, Note_on_c, 12, 60, 61
13, 211320, Note_on_c, 12, 60, 0
13, 211320, Note_on_c, 12, 59, 78
13, 211440, Note_on_c, 12, 59, 0
13, 211440, Note_on_c, 12, 60, 86
13, 211560, Note_on_c, 12, 60, 0
13, 211560, Note_on_c, 12, 62, 89
13, 211680, Note_on_c, 12, 62, 0
13, 211680, Note_on_c, 12, 60, 73
13, 211800, Note_on_c, 12, 60, 0
13, 211800, Note_on_c, 12, 59, 78
13, 211920, Note_on_c, 12, 59, 0
13, 211920, Note_on_c, 12, 57, 76
13, 212040, Note_on_c, 12, 57, 0
13, 212040, Note_on_c, 12, 55, 73
13, 212160, Note_on_c, 12, 55, 0
13, 212160, Note_on_c, 12, 58, 67
13, 212280, Note_on_c, 12, 58, 0
13, 212280, Note_on_c, 12, 57, 84
13, 212400, Note_on_c, 12, 57, 0
13, 212400, Note_on_c, 12, 58, 65
13, 212520, Note_on_c, 12, 58, 0
13, 212520, Note_on_c, 12, 60, 65
13, 212640, Note_on_c, 12, 60, 0
13, 212640, Note_on_c, 12, 58, 70
13, 212760, Note_on_c, 12, 58, 0
13, 212760, Note_on_c, 12, 57, 84
13, 212880, Note_on_c, 12, 57, 0
13, 212880, Note_on_c, 12, 55, 72
13, 213000, Note_on_c, 12, 55, 0
13, 213000, Note_on_c, 12, 53, 76
13, 213120, Note_on_c, 12, 53, 0
13, 213120, Note_on_c, 12, 52, 82
13, 213240, Note_on_c, 12, 52, 0
13, 213240, Note_on_c, 12, 50, 84
13, 213360, Note_on_c, 12, 50, 0
13, 213360, Note_on_c, 12, 48, 71
13, 213480, Note_on_c, 12, 48, 0
13, 213480, Note_on_c, 12, 46, 78
13, 213600, Note_on_c, 12, 46, 0
13, 213600, Note_on_c, 12, 45, 84
13, 213660, Note_on_c, 12, 45, 0
13, 213720, Note_on_c, 12, 41, 81
13, 213780, Note_on_c, 12, 41, 0
13, 213840, Note_on_c, 12, 53, 66
13, 213900, Note_on_c, 12, 53, 0
13, 213960, Note_on_c, 12, 52, 84
13, 214020, Note_on_c, 12, 52, 0
13, 214080, Note_on_c, 12, 50, 77
13, 214200, Note_on_c, 12, 50, 0
13, 214200, Note_on_c, 12, 53, 73
13, 214320, Note_on_c, 12, 53, 0
13, 214320, Note_on_c, 12, 55, 60
13, 214440, Note_on_c, 12, 55, 0
13, 214440, Note_on_c, 12, 53, 73
13, 214560, Note_on_c, 12, 53, 0
13, 214560, Note_on_c, 12, 52, 77
13, 214680, Note_on_c, 12, 52, 0
13, 214680, Note_on_c, 12, 55, 72
13, 214800, Note_on_c, 12, 55, 0
13, 214800, Note_on_c, 12, 57, 89
13, 214920, Note_on_c, 12, 57, 0
13, 214920, Note_on_c, 12, 55, 74
13, 215040, Note_on_c, 12, 55, 0
13, 215040, Note_on_c, 12, 53, 82
13, 215160, Note_on_c, 12, 53, 0
13, 215160, Note_on_c, 12, 53, 85
13, 215280, Note_on_c, 12, 53, 0
13, 215280, Note_on_c, 12, 53, 74
13, 215400, Note_on_c, 12, 53, 0
13, 215400, Note_on_c, 12, 53, 84
13, 215520, Note_on_c, 12, 53, 0
13, 215520, Note_on_c, 12, 54, 81
13, 215640, Note_on_c, 12, 54, 0
13, 215640, Note_on_c, 12, 54, 78
13, 215760, Note_on_c, 12, 54, 0
13, 215760, Note_on_c, 12, 54, 84
13, 215880, Note_on_c, 12, 54, 0
13, 215880, Note_on_c, 12, 54, 84
13, 216000, Note_on_c, 12, 54, 0
13, 216000, Note_on_c, 12, 55, 95
13, 216120, Note_on_c, 12, 55, 0
13, 216120, Note_on_c, 12, 55, 77
13, 216240, Note_on_c, 12, 55, 0
13, 216240, Note_on_c, 12, 56, 80
13, 216360, Note_on_c, 12, 56, 0
13, 216360, Note_on_c, 12, 56, 84
13, 216480, Note_on_c, 12, 56, 0
13, 216480, Note_on_c, 12, 55, 77
13, 216600, Note_on_c, 12, 55, 0
13, 216600, Note_on_c, 12, 55, 73
13, 216720, Note_on_c, 12, 55, 0
13, 216720, Note_on_c, 12, 54, 89
13, 216840, Note_on_c, 12, 54, 0
13, 216840, Note_on_c, 12, 54, 72
13, 216960, Note_on_c, 12, 54, 0
13, 216960, Note_on_c, 12, 55, 69
13, 217080, Note_on_c, 12, 55, 0
13, 217080, Note_on_c, 12, 55, 74
13, 217200, Note_on_c, 12, 55, 0
13, 217200, Note_on_c, 12, 57, 80
13, 217320, Note_on_c, 12, 57, 0
13, 217320, Note_on_c, 12, 57, 82
13, 217440, Note_on_c, 12, 57, 0
13, 217440, Note_on_c, 12, 55, 76
13, 217560, Note_on_c, 12, 55, 0
13, 217560, Note_on_c, 12, 55, 77
13, 217680, Note_on_c, 12, 55, 0
13, 217680, Note_on_c, 12, 54, 93
13, 217800, Note_on_c, 12, 54, 0
13, 217800, Note_on_c, 12, 54, 69
13, 217920, Note_on_c, 12, 54, 0
13, 217920, Note_on_c, 12, 55, 71
13, 218040, Note_on_c, 12, 55, 0
13, 218040, Note_on_c, 12, 55, 81
13, 218160, Note_on_c, 12, 55, 0
13, 218160, Note_on_c, 12, 54, 94
13, 218280, Note_on_c, 12, 54, 0
13, 218280, Note_on_c, 12, 54, 72
13, 218400, Note_on_c, 12, 54, 0
13, 218400, Note_on_c, 12, 55, 90
13, 218520, Note_on_c, 12, 55, 0
13, 218520, Note_on_c, 12, 55, 81
13, 218640, Note_on_c, 12, 55, 0
13, 218640, Note_on_c, 12, 54, 95
13, 218760, Note_on_c, 12, 54, 0
13, 218760, Note_on_c, 12, 54, 94
13, 218880, Note_on_c, 12, 54, 0
13, 218880, Note_on_c, 12, 55, 101
13, 220320, Note_on_c, 12, 55, 0
13, 227520, Note_on_c, 12, 55, 43
13, 228480, Note_on_c, 12, 55, 0
13, 228480, Note_on_c, 12, 55, 43
13, 229440, Note_on_c, 12, 55, 0
13, 229440, Note_on_c, 12, 54, 44
13, 230400, Note_on_c, 12, 54, 0
13, 230400, Note_on_c, 12, 59, 65
13, 230640, Note_on_c, 12, 59, 0
13, 230880, Note_on_c, 12, 59, 63
13, 231120, Note_on_c, 12, 59, 0
13, 231360, Note_on_c, 12, 59, 71
13, 231480, Note_on_c, 12, 59, 0
13, 231600, Note_on_c, 12, 59, 59
13, 231720, Note_on_c, 12, 59, 0
13, 231840, Note_on_c, 12, 61, 65
13, 231960, Note_on_c, 12, 61, 0
13, 232080, Note_on_c, 12, 49, 43
13, 232200, Note_on_c, 12, 49, 0
13, 232320, Note_on_c, 12, 54, 61
13, 232440, Note_on_c, 12, 54, 0
13, 232560, Note_on_c, 12, 49, 59
13, 232680, Note_on_c, 12, 49, 0
13, 232800, Note_on_c, 12, 54, 62
13, 233040, Note_on_c, 12, 54, 0
13, 233760, Note_on_c, 12, 54, 50
13, 234000, Note_on_c, 12, 54, 0
13, 234720, Note_on_c, 12, 54, 35
13, 234960, Note_on_c, 12, 54, 0
13, 235200, Note_on_c, 12, 54, 44
13, 235440, Note_on_c, 12, 54, 0
13, 235680, Note_on_c, 12, 59, 43
13, 235920, Note_on_c, 12, 59, 0
13, 236160, Note_on_c, 12, 59, 53
13, 236400, Note_on_c, 12, 59, 0
13, 236640, Note_on_c, 12, 55, 43
13, 236880, Note_on_c, 12, 55, 0
13, 237120, Note_on_c, 12, 55, 44
13, 237360, Note_on_c, 12, 55, 0
13, 238800, Note_on_c, 12, 53, 57
13, 238920, Note_on_c, 12, 53, 0
13, 239040, Note_on_c, 12, 50, 50
13, 239160, Note_on_c, 12, 50, 0
13, 239280, Note_on_c, 12, 47, 49
13, 239400, Note_on_c, 12, 47, 0
13, 239520, Note_on_c, 12, 43, 51
13, 240960, Note_on_c, 12, 43, 0
13, 241440, Note_on_c, 12, 48, 99
13, 241560, Note_on_c, 12, 48, 0
13, 241560, Note_on_c, 12, 60, 86
13, 241680, Note_on_c, 12, 60, 0
13, 241680, Note_on_c, 12, 60, 93
13, 241800, Note_on_c, 12, 60, 0
13, 241800, Note_on_c, 12, 60, 90
13, 241920, Note_on_c, 12, 60, 0
13, 241920, Note_on_c, 12, 48, 104
13, 242040, Note_on_c, 12, 48, 0
13, 242040, Note_on_c, 12, 60, 93
13, 242160, Note_on_c, 12, 60, 0
13, 242160, Note_on_c, 12, 60, 94
13, 242280, Note_on_c, 12, 60, 0
13, 242280, Note_on_c, 12, 60, 93
13, 242400, Note_on_c, 12, 60, 0
13, 242400, Note_on_c, 12, 48, 105
13, 242520, Note_on_c, 12, 48, 0
13, 242520, Note_on_c, 12, 60, 98
13, 242640, Note_on_c, 12, 60, 0
13, 242640, Note_on_c, 12, 48, 104
13, 242760, Note_on_c, 12, 48, 0
13, 242760, Note_on_c, 12, 48, 104
13, 242880, Note_on_c, 12, 48, 0
13, 242880, Note_on_c, 12, 47, 99
13, 242940, Note_on_c, 12, 47, 0
13, 243000, Note_on_c, 12, 52, 98
13, 243000, Note_on_c, 12, 47, 70
13, 243060, Note_on_c, 12, 47, 0
13, 243060, Note_on_c, 12, 52, 0
13, 243120, Note_on_c, 12, 48, 95
13, 243180, Note_on_c, 12, 48, 0
13, 243240, Note_on_c, 12, 50, 99
13, 243300, Note_on_c, 12, 50, 0
13, 243360, Note_on_c, 12, 43, 95
13, 243420, Note_on_c, 12, 43, 0
13, 243480, Note_on_c, 12, 52, 99
13, 243540, Note_on_c, 12, 52, 0
13, 243600, Note_on_c, 12, 48, 99
13, 243660, Note_on_c, 12, 48, 0
13, 243720, Note_on_c, 12, 50, 104
13, 243780, Note_on_c, 12, 50, 0
13, 243840, Note_on_c, 12, 43, 99
13, 243900, Note_on_c, 12, 43, 0
13, 243960, Note_on_c, 12, 55, 90
13, 244020, Note_on_c, 12, 55, 0
13, 244080, Note_on_c, 12, 43, 101
13, 244140, Note_on_c, 12, 43, 0
13, 244320, Note_on_c, 12, 43, 94
13, 244560, Note_on_c, 12, 43, 0
13, 244560, Note_on_c, 12, 43, 94
13, 244800, Note_on_c, 12, 43, 0
13, 244800, Note_on_c, 12, 43, 119
13, 244860, Note_on_c, 12, 43, 0
13, 244860, Note_on_c, 12, 42, 95
13, 244920, Note_on_c, 12, 42, 0
13, 244920, Note_on_c, 12, 43, 98
13, 244980, Note_on_c, 12, 43, 0
13, 244980, Note_on_c, 12, 42, 86
13, 245040, Note_on_c, 12, 42, 0
13, 245040, Note_on_c, 12, 43, 99
13, 245160, Note_on_c, 12, 43, 0
13, 245280, Note_on_c, 12, 43, 94
13, 245520, Note_on_c, 12, 43, 0
13, 245520, Note_on_c, 12, 43, 99
13, 245760, Note_on_c, 12, 43, 0
13, 245760, Note_on_c, 12, 43, 119
13, 245820, Note_on_c, 12, 43, 0
13, 245820, Note_on_c, 12, 42, 95
13, 245880, Note_on_c, 12, 42, 0
13, 245880, Note_on_c, 12, 43, 95
13, 245940, Note_on_c, 12, 43, 0
13, 245940, Note_on_c, 12, 42, 94
13, 246000, Note_on_c, 12, 42, 0
13, 246000, Note_on_c, 12, 43, 98
13, 246360, Note_on_c, 12, 43, 0
13, 246360, Note_on_c, 12, 44, 119
13, 246480, Note_on_c, 12, 44, 0
13, 246480, Note_on_c, 12, 43, 94
13, 246840, Note_on_c, 12, 43, 0
13, 246840, Note_on_c, 12, 44, 117
13, 246960, Note_on_c, 12, 44, 0
13, 246960, Note_on_c, 12, 43, 95
13, 247320, Note_on_c, 12, 43, 0
13, 247320, Note_on_c, 12, 44, 98
13, 247440, Note_on_c, 12, 44, 0
13, 247440, Note_on_c, 12, 47, 93
13, 247500, Note_on_c, 12, 47, 0
13, 247560, Note_on_c, 12, 41, 93
13, 247620, Note_on_c, 12, 41, 0
13, 247680, Note_on_c, 12, 43, 94
13, 247740, Note_on_c, 12, 43, 0
13, 247800, Note_on_c, 12, 43, 90
13, 247860, Note_on_c, 12, 43, 0
13, 247920, Note_on_c, 12, 55, 90
13, 247980, Note_on_c, 12, 55, 0
13, 248040, Note_on_c, 12, 55, 95
13, 248100, Note_on_c, 12, 55, 0
13, 248160, Note_on_c, 12, 48, 99
13, 248400, Note_on_c, 12, 48, 0
13, 248640, Note_on_c, 12, 55, 95
13, 248880, Note_on_c, 12, 55, 0
13, 249120, Note_on_c, 12, 60, 125
13, 249180, Note_on_c, 12, 60, 0
13, 249180, Note_on_c, 12, 59, 117
13, 249240, Note_on_c, 12, 59, 0
13, 249240, Note_on_c, 12, 57, 119
13, 249300, Note_on_c, 12, 57, 0
13, 249300, Note_on_c, 12, 55, 123
13, 249360, Note_on_c, 12, 55, 0
13, 249360, Note_on_c, 12, 53, 119
13, 249420, Note_on_c, 12, 53, 0
13, 249420, Note_on_c, 12, 52, 119
13, 249480, Note_on_c, 12, 52, 0
13, 249480, Note_on_c, 12, 50, 119
13, 249540, Note_on_c, 12, 50, 0
13, 249540, Note_on_c, 12, 48, 110
13, 249600, Note_on_c, 12, 48, 0
13, 249600, Note_on_c, 12, 43, 119
13, 249660, Note_on_c, 12, 43, 0
13, 249720, Note_on_c, 12, 55, 125
13, 249780, Note_on_c, 12, 55, 0
13, 249840, Note_on_c, 12, 55, 125
13, 249900, Note_on_c, 12, 55, 0
13, 249960, Note_on_c, 12, 55, 127
13, 250020, Note_on_c, 12, 55, 0
13, 250080, Note_on_c, 12, 48, 127
13, 250140, Note_on_c, 12, 48, 0
13, 250200, Note_on_c, 12, 43, 125
13, 250260, Note_on_c, 12, 43, 0
13, 250320, Note_on_c, 12, 48, 127
13, 250380, Note_on_c, 12, 48, 0
13, 250440, Note_on_c, 12, 43, 127
13, 250500, Note_on_c, 12, 43, 0
13, 250560, Note_on_c, 12, 48, 127
13, 250800, Note_on_c, 12, 48, 0
13, 254880, Note_on_c, 12, 48, 51
13, 255120, Note_on_c, 12, 48, 0
13, 255360, Note_on_c, 12, 53, 68
13, 255600, Note_on_c, 12, 53, 0
13, 255840, Note_on_c, 12, 50, 71
13, 256080, Note_on_c, 12, 50, 0
13, 256320, Note_on_c, 12, 55, 61
13, 256560, Note_on_c, 12, 55, 0
13, 258720, Note_on_c, 12, 48, 73
13, 258960, Note_on_c, 12, 48, 0
13, 259200, Note_on_c, 12, 53, 64
13, 259440, Note_on_c, 12, 53, 0
13, 259680, Note_on_c, 12, 50, 50
13, 259920, Note_on_c, 12, 50, 0
13, 260160, Note_on_c, 12, 55, 65
13, 260400, Note_on_c, 12, 55, 0
13, 262080, Note_on_c, 12, 48, 69
13, 262200, Note_on_c, 12, 48, 0
13, 264000, Note_on_c, 12, 60, 73
13, 264060, Note_on_c, 12, 60, 0
13, 264120, Note_on_c, 12, 62, 67
13, 264180, Note_on_c, 12, 62, 0
13, 264240, Note_on_c, 12, 60, 73
13, 264300, Note_on_c, 12, 60, 0
13, 264360, Note_on_c, 12, 62, 74
13, 264420, Note_on_c, 12, 62, 0
13, 264480, Note_on_c, 12, 60, 84
13, 264540, Note_on_c, 12, 60, 0
13, 264600, Note_on_c, 12, 62, 78
13, 264660, Note_on_c, 12, 62, 0
13, 264720, Note_on_c, 12, 60, 81
13, 264780, Note_on_c, 12, 60, 0
13, 264840, Note_on_c, 12, 56, 80
13, 264900, Note_on_c, 12, 56, 0
13, 264960, Note_on_c, 12, 57, 63
13, 265080, Note_on_c, 12, 57, 0
13, 265920, Note_on_c, 12, 48, 69
13, 266040, Note_on_c, 12, 48, 0
13, 267840, Note_on_c, 12, 60, 73
13, 267900, Note_on_c, 12, 60, 0
13, 267960, Note_on_c, 12, 62, 67
13, 268020, Note_on_c, 12, 62, 0
13, 268080, Note_on_c, 12, 60, 73
13, 268140, Note_on_c, 12, 60, 0
13, 268200, Note_on_c, 12, 62, 74
13, 268260, Note_on_c, 12, 62, 0
13, 268320, Note_on_c, 12, 60, 84
13, 268380, Note_on_c, 12, 60, 0
13, 268440, Note_on_c, 12, 62, 78
13, 268500, Note_on_c, 12, 62, 0
13, 268560, Note_on_c, 12, 60, 81
13, 268620, Note_on_c, 12, 60, 0
13, 268680, Note_on_c, 12, 56, 80
13, 268740, Note_on_c, 12, 56, 0
13, 268800, Note_on_c, 12, 57, 89
13, 268860, Note_on_c, 12, 57, 0
13, 269280, Program_c, 12, 45
13, 269760, Note_on_c, 12, 48, 65
13, 270000, Note_on_c, 12, 48, 0
13, 270720, Note_on_c, 12, 43, 53
13, 270960, Note_on_c, 12, 43, 0
13, 271200, Note_on_c, 12, 45, 63
13, 271440, Note_on_c, 12, 45, 0
13, 271440, Note_on_c, 12, 47, 71
13, 271680, Note_on_c, 12, 47, 0
13, 271680, Note_on_c, 12, 48, 46
13, 271920, Note_on_c, 12, 48, 0
13, 272640, Note_on_c, 12, 43, 65
13, 272880, Note_on_c, 12, 43, 0
13, 273120, Note_on_c, 12, 45, 68
13, 273360, Note_on_c, 12, 45, 0
13, 273360, Note_on_c, 12, 47, 63
13, 273600, Note_on_c, 12, 47, 0
13, 273600, Note_on_c, 12, 48, 53
13, 273840, Note_on_c, 12, 48, 0
13, 274080, Note_on_c, 12, 43, 46
13, 274200, Note_on_c, 12, 43, 0
13, 274200, Note_on_c, 12, 43, 55
13, 274320, Note_on_c, 12, 43, 0
13, 274320, Note_on_c, 12, 45, 60
13, 274440, Note_on_c, 12, 45, 0
13, 274440, Note_on_c, 12, 47, 48
13, 274560, Note_on_c, 12, 47, 0
13, 274560, Note_on_c, 12, 48, 33
13, 274800, Note_on_c, 12, 48, 0
13, 275040, Note_on_c, 12, 43, 38
13, 275160, Note_on_c, 12, 43, 0
13, 275160, Note_on_c, 12, 43, 46
13, 275280, Note_on_c, 12, 43, 0
13, 275280, Note_on_c, 12, 45, 57
13, 275400, Note_on_c, 12, 45, 0
13, 275400, Note_on_c, 12, 47, 40
13, 275520, Note_on_c, 12, 47, 0
13, 275520, Note_on_c, 12, 48, 33
13, 275760, Note_on_c, 12, 48, 0
13, 277440, Program_c, 12, 48
13, 277920, Note_on_c, 12, 55, 49
13, 278880, Note_on_c, 12, 55, 0
13, 280440, Note_on_c, 12, 60, 45
13, 281160, Note_on_c, 12, 60, 0
13, 282600, Note_on_c, 12, 48, 104
13, 282660, Note_on_c, 12, 48, 0
13, 282660, Note_on_c, 12, 48, 104
13, 282720, Note_on_c, 12, 48, 0
13, 282720, Note_on_c, 12, 43, 99
13, 282780, Note_on_c, 12, 43, 0
13, 282780, Note_on_c, 12, 43, 99
13, 282840, Note_on_c, 12, 43, 0
13, 282840, Note_on_c, 12, 43, 99
13, 282900, Note_on_c, 12, 43, 0
13, 282900, Note_on_c, 12, 43, 101
13, 282960, Note_on_c, 12, 43, 0
13, 282960, Note_on_c, 12, 43, 101
13, 283020, Note_on_c, 12, 43, 0
13, 283020, Note_on_c, 12, 43, 99
13, 283080, Note_on_c, 12, 43, 0
13, 283080, Note_on_c, 12, 43, 101
13, 283140, Note_on_c, 12, 43, 0
13, 283140, Note_on_c, 12, 43, 99
13, 283200, Note_on_c, 12, 43, 0
13, 283200, Note_on_c, 12, 43, 104
13, 283260, Note_on_c, 12, 43, 0
13, 283260, Note_on_c, 12, 43, 99
13, 283320, Note_on_c, 12, 43, 0
13, 283320, Note_on_c, 12, 43, 98
13, 283380, Note_on_c, 12, 43, 0
13, 283380, Note_on_c, 12, 43, 98
13, 283440, Note_on_c, 12, 43, 0
13, 283440, Note_on_c, 12, 43, 101
13, 283500, Note_on_c, 12, 43, 0
13, 283500, Note_on_c, 12, 43, 99
13, 283560, Note_on_c, 12, 43, 0
13, 283560, Note_on_c, 12, 43, 99
13, 283620, Note_on_c, 12, 43, 0
13, 283620, Note_on_c, 12, 43, 99
13, 283680, Note_on_c, 12, 43, 0
13, 283680, Note_on_c, 12, 48, 104
13, 283740, Note_on_c, 12, 48, 0
13, 283740, Note_on_c, 12, 48, 99
13, 283800, Note_on_c, 12, 48, 0
13, 283800, Note_on_c, 12, 55, 99
13, 283860, Note_on_c, 12, 55, 0
13, 283860, Note_on_c, 12, 55, 94
13, 283920, Note_on_c, 12, 55, 0
13, 283920, Note_on_c, 12, 60, 99
13, 283980, Note_on_c, 12, 60, 0
13, 283980, Note_on_c, 12, 60, 99
13, 284040, Note_on_c, 12, 60, 0
13, 284040, Note_on_c, 12, 55, 98
13, 284100, Note_on_c, 12, 55, 0
13, 284100, Note_on_c, 12, 55, 99
13, 284160, Note_on_c, 12, 55, 0
13, 284160, Note_on_c, 12, 60, 99
13, 284220, Note_on_c, 12, 60, 0
13, 284220, Note_on_c, 12, 60, 99
13, 284280, Note_on_c, 12, 60, 0
13, 284280, Note_on_c, 12, 55, 99
13, 284340, Note_on_c, 12, 55, 0
13, 284340, Note_on_c, 12, 55, 99
13, 284400, Note_on_c, 12, 55, 0
13, 284400, Note_on_c, 12, 60, 99
13, 284460, Note_on_c, 12, 60, 0
13, 284460, Note_on_c, 12, 60, 99
13, 284520, Note_on_c, 12, 60, 0
13, 284520, Note_on_c, 12, 55, 98
13, 284580, Note_on_c, 12, 55, 0
13, 284580, Note_on_c, 12, 55, 99
13, 284640, Note_on_c, 12, 55, 0
13, 284640, Note_on_c, 12, 60, 104
13, 284880, Note_on_c, 12, 60, 0
13, 284880, Note_on_c, 12, 48, 104
13, 285120, Note_on_c, 12, 48, 0
13, 285120, Note_on_c, 12, 48, 110
13, 285360, Note_on_c, 12, 48, 0
13, 285360, End_track
14, 0, Start_track
14, 0, MIDI_port, 0
14, 0, Title_t, "Contrabasses"
14, 0, Program_c, 13, 48
14, 0, Control_c, 13, 7, 100
14, 0, Control_c, 13, 10, 110
14, 0, Control_c, 13, 93, 0
14, 0, Control_c, 13, 91, 66
14, 10080, Note_on_c, 13, 36, 99
14, 10200, Note_on_c, 13, 36, 0
14, 10200, Note_on_c, 13, 48, 86
14, 10320, Note_on_c, 13, 48, 0
14, 10320, Note_on_c, 13, 48, 93
14, 10440, Note_on_c, 13, 48, 0
14, 10440, Note_on_c, 13, 48, 90
14, 10560, Note_on_c, 13, 48, 0
14, 10560, Note_on_c, 13, 36, 104
14, 10680, Note_on_c, 13, 36, 0
14, 10680, Note_on_c, 13, 48, 93
14, 10800, Note_on_c, 13, 48, 0
14, 10800, Note_on_c, 13, 48, 94
14, 10920, Note_on_c, 13, 48, 0
14, 10920, Note_on_c, 13, 48, 93
14, 11040, Note_on_c, 13, 48, 0
14, 11040, Note_on_c, 13, 36, 105
14, 11160, Note_on_c, 13, 36, 0
14, 11160, Note_on_c, 13, 48, 98
14, 11280, Note_on_c, 13, 48, 0
14, 11280, Note_on_c, 13, 36, 104
14, 11400, Note_on_c, 13, 36, 0
14, 11400, Note_on_c, 13, 36, 104
14, 11520, Note_on_c, 13, 36, 0
14, 11520, Note_on_c, 13, 35, 99
14, 11580, Note_on_c, 13, 35, 0
14, 11640, Note_on_c, 13, 40, 98
14, 11640, Note_on_c, 13, 35, 70
14, 11700, Note_on_c, 13, 35, 0
14, 11700, Note_on_c, 13, 40, 0
14, 11760, Note_on_c, 13, 36, 95
14, 11820, Note_on_c, 13, 36, 0
14, 11880, Note_on_c, 13, 38, 99
14, 11940, Note_on_c, 13, 38, 0
14, 12000, Note_on_c, 13, 31, 95
14, 12060, Note_on_c, 13, 31, 0
14, 12120, Note_on_c, 13, 40, 99
14, 12180, Note_on_c, 13, 40, 0
14, 12240, Note_on_c, 13, 36, 99
14, 12300, Note_on_c, 13, 36, 0
14, 12360, Note_on_c, 13, 38, 104
14, 12420, Note_on_c, 13, 38, 0
14, 12480, Note_on_c, 13, 19, 99
14, 12540, Note_on_c, 13, 19, 0
14, 12600, Note_on_c, 13, 31, 90
14, 12660, Note_on_c, 13, 31, 0
14, 12720, Note_on_c, 13, 19, 101
14, 12780, Note_on_c, 13, 19, 0
14, 12960, Note_on_c, 13, 31, 94
14, 13200, Note_on_c, 13, 31, 0
14, 13200, Note_on_c, 13, 31, 94
14, 13440, Note_on_c, 13, 31, 0
14, 13440, Note_on_c, 13, 31, 119
14, 13500, Note_on_c, 13, 31, 0
14, 13500, Note_on_c, 13, 30, 95
14, 13560, Note_on_c, 13, 30, 0
14, 13560, Note_on_c, 13, 31, 98
14, 13620, Note_on_c, 13, 31, 0
14, 13620, Note_on_c, 13, 30, 86
14, 13680, Note_on_c, 13, 30, 0
14, 13680, Note_on_c, 13, 31, 99
14, 13800, Note_on_c, 13, 31, 0
14, 13920, Note_on_c, 13, 31, 94
14, 14160, Note_on_c, 13, 31, 0
14, 14160, Note_on_c, 13, 31, 99
14, 14400, Note_on_c, 13, 31, 0
14, 14400, Note_on_c, 13, 31, 119
14, 14460, Note_on_c, 13, 31, 0
14, 14460, Note_on_c, 13, 30, 95
14, 14520, Note_on_c, 13, 30, 0
14, 14520, Note_on_c, 13, 31, 95
14, 14580, Note_on_c, 13, 31, 0
14, 14580, Note_on_c, 13, 30, 94
14, 14640, Note_on_c, 13, 30, 0
14, 14640, Note_on_c, 13, 31, 98
14, 15000, Note_on_c, 13, 31, 0
14, 15000, Note_on_c, 13, 32, 119
14, 15120, Note_on_c, 13, 32, 0
14, 15120, Note_on_c, 13, 31, 94
14, 15480, Note_on_c, 13, 31, 0
14, 15480, Note_on_c, 13, 32, 117
14, 15600, Note_on_c, 13, 32, 0
14, 15600, Note_on_c, 13, 31, 95
14, 15960, Note_on_c, 13, 31, 0
14, 15960, Note_on_c, 13, 32, 98
14, 16080, Note_on_c, 13, 32, 0
14, 16080, Note_on_c, 13, 35, 93
14, 16140, Note_on_c, 13, 35, 0
14, 16200, Note_on_c, 13, 29, 93
14, 16260, Note_on_c, 13, 29, 0
14, 16320, Note_on_c, 13, 31, 94
14, 16380, Note_on_c, 13, 31, 0
14, 16440, Note_on_c, 13, 31, 90
14, 16500, Note_on_c, 13, 31, 0
14, 16560, Note_on_c, 13, 43, 90
14, 16620, Note_on_c, 13, 43, 0
14, 16680, Note_on_c, 13, 43, 95
14, 16740, Note_on_c, 13, 43, 0
14, 16800, Note_on_c, 13, 36, 104
14, 17040, Note_on_c, 13, 36, 0
14, 17280, Note_on_c, 13, 43, 99
14, 17520, Note_on_c, 13, 43, 0
14, 17760, Note_on_c, 13, 48, 125
14, 17820, Note_on_c, 13, 48, 0
14, 17820, Note_on_c, 13, 47, 117
14, 17880, Note_on_c, 13, 47, 0
14, 17880, Note_on_c, 13, 45, 119
14, 17940, Note_on_c, 13, 45, 0
14, 17940, Note_on_c, 13, 43, 123
14, 18000, Note_on_c, 13, 43, 0
14, 18000, Note_on_c, 13, 41, 119
14, 18060, Note_on_c, 13, 41, 0
14, 18060, Note_on_c, 13, 40, 119
14, 18120, Note_on_c, 13, 40, 0
14, 18120, Note_on_c, 13, 38, 119
14, 18180, Note_on_c, 13, 38, 0
14, 18180, Note_on_c, 13, 36, 110
14, 18240, Note_on_c, 13, 36, 0
14, 18240, Note_on_c, 13, 31, 119
14, 18300, Note_on_c, 13, 31, 0
14, 18360, Note_on_c, 13, 43, 125
14, 18420, Note_on_c, 13, 43, 0
14, 18480, Note_on_c, 13, 43, 125
14, 18540, Note_on_c, 13, 43, 0
14, 18600, Note_on_c, 13, 43, 127
14, 18660, Note_on_c, 13, 43, 0
14, 18720, Note_on_c, 13, 36, 127
14, 18780, Note_on_c, 13, 36, 0
14, 18840, Note_on_c, 13, 31, 125
14, 18900, Note_on_c, 13, 31, 0
14, 18960, Note_on_c, 13, 36, 127
14, 19020, Note_on_c, 13, 36, 0
14, 19080, Note_on_c, 13, 31, 127
14, 19140, Note_on_c, 13, 31, 0
14, 19200, Note_on_c, 13, 36, 127
14, 19440, Note_on_c, 13, 36, 0
14, 21600, Note_on_c, 13, 31, 81
14, 21960, Note_on_c, 13, 31, 0
14, 21960, Note_on_c, 13, 33, 93
14, 22020, Note_on_c, 13, 33, 0
14, 22020, Note_on_c, 13, 35, 90
14, 22080, Note_on_c, 13, 35, 0
14, 22080, Note_on_c, 13, 36, 90
14, 22140, Note_on_c, 13, 36, 0
14, 23520, Note_on_c, 13, 40, 74
14, 23880, Note_on_c, 13, 40, 0
14, 23880, Note_on_c, 13, 42, 69
14, 23940, Note_on_c, 13, 42, 0
14, 23940, Note_on_c, 13, 44, 73
14, 24000, Note_on_c, 13, 44, 0
14, 24000, Note_on_c, 13, 45, 84
14, 24060, Note_on_c, 13, 45, 0
14, 25920, Note_on_c, 13, 38, 72
14, 26880, Note_on_c, 13, 38, 0
14, 26880, Note_on_c, 13, 43, 68
14, 27000, Note_on_c, 13, 43, 0
14, 27840, Note_on_c, 13, 49, 63
14, 28320, Note_on_c, 13, 49, 0
14, 28320, Note_on_c, 13, 45, 56
14, 28800, Note_on_c, 13, 45, 0
14, 28800, Note_on_c, 13, 50, 59
14, 29040, Note_on_c, 13, 50, 0
14, 29760, Note_on_c, 13, 38, 74
14, 30000, Note_on_c, 13, 38, 0
14, 30600, Note_on_c, 13, 38, 80
14, 30720, Note_on_c, 13, 38, 0
14, 30720, Note_on_c, 13, 38, 86
14, 30960, Note_on_c, 13, 38, 0
14, 30960, Note_on_c, 13, 50, 56
14, 31200, Note_on_c, 13, 50, 0
14, 31200, Note_on_c, 13, 50, 86
14, 31440, Note_on_c, 13, 50, 0
14, 31680, Note_on_c, 13, 43, 81
14, 32040, Note_on_c, 13, 43, 0
14, 32040, Note_on_c, 13, 38, 105
14, 32160, Note_on_c, 13, 38, 0
14, 32160, Note_on_c, 13, 45, 85
14, 32520, Note_on_c, 13, 45, 0
14, 32520, Note_on_c, 13, 38, 104
14, 32640, Note_on_c, 13, 38, 0
14, 32640, Note_on_c, 13, 43, 81
14, 33000, Note_on_c, 13, 43, 0
14, 33000, Note_on_c, 13, 38, 105
14, 33120, Note_on_c, 13, 38, 0
14, 33120, Note_on_c, 13, 45, 81
14, 33360, Note_on_c, 13, 45, 0
14, 33600, Note_on_c, 13, 42, 64
14, 33720, Note_on_c, 13, 42, 0
14, 33720, Note_on_c, 13, 40, 80
14, 33840, Note_on_c, 13, 40, 0
14, 33840, Note_on_c, 13, 42, 59
14, 33960, Note_on_c, 13, 42, 0
14, 33960, Note_on_c, 13, 38, 57
14, 34080, Note_on_c, 13, 38, 0
14, 34080, Note_on_c, 13, 43, 61
14, 34200, Note_on_c, 13, 43, 0
14, 34200, Note_on_c, 13, 42, 73
14, 34320, Note_on_c, 13, 42, 0
14, 34320, Note_on_c, 13, 43, 80
14, 34440, Note_on_c, 13, 43, 0
14, 34440, Note_on_c, 13, 47, 68
14, 34560, Note_on_c, 13, 47, 0
14, 34560, Note_on_c, 13, 48, 64
14, 34680, Note_on_c, 13, 48, 0
14, 34680, Note_on_c, 13, 47, 57
14, 34800, Note_on_c, 13, 47, 0
14, 34800, Note_on_c, 13, 48, 72
14, 34920, Note_on_c, 13, 48, 0
14, 34920, Note_on_c, 13, 49, 73
14, 35040, Note_on_c, 13, 49, 0
14, 35040, Note_on_c, 13, 50, 76
14, 35280, Note_on_c, 13, 50, 0
14, 35520, Note_on_c, 13, 43, 56
14, 35760, Note_on_c, 13, 43, 0
14, 35880, Note_on_c, 13, 38, 45
14, 35940, Note_on_c, 13, 38, 0
14, 36000, Note_on_c, 13, 45, 73
14, 36240, Note_on_c, 13, 45, 0
14, 36360, Note_on_c, 13, 45, 76
14, 36420, Note_on_c, 13, 45, 0
14, 36480, Note_on_c, 13, 43, 49
14, 36720, Note_on_c, 13, 43, 0
14, 36840, Note_on_c, 13, 38, 81
14, 36900, Note_on_c, 13, 38, 0
14, 36960, Note_on_c, 13, 45, 74
14, 37200, Note_on_c, 13, 45, 0
14, 51840, Note_on_c, 13, 35, 81
14, 51960, Note_on_c, 13, 35, 0
14, 52560, Note_on_c, 13, 31, 77
14, 52680, Note_on_c, 13, 31, 0
14, 52800, Note_on_c, 13, 36, 76
14, 52920, Note_on_c, 13, 36, 0
14, 53520, Note_on_c, 13, 33, 81
14, 53640, Note_on_c, 13, 33, 0
14, 53760, Note_on_c, 13, 38, 73
14, 53880, Note_on_c, 13, 38, 0
14, 54240, Note_on_c, 13, 38, 81
14, 54360, Note_on_c, 13, 38, 0
14, 54720, Note_on_c, 13, 35, 84
14, 54840, Note_on_c, 13, 35, 0
14, 55440, Note_on_c, 13, 31, 82
14, 55560, Note_on_c, 13, 31, 0
14, 55680, Note_on_c, 13, 36, 82
14, 55800, Note_on_c, 13, 36, 0
14, 56400, Note_on_c, 13, 33, 76
14, 56520, Note_on_c, 13, 33, 0
14, 56640, Note_on_c, 13, 38, 80
14, 56760, Note_on_c, 13, 38, 0
14, 57120, Note_on_c, 13, 38, 86
14, 57240, Note_on_c, 13, 38, 0
14, 57600, Note_on_c, 13, 43, 74
14, 57720, Note_on_c, 13, 43, 0
14, 61440, Note_on_c, 13, 43, 93
14, 61800, Note_on_c, 13, 43, 0
14, 61800, Note_on_c, 13, 31, 94
14, 61920, Note_on_c, 13, 31, 0
14, 61920, Note_on_c, 13, 31, 93
14, 62040, Note_on_c, 13, 31, 0
14, 62040, Note_on_c, 13, 31, 90
14, 62160, Note_on_c, 13, 31, 0
14, 62160, Note_on_c, 13, 31, 93
14, 62280, Note_on_c, 13, 31, 0
14, 62280, Note_on_c, 13, 31, 89
14, 62400, Note_on_c, 13, 31, 0
14, 62400, Note_on_c, 13, 32, 80
14, 62760, Note_on_c, 13, 32, 0
14, 63720, Note_on_c, 13, 31, 95
14, 63840, Note_on_c, 13, 31, 0
14, 63840, Note_on_c, 13, 32, 89
14, 63960, Note_on_c, 13, 32, 0
14, 63960, Note_on_c, 13, 32, 94
14, 64080, Note_on_c, 13, 32, 0
14, 64080, Note_on_c, 13, 33, 99
14, 64200, Note_on_c, 13, 33, 0
14, 64200, Note_on_c, 13, 33, 99
14, 64320, Note_on_c, 13, 33, 0
14, 64320, Note_on_c, 13, 34, 89
14, 64680, Note_on_c, 13, 34, 0
14, 65640, Note_on_c, 13, 33, 110
14, 65760, Note_on_c, 13, 33, 0
14, 65760, Note_on_c, 13, 34, 94
14, 65880, Note_on_c, 13, 34, 0
14, 65880, Note_on_c, 13, 34, 93
14, 66000, Note_on_c, 13, 34, 0
14, 66000, Note_on_c, 13, 35, 98
14, 66120, Note_on_c, 13, 35, 0
14, 66120, Note_on_c, 13, 35, 98
14, 66240, Note_on_c, 13, 35, 0
14, 66240, Note_on_c, 13, 36, 98
14, 66600, Note_on_c, 13, 36, 0
14, 68160, Note_on_c, 13, 43, 58
14, 68400, Note_on_c, 13, 43, 0
14, 68640, Note_on_c, 13, 43, 58
14, 68880, Note_on_c, 13, 43, 0
14, 69120, Note_on_c, 13, 43, 58
14, 69360, Note_on_c, 13, 43, 0
14, 69600, Note_on_c, 13, 43, 58
14, 69840, Note_on_c, 13, 43, 0
14, 82560, Note_on_c, 13, 36, 99
14, 82680, Note_on_c, 13, 36, 0
14, 82680, Note_on_c, 13, 48, 86
14, 82800, Note_on_c, 13, 48, 0
14, 82800, Note_on_c, 13, 48, 93
14, 82920, Note_on_c, 13, 48, 0
14, 82920, Note_on_c, 13, 48, 90
14, 83040, Note_on_c, 13, 48, 0
14, 83040, Note_on_c, 13, 36, 104
14, 83160, Note_on_c, 13, 36, 0
14, 83160, Note_on_c, 13, 48, 93
14, 83280, Note_on_c, 13, 48, 0
14, 83280, Note_on_c, 13, 48, 94
14, 83400, Note_on_c, 13, 48, 0
14, 83400, Note_on_c, 13, 48, 93
14, 83520, Note_on_c, 13, 48, 0
14, 83520, Note_on_c, 13, 36, 105
14, 83640, Note_on_c, 13, 36, 0
14, 83640, Note_on_c, 13, 48, 98
14, 83760, Note_on_c, 13, 48, 0
14, 83760, Note_on_c, 13, 36, 104
14, 83880, Note_on_c, 13, 36, 0
14, 83880, Note_on_c, 13, 36, 104
14, 84000, Note_on_c, 13, 36, 0
14, 84000, Note_on_c, 13, 35, 99
14, 84060, Note_on_c, 13, 35, 0
14, 84120, Note_on_c, 13, 40, 98
14, 84120, Note_on_c, 13, 35, 70
14, 84180, Note_on_c, 13, 35, 0
14, 84180, Note_on_c, 13, 40, 0
14, 84240, Note_on_c, 13, 36, 95
14, 84300, Note_on_c, 13, 36, 0
14, 84360, Note_on_c, 13, 38, 99
14, 84420, Note_on_c, 13, 38, 0
14, 84480, Note_on_c, 13, 31, 95
14, 84540, Note_on_c, 13, 31, 0
14, 84600, Note_on_c, 13, 40, 99
14, 84660, Note_on_c, 13, 40, 0
14, 84720, Note_on_c, 13, 36, 99
14, 84780, Note_on_c, 13, 36, 0
14, 84840, Note_on_c, 13, 38, 104
14, 84900, Note_on_c, 13, 38, 0
14, 84960, Note_on_c, 13, 19, 99
14, 85020, Note_on_c, 13, 19, 0
14, 85080, Note_on_c, 13, 31, 90
14, 85140, Note_on_c, 13, 31, 0
14, 85200, Note_on_c, 13, 19, 101
14, 85260, Note_on_c, 13, 19, 0
14, 85440, Note_on_c, 13, 31, 94
14, 85680, Note_on_c, 13, 31, 0
14, 85680, Note_on_c, 13, 31, 94
14, 85920, Note_on_c, 13, 31, 0
14, 85920, Note_on_c, 13, 31, 119
14, 85980, Note_on_c, 13, 31, 0
14, 85980, Note_on_c, 13, 30, 95
14, 86040, Note_on_c, 13, 30, 0
14, 86040, Note_on_c, 13, 31, 98
14, 86100, Note_on_c, 13, 31, 0
14, 86100, Note_on_c, 13, 30, 86
14, 86160, Note_on_c, 13, 30, 0
14, 86160, Note_on_c, 13, 31, 99
14, 86280, Note_on_c, 13, 31, 0
14, 86400, Note_on_c, 13, 31, 94
14, 86640, Note_on_c, 13, 31, 0
14, 86640, Note_on_c, 13, 31, 99
14, 86880, Note_on_c, 13, 31, 0
14, 86880, Note_on_c, 13, 31, 119
14, 86940, Note_on_c, 13, 31, 0
14, 86940, Note_on_c, 13, 30, 95
14, 87000, Note_on_c, 13, 30, 0
14, 87000, Note_on_c, 13, 31, 95
14, 87060, Note_on_c, 13, 31, 0
14, 87060, Note_on_c, 13, 30, 94
14, 87120, Note_on_c, 13, 30, 0
14, 87120, Note_on_c, 13, 31, 98
14, 87480, Note_on_c, 13, 31, 0
14, 87480, Note_on_c, 13, 32, 119
14, 87600, Note_on_c, 13, 32, 0
14, 87600, Note_on_c, 13, 31, 94
14, 87960, Note_on_c, 13, 31, 0
14, 87960, Note_on_c, 13, 32, 117
14, 88080, Note_on_c, 13, 32, 0
14, 88080, Note_on_c, 13, 31, 95
14, 88440, Note_on_c, 13, 31, 0
14, 88440, Note_on_c, 13, 32, 98
14, 88560, Note_on_c, 13, 32, 0
14, 88560, Note_on_c, 13, 35, 93
14, 88620, Note_on_c, 13, 35, 0
14, 88680, Note_on_c, 13, 29, 93
14, 88740, Note_on_c, 13, 29, 0
14, 88800, Note_on_c, 13, 31, 94
14, 88860, Note_on_c, 13, 31, 0
14, 88920, Note_on_c, 13, 31, 90
14, 88980, Note_on_c, 13, 31, 0
14, 89040, Note_on_c, 13, 43, 90
14, 89100, Note_on_c, 13, 43, 0
14, 89160, Note_on_c, 13, 43, 95
14, 89220, Note_on_c, 13, 43, 0
14, 89280, Note_on_c, 13, 36, 104
14, 89520, Note_on_c, 13, 36, 0
14, 89760, Note_on_c, 13, 43, 99
14, 90000, Note_on_c, 13, 43, 0
14, 90240, Note_on_c, 13, 48, 125
14, 90300, Note_on_c, 13, 48, 0
14, 90300, Note_on_c, 13, 47, 117
14, 90360, Note_on_c, 13, 47, 0
14, 90360, Note_on_c, 13, 45, 119
14, 90420, Note_on_c, 13, 45, 0
14, 90420, Note_on_c, 13, 43, 123
14, 90480, Note_on_c, 13, 43, 0
14, 90480, Note_on_c, 13, 41, 119
14, 90540, Note_on_c, 13, 41, 0
14, 90540, Note_on_c, 13, 40, 119
14, 90600, Note_on_c, 13, 40, 0
14, 90600, Note_on_c, 13, 38, 119
14, 90660, Note_on_c, 13, 38, 0
14, 90660, Note_on_c, 13, 36, 110
14, 90720, Note_on_c, 13, 36, 0
14, 90720, Note_on_c, 13, 31, 119
14, 90780, Note_on_c, 13, 31, 0
14, 90840, Note_on_c, 13, 43, 125
14, 90900, Note_on_c, 13, 43, 0
14, 90960, Note_on_c, 13, 43, 125
14, 91020, Note_on_c, 13, 43, 0
14, 91080, Note_on_c, 13, 43, 127
14, 91140, Note_on_c, 13, 43, 0
14, 91200, Note_on_c, 13, 36, 127
14, 91260, Note_on_c, 13, 36, 0
14, 91320, Note_on_c, 13, 31, 125
14, 91380, Note_on_c, 13, 31, 0
14, 91440, Note_on_c, 13, 36, 127
14, 91500, Note_on_c, 13, 36, 0
14, 91560, Note_on_c, 13, 31, 127
14, 91620, Note_on_c, 13, 31, 0
14, 91680, Note_on_c, 13, 36, 127
14, 91920, Note_on_c, 13, 36, 0
14, 91920, Program_c, 13, 45
14, 92160, Note_on_c, 13, 45, 72
14, 92400, Note_on_c, 13, 45, 0
14, 92880, Note_on_c, 13, 40, 64
14, 93120, Note_on_c, 13, 40, 0
14, 93120, Note_on_c, 13, 33, 70
14, 93360, Note_on_c, 13, 33, 0
14, 93840, Note_on_c, 13, 40, 76
14, 94080, Note_on_c, 13, 40, 0
14, 94080, Note_on_c, 13, 33, 60
14, 94320, Note_on_c, 13, 33, 0
14, 94320, Note_on_c, 13, 48, 66
14, 94560, Note_on_c, 13, 48, 0
14, 94560, Note_on_c, 13, 47, 67
14, 94800, Note_on_c, 13, 47, 0
14, 94800, Note_on_c, 13, 46, 68
14, 95040, Note_on_c, 13, 46, 0
14, 95040, Note_on_c, 13, 47, 69
14, 95280, Note_on_c, 13, 47, 0
14, 95280, Note_on_c, 13, 35, 72
14, 95520, Note_on_c, 13, 35, 0
14, 95520, Note_on_c, 13, 40, 84
14, 95760, Note_on_c, 13, 40, 0
14, 95760, Program_c, 13, 48
14, 96000, Note_on_c, 13, 33, 54
14, 96120, Note_on_c, 13, 33, 0
14, 96240, Note_on_c, 13, 48, 45
14, 96360, Note_on_c, 13, 48, 0
14, 96480, Note_on_c, 13, 47, 61
14, 96600, Note_on_c, 13, 47, 0
14, 96720, Note_on_c, 13, 40, 65
14, 96840, Note_on_c, 13, 40, 0
14, 96960, Note_on_c, 13, 45, 71
14, 97080, Note_on_c, 13, 45, 0
14, 97200, Note_on_c, 13, 48, 48
14, 97320, Note_on_c, 13, 48, 0
14, 97440, Note_on_c, 13, 47, 67
14, 97560, Note_on_c, 13, 47, 0
14, 97680, Note_on_c, 13, 40, 61
14, 97800, Note_on_c, 13, 40, 0
14, 97920, Note_on_c, 13, 45, 68
14, 98040, Note_on_c, 13, 45, 0
14, 98160, Note_on_c, 13, 48, 43
14, 98280, Note_on_c, 13, 48, 0
14, 98400, Note_on_c, 13, 47, 58
14, 98520, Note_on_c, 13, 47, 0
14, 98640, Note_on_c, 13, 46, 45
14, 98760, Note_on_c, 13, 46, 0
14, 98880, Note_on_c, 13, 47, 62
14, 99000, Note_on_c, 13, 47, 0
14, 99120, Note_on_c, 13, 35, 61
14, 99240, Note_on_c, 13, 35, 0
14, 99360, Note_on_c, 13, 40, 53
14, 99600, Note_on_c, 13, 40, 0
14, 104160, Note_on_c, 13, 36, 77
14, 104280, Note_on_c, 13, 36, 0
14, 104640, Note_on_c, 13, 33, 57
14, 105120, Note_on_c, 13, 33, 0
14, 105120, Note_on_c, 13, 38, 74
14, 105240, Note_on_c, 13, 38, 0
14, 105600, Note_on_c, 13, 31, 58
14, 106080, Note_on_c, 13, 31, 0
14, 106080, Note_on_c, 13, 36, 73
14, 106200, Note_on_c, 13, 36, 0
14, 108960, Program_c, 13, 45
14, 108960, Note_on_c, 13, 45, 84
14, 109200, Note_on_c, 13, 45, 0
14, 109680, Note_on_c, 13, 40, 68
14, 109920, Note_on_c, 13, 40, 0
14, 109920, Note_on_c, 13, 33, 61
14, 110160, Note_on_c, 13, 33, 0
14, 110640, Note_on_c, 13, 40, 74
14, 110880, Note_on_c, 13, 40, 0
14, 110880, Note_on_c, 13, 33, 67
14, 111120, Note_on_c, 13, 33, 0
14, 112800, Note_on_c, 13, 45, 82
14, 113040, Note_on_c, 13, 45, 0
14, 113040, Note_on_c, 13, 48, 71
14, 113280, Note_on_c, 13, 48, 0
14, 113280, Note_on_c, 13, 50, 52
14, 113520, Note_on_c, 13, 50, 0
14, 113520, Note_on_c, 13, 47, 80
14, 113760, Note_on_c, 13, 47, 0
14, 113760, Note_on_c, 13, 52, 71
14, 114000, Note_on_c, 13, 52, 0
14, 114000, Note_on_c, 13, 40, 84
14, 114240, Note_on_c, 13, 40, 0
14, 114240, Note_on_c, 13, 45, 76
14, 114360, Note_on_c, 13, 45, 0
14, 118560, Program_c, 13, 48
14, 119040, Note_on_c, 13, 41, 59
14, 119280, Note_on_c, 13, 41, 0
14, 119520, Note_on_c, 13, 38, 69
14, 120000, Note_on_c, 13, 38, 0
14, 120000, Note_on_c, 13, 43, 70
14, 120120, Note_on_c, 13, 43, 0
14, 120480, Note_on_c, 13, 36, 59
14, 120960, Note_on_c, 13, 36, 0
14, 120960, Note_on_c, 13, 41, 49
14, 121080, Note_on_c, 13, 41, 0
14, 123960, Note_on_c, 13, 43, 43
14, 124080, Note_on_c, 13, 43, 0
14, 124080, Note_on_c, 13, 41, 62
14, 124200, Note_on_c, 13, 41, 0
14, 124200, Note_on_c, 13, 40, 68
14, 124320, Note_on_c, 13, 40, 0
14, 124320, Note_on_c, 13, 38, 74
14, 124440, Note_on_c, 13, 38, 0
14, 124440, Note_on_c, 13, 36, 98
14, 124560, Note_on_c, 13, 36, 0
14, 124560, Note_on_c, 13, 35, 94
14, 124680, Note_on_c, 13, 35, 0
14, 124680, Note_on_c, 13, 33, 99
14, 124800, Note_on_c, 13, 33, 0
14, 124800, Note_on_c, 13, 38, 45
14, 125040, Note_on_c, 13, 38, 0
14, 125040, Note_on_c, 13, 40, 58
14, 125280, Note_on_c, 13, 40, 0
14, 125280, Note_on_c, 13, 45, 43
14, 125520, Note_on_c, 13, 45, 0
14, 125760, Program_c, 13, 45
14, 126000, Note_on_c, 13, 40, 81
14, 126240, Note_on_c, 13, 40, 0
14, 126240, Note_on_c, 13, 33, 81
14, 126480, Note_on_c, 13, 33, 0
14, 126960, Note_on_c, 13, 40, 86
14, 127200, Note_on_c, 13, 40, 0
14, 127200, Note_on_c, 13, 33, 59
14, 127440, Note_on_c, 13, 33, 0
14, 127440, Note_on_c, 13, 43, 78
14, 127680, Note_on_c, 13, 43, 0
14, 127680, Note_on_c, 13, 41, 65
14, 127920, Note_on_c, 13, 41, 0
14, 127920, Note_on_c, 13, 40, 84
14, 128160, Note_on_c, 13, 40, 0
14, 128160, Note_on_c, 13, 38, 76
14, 128400, Note_on_c, 13, 38, 0
14, 128400, Note_on_c, 13, 41, 65
14, 128640, Note_on_c, 13, 41, 0
14, 128640, Note_on_c, 13, 40, 86
14, 128880, Note_on_c, 13, 40, 0
14, 128880, Note_on_c, 13, 40, 84
14, 129120, Note_on_c, 13, 40, 0
14, 129120, Note_on_c, 13, 33, 84
14, 129360, Note_on_c, 13, 33, 0
14, 129360, Note_on_c, 13, 43, 66
14, 129600, Note_on_c, 13, 43, 0
14, 129600, Note_on_c, 13, 41, 68
14, 129840, Note_on_c, 13, 41, 0
14, 129840, Note_on_c, 13, 40, 62
14, 130080, Note_on_c, 13, 40, 0
14, 130080, Note_on_c, 13, 38, 71
14, 130320, Note_on_c, 13, 38, 0
14, 130320, Note_on_c, 13, 41, 72
14, 130560, Note_on_c, 13, 41, 0
14, 130560, Note_on_c, 13, 40, 78
14, 130800, Note_on_c, 13, 40, 0
14, 130800, Note_on_c, 13, 40, 74
14, 131040, Note_on_c, 13, 40, 0
14, 131040, Program_c, 13, 48
14, 131040, Note_on_c, 13, 33, 105
14, 131400, Note_on_c, 13, 33, 0
14, 131400, Note_on_c, 13, 33, 104
14, 131520, Note_on_c, 13, 33, 0
14, 131520, Note_on_c, 13, 33, 104
14, 131640, Note_on_c, 13, 33, 0
14, 131640, Note_on_c, 13, 33, 104
14, 131760, Note_on_c, 13, 33, 0
14, 131760, Note_on_c, 13, 33, 101
14, 131880, Note_on_c, 13, 33, 0
14, 131880, Note_on_c, 13, 33, 99
14, 132000, Note_on_c, 13, 33, 0
14, 132000, Note_on_c, 13, 34, 99
14, 132360, Note_on_c, 13, 34, 0
14, 133320, Note_on_c, 13, 9, 112
14, 133440, Note_on_c, 13, 9, 0
14, 133440, Note_on_c, 13, 34, 84
14, 133560, Note_on_c, 13, 34, 0
14, 133560, Note_on_c, 13, 34, 80
14, 133680, Note_on_c, 13, 34, 0
14, 133680, Note_on_c, 13, 35, 94
14, 133800, Note_on_c, 13, 35, 0
14, 133800, Note_on_c, 13, 35, 86
14, 133920, Note_on_c, 13, 35, 0
14, 133920, Note_on_c, 13, 36, 89
14, 134280, Note_on_c, 13, 36, 0
14, 135240, Note_on_c, 13, 35, 99
14, 135360, Note_on_c, 13, 35, 0
14, 135360, Note_on_c, 13, 36, 89
14, 135480, Note_on_c, 13, 36, 0
14, 135480, Note_on_c, 13, 36, 86
14, 135600, Note_on_c, 13, 36, 0
14, 135600, Note_on_c, 13, 37, 86
14, 135720, Note_on_c, 13, 37, 0
14, 135720, Note_on_c, 13, 37, 90
14, 135840, Note_on_c, 13, 37, 0
14, 135840, Note_on_c, 13, 38, 101
14, 136200, Note_on_c, 13, 38, 0
14, 137760, Note_on_c, 13, 45, 60
14, 138000, Note_on_c, 13, 45, 0
14, 138240, Note_on_c, 13, 45, 57
14, 138480, Note_on_c, 13, 45, 0
14, 138720, Note_on_c, 13, 45, 53
14, 138960, Note_on_c, 13, 45, 0
14, 139680, Note_on_c, 13, 38, 56
14, 139920, Note_on_c, 13, 38, 0
14, 140640, Note_on_c, 13, 43, 59
14, 140880, Note_on_c, 13, 43, 0
14, 141600, Note_on_c, 13, 36, 59
14, 141840, Note_on_c, 13, 36, 0
14, 142560, Note_on_c, 13, 41, 44
14, 143280, Note_on_c, 13, 41, 0
14, 143280, Note_on_c, 13, 42, 43
14, 143520, Note_on_c, 13, 42, 0
14, 143520, Note_on_c, 13, 43, 69
14, 143640, Note_on_c, 13, 43, 0
14, 144480, Note_on_c, 13, 43, 73
14, 144720, Note_on_c, 13, 43, 0
14, 145440, Note_on_c, 13, 43, 68
14, 145680, Note_on_c, 13, 43, 0
14, 146400, Note_on_c, 13, 43, 73
14, 146640, Note_on_c, 13, 43, 0
14, 146880, Note_on_c, 13, 43, 68
14, 147120, Note_on_c, 13, 43, 0
14, 147360, Note_on_c, 13, 43, 73
14, 147600, Note_on_c, 13, 43, 0
14, 158880, Note_on_c, 13, 36, 99
14, 159000, Note_on_c, 13, 36, 0
14, 159000, Note_on_c, 13, 48, 86
14, 159120, Note_on_c, 13, 48, 0
14, 159120, Note_on_c, 13, 48, 93
14, 159240, Note_on_c, 13, 48, 0
14, 159240, Note_on_c, 13, 48, 90
14, 159360, Note_on_c, 13, 48, 0
14, 159360, Note_on_c, 13, 36, 104
14, 159480, Note_on_c, 13, 36, 0
14, 159480, Note_on_c, 13, 48, 93
14, 159600, Note_on_c, 13, 48, 0
14, 159600, Note_on_c, 13, 48, 94
14, 159720, Note_on_c, 13, 48, 0
14, 159720, Note_on_c, 13, 48, 93
14, 159840, Note_on_c, 13, 48, 0
14, 159840, Note_on_c, 13, 36, 105
14, 159960, Note_on_c, 13, 36, 0
14, 159960, Note_on_c, 13, 48, 98
14, 160080, Note_on_c, 13, 48, 0
14, 160080, Note_on_c, 13, 36, 104
14, 160200, Note_on_c, 13, 36, 0
14, 160200, Note_on_c, 13, 36, 104
14, 160320, Note_on_c, 13, 36, 0
14, 160320, Note_on_c, 13, 35, 99
14, 160380, Note_on_c, 13, 35, 0
14, 160440, Note_on_c, 13, 40, 98
14, 160440, Note_on_c, 13, 35, 70
14, 160500, Note_on_c, 13, 35, 0
14, 160500, Note_on_c, 13, 40, 0
14, 160560, Note_on_c, 13, 36, 95
14, 160620, Note_on_c, 13, 36, 0
14, 160680, Note_on_c, 13, 38, 99
14, 160740, Note_on_c, 13, 38, 0
14, 160800, Note_on_c, 13, 31, 95
14, 160860, Note_on_c, 13, 31, 0
14, 160920, Note_on_c, 13, 40, 99
14, 160980, Note_on_c, 13, 40, 0
14, 161040, Note_on_c, 13, 36, 99
14, 161100, Note_on_c, 13, 36, 0
14, 161160, Note_on_c, 13, 38, 104
14, 161220, Note_on_c, 13, 38, 0
14, 161280, Note_on_c, 13, 19, 99
14, 161340, Note_on_c, 13, 19, 0
14, 161400, Note_on_c, 13, 31, 90
14, 161460, Note_on_c, 13, 31, 0
14, 161520, Note_on_c, 13, 19, 101
14, 161580, Note_on_c, 13, 19, 0
14, 161760, Note_on_c, 13, 31, 94
14, 162000, Note_on_c, 13, 31, 0
14, 162000, Note_on_c, 13, 31, 94
14, 162240, Note_on_c, 13, 31, 0
14, 162240, Note_on_c, 13, 31, 119
14, 162300, Note_on_c, 13, 31, 0
14, 162300, Note_on_c, 13, 30, 95
14, 162360, Note_on_c, 13, 30, 0
14, 162360, Note_on_c, 13, 31, 98
14, 162420, Note_on_c, 13, 31, 0
14, 162420, Note_on_c, 13, 30, 86
14, 162480, Note_on_c, 13, 30, 0
14, 162480, Note_on_c, 13, 31, 99
14, 162600, Note_on_c, 13, 31, 0
14, 162720, Note_on_c, 13, 31, 94
14, 162960, Note_on_c, 13, 31, 0
14, 162960, Note_on_c, 13, 31, 99
14, 163200, Note_on_c, 13, 31, 0
14, 163200, Note_on_c, 13, 31, 119
14, 163260, Note_on_c, 13, 31, 0
14, 163260, Note_on_c, 13, 30, 95
14, 163320, Note_on_c, 13, 30, 0
14, 163320, Note_on_c, 13, 31, 95
14, 163380, Note_on_c, 13, 31, 0
14, 163380, Note_on_c, 13, 30, 94
14, 163440, Note_on_c, 13, 30, 0
14, 163440, Note_on_c, 13, 31, 98
14, 163800, Note_on_c, 13, 31, 0
14, 163800, Note_on_c, 13, 32, 119
14, 163920, Note_on_c, 13, 32, 0
14, 163920, Note_on_c, 13, 31, 94
14, 164280, Note_on_c, 13, 31, 0
14, 164280, Note_on_c, 13, 32, 117
14, 164400, Note_on_c, 13, 32, 0
14, 164400, Note_on_c, 13, 31, 95
14, 164760, Note_on_c, 13, 31, 0
14, 164760, Note_on_c, 13, 32, 98
14, 164880, Note_on_c, 13, 32, 0
14, 164880, Note_on_c, 13, 35, 93
14, 164940, Note_on_c, 13, 35, 0
14, 165000, Note_on_c, 13, 29, 93
14, 165060, Note_on_c, 13, 29, 0
14, 165120, Note_on_c, 13, 31, 94
14, 165180, Note_on_c, 13, 31, 0
14, 165240, Note_on_c, 13, 31, 90
14, 165300, Note_on_c, 13, 31, 0
14, 165360, Note_on_c, 13, 43, 90
14, 165420, Note_on_c, 13, 43, 0
14, 165480, Note_on_c, 13, 43, 95
14, 165540, Note_on_c, 13, 43, 0
14, 165600, Note_on_c, 13, 36, 104
14, 165840, Note_on_c, 13, 36, 0
14, 166080, Note_on_c, 13, 43, 99
14, 166320, Note_on_c, 13, 43, 0
14, 166560, Note_on_c, 13, 48, 125
14, 166620, Note_on_c, 13, 48, 0
14, 166620, Note_on_c, 13, 47, 117
14, 166680, Note_on_c, 13, 47, 0
14, 166680, Note_on_c, 13, 45, 119
14, 166740, Note_on_c, 13, 45, 0
14, 166740, Note_on_c, 13, 43, 123
14, 166800, Note_on_c, 13, 43, 0
14, 166800, Note_on_c, 13, 41, 119
14, 166860, Note_on_c, 13, 41, 0
14, 166860, Note_on_c, 13, 40, 119
14, 166920, Note_on_c, 13, 40, 0
14, 166920, Note_on_c, 13, 38, 119
14, 166980, Note_on_c, 13, 38, 0
14, 166980, Note_on_c, 13, 36, 110
14, 167040, Note_on_c, 13, 36, 0
14, 167040, Note_on_c, 13, 31, 119
14, 167100, Note_on_c, 13, 31, 0
14, 167160, Note_on_c, 13, 43, 125
14, 167220, Note_on_c, 13, 43, 0
14, 167280, Note_on_c, 13, 43, 125
14, 167340, Note_on_c, 13, 43, 0
14, 167400, Note_on_c, 13, 43, 127
14, 167460, Note_on_c, 13, 43, 0
14, 167520, Note_on_c, 13, 36, 127
14, 167580, Note_on_c, 13, 36, 0
14, 167640, Note_on_c, 13, 31, 125
14, 167700, Note_on_c, 13, 31, 0
14, 167760, Note_on_c, 13, 36, 127
14, 167820, Note_on_c, 13, 36, 0
14, 167880, Note_on_c, 13, 31, 127
14, 167940, Note_on_c, 13, 31, 0
14, 168000, Note_on_c, 13, 36, 127
14, 168240, Note_on_c, 13, 36, 0
14, 170400, Note_on_c, 13, 31, 81
14, 170760, Note_on_c, 13, 31, 0
14, 170760, Note_on_c, 13, 33, 93
14, 170820, Note_on_c, 13, 33, 0
14, 170820, Note_on_c, 13, 35, 90
14, 170880, Note_on_c, 13, 35, 0
14, 170880, Note_on_c, 13, 36, 90
14, 170940, Note_on_c, 13, 36, 0
14, 172320, Note_on_c, 13, 43, 76
14, 172680, Note_on_c, 13, 43, 0
14, 172680, Note_on_c, 13, 45, 76
14, 172740, Note_on_c, 13, 45, 0
14, 172740, Note_on_c, 13, 47, 74
14, 172800, Note_on_c, 13, 47, 0
14, 172800, Note_on_c, 13, 48, 76
14, 172860, Note_on_c, 13, 48, 0
14, 174240, Note_on_c, 13, 39, 65
14, 174600, Note_on_c, 13, 39, 0
14, 174600, Note_on_c, 13, 41, 71
14, 174660, Note_on_c, 13, 41, 0
14, 174660, Note_on_c, 13, 43, 77
14, 174720, Note_on_c, 13, 43, 0
14, 174720, Note_on_c, 13, 44, 58
14, 174780, Note_on_c, 13, 44, 0
14, 179760, Note_on_c, 13, 43, 62
14, 180000, Note_on_c, 13, 43, 0
14, 180000, Note_on_c, 13, 36, 81
14, 180120, Note_on_c, 13, 36, 0
14, 180240, Note_on_c, 13, 36, 72
14, 180360, Note_on_c, 13, 36, 0
14, 180480, Note_on_c, 13, 43, 56
14, 180720, Note_on_c, 13, 43, 0
14, 181440, Note_on_c, 13, 43, 72
14, 181680, Note_on_c, 13, 43, 0
14, 182280, Note_on_c, 13, 43, 73
14, 182400, Note_on_c, 13, 43, 0
14, 182400, Note_on_c, 13, 43, 69
14, 182640, Note_on_c, 13, 43, 0
14, 182640, Note_on_c, 13, 43, 62
14, 182880, Note_on_c, 13, 43, 0
14, 182880, Note_on_c, 13, 43, 68
14, 183120, Note_on_c, 13, 43, 0
14, 183360, Note_on_c, 13, 36, 66
14, 183720, Note_on_c, 13, 36, 0
14, 183720, Note_on_c, 13, 31, 78
14, 183840, Note_on_c, 13, 31, 0
14, 183840, Note_on_c, 13, 38, 67
14, 184200, Note_on_c, 13, 38, 0
14, 184200, Note_on_c, 13, 38, 89
14, 184320, Note_on_c, 13, 38, 0
14, 184320, Note_on_c, 13, 36, 65
14, 184680, Note_on_c, 13, 36, 0
14, 184680, Note_on_c, 13, 31, 73
14, 184800, Note_on_c, 13, 31, 0
14, 184800, Note_on_c, 13, 38, 68
14, 185040, Note_on_c, 13, 38, 0
14, 185280, Note_on_c, 13, 35, 76
14, 185400, Note_on_c, 13, 35, 0
14, 185400, Note_on_c, 13, 33, 81
14, 185520, Note_on_c, 13, 33, 0
14, 185520, Note_on_c, 13, 35, 65
14, 185640, Note_on_c, 13, 35, 0
14, 185640, Note_on_c, 13, 31, 69
14, 185760, Note_on_c, 13, 31, 0
14, 185760, Note_on_c, 13, 36, 65
14, 185880, Note_on_c, 13, 36, 0
14, 185880, Note_on_c, 13, 35, 51
14, 186000, Note_on_c, 13, 35, 0
14, 186000, Note_on_c, 13, 36, 65
14, 186120, Note_on_c, 13, 36, 0
14, 186120, Note_on_c, 13, 28, 67
14, 186240, Note_on_c, 13, 28, 0
14, 186240, Note_on_c, 13, 29, 65
14, 186360, Note_on_c, 13, 29, 0
14, 186360, Note_on_c, 13, 28, 61
14, 186480, Note_on_c, 13, 28, 0
14, 186480, Note_on_c, 13, 29, 60
14, 186600, Note_on_c, 13, 29, 0
14, 186600, Note_on_c, 13, 30, 72
14, 186720, Note_on_c, 13, 30, 0
14, 186720, Note_on_c, 13, 31, 60
14, 186960, Note_on_c, 13, 31, 0
14, 187200, Note_on_c, 13, 48, 43
14, 187440, Note_on_c, 13, 48, 0
14, 187560, Note_on_c, 13, 43, 42
14, 187620, Note_on_c, 13, 43, 0
14, 187680, Note_on_c, 13, 50, 50
14, 187920, Note_on_c, 13, 50, 0
14, 188040, Note_on_c, 13, 50, 64
14, 188100, Note_on_c, 13, 50, 0
14, 188160, Note_on_c, 13, 48, 53
14, 188400, Note_on_c, 13, 48, 0
14, 188520, Note_on_c, 13, 43, 40
14, 188580, Note_on_c, 13, 43, 0
14, 188640, Note_on_c, 13, 50, 49
14, 188880, Note_on_c, 13, 50, 0
14, 192480, Note_on_c, 13, 24, 64
14, 192600, Note_on_c, 13, 24, 0
14, 192600, Note_on_c, 13, 36, 65
14, 192720, Note_on_c, 13, 36, 0
14, 192720, Note_on_c, 13, 36, 69
14, 192840, Note_on_c, 13, 36, 0
14, 192840, Note_on_c, 13, 36, 63
14, 192960, Note_on_c, 13, 36, 0
14, 192960, Note_on_c, 13, 36, 64
14, 193080, Note_on_c, 13, 36, 0
14, 193080, Note_on_c, 13, 36, 65
14, 193200, Note_on_c, 13, 36, 0
14, 193200, Note_on_c, 13, 37, 46
14, 193260, Note_on_c, 13, 37, 0
14, 193260, Note_on_c, 13, 36, 61
14, 193320, Note_on_c, 13, 36, 0
14, 193320, Note_on_c, 13, 34, 59
14, 193380, Note_on_c, 13, 34, 0
14, 193380, Note_on_c, 13, 36, 64
14, 193440, Note_on_c, 13, 36, 0
14, 193440, Note_on_c, 13, 37, 62
14, 193560, Note_on_c, 13, 37, 0
14, 193560, Note_on_c, 13, 36, 66
14, 193680, Note_on_c, 13, 36, 0
14, 193680, Note_on_c, 13, 34, 69
14, 193800, Note_on_c, 13, 34, 0
14, 193800, Note_on_c, 13, 32, 81
14, 193920, Note_on_c, 13, 32, 0
14, 193920, Note_on_c, 13, 31, 81
14, 194040, Note_on_c, 13, 31, 0
14, 194040, Note_on_c, 13, 29, 84
14, 194160, Note_on_c, 13, 29, 0
14, 194160, Note_on_c, 13, 31, 80
14, 194280, Note_on_c, 13, 31, 0
14, 194280, Note_on_c, 13, 27, 76
14, 194400, Note_on_c, 13, 27, 0
14, 194400, Note_on_c, 13, 44, 64
14, 194640, Note_on_c, 13, 44, 0
14, 203520, Note_on_c, 13, 40, 73
14, 203640, Note_on_c, 13, 40, 0
14, 204240, Note_on_c, 13, 36, 80
14, 204360, Note_on_c, 13, 36, 0
14, 204480, Note_on_c, 13, 41, 77
14, 204600, Note_on_c, 13, 41, 0
14, 205200, Note_on_c, 13, 38, 69
14, 205320, Note_on_c, 13, 38, 0
14, 205440, Note_on_c, 13, 43, 73
14, 205560, Note_on_c, 13, 43, 0
14, 205920, Note_on_c, 13, 43, 69
14, 206040, Note_on_c, 13, 43, 0
14, 206400, Note_on_c, 13, 40, 73
14, 206520, Note_on_c, 13, 40, 0
14, 207120, Note_on_c, 13, 36, 76
14, 207240, Note_on_c, 13, 36, 0
14, 207360, Note_on_c, 13, 41, 59
14, 207480, Note_on_c, 13, 41, 0
14, 208080, Note_on_c, 13, 38, 80
14, 208200, Note_on_c, 13, 38, 0
14, 208320, Note_on_c, 13, 43, 56
14, 208440, Note_on_c, 13, 43, 0
14, 208800, Note_on_c, 13, 43, 61
14, 208920, Note_on_c, 13, 43, 0
14, 209280, Note_on_c, 13, 36, 61
14, 209520, Note_on_c, 13, 36, 0
14, 209760, Note_on_c, 13, 43, 68
14, 210000, Note_on_c, 13, 43, 0
14, 210240, Note_on_c, 13, 48, 58
14, 210480, Note_on_c, 13, 48, 0
14, 210720, Note_on_c, 13, 43, 61
14, 210960, Note_on_c, 13, 43, 0
14, 211080, Note_on_c, 13, 43, 44
14, 211200, Note_on_c, 13, 43, 0
14, 211200, Note_on_c, 13, 48, 67
14, 211320, Note_on_c, 13, 48, 0
14, 211320, Note_on_c, 13, 47, 64
14, 211440, Note_on_c, 13, 47, 0
14, 211440, Note_on_c, 13, 48, 77
14, 211560, Note_on_c, 13, 48, 0
14, 211560, Note_on_c, 13, 50, 82
14, 211680, Note_on_c, 13, 50, 0
14, 211680, Note_on_c, 13, 48, 73
14, 211800, Note_on_c, 13, 48, 0
14, 211800, Note_on_c, 13, 47, 78
14, 211920, Note_on_c, 13, 47, 0
14, 211920, Note_on_c, 13, 45, 76
14, 212040, Note_on_c, 13, 45, 0
14, 212040, Note_on_c, 13, 43, 73
14, 212160, Note_on_c, 13, 43, 0
14, 212160, Note_on_c, 13, 46, 67
14, 212280, Note_on_c, 13, 46, 0
14, 212280, Note_on_c, 13, 45, 84
14, 212400, Note_on_c, 13, 45, 0
14, 212400, Note_on_c, 13, 46, 65
14, 212520, Note_on_c, 13, 46, 0
14, 212520, Note_on_c, 13, 48, 65
14, 212640, Note_on_c, 13, 48, 0
14, 212640, Note_on_c, 13, 46, 70
14, 212760, Note_on_c, 13, 46, 0
14, 212760, Note_on_c, 13, 45, 84
14, 212880, Note_on_c, 13, 45, 0
14, 212880, Note_on_c, 13, 43, 72
14, 213000, Note_on_c, 13, 43, 0
14, 213000, Note_on_c, 13, 41, 76
14, 213120, Note_on_c, 13, 41, 0
14, 213120, Note_on_c, 13, 40, 82
14, 213240, Note_on_c, 13, 40, 0
14, 213240, Note_on_c, 13, 38, 84
14, 213360, Note_on_c, 13, 38, 0
14, 213360, Note_on_c, 13, 36, 71
14, 213480, Note_on_c, 13, 36, 0
14, 213480, Note_on_c, 13, 34, 78
14, 213600, Note_on_c, 13, 34, 0
14, 213600, Note_on_c, 13, 33, 84
14, 213660, Note_on_c, 13, 33, 0
14, 213720, Note_on_c, 13, 29, 81
14, 213780, Note_on_c, 13, 29, 0
14, 213840, Note_on_c, 13, 41, 66
14, 213900, Note_on_c, 13, 41, 0
14, 213960, Note_on_c, 13, 40, 84
14, 214020, Note_on_c, 13, 40, 0
14, 214080, Note_on_c, 13, 38, 77
14, 214200, Note_on_c, 13, 38, 0
14, 214200, Note_on_c, 13, 41, 73
14, 214320, Note_on_c, 13, 41, 0
14, 214320, Note_on_c, 13, 43, 60
14, 214440, Note_on_c, 13, 43, 0
14, 214440, Note_on_c, 13, 41, 73
14, 214560, Note_on_c, 13, 41, 0
14, 214560, Note_on_c, 13, 40, 77
14, 214680, Note_on_c, 13, 40, 0
14, 214680, Note_on_c, 13, 43, 72
14, 214800, Note_on_c, 13, 43, 0
14, 214800, Note_on_c, 13, 45, 89
14, 214920, Note_on_c, 13, 45, 0
14, 214920, Note_on_c, 13, 43, 74
14, 215040, Note_on_c, 13, 43, 0
14, 215040, Note_on_c, 13, 41, 82
14, 215160, Note_on_c, 13, 41, 0
14, 215160, Note_on_c, 13, 41, 85
14, 215280, Note_on_c, 13, 41, 0
14, 215280, Note_on_c, 13, 41, 74
14, 215400, Note_on_c, 13, 41, 0
14, 215400, Note_on_c, 13, 41, 84
14, 215520, Note_on_c, 13, 41, 0
14, 215520, Note_on_c, 13, 42, 81
14, 215640, Note_on_c, 13, 42, 0
14, 215640, Note_on_c, 13, 42, 78
14, 215760, Note_on_c, 13, 42, 0
14, 215760, Note_on_c, 13, 42, 84
14, 215880, Note_on_c, 13, 42, 0
14, 215880, Note_on_c, 13, 42, 84
14, 216000, Note_on_c, 13, 42, 0
14, 216000, Note_on_c, 13, 43, 95
14, 216120, Note_on_c, 13, 43, 0
14, 216120, Note_on_c, 13, 43, 77
14, 216240, Note_on_c, 13, 43, 0
14, 216240, Note_on_c, 13, 44, 80
14, 216360, Note_on_c, 13, 44, 0
14, 216360, Note_on_c, 13, 44, 84
14, 216480, Note_on_c, 13, 44, 0
14, 216480, Note_on_c, 13, 43, 77
14, 216600, Note_on_c, 13, 43, 0
14, 216600, Note_on_c, 13, 43, 73
14, 216720, Note_on_c, 13, 43, 0
14, 216720, Note_on_c, 13, 42, 89
14, 216840, Note_on_c, 13, 42, 0
14, 216840, Note_on_c, 13, 42, 72
14, 216960, Note_on_c, 13, 42, 0
14, 216960, Note_on_c, 13, 43, 69
14, 217080, Note_on_c, 13, 43, 0
14, 217080, Note_on_c, 13, 43, 74
14, 217200, Note_on_c, 13, 43, 0
14, 217200, Note_on_c, 13, 45, 80
14, 217320, Note_on_c, 13, 45, 0
14, 217320, Note_on_c, 13, 45, 82
14, 217440, Note_on_c, 13, 45, 0
14, 217440, Note_on_c, 13, 43, 76
14, 217560, Note_on_c, 13, 43, 0
14, 217560, Note_on_c, 13, 43, 77
14, 217680, Note_on_c, 13, 43, 0
14, 217680, Note_on_c, 13, 42, 93
14, 217800, Note_on_c, 13, 42, 0
14, 217800, Note_on_c, 13, 42, 69
14, 217920, Note_on_c, 13, 42, 0
14, 217920, Note_on_c, 13, 43, 71
14, 218040, Note_on_c, 13, 43, 0
14, 218040, Note_on_c, 13, 43, 81
14, 218160, Note_on_c, 13, 43, 0
14, 218160, Note_on_c, 13, 42, 94
14, 218280, Note_on_c, 13, 42, 0
14, 218280, Note_on_c, 13, 42, 72
14, 218400, Note_on_c, 13, 42, 0
14, 218400, Note_on_c, 13, 43, 90
14, 218520, Note_on_c, 13, 43, 0
14, 218520, Note_on_c, 13, 43, 81
14, 218640, Note_on_c, 13, 43, 0
14, 218640, Note_on_c, 13, 42, 95
14, 218760, Note_on_c, 13, 42, 0
14, 218760, Note_on_c, 13, 42, 94
14, 218880, Note_on_c, 13, 42, 0
14, 218880, Note_on_c, 13, 43, 101
14, 220320, Note_on_c, 13, 43, 0
14, 227520, Note_on_c, 13, 43, 57
14, 228480, Note_on_c, 13, 43, 0
14, 228480, Note_on_c, 13, 43, 53
14, 229440, Note_on_c, 13, 43, 0
14, 229440, Note_on_c, 13, 42, 61
14, 230400, Note_on_c, 13, 42, 0
14, 230400, Note_on_c, 13, 47, 52
14, 230640, Note_on_c, 13, 47, 0
14, 230880, Note_on_c, 13, 47, 61
14, 231120, Note_on_c, 13, 47, 0
14, 231360, Note_on_c, 13, 47, 65
14, 231480, Note_on_c, 13, 47, 0
14, 231600, Note_on_c, 13, 47, 62
14, 231720, Note_on_c, 13, 47, 0
14, 231840, Note_on_c, 13, 49, 71
14, 231960, Note_on_c, 13, 49, 0
14, 232080, Note_on_c, 13, 37, 69
14, 232200, Note_on_c, 13, 37, 0
14, 232320, Note_on_c, 13, 42, 45
14, 232440, Note_on_c, 13, 42, 0
14, 232560, Note_on_c, 13, 37, 72
14, 232680, Note_on_c, 13, 37, 0
14, 232800, Note_on_c, 13, 42, 61
14, 233040, Note_on_c, 13, 42, 0
14, 233760, Note_on_c, 13, 42, 65
14, 234000, Note_on_c, 13, 42, 0
14, 234720, Note_on_c, 13, 42, 45
14, 234960, Note_on_c, 13, 42, 0
14, 235200, Note_on_c, 13, 42, 50
14, 235440, Note_on_c, 13, 42, 0
14, 235680, Note_on_c, 13, 47, 43
14, 235920, Note_on_c, 13, 47, 0
14, 236160, Note_on_c, 13, 47, 43
14, 236400, Note_on_c, 13, 47, 0
14, 236640, Note_on_c, 13, 43, 55
14, 236880, Note_on_c, 13, 43, 0
14, 237120, Note_on_c, 13, 43, 46
14, 237360, Note_on_c, 13, 43, 0
14, 238800, Note_on_c, 13, 41, 57
14, 238920, Note_on_c, 13, 41, 0
14, 239040, Note_on_c, 13, 38, 50
14, 239160, Note_on_c, 13, 38, 0
14, 239280, Note_on_c, 13, 35, 49
14, 239400, Note_on_c, 13, 35, 0
14, 239520, Note_on_c, 13, 31, 51
14, 240960, Note_on_c, 13, 31, 0
14, 241440, Note_on_c, 13, 36, 99
14, 241560, Note_on_c, 13, 36, 0
14, 241560, Note_on_c, 13, 48, 86
14, 241680, Note_on_c, 13, 48, 0
14, 241680, Note_on_c, 13, 48, 93
14, 241800, Note_on_c, 13, 48, 0
14, 241800, Note_on_c, 13, 48, 90
14, 241920, Note_on_c, 13, 48, 0
14, 241920, Note_on_c, 13, 36, 104
14, 242040, Note_on_c, 13, 36, 0
14, 242040, Note_on_c, 13, 48, 93
14, 242160, Note_on_c, 13, 48, 0
14, 242160, Note_on_c, 13, 48, 94
14, 242280, Note_on_c, 13, 48, 0
14, 242280, Note_on_c, 13, 48, 93
14, 242400, Note_on_c, 13, 48, 0
14, 242400, Note_on_c, 13, 36, 105
14, 242520, Note_on_c, 13, 36, 0
14, 242520, Note_on_c, 13, 48, 98
14, 242640, Note_on_c, 13, 48, 0
14, 242640, Note_on_c, 13, 36, 104
14, 242760, Note_on_c, 13, 36, 0
14, 242760, Note_on_c, 13, 36, 104
14, 242880, Note_on_c, 13, 36, 0
14, 242880, Note_on_c, 13, 35, 99
14, 242940, Note_on_c, 13, 35, 0
14, 243000, Note_on_c, 13, 40, 98
14, 243000, Note_on_c, 13, 35, 70
14, 243060, Note_on_c, 13, 35, 0
14, 243060, Note_on_c, 13, 40, 0
14, 243120, Note_on_c, 13, 36, 95
14, 243180, Note_on_c, 13, 36, 0
14, 243240, Note_on_c, 13, 38, 99
14, 243300, Note_on_c, 13, 38, 0
14, 243360, Note_on_c, 13, 31, 95
14, 243420, Note_on_c, 13, 31, 0
14, 243480, Note_on_c, 13, 40, 99
14, 243540, Note_on_c, 13, 40, 0
14, 243600, Note_on_c, 13, 36, 99
14, 243660, Note_on_c, 13, 36, 0
14, 243720, Note_on_c, 13, 38, 104
14, 243780, Note_on_c, 13, 38, 0
14, 243840, Note_on_c, 13, 19, 99
14, 243900, Note_on_c, 13, 19, 0
14, 243960, Note_on_c, 13, 31, 90
14, 244020, Note_on_c, 13, 31, 0
14, 244080, Note_on_c, 13, 19, 101
14, 244140, Note_on_c, 13, 19, 0
14, 244320, Note_on_c, 13, 31, 94
14, 244560, Note_on_c, 13, 31, 0
14, 244560, Note_on_c, 13, 31, 94
14, 244800, Note_on_c, 13, 31, 0
14, 244800, Note_on_c, 13, 31, 119
14, 244860, Note_on_c, 13, 31, 0
14, 244860, Note_on_c, 13, 30, 95
14, 244920, Note_on_c, 13, 30, 0
14, 244920, Note_on_c, 13, 31, 98
14, 244980, Note_on_c, 13, 31, 0
14, 244980, Note_on_c, 13, 30, 86
14, 245040, Note_on_c, 13, 30, 0
14, 245040, Note_on_c, 13, 31, 99
14, 245160, Note_on_c, 13, 31, 0
14, 245280, Note_on_c, 13, 31, 94
14, 245520, Note_on_c, 13, 31, 0
14, 245520, Note_on_c, 13, 31, 99
14, 245760, Note_on_c, 13, 31, 0
14, 245760, Note_on_c, 13, 31, 119
14, 245820, Note_on_c, 13, 31, 0
14, 245820, Note_on_c, 13, 30, 95
14, 245880, Note_on_c, 13, 30, 0
14, 245880, Note_on_c, 13, 31, 95
14, 245940, Note_on_c, 13, 31, 0
14, 245940, Note_on_c, 13, 30, 94
14, 246000, Note_on_c, 13, 30, 0
14, 246000, Note_on_c, 13, 31, 98
14, 246360, Note_on_c, 13, 31, 0
14, 246360, Note_on_c, 13, 32, 119
14, 246480, Note_on_c, 13, 32, 0
14, 246480, Note_on_c, 13, 31, 94
14, 246840, Note_on_c, 13, 31, 0
14, 246840, Note_on_c, 13, 32, 117
14, 246960, Note_on_c, 13, 32, 0
14, 246960, Note_on_c, 13, 31, 95
14, 247320, Note_on_c, 13, 31, 0
14, 247320, Note_on_c, 13, 32, 98
14, 247440, Note_on_c, 13, 32, 0
14, 247440, Note_on_c, 13, 35, 93
14, 247500, Note_on_c, 13, 35, 0
14, 247560, Note_on_c, 13, 29, 93
14, 247620, Note_on_c, 13, 29, 0
14, 247680, Note_on_c, 13, 31, 94
14, 247740, Note_on_c, 13, 31, 0
14, 247800, Note_on_c, 13, 31, 90
14, 247860, Note_on_c, 13, 31, 0
14, 247920, Note_on_c, 13, 43, 90
14, 247980, Note_on_c, 13, 43, 0
14, 248040, Note_on_c, 13, 43, 95
14, 248100, Note_on_c, 13, 43, 0
14, 248160, Note_on_c, 13, 36, 104
14, 248400, Note_on_c, 13, 36, 0
14, 248640, Note_on_c, 13, 43, 99
14, 248880, Note_on_c, 13, 43, 0
14, 249120, Note_on_c, 13, 48, 125
14, 249180, Note_on_c, 13, 48, 0
14, 249180, Note_on_c, 13, 47, 117
14, 249240, Note_on_c, 13, 47, 0
14, 249240, Note_on_c, 13, 45, 119
14, 249300, Note_on_c, 13, 45, 0
14, 249300, Note_on_c, 13, 43, 123
14, 249360, Note_on_c, 13, 43, 0
14, 249360, Note_on_c, 13, 41, 119
14, 249420, Note_on_c, 13, 41, 0
14, 249420, Note_on_c, 13, 40, 119
14, 249480, Note_on_c, 13, 40, 0
14, 249480, Note_on_c, 13, 38, 119
14, 249540, Note_on_c, 13, 38, 0
14, 249540, Note_on_c, 13, 36, 110
14, 249600, Note_on_c, 13, 36, 0
14, 249600, Note_on_c, 13, 31, 119
14, 249660, Note_on_c, 13, 31, 0
14, 249720, Note_on_c, 13, 43, 125
14, 249780, Note_on_c, 13, 43, 0
14, 249840, Note_on_c, 13, 43, 125
14, 249900, Note_on_c, 13, 43, 0
14, 249960, Note_on_c, 13, 43, 127
14, 250020, Note_on_c, 13, 43, 0
14, 250080, Note_on_c, 13, 36, 127
14, 250140, Note_on_c, 13, 36, 0
14, 250200, Note_on_c, 13, 31, 125
14, 250260, Note_on_c, 13, 31, 0
14, 250320, Note_on_c, 13, 36, 127
14, 250380, Note_on_c, 13, 36, 0
14, 250440, Note_on_c, 13, 31, 127
14, 250500, Note_on_c, 13, 31, 0
14, 250560, Note_on_c, 13, 36, 127
14, 250800, Note_on_c, 13, 36, 0
14, 254880, Note_on_c, 13, 36, 43
14, 255120, Note_on_c, 13, 36, 0
14, 255360, Note_on_c, 13, 41, 62
14, 255600, Note_on_c, 13, 41, 0
14, 255840, Note_on_c, 13, 38, 45
14, 256080, Note_on_c, 13, 38, 0
14, 256320, Note_on_c, 13, 43, 73
14, 256560, Note_on_c, 13, 43, 0
14, 258720, Note_on_c, 13, 36, 74
14, 258960, Note_on_c, 13, 36, 0
14, 259200, Note_on_c, 13, 41, 68
14, 259440, Note_on_c, 13, 41, 0
14, 259680, Note_on_c, 13, 38, 65
14, 259920, Note_on_c, 13, 38, 0
14, 260160, Note_on_c, 13, 43, 57
14, 260400, Note_on_c, 13, 43, 0
14, 262080, Note_on_c, 13, 36, 74
14, 262200, Note_on_c, 13, 36, 0
14, 264000, Note_on_c, 13, 48, 73
14, 264060, Note_on_c, 13, 48, 0
14, 264120, Note_on_c, 13, 50, 67
14, 264180, Note_on_c, 13, 50, 0
14, 264240, Note_on_c, 13, 48, 73
14, 264300, Note_on_c, 13, 48, 0
14, 264360, Note_on_c, 13, 50, 74
14, 264420, Note_on_c, 13, 50, 0
14, 264480, Note_on_c, 13, 48, 84
14, 264540, Note_on_c, 13, 48, 0
14, 264600, Note_on_c, 13, 50, 78
14, 264660, Note_on_c, 13, 50, 0
14, 264720, Note_on_c, 13, 48, 81
14, 264780, Note_on_c, 13, 48, 0
14, 264840, Note_on_c, 13, 44, 80
14, 264900, Note_on_c, 13, 44, 0
14, 264960, Note_on_c, 13, 45, 63
14, 265080, Note_on_c, 13, 45, 0
14, 265920, Note_on_c, 13, 36, 74
14, 266040, Note_on_c, 13, 36, 0
14, 267840, Note_on_c, 13, 48, 73
14, 267900, Note_on_c, 13, 48, 0
14, 267960, Note_on_c, 13, 50, 67
14, 268020, Note_on_c, 13, 50, 0
14, 268080, Note_on_c, 13, 48, 73
14, 268140, Note_on_c, 13, 48, 0
14, 268200, Note_on_c, 13, 50, 74
14, 268260, Note_on_c, 13, 50, 0
14, 268320, Note_on_c, 13, 48, 84
14, 268380, Note_on_c, 13, 48, 0
14, 268440, Note_on_c, 13, 50, 78
14, 268500, Note_on_c, 13, 50, 0
14, 268560, Note_on_c, 13, 48, 81
14, 268620, Note_on_c, 13, 48, 0
14, 268680, Note_on_c, 13, 44, 80
14, 268740, Note_on_c, 13, 44, 0
14, 268800, Note_on_c, 13, 45, 80
14, 268860, Note_on_c, 13, 45, 0
14, 269280, Program_c, 13, 45
14, 269760, Note_on_c, 13, 36, 65
14, 270000, Note_on_c, 13, 36, 0
14, 270720, Note_on_c, 13, 31, 53
14, 270960, Note_on_c, 13, 31, 0
14, 271200, Note_on_c, 13, 33, 63
14, 271440, Note_on_c, 13, 33, 0
14, 271440, Note_on_c, 13, 35, 71
14, 271680, Note_on_c, 13, 35, 0
14, 271680, Note_on_c, 13, 36, 46
14, 271920, Note_on_c, 13, 36, 0
14, 272640, Note_on_c, 13, 31, 65
14, 272880, Note_on_c, 13, 31, 0
14, 273120, Note_on_c, 13, 33, 68
14, 273360, Note_on_c, 13, 33, 0
14, 273360, Note_on_c, 13, 35, 63
14, 273600, Note_on_c, 13, 35, 0
14, 273600, Note_on_c, 13, 36, 53
14, 273840, Note_on_c, 13, 36, 0
14, 274080, Note_on_c, 13, 31, 46
14, 274200, Note_on_c, 13, 31, 0
14, 274200, Note_on_c, 13, 31, 55
14, 274320, Note_on_c, 13, 31, 0
14, 274320, Note_on_c, 13, 33, 60
14, 274440, Note_on_c, 13, 33, 0
14, 274440, Note_on_c, 13, 35, 48
14, 274560, Note_on_c, 13, 35, 0
14, 274560, Note_on_c, 13, 36, 33
14, 274800, Note_on_c, 13, 36, 0
14, 275040, Note_on_c, 13, 31, 38
14, 275160, Note_on_c, 13, 31, 0
14, 275160, Note_on_c, 13, 31, 46
14, 275280, Note_on_c, 13, 31, 0
14, 275280, Note_on_c, 13, 33, 57
14, 275400, Note_on_c, 13, 33, 0
14, 275400, Note_on_c, 13, 35, 40
14, 275520, Note_on_c, 13, 35, 0
14, 275520, Note_on_c, 13, 36, 33
14, 275760, Note_on_c, 13, 36, 0
14, 277440, Program_c, 13, 48
14, 277920, Note_on_c, 13, 43, 67
14, 278880, Note_on_c, 13, 43, 0
14, 280440, Note_on_c, 13, 48, 52
14, 281160, Note_on_c, 13, 48, 0
14, 282600, Note_on_c, 13, 36, 104
14, 282660, Note_on_c, 13, 36, 0
14, 282660, Note_on_c, 13, 36, 104
14, 282720, Note_on_c, 13, 36, 0
14, 282720, Note_on_c, 13, 31, 99
14, 282780, Note_on_c, 13, 31, 0
14, 282780, Note_on_c, 13, 31, 99
14, 282840, Note_on_c, 13, 31, 0
14, 282840, Note_on_c, 13, 31, 99
14, 282900, Note_on_c, 13, 31, 0
14, 282900, Note_on_c, 13, 31, 101
14, 282960, Note_on_c, 13, 31, 0
14, 282960, Note_on_c, 13, 31, 101
14, 283020, Note_on_c, 13, 31, 0
14, 283020, Note_on_c, 13, 31, 99
14, 283080, Note_on_c, 13, 31, 0
14, 283080, Note_on_c, 13, 31, 101
14, 283140, Note_on_c, 13, 31, 0
14, 283140, Note_on_c, 13, 31, 99
14, 283200, Note_on_c, 13, 31, 0
14, 283200, Note_on_c, 13, 31, 104
14, 283260, Note_on_c, 13, 31, 0
14, 283260, Note_on_c, 13, 31, 99
14, 283320, Note_on_c, 13, 31, 0
14, 283320, Note_on_c, 13, 31, 98
14, 283380, Note_on_c, 13, 31, 0
14, 283380, Note_on_c, 13, 31, 98
14, 283440, Note_on_c, 13, 31, 0
14, 283440, Note_on_c, 13, 31, 101
14, 283500, Note_on_c, 13, 31, 0
14, 283500, Note_on_c, 13, 31, 99
14, 283560, Note_on_c, 13, 31, 0
14, 283560, Note_on_c, 13, 31, 99
14, 283620, Note_on_c, 13, 31, 0
14, 283620, Note_on_c, 13, 31, 99
14, 283680, Note_on_c, 13, 31, 0
14, 283680, Note_on_c, 13, 36, 104
14, 283740, Note_on_c, 13, 36, 0
14, 283740, Note_on_c, 13, 36, 99
14, 283800, Note_on_c, 13, 36, 0
14, 283800, Note_on_c, 13, 43, 99
14, 283860, Note_on_c, 13, 43, 0
14, 283860, Note_on_c, 13, 43, 94
14, 283920, Note_on_c, 13, 43, 0
14, 283920, Note_on_c, 13, 48, 99
14, 283980, Note_on_c, 13, 48, 0
14, 283980, Note_on_c, 13, 48, 99
14, 284040, Note_on_c, 13, 48, 0
14, 284040, Note_on_c, 13, 43, 98
14, 284100, Note_on_c, 13, 43, 0
14, 284100, Note_on_c, 13, 43, 99
14, 284160, Note_on_c, 13, 43, 0
14, 284160, Note_on_c, 13, 48, 99
14, 284220, Note_on_c, 13, 48, 0
14, 284220, Note_on_c, 13, 48, 99
14, 284280, Note_on_c, 13, 48, 0
14, 284280, Note_on_c, 13, 43, 99
14, 284340, Note_on_c, 13, 43, 0
14, 284340, Note_on_c, 13, 43, 99
14, 284400, Note_on_c, 13, 43, 0
14, 284400, Note_on_c, 13, 48, 99
14, 284460, Note_on_c, 13, 48, 0
14, 284460, Note_on_c, 13, 48, 99
14, 284520, Note_on_c, 13, 48, 0
14, 284520, Note_on_c, 13, 43, 98
14, 284580, Note_on_c, 13, 43, 0
14, 284580, Note_on_c, 13, 43, 99
14, 284640, Note_on_c, 13, 43, 0
14, 284640, Note_on_c, 13, 48, 104
14, 284880, Note_on_c, 13, 48, 0
14, 284880, Note_on_c, 13, 36, 104
14, 285120, Note_on_c, 13, 36, 0
14, 285120, Note_on_c, 13, 36, 110
14, 285360, Note_on_c, 13, 36, 0
14, 285360, End_track
15, 0, Start_track
15, 0, MIDI_port, 0
15, 0, Title_t, "Ludwig van Beethoven"
15, 0, End_track
16, 0, Start_track
16, 0, MIDI_port, 0
16, 0, Title_t, "Piano Concerto No.1 in C Major"
16, 0, End_track
17, 0, Start_track
17, 0, MIDI_port, 0
17, 0, Title_t, "Mov't. 3  RONDO  Allegro"
17, 0, End_track
18, 0, Start_track
18, 0, MIDI_port, 0
18, 0, Title_t, "Sequenced by Bill Nemitz"
18, 0, End_track
19, 0, Start_track
19, 0, MIDI_port, 0
19, 0, Title_t, "Email at billnem@ix.netcom.com"
19, 0, End_track
0, 0, End_of_file