0, 0, Header, 1, 6, 120
1, 0, Start_track
1, 0, Title_t, "Opus 46"
1, 0, Title_t, "Adelaide, lied per voce e pianoforte"
1, 0, Text_t, "copyright by fiorellaearmando@panet.it\012"
1, 0, Time_signature, 4, 2, 24, 8
1, 0, Key_signature, -2, "major"
1, 0, Tempo, 600000
1, 240, Tempo, 800000
1, 33358, Tempo, 793441
1, 34078, Tempo, 578369
1, 48708, Tempo, 600000
1, 48936, Tempo, 600000
1, 48960, Tempo, 428571
1, 68376, Tempo, 600000
1, 68388, Tempo, 600000
1, 68616, Tempo, 600000
1, 68640, Tempo, 428571
1, 84400, Tempo, 428571
1, 85438, Tempo, 428571
1, 85472, Tempo, 430849
1, 85505, Tempo, 433150
1, 85535, Tempo, 435477
1, 85569, Tempo, 437828
1, 85599, Tempo, 440205
1, 85633, Tempo, 442608
1, 85667, Tempo, 445038
1, 85697, Tempo, 447494
1, 85730, Tempo, 449978
1, 85760, Tempo, 452489
1, 85794, Tempo, 455028
1, 85828, Tempo, 457596
1, 85858, Tempo, 460193
1, 85892, Tempo, 462820
1, 85922, Tempo, 465477
1, 85955, Tempo, 468165
1, 85989, Tempo, 470884
1, 86019, Tempo, 473634
1, 86053, Tempo, 476417
1, 86083, Tempo, 479233
1, 86117, Tempo, 482083
1, 86150, Tempo, 484966
1, 86180, Tempo, 487884
1, 86214, Tempo, 490838
1, 86244, Tempo, 493827
1, 86278, Tempo, 496853
1, 86312, Tempo, 499917
1, 86342, Tempo, 503018
1, 86375, Tempo, 506158
1, 86405, Tempo, 509338
1, 86439, Tempo, 512558
1, 86473, Tempo, 515818
1, 86503, Tempo, 519121
1, 86537, Tempo, 522466
1, 86567, Tempo, 525855
1, 86600, Tempo, 529287
1, 86634, Tempo, 532765
1, 86664, Tempo, 536289
1, 86698, Tempo, 539860
1, 86728, Tempo, 543478
1, 88475, Tempo, 543478
1, 88475, End_track
2, 0, Start_track
2, 0, Title_t, "Voce"
2, 0, Program_c, 0, 73
2, 0, Control_c, 0, 7, 121
2, 0, Control_c, 0, 10, 64
2, 0, Control_c, 0, 91, 40
2, 0, Control_c, 0, 93, 28
2, 3600, Note_on_c, 0, 65, 46
2, 3719, Note_on_c, 0, 65, 0
2, 3720, Note_on_c, 0, 70, 51
2, 3839, Note_on_c, 0, 70, 0
2, 3840, Note_on_c, 0, 74, 55
2, 4079, Note_on_c, 0, 74, 0
2, 4080, Note_on_c, 0, 74, 56
2, 4199, Note_on_c, 0, 74, 0
2, 4200, Note_on_c, 0, 74, 56
2, 4319, Note_on_c, 0, 74, 0
2, 4320, Note_on_c, 0, 75, 56
2, 4498, Note_on_c, 0, 75, 0
2, 4500, Note_on_c, 0, 75, 55
2, 4559, Note_on_c, 0, 75, 0
2, 4560, Note_on_c, 0, 74, 55
2, 4620, Note_on_c, 0, 72, 54
2, 4625, Note_on_c, 0, 74, 0
2, 4680, Note_on_c, 0, 70, 53
2, 4685, Note_on_c, 0, 72, 0
2, 4740, Note_on_c, 0, 69, 52
2, 4745, Note_on_c, 0, 70, 0
2, 4800, Note_on_c, 0, 72, 50
2, 4805, Note_on_c, 0, 69, 0
2, 4860, Note_on_c, 0, 70, 49
2, 4865, Note_on_c, 0, 72, 0
2, 4920, Note_on_c, 0, 70, 49
2, 4925, Note_on_c, 0, 70, 0
2, 5039, Note_on_c, 0, 70, 0
2, 5040, Note_on_c, 0, 67, 48
2, 5159, Note_on_c, 0, 67, 0
2, 5160, Note_on_c, 0, 67, 48
2, 5279, Note_on_c, 0, 67, 0
2, 5280, Note_on_c, 0, 65, 48
2, 5399, Note_on_c, 0, 65, 0
2, 5400, Note_on_c, 0, 70, 57
2, 5459, Note_on_c, 0, 70, 0
2, 5460, Note_on_c, 0, 74, 56
2, 5519, Note_on_c, 0, 74, 0
2, 5520, Note_on_c, 0, 77, 55
2, 5559, Note_on_c, 0, 79, 54
2, 5564, Note_on_c, 0, 77, 0
2, 5599, Note_on_c, 0, 77, 53
2, 5603, Note_on_c, 0, 79, 0
2, 5640, Note_on_c, 0, 77, 0
2, 5640, Note_on_c, 0, 75, 53
2, 5679, Note_on_c, 0, 74, 53
2, 5684, Note_on_c, 0, 75, 0
2, 5719, Note_on_c, 0, 75, 52
2, 5723, Note_on_c, 0, 74, 0
2, 5760, Note_on_c, 0, 75, 52
2, 5763, Note_on_c, 0, 75, 0
2, 5880, Note_on_c, 0, 75, 0
2, 5880, Note_on_c, 0, 74, 51
2, 5999, Note_on_c, 0, 74, 0
2, 6000, Note_on_c, 0, 74, 50
2, 6119, Note_on_c, 0, 74, 0
2, 6120, Note_on_c, 0, 74, 50
2, 6239, Note_on_c, 0, 74, 0
2, 6240, Note_on_c, 0, 72, 52
2, 6540, Note_on_c, 0, 72, 0
2, 6540, Note_on_c, 0, 79, 55
2, 6599, Note_on_c, 0, 79, 0
2, 6600, Note_on_c, 0, 75, 53
2, 6659, Note_on_c, 0, 75, 0
2, 6660, Note_on_c, 0, 72, 52
2, 6719, Note_on_c, 0, 72, 0
2, 6720, Note_on_c, 0, 70, 51
2, 6839, Note_on_c, 0, 70, 0
2, 6840, Note_on_c, 0, 70, 51
2, 6959, Note_on_c, 0, 70, 0
2, 6960, Note_on_c, 0, 70, 52
2, 7079, Note_on_c, 0, 70, 0
2, 7080, Note_on_c, 0, 74, 57
2, 7139, Note_on_c, 0, 74, 0
2, 7140, Note_on_c, 0, 72, 45
2, 7199, Note_on_c, 0, 72, 0
2, 7200, Note_on_c, 0, 72, 46
2, 7259, Note_on_c, 0, 72, 0
2, 7260, Note_on_c, 0, 70, 45
2, 7319, Note_on_c, 0, 70, 0
2, 7920, Note_on_c, 0, 69, 48
2, 8079, Note_on_c, 0, 70, 54
2, 8092, Note_on_c, 0, 69, 0
2, 8119, Note_on_c, 0, 70, 0
2, 8119, Note_on_c, 0, 72, 55
2, 8160, Note_on_c, 0, 72, 0
2, 8160, Note_on_c, 0, 72, 55
2, 8279, Note_on_c, 0, 72, 0
2, 8280, Note_on_c, 0, 70, 55
2, 8399, Note_on_c, 0, 70, 0
2, 8880, Note_on_c, 0, 75, 41
2, 9039, Note_on_c, 0, 72, 44
2, 9052, Note_on_c, 0, 75, 0
2, 9079, Note_on_c, 0, 72, 0
2, 9079, Note_on_c, 0, 69, 46
2, 9120, Note_on_c, 0, 69, 0
2, 9120, Note_on_c, 0, 72, 61
2, 9239, Note_on_c, 0, 72, 0
2, 9240, Note_on_c, 0, 70, 52
2, 9359, Note_on_c, 0, 70, 0
2, 9720, Note_on_c, 0, 65, 62
2, 9809, Note_on_c, 0, 65, 0
2, 9810, Note_on_c, 0, 65, 57
2, 9840, Note_on_c, 0, 65, 0
2, 9840, Note_on_c, 0, 70, 56
2, 9999, Note_on_c, 0, 72, 55
2, 10012, Note_on_c, 0, 70, 0
2, 10039, Note_on_c, 0, 72, 0
2, 10039, Note_on_c, 0, 74, 55
2, 10070, Note_on_c, 0, 71, 54
2, 10072, Note_on_c, 0, 74, 0
2, 10080, Note_on_c, 0, 71, 0
2, 10087, Note_on_c, 0, 72, 54
2, 10207, Note_on_c, 0, 72, 0
2, 10440, Note_on_c, 0, 65, 104
2, 10559, Note_on_c, 0, 65, 0
2, 10560, Note_on_c, 0, 77, 110
2, 10920, Note_on_c, 0, 77, 0
2, 10920, Note_on_c, 0, 75, 48
2, 11039, Note_on_c, 0, 75, 0
2, 11040, Note_on_c, 0, 75, 53
2, 11159, Note_on_c, 0, 75, 0
2, 11160, Note_on_c, 0, 74, 54
2, 11279, Note_on_c, 0, 74, 0
2, 11400, Note_on_c, 0, 74, 51
2, 11459, Note_on_c, 0, 74, 0
2, 11460, Note_on_c, 0, 74, 51
2, 11519, Note_on_c, 0, 74, 0
2, 11520, Note_on_c, 0, 74, 51
2, 11639, Note_on_c, 0, 74, 0
2, 11640, Note_on_c, 0, 74, 52
2, 11729, Note_on_c, 0, 74, 0
2, 11730, Note_on_c, 0, 74, 53
2, 11760, Note_on_c, 0, 74, 0
2, 11760, Note_on_c, 0, 74, 54
2, 11819, Note_on_c, 0, 74, 0
2, 11820, Note_on_c, 0, 75, 55
2, 11850, Note_on_c, 0, 74, 55
2, 11853, Note_on_c, 0, 75, 0
2, 11880, Note_on_c, 0, 74, 55
2, 11883, Note_on_c, 0, 74, 0
2, 11910, Note_on_c, 0, 72, 55
2, 11913, Note_on_c, 0, 74, 0
2, 11940, Note_on_c, 0, 70, 55
2, 11943, Note_on_c, 0, 72, 0
2, 11970, Note_on_c, 0, 69, 56
2, 11973, Note_on_c, 0, 70, 0
2, 12000, Note_on_c, 0, 72, 57
2, 12003, Note_on_c, 0, 69, 0
2, 12060, Note_on_c, 0, 70, 56
2, 12065, Note_on_c, 0, 72, 0
2, 12120, Note_on_c, 0, 70, 53
2, 12125, Note_on_c, 0, 70, 0
2, 12239, Note_on_c, 0, 70, 0
2, 12360, Note_on_c, 0, 70, 46
2, 12449, Note_on_c, 0, 70, 0
2, 12450, Note_on_c, 0, 70, 53
2, 12480, Note_on_c, 0, 70, 0
2, 12480, Note_on_c, 0, 79, 66
2, 12719, Note_on_c, 0, 79, 0
2, 12720, Note_on_c, 0, 77, 46
2, 12898, Note_on_c, 0, 77, 0
2, 12900, Note_on_c, 0, 77, 51
2, 12959, Note_on_c, 0, 77, 0
2, 12960, Note_on_c, 0, 77, 51
2, 13019, Note_on_c, 0, 77, 0
2, 13020, Note_on_c, 0, 76, 52
2, 13079, Note_on_c, 0, 76, 0
2, 13080, Note_on_c, 0, 76, 52
2, 13199, Note_on_c, 0, 76, 0
2, 13320, Note_on_c, 0, 74, 50
2, 13409, Note_on_c, 0, 74, 0
2, 13410, Note_on_c, 0, 74, 49
2, 13440, Note_on_c, 0, 74, 0
2, 13440, Note_on_c, 0, 74, 49
2, 13499, Note_on_c, 0, 74, 0
2, 13500, Note_on_c, 0, 72, 48
2, 13559, Note_on_c, 0, 72, 0
2, 13560, Note_on_c, 0, 72, 48
2, 13679, Note_on_c, 0, 72, 0
2, 13800, Note_on_c, 0, 70, 49
2, 13919, Note_on_c, 0, 70, 0
2, 13920, Note_on_c, 0, 70, 52
2, 13980, Note_on_c, 0, 69, 54
2, 13985, Note_on_c, 0, 70, 0
2, 14040, Note_on_c, 0, 69, 56
2, 14045, Note_on_c, 0, 69, 0
2, 14100, Note_on_c, 0, 77, 61
2, 14105, Note_on_c, 0, 69, 0
2, 14160, Note_on_c, 0, 77, 101
2, 14165, Note_on_c, 0, 77, 0
2, 14279, Note_on_c, 0, 77, 0
2, 14280, Note_on_c, 0, 71, 102
2, 14369, Note_on_c, 0, 71, 0
2, 14370, Note_on_c, 0, 71, 105
2, 14400, Note_on_c, 0, 71, 0
2, 14400, Note_on_c, 0, 74, 108
2, 14459, Note_on_c, 0, 74, 0
2, 14460, Note_on_c, 0, 72, 91
2, 14519, Note_on_c, 0, 72, 0
2, 14880, Note_on_c, 0, 72, 48
2, 15240, Note_on_c, 0, 72, 0
2, 15240, Note_on_c, 0, 72, 47
2, 15359, Note_on_c, 0, 72, 0
2, 15360, Note_on_c, 0, 72, 66
2, 15479, Note_on_c, 0, 72, 0
2, 15480, Note_on_c, 0, 72, 66
2, 15569, Note_on_c, 0, 72, 0
2, 15570, Note_on_c, 0, 72, 66
2, 15600, Note_on_c, 0, 72, 0
2, 15600, Note_on_c, 0, 72, 66
2, 15659, Note_on_c, 0, 72, 0
2, 15660, Note_on_c, 0, 74, 66
2, 15690, Note_on_c, 0, 72, 66
2, 15693, Note_on_c, 0, 74, 0
2, 15720, Note_on_c, 0, 72, 66
2, 15723, Note_on_c, 0, 72, 0
2, 15750, Note_on_c, 0, 70, 66
2, 15753, Note_on_c, 0, 72, 0
2, 15780, Note_on_c, 0, 69, 66
2, 15783, Note_on_c, 0, 70, 0
2, 15810, Note_on_c, 0, 67, 66
2, 15813, Note_on_c, 0, 69, 0
2, 15840, Note_on_c, 0, 70, 66
2, 15843, Note_on_c, 0, 67, 0
2, 15900, Note_on_c, 0, 69, 66
2, 15905, Note_on_c, 0, 70, 0
2, 15960, Note_on_c, 0, 69, 65
2, 15965, Note_on_c, 0, 69, 0
2, 16079, Note_on_c, 0, 69, 0
2, 16200, Note_on_c, 0, 72, 65
2, 16289, Note_on_c, 0, 72, 0
2, 16290, Note_on_c, 0, 72, 65
2, 16320, Note_on_c, 0, 72, 0
2, 16320, Note_on_c, 0, 74, 65
2, 16559, Note_on_c, 0, 74, 0
2, 16560, Note_on_c, 0, 79, 122
2, 16738, Note_on_c, 0, 79, 0
2, 16740, Note_on_c, 0, 77, 121
2, 16799, Note_on_c, 0, 77, 0
2, 16800, Note_on_c, 0, 77, 98
2, 16859, Note_on_c, 0, 77, 0
2, 16860, Note_on_c, 0, 76, 93
2, 16919, Note_on_c, 0, 76, 0
2, 16920, Note_on_c, 0, 76, 96
2, 17039, Note_on_c, 0, 76, 0
2, 17280, Note_on_c, 0, 77, 47
2, 17519, Note_on_c, 0, 77, 0
2, 17520, Note_on_c, 0, 76, 53
2, 17579, Note_on_c, 0, 76, 0
2, 17580, Note_on_c, 0, 77, 54
2, 17639, Note_on_c, 0, 77, 0
2, 17640, Note_on_c, 0, 81, 54
2, 17699, Note_on_c, 0, 81, 0
2, 17700, Note_on_c, 0, 77, 53
2, 17759, Note_on_c, 0, 77, 0
2, 17760, Note_on_c, 0, 76, 51
2, 17819, Note_on_c, 0, 76, 0
2, 17820, Note_on_c, 0, 74, 51
2, 17879, Note_on_c, 0, 74, 0
2, 17880, Note_on_c, 0, 74, 51
2, 17999, Note_on_c, 0, 74, 0
2, 18120, Note_on_c, 0, 77, 50
2, 18179, Note_on_c, 0, 77, 0
2, 18180, Note_on_c, 0, 74, 50
2, 18239, Note_on_c, 0, 74, 0
2, 18240, Note_on_c, 0, 71, 49
2, 18299, Note_on_c, 0, 71, 0
2, 18300, Note_on_c, 0, 72, 49
2, 18359, Note_on_c, 0, 72, 0
2, 18360, Note_on_c, 0, 72, 49
2, 18479, Note_on_c, 0, 72, 0
2, 18720, Note_on_c, 0, 72, 49
2, 19020, Note_on_c, 0, 72, 0
2, 19020, Note_on_c, 0, 70, 50
2, 19079, Note_on_c, 0, 70, 0
2, 19080, Note_on_c, 0, 69, 50
2, 19139, Note_on_c, 0, 69, 0
2, 19140, Note_on_c, 0, 67, 50
2, 19199, Note_on_c, 0, 67, 0
2, 19200, Note_on_c, 0, 67, 50
2, 19259, Note_on_c, 0, 67, 0
2, 19260, Note_on_c, 0, 65, 50
2, 19319, Note_on_c, 0, 65, 0
2, 21120, Note_on_c, 0, 68, 33
2, 21359, Note_on_c, 0, 68, 0
2, 21360, Note_on_c, 0, 73, 41
2, 21590, Note_on_c, 0, 77, 44
2, 21599, Note_on_c, 0, 73, 0
2, 21600, Note_on_c, 0, 77, 0
2, 21607, Note_on_c, 0, 75, 46
2, 21720, Note_on_c, 0, 75, 47
2, 21727, Note_on_c, 0, 75, 0
2, 21779, Note_on_c, 0, 75, 0
2, 21780, Note_on_c, 0, 75, 47
2, 21839, Note_on_c, 0, 75, 0
2, 21840, Note_on_c, 0, 75, 49
2, 21879, Note_on_c, 0, 73, 49
2, 21880, Note_on_c, 0, 75, 0
2, 21919, Note_on_c, 0, 73, 0
2, 21919, Note_on_c, 0, 72, 49
2, 21960, Note_on_c, 0, 72, 0
2, 21960, Note_on_c, 0, 72, 50
2, 21999, Note_on_c, 0, 70, 50
2, 22000, Note_on_c, 0, 72, 0
2, 22039, Note_on_c, 0, 70, 0
2, 22039, Note_on_c, 0, 68, 50
2, 22080, Note_on_c, 0, 68, 0
2, 22080, Note_on_c, 0, 75, 51
2, 22139, Note_on_c, 0, 75, 0
2, 22140, Note_on_c, 0, 73, 51
2, 22199, Note_on_c, 0, 73, 0
2, 23040, Note_on_c, 0, 68, 37
2, 23279, Note_on_c, 0, 68, 0
2, 23280, Note_on_c, 0, 73, 40
2, 23510, Note_on_c, 0, 77, 41
2, 23519, Note_on_c, 0, 77, 0
2, 23519, Note_on_c, 0, 73, 0
2, 23527, Note_on_c, 0, 75, 42
2, 23640, Note_on_c, 0, 75, 44
2, 23647, Note_on_c, 0, 75, 0
2, 23699, Note_on_c, 0, 75, 0
2, 23700, Note_on_c, 0, 75, 45
2, 23732, Note_on_c, 0, 75, 0
2, 23760, Note_on_c, 0, 75, 46
2, 23799, Note_on_c, 0, 73, 46
2, 23800, Note_on_c, 0, 75, 0
2, 23839, Note_on_c, 0, 73, 0
2, 23839, Note_on_c, 0, 72, 46
2, 23880, Note_on_c, 0, 72, 0
2, 23880, Note_on_c, 0, 72, 46
2, 23919, Note_on_c, 0, 70, 46
2, 23920, Note_on_c, 0, 72, 0
2, 23959, Note_on_c, 0, 70, 0
2, 23959, Note_on_c, 0, 68, 47
2, 24000, Note_on_c, 0, 68, 0
2, 24000, Note_on_c, 0, 75, 48
2, 24059, Note_on_c, 0, 75, 0
2, 24060, Note_on_c, 0, 73, 49
2, 24119, Note_on_c, 0, 73, 0
2, 24360, Note_on_c, 0, 73, 88
2, 24449, Note_on_c, 0, 73, 0
2, 24450, Note_on_c, 0, 73, 99
2, 24480, Note_on_c, 0, 73, 0
2, 24480, Note_on_c, 0, 73, 100
2, 24599, Note_on_c, 0, 73, 0
2, 24840, Note_on_c, 0, 73, 41
2, 24959, Note_on_c, 0, 73, 0
2, 24960, Note_on_c, 0, 72, 48
2, 25079, Note_on_c, 0, 72, 0
2, 25080, Note_on_c, 0, 75, 51
2, 25199, Note_on_c, 0, 75, 0
2, 25200, Note_on_c, 0, 70, 53
2, 25319, Note_on_c, 0, 70, 0
2, 25320, Note_on_c, 0, 75, 54
2, 25439, Note_on_c, 0, 75, 0
2, 25440, Note_on_c, 0, 73, 55
2, 25499, Note_on_c, 0, 73, 0
2, 25500, Note_on_c, 0, 72, 55
2, 25559, Note_on_c, 0, 72, 0
2, 25560, Note_on_c, 0, 72, 45
2, 25679, Note_on_c, 0, 72, 0
2, 26280, Note_on_c, 0, 75, 87
2, 26369, Note_on_c, 0, 75, 0
2, 26370, Note_on_c, 0, 75, 99
2, 26400, Note_on_c, 0, 75, 0
2, 26400, Note_on_c, 0, 75, 100
2, 26519, Note_on_c, 0, 75, 0
2, 26520, Note_on_c, 0, 65, 103
2, 26639, Note_on_c, 0, 65, 0
2, 26760, Note_on_c, 0, 75, 43
2, 26879, Note_on_c, 0, 75, 0
2, 26880, Note_on_c, 0, 73, 47
2, 26999, Note_on_c, 0, 73, 0
2, 27000, Note_on_c, 0, 77, 52
2, 27119, Note_on_c, 0, 77, 0
2, 27120, Note_on_c, 0, 72, 53
2, 27239, Note_on_c, 0, 72, 0
2, 27240, Note_on_c, 0, 77, 53
2, 27359, Note_on_c, 0, 77, 0
2, 27360, Note_on_c, 0, 75, 50
2, 27479, Note_on_c, 0, 75, 0
2, 27480, Note_on_c, 0, 73, 44
2, 27719, Note_on_c, 0, 73, 0
2, 27720, Note_on_c, 0, 71, 46
2, 27839, Note_on_c, 0, 71, 0
2, 27840, Note_on_c, 0, 70, 50
2, 28079, Note_on_c, 0, 70, 0
2, 28080, Note_on_c, 0, 75, 56
2, 28258, Note_on_c, 0, 75, 0
2, 28260, Note_on_c, 0, 75, 50
2, 28319, Note_on_c, 0, 75, 0
2, 28320, Note_on_c, 0, 73, 47
2, 28800, Note_on_c, 0, 73, 0
2, 28800, Note_on_c, 0, 66, 44
2, 28919, Note_on_c, 0, 66, 0
2, 29160, Note_on_c, 0, 70, 51
2, 29249, Note_on_c, 0, 70, 0
2, 29250, Note_on_c, 0, 70, 52
2, 29280, Note_on_c, 0, 70, 0
2, 29280, Note_on_c, 0, 71, 52
2, 29399, Note_on_c, 0, 71, 0
2, 29400, Note_on_c, 0, 71, 53
2, 29489, Note_on_c, 0, 71, 0
2, 29490, Note_on_c, 0, 71, 53
2, 29510, Note_on_c, 0, 73, 53
2, 29520, Note_on_c, 0, 73, 0
2, 29520, Note_on_c, 0, 71, 0
2, 29520, Note_on_c, 0, 71, 53
2, 29559, Note_on_c, 0, 70, 53
2, 29564, Note_on_c, 0, 71, 0
2, 29599, Note_on_c, 0, 70, 0
2, 29599, Note_on_c, 0, 71, 53
2, 29630, Note_on_c, 0, 73, 54
2, 29640, Note_on_c, 0, 73, 0
2, 29640, Note_on_c, 0, 71, 0
2, 29640, Note_on_c, 0, 71, 54
2, 29679, Note_on_c, 0, 70, 54
2, 29684, Note_on_c, 0, 71, 0
2, 29719, Note_on_c, 0, 70, 0
2, 29719, Note_on_c, 0, 71, 54
2, 29760, Note_on_c, 0, 71, 0
2, 29760, Note_on_c, 0, 71, 54
2, 29819, Note_on_c, 0, 71, 0
2, 29820, Note_on_c, 0, 70, 54
2, 29879, Note_on_c, 0, 70, 0
2, 30120, Note_on_c, 0, 70, 54
2, 30209, Note_on_c, 0, 70, 0
2, 30210, Note_on_c, 0, 70, 54
2, 30240, Note_on_c, 0, 70, 0
2, 30240, Note_on_c, 0, 71, 54
2, 30359, Note_on_c, 0, 71, 0
2, 30360, Note_on_c, 0, 71, 54
2, 30449, Note_on_c, 0, 71, 0
2, 30450, Note_on_c, 0, 71, 54
2, 30470, Note_on_c, 0, 73, 54
2, 30480, Note_on_c, 0, 73, 0
2, 30480, Note_on_c, 0, 71, 0
2, 30480, Note_on_c, 0, 71, 54
2, 30519, Note_on_c, 0, 70, 54
2, 30524, Note_on_c, 0, 71, 0
2, 30559, Note_on_c, 0, 70, 0
2, 30559, Note_on_c, 0, 71, 54
2, 30590, Note_on_c, 0, 73, 54
2, 30600, Note_on_c, 0, 73, 0
2, 30600, Note_on_c, 0, 71, 0
2, 30600, Note_on_c, 0, 71, 54
2, 30639, Note_on_c, 0, 70, 54
2, 30644, Note_on_c, 0, 71, 0
2, 30679, Note_on_c, 0, 70, 0
2, 30679, Note_on_c, 0, 71, 54
2, 30720, Note_on_c, 0, 71, 0
2, 30720, Note_on_c, 0, 71, 54
2, 30779, Note_on_c, 0, 71, 0
2, 30780, Note_on_c, 0, 70, 54
2, 30839, Note_on_c, 0, 70, 0
2, 31080, Note_on_c, 0, 73, 89
2, 31169, Note_on_c, 0, 73, 0
2, 31170, Note_on_c, 0, 70, 88
2, 31200, Note_on_c, 0, 70, 0
2, 31200, Note_on_c, 0, 69, 92
2, 31259, Note_on_c, 0, 69, 0
2, 31260, Note_on_c, 0, 72, 104
2, 31319, Note_on_c, 0, 72, 0
2, 31399, Note_on_c, 0, 77, 86
2, 31440, Note_on_c, 0, 77, 0
2, 31440, Note_on_c, 0, 77, 57
2, 31479, Note_on_c, 0, 75, 57
2, 31480, Note_on_c, 0, 77, 0
2, 31519, Note_on_c, 0, 75, 0
2, 31519, Note_on_c, 0, 73, 56
2, 31560, Note_on_c, 0, 73, 0
2, 31560, Note_on_c, 0, 73, 55
2, 31599, Note_on_c, 0, 72, 55
2, 31600, Note_on_c, 0, 73, 0
2, 31639, Note_on_c, 0, 72, 0
2, 31639, Note_on_c, 0, 70, 55
2, 31680, Note_on_c, 0, 70, 0
2, 31680, Note_on_c, 0, 69, 54
2, 31719, Note_on_c, 0, 72, 54
2, 31720, Note_on_c, 0, 69, 0
2, 31759, Note_on_c, 0, 72, 0
2, 31759, Note_on_c, 0, 72, 54
2, 31800, Note_on_c, 0, 72, 0
2, 31879, Note_on_c, 0, 77, 54
2, 31920, Note_on_c, 0, 77, 0
2, 31920, Note_on_c, 0, 77, 54
2, 31959, Note_on_c, 0, 75, 54
2, 31960, Note_on_c, 0, 77, 0
2, 31999, Note_on_c, 0, 75, 0
2, 31999, Note_on_c, 0, 73, 54
2, 32040, Note_on_c, 0, 73, 0
2, 32040, Note_on_c, 0, 73, 54
2, 32079, Note_on_c, 0, 72, 54
2, 32080, Note_on_c, 0, 73, 0
2, 32119, Note_on_c, 0, 72, 0
2, 32119, Note_on_c, 0, 70, 55
2, 32160, Note_on_c, 0, 70, 0
2, 32160, Note_on_c, 0, 77, 56
2, 32279, Note_on_c, 0, 77, 0
2, 32280, Note_on_c, 0, 65, 58
2, 32399, Note_on_c, 0, 65, 0
2, 32640, Note_on_c, 0, 75, 50
2, 32879, Note_on_c, 0, 75, 0
2, 32880, Note_on_c, 0, 76, 52
2, 33058, Note_on_c, 0, 76, 0
2, 33060, Note_on_c, 0, 76, 52
2, 33119, Note_on_c, 0, 76, 0
2, 33120, Note_on_c, 0, 79, 52
2, 33179, Note_on_c, 0, 79, 0
2, 33180, Note_on_c, 0, 77, 52
2, 33239, Note_on_c, 0, 77, 0
2, 33600, Note_on_c, 0, 75, 52
2, 33839, Note_on_c, 0, 75, 0
2, 33840, Note_on_c, 0, 76, 52
2, 34018, Note_on_c, 0, 76, 0
2, 34020, Note_on_c, 0, 76, 48
2, 34079, Note_on_c, 0, 76, 0
2, 34080, Note_on_c, 0, 77, 104
2, 34199, Note_on_c, 0, 77, 0
2, 34200, Note_on_c, 0, 75, 92
2, 34439, Note_on_c, 0, 75, 0
2, 35520, Note_on_c, 0, 70, 46
2, 35880, Note_on_c, 0, 70, 0
2, 35880, Note_on_c, 0, 70, 53
2, 35999, Note_on_c, 0, 70, 0
2, 36000, Note_on_c, 0, 74, 53
2, 36119, Note_on_c, 0, 74, 0
2, 36120, Note_on_c, 0, 72, 55
2, 36239, Note_on_c, 0, 72, 0
2, 36360, Note_on_c, 0, 72, 55
2, 36479, Note_on_c, 0, 72, 0
2, 36480, Note_on_c, 0, 74, 56
2, 36719, Note_on_c, 0, 74, 0
2, 36720, Note_on_c, 0, 75, 56
2, 36839, Note_on_c, 0, 75, 0
2, 36840, Note_on_c, 0, 75, 56
2, 36959, Note_on_c, 0, 75, 0
2, 36960, Note_on_c, 0, 79, 56
2, 37080, Note_on_c, 0, 79, 0
2, 37080, Note_on_c, 0, 77, 56
2, 37200, Note_on_c, 0, 77, 0
2, 37200, Note_on_c, 0, 75, 56
2, 37320, Note_on_c, 0, 75, 0
2, 37320, Note_on_c, 0, 74, 56
2, 37440, Note_on_c, 0, 74, 0
2, 37440, Note_on_c, 0, 74, 56
2, 37560, Note_on_c, 0, 74, 0
2, 37560, Note_on_c, 0, 72, 56
2, 37680, Note_on_c, 0, 72, 0
2, 37680, Note_on_c, 0, 72, 56
2, 37800, Note_on_c, 0, 72, 0
2, 37800, Note_on_c, 0, 70, 56
2, 37920, Note_on_c, 0, 70, 0
2, 37920, Note_on_c, 0, 74, 55
2, 38159, Note_on_c, 0, 74, 0
2, 38160, Note_on_c, 0, 72, 55
2, 38279, Note_on_c, 0, 72, 0
2, 40200, Note_on_c, 0, 72, 49
2, 40319, Note_on_c, 0, 72, 0
2, 40320, Note_on_c, 0, 74, 52
2, 40559, Note_on_c, 0, 74, 0
2, 40560, Note_on_c, 0, 75, 54
2, 40679, Note_on_c, 0, 75, 0
2, 40680, Note_on_c, 0, 75, 54
2, 40799, Note_on_c, 0, 75, 0
2, 40800, Note_on_c, 0, 79, 55
2, 40920, Note_on_c, 0, 79, 0
2, 40920, Note_on_c, 0, 77, 56
2, 41040, Note_on_c, 0, 77, 0
2, 41040, Note_on_c, 0, 75, 57
2, 41160, Note_on_c, 0, 75, 0
2, 41160, Note_on_c, 0, 74, 57
2, 41280, Note_on_c, 0, 74, 0
2, 41280, Note_on_c, 0, 74, 58
2, 41400, Note_on_c, 0, 74, 0
2, 41400, Note_on_c, 0, 72, 58
2, 41520, Note_on_c, 0, 72, 0
2, 41520, Note_on_c, 0, 70, 58
2, 41640, Note_on_c, 0, 70, 0
2, 41640, Note_on_c, 0, 69, 59
2, 41760, Note_on_c, 0, 69, 0
2, 41760, Note_on_c, 0, 72, 59
2, 41999, Note_on_c, 0, 72, 0
2, 42000, Note_on_c, 0, 70, 59
2, 42119, Note_on_c, 0, 70, 0
2, 42240, Note_on_c, 0, 70, 60
2, 42479, Note_on_c, 0, 70, 0
2, 42480, Note_on_c, 0, 70, 60
2, 42719, Note_on_c, 0, 70, 0
2, 42720, Note_on_c, 0, 71, 60
2, 42839, Note_on_c, 0, 71, 0
2, 42840, Note_on_c, 0, 72, 60
2, 42959, Note_on_c, 0, 72, 0
2, 42960, Note_on_c, 0, 72, 61
2, 43079, Note_on_c, 0, 72, 0
2, 43080, Note_on_c, 0, 74, 61
2, 43199, Note_on_c, 0, 74, 0
2, 43200, Note_on_c, 0, 75, 61
2, 43319, Note_on_c, 0, 75, 0
2, 43320, Note_on_c, 0, 72, 61
2, 43439, Note_on_c, 0, 72, 0
2, 43440, Note_on_c, 0, 67, 61
2, 43559, Note_on_c, 0, 67, 0
2, 43560, Note_on_c, 0, 69, 61
2, 43679, Note_on_c, 0, 69, 0
2, 43680, Note_on_c, 0, 72, 61
2, 43799, Note_on_c, 0, 72, 0
2, 43800, Note_on_c, 0, 70, 61
2, 43919, Note_on_c, 0, 70, 0
2, 43920, Note_on_c, 0, 70, 61
2, 44159, Note_on_c, 0, 70, 0
2, 44160, Note_on_c, 0, 70, 60
2, 44520, Note_on_c, 0, 70, 0
2, 44520, Note_on_c, 0, 71, 59
2, 44639, Note_on_c, 0, 71, 0
2, 44640, Note_on_c, 0, 72, 59
2, 45000, Note_on_c, 0, 72, 0
2, 45000, Note_on_c, 0, 74, 57
2, 45119, Note_on_c, 0, 74, 0
2, 45120, Note_on_c, 0, 77, 57
2, 45240, Note_on_c, 0, 75, 56
2, 45247, Note_on_c, 0, 77, 0
2, 45360, Note_on_c, 0, 74, 55
2, 45367, Note_on_c, 0, 75, 0
2, 45480, Note_on_c, 0, 72, 54
2, 45487, Note_on_c, 0, 74, 0
2, 45600, Note_on_c, 0, 72, 0
2, 45600, Note_on_c, 0, 72, 53
2, 45719, Note_on_c, 0, 72, 0
2, 45720, Note_on_c, 0, 70, 53
2, 45839, Note_on_c, 0, 70, 0
2, 46080, Note_on_c, 0, 74, 50
2, 46440, Note_on_c, 0, 74, 0
2, 46440, Note_on_c, 0, 70, 48
2, 46559, Note_on_c, 0, 70, 0
2, 46560, Note_on_c, 0, 69, 47
2, 46679, Note_on_c, 0, 69, 0
2, 46680, Note_on_c, 0, 67, 47
2, 46799, Note_on_c, 0, 67, 0
2, 47040, Note_on_c, 0, 75, 46
2, 47400, Note_on_c, 0, 75, 0
2, 47400, Note_on_c, 0, 72, 47
2, 47519, Note_on_c, 0, 72, 0
2, 47520, Note_on_c, 0, 70, 48
2, 47639, Note_on_c, 0, 70, 0
2, 47640, Note_on_c, 0, 69, 50
2, 47759, Note_on_c, 0, 69, 0
2, 47880, Note_on_c, 0, 69, 55
2, 47999, Note_on_c, 0, 69, 0
2, 48000, Note_on_c, 0, 77, 57
2, 48119, Note_on_c, 0, 77, 0
2, 48120, Note_on_c, 0, 77, 50
2, 48239, Note_on_c, 0, 77, 0
2, 48240, Note_on_c, 0, 77, 47
2, 48359, Note_on_c, 0, 77, 0
2, 48360, Note_on_c, 0, 74, 44
2, 48479, Note_on_c, 0, 74, 0
2, 48480, Note_on_c, 0, 72, 47
2, 48599, Note_on_c, 0, 72, 0
2, 48600, Note_on_c, 0, 70, 44
2, 48719, Note_on_c, 0, 70, 0
2, 48840, Note_on_c, 0, 70, 49
2, 48959, Note_on_c, 0, 70, 0
2, 48960, Note_on_c, 0, 79, 58
2, 49079, Note_on_c, 0, 79, 0
2, 49080, Note_on_c, 0, 79, 53
2, 49199, Note_on_c, 0, 79, 0
2, 49200, Note_on_c, 0, 79, 50
2, 49319, Note_on_c, 0, 79, 0
2, 49320, Note_on_c, 0, 75, 49
2, 49439, Note_on_c, 0, 75, 0
2, 49440, Note_on_c, 0, 74, 47
2, 49559, Note_on_c, 0, 74, 0
2, 49560, Note_on_c, 0, 72, 47
2, 49679, Note_on_c, 0, 72, 0
2, 50880, Note_on_c, 0, 72, 52
2, 51119, Note_on_c, 0, 72, 0
2, 51120, Note_on_c, 0, 74, 55
2, 51298, Note_on_c, 0, 74, 0
2, 51300, Note_on_c, 0, 74, 56
2, 51359, Note_on_c, 0, 74, 0
2, 51360, Note_on_c, 0, 77, 56
2, 51480, Note_on_c, 0, 77, 0
2, 51480, Note_on_c, 0, 75, 56
2, 51600, Note_on_c, 0, 75, 0
2, 51600, Note_on_c, 0, 74, 56
2, 51839, Note_on_c, 0, 74, 0
2, 52800, Note_on_c, 0, 77, 89
2, 53040, Note_on_c, 0, 77, 0
2, 53040, Note_on_c, 0, 78, 123
2, 53280, Note_on_c, 0, 78, 0
2, 53280, Note_on_c, 0, 79, 125
2, 53640, Note_on_c, 0, 79, 0
2, 53640, Note_on_c, 0, 75, 127
2, 53699, Note_on_c, 0, 75, 0
2, 53700, Note_on_c, 0, 72, 127
2, 53759, Note_on_c, 0, 72, 0
2, 53760, Note_on_c, 0, 70, 127
2, 54000, Note_on_c, 0, 70, 0
2, 54000, Note_on_c, 0, 74, 126
2, 54120, Note_on_c, 0, 74, 0
2, 54120, Note_on_c, 0, 72, 126
2, 54240, Note_on_c, 0, 72, 0
2, 54240, Note_on_c, 0, 70, 125
2, 54359, Note_on_c, 0, 70, 0
2, 55680, Note_on_c, 0, 70, 117
2, 56040, Note_on_c, 0, 70, 0
2, 56040, Note_on_c, 0, 70, 117
2, 56159, Note_on_c, 0, 70, 0
2, 56160, Note_on_c, 0, 73, 117
2, 56279, Note_on_c, 0, 73, 0
2, 56280, Note_on_c, 0, 72, 117
2, 56399, Note_on_c, 0, 72, 0
2, 57600, Note_on_c, 0, 73, 118
2, 57960, Note_on_c, 0, 73, 0
2, 57960, Note_on_c, 0, 73, 121
2, 58079, Note_on_c, 0, 73, 0
2, 58080, Note_on_c, 0, 77, 122
2, 58199, Note_on_c, 0, 77, 0
2, 58200, Note_on_c, 0, 75, 121
2, 58319, Note_on_c, 0, 75, 0
2, 59400, Note_on_c, 0, 77, 49
2, 59519, Note_on_c, 0, 77, 0
2, 59520, Note_on_c, 0, 78, 50
2, 59759, Note_on_c, 0, 78, 0
2, 59760, Note_on_c, 0, 77, 52
2, 59879, Note_on_c, 0, 77, 0
2, 59880, Note_on_c, 0, 77, 52
2, 59999, Note_on_c, 0, 77, 0
2, 60000, Note_on_c, 0, 77, 53
2, 60120, Note_on_c, 0, 77, 0
2, 60120, Note_on_c, 0, 75, 53
2, 60240, Note_on_c, 0, 75, 0
2, 60360, Note_on_c, 0, 73, 53
2, 60479, Note_on_c, 0, 73, 0
2, 60480, Note_on_c, 0, 73, 53
2, 60600, Note_on_c, 0, 73, 0
2, 60600, Note_on_c, 0, 72, 53
2, 60720, Note_on_c, 0, 72, 0
2, 60720, Note_on_c, 0, 72, 52
2, 60840, Note_on_c, 0, 72, 0
2, 60840, Note_on_c, 0, 70, 51
2, 60960, Note_on_c, 0, 70, 0
2, 60960, Note_on_c, 0, 70, 50
2, 61080, Note_on_c, 0, 70, 0
2, 61080, Note_on_c, 0, 69, 49
2, 61200, Note_on_c, 0, 69, 0
2, 61200, Note_on_c, 0, 69, 48
2, 61439, Note_on_c, 0, 69, 0
2, 61680, Note_on_c, 0, 72, 46
2, 61799, Note_on_c, 0, 72, 0
2, 61800, Note_on_c, 0, 72, 47
2, 61919, Note_on_c, 0, 72, 0
2, 61920, Note_on_c, 0, 73, 49
2, 62159, Note_on_c, 0, 73, 0
2, 62160, Note_on_c, 0, 73, 53
2, 62279, Note_on_c, 0, 73, 0
2, 62280, Note_on_c, 0, 73, 54
2, 62399, Note_on_c, 0, 73, 0
2, 62400, Note_on_c, 0, 75, 54
2, 62519, Note_on_c, 0, 75, 0
2, 62520, Note_on_c, 0, 73, 54
2, 62639, Note_on_c, 0, 73, 0
2, 62640, Note_on_c, 0, 72, 54
2, 62759, Note_on_c, 0, 72, 0
2, 62760, Note_on_c, 0, 70, 54
2, 62879, Note_on_c, 0, 70, 0
2, 62880, Note_on_c, 0, 69, 53
2, 63000, Note_on_c, 0, 69, 0
2, 63000, Note_on_c, 0, 72, 52
2, 63120, Note_on_c, 0, 72, 0
2, 63120, Note_on_c, 0, 72, 50
2, 63359, Note_on_c, 0, 72, 0
2, 63600, Note_on_c, 0, 77, 48
2, 63839, Note_on_c, 0, 77, 0
2, 63840, Note_on_c, 0, 76, 50
2, 63959, Note_on_c, 0, 76, 0
2, 63960, Note_on_c, 0, 77, 51
2, 64079, Note_on_c, 0, 77, 0
2, 64080, Note_on_c, 0, 78, 52
2, 64199, Note_on_c, 0, 78, 0
2, 64200, Note_on_c, 0, 77, 52
2, 64319, Note_on_c, 0, 77, 0
2, 64320, Note_on_c, 0, 75, 52
2, 64439, Note_on_c, 0, 75, 0
2, 64440, Note_on_c, 0, 73, 50
2, 64559, Note_on_c, 0, 73, 0
2, 64560, Note_on_c, 0, 72, 51
2, 64679, Note_on_c, 0, 72, 0
2, 64680, Note_on_c, 0, 70, 52
2, 64799, Note_on_c, 0, 70, 0
2, 64800, Note_on_c, 0, 77, 54
2, 65039, Note_on_c, 0, 77, 0
2, 65040, Note_on_c, 0, 65, 48
2, 65279, Note_on_c, 0, 65, 0
2, 65760, Note_on_c, 0, 74, 35
2, 66120, Note_on_c, 0, 74, 0
2, 66120, Note_on_c, 0, 70, 36
2, 66239, Note_on_c, 0, 70, 0
2, 66240, Note_on_c, 0, 69, 36
2, 66359, Note_on_c, 0, 69, 0
2, 66360, Note_on_c, 0, 67, 39
2, 66479, Note_on_c, 0, 67, 0
2, 66720, Note_on_c, 0, 75, 44
2, 67080, Note_on_c, 0, 75, 0
2, 67080, Note_on_c, 0, 72, 48
2, 67199, Note_on_c, 0, 72, 0
2, 67200, Note_on_c, 0, 70, 49
2, 67319, Note_on_c, 0, 70, 0
2, 67320, Note_on_c, 0, 69, 51
2, 67439, Note_on_c, 0, 69, 0
2, 67560, Note_on_c, 0, 69, 57
2, 67679, Note_on_c, 0, 69, 0
2, 67680, Note_on_c, 0, 77, 59
2, 67799, Note_on_c, 0, 77, 0
2, 67800, Note_on_c, 0, 77, 60
2, 67919, Note_on_c, 0, 77, 0
2, 67920, Note_on_c, 0, 77, 60
2, 68039, Note_on_c, 0, 77, 0
2, 68040, Note_on_c, 0, 74, 57
2, 68159, Note_on_c, 0, 74, 0
2, 68160, Note_on_c, 0, 72, 55
2, 68279, Note_on_c, 0, 72, 0
2, 68280, Note_on_c, 0, 70, 53
2, 68399, Note_on_c, 0, 70, 0
2, 68520, Note_on_c, 0, 70, 87
2, 68639, Note_on_c, 0, 70, 0
2, 68640, Note_on_c, 0, 79, 113
2, 68759, Note_on_c, 0, 79, 0
2, 68760, Note_on_c, 0, 79, 110
2, 68879, Note_on_c, 0, 79, 0
2, 68880, Note_on_c, 0, 79, 108
2, 68999, Note_on_c, 0, 79, 0
2, 69000, Note_on_c, 0, 75, 106
2, 69119, Note_on_c, 0, 75, 0
2, 69120, Note_on_c, 0, 74, 105
2, 69239, Note_on_c, 0, 74, 0
2, 69240, Note_on_c, 0, 72, 104
2, 69359, Note_on_c, 0, 72, 0
2, 70560, Note_on_c, 0, 72, 52
2, 70799, Note_on_c, 0, 72, 0
2, 70800, Note_on_c, 0, 74, 52
2, 70978, Note_on_c, 0, 74, 0
2, 70980, Note_on_c, 0, 74, 51
2, 71039, Note_on_c, 0, 74, 0
2, 71040, Note_on_c, 0, 75, 51
2, 71279, Note_on_c, 0, 75, 0
2, 71280, Note_on_c, 0, 74, 51
2, 71519, Note_on_c, 0, 74, 0
2, 72480, Note_on_c, 0, 77, 96
2, 72720, Note_on_c, 0, 78, 105
2, 72726, Note_on_c, 0, 77, 0
2, 72960, Note_on_c, 0, 78, 0
2, 72960, Note_on_c, 0, 79, 108
2, 73080, Note_on_c, 0, 79, 0
2, 73080, Note_on_c, 0, 81, 109
2, 73140, Note_on_c, 0, 79, 109
2, 73145, Note_on_c, 0, 81, 0
2, 73200, Note_on_c, 0, 77, 109
2, 73205, Note_on_c, 0, 79, 0
2, 73260, Note_on_c, 0, 75, 109
2, 73265, Note_on_c, 0, 77, 0
2, 73320, Note_on_c, 0, 74, 109
2, 73325, Note_on_c, 0, 75, 0
2, 73380, Note_on_c, 0, 72, 109
2, 73385, Note_on_c, 0, 74, 0
2, 73440, Note_on_c, 0, 70, 108
2, 73445, Note_on_c, 0, 72, 0
2, 73679, Note_on_c, 0, 70, 0
2, 73680, Note_on_c, 0, 74, 105
2, 73799, Note_on_c, 0, 74, 0
2, 73800, Note_on_c, 0, 72, 105
2, 73919, Note_on_c, 0, 72, 0
2, 73920, Note_on_c, 0, 70, 103
2, 74039, Note_on_c, 0, 70, 0
2, 74400, Note_on_c, 0, 72, 54
2, 74519, Note_on_c, 0, 72, 0
2, 74520, Note_on_c, 0, 72, 57
2, 74639, Note_on_c, 0, 72, 0
2, 74880, Note_on_c, 0, 74, 61
2, 74999, Note_on_c, 0, 74, 0
2, 75000, Note_on_c, 0, 74, 61
2, 75119, Note_on_c, 0, 74, 0
2, 75240, Note_on_c, 0, 74, 62
2, 75359, Note_on_c, 0, 74, 0
2, 75360, Note_on_c, 0, 75, 62
2, 75479, Note_on_c, 0, 75, 0
2, 75480, Note_on_c, 0, 75, 63
2, 75599, Note_on_c, 0, 75, 0
2, 75600, Note_on_c, 0, 75, 63
2, 75719, Note_on_c, 0, 75, 0
2, 75720, Note_on_c, 0, 75, 64
2, 75839, Note_on_c, 0, 75, 0
2, 75840, Note_on_c, 0, 75, 65
2, 75959, Note_on_c, 0, 75, 0
2, 75960, Note_on_c, 0, 74, 66
2, 76079, Note_on_c, 0, 74, 0
2, 76200, Note_on_c, 0, 74, 66
2, 76319, Note_on_c, 0, 74, 0
2, 76320, Note_on_c, 0, 71, 66
2, 76440, Note_on_c, 0, 72, 66
2, 76443, Note_on_c, 0, 71, 0
2, 76560, Note_on_c, 0, 71, 65
2, 76563, Note_on_c, 0, 72, 0
2, 76680, Note_on_c, 0, 72, 65
2, 76683, Note_on_c, 0, 71, 0
2, 76800, Note_on_c, 0, 73, 64
2, 76803, Note_on_c, 0, 72, 0
2, 76920, Note_on_c, 0, 74, 63
2, 76923, Note_on_c, 0, 73, 0
2, 77040, Note_on_c, 0, 73, 62
2, 77043, Note_on_c, 0, 74, 0
2, 77160, Note_on_c, 0, 74, 62
2, 77163, Note_on_c, 0, 73, 0
2, 77280, Note_on_c, 0, 77, 60
2, 77283, Note_on_c, 0, 74, 0
2, 77400, Note_on_c, 0, 76, 60
2, 77403, Note_on_c, 0, 77, 0
2, 77520, Note_on_c, 0, 75, 58
2, 77523, Note_on_c, 0, 76, 0
2, 77760, Note_on_c, 0, 75, 0
2, 78240, Note_on_c, 0, 72, 56
2, 78720, Note_on_c, 0, 72, 0
2, 78720, Note_on_c, 0, 72, 99
2, 79080, Note_on_c, 0, 72, 0
2, 79080, Note_on_c, 0, 72, 102
2, 79199, Note_on_c, 0, 72, 0
2, 79200, Note_on_c, 0, 73, 102
2, 79560, Note_on_c, 0, 73, 0
2, 79560, Note_on_c, 0, 70, 101
2, 79680, Note_on_c, 0, 70, 0
2, 79680, Note_on_c, 0, 70, 101
2, 79799, Note_on_c, 0, 70, 0
2, 81120, Note_on_c, 0, 74, 66
2, 81600, Note_on_c, 0, 74, 0
2, 81600, Note_on_c, 0, 75, 75
2, 81839, Note_on_c, 0, 75, 0
2, 81840, Note_on_c, 0, 76, 79
2, 82079, Note_on_c, 0, 76, 0
2, 82080, Note_on_c, 0, 77, 122
2, 83040, Note_on_c, 0, 77, 0
2, 85920, Note_on_c, 0, 65, 46
2, 86400, Note_on_c, 0, 65, 0
2, 86400, Note_on_c, 0, 65, 49
2, 86760, Note_on_c, 0, 65, 0
2, 86760, Note_on_c, 0, 65, 50
2, 86879, Note_on_c, 0, 65, 0
2, 86880, Note_on_c, 0, 72, 50
2, 87119, Note_on_c, 0, 72, 0
2, 87120, Note_on_c, 0, 70, 49
2, 87359, Note_on_c, 0, 70, 0
2, 87359, End_track
3, 0, Start_track
3, 0, Title_t, "PianoR"
3, 0, Program_c, 1, 0
3, 0, Control_c, 1, 7, 100
3, 0, Control_c, 1, 10, 25
3, 0, Control_c, 1, 91, 25
3, 0, Control_c, 1, 93, 31
3, 720, Control_c, 1, 91, 21
3, 720, Control_c, 1, 93, 19
3, 780, Control_c, 1, 32, 0
3, 1198, Control_c, 1, 0, 0
3, 1199, Control_c, 1, 32, 0
3, 1200, Program_c, 1, 0
3, 1200, Control_c, 1, 91, 60
3, 1200, Note_on_c, 1, 65, 58
3, 1320, Note_on_c, 1, 70, 60
3, 1324, Note_on_c, 1, 65, 0
3, 1440, Note_on_c, 1, 74, 62
3, 1444, Note_on_c, 1, 70, 0
3, 1680, Note_on_c, 1, 74, 0
3, 1680, Note_on_c, 1, 74, 65
3, 1800, Note_on_c, 1, 74, 0
3, 1800, Note_on_c, 1, 74, 65
3, 1920, Note_on_c, 1, 74, 0
3, 1920, Note_on_c, 1, 75, 63
3, 2098, Note_on_c, 1, 75, 0
3, 2100, Note_on_c, 1, 77, 60
3, 2130, Note_on_c, 1, 77, 0
3, 2130, Note_on_c, 1, 75, 60
3, 2160, Note_on_c, 1, 75, 0
3, 2160, Note_on_c, 1, 74, 58
3, 2219, Note_on_c, 1, 74, 0
3, 2220, Note_on_c, 1, 72, 55
3, 2279, Note_on_c, 1, 72, 0
3, 2280, Note_on_c, 1, 70, 54
3, 2339, Note_on_c, 1, 70, 0
3, 2340, Note_on_c, 1, 69, 53
3, 2399, Note_on_c, 1, 69, 0
3, 2400, Note_on_c, 1, 72, 54
3, 2490, Note_on_c, 1, 72, 0
3, 2490, Note_on_c, 1, 70, 57
3, 2517, Note_on_c, 1, 70, 0
3, 2520, Note_on_c, 1, 82, 60
3, 2694, Note_on_c, 1, 82, 0
3, 2700, Note_on_c, 1, 81, 56
3, 2730, Note_on_c, 1, 81, 0
3, 2730, Note_on_c, 1, 82, 57
3, 2760, Note_on_c, 1, 82, 0
3, 2760, Note_on_c, 1, 84, 58
3, 2790, Note_on_c, 1, 84, 0
3, 2790, Note_on_c, 1, 82, 59
3, 2820, Note_on_c, 1, 82, 0
3, 2820, Note_on_c, 1, 81, 60
3, 2850, Note_on_c, 1, 81, 0
3, 2850, Note_on_c, 1, 79, 61
3, 2877, Note_on_c, 1, 79, 0
3, 2880, Note_on_c, 1, 77, 69
3, 2889, Note_on_c, 1, 79, 48
3, 2890, Note_on_c, 1, 77, 0
3, 2899, Note_on_c, 1, 79, 0
3, 2899, Note_on_c, 1, 77, 45
3, 2909, Note_on_c, 1, 77, 0
3, 2910, Note_on_c, 1, 76, 62
3, 2940, Note_on_c, 1, 76, 0
3, 2940, Note_on_c, 1, 77, 60
3, 2970, Note_on_c, 1, 77, 0
3, 2970, Note_on_c, 1, 82, 59
3, 2997, Note_on_c, 1, 82, 0
3, 3000, Note_on_c, 1, 74, 58
3, 3156, Note_on_c, 1, 74, 0
3, 3159, Note_on_c, 1, 79, 52
3, 3199, Note_on_c, 1, 79, 0
3, 3199, Note_on_c, 1, 77, 54
3, 3239, Note_on_c, 1, 77, 0
3, 3240, Note_on_c, 1, 75, 56
3, 3279, Note_on_c, 1, 74, 56
3, 3280, Note_on_c, 1, 75, 0
3, 3319, Note_on_c, 1, 74, 0
3, 3319, Note_on_c, 1, 72, 57
3, 3359, Note_on_c, 1, 72, 0
3, 3360, Note_on_c, 1, 70, 57
3, 3399, Note_on_c, 1, 77, 58
3, 3400, Note_on_c, 1, 70, 0
3, 3439, Note_on_c, 1, 77, 0
3, 3439, Note_on_c, 1, 74, 58
3, 3479, Note_on_c, 1, 74, 0
3, 3480, Note_on_c, 1, 70, 59
3, 3519, Note_on_c, 1, 74, 59
3, 3520, Note_on_c, 1, 70, 0
3, 3559, Note_on_c, 1, 74, 0
3, 3559, Note_on_c, 1, 70, 59
3, 3599, Note_on_c, 1, 70, 0
3, 3600, Note_on_c, 1, 65, 60
3, 3639, Note_on_c, 1, 70, 60
3, 3640, Note_on_c, 1, 65, 0
3, 3679, Note_on_c, 1, 70, 0
3, 3679, Note_on_c, 1, 65, 61
3, 3719, Note_on_c, 1, 65, 0
3, 3720, Note_on_c, 1, 62, 61
3, 3759, Note_on_c, 1, 65, 61
3, 3760, Note_on_c, 1, 62, 0
3, 3799, Note_on_c, 1, 65, 0
3, 3799, Note_on_c, 1, 62, 61
3, 3839, Note_on_c, 1, 62, 0
3, 3840, Note_on_c, 1, 58, 62
3, 3879, Note_on_c, 1, 62, 62
3, 3880, Note_on_c, 1, 58, 0
3, 3919, Note_on_c, 1, 62, 0
3, 3919, Note_on_c, 1, 58, 62
3, 3959, Note_on_c, 1, 58, 0
3, 3960, Note_on_c, 1, 65, 63
3, 3999, Note_on_c, 1, 62, 63
3, 4000, Note_on_c, 1, 65, 0
3, 4039, Note_on_c, 1, 62, 0
3, 4039, Note_on_c, 1, 58, 63
3, 4076, Note_on_c, 1, 58, 0
3, 4080, Note_on_c, 1, 53, 63
3, 4119, Note_on_c, 1, 58, 63
3, 4120, Note_on_c, 1, 53, 0
3, 4159, Note_on_c, 1, 58, 0
3, 4159, Note_on_c, 1, 62, 63
3, 4199, Note_on_c, 1, 62, 0
3, 4200, Note_on_c, 1, 65, 63
3, 4239, Note_on_c, 1, 62, 63
3, 4240, Note_on_c, 1, 65, 0
3, 4279, Note_on_c, 1, 62, 0
3, 4279, Note_on_c, 1, 58, 63
3, 4316, Note_on_c, 1, 58, 0
3, 4320, Note_on_c, 1, 53, 63
3, 4359, Note_on_c, 1, 60, 63
3, 4360, Note_on_c, 1, 53, 0
3, 4399, Note_on_c, 1, 60, 0
3, 4399, Note_on_c, 1, 63, 63
3, 4439, Note_on_c, 1, 63, 0
3, 4440, Note_on_c, 1, 65, 63
3, 4479, Note_on_c, 1, 63, 63
3, 4480, Note_on_c, 1, 65, 0
3, 4519, Note_on_c, 1, 63, 0
3, 4519, Note_on_c, 1, 60, 63
3, 4559, Note_on_c, 1, 60, 0
3, 4560, Note_on_c, 1, 53, 63
3, 4599, Note_on_c, 1, 57, 63
3, 4600, Note_on_c, 1, 53, 0
3, 4639, Note_on_c, 1, 57, 0
3, 4639, Note_on_c, 1, 60, 62
3, 4679, Note_on_c, 1, 60, 0
3, 4680, Note_on_c, 1, 65, 62
3, 4719, Note_on_c, 1, 60, 61
3, 4720, Note_on_c, 1, 65, 0
3, 4759, Note_on_c, 1, 60, 0
3, 4759, Note_on_c, 1, 57, 61
3, 4796, Note_on_c, 1, 57, 0
3, 4800, Note_on_c, 1, 53, 61
3, 4839, Note_on_c, 1, 58, 60
3, 4840, Note_on_c, 1, 53, 0
3, 4879, Note_on_c, 1, 58, 0
3, 4879, Note_on_c, 1, 62, 60
3, 4919, Note_on_c, 1, 62, 0
3, 4920, Note_on_c, 1, 65, 59
3, 4959, Note_on_c, 1, 62, 59
3, 4960, Note_on_c, 1, 65, 0
3, 4999, Note_on_c, 1, 62, 0
3, 4999, Note_on_c, 1, 58, 59
3, 5036, Note_on_c, 1, 58, 0
3, 5040, Note_on_c, 1, 55, 59
3, 5079, Note_on_c, 1, 58, 59
3, 5080, Note_on_c, 1, 55, 0
3, 5119, Note_on_c, 1, 58, 0
3, 5119, Note_on_c, 1, 63, 59
3, 5159, Note_on_c, 1, 63, 0
3, 5160, Note_on_c, 1, 67, 58
3, 5199, Note_on_c, 1, 63, 58
3, 5200, Note_on_c, 1, 67, 0
3, 5239, Note_on_c, 1, 63, 0
3, 5239, Note_on_c, 1, 58, 58
3, 5279, Note_on_c, 1, 58, 0
3, 5319, Note_on_c, 1, 58, 58
3, 5359, Note_on_c, 1, 58, 0
3, 5359, Note_on_c, 1, 62, 58
3, 5399, Note_on_c, 1, 62, 0
3, 5400, Note_on_c, 1, 65, 58
3, 5439, Note_on_c, 1, 62, 58
3, 5440, Note_on_c, 1, 65, 0
3, 5479, Note_on_c, 1, 62, 0
3, 5479, Note_on_c, 1, 58, 57
3, 5516, Note_on_c, 1, 58, 0
3, 5559, Note_on_c, 1, 57, 57
3, 5599, Note_on_c, 1, 57, 0
3, 5599, Note_on_c, 1, 60, 57
3, 5639, Note_on_c, 1, 60, 0
3, 5640, Note_on_c, 1, 63, 57
3, 5679, Note_on_c, 1, 60, 57
3, 5680, Note_on_c, 1, 63, 0
3, 5719, Note_on_c, 1, 60, 0
3, 5719, Note_on_c, 1, 57, 58
3, 5756, Note_on_c, 1, 57, 0
3, 5799, Note_on_c, 1, 58, 59
3, 5835, Note_on_c, 1, 58, 0
3, 5839, Note_on_c, 1, 62, 60
3, 5876, Note_on_c, 1, 62, 0
3, 5880, Note_on_c, 1, 65, 60
3, 5916, Note_on_c, 1, 65, 0
3, 5919, Note_on_c, 1, 62, 61
3, 5955, Note_on_c, 1, 62, 0
3, 5959, Note_on_c, 1, 58, 62
3, 5996, Note_on_c, 1, 58, 0
3, 6000, Note_on_c, 1, 53, 62
3, 6036, Note_on_c, 1, 53, 0
3, 6039, Note_on_c, 1, 58, 63
3, 6075, Note_on_c, 1, 58, 0
3, 6079, Note_on_c, 1, 62, 64
3, 6116, Note_on_c, 1, 62, 0
3, 6120, Note_on_c, 1, 53, 56
3, 6156, Note_on_c, 1, 53, 0
3, 6159, Note_on_c, 1, 56, 91
3, 6195, Note_on_c, 1, 56, 0
3, 6199, Note_on_c, 1, 59, 112
3, 6236, Note_on_c, 1, 59, 0
3, 6240, Note_on_c, 1, 55, 45
3, 6276, Note_on_c, 1, 55, 0
3, 6279, Note_on_c, 1, 60, 65
3, 6315, Note_on_c, 1, 60, 0
3, 6319, Note_on_c, 1, 63, 64
3, 6356, Note_on_c, 1, 63, 0
3, 6360, Note_on_c, 1, 67, 64
3, 6396, Note_on_c, 1, 67, 0
3, 6399, Note_on_c, 1, 63, 63
3, 6435, Note_on_c, 1, 63, 0
3, 6439, Note_on_c, 1, 60, 63
3, 6476, Note_on_c, 1, 60, 0
3, 6519, Note_on_c, 1, 63, 62
3, 6555, Note_on_c, 1, 63, 0
3, 6559, Note_on_c, 1, 67, 62
3, 6596, Note_on_c, 1, 67, 0
3, 6600, Note_on_c, 1, 72, 62
3, 6636, Note_on_c, 1, 72, 0
3, 6639, Note_on_c, 1, 67, 62
3, 6675, Note_on_c, 1, 67, 0
3, 6679, Note_on_c, 1, 63, 62
3, 6716, Note_on_c, 1, 63, 0
3, 6759, Note_on_c, 1, 62, 61
3, 6795, Note_on_c, 1, 62, 0
3, 6799, Note_on_c, 1, 65, 61
3, 6836, Note_on_c, 1, 65, 0
3, 6840, Note_on_c, 1, 70, 61
3, 6876, Note_on_c, 1, 70, 0
3, 6879, Note_on_c, 1, 65, 61
3, 6915, Note_on_c, 1, 65, 0
3, 6919, Note_on_c, 1, 62, 61
3, 6956, Note_on_c, 1, 62, 0
3, 6960, Note_on_c, 1, 70, 61
3, 6996, Note_on_c, 1, 70, 0
3, 6999, Note_on_c, 1, 65, 61
3, 7035, Note_on_c, 1, 65, 0
3, 7039, Note_on_c, 1, 62, 62
3, 7076, Note_on_c, 1, 62, 0
3, 7080, Note_on_c, 1, 69, 62
3, 7116, Note_on_c, 1, 69, 0
3, 7119, Note_on_c, 1, 65, 62
3, 7155, Note_on_c, 1, 65, 0
3, 7159, Note_on_c, 1, 63, 62
3, 7196, Note_on_c, 1, 63, 0
3, 7239, Note_on_c, 1, 62, 63
3, 7279, Note_on_c, 1, 62, 0
3, 7279, Note_on_c, 1, 70, 63
3, 7319, Note_on_c, 1, 70, 0
3, 7359, Note_on_c, 1, 77, 64
3, 7399, Note_on_c, 1, 77, 0
3, 7399, Note_on_c, 1, 65, 65
3, 7439, Note_on_c, 1, 65, 0
3, 7479, Note_on_c, 1, 75, 65
3, 7519, Note_on_c, 1, 75, 0
3, 7519, Note_on_c, 1, 65, 64
3, 7559, Note_on_c, 1, 65, 0
3, 7599, Note_on_c, 1, 74, 64
3, 7639, Note_on_c, 1, 74, 0
3, 7639, Note_on_c, 1, 65, 64
3, 7679, Note_on_c, 1, 65, 0
3, 7719, Note_on_c, 1, 72, 63
3, 7759, Note_on_c, 1, 72, 0
3, 7759, Note_on_c, 1, 65, 63
3, 7799, Note_on_c, 1, 65, 0
3, 7839, Note_on_c, 1, 70, 63
3, 7879, Note_on_c, 1, 70, 0
3, 7879, Note_on_c, 1, 65, 63
3, 7919, Note_on_c, 1, 65, 0
3, 7959, Note_on_c, 1, 63, 62
3, 7959, Note_on_c, 1, 69, 62
3, 7999, Note_on_c, 1, 69, 0
3, 7999, Note_on_c, 1, 63, 0
3, 7999, Note_on_c, 1, 65, 61
3, 8039, Note_on_c, 1, 65, 0
3, 8079, Note_on_c, 1, 63, 61
3, 8079, Note_on_c, 1, 69, 61
3, 8119, Note_on_c, 1, 69, 0
3, 8119, Note_on_c, 1, 63, 0
3, 8119, Note_on_c, 1, 65, 60
3, 8159, Note_on_c, 1, 65, 0
3, 8199, Note_on_c, 1, 62, 59
3, 8199, Note_on_c, 1, 70, 59
3, 8239, Note_on_c, 1, 70, 0
3, 8239, Note_on_c, 1, 62, 0
3, 8239, Note_on_c, 1, 65, 59
3, 8279, Note_on_c, 1, 65, 0
3, 8319, Note_on_c, 1, 77, 58
3, 8359, Note_on_c, 1, 77, 0
3, 8359, Note_on_c, 1, 65, 57
3, 8399, Note_on_c, 1, 65, 0
3, 8439, Note_on_c, 1, 75, 57
3, 8479, Note_on_c, 1, 75, 0
3, 8479, Note_on_c, 1, 65, 56
3, 8519, Note_on_c, 1, 65, 0
3, 8559, Note_on_c, 1, 74, 56
3, 8599, Note_on_c, 1, 74, 0
3, 8599, Note_on_c, 1, 65, 56
3, 8639, Note_on_c, 1, 65, 0
3, 8679, Note_on_c, 1, 72, 55
3, 8715, Note_on_c, 1, 72, 0
3, 8719, Note_on_c, 1, 65, 54
3, 8756, Note_on_c, 1, 65, 0
3, 8799, Note_on_c, 1, 70, 53
3, 8835, Note_on_c, 1, 70, 0
3, 8839, Note_on_c, 1, 65, 53
3, 8876, Note_on_c, 1, 65, 0
3, 8919, Note_on_c, 1, 63, 52
3, 8919, Note_on_c, 1, 69, 52
3, 8955, Note_on_c, 1, 69, 0
3, 8955, Note_on_c, 1, 63, 0
3, 8959, Note_on_c, 1, 65, 52
3, 8996, Note_on_c, 1, 65, 0
3, 9039, Note_on_c, 1, 63, 51
3, 9039, Note_on_c, 1, 69, 51
3, 9075, Note_on_c, 1, 69, 0
3, 9075, Note_on_c, 1, 63, 0
3, 9079, Note_on_c, 1, 65, 54
3, 9116, Note_on_c, 1, 65, 0
3, 9159, Note_on_c, 1, 62, 58
3, 9159, Note_on_c, 1, 65, 58
3, 9159, Note_on_c, 1, 70, 58
3, 9195, Note_on_c, 1, 70, 0
3, 9195, Note_on_c, 1, 65, 0
3, 9195, Note_on_c, 1, 62, 0
3, 9199, Note_on_c, 1, 62, 63
3, 9199, Note_on_c, 1, 65, 63
3, 9199, Note_on_c, 1, 70, 63
3, 9236, Note_on_c, 1, 70, 0
3, 9236, Note_on_c, 1, 65, 0
3, 9236, Note_on_c, 1, 62, 0
3, 9240, Note_on_c, 1, 62, 72
3, 9240, Note_on_c, 1, 65, 72
3, 9240, Note_on_c, 1, 70, 72
3, 9276, Note_on_c, 1, 70, 0
3, 9276, Note_on_c, 1, 65, 0
3, 9276, Note_on_c, 1, 62, 0
3, 9279, Note_on_c, 1, 62, 76
3, 9279, Note_on_c, 1, 65, 76
3, 9279, Note_on_c, 1, 70, 76
3, 9315, Note_on_c, 1, 70, 0
3, 9315, Note_on_c, 1, 65, 0
3, 9315, Note_on_c, 1, 62, 0
3, 9319, Note_on_c, 1, 62, 81
3, 9319, Note_on_c, 1, 65, 81
3, 9319, Note_on_c, 1, 70, 81
3, 9356, Note_on_c, 1, 70, 0
3, 9356, Note_on_c, 1, 65, 0
3, 9356, Note_on_c, 1, 62, 0
3, 9360, Note_on_c, 1, 62, 88
3, 9360, Note_on_c, 1, 65, 88
3, 9360, Note_on_c, 1, 70, 88
3, 9396, Note_on_c, 1, 70, 0
3, 9396, Note_on_c, 1, 65, 0
3, 9396, Note_on_c, 1, 62, 0
3, 9399, Note_on_c, 1, 62, 92
3, 9399, Note_on_c, 1, 65, 92
3, 9399, Note_on_c, 1, 70, 92
3, 9435, Note_on_c, 1, 70, 0
3, 9435, Note_on_c, 1, 65, 0
3, 9435, Note_on_c, 1, 62, 0
3, 9439, Note_on_c, 1, 62, 97
3, 9439, Note_on_c, 1, 65, 97
3, 9439, Note_on_c, 1, 70, 97
3, 9476, Note_on_c, 1, 70, 0
3, 9476, Note_on_c, 1, 65, 0
3, 9476, Note_on_c, 1, 62, 0
3, 9480, Note_on_c, 1, 62, 105
3, 9480, Note_on_c, 1, 65, 105
3, 9480, Note_on_c, 1, 70, 105
3, 9516, Note_on_c, 1, 70, 0
3, 9516, Note_on_c, 1, 65, 0
3, 9516, Note_on_c, 1, 62, 0
3, 9519, Note_on_c, 1, 62, 109
3, 9519, Note_on_c, 1, 65, 109
3, 9519, Note_on_c, 1, 70, 109
3, 9555, Note_on_c, 1, 70, 0
3, 9555, Note_on_c, 1, 65, 0
3, 9555, Note_on_c, 1, 62, 0
3, 9559, Note_on_c, 1, 62, 115
3, 9559, Note_on_c, 1, 65, 115
3, 9559, Note_on_c, 1, 70, 115
3, 9596, Note_on_c, 1, 70, 0
3, 9596, Note_on_c, 1, 65, 0
3, 9596, Note_on_c, 1, 62, 0
3, 9600, Note_on_c, 1, 62, 118
3, 9600, Note_on_c, 1, 65, 118
3, 9600, Note_on_c, 1, 70, 118
3, 9636, Note_on_c, 1, 70, 0
3, 9636, Note_on_c, 1, 65, 0
3, 9636, Note_on_c, 1, 62, 0
3, 9639, Note_on_c, 1, 62, 116
3, 9639, Note_on_c, 1, 65, 116
3, 9639, Note_on_c, 1, 70, 116
3, 9675, Note_on_c, 1, 70, 0
3, 9675, Note_on_c, 1, 65, 0
3, 9675, Note_on_c, 1, 62, 0
3, 9679, Note_on_c, 1, 62, 109
3, 9679, Note_on_c, 1, 65, 109
3, 9679, Note_on_c, 1, 70, 109
3, 9716, Note_on_c, 1, 70, 0
3, 9716, Note_on_c, 1, 65, 0
3, 9716, Note_on_c, 1, 62, 0
3, 9720, Note_on_c, 1, 62, 102
3, 9720, Note_on_c, 1, 65, 102
3, 9720, Note_on_c, 1, 70, 102
3, 9756, Note_on_c, 1, 70, 0
3, 9756, Note_on_c, 1, 65, 0
3, 9756, Note_on_c, 1, 62, 0
3, 9759, Note_on_c, 1, 62, 93
3, 9759, Note_on_c, 1, 65, 93
3, 9759, Note_on_c, 1, 70, 93
3, 9795, Note_on_c, 1, 70, 0
3, 9795, Note_on_c, 1, 65, 0
3, 9795, Note_on_c, 1, 62, 0
3, 9799, Note_on_c, 1, 62, 83
3, 9799, Note_on_c, 1, 65, 83
3, 9799, Note_on_c, 1, 70, 83
3, 9836, Note_on_c, 1, 70, 0
3, 9836, Note_on_c, 1, 65, 0
3, 9836, Note_on_c, 1, 62, 0
3, 9840, Note_on_c, 1, 62, 70
3, 9840, Note_on_c, 1, 65, 70
3, 9840, Note_on_c, 1, 70, 70
3, 9876, Note_on_c, 1, 70, 0
3, 9876, Note_on_c, 1, 65, 0
3, 9876, Note_on_c, 1, 62, 0
3, 9879, Note_on_c, 1, 62, 64
3, 9879, Note_on_c, 1, 65, 64
3, 9879, Note_on_c, 1, 70, 64
3, 9915, Note_on_c, 1, 70, 0
3, 9915, Note_on_c, 1, 65, 0
3, 9915, Note_on_c, 1, 62, 0
3, 9919, Note_on_c, 1, 62, 56
3, 9919, Note_on_c, 1, 65, 56
3, 9919, Note_on_c, 1, 70, 56
3, 9956, Note_on_c, 1, 70, 0
3, 9956, Note_on_c, 1, 65, 0
3, 9956, Note_on_c, 1, 62, 0
3, 9960, Note_on_c, 1, 62, 50
3, 9960, Note_on_c, 1, 65, 50
3, 9960, Note_on_c, 1, 70, 50
3, 9996, Note_on_c, 1, 70, 0
3, 9996, Note_on_c, 1, 65, 0
3, 9996, Note_on_c, 1, 62, 0
3, 9999, Note_on_c, 1, 62, 48
3, 9999, Note_on_c, 1, 65, 48
3, 9999, Note_on_c, 1, 70, 48
3, 10035, Note_on_c, 1, 70, 0
3, 10035, Note_on_c, 1, 65, 0
3, 10035, Note_on_c, 1, 62, 0
3, 10039, Note_on_c, 1, 62, 47
3, 10039, Note_on_c, 1, 65, 47
3, 10039, Note_on_c, 1, 70, 47
3, 10076, Note_on_c, 1, 70, 0
3, 10076, Note_on_c, 1, 65, 0
3, 10076, Note_on_c, 1, 62, 0
3, 10119, Note_on_c, 1, 63, 46
3, 10119, Note_on_c, 1, 65, 46
3, 10119, Note_on_c, 1, 69, 46
3, 10119, Note_on_c, 1, 72, 46
3, 10155, Note_on_c, 1, 72, 0
3, 10155, Note_on_c, 1, 63, 0
3, 10155, Note_on_c, 1, 65, 0
3, 10155, Note_on_c, 1, 69, 0
3, 10159, Note_on_c, 1, 63, 47
3, 10159, Note_on_c, 1, 65, 47
3, 10159, Note_on_c, 1, 69, 47
3, 10159, Note_on_c, 1, 72, 47
3, 10196, Note_on_c, 1, 72, 0
3, 10196, Note_on_c, 1, 63, 0
3, 10196, Note_on_c, 1, 65, 0
3, 10196, Note_on_c, 1, 69, 0
3, 10200, Note_on_c, 1, 63, 51
3, 10200, Note_on_c, 1, 65, 51
3, 10200, Note_on_c, 1, 69, 51
3, 10200, Note_on_c, 1, 72, 51
3, 10236, Note_on_c, 1, 72, 0
3, 10236, Note_on_c, 1, 63, 0
3, 10236, Note_on_c, 1, 65, 0
3, 10236, Note_on_c, 1, 69, 0
3, 10239, Note_on_c, 1, 63, 52
3, 10239, Note_on_c, 1, 65, 54
3, 10239, Note_on_c, 1, 69, 54
3, 10239, Note_on_c, 1, 72, 55
3, 10275, Note_on_c, 1, 72, 0
3, 10275, Note_on_c, 1, 63, 0
3, 10275, Note_on_c, 1, 65, 0
3, 10275, Note_on_c, 1, 69, 0
3, 10279, Note_on_c, 1, 63, 67
3, 10279, Note_on_c, 1, 65, 64
3, 10279, Note_on_c, 1, 69, 64
3, 10279, Note_on_c, 1, 72, 65
3, 10316, Note_on_c, 1, 72, 0
3, 10316, Note_on_c, 1, 63, 0
3, 10316, Note_on_c, 1, 65, 0
3, 10316, Note_on_c, 1, 69, 0
3, 10320, Note_on_c, 1, 63, 78
3, 10320, Note_on_c, 1, 65, 78
3, 10320, Note_on_c, 1, 69, 79
3, 10320, Note_on_c, 1, 72, 78
3, 10356, Note_on_c, 1, 72, 0
3, 10356, Note_on_c, 1, 63, 0
3, 10356, Note_on_c, 1, 65, 0
3, 10356, Note_on_c, 1, 69, 0
3, 10359, Note_on_c, 1, 63, 85
3, 10359, Note_on_c, 1, 65, 87
3, 10359, Note_on_c, 1, 69, 85
3, 10359, Note_on_c, 1, 72, 86
3, 10395, Note_on_c, 1, 72, 0
3, 10395, Note_on_c, 1, 63, 0
3, 10395, Note_on_c, 1, 65, 0
3, 10395, Note_on_c, 1, 69, 0
3, 10399, Note_on_c, 1, 63, 96
3, 10399, Note_on_c, 1, 65, 98
3, 10399, Note_on_c, 1, 69, 97
3, 10399, Note_on_c, 1, 72, 98
3, 10436, Note_on_c, 1, 72, 0
3, 10436, Note_on_c, 1, 63, 0
3, 10436, Note_on_c, 1, 65, 0
3, 10436, Note_on_c, 1, 69, 0
3, 10440, Note_on_c, 1, 63, 108
3, 10440, Note_on_c, 1, 65, 110
3, 10440, Note_on_c, 1, 69, 111
3, 10440, Note_on_c, 1, 72, 111
3, 10476, Note_on_c, 1, 72, 0
3, 10476, Note_on_c, 1, 63, 0
3, 10476, Note_on_c, 1, 65, 0
3, 10476, Note_on_c, 1, 69, 0
3, 10479, Note_on_c, 1, 63, 117
3, 10479, Note_on_c, 1, 65, 117
3, 10479, Note_on_c, 1, 69, 120
3, 10479, Note_on_c, 1, 72, 120
3, 10515, Note_on_c, 1, 72, 0
3, 10515, Note_on_c, 1, 63, 0
3, 10515, Note_on_c, 1, 65, 0
3, 10515, Note_on_c, 1, 69, 0
3, 10519, Note_on_c, 1, 63, 124
3, 10519, Note_on_c, 1, 65, 127
3, 10519, Note_on_c, 1, 69, 125
3, 10519, Note_on_c, 1, 72, 124
3, 10556, Note_on_c, 1, 72, 0
3, 10556, Note_on_c, 1, 63, 0
3, 10556, Note_on_c, 1, 65, 0
3, 10556, Note_on_c, 1, 69, 0
3, 10560, Note_on_c, 1, 63, 127
3, 10560, Note_on_c, 1, 65, 127
3, 10560, Note_on_c, 1, 69, 127
3, 10560, Note_on_c, 1, 72, 127
3, 10596, Note_on_c, 1, 72, 0
3, 10596, Note_on_c, 1, 63, 0
3, 10596, Note_on_c, 1, 65, 0
3, 10596, Note_on_c, 1, 69, 0
3, 10599, Note_on_c, 1, 63, 119
3, 10599, Note_on_c, 1, 65, 118
3, 10599, Note_on_c, 1, 69, 119
3, 10599, Note_on_c, 1, 72, 119
3, 10635, Note_on_c, 1, 72, 0
3, 10635, Note_on_c, 1, 63, 0
3, 10635, Note_on_c, 1, 65, 0
3, 10635, Note_on_c, 1, 69, 0
3, 10639, Note_on_c, 1, 63, 106
3, 10639, Note_on_c, 1, 65, 106
3, 10639, Note_on_c, 1, 69, 108
3, 10639, Note_on_c, 1, 72, 109
3, 10676, Note_on_c, 1, 72, 0
3, 10676, Note_on_c, 1, 63, 0
3, 10676, Note_on_c, 1, 65, 0
3, 10676, Note_on_c, 1, 69, 0
3, 10680, Note_on_c, 1, 63, 99
3, 10680, Note_on_c, 1, 65, 98
3, 10680, Note_on_c, 1, 69, 98
3, 10680, Note_on_c, 1, 72, 99
3, 10716, Note_on_c, 1, 72, 0
3, 10716, Note_on_c, 1, 63, 0
3, 10716, Note_on_c, 1, 65, 0
3, 10716, Note_on_c, 1, 69, 0
3, 10719, Note_on_c, 1, 63, 85
3, 10719, Note_on_c, 1, 65, 87
3, 10719, Note_on_c, 1, 69, 85
3, 10719, Note_on_c, 1, 72, 87
3, 10755, Note_on_c, 1, 72, 0
3, 10755, Note_on_c, 1, 63, 0
3, 10755, Note_on_c, 1, 65, 0
3, 10755, Note_on_c, 1, 69, 0
3, 10759, Note_on_c, 1, 63, 77
3, 10759, Note_on_c, 1, 65, 76
3, 10759, Note_on_c, 1, 69, 75
3, 10759, Note_on_c, 1, 72, 78
3, 10796, Note_on_c, 1, 72, 0
3, 10796, Note_on_c, 1, 63, 0
3, 10796, Note_on_c, 1, 65, 0
3, 10796, Note_on_c, 1, 69, 0
3, 10800, Note_on_c, 1, 63, 70
3, 10800, Note_on_c, 1, 65, 69
3, 10800, Note_on_c, 1, 69, 68
3, 10800, Note_on_c, 1, 72, 69
3, 10836, Note_on_c, 1, 72, 0
3, 10836, Note_on_c, 1, 63, 0
3, 10836, Note_on_c, 1, 65, 0
3, 10836, Note_on_c, 1, 69, 0
3, 10839, Note_on_c, 1, 63, 55
3, 10839, Note_on_c, 1, 65, 55
3, 10839, Note_on_c, 1, 69, 55
3, 10839, Note_on_c, 1, 72, 55
3, 10875, Note_on_c, 1, 72, 0
3, 10875, Note_on_c, 1, 63, 0
3, 10875, Note_on_c, 1, 65, 0
3, 10875, Note_on_c, 1, 69, 0
3, 10879, Note_on_c, 1, 63, 55
3, 10879, Note_on_c, 1, 65, 55
3, 10879, Note_on_c, 1, 69, 55
3, 10879, Note_on_c, 1, 72, 55
3, 10916, Note_on_c, 1, 72, 0
3, 10916, Note_on_c, 1, 63, 0
3, 10916, Note_on_c, 1, 65, 0
3, 10916, Note_on_c, 1, 69, 0
3, 10920, Note_on_c, 1, 63, 55
3, 10920, Note_on_c, 1, 65, 55
3, 10920, Note_on_c, 1, 69, 55
3, 10920, Note_on_c, 1, 72, 55
3, 10956, Note_on_c, 1, 72, 0
3, 10956, Note_on_c, 1, 63, 0
3, 10956, Note_on_c, 1, 65, 0
3, 10956, Note_on_c, 1, 69, 0
3, 10959, Note_on_c, 1, 63, 55
3, 10959, Note_on_c, 1, 65, 55
3, 10959, Note_on_c, 1, 69, 55
3, 10959, Note_on_c, 1, 72, 55
3, 10995, Note_on_c, 1, 72, 0
3, 10995, Note_on_c, 1, 63, 0
3, 10995, Note_on_c, 1, 65, 0
3, 10995, Note_on_c, 1, 69, 0
3, 10999, Note_on_c, 1, 63, 55
3, 10999, Note_on_c, 1, 65, 55
3, 10999, Note_on_c, 1, 69, 55
3, 10999, Note_on_c, 1, 72, 55
3, 11036, Note_on_c, 1, 72, 0
3, 11036, Note_on_c, 1, 63, 0
3, 11036, Note_on_c, 1, 65, 0
3, 11036, Note_on_c, 1, 69, 0
3, 11079, Note_on_c, 1, 62, 56
3, 11119, Note_on_c, 1, 62, 0
3, 11119, Note_on_c, 1, 74, 56
3, 11159, Note_on_c, 1, 74, 0
3, 11199, Note_on_c, 1, 74, 56
3, 11239, Note_on_c, 1, 74, 0
3, 11239, Note_on_c, 1, 62, 56
3, 11279, Note_on_c, 1, 62, 0
3, 11319, Note_on_c, 1, 72, 56
3, 11359, Note_on_c, 1, 72, 0
3, 11359, Note_on_c, 1, 62, 56
3, 11399, Note_on_c, 1, 62, 0
3, 11439, Note_on_c, 1, 70, 56
3, 11479, Note_on_c, 1, 70, 0
3, 11479, Note_on_c, 1, 62, 56
3, 11519, Note_on_c, 1, 62, 0
3, 11559, Note_on_c, 1, 69, 56
3, 11599, Note_on_c, 1, 69, 0
3, 11599, Note_on_c, 1, 62, 56
3, 11621, Note_on_c, 1, 62, 0
3, 11679, Note_on_c, 1, 67, 55
3, 11719, Note_on_c, 1, 67, 0
3, 11719, Note_on_c, 1, 62, 55
3, 11759, Note_on_c, 1, 62, 0
3, 11799, Note_on_c, 1, 60, 54
3, 11799, Note_on_c, 1, 66, 54
3, 11839, Note_on_c, 1, 66, 0
3, 11839, Note_on_c, 1, 60, 0
3, 11839, Note_on_c, 1, 62, 55
3, 11879, Note_on_c, 1, 62, 0
3, 11919, Note_on_c, 1, 60, 55
3, 11919, Note_on_c, 1, 66, 55
3, 11959, Note_on_c, 1, 66, 0
3, 11959, Note_on_c, 1, 60, 0
3, 11959, Note_on_c, 1, 62, 55
3, 11999, Note_on_c, 1, 62, 0
3, 12039, Note_on_c, 1, 58, 56
3, 12039, Note_on_c, 1, 67, 56
3, 12079, Note_on_c, 1, 67, 0
3, 12079, Note_on_c, 1, 58, 0
3, 12079, Note_on_c, 1, 62, 56
3, 12119, Note_on_c, 1, 62, 0
3, 12159, Note_on_c, 1, 70, 56
3, 12199, Note_on_c, 1, 70, 0
3, 12199, Note_on_c, 1, 62, 56
3, 12239, Note_on_c, 1, 62, 0
3, 12279, Note_on_c, 1, 70, 55
3, 12319, Note_on_c, 1, 70, 0
3, 12319, Note_on_c, 1, 62, 55
3, 12359, Note_on_c, 1, 62, 0
3, 12399, Note_on_c, 1, 70, 54
3, 12439, Note_on_c, 1, 70, 0
3, 12439, Note_on_c, 1, 61, 54
3, 12479, Note_on_c, 1, 61, 0
3, 12519, Note_on_c, 1, 67, 53
3, 12519, Note_on_c, 1, 70, 53
3, 12559, Note_on_c, 1, 70, 0
3, 12559, Note_on_c, 1, 67, 0
3, 12559, Note_on_c, 1, 60, 52
3, 12599, Note_on_c, 1, 60, 0
3, 12639, Note_on_c, 1, 67, 52
3, 12639, Note_on_c, 1, 70, 52
3, 12679, Note_on_c, 1, 70, 0
3, 12679, Note_on_c, 1, 67, 0
3, 12679, Note_on_c, 1, 60, 51
3, 12719, Note_on_c, 1, 60, 0
3, 12759, Note_on_c, 1, 65, 51
3, 12759, Note_on_c, 1, 71, 51
3, 12799, Note_on_c, 1, 71, 0
3, 12799, Note_on_c, 1, 65, 0
3, 12799, Note_on_c, 1, 60, 51
3, 12839, Note_on_c, 1, 60, 0
3, 12879, Note_on_c, 1, 65, 51
3, 12879, Note_on_c, 1, 71, 51
3, 12919, Note_on_c, 1, 71, 0
3, 12919, Note_on_c, 1, 65, 0
3, 12919, Note_on_c, 1, 60, 52
3, 12959, Note_on_c, 1, 60, 0
3, 12999, Note_on_c, 1, 64, 55
3, 12999, Note_on_c, 1, 72, 55
3, 13039, Note_on_c, 1, 72, 0
3, 13039, Note_on_c, 1, 64, 0
3, 13039, Note_on_c, 1, 60, 58
3, 13079, Note_on_c, 1, 60, 0
3, 13119, Note_on_c, 1, 64, 63
3, 13119, Note_on_c, 1, 72, 63
3, 13159, Note_on_c, 1, 72, 0
3, 13159, Note_on_c, 1, 64, 0
3, 13159, Note_on_c, 1, 60, 65
3, 13199, Note_on_c, 1, 60, 0
3, 13239, Note_on_c, 1, 64, 73
3, 13239, Note_on_c, 1, 67, 73
3, 13239, Note_on_c, 1, 74, 73
3, 13275, Note_on_c, 1, 74, 0
3, 13275, Note_on_c, 1, 67, 0
3, 13275, Note_on_c, 1, 64, 0
3, 13279, Note_on_c, 1, 64, 79
3, 13279, Note_on_c, 1, 67, 79
3, 13279, Note_on_c, 1, 74, 79
3, 13316, Note_on_c, 1, 74, 0
3, 13316, Note_on_c, 1, 67, 0
3, 13316, Note_on_c, 1, 64, 0
3, 13320, Note_on_c, 1, 64, 89
3, 13320, Note_on_c, 1, 67, 89
3, 13320, Note_on_c, 1, 74, 89
3, 13356, Note_on_c, 1, 74, 0
3, 13356, Note_on_c, 1, 67, 0
3, 13356, Note_on_c, 1, 64, 0
3, 13359, Note_on_c, 1, 64, 93
3, 13359, Note_on_c, 1, 67, 93
3, 13359, Note_on_c, 1, 74, 93
3, 13395, Note_on_c, 1, 74, 0
3, 13395, Note_on_c, 1, 67, 0
3, 13395, Note_on_c, 1, 64, 0
3, 13399, Note_on_c, 1, 64, 99
3, 13399, Note_on_c, 1, 67, 99
3, 13399, Note_on_c, 1, 74, 99
3, 13436, Note_on_c, 1, 74, 0
3, 13436, Note_on_c, 1, 67, 0
3, 13436, Note_on_c, 1, 64, 0
3, 13479, Note_on_c, 1, 65, 110
3, 13479, Note_on_c, 1, 72, 110
3, 13515, Note_on_c, 1, 72, 0
3, 13515, Note_on_c, 1, 65, 0
3, 13519, Note_on_c, 1, 65, 115
3, 13519, Note_on_c, 1, 72, 115
3, 13556, Note_on_c, 1, 72, 0
3, 13556, Note_on_c, 1, 65, 0
3, 13560, Note_on_c, 1, 65, 119
3, 13560, Note_on_c, 1, 72, 119
3, 13596, Note_on_c, 1, 72, 0
3, 13596, Note_on_c, 1, 65, 0
3, 13599, Note_on_c, 1, 65, 118
3, 13599, Note_on_c, 1, 72, 118
3, 13635, Note_on_c, 1, 72, 0
3, 13635, Note_on_c, 1, 65, 0
3, 13639, Note_on_c, 1, 65, 116
3, 13639, Note_on_c, 1, 72, 116
3, 13676, Note_on_c, 1, 72, 0
3, 13676, Note_on_c, 1, 65, 0
3, 13719, Note_on_c, 1, 60, 111
3, 13719, Note_on_c, 1, 64, 111
3, 13719, Note_on_c, 1, 70, 111
3, 13755, Note_on_c, 1, 70, 0
3, 13755, Note_on_c, 1, 64, 0
3, 13755, Note_on_c, 1, 60, 0
3, 13759, Note_on_c, 1, 60, 109
3, 13759, Note_on_c, 1, 64, 109
3, 13759, Note_on_c, 1, 70, 109
3, 13796, Note_on_c, 1, 70, 0
3, 13796, Note_on_c, 1, 64, 0
3, 13796, Note_on_c, 1, 60, 0
3, 13800, Note_on_c, 1, 60, 106
3, 13800, Note_on_c, 1, 64, 106
3, 13800, Note_on_c, 1, 70, 106
3, 13836, Note_on_c, 1, 70, 0
3, 13836, Note_on_c, 1, 64, 0
3, 13836, Note_on_c, 1, 60, 0
3, 13839, Note_on_c, 1, 60, 105
3, 13839, Note_on_c, 1, 64, 105
3, 13839, Note_on_c, 1, 70, 105
3, 13875, Note_on_c, 1, 70, 0
3, 13875, Note_on_c, 1, 64, 0
3, 13875, Note_on_c, 1, 60, 0
3, 13879, Note_on_c, 1, 60, 103
3, 13879, Note_on_c, 1, 64, 103
3, 13879, Note_on_c, 1, 70, 103
3, 13916, Note_on_c, 1, 70, 0
3, 13916, Note_on_c, 1, 64, 0
3, 13916, Note_on_c, 1, 60, 0
3, 13959, Note_on_c, 1, 60, 100
3, 13959, Note_on_c, 1, 65, 100
3, 13959, Note_on_c, 1, 69, 100
3, 13995, Note_on_c, 1, 69, 0
3, 13995, Note_on_c, 1, 65, 0
3, 13995, Note_on_c, 1, 60, 0
3, 13999, Note_on_c, 1, 60, 99
3, 13999, Note_on_c, 1, 65, 99
3, 13999, Note_on_c, 1, 69, 99
3, 14036, Note_on_c, 1, 69, 0
3, 14036, Note_on_c, 1, 65, 0
3, 14036, Note_on_c, 1, 60, 0
3, 14040, Note_on_c, 1, 60, 99
3, 14040, Note_on_c, 1, 65, 99
3, 14040, Note_on_c, 1, 69, 99
3, 14076, Note_on_c, 1, 69, 0
3, 14076, Note_on_c, 1, 65, 0
3, 14076, Note_on_c, 1, 60, 0
3, 14079, Note_on_c, 1, 60, 98
3, 14079, Note_on_c, 1, 65, 98
3, 14079, Note_on_c, 1, 69, 98
3, 14115, Note_on_c, 1, 69, 0
3, 14115, Note_on_c, 1, 65, 0
3, 14115, Note_on_c, 1, 60, 0
3, 14119, Note_on_c, 1, 60, 100
3, 14119, Note_on_c, 1, 65, 100
3, 14119, Note_on_c, 1, 69, 100
3, 14156, Note_on_c, 1, 69, 0
3, 14156, Note_on_c, 1, 65, 0
3, 14156, Note_on_c, 1, 60, 0
3, 14160, Note_on_c, 1, 59, 112
3, 14160, Note_on_c, 1, 65, 112
3, 14160, Note_on_c, 1, 71, 112
3, 14196, Note_on_c, 1, 71, 0
3, 14196, Note_on_c, 1, 65, 0
3, 14196, Note_on_c, 1, 59, 0
3, 14199, Note_on_c, 1, 59, 120
3, 14199, Note_on_c, 1, 65, 120
3, 14199, Note_on_c, 1, 71, 120
3, 14235, Note_on_c, 1, 71, 0
3, 14235, Note_on_c, 1, 65, 0
3, 14235, Note_on_c, 1, 59, 0
3, 14239, Note_on_c, 1, 59, 116
3, 14239, Note_on_c, 1, 65, 116
3, 14239, Note_on_c, 1, 71, 116
3, 14276, Note_on_c, 1, 71, 0
3, 14276, Note_on_c, 1, 65, 0
3, 14276, Note_on_c, 1, 59, 0
3, 14280, Note_on_c, 1, 59, 112
3, 14280, Note_on_c, 1, 65, 112
3, 14280, Note_on_c, 1, 71, 112
3, 14316, Note_on_c, 1, 71, 0
3, 14316, Note_on_c, 1, 65, 0
3, 14316, Note_on_c, 1, 59, 0
3, 14319, Note_on_c, 1, 59, 110
3, 14319, Note_on_c, 1, 65, 110
3, 14319, Note_on_c, 1, 71, 110
3, 14355, Note_on_c, 1, 71, 0
3, 14355, Note_on_c, 1, 65, 0
3, 14355, Note_on_c, 1, 59, 0
3, 14359, Note_on_c, 1, 59, 106
3, 14359, Note_on_c, 1, 65, 106
3, 14359, Note_on_c, 1, 71, 106
3, 14396, Note_on_c, 1, 71, 0
3, 14396, Note_on_c, 1, 65, 0
3, 14396, Note_on_c, 1, 59, 0
3, 14400, Note_on_c, 1, 60, 54
3, 14400, Note_on_c, 1, 64, 54
3, 14400, Note_on_c, 1, 72, 54
3, 14439, Note_on_c, 1, 60, 54
3, 14440, Note_on_c, 1, 72, 0
3, 14440, Note_on_c, 1, 60, 0
3, 14440, Note_on_c, 1, 64, 0
3, 14479, Note_on_c, 1, 60, 0
3, 14479, Note_on_c, 1, 64, 54
3, 14519, Note_on_c, 1, 64, 0
3, 14520, Note_on_c, 1, 67, 55
3, 14559, Note_on_c, 1, 64, 56
3, 14560, Note_on_c, 1, 67, 0
3, 14599, Note_on_c, 1, 64, 0
3, 14599, Note_on_c, 1, 60, 56
3, 14639, Note_on_c, 1, 60, 0
3, 14640, Note_on_c, 1, 69, 57
3, 14679, Note_on_c, 1, 65, 57
3, 14680, Note_on_c, 1, 69, 0
3, 14719, Note_on_c, 1, 65, 0
3, 14719, Note_on_c, 1, 60, 58
3, 14759, Note_on_c, 1, 60, 0
3, 14760, Note_on_c, 1, 70, 58
3, 14799, Note_on_c, 1, 67, 58
3, 14800, Note_on_c, 1, 70, 0
3, 14839, Note_on_c, 1, 67, 0
3, 14839, Note_on_c, 1, 60, 58
3, 14876, Note_on_c, 1, 60, 0
3, 14880, Note_on_c, 1, 72, 58
3, 14919, Note_on_c, 1, 69, 58
3, 14920, Note_on_c, 1, 72, 0
3, 14959, Note_on_c, 1, 69, 0
3, 14959, Note_on_c, 1, 60, 59
3, 14999, Note_on_c, 1, 60, 0
3, 15000, Note_on_c, 1, 72, 60
3, 15039, Note_on_c, 1, 65, 60
3, 15040, Note_on_c, 1, 72, 0
3, 15079, Note_on_c, 1, 65, 0
3, 15079, Note_on_c, 1, 60, 60
3, 15119, Note_on_c, 1, 60, 0
3, 15120, Note_on_c, 1, 70, 61
3, 15159, Note_on_c, 1, 64, 62
3, 15160, Note_on_c, 1, 70, 0
3, 15199, Note_on_c, 1, 64, 0
3, 15199, Note_on_c, 1, 60, 62
3, 15239, Note_on_c, 1, 60, 0
3, 15240, Note_on_c, 1, 69, 63
3, 15279, Note_on_c, 1, 65, 63
3, 15280, Note_on_c, 1, 69, 0
3, 15319, Note_on_c, 1, 65, 0
3, 15319, Note_on_c, 1, 60, 64
3, 15359, Note_on_c, 1, 60, 0
3, 15360, Note_on_c, 1, 67, 65
3, 15399, Note_on_c, 1, 60, 65
3, 15400, Note_on_c, 1, 67, 0
3, 15439, Note_on_c, 1, 60, 0
3, 15439, Note_on_c, 1, 58, 66
3, 15479, Note_on_c, 1, 58, 0
3, 15480, Note_on_c, 1, 64, 66
3, 15519, Note_on_c, 1, 60, 66
3, 15520, Note_on_c, 1, 64, 0
3, 15559, Note_on_c, 1, 60, 0
3, 15559, Note_on_c, 1, 58, 67
3, 15599, Note_on_c, 1, 58, 0
3, 15600, Note_on_c, 1, 65, 67
3, 15639, Note_on_c, 1, 60, 67
3, 15640, Note_on_c, 1, 65, 0
3, 15679, Note_on_c, 1, 60, 0
3, 15679, Note_on_c, 1, 58, 67
3, 15719, Note_on_c, 1, 58, 0
3, 15720, Note_on_c, 1, 67, 67
3, 15759, Note_on_c, 1, 60, 67
3, 15760, Note_on_c, 1, 67, 0
3, 15799, Note_on_c, 1, 60, 0
3, 15799, Note_on_c, 1, 58, 67
3, 15839, Note_on_c, 1, 58, 0
3, 15879, Note_on_c, 1, 69, 67
3, 15919, Note_on_c, 1, 69, 0
3, 15919, Note_on_c, 1, 60, 67
3, 15959, Note_on_c, 1, 60, 0
3, 15960, Note_on_c, 1, 72, 67
3, 15999, Note_on_c, 1, 65, 67
3, 16000, Note_on_c, 1, 72, 0
3, 16039, Note_on_c, 1, 65, 0
3, 16039, Note_on_c, 1, 60, 67
3, 16079, Note_on_c, 1, 60, 0
3, 16080, Note_on_c, 1, 70, 65
3, 16119, Note_on_c, 1, 64, 66
3, 16120, Note_on_c, 1, 70, 0
3, 16159, Note_on_c, 1, 64, 0
3, 16159, Note_on_c, 1, 60, 67
3, 16199, Note_on_c, 1, 60, 0
3, 16200, Note_on_c, 1, 69, 69
3, 16239, Note_on_c, 1, 65, 72
3, 16240, Note_on_c, 1, 69, 0
3, 16279, Note_on_c, 1, 65, 0
3, 16279, Note_on_c, 1, 60, 75
3, 16319, Note_on_c, 1, 60, 0
3, 16359, Note_on_c, 1, 65, 82
3, 16359, Note_on_c, 1, 70, 82
3, 16359, Note_on_c, 1, 74, 82
3, 16395, Note_on_c, 1, 74, 0
3, 16395, Note_on_c, 1, 70, 0
3, 16395, Note_on_c, 1, 65, 0
3, 16399, Note_on_c, 1, 65, 86
3, 16399, Note_on_c, 1, 70, 86
3, 16399, Note_on_c, 1, 74, 86
3, 16436, Note_on_c, 1, 74, 0
3, 16436, Note_on_c, 1, 70, 0
3, 16436, Note_on_c, 1, 65, 0
3, 16440, Note_on_c, 1, 65, 90
3, 16440, Note_on_c, 1, 70, 90
3, 16440, Note_on_c, 1, 74, 90
3, 16476, Note_on_c, 1, 74, 0
3, 16476, Note_on_c, 1, 70, 0
3, 16476, Note_on_c, 1, 65, 0
3, 16479, Note_on_c, 1, 65, 94
3, 16479, Note_on_c, 1, 70, 94
3, 16479, Note_on_c, 1, 74, 94
3, 16515, Note_on_c, 1, 74, 0
3, 16515, Note_on_c, 1, 70, 0
3, 16515, Note_on_c, 1, 65, 0
3, 16519, Note_on_c, 1, 65, 99
3, 16519, Note_on_c, 1, 70, 99
3, 16519, Note_on_c, 1, 74, 99
3, 16556, Note_on_c, 1, 74, 0
3, 16556, Note_on_c, 1, 70, 0
3, 16556, Note_on_c, 1, 65, 0
3, 16560, Note_on_c, 1, 67, 114
3, 16560, Note_on_c, 1, 70, 113
3, 16560, Note_on_c, 1, 74, 115
3, 16596, Note_on_c, 1, 74, 0
3, 16596, Note_on_c, 1, 70, 0
3, 16596, Note_on_c, 1, 67, 0
3, 16599, Note_on_c, 1, 67, 125
3, 16599, Note_on_c, 1, 70, 126
3, 16599, Note_on_c, 1, 74, 126
3, 16635, Note_on_c, 1, 74, 0
3, 16635, Note_on_c, 1, 70, 0
3, 16635, Note_on_c, 1, 67, 0
3, 16639, Note_on_c, 1, 67, 124
3, 16639, Note_on_c, 1, 70, 125
3, 16639, Note_on_c, 1, 74, 126
3, 16676, Note_on_c, 1, 74, 0
3, 16676, Note_on_c, 1, 70, 0
3, 16676, Note_on_c, 1, 67, 0
3, 16680, Note_on_c, 1, 67, 127
3, 16680, Note_on_c, 1, 70, 127
3, 16680, Note_on_c, 1, 74, 127
3, 16716, Note_on_c, 1, 74, 0
3, 16716, Note_on_c, 1, 70, 0
3, 16716, Note_on_c, 1, 67, 0
3, 16719, Note_on_c, 1, 67, 126
3, 16719, Note_on_c, 1, 70, 125
3, 16719, Note_on_c, 1, 74, 126
3, 16755, Note_on_c, 1, 74, 0
3, 16755, Note_on_c, 1, 70, 0
3, 16755, Note_on_c, 1, 67, 0
3, 16759, Note_on_c, 1, 67, 127
3, 16759, Note_on_c, 1, 70, 126
3, 16759, Note_on_c, 1, 74, 125
3, 16796, Note_on_c, 1, 74, 0
3, 16796, Note_on_c, 1, 70, 0
3, 16796, Note_on_c, 1, 67, 0
3, 16800, Note_on_c, 1, 67, 118
3, 16800, Note_on_c, 1, 72, 122
3, 16800, Note_on_c, 1, 76, 120
3, 16836, Note_on_c, 1, 76, 0
3, 16836, Note_on_c, 1, 72, 0
3, 16836, Note_on_c, 1, 67, 0
3, 16839, Note_on_c, 1, 67, 122
3, 16839, Note_on_c, 1, 72, 122
3, 16839, Note_on_c, 1, 76, 122
3, 16875, Note_on_c, 1, 76, 0
3, 16875, Note_on_c, 1, 72, 0
3, 16875, Note_on_c, 1, 67, 0
3, 16879, Note_on_c, 1, 67, 120
3, 16879, Note_on_c, 1, 72, 120
3, 16879, Note_on_c, 1, 76, 120
3, 16916, Note_on_c, 1, 76, 0
3, 16916, Note_on_c, 1, 72, 0
3, 16916, Note_on_c, 1, 67, 0
3, 16920, Note_on_c, 1, 67, 117
3, 16920, Note_on_c, 1, 72, 117
3, 16920, Note_on_c, 1, 76, 117
3, 16956, Note_on_c, 1, 76, 0
3, 16956, Note_on_c, 1, 72, 0
3, 16956, Note_on_c, 1, 67, 0
3, 16959, Note_on_c, 1, 67, 115
3, 16959, Note_on_c, 1, 72, 115
3, 16959, Note_on_c, 1, 76, 115
3, 16995, Note_on_c, 1, 76, 0
3, 16995, Note_on_c, 1, 72, 0
3, 16995, Note_on_c, 1, 67, 0
3, 16999, Note_on_c, 1, 67, 113
3, 16999, Note_on_c, 1, 72, 113
3, 16999, Note_on_c, 1, 76, 113
3, 17036, Note_on_c, 1, 76, 0
3, 17036, Note_on_c, 1, 72, 0
3, 17036, Note_on_c, 1, 67, 0
3, 17040, Note_on_c, 1, 67, 110
3, 17040, Note_on_c, 1, 72, 110
3, 17040, Note_on_c, 1, 76, 110
3, 17076, Note_on_c, 1, 76, 0
3, 17076, Note_on_c, 1, 72, 0
3, 17076, Note_on_c, 1, 67, 0
3, 17079, Note_on_c, 1, 67, 109
3, 17079, Note_on_c, 1, 72, 109
3, 17079, Note_on_c, 1, 76, 109
3, 17115, Note_on_c, 1, 76, 0
3, 17115, Note_on_c, 1, 72, 0
3, 17115, Note_on_c, 1, 67, 0
3, 17119, Note_on_c, 1, 67, 77
3, 17119, Note_on_c, 1, 72, 77
3, 17119, Note_on_c, 1, 76, 77
3, 17156, Note_on_c, 1, 76, 0
3, 17156, Note_on_c, 1, 72, 0
3, 17156, Note_on_c, 1, 67, 0
3, 17160, Note_on_c, 1, 67, 74
3, 17160, Note_on_c, 1, 72, 74
3, 17160, Note_on_c, 1, 76, 74
3, 17196, Note_on_c, 1, 76, 0
3, 17196, Note_on_c, 1, 72, 0
3, 17196, Note_on_c, 1, 67, 0
3, 17199, Note_on_c, 1, 67, 73
3, 17199, Note_on_c, 1, 72, 73
3, 17199, Note_on_c, 1, 76, 73
3, 17235, Note_on_c, 1, 76, 0
3, 17235, Note_on_c, 1, 72, 0
3, 17235, Note_on_c, 1, 67, 0
3, 17239, Note_on_c, 1, 67, 71
3, 17239, Note_on_c, 1, 72, 71
3, 17239, Note_on_c, 1, 76, 71
3, 17276, Note_on_c, 1, 76, 0
3, 17276, Note_on_c, 1, 72, 0
3, 17276, Note_on_c, 1, 67, 0
3, 17319, Note_on_c, 1, 77, 68
3, 17359, Note_on_c, 1, 77, 0
3, 17359, Note_on_c, 1, 72, 67
3, 17399, Note_on_c, 1, 72, 0
3, 17400, Note_on_c, 1, 69, 65
3, 17439, Note_on_c, 1, 65, 64
3, 17440, Note_on_c, 1, 69, 0
3, 17479, Note_on_c, 1, 65, 0
3, 17479, Note_on_c, 1, 60, 64
3, 17519, Note_on_c, 1, 60, 0
3, 17559, Note_on_c, 1, 57, 62
3, 17599, Note_on_c, 1, 57, 0
3, 17599, Note_on_c, 1, 60, 62
3, 17639, Note_on_c, 1, 60, 0
3, 17640, Note_on_c, 1, 65, 62
3, 17679, Note_on_c, 1, 60, 61
3, 17680, Note_on_c, 1, 65, 0
3, 17719, Note_on_c, 1, 60, 0
3, 17719, Note_on_c, 1, 57, 61
3, 17756, Note_on_c, 1, 57, 0
3, 17760, Note_on_c, 1, 53, 60
3, 17799, Note_on_c, 1, 58, 59
3, 17800, Note_on_c, 1, 53, 0
3, 17839, Note_on_c, 1, 58, 0
3, 17839, Note_on_c, 1, 62, 59
3, 17879, Note_on_c, 1, 62, 0
3, 17880, Note_on_c, 1, 65, 57
3, 17919, Note_on_c, 1, 62, 57
3, 17920, Note_on_c, 1, 65, 0
3, 17959, Note_on_c, 1, 62, 0
3, 17959, Note_on_c, 1, 58, 56
3, 17999, Note_on_c, 1, 58, 0
3, 18000, Note_on_c, 1, 53, 53
3, 18039, Note_on_c, 1, 58, 52
3, 18040, Note_on_c, 1, 53, 0
3, 18079, Note_on_c, 1, 58, 0
3, 18079, Note_on_c, 1, 62, 52
3, 18119, Note_on_c, 1, 62, 0
3, 18120, Note_on_c, 1, 65, 52
3, 18159, Note_on_c, 1, 62, 52
3, 18160, Note_on_c, 1, 65, 0
3, 18199, Note_on_c, 1, 62, 0
3, 18199, Note_on_c, 1, 58, 52
3, 18236, Note_on_c, 1, 58, 0
3, 18240, Note_on_c, 1, 53, 53
3, 18279, Note_on_c, 1, 57, 54
3, 18280, Note_on_c, 1, 53, 0
3, 18319, Note_on_c, 1, 57, 0
3, 18319, Note_on_c, 1, 60, 54
3, 18359, Note_on_c, 1, 60, 0
3, 18360, Note_on_c, 1, 65, 54
3, 18399, Note_on_c, 1, 60, 53
3, 18400, Note_on_c, 1, 65, 0
3, 18439, Note_on_c, 1, 60, 0
3, 18439, Note_on_c, 1, 57, 53
3, 18479, Note_on_c, 1, 57, 0
3, 18480, Note_on_c, 1, 53, 55
3, 18519, Note_on_c, 1, 56, 55
3, 18520, Note_on_c, 1, 53, 0
3, 18559, Note_on_c, 1, 56, 0
3, 18559, Note_on_c, 1, 59, 55
3, 18599, Note_on_c, 1, 59, 0
3, 18600, Note_on_c, 1, 65, 55
3, 18639, Note_on_c, 1, 59, 56
3, 18640, Note_on_c, 1, 65, 0
3, 18679, Note_on_c, 1, 59, 0
3, 18679, Note_on_c, 1, 56, 56
3, 18719, Note_on_c, 1, 56, 0
3, 18720, Note_on_c, 1, 53, 56
3, 18759, Note_on_c, 1, 57, 56
3, 18760, Note_on_c, 1, 53, 0
3, 18799, Note_on_c, 1, 57, 0
3, 18799, Note_on_c, 1, 60, 56
3, 18839, Note_on_c, 1, 60, 0
3, 18840, Note_on_c, 1, 65, 56
3, 18879, Note_on_c, 1, 60, 56
3, 18880, Note_on_c, 1, 65, 0
3, 18919, Note_on_c, 1, 60, 0
3, 18919, Note_on_c, 1, 57, 56
3, 18959, Note_on_c, 1, 57, 0
3, 18960, Note_on_c, 1, 55, 55
3, 18999, Note_on_c, 1, 58, 55
3, 19000, Note_on_c, 1, 55, 0
3, 19039, Note_on_c, 1, 58, 0
3, 19039, Note_on_c, 1, 60, 54
3, 19079, Note_on_c, 1, 60, 0
3, 19080, Note_on_c, 1, 64, 53
3, 19119, Note_on_c, 1, 60, 52
3, 19120, Note_on_c, 1, 64, 0
3, 19159, Note_on_c, 1, 60, 0
3, 19159, Note_on_c, 1, 58, 50
3, 19199, Note_on_c, 1, 58, 0
3, 19200, Note_on_c, 1, 57, 48
3, 19200, Note_on_c, 1, 65, 48
3, 19319, Note_on_c, 1, 65, 0
3, 19319, Note_on_c, 1, 57, 0
3, 19480, Note_on_c, 1, 65, 40
3, 19520, Note_on_c, 1, 65, 0
3, 19520, Note_on_c, 1, 65, 42
3, 19560, Note_on_c, 1, 65, 0
3, 19560, Note_on_c, 1, 65, 46
3, 19600, Note_on_c, 1, 65, 0
3, 19600, Note_on_c, 1, 65, 50
3, 19640, Note_on_c, 1, 65, 0
3, 19640, Note_on_c, 1, 65, 53
3, 19680, Note_on_c, 1, 65, 0
3, 19680, Note_on_c, 1, 65, 60
3, 19716, Note_on_c, 1, 65, 0
3, 19719, Note_on_c, 1, 66, 64
3, 19755, Note_on_c, 1, 66, 0
3, 19759, Note_on_c, 1, 66, 71
3, 19796, Note_on_c, 1, 66, 0
3, 19800, Note_on_c, 1, 66, 83
3, 19836, Note_on_c, 1, 66, 0
3, 19839, Note_on_c, 1, 58, 103
3, 19839, Note_on_c, 1, 66, 102
3, 19875, Note_on_c, 1, 66, 0
3, 19875, Note_on_c, 1, 58, 0
3, 19879, Note_on_c, 1, 58, 119
3, 19879, Note_on_c, 1, 66, 118
3, 19916, Note_on_c, 1, 66, 0
3, 19916, Note_on_c, 1, 58, 0
3, 19920, Note_on_c, 1, 58, 127
3, 19920, Note_on_c, 1, 66, 127
3, 19956, Note_on_c, 1, 66, 0
3, 19956, Note_on_c, 1, 58, 0
3, 19959, Note_on_c, 1, 60, 107
3, 19959, Note_on_c, 1, 66, 108
3, 19995, Note_on_c, 1, 66, 0
3, 19995, Note_on_c, 1, 60, 0
3, 19999, Note_on_c, 1, 60, 87
3, 19999, Note_on_c, 1, 66, 87
3, 20036, Note_on_c, 1, 66, 0
3, 20036, Note_on_c, 1, 60, 0
3, 20040, Note_on_c, 1, 60, 71
3, 20040, Note_on_c, 1, 66, 71
3, 20076, Note_on_c, 1, 66, 0
3, 20076, Note_on_c, 1, 60, 0
3, 20079, Note_on_c, 1, 60, 68
3, 20079, Note_on_c, 1, 66, 68
3, 20115, Note_on_c, 1, 66, 0
3, 20115, Note_on_c, 1, 60, 0
3, 20119, Note_on_c, 1, 60, 64
3, 20119, Note_on_c, 1, 66, 64
3, 20156, Note_on_c, 1, 66, 0
3, 20156, Note_on_c, 1, 60, 0
3, 20160, Note_on_c, 1, 61, 61
3, 20160, Note_on_c, 1, 65, 61
3, 20196, Note_on_c, 1, 65, 0
3, 20196, Note_on_c, 1, 61, 0
3, 20199, Note_on_c, 1, 65, 60
3, 20235, Note_on_c, 1, 65, 0
3, 20239, Note_on_c, 1, 65, 59
3, 20276, Note_on_c, 1, 65, 0
3, 20280, Note_on_c, 1, 72, 57
3, 20280, Note_on_c, 1, 65, 57
3, 20316, Note_on_c, 1, 65, 0
3, 20319, Note_on_c, 1, 65, 56
3, 20320, Note_on_c, 1, 72, 0
3, 20320, Note_on_c, 1, 70, 56
3, 20355, Note_on_c, 1, 65, 0
3, 20359, Note_on_c, 1, 65, 56
3, 20360, Note_on_c, 1, 70, 0
3, 20360, Note_on_c, 1, 68, 56
3, 20396, Note_on_c, 1, 65, 0
3, 20400, Note_on_c, 1, 68, 0
3, 20400, Note_on_c, 1, 77, 55
3, 20400, Note_on_c, 1, 65, 55
3, 20440, Note_on_c, 1, 65, 0
3, 20440, Note_on_c, 1, 77, 0
3, 20440, Note_on_c, 1, 75, 54
3, 20440, Note_on_c, 1, 65, 54
3, 20480, Note_on_c, 1, 65, 0
3, 20480, Note_on_c, 1, 75, 0
3, 20480, Note_on_c, 1, 73, 54
3, 20480, Note_on_c, 1, 65, 54
3, 20520, Note_on_c, 1, 65, 0
3, 20520, Note_on_c, 1, 73, 0
3, 20520, Note_on_c, 1, 72, 53
3, 20520, Note_on_c, 1, 65, 53
3, 20560, Note_on_c, 1, 65, 0
3, 20560, Note_on_c, 1, 72, 0
3, 20560, Note_on_c, 1, 70, 52
3, 20560, Note_on_c, 1, 65, 52
3, 20600, Note_on_c, 1, 65, 0
3, 20600, Note_on_c, 1, 70, 0
3, 20600, Note_on_c, 1, 68, 51
3, 20600, Note_on_c, 1, 65, 51
3, 20640, Note_on_c, 1, 65, 0
3, 20640, Note_on_c, 1, 68, 0
3, 20640, Note_on_c, 1, 68, 50
3, 20640, Note_on_c, 1, 66, 50
3, 20676, Note_on_c, 1, 66, 0
3, 20679, Note_on_c, 1, 66, 50
3, 20715, Note_on_c, 1, 66, 0
3, 20719, Note_on_c, 1, 66, 49
3, 20756, Note_on_c, 1, 66, 0
3, 20760, Note_on_c, 1, 66, 49
3, 20796, Note_on_c, 1, 66, 0
3, 20799, Note_on_c, 1, 66, 49
3, 20820, Note_on_c, 1, 68, 0
3, 20835, Note_on_c, 1, 66, 0
3, 20839, Note_on_c, 1, 66, 48
3, 20840, Note_on_c, 1, 69, 48
3, 20876, Note_on_c, 1, 66, 0
3, 20880, Note_on_c, 1, 69, 0
3, 20880, Note_on_c, 1, 70, 48
3, 20880, Note_on_c, 1, 66, 48
3, 20916, Note_on_c, 1, 66, 0
3, 20919, Note_on_c, 1, 66, 47
3, 20920, Note_on_c, 1, 70, 0
3, 20920, Note_on_c, 1, 69, 47
3, 20955, Note_on_c, 1, 66, 0
3, 20959, Note_on_c, 1, 66, 47
3, 20960, Note_on_c, 1, 69, 0
3, 20960, Note_on_c, 1, 69, 47
3, 20996, Note_on_c, 1, 66, 0
3, 21000, Note_on_c, 1, 69, 0
3, 21000, Note_on_c, 1, 70, 48
3, 21000, Note_on_c, 1, 66, 48
3, 21036, Note_on_c, 1, 66, 0
3, 21039, Note_on_c, 1, 66, 49
3, 21040, Note_on_c, 1, 70, 0
3, 21040, Note_on_c, 1, 69, 49
3, 21075, Note_on_c, 1, 66, 0
3, 21079, Note_on_c, 1, 66, 48
3, 21080, Note_on_c, 1, 69, 0
3, 21080, Note_on_c, 1, 69, 48
3, 21116, Note_on_c, 1, 66, 0
3, 21120, Note_on_c, 1, 69, 0
3, 21120, Note_on_c, 1, 65, 49
3, 21120, Note_on_c, 1, 68, 49
3, 21156, Note_on_c, 1, 68, 0
3, 21156, Note_on_c, 1, 65, 0
3, 21159, Note_on_c, 1, 56, 50
3, 21159, Note_on_c, 1, 61, 50
3, 21159, Note_on_c, 1, 65, 50
3, 21195, Note_on_c, 1, 65, 0
3, 21195, Note_on_c, 1, 61, 0
3, 21195, Note_on_c, 1, 56, 0
3, 21199, Note_on_c, 1, 56, 52
3, 21199, Note_on_c, 1, 61, 52
3, 21199, Note_on_c, 1, 65, 52
3, 21236, Note_on_c, 1, 65, 0
3, 21236, Note_on_c, 1, 61, 0
3, 21236, Note_on_c, 1, 56, 0
3, 21240, Note_on_c, 1, 56, 54
3, 21240, Note_on_c, 1, 61, 54
3, 21240, Note_on_c, 1, 65, 54
3, 21276, Note_on_c, 1, 65, 0
3, 21276, Note_on_c, 1, 61, 0
3, 21276, Note_on_c, 1, 56, 0
3, 21279, Note_on_c, 1, 56, 54
3, 21279, Note_on_c, 1, 61, 54
3, 21279, Note_on_c, 1, 65, 54
3, 21315, Note_on_c, 1, 65, 0
3, 21315, Note_on_c, 1, 61, 0
3, 21315, Note_on_c, 1, 56, 0
3, 21319, Note_on_c, 1, 56, 55
3, 21319, Note_on_c, 1, 61, 55
3, 21319, Note_on_c, 1, 65, 55
3, 21356, Note_on_c, 1, 65, 0
3, 21356, Note_on_c, 1, 61, 0
3, 21356, Note_on_c, 1, 56, 0
3, 21360, Note_on_c, 1, 56, 57
3, 21360, Note_on_c, 1, 61, 57
3, 21360, Note_on_c, 1, 65, 57
3, 21396, Note_on_c, 1, 65, 0
3, 21396, Note_on_c, 1, 61, 0
3, 21396, Note_on_c, 1, 56, 0
3, 21399, Note_on_c, 1, 56, 57
3, 21399, Note_on_c, 1, 61, 57
3, 21399, Note_on_c, 1, 65, 57
3, 21435, Note_on_c, 1, 65, 0
3, 21435, Note_on_c, 1, 61, 0
3, 21435, Note_on_c, 1, 56, 0
3, 21439, Note_on_c, 1, 56, 59
3, 21439, Note_on_c, 1, 61, 59
3, 21439, Note_on_c, 1, 65, 59
3, 21476, Note_on_c, 1, 65, 0
3, 21476, Note_on_c, 1, 61, 0
3, 21476, Note_on_c, 1, 56, 0
3, 21480, Note_on_c, 1, 56, 61
3, 21480, Note_on_c, 1, 61, 61
3, 21480, Note_on_c, 1, 65, 61
3, 21516, Note_on_c, 1, 65, 0
3, 21516, Note_on_c, 1, 61, 0
3, 21516, Note_on_c, 1, 56, 0
3, 21519, Note_on_c, 1, 56, 63
3, 21519, Note_on_c, 1, 61, 63
3, 21519, Note_on_c, 1, 65, 63
3, 21555, Note_on_c, 1, 65, 0
3, 21555, Note_on_c, 1, 61, 0
3, 21555, Note_on_c, 1, 56, 0
3, 21559, Note_on_c, 1, 56, 65
3, 21559, Note_on_c, 1, 61, 65
3, 21559, Note_on_c, 1, 65, 65
3, 21596, Note_on_c, 1, 65, 0
3, 21596, Note_on_c, 1, 61, 0
3, 21596, Note_on_c, 1, 56, 0
3, 21639, Note_on_c, 1, 58, 68
3, 21639, Note_on_c, 1, 61, 68
3, 21639, Note_on_c, 1, 63, 68
3, 21675, Note_on_c, 1, 63, 0
3, 21675, Note_on_c, 1, 61, 0
3, 21675, Note_on_c, 1, 58, 0
3, 21679, Note_on_c, 1, 58, 72
3, 21679, Note_on_c, 1, 61, 72
3, 21679, Note_on_c, 1, 63, 72
3, 21716, Note_on_c, 1, 63, 0
3, 21716, Note_on_c, 1, 61, 0
3, 21716, Note_on_c, 1, 58, 0
3, 21720, Note_on_c, 1, 58, 93
3, 21720, Note_on_c, 1, 61, 92
3, 21720, Note_on_c, 1, 63, 95
3, 21756, Note_on_c, 1, 63, 0
3, 21756, Note_on_c, 1, 61, 0
3, 21756, Note_on_c, 1, 58, 0
3, 21759, Note_on_c, 1, 58, 109
3, 21759, Note_on_c, 1, 61, 107
3, 21759, Note_on_c, 1, 63, 109
3, 21795, Note_on_c, 1, 63, 0
3, 21795, Note_on_c, 1, 61, 0
3, 21795, Note_on_c, 1, 58, 0
3, 21799, Note_on_c, 1, 58, 126
3, 21799, Note_on_c, 1, 61, 127
3, 21799, Note_on_c, 1, 63, 125
3, 21836, Note_on_c, 1, 63, 0
3, 21836, Note_on_c, 1, 61, 0
3, 21836, Note_on_c, 1, 58, 0
3, 21879, Note_on_c, 1, 56, 96
3, 21879, Note_on_c, 1, 60, 95
3, 21879, Note_on_c, 1, 63, 95
3, 21879, Note_on_c, 1, 66, 97
3, 21915, Note_on_c, 1, 66, 0
3, 21915, Note_on_c, 1, 56, 0
3, 21915, Note_on_c, 1, 60, 0
3, 21915, Note_on_c, 1, 63, 0
3, 21919, Note_on_c, 1, 56, 85
3, 21919, Note_on_c, 1, 60, 83
3, 21919, Note_on_c, 1, 63, 85
3, 21919, Note_on_c, 1, 66, 86
3, 21956, Note_on_c, 1, 66, 0
3, 21956, Note_on_c, 1, 56, 0
3, 21956, Note_on_c, 1, 60, 0
3, 21956, Note_on_c, 1, 63, 0
3, 21960, Note_on_c, 1, 56, 71
3, 21960, Note_on_c, 1, 60, 70
3, 21960, Note_on_c, 1, 63, 69
3, 21960, Note_on_c, 1, 66, 71
3, 21996, Note_on_c, 1, 66, 0
3, 21996, Note_on_c, 1, 56, 0
3, 21996, Note_on_c, 1, 60, 0
3, 21996, Note_on_c, 1, 63, 0
3, 21999, Note_on_c, 1, 56, 71
3, 21999, Note_on_c, 1, 60, 71
3, 21999, Note_on_c, 1, 63, 71
3, 21999, Note_on_c, 1, 66, 71
3, 22035, Note_on_c, 1, 66, 0
3, 22035, Note_on_c, 1, 56, 0
3, 22035, Note_on_c, 1, 60, 0
3, 22035, Note_on_c, 1, 63, 0
3, 22039, Note_on_c, 1, 56, 69
3, 22039, Note_on_c, 1, 60, 69
3, 22039, Note_on_c, 1, 63, 69
3, 22039, Note_on_c, 1, 66, 69
3, 22076, Note_on_c, 1, 66, 0
3, 22076, Note_on_c, 1, 56, 0
3, 22076, Note_on_c, 1, 60, 0
3, 22076, Note_on_c, 1, 63, 0
3, 22080, Note_on_c, 1, 56, 68
3, 22080, Note_on_c, 1, 61, 68
3, 22080, Note_on_c, 1, 65, 68
3, 22116, Note_on_c, 1, 65, 0
3, 22116, Note_on_c, 1, 61, 0
3, 22116, Note_on_c, 1, 56, 0
3, 22119, Note_on_c, 1, 65, 68
3, 22155, Note_on_c, 1, 65, 0
3, 22159, Note_on_c, 1, 65, 67
3, 22196, Note_on_c, 1, 65, 0
3, 22200, Note_on_c, 1, 65, 66
3, 22236, Note_on_c, 1, 65, 0
3, 22239, Note_on_c, 1, 65, 65
3, 22275, Note_on_c, 1, 65, 0
3, 22279, Note_on_c, 1, 65, 65
3, 22316, Note_on_c, 1, 65, 0
3, 22320, Note_on_c, 1, 77, 64
3, 22320, Note_on_c, 1, 65, 64
3, 22360, Note_on_c, 1, 65, 0
3, 22360, Note_on_c, 1, 77, 0
3, 22360, Note_on_c, 1, 75, 63
3, 22360, Note_on_c, 1, 65, 63
3, 22400, Note_on_c, 1, 65, 0
3, 22400, Note_on_c, 1, 75, 0
3, 22400, Note_on_c, 1, 73, 63
3, 22400, Note_on_c, 1, 65, 63
3, 22440, Note_on_c, 1, 65, 0
3, 22440, Note_on_c, 1, 73, 0
3, 22440, Note_on_c, 1, 72, 62
3, 22440, Note_on_c, 1, 65, 62
3, 22480, Note_on_c, 1, 65, 0
3, 22480, Note_on_c, 1, 72, 0
3, 22480, Note_on_c, 1, 70, 61
3, 22480, Note_on_c, 1, 65, 61
3, 22520, Note_on_c, 1, 65, 0
3, 22520, Note_on_c, 1, 70, 0
3, 22520, Note_on_c, 1, 68, 61
3, 22520, Note_on_c, 1, 65, 61
3, 22560, Note_on_c, 1, 65, 0
3, 22560, Note_on_c, 1, 68, 0
3, 22560, Note_on_c, 1, 66, 60
3, 22560, Note_on_c, 1, 68, 60
3, 22596, Note_on_c, 1, 66, 0
3, 22599, Note_on_c, 1, 66, 60
3, 22635, Note_on_c, 1, 66, 0
3, 22639, Note_on_c, 1, 66, 60
3, 22676, Note_on_c, 1, 66, 0
3, 22676, Note_on_c, 1, 68, 0
3, 22680, Note_on_c, 1, 66, 59
3, 22716, Note_on_c, 1, 66, 0
3, 22719, Note_on_c, 1, 66, 58
3, 22719, Note_on_c, 1, 68, 58
3, 22755, Note_on_c, 1, 68, 0
3, 22755, Note_on_c, 1, 66, 0
3, 22759, Note_on_c, 1, 66, 58
3, 22759, Note_on_c, 1, 68, 58
3, 22796, Note_on_c, 1, 68, 0
3, 22796, Note_on_c, 1, 66, 0
3, 22800, Note_on_c, 1, 63, 58
3, 22800, Note_on_c, 1, 66, 58
3, 22800, Note_on_c, 1, 70, 58
3, 22836, Note_on_c, 1, 70, 0
3, 22836, Note_on_c, 1, 66, 0
3, 22836, Note_on_c, 1, 63, 0
3, 22839, Note_on_c, 1, 63, 57
3, 22839, Note_on_c, 1, 66, 57
3, 22839, Note_on_c, 1, 68, 57
3, 22875, Note_on_c, 1, 68, 0
3, 22875, Note_on_c, 1, 66, 0
3, 22875, Note_on_c, 1, 63, 0
3, 22879, Note_on_c, 1, 63, 57
3, 22879, Note_on_c, 1, 66, 57
3, 22879, Note_on_c, 1, 68, 57
3, 22916, Note_on_c, 1, 68, 0
3, 22916, Note_on_c, 1, 66, 0
3, 22916, Note_on_c, 1, 63, 0
3, 22920, Note_on_c, 1, 63, 56
3, 22920, Note_on_c, 1, 66, 56
3, 22920, Note_on_c, 1, 70, 56
3, 22956, Note_on_c, 1, 70, 0
3, 22956, Note_on_c, 1, 66, 0
3, 22956, Note_on_c, 1, 63, 0
3, 22959, Note_on_c, 1, 63, 56
3, 22959, Note_on_c, 1, 66, 56
3, 22959, Note_on_c, 1, 68, 56
3, 22995, Note_on_c, 1, 68, 0
3, 22995, Note_on_c, 1, 66, 0
3, 22995, Note_on_c, 1, 63, 0
3, 22999, Note_on_c, 1, 63, 55
3, 22999, Note_on_c, 1, 66, 55
3, 22999, Note_on_c, 1, 68, 55
3, 23036, Note_on_c, 1, 68, 0
3, 23036, Note_on_c, 1, 66, 0
3, 23036, Note_on_c, 1, 63, 0
3, 23040, Note_on_c, 1, 65, 55
3, 23040, Note_on_c, 1, 68, 55
3, 23076, Note_on_c, 1, 68, 0
3, 23076, Note_on_c, 1, 65, 0
3, 23079, Note_on_c, 1, 56, 55
3, 23079, Note_on_c, 1, 61, 55
3, 23079, Note_on_c, 1, 65, 55
3, 23115, Note_on_c, 1, 65, 0
3, 23115, Note_on_c, 1, 61, 0
3, 23115, Note_on_c, 1, 56, 0
3, 23119, Note_on_c, 1, 56, 54
3, 23119, Note_on_c, 1, 61, 54
3, 23119, Note_on_c, 1, 65, 54
3, 23156, Note_on_c, 1, 65, 0
3, 23156, Note_on_c, 1, 61, 0
3, 23156, Note_on_c, 1, 56, 0
3, 23160, Note_on_c, 1, 56, 54
3, 23160, Note_on_c, 1, 61, 54
3, 23160, Note_on_c, 1, 65, 54
3, 23196, Note_on_c, 1, 65, 0
3, 23196, Note_on_c, 1, 61, 0
3, 23196, Note_on_c, 1, 56, 0
3, 23199, Note_on_c, 1, 56, 54
3, 23199, Note_on_c, 1, 61, 54
3, 23199, Note_on_c, 1, 65, 54
3, 23235, Note_on_c, 1, 65, 0
3, 23235, Note_on_c, 1, 61, 0
3, 23235, Note_on_c, 1, 56, 0
3, 23239, Note_on_c, 1, 56, 54
3, 23239, Note_on_c, 1, 61, 54
3, 23239, Note_on_c, 1, 65, 54
3, 23276, Note_on_c, 1, 65, 0
3, 23276, Note_on_c, 1, 61, 0
3, 23276, Note_on_c, 1, 56, 0
3, 23280, Note_on_c, 1, 56, 54
3, 23280, Note_on_c, 1, 61, 54
3, 23280, Note_on_c, 1, 65, 54
3, 23316, Note_on_c, 1, 65, 0
3, 23316, Note_on_c, 1, 61, 0
3, 23316, Note_on_c, 1, 56, 0
3, 23319, Note_on_c, 1, 56, 52
3, 23319, Note_on_c, 1, 61, 52
3, 23319, Note_on_c, 1, 65, 52
3, 23355, Note_on_c, 1, 65, 0
3, 23355, Note_on_c, 1, 61, 0
3, 23355, Note_on_c, 1, 56, 0
3, 23359, Note_on_c, 1, 56, 52
3, 23359, Note_on_c, 1, 61, 52
3, 23359, Note_on_c, 1, 65, 52
3, 23396, Note_on_c, 1, 65, 0
3, 23396, Note_on_c, 1, 61, 0
3, 23396, Note_on_c, 1, 56, 0
3, 23400, Note_on_c, 1, 56, 52
3, 23400, Note_on_c, 1, 61, 52
3, 23400, Note_on_c, 1, 65, 52
3, 23436, Note_on_c, 1, 65, 0
3, 23436, Note_on_c, 1, 61, 0
3, 23436, Note_on_c, 1, 56, 0
3, 23439, Note_on_c, 1, 56, 52
3, 23439, Note_on_c, 1, 61, 52
3, 23439, Note_on_c, 1, 65, 52
3, 23475, Note_on_c, 1, 65, 0
3, 23475, Note_on_c, 1, 61, 0
3, 23475, Note_on_c, 1, 56, 0
3, 23479, Note_on_c, 1, 56, 52
3, 23479, Note_on_c, 1, 61, 52
3, 23479, Note_on_c, 1, 65, 52
3, 23516, Note_on_c, 1, 65, 0
3, 23516, Note_on_c, 1, 61, 0
3, 23516, Note_on_c, 1, 56, 0
3, 23559, Note_on_c, 1, 58, 53
3, 23559, Note_on_c, 1, 61, 53
3, 23559, Note_on_c, 1, 63, 53
3, 23595, Note_on_c, 1, 63, 0
3, 23595, Note_on_c, 1, 61, 0
3, 23595, Note_on_c, 1, 58, 0
3, 23599, Note_on_c, 1, 58, 53
3, 23599, Note_on_c, 1, 61, 53
3, 23599, Note_on_c, 1, 63, 53
3, 23636, Note_on_c, 1, 63, 0
3, 23636, Note_on_c, 1, 61, 0
3, 23636, Note_on_c, 1, 58, 0
3, 23640, Note_on_c, 1, 58, 54
3, 23640, Note_on_c, 1, 61, 54
3, 23640, Note_on_c, 1, 63, 54
3, 23676, Note_on_c, 1, 63, 0
3, 23676, Note_on_c, 1, 61, 0
3, 23676, Note_on_c, 1, 58, 0
3, 23679, Note_on_c, 1, 58, 54
3, 23679, Note_on_c, 1, 61, 54
3, 23679, Note_on_c, 1, 63, 54
3, 23715, Note_on_c, 1, 63, 0
3, 23715, Note_on_c, 1, 61, 0
3, 23715, Note_on_c, 1, 58, 0
3, 23719, Note_on_c, 1, 58, 55
3, 23719, Note_on_c, 1, 61, 55
3, 23719, Note_on_c, 1, 63, 55
3, 23779, Note_on_c, 1, 63, 0
3, 23779, Note_on_c, 1, 61, 0
3, 23779, Note_on_c, 1, 58, 0
3, 23799, Note_on_c, 1, 56, 55
3, 23799, Note_on_c, 1, 60, 55
3, 23799, Note_on_c, 1, 63, 55
3, 23799, Note_on_c, 1, 66, 55
3, 23835, Note_on_c, 1, 66, 0
3, 23835, Note_on_c, 1, 56, 0
3, 23835, Note_on_c, 1, 60, 0
3, 23835, Note_on_c, 1, 63, 0
3, 23839, Note_on_c, 1, 56, 55
3, 23839, Note_on_c, 1, 60, 55
3, 23839, Note_on_c, 1, 63, 55
3, 23839, Note_on_c, 1, 66, 55
3, 23876, Note_on_c, 1, 66, 0
3, 23876, Note_on_c, 1, 56, 0
3, 23876, Note_on_c, 1, 60, 0
3, 23876, Note_on_c, 1, 63, 0
3, 23880, Note_on_c, 1, 56, 55
3, 23880, Note_on_c, 1, 60, 55
3, 23880, Note_on_c, 1, 63, 55
3, 23880, Note_on_c, 1, 66, 55
3, 23916, Note_on_c, 1, 66, 0
3, 23916, Note_on_c, 1, 56, 0
3, 23916, Note_on_c, 1, 60, 0
3, 23916, Note_on_c, 1, 63, 0
3, 23919, Note_on_c, 1, 56, 55
3, 23919, Note_on_c, 1, 60, 55
3, 23919, Note_on_c, 1, 63, 55
3, 23919, Note_on_c, 1, 66, 55
3, 23955, Note_on_c, 1, 66, 0
3, 23955, Note_on_c, 1, 56, 0
3, 23955, Note_on_c, 1, 60, 0
3, 23955, Note_on_c, 1, 63, 0
3, 23959, Note_on_c, 1, 56, 55
3, 23959, Note_on_c, 1, 60, 55
3, 23959, Note_on_c, 1, 63, 55
3, 23959, Note_on_c, 1, 66, 55
3, 23996, Note_on_c, 1, 66, 0
3, 23996, Note_on_c, 1, 56, 0
3, 23996, Note_on_c, 1, 60, 0
3, 23996, Note_on_c, 1, 63, 0
3, 24000, Note_on_c, 1, 56, 55
3, 24000, Note_on_c, 1, 61, 55
3, 24000, Note_on_c, 1, 65, 55
3, 24036, Note_on_c, 1, 65, 0
3, 24036, Note_on_c, 1, 61, 0
3, 24036, Note_on_c, 1, 56, 0
3, 24039, Note_on_c, 1, 56, 55
3, 24039, Note_on_c, 1, 61, 55
3, 24039, Note_on_c, 1, 65, 55
3, 24075, Note_on_c, 1, 65, 0
3, 24075, Note_on_c, 1, 61, 0
3, 24075, Note_on_c, 1, 56, 0
3, 24079, Note_on_c, 1, 56, 54
3, 24079, Note_on_c, 1, 61, 54
3, 24079, Note_on_c, 1, 65, 54
3, 24116, Note_on_c, 1, 65, 0
3, 24116, Note_on_c, 1, 61, 0
3, 24116, Note_on_c, 1, 56, 0
3, 24120, Note_on_c, 1, 56, 54
3, 24120, Note_on_c, 1, 61, 54
3, 24120, Note_on_c, 1, 65, 54
3, 24156, Note_on_c, 1, 65, 0
3, 24156, Note_on_c, 1, 61, 0
3, 24156, Note_on_c, 1, 56, 0
3, 24159, Note_on_c, 1, 56, 54
3, 24159, Note_on_c, 1, 61, 54
3, 24159, Note_on_c, 1, 65, 54
3, 24195, Note_on_c, 1, 65, 0
3, 24195, Note_on_c, 1, 61, 0
3, 24195, Note_on_c, 1, 56, 0
3, 24199, Note_on_c, 1, 56, 53
3, 24199, Note_on_c, 1, 61, 53
3, 24199, Note_on_c, 1, 65, 53
3, 24236, Note_on_c, 1, 65, 0
3, 24236, Note_on_c, 1, 61, 0
3, 24236, Note_on_c, 1, 56, 0
3, 24240, Note_on_c, 1, 56, 53
3, 24240, Note_on_c, 1, 61, 53
3, 24240, Note_on_c, 1, 65, 53
3, 24276, Note_on_c, 1, 65, 0
3, 24276, Note_on_c, 1, 61, 0
3, 24276, Note_on_c, 1, 56, 0
3, 24279, Note_on_c, 1, 56, 53
3, 24279, Note_on_c, 1, 61, 53
3, 24279, Note_on_c, 1, 65, 53
3, 24315, Note_on_c, 1, 65, 0
3, 24315, Note_on_c, 1, 61, 0
3, 24315, Note_on_c, 1, 56, 0
3, 24319, Note_on_c, 1, 56, 53
3, 24319, Note_on_c, 1, 61, 53
3, 24319, Note_on_c, 1, 65, 53
3, 24356, Note_on_c, 1, 65, 0
3, 24356, Note_on_c, 1, 61, 0
3, 24356, Note_on_c, 1, 56, 0
3, 24360, Note_on_c, 1, 56, 55
3, 24360, Note_on_c, 1, 61, 55
3, 24360, Note_on_c, 1, 65, 55
3, 24396, Note_on_c, 1, 65, 0
3, 24396, Note_on_c, 1, 61, 0
3, 24396, Note_on_c, 1, 56, 0
3, 24399, Note_on_c, 1, 56, 56
3, 24399, Note_on_c, 1, 61, 56
3, 24399, Note_on_c, 1, 65, 56
3, 24435, Note_on_c, 1, 65, 0
3, 24435, Note_on_c, 1, 61, 0
3, 24435, Note_on_c, 1, 56, 0
3, 24439, Note_on_c, 1, 56, 58
3, 24439, Note_on_c, 1, 61, 58
3, 24439, Note_on_c, 1, 65, 58
3, 24476, Note_on_c, 1, 65, 0
3, 24476, Note_on_c, 1, 61, 0
3, 24476, Note_on_c, 1, 56, 0
3, 24480, Note_on_c, 1, 58, 94
3, 24480, Note_on_c, 1, 61, 94
3, 24480, Note_on_c, 1, 63, 94
3, 24600, Note_on_c, 1, 63, 0
3, 24600, Note_on_c, 1, 61, 0
3, 24600, Note_on_c, 1, 58, 0
3, 24600, Note_on_c, 1, 75, 90
3, 24690, Note_on_c, 1, 75, 0
3, 24690, Note_on_c, 1, 77, 99
3, 24697, Note_on_c, 1, 77, 0
3, 24697, Note_on_c, 1, 75, 90
3, 24704, Note_on_c, 1, 75, 0
3, 24705, Note_on_c, 1, 74, 90
3, 24712, Note_on_c, 1, 74, 0
3, 24712, Note_on_c, 1, 75, 99
3, 24719, Note_on_c, 1, 75, 0
3, 24720, Note_on_c, 1, 82, 127
3, 24756, Note_on_c, 1, 82, 0
3, 24759, Note_on_c, 1, 80, 94
3, 24795, Note_on_c, 1, 80, 0
3, 24799, Note_on_c, 1, 79, 92
3, 24836, Note_on_c, 1, 79, 0
3, 24840, Note_on_c, 1, 77, 93
3, 24876, Note_on_c, 1, 77, 0
3, 24879, Note_on_c, 1, 75, 90
3, 24915, Note_on_c, 1, 75, 0
3, 24919, Note_on_c, 1, 73, 89
3, 24956, Note_on_c, 1, 73, 0
3, 24999, Note_on_c, 1, 72, 87
3, 25035, Note_on_c, 1, 72, 0
3, 25039, Note_on_c, 1, 75, 85
3, 25076, Note_on_c, 1, 75, 0
3, 25080, Note_on_c, 1, 75, 83
3, 25116, Note_on_c, 1, 75, 0
3, 25119, Note_on_c, 1, 75, 83
3, 25155, Note_on_c, 1, 75, 0
3, 25159, Note_on_c, 1, 75, 81
3, 25196, Note_on_c, 1, 75, 0
3, 25239, Note_on_c, 1, 70, 79
3, 25275, Note_on_c, 1, 70, 0
3, 25279, Note_on_c, 1, 75, 78
3, 25316, Note_on_c, 1, 75, 0
3, 25320, Note_on_c, 1, 75, 76
3, 25356, Note_on_c, 1, 75, 0
3, 25359, Note_on_c, 1, 75, 76
3, 25395, Note_on_c, 1, 75, 0
3, 25399, Note_on_c, 1, 75, 74
3, 25436, Note_on_c, 1, 75, 0
3, 25479, Note_on_c, 1, 87, 71
3, 25515, Note_on_c, 1, 87, 0
3, 25519, Note_on_c, 1, 87, 71
3, 25556, Note_on_c, 1, 87, 0
3, 25560, Note_on_c, 1, 89, 71
3, 25596, Note_on_c, 1, 89, 0
3, 25599, Note_on_c, 1, 87, 70
3, 25635, Note_on_c, 1, 87, 0
3, 25639, Note_on_c, 1, 87, 69
3, 25676, Note_on_c, 1, 87, 0
3, 25719, Note_on_c, 1, 87, 69
3, 25755, Note_on_c, 1, 87, 0
3, 25759, Note_on_c, 1, 87, 68
3, 25796, Note_on_c, 1, 87, 0
3, 25800, Note_on_c, 1, 89, 67
3, 25836, Note_on_c, 1, 89, 0
3, 25839, Note_on_c, 1, 87, 67
3, 25875, Note_on_c, 1, 87, 0
3, 25879, Note_on_c, 1, 87, 65
3, 25916, Note_on_c, 1, 87, 0
3, 25959, Note_on_c, 1, 75, 64
3, 25995, Note_on_c, 1, 75, 0
3, 25999, Note_on_c, 1, 75, 64
3, 26036, Note_on_c, 1, 75, 0
3, 26040, Note_on_c, 1, 77, 65
3, 26076, Note_on_c, 1, 77, 0
3, 26079, Note_on_c, 1, 75, 65
3, 26115, Note_on_c, 1, 75, 0
3, 26119, Note_on_c, 1, 75, 65
3, 26156, Note_on_c, 1, 75, 0
3, 26160, Note_on_c, 1, 78, 66
3, 26196, Note_on_c, 1, 78, 0
3, 26199, Note_on_c, 1, 77, 66
3, 26235, Note_on_c, 1, 77, 0
3, 26239, Note_on_c, 1, 75, 65
3, 26276, Note_on_c, 1, 75, 0
3, 26280, Note_on_c, 1, 73, 65
3, 26316, Note_on_c, 1, 73, 0
3, 26319, Note_on_c, 1, 72, 64
3, 26355, Note_on_c, 1, 72, 0
3, 26359, Note_on_c, 1, 70, 64
3, 26396, Note_on_c, 1, 70, 0
3, 26400, Note_on_c, 1, 69, 63
3, 26520, Note_on_c, 1, 69, 0
3, 26520, Note_on_c, 1, 77, 65
3, 26610, Note_on_c, 1, 78, 74
3, 26617, Note_on_c, 1, 78, 0
3, 26617, Note_on_c, 1, 77, 74
3, 26624, Note_on_c, 1, 77, 0
3, 26625, Note_on_c, 1, 75, 74
3, 26632, Note_on_c, 1, 75, 0
3, 26632, Note_on_c, 1, 77, 73
3, 26639, Note_on_c, 1, 77, 0
3, 26640, Note_on_c, 1, 77, 0
3, 26640, Note_on_c, 1, 84, 73
3, 26676, Note_on_c, 1, 84, 0
3, 26679, Note_on_c, 1, 82, 71
3, 26715, Note_on_c, 1, 82, 0
3, 26719, Note_on_c, 1, 81, 68
3, 26756, Note_on_c, 1, 81, 0
3, 26760, Note_on_c, 1, 78, 67
3, 26796, Note_on_c, 1, 78, 0
3, 26799, Note_on_c, 1, 77, 66
3, 26835, Note_on_c, 1, 77, 0
3, 26839, Note_on_c, 1, 75, 66
3, 26876, Note_on_c, 1, 75, 0
3, 26919, Note_on_c, 1, 73, 64
3, 26955, Note_on_c, 1, 73, 0
3, 26959, Note_on_c, 1, 77, 63
3, 26996, Note_on_c, 1, 77, 0
3, 27000, Note_on_c, 1, 77, 62
3, 27036, Note_on_c, 1, 77, 0
3, 27039, Note_on_c, 1, 77, 62
3, 27075, Note_on_c, 1, 77, 0
3, 27079, Note_on_c, 1, 77, 61
3, 27116, Note_on_c, 1, 77, 0
3, 27159, Note_on_c, 1, 72, 59
3, 27195, Note_on_c, 1, 72, 0
3, 27199, Note_on_c, 1, 77, 58
3, 27236, Note_on_c, 1, 77, 0
3, 27240, Note_on_c, 1, 77, 58
3, 27276, Note_on_c, 1, 77, 0
3, 27279, Note_on_c, 1, 77, 58
3, 27315, Note_on_c, 1, 77, 0
3, 27319, Note_on_c, 1, 77, 58
3, 27356, Note_on_c, 1, 77, 0
3, 27399, Note_on_c, 1, 65, 58
3, 27399, Note_on_c, 1, 77, 58
3, 27435, Note_on_c, 1, 77, 0
3, 27435, Note_on_c, 1, 65, 0
3, 27439, Note_on_c, 1, 65, 58
3, 27439, Note_on_c, 1, 77, 58
3, 27476, Note_on_c, 1, 77, 0
3, 27476, Note_on_c, 1, 65, 0
3, 27480, Note_on_c, 1, 66, 58
3, 27480, Note_on_c, 1, 78, 58
3, 27516, Note_on_c, 1, 78, 0
3, 27516, Note_on_c, 1, 66, 0
3, 27519, Note_on_c, 1, 65, 58
3, 27519, Note_on_c, 1, 77, 58
3, 27555, Note_on_c, 1, 77, 0
3, 27555, Note_on_c, 1, 65, 0
3, 27559, Note_on_c, 1, 65, 58
3, 27559, Note_on_c, 1, 77, 58
3, 27596, Note_on_c, 1, 77, 0
3, 27596, Note_on_c, 1, 65, 0
3, 27639, Note_on_c, 1, 65, 58
3, 27639, Note_on_c, 1, 77, 58
3, 27675, Note_on_c, 1, 77, 0
3, 27675, Note_on_c, 1, 65, 0
3, 27679, Note_on_c, 1, 65, 57
3, 27679, Note_on_c, 1, 77, 57
3, 27716, Note_on_c, 1, 77, 0
3, 27716, Note_on_c, 1, 65, 0
3, 27720, Note_on_c, 1, 66, 57
3, 27720, Note_on_c, 1, 78, 57
3, 27756, Note_on_c, 1, 78, 0
3, 27756, Note_on_c, 1, 66, 0
3, 27759, Note_on_c, 1, 65, 56
3, 27759, Note_on_c, 1, 77, 56
3, 27795, Note_on_c, 1, 77, 0
3, 27795, Note_on_c, 1, 65, 0
3, 27799, Note_on_c, 1, 65, 56
3, 27799, Note_on_c, 1, 77, 56
3, 27836, Note_on_c, 1, 77, 0
3, 27836, Note_on_c, 1, 65, 0
3, 27879, Note_on_c, 1, 70, 55
3, 27915, Note_on_c, 1, 70, 0
3, 27919, Note_on_c, 1, 73, 55
3, 27956, Note_on_c, 1, 73, 0
3, 27960, Note_on_c, 1, 78, 54
3, 27996, Note_on_c, 1, 78, 0
3, 27999, Note_on_c, 1, 73, 54
3, 28035, Note_on_c, 1, 73, 0
3, 28039, Note_on_c, 1, 70, 54
3, 28076, Note_on_c, 1, 70, 0
3, 28119, Note_on_c, 1, 68, 54
3, 28155, Note_on_c, 1, 68, 0
3, 28159, Note_on_c, 1, 71, 54
3, 28196, Note_on_c, 1, 71, 0
3, 28200, Note_on_c, 1, 75, 53
3, 28236, Note_on_c, 1, 75, 0
3, 28239, Note_on_c, 1, 71, 53
3, 28275, Note_on_c, 1, 71, 0
3, 28279, Note_on_c, 1, 68, 53
3, 28316, Note_on_c, 1, 68, 0
3, 28359, Note_on_c, 1, 66, 52
3, 28395, Note_on_c, 1, 66, 0
3, 28399, Note_on_c, 1, 70, 52
3, 28436, Note_on_c, 1, 70, 0
3, 28440, Note_on_c, 1, 73, 52
3, 28476, Note_on_c, 1, 73, 0
3, 28479, Note_on_c, 1, 70, 52
3, 28515, Note_on_c, 1, 70, 0
3, 28519, Note_on_c, 1, 66, 52
3, 28556, Note_on_c, 1, 66, 0
3, 28599, Note_on_c, 1, 59, 52
3, 28635, Note_on_c, 1, 59, 0
3, 28639, Note_on_c, 1, 65, 52
3, 28676, Note_on_c, 1, 65, 0
3, 28680, Note_on_c, 1, 68, 52
3, 28716, Note_on_c, 1, 68, 0
3, 28719, Note_on_c, 1, 65, 52
3, 28755, Note_on_c, 1, 65, 0
3, 28759, Note_on_c, 1, 59, 52
3, 28796, Note_on_c, 1, 59, 0
3, 28800, Note_on_c, 1, 58, 52
3, 28800, Note_on_c, 1, 66, 52
3, 28836, Note_on_c, 1, 66, 0
3, 28836, Note_on_c, 1, 58, 0
3, 28839, Note_on_c, 1, 58, 52
3, 28875, Note_on_c, 1, 58, 0
3, 28879, Note_on_c, 1, 58, 52
3, 28916, Note_on_c, 1, 58, 0
3, 28920, Note_on_c, 1, 58, 52
3, 28956, Note_on_c, 1, 58, 0
3, 28959, Note_on_c, 1, 58, 52
3, 28995, Note_on_c, 1, 58, 0
3, 28999, Note_on_c, 1, 58, 52
3, 29036, Note_on_c, 1, 58, 0
3, 29040, Note_on_c, 1, 58, 52
3, 29040, Note_on_c, 1, 70, 52
3, 29076, Note_on_c, 1, 70, 0
3, 29076, Note_on_c, 1, 58, 0
3, 29079, Note_on_c, 1, 58, 52
3, 29079, Note_on_c, 1, 68, 52
3, 29115, Note_on_c, 1, 68, 0
3, 29115, Note_on_c, 1, 58, 0
3, 29119, Note_on_c, 1, 58, 52
3, 29119, Note_on_c, 1, 66, 52
3, 29156, Note_on_c, 1, 66, 0
3, 29156, Note_on_c, 1, 58, 0
3, 29160, Note_on_c, 1, 58, 51
3, 29160, Note_on_c, 1, 65, 51
3, 29196, Note_on_c, 1, 65, 0
3, 29196, Note_on_c, 1, 58, 0
3, 29199, Note_on_c, 1, 58, 51
3, 29199, Note_on_c, 1, 63, 51
3, 29235, Note_on_c, 1, 63, 0
3, 29235, Note_on_c, 1, 58, 0
3, 29239, Note_on_c, 1, 58, 51
3, 29239, Note_on_c, 1, 61, 51
3, 29276, Note_on_c, 1, 61, 0
3, 29276, Note_on_c, 1, 58, 0
3, 29280, Note_on_c, 1, 56, 51
3, 29280, Note_on_c, 1, 59, 51
3, 29280, Note_on_c, 1, 61, 51
3, 29280, Note_on_c, 1, 63, 51
3, 29316, Note_on_c, 1, 63, 0
3, 29316, Note_on_c, 1, 56, 0
3, 29316, Note_on_c, 1, 59, 0
3, 29316, Note_on_c, 1, 61, 0
3, 29319, Note_on_c, 1, 56, 51
3, 29319, Note_on_c, 1, 59, 51
3, 29319, Note_on_c, 1, 61, 51
3, 29355, Note_on_c, 1, 61, 0
3, 29355, Note_on_c, 1, 59, 0
3, 29355, Note_on_c, 1, 56, 0
3, 29359, Note_on_c, 1, 56, 51
3, 29359, Note_on_c, 1, 59, 51
3, 29359, Note_on_c, 1, 61, 51
3, 29396, Note_on_c, 1, 61, 0
3, 29396, Note_on_c, 1, 59, 0
3, 29396, Note_on_c, 1, 56, 0
3, 29400, Note_on_c, 1, 56, 50
3, 29400, Note_on_c, 1, 59, 52
3, 29400, Note_on_c, 1, 61, 53
3, 29436, Note_on_c, 1, 61, 0
3, 29436, Note_on_c, 1, 59, 0
3, 29436, Note_on_c, 1, 56, 0
3, 29439, Note_on_c, 1, 56, 47
3, 29439, Note_on_c, 1, 59, 49
3, 29439, Note_on_c, 1, 61, 48
3, 29475, Note_on_c, 1, 61, 0
3, 29475, Note_on_c, 1, 59, 0
3, 29475, Note_on_c, 1, 56, 0
3, 29479, Note_on_c, 1, 56, 49
3, 29479, Note_on_c, 1, 59, 50
3, 29479, Note_on_c, 1, 61, 47
3, 29516, Note_on_c, 1, 61, 0
3, 29516, Note_on_c, 1, 59, 0
3, 29516, Note_on_c, 1, 56, 0
3, 29520, Note_on_c, 1, 56, 51
3, 29520, Note_on_c, 1, 59, 51
3, 29520, Note_on_c, 1, 61, 50
3, 29556, Note_on_c, 1, 61, 0
3, 29556, Note_on_c, 1, 59, 0
3, 29556, Note_on_c, 1, 56, 0
3, 29559, Note_on_c, 1, 56, 49
3, 29559, Note_on_c, 1, 59, 50
3, 29559, Note_on_c, 1, 61, 47
3, 29595, Note_on_c, 1, 61, 0
3, 29595, Note_on_c, 1, 59, 0
3, 29595, Note_on_c, 1, 56, 0
3, 29599, Note_on_c, 1, 56, 47
3, 29599, Note_on_c, 1, 59, 47
3, 29599, Note_on_c, 1, 61, 47
3, 29636, Note_on_c, 1, 61, 0
3, 29636, Note_on_c, 1, 59, 0
3, 29636, Note_on_c, 1, 56, 0
3, 29640, Note_on_c, 1, 56, 52
3, 29640, Note_on_c, 1, 59, 53
3, 29640, Note_on_c, 1, 61, 51
3, 29676, Note_on_c, 1, 61, 0
3, 29676, Note_on_c, 1, 59, 0
3, 29676, Note_on_c, 1, 56, 0
3, 29679, Note_on_c, 1, 56, 49
3, 29679, Note_on_c, 1, 59, 47
3, 29679, Note_on_c, 1, 61, 49
3, 29715, Note_on_c, 1, 61, 0
3, 29715, Note_on_c, 1, 59, 0
3, 29715, Note_on_c, 1, 56, 0
3, 29719, Note_on_c, 1, 56, 48
3, 29719, Note_on_c, 1, 59, 47
3, 29719, Note_on_c, 1, 61, 48
3, 29756, Note_on_c, 1, 61, 0
3, 29756, Note_on_c, 1, 59, 0
3, 29756, Note_on_c, 1, 56, 0
3, 29760, Note_on_c, 1, 58, 51
3, 29760, Note_on_c, 1, 61, 51
3, 29796, Note_on_c, 1, 61, 0
3, 29796, Note_on_c, 1, 58, 0
3, 29799, Note_on_c, 1, 58, 45
3, 29835, Note_on_c, 1, 58, 0
3, 29839, Note_on_c, 1, 58, 46
3, 29876, Note_on_c, 1, 58, 0
3, 29880, Note_on_c, 1, 58, 50
3, 29916, Note_on_c, 1, 58, 0
3, 29919, Note_on_c, 1, 58, 49
3, 29955, Note_on_c, 1, 58, 0
3, 29959, Note_on_c, 1, 58, 49
3, 29996, Note_on_c, 1, 58, 0
3, 30000, Note_on_c, 1, 58, 49
3, 30000, Note_on_c, 1, 70, 49
3, 30036, Note_on_c, 1, 70, 0
3, 30036, Note_on_c, 1, 58, 0
3, 30039, Note_on_c, 1, 58, 49
3, 30039, Note_on_c, 1, 68, 49
3, 30075, Note_on_c, 1, 68, 0
3, 30075, Note_on_c, 1, 58, 0
3, 30079, Note_on_c, 1, 58, 49
3, 30079, Note_on_c, 1, 66, 49
3, 30116, Note_on_c, 1, 66, 0
3, 30116, Note_on_c, 1, 58, 0
3, 30120, Note_on_c, 1, 58, 49
3, 30120, Note_on_c, 1, 65, 49
3, 30156, Note_on_c, 1, 65, 0
3, 30156, Note_on_c, 1, 58, 0
3, 30159, Note_on_c, 1, 58, 49
3, 30159, Note_on_c, 1, 63, 49
3, 30195, Note_on_c, 1, 63, 0
3, 30195, Note_on_c, 1, 58, 0
3, 30199, Note_on_c, 1, 58, 50
3, 30199, Note_on_c, 1, 61, 50
3, 30236, Note_on_c, 1, 61, 0
3, 30236, Note_on_c, 1, 58, 0
3, 30240, Note_on_c, 1, 56, 50
3, 30240, Note_on_c, 1, 59, 50
3, 30240, Note_on_c, 1, 61, 50
3, 30276, Note_on_c, 1, 61, 0
3, 30276, Note_on_c, 1, 59, 0
3, 30276, Note_on_c, 1, 56, 0
3, 30279, Note_on_c, 1, 56, 51
3, 30279, Note_on_c, 1, 59, 51
3, 30279, Note_on_c, 1, 61, 51
3, 30315, Note_on_c, 1, 61, 0
3, 30315, Note_on_c, 1, 59, 0
3, 30315, Note_on_c, 1, 56, 0
3, 30319, Note_on_c, 1, 56, 52
3, 30319, Note_on_c, 1, 59, 52
3, 30319, Note_on_c, 1, 61, 52
3, 30356, Note_on_c, 1, 61, 0
3, 30356, Note_on_c, 1, 59, 0
3, 30356, Note_on_c, 1, 56, 0
3, 30360, Note_on_c, 1, 56, 52
3, 30360, Note_on_c, 1, 59, 52
3, 30360, Note_on_c, 1, 61, 52
3, 30396, Note_on_c, 1, 61, 0
3, 30396, Note_on_c, 1, 59, 0
3, 30396, Note_on_c, 1, 56, 0
3, 30399, Note_on_c, 1, 56, 53
3, 30399, Note_on_c, 1, 59, 53
3, 30399, Note_on_c, 1, 61, 53
3, 30435, Note_on_c, 1, 61, 0
3, 30435, Note_on_c, 1, 59, 0
3, 30435, Note_on_c, 1, 56, 0
3, 30439, Note_on_c, 1, 56, 53
3, 30439, Note_on_c, 1, 59, 53
3, 30439, Note_on_c, 1, 61, 53
3, 30476, Note_on_c, 1, 61, 0
3, 30476, Note_on_c, 1, 59, 0
3, 30476, Note_on_c, 1, 56, 0
3, 30480, Note_on_c, 1, 56, 54
3, 30480, Note_on_c, 1, 59, 54
3, 30480, Note_on_c, 1, 61, 54
3, 30516, Note_on_c, 1, 61, 0
3, 30516, Note_on_c, 1, 59, 0
3, 30516, Note_on_c, 1, 56, 0
3, 30519, Note_on_c, 1, 56, 56
3, 30519, Note_on_c, 1, 59, 56
3, 30519, Note_on_c, 1, 61, 56
3, 30555, Note_on_c, 1, 61, 0
3, 30555, Note_on_c, 1, 59, 0
3, 30555, Note_on_c, 1, 56, 0
3, 30559, Note_on_c, 1, 56, 57
3, 30559, Note_on_c, 1, 59, 57
3, 30559, Note_on_c, 1, 61, 57
3, 30596, Note_on_c, 1, 61, 0
3, 30596, Note_on_c, 1, 59, 0
3, 30596, Note_on_c, 1, 56, 0
3, 30600, Note_on_c, 1, 56, 59
3, 30600, Note_on_c, 1, 59, 59
3, 30600, Note_on_c, 1, 61, 59
3, 30636, Note_on_c, 1, 61, 0
3, 30636, Note_on_c, 1, 59, 0
3, 30636, Note_on_c, 1, 56, 0
3, 30639, Note_on_c, 1, 56, 61
3, 30639, Note_on_c, 1, 59, 61
3, 30639, Note_on_c, 1, 61, 61
3, 30675, Note_on_c, 1, 61, 0
3, 30675, Note_on_c, 1, 59, 0
3, 30675, Note_on_c, 1, 56, 0
3, 30679, Note_on_c, 1, 56, 63
3, 30679, Note_on_c, 1, 59, 63
3, 30679, Note_on_c, 1, 61, 63
3, 30716, Note_on_c, 1, 61, 0
3, 30716, Note_on_c, 1, 59, 0
3, 30716, Note_on_c, 1, 56, 0
3, 30759, Note_on_c, 1, 58, 66
3, 30759, Note_on_c, 1, 61, 66
3, 30795, Note_on_c, 1, 61, 0
3, 30795, Note_on_c, 1, 58, 0
3, 30799, Note_on_c, 1, 58, 67
3, 30799, Note_on_c, 1, 61, 67
3, 30799, Note_on_c, 1, 70, 67
3, 30836, Note_on_c, 1, 70, 0
3, 30836, Note_on_c, 1, 61, 0
3, 30836, Note_on_c, 1, 58, 0
3, 30840, Note_on_c, 1, 58, 70
3, 30840, Note_on_c, 1, 61, 70
3, 30840, Note_on_c, 1, 70, 70
3, 30876, Note_on_c, 1, 70, 0
3, 30876, Note_on_c, 1, 61, 0
3, 30876, Note_on_c, 1, 58, 0
3, 30879, Note_on_c, 1, 58, 74
3, 30879, Note_on_c, 1, 61, 74
3, 30879, Note_on_c, 1, 70, 74
3, 30915, Note_on_c, 1, 70, 0
3, 30915, Note_on_c, 1, 61, 0
3, 30915, Note_on_c, 1, 58, 0
3, 30919, Note_on_c, 1, 58, 79
3, 30919, Note_on_c, 1, 61, 79
3, 30919, Note_on_c, 1, 70, 79
3, 30956, Note_on_c, 1, 70, 0
3, 30956, Note_on_c, 1, 61, 0
3, 30956, Note_on_c, 1, 58, 0
3, 30960, Note_on_c, 1, 58, 115
3, 30960, Note_on_c, 1, 64, 114
3, 30960, Note_on_c, 1, 70, 115
3, 30996, Note_on_c, 1, 70, 0
3, 30996, Note_on_c, 1, 64, 0
3, 30996, Note_on_c, 1, 58, 0
3, 30999, Note_on_c, 1, 58, 109
3, 30999, Note_on_c, 1, 64, 110
3, 30999, Note_on_c, 1, 70, 110
3, 31035, Note_on_c, 1, 70, 0
3, 31035, Note_on_c, 1, 64, 0
3, 31035, Note_on_c, 1, 58, 0
3, 31039, Note_on_c, 1, 58, 111
3, 31039, Note_on_c, 1, 64, 112
3, 31039, Note_on_c, 1, 70, 110
3, 31076, Note_on_c, 1, 70, 0
3, 31076, Note_on_c, 1, 64, 0
3, 31076, Note_on_c, 1, 58, 0
3, 31080, Note_on_c, 1, 58, 114
3, 31080, Note_on_c, 1, 64, 115
3, 31080, Note_on_c, 1, 70, 115
3, 31116, Note_on_c, 1, 70, 0
3, 31116, Note_on_c, 1, 64, 0
3, 31116, Note_on_c, 1, 58, 0
3, 31119, Note_on_c, 1, 58, 112
3, 31119, Note_on_c, 1, 64, 109
3, 31119, Note_on_c, 1, 70, 110
3, 31155, Note_on_c, 1, 70, 0
3, 31155, Note_on_c, 1, 64, 0
3, 31155, Note_on_c, 1, 58, 0
3, 31159, Note_on_c, 1, 58, 112
3, 31159, Note_on_c, 1, 64, 110
3, 31159, Note_on_c, 1, 70, 110
3, 31196, Note_on_c, 1, 70, 0
3, 31196, Note_on_c, 1, 64, 0
3, 31196, Note_on_c, 1, 58, 0
3, 31200, Note_on_c, 1, 60, 108
3, 31200, Note_on_c, 1, 65, 108
3, 31200, Note_on_c, 1, 69, 108
3, 31227, Note_on_c, 1, 69, 0
3, 31227, Note_on_c, 1, 65, 0
3, 31227, Note_on_c, 1, 60, 0
3, 31230, Note_on_c, 1, 65, 63
3, 31284, Note_on_c, 1, 65, 0
3, 31290, Note_on_c, 1, 65, 72
3, 31340, Note_on_c, 1, 65, 0
3, 31359, Note_on_c, 1, 60, 70
3, 31359, Note_on_c, 1, 65, 70
3, 31395, Note_on_c, 1, 65, 0
3, 31395, Note_on_c, 1, 60, 0
3, 31399, Note_on_c, 1, 60, 68
3, 31399, Note_on_c, 1, 65, 68
3, 31459, Note_on_c, 1, 65, 0
3, 31459, Note_on_c, 1, 60, 0
3, 31479, Note_on_c, 1, 58, 67
3, 31479, Note_on_c, 1, 61, 67
3, 31479, Note_on_c, 1, 65, 67
3, 31515, Note_on_c, 1, 65, 0
3, 31515, Note_on_c, 1, 61, 0
3, 31515, Note_on_c, 1, 58, 0
3, 31519, Note_on_c, 1, 58, 66
3, 31519, Note_on_c, 1, 61, 66
3, 31519, Note_on_c, 1, 65, 66
3, 31558, Note_on_c, 1, 65, 0
3, 31558, Note_on_c, 1, 61, 0
3, 31558, Note_on_c, 1, 58, 0
3, 31599, Note_on_c, 1, 58, 65
3, 31599, Note_on_c, 1, 61, 65
3, 31599, Note_on_c, 1, 65, 65
3, 31635, Note_on_c, 1, 65, 0
3, 31635, Note_on_c, 1, 61, 0
3, 31635, Note_on_c, 1, 58, 0
3, 31639, Note_on_c, 1, 58, 64
3, 31639, Note_on_c, 1, 61, 64
3, 31639, Note_on_c, 1, 65, 64
3, 31676, Note_on_c, 1, 65, 0
3, 31676, Note_on_c, 1, 61, 0
3, 31676, Note_on_c, 1, 58, 0
3, 31719, Note_on_c, 1, 57, 62
3, 31719, Note_on_c, 1, 60, 62
3, 31719, Note_on_c, 1, 65, 62
3, 31755, Note_on_c, 1, 65, 0
3, 31755, Note_on_c, 1, 60, 0
3, 31755, Note_on_c, 1, 57, 0
3, 31759, Note_on_c, 1, 57, 62
3, 31759, Note_on_c, 1, 60, 62
3, 31759, Note_on_c, 1, 65, 62
3, 31798, Note_on_c, 1, 65, 0
3, 31798, Note_on_c, 1, 60, 0
3, 31798, Note_on_c, 1, 57, 0
3, 31839, Note_on_c, 1, 60, 60
3, 31839, Note_on_c, 1, 63, 60
3, 31839, Note_on_c, 1, 65, 60
3, 31875, Note_on_c, 1, 65, 0
3, 31875, Note_on_c, 1, 63, 0
3, 31875, Note_on_c, 1, 60, 0
3, 31879, Note_on_c, 1, 60, 60
3, 31879, Note_on_c, 1, 63, 60
3, 31879, Note_on_c, 1, 65, 60
3, 31918, Note_on_c, 1, 65, 0
3, 31918, Note_on_c, 1, 63, 0
3, 31918, Note_on_c, 1, 60, 0
3, 31959, Note_on_c, 1, 58, 59
3, 31959, Note_on_c, 1, 61, 59
3, 31959, Note_on_c, 1, 65, 59
3, 31995, Note_on_c, 1, 65, 0
3, 31995, Note_on_c, 1, 61, 0
3, 31995, Note_on_c, 1, 58, 0
3, 31999, Note_on_c, 1, 58, 59
3, 31999, Note_on_c, 1, 61, 59
3, 31999, Note_on_c, 1, 65, 59
3, 32038, Note_on_c, 1, 65, 0
3, 32038, Note_on_c, 1, 61, 0
3, 32038, Note_on_c, 1, 58, 0
3, 32079, Note_on_c, 1, 58, 58
3, 32079, Note_on_c, 1, 61, 58
3, 32079, Note_on_c, 1, 65, 58
3, 32115, Note_on_c, 1, 65, 0
3, 32115, Note_on_c, 1, 61, 0
3, 32115, Note_on_c, 1, 58, 0
3, 32119, Note_on_c, 1, 58, 58
3, 32119, Note_on_c, 1, 61, 58
3, 32119, Note_on_c, 1, 65, 58
3, 32156, Note_on_c, 1, 65, 0
3, 32156, Note_on_c, 1, 61, 0
3, 32156, Note_on_c, 1, 58, 0
3, 32199, Note_on_c, 1, 69, 59
3, 32199, Note_on_c, 1, 72, 59
3, 32199, Note_on_c, 1, 77, 59
3, 32235, Note_on_c, 1, 77, 0
3, 32235, Note_on_c, 1, 72, 0
3, 32235, Note_on_c, 1, 69, 0
3, 32239, Note_on_c, 1, 69, 60
3, 32239, Note_on_c, 1, 72, 60
3, 32239, Note_on_c, 1, 77, 60
3, 32276, Note_on_c, 1, 77, 0
3, 32276, Note_on_c, 1, 72, 0
3, 32276, Note_on_c, 1, 69, 0
3, 32280, Note_on_c, 1, 69, 60
3, 32280, Note_on_c, 1, 72, 60
3, 32280, Note_on_c, 1, 78, 60
3, 32319, Note_on_c, 1, 69, 61
3, 32319, Note_on_c, 1, 72, 61
3, 32319, Note_on_c, 1, 77, 61
3, 32320, Note_on_c, 1, 78, 0
3, 32320, Note_on_c, 1, 69, 0
3, 32320, Note_on_c, 1, 72, 0
3, 32359, Note_on_c, 1, 69, 0
3, 32359, Note_on_c, 1, 72, 0
3, 32359, Note_on_c, 1, 77, 0
3, 32359, Note_on_c, 1, 69, 62
3, 32359, Note_on_c, 1, 72, 62
3, 32359, Note_on_c, 1, 77, 62
3, 32396, Note_on_c, 1, 77, 0
3, 32396, Note_on_c, 1, 72, 0
3, 32396, Note_on_c, 1, 69, 0
3, 32400, Note_on_c, 1, 69, 62
3, 32400, Note_on_c, 1, 72, 62
3, 32400, Note_on_c, 1, 75, 62
3, 32436, Note_on_c, 1, 75, 0
3, 32436, Note_on_c, 1, 72, 0
3, 32436, Note_on_c, 1, 69, 0
3, 32439, Note_on_c, 1, 69, 62
3, 32439, Note_on_c, 1, 72, 62
3, 32439, Note_on_c, 1, 77, 62
3, 32475, Note_on_c, 1, 77, 0
3, 32475, Note_on_c, 1, 72, 0
3, 32475, Note_on_c, 1, 69, 0
3, 32479, Note_on_c, 1, 69, 63
3, 32479, Note_on_c, 1, 72, 63
3, 32479, Note_on_c, 1, 77, 63
3, 32516, Note_on_c, 1, 77, 0
3, 32516, Note_on_c, 1, 72, 0
3, 32516, Note_on_c, 1, 69, 0
3, 32520, Note_on_c, 1, 69, 63
3, 32520, Note_on_c, 1, 72, 63
3, 32520, Note_on_c, 1, 78, 63
3, 32559, Note_on_c, 1, 69, 63
3, 32559, Note_on_c, 1, 72, 63
3, 32559, Note_on_c, 1, 77, 63
3, 32560, Note_on_c, 1, 78, 0
3, 32560, Note_on_c, 1, 69, 0
3, 32560, Note_on_c, 1, 72, 0
3, 32599, Note_on_c, 1, 69, 0
3, 32599, Note_on_c, 1, 72, 0
3, 32599, Note_on_c, 1, 77, 0
3, 32599, Note_on_c, 1, 69, 62
3, 32599, Note_on_c, 1, 72, 62
3, 32599, Note_on_c, 1, 77, 62
3, 32636, Note_on_c, 1, 77, 0
3, 32636, Note_on_c, 1, 72, 0
3, 32636, Note_on_c, 1, 69, 0
3, 32679, Note_on_c, 1, 69, 62
3, 32679, Note_on_c, 1, 72, 62
3, 32679, Note_on_c, 1, 75, 62
3, 32715, Note_on_c, 1, 75, 0
3, 32715, Note_on_c, 1, 72, 0
3, 32715, Note_on_c, 1, 69, 0
3, 32719, Note_on_c, 1, 69, 62
3, 32719, Note_on_c, 1, 72, 62
3, 32719, Note_on_c, 1, 75, 62
3, 32756, Note_on_c, 1, 75, 0
3, 32756, Note_on_c, 1, 72, 0
3, 32756, Note_on_c, 1, 69, 0
3, 32760, Note_on_c, 1, 69, 61
3, 32760, Note_on_c, 1, 72, 61
3, 32760, Note_on_c, 1, 75, 61
3, 32796, Note_on_c, 1, 75, 0
3, 32796, Note_on_c, 1, 72, 0
3, 32796, Note_on_c, 1, 69, 0
3, 32799, Note_on_c, 1, 69, 61
3, 32799, Note_on_c, 1, 72, 61
3, 32799, Note_on_c, 1, 75, 61
3, 32835, Note_on_c, 1, 75, 0
3, 32835, Note_on_c, 1, 72, 0
3, 32835, Note_on_c, 1, 69, 0
3, 32839, Note_on_c, 1, 69, 61
3, 32839, Note_on_c, 1, 72, 61
3, 32839, Note_on_c, 1, 75, 61
3, 32876, Note_on_c, 1, 75, 0
3, 32876, Note_on_c, 1, 72, 0
3, 32876, Note_on_c, 1, 69, 0
3, 32919, Note_on_c, 1, 70, 61
3, 32919, Note_on_c, 1, 73, 61
3, 32919, Note_on_c, 1, 76, 61
3, 32955, Note_on_c, 1, 76, 0
3, 32955, Note_on_c, 1, 73, 0
3, 32955, Note_on_c, 1, 70, 0
3, 32959, Note_on_c, 1, 70, 61
3, 32959, Note_on_c, 1, 73, 61
3, 32959, Note_on_c, 1, 76, 61
3, 32996, Note_on_c, 1, 76, 0
3, 32996, Note_on_c, 1, 73, 0
3, 32996, Note_on_c, 1, 70, 0
3, 33000, Note_on_c, 1, 70, 61
3, 33000, Note_on_c, 1, 73, 61
3, 33000, Note_on_c, 1, 76, 61
3, 33036, Note_on_c, 1, 76, 0
3, 33036, Note_on_c, 1, 73, 0
3, 33036, Note_on_c, 1, 70, 0
3, 33039, Note_on_c, 1, 70, 60
3, 33039, Note_on_c, 1, 73, 60
3, 33039, Note_on_c, 1, 76, 60
3, 33075, Note_on_c, 1, 76, 0
3, 33075, Note_on_c, 1, 73, 0
3, 33075, Note_on_c, 1, 70, 0
3, 33079, Note_on_c, 1, 70, 60
3, 33079, Note_on_c, 1, 73, 60
3, 33079, Note_on_c, 1, 76, 60
3, 33116, Note_on_c, 1, 76, 0
3, 33116, Note_on_c, 1, 73, 0
3, 33116, Note_on_c, 1, 70, 0
3, 33159, Note_on_c, 1, 69, 59
3, 33159, Note_on_c, 1, 72, 59
3, 33159, Note_on_c, 1, 77, 59
3, 33195, Note_on_c, 1, 77, 0
3, 33195, Note_on_c, 1, 72, 0
3, 33195, Note_on_c, 1, 69, 0
3, 33199, Note_on_c, 1, 69, 59
3, 33199, Note_on_c, 1, 72, 59
3, 33199, Note_on_c, 1, 77, 59
3, 33236, Note_on_c, 1, 77, 0
3, 33236, Note_on_c, 1, 72, 0
3, 33236, Note_on_c, 1, 69, 0
3, 33240, Note_on_c, 1, 69, 58
3, 33240, Note_on_c, 1, 72, 58
3, 33240, Note_on_c, 1, 78, 58
3, 33279, Note_on_c, 1, 69, 58
3, 33279, Note_on_c, 1, 72, 58
3, 33279, Note_on_c, 1, 77, 58
3, 33280, Note_on_c, 1, 78, 0
3, 33280, Note_on_c, 1, 69, 0
3, 33280, Note_on_c, 1, 72, 0
3, 33319, Note_on_c, 1, 69, 0
3, 33319, Note_on_c, 1, 72, 0
3, 33319, Note_on_c, 1, 77, 0
3, 33319, Note_on_c, 1, 69, 58
3, 33319, Note_on_c, 1, 72, 58
3, 33319, Note_on_c, 1, 77, 58
3, 33356, Note_on_c, 1, 77, 0
3, 33356, Note_on_c, 1, 72, 0
3, 33356, Note_on_c, 1, 69, 0
3, 33360, Note_on_c, 1, 69, 57
3, 33360, Note_on_c, 1, 72, 57
3, 33360, Note_on_c, 1, 75, 57
3, 33396, Note_on_c, 1, 75, 0
3, 33396, Note_on_c, 1, 72, 0
3, 33396, Note_on_c, 1, 69, 0
3, 33399, Note_on_c, 1, 69, 58
3, 33399, Note_on_c, 1, 72, 58
3, 33399, Note_on_c, 1, 77, 58
3, 33435, Note_on_c, 1, 77, 0
3, 33435, Note_on_c, 1, 72, 0
3, 33435, Note_on_c, 1, 69, 0
3, 33439, Note_on_c, 1, 69, 59
3, 33439, Note_on_c, 1, 72, 59
3, 33439, Note_on_c, 1, 77, 59
3, 33476, Note_on_c, 1, 77, 0
3, 33476, Note_on_c, 1, 72, 0
3, 33476, Note_on_c, 1, 69, 0
3, 33480, Note_on_c, 1, 69, 61
3, 33480, Note_on_c, 1, 72, 61
3, 33480, Note_on_c, 1, 78, 61
3, 33519, Note_on_c, 1, 69, 63
3, 33519, Note_on_c, 1, 72, 63
3, 33519, Note_on_c, 1, 77, 63
3, 33520, Note_on_c, 1, 78, 0
3, 33520, Note_on_c, 1, 69, 0
3, 33520, Note_on_c, 1, 72, 0
3, 33559, Note_on_c, 1, 69, 0
3, 33559, Note_on_c, 1, 72, 0
3, 33559, Note_on_c, 1, 77, 0
3, 33559, Note_on_c, 1, 69, 63
3, 33559, Note_on_c, 1, 72, 63
3, 33559, Note_on_c, 1, 77, 63
3, 33596, Note_on_c, 1, 77, 0
3, 33596, Note_on_c, 1, 72, 0
3, 33596, Note_on_c, 1, 69, 0
3, 33639, Note_on_c, 1, 69, 64
3, 33639, Note_on_c, 1, 72, 64
3, 33639, Note_on_c, 1, 75, 64
3, 33675, Note_on_c, 1, 75, 0
3, 33675, Note_on_c, 1, 72, 0
3, 33675, Note_on_c, 1, 69, 0
3, 33679, Note_on_c, 1, 69, 64
3, 33679, Note_on_c, 1, 72, 64
3, 33679, Note_on_c, 1, 75, 64
3, 33716, Note_on_c, 1, 75, 0
3, 33716, Note_on_c, 1, 72, 0
3, 33716, Note_on_c, 1, 69, 0
3, 33720, Note_on_c, 1, 69, 63
3, 33720, Note_on_c, 1, 72, 63
3, 33720, Note_on_c, 1, 75, 63
3, 33756, Note_on_c, 1, 75, 0
3, 33756, Note_on_c, 1, 72, 0
3, 33756, Note_on_c, 1, 69, 0
3, 33759, Note_on_c, 1, 69, 63
3, 33759, Note_on_c, 1, 72, 63
3, 33759, Note_on_c, 1, 75, 63
3, 33795, Note_on_c, 1, 75, 0
3, 33795, Note_on_c, 1, 72, 0
3, 33795, Note_on_c, 1, 69, 0
3, 33799, Note_on_c, 1, 69, 63
3, 33799, Note_on_c, 1, 72, 63
3, 33799, Note_on_c, 1, 75, 63
3, 33836, Note_on_c, 1, 75, 0
3, 33836, Note_on_c, 1, 72, 0
3, 33836, Note_on_c, 1, 69, 0
3, 33879, Note_on_c, 1, 70, 63
3, 33879, Note_on_c, 1, 73, 63
3, 33879, Note_on_c, 1, 76, 63
3, 33915, Note_on_c, 1, 76, 0
3, 33915, Note_on_c, 1, 73, 0
3, 33915, Note_on_c, 1, 70, 0
3, 33919, Note_on_c, 1, 70, 64
3, 33919, Note_on_c, 1, 73, 64
3, 33919, Note_on_c, 1, 76, 64
3, 33956, Note_on_c, 1, 76, 0
3, 33956, Note_on_c, 1, 73, 0
3, 33956, Note_on_c, 1, 70, 0
3, 33960, Note_on_c, 1, 70, 65
3, 33960, Note_on_c, 1, 73, 65
3, 33960, Note_on_c, 1, 76, 65
3, 33996, Note_on_c, 1, 76, 0
3, 33996, Note_on_c, 1, 73, 0
3, 33996, Note_on_c, 1, 70, 0
3, 33999, Note_on_c, 1, 70, 66
3, 33999, Note_on_c, 1, 73, 66
3, 33999, Note_on_c, 1, 76, 66
3, 34035, Note_on_c, 1, 76, 0
3, 34035, Note_on_c, 1, 73, 0
3, 34035, Note_on_c, 1, 70, 0
3, 34039, Note_on_c, 1, 70, 68
3, 34039, Note_on_c, 1, 73, 68
3, 34039, Note_on_c, 1, 76, 68
3, 34076, Note_on_c, 1, 76, 0
3, 34076, Note_on_c, 1, 73, 0
3, 34076, Note_on_c, 1, 70, 0
3, 34080, Note_on_c, 1, 65, 102
3, 34080, Note_on_c, 1, 72, 104
3, 34080, Note_on_c, 1, 77, 101
3, 34199, Note_on_c, 1, 77, 0
3, 34199, Note_on_c, 1, 72, 0
3, 34199, Note_on_c, 1, 65, 0
3, 34200, Note_on_c, 1, 53, 71
3, 34200, Note_on_c, 1, 60, 70
3, 34200, Note_on_c, 1, 63, 70
3, 34439, Note_on_c, 1, 63, 0
3, 34439, Note_on_c, 1, 60, 0
3, 34439, Note_on_c, 1, 53, 0
3, 34440, Note_on_c, 1, 65, 73
3, 34559, Note_on_c, 1, 65, 0
3, 34560, Note_on_c, 1, 65, 71
3, 34560, Note_on_c, 1, 74, 71
3, 34679, Note_on_c, 1, 74, 0
3, 34679, Note_on_c, 1, 65, 0
3, 34680, Note_on_c, 1, 65, 68
3, 34680, Note_on_c, 1, 74, 68
3, 34799, Note_on_c, 1, 74, 0
3, 34799, Note_on_c, 1, 65, 0
3, 34800, Note_on_c, 1, 65, 65
3, 34800, Note_on_c, 1, 74, 65
3, 34919, Note_on_c, 1, 74, 0
3, 34919, Note_on_c, 1, 65, 0
3, 34920, Note_on_c, 1, 65, 61
3, 34920, Note_on_c, 1, 74, 61
3, 35039, Note_on_c, 1, 74, 0
3, 35039, Note_on_c, 1, 65, 0
3, 35040, Note_on_c, 1, 65, 60
3, 35040, Note_on_c, 1, 75, 60
3, 35218, Note_on_c, 1, 75, 0
3, 35218, Note_on_c, 1, 65, 0
3, 35220, Note_on_c, 1, 72, 61
3, 35250, Note_on_c, 1, 69, 61
3, 35253, Note_on_c, 1, 72, 0
3, 35280, Note_on_c, 1, 65, 61
3, 35283, Note_on_c, 1, 69, 0
3, 35400, Note_on_c, 1, 65, 0
3, 35520, Note_on_c, 1, 65, 63
3, 35520, Note_on_c, 1, 70, 63
3, 35639, Note_on_c, 1, 70, 0
3, 35639, Note_on_c, 1, 65, 0
3, 35760, Note_on_c, 1, 62, 62
3, 35760, Note_on_c, 1, 70, 62
3, 35879, Note_on_c, 1, 70, 0
3, 35879, Note_on_c, 1, 62, 0
3, 36000, Note_on_c, 1, 70, 62
3, 36000, Note_on_c, 1, 74, 62
3, 36119, Note_on_c, 1, 74, 0
3, 36119, Note_on_c, 1, 70, 0
3, 36120, Note_on_c, 1, 69, 62
3, 36120, Note_on_c, 1, 72, 62
3, 36239, Note_on_c, 1, 72, 0
3, 36239, Note_on_c, 1, 69, 0
3, 36480, Note_on_c, 1, 65, 63
3, 36480, Note_on_c, 1, 70, 63
3, 36480, Note_on_c, 1, 74, 63
3, 36599, Note_on_c, 1, 74, 0
3, 36599, Note_on_c, 1, 70, 0
3, 36599, Note_on_c, 1, 65, 0
3, 36720, Note_on_c, 1, 65, 63
3, 36720, Note_on_c, 1, 69, 63
3, 36720, Note_on_c, 1, 75, 63
3, 36839, Note_on_c, 1, 75, 0
3, 36839, Note_on_c, 1, 69, 0
3, 36839, Note_on_c, 1, 65, 0
3, 36960, Note_on_c, 1, 65, 65
3, 36960, Note_on_c, 1, 70, 65
3, 36960, Note_on_c, 1, 77, 65
3, 37079, Note_on_c, 1, 77, 0
3, 37079, Note_on_c, 1, 70, 0
3, 37079, Note_on_c, 1, 65, 0
3, 37440, Note_on_c, 1, 67, 67
3, 37440, Note_on_c, 1, 72, 67
3, 37559, Note_on_c, 1, 72, 0
3, 37559, Note_on_c, 1, 67, 0
3, 37680, Note_on_c, 1, 67, 67
3, 37680, Note_on_c, 1, 70, 67
3, 37799, Note_on_c, 1, 70, 0
3, 37799, Note_on_c, 1, 67, 0
3, 37920, Note_on_c, 1, 70, 68
3, 37920, Note_on_c, 1, 74, 68
3, 38156, Note_on_c, 1, 74, 0
3, 38156, Note_on_c, 1, 70, 0
3, 38160, Note_on_c, 1, 69, 66
3, 38160, Note_on_c, 1, 72, 66
3, 38278, Note_on_c, 1, 72, 0
3, 38278, Note_on_c, 1, 69, 0
3, 38280, Note_on_c, 1, 65, 78
3, 38399, Note_on_c, 1, 65, 0
3, 38400, Note_on_c, 1, 65, 118
3, 38400, Note_on_c, 1, 74, 117
3, 38519, Note_on_c, 1, 74, 0
3, 38519, Note_on_c, 1, 65, 0
3, 38520, Note_on_c, 1, 65, 100
3, 38520, Note_on_c, 1, 74, 98
3, 38639, Note_on_c, 1, 74, 0
3, 38639, Note_on_c, 1, 65, 0
3, 38640, Note_on_c, 1, 65, 96
3, 38640, Note_on_c, 1, 74, 98
3, 38759, Note_on_c, 1, 74, 0
3, 38759, Note_on_c, 1, 65, 0
3, 38760, Note_on_c, 1, 65, 97
3, 38760, Note_on_c, 1, 74, 98
3, 38879, Note_on_c, 1, 74, 0
3, 38879, Note_on_c, 1, 65, 0
3, 38880, Note_on_c, 1, 65, 105
3, 38880, Note_on_c, 1, 75, 102
3, 39058, Note_on_c, 1, 75, 0
3, 39058, Note_on_c, 1, 65, 0
3, 39060, Note_on_c, 1, 72, 78
3, 39090, Note_on_c, 1, 69, 77
3, 39093, Note_on_c, 1, 72, 0
3, 39120, Note_on_c, 1, 65, 76
3, 39123, Note_on_c, 1, 69, 0
3, 39239, Note_on_c, 1, 65, 0
3, 39240, Note_on_c, 1, 65, 74
3, 39359, Note_on_c, 1, 65, 0
3, 39360, Note_on_c, 1, 70, 73
3, 39479, Note_on_c, 1, 70, 0
3, 39480, Note_on_c, 1, 65, 71
3, 39480, Note_on_c, 1, 70, 71
3, 39598, Note_on_c, 1, 70, 0
3, 39598, Note_on_c, 1, 65, 0
3, 39600, Note_on_c, 1, 63, 70
3, 39600, Note_on_c, 1, 69, 70
3, 39718, Note_on_c, 1, 69, 0
3, 39718, Note_on_c, 1, 63, 0
3, 39720, Note_on_c, 1, 62, 94
3, 39720, Note_on_c, 1, 70, 94
3, 39840, Note_on_c, 1, 70, 0
3, 39840, Note_on_c, 1, 62, 0
3, 39840, Note_on_c, 1, 70, 67
3, 39840, Note_on_c, 1, 74, 67
3, 40076, Note_on_c, 1, 74, 0
3, 40076, Note_on_c, 1, 70, 0
3, 40080, Note_on_c, 1, 69, 65
3, 40080, Note_on_c, 1, 72, 65
3, 40198, Note_on_c, 1, 72, 0
3, 40198, Note_on_c, 1, 69, 0
3, 40200, Note_on_c, 1, 72, 62
3, 40319, Note_on_c, 1, 72, 0
3, 40320, Note_on_c, 1, 65, 61
3, 40320, Note_on_c, 1, 70, 61
3, 40320, Note_on_c, 1, 74, 61
3, 40439, Note_on_c, 1, 74, 0
3, 40439, Note_on_c, 1, 70, 0
3, 40439, Note_on_c, 1, 65, 0
3, 40560, Note_on_c, 1, 65, 58
3, 40560, Note_on_c, 1, 69, 58
3, 40560, Note_on_c, 1, 75, 58
3, 40679, Note_on_c, 1, 75, 0
3, 40679, Note_on_c, 1, 69, 0
3, 40679, Note_on_c, 1, 65, 0
3, 40800, Note_on_c, 1, 65, 56
3, 40800, Note_on_c, 1, 70, 56
3, 40800, Note_on_c, 1, 77, 56
3, 40919, Note_on_c, 1, 77, 0
3, 40919, Note_on_c, 1, 70, 0
3, 40919, Note_on_c, 1, 65, 0
3, 41280, Note_on_c, 1, 63, 53
3, 41280, Note_on_c, 1, 67, 53
3, 41280, Note_on_c, 1, 72, 53
3, 41399, Note_on_c, 1, 72, 0
3, 41399, Note_on_c, 1, 67, 0
3, 41399, Note_on_c, 1, 63, 0
3, 41520, Note_on_c, 1, 60, 53
3, 41520, Note_on_c, 1, 63, 53
3, 41520, Note_on_c, 1, 69, 53
3, 41639, Note_on_c, 1, 69, 0
3, 41639, Note_on_c, 1, 63, 0
3, 41639, Note_on_c, 1, 60, 0
3, 41820, Note_on_c, 1, 58, 54
3, 41880, Note_on_c, 1, 62, 56
3, 41885, Note_on_c, 1, 58, 0
3, 41940, Note_on_c, 1, 58, 58
3, 41945, Note_on_c, 1, 62, 0
3, 42000, Note_on_c, 1, 53, 59
3, 42005, Note_on_c, 1, 58, 0
3, 42060, Note_on_c, 1, 58, 60
3, 42065, Note_on_c, 1, 53, 0
3, 42120, Note_on_c, 1, 62, 60
3, 42125, Note_on_c, 1, 58, 0
3, 42180, Note_on_c, 1, 65, 62
3, 42185, Note_on_c, 1, 62, 0
3, 42240, Note_on_c, 1, 53, 63
3, 42245, Note_on_c, 1, 65, 0
3, 42300, Note_on_c, 1, 58, 63
3, 42305, Note_on_c, 1, 53, 0
3, 42360, Note_on_c, 1, 62, 64
3, 42365, Note_on_c, 1, 58, 0
3, 42420, Note_on_c, 1, 65, 65
3, 42425, Note_on_c, 1, 62, 0
3, 42480, Note_on_c, 1, 53, 65
3, 42485, Note_on_c, 1, 65, 0
3, 42540, Note_on_c, 1, 58, 66
3, 42545, Note_on_c, 1, 53, 0
3, 42600, Note_on_c, 1, 62, 66
3, 42605, Note_on_c, 1, 58, 0
3, 42660, Note_on_c, 1, 65, 66
3, 42665, Note_on_c, 1, 62, 0
3, 42720, Note_on_c, 1, 53, 66
3, 42725, Note_on_c, 1, 65, 0
3, 42780, Note_on_c, 1, 60, 66
3, 42785, Note_on_c, 1, 53, 0
3, 42840, Note_on_c, 1, 63, 66
3, 42845, Note_on_c, 1, 60, 0
3, 42900, Note_on_c, 1, 65, 66
3, 42905, Note_on_c, 1, 63, 0
3, 42960, Note_on_c, 1, 53, 66
3, 42965, Note_on_c, 1, 65, 0
3, 43020, Note_on_c, 1, 60, 66
3, 43025, Note_on_c, 1, 53, 0
3, 43080, Note_on_c, 1, 63, 65
3, 43085, Note_on_c, 1, 60, 0
3, 43140, Note_on_c, 1, 65, 65
3, 43145, Note_on_c, 1, 63, 0
3, 43200, Note_on_c, 1, 53, 65
3, 43205, Note_on_c, 1, 65, 0
3, 43260, Note_on_c, 1, 60, 65
3, 43265, Note_on_c, 1, 53, 0
3, 43320, Note_on_c, 1, 63, 65
3, 43325, Note_on_c, 1, 60, 0
3, 43380, Note_on_c, 1, 65, 65
3, 43385, Note_on_c, 1, 63, 0
3, 43440, Note_on_c, 1, 53, 65
3, 43445, Note_on_c, 1, 65, 0
3, 43500, Note_on_c, 1, 60, 65
3, 43505, Note_on_c, 1, 53, 0
3, 43560, Note_on_c, 1, 63, 65
3, 43565, Note_on_c, 1, 60, 0
3, 43620, Note_on_c, 1, 65, 65
3, 43625, Note_on_c, 1, 63, 0
3, 43679, Note_on_c, 1, 65, 0
3, 43680, Note_on_c, 1, 53, 64
3, 43740, Note_on_c, 1, 58, 64
3, 43745, Note_on_c, 1, 53, 0
3, 43800, Note_on_c, 1, 62, 63
3, 43805, Note_on_c, 1, 58, 0
3, 43860, Note_on_c, 1, 65, 63
3, 43865, Note_on_c, 1, 62, 0
3, 43920, Note_on_c, 1, 53, 62
3, 43925, Note_on_c, 1, 65, 0
3, 43980, Note_on_c, 1, 58, 62
3, 43985, Note_on_c, 1, 53, 0
3, 44040, Note_on_c, 1, 62, 62
3, 44045, Note_on_c, 1, 58, 0
3, 44100, Note_on_c, 1, 65, 62
3, 44105, Note_on_c, 1, 62, 0
3, 44160, Note_on_c, 1, 53, 61
3, 44165, Note_on_c, 1, 65, 0
3, 44220, Note_on_c, 1, 58, 61
3, 44225, Note_on_c, 1, 53, 0
3, 44280, Note_on_c, 1, 62, 61
3, 44285, Note_on_c, 1, 58, 0
3, 44340, Note_on_c, 1, 65, 61
3, 44345, Note_on_c, 1, 62, 0
3, 44400, Note_on_c, 1, 53, 61
3, 44405, Note_on_c, 1, 65, 0
3, 44460, Note_on_c, 1, 58, 60
3, 44465, Note_on_c, 1, 53, 0
3, 44520, Note_on_c, 1, 62, 60
3, 44525, Note_on_c, 1, 58, 0
3, 44580, Note_on_c, 1, 65, 59
3, 44585, Note_on_c, 1, 62, 0
3, 44639, Note_on_c, 1, 65, 0
3, 44640, Note_on_c, 1, 53, 59
3, 44700, Note_on_c, 1, 60, 58
3, 44705, Note_on_c, 1, 53, 0
3, 44760, Note_on_c, 1, 63, 58
3, 44765, Note_on_c, 1, 60, 0
3, 44820, Note_on_c, 1, 65, 58
3, 44825, Note_on_c, 1, 63, 0
3, 44880, Note_on_c, 1, 53, 58
3, 44885, Note_on_c, 1, 65, 0
3, 44940, Note_on_c, 1, 60, 58
3, 44945, Note_on_c, 1, 53, 0
3, 45000, Note_on_c, 1, 63, 58
3, 45005, Note_on_c, 1, 60, 0
3, 45060, Note_on_c, 1, 65, 58
3, 45065, Note_on_c, 1, 63, 0
3, 45120, Note_on_c, 1, 53, 58
3, 45125, Note_on_c, 1, 65, 0
3, 45180, Note_on_c, 1, 60, 58
3, 45185, Note_on_c, 1, 53, 0
3, 45240, Note_on_c, 1, 63, 58
3, 45245, Note_on_c, 1, 60, 0
3, 45300, Note_on_c, 1, 65, 58
3, 45305, Note_on_c, 1, 63, 0
3, 45360, Note_on_c, 1, 55, 58
3, 45365, Note_on_c, 1, 65, 0
3, 45420, Note_on_c, 1, 60, 58
3, 45425, Note_on_c, 1, 55, 0
3, 45480, Note_on_c, 1, 63, 58
3, 45485, Note_on_c, 1, 60, 0
3, 45540, Note_on_c, 1, 65, 58
3, 45545, Note_on_c, 1, 63, 0
3, 45605, Note_on_c, 1, 65, 0
3, 45660, Note_on_c, 1, 62, 60
3, 45720, Note_on_c, 1, 63, 60
3, 45725, Note_on_c, 1, 62, 0
3, 45780, Note_on_c, 1, 65, 61
3, 45785, Note_on_c, 1, 63, 0
3, 45840, Note_on_c, 1, 67, 62
3, 45845, Note_on_c, 1, 65, 0
3, 45900, Note_on_c, 1, 69, 62
3, 45905, Note_on_c, 1, 67, 0
3, 45960, Note_on_c, 1, 70, 63
3, 45965, Note_on_c, 1, 69, 0
3, 46020, Note_on_c, 1, 72, 66
3, 46025, Note_on_c, 1, 70, 0
3, 46080, Note_on_c, 1, 74, 69
3, 46085, Note_on_c, 1, 72, 0
3, 46434, Note_on_c, 1, 74, 0
3, 46440, Note_on_c, 1, 70, 56
3, 46559, Note_on_c, 1, 70, 0
3, 46560, Note_on_c, 1, 69, 63
3, 46680, Note_on_c, 1, 67, 64
3, 46684, Note_on_c, 1, 69, 0
3, 46804, Note_on_c, 1, 67, 0
3, 47040, Note_on_c, 1, 75, 65
3, 47400, Note_on_c, 1, 75, 0
3, 47400, Note_on_c, 1, 72, 63
3, 47519, Note_on_c, 1, 72, 0
3, 47520, Note_on_c, 1, 70, 65
3, 47640, Note_on_c, 1, 69, 67
3, 47644, Note_on_c, 1, 70, 0
3, 47764, Note_on_c, 1, 69, 0
3, 47880, Note_on_c, 1, 69, 61
3, 47999, Note_on_c, 1, 69, 0
3, 48000, Note_on_c, 1, 77, 75
3, 48119, Note_on_c, 1, 77, 0
3, 48120, Note_on_c, 1, 77, 62
3, 48239, Note_on_c, 1, 77, 0
3, 48240, Note_on_c, 1, 77, 62
3, 48359, Note_on_c, 1, 77, 0
3, 48360, Note_on_c, 1, 74, 61
3, 48479, Note_on_c, 1, 74, 0
3, 48480, Note_on_c, 1, 72, 61
3, 48599, Note_on_c, 1, 72, 0
3, 48600, Note_on_c, 1, 70, 62
3, 48719, Note_on_c, 1, 70, 0
3, 48885, Note_on_c, 1, 70, 69
3, 48900, Note_on_c, 1, 70, 0
3, 48900, Note_on_c, 1, 69, 69
3, 48915, Note_on_c, 1, 69, 0
3, 48915, Note_on_c, 1, 67, 70
3, 48930, Note_on_c, 1, 67, 0
3, 48930, Note_on_c, 1, 69, 70
3, 48960, Note_on_c, 1, 69, 0
3, 48960, Note_on_c, 1, 79, 72
3, 49079, Note_on_c, 1, 79, 0
3, 49080, Note_on_c, 1, 79, 75
3, 49199, Note_on_c, 1, 79, 0
3, 49200, Note_on_c, 1, 79, 76
3, 49319, Note_on_c, 1, 79, 0
3, 49320, Note_on_c, 1, 75, 76
3, 49439, Note_on_c, 1, 75, 0
3, 49440, Note_on_c, 1, 74, 75
3, 49559, Note_on_c, 1, 74, 0
3, 49560, Note_on_c, 1, 72, 55
3, 49679, Note_on_c, 1, 72, 0
3, 49920, Note_on_c, 1, 57, 55
3, 49920, Note_on_c, 1, 60, 55
3, 50159, Note_on_c, 1, 60, 0
3, 50159, Note_on_c, 1, 57, 0
3, 50160, Note_on_c, 1, 58, 55
3, 50160, Note_on_c, 1, 62, 55
3, 50399, Note_on_c, 1, 62, 0
3, 50399, Note_on_c, 1, 58, 0
3, 50400, Note_on_c, 1, 57, 54
3, 50400, Note_on_c, 1, 65, 54
3, 50519, Note_on_c, 1, 65, 0
3, 50520, Note_on_c, 1, 63, 54
3, 50639, Note_on_c, 1, 63, 0
3, 50640, Note_on_c, 1, 57, 0
3, 50640, Note_on_c, 1, 58, 54
3, 50640, Note_on_c, 1, 62, 54
3, 50879, Note_on_c, 1, 62, 0
3, 50879, Note_on_c, 1, 58, 0
3, 50880, Note_on_c, 1, 55, 55
3, 50880, Note_on_c, 1, 60, 55
3, 51119, Note_on_c, 1, 60, 0
3, 51119, Note_on_c, 1, 55, 0
3, 51120, Note_on_c, 1, 58, 57
3, 51120, Note_on_c, 1, 62, 57
3, 51359, Note_on_c, 1, 62, 0
3, 51359, Note_on_c, 1, 58, 0
3, 51360, Note_on_c, 1, 57, 57
3, 51360, Note_on_c, 1, 65, 57
3, 51479, Note_on_c, 1, 65, 0
3, 51480, Note_on_c, 1, 63, 57
3, 51598, Note_on_c, 1, 57, 0
3, 51599, Note_on_c, 1, 63, 0
3, 51600, Note_on_c, 1, 58, 57
3, 51600, Note_on_c, 1, 62, 57
3, 51839, Note_on_c, 1, 62, 0
3, 51839, Note_on_c, 1, 58, 0
3, 51840, Note_on_c, 1, 62, 59
3, 51840, Note_on_c, 1, 65, 59
3, 51959, Note_on_c, 1, 62, 0
3, 51960, Note_on_c, 1, 58, 59
3, 52078, Note_on_c, 1, 65, 0
3, 52079, Note_on_c, 1, 58, 0
3, 52080, Note_on_c, 1, 63, 60
3, 52080, Note_on_c, 1, 67, 60
3, 52199, Note_on_c, 1, 63, 0
3, 52200, Note_on_c, 1, 58, 60
3, 52318, Note_on_c, 1, 67, 0
3, 52319, Note_on_c, 1, 58, 0
3, 52320, Note_on_c, 1, 62, 60
3, 52320, Note_on_c, 1, 70, 60
3, 52439, Note_on_c, 1, 70, 0
3, 52439, Note_on_c, 1, 62, 0
3, 52440, Note_on_c, 1, 58, 60
3, 52440, Note_on_c, 1, 68, 60
3, 52559, Note_on_c, 1, 68, 0
3, 52559, Note_on_c, 1, 58, 0
3, 52560, Note_on_c, 1, 63, 59
3, 52560, Note_on_c, 1, 67, 59
3, 52679, Note_on_c, 1, 63, 0
3, 52680, Note_on_c, 1, 58, 59
3, 52798, Note_on_c, 1, 67, 0
3, 52799, Note_on_c, 1, 58, 0
3, 52800, Note_on_c, 1, 62, 59
3, 52800, Note_on_c, 1, 65, 59
3, 52919, Note_on_c, 1, 62, 0
3, 52920, Note_on_c, 1, 58, 58
3, 53038, Note_on_c, 1, 65, 0
3, 53039, Note_on_c, 1, 58, 0
3, 53040, Note_on_c, 1, 66, 101
3, 53159, Note_on_c, 1, 66, 0
3, 53160, Note_on_c, 1, 58, 80
3, 53279, Note_on_c, 1, 58, 0
3, 53280, Note_on_c, 1, 67, 127
3, 53399, Note_on_c, 1, 67, 0
3, 53400, Note_on_c, 1, 79, 127
3, 53637, Note_on_c, 1, 79, 0
3, 53640, Note_on_c, 1, 75, 121
3, 53700, Note_on_c, 1, 72, 121
3, 53705, Note_on_c, 1, 75, 0
3, 53765, Note_on_c, 1, 72, 0
3, 53880, Note_on_c, 1, 62, 120
3, 53880, Note_on_c, 1, 65, 120
3, 53880, Note_on_c, 1, 70, 120
3, 53999, Note_on_c, 1, 70, 0
3, 53999, Note_on_c, 1, 65, 0
3, 53999, Note_on_c, 1, 62, 0
3, 54120, Note_on_c, 1, 63, 120
3, 54120, Note_on_c, 1, 65, 120
3, 54120, Note_on_c, 1, 69, 120
3, 54239, Note_on_c, 1, 69, 0
3, 54239, Note_on_c, 1, 65, 0
3, 54239, Note_on_c, 1, 63, 0
3, 54300, Note_on_c, 1, 65, 121
3, 54360, Note_on_c, 1, 67, 127
3, 54365, Note_on_c, 1, 65, 0
3, 54420, Note_on_c, 1, 68, 126
3, 54425, Note_on_c, 1, 67, 0
3, 54480, Note_on_c, 1, 69, 127
3, 54485, Note_on_c, 1, 68, 0
3, 54540, Note_on_c, 1, 70, 127
3, 54545, Note_on_c, 1, 69, 0
3, 54600, Note_on_c, 1, 71, 127
3, 54605, Note_on_c, 1, 70, 0
3, 54660, Note_on_c, 1, 72, 127
3, 54665, Note_on_c, 1, 71, 0
3, 54720, Note_on_c, 1, 65, 52
3, 54720, Note_on_c, 1, 73, 52
3, 54725, Note_on_c, 1, 72, 0
3, 54839, Note_on_c, 1, 73, 0
3, 54839, Note_on_c, 1, 65, 0
3, 54840, Note_on_c, 1, 65, 49
3, 54840, Note_on_c, 1, 73, 47
3, 54959, Note_on_c, 1, 73, 0
3, 54959, Note_on_c, 1, 65, 0
3, 54960, Note_on_c, 1, 65, 47
3, 54960, Note_on_c, 1, 73, 47
3, 55079, Note_on_c, 1, 73, 0
3, 55079, Note_on_c, 1, 65, 0
3, 55080, Note_on_c, 1, 65, 50
3, 55080, Note_on_c, 1, 73, 46
3, 55199, Note_on_c, 1, 73, 0
3, 55199, Note_on_c, 1, 65, 0
3, 55200, Note_on_c, 1, 65, 100
3, 55200, Note_on_c, 1, 75, 100
3, 55378, Note_on_c, 1, 75, 0
3, 55378, Note_on_c, 1, 65, 0
3, 55380, Note_on_c, 1, 72, 107
3, 55410, Note_on_c, 1, 69, 108
3, 55413, Note_on_c, 1, 72, 0
3, 55440, Note_on_c, 1, 65, 110
3, 55443, Note_on_c, 1, 69, 0
3, 55559, Note_on_c, 1, 65, 0
3, 55800, Note_on_c, 1, 65, 116
3, 55800, Note_on_c, 1, 70, 116
3, 55919, Note_on_c, 1, 70, 0
3, 55919, Note_on_c, 1, 65, 0
3, 56040, Note_on_c, 1, 61, 118
3, 56040, Note_on_c, 1, 70, 118
3, 56159, Note_on_c, 1, 70, 0
3, 56159, Note_on_c, 1, 61, 0
3, 56160, Note_on_c, 1, 70, 119
3, 56160, Note_on_c, 1, 75, 119
3, 56278, Note_on_c, 1, 75, 0
3, 56278, Note_on_c, 1, 70, 0
3, 56280, Note_on_c, 1, 69, 120
3, 56280, Note_on_c, 1, 72, 120
3, 56398, Note_on_c, 1, 72, 0
3, 56398, Note_on_c, 1, 69, 0
3, 56550, Note_on_c, 1, 69, 121
3, 56565, Note_on_c, 1, 69, 0
3, 56565, Note_on_c, 1, 70, 121
3, 56580, Note_on_c, 1, 70, 0
3, 56580, Note_on_c, 1, 68, 121
3, 56595, Note_on_c, 1, 68, 0
3, 56595, Note_on_c, 1, 67, 121
3, 56610, Note_on_c, 1, 67, 0
3, 56615, Note_on_c, 1, 68, 121
3, 56639, Note_on_c, 1, 68, 0
3, 56640, Note_on_c, 1, 68, 121
3, 56640, Note_on_c, 1, 77, 121
3, 56759, Note_on_c, 1, 77, 0
3, 56759, Note_on_c, 1, 68, 0
3, 56760, Note_on_c, 1, 68, 98
3, 56760, Note_on_c, 1, 77, 98
3, 56879, Note_on_c, 1, 77, 0
3, 56879, Note_on_c, 1, 68, 0
3, 56880, Note_on_c, 1, 68, 95
3, 56880, Note_on_c, 1, 77, 95
3, 56999, Note_on_c, 1, 77, 0
3, 56999, Note_on_c, 1, 68, 0
3, 57000, Note_on_c, 1, 68, 98
3, 57000, Note_on_c, 1, 77, 95
3, 57119, Note_on_c, 1, 77, 0
3, 57119, Note_on_c, 1, 68, 0
3, 57120, Note_on_c, 1, 68, 127
3, 57120, Note_on_c, 1, 78, 127
3, 57298, Note_on_c, 1, 78, 0
3, 57298, Note_on_c, 1, 68, 0
3, 57300, Note_on_c, 1, 75, 115
3, 57330, Note_on_c, 1, 75, 0
3, 57330, Note_on_c, 1, 72, 115
3, 57360, Note_on_c, 1, 72, 0
3, 57360, Note_on_c, 1, 68, 113
3, 57479, Note_on_c, 1, 68, 0
3, 57720, Note_on_c, 1, 68, 92
3, 57720, Note_on_c, 1, 73, 92
3, 57839, Note_on_c, 1, 73, 0
3, 57839, Note_on_c, 1, 68, 0
3, 57960, Note_on_c, 1, 65, 58
3, 57960, Note_on_c, 1, 73, 58
3, 58079, Note_on_c, 1, 73, 0
3, 58079, Note_on_c, 1, 65, 0
3, 58080, Note_on_c, 1, 73, 57
3, 58080, Note_on_c, 1, 77, 57
3, 58199, Note_on_c, 1, 77, 0
3, 58199, Note_on_c, 1, 73, 0
3, 58200, Note_on_c, 1, 72, 57
3, 58200, Note_on_c, 1, 75, 57
3, 58319, Note_on_c, 1, 75, 0
3, 58319, Note_on_c, 1, 72, 0
3, 58620, Note_on_c, 1, 75, 92
3, 58680, Note_on_c, 1, 74, 96
3, 58685, Note_on_c, 1, 75, 0
3, 58740, Note_on_c, 1, 75, 99
3, 58745, Note_on_c, 1, 74, 0
3, 58800, Note_on_c, 1, 74, 103
3, 58805, Note_on_c, 1, 75, 0
3, 58860, Note_on_c, 1, 75, 104
3, 58865, Note_on_c, 1, 74, 0
3, 58920, Note_on_c, 1, 74, 107
3, 58925, Note_on_c, 1, 75, 0
3, 58980, Note_on_c, 1, 75, 110
3, 58985, Note_on_c, 1, 74, 0
3, 59040, Note_on_c, 1, 75, 113
3, 59040, Note_on_c, 1, 78, 113
3, 59045, Note_on_c, 1, 75, 0
3, 59276, Note_on_c, 1, 78, 0
3, 59276, Note_on_c, 1, 75, 0
3, 59280, Note_on_c, 1, 73, 92
3, 59280, Note_on_c, 1, 77, 94
3, 59398, Note_on_c, 1, 77, 0
3, 59398, Note_on_c, 1, 73, 0
3, 59580, Note_on_c, 1, 70, 56
3, 59640, Note_on_c, 1, 78, 57
3, 59645, Note_on_c, 1, 70, 0
3, 59700, Note_on_c, 1, 70, 58
3, 59705, Note_on_c, 1, 78, 0
3, 59759, Note_on_c, 1, 70, 0
3, 59820, Note_on_c, 1, 70, 59
3, 59880, Note_on_c, 1, 77, 60
3, 59885, Note_on_c, 1, 70, 0
3, 59940, Note_on_c, 1, 70, 60
3, 59945, Note_on_c, 1, 77, 0
3, 60005, Note_on_c, 1, 70, 0
3, 60060, Note_on_c, 1, 63, 60
3, 60120, Note_on_c, 1, 70, 61
3, 60125, Note_on_c, 1, 63, 0
3, 60180, Note_on_c, 1, 75, 61
3, 60185, Note_on_c, 1, 70, 0
3, 60245, Note_on_c, 1, 75, 0
3, 60300, Note_on_c, 1, 61, 62
3, 60360, Note_on_c, 1, 70, 62
3, 60365, Note_on_c, 1, 61, 0
3, 60420, Note_on_c, 1, 73, 62
3, 60425, Note_on_c, 1, 70, 0
3, 60479, Note_on_c, 1, 73, 0
3, 60540, Note_on_c, 1, 60, 62
3, 60600, Note_on_c, 1, 66, 62
3, 60605, Note_on_c, 1, 60, 0
3, 60660, Note_on_c, 1, 72, 63
3, 60665, Note_on_c, 1, 66, 0
3, 60725, Note_on_c, 1, 72, 0
3, 60780, Note_on_c, 1, 60, 64
3, 60840, Note_on_c, 1, 67, 64
3, 60845, Note_on_c, 1, 60, 0
3, 60900, Note_on_c, 1, 70, 65
3, 60905, Note_on_c, 1, 67, 0
3, 60965, Note_on_c, 1, 70, 0
3, 61020, Note_on_c, 1, 65, 65
3, 61080, Note_on_c, 1, 69, 65
3, 61085, Note_on_c, 1, 65, 0
3, 61140, Note_on_c, 1, 65, 65
3, 61145, Note_on_c, 1, 69, 0
3, 61200, Note_on_c, 1, 60, 65
3, 61205, Note_on_c, 1, 65, 0
3, 61260, Note_on_c, 1, 65, 66
3, 61265, Note_on_c, 1, 60, 0
3, 61320, Note_on_c, 1, 69, 66
3, 61325, Note_on_c, 1, 65, 0
3, 61380, Note_on_c, 1, 65, 66
3, 61385, Note_on_c, 1, 69, 0
3, 61440, Note_on_c, 1, 60, 67
3, 61445, Note_on_c, 1, 65, 0
3, 61500, Note_on_c, 1, 65, 67
3, 61505, Note_on_c, 1, 60, 0
3, 61560, Note_on_c, 1, 69, 67
3, 61565, Note_on_c, 1, 65, 0
3, 61620, Note_on_c, 1, 65, 67
3, 61625, Note_on_c, 1, 69, 0
3, 61680, Note_on_c, 1, 60, 67
3, 61685, Note_on_c, 1, 65, 0
3, 61740, Note_on_c, 1, 65, 67
3, 61745, Note_on_c, 1, 60, 0
3, 61800, Note_on_c, 1, 69, 68
3, 61805, Note_on_c, 1, 65, 0
3, 61860, Note_on_c, 1, 65, 68
3, 61865, Note_on_c, 1, 69, 0
3, 61920, Note_on_c, 1, 61, 68
3, 61925, Note_on_c, 1, 65, 0
3, 61980, Note_on_c, 1, 65, 68
3, 61985, Note_on_c, 1, 61, 0
3, 62040, Note_on_c, 1, 70, 68
3, 62045, Note_on_c, 1, 65, 0
3, 62100, Note_on_c, 1, 65, 68
3, 62105, Note_on_c, 1, 70, 0
3, 62160, Note_on_c, 1, 61, 68
3, 62165, Note_on_c, 1, 65, 0
3, 62220, Note_on_c, 1, 65, 68
3, 62225, Note_on_c, 1, 61, 0
3, 62280, Note_on_c, 1, 70, 67
3, 62285, Note_on_c, 1, 65, 0
3, 62340, Note_on_c, 1, 65, 67
3, 62345, Note_on_c, 1, 70, 0
3, 62400, Note_on_c, 1, 61, 67
3, 62405, Note_on_c, 1, 65, 0
3, 62460, Note_on_c, 1, 65, 67
3, 62465, Note_on_c, 1, 61, 0
3, 62520, Note_on_c, 1, 70, 67
3, 62525, Note_on_c, 1, 65, 0
3, 62580, Note_on_c, 1, 65, 67
3, 62585, Note_on_c, 1, 70, 0
3, 62640, Note_on_c, 1, 61, 68
3, 62645, Note_on_c, 1, 65, 0
3, 62700, Note_on_c, 1, 65, 68
3, 62705, Note_on_c, 1, 61, 0
3, 62760, Note_on_c, 1, 70, 68
3, 62765, Note_on_c, 1, 65, 0
3, 62820, Note_on_c, 1, 65, 69
3, 62825, Note_on_c, 1, 70, 0
3, 62879, Note_on_c, 1, 65, 0
3, 62880, Note_on_c, 1, 60, 69
3, 62940, Note_on_c, 1, 65, 69
3, 62945, Note_on_c, 1, 60, 0
3, 63000, Note_on_c, 1, 69, 69
3, 63005, Note_on_c, 1, 65, 0
3, 63060, Note_on_c, 1, 65, 69
3, 63065, Note_on_c, 1, 69, 0
3, 63120, Note_on_c, 1, 60, 70
3, 63125, Note_on_c, 1, 65, 0
3, 63180, Note_on_c, 1, 65, 70
3, 63185, Note_on_c, 1, 60, 0
3, 63240, Note_on_c, 1, 69, 70
3, 63245, Note_on_c, 1, 65, 0
3, 63300, Note_on_c, 1, 65, 71
3, 63305, Note_on_c, 1, 69, 0
3, 63360, Note_on_c, 1, 60, 71
3, 63365, Note_on_c, 1, 65, 0
3, 63420, Note_on_c, 1, 65, 71
3, 63425, Note_on_c, 1, 60, 0
3, 63480, Note_on_c, 1, 69, 71
3, 63485, Note_on_c, 1, 65, 0
3, 63540, Note_on_c, 1, 65, 71
3, 63545, Note_on_c, 1, 69, 0
3, 63600, Note_on_c, 1, 60, 72
3, 63605, Note_on_c, 1, 65, 0
3, 63660, Note_on_c, 1, 65, 73
3, 63665, Note_on_c, 1, 60, 0
3, 63720, Note_on_c, 1, 69, 73
3, 63725, Note_on_c, 1, 65, 0
3, 63780, Note_on_c, 1, 65, 74
3, 63785, Note_on_c, 1, 69, 0
3, 63840, Note_on_c, 1, 61, 108
3, 63845, Note_on_c, 1, 65, 0
3, 63900, Note_on_c, 1, 65, 108
3, 63905, Note_on_c, 1, 61, 0
3, 63960, Note_on_c, 1, 70, 110
3, 63965, Note_on_c, 1, 65, 0
3, 64020, Note_on_c, 1, 65, 110
3, 64025, Note_on_c, 1, 70, 0
3, 64080, Note_on_c, 1, 61, 111
3, 64085, Note_on_c, 1, 65, 0
3, 64140, Note_on_c, 1, 65, 111
3, 64145, Note_on_c, 1, 61, 0
3, 64200, Note_on_c, 1, 70, 111
3, 64205, Note_on_c, 1, 65, 0
3, 64260, Note_on_c, 1, 65, 111
3, 64265, Note_on_c, 1, 70, 0
3, 64319, Note_on_c, 1, 65, 0
3, 64320, Note_on_c, 1, 61, 111
3, 64380, Note_on_c, 1, 65, 111
3, 64385, Note_on_c, 1, 61, 0
3, 64440, Note_on_c, 1, 70, 111
3, 64445, Note_on_c, 1, 65, 0
3, 64500, Note_on_c, 1, 65, 111
3, 64505, Note_on_c, 1, 70, 0
3, 64560, Note_on_c, 1, 61, 111
3, 64565, Note_on_c, 1, 65, 0
3, 64620, Note_on_c, 1, 65, 111
3, 64625, Note_on_c, 1, 61, 0
3, 64680, Note_on_c, 1, 70, 111
3, 64685, Note_on_c, 1, 65, 0
3, 64740, Note_on_c, 1, 65, 111
3, 64745, Note_on_c, 1, 70, 0
3, 64799, Note_on_c, 1, 65, 0
3, 64920, Note_on_c, 1, 65, 54
3, 64980, Note_on_c, 1, 64, 62
3, 64985, Note_on_c, 1, 65, 0
3, 65040, Note_on_c, 1, 67, 61
3, 65045, Note_on_c, 1, 64, 0
3, 65100, Note_on_c, 1, 65, 60
3, 65105, Note_on_c, 1, 67, 0
3, 65160, Note_on_c, 1, 69, 59
3, 65165, Note_on_c, 1, 65, 0
3, 65220, Note_on_c, 1, 67, 58
3, 65225, Note_on_c, 1, 69, 0
3, 65280, Note_on_c, 1, 70, 58
3, 65285, Note_on_c, 1, 67, 0
3, 65340, Note_on_c, 1, 69, 56
3, 65345, Note_on_c, 1, 70, 0
3, 65400, Note_on_c, 1, 72, 56
3, 65405, Note_on_c, 1, 69, 0
3, 65460, Note_on_c, 1, 70, 55
3, 65465, Note_on_c, 1, 72, 0
3, 65520, Note_on_c, 1, 74, 54
3, 65525, Note_on_c, 1, 70, 0
3, 65580, Note_on_c, 1, 72, 54
3, 65585, Note_on_c, 1, 74, 0
3, 65640, Note_on_c, 1, 75, 53
3, 65645, Note_on_c, 1, 72, 0
3, 65700, Note_on_c, 1, 74, 53
3, 65705, Note_on_c, 1, 75, 0
3, 65765, Note_on_c, 1, 74, 0
3, 65880, Note_on_c, 1, 74, 52
3, 65999, Note_on_c, 1, 74, 0
3, 66120, Note_on_c, 1, 70, 41
3, 66239, Note_on_c, 1, 70, 0
3, 66360, Note_on_c, 1, 67, 45
3, 66479, Note_on_c, 1, 67, 0
3, 66600, Note_on_c, 1, 67, 47
3, 66600, Note_on_c, 1, 79, 47
3, 66719, Note_on_c, 1, 79, 0
3, 66719, Note_on_c, 1, 67, 0
3, 66840, Note_on_c, 1, 75, 48
3, 66959, Note_on_c, 1, 75, 0
3, 67080, Note_on_c, 1, 72, 49
3, 67199, Note_on_c, 1, 72, 0
3, 67320, Note_on_c, 1, 69, 51
3, 67439, Note_on_c, 1, 69, 0
3, 67560, Note_on_c, 1, 69, 52
3, 67560, Note_on_c, 1, 81, 52
3, 67679, Note_on_c, 1, 81, 0
3, 67679, Note_on_c, 1, 69, 0
3, 67800, Note_on_c, 1, 77, 54
3, 67919, Note_on_c, 1, 77, 0
3, 68040, Note_on_c, 1, 74, 58
3, 68159, Note_on_c, 1, 74, 0
3, 68280, Note_on_c, 1, 70, 62
3, 68399, Note_on_c, 1, 70, 0
3, 68520, Note_on_c, 1, 70, 64
3, 68520, Note_on_c, 1, 82, 64
3, 68639, Note_on_c, 1, 82, 0
3, 68639, Note_on_c, 1, 70, 0
3, 68760, Note_on_c, 1, 70, 86
3, 68760, Note_on_c, 1, 79, 88
3, 68879, Note_on_c, 1, 79, 0
3, 68879, Note_on_c, 1, 70, 0
3, 69000, Note_on_c, 1, 70, 86
3, 69000, Note_on_c, 1, 75, 86
3, 69119, Note_on_c, 1, 75, 0
3, 69119, Note_on_c, 1, 70, 0
3, 69120, Note_on_c, 1, 65, 90
3, 69120, Note_on_c, 1, 72, 88
3, 69359, Note_on_c, 1, 72, 0
3, 69359, Note_on_c, 1, 65, 0
3, 69600, Note_on_c, 1, 57, 47
3, 69600, Note_on_c, 1, 60, 45
3, 69836, Note_on_c, 1, 60, 0
3, 69836, Note_on_c, 1, 57, 0
3, 69840, Note_on_c, 1, 58, 61
3, 69840, Note_on_c, 1, 62, 61
3, 70076, Note_on_c, 1, 62, 0
3, 70076, Note_on_c, 1, 58, 0
3, 70080, Note_on_c, 1, 57, 62
3, 70080, Note_on_c, 1, 65, 62
3, 70198, Note_on_c, 1, 65, 0
3, 70200, Note_on_c, 1, 63, 62
3, 70317, Note_on_c, 1, 57, 0
3, 70318, Note_on_c, 1, 63, 0
3, 70320, Note_on_c, 1, 58, 62
3, 70320, Note_on_c, 1, 62, 62
3, 70556, Note_on_c, 1, 62, 0
3, 70556, Note_on_c, 1, 58, 0
3, 70560, Note_on_c, 1, 57, 60
3, 70560, Note_on_c, 1, 60, 60
3, 70796, Note_on_c, 1, 60, 0
3, 70796, Note_on_c, 1, 57, 0
3, 70800, Note_on_c, 1, 58, 58
3, 70800, Note_on_c, 1, 62, 58
3, 71036, Note_on_c, 1, 62, 0
3, 71036, Note_on_c, 1, 58, 0
3, 71040, Note_on_c, 1, 57, 56
3, 71040, Note_on_c, 1, 65, 56
3, 71158, Note_on_c, 1, 65, 0
3, 71160, Note_on_c, 1, 63, 55
3, 71277, Note_on_c, 1, 57, 0
3, 71278, Note_on_c, 1, 63, 0
3, 71280, Note_on_c, 1, 58, 54
3, 71280, Note_on_c, 1, 62, 54
3, 71516, Note_on_c, 1, 62, 0
3, 71516, Note_on_c, 1, 58, 0
3, 71520, Note_on_c, 1, 62, 70
3, 71520, Note_on_c, 1, 65, 70
3, 71638, Note_on_c, 1, 62, 0
3, 71640, Note_on_c, 1, 58, 69
3, 71757, Note_on_c, 1, 65, 0
3, 71758, Note_on_c, 1, 58, 0
3, 71760, Note_on_c, 1, 63, 68
3, 71760, Note_on_c, 1, 67, 68
3, 71878, Note_on_c, 1, 63, 0
3, 71880, Note_on_c, 1, 58, 68
3, 71997, Note_on_c, 1, 67, 0
3, 71998, Note_on_c, 1, 58, 0
3, 72000, Note_on_c, 1, 62, 68
3, 72000, Note_on_c, 1, 70, 68
3, 72118, Note_on_c, 1, 70, 0
3, 72118, Note_on_c, 1, 62, 0
3, 72120, Note_on_c, 1, 58, 68
3, 72120, Note_on_c, 1, 68, 68
3, 72238, Note_on_c, 1, 68, 0
3, 72238, Note_on_c, 1, 58, 0
3, 72240, Note_on_c, 1, 63, 70
3, 72240, Note_on_c, 1, 67, 70
3, 72358, Note_on_c, 1, 63, 0
3, 72360, Note_on_c, 1, 58, 71
3, 72477, Note_on_c, 1, 67, 0
3, 72478, Note_on_c, 1, 58, 0
3, 72480, Note_on_c, 1, 62, 105
3, 72480, Note_on_c, 1, 65, 108
3, 72598, Note_on_c, 1, 62, 0
3, 72600, Note_on_c, 1, 58, 110
3, 72717, Note_on_c, 1, 65, 0
3, 72718, Note_on_c, 1, 58, 0
3, 72720, Note_on_c, 1, 66, 118
3, 72838, Note_on_c, 1, 66, 0
3, 72840, Note_on_c, 1, 58, 91
3, 72958, Note_on_c, 1, 58, 0
3, 72960, Note_on_c, 1, 67, 127
3, 73078, Note_on_c, 1, 67, 0
3, 73080, Note_on_c, 1, 81, 127
3, 73139, Note_on_c, 1, 81, 0
3, 73140, Note_on_c, 1, 79, 108
3, 73199, Note_on_c, 1, 79, 0
3, 73200, Note_on_c, 1, 77, 98
3, 73259, Note_on_c, 1, 77, 0
3, 73260, Note_on_c, 1, 75, 93
3, 73319, Note_on_c, 1, 75, 0
3, 73320, Note_on_c, 1, 74, 88
3, 73379, Note_on_c, 1, 74, 0
3, 73380, Note_on_c, 1, 72, 82
3, 73439, Note_on_c, 1, 72, 0
3, 73560, Note_on_c, 1, 62, 69
3, 73560, Note_on_c, 1, 70, 69
3, 73679, Note_on_c, 1, 70, 0
3, 73679, Note_on_c, 1, 62, 0
3, 73800, Note_on_c, 1, 63, 59
3, 73800, Note_on_c, 1, 69, 59
3, 73919, Note_on_c, 1, 69, 0
3, 73919, Note_on_c, 1, 63, 0
3, 73920, Note_on_c, 1, 62, 59
3, 73920, Note_on_c, 1, 70, 59
3, 74039, Note_on_c, 1, 70, 0
3, 74039, Note_on_c, 1, 62, 0
3, 74520, Note_on_c, 1, 65, 56
3, 74520, Note_on_c, 1, 69, 56
3, 74520, Note_on_c, 1, 72, 56
3, 74639, Note_on_c, 1, 72, 0
3, 74639, Note_on_c, 1, 69, 0
3, 74639, Note_on_c, 1, 65, 0
3, 74760, Note_on_c, 1, 65, 56
3, 74760, Note_on_c, 1, 69, 56
3, 74760, Note_on_c, 1, 72, 56
3, 74879, Note_on_c, 1, 72, 0
3, 74879, Note_on_c, 1, 69, 0
3, 74879, Note_on_c, 1, 65, 0
3, 75000, Note_on_c, 1, 65, 56
3, 75000, Note_on_c, 1, 70, 56
3, 75000, Note_on_c, 1, 74, 56
3, 75119, Note_on_c, 1, 74, 0
3, 75119, Note_on_c, 1, 70, 0
3, 75119, Note_on_c, 1, 65, 0
3, 75240, Note_on_c, 1, 65, 57
3, 75240, Note_on_c, 1, 70, 57
3, 75240, Note_on_c, 1, 74, 57
3, 75359, Note_on_c, 1, 74, 0
3, 75359, Note_on_c, 1, 70, 0
3, 75359, Note_on_c, 1, 65, 0
3, 75480, Note_on_c, 1, 65, 57
3, 75480, Note_on_c, 1, 72, 57
3, 75480, Note_on_c, 1, 75, 57
3, 75599, Note_on_c, 1, 75, 0
3, 75599, Note_on_c, 1, 72, 0
3, 75599, Note_on_c, 1, 65, 0
3, 75720, Note_on_c, 1, 65, 57
3, 75720, Note_on_c, 1, 72, 57
3, 75720, Note_on_c, 1, 75, 57
3, 75839, Note_on_c, 1, 75, 0
3, 75839, Note_on_c, 1, 72, 0
3, 75839, Note_on_c, 1, 65, 0
3, 75960, Note_on_c, 1, 65, 57
3, 75960, Note_on_c, 1, 70, 57
3, 75960, Note_on_c, 1, 74, 57
3, 76079, Note_on_c, 1, 74, 0
3, 76079, Note_on_c, 1, 70, 0
3, 76079, Note_on_c, 1, 65, 0
3, 76200, Note_on_c, 1, 65, 57
3, 76200, Note_on_c, 1, 70, 57
3, 76200, Note_on_c, 1, 74, 57
3, 76319, Note_on_c, 1, 74, 0
3, 76319, Note_on_c, 1, 70, 0
3, 76319, Note_on_c, 1, 65, 0
3, 76440, Note_on_c, 1, 65, 57
3, 76440, Note_on_c, 1, 69, 57
3, 76440, Note_on_c, 1, 72, 57
3, 76559, Note_on_c, 1, 72, 0
3, 76559, Note_on_c, 1, 69, 0
3, 76559, Note_on_c, 1, 65, 0
3, 76680, Note_on_c, 1, 65, 57
3, 76680, Note_on_c, 1, 69, 57
3, 76680, Note_on_c, 1, 72, 57
3, 76799, Note_on_c, 1, 72, 0
3, 76799, Note_on_c, 1, 69, 0
3, 76799, Note_on_c, 1, 65, 0
3, 76920, Note_on_c, 1, 65, 57
3, 76920, Note_on_c, 1, 70, 57
3, 76920, Note_on_c, 1, 74, 57
3, 77039, Note_on_c, 1, 74, 0
3, 77039, Note_on_c, 1, 70, 0
3, 77039, Note_on_c, 1, 65, 0
3, 77160, Note_on_c, 1, 65, 60
3, 77160, Note_on_c, 1, 70, 60
3, 77160, Note_on_c, 1, 74, 60
3, 77279, Note_on_c, 1, 74, 0
3, 77279, Note_on_c, 1, 70, 0
3, 77279, Note_on_c, 1, 65, 0
3, 77400, Note_on_c, 1, 65, 65
3, 77400, Note_on_c, 1, 72, 65
3, 77519, Note_on_c, 1, 72, 0
3, 77519, Note_on_c, 1, 65, 0
3, 77520, Note_on_c, 1, 65, 72
3, 77520, Note_on_c, 1, 72, 72
3, 77520, Note_on_c, 1, 75, 72
3, 77639, Note_on_c, 1, 75, 0
3, 77639, Note_on_c, 1, 72, 0
3, 77639, Note_on_c, 1, 65, 0
3, 77640, Note_on_c, 1, 65, 84
3, 77640, Note_on_c, 1, 72, 84
3, 77640, Note_on_c, 1, 75, 84
3, 77759, Note_on_c, 1, 75, 0
3, 77759, Note_on_c, 1, 72, 0
3, 77759, Note_on_c, 1, 65, 0
3, 77760, Note_on_c, 1, 65, 111
3, 77760, Note_on_c, 1, 72, 111
3, 77760, Note_on_c, 1, 75, 111
3, 77879, Note_on_c, 1, 75, 0
3, 77879, Note_on_c, 1, 72, 0
3, 77879, Note_on_c, 1, 65, 0
3, 77880, Note_on_c, 1, 65, 94
3, 77880, Note_on_c, 1, 72, 94
3, 77880, Note_on_c, 1, 75, 94
3, 77999, Note_on_c, 1, 75, 0
3, 77999, Note_on_c, 1, 72, 0
3, 77999, Note_on_c, 1, 65, 0
3, 78000, Note_on_c, 1, 65, 83
3, 78000, Note_on_c, 1, 70, 83
3, 78000, Note_on_c, 1, 74, 83
3, 78119, Note_on_c, 1, 74, 0
3, 78119, Note_on_c, 1, 70, 0
3, 78119, Note_on_c, 1, 65, 0
3, 78120, Note_on_c, 1, 65, 80
3, 78120, Note_on_c, 1, 70, 80
3, 78120, Note_on_c, 1, 74, 80
3, 78239, Note_on_c, 1, 74, 0
3, 78239, Note_on_c, 1, 70, 0
3, 78239, Note_on_c, 1, 65, 0
3, 78240, Note_on_c, 1, 60, 84
3, 78299, Note_on_c, 1, 60, 0
3, 78300, Note_on_c, 1, 72, 85
3, 78359, Note_on_c, 1, 72, 0
3, 78360, Note_on_c, 1, 60, 88
3, 78419, Note_on_c, 1, 60, 0
3, 78420, Note_on_c, 1, 72, 90
3, 78479, Note_on_c, 1, 72, 0
3, 78480, Note_on_c, 1, 60, 92
3, 78539, Note_on_c, 1, 60, 0
3, 78540, Note_on_c, 1, 72, 93
3, 78599, Note_on_c, 1, 72, 0
3, 78600, Note_on_c, 1, 60, 95
3, 78659, Note_on_c, 1, 60, 0
3, 78660, Note_on_c, 1, 72, 97
3, 78719, Note_on_c, 1, 72, 0
3, 78720, Note_on_c, 1, 60, 98
3, 78779, Note_on_c, 1, 60, 0
3, 78780, Note_on_c, 1, 72, 101
3, 78839, Note_on_c, 1, 72, 0
3, 78840, Note_on_c, 1, 60, 102
3, 78899, Note_on_c, 1, 60, 0
3, 78900, Note_on_c, 1, 72, 104
3, 78959, Note_on_c, 1, 72, 0
3, 78960, Note_on_c, 1, 60, 105
3, 79019, Note_on_c, 1, 60, 0
3, 79020, Note_on_c, 1, 72, 107
3, 79079, Note_on_c, 1, 72, 0
3, 79080, Note_on_c, 1, 60, 107
3, 79139, Note_on_c, 1, 60, 0
3, 79140, Note_on_c, 1, 72, 109
3, 79199, Note_on_c, 1, 72, 0
3, 79200, Note_on_c, 1, 61, 109
3, 79259, Note_on_c, 1, 61, 0
3, 79260, Note_on_c, 1, 73, 109
3, 79319, Note_on_c, 1, 73, 0
3, 79320, Note_on_c, 1, 61, 110
3, 79379, Note_on_c, 1, 61, 0
3, 79380, Note_on_c, 1, 73, 110
3, 79439, Note_on_c, 1, 73, 0
3, 79440, Note_on_c, 1, 61, 110
3, 79499, Note_on_c, 1, 61, 0
3, 79500, Note_on_c, 1, 73, 110
3, 79559, Note_on_c, 1, 73, 0
3, 79560, Note_on_c, 1, 61, 110
3, 79619, Note_on_c, 1, 61, 0
3, 79620, Note_on_c, 1, 73, 110
3, 79679, Note_on_c, 1, 73, 0
3, 79920, Note_on_c, 1, 73, 111
3, 79920, Note_on_c, 1, 85, 111
3, 80039, Note_on_c, 1, 85, 0
3, 80039, Note_on_c, 1, 73, 0
3, 80040, Note_on_c, 1, 73, 114
3, 80040, Note_on_c, 1, 85, 114
3, 80159, Note_on_c, 1, 85, 0
3, 80159, Note_on_c, 1, 73, 0
3, 80160, Note_on_c, 1, 73, 115
3, 80160, Note_on_c, 1, 85, 115
3, 80520, Note_on_c, 1, 85, 0
3, 80520, Note_on_c, 1, 73, 0
3, 80550, Note_on_c, 1, 82, 110
3, 80565, Note_on_c, 1, 82, 0
3, 80565, Note_on_c, 1, 84, 110
3, 80580, Note_on_c, 1, 84, 0
3, 80580, Note_on_c, 1, 82, 110
3, 80595, Note_on_c, 1, 82, 0
3, 80595, Note_on_c, 1, 81, 110
3, 80610, Note_on_c, 1, 81, 0
3, 80615, Note_on_c, 1, 82, 116
3, 80640, Note_on_c, 1, 73, 124
3, 80640, Note_on_c, 1, 85, 124
3, 80641, Note_on_c, 1, 82, 0
3, 81000, Note_on_c, 1, 85, 0
3, 81000, Note_on_c, 1, 73, 0
3, 81030, Note_on_c, 1, 82, 120
3, 81045, Note_on_c, 1, 82, 0
3, 81045, Note_on_c, 1, 84, 120
3, 81060, Note_on_c, 1, 84, 0
3, 81060, Note_on_c, 1, 82, 120
3, 81075, Note_on_c, 1, 82, 0
3, 81075, Note_on_c, 1, 81, 120
3, 81090, Note_on_c, 1, 81, 0
3, 81095, Note_on_c, 1, 82, 120
3, 81120, Note_on_c, 1, 86, 120
3, 81121, Note_on_c, 1, 82, 0
3, 81239, Note_on_c, 1, 86, 0
3, 81240, Note_on_c, 1, 74, 38
3, 81300, Note_on_c, 1, 70, 70
3, 81305, Note_on_c, 1, 74, 0
3, 81360, Note_on_c, 1, 65, 71
3, 81365, Note_on_c, 1, 70, 0
3, 81420, Note_on_c, 1, 70, 71
3, 81425, Note_on_c, 1, 65, 0
3, 81480, Note_on_c, 1, 74, 71
3, 81485, Note_on_c, 1, 70, 0
3, 81540, Note_on_c, 1, 70, 72
3, 81545, Note_on_c, 1, 74, 0
3, 81600, Note_on_c, 1, 65, 72
3, 81605, Note_on_c, 1, 70, 0
3, 81660, Note_on_c, 1, 72, 72
3, 81665, Note_on_c, 1, 65, 0
3, 81720, Note_on_c, 1, 75, 72
3, 81725, Note_on_c, 1, 72, 0
3, 81780, Note_on_c, 1, 72, 72
3, 81785, Note_on_c, 1, 75, 0
3, 81840, Note_on_c, 1, 65, 71
3, 81845, Note_on_c, 1, 72, 0
3, 81900, Note_on_c, 1, 73, 71
3, 81905, Note_on_c, 1, 65, 0
3, 81960, Note_on_c, 1, 76, 71
3, 81965, Note_on_c, 1, 73, 0
3, 82020, Note_on_c, 1, 73, 71
3, 82025, Note_on_c, 1, 76, 0
3, 82085, Note_on_c, 1, 73, 0
3, 82140, Note_on_c, 1, 77, 99
3, 82200, Note_on_c, 1, 75, 104
3, 82205, Note_on_c, 1, 77, 0
3, 82260, Note_on_c, 1, 74, 107
3, 82265, Note_on_c, 1, 75, 0
3, 82320, Note_on_c, 1, 72, 110
3, 82325, Note_on_c, 1, 74, 0
3, 82380, Note_on_c, 1, 70, 112
3, 82385, Note_on_c, 1, 72, 0
3, 82440, Note_on_c, 1, 69, 116
3, 82445, Note_on_c, 1, 70, 0
3, 82500, Note_on_c, 1, 67, 118
3, 82505, Note_on_c, 1, 69, 0
3, 82560, Note_on_c, 1, 65, 122
3, 82565, Note_on_c, 1, 67, 0
3, 82620, Note_on_c, 1, 64, 123
3, 82625, Note_on_c, 1, 65, 0
3, 82680, Note_on_c, 1, 65, 124
3, 82685, Note_on_c, 1, 64, 0
3, 82740, Note_on_c, 1, 67, 125
3, 82745, Note_on_c, 1, 65, 0
3, 82800, Note_on_c, 1, 65, 126
3, 82805, Note_on_c, 1, 67, 0
3, 82860, Note_on_c, 1, 63, 127
3, 82865, Note_on_c, 1, 65, 0
3, 82920, Note_on_c, 1, 62, 127
3, 82925, Note_on_c, 1, 63, 0
3, 82980, Note_on_c, 1, 60, 127
3, 82985, Note_on_c, 1, 62, 0
3, 83040, Note_on_c, 1, 58, 121
3, 83045, Note_on_c, 1, 60, 0
3, 83158, Note_on_c, 1, 58, 0
3, 83280, Note_on_c, 1, 62, 61
3, 83280, Note_on_c, 1, 65, 58
3, 83398, Note_on_c, 1, 65, 0
3, 83398, Note_on_c, 1, 62, 0
3, 83520, Note_on_c, 1, 60, 60
3, 83520, Note_on_c, 1, 63, 59
3, 83638, Note_on_c, 1, 63, 0
3, 83638, Note_on_c, 1, 60, 0
3, 83760, Note_on_c, 1, 58, 54
3, 83760, Note_on_c, 1, 62, 54
3, 83878, Note_on_c, 1, 62, 0
3, 83878, Note_on_c, 1, 58, 0
3, 83878, End_track
4, 0, Start_track
4, 0, Title_t, "PianoL"
4, 0, Program_c, 2, 0
4, 0, Control_c, 2, 7, 82
4, 0, Control_c, 2, 10, 92
4, 0, Control_c, 2, 91, 31
4, 0, Control_c, 2, 93, 46
4, 720, Control_c, 2, 91, 22
4, 720, Control_c, 2, 93, 20
4, 780, Control_c, 2, 32, 0
4, 1198, Control_c, 2, 0, 0
4, 1199, Control_c, 2, 32, 0
4, 1200, Program_c, 2, 0
4, 1200, Control_c, 2, 91, 60
4, 1440, Note_on_c, 2, 46, 53
4, 1479, Note_on_c, 2, 50, 53
4, 1480, Note_on_c, 2, 46, 0
4, 1519, Note_on_c, 2, 50, 0
4, 1519, Note_on_c, 2, 53, 54
4, 1559, Note_on_c, 2, 53, 0
4, 1560, Note_on_c, 2, 58, 54
4, 1599, Note_on_c, 2, 53, 54
4, 1600, Note_on_c, 2, 58, 0
4, 1639, Note_on_c, 2, 53, 0
4, 1639, Note_on_c, 2, 50, 55
4, 1679, Note_on_c, 2, 50, 0
4, 1680, Note_on_c, 2, 46, 55
4, 1719, Note_on_c, 2, 50, 55
4, 1720, Note_on_c, 2, 46, 0
4, 1759, Note_on_c, 2, 50, 0
4, 1759, Note_on_c, 2, 53, 56
4, 1799, Note_on_c, 2, 53, 0
4, 1800, Note_on_c, 2, 58, 56
4, 1839, Note_on_c, 2, 53, 56
4, 1840, Note_on_c, 2, 58, 0
4, 1879, Note_on_c, 2, 53, 0
4, 1879, Note_on_c, 2, 50, 56
4, 1919, Note_on_c, 2, 50, 0
4, 1920, Note_on_c, 2, 48, 56
4, 1959, Note_on_c, 2, 51, 56
4, 1960, Note_on_c, 2, 48, 0
4, 1999, Note_on_c, 2, 51, 0
4, 1999, Note_on_c, 2, 53, 56
4, 2039, Note_on_c, 2, 53, 0
4, 2040, Note_on_c, 2, 57, 56
4, 2079, Note_on_c, 2, 53, 57
4, 2080, Note_on_c, 2, 57, 0
4, 2119, Note_on_c, 2, 53, 0
4, 2119, Note_on_c, 2, 51, 57
4, 2159, Note_on_c, 2, 51, 0
4, 2160, Note_on_c, 2, 48, 57
4, 2199, Note_on_c, 2, 51, 57
4, 2200, Note_on_c, 2, 48, 0
4, 2239, Note_on_c, 2, 51, 0
4, 2239, Note_on_c, 2, 53, 57
4, 2279, Note_on_c, 2, 53, 0
4, 2280, Note_on_c, 2, 57, 57
4, 2319, Note_on_c, 2, 53, 57
4, 2320, Note_on_c, 2, 57, 0
4, 2359, Note_on_c, 2, 53, 0
4, 2359, Note_on_c, 2, 51, 57
4, 2399, Note_on_c, 2, 51, 0
4, 2400, Note_on_c, 2, 50, 57
4, 2439, Note_on_c, 2, 53, 58
4, 2440, Note_on_c, 2, 50, 0
4, 2479, Note_on_c, 2, 53, 0
4, 2479, Note_on_c, 2, 58, 58
4, 2519, Note_on_c, 2, 58, 0
4, 2520, Note_on_c, 2, 62, 58
4, 2559, Note_on_c, 2, 58, 58
4, 2560, Note_on_c, 2, 62, 0
4, 2599, Note_on_c, 2, 58, 0
4, 2599, Note_on_c, 2, 53, 58
4, 2639, Note_on_c, 2, 53, 0
4, 2640, Note_on_c, 2, 51, 59
4, 2679, Note_on_c, 2, 55, 59
4, 2680, Note_on_c, 2, 51, 0
4, 2719, Note_on_c, 2, 55, 0
4, 2719, Note_on_c, 2, 58, 59
4, 2759, Note_on_c, 2, 58, 0
4, 2760, Note_on_c, 2, 51, 59
4, 2799, Note_on_c, 2, 55, 59
4, 2800, Note_on_c, 2, 51, 0
4, 2839, Note_on_c, 2, 55, 0
4, 2839, Note_on_c, 2, 58, 59
4, 2879, Note_on_c, 2, 58, 0
4, 2880, Note_on_c, 2, 53, 59
4, 2919, Note_on_c, 2, 58, 59
4, 2920, Note_on_c, 2, 53, 0
4, 2959, Note_on_c, 2, 58, 0
4, 2959, Note_on_c, 2, 62, 59
4, 2999, Note_on_c, 2, 62, 0
4, 3000, Note_on_c, 2, 65, 59
4, 3039, Note_on_c, 2, 62, 59
4, 3040, Note_on_c, 2, 65, 0
4, 3079, Note_on_c, 2, 62, 0
4, 3079, Note_on_c, 2, 58, 59
4, 3119, Note_on_c, 2, 58, 0
4, 3120, Note_on_c, 2, 53, 58
4, 3159, Note_on_c, 2, 58, 58
4, 3160, Note_on_c, 2, 53, 0
4, 3199, Note_on_c, 2, 58, 0
4, 3199, Note_on_c, 2, 62, 58
4, 3239, Note_on_c, 2, 62, 0
4, 3240, Note_on_c, 2, 53, 58
4, 3279, Note_on_c, 2, 57, 58
4, 3280, Note_on_c, 2, 53, 0
4, 3319, Note_on_c, 2, 57, 0
4, 3319, Note_on_c, 2, 63, 58
4, 3359, Note_on_c, 2, 63, 0
4, 3360, Note_on_c, 2, 58, 58
4, 3360, Note_on_c, 2, 62, 58
4, 3479, Note_on_c, 2, 62, 0
4, 3479, Note_on_c, 2, 58, 0
4, 3840, Note_on_c, 2, 34, 50
4, 3840, Note_on_c, 2, 46, 50
4, 4079, Note_on_c, 2, 46, 0
4, 4079, Note_on_c, 2, 34, 0
4, 4080, Note_on_c, 2, 34, 51
4, 4080, Note_on_c, 2, 46, 51
4, 4319, Note_on_c, 2, 46, 0
4, 4319, Note_on_c, 2, 34, 0
4, 4320, Note_on_c, 2, 33, 52
4, 4320, Note_on_c, 2, 45, 52
4, 4559, Note_on_c, 2, 45, 0
4, 4559, Note_on_c, 2, 33, 0
4, 4560, Note_on_c, 2, 39, 51
4, 4560, Note_on_c, 2, 51, 51
4, 4799, Note_on_c, 2, 51, 0
4, 4799, Note_on_c, 2, 39, 0
4, 4800, Note_on_c, 2, 38, 51
4, 4800, Note_on_c, 2, 50, 51
4, 5039, Note_on_c, 2, 50, 0
4, 5039, Note_on_c, 2, 38, 0
4, 5040, Note_on_c, 2, 39, 51
4, 5040, Note_on_c, 2, 51, 51
4, 5279, Note_on_c, 2, 51, 0
4, 5279, Note_on_c, 2, 39, 0
4, 5280, Note_on_c, 2, 41, 53
4, 5280, Note_on_c, 2, 53, 53
4, 5520, Note_on_c, 2, 53, 0
4, 5520, Note_on_c, 2, 41, 0
4, 5520, Note_on_c, 2, 29, 54
4, 5520, Note_on_c, 2, 41, 54
4, 5760, Note_on_c, 2, 41, 0
4, 5760, Note_on_c, 2, 29, 0
4, 5760, Note_on_c, 2, 34, 54
4, 5760, Note_on_c, 2, 46, 54
4, 5999, Note_on_c, 2, 46, 0
4, 5999, Note_on_c, 2, 34, 0
4, 6000, Note_on_c, 2, 38, 55
4, 6000, Note_on_c, 2, 50, 55
4, 6239, Note_on_c, 2, 50, 0
4, 6239, Note_on_c, 2, 38, 0
4, 6240, Note_on_c, 2, 39, 55
4, 6240, Note_on_c, 2, 51, 55
4, 6479, Note_on_c, 2, 51, 0
4, 6479, Note_on_c, 2, 39, 0
4, 6480, Note_on_c, 2, 51, 54
4, 6718, Note_on_c, 2, 51, 0
4, 6720, Note_on_c, 2, 53, 53
4, 6958, Note_on_c, 2, 53, 0
4, 6960, Note_on_c, 2, 41, 35
4, 7080, Note_on_c, 2, 41, 0
4, 7080, Note_on_c, 2, 41, 44
4, 7199, Note_on_c, 2, 41, 0
4, 7200, Note_on_c, 2, 46, 57
4, 7319, Note_on_c, 2, 46, 0
4, 7320, Note_on_c, 2, 62, 60
4, 7439, Note_on_c, 2, 62, 0
4, 7440, Note_on_c, 2, 60, 49
4, 7559, Note_on_c, 2, 60, 0
4, 7560, Note_on_c, 2, 58, 46
4, 7679, Note_on_c, 2, 58, 0
4, 7680, Note_on_c, 2, 63, 59
4, 7799, Note_on_c, 2, 63, 0
4, 7800, Note_on_c, 2, 62, 47
4, 7919, Note_on_c, 2, 62, 0
4, 7920, Note_on_c, 2, 60, 44
4, 8039, Note_on_c, 2, 60, 0
4, 8040, Note_on_c, 2, 53, 40
4, 8159, Note_on_c, 2, 53, 0
4, 8160, Note_on_c, 2, 58, 56
4, 8279, Note_on_c, 2, 58, 0
4, 8280, Note_on_c, 2, 62, 55
4, 8280, Note_on_c, 2, 65, 56
4, 8399, Note_on_c, 2, 65, 0
4, 8399, Note_on_c, 2, 62, 0
4, 8400, Note_on_c, 2, 60, 46
4, 8400, Note_on_c, 2, 63, 47
4, 8519, Note_on_c, 2, 63, 0
4, 8519, Note_on_c, 2, 60, 0
4, 8520, Note_on_c, 2, 58, 43
4, 8520, Note_on_c, 2, 62, 47
4, 8639, Note_on_c, 2, 62, 0
4, 8639, Note_on_c, 2, 58, 0
4, 8640, Note_on_c, 2, 51, 47
4, 8640, Note_on_c, 2, 60, 48
4, 8759, Note_on_c, 2, 60, 0
4, 8759, Note_on_c, 2, 51, 0
4, 8760, Note_on_c, 2, 50, 45
4, 8760, Note_on_c, 2, 58, 44
4, 8879, Note_on_c, 2, 58, 0
4, 8879, Note_on_c, 2, 50, 0
4, 8880, Note_on_c, 2, 48, 43
4, 8880, Note_on_c, 2, 57, 45
4, 8999, Note_on_c, 2, 57, 0
4, 8999, Note_on_c, 2, 48, 0
4, 9000, Note_on_c, 2, 41, 40
4, 9000, Note_on_c, 2, 53, 44
4, 9119, Note_on_c, 2, 53, 0
4, 9119, Note_on_c, 2, 41, 0
4, 9120, Note_on_c, 2, 46, 67
4, 9156, Note_on_c, 2, 46, 0
4, 9159, Note_on_c, 2, 58, 72
4, 9195, Note_on_c, 2, 58, 0
4, 9199, Note_on_c, 2, 58, 80
4, 9236, Note_on_c, 2, 58, 0
4, 9240, Note_on_c, 2, 58, 90
4, 9276, Note_on_c, 2, 58, 0
4, 9279, Note_on_c, 2, 58, 94
4, 9315, Note_on_c, 2, 58, 0
4, 9319, Note_on_c, 2, 58, 99
4, 9356, Note_on_c, 2, 58, 0
4, 9360, Note_on_c, 2, 53, 101
4, 9396, Note_on_c, 2, 53, 0
4, 9399, Note_on_c, 2, 53, 104
4, 9435, Note_on_c, 2, 53, 0
4, 9439, Note_on_c, 2, 53, 108
4, 9476, Note_on_c, 2, 53, 0
4, 9480, Note_on_c, 2, 50, 113
4, 9516, Note_on_c, 2, 50, 0
4, 9519, Note_on_c, 2, 50, 115
4, 9555, Note_on_c, 2, 50, 0
4, 9559, Note_on_c, 2, 50, 120
4, 9596, Note_on_c, 2, 50, 0
4, 9600, Note_on_c, 2, 46, 122
4, 9636, Note_on_c, 2, 46, 0
4, 9639, Note_on_c, 2, 46, 120
4, 9675, Note_on_c, 2, 46, 0
4, 9679, Note_on_c, 2, 46, 104
4, 9716, Note_on_c, 2, 46, 0
4, 9720, Note_on_c, 2, 41, 95
4, 9720, Note_on_c, 2, 53, 95
4, 9756, Note_on_c, 2, 53, 0
4, 9756, Note_on_c, 2, 41, 0
4, 9759, Note_on_c, 2, 41, 91
4, 9759, Note_on_c, 2, 53, 91
4, 9795, Note_on_c, 2, 53, 0
4, 9795, Note_on_c, 2, 41, 0
4, 9799, Note_on_c, 2, 41, 83
4, 9799, Note_on_c, 2, 53, 83
4, 9836, Note_on_c, 2, 53, 0
4, 9836, Note_on_c, 2, 41, 0
4, 9840, Note_on_c, 2, 38, 78
4, 9840, Note_on_c, 2, 50, 78
4, 9876, Note_on_c, 2, 50, 0
4, 9876, Note_on_c, 2, 38, 0
4, 9879, Note_on_c, 2, 38, 70
4, 9879, Note_on_c, 2, 50, 70
4, 9915, Note_on_c, 2, 50, 0
4, 9915, Note_on_c, 2, 38, 0
4, 9919, Note_on_c, 2, 38, 65
4, 9919, Note_on_c, 2, 50, 65
4, 9956, Note_on_c, 2, 50, 0
4, 9956, Note_on_c, 2, 38, 0
4, 9960, Note_on_c, 2, 34, 60
4, 9960, Note_on_c, 2, 46, 60
4, 9996, Note_on_c, 2, 46, 0
4, 9996, Note_on_c, 2, 34, 0
4, 9999, Note_on_c, 2, 34, 57
4, 9999, Note_on_c, 2, 46, 57
4, 10035, Note_on_c, 2, 46, 0
4, 10035, Note_on_c, 2, 34, 0
4, 10039, Note_on_c, 2, 34, 49
4, 10039, Note_on_c, 2, 46, 49
4, 10076, Note_on_c, 2, 46, 0
4, 10076, Note_on_c, 2, 34, 0
4, 10080, Note_on_c, 2, 29, 43
4, 10080, Note_on_c, 2, 41, 43
4, 10116, Note_on_c, 2, 41, 0
4, 10116, Note_on_c, 2, 29, 0
4, 10119, Note_on_c, 2, 53, 38
4, 10155, Note_on_c, 2, 53, 0
4, 10159, Note_on_c, 2, 53, 34
4, 10196, Note_on_c, 2, 53, 0
4, 10200, Note_on_c, 2, 53, 31
4, 10236, Note_on_c, 2, 53, 0
4, 10239, Note_on_c, 2, 53, 30
4, 10275, Note_on_c, 2, 53, 0
4, 10279, Note_on_c, 2, 53, 28
4, 10316, Note_on_c, 2, 53, 0
4, 10320, Note_on_c, 2, 48, 26
4, 10320, Note_on_c, 2, 60, 26
4, 10356, Note_on_c, 2, 60, 0
4, 10356, Note_on_c, 2, 48, 0
4, 10359, Note_on_c, 2, 48, 26
4, 10359, Note_on_c, 2, 60, 26
4, 10395, Note_on_c, 2, 60, 0
4, 10395, Note_on_c, 2, 48, 0
4, 10399, Note_on_c, 2, 48, 26
4, 10399, Note_on_c, 2, 60, 26
4, 10436, Note_on_c, 2, 60, 0
4, 10436, Note_on_c, 2, 48, 0
4, 10440, Note_on_c, 2, 45, 26
4, 10440, Note_on_c, 2, 57, 26
4, 10476, Note_on_c, 2, 57, 0
4, 10476, Note_on_c, 2, 45, 0
4, 10479, Note_on_c, 2, 45, 26
4, 10479, Note_on_c, 2, 57, 26
4, 10515, Note_on_c, 2, 57, 0
4, 10515, Note_on_c, 2, 45, 0
4, 10519, Note_on_c, 2, 45, 26
4, 10519, Note_on_c, 2, 57, 26
4, 10556, Note_on_c, 2, 57, 0
4, 10556, Note_on_c, 2, 45, 0
4, 10560, Note_on_c, 2, 41, 26
4, 10560, Note_on_c, 2, 53, 26
4, 10596, Note_on_c, 2, 53, 0
4, 10596, Note_on_c, 2, 41, 0
4, 10599, Note_on_c, 2, 41, 26
4, 10599, Note_on_c, 2, 53, 26
4, 10635, Note_on_c, 2, 53, 0
4, 10635, Note_on_c, 2, 41, 0
4, 10639, Note_on_c, 2, 41, 26
4, 10639, Note_on_c, 2, 53, 26
4, 10676, Note_on_c, 2, 53, 0
4, 10676, Note_on_c, 2, 41, 0
4, 10680, Note_on_c, 2, 36, 26
4, 10680, Note_on_c, 2, 48, 26
4, 10716, Note_on_c, 2, 48, 0
4, 10716, Note_on_c, 2, 36, 0
4, 10719, Note_on_c, 2, 36, 26
4, 10719, Note_on_c, 2, 48, 26
4, 10755, Note_on_c, 2, 48, 0
4, 10755, Note_on_c, 2, 36, 0
4, 10759, Note_on_c, 2, 36, 26
4, 10759, Note_on_c, 2, 48, 26
4, 10796, Note_on_c, 2, 48, 0
4, 10796, Note_on_c, 2, 36, 0
4, 10800, Note_on_c, 2, 33, 26
4, 10800, Note_on_c, 2, 45, 26
4, 10836, Note_on_c, 2, 45, 0
4, 10836, Note_on_c, 2, 33, 0
4, 10839, Note_on_c, 2, 33, 26
4, 10839, Note_on_c, 2, 45, 26
4, 10875, Note_on_c, 2, 45, 0
4, 10875, Note_on_c, 2, 33, 0
4, 10879, Note_on_c, 2, 33, 26
4, 10879, Note_on_c, 2, 45, 26
4, 10916, Note_on_c, 2, 45, 0
4, 10916, Note_on_c, 2, 33, 0
4, 10920, Note_on_c, 2, 29, 26
4, 10920, Note_on_c, 2, 41, 26
4, 10956, Note_on_c, 2, 41, 0
4, 10956, Note_on_c, 2, 29, 0
4, 10959, Note_on_c, 2, 29, 26
4, 10959, Note_on_c, 2, 41, 26
4, 10995, Note_on_c, 2, 41, 0
4, 10995, Note_on_c, 2, 29, 0
4, 10999, Note_on_c, 2, 29, 63
4, 10999, Note_on_c, 2, 41, 63
4, 11036, Note_on_c, 2, 41, 0
4, 11036, Note_on_c, 2, 29, 0
4, 11040, Note_on_c, 2, 34, 63
4, 11040, Note_on_c, 2, 46, 63
4, 11159, Note_on_c, 2, 46, 0
4, 11159, Note_on_c, 2, 34, 0
4, 11160, Note_on_c, 2, 58, 60
4, 11279, Note_on_c, 2, 58, 0
4, 11280, Note_on_c, 2, 57, 59
4, 11399, Note_on_c, 2, 57, 0
4, 11400, Note_on_c, 2, 55, 58
4, 11519, Note_on_c, 2, 55, 0
4, 11520, Note_on_c, 2, 60, 57
4, 11639, Note_on_c, 2, 60, 0
4, 11640, Note_on_c, 2, 58, 57
4, 11759, Note_on_c, 2, 58, 0
4, 11760, Note_on_c, 2, 57, 57
4, 11879, Note_on_c, 2, 57, 0
4, 11880, Note_on_c, 2, 50, 56
4, 11999, Note_on_c, 2, 50, 0
4, 12000, Note_on_c, 2, 55, 56
4, 12119, Note_on_c, 2, 55, 0
4, 12120, Note_on_c, 2, 43, 55
4, 12239, Note_on_c, 2, 43, 0
4, 12240, Note_on_c, 2, 55, 55
4, 12359, Note_on_c, 2, 55, 0
4, 12360, Note_on_c, 2, 53, 59
4, 12479, Note_on_c, 2, 53, 0
4, 12480, Note_on_c, 2, 52, 62
4, 12599, Note_on_c, 2, 52, 0
4, 12600, Note_on_c, 2, 52, 64
4, 12719, Note_on_c, 2, 52, 0
4, 12720, Note_on_c, 2, 50, 66
4, 12839, Note_on_c, 2, 50, 0
4, 12840, Note_on_c, 2, 50, 67
4, 12959, Note_on_c, 2, 50, 0
4, 12960, Note_on_c, 2, 48, 70
4, 13079, Note_on_c, 2, 48, 0
4, 13080, Note_on_c, 2, 48, 74
4, 13199, Note_on_c, 2, 48, 0
4, 13200, Note_on_c, 2, 46, 79
4, 13239, Note_on_c, 2, 58, 112
4, 13240, Note_on_c, 2, 46, 0
4, 13275, Note_on_c, 2, 58, 0
4, 13279, Note_on_c, 2, 58, 114
4, 13316, Note_on_c, 2, 58, 0
4, 13320, Note_on_c, 2, 58, 116
4, 13356, Note_on_c, 2, 58, 0
4, 13359, Note_on_c, 2, 58, 117
4, 13395, Note_on_c, 2, 58, 0
4, 13399, Note_on_c, 2, 58, 118
4, 13436, Note_on_c, 2, 58, 0
4, 13440, Note_on_c, 2, 45, 120
4, 13476, Note_on_c, 2, 45, 0
4, 13479, Note_on_c, 2, 57, 120
4, 13515, Note_on_c, 2, 57, 0
4, 13519, Note_on_c, 2, 57, 122
4, 13556, Note_on_c, 2, 57, 0
4, 13560, Note_on_c, 2, 57, 123
4, 13596, Note_on_c, 2, 57, 0
4, 13599, Note_on_c, 2, 57, 123
4, 13635, Note_on_c, 2, 57, 0
4, 13639, Note_on_c, 2, 57, 124
4, 13676, Note_on_c, 2, 57, 0
4, 13680, Note_on_c, 2, 43, 125
4, 13716, Note_on_c, 2, 43, 0
4, 13719, Note_on_c, 2, 55, 125
4, 13755, Note_on_c, 2, 55, 0
4, 13759, Note_on_c, 2, 55, 125
4, 13796, Note_on_c, 2, 55, 0
4, 13800, Note_on_c, 2, 55, 126
4, 13836, Note_on_c, 2, 55, 0
4, 13839, Note_on_c, 2, 55, 126
4, 13875, Note_on_c, 2, 55, 0
4, 13879, Note_on_c, 2, 55, 127
4, 13916, Note_on_c, 2, 55, 0
4, 13920, Note_on_c, 2, 41, 127
4, 13956, Note_on_c, 2, 41, 0
4, 13959, Note_on_c, 2, 53, 127
4, 13995, Note_on_c, 2, 53, 0
4, 13999, Note_on_c, 2, 53, 127
4, 14036, Note_on_c, 2, 53, 0
4, 14040, Note_on_c, 2, 53, 127
4, 14076, Note_on_c, 2, 53, 0
4, 14079, Note_on_c, 2, 53, 127
4, 14115, Note_on_c, 2, 53, 0
4, 14119, Note_on_c, 2, 53, 127
4, 14156, Note_on_c, 2, 53, 0
4, 14160, Note_on_c, 2, 38, 127
4, 14160, Note_on_c, 2, 50, 127
4, 14196, Note_on_c, 2, 50, 0
4, 14196, Note_on_c, 2, 38, 0
4, 14199, Note_on_c, 2, 38, 127
4, 14199, Note_on_c, 2, 50, 127
4, 14235, Note_on_c, 2, 50, 0
4, 14235, Note_on_c, 2, 38, 0
4, 14239, Note_on_c, 2, 38, 127
4, 14239, Note_on_c, 2, 50, 127
4, 14276, Note_on_c, 2, 50, 0
4, 14276, Note_on_c, 2, 38, 0
4, 14280, Note_on_c, 2, 38, 125
4, 14280, Note_on_c, 2, 50, 125
4, 14316, Note_on_c, 2, 50, 0
4, 14316, Note_on_c, 2, 38, 0
4, 14319, Note_on_c, 2, 38, 125
4, 14319, Note_on_c, 2, 50, 125
4, 14355, Note_on_c, 2, 50, 0
4, 14355, Note_on_c, 2, 38, 0
4, 14359, Note_on_c, 2, 38, 124
4, 14359, Note_on_c, 2, 50, 124
4, 14396, Note_on_c, 2, 50, 0
4, 14396, Note_on_c, 2, 38, 0
4, 14400, Note_on_c, 2, 36, 123
4, 14400, Note_on_c, 2, 48, 123
4, 14519, Note_on_c, 2, 48, 0
4, 14519, Note_on_c, 2, 36, 0
4, 14520, Note_on_c, 2, 46, 59
4, 14520, Note_on_c, 2, 58, 57
4, 14639, Note_on_c, 2, 58, 0
4, 14639, Note_on_c, 2, 46, 0
4, 14640, Note_on_c, 2, 45, 61
4, 14640, Note_on_c, 2, 57, 61
4, 14759, Note_on_c, 2, 57, 0
4, 14759, Note_on_c, 2, 45, 0
4, 14760, Note_on_c, 2, 43, 59
4, 14760, Note_on_c, 2, 55, 59
4, 14879, Note_on_c, 2, 55, 0
4, 14879, Note_on_c, 2, 43, 0
4, 14880, Note_on_c, 2, 41, 58
4, 14880, Note_on_c, 2, 53, 58
4, 14999, Note_on_c, 2, 53, 0
4, 14999, Note_on_c, 2, 41, 0
4, 15000, Note_on_c, 2, 45, 58
4, 15000, Note_on_c, 2, 48, 58
4, 15119, Note_on_c, 2, 45, 0
4, 15120, Note_on_c, 2, 43, 58
4, 15239, Note_on_c, 2, 43, 0
4, 15239, Note_on_c, 2, 48, 0
4, 15240, Note_on_c, 2, 41, 58
4, 15240, Note_on_c, 2, 48, 58
4, 15359, Note_on_c, 2, 48, 0
4, 15359, Note_on_c, 2, 41, 0
4, 15360, Note_on_c, 2, 40, 57
4, 15360, Note_on_c, 2, 48, 57
4, 15479, Note_on_c, 2, 48, 0
4, 15479, Note_on_c, 2, 40, 0
4, 15480, Note_on_c, 2, 36, 57
4, 15480, Note_on_c, 2, 48, 57
4, 15599, Note_on_c, 2, 48, 0
4, 15599, Note_on_c, 2, 36, 0
4, 15600, Note_on_c, 2, 38, 56
4, 15600, Note_on_c, 2, 48, 56
4, 15719, Note_on_c, 2, 48, 0
4, 15719, Note_on_c, 2, 38, 0
4, 15720, Note_on_c, 2, 40, 56
4, 15720, Note_on_c, 2, 48, 56
4, 15839, Note_on_c, 2, 48, 0
4, 15839, Note_on_c, 2, 40, 0
4, 15840, Note_on_c, 2, 41, 56
4, 15840, Note_on_c, 2, 48, 56
4, 15959, Note_on_c, 2, 48, 0
4, 15959, Note_on_c, 2, 41, 0
4, 15960, Note_on_c, 2, 57, 56
4, 16079, Note_on_c, 2, 57, 0
4, 16080, Note_on_c, 2, 55, 56
4, 16199, Note_on_c, 2, 55, 0
4, 16200, Note_on_c, 2, 53, 56
4, 16319, Note_on_c, 2, 53, 0
4, 16320, Note_on_c, 2, 46, 43
4, 16359, Note_on_c, 2, 58, 58
4, 16359, Note_on_c, 2, 62, 60
4, 16360, Note_on_c, 2, 46, 0
4, 16395, Note_on_c, 2, 62, 0
4, 16395, Note_on_c, 2, 58, 0
4, 16399, Note_on_c, 2, 58, 62
4, 16399, Note_on_c, 2, 62, 63
4, 16436, Note_on_c, 2, 62, 0
4, 16436, Note_on_c, 2, 58, 0
4, 16440, Note_on_c, 2, 58, 73
4, 16440, Note_on_c, 2, 62, 77
4, 16476, Note_on_c, 2, 62, 0
4, 16476, Note_on_c, 2, 58, 0
4, 16479, Note_on_c, 2, 58, 84
4, 16479, Note_on_c, 2, 62, 83
4, 16515, Note_on_c, 2, 62, 0
4, 16515, Note_on_c, 2, 58, 0
4, 16519, Note_on_c, 2, 58, 96
4, 16519, Note_on_c, 2, 62, 95
4, 16556, Note_on_c, 2, 62, 0
4, 16556, Note_on_c, 2, 58, 0
4, 16560, Note_on_c, 2, 58, 110
4, 16560, Note_on_c, 2, 62, 109
4, 16596, Note_on_c, 2, 62, 0
4, 16596, Note_on_c, 2, 58, 0
4, 16599, Note_on_c, 2, 58, 127
4, 16599, Note_on_c, 2, 62, 127
4, 16635, Note_on_c, 2, 62, 0
4, 16635, Note_on_c, 2, 58, 0
4, 16639, Note_on_c, 2, 58, 125
4, 16639, Note_on_c, 2, 62, 127
4, 16676, Note_on_c, 2, 62, 0
4, 16676, Note_on_c, 2, 58, 0
4, 16680, Note_on_c, 2, 58, 127
4, 16680, Note_on_c, 2, 62, 127
4, 16716, Note_on_c, 2, 62, 0
4, 16716, Note_on_c, 2, 58, 0
4, 16719, Note_on_c, 2, 58, 125
4, 16719, Note_on_c, 2, 62, 127
4, 16755, Note_on_c, 2, 62, 0
4, 16755, Note_on_c, 2, 58, 0
4, 16759, Note_on_c, 2, 58, 125
4, 16759, Note_on_c, 2, 62, 125
4, 16796, Note_on_c, 2, 62, 0
4, 16796, Note_on_c, 2, 58, 0
4, 16800, Note_on_c, 2, 58, 124
4, 16800, Note_on_c, 2, 60, 124
4, 16800, Note_on_c, 2, 64, 124
4, 16836, Note_on_c, 2, 64, 0
4, 16836, Note_on_c, 2, 60, 0
4, 16836, Note_on_c, 2, 58, 0
4, 16839, Note_on_c, 2, 58, 118
4, 16839, Note_on_c, 2, 60, 118
4, 16839, Note_on_c, 2, 64, 118
4, 16875, Note_on_c, 2, 64, 0
4, 16875, Note_on_c, 2, 60, 0
4, 16875, Note_on_c, 2, 58, 0
4, 16879, Note_on_c, 2, 58, 112
4, 16879, Note_on_c, 2, 60, 112
4, 16879, Note_on_c, 2, 64, 112
4, 16916, Note_on_c, 2, 64, 0
4, 16916, Note_on_c, 2, 60, 0
4, 16916, Note_on_c, 2, 58, 0
4, 16920, Note_on_c, 2, 58, 105
4, 16920, Note_on_c, 2, 60, 105
4, 16920, Note_on_c, 2, 64, 105
4, 16956, Note_on_c, 2, 64, 0
4, 16956, Note_on_c, 2, 60, 0
4, 16956, Note_on_c, 2, 58, 0
4, 16959, Note_on_c, 2, 58, 99
4, 16959, Note_on_c, 2, 60, 99
4, 16959, Note_on_c, 2, 64, 99
4, 16995, Note_on_c, 2, 64, 0
4, 16995, Note_on_c, 2, 60, 0
4, 16995, Note_on_c, 2, 58, 0
4, 16999, Note_on_c, 2, 58, 94
4, 16999, Note_on_c, 2, 60, 94
4, 16999, Note_on_c, 2, 64, 94
4, 17036, Note_on_c, 2, 64, 0
4, 17036, Note_on_c, 2, 60, 0
4, 17036, Note_on_c, 2, 58, 0
4, 17040, Note_on_c, 2, 58, 86
4, 17040, Note_on_c, 2, 60, 86
4, 17040, Note_on_c, 2, 64, 86
4, 17076, Note_on_c, 2, 64, 0
4, 17076, Note_on_c, 2, 60, 0
4, 17076, Note_on_c, 2, 58, 0
4, 17079, Note_on_c, 2, 58, 81
4, 17079, Note_on_c, 2, 60, 81
4, 17079, Note_on_c, 2, 64, 81
4, 17115, Note_on_c, 2, 64, 0
4, 17115, Note_on_c, 2, 60, 0
4, 17115, Note_on_c, 2, 58, 0
4, 17119, Note_on_c, 2, 58, 75
4, 17119, Note_on_c, 2, 60, 75
4, 17119, Note_on_c, 2, 64, 75
4, 17156, Note_on_c, 2, 64, 0
4, 17156, Note_on_c, 2, 60, 0
4, 17156, Note_on_c, 2, 58, 0
4, 17160, Note_on_c, 2, 58, 68
4, 17160, Note_on_c, 2, 60, 68
4, 17160, Note_on_c, 2, 64, 68
4, 17196, Note_on_c, 2, 64, 0
4, 17196, Note_on_c, 2, 60, 0
4, 17196, Note_on_c, 2, 58, 0
4, 17199, Note_on_c, 2, 58, 62
4, 17199, Note_on_c, 2, 60, 62
4, 17199, Note_on_c, 2, 64, 62
4, 17235, Note_on_c, 2, 64, 0
4, 17235, Note_on_c, 2, 60, 0
4, 17235, Note_on_c, 2, 58, 0
4, 17239, Note_on_c, 2, 58, 56
4, 17239, Note_on_c, 2, 60, 56
4, 17239, Note_on_c, 2, 64, 56
4, 17276, Note_on_c, 2, 64, 0
4, 17276, Note_on_c, 2, 60, 0
4, 17276, Note_on_c, 2, 58, 0
4, 17280, Note_on_c, 2, 57, 49
4, 17399, Note_on_c, 2, 57, 0
4, 17520, Note_on_c, 2, 33, 50
4, 17520, Note_on_c, 2, 45, 50
4, 17639, Note_on_c, 2, 45, 0
4, 17639, Note_on_c, 2, 33, 0
4, 17760, Note_on_c, 2, 34, 52
4, 17760, Note_on_c, 2, 46, 52
4, 17879, Note_on_c, 2, 46, 0
4, 17879, Note_on_c, 2, 34, 0
4, 18000, Note_on_c, 2, 34, 52
4, 18000, Note_on_c, 2, 46, 52
4, 18119, Note_on_c, 2, 46, 0
4, 18119, Note_on_c, 2, 34, 0
4, 18240, Note_on_c, 2, 36, 52
4, 18240, Note_on_c, 2, 48, 52
4, 18479, Note_on_c, 2, 48, 0
4, 18479, Note_on_c, 2, 36, 0
4, 18480, Note_on_c, 2, 37, 54
4, 18480, Note_on_c, 2, 49, 54
4, 18719, Note_on_c, 2, 49, 0
4, 18719, Note_on_c, 2, 37, 0
4, 18720, Note_on_c, 2, 36, 55
4, 18720, Note_on_c, 2, 48, 55
4, 18959, Note_on_c, 2, 48, 0
4, 18959, Note_on_c, 2, 36, 0
4, 18960, Note_on_c, 2, 36, 53
4, 18960, Note_on_c, 2, 48, 53
4, 19199, Note_on_c, 2, 48, 0
4, 19199, Note_on_c, 2, 36, 0
4, 19200, Note_on_c, 2, 41, 51
4, 19240, Note_on_c, 2, 41, 0
4, 19240, Note_on_c, 2, 41, 51
4, 19280, Note_on_c, 2, 41, 0
4, 19280, Note_on_c, 2, 41, 51
4, 19320, Note_on_c, 2, 41, 0
4, 19320, Note_on_c, 2, 53, 50
4, 19360, Note_on_c, 2, 53, 0
4, 19360, Note_on_c, 2, 53, 50
4, 19400, Note_on_c, 2, 53, 0
4, 19400, Note_on_c, 2, 53, 49
4, 19440, Note_on_c, 2, 53, 0
4, 19440, Note_on_c, 2, 53, 49
4, 19480, Note_on_c, 2, 53, 0
4, 19480, Note_on_c, 2, 53, 49
4, 19520, Note_on_c, 2, 53, 0
4, 19520, Note_on_c, 2, 53, 49
4, 19560, Note_on_c, 2, 53, 0
4, 19560, Note_on_c, 2, 53, 49
4, 19600, Note_on_c, 2, 53, 0
4, 19600, Note_on_c, 2, 53, 48
4, 19640, Note_on_c, 2, 53, 0
4, 19640, Note_on_c, 2, 53, 48
4, 19680, Note_on_c, 2, 53, 0
4, 19680, Note_on_c, 2, 53, 40
4, 19716, Note_on_c, 2, 53, 0
4, 19719, Note_on_c, 2, 54, 57
4, 19755, Note_on_c, 2, 54, 0
4, 19759, Note_on_c, 2, 54, 73
4, 19796, Note_on_c, 2, 54, 0
4, 19800, Note_on_c, 2, 54, 93
4, 19836, Note_on_c, 2, 54, 0
4, 19839, Note_on_c, 2, 51, 107
4, 19839, Note_on_c, 2, 54, 109
4, 19875, Note_on_c, 2, 54, 0
4, 19875, Note_on_c, 2, 51, 0
4, 19879, Note_on_c, 2, 51, 124
4, 19879, Note_on_c, 2, 54, 125
4, 19916, Note_on_c, 2, 54, 0
4, 19916, Note_on_c, 2, 51, 0
4, 19920, Note_on_c, 2, 51, 127
4, 19920, Note_on_c, 2, 54, 127
4, 19956, Note_on_c, 2, 54, 0
4, 19956, Note_on_c, 2, 51, 0
4, 19959, Note_on_c, 2, 44, 105
4, 19959, Note_on_c, 2, 51, 109
4, 19959, Note_on_c, 2, 54, 108
4, 19995, Note_on_c, 2, 54, 0
4, 19995, Note_on_c, 2, 51, 0
4, 19995, Note_on_c, 2, 44, 0
4, 19999, Note_on_c, 2, 44, 87
4, 19999, Note_on_c, 2, 51, 85
4, 19999, Note_on_c, 2, 54, 87
4, 20036, Note_on_c, 2, 54, 0
4, 20036, Note_on_c, 2, 51, 0
4, 20036, Note_on_c, 2, 44, 0
4, 20040, Note_on_c, 2, 44, 72
4, 20040, Note_on_c, 2, 51, 69
4, 20040, Note_on_c, 2, 54, 69
4, 20076, Note_on_c, 2, 54, 0
4, 20076, Note_on_c, 2, 51, 0
4, 20076, Note_on_c, 2, 44, 0
4, 20079, Note_on_c, 2, 44, 60
4, 20079, Note_on_c, 2, 51, 60
4, 20079, Note_on_c, 2, 54, 60
4, 20115, Note_on_c, 2, 54, 0
4, 20115, Note_on_c, 2, 51, 0
4, 20115, Note_on_c, 2, 44, 0
4, 20119, Note_on_c, 2, 44, 55
4, 20119, Note_on_c, 2, 51, 55
4, 20119, Note_on_c, 2, 54, 55
4, 20156, Note_on_c, 2, 54, 0
4, 20156, Note_on_c, 2, 51, 0
4, 20156, Note_on_c, 2, 44, 0
4, 20160, Note_on_c, 2, 49, 52
4, 20160, Note_on_c, 2, 53, 52
4, 20196, Note_on_c, 2, 53, 0
4, 20196, Note_on_c, 2, 49, 0
4, 20199, Note_on_c, 2, 49, 49
4, 20199, Note_on_c, 2, 56, 49
4, 20235, Note_on_c, 2, 56, 0
4, 20235, Note_on_c, 2, 49, 0
4, 20239, Note_on_c, 2, 49, 47
4, 20239, Note_on_c, 2, 56, 47
4, 20276, Note_on_c, 2, 56, 0
4, 20276, Note_on_c, 2, 49, 0
4, 20280, Note_on_c, 2, 49, 47
4, 20280, Note_on_c, 2, 56, 47
4, 20316, Note_on_c, 2, 56, 0
4, 20316, Note_on_c, 2, 49, 0
4, 20319, Note_on_c, 2, 49, 47
4, 20319, Note_on_c, 2, 56, 47
4, 20355, Note_on_c, 2, 56, 0
4, 20355, Note_on_c, 2, 49, 0
4, 20359, Note_on_c, 2, 49, 47
4, 20359, Note_on_c, 2, 56, 47
4, 20396, Note_on_c, 2, 56, 0
4, 20396, Note_on_c, 2, 49, 0
4, 20400, Note_on_c, 2, 49, 47
4, 20400, Note_on_c, 2, 56, 47
4, 20436, Note_on_c, 2, 56, 0
4, 20436, Note_on_c, 2, 49, 0
4, 20439, Note_on_c, 2, 49, 47
4, 20439, Note_on_c, 2, 56, 47
4, 20475, Note_on_c, 2, 56, 0
4, 20475, Note_on_c, 2, 49, 0
4, 20479, Note_on_c, 2, 49, 47
4, 20479, Note_on_c, 2, 56, 47
4, 20516, Note_on_c, 2, 56, 0
4, 20516, Note_on_c, 2, 49, 0
4, 20520, Note_on_c, 2, 49, 46
4, 20520, Note_on_c, 2, 56, 46
4, 20556, Note_on_c, 2, 56, 0
4, 20556, Note_on_c, 2, 49, 0
4, 20559, Note_on_c, 2, 49, 46
4, 20559, Note_on_c, 2, 56, 46
4, 20595, Note_on_c, 2, 56, 0
4, 20595, Note_on_c, 2, 49, 0
4, 20599, Note_on_c, 2, 49, 46
4, 20599, Note_on_c, 2, 56, 46
4, 20636, Note_on_c, 2, 56, 0
4, 20636, Note_on_c, 2, 49, 0
4, 20640, Note_on_c, 2, 51, 45
4, 20640, Note_on_c, 2, 56, 45
4, 20676, Note_on_c, 2, 56, 0
4, 20676, Note_on_c, 2, 51, 0
4, 20679, Note_on_c, 2, 51, 45
4, 20679, Note_on_c, 2, 56, 45
4, 20715, Note_on_c, 2, 56, 0
4, 20715, Note_on_c, 2, 51, 0
4, 20719, Note_on_c, 2, 51, 45
4, 20719, Note_on_c, 2, 56, 45
4, 20756, Note_on_c, 2, 56, 0
4, 20756, Note_on_c, 2, 51, 0
4, 20760, Note_on_c, 2, 51, 45
4, 20760, Note_on_c, 2, 56, 45
4, 20796, Note_on_c, 2, 56, 0
4, 20796, Note_on_c, 2, 51, 0
4, 20799, Note_on_c, 2, 51, 45
4, 20799, Note_on_c, 2, 56, 45
4, 20835, Note_on_c, 2, 56, 0
4, 20835, Note_on_c, 2, 51, 0
4, 20839, Note_on_c, 2, 51, 45
4, 20839, Note_on_c, 2, 56, 45
4, 20876, Note_on_c, 2, 56, 0
4, 20876, Note_on_c, 2, 51, 0
4, 20880, Note_on_c, 2, 48, 46
4, 20880, Note_on_c, 2, 56, 46
4, 20916, Note_on_c, 2, 56, 0
4, 20916, Note_on_c, 2, 48, 0
4, 20919, Note_on_c, 2, 48, 46
4, 20919, Note_on_c, 2, 56, 46
4, 20955, Note_on_c, 2, 56, 0
4, 20955, Note_on_c, 2, 48, 0
4, 20959, Note_on_c, 2, 48, 47
4, 20959, Note_on_c, 2, 56, 47
4, 20996, Note_on_c, 2, 56, 0
4, 20996, Note_on_c, 2, 48, 0
4, 21000, Note_on_c, 2, 48, 47
4, 21000, Note_on_c, 2, 56, 47
4, 21036, Note_on_c, 2, 56, 0
4, 21036, Note_on_c, 2, 48, 0
4, 21039, Note_on_c, 2, 48, 47
4, 21039, Note_on_c, 2, 56, 47
4, 21075, Note_on_c, 2, 56, 0
4, 21075, Note_on_c, 2, 48, 0
4, 21079, Note_on_c, 2, 48, 47
4, 21079, Note_on_c, 2, 56, 47
4, 21116, Note_on_c, 2, 56, 0
4, 21116, Note_on_c, 2, 48, 0
4, 21120, Note_on_c, 2, 49, 47
4, 21239, Note_on_c, 2, 49, 0
4, 21240, Note_on_c, 2, 44, 46
4, 21359, Note_on_c, 2, 44, 0
4, 21360, Note_on_c, 2, 41, 47
4, 21479, Note_on_c, 2, 41, 0
4, 21480, Note_on_c, 2, 37, 49
4, 21599, Note_on_c, 2, 37, 0
4, 21600, Note_on_c, 2, 30, 49
4, 21600, Note_on_c, 2, 42, 49
4, 21839, Note_on_c, 2, 42, 0
4, 21839, Note_on_c, 2, 30, 0
4, 21840, Note_on_c, 2, 32, 50
4, 21840, Note_on_c, 2, 44, 50
4, 22079, Note_on_c, 2, 44, 0
4, 22079, Note_on_c, 2, 32, 0
4, 22080, Note_on_c, 2, 37, 48
4, 22116, Note_on_c, 2, 37, 0
4, 22119, Note_on_c, 2, 49, 48
4, 22119, Note_on_c, 2, 56, 48
4, 22155, Note_on_c, 2, 56, 0
4, 22155, Note_on_c, 2, 49, 0
4, 22159, Note_on_c, 2, 49, 48
4, 22159, Note_on_c, 2, 56, 48
4, 22196, Note_on_c, 2, 56, 0
4, 22196, Note_on_c, 2, 49, 0
4, 22200, Note_on_c, 2, 49, 47
4, 22200, Note_on_c, 2, 56, 47
4, 22236, Note_on_c, 2, 56, 0
4, 22236, Note_on_c, 2, 49, 0
4, 22239, Note_on_c, 2, 49, 47
4, 22239, Note_on_c, 2, 56, 47
4, 22275, Note_on_c, 2, 56, 0
4, 22275, Note_on_c, 2, 49, 0
4, 22279, Note_on_c, 2, 49, 46
4, 22279, Note_on_c, 2, 56, 46
4, 22316, Note_on_c, 2, 56, 0
4, 22316, Note_on_c, 2, 49, 0
4, 22320, Note_on_c, 2, 49, 46
4, 22320, Note_on_c, 2, 56, 46
4, 22320, Note_on_c, 2, 61, 46
4, 22356, Note_on_c, 2, 61, 0
4, 22356, Note_on_c, 2, 56, 0
4, 22356, Note_on_c, 2, 49, 0
4, 22359, Note_on_c, 2, 49, 46
4, 22359, Note_on_c, 2, 56, 46
4, 22359, Note_on_c, 2, 61, 46
4, 22395, Note_on_c, 2, 61, 0
4, 22395, Note_on_c, 2, 56, 0
4, 22395, Note_on_c, 2, 49, 0
4, 22399, Note_on_c, 2, 49, 46
4, 22399, Note_on_c, 2, 56, 46
4, 22399, Note_on_c, 2, 61, 46
4, 22436, Note_on_c, 2, 61, 0
4, 22436, Note_on_c, 2, 56, 0
4, 22436, Note_on_c, 2, 49, 0
4, 22440, Note_on_c, 2, 49, 46
4, 22440, Note_on_c, 2, 56, 46
4, 22440, Note_on_c, 2, 61, 46
4, 22476, Note_on_c, 2, 61, 0
4, 22476, Note_on_c, 2, 56, 0
4, 22476, Note_on_c, 2, 49, 0
4, 22479, Note_on_c, 2, 49, 46
4, 22479, Note_on_c, 2, 56, 46
4, 22479, Note_on_c, 2, 61, 46
4, 22515, Note_on_c, 2, 61, 0
4, 22515, Note_on_c, 2, 56, 0
4, 22515, Note_on_c, 2, 49, 0
4, 22519, Note_on_c, 2, 49, 46
4, 22519, Note_on_c, 2, 56, 46
4, 22519, Note_on_c, 2, 61, 46
4, 22556, Note_on_c, 2, 61, 0
4, 22556, Note_on_c, 2, 56, 0
4, 22556, Note_on_c, 2, 49, 0
4, 22560, Note_on_c, 2, 51, 46
4, 22560, Note_on_c, 2, 56, 46
4, 22560, Note_on_c, 2, 60, 46
4, 22596, Note_on_c, 2, 60, 0
4, 22596, Note_on_c, 2, 56, 0
4, 22596, Note_on_c, 2, 51, 0
4, 22599, Note_on_c, 2, 51, 47
4, 22599, Note_on_c, 2, 56, 47
4, 22599, Note_on_c, 2, 60, 47
4, 22635, Note_on_c, 2, 60, 0
4, 22635, Note_on_c, 2, 56, 0
4, 22635, Note_on_c, 2, 51, 0
4, 22639, Note_on_c, 2, 51, 48
4, 22639, Note_on_c, 2, 56, 48
4, 22639, Note_on_c, 2, 60, 48
4, 22676, Note_on_c, 2, 60, 0
4, 22676, Note_on_c, 2, 56, 0
4, 22676, Note_on_c, 2, 51, 0
4, 22680, Note_on_c, 2, 51, 48
4, 22680, Note_on_c, 2, 56, 48
4, 22680, Note_on_c, 2, 60, 48
4, 22716, Note_on_c, 2, 60, 0
4, 22716, Note_on_c, 2, 56, 0
4, 22716, Note_on_c, 2, 51, 0
4, 22719, Note_on_c, 2, 51, 49
4, 22719, Note_on_c, 2, 56, 49
4, 22719, Note_on_c, 2, 60, 49
4, 22755, Note_on_c, 2, 60, 0
4, 22755, Note_on_c, 2, 56, 0
4, 22755, Note_on_c, 2, 51, 0
4, 22759, Note_on_c, 2, 51, 49
4, 22759, Note_on_c, 2, 56, 49
4, 22759, Note_on_c, 2, 60, 49
4, 22796, Note_on_c, 2, 60, 0
4, 22796, Note_on_c, 2, 56, 0
4, 22796, Note_on_c, 2, 51, 0
4, 22800, Note_on_c, 2, 48, 50
4, 22800, Note_on_c, 2, 56, 50
4, 22836, Note_on_c, 2, 56, 0
4, 22836, Note_on_c, 2, 48, 0
4, 22839, Note_on_c, 2, 48, 50
4, 22839, Note_on_c, 2, 56, 50
4, 22875, Note_on_c, 2, 56, 0
4, 22875, Note_on_c, 2, 48, 0
4, 22879, Note_on_c, 2, 48, 51
4, 22879, Note_on_c, 2, 56, 51
4, 22916, Note_on_c, 2, 56, 0
4, 22916, Note_on_c, 2, 48, 0
4, 22920, Note_on_c, 2, 48, 52
4, 22920, Note_on_c, 2, 56, 52
4, 22956, Note_on_c, 2, 56, 0
4, 22956, Note_on_c, 2, 48, 0
4, 22959, Note_on_c, 2, 48, 52
4, 22959, Note_on_c, 2, 56, 52
4, 22995, Note_on_c, 2, 56, 0
4, 22995, Note_on_c, 2, 48, 0
4, 22999, Note_on_c, 2, 48, 52
4, 22999, Note_on_c, 2, 56, 52
4, 23036, Note_on_c, 2, 56, 0
4, 23036, Note_on_c, 2, 48, 0
4, 23040, Note_on_c, 2, 49, 52
4, 23159, Note_on_c, 2, 49, 0
4, 23160, Note_on_c, 2, 44, 52
4, 23279, Note_on_c, 2, 44, 0
4, 23280, Note_on_c, 2, 41, 50
4, 23399, Note_on_c, 2, 41, 0
4, 23400, Note_on_c, 2, 37, 50
4, 23519, Note_on_c, 2, 37, 0
4, 23520, Note_on_c, 2, 30, 51
4, 23520, Note_on_c, 2, 42, 51
4, 23759, Note_on_c, 2, 42, 0
4, 23759, Note_on_c, 2, 30, 0
4, 23760, Note_on_c, 2, 32, 53
4, 23760, Note_on_c, 2, 44, 53
4, 23999, Note_on_c, 2, 44, 0
4, 23999, Note_on_c, 2, 32, 0
4, 24000, Note_on_c, 2, 37, 55
4, 24000, Note_on_c, 2, 49, 55
4, 24119, Note_on_c, 2, 49, 0
4, 24119, Note_on_c, 2, 37, 0
4, 24240, Note_on_c, 2, 53, 57
4, 24280, Note_on_c, 2, 53, 0
4, 24280, Note_on_c, 2, 51, 57
4, 24320, Note_on_c, 2, 51, 0
4, 24320, Note_on_c, 2, 49, 57
4, 24360, Note_on_c, 2, 49, 0
4, 24360, Note_on_c, 2, 48, 56
4, 24400, Note_on_c, 2, 48, 0
4, 24400, Note_on_c, 2, 46, 56
4, 24440, Note_on_c, 2, 46, 0
4, 24440, Note_on_c, 2, 44, 56
4, 24480, Note_on_c, 2, 44, 0
4, 24480, Note_on_c, 2, 43, 94
4, 24516, Note_on_c, 2, 43, 0
4, 24519, Note_on_c, 2, 55, 121
4, 24519, Note_on_c, 2, 58, 120
4, 24519, Note_on_c, 2, 61, 120
4, 24519, Note_on_c, 2, 63, 120
4, 24555, Note_on_c, 2, 63, 0
4, 24555, Note_on_c, 2, 55, 0
4, 24555, Note_on_c, 2, 58, 0
4, 24555, Note_on_c, 2, 61, 0
4, 24559, Note_on_c, 2, 55, 103
4, 24559, Note_on_c, 2, 58, 103
4, 24559, Note_on_c, 2, 61, 103
4, 24559, Note_on_c, 2, 63, 103
4, 24596, Note_on_c, 2, 63, 0
4, 24596, Note_on_c, 2, 55, 0
4, 24596, Note_on_c, 2, 58, 0
4, 24596, Note_on_c, 2, 61, 0
4, 24600, Note_on_c, 2, 55, 103
4, 24600, Note_on_c, 2, 58, 103
4, 24600, Note_on_c, 2, 61, 103
4, 24600, Note_on_c, 2, 63, 103
4, 24636, Note_on_c, 2, 63, 0
4, 24636, Note_on_c, 2, 55, 0
4, 24636, Note_on_c, 2, 58, 0
4, 24636, Note_on_c, 2, 61, 0
4, 24639, Note_on_c, 2, 55, 101
4, 24639, Note_on_c, 2, 58, 101
4, 24639, Note_on_c, 2, 61, 101
4, 24639, Note_on_c, 2, 63, 101
4, 24675, Note_on_c, 2, 63, 0
4, 24675, Note_on_c, 2, 55, 0
4, 24675, Note_on_c, 2, 58, 0
4, 24675, Note_on_c, 2, 61, 0
4, 24679, Note_on_c, 2, 55, 100
4, 24679, Note_on_c, 2, 58, 100
4, 24679, Note_on_c, 2, 61, 100
4, 24679, Note_on_c, 2, 63, 100
4, 24716, Note_on_c, 2, 63, 0
4, 24716, Note_on_c, 2, 55, 0
4, 24716, Note_on_c, 2, 58, 0
4, 24716, Note_on_c, 2, 61, 0
4, 24720, Note_on_c, 2, 55, 99
4, 24720, Note_on_c, 2, 58, 99
4, 24720, Note_on_c, 2, 61, 99
4, 24720, Note_on_c, 2, 63, 99
4, 24756, Note_on_c, 2, 63, 0
4, 24756, Note_on_c, 2, 55, 0
4, 24756, Note_on_c, 2, 58, 0
4, 24756, Note_on_c, 2, 61, 0
4, 24759, Note_on_c, 2, 55, 97
4, 24759, Note_on_c, 2, 58, 97
4, 24759, Note_on_c, 2, 61, 97
4, 24759, Note_on_c, 2, 63, 97
4, 24795, Note_on_c, 2, 63, 0
4, 24795, Note_on_c, 2, 55, 0
4, 24795, Note_on_c, 2, 58, 0
4, 24795, Note_on_c, 2, 61, 0
4, 24799, Note_on_c, 2, 55, 96
4, 24799, Note_on_c, 2, 58, 96
4, 24799, Note_on_c, 2, 61, 96
4, 24799, Note_on_c, 2, 63, 96
4, 24836, Note_on_c, 2, 63, 0
4, 24836, Note_on_c, 2, 55, 0
4, 24836, Note_on_c, 2, 58, 0
4, 24836, Note_on_c, 2, 61, 0
4, 24840, Note_on_c, 2, 55, 94
4, 24840, Note_on_c, 2, 58, 94
4, 24840, Note_on_c, 2, 61, 94
4, 24840, Note_on_c, 2, 63, 94
4, 24876, Note_on_c, 2, 63, 0
4, 24876, Note_on_c, 2, 55, 0
4, 24876, Note_on_c, 2, 58, 0
4, 24876, Note_on_c, 2, 61, 0
4, 24879, Note_on_c, 2, 55, 93
4, 24879, Note_on_c, 2, 58, 93
4, 24879, Note_on_c, 2, 61, 93
4, 24879, Note_on_c, 2, 63, 93
4, 24915, Note_on_c, 2, 63, 0
4, 24915, Note_on_c, 2, 55, 0
4, 24915, Note_on_c, 2, 58, 0
4, 24915, Note_on_c, 2, 61, 0
4, 24919, Note_on_c, 2, 55, 92
4, 24919, Note_on_c, 2, 58, 92
4, 24919, Note_on_c, 2, 61, 92
4, 24919, Note_on_c, 2, 63, 92
4, 24956, Note_on_c, 2, 63, 0
4, 24956, Note_on_c, 2, 55, 0
4, 24956, Note_on_c, 2, 58, 0
4, 24956, Note_on_c, 2, 61, 0
4, 24960, Note_on_c, 2, 56, 90
4, 25079, Note_on_c, 2, 56, 0
4, 25200, Note_on_c, 2, 55, 53
4, 25319, Note_on_c, 2, 55, 0
4, 25440, Note_on_c, 2, 56, 57
4, 25476, Note_on_c, 2, 56, 0
4, 25479, Note_on_c, 2, 60, 57
4, 25515, Note_on_c, 2, 60, 0
4, 25519, Note_on_c, 2, 63, 57
4, 25556, Note_on_c, 2, 63, 0
4, 25560, Note_on_c, 2, 68, 57
4, 25596, Note_on_c, 2, 68, 0
4, 25599, Note_on_c, 2, 63, 57
4, 25635, Note_on_c, 2, 63, 0
4, 25639, Note_on_c, 2, 60, 57
4, 25676, Note_on_c, 2, 60, 0
4, 25680, Note_on_c, 2, 55, 57
4, 25716, Note_on_c, 2, 55, 0
4, 25719, Note_on_c, 2, 58, 57
4, 25755, Note_on_c, 2, 58, 0
4, 25759, Note_on_c, 2, 61, 56
4, 25796, Note_on_c, 2, 61, 0
4, 25800, Note_on_c, 2, 63, 56
4, 25836, Note_on_c, 2, 63, 0
4, 25839, Note_on_c, 2, 61, 56
4, 25875, Note_on_c, 2, 61, 0
4, 25879, Note_on_c, 2, 58, 56
4, 25916, Note_on_c, 2, 58, 0
4, 25920, Note_on_c, 2, 56, 56
4, 25956, Note_on_c, 2, 56, 0
4, 25959, Note_on_c, 2, 60, 56
4, 25995, Note_on_c, 2, 60, 0
4, 25999, Note_on_c, 2, 63, 56
4, 26036, Note_on_c, 2, 63, 0
4, 26040, Note_on_c, 2, 68, 57
4, 26076, Note_on_c, 2, 68, 0
4, 26079, Note_on_c, 2, 63, 56
4, 26115, Note_on_c, 2, 63, 0
4, 26119, Note_on_c, 2, 60, 57
4, 26156, Note_on_c, 2, 60, 0
4, 26160, Note_on_c, 2, 66, 59
4, 26196, Note_on_c, 2, 66, 0
4, 26199, Note_on_c, 2, 65, 60
4, 26235, Note_on_c, 2, 65, 0
4, 26239, Note_on_c, 2, 63, 61
4, 26276, Note_on_c, 2, 63, 0
4, 26280, Note_on_c, 2, 61, 62
4, 26316, Note_on_c, 2, 61, 0
4, 26319, Note_on_c, 2, 60, 62
4, 26355, Note_on_c, 2, 60, 0
4, 26359, Note_on_c, 2, 58, 62
4, 26396, Note_on_c, 2, 58, 0
4, 26400, Note_on_c, 2, 57, 62
4, 26436, Note_on_c, 2, 57, 0
4, 26439, Note_on_c, 2, 57, 63
4, 26439, Note_on_c, 2, 60, 63
4, 26439, Note_on_c, 2, 63, 63
4, 26439, Note_on_c, 2, 65, 63
4, 26475, Note_on_c, 2, 65, 0
4, 26475, Note_on_c, 2, 57, 0
4, 26475, Note_on_c, 2, 60, 0
4, 26475, Note_on_c, 2, 63, 0
4, 26479, Note_on_c, 2, 57, 64
4, 26479, Note_on_c, 2, 60, 64
4, 26479, Note_on_c, 2, 63, 64
4, 26479, Note_on_c, 2, 65, 64
4, 26516, Note_on_c, 2, 65, 0
4, 26516, Note_on_c, 2, 57, 0
4, 26516, Note_on_c, 2, 60, 0
4, 26516, Note_on_c, 2, 63, 0
4, 26520, Note_on_c, 2, 57, 64
4, 26520, Note_on_c, 2, 60, 64
4, 26520, Note_on_c, 2, 63, 64
4, 26520, Note_on_c, 2, 65, 64
4, 26556, Note_on_c, 2, 65, 0
4, 26556, Note_on_c, 2, 57, 0
4, 26556, Note_on_c, 2, 60, 0
4, 26556, Note_on_c, 2, 63, 0
4, 26559, Note_on_c, 2, 57, 65
4, 26559, Note_on_c, 2, 60, 65
4, 26559, Note_on_c, 2, 63, 65
4, 26559, Note_on_c, 2, 65, 65
4, 26595, Note_on_c, 2, 65, 0
4, 26595, Note_on_c, 2, 57, 0
4, 26595, Note_on_c, 2, 60, 0
4, 26595, Note_on_c, 2, 63, 0
4, 26599, Note_on_c, 2, 57, 65
4, 26599, Note_on_c, 2, 60, 65
4, 26599, Note_on_c, 2, 63, 65
4, 26599, Note_on_c, 2, 65, 65
4, 26636, Note_on_c, 2, 65, 0
4, 26636, Note_on_c, 2, 57, 0
4, 26636, Note_on_c, 2, 60, 0
4, 26636, Note_on_c, 2, 63, 0
4, 26640, Note_on_c, 2, 57, 65
4, 26640, Note_on_c, 2, 60, 65
4, 26640, Note_on_c, 2, 63, 65
4, 26640, Note_on_c, 2, 65, 65
4, 26676, Note_on_c, 2, 65, 0
4, 26676, Note_on_c, 2, 57, 0
4, 26676, Note_on_c, 2, 60, 0
4, 26676, Note_on_c, 2, 63, 0
4, 26679, Note_on_c, 2, 57, 65
4, 26679, Note_on_c, 2, 60, 65
4, 26679, Note_on_c, 2, 63, 65
4, 26679, Note_on_c, 2, 65, 65
4, 26715, Note_on_c, 2, 65, 0
4, 26715, Note_on_c, 2, 57, 0
4, 26715, Note_on_c, 2, 60, 0
4, 26715, Note_on_c, 2, 63, 0
4, 26719, Note_on_c, 2, 57, 65
4, 26719, Note_on_c, 2, 60, 65
4, 26719, Note_on_c, 2, 63, 65
4, 26719, Note_on_c, 2, 65, 65
4, 26756, Note_on_c, 2, 65, 0
4, 26756, Note_on_c, 2, 57, 0
4, 26756, Note_on_c, 2, 60, 0
4, 26756, Note_on_c, 2, 63, 0
4, 26760, Note_on_c, 2, 57, 65
4, 26760, Note_on_c, 2, 60, 65
4, 26760, Note_on_c, 2, 63, 65
4, 26760, Note_on_c, 2, 65, 65
4, 26796, Note_on_c, 2, 65, 0
4, 26796, Note_on_c, 2, 57, 0
4, 26796, Note_on_c, 2, 60, 0
4, 26796, Note_on_c, 2, 63, 0
4, 26799, Note_on_c, 2, 57, 65
4, 26799, Note_on_c, 2, 60, 65
4, 26799, Note_on_c, 2, 63, 65
4, 26799, Note_on_c, 2, 65, 65
4, 26835, Note_on_c, 2, 65, 0
4, 26835, Note_on_c, 2, 57, 0
4, 26835, Note_on_c, 2, 60, 0
4, 26835, Note_on_c, 2, 63, 0
4, 26839, Note_on_c, 2, 57, 66
4, 26839, Note_on_c, 2, 60, 66
4, 26839, Note_on_c, 2, 63, 66
4, 26839, Note_on_c, 2, 65, 66
4, 26876, Note_on_c, 2, 65, 0
4, 26876, Note_on_c, 2, 57, 0
4, 26876, Note_on_c, 2, 60, 0
4, 26876, Note_on_c, 2, 63, 0
4, 26880, Note_on_c, 2, 58, 66
4, 26999, Note_on_c, 2, 58, 0
4, 27120, Note_on_c, 2, 57, 67
4, 27239, Note_on_c, 2, 57, 0
4, 27360, Note_on_c, 2, 58, 68
4, 27360, Note_on_c, 2, 61, 68
4, 27396, Note_on_c, 2, 61, 0
4, 27396, Note_on_c, 2, 58, 0
4, 27399, Note_on_c, 2, 58, 68
4, 27399, Note_on_c, 2, 61, 68
4, 27435, Note_on_c, 2, 61, 0
4, 27435, Note_on_c, 2, 58, 0
4, 27439, Note_on_c, 2, 58, 68
4, 27439, Note_on_c, 2, 61, 68
4, 27476, Note_on_c, 2, 61, 0
4, 27476, Note_on_c, 2, 58, 0
4, 27480, Note_on_c, 2, 58, 68
4, 27480, Note_on_c, 2, 61, 68
4, 27516, Note_on_c, 2, 61, 0
4, 27516, Note_on_c, 2, 58, 0
4, 27519, Note_on_c, 2, 58, 69
4, 27519, Note_on_c, 2, 61, 69
4, 27555, Note_on_c, 2, 61, 0
4, 27555, Note_on_c, 2, 58, 0
4, 27559, Note_on_c, 2, 58, 69
4, 27559, Note_on_c, 2, 61, 69
4, 27596, Note_on_c, 2, 61, 0
4, 27596, Note_on_c, 2, 58, 0
4, 27600, Note_on_c, 2, 56, 69
4, 27600, Note_on_c, 2, 59, 69
4, 27600, Note_on_c, 2, 61, 69
4, 27636, Note_on_c, 2, 61, 0
4, 27636, Note_on_c, 2, 59, 0
4, 27636, Note_on_c, 2, 56, 0
4, 27639, Note_on_c, 2, 56, 69
4, 27639, Note_on_c, 2, 59, 69
4, 27639, Note_on_c, 2, 61, 69
4, 27675, Note_on_c, 2, 61, 0
4, 27675, Note_on_c, 2, 59, 0
4, 27675, Note_on_c, 2, 56, 0
4, 27679, Note_on_c, 2, 56, 69
4, 27679, Note_on_c, 2, 59, 69
4, 27679, Note_on_c, 2, 61, 69
4, 27716, Note_on_c, 2, 61, 0
4, 27716, Note_on_c, 2, 59, 0
4, 27716, Note_on_c, 2, 56, 0
4, 27720, Note_on_c, 2, 56, 69
4, 27720, Note_on_c, 2, 59, 69
4, 27720, Note_on_c, 2, 61, 69
4, 27756, Note_on_c, 2, 61, 0
4, 27756, Note_on_c, 2, 59, 0
4, 27756, Note_on_c, 2, 56, 0
4, 27759, Note_on_c, 2, 56, 68
4, 27759, Note_on_c, 2, 59, 68
4, 27759, Note_on_c, 2, 61, 68
4, 27795, Note_on_c, 2, 61, 0
4, 27795, Note_on_c, 2, 59, 0
4, 27795, Note_on_c, 2, 56, 0
4, 27799, Note_on_c, 2, 56, 68
4, 27799, Note_on_c, 2, 59, 68
4, 27799, Note_on_c, 2, 61, 68
4, 27836, Note_on_c, 2, 61, 0
4, 27836, Note_on_c, 2, 59, 0
4, 27836, Note_on_c, 2, 56, 0
4, 27840, Note_on_c, 2, 54, 68
4, 27840, Note_on_c, 2, 58, 68
4, 27840, Note_on_c, 2, 61, 68
4, 27959, Note_on_c, 2, 61, 0
4, 27959, Note_on_c, 2, 58, 0
4, 27959, Note_on_c, 2, 54, 0
4, 28080, Note_on_c, 2, 47, 66
4, 28199, Note_on_c, 2, 47, 0
4, 28320, Note_on_c, 2, 49, 66
4, 28439, Note_on_c, 2, 49, 0
4, 28560, Note_on_c, 2, 37, 67
4, 28679, Note_on_c, 2, 37, 0
4, 28800, Note_on_c, 2, 42, 66
4, 28800, Note_on_c, 2, 49, 66
4, 28836, Note_on_c, 2, 49, 0
4, 28836, Note_on_c, 2, 42, 0
4, 28839, Note_on_c, 2, 42, 66
4, 28839, Note_on_c, 2, 49, 66
4, 28875, Note_on_c, 2, 49, 0
4, 28875, Note_on_c, 2, 42, 0
4, 28879, Note_on_c, 2, 42, 66
4, 28879, Note_on_c, 2, 49, 66
4, 28916, Note_on_c, 2, 49, 0
4, 28916, Note_on_c, 2, 42, 0
4, 28920, Note_on_c, 2, 42, 66
4, 28920, Note_on_c, 2, 49, 66
4, 28956, Note_on_c, 2, 49, 0
4, 28956, Note_on_c, 2, 42, 0
4, 28959, Note_on_c, 2, 42, 65
4, 28959, Note_on_c, 2, 49, 65
4, 28995, Note_on_c, 2, 49, 0
4, 28995, Note_on_c, 2, 42, 0
4, 28999, Note_on_c, 2, 42, 65
4, 28999, Note_on_c, 2, 49, 65
4, 29036, Note_on_c, 2, 49, 0
4, 29036, Note_on_c, 2, 42, 0
4, 29040, Note_on_c, 2, 42, 64
4, 29040, Note_on_c, 2, 49, 64
4, 29076, Note_on_c, 2, 49, 0
4, 29076, Note_on_c, 2, 42, 0
4, 29079, Note_on_c, 2, 42, 63
4, 29079, Note_on_c, 2, 49, 63
4, 29115, Note_on_c, 2, 49, 0
4, 29115, Note_on_c, 2, 42, 0
4, 29119, Note_on_c, 2, 42, 63
4, 29119, Note_on_c, 2, 49, 63
4, 29156, Note_on_c, 2, 49, 0
4, 29156, Note_on_c, 2, 42, 0
4, 29160, Note_on_c, 2, 42, 63
4, 29160, Note_on_c, 2, 49, 63
4, 29196, Note_on_c, 2, 49, 0
4, 29196, Note_on_c, 2, 42, 0
4, 29199, Note_on_c, 2, 42, 62
4, 29199, Note_on_c, 2, 49, 62
4, 29235, Note_on_c, 2, 49, 0
4, 29235, Note_on_c, 2, 42, 0
4, 29239, Note_on_c, 2, 42, 61
4, 29239, Note_on_c, 2, 49, 61
4, 29276, Note_on_c, 2, 49, 0
4, 29276, Note_on_c, 2, 42, 0
4, 29280, Note_on_c, 2, 41, 61
4, 29280, Note_on_c, 2, 49, 61
4, 29316, Note_on_c, 2, 49, 0
4, 29316, Note_on_c, 2, 41, 0
4, 29319, Note_on_c, 2, 41, 60
4, 29319, Note_on_c, 2, 49, 60
4, 29355, Note_on_c, 2, 49, 0
4, 29355, Note_on_c, 2, 41, 0
4, 29359, Note_on_c, 2, 41, 59
4, 29359, Note_on_c, 2, 49, 59
4, 29396, Note_on_c, 2, 49, 0
4, 29396, Note_on_c, 2, 41, 0
4, 29400, Note_on_c, 2, 41, 58
4, 29400, Note_on_c, 2, 49, 58
4, 29436, Note_on_c, 2, 49, 0
4, 29436, Note_on_c, 2, 41, 0
4, 29439, Note_on_c, 2, 41, 58
4, 29439, Note_on_c, 2, 49, 58
4, 29475, Note_on_c, 2, 49, 0
4, 29475, Note_on_c, 2, 41, 0
4, 29479, Note_on_c, 2, 41, 57
4, 29479, Note_on_c, 2, 49, 57
4, 29516, Note_on_c, 2, 49, 0
4, 29516, Note_on_c, 2, 41, 0
4, 29520, Note_on_c, 2, 41, 56
4, 29520, Note_on_c, 2, 49, 56
4, 29556, Note_on_c, 2, 49, 0
4, 29556, Note_on_c, 2, 41, 0
4, 29559, Note_on_c, 2, 41, 55
4, 29559, Note_on_c, 2, 49, 55
4, 29595, Note_on_c, 2, 49, 0
4, 29595, Note_on_c, 2, 41, 0
4, 29599, Note_on_c, 2, 41, 55
4, 29599, Note_on_c, 2, 49, 55
4, 29636, Note_on_c, 2, 49, 0
4, 29636, Note_on_c, 2, 41, 0
4, 29640, Note_on_c, 2, 41, 56
4, 29640, Note_on_c, 2, 49, 56
4, 29676, Note_on_c, 2, 49, 0
4, 29676, Note_on_c, 2, 41, 0
4, 29679, Note_on_c, 2, 41, 56
4, 29679, Note_on_c, 2, 49, 56
4, 29715, Note_on_c, 2, 49, 0
4, 29715, Note_on_c, 2, 41, 0
4, 29719, Note_on_c, 2, 41, 56
4, 29719, Note_on_c, 2, 49, 56
4, 29756, Note_on_c, 2, 49, 0
4, 29756, Note_on_c, 2, 41, 0
4, 29760, Note_on_c, 2, 42, 56
4, 29760, Note_on_c, 2, 49, 56
4, 29796, Note_on_c, 2, 49, 0
4, 29796, Note_on_c, 2, 42, 0
4, 29799, Note_on_c, 2, 42, 56
4, 29799, Note_on_c, 2, 49, 56
4, 29835, Note_on_c, 2, 49, 0
4, 29835, Note_on_c, 2, 42, 0
4, 29839, Note_on_c, 2, 42, 56
4, 29839, Note_on_c, 2, 49, 56
4, 29876, Note_on_c, 2, 49, 0
4, 29876, Note_on_c, 2, 42, 0
4, 29880, Note_on_c, 2, 42, 56
4, 29880, Note_on_c, 2, 49, 56
4, 29916, Note_on_c, 2, 49, 0
4, 29916, Note_on_c, 2, 42, 0
4, 29919, Note_on_c, 2, 42, 56
4, 29919, Note_on_c, 2, 49, 56
4, 29955, Note_on_c, 2, 49, 0
4, 29955, Note_on_c, 2, 42, 0
4, 29959, Note_on_c, 2, 42, 56
4, 29959, Note_on_c, 2, 49, 56
4, 29996, Note_on_c, 2, 49, 0
4, 29996, Note_on_c, 2, 42, 0
4, 30000, Note_on_c, 2, 42, 56
4, 30000, Note_on_c, 2, 49, 56
4, 30036, Note_on_c, 2, 49, 0
4, 30036, Note_on_c, 2, 42, 0
4, 30039, Note_on_c, 2, 42, 56
4, 30039, Note_on_c, 2, 49, 56
4, 30075, Note_on_c, 2, 49, 0
4, 30075, Note_on_c, 2, 42, 0
4, 30079, Note_on_c, 2, 42, 56
4, 30079, Note_on_c, 2, 49, 56
4, 30116, Note_on_c, 2, 49, 0
4, 30116, Note_on_c, 2, 42, 0
4, 30120, Note_on_c, 2, 42, 57
4, 30120, Note_on_c, 2, 49, 57
4, 30156, Note_on_c, 2, 49, 0
4, 30156, Note_on_c, 2, 42, 0
4, 30159, Note_on_c, 2, 42, 57
4, 30159, Note_on_c, 2, 49, 57
4, 30195, Note_on_c, 2, 49, 0
4, 30195, Note_on_c, 2, 42, 0
4, 30199, Note_on_c, 2, 42, 57
4, 30199, Note_on_c, 2, 49, 57
4, 30236, Note_on_c, 2, 49, 0
4, 30236, Note_on_c, 2, 42, 0
4, 30240, Note_on_c, 2, 41, 57
4, 30240, Note_on_c, 2, 49, 57
4, 30276, Note_on_c, 2, 49, 0
4, 30276, Note_on_c, 2, 41, 0
4, 30279, Note_on_c, 2, 41, 57
4, 30279, Note_on_c, 2, 49, 57
4, 30315, Note_on_c, 2, 49, 0
4, 30315, Note_on_c, 2, 41, 0
4, 30319, Note_on_c, 2, 41, 56
4, 30319, Note_on_c, 2, 49, 56
4, 30356, Note_on_c, 2, 49, 0
4, 30356, Note_on_c, 2, 41, 0
4, 30360, Note_on_c, 2, 41, 56
4, 30360, Note_on_c, 2, 49, 56
4, 30396, Note_on_c, 2, 49, 0
4, 30396, Note_on_c, 2, 41, 0
4, 30399, Note_on_c, 2, 41, 56
4, 30399, Note_on_c, 2, 49, 56
4, 30435, Note_on_c, 2, 49, 0
4, 30435, Note_on_c, 2, 41, 0
4, 30439, Note_on_c, 2, 41, 56
4, 30439, Note_on_c, 2, 49, 56
4, 30476, Note_on_c, 2, 49, 0
4, 30476, Note_on_c, 2, 41, 0
4, 30480, Note_on_c, 2, 41, 56
4, 30480, Note_on_c, 2, 49, 56
4, 30516, Note_on_c, 2, 49, 0
4, 30516, Note_on_c, 2, 41, 0
4, 30519, Note_on_c, 2, 41, 56
4, 30519, Note_on_c, 2, 49, 56
4, 30555, Note_on_c, 2, 49, 0
4, 30555, Note_on_c, 2, 41, 0
4, 30559, Note_on_c, 2, 41, 55
4, 30559, Note_on_c, 2, 49, 55
4, 30596, Note_on_c, 2, 49, 0
4, 30596, Note_on_c, 2, 41, 0
4, 30600, Note_on_c, 2, 41, 55
4, 30600, Note_on_c, 2, 49, 55
4, 30636, Note_on_c, 2, 49, 0
4, 30636, Note_on_c, 2, 41, 0
4, 30639, Note_on_c, 2, 41, 54
4, 30639, Note_on_c, 2, 49, 54
4, 30675, Note_on_c, 2, 49, 0
4, 30675, Note_on_c, 2, 41, 0
4, 30679, Note_on_c, 2, 41, 54
4, 30679, Note_on_c, 2, 49, 54
4, 30716, Note_on_c, 2, 49, 0
4, 30716, Note_on_c, 2, 41, 0
4, 30720, Note_on_c, 2, 42, 54
4, 30720, Note_on_c, 2, 49, 54
4, 30839, Note_on_c, 2, 49, 0
4, 30839, Note_on_c, 2, 42, 0
4, 30960, Note_on_c, 2, 42, 98
4, 30960, Note_on_c, 2, 54, 98
4, 31199, Note_on_c, 2, 54, 0
4, 31199, Note_on_c, 2, 42, 0
4, 31200, Note_on_c, 2, 41, 62
4, 31200, Note_on_c, 2, 53, 62
4, 31259, Note_on_c, 2, 53, 0
4, 31259, Note_on_c, 2, 41, 0
4, 31320, Note_on_c, 2, 33, 63
4, 31320, Note_on_c, 2, 45, 63
4, 31379, Note_on_c, 2, 45, 0
4, 31379, Note_on_c, 2, 33, 0
4, 31440, Note_on_c, 2, 34, 63
4, 31440, Note_on_c, 2, 46, 63
4, 31499, Note_on_c, 2, 46, 0
4, 31499, Note_on_c, 2, 34, 0
4, 31560, Note_on_c, 2, 37, 62
4, 31560, Note_on_c, 2, 49, 62
4, 31619, Note_on_c, 2, 49, 0
4, 31619, Note_on_c, 2, 37, 0
4, 31680, Note_on_c, 2, 41, 62
4, 31680, Note_on_c, 2, 53, 62
4, 31739, Note_on_c, 2, 53, 0
4, 31739, Note_on_c, 2, 41, 0
4, 31800, Note_on_c, 2, 33, 62
4, 31800, Note_on_c, 2, 45, 62
4, 31859, Note_on_c, 2, 45, 0
4, 31859, Note_on_c, 2, 33, 0
4, 31920, Note_on_c, 2, 34, 64
4, 31920, Note_on_c, 2, 46, 64
4, 31979, Note_on_c, 2, 46, 0
4, 31979, Note_on_c, 2, 34, 0
4, 32040, Note_on_c, 2, 37, 65
4, 32040, Note_on_c, 2, 49, 65
4, 32099, Note_on_c, 2, 49, 0
4, 32099, Note_on_c, 2, 37, 0
4, 32160, Note_on_c, 2, 53, 65
4, 32199, Note_on_c, 2, 65, 65
4, 32200, Note_on_c, 2, 53, 0
4, 32239, Note_on_c, 2, 65, 0
4, 32239, Note_on_c, 2, 65, 65
4, 32276, Note_on_c, 2, 65, 0
4, 32280, Note_on_c, 2, 63, 66
4, 32319, Note_on_c, 2, 65, 66
4, 32320, Note_on_c, 2, 63, 0
4, 32359, Note_on_c, 2, 65, 0
4, 32359, Note_on_c, 2, 65, 66
4, 32396, Note_on_c, 2, 65, 0
4, 32400, Note_on_c, 2, 66, 66
4, 32436, Note_on_c, 2, 66, 0
4, 32439, Note_on_c, 2, 65, 66
4, 32475, Note_on_c, 2, 65, 0
4, 32479, Note_on_c, 2, 65, 66
4, 32516, Note_on_c, 2, 65, 0
4, 32520, Note_on_c, 2, 63, 66
4, 32559, Note_on_c, 2, 65, 66
4, 32560, Note_on_c, 2, 63, 0
4, 32599, Note_on_c, 2, 65, 0
4, 32599, Note_on_c, 2, 65, 66
4, 32636, Note_on_c, 2, 65, 0
4, 32640, Note_on_c, 2, 66, 66
4, 32878, Note_on_c, 2, 66, 0
4, 32880, Note_on_c, 2, 67, 66
4, 33118, Note_on_c, 2, 67, 0
4, 33120, Note_on_c, 2, 53, 65
4, 33159, Note_on_c, 2, 65, 65
4, 33160, Note_on_c, 2, 53, 0
4, 33199, Note_on_c, 2, 65, 0
4, 33199, Note_on_c, 2, 65, 65
4, 33236, Note_on_c, 2, 65, 0
4, 33240, Note_on_c, 2, 63, 65
4, 33279, Note_on_c, 2, 65, 65
4, 33280, Note_on_c, 2, 63, 0
4, 33319, Note_on_c, 2, 65, 0
4, 33319, Note_on_c, 2, 65, 64
4, 33356, Note_on_c, 2, 65, 0
4, 33360, Note_on_c, 2, 66, 64
4, 33396, Note_on_c, 2, 66, 0
4, 33399, Note_on_c, 2, 65, 64
4, 33435, Note_on_c, 2, 65, 0
4, 33439, Note_on_c, 2, 65, 64
4, 33476, Note_on_c, 2, 65, 0
4, 33480, Note_on_c, 2, 63, 63
4, 33519, Note_on_c, 2, 65, 63
4, 33520, Note_on_c, 2, 63, 0
4, 33559, Note_on_c, 2, 65, 0
4, 33559, Note_on_c, 2, 65, 63
4, 33596, Note_on_c, 2, 65, 0
4, 33600, Note_on_c, 2, 66, 63
4, 33838, Note_on_c, 2, 66, 0
4, 33840, Note_on_c, 2, 67, 62
4, 34078, Note_on_c, 2, 67, 0
4, 34080, Note_on_c, 2, 57, 87
4, 34080, Note_on_c, 2, 60, 87
4, 34080, Note_on_c, 2, 63, 88
4, 34199, Note_on_c, 2, 63, 0
4, 34199, Note_on_c, 2, 60, 0
4, 34199, Note_on_c, 2, 57, 0
4, 34200, Note_on_c, 2, 33, 69
4, 34200, Note_on_c, 2, 45, 69
4, 34439, Note_on_c, 2, 45, 0
4, 34439, Note_on_c, 2, 33, 0
4, 34560, Note_on_c, 2, 58, 55
4, 34560, Note_on_c, 2, 62, 55
4, 34679, Note_on_c, 2, 62, 0
4, 34679, Note_on_c, 2, 58, 0
4, 34680, Note_on_c, 2, 58, 57
4, 34680, Note_on_c, 2, 62, 57
4, 34799, Note_on_c, 2, 62, 0
4, 34799, Note_on_c, 2, 58, 0
4, 34800, Note_on_c, 2, 58, 57
4, 34800, Note_on_c, 2, 62, 57
4, 34919, Note_on_c, 2, 62, 0
4, 34919, Note_on_c, 2, 58, 0
4, 34920, Note_on_c, 2, 58, 58
4, 34920, Note_on_c, 2, 62, 58
4, 35039, Note_on_c, 2, 62, 0
4, 35039, Note_on_c, 2, 58, 0
4, 35040, Note_on_c, 2, 57, 58
4, 35040, Note_on_c, 2, 60, 58
4, 35279, Note_on_c, 2, 60, 0
4, 35279, Note_on_c, 2, 57, 0
4, 35280, Note_on_c, 2, 60, 59
4, 35280, Note_on_c, 2, 63, 59
4, 35399, Note_on_c, 2, 63, 0
4, 35399, Note_on_c, 2, 60, 0
4, 35520, Note_on_c, 2, 50, 60
4, 35520, Note_on_c, 2, 62, 60
4, 35639, Note_on_c, 2, 62, 0
4, 35639, Note_on_c, 2, 50, 0
4, 35760, Note_on_c, 2, 46, 61
4, 35760, Note_on_c, 2, 58, 61
4, 35879, Note_on_c, 2, 58, 0
4, 35879, Note_on_c, 2, 46, 0
4, 36000, Note_on_c, 2, 41, 62
4, 36000, Note_on_c, 2, 53, 62
4, 36119, Note_on_c, 2, 53, 0
4, 36119, Note_on_c, 2, 41, 0
4, 36480, Note_on_c, 2, 46, 65
4, 36480, Note_on_c, 2, 58, 65
4, 36599, Note_on_c, 2, 58, 0
4, 36599, Note_on_c, 2, 46, 0
4, 36720, Note_on_c, 2, 48, 66
4, 36720, Note_on_c, 2, 60, 66
4, 36839, Note_on_c, 2, 60, 0
4, 36839, Note_on_c, 2, 48, 0
4, 36960, Note_on_c, 2, 50, 67
4, 36960, Note_on_c, 2, 62, 67
4, 37079, Note_on_c, 2, 62, 0
4, 37079, Note_on_c, 2, 50, 0
4, 37440, Note_on_c, 2, 63, 65
4, 37559, Note_on_c, 2, 63, 0
4, 37680, Note_on_c, 2, 64, 67
4, 37799, Note_on_c, 2, 64, 0
4, 37920, Note_on_c, 2, 65, 67
4, 38039, Note_on_c, 2, 65, 0
4, 38400, Note_on_c, 2, 46, 89
4, 38400, Note_on_c, 2, 53, 89
4, 38400, Note_on_c, 2, 58, 91
4, 38519, Note_on_c, 2, 58, 0
4, 38519, Note_on_c, 2, 53, 0
4, 38519, Note_on_c, 2, 46, 0
4, 38520, Note_on_c, 2, 46, 95
4, 38520, Note_on_c, 2, 53, 94
4, 38520, Note_on_c, 2, 58, 94
4, 38639, Note_on_c, 2, 58, 0
4, 38639, Note_on_c, 2, 53, 0
4, 38639, Note_on_c, 2, 46, 0
4, 38640, Note_on_c, 2, 46, 97
4, 38640, Note_on_c, 2, 53, 96
4, 38640, Note_on_c, 2, 58, 95
4, 38759, Note_on_c, 2, 58, 0
4, 38759, Note_on_c, 2, 53, 0
4, 38759, Note_on_c, 2, 46, 0
4, 38760, Note_on_c, 2, 46, 96
4, 38760, Note_on_c, 2, 53, 95
4, 38760, Note_on_c, 2, 58, 97
4, 38879, Note_on_c, 2, 58, 0
4, 38879, Note_on_c, 2, 53, 0
4, 38879, Note_on_c, 2, 46, 0
4, 38880, Note_on_c, 2, 45, 96
4, 38880, Note_on_c, 2, 53, 93
4, 38880, Note_on_c, 2, 57, 94
4, 39237, Note_on_c, 2, 57, 0
4, 39237, Note_on_c, 2, 53, 0
4, 39237, Note_on_c, 2, 45, 0
4, 39480, Note_on_c, 2, 62, 55
4, 39598, Note_on_c, 2, 62, 0
4, 39600, Note_on_c, 2, 60, 55
4, 39718, Note_on_c, 2, 60, 0
4, 39720, Note_on_c, 2, 58, 54
4, 39838, Note_on_c, 2, 58, 0
4, 39840, Note_on_c, 2, 53, 53
4, 39958, Note_on_c, 2, 53, 0
4, 39960, Note_on_c, 2, 65, 52
4, 40078, Note_on_c, 2, 65, 0
4, 40080, Note_on_c, 2, 65, 51
4, 40199, Note_on_c, 2, 65, 0
4, 40200, Note_on_c, 2, 65, 50
4, 40319, Note_on_c, 2, 65, 0
4, 40320, Note_on_c, 2, 46, 50
4, 40320, Note_on_c, 2, 58, 50
4, 40439, Note_on_c, 2, 58, 0
4, 40439, Note_on_c, 2, 46, 0
4, 40560, Note_on_c, 2, 48, 51
4, 40560, Note_on_c, 2, 60, 51
4, 40679, Note_on_c, 2, 60, 0
4, 40679, Note_on_c, 2, 48, 0
4, 40800, Note_on_c, 2, 50, 53
4, 40800, Note_on_c, 2, 62, 53
4, 40919, Note_on_c, 2, 62, 0
4, 40919, Note_on_c, 2, 50, 0
4, 41280, Note_on_c, 2, 51, 56
4, 41399, Note_on_c, 2, 51, 0
4, 41520, Note_on_c, 2, 53, 54
4, 41639, Note_on_c, 2, 53, 0
4, 41760, Note_on_c, 2, 46, 54
4, 41879, Note_on_c, 2, 46, 0
4, 42240, Note_on_c, 2, 34, 51
4, 42240, Note_on_c, 2, 46, 51
4, 42718, Note_on_c, 2, 46, 0
4, 42718, Note_on_c, 2, 34, 0
4, 42720, Note_on_c, 2, 33, 47
4, 42720, Note_on_c, 2, 45, 49
4, 43198, Note_on_c, 2, 45, 0
4, 43198, Note_on_c, 2, 33, 0
4, 43200, Note_on_c, 2, 29, 47
4, 43200, Note_on_c, 2, 41, 47
4, 43678, Note_on_c, 2, 41, 0
4, 43678, Note_on_c, 2, 29, 0
4, 43680, Note_on_c, 2, 34, 56
4, 43680, Note_on_c, 2, 46, 54
4, 44158, Note_on_c, 2, 46, 0
4, 44158, Note_on_c, 2, 34, 0
4, 44160, Note_on_c, 2, 34, 51
4, 44160, Note_on_c, 2, 46, 51
4, 44638, Note_on_c, 2, 46, 0
4, 44638, Note_on_c, 2, 34, 0
4, 44640, Note_on_c, 2, 33, 46
4, 44640, Note_on_c, 2, 45, 49
4, 45118, Note_on_c, 2, 45, 0
4, 45118, Note_on_c, 2, 33, 0
4, 45120, Note_on_c, 2, 29, 44
4, 45120, Note_on_c, 2, 41, 46
4, 45598, Note_on_c, 2, 41, 0
4, 45598, Note_on_c, 2, 29, 0
4, 45600, Note_on_c, 2, 34, 58
4, 45600, Note_on_c, 2, 46, 57
4, 45719, Note_on_c, 2, 46, 0
4, 45719, Note_on_c, 2, 34, 0
4, 46200, Note_on_c, 2, 50, 52
4, 46200, Note_on_c, 2, 53, 53
4, 46200, Note_on_c, 2, 58, 52
4, 46319, Note_on_c, 2, 58, 0
4, 46319, Note_on_c, 2, 53, 0
4, 46319, Note_on_c, 2, 50, 0
4, 46320, Note_on_c, 2, 50, 59
4, 46320, Note_on_c, 2, 53, 60
4, 46320, Note_on_c, 2, 58, 60
4, 46439, Note_on_c, 2, 58, 0
4, 46439, Note_on_c, 2, 53, 0
4, 46439, Note_on_c, 2, 50, 0
4, 46440, Note_on_c, 2, 50, 62
4, 46440, Note_on_c, 2, 53, 59
4, 46440, Note_on_c, 2, 58, 59
4, 46559, Note_on_c, 2, 58, 0
4, 46559, Note_on_c, 2, 53, 0
4, 46559, Note_on_c, 2, 50, 0
4, 46680, Note_on_c, 2, 51, 54
4, 46680, Note_on_c, 2, 55, 53
4, 46680, Note_on_c, 2, 58, 55
4, 46799, Note_on_c, 2, 58, 0
4, 46799, Note_on_c, 2, 55, 0
4, 46799, Note_on_c, 2, 51, 0
4, 46800, Note_on_c, 2, 51, 58
4, 46800, Note_on_c, 2, 55, 57
4, 46800, Note_on_c, 2, 58, 59
4, 46919, Note_on_c, 2, 58, 0
4, 46919, Note_on_c, 2, 55, 0
4, 46919, Note_on_c, 2, 51, 0
4, 46920, Note_on_c, 2, 51, 60
4, 46920, Note_on_c, 2, 55, 61
4, 46920, Note_on_c, 2, 58, 58
4, 47039, Note_on_c, 2, 58, 0
4, 47039, Note_on_c, 2, 55, 0
4, 47039, Note_on_c, 2, 51, 0
4, 47160, Note_on_c, 2, 51, 54
4, 47160, Note_on_c, 2, 55, 52
4, 47160, Note_on_c, 2, 60, 51
4, 47279, Note_on_c, 2, 60, 0
4, 47279, Note_on_c, 2, 55, 0
4, 47279, Note_on_c, 2, 51, 0
4, 47280, Note_on_c, 2, 51, 58
4, 47280, Note_on_c, 2, 55, 57
4, 47280, Note_on_c, 2, 60, 59
4, 47399, Note_on_c, 2, 60, 0
4, 47399, Note_on_c, 2, 55, 0
4, 47399, Note_on_c, 2, 51, 0
4, 47400, Note_on_c, 2, 51, 62
4, 47400, Note_on_c, 2, 55, 61
4, 47400, Note_on_c, 2, 60, 62
4, 47519, Note_on_c, 2, 60, 0
4, 47519, Note_on_c, 2, 55, 0
4, 47519, Note_on_c, 2, 51, 0
4, 47640, Note_on_c, 2, 53, 53
4, 47640, Note_on_c, 2, 57, 54
4, 47640, Note_on_c, 2, 60, 52
4, 47759, Note_on_c, 2, 60, 0
4, 47759, Note_on_c, 2, 57, 0
4, 47759, Note_on_c, 2, 53, 0
4, 47760, Note_on_c, 2, 53, 59
4, 47760, Note_on_c, 2, 57, 59
4, 47760, Note_on_c, 2, 60, 58
4, 47879, Note_on_c, 2, 60, 0
4, 47879, Note_on_c, 2, 57, 0
4, 47879, Note_on_c, 2, 53, 0
4, 47880, Note_on_c, 2, 53, 59
4, 47880, Note_on_c, 2, 57, 59
4, 47880, Note_on_c, 2, 60, 58
4, 47999, Note_on_c, 2, 60, 0
4, 47999, Note_on_c, 2, 57, 0
4, 47999, Note_on_c, 2, 53, 0
4, 48120, Note_on_c, 2, 53, 52
4, 48120, Note_on_c, 2, 57, 54
4, 48120, Note_on_c, 2, 62, 52
4, 48239, Note_on_c, 2, 62, 0
4, 48239, Note_on_c, 2, 57, 0
4, 48239, Note_on_c, 2, 53, 0
4, 48240, Note_on_c, 2, 53, 59
4, 48240, Note_on_c, 2, 57, 57
4, 48240, Note_on_c, 2, 62, 59
4, 48359, Note_on_c, 2, 62, 0
4, 48359, Note_on_c, 2, 57, 0
4, 48359, Note_on_c, 2, 53, 0
4, 48360, Note_on_c, 2, 53, 59
4, 48360, Note_on_c, 2, 57, 61
4, 48360, Note_on_c, 2, 62, 62
4, 48479, Note_on_c, 2, 62, 0
4, 48479, Note_on_c, 2, 57, 0
4, 48479, Note_on_c, 2, 53, 0
4, 48600, Note_on_c, 2, 55, 53
4, 48600, Note_on_c, 2, 58, 52
4, 48600, Note_on_c, 2, 62, 52
4, 48719, Note_on_c, 2, 62, 0
4, 48719, Note_on_c, 2, 58, 0
4, 48719, Note_on_c, 2, 55, 0
4, 48720, Note_on_c, 2, 55, 59
4, 48720, Note_on_c, 2, 58, 59
4, 48720, Note_on_c, 2, 62, 58
4, 48839, Note_on_c, 2, 62, 0
4, 48839, Note_on_c, 2, 58, 0
4, 48839, Note_on_c, 2, 55, 0
4, 48840, Note_on_c, 2, 55, 61
4, 48840, Note_on_c, 2, 58, 59
4, 48840, Note_on_c, 2, 62, 59
4, 48959, Note_on_c, 2, 62, 0
4, 48959, Note_on_c, 2, 58, 0
4, 48959, Note_on_c, 2, 55, 0
4, 49080, Note_on_c, 2, 55, 60
4, 49080, Note_on_c, 2, 58, 60
4, 49080, Note_on_c, 2, 63, 60
4, 49199, Note_on_c, 2, 63, 0
4, 49199, Note_on_c, 2, 58, 0
4, 49199, Note_on_c, 2, 55, 0
4, 49200, Note_on_c, 2, 55, 78
4, 49200, Note_on_c, 2, 58, 78
4, 49200, Note_on_c, 2, 63, 76
4, 49319, Note_on_c, 2, 63, 0
4, 49319, Note_on_c, 2, 58, 0
4, 49319, Note_on_c, 2, 55, 0
4, 49320, Note_on_c, 2, 55, 89
4, 49320, Note_on_c, 2, 58, 85
4, 49320, Note_on_c, 2, 63, 89
4, 49439, Note_on_c, 2, 63, 0
4, 49439, Note_on_c, 2, 58, 0
4, 49439, Note_on_c, 2, 55, 0
4, 49440, Note_on_c, 2, 57, 40
4, 49440, Note_on_c, 2, 63, 39
4, 49440, Note_on_c, 2, 65, 39
4, 49679, Note_on_c, 2, 65, 0
4, 49679, Note_on_c, 2, 63, 0
4, 49679, Note_on_c, 2, 57, 0
4, 49920, Note_on_c, 2, 51, 34
4, 50039, Note_on_c, 2, 51, 0
4, 50040, Note_on_c, 2, 53, 38
4, 50159, Note_on_c, 2, 53, 0
4, 50160, Note_on_c, 2, 50, 32
4, 50279, Note_on_c, 2, 50, 0
4, 50280, Note_on_c, 2, 53, 36
4, 50399, Note_on_c, 2, 53, 0
4, 50400, Note_on_c, 2, 48, 34
4, 50519, Note_on_c, 2, 48, 0
4, 50520, Note_on_c, 2, 53, 39
4, 50639, Note_on_c, 2, 53, 0
4, 50640, Note_on_c, 2, 50, 34
4, 50759, Note_on_c, 2, 50, 0
4, 50760, Note_on_c, 2, 53, 37
4, 50879, Note_on_c, 2, 53, 0
4, 50880, Note_on_c, 2, 51, 37
4, 50999, Note_on_c, 2, 51, 0
4, 51000, Note_on_c, 2, 53, 35
4, 51119, Note_on_c, 2, 53, 0
4, 51120, Note_on_c, 2, 50, 32
4, 51239, Note_on_c, 2, 50, 0
4, 51240, Note_on_c, 2, 53, 38
4, 51359, Note_on_c, 2, 53, 0
4, 51360, Note_on_c, 2, 48, 33
4, 51479, Note_on_c, 2, 48, 0
4, 51480, Note_on_c, 2, 53, 40
4, 51599, Note_on_c, 2, 53, 0
4, 51600, Note_on_c, 2, 50, 33
4, 51719, Note_on_c, 2, 50, 0
4, 51720, Note_on_c, 2, 53, 37
4, 51839, Note_on_c, 2, 53, 0
4, 51840, Note_on_c, 2, 44, 42
4, 51840, Note_on_c, 2, 56, 41
4, 52079, Note_on_c, 2, 56, 0
4, 52079, Note_on_c, 2, 44, 0
4, 52080, Note_on_c, 2, 43, 33
4, 52080, Note_on_c, 2, 55, 32
4, 52319, Note_on_c, 2, 55, 0
4, 52319, Note_on_c, 2, 43, 0
4, 52320, Note_on_c, 2, 41, 34
4, 52320, Note_on_c, 2, 53, 37
4, 52559, Note_on_c, 2, 53, 0
4, 52559, Note_on_c, 2, 41, 0
4, 52560, Note_on_c, 2, 43, 34
4, 52560, Note_on_c, 2, 55, 34
4, 52799, Note_on_c, 2, 55, 0
4, 52799, Note_on_c, 2, 43, 0
4, 52800, Note_on_c, 2, 44, 38
4, 52800, Note_on_c, 2, 56, 40
4, 53039, Note_on_c, 2, 56, 0
4, 53039, Note_on_c, 2, 44, 0
4, 53040, Note_on_c, 2, 38, 28
4, 53040, Note_on_c, 2, 50, 30
4, 53279, Note_on_c, 2, 50, 0
4, 53279, Note_on_c, 2, 38, 0
4, 53280, Note_on_c, 2, 39, 37
4, 53280, Note_on_c, 2, 51, 39
4, 53758, Note_on_c, 2, 51, 0
4, 53758, Note_on_c, 2, 39, 0
4, 53760, Note_on_c, 2, 41, 38
4, 53760, Note_on_c, 2, 53, 40
4, 53879, Note_on_c, 2, 53, 0
4, 53879, Note_on_c, 2, 41, 0
4, 54000, Note_on_c, 2, 41, 31
4, 54119, Note_on_c, 2, 41, 0
4, 54240, Note_on_c, 2, 46, 34
4, 54359, Note_on_c, 2, 46, 0
4, 54720, Note_on_c, 2, 58, 33
4, 54720, Note_on_c, 2, 61, 35
4, 54839, Note_on_c, 2, 61, 0
4, 54839, Note_on_c, 2, 58, 0
4, 54840, Note_on_c, 2, 58, 33
4, 54840, Note_on_c, 2, 61, 33
4, 54959, Note_on_c, 2, 61, 0
4, 54959, Note_on_c, 2, 58, 0
4, 54960, Note_on_c, 2, 58, 33
4, 54960, Note_on_c, 2, 61, 36
4, 55079, Note_on_c, 2, 61, 0
4, 55079, Note_on_c, 2, 58, 0
4, 55080, Note_on_c, 2, 58, 34
4, 55080, Note_on_c, 2, 61, 35
4, 55199, Note_on_c, 2, 61, 0
4, 55199, Note_on_c, 2, 58, 0
4, 55200, Note_on_c, 2, 57, 61
4, 55200, Note_on_c, 2, 60, 59
4, 55438, Note_on_c, 2, 60, 0
4, 55438, Note_on_c, 2, 57, 0
4, 55440, Note_on_c, 2, 60, 36
4, 55440, Note_on_c, 2, 63, 36
4, 55559, Note_on_c, 2, 63, 0
4, 55559, Note_on_c, 2, 60, 0
4, 55680, Note_on_c, 2, 49, 34
4, 55680, Note_on_c, 2, 61, 32
4, 55799, Note_on_c, 2, 61, 0
4, 55799, Note_on_c, 2, 49, 0
4, 55920, Note_on_c, 2, 46, 31
4, 55920, Note_on_c, 2, 58, 29
4, 56039, Note_on_c, 2, 58, 0
4, 56039, Note_on_c, 2, 46, 0
4, 56160, Note_on_c, 2, 41, 36
4, 56160, Note_on_c, 2, 53, 36
4, 56279, Note_on_c, 2, 53, 0
4, 56279, Note_on_c, 2, 41, 0
4, 56640, Note_on_c, 2, 61, 35
4, 56640, Note_on_c, 2, 65, 35
4, 56759, Note_on_c, 2, 65, 0
4, 56759, Note_on_c, 2, 61, 0
4, 56760, Note_on_c, 2, 61, 35
4, 56760, Note_on_c, 2, 65, 36
4, 56879, Note_on_c, 2, 65, 0
4, 56879, Note_on_c, 2, 61, 0
4, 56880, Note_on_c, 2, 61, 37
4, 56880, Note_on_c, 2, 65, 34
4, 56999, Note_on_c, 2, 65, 0
4, 56999, Note_on_c, 2, 61, 0
4, 57000, Note_on_c, 2, 61, 37
4, 57000, Note_on_c, 2, 65, 35
4, 57119, Note_on_c, 2, 65, 0
4, 57119, Note_on_c, 2, 61, 0
4, 57120, Note_on_c, 2, 60, 58
4, 57120, Note_on_c, 2, 63, 59
4, 57356, Note_on_c, 2, 63, 0
4, 57356, Note_on_c, 2, 60, 0
4, 57360, Note_on_c, 2, 63, 39
4, 57360, Note_on_c, 2, 66, 39
4, 57478, Note_on_c, 2, 66, 0
4, 57478, Note_on_c, 2, 63, 0
4, 57600, Note_on_c, 2, 65, 44
4, 57719, Note_on_c, 2, 65, 0
4, 57840, Note_on_c, 2, 61, 42
4, 57959, Note_on_c, 2, 61, 0
4, 58080, Note_on_c, 2, 56, 46
4, 58199, Note_on_c, 2, 56, 0
4, 58200, Note_on_c, 2, 68, 61
4, 58318, Note_on_c, 2, 68, 0
4, 58320, Note_on_c, 2, 67, 50
4, 58438, Note_on_c, 2, 67, 0
4, 58440, Note_on_c, 2, 68, 75
4, 58558, Note_on_c, 2, 68, 0
4, 58560, Note_on_c, 2, 66, 93
4, 58678, Note_on_c, 2, 66, 0
4, 58680, Note_on_c, 2, 70, 106
4, 58798, Note_on_c, 2, 70, 0
4, 58800, Note_on_c, 2, 63, 79
4, 58918, Note_on_c, 2, 63, 0
4, 58920, Note_on_c, 2, 70, 110
4, 59038, Note_on_c, 2, 70, 0
4, 59040, Note_on_c, 2, 58, 73
4, 59159, Note_on_c, 2, 58, 0
4, 59160, Note_on_c, 2, 70, 117
4, 59278, Note_on_c, 2, 70, 0
4, 59280, Note_on_c, 2, 69, 94
4, 59398, Note_on_c, 2, 69, 0
4, 59400, Note_on_c, 2, 70, 101
4, 59518, Note_on_c, 2, 70, 0
4, 59520, Note_on_c, 2, 51, 43
4, 59520, Note_on_c, 2, 58, 41
4, 59520, Note_on_c, 2, 63, 40
4, 59639, Note_on_c, 2, 63, 0
4, 59639, Note_on_c, 2, 58, 0
4, 59639, Note_on_c, 2, 51, 0
4, 59760, Note_on_c, 2, 53, 43
4, 59760, Note_on_c, 2, 58, 43
4, 59760, Note_on_c, 2, 61, 43
4, 59879, Note_on_c, 2, 61, 0
4, 59879, Note_on_c, 2, 58, 0
4, 59879, Note_on_c, 2, 53, 0
4, 60000, Note_on_c, 2, 54, 47
4, 60119, Note_on_c, 2, 54, 0
4, 60240, Note_on_c, 2, 53, 44
4, 60359, Note_on_c, 2, 53, 0
4, 60480, Note_on_c, 2, 51, 48
4, 60599, Note_on_c, 2, 51, 0
4, 60720, Note_on_c, 2, 52, 45
4, 60839, Note_on_c, 2, 52, 0
4, 60960, Note_on_c, 2, 41, 47
4, 61196, Note_on_c, 2, 41, 0
4, 61200, Note_on_c, 2, 45, 54
4, 61436, Note_on_c, 2, 45, 0
4, 61440, Note_on_c, 2, 48, 57
4, 61676, Note_on_c, 2, 48, 0
4, 61680, Note_on_c, 2, 53, 55
4, 61916, Note_on_c, 2, 53, 0
4, 61920, Note_on_c, 2, 41, 39
4, 62156, Note_on_c, 2, 41, 0
4, 62160, Note_on_c, 2, 46, 53
4, 62396, Note_on_c, 2, 46, 0
4, 62400, Note_on_c, 2, 49, 56
4, 62636, Note_on_c, 2, 49, 0
4, 62640, Note_on_c, 2, 53, 54
4, 62876, Note_on_c, 2, 53, 0
4, 62880, Note_on_c, 2, 41, 37
4, 63116, Note_on_c, 2, 41, 0
4, 63120, Note_on_c, 2, 45, 52
4, 63356, Note_on_c, 2, 45, 0
4, 63360, Note_on_c, 2, 48, 54
4, 63596, Note_on_c, 2, 48, 0
4, 63600, Note_on_c, 2, 53, 53
4, 63836, Note_on_c, 2, 53, 0
4, 63840, Note_on_c, 2, 41, 76
4, 64076, Note_on_c, 2, 41, 0
4, 64080, Note_on_c, 2, 46, 103
4, 64316, Note_on_c, 2, 46, 0
4, 64320, Note_on_c, 2, 49, 110
4, 64556, Note_on_c, 2, 49, 0
4, 64560, Note_on_c, 2, 53, 109
4, 64796, Note_on_c, 2, 53, 0
4, 64800, Note_on_c, 2, 41, 38
4, 64919, Note_on_c, 2, 41, 0
4, 65760, Note_on_c, 2, 58, 32
4, 65879, Note_on_c, 2, 58, 0
4, 66000, Note_on_c, 2, 50, 29
4, 66000, Note_on_c, 2, 58, 30
4, 66119, Note_on_c, 2, 58, 0
4, 66119, Note_on_c, 2, 50, 0
4, 66240, Note_on_c, 2, 51, 34
4, 66240, Note_on_c, 2, 58, 35
4, 66359, Note_on_c, 2, 58, 0
4, 66359, Note_on_c, 2, 51, 0
4, 66480, Note_on_c, 2, 51, 30
4, 66480, Note_on_c, 2, 63, 30
4, 66599, Note_on_c, 2, 63, 0
4, 66599, Note_on_c, 2, 51, 0
4, 66720, Note_on_c, 2, 51, 46
4, 66720, Note_on_c, 2, 55, 44
4, 66839, Note_on_c, 2, 55, 0
4, 66839, Note_on_c, 2, 51, 0
4, 66960, Note_on_c, 2, 51, 45
4, 66960, Note_on_c, 2, 60, 44
4, 67079, Note_on_c, 2, 60, 0
4, 67079, Note_on_c, 2, 51, 0
4, 67200, Note_on_c, 2, 53, 46
4, 67200, Note_on_c, 2, 60, 47
4, 67319, Note_on_c, 2, 60, 0
4, 67319, Note_on_c, 2, 53, 0
4, 67440, Note_on_c, 2, 53, 45
4, 67440, Note_on_c, 2, 65, 44
4, 67559, Note_on_c, 2, 65, 0
4, 67559, Note_on_c, 2, 53, 0
4, 67680, Note_on_c, 2, 53, 48
4, 67680, Note_on_c, 2, 57, 47
4, 67799, Note_on_c, 2, 57, 0
4, 67799, Note_on_c, 2, 53, 0
4, 67920, Note_on_c, 2, 53, 42
4, 67920, Note_on_c, 2, 62, 42
4, 68039, Note_on_c, 2, 62, 0
4, 68039, Note_on_c, 2, 53, 0
4, 68160, Note_on_c, 2, 55, 46
4, 68160, Note_on_c, 2, 62, 45
4, 68279, Note_on_c, 2, 62, 0
4, 68279, Note_on_c, 2, 55, 0
4, 68400, Note_on_c, 2, 55, 43
4, 68400, Note_on_c, 2, 67, 42
4, 68519, Note_on_c, 2, 67, 0
4, 68519, Note_on_c, 2, 55, 0
4, 68640, Note_on_c, 2, 55, 89
4, 68640, Note_on_c, 2, 63, 90
4, 68759, Note_on_c, 2, 63, 0
4, 68759, Note_on_c, 2, 55, 0
4, 68880, Note_on_c, 2, 55, 87
4, 68880, Note_on_c, 2, 63, 86
4, 68999, Note_on_c, 2, 63, 0
4, 68999, Note_on_c, 2, 55, 0
4, 69120, Note_on_c, 2, 57, 90
4, 69120, Note_on_c, 2, 63, 90
4, 69359, Note_on_c, 2, 63, 0
4, 69359, Note_on_c, 2, 57, 0
4, 69600, Note_on_c, 2, 51, 54
4, 69718, Note_on_c, 2, 51, 0
4, 69720, Note_on_c, 2, 53, 54
4, 69838, Note_on_c, 2, 53, 0
4, 69840, Note_on_c, 2, 50, 55
4, 69958, Note_on_c, 2, 50, 0
4, 69960, Note_on_c, 2, 53, 55
4, 70078, Note_on_c, 2, 53, 0
4, 70080, Note_on_c, 2, 48, 56
4, 70198, Note_on_c, 2, 48, 0
4, 70200, Note_on_c, 2, 53, 57
4, 70318, Note_on_c, 2, 53, 0
4, 70320, Note_on_c, 2, 50, 58
4, 70438, Note_on_c, 2, 50, 0
4, 70440, Note_on_c, 2, 53, 58
4, 70560, Note_on_c, 2, 53, 0
4, 70560, Note_on_c, 2, 51, 59
4, 70678, Note_on_c, 2, 51, 0
4, 70680, Note_on_c, 2, 53, 59
4, 70798, Note_on_c, 2, 53, 0
4, 70800, Note_on_c, 2, 50, 59
4, 70918, Note_on_c, 2, 50, 0
4, 70920, Note_on_c, 2, 53, 60
4, 71038, Note_on_c, 2, 53, 0
4, 71040, Note_on_c, 2, 48, 61
4, 71158, Note_on_c, 2, 48, 0
4, 71160, Note_on_c, 2, 53, 61
4, 71278, Note_on_c, 2, 53, 0
4, 71280, Note_on_c, 2, 50, 63
4, 71398, Note_on_c, 2, 50, 0
4, 71400, Note_on_c, 2, 53, 65
4, 71520, Note_on_c, 2, 53, 0
4, 71520, Note_on_c, 2, 44, 66
4, 71520, Note_on_c, 2, 56, 66
4, 71756, Note_on_c, 2, 56, 0
4, 71756, Note_on_c, 2, 44, 0
4, 71760, Note_on_c, 2, 43, 57
4, 71760, Note_on_c, 2, 55, 60
4, 71996, Note_on_c, 2, 55, 0
4, 71996, Note_on_c, 2, 43, 0
4, 72000, Note_on_c, 2, 41, 60
4, 72000, Note_on_c, 2, 53, 58
4, 72236, Note_on_c, 2, 53, 0
4, 72236, Note_on_c, 2, 41, 0
4, 72240, Note_on_c, 2, 43, 58
4, 72240, Note_on_c, 2, 55, 58
4, 72480, Note_on_c, 2, 55, 0
4, 72480, Note_on_c, 2, 43, 0
4, 72480, Note_on_c, 2, 44, 118
4, 72480, Note_on_c, 2, 56, 118
4, 72719, Note_on_c, 2, 56, 0
4, 72719, Note_on_c, 2, 44, 0
4, 72720, Note_on_c, 2, 38, 94
4, 72720, Note_on_c, 2, 50, 96
4, 72959, Note_on_c, 2, 50, 0
4, 72959, Note_on_c, 2, 38, 0
4, 72960, Note_on_c, 2, 39, 117
4, 72960, Note_on_c, 2, 51, 115
4, 73079, Note_on_c, 2, 51, 0
4, 73079, Note_on_c, 2, 39, 0
4, 73440, Note_on_c, 2, 41, 103
4, 73440, Note_on_c, 2, 53, 103
4, 73559, Note_on_c, 2, 53, 0
4, 73559, Note_on_c, 2, 41, 0
4, 73680, Note_on_c, 2, 41, 99
4, 73680, Note_on_c, 2, 53, 99
4, 73799, Note_on_c, 2, 53, 0
4, 73799, Note_on_c, 2, 41, 0
4, 73920, Note_on_c, 2, 46, 45
4, 73979, Note_on_c, 2, 46, 0
4, 73980, Note_on_c, 2, 53, 55
4, 74040, Note_on_c, 2, 52, 56
4, 74045, Note_on_c, 2, 53, 0
4, 74100, Note_on_c, 2, 53, 56
4, 74105, Note_on_c, 2, 52, 0
4, 74160, Note_on_c, 2, 52, 56
4, 74165, Note_on_c, 2, 53, 0
4, 74220, Note_on_c, 2, 53, 56
4, 74225, Note_on_c, 2, 52, 0
4, 74280, Note_on_c, 2, 52, 56
4, 74285, Note_on_c, 2, 53, 0
4, 74340, Note_on_c, 2, 53, 56
4, 74345, Note_on_c, 2, 52, 0
4, 74399, Note_on_c, 2, 53, 0
4, 74400, Note_on_c, 2, 51, 56
4, 74459, Note_on_c, 2, 51, 0
4, 74460, Note_on_c, 2, 53, 56
4, 74520, Note_on_c, 2, 52, 56
4, 74525, Note_on_c, 2, 53, 0
4, 74580, Note_on_c, 2, 53, 56
4, 74585, Note_on_c, 2, 52, 0
4, 74640, Note_on_c, 2, 51, 56
4, 74645, Note_on_c, 2, 53, 0
4, 74699, Note_on_c, 2, 51, 0
4, 74700, Note_on_c, 2, 53, 56
4, 74760, Note_on_c, 2, 52, 56
4, 74765, Note_on_c, 2, 53, 0
4, 74820, Note_on_c, 2, 53, 55
4, 74825, Note_on_c, 2, 52, 0
4, 74880, Note_on_c, 2, 50, 55
4, 74885, Note_on_c, 2, 53, 0
4, 74939, Note_on_c, 2, 50, 0
4, 74940, Note_on_c, 2, 53, 55
4, 75000, Note_on_c, 2, 52, 55
4, 75005, Note_on_c, 2, 53, 0
4, 75060, Note_on_c, 2, 53, 55
4, 75065, Note_on_c, 2, 52, 0
4, 75120, Note_on_c, 2, 50, 55
4, 75125, Note_on_c, 2, 53, 0
4, 75179, Note_on_c, 2, 50, 0
4, 75180, Note_on_c, 2, 53, 55
4, 75240, Note_on_c, 2, 52, 55
4, 75245, Note_on_c, 2, 53, 0
4, 75300, Note_on_c, 2, 53, 54
4, 75305, Note_on_c, 2, 52, 0
4, 75360, Note_on_c, 2, 45, 54
4, 75365, Note_on_c, 2, 53, 0
4, 75419, Note_on_c, 2, 45, 0
4, 75420, Note_on_c, 2, 53, 54
4, 75480, Note_on_c, 2, 52, 54
4, 75485, Note_on_c, 2, 53, 0
4, 75540, Note_on_c, 2, 53, 54
4, 75545, Note_on_c, 2, 52, 0
4, 75600, Note_on_c, 2, 45, 54
4, 75605, Note_on_c, 2, 53, 0
4, 75659, Note_on_c, 2, 45, 0
4, 75660, Note_on_c, 2, 53, 54
4, 75720, Note_on_c, 2, 52, 54
4, 75725, Note_on_c, 2, 53, 0
4, 75780, Note_on_c, 2, 53, 54
4, 75785, Note_on_c, 2, 52, 0
4, 75840, Note_on_c, 2, 46, 54
4, 75845, Note_on_c, 2, 53, 0
4, 75899, Note_on_c, 2, 46, 0
4, 75900, Note_on_c, 2, 53, 54
4, 75960, Note_on_c, 2, 52, 54
4, 75965, Note_on_c, 2, 53, 0
4, 76020, Note_on_c, 2, 53, 54
4, 76025, Note_on_c, 2, 52, 0
4, 76079, Note_on_c, 2, 53, 0
4, 76080, Note_on_c, 2, 46, 54
4, 76139, Note_on_c, 2, 46, 0
4, 76140, Note_on_c, 2, 53, 54
4, 76200, Note_on_c, 2, 52, 54
4, 76205, Note_on_c, 2, 53, 0
4, 76260, Note_on_c, 2, 53, 54
4, 76265, Note_on_c, 2, 52, 0
4, 76320, Note_on_c, 2, 51, 54
4, 76325, Note_on_c, 2, 53, 0
4, 76379, Note_on_c, 2, 51, 0
4, 76380, Note_on_c, 2, 53, 54
4, 76440, Note_on_c, 2, 52, 53
4, 76445, Note_on_c, 2, 53, 0
4, 76500, Note_on_c, 2, 53, 53
4, 76505, Note_on_c, 2, 52, 0
4, 76560, Note_on_c, 2, 51, 53
4, 76565, Note_on_c, 2, 53, 0
4, 76619, Note_on_c, 2, 51, 0
4, 76620, Note_on_c, 2, 53, 53
4, 76680, Note_on_c, 2, 52, 53
4, 76685, Note_on_c, 2, 53, 0
4, 76740, Note_on_c, 2, 53, 53
4, 76745, Note_on_c, 2, 52, 0
4, 76799, Note_on_c, 2, 53, 0
4, 76800, Note_on_c, 2, 50, 53
4, 76859, Note_on_c, 2, 50, 0
4, 76860, Note_on_c, 2, 53, 53
4, 76920, Note_on_c, 2, 52, 53
4, 76925, Note_on_c, 2, 53, 0
4, 76980, Note_on_c, 2, 53, 53
4, 76985, Note_on_c, 2, 52, 0
4, 77040, Note_on_c, 2, 50, 53
4, 77045, Note_on_c, 2, 53, 0
4, 77099, Note_on_c, 2, 50, 0
4, 77100, Note_on_c, 2, 53, 53
4, 77160, Note_on_c, 2, 52, 53
4, 77165, Note_on_c, 2, 53, 0
4, 77220, Note_on_c, 2, 53, 53
4, 77225, Note_on_c, 2, 52, 0
4, 77279, Note_on_c, 2, 53, 0
4, 77280, Note_on_c, 2, 45, 53
4, 77339, Note_on_c, 2, 45, 0
4, 77340, Note_on_c, 2, 53, 53
4, 77400, Note_on_c, 2, 52, 53
4, 77405, Note_on_c, 2, 53, 0
4, 77460, Note_on_c, 2, 53, 61
4, 77465, Note_on_c, 2, 52, 0
4, 77520, Note_on_c, 2, 45, 56
4, 77525, Note_on_c, 2, 53, 0
4, 77579, Note_on_c, 2, 45, 0
4, 77580, Note_on_c, 2, 48, 82
4, 77640, Note_on_c, 2, 53, 99
4, 77645, Note_on_c, 2, 48, 0
4, 77700, Note_on_c, 2, 57, 110
4, 77705, Note_on_c, 2, 53, 0
4, 77760, Note_on_c, 2, 45, 74
4, 77765, Note_on_c, 2, 57, 0
4, 77820, Note_on_c, 2, 48, 94
4, 77825, Note_on_c, 2, 45, 0
4, 77880, Note_on_c, 2, 53, 97
4, 77885, Note_on_c, 2, 48, 0
4, 77940, Note_on_c, 2, 57, 86
4, 77945, Note_on_c, 2, 53, 0
4, 78000, Note_on_c, 2, 46, 57
4, 78005, Note_on_c, 2, 57, 0
4, 78060, Note_on_c, 2, 50, 68
4, 78065, Note_on_c, 2, 46, 0
4, 78120, Note_on_c, 2, 53, 63
4, 78125, Note_on_c, 2, 50, 0
4, 78180, Note_on_c, 2, 58, 58
4, 78185, Note_on_c, 2, 53, 0
4, 78240, Note_on_c, 2, 51, 50
4, 78240, Note_on_c, 2, 55, 54
4, 78240, Note_on_c, 2, 58, 53
4, 78245, Note_on_c, 2, 58, 0
4, 78359, Note_on_c, 2, 51, 0
4, 78359, Note_on_c, 2, 55, 0
4, 78359, Note_on_c, 2, 58, 0
4, 78360, Note_on_c, 2, 51, 49
4, 78360, Note_on_c, 2, 55, 50
4, 78360, Note_on_c, 2, 58, 49
4, 78479, Note_on_c, 2, 58, 0
4, 78479, Note_on_c, 2, 55, 0
4, 78479, Note_on_c, 2, 51, 0
4, 78480, Note_on_c, 2, 51, 50
4, 78480, Note_on_c, 2, 55, 46
4, 78480, Note_on_c, 2, 58, 46
4, 78599, Note_on_c, 2, 58, 0
4, 78599, Note_on_c, 2, 55, 0
4, 78599, Note_on_c, 2, 51, 0
4, 78600, Note_on_c, 2, 51, 65
4, 78600, Note_on_c, 2, 55, 65
4, 78600, Note_on_c, 2, 58, 63
4, 78719, Note_on_c, 2, 58, 0
4, 78719, Note_on_c, 2, 55, 0
4, 78719, Note_on_c, 2, 51, 0
4, 78720, Note_on_c, 2, 51, 81
4, 78720, Note_on_c, 2, 55, 83
4, 78720, Note_on_c, 2, 58, 84
4, 78839, Note_on_c, 2, 58, 0
4, 78839, Note_on_c, 2, 55, 0
4, 78839, Note_on_c, 2, 51, 0
4, 78840, Note_on_c, 2, 51, 99
4, 78840, Note_on_c, 2, 55, 99
4, 78840, Note_on_c, 2, 58, 99
4, 78959, Note_on_c, 2, 58, 0
4, 78959, Note_on_c, 2, 55, 0
4, 78959, Note_on_c, 2, 51, 0
4, 78960, Note_on_c, 2, 51, 104
4, 78960, Note_on_c, 2, 55, 104
4, 78960, Note_on_c, 2, 58, 104
4, 79079, Note_on_c, 2, 58, 0
4, 79079, Note_on_c, 2, 55, 0
4, 79079, Note_on_c, 2, 51, 0
4, 79080, Note_on_c, 2, 51, 106
4, 79080, Note_on_c, 2, 55, 106
4, 79080, Note_on_c, 2, 58, 106
4, 79199, Note_on_c, 2, 58, 0
4, 79199, Note_on_c, 2, 55, 0
4, 79199, Note_on_c, 2, 51, 0
4, 79200, Note_on_c, 2, 52, 107
4, 79200, Note_on_c, 2, 55, 107
4, 79200, Note_on_c, 2, 58, 107
4, 79319, Note_on_c, 2, 58, 0
4, 79319, Note_on_c, 2, 55, 0
4, 79319, Note_on_c, 2, 52, 0
4, 79320, Note_on_c, 2, 52, 109
4, 79320, Note_on_c, 2, 55, 109
4, 79320, Note_on_c, 2, 58, 109
4, 79439, Note_on_c, 2, 58, 0
4, 79439, Note_on_c, 2, 55, 0
4, 79439, Note_on_c, 2, 52, 0
4, 79440, Note_on_c, 2, 52, 109
4, 79440, Note_on_c, 2, 55, 109
4, 79440, Note_on_c, 2, 58, 109
4, 79559, Note_on_c, 2, 58, 0
4, 79559, Note_on_c, 2, 55, 0
4, 79559, Note_on_c, 2, 52, 0
4, 79560, Note_on_c, 2, 52, 110
4, 79560, Note_on_c, 2, 55, 110
4, 79560, Note_on_c, 2, 58, 110
4, 79679, Note_on_c, 2, 58, 0
4, 79679, Note_on_c, 2, 55, 0
4, 79679, Note_on_c, 2, 52, 0
4, 79680, Note_on_c, 2, 52, 111
4, 79680, Note_on_c, 2, 55, 111
4, 79680, Note_on_c, 2, 58, 111
4, 79680, Note_on_c, 2, 61, 111
4, 79799, Note_on_c, 2, 61, 0
4, 79799, Note_on_c, 2, 52, 0
4, 79799, Note_on_c, 2, 55, 0
4, 79799, Note_on_c, 2, 58, 0
4, 79800, Note_on_c, 2, 52, 112
4, 79800, Note_on_c, 2, 55, 112
4, 79800, Note_on_c, 2, 58, 112
4, 79800, Note_on_c, 2, 61, 112
4, 79919, Note_on_c, 2, 61, 0
4, 79919, Note_on_c, 2, 52, 0
4, 79919, Note_on_c, 2, 55, 0
4, 79919, Note_on_c, 2, 58, 0
4, 79920, Note_on_c, 2, 52, 112
4, 79920, Note_on_c, 2, 55, 112
4, 79920, Note_on_c, 2, 58, 112
4, 79920, Note_on_c, 2, 61, 112
4, 80039, Note_on_c, 2, 61, 0
4, 80039, Note_on_c, 2, 52, 0
4, 80039, Note_on_c, 2, 55, 0
4, 80039, Note_on_c, 2, 58, 0
4, 80040, Note_on_c, 2, 52, 113
4, 80040, Note_on_c, 2, 55, 113
4, 80040, Note_on_c, 2, 58, 113
4, 80040, Note_on_c, 2, 61, 113
4, 80159, Note_on_c, 2, 61, 0
4, 80159, Note_on_c, 2, 52, 0
4, 80159, Note_on_c, 2, 55, 0
4, 80159, Note_on_c, 2, 58, 0
4, 80160, Note_on_c, 2, 53, 113
4, 80160, Note_on_c, 2, 58, 113
4, 80160, Note_on_c, 2, 61, 113
4, 80279, Note_on_c, 2, 61, 0
4, 80279, Note_on_c, 2, 58, 0
4, 80279, Note_on_c, 2, 53, 0
4, 80280, Note_on_c, 2, 53, 113
4, 80280, Note_on_c, 2, 58, 113
4, 80280, Note_on_c, 2, 61, 113
4, 80399, Note_on_c, 2, 61, 0
4, 80399, Note_on_c, 2, 58, 0
4, 80399, Note_on_c, 2, 53, 0
4, 80400, Note_on_c, 2, 53, 114
4, 80400, Note_on_c, 2, 58, 114
4, 80400, Note_on_c, 2, 61, 114
4, 80519, Note_on_c, 2, 61, 0
4, 80519, Note_on_c, 2, 58, 0
4, 80519, Note_on_c, 2, 53, 0
4, 80520, Note_on_c, 2, 53, 114
4, 80520, Note_on_c, 2, 58, 114
4, 80520, Note_on_c, 2, 61, 114
4, 80639, Note_on_c, 2, 61, 0
4, 80639, Note_on_c, 2, 58, 0
4, 80639, Note_on_c, 2, 53, 0
4, 80640, Note_on_c, 2, 54, 114
4, 80640, Note_on_c, 2, 58, 114
4, 80640, Note_on_c, 2, 61, 114
4, 80640, Note_on_c, 2, 64, 114
4, 80759, Note_on_c, 2, 64, 0
4, 80759, Note_on_c, 2, 54, 0
4, 80759, Note_on_c, 2, 58, 0
4, 80759, Note_on_c, 2, 61, 0
4, 80760, Note_on_c, 2, 54, 115
4, 80760, Note_on_c, 2, 58, 115
4, 80760, Note_on_c, 2, 61, 115
4, 80760, Note_on_c, 2, 64, 115
4, 80879, Note_on_c, 2, 64, 0
4, 80879, Note_on_c, 2, 54, 0
4, 80879, Note_on_c, 2, 58, 0
4, 80879, Note_on_c, 2, 61, 0
4, 80880, Note_on_c, 2, 55, 115
4, 80880, Note_on_c, 2, 58, 115
4, 80880, Note_on_c, 2, 61, 115
4, 80880, Note_on_c, 2, 64, 115
4, 80999, Note_on_c, 2, 64, 0
4, 80999, Note_on_c, 2, 55, 0
4, 80999, Note_on_c, 2, 58, 0
4, 80999, Note_on_c, 2, 61, 0
4, 81000, Note_on_c, 2, 55, 115
4, 81000, Note_on_c, 2, 58, 115
4, 81000, Note_on_c, 2, 61, 115
4, 81000, Note_on_c, 2, 64, 115
4, 81119, Note_on_c, 2, 64, 0
4, 81119, Note_on_c, 2, 55, 0
4, 81119, Note_on_c, 2, 58, 0
4, 81119, Note_on_c, 2, 61, 0
4, 81120, Note_on_c, 2, 53, 115
4, 81120, Note_on_c, 2, 58, 115
4, 81120, Note_on_c, 2, 62, 115
4, 81120, Note_on_c, 2, 65, 115
4, 81239, Note_on_c, 2, 65, 0
4, 81239, Note_on_c, 2, 53, 0
4, 81239, Note_on_c, 2, 58, 0
4, 81239, Note_on_c, 2, 62, 0
4, 81360, Note_on_c, 2, 58, 115
4, 81360, Note_on_c, 2, 62, 115
4, 81596, Note_on_c, 2, 62, 0
4, 81596, Note_on_c, 2, 58, 0
4, 81600, Note_on_c, 2, 60, 50
4, 81600, Note_on_c, 2, 63, 50
4, 81836, Note_on_c, 2, 63, 0
4, 81836, Note_on_c, 2, 60, 0
4, 81840, Note_on_c, 2, 61, 50
4, 81840, Note_on_c, 2, 64, 48
4, 82076, Note_on_c, 2, 64, 0
4, 82076, Note_on_c, 2, 61, 0
4, 82080, Note_on_c, 2, 62, 119
4, 82080, Note_on_c, 2, 65, 120
4, 82198, Note_on_c, 2, 65, 0
4, 82198, Note_on_c, 2, 62, 0
4, 82560, Note_on_c, 2, 51, 119
4, 82560, Note_on_c, 2, 41, 119
4, 83040, Note_on_c, 2, 41, 0
4, 83040, Note_on_c, 2, 51, 0
4, 83040, Note_on_c, 2, 46, 105
4, 83040, Note_on_c, 2, 50, 108
4, 83159, Note_on_c, 2, 50, 0
4, 83159, Note_on_c, 2, 46, 0
4, 83160, Note_on_c, 2, 53, 41
4, 83278, Note_on_c, 2, 53, 0
4, 83400, Note_on_c, 2, 53, 36
4, 83518, Note_on_c, 2, 53, 0
4, 83640, Note_on_c, 2, 53, 38
4, 83758, Note_on_c, 2, 53, 0
4, 83880, Note_on_c, 2, 53, 45
4, 83998, Note_on_c, 2, 53, 0
4, 84000, Note_on_c, 2, 41, 45
4, 84000, Note_on_c, 2, 60, 45
4, 84000, Note_on_c, 2, 57, 45
4, 84118, Note_on_c, 2, 57, 0
4, 84118, Note_on_c, 2, 60, 0
4, 84120, Note_on_c, 2, 53, 46
4, 84238, Note_on_c, 2, 53, 0
4, 84240, Note_on_c, 2, 62, 46
4, 84240, Note_on_c, 2, 58, 46
4, 84358, Note_on_c, 2, 58, 0
4, 84358, Note_on_c, 2, 62, 0
4, 84360, Note_on_c, 2, 53, 46
4, 84478, Note_on_c, 2, 53, 0
4, 84480, Note_on_c, 2, 63, 46
4, 84480, Note_on_c, 2, 60, 46
4, 84598, Note_on_c, 2, 60, 0
4, 84598, Note_on_c, 2, 63, 0
4, 84600, Note_on_c, 2, 53, 45
4, 84718, Note_on_c, 2, 53, 0
4, 84720, Note_on_c, 2, 57, 45
4, 84720, Note_on_c, 2, 60, 45
4, 84838, Note_on_c, 2, 60, 0
4, 84838, Note_on_c, 2, 57, 0
4, 84840, Note_on_c, 2, 53, 45
4, 84958, Note_on_c, 2, 53, 0
4, 84958, Note_on_c, 2, 41, 0
4, 84960, Note_on_c, 2, 62, 44
4, 84960, Note_on_c, 2, 34, 44
4, 84960, Note_on_c, 2, 58, 44
4, 85078, Note_on_c, 2, 58, 0
4, 85078, Note_on_c, 2, 62, 0
4, 85080, Note_on_c, 2, 53, 44
4, 85198, Note_on_c, 2, 53, 0
4, 85200, Note_on_c, 2, 58, 44
4, 85200, Note_on_c, 2, 62, 44
4, 85318, Note_on_c, 2, 62, 0
4, 85318, Note_on_c, 2, 58, 0
4, 85320, Note_on_c, 2, 53, 44
4, 85438, Note_on_c, 2, 53, 0
4, 85440, Note_on_c, 2, 60, 44
4, 85440, Note_on_c, 2, 51, 44
4, 85558, Note_on_c, 2, 51, 0
4, 85558, Note_on_c, 2, 60, 0
4, 85560, Note_on_c, 2, 53, 44
4, 85678, Note_on_c, 2, 53, 0
4, 85680, Note_on_c, 2, 58, 43
4, 85680, Note_on_c, 2, 50, 43
4, 85798, Note_on_c, 2, 50, 0
4, 85798, Note_on_c, 2, 58, 0
4, 85800, Note_on_c, 2, 53, 43
4, 85918, Note_on_c, 2, 53, 0
4, 85920, Note_on_c, 2, 34, 0
4, 85920, Note_on_c, 2, 41, 42
4, 85920, Note_on_c, 2, 57, 42
4, 85920, Note_on_c, 2, 29, 42
4, 85920, Note_on_c, 2, 48, 42
4, 86038, Note_on_c, 2, 48, 0
4, 86038, Note_on_c, 2, 57, 0
4, 86040, Note_on_c, 2, 53, 42
4, 86158, Note_on_c, 2, 53, 0
4, 86160, Note_on_c, 2, 50, 41
4, 86160, Note_on_c, 2, 58, 41
4, 86278, Note_on_c, 2, 58, 0
4, 86278, Note_on_c, 2, 50, 0
4, 86280, Note_on_c, 2, 53, 41
4, 86398, Note_on_c, 2, 53, 0
4, 86400, Note_on_c, 2, 51, 40
4, 86400, Note_on_c, 2, 60, 40
4, 86518, Note_on_c, 2, 60, 0
4, 86518, Note_on_c, 2, 51, 0
4, 86520, Note_on_c, 2, 53, 40
4, 86638, Note_on_c, 2, 53, 0
4, 86640, Note_on_c, 2, 57, 40
4, 86640, Note_on_c, 2, 48, 40
4, 86758, Note_on_c, 2, 48, 0
4, 86758, Note_on_c, 2, 57, 0
4, 86760, Note_on_c, 2, 53, 39
4, 86878, Note_on_c, 2, 53, 0
4, 86880, Note_on_c, 2, 29, 0
4, 86880, Note_on_c, 2, 41, 0
4, 86880, Note_on_c, 2, 34, 38
4, 86880, Note_on_c, 2, 58, 38
4, 86880, Note_on_c, 2, 50, 38
4, 86998, Note_on_c, 2, 50, 0
4, 86998, Note_on_c, 2, 58, 0
4, 87000, Note_on_c, 2, 53, 38
4, 87118, Note_on_c, 2, 53, 0
4, 87120, Note_on_c, 2, 62, 37
4, 87238, Note_on_c, 2, 62, 0
4, 87240, Note_on_c, 2, 53, 37
4, 87358, Note_on_c, 2, 53, 0
4, 87360, Note_on_c, 2, 50, 36
4, 87360, Note_on_c, 2, 46, 36
4, 87360, Note_on_c, 2, 58, 36
4, 87478, Note_on_c, 2, 58, 0
4, 87478, Note_on_c, 2, 50, 0
4, 87480, Note_on_c, 2, 53, 36
4, 87598, Note_on_c, 2, 53, 0
4, 87600, Note_on_c, 2, 62, 35
4, 87718, Note_on_c, 2, 62, 0
4, 87720, Note_on_c, 2, 53, 35
4, 87838, Note_on_c, 2, 53, 0
4, 87840, Note_on_c, 2, 46, 0
4, 87840, Note_on_c, 2, 34, 0
4, 87840, Note_on_c, 2, 34, 35
4, 87840, Note_on_c, 2, 58, 35
4, 87840, Note_on_c, 2, 50, 35
4, 87840, Note_on_c, 2, 46, 35
4, 88200, Note_on_c, 2, 46, 0
4, 88200, Note_on_c, 2, 34, 0
4, 88200, Note_on_c, 2, 58, 0
4, 88200, Note_on_c, 2, 50, 0
4, 88200, End_track
5, 0, Start_track
5, 0, Title_t, "Coro"
5, 0, Program_c, 3, 48
5, 0, Control_c, 3, 7, 114
5, 0, Control_c, 3, 10, 64
5, 0, Control_c, 3, 91, 0
5, 0, Control_c, 3, 93, 0
5, 0, End_track
6, 0, Start_track
6, 0, Title_t, "Console Automation Data"
6, 0, End_track
0, 0, End_of_file