0, 0, Header, 1, 19, 120
1, 0, Start_track
1, 0, Title_t, "Symphony n\260 8 in F major"
1, 0, Title_t, "III - Tempo di minuetto"
1, 0, Copyright_t, "Copyright \251 2000 by J.F. Lucarelli - j-f.lucarelli@infonie.be  --  http://perso.infonie.fr/espace-midi"
1, 0, Text_t, "L. Van Beethoven (1770-1827)"
1, 0, Text_t, "\012"
1, 0, Text_t, "Partition compl\350te - dur\351e : 00:05:17\012"
1, 0, Text_t, "D\351but du travail : 14 mai 2000\012"
1, 0, Text_t, "Fin de la version 0 : 17 mai 2000\012"
1, 0, Text_t, "Version 1.0 : 28 mai 2000\012"
1, 0, Text_t, "Version 1.01 : 8 juin 2000 : corrections avant publication\012"
1, 0, Text_t, "Version 1.02 : 20 juin 2000 : correction du tempo du trio\012"
1, 0, Text_t, "Version 1.03 : 4 ao\373t 2000 : r\351vision, correction du phras\351\012"
1, 0, Text_t, "Version 1.04 : 14 septembret 2000 : r\351vision avant r\351alisation d'un CD\012"
1, 0, Text_t, "Dur\351e d'\351dition et d'audition : 11 h\012"
1, 0, Text_t, "-----\012"
1, 0, Text_t, "Full score - length : 00:05:17\012"
1, 0, Text_t, "Beginning of writing : 14 may 2000\012"
1, 0, Text_t, "End of version 0 : 17 may 2000\012"
1, 0, Text_t, "Version 1.0 : 28 may 2000\012"
1, 0, Text_t, "Version 1.01 : 8 june 2000 : corrections before publication\012"
1, 0, Text_t, "Version 1.02 : 20 june 2000 : correction of tempo of the trio\012"
1, 0, Text_t, "Version 1.03 : 4 august 2000 : revision, correction of phrasing\012"
1, 0, Text_t, "Version 1.04 : 14 september 2000 : revision before realisation of a CD\012"
1, 0, Text_t, "Editing and audition time : 11 h\012"
1, 0, Time_signature, 3, 2, 24, 8
1, 0, Key_signature, -1, "major"
1, 0, Tempo, 240000
1, 0, Marker_t, "L. Van Beethoven : Symphony n\260 8 in F"
1, 360, Marker_t, "III : Tempo di minuetto"
1, 600, Tempo, 705882
1, 660, Tempo, 638298
1, 720, Tempo, 674157
1, 840, Tempo, 638298
1, 960, Tempo, 609137
1, 1080, Tempo, 585366
1, 1200, Tempo, 615385
1, 1250, Tempo, 566038
1, 1440, Tempo, 594059
1, 1560, Tempo, 571429
1, 1680, Tempo, 542986
1, 1800, Tempo, 621762
1, 1920, Tempo, 571429
1, 2040, Tempo, 542986
1, 2160, Tempo, 621762
1, 2280, Tempo, 571429
1, 2400, Tempo, 542986
1, 2520, Tempo, 621762
1, 2640, Tempo, 571429
1, 2700, Tempo, 621762
1, 2760, Tempo, 542986
1, 2880, Tempo, 621762
1, 3000, Tempo, 571429
1, 3120, Tempo, 542986
1, 3240, Tempo, 621762
1, 3360, Tempo, 571429
1, 3480, Tempo, 542986
1, 3600, Tempo, 621762
1, 3720, Tempo, 571429
1, 3840, Tempo, 542986
1, 3960, Tempo, 621762
1, 4080, Tempo, 571429
1, 4140, Tempo, 652174
1, 4200, Tempo, 666667
1, 4260, Tempo, 615385
1, 4320, Tempo, 625000
1, 4440, Tempo, 574163
1, 4680, Tempo, 603015
1, 4800, Tempo, 615385
1, 4860, Tempo, 566038
1, 5040, Tempo, 594059
1, 5160, Tempo, 571429
1, 5280, Tempo, 542986
1, 5400, Tempo, 621762
1, 5520, Tempo, 571429
1, 5640, Tempo, 542986
1, 5760, Tempo, 621762
1, 5880, Tempo, 571429
1, 6000, Tempo, 542986
1, 6120, Tempo, 621762
1, 6240, Tempo, 571429
1, 6300, Tempo, 621762
1, 6360, Tempo, 542986
1, 6480, Tempo, 621762
1, 6600, Tempo, 571429
1, 6720, Tempo, 542986
1, 6840, Tempo, 621762
1, 6960, Tempo, 571429
1, 7080, Tempo, 542986
1, 7200, Tempo, 621762
1, 7320, Tempo, 571429
1, 7440, Tempo, 542986
1, 7560, Tempo, 621762
1, 7680, Tempo, 571429
1, 7740, Tempo, 603015
1, 7920, Tempo, 621762
1, 8040, Tempo, 571429
1, 8160, Tempo, 542986
1, 8280, Tempo, 621762
1, 8400, Tempo, 571429
1, 8520, Tempo, 542986
1, 8640, Tempo, 621762
1, 8760, Tempo, 571429
1, 8880, Tempo, 542986
1, 9000, Tempo, 621762
1, 9120, Tempo, 571429
1, 9240, Tempo, 542986
1, 9360, Tempo, 621762
1, 9480, Tempo, 571429
1, 9600, Tempo, 542986
1, 9720, Tempo, 621762
1, 9840, Tempo, 571429
1, 9960, Tempo, 542986
1, 10080, Tempo, 621762
1, 10200, Tempo, 571429
1, 10320, Tempo, 542986
1, 10440, Tempo, 621762
1, 10560, Tempo, 571429
1, 10680, Tempo, 542986
1, 10800, Tempo, 631579
1, 10920, Tempo, 585366
1, 11040, Tempo, 563380
1, 11160, Tempo, 621762
1, 11280, Tempo, 591133
1, 11400, Tempo, 566038
1, 11520, Tempo, 621762
1, 11640, Tempo, 597015
1, 11760, Tempo, 571429
1, 11880, Tempo, 621762
1, 12000, Tempo, 571429
1, 12120, Tempo, 594059
1, 12240, Tempo, 555556
1, 12360, Tempo, 594059
1, 12480, Tempo, 558140
1, 12600, Tempo, 594059
1, 12720, Tempo, 563380
1, 12840, Tempo, 574163
1, 12960, Tempo, 621762
1, 13080, Tempo, 579710
1, 13200, Tempo, 542986
1, 13320, Tempo, 621762
1, 13440, Tempo, 571429
1, 13560, Tempo, 542986
1, 13680, Tempo, 621762
1, 13800, Tempo, 571429
1, 13920, Tempo, 542986
1, 14040, Tempo, 621762
1, 14160, Tempo, 571429
1, 14280, Tempo, 542986
1, 14400, Tempo, 621762
1, 14520, Tempo, 571429
1, 14640, Tempo, 542986
1, 14760, Tempo, 621762
1, 14880, Tempo, 571429
1, 15000, Tempo, 542986
1, 15120, Tempo, 621762
1, 15240, Tempo, 571429
1, 15360, Tempo, 542986
1, 15480, Tempo, 621762
1, 15600, Tempo, 571429
1, 15720, Tempo, 542986
1, 15840, Tempo, 621762
1, 15960, Tempo, 571429
1, 16080, Tempo, 542986
1, 16200, Tempo, 621762
1, 16320, Tempo, 571429
1, 16380, Tempo, 857143
1, 16440, Tempo, 571429
1, 16560, Tempo, 621762
1, 16680, Tempo, 571429
1, 16800, Tempo, 542986
1, 16920, Tempo, 621762
1, 17040, Tempo, 571429
1, 17160, Tempo, 594059
1, 17280, Tempo, 576923
1, 17400, Tempo, 571429
1, 17520, Tempo, 542986
1, 17640, Tempo, 594059
1, 17760, Tempo, 571429
1, 17880, Tempo, 594059
1, 18000, Tempo, 576923
1, 18120, Tempo, 571429
1, 18240, Tempo, 542986
1, 18360, Tempo, 594059
1, 18480, Tempo, 571429
1, 18600, Tempo, 542986
1, 18720, Tempo, 621762
1, 18960, Tempo, 542986
1, 19080, Tempo, 621762
1, 19200, Tempo, 571429
1, 19320, Tempo, 588235
1, 19440, Tempo, 631579
1, 19560, Tempo, 603015
1, 19680, Tempo, 618557
1, 19800, Tempo, 705882
1, 19920, Tempo, 645161
1, 20040, Tempo, 579710
1, 20160, Tempo, 621762
1, 20280, Tempo, 571429
1, 20400, Tempo, 542986
1, 20520, Tempo, 621762
1, 20640, Tempo, 571429
1, 20760, Tempo, 542986
1, 20880, Tempo, 621762
1, 21000, Tempo, 571429
1, 21120, Tempo, 542986
1, 21240, Tempo, 621762
1, 21360, Tempo, 571429
1, 21480, Tempo, 542986
1, 21600, Tempo, 621762
1, 21720, Tempo, 571429
1, 21840, Tempo, 542986
1, 21960, Tempo, 621762
1, 22080, Tempo, 571429
1, 22200, Tempo, 542986
1, 22320, Tempo, 621762
1, 22440, Tempo, 571429
1, 22560, Tempo, 542986
1, 22680, Tempo, 621762
1, 22800, Tempo, 571429
1, 22920, Tempo, 542986
1, 23040, Tempo, 631579
1, 23160, Tempo, 585366
1, 23280, Tempo, 563380
1, 23400, Tempo, 621762
1, 23520, Tempo, 591133
1, 23640, Tempo, 566038
1, 23760, Tempo, 621762
1, 23880, Tempo, 597015
1, 24000, Tempo, 571429
1, 24120, Tempo, 621762
1, 24240, Tempo, 571429
1, 24360, Tempo, 594059
1, 24480, Tempo, 555556
1, 24600, Tempo, 594059
1, 24720, Tempo, 558140
1, 24840, Tempo, 594059
1, 24960, Tempo, 563380
1, 25080, Tempo, 574163
1, 25200, Tempo, 621762
1, 25320, Tempo, 579710
1, 25440, Tempo, 542986
1, 25560, Tempo, 621762
1, 25680, Tempo, 571429
1, 25800, Tempo, 542986
1, 25920, Tempo, 621762
1, 26040, Tempo, 571429
1, 26160, Tempo, 542986
1, 26280, Tempo, 621762
1, 26400, Tempo, 571429
1, 26520, Tempo, 542986
1, 26640, Tempo, 621762
1, 26760, Tempo, 571429
1, 26880, Tempo, 542986
1, 27000, Tempo, 621762
1, 27120, Tempo, 571429
1, 27240, Tempo, 542986
1, 27360, Tempo, 621762
1, 27480, Tempo, 571429
1, 27600, Tempo, 542986
1, 27720, Tempo, 621762
1, 27840, Tempo, 571429
1, 27960, Tempo, 542986
1, 28080, Tempo, 621762
1, 28200, Tempo, 571429
1, 28320, Tempo, 542986
1, 28440, Tempo, 621762
1, 28560, Tempo, 571429
1, 28620, Tempo, 857143
1, 28680, Tempo, 571429
1, 28800, Tempo, 621762
1, 28920, Tempo, 571429
1, 29040, Tempo, 542986
1, 29160, Tempo, 621762
1, 29280, Tempo, 571429
1, 29400, Tempo, 594059
1, 29520, Tempo, 576923
1, 29640, Tempo, 571429
1, 29760, Tempo, 542986
1, 29880, Tempo, 594059
1, 30000, Tempo, 571429
1, 30120, Tempo, 594059
1, 30240, Tempo, 576923
1, 30360, Tempo, 571429
1, 30480, Tempo, 542986
1, 30600, Tempo, 594059
1, 30720, Tempo, 571429
1, 30840, Tempo, 542986
1, 30960, Tempo, 621762
1, 31200, Tempo, 542986
1, 31320, Tempo, 621762
1, 31440, Tempo, 571429
1, 31560, Tempo, 588235
1, 31680, Tempo, 631579
1, 31800, Tempo, 603015
1, 31920, Tempo, 618557
1, 32040, Tempo, 705882
1, 32160, Tempo, 736196
1, 32220, Tempo, 779221
1, 32280, Tempo, 869565
1, 32340, Tempo, 754717
1, 32400, Tempo, 693642
1, 32520, Tempo, 666667
1, 32760, Tempo, 689655
1, 32880, Tempo, 674157
1, 33120, Tempo, 652174
1, 33240, Tempo, 628272
1, 33480, Tempo, 615385
1, 33780, Tempo, 655738
1, 33840, Tempo, 628272
1, 34320, Tempo, 609137
1, 34800, Tempo, 645161
1, 34920, Tempo, 681818
1, 35100, Tempo, 740741
1, 35160, Tempo, 800000
1, 35220, Tempo, 745342
1, 35280, Tempo, 689655
1, 35400, Tempo, 666667
1, 35640, Tempo, 689655
1, 35760, Tempo, 674157
1, 36000, Tempo, 652174
1, 36120, Tempo, 628272
1, 36360, Tempo, 615385
1, 36660, Tempo, 655738
1, 36720, Tempo, 628272
1, 37200, Tempo, 609137
1, 37680, Tempo, 645161
1, 37800, Tempo, 681818
1, 37950, Tempo, 845070
1, 37980, Tempo, 740741
1, 38040, Tempo, 759494
1, 38100, Tempo, 710059
1, 38160, Tempo, 677966
1, 38280, Tempo, 645161
1, 38760, Tempo, 681818
1, 38880, Tempo, 659341
1, 39000, Tempo, 621762
1, 39120, Tempo, 606061
1, 39480, Tempo, 648649
1, 39720, Tempo, 609137
1, 39840, Tempo, 594059
1, 40200, Tempo, 606061
1, 40320, Tempo, 621762
1, 40560, Tempo, 652174
1, 40680, Tempo, 600000
1, 41040, Tempo, 621762
1, 41760, Tempo, 645161
1, 42060, Tempo, 697674
1, 42120, Tempo, 628272
1, 42240, Tempo, 618557
1, 42600, Tempo, 606061
1, 42960, Tempo, 597015
1, 43200, Tempo, 609137
1, 43320, Tempo, 628272
1, 43680, Tempo, 618557
1, 44040, Tempo, 606061
1, 44280, Tempo, 612245
1, 44400, Tempo, 603015
1, 44520, Tempo, 609137
1, 44640, Tempo, 618557
1, 44760, Tempo, 631579
1, 44880, Tempo, 652174
1, 45120, Tempo, 618557
1, 45480, Tempo, 655738
1, 45600, Tempo, 645161
1, 45720, Tempo, 631579
1, 46080, Tempo, 641711
1, 46320, Tempo, 681818
1, 46440, Tempo, 648649
1, 46560, Tempo, 670391
1, 46680, Tempo, 714286
1, 46800, Tempo, 689655
1, 46920, Tempo, 705882
1, 47040, Tempo, 750000
1, 47160, Tempo, 794702
1, 47220, Tempo, 902256
1, 47280, Tempo, 1764706
1, 47340, Tempo, 1500000
1, 47400, Tempo, 697674
1, 47520, Tempo, 631579
1, 47640, Tempo, 659341
1, 47760, Tempo, 625000
1, 47880, Tempo, 652174
1, 48000, Tempo, 677966
1, 48060, Tempo, 618557
1, 48120, Tempo, 576923
1, 48240, Tempo, 628272
1, 48360, Tempo, 597015
1, 48480, Tempo, 563380
1, 48600, Tempo, 621762
1, 48720, Tempo, 571429
1, 48840, Tempo, 542986
1, 48960, Tempo, 621762
1, 49080, Tempo, 571429
1, 49200, Tempo, 542986
1, 49320, Tempo, 621762
1, 49440, Tempo, 571429
1, 49500, Tempo, 621762
1, 49560, Tempo, 542986
1, 49680, Tempo, 621762
1, 49800, Tempo, 571429
1, 49920, Tempo, 542986
1, 50040, Tempo, 621762
1, 50160, Tempo, 571429
1, 50280, Tempo, 542986
1, 50400, Tempo, 621762
1, 50520, Tempo, 571429
1, 50640, Tempo, 542986
1, 50760, Tempo, 621762
1, 50880, Tempo, 571429
1, 51120, Tempo, 621762
1, 51240, Tempo, 571429
1, 51360, Tempo, 542986
1, 51480, Tempo, 621762
1, 51600, Tempo, 571429
1, 51720, Tempo, 542986
1, 51840, Tempo, 621762
1, 51960, Tempo, 571429
1, 52080, Tempo, 542986
1, 52200, Tempo, 621762
1, 52320, Tempo, 571429
1, 52440, Tempo, 542986
1, 52560, Tempo, 621762
1, 52680, Tempo, 571429
1, 52800, Tempo, 542986
1, 52920, Tempo, 621762
1, 53040, Tempo, 571429
1, 53160, Tempo, 542986
1, 53280, Tempo, 621762
1, 53400, Tempo, 571429
1, 53520, Tempo, 542986
1, 53640, Tempo, 621762
1, 53760, Tempo, 571429
1, 53880, Tempo, 542986
1, 54000, Tempo, 631579
1, 54120, Tempo, 585366
1, 54240, Tempo, 563380
1, 54360, Tempo, 621762
1, 54480, Tempo, 591133
1, 54600, Tempo, 566038
1, 54720, Tempo, 621762
1, 54840, Tempo, 597015
1, 54960, Tempo, 571429
1, 55080, Tempo, 621762
1, 55200, Tempo, 571429
1, 55320, Tempo, 594059
1, 55440, Tempo, 555556
1, 55560, Tempo, 594059
1, 55680, Tempo, 558140
1, 55800, Tempo, 594059
1, 55920, Tempo, 563380
1, 56040, Tempo, 574163
1, 56160, Tempo, 621762
1, 56280, Tempo, 579710
1, 56400, Tempo, 542986
1, 56520, Tempo, 621762
1, 56640, Tempo, 571429
1, 56760, Tempo, 542986
1, 56880, Tempo, 621762
1, 57000, Tempo, 571429
1, 57120, Tempo, 542986
1, 57240, Tempo, 621762
1, 57360, Tempo, 571429
1, 57480, Tempo, 542986
1, 57600, Tempo, 621762
1, 57720, Tempo, 571429
1, 57840, Tempo, 542986
1, 57960, Tempo, 621762
1, 58080, Tempo, 571429
1, 58200, Tempo, 542986
1, 58320, Tempo, 621762
1, 58440, Tempo, 571429
1, 58560, Tempo, 542986
1, 58680, Tempo, 621762
1, 58800, Tempo, 571429
1, 58920, Tempo, 542986
1, 59040, Tempo, 621762
1, 59160, Tempo, 571429
1, 59280, Tempo, 542986
1, 59400, Tempo, 621762
1, 59520, Tempo, 571429
1, 59580, Tempo, 857143
1, 59640, Tempo, 571429
1, 59760, Tempo, 621762
1, 59880, Tempo, 571429
1, 60000, Tempo, 542986
1, 60120, Tempo, 621762
1, 60240, Tempo, 571429
1, 60360, Tempo, 594059
1, 60480, Tempo, 576923
1, 60600, Tempo, 571429
1, 60720, Tempo, 542986
1, 60840, Tempo, 594059
1, 60960, Tempo, 571429
1, 61080, Tempo, 594059
1, 61200, Tempo, 576923
1, 61320, Tempo, 571429
1, 61440, Tempo, 542986
1, 61560, Tempo, 594059
1, 61680, Tempo, 571429
1, 61800, Tempo, 542986
1, 61920, Tempo, 621762
1, 62160, Tempo, 603015
1, 62280, Tempo, 641711
1, 62400, Tempo, 631579
1, 62520, Tempo, 659341
1, 62640, Tempo, 685714
1, 62760, Tempo, 714286
1, 62880, Tempo, 740741
1, 63000, Tempo, 774194
1, 63120, Tempo, 1363636
1, 63240, Tempo, 600000
1, 63240, End_track
2, 0, Start_track
2, 0, MIDI_port, 0
2, 0, Title_t, "2 Flauti"
2, 0, Program_c, 0, 73
2, 0, Control_c, 0, 10, 52
2, 1, Control_c, 0, 121, 0
2, 6, Program_c, 0, 73
2, 11, Pitch_bend_c, 0, 8192
2, 16, Control_c, 0, 11, 75
2, 21, Control_c, 0, 7, 127
2, 26, Control_c, 0, 91, 54
2, 31, Control_c, 0, 93, 0
2, 3121, Control_c, 0, 11, 85
2, 3121, Note_on_c, 0, 84, 101
2, 3121, Note_on_c, 0, 72, 101
2, 3181, Note_on_c, 0, 72, 0
2, 3181, Note_on_c, 0, 84, 0
2, 3241, Control_c, 0, 11, 95
2, 3241, Note_on_c, 0, 77, 101
2, 3241, Note_on_c, 0, 89, 101
2, 3262, Control_c, 0, 11, 91
2, 3286, Control_c, 0, 11, 87
2, 3471, Note_on_c, 0, 89, 0
2, 3471, Note_on_c, 0, 77, 0
2, 3481, Note_on_c, 0, 84, 101
2, 3541, Note_on_c, 0, 84, 0
2, 3541, Note_on_c, 0, 85, 101
2, 3601, Note_on_c, 0, 85, 0
2, 3601, Note_on_c, 0, 88, 101
2, 3661, Note_on_c, 0, 88, 0
2, 3661, Note_on_c, 0, 86, 101
2, 3721, Note_on_c, 0, 86, 0
2, 3721, Note_on_c, 0, 79, 101
2, 3781, Note_on_c, 0, 79, 0
2, 3781, Note_on_c, 0, 81, 101
2, 3841, Note_on_c, 0, 81, 0
2, 3841, Note_on_c, 0, 82, 101
2, 3901, Note_on_c, 0, 82, 0
2, 3901, Note_on_c, 0, 76, 101
2, 3951, Note_on_c, 0, 76, 0
2, 3961, Note_on_c, 0, 76, 101
2, 4021, Note_on_c, 0, 76, 0
2, 4021, Note_on_c, 0, 84, 101
2, 4081, Note_on_c, 0, 84, 0
2, 4081, Note_on_c, 0, 77, 101
2, 4141, Note_on_c, 0, 77, 0
2, 6721, Control_c, 0, 11, 85
2, 6721, Note_on_c, 0, 84, 101
2, 6721, Note_on_c, 0, 72, 101
2, 6781, Note_on_c, 0, 72, 0
2, 6781, Note_on_c, 0, 84, 0
2, 6841, Control_c, 0, 11, 95
2, 6841, Note_on_c, 0, 77, 101
2, 6841, Note_on_c, 0, 89, 101
2, 6862, Control_c, 0, 11, 91
2, 6886, Control_c, 0, 11, 87
2, 7071, Note_on_c, 0, 89, 0
2, 7071, Note_on_c, 0, 77, 0
2, 7081, Note_on_c, 0, 84, 101
2, 7141, Note_on_c, 0, 84, 0
2, 7141, Note_on_c, 0, 85, 101
2, 7201, Note_on_c, 0, 85, 0
2, 7201, Note_on_c, 0, 88, 101
2, 7261, Note_on_c, 0, 88, 0
2, 7261, Note_on_c, 0, 86, 101
2, 7321, Note_on_c, 0, 86, 0
2, 7321, Note_on_c, 0, 79, 101
2, 7381, Note_on_c, 0, 79, 0
2, 7381, Note_on_c, 0, 81, 101
2, 7441, Note_on_c, 0, 81, 0
2, 7441, Note_on_c, 0, 82, 101
2, 7501, Note_on_c, 0, 82, 0
2, 7501, Note_on_c, 0, 76, 101
2, 7551, Note_on_c, 0, 76, 0
2, 7561, Note_on_c, 0, 76, 101
2, 7621, Note_on_c, 0, 76, 0
2, 7621, Note_on_c, 0, 84, 101
2, 7681, Note_on_c, 0, 84, 0
2, 7681, Note_on_c, 0, 77, 101
2, 7741, Note_on_c, 0, 77, 0
2, 9241, Control_c, 0, 11, 85
2, 9241, Note_on_c, 0, 88, 101
2, 9241, Note_on_c, 0, 84, 101
2, 9265, Control_c, 0, 11, 81
2, 9289, Control_c, 0, 11, 77
2, 9301, Note_on_c, 0, 84, 0
2, 9301, Note_on_c, 0, 88, 0
2, 9361, Control_c, 0, 11, 85
2, 9361, Note_on_c, 0, 86, 101
2, 9385, Control_c, 0, 11, 81
2, 9409, Control_c, 0, 11, 77
2, 9421, Note_on_c, 0, 86, 0
2, 9481, Note_on_c, 0, 86, 101
2, 9541, Note_on_c, 0, 86, 0
2, 9721, Control_c, 0, 11, 85
2, 9721, Note_on_c, 0, 88, 101
2, 9721, Note_on_c, 0, 84, 101
2, 9745, Control_c, 0, 11, 81
2, 9769, Control_c, 0, 11, 77
2, 9781, Note_on_c, 0, 84, 0
2, 9781, Note_on_c, 0, 88, 0
2, 9841, Note_on_c, 0, 88, 101
2, 9841, Note_on_c, 0, 84, 101
2, 9901, Note_on_c, 0, 84, 0
2, 9901, Note_on_c, 0, 88, 0
2, 10081, Control_c, 0, 11, 85
2, 10081, Note_on_c, 0, 88, 101
2, 10081, Note_on_c, 0, 84, 101
2, 10105, Control_c, 0, 11, 81
2, 10129, Control_c, 0, 11, 77
2, 10141, Note_on_c, 0, 84, 0
2, 10141, Note_on_c, 0, 88, 0
2, 10201, Note_on_c, 0, 88, 101
2, 10201, Note_on_c, 0, 84, 101
2, 10261, Note_on_c, 0, 84, 0
2, 10261, Note_on_c, 0, 88, 0
2, 10441, Control_c, 0, 11, 85
2, 10441, Note_on_c, 0, 89, 101
2, 10441, Note_on_c, 0, 84, 101
2, 10465, Control_c, 0, 11, 81
2, 10489, Control_c, 0, 11, 77
2, 10501, Note_on_c, 0, 84, 0
2, 10501, Note_on_c, 0, 89, 0
2, 10561, Note_on_c, 0, 89, 101
2, 10561, Note_on_c, 0, 84, 101
2, 10621, Note_on_c, 0, 84, 0
2, 10621, Note_on_c, 0, 89, 0
2, 10681, Control_c, 0, 11, 70
2, 10681, Note_on_c, 0, 84, 101
2, 10741, Note_on_c, 0, 84, 0
2, 10801, Control_c, 0, 11, 72
2, 10801, Note_on_c, 0, 89, 73
2, 10807, Control_c, 0, 11, 71
2, 10813, Control_c, 0, 11, 70
2, 10819, Control_c, 0, 11, 69
2, 10825, Control_c, 0, 11, 68
2, 10831, Control_c, 0, 11, 67
2, 10837, Control_c, 0, 11, 66
2, 10843, Control_c, 0, 11, 65
2, 10849, Control_c, 0, 11, 64
2, 10855, Control_c, 0, 11, 63
2, 10861, Control_c, 0, 11, 62
2, 10867, Control_c, 0, 11, 61
2, 10873, Control_c, 0, 11, 60
2, 10879, Control_c, 0, 11, 59
2, 10885, Control_c, 0, 11, 58
2, 10891, Control_c, 0, 11, 57
2, 10897, Control_c, 0, 11, 56
2, 10903, Control_c, 0, 11, 55
2, 10909, Control_c, 0, 11, 54
2, 10915, Control_c, 0, 11, 53
2, 10921, Control_c, 0, 11, 52
2, 10937, Control_c, 0, 11, 51
2, 10953, Control_c, 0, 11, 50
2, 10969, Control_c, 0, 11, 49
2, 10981, Note_on_c, 0, 89, 0
2, 10981, Note_on_c, 0, 87, 73
2, 10985, Control_c, 0, 11, 48
2, 11001, Control_c, 0, 11, 47
2, 11017, Control_c, 0, 11, 46
2, 11033, Control_c, 0, 11, 45
2, 11041, Note_on_c, 0, 87, 0
2, 11041, Note_on_c, 0, 84, 73
2, 11049, Control_c, 0, 11, 44
2, 11065, Control_c, 0, 11, 43
2, 11081, Control_c, 0, 11, 42
2, 11097, Control_c, 0, 11, 41
2, 11101, Note_on_c, 0, 84, 0
2, 11101, Note_on_c, 0, 81, 73
2, 11113, Control_c, 0, 11, 40
2, 11129, Control_c, 0, 11, 39
2, 11145, Control_c, 0, 11, 38
2, 11161, Note_on_c, 0, 81, 0
2, 11161, Control_c, 0, 11, 37
2, 11401, Control_c, 0, 11, 47
2, 11401, Note_on_c, 0, 89, 73
2, 11457, Control_c, 0, 11, 46
2, 11461, Note_on_c, 0, 89, 0
2, 11461, Note_on_c, 0, 87, 73
2, 11513, Control_c, 0, 11, 45
2, 11521, Note_on_c, 0, 87, 0
2, 11521, Note_on_c, 0, 84, 73
2, 11569, Control_c, 0, 11, 44
2, 11581, Note_on_c, 0, 84, 0
2, 11581, Note_on_c, 0, 81, 73
2, 11625, Control_c, 0, 11, 43
2, 11641, Note_on_c, 0, 81, 0
2, 11681, Control_c, 0, 11, 42
2, 11737, Control_c, 0, 11, 41
2, 11793, Control_c, 0, 11, 40
2, 11849, Control_c, 0, 11, 39
2, 11881, Note_on_c, 0, 89, 73
2, 11905, Control_c, 0, 11, 38
2, 11941, Note_on_c, 0, 89, 0
2, 11941, Note_on_c, 0, 87, 73
2, 11961, Control_c, 0, 11, 37
2, 12001, Note_on_c, 0, 87, 0
2, 12001, Note_on_c, 0, 84, 73
2, 12017, Control_c, 0, 11, 36
2, 12061, Note_on_c, 0, 84, 0
2, 12061, Note_on_c, 0, 81, 73
2, 12073, Control_c, 0, 11, 35
2, 12121, Note_on_c, 0, 81, 0
2, 12129, Control_c, 0, 11, 34
2, 12185, Control_c, 0, 11, 33
2, 12241, Control_c, 0, 11, 32
2, 14281, Control_c, 0, 11, 49
2, 14281, Note_on_c, 0, 81, 101
2, 14281, Note_on_c, 0, 69, 101
2, 14321, Control_c, 0, 11, 50
2, 14341, Note_on_c, 0, 69, 0
2, 14341, Note_on_c, 0, 81, 0
2, 14361, Control_c, 0, 11, 51
2, 14401, Control_c, 0, 11, 52
2, 14401, Note_on_c, 0, 84, 101
2, 14401, Note_on_c, 0, 72, 101
2, 14430, Control_c, 0, 11, 53
2, 14459, Control_c, 0, 11, 54
2, 14461, Note_on_c, 0, 72, 0
2, 14461, Note_on_c, 0, 84, 0
2, 14488, Control_c, 0, 11, 55
2, 14517, Control_c, 0, 11, 56
2, 14546, Control_c, 0, 11, 57
2, 14575, Control_c, 0, 11, 57
2, 14605, Control_c, 0, 11, 58
2, 14634, Control_c, 0, 11, 59
2, 14663, Control_c, 0, 11, 60
2, 14692, Control_c, 0, 11, 60
2, 14721, Control_c, 0, 11, 61
2, 14750, Control_c, 0, 11, 62
2, 14779, Control_c, 0, 11, 63
2, 14809, Control_c, 0, 11, 63
2, 14838, Control_c, 0, 11, 64
2, 14867, Control_c, 0, 11, 65
2, 14896, Control_c, 0, 11, 66
2, 14925, Control_c, 0, 11, 66
2, 14954, Control_c, 0, 11, 67
2, 14983, Control_c, 0, 11, 67
2, 15001, Note_on_c, 0, 84, 101
2, 15013, Control_c, 0, 11, 68
2, 15042, Control_c, 0, 11, 68
2, 15061, Note_on_c, 0, 84, 0
2, 15061, Note_on_c, 0, 85, 101
2, 15071, Control_c, 0, 11, 69
2, 15100, Control_c, 0, 11, 69
2, 15121, Note_on_c, 0, 85, 0
2, 15121, Note_on_c, 0, 88, 101
2, 15129, Control_c, 0, 11, 70
2, 15158, Control_c, 0, 11, 70
2, 15181, Note_on_c, 0, 88, 0
2, 15181, Note_on_c, 0, 86, 101
2, 15187, Control_c, 0, 11, 71
2, 15217, Control_c, 0, 11, 71
2, 15241, Note_on_c, 0, 86, 0
2, 15241, Note_on_c, 0, 79, 101
2, 15246, Control_c, 0, 11, 72
2, 15275, Control_c, 0, 11, 72
2, 15301, Note_on_c, 0, 79, 0
2, 15301, Note_on_c, 0, 81, 101
2, 15304, Control_c, 0, 11, 73
2, 15333, Control_c, 0, 11, 73
2, 15361, Note_on_c, 0, 81, 0
2, 15361, Note_on_c, 0, 82, 101
2, 15362, Control_c, 0, 11, 74
2, 15391, Control_c, 0, 11, 74
2, 15416, Note_on_c, 0, 82, 0
2, 15421, Control_c, 0, 11, 75
2, 15421, Note_on_c, 0, 83, 101
2, 15476, Note_on_c, 0, 83, 0
2, 15481, Control_c, 0, 11, 80
2, 15481, Note_on_c, 0, 83, 101
2, 15601, Note_on_c, 0, 83, 0
2, 15601, Note_on_c, 0, 84, 101
2, 15661, Note_on_c, 0, 84, 0
2, 15661, Note_on_c, 0, 86, 101
2, 15721, Note_on_c, 0, 86, 0
2, 15721, Note_on_c, 0, 87, 101
2, 15776, Note_on_c, 0, 87, 0
2, 15781, Note_on_c, 0, 88, 101
2, 15836, Note_on_c, 0, 88, 0
2, 15841, Note_on_c, 0, 88, 101
2, 15961, Note_on_c, 0, 88, 0
2, 15961, Note_on_c, 0, 77, 101
2, 15961, Note_on_c, 0, 89, 101
2, 16016, Note_on_c, 0, 89, 0
2, 16016, Note_on_c, 0, 77, 0
2, 16021, Note_on_c, 0, 89, 101
2, 16021, Note_on_c, 0, 77, 101
2, 16136, Note_on_c, 0, 77, 0
2, 16136, Note_on_c, 0, 89, 0
2, 16141, Control_c, 0, 11, 83
2, 16141, Note_on_c, 0, 89, 101
2, 16141, Note_on_c, 0, 77, 101
2, 16256, Note_on_c, 0, 77, 0
2, 16256, Note_on_c, 0, 89, 0
2, 16261, Note_on_c, 0, 89, 101
2, 16261, Note_on_c, 0, 77, 101
2, 16381, Note_on_c, 0, 77, 0
2, 16381, Note_on_c, 0, 89, 0
2, 16501, Control_c, 0, 11, 42
2, 16501, Note_on_c, 0, 85, 101
2, 16501, Note_on_c, 0, 81, 101
2, 16556, Note_on_c, 0, 81, 0
2, 16556, Note_on_c, 0, 85, 0
2, 16561, Note_on_c, 0, 85, 101
2, 16561, Note_on_c, 0, 81, 101
2, 16681, Note_on_c, 0, 81, 0
2, 16681, Note_on_c, 0, 85, 0
2, 16681, Note_on_c, 0, 86, 101
2, 16681, Note_on_c, 0, 82, 101
2, 16741, Note_on_c, 0, 82, 0
2, 16741, Note_on_c, 0, 86, 0
2, 17761, Control_c, 0, 11, 75
2, 17761, Note_on_c, 0, 84, 101
2, 17761, Note_on_c, 0, 72, 101
2, 17821, Note_on_c, 0, 72, 0
2, 17821, Note_on_c, 0, 84, 0
2, 17881, Control_c, 0, 11, 85
2, 17881, Note_on_c, 0, 89, 111
2, 17881, Note_on_c, 0, 77, 111
2, 17905, Control_c, 0, 11, 81
2, 17929, Control_c, 0, 11, 77
2, 18061, Note_on_c, 0, 77, 0
2, 18061, Note_on_c, 0, 89, 0
2, 18481, Note_on_c, 0, 84, 101
2, 18541, Note_on_c, 0, 84, 0
2, 18601, Control_c, 0, 11, 85
2, 18601, Note_on_c, 0, 88, 101
2, 18601, Note_on_c, 0, 84, 101
2, 18625, Control_c, 0, 11, 81
2, 18649, Control_c, 0, 11, 77
2, 18721, Note_on_c, 0, 84, 0
2, 18721, Note_on_c, 0, 88, 0
2, 18721, Note_on_c, 0, 89, 101
2, 18721, Note_on_c, 0, 84, 101
2, 18781, Note_on_c, 0, 84, 0
2, 18781, Note_on_c, 0, 89, 0
2, 19081, Control_c, 0, 11, 85
2, 19081, Note_on_c, 0, 84, 101
2, 19081, Note_on_c, 0, 88, 101
2, 19105, Control_c, 0, 11, 81
2, 19129, Control_c, 0, 11, 77
2, 19201, Note_on_c, 0, 88, 0
2, 19201, Note_on_c, 0, 84, 0
2, 19201, Note_on_c, 0, 89, 101
2, 19201, Note_on_c, 0, 84, 101
2, 19261, Note_on_c, 0, 84, 0
2, 19261, Note_on_c, 0, 89, 0
2, 19681, Control_c, 0, 11, 90
2, 19681, Note_on_c, 0, 84, 101
2, 19681, Note_on_c, 0, 88, 101
2, 19705, Control_c, 0, 11, 86
2, 19729, Control_c, 0, 11, 82
2, 19921, Note_on_c, 0, 88, 0
2, 19921, Note_on_c, 0, 89, 101
2, 19981, Note_on_c, 0, 89, 0
2, 19981, Note_on_c, 0, 84, 0
2, 21481, Control_c, 0, 11, 85
2, 21481, Note_on_c, 0, 88, 101
2, 21481, Note_on_c, 0, 84, 101
2, 21505, Control_c, 0, 11, 81
2, 21529, Control_c, 0, 11, 77
2, 21541, Note_on_c, 0, 84, 0
2, 21541, Note_on_c, 0, 88, 0
2, 21601, Control_c, 0, 11, 85
2, 21601, Note_on_c, 0, 86, 101
2, 21625, Control_c, 0, 11, 81
2, 21649, Control_c, 0, 11, 77
2, 21661, Note_on_c, 0, 86, 0
2, 21721, Note_on_c, 0, 86, 101
2, 21781, Note_on_c, 0, 86, 0
2, 21961, Control_c, 0, 11, 85
2, 21961, Note_on_c, 0, 88, 101
2, 21961, Note_on_c, 0, 84, 101
2, 21985, Control_c, 0, 11, 81
2, 22009, Control_c, 0, 11, 77
2, 22021, Note_on_c, 0, 84, 0
2, 22021, Note_on_c, 0, 88, 0
2, 22081, Note_on_c, 0, 88, 101
2, 22081, Note_on_c, 0, 84, 101
2, 22141, Note_on_c, 0, 84, 0
2, 22141, Note_on_c, 0, 88, 0
2, 22321, Control_c, 0, 11, 85
2, 22321, Note_on_c, 0, 88, 101
2, 22321, Note_on_c, 0, 84, 101
2, 22345, Control_c, 0, 11, 81
2, 22369, Control_c, 0, 11, 77
2, 22381, Note_on_c, 0, 84, 0
2, 22381, Note_on_c, 0, 88, 0
2, 22441, Note_on_c, 0, 88, 101
2, 22441, Note_on_c, 0, 84, 101
2, 22501, Note_on_c, 0, 84, 0
2, 22501, Note_on_c, 0, 88, 0
2, 22681, Control_c, 0, 11, 85
2, 22681, Note_on_c, 0, 89, 101
2, 22681, Note_on_c, 0, 84, 101
2, 22705, Control_c, 0, 11, 81
2, 22729, Control_c, 0, 11, 77
2, 22741, Note_on_c, 0, 84, 0
2, 22741, Note_on_c, 0, 89, 0
2, 22801, Note_on_c, 0, 89, 101
2, 22801, Note_on_c, 0, 84, 101
2, 22861, Note_on_c, 0, 84, 0
2, 22861, Note_on_c, 0, 89, 0
2, 22921, Control_c, 0, 11, 70
2, 22921, Note_on_c, 0, 84, 101
2, 22981, Note_on_c, 0, 84, 0
2, 23041, Note_on_c, 0, 89, 73
2, 23041, Control_c, 0, 11, 72
2, 23047, Control_c, 0, 11, 71
2, 23053, Control_c, 0, 11, 70
2, 23059, Control_c, 0, 11, 69
2, 23065, Control_c, 0, 11, 68
2, 23071, Control_c, 0, 11, 67
2, 23077, Control_c, 0, 11, 66
2, 23083, Control_c, 0, 11, 65
2, 23089, Control_c, 0, 11, 64
2, 23095, Control_c, 0, 11, 63
2, 23101, Control_c, 0, 11, 62
2, 23107, Control_c, 0, 11, 61
2, 23113, Control_c, 0, 11, 60
2, 23119, Control_c, 0, 11, 59
2, 23125, Control_c, 0, 11, 58
2, 23131, Control_c, 0, 11, 57
2, 23137, Control_c, 0, 11, 56
2, 23143, Control_c, 0, 11, 55
2, 23149, Control_c, 0, 11, 54
2, 23155, Control_c, 0, 11, 53
2, 23161, Control_c, 0, 11, 52
2, 23177, Control_c, 0, 11, 51
2, 23193, Control_c, 0, 11, 50
2, 23209, Control_c, 0, 11, 49
2, 23221, Note_on_c, 0, 89, 0
2, 23221, Note_on_c, 0, 87, 73
2, 23225, Control_c, 0, 11, 48
2, 23241, Control_c, 0, 11, 47
2, 23257, Control_c, 0, 11, 46
2, 23273, Control_c, 0, 11, 45
2, 23281, Note_on_c, 0, 87, 0
2, 23281, Note_on_c, 0, 84, 73
2, 23289, Control_c, 0, 11, 44
2, 23305, Control_c, 0, 11, 43
2, 23321, Control_c, 0, 11, 42
2, 23337, Control_c, 0, 11, 41
2, 23341, Note_on_c, 0, 84, 0
2, 23341, Note_on_c, 0, 81, 73
2, 23353, Control_c, 0, 11, 40
2, 23369, Control_c, 0, 11, 39
2, 23385, Control_c, 0, 11, 38
2, 23401, Note_on_c, 0, 81, 0
2, 23401, Control_c, 0, 11, 37
2, 23641, Control_c, 0, 11, 47
2, 23641, Note_on_c, 0, 89, 73
2, 23697, Control_c, 0, 11, 46
2, 23701, Note_on_c, 0, 89, 0
2, 23701, Note_on_c, 0, 87, 73
2, 23753, Control_c, 0, 11, 45
2, 23761, Note_on_c, 0, 87, 0
2, 23761, Note_on_c, 0, 84, 73
2, 23809, Control_c, 0, 11, 44
2, 23821, Note_on_c, 0, 84, 0
2, 23821, Note_on_c, 0, 81, 73
2, 23865, Control_c, 0, 11, 43
2, 23881, Note_on_c, 0, 81, 0
2, 23921, Control_c, 0, 11, 42
2, 23977, Control_c, 0, 11, 41
2, 24033, Control_c, 0, 11, 40
2, 24089, Control_c, 0, 11, 39
2, 24121, Note_on_c, 0, 89, 73
2, 24145, Control_c, 0, 11, 38
2, 24181, Note_on_c, 0, 89, 0
2, 24181, Note_on_c, 0, 87, 73
2, 24201, Control_c, 0, 11, 37
2, 24241, Note_on_c, 0, 87, 0
2, 24241, Note_on_c, 0, 84, 73
2, 24257, Control_c, 0, 11, 36
2, 24301, Note_on_c, 0, 84, 0
2, 24301, Note_on_c, 0, 81, 73
2, 24313, Control_c, 0, 11, 35
2, 24361, Note_on_c, 0, 81, 0
2, 24369, Control_c, 0, 11, 34
2, 24425, Control_c, 0, 11, 33
2, 24481, Control_c, 0, 11, 32
2, 26521, Control_c, 0, 11, 49
2, 26521, Note_on_c, 0, 81, 101
2, 26521, Note_on_c, 0, 69, 101
2, 26561, Control_c, 0, 11, 50
2, 26581, Note_on_c, 0, 69, 0
2, 26581, Note_on_c, 0, 81, 0
2, 26601, Control_c, 0, 11, 51
2, 26641, Note_on_c, 0, 84, 101
2, 26641, Control_c, 0, 11, 52
2, 26641, Note_on_c, 0, 72, 101
2, 26670, Control_c, 0, 11, 53
2, 26699, Control_c, 0, 11, 54
2, 26701, Note_on_c, 0, 72, 0
2, 26701, Note_on_c, 0, 84, 0
2, 26728, Control_c, 0, 11, 55
2, 26757, Control_c, 0, 11, 56
2, 26786, Control_c, 0, 11, 57
2, 26815, Control_c, 0, 11, 57
2, 26845, Control_c, 0, 11, 58
2, 26874, Control_c, 0, 11, 59
2, 26903, Control_c, 0, 11, 60
2, 26932, Control_c, 0, 11, 60
2, 26961, Control_c, 0, 11, 61
2, 26990, Control_c, 0, 11, 62
2, 27019, Control_c, 0, 11, 63
2, 27049, Control_c, 0, 11, 63
2, 27078, Control_c, 0, 11, 64
2, 27107, Control_c, 0, 11, 65
2, 27136, Control_c, 0, 11, 66
2, 27165, Control_c, 0, 11, 66
2, 27194, Control_c, 0, 11, 67
2, 27223, Control_c, 0, 11, 67
2, 27241, Note_on_c, 0, 84, 101
2, 27253, Control_c, 0, 11, 68
2, 27282, Control_c, 0, 11, 68
2, 27301, Note_on_c, 0, 84, 0
2, 27301, Note_on_c, 0, 85, 101
2, 27311, Control_c, 0, 11, 69
2, 27340, Control_c, 0, 11, 69
2, 27361, Note_on_c, 0, 85, 0
2, 27361, Note_on_c, 0, 88, 101
2, 27369, Control_c, 0, 11, 70
2, 27398, Control_c, 0, 11, 70
2, 27421, Note_on_c, 0, 88, 0
2, 27421, Note_on_c, 0, 86, 101
2, 27427, Control_c, 0, 11, 71
2, 27457, Control_c, 0, 11, 71
2, 27481, Note_on_c, 0, 86, 0
2, 27481, Note_on_c, 0, 79, 101
2, 27486, Control_c, 0, 11, 72
2, 27515, Control_c, 0, 11, 72
2, 27541, Note_on_c, 0, 79, 0
2, 27541, Note_on_c, 0, 81, 101
2, 27544, Control_c, 0, 11, 73
2, 27573, Control_c, 0, 11, 73
2, 27601, Note_on_c, 0, 81, 0
2, 27601, Note_on_c, 0, 82, 101
2, 27602, Control_c, 0, 11, 74
2, 27631, Control_c, 0, 11, 74
2, 27656, Note_on_c, 0, 82, 0
2, 27661, Control_c, 0, 11, 75
2, 27661, Note_on_c, 0, 83, 101
2, 27716, Note_on_c, 0, 83, 0
2, 27721, Note_on_c, 0, 83, 101
2, 27721, Control_c, 0, 11, 80
2, 27841, Note_on_c, 0, 83, 0
2, 27841, Note_on_c, 0, 84, 101
2, 27901, Note_on_c, 0, 84, 0
2, 27901, Note_on_c, 0, 86, 101
2, 27961, Note_on_c, 0, 86, 0
2, 27961, Note_on_c, 0, 87, 101
2, 28016, Note_on_c, 0, 87, 0
2, 28021, Note_on_c, 0, 88, 101
2, 28076, Note_on_c, 0, 88, 0
2, 28081, Note_on_c, 0, 88, 101
2, 28201, Note_on_c, 0, 88, 0
2, 28201, Note_on_c, 0, 77, 101
2, 28201, Note_on_c, 0, 89, 101
2, 28256, Note_on_c, 0, 89, 0
2, 28256, Note_on_c, 0, 77, 0
2, 28261, Note_on_c, 0, 89, 101
2, 28261, Note_on_c, 0, 77, 101
2, 28376, Note_on_c, 0, 77, 0
2, 28376, Note_on_c, 0, 89, 0
2, 28381, Note_on_c, 0, 89, 101
2, 28381, Note_on_c, 0, 77, 101
2, 28381, Control_c, 0, 11, 83
2, 28496, Note_on_c, 0, 77, 0
2, 28496, Note_on_c, 0, 89, 0
2, 28501, Note_on_c, 0, 89, 101
2, 28501, Note_on_c, 0, 77, 101
2, 28621, Note_on_c, 0, 77, 0
2, 28621, Note_on_c, 0, 89, 0
2, 28741, Control_c, 0, 11, 42
2, 28741, Note_on_c, 0, 85, 101
2, 28741, Note_on_c, 0, 81, 101
2, 28796, Note_on_c, 0, 81, 0
2, 28796, Note_on_c, 0, 85, 0
2, 28801, Note_on_c, 0, 81, 101
2, 28801, Note_on_c, 0, 85, 101
2, 28921, Note_on_c, 0, 85, 0
2, 28921, Note_on_c, 0, 81, 0
2, 28921, Note_on_c, 0, 82, 101
2, 28921, Note_on_c, 0, 86, 101
2, 28981, Note_on_c, 0, 86, 0
2, 28981, Note_on_c, 0, 82, 0
2, 30001, Control_c, 0, 11, 75
2, 30001, Note_on_c, 0, 84, 101
2, 30001, Note_on_c, 0, 72, 101
2, 30061, Note_on_c, 0, 72, 0
2, 30061, Note_on_c, 0, 84, 0
2, 30121, Control_c, 0, 11, 85
2, 30121, Note_on_c, 0, 89, 111
2, 30121, Note_on_c, 0, 77, 111
2, 30145, Control_c, 0, 11, 81
2, 30169, Control_c, 0, 11, 77
2, 30301, Note_on_c, 0, 77, 0
2, 30301, Note_on_c, 0, 89, 0
2, 30721, Note_on_c, 0, 84, 101
2, 30781, Note_on_c, 0, 84, 0
2, 30841, Note_on_c, 0, 88, 101
2, 30841, Control_c, 0, 11, 85
2, 30841, Note_on_c, 0, 84, 101
2, 30865, Control_c, 0, 11, 81
2, 30889, Control_c, 0, 11, 77
2, 30961, Note_on_c, 0, 84, 0
2, 30961, Note_on_c, 0, 88, 0
2, 30961, Note_on_c, 0, 89, 101
2, 30961, Note_on_c, 0, 84, 101
2, 31021, Note_on_c, 0, 84, 0
2, 31021, Note_on_c, 0, 89, 0
2, 31321, Note_on_c, 0, 84, 101
2, 31321, Note_on_c, 0, 88, 101
2, 31321, Control_c, 0, 11, 85
2, 31345, Control_c, 0, 11, 81
2, 31369, Control_c, 0, 11, 77
2, 31441, Note_on_c, 0, 88, 0
2, 31441, Note_on_c, 0, 84, 0
2, 31441, Note_on_c, 0, 84, 101
2, 31441, Note_on_c, 0, 89, 101
2, 31501, Note_on_c, 0, 89, 0
2, 31501, Note_on_c, 0, 84, 0
2, 31921, Note_on_c, 0, 84, 101
2, 31921, Note_on_c, 0, 88, 101
2, 31921, Control_c, 0, 11, 90
2, 31945, Control_c, 0, 11, 86
2, 31969, Control_c, 0, 11, 82
2, 32161, Note_on_c, 0, 88, 0
2, 32161, Note_on_c, 0, 89, 101
2, 32221, Note_on_c, 0, 89, 0
2, 32221, Note_on_c, 0, 84, 0
2, 49921, Note_on_c, 0, 72, 101
2, 49921, Note_on_c, 0, 84, 101
2, 49921, Control_c, 0, 11, 85
2, 49981, Note_on_c, 0, 84, 0
2, 49981, Note_on_c, 0, 72, 0
2, 50041, Note_on_c, 0, 77, 101
2, 50041, Note_on_c, 0, 89, 101
2, 50041, Control_c, 0, 11, 95
2, 50062, Control_c, 0, 11, 91
2, 50086, Control_c, 0, 11, 87
2, 50271, Note_on_c, 0, 89, 0
2, 50271, Note_on_c, 0, 77, 0
2, 50281, Note_on_c, 0, 84, 101
2, 50341, Note_on_c, 0, 84, 0
2, 50341, Note_on_c, 0, 85, 101
2, 50401, Note_on_c, 0, 85, 0
2, 50401, Note_on_c, 0, 88, 101
2, 50461, Note_on_c, 0, 88, 0
2, 50461, Note_on_c, 0, 86, 101
2, 50521, Note_on_c, 0, 86, 0
2, 50521, Note_on_c, 0, 79, 101
2, 50581, Note_on_c, 0, 79, 0
2, 50581, Note_on_c, 0, 81, 101
2, 50641, Note_on_c, 0, 81, 0
2, 50641, Note_on_c, 0, 82, 101
2, 50701, Note_on_c, 0, 82, 0
2, 50701, Note_on_c, 0, 76, 101
2, 50751, Note_on_c, 0, 76, 0
2, 50761, Note_on_c, 0, 76, 101
2, 50821, Note_on_c, 0, 76, 0
2, 50821, Note_on_c, 0, 84, 101
2, 50881, Note_on_c, 0, 84, 0
2, 50881, Note_on_c, 0, 77, 101
2, 50941, Note_on_c, 0, 77, 0
2, 52441, Note_on_c, 0, 84, 101
2, 52441, Note_on_c, 0, 88, 101
2, 52441, Control_c, 0, 11, 85
2, 52465, Control_c, 0, 11, 81
2, 52489, Control_c, 0, 11, 77
2, 52501, Note_on_c, 0, 88, 0
2, 52501, Note_on_c, 0, 84, 0
2, 52561, Note_on_c, 0, 86, 101
2, 52561, Control_c, 0, 11, 85
2, 52585, Control_c, 0, 11, 81
2, 52609, Control_c, 0, 11, 77
2, 52621, Note_on_c, 0, 86, 0
2, 52681, Note_on_c, 0, 86, 101
2, 52741, Note_on_c, 0, 86, 0
2, 52921, Note_on_c, 0, 84, 101
2, 52921, Control_c, 0, 11, 85
2, 52921, Note_on_c, 0, 88, 101
2, 52945, Control_c, 0, 11, 81
2, 52969, Control_c, 0, 11, 77
2, 52981, Note_on_c, 0, 88, 0
2, 52981, Note_on_c, 0, 84, 0
2, 53041, Note_on_c, 0, 88, 101
2, 53041, Note_on_c, 0, 84, 101
2, 53101, Note_on_c, 0, 84, 0
2, 53101, Note_on_c, 0, 88, 0
2, 53281, Note_on_c, 0, 88, 101
2, 53281, Control_c, 0, 11, 85
2, 53281, Note_on_c, 0, 84, 101
2, 53305, Control_c, 0, 11, 81
2, 53329, Control_c, 0, 11, 77
2, 53341, Note_on_c, 0, 84, 0
2, 53341, Note_on_c, 0, 88, 0
2, 53401, Note_on_c, 0, 88, 101
2, 53401, Note_on_c, 0, 84, 101
2, 53461, Note_on_c, 0, 84, 0
2, 53461, Note_on_c, 0, 88, 0
2, 53641, Note_on_c, 0, 84, 101
2, 53641, Control_c, 0, 11, 85
2, 53641, Note_on_c, 0, 89, 101
2, 53665, Control_c, 0, 11, 81
2, 53689, Control_c, 0, 11, 77
2, 53701, Note_on_c, 0, 89, 0
2, 53701, Note_on_c, 0, 84, 0
2, 53761, Note_on_c, 0, 84, 101
2, 53761, Note_on_c, 0, 89, 101
2, 53821, Note_on_c, 0, 89, 0
2, 53821, Note_on_c, 0, 84, 0
2, 53881, Note_on_c, 0, 84, 101
2, 53881, Control_c, 0, 11, 70
2, 53941, Note_on_c, 0, 84, 0
2, 54001, Note_on_c, 0, 89, 73
2, 54001, Control_c, 0, 11, 72
2, 54007, Control_c, 0, 11, 71
2, 54013, Control_c, 0, 11, 70
2, 54019, Control_c, 0, 11, 69
2, 54025, Control_c, 0, 11, 68
2, 54031, Control_c, 0, 11, 67
2, 54037, Control_c, 0, 11, 66
2, 54043, Control_c, 0, 11, 65
2, 54049, Control_c, 0, 11, 64
2, 54055, Control_c, 0, 11, 63
2, 54061, Control_c, 0, 11, 62
2, 54067, Control_c, 0, 11, 61
2, 54073, Control_c, 0, 11, 60
2, 54079, Control_c, 0, 11, 59
2, 54085, Control_c, 0, 11, 58
2, 54091, Control_c, 0, 11, 57
2, 54097, Control_c, 0, 11, 56
2, 54103, Control_c, 0, 11, 55
2, 54109, Control_c, 0, 11, 54
2, 54115, Control_c, 0, 11, 53
2, 54121, Control_c, 0, 11, 52
2, 54137, Control_c, 0, 11, 51
2, 54153, Control_c, 0, 11, 50
2, 54169, Control_c, 0, 11, 49
2, 54181, Note_on_c, 0, 89, 0
2, 54181, Note_on_c, 0, 87, 73
2, 54185, Control_c, 0, 11, 48
2, 54201, Control_c, 0, 11, 47
2, 54217, Control_c, 0, 11, 46
2, 54233, Control_c, 0, 11, 45
2, 54241, Note_on_c, 0, 87, 0
2, 54241, Note_on_c, 0, 84, 73
2, 54249, Control_c, 0, 11, 44
2, 54265, Control_c, 0, 11, 43
2, 54281, Control_c, 0, 11, 42
2, 54297, Control_c, 0, 11, 41
2, 54301, Note_on_c, 0, 84, 0
2, 54301, Note_on_c, 0, 81, 73
2, 54313, Control_c, 0, 11, 40
2, 54329, Control_c, 0, 11, 39
2, 54345, Control_c, 0, 11, 38
2, 54361, Note_on_c, 0, 81, 0
2, 54361, Control_c, 0, 11, 37
2, 54601, Control_c, 0, 11, 47
2, 54601, Note_on_c, 0, 89, 73
2, 54657, Control_c, 0, 11, 46
2, 54661, Note_on_c, 0, 89, 0
2, 54661, Note_on_c, 0, 87, 73
2, 54713, Control_c, 0, 11, 45
2, 54721, Note_on_c, 0, 87, 0
2, 54721, Note_on_c, 0, 84, 73
2, 54769, Control_c, 0, 11, 44
2, 54781, Note_on_c, 0, 84, 0
2, 54781, Note_on_c, 0, 81, 73
2, 54825, Control_c, 0, 11, 43
2, 54841, Note_on_c, 0, 81, 0
2, 54881, Control_c, 0, 11, 42
2, 54937, Control_c, 0, 11, 41
2, 54993, Control_c, 0, 11, 40
2, 55049, Control_c, 0, 11, 39
2, 55081, Note_on_c, 0, 89, 73
2, 55105, Control_c, 0, 11, 38
2, 55141, Note_on_c, 0, 89, 0
2, 55141, Note_on_c, 0, 87, 73
2, 55161, Control_c, 0, 11, 37
2, 55201, Note_on_c, 0, 87, 0
2, 55201, Note_on_c, 0, 84, 73
2, 55217, Control_c, 0, 11, 36
2, 55261, Note_on_c, 0, 84, 0
2, 55261, Note_on_c, 0, 81, 73
2, 55273, Control_c, 0, 11, 35
2, 55321, Note_on_c, 0, 81, 0
2, 55329, Control_c, 0, 11, 34
2, 55385, Control_c, 0, 11, 33
2, 55441, Control_c, 0, 11, 32
2, 57481, Note_on_c, 0, 69, 101
2, 57481, Control_c, 0, 11, 49
2, 57481, Note_on_c, 0, 81, 101
2, 57521, Control_c, 0, 11, 50
2, 57541, Note_on_c, 0, 81, 0
2, 57541, Note_on_c, 0, 69, 0
2, 57561, Control_c, 0, 11, 51
2, 57601, Note_on_c, 0, 84, 101
2, 57601, Note_on_c, 0, 72, 101
2, 57601, Control_c, 0, 11, 52
2, 57630, Control_c, 0, 11, 53
2, 57659, Control_c, 0, 11, 54
2, 57661, Note_on_c, 0, 72, 0
2, 57661, Note_on_c, 0, 84, 0
2, 57688, Control_c, 0, 11, 55
2, 57717, Control_c, 0, 11, 56
2, 57746, Control_c, 0, 11, 57
2, 57775, Control_c, 0, 11, 57
2, 57805, Control_c, 0, 11, 58
2, 57834, Control_c, 0, 11, 59
2, 57863, Control_c, 0, 11, 60
2, 57892, Control_c, 0, 11, 60
2, 57921, Control_c, 0, 11, 61
2, 57950, Control_c, 0, 11, 62
2, 57979, Control_c, 0, 11, 63
2, 58009, Control_c, 0, 11, 63
2, 58038, Control_c, 0, 11, 64
2, 58067, Control_c, 0, 11, 65
2, 58096, Control_c, 0, 11, 66
2, 58125, Control_c, 0, 11, 66
2, 58154, Control_c, 0, 11, 67
2, 58183, Control_c, 0, 11, 67
2, 58201, Note_on_c, 0, 84, 101
2, 58213, Control_c, 0, 11, 68
2, 58242, Control_c, 0, 11, 68
2, 58261, Note_on_c, 0, 84, 0
2, 58261, Note_on_c, 0, 85, 101
2, 58271, Control_c, 0, 11, 69
2, 58300, Control_c, 0, 11, 69
2, 58321, Note_on_c, 0, 85, 0
2, 58321, Note_on_c, 0, 88, 101
2, 58329, Control_c, 0, 11, 70
2, 58358, Control_c, 0, 11, 70
2, 58381, Note_on_c, 0, 88, 0
2, 58381, Note_on_c, 0, 86, 101
2, 58387, Control_c, 0, 11, 71
2, 58417, Control_c, 0, 11, 71
2, 58441, Note_on_c, 0, 86, 0
2, 58441, Note_on_c, 0, 79, 101
2, 58446, Control_c, 0, 11, 72
2, 58475, Control_c, 0, 11, 72
2, 58501, Note_on_c, 0, 79, 0
2, 58501, Note_on_c, 0, 81, 101
2, 58504, Control_c, 0, 11, 73
2, 58533, Control_c, 0, 11, 73
2, 58561, Note_on_c, 0, 81, 0
2, 58561, Note_on_c, 0, 82, 101
2, 58562, Control_c, 0, 11, 74
2, 58591, Control_c, 0, 11, 74
2, 58616, Note_on_c, 0, 82, 0
2, 58621, Control_c, 0, 11, 75
2, 58621, Note_on_c, 0, 83, 101
2, 58676, Note_on_c, 0, 83, 0
2, 58681, Control_c, 0, 11, 80
2, 58681, Note_on_c, 0, 83, 101
2, 58801, Note_on_c, 0, 83, 0
2, 58801, Note_on_c, 0, 84, 101
2, 58861, Note_on_c, 0, 84, 0
2, 58861, Note_on_c, 0, 86, 101
2, 58921, Note_on_c, 0, 86, 0
2, 58921, Note_on_c, 0, 87, 101
2, 58976, Note_on_c, 0, 87, 0
2, 58981, Note_on_c, 0, 88, 101
2, 59036, Note_on_c, 0, 88, 0
2, 59041, Note_on_c, 0, 88, 101
2, 59161, Note_on_c, 0, 88, 0
2, 59161, Note_on_c, 0, 89, 101
2, 59161, Note_on_c, 0, 77, 101
2, 59216, Note_on_c, 0, 77, 0
2, 59216, Note_on_c, 0, 89, 0
2, 59221, Note_on_c, 0, 89, 101
2, 59221, Note_on_c, 0, 77, 101
2, 59336, Note_on_c, 0, 77, 0
2, 59336, Note_on_c, 0, 89, 0
2, 59341, Note_on_c, 0, 77, 101
2, 59341, Note_on_c, 0, 89, 101
2, 59341, Control_c, 0, 11, 83
2, 59456, Note_on_c, 0, 89, 0
2, 59456, Note_on_c, 0, 77, 0
2, 59461, Note_on_c, 0, 77, 101
2, 59461, Note_on_c, 0, 89, 101
2, 59581, Note_on_c, 0, 89, 0
2, 59581, Note_on_c, 0, 77, 0
2, 59701, Note_on_c, 0, 85, 101
2, 59701, Control_c, 0, 11, 42
2, 59701, Note_on_c, 0, 81, 101
2, 59756, Note_on_c, 0, 81, 0
2, 59756, Note_on_c, 0, 85, 0
2, 59761, Note_on_c, 0, 81, 101
2, 59761, Note_on_c, 0, 85, 101
2, 59881, Note_on_c, 0, 85, 0
2, 59881, Note_on_c, 0, 81, 0
2, 59881, Note_on_c, 0, 86, 101
2, 59881, Note_on_c, 0, 82, 101
2, 59941, Note_on_c, 0, 82, 0
2, 59941, Note_on_c, 0, 86, 0
2, 60961, Note_on_c, 0, 84, 101
2, 60961, Note_on_c, 0, 72, 101
2, 60961, Control_c, 0, 11, 75
2, 61021, Note_on_c, 0, 72, 0
2, 61021, Note_on_c, 0, 84, 0
2, 61081, Control_c, 0, 11, 85
2, 61081, Note_on_c, 0, 77, 111
2, 61081, Note_on_c, 0, 89, 111
2, 61105, Control_c, 0, 11, 81
2, 61129, Control_c, 0, 11, 77
2, 61261, Note_on_c, 0, 89, 0
2, 61261, Note_on_c, 0, 77, 0
2, 61681, Note_on_c, 0, 84, 101
2, 61741, Note_on_c, 0, 84, 0
2, 61801, Control_c, 0, 11, 85
2, 61801, Note_on_c, 0, 84, 101
2, 61801, Note_on_c, 0, 88, 101
2, 61825, Control_c, 0, 11, 81
2, 61849, Control_c, 0, 11, 77
2, 61921, Note_on_c, 0, 88, 0
2, 61921, Note_on_c, 0, 84, 0
2, 61921, Note_on_c, 0, 84, 101
2, 61921, Note_on_c, 0, 89, 101
2, 61981, Note_on_c, 0, 89, 0
2, 61981, Note_on_c, 0, 84, 0
2, 62281, Note_on_c, 0, 88, 101
2, 62281, Note_on_c, 0, 84, 101
2, 62281, Control_c, 0, 11, 85
2, 62305, Control_c, 0, 11, 81
2, 62329, Control_c, 0, 11, 77
2, 62401, Note_on_c, 0, 84, 0
2, 62401, Note_on_c, 0, 88, 0
2, 62401, Note_on_c, 0, 84, 101
2, 62401, Note_on_c, 0, 89, 101
2, 62461, Note_on_c, 0, 89, 0
2, 62461, Note_on_c, 0, 84, 0
2, 62881, Note_on_c, 0, 88, 101
2, 62881, Note_on_c, 0, 84, 101
2, 62881, Control_c, 0, 11, 90
2, 62905, Control_c, 0, 11, 86
2, 62929, Control_c, 0, 11, 82
2, 63121, Note_on_c, 0, 88, 0
2, 63121, Note_on_c, 0, 89, 101
2, 63181, Note_on_c, 0, 89, 0
2, 63181, Note_on_c, 0, 84, 0
2, 63721, Control_c, 0, 121, 0
2, 63721, End_track
3, 0, Start_track
3, 0, MIDI_port, 0
3, 0, Title_t, "2 Oboi"
3, 0, Program_c, 1, 68
3, 0, Control_c, 1, 10, 72
3, 4, Control_c, 1, 121, 0
3, 9, Program_c, 1, 68
3, 14, Pitch_bend_c, 1, 8192
3, 19, Control_c, 1, 11, 75
3, 24, Control_c, 1, 7, 127
3, 29, Control_c, 1, 91, 54
3, 34, Control_c, 1, 93, 0
3, 3124, Control_c, 1, 11, 85
3, 3124, Note_on_c, 1, 72, 100
3, 3184, Note_on_c, 1, 72, 0
3, 3244, Control_c, 1, 11, 95
3, 3244, Note_on_c, 1, 77, 100
3, 3265, Control_c, 1, 11, 91
3, 3289, Control_c, 1, 11, 87
3, 3484, Note_on_c, 1, 77, 0
3, 3904, Note_on_c, 1, 72, 100
3, 3904, Note_on_c, 1, 76, 100
3, 3954, Note_on_c, 1, 76, 0
3, 3954, Note_on_c, 1, 72, 0
3, 3964, Note_on_c, 1, 76, 100
3, 3964, Note_on_c, 1, 72, 100
3, 4084, Note_on_c, 1, 76, 0
3, 4084, Note_on_c, 1, 77, 100
3, 4144, Note_on_c, 1, 77, 0
3, 4144, Note_on_c, 1, 72, 0
3, 6724, Control_c, 1, 11, 85
3, 6724, Note_on_c, 1, 72, 100
3, 6784, Note_on_c, 1, 72, 0
3, 6844, Control_c, 1, 11, 95
3, 6844, Note_on_c, 1, 77, 100
3, 6865, Control_c, 1, 11, 91
3, 6889, Control_c, 1, 11, 87
3, 7084, Note_on_c, 1, 77, 0
3, 7504, Note_on_c, 1, 72, 100
3, 7504, Note_on_c, 1, 76, 100
3, 7554, Note_on_c, 1, 76, 0
3, 7554, Note_on_c, 1, 72, 0
3, 7564, Note_on_c, 1, 76, 100
3, 7564, Note_on_c, 1, 72, 100
3, 7684, Note_on_c, 1, 76, 0
3, 7684, Note_on_c, 1, 77, 100
3, 7744, Note_on_c, 1, 77, 0
3, 7744, Note_on_c, 1, 72, 0
3, 8044, Control_c, 1, 11, 85
3, 8044, Note_on_c, 1, 83, 100
3, 8044, Note_on_c, 1, 79, 100
3, 8068, Control_c, 1, 11, 81
3, 8092, Control_c, 1, 11, 77
3, 8104, Note_on_c, 1, 79, 0
3, 8104, Note_on_c, 1, 83, 0
3, 8404, Control_c, 1, 11, 85
3, 8404, Note_on_c, 1, 84, 100
3, 8404, Note_on_c, 1, 79, 100
3, 8428, Control_c, 1, 11, 81
3, 8452, Control_c, 1, 11, 77
3, 8464, Note_on_c, 1, 79, 0
3, 8464, Note_on_c, 1, 84, 0
3, 8764, Control_c, 1, 11, 85
3, 8764, Note_on_c, 1, 86, 100
3, 8764, Note_on_c, 1, 79, 100
3, 8788, Control_c, 1, 11, 81
3, 8812, Control_c, 1, 11, 77
3, 8824, Note_on_c, 1, 79, 0
3, 8824, Note_on_c, 1, 86, 0
3, 9124, Control_c, 1, 11, 85
3, 9124, Note_on_c, 1, 84, 100
3, 9124, Note_on_c, 1, 79, 100
3, 9148, Control_c, 1, 11, 81
3, 9172, Control_c, 1, 11, 77
3, 9184, Note_on_c, 1, 79, 0
3, 9184, Note_on_c, 1, 84, 0
3, 9244, Note_on_c, 1, 79, 100
3, 9244, Note_on_c, 1, 76, 100
3, 9304, Note_on_c, 1, 76, 0
3, 9304, Note_on_c, 1, 79, 0
3, 9364, Control_c, 1, 11, 85
3, 9364, Note_on_c, 1, 79, 100
3, 9364, Note_on_c, 1, 74, 100
3, 9388, Control_c, 1, 11, 81
3, 9412, Control_c, 1, 11, 77
3, 9424, Note_on_c, 1, 74, 0
3, 9424, Note_on_c, 1, 79, 0
3, 9484, Note_on_c, 1, 79, 100
3, 9484, Note_on_c, 1, 74, 100
3, 9544, Note_on_c, 1, 74, 0
3, 9544, Note_on_c, 1, 79, 0
3, 9724, Control_c, 1, 11, 85
3, 9724, Note_on_c, 1, 79, 100
3, 9724, Note_on_c, 1, 76, 100
3, 9748, Control_c, 1, 11, 81
3, 9772, Control_c, 1, 11, 77
3, 9784, Note_on_c, 1, 76, 0
3, 9784, Note_on_c, 1, 79, 0
3, 9844, Note_on_c, 1, 79, 100
3, 9844, Note_on_c, 1, 76, 100
3, 9904, Note_on_c, 1, 76, 0
3, 9904, Note_on_c, 1, 79, 0
3, 10084, Control_c, 1, 11, 85
3, 10084, Note_on_c, 1, 82, 100
3, 10084, Note_on_c, 1, 79, 100
3, 10108, Control_c, 1, 11, 81
3, 10132, Control_c, 1, 11, 77
3, 10144, Note_on_c, 1, 79, 0
3, 10144, Note_on_c, 1, 82, 0
3, 10204, Note_on_c, 1, 82, 100
3, 10204, Note_on_c, 1, 79, 100
3, 10264, Note_on_c, 1, 79, 0
3, 10264, Note_on_c, 1, 82, 0
3, 10444, Control_c, 1, 11, 85
3, 10444, Note_on_c, 1, 81, 100
3, 10444, Note_on_c, 1, 77, 100
3, 10468, Control_c, 1, 11, 81
3, 10492, Control_c, 1, 11, 77
3, 10504, Note_on_c, 1, 77, 0
3, 10504, Note_on_c, 1, 81, 0
3, 10564, Note_on_c, 1, 81, 100
3, 10564, Note_on_c, 1, 77, 100
3, 10624, Note_on_c, 1, 77, 0
3, 10624, Note_on_c, 1, 81, 0
3, 10684, Control_c, 1, 11, 70
3, 10684, Note_on_c, 1, 72, 100
3, 10744, Note_on_c, 1, 72, 0
3, 10804, Control_c, 1, 11, 72
3, 10804, Note_on_c, 1, 77, 85
3, 10810, Control_c, 1, 11, 71
3, 10816, Control_c, 1, 11, 70
3, 10822, Control_c, 1, 11, 69
3, 10828, Control_c, 1, 11, 68
3, 10834, Control_c, 1, 11, 67
3, 10840, Control_c, 1, 11, 66
3, 10846, Control_c, 1, 11, 65
3, 10852, Control_c, 1, 11, 64
3, 10858, Control_c, 1, 11, 63
3, 10864, Control_c, 1, 11, 62
3, 10870, Control_c, 1, 11, 61
3, 10876, Control_c, 1, 11, 60
3, 10882, Control_c, 1, 11, 59
3, 10888, Control_c, 1, 11, 58
3, 10894, Control_c, 1, 11, 57
3, 10900, Control_c, 1, 11, 56
3, 10906, Control_c, 1, 11, 55
3, 10912, Control_c, 1, 11, 54
3, 10918, Control_c, 1, 11, 53
3, 10924, Control_c, 1, 11, 52
3, 10940, Control_c, 1, 11, 51
3, 10956, Control_c, 1, 11, 50
3, 10972, Control_c, 1, 11, 49
3, 10984, Note_on_c, 1, 77, 0
3, 10984, Note_on_c, 1, 75, 85
3, 10988, Control_c, 1, 11, 48
3, 11004, Control_c, 1, 11, 47
3, 11020, Control_c, 1, 11, 46
3, 11036, Control_c, 1, 11, 45
3, 11044, Note_on_c, 1, 75, 0
3, 11044, Note_on_c, 1, 72, 85
3, 11052, Control_c, 1, 11, 44
3, 11068, Control_c, 1, 11, 43
3, 11084, Control_c, 1, 11, 42
3, 11100, Control_c, 1, 11, 41
3, 11104, Note_on_c, 1, 72, 0
3, 11104, Note_on_c, 1, 69, 85
3, 11116, Control_c, 1, 11, 40
3, 11132, Control_c, 1, 11, 39
3, 11148, Control_c, 1, 11, 38
3, 11164, Note_on_c, 1, 69, 0
3, 11164, Control_c, 1, 11, 37
3, 11404, Control_c, 1, 11, 47
3, 11404, Note_on_c, 1, 77, 85
3, 11460, Control_c, 1, 11, 46
3, 11464, Note_on_c, 1, 77, 0
3, 11464, Note_on_c, 1, 75, 85
3, 11516, Control_c, 1, 11, 45
3, 11524, Note_on_c, 1, 75, 0
3, 11524, Note_on_c, 1, 72, 85
3, 11572, Control_c, 1, 11, 44
3, 11584, Note_on_c, 1, 72, 0
3, 11584, Note_on_c, 1, 69, 85
3, 11628, Control_c, 1, 11, 43
3, 11644, Note_on_c, 1, 69, 0
3, 11684, Control_c, 1, 11, 42
3, 11740, Control_c, 1, 11, 41
3, 11796, Control_c, 1, 11, 40
3, 11852, Control_c, 1, 11, 39
3, 11884, Note_on_c, 1, 77, 85
3, 11908, Control_c, 1, 11, 38
3, 11944, Note_on_c, 1, 77, 0
3, 11944, Note_on_c, 1, 75, 85
3, 11964, Control_c, 1, 11, 37
3, 12004, Note_on_c, 1, 75, 0
3, 12004, Note_on_c, 1, 72, 85
3, 12020, Control_c, 1, 11, 36
3, 12064, Note_on_c, 1, 72, 0
3, 12064, Note_on_c, 1, 69, 85
3, 12076, Control_c, 1, 11, 35
3, 12124, Note_on_c, 1, 69, 0
3, 12132, Control_c, 1, 11, 34
3, 12188, Control_c, 1, 11, 33
3, 12244, Control_c, 1, 11, 37
3, 12244, Note_on_c, 1, 77, 72
3, 12304, Note_on_c, 1, 77, 0
3, 12484, Note_on_c, 1, 77, 72
3, 12544, Note_on_c, 1, 77, 0
3, 12724, Note_on_c, 1, 77, 72
3, 12784, Note_on_c, 1, 77, 0
3, 14284, Control_c, 1, 11, 49
3, 14284, Note_on_c, 1, 81, 100
3, 14284, Note_on_c, 1, 69, 100
3, 14324, Control_c, 1, 11, 50
3, 14344, Note_on_c, 1, 69, 0
3, 14344, Note_on_c, 1, 81, 0
3, 14364, Control_c, 1, 11, 51
3, 14404, Control_c, 1, 11, 52
3, 14404, Note_on_c, 1, 84, 100
3, 14404, Note_on_c, 1, 72, 100
3, 14433, Control_c, 1, 11, 53
3, 14459, Note_on_c, 1, 72, 0
3, 14459, Note_on_c, 1, 84, 0
3, 14462, Control_c, 1, 11, 54
3, 14464, Note_on_c, 1, 84, 100
3, 14464, Note_on_c, 1, 72, 100
3, 14491, Control_c, 1, 11, 55
3, 14520, Control_c, 1, 11, 56
3, 14549, Control_c, 1, 11, 57
3, 14578, Control_c, 1, 11, 57
3, 14579, Note_on_c, 1, 72, 0
3, 14579, Note_on_c, 1, 84, 0
3, 14584, Note_on_c, 1, 72, 100
3, 14584, Note_on_c, 1, 84, 100
3, 14608, Control_c, 1, 11, 58
3, 14637, Control_c, 1, 11, 59
3, 14666, Control_c, 1, 11, 60
3, 14695, Control_c, 1, 11, 60
3, 14699, Note_on_c, 1, 84, 0
3, 14699, Note_on_c, 1, 72, 0
3, 14704, Note_on_c, 1, 72, 100
3, 14704, Note_on_c, 1, 84, 100
3, 14724, Control_c, 1, 11, 61
3, 14753, Control_c, 1, 11, 62
3, 14782, Control_c, 1, 11, 63
3, 14812, Control_c, 1, 11, 63
3, 14819, Note_on_c, 1, 84, 0
3, 14819, Note_on_c, 1, 72, 0
3, 14824, Note_on_c, 1, 84, 100
3, 14824, Note_on_c, 1, 72, 100
3, 14841, Control_c, 1, 11, 64
3, 14870, Control_c, 1, 11, 65
3, 14899, Control_c, 1, 11, 66
3, 14928, Control_c, 1, 11, 66
3, 14939, Note_on_c, 1, 72, 0
3, 14939, Note_on_c, 1, 84, 0
3, 14944, Note_on_c, 1, 72, 100
3, 14944, Note_on_c, 1, 84, 100
3, 14957, Control_c, 1, 11, 67
3, 14986, Control_c, 1, 11, 67
3, 15016, Control_c, 1, 11, 68
3, 15045, Control_c, 1, 11, 68
3, 15059, Note_on_c, 1, 84, 0
3, 15059, Note_on_c, 1, 72, 0
3, 15064, Note_on_c, 1, 72, 100
3, 15064, Note_on_c, 1, 84, 100
3, 15074, Control_c, 1, 11, 69
3, 15103, Control_c, 1, 11, 69
3, 15132, Control_c, 1, 11, 70
3, 15161, Control_c, 1, 11, 70
3, 15179, Note_on_c, 1, 84, 0
3, 15179, Note_on_c, 1, 72, 0
3, 15184, Note_on_c, 1, 84, 100
3, 15184, Note_on_c, 1, 72, 100
3, 15190, Control_c, 1, 11, 71
3, 15220, Control_c, 1, 11, 71
3, 15244, Note_on_c, 1, 72, 100
3, 15244, Note_on_c, 1, 84, 100
3, 15249, Control_c, 1, 11, 72
3, 15278, Control_c, 1, 11, 72
3, 15299, Note_on_c, 1, 72, 0
3, 15299, Note_on_c, 1, 84, 0
3, 15304, Note_on_c, 1, 72, 100
3, 15304, Note_on_c, 1, 84, 100
3, 15307, Control_c, 1, 11, 73
3, 15336, Control_c, 1, 11, 73
3, 15359, Note_on_c, 1, 72, 0
3, 15359, Note_on_c, 1, 84, 0
3, 15365, Control_c, 1, 11, 74
3, 15394, Control_c, 1, 11, 74
3, 15419, Note_on_c, 1, 72, 0
3, 15419, Note_on_c, 1, 84, 0
3, 15424, Control_c, 1, 11, 75
3, 15424, Note_on_c, 1, 72, 100
3, 15424, Note_on_c, 1, 84, 100
3, 15539, Note_on_c, 1, 84, 0
3, 15539, Note_on_c, 1, 72, 0
3, 15544, Note_on_c, 1, 84, 100
3, 15544, Note_on_c, 1, 72, 100
3, 15659, Note_on_c, 1, 72, 0
3, 15659, Note_on_c, 1, 84, 0
3, 15664, Note_on_c, 1, 84, 100
3, 15664, Note_on_c, 1, 72, 100
3, 15779, Note_on_c, 1, 72, 0
3, 15779, Note_on_c, 1, 84, 0
3, 15784, Note_on_c, 1, 84, 100
3, 15784, Note_on_c, 1, 72, 100
3, 15899, Note_on_c, 1, 72, 0
3, 15899, Note_on_c, 1, 84, 0
3, 15904, Note_on_c, 1, 72, 100
3, 15904, Note_on_c, 1, 84, 100
3, 15959, Note_on_c, 1, 84, 0
3, 15959, Note_on_c, 1, 72, 0
3, 15964, Note_on_c, 1, 65, 100
3, 15964, Note_on_c, 1, 77, 100
3, 16019, Note_on_c, 1, 77, 0
3, 16019, Note_on_c, 1, 65, 0
3, 16024, Note_on_c, 1, 77, 100
3, 16024, Note_on_c, 1, 65, 100
3, 16139, Note_on_c, 1, 65, 0
3, 16139, Note_on_c, 1, 77, 0
3, 16144, Control_c, 1, 11, 83
3, 16144, Note_on_c, 1, 65, 100
3, 16144, Note_on_c, 1, 77, 100
3, 16259, Note_on_c, 1, 77, 0
3, 16259, Note_on_c, 1, 65, 0
3, 16264, Note_on_c, 1, 65, 100
3, 16264, Note_on_c, 1, 77, 100
3, 16384, Note_on_c, 1, 77, 0
3, 16384, Note_on_c, 1, 65, 0
3, 16504, Control_c, 1, 11, 42
3, 16504, Note_on_c, 1, 73, 100
3, 16504, Note_on_c, 1, 69, 100
3, 16559, Note_on_c, 1, 69, 0
3, 16559, Note_on_c, 1, 73, 0
3, 16564, Note_on_c, 1, 73, 100
3, 16564, Note_on_c, 1, 69, 100
3, 16684, Note_on_c, 1, 69, 0
3, 16684, Note_on_c, 1, 73, 0
3, 16684, Note_on_c, 1, 74, 100
3, 16684, Note_on_c, 1, 70, 100
3, 16744, Note_on_c, 1, 70, 0
3, 16744, Note_on_c, 1, 74, 0
3, 17764, Control_c, 1, 11, 75
3, 17764, Note_on_c, 1, 72, 100
3, 17824, Note_on_c, 1, 72, 0
3, 17884, Control_c, 1, 11, 85
3, 17884, Note_on_c, 1, 77, 110
3, 17908, Control_c, 1, 11, 81
3, 17932, Control_c, 1, 11, 77
3, 18064, Note_on_c, 1, 77, 0
3, 18484, Note_on_c, 1, 72, 100
3, 18544, Note_on_c, 1, 72, 0
3, 18604, Control_c, 1, 11, 85
3, 18604, Note_on_c, 1, 82, 100
3, 18604, Note_on_c, 1, 79, 100
3, 18628, Control_c, 1, 11, 81
3, 18652, Control_c, 1, 11, 77
3, 18724, Note_on_c, 1, 79, 0
3, 18724, Note_on_c, 1, 82, 0
3, 18724, Note_on_c, 1, 77, 100
3, 18724, Note_on_c, 1, 81, 100
3, 18784, Note_on_c, 1, 81, 0
3, 18784, Note_on_c, 1, 77, 0
3, 19084, Control_c, 1, 11, 85
3, 19084, Note_on_c, 1, 82, 100
3, 19084, Note_on_c, 1, 79, 100
3, 19108, Control_c, 1, 11, 81
3, 19132, Control_c, 1, 11, 77
3, 19204, Note_on_c, 1, 79, 0
3, 19204, Note_on_c, 1, 82, 0
3, 19204, Note_on_c, 1, 77, 100
3, 19204, Note_on_c, 1, 81, 100
3, 19264, Note_on_c, 1, 81, 0
3, 19264, Note_on_c, 1, 77, 0
3, 19684, Control_c, 1, 11, 90
3, 19684, Note_on_c, 1, 82, 100
3, 19684, Note_on_c, 1, 79, 100
3, 19708, Control_c, 1, 11, 86
3, 19732, Control_c, 1, 11, 82
3, 19924, Note_on_c, 1, 79, 0
3, 19924, Note_on_c, 1, 82, 0
3, 19924, Note_on_c, 1, 77, 100
3, 19924, Note_on_c, 1, 81, 100
3, 19984, Note_on_c, 1, 81, 0
3, 19984, Note_on_c, 1, 77, 0
3, 20284, Control_c, 1, 11, 85
3, 20284, Note_on_c, 1, 83, 100
3, 20284, Note_on_c, 1, 79, 100
3, 20308, Control_c, 1, 11, 81
3, 20332, Control_c, 1, 11, 77
3, 20344, Note_on_c, 1, 79, 0
3, 20344, Note_on_c, 1, 83, 0
3, 20644, Control_c, 1, 11, 85
3, 20644, Note_on_c, 1, 84, 100
3, 20644, Note_on_c, 1, 79, 100
3, 20668, Control_c, 1, 11, 81
3, 20692, Control_c, 1, 11, 77
3, 20704, Note_on_c, 1, 79, 0
3, 20704, Note_on_c, 1, 84, 0
3, 21004, Control_c, 1, 11, 85
3, 21004, Note_on_c, 1, 86, 100
3, 21004, Note_on_c, 1, 79, 100
3, 21028, Control_c, 1, 11, 81
3, 21052, Control_c, 1, 11, 77
3, 21064, Note_on_c, 1, 79, 0
3, 21064, Note_on_c, 1, 86, 0
3, 21364, Control_c, 1, 11, 85
3, 21364, Note_on_c, 1, 84, 100
3, 21364, Note_on_c, 1, 79, 100
3, 21388, Control_c, 1, 11, 81
3, 21412, Control_c, 1, 11, 77
3, 21424, Note_on_c, 1, 79, 0
3, 21424, Note_on_c, 1, 84, 0
3, 21484, Note_on_c, 1, 79, 100
3, 21484, Note_on_c, 1, 76, 100
3, 21544, Note_on_c, 1, 76, 0
3, 21544, Note_on_c, 1, 79, 0
3, 21604, Control_c, 1, 11, 85
3, 21604, Note_on_c, 1, 79, 100
3, 21604, Note_on_c, 1, 74, 100
3, 21628, Control_c, 1, 11, 81
3, 21652, Control_c, 1, 11, 77
3, 21664, Note_on_c, 1, 74, 0
3, 21664, Note_on_c, 1, 79, 0
3, 21724, Note_on_c, 1, 79, 100
3, 21724, Note_on_c, 1, 74, 100
3, 21784, Note_on_c, 1, 74, 0
3, 21784, Note_on_c, 1, 79, 0
3, 21964, Control_c, 1, 11, 85
3, 21964, Note_on_c, 1, 79, 100
3, 21964, Note_on_c, 1, 76, 100
3, 21988, Control_c, 1, 11, 81
3, 22012, Control_c, 1, 11, 77
3, 22024, Note_on_c, 1, 76, 0
3, 22024, Note_on_c, 1, 79, 0
3, 22084, Note_on_c, 1, 79, 100
3, 22084, Note_on_c, 1, 76, 100
3, 22144, Note_on_c, 1, 76, 0
3, 22144, Note_on_c, 1, 79, 0
3, 22324, Control_c, 1, 11, 85
3, 22324, Note_on_c, 1, 82, 100
3, 22324, Note_on_c, 1, 79, 100
3, 22348, Control_c, 1, 11, 81
3, 22372, Control_c, 1, 11, 77
3, 22384, Note_on_c, 1, 79, 0
3, 22384, Note_on_c, 1, 82, 0
3, 22444, Note_on_c, 1, 82, 100
3, 22444, Note_on_c, 1, 79, 100
3, 22504, Note_on_c, 1, 79, 0
3, 22504, Note_on_c, 1, 82, 0
3, 22684, Control_c, 1, 11, 85
3, 22684, Note_on_c, 1, 81, 100
3, 22684, Note_on_c, 1, 77, 100
3, 22708, Control_c, 1, 11, 81
3, 22732, Control_c, 1, 11, 77
3, 22744, Note_on_c, 1, 77, 0
3, 22744, Note_on_c, 1, 81, 0
3, 22804, Note_on_c, 1, 81, 100
3, 22804, Note_on_c, 1, 77, 100
3, 22864, Note_on_c, 1, 77, 0
3, 22864, Note_on_c, 1, 81, 0
3, 22924, Control_c, 1, 11, 70
3, 22924, Note_on_c, 1, 72, 100
3, 22984, Note_on_c, 1, 72, 0
3, 23044, Note_on_c, 1, 77, 85
3, 23044, Control_c, 1, 11, 72
3, 23050, Control_c, 1, 11, 71
3, 23056, Control_c, 1, 11, 70
3, 23062, Control_c, 1, 11, 69
3, 23068, Control_c, 1, 11, 68
3, 23074, Control_c, 1, 11, 67
3, 23080, Control_c, 1, 11, 66
3, 23086, Control_c, 1, 11, 65
3, 23092, Control_c, 1, 11, 64
3, 23098, Control_c, 1, 11, 63
3, 23104, Control_c, 1, 11, 62
3, 23110, Control_c, 1, 11, 61
3, 23116, Control_c, 1, 11, 60
3, 23122, Control_c, 1, 11, 59
3, 23128, Control_c, 1, 11, 58
3, 23134, Control_c, 1, 11, 57
3, 23140, Control_c, 1, 11, 56
3, 23146, Control_c, 1, 11, 55
3, 23152, Control_c, 1, 11, 54
3, 23158, Control_c, 1, 11, 53
3, 23164, Control_c, 1, 11, 52
3, 23180, Control_c, 1, 11, 51
3, 23196, Control_c, 1, 11, 50
3, 23212, Control_c, 1, 11, 49
3, 23224, Note_on_c, 1, 77, 0
3, 23224, Note_on_c, 1, 75, 85
3, 23228, Control_c, 1, 11, 48
3, 23244, Control_c, 1, 11, 47
3, 23260, Control_c, 1, 11, 46
3, 23276, Control_c, 1, 11, 45
3, 23284, Note_on_c, 1, 75, 0
3, 23284, Note_on_c, 1, 72, 85
3, 23292, Control_c, 1, 11, 44
3, 23308, Control_c, 1, 11, 43
3, 23324, Control_c, 1, 11, 42
3, 23340, Control_c, 1, 11, 41
3, 23344, Note_on_c, 1, 72, 0
3, 23344, Note_on_c, 1, 69, 85
3, 23356, Control_c, 1, 11, 40
3, 23372, Control_c, 1, 11, 39
3, 23388, Control_c, 1, 11, 38
3, 23404, Note_on_c, 1, 69, 0
3, 23404, Control_c, 1, 11, 37
3, 23644, Note_on_c, 1, 77, 85
3, 23644, Control_c, 1, 11, 47
3, 23700, Control_c, 1, 11, 46
3, 23704, Note_on_c, 1, 77, 0
3, 23704, Note_on_c, 1, 75, 85
3, 23756, Control_c, 1, 11, 45
3, 23764, Note_on_c, 1, 75, 0
3, 23764, Note_on_c, 1, 72, 85
3, 23812, Control_c, 1, 11, 44
3, 23824, Note_on_c, 1, 72, 0
3, 23824, Note_on_c, 1, 69, 85
3, 23868, Control_c, 1, 11, 43
3, 23884, Note_on_c, 1, 69, 0
3, 23924, Control_c, 1, 11, 42
3, 23980, Control_c, 1, 11, 41
3, 24036, Control_c, 1, 11, 40
3, 24092, Control_c, 1, 11, 39
3, 24124, Note_on_c, 1, 77, 85
3, 24148, Control_c, 1, 11, 38
3, 24184, Note_on_c, 1, 77, 0
3, 24184, Note_on_c, 1, 75, 85
3, 24204, Control_c, 1, 11, 37
3, 24244, Note_on_c, 1, 75, 0
3, 24244, Note_on_c, 1, 72, 85
3, 24260, Control_c, 1, 11, 36
3, 24304, Note_on_c, 1, 72, 0
3, 24304, Note_on_c, 1, 69, 85
3, 24316, Control_c, 1, 11, 35
3, 24364, Note_on_c, 1, 69, 0
3, 24372, Control_c, 1, 11, 34
3, 24428, Control_c, 1, 11, 33
3, 24484, Note_on_c, 1, 77, 72
3, 24484, Control_c, 1, 11, 37
3, 24544, Note_on_c, 1, 77, 0
3, 24724, Note_on_c, 1, 77, 72
3, 24784, Note_on_c, 1, 77, 0
3, 24964, Note_on_c, 1, 77, 72
3, 25024, Note_on_c, 1, 77, 0
3, 26524, Note_on_c, 1, 81, 100
3, 26524, Control_c, 1, 11, 49
3, 26524, Note_on_c, 1, 69, 100
3, 26564, Control_c, 1, 11, 50
3, 26584, Note_on_c, 1, 69, 0
3, 26584, Note_on_c, 1, 81, 0
3, 26604, Control_c, 1, 11, 51
3, 26644, Note_on_c, 1, 84, 100
3, 26644, Control_c, 1, 11, 52
3, 26644, Note_on_c, 1, 72, 100
3, 26673, Control_c, 1, 11, 53
3, 26699, Note_on_c, 1, 72, 0
3, 26699, Note_on_c, 1, 84, 0
3, 26702, Control_c, 1, 11, 54
3, 26704, Note_on_c, 1, 84, 100
3, 26704, Note_on_c, 1, 72, 100
3, 26731, Control_c, 1, 11, 55
3, 26760, Control_c, 1, 11, 56
3, 26789, Control_c, 1, 11, 57
3, 26818, Control_c, 1, 11, 57
3, 26819, Note_on_c, 1, 72, 0
3, 26819, Note_on_c, 1, 84, 0
3, 26824, Note_on_c, 1, 72, 100
3, 26824, Note_on_c, 1, 84, 100
3, 26848, Control_c, 1, 11, 58
3, 26877, Control_c, 1, 11, 59
3, 26906, Control_c, 1, 11, 60
3, 26935, Control_c, 1, 11, 60
3, 26939, Note_on_c, 1, 84, 0
3, 26939, Note_on_c, 1, 72, 0
3, 26944, Note_on_c, 1, 84, 100
3, 26944, Note_on_c, 1, 72, 100
3, 26964, Control_c, 1, 11, 61
3, 26993, Control_c, 1, 11, 62
3, 27022, Control_c, 1, 11, 63
3, 27052, Control_c, 1, 11, 63
3, 27059, Note_on_c, 1, 72, 0
3, 27059, Note_on_c, 1, 84, 0
3, 27064, Note_on_c, 1, 84, 100
3, 27064, Note_on_c, 1, 72, 100
3, 27081, Control_c, 1, 11, 64
3, 27110, Control_c, 1, 11, 65
3, 27139, Control_c, 1, 11, 66
3, 27168, Control_c, 1, 11, 66
3, 27179, Note_on_c, 1, 72, 0
3, 27179, Note_on_c, 1, 84, 0
3, 27184, Note_on_c, 1, 84, 100
3, 27184, Note_on_c, 1, 72, 100
3, 27197, Control_c, 1, 11, 67
3, 27226, Control_c, 1, 11, 67
3, 27256, Control_c, 1, 11, 68
3, 27285, Control_c, 1, 11, 68
3, 27299, Note_on_c, 1, 72, 0
3, 27299, Note_on_c, 1, 84, 0
3, 27304, Note_on_c, 1, 72, 100
3, 27304, Note_on_c, 1, 84, 100
3, 27314, Control_c, 1, 11, 69
3, 27343, Control_c, 1, 11, 69
3, 27372, Control_c, 1, 11, 70
3, 27401, Control_c, 1, 11, 70
3, 27419, Note_on_c, 1, 84, 0
3, 27419, Note_on_c, 1, 72, 0
3, 27424, Note_on_c, 1, 72, 100
3, 27424, Note_on_c, 1, 84, 100
3, 27430, Control_c, 1, 11, 71
3, 27460, Control_c, 1, 11, 71
3, 27484, Note_on_c, 1, 72, 100
3, 27484, Note_on_c, 1, 84, 100
3, 27489, Control_c, 1, 11, 72
3, 27518, Control_c, 1, 11, 72
3, 27539, Note_on_c, 1, 84, 0
3, 27539, Note_on_c, 1, 72, 0
3, 27544, Note_on_c, 1, 72, 100
3, 27544, Note_on_c, 1, 84, 100
3, 27547, Control_c, 1, 11, 73
3, 27576, Control_c, 1, 11, 73
3, 27599, Note_on_c, 1, 72, 0
3, 27599, Note_on_c, 1, 84, 0
3, 27605, Control_c, 1, 11, 74
3, 27634, Control_c, 1, 11, 74
3, 27659, Note_on_c, 1, 72, 0
3, 27659, Note_on_c, 1, 84, 0
3, 27664, Control_c, 1, 11, 75
3, 27664, Note_on_c, 1, 72, 100
3, 27664, Note_on_c, 1, 84, 100
3, 27779, Note_on_c, 1, 84, 0
3, 27779, Note_on_c, 1, 72, 0
3, 27784, Note_on_c, 1, 72, 100
3, 27784, Note_on_c, 1, 84, 100
3, 27899, Note_on_c, 1, 84, 0
3, 27899, Note_on_c, 1, 72, 0
3, 27904, Note_on_c, 1, 84, 100
3, 27904, Note_on_c, 1, 72, 100
3, 28019, Note_on_c, 1, 72, 0
3, 28019, Note_on_c, 1, 84, 0
3, 28024, Note_on_c, 1, 84, 100
3, 28024, Note_on_c, 1, 72, 100
3, 28139, Note_on_c, 1, 72, 0
3, 28139, Note_on_c, 1, 84, 0
3, 28144, Note_on_c, 1, 72, 100
3, 28144, Note_on_c, 1, 84, 100
3, 28199, Note_on_c, 1, 84, 0
3, 28199, Note_on_c, 1, 72, 0
3, 28204, Note_on_c, 1, 65, 100
3, 28204, Note_on_c, 1, 77, 100
3, 28259, Note_on_c, 1, 77, 0
3, 28259, Note_on_c, 1, 65, 0
3, 28264, Note_on_c, 1, 65, 100
3, 28264, Note_on_c, 1, 77, 100
3, 28379, Note_on_c, 1, 77, 0
3, 28379, Note_on_c, 1, 65, 0
3, 28384, Control_c, 1, 11, 83
3, 28384, Note_on_c, 1, 65, 100
3, 28384, Note_on_c, 1, 77, 100
3, 28499, Note_on_c, 1, 77, 0
3, 28499, Note_on_c, 1, 65, 0
3, 28504, Note_on_c, 1, 65, 100
3, 28504, Note_on_c, 1, 77, 100
3, 28624, Note_on_c, 1, 77, 0
3, 28624, Note_on_c, 1, 65, 0
3, 28744, Control_c, 1, 11, 42
3, 28744, Note_on_c, 1, 73, 100
3, 28744, Note_on_c, 1, 69, 100
3, 28799, Note_on_c, 1, 69, 0
3, 28799, Note_on_c, 1, 73, 0
3, 28804, Note_on_c, 1, 69, 100
3, 28804, Note_on_c, 1, 73, 100
3, 28924, Note_on_c, 1, 73, 0
3, 28924, Note_on_c, 1, 69, 0
3, 28924, Note_on_c, 1, 74, 100
3, 28924, Note_on_c, 1, 70, 100
3, 28984, Note_on_c, 1, 70, 0
3, 28984, Note_on_c, 1, 74, 0
3, 30004, Control_c, 1, 11, 75
3, 30004, Note_on_c, 1, 72, 100
3, 30064, Note_on_c, 1, 72, 0
3, 30124, Control_c, 1, 11, 85
3, 30124, Note_on_c, 1, 77, 110
3, 30148, Control_c, 1, 11, 81
3, 30172, Control_c, 1, 11, 77
3, 30304, Note_on_c, 1, 77, 0
3, 30724, Note_on_c, 1, 72, 100
3, 30784, Note_on_c, 1, 72, 0
3, 30844, Note_on_c, 1, 79, 100
3, 30844, Control_c, 1, 11, 85
3, 30844, Note_on_c, 1, 82, 100
3, 30868, Control_c, 1, 11, 81
3, 30892, Control_c, 1, 11, 77
3, 30964, Note_on_c, 1, 82, 0
3, 30964, Note_on_c, 1, 79, 0
3, 30964, Note_on_c, 1, 81, 100
3, 30964, Note_on_c, 1, 77, 100
3, 31024, Note_on_c, 1, 77, 0
3, 31024, Note_on_c, 1, 81, 0
3, 31324, Note_on_c, 1, 79, 100
3, 31324, Note_on_c, 1, 82, 100
3, 31324, Control_c, 1, 11, 85
3, 31348, Control_c, 1, 11, 81
3, 31372, Control_c, 1, 11, 77
3, 31444, Note_on_c, 1, 82, 0
3, 31444, Note_on_c, 1, 79, 0
3, 31444, Note_on_c, 1, 77, 100
3, 31444, Note_on_c, 1, 81, 100
3, 31504, Note_on_c, 1, 81, 0
3, 31504, Note_on_c, 1, 77, 0
3, 31924, Note_on_c, 1, 82, 100
3, 31924, Note_on_c, 1, 79, 100
3, 31924, Control_c, 1, 11, 90
3, 31948, Control_c, 1, 11, 86
3, 31972, Control_c, 1, 11, 82
3, 32164, Note_on_c, 1, 79, 0
3, 32164, Note_on_c, 1, 82, 0
3, 32164, Note_on_c, 1, 81, 100
3, 32164, Note_on_c, 1, 77, 100
3, 32224, Note_on_c, 1, 77, 0
3, 32224, Note_on_c, 1, 81, 0
3, 49924, Note_on_c, 1, 72, 100
3, 49924, Control_c, 1, 11, 85
3, 49984, Note_on_c, 1, 72, 0
3, 50044, Control_c, 1, 11, 95
3, 50044, Note_on_c, 1, 77, 100
3, 50065, Control_c, 1, 11, 91
3, 50089, Control_c, 1, 11, 87
3, 50284, Note_on_c, 1, 77, 0
3, 50704, Note_on_c, 1, 72, 100
3, 50704, Note_on_c, 1, 76, 100
3, 50754, Note_on_c, 1, 76, 0
3, 50754, Note_on_c, 1, 72, 0
3, 50764, Note_on_c, 1, 72, 100
3, 50764, Note_on_c, 1, 76, 100
3, 50884, Note_on_c, 1, 76, 0
3, 50884, Note_on_c, 1, 77, 100
3, 50944, Note_on_c, 1, 77, 0
3, 50944, Note_on_c, 1, 72, 0
3, 51244, Note_on_c, 1, 83, 100
3, 51244, Control_c, 1, 11, 85
3, 51244, Note_on_c, 1, 79, 100
3, 51268, Control_c, 1, 11, 81
3, 51292, Control_c, 1, 11, 77
3, 51304, Note_on_c, 1, 79, 0
3, 51304, Note_on_c, 1, 83, 0
3, 51604, Note_on_c, 1, 84, 100
3, 51604, Control_c, 1, 11, 85
3, 51604, Note_on_c, 1, 79, 100
3, 51628, Control_c, 1, 11, 81
3, 51652, Control_c, 1, 11, 77
3, 51664, Note_on_c, 1, 79, 0
3, 51664, Note_on_c, 1, 84, 0
3, 51964, Note_on_c, 1, 86, 100
3, 51964, Note_on_c, 1, 79, 100
3, 51964, Control_c, 1, 11, 85
3, 51988, Control_c, 1, 11, 81
3, 52012, Control_c, 1, 11, 77
3, 52024, Note_on_c, 1, 79, 0
3, 52024, Note_on_c, 1, 86, 0
3, 52324, Note_on_c, 1, 84, 100
3, 52324, Note_on_c, 1, 79, 100
3, 52324, Control_c, 1, 11, 85
3, 52348, Control_c, 1, 11, 81
3, 52372, Control_c, 1, 11, 77
3, 52384, Note_on_c, 1, 79, 0
3, 52384, Note_on_c, 1, 84, 0
3, 52444, Note_on_c, 1, 76, 100
3, 52444, Note_on_c, 1, 79, 100
3, 52504, Note_on_c, 1, 79, 0
3, 52504, Note_on_c, 1, 76, 0
3, 52564, Note_on_c, 1, 79, 100
3, 52564, Control_c, 1, 11, 85
3, 52564, Note_on_c, 1, 74, 100
3, 52588, Control_c, 1, 11, 81
3, 52612, Control_c, 1, 11, 77
3, 52624, Note_on_c, 1, 74, 0
3, 52624, Note_on_c, 1, 79, 0
3, 52684, Note_on_c, 1, 74, 100
3, 52684, Note_on_c, 1, 79, 100
3, 52744, Note_on_c, 1, 79, 0
3, 52744, Note_on_c, 1, 74, 0
3, 52924, Note_on_c, 1, 76, 100
3, 52924, Note_on_c, 1, 79, 100
3, 52924, Control_c, 1, 11, 85
3, 52948, Control_c, 1, 11, 81
3, 52972, Control_c, 1, 11, 77
3, 52984, Note_on_c, 1, 79, 0
3, 52984, Note_on_c, 1, 76, 0
3, 53044, Note_on_c, 1, 79, 100
3, 53044, Note_on_c, 1, 76, 100
3, 53104, Note_on_c, 1, 76, 0
3, 53104, Note_on_c, 1, 79, 0
3, 53284, Note_on_c, 1, 82, 100
3, 53284, Control_c, 1, 11, 85
3, 53284, Note_on_c, 1, 79, 100
3, 53308, Control_c, 1, 11, 81
3, 53332, Control_c, 1, 11, 77
3, 53344, Note_on_c, 1, 79, 0
3, 53344, Note_on_c, 1, 82, 0
3, 53404, Note_on_c, 1, 82, 100
3, 53404, Note_on_c, 1, 79, 100
3, 53464, Note_on_c, 1, 79, 0
3, 53464, Note_on_c, 1, 82, 0
3, 53644, Control_c, 1, 11, 85
3, 53644, Note_on_c, 1, 81, 100
3, 53644, Note_on_c, 1, 77, 100
3, 53668, Control_c, 1, 11, 81
3, 53692, Control_c, 1, 11, 77
3, 53704, Note_on_c, 1, 77, 0
3, 53704, Note_on_c, 1, 81, 0
3, 53764, Note_on_c, 1, 81, 100
3, 53764, Note_on_c, 1, 77, 100
3, 53824, Note_on_c, 1, 77, 0
3, 53824, Note_on_c, 1, 81, 0
3, 53884, Control_c, 1, 11, 70
3, 53884, Note_on_c, 1, 72, 100
3, 53944, Note_on_c, 1, 72, 0
3, 54004, Note_on_c, 1, 77, 85
3, 54004, Control_c, 1, 11, 72
3, 54010, Control_c, 1, 11, 71
3, 54016, Control_c, 1, 11, 70
3, 54022, Control_c, 1, 11, 69
3, 54028, Control_c, 1, 11, 68
3, 54034, Control_c, 1, 11, 67
3, 54040, Control_c, 1, 11, 66
3, 54046, Control_c, 1, 11, 65
3, 54052, Control_c, 1, 11, 64
3, 54058, Control_c, 1, 11, 63
3, 54064, Control_c, 1, 11, 62
3, 54070, Control_c, 1, 11, 61
3, 54076, Control_c, 1, 11, 60
3, 54082, Control_c, 1, 11, 59
3, 54088, Control_c, 1, 11, 58
3, 54094, Control_c, 1, 11, 57
3, 54100, Control_c, 1, 11, 56
3, 54106, Control_c, 1, 11, 55
3, 54112, Control_c, 1, 11, 54
3, 54118, Control_c, 1, 11, 53
3, 54124, Control_c, 1, 11, 52
3, 54140, Control_c, 1, 11, 51
3, 54156, Control_c, 1, 11, 50
3, 54172, Control_c, 1, 11, 49
3, 54184, Note_on_c, 1, 77, 0
3, 54184, Note_on_c, 1, 75, 85
3, 54188, Control_c, 1, 11, 48
3, 54204, Control_c, 1, 11, 47
3, 54220, Control_c, 1, 11, 46
3, 54236, Control_c, 1, 11, 45
3, 54244, Note_on_c, 1, 75, 0
3, 54244, Note_on_c, 1, 72, 85
3, 54252, Control_c, 1, 11, 44
3, 54268, Control_c, 1, 11, 43
3, 54284, Control_c, 1, 11, 42
3, 54300, Control_c, 1, 11, 41
3, 54304, Note_on_c, 1, 72, 0
3, 54304, Note_on_c, 1, 69, 85
3, 54316, Control_c, 1, 11, 40
3, 54332, Control_c, 1, 11, 39
3, 54348, Control_c, 1, 11, 38
3, 54364, Note_on_c, 1, 69, 0
3, 54364, Control_c, 1, 11, 37
3, 54604, Note_on_c, 1, 77, 85
3, 54604, Control_c, 1, 11, 47
3, 54660, Control_c, 1, 11, 46
3, 54664, Note_on_c, 1, 77, 0
3, 54664, Note_on_c, 1, 75, 85
3, 54716, Control_c, 1, 11, 45
3, 54724, Note_on_c, 1, 75, 0
3, 54724, Note_on_c, 1, 72, 85
3, 54772, Control_c, 1, 11, 44
3, 54784, Note_on_c, 1, 72, 0
3, 54784, Note_on_c, 1, 69, 85
3, 54828, Control_c, 1, 11, 43
3, 54844, Note_on_c, 1, 69, 0
3, 54884, Control_c, 1, 11, 42
3, 54940, Control_c, 1, 11, 41
3, 54996, Control_c, 1, 11, 40
3, 55052, Control_c, 1, 11, 39
3, 55084, Note_on_c, 1, 77, 85
3, 55108, Control_c, 1, 11, 38
3, 55144, Note_on_c, 1, 77, 0
3, 55144, Note_on_c, 1, 75, 85
3, 55164, Control_c, 1, 11, 37
3, 55204, Note_on_c, 1, 75, 0
3, 55204, Note_on_c, 1, 72, 85
3, 55220, Control_c, 1, 11, 36
3, 55264, Note_on_c, 1, 72, 0
3, 55264, Note_on_c, 1, 69, 85
3, 55276, Control_c, 1, 11, 35
3, 55324, Note_on_c, 1, 69, 0
3, 55332, Control_c, 1, 11, 34
3, 55388, Control_c, 1, 11, 33
3, 55444, Control_c, 1, 11, 37
3, 55444, Note_on_c, 1, 77, 72
3, 55504, Note_on_c, 1, 77, 0
3, 55684, Note_on_c, 1, 77, 72
3, 55744, Note_on_c, 1, 77, 0
3, 55924, Note_on_c, 1, 77, 72
3, 55984, Note_on_c, 1, 77, 0
3, 57484, Control_c, 1, 11, 49
3, 57484, Note_on_c, 1, 69, 100
3, 57484, Note_on_c, 1, 81, 100
3, 57524, Control_c, 1, 11, 50
3, 57544, Note_on_c, 1, 81, 0
3, 57544, Note_on_c, 1, 69, 0
3, 57564, Control_c, 1, 11, 51
3, 57604, Control_c, 1, 11, 52
3, 57604, Note_on_c, 1, 72, 100
3, 57604, Note_on_c, 1, 84, 100
3, 57633, Control_c, 1, 11, 53
3, 57659, Note_on_c, 1, 84, 0
3, 57659, Note_on_c, 1, 72, 0
3, 57662, Control_c, 1, 11, 54
3, 57664, Note_on_c, 1, 72, 100
3, 57664, Note_on_c, 1, 84, 100
3, 57691, Control_c, 1, 11, 55
3, 57720, Control_c, 1, 11, 56
3, 57749, Control_c, 1, 11, 57
3, 57778, Control_c, 1, 11, 57
3, 57779, Note_on_c, 1, 84, 0
3, 57779, Note_on_c, 1, 72, 0
3, 57784, Note_on_c, 1, 84, 100
3, 57784, Note_on_c, 1, 72, 100
3, 57808, Control_c, 1, 11, 58
3, 57837, Control_c, 1, 11, 59
3, 57866, Control_c, 1, 11, 60
3, 57895, Control_c, 1, 11, 60
3, 57899, Note_on_c, 1, 72, 0
3, 57899, Note_on_c, 1, 84, 0
3, 57904, Note_on_c, 1, 72, 100
3, 57904, Note_on_c, 1, 84, 100
3, 57924, Control_c, 1, 11, 61
3, 57953, Control_c, 1, 11, 62
3, 57982, Control_c, 1, 11, 63
3, 58012, Control_c, 1, 11, 63
3, 58019, Note_on_c, 1, 84, 0
3, 58019, Note_on_c, 1, 72, 0
3, 58024, Note_on_c, 1, 72, 100
3, 58024, Note_on_c, 1, 84, 100
3, 58041, Control_c, 1, 11, 64
3, 58070, Control_c, 1, 11, 65
3, 58099, Control_c, 1, 11, 66
3, 58128, Control_c, 1, 11, 66
3, 58139, Note_on_c, 1, 84, 0
3, 58139, Note_on_c, 1, 72, 0
3, 58144, Note_on_c, 1, 84, 100
3, 58144, Note_on_c, 1, 72, 100
3, 58157, Control_c, 1, 11, 67
3, 58186, Control_c, 1, 11, 67
3, 58216, Control_c, 1, 11, 68
3, 58245, Control_c, 1, 11, 68
3, 58259, Note_on_c, 1, 72, 0
3, 58259, Note_on_c, 1, 84, 0
3, 58264, Note_on_c, 1, 84, 100
3, 58264, Note_on_c, 1, 72, 100
3, 58274, Control_c, 1, 11, 69
3, 58303, Control_c, 1, 11, 69
3, 58332, Control_c, 1, 11, 70
3, 58361, Control_c, 1, 11, 70
3, 58379, Note_on_c, 1, 72, 0
3, 58379, Note_on_c, 1, 84, 0
3, 58384, Note_on_c, 1, 84, 100
3, 58384, Note_on_c, 1, 72, 100
3, 58390, Control_c, 1, 11, 71
3, 58420, Control_c, 1, 11, 71
3, 58444, Note_on_c, 1, 72, 100
3, 58444, Note_on_c, 1, 84, 100
3, 58449, Control_c, 1, 11, 72
3, 58478, Control_c, 1, 11, 72
3, 58499, Note_on_c, 1, 72, 0
3, 58499, Note_on_c, 1, 84, 0
3, 58504, Note_on_c, 1, 84, 100
3, 58504, Note_on_c, 1, 72, 100
3, 58507, Control_c, 1, 11, 73
3, 58536, Control_c, 1, 11, 73
3, 58559, Note_on_c, 1, 72, 0
3, 58559, Note_on_c, 1, 84, 0
3, 58565, Control_c, 1, 11, 74
3, 58594, Control_c, 1, 11, 74
3, 58619, Note_on_c, 1, 84, 0
3, 58619, Note_on_c, 1, 72, 0
3, 58624, Control_c, 1, 11, 75
3, 58624, Note_on_c, 1, 72, 100
3, 58624, Note_on_c, 1, 84, 100
3, 58739, Note_on_c, 1, 84, 0
3, 58739, Note_on_c, 1, 72, 0
3, 58744, Note_on_c, 1, 72, 100
3, 58744, Note_on_c, 1, 84, 100
3, 58859, Note_on_c, 1, 84, 0
3, 58859, Note_on_c, 1, 72, 0
3, 58864, Note_on_c, 1, 84, 100
3, 58864, Note_on_c, 1, 72, 100
3, 58979, Note_on_c, 1, 72, 0
3, 58979, Note_on_c, 1, 84, 0
3, 58984, Note_on_c, 1, 84, 100
3, 58984, Note_on_c, 1, 72, 100
3, 59099, Note_on_c, 1, 72, 0
3, 59099, Note_on_c, 1, 84, 0
3, 59104, Note_on_c, 1, 84, 100
3, 59104, Note_on_c, 1, 72, 100
3, 59159, Note_on_c, 1, 72, 0
3, 59159, Note_on_c, 1, 84, 0
3, 59164, Note_on_c, 1, 77, 100
3, 59164, Note_on_c, 1, 65, 100
3, 59219, Note_on_c, 1, 65, 0
3, 59219, Note_on_c, 1, 77, 0
3, 59224, Note_on_c, 1, 65, 100
3, 59224, Note_on_c, 1, 77, 100
3, 59339, Note_on_c, 1, 77, 0
3, 59339, Note_on_c, 1, 65, 0
3, 59344, Note_on_c, 1, 65, 100
3, 59344, Control_c, 1, 11, 83
3, 59344, Note_on_c, 1, 77, 100
3, 59459, Note_on_c, 1, 77, 0
3, 59459, Note_on_c, 1, 65, 0
3, 59464, Note_on_c, 1, 65, 100
3, 59464, Note_on_c, 1, 77, 100
3, 59584, Note_on_c, 1, 77, 0
3, 59584, Note_on_c, 1, 65, 0
3, 59704, Note_on_c, 1, 73, 100
3, 59704, Control_c, 1, 11, 42
3, 59704, Note_on_c, 1, 69, 100
3, 59759, Note_on_c, 1, 69, 0
3, 59759, Note_on_c, 1, 73, 0
3, 59764, Note_on_c, 1, 69, 100
3, 59764, Note_on_c, 1, 73, 100
3, 59884, Note_on_c, 1, 73, 0
3, 59884, Note_on_c, 1, 69, 0
3, 59884, Note_on_c, 1, 70, 100
3, 59884, Note_on_c, 1, 74, 100
3, 59944, Note_on_c, 1, 74, 0
3, 59944, Note_on_c, 1, 70, 0
3, 60964, Note_on_c, 1, 72, 100
3, 60964, Control_c, 1, 11, 75
3, 61024, Note_on_c, 1, 72, 0
3, 61084, Note_on_c, 1, 77, 110
3, 61084, Control_c, 1, 11, 85
3, 61108, Control_c, 1, 11, 81
3, 61132, Control_c, 1, 11, 77
3, 61264, Note_on_c, 1, 77, 0
3, 61684, Note_on_c, 1, 72, 100
3, 61744, Note_on_c, 1, 72, 0
3, 61804, Control_c, 1, 11, 85
3, 61804, Note_on_c, 1, 82, 100
3, 61804, Note_on_c, 1, 79, 100
3, 61828, Control_c, 1, 11, 81
3, 61852, Control_c, 1, 11, 77
3, 61924, Note_on_c, 1, 79, 0
3, 61924, Note_on_c, 1, 82, 0
3, 61924, Note_on_c, 1, 81, 100
3, 61924, Note_on_c, 1, 77, 100
3, 61984, Note_on_c, 1, 77, 0
3, 61984, Note_on_c, 1, 81, 0
3, 62284, Control_c, 1, 11, 85
3, 62284, Note_on_c, 1, 82, 100
3, 62284, Note_on_c, 1, 79, 100
3, 62308, Control_c, 1, 11, 81
3, 62332, Control_c, 1, 11, 77
3, 62404, Note_on_c, 1, 79, 0
3, 62404, Note_on_c, 1, 82, 0
3, 62404, Note_on_c, 1, 81, 100
3, 62404, Note_on_c, 1, 77, 100
3, 62464, Note_on_c, 1, 77, 0
3, 62464, Note_on_c, 1, 81, 0
3, 62884, Note_on_c, 1, 82, 100
3, 62884, Note_on_c, 1, 79, 100
3, 62884, Control_c, 1, 11, 90
3, 62908, Control_c, 1, 11, 86
3, 62932, Control_c, 1, 11, 82
3, 63124, Note_on_c, 1, 79, 0
3, 63124, Note_on_c, 1, 82, 0
3, 63124, Note_on_c, 1, 81, 100
3, 63124, Note_on_c, 1, 77, 100
3, 63184, Note_on_c, 1, 77, 0
3, 63184, Note_on_c, 1, 81, 0
3, 63724, Control_c, 1, 121, 0
3, 63724, End_track
4, 0, Start_track
4, 0, MIDI_port, 0
4, 0, Title_t, "2 Clarinetti in B"
4, 0, Program_c, 2, 71
4, 0, Control_c, 2, 10, 65
4, 5, Control_c, 2, 121, 0
4, 10, Program_c, 2, 71
4, 15, Pitch_bend_c, 2, 8192
4, 20, Control_c, 2, 11, 75
4, 25, Control_c, 2, 7, 127
4, 30, Control_c, 2, 91, 54
4, 35, Control_c, 2, 93, 0
4, 3125, Control_c, 2, 11, 85
4, 3125, Note_on_c, 2, 60, 101
4, 3125, Note_on_c, 2, 72, 101
4, 3185, Note_on_c, 2, 72, 0
4, 3185, Note_on_c, 2, 60, 0
4, 3245, Control_c, 2, 11, 95
4, 3245, Note_on_c, 2, 65, 101
4, 3245, Note_on_c, 2, 77, 101
4, 3266, Control_c, 2, 11, 91
4, 3290, Control_c, 2, 11, 87
4, 3485, Note_on_c, 2, 77, 0
4, 3485, Note_on_c, 2, 65, 0
4, 3905, Note_on_c, 2, 67, 101
4, 3905, Note_on_c, 2, 70, 101
4, 3955, Note_on_c, 2, 70, 0
4, 3955, Note_on_c, 2, 67, 0
4, 3965, Note_on_c, 2, 70, 101
4, 3965, Note_on_c, 2, 67, 101
4, 4085, Note_on_c, 2, 67, 0
4, 4085, Note_on_c, 2, 70, 0
4, 4085, Note_on_c, 2, 65, 101
4, 4085, Note_on_c, 2, 69, 101
4, 4145, Note_on_c, 2, 69, 0
4, 4145, Note_on_c, 2, 65, 0
4, 6725, Control_c, 2, 11, 85
4, 6725, Note_on_c, 2, 60, 101
4, 6725, Note_on_c, 2, 72, 101
4, 6785, Note_on_c, 2, 72, 0
4, 6785, Note_on_c, 2, 60, 0
4, 6845, Control_c, 2, 11, 95
4, 6845, Note_on_c, 2, 65, 101
4, 6845, Note_on_c, 2, 77, 101
4, 6866, Control_c, 2, 11, 91
4, 6890, Control_c, 2, 11, 87
4, 7085, Note_on_c, 2, 77, 0
4, 7085, Note_on_c, 2, 65, 0
4, 7505, Note_on_c, 2, 67, 101
4, 7505, Note_on_c, 2, 70, 101
4, 7555, Note_on_c, 2, 70, 0
4, 7555, Note_on_c, 2, 67, 0
4, 7565, Note_on_c, 2, 70, 101
4, 7565, Note_on_c, 2, 67, 101
4, 7685, Note_on_c, 2, 67, 0
4, 7685, Note_on_c, 2, 70, 0
4, 7685, Note_on_c, 2, 65, 101
4, 7685, Note_on_c, 2, 69, 101
4, 7745, Note_on_c, 2, 69, 0
4, 7745, Note_on_c, 2, 65, 0
4, 8045, Control_c, 2, 11, 85
4, 8045, Note_on_c, 2, 77, 101
4, 8045, Note_on_c, 2, 71, 101
4, 8069, Control_c, 2, 11, 81
4, 8093, Control_c, 2, 11, 77
4, 8105, Note_on_c, 2, 71, 0
4, 8105, Note_on_c, 2, 77, 0
4, 8405, Control_c, 2, 11, 85
4, 8405, Note_on_c, 2, 76, 101
4, 8405, Note_on_c, 2, 72, 101
4, 8429, Control_c, 2, 11, 81
4, 8453, Control_c, 2, 11, 77
4, 8465, Note_on_c, 2, 72, 0
4, 8465, Note_on_c, 2, 76, 0
4, 8765, Control_c, 2, 11, 85
4, 8765, Note_on_c, 2, 77, 101
4, 8765, Note_on_c, 2, 74, 101
4, 8789, Control_c, 2, 11, 81
4, 8813, Control_c, 2, 11, 77
4, 8825, Note_on_c, 2, 74, 0
4, 8825, Note_on_c, 2, 77, 0
4, 9125, Control_c, 2, 11, 85
4, 9125, Note_on_c, 2, 76, 101
4, 9125, Note_on_c, 2, 72, 101
4, 9149, Control_c, 2, 11, 81
4, 9173, Control_c, 2, 11, 77
4, 9185, Note_on_c, 2, 72, 0
4, 9185, Note_on_c, 2, 76, 0
4, 9245, Note_on_c, 2, 72, 101
4, 9245, Note_on_c, 2, 76, 101
4, 9305, Note_on_c, 2, 76, 0
4, 9305, Note_on_c, 2, 72, 0
4, 9365, Control_c, 2, 11, 85
4, 9365, Note_on_c, 2, 74, 101
4, 9389, Control_c, 2, 11, 81
4, 9413, Control_c, 2, 11, 77
4, 9425, Note_on_c, 2, 74, 0
4, 9485, Note_on_c, 2, 74, 101
4, 9545, Note_on_c, 2, 74, 0
4, 9725, Control_c, 2, 11, 85
4, 9725, Note_on_c, 2, 76, 101
4, 9725, Note_on_c, 2, 72, 101
4, 9749, Control_c, 2, 11, 81
4, 9773, Control_c, 2, 11, 77
4, 9785, Note_on_c, 2, 72, 0
4, 9785, Note_on_c, 2, 76, 0
4, 9845, Note_on_c, 2, 76, 101
4, 9845, Note_on_c, 2, 72, 101
4, 9905, Note_on_c, 2, 72, 0
4, 9905, Note_on_c, 2, 76, 0
4, 10085, Control_c, 2, 11, 85
4, 10085, Note_on_c, 2, 70, 101
4, 10085, Note_on_c, 2, 76, 101
4, 10109, Control_c, 2, 11, 81
4, 10133, Control_c, 2, 11, 77
4, 10145, Note_on_c, 2, 76, 0
4, 10145, Note_on_c, 2, 70, 0
4, 10205, Note_on_c, 2, 70, 101
4, 10205, Note_on_c, 2, 76, 101
4, 10265, Note_on_c, 2, 76, 0
4, 10265, Note_on_c, 2, 70, 0
4, 10445, Control_c, 2, 11, 85
4, 10445, Note_on_c, 2, 69, 101
4, 10445, Note_on_c, 2, 77, 101
4, 10469, Control_c, 2, 11, 81
4, 10493, Control_c, 2, 11, 77
4, 10505, Note_on_c, 2, 77, 0
4, 10505, Note_on_c, 2, 69, 0
4, 10565, Note_on_c, 2, 69, 101
4, 10565, Note_on_c, 2, 77, 101
4, 10625, Note_on_c, 2, 77, 0
4, 10625, Note_on_c, 2, 69, 0
4, 10685, Control_c, 2, 11, 70
4, 10685, Note_on_c, 2, 60, 101
4, 10685, Note_on_c, 2, 72, 101
4, 10745, Note_on_c, 2, 72, 0
4, 10745, Note_on_c, 2, 60, 0
4, 10805, Control_c, 2, 11, 70
4, 10805, Note_on_c, 2, 75, 101
4, 10805, Note_on_c, 2, 72, 101
4, 10833, Control_c, 2, 11, 66
4, 10849, Control_c, 2, 11, 63
4, 10865, Control_c, 2, 11, 60
4, 10881, Control_c, 2, 11, 57
4, 10897, Control_c, 2, 11, 54
4, 10909, Control_c, 2, 11, 51
4, 10921, Control_c, 2, 11, 48
4, 11405, Note_on_c, 2, 72, 0
4, 11405, Note_on_c, 2, 75, 0
4, 11405, Control_c, 2, 11, 47
4, 11405, Note_on_c, 2, 75, 101
4, 11405, Note_on_c, 2, 72, 101
4, 11461, Control_c, 2, 11, 46
4, 11517, Control_c, 2, 11, 45
4, 11573, Control_c, 2, 11, 44
4, 11629, Control_c, 2, 11, 43
4, 11685, Control_c, 2, 11, 42
4, 11741, Control_c, 2, 11, 41
4, 11765, Note_on_c, 2, 72, 0
4, 11765, Note_on_c, 2, 75, 0
4, 11765, Note_on_c, 2, 72, 101
4, 11765, Note_on_c, 2, 75, 101
4, 11797, Control_c, 2, 11, 40
4, 11853, Control_c, 2, 11, 39
4, 11909, Control_c, 2, 11, 38
4, 11965, Control_c, 2, 11, 37
4, 12021, Control_c, 2, 11, 36
4, 12077, Control_c, 2, 11, 35
4, 12125, Note_on_c, 2, 75, 0
4, 12125, Note_on_c, 2, 72, 0
4, 12133, Control_c, 2, 11, 34
4, 12189, Control_c, 2, 11, 33
4, 12245, Control_c, 2, 11, 37
4, 12245, Note_on_c, 2, 72, 73
4, 12245, Note_on_c, 2, 75, 73
4, 12305, Note_on_c, 2, 75, 0
4, 12305, Note_on_c, 2, 72, 0
4, 12485, Note_on_c, 2, 72, 73
4, 12485, Note_on_c, 2, 75, 73
4, 12545, Note_on_c, 2, 75, 0
4, 12545, Note_on_c, 2, 72, 0
4, 12725, Note_on_c, 2, 72, 73
4, 12725, Note_on_c, 2, 75, 73
4, 12785, Note_on_c, 2, 75, 0
4, 12785, Note_on_c, 2, 72, 0
4, 14405, Control_c, 2, 11, 52
4, 14434, Control_c, 2, 11, 53
4, 14463, Control_c, 2, 11, 54
4, 14492, Control_c, 2, 11, 55
4, 14521, Control_c, 2, 11, 56
4, 14550, Control_c, 2, 11, 57
4, 14579, Control_c, 2, 11, 57
4, 14609, Control_c, 2, 11, 58
4, 14638, Control_c, 2, 11, 59
4, 14667, Control_c, 2, 11, 60
4, 14696, Control_c, 2, 11, 60
4, 14725, Control_c, 2, 11, 61
4, 14754, Control_c, 2, 11, 62
4, 14783, Control_c, 2, 11, 63
4, 14813, Control_c, 2, 11, 63
4, 14842, Control_c, 2, 11, 64
4, 14871, Control_c, 2, 11, 65
4, 14900, Control_c, 2, 11, 66
4, 14929, Control_c, 2, 11, 66
4, 14958, Control_c, 2, 11, 67
4, 14987, Control_c, 2, 11, 67
4, 15017, Control_c, 2, 11, 68
4, 15046, Control_c, 2, 11, 68
4, 15075, Control_c, 2, 11, 69
4, 15104, Control_c, 2, 11, 69
4, 15133, Control_c, 2, 11, 70
4, 15162, Control_c, 2, 11, 70
4, 15191, Control_c, 2, 11, 71
4, 15221, Control_c, 2, 11, 71
4, 15245, Note_on_c, 2, 67, 101
4, 15250, Control_c, 2, 11, 72
4, 15279, Control_c, 2, 11, 72
4, 15305, Note_on_c, 2, 67, 0
4, 15305, Note_on_c, 2, 69, 101
4, 15308, Control_c, 2, 11, 73
4, 15337, Control_c, 2, 11, 73
4, 15365, Note_on_c, 2, 69, 0
4, 15365, Note_on_c, 2, 70, 101
4, 15366, Control_c, 2, 11, 74
4, 15395, Control_c, 2, 11, 74
4, 15420, Note_on_c, 2, 70, 0
4, 15425, Control_c, 2, 11, 75
4, 15425, Note_on_c, 2, 71, 101
4, 15480, Note_on_c, 2, 71, 0
4, 15485, Control_c, 2, 11, 80
4, 15485, Note_on_c, 2, 71, 101
4, 15605, Note_on_c, 2, 71, 0
4, 15605, Note_on_c, 2, 72, 101
4, 15665, Note_on_c, 2, 72, 0
4, 15665, Note_on_c, 2, 74, 101
4, 15725, Note_on_c, 2, 74, 0
4, 15725, Note_on_c, 2, 75, 101
4, 15780, Note_on_c, 2, 75, 0
4, 15785, Note_on_c, 2, 76, 101
4, 15840, Note_on_c, 2, 76, 0
4, 15845, Note_on_c, 2, 64, 101
4, 15845, Note_on_c, 2, 76, 101
4, 15965, Note_on_c, 2, 76, 0
4, 15965, Note_on_c, 2, 64, 0
4, 15965, Note_on_c, 2, 65, 101
4, 15965, Note_on_c, 2, 77, 101
4, 16025, Note_on_c, 2, 77, 0
4, 16025, Note_on_c, 2, 65, 0
4, 16025, Note_on_c, 2, 67, 101
4, 16025, Note_on_c, 2, 79, 101
4, 16085, Note_on_c, 2, 79, 0
4, 16085, Note_on_c, 2, 67, 0
4, 16085, Note_on_c, 2, 68, 101
4, 16085, Note_on_c, 2, 80, 101
4, 16140, Note_on_c, 2, 80, 0
4, 16140, Note_on_c, 2, 68, 0
4, 16145, Control_c, 2, 11, 83
4, 16145, Note_on_c, 2, 69, 101
4, 16145, Note_on_c, 2, 81, 101
4, 16200, Note_on_c, 2, 81, 0
4, 16200, Note_on_c, 2, 69, 0
4, 16205, Note_on_c, 2, 69, 101
4, 16205, Note_on_c, 2, 81, 101
4, 16325, Note_on_c, 2, 81, 0
4, 16325, Note_on_c, 2, 69, 0
4, 16325, Note_on_c, 2, 70, 101
4, 16325, Note_on_c, 2, 82, 101
4, 16385, Note_on_c, 2, 82, 0
4, 16385, Note_on_c, 2, 70, 0
4, 17765, Control_c, 2, 11, 75
4, 17765, Note_on_c, 2, 60, 101
4, 17765, Note_on_c, 2, 72, 101
4, 17825, Note_on_c, 2, 72, 0
4, 17825, Note_on_c, 2, 60, 0
4, 17885, Control_c, 2, 11, 85
4, 17885, Note_on_c, 2, 65, 111
4, 17885, Note_on_c, 2, 77, 111
4, 17909, Control_c, 2, 11, 81
4, 17933, Control_c, 2, 11, 77
4, 18065, Note_on_c, 2, 77, 0
4, 18065, Note_on_c, 2, 65, 0
4, 18485, Note_on_c, 2, 60, 101
4, 18485, Note_on_c, 2, 72, 101
4, 18545, Note_on_c, 2, 72, 0
4, 18545, Note_on_c, 2, 60, 0
4, 18605, Control_c, 2, 11, 85
4, 18605, Note_on_c, 2, 76, 101
4, 18605, Note_on_c, 2, 70, 101
4, 18629, Control_c, 2, 11, 81
4, 18653, Control_c, 2, 11, 77
4, 18725, Note_on_c, 2, 70, 0
4, 18725, Note_on_c, 2, 76, 0
4, 18725, Note_on_c, 2, 69, 101
4, 18725, Note_on_c, 2, 77, 101
4, 18785, Note_on_c, 2, 77, 0
4, 18785, Note_on_c, 2, 69, 0
4, 19085, Control_c, 2, 11, 85
4, 19085, Note_on_c, 2, 70, 101
4, 19085, Note_on_c, 2, 76, 101
4, 19109, Control_c, 2, 11, 81
4, 19133, Control_c, 2, 11, 77
4, 19205, Note_on_c, 2, 76, 0
4, 19205, Note_on_c, 2, 70, 0
4, 19205, Note_on_c, 2, 69, 101
4, 19205, Note_on_c, 2, 77, 101
4, 19265, Note_on_c, 2, 77, 0
4, 19265, Note_on_c, 2, 69, 0
4, 19565, Control_c, 2, 11, 95
4, 19565, Note_on_c, 2, 76, 127
4, 19586, Control_c, 2, 11, 91
4, 19610, Control_c, 2, 11, 87
4, 19685, Note_on_c, 2, 76, 0
4, 19805, Note_on_c, 2, 67, 101
4, 19805, Note_on_c, 2, 76, 101
4, 19925, Note_on_c, 2, 76, 0
4, 19925, Note_on_c, 2, 67, 0
4, 19925, Note_on_c, 2, 77, 101
4, 19925, Note_on_c, 2, 69, 101
4, 19985, Note_on_c, 2, 69, 0
4, 19985, Note_on_c, 2, 77, 0
4, 20285, Control_c, 2, 11, 85
4, 20285, Note_on_c, 2, 77, 101
4, 20285, Note_on_c, 2, 71, 101
4, 20309, Control_c, 2, 11, 81
4, 20333, Control_c, 2, 11, 77
4, 20345, Note_on_c, 2, 71, 0
4, 20345, Note_on_c, 2, 77, 0
4, 20645, Control_c, 2, 11, 85
4, 20645, Note_on_c, 2, 76, 101
4, 20645, Note_on_c, 2, 72, 101
4, 20669, Control_c, 2, 11, 81
4, 20693, Control_c, 2, 11, 77
4, 20705, Note_on_c, 2, 72, 0
4, 20705, Note_on_c, 2, 76, 0
4, 21005, Control_c, 2, 11, 85
4, 21005, Note_on_c, 2, 77, 101
4, 21005, Note_on_c, 2, 74, 101
4, 21029, Control_c, 2, 11, 81
4, 21053, Control_c, 2, 11, 77
4, 21065, Note_on_c, 2, 74, 0
4, 21065, Note_on_c, 2, 77, 0
4, 21365, Control_c, 2, 11, 85
4, 21365, Note_on_c, 2, 76, 101
4, 21365, Note_on_c, 2, 72, 101
4, 21389, Control_c, 2, 11, 81
4, 21413, Control_c, 2, 11, 77
4, 21425, Note_on_c, 2, 72, 0
4, 21425, Note_on_c, 2, 76, 0
4, 21485, Note_on_c, 2, 72, 101
4, 21485, Note_on_c, 2, 76, 101
4, 21545, Note_on_c, 2, 76, 0
4, 21545, Note_on_c, 2, 72, 0
4, 21605, Control_c, 2, 11, 85
4, 21605, Note_on_c, 2, 74, 101
4, 21629, Control_c, 2, 11, 81
4, 21653, Control_c, 2, 11, 77
4, 21665, Note_on_c, 2, 74, 0
4, 21725, Note_on_c, 2, 74, 101
4, 21785, Note_on_c, 2, 74, 0
4, 21965, Control_c, 2, 11, 85
4, 21965, Note_on_c, 2, 76, 101
4, 21965, Note_on_c, 2, 72, 101
4, 21989, Control_c, 2, 11, 81
4, 22013, Control_c, 2, 11, 77
4, 22025, Note_on_c, 2, 72, 0
4, 22025, Note_on_c, 2, 76, 0
4, 22085, Note_on_c, 2, 76, 101
4, 22085, Note_on_c, 2, 72, 101
4, 22145, Note_on_c, 2, 72, 0
4, 22145, Note_on_c, 2, 76, 0
4, 22325, Control_c, 2, 11, 85
4, 22325, Note_on_c, 2, 70, 101
4, 22325, Note_on_c, 2, 76, 101
4, 22349, Control_c, 2, 11, 81
4, 22373, Control_c, 2, 11, 77
4, 22385, Note_on_c, 2, 76, 0
4, 22385, Note_on_c, 2, 70, 0
4, 22445, Note_on_c, 2, 70, 101
4, 22445, Note_on_c, 2, 76, 101
4, 22505, Note_on_c, 2, 76, 0
4, 22505, Note_on_c, 2, 70, 0
4, 22685, Control_c, 2, 11, 85
4, 22685, Note_on_c, 2, 69, 101
4, 22685, Note_on_c, 2, 77, 101
4, 22709, Control_c, 2, 11, 81
4, 22733, Control_c, 2, 11, 77
4, 22745, Note_on_c, 2, 77, 0
4, 22745, Note_on_c, 2, 69, 0
4, 22805, Note_on_c, 2, 69, 101
4, 22805, Note_on_c, 2, 77, 101
4, 22865, Note_on_c, 2, 77, 0
4, 22865, Note_on_c, 2, 69, 0
4, 22925, Control_c, 2, 11, 70
4, 22925, Note_on_c, 2, 60, 101
4, 22925, Note_on_c, 2, 72, 101
4, 22985, Note_on_c, 2, 72, 0
4, 22985, Note_on_c, 2, 60, 0
4, 23045, Control_c, 2, 11, 70
4, 23045, Note_on_c, 2, 75, 101
4, 23045, Note_on_c, 2, 72, 101
4, 23073, Control_c, 2, 11, 66
4, 23089, Control_c, 2, 11, 63
4, 23105, Control_c, 2, 11, 60
4, 23121, Control_c, 2, 11, 57
4, 23137, Control_c, 2, 11, 54
4, 23149, Control_c, 2, 11, 51
4, 23161, Control_c, 2, 11, 48
4, 23645, Note_on_c, 2, 72, 0
4, 23645, Note_on_c, 2, 75, 0
4, 23645, Control_c, 2, 11, 47
4, 23645, Note_on_c, 2, 75, 101
4, 23645, Note_on_c, 2, 72, 101
4, 23701, Control_c, 2, 11, 46
4, 23757, Control_c, 2, 11, 45
4, 23813, Control_c, 2, 11, 44
4, 23869, Control_c, 2, 11, 43
4, 23925, Control_c, 2, 11, 42
4, 23981, Control_c, 2, 11, 41
4, 24005, Note_on_c, 2, 72, 0
4, 24005, Note_on_c, 2, 75, 0
4, 24005, Note_on_c, 2, 72, 101
4, 24005, Note_on_c, 2, 75, 101
4, 24037, Control_c, 2, 11, 40
4, 24093, Control_c, 2, 11, 39
4, 24149, Control_c, 2, 11, 38
4, 24205, Control_c, 2, 11, 37
4, 24261, Control_c, 2, 11, 36
4, 24317, Control_c, 2, 11, 35
4, 24365, Note_on_c, 2, 75, 0
4, 24365, Note_on_c, 2, 72, 0
4, 24373, Control_c, 2, 11, 34
4, 24429, Control_c, 2, 11, 33
4, 24485, Control_c, 2, 11, 37
4, 24485, Note_on_c, 2, 72, 73
4, 24485, Note_on_c, 2, 75, 73
4, 24545, Note_on_c, 2, 75, 0
4, 24545, Note_on_c, 2, 72, 0
4, 24725, Note_on_c, 2, 72, 73
4, 24725, Note_on_c, 2, 75, 73
4, 24785, Note_on_c, 2, 75, 0
4, 24785, Note_on_c, 2, 72, 0
4, 24965, Note_on_c, 2, 72, 73
4, 24965, Note_on_c, 2, 75, 73
4, 25025, Note_on_c, 2, 75, 0
4, 25025, Note_on_c, 2, 72, 0
4, 26645, Control_c, 2, 11, 52
4, 26674, Control_c, 2, 11, 53
4, 26703, Control_c, 2, 11, 54
4, 26732, Control_c, 2, 11, 55
4, 26761, Control_c, 2, 11, 56
4, 26790, Control_c, 2, 11, 57
4, 26819, Control_c, 2, 11, 57
4, 26849, Control_c, 2, 11, 58
4, 26878, Control_c, 2, 11, 59
4, 26907, Control_c, 2, 11, 60
4, 26936, Control_c, 2, 11, 60
4, 26965, Control_c, 2, 11, 61
4, 26994, Control_c, 2, 11, 62
4, 27023, Control_c, 2, 11, 63
4, 27053, Control_c, 2, 11, 63
4, 27082, Control_c, 2, 11, 64
4, 27111, Control_c, 2, 11, 65
4, 27140, Control_c, 2, 11, 66
4, 27169, Control_c, 2, 11, 66
4, 27198, Control_c, 2, 11, 67
4, 27227, Control_c, 2, 11, 67
4, 27257, Control_c, 2, 11, 68
4, 27286, Control_c, 2, 11, 68
4, 27315, Control_c, 2, 11, 69
4, 27344, Control_c, 2, 11, 69
4, 27373, Control_c, 2, 11, 70
4, 27402, Control_c, 2, 11, 70
4, 27431, Control_c, 2, 11, 71
4, 27461, Control_c, 2, 11, 71
4, 27485, Note_on_c, 2, 67, 101
4, 27490, Control_c, 2, 11, 72
4, 27519, Control_c, 2, 11, 72
4, 27545, Note_on_c, 2, 67, 0
4, 27545, Note_on_c, 2, 69, 101
4, 27548, Control_c, 2, 11, 73
4, 27577, Control_c, 2, 11, 73
4, 27605, Note_on_c, 2, 69, 0
4, 27605, Note_on_c, 2, 70, 101
4, 27606, Control_c, 2, 11, 74
4, 27635, Control_c, 2, 11, 74
4, 27660, Note_on_c, 2, 70, 0
4, 27665, Control_c, 2, 11, 75
4, 27665, Note_on_c, 2, 71, 101
4, 27720, Note_on_c, 2, 71, 0
4, 27725, Control_c, 2, 11, 80
4, 27725, Note_on_c, 2, 71, 101
4, 27845, Note_on_c, 2, 71, 0
4, 27845, Note_on_c, 2, 72, 101
4, 27905, Note_on_c, 2, 72, 0
4, 27905, Note_on_c, 2, 74, 101
4, 27965, Note_on_c, 2, 74, 0
4, 27965, Note_on_c, 2, 75, 101
4, 28020, Note_on_c, 2, 75, 0
4, 28025, Note_on_c, 2, 76, 101
4, 28080, Note_on_c, 2, 76, 0
4, 28085, Note_on_c, 2, 64, 101
4, 28085, Note_on_c, 2, 76, 101
4, 28205, Note_on_c, 2, 76, 0
4, 28205, Note_on_c, 2, 64, 0
4, 28205, Note_on_c, 2, 65, 101
4, 28205, Note_on_c, 2, 77, 101
4, 28265, Note_on_c, 2, 77, 0
4, 28265, Note_on_c, 2, 65, 0
4, 28265, Note_on_c, 2, 67, 101
4, 28265, Note_on_c, 2, 79, 101
4, 28325, Note_on_c, 2, 79, 0
4, 28325, Note_on_c, 2, 67, 0
4, 28325, Note_on_c, 2, 68, 101
4, 28325, Note_on_c, 2, 80, 101
4, 28380, Note_on_c, 2, 80, 0
4, 28380, Note_on_c, 2, 68, 0
4, 28385, Control_c, 2, 11, 83
4, 28385, Note_on_c, 2, 69, 101
4, 28385, Note_on_c, 2, 81, 101
4, 28440, Note_on_c, 2, 81, 0
4, 28440, Note_on_c, 2, 69, 0
4, 28445, Note_on_c, 2, 69, 101
4, 28445, Note_on_c, 2, 81, 101
4, 28565, Note_on_c, 2, 81, 0
4, 28565, Note_on_c, 2, 69, 0
4, 28565, Note_on_c, 2, 70, 101
4, 28565, Note_on_c, 2, 82, 101
4, 28625, Note_on_c, 2, 82, 0
4, 28625, Note_on_c, 2, 70, 0
4, 30005, Control_c, 2, 11, 75
4, 30005, Note_on_c, 2, 60, 101
4, 30005, Note_on_c, 2, 72, 101
4, 30065, Note_on_c, 2, 72, 0
4, 30065, Note_on_c, 2, 60, 0
4, 30125, Control_c, 2, 11, 85
4, 30125, Note_on_c, 2, 65, 111
4, 30125, Note_on_c, 2, 77, 111
4, 30149, Control_c, 2, 11, 81
4, 30173, Control_c, 2, 11, 77
4, 30305, Note_on_c, 2, 77, 0
4, 30305, Note_on_c, 2, 65, 0
4, 30725, Note_on_c, 2, 60, 101
4, 30725, Note_on_c, 2, 72, 101
4, 30785, Note_on_c, 2, 72, 0
4, 30785, Note_on_c, 2, 60, 0
4, 30845, Control_c, 2, 11, 85
4, 30845, Note_on_c, 2, 76, 101
4, 30845, Note_on_c, 2, 70, 101
4, 30869, Control_c, 2, 11, 81
4, 30893, Control_c, 2, 11, 77
4, 30965, Note_on_c, 2, 70, 0
4, 30965, Note_on_c, 2, 76, 0
4, 30965, Note_on_c, 2, 69, 101
4, 30965, Note_on_c, 2, 77, 101
4, 31025, Note_on_c, 2, 77, 0
4, 31025, Note_on_c, 2, 69, 0
4, 31325, Control_c, 2, 11, 85
4, 31325, Note_on_c, 2, 70, 101
4, 31325, Note_on_c, 2, 76, 101
4, 31349, Control_c, 2, 11, 81
4, 31373, Control_c, 2, 11, 77
4, 31445, Note_on_c, 2, 76, 0
4, 31445, Note_on_c, 2, 70, 0
4, 31445, Note_on_c, 2, 69, 101
4, 31445, Note_on_c, 2, 77, 101
4, 31505, Note_on_c, 2, 77, 0
4, 31505, Note_on_c, 2, 69, 0
4, 31805, Control_c, 2, 11, 95
4, 31805, Note_on_c, 2, 76, 127
4, 31826, Control_c, 2, 11, 91
4, 31850, Control_c, 2, 11, 87
4, 31925, Note_on_c, 2, 76, 0
4, 32045, Note_on_c, 2, 67, 101
4, 32045, Note_on_c, 2, 76, 101
4, 32165, Note_on_c, 2, 76, 0
4, 32165, Note_on_c, 2, 67, 0
4, 32165, Note_on_c, 2, 77, 101
4, 32165, Note_on_c, 2, 69, 101
4, 32225, Note_on_c, 2, 69, 0
4, 32225, Note_on_c, 2, 77, 0
4, 33665, Control_c, 2, 11, 60
4, 33665, Note_on_c, 2, 72, 101
4, 33683, Control_c, 2, 11, 60
4, 33701, Control_c, 2, 11, 59
4, 33707, Note_on_c, 2, 72, 0
4, 33719, Control_c, 2, 11, 58
4, 33725, Note_on_c, 2, 74, 101
4, 33737, Control_c, 2, 11, 57
4, 33755, Control_c, 2, 11, 57
4, 33767, Note_on_c, 2, 74, 0
4, 33773, Control_c, 2, 11, 56
4, 33785, Note_on_c, 2, 76, 101
4, 33791, Control_c, 2, 11, 55
4, 33809, Control_c, 2, 11, 54
4, 33827, Note_on_c, 2, 76, 0
4, 33827, Control_c, 2, 11, 53
4, 33845, Control_c, 2, 11, 52
4, 33845, Note_on_c, 2, 77, 101
4, 33863, Control_c, 2, 11, 53
4, 33881, Control_c, 2, 11, 54
4, 33899, Control_c, 2, 11, 55
4, 33905, Note_on_c, 2, 77, 0
4, 33905, Note_on_c, 2, 79, 101
4, 33917, Control_c, 2, 11, 56
4, 33925, Note_on_c, 2, 79, 0
4, 33925, Note_on_c, 2, 77, 101
4, 33935, Control_c, 2, 11, 57
4, 33945, Note_on_c, 2, 77, 0
4, 33945, Note_on_c, 2, 76, 101
4, 33953, Control_c, 2, 11, 57
4, 33965, Note_on_c, 2, 76, 0
4, 33965, Note_on_c, 2, 77, 101
4, 33971, Control_c, 2, 11, 58
4, 33989, Control_c, 2, 11, 59
4, 34007, Control_c, 2, 11, 60
4, 34025, Note_on_c, 2, 77, 0
4, 34025, Control_c, 2, 11, 60
4, 34025, Note_on_c, 2, 79, 101
4, 34043, Control_c, 2, 11, 61
4, 34061, Control_c, 2, 11, 62
4, 34079, Control_c, 2, 11, 63
4, 34085, Note_on_c, 2, 79, 0
4, 34085, Note_on_c, 2, 81, 101
4, 34097, Control_c, 2, 11, 63
4, 34115, Control_c, 2, 11, 64
4, 34133, Control_c, 2, 11, 65
4, 34140, Note_on_c, 2, 81, 0
4, 34145, Note_on_c, 2, 81, 101
4, 34151, Control_c, 2, 11, 66
4, 34169, Control_c, 2, 11, 66
4, 34175, Note_on_c, 2, 81, 0
4, 34187, Control_c, 2, 11, 67
4, 34205, Control_c, 2, 11, 67
4, 34205, Note_on_c, 2, 81, 101
4, 34385, Note_on_c, 2, 81, 0
4, 34385, Note_on_c, 2, 79, 101
4, 34445, Note_on_c, 2, 79, 0
4, 34445, Note_on_c, 2, 77, 101
4, 34505, Note_on_c, 2, 77, 0
4, 34505, Note_on_c, 2, 76, 101
4, 34560, Note_on_c, 2, 76, 0
4, 34565, Note_on_c, 2, 76, 101
4, 34625, Note_on_c, 2, 76, 0
4, 34625, Note_on_c, 2, 77, 101
4, 34655, Note_on_c, 2, 77, 0
4, 34655, Note_on_c, 2, 76, 101
4, 34685, Note_on_c, 2, 76, 0
4, 34685, Note_on_c, 2, 74, 101
4, 34745, Note_on_c, 2, 74, 0
4, 34745, Note_on_c, 2, 76, 101
4, 34805, Note_on_c, 2, 76, 0
4, 34805, Note_on_c, 2, 79, 101
4, 34845, Note_on_c, 2, 79, 0
4, 34845, Note_on_c, 2, 77, 97
4, 34885, Note_on_c, 2, 77, 0
4, 34885, Note_on_c, 2, 74, 93
4, 34925, Note_on_c, 2, 74, 0
4, 34925, Note_on_c, 2, 74, 89
4, 34985, Note_on_c, 2, 74, 0
4, 34985, Note_on_c, 2, 72, 83
4, 35045, Note_on_c, 2, 72, 0
4, 35045, Note_on_c, 2, 72, 76
4, 35075, Note_on_c, 2, 72, 0
4, 36545, Control_c, 2, 11, 60
4, 36545, Note_on_c, 2, 72, 101
4, 36563, Control_c, 2, 11, 60
4, 36581, Control_c, 2, 11, 59
4, 36587, Note_on_c, 2, 72, 0
4, 36599, Control_c, 2, 11, 58
4, 36605, Note_on_c, 2, 74, 101
4, 36617, Control_c, 2, 11, 57
4, 36635, Control_c, 2, 11, 57
4, 36647, Note_on_c, 2, 74, 0
4, 36653, Control_c, 2, 11, 56
4, 36665, Note_on_c, 2, 76, 101
4, 36671, Control_c, 2, 11, 55
4, 36689, Control_c, 2, 11, 54
4, 36707, Note_on_c, 2, 76, 0
4, 36707, Control_c, 2, 11, 53
4, 36725, Control_c, 2, 11, 52
4, 36725, Note_on_c, 2, 77, 101
4, 36743, Control_c, 2, 11, 53
4, 36761, Control_c, 2, 11, 54
4, 36779, Control_c, 2, 11, 55
4, 36785, Note_on_c, 2, 77, 0
4, 36785, Note_on_c, 2, 79, 101
4, 36797, Control_c, 2, 11, 56
4, 36805, Note_on_c, 2, 79, 0
4, 36805, Note_on_c, 2, 77, 101
4, 36815, Control_c, 2, 11, 57
4, 36825, Note_on_c, 2, 77, 0
4, 36825, Note_on_c, 2, 76, 101
4, 36833, Control_c, 2, 11, 57
4, 36845, Note_on_c, 2, 76, 0
4, 36845, Note_on_c, 2, 77, 101
4, 36851, Control_c, 2, 11, 58
4, 36869, Control_c, 2, 11, 59
4, 36887, Control_c, 2, 11, 60
4, 36905, Note_on_c, 2, 77, 0
4, 36905, Control_c, 2, 11, 60
4, 36905, Note_on_c, 2, 79, 101
4, 36923, Control_c, 2, 11, 61
4, 36941, Control_c, 2, 11, 62
4, 36959, Control_c, 2, 11, 63
4, 36965, Note_on_c, 2, 79, 0
4, 36965, Note_on_c, 2, 81, 101
4, 36977, Control_c, 2, 11, 63
4, 36995, Control_c, 2, 11, 64
4, 37013, Control_c, 2, 11, 65
4, 37020, Note_on_c, 2, 81, 0
4, 37025, Note_on_c, 2, 81, 101
4, 37031, Control_c, 2, 11, 66
4, 37049, Control_c, 2, 11, 66
4, 37055, Note_on_c, 2, 81, 0
4, 37067, Control_c, 2, 11, 67
4, 37085, Control_c, 2, 11, 67
4, 37085, Note_on_c, 2, 81, 101
4, 37265, Note_on_c, 2, 81, 0
4, 37265, Note_on_c, 2, 79, 101
4, 37325, Note_on_c, 2, 79, 0
4, 37325, Note_on_c, 2, 77, 101
4, 37385, Note_on_c, 2, 77, 0
4, 37385, Note_on_c, 2, 76, 101
4, 37440, Note_on_c, 2, 76, 0
4, 37445, Note_on_c, 2, 76, 101
4, 37505, Note_on_c, 2, 76, 0
4, 37505, Note_on_c, 2, 77, 101
4, 37535, Note_on_c, 2, 77, 0
4, 37535, Note_on_c, 2, 76, 101
4, 37565, Note_on_c, 2, 76, 0
4, 37565, Note_on_c, 2, 74, 101
4, 37625, Note_on_c, 2, 74, 0
4, 37625, Note_on_c, 2, 76, 101
4, 37685, Note_on_c, 2, 76, 0
4, 37685, Note_on_c, 2, 79, 101
4, 37725, Note_on_c, 2, 79, 0
4, 37725, Note_on_c, 2, 77, 97
4, 37765, Note_on_c, 2, 77, 0
4, 37765, Note_on_c, 2, 74, 93
4, 37805, Note_on_c, 2, 74, 0
4, 37805, Note_on_c, 2, 74, 89
4, 37865, Note_on_c, 2, 74, 0
4, 37865, Note_on_c, 2, 72, 83
4, 37925, Note_on_c, 2, 72, 0
4, 37925, Note_on_c, 2, 72, 76
4, 37955, Note_on_c, 2, 72, 0
4, 38585, Control_c, 2, 11, 52
4, 38585, Note_on_c, 2, 79, 101
4, 38627, Note_on_c, 2, 79, 0
4, 38645, Note_on_c, 2, 81, 101
4, 38687, Note_on_c, 2, 81, 0
4, 38705, Note_on_c, 2, 83, 101
4, 38747, Note_on_c, 2, 83, 0
4, 38765, Note_on_c, 2, 84, 101
4, 38885, Note_on_c, 2, 84, 0
4, 39305, Note_on_c, 2, 79, 101
4, 39347, Note_on_c, 2, 79, 0
4, 39365, Note_on_c, 2, 81, 101
4, 39407, Note_on_c, 2, 81, 0
4, 39425, Note_on_c, 2, 83, 101
4, 39467, Note_on_c, 2, 83, 0
4, 39485, Note_on_c, 2, 84, 101
4, 39605, Note_on_c, 2, 84, 0
4, 39665, Control_c, 2, 11, 52
4, 39665, Note_on_c, 2, 75, 116
4, 39694, Control_c, 2, 11, 53
4, 39707, Note_on_c, 2, 75, 0
4, 39723, Control_c, 2, 11, 54
4, 39725, Note_on_c, 2, 77, 116
4, 39752, Control_c, 2, 11, 55
4, 39767, Note_on_c, 2, 77, 0
4, 39781, Control_c, 2, 11, 56
4, 39785, Note_on_c, 2, 79, 116
4, 39810, Control_c, 2, 11, 57
4, 39827, Note_on_c, 2, 79, 0
4, 39839, Control_c, 2, 11, 57
4, 39845, Note_on_c, 2, 80, 116
4, 39869, Control_c, 2, 11, 58
4, 39898, Control_c, 2, 11, 59
4, 39927, Control_c, 2, 11, 60
4, 39956, Control_c, 2, 11, 60
4, 39965, Note_on_c, 2, 80, 0
4, 39985, Control_c, 2, 11, 61
4, 40014, Control_c, 2, 11, 62
4, 40043, Control_c, 2, 11, 63
4, 40073, Control_c, 2, 11, 63
4, 40102, Control_c, 2, 11, 64
4, 40131, Control_c, 2, 11, 65
4, 40160, Control_c, 2, 11, 66
4, 40189, Control_c, 2, 11, 66
4, 40218, Control_c, 2, 11, 67
4, 40247, Control_c, 2, 11, 67
4, 40277, Control_c, 2, 11, 68
4, 40306, Control_c, 2, 11, 68
4, 40335, Control_c, 2, 11, 69
4, 40364, Control_c, 2, 11, 69
4, 40393, Control_c, 2, 11, 70
4, 40422, Control_c, 2, 11, 70
4, 40451, Control_c, 2, 11, 71
4, 40481, Control_c, 2, 11, 71
4, 40510, Control_c, 2, 11, 72
4, 40539, Control_c, 2, 11, 72
4, 40568, Control_c, 2, 11, 73
4, 40597, Control_c, 2, 11, 73
4, 40626, Control_c, 2, 11, 74
4, 40655, Control_c, 2, 11, 74
4, 40685, Control_c, 2, 11, 75
4, 40745, Control_c, 2, 11, 102
4, 40745, Note_on_c, 2, 72, 116
4, 40805, Note_on_c, 2, 72, 0
4, 40805, Note_on_c, 2, 76, 116
4, 40865, Note_on_c, 2, 76, 0
4, 40865, Note_on_c, 2, 79, 116
4, 40925, Note_on_c, 2, 79, 0
4, 40925, Note_on_c, 2, 84, 116
4, 40985, Note_on_c, 2, 84, 0
4, 40985, Note_on_c, 2, 82, 116
4, 41040, Note_on_c, 2, 82, 0
4, 41045, Control_c, 2, 11, 102
4, 41045, Note_on_c, 2, 81, 116
4, 41049, Control_c, 2, 11, 99
4, 41053, Control_c, 2, 11, 96
4, 41057, Control_c, 2, 11, 93
4, 41061, Control_c, 2, 11, 90
4, 41065, Control_c, 2, 11, 87
4, 41069, Control_c, 2, 11, 84
4, 41073, Control_c, 2, 11, 81
4, 41077, Control_c, 2, 11, 78
4, 41081, Control_c, 2, 11, 75
4, 41085, Control_c, 2, 11, 72
4, 41090, Control_c, 2, 11, 69
4, 41094, Control_c, 2, 11, 66
4, 41098, Control_c, 2, 11, 63
4, 41102, Control_c, 2, 11, 60
4, 41105, Note_on_c, 2, 81, 0
4, 41105, Note_on_c, 2, 82, 116
4, 41125, Note_on_c, 2, 82, 0
4, 41125, Note_on_c, 2, 81, 116
4, 41145, Note_on_c, 2, 81, 0
4, 41145, Note_on_c, 2, 79, 116
4, 41165, Note_on_c, 2, 79, 0
4, 41165, Control_c, 2, 11, 57
4, 41165, Note_on_c, 2, 81, 116
4, 41189, Control_c, 2, 11, 57
4, 41213, Control_c, 2, 11, 58
4, 41225, Note_on_c, 2, 81, 0
4, 41225, Note_on_c, 2, 82, 116
4, 41237, Control_c, 2, 11, 59
4, 41261, Control_c, 2, 11, 60
4, 41285, Note_on_c, 2, 82, 0
4, 41285, Control_c, 2, 11, 60
4, 41285, Note_on_c, 2, 84, 116
4, 41309, Control_c, 2, 11, 61
4, 41333, Control_c, 2, 11, 62
4, 41340, Note_on_c, 2, 84, 0
4, 41345, Note_on_c, 2, 84, 116
4, 41357, Control_c, 2, 11, 63
4, 41375, Note_on_c, 2, 84, 0
4, 41381, Control_c, 2, 11, 63
4, 41405, Control_c, 2, 11, 64
4, 41405, Note_on_c, 2, 84, 116
4, 41465, Note_on_c, 2, 84, 0
4, 41465, Note_on_c, 2, 85, 115
4, 41525, Note_on_c, 2, 85, 0
4, 41525, Note_on_c, 2, 86, 114
4, 41585, Note_on_c, 2, 86, 0
4, 41585, Note_on_c, 2, 74, 113
4, 41645, Note_on_c, 2, 74, 0
4, 41645, Note_on_c, 2, 84, 111
4, 41705, Note_on_c, 2, 84, 0
4, 41705, Note_on_c, 2, 82, 110
4, 41760, Note_on_c, 2, 82, 0
4, 41765, Note_on_c, 2, 81, 109
4, 41825, Note_on_c, 2, 81, 0
4, 41825, Note_on_c, 2, 84, 69
4, 41885, Note_on_c, 2, 84, 0
4, 41885, Note_on_c, 2, 89, 68
4, 41945, Note_on_c, 2, 89, 0
4, 41945, Note_on_c, 2, 81, 84
4, 42005, Note_on_c, 2, 81, 0
4, 42005, Note_on_c, 2, 84, 83
4, 42065, Note_on_c, 2, 84, 0
4, 42065, Control_c, 2, 11, 64
4, 42065, Note_on_c, 2, 76, 103
4, 42081, Control_c, 2, 11, 63
4, 42097, Control_c, 2, 11, 62
4, 42113, Control_c, 2, 11, 61
4, 42120, Note_on_c, 2, 76, 0
4, 42125, Note_on_c, 2, 77, 101
4, 42245, Note_on_c, 2, 77, 0
4, 42845, Note_on_c, 2, 72, 101
4, 42965, Note_on_c, 2, 72, 0
4, 42965, Note_on_c, 2, 77, 101
4, 43080, Note_on_c, 2, 77, 0
4, 43085, Note_on_c, 2, 77, 101
4, 43200, Note_on_c, 2, 77, 0
4, 43205, Note_on_c, 2, 77, 101
4, 43265, Note_on_c, 2, 77, 0
4, 43265, Note_on_c, 2, 76, 101
4, 43325, Note_on_c, 2, 76, 0
4, 43325, Note_on_c, 2, 74, 101
4, 43385, Note_on_c, 2, 74, 0
4, 43385, Note_on_c, 2, 72, 101
4, 43445, Note_on_c, 2, 72, 0
4, 43445, Note_on_c, 2, 70, 101
4, 43505, Note_on_c, 2, 70, 0
4, 43505, Note_on_c, 2, 67, 101
4, 43560, Note_on_c, 2, 67, 0
4, 43565, Note_on_c, 2, 65, 101
4, 43685, Note_on_c, 2, 65, 0
4, 44285, Control_c, 2, 11, 60
4, 44285, Note_on_c, 2, 72, 101
4, 44345, Note_on_c, 2, 72, 0
4, 44345, Note_on_c, 2, 77, 101
4, 44400, Note_on_c, 2, 77, 0
4, 44405, Note_on_c, 2, 77, 101
4, 44435, Note_on_c, 2, 77, 0
4, 44465, Note_on_c, 2, 77, 101
4, 44495, Note_on_c, 2, 77, 0
4, 44525, Note_on_c, 2, 77, 101
4, 44555, Note_on_c, 2, 77, 0
4, 44585, Note_on_c, 2, 77, 101
4, 44615, Note_on_c, 2, 77, 0
4, 44645, Note_on_c, 2, 77, 101
4, 44705, Note_on_c, 2, 77, 0
4, 44705, Note_on_c, 2, 76, 101
4, 44765, Note_on_c, 2, 76, 0
4, 44765, Note_on_c, 2, 74, 101
4, 44825, Note_on_c, 2, 74, 0
4, 44825, Note_on_c, 2, 72, 101
4, 44885, Note_on_c, 2, 72, 0
4, 44885, Note_on_c, 2, 70, 101
4, 44945, Note_on_c, 2, 70, 0
4, 44945, Note_on_c, 2, 67, 101
4, 45000, Note_on_c, 2, 67, 0
4, 45005, Control_c, 2, 11, 60
4, 45005, Note_on_c, 2, 65, 101
4, 45026, Control_c, 2, 11, 61
4, 45047, Control_c, 2, 11, 62
4, 45065, Note_on_c, 2, 65, 0
4, 45065, Note_on_c, 2, 72, 101
4, 45068, Control_c, 2, 11, 63
4, 45090, Control_c, 2, 11, 64
4, 45111, Control_c, 2, 11, 65
4, 45125, Note_on_c, 2, 72, 0
4, 45125, Note_on_c, 2, 84, 101
4, 45132, Control_c, 2, 11, 66
4, 45153, Control_c, 2, 11, 67
4, 45175, Control_c, 2, 11, 68
4, 45180, Note_on_c, 2, 84, 0
4, 45185, Note_on_c, 2, 81, 101
4, 45196, Control_c, 2, 11, 69
4, 45217, Control_c, 2, 11, 70
4, 45227, Note_on_c, 2, 81, 0
4, 45238, Control_c, 2, 11, 71
4, 45245, Note_on_c, 2, 79, 101
4, 45260, Control_c, 2, 11, 72
4, 45287, Note_on_c, 2, 79, 0
4, 45305, Note_on_c, 2, 77, 101
4, 45347, Note_on_c, 2, 77, 0
4, 45365, Control_c, 2, 11, 52
4, 45365, Note_on_c, 2, 77, 101
4, 45425, Note_on_c, 2, 77, 0
4, 45425, Note_on_c, 2, 76, 101
4, 45485, Note_on_c, 2, 76, 0
4, 45485, Note_on_c, 2, 74, 101
4, 45545, Note_on_c, 2, 74, 0
4, 45545, Note_on_c, 2, 72, 101
4, 45605, Note_on_c, 2, 72, 0
4, 45605, Note_on_c, 2, 70, 101
4, 45665, Note_on_c, 2, 70, 0
4, 45665, Note_on_c, 2, 67, 101
4, 45720, Note_on_c, 2, 67, 0
4, 45725, Control_c, 2, 11, 52
4, 45725, Note_on_c, 2, 65, 101
4, 45740, Control_c, 2, 11, 53
4, 45755, Control_c, 2, 11, 54
4, 45770, Control_c, 2, 11, 55
4, 45785, Note_on_c, 2, 65, 0
4, 45785, Control_c, 2, 11, 56
4, 45785, Note_on_c, 2, 72, 101
4, 45800, Control_c, 2, 11, 57
4, 45815, Control_c, 2, 11, 57
4, 45830, Control_c, 2, 11, 58
4, 45845, Note_on_c, 2, 72, 0
4, 45845, Control_c, 2, 11, 59
4, 45845, Note_on_c, 2, 84, 101
4, 45860, Control_c, 2, 11, 60
4, 45875, Control_c, 2, 11, 60
4, 45890, Control_c, 2, 11, 61
4, 45900, Note_on_c, 2, 84, 0
4, 45905, Control_c, 2, 11, 62
4, 45905, Note_on_c, 2, 81, 101
4, 45920, Control_c, 2, 11, 63
4, 45935, Control_c, 2, 11, 63
4, 45947, Note_on_c, 2, 81, 0
4, 45950, Control_c, 2, 11, 64
4, 45965, Control_c, 2, 11, 65
4, 45965, Note_on_c, 2, 79, 101
4, 45980, Control_c, 2, 11, 66
4, 45995, Control_c, 2, 11, 66
4, 46007, Note_on_c, 2, 79, 0
4, 46010, Control_c, 2, 11, 67
4, 46025, Control_c, 2, 11, 67
4, 46025, Note_on_c, 2, 77, 101
4, 46067, Note_on_c, 2, 77, 0
4, 46085, Control_c, 2, 11, 52
4, 46085, Note_on_c, 2, 77, 101
4, 46145, Note_on_c, 2, 77, 0
4, 46145, Note_on_c, 2, 72, 101
4, 46200, Note_on_c, 2, 72, 0
4, 46205, Note_on_c, 2, 72, 101
4, 46250, Note_on_c, 2, 72, 0
4, 46625, Control_c, 2, 11, 42
4, 46625, Note_on_c, 2, 81, 101
4, 46661, Control_c, 2, 11, 41
4, 46667, Note_on_c, 2, 81, 0
4, 46685, Note_on_c, 2, 79, 101
4, 46697, Control_c, 2, 11, 40
4, 46727, Note_on_c, 2, 79, 0
4, 46733, Control_c, 2, 11, 39
4, 46745, Note_on_c, 2, 77, 101
4, 46769, Control_c, 2, 11, 38
4, 46787, Note_on_c, 2, 77, 0
4, 46805, Control_c, 2, 11, 37
4, 46805, Note_on_c, 2, 77, 101
4, 46865, Note_on_c, 2, 77, 0
4, 46865, Note_on_c, 2, 72, 101
4, 46920, Note_on_c, 2, 72, 0
4, 46925, Note_on_c, 2, 72, 101
4, 46955, Note_on_c, 2, 72, 0
4, 46985, Note_on_c, 2, 72, 101
4, 47015, Note_on_c, 2, 72, 0
4, 47045, Note_on_c, 2, 77, 101
4, 47075, Note_on_c, 2, 77, 0
4, 47105, Note_on_c, 2, 81, 101
4, 47135, Note_on_c, 2, 81, 0
4, 47165, Note_on_c, 2, 84, 101
4, 47225, Note_on_c, 2, 84, 0
4, 47225, Note_on_c, 2, 81, 101
4, 47280, Note_on_c, 2, 81, 0
4, 47285, Note_on_c, 2, 89, 101
4, 47285, Note_on_c, 2, 77, 101
4, 47315, Control_c, 2, 11, 37
4, 47320, Control_c, 2, 11, 34
4, 47326, Control_c, 2, 11, 31
4, 47332, Control_c, 2, 11, 28
4, 47338, Control_c, 2, 11, 25
4, 47344, Control_c, 2, 11, 22
4, 47345, Note_on_c, 2, 77, 0
4, 47345, Note_on_c, 2, 89, 0
4, 49925, Control_c, 2, 11, 85
4, 49925, Note_on_c, 2, 60, 101
4, 49925, Note_on_c, 2, 72, 101
4, 49985, Note_on_c, 2, 72, 0
4, 49985, Note_on_c, 2, 60, 0
4, 50045, Control_c, 2, 11, 95
4, 50045, Note_on_c, 2, 65, 101
4, 50045, Note_on_c, 2, 77, 101
4, 50066, Control_c, 2, 11, 91
4, 50090, Control_c, 2, 11, 87
4, 50285, Note_on_c, 2, 77, 0
4, 50285, Note_on_c, 2, 65, 0
4, 50705, Note_on_c, 2, 67, 101
4, 50705, Note_on_c, 2, 70, 101
4, 50755, Note_on_c, 2, 70, 0
4, 50755, Note_on_c, 2, 67, 0
4, 50765, Note_on_c, 2, 70, 101
4, 50765, Note_on_c, 2, 67, 101
4, 50885, Note_on_c, 2, 67, 0
4, 50885, Note_on_c, 2, 70, 0
4, 50885, Note_on_c, 2, 65, 101
4, 50885, Note_on_c, 2, 69, 101
4, 50945, Note_on_c, 2, 69, 0
4, 50945, Note_on_c, 2, 65, 0
4, 51245, Control_c, 2, 11, 85
4, 51245, Note_on_c, 2, 77, 101
4, 51245, Note_on_c, 2, 71, 101
4, 51269, Control_c, 2, 11, 81
4, 51293, Control_c, 2, 11, 77
4, 51305, Note_on_c, 2, 71, 0
4, 51305, Note_on_c, 2, 77, 0
4, 51605, Control_c, 2, 11, 85
4, 51605, Note_on_c, 2, 76, 101
4, 51605, Note_on_c, 2, 72, 101
4, 51629, Control_c, 2, 11, 81
4, 51653, Control_c, 2, 11, 77
4, 51665, Note_on_c, 2, 72, 0
4, 51665, Note_on_c, 2, 76, 0
4, 51965, Control_c, 2, 11, 85
4, 51965, Note_on_c, 2, 77, 101
4, 51965, Note_on_c, 2, 74, 101
4, 51989, Control_c, 2, 11, 81
4, 52013, Control_c, 2, 11, 77
4, 52025, Note_on_c, 2, 74, 0
4, 52025, Note_on_c, 2, 77, 0
4, 52325, Control_c, 2, 11, 85
4, 52325, Note_on_c, 2, 76, 101
4, 52325, Note_on_c, 2, 72, 101
4, 52349, Control_c, 2, 11, 81
4, 52373, Control_c, 2, 11, 77
4, 52385, Note_on_c, 2, 72, 0
4, 52385, Note_on_c, 2, 76, 0
4, 52445, Note_on_c, 2, 72, 101
4, 52445, Note_on_c, 2, 76, 101
4, 52505, Note_on_c, 2, 76, 0
4, 52505, Note_on_c, 2, 72, 0
4, 52565, Control_c, 2, 11, 85
4, 52565, Note_on_c, 2, 74, 101
4, 52589, Control_c, 2, 11, 81
4, 52613, Control_c, 2, 11, 77
4, 52625, Note_on_c, 2, 74, 0
4, 52685, Note_on_c, 2, 74, 101
4, 52745, Note_on_c, 2, 74, 0
4, 52925, Control_c, 2, 11, 85
4, 52925, Note_on_c, 2, 76, 101
4, 52925, Note_on_c, 2, 72, 101
4, 52949, Control_c, 2, 11, 81
4, 52973, Control_c, 2, 11, 77
4, 52985, Note_on_c, 2, 72, 0
4, 52985, Note_on_c, 2, 76, 0
4, 53045, Note_on_c, 2, 76, 101
4, 53045, Note_on_c, 2, 72, 101
4, 53105, Note_on_c, 2, 72, 0
4, 53105, Note_on_c, 2, 76, 0
4, 53285, Control_c, 2, 11, 85
4, 53285, Note_on_c, 2, 70, 101
4, 53285, Note_on_c, 2, 76, 101
4, 53309, Control_c, 2, 11, 81
4, 53333, Control_c, 2, 11, 77
4, 53345, Note_on_c, 2, 76, 0
4, 53345, Note_on_c, 2, 70, 0
4, 53405, Note_on_c, 2, 70, 101
4, 53405, Note_on_c, 2, 76, 101
4, 53465, Note_on_c, 2, 76, 0
4, 53465, Note_on_c, 2, 70, 0
4, 53645, Control_c, 2, 11, 85
4, 53645, Note_on_c, 2, 69, 101
4, 53645, Note_on_c, 2, 77, 101
4, 53669, Control_c, 2, 11, 81
4, 53693, Control_c, 2, 11, 77
4, 53705, Note_on_c, 2, 77, 0
4, 53705, Note_on_c, 2, 69, 0
4, 53765, Note_on_c, 2, 69, 101
4, 53765, Note_on_c, 2, 77, 101
4, 53825, Note_on_c, 2, 77, 0
4, 53825, Note_on_c, 2, 69, 0
4, 53885, Control_c, 2, 11, 70
4, 53885, Note_on_c, 2, 60, 101
4, 53885, Note_on_c, 2, 72, 101
4, 53945, Note_on_c, 2, 72, 0
4, 53945, Note_on_c, 2, 60, 0
4, 54005, Control_c, 2, 11, 70
4, 54005, Note_on_c, 2, 75, 101
4, 54005, Note_on_c, 2, 72, 101
4, 54033, Control_c, 2, 11, 66
4, 54049, Control_c, 2, 11, 63
4, 54065, Control_c, 2, 11, 60
4, 54081, Control_c, 2, 11, 57
4, 54097, Control_c, 2, 11, 54
4, 54109, Control_c, 2, 11, 51
4, 54121, Control_c, 2, 11, 48
4, 54605, Note_on_c, 2, 72, 0
4, 54605, Note_on_c, 2, 75, 0
4, 54605, Control_c, 2, 11, 47
4, 54605, Note_on_c, 2, 75, 101
4, 54605, Note_on_c, 2, 72, 101
4, 54661, Control_c, 2, 11, 46
4, 54717, Control_c, 2, 11, 45
4, 54773, Control_c, 2, 11, 44
4, 54829, Control_c, 2, 11, 43
4, 54885, Control_c, 2, 11, 42
4, 54941, Control_c, 2, 11, 41
4, 54965, Note_on_c, 2, 72, 0
4, 54965, Note_on_c, 2, 75, 0
4, 54965, Note_on_c, 2, 72, 101
4, 54965, Note_on_c, 2, 75, 101
4, 54997, Control_c, 2, 11, 40
4, 55053, Control_c, 2, 11, 39
4, 55109, Control_c, 2, 11, 38
4, 55165, Control_c, 2, 11, 37
4, 55221, Control_c, 2, 11, 36
4, 55277, Control_c, 2, 11, 35
4, 55325, Note_on_c, 2, 75, 0
4, 55325, Note_on_c, 2, 72, 0
4, 55333, Control_c, 2, 11, 34
4, 55389, Control_c, 2, 11, 33
4, 55445, Control_c, 2, 11, 37
4, 55445, Note_on_c, 2, 72, 73
4, 55445, Note_on_c, 2, 75, 73
4, 55505, Note_on_c, 2, 75, 0
4, 55505, Note_on_c, 2, 72, 0
4, 55685, Note_on_c, 2, 72, 73
4, 55685, Note_on_c, 2, 75, 73
4, 55745, Note_on_c, 2, 75, 0
4, 55745, Note_on_c, 2, 72, 0
4, 55925, Note_on_c, 2, 72, 73
4, 55925, Note_on_c, 2, 75, 73
4, 55985, Note_on_c, 2, 75, 0
4, 55985, Note_on_c, 2, 72, 0
4, 57605, Control_c, 2, 11, 52
4, 57634, Control_c, 2, 11, 53
4, 57663, Control_c, 2, 11, 54
4, 57692, Control_c, 2, 11, 55
4, 57721, Control_c, 2, 11, 56
4, 57750, Control_c, 2, 11, 57
4, 57779, Control_c, 2, 11, 57
4, 57809, Control_c, 2, 11, 58
4, 57838, Control_c, 2, 11, 59
4, 57867, Control_c, 2, 11, 60
4, 57896, Control_c, 2, 11, 60
4, 57925, Control_c, 2, 11, 61
4, 57954, Control_c, 2, 11, 62
4, 57983, Control_c, 2, 11, 63
4, 58013, Control_c, 2, 11, 63
4, 58042, Control_c, 2, 11, 64
4, 58071, Control_c, 2, 11, 65
4, 58100, Control_c, 2, 11, 66
4, 58129, Control_c, 2, 11, 66
4, 58158, Control_c, 2, 11, 67
4, 58187, Control_c, 2, 11, 67
4, 58217, Control_c, 2, 11, 68
4, 58246, Control_c, 2, 11, 68
4, 58275, Control_c, 2, 11, 69
4, 58304, Control_c, 2, 11, 69
4, 58333, Control_c, 2, 11, 70
4, 58362, Control_c, 2, 11, 70
4, 58391, Control_c, 2, 11, 71
4, 58421, Control_c, 2, 11, 71
4, 58445, Note_on_c, 2, 67, 101
4, 58450, Control_c, 2, 11, 72
4, 58479, Control_c, 2, 11, 72
4, 58505, Note_on_c, 2, 67, 0
4, 58505, Note_on_c, 2, 69, 101
4, 58508, Control_c, 2, 11, 73
4, 58537, Control_c, 2, 11, 73
4, 58565, Note_on_c, 2, 69, 0
4, 58565, Note_on_c, 2, 70, 101
4, 58566, Control_c, 2, 11, 74
4, 58595, Control_c, 2, 11, 74
4, 58620, Note_on_c, 2, 70, 0
4, 58625, Control_c, 2, 11, 75
4, 58625, Note_on_c, 2, 71, 101
4, 58680, Note_on_c, 2, 71, 0
4, 58685, Control_c, 2, 11, 80
4, 58685, Note_on_c, 2, 71, 101
4, 58805, Note_on_c, 2, 71, 0
4, 58805, Note_on_c, 2, 72, 101
4, 58865, Note_on_c, 2, 72, 0
4, 58865, Note_on_c, 2, 74, 101
4, 58925, Note_on_c, 2, 74, 0
4, 58925, Note_on_c, 2, 75, 101
4, 58980, Note_on_c, 2, 75, 0
4, 58985, Note_on_c, 2, 76, 101
4, 59040, Note_on_c, 2, 76, 0
4, 59045, Note_on_c, 2, 64, 101
4, 59045, Note_on_c, 2, 76, 101
4, 59165, Note_on_c, 2, 76, 0
4, 59165, Note_on_c, 2, 64, 0
4, 59165, Note_on_c, 2, 65, 101
4, 59165, Note_on_c, 2, 77, 101
4, 59225, Note_on_c, 2, 77, 0
4, 59225, Note_on_c, 2, 65, 0
4, 59225, Note_on_c, 2, 67, 101
4, 59225, Note_on_c, 2, 79, 101
4, 59285, Note_on_c, 2, 79, 0
4, 59285, Note_on_c, 2, 67, 0
4, 59285, Note_on_c, 2, 68, 101
4, 59285, Note_on_c, 2, 80, 101
4, 59340, Note_on_c, 2, 80, 0
4, 59340, Note_on_c, 2, 68, 0
4, 59345, Control_c, 2, 11, 83
4, 59345, Note_on_c, 2, 69, 101
4, 59345, Note_on_c, 2, 81, 101
4, 59400, Note_on_c, 2, 81, 0
4, 59400, Note_on_c, 2, 69, 0
4, 59405, Note_on_c, 2, 69, 101
4, 59405, Note_on_c, 2, 81, 101
4, 59525, Note_on_c, 2, 81, 0
4, 59525, Note_on_c, 2, 69, 0
4, 59525, Note_on_c, 2, 70, 101
4, 59525, Note_on_c, 2, 82, 101
4, 59585, Note_on_c, 2, 82, 0
4, 59585, Note_on_c, 2, 70, 0
4, 60965, Control_c, 2, 11, 75
4, 60965, Note_on_c, 2, 60, 101
4, 60965, Note_on_c, 2, 72, 101
4, 61025, Note_on_c, 2, 72, 0
4, 61025, Note_on_c, 2, 60, 0
4, 61085, Control_c, 2, 11, 85
4, 61085, Note_on_c, 2, 65, 111
4, 61085, Note_on_c, 2, 77, 111
4, 61109, Control_c, 2, 11, 81
4, 61133, Control_c, 2, 11, 77
4, 61265, Note_on_c, 2, 77, 0
4, 61265, Note_on_c, 2, 65, 0
4, 61685, Note_on_c, 2, 60, 101
4, 61685, Note_on_c, 2, 72, 101
4, 61745, Note_on_c, 2, 72, 0
4, 61745, Note_on_c, 2, 60, 0
4, 61805, Control_c, 2, 11, 85
4, 61805, Note_on_c, 2, 76, 101
4, 61805, Note_on_c, 2, 70, 101
4, 61829, Control_c, 2, 11, 81
4, 61853, Control_c, 2, 11, 77
4, 61925, Note_on_c, 2, 70, 0
4, 61925, Note_on_c, 2, 76, 0
4, 61925, Note_on_c, 2, 69, 101
4, 61925, Note_on_c, 2, 77, 101
4, 61985, Note_on_c, 2, 77, 0
4, 61985, Note_on_c, 2, 69, 0
4, 62285, Control_c, 2, 11, 85
4, 62285, Note_on_c, 2, 70, 101
4, 62285, Note_on_c, 2, 76, 101
4, 62309, Control_c, 2, 11, 81
4, 62333, Control_c, 2, 11, 77
4, 62405, Note_on_c, 2, 76, 0
4, 62405, Note_on_c, 2, 70, 0
4, 62405, Note_on_c, 2, 69, 101
4, 62405, Note_on_c, 2, 77, 101
4, 62465, Note_on_c, 2, 77, 0
4, 62465, Note_on_c, 2, 69, 0
4, 62765, Control_c, 2, 11, 95
4, 62765, Note_on_c, 2, 76, 127
4, 62786, Control_c, 2, 11, 91
4, 62810, Control_c, 2, 11, 87
4, 62885, Note_on_c, 2, 76, 0
4, 63005, Note_on_c, 2, 67, 101
4, 63005, Note_on_c, 2, 76, 101
4, 63125, Note_on_c, 2, 76, 0
4, 63125, Note_on_c, 2, 67, 0
4, 63125, Note_on_c, 2, 77, 101
4, 63125, Note_on_c, 2, 69, 101
4, 63185, Note_on_c, 2, 69, 0
4, 63185, Note_on_c, 2, 77, 0
4, 63725, Control_c, 2, 121, 0
4, 63725, End_track
5, 0, Start_track
5, 0, MIDI_port, 0
5, 0, Title_t, "2 Fagotti"
5, 0, Program_c, 3, 70
5, 0, Control_c, 3, 10, 80
5, 9, Control_c, 3, 121, 0
5, 14, Program_c, 3, 70
5, 19, Pitch_bend_c, 3, 8192
5, 24, Control_c, 3, 11, 87
5, 29, Control_c, 3, 7, 127
5, 34, Control_c, 3, 91, 67
5, 39, Control_c, 3, 93, 0
5, 609, Control_c, 3, 11, 107
5, 609, Note_on_c, 3, 53, 100
5, 618, Control_c, 3, 11, 104
5, 627, Control_c, 3, 11, 101
5, 636, Control_c, 3, 11, 98
5, 645, Control_c, 3, 11, 95
5, 654, Control_c, 3, 11, 92
5, 663, Control_c, 3, 11, 89
5, 669, Note_on_c, 3, 53, 0
5, 669, Note_on_c, 3, 48, 100
5, 719, Note_on_c, 3, 48, 0
5, 729, Control_c, 3, 11, 107
5, 729, Note_on_c, 3, 53, 100
5, 738, Control_c, 3, 11, 104
5, 747, Control_c, 3, 11, 101
5, 756, Control_c, 3, 11, 98
5, 765, Control_c, 3, 11, 95
5, 774, Control_c, 3, 11, 92
5, 783, Control_c, 3, 11, 89
5, 789, Note_on_c, 3, 53, 0
5, 789, Note_on_c, 3, 48, 100
5, 849, Note_on_c, 3, 48, 0
5, 849, Control_c, 3, 11, 107
5, 849, Note_on_c, 3, 53, 100
5, 858, Control_c, 3, 11, 104
5, 867, Control_c, 3, 11, 101
5, 876, Control_c, 3, 11, 98
5, 885, Control_c, 3, 11, 95
5, 894, Control_c, 3, 11, 92
5, 903, Control_c, 3, 11, 89
5, 909, Note_on_c, 3, 53, 0
5, 909, Note_on_c, 3, 48, 100
5, 959, Note_on_c, 3, 48, 0
5, 969, Control_c, 3, 11, 107
5, 969, Note_on_c, 3, 57, 100
5, 969, Note_on_c, 3, 53, 100
5, 978, Control_c, 3, 11, 104
5, 987, Control_c, 3, 11, 101
5, 996, Control_c, 3, 11, 98
5, 1005, Control_c, 3, 11, 95
5, 1014, Control_c, 3, 11, 92
5, 1023, Control_c, 3, 11, 89
5, 1029, Note_on_c, 3, 53, 0
5, 1029, Note_on_c, 3, 57, 0
5, 1029, Note_on_c, 3, 48, 100
5, 1029, Note_on_c, 3, 53, 100
5, 1079, Note_on_c, 3, 53, 0
5, 1079, Note_on_c, 3, 48, 0
5, 1089, Control_c, 3, 11, 102
5, 1089, Note_on_c, 3, 53, 100
5, 1089, Note_on_c, 3, 57, 100
5, 1096, Control_c, 3, 11, 99
5, 1103, Control_c, 3, 11, 96
5, 1110, Control_c, 3, 11, 93
5, 1117, Control_c, 3, 11, 90
5, 1125, Control_c, 3, 11, 87
5, 1132, Control_c, 3, 11, 84
5, 1139, Control_c, 3, 11, 81
5, 1146, Control_c, 3, 11, 78
5, 1149, Note_on_c, 3, 57, 0
5, 1149, Note_on_c, 3, 53, 0
5, 1149, Note_on_c, 3, 48, 100
5, 1149, Note_on_c, 3, 53, 100
5, 1209, Note_on_c, 3, 53, 0
5, 1209, Note_on_c, 3, 48, 0
5, 1209, Control_c, 3, 11, 92
5, 1209, Note_on_c, 3, 53, 90
5, 1209, Note_on_c, 3, 57, 90
5, 1218, Control_c, 3, 11, 89
5, 1227, Control_c, 3, 11, 86
5, 1236, Control_c, 3, 11, 83
5, 1245, Control_c, 3, 11, 80
5, 1254, Control_c, 3, 11, 77
5, 1263, Control_c, 3, 11, 74
5, 1269, Note_on_c, 3, 57, 0
5, 1269, Note_on_c, 3, 53, 0
5, 1269, Note_on_c, 3, 48, 80
5, 1269, Note_on_c, 3, 53, 80
5, 1329, Note_on_c, 3, 53, 0
5, 1329, Note_on_c, 3, 48, 0
5, 2049, Control_c, 3, 11, 47
5, 2049, Note_on_c, 3, 60, 100
5, 2067, Control_c, 3, 11, 48
5, 2085, Control_c, 3, 11, 49
5, 2103, Control_c, 3, 11, 50
5, 2109, Note_on_c, 3, 60, 0
5, 2109, Note_on_c, 3, 61, 100
5, 2121, Control_c, 3, 11, 51
5, 2139, Control_c, 3, 11, 52
5, 2157, Control_c, 3, 11, 53
5, 2169, Note_on_c, 3, 61, 0
5, 2169, Note_on_c, 3, 64, 100
5, 2175, Control_c, 3, 11, 54
5, 2193, Control_c, 3, 11, 55
5, 2211, Control_c, 3, 11, 56
5, 2229, Note_on_c, 3, 64, 0
5, 2229, Control_c, 3, 11, 57
5, 2229, Note_on_c, 3, 62, 100
5, 2247, Control_c, 3, 11, 58
5, 2265, Control_c, 3, 11, 59
5, 2283, Control_c, 3, 11, 60
5, 2289, Note_on_c, 3, 62, 0
5, 2289, Note_on_c, 3, 55, 100
5, 2301, Control_c, 3, 11, 61
5, 2319, Control_c, 3, 11, 62
5, 2337, Control_c, 3, 11, 63
5, 2349, Note_on_c, 3, 55, 0
5, 2349, Note_on_c, 3, 57, 100
5, 2355, Control_c, 3, 11, 64
5, 2373, Control_c, 3, 11, 65
5, 2391, Control_c, 3, 11, 66
5, 2409, Note_on_c, 3, 57, 0
5, 2409, Control_c, 3, 11, 67
5, 2409, Note_on_c, 3, 58, 100
5, 2427, Control_c, 3, 11, 68
5, 2445, Control_c, 3, 11, 69
5, 2463, Control_c, 3, 11, 70
5, 2469, Note_on_c, 3, 58, 0
5, 2469, Note_on_c, 3, 59, 100
5, 2481, Control_c, 3, 11, 71
5, 2499, Control_c, 3, 11, 72
5, 2517, Control_c, 3, 11, 73
5, 2519, Note_on_c, 3, 59, 0
5, 2529, Note_on_c, 3, 59, 100
5, 2535, Control_c, 3, 11, 74
5, 2553, Control_c, 3, 11, 75
5, 2571, Control_c, 3, 11, 76
5, 2589, Control_c, 3, 11, 77
5, 2607, Control_c, 3, 11, 78
5, 2625, Control_c, 3, 11, 79
5, 2643, Control_c, 3, 11, 80
5, 2649, Note_on_c, 3, 59, 0
5, 2649, Note_on_c, 3, 60, 100
5, 2661, Control_c, 3, 11, 81
5, 2679, Control_c, 3, 11, 82
5, 2697, Control_c, 3, 11, 83
5, 2709, Note_on_c, 3, 60, 0
5, 2715, Control_c, 3, 11, 84
5, 2733, Control_c, 3, 11, 85
5, 2751, Control_c, 3, 11, 86
5, 2769, Control_c, 3, 11, 87
5, 2769, Note_on_c, 3, 53, 100
5, 2769, Note_on_c, 3, 57, 100
5, 2829, Note_on_c, 3, 57, 0
5, 2829, Note_on_c, 3, 53, 0
5, 2889, Control_c, 3, 11, 107
5, 2889, Note_on_c, 3, 58, 100
5, 2889, Note_on_c, 3, 55, 100
5, 2898, Control_c, 3, 11, 104
5, 2907, Control_c, 3, 11, 101
5, 2916, Control_c, 3, 11, 98
5, 2925, Control_c, 3, 11, 95
5, 2934, Control_c, 3, 11, 92
5, 2943, Control_c, 3, 11, 89
5, 3239, Note_on_c, 3, 55, 0
5, 3239, Note_on_c, 3, 58, 0
5, 3249, Control_c, 3, 11, 107
5, 3249, Note_on_c, 3, 57, 100
5, 3249, Note_on_c, 3, 60, 100
5, 3258, Control_c, 3, 11, 104
5, 3267, Control_c, 3, 11, 101
5, 3276, Control_c, 3, 11, 98
5, 3285, Control_c, 3, 11, 95
5, 3294, Control_c, 3, 11, 92
5, 3303, Control_c, 3, 11, 89
5, 3489, Note_on_c, 3, 60, 0
5, 3539, Note_on_c, 3, 57, 0
5, 3549, Note_on_c, 3, 57, 100
5, 3609, Note_on_c, 3, 57, 0
5, 3609, Note_on_c, 3, 57, 100
5, 3669, Note_on_c, 3, 57, 0
5, 3669, Note_on_c, 3, 46, 100
5, 3729, Note_on_c, 3, 46, 0
5, 3729, Note_on_c, 3, 57, 100
5, 3789, Note_on_c, 3, 57, 0
5, 3789, Note_on_c, 3, 55, 100
5, 3849, Note_on_c, 3, 55, 0
5, 3849, Note_on_c, 3, 53, 100
5, 3899, Note_on_c, 3, 53, 0
5, 3909, Note_on_c, 3, 60, 100
5, 3959, Note_on_c, 3, 60, 0
5, 3969, Note_on_c, 3, 60, 100
5, 4029, Note_on_c, 3, 60, 0
5, 4029, Note_on_c, 3, 48, 100
5, 4089, Note_on_c, 3, 48, 0
5, 4089, Note_on_c, 3, 53, 100
5, 4149, Note_on_c, 3, 53, 0
5, 4209, Control_c, 3, 11, 107
5, 4209, Note_on_c, 3, 53, 100
5, 4218, Control_c, 3, 11, 104
5, 4227, Control_c, 3, 11, 101
5, 4236, Control_c, 3, 11, 98
5, 4245, Control_c, 3, 11, 95
5, 4254, Control_c, 3, 11, 92
5, 4263, Control_c, 3, 11, 89
5, 4269, Note_on_c, 3, 53, 0
5, 4269, Note_on_c, 3, 48, 100
5, 4319, Note_on_c, 3, 48, 0
5, 4329, Control_c, 3, 11, 107
5, 4329, Note_on_c, 3, 53, 100
5, 4338, Control_c, 3, 11, 104
5, 4347, Control_c, 3, 11, 101
5, 4356, Control_c, 3, 11, 98
5, 4365, Control_c, 3, 11, 95
5, 4374, Control_c, 3, 11, 92
5, 4383, Control_c, 3, 11, 89
5, 4389, Note_on_c, 3, 53, 0
5, 4389, Note_on_c, 3, 48, 100
5, 4449, Note_on_c, 3, 48, 0
5, 4449, Control_c, 3, 11, 107
5, 4449, Note_on_c, 3, 53, 100
5, 4458, Control_c, 3, 11, 104
5, 4467, Control_c, 3, 11, 101
5, 4476, Control_c, 3, 11, 98
5, 4485, Control_c, 3, 11, 95
5, 4494, Control_c, 3, 11, 92
5, 4503, Control_c, 3, 11, 89
5, 4509, Note_on_c, 3, 53, 0
5, 4509, Note_on_c, 3, 48, 100
5, 4559, Note_on_c, 3, 48, 0
5, 4569, Control_c, 3, 11, 107
5, 4569, Note_on_c, 3, 57, 100
5, 4569, Note_on_c, 3, 53, 100
5, 4578, Control_c, 3, 11, 104
5, 4587, Control_c, 3, 11, 101
5, 4596, Control_c, 3, 11, 98
5, 4605, Control_c, 3, 11, 95
5, 4614, Control_c, 3, 11, 92
5, 4623, Control_c, 3, 11, 89
5, 4629, Note_on_c, 3, 53, 0
5, 4629, Note_on_c, 3, 57, 0
5, 4629, Note_on_c, 3, 48, 100
5, 4629, Note_on_c, 3, 53, 100
5, 4679, Note_on_c, 3, 53, 0
5, 4679, Note_on_c, 3, 48, 0
5, 4689, Note_on_c, 3, 53, 100
5, 4689, Note_on_c, 3, 57, 100
5, 4689, Control_c, 3, 11, 102
5, 4696, Control_c, 3, 11, 99
5, 4703, Control_c, 3, 11, 96
5, 4710, Control_c, 3, 11, 93
5, 4717, Control_c, 3, 11, 90
5, 4725, Control_c, 3, 11, 87
5, 4732, Control_c, 3, 11, 84
5, 4739, Control_c, 3, 11, 81
5, 4746, Control_c, 3, 11, 78
5, 4749, Note_on_c, 3, 57, 0
5, 4749, Note_on_c, 3, 53, 0
5, 4749, Note_on_c, 3, 53, 100
5, 4749, Note_on_c, 3, 48, 100
5, 4809, Note_on_c, 3, 48, 0
5, 4809, Note_on_c, 3, 53, 0
5, 4809, Note_on_c, 3, 57, 90
5, 4809, Note_on_c, 3, 53, 90
5, 4809, Control_c, 3, 11, 92
5, 4818, Control_c, 3, 11, 89
5, 4827, Control_c, 3, 11, 86
5, 4836, Control_c, 3, 11, 83
5, 4845, Control_c, 3, 11, 80
5, 4854, Control_c, 3, 11, 77
5, 4863, Control_c, 3, 11, 74
5, 4869, Note_on_c, 3, 53, 0
5, 4869, Note_on_c, 3, 57, 0
5, 4869, Note_on_c, 3, 53, 80
5, 4869, Note_on_c, 3, 48, 80
5, 4929, Note_on_c, 3, 48, 0
5, 4929, Note_on_c, 3, 53, 0
5, 5649, Note_on_c, 3, 60, 100
5, 5649, Control_c, 3, 11, 47
5, 5667, Control_c, 3, 11, 48
5, 5685, Control_c, 3, 11, 49
5, 5703, Control_c, 3, 11, 50
5, 5709, Note_on_c, 3, 60, 0
5, 5709, Note_on_c, 3, 61, 100
5, 5721, Control_c, 3, 11, 51
5, 5739, Control_c, 3, 11, 52
5, 5757, Control_c, 3, 11, 53
5, 5769, Note_on_c, 3, 61, 0
5, 5769, Note_on_c, 3, 64, 100
5, 5775, Control_c, 3, 11, 54
5, 5793, Control_c, 3, 11, 55
5, 5811, Control_c, 3, 11, 56
5, 5829, Note_on_c, 3, 64, 0
5, 5829, Control_c, 3, 11, 57
5, 5829, Note_on_c, 3, 62, 100
5, 5847, Control_c, 3, 11, 58
5, 5865, Control_c, 3, 11, 59
5, 5883, Control_c, 3, 11, 60
5, 5889, Note_on_c, 3, 62, 0
5, 5889, Note_on_c, 3, 55, 100
5, 5901, Control_c, 3, 11, 61
5, 5919, Control_c, 3, 11, 62
5, 5937, Control_c, 3, 11, 63
5, 5949, Note_on_c, 3, 55, 0
5, 5949, Note_on_c, 3, 57, 100
5, 5955, Control_c, 3, 11, 64
5, 5973, Control_c, 3, 11, 65
5, 5991, Control_c, 3, 11, 66
5, 6009, Note_on_c, 3, 57, 0
5, 6009, Control_c, 3, 11, 67
5, 6009, Note_on_c, 3, 58, 100
5, 6027, Control_c, 3, 11, 68
5, 6045, Control_c, 3, 11, 69
5, 6063, Control_c, 3, 11, 70
5, 6069, Note_on_c, 3, 58, 0
5, 6069, Note_on_c, 3, 59, 100
5, 6081, Control_c, 3, 11, 71
5, 6099, Control_c, 3, 11, 72
5, 6117, Control_c, 3, 11, 73
5, 6119, Note_on_c, 3, 59, 0
5, 6129, Note_on_c, 3, 59, 100
5, 6135, Control_c, 3, 11, 74
5, 6153, Control_c, 3, 11, 75
5, 6171, Control_c, 3, 11, 76
5, 6189, Control_c, 3, 11, 77
5, 6207, Control_c, 3, 11, 78
5, 6225, Control_c, 3, 11, 79
5, 6243, Control_c, 3, 11, 80
5, 6249, Note_on_c, 3, 59, 0
5, 6249, Note_on_c, 3, 60, 100
5, 6261, Control_c, 3, 11, 81
5, 6279, Control_c, 3, 11, 82
5, 6297, Control_c, 3, 11, 83
5, 6309, Note_on_c, 3, 60, 0
5, 6315, Control_c, 3, 11, 84
5, 6333, Control_c, 3, 11, 85
5, 6351, Control_c, 3, 11, 86
5, 6369, Control_c, 3, 11, 87
5, 6369, Note_on_c, 3, 53, 100
5, 6369, Note_on_c, 3, 57, 100
5, 6429, Note_on_c, 3, 57, 0
5, 6429, Note_on_c, 3, 53, 0
5, 6489, Control_c, 3, 11, 107
5, 6489, Note_on_c, 3, 58, 100
5, 6489, Note_on_c, 3, 55, 100
5, 6498, Control_c, 3, 11, 104
5, 6507, Control_c, 3, 11, 101
5, 6516, Control_c, 3, 11, 98
5, 6525, Control_c, 3, 11, 95
5, 6534, Control_c, 3, 11, 92
5, 6543, Control_c, 3, 11, 89
5, 6839, Note_on_c, 3, 55, 0
5, 6839, Note_on_c, 3, 58, 0
5, 6849, Control_c, 3, 11, 107
5, 6849, Note_on_c, 3, 57, 100
5, 6849, Note_on_c, 3, 60, 100
5, 6858, Control_c, 3, 11, 104
5, 6867, Control_c, 3, 11, 101
5, 6876, Control_c, 3, 11, 98
5, 6885, Control_c, 3, 11, 95
5, 6894, Control_c, 3, 11, 92
5, 6903, Control_c, 3, 11, 89
5, 7089, Note_on_c, 3, 60, 0
5, 7139, Note_on_c, 3, 57, 0
5, 7149, Note_on_c, 3, 57, 100
5, 7209, Note_on_c, 3, 57, 0
5, 7209, Note_on_c, 3, 57, 100
5, 7269, Note_on_c, 3, 57, 0
5, 7269, Note_on_c, 3, 46, 100
5, 7329, Note_on_c, 3, 46, 0
5, 7329, Note_on_c, 3, 57, 100
5, 7389, Note_on_c, 3, 57, 0
5, 7389, Note_on_c, 3, 55, 100
5, 7449, Note_on_c, 3, 55, 0
5, 7449, Note_on_c, 3, 53, 100
5, 7499, Note_on_c, 3, 53, 0
5, 7509, Note_on_c, 3, 60, 100
5, 7559, Note_on_c, 3, 60, 0
5, 7569, Note_on_c, 3, 60, 100
5, 7629, Note_on_c, 3, 60, 0
5, 7629, Note_on_c, 3, 48, 100
5, 7689, Note_on_c, 3, 48, 0
5, 7689, Note_on_c, 3, 53, 100
5, 7749, Note_on_c, 3, 53, 0
5, 8049, Control_c, 3, 11, 107
5, 8049, Note_on_c, 3, 65, 100
5, 8049, Note_on_c, 3, 62, 100
5, 8058, Control_c, 3, 11, 104
5, 8067, Control_c, 3, 11, 101
5, 8076, Control_c, 3, 11, 98
5, 8085, Control_c, 3, 11, 95
5, 8094, Control_c, 3, 11, 92
5, 8103, Control_c, 3, 11, 89
5, 8109, Note_on_c, 3, 62, 0
5, 8109, Note_on_c, 3, 65, 0
5, 8409, Control_c, 3, 11, 107
5, 8409, Note_on_c, 3, 64, 100
5, 8409, Note_on_c, 3, 60, 100
5, 8418, Control_c, 3, 11, 104
5, 8427, Control_c, 3, 11, 101
5, 8436, Control_c, 3, 11, 98
5, 8445, Control_c, 3, 11, 95
5, 8454, Control_c, 3, 11, 92
5, 8463, Control_c, 3, 11, 89
5, 8469, Note_on_c, 3, 60, 0
5, 8469, Note_on_c, 3, 64, 0
5, 8769, Note_on_c, 3, 62, 100
5, 8769, Control_c, 3, 11, 107
5, 8769, Note_on_c, 3, 59, 100
5, 8778, Control_c, 3, 11, 104
5, 8787, Control_c, 3, 11, 101
5, 8796, Control_c, 3, 11, 98
5, 8805, Control_c, 3, 11, 95
5, 8814, Control_c, 3, 11, 92
5, 8823, Control_c, 3, 11, 89
5, 8829, Note_on_c, 3, 59, 0
5, 8829, Note_on_c, 3, 62, 0
5, 8889, Note_on_c, 3, 55, 100
5, 8949, Note_on_c, 3, 55, 0
5, 9009, Control_c, 3, 11, 107
5, 9009, Note_on_c, 3, 60, 100
5, 9022, Control_c, 3, 11, 104
5, 9036, Control_c, 3, 11, 101
5, 9049, Control_c, 3, 11, 98
5, 9063, Control_c, 3, 11, 95
5, 9076, Control_c, 3, 11, 92
5, 9090, Control_c, 3, 11, 89
5, 9189, Note_on_c, 3, 60, 0
5, 9189, Note_on_c, 3, 55, 100
5, 9249, Note_on_c, 3, 55, 0
5, 9249, Note_on_c, 3, 52, 100
5, 9309, Note_on_c, 3, 52, 0
5, 9309, Note_on_c, 3, 48, 100
5, 9369, Note_on_c, 3, 48, 0
5, 9369, Control_c, 3, 11, 107
5, 9369, Note_on_c, 3, 47, 100
5, 9378, Control_c, 3, 11, 104
5, 9387, Control_c, 3, 11, 101
5, 9396, Control_c, 3, 11, 98
5, 9405, Control_c, 3, 11, 95
5, 9414, Control_c, 3, 11, 92
5, 9423, Control_c, 3, 11, 89
5, 9429, Note_on_c, 3, 47, 0
5, 9489, Note_on_c, 3, 62, 100
5, 9489, Note_on_c, 3, 59, 100
5, 9549, Note_on_c, 3, 59, 0
5, 9549, Note_on_c, 3, 62, 0
5, 9729, Control_c, 3, 11, 107
5, 9729, Note_on_c, 3, 64, 100
5, 9729, Note_on_c, 3, 60, 100
5, 9738, Control_c, 3, 11, 104
5, 9747, Control_c, 3, 11, 101
5, 9756, Control_c, 3, 11, 98
5, 9765, Control_c, 3, 11, 95
5, 9774, Control_c, 3, 11, 92
5, 9783, Control_c, 3, 11, 89
5, 9789, Note_on_c, 3, 60, 0
5, 9789, Note_on_c, 3, 64, 0
5, 9849, Note_on_c, 3, 64, 100
5, 9849, Note_on_c, 3, 60, 100
5, 9909, Note_on_c, 3, 60, 0
5, 9909, Note_on_c, 3, 64, 0
5, 10089, Control_c, 3, 11, 107
5, 10089, Note_on_c, 3, 55, 100
5, 10089, Note_on_c, 3, 64, 100
5, 10098, Control_c, 3, 11, 104
5, 10107, Control_c, 3, 11, 101
5, 10116, Control_c, 3, 11, 98
5, 10125, Control_c, 3, 11, 95
5, 10134, Control_c, 3, 11, 92
5, 10143, Control_c, 3, 11, 89
5, 10149, Note_on_c, 3, 64, 0
5, 10149, Note_on_c, 3, 55, 0
5, 10209, Note_on_c, 3, 64, 100
5, 10209, Note_on_c, 3, 55, 100
5, 10269, Note_on_c, 3, 55, 0
5, 10269, Note_on_c, 3, 64, 0
5, 10449, Control_c, 3, 11, 107
5, 10449, Note_on_c, 3, 53, 100
5, 10449, Note_on_c, 3, 57, 100
5, 10458, Control_c, 3, 11, 104
5, 10467, Control_c, 3, 11, 101
5, 10476, Control_c, 3, 11, 98
5, 10485, Control_c, 3, 11, 95
5, 10494, Control_c, 3, 11, 92
5, 10503, Control_c, 3, 11, 89
5, 10509, Note_on_c, 3, 57, 0
5, 10509, Note_on_c, 3, 53, 0
5, 10569, Note_on_c, 3, 57, 100
5, 10569, Note_on_c, 3, 53, 100
5, 10629, Note_on_c, 3, 53, 0
5, 10629, Note_on_c, 3, 57, 0
5, 10689, Control_c, 3, 11, 77
5, 10689, Note_on_c, 3, 60, 100
5, 10749, Note_on_c, 3, 60, 0
5, 10809, Control_c, 3, 11, 77
5, 10809, Note_on_c, 3, 63, 100
5, 10809, Note_on_c, 3, 60, 100
5, 10821, Control_c, 3, 11, 74
5, 10833, Control_c, 3, 11, 71
5, 10845, Control_c, 3, 11, 68
5, 10857, Control_c, 3, 11, 65
5, 10869, Note_on_c, 3, 60, 0
5, 10869, Note_on_c, 3, 63, 0
5, 10869, Control_c, 3, 11, 62
5, 10869, Note_on_c, 3, 53, 100
5, 10869, Note_on_c, 3, 60, 100
5, 10881, Control_c, 3, 11, 59
5, 10893, Control_c, 3, 11, 56
5, 10905, Control_c, 3, 11, 53
5, 10917, Control_c, 3, 11, 50
5, 10929, Note_on_c, 3, 60, 0
5, 10929, Note_on_c, 3, 53, 0
5, 10929, Control_c, 3, 11, 47
5, 10929, Note_on_c, 3, 63, 100
5, 10929, Note_on_c, 3, 60, 100
5, 10989, Note_on_c, 3, 60, 0
5, 10989, Note_on_c, 3, 63, 0
5, 10989, Note_on_c, 3, 53, 100
5, 10989, Note_on_c, 3, 60, 100
5, 11049, Note_on_c, 3, 60, 0
5, 11049, Note_on_c, 3, 53, 0
5, 11049, Note_on_c, 3, 63, 100
5, 11049, Note_on_c, 3, 60, 100
5, 11109, Note_on_c, 3, 60, 0
5, 11109, Note_on_c, 3, 63, 0
5, 11109, Note_on_c, 3, 60, 100
5, 11109, Note_on_c, 3, 53, 100
5, 11169, Note_on_c, 3, 53, 0
5, 11169, Note_on_c, 3, 60, 0
5, 11169, Note_on_c, 3, 63, 100
5, 11169, Note_on_c, 3, 60, 100
5, 11229, Note_on_c, 3, 60, 0
5, 11229, Note_on_c, 3, 63, 0
5, 11229, Note_on_c, 3, 53, 100
5, 11229, Note_on_c, 3, 60, 100
5, 11289, Note_on_c, 3, 60, 0
5, 11289, Note_on_c, 3, 53, 0
5, 11289, Note_on_c, 3, 63, 100
5, 11289, Note_on_c, 3, 60, 100
5, 11349, Note_on_c, 3, 60, 0
5, 11349, Note_on_c, 3, 63, 0
5, 11349, Note_on_c, 3, 53, 100
5, 11349, Note_on_c, 3, 60, 100
5, 11409, Note_on_c, 3, 60, 0
5, 11409, Note_on_c, 3, 53, 0
5, 11409, Control_c, 3, 11, 47
5, 11409, Note_on_c, 3, 60, 100
5, 11409, Note_on_c, 3, 63, 100
5, 11465, Control_c, 3, 11, 46
5, 11469, Note_on_c, 3, 63, 0
5, 11469, Note_on_c, 3, 60, 0
5, 11469, Note_on_c, 3, 53, 100
5, 11469, Note_on_c, 3, 60, 100
5, 11521, Control_c, 3, 11, 45
5, 11529, Note_on_c, 3, 60, 0
5, 11529, Note_on_c, 3, 53, 0
5, 11529, Note_on_c, 3, 63, 100
5, 11529, Note_on_c, 3, 60, 100
5, 11577, Control_c, 3, 11, 44
5, 11589, Note_on_c, 3, 60, 0
5, 11589, Note_on_c, 3, 63, 0
5, 11589, Note_on_c, 3, 53, 100
5, 11589, Note_on_c, 3, 60, 100
5, 11633, Control_c, 3, 11, 43
5, 11649, Note_on_c, 3, 60, 0
5, 11649, Note_on_c, 3, 53, 0
5, 11649, Note_on_c, 3, 60, 100
5, 11649, Note_on_c, 3, 63, 100
5, 11689, Control_c, 3, 11, 42
5, 11709, Note_on_c, 3, 63, 0
5, 11709, Note_on_c, 3, 60, 0
5, 11709, Note_on_c, 3, 53, 100
5, 11709, Note_on_c, 3, 60, 100
5, 11745, Control_c, 3, 11, 41
5, 11769, Note_on_c, 3, 60, 0
5, 11769, Note_on_c, 3, 53, 0
5, 11769, Note_on_c, 3, 63, 100
5, 11769, Note_on_c, 3, 60, 100
5, 11801, Control_c, 3, 11, 40
5, 11829, Note_on_c, 3, 60, 0
5, 11829, Note_on_c, 3, 63, 0
5, 11829, Note_on_c, 3, 53, 100
5, 11829, Note_on_c, 3, 60, 100
5, 11857, Control_c, 3, 11, 39
5, 11889, Note_on_c, 3, 60, 0
5, 11889, Note_on_c, 3, 53, 0
5, 11889, Note_on_c, 3, 60, 100
5, 11889, Note_on_c, 3, 63, 100
5, 11913, Control_c, 3, 11, 38
5, 11949, Note_on_c, 3, 63, 0
5, 11949, Note_on_c, 3, 60, 0
5, 11949, Note_on_c, 3, 53, 100
5, 11949, Note_on_c, 3, 60, 100
5, 11969, Control_c, 3, 11, 37
5, 12009, Note_on_c, 3, 60, 0
5, 12009, Note_on_c, 3, 53, 0
5, 12009, Note_on_c, 3, 63, 100
5, 12009, Note_on_c, 3, 60, 100
5, 12025, Control_c, 3, 11, 36
5, 12069, Note_on_c, 3, 60, 0
5, 12069, Note_on_c, 3, 63, 0
5, 12069, Note_on_c, 3, 53, 100
5, 12069, Note_on_c, 3, 60, 100
5, 12081, Control_c, 3, 11, 35
5, 12129, Note_on_c, 3, 60, 0
5, 12129, Note_on_c, 3, 53, 0
5, 12137, Control_c, 3, 11, 34
5, 12193, Control_c, 3, 11, 33
5, 12249, Control_c, 3, 11, 37
5, 12249, Note_on_c, 3, 60, 72
5, 12249, Note_on_c, 3, 57, 72
5, 12309, Note_on_c, 3, 57, 0
5, 12309, Note_on_c, 3, 60, 0
5, 12489, Note_on_c, 3, 60, 72
5, 12489, Note_on_c, 3, 57, 72
5, 12549, Note_on_c, 3, 57, 0
5, 12549, Note_on_c, 3, 60, 0
5, 12729, Note_on_c, 3, 60, 72
5, 12729, Note_on_c, 3, 57, 72
5, 12789, Note_on_c, 3, 57, 0
5, 12789, Note_on_c, 3, 60, 0
5, 12849, Note_on_c, 3, 46, 100
5, 12849, Note_on_c, 3, 62, 100
5, 12909, Note_on_c, 3, 62, 0
5, 12969, Note_on_c, 3, 46, 0
5, 12969, Note_on_c, 3, 48, 100
5, 12969, Control_c, 3, 11, 52
5, 12969, Note_on_c, 3, 65, 100
5, 13149, Note_on_c, 3, 65, 0
5, 13149, Note_on_c, 3, 63, 100
5, 13209, Note_on_c, 3, 63, 0
5, 13209, Note_on_c, 3, 48, 0
5, 13209, Note_on_c, 3, 51, 100
5, 13209, Note_on_c, 3, 60, 100
5, 13269, Note_on_c, 3, 60, 0
5, 13269, Note_on_c, 3, 57, 100
5, 13329, Note_on_c, 3, 57, 0
5, 13329, Note_on_c, 3, 51, 0
5, 13329, Note_on_c, 3, 50, 100
5, 13329, Note_on_c, 3, 60, 100
5, 13389, Note_on_c, 3, 60, 0
5, 13389, Note_on_c, 3, 58, 100
5, 13449, Note_on_c, 3, 58, 0
5, 13449, Note_on_c, 3, 50, 0
5, 13449, Note_on_c, 3, 46, 100
5, 13449, Note_on_c, 3, 62, 100
5, 13509, Note_on_c, 3, 62, 0
5, 13509, Note_on_c, 3, 58, 100
5, 13569, Note_on_c, 3, 58, 0
5, 13569, Note_on_c, 3, 53, 100
5, 13629, Note_on_c, 3, 53, 0
5, 13629, Note_on_c, 3, 46, 0
5, 13629, Note_on_c, 3, 45, 100
5, 13629, Note_on_c, 3, 54, 100
5, 13689, Note_on_c, 3, 54, 0
5, 13689, Note_on_c, 3, 45, 0
5, 13689, Note_on_c, 3, 43, 100
5, 13689, Note_on_c, 3, 57, 100
5, 13749, Note_on_c, 3, 57, 0
5, 13749, Note_on_c, 3, 55, 100
5, 13809, Note_on_c, 3, 55, 0
5, 13809, Note_on_c, 3, 58, 100
5, 13869, Note_on_c, 3, 58, 0
5, 13869, Note_on_c, 3, 55, 100
5, 13929, Note_on_c, 3, 55, 0
5, 13929, Note_on_c, 3, 43, 0
5, 13929, Note_on_c, 3, 48, 100
5, 13929, Note_on_c, 3, 50, 100
5, 13989, Note_on_c, 3, 50, 0
5, 13989, Note_on_c, 3, 52, 100
5, 14049, Note_on_c, 3, 52, 0
5, 14049, Note_on_c, 3, 48, 0
5, 14049, Note_on_c, 3, 41, 100
5, 14049, Note_on_c, 3, 53, 100
5, 14109, Note_on_c, 3, 53, 0
5, 14109, Note_on_c, 3, 57, 100
5, 14169, Note_on_c, 3, 57, 0
5, 14169, Note_on_c, 3, 41, 0
5, 14169, Note_on_c, 3, 60, 100
5, 14209, Note_on_c, 3, 60, 0
5, 14229, Note_on_c, 3, 60, 100
5, 14259, Note_on_c, 3, 60, 0
5, 14289, Note_on_c, 3, 41, 100
5, 14289, Note_on_c, 3, 60, 100
5, 14319, Note_on_c, 3, 60, 0
5, 14349, Note_on_c, 3, 41, 0
5, 14349, Note_on_c, 3, 36, 100
5, 14349, Note_on_c, 3, 60, 100
5, 14379, Note_on_c, 3, 60, 0
5, 14409, Note_on_c, 3, 36, 0
5, 14409, Control_c, 3, 11, 52
5, 14409, Note_on_c, 3, 43, 100
5, 14409, Note_on_c, 3, 60, 100
5, 14438, Control_c, 3, 11, 53
5, 14467, Control_c, 3, 11, 54
5, 14469, Note_on_c, 3, 60, 0
5, 14469, Note_on_c, 3, 43, 0
5, 14469, Note_on_c, 3, 36, 100
5, 14469, Note_on_c, 3, 59, 100
5, 14496, Control_c, 3, 11, 55
5, 14525, Control_c, 3, 11, 56
5, 14529, Note_on_c, 3, 59, 0
5, 14529, Note_on_c, 3, 36, 0
5, 14529, Note_on_c, 3, 43, 100
5, 14529, Note_on_c, 3, 60, 100
5, 14554, Control_c, 3, 11, 57
5, 14583, Control_c, 3, 11, 58
5, 14589, Note_on_c, 3, 60, 0
5, 14589, Note_on_c, 3, 43, 0
5, 14589, Note_on_c, 3, 36, 100
5, 14589, Note_on_c, 3, 58, 100
5, 14613, Control_c, 3, 11, 59
5, 14642, Control_c, 3, 11, 60
5, 14649, Note_on_c, 3, 58, 0
5, 14649, Note_on_c, 3, 36, 0
5, 14649, Note_on_c, 3, 46, 100
5, 14649, Note_on_c, 3, 55, 100
5, 14671, Control_c, 3, 11, 61
5, 14700, Control_c, 3, 11, 62
5, 14709, Note_on_c, 3, 55, 0
5, 14709, Note_on_c, 3, 46, 0
5, 14709, Note_on_c, 3, 36, 100
5, 14709, Note_on_c, 3, 52, 100
5, 14729, Control_c, 3, 11, 63
5, 14758, Control_c, 3, 11, 64
5, 14764, Note_on_c, 3, 36, 0
5, 14769, Note_on_c, 3, 52, 0
5, 14769, Note_on_c, 3, 45, 100
5, 14769, Note_on_c, 3, 55, 100
5, 14787, Control_c, 3, 11, 65
5, 14817, Control_c, 3, 11, 66
5, 14829, Note_on_c, 3, 55, 0
5, 14829, Note_on_c, 3, 45, 0
5, 14829, Note_on_c, 3, 36, 100
5, 14829, Note_on_c, 3, 53, 100
5, 14846, Control_c, 3, 11, 67
5, 14875, Control_c, 3, 11, 68
5, 14889, Note_on_c, 3, 53, 0
5, 14889, Note_on_c, 3, 36, 0
5, 14889, Note_on_c, 3, 45, 100
5, 14889, Note_on_c, 3, 57, 100
5, 14904, Control_c, 3, 11, 69
5, 14933, Control_c, 3, 11, 70
5, 14949, Note_on_c, 3, 57, 0
5, 14949, Note_on_c, 3, 45, 0
5, 14949, Note_on_c, 3, 36, 100
5, 14949, Note_on_c, 3, 53, 100
5, 14962, Control_c, 3, 11, 71
5, 14991, Control_c, 3, 11, 72
5, 15009, Note_on_c, 3, 53, 0
5, 15009, Note_on_c, 3, 36, 0
5, 15009, Note_on_c, 3, 45, 100
5, 15009, Note_on_c, 3, 60, 100
5, 15021, Control_c, 3, 11, 73
5, 15050, Control_c, 3, 11, 74
5, 15069, Note_on_c, 3, 60, 0
5, 15069, Note_on_c, 3, 45, 0
5, 15069, Note_on_c, 3, 36, 100
5, 15069, Note_on_c, 3, 61, 100
5, 15079, Control_c, 3, 11, 75
5, 15108, Control_c, 3, 11, 76
5, 15124, Note_on_c, 3, 36, 0
5, 15129, Note_on_c, 3, 61, 0
5, 15129, Note_on_c, 3, 46, 100
5, 15129, Note_on_c, 3, 64, 100
5, 15137, Control_c, 3, 11, 77
5, 15166, Control_c, 3, 11, 78
5, 15189, Note_on_c, 3, 64, 0
5, 15189, Note_on_c, 3, 46, 0
5, 15189, Note_on_c, 3, 36, 100
5, 15189, Note_on_c, 3, 62, 100
5, 15195, Control_c, 3, 11, 79
5, 15225, Control_c, 3, 11, 80
5, 15249, Note_on_c, 3, 62, 0
5, 15249, Note_on_c, 3, 36, 0
5, 15249, Note_on_c, 3, 46, 100
5, 15249, Note_on_c, 3, 55, 100
5, 15254, Control_c, 3, 11, 81
5, 15283, Control_c, 3, 11, 82
5, 15309, Note_on_c, 3, 55, 0
5, 15309, Note_on_c, 3, 46, 0
5, 15309, Note_on_c, 3, 45, 100
5, 15309, Note_on_c, 3, 57, 100
5, 15312, Control_c, 3, 11, 83
5, 15341, Control_c, 3, 11, 84
5, 15369, Note_on_c, 3, 57, 0
5, 15369, Note_on_c, 3, 45, 0
5, 15369, Note_on_c, 3, 43, 100
5, 15369, Note_on_c, 3, 58, 100
5, 15370, Control_c, 3, 11, 85
5, 15399, Control_c, 3, 11, 86
5, 15424, Note_on_c, 3, 58, 0
5, 15424, Note_on_c, 3, 43, 0
5, 15429, Control_c, 3, 11, 87
5, 15429, Note_on_c, 3, 41, 100
5, 15429, Note_on_c, 3, 59, 100
5, 15484, Note_on_c, 3, 59, 0
5, 15484, Note_on_c, 3, 41, 0
5, 15489, Control_c, 3, 11, 97
5, 15489, Note_on_c, 3, 59, 100
5, 15489, Note_on_c, 3, 41, 100
5, 15549, Note_on_c, 3, 41, 0
5, 15549, Note_on_c, 3, 36, 100
5, 15609, Note_on_c, 3, 36, 0
5, 15609, Note_on_c, 3, 59, 0
5, 15609, Note_on_c, 3, 60, 100
5, 15609, Note_on_c, 3, 40, 100
5, 15669, Note_on_c, 3, 40, 0
5, 15669, Note_on_c, 3, 60, 0
5, 15669, Note_on_c, 3, 62, 100
5, 15669, Note_on_c, 3, 38, 100
5, 15729, Note_on_c, 3, 38, 0
5, 15729, Note_on_c, 3, 62, 0
5, 15729, Note_on_c, 3, 63, 100
5, 15729, Note_on_c, 3, 36, 100
5, 15784, Note_on_c, 3, 36, 0
5, 15784, Note_on_c, 3, 63, 0
5, 15789, Note_on_c, 3, 64, 100
5, 15789, Note_on_c, 3, 46, 100
5, 15844, Note_on_c, 3, 46, 0
5, 15844, Note_on_c, 3, 64, 0
5, 15849, Note_on_c, 3, 46, 100
5, 15849, Note_on_c, 3, 64, 100
5, 15909, Note_on_c, 3, 46, 0
5, 15909, Note_on_c, 3, 41, 100
5, 15969, Note_on_c, 3, 41, 0
5, 15969, Note_on_c, 3, 64, 0
5, 15969, Note_on_c, 3, 45, 100
5, 15969, Note_on_c, 3, 65, 100
5, 16029, Note_on_c, 3, 65, 0
5, 16029, Note_on_c, 3, 45, 0
5, 16029, Note_on_c, 3, 55, 100
5, 16029, Note_on_c, 3, 58, 100
5, 16089, Note_on_c, 3, 58, 0
5, 16089, Note_on_c, 3, 55, 0
5, 16089, Note_on_c, 3, 53, 100
5, 16089, Note_on_c, 3, 60, 100
5, 16144, Note_on_c, 3, 60, 0
5, 16144, Note_on_c, 3, 53, 0
5, 16149, Control_c, 3, 11, 102
5, 16149, Note_on_c, 3, 63, 100
5, 16204, Note_on_c, 3, 63, 0
5, 16209, Note_on_c, 3, 63, 100
5, 16329, Note_on_c, 3, 63, 0
5, 16329, Note_on_c, 3, 62, 100
5, 16389, Note_on_c, 3, 62, 0
5, 16509, Note_on_c, 3, 61, 100
5, 16509, Control_c, 3, 11, 42
5, 16509, Note_on_c, 3, 57, 100
5, 16564, Note_on_c, 3, 57, 0
5, 16564, Note_on_c, 3, 61, 0
5, 16569, Note_on_c, 3, 57, 100
5, 16569, Note_on_c, 3, 61, 100
5, 16689, Note_on_c, 3, 61, 0
5, 16689, Note_on_c, 3, 57, 0
5, 16689, Note_on_c, 3, 58, 100
5, 16689, Note_on_c, 3, 62, 100
5, 16749, Note_on_c, 3, 62, 0
5, 16749, Note_on_c, 3, 58, 0
5, 17769, Note_on_c, 3, 60, 100
5, 17769, Control_c, 3, 11, 87
5, 17829, Note_on_c, 3, 60, 0
5, 17889, Note_on_c, 3, 65, 110
5, 17889, Control_c, 3, 11, 107
5, 17898, Control_c, 3, 11, 104
5, 17907, Control_c, 3, 11, 101
5, 17916, Control_c, 3, 11, 98
5, 17925, Control_c, 3, 11, 95
5, 17934, Control_c, 3, 11, 92
5, 17943, Control_c, 3, 11, 89
5, 18069, Note_on_c, 3, 65, 0
5, 18489, Note_on_c, 3, 60, 100
5, 18549, Note_on_c, 3, 60, 0
5, 18609, Note_on_c, 3, 60, 100
5, 18609, Control_c, 3, 11, 107
5, 18618, Control_c, 3, 11, 104
5, 18627, Control_c, 3, 11, 101
5, 18636, Control_c, 3, 11, 98
5, 18645, Control_c, 3, 11, 95
5, 18654, Control_c, 3, 11, 92
5, 18663, Control_c, 3, 11, 89
5, 18729, Note_on_c, 3, 60, 0
5, 18729, Note_on_c, 3, 53, 100
5, 18729, Note_on_c, 3, 65, 100
5, 18789, Note_on_c, 3, 65, 0
5, 18789, Note_on_c, 3, 53, 0
5, 19089, Control_c, 3, 11, 107
5, 19089, Note_on_c, 3, 60, 100
5, 19098, Control_c, 3, 11, 104
5, 19107, Control_c, 3, 11, 101
5, 19116, Control_c, 3, 11, 98
5, 19125, Control_c, 3, 11, 95
5, 19134, Control_c, 3, 11, 92
5, 19143, Control_c, 3, 11, 89
5, 19209, Note_on_c, 3, 60, 0
5, 19209, Note_on_c, 3, 65, 100
5, 19209, Note_on_c, 3, 53, 100
5, 19269, Note_on_c, 3, 53, 0
5, 19269, Note_on_c, 3, 65, 0
5, 19449, Control_c, 3, 11, 127
5, 19449, Note_on_c, 3, 64, 127
5, 19458, Control_c, 3, 11, 124
5, 19467, Control_c, 3, 11, 121
5, 19476, Control_c, 3, 11, 118
5, 19485, Control_c, 3, 11, 115
5, 19494, Control_c, 3, 11, 112
5, 19503, Control_c, 3, 11, 109
5, 19569, Note_on_c, 3, 64, 0
5, 19809, Note_on_c, 3, 48, 100
5, 19809, Note_on_c, 3, 60, 100
5, 19929, Note_on_c, 3, 60, 0
5, 19929, Note_on_c, 3, 48, 0
5, 19929, Note_on_c, 3, 41, 100
5, 19929, Note_on_c, 3, 53, 100
5, 19989, Note_on_c, 3, 53, 0
5, 19989, Note_on_c, 3, 41, 0
5, 20289, Control_c, 3, 11, 107
5, 20289, Note_on_c, 3, 65, 100
5, 20289, Note_on_c, 3, 62, 100
5, 20298, Control_c, 3, 11, 104
5, 20307, Control_c, 3, 11, 101
5, 20316, Control_c, 3, 11, 98
5, 20325, Control_c, 3, 11, 95
5, 20334, Control_c, 3, 11, 92
5, 20343, Control_c, 3, 11, 89
5, 20349, Note_on_c, 3, 62, 0
5, 20349, Note_on_c, 3, 65, 0
5, 20649, Control_c, 3, 11, 107
5, 20649, Note_on_c, 3, 64, 100
5, 20649, Note_on_c, 3, 60, 100
5, 20658, Control_c, 3, 11, 104
5, 20667, Control_c, 3, 11, 101
5, 20676, Control_c, 3, 11, 98
5, 20685, Control_c, 3, 11, 95
5, 20694, Control_c, 3, 11, 92
5, 20703, Control_c, 3, 11, 89
5, 20709, Note_on_c, 3, 60, 0
5, 20709, Note_on_c, 3, 64, 0
5, 21009, Control_c, 3, 11, 107
5, 21009, Note_on_c, 3, 62, 100
5, 21009, Note_on_c, 3, 59, 100
5, 21018, Control_c, 3, 11, 104
5, 21027, Control_c, 3, 11, 101
5, 21036, Control_c, 3, 11, 98
5, 21045, Control_c, 3, 11, 95
5, 21054, Control_c, 3, 11, 92
5, 21063, Control_c, 3, 11, 89
5, 21069, Note_on_c, 3, 59, 0
5, 21069, Note_on_c, 3, 62, 0
5, 21129, Note_on_c, 3, 55, 100
5, 21189, Note_on_c, 3, 55, 0
5, 21249, Control_c, 3, 11, 107
5, 21249, Note_on_c, 3, 60, 100
5, 21262, Control_c, 3, 11, 104
5, 21276, Control_c, 3, 11, 101
5, 21289, Control_c, 3, 11, 98
5, 21303, Control_c, 3, 11, 95
5, 21316, Control_c, 3, 11, 92
5, 21330, Control_c, 3, 11, 89
5, 21429, Note_on_c, 3, 60, 0
5, 21429, Note_on_c, 3, 55, 100
5, 21489, Note_on_c, 3, 55, 0
5, 21489, Note_on_c, 3, 52, 100
5, 21549, Note_on_c, 3, 52, 0
5, 21549, Note_on_c, 3, 48, 100
5, 21609, Note_on_c, 3, 48, 0
5, 21609, Control_c, 3, 11, 107
5, 21609, Note_on_c, 3, 47, 100
5, 21618, Control_c, 3, 11, 104
5, 21627, Control_c, 3, 11, 101
5, 21636, Control_c, 3, 11, 98
5, 21645, Control_c, 3, 11, 95
5, 21654, Control_c, 3, 11, 92
5, 21663, Control_c, 3, 11, 89
5, 21669, Note_on_c, 3, 47, 0
5, 21729, Note_on_c, 3, 59, 100
5, 21729, Note_on_c, 3, 62, 100
5, 21789, Note_on_c, 3, 62, 0
5, 21789, Note_on_c, 3, 59, 0
5, 21969, Note_on_c, 3, 60, 100
5, 21969, Control_c, 3, 11, 107
5, 21969, Note_on_c, 3, 64, 100
5, 21978, Control_c, 3, 11, 104
5, 21987, Control_c, 3, 11, 101
5, 21996, Control_c, 3, 11, 98
5, 22005, Control_c, 3, 11, 95
5, 22014, Control_c, 3, 11, 92
5, 22023, Control_c, 3, 11, 89
5, 22029, Note_on_c, 3, 64, 0
5, 22029, Note_on_c, 3, 60, 0
5, 22089, Note_on_c, 3, 64, 100
5, 22089, Note_on_c, 3, 60, 100
5, 22149, Note_on_c, 3, 60, 0
5, 22149, Note_on_c, 3, 64, 0
5, 22329, Control_c, 3, 11, 107
5, 22329, Note_on_c, 3, 55, 100
5, 22329, Note_on_c, 3, 64, 100
5, 22338, Control_c, 3, 11, 104
5, 22347, Control_c, 3, 11, 101
5, 22356, Control_c, 3, 11, 98
5, 22365, Control_c, 3, 11, 95
5, 22374, Control_c, 3, 11, 92
5, 22383, Control_c, 3, 11, 89
5, 22389, Note_on_c, 3, 64, 0
5, 22389, Note_on_c, 3, 55, 0
5, 22449, Note_on_c, 3, 64, 100
5, 22449, Note_on_c, 3, 55, 100
5, 22509, Note_on_c, 3, 55, 0
5, 22509, Note_on_c, 3, 64, 0
5, 22689, Control_c, 3, 11, 107
5, 22689, Note_on_c, 3, 53, 100
5, 22689, Note_on_c, 3, 57, 100
5, 22698, Control_c, 3, 11, 104
5, 22707, Control_c, 3, 11, 101
5, 22716, Control_c, 3, 11, 98
5, 22725, Control_c, 3, 11, 95
5, 22734, Control_c, 3, 11, 92
5, 22743, Control_c, 3, 11, 89
5, 22749, Note_on_c, 3, 57, 0
5, 22749, Note_on_c, 3, 53, 0
5, 22809, Note_on_c, 3, 57, 100
5, 22809, Note_on_c, 3, 53, 100
5, 22869, Note_on_c, 3, 53, 0
5, 22869, Note_on_c, 3, 57, 0
5, 22929, Control_c, 3, 11, 77
5, 22929, Note_on_c, 3, 60, 100
5, 22989, Note_on_c, 3, 60, 0
5, 23049, Control_c, 3, 11, 77
5, 23049, Note_on_c, 3, 63, 100
5, 23049, Note_on_c, 3, 60, 100
5, 23061, Control_c, 3, 11, 74
5, 23073, Control_c, 3, 11, 71
5, 23085, Control_c, 3, 11, 68
5, 23097, Control_c, 3, 11, 65
5, 23109, Note_on_c, 3, 60, 0
5, 23109, Note_on_c, 3, 63, 0
5, 23109, Control_c, 3, 11, 62
5, 23109, Note_on_c, 3, 53, 100
5, 23109, Note_on_c, 3, 60, 100
5, 23121, Control_c, 3, 11, 59
5, 23133, Control_c, 3, 11, 56
5, 23145, Control_c, 3, 11, 53
5, 23157, Control_c, 3, 11, 50
5, 23169, Note_on_c, 3, 60, 0
5, 23169, Note_on_c, 3, 53, 0
5, 23169, Control_c, 3, 11, 47
5, 23169, Note_on_c, 3, 63, 100
5, 23169, Note_on_c, 3, 60, 100
5, 23229, Note_on_c, 3, 60, 0
5, 23229, Note_on_c, 3, 63, 0
5, 23229, Note_on_c, 3, 53, 100
5, 23229, Note_on_c, 3, 60, 100
5, 23289, Note_on_c, 3, 60, 0
5, 23289, Note_on_c, 3, 53, 0
5, 23289, Note_on_c, 3, 63, 100
5, 23289, Note_on_c, 3, 60, 100
5, 23349, Note_on_c, 3, 60, 0
5, 23349, Note_on_c, 3, 63, 0
5, 23349, Note_on_c, 3, 53, 100
5, 23349, Note_on_c, 3, 60, 100
5, 23409, Note_on_c, 3, 60, 0
5, 23409, Note_on_c, 3, 53, 0
5, 23409, Note_on_c, 3, 63, 100
5, 23409, Note_on_c, 3, 60, 100
5, 23469, Note_on_c, 3, 60, 0
5, 23469, Note_on_c, 3, 63, 0
5, 23469, Note_on_c, 3, 53, 100
5, 23469, Note_on_c, 3, 60, 100
5, 23529, Note_on_c, 3, 60, 0
5, 23529, Note_on_c, 3, 53, 0
5, 23529, Note_on_c, 3, 63, 100
5, 23529, Note_on_c, 3, 60, 100
5, 23589, Note_on_c, 3, 60, 0
5, 23589, Note_on_c, 3, 63, 0
5, 23589, Note_on_c, 3, 53, 100
5, 23589, Note_on_c, 3, 60, 100
5, 23649, Note_on_c, 3, 60, 0
5, 23649, Note_on_c, 3, 53, 0
5, 23649, Control_c, 3, 11, 47
5, 23649, Note_on_c, 3, 63, 100
5, 23649, Note_on_c, 3, 60, 100
5, 23705, Control_c, 3, 11, 46
5, 23709, Note_on_c, 3, 60, 0
5, 23709, Note_on_c, 3, 63, 0
5, 23709, Note_on_c, 3, 53, 100
5, 23709, Note_on_c, 3, 60, 100
5, 23761, Control_c, 3, 11, 45
5, 23769, Note_on_c, 3, 60, 0
5, 23769, Note_on_c, 3, 53, 0
5, 23769, Note_on_c, 3, 63, 100
5, 23769, Note_on_c, 3, 60, 100
5, 23817, Control_c, 3, 11, 44
5, 23829, Note_on_c, 3, 60, 0
5, 23829, Note_on_c, 3, 63, 0
5, 23829, Note_on_c, 3, 53, 100
5, 23829, Note_on_c, 3, 60, 100
5, 23873, Control_c, 3, 11, 43
5, 23889, Note_on_c, 3, 60, 0
5, 23889, Note_on_c, 3, 53, 0
5, 23889, Note_on_c, 3, 63, 100
5, 23889, Note_on_c, 3, 60, 100
5, 23929, Control_c, 3, 11, 42
5, 23949, Note_on_c, 3, 60, 0
5, 23949, Note_on_c, 3, 63, 0
5, 23949, Note_on_c, 3, 53, 100
5, 23949, Note_on_c, 3, 60, 100
5, 23985, Control_c, 3, 11, 41
5, 24009, Note_on_c, 3, 60, 0
5, 24009, Note_on_c, 3, 53, 0
5, 24009, Note_on_c, 3, 63, 100
5, 24009, Note_on_c, 3, 60, 100
5, 24041, Control_c, 3, 11, 40
5, 24069, Note_on_c, 3, 60, 0
5, 24069, Note_on_c, 3, 63, 0
5, 24069, Note_on_c, 3, 53, 100
5, 24069, Note_on_c, 3, 60, 100
5, 24097, Control_c, 3, 11, 39
5, 24129, Note_on_c, 3, 60, 0
5, 24129, Note_on_c, 3, 53, 0
5, 24129, Note_on_c, 3, 60, 100
5, 24129, Note_on_c, 3, 63, 100
5, 24153, Control_c, 3, 11, 38
5, 24189, Note_on_c, 3, 63, 0
5, 24189, Note_on_c, 3, 60, 0
5, 24189, Note_on_c, 3, 60, 100
5, 24189, Note_on_c, 3, 53, 100
5, 24209, Control_c, 3, 11, 37
5, 24249, Note_on_c, 3, 53, 0
5, 24249, Note_on_c, 3, 60, 0
5, 24249, Note_on_c, 3, 63, 100
5, 24249, Note_on_c, 3, 60, 100
5, 24265, Control_c, 3, 11, 36
5, 24309, Note_on_c, 3, 60, 0
5, 24309, Note_on_c, 3, 63, 0
5, 24309, Note_on_c, 3, 60, 100
5, 24309, Note_on_c, 3, 53, 100
5, 24321, Control_c, 3, 11, 35
5, 24369, Note_on_c, 3, 53, 0
5, 24369, Note_on_c, 3, 60, 0
5, 24377, Control_c, 3, 11, 34
5, 24433, Control_c, 3, 11, 33
5, 24489, Note_on_c, 3, 60, 72
5, 24489, Control_c, 3, 11, 37
5, 24489, Note_on_c, 3, 57, 72
5, 24549, Note_on_c, 3, 57, 0
5, 24549, Note_on_c, 3, 60, 0
5, 24729, Note_on_c, 3, 60, 72
5, 24729, Note_on_c, 3, 57, 72
5, 24789, Note_on_c, 3, 57, 0
5, 24789, Note_on_c, 3, 60, 0
5, 24969, Note_on_c, 3, 57, 72
5, 24969, Note_on_c, 3, 60, 72
5, 25029, Note_on_c, 3, 60, 0
5, 25029, Note_on_c, 3, 57, 0
5, 25089, Note_on_c, 3, 62, 100
5, 25089, Note_on_c, 3, 46, 100
5, 25149, Note_on_c, 3, 62, 0
5, 25209, Note_on_c, 3, 46, 0
5, 25209, Control_c, 3, 11, 52
5, 25209, Note_on_c, 3, 48, 100
5, 25209, Note_on_c, 3, 65, 100
5, 25389, Note_on_c, 3, 65, 0
5, 25389, Note_on_c, 3, 63, 100
5, 25449, Note_on_c, 3, 63, 0
5, 25449, Note_on_c, 3, 48, 0
5, 25449, Note_on_c, 3, 51, 100
5, 25449, Note_on_c, 3, 60, 100
5, 25509, Note_on_c, 3, 60, 0
5, 25509, Note_on_c, 3, 57, 100
5, 25569, Note_on_c, 3, 57, 0
5, 25569, Note_on_c, 3, 51, 0
5, 25569, Note_on_c, 3, 60, 100
5, 25569, Note_on_c, 3, 50, 100
5, 25629, Note_on_c, 3, 60, 0
5, 25629, Note_on_c, 3, 58, 100
5, 25689, Note_on_c, 3, 58, 0
5, 25689, Note_on_c, 3, 50, 0
5, 25689, Note_on_c, 3, 46, 100
5, 25689, Note_on_c, 3, 62, 100
5, 25749, Note_on_c, 3, 62, 0
5, 25749, Note_on_c, 3, 58, 100
5, 25809, Note_on_c, 3, 58, 0
5, 25809, Note_on_c, 3, 53, 100
5, 25869, Note_on_c, 3, 53, 0
5, 25869, Note_on_c, 3, 46, 0
5, 25869, Note_on_c, 3, 54, 100
5, 25869, Note_on_c, 3, 45, 100
5, 25929, Note_on_c, 3, 45, 0
5, 25929, Note_on_c, 3, 54, 0
5, 25929, Note_on_c, 3, 57, 100
5, 25929, Note_on_c, 3, 43, 100
5, 25989, Note_on_c, 3, 57, 0
5, 25989, Note_on_c, 3, 55, 100
5, 26049, Note_on_c, 3, 55, 0
5, 26049, Note_on_c, 3, 58, 100
5, 26109, Note_on_c, 3, 58, 0
5, 26109, Note_on_c, 3, 55, 100
5, 26169, Note_on_c, 3, 55, 0
5, 26169, Note_on_c, 3, 43, 0
5, 26169, Note_on_c, 3, 50, 100
5, 26169, Note_on_c, 3, 48, 100
5, 26229, Note_on_c, 3, 50, 0
5, 26229, Note_on_c, 3, 52, 100
5, 26289, Note_on_c, 3, 52, 0
5, 26289, Note_on_c, 3, 48, 0
5, 26289, Note_on_c, 3, 41, 100
5, 26289, Note_on_c, 3, 53, 100
5, 26349, Note_on_c, 3, 53, 0
5, 26349, Note_on_c, 3, 57, 100
5, 26409, Note_on_c, 3, 57, 0
5, 26409, Note_on_c, 3, 41, 0
5, 26409, Note_on_c, 3, 60, 100
5, 26449, Note_on_c, 3, 60, 0
5, 26469, Note_on_c, 3, 60, 100
5, 26499, Note_on_c, 3, 60, 0
5, 26529, Note_on_c, 3, 41, 100
5, 26529, Note_on_c, 3, 60, 100
5, 26559, Note_on_c, 3, 60, 0
5, 26589, Note_on_c, 3, 41, 0
5, 26589, Note_on_c, 3, 36, 100
5, 26589, Note_on_c, 3, 60, 100
5, 26619, Note_on_c, 3, 60, 0
5, 26649, Note_on_c, 3, 36, 0
5, 26649, Control_c, 3, 11, 52
5, 26649, Note_on_c, 3, 43, 100
5, 26649, Note_on_c, 3, 60, 100
5, 26678, Control_c, 3, 11, 53
5, 26707, Control_c, 3, 11, 54
5, 26709, Note_on_c, 3, 60, 0
5, 26709, Note_on_c, 3, 43, 0
5, 26709, Note_on_c, 3, 36, 100
5, 26709, Note_on_c, 3, 59, 100
5, 26736, Control_c, 3, 11, 55
5, 26765, Control_c, 3, 11, 56
5, 26769, Note_on_c, 3, 59, 0
5, 26769, Note_on_c, 3, 36, 0
5, 26769, Note_on_c, 3, 43, 100
5, 26769, Note_on_c, 3, 60, 100
5, 26794, Control_c, 3, 11, 57
5, 26823, Control_c, 3, 11, 58
5, 26829, Note_on_c, 3, 60, 0
5, 26829, Note_on_c, 3, 43, 0
5, 26829, Note_on_c, 3, 36, 100
5, 26829, Note_on_c, 3, 58, 100
5, 26853, Control_c, 3, 11, 59
5, 26882, Control_c, 3, 11, 60
5, 26889, Note_on_c, 3, 58, 0
5, 26889, Note_on_c, 3, 36, 0
5, 26889, Note_on_c, 3, 46, 100
5, 26889, Note_on_c, 3, 55, 100
5, 26911, Control_c, 3, 11, 61
5, 26940, Control_c, 3, 11, 62
5, 26949, Note_on_c, 3, 55, 0
5, 26949, Note_on_c, 3, 46, 0
5, 26949, Note_on_c, 3, 36, 100
5, 26949, Note_on_c, 3, 52, 100
5, 26969, Control_c, 3, 11, 63
5, 26998, Control_c, 3, 11, 64
5, 27004, Note_on_c, 3, 36, 0
5, 27009, Note_on_c, 3, 52, 0
5, 27009, Note_on_c, 3, 45, 100
5, 27009, Note_on_c, 3, 55, 100
5, 27027, Control_c, 3, 11, 65
5, 27057, Control_c, 3, 11, 66
5, 27069, Note_on_c, 3, 55, 0
5, 27069, Note_on_c, 3, 45, 0
5, 27069, Note_on_c, 3, 36, 100
5, 27069, Note_on_c, 3, 53, 100
5, 27086, Control_c, 3, 11, 67
5, 27115, Control_c, 3, 11, 68
5, 27129, Note_on_c, 3, 53, 0
5, 27129, Note_on_c, 3, 36, 0
5, 27129, Note_on_c, 3, 45, 100
5, 27129, Note_on_c, 3, 57, 100
5, 27144, Control_c, 3, 11, 69
5, 27173, Control_c, 3, 11, 70
5, 27189, Note_on_c, 3, 57, 0
5, 27189, Note_on_c, 3, 45, 0
5, 27189, Note_on_c, 3, 36, 100
5, 27189, Note_on_c, 3, 53, 100
5, 27202, Control_c, 3, 11, 71
5, 27231, Control_c, 3, 11, 72
5, 27249, Note_on_c, 3, 53, 0
5, 27249, Note_on_c, 3, 36, 0
5, 27249, Note_on_c, 3, 45, 100
5, 27249, Note_on_c, 3, 60, 100
5, 27261, Control_c, 3, 11, 73
5, 27290, Control_c, 3, 11, 74
5, 27309, Note_on_c, 3, 60, 0
5, 27309, Note_on_c, 3, 45, 0
5, 27309, Note_on_c, 3, 36, 100
5, 27309, Note_on_c, 3, 61, 100
5, 27319, Control_c, 3, 11, 75
5, 27348, Control_c, 3, 11, 76
5, 27364, Note_on_c, 3, 36, 0
5, 27369, Note_on_c, 3, 61, 0
5, 27369, Note_on_c, 3, 46, 100
5, 27369, Note_on_c, 3, 64, 100
5, 27377, Control_c, 3, 11, 77
5, 27406, Control_c, 3, 11, 78
5, 27429, Note_on_c, 3, 64, 0
5, 27429, Note_on_c, 3, 46, 0
5, 27429, Note_on_c, 3, 36, 100
5, 27429, Note_on_c, 3, 62, 100
5, 27435, Control_c, 3, 11, 79
5, 27465, Control_c, 3, 11, 80
5, 27489, Note_on_c, 3, 62, 0
5, 27489, Note_on_c, 3, 36, 0
5, 27489, Note_on_c, 3, 46, 100
5, 27489, Note_on_c, 3, 55, 100
5, 27494, Control_c, 3, 11, 81
5, 27523, Control_c, 3, 11, 82
5, 27549, Note_on_c, 3, 55, 0
5, 27549, Note_on_c, 3, 46, 0
5, 27549, Note_on_c, 3, 45, 100
5, 27549, Note_on_c, 3, 57, 100
5, 27552, Control_c, 3, 11, 83
5, 27581, Control_c, 3, 11, 84
5, 27609, Note_on_c, 3, 57, 0
5, 27609, Note_on_c, 3, 45, 0
5, 27609, Note_on_c, 3, 43, 100
5, 27609, Note_on_c, 3, 58, 100
5, 27610, Control_c, 3, 11, 85
5, 27639, Control_c, 3, 11, 86
5, 27664, Note_on_c, 3, 58, 0
5, 27664, Note_on_c, 3, 43, 0
5, 27669, Control_c, 3, 11, 87
5, 27669, Note_on_c, 3, 41, 100
5, 27669, Note_on_c, 3, 59, 100
5, 27724, Note_on_c, 3, 59, 0
5, 27724, Note_on_c, 3, 41, 0
5, 27729, Control_c, 3, 11, 97
5, 27729, Note_on_c, 3, 59, 100
5, 27729, Note_on_c, 3, 41, 100
5, 27789, Note_on_c, 3, 41, 0
5, 27789, Note_on_c, 3, 36, 100
5, 27849, Note_on_c, 3, 36, 0
5, 27849, Note_on_c, 3, 59, 0
5, 27849, Note_on_c, 3, 60, 100
5, 27849, Note_on_c, 3, 40, 100
5, 27909, Note_on_c, 3, 40, 0
5, 27909, Note_on_c, 3, 60, 0
5, 27909, Note_on_c, 3, 62, 100
5, 27909, Note_on_c, 3, 38, 100
5, 27969, Note_on_c, 3, 38, 0
5, 27969, Note_on_c, 3, 62, 0
5, 27969, Note_on_c, 3, 63, 100
5, 27969, Note_on_c, 3, 36, 100
5, 28024, Note_on_c, 3, 36, 0
5, 28024, Note_on_c, 3, 63, 0
5, 28029, Note_on_c, 3, 64, 100
5, 28029, Note_on_c, 3, 46, 100
5, 28084, Note_on_c, 3, 46, 0
5, 28084, Note_on_c, 3, 64, 0
5, 28089, Note_on_c, 3, 46, 100
5, 28089, Note_on_c, 3, 64, 100
5, 28149, Note_on_c, 3, 46, 0
5, 28149, Note_on_c, 3, 41, 100
5, 28209, Note_on_c, 3, 41, 0
5, 28209, Note_on_c, 3, 64, 0
5, 28209, Note_on_c, 3, 45, 100
5, 28209, Note_on_c, 3, 65, 100
5, 28269, Note_on_c, 3, 65, 0
5, 28269, Note_on_c, 3, 45, 0
5, 28269, Note_on_c, 3, 55, 100
5, 28269, Note_on_c, 3, 58, 100
5, 28329, Note_on_c, 3, 58, 0
5, 28329, Note_on_c, 3, 55, 0
5, 28329, Note_on_c, 3, 53, 100
5, 28329, Note_on_c, 3, 60, 100
5, 28384, Note_on_c, 3, 60, 0
5, 28384, Note_on_c, 3, 53, 0
5, 28389, Control_c, 3, 11, 102
5, 28389, Note_on_c, 3, 63, 100
5, 28444, Note_on_c, 3, 63, 0
5, 28449, Note_on_c, 3, 63, 100
5, 28569, Note_on_c, 3, 63, 0
5, 28569, Note_on_c, 3, 62, 100
5, 28629, Note_on_c, 3, 62, 0
5, 28749, Control_c, 3, 11, 42
5, 28749, Note_on_c, 3, 61, 100
5, 28749, Note_on_c, 3, 57, 100
5, 28804, Note_on_c, 3, 57, 0
5, 28804, Note_on_c, 3, 61, 0
5, 28809, Note_on_c, 3, 61, 100
5, 28809, Note_on_c, 3, 57, 100
5, 28929, Note_on_c, 3, 57, 0
5, 28929, Note_on_c, 3, 61, 0
5, 28929, Note_on_c, 3, 62, 100
5, 28929, Note_on_c, 3, 58, 100
5, 28989, Note_on_c, 3, 58, 0
5, 28989, Note_on_c, 3, 62, 0
5, 30009, Control_c, 3, 11, 87
5, 30009, Note_on_c, 3, 60, 100
5, 30069, Note_on_c, 3, 60, 0
5, 30129, Control_c, 3, 11, 107
5, 30129, Note_on_c, 3, 65, 110
5, 30138, Control_c, 3, 11, 104
5, 30147, Control_c, 3, 11, 101
5, 30156, Control_c, 3, 11, 98
5, 30165, Control_c, 3, 11, 95
5, 30174, Control_c, 3, 11, 92
5, 30183, Control_c, 3, 11, 89
5, 30309, Note_on_c, 3, 65, 0
5, 30729, Note_on_c, 3, 60, 100
5, 30789, Note_on_c, 3, 60, 0
5, 30849, Control_c, 3, 11, 107
5, 30849, Note_on_c, 3, 60, 100
5, 30858, Control_c, 3, 11, 104
5, 30867, Control_c, 3, 11, 101
5, 30876, Control_c, 3, 11, 98
5, 30885, Control_c, 3, 11, 95
5, 30894, Control_c, 3, 11, 92
5, 30903, Control_c, 3, 11, 89
5, 30969, Note_on_c, 3, 60, 0
5, 30969, Note_on_c, 3, 65, 100
5, 30969, Note_on_c, 3, 53, 100
5, 31029, Note_on_c, 3, 53, 0
5, 31029, Note_on_c, 3, 65, 0
5, 31329, Control_c, 3, 11, 107
5, 31329, Note_on_c, 3, 60, 100
5, 31338, Control_c, 3, 11, 104
5, 31347, Control_c, 3, 11, 101
5, 31356, Control_c, 3, 11, 98
5, 31365, Control_c, 3, 11, 95
5, 31374, Control_c, 3, 11, 92
5, 31383, Control_c, 3, 11, 89
5, 31449, Note_on_c, 3, 60, 0
5, 31449, Note_on_c, 3, 65, 100
5, 31449, Note_on_c, 3, 53, 100
5, 31509, Note_on_c, 3, 53, 0
5, 31509, Note_on_c, 3, 65, 0
5, 31689, Note_on_c, 3, 64, 127
5, 31689, Control_c, 3, 11, 127
5, 31698, Control_c, 3, 11, 124
5, 31707, Control_c, 3, 11, 121
5, 31716, Control_c, 3, 11, 118
5, 31725, Control_c, 3, 11, 115
5, 31734, Control_c, 3, 11, 112
5, 31743, Control_c, 3, 11, 109
5, 31809, Note_on_c, 3, 64, 0
5, 32049, Note_on_c, 3, 48, 100
5, 32049, Note_on_c, 3, 60, 100
5, 32169, Note_on_c, 3, 60, 0
5, 32169, Note_on_c, 3, 48, 0
5, 32169, Note_on_c, 3, 41, 100
5, 32169, Note_on_c, 3, 53, 100
5, 32229, Note_on_c, 3, 53, 0
5, 32229, Note_on_c, 3, 41, 0
5, 39669, Control_c, 3, 11, 52
5, 39698, Control_c, 3, 11, 53
5, 39727, Control_c, 3, 11, 54
5, 39729, Note_on_c, 3, 56, 100
5, 39729, Note_on_c, 3, 44, 100
5, 39756, Control_c, 3, 11, 55
5, 39785, Control_c, 3, 11, 56
5, 39814, Control_c, 3, 11, 57
5, 39843, Control_c, 3, 11, 58
5, 39873, Control_c, 3, 11, 59
5, 39902, Control_c, 3, 11, 60
5, 39931, Control_c, 3, 11, 61
5, 39960, Control_c, 3, 11, 62
5, 39969, Note_on_c, 3, 44, 0
5, 39969, Note_on_c, 3, 56, 0
5, 39989, Control_c, 3, 11, 63
5, 40018, Control_c, 3, 11, 64
5, 40047, Control_c, 3, 11, 65
5, 40077, Control_c, 3, 11, 66
5, 40089, Note_on_c, 3, 61, 100
5, 40089, Note_on_c, 3, 49, 100
5, 40106, Control_c, 3, 11, 67
5, 40135, Control_c, 3, 11, 68
5, 40164, Control_c, 3, 11, 69
5, 40193, Control_c, 3, 11, 70
5, 40222, Control_c, 3, 11, 71
5, 40251, Control_c, 3, 11, 72
5, 40281, Control_c, 3, 11, 73
5, 40310, Control_c, 3, 11, 74
5, 40329, Note_on_c, 3, 49, 0
5, 40329, Note_on_c, 3, 61, 0
5, 40339, Control_c, 3, 11, 75
5, 40368, Control_c, 3, 11, 76
5, 40397, Control_c, 3, 11, 77
5, 40426, Control_c, 3, 11, 78
5, 40449, Note_on_c, 3, 63, 100
5, 40449, Note_on_c, 3, 51, 100
5, 40455, Control_c, 3, 11, 79
5, 40485, Control_c, 3, 11, 80
5, 40514, Control_c, 3, 11, 81
5, 40543, Control_c, 3, 11, 82
5, 40572, Control_c, 3, 11, 83
5, 40601, Control_c, 3, 11, 84
5, 40630, Control_c, 3, 11, 85
5, 40659, Control_c, 3, 11, 86
5, 40689, Note_on_c, 3, 51, 0
5, 40689, Note_on_c, 3, 63, 0
5, 40689, Control_c, 3, 11, 87
5, 40689, Note_on_c, 3, 64, 100
5, 40689, Note_on_c, 3, 52, 100
5, 40929, Note_on_c, 3, 52, 0
5, 40929, Note_on_c, 3, 64, 0
5, 40929, Note_on_c, 3, 48, 100
5, 40929, Note_on_c, 3, 60, 100
5, 41049, Note_on_c, 3, 60, 0
5, 41049, Note_on_c, 3, 48, 0
5, 41049, Control_c, 3, 11, 87
5, 41049, Note_on_c, 3, 65, 100
5, 41049, Note_on_c, 3, 53, 100
5, 41055, Control_c, 3, 11, 84
5, 41061, Control_c, 3, 11, 81
5, 41067, Control_c, 3, 11, 78
5, 41073, Control_c, 3, 11, 75
5, 41079, Control_c, 3, 11, 72
5, 41085, Control_c, 3, 11, 69
5, 41089, Control_c, 3, 11, 57
5, 41101, Control_c, 3, 11, 54
5, 41109, Note_on_c, 3, 53, 0
5, 41109, Note_on_c, 3, 65, 0
5, 41169, Control_c, 3, 11, 52
5, 41169, Note_on_c, 3, 65, 100
5, 41169, Note_on_c, 3, 53, 100
5, 41193, Control_c, 3, 11, 53
5, 41217, Control_c, 3, 11, 54
5, 41241, Control_c, 3, 11, 55
5, 41265, Control_c, 3, 11, 56
5, 41289, Control_c, 3, 11, 57
5, 41313, Control_c, 3, 11, 58
5, 41337, Control_c, 3, 11, 59
5, 41361, Control_c, 3, 11, 60
5, 41385, Control_c, 3, 11, 61
5, 41409, Note_on_c, 3, 53, 0
5, 41409, Note_on_c, 3, 65, 0
5, 41409, Control_c, 3, 11, 62
5, 41433, Control_c, 3, 11, 63
5, 41457, Control_c, 3, 11, 64
5, 41481, Control_c, 3, 11, 65
5, 41505, Control_c, 3, 11, 66
5, 41529, Control_c, 3, 11, 67
5, 41529, Note_on_c, 3, 58, 100
5, 41529, Note_on_c, 3, 46, 100
5, 41769, Note_on_c, 3, 46, 0
5, 41769, Note_on_c, 3, 58, 0
5, 41889, Note_on_c, 3, 60, 100
5, 41889, Note_on_c, 3, 48, 100
5, 42069, Control_c, 3, 11, 67
5, 42081, Control_c, 3, 11, 64
5, 42093, Control_c, 3, 11, 61
5, 42105, Control_c, 3, 11, 58
5, 42117, Control_c, 3, 11, 55
5, 42129, Note_on_c, 3, 48, 0
5, 42129, Note_on_c, 3, 60, 0
5, 42129, Control_c, 3, 11, 52
5, 42129, Note_on_c, 3, 41, 100
5, 42141, Control_c, 3, 11, 48
5, 42165, Control_c, 3, 11, 49
5, 42189, Note_on_c, 3, 41, 0
5, 42189, Control_c, 3, 11, 50
5, 42213, Control_c, 3, 11, 51
5, 42237, Control_c, 3, 11, 52
5, 42261, Control_c, 3, 11, 53
5, 42285, Control_c, 3, 11, 54
5, 42309, Control_c, 3, 11, 55
5, 42309, Note_on_c, 3, 43, 100
5, 42333, Control_c, 3, 11, 56
5, 42339, Note_on_c, 3, 43, 0
5, 42357, Control_c, 3, 11, 57
5, 42369, Control_c, 3, 11, 67
5, 42369, Note_on_c, 3, 45, 100
5, 42381, Control_c, 3, 11, 64
5, 42393, Control_c, 3, 11, 61
5, 42399, Note_on_c, 3, 45, 0
5, 42405, Control_c, 3, 11, 58
5, 42489, Note_on_c, 3, 41, 100
5, 42549, Note_on_c, 3, 41, 0
5, 42669, Note_on_c, 3, 43, 100
5, 42699, Note_on_c, 3, 43, 0
5, 42729, Control_c, 3, 11, 67
5, 42729, Note_on_c, 3, 45, 100
5, 42741, Control_c, 3, 11, 64
5, 42753, Control_c, 3, 11, 61
5, 42759, Note_on_c, 3, 45, 0
5, 42765, Control_c, 3, 11, 58
5, 42849, Note_on_c, 3, 41, 100
5, 42849, Control_c, 3, 11, 47
5, 42909, Note_on_c, 3, 41, 0
5, 43029, Note_on_c, 3, 43, 100
5, 43059, Note_on_c, 3, 43, 0
5, 43089, Note_on_c, 3, 45, 100
5, 43119, Note_on_c, 3, 45, 0
5, 43209, Note_on_c, 3, 36, 100
5, 43269, Note_on_c, 3, 36, 0
5, 43389, Note_on_c, 3, 43, 100
5, 43419, Note_on_c, 3, 43, 0
5, 43449, Note_on_c, 3, 48, 100
5, 43479, Note_on_c, 3, 48, 0
5, 43569, Note_on_c, 3, 41, 100
5, 43569, Control_c, 3, 11, 47
5, 43593, Control_c, 3, 11, 48
5, 43617, Control_c, 3, 11, 49
5, 43629, Note_on_c, 3, 41, 0
5, 43641, Control_c, 3, 11, 50
5, 43665, Control_c, 3, 11, 51
5, 43689, Control_c, 3, 11, 52
5, 43713, Control_c, 3, 11, 53
5, 43737, Control_c, 3, 11, 54
5, 43749, Note_on_c, 3, 43, 100
5, 43761, Control_c, 3, 11, 55
5, 43779, Note_on_c, 3, 43, 0
5, 43785, Control_c, 3, 11, 56
5, 43809, Control_c, 3, 11, 67
5, 43809, Note_on_c, 3, 45, 100
5, 43821, Control_c, 3, 11, 64
5, 43833, Control_c, 3, 11, 61
5, 43839, Note_on_c, 3, 45, 0
5, 43845, Control_c, 3, 11, 58
5, 43929, Note_on_c, 3, 41, 100
5, 43989, Note_on_c, 3, 41, 0
5, 44109, Note_on_c, 3, 43, 100
5, 44139, Note_on_c, 3, 43, 0
5, 44169, Control_c, 3, 11, 67
5, 44169, Note_on_c, 3, 45, 100
5, 44181, Control_c, 3, 11, 64
5, 44193, Control_c, 3, 11, 61
5, 44199, Note_on_c, 3, 45, 0
5, 44205, Control_c, 3, 11, 58
5, 44289, Control_c, 3, 11, 47
5, 44289, Note_on_c, 3, 41, 100
5, 44349, Note_on_c, 3, 41, 0
5, 44469, Note_on_c, 3, 43, 100
5, 44499, Note_on_c, 3, 43, 0
5, 44529, Note_on_c, 3, 45, 100
5, 44559, Note_on_c, 3, 45, 0
5, 44649, Note_on_c, 3, 36, 100
5, 44709, Note_on_c, 3, 36, 0
5, 44829, Note_on_c, 3, 43, 100
5, 44859, Note_on_c, 3, 43, 0
5, 44889, Note_on_c, 3, 48, 100
5, 44919, Note_on_c, 3, 48, 0
5, 45009, Note_on_c, 3, 41, 100
5, 45009, Control_c, 3, 11, 47
5, 45033, Control_c, 3, 11, 48
5, 45057, Control_c, 3, 11, 49
5, 45069, Note_on_c, 3, 41, 0
5, 45081, Control_c, 3, 11, 50
5, 45105, Control_c, 3, 11, 51
5, 45129, Control_c, 3, 11, 52
5, 45153, Control_c, 3, 11, 53
5, 45177, Control_c, 3, 11, 54
5, 45189, Note_on_c, 3, 43, 100
5, 45201, Control_c, 3, 11, 55
5, 45219, Note_on_c, 3, 43, 0
5, 45225, Control_c, 3, 11, 56
5, 45249, Note_on_c, 3, 45, 100
5, 45249, Control_c, 3, 11, 67
5, 45261, Control_c, 3, 11, 64
5, 45273, Control_c, 3, 11, 61
5, 45279, Note_on_c, 3, 45, 0
5, 45285, Control_c, 3, 11, 58
5, 45369, Control_c, 3, 11, 47
5, 45369, Note_on_c, 3, 36, 100
5, 45429, Note_on_c, 3, 36, 0
5, 45549, Note_on_c, 3, 43, 100
5, 45579, Note_on_c, 3, 43, 0
5, 45609, Note_on_c, 3, 48, 100
5, 45639, Note_on_c, 3, 48, 0
5, 45729, Note_on_c, 3, 41, 100
5, 45729, Control_c, 3, 11, 47
5, 45753, Control_c, 3, 11, 48
5, 45777, Control_c, 3, 11, 49
5, 45789, Note_on_c, 3, 41, 0
5, 45801, Control_c, 3, 11, 50
5, 45825, Control_c, 3, 11, 51
5, 45849, Control_c, 3, 11, 52
5, 45873, Control_c, 3, 11, 53
5, 45897, Control_c, 3, 11, 54
5, 45909, Note_on_c, 3, 43, 100
5, 45921, Control_c, 3, 11, 55
5, 45939, Note_on_c, 3, 43, 0
5, 45945, Control_c, 3, 11, 56
5, 45969, Note_on_c, 3, 45, 100
5, 45969, Control_c, 3, 11, 67
5, 45981, Control_c, 3, 11, 64
5, 45993, Control_c, 3, 11, 61
5, 45999, Note_on_c, 3, 45, 0
5, 46005, Control_c, 3, 11, 58
5, 46089, Control_c, 3, 11, 47
5, 46089, Note_on_c, 3, 41, 100
5, 46149, Note_on_c, 3, 41, 0
5, 46209, Control_c, 3, 11, 47
5, 46269, Control_c, 3, 11, 52
5, 46269, Note_on_c, 3, 43, 100
5, 46299, Note_on_c, 3, 43, 0
5, 46305, Control_c, 3, 11, 51
5, 46329, Note_on_c, 3, 45, 100
5, 46341, Control_c, 3, 11, 50
5, 46359, Note_on_c, 3, 45, 0
5, 46377, Control_c, 3, 11, 49
5, 46413, Control_c, 3, 11, 48
5, 46449, Control_c, 3, 11, 47
5, 46449, Note_on_c, 3, 41, 100
5, 46485, Control_c, 3, 11, 46
5, 46509, Note_on_c, 3, 41, 0
5, 46521, Control_c, 3, 11, 45
5, 46557, Control_c, 3, 11, 44
5, 46593, Control_c, 3, 11, 43
5, 46629, Control_c, 3, 11, 42
5, 46629, Note_on_c, 3, 43, 100
5, 46659, Note_on_c, 3, 43, 0
5, 46665, Control_c, 3, 11, 41
5, 46689, Note_on_c, 3, 45, 100
5, 46701, Control_c, 3, 11, 40
5, 46719, Note_on_c, 3, 45, 0
5, 46737, Control_c, 3, 11, 39
5, 46773, Control_c, 3, 11, 38
5, 46809, Control_c, 3, 11, 37
5, 46809, Note_on_c, 3, 41, 100
5, 46869, Note_on_c, 3, 41, 0
5, 46989, Note_on_c, 3, 43, 100
5, 47019, Note_on_c, 3, 43, 0
5, 47049, Note_on_c, 3, 45, 100
5, 47109, Note_on_c, 3, 45, 0
5, 47169, Note_on_c, 3, 41, 100
5, 47229, Note_on_c, 3, 41, 0
5, 47289, Note_on_c, 3, 41, 100
5, 47319, Control_c, 3, 11, 37
5, 47324, Control_c, 3, 11, 34
5, 47330, Control_c, 3, 11, 31
5, 47336, Control_c, 3, 11, 28
5, 47342, Control_c, 3, 11, 25
5, 47348, Control_c, 3, 11, 22
5, 47349, Note_on_c, 3, 41, 0
5, 47409, Control_c, 3, 11, 87
5, 47409, Note_on_c, 3, 53, 100
5, 47412, Control_c, 3, 11, 106
5, 47421, Control_c, 3, 11, 103
5, 47430, Control_c, 3, 11, 100
5, 47439, Control_c, 3, 11, 97
5, 47448, Control_c, 3, 11, 94
5, 47457, Control_c, 3, 11, 91
5, 47466, Control_c, 3, 11, 88
5, 47469, Note_on_c, 3, 53, 0
5, 47469, Note_on_c, 3, 48, 100
5, 47519, Note_on_c, 3, 48, 0
5, 47529, Control_c, 3, 11, 107
5, 47529, Note_on_c, 3, 53, 100
5, 47538, Control_c, 3, 11, 104
5, 47547, Control_c, 3, 11, 101
5, 47556, Control_c, 3, 11, 98
5, 47565, Control_c, 3, 11, 95
5, 47574, Control_c, 3, 11, 92
5, 47583, Control_c, 3, 11, 89
5, 47589, Note_on_c, 3, 53, 0
5, 47589, Note_on_c, 3, 48, 100
5, 47649, Note_on_c, 3, 48, 0
5, 47649, Control_c, 3, 11, 107
5, 47649, Note_on_c, 3, 53, 100
5, 47658, Control_c, 3, 11, 104
5, 47667, Control_c, 3, 11, 101
5, 47676, Control_c, 3, 11, 98
5, 47685, Control_c, 3, 11, 95
5, 47694, Control_c, 3, 11, 92
5, 47703, Control_c, 3, 11, 89
5, 47709, Note_on_c, 3, 53, 0
5, 47709, Note_on_c, 3, 48, 100
5, 47759, Note_on_c, 3, 48, 0
5, 47769, Control_c, 3, 11, 107
5, 47769, Note_on_c, 3, 57, 100
5, 47769, Note_on_c, 3, 53, 100
5, 47778, Control_c, 3, 11, 104
5, 47787, Control_c, 3, 11, 101
5, 47796, Control_c, 3, 11, 98
5, 47805, Control_c, 3, 11, 95
5, 47814, Control_c, 3, 11, 92
5, 47823, Control_c, 3, 11, 89
5, 47829, Note_on_c, 3, 53, 0
5, 47829, Note_on_c, 3, 57, 0
5, 47829, Note_on_c, 3, 48, 100
5, 47829, Note_on_c, 3, 53, 100
5, 47879, Note_on_c, 3, 53, 0
5, 47879, Note_on_c, 3, 48, 0
5, 47889, Note_on_c, 3, 53, 100
5, 47889, Note_on_c, 3, 57, 100
5, 47889, Control_c, 3, 11, 102
5, 47896, Control_c, 3, 11, 99
5, 47903, Control_c, 3, 11, 96
5, 47910, Control_c, 3, 11, 93
5, 47917, Control_c, 3, 11, 90
5, 47925, Control_c, 3, 11, 87
5, 47932, Control_c, 3, 11, 84
5, 47939, Control_c, 3, 11, 81
5, 47946, Control_c, 3, 11, 78
5, 47949, Note_on_c, 3, 57, 0
5, 47949, Note_on_c, 3, 53, 0
5, 47949, Note_on_c, 3, 53, 100
5, 47949, Note_on_c, 3, 48, 100
5, 48009, Note_on_c, 3, 48, 0
5, 48009, Note_on_c, 3, 53, 0
5, 48009, Control_c, 3, 11, 92
5, 48009, Note_on_c, 3, 57, 90
5, 48009, Note_on_c, 3, 53, 90
5, 48018, Control_c, 3, 11, 89
5, 48027, Control_c, 3, 11, 86
5, 48036, Control_c, 3, 11, 83
5, 48045, Control_c, 3, 11, 80
5, 48054, Control_c, 3, 11, 77
5, 48063, Control_c, 3, 11, 74
5, 48069, Note_on_c, 3, 53, 0
5, 48069, Note_on_c, 3, 57, 0
5, 48069, Note_on_c, 3, 53, 80
5, 48069, Note_on_c, 3, 48, 80
5, 48129, Note_on_c, 3, 48, 0
5, 48129, Note_on_c, 3, 53, 0
5, 48849, Control_c, 3, 11, 47
5, 48849, Note_on_c, 3, 60, 100
5, 48867, Control_c, 3, 11, 48
5, 48885, Control_c, 3, 11, 49
5, 48903, Control_c, 3, 11, 50
5, 48909, Note_on_c, 3, 60, 0
5, 48909, Note_on_c, 3, 61, 100
5, 48921, Control_c, 3, 11, 51
5, 48939, Control_c, 3, 11, 52
5, 48957, Control_c, 3, 11, 53
5, 48969, Note_on_c, 3, 61, 0
5, 48969, Note_on_c, 3, 64, 100
5, 48975, Control_c, 3, 11, 54
5, 48993, Control_c, 3, 11, 55
5, 49011, Control_c, 3, 11, 56
5, 49029, Note_on_c, 3, 64, 0
5, 49029, Control_c, 3, 11, 57
5, 49029, Note_on_c, 3, 62, 100
5, 49047, Control_c, 3, 11, 58
5, 49065, Control_c, 3, 11, 59
5, 49083, Control_c, 3, 11, 60
5, 49089, Note_on_c, 3, 62, 0
5, 49089, Note_on_c, 3, 55, 100
5, 49101, Control_c, 3, 11, 61
5, 49119, Control_c, 3, 11, 62
5, 49137, Control_c, 3, 11, 63
5, 49149, Note_on_c, 3, 55, 0
5, 49149, Note_on_c, 3, 57, 100
5, 49155, Control_c, 3, 11, 64
5, 49173, Control_c, 3, 11, 65
5, 49191, Control_c, 3, 11, 66
5, 49209, Note_on_c, 3, 57, 0
5, 49209, Control_c, 3, 11, 67
5, 49209, Note_on_c, 3, 58, 100
5, 49227, Control_c, 3, 11, 68
5, 49245, Control_c, 3, 11, 69
5, 49263, Control_c, 3, 11, 70
5, 49269, Note_on_c, 3, 58, 0
5, 49269, Note_on_c, 3, 59, 100
5, 49281, Control_c, 3, 11, 71
5, 49299, Control_c, 3, 11, 72
5, 49317, Control_c, 3, 11, 73
5, 49319, Note_on_c, 3, 59, 0
5, 49329, Note_on_c, 3, 59, 100
5, 49335, Control_c, 3, 11, 74
5, 49353, Control_c, 3, 11, 75
5, 49371, Control_c, 3, 11, 76
5, 49389, Control_c, 3, 11, 77
5, 49407, Control_c, 3, 11, 78
5, 49425, Control_c, 3, 11, 79
5, 49443, Control_c, 3, 11, 80
5, 49449, Note_on_c, 3, 59, 0
5, 49449, Note_on_c, 3, 60, 100
5, 49461, Control_c, 3, 11, 81
5, 49479, Control_c, 3, 11, 82
5, 49497, Control_c, 3, 11, 83
5, 49509, Note_on_c, 3, 60, 0
5, 49515, Control_c, 3, 11, 84
5, 49533, Control_c, 3, 11, 85
5, 49551, Control_c, 3, 11, 86
5, 49569, Control_c, 3, 11, 87
5, 49569, Note_on_c, 3, 53, 100
5, 49569, Note_on_c, 3, 57, 100
5, 49629, Note_on_c, 3, 57, 0
5, 49629, Note_on_c, 3, 53, 0
5, 49689, Control_c, 3, 11, 107
5, 49689, Note_on_c, 3, 58, 100
5, 49689, Note_on_c, 3, 55, 100
5, 49698, Control_c, 3, 11, 104
5, 49707, Control_c, 3, 11, 101
5, 49716, Control_c, 3, 11, 98
5, 49725, Control_c, 3, 11, 95
5, 49734, Control_c, 3, 11, 92
5, 49743, Control_c, 3, 11, 89
5, 50039, Note_on_c, 3, 55, 0
5, 50039, Note_on_c, 3, 58, 0
5, 50049, Control_c, 3, 11, 107
5, 50049, Note_on_c, 3, 57, 100
5, 50049, Note_on_c, 3, 60, 100
5, 50058, Control_c, 3, 11, 104
5, 50067, Control_c, 3, 11, 101
5, 50076, Control_c, 3, 11, 98
5, 50085, Control_c, 3, 11, 95
5, 50094, Control_c, 3, 11, 92
5, 50103, Control_c, 3, 11, 89
5, 50289, Note_on_c, 3, 60, 0
5, 50339, Note_on_c, 3, 57, 0
5, 50349, Note_on_c, 3, 57, 100
5, 50409, Note_on_c, 3, 57, 0
5, 50409, Note_on_c, 3, 57, 100
5, 50469, Note_on_c, 3, 57, 0
5, 50469, Note_on_c, 3, 46, 100
5, 50529, Note_on_c, 3, 46, 0
5, 50529, Note_on_c, 3, 57, 100
5, 50589, Note_on_c, 3, 57, 0
5, 50589, Note_on_c, 3, 55, 100
5, 50649, Note_on_c, 3, 55, 0
5, 50649, Note_on_c, 3, 53, 100
5, 50699, Note_on_c, 3, 53, 0
5, 50709, Note_on_c, 3, 60, 100
5, 50759, Note_on_c, 3, 60, 0
5, 50769, Note_on_c, 3, 60, 100
5, 50829, Note_on_c, 3, 60, 0
5, 50829, Note_on_c, 3, 48, 100
5, 50889, Note_on_c, 3, 48, 0
5, 50889, Note_on_c, 3, 53, 100
5, 50949, Note_on_c, 3, 53, 0
5, 51249, Control_c, 3, 11, 107
5, 51249, Note_on_c, 3, 65, 100
5, 51249, Note_on_c, 3, 62, 100
5, 51258, Control_c, 3, 11, 104
5, 51267, Control_c, 3, 11, 101
5, 51276, Control_c, 3, 11, 98
5, 51285, Control_c, 3, 11, 95
5, 51294, Control_c, 3, 11, 92
5, 51303, Control_c, 3, 11, 89
5, 51309, Note_on_c, 3, 62, 0
5, 51309, Note_on_c, 3, 65, 0
5, 51609, Control_c, 3, 11, 107
5, 51609, Note_on_c, 3, 64, 100
5, 51609, Note_on_c, 3, 60, 100
5, 51618, Control_c, 3, 11, 104
5, 51627, Control_c, 3, 11, 101
5, 51636, Control_c, 3, 11, 98
5, 51645, Control_c, 3, 11, 95
5, 51654, Control_c, 3, 11, 92
5, 51663, Control_c, 3, 11, 89
5, 51669, Note_on_c, 3, 60, 0
5, 51669, Note_on_c, 3, 64, 0
5, 51969, Control_c, 3, 11, 107
5, 51969, Note_on_c, 3, 62, 100
5, 51969, Note_on_c, 3, 59, 100
5, 51978, Control_c, 3, 11, 104
5, 51987, Control_c, 3, 11, 101
5, 51996, Control_c, 3, 11, 98
5, 52005, Control_c, 3, 11, 95
5, 52014, Control_c, 3, 11, 92
5, 52023, Control_c, 3, 11, 89
5, 52029, Note_on_c, 3, 59, 0
5, 52029, Note_on_c, 3, 62, 0
5, 52089, Note_on_c, 3, 55, 100
5, 52149, Note_on_c, 3, 55, 0
5, 52209, Control_c, 3, 11, 107
5, 52209, Note_on_c, 3, 60, 100
5, 52222, Control_c, 3, 11, 104
5, 52236, Control_c, 3, 11, 101
5, 52249, Control_c, 3, 11, 98
5, 52263, Control_c, 3, 11, 95
5, 52276, Control_c, 3, 11, 92
5, 52290, Control_c, 3, 11, 89
5, 52389, Note_on_c, 3, 60, 0
5, 52389, Note_on_c, 3, 55, 100
5, 52449, Note_on_c, 3, 55, 0
5, 52449, Note_on_c, 3, 52, 100
5, 52509, Note_on_c, 3, 52, 0
5, 52509, Note_on_c, 3, 48, 100
5, 52569, Note_on_c, 3, 48, 0
5, 52569, Control_c, 3, 11, 107
5, 52569, Note_on_c, 3, 47, 100
5, 52578, Control_c, 3, 11, 104
5, 52587, Control_c, 3, 11, 101
5, 52596, Control_c, 3, 11, 98
5, 52605, Control_c, 3, 11, 95
5, 52614, Control_c, 3, 11, 92
5, 52623, Control_c, 3, 11, 89
5, 52629, Note_on_c, 3, 47, 0
5, 52689, Note_on_c, 3, 62, 100
5, 52689, Note_on_c, 3, 59, 100
5, 52749, Note_on_c, 3, 59, 0
5, 52749, Note_on_c, 3, 62, 0
5, 52929, Control_c, 3, 11, 107
5, 52929, Note_on_c, 3, 64, 100
5, 52929, Note_on_c, 3, 60, 100
5, 52938, Control_c, 3, 11, 104
5, 52947, Control_c, 3, 11, 101
5, 52956, Control_c, 3, 11, 98
5, 52965, Control_c, 3, 11, 95
5, 52974, Control_c, 3, 11, 92
5, 52983, Control_c, 3, 11, 89
5, 52989, Note_on_c, 3, 60, 0
5, 52989, Note_on_c, 3, 64, 0
5, 53049, Note_on_c, 3, 64, 100
5, 53049, Note_on_c, 3, 60, 100
5, 53109, Note_on_c, 3, 60, 0
5, 53109, Note_on_c, 3, 64, 0
5, 53289, Control_c, 3, 11, 107
5, 53289, Note_on_c, 3, 55, 100
5, 53289, Note_on_c, 3, 64, 100
5, 53298, Control_c, 3, 11, 104
5, 53307, Control_c, 3, 11, 101
5, 53316, Control_c, 3, 11, 98
5, 53325, Control_c, 3, 11, 95
5, 53334, Control_c, 3, 11, 92
5, 53343, Control_c, 3, 11, 89
5, 53349, Note_on_c, 3, 64, 0
5, 53349, Note_on_c, 3, 55, 0
5, 53409, Note_on_c, 3, 64, 100
5, 53409, Note_on_c, 3, 55, 100
5, 53469, Note_on_c, 3, 55, 0
5, 53469, Note_on_c, 3, 64, 0
5, 53649, Note_on_c, 3, 53, 100
5, 53649, Control_c, 3, 11, 107
5, 53649, Note_on_c, 3, 57, 100
5, 53658, Control_c, 3, 11, 104
5, 53667, Control_c, 3, 11, 101
5, 53676, Control_c, 3, 11, 98
5, 53685, Control_c, 3, 11, 95
5, 53694, Control_c, 3, 11, 92
5, 53703, Control_c, 3, 11, 89
5, 53709, Note_on_c, 3, 57, 0
5, 53709, Note_on_c, 3, 53, 0
5, 53769, Note_on_c, 3, 53, 100
5, 53769, Note_on_c, 3, 57, 100
5, 53829, Note_on_c, 3, 57, 0
5, 53829, Note_on_c, 3, 53, 0
5, 53889, Note_on_c, 3, 60, 100
5, 53889, Control_c, 3, 11, 77
5, 53949, Note_on_c, 3, 60, 0
5, 54009, Control_c, 3, 11, 77
5, 54009, Note_on_c, 3, 63, 100
5, 54009, Note_on_c, 3, 60, 100
5, 54021, Control_c, 3, 11, 74
5, 54033, Control_c, 3, 11, 71
5, 54045, Control_c, 3, 11, 68
5, 54057, Control_c, 3, 11, 65
5, 54069, Note_on_c, 3, 60, 0
5, 54069, Note_on_c, 3, 63, 0
5, 54069, Control_c, 3, 11, 62
5, 54069, Note_on_c, 3, 53, 100
5, 54069, Note_on_c, 3, 60, 100
5, 54081, Control_c, 3, 11, 59
5, 54093, Control_c, 3, 11, 56
5, 54105, Control_c, 3, 11, 53
5, 54117, Control_c, 3, 11, 50
5, 54129, Note_on_c, 3, 60, 0
5, 54129, Note_on_c, 3, 53, 0
5, 54129, Control_c, 3, 11, 47
5, 54129, Note_on_c, 3, 63, 100
5, 54129, Note_on_c, 3, 60, 100
5, 54189, Note_on_c, 3, 60, 0
5, 54189, Note_on_c, 3, 63, 0
5, 54189, Note_on_c, 3, 53, 100
5, 54189, Note_on_c, 3, 60, 100
5, 54249, Note_on_c, 3, 60, 0
5, 54249, Note_on_c, 3, 53, 0
5, 54249, Note_on_c, 3, 63, 100
5, 54249, Note_on_c, 3, 60, 100
5, 54309, Note_on_c, 3, 60, 0
5, 54309, Note_on_c, 3, 63, 0
5, 54309, Note_on_c, 3, 53, 100
5, 54309, Note_on_c, 3, 60, 100
5, 54369, Note_on_c, 3, 60, 0
5, 54369, Note_on_c, 3, 53, 0
5, 54369, Note_on_c, 3, 63, 100
5, 54369, Note_on_c, 3, 60, 100
5, 54429, Note_on_c, 3, 60, 0
5, 54429, Note_on_c, 3, 63, 0
5, 54429, Note_on_c, 3, 53, 100
5, 54429, Note_on_c, 3, 60, 100
5, 54489, Note_on_c, 3, 60, 0
5, 54489, Note_on_c, 3, 53, 0
5, 54489, Note_on_c, 3, 63, 100
5, 54489, Note_on_c, 3, 60, 100
5, 54549, Note_on_c, 3, 60, 0
5, 54549, Note_on_c, 3, 63, 0
5, 54549, Note_on_c, 3, 53, 100
5, 54549, Note_on_c, 3, 60, 100
5, 54609, Note_on_c, 3, 60, 0
5, 54609, Note_on_c, 3, 53, 0
5, 54609, Control_c, 3, 11, 47
5, 54609, Note_on_c, 3, 63, 100
5, 54609, Note_on_c, 3, 60, 100
5, 54665, Control_c, 3, 11, 46
5, 54669, Note_on_c, 3, 60, 0
5, 54669, Note_on_c, 3, 63, 0
5, 54669, Note_on_c, 3, 53, 100
5, 54669, Note_on_c, 3, 60, 100
5, 54721, Control_c, 3, 11, 45
5, 54729, Note_on_c, 3, 60, 0
5, 54729, Note_on_c, 3, 53, 0
5, 54729, Note_on_c, 3, 63, 100
5, 54729, Note_on_c, 3, 60, 100
5, 54777, Control_c, 3, 11, 44
5, 54789, Note_on_c, 3, 60, 0
5, 54789, Note_on_c, 3, 63, 0
5, 54789, Note_on_c, 3, 53, 100
5, 54789, Note_on_c, 3, 60, 100
5, 54833, Control_c, 3, 11, 43
5, 54849, Note_on_c, 3, 60, 0
5, 54849, Note_on_c, 3, 53, 0
5, 54849, Note_on_c, 3, 63, 100
5, 54849, Note_on_c, 3, 60, 100
5, 54889, Control_c, 3, 11, 42
5, 54909, Note_on_c, 3, 60, 0
5, 54909, Note_on_c, 3, 63, 0
5, 54909, Note_on_c, 3, 53, 100
5, 54909, Note_on_c, 3, 60, 100
5, 54945, Control_c, 3, 11, 41
5, 54969, Note_on_c, 3, 60, 0
5, 54969, Note_on_c, 3, 53, 0
5, 54969, Note_on_c, 3, 63, 100
5, 54969, Note_on_c, 3, 60, 100
5, 55001, Control_c, 3, 11, 40
5, 55029, Note_on_c, 3, 60, 0
5, 55029, Note_on_c, 3, 63, 0
5, 55029, Note_on_c, 3, 53, 100
5, 55029, Note_on_c, 3, 60, 100
5, 55057, Control_c, 3, 11, 39
5, 55089, Note_on_c, 3, 60, 0
5, 55089, Note_on_c, 3, 53, 0
5, 55089, Note_on_c, 3, 63, 100
5, 55089, Note_on_c, 3, 60, 100
5, 55113, Control_c, 3, 11, 38
5, 55149, Note_on_c, 3, 60, 0
5, 55149, Note_on_c, 3, 63, 0
5, 55149, Note_on_c, 3, 53, 100
5, 55149, Note_on_c, 3, 60, 100
5, 55169, Control_c, 3, 11, 37
5, 55209, Note_on_c, 3, 60, 0
5, 55209, Note_on_c, 3, 53, 0
5, 55209, Note_on_c, 3, 63, 100
5, 55209, Note_on_c, 3, 60, 100
5, 55225, Control_c, 3, 11, 36
5, 55269, Note_on_c, 3, 60, 0
5, 55269, Note_on_c, 3, 63, 0
5, 55269, Note_on_c, 3, 53, 100
5, 55269, Note_on_c, 3, 60, 100
5, 55281, Control_c, 3, 11, 35
5, 55329, Note_on_c, 3, 60, 0
5, 55329, Note_on_c, 3, 53, 0
5, 55337, Control_c, 3, 11, 34
5, 55393, Control_c, 3, 11, 33
5, 55449, Control_c, 3, 11, 37
5, 55449, Note_on_c, 3, 60, 72
5, 55449, Note_on_c, 3, 57, 72
5, 55509, Note_on_c, 3, 57, 0
5, 55509, Note_on_c, 3, 60, 0
5, 55689, Note_on_c, 3, 60, 72
5, 55689, Note_on_c, 3, 57, 72
5, 55749, Note_on_c, 3, 57, 0
5, 55749, Note_on_c, 3, 60, 0
5, 55929, Note_on_c, 3, 60, 72
5, 55929, Note_on_c, 3, 57, 72
5, 55989, Note_on_c, 3, 57, 0
5, 55989, Note_on_c, 3, 60, 0
5, 56049, Note_on_c, 3, 46, 100
5, 56049, Note_on_c, 3, 62, 100
5, 56109, Note_on_c, 3, 62, 0
5, 56169, Note_on_c, 3, 46, 0
5, 56169, Note_on_c, 3, 48, 100
5, 56169, Control_c, 3, 11, 52
5, 56169, Note_on_c, 3, 65, 100
5, 56349, Note_on_c, 3, 65, 0
5, 56349, Note_on_c, 3, 63, 100
5, 56409, Note_on_c, 3, 63, 0
5, 56409, Note_on_c, 3, 48, 0
5, 56409, Note_on_c, 3, 51, 100
5, 56409, Note_on_c, 3, 60, 100
5, 56469, Note_on_c, 3, 60, 0
5, 56469, Note_on_c, 3, 57, 100
5, 56529, Note_on_c, 3, 57, 0
5, 56529, Note_on_c, 3, 51, 0
5, 56529, Note_on_c, 3, 50, 100
5, 56529, Note_on_c, 3, 60, 100
5, 56589, Note_on_c, 3, 60, 0
5, 56589, Note_on_c, 3, 58, 100
5, 56649, Note_on_c, 3, 58, 0
5, 56649, Note_on_c, 3, 50, 0
5, 56649, Note_on_c, 3, 46, 100
5, 56649, Note_on_c, 3, 62, 100
5, 56709, Note_on_c, 3, 62, 0
5, 56709, Note_on_c, 3, 58, 100
5, 56769, Note_on_c, 3, 58, 0
5, 56769, Note_on_c, 3, 53, 100
5, 56829, Note_on_c, 3, 53, 0
5, 56829, Note_on_c, 3, 46, 0
5, 56829, Note_on_c, 3, 45, 100
5, 56829, Note_on_c, 3, 54, 100
5, 56889, Note_on_c, 3, 54, 0
5, 56889, Note_on_c, 3, 45, 0
5, 56889, Note_on_c, 3, 43, 100
5, 56889, Note_on_c, 3, 57, 100
5, 56949, Note_on_c, 3, 57, 0
5, 56949, Note_on_c, 3, 55, 100
5, 57009, Note_on_c, 3, 55, 0
5, 57009, Note_on_c, 3, 58, 100
5, 57069, Note_on_c, 3, 58, 0
5, 57069, Note_on_c, 3, 55, 100
5, 57129, Note_on_c, 3, 55, 0
5, 57129, Note_on_c, 3, 43, 0
5, 57129, Note_on_c, 3, 48, 100
5, 57129, Note_on_c, 3, 50, 100
5, 57189, Note_on_c, 3, 50, 0
5, 57189, Note_on_c, 3, 52, 100
5, 57249, Note_on_c, 3, 52, 0
5, 57249, Note_on_c, 3, 48, 0
5, 57249, Note_on_c, 3, 41, 100
5, 57249, Note_on_c, 3, 53, 100
5, 57309, Note_on_c, 3, 53, 0
5, 57309, Note_on_c, 3, 57, 100
5, 57369, Note_on_c, 3, 57, 0
5, 57369, Note_on_c, 3, 41, 0
5, 57369, Note_on_c, 3, 60, 100
5, 57409, Note_on_c, 3, 60, 0
5, 57429, Note_on_c, 3, 60, 100
5, 57459, Note_on_c, 3, 60, 0
5, 57489, Note_on_c, 3, 41, 100
5, 57489, Note_on_c, 3, 60, 100
5, 57519, Note_on_c, 3, 60, 0
5, 57549, Note_on_c, 3, 41, 0
5, 57549, Note_on_c, 3, 36, 100
5, 57549, Note_on_c, 3, 60, 100
5, 57579, Note_on_c, 3, 60, 0
5, 57609, Note_on_c, 3, 36, 0
5, 57609, Control_c, 3, 11, 52
5, 57609, Note_on_c, 3, 43, 100
5, 57609, Note_on_c, 3, 60, 100
5, 57638, Control_c, 3, 11, 53
5, 57667, Control_c, 3, 11, 54
5, 57669, Note_on_c, 3, 60, 0
5, 57669, Note_on_c, 3, 43, 0
5, 57669, Note_on_c, 3, 36, 100
5, 57669, Note_on_c, 3, 59, 100
5, 57696, Control_c, 3, 11, 55
5, 57725, Control_c, 3, 11, 56
5, 57729, Note_on_c, 3, 59, 0
5, 57729, Note_on_c, 3, 36, 0
5, 57729, Note_on_c, 3, 43, 100
5, 57729, Note_on_c, 3, 60, 100
5, 57754, Control_c, 3, 11, 57
5, 57783, Control_c, 3, 11, 58
5, 57789, Note_on_c, 3, 60, 0
5, 57789, Note_on_c, 3, 43, 0
5, 57789, Note_on_c, 3, 36, 100
5, 57789, Note_on_c, 3, 58, 100
5, 57813, Control_c, 3, 11, 59
5, 57842, Control_c, 3, 11, 60
5, 57849, Note_on_c, 3, 58, 0
5, 57849, Note_on_c, 3, 36, 0
5, 57849, Note_on_c, 3, 46, 100
5, 57849, Note_on_c, 3, 55, 100
5, 57871, Control_c, 3, 11, 61
5, 57900, Control_c, 3, 11, 62
5, 57909, Note_on_c, 3, 55, 0
5, 57909, Note_on_c, 3, 46, 0
5, 57909, Note_on_c, 3, 36, 100
5, 57909, Note_on_c, 3, 52, 100
5, 57929, Control_c, 3, 11, 63
5, 57958, Control_c, 3, 11, 64
5, 57964, Note_on_c, 3, 36, 0
5, 57969, Note_on_c, 3, 52, 0
5, 57969, Note_on_c, 3, 45, 100
5, 57969, Note_on_c, 3, 55, 100
5, 57987, Control_c, 3, 11, 65
5, 58017, Control_c, 3, 11, 66
5, 58029, Note_on_c, 3, 55, 0
5, 58029, Note_on_c, 3, 45, 0
5, 58029, Note_on_c, 3, 36, 100
5, 58029, Note_on_c, 3, 53, 100
5, 58046, Control_c, 3, 11, 67
5, 58075, Control_c, 3, 11, 68
5, 58089, Note_on_c, 3, 53, 0
5, 58089, Note_on_c, 3, 36, 0
5, 58089, Note_on_c, 3, 45, 100
5, 58089, Note_on_c, 3, 57, 100
5, 58104, Control_c, 3, 11, 69
5, 58133, Control_c, 3, 11, 70
5, 58149, Note_on_c, 3, 57, 0
5, 58149, Note_on_c, 3, 45, 0
5, 58149, Note_on_c, 3, 36, 100
5, 58149, Note_on_c, 3, 53, 100
5, 58162, Control_c, 3, 11, 71
5, 58191, Control_c, 3, 11, 72
5, 58209, Note_on_c, 3, 53, 0
5, 58209, Note_on_c, 3, 36, 0
5, 58209, Note_on_c, 3, 45, 100
5, 58209, Note_on_c, 3, 60, 100
5, 58221, Control_c, 3, 11, 73
5, 58250, Control_c, 3, 11, 74
5, 58269, Note_on_c, 3, 60, 0
5, 58269, Note_on_c, 3, 45, 0
5, 58269, Note_on_c, 3, 36, 100
5, 58269, Note_on_c, 3, 61, 100
5, 58279, Control_c, 3, 11, 75
5, 58308, Control_c, 3, 11, 76
5, 58324, Note_on_c, 3, 36, 0
5, 58329, Note_on_c, 3, 61, 0
5, 58329, Note_on_c, 3, 46, 100
5, 58329, Note_on_c, 3, 64, 100
5, 58337, Control_c, 3, 11, 77
5, 58366, Control_c, 3, 11, 78
5, 58389, Note_on_c, 3, 64, 0
5, 58389, Note_on_c, 3, 46, 0
5, 58389, Note_on_c, 3, 36, 100
5, 58389, Note_on_c, 3, 62, 100
5, 58395, Control_c, 3, 11, 79
5, 58425, Control_c, 3, 11, 80
5, 58449, Note_on_c, 3, 62, 0
5, 58449, Note_on_c, 3, 36, 0
5, 58449, Note_on_c, 3, 46, 100
5, 58449, Note_on_c, 3, 55, 100
5, 58454, Control_c, 3, 11, 81
5, 58483, Control_c, 3, 11, 82
5, 58509, Note_on_c, 3, 55, 0
5, 58509, Note_on_c, 3, 46, 0
5, 58509, Note_on_c, 3, 45, 100
5, 58509, Note_on_c, 3, 57, 100
5, 58512, Control_c, 3, 11, 83
5, 58541, Control_c, 3, 11, 84
5, 58569, Note_on_c, 3, 57, 0
5, 58569, Note_on_c, 3, 45, 0
5, 58569, Note_on_c, 3, 43, 100
5, 58569, Note_on_c, 3, 58, 100
5, 58570, Control_c, 3, 11, 85
5, 58599, Control_c, 3, 11, 86
5, 58624, Note_on_c, 3, 58, 0
5, 58624, Note_on_c, 3, 43, 0
5, 58629, Control_c, 3, 11, 87
5, 58629, Note_on_c, 3, 41, 100
5, 58629, Note_on_c, 3, 59, 100
5, 58684, Note_on_c, 3, 59, 0
5, 58684, Note_on_c, 3, 41, 0
5, 58689, Control_c, 3, 11, 97
5, 58689, Note_on_c, 3, 59, 100
5, 58689, Note_on_c, 3, 41, 100
5, 58749, Note_on_c, 3, 41, 0
5, 58749, Note_on_c, 3, 36, 100
5, 58809, Note_on_c, 3, 36, 0
5, 58809, Note_on_c, 3, 59, 0
5, 58809, Note_on_c, 3, 60, 100
5, 58809, Note_on_c, 3, 40, 100
5, 58869, Note_on_c, 3, 40, 0
5, 58869, Note_on_c, 3, 60, 0
5, 58869, Note_on_c, 3, 62, 100
5, 58869, Note_on_c, 3, 38, 100
5, 58929, Note_on_c, 3, 38, 0
5, 58929, Note_on_c, 3, 62, 0
5, 58929, Note_on_c, 3, 63, 100
5, 58929, Note_on_c, 3, 36, 100
5, 58984, Note_on_c, 3, 36, 0
5, 58984, Note_on_c, 3, 63, 0
5, 58989, Note_on_c, 3, 64, 100
5, 58989, Note_on_c, 3, 46, 100
5, 59044, Note_on_c, 3, 46, 0
5, 59044, Note_on_c, 3, 64, 0
5, 59049, Note_on_c, 3, 46, 100
5, 59049, Note_on_c, 3, 64, 100
5, 59109, Note_on_c, 3, 46, 0
5, 59109, Note_on_c, 3, 41, 100
5, 59169, Note_on_c, 3, 41, 0
5, 59169, Note_on_c, 3, 64, 0
5, 59169, Note_on_c, 3, 45, 100
5, 59169, Note_on_c, 3, 65, 100
5, 59229, Note_on_c, 3, 65, 0
5, 59229, Note_on_c, 3, 45, 0
5, 59229, Note_on_c, 3, 55, 100
5, 59229, Note_on_c, 3, 58, 100
5, 59289, Note_on_c, 3, 58, 0
5, 59289, Note_on_c, 3, 55, 0
5, 59289, Note_on_c, 3, 53, 100
5, 59289, Note_on_c, 3, 60, 100
5, 59344, Note_on_c, 3, 60, 0
5, 59344, Note_on_c, 3, 53, 0
5, 59349, Control_c, 3, 11, 102
5, 59349, Note_on_c, 3, 63, 100
5, 59404, Note_on_c, 3, 63, 0
5, 59409, Note_on_c, 3, 63, 100
5, 59529, Note_on_c, 3, 63, 0
5, 59529, Note_on_c, 3, 62, 100
5, 59589, Note_on_c, 3, 62, 0
5, 59709, Control_c, 3, 11, 42
5, 59709, Note_on_c, 3, 61, 100
5, 59709, Note_on_c, 3, 57, 100
5, 59764, Note_on_c, 3, 57, 0
5, 59764, Note_on_c, 3, 61, 0
5, 59769, Note_on_c, 3, 61, 100
5, 59769, Note_on_c, 3, 57, 100
5, 59889, Note_on_c, 3, 57, 0
5, 59889, Note_on_c, 3, 61, 0
5, 59889, Note_on_c, 3, 62, 100
5, 59889, Note_on_c, 3, 58, 100
5, 59949, Note_on_c, 3, 58, 0
5, 59949, Note_on_c, 3, 62, 0
5, 60969, Control_c, 3, 11, 87
5, 60969, Note_on_c, 3, 60, 100
5, 61029, Note_on_c, 3, 60, 0
5, 61089, Control_c, 3, 11, 107
5, 61089, Note_on_c, 3, 65, 110
5, 61098, Control_c, 3, 11, 104
5, 61107, Control_c, 3, 11, 101
5, 61116, Control_c, 3, 11, 98
5, 61125, Control_c, 3, 11, 95
5, 61134, Control_c, 3, 11, 92
5, 61143, Control_c, 3, 11, 89
5, 61269, Note_on_c, 3, 65, 0
5, 61689, Note_on_c, 3, 60, 100
5, 61749, Note_on_c, 3, 60, 0
5, 61809, Control_c, 3, 11, 107
5, 61809, Note_on_c, 3, 60, 100
5, 61818, Control_c, 3, 11, 104
5, 61827, Control_c, 3, 11, 101
5, 61836, Control_c, 3, 11, 98
5, 61845, Control_c, 3, 11, 95
5, 61854, Control_c, 3, 11, 92
5, 61863, Control_c, 3, 11, 89
5, 61929, Note_on_c, 3, 60, 0
5, 61929, Note_on_c, 3, 53, 100
5, 61929, Note_on_c, 3, 65, 100
5, 61989, Note_on_c, 3, 65, 0
5, 61989, Note_on_c, 3, 53, 0
5, 62289, Control_c, 3, 11, 107
5, 62289, Note_on_c, 3, 60, 100
5, 62298, Control_c, 3, 11, 104
5, 62307, Control_c, 3, 11, 101
5, 62316, Control_c, 3, 11, 98
5, 62325, Control_c, 3, 11, 95
5, 62334, Control_c, 3, 11, 92
5, 62343, Control_c, 3, 11, 89
5, 62409, Note_on_c, 3, 60, 0
5, 62409, Note_on_c, 3, 65, 100
5, 62409, Note_on_c, 3, 53, 100
5, 62469, Note_on_c, 3, 53, 0
5, 62469, Note_on_c, 3, 65, 0
5, 62649, Control_c, 3, 11, 127
5, 62649, Note_on_c, 3, 64, 127
5, 62658, Control_c, 3, 11, 124
5, 62667, Control_c, 3, 11, 121
5, 62676, Control_c, 3, 11, 118
5, 62685, Control_c, 3, 11, 115
5, 62694, Control_c, 3, 11, 112
5, 62703, Control_c, 3, 11, 109
5, 62769, Note_on_c, 3, 64, 0
5, 63009, Note_on_c, 3, 48, 100
5, 63009, Note_on_c, 3, 60, 100
5, 63129, Note_on_c, 3, 60, 0
5, 63129, Note_on_c, 3, 48, 0
5, 63129, Note_on_c, 3, 41, 100
5, 63129, Note_on_c, 3, 53, 100
5, 63189, Note_on_c, 3, 53, 0
5, 63189, Note_on_c, 3, 41, 0
5, 63729, Control_c, 3, 121, 0
5, 63729, End_track
6, 0, Start_track
6, 0, MIDI_port, 0
6, 0, Title_t, "Corno I in F"
6, 0, Program_c, 4, 60
6, 0, Control_c, 4, 10, 24
6, 3, Control_c, 4, 121, 0
6, 8, Program_c, 4, 60
6, 13, Pitch_bend_c, 4, 8292
6, 18, Control_c, 4, 11, 87
6, 23, Control_c, 4, 7, 127
6, 28, Control_c, 4, 91, 80
6, 33, Control_c, 4, 93, 0
6, 1323, Control_c, 4, 11, 42
6, 1323, Note_on_c, 4, 60, 100
6, 1383, Note_on_c, 4, 60, 0
6, 1443, Note_on_c, 4, 60, 100
6, 2033, Note_on_c, 4, 60, 0
6, 2043, Control_c, 4, 11, 42
6, 2043, Note_on_c, 4, 60, 100
6, 2059, Control_c, 4, 11, 43
6, 2075, Control_c, 4, 11, 44
6, 2091, Control_c, 4, 11, 45
6, 2107, Control_c, 4, 11, 46
6, 2123, Control_c, 4, 11, 47
6, 2139, Control_c, 4, 11, 48
6, 2155, Control_c, 4, 11, 49
6, 2171, Control_c, 4, 11, 50
6, 2187, Control_c, 4, 11, 51
6, 2203, Control_c, 4, 11, 52
6, 2219, Control_c, 4, 11, 53
6, 2235, Control_c, 4, 11, 54
6, 2251, Control_c, 4, 11, 55
6, 2267, Control_c, 4, 11, 56
6, 2283, Control_c, 4, 11, 57
6, 2299, Control_c, 4, 11, 58
6, 2315, Control_c, 4, 11, 59
6, 2331, Control_c, 4, 11, 60
6, 2347, Control_c, 4, 11, 61
6, 2363, Control_c, 4, 11, 62
6, 2379, Control_c, 4, 11, 63
6, 2395, Control_c, 4, 11, 64
6, 2411, Control_c, 4, 11, 65
6, 2427, Control_c, 4, 11, 66
6, 2443, Control_c, 4, 11, 67
6, 2459, Control_c, 4, 11, 68
6, 2475, Control_c, 4, 11, 69
6, 2491, Control_c, 4, 11, 70
6, 2507, Control_c, 4, 11, 71
6, 2523, Control_c, 4, 11, 72
6, 2539, Control_c, 4, 11, 73
6, 2555, Control_c, 4, 11, 74
6, 2571, Control_c, 4, 11, 75
6, 2587, Control_c, 4, 11, 76
6, 2603, Control_c, 4, 11, 77
6, 2619, Control_c, 4, 11, 78
6, 2635, Control_c, 4, 11, 79
6, 2651, Control_c, 4, 11, 80
6, 2667, Control_c, 4, 11, 81
6, 2683, Control_c, 4, 11, 82
6, 2699, Control_c, 4, 11, 83
6, 2715, Control_c, 4, 11, 84
6, 2731, Control_c, 4, 11, 85
6, 2747, Control_c, 4, 11, 86
6, 2753, Note_on_c, 4, 60, 0
6, 2763, Control_c, 4, 11, 87
6, 2763, Note_on_c, 4, 60, 100
6, 2823, Note_on_c, 4, 60, 0
6, 2883, Control_c, 4, 11, 107
6, 2883, Note_on_c, 4, 60, 100
6, 2892, Control_c, 4, 11, 104
6, 2901, Control_c, 4, 11, 101
6, 2910, Control_c, 4, 11, 98
6, 2919, Control_c, 4, 11, 95
6, 2928, Control_c, 4, 11, 92
6, 2937, Control_c, 4, 11, 89
6, 3113, Note_on_c, 4, 60, 0
6, 3123, Note_on_c, 4, 60, 100
6, 3183, Note_on_c, 4, 60, 0
6, 3243, Control_c, 4, 11, 107
6, 3243, Note_on_c, 4, 65, 115
6, 3252, Control_c, 4, 11, 104
6, 3261, Control_c, 4, 11, 101
6, 3270, Control_c, 4, 11, 98
6, 3279, Control_c, 4, 11, 95
6, 3288, Control_c, 4, 11, 92
6, 3297, Control_c, 4, 11, 89
6, 3483, Note_on_c, 4, 65, 0
6, 4923, Control_c, 4, 11, 42
6, 4923, Note_on_c, 4, 60, 100
6, 4983, Note_on_c, 4, 60, 0
6, 5043, Note_on_c, 4, 60, 100
6, 5633, Note_on_c, 4, 60, 0
6, 5643, Control_c, 4, 11, 42
6, 5643, Note_on_c, 4, 60, 100
6, 5659, Control_c, 4, 11, 43
6, 5675, Control_c, 4, 11, 44
6, 5691, Control_c, 4, 11, 45
6, 5707, Control_c, 4, 11, 46
6, 5723, Control_c, 4, 11, 47
6, 5739, Control_c, 4, 11, 48
6, 5755, Control_c, 4, 11, 49
6, 5771, Control_c, 4, 11, 50
6, 5787, Control_c, 4, 11, 51
6, 5803, Control_c, 4, 11, 52
6, 5819, Control_c, 4, 11, 53
6, 5835, Control_c, 4, 11, 54
6, 5851, Control_c, 4, 11, 55
6, 5867, Control_c, 4, 11, 56
6, 5883, Control_c, 4, 11, 57
6, 5899, Control_c, 4, 11, 58
6, 5915, Control_c, 4, 11, 59
6, 5931, Control_c, 4, 11, 60
6, 5947, Control_c, 4, 11, 61
6, 5963, Control_c, 4, 11, 62
6, 5979, Control_c, 4, 11, 63
6, 5995, Control_c, 4, 11, 64
6, 6011, Control_c, 4, 11, 65
6, 6027, Control_c, 4, 11, 66
6, 6043, Control_c, 4, 11, 67
6, 6059, Control_c, 4, 11, 68
6, 6075, Control_c, 4, 11, 69
6, 6091, Control_c, 4, 11, 70
6, 6107, Control_c, 4, 11, 71
6, 6123, Control_c, 4, 11, 72
6, 6139, Control_c, 4, 11, 73
6, 6155, Control_c, 4, 11, 74
6, 6171, Control_c, 4, 11, 75
6, 6187, Control_c, 4, 11, 76
6, 6203, Control_c, 4, 11, 77
6, 6219, Control_c, 4, 11, 78
6, 6235, Control_c, 4, 11, 79
6, 6251, Control_c, 4, 11, 80
6, 6267, Control_c, 4, 11, 81
6, 6283, Control_c, 4, 11, 82
6, 6299, Control_c, 4, 11, 83
6, 6315, Control_c, 4, 11, 84
6, 6331, Control_c, 4, 11, 85
6, 6347, Control_c, 4, 11, 86
6, 6353, Note_on_c, 4, 60, 0
6, 6363, Control_c, 4, 11, 87
6, 6363, Note_on_c, 4, 60, 100
6, 6423, Note_on_c, 4, 60, 0
6, 6483, Control_c, 4, 11, 107
6, 6483, Note_on_c, 4, 60, 100
6, 6492, Control_c, 4, 11, 104
6, 6501, Control_c, 4, 11, 101
6, 6510, Control_c, 4, 11, 98
6, 6519, Control_c, 4, 11, 95
6, 6528, Control_c, 4, 11, 92
6, 6537, Control_c, 4, 11, 89
6, 6713, Note_on_c, 4, 60, 0
6, 6723, Note_on_c, 4, 60, 100
6, 6783, Note_on_c, 4, 60, 0
6, 6843, Control_c, 4, 11, 107
6, 6843, Note_on_c, 4, 65, 115
6, 6852, Control_c, 4, 11, 104
6, 6861, Control_c, 4, 11, 101
6, 6870, Control_c, 4, 11, 98
6, 6879, Control_c, 4, 11, 95
6, 6888, Control_c, 4, 11, 92
6, 6897, Control_c, 4, 11, 89
6, 7083, Note_on_c, 4, 65, 0
6, 8043, Control_c, 4, 11, 107
6, 8043, Note_on_c, 4, 67, 100
6, 8052, Control_c, 4, 11, 104
6, 8061, Control_c, 4, 11, 101
6, 8070, Control_c, 4, 11, 98
6, 8079, Control_c, 4, 11, 95
6, 8088, Control_c, 4, 11, 92
6, 8097, Control_c, 4, 11, 89
6, 8103, Note_on_c, 4, 67, 0
6, 8403, Control_c, 4, 11, 107
6, 8403, Note_on_c, 4, 67, 100
6, 8412, Control_c, 4, 11, 104
6, 8421, Control_c, 4, 11, 101
6, 8430, Control_c, 4, 11, 98
6, 8439, Control_c, 4, 11, 95
6, 8448, Control_c, 4, 11, 92
6, 8457, Control_c, 4, 11, 89
6, 8463, Note_on_c, 4, 67, 0
6, 8763, Control_c, 4, 11, 107
6, 8763, Note_on_c, 4, 67, 100
6, 8772, Control_c, 4, 11, 104
6, 8781, Control_c, 4, 11, 101
6, 8790, Control_c, 4, 11, 98
6, 8799, Control_c, 4, 11, 95
6, 8808, Control_c, 4, 11, 92
6, 8817, Control_c, 4, 11, 89
6, 8823, Note_on_c, 4, 67, 0
6, 9123, Control_c, 4, 11, 107
6, 9123, Note_on_c, 4, 67, 100
6, 9132, Control_c, 4, 11, 104
6, 9141, Control_c, 4, 11, 101
6, 9150, Control_c, 4, 11, 98
6, 9159, Control_c, 4, 11, 95
6, 9168, Control_c, 4, 11, 92
6, 9177, Control_c, 4, 11, 89
6, 9183, Note_on_c, 4, 67, 0
6, 9243, Note_on_c, 4, 67, 100
6, 9303, Note_on_c, 4, 67, 0
6, 9363, Control_c, 4, 11, 107
6, 9363, Note_on_c, 4, 67, 100
6, 9372, Control_c, 4, 11, 104
6, 9381, Control_c, 4, 11, 101
6, 9390, Control_c, 4, 11, 98
6, 9399, Control_c, 4, 11, 95
6, 9408, Control_c, 4, 11, 92
6, 9417, Control_c, 4, 11, 89
6, 9423, Note_on_c, 4, 67, 0
6, 9483, Note_on_c, 4, 67, 100
6, 9543, Note_on_c, 4, 67, 0
6, 9723, Control_c, 4, 11, 107
6, 9723, Note_on_c, 4, 67, 100
6, 9732, Control_c, 4, 11, 104
6, 9741, Control_c, 4, 11, 101
6, 9750, Control_c, 4, 11, 98
6, 9759, Control_c, 4, 11, 95
6, 9768, Control_c, 4, 11, 92
6, 9777, Control_c, 4, 11, 89
6, 9783, Note_on_c, 4, 67, 0
6, 9843, Note_on_c, 4, 67, 100
6, 9903, Note_on_c, 4, 67, 0
6, 10083, Control_c, 4, 11, 107
6, 10083, Note_on_c, 4, 67, 100
6, 10092, Control_c, 4, 11, 104
6, 10101, Control_c, 4, 11, 101
6, 10110, Control_c, 4, 11, 98
6, 10119, Control_c, 4, 11, 95
6, 10128, Control_c, 4, 11, 92
6, 10137, Control_c, 4, 11, 89
6, 10143, Note_on_c, 4, 67, 0
6, 10203, Note_on_c, 4, 67, 100
6, 10263, Note_on_c, 4, 67, 0
6, 10443, Control_c, 4, 11, 107
6, 10443, Note_on_c, 4, 69, 100
6, 10452, Control_c, 4, 11, 104
6, 10461, Control_c, 4, 11, 101
6, 10470, Control_c, 4, 11, 98
6, 10479, Control_c, 4, 11, 95
6, 10488, Control_c, 4, 11, 92
6, 10497, Control_c, 4, 11, 89
6, 10503, Note_on_c, 4, 69, 0
6, 10563, Note_on_c, 4, 69, 100
6, 10623, Note_on_c, 4, 69, 0
6, 10683, Control_c, 4, 11, 77
6, 10683, Note_on_c, 4, 60, 100
6, 10743, Note_on_c, 4, 60, 0
6, 10803, Control_c, 4, 11, 87
6, 10803, Note_on_c, 4, 65, 100
6, 10812, Control_c, 4, 11, 84
6, 10821, Control_c, 4, 11, 81
6, 10830, Control_c, 4, 11, 78
6, 10839, Control_c, 4, 11, 75
6, 10848, Control_c, 4, 11, 72
6, 10857, Control_c, 4, 11, 69
6, 10866, Control_c, 4, 11, 66
6, 10875, Control_c, 4, 11, 63
6, 10884, Control_c, 4, 11, 60
6, 10893, Control_c, 4, 11, 57
6, 10902, Control_c, 4, 11, 54
6, 10911, Control_c, 4, 11, 51
6, 10920, Control_c, 4, 11, 48
6, 11403, Note_on_c, 4, 65, 0
6, 11403, Control_c, 4, 11, 47
6, 11403, Note_on_c, 4, 65, 100
6, 11459, Control_c, 4, 11, 46
6, 11515, Control_c, 4, 11, 45
6, 11571, Control_c, 4, 11, 44
6, 11627, Control_c, 4, 11, 43
6, 11683, Control_c, 4, 11, 42
6, 11739, Control_c, 4, 11, 41
6, 11763, Note_on_c, 4, 65, 0
6, 11763, Note_on_c, 4, 65, 100
6, 11795, Control_c, 4, 11, 40
6, 11851, Control_c, 4, 11, 39
6, 11907, Control_c, 4, 11, 38
6, 11963, Control_c, 4, 11, 37
6, 12019, Control_c, 4, 11, 36
6, 12075, Control_c, 4, 11, 35
6, 12123, Note_on_c, 4, 65, 0
6, 12131, Control_c, 4, 11, 34
6, 12187, Control_c, 4, 11, 33
6, 12243, Control_c, 4, 11, 37
6, 12243, Note_on_c, 4, 65, 72
6, 12303, Note_on_c, 4, 65, 0
6, 12483, Note_on_c, 4, 65, 72
6, 12543, Note_on_c, 4, 65, 0
6, 12723, Note_on_c, 4, 65, 72
6, 12783, Note_on_c, 4, 65, 0
6, 14283, Control_c, 4, 11, 37
6, 14283, Note_on_c, 4, 69, 100
6, 14305, Control_c, 4, 11, 38
6, 14328, Control_c, 4, 11, 39
6, 14343, Note_on_c, 4, 69, 0
6, 14351, Control_c, 4, 11, 40
6, 14374, Control_c, 4, 11, 41
6, 14397, Control_c, 4, 11, 42
6, 14403, Note_on_c, 4, 60, 100
6, 14419, Control_c, 4, 11, 43
6, 14442, Control_c, 4, 11, 44
6, 14458, Note_on_c, 4, 60, 0
6, 14463, Note_on_c, 4, 60, 100
6, 14465, Control_c, 4, 11, 45
6, 14488, Control_c, 4, 11, 46
6, 14511, Control_c, 4, 11, 47
6, 14533, Control_c, 4, 11, 48
6, 14556, Control_c, 4, 11, 49
6, 14578, Note_on_c, 4, 60, 0
6, 14579, Control_c, 4, 11, 50
6, 14583, Note_on_c, 4, 60, 100
6, 14602, Control_c, 4, 11, 51
6, 14625, Control_c, 4, 11, 52
6, 14647, Control_c, 4, 11, 53
6, 14670, Control_c, 4, 11, 54
6, 14693, Control_c, 4, 11, 55
6, 14698, Note_on_c, 4, 60, 0
6, 14703, Note_on_c, 4, 60, 100
6, 14716, Control_c, 4, 11, 56
6, 14739, Control_c, 4, 11, 57
6, 14761, Control_c, 4, 11, 58
6, 14784, Control_c, 4, 11, 59
6, 14807, Control_c, 4, 11, 60
6, 14818, Note_on_c, 4, 60, 0
6, 14823, Note_on_c, 4, 60, 100
6, 14830, Control_c, 4, 11, 61
6, 14853, Control_c, 4, 11, 62
6, 14875, Control_c, 4, 11, 63
6, 14898, Control_c, 4, 11, 64
6, 14921, Control_c, 4, 11, 65
6, 14938, Note_on_c, 4, 60, 0
6, 14943, Note_on_c, 4, 60, 100
6, 14944, Control_c, 4, 11, 66
6, 14967, Control_c, 4, 11, 67
6, 14989, Control_c, 4, 11, 68
6, 15012, Control_c, 4, 11, 69
6, 15035, Control_c, 4, 11, 70
6, 15058, Note_on_c, 4, 60, 0
6, 15058, Control_c, 4, 11, 71
6, 15063, Note_on_c, 4, 60, 100
6, 15081, Control_c, 4, 11, 72
6, 15103, Control_c, 4, 11, 73
6, 15126, Control_c, 4, 11, 74
6, 15149, Control_c, 4, 11, 75
6, 15172, Control_c, 4, 11, 76
6, 15178, Note_on_c, 4, 60, 0
6, 15183, Note_on_c, 4, 60, 100
6, 15195, Control_c, 4, 11, 77
6, 15217, Control_c, 4, 11, 78
6, 15240, Control_c, 4, 11, 79
6, 15263, Control_c, 4, 11, 80
6, 15286, Control_c, 4, 11, 81
6, 15298, Note_on_c, 4, 60, 0
6, 15303, Note_on_c, 4, 60, 100
6, 15309, Control_c, 4, 11, 82
6, 15331, Control_c, 4, 11, 83
6, 15354, Control_c, 4, 11, 84
6, 15377, Control_c, 4, 11, 85
6, 15400, Control_c, 4, 11, 86
6, 15418, Note_on_c, 4, 60, 0
6, 15423, Control_c, 4, 11, 87
6, 15423, Note_on_c, 4, 60, 100
6, 15538, Note_on_c, 4, 60, 0
6, 15543, Note_on_c, 4, 60, 100
6, 15658, Note_on_c, 4, 60, 0
6, 15663, Note_on_c, 4, 60, 100
6, 15778, Note_on_c, 4, 60, 0
6, 15783, Note_on_c, 4, 60, 100
6, 15898, Note_on_c, 4, 60, 0
6, 15903, Note_on_c, 4, 60, 100
6, 15958, Note_on_c, 4, 60, 0
6, 15963, Note_on_c, 4, 65, 100
6, 16018, Note_on_c, 4, 65, 0
6, 16023, Note_on_c, 4, 65, 100
6, 16138, Note_on_c, 4, 65, 0
6, 16143, Note_on_c, 4, 65, 100
6, 16258, Note_on_c, 4, 65, 0
6, 16263, Note_on_c, 4, 65, 100
6, 16378, Note_on_c, 4, 65, 0
6, 17163, Control_c, 4, 11, 102
6, 17163, Note_on_c, 4, 60, 100
6, 17223, Note_on_c, 4, 60, 0
6, 17283, Control_c, 4, 11, 122
6, 17283, Note_on_c, 4, 65, 100
6, 17296, Control_c, 4, 11, 119
6, 17310, Control_c, 4, 11, 116
6, 17323, Control_c, 4, 11, 113
6, 17337, Control_c, 4, 11, 110
6, 17350, Control_c, 4, 11, 107
6, 17364, Control_c, 4, 11, 104
6, 17463, Note_on_c, 4, 65, 0
6, 17463, Note_on_c, 4, 60, 100
6, 17508, Note_on_c, 4, 60, 0
6, 17523, Note_on_c, 4, 57, 100
6, 17568, Note_on_c, 4, 57, 0
6, 17583, Note_on_c, 4, 53, 100
6, 17628, Note_on_c, 4, 53, 0
6, 17643, Note_on_c, 4, 60, 100
6, 17763, Note_on_c, 4, 60, 0
6, 17883, Note_on_c, 4, 60, 100
6, 17943, Note_on_c, 4, 60, 0
6, 18003, Control_c, 4, 11, 122
6, 18003, Note_on_c, 4, 65, 100
6, 18016, Control_c, 4, 11, 119
6, 18030, Control_c, 4, 11, 116
6, 18043, Control_c, 4, 11, 113
6, 18057, Control_c, 4, 11, 110
6, 18070, Control_c, 4, 11, 107
6, 18084, Control_c, 4, 11, 104
6, 18183, Note_on_c, 4, 65, 0
6, 18183, Note_on_c, 4, 60, 100
6, 18228, Note_on_c, 4, 60, 0
6, 18243, Note_on_c, 4, 57, 100
6, 18288, Note_on_c, 4, 57, 0
6, 18303, Note_on_c, 4, 53, 100
6, 18348, Note_on_c, 4, 53, 0
6, 18363, Note_on_c, 4, 60, 100
6, 18423, Note_on_c, 4, 60, 0
6, 18603, Control_c, 4, 11, 112
6, 18603, Note_on_c, 4, 67, 100
6, 18621, Control_c, 4, 11, 109
6, 18639, Control_c, 4, 11, 106
6, 18657, Control_c, 4, 11, 103
6, 18675, Control_c, 4, 11, 100
6, 18693, Control_c, 4, 11, 97
6, 18711, Control_c, 4, 11, 94
6, 18723, Note_on_c, 4, 67, 0
6, 18723, Note_on_c, 4, 69, 100
6, 18783, Note_on_c, 4, 69, 0
6, 19083, Control_c, 4, 11, 112
6, 19083, Note_on_c, 4, 67, 100
6, 19101, Control_c, 4, 11, 109
6, 19119, Control_c, 4, 11, 106
6, 19137, Control_c, 4, 11, 103
6, 19155, Control_c, 4, 11, 100
6, 19173, Control_c, 4, 11, 97
6, 19191, Control_c, 4, 11, 94
6, 19203, Note_on_c, 4, 67, 0
6, 19203, Note_on_c, 4, 69, 100
6, 19263, Note_on_c, 4, 69, 0
6, 19803, Control_c, 4, 11, 87
6, 19803, Note_on_c, 4, 60, 100
6, 19923, Note_on_c, 4, 60, 0
6, 19923, Note_on_c, 4, 65, 100
6, 19983, Note_on_c, 4, 65, 0
6, 20283, Control_c, 4, 11, 107
6, 20283, Note_on_c, 4, 67, 100
6, 20292, Control_c, 4, 11, 104
6, 20301, Control_c, 4, 11, 101
6, 20310, Control_c, 4, 11, 98
6, 20319, Control_c, 4, 11, 95
6, 20328, Control_c, 4, 11, 92
6, 20337, Control_c, 4, 11, 89
6, 20343, Note_on_c, 4, 67, 0
6, 20643, Control_c, 4, 11, 107
6, 20643, Note_on_c, 4, 67, 100
6, 20652, Control_c, 4, 11, 104
6, 20661, Control_c, 4, 11, 101
6, 20670, Control_c, 4, 11, 98
6, 20679, Control_c, 4, 11, 95
6, 20688, Control_c, 4, 11, 92
6, 20697, Control_c, 4, 11, 89
6, 20703, Note_on_c, 4, 67, 0
6, 21003, Control_c, 4, 11, 107
6, 21003, Note_on_c, 4, 67, 100
6, 21012, Control_c, 4, 11, 104
6, 21021, Control_c, 4, 11, 101
6, 21030, Control_c, 4, 11, 98
6, 21039, Control_c, 4, 11, 95
6, 21048, Control_c, 4, 11, 92
6, 21057, Control_c, 4, 11, 89
6, 21063, Note_on_c, 4, 67, 0
6, 21363, Control_c, 4, 11, 107
6, 21363, Note_on_c, 4, 67, 100
6, 21372, Control_c, 4, 11, 104
6, 21381, Control_c, 4, 11, 101
6, 21390, Control_c, 4, 11, 98
6, 21399, Control_c, 4, 11, 95
6, 21408, Control_c, 4, 11, 92
6, 21417, Control_c, 4, 11, 89
6, 21423, Note_on_c, 4, 67, 0
6, 21483, Note_on_c, 4, 67, 100
6, 21543, Note_on_c, 4, 67, 0
6, 21603, Control_c, 4, 11, 107
6, 21603, Note_on_c, 4, 67, 100
6, 21612, Control_c, 4, 11, 104
6, 21621, Control_c, 4, 11, 101
6, 21630, Control_c, 4, 11, 98
6, 21639, Control_c, 4, 11, 95
6, 21648, Control_c, 4, 11, 92
6, 21657, Control_c, 4, 11, 89
6, 21663, Note_on_c, 4, 67, 0
6, 21723, Note_on_c, 4, 67, 100
6, 21783, Note_on_c, 4, 67, 0
6, 21963, Control_c, 4, 11, 107
6, 21963, Note_on_c, 4, 67, 100
6, 21972, Control_c, 4, 11, 104
6, 21981, Control_c, 4, 11, 101
6, 21990, Control_c, 4, 11, 98
6, 21999, Control_c, 4, 11, 95
6, 22008, Control_c, 4, 11, 92
6, 22017, Control_c, 4, 11, 89
6, 22023, Note_on_c, 4, 67, 0
6, 22083, Note_on_c, 4, 67, 100
6, 22143, Note_on_c, 4, 67, 0
6, 22323, Control_c, 4, 11, 107
6, 22323, Note_on_c, 4, 67, 100
6, 22332, Control_c, 4, 11, 104
6, 22341, Control_c, 4, 11, 101
6, 22350, Control_c, 4, 11, 98
6, 22359, Control_c, 4, 11, 95
6, 22368, Control_c, 4, 11, 92
6, 22377, Control_c, 4, 11, 89
6, 22383, Note_on_c, 4, 67, 0
6, 22443, Note_on_c, 4, 67, 100
6, 22503, Note_on_c, 4, 67, 0
6, 22683, Control_c, 4, 11, 107
6, 22683, Note_on_c, 4, 69, 100
6, 22692, Control_c, 4, 11, 104
6, 22701, Control_c, 4, 11, 101
6, 22710, Control_c, 4, 11, 98
6, 22719, Control_c, 4, 11, 95
6, 22728, Control_c, 4, 11, 92
6, 22737, Control_c, 4, 11, 89
6, 22743, Note_on_c, 4, 69, 0
6, 22803, Note_on_c, 4, 69, 100
6, 22863, Note_on_c, 4, 69, 0
6, 22923, Control_c, 4, 11, 77
6, 22923, Note_on_c, 4, 60, 100
6, 22983, Note_on_c, 4, 60, 0
6, 23043, Control_c, 4, 11, 87
6, 23043, Note_on_c, 4, 65, 100
6, 23052, Control_c, 4, 11, 84
6, 23061, Control_c, 4, 11, 81
6, 23070, Control_c, 4, 11, 78
6, 23079, Control_c, 4, 11, 75
6, 23088, Control_c, 4, 11, 72
6, 23097, Control_c, 4, 11, 69
6, 23106, Control_c, 4, 11, 66
6, 23115, Control_c, 4, 11, 63
6, 23124, Control_c, 4, 11, 60
6, 23133, Control_c, 4, 11, 57
6, 23142, Control_c, 4, 11, 54
6, 23151, Control_c, 4, 11, 51
6, 23160, Control_c, 4, 11, 48
6, 23643, Note_on_c, 4, 65, 0
6, 23643, Control_c, 4, 11, 47
6, 23643, Note_on_c, 4, 65, 100
6, 23699, Control_c, 4, 11, 46
6, 23755, Control_c, 4, 11, 45
6, 23811, Control_c, 4, 11, 44
6, 23867, Control_c, 4, 11, 43
6, 23923, Control_c, 4, 11, 42
6, 23979, Control_c, 4, 11, 41
6, 24003, Note_on_c, 4, 65, 0
6, 24003, Note_on_c, 4, 65, 100
6, 24035, Control_c, 4, 11, 40
6, 24091, Control_c, 4, 11, 39
6, 24147, Control_c, 4, 11, 38
6, 24203, Control_c, 4, 11, 37
6, 24259, Control_c, 4, 11, 36
6, 24315, Control_c, 4, 11, 35
6, 24363, Note_on_c, 4, 65, 0
6, 24371, Control_c, 4, 11, 34
6, 24427, Control_c, 4, 11, 33
6, 24483, Control_c, 4, 11, 37
6, 24483, Note_on_c, 4, 65, 72
6, 24543, Note_on_c, 4, 65, 0
6, 24723, Note_on_c, 4, 65, 72
6, 24783, Note_on_c, 4, 65, 0
6, 24963, Note_on_c, 4, 65, 72
6, 25023, Note_on_c, 4, 65, 0
6, 26523, Control_c, 4, 11, 37
6, 26523, Note_on_c, 4, 69, 100
6, 26545, Control_c, 4, 11, 38
6, 26568, Control_c, 4, 11, 39
6, 26583, Note_on_c, 4, 69, 0
6, 26591, Control_c, 4, 11, 40
6, 26614, Control_c, 4, 11, 41
6, 26637, Control_c, 4, 11, 42
6, 26643, Note_on_c, 4, 60, 100
6, 26659, Control_c, 4, 11, 43
6, 26682, Control_c, 4, 11, 44
6, 26698, Note_on_c, 4, 60, 0
6, 26703, Note_on_c, 4, 60, 100
6, 26705, Control_c, 4, 11, 45
6, 26728, Control_c, 4, 11, 46
6, 26751, Control_c, 4, 11, 47
6, 26773, Control_c, 4, 11, 48
6, 26796, Control_c, 4, 11, 49
6, 26818, Note_on_c, 4, 60, 0
6, 26819, Control_c, 4, 11, 50
6, 26823, Note_on_c, 4, 60, 100
6, 26842, Control_c, 4, 11, 51
6, 26865, Control_c, 4, 11, 52
6, 26887, Control_c, 4, 11, 53
6, 26910, Control_c, 4, 11, 54
6, 26933, Control_c, 4, 11, 55
6, 26938, Note_on_c, 4, 60, 0
6, 26943, Note_on_c, 4, 60, 100
6, 26956, Control_c, 4, 11, 56
6, 26979, Control_c, 4, 11, 57
6, 27001, Control_c, 4, 11, 58
6, 27024, Control_c, 4, 11, 59
6, 27047, Control_c, 4, 11, 60
6, 27058, Note_on_c, 4, 60, 0
6, 27063, Note_on_c, 4, 60, 100
6, 27070, Control_c, 4, 11, 61
6, 27093, Control_c, 4, 11, 62
6, 27115, Control_c, 4, 11, 63
6, 27138, Control_c, 4, 11, 64
6, 27161, Control_c, 4, 11, 65
6, 27178, Note_on_c, 4, 60, 0
6, 27183, Note_on_c, 4, 60, 100
6, 27184, Control_c, 4, 11, 66
6, 27207, Control_c, 4, 11, 67
6, 27229, Control_c, 4, 11, 68
6, 27252, Control_c, 4, 11, 69
6, 27275, Control_c, 4, 11, 70
6, 27298, Note_on_c, 4, 60, 0
6, 27298, Control_c, 4, 11, 71
6, 27303, Note_on_c, 4, 60, 100
6, 27321, Control_c, 4, 11, 72
6, 27343, Control_c, 4, 11, 73
6, 27366, Control_c, 4, 11, 74
6, 27389, Control_c, 4, 11, 75
6, 27412, Control_c, 4, 11, 76
6, 27418, Note_on_c, 4, 60, 0
6, 27423, Note_on_c, 4, 60, 100
6, 27435, Control_c, 4, 11, 77
6, 27457, Control_c, 4, 11, 78
6, 27480, Control_c, 4, 11, 79
6, 27503, Control_c, 4, 11, 80
6, 27526, Control_c, 4, 11, 81
6, 27538, Note_on_c, 4, 60, 0
6, 27543, Note_on_c, 4, 60, 100
6, 27549, Control_c, 4, 11, 82
6, 27571, Control_c, 4, 11, 83
6, 27594, Control_c, 4, 11, 84
6, 27617, Control_c, 4, 11, 85
6, 27640, Control_c, 4, 11, 86
6, 27658, Note_on_c, 4, 60, 0
6, 27663, Control_c, 4, 11, 87
6, 27663, Note_on_c, 4, 60, 100
6, 27778, Note_on_c, 4, 60, 0
6, 27783, Note_on_c, 4, 60, 100
6, 27898, Note_on_c, 4, 60, 0
6, 27903, Note_on_c, 4, 60, 100
6, 28018, Note_on_c, 4, 60, 0
6, 28023, Note_on_c, 4, 60, 100
6, 28138, Note_on_c, 4, 60, 0
6, 28143, Note_on_c, 4, 60, 100
6, 28198, Note_on_c, 4, 60, 0
6, 28203, Note_on_c, 4, 65, 100
6, 28258, Note_on_c, 4, 65, 0
6, 28263, Note_on_c, 4, 65, 100
6, 28378, Note_on_c, 4, 65, 0
6, 28383, Note_on_c, 4, 65, 100
6, 28498, Note_on_c, 4, 65, 0
6, 28503, Note_on_c, 4, 65, 100
6, 28618, Note_on_c, 4, 65, 0
6, 29403, Control_c, 4, 11, 102
6, 29403, Note_on_c, 4, 60, 100
6, 29463, Note_on_c, 4, 60, 0
6, 29523, Control_c, 4, 11, 122
6, 29523, Note_on_c, 4, 65, 100
6, 29536, Control_c, 4, 11, 119
6, 29550, Control_c, 4, 11, 116
6, 29563, Control_c, 4, 11, 113
6, 29577, Control_c, 4, 11, 110
6, 29590, Control_c, 4, 11, 107
6, 29604, Control_c, 4, 11, 104
6, 29703, Note_on_c, 4, 65, 0
6, 29703, Note_on_c, 4, 60, 100
6, 29748, Note_on_c, 4, 60, 0
6, 29763, Note_on_c, 4, 57, 100
6, 29808, Note_on_c, 4, 57, 0
6, 29823, Note_on_c, 4, 53, 100
6, 29868, Note_on_c, 4, 53, 0
6, 29883, Note_on_c, 4, 60, 100
6, 30003, Note_on_c, 4, 60, 0
6, 30123, Note_on_c, 4, 60, 100
6, 30183, Note_on_c, 4, 60, 0
6, 30243, Control_c, 4, 11, 122
6, 30243, Note_on_c, 4, 65, 100
6, 30256, Control_c, 4, 11, 119
6, 30270, Control_c, 4, 11, 116
6, 30283, Control_c, 4, 11, 113
6, 30297, Control_c, 4, 11, 110
6, 30310, Control_c, 4, 11, 107
6, 30324, Control_c, 4, 11, 104
6, 30423, Note_on_c, 4, 65, 0
6, 30423, Note_on_c, 4, 60, 100
6, 30468, Note_on_c, 4, 60, 0
6, 30483, Note_on_c, 4, 57, 100
6, 30528, Note_on_c, 4, 57, 0
6, 30543, Note_on_c, 4, 53, 100
6, 30588, Note_on_c, 4, 53, 0
6, 30603, Note_on_c, 4, 60, 100
6, 30663, Note_on_c, 4, 60, 0
6, 30843, Control_c, 4, 11, 112
6, 30843, Note_on_c, 4, 67, 100
6, 30861, Control_c, 4, 11, 109
6, 30879, Control_c, 4, 11, 106
6, 30897, Control_c, 4, 11, 103
6, 30915, Control_c, 4, 11, 100
6, 30933, Control_c, 4, 11, 97
6, 30951, Control_c, 4, 11, 94
6, 30963, Note_on_c, 4, 67, 0
6, 30963, Note_on_c, 4, 69, 100
6, 31023, Note_on_c, 4, 69, 0
6, 31323, Control_c, 4, 11, 112
6, 31323, Note_on_c, 4, 67, 100
6, 31341, Control_c, 4, 11, 109
6, 31359, Control_c, 4, 11, 106
6, 31377, Control_c, 4, 11, 103
6, 31395, Control_c, 4, 11, 100
6, 31413, Control_c, 4, 11, 97
6, 31431, Control_c, 4, 11, 94
6, 31443, Note_on_c, 4, 67, 0
6, 31443, Note_on_c, 4, 69, 100
6, 31503, Note_on_c, 4, 69, 0
6, 32043, Control_c, 4, 11, 87
6, 32043, Note_on_c, 4, 60, 100
6, 32163, Note_on_c, 4, 60, 0
6, 32163, Note_on_c, 4, 65, 100
6, 32223, Note_on_c, 4, 65, 0
6, 32223, Control_c, 4, 11, 77
6, 32223, Note_on_c, 4, 60, 100
6, 32241, Control_c, 4, 11, 75
6, 32259, Control_c, 4, 11, 73
6, 32275, Note_on_c, 4, 60, 0
6, 32277, Control_c, 4, 11, 71
6, 32283, Note_on_c, 4, 62, 100
6, 32295, Control_c, 4, 11, 69
6, 32313, Control_c, 4, 11, 67
6, 32331, Control_c, 4, 11, 65
6, 32335, Note_on_c, 4, 62, 0
6, 32343, Note_on_c, 4, 64, 100
6, 32349, Control_c, 4, 11, 63
6, 32367, Control_c, 4, 11, 61
6, 32385, Control_c, 4, 11, 59
6, 32395, Note_on_c, 4, 64, 0
6, 32403, Control_c, 4, 11, 42
6, 32403, Control_c, 4, 11, 57
6, 32403, Note_on_c, 4, 65, 100
6, 32407, Control_c, 4, 11, 43
6, 32411, Control_c, 4, 11, 44
6, 32415, Control_c, 4, 11, 45
6, 32419, Control_c, 4, 11, 46
6, 32423, Control_c, 4, 11, 47
6, 32427, Control_c, 4, 11, 48
6, 32431, Control_c, 4, 11, 49
6, 32435, Control_c, 4, 11, 50
6, 32439, Control_c, 4, 11, 51
6, 32443, Control_c, 4, 11, 52
6, 32447, Control_c, 4, 11, 53
6, 32451, Control_c, 4, 11, 54
6, 32455, Control_c, 4, 11, 55
6, 32459, Control_c, 4, 11, 56
6, 32463, Control_c, 4, 11, 57
6, 32583, Note_on_c, 4, 65, 0
6, 32583, Control_c, 4, 11, 42
6, 32583, Note_on_c, 4, 67, 100
6, 32586, Control_c, 4, 11, 43
6, 32589, Control_c, 4, 11, 44
6, 32592, Control_c, 4, 11, 45
6, 32595, Control_c, 4, 11, 46
6, 32598, Control_c, 4, 11, 47
6, 32601, Control_c, 4, 11, 48
6, 32604, Control_c, 4, 11, 49
6, 32607, Control_c, 4, 11, 50
6, 32610, Control_c, 4, 11, 51
6, 32613, Control_c, 4, 11, 52
6, 32616, Control_c, 4, 11, 53
6, 32619, Control_c, 4, 11, 54
6, 32622, Control_c, 4, 11, 55
6, 32625, Control_c, 4, 11, 56
6, 32628, Control_c, 4, 11, 57
6, 32643, Note_on_c, 4, 67, 0
6, 32643, Control_c, 4, 11, 42
6, 32643, Note_on_c, 4, 69, 100
6, 32646, Control_c, 4, 11, 43
6, 32649, Control_c, 4, 11, 44
6, 32652, Control_c, 4, 11, 45
6, 32655, Control_c, 4, 11, 46
6, 32658, Control_c, 4, 11, 47
6, 32661, Control_c, 4, 11, 48
6, 32664, Control_c, 4, 11, 49
6, 32667, Control_c, 4, 11, 50
6, 32670, Control_c, 4, 11, 51
6, 32673, Control_c, 4, 11, 52
6, 32676, Control_c, 4, 11, 53
6, 32679, Control_c, 4, 11, 54
6, 32682, Control_c, 4, 11, 55
6, 32685, Control_c, 4, 11, 56
6, 32688, Control_c, 4, 11, 57
6, 32758, Note_on_c, 4, 69, 0
6, 32763, Control_c, 4, 11, 42
6, 32763, Note_on_c, 4, 69, 100
6, 32766, Control_c, 4, 11, 43
6, 32769, Control_c, 4, 11, 44
6, 32772, Control_c, 4, 11, 45
6, 32775, Control_c, 4, 11, 46
6, 32778, Control_c, 4, 11, 47
6, 32781, Control_c, 4, 11, 48
6, 32784, Control_c, 4, 11, 49
6, 32787, Control_c, 4, 11, 50
6, 32790, Control_c, 4, 11, 51
6, 32793, Control_c, 4, 11, 52
6, 32796, Control_c, 4, 11, 53
6, 32799, Control_c, 4, 11, 54
6, 32802, Control_c, 4, 11, 55
6, 32805, Control_c, 4, 11, 56
6, 32808, Control_c, 4, 11, 57
6, 32943, Note_on_c, 4, 69, 0
6, 32943, Control_c, 4, 11, 42
6, 32943, Note_on_c, 4, 67, 100
6, 32946, Control_c, 4, 11, 43
6, 32949, Control_c, 4, 11, 44
6, 32952, Control_c, 4, 11, 45
6, 32955, Control_c, 4, 11, 46
6, 32958, Control_c, 4, 11, 47
6, 32961, Control_c, 4, 11, 48
6, 32964, Control_c, 4, 11, 49
6, 32967, Control_c, 4, 11, 50
6, 32970, Control_c, 4, 11, 51
6, 32973, Control_c, 4, 11, 52
6, 32976, Control_c, 4, 11, 53
6, 32979, Control_c, 4, 11, 54
6, 32982, Control_c, 4, 11, 55
6, 32985, Control_c, 4, 11, 56
6, 32988, Control_c, 4, 11, 57
6, 33003, Note_on_c, 4, 67, 0
6, 33003, Control_c, 4, 11, 42
6, 33003, Note_on_c, 4, 65, 100
6, 33006, Control_c, 4, 11, 43
6, 33009, Control_c, 4, 11, 44
6, 33012, Control_c, 4, 11, 45
6, 33015, Control_c, 4, 11, 46
6, 33018, Control_c, 4, 11, 47
6, 33021, Control_c, 4, 11, 48
6, 33024, Control_c, 4, 11, 49
6, 33027, Control_c, 4, 11, 50
6, 33030, Control_c, 4, 11, 51
6, 33033, Control_c, 4, 11, 52
6, 33036, Control_c, 4, 11, 53
6, 33039, Control_c, 4, 11, 54
6, 33042, Control_c, 4, 11, 55
6, 33045, Control_c, 4, 11, 56
6, 33048, Control_c, 4, 11, 57
6, 33118, Note_on_c, 4, 65, 0
6, 33123, Control_c, 4, 11, 42
6, 33123, Note_on_c, 4, 65, 100
6, 33126, Control_c, 4, 11, 43
6, 33129, Control_c, 4, 11, 44
6, 33132, Control_c, 4, 11, 45
6, 33135, Control_c, 4, 11, 46
6, 33138, Control_c, 4, 11, 47
6, 33141, Control_c, 4, 11, 48
6, 33144, Control_c, 4, 11, 49
6, 33147, Control_c, 4, 11, 50
6, 33150, Control_c, 4, 11, 51
6, 33153, Control_c, 4, 11, 52
6, 33156, Control_c, 4, 11, 53
6, 33159, Control_c, 4, 11, 54
6, 33162, Control_c, 4, 11, 55
6, 33165, Control_c, 4, 11, 56
6, 33168, Control_c, 4, 11, 57
6, 33243, Note_on_c, 4, 65, 0
6, 33243, Control_c, 4, 11, 42
6, 33243, Control_c, 4, 11, 57
6, 33243, Note_on_c, 4, 69, 100
6, 33246, Control_c, 4, 11, 43
6, 33249, Control_c, 4, 11, 44
6, 33252, Control_c, 4, 11, 45
6, 33255, Control_c, 4, 11, 46
6, 33258, Control_c, 4, 11, 47
6, 33261, Control_c, 4, 11, 48
6, 33264, Control_c, 4, 11, 49
6, 33267, Control_c, 4, 11, 50
6, 33267, Control_c, 4, 11, 58
6, 33270, Control_c, 4, 11, 51
6, 33273, Control_c, 4, 11, 52
6, 33276, Control_c, 4, 11, 53
6, 33279, Control_c, 4, 11, 54
6, 33282, Control_c, 4, 11, 55
6, 33285, Control_c, 4, 11, 56
6, 33288, Control_c, 4, 11, 57
6, 33291, Control_c, 4, 11, 59
6, 33315, Control_c, 4, 11, 60
6, 33339, Control_c, 4, 11, 61
6, 33363, Control_c, 4, 11, 62
6, 33387, Control_c, 4, 11, 63
6, 33411, Control_c, 4, 11, 64
6, 33423, Note_on_c, 4, 69, 0
6, 33423, Note_on_c, 4, 72, 100
6, 33435, Control_c, 4, 11, 65
6, 33459, Control_c, 4, 11, 66
6, 33478, Note_on_c, 4, 72, 0
6, 33483, Control_c, 4, 11, 67
6, 33483, Note_on_c, 4, 72, 100
6, 33507, Control_c, 4, 11, 68
6, 33531, Control_c, 4, 11, 69
6, 33543, Note_on_c, 4, 72, 0
6, 33543, Note_on_c, 4, 70, 100
6, 33555, Control_c, 4, 11, 70
6, 33579, Control_c, 4, 11, 71
6, 33598, Note_on_c, 4, 70, 0
6, 33603, Control_c, 4, 11, 72
6, 33603, Note_on_c, 4, 67, 80
6, 33663, Note_on_c, 4, 67, 0
6, 34623, Control_c, 4, 11, 72
6, 34623, Note_on_c, 4, 67, 80
6, 34738, Note_on_c, 4, 67, 0
6, 34743, Note_on_c, 4, 67, 80
6, 34798, Note_on_c, 4, 67, 0
6, 34803, Note_on_c, 4, 67, 80
6, 34858, Note_on_c, 4, 67, 0
6, 34863, Note_on_c, 4, 67, 80
6, 34918, Note_on_c, 4, 67, 0
6, 34923, Note_on_c, 4, 67, 80
6, 35038, Note_on_c, 4, 67, 0
6, 35043, Note_on_c, 4, 67, 80
6, 35098, Note_on_c, 4, 67, 0
6, 35103, Control_c, 4, 11, 72
6, 35103, Note_on_c, 4, 60, 100
6, 35127, Control_c, 4, 11, 70
6, 35151, Control_c, 4, 11, 68
6, 35155, Note_on_c, 4, 60, 0
6, 35163, Note_on_c, 4, 62, 100
6, 35175, Control_c, 4, 11, 66
6, 35199, Control_c, 4, 11, 64
6, 35215, Note_on_c, 4, 62, 0
6, 35223, Control_c, 4, 11, 62
6, 35223, Note_on_c, 4, 64, 100
6, 35247, Control_c, 4, 11, 60
6, 35271, Control_c, 4, 11, 58
6, 35275, Note_on_c, 4, 64, 0
6, 35283, Note_on_c, 4, 65, 100
6, 35283, Control_c, 4, 11, 57
6, 35283, Control_c, 4, 11, 42
6, 35287, Control_c, 4, 11, 43
6, 35291, Control_c, 4, 11, 44
6, 35295, Control_c, 4, 11, 45
6, 35299, Control_c, 4, 11, 46
6, 35303, Control_c, 4, 11, 47
6, 35307, Control_c, 4, 11, 48
6, 35311, Control_c, 4, 11, 49
6, 35315, Control_c, 4, 11, 50
6, 35319, Control_c, 4, 11, 51
6, 35323, Control_c, 4, 11, 52
6, 35327, Control_c, 4, 11, 53
6, 35331, Control_c, 4, 11, 54
6, 35335, Control_c, 4, 11, 55
6, 35339, Control_c, 4, 11, 56
6, 35343, Control_c, 4, 11, 57
6, 35463, Note_on_c, 4, 65, 0
6, 35463, Control_c, 4, 11, 42
6, 35463, Note_on_c, 4, 67, 100
6, 35466, Control_c, 4, 11, 43
6, 35469, Control_c, 4, 11, 44
6, 35472, Control_c, 4, 11, 45
6, 35475, Control_c, 4, 11, 46
6, 35478, Control_c, 4, 11, 47
6, 35481, Control_c, 4, 11, 48
6, 35484, Control_c, 4, 11, 49
6, 35487, Control_c, 4, 11, 50
6, 35490, Control_c, 4, 11, 51
6, 35493, Control_c, 4, 11, 52
6, 35496, Control_c, 4, 11, 53
6, 35499, Control_c, 4, 11, 54
6, 35502, Control_c, 4, 11, 55
6, 35505, Control_c, 4, 11, 56
6, 35508, Control_c, 4, 11, 57
6, 35523, Note_on_c, 4, 67, 0
6, 35523, Control_c, 4, 11, 42
6, 35523, Note_on_c, 4, 69, 100
6, 35526, Control_c, 4, 11, 43
6, 35529, Control_c, 4, 11, 44
6, 35532, Control_c, 4, 11, 45
6, 35535, Control_c, 4, 11, 46
6, 35538, Control_c, 4, 11, 47
6, 35541, Control_c, 4, 11, 48
6, 35544, Control_c, 4, 11, 49
6, 35547, Control_c, 4, 11, 50
6, 35550, Control_c, 4, 11, 51
6, 35553, Control_c, 4, 11, 52
6, 35556, Control_c, 4, 11, 53
6, 35559, Control_c, 4, 11, 54
6, 35562, Control_c, 4, 11, 55
6, 35565, Control_c, 4, 11, 56
6, 35568, Control_c, 4, 11, 57
6, 35638, Note_on_c, 4, 69, 0
6, 35643, Note_on_c, 4, 69, 100
6, 35643, Control_c, 4, 11, 42
6, 35646, Control_c, 4, 11, 43
6, 35649, Control_c, 4, 11, 44
6, 35652, Control_c, 4, 11, 45
6, 35655, Control_c, 4, 11, 46
6, 35658, Control_c, 4, 11, 47
6, 35661, Control_c, 4, 11, 48
6, 35664, Control_c, 4, 11, 49
6, 35667, Control_c, 4, 11, 50
6, 35670, Control_c, 4, 11, 51
6, 35673, Control_c, 4, 11, 52
6, 35676, Control_c, 4, 11, 53
6, 35679, Control_c, 4, 11, 54
6, 35682, Control_c, 4, 11, 55
6, 35685, Control_c, 4, 11, 56
6, 35688, Control_c, 4, 11, 57
6, 35823, Note_on_c, 4, 69, 0
6, 35823, Control_c, 4, 11, 42
6, 35823, Note_on_c, 4, 67, 100
6, 35826, Control_c, 4, 11, 43
6, 35829, Control_c, 4, 11, 44
6, 35832, Control_c, 4, 11, 45
6, 35835, Control_c, 4, 11, 46
6, 35838, Control_c, 4, 11, 47
6, 35841, Control_c, 4, 11, 48
6, 35844, Control_c, 4, 11, 49
6, 35847, Control_c, 4, 11, 50
6, 35850, Control_c, 4, 11, 51
6, 35853, Control_c, 4, 11, 52
6, 35856, Control_c, 4, 11, 53
6, 35859, Control_c, 4, 11, 54
6, 35862, Control_c, 4, 11, 55
6, 35865, Control_c, 4, 11, 56
6, 35868, Control_c, 4, 11, 57
6, 35883, Note_on_c, 4, 67, 0
6, 35883, Note_on_c, 4, 65, 100
6, 35883, Control_c, 4, 11, 42
6, 35886, Control_c, 4, 11, 43
6, 35889, Control_c, 4, 11, 44
6, 35892, Control_c, 4, 11, 45
6, 35895, Control_c, 4, 11, 46
6, 35898, Control_c, 4, 11, 47
6, 35901, Control_c, 4, 11, 48
6, 35904, Control_c, 4, 11, 49
6, 35907, Control_c, 4, 11, 50
6, 35910, Control_c, 4, 11, 51
6, 35913, Control_c, 4, 11, 52
6, 35916, Control_c, 4, 11, 53
6, 35919, Control_c, 4, 11, 54
6, 35922, Control_c, 4, 11, 55
6, 35925, Control_c, 4, 11, 56
6, 35928, Control_c, 4, 11, 57
6, 35998, Note_on_c, 4, 65, 0
6, 36003, Control_c, 4, 11, 42
6, 36003, Note_on_c, 4, 65, 100
6, 36006, Control_c, 4, 11, 43
6, 36009, Control_c, 4, 11, 44
6, 36012, Control_c, 4, 11, 45
6, 36015, Control_c, 4, 11, 46
6, 36018, Control_c, 4, 11, 47
6, 36021, Control_c, 4, 11, 48
6, 36024, Control_c, 4, 11, 49
6, 36027, Control_c, 4, 11, 50
6, 36030, Control_c, 4, 11, 51
6, 36033, Control_c, 4, 11, 52
6, 36036, Control_c, 4, 11, 53
6, 36039, Control_c, 4, 11, 54
6, 36042, Control_c, 4, 11, 55
6, 36045, Control_c, 4, 11, 56
6, 36048, Control_c, 4, 11, 57
6, 36123, Note_on_c, 4, 65, 0
6, 36123, Control_c, 4, 11, 57
6, 36123, Note_on_c, 4, 69, 100
6, 36123, Control_c, 4, 11, 42
6, 36126, Control_c, 4, 11, 43
6, 36129, Control_c, 4, 11, 44
6, 36132, Control_c, 4, 11, 45
6, 36135, Control_c, 4, 11, 46
6, 36138, Control_c, 4, 11, 47
6, 36141, Control_c, 4, 11, 48
6, 36144, Control_c, 4, 11, 49
6, 36147, Control_c, 4, 11, 58
6, 36147, Control_c, 4, 11, 50
6, 36150, Control_c, 4, 11, 51
6, 36153, Control_c, 4, 11, 52
6, 36156, Control_c, 4, 11, 53
6, 36159, Control_c, 4, 11, 54
6, 36162, Control_c, 4, 11, 55
6, 36165, Control_c, 4, 11, 56
6, 36168, Control_c, 4, 11, 57
6, 36171, Control_c, 4, 11, 59
6, 36195, Control_c, 4, 11, 60
6, 36219, Control_c, 4, 11, 61
6, 36243, Control_c, 4, 11, 62
6, 36267, Control_c, 4, 11, 63
6, 36291, Control_c, 4, 11, 64
6, 36303, Note_on_c, 4, 69, 0
6, 36303, Note_on_c, 4, 72, 100
6, 36315, Control_c, 4, 11, 65
6, 36339, Control_c, 4, 11, 66
6, 36358, Note_on_c, 4, 72, 0
6, 36363, Control_c, 4, 11, 67
6, 36363, Note_on_c, 4, 72, 100
6, 36387, Control_c, 4, 11, 68
6, 36411, Control_c, 4, 11, 69
6, 36423, Note_on_c, 4, 72, 0
6, 36423, Note_on_c, 4, 70, 100
6, 36435, Control_c, 4, 11, 70
6, 36459, Control_c, 4, 11, 71
6, 36478, Note_on_c, 4, 70, 0
6, 36483, Control_c, 4, 11, 72
6, 36483, Note_on_c, 4, 67, 80
6, 36543, Note_on_c, 4, 67, 0
6, 37503, Note_on_c, 4, 67, 80
6, 37503, Control_c, 4, 11, 72
6, 37618, Note_on_c, 4, 67, 0
6, 37623, Note_on_c, 4, 67, 80
6, 37678, Note_on_c, 4, 67, 0
6, 37683, Note_on_c, 4, 67, 80
6, 37738, Note_on_c, 4, 67, 0
6, 37743, Note_on_c, 4, 67, 80
6, 37798, Note_on_c, 4, 67, 0
6, 37803, Note_on_c, 4, 67, 80
6, 37918, Note_on_c, 4, 67, 0
6, 37923, Note_on_c, 4, 67, 80
6, 37978, Note_on_c, 4, 67, 0
6, 37983, Control_c, 4, 11, 72
6, 38007, Control_c, 4, 11, 70
6, 38031, Control_c, 4, 11, 68
6, 38055, Control_c, 4, 11, 66
6, 38079, Control_c, 4, 11, 64
6, 38103, Control_c, 4, 11, 62
6, 38127, Control_c, 4, 11, 60
6, 38151, Control_c, 4, 11, 58
6, 38223, Note_on_c, 4, 67, 100
6, 38223, Control_c, 4, 11, 52
6, 38275, Note_on_c, 4, 67, 0
6, 38283, Note_on_c, 4, 69, 100
6, 38335, Note_on_c, 4, 69, 0
6, 38343, Note_on_c, 4, 71, 100
6, 38395, Note_on_c, 4, 71, 0
6, 38403, Note_on_c, 4, 72, 100
6, 38523, Note_on_c, 4, 72, 0
6, 38943, Note_on_c, 4, 67, 100
6, 38995, Note_on_c, 4, 67, 0
6, 39003, Note_on_c, 4, 69, 100
6, 39055, Note_on_c, 4, 69, 0
6, 39063, Note_on_c, 4, 71, 100
6, 39115, Note_on_c, 4, 71, 0
6, 39123, Note_on_c, 4, 72, 100
6, 39243, Note_on_c, 4, 72, 0
6, 39663, Control_c, 4, 11, 52
6, 39692, Control_c, 4, 11, 53
6, 39721, Control_c, 4, 11, 54
6, 39750, Control_c, 4, 11, 55
6, 39779, Control_c, 4, 11, 56
6, 39808, Control_c, 4, 11, 57
6, 39837, Control_c, 4, 11, 58
6, 39867, Control_c, 4, 11, 59
6, 39896, Control_c, 4, 11, 60
6, 39925, Control_c, 4, 11, 61
6, 39954, Control_c, 4, 11, 62
6, 39983, Control_c, 4, 11, 63
6, 40012, Control_c, 4, 11, 64
6, 40023, Note_on_c, 4, 65, 100
6, 40041, Control_c, 4, 11, 65
6, 40071, Control_c, 4, 11, 66
6, 40075, Note_on_c, 4, 65, 0
6, 40083, Note_on_c, 4, 67, 100
6, 40100, Control_c, 4, 11, 67
6, 40129, Control_c, 4, 11, 68
6, 40135, Note_on_c, 4, 67, 0
6, 40143, Note_on_c, 4, 69, 100
6, 40158, Control_c, 4, 11, 69
6, 40187, Control_c, 4, 11, 70
6, 40195, Note_on_c, 4, 69, 0
6, 40203, Note_on_c, 4, 70, 100
6, 40216, Control_c, 4, 11, 71
6, 40245, Control_c, 4, 11, 72
6, 40275, Control_c, 4, 11, 73
6, 40304, Control_c, 4, 11, 74
6, 40323, Note_on_c, 4, 70, 0
6, 40333, Control_c, 4, 11, 75
6, 40362, Control_c, 4, 11, 76
6, 40391, Control_c, 4, 11, 77
6, 40420, Control_c, 4, 11, 78
6, 40449, Control_c, 4, 11, 79
6, 40479, Control_c, 4, 11, 80
6, 40508, Control_c, 4, 11, 81
6, 40537, Control_c, 4, 11, 82
6, 40566, Control_c, 4, 11, 83
6, 40595, Control_c, 4, 11, 84
6, 40624, Control_c, 4, 11, 85
6, 40653, Control_c, 4, 11, 86
6, 40683, Control_c, 4, 11, 87
6, 40683, Note_on_c, 4, 67, 115
6, 40858, Note_on_c, 4, 67, 0
6, 40863, Note_on_c, 4, 64, 115
6, 40918, Note_on_c, 4, 64, 0
6, 40923, Note_on_c, 4, 65, 115
6, 40978, Note_on_c, 4, 65, 0
6, 40983, Note_on_c, 4, 67, 115
6, 41038, Note_on_c, 4, 67, 0
6, 41043, Note_on_c, 4, 69, 100
6, 41043, Control_c, 4, 11, 47
6, 41061, Control_c, 4, 11, 48
6, 41079, Control_c, 4, 11, 49
6, 41097, Control_c, 4, 11, 50
6, 41115, Control_c, 4, 11, 51
6, 41133, Control_c, 4, 11, 52
6, 41151, Control_c, 4, 11, 53
6, 41169, Control_c, 4, 11, 54
6, 41187, Control_c, 4, 11, 55
6, 41205, Control_c, 4, 11, 56
6, 41223, Note_on_c, 4, 69, 0
6, 41223, Control_c, 4, 11, 57
6, 41223, Note_on_c, 4, 70, 100
6, 41241, Control_c, 4, 11, 58
6, 41259, Control_c, 4, 11, 59
6, 41277, Control_c, 4, 11, 60
6, 41283, Note_on_c, 4, 70, 0
6, 41283, Note_on_c, 4, 72, 100
6, 41295, Control_c, 4, 11, 61
6, 41313, Control_c, 4, 11, 62
6, 41331, Control_c, 4, 11, 63
6, 41349, Control_c, 4, 11, 64
6, 41367, Control_c, 4, 11, 65
6, 41385, Control_c, 4, 11, 66
6, 41398, Note_on_c, 4, 72, 0
6, 41403, Note_on_c, 4, 72, 100
6, 41403, Control_c, 4, 11, 67
6, 41523, Note_on_c, 4, 72, 0
6, 41523, Note_on_c, 4, 74, 100
6, 41643, Note_on_c, 4, 74, 0
6, 41643, Note_on_c, 4, 72, 100
6, 41703, Note_on_c, 4, 72, 0
6, 41703, Note_on_c, 4, 70, 100
6, 41758, Note_on_c, 4, 70, 0
6, 41763, Note_on_c, 4, 69, 100
6, 42003, Note_on_c, 4, 69, 0
6, 42003, Note_on_c, 4, 67, 100
6, 42063, Control_c, 4, 11, 67
6, 42075, Control_c, 4, 11, 64
6, 42087, Control_c, 4, 11, 61
6, 42099, Control_c, 4, 11, 58
6, 42111, Control_c, 4, 11, 55
6, 42123, Note_on_c, 4, 67, 0
6, 42123, Control_c, 4, 11, 52
6, 42123, Note_on_c, 4, 65, 100
6, 42141, Control_c, 4, 11, 53
6, 42159, Control_c, 4, 11, 54
6, 42177, Control_c, 4, 11, 55
6, 42195, Control_c, 4, 11, 56
6, 42213, Control_c, 4, 11, 57
6, 42231, Control_c, 4, 11, 58
6, 42243, Note_on_c, 4, 65, 0
6, 42243, Note_on_c, 4, 69, 100
6, 42249, Control_c, 4, 11, 59
6, 42267, Control_c, 4, 11, 60
6, 42285, Control_c, 4, 11, 61
6, 42303, Control_c, 4, 11, 62
6, 42321, Control_c, 4, 11, 63
6, 42339, Control_c, 4, 11, 64
6, 42357, Control_c, 4, 11, 65
6, 42358, Note_on_c, 4, 69, 0
6, 42363, Note_on_c, 4, 69, 100
6, 42375, Control_c, 4, 11, 66
6, 42393, Control_c, 4, 11, 67
6, 42411, Control_c, 4, 11, 68
6, 42429, Control_c, 4, 11, 69
6, 42447, Control_c, 4, 11, 70
6, 42465, Control_c, 4, 11, 71
6, 42478, Note_on_c, 4, 69, 0
6, 42483, Control_c, 4, 11, 72
6, 42483, Note_on_c, 4, 69, 100
6, 42603, Note_on_c, 4, 69, 0
6, 42603, Note_on_c, 4, 72, 100
6, 42718, Note_on_c, 4, 72, 0
6, 42723, Note_on_c, 4, 72, 100
6, 42838, Note_on_c, 4, 72, 0
6, 42843, Note_on_c, 4, 72, 100
6, 43083, Note_on_c, 4, 72, 0
6, 43083, Note_on_c, 4, 69, 100
6, 43198, Note_on_c, 4, 69, 0
6, 43203, Note_on_c, 4, 70, 100
6, 43378, Note_on_c, 4, 70, 0
6, 43383, Note_on_c, 4, 60, 100
6, 43443, Note_on_c, 4, 60, 0
6, 43443, Note_on_c, 4, 62, 100
6, 43503, Note_on_c, 4, 62, 0
6, 43503, Note_on_c, 4, 64, 100
6, 43558, Note_on_c, 4, 64, 0
6, 43563, Control_c, 4, 11, 52
6, 43563, Note_on_c, 4, 65, 100
6, 43581, Control_c, 4, 11, 53
6, 43599, Control_c, 4, 11, 54
6, 43617, Control_c, 4, 11, 55
6, 43623, Note_on_c, 4, 65, 0
6, 43623, Note_on_c, 4, 69, 100
6, 43635, Control_c, 4, 11, 56
6, 43653, Control_c, 4, 11, 57
6, 43671, Control_c, 4, 11, 58
6, 43678, Note_on_c, 4, 69, 0
6, 43683, Note_on_c, 4, 69, 100
6, 43689, Control_c, 4, 11, 59
6, 43707, Control_c, 4, 11, 60
6, 43725, Control_c, 4, 11, 61
6, 43728, Note_on_c, 4, 69, 0
6, 43743, Note_on_c, 4, 69, 100
6, 43743, Control_c, 4, 11, 62
6, 43761, Control_c, 4, 11, 63
6, 43779, Control_c, 4, 11, 64
6, 43788, Note_on_c, 4, 69, 0
6, 43797, Control_c, 4, 11, 65
6, 43803, Note_on_c, 4, 69, 100
6, 43815, Control_c, 4, 11, 66
6, 43833, Control_c, 4, 11, 67
6, 43848, Note_on_c, 4, 69, 0
6, 43851, Control_c, 4, 11, 68
6, 43863, Note_on_c, 4, 69, 100
6, 43869, Control_c, 4, 11, 69
6, 43887, Control_c, 4, 11, 70
6, 43905, Control_c, 4, 11, 71
6, 43908, Note_on_c, 4, 69, 0
6, 43923, Note_on_c, 4, 69, 100
6, 43923, Control_c, 4, 11, 72
6, 43983, Note_on_c, 4, 69, 0
6, 43983, Note_on_c, 4, 72, 100
6, 44038, Note_on_c, 4, 72, 0
6, 44043, Note_on_c, 4, 72, 100
6, 44088, Note_on_c, 4, 72, 0
6, 44103, Note_on_c, 4, 72, 100
6, 44148, Note_on_c, 4, 72, 0
6, 44163, Note_on_c, 4, 72, 100
6, 44208, Note_on_c, 4, 72, 0
6, 44223, Note_on_c, 4, 72, 100
6, 44268, Note_on_c, 4, 72, 0
6, 44283, Note_on_c, 4, 72, 100
6, 44283, Control_c, 4, 11, 52
6, 44523, Note_on_c, 4, 72, 0
6, 44523, Note_on_c, 4, 69, 100
6, 44638, Note_on_c, 4, 69, 0
6, 44643, Note_on_c, 4, 70, 100
6, 44823, Note_on_c, 4, 70, 0
6, 45183, Control_c, 4, 11, 52
6, 45183, Note_on_c, 4, 72, 100
6, 45201, Control_c, 4, 11, 55
6, 45219, Control_c, 4, 11, 58
6, 45235, Note_on_c, 4, 72, 0
6, 45237, Control_c, 4, 11, 61
6, 45243, Note_on_c, 4, 70, 100
6, 45255, Control_c, 4, 11, 64
6, 45273, Control_c, 4, 11, 67
6, 45291, Control_c, 4, 11, 70
6, 45295, Note_on_c, 4, 70, 0
6, 45303, Note_on_c, 4, 69, 100
6, 45355, Note_on_c, 4, 69, 0
6, 45363, Note_on_c, 4, 67, 100
6, 45363, Control_c, 4, 11, 52
6, 45543, Note_on_c, 4, 67, 0
6, 45903, Note_on_c, 4, 72, 100
6, 45903, Control_c, 4, 11, 52
6, 45921, Control_c, 4, 11, 55
6, 45939, Control_c, 4, 11, 58
6, 45955, Note_on_c, 4, 72, 0
6, 45957, Control_c, 4, 11, 61
6, 45963, Note_on_c, 4, 70, 100
6, 45975, Control_c, 4, 11, 64
6, 45993, Control_c, 4, 11, 67
6, 46011, Control_c, 4, 11, 70
6, 46015, Note_on_c, 4, 70, 0
6, 46023, Note_on_c, 4, 69, 100
6, 46075, Note_on_c, 4, 69, 0
6, 46083, Control_c, 4, 11, 52
6, 46083, Note_on_c, 4, 69, 100
6, 46263, Note_on_c, 4, 69, 0
6, 46263, Control_c, 4, 11, 52
6, 46263, Note_on_c, 4, 69, 100
6, 46299, Control_c, 4, 11, 51
6, 46315, Note_on_c, 4, 69, 0
6, 46323, Note_on_c, 4, 67, 100
6, 46335, Control_c, 4, 11, 50
6, 46371, Control_c, 4, 11, 49
6, 46375, Note_on_c, 4, 67, 0
6, 46383, Note_on_c, 4, 65, 100
6, 46407, Control_c, 4, 11, 48
6, 46435, Note_on_c, 4, 65, 0
6, 46443, Note_on_c, 4, 65, 100
6, 46443, Control_c, 4, 11, 47
6, 46479, Control_c, 4, 11, 46
6, 46503, Note_on_c, 4, 65, 0
6, 46503, Note_on_c, 4, 60, 100
6, 46515, Control_c, 4, 11, 45
6, 46551, Control_c, 4, 11, 44
6, 46563, Note_on_c, 4, 60, 0
6, 46563, Note_on_c, 4, 60, 100
6, 46587, Control_c, 4, 11, 43
6, 46608, Note_on_c, 4, 60, 0
6, 46623, Note_on_c, 4, 69, 100
6, 46623, Control_c, 4, 11, 42
6, 46659, Control_c, 4, 11, 41
6, 46675, Note_on_c, 4, 69, 0
6, 46683, Note_on_c, 4, 67, 100
6, 46695, Control_c, 4, 11, 40
6, 46731, Control_c, 4, 11, 39
6, 46735, Note_on_c, 4, 67, 0
6, 46743, Note_on_c, 4, 65, 100
6, 46767, Control_c, 4, 11, 38
6, 46795, Note_on_c, 4, 65, 0
6, 46803, Control_c, 4, 11, 37
6, 46803, Note_on_c, 4, 65, 100
6, 46863, Note_on_c, 4, 65, 0
6, 46863, Note_on_c, 4, 60, 100
6, 46923, Note_on_c, 4, 60, 0
6, 46923, Note_on_c, 4, 60, 100
6, 46968, Note_on_c, 4, 60, 0
6, 46983, Note_on_c, 4, 60, 100
6, 47028, Note_on_c, 4, 60, 0
6, 47043, Note_on_c, 4, 65, 100
6, 47088, Note_on_c, 4, 65, 0
6, 47103, Note_on_c, 4, 69, 100
6, 47148, Note_on_c, 4, 69, 0
6, 47163, Note_on_c, 4, 72, 100
6, 47223, Note_on_c, 4, 72, 0
6, 47223, Note_on_c, 4, 69, 100
6, 47283, Note_on_c, 4, 69, 0
6, 47283, Note_on_c, 4, 65, 100
6, 47313, Control_c, 4, 11, 37
6, 47318, Control_c, 4, 11, 34
6, 47324, Control_c, 4, 11, 31
6, 47330, Control_c, 4, 11, 28
6, 47336, Control_c, 4, 11, 25
6, 47342, Control_c, 4, 11, 22
6, 47343, Note_on_c, 4, 65, 0
6, 48123, Control_c, 4, 11, 42
6, 48123, Note_on_c, 4, 60, 100
6, 48183, Note_on_c, 4, 60, 0
6, 48243, Note_on_c, 4, 60, 100
6, 48833, Note_on_c, 4, 60, 0
6, 48843, Note_on_c, 4, 60, 100
6, 48843, Control_c, 4, 11, 42
6, 48859, Control_c, 4, 11, 43
6, 48875, Control_c, 4, 11, 44
6, 48891, Control_c, 4, 11, 45
6, 48907, Control_c, 4, 11, 46
6, 48923, Control_c, 4, 11, 47
6, 48939, Control_c, 4, 11, 48
6, 48955, Control_c, 4, 11, 49
6, 48971, Control_c, 4, 11, 50
6, 48987, Control_c, 4, 11, 51
6, 49003, Control_c, 4, 11, 52
6, 49019, Control_c, 4, 11, 53
6, 49035, Control_c, 4, 11, 54
6, 49051, Control_c, 4, 11, 55
6, 49067, Control_c, 4, 11, 56
6, 49083, Control_c, 4, 11, 57
6, 49099, Control_c, 4, 11, 58
6, 49115, Control_c, 4, 11, 59
6, 49131, Control_c, 4, 11, 60
6, 49147, Control_c, 4, 11, 61
6, 49163, Control_c, 4, 11, 62
6, 49179, Control_c, 4, 11, 63
6, 49195, Control_c, 4, 11, 64
6, 49211, Control_c, 4, 11, 65
6, 49227, Control_c, 4, 11, 66
6, 49243, Control_c, 4, 11, 67
6, 49259, Control_c, 4, 11, 68
6, 49275, Control_c, 4, 11, 69
6, 49291, Control_c, 4, 11, 70
6, 49307, Control_c, 4, 11, 71
6, 49323, Control_c, 4, 11, 72
6, 49339, Control_c, 4, 11, 73
6, 49355, Control_c, 4, 11, 74
6, 49371, Control_c, 4, 11, 75
6, 49387, Control_c, 4, 11, 76
6, 49403, Control_c, 4, 11, 77
6, 49419, Control_c, 4, 11, 78
6, 49435, Control_c, 4, 11, 79
6, 49451, Control_c, 4, 11, 80
6, 49467, Control_c, 4, 11, 81
6, 49483, Control_c, 4, 11, 82
6, 49499, Control_c, 4, 11, 83
6, 49515, Control_c, 4, 11, 84
6, 49531, Control_c, 4, 11, 85
6, 49547, Control_c, 4, 11, 86
6, 49553, Note_on_c, 4, 60, 0
6, 49563, Control_c, 4, 11, 87
6, 49563, Note_on_c, 4, 60, 100
6, 49623, Note_on_c, 4, 60, 0
6, 49683, Control_c, 4, 11, 107
6, 49683, Note_on_c, 4, 60, 100
6, 49692, Control_c, 4, 11, 104
6, 49701, Control_c, 4, 11, 101
6, 49710, Control_c, 4, 11, 98
6, 49719, Control_c, 4, 11, 95
6, 49728, Control_c, 4, 11, 92
6, 49737, Control_c, 4, 11, 89
6, 49913, Note_on_c, 4, 60, 0
6, 49923, Note_on_c, 4, 60, 100
6, 49983, Note_on_c, 4, 60, 0
6, 50043, Control_c, 4, 11, 107
6, 50043, Note_on_c, 4, 65, 115
6, 50052, Control_c, 4, 11, 104
6, 50061, Control_c, 4, 11, 101
6, 50070, Control_c, 4, 11, 98
6, 50079, Control_c, 4, 11, 95
6, 50088, Control_c, 4, 11, 92
6, 50097, Control_c, 4, 11, 89
6, 50283, Note_on_c, 4, 65, 0
6, 51243, Note_on_c, 4, 67, 100
6, 51243, Control_c, 4, 11, 107
6, 51252, Control_c, 4, 11, 104
6, 51261, Control_c, 4, 11, 101
6, 51270, Control_c, 4, 11, 98
6, 51279, Control_c, 4, 11, 95
6, 51288, Control_c, 4, 11, 92
6, 51297, Control_c, 4, 11, 89
6, 51303, Note_on_c, 4, 67, 0
6, 51603, Note_on_c, 4, 67, 100
6, 51603, Control_c, 4, 11, 107
6, 51612, Control_c, 4, 11, 104
6, 51621, Control_c, 4, 11, 101
6, 51630, Control_c, 4, 11, 98
6, 51639, Control_c, 4, 11, 95
6, 51648, Control_c, 4, 11, 92
6, 51657, Control_c, 4, 11, 89
6, 51663, Note_on_c, 4, 67, 0
6, 51963, Control_c, 4, 11, 107
6, 51963, Note_on_c, 4, 67, 100
6, 51972, Control_c, 4, 11, 104
6, 51981, Control_c, 4, 11, 101
6, 51990, Control_c, 4, 11, 98
6, 51999, Control_c, 4, 11, 95
6, 52008, Control_c, 4, 11, 92
6, 52017, Control_c, 4, 11, 89
6, 52023, Note_on_c, 4, 67, 0
6, 52323, Note_on_c, 4, 67, 100
6, 52323, Control_c, 4, 11, 107
6, 52332, Control_c, 4, 11, 104
6, 52341, Control_c, 4, 11, 101
6, 52350, Control_c, 4, 11, 98
6, 52359, Control_c, 4, 11, 95
6, 52368, Control_c, 4, 11, 92
6, 52377, Control_c, 4, 11, 89
6, 52383, Note_on_c, 4, 67, 0
6, 52443, Note_on_c, 4, 67, 100
6, 52503, Note_on_c, 4, 67, 0
6, 52563, Control_c, 4, 11, 107
6, 52563, Note_on_c, 4, 67, 100
6, 52572, Control_c, 4, 11, 104
6, 52581, Control_c, 4, 11, 101
6, 52590, Control_c, 4, 11, 98
6, 52599, Control_c, 4, 11, 95
6, 52608, Control_c, 4, 11, 92
6, 52617, Control_c, 4, 11, 89
6, 52623, Note_on_c, 4, 67, 0
6, 52683, Note_on_c, 4, 67, 100
6, 52743, Note_on_c, 4, 67, 0
6, 52923, Control_c, 4, 11, 107
6, 52923, Note_on_c, 4, 67, 100
6, 52932, Control_c, 4, 11, 104
6, 52941, Control_c, 4, 11, 101
6, 52950, Control_c, 4, 11, 98
6, 52959, Control_c, 4, 11, 95
6, 52968, Control_c, 4, 11, 92
6, 52977, Control_c, 4, 11, 89
6, 52983, Note_on_c, 4, 67, 0
6, 53043, Note_on_c, 4, 67, 100
6, 53103, Note_on_c, 4, 67, 0
6, 53283, Note_on_c, 4, 67, 100
6, 53283, Control_c, 4, 11, 107
6, 53292, Control_c, 4, 11, 104
6, 53301, Control_c, 4, 11, 101
6, 53310, Control_c, 4, 11, 98
6, 53319, Control_c, 4, 11, 95
6, 53328, Control_c, 4, 11, 92
6, 53337, Control_c, 4, 11, 89
6, 53343, Note_on_c, 4, 67, 0
6, 53403, Note_on_c, 4, 67, 100
6, 53463, Note_on_c, 4, 67, 0
6, 53643, Note_on_c, 4, 69, 100
6, 53643, Control_c, 4, 11, 107
6, 53652, Control_c, 4, 11, 104
6, 53661, Control_c, 4, 11, 101
6, 53670, Control_c, 4, 11, 98
6, 53679, Control_c, 4, 11, 95
6, 53688, Control_c, 4, 11, 92
6, 53697, Control_c, 4, 11, 89
6, 53703, Note_on_c, 4, 69, 0
6, 53763, Note_on_c, 4, 69, 100
6, 53823, Note_on_c, 4, 69, 0
6, 53883, Note_on_c, 4, 60, 100
6, 53883, Control_c, 4, 11, 77
6, 53943, Note_on_c, 4, 60, 0
6, 54003, Note_on_c, 4, 65, 100
6, 54003, Control_c, 4, 11, 87
6, 54012, Control_c, 4, 11, 84
6, 54021, Control_c, 4, 11, 81
6, 54030, Control_c, 4, 11, 78
6, 54039, Control_c, 4, 11, 75
6, 54048, Control_c, 4, 11, 72
6, 54057, Control_c, 4, 11, 69
6, 54066, Control_c, 4, 11, 66
6, 54075, Control_c, 4, 11, 63
6, 54084, Control_c, 4, 11, 60
6, 54093, Control_c, 4, 11, 57
6, 54102, Control_c, 4, 11, 54
6, 54111, Control_c, 4, 11, 51
6, 54120, Control_c, 4, 11, 48
6, 54603, Note_on_c, 4, 65, 0
6, 54603, Control_c, 4, 11, 47
6, 54603, Note_on_c, 4, 65, 100
6, 54659, Control_c, 4, 11, 46
6, 54715, Control_c, 4, 11, 45
6, 54771, Control_c, 4, 11, 44
6, 54827, Control_c, 4, 11, 43
6, 54883, Control_c, 4, 11, 42
6, 54939, Control_c, 4, 11, 41
6, 54963, Note_on_c, 4, 65, 0
6, 54963, Note_on_c, 4, 65, 100
6, 54995, Control_c, 4, 11, 40
6, 55051, Control_c, 4, 11, 39
6, 55107, Control_c, 4, 11, 38
6, 55163, Control_c, 4, 11, 37
6, 55219, Control_c, 4, 11, 36
6, 55275, Control_c, 4, 11, 35
6, 55323, Note_on_c, 4, 65, 0
6, 55331, Control_c, 4, 11, 34
6, 55387, Control_c, 4, 11, 33
6, 55443, Control_c, 4, 11, 37
6, 55443, Note_on_c, 4, 65, 72
6, 55503, Note_on_c, 4, 65, 0
6, 55683, Note_on_c, 4, 65, 72
6, 55743, Note_on_c, 4, 65, 0
6, 55923, Note_on_c, 4, 65, 72
6, 55983, Note_on_c, 4, 65, 0
6, 57483, Note_on_c, 4, 69, 100
6, 57483, Control_c, 4, 11, 37
6, 57505, Control_c, 4, 11, 38
6, 57528, Control_c, 4, 11, 39
6, 57543, Note_on_c, 4, 69, 0
6, 57551, Control_c, 4, 11, 40
6, 57574, Control_c, 4, 11, 41
6, 57597, Control_c, 4, 11, 42
6, 57603, Note_on_c, 4, 60, 100
6, 57619, Control_c, 4, 11, 43
6, 57642, Control_c, 4, 11, 44
6, 57658, Note_on_c, 4, 60, 0
6, 57663, Note_on_c, 4, 60, 100
6, 57665, Control_c, 4, 11, 45
6, 57688, Control_c, 4, 11, 46
6, 57711, Control_c, 4, 11, 47
6, 57733, Control_c, 4, 11, 48
6, 57756, Control_c, 4, 11, 49
6, 57778, Note_on_c, 4, 60, 0
6, 57779, Control_c, 4, 11, 50
6, 57783, Note_on_c, 4, 60, 100
6, 57802, Control_c, 4, 11, 51
6, 57825, Control_c, 4, 11, 52
6, 57847, Control_c, 4, 11, 53
6, 57870, Control_c, 4, 11, 54
6, 57893, Control_c, 4, 11, 55
6, 57898, Note_on_c, 4, 60, 0
6, 57903, Note_on_c, 4, 60, 100
6, 57916, Control_c, 4, 11, 56
6, 57939, Control_c, 4, 11, 57
6, 57961, Control_c, 4, 11, 58
6, 57984, Control_c, 4, 11, 59
6, 58007, Control_c, 4, 11, 60
6, 58018, Note_on_c, 4, 60, 0
6, 58023, Note_on_c, 4, 60, 100
6, 58030, Control_c, 4, 11, 61
6, 58053, Control_c, 4, 11, 62
6, 58075, Control_c, 4, 11, 63
6, 58098, Control_c, 4, 11, 64
6, 58121, Control_c, 4, 11, 65
6, 58138, Note_on_c, 4, 60, 0
6, 58143, Note_on_c, 4, 60, 100
6, 58144, Control_c, 4, 11, 66
6, 58167, Control_c, 4, 11, 67
6, 58189, Control_c, 4, 11, 68
6, 58212, Control_c, 4, 11, 69
6, 58235, Control_c, 4, 11, 70
6, 58258, Note_on_c, 4, 60, 0
6, 58258, Control_c, 4, 11, 71
6, 58263, Note_on_c, 4, 60, 100
6, 58281, Control_c, 4, 11, 72
6, 58303, Control_c, 4, 11, 73
6, 58326, Control_c, 4, 11, 74
6, 58349, Control_c, 4, 11, 75
6, 58372, Control_c, 4, 11, 76
6, 58378, Note_on_c, 4, 60, 0
6, 58383, Note_on_c, 4, 60, 100
6, 58395, Control_c, 4, 11, 77
6, 58417, Control_c, 4, 11, 78
6, 58440, Control_c, 4, 11, 79
6, 58463, Control_c, 4, 11, 80
6, 58486, Control_c, 4, 11, 81
6, 58498, Note_on_c, 4, 60, 0
6, 58503, Note_on_c, 4, 60, 100
6, 58509, Control_c, 4, 11, 82
6, 58531, Control_c, 4, 11, 83
6, 58554, Control_c, 4, 11, 84
6, 58577, Control_c, 4, 11, 85
6, 58600, Control_c, 4, 11, 86
6, 58618, Note_on_c, 4, 60, 0
6, 58623, Control_c, 4, 11, 87
6, 58623, Note_on_c, 4, 60, 100
6, 58738, Note_on_c, 4, 60, 0
6, 58743, Note_on_c, 4, 60, 100
6, 58858, Note_on_c, 4, 60, 0
6, 58863, Note_on_c, 4, 60, 100
6, 58978, Note_on_c, 4, 60, 0
6, 58983, Note_on_c, 4, 60, 100
6, 59098, Note_on_c, 4, 60, 0
6, 59103, Note_on_c, 4, 60, 100
6, 59158, Note_on_c, 4, 60, 0
6, 59163, Note_on_c, 4, 65, 100
6, 59218, Note_on_c, 4, 65, 0
6, 59223, Note_on_c, 4, 65, 100
6, 59338, Note_on_c, 4, 65, 0
6, 59343, Note_on_c, 4, 65, 100
6, 59458, Note_on_c, 4, 65, 0
6, 59463, Note_on_c, 4, 65, 100
6, 59578, Note_on_c, 4, 65, 0
6, 60363, Control_c, 4, 11, 102
6, 60363, Note_on_c, 4, 60, 100
6, 60423, Note_on_c, 4, 60, 0
6, 60483, Control_c, 4, 11, 122
6, 60483, Note_on_c, 4, 65, 100
6, 60496, Control_c, 4, 11, 119
6, 60510, Control_c, 4, 11, 116
6, 60523, Control_c, 4, 11, 113
6, 60537, Control_c, 4, 11, 110
6, 60550, Control_c, 4, 11, 107
6, 60564, Control_c, 4, 11, 104
6, 60663, Note_on_c, 4, 65, 0
6, 60663, Note_on_c, 4, 60, 100
6, 60708, Note_on_c, 4, 60, 0
6, 60723, Note_on_c, 4, 57, 100
6, 60768, Note_on_c, 4, 57, 0
6, 60783, Note_on_c, 4, 53, 100
6, 60828, Note_on_c, 4, 53, 0
6, 60843, Note_on_c, 4, 60, 100
6, 60963, Note_on_c, 4, 60, 0
6, 61083, Note_on_c, 4, 60, 100
6, 61143, Note_on_c, 4, 60, 0
6, 61203, Control_c, 4, 11, 122
6, 61203, Note_on_c, 4, 65, 100
6, 61216, Control_c, 4, 11, 119
6, 61230, Control_c, 4, 11, 116
6, 61243, Control_c, 4, 11, 113
6, 61257, Control_c, 4, 11, 110
6, 61270, Control_c, 4, 11, 107
6, 61284, Control_c, 4, 11, 104
6, 61383, Note_on_c, 4, 65, 0
6, 61383, Note_on_c, 4, 60, 100
6, 61428, Note_on_c, 4, 60, 0
6, 61443, Note_on_c, 4, 57, 100
6, 61488, Note_on_c, 4, 57, 0
6, 61503, Note_on_c, 4, 53, 100
6, 61548, Note_on_c, 4, 53, 0
6, 61563, Note_on_c, 4, 60, 100
6, 61623, Note_on_c, 4, 60, 0
6, 61803, Control_c, 4, 11, 112
6, 61803, Note_on_c, 4, 67, 100
6, 61821, Control_c, 4, 11, 109
6, 61839, Control_c, 4, 11, 106
6, 61857, Control_c, 4, 11, 103
6, 61875, Control_c, 4, 11, 100
6, 61893, Control_c, 4, 11, 97
6, 61911, Control_c, 4, 11, 94
6, 61923, Note_on_c, 4, 67, 0
6, 61923, Note_on_c, 4, 69, 100
6, 61983, Note_on_c, 4, 69, 0
6, 62283, Note_on_c, 4, 67, 100
6, 62283, Control_c, 4, 11, 112
6, 62301, Control_c, 4, 11, 109
6, 62319, Control_c, 4, 11, 106
6, 62337, Control_c, 4, 11, 103
6, 62355, Control_c, 4, 11, 100
6, 62373, Control_c, 4, 11, 97
6, 62391, Control_c, 4, 11, 94
6, 62403, Note_on_c, 4, 67, 0
6, 62403, Note_on_c, 4, 69, 100
6, 62463, Note_on_c, 4, 69, 0
6, 63003, Note_on_c, 4, 60, 100
6, 63003, Control_c, 4, 11, 87
6, 63123, Note_on_c, 4, 60, 0
6, 63123, Note_on_c, 4, 65, 100
6, 63183, Note_on_c, 4, 65, 0
6, 63723, Control_c, 4, 121, 0
6, 63723, End_track
7, 0, Start_track
7, 0, MIDI_port, 0
7, 0, Title_t, "Corno II in F"
7, 0, Program_c, 5, 60
7, 0, Control_c, 5, 10, 28
7, 7, Control_c, 5, 121, 0
7, 12, Program_c, 5, 60
7, 17, Pitch_bend_c, 5, 8092
7, 22, Control_c, 5, 11, 87
7, 27, Control_c, 5, 7, 127
7, 32, Control_c, 5, 91, 80
7, 37, Control_c, 5, 93, 0
7, 1327, Control_c, 5, 11, 42
7, 1327, Note_on_c, 5, 48, 100
7, 1387, Note_on_c, 5, 48, 0
7, 1447, Note_on_c, 5, 48, 100
7, 2037, Note_on_c, 5, 48, 0
7, 2047, Control_c, 5, 11, 42
7, 2047, Note_on_c, 5, 48, 100
7, 2063, Control_c, 5, 11, 43
7, 2079, Control_c, 5, 11, 44
7, 2095, Control_c, 5, 11, 45
7, 2111, Control_c, 5, 11, 46
7, 2127, Control_c, 5, 11, 47
7, 2143, Control_c, 5, 11, 48
7, 2159, Control_c, 5, 11, 49
7, 2175, Control_c, 5, 11, 50
7, 2191, Control_c, 5, 11, 51
7, 2207, Control_c, 5, 11, 52
7, 2223, Control_c, 5, 11, 53
7, 2239, Control_c, 5, 11, 54
7, 2255, Control_c, 5, 11, 55
7, 2271, Control_c, 5, 11, 56
7, 2287, Control_c, 5, 11, 57
7, 2303, Control_c, 5, 11, 58
7, 2319, Control_c, 5, 11, 59
7, 2335, Control_c, 5, 11, 60
7, 2351, Control_c, 5, 11, 61
7, 2367, Control_c, 5, 11, 62
7, 2383, Control_c, 5, 11, 63
7, 2399, Control_c, 5, 11, 64
7, 2415, Control_c, 5, 11, 65
7, 2431, Control_c, 5, 11, 66
7, 2447, Control_c, 5, 11, 67
7, 2463, Control_c, 5, 11, 68
7, 2479, Control_c, 5, 11, 69
7, 2495, Control_c, 5, 11, 70
7, 2511, Control_c, 5, 11, 71
7, 2527, Control_c, 5, 11, 72
7, 2543, Control_c, 5, 11, 73
7, 2559, Control_c, 5, 11, 74
7, 2575, Control_c, 5, 11, 75
7, 2591, Control_c, 5, 11, 76
7, 2607, Control_c, 5, 11, 77
7, 2623, Control_c, 5, 11, 78
7, 2639, Control_c, 5, 11, 79
7, 2655, Control_c, 5, 11, 80
7, 2671, Control_c, 5, 11, 81
7, 2687, Control_c, 5, 11, 82
7, 2703, Control_c, 5, 11, 83
7, 2719, Control_c, 5, 11, 84
7, 2735, Control_c, 5, 11, 85
7, 2751, Control_c, 5, 11, 86
7, 2757, Note_on_c, 5, 48, 0
7, 2767, Control_c, 5, 11, 87
7, 2767, Note_on_c, 5, 48, 100
7, 2827, Note_on_c, 5, 48, 0
7, 2887, Control_c, 5, 11, 107
7, 2887, Note_on_c, 5, 48, 100
7, 2896, Control_c, 5, 11, 104
7, 2905, Control_c, 5, 11, 101
7, 2914, Control_c, 5, 11, 98
7, 2923, Control_c, 5, 11, 95
7, 2932, Control_c, 5, 11, 92
7, 2941, Control_c, 5, 11, 89
7, 3117, Note_on_c, 5, 48, 0
7, 3127, Note_on_c, 5, 48, 100
7, 3187, Note_on_c, 5, 48, 0
7, 3247, Control_c, 5, 11, 107
7, 3247, Note_on_c, 5, 53, 115
7, 3256, Control_c, 5, 11, 104
7, 3265, Control_c, 5, 11, 101
7, 3274, Control_c, 5, 11, 98
7, 3283, Control_c, 5, 11, 95
7, 3292, Control_c, 5, 11, 92
7, 3301, Control_c, 5, 11, 89
7, 3487, Note_on_c, 5, 53, 0
7, 4927, Control_c, 5, 11, 42
7, 4927, Note_on_c, 5, 48, 100
7, 4987, Note_on_c, 5, 48, 0
7, 5047, Note_on_c, 5, 48, 100
7, 5637, Note_on_c, 5, 48, 0
7, 5647, Control_c, 5, 11, 42
7, 5647, Note_on_c, 5, 48, 100
7, 5663, Control_c, 5, 11, 43
7, 5679, Control_c, 5, 11, 44
7, 5695, Control_c, 5, 11, 45
7, 5711, Control_c, 5, 11, 46
7, 5727, Control_c, 5, 11, 47
7, 5743, Control_c, 5, 11, 48
7, 5759, Control_c, 5, 11, 49
7, 5775, Control_c, 5, 11, 50
7, 5791, Control_c, 5, 11, 51
7, 5807, Control_c, 5, 11, 52
7, 5823, Control_c, 5, 11, 53
7, 5839, Control_c, 5, 11, 54
7, 5855, Control_c, 5, 11, 55
7, 5871, Control_c, 5, 11, 56
7, 5887, Control_c, 5, 11, 57
7, 5903, Control_c, 5, 11, 58
7, 5919, Control_c, 5, 11, 59
7, 5935, Control_c, 5, 11, 60
7, 5951, Control_c, 5, 11, 61
7, 5967, Control_c, 5, 11, 62
7, 5983, Control_c, 5, 11, 63
7, 5999, Control_c, 5, 11, 64
7, 6015, Control_c, 5, 11, 65
7, 6031, Control_c, 5, 11, 66
7, 6047, Control_c, 5, 11, 67
7, 6063, Control_c, 5, 11, 68
7, 6079, Control_c, 5, 11, 69
7, 6095, Control_c, 5, 11, 70
7, 6111, Control_c, 5, 11, 71
7, 6127, Control_c, 5, 11, 72
7, 6143, Control_c, 5, 11, 73
7, 6159, Control_c, 5, 11, 74
7, 6175, Control_c, 5, 11, 75
7, 6191, Control_c, 5, 11, 76
7, 6207, Control_c, 5, 11, 77
7, 6223, Control_c, 5, 11, 78
7, 6239, Control_c, 5, 11, 79
7, 6255, Control_c, 5, 11, 80
7, 6271, Control_c, 5, 11, 81
7, 6287, Control_c, 5, 11, 82
7, 6303, Control_c, 5, 11, 83
7, 6319, Control_c, 5, 11, 84
7, 6335, Control_c, 5, 11, 85
7, 6351, Control_c, 5, 11, 86
7, 6357, Note_on_c, 5, 48, 0
7, 6367, Control_c, 5, 11, 87
7, 6367, Note_on_c, 5, 48, 100
7, 6427, Note_on_c, 5, 48, 0
7, 6487, Control_c, 5, 11, 107
7, 6487, Note_on_c, 5, 48, 100
7, 6496, Control_c, 5, 11, 104
7, 6505, Control_c, 5, 11, 101
7, 6514, Control_c, 5, 11, 98
7, 6523, Control_c, 5, 11, 95
7, 6532, Control_c, 5, 11, 92
7, 6541, Control_c, 5, 11, 89
7, 6717, Note_on_c, 5, 48, 0
7, 6727, Note_on_c, 5, 48, 100
7, 6787, Note_on_c, 5, 48, 0
7, 6847, Control_c, 5, 11, 107
7, 6847, Note_on_c, 5, 53, 115
7, 6856, Control_c, 5, 11, 104
7, 6865, Control_c, 5, 11, 101
7, 6874, Control_c, 5, 11, 98
7, 6883, Control_c, 5, 11, 95
7, 6892, Control_c, 5, 11, 92
7, 6901, Control_c, 5, 11, 89
7, 7087, Note_on_c, 5, 53, 0
7, 8047, Control_c, 5, 11, 107
7, 8047, Note_on_c, 5, 67, 100
7, 8056, Control_c, 5, 11, 104
7, 8065, Control_c, 5, 11, 101
7, 8074, Control_c, 5, 11, 98
7, 8083, Control_c, 5, 11, 95
7, 8092, Control_c, 5, 11, 92
7, 8101, Control_c, 5, 11, 89
7, 8107, Note_on_c, 5, 67, 0
7, 8407, Control_c, 5, 11, 107
7, 8407, Note_on_c, 5, 67, 100
7, 8416, Control_c, 5, 11, 104
7, 8425, Control_c, 5, 11, 101
7, 8434, Control_c, 5, 11, 98
7, 8443, Control_c, 5, 11, 95
7, 8452, Control_c, 5, 11, 92
7, 8461, Control_c, 5, 11, 89
7, 8467, Note_on_c, 5, 67, 0
7, 8767, Control_c, 5, 11, 107
7, 8767, Note_on_c, 5, 67, 100
7, 8776, Control_c, 5, 11, 104
7, 8785, Control_c, 5, 11, 101
7, 8794, Control_c, 5, 11, 98
7, 8803, Control_c, 5, 11, 95
7, 8812, Control_c, 5, 11, 92
7, 8821, Control_c, 5, 11, 89
7, 8827, Note_on_c, 5, 67, 0
7, 9127, Control_c, 5, 11, 107
7, 9127, Note_on_c, 5, 67, 100
7, 9136, Control_c, 5, 11, 104
7, 9145, Control_c, 5, 11, 101
7, 9154, Control_c, 5, 11, 98
7, 9163, Control_c, 5, 11, 95
7, 9172, Control_c, 5, 11, 92
7, 9181, Control_c, 5, 11, 89
7, 9187, Note_on_c, 5, 67, 0
7, 9247, Note_on_c, 5, 67, 100
7, 9307, Note_on_c, 5, 67, 0
7, 9367, Control_c, 5, 11, 107
7, 9367, Note_on_c, 5, 67, 100
7, 9376, Control_c, 5, 11, 104
7, 9385, Control_c, 5, 11, 101
7, 9394, Control_c, 5, 11, 98
7, 9403, Control_c, 5, 11, 95
7, 9412, Control_c, 5, 11, 92
7, 9421, Control_c, 5, 11, 89
7, 9427, Note_on_c, 5, 67, 0
7, 9487, Note_on_c, 5, 67, 100
7, 9547, Note_on_c, 5, 67, 0
7, 9727, Control_c, 5, 11, 107
7, 9727, Note_on_c, 5, 67, 100
7, 9736, Control_c, 5, 11, 104
7, 9745, Control_c, 5, 11, 101
7, 9754, Control_c, 5, 11, 98
7, 9763, Control_c, 5, 11, 95
7, 9772, Control_c, 5, 11, 92
7, 9781, Control_c, 5, 11, 89
7, 9787, Note_on_c, 5, 67, 0
7, 9847, Note_on_c, 5, 67, 100
7, 9907, Note_on_c, 5, 67, 0
7, 10087, Control_c, 5, 11, 107
7, 10087, Note_on_c, 5, 60, 100
7, 10096, Control_c, 5, 11, 104
7, 10105, Control_c, 5, 11, 101
7, 10114, Control_c, 5, 11, 98
7, 10123, Control_c, 5, 11, 95
7, 10132, Control_c, 5, 11, 92
7, 10141, Control_c, 5, 11, 89
7, 10147, Note_on_c, 5, 60, 0
7, 10207, Note_on_c, 5, 60, 100
7, 10267, Note_on_c, 5, 60, 0
7, 10447, Control_c, 5, 11, 107
7, 10447, Note_on_c, 5, 65, 100
7, 10456, Control_c, 5, 11, 104
7, 10465, Control_c, 5, 11, 101
7, 10474, Control_c, 5, 11, 98
7, 10483, Control_c, 5, 11, 95
7, 10492, Control_c, 5, 11, 92
7, 10501, Control_c, 5, 11, 89
7, 10507, Note_on_c, 5, 65, 0
7, 10567, Note_on_c, 5, 65, 100
7, 10627, Note_on_c, 5, 65, 0
7, 10687, Control_c, 5, 11, 77
7, 10687, Note_on_c, 5, 48, 100
7, 10747, Note_on_c, 5, 48, 0
7, 10807, Control_c, 5, 11, 87
7, 10807, Note_on_c, 5, 53, 100
7, 10816, Control_c, 5, 11, 84
7, 10825, Control_c, 5, 11, 81
7, 10834, Control_c, 5, 11, 78
7, 10843, Control_c, 5, 11, 75
7, 10852, Control_c, 5, 11, 72
7, 10861, Control_c, 5, 11, 69
7, 10870, Control_c, 5, 11, 66
7, 10879, Control_c, 5, 11, 63
7, 10888, Control_c, 5, 11, 60
7, 10897, Control_c, 5, 11, 57
7, 10906, Control_c, 5, 11, 54
7, 10915, Control_c, 5, 11, 51
7, 10924, Control_c, 5, 11, 48
7, 11407, Note_on_c, 5, 53, 0
7, 11407, Control_c, 5, 11, 47
7, 11407, Note_on_c, 5, 53, 100
7, 11463, Control_c, 5, 11, 46
7, 11519, Control_c, 5, 11, 45
7, 11575, Control_c, 5, 11, 44
7, 11631, Control_c, 5, 11, 43
7, 11687, Control_c, 5, 11, 42
7, 11743, Control_c, 5, 11, 41
7, 11767, Note_on_c, 5, 53, 0
7, 11767, Note_on_c, 5, 53, 100
7, 11799, Control_c, 5, 11, 40
7, 11855, Control_c, 5, 11, 39
7, 11911, Control_c, 5, 11, 38
7, 11967, Control_c, 5, 11, 37
7, 12023, Control_c, 5, 11, 36
7, 12079, Control_c, 5, 11, 35
7, 12127, Note_on_c, 5, 53, 0
7, 12135, Control_c, 5, 11, 34
7, 12191, Control_c, 5, 11, 33
7, 12247, Control_c, 5, 11, 37
7, 12247, Note_on_c, 5, 53, 72
7, 12307, Note_on_c, 5, 53, 0
7, 12487, Note_on_c, 5, 53, 72
7, 12547, Note_on_c, 5, 53, 0
7, 12727, Note_on_c, 5, 53, 72
7, 12787, Note_on_c, 5, 53, 0
7, 14287, Control_c, 5, 11, 37
7, 14287, Note_on_c, 5, 57, 100
7, 14309, Control_c, 5, 11, 38
7, 14332, Control_c, 5, 11, 39
7, 14347, Note_on_c, 5, 57, 0
7, 14355, Control_c, 5, 11, 40
7, 14378, Control_c, 5, 11, 41
7, 14401, Control_c, 5, 11, 42
7, 14407, Note_on_c, 5, 48, 100
7, 14423, Control_c, 5, 11, 43
7, 14446, Control_c, 5, 11, 44
7, 14462, Note_on_c, 5, 48, 0
7, 14467, Note_on_c, 5, 48, 100
7, 14469, Control_c, 5, 11, 45
7, 14492, Control_c, 5, 11, 46
7, 14515, Control_c, 5, 11, 47
7, 14537, Control_c, 5, 11, 48
7, 14560, Control_c, 5, 11, 49
7, 14582, Note_on_c, 5, 48, 0
7, 14583, Control_c, 5, 11, 50
7, 14587, Note_on_c, 5, 48, 100
7, 14606, Control_c, 5, 11, 51
7, 14629, Control_c, 5, 11, 52
7, 14651, Control_c, 5, 11, 53
7, 14674, Control_c, 5, 11, 54
7, 14697, Control_c, 5, 11, 55
7, 14702, Note_on_c, 5, 48, 0
7, 14707, Note_on_c, 5, 48, 100
7, 14720, Control_c, 5, 11, 56
7, 14743, Control_c, 5, 11, 57
7, 14765, Control_c, 5, 11, 58
7, 14788, Control_c, 5, 11, 59
7, 14811, Control_c, 5, 11, 60
7, 14822, Note_on_c, 5, 48, 0
7, 14827, Note_on_c, 5, 48, 100
7, 14834, Control_c, 5, 11, 61
7, 14857, Control_c, 5, 11, 62
7, 14879, Control_c, 5, 11, 63
7, 14902, Control_c, 5, 11, 64
7, 14925, Control_c, 5, 11, 65
7, 14942, Note_on_c, 5, 48, 0
7, 14947, Note_on_c, 5, 48, 100
7, 14948, Control_c, 5, 11, 66
7, 14971, Control_c, 5, 11, 67
7, 14993, Control_c, 5, 11, 68
7, 15016, Control_c, 5, 11, 69
7, 15039, Control_c, 5, 11, 70
7, 15062, Note_on_c, 5, 48, 0
7, 15062, Control_c, 5, 11, 71
7, 15067, Note_on_c, 5, 48, 100
7, 15085, Control_c, 5, 11, 72
7, 15107, Control_c, 5, 11, 73
7, 15130, Control_c, 5, 11, 74
7, 15153, Control_c, 5, 11, 75
7, 15176, Control_c, 5, 11, 76
7, 15182, Note_on_c, 5, 48, 0
7, 15187, Note_on_c, 5, 48, 100
7, 15199, Control_c, 5, 11, 77
7, 15221, Control_c, 5, 11, 78
7, 15244, Control_c, 5, 11, 79
7, 15267, Control_c, 5, 11, 80
7, 15290, Control_c, 5, 11, 81
7, 15302, Note_on_c, 5, 48, 0
7, 15307, Note_on_c, 5, 48, 100
7, 15313, Control_c, 5, 11, 82
7, 15335, Control_c, 5, 11, 83
7, 15358, Control_c, 5, 11, 84
7, 15381, Control_c, 5, 11, 85
7, 15404, Control_c, 5, 11, 86
7, 15422, Note_on_c, 5, 48, 0
7, 15427, Control_c, 5, 11, 87
7, 15427, Note_on_c, 5, 48, 100
7, 15542, Note_on_c, 5, 48, 0
7, 15547, Note_on_c, 5, 48, 100
7, 15662, Note_on_c, 5, 48, 0
7, 15667, Note_on_c, 5, 48, 100
7, 15782, Note_on_c, 5, 48, 0
7, 15787, Note_on_c, 5, 48, 100
7, 15902, Note_on_c, 5, 48, 0
7, 15907, Note_on_c, 5, 48, 100
7, 15962, Note_on_c, 5, 48, 0
7, 15967, Note_on_c, 5, 53, 100
7, 16022, Note_on_c, 5, 53, 0
7, 16027, Note_on_c, 5, 53, 100
7, 16142, Note_on_c, 5, 53, 0
7, 16147, Note_on_c, 5, 53, 100
7, 16262, Note_on_c, 5, 53, 0
7, 16267, Note_on_c, 5, 53, 100
7, 16382, Note_on_c, 5, 53, 0
7, 17167, Control_c, 5, 11, 102
7, 17167, Note_on_c, 5, 60, 100
7, 17227, Note_on_c, 5, 60, 0
7, 17287, Control_c, 5, 11, 122
7, 17287, Note_on_c, 5, 65, 100
7, 17300, Control_c, 5, 11, 119
7, 17314, Control_c, 5, 11, 116
7, 17327, Control_c, 5, 11, 113
7, 17341, Control_c, 5, 11, 110
7, 17354, Control_c, 5, 11, 107
7, 17368, Control_c, 5, 11, 104
7, 17467, Note_on_c, 5, 65, 0
7, 17467, Note_on_c, 5, 60, 100
7, 17512, Note_on_c, 5, 60, 0
7, 17527, Note_on_c, 5, 57, 100
7, 17572, Note_on_c, 5, 57, 0
7, 17587, Note_on_c, 5, 53, 100
7, 17632, Note_on_c, 5, 53, 0
7, 17647, Note_on_c, 5, 48, 100
7, 17767, Note_on_c, 5, 48, 0
7, 17887, Note_on_c, 5, 60, 100
7, 17947, Note_on_c, 5, 60, 0
7, 18007, Control_c, 5, 11, 122
7, 18007, Note_on_c, 5, 65, 100
7, 18020, Control_c, 5, 11, 119
7, 18034, Control_c, 5, 11, 116
7, 18047, Control_c, 5, 11, 113
7, 18061, Control_c, 5, 11, 110
7, 18074, Control_c, 5, 11, 107
7, 18088, Control_c, 5, 11, 104
7, 18187, Note_on_c, 5, 65, 0
7, 18187, Note_on_c, 5, 60, 100
7, 18232, Note_on_c, 5, 60, 0
7, 18247, Note_on_c, 5, 57, 100
7, 18292, Note_on_c, 5, 57, 0
7, 18307, Note_on_c, 5, 53, 100
7, 18352, Note_on_c, 5, 53, 0
7, 18367, Note_on_c, 5, 48, 100
7, 18427, Note_on_c, 5, 48, 0
7, 18607, Control_c, 5, 11, 112
7, 18607, Note_on_c, 5, 60, 100
7, 18625, Control_c, 5, 11, 109
7, 18643, Control_c, 5, 11, 106
7, 18661, Control_c, 5, 11, 103
7, 18679, Control_c, 5, 11, 100
7, 18697, Control_c, 5, 11, 97
7, 18715, Control_c, 5, 11, 94
7, 18727, Note_on_c, 5, 60, 0
7, 18727, Note_on_c, 5, 65, 100
7, 18787, Note_on_c, 5, 65, 0
7, 19087, Control_c, 5, 11, 112
7, 19087, Note_on_c, 5, 60, 100
7, 19105, Control_c, 5, 11, 109
7, 19123, Control_c, 5, 11, 106
7, 19141, Control_c, 5, 11, 103
7, 19159, Control_c, 5, 11, 100
7, 19177, Control_c, 5, 11, 97
7, 19195, Control_c, 5, 11, 94
7, 19207, Note_on_c, 5, 60, 0
7, 19207, Note_on_c, 5, 65, 100
7, 19267, Note_on_c, 5, 65, 0
7, 19807, Control_c, 5, 11, 87
7, 19807, Note_on_c, 5, 48, 100
7, 19927, Note_on_c, 5, 48, 0
7, 19927, Note_on_c, 5, 53, 100
7, 19987, Note_on_c, 5, 53, 0
7, 20287, Control_c, 5, 11, 107
7, 20287, Note_on_c, 5, 67, 100
7, 20296, Control_c, 5, 11, 104
7, 20305, Control_c, 5, 11, 101
7, 20314, Control_c, 5, 11, 98
7, 20323, Control_c, 5, 11, 95
7, 20332, Control_c, 5, 11, 92
7, 20341, Control_c, 5, 11, 89
7, 20347, Note_on_c, 5, 67, 0
7, 20647, Control_c, 5, 11, 107
7, 20647, Note_on_c, 5, 67, 100
7, 20656, Control_c, 5, 11, 104
7, 20665, Control_c, 5, 11, 101
7, 20674, Control_c, 5, 11, 98
7, 20683, Control_c, 5, 11, 95
7, 20692, Control_c, 5, 11, 92
7, 20701, Control_c, 5, 11, 89
7, 20707, Note_on_c, 5, 67, 0
7, 21007, Control_c, 5, 11, 107
7, 21007, Note_on_c, 5, 67, 100
7, 21016, Control_c, 5, 11, 104
7, 21025, Control_c, 5, 11, 101
7, 21034, Control_c, 5, 11, 98
7, 21043, Control_c, 5, 11, 95
7, 21052, Control_c, 5, 11, 92
7, 21061, Control_c, 5, 11, 89
7, 21067, Note_on_c, 5, 67, 0
7, 21367, Control_c, 5, 11, 107
7, 21367, Note_on_c, 5, 67, 100
7, 21376, Control_c, 5, 11, 104
7, 21385, Control_c, 5, 11, 101
7, 21394, Control_c, 5, 11, 98
7, 21403, Control_c, 5, 11, 95
7, 21412, Control_c, 5, 11, 92
7, 21421, Control_c, 5, 11, 89
7, 21427, Note_on_c, 5, 67, 0
7, 21487, Note_on_c, 5, 67, 100
7, 21547, Note_on_c, 5, 67, 0
7, 21607, Control_c, 5, 11, 107
7, 21607, Note_on_c, 5, 67, 100
7, 21616, Control_c, 5, 11, 104
7, 21625, Control_c, 5, 11, 101
7, 21634, Control_c, 5, 11, 98
7, 21643, Control_c, 5, 11, 95
7, 21652, Control_c, 5, 11, 92
7, 21661, Control_c, 5, 11, 89
7, 21667, Note_on_c, 5, 67, 0
7, 21727, Note_on_c, 5, 67, 100
7, 21787, Note_on_c, 5, 67, 0
7, 21967, Control_c, 5, 11, 107
7, 21967, Note_on_c, 5, 67, 100
7, 21976, Control_c, 5, 11, 104
7, 21985, Control_c, 5, 11, 101
7, 21994, Control_c, 5, 11, 98
7, 22003, Control_c, 5, 11, 95
7, 22012, Control_c, 5, 11, 92
7, 22021, Control_c, 5, 11, 89
7, 22027, Note_on_c, 5, 67, 0
7, 22087, Note_on_c, 5, 67, 100
7, 22147, Note_on_c, 5, 67, 0
7, 22327, Control_c, 5, 11, 107
7, 22327, Note_on_c, 5, 60, 100
7, 22336, Control_c, 5, 11, 104
7, 22345, Control_c, 5, 11, 101
7, 22354, Control_c, 5, 11, 98
7, 22363, Control_c, 5, 11, 95
7, 22372, Control_c, 5, 11, 92
7, 22381, Control_c, 5, 11, 89
7, 22387, Note_on_c, 5, 60, 0
7, 22447, Note_on_c, 5, 60, 100
7, 22507, Note_on_c, 5, 60, 0
7, 22687, Control_c, 5, 11, 107
7, 22687, Note_on_c, 5, 65, 100
7, 22696, Control_c, 5, 11, 104
7, 22705, Control_c, 5, 11, 101
7, 22714, Control_c, 5, 11, 98
7, 22723, Control_c, 5, 11, 95
7, 22732, Control_c, 5, 11, 92
7, 22741, Control_c, 5, 11, 89
7, 22747, Note_on_c, 5, 65, 0
7, 22807, Note_on_c, 5, 65, 100
7, 22867, Note_on_c, 5, 65, 0
7, 22927, Control_c, 5, 11, 77
7, 22927, Note_on_c, 5, 48, 100
7, 22987, Note_on_c, 5, 48, 0
7, 23047, Control_c, 5, 11, 87
7, 23047, Note_on_c, 5, 53, 100
7, 23056, Control_c, 5, 11, 84
7, 23065, Control_c, 5, 11, 81
7, 23074, Control_c, 5, 11, 78
7, 23083, Control_c, 5, 11, 75
7, 23092, Control_c, 5, 11, 72
7, 23101, Control_c, 5, 11, 69
7, 23110, Control_c, 5, 11, 66
7, 23119, Control_c, 5, 11, 63
7, 23128, Control_c, 5, 11, 60
7, 23137, Control_c, 5, 11, 57
7, 23146, Control_c, 5, 11, 54
7, 23155, Control_c, 5, 11, 51
7, 23164, Control_c, 5, 11, 48
7, 23647, Note_on_c, 5, 53, 0
7, 23647, Control_c, 5, 11, 47
7, 23647, Note_on_c, 5, 53, 100
7, 23703, Control_c, 5, 11, 46
7, 23759, Control_c, 5, 11, 45
7, 23815, Control_c, 5, 11, 44
7, 23871, Control_c, 5, 11, 43
7, 23927, Control_c, 5, 11, 42
7, 23983, Control_c, 5, 11, 41
7, 24007, Note_on_c, 5, 53, 0
7, 24007, Note_on_c, 5, 53, 100
7, 24039, Control_c, 5, 11, 40
7, 24095, Control_c, 5, 11, 39
7, 24151, Control_c, 5, 11, 38
7, 24207, Control_c, 5, 11, 37
7, 24263, Control_c, 5, 11, 36
7, 24319, Control_c, 5, 11, 35
7, 24367, Note_on_c, 5, 53, 0
7, 24375, Control_c, 5, 11, 34
7, 24431, Control_c, 5, 11, 33
7, 24487, Control_c, 5, 11, 37
7, 24487, Note_on_c, 5, 53, 72
7, 24547, Note_on_c, 5, 53, 0
7, 24727, Note_on_c, 5, 53, 72
7, 24787, Note_on_c, 5, 53, 0
7, 24967, Note_on_c, 5, 53, 72
7, 25027, Note_on_c, 5, 53, 0
7, 26527, Control_c, 5, 11, 37
7, 26527, Note_on_c, 5, 57, 100
7, 26549, Control_c, 5, 11, 38
7, 26572, Control_c, 5, 11, 39
7, 26587, Note_on_c, 5, 57, 0
7, 26595, Control_c, 5, 11, 40
7, 26618, Control_c, 5, 11, 41
7, 26641, Control_c, 5, 11, 42
7, 26647, Note_on_c, 5, 48, 100
7, 26663, Control_c, 5, 11, 43
7, 26686, Control_c, 5, 11, 44
7, 26702, Note_on_c, 5, 48, 0
7, 26707, Note_on_c, 5, 48, 100
7, 26709, Control_c, 5, 11, 45
7, 26732, Control_c, 5, 11, 46
7, 26755, Control_c, 5, 11, 47
7, 26777, Control_c, 5, 11, 48
7, 26800, Control_c, 5, 11, 49
7, 26822, Note_on_c, 5, 48, 0
7, 26823, Control_c, 5, 11, 50
7, 26827, Note_on_c, 5, 48, 100
7, 26846, Control_c, 5, 11, 51
7, 26869, Control_c, 5, 11, 52
7, 26891, Control_c, 5, 11, 53
7, 26914, Control_c, 5, 11, 54
7, 26937, Control_c, 5, 11, 55
7, 26942, Note_on_c, 5, 48, 0
7, 26947, Note_on_c, 5, 48, 100
7, 26960, Control_c, 5, 11, 56
7, 26983, Control_c, 5, 11, 57
7, 27005, Control_c, 5, 11, 58
7, 27028, Control_c, 5, 11, 59
7, 27051, Control_c, 5, 11, 60
7, 27062, Note_on_c, 5, 48, 0
7, 27067, Note_on_c, 5, 48, 100
7, 27074, Control_c, 5, 11, 61
7, 27097, Control_c, 5, 11, 62
7, 27119, Control_c, 5, 11, 63
7, 27142, Control_c, 5, 11, 64
7, 27165, Control_c, 5, 11, 65
7, 27182, Note_on_c, 5, 48, 0
7, 27187, Note_on_c, 5, 48, 100
7, 27188, Control_c, 5, 11, 66
7, 27211, Control_c, 5, 11, 67
7, 27233, Control_c, 5, 11, 68
7, 27256, Control_c, 5, 11, 69
7, 27279, Control_c, 5, 11, 70
7, 27302, Note_on_c, 5, 48, 0
7, 27302, Control_c, 5, 11, 71
7, 27307, Note_on_c, 5, 48, 100
7, 27325, Control_c, 5, 11, 72
7, 27347, Control_c, 5, 11, 73
7, 27370, Control_c, 5, 11, 74
7, 27393, Control_c, 5, 11, 75
7, 27416, Control_c, 5, 11, 76
7, 27422, Note_on_c, 5, 48, 0
7, 27427, Note_on_c, 5, 48, 100
7, 27439, Control_c, 5, 11, 77
7, 27461, Control_c, 5, 11, 78
7, 27484, Control_c, 5, 11, 79
7, 27507, Control_c, 5, 11, 80
7, 27530, Control_c, 5, 11, 81
7, 27542, Note_on_c, 5, 48, 0
7, 27547, Note_on_c, 5, 48, 100
7, 27553, Control_c, 5, 11, 82
7, 27575, Control_c, 5, 11, 83
7, 27598, Control_c, 5, 11, 84
7, 27621, Control_c, 5, 11, 85
7, 27644, Control_c, 5, 11, 86
7, 27662, Note_on_c, 5, 48, 0
7, 27667, Control_c, 5, 11, 87
7, 27667, Note_on_c, 5, 48, 100
7, 27782, Note_on_c, 5, 48, 0
7, 27787, Note_on_c, 5, 48, 100
7, 27902, Note_on_c, 5, 48, 0
7, 27907, Note_on_c, 5, 48, 100
7, 28022, Note_on_c, 5, 48, 0
7, 28027, Note_on_c, 5, 48, 100
7, 28142, Note_on_c, 5, 48, 0
7, 28147, Note_on_c, 5, 48, 100
7, 28202, Note_on_c, 5, 48, 0
7, 28207, Note_on_c, 5, 53, 100
7, 28262, Note_on_c, 5, 53, 0
7, 28267, Note_on_c, 5, 53, 100
7, 28382, Note_on_c, 5, 53, 0
7, 28387, Note_on_c, 5, 53, 100
7, 28502, Note_on_c, 5, 53, 0
7, 28507, Note_on_c, 5, 53, 100
7, 28622, Note_on_c, 5, 53, 0
7, 29407, Control_c, 5, 11, 102
7, 29407, Note_on_c, 5, 60, 100
7, 29467, Note_on_c, 5, 60, 0
7, 29527, Control_c, 5, 11, 122
7, 29527, Note_on_c, 5, 65, 100
7, 29540, Control_c, 5, 11, 119
7, 29554, Control_c, 5, 11, 116
7, 29567, Control_c, 5, 11, 113
7, 29581, Control_c, 5, 11, 110
7, 29594, Control_c, 5, 11, 107
7, 29608, Control_c, 5, 11, 104
7, 29707, Note_on_c, 5, 65, 0
7, 29707, Note_on_c, 5, 60, 100
7, 29752, Note_on_c, 5, 60, 0
7, 29767, Note_on_c, 5, 57, 100
7, 29812, Note_on_c, 5, 57, 0
7, 29827, Note_on_c, 5, 53, 100
7, 29872, Note_on_c, 5, 53, 0
7, 29887, Note_on_c, 5, 48, 100
7, 30007, Note_on_c, 5, 48, 0
7, 30127, Note_on_c, 5, 60, 100
7, 30187, Note_on_c, 5, 60, 0
7, 30247, Control_c, 5, 11, 122
7, 30247, Note_on_c, 5, 65, 100
7, 30260, Control_c, 5, 11, 119
7, 30274, Control_c, 5, 11, 116
7, 30287, Control_c, 5, 11, 113
7, 30301, Control_c, 5, 11, 110
7, 30314, Control_c, 5, 11, 107
7, 30328, Control_c, 5, 11, 104
7, 30427, Note_on_c, 5, 65, 0
7, 30427, Note_on_c, 5, 60, 100
7, 30472, Note_on_c, 5, 60, 0
7, 30487, Note_on_c, 5, 57, 100
7, 30532, Note_on_c, 5, 57, 0
7, 30547, Note_on_c, 5, 53, 100
7, 30592, Note_on_c, 5, 53, 0
7, 30607, Note_on_c, 5, 48, 100
7, 30667, Note_on_c, 5, 48, 0
7, 30847, Control_c, 5, 11, 112
7, 30847, Note_on_c, 5, 60, 100
7, 30865, Control_c, 5, 11, 109
7, 30883, Control_c, 5, 11, 106
7, 30901, Control_c, 5, 11, 103
7, 30919, Control_c, 5, 11, 100
7, 30937, Control_c, 5, 11, 97
7, 30955, Control_c, 5, 11, 94
7, 30967, Note_on_c, 5, 60, 0
7, 30967, Note_on_c, 5, 65, 100
7, 31027, Note_on_c, 5, 65, 0
7, 31327, Control_c, 5, 11, 112
7, 31327, Note_on_c, 5, 60, 100
7, 31345, Control_c, 5, 11, 109
7, 31363, Control_c, 5, 11, 106
7, 31381, Control_c, 5, 11, 103
7, 31399, Control_c, 5, 11, 100
7, 31417, Control_c, 5, 11, 97
7, 31435, Control_c, 5, 11, 94
7, 31447, Note_on_c, 5, 60, 0
7, 31447, Note_on_c, 5, 65, 100
7, 31507, Note_on_c, 5, 65, 0
7, 32047, Control_c, 5, 11, 87
7, 32047, Note_on_c, 5, 48, 100
7, 32167, Note_on_c, 5, 48, 0
7, 32167, Note_on_c, 5, 53, 100
7, 32227, Note_on_c, 5, 53, 0
7, 32407, Control_c, 5, 11, 42
7, 32407, Control_c, 5, 11, 57
7, 32407, Note_on_c, 5, 57, 100
7, 32411, Control_c, 5, 11, 43
7, 32415, Control_c, 5, 11, 44
7, 32419, Control_c, 5, 11, 45
7, 32423, Control_c, 5, 11, 46
7, 32427, Control_c, 5, 11, 47
7, 32431, Control_c, 5, 11, 48
7, 32435, Control_c, 5, 11, 49
7, 32439, Control_c, 5, 11, 50
7, 32443, Control_c, 5, 11, 51
7, 32447, Control_c, 5, 11, 52
7, 32451, Control_c, 5, 11, 53
7, 32455, Control_c, 5, 11, 54
7, 32459, Control_c, 5, 11, 55
7, 32463, Control_c, 5, 11, 56
7, 32467, Control_c, 5, 11, 57
7, 32587, Note_on_c, 5, 57, 0
7, 32587, Control_c, 5, 11, 42
7, 32587, Note_on_c, 5, 60, 100
7, 32590, Control_c, 5, 11, 43
7, 32593, Control_c, 5, 11, 44
7, 32596, Control_c, 5, 11, 45
7, 32599, Control_c, 5, 11, 46
7, 32602, Control_c, 5, 11, 47
7, 32605, Control_c, 5, 11, 48
7, 32608, Control_c, 5, 11, 49
7, 32611, Control_c, 5, 11, 50
7, 32614, Control_c, 5, 11, 51
7, 32617, Control_c, 5, 11, 52
7, 32620, Control_c, 5, 11, 53
7, 32623, Control_c, 5, 11, 54
7, 32626, Control_c, 5, 11, 55
7, 32629, Control_c, 5, 11, 56
7, 32632, Control_c, 5, 11, 57
7, 32647, Note_on_c, 5, 60, 0
7, 32647, Control_c, 5, 11, 42
7, 32647, Note_on_c, 5, 65, 100
7, 32650, Control_c, 5, 11, 43
7, 32653, Control_c, 5, 11, 44
7, 32656, Control_c, 5, 11, 45
7, 32659, Control_c, 5, 11, 46
7, 32662, Control_c, 5, 11, 47
7, 32665, Control_c, 5, 11, 48
7, 32668, Control_c, 5, 11, 49
7, 32671, Control_c, 5, 11, 50
7, 32674, Control_c, 5, 11, 51
7, 32677, Control_c, 5, 11, 52
7, 32680, Control_c, 5, 11, 53
7, 32683, Control_c, 5, 11, 54
7, 32686, Control_c, 5, 11, 55
7, 32689, Control_c, 5, 11, 56
7, 32692, Control_c, 5, 11, 57
7, 32762, Note_on_c, 5, 65, 0
7, 32767, Control_c, 5, 11, 42
7, 32767, Note_on_c, 5, 65, 100
7, 32770, Control_c, 5, 11, 43
7, 32773, Control_c, 5, 11, 44
7, 32776, Control_c, 5, 11, 45
7, 32779, Control_c, 5, 11, 46
7, 32782, Control_c, 5, 11, 47
7, 32785, Control_c, 5, 11, 48
7, 32788, Control_c, 5, 11, 49
7, 32791, Control_c, 5, 11, 50
7, 32794, Control_c, 5, 11, 51
7, 32797, Control_c, 5, 11, 52
7, 32800, Control_c, 5, 11, 53
7, 32803, Control_c, 5, 11, 54
7, 32806, Control_c, 5, 11, 55
7, 32809, Control_c, 5, 11, 56
7, 32812, Control_c, 5, 11, 57
7, 32947, Note_on_c, 5, 65, 0
7, 32947, Control_c, 5, 11, 42
7, 32947, Note_on_c, 5, 60, 100
7, 32950, Control_c, 5, 11, 43
7, 32953, Control_c, 5, 11, 44
7, 32956, Control_c, 5, 11, 45
7, 32959, Control_c, 5, 11, 46
7, 32962, Control_c, 5, 11, 47
7, 32965, Control_c, 5, 11, 48
7, 32968, Control_c, 5, 11, 49
7, 32971, Control_c, 5, 11, 50
7, 32974, Control_c, 5, 11, 51
7, 32977, Control_c, 5, 11, 52
7, 32980, Control_c, 5, 11, 53
7, 32983, Control_c, 5, 11, 54
7, 32986, Control_c, 5, 11, 55
7, 32989, Control_c, 5, 11, 56
7, 32992, Control_c, 5, 11, 57
7, 33007, Note_on_c, 5, 60, 0
7, 33007, Control_c, 5, 11, 42
7, 33007, Note_on_c, 5, 57, 100
7, 33010, Control_c, 5, 11, 43
7, 33013, Control_c, 5, 11, 44
7, 33016, Control_c, 5, 11, 45
7, 33019, Control_c, 5, 11, 46
7, 33022, Control_c, 5, 11, 47
7, 33025, Control_c, 5, 11, 48
7, 33028, Control_c, 5, 11, 49
7, 33031, Control_c, 5, 11, 50
7, 33034, Control_c, 5, 11, 51
7, 33037, Control_c, 5, 11, 52
7, 33040, Control_c, 5, 11, 53
7, 33043, Control_c, 5, 11, 54
7, 33046, Control_c, 5, 11, 55
7, 33049, Control_c, 5, 11, 56
7, 33052, Control_c, 5, 11, 57
7, 33122, Note_on_c, 5, 57, 0
7, 33127, Control_c, 5, 11, 42
7, 33127, Note_on_c, 5, 57, 100
7, 33130, Control_c, 5, 11, 43
7, 33133, Control_c, 5, 11, 44
7, 33136, Control_c, 5, 11, 45
7, 33139, Control_c, 5, 11, 46
7, 33142, Control_c, 5, 11, 47
7, 33145, Control_c, 5, 11, 48
7, 33148, Control_c, 5, 11, 49
7, 33151, Control_c, 5, 11, 50
7, 33154, Control_c, 5, 11, 51
7, 33157, Control_c, 5, 11, 52
7, 33160, Control_c, 5, 11, 53
7, 33163, Control_c, 5, 11, 54
7, 33166, Control_c, 5, 11, 55
7, 33169, Control_c, 5, 11, 56
7, 33172, Control_c, 5, 11, 57
7, 33247, Note_on_c, 5, 57, 0
7, 33247, Control_c, 5, 11, 42
7, 33247, Control_c, 5, 11, 57
7, 33247, Note_on_c, 5, 65, 100
7, 33250, Control_c, 5, 11, 43
7, 33253, Control_c, 5, 11, 44
7, 33256, Control_c, 5, 11, 45
7, 33259, Control_c, 5, 11, 46
7, 33262, Control_c, 5, 11, 47
7, 33265, Control_c, 5, 11, 48
7, 33268, Control_c, 5, 11, 49
7, 33271, Control_c, 5, 11, 50
7, 33271, Control_c, 5, 11, 58
7, 33274, Control_c, 5, 11, 51
7, 33277, Control_c, 5, 11, 52
7, 33280, Control_c, 5, 11, 53
7, 33283, Control_c, 5, 11, 54
7, 33286, Control_c, 5, 11, 55
7, 33289, Control_c, 5, 11, 56
7, 33292, Control_c, 5, 11, 57
7, 33295, Control_c, 5, 11, 59
7, 33319, Control_c, 5, 11, 60
7, 33343, Control_c, 5, 11, 61
7, 33367, Control_c, 5, 11, 62
7, 33391, Control_c, 5, 11, 63
7, 33415, Control_c, 5, 11, 64
7, 33427, Note_on_c, 5, 65, 0
7, 33427, Note_on_c, 5, 69, 100
7, 33439, Control_c, 5, 11, 65
7, 33463, Control_c, 5, 11, 66
7, 33482, Note_on_c, 5, 69, 0
7, 33487, Control_c, 5, 11, 67
7, 33487, Note_on_c, 5, 69, 100
7, 33511, Control_c, 5, 11, 68
7, 33535, Control_c, 5, 11, 69
7, 33547, Note_on_c, 5, 69, 0
7, 33547, Note_on_c, 5, 67, 100
7, 33559, Control_c, 5, 11, 70
7, 33583, Control_c, 5, 11, 71
7, 33602, Note_on_c, 5, 67, 0
7, 33607, Control_c, 5, 11, 72
7, 33607, Note_on_c, 5, 60, 80
7, 33667, Note_on_c, 5, 60, 0
7, 33847, Control_c, 5, 11, 52
7, 33865, Control_c, 5, 11, 53
7, 33883, Control_c, 5, 11, 54
7, 33901, Control_c, 5, 11, 55
7, 33907, Note_on_c, 5, 60, 80
7, 33919, Control_c, 5, 11, 56
7, 33937, Control_c, 5, 11, 57
7, 33955, Control_c, 5, 11, 58
7, 33959, Note_on_c, 5, 60, 0
7, 33967, Note_on_c, 5, 62, 80
7, 33973, Control_c, 5, 11, 59
7, 33991, Control_c, 5, 11, 60
7, 34009, Control_c, 5, 11, 61
7, 34019, Note_on_c, 5, 62, 0
7, 34027, Control_c, 5, 11, 62
7, 34027, Note_on_c, 5, 64, 80
7, 34045, Control_c, 5, 11, 63
7, 34063, Control_c, 5, 11, 64
7, 34079, Note_on_c, 5, 64, 0
7, 34081, Control_c, 5, 11, 65
7, 34087, Note_on_c, 5, 65, 80
7, 34099, Control_c, 5, 11, 66
7, 34117, Control_c, 5, 11, 67
7, 34135, Control_c, 5, 11, 68
7, 34139, Note_on_c, 5, 65, 0
7, 34147, Note_on_c, 5, 67, 80
7, 34153, Control_c, 5, 11, 69
7, 34171, Control_c, 5, 11, 70
7, 34189, Control_c, 5, 11, 71
7, 34199, Note_on_c, 5, 67, 0
7, 34207, Control_c, 5, 11, 72
7, 34207, Note_on_c, 5, 69, 80
7, 34259, Note_on_c, 5, 69, 0
7, 34267, Note_on_c, 5, 67, 80
7, 34319, Note_on_c, 5, 67, 0
7, 34327, Note_on_c, 5, 65, 80
7, 34379, Note_on_c, 5, 65, 0
7, 34387, Note_on_c, 5, 64, 80
7, 34439, Note_on_c, 5, 64, 0
7, 34447, Note_on_c, 5, 62, 80
7, 34499, Note_on_c, 5, 62, 0
7, 34507, Note_on_c, 5, 60, 80
7, 34559, Note_on_c, 5, 60, 0
7, 34567, Note_on_c, 5, 60, 80
7, 34619, Note_on_c, 5, 60, 0
7, 34627, Note_on_c, 5, 60, 80
7, 34687, Note_on_c, 5, 60, 0
7, 34687, Note_on_c, 5, 59, 80
7, 34747, Note_on_c, 5, 59, 0
7, 34747, Note_on_c, 5, 60, 80
7, 34807, Note_on_c, 5, 60, 0
7, 34807, Note_on_c, 5, 62, 80
7, 34859, Note_on_c, 5, 62, 0
7, 34867, Note_on_c, 5, 65, 80
7, 34919, Note_on_c, 5, 65, 0
7, 34927, Note_on_c, 5, 65, 80
7, 34987, Note_on_c, 5, 65, 0
7, 34987, Note_on_c, 5, 64, 80
7, 35047, Note_on_c, 5, 64, 0
7, 35047, Note_on_c, 5, 64, 80
7, 35092, Note_on_c, 5, 64, 0
7, 35287, Note_on_c, 5, 57, 100
7, 35287, Control_c, 5, 11, 57
7, 35287, Control_c, 5, 11, 42
7, 35291, Control_c, 5, 11, 43
7, 35295, Control_c, 5, 11, 44
7, 35299, Control_c, 5, 11, 45
7, 35303, Control_c, 5, 11, 46
7, 35307, Control_c, 5, 11, 47
7, 35311, Control_c, 5, 11, 48
7, 35315, Control_c, 5, 11, 49
7, 35319, Control_c, 5, 11, 50
7, 35323, Control_c, 5, 11, 51
7, 35327, Control_c, 5, 11, 52
7, 35331, Control_c, 5, 11, 53
7, 35335, Control_c, 5, 11, 54
7, 35339, Control_c, 5, 11, 55
7, 35343, Control_c, 5, 11, 56
7, 35347, Control_c, 5, 11, 57
7, 35467, Note_on_c, 5, 57, 0
7, 35467, Note_on_c, 5, 60, 100
7, 35467, Control_c, 5, 11, 42
7, 35470, Control_c, 5, 11, 43
7, 35473, Control_c, 5, 11, 44
7, 35476, Control_c, 5, 11, 45
7, 35479, Control_c, 5, 11, 46
7, 35482, Control_c, 5, 11, 47
7, 35485, Control_c, 5, 11, 48
7, 35488, Control_c, 5, 11, 49
7, 35491, Control_c, 5, 11, 50
7, 35494, Control_c, 5, 11, 51
7, 35497, Control_c, 5, 11, 52
7, 35500, Control_c, 5, 11, 53
7, 35503, Control_c, 5, 11, 54
7, 35506, Control_c, 5, 11, 55
7, 35509, Control_c, 5, 11, 56
7, 35512, Control_c, 5, 11, 57
7, 35527, Note_on_c, 5, 60, 0
7, 35527, Control_c, 5, 11, 42
7, 35527, Note_on_c, 5, 65, 100
7, 35530, Control_c, 5, 11, 43
7, 35533, Control_c, 5, 11, 44
7, 35536, Control_c, 5, 11, 45
7, 35539, Control_c, 5, 11, 46
7, 35542, Control_c, 5, 11, 47
7, 35545, Control_c, 5, 11, 48
7, 35548, Control_c, 5, 11, 49
7, 35551, Control_c, 5, 11, 50
7, 35554, Control_c, 5, 11, 51
7, 35557, Control_c, 5, 11, 52
7, 35560, Control_c, 5, 11, 53
7, 35563, Control_c, 5, 11, 54
7, 35566, Control_c, 5, 11, 55
7, 35569, Control_c, 5, 11, 56
7, 35572, Control_c, 5, 11, 57
7, 35642, Note_on_c, 5, 65, 0
7, 35647, Control_c, 5, 11, 42
7, 35647, Note_on_c, 5, 65, 100
7, 35650, Control_c, 5, 11, 43
7, 35653, Control_c, 5, 11, 44
7, 35656, Control_c, 5, 11, 45
7, 35659, Control_c, 5, 11, 46
7, 35662, Control_c, 5, 11, 47
7, 35665, Control_c, 5, 11, 48
7, 35668, Control_c, 5, 11, 49
7, 35671, Control_c, 5, 11, 50
7, 35674, Control_c, 5, 11, 51
7, 35677, Control_c, 5, 11, 52
7, 35680, Control_c, 5, 11, 53
7, 35683, Control_c, 5, 11, 54
7, 35686, Control_c, 5, 11, 55
7, 35689, Control_c, 5, 11, 56
7, 35692, Control_c, 5, 11, 57
7, 35827, Note_on_c, 5, 65, 0
7, 35827, Note_on_c, 5, 60, 100
7, 35827, Control_c, 5, 11, 42
7, 35830, Control_c, 5, 11, 43
7, 35833, Control_c, 5, 11, 44
7, 35836, Control_c, 5, 11, 45
7, 35839, Control_c, 5, 11, 46
7, 35842, Control_c, 5, 11, 47
7, 35845, Control_c, 5, 11, 48
7, 35848, Control_c, 5, 11, 49
7, 35851, Control_c, 5, 11, 50
7, 35854, Control_c, 5, 11, 51
7, 35857, Control_c, 5, 11, 52
7, 35860, Control_c, 5, 11, 53
7, 35863, Control_c, 5, 11, 54
7, 35866, Control_c, 5, 11, 55
7, 35869, Control_c, 5, 11, 56
7, 35872, Control_c, 5, 11, 57
7, 35887, Note_on_c, 5, 60, 0
7, 35887, Control_c, 5, 11, 42
7, 35887, Note_on_c, 5, 57, 100
7, 35890, Control_c, 5, 11, 43
7, 35893, Control_c, 5, 11, 44
7, 35896, Control_c, 5, 11, 45
7, 35899, Control_c, 5, 11, 46
7, 35902, Control_c, 5, 11, 47
7, 35905, Control_c, 5, 11, 48
7, 35908, Control_c, 5, 11, 49
7, 35911, Control_c, 5, 11, 50
7, 35914, Control_c, 5, 11, 51
7, 35917, Control_c, 5, 11, 52
7, 35920, Control_c, 5, 11, 53
7, 35923, Control_c, 5, 11, 54
7, 35926, Control_c, 5, 11, 55
7, 35929, Control_c, 5, 11, 56
7, 35932, Control_c, 5, 11, 57
7, 36002, Note_on_c, 5, 57, 0
7, 36007, Control_c, 5, 11, 42
7, 36007, Note_on_c, 5, 57, 100
7, 36010, Control_c, 5, 11, 43
7, 36013, Control_c, 5, 11, 44
7, 36016, Control_c, 5, 11, 45
7, 36019, Control_c, 5, 11, 46
7, 36022, Control_c, 5, 11, 47
7, 36025, Control_c, 5, 11, 48
7, 36028, Control_c, 5, 11, 49
7, 36031, Control_c, 5, 11, 50
7, 36034, Control_c, 5, 11, 51
7, 36037, Control_c, 5, 11, 52
7, 36040, Control_c, 5, 11, 53
7, 36043, Control_c, 5, 11, 54
7, 36046, Control_c, 5, 11, 55
7, 36049, Control_c, 5, 11, 56
7, 36052, Control_c, 5, 11, 57
7, 36127, Note_on_c, 5, 57, 0
7, 36127, Control_c, 5, 11, 42
7, 36127, Control_c, 5, 11, 57
7, 36127, Note_on_c, 5, 65, 100
7, 36130, Control_c, 5, 11, 43
7, 36133, Control_c, 5, 11, 44
7, 36136, Control_c, 5, 11, 45
7, 36139, Control_c, 5, 11, 46
7, 36142, Control_c, 5, 11, 47
7, 36145, Control_c, 5, 11, 48
7, 36148, Control_c, 5, 11, 49
7, 36151, Control_c, 5, 11, 50
7, 36151, Control_c, 5, 11, 58
7, 36154, Control_c, 5, 11, 51
7, 36157, Control_c, 5, 11, 52
7, 36160, Control_c, 5, 11, 53
7, 36163, Control_c, 5, 11, 54
7, 36166, Control_c, 5, 11, 55
7, 36169, Control_c, 5, 11, 56
7, 36172, Control_c, 5, 11, 57
7, 36175, Control_c, 5, 11, 59
7, 36199, Control_c, 5, 11, 60
7, 36223, Control_c, 5, 11, 61
7, 36247, Control_c, 5, 11, 62
7, 36271, Control_c, 5, 11, 63
7, 36295, Control_c, 5, 11, 64
7, 36307, Note_on_c, 5, 65, 0
7, 36307, Note_on_c, 5, 69, 100
7, 36319, Control_c, 5, 11, 65
7, 36343, Control_c, 5, 11, 66
7, 36362, Note_on_c, 5, 69, 0
7, 36367, Control_c, 5, 11, 67
7, 36367, Note_on_c, 5, 69, 100
7, 36391, Control_c, 5, 11, 68
7, 36415, Control_c, 5, 11, 69
7, 36427, Note_on_c, 5, 69, 0
7, 36427, Note_on_c, 5, 67, 100
7, 36439, Control_c, 5, 11, 70
7, 36463, Control_c, 5, 11, 71
7, 36482, Note_on_c, 5, 67, 0
7, 36487, Note_on_c, 5, 60, 80
7, 36487, Control_c, 5, 11, 72
7, 36547, Note_on_c, 5, 60, 0
7, 36727, Control_c, 5, 11, 52
7, 36745, Control_c, 5, 11, 53
7, 36763, Control_c, 5, 11, 54
7, 36781, Control_c, 5, 11, 55
7, 36787, Note_on_c, 5, 60, 80
7, 36799, Control_c, 5, 11, 56
7, 36817, Control_c, 5, 11, 57
7, 36835, Control_c, 5, 11, 58
7, 36839, Note_on_c, 5, 60, 0
7, 36847, Note_on_c, 5, 62, 80
7, 36853, Control_c, 5, 11, 59
7, 36871, Control_c, 5, 11, 60
7, 36889, Control_c, 5, 11, 61
7, 36899, Note_on_c, 5, 62, 0
7, 36907, Note_on_c, 5, 64, 80
7, 36907, Control_c, 5, 11, 62
7, 36925, Control_c, 5, 11, 63
7, 36943, Control_c, 5, 11, 64
7, 36959, Note_on_c, 5, 64, 0
7, 36961, Control_c, 5, 11, 65
7, 36967, Note_on_c, 5, 65, 80
7, 36979, Control_c, 5, 11, 66
7, 36997, Control_c, 5, 11, 67
7, 37015, Control_c, 5, 11, 68
7, 37019, Note_on_c, 5, 65, 0
7, 37027, Note_on_c, 5, 67, 80
7, 37033, Control_c, 5, 11, 69
7, 37051, Control_c, 5, 11, 70
7, 37069, Control_c, 5, 11, 71
7, 37079, Note_on_c, 5, 67, 0
7, 37087, Control_c, 5, 11, 72
7, 37087, Note_on_c, 5, 69, 80
7, 37139, Note_on_c, 5, 69, 0
7, 37147, Note_on_c, 5, 67, 80
7, 37199, Note_on_c, 5, 67, 0
7, 37207, Note_on_c, 5, 65, 80
7, 37259, Note_on_c, 5, 65, 0
7, 37267, Note_on_c, 5, 64, 80
7, 37319, Note_on_c, 5, 64, 0
7, 37327, Note_on_c, 5, 62, 80
7, 37379, Note_on_c, 5, 62, 0
7, 37387, Note_on_c, 5, 60, 80
7, 37439, Note_on_c, 5, 60, 0
7, 37447, Note_on_c, 5, 60, 80
7, 37499, Note_on_c, 5, 60, 0
7, 37507, Note_on_c, 5, 60, 80
7, 37567, Note_on_c, 5, 60, 0
7, 37567, Note_on_c, 5, 59, 80
7, 37627, Note_on_c, 5, 59, 0
7, 37627, Note_on_c, 5, 60, 80
7, 37687, Note_on_c, 5, 60, 0
7, 37687, Note_on_c, 5, 62, 80
7, 37739, Note_on_c, 5, 62, 0
7, 37747, Note_on_c, 5, 65, 80
7, 37799, Note_on_c, 5, 65, 0
7, 37807, Note_on_c, 5, 65, 80
7, 37867, Note_on_c, 5, 65, 0
7, 37867, Note_on_c, 5, 64, 80
7, 37927, Note_on_c, 5, 64, 0
7, 37927, Note_on_c, 5, 64, 80
7, 37972, Note_on_c, 5, 64, 0
7, 38587, Note_on_c, 5, 67, 100
7, 38587, Control_c, 5, 11, 52
7, 38639, Note_on_c, 5, 67, 0
7, 38647, Note_on_c, 5, 69, 100
7, 38699, Note_on_c, 5, 69, 0
7, 38707, Note_on_c, 5, 71, 100
7, 38759, Note_on_c, 5, 71, 0
7, 38767, Note_on_c, 5, 72, 100
7, 38887, Note_on_c, 5, 72, 0
7, 39307, Note_on_c, 5, 67, 100
7, 39359, Note_on_c, 5, 67, 0
7, 39367, Note_on_c, 5, 69, 100
7, 39419, Note_on_c, 5, 69, 0
7, 39427, Note_on_c, 5, 71, 100
7, 39479, Note_on_c, 5, 71, 0
7, 39487, Note_on_c, 5, 72, 100
7, 39607, Note_on_c, 5, 72, 0
7, 39667, Control_c, 5, 11, 52
7, 39696, Control_c, 5, 11, 53
7, 39725, Control_c, 5, 11, 54
7, 39754, Control_c, 5, 11, 55
7, 39783, Control_c, 5, 11, 56
7, 39812, Control_c, 5, 11, 57
7, 39841, Control_c, 5, 11, 58
7, 39871, Control_c, 5, 11, 59
7, 39900, Control_c, 5, 11, 60
7, 39929, Control_c, 5, 11, 61
7, 39958, Control_c, 5, 11, 62
7, 39987, Control_c, 5, 11, 63
7, 40016, Control_c, 5, 11, 64
7, 40045, Control_c, 5, 11, 65
7, 40075, Control_c, 5, 11, 66
7, 40104, Control_c, 5, 11, 67
7, 40133, Control_c, 5, 11, 68
7, 40162, Control_c, 5, 11, 69
7, 40191, Control_c, 5, 11, 70
7, 40220, Control_c, 5, 11, 71
7, 40249, Control_c, 5, 11, 72
7, 40279, Control_c, 5, 11, 73
7, 40308, Control_c, 5, 11, 74
7, 40337, Control_c, 5, 11, 75
7, 40366, Control_c, 5, 11, 76
7, 40387, Note_on_c, 5, 60, 100
7, 40395, Control_c, 5, 11, 77
7, 40424, Control_c, 5, 11, 78
7, 40442, Note_on_c, 5, 60, 0
7, 40447, Note_on_c, 5, 61, 100
7, 40453, Control_c, 5, 11, 79
7, 40483, Control_c, 5, 11, 80
7, 40502, Note_on_c, 5, 61, 0
7, 40507, Note_on_c, 5, 62, 100
7, 40512, Control_c, 5, 11, 81
7, 40541, Control_c, 5, 11, 82
7, 40562, Note_on_c, 5, 62, 0
7, 40567, Note_on_c, 5, 63, 100
7, 40570, Control_c, 5, 11, 83
7, 40599, Control_c, 5, 11, 84
7, 40622, Note_on_c, 5, 63, 0
7, 40627, Note_on_c, 5, 61, 100
7, 40628, Control_c, 5, 11, 85
7, 40657, Control_c, 5, 11, 86
7, 40682, Note_on_c, 5, 61, 0
7, 40687, Control_c, 5, 11, 87
7, 40687, Note_on_c, 5, 60, 115
7, 40862, Note_on_c, 5, 60, 0
7, 40867, Note_on_c, 5, 60, 115
7, 40922, Note_on_c, 5, 60, 0
7, 40927, Note_on_c, 5, 62, 115
7, 40982, Note_on_c, 5, 62, 0
7, 40987, Note_on_c, 5, 64, 115
7, 41042, Note_on_c, 5, 64, 0
7, 41047, Control_c, 5, 11, 47
7, 41047, Note_on_c, 5, 65, 100
7, 41065, Control_c, 5, 11, 48
7, 41083, Control_c, 5, 11, 49
7, 41101, Control_c, 5, 11, 50
7, 41119, Control_c, 5, 11, 51
7, 41137, Control_c, 5, 11, 52
7, 41155, Control_c, 5, 11, 53
7, 41173, Control_c, 5, 11, 54
7, 41191, Control_c, 5, 11, 55
7, 41209, Control_c, 5, 11, 56
7, 41227, Note_on_c, 5, 65, 0
7, 41227, Control_c, 5, 11, 57
7, 41227, Note_on_c, 5, 67, 100
7, 41245, Control_c, 5, 11, 58
7, 41263, Control_c, 5, 11, 59
7, 41281, Control_c, 5, 11, 60
7, 41287, Note_on_c, 5, 67, 0
7, 41287, Note_on_c, 5, 69, 100
7, 41299, Control_c, 5, 11, 61
7, 41317, Control_c, 5, 11, 62
7, 41335, Control_c, 5, 11, 63
7, 41353, Control_c, 5, 11, 64
7, 41371, Control_c, 5, 11, 65
7, 41389, Control_c, 5, 11, 66
7, 41402, Note_on_c, 5, 69, 0
7, 41407, Control_c, 5, 11, 67
7, 41407, Note_on_c, 5, 69, 100
7, 41527, Note_on_c, 5, 69, 0
7, 41527, Note_on_c, 5, 70, 100
7, 41647, Note_on_c, 5, 70, 0
7, 41647, Note_on_c, 5, 69, 100
7, 41707, Note_on_c, 5, 69, 0
7, 41707, Note_on_c, 5, 67, 100
7, 41762, Note_on_c, 5, 67, 0
7, 41767, Note_on_c, 5, 65, 100
7, 42007, Note_on_c, 5, 65, 0
7, 42007, Note_on_c, 5, 60, 100
7, 42067, Control_c, 5, 11, 67
7, 42079, Control_c, 5, 11, 64
7, 42091, Control_c, 5, 11, 61
7, 42103, Control_c, 5, 11, 58
7, 42115, Control_c, 5, 11, 55
7, 42127, Note_on_c, 5, 60, 0
7, 42127, Note_on_c, 5, 60, 100
7, 42127, Control_c, 5, 11, 52
7, 42145, Control_c, 5, 11, 53
7, 42163, Control_c, 5, 11, 54
7, 42181, Control_c, 5, 11, 55
7, 42199, Control_c, 5, 11, 56
7, 42217, Control_c, 5, 11, 57
7, 42235, Control_c, 5, 11, 58
7, 42247, Note_on_c, 5, 60, 0
7, 42247, Note_on_c, 5, 65, 100
7, 42253, Control_c, 5, 11, 59
7, 42271, Control_c, 5, 11, 60
7, 42289, Control_c, 5, 11, 61
7, 42307, Control_c, 5, 11, 62
7, 42325, Control_c, 5, 11, 63
7, 42343, Control_c, 5, 11, 64
7, 42361, Control_c, 5, 11, 65
7, 42362, Note_on_c, 5, 65, 0
7, 42367, Note_on_c, 5, 65, 100
7, 42379, Control_c, 5, 11, 66
7, 42397, Control_c, 5, 11, 67
7, 42415, Control_c, 5, 11, 68
7, 42433, Control_c, 5, 11, 69
7, 42451, Control_c, 5, 11, 70
7, 42469, Control_c, 5, 11, 71
7, 42482, Note_on_c, 5, 65, 0
7, 42487, Note_on_c, 5, 65, 100
7, 42487, Control_c, 5, 11, 72
7, 42607, Note_on_c, 5, 65, 0
7, 42607, Note_on_c, 5, 69, 100
7, 42722, Note_on_c, 5, 69, 0
7, 42727, Note_on_c, 5, 69, 100
7, 42842, Note_on_c, 5, 69, 0
7, 42847, Note_on_c, 5, 69, 100
7, 43087, Note_on_c, 5, 69, 0
7, 43087, Note_on_c, 5, 65, 100
7, 43202, Note_on_c, 5, 65, 0
7, 43207, Note_on_c, 5, 67, 100
7, 43382, Note_on_c, 5, 67, 0
7, 43387, Note_on_c, 5, 48, 100
7, 43447, Note_on_c, 5, 48, 0
7, 43447, Note_on_c, 5, 60, 100
7, 43507, Note_on_c, 5, 60, 0
7, 43507, Note_on_c, 5, 58, 100
7, 43562, Note_on_c, 5, 58, 0
7, 43567, Control_c, 5, 11, 52
7, 43567, Note_on_c, 5, 57, 100
7, 43585, Control_c, 5, 11, 53
7, 43603, Control_c, 5, 11, 54
7, 43621, Control_c, 5, 11, 55
7, 43627, Note_on_c, 5, 57, 0
7, 43627, Note_on_c, 5, 65, 100
7, 43639, Control_c, 5, 11, 56
7, 43657, Control_c, 5, 11, 57
7, 43675, Control_c, 5, 11, 58
7, 43682, Note_on_c, 5, 65, 0
7, 43687, Note_on_c, 5, 65, 100
7, 43693, Control_c, 5, 11, 59
7, 43711, Control_c, 5, 11, 60
7, 43729, Control_c, 5, 11, 61
7, 43732, Note_on_c, 5, 65, 0
7, 43747, Control_c, 5, 11, 62
7, 43747, Note_on_c, 5, 65, 100
7, 43765, Control_c, 5, 11, 63
7, 43783, Control_c, 5, 11, 64
7, 43792, Note_on_c, 5, 65, 0
7, 43801, Control_c, 5, 11, 65
7, 43807, Note_on_c, 5, 65, 100
7, 43819, Control_c, 5, 11, 66
7, 43837, Control_c, 5, 11, 67
7, 43852, Note_on_c, 5, 65, 0
7, 43855, Control_c, 5, 11, 68
7, 43867, Note_on_c, 5, 65, 100
7, 43873, Control_c, 5, 11, 69
7, 43891, Control_c, 5, 11, 70
7, 43909, Control_c, 5, 11, 71
7, 43912, Note_on_c, 5, 65, 0
7, 43927, Control_c, 5, 11, 72
7, 43927, Note_on_c, 5, 65, 100
7, 43987, Note_on_c, 5, 65, 0
7, 43987, Note_on_c, 5, 69, 100
7, 44042, Note_on_c, 5, 69, 0
7, 44047, Note_on_c, 5, 69, 100
7, 44092, Note_on_c, 5, 69, 0
7, 44107, Note_on_c, 5, 69, 100
7, 44152, Note_on_c, 5, 69, 0
7, 44167, Note_on_c, 5, 69, 100
7, 44212, Note_on_c, 5, 69, 0
7, 44227, Note_on_c, 5, 69, 100
7, 44272, Note_on_c, 5, 69, 0
7, 44287, Control_c, 5, 11, 52
7, 44287, Note_on_c, 5, 69, 100
7, 44527, Note_on_c, 5, 69, 0
7, 44527, Note_on_c, 5, 65, 100
7, 44642, Note_on_c, 5, 65, 0
7, 44647, Note_on_c, 5, 67, 100
7, 44827, Note_on_c, 5, 67, 0
7, 44827, Note_on_c, 5, 60, 100
7, 44879, Note_on_c, 5, 60, 0
7, 44887, Note_on_c, 5, 62, 100
7, 44939, Note_on_c, 5, 62, 0
7, 44947, Note_on_c, 5, 64, 100
7, 44999, Note_on_c, 5, 64, 0
7, 45007, Note_on_c, 5, 65, 100
7, 45187, Note_on_c, 5, 65, 0
7, 45547, Note_on_c, 5, 60, 100
7, 45599, Note_on_c, 5, 60, 0
7, 45607, Note_on_c, 5, 62, 100
7, 45659, Note_on_c, 5, 62, 0
7, 45667, Note_on_c, 5, 64, 100
7, 45719, Note_on_c, 5, 64, 0
7, 45727, Note_on_c, 5, 65, 100
7, 45907, Note_on_c, 5, 65, 0
7, 46267, Note_on_c, 5, 65, 100
7, 46267, Control_c, 5, 11, 52
7, 46303, Control_c, 5, 11, 51
7, 46319, Note_on_c, 5, 65, 0
7, 46327, Note_on_c, 5, 60, 100
7, 46339, Control_c, 5, 11, 50
7, 46375, Control_c, 5, 11, 49
7, 46379, Note_on_c, 5, 60, 0
7, 46387, Note_on_c, 5, 57, 100
7, 46411, Control_c, 5, 11, 48
7, 46439, Note_on_c, 5, 57, 0
7, 46447, Control_c, 5, 11, 47
7, 46447, Note_on_c, 5, 57, 100
7, 46483, Control_c, 5, 11, 46
7, 46507, Note_on_c, 5, 57, 0
7, 46507, Note_on_c, 5, 57, 100
7, 46519, Control_c, 5, 11, 45
7, 46555, Control_c, 5, 11, 44
7, 46567, Note_on_c, 5, 57, 0
7, 46567, Note_on_c, 5, 57, 100
7, 46591, Control_c, 5, 11, 43
7, 46612, Note_on_c, 5, 57, 0
7, 46627, Note_on_c, 5, 65, 100
7, 46627, Control_c, 5, 11, 42
7, 46663, Control_c, 5, 11, 41
7, 46679, Note_on_c, 5, 65, 0
7, 46687, Note_on_c, 5, 60, 100
7, 46699, Control_c, 5, 11, 40
7, 46735, Control_c, 5, 11, 39
7, 46739, Note_on_c, 5, 60, 0
7, 46747, Note_on_c, 5, 57, 100
7, 46771, Control_c, 5, 11, 38
7, 46799, Note_on_c, 5, 57, 0
7, 46807, Control_c, 5, 11, 37
7, 46807, Note_on_c, 5, 57, 100
7, 46867, Note_on_c, 5, 57, 0
7, 46867, Note_on_c, 5, 57, 100
7, 46927, Note_on_c, 5, 57, 0
7, 46927, Note_on_c, 5, 57, 100
7, 46972, Note_on_c, 5, 57, 0
7, 46987, Note_on_c, 5, 57, 100
7, 47032, Note_on_c, 5, 57, 0
7, 47047, Note_on_c, 5, 60, 100
7, 47092, Note_on_c, 5, 60, 0
7, 47107, Note_on_c, 5, 65, 100
7, 47152, Note_on_c, 5, 65, 0
7, 47167, Note_on_c, 5, 69, 100
7, 47227, Note_on_c, 5, 69, 0
7, 47227, Note_on_c, 5, 65, 100
7, 47287, Note_on_c, 5, 65, 0
7, 47287, Note_on_c, 5, 57, 100
7, 47317, Control_c, 5, 11, 37
7, 47322, Control_c, 5, 11, 34
7, 47328, Control_c, 5, 11, 31
7, 47334, Control_c, 5, 11, 28
7, 47340, Control_c, 5, 11, 25
7, 47346, Control_c, 5, 11, 22
7, 47347, Note_on_c, 5, 57, 0
7, 48127, Note_on_c, 5, 48, 100
7, 48127, Control_c, 5, 11, 42
7, 48187, Note_on_c, 5, 48, 0
7, 48247, Note_on_c, 5, 48, 100
7, 48837, Note_on_c, 5, 48, 0
7, 48847, Control_c, 5, 11, 42
7, 48847, Note_on_c, 5, 48, 100
7, 48863, Control_c, 5, 11, 43
7, 48879, Control_c, 5, 11, 44
7, 48895, Control_c, 5, 11, 45
7, 48911, Control_c, 5, 11, 46
7, 48927, Control_c, 5, 11, 47
7, 48943, Control_c, 5, 11, 48
7, 48959, Control_c, 5, 11, 49
7, 48975, Control_c, 5, 11, 50
7, 48991, Control_c, 5, 11, 51
7, 49007, Control_c, 5, 11, 52
7, 49023, Control_c, 5, 11, 53
7, 49039, Control_c, 5, 11, 54
7, 49055, Control_c, 5, 11, 55
7, 49071, Control_c, 5, 11, 56
7, 49087, Control_c, 5, 11, 57
7, 49103, Control_c, 5, 11, 58
7, 49119, Control_c, 5, 11, 59
7, 49135, Control_c, 5, 11, 60
7, 49151, Control_c, 5, 11, 61
7, 49167, Control_c, 5, 11, 62
7, 49183, Control_c, 5, 11, 63
7, 49199, Control_c, 5, 11, 64
7, 49215, Control_c, 5, 11, 65
7, 49231, Control_c, 5, 11, 66
7, 49247, Control_c, 5, 11, 67
7, 49263, Control_c, 5, 11, 68
7, 49279, Control_c, 5, 11, 69
7, 49295, Control_c, 5, 11, 70
7, 49311, Control_c, 5, 11, 71
7, 49327, Control_c, 5, 11, 72
7, 49343, Control_c, 5, 11, 73
7, 49359, Control_c, 5, 11, 74
7, 49375, Control_c, 5, 11, 75
7, 49391, Control_c, 5, 11, 76
7, 49407, Control_c, 5, 11, 77
7, 49423, Control_c, 5, 11, 78
7, 49439, Control_c, 5, 11, 79
7, 49455, Control_c, 5, 11, 80
7, 49471, Control_c, 5, 11, 81
7, 49487, Control_c, 5, 11, 82
7, 49503, Control_c, 5, 11, 83
7, 49519, Control_c, 5, 11, 84
7, 49535, Control_c, 5, 11, 85
7, 49551, Control_c, 5, 11, 86
7, 49557, Note_on_c, 5, 48, 0
7, 49567, Control_c, 5, 11, 87
7, 49567, Note_on_c, 5, 48, 100
7, 49627, Note_on_c, 5, 48, 0
7, 49687, Control_c, 5, 11, 107
7, 49687, Note_on_c, 5, 48, 100
7, 49696, Control_c, 5, 11, 104
7, 49705, Control_c, 5, 11, 101
7, 49714, Control_c, 5, 11, 98
7, 49723, Control_c, 5, 11, 95
7, 49732, Control_c, 5, 11, 92
7, 49741, Control_c, 5, 11, 89
7, 49917, Note_on_c, 5, 48, 0
7, 49927, Note_on_c, 5, 48, 100
7, 49987, Note_on_c, 5, 48, 0
7, 50047, Control_c, 5, 11, 107
7, 50047, Note_on_c, 5, 53, 115
7, 50056, Control_c, 5, 11, 104
7, 50065, Control_c, 5, 11, 101
7, 50074, Control_c, 5, 11, 98
7, 50083, Control_c, 5, 11, 95
7, 50092, Control_c, 5, 11, 92
7, 50101, Control_c, 5, 11, 89
7, 50287, Note_on_c, 5, 53, 0
7, 51247, Note_on_c, 5, 67, 100
7, 51247, Control_c, 5, 11, 107
7, 51256, Control_c, 5, 11, 104
7, 51265, Control_c, 5, 11, 101
7, 51274, Control_c, 5, 11, 98
7, 51283, Control_c, 5, 11, 95
7, 51292, Control_c, 5, 11, 92
7, 51301, Control_c, 5, 11, 89
7, 51307, Note_on_c, 5, 67, 0
7, 51607, Control_c, 5, 11, 107
7, 51607, Note_on_c, 5, 67, 100
7, 51616, Control_c, 5, 11, 104
7, 51625, Control_c, 5, 11, 101
7, 51634, Control_c, 5, 11, 98
7, 51643, Control_c, 5, 11, 95
7, 51652, Control_c, 5, 11, 92
7, 51661, Control_c, 5, 11, 89
7, 51667, Note_on_c, 5, 67, 0
7, 51967, Control_c, 5, 11, 107
7, 51967, Note_on_c, 5, 67, 100
7, 51976, Control_c, 5, 11, 104
7, 51985, Control_c, 5, 11, 101
7, 51994, Control_c, 5, 11, 98
7, 52003, Control_c, 5, 11, 95
7, 52012, Control_c, 5, 11, 92
7, 52021, Control_c, 5, 11, 89
7, 52027, Note_on_c, 5, 67, 0
7, 52327, Note_on_c, 5, 67, 100
7, 52327, Control_c, 5, 11, 107
7, 52336, Control_c, 5, 11, 104
7, 52345, Control_c, 5, 11, 101
7, 52354, Control_c, 5, 11, 98
7, 52363, Control_c, 5, 11, 95
7, 52372, Control_c, 5, 11, 92
7, 52381, Control_c, 5, 11, 89
7, 52387, Note_on_c, 5, 67, 0
7, 52447, Note_on_c, 5, 67, 100
7, 52507, Note_on_c, 5, 67, 0
7, 52567, Control_c, 5, 11, 107
7, 52567, Note_on_c, 5, 67, 100
7, 52576, Control_c, 5, 11, 104
7, 52585, Control_c, 5, 11, 101
7, 52594, Control_c, 5, 11, 98
7, 52603, Control_c, 5, 11, 95
7, 52612, Control_c, 5, 11, 92
7, 52621, Control_c, 5, 11, 89
7, 52627, Note_on_c, 5, 67, 0
7, 52687, Note_on_c, 5, 67, 100
7, 52747, Note_on_c, 5, 67, 0
7, 52927, Note_on_c, 5, 67, 100
7, 52927, Control_c, 5, 11, 107
7, 52936, Control_c, 5, 11, 104
7, 52945, Control_c, 5, 11, 101
7, 52954, Control_c, 5, 11, 98
7, 52963, Control_c, 5, 11, 95
7, 52972, Control_c, 5, 11, 92
7, 52981, Control_c, 5, 11, 89
7, 52987, Note_on_c, 5, 67, 0
7, 53047, Note_on_c, 5, 67, 100
7, 53107, Note_on_c, 5, 67, 0
7, 53287, Control_c, 5, 11, 107
7, 53287, Note_on_c, 5, 60, 100
7, 53296, Control_c, 5, 11, 104
7, 53305, Control_c, 5, 11, 101
7, 53314, Control_c, 5, 11, 98
7, 53323, Control_c, 5, 11, 95
7, 53332, Control_c, 5, 11, 92
7, 53341, Control_c, 5, 11, 89
7, 53347, Note_on_c, 5, 60, 0
7, 53407, Note_on_c, 5, 60, 100
7, 53467, Note_on_c, 5, 60, 0
7, 53647, Control_c, 5, 11, 107
7, 53647, Note_on_c, 5, 65, 100
7, 53656, Control_c, 5, 11, 104
7, 53665, Control_c, 5, 11, 101
7, 53674, Control_c, 5, 11, 98
7, 53683, Control_c, 5, 11, 95
7, 53692, Control_c, 5, 11, 92
7, 53701, Control_c, 5, 11, 89
7, 53707, Note_on_c, 5, 65, 0
7, 53767, Note_on_c, 5, 65, 100
7, 53827, Note_on_c, 5, 65, 0
7, 53887, Control_c, 5, 11, 77
7, 53887, Note_on_c, 5, 48, 100
7, 53947, Note_on_c, 5, 48, 0
7, 54007, Control_c, 5, 11, 87
7, 54007, Note_on_c, 5, 53, 100
7, 54016, Control_c, 5, 11, 84
7, 54025, Control_c, 5, 11, 81
7, 54034, Control_c, 5, 11, 78
7, 54043, Control_c, 5, 11, 75
7, 54052, Control_c, 5, 11, 72
7, 54061, Control_c, 5, 11, 69
7, 54070, Control_c, 5, 11, 66
7, 54079, Control_c, 5, 11, 63
7, 54088, Control_c, 5, 11, 60
7, 54097, Control_c, 5, 11, 57
7, 54106, Control_c, 5, 11, 54
7, 54115, Control_c, 5, 11, 51
7, 54124, Control_c, 5, 11, 48
7, 54607, Note_on_c, 5, 53, 0
7, 54607, Control_c, 5, 11, 47
7, 54607, Note_on_c, 5, 53, 100
7, 54663, Control_c, 5, 11, 46
7, 54719, Control_c, 5, 11, 45
7, 54775, Control_c, 5, 11, 44
7, 54831, Control_c, 5, 11, 43
7, 54887, Control_c, 5, 11, 42
7, 54943, Control_c, 5, 11, 41
7, 54967, Note_on_c, 5, 53, 0
7, 54967, Note_on_c, 5, 53, 100
7, 54999, Control_c, 5, 11, 40
7, 55055, Control_c, 5, 11, 39
7, 55111, Control_c, 5, 11, 38
7, 55167, Control_c, 5, 11, 37
7, 55223, Control_c, 5, 11, 36
7, 55279, Control_c, 5, 11, 35
7, 55327, Note_on_c, 5, 53, 0
7, 55335, Control_c, 5, 11, 34
7, 55391, Control_c, 5, 11, 33
7, 55447, Control_c, 5, 11, 37
7, 55447, Note_on_c, 5, 53, 72
7, 55507, Note_on_c, 5, 53, 0
7, 55687, Note_on_c, 5, 53, 72
7, 55747, Note_on_c, 5, 53, 0
7, 55927, Note_on_c, 5, 53, 72
7, 55987, Note_on_c, 5, 53, 0
7, 57487, Control_c, 5, 11, 37
7, 57487, Note_on_c, 5, 57, 100
7, 57509, Control_c, 5, 11, 38
7, 57532, Control_c, 5, 11, 39
7, 57547, Note_on_c, 5, 57, 0
7, 57555, Control_c, 5, 11, 40
7, 57578, Control_c, 5, 11, 41
7, 57601, Control_c, 5, 11, 42
7, 57607, Note_on_c, 5, 48, 100
7, 57623, Control_c, 5, 11, 43
7, 57646, Control_c, 5, 11, 44
7, 57662, Note_on_c, 5, 48, 0
7, 57667, Note_on_c, 5, 48, 100
7, 57669, Control_c, 5, 11, 45
7, 57692, Control_c, 5, 11, 46
7, 57715, Control_c, 5, 11, 47
7, 57737, Control_c, 5, 11, 48
7, 57760, Control_c, 5, 11, 49
7, 57782, Note_on_c, 5, 48, 0
7, 57783, Control_c, 5, 11, 50
7, 57787, Note_on_c, 5, 48, 100
7, 57806, Control_c, 5, 11, 51
7, 57829, Control_c, 5, 11, 52
7, 57851, Control_c, 5, 11, 53
7, 57874, Control_c, 5, 11, 54
7, 57897, Control_c, 5, 11, 55
7, 57902, Note_on_c, 5, 48, 0
7, 57907, Note_on_c, 5, 48, 100
7, 57920, Control_c, 5, 11, 56
7, 57943, Control_c, 5, 11, 57
7, 57965, Control_c, 5, 11, 58
7, 57988, Control_c, 5, 11, 59
7, 58011, Control_c, 5, 11, 60
7, 58022, Note_on_c, 5, 48, 0
7, 58027, Note_on_c, 5, 48, 100
7, 58034, Control_c, 5, 11, 61
7, 58057, Control_c, 5, 11, 62
7, 58079, Control_c, 5, 11, 63
7, 58102, Control_c, 5, 11, 64
7, 58125, Control_c, 5, 11, 65
7, 58142, Note_on_c, 5, 48, 0
7, 58147, Note_on_c, 5, 48, 100
7, 58148, Control_c, 5, 11, 66
7, 58171, Control_c, 5, 11, 67
7, 58193, Control_c, 5, 11, 68
7, 58216, Control_c, 5, 11, 69
7, 58239, Control_c, 5, 11, 70
7, 58262, Note_on_c, 5, 48, 0
7, 58262, Control_c, 5, 11, 71
7, 58267, Note_on_c, 5, 48, 100
7, 58285, Control_c, 5, 11, 72
7, 58307, Control_c, 5, 11, 73
7, 58330, Control_c, 5, 11, 74
7, 58353, Control_c, 5, 11, 75
7, 58376, Control_c, 5, 11, 76
7, 58382, Note_on_c, 5, 48, 0
7, 58387, Note_on_c, 5, 48, 100
7, 58399, Control_c, 5, 11, 77
7, 58421, Control_c, 5, 11, 78
7, 58444, Control_c, 5, 11, 79
7, 58467, Control_c, 5, 11, 80
7, 58490, Control_c, 5, 11, 81
7, 58502, Note_on_c, 5, 48, 0
7, 58507, Note_on_c, 5, 48, 100
7, 58513, Control_c, 5, 11, 82
7, 58535, Control_c, 5, 11, 83
7, 58558, Control_c, 5, 11, 84
7, 58581, Control_c, 5, 11, 85
7, 58604, Control_c, 5, 11, 86
7, 58622, Note_on_c, 5, 48, 0
7, 58627, Control_c, 5, 11, 87
7, 58627, Note_on_c, 5, 48, 100
7, 58742, Note_on_c, 5, 48, 0
7, 58747, Note_on_c, 5, 48, 100
7, 58862, Note_on_c, 5, 48, 0
7, 58867, Note_on_c, 5, 48, 100
7, 58982, Note_on_c, 5, 48, 0
7, 58987, Note_on_c, 5, 48, 100
7, 59102, Note_on_c, 5, 48, 0
7, 59107, Note_on_c, 5, 48, 100
7, 59162, Note_on_c, 5, 48, 0
7, 59167, Note_on_c, 5, 53, 100
7, 59222, Note_on_c, 5, 53, 0
7, 59227, Note_on_c, 5, 53, 100
7, 59342, Note_on_c, 5, 53, 0
7, 59347, Note_on_c, 5, 53, 100
7, 59462, Note_on_c, 5, 53, 0
7, 59467, Note_on_c, 5, 53, 100
7, 59582, Note_on_c, 5, 53, 0
7, 60367, Control_c, 5, 11, 102
7, 60367, Note_on_c, 5, 60, 100
7, 60427, Note_on_c, 5, 60, 0
7, 60487, Control_c, 5, 11, 122
7, 60487, Note_on_c, 5, 65, 100
7, 60500, Control_c, 5, 11, 119
7, 60514, Control_c, 5, 11, 116
7, 60527, Control_c, 5, 11, 113
7, 60541, Control_c, 5, 11, 110
7, 60554, Control_c, 5, 11, 107
7, 60568, Control_c, 5, 11, 104
7, 60667, Note_on_c, 5, 65, 0
7, 60667, Note_on_c, 5, 60, 100
7, 60712, Note_on_c, 5, 60, 0
7, 60727, Note_on_c, 5, 57, 100
7, 60772, Note_on_c, 5, 57, 0
7, 60787, Note_on_c, 5, 53, 100
7, 60832, Note_on_c, 5, 53, 0
7, 60847, Note_on_c, 5, 48, 100
7, 60967, Note_on_c, 5, 48, 0
7, 61087, Note_on_c, 5, 60, 100
7, 61147, Note_on_c, 5, 60, 0
7, 61207, Control_c, 5, 11, 122
7, 61207, Note_on_c, 5, 65, 100
7, 61220, Control_c, 5, 11, 119
7, 61234, Control_c, 5, 11, 116
7, 61247, Control_c, 5, 11, 113
7, 61261, Control_c, 5, 11, 110
7, 61274, Control_c, 5, 11, 107
7, 61288, Control_c, 5, 11, 104
7, 61387, Note_on_c, 5, 65, 0
7, 61387, Note_on_c, 5, 60, 100
7, 61432, Note_on_c, 5, 60, 0
7, 61447, Note_on_c, 5, 57, 100
7, 61492, Note_on_c, 5, 57, 0
7, 61507, Note_on_c, 5, 53, 100
7, 61552, Note_on_c, 5, 53, 0
7, 61567, Note_on_c, 5, 48, 100
7, 61627, Note_on_c, 5, 48, 0
7, 61807, Control_c, 5, 11, 112
7, 61807, Note_on_c, 5, 60, 100
7, 61825, Control_c, 5, 11, 109
7, 61843, Control_c, 5, 11, 106
7, 61861, Control_c, 5, 11, 103
7, 61879, Control_c, 5, 11, 100
7, 61897, Control_c, 5, 11, 97
7, 61915, Control_c, 5, 11, 94
7, 61927, Note_on_c, 5, 60, 0
7, 61927, Note_on_c, 5, 65, 100
7, 61987, Note_on_c, 5, 65, 0
7, 62287, Note_on_c, 5, 60, 100
7, 62287, Control_c, 5, 11, 112
7, 62305, Control_c, 5, 11, 109
7, 62323, Control_c, 5, 11, 106
7, 62341, Control_c, 5, 11, 103
7, 62359, Control_c, 5, 11, 100
7, 62377, Control_c, 5, 11, 97
7, 62395, Control_c, 5, 11, 94
7, 62407, Note_on_c, 5, 60, 0
7, 62407, Note_on_c, 5, 65, 100
7, 62467, Note_on_c, 5, 65, 0
7, 63007, Note_on_c, 5, 48, 100
7, 63007, Control_c, 5, 11, 87
7, 63127, Note_on_c, 5, 48, 0
7, 63127, Note_on_c, 5, 53, 100
7, 63187, Note_on_c, 5, 53, 0
7, 63727, Control_c, 5, 121, 0
7, 63727, End_track
8, 0, Start_track
8, 0, MIDI_port, 0
8, 0, Title_t, "2 Trombe in F"
8, 0, Program_c, 6, 56
8, 0, Control_c, 6, 10, 77
8, 2, Control_c, 6, 121, 0
8, 7, Program_c, 6, 56
8, 12, Pitch_bend_c, 6, 8192
8, 17, Control_c, 6, 11, 87
8, 22, Control_c, 6, 7, 127
8, 27, Control_c, 6, 91, 80
8, 32, Control_c, 6, 93, 0
8, 962, Note_on_c, 6, 65, 117
8, 1022, Note_on_c, 6, 65, 0
8, 1082, Control_c, 6, 11, 102
8, 1082, Note_on_c, 6, 60, 117
8, 1082, Note_on_c, 6, 72, 117
8, 1089, Control_c, 6, 11, 99
8, 1096, Control_c, 6, 11, 96
8, 1103, Control_c, 6, 11, 93
8, 1110, Control_c, 6, 11, 90
8, 1118, Control_c, 6, 11, 87
8, 1125, Control_c, 6, 11, 84
8, 1132, Control_c, 6, 11, 81
8, 1139, Control_c, 6, 11, 78
8, 1262, Note_on_c, 6, 72, 0
8, 1262, Note_on_c, 6, 60, 0
8, 1322, Control_c, 6, 11, 42
8, 1322, Note_on_c, 6, 60, 117
8, 1322, Note_on_c, 6, 72, 117
8, 1382, Note_on_c, 6, 72, 0
8, 1382, Note_on_c, 6, 60, 0
8, 1442, Note_on_c, 6, 60, 117
8, 1442, Note_on_c, 6, 72, 117
8, 2032, Note_on_c, 6, 72, 0
8, 2032, Note_on_c, 6, 60, 0
8, 2042, Control_c, 6, 11, 42
8, 2042, Note_on_c, 6, 60, 117
8, 2042, Note_on_c, 6, 72, 117
8, 2058, Control_c, 6, 11, 43
8, 2074, Control_c, 6, 11, 44
8, 2090, Control_c, 6, 11, 45
8, 2106, Control_c, 6, 11, 46
8, 2122, Control_c, 6, 11, 47
8, 2138, Control_c, 6, 11, 48
8, 2154, Control_c, 6, 11, 49
8, 2170, Control_c, 6, 11, 50
8, 2186, Control_c, 6, 11, 51
8, 2202, Control_c, 6, 11, 52
8, 2218, Control_c, 6, 11, 53
8, 2234, Control_c, 6, 11, 54
8, 2250, Control_c, 6, 11, 55
8, 2266, Control_c, 6, 11, 56
8, 2282, Control_c, 6, 11, 57
8, 2298, Control_c, 6, 11, 58
8, 2314, Control_c, 6, 11, 59
8, 2330, Control_c, 6, 11, 60
8, 2346, Control_c, 6, 11, 61
8, 2362, Control_c, 6, 11, 62
8, 2378, Control_c, 6, 11, 63
8, 2394, Control_c, 6, 11, 64
8, 2410, Control_c, 6, 11, 65
8, 2426, Control_c, 6, 11, 66
8, 2442, Control_c, 6, 11, 67
8, 2458, Control_c, 6, 11, 68
8, 2474, Control_c, 6, 11, 69
8, 2490, Control_c, 6, 11, 70
8, 2506, Control_c, 6, 11, 71
8, 2522, Control_c, 6, 11, 72
8, 2538, Control_c, 6, 11, 73
8, 2554, Control_c, 6, 11, 74
8, 2570, Control_c, 6, 11, 75
8, 2586, Control_c, 6, 11, 76
8, 2602, Control_c, 6, 11, 77
8, 2618, Control_c, 6, 11, 78
8, 2634, Control_c, 6, 11, 79
8, 2650, Control_c, 6, 11, 80
8, 2666, Control_c, 6, 11, 81
8, 2682, Control_c, 6, 11, 82
8, 2698, Control_c, 6, 11, 83
8, 2714, Control_c, 6, 11, 84
8, 2730, Control_c, 6, 11, 85
8, 2746, Control_c, 6, 11, 86
8, 2752, Note_on_c, 6, 72, 0
8, 2752, Note_on_c, 6, 60, 0
8, 2762, Control_c, 6, 11, 87
8, 2762, Note_on_c, 6, 60, 117
8, 2762, Note_on_c, 6, 72, 117
8, 2822, Note_on_c, 6, 72, 0
8, 2822, Note_on_c, 6, 60, 0
8, 2882, Control_c, 6, 11, 107
8, 2882, Note_on_c, 6, 72, 117
8, 2882, Note_on_c, 6, 60, 117
8, 2891, Control_c, 6, 11, 104
8, 2900, Control_c, 6, 11, 101
8, 2909, Control_c, 6, 11, 98
8, 2918, Control_c, 6, 11, 95
8, 2927, Control_c, 6, 11, 92
8, 2936, Control_c, 6, 11, 89
8, 3112, Note_on_c, 6, 60, 0
8, 3112, Note_on_c, 6, 72, 0
8, 3122, Note_on_c, 6, 72, 117
8, 3122, Note_on_c, 6, 60, 117
8, 3182, Note_on_c, 6, 60, 0
8, 3182, Note_on_c, 6, 72, 0
8, 3242, Control_c, 6, 11, 107
8, 3242, Note_on_c, 6, 65, 127
8, 3242, Note_on_c, 6, 77, 127
8, 3251, Control_c, 6, 11, 104
8, 3260, Control_c, 6, 11, 101
8, 3269, Control_c, 6, 11, 98
8, 3278, Control_c, 6, 11, 95
8, 3287, Control_c, 6, 11, 92
8, 3296, Control_c, 6, 11, 89
8, 3482, Note_on_c, 6, 77, 0
8, 3482, Note_on_c, 6, 65, 0
8, 3902, Note_on_c, 6, 60, 117
8, 3902, Note_on_c, 6, 72, 117
8, 3962, Note_on_c, 6, 72, 0
8, 3962, Note_on_c, 6, 60, 0
8, 3962, Note_on_c, 6, 60, 117
8, 3962, Note_on_c, 6, 72, 117
8, 4022, Note_on_c, 6, 72, 0
8, 4022, Note_on_c, 6, 60, 0
8, 4082, Note_on_c, 6, 65, 117
8, 4142, Note_on_c, 6, 65, 0
8, 4562, Note_on_c, 6, 65, 117
8, 4622, Note_on_c, 6, 65, 0
8, 4682, Note_on_c, 6, 60, 117
8, 4682, Note_on_c, 6, 72, 117
8, 4682, Control_c, 6, 11, 102
8, 4689, Control_c, 6, 11, 99
8, 4696, Control_c, 6, 11, 96
8, 4703, Control_c, 6, 11, 93
8, 4710, Control_c, 6, 11, 90
8, 4718, Control_c, 6, 11, 87
8, 4725, Control_c, 6, 11, 84
8, 4732, Control_c, 6, 11, 81
8, 4739, Control_c, 6, 11, 78
8, 4862, Note_on_c, 6, 72, 0
8, 4862, Note_on_c, 6, 60, 0
8, 4922, Control_c, 6, 11, 42
8, 4922, Note_on_c, 6, 60, 117
8, 4922, Note_on_c, 6, 72, 117
8, 4982, Note_on_c, 6, 72, 0
8, 4982, Note_on_c, 6, 60, 0
8, 5042, Note_on_c, 6, 60, 117
8, 5042, Note_on_c, 6, 72, 117
8, 5632, Note_on_c, 6, 72, 0
8, 5632, Note_on_c, 6, 60, 0
8, 5642, Control_c, 6, 11, 42
8, 5642, Note_on_c, 6, 72, 117
8, 5642, Note_on_c, 6, 60, 117
8, 5658, Control_c, 6, 11, 43
8, 5674, Control_c, 6, 11, 44
8, 5690, Control_c, 6, 11, 45
8, 5706, Control_c, 6, 11, 46
8, 5722, Control_c, 6, 11, 47
8, 5738, Control_c, 6, 11, 48
8, 5754, Control_c, 6, 11, 49
8, 5770, Control_c, 6, 11, 50
8, 5786, Control_c, 6, 11, 51
8, 5802, Control_c, 6, 11, 52
8, 5818, Control_c, 6, 11, 53
8, 5834, Control_c, 6, 11, 54
8, 5850, Control_c, 6, 11, 55
8, 5866, Control_c, 6, 11, 56
8, 5882, Control_c, 6, 11, 57
8, 5898, Control_c, 6, 11, 58
8, 5914, Control_c, 6, 11, 59
8, 5930, Control_c, 6, 11, 60
8, 5946, Control_c, 6, 11, 61
8, 5962, Control_c, 6, 11, 62
8, 5978, Control_c, 6, 11, 63
8, 5994, Control_c, 6, 11, 64
8, 6010, Control_c, 6, 11, 65
8, 6026, Control_c, 6, 11, 66
8, 6042, Control_c, 6, 11, 67
8, 6058, Control_c, 6, 11, 68
8, 6074, Control_c, 6, 11, 69
8, 6090, Control_c, 6, 11, 70
8, 6106, Control_c, 6, 11, 71
8, 6122, Control_c, 6, 11, 72
8, 6138, Control_c, 6, 11, 73
8, 6154, Control_c, 6, 11, 74
8, 6170, Control_c, 6, 11, 75
8, 6186, Control_c, 6, 11, 76
8, 6202, Control_c, 6, 11, 77
8, 6218, Control_c, 6, 11, 78
8, 6234, Control_c, 6, 11, 79
8, 6250, Control_c, 6, 11, 80
8, 6266, Control_c, 6, 11, 81
8, 6282, Control_c, 6, 11, 82
8, 6298, Control_c, 6, 11, 83
8, 6314, Control_c, 6, 11, 84
8, 6330, Control_c, 6, 11, 85
8, 6346, Control_c, 6, 11, 86
8, 6352, Note_on_c, 6, 60, 0
8, 6352, Note_on_c, 6, 72, 0
8, 6362, Control_c, 6, 11, 87
8, 6362, Note_on_c, 6, 60, 117
8, 6362, Note_on_c, 6, 72, 117
8, 6422, Note_on_c, 6, 72, 0
8, 6422, Note_on_c, 6, 60, 0
8, 6482, Control_c, 6, 11, 107
8, 6482, Note_on_c, 6, 72, 117
8, 6482, Note_on_c, 6, 60, 117
8, 6491, Control_c, 6, 11, 104
8, 6500, Control_c, 6, 11, 101
8, 6509, Control_c, 6, 11, 98
8, 6518, Control_c, 6, 11, 95
8, 6527, Control_c, 6, 11, 92
8, 6536, Control_c, 6, 11, 89
8, 6712, Note_on_c, 6, 60, 0
8, 6712, Note_on_c, 6, 72, 0
8, 6722, Note_on_c, 6, 60, 117
8, 6722, Note_on_c, 6, 72, 117
8, 6782, Note_on_c, 6, 72, 0
8, 6782, Note_on_c, 6, 60, 0
8, 6842, Note_on_c, 6, 65, 127
8, 6842, Note_on_c, 6, 77, 127
8, 6842, Control_c, 6, 11, 107
8, 6851, Control_c, 6, 11, 104
8, 6860, Control_c, 6, 11, 101
8, 6869, Control_c, 6, 11, 98
8, 6878, Control_c, 6, 11, 95
8, 6887, Control_c, 6, 11, 92
8, 6896, Control_c, 6, 11, 89
8, 7082, Note_on_c, 6, 77, 0
8, 7082, Note_on_c, 6, 65, 0
8, 7502, Note_on_c, 6, 72, 117
8, 7502, Note_on_c, 6, 60, 117
8, 7562, Note_on_c, 6, 60, 0
8, 7562, Note_on_c, 6, 72, 0
8, 7562, Note_on_c, 6, 72, 117
8, 7562, Note_on_c, 6, 60, 117
8, 7622, Note_on_c, 6, 60, 0
8, 7622, Note_on_c, 6, 72, 0
8, 7682, Note_on_c, 6, 65, 117
8, 7742, Note_on_c, 6, 65, 0
8, 8402, Note_on_c, 6, 72, 117
8, 8402, Note_on_c, 6, 60, 117
8, 8402, Control_c, 6, 11, 107
8, 8411, Control_c, 6, 11, 104
8, 8420, Control_c, 6, 11, 101
8, 8429, Control_c, 6, 11, 98
8, 8438, Control_c, 6, 11, 95
8, 8447, Control_c, 6, 11, 92
8, 8456, Control_c, 6, 11, 89
8, 8462, Note_on_c, 6, 60, 0
8, 8462, Note_on_c, 6, 72, 0
8, 9122, Note_on_c, 6, 60, 117
8, 9122, Control_c, 6, 11, 107
8, 9122, Note_on_c, 6, 72, 117
8, 9131, Control_c, 6, 11, 104
8, 9140, Control_c, 6, 11, 101
8, 9149, Control_c, 6, 11, 98
8, 9158, Control_c, 6, 11, 95
8, 9167, Control_c, 6, 11, 92
8, 9176, Control_c, 6, 11, 89
8, 9182, Note_on_c, 6, 72, 0
8, 9182, Note_on_c, 6, 60, 0
8, 9722, Control_c, 6, 11, 107
8, 9722, Note_on_c, 6, 60, 117
8, 9722, Note_on_c, 6, 72, 117
8, 9731, Control_c, 6, 11, 104
8, 9740, Control_c, 6, 11, 101
8, 9749, Control_c, 6, 11, 98
8, 9758, Control_c, 6, 11, 95
8, 9767, Control_c, 6, 11, 92
8, 9776, Control_c, 6, 11, 89
8, 9782, Note_on_c, 6, 72, 0
8, 9782, Note_on_c, 6, 60, 0
8, 9842, Note_on_c, 6, 60, 117
8, 9842, Note_on_c, 6, 72, 117
8, 9902, Note_on_c, 6, 72, 0
8, 9902, Note_on_c, 6, 60, 0
8, 10082, Note_on_c, 6, 60, 117
8, 10082, Control_c, 6, 11, 107
8, 10082, Note_on_c, 6, 72, 117
8, 10091, Control_c, 6, 11, 104
8, 10100, Control_c, 6, 11, 101
8, 10109, Control_c, 6, 11, 98
8, 10118, Control_c, 6, 11, 95
8, 10127, Control_c, 6, 11, 92
8, 10136, Control_c, 6, 11, 89
8, 10142, Note_on_c, 6, 72, 0
8, 10142, Note_on_c, 6, 60, 0
8, 10202, Note_on_c, 6, 72, 117
8, 10202, Note_on_c, 6, 60, 117
8, 10262, Note_on_c, 6, 60, 0
8, 10262, Note_on_c, 6, 72, 0
8, 10442, Control_c, 6, 11, 107
8, 10442, Note_on_c, 6, 65, 117
8, 10451, Control_c, 6, 11, 104
8, 10460, Control_c, 6, 11, 101
8, 10469, Control_c, 6, 11, 98
8, 10478, Control_c, 6, 11, 95
8, 10487, Control_c, 6, 11, 92
8, 10496, Control_c, 6, 11, 89
8, 10502, Note_on_c, 6, 65, 0
8, 10562, Note_on_c, 6, 65, 117
8, 10622, Note_on_c, 6, 65, 0
8, 15422, Note_on_c, 6, 72, 117
8, 15422, Note_on_c, 6, 60, 117
8, 15422, Control_c, 6, 11, 87
8, 15482, Note_on_c, 6, 60, 0
8, 15482, Note_on_c, 6, 72, 0
8, 15482, Note_on_c, 6, 60, 117
8, 15482, Note_on_c, 6, 72, 117
8, 15542, Note_on_c, 6, 72, 0
8, 15542, Note_on_c, 6, 60, 0
8, 15602, Note_on_c, 6, 72, 117
8, 15602, Note_on_c, 6, 60, 117
8, 15662, Note_on_c, 6, 60, 0
8, 15662, Note_on_c, 6, 72, 0
8, 15782, Note_on_c, 6, 60, 117
8, 15782, Note_on_c, 6, 72, 117
8, 15842, Note_on_c, 6, 72, 0
8, 15842, Note_on_c, 6, 60, 0
8, 15842, Note_on_c, 6, 60, 117
8, 15842, Note_on_c, 6, 72, 117
8, 15902, Note_on_c, 6, 72, 0
8, 15902, Note_on_c, 6, 60, 0
8, 15962, Note_on_c, 6, 65, 117
8, 16022, Note_on_c, 6, 65, 0
8, 16142, Note_on_c, 6, 65, 117
8, 16142, Note_on_c, 6, 77, 117
8, 16202, Note_on_c, 6, 77, 0
8, 16202, Note_on_c, 6, 65, 0
8, 16202, Note_on_c, 6, 65, 117
8, 16202, Note_on_c, 6, 77, 117
8, 16262, Note_on_c, 6, 77, 0
8, 16262, Note_on_c, 6, 65, 0
8, 16322, Note_on_c, 6, 65, 117
8, 16322, Note_on_c, 6, 77, 117
8, 16382, Note_on_c, 6, 77, 0
8, 16382, Note_on_c, 6, 65, 0
8, 17162, Control_c, 6, 11, 102
8, 17162, Note_on_c, 6, 72, 117
8, 17222, Note_on_c, 6, 72, 0
8, 17282, Control_c, 6, 11, 122
8, 17282, Note_on_c, 6, 77, 117
8, 17295, Control_c, 6, 11, 119
8, 17309, Control_c, 6, 11, 116
8, 17322, Control_c, 6, 11, 113
8, 17336, Control_c, 6, 11, 110
8, 17349, Control_c, 6, 11, 107
8, 17363, Control_c, 6, 11, 104
8, 17462, Note_on_c, 6, 77, 0
8, 17462, Note_on_c, 6, 72, 117
8, 17507, Note_on_c, 6, 72, 0
8, 17522, Note_on_c, 6, 69, 117
8, 17567, Note_on_c, 6, 69, 0
8, 17582, Note_on_c, 6, 65, 117
8, 17627, Note_on_c, 6, 65, 0
8, 17642, Note_on_c, 6, 72, 117
8, 17642, Note_on_c, 6, 60, 117
8, 17762, Note_on_c, 6, 60, 0
8, 17762, Note_on_c, 6, 72, 0
8, 17882, Note_on_c, 6, 72, 117
8, 17942, Note_on_c, 6, 72, 0
8, 18002, Control_c, 6, 11, 122
8, 18002, Note_on_c, 6, 77, 117
8, 18015, Control_c, 6, 11, 119
8, 18029, Control_c, 6, 11, 116
8, 18042, Control_c, 6, 11, 113
8, 18056, Control_c, 6, 11, 110
8, 18069, Control_c, 6, 11, 107
8, 18083, Control_c, 6, 11, 104
8, 18182, Note_on_c, 6, 77, 0
8, 18182, Note_on_c, 6, 72, 117
8, 18227, Note_on_c, 6, 72, 0
8, 18242, Note_on_c, 6, 69, 117
8, 18287, Note_on_c, 6, 69, 0
8, 18302, Note_on_c, 6, 65, 117
8, 18347, Note_on_c, 6, 65, 0
8, 18362, Note_on_c, 6, 72, 117
8, 18362, Note_on_c, 6, 60, 117
8, 18422, Note_on_c, 6, 60, 0
8, 18422, Note_on_c, 6, 72, 0
8, 18602, Note_on_c, 6, 60, 117
8, 18602, Note_on_c, 6, 72, 117
8, 18602, Control_c, 6, 11, 112
8, 18620, Control_c, 6, 11, 109
8, 18638, Control_c, 6, 11, 106
8, 18656, Control_c, 6, 11, 103
8, 18674, Control_c, 6, 11, 100
8, 18692, Control_c, 6, 11, 97
8, 18710, Control_c, 6, 11, 94
8, 18722, Note_on_c, 6, 72, 0
8, 18722, Note_on_c, 6, 60, 0
8, 18722, Note_on_c, 6, 65, 117
8, 18722, Note_on_c, 6, 69, 117
8, 18782, Note_on_c, 6, 69, 0
8, 18782, Note_on_c, 6, 65, 0
8, 19082, Control_c, 6, 11, 112
8, 19082, Note_on_c, 6, 72, 117
8, 19082, Note_on_c, 6, 60, 117
8, 19100, Control_c, 6, 11, 109
8, 19118, Control_c, 6, 11, 106
8, 19136, Control_c, 6, 11, 103
8, 19154, Control_c, 6, 11, 100
8, 19172, Control_c, 6, 11, 97
8, 19190, Control_c, 6, 11, 94
8, 19202, Note_on_c, 6, 60, 0
8, 19202, Note_on_c, 6, 72, 0
8, 19202, Note_on_c, 6, 65, 117
8, 19202, Note_on_c, 6, 69, 117
8, 19262, Note_on_c, 6, 69, 0
8, 19262, Note_on_c, 6, 65, 0
8, 19802, Note_on_c, 6, 60, 117
8, 19802, Control_c, 6, 11, 87
8, 19802, Note_on_c, 6, 72, 117
8, 19922, Note_on_c, 6, 72, 0
8, 19922, Note_on_c, 6, 60, 0
8, 19922, Note_on_c, 6, 65, 117
8, 19982, Note_on_c, 6, 65, 0
8, 20642, Control_c, 6, 11, 107
8, 20642, Note_on_c, 6, 60, 117
8, 20642, Note_on_c, 6, 72, 117
8, 20651, Control_c, 6, 11, 104
8, 20660, Control_c, 6, 11, 101
8, 20669, Control_c, 6, 11, 98
8, 20678, Control_c, 6, 11, 95
8, 20687, Control_c, 6, 11, 92
8, 20696, Control_c, 6, 11, 89
8, 20702, Note_on_c, 6, 72, 0
8, 20702, Note_on_c, 6, 60, 0
8, 21362, Note_on_c, 6, 72, 117
8, 21362, Note_on_c, 6, 60, 117
8, 21362, Control_c, 6, 11, 107
8, 21371, Control_c, 6, 11, 104
8, 21380, Control_c, 6, 11, 101
8, 21389, Control_c, 6, 11, 98
8, 21398, Control_c, 6, 11, 95
8, 21407, Control_c, 6, 11, 92
8, 21416, Control_c, 6, 11, 89
8, 21422, Note_on_c, 6, 60, 0
8, 21422, Note_on_c, 6, 72, 0
8, 21962, Control_c, 6, 11, 107
8, 21962, Note_on_c, 6, 60, 117
8, 21962, Note_on_c, 6, 72, 117
8, 21971, Control_c, 6, 11, 104
8, 21980, Control_c, 6, 11, 101
8, 21989, Control_c, 6, 11, 98
8, 21998, Control_c, 6, 11, 95
8, 22007, Control_c, 6, 11, 92
8, 22016, Control_c, 6, 11, 89
8, 22022, Note_on_c, 6, 72, 0
8, 22022, Note_on_c, 6, 60, 0
8, 22082, Note_on_c, 6, 60, 117
8, 22082, Note_on_c, 6, 72, 117
8, 22142, Note_on_c, 6, 72, 0
8, 22142, Note_on_c, 6, 60, 0
8, 22322, Control_c, 6, 11, 107
8, 22322, Note_on_c, 6, 60, 117
8, 22322, Note_on_c, 6, 72, 117
8, 22331, Control_c, 6, 11, 104
8, 22340, Control_c, 6, 11, 101
8, 22349, Control_c, 6, 11, 98
8, 22358, Control_c, 6, 11, 95
8, 22367, Control_c, 6, 11, 92
8, 22376, Control_c, 6, 11, 89
8, 22382, Note_on_c, 6, 72, 0
8, 22382, Note_on_c, 6, 60, 0
8, 22442, Note_on_c, 6, 60, 117
8, 22442, Note_on_c, 6, 72, 117
8, 22502, Note_on_c, 6, 72, 0
8, 22502, Note_on_c, 6, 60, 0
8, 22682, Control_c, 6, 11, 107
8, 22682, Note_on_c, 6, 65, 117
8, 22691, Control_c, 6, 11, 104
8, 22700, Control_c, 6, 11, 101
8, 22709, Control_c, 6, 11, 98
8, 22718, Control_c, 6, 11, 95
8, 22727, Control_c, 6, 11, 92
8, 22736, Control_c, 6, 11, 89
8, 22742, Note_on_c, 6, 65, 0
8, 22802, Note_on_c, 6, 65, 117
8, 22862, Note_on_c, 6, 65, 0
8, 27662, Note_on_c, 6, 60, 117
8, 27662, Note_on_c, 6, 72, 117
8, 27662, Control_c, 6, 11, 87
8, 27722, Note_on_c, 6, 72, 0
8, 27722, Note_on_c, 6, 60, 0
8, 27722, Note_on_c, 6, 72, 117
8, 27722, Note_on_c, 6, 60, 117
8, 27782, Note_on_c, 6, 60, 0
8, 27782, Note_on_c, 6, 72, 0
8, 27842, Note_on_c, 6, 72, 117
8, 27842, Note_on_c, 6, 60, 117
8, 27902, Note_on_c, 6, 60, 0
8, 27902, Note_on_c, 6, 72, 0
8, 28022, Note_on_c, 6, 60, 117
8, 28022, Note_on_c, 6, 72, 117
8, 28082, Note_on_c, 6, 72, 0
8, 28082, Note_on_c, 6, 60, 0
8, 28082, Note_on_c, 6, 72, 117
8, 28082, Note_on_c, 6, 60, 117
8, 28142, Note_on_c, 6, 60, 0
8, 28142, Note_on_c, 6, 72, 0
8, 28202, Note_on_c, 6, 65, 117
8, 28262, Note_on_c, 6, 65, 0
8, 28382, Note_on_c, 6, 65, 117
8, 28382, Note_on_c, 6, 77, 117
8, 28442, Note_on_c, 6, 77, 0
8, 28442, Note_on_c, 6, 65, 0
8, 28442, Note_on_c, 6, 65, 117
8, 28442, Note_on_c, 6, 77, 117
8, 28502, Note_on_c, 6, 77, 0
8, 28502, Note_on_c, 6, 65, 0
8, 28562, Note_on_c, 6, 65, 117
8, 28562, Note_on_c, 6, 77, 117
8, 28622, Note_on_c, 6, 77, 0
8, 28622, Note_on_c, 6, 65, 0
8, 29402, Note_on_c, 6, 72, 117
8, 29402, Control_c, 6, 11, 102
8, 29462, Note_on_c, 6, 72, 0
8, 29522, Note_on_c, 6, 77, 117
8, 29522, Control_c, 6, 11, 122
8, 29535, Control_c, 6, 11, 119
8, 29549, Control_c, 6, 11, 116
8, 29562, Control_c, 6, 11, 113
8, 29576, Control_c, 6, 11, 110
8, 29589, Control_c, 6, 11, 107
8, 29603, Control_c, 6, 11, 104
8, 29702, Note_on_c, 6, 77, 0
8, 29702, Note_on_c, 6, 72, 117
8, 29747, Note_on_c, 6, 72, 0
8, 29762, Note_on_c, 6, 69, 117
8, 29807, Note_on_c, 6, 69, 0
8, 29822, Note_on_c, 6, 65, 117
8, 29867, Note_on_c, 6, 65, 0
8, 29882, Note_on_c, 6, 72, 117
8, 29882, Note_on_c, 6, 60, 117
8, 30002, Note_on_c, 6, 60, 0
8, 30002, Note_on_c, 6, 72, 0
8, 30122, Note_on_c, 6, 72, 117
8, 30182, Note_on_c, 6, 72, 0
8, 30242, Control_c, 6, 11, 122
8, 30242, Note_on_c, 6, 77, 117
8, 30255, Control_c, 6, 11, 119
8, 30269, Control_c, 6, 11, 116
8, 30282, Control_c, 6, 11, 113
8, 30296, Control_c, 6, 11, 110
8, 30309, Control_c, 6, 11, 107
8, 30323, Control_c, 6, 11, 104
8, 30422, Note_on_c, 6, 77, 0
8, 30422, Note_on_c, 6, 72, 117
8, 30467, Note_on_c, 6, 72, 0
8, 30482, Note_on_c, 6, 69, 117
8, 30527, Note_on_c, 6, 69, 0
8, 30542, Note_on_c, 6, 65, 117
8, 30587, Note_on_c, 6, 65, 0
8, 30602, Note_on_c, 6, 72, 117
8, 30602, Note_on_c, 6, 60, 117
8, 30662, Note_on_c, 6, 60, 0
8, 30662, Note_on_c, 6, 72, 0
8, 30842, Note_on_c, 6, 60, 117
8, 30842, Note_on_c, 6, 72, 117
8, 30842, Control_c, 6, 11, 112
8, 30860, Control_c, 6, 11, 109
8, 30878, Control_c, 6, 11, 106
8, 30896, Control_c, 6, 11, 103
8, 30914, Control_c, 6, 11, 100
8, 30932, Control_c, 6, 11, 97
8, 30950, Control_c, 6, 11, 94
8, 30962, Note_on_c, 6, 72, 0
8, 30962, Note_on_c, 6, 60, 0
8, 30962, Note_on_c, 6, 65, 117
8, 30962, Note_on_c, 6, 69, 117
8, 31022, Note_on_c, 6, 69, 0
8, 31022, Note_on_c, 6, 65, 0
8, 31322, Note_on_c, 6, 72, 117
8, 31322, Control_c, 6, 11, 112
8, 31322, Note_on_c, 6, 60, 117
8, 31340, Control_c, 6, 11, 109
8, 31358, Control_c, 6, 11, 106
8, 31376, Control_c, 6, 11, 103
8, 31394, Control_c, 6, 11, 100
8, 31412, Control_c, 6, 11, 97
8, 31430, Control_c, 6, 11, 94
8, 31442, Note_on_c, 6, 60, 0
8, 31442, Note_on_c, 6, 72, 0
8, 31442, Note_on_c, 6, 65, 117
8, 31442, Note_on_c, 6, 69, 117
8, 31502, Note_on_c, 6, 69, 0
8, 31502, Note_on_c, 6, 65, 0
8, 32042, Note_on_c, 6, 72, 117
8, 32042, Note_on_c, 6, 60, 117
8, 32042, Control_c, 6, 11, 87
8, 32162, Note_on_c, 6, 60, 0
8, 32162, Note_on_c, 6, 72, 0
8, 32162, Note_on_c, 6, 65, 117
8, 32222, Note_on_c, 6, 65, 0
8, 47762, Note_on_c, 6, 65, 117
8, 47822, Note_on_c, 6, 65, 0
8, 47882, Note_on_c, 6, 60, 117
8, 47882, Note_on_c, 6, 72, 117
8, 47882, Control_c, 6, 11, 102
8, 47889, Control_c, 6, 11, 99
8, 47896, Control_c, 6, 11, 96
8, 47903, Control_c, 6, 11, 93
8, 47910, Control_c, 6, 11, 90
8, 47918, Control_c, 6, 11, 87
8, 47925, Control_c, 6, 11, 84
8, 47932, Control_c, 6, 11, 81
8, 47939, Control_c, 6, 11, 78
8, 48062, Note_on_c, 6, 72, 0
8, 48062, Note_on_c, 6, 60, 0
8, 48122, Note_on_c, 6, 72, 117
8, 48122, Control_c, 6, 11, 42
8, 48122, Note_on_c, 6, 60, 117
8, 48182, Note_on_c, 6, 60, 0
8, 48182, Note_on_c, 6, 72, 0
8, 48242, Note_on_c, 6, 60, 117
8, 48242, Note_on_c, 6, 72, 117
8, 48832, Note_on_c, 6, 72, 0
8, 48832, Note_on_c, 6, 60, 0
8, 48842, Control_c, 6, 11, 42
8, 48842, Note_on_c, 6, 60, 117
8, 48842, Note_on_c, 6, 72, 117
8, 48858, Control_c, 6, 11, 43
8, 48874, Control_c, 6, 11, 44
8, 48890, Control_c, 6, 11, 45
8, 48906, Control_c, 6, 11, 46
8, 48922, Control_c, 6, 11, 47
8, 48938, Control_c, 6, 11, 48
8, 48954, Control_c, 6, 11, 49
8, 48970, Control_c, 6, 11, 50
8, 48986, Control_c, 6, 11, 51
8, 49002, Control_c, 6, 11, 52
8, 49018, Control_c, 6, 11, 53
8, 49034, Control_c, 6, 11, 54
8, 49050, Control_c, 6, 11, 55
8, 49066, Control_c, 6, 11, 56
8, 49082, Control_c, 6, 11, 57
8, 49098, Control_c, 6, 11, 58
8, 49114, Control_c, 6, 11, 59
8, 49130, Control_c, 6, 11, 60
8, 49146, Control_c, 6, 11, 61
8, 49162, Control_c, 6, 11, 62
8, 49178, Control_c, 6, 11, 63
8, 49194, Control_c, 6, 11, 64
8, 49210, Control_c, 6, 11, 65
8, 49226, Control_c, 6, 11, 66
8, 49242, Control_c, 6, 11, 67
8, 49258, Control_c, 6, 11, 68
8, 49274, Control_c, 6, 11, 69
8, 49290, Control_c, 6, 11, 70
8, 49306, Control_c, 6, 11, 71
8, 49322, Control_c, 6, 11, 72
8, 49338, Control_c, 6, 11, 73
8, 49354, Control_c, 6, 11, 74
8, 49370, Control_c, 6, 11, 75
8, 49386, Control_c, 6, 11, 76
8, 49402, Control_c, 6, 11, 77
8, 49418, Control_c, 6, 11, 78
8, 49434, Control_c, 6, 11, 79
8, 49450, Control_c, 6, 11, 80
8, 49466, Control_c, 6, 11, 81
8, 49482, Control_c, 6, 11, 82
8, 49498, Control_c, 6, 11, 83
8, 49514, Control_c, 6, 11, 84
8, 49530, Control_c, 6, 11, 85
8, 49546, Control_c, 6, 11, 86
8, 49552, Note_on_c, 6, 72, 0
8, 49552, Note_on_c, 6, 60, 0
8, 49562, Control_c, 6, 11, 87
8, 49562, Note_on_c, 6, 60, 117
8, 49562, Note_on_c, 6, 72, 117
8, 49622, Note_on_c, 6, 72, 0
8, 49622, Note_on_c, 6, 60, 0
8, 49682, Note_on_c, 6, 60, 117
8, 49682, Control_c, 6, 11, 107
8, 49682, Note_on_c, 6, 72, 117
8, 49691, Control_c, 6, 11, 104
8, 49700, Control_c, 6, 11, 101
8, 49709, Control_c, 6, 11, 98
8, 49718, Control_c, 6, 11, 95
8, 49727, Control_c, 6, 11, 92
8, 49736, Control_c, 6, 11, 89
8, 49912, Note_on_c, 6, 72, 0
8, 49912, Note_on_c, 6, 60, 0
8, 49922, Note_on_c, 6, 72, 117
8, 49922, Note_on_c, 6, 60, 117
8, 49982, Note_on_c, 6, 60, 0
8, 49982, Note_on_c, 6, 72, 0
8, 50042, Note_on_c, 6, 77, 127
8, 50042, Note_on_c, 6, 65, 127
8, 50042, Control_c, 6, 11, 107
8, 50051, Control_c, 6, 11, 104
8, 50060, Control_c, 6, 11, 101
8, 50069, Control_c, 6, 11, 98
8, 50078, Control_c, 6, 11, 95
8, 50087, Control_c, 6, 11, 92
8, 50096, Control_c, 6, 11, 89
8, 50282, Note_on_c, 6, 65, 0
8, 50282, Note_on_c, 6, 77, 0
8, 50702, Note_on_c, 6, 72, 117
8, 50702, Note_on_c, 6, 60, 117
8, 50762, Note_on_c, 6, 60, 0
8, 50762, Note_on_c, 6, 72, 0
8, 50762, Note_on_c, 6, 72, 117
8, 50762, Note_on_c, 6, 60, 117
8, 50822, Note_on_c, 6, 60, 0
8, 50822, Note_on_c, 6, 72, 0
8, 50882, Note_on_c, 6, 65, 117
8, 50942, Note_on_c, 6, 65, 0
8, 51602, Note_on_c, 6, 60, 117
8, 51602, Note_on_c, 6, 72, 117
8, 51602, Control_c, 6, 11, 107
8, 51611, Control_c, 6, 11, 104
8, 51620, Control_c, 6, 11, 101
8, 51629, Control_c, 6, 11, 98
8, 51638, Control_c, 6, 11, 95
8, 51647, Control_c, 6, 11, 92
8, 51656, Control_c, 6, 11, 89
8, 51662, Note_on_c, 6, 72, 0
8, 51662, Note_on_c, 6, 60, 0
8, 52322, Control_c, 6, 11, 107
8, 52322, Note_on_c, 6, 72, 117
8, 52322, Note_on_c, 6, 60, 117
8, 52331, Control_c, 6, 11, 104
8, 52340, Control_c, 6, 11, 101
8, 52349, Control_c, 6, 11, 98
8, 52358, Control_c, 6, 11, 95
8, 52367, Control_c, 6, 11, 92
8, 52376, Control_c, 6, 11, 89
8, 52382, Note_on_c, 6, 60, 0
8, 52382, Note_on_c, 6, 72, 0
8, 52922, Note_on_c, 6, 72, 117
8, 52922, Control_c, 6, 11, 107
8, 52922, Note_on_c, 6, 60, 117
8, 52931, Control_c, 6, 11, 104
8, 52940, Control_c, 6, 11, 101
8, 52949, Control_c, 6, 11, 98
8, 52958, Control_c, 6, 11, 95
8, 52967, Control_c, 6, 11, 92
8, 52976, Control_c, 6, 11, 89
8, 52982, Note_on_c, 6, 60, 0
8, 52982, Note_on_c, 6, 72, 0
8, 53042, Note_on_c, 6, 72, 117
8, 53042, Note_on_c, 6, 60, 117
8, 53102, Note_on_c, 6, 60, 0
8, 53102, Note_on_c, 6, 72, 0
8, 53282, Control_c, 6, 11, 107
8, 53282, Note_on_c, 6, 72, 117
8, 53282, Note_on_c, 6, 60, 117
8, 53291, Control_c, 6, 11, 104
8, 53300, Control_c, 6, 11, 101
8, 53309, Control_c, 6, 11, 98
8, 53318, Control_c, 6, 11, 95
8, 53327, Control_c, 6, 11, 92
8, 53336, Control_c, 6, 11, 89
8, 53342, Note_on_c, 6, 60, 0
8, 53342, Note_on_c, 6, 72, 0
8, 53402, Note_on_c, 6, 72, 117
8, 53402, Note_on_c, 6, 60, 117
8, 53462, Note_on_c, 6, 60, 0
8, 53462, Note_on_c, 6, 72, 0
8, 53642, Note_on_c, 6, 65, 117
8, 53642, Control_c, 6, 11, 107
8, 53651, Control_c, 6, 11, 104
8, 53660, Control_c, 6, 11, 101
8, 53669, Control_c, 6, 11, 98
8, 53678, Control_c, 6, 11, 95
8, 53687, Control_c, 6, 11, 92
8, 53696, Control_c, 6, 11, 89
8, 53702, Note_on_c, 6, 65, 0
8, 53762, Note_on_c, 6, 65, 117
8, 53822, Note_on_c, 6, 65, 0
8, 58622, Control_c, 6, 11, 87
8, 58622, Note_on_c, 6, 60, 117
8, 58622, Note_on_c, 6, 72, 117
8, 58682, Note_on_c, 6, 72, 0
8, 58682, Note_on_c, 6, 60, 0
8, 58682, Note_on_c, 6, 72, 117
8, 58682, Note_on_c, 6, 60, 117
8, 58742, Note_on_c, 6, 60, 0
8, 58742, Note_on_c, 6, 72, 0
8, 58802, Note_on_c, 6, 72, 117
8, 58802, Note_on_c, 6, 60, 117
8, 58862, Note_on_c, 6, 60, 0
8, 58862, Note_on_c, 6, 72, 0
8, 58982, Note_on_c, 6, 60, 117
8, 58982, Note_on_c, 6, 72, 117
8, 59042, Note_on_c, 6, 72, 0
8, 59042, Note_on_c, 6, 60, 0
8, 59042, Note_on_c, 6, 60, 117
8, 59042, Note_on_c, 6, 72, 117
8, 59102, Note_on_c, 6, 72, 0
8, 59102, Note_on_c, 6, 60, 0
8, 59162, Note_on_c, 6, 65, 117
8, 59222, Note_on_c, 6, 65, 0
8, 59342, Note_on_c, 6, 77, 117
8, 59342, Note_on_c, 6, 65, 117
8, 59402, Note_on_c, 6, 65, 0
8, 59402, Note_on_c, 6, 77, 0
8, 59402, Note_on_c, 6, 77, 117
8, 59402, Note_on_c, 6, 65, 117
8, 59462, Note_on_c, 6, 65, 0
8, 59462, Note_on_c, 6, 77, 0
8, 59522, Note_on_c, 6, 65, 117
8, 59522, Note_on_c, 6, 77, 117
8, 59582, Note_on_c, 6, 77, 0
8, 59582, Note_on_c, 6, 65, 0
8, 60362, Note_on_c, 6, 72, 117
8, 60362, Control_c, 6, 11, 102
8, 60422, Note_on_c, 6, 72, 0
8, 60482, Note_on_c, 6, 77, 117
8, 60482, Control_c, 6, 11, 122
8, 60495, Control_c, 6, 11, 119
8, 60509, Control_c, 6, 11, 116
8, 60522, Control_c, 6, 11, 113
8, 60536, Control_c, 6, 11, 110
8, 60549, Control_c, 6, 11, 107
8, 60563, Control_c, 6, 11, 104
8, 60662, Note_on_c, 6, 77, 0
8, 60662, Note_on_c, 6, 72, 117
8, 60707, Note_on_c, 6, 72, 0
8, 60722, Note_on_c, 6, 69, 117
8, 60767, Note_on_c, 6, 69, 0
8, 60782, Note_on_c, 6, 65, 117
8, 60827, Note_on_c, 6, 65, 0
8, 60842, Note_on_c, 6, 72, 117
8, 60842, Note_on_c, 6, 60, 117
8, 60962, Note_on_c, 6, 60, 0
8, 60962, Note_on_c, 6, 72, 0
8, 61082, Note_on_c, 6, 72, 117
8, 61142, Note_on_c, 6, 72, 0
8, 61202, Note_on_c, 6, 77, 117
8, 61202, Control_c, 6, 11, 122
8, 61215, Control_c, 6, 11, 119
8, 61229, Control_c, 6, 11, 116
8, 61242, Control_c, 6, 11, 113
8, 61256, Control_c, 6, 11, 110
8, 61269, Control_c, 6, 11, 107
8, 61283, Control_c, 6, 11, 104
8, 61382, Note_on_c, 6, 77, 0
8, 61382, Note_on_c, 6, 72, 117
8, 61427, Note_on_c, 6, 72, 0
8, 61442, Note_on_c, 6, 69, 117
8, 61487, Note_on_c, 6, 69, 0
8, 61502, Note_on_c, 6, 65, 117
8, 61547, Note_on_c, 6, 65, 0
8, 61562, Note_on_c, 6, 60, 117
8, 61562, Note_on_c, 6, 72, 117
8, 61622, Note_on_c, 6, 72, 0
8, 61622, Note_on_c, 6, 60, 0
8, 61802, Note_on_c, 6, 60, 117
8, 61802, Note_on_c, 6, 72, 117
8, 61802, Control_c, 6, 11, 112
8, 61820, Control_c, 6, 11, 109
8, 61838, Control_c, 6, 11, 106
8, 61856, Control_c, 6, 11, 103
8, 61874, Control_c, 6, 11, 100
8, 61892, Control_c, 6, 11, 97
8, 61910, Control_c, 6, 11, 94
8, 61922, Note_on_c, 6, 72, 0
8, 61922, Note_on_c, 6, 60, 0
8, 61922, Note_on_c, 6, 69, 117
8, 61922, Note_on_c, 6, 65, 117
8, 61982, Note_on_c, 6, 65, 0
8, 61982, Note_on_c, 6, 69, 0
8, 62282, Note_on_c, 6, 60, 117
8, 62282, Note_on_c, 6, 72, 117
8, 62282, Control_c, 6, 11, 112
8, 62300, Control_c, 6, 11, 109
8, 62318, Control_c, 6, 11, 106
8, 62336, Control_c, 6, 11, 103
8, 62354, Control_c, 6, 11, 100
8, 62372, Control_c, 6, 11, 97
8, 62390, Control_c, 6, 11, 94
8, 62402, Note_on_c, 6, 72, 0
8, 62402, Note_on_c, 6, 60, 0
8, 62402, Note_on_c, 6, 65, 117
8, 62402, Note_on_c, 6, 69, 117
8, 62462, Note_on_c, 6, 69, 0
8, 62462, Note_on_c, 6, 65, 0
8, 63002, Note_on_c, 6, 60, 117
8, 63002, Note_on_c, 6, 72, 117
8, 63002, Control_c, 6, 11, 87
8, 63122, Note_on_c, 6, 72, 0
8, 63122, Note_on_c, 6, 60, 0
8, 63122, Note_on_c, 6, 65, 117
8, 63182, Note_on_c, 6, 65, 0
8, 63722, Control_c, 6, 121, 0
8, 63722, End_track
9, 0, Start_track
9, 0, MIDI_port, 0
9, 0, Title_t, "Timpani"
9, 0, Program_c, 15, 47
9, 0, Control_c, 15, 10, 97
9, 15, Control_c, 15, 121, 0
9, 20, Program_c, 15, 47
9, 25, Pitch_bend_c, 15, 8192
9, 30, Control_c, 15, 11, 127
9, 35, Control_c, 15, 7, 127
9, 40, Control_c, 15, 91, 89
9, 45, Control_c, 15, 93, 0
9, 975, Note_on_c, 15, 41, 90
9, 1035, Note_on_c, 15, 41, 0
9, 1095, Note_on_c, 15, 48, 90
9, 1155, Note_on_c, 15, 48, 0
9, 2775, Note_on_c, 15, 48, 90
9, 2835, Note_on_c, 15, 48, 0
9, 2895, Note_on_c, 15, 48, 100
9, 3015, Note_on_c, 15, 48, 0
9, 3135, Note_on_c, 15, 48, 90
9, 3195, Note_on_c, 15, 48, 0
9, 3255, Note_on_c, 15, 41, 90
9, 3375, Note_on_c, 15, 41, 0
9, 3915, Note_on_c, 15, 48, 90
9, 3975, Note_on_c, 15, 48, 0
9, 3975, Note_on_c, 15, 48, 90
9, 4035, Note_on_c, 15, 48, 0
9, 4095, Note_on_c, 15, 41, 90
9, 4155, Note_on_c, 15, 41, 0
9, 4575, Note_on_c, 15, 41, 90
9, 4635, Note_on_c, 15, 41, 0
9, 4695, Note_on_c, 15, 48, 90
9, 4755, Note_on_c, 15, 48, 0
9, 6375, Note_on_c, 15, 48, 90
9, 6435, Note_on_c, 15, 48, 0
9, 6495, Note_on_c, 15, 48, 100
9, 6615, Note_on_c, 15, 48, 0
9, 6735, Note_on_c, 15, 48, 90
9, 6795, Note_on_c, 15, 48, 0
9, 6855, Note_on_c, 15, 41, 90
9, 6975, Note_on_c, 15, 41, 0
9, 7515, Note_on_c, 15, 48, 90
9, 7575, Note_on_c, 15, 48, 0
9, 7575, Note_on_c, 15, 48, 90
9, 7635, Note_on_c, 15, 48, 0
9, 7695, Note_on_c, 15, 41, 90
9, 7755, Note_on_c, 15, 41, 0
9, 8415, Note_on_c, 15, 48, 100
9, 8475, Note_on_c, 15, 48, 0
9, 9135, Note_on_c, 15, 48, 100
9, 9195, Note_on_c, 15, 48, 0
9, 9735, Note_on_c, 15, 48, 100
9, 9795, Note_on_c, 15, 48, 0
9, 9855, Note_on_c, 15, 48, 90
9, 9915, Note_on_c, 15, 48, 0
9, 10095, Note_on_c, 15, 48, 100
9, 10155, Note_on_c, 15, 48, 0
9, 10215, Note_on_c, 15, 48, 90
9, 10275, Note_on_c, 15, 48, 0
9, 10455, Note_on_c, 15, 41, 100
9, 10515, Note_on_c, 15, 41, 0
9, 10575, Note_on_c, 15, 41, 90
9, 10635, Note_on_c, 15, 41, 0
9, 15435, Note_on_c, 15, 48, 90
9, 15495, Note_on_c, 15, 48, 0
9, 15495, Note_on_c, 15, 48, 90
9, 15555, Note_on_c, 15, 48, 0
9, 15615, Note_on_c, 15, 48, 90
9, 15675, Note_on_c, 15, 48, 0
9, 15795, Note_on_c, 15, 48, 90
9, 15855, Note_on_c, 15, 48, 0
9, 15855, Note_on_c, 15, 48, 90
9, 15915, Note_on_c, 15, 48, 0
9, 15975, Note_on_c, 15, 41, 90
9, 16035, Note_on_c, 15, 41, 0
9, 16155, Note_on_c, 15, 41, 90
9, 16215, Note_on_c, 15, 41, 0
9, 16215, Note_on_c, 15, 41, 90
9, 16275, Note_on_c, 15, 41, 0
9, 16335, Note_on_c, 15, 41, 90
9, 16395, Note_on_c, 15, 41, 0
9, 17415, Note_on_c, 15, 41, 103
9, 17475, Note_on_c, 15, 41, 0
9, 17535, Note_on_c, 15, 48, 100
9, 17595, Note_on_c, 15, 48, 0
9, 18135, Note_on_c, 15, 41, 103
9, 18195, Note_on_c, 15, 41, 0
9, 18255, Note_on_c, 15, 48, 100
9, 18315, Note_on_c, 15, 48, 0
9, 19815, Note_on_c, 15, 48, 90
9, 19875, Note_on_c, 15, 48, 0
9, 19935, Note_on_c, 15, 41, 90
9, 19995, Note_on_c, 15, 41, 0
9, 20655, Note_on_c, 15, 48, 100
9, 20715, Note_on_c, 15, 48, 0
9, 21375, Note_on_c, 15, 48, 100
9, 21435, Note_on_c, 15, 48, 0
9, 21975, Note_on_c, 15, 48, 100
9, 22035, Note_on_c, 15, 48, 0
9, 22095, Note_on_c, 15, 48, 90
9, 22155, Note_on_c, 15, 48, 0
9, 22335, Note_on_c, 15, 48, 100
9, 22395, Note_on_c, 15, 48, 0
9, 22455, Note_on_c, 15, 48, 90
9, 22515, Note_on_c, 15, 48, 0
9, 22695, Note_on_c, 15, 41, 100
9, 22755, Note_on_c, 15, 41, 0
9, 22815, Note_on_c, 15, 41, 90
9, 22875, Note_on_c, 15, 41, 0
9, 27675, Note_on_c, 15, 48, 90
9, 27735, Note_on_c, 15, 48, 0
9, 27735, Note_on_c, 15, 48, 90
9, 27795, Note_on_c, 15, 48, 0
9, 27855, Note_on_c, 15, 48, 90
9, 27915, Note_on_c, 15, 48, 0
9, 28035, Note_on_c, 15, 48, 90
9, 28095, Note_on_c, 15, 48, 0
9, 28095, Note_on_c, 15, 48, 90
9, 28155, Note_on_c, 15, 48, 0
9, 28215, Note_on_c, 15, 41, 90
9, 28275, Note_on_c, 15, 41, 0
9, 28395, Note_on_c, 15, 41, 90
9, 28455, Note_on_c, 15, 41, 0
9, 28455, Note_on_c, 15, 41, 90
9, 28515, Note_on_c, 15, 41, 0
9, 28575, Note_on_c, 15, 41, 90
9, 28635, Note_on_c, 15, 41, 0
9, 29655, Note_on_c, 15, 41, 103
9, 29715, Note_on_c, 15, 41, 0
9, 29775, Note_on_c, 15, 48, 100
9, 29835, Note_on_c, 15, 48, 0
9, 30375, Note_on_c, 15, 41, 103
9, 30435, Note_on_c, 15, 41, 0
9, 30495, Note_on_c, 15, 48, 100
9, 30555, Note_on_c, 15, 48, 0
9, 32055, Note_on_c, 15, 48, 90
9, 32115, Note_on_c, 15, 48, 0
9, 32175, Note_on_c, 15, 41, 90
9, 32235, Note_on_c, 15, 41, 0
9, 47775, Note_on_c, 15, 41, 90
9, 47835, Note_on_c, 15, 41, 0
9, 47895, Note_on_c, 15, 48, 90
9, 47955, Note_on_c, 15, 48, 0
9, 49575, Note_on_c, 15, 48, 90
9, 49635, Note_on_c, 15, 48, 0
9, 49695, Note_on_c, 15, 48, 100
9, 49815, Note_on_c, 15, 48, 0
9, 49935, Note_on_c, 15, 48, 90
9, 49995, Note_on_c, 15, 48, 0
9, 50055, Note_on_c, 15, 41, 90
9, 50175, Note_on_c, 15, 41, 0
9, 50715, Note_on_c, 15, 48, 90
9, 50775, Note_on_c, 15, 48, 0
9, 50775, Note_on_c, 15, 48, 90
9, 50835, Note_on_c, 15, 48, 0
9, 50895, Note_on_c, 15, 41, 90
9, 50955, Note_on_c, 15, 41, 0
9, 51615, Note_on_c, 15, 48, 100
9, 51675, Note_on_c, 15, 48, 0
9, 52335, Note_on_c, 15, 48, 100
9, 52395, Note_on_c, 15, 48, 0
9, 52935, Note_on_c, 15, 48, 100
9, 52995, Note_on_c, 15, 48, 0
9, 53055, Note_on_c, 15, 48, 90
9, 53115, Note_on_c, 15, 48, 0
9, 53295, Note_on_c, 15, 48, 100
9, 53355, Note_on_c, 15, 48, 0
9, 53415, Note_on_c, 15, 48, 90
9, 53475, Note_on_c, 15, 48, 0
9, 53655, Note_on_c, 15, 41, 100
9, 53715, Note_on_c, 15, 41, 0
9, 53775, Note_on_c, 15, 41, 90
9, 53835, Note_on_c, 15, 41, 0
9, 58635, Note_on_c, 15, 48, 90
9, 58695, Note_on_c, 15, 48, 0
9, 58695, Note_on_c, 15, 48, 90
9, 58755, Note_on_c, 15, 48, 0
9, 58815, Note_on_c, 15, 48, 90
9, 58875, Note_on_c, 15, 48, 0
9, 58995, Note_on_c, 15, 48, 90
9, 59055, Note_on_c, 15, 48, 0
9, 59055, Note_on_c, 15, 48, 90
9, 59115, Note_on_c, 15, 48, 0
9, 59175, Note_on_c, 15, 41, 90
9, 59235, Note_on_c, 15, 41, 0
9, 59355, Note_on_c, 15, 41, 90
9, 59415, Note_on_c, 15, 41, 0
9, 59415, Note_on_c, 15, 41, 90
9, 59475, Note_on_c, 15, 41, 0
9, 59535, Note_on_c, 15, 41, 90
9, 59595, Note_on_c, 15, 41, 0
9, 60615, Note_on_c, 15, 41, 103
9, 60675, Note_on_c, 15, 41, 0
9, 60735, Note_on_c, 15, 48, 100
9, 60795, Note_on_c, 15, 48, 0
9, 61335, Note_on_c, 15, 41, 103
9, 61395, Note_on_c, 15, 41, 0
9, 61455, Note_on_c, 15, 48, 100
9, 61515, Note_on_c, 15, 48, 0
9, 63015, Note_on_c, 15, 48, 90
9, 63075, Note_on_c, 15, 48, 0
9, 63135, Note_on_c, 15, 41, 90
9, 63195, Note_on_c, 15, 41, 0
9, 63735, Control_c, 15, 121, 0
9, 63735, End_track
10, 0, Start_track
10, 0, MIDI_port, 0
10, 0, Title_t, "Violine I"
10, 0, Program_c, 10, 48
10, 0, Control_c, 10, 10, 12
10, 0, Control_c, 10, 121, 0
10, 5, Program_c, 10, 48
10, 10, Pitch_bend_c, 10, 8492
10, 15, Control_c, 10, 11, 87
10, 20, Control_c, 10, 7, 127
10, 25, Control_c, 10, 91, 48
10, 30, Control_c, 10, 93, 0
10, 600, Note_on_c, 10, 65, 97
10, 660, Note_on_c, 10, 65, 0
10, 660, Note_on_c, 10, 60, 97
10, 710, Note_on_c, 10, 60, 0
10, 720, Control_c, 10, 11, 107
10, 720, Note_on_c, 10, 65, 97
10, 729, Control_c, 10, 11, 104
10, 738, Control_c, 10, 11, 101
10, 747, Control_c, 10, 11, 98
10, 756, Control_c, 10, 11, 95
10, 765, Control_c, 10, 11, 92
10, 774, Control_c, 10, 11, 89
10, 780, Note_on_c, 10, 65, 0
10, 780, Note_on_c, 10, 60, 97
10, 840, Note_on_c, 10, 60, 0
10, 840, Control_c, 10, 11, 107
10, 840, Note_on_c, 10, 65, 97
10, 849, Control_c, 10, 11, 104
10, 858, Control_c, 10, 11, 101
10, 867, Control_c, 10, 11, 98
10, 876, Control_c, 10, 11, 95
10, 885, Control_c, 10, 11, 92
10, 894, Control_c, 10, 11, 89
10, 900, Note_on_c, 10, 65, 0
10, 900, Note_on_c, 10, 60, 97
10, 950, Note_on_c, 10, 60, 0
10, 960, Control_c, 10, 11, 107
10, 960, Note_on_c, 10, 69, 97
10, 969, Control_c, 10, 11, 104
10, 978, Control_c, 10, 11, 101
10, 987, Control_c, 10, 11, 98
10, 996, Control_c, 10, 11, 95
10, 1005, Control_c, 10, 11, 92
10, 1014, Control_c, 10, 11, 89
10, 1020, Note_on_c, 10, 69, 0
10, 1020, Note_on_c, 10, 65, 97
10, 1070, Note_on_c, 10, 65, 0
10, 1080, Control_c, 10, 11, 102
10, 1080, Note_on_c, 10, 69, 97
10, 1087, Control_c, 10, 11, 99
10, 1094, Control_c, 10, 11, 96
10, 1101, Control_c, 10, 11, 93
10, 1108, Control_c, 10, 11, 90
10, 1116, Control_c, 10, 11, 87
10, 1123, Control_c, 10, 11, 84
10, 1130, Control_c, 10, 11, 81
10, 1137, Control_c, 10, 11, 78
10, 1140, Note_on_c, 10, 69, 0
10, 1140, Note_on_c, 10, 65, 97
10, 1200, Note_on_c, 10, 65, 0
10, 1200, Control_c, 10, 11, 92
10, 1200, Note_on_c, 10, 69, 97
10, 1209, Control_c, 10, 11, 89
10, 1218, Control_c, 10, 11, 86
10, 1227, Control_c, 10, 11, 83
10, 1236, Control_c, 10, 11, 80
10, 1245, Control_c, 10, 11, 77
10, 1254, Control_c, 10, 11, 74
10, 1260, Note_on_c, 10, 69, 0
10, 1260, Note_on_c, 10, 65, 97
10, 1310, Note_on_c, 10, 65, 0
10, 1320, Control_c, 10, 11, 42
10, 1320, Note_on_c, 10, 81, 112
10, 1350, Note_on_c, 10, 81, 0
10, 1440, Note_on_c, 10, 84, 112
10, 1620, Note_on_c, 10, 84, 0
10, 1620, Note_on_c, 10, 82, 112
10, 1680, Note_on_c, 10, 82, 0
10, 1680, Note_on_c, 10, 79, 112
10, 1740, Note_on_c, 10, 79, 0
10, 1740, Note_on_c, 10, 76, 112
10, 1800, Note_on_c, 10, 76, 0
10, 1800, Note_on_c, 10, 79, 112
10, 1860, Note_on_c, 10, 79, 0
10, 1860, Note_on_c, 10, 77, 112
10, 1920, Note_on_c, 10, 77, 0
10, 1920, Note_on_c, 10, 81, 112
10, 1980, Note_on_c, 10, 81, 0
10, 1980, Note_on_c, 10, 77, 112
10, 2040, Note_on_c, 10, 77, 0
10, 2040, Control_c, 10, 11, 42
10, 2040, Note_on_c, 10, 72, 112
10, 2056, Control_c, 10, 11, 43
10, 2072, Control_c, 10, 11, 44
10, 2088, Control_c, 10, 11, 45
10, 2100, Note_on_c, 10, 72, 0
10, 2100, Note_on_c, 10, 73, 112
10, 2104, Control_c, 10, 11, 46
10, 2120, Control_c, 10, 11, 47
10, 2136, Control_c, 10, 11, 48
10, 2152, Control_c, 10, 11, 49
10, 2160, Note_on_c, 10, 73, 0
10, 2160, Note_on_c, 10, 76, 112
10, 2168, Control_c, 10, 11, 50
10, 2184, Control_c, 10, 11, 51
10, 2200, Control_c, 10, 11, 52
10, 2216, Control_c, 10, 11, 53
10, 2220, Note_on_c, 10, 76, 0
10, 2220, Note_on_c, 10, 74, 112
10, 2232, Control_c, 10, 11, 54
10, 2248, Control_c, 10, 11, 55
10, 2264, Control_c, 10, 11, 56
10, 2280, Note_on_c, 10, 74, 0
10, 2280, Control_c, 10, 11, 57
10, 2280, Note_on_c, 10, 67, 112
10, 2296, Control_c, 10, 11, 58
10, 2312, Control_c, 10, 11, 59
10, 2328, Control_c, 10, 11, 60
10, 2340, Note_on_c, 10, 67, 0
10, 2340, Note_on_c, 10, 69, 112
10, 2344, Control_c, 10, 11, 61
10, 2360, Control_c, 10, 11, 62
10, 2376, Control_c, 10, 11, 63
10, 2392, Control_c, 10, 11, 64
10, 2400, Note_on_c, 10, 69, 0
10, 2400, Note_on_c, 10, 70, 112
10, 2408, Control_c, 10, 11, 65
10, 2424, Control_c, 10, 11, 66
10, 2440, Control_c, 10, 11, 67
10, 2456, Control_c, 10, 11, 68
10, 2460, Note_on_c, 10, 70, 0
10, 2460, Note_on_c, 10, 71, 112
10, 2472, Control_c, 10, 11, 69
10, 2488, Control_c, 10, 11, 70
10, 2504, Control_c, 10, 11, 71
10, 2510, Note_on_c, 10, 71, 0
10, 2520, Control_c, 10, 11, 72
10, 2520, Note_on_c, 10, 71, 112
10, 2536, Control_c, 10, 11, 73
10, 2552, Control_c, 10, 11, 74
10, 2568, Control_c, 10, 11, 75
10, 2584, Control_c, 10, 11, 76
10, 2600, Control_c, 10, 11, 77
10, 2616, Control_c, 10, 11, 78
10, 2632, Control_c, 10, 11, 79
10, 2640, Note_on_c, 10, 71, 0
10, 2640, Note_on_c, 10, 72, 112
10, 2648, Control_c, 10, 11, 80
10, 2664, Control_c, 10, 11, 81
10, 2680, Control_c, 10, 11, 82
10, 2696, Control_c, 10, 11, 83
10, 2700, Note_on_c, 10, 72, 0
10, 2712, Control_c, 10, 11, 84
10, 2728, Control_c, 10, 11, 85
10, 2744, Control_c, 10, 11, 86
10, 2760, Control_c, 10, 11, 87
10, 2760, Note_on_c, 10, 69, 112
10, 2760, Note_on_c, 10, 81, 112
10, 2820, Note_on_c, 10, 81, 0
10, 2820, Note_on_c, 10, 69, 0
10, 2880, Control_c, 10, 11, 107
10, 2880, Note_on_c, 10, 84, 112
10, 2889, Control_c, 10, 11, 104
10, 2898, Control_c, 10, 11, 101
10, 2907, Control_c, 10, 11, 98
10, 2916, Control_c, 10, 11, 95
10, 2925, Control_c, 10, 11, 92
10, 2934, Control_c, 10, 11, 89
10, 3060, Note_on_c, 10, 84, 0
10, 3060, Note_on_c, 10, 82, 112
10, 3120, Note_on_c, 10, 82, 0
10, 3120, Note_on_c, 10, 79, 112
10, 3180, Note_on_c, 10, 79, 0
10, 3180, Note_on_c, 10, 76, 112
10, 3240, Note_on_c, 10, 76, 0
10, 3240, Note_on_c, 10, 79, 112
10, 3300, Note_on_c, 10, 79, 0
10, 3300, Note_on_c, 10, 77, 112
10, 3360, Note_on_c, 10, 77, 0
10, 3360, Note_on_c, 10, 81, 112
10, 3420, Note_on_c, 10, 81, 0
10, 3420, Note_on_c, 10, 77, 112
10, 3480, Note_on_c, 10, 77, 0
10, 3480, Note_on_c, 10, 72, 112
10, 3540, Note_on_c, 10, 72, 0
10, 3540, Note_on_c, 10, 73, 112
10, 3600, Note_on_c, 10, 73, 0
10, 3600, Note_on_c, 10, 76, 112
10, 3660, Note_on_c, 10, 76, 0
10, 3660, Note_on_c, 10, 74, 112
10, 3720, Note_on_c, 10, 74, 0
10, 3720, Note_on_c, 10, 67, 112
10, 3780, Note_on_c, 10, 67, 0
10, 3780, Note_on_c, 10, 69, 112
10, 3840, Note_on_c, 10, 69, 0
10, 3840, Note_on_c, 10, 70, 112
10, 3900, Note_on_c, 10, 70, 0
10, 3900, Note_on_c, 10, 64, 112
10, 3950, Note_on_c, 10, 64, 0
10, 3960, Note_on_c, 10, 64, 112
10, 4080, Note_on_c, 10, 64, 0
10, 4080, Note_on_c, 10, 65, 112
10, 4140, Note_on_c, 10, 65, 0
10, 4200, Note_on_c, 10, 65, 97
10, 4260, Note_on_c, 10, 65, 0
10, 4260, Note_on_c, 10, 60, 97
10, 4310, Note_on_c, 10, 60, 0
10, 4320, Control_c, 10, 11, 107
10, 4320, Note_on_c, 10, 65, 97
10, 4329, Control_c, 10, 11, 104
10, 4338, Control_c, 10, 11, 101
10, 4347, Control_c, 10, 11, 98
10, 4356, Control_c, 10, 11, 95
10, 4365, Control_c, 10, 11, 92
10, 4374, Control_c, 10, 11, 89
10, 4380, Note_on_c, 10, 65, 0
10, 4380, Note_on_c, 10, 60, 97
10, 4440, Note_on_c, 10, 60, 0
10, 4440, Control_c, 10, 11, 107
10, 4440, Note_on_c, 10, 65, 97
10, 4449, Control_c, 10, 11, 104
10, 4458, Control_c, 10, 11, 101
10, 4467, Control_c, 10, 11, 98
10, 4476, Control_c, 10, 11, 95
10, 4485, Control_c, 10, 11, 92
10, 4494, Control_c, 10, 11, 89
10, 4500, Note_on_c, 10, 65, 0
10, 4500, Note_on_c, 10, 60, 97
10, 4550, Note_on_c, 10, 60, 0
10, 4560, Control_c, 10, 11, 107
10, 4560, Note_on_c, 10, 69, 97
10, 4569, Control_c, 10, 11, 104
10, 4578, Control_c, 10, 11, 101
10, 4587, Control_c, 10, 11, 98
10, 4596, Control_c, 10, 11, 95
10, 4605, Control_c, 10, 11, 92
10, 4614, Control_c, 10, 11, 89
10, 4620, Note_on_c, 10, 69, 0
10, 4620, Note_on_c, 10, 65, 97
10, 4670, Note_on_c, 10, 65, 0
10, 4680, Note_on_c, 10, 69, 97
10, 4680, Control_c, 10, 11, 102
10, 4687, Control_c, 10, 11, 99
10, 4694, Control_c, 10, 11, 96
10, 4701, Control_c, 10, 11, 93
10, 4708, Control_c, 10, 11, 90
10, 4716, Control_c, 10, 11, 87
10, 4723, Control_c, 10, 11, 84
10, 4730, Control_c, 10, 11, 81
10, 4737, Control_c, 10, 11, 78
10, 4740, Note_on_c, 10, 69, 0
10, 4740, Note_on_c, 10, 65, 97
10, 4800, Note_on_c, 10, 65, 0
10, 4800, Note_on_c, 10, 69, 88
10, 4800, Control_c, 10, 11, 92
10, 4809, Control_c, 10, 11, 89
10, 4818, Control_c, 10, 11, 86
10, 4827, Control_c, 10, 11, 83
10, 4836, Control_c, 10, 11, 80
10, 4845, Control_c, 10, 11, 77
10, 4854, Control_c, 10, 11, 74
10, 4860, Note_on_c, 10, 69, 0
10, 4860, Note_on_c, 10, 65, 80
10, 4910, Note_on_c, 10, 65, 0
10, 4920, Control_c, 10, 11, 42
10, 4920, Note_on_c, 10, 81, 112
10, 4950, Note_on_c, 10, 81, 0
10, 5040, Note_on_c, 10, 84, 112
10, 5220, Note_on_c, 10, 84, 0
10, 5220, Note_on_c, 10, 82, 112
10, 5280, Note_on_c, 10, 82, 0
10, 5280, Note_on_c, 10, 79, 112
10, 5340, Note_on_c, 10, 79, 0
10, 5340, Note_on_c, 10, 76, 112
10, 5400, Note_on_c, 10, 76, 0
10, 5400, Note_on_c, 10, 79, 112
10, 5460, Note_on_c, 10, 79, 0
10, 5460, Note_on_c, 10, 77, 112
10, 5520, Note_on_c, 10, 77, 0
10, 5520, Note_on_c, 10, 81, 112
10, 5580, Note_on_c, 10, 81, 0
10, 5580, Note_on_c, 10, 77, 112
10, 5640, Note_on_c, 10, 77, 0
10, 5640, Control_c, 10, 11, 42
10, 5640, Note_on_c, 10, 72, 112
10, 5656, Control_c, 10, 11, 43
10, 5672, Control_c, 10, 11, 44
10, 5688, Control_c, 10, 11, 45
10, 5700, Note_on_c, 10, 72, 0
10, 5700, Note_on_c, 10, 73, 112
10, 5704, Control_c, 10, 11, 46
10, 5720, Control_c, 10, 11, 47
10, 5736, Control_c, 10, 11, 48
10, 5752, Control_c, 10, 11, 49
10, 5760, Note_on_c, 10, 73, 0
10, 5760, Note_on_c, 10, 76, 112
10, 5768, Control_c, 10, 11, 50
10, 5784, Control_c, 10, 11, 51
10, 5800, Control_c, 10, 11, 52
10, 5816, Control_c, 10, 11, 53
10, 5820, Note_on_c, 10, 76, 0
10, 5820, Note_on_c, 10, 74, 112
10, 5832, Control_c, 10, 11, 54
10, 5848, Control_c, 10, 11, 55
10, 5864, Control_c, 10, 11, 56
10, 5880, Note_on_c, 10, 74, 0
10, 5880, Control_c, 10, 11, 57
10, 5880, Note_on_c, 10, 67, 112
10, 5896, Control_c, 10, 11, 58
10, 5912, Control_c, 10, 11, 59
10, 5928, Control_c, 10, 11, 60
10, 5940, Note_on_c, 10, 67, 0
10, 5940, Note_on_c, 10, 69, 112
10, 5944, Control_c, 10, 11, 61
10, 5960, Control_c, 10, 11, 62
10, 5976, Control_c, 10, 11, 63
10, 5992, Control_c, 10, 11, 64
10, 6000, Note_on_c, 10, 69, 0
10, 6000, Note_on_c, 10, 70, 112
10, 6008, Control_c, 10, 11, 65
10, 6024, Control_c, 10, 11, 66
10, 6040, Control_c, 10, 11, 67
10, 6056, Control_c, 10, 11, 68
10, 6060, Note_on_c, 10, 70, 0
10, 6060, Note_on_c, 10, 71, 112
10, 6072, Control_c, 10, 11, 69
10, 6088, Control_c, 10, 11, 70
10, 6104, Control_c, 10, 11, 71
10, 6110, Note_on_c, 10, 71, 0
10, 6120, Control_c, 10, 11, 72
10, 6120, Note_on_c, 10, 71, 112
10, 6136, Control_c, 10, 11, 73
10, 6152, Control_c, 10, 11, 74
10, 6168, Control_c, 10, 11, 75
10, 6184, Control_c, 10, 11, 76
10, 6200, Control_c, 10, 11, 77
10, 6216, Control_c, 10, 11, 78
10, 6232, Control_c, 10, 11, 79
10, 6240, Note_on_c, 10, 71, 0
10, 6240, Note_on_c, 10, 72, 112
10, 6248, Control_c, 10, 11, 80
10, 6264, Control_c, 10, 11, 81
10, 6280, Control_c, 10, 11, 82
10, 6296, Control_c, 10, 11, 83
10, 6300, Note_on_c, 10, 72, 0
10, 6312, Control_c, 10, 11, 84
10, 6328, Control_c, 10, 11, 85
10, 6344, Control_c, 10, 11, 86
10, 6360, Control_c, 10, 11, 87
10, 6360, Note_on_c, 10, 69, 112
10, 6360, Note_on_c, 10, 81, 112
10, 6420, Note_on_c, 10, 81, 0
10, 6420, Note_on_c, 10, 69, 0
10, 6480, Note_on_c, 10, 84, 112
10, 6480, Control_c, 10, 11, 107
10, 6489, Control_c, 10, 11, 104
10, 6498, Control_c, 10, 11, 101
10, 6507, Control_c, 10, 11, 98
10, 6516, Control_c, 10, 11, 95
10, 6525, Control_c, 10, 11, 92
10, 6534, Control_c, 10, 11, 89
10, 6660, Note_on_c, 10, 84, 0
10, 6660, Note_on_c, 10, 82, 112
10, 6720, Note_on_c, 10, 82, 0
10, 6720, Note_on_c, 10, 79, 112
10, 6780, Note_on_c, 10, 79, 0
10, 6780, Note_on_c, 10, 76, 112
10, 6840, Note_on_c, 10, 76, 0
10, 6840, Note_on_c, 10, 79, 112
10, 6900, Note_on_c, 10, 79, 0
10, 6900, Note_on_c, 10, 77, 112
10, 6960, Note_on_c, 10, 77, 0
10, 6960, Note_on_c, 10, 81, 112
10, 7020, Note_on_c, 10, 81, 0
10, 7020, Note_on_c, 10, 77, 112
10, 7080, Note_on_c, 10, 77, 0
10, 7080, Note_on_c, 10, 72, 112
10, 7140, Note_on_c, 10, 72, 0
10, 7140, Note_on_c, 10, 73, 112
10, 7200, Note_on_c, 10, 73, 0
10, 7200, Note_on_c, 10, 76, 112
10, 7260, Note_on_c, 10, 76, 0
10, 7260, Note_on_c, 10, 74, 112
10, 7320, Note_on_c, 10, 74, 0
10, 7320, Note_on_c, 10, 67, 112
10, 7380, Note_on_c, 10, 67, 0
10, 7380, Note_on_c, 10, 69, 112
10, 7440, Note_on_c, 10, 69, 0
10, 7440, Note_on_c, 10, 70, 112
10, 7500, Note_on_c, 10, 70, 0
10, 7500, Note_on_c, 10, 64, 112
10, 7550, Note_on_c, 10, 64, 0
10, 7560, Note_on_c, 10, 64, 112
10, 7680, Note_on_c, 10, 64, 0
10, 7680, Note_on_c, 10, 65, 112
10, 7740, Note_on_c, 10, 65, 0
10, 7800, Note_on_c, 10, 76, 127
10, 7830, Note_on_c, 10, 76, 0
10, 7920, Control_c, 10, 11, 107
10, 7920, Note_on_c, 10, 79, 112
10, 7929, Control_c, 10, 11, 104
10, 7938, Control_c, 10, 11, 101
10, 7947, Control_c, 10, 11, 98
10, 7956, Control_c, 10, 11, 95
10, 7965, Control_c, 10, 11, 92
10, 7974, Control_c, 10, 11, 89
10, 8100, Note_on_c, 10, 79, 0
10, 8100, Note_on_c, 10, 77, 112
10, 8160, Note_on_c, 10, 77, 0
10, 8160, Note_on_c, 10, 74, 112
10, 8220, Note_on_c, 10, 74, 0
10, 8220, Note_on_c, 10, 71, 112
10, 8270, Note_on_c, 10, 71, 0
10, 8280, Note_on_c, 10, 67, 112
10, 8340, Note_on_c, 10, 67, 0
10, 8400, Control_c, 10, 11, 107
10, 8400, Note_on_c, 10, 55, 112
10, 8405, Note_on_c, 10, 64, 112
10, 8409, Control_c, 10, 11, 104
10, 8410, Note_on_c, 10, 72, 112
10, 8418, Control_c, 10, 11, 101
10, 8427, Control_c, 10, 11, 98
10, 8436, Control_c, 10, 11, 95
10, 8445, Control_c, 10, 11, 92
10, 8454, Control_c, 10, 11, 89
10, 8520, Note_on_c, 10, 55, 0
10, 8525, Note_on_c, 10, 64, 0
10, 8630, Note_on_c, 10, 72, 0
10, 8640, Note_on_c, 10, 67, 112
10, 8700, Note_on_c, 10, 67, 0
10, 8760, Control_c, 10, 11, 107
10, 8760, Note_on_c, 10, 55, 112
10, 8765, Note_on_c, 10, 67, 112
10, 8769, Control_c, 10, 11, 104
10, 8770, Note_on_c, 10, 74, 112
10, 8778, Control_c, 10, 11, 101
10, 8787, Control_c, 10, 11, 98
10, 8796, Control_c, 10, 11, 95
10, 8805, Control_c, 10, 11, 92
10, 8814, Control_c, 10, 11, 89
10, 8880, Note_on_c, 10, 55, 0
10, 8885, Note_on_c, 10, 67, 0
10, 8990, Note_on_c, 10, 74, 0
10, 9000, Note_on_c, 10, 67, 112
10, 9060, Note_on_c, 10, 67, 0
10, 9120, Control_c, 10, 11, 107
10, 9120, Note_on_c, 10, 55, 112
10, 9125, Note_on_c, 10, 64, 112
10, 9129, Control_c, 10, 11, 104
10, 9130, Note_on_c, 10, 76, 112
10, 9138, Control_c, 10, 11, 101
10, 9147, Control_c, 10, 11, 98
10, 9156, Control_c, 10, 11, 95
10, 9165, Control_c, 10, 11, 92
10, 9174, Control_c, 10, 11, 89
10, 9230, Note_on_c, 10, 76, 0
10, 9230, Note_on_c, 10, 55, 0
10, 9235, Note_on_c, 10, 64, 0
10, 9240, Note_on_c, 10, 76, 112
10, 9270, Note_on_c, 10, 76, 0
10, 9360, Control_c, 10, 11, 107
10, 9360, Note_on_c, 10, 79, 112
10, 9369, Control_c, 10, 11, 104
10, 9378, Control_c, 10, 11, 101
10, 9387, Control_c, 10, 11, 98
10, 9396, Control_c, 10, 11, 95
10, 9405, Control_c, 10, 11, 92
10, 9414, Control_c, 10, 11, 89
10, 9540, Note_on_c, 10, 79, 0
10, 9540, Note_on_c, 10, 77, 112
10, 9600, Note_on_c, 10, 77, 0
10, 9600, Note_on_c, 10, 74, 112
10, 9660, Note_on_c, 10, 74, 0
10, 9660, Note_on_c, 10, 71, 112
10, 9710, Note_on_c, 10, 71, 0
10, 9720, Control_c, 10, 11, 107
10, 9720, Note_on_c, 10, 81, 112
10, 9729, Control_c, 10, 11, 104
10, 9738, Control_c, 10, 11, 101
10, 9747, Control_c, 10, 11, 98
10, 9756, Control_c, 10, 11, 95
10, 9765, Control_c, 10, 11, 92
10, 9774, Control_c, 10, 11, 89
10, 9900, Note_on_c, 10, 81, 0
10, 9900, Note_on_c, 10, 79, 112
10, 9960, Note_on_c, 10, 79, 0
10, 9960, Note_on_c, 10, 76, 112
10, 10020, Note_on_c, 10, 76, 0
10, 10020, Note_on_c, 10, 72, 112
10, 10070, Note_on_c, 10, 72, 0
10, 10080, Control_c, 10, 11, 107
10, 10080, Note_on_c, 10, 84, 112
10, 10089, Control_c, 10, 11, 104
10, 10098, Control_c, 10, 11, 101
10, 10107, Control_c, 10, 11, 98
10, 10116, Control_c, 10, 11, 95
10, 10125, Control_c, 10, 11, 92
10, 10134, Control_c, 10, 11, 89
10, 10260, Note_on_c, 10, 84, 0
10, 10260, Note_on_c, 10, 82, 112
10, 10320, Note_on_c, 10, 82, 0
10, 10320, Note_on_c, 10, 79, 112
10, 10380, Note_on_c, 10, 79, 0
10, 10380, Note_on_c, 10, 76, 112
10, 10430, Note_on_c, 10, 76, 0
10, 10440, Control_c, 10, 11, 107
10, 10440, Note_on_c, 10, 86, 112
10, 10449, Control_c, 10, 11, 104
10, 10458, Control_c, 10, 11, 101
10, 10467, Control_c, 10, 11, 98
10, 10476, Control_c, 10, 11, 95
10, 10485, Control_c, 10, 11, 92
10, 10494, Control_c, 10, 11, 89
10, 10620, Note_on_c, 10, 86, 0
10, 10620, Note_on_c, 10, 84, 112
10, 10680, Note_on_c, 10, 84, 0
10, 10680, Control_c, 10, 11, 87
10, 10680, Note_on_c, 10, 81, 112
10, 10698, Control_c, 10, 11, 84
10, 10716, Control_c, 10, 11, 81
10, 10734, Control_c, 10, 11, 78
10, 10740, Note_on_c, 10, 81, 0
10, 10740, Note_on_c, 10, 77, 112
10, 10752, Control_c, 10, 11, 75
10, 10770, Control_c, 10, 11, 72
10, 10788, Control_c, 10, 11, 69
10, 10790, Note_on_c, 10, 77, 0
10, 10800, Note_on_c, 10, 75, 76
10, 10860, Note_on_c, 10, 75, 0
10, 10919, Program_c, 10, 45
10, 10920, Control_c, 10, 11, 100
10, 10920, Note_on_c, 10, 63, 49
10, 10980, Note_on_c, 10, 63, 0
10, 11159, Program_c, 10, 48
10, 11160, Note_on_c, 10, 77, 112
10, 11160, Control_c, 10, 11, 47
10, 11220, Note_on_c, 10, 77, 0
10, 11220, Note_on_c, 10, 75, 112
10, 11224, Control_c, 10, 11, 46
10, 11280, Note_on_c, 10, 75, 0
10, 11280, Note_on_c, 10, 72, 112
10, 11288, Control_c, 10, 11, 45
10, 11340, Note_on_c, 10, 72, 0
10, 11340, Note_on_c, 10, 69, 112
10, 11352, Control_c, 10, 11, 44
10, 11400, Note_on_c, 10, 69, 0
10, 11416, Control_c, 10, 11, 43
10, 11480, Control_c, 10, 11, 42
10, 11544, Control_c, 10, 11, 41
10, 11608, Control_c, 10, 11, 40
10, 11640, Note_on_c, 10, 77, 112
10, 11672, Control_c, 10, 11, 39
10, 11700, Note_on_c, 10, 77, 0
10, 11700, Note_on_c, 10, 75, 112
10, 11736, Control_c, 10, 11, 38
10, 11760, Note_on_c, 10, 75, 0
10, 11760, Note_on_c, 10, 72, 112
10, 11800, Control_c, 10, 11, 37
10, 11820, Note_on_c, 10, 72, 0
10, 11820, Note_on_c, 10, 69, 112
10, 11864, Control_c, 10, 11, 36
10, 11880, Note_on_c, 10, 69, 0
10, 11928, Control_c, 10, 11, 35
10, 11992, Control_c, 10, 11, 34
10, 12056, Control_c, 10, 11, 33
10, 12120, Control_c, 10, 11, 32
10, 12120, Note_on_c, 10, 74, 92
10, 12120, Note_on_c, 10, 65, 92
10, 12180, Note_on_c, 10, 65, 0
10, 12180, Note_on_c, 10, 74, 0
10, 12360, Note_on_c, 10, 65, 92
10, 12360, Note_on_c, 10, 74, 92
10, 12420, Note_on_c, 10, 74, 0
10, 12420, Note_on_c, 10, 65, 0
10, 12600, Note_on_c, 10, 74, 92
10, 12600, Note_on_c, 10, 65, 92
10, 12660, Note_on_c, 10, 65, 0
10, 12660, Note_on_c, 10, 74, 0
10, 13560, Control_c, 10, 11, 27
10, 13560, Note_on_c, 10, 77, 92
10, 13584, Control_c, 10, 11, 29
10, 13608, Control_c, 10, 11, 31
10, 13620, Note_on_c, 10, 77, 0
10, 13620, Note_on_c, 10, 78, 94
10, 13632, Control_c, 10, 11, 33
10, 13656, Control_c, 10, 11, 35
10, 13680, Note_on_c, 10, 78, 0
10, 13680, Control_c, 10, 11, 37
10, 13680, Note_on_c, 10, 81, 97
10, 13740, Note_on_c, 10, 81, 0
10, 13740, Note_on_c, 10, 79, 99
10, 13800, Note_on_c, 10, 79, 0
10, 13800, Note_on_c, 10, 82, 102
10, 13860, Note_on_c, 10, 82, 0
10, 13860, Note_on_c, 10, 79, 104
10, 13920, Note_on_c, 10, 79, 0
10, 13920, Note_on_c, 10, 74, 107
10, 13980, Note_on_c, 10, 74, 0
10, 13980, Note_on_c, 10, 76, 109
10, 14040, Note_on_c, 10, 76, 0
10, 14040, Note_on_c, 10, 77, 112
10, 14100, Note_on_c, 10, 77, 0
10, 14100, Note_on_c, 10, 81, 112
10, 14160, Note_on_c, 10, 81, 0
10, 14160, Note_on_c, 10, 84, 112
10, 14200, Note_on_c, 10, 84, 0
10, 14220, Note_on_c, 10, 84, 112
10, 14250, Note_on_c, 10, 84, 0
10, 14280, Control_c, 10, 11, 37
10, 14280, Note_on_c, 10, 84, 112
10, 14302, Control_c, 10, 11, 38
10, 14310, Note_on_c, 10, 84, 0
10, 14325, Control_c, 10, 11, 39
10, 14340, Note_on_c, 10, 84, 112
10, 14348, Control_c, 10, 11, 40
10, 14370, Note_on_c, 10, 84, 0
10, 14371, Control_c, 10, 11, 41
10, 14393, Control_c, 10, 11, 42
10, 14400, Note_on_c, 10, 84, 112
10, 14416, Control_c, 10, 11, 43
10, 14439, Control_c, 10, 11, 44
10, 14460, Note_on_c, 10, 84, 0
10, 14460, Note_on_c, 10, 83, 112
10, 14462, Control_c, 10, 11, 45
10, 14485, Control_c, 10, 11, 46
10, 14507, Control_c, 10, 11, 47
10, 14520, Note_on_c, 10, 83, 0
10, 14520, Note_on_c, 10, 84, 112
10, 14530, Control_c, 10, 11, 48
10, 14553, Control_c, 10, 11, 49
10, 14576, Control_c, 10, 11, 50
10, 14580, Note_on_c, 10, 84, 0
10, 14580, Note_on_c, 10, 82, 112
10, 14598, Control_c, 10, 11, 51
10, 14621, Control_c, 10, 11, 52
10, 14640, Note_on_c, 10, 82, 0
10, 14640, Note_on_c, 10, 79, 112
10, 14644, Control_c, 10, 11, 53
10, 14667, Control_c, 10, 11, 54
10, 14690, Control_c, 10, 11, 55
10, 14700, Note_on_c, 10, 79, 0
10, 14700, Note_on_c, 10, 76, 112
10, 14712, Control_c, 10, 11, 56
10, 14735, Control_c, 10, 11, 57
10, 14758, Control_c, 10, 11, 58
10, 14760, Note_on_c, 10, 76, 0
10, 14760, Note_on_c, 10, 79, 112
10, 14781, Control_c, 10, 11, 59
10, 14803, Control_c, 10, 11, 60
10, 14820, Note_on_c, 10, 79, 0
10, 14820, Note_on_c, 10, 77, 112
10, 14826, Control_c, 10, 11, 61
10, 14849, Control_c, 10, 11, 62
10, 14872, Control_c, 10, 11, 63
10, 14880, Note_on_c, 10, 77, 0
10, 14880, Note_on_c, 10, 81, 112
10, 14895, Control_c, 10, 11, 64
10, 14917, Control_c, 10, 11, 65
10, 14940, Note_on_c, 10, 81, 0
10, 14940, Control_c, 10, 11, 66
10, 14940, Note_on_c, 10, 77, 112
10, 14963, Control_c, 10, 11, 67
10, 14986, Control_c, 10, 11, 68
10, 15000, Note_on_c, 10, 77, 0
10, 15000, Note_on_c, 10, 72, 112
10, 15008, Control_c, 10, 11, 69
10, 15031, Control_c, 10, 11, 70
10, 15054, Control_c, 10, 11, 71
10, 15060, Note_on_c, 10, 72, 0
10, 15060, Note_on_c, 10, 73, 112
10, 15077, Control_c, 10, 11, 72
10, 15100, Control_c, 10, 11, 73
10, 15120, Note_on_c, 10, 73, 0
10, 15120, Note_on_c, 10, 76, 112
10, 15122, Control_c, 10, 11, 74
10, 15145, Control_c, 10, 11, 75
10, 15168, Control_c, 10, 11, 76
10, 15180, Note_on_c, 10, 76, 0
10, 15180, Note_on_c, 10, 74, 112
10, 15191, Control_c, 10, 11, 77
10, 15213, Control_c, 10, 11, 78
10, 15236, Control_c, 10, 11, 79
10, 15240, Note_on_c, 10, 74, 0
10, 15240, Note_on_c, 10, 67, 112
10, 15259, Control_c, 10, 11, 80
10, 15282, Control_c, 10, 11, 81
10, 15300, Note_on_c, 10, 67, 0
10, 15300, Note_on_c, 10, 69, 112
10, 15305, Control_c, 10, 11, 82
10, 15327, Control_c, 10, 11, 83
10, 15350, Control_c, 10, 11, 84
10, 15360, Note_on_c, 10, 69, 0
10, 15360, Note_on_c, 10, 70, 112
10, 15373, Control_c, 10, 11, 85
10, 15396, Control_c, 10, 11, 86
10, 15410, Note_on_c, 10, 70, 0
10, 15419, Control_c, 10, 11, 87
10, 15420, Note_on_c, 10, 71, 112
10, 15458, Note_on_c, 10, 71, 0
10, 15480, Control_c, 10, 11, 97
10, 15480, Note_on_c, 10, 71, 112
10, 15504, Control_c, 10, 11, 95
10, 15528, Control_c, 10, 11, 93
10, 15600, Note_on_c, 10, 71, 0
10, 15600, Note_on_c, 10, 72, 112
10, 15660, Note_on_c, 10, 72, 0
10, 15660, Note_on_c, 10, 74, 112
10, 15720, Note_on_c, 10, 74, 0
10, 15720, Note_on_c, 10, 75, 112
10, 15770, Note_on_c, 10, 75, 0
10, 15780, Note_on_c, 10, 76, 112
10, 15818, Note_on_c, 10, 76, 0
10, 15840, Note_on_c, 10, 76, 112
10, 15960, Note_on_c, 10, 76, 0
10, 15960, Note_on_c, 10, 77, 112
10, 16020, Note_on_c, 10, 77, 0
10, 16020, Note_on_c, 10, 79, 112
10, 16080, Note_on_c, 10, 79, 0
10, 16080, Note_on_c, 10, 80, 112
10, 16130, Note_on_c, 10, 80, 0
10, 16140, Note_on_c, 10, 81, 112
10, 16140, Control_c, 10, 11, 102
10, 16178, Note_on_c, 10, 81, 0
10, 16200, Note_on_c, 10, 81, 112
10, 16320, Note_on_c, 10, 81, 0
10, 16320, Note_on_c, 10, 82, 112
10, 16380, Note_on_c, 10, 82, 0
10, 16860, Note_on_c, 10, 76, 112
10, 16905, Note_on_c, 10, 76, 0
10, 16920, Note_on_c, 10, 76, 112
10, 17040, Note_on_c, 10, 76, 0
10, 17040, Note_on_c, 10, 77, 112
10, 17100, Note_on_c, 10, 77, 0
10, 17580, Note_on_c, 10, 81, 112
10, 17625, Note_on_c, 10, 81, 0
10, 17640, Note_on_c, 10, 79, 112
10, 17760, Note_on_c, 10, 79, 0
10, 17760, Note_on_c, 10, 81, 112
10, 17820, Note_on_c, 10, 81, 0
10, 18300, Note_on_c, 10, 81, 112
10, 18345, Note_on_c, 10, 81, 0
10, 18360, Note_on_c, 10, 79, 112
10, 18480, Note_on_c, 10, 79, 0
10, 18480, Note_on_c, 10, 81, 112
10, 18540, Note_on_c, 10, 81, 0
10, 18840, Note_on_c, 10, 76, 112
10, 18960, Note_on_c, 10, 76, 0
10, 18960, Note_on_c, 10, 77, 112
10, 19020, Note_on_c, 10, 77, 0
10, 19320, Control_c, 10, 11, 122
10, 19320, Note_on_c, 10, 64, 112
10, 19338, Control_c, 10, 11, 119
10, 19356, Control_c, 10, 11, 116
10, 19374, Control_c, 10, 11, 113
10, 19392, Control_c, 10, 11, 110
10, 19410, Control_c, 10, 11, 107
10, 19428, Control_c, 10, 11, 104
10, 19920, Note_on_c, 10, 64, 0
10, 19920, Note_on_c, 10, 65, 112
10, 19980, Note_on_c, 10, 65, 0
10, 20040, Control_c, 10, 11, 87
10, 20040, Note_on_c, 10, 76, 127
10, 20070, Note_on_c, 10, 76, 0
10, 20160, Control_c, 10, 11, 107
10, 20160, Note_on_c, 10, 79, 112
10, 20169, Control_c, 10, 11, 104
10, 20178, Control_c, 10, 11, 101
10, 20187, Control_c, 10, 11, 98
10, 20196, Control_c, 10, 11, 95
10, 20205, Control_c, 10, 11, 92
10, 20214, Control_c, 10, 11, 89
10, 20340, Note_on_c, 10, 79, 0
10, 20340, Note_on_c, 10, 77, 112
10, 20400, Note_on_c, 10, 77, 0
10, 20400, Note_on_c, 10, 74, 112
10, 20460, Note_on_c, 10, 74, 0
10, 20460, Note_on_c, 10, 71, 112
10, 20510, Note_on_c, 10, 71, 0
10, 20520, Note_on_c, 10, 67, 112
10, 20580, Note_on_c, 10, 67, 0
10, 20640, Note_on_c, 10, 55, 112
10, 20640, Control_c, 10, 11, 107
10, 20645, Note_on_c, 10, 64, 112
10, 20649, Control_c, 10, 11, 104
10, 20650, Note_on_c, 10, 72, 112
10, 20658, Control_c, 10, 11, 101
10, 20667, Control_c, 10, 11, 98
10, 20676, Control_c, 10, 11, 95
10, 20685, Control_c, 10, 11, 92
10, 20694, Control_c, 10, 11, 89
10, 20760, Note_on_c, 10, 55, 0
10, 20765, Note_on_c, 10, 64, 0
10, 20870, Note_on_c, 10, 72, 0
10, 20880, Note_on_c, 10, 67, 112
10, 20940, Note_on_c, 10, 67, 0
10, 21000, Note_on_c, 10, 55, 112
10, 21000, Control_c, 10, 11, 107
10, 21005, Note_on_c, 10, 67, 112
10, 21009, Control_c, 10, 11, 104
10, 21010, Note_on_c, 10, 74, 112
10, 21018, Control_c, 10, 11, 101
10, 21027, Control_c, 10, 11, 98
10, 21036, Control_c, 10, 11, 95
10, 21045, Control_c, 10, 11, 92
10, 21054, Control_c, 10, 11, 89
10, 21120, Note_on_c, 10, 55, 0
10, 21125, Note_on_c, 10, 67, 0
10, 21230, Note_on_c, 10, 74, 0
10, 21240, Note_on_c, 10, 67, 112
10, 21300, Note_on_c, 10, 67, 0
10, 21360, Note_on_c, 10, 55, 112
10, 21360, Control_c, 10, 11, 107
10, 21365, Note_on_c, 10, 64, 112
10, 21369, Control_c, 10, 11, 104
10, 21370, Note_on_c, 10, 76, 112
10, 21378, Control_c, 10, 11, 101
10, 21387, Control_c, 10, 11, 98
10, 21396, Control_c, 10, 11, 95
10, 21405, Control_c, 10, 11, 92
10, 21414, Control_c, 10, 11, 89
10, 21470, Note_on_c, 10, 76, 0
10, 21470, Note_on_c, 10, 55, 0
10, 21475, Note_on_c, 10, 64, 0
10, 21480, Note_on_c, 10, 76, 112
10, 21510, Note_on_c, 10, 76, 0
10, 21600, Note_on_c, 10, 79, 112
10, 21600, Control_c, 10, 11, 107
10, 21609, Control_c, 10, 11, 104
10, 21618, Control_c, 10, 11, 101
10, 21627, Control_c, 10, 11, 98
10, 21636, Control_c, 10, 11, 95
10, 21645, Control_c, 10, 11, 92
10, 21654, Control_c, 10, 11, 89
10, 21780, Note_on_c, 10, 79, 0
10, 21780, Note_on_c, 10, 77, 112
10, 21840, Note_on_c, 10, 77, 0
10, 21840, Note_on_c, 10, 74, 112
10, 21900, Note_on_c, 10, 74, 0
10, 21900, Note_on_c, 10, 71, 112
10, 21950, Note_on_c, 10, 71, 0
10, 21960, Control_c, 10, 11, 107
10, 21960, Note_on_c, 10, 81, 112
10, 21969, Control_c, 10, 11, 104
10, 21978, Control_c, 10, 11, 101
10, 21987, Control_c, 10, 11, 98
10, 21996, Control_c, 10, 11, 95
10, 22005, Control_c, 10, 11, 92
10, 22014, Control_c, 10, 11, 89
10, 22140, Note_on_c, 10, 81, 0
10, 22140, Note_on_c, 10, 79, 112
10, 22200, Note_on_c, 10, 79, 0
10, 22200, Note_on_c, 10, 76, 112
10, 22260, Note_on_c, 10, 76, 0
10, 22260, Note_on_c, 10, 72, 112
10, 22310, Note_on_c, 10, 72, 0
10, 22320, Control_c, 10, 11, 107
10, 22320, Note_on_c, 10, 84, 112
10, 22329, Control_c, 10, 11, 104
10, 22338, Control_c, 10, 11, 101
10, 22347, Control_c, 10, 11, 98
10, 22356, Control_c, 10, 11, 95
10, 22365, Control_c, 10, 11, 92
10, 22374, Control_c, 10, 11, 89
10, 22500, Note_on_c, 10, 84, 0
10, 22500, Note_on_c, 10, 82, 112
10, 22560, Note_on_c, 10, 82, 0
10, 22560, Note_on_c, 10, 79, 112
10, 22620, Note_on_c, 10, 79, 0
10, 22620, Note_on_c, 10, 76, 112
10, 22670, Note_on_c, 10, 76, 0
10, 22680, Control_c, 10, 11, 107
10, 22680, Note_on_c, 10, 86, 112
10, 22689, Control_c, 10, 11, 104
10, 22698, Control_c, 10, 11, 101
10, 22707, Control_c, 10, 11, 98
10, 22716, Control_c, 10, 11, 95
10, 22725, Control_c, 10, 11, 92
10, 22734, Control_c, 10, 11, 89
10, 22860, Note_on_c, 10, 86, 0
10, 22860, Note_on_c, 10, 84, 112
10, 22920, Note_on_c, 10, 84, 0
10, 22920, Control_c, 10, 11, 87
10, 22920, Note_on_c, 10, 81, 112
10, 22938, Control_c, 10, 11, 84
10, 22956, Control_c, 10, 11, 81
10, 22974, Control_c, 10, 11, 78
10, 22980, Note_on_c, 10, 81, 0
10, 22980, Note_on_c, 10, 77, 112
10, 22992, Control_c, 10, 11, 75
10, 23010, Control_c, 10, 11, 72
10, 23028, Control_c, 10, 11, 69
10, 23030, Note_on_c, 10, 77, 0
10, 23040, Note_on_c, 10, 75, 76
10, 23100, Note_on_c, 10, 75, 0
10, 23159, Program_c, 10, 45
10, 23160, Control_c, 10, 11, 100
10, 23160, Note_on_c, 10, 63, 49
10, 23220, Note_on_c, 10, 63, 0
10, 23399, Program_c, 10, 48
10, 23400, Note_on_c, 10, 77, 112
10, 23400, Control_c, 10, 11, 47
10, 23460, Note_on_c, 10, 77, 0
10, 23460, Note_on_c, 10, 75, 112
10, 23464, Control_c, 10, 11, 46
10, 23520, Note_on_c, 10, 75, 0
10, 23520, Note_on_c, 10, 72, 112
10, 23528, Control_c, 10, 11, 45
10, 23580, Note_on_c, 10, 72, 0
10, 23580, Note_on_c, 10, 69, 112
10, 23592, Control_c, 10, 11, 44
10, 23640, Note_on_c, 10, 69, 0
10, 23656, Control_c, 10, 11, 43
10, 23720, Control_c, 10, 11, 42
10, 23784, Control_c, 10, 11, 41
10, 23848, Control_c, 10, 11, 40
10, 23880, Note_on_c, 10, 77, 112
10, 23912, Control_c, 10, 11, 39
10, 23940, Note_on_c, 10, 77, 0
10, 23940, Note_on_c, 10, 75, 112
10, 23976, Control_c, 10, 11, 38
10, 24000, Note_on_c, 10, 75, 0
10, 24000, Note_on_c, 10, 72, 112
10, 24040, Control_c, 10, 11, 37
10, 24060, Note_on_c, 10, 72, 0
10, 24060, Note_on_c, 10, 69, 112
10, 24104, Control_c, 10, 11, 36
10, 24120, Note_on_c, 10, 69, 0
10, 24168, Control_c, 10, 11, 35
10, 24232, Control_c, 10, 11, 34
10, 24296, Control_c, 10, 11, 33
10, 24360, Control_c, 10, 11, 32
10, 24360, Note_on_c, 10, 74, 92
10, 24360, Note_on_c, 10, 65, 92
10, 24420, Note_on_c, 10, 65, 0
10, 24420, Note_on_c, 10, 74, 0
10, 24600, Note_on_c, 10, 65, 92
10, 24600, Note_on_c, 10, 74, 92
10, 24660, Note_on_c, 10, 74, 0
10, 24660, Note_on_c, 10, 65, 0
10, 24840, Note_on_c, 10, 65, 92
10, 24840, Note_on_c, 10, 74, 92
10, 24900, Note_on_c, 10, 74, 0
10, 24900, Note_on_c, 10, 65, 0
10, 25800, Control_c, 10, 11, 27
10, 25800, Note_on_c, 10, 77, 92
10, 25824, Control_c, 10, 11, 29
10, 25848, Control_c, 10, 11, 31
10, 25860, Note_on_c, 10, 77, 0
10, 25860, Note_on_c, 10, 78, 94
10, 25872, Control_c, 10, 11, 33
10, 25896, Control_c, 10, 11, 35
10, 25920, Note_on_c, 10, 78, 0
10, 25920, Control_c, 10, 11, 37
10, 25920, Note_on_c, 10, 81, 97
10, 25980, Note_on_c, 10, 81, 0
10, 25980, Note_on_c, 10, 79, 99
10, 26040, Note_on_c, 10, 79, 0
10, 26040, Note_on_c, 10, 82, 102
10, 26100, Note_on_c, 10, 82, 0
10, 26100, Note_on_c, 10, 79, 104
10, 26160, Note_on_c, 10, 79, 0
10, 26160, Note_on_c, 10, 74, 107
10, 26220, Note_on_c, 10, 74, 0
10, 26220, Note_on_c, 10, 76, 109
10, 26280, Note_on_c, 10, 76, 0
10, 26280, Note_on_c, 10, 77, 112
10, 26340, Note_on_c, 10, 77, 0
10, 26340, Note_on_c, 10, 81, 112
10, 26400, Note_on_c, 10, 81, 0
10, 26400, Note_on_c, 10, 84, 112
10, 26440, Note_on_c, 10, 84, 0
10, 26460, Note_on_c, 10, 84, 112
10, 26490, Note_on_c, 10, 84, 0
10, 26520, Control_c, 10, 11, 37
10, 26520, Note_on_c, 10, 84, 112
10, 26542, Control_c, 10, 11, 38
10, 26550, Note_on_c, 10, 84, 0
10, 26565, Control_c, 10, 11, 39
10, 26580, Note_on_c, 10, 84, 112
10, 26588, Control_c, 10, 11, 40
10, 26610, Note_on_c, 10, 84, 0
10, 26611, Control_c, 10, 11, 41
10, 26633, Control_c, 10, 11, 42
10, 26640, Note_on_c, 10, 84, 112
10, 26656, Control_c, 10, 11, 43
10, 26679, Control_c, 10, 11, 44
10, 26700, Note_on_c, 10, 84, 0
10, 26700, Note_on_c, 10, 83, 112
10, 26702, Control_c, 10, 11, 45
10, 26725, Control_c, 10, 11, 46
10, 26747, Control_c, 10, 11, 47
10, 26760, Note_on_c, 10, 83, 0
10, 26760, Note_on_c, 10, 84, 112
10, 26770, Control_c, 10, 11, 48
10, 26793, Control_c, 10, 11, 49
10, 26816, Control_c, 10, 11, 50
10, 26820, Note_on_c, 10, 84, 0
10, 26820, Note_on_c, 10, 82, 112
10, 26838, Control_c, 10, 11, 51
10, 26861, Control_c, 10, 11, 52
10, 26880, Note_on_c, 10, 82, 0
10, 26880, Note_on_c, 10, 79, 112
10, 26884, Control_c, 10, 11, 53
10, 26907, Control_c, 10, 11, 54
10, 26930, Control_c, 10, 11, 55
10, 26940, Note_on_c, 10, 79, 0
10, 26940, Note_on_c, 10, 76, 112
10, 26952, Control_c, 10, 11, 56
10, 26975, Control_c, 10, 11, 57
10, 26998, Control_c, 10, 11, 58
10, 27000, Note_on_c, 10, 76, 0
10, 27000, Note_on_c, 10, 79, 112
10, 27021, Control_c, 10, 11, 59
10, 27043, Control_c, 10, 11, 60
10, 27060, Note_on_c, 10, 79, 0
10, 27060, Note_on_c, 10, 77, 112
10, 27066, Control_c, 10, 11, 61
10, 27089, Control_c, 10, 11, 62
10, 27112, Control_c, 10, 11, 63
10, 27120, Note_on_c, 10, 77, 0
10, 27120, Note_on_c, 10, 81, 112
10, 27135, Control_c, 10, 11, 64
10, 27157, Control_c, 10, 11, 65
10, 27180, Note_on_c, 10, 81, 0
10, 27180, Control_c, 10, 11, 66
10, 27180, Note_on_c, 10, 77, 112
10, 27203, Control_c, 10, 11, 67
10, 27226, Control_c, 10, 11, 68
10, 27240, Note_on_c, 10, 77, 0
10, 27240, Note_on_c, 10, 72, 112
10, 27248, Control_c, 10, 11, 69
10, 27271, Control_c, 10, 11, 70
10, 27294, Control_c, 10, 11, 71
10, 27300, Note_on_c, 10, 72, 0
10, 27300, Note_on_c, 10, 73, 112
10, 27317, Control_c, 10, 11, 72
10, 27340, Control_c, 10, 11, 73
10, 27360, Note_on_c, 10, 73, 0
10, 27360, Note_on_c, 10, 76, 112
10, 27362, Control_c, 10, 11, 74
10, 27385, Control_c, 10, 11, 75
10, 27408, Control_c, 10, 11, 76
10, 27420, Note_on_c, 10, 76, 0
10, 27420, Note_on_c, 10, 74, 112
10, 27431, Control_c, 10, 11, 77
10, 27453, Control_c, 10, 11, 78
10, 27476, Control_c, 10, 11, 79
10, 27480, Note_on_c, 10, 74, 0
10, 27480, Note_on_c, 10, 67, 112
10, 27499, Control_c, 10, 11, 80
10, 27522, Control_c, 10, 11, 81
10, 27540, Note_on_c, 10, 67, 0
10, 27540, Note_on_c, 10, 69, 112
10, 27545, Control_c, 10, 11, 82
10, 27567, Control_c, 10, 11, 83
10, 27590, Control_c, 10, 11, 84
10, 27600, Note_on_c, 10, 69, 0
10, 27600, Note_on_c, 10, 70, 112
10, 27613, Control_c, 10, 11, 85
10, 27636, Control_c, 10, 11, 86
10, 27650, Note_on_c, 10, 70, 0
10, 27659, Control_c, 10, 11, 87
10, 27660, Note_on_c, 10, 71, 112
10, 27698, Note_on_c, 10, 71, 0
10, 27720, Control_c, 10, 11, 97
10, 27720, Note_on_c, 10, 71, 112
10, 27744, Control_c, 10, 11, 95
10, 27768, Control_c, 10, 11, 93
10, 27840, Note_on_c, 10, 71, 0
10, 27840, Note_on_c, 10, 72, 112
10, 27900, Note_on_c, 10, 72, 0
10, 27900, Note_on_c, 10, 74, 112
10, 27960, Note_on_c, 10, 74, 0
10, 27960, Note_on_c, 10, 75, 112
10, 28010, Note_on_c, 10, 75, 0
10, 28020, Note_on_c, 10, 76, 112
10, 28052, Note_on_c, 10, 76, 0
10, 28080, Note_on_c, 10, 76, 112
10, 28200, Note_on_c, 10, 76, 0
10, 28200, Note_on_c, 10, 77, 112
10, 28260, Note_on_c, 10, 77, 0
10, 28260, Note_on_c, 10, 79, 112
10, 28320, Note_on_c, 10, 79, 0
10, 28320, Note_on_c, 10, 80, 112
10, 28370, Note_on_c, 10, 80, 0
10, 28380, Note_on_c, 10, 81, 112
10, 28380, Control_c, 10, 11, 102
10, 28418, Note_on_c, 10, 81, 0
10, 28440, Note_on_c, 10, 81, 112
10, 28560, Note_on_c, 10, 81, 0
10, 28560, Note_on_c, 10, 82, 112
10, 28620, Note_on_c, 10, 82, 0
10, 29100, Note_on_c, 10, 76, 112
10, 29145, Note_on_c, 10, 76, 0
10, 29160, Note_on_c, 10, 76, 112
10, 29280, Note_on_c, 10, 76, 0
10, 29280, Note_on_c, 10, 77, 112
10, 29340, Note_on_c, 10, 77, 0
10, 29820, Note_on_c, 10, 81, 112
10, 29865, Note_on_c, 10, 81, 0
10, 29880, Note_on_c, 10, 79, 112
10, 30000, Note_on_c, 10, 79, 0
10, 30000, Note_on_c, 10, 81, 112
10, 30060, Note_on_c, 10, 81, 0
10, 30540, Note_on_c, 10, 81, 112
10, 30585, Note_on_c, 10, 81, 0
10, 30600, Note_on_c, 10, 79, 112
10, 30720, Note_on_c, 10, 79, 0
10, 30720, Note_on_c, 10, 81, 112
10, 30780, Note_on_c, 10, 81, 0
10, 31080, Note_on_c, 10, 76, 112
10, 31200, Note_on_c, 10, 76, 0
10, 31200, Note_on_c, 10, 77, 112
10, 31260, Note_on_c, 10, 77, 0
10, 31560, Control_c, 10, 11, 122
10, 31560, Note_on_c, 10, 64, 112
10, 31578, Control_c, 10, 11, 119
10, 31596, Control_c, 10, 11, 116
10, 31614, Control_c, 10, 11, 113
10, 31632, Control_c, 10, 11, 110
10, 31650, Control_c, 10, 11, 107
10, 31668, Control_c, 10, 11, 104
10, 32160, Note_on_c, 10, 64, 0
10, 32160, Note_on_c, 10, 65, 112
10, 32220, Note_on_c, 10, 65, 0
10, 32280, Control_c, 10, 11, 87
10, 37980, Note_on_c, 10, 67, 112
10, 37980, Control_c, 10, 11, 37
10, 37998, Control_c, 10, 11, 40
10, 38016, Control_c, 10, 11, 43
10, 38022, Note_on_c, 10, 67, 0
10, 38034, Control_c, 10, 11, 46
10, 38040, Note_on_c, 10, 69, 112
10, 38082, Note_on_c, 10, 69, 0
10, 38100, Note_on_c, 10, 71, 112
10, 38142, Note_on_c, 10, 71, 0
10, 38160, Note_on_c, 10, 72, 112
10, 38340, Note_on_c, 10, 72, 0
10, 38340, Note_on_c, 10, 74, 112
10, 38400, Note_on_c, 10, 74, 0
10, 38400, Note_on_c, 10, 76, 112
10, 38515, Note_on_c, 10, 76, 0
10, 38520, Note_on_c, 10, 76, 112
10, 38700, Note_on_c, 10, 76, 0
10, 38700, Note_on_c, 10, 74, 112
10, 38760, Note_on_c, 10, 74, 0
10, 38760, Note_on_c, 10, 72, 112
10, 38875, Note_on_c, 10, 72, 0
10, 38880, Note_on_c, 10, 72, 112
10, 39060, Note_on_c, 10, 72, 0
10, 39060, Note_on_c, 10, 74, 112
10, 39120, Note_on_c, 10, 74, 0
10, 39120, Note_on_c, 10, 75, 112
10, 39235, Note_on_c, 10, 75, 0
10, 39240, Note_on_c, 10, 75, 112
10, 39420, Note_on_c, 10, 75, 0
10, 39420, Note_on_c, 10, 74, 112
10, 39480, Note_on_c, 10, 74, 0
10, 39480, Note_on_c, 10, 72, 112
10, 39595, Note_on_c, 10, 72, 0
10, 39600, Control_c, 10, 11, 47
10, 39600, Note_on_c, 10, 72, 112
10, 39627, Control_c, 10, 11, 48
10, 39654, Control_c, 10, 11, 49
10, 39681, Control_c, 10, 11, 50
10, 39708, Control_c, 10, 11, 51
10, 39735, Control_c, 10, 11, 52
10, 39762, Control_c, 10, 11, 53
10, 39780, Note_on_c, 10, 72, 0
10, 39780, Note_on_c, 10, 73, 112
10, 39789, Control_c, 10, 11, 54
10, 39816, Control_c, 10, 11, 55
10, 39840, Note_on_c, 10, 73, 0
10, 39840, Note_on_c, 10, 75, 112
10, 39843, Control_c, 10, 11, 56
10, 39870, Control_c, 10, 11, 57
10, 39897, Control_c, 10, 11, 58
10, 39924, Control_c, 10, 11, 59
10, 39951, Control_c, 10, 11, 60
10, 39955, Note_on_c, 10, 75, 0
10, 39960, Note_on_c, 10, 75, 112
10, 39978, Control_c, 10, 11, 61
10, 40005, Control_c, 10, 11, 62
10, 40032, Control_c, 10, 11, 63
10, 40059, Control_c, 10, 11, 64
10, 40080, Note_on_c, 10, 75, 0
10, 40080, Note_on_c, 10, 77, 112
10, 40086, Control_c, 10, 11, 65
10, 40113, Control_c, 10, 11, 66
10, 40140, Control_c, 10, 11, 67
10, 40167, Control_c, 10, 11, 68
10, 40194, Control_c, 10, 11, 69
10, 40200, Note_on_c, 10, 77, 0
10, 40200, Note_on_c, 10, 73, 112
10, 40221, Control_c, 10, 11, 70
10, 40248, Control_c, 10, 11, 71
10, 40275, Control_c, 10, 11, 72
10, 40302, Control_c, 10, 11, 73
10, 40315, Note_on_c, 10, 73, 0
10, 40320, Note_on_c, 10, 72, 112
10, 40329, Control_c, 10, 11, 74
10, 40356, Control_c, 10, 11, 75
10, 40383, Control_c, 10, 11, 76
10, 40410, Control_c, 10, 11, 77
10, 40437, Control_c, 10, 11, 78
10, 40464, Control_c, 10, 11, 79
10, 40491, Control_c, 10, 11, 80
10, 40518, Control_c, 10, 11, 81
10, 40545, Control_c, 10, 11, 82
10, 40560, Note_on_c, 10, 72, 0
10, 40560, Note_on_c, 10, 70, 112
10, 40572, Control_c, 10, 11, 83
10, 40599, Control_c, 10, 11, 84
10, 40626, Control_c, 10, 11, 85
10, 40653, Control_c, 10, 11, 86
10, 40675, Note_on_c, 10, 70, 0
10, 40680, Note_on_c, 10, 72, 112
10, 40680, Control_c, 10, 11, 87
10, 40980, Control_c, 10, 11, 87
10, 40989, Control_c, 10, 11, 84
10, 40998, Control_c, 10, 11, 81
10, 41007, Control_c, 10, 11, 78
10, 41016, Control_c, 10, 11, 75
10, 41025, Control_c, 10, 11, 72
10, 41034, Control_c, 10, 11, 69
10, 41035, Note_on_c, 10, 72, 0
10, 41040, Note_on_c, 10, 69, 92
10, 41046, Control_c, 10, 11, 66
10, 41064, Control_c, 10, 11, 63
10, 41082, Control_c, 10, 11, 60
10, 41100, Control_c, 10, 11, 57
10, 41118, Control_c, 10, 11, 54
10, 41136, Control_c, 10, 11, 51
10, 41154, Control_c, 10, 11, 48
10, 41160, Note_on_c, 10, 69, 0
10, 47400, Control_c, 10, 11, 67
10, 47400, Note_on_c, 10, 65, 97
10, 47406, Control_c, 10, 11, 70
10, 47413, Control_c, 10, 11, 73
10, 47420, Control_c, 10, 11, 76
10, 47427, Control_c, 10, 11, 79
10, 47433, Control_c, 10, 11, 82
10, 47440, Control_c, 10, 11, 85
10, 47460, Note_on_c, 10, 65, 0
10, 47460, Note_on_c, 10, 60, 97
10, 47510, Note_on_c, 10, 60, 0
10, 47520, Control_c, 10, 11, 107
10, 47520, Note_on_c, 10, 65, 97
10, 47529, Control_c, 10, 11, 104
10, 47538, Control_c, 10, 11, 101
10, 47547, Control_c, 10, 11, 98
10, 47556, Control_c, 10, 11, 95
10, 47565, Control_c, 10, 11, 92
10, 47574, Control_c, 10, 11, 89
10, 47580, Note_on_c, 10, 65, 0
10, 47580, Note_on_c, 10, 60, 97
10, 47640, Note_on_c, 10, 60, 0
10, 47640, Control_c, 10, 11, 107
10, 47640, Note_on_c, 10, 65, 97
10, 47649, Control_c, 10, 11, 104
10, 47658, Control_c, 10, 11, 101
10, 47667, Control_c, 10, 11, 98
10, 47676, Control_c, 10, 11, 95
10, 47685, Control_c, 10, 11, 92
10, 47694, Control_c, 10, 11, 89
10, 47700, Note_on_c, 10, 65, 0
10, 47700, Note_on_c, 10, 60, 97
10, 47750, Note_on_c, 10, 60, 0
10, 47760, Note_on_c, 10, 69, 97
10, 47760, Control_c, 10, 11, 107
10, 47769, Control_c, 10, 11, 104
10, 47778, Control_c, 10, 11, 101
10, 47787, Control_c, 10, 11, 98
10, 47796, Control_c, 10, 11, 95
10, 47805, Control_c, 10, 11, 92
10, 47814, Control_c, 10, 11, 89
10, 47820, Note_on_c, 10, 69, 0
10, 47820, Note_on_c, 10, 65, 97
10, 47870, Note_on_c, 10, 65, 0
10, 47880, Note_on_c, 10, 69, 97
10, 47880, Control_c, 10, 11, 102
10, 47887, Control_c, 10, 11, 99
10, 47894, Control_c, 10, 11, 96
10, 47901, Control_c, 10, 11, 93
10, 47908, Control_c, 10, 11, 90
10, 47916, Control_c, 10, 11, 87
10, 47923, Control_c, 10, 11, 84
10, 47930, Control_c, 10, 11, 81
10, 47937, Control_c, 10, 11, 78
10, 47940, Note_on_c, 10, 69, 0
10, 47940, Note_on_c, 10, 65, 97
10, 48000, Note_on_c, 10, 65, 0
10, 48000, Control_c, 10, 11, 92
10, 48000, Note_on_c, 10, 69, 88
10, 48009, Control_c, 10, 11, 89
10, 48018, Control_c, 10, 11, 86
10, 48027, Control_c, 10, 11, 83
10, 48036, Control_c, 10, 11, 80
10, 48045, Control_c, 10, 11, 77
10, 48054, Control_c, 10, 11, 74
10, 48060, Note_on_c, 10, 69, 0
10, 48060, Note_on_c, 10, 65, 80
10, 48110, Note_on_c, 10, 65, 0
10, 48120, Note_on_c, 10, 81, 112
10, 48120, Control_c, 10, 11, 42
10, 48150, Note_on_c, 10, 81, 0
10, 48240, Note_on_c, 10, 84, 112
10, 48420, Note_on_c, 10, 84, 0
10, 48420, Note_on_c, 10, 82, 112
10, 48480, Note_on_c, 10, 82, 0
10, 48480, Note_on_c, 10, 79, 112
10, 48540, Note_on_c, 10, 79, 0
10, 48540, Note_on_c, 10, 76, 112
10, 48600, Note_on_c, 10, 76, 0
10, 48600, Note_on_c, 10, 79, 112
10, 48660, Note_on_c, 10, 79, 0
10, 48660, Note_on_c, 10, 77, 112
10, 48720, Note_on_c, 10, 77, 0
10, 48720, Note_on_c, 10, 81, 112
10, 48780, Note_on_c, 10, 81, 0
10, 48780, Note_on_c, 10, 77, 112
10, 48840, Note_on_c, 10, 77, 0
10, 48840, Control_c, 10, 11, 42
10, 48840, Note_on_c, 10, 72, 112
10, 48856, Control_c, 10, 11, 43
10, 48872, Control_c, 10, 11, 44
10, 48888, Control_c, 10, 11, 45
10, 48900, Note_on_c, 10, 72, 0
10, 48900, Note_on_c, 10, 73, 112
10, 48904, Control_c, 10, 11, 46
10, 48920, Control_c, 10, 11, 47
10, 48936, Control_c, 10, 11, 48
10, 48952, Control_c, 10, 11, 49
10, 48960, Note_on_c, 10, 73, 0
10, 48960, Note_on_c, 10, 76, 112
10, 48968, Control_c, 10, 11, 50
10, 48984, Control_c, 10, 11, 51
10, 49000, Control_c, 10, 11, 52
10, 49016, Control_c, 10, 11, 53
10, 49020, Note_on_c, 10, 76, 0
10, 49020, Note_on_c, 10, 74, 112
10, 49032, Control_c, 10, 11, 54
10, 49048, Control_c, 10, 11, 55
10, 49064, Control_c, 10, 11, 56
10, 49080, Note_on_c, 10, 74, 0
10, 49080, Control_c, 10, 11, 57
10, 49080, Note_on_c, 10, 67, 112
10, 49096, Control_c, 10, 11, 58
10, 49112, Control_c, 10, 11, 59
10, 49128, Control_c, 10, 11, 60
10, 49140, Note_on_c, 10, 67, 0
10, 49140, Note_on_c, 10, 69, 112
10, 49144, Control_c, 10, 11, 61
10, 49160, Control_c, 10, 11, 62
10, 49176, Control_c, 10, 11, 63
10, 49192, Control_c, 10, 11, 64
10, 49200, Note_on_c, 10, 69, 0
10, 49200, Note_on_c, 10, 70, 112
10, 49208, Control_c, 10, 11, 65
10, 49224, Control_c, 10, 11, 66
10, 49240, Control_c, 10, 11, 67
10, 49256, Control_c, 10, 11, 68
10, 49260, Note_on_c, 10, 70, 0
10, 49260, Note_on_c, 10, 71, 112
10, 49272, Control_c, 10, 11, 69
10, 49288, Control_c, 10, 11, 70
10, 49304, Control_c, 10, 11, 71
10, 49310, Note_on_c, 10, 71, 0
10, 49320, Control_c, 10, 11, 72
10, 49320, Note_on_c, 10, 71, 112
10, 49336, Control_c, 10, 11, 73
10, 49352, Control_c, 10, 11, 74
10, 49368, Control_c, 10, 11, 75
10, 49384, Control_c, 10, 11, 76
10, 49400, Control_c, 10, 11, 77
10, 49416, Control_c, 10, 11, 78
10, 49432, Control_c, 10, 11, 79
10, 49440, Note_on_c, 10, 71, 0
10, 49440, Note_on_c, 10, 72, 112
10, 49448, Control_c, 10, 11, 80
10, 49464, Control_c, 10, 11, 81
10, 49480, Control_c, 10, 11, 82
10, 49496, Control_c, 10, 11, 83
10, 49500, Note_on_c, 10, 72, 0
10, 49512, Control_c, 10, 11, 84
10, 49528, Control_c, 10, 11, 85
10, 49544, Control_c, 10, 11, 86
10, 49560, Control_c, 10, 11, 87
10, 49560, Note_on_c, 10, 81, 112
10, 49560, Note_on_c, 10, 69, 112
10, 49620, Note_on_c, 10, 69, 0
10, 49620, Note_on_c, 10, 81, 0
10, 49680, Control_c, 10, 11, 107
10, 49680, Note_on_c, 10, 84, 112
10, 49689, Control_c, 10, 11, 104
10, 49698, Control_c, 10, 11, 101
10, 49707, Control_c, 10, 11, 98
10, 49716, Control_c, 10, 11, 95
10, 49725, Control_c, 10, 11, 92
10, 49734, Control_c, 10, 11, 89
10, 49860, Note_on_c, 10, 84, 0
10, 49860, Note_on_c, 10, 82, 112
10, 49920, Note_on_c, 10, 82, 0
10, 49920, Note_on_c, 10, 79, 112
10, 49980, Note_on_c, 10, 79, 0
10, 49980, Note_on_c, 10, 76, 112
10, 50040, Note_on_c, 10, 76, 0
10, 50040, Note_on_c, 10, 79, 112
10, 50100, Note_on_c, 10, 79, 0
10, 50100, Note_on_c, 10, 77, 112
10, 50160, Note_on_c, 10, 77, 0
10, 50160, Note_on_c, 10, 81, 112
10, 50220, Note_on_c, 10, 81, 0
10, 50220, Note_on_c, 10, 77, 112
10, 50280, Note_on_c, 10, 77, 0
10, 50280, Note_on_c, 10, 72, 112
10, 50340, Note_on_c, 10, 72, 0
10, 50340, Note_on_c, 10, 73, 112
10, 50400, Note_on_c, 10, 73, 0
10, 50400, Note_on_c, 10, 76, 112
10, 50460, Note_on_c, 10, 76, 0
10, 50460, Note_on_c, 10, 74, 112
10, 50520, Note_on_c, 10, 74, 0
10, 50520, Note_on_c, 10, 67, 112
10, 50580, Note_on_c, 10, 67, 0
10, 50580, Note_on_c, 10, 69, 112
10, 50640, Note_on_c, 10, 69, 0
10, 50640, Note_on_c, 10, 70, 112
10, 50700, Note_on_c, 10, 70, 0
10, 50700, Note_on_c, 10, 64, 112
10, 50750, Note_on_c, 10, 64, 0
10, 50760, Note_on_c, 10, 64, 112
10, 50880, Note_on_c, 10, 64, 0
10, 50880, Note_on_c, 10, 65, 112
10, 50940, Note_on_c, 10, 65, 0
10, 51000, Note_on_c, 10, 76, 127
10, 51030, Note_on_c, 10, 76, 0
10, 51120, Control_c, 10, 11, 107
10, 51120, Note_on_c, 10, 79, 112
10, 51129, Control_c, 10, 11, 104
10, 51138, Control_c, 10, 11, 101
10, 51147, Control_c, 10, 11, 98
10, 51156, Control_c, 10, 11, 95
10, 51165, Control_c, 10, 11, 92
10, 51174, Control_c, 10, 11, 89
10, 51300, Note_on_c, 10, 79, 0
10, 51300, Note_on_c, 10, 77, 112
10, 51360, Note_on_c, 10, 77, 0
10, 51360, Note_on_c, 10, 74, 112
10, 51420, Note_on_c, 10, 74, 0
10, 51420, Note_on_c, 10, 71, 112
10, 51470, Note_on_c, 10, 71, 0
10, 51480, Note_on_c, 10, 67, 112
10, 51540, Note_on_c, 10, 67, 0
10, 51600, Control_c, 10, 11, 107
10, 51600, Note_on_c, 10, 55, 112
10, 51605, Note_on_c, 10, 64, 112
10, 51609, Control_c, 10, 11, 104
10, 51610, Note_on_c, 10, 72, 112
10, 51618, Control_c, 10, 11, 101
10, 51627, Control_c, 10, 11, 98
10, 51636, Control_c, 10, 11, 95
10, 51645, Control_c, 10, 11, 92
10, 51654, Control_c, 10, 11, 89
10, 51720, Note_on_c, 10, 55, 0
10, 51725, Note_on_c, 10, 64, 0
10, 51830, Note_on_c, 10, 72, 0
10, 51840, Note_on_c, 10, 67, 112
10, 51900, Note_on_c, 10, 67, 0
10, 51960, Control_c, 10, 11, 107
10, 51960, Note_on_c, 10, 55, 112
10, 51965, Note_on_c, 10, 67, 112
10, 51969, Control_c, 10, 11, 104
10, 51970, Note_on_c, 10, 74, 112
10, 51978, Control_c, 10, 11, 101
10, 51987, Control_c, 10, 11, 98
10, 51996, Control_c, 10, 11, 95
10, 52005, Control_c, 10, 11, 92
10, 52014, Control_c, 10, 11, 89
10, 52080, Note_on_c, 10, 55, 0
10, 52085, Note_on_c, 10, 67, 0
10, 52190, Note_on_c, 10, 74, 0
10, 52200, Note_on_c, 10, 67, 112
10, 52260, Note_on_c, 10, 67, 0
10, 52320, Control_c, 10, 11, 107
10, 52320, Note_on_c, 10, 55, 112
10, 52325, Note_on_c, 10, 64, 112
10, 52329, Control_c, 10, 11, 104
10, 52330, Note_on_c, 10, 76, 112
10, 52338, Control_c, 10, 11, 101
10, 52347, Control_c, 10, 11, 98
10, 52356, Control_c, 10, 11, 95
10, 52365, Control_c, 10, 11, 92
10, 52374, Control_c, 10, 11, 89
10, 52430, Note_on_c, 10, 76, 0
10, 52430, Note_on_c, 10, 55, 0
10, 52435, Note_on_c, 10, 64, 0
10, 52440, Note_on_c, 10, 76, 112
10, 52470, Note_on_c, 10, 76, 0
10, 52560, Control_c, 10, 11, 107
10, 52560, Note_on_c, 10, 79, 112
10, 52569, Control_c, 10, 11, 104
10, 52578, Control_c, 10, 11, 101
10, 52587, Control_c, 10, 11, 98
10, 52596, Control_c, 10, 11, 95
10, 52605, Control_c, 10, 11, 92
10, 52614, Control_c, 10, 11, 89
10, 52740, Note_on_c, 10, 79, 0
10, 52740, Note_on_c, 10, 77, 112
10, 52800, Note_on_c, 10, 77, 0
10, 52800, Note_on_c, 10, 74, 112
10, 52860, Note_on_c, 10, 74, 0
10, 52860, Note_on_c, 10, 71, 112
10, 52910, Note_on_c, 10, 71, 0
10, 52920, Control_c, 10, 11, 107
10, 52920, Note_on_c, 10, 81, 112
10, 52929, Control_c, 10, 11, 104
10, 52938, Control_c, 10, 11, 101
10, 52947, Control_c, 10, 11, 98
10, 52956, Control_c, 10, 11, 95
10, 52965, Control_c, 10, 11, 92
10, 52974, Control_c, 10, 11, 89
10, 53100, Note_on_c, 10, 81, 0
10, 53100, Note_on_c, 10, 79, 112
10, 53160, Note_on_c, 10, 79, 0
10, 53160, Note_on_c, 10, 76, 112
10, 53220, Note_on_c, 10, 76, 0
10, 53220, Note_on_c, 10, 72, 112
10, 53270, Note_on_c, 10, 72, 0
10, 53280, Control_c, 10, 11, 107
10, 53280, Note_on_c, 10, 84, 112
10, 53289, Control_c, 10, 11, 104
10, 53298, Control_c, 10, 11, 101
10, 53307, Control_c, 10, 11, 98
10, 53316, Control_c, 10, 11, 95
10, 53325, Control_c, 10, 11, 92
10, 53334, Control_c, 10, 11, 89
10, 53460, Note_on_c, 10, 84, 0
10, 53460, Note_on_c, 10, 82, 112
10, 53520, Note_on_c, 10, 82, 0
10, 53520, Note_on_c, 10, 79, 112
10, 53580, Note_on_c, 10, 79, 0
10, 53580, Note_on_c, 10, 76, 112
10, 53630, Note_on_c, 10, 76, 0
10, 53640, Control_c, 10, 11, 107
10, 53640, Note_on_c, 10, 86, 112
10, 53649, Control_c, 10, 11, 104
10, 53658, Control_c, 10, 11, 101
10, 53667, Control_c, 10, 11, 98
10, 53676, Control_c, 10, 11, 95
10, 53685, Control_c, 10, 11, 92
10, 53694, Control_c, 10, 11, 89
10, 53820, Note_on_c, 10, 86, 0
10, 53820, Note_on_c, 10, 84, 112
10, 53880, Note_on_c, 10, 84, 0
10, 53880, Control_c, 10, 11, 87
10, 53880, Note_on_c, 10, 81, 112
10, 53898, Control_c, 10, 11, 84
10, 53916, Control_c, 10, 11, 81
10, 53934, Control_c, 10, 11, 78
10, 53940, Note_on_c, 10, 81, 0
10, 53940, Note_on_c, 10, 77, 112
10, 53952, Control_c, 10, 11, 75
10, 53970, Control_c, 10, 11, 72
10, 53988, Control_c, 10, 11, 69
10, 53990, Note_on_c, 10, 77, 0
10, 54000, Note_on_c, 10, 75, 76
10, 54060, Note_on_c, 10, 75, 0
10, 54119, Program_c, 10, 45
10, 54120, Control_c, 10, 11, 100
10, 54120, Note_on_c, 10, 63, 49
10, 54180, Note_on_c, 10, 63, 0
10, 54359, Program_c, 10, 48
10, 54360, Note_on_c, 10, 77, 112
10, 54360, Control_c, 10, 11, 47
10, 54420, Note_on_c, 10, 77, 0
10, 54420, Note_on_c, 10, 75, 112
10, 54424, Control_c, 10, 11, 46
10, 54480, Note_on_c, 10, 75, 0
10, 54480, Note_on_c, 10, 72, 112
10, 54488, Control_c, 10, 11, 45
10, 54540, Note_on_c, 10, 72, 0
10, 54540, Note_on_c, 10, 69, 112
10, 54552, Control_c, 10, 11, 44
10, 54600, Note_on_c, 10, 69, 0
10, 54616, Control_c, 10, 11, 43
10, 54680, Control_c, 10, 11, 42
10, 54744, Control_c, 10, 11, 41
10, 54808, Control_c, 10, 11, 40
10, 54840, Note_on_c, 10, 77, 112
10, 54872, Control_c, 10, 11, 39
10, 54900, Note_on_c, 10, 77, 0
10, 54900, Note_on_c, 10, 75, 112
10, 54936, Control_c, 10, 11, 38
10, 54960, Note_on_c, 10, 75, 0
10, 54960, Note_on_c, 10, 72, 112
10, 55000, Control_c, 10, 11, 37
10, 55020, Note_on_c, 10, 72, 0
10, 55020, Note_on_c, 10, 69, 112
10, 55064, Control_c, 10, 11, 36
10, 55080, Note_on_c, 10, 69, 0
10, 55128, Control_c, 10, 11, 35
10, 55192, Control_c, 10, 11, 34
10, 55256, Control_c, 10, 11, 33
10, 55320, Control_c, 10, 11, 32
10, 55320, Note_on_c, 10, 74, 92
10, 55320, Note_on_c, 10, 65, 92
10, 55380, Note_on_c, 10, 65, 0
10, 55380, Note_on_c, 10, 74, 0
10, 55560, Note_on_c, 10, 65, 92
10, 55560, Note_on_c, 10, 74, 92
10, 55620, Note_on_c, 10, 74, 0
10, 55620, Note_on_c, 10, 65, 0
10, 55800, Note_on_c, 10, 65, 92
10, 55800, Note_on_c, 10, 74, 92
10, 55860, Note_on_c, 10, 74, 0
10, 55860, Note_on_c, 10, 65, 0
10, 56760, Note_on_c, 10, 77, 92
10, 56760, Control_c, 10, 11, 32
10, 56784, Control_c, 10, 11, 33
10, 56808, Control_c, 10, 11, 34
10, 56820, Note_on_c, 10, 77, 0
10, 56820, Note_on_c, 10, 78, 94
10, 56832, Control_c, 10, 11, 35
10, 56856, Control_c, 10, 11, 36
10, 56880, Note_on_c, 10, 78, 0
10, 56880, Control_c, 10, 11, 37
10, 56880, Note_on_c, 10, 81, 97
10, 56940, Note_on_c, 10, 81, 0
10, 56940, Note_on_c, 10, 79, 99
10, 57000, Note_on_c, 10, 79, 0
10, 57000, Note_on_c, 10, 82, 102
10, 57060, Note_on_c, 10, 82, 0
10, 57060, Note_on_c, 10, 79, 104
10, 57120, Note_on_c, 10, 79, 0
10, 57120, Note_on_c, 10, 74, 107
10, 57180, Note_on_c, 10, 74, 0
10, 57180, Note_on_c, 10, 76, 109
10, 57240, Note_on_c, 10, 76, 0
10, 57240, Note_on_c, 10, 77, 112
10, 57300, Note_on_c, 10, 77, 0
10, 57300, Note_on_c, 10, 81, 112
10, 57360, Note_on_c, 10, 81, 0
10, 57360, Note_on_c, 10, 84, 112
10, 57400, Note_on_c, 10, 84, 0
10, 57420, Note_on_c, 10, 84, 112
10, 57450, Note_on_c, 10, 84, 0
10, 57480, Control_c, 10, 11, 37
10, 57480, Note_on_c, 10, 84, 112
10, 57502, Control_c, 10, 11, 38
10, 57510, Note_on_c, 10, 84, 0
10, 57525, Control_c, 10, 11, 39
10, 57540, Note_on_c, 10, 84, 112
10, 57548, Control_c, 10, 11, 40
10, 57570, Note_on_c, 10, 84, 0
10, 57571, Control_c, 10, 11, 41
10, 57593, Control_c, 10, 11, 42
10, 57600, Note_on_c, 10, 84, 112
10, 57616, Control_c, 10, 11, 43
10, 57639, Control_c, 10, 11, 44
10, 57660, Note_on_c, 10, 84, 0
10, 57660, Note_on_c, 10, 83, 112
10, 57662, Control_c, 10, 11, 45
10, 57685, Control_c, 10, 11, 46
10, 57707, Control_c, 10, 11, 47
10, 57720, Note_on_c, 10, 83, 0
10, 57720, Note_on_c, 10, 84, 112
10, 57730, Control_c, 10, 11, 48
10, 57753, Control_c, 10, 11, 49
10, 57776, Control_c, 10, 11, 50
10, 57780, Note_on_c, 10, 84, 0
10, 57780, Note_on_c, 10, 82, 112
10, 57798, Control_c, 10, 11, 51
10, 57821, Control_c, 10, 11, 52
10, 57840, Note_on_c, 10, 82, 0
10, 57840, Note_on_c, 10, 79, 112
10, 57844, Control_c, 10, 11, 53
10, 57867, Control_c, 10, 11, 54
10, 57890, Control_c, 10, 11, 55
10, 57900, Note_on_c, 10, 79, 0
10, 57900, Note_on_c, 10, 76, 112
10, 57912, Control_c, 10, 11, 56
10, 57935, Control_c, 10, 11, 57
10, 57958, Control_c, 10, 11, 58
10, 57960, Note_on_c, 10, 76, 0
10, 57960, Note_on_c, 10, 79, 112
10, 57981, Control_c, 10, 11, 59
10, 58003, Control_c, 10, 11, 60
10, 58020, Note_on_c, 10, 79, 0
10, 58020, Note_on_c, 10, 77, 112
10, 58026, Control_c, 10, 11, 61
10, 58049, Control_c, 10, 11, 62
10, 58072, Control_c, 10, 11, 63
10, 58080, Note_on_c, 10, 77, 0
10, 58080, Note_on_c, 10, 81, 112
10, 58095, Control_c, 10, 11, 64
10, 58117, Control_c, 10, 11, 65
10, 58140, Note_on_c, 10, 81, 0
10, 58140, Control_c, 10, 11, 66
10, 58140, Note_on_c, 10, 77, 112
10, 58163, Control_c, 10, 11, 67
10, 58186, Control_c, 10, 11, 68
10, 58200, Note_on_c, 10, 77, 0
10, 58200, Note_on_c, 10, 72, 112
10, 58208, Control_c, 10, 11, 69
10, 58231, Control_c, 10, 11, 70
10, 58254, Control_c, 10, 11, 71
10, 58260, Note_on_c, 10, 72, 0
10, 58260, Note_on_c, 10, 73, 112
10, 58277, Control_c, 10, 11, 72
10, 58300, Control_c, 10, 11, 73
10, 58320, Note_on_c, 10, 73, 0
10, 58320, Note_on_c, 10, 76, 112
10, 58322, Control_c, 10, 11, 74
10, 58345, Control_c, 10, 11, 75
10, 58368, Control_c, 10, 11, 76
10, 58380, Note_on_c, 10, 76, 0
10, 58380, Note_on_c, 10, 74, 112
10, 58391, Control_c, 10, 11, 77
10, 58413, Control_c, 10, 11, 78
10, 58436, Control_c, 10, 11, 79
10, 58440, Note_on_c, 10, 74, 0
10, 58440, Note_on_c, 10, 67, 112
10, 58459, Control_c, 10, 11, 80
10, 58482, Control_c, 10, 11, 81
10, 58500, Note_on_c, 10, 67, 0
10, 58500, Note_on_c, 10, 69, 112
10, 58505, Control_c, 10, 11, 82
10, 58527, Control_c, 10, 11, 83
10, 58550, Control_c, 10, 11, 84
10, 58560, Note_on_c, 10, 69, 0
10, 58560, Note_on_c, 10, 70, 112
10, 58573, Control_c, 10, 11, 85
10, 58596, Control_c, 10, 11, 86
10, 58610, Note_on_c, 10, 70, 0
10, 58619, Control_c, 10, 11, 87
10, 58620, Note_on_c, 10, 71, 112
10, 58658, Note_on_c, 10, 71, 0
10, 58680, Control_c, 10, 11, 97
10, 58680, Note_on_c, 10, 71, 112
10, 58704, Control_c, 10, 11, 95
10, 58728, Control_c, 10, 11, 93
10, 58800, Note_on_c, 10, 71, 0
10, 58800, Note_on_c, 10, 72, 112
10, 58860, Note_on_c, 10, 72, 0
10, 58860, Note_on_c, 10, 74, 112
10, 58920, Note_on_c, 10, 74, 0
10, 58920, Note_on_c, 10, 75, 112
10, 58970, Note_on_c, 10, 75, 0
10, 58980, Note_on_c, 10, 76, 112
10, 59018, Note_on_c, 10, 76, 0
10, 59040, Note_on_c, 10, 76, 112
10, 59160, Note_on_c, 10, 76, 0
10, 59160, Note_on_c, 10, 77, 112
10, 59220, Note_on_c, 10, 77, 0
10, 59220, Note_on_c, 10, 79, 112
10, 59280, Note_on_c, 10, 79, 0
10, 59280, Note_on_c, 10, 80, 112
10, 59330, Note_on_c, 10, 80, 0
10, 59340, Control_c, 10, 11, 102
10, 59340, Note_on_c, 10, 81, 112
10, 59378, Note_on_c, 10, 81, 0
10, 59400, Note_on_c, 10, 81, 112
10, 59520, Note_on_c, 10, 81, 0
10, 59520, Note_on_c, 10, 82, 112
10, 59580, Note_on_c, 10, 82, 0
10, 60060, Note_on_c, 10, 76, 112
10, 60105, Note_on_c, 10, 76, 0
10, 60120, Note_on_c, 10, 76, 112
10, 60240, Note_on_c, 10, 76, 0
10, 60240, Note_on_c, 10, 77, 112
10, 60300, Note_on_c, 10, 77, 0
10, 60780, Note_on_c, 10, 81, 112
10, 60825, Note_on_c, 10, 81, 0
10, 60840, Note_on_c, 10, 79, 112
10, 60960, Note_on_c, 10, 79, 0
10, 60960, Note_on_c, 10, 81, 112
10, 61020, Note_on_c, 10, 81, 0
10, 61500, Note_on_c, 10, 81, 112
10, 61545, Note_on_c, 10, 81, 0
10, 61560, Note_on_c, 10, 79, 112
10, 61680, Note_on_c, 10, 79, 0
10, 61680, Note_on_c, 10, 81, 112
10, 61740, Note_on_c, 10, 81, 0
10, 62040, Note_on_c, 10, 76, 112
10, 62160, Note_on_c, 10, 76, 0
10, 62160, Note_on_c, 10, 77, 112
10, 62220, Note_on_c, 10, 77, 0
10, 62520, Note_on_c, 10, 64, 112
10, 62520, Control_c, 10, 11, 122
10, 62538, Control_c, 10, 11, 119
10, 62556, Control_c, 10, 11, 116
10, 62574, Control_c, 10, 11, 113
10, 62592, Control_c, 10, 11, 110
10, 62610, Control_c, 10, 11, 107
10, 62628, Control_c, 10, 11, 104
10, 63120, Note_on_c, 10, 64, 0
10, 63120, Note_on_c, 10, 65, 112
10, 63180, Note_on_c, 10, 65, 0
10, 63720, Control_c, 10, 121, 0
10, 63720, End_track
11, 0, Start_track
11, 0, MIDI_port, 0
11, 0, Title_t, "Violine II"
11, 0, Program_c, 11, 48
11, 0, Control_c, 11, 10, 90
11, 3, Control_c, 11, 121, 0
11, 8, Program_c, 11, 48
11, 13, Pitch_bend_c, 11, 7892
11, 18, Control_c, 11, 11, 87
11, 23, Control_c, 11, 7, 127
11, 28, Control_c, 11, 91, 48
11, 33, Control_c, 11, 93, 0
11, 603, Note_on_c, 11, 65, 97
11, 663, Note_on_c, 11, 65, 0
11, 663, Note_on_c, 11, 60, 97
11, 713, Note_on_c, 11, 60, 0
11, 723, Control_c, 11, 11, 107
11, 723, Note_on_c, 11, 65, 97
11, 732, Control_c, 11, 11, 104
11, 741, Control_c, 11, 11, 101
11, 750, Control_c, 11, 11, 98
11, 759, Control_c, 11, 11, 95
11, 768, Control_c, 11, 11, 92
11, 777, Control_c, 11, 11, 89
11, 783, Note_on_c, 11, 65, 0
11, 783, Note_on_c, 11, 60, 97
11, 843, Note_on_c, 11, 60, 0
11, 843, Control_c, 11, 11, 107
11, 843, Note_on_c, 11, 65, 97
11, 852, Control_c, 11, 11, 104
11, 861, Control_c, 11, 11, 101
11, 870, Control_c, 11, 11, 98
11, 879, Control_c, 11, 11, 95
11, 888, Control_c, 11, 11, 92
11, 897, Control_c, 11, 11, 89
11, 903, Note_on_c, 11, 65, 0
11, 903, Note_on_c, 11, 60, 97
11, 953, Note_on_c, 11, 60, 0
11, 963, Control_c, 11, 11, 107
11, 963, Note_on_c, 11, 69, 97
11, 972, Control_c, 11, 11, 104
11, 981, Control_c, 11, 11, 101
11, 990, Control_c, 11, 11, 98
11, 999, Control_c, 11, 11, 95
11, 1008, Control_c, 11, 11, 92
11, 1017, Control_c, 11, 11, 89
11, 1023, Note_on_c, 11, 69, 0
11, 1023, Note_on_c, 11, 65, 97
11, 1073, Note_on_c, 11, 65, 0
11, 1083, Control_c, 11, 11, 102
11, 1083, Note_on_c, 11, 69, 97
11, 1090, Control_c, 11, 11, 99
11, 1097, Control_c, 11, 11, 96
11, 1104, Control_c, 11, 11, 93
11, 1111, Control_c, 11, 11, 90
11, 1119, Control_c, 11, 11, 87
11, 1126, Control_c, 11, 11, 84
11, 1133, Control_c, 11, 11, 81
11, 1140, Control_c, 11, 11, 78
11, 1143, Note_on_c, 11, 69, 0
11, 1143, Note_on_c, 11, 65, 97
11, 1203, Note_on_c, 11, 65, 0
11, 1203, Control_c, 11, 11, 92
11, 1203, Note_on_c, 11, 69, 97
11, 1212, Control_c, 11, 11, 89
11, 1221, Control_c, 11, 11, 86
11, 1230, Control_c, 11, 11, 83
11, 1239, Control_c, 11, 11, 80
11, 1248, Control_c, 11, 11, 77
11, 1257, Control_c, 11, 11, 74
11, 1263, Note_on_c, 11, 69, 0
11, 1263, Note_on_c, 11, 65, 97
11, 1313, Note_on_c, 11, 65, 0
11, 1323, Control_c, 11, 11, 42
11, 1323, Note_on_c, 11, 69, 112
11, 1383, Note_on_c, 11, 69, 0
11, 1383, Note_on_c, 11, 65, 112
11, 1443, Note_on_c, 11, 65, 0
11, 1443, Note_on_c, 11, 70, 112
11, 1503, Note_on_c, 11, 70, 0
11, 1503, Note_on_c, 11, 67, 112
11, 1563, Note_on_c, 11, 67, 0
11, 1563, Note_on_c, 11, 70, 112
11, 1623, Note_on_c, 11, 70, 0
11, 1623, Note_on_c, 11, 67, 112
11, 1683, Note_on_c, 11, 67, 0
11, 1683, Note_on_c, 11, 70, 112
11, 1743, Note_on_c, 11, 70, 0
11, 1743, Note_on_c, 11, 67, 112
11, 1793, Note_on_c, 11, 67, 0
11, 1803, Note_on_c, 11, 72, 112
11, 1863, Note_on_c, 11, 72, 0
11, 1863, Note_on_c, 11, 69, 112
11, 1923, Note_on_c, 11, 69, 0
11, 1923, Note_on_c, 11, 72, 112
11, 1983, Note_on_c, 11, 72, 0
11, 1983, Note_on_c, 11, 69, 112
11, 2033, Note_on_c, 11, 69, 0
11, 2043, Control_c, 11, 11, 42
11, 2043, Note_on_c, 11, 60, 112
11, 2059, Control_c, 11, 11, 43
11, 2075, Control_c, 11, 11, 44
11, 2091, Control_c, 11, 11, 45
11, 2103, Note_on_c, 11, 60, 0
11, 2103, Note_on_c, 11, 61, 112
11, 2107, Control_c, 11, 11, 46
11, 2123, Control_c, 11, 11, 47
11, 2139, Control_c, 11, 11, 48
11, 2155, Control_c, 11, 11, 49
11, 2163, Note_on_c, 11, 61, 0
11, 2163, Note_on_c, 11, 64, 112
11, 2171, Control_c, 11, 11, 50
11, 2187, Control_c, 11, 11, 51
11, 2203, Control_c, 11, 11, 52
11, 2219, Control_c, 11, 11, 53
11, 2223, Note_on_c, 11, 64, 0
11, 2223, Note_on_c, 11, 62, 112
11, 2235, Control_c, 11, 11, 54
11, 2251, Control_c, 11, 11, 55
11, 2267, Control_c, 11, 11, 56
11, 2273, Note_on_c, 11, 62, 0
11, 2283, Control_c, 11, 11, 57
11, 2283, Note_on_c, 11, 62, 112
11, 2299, Control_c, 11, 11, 58
11, 2315, Control_c, 11, 11, 59
11, 2331, Control_c, 11, 11, 60
11, 2343, Note_on_c, 11, 62, 0
11, 2343, Note_on_c, 11, 60, 112
11, 2347, Control_c, 11, 11, 61
11, 2363, Control_c, 11, 11, 62
11, 2379, Control_c, 11, 11, 63
11, 2395, Control_c, 11, 11, 64
11, 2403, Note_on_c, 11, 60, 0
11, 2403, Note_on_c, 11, 58, 112
11, 2411, Control_c, 11, 11, 65
11, 2427, Control_c, 11, 11, 66
11, 2443, Control_c, 11, 11, 67
11, 2459, Control_c, 11, 11, 68
11, 2463, Note_on_c, 11, 58, 0
11, 2463, Note_on_c, 11, 56, 112
11, 2475, Control_c, 11, 11, 69
11, 2491, Control_c, 11, 11, 70
11, 2507, Control_c, 11, 11, 71
11, 2523, Note_on_c, 11, 56, 0
11, 2523, Control_c, 11, 11, 72
11, 2523, Note_on_c, 11, 55, 112
11, 2539, Control_c, 11, 11, 73
11, 2555, Control_c, 11, 11, 74
11, 2571, Control_c, 11, 11, 75
11, 2583, Note_on_c, 11, 55, 0
11, 2583, Note_on_c, 11, 65, 112
11, 2587, Control_c, 11, 11, 76
11, 2603, Control_c, 11, 11, 77
11, 2619, Control_c, 11, 11, 78
11, 2635, Control_c, 11, 11, 79
11, 2643, Note_on_c, 11, 65, 0
11, 2643, Note_on_c, 11, 64, 112
11, 2651, Control_c, 11, 11, 80
11, 2667, Control_c, 11, 11, 81
11, 2683, Control_c, 11, 11, 82
11, 2699, Control_c, 11, 11, 83
11, 2703, Note_on_c, 11, 64, 0
11, 2703, Note_on_c, 11, 70, 112
11, 2715, Control_c, 11, 11, 84
11, 2731, Control_c, 11, 11, 85
11, 2747, Control_c, 11, 11, 86
11, 2753, Note_on_c, 11, 70, 0
11, 2763, Control_c, 11, 11, 87
11, 2763, Note_on_c, 11, 81, 112
11, 2763, Note_on_c, 11, 69, 112
11, 2823, Note_on_c, 11, 69, 0
11, 2823, Note_on_c, 11, 81, 0
11, 2883, Control_c, 11, 11, 107
11, 2883, Note_on_c, 11, 72, 112
11, 2892, Control_c, 11, 11, 104
11, 2901, Control_c, 11, 11, 101
11, 2910, Control_c, 11, 11, 98
11, 2919, Control_c, 11, 11, 95
11, 2928, Control_c, 11, 11, 92
11, 2937, Control_c, 11, 11, 89
11, 3063, Note_on_c, 11, 72, 0
11, 3063, Note_on_c, 11, 70, 112
11, 3123, Note_on_c, 11, 70, 0
11, 3123, Note_on_c, 11, 67, 112
11, 3183, Note_on_c, 11, 67, 0
11, 3183, Note_on_c, 11, 64, 112
11, 3243, Note_on_c, 11, 64, 0
11, 3243, Note_on_c, 11, 67, 112
11, 3303, Note_on_c, 11, 67, 0
11, 3303, Note_on_c, 11, 65, 112
11, 3363, Note_on_c, 11, 65, 0
11, 3363, Note_on_c, 11, 69, 112
11, 3423, Note_on_c, 11, 69, 0
11, 3423, Note_on_c, 11, 65, 112
11, 3483, Note_on_c, 11, 65, 0
11, 3483, Note_on_c, 11, 60, 112
11, 3543, Note_on_c, 11, 60, 0
11, 3543, Note_on_c, 11, 61, 112
11, 3603, Note_on_c, 11, 61, 0
11, 3603, Note_on_c, 11, 64, 112
11, 3663, Note_on_c, 11, 64, 0
11, 3663, Note_on_c, 11, 62, 112
11, 3713, Note_on_c, 11, 62, 0
11, 3723, Note_on_c, 11, 62, 112
11, 3783, Note_on_c, 11, 62, 0
11, 3783, Note_on_c, 11, 60, 112
11, 3843, Note_on_c, 11, 60, 0
11, 3843, Note_on_c, 11, 58, 112
11, 3893, Note_on_c, 11, 58, 0
11, 3903, Note_on_c, 11, 58, 112
11, 3953, Note_on_c, 11, 58, 0
11, 3963, Note_on_c, 11, 58, 112
11, 4083, Note_on_c, 11, 58, 0
11, 4083, Note_on_c, 11, 57, 112
11, 4143, Note_on_c, 11, 57, 0
11, 4203, Note_on_c, 11, 65, 97
11, 4263, Note_on_c, 11, 65, 0
11, 4263, Note_on_c, 11, 60, 97
11, 4313, Note_on_c, 11, 60, 0
11, 4323, Control_c, 11, 11, 107
11, 4323, Note_on_c, 11, 65, 97
11, 4332, Control_c, 11, 11, 104
11, 4341, Control_c, 11, 11, 101
11, 4350, Control_c, 11, 11, 98
11, 4359, Control_c, 11, 11, 95
11, 4368, Control_c, 11, 11, 92
11, 4377, Control_c, 11, 11, 89
11, 4383, Note_on_c, 11, 65, 0
11, 4383, Note_on_c, 11, 60, 97
11, 4443, Note_on_c, 11, 60, 0
11, 4443, Control_c, 11, 11, 107
11, 4443, Note_on_c, 11, 65, 97
11, 4452, Control_c, 11, 11, 104
11, 4461, Control_c, 11, 11, 101
11, 4470, Control_c, 11, 11, 98
11, 4479, Control_c, 11, 11, 95
11, 4488, Control_c, 11, 11, 92
11, 4497, Control_c, 11, 11, 89
11, 4503, Note_on_c, 11, 65, 0
11, 4503, Note_on_c, 11, 60, 97
11, 4553, Note_on_c, 11, 60, 0
11, 4563, Control_c, 11, 11, 107
11, 4563, Note_on_c, 11, 69, 97
11, 4572, Control_c, 11, 11, 104
11, 4581, Control_c, 11, 11, 101
11, 4590, Control_c, 11, 11, 98
11, 4599, Control_c, 11, 11, 95
11, 4608, Control_c, 11, 11, 92
11, 4617, Control_c, 11, 11, 89
11, 4623, Note_on_c, 11, 69, 0
11, 4623, Note_on_c, 11, 65, 97
11, 4673, Note_on_c, 11, 65, 0
11, 4683, Note_on_c, 11, 69, 97
11, 4683, Control_c, 11, 11, 102
11, 4690, Control_c, 11, 11, 99
11, 4697, Control_c, 11, 11, 96
11, 4704, Control_c, 11, 11, 93
11, 4711, Control_c, 11, 11, 90
11, 4719, Control_c, 11, 11, 87
11, 4726, Control_c, 11, 11, 84
11, 4733, Control_c, 11, 11, 81
11, 4740, Control_c, 11, 11, 78
11, 4743, Note_on_c, 11, 69, 0
11, 4743, Note_on_c, 11, 65, 97
11, 4803, Note_on_c, 11, 65, 0
11, 4803, Note_on_c, 11, 69, 88
11, 4803, Control_c, 11, 11, 92
11, 4812, Control_c, 11, 11, 89
11, 4821, Control_c, 11, 11, 86
11, 4830, Control_c, 11, 11, 83
11, 4839, Control_c, 11, 11, 80
11, 4848, Control_c, 11, 11, 77
11, 4857, Control_c, 11, 11, 74
11, 4863, Note_on_c, 11, 69, 0
11, 4863, Note_on_c, 11, 65, 80
11, 4913, Note_on_c, 11, 65, 0
11, 4923, Control_c, 11, 11, 42
11, 4923, Note_on_c, 11, 69, 112
11, 4983, Note_on_c, 11, 69, 0
11, 4983, Note_on_c, 11, 65, 112
11, 5043, Note_on_c, 11, 65, 0
11, 5043, Note_on_c, 11, 70, 112
11, 5103, Note_on_c, 11, 70, 0
11, 5103, Note_on_c, 11, 67, 112
11, 5163, Note_on_c, 11, 67, 0
11, 5163, Note_on_c, 11, 70, 112
11, 5223, Note_on_c, 11, 70, 0
11, 5223, Note_on_c, 11, 67, 112
11, 5283, Note_on_c, 11, 67, 0
11, 5283, Note_on_c, 11, 70, 112
11, 5343, Note_on_c, 11, 70, 0
11, 5343, Note_on_c, 11, 67, 112
11, 5393, Note_on_c, 11, 67, 0
11, 5403, Note_on_c, 11, 72, 112
11, 5463, Note_on_c, 11, 72, 0
11, 5463, Note_on_c, 11, 69, 112
11, 5523, Note_on_c, 11, 69, 0
11, 5523, Note_on_c, 11, 72, 112
11, 5583, Note_on_c, 11, 72, 0
11, 5583, Note_on_c, 11, 69, 112
11, 5633, Note_on_c, 11, 69, 0
11, 5643, Control_c, 11, 11, 42
11, 5643, Note_on_c, 11, 60, 112
11, 5659, Control_c, 11, 11, 43
11, 5675, Control_c, 11, 11, 44
11, 5691, Control_c, 11, 11, 45
11, 5703, Note_on_c, 11, 60, 0
11, 5703, Note_on_c, 11, 61, 112
11, 5707, Control_c, 11, 11, 46
11, 5723, Control_c, 11, 11, 47
11, 5739, Control_c, 11, 11, 48
11, 5755, Control_c, 11, 11, 49
11, 5763, Note_on_c, 11, 61, 0
11, 5763, Note_on_c, 11, 64, 112
11, 5771, Control_c, 11, 11, 50
11, 5787, Control_c, 11, 11, 51
11, 5803, Control_c, 11, 11, 52
11, 5819, Control_c, 11, 11, 53
11, 5823, Note_on_c, 11, 64, 0
11, 5823, Note_on_c, 11, 62, 112
11, 5835, Control_c, 11, 11, 54
11, 5851, Control_c, 11, 11, 55
11, 5867, Control_c, 11, 11, 56
11, 5873, Note_on_c, 11, 62, 0
11, 5883, Control_c, 11, 11, 57
11, 5883, Note_on_c, 11, 62, 112
11, 5899, Control_c, 11, 11, 58
11, 5915, Control_c, 11, 11, 59
11, 5931, Control_c, 11, 11, 60
11, 5943, Note_on_c, 11, 62, 0
11, 5943, Note_on_c, 11, 60, 112
11, 5947, Control_c, 11, 11, 61
11, 5963, Control_c, 11, 11, 62
11, 5979, Control_c, 11, 11, 63
11, 5995, Control_c, 11, 11, 64
11, 6003, Note_on_c, 11, 60, 0
11, 6003, Note_on_c, 11, 58, 112
11, 6011, Control_c, 11, 11, 65
11, 6027, Control_c, 11, 11, 66
11, 6043, Control_c, 11, 11, 67
11, 6059, Control_c, 11, 11, 68
11, 6063, Note_on_c, 11, 58, 0
11, 6063, Note_on_c, 11, 56, 112
11, 6075, Control_c, 11, 11, 69
11, 6091, Control_c, 11, 11, 70
11, 6107, Control_c, 11, 11, 71
11, 6123, Note_on_c, 11, 56, 0
11, 6123, Control_c, 11, 11, 72
11, 6123, Note_on_c, 11, 55, 112
11, 6139, Control_c, 11, 11, 73
11, 6155, Control_c, 11, 11, 74
11, 6171, Control_c, 11, 11, 75
11, 6183, Note_on_c, 11, 55, 0
11, 6183, Note_on_c, 11, 65, 112
11, 6187, Control_c, 11, 11, 76
11, 6203, Control_c, 11, 11, 77
11, 6219, Control_c, 11, 11, 78
11, 6235, Control_c, 11, 11, 79
11, 6243, Note_on_c, 11, 65, 0
11, 6243, Note_on_c, 11, 64, 112
11, 6251, Control_c, 11, 11, 80
11, 6267, Control_c, 11, 11, 81
11, 6283, Control_c, 11, 11, 82
11, 6299, Control_c, 11, 11, 83
11, 6303, Note_on_c, 11, 64, 0
11, 6303, Note_on_c, 11, 70, 112
11, 6315, Control_c, 11, 11, 84
11, 6331, Control_c, 11, 11, 85
11, 6347, Control_c, 11, 11, 86
11, 6353, Note_on_c, 11, 70, 0
11, 6363, Control_c, 11, 11, 87
11, 6363, Note_on_c, 11, 69, 112
11, 6363, Note_on_c, 11, 81, 112
11, 6423, Note_on_c, 11, 81, 0
11, 6423, Note_on_c, 11, 69, 0
11, 6483, Note_on_c, 11, 72, 112
11, 6483, Control_c, 11, 11, 107
11, 6492, Control_c, 11, 11, 104
11, 6501, Control_c, 11, 11, 101
11, 6510, Control_c, 11, 11, 98
11, 6519, Control_c, 11, 11, 95
11, 6528, Control_c, 11, 11, 92
11, 6537, Control_c, 11, 11, 89
11, 6663, Note_on_c, 11, 72, 0
11, 6663, Note_on_c, 11, 70, 112
11, 6723, Note_on_c, 11, 70, 0
11, 6723, Note_on_c, 11, 67, 112
11, 6783, Note_on_c, 11, 67, 0
11, 6783, Note_on_c, 11, 64, 112
11, 6843, Note_on_c, 11, 64, 0
11, 6843, Note_on_c, 11, 67, 112
11, 6903, Note_on_c, 11, 67, 0
11, 6903, Note_on_c, 11, 65, 112
11, 6963, Note_on_c, 11, 65, 0
11, 6963, Note_on_c, 11, 69, 112
11, 7023, Note_on_c, 11, 69, 0
11, 7023, Note_on_c, 11, 65, 112
11, 7083, Note_on_c, 11, 65, 0
11, 7083, Note_on_c, 11, 60, 112
11, 7143, Note_on_c, 11, 60, 0
11, 7143, Note_on_c, 11, 61, 112
11, 7203, Note_on_c, 11, 61, 0
11, 7203, Note_on_c, 11, 64, 112
11, 7263, Note_on_c, 11, 64, 0
11, 7263, Note_on_c, 11, 62, 112
11, 7313, Note_on_c, 11, 62, 0
11, 7323, Note_on_c, 11, 62, 112
11, 7383, Note_on_c, 11, 62, 0
11, 7383, Note_on_c, 11, 60, 112
11, 7443, Note_on_c, 11, 60, 0
11, 7443, Note_on_c, 11, 58, 112
11, 7493, Note_on_c, 11, 58, 0
11, 7503, Note_on_c, 11, 58, 112
11, 7553, Note_on_c, 11, 58, 0
11, 7563, Note_on_c, 11, 58, 112
11, 7683, Note_on_c, 11, 58, 0
11, 7683, Note_on_c, 11, 57, 112
11, 7743, Note_on_c, 11, 57, 0
11, 7743, Note_on_c, 11, 65, 112
11, 7803, Note_on_c, 11, 65, 0
11, 7803, Note_on_c, 11, 64, 112
11, 7863, Note_on_c, 11, 64, 0
11, 7863, Note_on_c, 11, 67, 112
11, 7923, Note_on_c, 11, 67, 0
11, 7923, Note_on_c, 11, 67, 112
11, 7983, Note_on_c, 11, 67, 0
11, 7983, Note_on_c, 11, 65, 112
11, 8043, Note_on_c, 11, 65, 0
11, 8043, Note_on_c, 11, 67, 112
11, 8103, Note_on_c, 11, 67, 0
11, 8103, Note_on_c, 11, 65, 112
11, 8163, Note_on_c, 11, 65, 0
11, 8163, Note_on_c, 11, 67, 112
11, 8223, Note_on_c, 11, 67, 0
11, 8283, Note_on_c, 11, 64, 112
11, 8283, Note_on_c, 11, 55, 112
11, 8283, Control_c, 11, 11, 107
11, 8283, Note_on_c, 11, 72, 112
11, 8292, Control_c, 11, 11, 104
11, 8301, Control_c, 11, 11, 101
11, 8310, Control_c, 11, 11, 98
11, 8319, Control_c, 11, 11, 95
11, 8328, Control_c, 11, 11, 92
11, 8337, Control_c, 11, 11, 89
11, 8403, Note_on_c, 11, 55, 0
11, 8403, Note_on_c, 11, 64, 0
11, 8453, Note_on_c, 11, 72, 0
11, 8463, Note_on_c, 11, 67, 112
11, 8523, Note_on_c, 11, 67, 0
11, 8523, Note_on_c, 11, 64, 112
11, 8583, Note_on_c, 11, 64, 0
11, 8583, Note_on_c, 11, 60, 112
11, 8633, Note_on_c, 11, 60, 0
11, 8643, Note_on_c, 11, 59, 112
11, 8643, Note_on_c, 11, 62, 112
11, 8703, Note_on_c, 11, 62, 0
11, 8703, Note_on_c, 11, 59, 0
11, 8703, Note_on_c, 11, 55, 112
11, 8763, Note_on_c, 11, 55, 0
11, 8763, Note_on_c, 11, 62, 112
11, 8763, Note_on_c, 11, 59, 112
11, 8823, Note_on_c, 11, 59, 0
11, 8823, Note_on_c, 11, 62, 0
11, 8823, Note_on_c, 11, 55, 112
11, 8883, Note_on_c, 11, 55, 0
11, 8883, Note_on_c, 11, 62, 112
11, 8943, Note_on_c, 11, 62, 0
11, 8943, Note_on_c, 11, 59, 112
11, 8993, Note_on_c, 11, 59, 0
11, 9003, Note_on_c, 11, 64, 112
11, 9063, Note_on_c, 11, 64, 0
11, 9063, Note_on_c, 11, 60, 112
11, 9123, Note_on_c, 11, 60, 0
11, 9123, Note_on_c, 11, 64, 112
11, 9183, Note_on_c, 11, 64, 0
11, 9183, Note_on_c, 11, 60, 112
11, 9243, Note_on_c, 11, 60, 0
11, 9243, Note_on_c, 11, 67, 112
11, 9303, Note_on_c, 11, 67, 0
11, 9303, Note_on_c, 11, 64, 112
11, 9353, Note_on_c, 11, 64, 0
11, 9363, Control_c, 11, 11, 107
11, 9363, Note_on_c, 11, 62, 112
11, 9372, Control_c, 11, 11, 104
11, 9381, Control_c, 11, 11, 101
11, 9390, Control_c, 11, 11, 98
11, 9399, Control_c, 11, 11, 95
11, 9408, Control_c, 11, 11, 92
11, 9417, Control_c, 11, 11, 89
11, 9423, Note_on_c, 11, 62, 0
11, 9423, Note_on_c, 11, 62, 112
11, 9483, Note_on_c, 11, 62, 0
11, 9483, Note_on_c, 11, 67, 112
11, 9543, Note_on_c, 11, 67, 0
11, 9543, Note_on_c, 11, 62, 112
11, 9603, Note_on_c, 11, 62, 0
11, 9603, Note_on_c, 11, 67, 112
11, 9663, Note_on_c, 11, 67, 0
11, 9663, Note_on_c, 11, 62, 112
11, 9713, Note_on_c, 11, 62, 0
11, 9723, Control_c, 11, 11, 107
11, 9723, Note_on_c, 11, 67, 112
11, 9732, Control_c, 11, 11, 104
11, 9741, Control_c, 11, 11, 101
11, 9750, Control_c, 11, 11, 98
11, 9759, Control_c, 11, 11, 95
11, 9768, Control_c, 11, 11, 92
11, 9777, Control_c, 11, 11, 89
11, 9783, Note_on_c, 11, 67, 0
11, 9783, Note_on_c, 11, 64, 112
11, 9843, Note_on_c, 11, 64, 0
11, 9843, Note_on_c, 11, 67, 112
11, 9903, Note_on_c, 11, 67, 0
11, 9903, Note_on_c, 11, 64, 112
11, 9963, Note_on_c, 11, 64, 0
11, 9963, Note_on_c, 11, 67, 112
11, 10023, Note_on_c, 11, 67, 0
11, 10023, Note_on_c, 11, 64, 112
11, 10073, Note_on_c, 11, 64, 0
11, 10083, Control_c, 11, 11, 107
11, 10083, Note_on_c, 11, 67, 112
11, 10092, Control_c, 11, 11, 104
11, 10101, Control_c, 11, 11, 101
11, 10110, Control_c, 11, 11, 98
11, 10119, Control_c, 11, 11, 95
11, 10128, Control_c, 11, 11, 92
11, 10137, Control_c, 11, 11, 89
11, 10143, Note_on_c, 11, 67, 0
11, 10143, Note_on_c, 11, 64, 112
11, 10203, Note_on_c, 11, 64, 0
11, 10203, Note_on_c, 11, 67, 112
11, 10263, Note_on_c, 11, 67, 0
11, 10263, Note_on_c, 11, 64, 112
11, 10323, Note_on_c, 11, 64, 0
11, 10323, Note_on_c, 11, 67, 112
11, 10383, Note_on_c, 11, 67, 0
11, 10383, Note_on_c, 11, 64, 112
11, 10433, Note_on_c, 11, 64, 0
11, 10443, Control_c, 11, 11, 107
11, 10443, Note_on_c, 11, 69, 112
11, 10452, Control_c, 11, 11, 104
11, 10461, Control_c, 11, 11, 101
11, 10470, Control_c, 11, 11, 98
11, 10479, Control_c, 11, 11, 95
11, 10488, Control_c, 11, 11, 92
11, 10497, Control_c, 11, 11, 89
11, 10503, Note_on_c, 11, 69, 0
11, 10503, Note_on_c, 11, 65, 112
11, 10563, Note_on_c, 11, 65, 0
11, 10563, Note_on_c, 11, 69, 112
11, 10623, Note_on_c, 11, 69, 0
11, 10623, Note_on_c, 11, 65, 112
11, 10683, Note_on_c, 11, 65, 0
11, 10683, Control_c, 11, 11, 87
11, 10683, Note_on_c, 11, 69, 112
11, 10701, Control_c, 11, 11, 84
11, 10719, Control_c, 11, 11, 81
11, 10737, Control_c, 11, 11, 78
11, 10743, Note_on_c, 11, 69, 0
11, 10743, Note_on_c, 11, 65, 112
11, 10755, Control_c, 11, 11, 75
11, 10773, Control_c, 11, 11, 72
11, 10791, Control_c, 11, 11, 69
11, 10793, Note_on_c, 11, 65, 0
11, 10803, Note_on_c, 11, 63, 76
11, 10803, Note_on_c, 11, 60, 76
11, 10863, Note_on_c, 11, 60, 0
11, 10863, Note_on_c, 11, 63, 0
11, 10922, Program_c, 11, 45
11, 10923, Control_c, 11, 11, 100
11, 10923, Note_on_c, 11, 60, 49
11, 10983, Note_on_c, 11, 60, 0
11, 11163, Note_on_c, 11, 63, 47
11, 11163, Note_on_c, 11, 60, 47
11, 11283, Note_on_c, 11, 60, 0
11, 11283, Note_on_c, 11, 63, 0
11, 11283, Note_on_c, 11, 63, 45
11, 11283, Note_on_c, 11, 60, 45
11, 11403, Note_on_c, 11, 60, 0
11, 11403, Note_on_c, 11, 63, 0
11, 11523, Note_on_c, 11, 60, 43
11, 11523, Note_on_c, 11, 63, 43
11, 11643, Note_on_c, 11, 63, 0
11, 11643, Note_on_c, 11, 60, 0
11, 11643, Note_on_c, 11, 60, 41
11, 11643, Note_on_c, 11, 63, 41
11, 11763, Note_on_c, 11, 63, 0
11, 11763, Note_on_c, 11, 60, 0
11, 11883, Note_on_c, 11, 60, 39
11, 11883, Note_on_c, 11, 63, 39
11, 12003, Note_on_c, 11, 63, 0
11, 12003, Note_on_c, 11, 60, 0
11, 12003, Note_on_c, 11, 60, 37
11, 12003, Note_on_c, 11, 63, 37
11, 12122, Program_c, 11, 48
11, 12123, Note_on_c, 11, 63, 0
11, 12123, Note_on_c, 11, 60, 0
11, 12123, Note_on_c, 11, 70, 92
11, 12123, Note_on_c, 11, 62, 92
11, 12123, Control_c, 11, 11, 32
11, 12183, Note_on_c, 11, 62, 0
11, 12183, Note_on_c, 11, 70, 0
11, 12363, Note_on_c, 11, 62, 92
11, 12363, Note_on_c, 11, 70, 92
11, 12423, Note_on_c, 11, 70, 0
11, 12423, Note_on_c, 11, 62, 0
11, 12603, Note_on_c, 11, 70, 92
11, 12603, Note_on_c, 11, 62, 92
11, 12663, Note_on_c, 11, 62, 0
11, 12663, Note_on_c, 11, 70, 0
11, 12843, Control_c, 11, 11, 32
11, 12843, Note_on_c, 11, 62, 112
11, 12903, Note_on_c, 11, 62, 0
11, 12903, Note_on_c, 11, 58, 112
11, 12963, Note_on_c, 11, 58, 0
11, 12963, Note_on_c, 11, 63, 112
11, 13023, Note_on_c, 11, 63, 0
11, 13023, Note_on_c, 11, 57, 112
11, 13083, Note_on_c, 11, 57, 0
11, 13083, Note_on_c, 11, 63, 112
11, 13143, Note_on_c, 11, 63, 0
11, 13143, Note_on_c, 11, 57, 112
11, 13203, Note_on_c, 11, 57, 0
11, 13203, Note_on_c, 11, 60, 112
11, 13263, Note_on_c, 11, 60, 0
11, 13263, Note_on_c, 11, 57, 112
11, 13323, Note_on_c, 11, 57, 0
11, 13323, Note_on_c, 11, 65, 112
11, 13383, Note_on_c, 11, 65, 0
11, 13383, Note_on_c, 11, 58, 112
11, 13443, Note_on_c, 11, 58, 0
11, 13443, Note_on_c, 11, 65, 112
11, 13503, Note_on_c, 11, 65, 0
11, 13503, Note_on_c, 11, 62, 112
11, 13553, Note_on_c, 11, 62, 0
11, 13563, Note_on_c, 11, 65, 112
11, 13623, Note_on_c, 11, 65, 0
11, 13623, Note_on_c, 11, 66, 112
11, 13683, Note_on_c, 11, 66, 0
11, 13683, Note_on_c, 11, 69, 112
11, 13743, Note_on_c, 11, 69, 0
11, 13743, Note_on_c, 11, 67, 112
11, 13803, Note_on_c, 11, 67, 0
11, 13803, Note_on_c, 11, 70, 112
11, 13863, Note_on_c, 11, 70, 0
11, 13863, Note_on_c, 11, 67, 112
11, 13923, Note_on_c, 11, 67, 0
11, 13923, Note_on_c, 11, 62, 112
11, 13983, Note_on_c, 11, 62, 0
11, 13983, Note_on_c, 11, 64, 112
11, 14043, Note_on_c, 11, 64, 0
11, 14043, Note_on_c, 11, 65, 112
11, 14103, Note_on_c, 11, 65, 0
11, 14103, Note_on_c, 11, 69, 112
11, 14163, Note_on_c, 11, 69, 0
11, 14163, Note_on_c, 11, 72, 112
11, 14203, Note_on_c, 11, 72, 0
11, 14223, Note_on_c, 11, 72, 112
11, 14253, Note_on_c, 11, 72, 0
11, 14283, Note_on_c, 11, 72, 112
11, 14283, Control_c, 11, 11, 37
11, 14305, Control_c, 11, 11, 38
11, 14313, Note_on_c, 11, 72, 0
11, 14328, Control_c, 11, 11, 39
11, 14343, Note_on_c, 11, 72, 112
11, 14351, Control_c, 11, 11, 40
11, 14373, Note_on_c, 11, 72, 0
11, 14374, Control_c, 11, 11, 41
11, 14396, Control_c, 11, 11, 42
11, 14403, Note_on_c, 11, 72, 112
11, 14419, Control_c, 11, 11, 43
11, 14442, Control_c, 11, 11, 44
11, 14463, Note_on_c, 11, 72, 0
11, 14463, Note_on_c, 11, 71, 112
11, 14465, Control_c, 11, 11, 45
11, 14488, Control_c, 11, 11, 46
11, 14510, Control_c, 11, 11, 47
11, 14523, Note_on_c, 11, 71, 0
11, 14523, Note_on_c, 11, 72, 112
11, 14533, Control_c, 11, 11, 48
11, 14556, Control_c, 11, 11, 49
11, 14579, Control_c, 11, 11, 50
11, 14583, Note_on_c, 11, 72, 0
11, 14583, Note_on_c, 11, 70, 112
11, 14601, Control_c, 11, 11, 51
11, 14624, Control_c, 11, 11, 52
11, 14643, Note_on_c, 11, 70, 0
11, 14643, Note_on_c, 11, 67, 112
11, 14647, Control_c, 11, 11, 53
11, 14670, Control_c, 11, 11, 54
11, 14693, Control_c, 11, 11, 55
11, 14703, Note_on_c, 11, 67, 0
11, 14703, Note_on_c, 11, 64, 112
11, 14715, Control_c, 11, 11, 56
11, 14738, Control_c, 11, 11, 57
11, 14761, Control_c, 11, 11, 58
11, 14763, Note_on_c, 11, 64, 0
11, 14763, Note_on_c, 11, 67, 112
11, 14784, Control_c, 11, 11, 59
11, 14806, Control_c, 11, 11, 60
11, 14823, Note_on_c, 11, 67, 0
11, 14823, Note_on_c, 11, 65, 112
11, 14829, Control_c, 11, 11, 61
11, 14852, Control_c, 11, 11, 62
11, 14875, Control_c, 11, 11, 63
11, 14883, Note_on_c, 11, 65, 0
11, 14883, Note_on_c, 11, 69, 112
11, 14898, Control_c, 11, 11, 64
11, 14920, Control_c, 11, 11, 65
11, 14943, Note_on_c, 11, 69, 0
11, 14943, Control_c, 11, 11, 66
11, 14943, Note_on_c, 11, 65, 112
11, 14966, Control_c, 11, 11, 67
11, 14989, Control_c, 11, 11, 68
11, 15003, Note_on_c, 11, 65, 0
11, 15003, Note_on_c, 11, 60, 112
11, 15011, Control_c, 11, 11, 69
11, 15034, Control_c, 11, 11, 70
11, 15057, Control_c, 11, 11, 71
11, 15063, Note_on_c, 11, 60, 0
11, 15063, Note_on_c, 11, 61, 112
11, 15080, Control_c, 11, 11, 72
11, 15103, Control_c, 11, 11, 73
11, 15123, Note_on_c, 11, 61, 0
11, 15123, Note_on_c, 11, 64, 112
11, 15125, Control_c, 11, 11, 74
11, 15148, Control_c, 11, 11, 75
11, 15171, Control_c, 11, 11, 76
11, 15183, Note_on_c, 11, 64, 0
11, 15183, Note_on_c, 11, 62, 112
11, 15194, Control_c, 11, 11, 77
11, 15216, Control_c, 11, 11, 78
11, 15239, Control_c, 11, 11, 79
11, 15243, Note_on_c, 11, 62, 0
11, 15243, Note_on_c, 11, 55, 112
11, 15262, Control_c, 11, 11, 80
11, 15285, Control_c, 11, 11, 81
11, 15303, Note_on_c, 11, 55, 0
11, 15303, Note_on_c, 11, 57, 112
11, 15308, Control_c, 11, 11, 82
11, 15330, Control_c, 11, 11, 83
11, 15353, Control_c, 11, 11, 84
11, 15363, Note_on_c, 11, 57, 0
11, 15363, Note_on_c, 11, 58, 112
11, 15376, Control_c, 11, 11, 85
11, 15399, Control_c, 11, 11, 86
11, 15413, Note_on_c, 11, 58, 0
11, 15422, Control_c, 11, 11, 87
11, 15423, Note_on_c, 11, 59, 112
11, 15461, Note_on_c, 11, 59, 0
11, 15483, Control_c, 11, 11, 97
11, 15483, Note_on_c, 11, 59, 112
11, 15507, Control_c, 11, 11, 95
11, 15531, Control_c, 11, 11, 93
11, 15603, Note_on_c, 11, 59, 0
11, 15603, Note_on_c, 11, 60, 112
11, 15663, Note_on_c, 11, 60, 0
11, 15663, Note_on_c, 11, 62, 112
11, 15723, Note_on_c, 11, 62, 0
11, 15723, Note_on_c, 11, 63, 112
11, 15773, Note_on_c, 11, 63, 0
11, 15783, Note_on_c, 11, 64, 112
11, 15821, Note_on_c, 11, 64, 0
11, 15843, Note_on_c, 11, 64, 112
11, 15963, Note_on_c, 11, 64, 0
11, 15963, Note_on_c, 11, 65, 112
11, 16023, Note_on_c, 11, 65, 0
11, 16023, Note_on_c, 11, 67, 112
11, 16083, Note_on_c, 11, 67, 0
11, 16083, Note_on_c, 11, 68, 112
11, 16133, Note_on_c, 11, 68, 0
11, 16143, Control_c, 11, 11, 102
11, 16143, Note_on_c, 11, 69, 112
11, 16181, Note_on_c, 11, 69, 0
11, 16203, Note_on_c, 11, 69, 112
11, 16323, Note_on_c, 11, 69, 0
11, 16323, Note_on_c, 11, 70, 112
11, 16383, Note_on_c, 11, 70, 0
11, 16863, Note_on_c, 11, 70, 112
11, 16908, Note_on_c, 11, 70, 0
11, 16923, Note_on_c, 11, 70, 112
11, 17043, Note_on_c, 11, 70, 0
11, 17043, Note_on_c, 11, 69, 112
11, 17103, Note_on_c, 11, 69, 0
11, 17583, Note_on_c, 11, 77, 112
11, 17628, Note_on_c, 11, 77, 0
11, 17643, Note_on_c, 11, 76, 112
11, 17763, Note_on_c, 11, 76, 0
11, 17763, Note_on_c, 11, 77, 112
11, 17823, Note_on_c, 11, 77, 0
11, 18303, Note_on_c, 11, 77, 112
11, 18348, Note_on_c, 11, 77, 0
11, 18363, Note_on_c, 11, 76, 112
11, 18483, Note_on_c, 11, 76, 0
11, 18483, Note_on_c, 11, 77, 112
11, 18543, Note_on_c, 11, 77, 0
11, 18843, Note_on_c, 11, 70, 112
11, 18963, Note_on_c, 11, 70, 0
11, 18963, Note_on_c, 11, 69, 112
11, 19023, Note_on_c, 11, 69, 0
11, 19323, Note_on_c, 11, 58, 112
11, 19323, Control_c, 11, 11, 122
11, 19341, Control_c, 11, 11, 119
11, 19359, Control_c, 11, 11, 116
11, 19377, Control_c, 11, 11, 113
11, 19395, Control_c, 11, 11, 110
11, 19413, Control_c, 11, 11, 107
11, 19431, Control_c, 11, 11, 104
11, 19923, Note_on_c, 11, 58, 0
11, 19923, Note_on_c, 11, 57, 112
11, 19973, Note_on_c, 11, 57, 0
11, 19983, Control_c, 11, 11, 87
11, 19983, Note_on_c, 11, 65, 112
11, 20043, Note_on_c, 11, 65, 0
11, 20043, Note_on_c, 11, 64, 112
11, 20103, Note_on_c, 11, 64, 0
11, 20103, Note_on_c, 11, 67, 112
11, 20163, Note_on_c, 11, 67, 0
11, 20163, Note_on_c, 11, 67, 112
11, 20223, Note_on_c, 11, 67, 0
11, 20223, Note_on_c, 11, 65, 112
11, 20283, Note_on_c, 11, 65, 0
11, 20283, Note_on_c, 11, 67, 112
11, 20343, Note_on_c, 11, 67, 0
11, 20343, Note_on_c, 11, 65, 112
11, 20403, Note_on_c, 11, 65, 0
11, 20403, Note_on_c, 11, 67, 112
11, 20463, Note_on_c, 11, 67, 0
11, 20523, Note_on_c, 11, 55, 112
11, 20523, Control_c, 11, 11, 107
11, 20523, Note_on_c, 11, 72, 112
11, 20523, Note_on_c, 11, 64, 112
11, 20532, Control_c, 11, 11, 104
11, 20541, Control_c, 11, 11, 101
11, 20550, Control_c, 11, 11, 98
11, 20559, Control_c, 11, 11, 95
11, 20568, Control_c, 11, 11, 92
11, 20577, Control_c, 11, 11, 89
11, 20643, Note_on_c, 11, 64, 0
11, 20643, Note_on_c, 11, 55, 0
11, 20693, Note_on_c, 11, 72, 0
11, 20703, Note_on_c, 11, 67, 112
11, 20763, Note_on_c, 11, 67, 0
11, 20763, Note_on_c, 11, 64, 112
11, 20823, Note_on_c, 11, 64, 0
11, 20823, Note_on_c, 11, 60, 112
11, 20873, Note_on_c, 11, 60, 0
11, 20883, Note_on_c, 11, 59, 112
11, 20883, Note_on_c, 11, 62, 112
11, 20943, Note_on_c, 11, 62, 0
11, 20943, Note_on_c, 11, 59, 0
11, 20943, Note_on_c, 11, 55, 112
11, 21003, Note_on_c, 11, 55, 0
11, 21003, Note_on_c, 11, 62, 112
11, 21003, Note_on_c, 11, 59, 112
11, 21063, Note_on_c, 11, 59, 0
11, 21063, Note_on_c, 11, 62, 0
11, 21063, Note_on_c, 11, 55, 112
11, 21123, Note_on_c, 11, 55, 0
11, 21123, Note_on_c, 11, 62, 112
11, 21183, Note_on_c, 11, 62, 0
11, 21183, Note_on_c, 11, 59, 112
11, 21233, Note_on_c, 11, 59, 0
11, 21243, Note_on_c, 11, 64, 112
11, 21303, Note_on_c, 11, 64, 0
11, 21303, Note_on_c, 11, 60, 112
11, 21363, Note_on_c, 11, 60, 0
11, 21363, Note_on_c, 11, 64, 112
11, 21423, Note_on_c, 11, 64, 0
11, 21423, Note_on_c, 11, 60, 112
11, 21483, Note_on_c, 11, 60, 0
11, 21483, Note_on_c, 11, 67, 112
11, 21543, Note_on_c, 11, 67, 0
11, 21543, Note_on_c, 11, 64, 112
11, 21593, Note_on_c, 11, 64, 0
11, 21603, Control_c, 11, 11, 107
11, 21603, Note_on_c, 11, 62, 112
11, 21612, Control_c, 11, 11, 104
11, 21621, Control_c, 11, 11, 101
11, 21630, Control_c, 11, 11, 98
11, 21639, Control_c, 11, 11, 95
11, 21648, Control_c, 11, 11, 92
11, 21657, Control_c, 11, 11, 89
11, 21663, Note_on_c, 11, 62, 0
11, 21663, Note_on_c, 11, 62, 112
11, 21723, Note_on_c, 11, 62, 0
11, 21723, Note_on_c, 11, 67, 112
11, 21783, Note_on_c, 11, 67, 0
11, 21783, Note_on_c, 11, 62, 112
11, 21843, Note_on_c, 11, 62, 0
11, 21843, Note_on_c, 11, 67, 112
11, 21903, Note_on_c, 11, 67, 0
11, 21903, Note_on_c, 11, 62, 112
11, 21953, Note_on_c, 11, 62, 0
11, 21963, Control_c, 11, 11, 107
11, 21963, Note_on_c, 11, 67, 112
11, 21972, Control_c, 11, 11, 104
11, 21981, Control_c, 11, 11, 101
11, 21990, Control_c, 11, 11, 98
11, 21999, Control_c, 11, 11, 95
11, 22008, Control_c, 11, 11, 92
11, 22017, Control_c, 11, 11, 89
11, 22023, Note_on_c, 11, 67, 0
11, 22023, Note_on_c, 11, 64, 112
11, 22083, Note_on_c, 11, 64, 0
11, 22083, Note_on_c, 11, 67, 112
11, 22143, Note_on_c, 11, 67, 0
11, 22143, Note_on_c, 11, 64, 112
11, 22203, Note_on_c, 11, 64, 0
11, 22203, Note_on_c, 11, 67, 112
11, 22263, Note_on_c, 11, 67, 0
11, 22263, Note_on_c, 11, 64, 112
11, 22313, Note_on_c, 11, 64, 0
11, 22323, Note_on_c, 11, 67, 112
11, 22323, Control_c, 11, 11, 107
11, 22332, Control_c, 11, 11, 104
11, 22341, Control_c, 11, 11, 101
11, 22350, Control_c, 11, 11, 98
11, 22359, Control_c, 11, 11, 95
11, 22368, Control_c, 11, 11, 92
11, 22377, Control_c, 11, 11, 89
11, 22383, Note_on_c, 11, 67, 0
11, 22383, Note_on_c, 11, 64, 112
11, 22443, Note_on_c, 11, 64, 0
11, 22443, Note_on_c, 11, 67, 112
11, 22503, Note_on_c, 11, 67, 0
11, 22503, Note_on_c, 11, 64, 112
11, 22563, Note_on_c, 11, 64, 0
11, 22563, Note_on_c, 11, 67, 112
11, 22623, Note_on_c, 11, 67, 0
11, 22623, Note_on_c, 11, 64, 112
11, 22673, Note_on_c, 11, 64, 0
11, 22683, Control_c, 11, 11, 107
11, 22683, Note_on_c, 11, 69, 112
11, 22692, Control_c, 11, 11, 104
11, 22701, Control_c, 11, 11, 101
11, 22710, Control_c, 11, 11, 98
11, 22719, Control_c, 11, 11, 95
11, 22728, Control_c, 11, 11, 92
11, 22737, Control_c, 11, 11, 89
11, 22743, Note_on_c, 11, 69, 0
11, 22743, Note_on_c, 11, 65, 112
11, 22803, Note_on_c, 11, 65, 0
11, 22803, Note_on_c, 11, 69, 112
11, 22863, Note_on_c, 11, 69, 0
11, 22863, Note_on_c, 11, 65, 112
11, 22923, Note_on_c, 11, 65, 0
11, 22923, Note_on_c, 11, 69, 112
11, 22923, Control_c, 11, 11, 87
11, 22941, Control_c, 11, 11, 84
11, 22959, Control_c, 11, 11, 81
11, 22977, Control_c, 11, 11, 78
11, 22983, Note_on_c, 11, 69, 0
11, 22983, Note_on_c, 11, 65, 112
11, 22995, Control_c, 11, 11, 75
11, 23013, Control_c, 11, 11, 72
11, 23031, Control_c, 11, 11, 69
11, 23033, Note_on_c, 11, 65, 0
11, 23043, Note_on_c, 11, 60, 76
11, 23043, Note_on_c, 11, 63, 76
11, 23103, Note_on_c, 11, 63, 0
11, 23103, Note_on_c, 11, 60, 0
11, 23162, Program_c, 11, 45
11, 23163, Control_c, 11, 11, 100
11, 23163, Note_on_c, 11, 60, 49
11, 23223, Note_on_c, 11, 60, 0
11, 23403, Note_on_c, 11, 63, 47
11, 23403, Note_on_c, 11, 60, 47
11, 23523, Note_on_c, 11, 60, 0
11, 23523, Note_on_c, 11, 63, 0
11, 23523, Note_on_c, 11, 63, 45
11, 23523, Note_on_c, 11, 60, 45
11, 23643, Note_on_c, 11, 60, 0
11, 23643, Note_on_c, 11, 63, 0
11, 23763, Note_on_c, 11, 60, 43
11, 23763, Note_on_c, 11, 63, 43
11, 23883, Note_on_c, 11, 63, 0
11, 23883, Note_on_c, 11, 60, 0
11, 23883, Note_on_c, 11, 60, 41
11, 23883, Note_on_c, 11, 63, 41
11, 24003, Note_on_c, 11, 63, 0
11, 24003, Note_on_c, 11, 60, 0
11, 24123, Note_on_c, 11, 60, 39
11, 24123, Note_on_c, 11, 63, 39
11, 24243, Note_on_c, 11, 63, 0
11, 24243, Note_on_c, 11, 60, 0
11, 24243, Note_on_c, 11, 60, 37
11, 24243, Note_on_c, 11, 63, 37
11, 24362, Program_c, 11, 48
11, 24363, Note_on_c, 11, 63, 0
11, 24363, Note_on_c, 11, 60, 0
11, 24363, Note_on_c, 11, 62, 92
11, 24363, Note_on_c, 11, 70, 92
11, 24363, Control_c, 11, 11, 32
11, 24423, Note_on_c, 11, 70, 0
11, 24423, Note_on_c, 11, 62, 0
11, 24603, Note_on_c, 11, 62, 92
11, 24603, Note_on_c, 11, 70, 92
11, 24663, Note_on_c, 11, 70, 0
11, 24663, Note_on_c, 11, 62, 0
11, 24843, Note_on_c, 11, 70, 92
11, 24843, Note_on_c, 11, 62, 92
11, 24903, Note_on_c, 11, 62, 0
11, 24903, Note_on_c, 11, 70, 0
11, 25083, Control_c, 11, 11, 32
11, 25083, Note_on_c, 11, 62, 112
11, 25143, Note_on_c, 11, 62, 0
11, 25143, Note_on_c, 11, 58, 112
11, 25203, Note_on_c, 11, 58, 0
11, 25203, Note_on_c, 11, 63, 112
11, 25263, Note_on_c, 11, 63, 0
11, 25263, Note_on_c, 11, 57, 112
11, 25323, Note_on_c, 11, 57, 0
11, 25323, Note_on_c, 11, 63, 112
11, 25383, Note_on_c, 11, 63, 0
11, 25383, Note_on_c, 11, 57, 112
11, 25443, Note_on_c, 11, 57, 0
11, 25443, Note_on_c, 11, 60, 112
11, 25503, Note_on_c, 11, 60, 0
11, 25503, Note_on_c, 11, 57, 112
11, 25563, Note_on_c, 11, 57, 0
11, 25563, Note_on_c, 11, 65, 112
11, 25623, Note_on_c, 11, 65, 0
11, 25623, Note_on_c, 11, 58, 112
11, 25683, Note_on_c, 11, 58, 0
11, 25683, Note_on_c, 11, 65, 112
11, 25743, Note_on_c, 11, 65, 0
11, 25743, Note_on_c, 11, 62, 112
11, 25793, Note_on_c, 11, 62, 0
11, 25803, Note_on_c, 11, 65, 112
11, 25863, Note_on_c, 11, 65, 0
11, 25863, Note_on_c, 11, 66, 112
11, 25923, Note_on_c, 11, 66, 0
11, 25923, Note_on_c, 11, 69, 112
11, 25983, Note_on_c, 11, 69, 0
11, 25983, Note_on_c, 11, 67, 112
11, 26043, Note_on_c, 11, 67, 0
11, 26043, Note_on_c, 11, 70, 112
11, 26103, Note_on_c, 11, 70, 0
11, 26103, Note_on_c, 11, 67, 112
11, 26163, Note_on_c, 11, 67, 0
11, 26163, Note_on_c, 11, 62, 112
11, 26223, Note_on_c, 11, 62, 0
11, 26223, Note_on_c, 11, 64, 112
11, 26283, Note_on_c, 11, 64, 0
11, 26283, Note_on_c, 11, 65, 112
11, 26343, Note_on_c, 11, 65, 0
11, 26343, Note_on_c, 11, 69, 112
11, 26403, Note_on_c, 11, 69, 0
11, 26403, Note_on_c, 11, 72, 112
11, 26443, Note_on_c, 11, 72, 0
11, 26463, Note_on_c, 11, 72, 112
11, 26493, Note_on_c, 11, 72, 0
11, 26523, Note_on_c, 11, 72, 112
11, 26523, Control_c, 11, 11, 37
11, 26545, Control_c, 11, 11, 38
11, 26553, Note_on_c, 11, 72, 0
11, 26568, Control_c, 11, 11, 39
11, 26583, Note_on_c, 11, 72, 112
11, 26591, Control_c, 11, 11, 40
11, 26613, Note_on_c, 11, 72, 0
11, 26614, Control_c, 11, 11, 41
11, 26636, Control_c, 11, 11, 42
11, 26643, Note_on_c, 11, 72, 112
11, 26659, Control_c, 11, 11, 43
11, 26682, Control_c, 11, 11, 44
11, 26703, Note_on_c, 11, 72, 0
11, 26703, Note_on_c, 11, 71, 112
11, 26705, Control_c, 11, 11, 45
11, 26728, Control_c, 11, 11, 46
11, 26750, Control_c, 11, 11, 47
11, 26763, Note_on_c, 11, 71, 0
11, 26763, Note_on_c, 11, 72, 112
11, 26773, Control_c, 11, 11, 48
11, 26796, Control_c, 11, 11, 49
11, 26819, Control_c, 11, 11, 50
11, 26823, Note_on_c, 11, 72, 0
11, 26823, Note_on_c, 11, 70, 112
11, 26841, Control_c, 11, 11, 51
11, 26864, Control_c, 11, 11, 52
11, 26883, Note_on_c, 11, 70, 0
11, 26883, Note_on_c, 11, 67, 112
11, 26887, Control_c, 11, 11, 53
11, 26910, Control_c, 11, 11, 54
11, 26933, Control_c, 11, 11, 55
11, 26943, Note_on_c, 11, 67, 0
11, 26943, Note_on_c, 11, 64, 112
11, 26955, Control_c, 11, 11, 56
11, 26978, Control_c, 11, 11, 57
11, 27001, Control_c, 11, 11, 58
11, 27003, Note_on_c, 11, 64, 0
11, 27003, Note_on_c, 11, 67, 112
11, 27024, Control_c, 11, 11, 59
11, 27046, Control_c, 11, 11, 60
11, 27063, Note_on_c, 11, 67, 0
11, 27063, Note_on_c, 11, 65, 112
11, 27069, Control_c, 11, 11, 61
11, 27092, Control_c, 11, 11, 62
11, 27115, Control_c, 11, 11, 63
11, 27123, Note_on_c, 11, 65, 0
11, 27123, Note_on_c, 11, 69, 112
11, 27138, Control_c, 11, 11, 64
11, 27160, Control_c, 11, 11, 65
11, 27183, Note_on_c, 11, 69, 0
11, 27183, Control_c, 11, 11, 66
11, 27183, Note_on_c, 11, 65, 112
11, 27206, Control_c, 11, 11, 67
11, 27229, Control_c, 11, 11, 68
11, 27243, Note_on_c, 11, 65, 0
11, 27243, Note_on_c, 11, 60, 112
11, 27251, Control_c, 11, 11, 69
11, 27274, Control_c, 11, 11, 70
11, 27297, Control_c, 11, 11, 71
11, 27303, Note_on_c, 11, 60, 0
11, 27303, Note_on_c, 11, 61, 112
11, 27320, Control_c, 11, 11, 72
11, 27343, Control_c, 11, 11, 73
11, 27363, Note_on_c, 11, 61, 0
11, 27363, Note_on_c, 11, 64, 112
11, 27365, Control_c, 11, 11, 74
11, 27388, Control_c, 11, 11, 75
11, 27411, Control_c, 11, 11, 76
11, 27423, Note_on_c, 11, 64, 0
11, 27423, Note_on_c, 11, 62, 112
11, 27434, Control_c, 11, 11, 77
11, 27456, Control_c, 11, 11, 78
11, 27479, Control_c, 11, 11, 79
11, 27483, Note_on_c, 11, 62, 0
11, 27483, Note_on_c, 11, 55, 112
11, 27502, Control_c, 11, 11, 80
11, 27525, Control_c, 11, 11, 81
11, 27543, Note_on_c, 11, 55, 0
11, 27543, Note_on_c, 11, 57, 112
11, 27548, Control_c, 11, 11, 82
11, 27570, Control_c, 11, 11, 83
11, 27593, Control_c, 11, 11, 84
11, 27603, Note_on_c, 11, 57, 0
11, 27603, Note_on_c, 11, 58, 112
11, 27616, Control_c, 11, 11, 85
11, 27639, Control_c, 11, 11, 86
11, 27653, Note_on_c, 11, 58, 0
11, 27662, Control_c, 11, 11, 87
11, 27663, Note_on_c, 11, 59, 112
11, 27701, Note_on_c, 11, 59, 0
11, 27723, Control_c, 11, 11, 97
11, 27723, Note_on_c, 11, 59, 112
11, 27747, Control_c, 11, 11, 95
11, 27771, Control_c, 11, 11, 93
11, 27843, Note_on_c, 11, 59, 0
11, 27843, Note_on_c, 11, 60, 112
11, 27903, Note_on_c, 11, 60, 0
11, 27903, Note_on_c, 11, 62, 112
11, 27963, Note_on_c, 11, 62, 0
11, 27963, Note_on_c, 11, 63, 112
11, 28013, Note_on_c, 11, 63, 0
11, 28023, Note_on_c, 11, 64, 112
11, 28055, Note_on_c, 11, 64, 0
11, 28083, Note_on_c, 11, 64, 112
11, 28203, Note_on_c, 11, 64, 0
11, 28203, Note_on_c, 11, 65, 112
11, 28263, Note_on_c, 11, 65, 0
11, 28263, Note_on_c, 11, 67, 112
11, 28323, Note_on_c, 11, 67, 0
11, 28323, Note_on_c, 11, 68, 112
11, 28373, Note_on_c, 11, 68, 0
11, 28383, Control_c, 11, 11, 102
11, 28383, Note_on_c, 11, 69, 112
11, 28421, Note_on_c, 11, 69, 0
11, 28443, Note_on_c, 11, 69, 112
11, 28563, Note_on_c, 11, 69, 0
11, 28563, Note_on_c, 11, 70, 112
11, 28623, Note_on_c, 11, 70, 0
11, 29103, Note_on_c, 11, 70, 112
11, 29148, Note_on_c, 11, 70, 0
11, 29163, Note_on_c, 11, 70, 112
11, 29283, Note_on_c, 11, 70, 0
11, 29283, Note_on_c, 11, 69, 112
11, 29343, Note_on_c, 11, 69, 0
11, 29823, Note_on_c, 11, 77, 112
11, 29868, Note_on_c, 11, 77, 0
11, 29883, Note_on_c, 11, 76, 112
11, 30003, Note_on_c, 11, 76, 0
11, 30003, Note_on_c, 11, 77, 112
11, 30063, Note_on_c, 11, 77, 0
11, 30543, Note_on_c, 11, 77, 112
11, 30588, Note_on_c, 11, 77, 0
11, 30603, Note_on_c, 11, 76, 112
11, 30723, Note_on_c, 11, 76, 0
11, 30723, Note_on_c, 11, 77, 112
11, 30783, Note_on_c, 11, 77, 0
11, 31083, Note_on_c, 11, 70, 112
11, 31203, Note_on_c, 11, 70, 0
11, 31203, Note_on_c, 11, 69, 112
11, 31263, Note_on_c, 11, 69, 0
11, 31563, Control_c, 11, 11, 122
11, 31563, Note_on_c, 11, 58, 112
11, 31581, Control_c, 11, 11, 119
11, 31599, Control_c, 11, 11, 116
11, 31617, Control_c, 11, 11, 113
11, 31635, Control_c, 11, 11, 110
11, 31653, Control_c, 11, 11, 107
11, 31671, Control_c, 11, 11, 104
11, 32163, Note_on_c, 11, 58, 0
11, 32163, Note_on_c, 11, 57, 112
11, 32223, Note_on_c, 11, 57, 0
11, 32223, Control_c, 11, 11, 87
11, 38163, Control_c, 11, 11, 47
11, 38163, Note_on_c, 11, 64, 112
11, 38343, Note_on_c, 11, 64, 0
11, 38343, Note_on_c, 11, 67, 112
11, 38403, Note_on_c, 11, 67, 0
11, 38403, Note_on_c, 11, 72, 112
11, 38518, Note_on_c, 11, 72, 0
11, 38523, Note_on_c, 11, 72, 112
11, 38703, Note_on_c, 11, 72, 0
11, 38703, Note_on_c, 11, 67, 112
11, 38763, Note_on_c, 11, 67, 0
11, 38763, Note_on_c, 11, 64, 112
11, 38878, Note_on_c, 11, 64, 0
11, 38883, Note_on_c, 11, 63, 112
11, 39063, Note_on_c, 11, 63, 0
11, 39063, Note_on_c, 11, 67, 112
11, 39123, Note_on_c, 11, 67, 0
11, 39123, Note_on_c, 11, 72, 112
11, 39238, Note_on_c, 11, 72, 0
11, 39243, Note_on_c, 11, 72, 112
11, 39423, Note_on_c, 11, 72, 0
11, 39423, Note_on_c, 11, 67, 112
11, 39483, Note_on_c, 11, 67, 0
11, 39483, Note_on_c, 11, 63, 112
11, 39598, Note_on_c, 11, 63, 0
11, 39603, Note_on_c, 11, 68, 112
11, 39603, Control_c, 11, 11, 47
11, 39630, Control_c, 11, 11, 48
11, 39657, Control_c, 11, 11, 49
11, 39684, Control_c, 11, 11, 50
11, 39711, Control_c, 11, 11, 51
11, 39738, Control_c, 11, 11, 52
11, 39765, Control_c, 11, 11, 53
11, 39783, Note_on_c, 11, 68, 0
11, 39783, Note_on_c, 11, 70, 112
11, 39792, Control_c, 11, 11, 54
11, 39819, Control_c, 11, 11, 55
11, 39843, Note_on_c, 11, 70, 0
11, 39843, Note_on_c, 11, 72, 112
11, 39846, Control_c, 11, 11, 56
11, 39873, Control_c, 11, 11, 57
11, 39900, Control_c, 11, 11, 58
11, 39927, Control_c, 11, 11, 59
11, 39954, Control_c, 11, 11, 60
11, 39958, Note_on_c, 11, 72, 0
11, 39963, Note_on_c, 11, 72, 112
11, 39981, Control_c, 11, 11, 61
11, 40008, Control_c, 11, 11, 62
11, 40035, Control_c, 11, 11, 63
11, 40062, Control_c, 11, 11, 64
11, 40083, Note_on_c, 11, 72, 0
11, 40083, Note_on_c, 11, 73, 112
11, 40089, Control_c, 11, 11, 65
11, 40116, Control_c, 11, 11, 66
11, 40143, Control_c, 11, 11, 67
11, 40170, Control_c, 11, 11, 68
11, 40197, Control_c, 11, 11, 69
11, 40203, Note_on_c, 11, 73, 0
11, 40203, Note_on_c, 11, 70, 112
11, 40224, Control_c, 11, 11, 70
11, 40251, Control_c, 11, 11, 71
11, 40278, Control_c, 11, 11, 72
11, 40305, Control_c, 11, 11, 73
11, 40318, Note_on_c, 11, 70, 0
11, 40323, Note_on_c, 11, 68, 112
11, 40332, Control_c, 11, 11, 74
11, 40359, Control_c, 11, 11, 75
11, 40386, Control_c, 11, 11, 76
11, 40413, Control_c, 11, 11, 77
11, 40440, Control_c, 11, 11, 78
11, 40467, Control_c, 11, 11, 79
11, 40494, Control_c, 11, 11, 80
11, 40521, Control_c, 11, 11, 81
11, 40548, Control_c, 11, 11, 82
11, 40563, Note_on_c, 11, 68, 0
11, 40563, Note_on_c, 11, 67, 112
11, 40575, Control_c, 11, 11, 83
11, 40602, Control_c, 11, 11, 84
11, 40629, Control_c, 11, 11, 85
11, 40656, Control_c, 11, 11, 86
11, 40678, Note_on_c, 11, 67, 0
11, 40683, Note_on_c, 11, 67, 112
11, 40683, Control_c, 11, 11, 87
11, 40683, Note_on_c, 11, 58, 112
11, 40983, Control_c, 11, 11, 87
11, 40992, Control_c, 11, 11, 84
11, 41001, Control_c, 11, 11, 81
11, 41010, Control_c, 11, 11, 78
11, 41019, Control_c, 11, 11, 75
11, 41028, Control_c, 11, 11, 72
11, 41037, Control_c, 11, 11, 69
11, 41038, Note_on_c, 11, 58, 0
11, 41038, Note_on_c, 11, 67, 0
11, 41043, Note_on_c, 11, 65, 92
11, 41043, Note_on_c, 11, 57, 92
11, 41049, Control_c, 11, 11, 66
11, 41067, Control_c, 11, 11, 63
11, 41085, Control_c, 11, 11, 60
11, 41103, Control_c, 11, 11, 57
11, 41121, Control_c, 11, 11, 54
11, 41139, Control_c, 11, 11, 51
11, 41157, Control_c, 11, 11, 48
11, 41163, Note_on_c, 11, 57, 0
11, 41163, Note_on_c, 11, 65, 0
11, 47403, Control_c, 11, 11, 67
11, 47403, Note_on_c, 11, 65, 97
11, 47409, Control_c, 11, 11, 70
11, 47416, Control_c, 11, 11, 73
11, 47423, Control_c, 11, 11, 76
11, 47430, Control_c, 11, 11, 79
11, 47436, Control_c, 11, 11, 82
11, 47443, Control_c, 11, 11, 85
11, 47463, Note_on_c, 11, 65, 0
11, 47463, Note_on_c, 11, 60, 97
11, 47513, Note_on_c, 11, 60, 0
11, 47523, Control_c, 11, 11, 107
11, 47523, Note_on_c, 11, 65, 97
11, 47532, Control_c, 11, 11, 104
11, 47541, Control_c, 11, 11, 101
11, 47550, Control_c, 11, 11, 98
11, 47559, Control_c, 11, 11, 95
11, 47568, Control_c, 11, 11, 92
11, 47577, Control_c, 11, 11, 89
11, 47583, Note_on_c, 11, 65, 0
11, 47583, Note_on_c, 11, 60, 97
11, 47643, Note_on_c, 11, 60, 0
11, 47643, Control_c, 11, 11, 107
11, 47643, Note_on_c, 11, 65, 97
11, 47652, Control_c, 11, 11, 104
11, 47661, Control_c, 11, 11, 101
11, 47670, Control_c, 11, 11, 98
11, 47679, Control_c, 11, 11, 95
11, 47688, Control_c, 11, 11, 92
11, 47697, Control_c, 11, 11, 89
11, 47703, Note_on_c, 11, 65, 0
11, 47703, Note_on_c, 11, 60, 97
11, 47753, Note_on_c, 11, 60, 0
11, 47763, Note_on_c, 11, 69, 97
11, 47763, Control_c, 11, 11, 107
11, 47772, Control_c, 11, 11, 104
11, 47781, Control_c, 11, 11, 101
11, 47790, Control_c, 11, 11, 98
11, 47799, Control_c, 11, 11, 95
11, 47808, Control_c, 11, 11, 92
11, 47817, Control_c, 11, 11, 89
11, 47823, Note_on_c, 11, 69, 0
11, 47823, Note_on_c, 11, 65, 97
11, 47873, Note_on_c, 11, 65, 0
11, 47883, Note_on_c, 11, 69, 97
11, 47883, Control_c, 11, 11, 102
11, 47890, Control_c, 11, 11, 99
11, 47897, Control_c, 11, 11, 96
11, 47904, Control_c, 11, 11, 93
11, 47911, Control_c, 11, 11, 90
11, 47919, Control_c, 11, 11, 87
11, 47926, Control_c, 11, 11, 84
11, 47933, Control_c, 11, 11, 81
11, 47940, Control_c, 11, 11, 78
11, 47943, Note_on_c, 11, 69, 0
11, 47943, Note_on_c, 11, 65, 97
11, 48003, Note_on_c, 11, 65, 0
11, 48003, Control_c, 11, 11, 92
11, 48003, Note_on_c, 11, 69, 88
11, 48012, Control_c, 11, 11, 89
11, 48021, Control_c, 11, 11, 86
11, 48030, Control_c, 11, 11, 83
11, 48039, Control_c, 11, 11, 80
11, 48048, Control_c, 11, 11, 77
11, 48057, Control_c, 11, 11, 74
11, 48063, Note_on_c, 11, 69, 0
11, 48063, Note_on_c, 11, 65, 80
11, 48113, Note_on_c, 11, 65, 0
11, 48123, Control_c, 11, 11, 42
11, 48123, Note_on_c, 11, 69, 112
11, 48183, Note_on_c, 11, 69, 0
11, 48183, Note_on_c, 11, 65, 112
11, 48243, Note_on_c, 11, 65, 0
11, 48243, Note_on_c, 11, 70, 112
11, 48303, Note_on_c, 11, 70, 0
11, 48303, Note_on_c, 11, 67, 112
11, 48363, Note_on_c, 11, 67, 0
11, 48363, Note_on_c, 11, 70, 112
11, 48423, Note_on_c, 11, 70, 0
11, 48423, Note_on_c, 11, 67, 112
11, 48483, Note_on_c, 11, 67, 0
11, 48483, Note_on_c, 11, 70, 112
11, 48543, Note_on_c, 11, 70, 0
11, 48543, Note_on_c, 11, 67, 112
11, 48593, Note_on_c, 11, 67, 0
11, 48603, Note_on_c, 11, 72, 112
11, 48663, Note_on_c, 11, 72, 0
11, 48663, Note_on_c, 11, 69, 112
11, 48723, Note_on_c, 11, 69, 0
11, 48723, Note_on_c, 11, 72, 112
11, 48783, Note_on_c, 11, 72, 0
11, 48783, Note_on_c, 11, 69, 112
11, 48833, Note_on_c, 11, 69, 0
11, 48843, Control_c, 11, 11, 42
11, 48843, Note_on_c, 11, 60, 112
11, 48859, Control_c, 11, 11, 43
11, 48875, Control_c, 11, 11, 44
11, 48891, Control_c, 11, 11, 45
11, 48903, Note_on_c, 11, 60, 0
11, 48903, Note_on_c, 11, 61, 112
11, 48907, Control_c, 11, 11, 46
11, 48923, Control_c, 11, 11, 47
11, 48939, Control_c, 11, 11, 48
11, 48955, Control_c, 11, 11, 49
11, 48963, Note_on_c, 11, 61, 0
11, 48963, Note_on_c, 11, 64, 112
11, 48971, Control_c, 11, 11, 50
11, 48987, Control_c, 11, 11, 51
11, 49003, Control_c, 11, 11, 52
11, 49019, Control_c, 11, 11, 53
11, 49023, Note_on_c, 11, 64, 0
11, 49023, Note_on_c, 11, 62, 112
11, 49035, Control_c, 11, 11, 54
11, 49051, Control_c, 11, 11, 55
11, 49067, Control_c, 11, 11, 56
11, 49073, Note_on_c, 11, 62, 0
11, 49083, Control_c, 11, 11, 57
11, 49083, Note_on_c, 11, 62, 112
11, 49099, Control_c, 11, 11, 58
11, 49115, Control_c, 11, 11, 59
11, 49131, Control_c, 11, 11, 60
11, 49143, Note_on_c, 11, 62, 0
11, 49143, Note_on_c, 11, 60, 112
11, 49147, Control_c, 11, 11, 61
11, 49163, Control_c, 11, 11, 62
11, 49179, Control_c, 11, 11, 63
11, 49195, Control_c, 11, 11, 64
11, 49203, Note_on_c, 11, 60, 0
11, 49203, Note_on_c, 11, 58, 112
11, 49211, Control_c, 11, 11, 65
11, 49227, Control_c, 11, 11, 66
11, 49243, Control_c, 11, 11, 67
11, 49259, Control_c, 11, 11, 68
11, 49263, Note_on_c, 11, 58, 0
11, 49263, Note_on_c, 11, 56, 112
11, 49275, Control_c, 11, 11, 69
11, 49291, Control_c, 11, 11, 70
11, 49307, Control_c, 11, 11, 71
11, 49323, Note_on_c, 11, 56, 0
11, 49323, Control_c, 11, 11, 72
11, 49323, Note_on_c, 11, 55, 112
11, 49339, Control_c, 11, 11, 73
11, 49355, Control_c, 11, 11, 74
11, 49371, Control_c, 11, 11, 75
11, 49383, Note_on_c, 11, 55, 0
11, 49383, Note_on_c, 11, 65, 112
11, 49387, Control_c, 11, 11, 76
11, 49403, Control_c, 11, 11, 77
11, 49419, Control_c, 11, 11, 78
11, 49435, Control_c, 11, 11, 79
11, 49443, Note_on_c, 11, 65, 0
11, 49443, Note_on_c, 11, 64, 112
11, 49451, Control_c, 11, 11, 80
11, 49467, Control_c, 11, 11, 81
11, 49483, Control_c, 11, 11, 82
11, 49499, Control_c, 11, 11, 83
11, 49503, Note_on_c, 11, 64, 0
11, 49503, Note_on_c, 11, 70, 112
11, 49515, Control_c, 11, 11, 84
11, 49531, Control_c, 11, 11, 85
11, 49547, Control_c, 11, 11, 86
11, 49553, Note_on_c, 11, 70, 0
11, 49563, Control_c, 11, 11, 87
11, 49563, Note_on_c, 11, 81, 112
11, 49563, Note_on_c, 11, 69, 112
11, 49623, Note_on_c, 11, 69, 0
11, 49623, Note_on_c, 11, 81, 0
11, 49683, Note_on_c, 11, 72, 112
11, 49683, Control_c, 11, 11, 107
11, 49692, Control_c, 11, 11, 104
11, 49701, Control_c, 11, 11, 101
11, 49710, Control_c, 11, 11, 98
11, 49719, Control_c, 11, 11, 95
11, 49728, Control_c, 11, 11, 92
11, 49737, Control_c, 11, 11, 89
11, 49863, Note_on_c, 11, 72, 0
11, 49863, Note_on_c, 11, 70, 112
11, 49923, Note_on_c, 11, 70, 0
11, 49923, Note_on_c, 11, 67, 112
11, 49983, Note_on_c, 11, 67, 0
11, 49983, Note_on_c, 11, 64, 112
11, 50043, Note_on_c, 11, 64, 0
11, 50043, Note_on_c, 11, 67, 112
11, 50103, Note_on_c, 11, 67, 0
11, 50103, Note_on_c, 11, 65, 112
11, 50163, Note_on_c, 11, 65, 0
11, 50163, Note_on_c, 11, 69, 112
11, 50223, Note_on_c, 11, 69, 0
11, 50223, Note_on_c, 11, 65, 112
11, 50283, Note_on_c, 11, 65, 0
11, 50283, Note_on_c, 11, 60, 112
11, 50343, Note_on_c, 11, 60, 0
11, 50343, Note_on_c, 11, 61, 112
11, 50403, Note_on_c, 11, 61, 0
11, 50403, Note_on_c, 11, 64, 112
11, 50463, Note_on_c, 11, 64, 0
11, 50463, Note_on_c, 11, 62, 112
11, 50513, Note_on_c, 11, 62, 0
11, 50523, Note_on_c, 11, 62, 112
11, 50583, Note_on_c, 11, 62, 0
11, 50583, Note_on_c, 11, 60, 112
11, 50643, Note_on_c, 11, 60, 0
11, 50643, Note_on_c, 11, 58, 112
11, 50693, Note_on_c, 11, 58, 0
11, 50703, Note_on_c, 11, 58, 112
11, 50753, Note_on_c, 11, 58, 0
11, 50763, Note_on_c, 11, 58, 112
11, 50883, Note_on_c, 11, 58, 0
11, 50883, Note_on_c, 11, 57, 112
11, 50943, Note_on_c, 11, 57, 0
11, 50943, Note_on_c, 11, 65, 112
11, 51003, Note_on_c, 11, 65, 0
11, 51003, Note_on_c, 11, 64, 112
11, 51063, Note_on_c, 11, 64, 0
11, 51063, Note_on_c, 11, 67, 112
11, 51123, Note_on_c, 11, 67, 0
11, 51123, Note_on_c, 11, 67, 112
11, 51183, Note_on_c, 11, 67, 0
11, 51183, Note_on_c, 11, 65, 112
11, 51243, Note_on_c, 11, 65, 0
11, 51243, Note_on_c, 11, 67, 112
11, 51303, Note_on_c, 11, 67, 0
11, 51303, Note_on_c, 11, 65, 112
11, 51363, Note_on_c, 11, 65, 0
11, 51363, Note_on_c, 11, 67, 112
11, 51423, Note_on_c, 11, 67, 0
11, 51483, Note_on_c, 11, 72, 112
11, 51483, Note_on_c, 11, 55, 112
11, 51483, Control_c, 11, 11, 107
11, 51483, Note_on_c, 11, 64, 112
11, 51492, Control_c, 11, 11, 104
11, 51501, Control_c, 11, 11, 101
11, 51510, Control_c, 11, 11, 98
11, 51519, Control_c, 11, 11, 95
11, 51528, Control_c, 11, 11, 92
11, 51537, Control_c, 11, 11, 89
11, 51603, Note_on_c, 11, 64, 0
11, 51603, Note_on_c, 11, 55, 0
11, 51653, Note_on_c, 11, 72, 0
11, 51663, Note_on_c, 11, 67, 112
11, 51723, Note_on_c, 11, 67, 0
11, 51723, Note_on_c, 11, 64, 112
11, 51783, Note_on_c, 11, 64, 0
11, 51783, Note_on_c, 11, 60, 112
11, 51833, Note_on_c, 11, 60, 0
11, 51843, Note_on_c, 11, 59, 112
11, 51843, Note_on_c, 11, 62, 112
11, 51903, Note_on_c, 11, 62, 0
11, 51903, Note_on_c, 11, 59, 0
11, 51903, Note_on_c, 11, 55, 112
11, 51963, Note_on_c, 11, 55, 0
11, 51963, Note_on_c, 11, 62, 112
11, 51963, Note_on_c, 11, 59, 112
11, 52023, Note_on_c, 11, 59, 0
11, 52023, Note_on_c, 11, 62, 0
11, 52023, Note_on_c, 11, 55, 112
11, 52083, Note_on_c, 11, 55, 0
11, 52083, Note_on_c, 11, 62, 112
11, 52143, Note_on_c, 11, 62, 0
11, 52143, Note_on_c, 11, 59, 112
11, 52193, Note_on_c, 11, 59, 0
11, 52203, Note_on_c, 11, 64, 112
11, 52263, Note_on_c, 11, 64, 0
11, 52263, Note_on_c, 11, 60, 112
11, 52323, Note_on_c, 11, 60, 0
11, 52323, Note_on_c, 11, 64, 112
11, 52383, Note_on_c, 11, 64, 0
11, 52383, Note_on_c, 11, 60, 112
11, 52443, Note_on_c, 11, 60, 0
11, 52443, Note_on_c, 11, 67, 112
11, 52503, Note_on_c, 11, 67, 0
11, 52503, Note_on_c, 11, 64, 112
11, 52553, Note_on_c, 11, 64, 0
11, 52563, Control_c, 11, 11, 107
11, 52563, Note_on_c, 11, 62, 112
11, 52572, Control_c, 11, 11, 104
11, 52581, Control_c, 11, 11, 101
11, 52590, Control_c, 11, 11, 98
11, 52599, Control_c, 11, 11, 95
11, 52608, Control_c, 11, 11, 92
11, 52617, Control_c, 11, 11, 89
11, 52623, Note_on_c, 11, 62, 0
11, 52623, Note_on_c, 11, 62, 112
11, 52683, Note_on_c, 11, 62, 0
11, 52683, Note_on_c, 11, 67, 112
11, 52743, Note_on_c, 11, 67, 0
11, 52743, Note_on_c, 11, 62, 112
11, 52803, Note_on_c, 11, 62, 0
11, 52803, Note_on_c, 11, 67, 112
11, 52863, Note_on_c, 11, 67, 0
11, 52863, Note_on_c, 11, 62, 112
11, 52913, Note_on_c, 11, 62, 0
11, 52923, Control_c, 11, 11, 107
11, 52923, Note_on_c, 11, 67, 112
11, 52932, Control_c, 11, 11, 104
11, 52941, Control_c, 11, 11, 101
11, 52950, Control_c, 11, 11, 98
11, 52959, Control_c, 11, 11, 95
11, 52968, Control_c, 11, 11, 92
11, 52977, Control_c, 11, 11, 89
11, 52983, Note_on_c, 11, 67, 0
11, 52983, Note_on_c, 11, 64, 112
11, 53043, Note_on_c, 11, 64, 0
11, 53043, Note_on_c, 11, 67, 112
11, 53103, Note_on_c, 11, 67, 0
11, 53103, Note_on_c, 11, 64, 112
11, 53163, Note_on_c, 11, 64, 0
11, 53163, Note_on_c, 11, 67, 112
11, 53223, Note_on_c, 11, 67, 0
11, 53223, Note_on_c, 11, 64, 112
11, 53273, Note_on_c, 11, 64, 0
11, 53283, Note_on_c, 11, 67, 112
11, 53283, Control_c, 11, 11, 107
11, 53292, Control_c, 11, 11, 104
11, 53301, Control_c, 11, 11, 101
11, 53310, Control_c, 11, 11, 98
11, 53319, Control_c, 11, 11, 95
11, 53328, Control_c, 11, 11, 92
11, 53337, Control_c, 11, 11, 89
11, 53343, Note_on_c, 11, 67, 0
11, 53343, Note_on_c, 11, 64, 112
11, 53403, Note_on_c, 11, 64, 0
11, 53403, Note_on_c, 11, 67, 112
11, 53463, Note_on_c, 11, 67, 0
11, 53463, Note_on_c, 11, 64, 112
11, 53523, Note_on_c, 11, 64, 0
11, 53523, Note_on_c, 11, 67, 112
11, 53583, Note_on_c, 11, 67, 0
11, 53583, Note_on_c, 11, 64, 112
11, 53633, Note_on_c, 11, 64, 0
11, 53643, Control_c, 11, 11, 107
11, 53643, Note_on_c, 11, 69, 112
11, 53652, Control_c, 11, 11, 104
11, 53661, Control_c, 11, 11, 101
11, 53670, Control_c, 11, 11, 98
11, 53679, Control_c, 11, 11, 95
11, 53688, Control_c, 11, 11, 92
11, 53697, Control_c, 11, 11, 89
11, 53703, Note_on_c, 11, 69, 0
11, 53703, Note_on_c, 11, 65, 112
11, 53763, Note_on_c, 11, 65, 0
11, 53763, Note_on_c, 11, 69, 112
11, 53823, Note_on_c, 11, 69, 0
11, 53823, Note_on_c, 11, 65, 112
11, 53883, Note_on_c, 11, 65, 0
11, 53883, Note_on_c, 11, 69, 112
11, 53883, Control_c, 11, 11, 87
11, 53901, Control_c, 11, 11, 84
11, 53919, Control_c, 11, 11, 81
11, 53937, Control_c, 11, 11, 78
11, 53943, Note_on_c, 11, 69, 0
11, 53943, Note_on_c, 11, 65, 112
11, 53955, Control_c, 11, 11, 75
11, 53973, Control_c, 11, 11, 72
11, 53991, Control_c, 11, 11, 69
11, 53993, Note_on_c, 11, 65, 0
11, 54003, Note_on_c, 11, 63, 76
11, 54003, Note_on_c, 11, 60, 76
11, 54063, Note_on_c, 11, 60, 0
11, 54063, Note_on_c, 11, 63, 0
11, 54122, Program_c, 11, 45
11, 54123, Control_c, 11, 11, 100
11, 54123, Note_on_c, 11, 60, 49
11, 54183, Note_on_c, 11, 60, 0
11, 54363, Note_on_c, 11, 63, 47
11, 54363, Note_on_c, 11, 60, 47
11, 54483, Note_on_c, 11, 60, 0
11, 54483, Note_on_c, 11, 63, 0
11, 54483, Note_on_c, 11, 63, 45
11, 54483, Note_on_c, 11, 60, 45
11, 54603, Note_on_c, 11, 60, 0
11, 54603, Note_on_c, 11, 63, 0
11, 54723, Note_on_c, 11, 60, 43
11, 54723, Note_on_c, 11, 63, 43
11, 54843, Note_on_c, 11, 63, 0
11, 54843, Note_on_c, 11, 60, 0
11, 54843, Note_on_c, 11, 60, 41
11, 54843, Note_on_c, 11, 63, 41
11, 54963, Note_on_c, 11, 63, 0
11, 54963, Note_on_c, 11, 60, 0
11, 55083, Note_on_c, 11, 60, 39
11, 55083, Note_on_c, 11, 63, 39
11, 55203, Note_on_c, 11, 63, 0
11, 55203, Note_on_c, 11, 60, 0
11, 55203, Note_on_c, 11, 60, 37
11, 55203, Note_on_c, 11, 63, 37
11, 55322, Program_c, 11, 48
11, 55323, Note_on_c, 11, 63, 0
11, 55323, Note_on_c, 11, 60, 0
11, 55323, Control_c, 11, 11, 32
11, 55323, Note_on_c, 11, 70, 92
11, 55323, Note_on_c, 11, 62, 92
11, 55383, Note_on_c, 11, 62, 0
11, 55383, Note_on_c, 11, 70, 0
11, 55563, Note_on_c, 11, 62, 92
11, 55563, Note_on_c, 11, 70, 92
11, 55623, Note_on_c, 11, 70, 0
11, 55623, Note_on_c, 11, 62, 0
11, 55803, Note_on_c, 11, 70, 92
11, 55803, Note_on_c, 11, 62, 92
11, 55863, Note_on_c, 11, 62, 0
11, 55863, Note_on_c, 11, 70, 0
11, 56043, Note_on_c, 11, 62, 112
11, 56043, Control_c, 11, 11, 32
11, 56103, Note_on_c, 11, 62, 0
11, 56103, Note_on_c, 11, 58, 112
11, 56163, Note_on_c, 11, 58, 0
11, 56163, Note_on_c, 11, 63, 112
11, 56223, Note_on_c, 11, 63, 0
11, 56223, Note_on_c, 11, 57, 112
11, 56283, Note_on_c, 11, 57, 0
11, 56283, Note_on_c, 11, 63, 112
11, 56343, Note_on_c, 11, 63, 0
11, 56343, Note_on_c, 11, 57, 112
11, 56403, Note_on_c, 11, 57, 0
11, 56403, Note_on_c, 11, 60, 112
11, 56463, Note_on_c, 11, 60, 0
11, 56463, Note_on_c, 11, 57, 112
11, 56523, Note_on_c, 11, 57, 0
11, 56523, Note_on_c, 11, 65, 112
11, 56583, Note_on_c, 11, 65, 0
11, 56583, Note_on_c, 11, 58, 112
11, 56643, Note_on_c, 11, 58, 0
11, 56643, Note_on_c, 11, 65, 112
11, 56703, Note_on_c, 11, 65, 0
11, 56703, Note_on_c, 11, 62, 112
11, 56753, Note_on_c, 11, 62, 0
11, 56763, Note_on_c, 11, 65, 112
11, 56823, Note_on_c, 11, 65, 0
11, 56823, Note_on_c, 11, 66, 112
11, 56883, Note_on_c, 11, 66, 0
11, 56883, Note_on_c, 11, 69, 112
11, 56943, Note_on_c, 11, 69, 0
11, 56943, Note_on_c, 11, 67, 112
11, 57003, Note_on_c, 11, 67, 0
11, 57003, Note_on_c, 11, 70, 112
11, 57063, Note_on_c, 11, 70, 0
11, 57063, Note_on_c, 11, 67, 112
11, 57123, Note_on_c, 11, 67, 0
11, 57123, Note_on_c, 11, 62, 112
11, 57183, Note_on_c, 11, 62, 0
11, 57183, Note_on_c, 11, 64, 112
11, 57243, Note_on_c, 11, 64, 0
11, 57243, Note_on_c, 11, 65, 112
11, 57303, Note_on_c, 11, 65, 0
11, 57303, Note_on_c, 11, 69, 112
11, 57363, Note_on_c, 11, 69, 0
11, 57363, Note_on_c, 11, 72, 112
11, 57403, Note_on_c, 11, 72, 0
11, 57423, Note_on_c, 11, 72, 112
11, 57453, Note_on_c, 11, 72, 0
11, 57483, Note_on_c, 11, 72, 112
11, 57483, Control_c, 11, 11, 37
11, 57505, Control_c, 11, 11, 38
11, 57513, Note_on_c, 11, 72, 0
11, 57528, Control_c, 11, 11, 39
11, 57543, Note_on_c, 11, 72, 112
11, 57551, Control_c, 11, 11, 40
11, 57573, Note_on_c, 11, 72, 0
11, 57574, Control_c, 11, 11, 41
11, 57596, Control_c, 11, 11, 42
11, 57603, Note_on_c, 11, 72, 112
11, 57619, Control_c, 11, 11, 43
11, 57642, Control_c, 11, 11, 44
11, 57663, Note_on_c, 11, 72, 0
11, 57663, Note_on_c, 11, 71, 112
11, 57665, Control_c, 11, 11, 45
11, 57688, Control_c, 11, 11, 46
11, 57710, Control_c, 11, 11, 47
11, 57723, Note_on_c, 11, 71, 0
11, 57723, Note_on_c, 11, 72, 112
11, 57733, Control_c, 11, 11, 48
11, 57756, Control_c, 11, 11, 49
11, 57779, Control_c, 11, 11, 50
11, 57783, Note_on_c, 11, 72, 0
11, 57783, Note_on_c, 11, 70, 112
11, 57801, Control_c, 11, 11, 51
11, 57824, Control_c, 11, 11, 52
11, 57843, Note_on_c, 11, 70, 0
11, 57843, Note_on_c, 11, 67, 112
11, 57847, Control_c, 11, 11, 53
11, 57870, Control_c, 11, 11, 54
11, 57893, Control_c, 11, 11, 55
11, 57903, Note_on_c, 11, 67, 0
11, 57903, Note_on_c, 11, 64, 112
11, 57915, Control_c, 11, 11, 56
11, 57938, Control_c, 11, 11, 57
11, 57961, Control_c, 11, 11, 58
11, 57963, Note_on_c, 11, 64, 0
11, 57963, Note_on_c, 11, 67, 112
11, 57984, Control_c, 11, 11, 59
11, 58006, Control_c, 11, 11, 60
11, 58023, Note_on_c, 11, 67, 0
11, 58023, Note_on_c, 11, 65, 112
11, 58029, Control_c, 11, 11, 61
11, 58052, Control_c, 11, 11, 62
11, 58075, Control_c, 11, 11, 63
11, 58083, Note_on_c, 11, 65, 0
11, 58083, Note_on_c, 11, 69, 112
11, 58098, Control_c, 11, 11, 64
11, 58120, Control_c, 11, 11, 65
11, 58143, Note_on_c, 11, 69, 0
11, 58143, Note_on_c, 11, 65, 112
11, 58143, Control_c, 11, 11, 66
11, 58166, Control_c, 11, 11, 67
11, 58189, Control_c, 11, 11, 68
11, 58203, Note_on_c, 11, 65, 0
11, 58203, Note_on_c, 11, 60, 112
11, 58211, Control_c, 11, 11, 69
11, 58234, Control_c, 11, 11, 70
11, 58257, Control_c, 11, 11, 71
11, 58263, Note_on_c, 11, 60, 0
11, 58263, Note_on_c, 11, 61, 112
11, 58280, Control_c, 11, 11, 72
11, 58303, Control_c, 11, 11, 73
11, 58323, Note_on_c, 11, 61, 0
11, 58323, Note_on_c, 11, 64, 112
11, 58325, Control_c, 11, 11, 74
11, 58348, Control_c, 11, 11, 75
11, 58371, Control_c, 11, 11, 76
11, 58383, Note_on_c, 11, 64, 0
11, 58383, Note_on_c, 11, 62, 112
11, 58394, Control_c, 11, 11, 77
11, 58416, Control_c, 11, 11, 78
11, 58439, Control_c, 11, 11, 79
11, 58443, Note_on_c, 11, 62, 0
11, 58443, Note_on_c, 11, 55, 112
11, 58462, Control_c, 11, 11, 80
11, 58485, Control_c, 11, 11, 81
11, 58503, Note_on_c, 11, 55, 0
11, 58503, Note_on_c, 11, 57, 112
11, 58508, Control_c, 11, 11, 82
11, 58530, Control_c, 11, 11, 83
11, 58553, Control_c, 11, 11, 84
11, 58563, Note_on_c, 11, 57, 0
11, 58563, Note_on_c, 11, 58, 112
11, 58576, Control_c, 11, 11, 85
11, 58599, Control_c, 11, 11, 86
11, 58613, Note_on_c, 11, 58, 0
11, 58622, Control_c, 11, 11, 87
11, 58623, Note_on_c, 11, 59, 112
11, 58661, Note_on_c, 11, 59, 0
11, 58683, Control_c, 11, 11, 97
11, 58683, Note_on_c, 11, 59, 112
11, 58707, Control_c, 11, 11, 95
11, 58731, Control_c, 11, 11, 93
11, 58803, Note_on_c, 11, 59, 0
11, 58803, Note_on_c, 11, 60, 112
11, 58863, Note_on_c, 11, 60, 0
11, 58863, Note_on_c, 11, 62, 112
11, 58923, Note_on_c, 11, 62, 0
11, 58923, Note_on_c, 11, 63, 112
11, 58973, Note_on_c, 11, 63, 0
11, 58983, Note_on_c, 11, 64, 112
11, 59021, Note_on_c, 11, 64, 0
11, 59043, Note_on_c, 11, 64, 112
11, 59163, Note_on_c, 11, 64, 0
11, 59163, Note_on_c, 11, 65, 112
11, 59223, Note_on_c, 11, 65, 0
11, 59223, Note_on_c, 11, 67, 112
11, 59283, Note_on_c, 11, 67, 0
11, 59283, Note_on_c, 11, 68, 112
11, 59333, Note_on_c, 11, 68, 0
11, 59343, Control_c, 11, 11, 102
11, 59343, Note_on_c, 11, 69, 112
11, 59381, Note_on_c, 11, 69, 0
11, 59403, Note_on_c, 11, 69, 112
11, 59523, Note_on_c, 11, 69, 0
11, 59523, Note_on_c, 11, 70, 112
11, 59583, Note_on_c, 11, 70, 0
11, 60063, Note_on_c, 11, 70, 112
11, 60108, Note_on_c, 11, 70, 0
11, 60123, Note_on_c, 11, 70, 112
11, 60243, Note_on_c, 11, 70, 0
11, 60243, Note_on_c, 11, 69, 112
11, 60303, Note_on_c, 11, 69, 0
11, 60783, Note_on_c, 11, 77, 112
11, 60828, Note_on_c, 11, 77, 0
11, 60843, Note_on_c, 11, 76, 112
11, 60963, Note_on_c, 11, 76, 0
11, 60963, Note_on_c, 11, 77, 112
11, 61023, Note_on_c, 11, 77, 0
11, 61503, Note_on_c, 11, 77, 112
11, 61548, Note_on_c, 11, 77, 0
11, 61563, Note_on_c, 11, 76, 112
11, 61683, Note_on_c, 11, 76, 0
11, 61683, Note_on_c, 11, 77, 112
11, 61743, Note_on_c, 11, 77, 0
11, 62043, Note_on_c, 11, 70, 112
11, 62163, Note_on_c, 11, 70, 0
11, 62163, Note_on_c, 11, 69, 112
11, 62223, Note_on_c, 11, 69, 0
11, 62523, Control_c, 11, 11, 122
11, 62523, Note_on_c, 11, 58, 112
11, 62541, Control_c, 11, 11, 119
11, 62559, Control_c, 11, 11, 116
11, 62577, Control_c, 11, 11, 113
11, 62595, Control_c, 11, 11, 110
11, 62613, Control_c, 11, 11, 107
11, 62631, Control_c, 11, 11, 104
11, 63123, Note_on_c, 11, 58, 0
11, 63123, Note_on_c, 11, 57, 112
11, 63173, Note_on_c, 11, 57, 0
11, 63723, Control_c, 11, 121, 0
11, 63723, End_track
12, 0, Start_track
12, 0, MIDI_port, 0
12, 0, Title_t, "Viola"
12, 0, Program_c, 12, 48
12, 0, Control_c, 12, 10, 40
12, 8, Control_c, 12, 121, 0
12, 13, Program_c, 12, 48
12, 18, Pitch_bend_c, 12, 8492
12, 23, Control_c, 12, 11, 87
12, 28, Control_c, 12, 7, 127
12, 33, Control_c, 12, 91, 31
12, 38, Control_c, 12, 93, 0
12, 608, Note_on_c, 12, 53, 97
12, 668, Note_on_c, 12, 53, 0
12, 668, Note_on_c, 12, 48, 97
12, 718, Note_on_c, 12, 48, 0
12, 728, Control_c, 12, 11, 107
12, 728, Note_on_c, 12, 53, 97
12, 737, Control_c, 12, 11, 104
12, 746, Control_c, 12, 11, 101
12, 755, Control_c, 12, 11, 98
12, 764, Control_c, 12, 11, 95
12, 773, Control_c, 12, 11, 92
12, 782, Control_c, 12, 11, 89
12, 788, Note_on_c, 12, 53, 0
12, 788, Note_on_c, 12, 48, 97
12, 848, Note_on_c, 12, 48, 0
12, 848, Control_c, 12, 11, 107
12, 848, Note_on_c, 12, 53, 97
12, 857, Control_c, 12, 11, 104
12, 866, Control_c, 12, 11, 101
12, 875, Control_c, 12, 11, 98
12, 884, Control_c, 12, 11, 95
12, 893, Control_c, 12, 11, 92
12, 902, Control_c, 12, 11, 89
12, 908, Note_on_c, 12, 53, 0
12, 908, Note_on_c, 12, 48, 97
12, 958, Note_on_c, 12, 48, 0
12, 968, Control_c, 12, 11, 107
12, 968, Note_on_c, 12, 57, 97
12, 977, Control_c, 12, 11, 104
12, 986, Control_c, 12, 11, 101
12, 995, Control_c, 12, 11, 98
12, 1004, Control_c, 12, 11, 95
12, 1013, Control_c, 12, 11, 92
12, 1022, Control_c, 12, 11, 89
12, 1028, Note_on_c, 12, 57, 0
12, 1028, Note_on_c, 12, 53, 97
12, 1078, Note_on_c, 12, 53, 0
12, 1088, Control_c, 12, 11, 102
12, 1088, Note_on_c, 12, 57, 97
12, 1095, Control_c, 12, 11, 99
12, 1102, Control_c, 12, 11, 96
12, 1109, Control_c, 12, 11, 93
12, 1116, Control_c, 12, 11, 90
12, 1124, Control_c, 12, 11, 87
12, 1131, Control_c, 12, 11, 84
12, 1138, Control_c, 12, 11, 81
12, 1145, Control_c, 12, 11, 78
12, 1148, Note_on_c, 12, 57, 0
12, 1148, Note_on_c, 12, 53, 97
12, 1208, Note_on_c, 12, 53, 0
12, 1208, Control_c, 12, 11, 92
12, 1208, Note_on_c, 12, 57, 97
12, 1217, Control_c, 12, 11, 89
12, 1226, Control_c, 12, 11, 86
12, 1235, Control_c, 12, 11, 83
12, 1244, Control_c, 12, 11, 80
12, 1253, Control_c, 12, 11, 77
12, 1262, Control_c, 12, 11, 74
12, 1268, Note_on_c, 12, 57, 0
12, 1268, Note_on_c, 12, 53, 97
12, 1318, Note_on_c, 12, 53, 0
12, 1328, Control_c, 12, 11, 42
12, 1328, Note_on_c, 12, 57, 112
12, 1388, Note_on_c, 12, 57, 0
12, 1388, Note_on_c, 12, 53, 112
12, 1448, Note_on_c, 12, 53, 0
12, 1448, Note_on_c, 12, 58, 112
12, 1508, Note_on_c, 12, 58, 0
12, 1508, Note_on_c, 12, 55, 112
12, 1568, Note_on_c, 12, 55, 0
12, 1568, Note_on_c, 12, 58, 112
12, 1628, Note_on_c, 12, 58, 0
12, 1628, Note_on_c, 12, 55, 112
12, 1688, Note_on_c, 12, 55, 0
12, 1688, Note_on_c, 12, 58, 112
12, 1748, Note_on_c, 12, 58, 0
12, 1748, Note_on_c, 12, 55, 112
12, 1798, Note_on_c, 12, 55, 0
12, 1808, Note_on_c, 12, 60, 112
12, 1868, Note_on_c, 12, 60, 0
12, 1868, Note_on_c, 12, 57, 112
12, 1928, Note_on_c, 12, 57, 0
12, 1928, Note_on_c, 12, 60, 112
12, 1988, Note_on_c, 12, 60, 0
12, 1988, Note_on_c, 12, 57, 112
12, 2038, Note_on_c, 12, 57, 0
12, 2048, Control_c, 12, 11, 42
12, 2048, Note_on_c, 12, 57, 112
12, 2064, Control_c, 12, 11, 43
12, 2080, Control_c, 12, 11, 44
12, 2096, Control_c, 12, 11, 45
12, 2108, Note_on_c, 12, 57, 0
12, 2108, Note_on_c, 12, 48, 112
12, 2112, Control_c, 12, 11, 46
12, 2128, Control_c, 12, 11, 47
12, 2144, Control_c, 12, 11, 48
12, 2160, Control_c, 12, 11, 49
12, 2168, Note_on_c, 12, 48, 0
12, 2168, Note_on_c, 12, 58, 112
12, 2176, Control_c, 12, 11, 50
12, 2192, Control_c, 12, 11, 51
12, 2208, Control_c, 12, 11, 52
12, 2224, Control_c, 12, 11, 53
12, 2228, Note_on_c, 12, 58, 0
12, 2228, Note_on_c, 12, 48, 112
12, 2240, Control_c, 12, 11, 54
12, 2256, Control_c, 12, 11, 55
12, 2272, Control_c, 12, 11, 56
12, 2288, Note_on_c, 12, 48, 0
12, 2288, Control_c, 12, 11, 57
12, 2288, Note_on_c, 12, 58, 112
12, 2304, Control_c, 12, 11, 58
12, 2320, Control_c, 12, 11, 59
12, 2336, Control_c, 12, 11, 60
12, 2348, Note_on_c, 12, 58, 0
12, 2348, Note_on_c, 12, 57, 112
12, 2352, Control_c, 12, 11, 61
12, 2368, Control_c, 12, 11, 62
12, 2384, Control_c, 12, 11, 63
12, 2400, Control_c, 12, 11, 64
12, 2408, Note_on_c, 12, 57, 0
12, 2408, Note_on_c, 12, 55, 112
12, 2416, Control_c, 12, 11, 65
12, 2432, Control_c, 12, 11, 66
12, 2448, Control_c, 12, 11, 67
12, 2464, Control_c, 12, 11, 68
12, 2468, Note_on_c, 12, 55, 0
12, 2468, Note_on_c, 12, 53, 112
12, 2480, Control_c, 12, 11, 69
12, 2496, Control_c, 12, 11, 70
12, 2512, Control_c, 12, 11, 71
12, 2528, Note_on_c, 12, 53, 0
12, 2528, Control_c, 12, 11, 72
12, 2528, Note_on_c, 12, 55, 112
12, 2544, Control_c, 12, 11, 73
12, 2560, Control_c, 12, 11, 74
12, 2576, Control_c, 12, 11, 75
12, 2588, Note_on_c, 12, 55, 0
12, 2588, Note_on_c, 12, 53, 112
12, 2592, Control_c, 12, 11, 76
12, 2608, Control_c, 12, 11, 77
12, 2624, Control_c, 12, 11, 78
12, 2640, Control_c, 12, 11, 79
12, 2648, Note_on_c, 12, 53, 0
12, 2648, Note_on_c, 12, 52, 112
12, 2656, Control_c, 12, 11, 80
12, 2672, Control_c, 12, 11, 81
12, 2688, Control_c, 12, 11, 82
12, 2704, Control_c, 12, 11, 83
12, 2708, Note_on_c, 12, 52, 0
12, 2708, Note_on_c, 12, 58, 112
12, 2720, Control_c, 12, 11, 84
12, 2736, Control_c, 12, 11, 85
12, 2752, Control_c, 12, 11, 86
12, 2758, Note_on_c, 12, 58, 0
12, 2768, Control_c, 12, 11, 87
12, 2768, Note_on_c, 12, 57, 112
12, 2828, Note_on_c, 12, 57, 0
12, 2828, Note_on_c, 12, 53, 112
12, 2878, Note_on_c, 12, 53, 0
12, 2888, Note_on_c, 12, 58, 112
12, 2948, Note_on_c, 12, 58, 0
12, 2948, Note_on_c, 12, 55, 112
12, 3008, Note_on_c, 12, 55, 0
12, 3008, Note_on_c, 12, 58, 112
12, 3068, Note_on_c, 12, 58, 0
12, 3068, Note_on_c, 12, 55, 112
12, 3128, Note_on_c, 12, 55, 0
12, 3128, Note_on_c, 12, 58, 112
12, 3188, Note_on_c, 12, 58, 0
12, 3188, Note_on_c, 12, 55, 112
12, 3238, Note_on_c, 12, 55, 0
12, 3248, Note_on_c, 12, 60, 112
12, 3308, Note_on_c, 12, 60, 0
12, 3308, Note_on_c, 12, 57, 112
12, 3368, Note_on_c, 12, 57, 0
12, 3368, Note_on_c, 12, 60, 112
12, 3428, Note_on_c, 12, 60, 0
12, 3428, Note_on_c, 12, 57, 112
12, 3478, Note_on_c, 12, 57, 0
12, 3488, Note_on_c, 12, 65, 112
12, 3548, Note_on_c, 12, 65, 0
12, 3548, Note_on_c, 12, 53, 112
12, 3598, Note_on_c, 12, 53, 0
12, 3608, Note_on_c, 12, 53, 112
12, 3668, Note_on_c, 12, 53, 0
12, 3668, Note_on_c, 12, 54, 112
12, 3728, Note_on_c, 12, 54, 0
12, 3728, Note_on_c, 12, 55, 112
12, 3788, Note_on_c, 12, 55, 0
12, 3788, Note_on_c, 12, 57, 112
12, 3848, Note_on_c, 12, 57, 0
12, 3848, Note_on_c, 12, 58, 112
12, 3898, Note_on_c, 12, 58, 0
12, 3908, Note_on_c, 12, 55, 112
12, 3958, Note_on_c, 12, 55, 0
12, 3968, Note_on_c, 12, 55, 112
12, 4088, Note_on_c, 12, 55, 0
12, 4088, Note_on_c, 12, 53, 112
12, 4148, Note_on_c, 12, 53, 0
12, 4208, Note_on_c, 12, 53, 97
12, 4268, Note_on_c, 12, 53, 0
12, 4268, Note_on_c, 12, 48, 97
12, 4318, Note_on_c, 12, 48, 0
12, 4328, Control_c, 12, 11, 107
12, 4328, Note_on_c, 12, 53, 97
12, 4337, Control_c, 12, 11, 104
12, 4346, Control_c, 12, 11, 101
12, 4355, Control_c, 12, 11, 98
12, 4364, Control_c, 12, 11, 95
12, 4373, Control_c, 12, 11, 92
12, 4382, Control_c, 12, 11, 89
12, 4388, Note_on_c, 12, 53, 0
12, 4388, Note_on_c, 12, 48, 97
12, 4448, Note_on_c, 12, 48, 0
12, 4448, Control_c, 12, 11, 107
12, 4448, Note_on_c, 12, 53, 97
12, 4457, Control_c, 12, 11, 104
12, 4466, Control_c, 12, 11, 101
12, 4475, Control_c, 12, 11, 98
12, 4484, Control_c, 12, 11, 95
12, 4493, Control_c, 12, 11, 92
12, 4502, Control_c, 12, 11, 89
12, 4508, Note_on_c, 12, 53, 0
12, 4508, Note_on_c, 12, 48, 97
12, 4558, Note_on_c, 12, 48, 0
12, 4568, Control_c, 12, 11, 107
12, 4568, Note_on_c, 12, 57, 97
12, 4577, Control_c, 12, 11, 104
12, 4586, Control_c, 12, 11, 101
12, 4595, Control_c, 12, 11, 98
12, 4604, Control_c, 12, 11, 95
12, 4613, Control_c, 12, 11, 92
12, 4622, Control_c, 12, 11, 89
12, 4628, Note_on_c, 12, 57, 0
12, 4628, Note_on_c, 12, 53, 97
12, 4678, Note_on_c, 12, 53, 0
12, 4688, Note_on_c, 12, 57, 97
12, 4688, Control_c, 12, 11, 102
12, 4695, Control_c, 12, 11, 99
12, 4702, Control_c, 12, 11, 96
12, 4709, Control_c, 12, 11, 93
12, 4716, Control_c, 12, 11, 90
12, 4724, Control_c, 12, 11, 87
12, 4731, Control_c, 12, 11, 84
12, 4738, Control_c, 12, 11, 81
12, 4745, Control_c, 12, 11, 78
12, 4748, Note_on_c, 12, 57, 0
12, 4748, Note_on_c, 12, 53, 97
12, 4808, Note_on_c, 12, 53, 0
12, 4808, Note_on_c, 12, 57, 88
12, 4808, Control_c, 12, 11, 92
12, 4817, Control_c, 12, 11, 89
12, 4826, Control_c, 12, 11, 86
12, 4835, Control_c, 12, 11, 83
12, 4844, Control_c, 12, 11, 80
12, 4853, Control_c, 12, 11, 77
12, 4862, Control_c, 12, 11, 74
12, 4868, Note_on_c, 12, 57, 0
12, 4868, Note_on_c, 12, 53, 80
12, 4918, Note_on_c, 12, 53, 0
12, 4928, Control_c, 12, 11, 42
12, 4928, Note_on_c, 12, 57, 112
12, 4988, Note_on_c, 12, 57, 0
12, 4988, Note_on_c, 12, 53, 112
12, 5048, Note_on_c, 12, 53, 0
12, 5048, Note_on_c, 12, 58, 112
12, 5108, Note_on_c, 12, 58, 0
12, 5108, Note_on_c, 12, 55, 112
12, 5168, Note_on_c, 12, 55, 0
12, 5168, Note_on_c, 12, 58, 112
12, 5228, Note_on_c, 12, 58, 0
12, 5228, Note_on_c, 12, 55, 112
12, 5288, Note_on_c, 12, 55, 0
12, 5288, Note_on_c, 12, 58, 112
12, 5348, Note_on_c, 12, 58, 0
12, 5348, Note_on_c, 12, 55, 112
12, 5398, Note_on_c, 12, 55, 0
12, 5408, Note_on_c, 12, 60, 112
12, 5468, Note_on_c, 12, 60, 0
12, 5468, Note_on_c, 12, 57, 112
12, 5528, Note_on_c, 12, 57, 0
12, 5528, Note_on_c, 12, 60, 112
12, 5588, Note_on_c, 12, 60, 0
12, 5588, Note_on_c, 12, 57, 112
12, 5638, Note_on_c, 12, 57, 0
12, 5648, Control_c, 12, 11, 42
12, 5648, Note_on_c, 12, 57, 112
12, 5664, Control_c, 12, 11, 43
12, 5680, Control_c, 12, 11, 44
12, 5696, Control_c, 12, 11, 45
12, 5708, Note_on_c, 12, 57, 0
12, 5708, Note_on_c, 12, 48, 112
12, 5712, Control_c, 12, 11, 46
12, 5728, Control_c, 12, 11, 47
12, 5744, Control_c, 12, 11, 48
12, 5760, Control_c, 12, 11, 49
12, 5768, Note_on_c, 12, 48, 0
12, 5768, Note_on_c, 12, 58, 112
12, 5776, Control_c, 12, 11, 50
12, 5792, Control_c, 12, 11, 51
12, 5808, Control_c, 12, 11, 52
12, 5824, Control_c, 12, 11, 53
12, 5828, Note_on_c, 12, 58, 0
12, 5828, Note_on_c, 12, 48, 112
12, 5840, Control_c, 12, 11, 54
12, 5856, Control_c, 12, 11, 55
12, 5872, Control_c, 12, 11, 56
12, 5888, Note_on_c, 12, 48, 0
12, 5888, Control_c, 12, 11, 57
12, 5888, Note_on_c, 12, 58, 112
12, 5904, Control_c, 12, 11, 58
12, 5920, Control_c, 12, 11, 59
12, 5936, Control_c, 12, 11, 60
12, 5948, Note_on_c, 12, 58, 0
12, 5948, Note_on_c, 12, 57, 112
12, 5952, Control_c, 12, 11, 61
12, 5968, Control_c, 12, 11, 62
12, 5984, Control_c, 12, 11, 63
12, 6000, Control_c, 12, 11, 64
12, 6008, Note_on_c, 12, 57, 0
12, 6008, Note_on_c, 12, 55, 112
12, 6016, Control_c, 12, 11, 65
12, 6032, Control_c, 12, 11, 66
12, 6048, Control_c, 12, 11, 67
12, 6064, Control_c, 12, 11, 68
12, 6068, Note_on_c, 12, 55, 0
12, 6068, Note_on_c, 12, 53, 112
12, 6080, Control_c, 12, 11, 69
12, 6096, Control_c, 12, 11, 70
12, 6112, Control_c, 12, 11, 71
12, 6128, Note_on_c, 12, 53, 0
12, 6128, Control_c, 12, 11, 72
12, 6128, Note_on_c, 12, 55, 112
12, 6144, Control_c, 12, 11, 73
12, 6160, Control_c, 12, 11, 74
12, 6176, Control_c, 12, 11, 75
12, 6188, Note_on_c, 12, 55, 0
12, 6188, Note_on_c, 12, 53, 112
12, 6192, Control_c, 12, 11, 76
12, 6208, Control_c, 12, 11, 77
12, 6224, Control_c, 12, 11, 78
12, 6240, Control_c, 12, 11, 79
12, 6248, Note_on_c, 12, 53, 0
12, 6248, Note_on_c, 12, 52, 112
12, 6256, Control_c, 12, 11, 80
12, 6272, Control_c, 12, 11, 81
12, 6288, Control_c, 12, 11, 82
12, 6304, Control_c, 12, 11, 83
12, 6308, Note_on_c, 12, 52, 0
12, 6308, Note_on_c, 12, 58, 112
12, 6320, Control_c, 12, 11, 84
12, 6336, Control_c, 12, 11, 85
12, 6352, Control_c, 12, 11, 86
12, 6358, Note_on_c, 12, 58, 0
12, 6368, Control_c, 12, 11, 87
12, 6368, Note_on_c, 12, 57, 112
12, 6428, Note_on_c, 12, 57, 0
12, 6428, Note_on_c, 12, 53, 112
12, 6478, Note_on_c, 12, 53, 0
12, 6488, Note_on_c, 12, 58, 112
12, 6548, Note_on_c, 12, 58, 0
12, 6548, Note_on_c, 12, 55, 112
12, 6608, Note_on_c, 12, 55, 0
12, 6608, Note_on_c, 12, 58, 112
12, 6668, Note_on_c, 12, 58, 0
12, 6668, Note_on_c, 12, 55, 112
12, 6728, Note_on_c, 12, 55, 0
12, 6728, Note_on_c, 12, 58, 112
12, 6788, Note_on_c, 12, 58, 0
12, 6788, Note_on_c, 12, 55, 112
12, 6838, Note_on_c, 12, 55, 0
12, 6848, Note_on_c, 12, 60, 112
12, 6908, Note_on_c, 12, 60, 0
12, 6908, Note_on_c, 12, 57, 112
12, 6968, Note_on_c, 12, 57, 0
12, 6968, Note_on_c, 12, 60, 112
12, 7028, Note_on_c, 12, 60, 0
12, 7028, Note_on_c, 12, 57, 112
12, 7078, Note_on_c, 12, 57, 0
12, 7088, Note_on_c, 12, 65, 112
12, 7148, Note_on_c, 12, 65, 0
12, 7148, Note_on_c, 12, 53, 112
12, 7198, Note_on_c, 12, 53, 0
12, 7208, Note_on_c, 12, 53, 112
12, 7268, Note_on_c, 12, 53, 0
12, 7268, Note_on_c, 12, 54, 112
12, 7328, Note_on_c, 12, 54, 0
12, 7328, Note_on_c, 12, 55, 112
12, 7388, Note_on_c, 12, 55, 0
12, 7388, Note_on_c, 12, 57, 112
12, 7448, Note_on_c, 12, 57, 0
12, 7448, Note_on_c, 12, 58, 112
12, 7498, Note_on_c, 12, 58, 0
12, 7508, Note_on_c, 12, 55, 112
12, 7558, Note_on_c, 12, 55, 0
12, 7568, Note_on_c, 12, 55, 112
12, 7688, Note_on_c, 12, 55, 0
12, 7688, Note_on_c, 12, 53, 112
12, 7748, Note_on_c, 12, 53, 0
12, 7748, Note_on_c, 12, 60, 112
12, 7798, Note_on_c, 12, 60, 0
12, 7808, Note_on_c, 12, 60, 112
12, 7868, Note_on_c, 12, 60, 0
12, 7868, Note_on_c, 12, 64, 112
12, 7928, Note_on_c, 12, 64, 0
12, 7928, Note_on_c, 12, 62, 112
12, 7988, Note_on_c, 12, 62, 0
12, 7988, Note_on_c, 12, 62, 112
12, 8048, Note_on_c, 12, 62, 0
12, 8048, Note_on_c, 12, 65, 112
12, 8108, Note_on_c, 12, 65, 0
12, 8108, Note_on_c, 12, 59, 112
12, 8168, Note_on_c, 12, 59, 0
12, 8168, Note_on_c, 12, 65, 112
12, 8228, Note_on_c, 12, 65, 0
12, 8228, Note_on_c, 12, 59, 112
12, 8278, Note_on_c, 12, 59, 0
12, 8288, Note_on_c, 12, 64, 112
12, 8348, Note_on_c, 12, 64, 0
12, 8348, Note_on_c, 12, 60, 112
12, 8408, Note_on_c, 12, 60, 0
12, 8408, Note_on_c, 12, 64, 112
12, 8468, Note_on_c, 12, 64, 0
12, 8468, Note_on_c, 12, 60, 112
12, 8518, Note_on_c, 12, 60, 0
12, 8528, Note_on_c, 12, 60, 127
12, 8588, Note_on_c, 12, 60, 0
12, 8648, Control_c, 12, 11, 107
12, 8648, Note_on_c, 12, 65, 127
12, 8657, Control_c, 12, 11, 104
12, 8666, Control_c, 12, 11, 101
12, 8675, Control_c, 12, 11, 98
12, 8684, Control_c, 12, 11, 95
12, 8693, Control_c, 12, 11, 92
12, 8702, Control_c, 12, 11, 89
12, 8828, Note_on_c, 12, 65, 0
12, 8828, Note_on_c, 12, 62, 127
12, 8888, Note_on_c, 12, 62, 0
12, 8888, Note_on_c, 12, 59, 127
12, 8948, Note_on_c, 12, 59, 0
12, 8948, Note_on_c, 12, 55, 127
12, 8998, Note_on_c, 12, 55, 0
12, 9008, Note_on_c, 12, 60, 127
12, 9068, Note_on_c, 12, 60, 0
12, 9068, Note_on_c, 12, 52, 112
12, 9128, Note_on_c, 12, 52, 0
12, 9128, Note_on_c, 12, 60, 112
12, 9188, Note_on_c, 12, 60, 0
12, 9188, Note_on_c, 12, 52, 112
12, 9248, Note_on_c, 12, 52, 0
12, 9248, Note_on_c, 12, 55, 112
12, 9308, Note_on_c, 12, 55, 0
12, 9308, Note_on_c, 12, 52, 112
12, 9358, Note_on_c, 12, 52, 0
12, 9368, Control_c, 12, 11, 107
12, 9368, Note_on_c, 12, 50, 112
12, 9377, Control_c, 12, 11, 104
12, 9386, Control_c, 12, 11, 101
12, 9395, Control_c, 12, 11, 98
12, 9404, Control_c, 12, 11, 95
12, 9413, Control_c, 12, 11, 92
12, 9422, Control_c, 12, 11, 89
12, 9428, Note_on_c, 12, 50, 0
12, 9428, Note_on_c, 12, 59, 112
12, 9488, Note_on_c, 12, 59, 0
12, 9488, Note_on_c, 12, 62, 112
12, 9548, Note_on_c, 12, 62, 0
12, 9548, Note_on_c, 12, 59, 112
12, 9608, Note_on_c, 12, 59, 0
12, 9608, Note_on_c, 12, 62, 112
12, 9668, Note_on_c, 12, 62, 0
12, 9668, Note_on_c, 12, 59, 112
12, 9718, Note_on_c, 12, 59, 0
12, 9728, Note_on_c, 12, 64, 112
12, 9728, Control_c, 12, 11, 107
12, 9737, Control_c, 12, 11, 104
12, 9746, Control_c, 12, 11, 101
12, 9755, Control_c, 12, 11, 98
12, 9764, Control_c, 12, 11, 95
12, 9773, Control_c, 12, 11, 92
12, 9782, Control_c, 12, 11, 89
12, 9788, Note_on_c, 12, 64, 0
12, 9788, Note_on_c, 12, 60, 112
12, 9848, Note_on_c, 12, 60, 0
12, 9848, Note_on_c, 12, 64, 112
12, 9908, Note_on_c, 12, 64, 0
12, 9908, Note_on_c, 12, 60, 112
12, 9968, Note_on_c, 12, 60, 0
12, 9968, Note_on_c, 12, 64, 112
12, 10028, Note_on_c, 12, 64, 0
12, 10028, Note_on_c, 12, 60, 112
12, 10078, Note_on_c, 12, 60, 0
12, 10088, Note_on_c, 12, 58, 112
12, 10088, Control_c, 12, 11, 107
12, 10097, Control_c, 12, 11, 104
12, 10106, Control_c, 12, 11, 101
12, 10115, Control_c, 12, 11, 98
12, 10124, Control_c, 12, 11, 95
12, 10133, Control_c, 12, 11, 92
12, 10142, Control_c, 12, 11, 89
12, 10148, Note_on_c, 12, 58, 0
12, 10148, Note_on_c, 12, 55, 112
12, 10208, Note_on_c, 12, 55, 0
12, 10208, Note_on_c, 12, 58, 112
12, 10268, Note_on_c, 12, 58, 0
12, 10268, Note_on_c, 12, 55, 112
12, 10328, Note_on_c, 12, 55, 0
12, 10328, Note_on_c, 12, 58, 112
12, 10388, Note_on_c, 12, 58, 0
12, 10388, Note_on_c, 12, 67, 112
12, 10438, Note_on_c, 12, 67, 0
12, 10448, Note_on_c, 12, 65, 112
12, 10448, Control_c, 12, 11, 107
12, 10457, Control_c, 12, 11, 104
12, 10466, Control_c, 12, 11, 101
12, 10475, Control_c, 12, 11, 98
12, 10484, Control_c, 12, 11, 95
12, 10493, Control_c, 12, 11, 92
12, 10502, Control_c, 12, 11, 89
12, 10508, Note_on_c, 12, 65, 0
12, 10508, Note_on_c, 12, 57, 112
12, 10568, Note_on_c, 12, 57, 0
12, 10568, Note_on_c, 12, 65, 112
12, 10628, Note_on_c, 12, 65, 0
12, 10628, Note_on_c, 12, 57, 112
12, 10688, Note_on_c, 12, 57, 0
12, 10688, Note_on_c, 12, 65, 112
12, 10688, Control_c, 12, 11, 87
12, 10706, Control_c, 12, 11, 84
12, 10724, Control_c, 12, 11, 81
12, 10742, Control_c, 12, 11, 78
12, 10748, Note_on_c, 12, 65, 0
12, 10748, Note_on_c, 12, 57, 112
12, 10760, Control_c, 12, 11, 75
12, 10778, Control_c, 12, 11, 72
12, 10796, Control_c, 12, 11, 69
12, 10798, Note_on_c, 12, 57, 0
12, 10808, Note_on_c, 12, 57, 76
12, 10868, Note_on_c, 12, 57, 0
12, 10927, Program_c, 12, 45
12, 10928, Control_c, 12, 11, 100
12, 10928, Note_on_c, 12, 57, 49
12, 10988, Note_on_c, 12, 57, 0
12, 11168, Note_on_c, 12, 57, 47
12, 11288, Note_on_c, 12, 57, 0
12, 11288, Note_on_c, 12, 57, 45
12, 11408, Note_on_c, 12, 57, 0
12, 11528, Note_on_c, 12, 57, 43
12, 11648, Note_on_c, 12, 57, 0
12, 11648, Note_on_c, 12, 57, 41
12, 11768, Note_on_c, 12, 57, 0
12, 11888, Note_on_c, 12, 57, 39
12, 12008, Note_on_c, 12, 57, 0
12, 12008, Note_on_c, 12, 57, 37
12, 12127, Program_c, 12, 48
12, 12128, Note_on_c, 12, 57, 0
12, 12128, Note_on_c, 12, 53, 92
12, 12128, Control_c, 12, 11, 32
12, 12188, Note_on_c, 12, 53, 0
12, 12368, Note_on_c, 12, 53, 92
12, 12428, Note_on_c, 12, 53, 0
12, 12608, Note_on_c, 12, 53, 92
12, 12668, Note_on_c, 12, 53, 0
12, 12848, Note_on_c, 12, 58, 112
12, 12848, Control_c, 12, 11, 32
12, 12908, Note_on_c, 12, 58, 0
12, 12908, Note_on_c, 12, 53, 112
12, 12968, Note_on_c, 12, 53, 0
12, 12968, Note_on_c, 12, 57, 112
12, 13028, Note_on_c, 12, 57, 0
12, 13028, Note_on_c, 12, 53, 112
12, 13088, Note_on_c, 12, 53, 0
12, 13088, Note_on_c, 12, 57, 112
12, 13148, Note_on_c, 12, 57, 0
12, 13148, Note_on_c, 12, 53, 112
12, 13208, Note_on_c, 12, 53, 0
12, 13208, Note_on_c, 12, 57, 112
12, 13268, Note_on_c, 12, 57, 0
12, 13268, Note_on_c, 12, 53, 112
12, 13328, Note_on_c, 12, 53, 0
12, 13328, Note_on_c, 12, 58, 112
12, 13388, Note_on_c, 12, 58, 0
12, 13388, Note_on_c, 12, 53, 112
12, 13448, Note_on_c, 12, 53, 0
12, 13448, Note_on_c, 12, 58, 112
12, 13508, Note_on_c, 12, 58, 0
12, 13508, Note_on_c, 12, 53, 112
12, 13558, Note_on_c, 12, 53, 0
12, 13568, Note_on_c, 12, 62, 112
12, 13628, Note_on_c, 12, 62, 0
12, 13628, Note_on_c, 12, 60, 112
12, 13688, Note_on_c, 12, 60, 0
12, 13688, Note_on_c, 12, 58, 112
12, 13748, Note_on_c, 12, 58, 0
12, 13748, Note_on_c, 12, 58, 112
12, 13793, Note_on_c, 12, 58, 0
12, 13808, Note_on_c, 12, 58, 112
12, 13868, Note_on_c, 12, 58, 0
12, 13868, Note_on_c, 12, 55, 112
12, 13928, Note_on_c, 12, 55, 0
12, 13928, Note_on_c, 12, 58, 112
12, 13988, Note_on_c, 12, 58, 0
12, 13988, Note_on_c, 12, 55, 112
12, 14048, Note_on_c, 12, 55, 0
12, 14048, Note_on_c, 12, 60, 112
12, 14108, Note_on_c, 12, 60, 0
12, 14108, Note_on_c, 12, 57, 112
12, 14158, Note_on_c, 12, 57, 0
12, 14168, Note_on_c, 12, 57, 112
12, 14228, Note_on_c, 12, 57, 0
12, 14228, Note_on_c, 12, 53, 112
12, 14278, Note_on_c, 12, 53, 0
12, 14288, Note_on_c, 12, 57, 112
12, 14288, Control_c, 12, 11, 37
12, 14310, Control_c, 12, 11, 38
12, 14333, Control_c, 12, 11, 39
12, 14348, Note_on_c, 12, 57, 0
12, 14348, Note_on_c, 12, 53, 112
12, 14356, Control_c, 12, 11, 40
12, 14379, Control_c, 12, 11, 41
12, 14401, Control_c, 12, 11, 42
12, 14408, Note_on_c, 12, 53, 0
12, 14408, Note_on_c, 12, 58, 112
12, 14424, Control_c, 12, 11, 43
12, 14447, Control_c, 12, 11, 44
12, 14468, Note_on_c, 12, 58, 0
12, 14468, Note_on_c, 12, 55, 112
12, 14470, Control_c, 12, 11, 45
12, 14493, Control_c, 12, 11, 46
12, 14515, Control_c, 12, 11, 47
12, 14528, Note_on_c, 12, 55, 0
12, 14528, Note_on_c, 12, 58, 112
12, 14538, Control_c, 12, 11, 48
12, 14561, Control_c, 12, 11, 49
12, 14584, Control_c, 12, 11, 50
12, 14588, Note_on_c, 12, 58, 0
12, 14588, Note_on_c, 12, 55, 112
12, 14606, Control_c, 12, 11, 51
12, 14629, Control_c, 12, 11, 52
12, 14638, Note_on_c, 12, 55, 0
12, 14648, Note_on_c, 12, 60, 112
12, 14652, Control_c, 12, 11, 53
12, 14675, Control_c, 12, 11, 54
12, 14698, Control_c, 12, 11, 55
12, 14708, Note_on_c, 12, 60, 0
12, 14708, Note_on_c, 12, 55, 112
12, 14720, Control_c, 12, 11, 56
12, 14743, Control_c, 12, 11, 57
12, 14766, Control_c, 12, 11, 58
12, 14768, Note_on_c, 12, 55, 0
12, 14768, Note_on_c, 12, 60, 112
12, 14789, Control_c, 12, 11, 59
12, 14811, Control_c, 12, 11, 60
12, 14828, Note_on_c, 12, 60, 0
12, 14828, Note_on_c, 12, 57, 112
12, 14834, Control_c, 12, 11, 61
12, 14857, Control_c, 12, 11, 62
12, 14880, Control_c, 12, 11, 63
12, 14888, Note_on_c, 12, 57, 0
12, 14888, Note_on_c, 12, 60, 112
12, 14903, Control_c, 12, 11, 64
12, 14925, Control_c, 12, 11, 65
12, 14948, Note_on_c, 12, 60, 0
12, 14948, Note_on_c, 12, 57, 112
12, 14948, Control_c, 12, 11, 66
12, 14971, Control_c, 12, 11, 67
12, 14994, Control_c, 12, 11, 68
12, 15008, Note_on_c, 12, 57, 0
12, 15008, Note_on_c, 12, 60, 112
12, 15016, Control_c, 12, 11, 69
12, 15039, Control_c, 12, 11, 70
12, 15062, Control_c, 12, 11, 71
12, 15068, Note_on_c, 12, 60, 0
12, 15068, Note_on_c, 12, 57, 112
12, 15085, Control_c, 12, 11, 72
12, 15108, Control_c, 12, 11, 73
12, 15128, Note_on_c, 12, 57, 0
12, 15128, Note_on_c, 12, 58, 112
12, 15130, Control_c, 12, 11, 74
12, 15153, Control_c, 12, 11, 75
12, 15176, Control_c, 12, 11, 76
12, 15188, Note_on_c, 12, 58, 0
12, 15188, Note_on_c, 12, 48, 112
12, 15199, Control_c, 12, 11, 77
12, 15221, Control_c, 12, 11, 78
12, 15244, Control_c, 12, 11, 79
12, 15248, Note_on_c, 12, 48, 0
12, 15248, Note_on_c, 12, 62, 112
12, 15267, Control_c, 12, 11, 80
12, 15290, Control_c, 12, 11, 81
12, 15308, Note_on_c, 12, 62, 0
12, 15308, Note_on_c, 12, 60, 112
12, 15313, Control_c, 12, 11, 82
12, 15335, Control_c, 12, 11, 83
12, 15358, Control_c, 12, 11, 84
12, 15368, Note_on_c, 12, 60, 0
12, 15368, Note_on_c, 12, 58, 112
12, 15381, Control_c, 12, 11, 85
12, 15404, Control_c, 12, 11, 86
12, 15418, Note_on_c, 12, 58, 0
12, 15427, Control_c, 12, 11, 87
12, 15428, Note_on_c, 12, 56, 112
12, 15466, Note_on_c, 12, 56, 0
12, 15488, Control_c, 12, 11, 97
12, 15488, Note_on_c, 12, 56, 112
12, 15512, Control_c, 12, 11, 95
12, 15536, Control_c, 12, 11, 93
12, 15548, Note_on_c, 12, 56, 0
12, 15548, Note_on_c, 12, 48, 112
12, 15608, Note_on_c, 12, 48, 0
12, 15608, Note_on_c, 12, 55, 112
12, 15668, Note_on_c, 12, 55, 0
12, 15668, Note_on_c, 12, 53, 112
12, 15728, Note_on_c, 12, 53, 0
12, 15728, Note_on_c, 12, 55, 112
12, 15778, Note_on_c, 12, 55, 0
12, 15788, Note_on_c, 12, 55, 112
12, 15826, Note_on_c, 12, 55, 0
12, 15848, Note_on_c, 12, 55, 112
12, 15908, Note_on_c, 12, 55, 0
12, 15908, Note_on_c, 12, 60, 112
12, 15968, Note_on_c, 12, 60, 0
12, 15968, Note_on_c, 12, 60, 112
12, 16028, Note_on_c, 12, 60, 0
12, 16028, Note_on_c, 12, 58, 112
12, 16088, Note_on_c, 12, 58, 0
12, 16088, Note_on_c, 12, 60, 112
12, 16138, Note_on_c, 12, 60, 0
12, 16148, Control_c, 12, 11, 102
12, 16148, Note_on_c, 12, 60, 112
12, 16186, Note_on_c, 12, 60, 0
12, 16208, Note_on_c, 12, 60, 112
12, 16328, Note_on_c, 12, 60, 0
12, 16328, Note_on_c, 12, 62, 112
12, 16388, Note_on_c, 12, 62, 0
12, 16868, Note_on_c, 12, 67, 112
12, 16913, Note_on_c, 12, 67, 0
12, 16928, Note_on_c, 12, 67, 112
12, 17048, Note_on_c, 12, 67, 0
12, 17048, Note_on_c, 12, 65, 112
12, 17108, Note_on_c, 12, 65, 0
12, 17588, Note_on_c, 12, 69, 112
12, 17633, Note_on_c, 12, 69, 0
12, 17648, Note_on_c, 12, 70, 112
12, 17768, Note_on_c, 12, 70, 0
12, 17768, Note_on_c, 12, 69, 112
12, 17828, Note_on_c, 12, 69, 0
12, 18308, Note_on_c, 12, 69, 112
12, 18353, Note_on_c, 12, 69, 0
12, 18368, Note_on_c, 12, 70, 112
12, 18488, Note_on_c, 12, 70, 0
12, 18488, Note_on_c, 12, 69, 112
12, 18548, Note_on_c, 12, 69, 0
12, 18848, Note_on_c, 12, 67, 112
12, 18968, Note_on_c, 12, 67, 0
12, 18968, Note_on_c, 12, 65, 112
12, 19028, Note_on_c, 12, 65, 0
12, 19328, Note_on_c, 12, 55, 112
12, 19328, Control_c, 12, 11, 122
12, 19346, Control_c, 12, 11, 119
12, 19364, Control_c, 12, 11, 116
12, 19382, Control_c, 12, 11, 113
12, 19400, Control_c, 12, 11, 110
12, 19418, Control_c, 12, 11, 107
12, 19436, Control_c, 12, 11, 104
12, 19928, Note_on_c, 12, 55, 0
12, 19928, Note_on_c, 12, 53, 112
12, 19978, Note_on_c, 12, 53, 0
12, 19988, Note_on_c, 12, 60, 112
12, 19988, Control_c, 12, 11, 87
12, 20048, Note_on_c, 12, 60, 0
12, 20048, Note_on_c, 12, 60, 112
12, 20108, Note_on_c, 12, 60, 0
12, 20108, Note_on_c, 12, 64, 112
12, 20168, Note_on_c, 12, 64, 0
12, 20168, Note_on_c, 12, 62, 112
12, 20228, Note_on_c, 12, 62, 0
12, 20228, Note_on_c, 12, 62, 112
12, 20288, Note_on_c, 12, 62, 0
12, 20288, Note_on_c, 12, 65, 112
12, 20348, Note_on_c, 12, 65, 0
12, 20348, Note_on_c, 12, 59, 112
12, 20408, Note_on_c, 12, 59, 0
12, 20408, Note_on_c, 12, 65, 112
12, 20468, Note_on_c, 12, 65, 0
12, 20468, Note_on_c, 12, 59, 112
12, 20518, Note_on_c, 12, 59, 0
12, 20528, Note_on_c, 12, 64, 112
12, 20588, Note_on_c, 12, 64, 0
12, 20588, Note_on_c, 12, 60, 112
12, 20648, Note_on_c, 12, 60, 0
12, 20648, Note_on_c, 12, 64, 112
12, 20708, Note_on_c, 12, 64, 0
12, 20708, Note_on_c, 12, 60, 112
12, 20758, Note_on_c, 12, 60, 0
12, 20768, Note_on_c, 12, 60, 127
12, 20828, Note_on_c, 12, 60, 0
12, 20888, Control_c, 12, 11, 107
12, 20888, Note_on_c, 12, 65, 127
12, 20897, Control_c, 12, 11, 104
12, 20906, Control_c, 12, 11, 101
12, 20915, Control_c, 12, 11, 98
12, 20924, Control_c, 12, 11, 95
12, 20933, Control_c, 12, 11, 92
12, 20942, Control_c, 12, 11, 89
12, 21068, Note_on_c, 12, 65, 0
12, 21068, Note_on_c, 12, 62, 127
12, 21128, Note_on_c, 12, 62, 0
12, 21128, Note_on_c, 12, 59, 127
12, 21188, Note_on_c, 12, 59, 0
12, 21188, Note_on_c, 12, 55, 127
12, 21238, Note_on_c, 12, 55, 0
12, 21248, Note_on_c, 12, 60, 127
12, 21308, Note_on_c, 12, 60, 0
12, 21308, Note_on_c, 12, 52, 112
12, 21368, Note_on_c, 12, 52, 0
12, 21368, Note_on_c, 12, 60, 112
12, 21428, Note_on_c, 12, 60, 0
12, 21428, Note_on_c, 12, 52, 112
12, 21488, Note_on_c, 12, 52, 0
12, 21488, Note_on_c, 12, 55, 112
12, 21548, Note_on_c, 12, 55, 0
12, 21548, Note_on_c, 12, 52, 112
12, 21598, Note_on_c, 12, 52, 0
12, 21608, Control_c, 12, 11, 107
12, 21608, Note_on_c, 12, 50, 112
12, 21617, Control_c, 12, 11, 104
12, 21626, Control_c, 12, 11, 101
12, 21635, Control_c, 12, 11, 98
12, 21644, Control_c, 12, 11, 95
12, 21653, Control_c, 12, 11, 92
12, 21662, Control_c, 12, 11, 89
12, 21668, Note_on_c, 12, 50, 0
12, 21668, Note_on_c, 12, 59, 112
12, 21728, Note_on_c, 12, 59, 0
12, 21728, Note_on_c, 12, 62, 112
12, 21788, Note_on_c, 12, 62, 0
12, 21788, Note_on_c, 12, 59, 112
12, 21848, Note_on_c, 12, 59, 0
12, 21848, Note_on_c, 12, 62, 112
12, 21908, Note_on_c, 12, 62, 0
12, 21908, Note_on_c, 12, 59, 112
12, 21958, Note_on_c, 12, 59, 0
12, 21968, Control_c, 12, 11, 107
12, 21968, Note_on_c, 12, 64, 112
12, 21977, Control_c, 12, 11, 104
12, 21986, Control_c, 12, 11, 101
12, 21995, Control_c, 12, 11, 98
12, 22004, Control_c, 12, 11, 95
12, 22013, Control_c, 12, 11, 92
12, 22022, Control_c, 12, 11, 89
12, 22028, Note_on_c, 12, 64, 0
12, 22028, Note_on_c, 12, 60, 112
12, 22088, Note_on_c, 12, 60, 0
12, 22088, Note_on_c, 12, 64, 112
12, 22148, Note_on_c, 12, 64, 0
12, 22148, Note_on_c, 12, 60, 112
12, 22208, Note_on_c, 12, 60, 0
12, 22208, Note_on_c, 12, 64, 112
12, 22268, Note_on_c, 12, 64, 0
12, 22268, Note_on_c, 12, 60, 112
12, 22318, Note_on_c, 12, 60, 0
12, 22328, Note_on_c, 12, 58, 112
12, 22328, Control_c, 12, 11, 107
12, 22337, Control_c, 12, 11, 104
12, 22346, Control_c, 12, 11, 101
12, 22355, Control_c, 12, 11, 98
12, 22364, Control_c, 12, 11, 95
12, 22373, Control_c, 12, 11, 92
12, 22382, Control_c, 12, 11, 89
12, 22388, Note_on_c, 12, 58, 0
12, 22388, Note_on_c, 12, 55, 112
12, 22448, Note_on_c, 12, 55, 0
12, 22448, Note_on_c, 12, 58, 112
12, 22508, Note_on_c, 12, 58, 0
12, 22508, Note_on_c, 12, 55, 112
12, 22568, Note_on_c, 12, 55, 0
12, 22568, Note_on_c, 12, 58, 112
12, 22628, Note_on_c, 12, 58, 0
12, 22628, Note_on_c, 12, 67, 112
12, 22678, Note_on_c, 12, 67, 0
12, 22688, Control_c, 12, 11, 107
12, 22688, Note_on_c, 12, 65, 112
12, 22697, Control_c, 12, 11, 104
12, 22706, Control_c, 12, 11, 101
12, 22715, Control_c, 12, 11, 98
12, 22724, Control_c, 12, 11, 95
12, 22733, Control_c, 12, 11, 92
12, 22742, Control_c, 12, 11, 89
12, 22748, Note_on_c, 12, 65, 0
12, 22748, Note_on_c, 12, 57, 112
12, 22808, Note_on_c, 12, 57, 0
12, 22808, Note_on_c, 12, 65, 112
12, 22868, Note_on_c, 12, 65, 0
12, 22868, Note_on_c, 12, 57, 112
12, 22928, Note_on_c, 12, 57, 0
12, 22928, Control_c, 12, 11, 87
12, 22928, Note_on_c, 12, 65, 112
12, 22946, Control_c, 12, 11, 84
12, 22964, Control_c, 12, 11, 81
12, 22982, Control_c, 12, 11, 78
12, 22988, Note_on_c, 12, 65, 0
12, 22988, Note_on_c, 12, 57, 112
12, 23000, Control_c, 12, 11, 75
12, 23018, Control_c, 12, 11, 72
12, 23036, Control_c, 12, 11, 69
12, 23038, Note_on_c, 12, 57, 0
12, 23048, Note_on_c, 12, 57, 76
12, 23108, Note_on_c, 12, 57, 0
12, 23167, Program_c, 12, 45
12, 23168, Control_c, 12, 11, 100
12, 23168, Note_on_c, 12, 57, 49
12, 23228, Note_on_c, 12, 57, 0
12, 23408, Note_on_c, 12, 57, 47
12, 23528, Note_on_c, 12, 57, 0
12, 23528, Note_on_c, 12, 57, 45
12, 23648, Note_on_c, 12, 57, 0
12, 23768, Note_on_c, 12, 57, 43
12, 23888, Note_on_c, 12, 57, 0
12, 23888, Note_on_c, 12, 57, 41
12, 24008, Note_on_c, 12, 57, 0
12, 24128, Note_on_c, 12, 57, 39
12, 24248, Note_on_c, 12, 57, 0
12, 24248, Note_on_c, 12, 57, 37
12, 24367, Program_c, 12, 48
12, 24368, Note_on_c, 12, 57, 0
12, 24368, Note_on_c, 12, 53, 92
12, 24368, Control_c, 12, 11, 32
12, 24428, Note_on_c, 12, 53, 0
12, 24608, Note_on_c, 12, 53, 92
12, 24668, Note_on_c, 12, 53, 0
12, 24848, Note_on_c, 12, 53, 92
12, 24908, Note_on_c, 12, 53, 0
12, 25088, Control_c, 12, 11, 32
12, 25088, Note_on_c, 12, 58, 112
12, 25148, Note_on_c, 12, 58, 0
12, 25148, Note_on_c, 12, 53, 112
12, 25208, Note_on_c, 12, 53, 0
12, 25208, Note_on_c, 12, 57, 112
12, 25268, Note_on_c, 12, 57, 0
12, 25268, Note_on_c, 12, 53, 112
12, 25328, Note_on_c, 12, 53, 0
12, 25328, Note_on_c, 12, 57, 112
12, 25388, Note_on_c, 12, 57, 0
12, 25388, Note_on_c, 12, 53, 112
12, 25448, Note_on_c, 12, 53, 0
12, 25448, Note_on_c, 12, 57, 112
12, 25508, Note_on_c, 12, 57, 0
12, 25508, Note_on_c, 12, 53, 112
12, 25568, Note_on_c, 12, 53, 0
12, 25568, Note_on_c, 12, 58, 112
12, 25628, Note_on_c, 12, 58, 0
12, 25628, Note_on_c, 12, 53, 112
12, 25688, Note_on_c, 12, 53, 0
12, 25688, Note_on_c, 12, 58, 112
12, 25748, Note_on_c, 12, 58, 0
12, 25748, Note_on_c, 12, 53, 112
12, 25798, Note_on_c, 12, 53, 0
12, 25808, Note_on_c, 12, 62, 112
12, 25868, Note_on_c, 12, 62, 0
12, 25868, Note_on_c, 12, 60, 112
12, 25928, Note_on_c, 12, 60, 0
12, 25928, Note_on_c, 12, 58, 112
12, 25988, Note_on_c, 12, 58, 0
12, 25988, Note_on_c, 12, 58, 112
12, 26033, Note_on_c, 12, 58, 0
12, 26048, Note_on_c, 12, 58, 112
12, 26108, Note_on_c, 12, 58, 0
12, 26108, Note_on_c, 12, 55, 112
12, 26168, Note_on_c, 12, 55, 0
12, 26168, Note_on_c, 12, 58, 112
12, 26228, Note_on_c, 12, 58, 0
12, 26228, Note_on_c, 12, 55, 112
12, 26288, Note_on_c, 12, 55, 0
12, 26288, Note_on_c, 12, 60, 112
12, 26348, Note_on_c, 12, 60, 0
12, 26348, Note_on_c, 12, 57, 112
12, 26398, Note_on_c, 12, 57, 0
12, 26408, Note_on_c, 12, 57, 112
12, 26468, Note_on_c, 12, 57, 0
12, 26468, Note_on_c, 12, 53, 112
12, 26518, Note_on_c, 12, 53, 0
12, 26528, Control_c, 12, 11, 37
12, 26528, Note_on_c, 12, 57, 112
12, 26550, Control_c, 12, 11, 38
12, 26573, Control_c, 12, 11, 39
12, 26588, Note_on_c, 12, 57, 0
12, 26588, Note_on_c, 12, 53, 112
12, 26596, Control_c, 12, 11, 40
12, 26619, Control_c, 12, 11, 41
12, 26641, Control_c, 12, 11, 42
12, 26648, Note_on_c, 12, 53, 0
12, 26648, Note_on_c, 12, 58, 112
12, 26664, Control_c, 12, 11, 43
12, 26687, Control_c, 12, 11, 44
12, 26708, Note_on_c, 12, 58, 0
12, 26708, Note_on_c, 12, 55, 112
12, 26710, Control_c, 12, 11, 45
12, 26733, Control_c, 12, 11, 46
12, 26755, Control_c, 12, 11, 47
12, 26768, Note_on_c, 12, 55, 0
12, 26768, Note_on_c, 12, 58, 112
12, 26778, Control_c, 12, 11, 48
12, 26801, Control_c, 12, 11, 49
12, 26824, Control_c, 12, 11, 50
12, 26828, Note_on_c, 12, 58, 0
12, 26828, Note_on_c, 12, 55, 112
12, 26846, Control_c, 12, 11, 51
12, 26869, Control_c, 12, 11, 52
12, 26878, Note_on_c, 12, 55, 0
12, 26888, Note_on_c, 12, 60, 112
12, 26892, Control_c, 12, 11, 53
12, 26915, Control_c, 12, 11, 54
12, 26938, Control_c, 12, 11, 55
12, 26948, Note_on_c, 12, 60, 0
12, 26948, Note_on_c, 12, 55, 112
12, 26960, Control_c, 12, 11, 56
12, 26983, Control_c, 12, 11, 57
12, 27006, Control_c, 12, 11, 58
12, 27008, Note_on_c, 12, 55, 0
12, 27008, Note_on_c, 12, 60, 112
12, 27029, Control_c, 12, 11, 59
12, 27051, Control_c, 12, 11, 60
12, 27068, Note_on_c, 12, 60, 0
12, 27068, Note_on_c, 12, 57, 112
12, 27074, Control_c, 12, 11, 61
12, 27097, Control_c, 12, 11, 62
12, 27120, Control_c, 12, 11, 63
12, 27128, Note_on_c, 12, 57, 0
12, 27128, Note_on_c, 12, 60, 112
12, 27143, Control_c, 12, 11, 64
12, 27165, Control_c, 12, 11, 65
12, 27188, Note_on_c, 12, 60, 0
12, 27188, Note_on_c, 12, 57, 112
12, 27188, Control_c, 12, 11, 66
12, 27211, Control_c, 12, 11, 67
12, 27234, Control_c, 12, 11, 68
12, 27248, Note_on_c, 12, 57, 0
12, 27248, Note_on_c, 12, 60, 112
12, 27256, Control_c, 12, 11, 69
12, 27279, Control_c, 12, 11, 70
12, 27302, Control_c, 12, 11, 71
12, 27308, Note_on_c, 12, 60, 0
12, 27308, Note_on_c, 12, 57, 112
12, 27325, Control_c, 12, 11, 72
12, 27348, Control_c, 12, 11, 73
12, 27368, Note_on_c, 12, 57, 0
12, 27368, Note_on_c, 12, 58, 112
12, 27370, Control_c, 12, 11, 74
12, 27393, Control_c, 12, 11, 75
12, 27416, Control_c, 12, 11, 76
12, 27428, Note_on_c, 12, 58, 0
12, 27428, Note_on_c, 12, 48, 112
12, 27439, Control_c, 12, 11, 77
12, 27461, Control_c, 12, 11, 78
12, 27484, Control_c, 12, 11, 79
12, 27488, Note_on_c, 12, 48, 0
12, 27488, Note_on_c, 12, 62, 112
12, 27507, Control_c, 12, 11, 80
12, 27530, Control_c, 12, 11, 81
12, 27548, Note_on_c, 12, 62, 0
12, 27548, Note_on_c, 12, 60, 112
12, 27553, Control_c, 12, 11, 82
12, 27575, Control_c, 12, 11, 83
12, 27598, Control_c, 12, 11, 84
12, 27608, Note_on_c, 12, 60, 0
12, 27608, Note_on_c, 12, 58, 112
12, 27621, Control_c, 12, 11, 85
12, 27644, Control_c, 12, 11, 86
12, 27658, Note_on_c, 12, 58, 0
12, 27667, Control_c, 12, 11, 87
12, 27668, Note_on_c, 12, 56, 112
12, 27706, Note_on_c, 12, 56, 0
12, 27728, Note_on_c, 12, 56, 112
12, 27728, Control_c, 12, 11, 97
12, 27752, Control_c, 12, 11, 95
12, 27776, Control_c, 12, 11, 93
12, 27788, Note_on_c, 12, 56, 0
12, 27788, Note_on_c, 12, 48, 112
12, 27848, Note_on_c, 12, 48, 0
12, 27848, Note_on_c, 12, 55, 112
12, 27908, Note_on_c, 12, 55, 0
12, 27908, Note_on_c, 12, 53, 112
12, 27968, Note_on_c, 12, 53, 0
12, 27968, Note_on_c, 12, 55, 112
12, 28018, Note_on_c, 12, 55, 0
12, 28028, Note_on_c, 12, 55, 112
12, 28060, Note_on_c, 12, 55, 0
12, 28088, Note_on_c, 12, 55, 112
12, 28148, Note_on_c, 12, 55, 0
12, 28148, Note_on_c, 12, 60, 112
12, 28208, Note_on_c, 12, 60, 0
12, 28208, Note_on_c, 12, 60, 112
12, 28268, Note_on_c, 12, 60, 0
12, 28268, Note_on_c, 12, 58, 112
12, 28328, Note_on_c, 12, 58, 0
12, 28328, Note_on_c, 12, 60, 112
12, 28378, Note_on_c, 12, 60, 0
12, 28388, Control_c, 12, 11, 102
12, 28388, Note_on_c, 12, 60, 112
12, 28426, Note_on_c, 12, 60, 0
12, 28448, Note_on_c, 12, 60, 112
12, 28568, Note_on_c, 12, 60, 0
12, 28568, Note_on_c, 12, 62, 112
12, 28628, Note_on_c, 12, 62, 0
12, 29108, Note_on_c, 12, 67, 112
12, 29153, Note_on_c, 12, 67, 0
12, 29168, Note_on_c, 12, 67, 112
12, 29288, Note_on_c, 12, 67, 0
12, 29288, Note_on_c, 12, 65, 112
12, 29348, Note_on_c, 12, 65, 0
12, 29828, Note_on_c, 12, 69, 112
12, 29873, Note_on_c, 12, 69, 0
12, 29888, Note_on_c, 12, 70, 112
12, 30008, Note_on_c, 12, 70, 0
12, 30008, Note_on_c, 12, 69, 112
12, 30068, Note_on_c, 12, 69, 0
12, 30548, Note_on_c, 12, 69, 112
12, 30593, Note_on_c, 12, 69, 0
12, 30608, Note_on_c, 12, 70, 112
12, 30728, Note_on_c, 12, 70, 0
12, 30728, Note_on_c, 12, 69, 112
12, 30788, Note_on_c, 12, 69, 0
12, 31088, Note_on_c, 12, 67, 112
12, 31208, Note_on_c, 12, 67, 0
12, 31208, Note_on_c, 12, 65, 112
12, 31268, Note_on_c, 12, 65, 0
12, 31568, Control_c, 12, 11, 122
12, 31568, Note_on_c, 12, 55, 112
12, 31586, Control_c, 12, 11, 119
12, 31604, Control_c, 12, 11, 116
12, 31622, Control_c, 12, 11, 113
12, 31640, Control_c, 12, 11, 110
12, 31658, Control_c, 12, 11, 107
12, 31676, Control_c, 12, 11, 104
12, 32168, Note_on_c, 12, 55, 0
12, 32168, Note_on_c, 12, 53, 112
12, 32228, Note_on_c, 12, 53, 0
12, 32228, Control_c, 12, 11, 87
12, 37988, Control_c, 12, 11, 37
12, 37988, Note_on_c, 12, 55, 112
12, 38006, Control_c, 12, 11, 40
12, 38024, Control_c, 12, 11, 43
12, 38030, Note_on_c, 12, 55, 0
12, 38042, Control_c, 12, 11, 46
12, 38048, Note_on_c, 12, 57, 112
12, 38090, Note_on_c, 12, 57, 0
12, 38108, Note_on_c, 12, 59, 112
12, 38150, Note_on_c, 12, 59, 0
12, 38168, Note_on_c, 12, 52, 112
12, 38168, Note_on_c, 12, 60, 112
12, 38348, Note_on_c, 12, 60, 0
12, 38348, Note_on_c, 12, 52, 0
12, 38348, Note_on_c, 12, 55, 112
12, 38348, Note_on_c, 12, 62, 112
12, 38408, Note_on_c, 12, 62, 0
12, 38408, Note_on_c, 12, 55, 0
12, 38408, Note_on_c, 12, 64, 112
12, 38408, Note_on_c, 12, 60, 112
12, 38523, Note_on_c, 12, 60, 0
12, 38523, Note_on_c, 12, 64, 0
12, 38528, Note_on_c, 12, 60, 112
12, 38528, Note_on_c, 12, 64, 112
12, 38708, Note_on_c, 12, 64, 0
12, 38708, Note_on_c, 12, 60, 0
12, 38708, Note_on_c, 12, 62, 112
12, 38708, Note_on_c, 12, 55, 112
12, 38768, Note_on_c, 12, 55, 0
12, 38768, Note_on_c, 12, 62, 0
12, 38768, Note_on_c, 12, 52, 112
12, 38768, Note_on_c, 12, 60, 112
12, 38883, Note_on_c, 12, 60, 0
12, 38883, Note_on_c, 12, 52, 0
12, 38888, Note_on_c, 12, 51, 112
12, 38888, Note_on_c, 12, 60, 112
12, 39068, Note_on_c, 12, 60, 0
12, 39068, Note_on_c, 12, 51, 0
12, 39068, Note_on_c, 12, 62, 112
12, 39068, Note_on_c, 12, 55, 112
12, 39128, Note_on_c, 12, 55, 0
12, 39128, Note_on_c, 12, 62, 0
12, 39128, Note_on_c, 12, 60, 112
12, 39128, Note_on_c, 12, 63, 112
12, 39243, Note_on_c, 12, 63, 0
12, 39243, Note_on_c, 12, 60, 0
12, 39248, Note_on_c, 12, 60, 112
12, 39248, Note_on_c, 12, 63, 112
12, 39428, Note_on_c, 12, 63, 0
12, 39428, Note_on_c, 12, 60, 0
12, 39428, Note_on_c, 12, 62, 112
12, 39428, Note_on_c, 12, 55, 112
12, 39488, Note_on_c, 12, 55, 0
12, 39488, Note_on_c, 12, 62, 0
12, 39488, Note_on_c, 12, 51, 112
12, 39488, Note_on_c, 12, 60, 112
12, 39603, Note_on_c, 12, 60, 0
12, 39603, Note_on_c, 12, 51, 0
12, 39608, Control_c, 12, 11, 47
12, 39608, Note_on_c, 12, 60, 112
12, 39608, Note_on_c, 12, 56, 112
12, 39635, Control_c, 12, 11, 48
12, 39662, Control_c, 12, 11, 49
12, 39689, Control_c, 12, 11, 50
12, 39716, Control_c, 12, 11, 51
12, 39743, Control_c, 12, 11, 52
12, 39770, Control_c, 12, 11, 53
12, 39788, Note_on_c, 12, 56, 0
12, 39788, Note_on_c, 12, 60, 0
12, 39788, Note_on_c, 12, 61, 112
12, 39788, Note_on_c, 12, 58, 112
12, 39797, Control_c, 12, 11, 54
12, 39824, Control_c, 12, 11, 55
12, 39848, Note_on_c, 12, 58, 0
12, 39848, Note_on_c, 12, 61, 0
12, 39848, Note_on_c, 12, 60, 112
12, 39848, Note_on_c, 12, 63, 112
12, 39851, Control_c, 12, 11, 56
12, 39878, Control_c, 12, 11, 57
12, 39905, Control_c, 12, 11, 58
12, 39932, Control_c, 12, 11, 59
12, 39959, Control_c, 12, 11, 60
12, 39963, Note_on_c, 12, 63, 0
12, 39963, Note_on_c, 12, 60, 0
12, 39968, Note_on_c, 12, 60, 112
12, 39968, Note_on_c, 12, 63, 112
12, 39986, Control_c, 12, 11, 61
12, 40013, Control_c, 12, 11, 62
12, 40040, Control_c, 12, 11, 63
12, 40067, Control_c, 12, 11, 64
12, 40088, Note_on_c, 12, 63, 0
12, 40088, Note_on_c, 12, 60, 0
12, 40088, Note_on_c, 12, 61, 112
12, 40088, Note_on_c, 12, 65, 112
12, 40094, Control_c, 12, 11, 65
12, 40121, Control_c, 12, 11, 66
12, 40148, Control_c, 12, 11, 67
12, 40175, Control_c, 12, 11, 68
12, 40202, Control_c, 12, 11, 69
12, 40208, Note_on_c, 12, 65, 0
12, 40208, Note_on_c, 12, 61, 0
12, 40208, Note_on_c, 12, 61, 112
12, 40208, Note_on_c, 12, 58, 112
12, 40229, Control_c, 12, 11, 70
12, 40256, Control_c, 12, 11, 71
12, 40283, Control_c, 12, 11, 72
12, 40310, Control_c, 12, 11, 73
12, 40323, Note_on_c, 12, 58, 0
12, 40323, Note_on_c, 12, 61, 0
12, 40328, Note_on_c, 12, 56, 112
12, 40328, Note_on_c, 12, 60, 112
12, 40337, Control_c, 12, 11, 74
12, 40364, Control_c, 12, 11, 75
12, 40391, Control_c, 12, 11, 76
12, 40418, Control_c, 12, 11, 77
12, 40445, Control_c, 12, 11, 78
12, 40472, Control_c, 12, 11, 79
12, 40499, Control_c, 12, 11, 80
12, 40526, Control_c, 12, 11, 81
12, 40553, Control_c, 12, 11, 82
12, 40568, Note_on_c, 12, 60, 0
12, 40568, Note_on_c, 12, 56, 0
12, 40568, Note_on_c, 12, 58, 112
12, 40568, Note_on_c, 12, 55, 112
12, 40580, Control_c, 12, 11, 83
12, 40607, Control_c, 12, 11, 84
12, 40634, Control_c, 12, 11, 85
12, 40661, Control_c, 12, 11, 86
12, 40683, Note_on_c, 12, 55, 0
12, 40683, Note_on_c, 12, 58, 0
12, 40688, Control_c, 12, 11, 87
12, 40688, Note_on_c, 12, 48, 112
12, 40688, Note_on_c, 12, 60, 112
12, 40988, Control_c, 12, 11, 87
12, 40997, Control_c, 12, 11, 84
12, 41006, Control_c, 12, 11, 81
12, 41015, Control_c, 12, 11, 78
12, 41024, Control_c, 12, 11, 75
12, 41033, Control_c, 12, 11, 72
12, 41042, Control_c, 12, 11, 69
12, 41043, Note_on_c, 12, 60, 0
12, 41043, Note_on_c, 12, 48, 0
12, 41048, Note_on_c, 12, 57, 92
12, 41048, Note_on_c, 12, 48, 92
12, 41054, Control_c, 12, 11, 66
12, 41072, Control_c, 12, 11, 63
12, 41090, Control_c, 12, 11, 60
12, 41108, Control_c, 12, 11, 57
12, 41126, Control_c, 12, 11, 54
12, 41144, Control_c, 12, 11, 51
12, 41162, Control_c, 12, 11, 48
12, 41168, Note_on_c, 12, 48, 0
12, 41168, Note_on_c, 12, 57, 0
12, 47408, Control_c, 12, 11, 67
12, 47408, Note_on_c, 12, 53, 97
12, 47414, Control_c, 12, 11, 70
12, 47421, Control_c, 12, 11, 73
12, 47428, Control_c, 12, 11, 76
12, 47435, Control_c, 12, 11, 79
12, 47441, Control_c, 12, 11, 82
12, 47448, Control_c, 12, 11, 85
12, 47468, Note_on_c, 12, 53, 0
12, 47468, Note_on_c, 12, 48, 97
12, 47518, Note_on_c, 12, 48, 0
12, 47528, Control_c, 12, 11, 107
12, 47528, Note_on_c, 12, 53, 97
12, 47537, Control_c, 12, 11, 104
12, 47546, Control_c, 12, 11, 101
12, 47555, Control_c, 12, 11, 98
12, 47564, Control_c, 12, 11, 95
12, 47573, Control_c, 12, 11, 92
12, 47582, Control_c, 12, 11, 89
12, 47588, Note_on_c, 12, 53, 0
12, 47588, Note_on_c, 12, 48, 97
12, 47648, Note_on_c, 12, 48, 0
12, 47648, Note_on_c, 12, 53, 97
12, 47648, Control_c, 12, 11, 107
12, 47657, Control_c, 12, 11, 104
12, 47666, Control_c, 12, 11, 101
12, 47675, Control_c, 12, 11, 98
12, 47684, Control_c, 12, 11, 95
12, 47693, Control_c, 12, 11, 92
12, 47702, Control_c, 12, 11, 89
12, 47708, Note_on_c, 12, 53, 0
12, 47708, Note_on_c, 12, 48, 97
12, 47758, Note_on_c, 12, 48, 0
12, 47768, Control_c, 12, 11, 107
12, 47768, Note_on_c, 12, 57, 97
12, 47777, Control_c, 12, 11, 104
12, 47786, Control_c, 12, 11, 101
12, 47795, Control_c, 12, 11, 98
12, 47804, Control_c, 12, 11, 95
12, 47813, Control_c, 12, 11, 92
12, 47822, Control_c, 12, 11, 89
12, 47828, Note_on_c, 12, 57, 0
12, 47828, Note_on_c, 12, 53, 97
12, 47878, Note_on_c, 12, 53, 0
12, 47888, Note_on_c, 12, 57, 97
12, 47888, Control_c, 12, 11, 102
12, 47895, Control_c, 12, 11, 99
12, 47902, Control_c, 12, 11, 96
12, 47909, Control_c, 12, 11, 93
12, 47916, Control_c, 12, 11, 90
12, 47924, Control_c, 12, 11, 87
12, 47931, Control_c, 12, 11, 84
12, 47938, Control_c, 12, 11, 81
12, 47945, Control_c, 12, 11, 78
12, 47948, Note_on_c, 12, 57, 0
12, 47948, Note_on_c, 12, 53, 97
12, 48008, Note_on_c, 12, 53, 0
12, 48008, Control_c, 12, 11, 92
12, 48008, Note_on_c, 12, 57, 88
12, 48017, Control_c, 12, 11, 89
12, 48026, Control_c, 12, 11, 86
12, 48035, Control_c, 12, 11, 83
12, 48044, Control_c, 12, 11, 80
12, 48053, Control_c, 12, 11, 77
12, 48062, Control_c, 12, 11, 74
12, 48068, Note_on_c, 12, 57, 0
12, 48068, Note_on_c, 12, 53, 80
12, 48118, Note_on_c, 12, 53, 0
12, 48128, Control_c, 12, 11, 42
12, 48128, Note_on_c, 12, 57, 112
12, 48188, Note_on_c, 12, 57, 0
12, 48188, Note_on_c, 12, 53, 112
12, 48248, Note_on_c, 12, 53, 0
12, 48248, Note_on_c, 12, 58, 112
12, 48308, Note_on_c, 12, 58, 0
12, 48308, Note_on_c, 12, 55, 112
12, 48368, Note_on_c, 12, 55, 0
12, 48368, Note_on_c, 12, 58, 112
12, 48428, Note_on_c, 12, 58, 0
12, 48428, Note_on_c, 12, 55, 112
12, 48488, Note_on_c, 12, 55, 0
12, 48488, Note_on_c, 12, 58, 112
12, 48548, Note_on_c, 12, 58, 0
12, 48548, Note_on_c, 12, 55, 112
12, 48598, Note_on_c, 12, 55, 0
12, 48608, Note_on_c, 12, 60, 112
12, 48668, Note_on_c, 12, 60, 0
12, 48668, Note_on_c, 12, 57, 112
12, 48728, Note_on_c, 12, 57, 0
12, 48728, Note_on_c, 12, 60, 112
12, 48788, Note_on_c, 12, 60, 0
12, 48788, Note_on_c, 12, 57, 112
12, 48838, Note_on_c, 12, 57, 0
12, 48848, Control_c, 12, 11, 42
12, 48848, Note_on_c, 12, 57, 112
12, 48864, Control_c, 12, 11, 43
12, 48880, Control_c, 12, 11, 44
12, 48896, Control_c, 12, 11, 45
12, 48908, Note_on_c, 12, 57, 0
12, 48908, Note_on_c, 12, 48, 112
12, 48912, Control_c, 12, 11, 46
12, 48928, Control_c, 12, 11, 47
12, 48944, Control_c, 12, 11, 48
12, 48960, Control_c, 12, 11, 49
12, 48968, Note_on_c, 12, 48, 0
12, 48968, Note_on_c, 12, 58, 112
12, 48976, Control_c, 12, 11, 50
12, 48992, Control_c, 12, 11, 51
12, 49008, Control_c, 12, 11, 52
12, 49024, Control_c, 12, 11, 53
12, 49028, Note_on_c, 12, 58, 0
12, 49028, Note_on_c, 12, 48, 112
12, 49040, Control_c, 12, 11, 54
12, 49056, Control_c, 12, 11, 55
12, 49072, Control_c, 12, 11, 56
12, 49088, Note_on_c, 12, 48, 0
12, 49088, Control_c, 12, 11, 57
12, 49088, Note_on_c, 12, 58, 112
12, 49104, Control_c, 12, 11, 58
12, 49120, Control_c, 12, 11, 59
12, 49136, Control_c, 12, 11, 60
12, 49148, Note_on_c, 12, 58, 0
12, 49148, Note_on_c, 12, 57, 112
12, 49152, Control_c, 12, 11, 61
12, 49168, Control_c, 12, 11, 62
12, 49184, Control_c, 12, 11, 63
12, 49200, Control_c, 12, 11, 64
12, 49208, Note_on_c, 12, 57, 0
12, 49208, Note_on_c, 12, 55, 112
12, 49216, Control_c, 12, 11, 65
12, 49232, Control_c, 12, 11, 66
12, 49248, Control_c, 12, 11, 67
12, 49264, Control_c, 12, 11, 68
12, 49268, Note_on_c, 12, 55, 0
12, 49268, Note_on_c, 12, 53, 112
12, 49280, Control_c, 12, 11, 69
12, 49296, Control_c, 12, 11, 70
12, 49312, Control_c, 12, 11, 71
12, 49328, Note_on_c, 12, 53, 0
12, 49328, Control_c, 12, 11, 72
12, 49328, Note_on_c, 12, 55, 112
12, 49344, Control_c, 12, 11, 73
12, 49360, Control_c, 12, 11, 74
12, 49376, Control_c, 12, 11, 75
12, 49388, Note_on_c, 12, 55, 0
12, 49388, Note_on_c, 12, 53, 112
12, 49392, Control_c, 12, 11, 76
12, 49408, Control_c, 12, 11, 77
12, 49424, Control_c, 12, 11, 78
12, 49440, Control_c, 12, 11, 79
12, 49448, Note_on_c, 12, 53, 0
12, 49448, Note_on_c, 12, 52, 112
12, 49456, Control_c, 12, 11, 80
12, 49472, Control_c, 12, 11, 81
12, 49488, Control_c, 12, 11, 82
12, 49504, Control_c, 12, 11, 83
12, 49508, Note_on_c, 12, 52, 0
12, 49508, Note_on_c, 12, 58, 112
12, 49520, Control_c, 12, 11, 84
12, 49536, Control_c, 12, 11, 85
12, 49552, Control_c, 12, 11, 86
12, 49558, Note_on_c, 12, 58, 0
12, 49568, Control_c, 12, 11, 87
12, 49568, Note_on_c, 12, 57, 112
12, 49628, Note_on_c, 12, 57, 0
12, 49628, Note_on_c, 12, 53, 112
12, 49678, Note_on_c, 12, 53, 0
12, 49688, Note_on_c, 12, 58, 112
12, 49748, Note_on_c, 12, 58, 0
12, 49748, Note_on_c, 12, 55, 112
12, 49808, Note_on_c, 12, 55, 0
12, 49808, Note_on_c, 12, 58, 112
12, 49868, Note_on_c, 12, 58, 0
12, 49868, Note_on_c, 12, 55, 112
12, 49928, Note_on_c, 12, 55, 0
12, 49928, Note_on_c, 12, 58, 112
12, 49988, Note_on_c, 12, 58, 0
12, 49988, Note_on_c, 12, 55, 112
12, 50038, Note_on_c, 12, 55, 0
12, 50048, Note_on_c, 12, 60, 112
12, 50108, Note_on_c, 12, 60, 0
12, 50108, Note_on_c, 12, 57, 112
12, 50168, Note_on_c, 12, 57, 0
12, 50168, Note_on_c, 12, 60, 112
12, 50228, Note_on_c, 12, 60, 0
12, 50228, Note_on_c, 12, 57, 112
12, 50278, Note_on_c, 12, 57, 0
12, 50288, Note_on_c, 12, 65, 112
12, 50348, Note_on_c, 12, 65, 0
12, 50348, Note_on_c, 12, 53, 112
12, 50398, Note_on_c, 12, 53, 0
12, 50408, Note_on_c, 12, 53, 112
12, 50468, Note_on_c, 12, 53, 0
12, 50468, Note_on_c, 12, 54, 112
12, 50528, Note_on_c, 12, 54, 0
12, 50528, Note_on_c, 12, 55, 112
12, 50588, Note_on_c, 12, 55, 0
12, 50588, Note_on_c, 12, 57, 112
12, 50648, Note_on_c, 12, 57, 0
12, 50648, Note_on_c, 12, 58, 112
12, 50698, Note_on_c, 12, 58, 0
12, 50708, Note_on_c, 12, 55, 112
12, 50758, Note_on_c, 12, 55, 0
12, 50768, Note_on_c, 12, 55, 112
12, 50888, Note_on_c, 12, 55, 0
12, 50888, Note_on_c, 12, 53, 112
12, 50948, Note_on_c, 12, 53, 0
12, 50948, Note_on_c, 12, 60, 112
12, 51003, Note_on_c, 12, 60, 0
12, 51008, Note_on_c, 12, 60, 112
12, 51068, Note_on_c, 12, 60, 0
12, 51068, Note_on_c, 12, 64, 112
12, 51128, Note_on_c, 12, 64, 0
12, 51128, Note_on_c, 12, 62, 112
12, 51188, Note_on_c, 12, 62, 0
12, 51188, Note_on_c, 12, 62, 112
12, 51248, Note_on_c, 12, 62, 0
12, 51248, Note_on_c, 12, 65, 112
12, 51308, Note_on_c, 12, 65, 0
12, 51308, Note_on_c, 12, 59, 112
12, 51368, Note_on_c, 12, 59, 0
12, 51368, Note_on_c, 12, 65, 112
12, 51428, Note_on_c, 12, 65, 0
12, 51428, Note_on_c, 12, 59, 112
12, 51478, Note_on_c, 12, 59, 0
12, 51488, Note_on_c, 12, 64, 112
12, 51548, Note_on_c, 12, 64, 0
12, 51548, Note_on_c, 12, 60, 112
12, 51608, Note_on_c, 12, 60, 0
12, 51608, Note_on_c, 12, 64, 112
12, 51668, Note_on_c, 12, 64, 0
12, 51668, Note_on_c, 12, 60, 112
12, 51718, Note_on_c, 12, 60, 0
12, 51728, Note_on_c, 12, 60, 127
12, 51788, Note_on_c, 12, 60, 0
12, 51848, Note_on_c, 12, 65, 127
12, 51848, Control_c, 12, 11, 107
12, 51857, Control_c, 12, 11, 104
12, 51866, Control_c, 12, 11, 101
12, 51875, Control_c, 12, 11, 98
12, 51884, Control_c, 12, 11, 95
12, 51893, Control_c, 12, 11, 92
12, 51902, Control_c, 12, 11, 89
12, 52028, Note_on_c, 12, 65, 0
12, 52028, Note_on_c, 12, 62, 127
12, 52088, Note_on_c, 12, 62, 0
12, 52088, Note_on_c, 12, 59, 127
12, 52148, Note_on_c, 12, 59, 0
12, 52148, Note_on_c, 12, 55, 127
12, 52198, Note_on_c, 12, 55, 0
12, 52208, Note_on_c, 12, 60, 127
12, 52268, Note_on_c, 12, 60, 0
12, 52268, Note_on_c, 12, 52, 112
12, 52328, Note_on_c, 12, 52, 0
12, 52328, Note_on_c, 12, 60, 112
12, 52388, Note_on_c, 12, 60, 0
12, 52388, Note_on_c, 12, 52, 112
12, 52448, Note_on_c, 12, 52, 0
12, 52448, Note_on_c, 12, 55, 112
12, 52508, Note_on_c, 12, 55, 0
12, 52508, Note_on_c, 12, 52, 112
12, 52558, Note_on_c, 12, 52, 0
12, 52568, Note_on_c, 12, 50, 112
12, 52568, Control_c, 12, 11, 107
12, 52577, Control_c, 12, 11, 104
12, 52586, Control_c, 12, 11, 101
12, 52595, Control_c, 12, 11, 98
12, 52604, Control_c, 12, 11, 95
12, 52613, Control_c, 12, 11, 92
12, 52622, Control_c, 12, 11, 89
12, 52628, Note_on_c, 12, 50, 0
12, 52628, Note_on_c, 12, 59, 112
12, 52688, Note_on_c, 12, 59, 0
12, 52688, Note_on_c, 12, 62, 112
12, 52748, Note_on_c, 12, 62, 0
12, 52748, Note_on_c, 12, 59, 112
12, 52808, Note_on_c, 12, 59, 0
12, 52808, Note_on_c, 12, 62, 112
12, 52868, Note_on_c, 12, 62, 0
12, 52868, Note_on_c, 12, 59, 112
12, 52918, Note_on_c, 12, 59, 0
12, 52928, Control_c, 12, 11, 107
12, 52928, Note_on_c, 12, 64, 112
12, 52937, Control_c, 12, 11, 104
12, 52946, Control_c, 12, 11, 101
12, 52955, Control_c, 12, 11, 98
12, 52964, Control_c, 12, 11, 95
12, 52973, Control_c, 12, 11, 92
12, 52982, Control_c, 12, 11, 89
12, 52988, Note_on_c, 12, 64, 0
12, 52988, Note_on_c, 12, 60, 112
12, 53048, Note_on_c, 12, 60, 0
12, 53048, Note_on_c, 12, 64, 112
12, 53108, Note_on_c, 12, 64, 0
12, 53108, Note_on_c, 12, 60, 112
12, 53168, Note_on_c, 12, 60, 0
12, 53168, Note_on_c, 12, 64, 112
12, 53228, Note_on_c, 12, 64, 0
12, 53228, Note_on_c, 12, 60, 112
12, 53278, Note_on_c, 12, 60, 0
12, 53288, Control_c, 12, 11, 107
12, 53288, Note_on_c, 12, 58, 112
12, 53297, Control_c, 12, 11, 104
12, 53306, Control_c, 12, 11, 101
12, 53315, Control_c, 12, 11, 98
12, 53324, Control_c, 12, 11, 95
12, 53333, Control_c, 12, 11, 92
12, 53342, Control_c, 12, 11, 89
12, 53348, Note_on_c, 12, 58, 0
12, 53348, Note_on_c, 12, 55, 112
12, 53408, Note_on_c, 12, 55, 0
12, 53408, Note_on_c, 12, 58, 112
12, 53468, Note_on_c, 12, 58, 0
12, 53468, Note_on_c, 12, 55, 112
12, 53528, Note_on_c, 12, 55, 0
12, 53528, Note_on_c, 12, 58, 112
12, 53588, Note_on_c, 12, 58, 0
12, 53588, Note_on_c, 12, 67, 112
12, 53638, Note_on_c, 12, 67, 0
12, 53648, Note_on_c, 12, 65, 112
12, 53648, Control_c, 12, 11, 107
12, 53657, Control_c, 12, 11, 104
12, 53666, Control_c, 12, 11, 101
12, 53675, Control_c, 12, 11, 98
12, 53684, Control_c, 12, 11, 95
12, 53693, Control_c, 12, 11, 92
12, 53702, Control_c, 12, 11, 89
12, 53708, Note_on_c, 12, 65, 0
12, 53708, Note_on_c, 12, 57, 112
12, 53768, Note_on_c, 12, 57, 0
12, 53768, Note_on_c, 12, 65, 112
12, 53828, Note_on_c, 12, 65, 0
12, 53828, Note_on_c, 12, 57, 112
12, 53888, Note_on_c, 12, 57, 0
12, 53888, Note_on_c, 12, 65, 112
12, 53888, Control_c, 12, 11, 87
12, 53906, Control_c, 12, 11, 84
12, 53924, Control_c, 12, 11, 81
12, 53942, Control_c, 12, 11, 78
12, 53948, Note_on_c, 12, 65, 0
12, 53948, Note_on_c, 12, 57, 112
12, 53960, Control_c, 12, 11, 75
12, 53978, Control_c, 12, 11, 72
12, 53996, Control_c, 12, 11, 69
12, 53998, Note_on_c, 12, 57, 0
12, 54008, Note_on_c, 12, 57, 76
12, 54068, Note_on_c, 12, 57, 0
12, 54127, Program_c, 12, 45
12, 54128, Control_c, 12, 11, 100
12, 54128, Note_on_c, 12, 57, 49
12, 54188, Note_on_c, 12, 57, 0
12, 54368, Note_on_c, 12, 57, 47
12, 54488, Note_on_c, 12, 57, 0
12, 54488, Note_on_c, 12, 57, 45
12, 54608, Note_on_c, 12, 57, 0
12, 54728, Note_on_c, 12, 57, 43
12, 54848, Note_on_c, 12, 57, 0
12, 54848, Note_on_c, 12, 57, 41
12, 54968, Note_on_c, 12, 57, 0
12, 55088, Note_on_c, 12, 57, 39
12, 55208, Note_on_c, 12, 57, 0
12, 55208, Note_on_c, 12, 57, 37
12, 55327, Program_c, 12, 48
12, 55328, Note_on_c, 12, 57, 0
12, 55328, Control_c, 12, 11, 32
12, 55328, Note_on_c, 12, 53, 92
12, 55388, Note_on_c, 12, 53, 0
12, 55568, Note_on_c, 12, 53, 92
12, 55628, Note_on_c, 12, 53, 0
12, 55808, Note_on_c, 12, 53, 92
12, 55868, Note_on_c, 12, 53, 0
12, 56048, Control_c, 12, 11, 32
12, 56048, Note_on_c, 12, 58, 112
12, 56108, Note_on_c, 12, 58, 0
12, 56108, Note_on_c, 12, 53, 112
12, 56168, Note_on_c, 12, 53, 0
12, 56168, Note_on_c, 12, 57, 112
12, 56228, Note_on_c, 12, 57, 0
12, 56228, Note_on_c, 12, 53, 112
12, 56288, Note_on_c, 12, 53, 0
12, 56288, Note_on_c, 12, 57, 112
12, 56348, Note_on_c, 12, 57, 0
12, 56348, Note_on_c, 12, 53, 112
12, 56408, Note_on_c, 12, 53, 0
12, 56408, Note_on_c, 12, 57, 112
12, 56468, Note_on_c, 12, 57, 0
12, 56468, Note_on_c, 12, 53, 112
12, 56528, Note_on_c, 12, 53, 0
12, 56528, Note_on_c, 12, 58, 112
12, 56588, Note_on_c, 12, 58, 0
12, 56588, Note_on_c, 12, 53, 112
12, 56648, Note_on_c, 12, 53, 0
12, 56648, Note_on_c, 12, 58, 112
12, 56708, Note_on_c, 12, 58, 0
12, 56708, Note_on_c, 12, 53, 112
12, 56758, Note_on_c, 12, 53, 0
12, 56768, Note_on_c, 12, 62, 112
12, 56828, Note_on_c, 12, 62, 0
12, 56828, Note_on_c, 12, 60, 112
12, 56888, Note_on_c, 12, 60, 0
12, 56888, Note_on_c, 12, 58, 112
12, 56948, Note_on_c, 12, 58, 0
12, 56948, Note_on_c, 12, 58, 112
12, 56993, Note_on_c, 12, 58, 0
12, 57008, Note_on_c, 12, 58, 112
12, 57068, Note_on_c, 12, 58, 0
12, 57068, Note_on_c, 12, 55, 112
12, 57128, Note_on_c, 12, 55, 0
12, 57128, Note_on_c, 12, 58, 112
12, 57188, Note_on_c, 12, 58, 0
12, 57188, Note_on_c, 12, 55, 112
12, 57248, Note_on_c, 12, 55, 0
12, 57248, Note_on_c, 12, 60, 112
12, 57308, Note_on_c, 12, 60, 0
12, 57308, Note_on_c, 12, 57, 112
12, 57358, Note_on_c, 12, 57, 0
12, 57368, Note_on_c, 12, 57, 112
12, 57428, Note_on_c, 12, 57, 0
12, 57428, Note_on_c, 12, 53, 112
12, 57478, Note_on_c, 12, 53, 0
12, 57488, Control_c, 12, 11, 37
12, 57488, Note_on_c, 12, 57, 112
12, 57510, Control_c, 12, 11, 38
12, 57533, Control_c, 12, 11, 39
12, 57548, Note_on_c, 12, 57, 0
12, 57548, Note_on_c, 12, 53, 112
12, 57556, Control_c, 12, 11, 40
12, 57579, Control_c, 12, 11, 41
12, 57601, Control_c, 12, 11, 42
12, 57608, Note_on_c, 12, 53, 0
12, 57608, Note_on_c, 12, 58, 112
12, 57624, Control_c, 12, 11, 43
12, 57647, Control_c, 12, 11, 44
12, 57668, Note_on_c, 12, 58, 0
12, 57668, Note_on_c, 12, 55, 112
12, 57670, Control_c, 12, 11, 45
12, 57693, Control_c, 12, 11, 46
12, 57715, Control_c, 12, 11, 47
12, 57728, Note_on_c, 12, 55, 0
12, 57728, Note_on_c, 12, 58, 112
12, 57738, Control_c, 12, 11, 48
12, 57761, Control_c, 12, 11, 49
12, 57784, Control_c, 12, 11, 50
12, 57788, Note_on_c, 12, 58, 0
12, 57788, Note_on_c, 12, 55, 112
12, 57806, Control_c, 12, 11, 51
12, 57829, Control_c, 12, 11, 52
12, 57838, Note_on_c, 12, 55, 0
12, 57848, Note_on_c, 12, 60, 112
12, 57852, Control_c, 12, 11, 53
12, 57875, Control_c, 12, 11, 54
12, 57898, Control_c, 12, 11, 55
12, 57908, Note_on_c, 12, 60, 0
12, 57908, Note_on_c, 12, 55, 112
12, 57920, Control_c, 12, 11, 56
12, 57943, Control_c, 12, 11, 57
12, 57966, Control_c, 12, 11, 58
12, 57968, Note_on_c, 12, 55, 0
12, 57968, Note_on_c, 12, 60, 112
12, 57989, Control_c, 12, 11, 59
12, 58011, Control_c, 12, 11, 60
12, 58028, Note_on_c, 12, 60, 0
12, 58028, Note_on_c, 12, 57, 112
12, 58034, Control_c, 12, 11, 61
12, 58057, Control_c, 12, 11, 62
12, 58080, Control_c, 12, 11, 63
12, 58088, Note_on_c, 12, 57, 0
12, 58088, Note_on_c, 12, 60, 112
12, 58103, Control_c, 12, 11, 64
12, 58125, Control_c, 12, 11, 65
12, 58148, Note_on_c, 12, 60, 0
12, 58148, Control_c, 12, 11, 66
12, 58148, Note_on_c, 12, 57, 112
12, 58171, Control_c, 12, 11, 67
12, 58194, Control_c, 12, 11, 68
12, 58208, Note_on_c, 12, 57, 0
12, 58208, Note_on_c, 12, 60, 112
12, 58216, Control_c, 12, 11, 69
12, 58239, Control_c, 12, 11, 70
12, 58262, Control_c, 12, 11, 71
12, 58268, Note_on_c, 12, 60, 0
12, 58268, Note_on_c, 12, 57, 112
12, 58285, Control_c, 12, 11, 72
12, 58308, Control_c, 12, 11, 73
12, 58328, Note_on_c, 12, 57, 0
12, 58328, Note_on_c, 12, 58, 112
12, 58330, Control_c, 12, 11, 74
12, 58353, Control_c, 12, 11, 75
12, 58376, Control_c, 12, 11, 76
12, 58388, Note_on_c, 12, 58, 0
12, 58388, Note_on_c, 12, 48, 112
12, 58399, Control_c, 12, 11, 77
12, 58421, Control_c, 12, 11, 78
12, 58444, Control_c, 12, 11, 79
12, 58448, Note_on_c, 12, 48, 0
12, 58448, Note_on_c, 12, 62, 112
12, 58467, Control_c, 12, 11, 80
12, 58490, Control_c, 12, 11, 81
12, 58508, Note_on_c, 12, 62, 0
12, 58508, Note_on_c, 12, 60, 112
12, 58513, Control_c, 12, 11, 82
12, 58535, Control_c, 12, 11, 83
12, 58558, Control_c, 12, 11, 84
12, 58568, Note_on_c, 12, 60, 0
12, 58568, Note_on_c, 12, 58, 112
12, 58581, Control_c, 12, 11, 85
12, 58604, Control_c, 12, 11, 86
12, 58618, Note_on_c, 12, 58, 0
12, 58627, Control_c, 12, 11, 87
12, 58628, Note_on_c, 12, 56, 112
12, 58666, Note_on_c, 12, 56, 0
12, 58688, Control_c, 12, 11, 97
12, 58688, Note_on_c, 12, 56, 112
12, 58712, Control_c, 12, 11, 95
12, 58736, Control_c, 12, 11, 93
12, 58748, Note_on_c, 12, 56, 0
12, 58748, Note_on_c, 12, 48, 112
12, 58808, Note_on_c, 12, 48, 0
12, 58808, Note_on_c, 12, 55, 112
12, 58868, Note_on_c, 12, 55, 0
12, 58868, Note_on_c, 12, 53, 112
12, 58928, Note_on_c, 12, 53, 0
12, 58928, Note_on_c, 12, 55, 112
12, 58978, Note_on_c, 12, 55, 0
12, 58988, Note_on_c, 12, 55, 112
12, 59026, Note_on_c, 12, 55, 0
12, 59048, Note_on_c, 12, 55, 112
12, 59108, Note_on_c, 12, 55, 0
12, 59108, Note_on_c, 12, 60, 112
12, 59168, Note_on_c, 12, 60, 0
12, 59168, Note_on_c, 12, 60, 112
12, 59228, Note_on_c, 12, 60, 0
12, 59228, Note_on_c, 12, 58, 112
12, 59288, Note_on_c, 12, 58, 0
12, 59288, Note_on_c, 12, 60, 112
12, 59338, Note_on_c, 12, 60, 0
12, 59348, Control_c, 12, 11, 102
12, 59348, Note_on_c, 12, 60, 112
12, 59386, Note_on_c, 12, 60, 0
12, 59408, Note_on_c, 12, 60, 112
12, 59528, Note_on_c, 12, 60, 0
12, 59528, Note_on_c, 12, 62, 112
12, 59588, Note_on_c, 12, 62, 0
12, 60068, Note_on_c, 12, 67, 112
12, 60113, Note_on_c, 12, 67, 0
12, 60128, Note_on_c, 12, 67, 112
12, 60248, Note_on_c, 12, 67, 0
12, 60248, Note_on_c, 12, 65, 112
12, 60308, Note_on_c, 12, 65, 0
12, 60788, Note_on_c, 12, 69, 112
12, 60833, Note_on_c, 12, 69, 0
12, 60848, Note_on_c, 12, 70, 112
12, 60968, Note_on_c, 12, 70, 0
12, 60968, Note_on_c, 12, 69, 112
12, 61028, Note_on_c, 12, 69, 0
12, 61508, Note_on_c, 12, 69, 112
12, 61553, Note_on_c, 12, 69, 0
12, 61568, Note_on_c, 12, 70, 112
12, 61688, Note_on_c, 12, 70, 0
12, 61688, Note_on_c, 12, 69, 112
12, 61748, Note_on_c, 12, 69, 0
12, 62048, Note_on_c, 12, 67, 112
12, 62168, Note_on_c, 12, 67, 0
12, 62168, Note_on_c, 12, 65, 112
12, 62228, Note_on_c, 12, 65, 0
12, 62528, Control_c, 12, 11, 122
12, 62528, Note_on_c, 12, 55, 112
12, 62546, Control_c, 12, 11, 119
12, 62564, Control_c, 12, 11, 116
12, 62582, Control_c, 12, 11, 113
12, 62600, Control_c, 12, 11, 110
12, 62618, Control_c, 12, 11, 107
12, 62636, Control_c, 12, 11, 104
12, 63128, Note_on_c, 12, 55, 0
12, 63128, Note_on_c, 12, 53, 112
12, 63178, Note_on_c, 12, 53, 0
12, 63728, Control_c, 12, 121, 0
12, 63728, End_track
13, 0, Start_track
13, 0, MIDI_port, 0
13, 0, Title_t, "Violoncelle"
13, 0, Program_c, 13, 48
13, 0, Control_c, 13, 10, 100
13, 10, Control_c, 13, 121, 0
13, 15, Program_c, 13, 48
13, 20, Pitch_bend_c, 13, 7892
13, 25, Control_c, 13, 11, 87
13, 30, Control_c, 13, 7, 127
13, 35, Control_c, 13, 91, 51
13, 40, Control_c, 13, 93, 0
13, 610, Note_on_c, 13, 53, 97
13, 670, Note_on_c, 13, 53, 0
13, 670, Note_on_c, 13, 48, 97
13, 720, Note_on_c, 13, 48, 0
13, 730, Control_c, 13, 11, 107
13, 730, Note_on_c, 13, 53, 97
13, 739, Control_c, 13, 11, 104
13, 748, Control_c, 13, 11, 101
13, 757, Control_c, 13, 11, 98
13, 766, Control_c, 13, 11, 95
13, 775, Control_c, 13, 11, 92
13, 784, Control_c, 13, 11, 89
13, 790, Note_on_c, 13, 53, 0
13, 790, Note_on_c, 13, 48, 97
13, 850, Note_on_c, 13, 48, 0
13, 850, Control_c, 13, 11, 107
13, 850, Note_on_c, 13, 53, 97
13, 859, Control_c, 13, 11, 104
13, 868, Control_c, 13, 11, 101
13, 877, Control_c, 13, 11, 98
13, 886, Control_c, 13, 11, 95
13, 895, Control_c, 13, 11, 92
13, 904, Control_c, 13, 11, 89
13, 910, Note_on_c, 13, 53, 0
13, 910, Note_on_c, 13, 48, 97
13, 960, Note_on_c, 13, 48, 0
13, 970, Control_c, 13, 11, 107
13, 970, Note_on_c, 13, 53, 97
13, 979, Control_c, 13, 11, 104
13, 988, Control_c, 13, 11, 101
13, 997, Control_c, 13, 11, 98
13, 1006, Control_c, 13, 11, 95
13, 1015, Control_c, 13, 11, 92
13, 1024, Control_c, 13, 11, 89
13, 1030, Note_on_c, 13, 53, 0
13, 1030, Note_on_c, 13, 48, 97
13, 1080, Note_on_c, 13, 48, 0
13, 1090, Control_c, 13, 11, 102
13, 1090, Note_on_c, 13, 53, 97
13, 1097, Control_c, 13, 11, 99
13, 1104, Control_c, 13, 11, 96
13, 1111, Control_c, 13, 11, 93
13, 1118, Control_c, 13, 11, 90
13, 1126, Control_c, 13, 11, 87
13, 1133, Control_c, 13, 11, 84
13, 1140, Control_c, 13, 11, 81
13, 1147, Control_c, 13, 11, 78
13, 1150, Note_on_c, 13, 53, 0
13, 1150, Note_on_c, 13, 48, 97
13, 1210, Note_on_c, 13, 48, 0
13, 1210, Control_c, 13, 11, 92
13, 1210, Note_on_c, 13, 53, 97
13, 1219, Control_c, 13, 11, 89
13, 1228, Control_c, 13, 11, 86
13, 1237, Control_c, 13, 11, 83
13, 1246, Control_c, 13, 11, 80
13, 1255, Control_c, 13, 11, 77
13, 1264, Control_c, 13, 11, 74
13, 1270, Note_on_c, 13, 53, 0
13, 1270, Note_on_c, 13, 48, 97
13, 1320, Note_on_c, 13, 48, 0
13, 1330, Control_c, 13, 11, 47
13, 1330, Note_on_c, 13, 53, 112
13, 1390, Note_on_c, 13, 53, 0
13, 1390, Note_on_c, 13, 48, 112
13, 1450, Note_on_c, 13, 48, 0
13, 1450, Note_on_c, 13, 55, 112
13, 1510, Note_on_c, 13, 55, 0
13, 1510, Note_on_c, 13, 48, 112
13, 1570, Note_on_c, 13, 48, 0
13, 1570, Note_on_c, 13, 55, 112
13, 1630, Note_on_c, 13, 55, 0
13, 1630, Note_on_c, 13, 48, 112
13, 1690, Note_on_c, 13, 48, 0
13, 1690, Note_on_c, 13, 55, 112
13, 1750, Note_on_c, 13, 55, 0
13, 1750, Note_on_c, 13, 48, 112
13, 1800, Note_on_c, 13, 48, 0
13, 1810, Note_on_c, 13, 57, 112
13, 1870, Note_on_c, 13, 57, 0
13, 1870, Note_on_c, 13, 48, 112
13, 1930, Note_on_c, 13, 48, 0
13, 1930, Note_on_c, 13, 57, 112
13, 1990, Note_on_c, 13, 57, 0
13, 1990, Note_on_c, 13, 48, 112
13, 2040, Note_on_c, 13, 48, 0
13, 2050, Control_c, 13, 11, 47
13, 2050, Note_on_c, 13, 57, 112
13, 2068, Control_c, 13, 11, 48
13, 2086, Control_c, 13, 11, 49
13, 2104, Control_c, 13, 11, 50
13, 2110, Note_on_c, 13, 57, 0
13, 2110, Note_on_c, 13, 48, 112
13, 2122, Control_c, 13, 11, 51
13, 2140, Control_c, 13, 11, 52
13, 2158, Control_c, 13, 11, 53
13, 2170, Note_on_c, 13, 48, 0
13, 2170, Note_on_c, 13, 58, 112
13, 2176, Control_c, 13, 11, 54
13, 2194, Control_c, 13, 11, 55
13, 2212, Control_c, 13, 11, 56
13, 2230, Note_on_c, 13, 58, 0
13, 2230, Control_c, 13, 11, 57
13, 2230, Note_on_c, 13, 48, 112
13, 2248, Control_c, 13, 11, 58
13, 2266, Control_c, 13, 11, 59
13, 2284, Control_c, 13, 11, 60
13, 2290, Note_on_c, 13, 48, 0
13, 2290, Note_on_c, 13, 58, 112
13, 2302, Control_c, 13, 11, 61
13, 2320, Control_c, 13, 11, 62
13, 2338, Control_c, 13, 11, 63
13, 2350, Note_on_c, 13, 58, 0
13, 2350, Note_on_c, 13, 57, 112
13, 2356, Control_c, 13, 11, 64
13, 2374, Control_c, 13, 11, 65
13, 2392, Control_c, 13, 11, 66
13, 2410, Note_on_c, 13, 57, 0
13, 2410, Control_c, 13, 11, 67
13, 2410, Note_on_c, 13, 55, 112
13, 2428, Control_c, 13, 11, 68
13, 2446, Control_c, 13, 11, 69
13, 2464, Control_c, 13, 11, 70
13, 2470, Note_on_c, 13, 55, 0
13, 2470, Note_on_c, 13, 53, 112
13, 2482, Control_c, 13, 11, 71
13, 2500, Control_c, 13, 11, 72
13, 2518, Control_c, 13, 11, 73
13, 2530, Note_on_c, 13, 53, 0
13, 2530, Note_on_c, 13, 52, 112
13, 2536, Control_c, 13, 11, 74
13, 2554, Control_c, 13, 11, 75
13, 2572, Control_c, 13, 11, 76
13, 2590, Note_on_c, 13, 52, 0
13, 2590, Control_c, 13, 11, 77
13, 2590, Note_on_c, 13, 50, 112
13, 2608, Control_c, 13, 11, 78
13, 2626, Control_c, 13, 11, 79
13, 2644, Control_c, 13, 11, 80
13, 2650, Note_on_c, 13, 50, 0
13, 2650, Note_on_c, 13, 48, 112
13, 2662, Control_c, 13, 11, 81
13, 2680, Control_c, 13, 11, 82
13, 2698, Control_c, 13, 11, 83
13, 2710, Note_on_c, 13, 48, 0
13, 2710, Note_on_c, 13, 55, 112
13, 2716, Control_c, 13, 11, 84
13, 2734, Control_c, 13, 11, 85
13, 2752, Control_c, 13, 11, 86
13, 2760, Note_on_c, 13, 55, 0
13, 2770, Control_c, 13, 11, 87
13, 2770, Note_on_c, 13, 53, 112
13, 2830, Note_on_c, 13, 53, 0
13, 2830, Note_on_c, 13, 48, 112
13, 2880, Note_on_c, 13, 48, 0
13, 2890, Note_on_c, 13, 43, 112
13, 2950, Note_on_c, 13, 43, 0
13, 2950, Note_on_c, 13, 36, 112
13, 3010, Note_on_c, 13, 36, 0
13, 3010, Note_on_c, 13, 43, 112
13, 3070, Note_on_c, 13, 43, 0
13, 3070, Note_on_c, 13, 36, 112
13, 3130, Note_on_c, 13, 36, 0
13, 3130, Note_on_c, 13, 43, 112
13, 3190, Note_on_c, 13, 43, 0
13, 3190, Note_on_c, 13, 36, 112
13, 3240, Note_on_c, 13, 36, 0
13, 3250, Note_on_c, 13, 45, 112
13, 3310, Note_on_c, 13, 45, 0
13, 3310, Note_on_c, 13, 36, 112
13, 3370, Note_on_c, 13, 36, 0
13, 3370, Note_on_c, 13, 45, 112
13, 3430, Note_on_c, 13, 45, 0
13, 3430, Note_on_c, 13, 36, 112
13, 3480, Note_on_c, 13, 36, 0
13, 3490, Note_on_c, 13, 45, 112
13, 3550, Note_on_c, 13, 45, 0
13, 3550, Note_on_c, 13, 57, 112
13, 3600, Note_on_c, 13, 57, 0
13, 3610, Note_on_c, 13, 58, 112
13, 3670, Note_on_c, 13, 58, 0
13, 3670, Note_on_c, 13, 46, 112
13, 3730, Note_on_c, 13, 46, 0
13, 3730, Note_on_c, 13, 58, 112
13, 3790, Note_on_c, 13, 58, 0
13, 3790, Note_on_c, 13, 57, 112
13, 3850, Note_on_c, 13, 57, 0
13, 3850, Note_on_c, 13, 55, 112
13, 3900, Note_on_c, 13, 55, 0
13, 3910, Note_on_c, 13, 60, 112
13, 3960, Note_on_c, 13, 60, 0
13, 3970, Note_on_c, 13, 60, 112
13, 4030, Note_on_c, 13, 60, 0
13, 4030, Note_on_c, 13, 48, 112
13, 4090, Note_on_c, 13, 48, 0
13, 4090, Note_on_c, 13, 53, 112
13, 4150, Note_on_c, 13, 53, 0
13, 4210, Note_on_c, 13, 53, 97
13, 4270, Note_on_c, 13, 53, 0
13, 4270, Note_on_c, 13, 48, 97
13, 4320, Note_on_c, 13, 48, 0
13, 4330, Control_c, 13, 11, 107
13, 4330, Note_on_c, 13, 53, 97
13, 4339, Control_c, 13, 11, 104
13, 4348, Control_c, 13, 11, 101
13, 4357, Control_c, 13, 11, 98
13, 4366, Control_c, 13, 11, 95
13, 4375, Control_c, 13, 11, 92
13, 4384, Control_c, 13, 11, 89
13, 4390, Note_on_c, 13, 53, 0
13, 4390, Note_on_c, 13, 48, 97
13, 4450, Note_on_c, 13, 48, 0
13, 4450, Control_c, 13, 11, 107
13, 4450, Note_on_c, 13, 53, 97
13, 4459, Control_c, 13, 11, 104
13, 4468, Control_c, 13, 11, 101
13, 4477, Control_c, 13, 11, 98
13, 4486, Control_c, 13, 11, 95
13, 4495, Control_c, 13, 11, 92
13, 4504, Control_c, 13, 11, 89
13, 4510, Note_on_c, 13, 53, 0
13, 4510, Note_on_c, 13, 48, 97
13, 4560, Note_on_c, 13, 48, 0
13, 4570, Control_c, 13, 11, 107
13, 4570, Note_on_c, 13, 53, 97
13, 4579, Control_c, 13, 11, 104
13, 4588, Control_c, 13, 11, 101
13, 4597, Control_c, 13, 11, 98
13, 4606, Control_c, 13, 11, 95
13, 4615, Control_c, 13, 11, 92
13, 4624, Control_c, 13, 11, 89
13, 4630, Note_on_c, 13, 53, 0
13, 4630, Note_on_c, 13, 48, 97
13, 4680, Note_on_c, 13, 48, 0
13, 4690, Note_on_c, 13, 53, 97
13, 4690, Control_c, 13, 11, 102
13, 4697, Control_c, 13, 11, 99
13, 4704, Control_c, 13, 11, 96
13, 4711, Control_c, 13, 11, 93
13, 4718, Control_c, 13, 11, 90
13, 4726, Control_c, 13, 11, 87
13, 4733, Control_c, 13, 11, 84
13, 4740, Control_c, 13, 11, 81
13, 4747, Control_c, 13, 11, 78
13, 4750, Note_on_c, 13, 53, 0
13, 4750, Note_on_c, 13, 48, 97
13, 4810, Note_on_c, 13, 48, 0
13, 4810, Control_c, 13, 11, 92
13, 4810, Note_on_c, 13, 53, 88
13, 4819, Control_c, 13, 11, 89
13, 4828, Control_c, 13, 11, 86
13, 4837, Control_c, 13, 11, 83
13, 4846, Control_c, 13, 11, 80
13, 4855, Control_c, 13, 11, 77
13, 4864, Control_c, 13, 11, 74
13, 4870, Note_on_c, 13, 53, 0
13, 4870, Note_on_c, 13, 48, 80
13, 4920, Note_on_c, 13, 48, 0
13, 4930, Note_on_c, 13, 53, 112
13, 4930, Control_c, 13, 11, 47
13, 4990, Note_on_c, 13, 53, 0
13, 4990, Note_on_c, 13, 48, 112
13, 5050, Note_on_c, 13, 48, 0
13, 5050, Note_on_c, 13, 55, 112
13, 5110, Note_on_c, 13, 55, 0
13, 5110, Note_on_c, 13, 48, 112
13, 5170, Note_on_c, 13, 48, 0
13, 5170, Note_on_c, 13, 55, 112
13, 5230, Note_on_c, 13, 55, 0
13, 5230, Note_on_c, 13, 48, 112
13, 5290, Note_on_c, 13, 48, 0
13, 5290, Note_on_c, 13, 55, 112
13, 5350, Note_on_c, 13, 55, 0
13, 5350, Note_on_c, 13, 48, 112
13, 5400, Note_on_c, 13, 48, 0
13, 5410, Note_on_c, 13, 57, 112
13, 5470, Note_on_c, 13, 57, 0
13, 5470, Note_on_c, 13, 48, 112
13, 5530, Note_on_c, 13, 48, 0
13, 5530, Note_on_c, 13, 57, 112
13, 5590, Note_on_c, 13, 57, 0
13, 5590, Note_on_c, 13, 48, 112
13, 5640, Note_on_c, 13, 48, 0
13, 5650, Control_c, 13, 11, 47
13, 5650, Note_on_c, 13, 57, 112
13, 5668, Control_c, 13, 11, 48
13, 5686, Control_c, 13, 11, 49
13, 5704, Control_c, 13, 11, 50
13, 5710, Note_on_c, 13, 57, 0
13, 5710, Note_on_c, 13, 48, 112
13, 5722, Control_c, 13, 11, 51
13, 5740, Control_c, 13, 11, 52
13, 5758, Control_c, 13, 11, 53
13, 5770, Note_on_c, 13, 48, 0
13, 5770, Note_on_c, 13, 58, 112
13, 5776, Control_c, 13, 11, 54
13, 5794, Control_c, 13, 11, 55
13, 5812, Control_c, 13, 11, 56
13, 5830, Note_on_c, 13, 58, 0
13, 5830, Control_c, 13, 11, 57
13, 5830, Note_on_c, 13, 48, 112
13, 5848, Control_c, 13, 11, 58
13, 5866, Control_c, 13, 11, 59
13, 5884, Control_c, 13, 11, 60
13, 5890, Note_on_c, 13, 48, 0
13, 5890, Note_on_c, 13, 58, 112
13, 5902, Control_c, 13, 11, 61
13, 5920, Control_c, 13, 11, 62
13, 5938, Control_c, 13, 11, 63
13, 5950, Note_on_c, 13, 58, 0
13, 5950, Note_on_c, 13, 57, 112
13, 5956, Control_c, 13, 11, 64
13, 5974, Control_c, 13, 11, 65
13, 5992, Control_c, 13, 11, 66
13, 6010, Note_on_c, 13, 57, 0
13, 6010, Note_on_c, 13, 55, 112
13, 6010, Control_c, 13, 11, 67
13, 6028, Control_c, 13, 11, 68
13, 6046, Control_c, 13, 11, 69
13, 6064, Control_c, 13, 11, 70
13, 6070, Note_on_c, 13, 55, 0
13, 6070, Note_on_c, 13, 53, 112
13, 6082, Control_c, 13, 11, 71
13, 6100, Control_c, 13, 11, 72
13, 6118, Control_c, 13, 11, 73
13, 6130, Note_on_c, 13, 53, 0
13, 6130, Note_on_c, 13, 52, 112
13, 6136, Control_c, 13, 11, 74
13, 6154, Control_c, 13, 11, 75
13, 6172, Control_c, 13, 11, 76
13, 6190, Note_on_c, 13, 52, 0
13, 6190, Control_c, 13, 11, 77
13, 6190, Note_on_c, 13, 50, 112
13, 6208, Control_c, 13, 11, 78
13, 6226, Control_c, 13, 11, 79
13, 6244, Control_c, 13, 11, 80
13, 6250, Note_on_c, 13, 50, 0
13, 6250, Note_on_c, 13, 48, 112
13, 6262, Control_c, 13, 11, 81
13, 6280, Control_c, 13, 11, 82
13, 6298, Control_c, 13, 11, 83
13, 6310, Note_on_c, 13, 48, 0
13, 6310, Note_on_c, 13, 55, 112
13, 6316, Control_c, 13, 11, 84
13, 6334, Control_c, 13, 11, 85
13, 6352, Control_c, 13, 11, 86
13, 6360, Note_on_c, 13, 55, 0
13, 6370, Note_on_c, 13, 53, 112
13, 6370, Control_c, 13, 11, 87
13, 6430, Note_on_c, 13, 53, 0
13, 6430, Note_on_c, 13, 48, 112
13, 6480, Note_on_c, 13, 48, 0
13, 6490, Note_on_c, 13, 43, 112
13, 6550, Note_on_c, 13, 43, 0
13, 6550, Note_on_c, 13, 36, 112
13, 6610, Note_on_c, 13, 36, 0
13, 6610, Note_on_c, 13, 43, 112
13, 6670, Note_on_c, 13, 43, 0
13, 6670, Note_on_c, 13, 36, 112
13, 6730, Note_on_c, 13, 36, 0
13, 6730, Note_on_c, 13, 43, 112
13, 6790, Note_on_c, 13, 43, 0
13, 6790, Note_on_c, 13, 36, 112
13, 6840, Note_on_c, 13, 36, 0
13, 6850, Note_on_c, 13, 45, 112
13, 6910, Note_on_c, 13, 45, 0
13, 6910, Note_on_c, 13, 36, 112
13, 6970, Note_on_c, 13, 36, 0
13, 6970, Note_on_c, 13, 45, 112
13, 7030, Note_on_c, 13, 45, 0
13, 7030, Note_on_c, 13, 36, 112
13, 7080, Note_on_c, 13, 36, 0
13, 7090, Note_on_c, 13, 45, 112
13, 7150, Note_on_c, 13, 45, 0
13, 7150, Note_on_c, 13, 57, 112
13, 7200, Note_on_c, 13, 57, 0
13, 7210, Note_on_c, 13, 58, 112
13, 7270, Note_on_c, 13, 58, 0
13, 7270, Note_on_c, 13, 46, 112
13, 7330, Note_on_c, 13, 46, 0
13, 7330, Note_on_c, 13, 58, 112
13, 7390, Note_on_c, 13, 58, 0
13, 7390, Note_on_c, 13, 57, 112
13, 7450, Note_on_c, 13, 57, 0
13, 7450, Note_on_c, 13, 55, 112
13, 7500, Note_on_c, 13, 55, 0
13, 7510, Note_on_c, 13, 60, 112
13, 7560, Note_on_c, 13, 60, 0
13, 7570, Note_on_c, 13, 60, 112
13, 7630, Note_on_c, 13, 60, 0
13, 7630, Note_on_c, 13, 48, 112
13, 7690, Note_on_c, 13, 48, 0
13, 7690, Note_on_c, 13, 53, 112
13, 7740, Note_on_c, 13, 53, 0
13, 7750, Note_on_c, 13, 57, 112
13, 7810, Note_on_c, 13, 57, 0
13, 7810, Note_on_c, 13, 53, 112
13, 7870, Note_on_c, 13, 53, 0
13, 7870, Note_on_c, 13, 60, 112
13, 7930, Note_on_c, 13, 60, 0
13, 7930, Note_on_c, 13, 59, 112
13, 7990, Note_on_c, 13, 59, 0
13, 7990, Note_on_c, 13, 55, 112
13, 8050, Note_on_c, 13, 55, 0
13, 8050, Note_on_c, 13, 62, 112
13, 8110, Note_on_c, 13, 62, 0
13, 8110, Note_on_c, 13, 55, 112
13, 8170, Note_on_c, 13, 55, 0
13, 8170, Note_on_c, 13, 62, 112
13, 8230, Note_on_c, 13, 62, 0
13, 8230, Note_on_c, 13, 55, 112
13, 8280, Note_on_c, 13, 55, 0
13, 8290, Note_on_c, 13, 60, 112
13, 8350, Note_on_c, 13, 60, 0
13, 8350, Note_on_c, 13, 55, 112
13, 8410, Note_on_c, 13, 55, 0
13, 8410, Note_on_c, 13, 60, 112
13, 8470, Note_on_c, 13, 60, 0
13, 8470, Note_on_c, 13, 55, 112
13, 8520, Note_on_c, 13, 55, 0
13, 8530, Note_on_c, 13, 60, 127
13, 8590, Note_on_c, 13, 60, 0
13, 8650, Control_c, 13, 11, 107
13, 8650, Note_on_c, 13, 65, 127
13, 8659, Control_c, 13, 11, 104
13, 8668, Control_c, 13, 11, 101
13, 8677, Control_c, 13, 11, 98
13, 8686, Control_c, 13, 11, 95
13, 8695, Control_c, 13, 11, 92
13, 8704, Control_c, 13, 11, 89
13, 8830, Note_on_c, 13, 65, 0
13, 8830, Note_on_c, 13, 62, 127
13, 8890, Note_on_c, 13, 62, 0
13, 8890, Note_on_c, 13, 59, 127
13, 8950, Note_on_c, 13, 59, 0
13, 8950, Note_on_c, 13, 55, 127
13, 9000, Note_on_c, 13, 55, 0
13, 9010, Note_on_c, 13, 60, 127
13, 9010, Control_c, 13, 11, 107
13, 9019, Control_c, 13, 11, 104
13, 9028, Control_c, 13, 11, 101
13, 9037, Control_c, 13, 11, 98
13, 9046, Control_c, 13, 11, 95
13, 9055, Control_c, 13, 11, 92
13, 9064, Control_c, 13, 11, 89
13, 9190, Note_on_c, 13, 60, 0
13, 9190, Note_on_c, 13, 55, 112
13, 9250, Note_on_c, 13, 55, 0
13, 9250, Note_on_c, 13, 52, 112
13, 9310, Note_on_c, 13, 52, 0
13, 9310, Note_on_c, 13, 48, 112
13, 9360, Note_on_c, 13, 48, 0
13, 9370, Note_on_c, 13, 47, 112
13, 9370, Control_c, 13, 11, 107
13, 9379, Control_c, 13, 11, 104
13, 9388, Control_c, 13, 11, 101
13, 9397, Control_c, 13, 11, 98
13, 9406, Control_c, 13, 11, 95
13, 9415, Control_c, 13, 11, 92
13, 9424, Control_c, 13, 11, 89
13, 9430, Note_on_c, 13, 47, 0
13, 9430, Note_on_c, 13, 43, 112
13, 9490, Note_on_c, 13, 43, 0
13, 9490, Note_on_c, 13, 47, 112
13, 9550, Note_on_c, 13, 47, 0
13, 9550, Note_on_c, 13, 43, 112
13, 9610, Note_on_c, 13, 43, 0
13, 9610, Note_on_c, 13, 47, 112
13, 9670, Note_on_c, 13, 47, 0
13, 9670, Note_on_c, 13, 43, 112
13, 9720, Note_on_c, 13, 43, 0
13, 9730, Control_c, 13, 11, 107
13, 9730, Note_on_c, 13, 48, 112
13, 9739, Control_c, 13, 11, 104
13, 9748, Control_c, 13, 11, 101
13, 9757, Control_c, 13, 11, 98
13, 9766, Control_c, 13, 11, 95
13, 9775, Control_c, 13, 11, 92
13, 9784, Control_c, 13, 11, 89
13, 9790, Note_on_c, 13, 48, 0
13, 9790, Note_on_c, 13, 36, 112
13, 9850, Note_on_c, 13, 36, 0
13, 9850, Note_on_c, 13, 48, 112
13, 9910, Note_on_c, 13, 48, 0
13, 9910, Note_on_c, 13, 36, 112
13, 9970, Note_on_c, 13, 36, 0
13, 9970, Note_on_c, 13, 48, 112
13, 10030, Note_on_c, 13, 48, 0
13, 10030, Note_on_c, 13, 36, 112
13, 10080, Note_on_c, 13, 36, 0
13, 10090, Control_c, 13, 11, 107
13, 10090, Note_on_c, 13, 48, 112
13, 10099, Control_c, 13, 11, 104
13, 10108, Control_c, 13, 11, 101
13, 10117, Control_c, 13, 11, 98
13, 10126, Control_c, 13, 11, 95
13, 10135, Control_c, 13, 11, 92
13, 10144, Control_c, 13, 11, 89
13, 10150, Note_on_c, 13, 48, 0
13, 10150, Note_on_c, 13, 36, 112
13, 10210, Note_on_c, 13, 36, 0
13, 10210, Note_on_c, 13, 48, 112
13, 10270, Note_on_c, 13, 48, 0
13, 10270, Note_on_c, 13, 36, 112
13, 10330, Note_on_c, 13, 36, 0
13, 10330, Note_on_c, 13, 48, 112
13, 10390, Note_on_c, 13, 48, 0
13, 10390, Note_on_c, 13, 36, 112
13, 10440, Note_on_c, 13, 36, 0
13, 10450, Control_c, 13, 11, 107
13, 10450, Note_on_c, 13, 48, 112
13, 10459, Control_c, 13, 11, 104
13, 10468, Control_c, 13, 11, 101
13, 10477, Control_c, 13, 11, 98
13, 10486, Control_c, 13, 11, 95
13, 10495, Control_c, 13, 11, 92
13, 10504, Control_c, 13, 11, 89
13, 10510, Note_on_c, 13, 48, 0
13, 10510, Note_on_c, 13, 41, 112
13, 10570, Note_on_c, 13, 41, 0
13, 10570, Note_on_c, 13, 48, 112
13, 10630, Note_on_c, 13, 48, 0
13, 10630, Note_on_c, 13, 41, 112
13, 10690, Note_on_c, 13, 41, 0
13, 10690, Control_c, 13, 11, 87
13, 10690, Note_on_c, 13, 48, 112
13, 10708, Control_c, 13, 11, 84
13, 10726, Control_c, 13, 11, 81
13, 10744, Control_c, 13, 11, 78
13, 10750, Note_on_c, 13, 48, 0
13, 10750, Note_on_c, 13, 41, 112
13, 10762, Control_c, 13, 11, 75
13, 10780, Control_c, 13, 11, 72
13, 10798, Control_c, 13, 11, 69
13, 10800, Note_on_c, 13, 41, 0
13, 10810, Note_on_c, 13, 53, 76
13, 10870, Note_on_c, 13, 53, 0
13, 10929, Program_c, 13, 45
13, 10930, Control_c, 13, 11, 100
13, 10930, Note_on_c, 13, 53, 49
13, 10990, Note_on_c, 13, 53, 0
13, 11170, Note_on_c, 13, 53, 47
13, 11290, Note_on_c, 13, 53, 0
13, 11290, Note_on_c, 13, 53, 45
13, 11410, Note_on_c, 13, 53, 0
13, 11530, Note_on_c, 13, 53, 43
13, 11650, Note_on_c, 13, 53, 0
13, 11650, Note_on_c, 13, 53, 41
13, 11770, Note_on_c, 13, 53, 0
13, 11890, Note_on_c, 13, 53, 39
13, 12010, Note_on_c, 13, 53, 0
13, 12010, Note_on_c, 13, 53, 37
13, 12129, Program_c, 13, 48
13, 12130, Note_on_c, 13, 53, 0
13, 12130, Note_on_c, 13, 58, 92
13, 12130, Control_c, 13, 11, 32
13, 12190, Note_on_c, 13, 58, 0
13, 12370, Note_on_c, 13, 58, 92
13, 12430, Note_on_c, 13, 58, 0
13, 12610, Note_on_c, 13, 58, 92
13, 12670, Note_on_c, 13, 58, 0
13, 12850, Control_c, 13, 11, 32
13, 12850, Note_on_c, 13, 46, 112
13, 12910, Note_on_c, 13, 46, 0
13, 12910, Note_on_c, 13, 53, 112
13, 12970, Note_on_c, 13, 53, 0
13, 12970, Note_on_c, 13, 48, 112
13, 13030, Note_on_c, 13, 48, 0
13, 13030, Note_on_c, 13, 53, 112
13, 13090, Note_on_c, 13, 53, 0
13, 13090, Note_on_c, 13, 48, 112
13, 13150, Note_on_c, 13, 48, 0
13, 13150, Note_on_c, 13, 53, 112
13, 13210, Note_on_c, 13, 53, 0
13, 13210, Note_on_c, 13, 51, 112
13, 13270, Note_on_c, 13, 51, 0
13, 13270, Note_on_c, 13, 53, 112
13, 13330, Note_on_c, 13, 53, 0
13, 13330, Note_on_c, 13, 50, 112
13, 13390, Note_on_c, 13, 50, 0
13, 13390, Note_on_c, 13, 53, 112
13, 13450, Note_on_c, 13, 53, 0
13, 13450, Note_on_c, 13, 46, 112
13, 13510, Note_on_c, 13, 46, 0
13, 13510, Note_on_c, 13, 50, 112
13, 13570, Note_on_c, 13, 50, 0
13, 13570, Note_on_c, 13, 46, 112
13, 13630, Note_on_c, 13, 46, 0
13, 13630, Note_on_c, 13, 45, 112
13, 13690, Note_on_c, 13, 45, 0
13, 13690, Note_on_c, 13, 43, 112
13, 13750, Note_on_c, 13, 43, 0
13, 13750, Note_on_c, 13, 55, 112
13, 13800, Note_on_c, 13, 55, 0
13, 13810, Note_on_c, 13, 55, 112
13, 13870, Note_on_c, 13, 55, 0
13, 13870, Note_on_c, 13, 48, 112
13, 13930, Note_on_c, 13, 48, 0
13, 13930, Note_on_c, 13, 55, 112
13, 13990, Note_on_c, 13, 55, 0
13, 13990, Note_on_c, 13, 48, 112
13, 14050, Note_on_c, 13, 48, 0
13, 14050, Note_on_c, 13, 57, 112
13, 14110, Note_on_c, 13, 57, 0
13, 14110, Note_on_c, 13, 48, 112
13, 14170, Note_on_c, 13, 48, 0
13, 14170, Note_on_c, 13, 53, 112
13, 14230, Note_on_c, 13, 53, 0
13, 14230, Note_on_c, 13, 48, 112
13, 14280, Note_on_c, 13, 48, 0
13, 14290, Control_c, 13, 11, 37
13, 14290, Note_on_c, 13, 41, 112
13, 14312, Control_c, 13, 11, 38
13, 14335, Control_c, 13, 11, 39
13, 14350, Note_on_c, 13, 41, 0
13, 14350, Note_on_c, 13, 36, 112
13, 14358, Control_c, 13, 11, 40
13, 14381, Control_c, 13, 11, 41
13, 14403, Control_c, 13, 11, 42
13, 14410, Note_on_c, 13, 36, 0
13, 14410, Note_on_c, 13, 43, 112
13, 14426, Control_c, 13, 11, 43
13, 14449, Control_c, 13, 11, 44
13, 14470, Note_on_c, 13, 43, 0
13, 14470, Note_on_c, 13, 36, 112
13, 14472, Control_c, 13, 11, 45
13, 14495, Control_c, 13, 11, 46
13, 14517, Control_c, 13, 11, 47
13, 14530, Note_on_c, 13, 36, 0
13, 14530, Note_on_c, 13, 43, 112
13, 14540, Control_c, 13, 11, 48
13, 14563, Control_c, 13, 11, 49
13, 14586, Control_c, 13, 11, 50
13, 14590, Note_on_c, 13, 43, 0
13, 14590, Note_on_c, 13, 36, 112
13, 14608, Control_c, 13, 11, 51
13, 14631, Control_c, 13, 11, 52
13, 14640, Note_on_c, 13, 36, 0
13, 14650, Note_on_c, 13, 46, 112
13, 14654, Control_c, 13, 11, 53
13, 14677, Control_c, 13, 11, 54
13, 14700, Control_c, 13, 11, 55
13, 14710, Note_on_c, 13, 46, 0
13, 14710, Note_on_c, 13, 36, 112
13, 14722, Control_c, 13, 11, 56
13, 14745, Control_c, 13, 11, 57
13, 14768, Control_c, 13, 11, 58
13, 14770, Note_on_c, 13, 36, 0
13, 14770, Note_on_c, 13, 45, 112
13, 14791, Control_c, 13, 11, 59
13, 14813, Control_c, 13, 11, 60
13, 14830, Note_on_c, 13, 45, 0
13, 14830, Note_on_c, 13, 36, 112
13, 14836, Control_c, 13, 11, 61
13, 14859, Control_c, 13, 11, 62
13, 14882, Control_c, 13, 11, 63
13, 14890, Note_on_c, 13, 36, 0
13, 14890, Note_on_c, 13, 45, 112
13, 14905, Control_c, 13, 11, 64
13, 14927, Control_c, 13, 11, 65
13, 14950, Note_on_c, 13, 45, 0
13, 14950, Control_c, 13, 11, 66
13, 14950, Note_on_c, 13, 36, 112
13, 14973, Control_c, 13, 11, 67
13, 14996, Control_c, 13, 11, 68
13, 15010, Note_on_c, 13, 36, 0
13, 15010, Note_on_c, 13, 45, 112
13, 15018, Control_c, 13, 11, 69
13, 15041, Control_c, 13, 11, 70
13, 15064, Control_c, 13, 11, 71
13, 15070, Note_on_c, 13, 45, 0
13, 15070, Note_on_c, 13, 36, 112
13, 15087, Control_c, 13, 11, 72
13, 15110, Control_c, 13, 11, 73
13, 15130, Note_on_c, 13, 36, 0
13, 15130, Note_on_c, 13, 46, 112
13, 15132, Control_c, 13, 11, 74
13, 15155, Control_c, 13, 11, 75
13, 15178, Control_c, 13, 11, 76
13, 15190, Note_on_c, 13, 46, 0
13, 15190, Note_on_c, 13, 36, 112
13, 15201, Control_c, 13, 11, 77
13, 15223, Control_c, 13, 11, 78
13, 15246, Control_c, 13, 11, 79
13, 15250, Note_on_c, 13, 36, 0
13, 15250, Note_on_c, 13, 46, 112
13, 15269, Control_c, 13, 11, 80
13, 15292, Control_c, 13, 11, 81
13, 15310, Note_on_c, 13, 46, 0
13, 15310, Note_on_c, 13, 45, 112
13, 15315, Control_c, 13, 11, 82
13, 15337, Control_c, 13, 11, 83
13, 15360, Control_c, 13, 11, 84
13, 15370, Note_on_c, 13, 45, 0
13, 15370, Note_on_c, 13, 43, 112
13, 15383, Control_c, 13, 11, 85
13, 15406, Control_c, 13, 11, 86
13, 15420, Note_on_c, 13, 43, 0
13, 15429, Control_c, 13, 11, 87
13, 15430, Note_on_c, 13, 41, 112
13, 15468, Note_on_c, 13, 41, 0
13, 15490, Note_on_c, 13, 41, 112
13, 15490, Control_c, 13, 11, 97
13, 15514, Control_c, 13, 11, 95
13, 15538, Control_c, 13, 11, 93
13, 15550, Note_on_c, 13, 41, 0
13, 15550, Note_on_c, 13, 36, 112
13, 15610, Note_on_c, 13, 36, 0
13, 15610, Note_on_c, 13, 40, 112
13, 15670, Note_on_c, 13, 40, 0
13, 15670, Note_on_c, 13, 38, 112
13, 15730, Note_on_c, 13, 38, 0
13, 15730, Note_on_c, 13, 36, 112
13, 15780, Note_on_c, 13, 36, 0
13, 15790, Note_on_c, 13, 46, 112
13, 15828, Note_on_c, 13, 46, 0
13, 15850, Note_on_c, 13, 46, 112
13, 15910, Note_on_c, 13, 46, 0
13, 15910, Note_on_c, 13, 41, 112
13, 15970, Note_on_c, 13, 41, 0
13, 15970, Note_on_c, 13, 45, 112
13, 16030, Note_on_c, 13, 45, 0
13, 16030, Note_on_c, 13, 43, 112
13, 16090, Note_on_c, 13, 43, 0
13, 16090, Note_on_c, 13, 41, 112
13, 16140, Note_on_c, 13, 41, 0
13, 16150, Note_on_c, 13, 63, 112
13, 16150, Control_c, 13, 11, 102
13, 16188, Note_on_c, 13, 63, 0
13, 16210, Note_on_c, 13, 63, 112
13, 16330, Note_on_c, 13, 63, 0
13, 16330, Note_on_c, 13, 62, 112
13, 16390, Note_on_c, 13, 62, 0
13, 16870, Note_on_c, 13, 60, 112
13, 16915, Note_on_c, 13, 60, 0
13, 16930, Note_on_c, 13, 60, 112
13, 17050, Note_on_c, 13, 60, 0
13, 17050, Note_on_c, 13, 53, 112
13, 17110, Note_on_c, 13, 53, 0
13, 17590, Note_on_c, 13, 60, 112
13, 17635, Note_on_c, 13, 60, 0
13, 17650, Note_on_c, 13, 60, 112
13, 17770, Note_on_c, 13, 60, 0
13, 17770, Note_on_c, 13, 53, 112
13, 17830, Note_on_c, 13, 53, 0
13, 18310, Note_on_c, 13, 60, 112
13, 18355, Note_on_c, 13, 60, 0
13, 18370, Note_on_c, 13, 60, 112
13, 18490, Note_on_c, 13, 60, 0
13, 18490, Note_on_c, 13, 53, 112
13, 18550, Note_on_c, 13, 53, 0
13, 18850, Note_on_c, 13, 60, 112
13, 18970, Note_on_c, 13, 60, 0
13, 18970, Note_on_c, 13, 53, 112
13, 19030, Note_on_c, 13, 53, 0
13, 19330, Control_c, 13, 11, 122
13, 19330, Note_on_c, 13, 48, 112
13, 19348, Control_c, 13, 11, 119
13, 19366, Control_c, 13, 11, 116
13, 19384, Control_c, 13, 11, 113
13, 19402, Control_c, 13, 11, 110
13, 19420, Control_c, 13, 11, 107
13, 19438, Control_c, 13, 11, 104
13, 19930, Note_on_c, 13, 48, 0
13, 19930, Note_on_c, 13, 41, 112
13, 19980, Note_on_c, 13, 41, 0
13, 19990, Control_c, 13, 11, 87
13, 19990, Note_on_c, 13, 57, 112
13, 20050, Note_on_c, 13, 57, 0
13, 20050, Note_on_c, 13, 55, 112
13, 20110, Note_on_c, 13, 55, 0
13, 20110, Note_on_c, 13, 60, 112
13, 20170, Note_on_c, 13, 60, 0
13, 20170, Note_on_c, 13, 59, 112
13, 20230, Note_on_c, 13, 59, 0
13, 20230, Note_on_c, 13, 55, 112
13, 20290, Note_on_c, 13, 55, 0
13, 20290, Note_on_c, 13, 62, 112
13, 20350, Note_on_c, 13, 62, 0
13, 20350, Note_on_c, 13, 55, 112
13, 20410, Note_on_c, 13, 55, 0
13, 20410, Note_on_c, 13, 62, 112
13, 20470, Note_on_c, 13, 62, 0
13, 20470, Note_on_c, 13, 55, 112
13, 20520, Note_on_c, 13, 55, 0
13, 20530, Note_on_c, 13, 60, 112
13, 20590, Note_on_c, 13, 60, 0
13, 20590, Note_on_c, 13, 55, 112
13, 20650, Note_on_c, 13, 55, 0
13, 20650, Note_on_c, 13, 60, 112
13, 20710, Note_on_c, 13, 60, 0
13, 20710, Note_on_c, 13, 55, 112
13, 20760, Note_on_c, 13, 55, 0
13, 20770, Note_on_c, 13, 60, 127
13, 20830, Note_on_c, 13, 60, 0
13, 20890, Note_on_c, 13, 65, 127
13, 20890, Control_c, 13, 11, 107
13, 20899, Control_c, 13, 11, 104
13, 20908, Control_c, 13, 11, 101
13, 20917, Control_c, 13, 11, 98
13, 20926, Control_c, 13, 11, 95
13, 20935, Control_c, 13, 11, 92
13, 20944, Control_c, 13, 11, 89
13, 21070, Note_on_c, 13, 65, 0
13, 21070, Note_on_c, 13, 62, 127
13, 21130, Note_on_c, 13, 62, 0
13, 21130, Note_on_c, 13, 59, 127
13, 21190, Note_on_c, 13, 59, 0
13, 21190, Note_on_c, 13, 55, 127
13, 21240, Note_on_c, 13, 55, 0
13, 21250, Note_on_c, 13, 60, 127
13, 21250, Control_c, 13, 11, 107
13, 21259, Control_c, 13, 11, 104
13, 21268, Control_c, 13, 11, 101
13, 21277, Control_c, 13, 11, 98
13, 21286, Control_c, 13, 11, 95
13, 21295, Control_c, 13, 11, 92
13, 21304, Control_c, 13, 11, 89
13, 21430, Note_on_c, 13, 60, 0
13, 21430, Note_on_c, 13, 55, 112
13, 21490, Note_on_c, 13, 55, 0
13, 21490, Note_on_c, 13, 52, 112
13, 21550, Note_on_c, 13, 52, 0
13, 21550, Note_on_c, 13, 48, 112
13, 21600, Note_on_c, 13, 48, 0
13, 21610, Control_c, 13, 11, 107
13, 21610, Note_on_c, 13, 47, 112
13, 21619, Control_c, 13, 11, 104
13, 21628, Control_c, 13, 11, 101
13, 21637, Control_c, 13, 11, 98
13, 21646, Control_c, 13, 11, 95
13, 21655, Control_c, 13, 11, 92
13, 21664, Control_c, 13, 11, 89
13, 21670, Note_on_c, 13, 47, 0
13, 21670, Note_on_c, 13, 43, 112
13, 21730, Note_on_c, 13, 43, 0
13, 21730, Note_on_c, 13, 47, 112
13, 21790, Note_on_c, 13, 47, 0
13, 21790, Note_on_c, 13, 43, 112
13, 21850, Note_on_c, 13, 43, 0
13, 21850, Note_on_c, 13, 47, 112
13, 21910, Note_on_c, 13, 47, 0
13, 21910, Note_on_c, 13, 43, 112
13, 21960, Note_on_c, 13, 43, 0
13, 21970, Control_c, 13, 11, 107
13, 21970, Note_on_c, 13, 48, 112
13, 21979, Control_c, 13, 11, 104
13, 21988, Control_c, 13, 11, 101
13, 21997, Control_c, 13, 11, 98
13, 22006, Control_c, 13, 11, 95
13, 22015, Control_c, 13, 11, 92
13, 22024, Control_c, 13, 11, 89
13, 22030, Note_on_c, 13, 48, 0
13, 22030, Note_on_c, 13, 36, 112
13, 22090, Note_on_c, 13, 36, 0
13, 22090, Note_on_c, 13, 48, 112
13, 22150, Note_on_c, 13, 48, 0
13, 22150, Note_on_c, 13, 36, 112
13, 22210, Note_on_c, 13, 36, 0
13, 22210, Note_on_c, 13, 48, 112
13, 22270, Note_on_c, 13, 48, 0
13, 22270, Note_on_c, 13, 36, 112
13, 22320, Note_on_c, 13, 36, 0
13, 22330, Note_on_c, 13, 48, 112
13, 22330, Control_c, 13, 11, 107
13, 22339, Control_c, 13, 11, 104
13, 22348, Control_c, 13, 11, 101
13, 22357, Control_c, 13, 11, 98
13, 22366, Control_c, 13, 11, 95
13, 22375, Control_c, 13, 11, 92
13, 22384, Control_c, 13, 11, 89
13, 22390, Note_on_c, 13, 48, 0
13, 22390, Note_on_c, 13, 36, 112
13, 22450, Note_on_c, 13, 36, 0
13, 22450, Note_on_c, 13, 48, 112
13, 22510, Note_on_c, 13, 48, 0
13, 22510, Note_on_c, 13, 36, 112
13, 22570, Note_on_c, 13, 36, 0
13, 22570, Note_on_c, 13, 48, 112
13, 22630, Note_on_c, 13, 48, 0
13, 22630, Note_on_c, 13, 36, 112
13, 22680, Note_on_c, 13, 36, 0
13, 22690, Control_c, 13, 11, 107
13, 22690, Note_on_c, 13, 48, 112
13, 22699, Control_c, 13, 11, 104
13, 22708, Control_c, 13, 11, 101
13, 22717, Control_c, 13, 11, 98
13, 22726, Control_c, 13, 11, 95
13, 22735, Control_c, 13, 11, 92
13, 22744, Control_c, 13, 11, 89
13, 22750, Note_on_c, 13, 48, 0
13, 22750, Note_on_c, 13, 41, 112
13, 22810, Note_on_c, 13, 41, 0
13, 22810, Note_on_c, 13, 48, 112
13, 22870, Note_on_c, 13, 48, 0
13, 22870, Note_on_c, 13, 41, 112
13, 22930, Note_on_c, 13, 41, 0
13, 22930, Control_c, 13, 11, 87
13, 22930, Note_on_c, 13, 48, 112
13, 22948, Control_c, 13, 11, 84
13, 22966, Control_c, 13, 11, 81
13, 22984, Control_c, 13, 11, 78
13, 22990, Note_on_c, 13, 48, 0
13, 22990, Note_on_c, 13, 41, 112
13, 23002, Control_c, 13, 11, 75
13, 23020, Control_c, 13, 11, 72
13, 23038, Control_c, 13, 11, 69
13, 23040, Note_on_c, 13, 41, 0
13, 23050, Note_on_c, 13, 53, 76
13, 23110, Note_on_c, 13, 53, 0
13, 23169, Program_c, 13, 45
13, 23170, Control_c, 13, 11, 100
13, 23170, Note_on_c, 13, 53, 49
13, 23230, Note_on_c, 13, 53, 0
13, 23410, Note_on_c, 13, 53, 47
13, 23530, Note_on_c, 13, 53, 0
13, 23530, Note_on_c, 13, 53, 45
13, 23650, Note_on_c, 13, 53, 0
13, 23770, Note_on_c, 13, 53, 43
13, 23890, Note_on_c, 13, 53, 0
13, 23890, Note_on_c, 13, 53, 41
13, 24010, Note_on_c, 13, 53, 0
13, 24130, Note_on_c, 13, 53, 39
13, 24250, Note_on_c, 13, 53, 0
13, 24250, Note_on_c, 13, 53, 37
13, 24369, Program_c, 13, 48
13, 24370, Note_on_c, 13, 53, 0
13, 24370, Note_on_c, 13, 58, 92
13, 24370, Control_c, 13, 11, 32
13, 24430, Note_on_c, 13, 58, 0
13, 24610, Note_on_c, 13, 58, 92
13, 24670, Note_on_c, 13, 58, 0
13, 24850, Note_on_c, 13, 58, 92
13, 24910, Note_on_c, 13, 58, 0
13, 25090, Control_c, 13, 11, 32
13, 25090, Note_on_c, 13, 46, 112
13, 25150, Note_on_c, 13, 46, 0
13, 25150, Note_on_c, 13, 53, 112
13, 25210, Note_on_c, 13, 53, 0
13, 25210, Note_on_c, 13, 48, 112
13, 25270, Note_on_c, 13, 48, 0
13, 25270, Note_on_c, 13, 53, 112
13, 25330, Note_on_c, 13, 53, 0
13, 25330, Note_on_c, 13, 48, 112
13, 25390, Note_on_c, 13, 48, 0
13, 25390, Note_on_c, 13, 53, 112
13, 25450, Note_on_c, 13, 53, 0
13, 25450, Note_on_c, 13, 51, 112
13, 25510, Note_on_c, 13, 51, 0
13, 25510, Note_on_c, 13, 53, 112
13, 25570, Note_on_c, 13, 53, 0
13, 25570, Note_on_c, 13, 50, 112
13, 25630, Note_on_c, 13, 50, 0
13, 25630, Note_on_c, 13, 53, 112
13, 25690, Note_on_c, 13, 53, 0
13, 25690, Note_on_c, 13, 46, 112
13, 25750, Note_on_c, 13, 46, 0
13, 25750, Note_on_c, 13, 50, 112
13, 25810, Note_on_c, 13, 50, 0
13, 25810, Note_on_c, 13, 46, 112
13, 25870, Note_on_c, 13, 46, 0
13, 25870, Note_on_c, 13, 45, 112
13, 25930, Note_on_c, 13, 45, 0
13, 25930, Note_on_c, 13, 43, 112
13, 25990, Note_on_c, 13, 43, 0
13, 25990, Note_on_c, 13, 55, 112
13, 26040, Note_on_c, 13, 55, 0
13, 26050, Note_on_c, 13, 55, 112
13, 26110, Note_on_c, 13, 55, 0
13, 26110, Note_on_c, 13, 48, 112
13, 26170, Note_on_c, 13, 48, 0
13, 26170, Note_on_c, 13, 55, 112
13, 26230, Note_on_c, 13, 55, 0
13, 26230, Note_on_c, 13, 48, 112
13, 26290, Note_on_c, 13, 48, 0
13, 26290, Note_on_c, 13, 57, 112
13, 26350, Note_on_c, 13, 57, 0
13, 26350, Note_on_c, 13, 48, 112
13, 26410, Note_on_c, 13, 48, 0
13, 26410, Note_on_c, 13, 53, 112
13, 26470, Note_on_c, 13, 53, 0
13, 26470, Note_on_c, 13, 48, 112
13, 26520, Note_on_c, 13, 48, 0
13, 26530, Control_c, 13, 11, 37
13, 26530, Note_on_c, 13, 41, 112
13, 26552, Control_c, 13, 11, 38
13, 26575, Control_c, 13, 11, 39
13, 26590, Note_on_c, 13, 41, 0
13, 26590, Note_on_c, 13, 36, 112
13, 26598, Control_c, 13, 11, 40
13, 26621, Control_c, 13, 11, 41
13, 26643, Control_c, 13, 11, 42
13, 26650, Note_on_c, 13, 36, 0
13, 26650, Note_on_c, 13, 43, 112
13, 26666, Control_c, 13, 11, 43
13, 26689, Control_c, 13, 11, 44
13, 26710, Note_on_c, 13, 43, 0
13, 26710, Note_on_c, 13, 36, 112
13, 26712, Control_c, 13, 11, 45
13, 26735, Control_c, 13, 11, 46
13, 26757, Control_c, 13, 11, 47
13, 26770, Note_on_c, 13, 36, 0
13, 26770, Note_on_c, 13, 43, 112
13, 26780, Control_c, 13, 11, 48
13, 26803, Control_c, 13, 11, 49
13, 26826, Control_c, 13, 11, 50
13, 26830, Note_on_c, 13, 43, 0
13, 26830, Note_on_c, 13, 36, 112
13, 26848, Control_c, 13, 11, 51
13, 26871, Control_c, 13, 11, 52
13, 26880, Note_on_c, 13, 36, 0
13, 26890, Note_on_c, 13, 46, 112
13, 26894, Control_c, 13, 11, 53
13, 26917, Control_c, 13, 11, 54
13, 26940, Control_c, 13, 11, 55
13, 26950, Note_on_c, 13, 46, 0
13, 26950, Note_on_c, 13, 36, 112
13, 26962, Control_c, 13, 11, 56
13, 26985, Control_c, 13, 11, 57
13, 27008, Control_c, 13, 11, 58
13, 27010, Note_on_c, 13, 36, 0
13, 27010, Note_on_c, 13, 45, 112
13, 27031, Control_c, 13, 11, 59
13, 27053, Control_c, 13, 11, 60
13, 27070, Note_on_c, 13, 45, 0
13, 27070, Note_on_c, 13, 36, 112
13, 27076, Control_c, 13, 11, 61
13, 27099, Control_c, 13, 11, 62
13, 27122, Control_c, 13, 11, 63
13, 27130, Note_on_c, 13, 36, 0
13, 27130, Note_on_c, 13, 45, 112
13, 27145, Control_c, 13, 11, 64
13, 27167, Control_c, 13, 11, 65
13, 27190, Note_on_c, 13, 45, 0
13, 27190, Note_on_c, 13, 36, 112
13, 27190, Control_c, 13, 11, 66
13, 27213, Control_c, 13, 11, 67
13, 27236, Control_c, 13, 11, 68
13, 27250, Note_on_c, 13, 36, 0
13, 27250, Note_on_c, 13, 45, 112
13, 27258, Control_c, 13, 11, 69
13, 27281, Control_c, 13, 11, 70
13, 27304, Control_c, 13, 11, 71
13, 27310, Note_on_c, 13, 45, 0
13, 27310, Note_on_c, 13, 36, 112
13, 27327, Control_c, 13, 11, 72
13, 27350, Control_c, 13, 11, 73
13, 27370, Note_on_c, 13, 36, 0
13, 27370, Note_on_c, 13, 46, 112
13, 27372, Control_c, 13, 11, 74
13, 27395, Control_c, 13, 11, 75
13, 27418, Control_c, 13, 11, 76
13, 27430, Note_on_c, 13, 46, 0
13, 27430, Note_on_c, 13, 36, 112
13, 27441, Control_c, 13, 11, 77
13, 27463, Control_c, 13, 11, 78
13, 27486, Control_c, 13, 11, 79
13, 27490, Note_on_c, 13, 36, 0
13, 27490, Note_on_c, 13, 46, 112
13, 27509, Control_c, 13, 11, 80
13, 27532, Control_c, 13, 11, 81
13, 27550, Note_on_c, 13, 46, 0
13, 27550, Note_on_c, 13, 45, 112
13, 27555, Control_c, 13, 11, 82
13, 27577, Control_c, 13, 11, 83
13, 27600, Control_c, 13, 11, 84
13, 27610, Note_on_c, 13, 45, 0
13, 27610, Note_on_c, 13, 43, 112
13, 27623, Control_c, 13, 11, 85
13, 27646, Control_c, 13, 11, 86
13, 27660, Note_on_c, 13, 43, 0
13, 27669, Control_c, 13, 11, 87
13, 27670, Note_on_c, 13, 41, 112
13, 27708, Note_on_c, 13, 41, 0
13, 27730, Note_on_c, 13, 41, 112
13, 27730, Control_c, 13, 11, 97
13, 27754, Control_c, 13, 11, 95
13, 27778, Control_c, 13, 11, 93
13, 27790, Note_on_c, 13, 41, 0
13, 27790, Note_on_c, 13, 36, 112
13, 27850, Note_on_c, 13, 36, 0
13, 27850, Note_on_c, 13, 40, 112
13, 27910, Note_on_c, 13, 40, 0
13, 27910, Note_on_c, 13, 38, 112
13, 27970, Note_on_c, 13, 38, 0
13, 27970, Note_on_c, 13, 36, 112
13, 28020, Note_on_c, 13, 36, 0
13, 28030, Note_on_c, 13, 46, 112
13, 28062, Note_on_c, 13, 46, 0
13, 28090, Note_on_c, 13, 46, 112
13, 28150, Note_on_c, 13, 46, 0
13, 28150, Note_on_c, 13, 41, 112
13, 28210, Note_on_c, 13, 41, 0
13, 28210, Note_on_c, 13, 45, 112
13, 28270, Note_on_c, 13, 45, 0
13, 28270, Note_on_c, 13, 43, 112
13, 28330, Note_on_c, 13, 43, 0
13, 28330, Note_on_c, 13, 41, 112
13, 28380, Note_on_c, 13, 41, 0
13, 28390, Control_c, 13, 11, 102
13, 28390, Note_on_c, 13, 63, 112
13, 28428, Note_on_c, 13, 63, 0
13, 28450, Note_on_c, 13, 63, 112
13, 28570, Note_on_c, 13, 63, 0
13, 28570, Note_on_c, 13, 62, 112
13, 28630, Note_on_c, 13, 62, 0
13, 29110, Note_on_c, 13, 60, 112
13, 29155, Note_on_c, 13, 60, 0
13, 29170, Note_on_c, 13, 60, 112
13, 29290, Note_on_c, 13, 60, 0
13, 29290, Note_on_c, 13, 53, 112
13, 29350, Note_on_c, 13, 53, 0
13, 29830, Note_on_c, 13, 60, 112
13, 29875, Note_on_c, 13, 60, 0
13, 29890, Note_on_c, 13, 60, 112
13, 30010, Note_on_c, 13, 60, 0
13, 30010, Note_on_c, 13, 53, 112
13, 30070, Note_on_c, 13, 53, 0
13, 30550, Note_on_c, 13, 60, 112
13, 30595, Note_on_c, 13, 60, 0
13, 30610, Note_on_c, 13, 60, 112
13, 30730, Note_on_c, 13, 60, 0
13, 30730, Note_on_c, 13, 53, 112
13, 30790, Note_on_c, 13, 53, 0
13, 31090, Note_on_c, 13, 60, 112
13, 31210, Note_on_c, 13, 60, 0
13, 31210, Note_on_c, 13, 53, 112
13, 31270, Note_on_c, 13, 53, 0
13, 31570, Control_c, 13, 11, 122
13, 31570, Note_on_c, 13, 48, 112
13, 31588, Control_c, 13, 11, 119
13, 31606, Control_c, 13, 11, 116
13, 31624, Control_c, 13, 11, 113
13, 31642, Control_c, 13, 11, 110
13, 31660, Control_c, 13, 11, 107
13, 31678, Control_c, 13, 11, 104
13, 32170, Note_on_c, 13, 48, 0
13, 32170, Note_on_c, 13, 41, 112
13, 32230, Note_on_c, 13, 41, 0
13, 32230, Control_c, 13, 11, 87
13, 32410, Control_c, 13, 11, 42
13, 32410, Note_on_c, 13, 41, 88
13, 32430, Note_on_c, 13, 41, 0
13, 32450, Note_on_c, 13, 60, 88
13, 32470, Note_on_c, 13, 60, 0
13, 32490, Note_on_c, 13, 57, 88
13, 32510, Note_on_c, 13, 57, 0
13, 32530, Note_on_c, 13, 53, 88
13, 32550, Note_on_c, 13, 53, 0
13, 32570, Note_on_c, 13, 48, 88
13, 32590, Note_on_c, 13, 48, 0
13, 32610, Note_on_c, 13, 45, 88
13, 32630, Note_on_c, 13, 45, 0
13, 32650, Note_on_c, 13, 41, 88
13, 32670, Note_on_c, 13, 41, 0
13, 32690, Note_on_c, 13, 45, 88
13, 32710, Note_on_c, 13, 45, 0
13, 32730, Note_on_c, 13, 48, 88
13, 32750, Note_on_c, 13, 48, 0
13, 32770, Note_on_c, 13, 41, 88
13, 32790, Note_on_c, 13, 41, 0
13, 32810, Note_on_c, 13, 45, 88
13, 32830, Note_on_c, 13, 45, 0
13, 32850, Note_on_c, 13, 48, 88
13, 32870, Note_on_c, 13, 48, 0
13, 32890, Note_on_c, 13, 41, 88
13, 32910, Note_on_c, 13, 41, 0
13, 32930, Note_on_c, 13, 45, 88
13, 32950, Note_on_c, 13, 45, 0
13, 32970, Note_on_c, 13, 48, 88
13, 32990, Note_on_c, 13, 48, 0
13, 33010, Note_on_c, 13, 53, 88
13, 33030, Note_on_c, 13, 53, 0
13, 33050, Note_on_c, 13, 48, 88
13, 33070, Note_on_c, 13, 48, 0
13, 33090, Note_on_c, 13, 45, 88
13, 33110, Note_on_c, 13, 45, 0
13, 33130, Note_on_c, 13, 41, 88
13, 33150, Note_on_c, 13, 41, 0
13, 33170, Note_on_c, 13, 60, 88
13, 33190, Note_on_c, 13, 60, 0
13, 33210, Note_on_c, 13, 57, 88
13, 33230, Note_on_c, 13, 57, 0
13, 33250, Control_c, 13, 11, 42
13, 33250, Note_on_c, 13, 53, 88
13, 33270, Note_on_c, 13, 53, 0
13, 33274, Control_c, 13, 11, 43
13, 33290, Note_on_c, 13, 48, 88
13, 33298, Control_c, 13, 11, 44
13, 33310, Note_on_c, 13, 48, 0
13, 33322, Control_c, 13, 11, 45
13, 33330, Note_on_c, 13, 45, 88
13, 33346, Control_c, 13, 11, 46
13, 33350, Note_on_c, 13, 45, 0
13, 33370, Control_c, 13, 11, 47
13, 33370, Note_on_c, 13, 48, 88
13, 33390, Note_on_c, 13, 48, 0
13, 33394, Control_c, 13, 11, 48
13, 33410, Note_on_c, 13, 45, 88
13, 33418, Control_c, 13, 11, 49
13, 33430, Note_on_c, 13, 45, 0
13, 33442, Control_c, 13, 11, 50
13, 33450, Note_on_c, 13, 41, 88
13, 33466, Control_c, 13, 11, 51
13, 33470, Note_on_c, 13, 41, 0
13, 33490, Control_c, 13, 11, 52
13, 33490, Note_on_c, 13, 40, 88
13, 33510, Note_on_c, 13, 40, 0
13, 33514, Control_c, 13, 11, 53
13, 33530, Note_on_c, 13, 52, 88
13, 33538, Control_c, 13, 11, 54
13, 33550, Note_on_c, 13, 52, 0
13, 33562, Control_c, 13, 11, 55
13, 33570, Note_on_c, 13, 52, 88
13, 33586, Control_c, 13, 11, 56
13, 33590, Note_on_c, 13, 52, 0
13, 33610, Note_on_c, 13, 43, 88
13, 33610, Control_c, 13, 11, 57
13, 33630, Note_on_c, 13, 43, 0
13, 33650, Control_c, 13, 11, 42
13, 33650, Note_on_c, 13, 55, 88
13, 33670, Note_on_c, 13, 55, 0
13, 33690, Note_on_c, 13, 55, 88
13, 33710, Note_on_c, 13, 55, 0
13, 33730, Note_on_c, 13, 36, 88
13, 33750, Note_on_c, 13, 36, 0
13, 33770, Note_on_c, 13, 48, 88
13, 33790, Note_on_c, 13, 48, 0
13, 33810, Note_on_c, 13, 48, 88
13, 33830, Note_on_c, 13, 48, 0
13, 33850, Note_on_c, 13, 41, 88
13, 33850, Control_c, 13, 11, 42
13, 33870, Note_on_c, 13, 41, 0
13, 33874, Control_c, 13, 11, 43
13, 33890, Note_on_c, 13, 60, 88
13, 33898, Control_c, 13, 11, 44
13, 33910, Note_on_c, 13, 60, 0
13, 33922, Control_c, 13, 11, 45
13, 33930, Note_on_c, 13, 57, 88
13, 33946, Control_c, 13, 11, 46
13, 33950, Note_on_c, 13, 57, 0
13, 33970, Note_on_c, 13, 53, 88
13, 33970, Control_c, 13, 11, 47
13, 33990, Note_on_c, 13, 53, 0
13, 33994, Control_c, 13, 11, 48
13, 34010, Note_on_c, 13, 48, 88
13, 34018, Control_c, 13, 11, 49
13, 34030, Note_on_c, 13, 48, 0
13, 34042, Control_c, 13, 11, 50
13, 34050, Note_on_c, 13, 45, 88
13, 34066, Control_c, 13, 11, 51
13, 34070, Note_on_c, 13, 45, 0
13, 34090, Note_on_c, 13, 41, 88
13, 34090, Control_c, 13, 11, 52
13, 34110, Note_on_c, 13, 41, 0
13, 34114, Control_c, 13, 11, 53
13, 34130, Note_on_c, 13, 45, 88
13, 34138, Control_c, 13, 11, 54
13, 34150, Note_on_c, 13, 45, 0
13, 34162, Control_c, 13, 11, 55
13, 34170, Note_on_c, 13, 41, 88
13, 34186, Control_c, 13, 11, 56
13, 34190, Note_on_c, 13, 41, 0
13, 34210, Note_on_c, 13, 38, 88
13, 34210, Control_c, 13, 11, 57
13, 34230, Note_on_c, 13, 38, 0
13, 34250, Note_on_c, 13, 50, 88
13, 34270, Note_on_c, 13, 50, 0
13, 34290, Note_on_c, 13, 50, 88
13, 34310, Note_on_c, 13, 50, 0
13, 34330, Note_on_c, 13, 38, 88
13, 34350, Note_on_c, 13, 38, 0
13, 34370, Note_on_c, 13, 50, 88
13, 34390, Note_on_c, 13, 50, 0
13, 34410, Note_on_c, 13, 52, 88
13, 34430, Note_on_c, 13, 52, 0
13, 34450, Note_on_c, 13, 41, 88
13, 34470, Note_on_c, 13, 41, 0
13, 34490, Note_on_c, 13, 53, 76
13, 34510, Note_on_c, 13, 53, 0
13, 34530, Note_on_c, 13, 54, 76
13, 34550, Note_on_c, 13, 54, 0
13, 34570, Note_on_c, 13, 43, 88
13, 34590, Note_on_c, 13, 43, 0
13, 34610, Note_on_c, 13, 55, 76
13, 34630, Note_on_c, 13, 55, 0
13, 34650, Note_on_c, 13, 55, 76
13, 34670, Note_on_c, 13, 55, 0
13, 34690, Note_on_c, 13, 43, 88
13, 34710, Note_on_c, 13, 43, 0
13, 34730, Note_on_c, 13, 55, 76
13, 34750, Note_on_c, 13, 55, 0
13, 34770, Note_on_c, 13, 55, 76
13, 34790, Note_on_c, 13, 55, 0
13, 34810, Note_on_c, 13, 43, 88
13, 34830, Note_on_c, 13, 43, 0
13, 34850, Note_on_c, 13, 55, 76
13, 34870, Note_on_c, 13, 55, 0
13, 34890, Note_on_c, 13, 55, 76
13, 34910, Note_on_c, 13, 55, 0
13, 34930, Note_on_c, 13, 36, 88
13, 34950, Note_on_c, 13, 36, 0
13, 34970, Note_on_c, 13, 48, 88
13, 34990, Note_on_c, 13, 48, 0
13, 35010, Note_on_c, 13, 48, 88
13, 35030, Note_on_c, 13, 48, 0
13, 35050, Note_on_c, 13, 58, 88
13, 35050, Control_c, 13, 11, 57
13, 35066, Control_c, 13, 11, 56
13, 35070, Note_on_c, 13, 58, 0
13, 35082, Control_c, 13, 11, 55
13, 35090, Note_on_c, 13, 55, 88
13, 35098, Control_c, 13, 11, 54
13, 35110, Note_on_c, 13, 55, 0
13, 35114, Control_c, 13, 11, 53
13, 35130, Note_on_c, 13, 52, 88
13, 35130, Control_c, 13, 11, 52
13, 35146, Control_c, 13, 11, 51
13, 35150, Note_on_c, 13, 52, 0
13, 35162, Control_c, 13, 11, 50
13, 35170, Note_on_c, 13, 48, 88
13, 35178, Control_c, 13, 11, 49
13, 35190, Note_on_c, 13, 48, 0
13, 35194, Control_c, 13, 11, 48
13, 35210, Control_c, 13, 11, 47
13, 35210, Note_on_c, 13, 46, 88
13, 35226, Control_c, 13, 11, 46
13, 35230, Note_on_c, 13, 46, 0
13, 35242, Control_c, 13, 11, 45
13, 35250, Note_on_c, 13, 43, 88
13, 35258, Control_c, 13, 11, 44
13, 35270, Note_on_c, 13, 43, 0
13, 35274, Control_c, 13, 11, 43
13, 35290, Control_c, 13, 11, 42
13, 35290, Note_on_c, 13, 41, 88
13, 35310, Note_on_c, 13, 41, 0
13, 35330, Note_on_c, 13, 60, 88
13, 35350, Note_on_c, 13, 60, 0
13, 35370, Note_on_c, 13, 57, 88
13, 35390, Note_on_c, 13, 57, 0
13, 35410, Note_on_c, 13, 53, 88
13, 35430, Note_on_c, 13, 53, 0
13, 35450, Note_on_c, 13, 48, 88
13, 35470, Note_on_c, 13, 48, 0
13, 35490, Note_on_c, 13, 45, 88
13, 35510, Note_on_c, 13, 45, 0
13, 35530, Note_on_c, 13, 41, 88
13, 35550, Note_on_c, 13, 41, 0
13, 35570, Note_on_c, 13, 45, 88
13, 35590, Note_on_c, 13, 45, 0
13, 35610, Note_on_c, 13, 48, 88
13, 35630, Note_on_c, 13, 48, 0
13, 35650, Note_on_c, 13, 41, 88
13, 35670, Note_on_c, 13, 41, 0
13, 35690, Note_on_c, 13, 45, 88
13, 35710, Note_on_c, 13, 45, 0
13, 35730, Note_on_c, 13, 48, 88
13, 35750, Note_on_c, 13, 48, 0
13, 35770, Note_on_c, 13, 41, 88
13, 35790, Note_on_c, 13, 41, 0
13, 35810, Note_on_c, 13, 45, 88
13, 35830, Note_on_c, 13, 45, 0
13, 35850, Note_on_c, 13, 48, 88
13, 35870, Note_on_c, 13, 48, 0
13, 35890, Note_on_c, 13, 53, 88
13, 35910, Note_on_c, 13, 53, 0
13, 35930, Note_on_c, 13, 48, 88
13, 35950, Note_on_c, 13, 48, 0
13, 35970, Note_on_c, 13, 45, 88
13, 35990, Note_on_c, 13, 45, 0
13, 36010, Note_on_c, 13, 41, 88
13, 36030, Note_on_c, 13, 41, 0
13, 36050, Note_on_c, 13, 60, 88
13, 36070, Note_on_c, 13, 60, 0
13, 36090, Note_on_c, 13, 57, 88
13, 36110, Note_on_c, 13, 57, 0
13, 36130, Control_c, 13, 11, 42
13, 36130, Note_on_c, 13, 53, 88
13, 36150, Note_on_c, 13, 53, 0
13, 36154, Control_c, 13, 11, 43
13, 36170, Note_on_c, 13, 48, 88
13, 36178, Control_c, 13, 11, 44
13, 36190, Note_on_c, 13, 48, 0
13, 36202, Control_c, 13, 11, 45
13, 36210, Note_on_c, 13, 45, 88
13, 36226, Control_c, 13, 11, 46
13, 36230, Note_on_c, 13, 45, 0
13, 36250, Note_on_c, 13, 48, 88
13, 36250, Control_c, 13, 11, 47
13, 36270, Note_on_c, 13, 48, 0
13, 36274, Control_c, 13, 11, 48
13, 36290, Note_on_c, 13, 45, 88
13, 36298, Control_c, 13, 11, 49
13, 36310, Note_on_c, 13, 45, 0
13, 36322, Control_c, 13, 11, 50
13, 36330, Note_on_c, 13, 41, 88
13, 36346, Control_c, 13, 11, 51
13, 36350, Note_on_c, 13, 41, 0
13, 36370, Control_c, 13, 11, 52
13, 36370, Note_on_c, 13, 40, 88
13, 36390, Note_on_c, 13, 40, 0
13, 36394, Control_c, 13, 11, 53
13, 36410, Note_on_c, 13, 52, 88
13, 36418, Control_c, 13, 11, 54
13, 36430, Note_on_c, 13, 52, 0
13, 36442, Control_c, 13, 11, 55
13, 36450, Note_on_c, 13, 52, 88
13, 36466, Control_c, 13, 11, 56
13, 36470, Note_on_c, 13, 52, 0
13, 36490, Control_c, 13, 11, 57
13, 36490, Note_on_c, 13, 43, 88
13, 36510, Note_on_c, 13, 43, 0
13, 36530, Control_c, 13, 11, 42
13, 36530, Note_on_c, 13, 55, 88
13, 36550, Note_on_c, 13, 55, 0
13, 36570, Note_on_c, 13, 55, 88
13, 36590, Note_on_c, 13, 55, 0
13, 36610, Note_on_c, 13, 36, 88
13, 36630, Note_on_c, 13, 36, 0
13, 36650, Note_on_c, 13, 48, 88
13, 36670, Note_on_c, 13, 48, 0
13, 36690, Note_on_c, 13, 48, 88
13, 36710, Note_on_c, 13, 48, 0
13, 36730, Note_on_c, 13, 41, 88
13, 36730, Control_c, 13, 11, 42
13, 36750, Note_on_c, 13, 41, 0
13, 36754, Control_c, 13, 11, 43
13, 36770, Note_on_c, 13, 60, 88
13, 36778, Control_c, 13, 11, 44
13, 36790, Note_on_c, 13, 60, 0
13, 36802, Control_c, 13, 11, 45
13, 36810, Note_on_c, 13, 57, 88
13, 36826, Control_c, 13, 11, 46
13, 36830, Note_on_c, 13, 57, 0
13, 36850, Note_on_c, 13, 53, 88
13, 36850, Control_c, 13, 11, 47
13, 36870, Note_on_c, 13, 53, 0
13, 36874, Control_c, 13, 11, 48
13, 36890, Note_on_c, 13, 48, 88
13, 36898, Control_c, 13, 11, 49
13, 36910, Note_on_c, 13, 48, 0
13, 36922, Control_c, 13, 11, 50
13, 36930, Note_on_c, 13, 45, 88
13, 36946, Control_c, 13, 11, 51
13, 36950, Note_on_c, 13, 45, 0
13, 36970, Note_on_c, 13, 41, 88
13, 36970, Control_c, 13, 11, 52
13, 36990, Note_on_c, 13, 41, 0
13, 36994, Control_c, 13, 11, 53
13, 37010, Note_on_c, 13, 45, 88
13, 37018, Control_c, 13, 11, 54
13, 37030, Note_on_c, 13, 45, 0
13, 37042, Control_c, 13, 11, 55
13, 37050, Note_on_c, 13, 41, 88
13, 37066, Control_c, 13, 11, 56
13, 37070, Note_on_c, 13, 41, 0
13, 37090, Note_on_c, 13, 38, 88
13, 37090, Control_c, 13, 11, 57
13, 37110, Note_on_c, 13, 38, 0
13, 37130, Note_on_c, 13, 50, 88
13, 37150, Note_on_c, 13, 50, 0
13, 37170, Note_on_c, 13, 50, 88
13, 37190, Note_on_c, 13, 50, 0
13, 37210, Note_on_c, 13, 38, 88
13, 37230, Note_on_c, 13, 38, 0
13, 37250, Note_on_c, 13, 50, 88
13, 37270, Note_on_c, 13, 50, 0
13, 37290, Note_on_c, 13, 52, 88
13, 37310, Note_on_c, 13, 52, 0
13, 37330, Note_on_c, 13, 41, 88
13, 37350, Note_on_c, 13, 41, 0
13, 37370, Note_on_c, 13, 53, 76
13, 37390, Note_on_c, 13, 53, 0
13, 37410, Note_on_c, 13, 54, 76
13, 37430, Note_on_c, 13, 54, 0
13, 37450, Note_on_c, 13, 43, 88
13, 37470, Note_on_c, 13, 43, 0
13, 37490, Note_on_c, 13, 55, 76
13, 37510, Note_on_c, 13, 55, 0
13, 37530, Note_on_c, 13, 55, 76
13, 37550, Note_on_c, 13, 55, 0
13, 37570, Note_on_c, 13, 43, 88
13, 37590, Note_on_c, 13, 43, 0
13, 37610, Note_on_c, 13, 55, 76
13, 37630, Note_on_c, 13, 55, 0
13, 37650, Note_on_c, 13, 55, 76
13, 37670, Note_on_c, 13, 55, 0
13, 37690, Note_on_c, 13, 43, 88
13, 37710, Note_on_c, 13, 43, 0
13, 37730, Note_on_c, 13, 55, 76
13, 37750, Note_on_c, 13, 55, 0
13, 37770, Note_on_c, 13, 55, 76
13, 37790, Note_on_c, 13, 55, 0
13, 37810, Note_on_c, 13, 36, 88
13, 37830, Note_on_c, 13, 36, 0
13, 37850, Note_on_c, 13, 48, 88
13, 37870, Note_on_c, 13, 48, 0
13, 37890, Note_on_c, 13, 48, 88
13, 37910, Note_on_c, 13, 48, 0
13, 37930, Note_on_c, 13, 48, 88
13, 37930, Control_c, 13, 11, 57
13, 37946, Control_c, 13, 11, 56
13, 37950, Note_on_c, 13, 48, 0
13, 37962, Control_c, 13, 11, 55
13, 37970, Note_on_c, 13, 52, 88
13, 37978, Control_c, 13, 11, 54
13, 37990, Note_on_c, 13, 52, 0
13, 37994, Control_c, 13, 11, 53
13, 38010, Control_c, 13, 11, 52
13, 38010, Note_on_c, 13, 55, 88
13, 38026, Control_c, 13, 11, 51
13, 38030, Note_on_c, 13, 55, 0
13, 38042, Control_c, 13, 11, 50
13, 38050, Note_on_c, 13, 53, 88
13, 38058, Control_c, 13, 11, 49
13, 38070, Note_on_c, 13, 53, 0
13, 38074, Control_c, 13, 11, 48
13, 38090, Control_c, 13, 11, 47
13, 38090, Note_on_c, 13, 50, 88
13, 38106, Control_c, 13, 11, 46
13, 38110, Note_on_c, 13, 50, 0
13, 38122, Control_c, 13, 11, 45
13, 38130, Note_on_c, 13, 55, 88
13, 38138, Control_c, 13, 11, 44
13, 38150, Note_on_c, 13, 55, 0
13, 38154, Control_c, 13, 11, 43
13, 38170, Control_c, 13, 11, 47
13, 38170, Note_on_c, 13, 48, 88
13, 38190, Note_on_c, 13, 48, 0
13, 38210, Note_on_c, 13, 60, 88
13, 38230, Note_on_c, 13, 60, 0
13, 38250, Note_on_c, 13, 55, 88
13, 38270, Note_on_c, 13, 55, 0
13, 38290, Note_on_c, 13, 52, 88
13, 38310, Note_on_c, 13, 52, 0
13, 38330, Note_on_c, 13, 48, 88
13, 38350, Note_on_c, 13, 48, 0
13, 38370, Note_on_c, 13, 43, 88
13, 38390, Note_on_c, 13, 43, 0
13, 38410, Note_on_c, 13, 36, 88
13, 38430, Note_on_c, 13, 36, 0
13, 38450, Note_on_c, 13, 43, 88
13, 38470, Note_on_c, 13, 43, 0
13, 38490, Note_on_c, 13, 48, 88
13, 38510, Note_on_c, 13, 48, 0
13, 38530, Note_on_c, 13, 36, 88
13, 38550, Note_on_c, 13, 36, 0
13, 38570, Note_on_c, 13, 40, 88
13, 38590, Note_on_c, 13, 40, 0
13, 38610, Note_on_c, 13, 43, 88
13, 38630, Note_on_c, 13, 43, 0
13, 38650, Note_on_c, 13, 48, 88
13, 38670, Note_on_c, 13, 48, 0
13, 38690, Note_on_c, 13, 52, 88
13, 38710, Note_on_c, 13, 52, 0
13, 38730, Note_on_c, 13, 55, 88
13, 38750, Note_on_c, 13, 55, 0
13, 38770, Note_on_c, 13, 60, 88
13, 38790, Note_on_c, 13, 60, 0
13, 38810, Note_on_c, 13, 48, 88
13, 38830, Note_on_c, 13, 48, 0
13, 38850, Note_on_c, 13, 60, 88
13, 38870, Note_on_c, 13, 60, 0
13, 38890, Note_on_c, 13, 48, 88
13, 38910, Note_on_c, 13, 48, 0
13, 38930, Note_on_c, 13, 60, 88
13, 38950, Note_on_c, 13, 60, 0
13, 38970, Note_on_c, 13, 55, 88
13, 38990, Note_on_c, 13, 55, 0
13, 39010, Note_on_c, 13, 51, 88
13, 39030, Note_on_c, 13, 51, 0
13, 39050, Note_on_c, 13, 48, 88
13, 39070, Note_on_c, 13, 48, 0
13, 39090, Note_on_c, 13, 43, 88
13, 39110, Note_on_c, 13, 43, 0
13, 39130, Note_on_c, 13, 36, 88
13, 39150, Note_on_c, 13, 36, 0
13, 39170, Note_on_c, 13, 43, 88
13, 39190, Note_on_c, 13, 43, 0
13, 39210, Note_on_c, 13, 48, 88
13, 39230, Note_on_c, 13, 48, 0
13, 39250, Note_on_c, 13, 36, 88
13, 39270, Note_on_c, 13, 36, 0
13, 39290, Note_on_c, 13, 39, 88
13, 39310, Note_on_c, 13, 39, 0
13, 39330, Note_on_c, 13, 43, 88
13, 39350, Note_on_c, 13, 43, 0
13, 39370, Note_on_c, 13, 48, 88
13, 39390, Note_on_c, 13, 48, 0
13, 39410, Note_on_c, 13, 51, 88
13, 39430, Note_on_c, 13, 51, 0
13, 39450, Note_on_c, 13, 55, 88
13, 39470, Note_on_c, 13, 55, 0
13, 39490, Note_on_c, 13, 60, 88
13, 39510, Note_on_c, 13, 60, 0
13, 39530, Note_on_c, 13, 48, 88
13, 39550, Note_on_c, 13, 48, 0
13, 39570, Note_on_c, 13, 60, 88
13, 39590, Note_on_c, 13, 60, 0
13, 39610, Note_on_c, 13, 44, 88
13, 39610, Control_c, 13, 11, 47
13, 39630, Note_on_c, 13, 44, 0
13, 39637, Control_c, 13, 11, 48
13, 39650, Note_on_c, 13, 60, 88
13, 39664, Control_c, 13, 11, 49
13, 39670, Note_on_c, 13, 60, 0
13, 39690, Note_on_c, 13, 56, 88
13, 39691, Control_c, 13, 11, 50
13, 39710, Note_on_c, 13, 56, 0
13, 39718, Control_c, 13, 11, 51
13, 39730, Note_on_c, 13, 51, 88
13, 39745, Control_c, 13, 11, 52
13, 39750, Note_on_c, 13, 51, 0
13, 39770, Note_on_c, 13, 48, 88
13, 39772, Control_c, 13, 11, 53
13, 39790, Note_on_c, 13, 48, 0
13, 39799, Control_c, 13, 11, 54
13, 39810, Note_on_c, 13, 44, 88
13, 39826, Control_c, 13, 11, 55
13, 39830, Note_on_c, 13, 44, 0
13, 39850, Note_on_c, 13, 39, 88
13, 39853, Control_c, 13, 11, 56
13, 39870, Note_on_c, 13, 39, 0
13, 39880, Control_c, 13, 11, 57
13, 39890, Note_on_c, 13, 36, 88
13, 39907, Control_c, 13, 11, 58
13, 39910, Note_on_c, 13, 36, 0
13, 39930, Note_on_c, 13, 44, 88
13, 39934, Control_c, 13, 11, 59
13, 39950, Note_on_c, 13, 44, 0
13, 39961, Control_c, 13, 11, 60
13, 39970, Note_on_c, 13, 37, 88
13, 39988, Control_c, 13, 11, 61
13, 39990, Note_on_c, 13, 37, 0
13, 40010, Note_on_c, 13, 41, 88
13, 40015, Control_c, 13, 11, 62
13, 40030, Note_on_c, 13, 41, 0
13, 40042, Control_c, 13, 11, 63
13, 40050, Note_on_c, 13, 46, 88
13, 40069, Control_c, 13, 11, 64
13, 40070, Note_on_c, 13, 46, 0
13, 40090, Note_on_c, 13, 49, 88
13, 40096, Control_c, 13, 11, 65
13, 40110, Note_on_c, 13, 49, 0
13, 40123, Control_c, 13, 11, 66
13, 40130, Note_on_c, 13, 53, 88
13, 40150, Note_on_c, 13, 53, 0
13, 40150, Control_c, 13, 11, 67
13, 40170, Note_on_c, 13, 58, 88
13, 40177, Control_c, 13, 11, 68
13, 40190, Note_on_c, 13, 58, 0
13, 40204, Control_c, 13, 11, 69
13, 40210, Note_on_c, 13, 61, 88
13, 40230, Note_on_c, 13, 61, 0
13, 40231, Control_c, 13, 11, 70
13, 40250, Note_on_c, 13, 49, 88
13, 40258, Control_c, 13, 11, 71
13, 40270, Note_on_c, 13, 49, 0
13, 40285, Control_c, 13, 11, 72
13, 40290, Note_on_c, 13, 61, 88
13, 40310, Note_on_c, 13, 61, 0
13, 40312, Control_c, 13, 11, 73
13, 40330, Note_on_c, 13, 39, 88
13, 40339, Control_c, 13, 11, 74
13, 40350, Note_on_c, 13, 39, 0
13, 40366, Control_c, 13, 11, 75
13, 40370, Note_on_c, 13, 44, 88
13, 40390, Note_on_c, 13, 44, 0
13, 40393, Control_c, 13, 11, 76
13, 40410, Note_on_c, 13, 48, 88
13, 40420, Control_c, 13, 11, 77
13, 40430, Note_on_c, 13, 48, 0
13, 40447, Control_c, 13, 11, 78
13, 40450, Note_on_c, 13, 51, 88
13, 40470, Note_on_c, 13, 51, 0
13, 40474, Control_c, 13, 11, 79
13, 40490, Note_on_c, 13, 56, 88
13, 40501, Control_c, 13, 11, 80
13, 40510, Note_on_c, 13, 56, 0
13, 40528, Control_c, 13, 11, 81
13, 40530, Note_on_c, 13, 60, 88
13, 40550, Note_on_c, 13, 60, 0
13, 40555, Control_c, 13, 11, 82
13, 40570, Note_on_c, 13, 63, 88
13, 40582, Control_c, 13, 11, 83
13, 40590, Note_on_c, 13, 63, 0
13, 40609, Control_c, 13, 11, 84
13, 40610, Note_on_c, 13, 51, 88
13, 40630, Note_on_c, 13, 51, 0
13, 40636, Control_c, 13, 11, 85
13, 40650, Note_on_c, 13, 51, 88
13, 40663, Control_c, 13, 11, 86
13, 40670, Note_on_c, 13, 51, 0
13, 40690, Note_on_c, 13, 52, 88
13, 40690, Control_c, 13, 11, 87
13, 40710, Note_on_c, 13, 52, 0
13, 40730, Note_on_c, 13, 40, 88
13, 40750, Note_on_c, 13, 40, 0
13, 40770, Note_on_c, 13, 40, 88
13, 40790, Note_on_c, 13, 40, 0
13, 40810, Note_on_c, 13, 40, 88
13, 40830, Note_on_c, 13, 40, 0
13, 40850, Note_on_c, 13, 52, 88
13, 40870, Note_on_c, 13, 52, 0
13, 40890, Note_on_c, 13, 52, 88
13, 40910, Note_on_c, 13, 52, 0
13, 40930, Note_on_c, 13, 48, 88
13, 40950, Note_on_c, 13, 48, 0
13, 40970, Note_on_c, 13, 36, 88
13, 40990, Note_on_c, 13, 36, 0
13, 41010, Note_on_c, 13, 36, 88
13, 41030, Note_on_c, 13, 36, 0
13, 41050, Note_on_c, 13, 41, 88
13, 41050, Control_c, 13, 11, 47
13, 41070, Note_on_c, 13, 41, 0
13, 41090, Note_on_c, 13, 60, 88
13, 41110, Note_on_c, 13, 60, 0
13, 41130, Note_on_c, 13, 57, 88
13, 41150, Note_on_c, 13, 57, 0
13, 41170, Note_on_c, 13, 53, 88
13, 41190, Note_on_c, 13, 53, 0
13, 41210, Note_on_c, 13, 48, 88
13, 41230, Note_on_c, 13, 48, 0
13, 41250, Note_on_c, 13, 45, 88
13, 41270, Note_on_c, 13, 45, 0
13, 41290, Note_on_c, 13, 41, 88
13, 41310, Note_on_c, 13, 41, 0
13, 41330, Note_on_c, 13, 48, 88
13, 41350, Note_on_c, 13, 48, 0
13, 41370, Note_on_c, 13, 53, 88
13, 41390, Note_on_c, 13, 53, 0
13, 41410, Note_on_c, 13, 46, 88
13, 41430, Note_on_c, 13, 46, 0
13, 41450, Note_on_c, 13, 62, 88
13, 41470, Note_on_c, 13, 62, 0
13, 41490, Note_on_c, 13, 58, 88
13, 41510, Note_on_c, 13, 58, 0
13, 41530, Note_on_c, 13, 55, 88
13, 41550, Note_on_c, 13, 55, 0
13, 41570, Note_on_c, 13, 50, 88
13, 41590, Note_on_c, 13, 50, 0
13, 41610, Note_on_c, 13, 46, 88
13, 41630, Note_on_c, 13, 46, 0
13, 41650, Note_on_c, 13, 58, 88
13, 41670, Note_on_c, 13, 58, 0
13, 41690, Note_on_c, 13, 46, 88
13, 41710, Note_on_c, 13, 46, 0
13, 41730, Note_on_c, 13, 46, 88
13, 41750, Note_on_c, 13, 46, 0
13, 41770, Note_on_c, 13, 36, 88
13, 41790, Note_on_c, 13, 36, 0
13, 41810, Note_on_c, 13, 41, 88
13, 41830, Note_on_c, 13, 41, 0
13, 41850, Note_on_c, 13, 45, 88
13, 41870, Note_on_c, 13, 45, 0
13, 41890, Note_on_c, 13, 48, 88
13, 41910, Note_on_c, 13, 48, 0
13, 41930, Note_on_c, 13, 53, 88
13, 41950, Note_on_c, 13, 53, 0
13, 41970, Note_on_c, 13, 57, 88
13, 41990, Note_on_c, 13, 57, 0
13, 42010, Note_on_c, 13, 60, 88
13, 42030, Note_on_c, 13, 60, 0
13, 42050, Note_on_c, 13, 48, 88
13, 42070, Note_on_c, 13, 48, 0
13, 42090, Note_on_c, 13, 48, 88
13, 42110, Note_on_c, 13, 48, 0
13, 42130, Note_on_c, 13, 41, 88
13, 42130, Control_c, 13, 11, 47
13, 42150, Note_on_c, 13, 41, 0
13, 42154, Control_c, 13, 11, 49
13, 42170, Note_on_c, 13, 60, 88
13, 42178, Control_c, 13, 11, 51
13, 42190, Note_on_c, 13, 60, 0
13, 42202, Control_c, 13, 11, 53
13, 42210, Note_on_c, 13, 57, 88
13, 42226, Control_c, 13, 11, 55
13, 42230, Note_on_c, 13, 57, 0
13, 42250, Note_on_c, 13, 53, 88
13, 42250, Control_c, 13, 11, 57
13, 42270, Note_on_c, 13, 53, 0
13, 42274, Control_c, 13, 11, 59
13, 42290, Note_on_c, 13, 48, 88
13, 42298, Control_c, 13, 11, 61
13, 42310, Note_on_c, 13, 48, 0
13, 42322, Control_c, 13, 11, 63
13, 42330, Note_on_c, 13, 43, 88
13, 42346, Control_c, 13, 11, 65
13, 42350, Note_on_c, 13, 43, 0
13, 42370, Note_on_c, 13, 45, 88
13, 42370, Control_c, 13, 11, 87
13, 42376, Control_c, 13, 11, 84
13, 42382, Control_c, 13, 11, 81
13, 42388, Control_c, 13, 11, 78
13, 42390, Note_on_c, 13, 45, 0
13, 42394, Control_c, 13, 11, 75
13, 42400, Control_c, 13, 11, 72
13, 42406, Control_c, 13, 11, 69
13, 42410, Note_on_c, 13, 41, 88
13, 42430, Note_on_c, 13, 41, 0
13, 42450, Note_on_c, 13, 48, 88
13, 42470, Note_on_c, 13, 48, 0
13, 42490, Note_on_c, 13, 41, 88
13, 42510, Note_on_c, 13, 41, 0
13, 42530, Note_on_c, 13, 60, 88
13, 42550, Note_on_c, 13, 60, 0
13, 42570, Note_on_c, 13, 57, 88
13, 42590, Note_on_c, 13, 57, 0
13, 42610, Note_on_c, 13, 53, 88
13, 42630, Note_on_c, 13, 53, 0
13, 42650, Note_on_c, 13, 48, 88
13, 42670, Note_on_c, 13, 48, 0
13, 42690, Note_on_c, 13, 43, 88
13, 42710, Note_on_c, 13, 43, 0
13, 42730, Note_on_c, 13, 45, 88
13, 42730, Control_c, 13, 11, 87
13, 42736, Control_c, 13, 11, 84
13, 42742, Control_c, 13, 11, 81
13, 42748, Control_c, 13, 11, 78
13, 42750, Note_on_c, 13, 45, 0
13, 42754, Control_c, 13, 11, 75
13, 42760, Control_c, 13, 11, 72
13, 42766, Control_c, 13, 11, 69
13, 42770, Note_on_c, 13, 41, 88
13, 42790, Note_on_c, 13, 41, 0
13, 42810, Note_on_c, 13, 48, 88
13, 42830, Note_on_c, 13, 48, 0
13, 42850, Control_c, 13, 11, 47
13, 42850, Note_on_c, 13, 41, 88
13, 42870, Note_on_c, 13, 41, 0
13, 42890, Note_on_c, 13, 60, 88
13, 42910, Note_on_c, 13, 60, 0
13, 42930, Note_on_c, 13, 57, 88
13, 42950, Note_on_c, 13, 57, 0
13, 42970, Note_on_c, 13, 53, 88
13, 42990, Note_on_c, 13, 53, 0
13, 43010, Note_on_c, 13, 48, 88
13, 43030, Note_on_c, 13, 48, 0
13, 43050, Note_on_c, 13, 43, 88
13, 43070, Note_on_c, 13, 43, 0
13, 43090, Note_on_c, 13, 45, 88
13, 43110, Note_on_c, 13, 45, 0
13, 43130, Note_on_c, 13, 41, 88
13, 43150, Note_on_c, 13, 41, 0
13, 43170, Note_on_c, 13, 48, 88
13, 43190, Note_on_c, 13, 48, 0
13, 43210, Note_on_c, 13, 36, 88
13, 43230, Note_on_c, 13, 36, 0
13, 43250, Note_on_c, 13, 40, 88
13, 43270, Note_on_c, 13, 40, 0
13, 43290, Note_on_c, 13, 43, 88
13, 43310, Note_on_c, 13, 43, 0
13, 43330, Note_on_c, 13, 48, 88
13, 43350, Note_on_c, 13, 48, 0
13, 43370, Note_on_c, 13, 52, 88
13, 43390, Note_on_c, 13, 52, 0
13, 43410, Note_on_c, 13, 55, 88
13, 43430, Note_on_c, 13, 55, 0
13, 43450, Note_on_c, 13, 60, 88
13, 43470, Note_on_c, 13, 60, 0
13, 43490, Note_on_c, 13, 48, 88
13, 43510, Note_on_c, 13, 48, 0
13, 43530, Note_on_c, 13, 48, 88
13, 43550, Note_on_c, 13, 48, 0
13, 43570, Note_on_c, 13, 41, 88
13, 43570, Control_c, 13, 11, 47
13, 43590, Note_on_c, 13, 41, 0
13, 43594, Control_c, 13, 11, 49
13, 43610, Note_on_c, 13, 60, 88
13, 43618, Control_c, 13, 11, 51
13, 43630, Note_on_c, 13, 60, 0
13, 43642, Control_c, 13, 11, 53
13, 43650, Note_on_c, 13, 57, 88
13, 43666, Control_c, 13, 11, 55
13, 43670, Note_on_c, 13, 57, 0
13, 43690, Note_on_c, 13, 53, 88
13, 43690, Control_c, 13, 11, 57
13, 43710, Note_on_c, 13, 53, 0
13, 43714, Control_c, 13, 11, 59
13, 43730, Note_on_c, 13, 48, 88
13, 43738, Control_c, 13, 11, 61
13, 43750, Note_on_c, 13, 48, 0
13, 43762, Control_c, 13, 11, 63
13, 43770, Note_on_c, 13, 43, 88
13, 43786, Control_c, 13, 11, 65
13, 43790, Note_on_c, 13, 43, 0
13, 43810, Control_c, 13, 11, 87
13, 43810, Note_on_c, 13, 45, 88
13, 43816, Control_c, 13, 11, 84
13, 43822, Control_c, 13, 11, 81
13, 43828, Control_c, 13, 11, 78
13, 43830, Note_on_c, 13, 45, 0
13, 43834, Control_c, 13, 11, 75
13, 43840, Control_c, 13, 11, 72
13, 43846, Control_c, 13, 11, 69
13, 43850, Note_on_c, 13, 41, 88
13, 43870, Note_on_c, 13, 41, 0
13, 43890, Note_on_c, 13, 48, 88
13, 43910, Note_on_c, 13, 48, 0
13, 43930, Note_on_c, 13, 41, 88
13, 43950, Note_on_c, 13, 41, 0
13, 43970, Note_on_c, 13, 60, 88
13, 43990, Note_on_c, 13, 60, 0
13, 44010, Note_on_c, 13, 57, 88
13, 44030, Note_on_c, 13, 57, 0
13, 44050, Note_on_c, 13, 53, 88
13, 44070, Note_on_c, 13, 53, 0
13, 44090, Note_on_c, 13, 48, 88
13, 44110, Note_on_c, 13, 48, 0
13, 44130, Note_on_c, 13, 43, 88
13, 44150, Note_on_c, 13, 43, 0
13, 44170, Note_on_c, 13, 45, 88
13, 44170, Control_c, 13, 11, 87
13, 44176, Control_c, 13, 11, 84
13, 44182, Control_c, 13, 11, 81
13, 44188, Control_c, 13, 11, 78
13, 44190, Note_on_c, 13, 45, 0
13, 44194, Control_c, 13, 11, 75
13, 44200, Control_c, 13, 11, 72
13, 44206, Control_c, 13, 11, 69
13, 44210, Note_on_c, 13, 41, 88
13, 44230, Note_on_c, 13, 41, 0
13, 44250, Note_on_c, 13, 48, 88
13, 44270, Note_on_c, 13, 48, 0
13, 44290, Note_on_c, 13, 41, 88
13, 44290, Control_c, 13, 11, 47
13, 44310, Note_on_c, 13, 41, 0
13, 44330, Note_on_c, 13, 60, 88
13, 44350, Note_on_c, 13, 60, 0
13, 44370, Note_on_c, 13, 57, 88
13, 44390, Note_on_c, 13, 57, 0
13, 44410, Note_on_c, 13, 53, 88
13, 44430, Note_on_c, 13, 53, 0
13, 44450, Note_on_c, 13, 48, 88
13, 44470, Note_on_c, 13, 48, 0
13, 44490, Note_on_c, 13, 43, 88
13, 44510, Note_on_c, 13, 43, 0
13, 44530, Note_on_c, 13, 45, 88
13, 44550, Note_on_c, 13, 45, 0
13, 44570, Note_on_c, 13, 41, 88
13, 44590, Note_on_c, 13, 41, 0
13, 44610, Note_on_c, 13, 48, 88
13, 44630, Note_on_c, 13, 48, 0
13, 44650, Note_on_c, 13, 36, 88
13, 44670, Note_on_c, 13, 36, 0
13, 44690, Note_on_c, 13, 40, 88
13, 44710, Note_on_c, 13, 40, 0
13, 44730, Note_on_c, 13, 43, 88
13, 44750, Note_on_c, 13, 43, 0
13, 44770, Note_on_c, 13, 48, 88
13, 44790, Note_on_c, 13, 48, 0
13, 44810, Note_on_c, 13, 52, 88
13, 44830, Note_on_c, 13, 52, 0
13, 44850, Note_on_c, 13, 55, 88
13, 44870, Note_on_c, 13, 55, 0
13, 44890, Note_on_c, 13, 60, 88
13, 44910, Note_on_c, 13, 60, 0
13, 44930, Note_on_c, 13, 48, 88
13, 44950, Note_on_c, 13, 48, 0
13, 44970, Note_on_c, 13, 60, 88
13, 44990, Note_on_c, 13, 60, 0
13, 45010, Note_on_c, 13, 41, 88
13, 45010, Control_c, 13, 11, 47
13, 45030, Note_on_c, 13, 41, 0
13, 45034, Control_c, 13, 11, 49
13, 45050, Note_on_c, 13, 60, 88
13, 45058, Control_c, 13, 11, 51
13, 45070, Note_on_c, 13, 60, 0
13, 45082, Control_c, 13, 11, 53
13, 45090, Note_on_c, 13, 57, 88
13, 45106, Control_c, 13, 11, 55
13, 45110, Note_on_c, 13, 57, 0
13, 45130, Note_on_c, 13, 53, 88
13, 45130, Control_c, 13, 11, 57
13, 45150, Note_on_c, 13, 53, 0
13, 45154, Control_c, 13, 11, 59
13, 45170, Note_on_c, 13, 48, 88
13, 45178, Control_c, 13, 11, 61
13, 45190, Note_on_c, 13, 48, 0
13, 45202, Control_c, 13, 11, 63
13, 45210, Note_on_c, 13, 43, 88
13, 45226, Control_c, 13, 11, 65
13, 45230, Note_on_c, 13, 43, 0
13, 45250, Control_c, 13, 11, 87
13, 45250, Note_on_c, 13, 45, 88
13, 45256, Control_c, 13, 11, 84
13, 45262, Control_c, 13, 11, 81
13, 45268, Control_c, 13, 11, 78
13, 45270, Note_on_c, 13, 45, 0
13, 45274, Control_c, 13, 11, 75
13, 45280, Control_c, 13, 11, 72
13, 45286, Control_c, 13, 11, 69
13, 45290, Note_on_c, 13, 41, 88
13, 45310, Note_on_c, 13, 41, 0
13, 45330, Note_on_c, 13, 48, 88
13, 45350, Note_on_c, 13, 48, 0
13, 45370, Control_c, 13, 11, 47
13, 45370, Note_on_c, 13, 36, 88
13, 45390, Note_on_c, 13, 36, 0
13, 45410, Note_on_c, 13, 40, 88
13, 45430, Note_on_c, 13, 40, 0
13, 45450, Note_on_c, 13, 43, 88
13, 45470, Note_on_c, 13, 43, 0
13, 45490, Note_on_c, 13, 48, 88
13, 45510, Note_on_c, 13, 48, 0
13, 45530, Note_on_c, 13, 52, 88
13, 45550, Note_on_c, 13, 52, 0
13, 45570, Note_on_c, 13, 55, 88
13, 45590, Note_on_c, 13, 55, 0
13, 45610, Note_on_c, 13, 60, 88
13, 45630, Note_on_c, 13, 60, 0
13, 45650, Note_on_c, 13, 48, 88
13, 45670, Note_on_c, 13, 48, 0
13, 45690, Note_on_c, 13, 60, 88
13, 45710, Note_on_c, 13, 60, 0
13, 45730, Control_c, 13, 11, 47
13, 45730, Note_on_c, 13, 41, 88
13, 45750, Note_on_c, 13, 41, 0
13, 45754, Control_c, 13, 11, 49
13, 45770, Note_on_c, 13, 60, 88
13, 45778, Control_c, 13, 11, 51
13, 45790, Note_on_c, 13, 60, 0
13, 45802, Control_c, 13, 11, 53
13, 45810, Note_on_c, 13, 57, 88
13, 45826, Control_c, 13, 11, 55
13, 45830, Note_on_c, 13, 57, 0
13, 45850, Note_on_c, 13, 53, 88
13, 45850, Control_c, 13, 11, 57
13, 45870, Note_on_c, 13, 53, 0
13, 45874, Control_c, 13, 11, 59
13, 45890, Note_on_c, 13, 48, 88
13, 45898, Control_c, 13, 11, 61
13, 45910, Note_on_c, 13, 48, 0
13, 45922, Control_c, 13, 11, 63
13, 45930, Note_on_c, 13, 43, 88
13, 45946, Control_c, 13, 11, 65
13, 45950, Note_on_c, 13, 43, 0
13, 45970, Note_on_c, 13, 45, 88
13, 45970, Control_c, 13, 11, 87
13, 45976, Control_c, 13, 11, 84
13, 45982, Control_c, 13, 11, 81
13, 45988, Control_c, 13, 11, 78
13, 45990, Note_on_c, 13, 45, 0
13, 45994, Control_c, 13, 11, 75
13, 46000, Control_c, 13, 11, 72
13, 46006, Control_c, 13, 11, 69
13, 46010, Note_on_c, 13, 41, 88
13, 46030, Note_on_c, 13, 41, 0
13, 46050, Note_on_c, 13, 48, 88
13, 46070, Note_on_c, 13, 48, 0
13, 46090, Control_c, 13, 11, 47
13, 46090, Note_on_c, 13, 41, 88
13, 46110, Note_on_c, 13, 41, 0
13, 46130, Note_on_c, 13, 60, 88
13, 46150, Note_on_c, 13, 60, 0
13, 46170, Note_on_c, 13, 57, 88
13, 46190, Note_on_c, 13, 57, 0
13, 46210, Note_on_c, 13, 53, 88
13, 46210, Control_c, 13, 11, 47
13, 46230, Note_on_c, 13, 53, 0
13, 46250, Note_on_c, 13, 48, 88
13, 46270, Note_on_c, 13, 48, 0
13, 46270, Control_c, 13, 11, 46
13, 46290, Note_on_c, 13, 43, 88
13, 46310, Note_on_c, 13, 43, 0
13, 46330, Note_on_c, 13, 45, 88
13, 46330, Control_c, 13, 11, 45
13, 46350, Note_on_c, 13, 45, 0
13, 46370, Note_on_c, 13, 41, 88
13, 46390, Note_on_c, 13, 41, 0
13, 46390, Control_c, 13, 11, 44
13, 46410, Note_on_c, 13, 48, 88
13, 46430, Note_on_c, 13, 48, 0
13, 46450, Note_on_c, 13, 41, 88
13, 46450, Control_c, 13, 11, 43
13, 46470, Note_on_c, 13, 41, 0
13, 46490, Note_on_c, 13, 60, 88
13, 46510, Note_on_c, 13, 60, 0
13, 46510, Control_c, 13, 11, 42
13, 46530, Note_on_c, 13, 57, 88
13, 46550, Note_on_c, 13, 57, 0
13, 46570, Note_on_c, 13, 53, 88
13, 46570, Control_c, 13, 11, 41
13, 46590, Note_on_c, 13, 53, 0
13, 46610, Note_on_c, 13, 48, 88
13, 46630, Note_on_c, 13, 48, 0
13, 46630, Control_c, 13, 11, 40
13, 46650, Note_on_c, 13, 43, 88
13, 46670, Note_on_c, 13, 43, 0
13, 46690, Note_on_c, 13, 45, 88
13, 46690, Control_c, 13, 11, 39
13, 46710, Note_on_c, 13, 45, 0
13, 46730, Note_on_c, 13, 41, 88
13, 46750, Note_on_c, 13, 41, 0
13, 46750, Control_c, 13, 11, 38
13, 46770, Note_on_c, 13, 48, 88
13, 46790, Note_on_c, 13, 48, 0
13, 46810, Note_on_c, 13, 41, 88
13, 46810, Control_c, 13, 11, 37
13, 46830, Note_on_c, 13, 41, 0
13, 46850, Note_on_c, 13, 60, 88
13, 46870, Note_on_c, 13, 60, 0
13, 46890, Note_on_c, 13, 57, 88
13, 46910, Note_on_c, 13, 57, 0
13, 46930, Note_on_c, 13, 53, 88
13, 46950, Note_on_c, 13, 53, 0
13, 46970, Note_on_c, 13, 48, 88
13, 46990, Note_on_c, 13, 48, 0
13, 47010, Note_on_c, 13, 43, 88
13, 47030, Note_on_c, 13, 43, 0
13, 47050, Note_on_c, 13, 45, 88
13, 47070, Note_on_c, 13, 45, 0
13, 47090, Note_on_c, 13, 41, 88
13, 47110, Note_on_c, 13, 41, 0
13, 47130, Note_on_c, 13, 48, 88
13, 47150, Note_on_c, 13, 48, 0
13, 47170, Note_on_c, 13, 41, 88
13, 47190, Note_on_c, 13, 41, 0
13, 47210, Note_on_c, 13, 45, 88
13, 47230, Note_on_c, 13, 45, 0
13, 47250, Note_on_c, 13, 48, 88
13, 47270, Note_on_c, 13, 48, 0
13, 47290, Note_on_c, 13, 53, 88
13, 47320, Control_c, 13, 11, 37
13, 47325, Control_c, 13, 11, 34
13, 47331, Control_c, 13, 11, 31
13, 47337, Control_c, 13, 11, 28
13, 47343, Control_c, 13, 11, 25
13, 47349, Control_c, 13, 11, 22
13, 47350, Note_on_c, 13, 53, 0
13, 47410, Control_c, 13, 11, 67
13, 47410, Note_on_c, 13, 53, 97
13, 47416, Control_c, 13, 11, 70
13, 47423, Control_c, 13, 11, 73
13, 47430, Control_c, 13, 11, 76
13, 47437, Control_c, 13, 11, 79
13, 47443, Control_c, 13, 11, 82
13, 47450, Control_c, 13, 11, 85
13, 47470, Note_on_c, 13, 53, 0
13, 47470, Note_on_c, 13, 48, 97
13, 47520, Note_on_c, 13, 48, 0
13, 47530, Control_c, 13, 11, 107
13, 47530, Note_on_c, 13, 53, 97
13, 47539, Control_c, 13, 11, 104
13, 47548, Control_c, 13, 11, 101
13, 47557, Control_c, 13, 11, 98
13, 47566, Control_c, 13, 11, 95
13, 47575, Control_c, 13, 11, 92
13, 47584, Control_c, 13, 11, 89
13, 47590, Note_on_c, 13, 53, 0
13, 47590, Note_on_c, 13, 48, 97
13, 47650, Note_on_c, 13, 48, 0
13, 47650, Note_on_c, 13, 53, 97
13, 47650, Control_c, 13, 11, 107
13, 47659, Control_c, 13, 11, 104
13, 47668, Control_c, 13, 11, 101
13, 47677, Control_c, 13, 11, 98
13, 47686, Control_c, 13, 11, 95
13, 47695, Control_c, 13, 11, 92
13, 47704, Control_c, 13, 11, 89
13, 47710, Note_on_c, 13, 53, 0
13, 47710, Note_on_c, 13, 48, 97
13, 47760, Note_on_c, 13, 48, 0
13, 47770, Control_c, 13, 11, 107
13, 47770, Note_on_c, 13, 53, 97
13, 47779, Control_c, 13, 11, 104
13, 47788, Control_c, 13, 11, 101
13, 47797, Control_c, 13, 11, 98
13, 47806, Control_c, 13, 11, 95
13, 47815, Control_c, 13, 11, 92
13, 47824, Control_c, 13, 11, 89
13, 47830, Note_on_c, 13, 53, 0
13, 47830, Note_on_c, 13, 48, 97
13, 47880, Note_on_c, 13, 48, 0
13, 47890, Note_on_c, 13, 53, 97
13, 47890, Control_c, 13, 11, 102
13, 47897, Control_c, 13, 11, 99
13, 47904, Control_c, 13, 11, 96
13, 47911, Control_c, 13, 11, 93
13, 47918, Control_c, 13, 11, 90
13, 47926, Control_c, 13, 11, 87
13, 47933, Control_c, 13, 11, 84
13, 47940, Control_c, 13, 11, 81
13, 47947, Control_c, 13, 11, 78
13, 47950, Note_on_c, 13, 53, 0
13, 47950, Note_on_c, 13, 48, 97
13, 48010, Note_on_c, 13, 48, 0
13, 48010, Note_on_c, 13, 53, 88
13, 48010, Control_c, 13, 11, 92
13, 48019, Control_c, 13, 11, 89
13, 48028, Control_c, 13, 11, 86
13, 48037, Control_c, 13, 11, 83
13, 48046, Control_c, 13, 11, 80
13, 48055, Control_c, 13, 11, 77
13, 48064, Control_c, 13, 11, 74
13, 48070, Note_on_c, 13, 53, 0
13, 48070, Note_on_c, 13, 48, 80
13, 48120, Note_on_c, 13, 48, 0
13, 48130, Note_on_c, 13, 53, 112
13, 48130, Control_c, 13, 11, 42
13, 48190, Note_on_c, 13, 53, 0
13, 48190, Note_on_c, 13, 48, 112
13, 48250, Note_on_c, 13, 48, 0
13, 48250, Note_on_c, 13, 55, 112
13, 48310, Note_on_c, 13, 55, 0
13, 48310, Note_on_c, 13, 48, 112
13, 48370, Note_on_c, 13, 48, 0
13, 48370, Note_on_c, 13, 55, 112
13, 48430, Note_on_c, 13, 55, 0
13, 48430, Note_on_c, 13, 48, 112
13, 48490, Note_on_c, 13, 48, 0
13, 48490, Note_on_c, 13, 55, 112
13, 48550, Note_on_c, 13, 55, 0
13, 48550, Note_on_c, 13, 48, 112
13, 48600, Note_on_c, 13, 48, 0
13, 48610, Note_on_c, 13, 57, 112
13, 48670, Note_on_c, 13, 57, 0
13, 48670, Note_on_c, 13, 48, 112
13, 48730, Note_on_c, 13, 48, 0
13, 48730, Note_on_c, 13, 57, 112
13, 48790, Note_on_c, 13, 57, 0
13, 48790, Note_on_c, 13, 48, 112
13, 48840, Note_on_c, 13, 48, 0
13, 48850, Control_c, 13, 11, 42
13, 48850, Note_on_c, 13, 57, 112
13, 48866, Control_c, 13, 11, 43
13, 48882, Control_c, 13, 11, 44
13, 48898, Control_c, 13, 11, 45
13, 48910, Note_on_c, 13, 57, 0
13, 48910, Note_on_c, 13, 48, 112
13, 48914, Control_c, 13, 11, 46
13, 48930, Control_c, 13, 11, 47
13, 48946, Control_c, 13, 11, 48
13, 48962, Control_c, 13, 11, 49
13, 48970, Note_on_c, 13, 48, 0
13, 48970, Note_on_c, 13, 58, 112
13, 48978, Control_c, 13, 11, 50
13, 48994, Control_c, 13, 11, 51
13, 49010, Control_c, 13, 11, 52
13, 49026, Control_c, 13, 11, 53
13, 49030, Note_on_c, 13, 58, 0
13, 49030, Note_on_c, 13, 48, 112
13, 49042, Control_c, 13, 11, 54
13, 49058, Control_c, 13, 11, 55
13, 49074, Control_c, 13, 11, 56
13, 49090, Note_on_c, 13, 48, 0
13, 49090, Control_c, 13, 11, 57
13, 49090, Note_on_c, 13, 58, 112
13, 49106, Control_c, 13, 11, 58
13, 49122, Control_c, 13, 11, 59
13, 49138, Control_c, 13, 11, 60
13, 49150, Note_on_c, 13, 58, 0
13, 49150, Note_on_c, 13, 57, 112
13, 49154, Control_c, 13, 11, 61
13, 49170, Control_c, 13, 11, 62
13, 49186, Control_c, 13, 11, 63
13, 49202, Control_c, 13, 11, 64
13, 49210, Note_on_c, 13, 57, 0
13, 49210, Note_on_c, 13, 55, 112
13, 49218, Control_c, 13, 11, 65
13, 49234, Control_c, 13, 11, 66
13, 49250, Control_c, 13, 11, 67
13, 49266, Control_c, 13, 11, 68
13, 49270, Note_on_c, 13, 55, 0
13, 49270, Note_on_c, 13, 53, 112
13, 49282, Control_c, 13, 11, 69
13, 49298, Control_c, 13, 11, 70
13, 49314, Control_c, 13, 11, 71
13, 49330, Note_on_c, 13, 53, 0
13, 49330, Control_c, 13, 11, 72
13, 49330, Note_on_c, 13, 52, 112
13, 49346, Control_c, 13, 11, 73
13, 49362, Control_c, 13, 11, 74
13, 49378, Control_c, 13, 11, 75
13, 49390, Note_on_c, 13, 52, 0
13, 49390, Note_on_c, 13, 50, 112
13, 49394, Control_c, 13, 11, 76
13, 49410, Control_c, 13, 11, 77
13, 49426, Control_c, 13, 11, 78
13, 49442, Control_c, 13, 11, 79
13, 49450, Note_on_c, 13, 50, 0
13, 49450, Note_on_c, 13, 48, 112
13, 49458, Control_c, 13, 11, 80
13, 49474, Control_c, 13, 11, 81
13, 49490, Control_c, 13, 11, 82
13, 49506, Control_c, 13, 11, 83
13, 49510, Note_on_c, 13, 48, 0
13, 49510, Note_on_c, 13, 55, 112
13, 49522, Control_c, 13, 11, 84
13, 49538, Control_c, 13, 11, 85
13, 49554, Control_c, 13, 11, 86
13, 49560, Note_on_c, 13, 55, 0
13, 49570, Control_c, 13, 11, 87
13, 49570, Note_on_c, 13, 53, 112
13, 49630, Note_on_c, 13, 53, 0
13, 49630, Note_on_c, 13, 48, 112
13, 49680, Note_on_c, 13, 48, 0
13, 49690, Note_on_c, 13, 43, 112
13, 49750, Note_on_c, 13, 43, 0
13, 49750, Note_on_c, 13, 36, 112
13, 49810, Note_on_c, 13, 36, 0
13, 49810, Note_on_c, 13, 43, 112
13, 49870, Note_on_c, 13, 43, 0
13, 49870, Note_on_c, 13, 36, 112
13, 49930, Note_on_c, 13, 36, 0
13, 49930, Note_on_c, 13, 43, 112
13, 49990, Note_on_c, 13, 43, 0
13, 49990, Note_on_c, 13, 36, 112
13, 50040, Note_on_c, 13, 36, 0
13, 50050, Note_on_c, 13, 45, 112
13, 50110, Note_on_c, 13, 45, 0
13, 50110, Note_on_c, 13, 36, 112
13, 50170, Note_on_c, 13, 36, 0
13, 50170, Note_on_c, 13, 45, 112
13, 50230, Note_on_c, 13, 45, 0
13, 50230, Note_on_c, 13, 36, 112
13, 50280, Note_on_c, 13, 36, 0
13, 50290, Note_on_c, 13, 45, 112
13, 50350, Note_on_c, 13, 45, 0
13, 50350, Note_on_c, 13, 57, 112
13, 50400, Note_on_c, 13, 57, 0
13, 50410, Note_on_c, 13, 58, 112
13, 50470, Note_on_c, 13, 58, 0
13, 50470, Note_on_c, 13, 46, 112
13, 50530, Note_on_c, 13, 46, 0
13, 50530, Note_on_c, 13, 58, 112
13, 50590, Note_on_c, 13, 58, 0
13, 50590, Note_on_c, 13, 57, 112
13, 50650, Note_on_c, 13, 57, 0
13, 50650, Note_on_c, 13, 55, 112
13, 50700, Note_on_c, 13, 55, 0
13, 50710, Note_on_c, 13, 60, 112
13, 50760, Note_on_c, 13, 60, 0
13, 50770, Note_on_c, 13, 60, 112
13, 50830, Note_on_c, 13, 60, 0
13, 50830, Note_on_c, 13, 48, 112
13, 50890, Note_on_c, 13, 48, 0
13, 50890, Note_on_c, 13, 53, 112
13, 50950, Note_on_c, 13, 53, 0
13, 50950, Note_on_c, 13, 57, 112
13, 51010, Note_on_c, 13, 57, 0
13, 51010, Note_on_c, 13, 53, 112
13, 51070, Note_on_c, 13, 53, 0
13, 51070, Note_on_c, 13, 60, 112
13, 51130, Note_on_c, 13, 60, 0
13, 51130, Note_on_c, 13, 59, 112
13, 51190, Note_on_c, 13, 59, 0
13, 51190, Note_on_c, 13, 55, 112
13, 51250, Note_on_c, 13, 55, 0
13, 51250, Note_on_c, 13, 62, 112
13, 51310, Note_on_c, 13, 62, 0
13, 51310, Note_on_c, 13, 55, 112
13, 51370, Note_on_c, 13, 55, 0
13, 51370, Note_on_c, 13, 62, 112
13, 51430, Note_on_c, 13, 62, 0
13, 51430, Note_on_c, 13, 55, 112
13, 51480, Note_on_c, 13, 55, 0
13, 51490, Note_on_c, 13, 60, 112
13, 51550, Note_on_c, 13, 60, 0
13, 51550, Note_on_c, 13, 55, 112
13, 51610, Note_on_c, 13, 55, 0
13, 51610, Note_on_c, 13, 60, 112
13, 51670, Note_on_c, 13, 60, 0
13, 51670, Note_on_c, 13, 55, 112
13, 51720, Note_on_c, 13, 55, 0
13, 51730, Note_on_c, 13, 60, 127
13, 51790, Note_on_c, 13, 60, 0
13, 51850, Control_c, 13, 11, 107
13, 51850, Note_on_c, 13, 65, 127
13, 51859, Control_c, 13, 11, 104
13, 51868, Control_c, 13, 11, 101
13, 51877, Control_c, 13, 11, 98
13, 51886, Control_c, 13, 11, 95
13, 51895, Control_c, 13, 11, 92
13, 51904, Control_c, 13, 11, 89
13, 52030, Note_on_c, 13, 65, 0
13, 52030, Note_on_c, 13, 62, 127
13, 52090, Note_on_c, 13, 62, 0
13, 52090, Note_on_c, 13, 59, 127
13, 52150, Note_on_c, 13, 59, 0
13, 52150, Note_on_c, 13, 55, 127
13, 52200, Note_on_c, 13, 55, 0
13, 52210, Control_c, 13, 11, 107
13, 52210, Note_on_c, 13, 60, 127
13, 52219, Control_c, 13, 11, 104
13, 52228, Control_c, 13, 11, 101
13, 52237, Control_c, 13, 11, 98
13, 52246, Control_c, 13, 11, 95
13, 52255, Control_c, 13, 11, 92
13, 52264, Control_c, 13, 11, 89
13, 52390, Note_on_c, 13, 60, 0
13, 52390, Note_on_c, 13, 55, 112
13, 52450, Note_on_c, 13, 55, 0
13, 52450, Note_on_c, 13, 52, 112
13, 52510, Note_on_c, 13, 52, 0
13, 52510, Note_on_c, 13, 48, 112
13, 52560, Note_on_c, 13, 48, 0
13, 52570, Control_c, 13, 11, 107
13, 52570, Note_on_c, 13, 47, 112
13, 52579, Control_c, 13, 11, 104
13, 52588, Control_c, 13, 11, 101
13, 52597, Control_c, 13, 11, 98
13, 52606, Control_c, 13, 11, 95
13, 52615, Control_c, 13, 11, 92
13, 52624, Control_c, 13, 11, 89
13, 52630, Note_on_c, 13, 47, 0
13, 52630, Note_on_c, 13, 43, 112
13, 52690, Note_on_c, 13, 43, 0
13, 52690, Note_on_c, 13, 47, 112
13, 52750, Note_on_c, 13, 47, 0
13, 52750, Note_on_c, 13, 43, 112
13, 52810, Note_on_c, 13, 43, 0
13, 52810, Note_on_c, 13, 47, 112
13, 52870, Note_on_c, 13, 47, 0
13, 52870, Note_on_c, 13, 43, 112
13, 52920, Note_on_c, 13, 43, 0
13, 52930, Note_on_c, 13, 48, 112
13, 52930, Control_c, 13, 11, 107
13, 52939, Control_c, 13, 11, 104
13, 52948, Control_c, 13, 11, 101
13, 52957, Control_c, 13, 11, 98
13, 52966, Control_c, 13, 11, 95
13, 52975, Control_c, 13, 11, 92
13, 52984, Control_c, 13, 11, 89
13, 52990, Note_on_c, 13, 48, 0
13, 52990, Note_on_c, 13, 36, 112
13, 53050, Note_on_c, 13, 36, 0
13, 53050, Note_on_c, 13, 48, 112
13, 53110, Note_on_c, 13, 48, 0
13, 53110, Note_on_c, 13, 36, 112
13, 53170, Note_on_c, 13, 36, 0
13, 53170, Note_on_c, 13, 48, 112
13, 53230, Note_on_c, 13, 48, 0
13, 53230, Note_on_c, 13, 36, 112
13, 53280, Note_on_c, 13, 36, 0
13, 53290, Control_c, 13, 11, 107
13, 53290, Note_on_c, 13, 48, 112
13, 53299, Control_c, 13, 11, 104
13, 53308, Control_c, 13, 11, 101
13, 53317, Control_c, 13, 11, 98
13, 53326, Control_c, 13, 11, 95
13, 53335, Control_c, 13, 11, 92
13, 53344, Control_c, 13, 11, 89
13, 53350, Note_on_c, 13, 48, 0
13, 53350, Note_on_c, 13, 36, 112
13, 53410, Note_on_c, 13, 36, 0
13, 53410, Note_on_c, 13, 48, 112
13, 53470, Note_on_c, 13, 48, 0
13, 53470, Note_on_c, 13, 36, 112
13, 53530, Note_on_c, 13, 36, 0
13, 53530, Note_on_c, 13, 48, 112
13, 53590, Note_on_c, 13, 48, 0
13, 53590, Note_on_c, 13, 36, 112
13, 53640, Note_on_c, 13, 36, 0
13, 53650, Control_c, 13, 11, 107
13, 53650, Note_on_c, 13, 48, 112
13, 53659, Control_c, 13, 11, 104
13, 53668, Control_c, 13, 11, 101
13, 53677, Control_c, 13, 11, 98
13, 53686, Control_c, 13, 11, 95
13, 53695, Control_c, 13, 11, 92
13, 53704, Control_c, 13, 11, 89
13, 53710, Note_on_c, 13, 48, 0
13, 53710, Note_on_c, 13, 41, 112
13, 53770, Note_on_c, 13, 41, 0
13, 53770, Note_on_c, 13, 48, 112
13, 53830, Note_on_c, 13, 48, 0
13, 53830, Note_on_c, 13, 41, 112
13, 53890, Note_on_c, 13, 41, 0
13, 53890, Note_on_c, 13, 48, 112
13, 53890, Control_c, 13, 11, 87
13, 53908, Control_c, 13, 11, 84
13, 53926, Control_c, 13, 11, 81
13, 53944, Control_c, 13, 11, 78
13, 53950, Note_on_c, 13, 48, 0
13, 53950, Note_on_c, 13, 41, 112
13, 53962, Control_c, 13, 11, 75
13, 53980, Control_c, 13, 11, 72
13, 53998, Control_c, 13, 11, 69
13, 54000, Note_on_c, 13, 41, 0
13, 54010, Note_on_c, 13, 53, 76
13, 54070, Note_on_c, 13, 53, 0
13, 54129, Program_c, 13, 45
13, 54130, Control_c, 13, 11, 100
13, 54130, Note_on_c, 13, 53, 49
13, 54190, Note_on_c, 13, 53, 0
13, 54370, Note_on_c, 13, 53, 47
13, 54490, Note_on_c, 13, 53, 0
13, 54490, Note_on_c, 13, 53, 45
13, 54610, Note_on_c, 13, 53, 0
13, 54730, Note_on_c, 13, 53, 43
13, 54850, Note_on_c, 13, 53, 0
13, 54850, Note_on_c, 13, 53, 41
13, 54970, Note_on_c, 13, 53, 0
13, 55090, Note_on_c, 13, 53, 39
13, 55210, Note_on_c, 13, 53, 0
13, 55210, Note_on_c, 13, 53, 37
13, 55329, Program_c, 13, 48
13, 55330, Note_on_c, 13, 53, 0
13, 55330, Control_c, 13, 11, 32
13, 55330, Note_on_c, 13, 58, 92
13, 55390, Note_on_c, 13, 58, 0
13, 55570, Note_on_c, 13, 58, 92
13, 55630, Note_on_c, 13, 58, 0
13, 55810, Note_on_c, 13, 58, 92
13, 55870, Note_on_c, 13, 58, 0
13, 56050, Control_c, 13, 11, 32
13, 56050, Note_on_c, 13, 46, 112
13, 56110, Note_on_c, 13, 46, 0
13, 56110, Note_on_c, 13, 53, 112
13, 56170, Note_on_c, 13, 53, 0
13, 56170, Note_on_c, 13, 48, 112
13, 56230, Note_on_c, 13, 48, 0
13, 56230, Note_on_c, 13, 53, 112
13, 56290, Note_on_c, 13, 53, 0
13, 56290, Note_on_c, 13, 48, 112
13, 56350, Note_on_c, 13, 48, 0
13, 56350, Note_on_c, 13, 53, 112
13, 56410, Note_on_c, 13, 53, 0
13, 56410, Note_on_c, 13, 51, 112
13, 56470, Note_on_c, 13, 51, 0
13, 56470, Note_on_c, 13, 53, 112
13, 56530, Note_on_c, 13, 53, 0
13, 56530, Note_on_c, 13, 50, 112
13, 56590, Note_on_c, 13, 50, 0
13, 56590, Note_on_c, 13, 53, 112
13, 56650, Note_on_c, 13, 53, 0
13, 56650, Note_on_c, 13, 46, 112
13, 56710, Note_on_c, 13, 46, 0
13, 56710, Note_on_c, 13, 50, 112
13, 56770, Note_on_c, 13, 50, 0
13, 56770, Note_on_c, 13, 46, 112
13, 56830, Note_on_c, 13, 46, 0
13, 56830, Note_on_c, 13, 45, 112
13, 56890, Note_on_c, 13, 45, 0
13, 56890, Note_on_c, 13, 43, 112
13, 56950, Note_on_c, 13, 43, 0
13, 56950, Note_on_c, 13, 55, 112
13, 57000, Note_on_c, 13, 55, 0
13, 57010, Note_on_c, 13, 55, 112
13, 57070, Note_on_c, 13, 55, 0
13, 57070, Note_on_c, 13, 48, 112
13, 57130, Note_on_c, 13, 48, 0
13, 57130, Note_on_c, 13, 55, 112
13, 57190, Note_on_c, 13, 55, 0
13, 57190, Note_on_c, 13, 48, 112
13, 57250, Note_on_c, 13, 48, 0
13, 57250, Note_on_c, 13, 57, 112
13, 57310, Note_on_c, 13, 57, 0
13, 57310, Note_on_c, 13, 48, 112
13, 57370, Note_on_c, 13, 48, 0
13, 57370, Note_on_c, 13, 53, 112
13, 57430, Note_on_c, 13, 53, 0
13, 57430, Note_on_c, 13, 48, 112
13, 57480, Note_on_c, 13, 48, 0
13, 57490, Control_c, 13, 11, 37
13, 57490, Note_on_c, 13, 41, 112
13, 57512, Control_c, 13, 11, 38
13, 57535, Control_c, 13, 11, 39
13, 57550, Note_on_c, 13, 41, 0
13, 57550, Note_on_c, 13, 36, 112
13, 57558, Control_c, 13, 11, 40
13, 57581, Control_c, 13, 11, 41
13, 57603, Control_c, 13, 11, 42
13, 57610, Note_on_c, 13, 36, 0
13, 57610, Note_on_c, 13, 43, 112
13, 57626, Control_c, 13, 11, 43
13, 57649, Control_c, 13, 11, 44
13, 57670, Note_on_c, 13, 43, 0
13, 57670, Note_on_c, 13, 36, 112
13, 57672, Control_c, 13, 11, 45
13, 57695, Control_c, 13, 11, 46
13, 57717, Control_c, 13, 11, 47
13, 57730, Note_on_c, 13, 36, 0
13, 57730, Note_on_c, 13, 43, 112
13, 57740, Control_c, 13, 11, 48
13, 57763, Control_c, 13, 11, 49
13, 57786, Control_c, 13, 11, 50
13, 57790, Note_on_c, 13, 43, 0
13, 57790, Note_on_c, 13, 36, 112
13, 57808, Control_c, 13, 11, 51
13, 57831, Control_c, 13, 11, 52
13, 57840, Note_on_c, 13, 36, 0
13, 57850, Note_on_c, 13, 46, 112
13, 57854, Control_c, 13, 11, 53
13, 57877, Control_c, 13, 11, 54
13, 57900, Control_c, 13, 11, 55
13, 57910, Note_on_c, 13, 46, 0
13, 57910, Note_on_c, 13, 36, 112
13, 57922, Control_c, 13, 11, 56
13, 57945, Control_c, 13, 11, 57
13, 57968, Control_c, 13, 11, 58
13, 57970, Note_on_c, 13, 36, 0
13, 57970, Note_on_c, 13, 45, 112
13, 57991, Control_c, 13, 11, 59
13, 58013, Control_c, 13, 11, 60
13, 58030, Note_on_c, 13, 45, 0
13, 58030, Note_on_c, 13, 36, 112
13, 58036, Control_c, 13, 11, 61
13, 58059, Control_c, 13, 11, 62
13, 58082, Control_c, 13, 11, 63
13, 58090, Note_on_c, 13, 36, 0
13, 58090, Note_on_c, 13, 45, 112
13, 58105, Control_c, 13, 11, 64
13, 58127, Control_c, 13, 11, 65
13, 58150, Note_on_c, 13, 45, 0
13, 58150, Note_on_c, 13, 36, 112
13, 58150, Control_c, 13, 11, 66
13, 58173, Control_c, 13, 11, 67
13, 58196, Control_c, 13, 11, 68
13, 58210, Note_on_c, 13, 36, 0
13, 58210, Note_on_c, 13, 45, 112
13, 58218, Control_c, 13, 11, 69
13, 58241, Control_c, 13, 11, 70
13, 58264, Control_c, 13, 11, 71
13, 58270, Note_on_c, 13, 45, 0
13, 58270, Note_on_c, 13, 36, 112
13, 58287, Control_c, 13, 11, 72
13, 58310, Control_c, 13, 11, 73
13, 58330, Note_on_c, 13, 36, 0
13, 58330, Note_on_c, 13, 46, 112
13, 58332, Control_c, 13, 11, 74
13, 58355, Control_c, 13, 11, 75
13, 58378, Control_c, 13, 11, 76
13, 58390, Note_on_c, 13, 46, 0
13, 58390, Note_on_c, 13, 36, 112
13, 58401, Control_c, 13, 11, 77
13, 58423, Control_c, 13, 11, 78
13, 58446, Control_c, 13, 11, 79
13, 58450, Note_on_c, 13, 36, 0
13, 58450, Note_on_c, 13, 46, 112
13, 58469, Control_c, 13, 11, 80
13, 58492, Control_c, 13, 11, 81
13, 58510, Note_on_c, 13, 46, 0
13, 58510, Note_on_c, 13, 45, 112
13, 58515, Control_c, 13, 11, 82
13, 58537, Control_c, 13, 11, 83
13, 58560, Control_c, 13, 11, 84
13, 58570, Note_on_c, 13, 45, 0
13, 58570, Note_on_c, 13, 43, 112
13, 58583, Control_c, 13, 11, 85
13, 58606, Control_c, 13, 11, 86
13, 58620, Note_on_c, 13, 43, 0
13, 58629, Control_c, 13, 11, 87
13, 58630, Note_on_c, 13, 41, 112
13, 58668, Note_on_c, 13, 41, 0
13, 58690, Control_c, 13, 11, 97
13, 58690, Note_on_c, 13, 41, 112
13, 58714, Control_c, 13, 11, 95
13, 58738, Control_c, 13, 11, 93
13, 58750, Note_on_c, 13, 41, 0
13, 58750, Note_on_c, 13, 36, 112
13, 58810, Note_on_c, 13, 36, 0
13, 58810, Note_on_c, 13, 40, 112
13, 58870, Note_on_c, 13, 40, 0
13, 58870, Note_on_c, 13, 38, 112
13, 58930, Note_on_c, 13, 38, 0
13, 58930, Note_on_c, 13, 36, 112
13, 58980, Note_on_c, 13, 36, 0
13, 58990, Note_on_c, 13, 46, 112
13, 59028, Note_on_c, 13, 46, 0
13, 59050, Note_on_c, 13, 46, 112
13, 59110, Note_on_c, 13, 46, 0
13, 59110, Note_on_c, 13, 41, 112
13, 59170, Note_on_c, 13, 41, 0
13, 59170, Note_on_c, 13, 45, 112
13, 59230, Note_on_c, 13, 45, 0
13, 59230, Note_on_c, 13, 43, 112
13, 59290, Note_on_c, 13, 43, 0
13, 59290, Note_on_c, 13, 41, 112
13, 59340, Note_on_c, 13, 41, 0
13, 59350, Note_on_c, 13, 63, 112
13, 59350, Control_c, 13, 11, 102
13, 59388, Note_on_c, 13, 63, 0
13, 59410, Note_on_c, 13, 63, 112
13, 59530, Note_on_c, 13, 63, 0
13, 59530, Note_on_c, 13, 62, 112
13, 59590, Note_on_c, 13, 62, 0
13, 60070, Note_on_c, 13, 60, 112
13, 60115, Note_on_c, 13, 60, 0
13, 60130, Note_on_c, 13, 60, 112
13, 60250, Note_on_c, 13, 60, 0
13, 60250, Note_on_c, 13, 53, 112
13, 60310, Note_on_c, 13, 53, 0
13, 60790, Note_on_c, 13, 60, 112
13, 60835, Note_on_c, 13, 60, 0
13, 60850, Note_on_c, 13, 60, 112
13, 60970, Note_on_c, 13, 60, 0
13, 60970, Note_on_c, 13, 53, 112
13, 61030, Note_on_c, 13, 53, 0
13, 61510, Note_on_c, 13, 60, 112
13, 61555, Note_on_c, 13, 60, 0
13, 61570, Note_on_c, 13, 60, 112
13, 61690, Note_on_c, 13, 60, 0
13, 61690, Note_on_c, 13, 53, 112
13, 61750, Note_on_c, 13, 53, 0
13, 62050, Note_on_c, 13, 60, 112
13, 62170, Note_on_c, 13, 60, 0
13, 62170, Note_on_c, 13, 53, 112
13, 62230, Note_on_c, 13, 53, 0
13, 62530, Note_on_c, 13, 48, 112
13, 62530, Control_c, 13, 11, 122
13, 62548, Control_c, 13, 11, 119
13, 62566, Control_c, 13, 11, 116
13, 62584, Control_c, 13, 11, 113
13, 62602, Control_c, 13, 11, 110
13, 62620, Control_c, 13, 11, 107
13, 62638, Control_c, 13, 11, 104
13, 63130, Note_on_c, 13, 48, 0
13, 63130, Note_on_c, 13, 41, 112
13, 63180, Note_on_c, 13, 41, 0
13, 63730, Control_c, 13, 121, 0
13, 63730, End_track
14, 0, Start_track
14, 0, MIDI_port, 0
14, 0, Title_t, "Contrabasse"
14, 0, Program_c, 14, 48
14, 0, Control_c, 14, 10, 127
14, 14, Control_c, 14, 121, 0
14, 19, Program_c, 14, 48
14, 24, Pitch_bend_c, 14, 8492
14, 29, Control_c, 14, 11, 87
14, 34, Control_c, 14, 7, 127
14, 39, Control_c, 14, 91, 70
14, 44, Control_c, 14, 93, 0
14, 2054, Control_c, 14, 11, 47
14, 2054, Note_on_c, 14, 45, 112
14, 2072, Control_c, 14, 11, 48
14, 2090, Control_c, 14, 11, 49
14, 2108, Control_c, 14, 11, 50
14, 2114, Note_on_c, 14, 45, 0
14, 2126, Control_c, 14, 11, 51
14, 2144, Control_c, 14, 11, 52
14, 2162, Control_c, 14, 11, 53
14, 2174, Note_on_c, 14, 46, 112
14, 2180, Control_c, 14, 11, 54
14, 2198, Control_c, 14, 11, 55
14, 2216, Control_c, 14, 11, 56
14, 2234, Control_c, 14, 11, 57
14, 2252, Control_c, 14, 11, 58
14, 2270, Control_c, 14, 11, 59
14, 2288, Control_c, 14, 11, 60
14, 2306, Control_c, 14, 11, 61
14, 2324, Control_c, 14, 11, 62
14, 2342, Control_c, 14, 11, 63
14, 2354, Note_on_c, 14, 46, 0
14, 2354, Note_on_c, 14, 45, 112
14, 2360, Control_c, 14, 11, 64
14, 2378, Control_c, 14, 11, 65
14, 2396, Control_c, 14, 11, 66
14, 2414, Note_on_c, 14, 45, 0
14, 2414, Control_c, 14, 11, 67
14, 2414, Note_on_c, 14, 43, 112
14, 2432, Control_c, 14, 11, 68
14, 2450, Control_c, 14, 11, 69
14, 2468, Control_c, 14, 11, 70
14, 2474, Note_on_c, 14, 43, 0
14, 2474, Note_on_c, 14, 41, 112
14, 2486, Control_c, 14, 11, 71
14, 2504, Control_c, 14, 11, 72
14, 2522, Control_c, 14, 11, 73
14, 2534, Note_on_c, 14, 41, 0
14, 2534, Note_on_c, 14, 40, 112
14, 2540, Control_c, 14, 11, 74
14, 2558, Control_c, 14, 11, 75
14, 2576, Control_c, 14, 11, 76
14, 2594, Note_on_c, 14, 40, 0
14, 2594, Control_c, 14, 11, 77
14, 2594, Note_on_c, 14, 38, 112
14, 2612, Control_c, 14, 11, 78
14, 2630, Control_c, 14, 11, 79
14, 2648, Control_c, 14, 11, 80
14, 2654, Note_on_c, 14, 38, 0
14, 2654, Note_on_c, 14, 36, 112
14, 2666, Control_c, 14, 11, 81
14, 2684, Control_c, 14, 11, 82
14, 2702, Control_c, 14, 11, 83
14, 2714, Note_on_c, 14, 36, 0
14, 2714, Note_on_c, 14, 43, 112
14, 2720, Control_c, 14, 11, 84
14, 2738, Control_c, 14, 11, 85
14, 2756, Control_c, 14, 11, 86
14, 2764, Note_on_c, 14, 43, 0
14, 2774, Control_c, 14, 11, 87
14, 2774, Note_on_c, 14, 41, 112
14, 2834, Note_on_c, 14, 41, 0
14, 2834, Note_on_c, 14, 36, 112
14, 2884, Note_on_c, 14, 36, 0
14, 2894, Note_on_c, 14, 31, 112
14, 2954, Note_on_c, 14, 31, 0
14, 2954, Note_on_c, 14, 24, 112
14, 3014, Note_on_c, 14, 24, 0
14, 3014, Note_on_c, 14, 31, 112
14, 3074, Note_on_c, 14, 31, 0
14, 3074, Note_on_c, 14, 24, 112
14, 3134, Note_on_c, 14, 24, 0
14, 3134, Note_on_c, 14, 31, 112
14, 3194, Note_on_c, 14, 31, 0
14, 3194, Note_on_c, 14, 24, 112
14, 3244, Note_on_c, 14, 24, 0
14, 3254, Note_on_c, 14, 33, 112
14, 3314, Note_on_c, 14, 33, 0
14, 3314, Note_on_c, 14, 24, 112
14, 3374, Note_on_c, 14, 24, 0
14, 3374, Note_on_c, 14, 33, 112
14, 3434, Note_on_c, 14, 33, 0
14, 3434, Note_on_c, 14, 24, 112
14, 3484, Note_on_c, 14, 24, 0
14, 3494, Note_on_c, 14, 33, 112
14, 3554, Note_on_c, 14, 33, 0
14, 3554, Note_on_c, 14, 45, 112
14, 3604, Note_on_c, 14, 45, 0
14, 3614, Note_on_c, 14, 46, 112
14, 3674, Note_on_c, 14, 46, 0
14, 3674, Note_on_c, 14, 34, 112
14, 3734, Note_on_c, 14, 34, 0
14, 3734, Note_on_c, 14, 46, 112
14, 3794, Note_on_c, 14, 46, 0
14, 3794, Note_on_c, 14, 45, 112
14, 3854, Note_on_c, 14, 45, 0
14, 3854, Note_on_c, 14, 43, 112
14, 3904, Note_on_c, 14, 43, 0
14, 3914, Note_on_c, 14, 48, 112
14, 3964, Note_on_c, 14, 48, 0
14, 3974, Note_on_c, 14, 48, 112
14, 4034, Note_on_c, 14, 48, 0
14, 4034, Note_on_c, 14, 36, 112
14, 4094, Note_on_c, 14, 36, 0
14, 4094, Note_on_c, 14, 41, 112
14, 4154, Note_on_c, 14, 41, 0
14, 5654, Control_c, 14, 11, 47
14, 5654, Note_on_c, 14, 45, 112
14, 5672, Control_c, 14, 11, 48
14, 5690, Control_c, 14, 11, 49
14, 5708, Control_c, 14, 11, 50
14, 5714, Note_on_c, 14, 45, 0
14, 5726, Control_c, 14, 11, 51
14, 5744, Control_c, 14, 11, 52
14, 5762, Control_c, 14, 11, 53
14, 5774, Note_on_c, 14, 46, 112
14, 5780, Control_c, 14, 11, 54
14, 5798, Control_c, 14, 11, 55
14, 5816, Control_c, 14, 11, 56
14, 5834, Control_c, 14, 11, 57
14, 5852, Control_c, 14, 11, 58
14, 5870, Control_c, 14, 11, 59
14, 5888, Control_c, 14, 11, 60
14, 5906, Control_c, 14, 11, 61
14, 5924, Control_c, 14, 11, 62
14, 5942, Control_c, 14, 11, 63
14, 5954, Note_on_c, 14, 46, 0
14, 5954, Note_on_c, 14, 45, 112
14, 5960, Control_c, 14, 11, 64
14, 5978, Control_c, 14, 11, 65
14, 5996, Control_c, 14, 11, 66
14, 6014, Note_on_c, 14, 45, 0
14, 6014, Control_c, 14, 11, 67
14, 6014, Note_on_c, 14, 43, 112
14, 6032, Control_c, 14, 11, 68
14, 6050, Control_c, 14, 11, 69
14, 6068, Control_c, 14, 11, 70
14, 6074, Note_on_c, 14, 43, 0
14, 6074, Note_on_c, 14, 41, 112
14, 6086, Control_c, 14, 11, 71
14, 6104, Control_c, 14, 11, 72
14, 6122, Control_c, 14, 11, 73
14, 6134, Note_on_c, 14, 41, 0
14, 6134, Note_on_c, 14, 40, 112
14, 6140, Control_c, 14, 11, 74
14, 6158, Control_c, 14, 11, 75
14, 6176, Control_c, 14, 11, 76
14, 6194, Note_on_c, 14, 40, 0
14, 6194, Control_c, 14, 11, 77
14, 6194, Note_on_c, 14, 38, 112
14, 6212, Control_c, 14, 11, 78
14, 6230, Control_c, 14, 11, 79
14, 6248, Control_c, 14, 11, 80
14, 6254, Note_on_c, 14, 38, 0
14, 6254, Note_on_c, 14, 36, 112
14, 6266, Control_c, 14, 11, 81
14, 6284, Control_c, 14, 11, 82
14, 6302, Control_c, 14, 11, 83
14, 6314, Note_on_c, 14, 36, 0
14, 6314, Note_on_c, 14, 43, 112
14, 6320, Control_c, 14, 11, 84
14, 6338, Control_c, 14, 11, 85
14, 6356, Control_c, 14, 11, 86
14, 6364, Note_on_c, 14, 43, 0
14, 6374, Control_c, 14, 11, 87
14, 6374, Note_on_c, 14, 41, 112
14, 6434, Note_on_c, 14, 41, 0
14, 6434, Note_on_c, 14, 36, 112
14, 6484, Note_on_c, 14, 36, 0
14, 6494, Note_on_c, 14, 31, 112
14, 6554, Note_on_c, 14, 31, 0
14, 6554, Note_on_c, 14, 24, 112
14, 6614, Note_on_c, 14, 24, 0
14, 6614, Note_on_c, 14, 31, 112
14, 6674, Note_on_c, 14, 31, 0
14, 6674, Note_on_c, 14, 24, 112
14, 6734, Note_on_c, 14, 24, 0
14, 6734, Note_on_c, 14, 31, 112
14, 6794, Note_on_c, 14, 31, 0
14, 6794, Note_on_c, 14, 24, 112
14, 6844, Note_on_c, 14, 24, 0
14, 6854, Note_on_c, 14, 33, 112
14, 6914, Note_on_c, 14, 33, 0
14, 6914, Note_on_c, 14, 24, 112
14, 6974, Note_on_c, 14, 24, 0
14, 6974, Note_on_c, 14, 33, 112
14, 7034, Note_on_c, 14, 33, 0
14, 7034, Note_on_c, 14, 24, 112
14, 7084, Note_on_c, 14, 24, 0
14, 7094, Note_on_c, 14, 33, 112
14, 7154, Note_on_c, 14, 33, 0
14, 7154, Note_on_c, 14, 45, 112
14, 7204, Note_on_c, 14, 45, 0
14, 7214, Note_on_c, 14, 46, 112
14, 7274, Note_on_c, 14, 46, 0
14, 7274, Note_on_c, 14, 34, 112
14, 7334, Note_on_c, 14, 34, 0
14, 7334, Note_on_c, 14, 46, 112
14, 7394, Note_on_c, 14, 46, 0
14, 7394, Note_on_c, 14, 45, 112
14, 7454, Note_on_c, 14, 45, 0
14, 7454, Note_on_c, 14, 43, 112
14, 7504, Note_on_c, 14, 43, 0
14, 7514, Note_on_c, 14, 48, 112
14, 7564, Note_on_c, 14, 48, 0
14, 7574, Note_on_c, 14, 48, 112
14, 7634, Note_on_c, 14, 48, 0
14, 7634, Note_on_c, 14, 36, 112
14, 7694, Note_on_c, 14, 36, 0
14, 7694, Note_on_c, 14, 41, 112
14, 7744, Note_on_c, 14, 41, 0
14, 7754, Note_on_c, 14, 45, 112
14, 7814, Note_on_c, 14, 45, 0
14, 7814, Note_on_c, 14, 41, 112
14, 7874, Note_on_c, 14, 41, 0
14, 7874, Note_on_c, 14, 48, 112
14, 7934, Note_on_c, 14, 48, 0
14, 7934, Note_on_c, 14, 47, 112
14, 7994, Note_on_c, 14, 47, 0
14, 8054, Control_c, 14, 11, 107
14, 8054, Note_on_c, 14, 50, 112
14, 8063, Control_c, 14, 11, 104
14, 8072, Control_c, 14, 11, 101
14, 8081, Control_c, 14, 11, 98
14, 8090, Control_c, 14, 11, 95
14, 8099, Control_c, 14, 11, 92
14, 8108, Control_c, 14, 11, 89
14, 8114, Note_on_c, 14, 50, 0
14, 8414, Control_c, 14, 11, 107
14, 8414, Note_on_c, 14, 48, 112
14, 8423, Control_c, 14, 11, 104
14, 8432, Control_c, 14, 11, 101
14, 8441, Control_c, 14, 11, 98
14, 8450, Control_c, 14, 11, 95
14, 8459, Control_c, 14, 11, 92
14, 8468, Control_c, 14, 11, 89
14, 8474, Note_on_c, 14, 48, 0
14, 8774, Note_on_c, 14, 47, 112
14, 8834, Note_on_c, 14, 47, 0
14, 8894, Note_on_c, 14, 43, 112
14, 8954, Note_on_c, 14, 43, 0
14, 9014, Control_c, 14, 11, 107
14, 9014, Note_on_c, 14, 48, 112
14, 9023, Control_c, 14, 11, 104
14, 9032, Control_c, 14, 11, 101
14, 9041, Control_c, 14, 11, 98
14, 9050, Control_c, 14, 11, 95
14, 9059, Control_c, 14, 11, 92
14, 9068, Control_c, 14, 11, 89
14, 9194, Note_on_c, 14, 48, 0
14, 9194, Note_on_c, 14, 43, 112
14, 9254, Note_on_c, 14, 43, 0
14, 9254, Note_on_c, 14, 40, 112
14, 9314, Note_on_c, 14, 40, 0
14, 9314, Note_on_c, 14, 36, 112
14, 9364, Note_on_c, 14, 36, 0
14, 9374, Control_c, 14, 11, 107
14, 9374, Note_on_c, 14, 35, 112
14, 9383, Control_c, 14, 11, 104
14, 9392, Control_c, 14, 11, 101
14, 9401, Control_c, 14, 11, 98
14, 9410, Control_c, 14, 11, 95
14, 9419, Control_c, 14, 11, 92
14, 9428, Control_c, 14, 11, 89
14, 9434, Note_on_c, 14, 35, 0
14, 9434, Note_on_c, 14, 43, 112
14, 9494, Note_on_c, 14, 43, 0
14, 9494, Note_on_c, 14, 47, 112
14, 9554, Note_on_c, 14, 47, 0
14, 9554, Note_on_c, 14, 43, 112
14, 9614, Note_on_c, 14, 43, 0
14, 9614, Note_on_c, 14, 47, 112
14, 9674, Note_on_c, 14, 47, 0
14, 9674, Note_on_c, 14, 43, 112
14, 9724, Note_on_c, 14, 43, 0
14, 9734, Control_c, 14, 11, 107
14, 9734, Note_on_c, 14, 48, 112
14, 9743, Control_c, 14, 11, 104
14, 9752, Control_c, 14, 11, 101
14, 9761, Control_c, 14, 11, 98
14, 9770, Control_c, 14, 11, 95
14, 9779, Control_c, 14, 11, 92
14, 9788, Control_c, 14, 11, 89
14, 9794, Note_on_c, 14, 48, 0
14, 9794, Note_on_c, 14, 36, 112
14, 9854, Note_on_c, 14, 36, 0
14, 9854, Note_on_c, 14, 48, 112
14, 9914, Note_on_c, 14, 48, 0
14, 9914, Note_on_c, 14, 36, 112
14, 9974, Note_on_c, 14, 36, 0
14, 9974, Note_on_c, 14, 48, 112
14, 10034, Note_on_c, 14, 48, 0
14, 10034, Note_on_c, 14, 36, 112
14, 10084, Note_on_c, 14, 36, 0
14, 10094, Control_c, 14, 11, 107
14, 10094, Note_on_c, 14, 48, 112
14, 10103, Control_c, 14, 11, 104
14, 10112, Control_c, 14, 11, 101
14, 10121, Control_c, 14, 11, 98
14, 10130, Control_c, 14, 11, 95
14, 10139, Control_c, 14, 11, 92
14, 10148, Control_c, 14, 11, 89
14, 10154, Note_on_c, 14, 48, 0
14, 10154, Note_on_c, 14, 36, 112
14, 10214, Note_on_c, 14, 36, 0
14, 10214, Note_on_c, 14, 48, 112
14, 10274, Note_on_c, 14, 48, 0
14, 10274, Note_on_c, 14, 36, 112
14, 10334, Note_on_c, 14, 36, 0
14, 10334, Note_on_c, 14, 48, 112
14, 10394, Note_on_c, 14, 48, 0
14, 10394, Note_on_c, 14, 36, 112
14, 10444, Note_on_c, 14, 36, 0
14, 10454, Control_c, 14, 11, 107
14, 10454, Note_on_c, 14, 48, 112
14, 10463, Control_c, 14, 11, 104
14, 10472, Control_c, 14, 11, 101
14, 10481, Control_c, 14, 11, 98
14, 10490, Control_c, 14, 11, 95
14, 10499, Control_c, 14, 11, 92
14, 10508, Control_c, 14, 11, 89
14, 10514, Note_on_c, 14, 48, 0
14, 10514, Note_on_c, 14, 41, 112
14, 10574, Note_on_c, 14, 41, 0
14, 10574, Note_on_c, 14, 48, 112
14, 10634, Note_on_c, 14, 48, 0
14, 10634, Note_on_c, 14, 41, 112
14, 10694, Note_on_c, 14, 41, 0
14, 10694, Control_c, 14, 11, 87
14, 10694, Note_on_c, 14, 48, 112
14, 10712, Control_c, 14, 11, 84
14, 10730, Control_c, 14, 11, 81
14, 10748, Control_c, 14, 11, 78
14, 10754, Note_on_c, 14, 48, 0
14, 10754, Note_on_c, 14, 41, 112
14, 10766, Control_c, 14, 11, 75
14, 10784, Control_c, 14, 11, 72
14, 10802, Control_c, 14, 11, 69
14, 10804, Note_on_c, 14, 41, 0
14, 10814, Note_on_c, 14, 41, 76
14, 10874, Note_on_c, 14, 41, 0
14, 10933, Program_c, 14, 45
14, 10934, Control_c, 14, 11, 100
14, 10934, Note_on_c, 14, 41, 49
14, 10994, Note_on_c, 14, 41, 0
14, 11174, Note_on_c, 14, 41, 47
14, 11294, Note_on_c, 14, 41, 0
14, 11294, Note_on_c, 14, 41, 45
14, 11414, Note_on_c, 14, 41, 0
14, 11534, Note_on_c, 14, 41, 43
14, 11654, Note_on_c, 14, 41, 0
14, 11654, Note_on_c, 14, 41, 41
14, 11774, Note_on_c, 14, 41, 0
14, 11894, Note_on_c, 14, 41, 39
14, 12014, Note_on_c, 14, 41, 0
14, 12014, Note_on_c, 14, 41, 37
14, 12133, Program_c, 14, 48
14, 12134, Note_on_c, 14, 41, 0
14, 12134, Control_c, 14, 11, 32
14, 12134, Note_on_c, 14, 46, 92
14, 12194, Note_on_c, 14, 46, 0
14, 12374, Note_on_c, 14, 46, 92
14, 12434, Note_on_c, 14, 46, 0
14, 12614, Note_on_c, 14, 46, 92
14, 12674, Note_on_c, 14, 46, 0
14, 12853, Program_c, 14, 45
14, 12854, Control_c, 14, 11, 100
14, 12854, Note_on_c, 14, 34, 57
14, 12974, Note_on_c, 14, 34, 0
14, 12974, Note_on_c, 14, 36, 57
14, 13094, Note_on_c, 14, 36, 0
14, 13094, Note_on_c, 14, 36, 57
14, 13214, Note_on_c, 14, 36, 0
14, 13214, Note_on_c, 14, 39, 57
14, 13334, Note_on_c, 14, 39, 0
14, 13334, Note_on_c, 14, 38, 57
14, 13454, Note_on_c, 14, 38, 0
14, 13454, Note_on_c, 14, 34, 57
14, 13574, Note_on_c, 14, 34, 0
14, 13574, Note_on_c, 14, 34, 57
14, 13634, Note_on_c, 14, 34, 0
14, 13634, Note_on_c, 14, 33, 57
14, 13694, Note_on_c, 14, 33, 0
14, 13694, Note_on_c, 14, 31, 57
14, 13814, Note_on_c, 14, 31, 0
14, 13814, Note_on_c, 14, 43, 57
14, 13934, Note_on_c, 14, 43, 0
14, 13934, Note_on_c, 14, 36, 57
14, 14054, Note_on_c, 14, 36, 0
14, 14054, Note_on_c, 14, 41, 57
14, 14174, Note_on_c, 14, 41, 0
14, 14293, Program_c, 14, 48
14, 14294, Control_c, 14, 11, 37
14, 14294, Note_on_c, 14, 41, 112
14, 14316, Control_c, 14, 11, 38
14, 14339, Control_c, 14, 11, 39
14, 14354, Note_on_c, 14, 41, 0
14, 14354, Note_on_c, 14, 36, 112
14, 14362, Control_c, 14, 11, 40
14, 14385, Control_c, 14, 11, 41
14, 14407, Control_c, 14, 11, 42
14, 14414, Note_on_c, 14, 36, 0
14, 14414, Note_on_c, 14, 43, 112
14, 14430, Control_c, 14, 11, 43
14, 14453, Control_c, 14, 11, 44
14, 14474, Note_on_c, 14, 43, 0
14, 14474, Note_on_c, 14, 36, 112
14, 14476, Control_c, 14, 11, 45
14, 14499, Control_c, 14, 11, 46
14, 14521, Control_c, 14, 11, 47
14, 14534, Note_on_c, 14, 36, 0
14, 14534, Note_on_c, 14, 43, 112
14, 14544, Control_c, 14, 11, 48
14, 14567, Control_c, 14, 11, 49
14, 14590, Control_c, 14, 11, 50
14, 14594, Note_on_c, 14, 43, 0
14, 14594, Note_on_c, 14, 36, 112
14, 14612, Control_c, 14, 11, 51
14, 14635, Control_c, 14, 11, 52
14, 14644, Note_on_c, 14, 36, 0
14, 14654, Note_on_c, 14, 46, 112
14, 14658, Control_c, 14, 11, 53
14, 14681, Control_c, 14, 11, 54
14, 14704, Control_c, 14, 11, 55
14, 14714, Note_on_c, 14, 46, 0
14, 14714, Note_on_c, 14, 36, 112
14, 14726, Control_c, 14, 11, 56
14, 14749, Control_c, 14, 11, 57
14, 14772, Control_c, 14, 11, 58
14, 14774, Note_on_c, 14, 36, 0
14, 14774, Note_on_c, 14, 45, 112
14, 14795, Control_c, 14, 11, 59
14, 14817, Control_c, 14, 11, 60
14, 14834, Note_on_c, 14, 45, 0
14, 14834, Note_on_c, 14, 36, 112
14, 14840, Control_c, 14, 11, 61
14, 14863, Control_c, 14, 11, 62
14, 14886, Control_c, 14, 11, 63
14, 14894, Note_on_c, 14, 36, 0
14, 14894, Note_on_c, 14, 45, 112
14, 14909, Control_c, 14, 11, 64
14, 14931, Control_c, 14, 11, 65
14, 14954, Note_on_c, 14, 45, 0
14, 14954, Control_c, 14, 11, 66
14, 14954, Note_on_c, 14, 36, 112
14, 14977, Control_c, 14, 11, 67
14, 15000, Control_c, 14, 11, 68
14, 15014, Note_on_c, 14, 36, 0
14, 15014, Note_on_c, 14, 45, 112
14, 15022, Control_c, 14, 11, 69
14, 15045, Control_c, 14, 11, 70
14, 15068, Control_c, 14, 11, 71
14, 15074, Note_on_c, 14, 45, 0
14, 15074, Note_on_c, 14, 36, 112
14, 15091, Control_c, 14, 11, 72
14, 15114, Control_c, 14, 11, 73
14, 15134, Note_on_c, 14, 36, 0
14, 15134, Note_on_c, 14, 46, 112
14, 15136, Control_c, 14, 11, 74
14, 15159, Control_c, 14, 11, 75
14, 15182, Control_c, 14, 11, 76
14, 15194, Note_on_c, 14, 46, 0
14, 15194, Note_on_c, 14, 36, 112
14, 15205, Control_c, 14, 11, 77
14, 15227, Control_c, 14, 11, 78
14, 15250, Control_c, 14, 11, 79
14, 15254, Note_on_c, 14, 36, 0
14, 15254, Note_on_c, 14, 46, 112
14, 15273, Control_c, 14, 11, 80
14, 15296, Control_c, 14, 11, 81
14, 15314, Note_on_c, 14, 46, 0
14, 15314, Note_on_c, 14, 45, 112
14, 15319, Control_c, 14, 11, 82
14, 15341, Control_c, 14, 11, 83
14, 15364, Control_c, 14, 11, 84
14, 15374, Note_on_c, 14, 45, 0
14, 15374, Note_on_c, 14, 43, 112
14, 15387, Control_c, 14, 11, 85
14, 15410, Control_c, 14, 11, 86
14, 15424, Note_on_c, 14, 43, 0
14, 15433, Control_c, 14, 11, 87
14, 15434, Note_on_c, 14, 41, 112
14, 15472, Note_on_c, 14, 41, 0
14, 15494, Control_c, 14, 11, 97
14, 15494, Note_on_c, 14, 41, 112
14, 15518, Control_c, 14, 11, 95
14, 15542, Control_c, 14, 11, 93
14, 15554, Note_on_c, 14, 41, 0
14, 15554, Note_on_c, 14, 36, 112
14, 15614, Note_on_c, 14, 36, 0
14, 15614, Note_on_c, 14, 40, 112
14, 15674, Note_on_c, 14, 40, 0
14, 15674, Note_on_c, 14, 38, 112
14, 15734, Note_on_c, 14, 38, 0
14, 15734, Note_on_c, 14, 36, 112
14, 15784, Note_on_c, 14, 36, 0
14, 15794, Note_on_c, 14, 46, 112
14, 15832, Note_on_c, 14, 46, 0
14, 15854, Note_on_c, 14, 46, 112
14, 15914, Note_on_c, 14, 46, 0
14, 15914, Note_on_c, 14, 41, 112
14, 15974, Note_on_c, 14, 41, 0
14, 15974, Note_on_c, 14, 45, 112
14, 16034, Note_on_c, 14, 45, 0
14, 16034, Note_on_c, 14, 43, 112
14, 16094, Note_on_c, 14, 43, 0
14, 16094, Note_on_c, 14, 41, 112
14, 16144, Note_on_c, 14, 41, 0
14, 16154, Control_c, 14, 11, 102
14, 16154, Note_on_c, 14, 51, 112
14, 16192, Note_on_c, 14, 51, 0
14, 16214, Note_on_c, 14, 51, 112
14, 16334, Note_on_c, 14, 51, 0
14, 16334, Note_on_c, 14, 50, 112
14, 16394, Note_on_c, 14, 50, 0
14, 16874, Note_on_c, 14, 48, 112
14, 16919, Note_on_c, 14, 48, 0
14, 16934, Note_on_c, 14, 48, 112
14, 17054, Note_on_c, 14, 48, 0
14, 17054, Note_on_c, 14, 41, 112
14, 17114, Note_on_c, 14, 41, 0
14, 17594, Note_on_c, 14, 48, 112
14, 17639, Note_on_c, 14, 48, 0
14, 17654, Note_on_c, 14, 48, 112
14, 17774, Note_on_c, 14, 48, 0
14, 17774, Note_on_c, 14, 41, 112
14, 17834, Note_on_c, 14, 41, 0
14, 18314, Note_on_c, 14, 48, 112
14, 18359, Note_on_c, 14, 48, 0
14, 18374, Note_on_c, 14, 48, 112
14, 18494, Note_on_c, 14, 48, 0
14, 18494, Note_on_c, 14, 41, 112
14, 18554, Note_on_c, 14, 41, 0
14, 18854, Note_on_c, 14, 48, 112
14, 18974, Note_on_c, 14, 48, 0
14, 18974, Note_on_c, 14, 41, 112
14, 19034, Note_on_c, 14, 41, 0
14, 19334, Control_c, 14, 11, 122
14, 19334, Note_on_c, 14, 36, 112
14, 19352, Control_c, 14, 11, 119
14, 19370, Control_c, 14, 11, 116
14, 19388, Control_c, 14, 11, 113
14, 19406, Control_c, 14, 11, 110
14, 19424, Control_c, 14, 11, 107
14, 19442, Control_c, 14, 11, 104
14, 19934, Note_on_c, 14, 36, 0
14, 19934, Note_on_c, 14, 29, 112
14, 19984, Note_on_c, 14, 29, 0
14, 19994, Control_c, 14, 11, 87
14, 19994, Note_on_c, 14, 45, 112
14, 20054, Note_on_c, 14, 45, 0
14, 20054, Note_on_c, 14, 43, 112
14, 20114, Note_on_c, 14, 43, 0
14, 20114, Note_on_c, 14, 48, 112
14, 20174, Note_on_c, 14, 48, 0
14, 20174, Note_on_c, 14, 47, 112
14, 20234, Note_on_c, 14, 47, 0
14, 20294, Control_c, 14, 11, 107
14, 20294, Note_on_c, 14, 50, 112
14, 20303, Control_c, 14, 11, 104
14, 20312, Control_c, 14, 11, 101
14, 20321, Control_c, 14, 11, 98
14, 20330, Control_c, 14, 11, 95
14, 20339, Control_c, 14, 11, 92
14, 20348, Control_c, 14, 11, 89
14, 20354, Note_on_c, 14, 50, 0
14, 20654, Control_c, 14, 11, 107
14, 20654, Note_on_c, 14, 48, 112
14, 20663, Control_c, 14, 11, 104
14, 20672, Control_c, 14, 11, 101
14, 20681, Control_c, 14, 11, 98
14, 20690, Control_c, 14, 11, 95
14, 20699, Control_c, 14, 11, 92
14, 20708, Control_c, 14, 11, 89
14, 20714, Note_on_c, 14, 48, 0
14, 21014, Note_on_c, 14, 47, 112
14, 21074, Note_on_c, 14, 47, 0
14, 21134, Note_on_c, 14, 43, 112
14, 21194, Note_on_c, 14, 43, 0
14, 21254, Control_c, 14, 11, 107
14, 21254, Note_on_c, 14, 48, 112
14, 21263, Control_c, 14, 11, 104
14, 21272, Control_c, 14, 11, 101
14, 21281, Control_c, 14, 11, 98
14, 21290, Control_c, 14, 11, 95
14, 21299, Control_c, 14, 11, 92
14, 21308, Control_c, 14, 11, 89
14, 21434, Note_on_c, 14, 48, 0
14, 21434, Note_on_c, 14, 43, 112
14, 21494, Note_on_c, 14, 43, 0
14, 21494, Note_on_c, 14, 40, 112
14, 21554, Note_on_c, 14, 40, 0
14, 21554, Note_on_c, 14, 36, 112
14, 21604, Note_on_c, 14, 36, 0
14, 21614, Control_c, 14, 11, 107
14, 21614, Note_on_c, 14, 35, 112
14, 21623, Control_c, 14, 11, 104
14, 21632, Control_c, 14, 11, 101
14, 21641, Control_c, 14, 11, 98
14, 21650, Control_c, 14, 11, 95
14, 21659, Control_c, 14, 11, 92
14, 21668, Control_c, 14, 11, 89
14, 21674, Note_on_c, 14, 35, 0
14, 21674, Note_on_c, 14, 43, 112
14, 21734, Note_on_c, 14, 43, 0
14, 21734, Note_on_c, 14, 47, 112
14, 21794, Note_on_c, 14, 47, 0
14, 21794, Note_on_c, 14, 43, 112
14, 21854, Note_on_c, 14, 43, 0
14, 21854, Note_on_c, 14, 47, 112
14, 21914, Note_on_c, 14, 47, 0
14, 21914, Note_on_c, 14, 43, 112
14, 21964, Note_on_c, 14, 43, 0
14, 21974, Control_c, 14, 11, 107
14, 21974, Note_on_c, 14, 48, 112
14, 21983, Control_c, 14, 11, 104
14, 21992, Control_c, 14, 11, 101
14, 22001, Control_c, 14, 11, 98
14, 22010, Control_c, 14, 11, 95
14, 22019, Control_c, 14, 11, 92
14, 22028, Control_c, 14, 11, 89
14, 22034, Note_on_c, 14, 48, 0
14, 22034, Note_on_c, 14, 36, 112
14, 22094, Note_on_c, 14, 36, 0
14, 22094, Note_on_c, 14, 48, 112
14, 22154, Note_on_c, 14, 48, 0
14, 22154, Note_on_c, 14, 36, 112
14, 22214, Note_on_c, 14, 36, 0
14, 22214, Note_on_c, 14, 48, 112
14, 22274, Note_on_c, 14, 48, 0
14, 22274, Note_on_c, 14, 36, 112
14, 22324, Note_on_c, 14, 36, 0
14, 22334, Control_c, 14, 11, 107
14, 22334, Note_on_c, 14, 48, 112
14, 22343, Control_c, 14, 11, 104
14, 22352, Control_c, 14, 11, 101
14, 22361, Control_c, 14, 11, 98
14, 22370, Control_c, 14, 11, 95
14, 22379, Control_c, 14, 11, 92
14, 22388, Control_c, 14, 11, 89
14, 22394, Note_on_c, 14, 48, 0
14, 22394, Note_on_c, 14, 36, 112
14, 22454, Note_on_c, 14, 36, 0
14, 22454, Note_on_c, 14, 48, 112
14, 22514, Note_on_c, 14, 48, 0
14, 22514, Note_on_c, 14, 36, 112
14, 22574, Note_on_c, 14, 36, 0
14, 22574, Note_on_c, 14, 48, 112
14, 22634, Note_on_c, 14, 48, 0
14, 22634, Note_on_c, 14, 36, 112
14, 22684, Note_on_c, 14, 36, 0
14, 22694, Control_c, 14, 11, 107
14, 22694, Note_on_c, 14, 48, 112
14, 22703, Control_c, 14, 11, 104
14, 22712, Control_c, 14, 11, 101
14, 22721, Control_c, 14, 11, 98
14, 22730, Control_c, 14, 11, 95
14, 22739, Control_c, 14, 11, 92
14, 22748, Control_c, 14, 11, 89
14, 22754, Note_on_c, 14, 48, 0
14, 22754, Note_on_c, 14, 41, 112
14, 22814, Note_on_c, 14, 41, 0
14, 22814, Note_on_c, 14, 48, 112
14, 22874, Note_on_c, 14, 48, 0
14, 22874, Note_on_c, 14, 41, 112
14, 22934, Note_on_c, 14, 41, 0
14, 22934, Control_c, 14, 11, 87
14, 22934, Note_on_c, 14, 48, 112
14, 22952, Control_c, 14, 11, 84
14, 22970, Control_c, 14, 11, 81
14, 22988, Control_c, 14, 11, 78
14, 22994, Note_on_c, 14, 48, 0
14, 22994, Note_on_c, 14, 41, 112
14, 23006, Control_c, 14, 11, 75
14, 23024, Control_c, 14, 11, 72
14, 23042, Control_c, 14, 11, 69
14, 23044, Note_on_c, 14, 41, 0
14, 23054, Note_on_c, 14, 41, 76
14, 23114, Note_on_c, 14, 41, 0
14, 23173, Program_c, 14, 45
14, 23174, Control_c, 14, 11, 100
14, 23174, Note_on_c, 14, 41, 49
14, 23234, Note_on_c, 14, 41, 0
14, 23414, Note_on_c, 14, 41, 47
14, 23534, Note_on_c, 14, 41, 0
14, 23534, Note_on_c, 14, 41, 45
14, 23654, Note_on_c, 14, 41, 0
14, 23774, Note_on_c, 14, 41, 43
14, 23894, Note_on_c, 14, 41, 0
14, 23894, Note_on_c, 14, 41, 41
14, 24014, Note_on_c, 14, 41, 0
14, 24134, Note_on_c, 14, 41, 39
14, 24254, Note_on_c, 14, 41, 0
14, 24254, Note_on_c, 14, 41, 37
14, 24373, Program_c, 14, 48
14, 24374, Note_on_c, 14, 41, 0
14, 24374, Control_c, 14, 11, 32
14, 24374, Note_on_c, 14, 46, 92
14, 24434, Note_on_c, 14, 46, 0
14, 24614, Note_on_c, 14, 46, 92
14, 24674, Note_on_c, 14, 46, 0
14, 24854, Note_on_c, 14, 46, 92
14, 24914, Note_on_c, 14, 46, 0
14, 25093, Program_c, 14, 45
14, 25094, Control_c, 14, 11, 100
14, 25094, Note_on_c, 14, 34, 57
14, 25214, Note_on_c, 14, 34, 0
14, 25214, Note_on_c, 14, 36, 57
14, 25334, Note_on_c, 14, 36, 0
14, 25334, Note_on_c, 14, 36, 57
14, 25454, Note_on_c, 14, 36, 0
14, 25454, Note_on_c, 14, 39, 57
14, 25574, Note_on_c, 14, 39, 0
14, 25574, Note_on_c, 14, 38, 57
14, 25694, Note_on_c, 14, 38, 0
14, 25694, Note_on_c, 14, 34, 57
14, 25814, Note_on_c, 14, 34, 0
14, 25814, Note_on_c, 14, 34, 57
14, 25874, Note_on_c, 14, 34, 0
14, 25874, Note_on_c, 14, 33, 57
14, 25934, Note_on_c, 14, 33, 0
14, 25934, Note_on_c, 14, 31, 57
14, 26054, Note_on_c, 14, 31, 0
14, 26054, Note_on_c, 14, 43, 57
14, 26174, Note_on_c, 14, 43, 0
14, 26174, Note_on_c, 14, 36, 57
14, 26294, Note_on_c, 14, 36, 0
14, 26294, Note_on_c, 14, 41, 57
14, 26414, Note_on_c, 14, 41, 0
14, 26533, Program_c, 14, 48
14, 26534, Control_c, 14, 11, 37
14, 26534, Note_on_c, 14, 41, 112
14, 26556, Control_c, 14, 11, 38
14, 26579, Control_c, 14, 11, 39
14, 26594, Note_on_c, 14, 41, 0
14, 26594, Note_on_c, 14, 36, 112
14, 26602, Control_c, 14, 11, 40
14, 26625, Control_c, 14, 11, 41
14, 26647, Control_c, 14, 11, 42
14, 26654, Note_on_c, 14, 36, 0
14, 26654, Note_on_c, 14, 43, 112
14, 26670, Control_c, 14, 11, 43
14, 26693, Control_c, 14, 11, 44
14, 26714, Note_on_c, 14, 43, 0
14, 26714, Note_on_c, 14, 36, 112
14, 26716, Control_c, 14, 11, 45
14, 26739, Control_c, 14, 11, 46
14, 26761, Control_c, 14, 11, 47
14, 26774, Note_on_c, 14, 36, 0
14, 26774, Note_on_c, 14, 43, 112
14, 26784, Control_c, 14, 11, 48
14, 26807, Control_c, 14, 11, 49
14, 26830, Control_c, 14, 11, 50
14, 26834, Note_on_c, 14, 43, 0
14, 26834, Note_on_c, 14, 36, 112
14, 26852, Control_c, 14, 11, 51
14, 26875, Control_c, 14, 11, 52
14, 26884, Note_on_c, 14, 36, 0
14, 26894, Note_on_c, 14, 46, 112
14, 26898, Control_c, 14, 11, 53
14, 26921, Control_c, 14, 11, 54
14, 26944, Control_c, 14, 11, 55
14, 26954, Note_on_c, 14, 46, 0
14, 26954, Note_on_c, 14, 36, 112
14, 26966, Control_c, 14, 11, 56
14, 26989, Control_c, 14, 11, 57
14, 27012, Control_c, 14, 11, 58
14, 27014, Note_on_c, 14, 36, 0
14, 27014, Note_on_c, 14, 45, 112
14, 27035, Control_c, 14, 11, 59
14, 27057, Control_c, 14, 11, 60
14, 27074, Note_on_c, 14, 45, 0
14, 27074, Note_on_c, 14, 36, 112
14, 27080, Control_c, 14, 11, 61
14, 27103, Control_c, 14, 11, 62
14, 27126, Control_c, 14, 11, 63
14, 27134, Note_on_c, 14, 36, 0
14, 27134, Note_on_c, 14, 45, 112
14, 27149, Control_c, 14, 11, 64
14, 27171, Control_c, 14, 11, 65
14, 27194, Note_on_c, 14, 45, 0
14, 27194, Control_c, 14, 11, 66
14, 27194, Note_on_c, 14, 36, 112
14, 27217, Control_c, 14, 11, 67
14, 27240, Control_c, 14, 11, 68
14, 27254, Note_on_c, 14, 36, 0
14, 27254, Note_on_c, 14, 45, 112
14, 27262, Control_c, 14, 11, 69
14, 27285, Control_c, 14, 11, 70
14, 27308, Control_c, 14, 11, 71
14, 27314, Note_on_c, 14, 45, 0
14, 27314, Note_on_c, 14, 36, 112
14, 27331, Control_c, 14, 11, 72
14, 27354, Control_c, 14, 11, 73
14, 27374, Note_on_c, 14, 36, 0
14, 27374, Note_on_c, 14, 46, 112
14, 27376, Control_c, 14, 11, 74
14, 27399, Control_c, 14, 11, 75
14, 27422, Control_c, 14, 11, 76
14, 27434, Note_on_c, 14, 46, 0
14, 27434, Note_on_c, 14, 36, 112
14, 27445, Control_c, 14, 11, 77
14, 27467, Control_c, 14, 11, 78
14, 27490, Control_c, 14, 11, 79
14, 27494, Note_on_c, 14, 36, 0
14, 27494, Note_on_c, 14, 46, 112
14, 27513, Control_c, 14, 11, 80
14, 27536, Control_c, 14, 11, 81
14, 27554, Note_on_c, 14, 46, 0
14, 27554, Note_on_c, 14, 45, 112
14, 27559, Control_c, 14, 11, 82
14, 27581, Control_c, 14, 11, 83
14, 27604, Control_c, 14, 11, 84
14, 27614, Note_on_c, 14, 45, 0
14, 27614, Note_on_c, 14, 43, 112
14, 27627, Control_c, 14, 11, 85
14, 27650, Control_c, 14, 11, 86
14, 27664, Note_on_c, 14, 43, 0
14, 27673, Control_c, 14, 11, 87
14, 27674, Note_on_c, 14, 41, 112
14, 27712, Note_on_c, 14, 41, 0
14, 27734, Control_c, 14, 11, 97
14, 27734, Note_on_c, 14, 41, 112
14, 27758, Control_c, 14, 11, 95
14, 27782, Control_c, 14, 11, 93
14, 27794, Note_on_c, 14, 41, 0
14, 27794, Note_on_c, 14, 36, 112
14, 27854, Note_on_c, 14, 36, 0
14, 27854, Note_on_c, 14, 40, 112
14, 27914, Note_on_c, 14, 40, 0
14, 27914, Note_on_c, 14, 38, 112
14, 27974, Note_on_c, 14, 38, 0
14, 27974, Note_on_c, 14, 36, 112
14, 28024, Note_on_c, 14, 36, 0
14, 28034, Note_on_c, 14, 46, 112
14, 28066, Note_on_c, 14, 46, 0
14, 28094, Note_on_c, 14, 46, 112
14, 28154, Note_on_c, 14, 46, 0
14, 28154, Note_on_c, 14, 41, 112
14, 28214, Note_on_c, 14, 41, 0
14, 28214, Note_on_c, 14, 45, 112
14, 28274, Note_on_c, 14, 45, 0
14, 28274, Note_on_c, 14, 43, 112
14, 28334, Note_on_c, 14, 43, 0
14, 28334, Note_on_c, 14, 41, 112
14, 28384, Note_on_c, 14, 41, 0
14, 28394, Control_c, 14, 11, 102
14, 28394, Note_on_c, 14, 51, 112
14, 28432, Note_on_c, 14, 51, 0
14, 28454, Note_on_c, 14, 51, 112
14, 28574, Note_on_c, 14, 51, 0
14, 28574, Note_on_c, 14, 50, 112
14, 28634, Note_on_c, 14, 50, 0
14, 29114, Note_on_c, 14, 48, 112
14, 29159, Note_on_c, 14, 48, 0
14, 29174, Note_on_c, 14, 48, 112
14, 29294, Note_on_c, 14, 48, 0
14, 29294, Note_on_c, 14, 41, 112
14, 29354, Note_on_c, 14, 41, 0
14, 29834, Note_on_c, 14, 48, 112
14, 29879, Note_on_c, 14, 48, 0
14, 29894, Note_on_c, 14, 48, 112
14, 30014, Note_on_c, 14, 48, 0
14, 30014, Note_on_c, 14, 41, 112
14, 30074, Note_on_c, 14, 41, 0
14, 30554, Note_on_c, 14, 48, 112
14, 30599, Note_on_c, 14, 48, 0
14, 30614, Note_on_c, 14, 48, 112
14, 30734, Note_on_c, 14, 48, 0
14, 30734, Note_on_c, 14, 41, 112
14, 30794, Note_on_c, 14, 41, 0
14, 31094, Note_on_c, 14, 48, 112
14, 31214, Note_on_c, 14, 48, 0
14, 31214, Note_on_c, 14, 41, 112
14, 31274, Note_on_c, 14, 41, 0
14, 31574, Control_c, 14, 11, 122
14, 31574, Note_on_c, 14, 36, 112
14, 31592, Control_c, 14, 11, 119
14, 31610, Control_c, 14, 11, 116
14, 31628, Control_c, 14, 11, 113
14, 31646, Control_c, 14, 11, 110
14, 31664, Control_c, 14, 11, 107
14, 31682, Control_c, 14, 11, 104
14, 32174, Note_on_c, 14, 36, 0
14, 32174, Note_on_c, 14, 29, 112
14, 32234, Note_on_c, 14, 29, 0
14, 32234, Control_c, 14, 11, 87
14, 32413, Program_c, 14, 45
14, 32414, Control_c, 14, 11, 100
14, 32414, Note_on_c, 14, 41, 52
14, 32534, Note_on_c, 14, 41, 0
14, 32774, Note_on_c, 14, 41, 52
14, 32894, Note_on_c, 14, 41, 0
14, 33134, Note_on_c, 14, 41, 52
14, 33254, Note_on_c, 14, 41, 0
14, 33494, Note_on_c, 14, 40, 52
14, 33614, Note_on_c, 14, 40, 0
14, 33614, Note_on_c, 14, 43, 52
14, 33734, Note_on_c, 14, 43, 0
14, 33734, Note_on_c, 14, 36, 52
14, 33854, Note_on_c, 14, 36, 0
14, 33854, Note_on_c, 14, 41, 52
14, 33974, Note_on_c, 14, 41, 0
14, 34214, Note_on_c, 14, 38, 52
14, 34334, Note_on_c, 14, 38, 0
14, 34334, Note_on_c, 14, 38, 52
14, 34394, Note_on_c, 14, 38, 0
14, 34394, Note_on_c, 14, 40, 52
14, 34454, Note_on_c, 14, 40, 0
14, 34454, Note_on_c, 14, 41, 52
14, 34514, Note_on_c, 14, 41, 0
14, 34514, Note_on_c, 14, 42, 52
14, 34574, Note_on_c, 14, 42, 0
14, 34574, Note_on_c, 14, 43, 52
14, 34694, Note_on_c, 14, 43, 0
14, 34694, Note_on_c, 14, 43, 52
14, 34814, Note_on_c, 14, 43, 0
14, 34814, Note_on_c, 14, 43, 52
14, 34934, Note_on_c, 14, 43, 0
14, 34934, Note_on_c, 14, 36, 52
14, 35054, Note_on_c, 14, 36, 0
14, 35054, Note_on_c, 14, 36, 52
14, 35114, Note_on_c, 14, 36, 0
14, 35294, Control_c, 14, 11, 100
14, 35294, Note_on_c, 14, 41, 52
14, 35414, Note_on_c, 14, 41, 0
14, 35654, Note_on_c, 14, 41, 52
14, 35774, Note_on_c, 14, 41, 0
14, 36014, Note_on_c, 14, 41, 52
14, 36134, Note_on_c, 14, 41, 0
14, 36374, Note_on_c, 14, 40, 52
14, 36494, Note_on_c, 14, 40, 0
14, 36494, Note_on_c, 14, 43, 52
14, 36614, Note_on_c, 14, 43, 0
14, 36614, Note_on_c, 14, 36, 52
14, 36734, Note_on_c, 14, 36, 0
14, 36734, Note_on_c, 14, 41, 52
14, 36854, Note_on_c, 14, 41, 0
14, 37094, Note_on_c, 14, 38, 52
14, 37214, Note_on_c, 14, 38, 0
14, 37214, Note_on_c, 14, 38, 52
14, 37274, Note_on_c, 14, 38, 0
14, 37274, Note_on_c, 14, 40, 52
14, 37334, Note_on_c, 14, 40, 0
14, 37334, Note_on_c, 14, 41, 52
14, 37394, Note_on_c, 14, 41, 0
14, 37394, Note_on_c, 14, 42, 52
14, 37454, Note_on_c, 14, 42, 0
14, 37454, Note_on_c, 14, 43, 52
14, 37574, Note_on_c, 14, 43, 0
14, 37574, Note_on_c, 14, 43, 52
14, 37694, Note_on_c, 14, 43, 0
14, 37694, Note_on_c, 14, 43, 52
14, 37814, Note_on_c, 14, 43, 0
14, 37814, Note_on_c, 14, 36, 52
14, 37934, Note_on_c, 14, 36, 0
14, 37934, Note_on_c, 14, 36, 52
14, 37994, Note_on_c, 14, 36, 0
14, 38174, Note_on_c, 14, 36, 52
14, 38294, Note_on_c, 14, 36, 0
14, 38534, Note_on_c, 14, 36, 52
14, 38654, Note_on_c, 14, 36, 0
14, 38894, Note_on_c, 14, 36, 52
14, 39014, Note_on_c, 14, 36, 0
14, 39254, Note_on_c, 14, 36, 52
14, 39374, Note_on_c, 14, 36, 0
14, 39614, Note_on_c, 14, 32, 52
14, 39734, Note_on_c, 14, 32, 0
14, 39974, Note_on_c, 14, 37, 52
14, 40094, Note_on_c, 14, 37, 0
14, 40334, Note_on_c, 14, 39, 52
14, 40454, Note_on_c, 14, 39, 0
14, 40693, Program_c, 14, 48
14, 40694, Control_c, 14, 11, 87
14, 40694, Note_on_c, 14, 40, 112
14, 40934, Note_on_c, 14, 40, 0
14, 40934, Note_on_c, 14, 36, 112
14, 41054, Note_on_c, 14, 36, 0
14, 41054, Control_c, 14, 11, 47
14, 41054, Note_on_c, 14, 41, 112
14, 41174, Note_on_c, 14, 41, 0
14, 41413, Program_c, 14, 45
14, 41414, Control_c, 14, 11, 100
14, 41414, Note_on_c, 14, 34, 52
14, 41534, Note_on_c, 14, 34, 0
14, 41774, Note_on_c, 14, 36, 52
14, 41894, Note_on_c, 14, 36, 0
14, 42014, Note_on_c, 14, 36, 52
14, 42134, Note_on_c, 14, 36, 0
14, 42134, Note_on_c, 14, 29, 52
14, 42254, Note_on_c, 14, 29, 0
14, 42314, Note_on_c, 14, 31, 52
14, 42374, Note_on_c, 14, 31, 0
14, 42374, Note_on_c, 14, 33, 52
14, 42494, Note_on_c, 14, 33, 0
14, 42494, Note_on_c, 14, 29, 52
14, 42614, Note_on_c, 14, 29, 0
14, 42674, Note_on_c, 14, 31, 52
14, 42734, Note_on_c, 14, 31, 0
14, 42734, Note_on_c, 14, 33, 52
14, 42854, Note_on_c, 14, 33, 0
14, 42854, Note_on_c, 14, 29, 52
14, 42974, Note_on_c, 14, 29, 0
14, 43034, Note_on_c, 14, 31, 52
14, 43094, Note_on_c, 14, 31, 0
14, 43094, Note_on_c, 14, 33, 52
14, 43214, Note_on_c, 14, 33, 0
14, 43214, Note_on_c, 14, 24, 52
14, 43334, Note_on_c, 14, 24, 0
14, 43394, Note_on_c, 14, 31, 52
14, 43454, Note_on_c, 14, 31, 0
14, 43454, Note_on_c, 14, 36, 52
14, 43574, Note_on_c, 14, 36, 0
14, 43574, Note_on_c, 14, 29, 52
14, 43694, Note_on_c, 14, 29, 0
14, 43754, Note_on_c, 14, 31, 52
14, 43814, Note_on_c, 14, 31, 0
14, 43814, Note_on_c, 14, 33, 52
14, 43934, Note_on_c, 14, 33, 0
14, 43934, Note_on_c, 14, 29, 52
14, 44054, Note_on_c, 14, 29, 0
14, 44114, Note_on_c, 14, 31, 52
14, 44174, Note_on_c, 14, 31, 0
14, 44174, Note_on_c, 14, 33, 52
14, 44294, Note_on_c, 14, 33, 0
14, 44294, Note_on_c, 14, 29, 52
14, 44414, Note_on_c, 14, 29, 0
14, 44474, Note_on_c, 14, 31, 52
14, 44534, Note_on_c, 14, 31, 0
14, 44534, Note_on_c, 14, 33, 52
14, 44654, Note_on_c, 14, 33, 0
14, 44654, Note_on_c, 14, 24, 52
14, 44774, Note_on_c, 14, 24, 0
14, 44834, Note_on_c, 14, 31, 52
14, 44894, Note_on_c, 14, 31, 0
14, 44894, Note_on_c, 14, 36, 52
14, 45014, Note_on_c, 14, 36, 0
14, 45014, Note_on_c, 14, 29, 52
14, 45134, Note_on_c, 14, 29, 0
14, 45194, Note_on_c, 14, 31, 52
14, 45254, Note_on_c, 14, 31, 0
14, 45254, Note_on_c, 14, 33, 52
14, 45374, Note_on_c, 14, 33, 0
14, 45374, Note_on_c, 14, 24, 52
14, 45494, Note_on_c, 14, 24, 0
14, 45554, Note_on_c, 14, 31, 52
14, 45614, Note_on_c, 14, 31, 0
14, 45614, Note_on_c, 14, 36, 52
14, 45734, Note_on_c, 14, 36, 0
14, 45734, Note_on_c, 14, 29, 52
14, 45854, Note_on_c, 14, 29, 0
14, 45914, Note_on_c, 14, 31, 52
14, 45974, Note_on_c, 14, 31, 0
14, 45974, Note_on_c, 14, 33, 52
14, 46094, Note_on_c, 14, 33, 0
14, 46094, Note_on_c, 14, 29, 52
14, 46214, Note_on_c, 14, 29, 0
14, 46274, Note_on_c, 14, 31, 52
14, 46334, Note_on_c, 14, 31, 0
14, 46334, Note_on_c, 14, 33, 52
14, 46454, Note_on_c, 14, 33, 0
14, 46454, Note_on_c, 14, 29, 52
14, 46574, Note_on_c, 14, 29, 0
14, 46634, Note_on_c, 14, 31, 52
14, 46694, Note_on_c, 14, 31, 0
14, 46694, Note_on_c, 14, 33, 52
14, 46814, Note_on_c, 14, 33, 0
14, 46814, Note_on_c, 14, 29, 52
14, 46934, Note_on_c, 14, 29, 0
14, 46994, Note_on_c, 14, 31, 52
14, 47054, Note_on_c, 14, 31, 0
14, 47054, Note_on_c, 14, 33, 52
14, 47174, Note_on_c, 14, 33, 0
14, 47174, Note_on_c, 14, 29, 52
14, 47234, Note_on_c, 14, 29, 0
14, 47294, Note_on_c, 14, 29, 52
14, 47354, Note_on_c, 14, 29, 0
14, 48853, Program_c, 14, 48
14, 48854, Control_c, 14, 11, 42
14, 48854, Note_on_c, 14, 45, 112
14, 48870, Control_c, 14, 11, 43
14, 48886, Control_c, 14, 11, 44
14, 48902, Control_c, 14, 11, 45
14, 48914, Note_on_c, 14, 45, 0
14, 48918, Control_c, 14, 11, 46
14, 48934, Control_c, 14, 11, 47
14, 48950, Control_c, 14, 11, 48
14, 48966, Control_c, 14, 11, 49
14, 48974, Note_on_c, 14, 46, 112
14, 48982, Control_c, 14, 11, 50
14, 48998, Control_c, 14, 11, 51
14, 49014, Control_c, 14, 11, 52
14, 49030, Control_c, 14, 11, 53
14, 49046, Control_c, 14, 11, 54
14, 49062, Control_c, 14, 11, 55
14, 49078, Control_c, 14, 11, 56
14, 49094, Control_c, 14, 11, 57
14, 49110, Control_c, 14, 11, 58
14, 49126, Control_c, 14, 11, 59
14, 49142, Control_c, 14, 11, 60
14, 49154, Note_on_c, 14, 46, 0
14, 49154, Note_on_c, 14, 45, 112
14, 49158, Control_c, 14, 11, 61
14, 49174, Control_c, 14, 11, 62
14, 49190, Control_c, 14, 11, 63
14, 49206, Control_c, 14, 11, 64
14, 49214, Note_on_c, 14, 45, 0
14, 49214, Note_on_c, 14, 43, 112
14, 49222, Control_c, 14, 11, 65
14, 49238, Control_c, 14, 11, 66
14, 49254, Control_c, 14, 11, 67
14, 49270, Control_c, 14, 11, 68
14, 49274, Note_on_c, 14, 43, 0
14, 49274, Note_on_c, 14, 41, 112
14, 49286, Control_c, 14, 11, 69
14, 49302, Control_c, 14, 11, 70
14, 49318, Control_c, 14, 11, 71
14, 49334, Note_on_c, 14, 41, 0
14, 49334, Control_c, 14, 11, 72
14, 49334, Note_on_c, 14, 40, 112
14, 49350, Control_c, 14, 11, 73
14, 49366, Control_c, 14, 11, 74
14, 49382, Control_c, 14, 11, 75
14, 49394, Note_on_c, 14, 40, 0
14, 49394, Note_on_c, 14, 38, 112
14, 49398, Control_c, 14, 11, 76
14, 49414, Control_c, 14, 11, 77
14, 49430, Control_c, 14, 11, 78
14, 49446, Control_c, 14, 11, 79
14, 49454, Note_on_c, 14, 38, 0
14, 49454, Note_on_c, 14, 36, 112
14, 49462, Control_c, 14, 11, 80
14, 49478, Control_c, 14, 11, 81
14, 49494, Control_c, 14, 11, 82
14, 49510, Control_c, 14, 11, 83
14, 49514, Note_on_c, 14, 36, 0
14, 49514, Note_on_c, 14, 43, 112
14, 49526, Control_c, 14, 11, 84
14, 49542, Control_c, 14, 11, 85
14, 49558, Control_c, 14, 11, 86
14, 49564, Note_on_c, 14, 43, 0
14, 49574, Control_c, 14, 11, 87
14, 49574, Note_on_c, 14, 41, 112
14, 49634, Note_on_c, 14, 41, 0
14, 49634, Note_on_c, 14, 36, 112
14, 49684, Note_on_c, 14, 36, 0
14, 49694, Note_on_c, 14, 31, 112
14, 49754, Note_on_c, 14, 31, 0
14, 49754, Note_on_c, 14, 24, 112
14, 49814, Note_on_c, 14, 24, 0
14, 49814, Note_on_c, 14, 31, 112
14, 49874, Note_on_c, 14, 31, 0
14, 49874, Note_on_c, 14, 24, 112
14, 49934, Note_on_c, 14, 24, 0
14, 49934, Note_on_c, 14, 31, 112
14, 49994, Note_on_c, 14, 31, 0
14, 49994, Note_on_c, 14, 24, 112
14, 50044, Note_on_c, 14, 24, 0
14, 50054, Note_on_c, 14, 33, 112
14, 50114, Note_on_c, 14, 33, 0
14, 50114, Note_on_c, 14, 24, 112
14, 50174, Note_on_c, 14, 24, 0
14, 50174, Note_on_c, 14, 33, 112
14, 50234, Note_on_c, 14, 33, 0
14, 50234, Note_on_c, 14, 24, 112
14, 50284, Note_on_c, 14, 24, 0
14, 50294, Note_on_c, 14, 33, 112
14, 50354, Note_on_c, 14, 33, 0
14, 50354, Note_on_c, 14, 45, 112
14, 50404, Note_on_c, 14, 45, 0
14, 50414, Note_on_c, 14, 46, 112
14, 50474, Note_on_c, 14, 46, 0
14, 50474, Note_on_c, 14, 34, 112
14, 50534, Note_on_c, 14, 34, 0
14, 50534, Note_on_c, 14, 46, 112
14, 50594, Note_on_c, 14, 46, 0
14, 50594, Note_on_c, 14, 45, 112
14, 50654, Note_on_c, 14, 45, 0
14, 50654, Note_on_c, 14, 43, 112
14, 50704, Note_on_c, 14, 43, 0
14, 50714, Note_on_c, 14, 48, 112
14, 50764, Note_on_c, 14, 48, 0
14, 50774, Note_on_c, 14, 48, 112
14, 50834, Note_on_c, 14, 48, 0
14, 50834, Note_on_c, 14, 36, 112
14, 50894, Note_on_c, 14, 36, 0
14, 50894, Note_on_c, 14, 41, 112
14, 50954, Note_on_c, 14, 41, 0
14, 50954, Note_on_c, 14, 45, 112
14, 51014, Note_on_c, 14, 45, 0
14, 51014, Note_on_c, 14, 41, 112
14, 51074, Note_on_c, 14, 41, 0
14, 51074, Note_on_c, 14, 48, 112
14, 51134, Note_on_c, 14, 48, 0
14, 51134, Note_on_c, 14, 47, 112
14, 51194, Note_on_c, 14, 47, 0
14, 51254, Control_c, 14, 11, 107
14, 51254, Note_on_c, 14, 50, 112
14, 51263, Control_c, 14, 11, 104
14, 51272, Control_c, 14, 11, 101
14, 51281, Control_c, 14, 11, 98
14, 51290, Control_c, 14, 11, 95
14, 51299, Control_c, 14, 11, 92
14, 51308, Control_c, 14, 11, 89
14, 51314, Note_on_c, 14, 50, 0
14, 51614, Control_c, 14, 11, 107
14, 51614, Note_on_c, 14, 48, 112
14, 51623, Control_c, 14, 11, 104
14, 51632, Control_c, 14, 11, 101
14, 51641, Control_c, 14, 11, 98
14, 51650, Control_c, 14, 11, 95
14, 51659, Control_c, 14, 11, 92
14, 51668, Control_c, 14, 11, 89
14, 51674, Note_on_c, 14, 48, 0
14, 51974, Note_on_c, 14, 47, 112
14, 52034, Note_on_c, 14, 47, 0
14, 52094, Note_on_c, 14, 43, 112
14, 52154, Note_on_c, 14, 43, 0
14, 52214, Control_c, 14, 11, 107
14, 52214, Note_on_c, 14, 48, 112
14, 52223, Control_c, 14, 11, 104
14, 52232, Control_c, 14, 11, 101
14, 52241, Control_c, 14, 11, 98
14, 52250, Control_c, 14, 11, 95
14, 52259, Control_c, 14, 11, 92
14, 52268, Control_c, 14, 11, 89
14, 52394, Note_on_c, 14, 48, 0
14, 52394, Note_on_c, 14, 43, 112
14, 52454, Note_on_c, 14, 43, 0
14, 52454, Note_on_c, 14, 40, 112
14, 52514, Note_on_c, 14, 40, 0
14, 52514, Note_on_c, 14, 36, 112
14, 52564, Note_on_c, 14, 36, 0
14, 52574, Control_c, 14, 11, 107
14, 52574, Note_on_c, 14, 35, 112
14, 52583, Control_c, 14, 11, 104
14, 52592, Control_c, 14, 11, 101
14, 52601, Control_c, 14, 11, 98
14, 52610, Control_c, 14, 11, 95
14, 52619, Control_c, 14, 11, 92
14, 52628, Control_c, 14, 11, 89
14, 52634, Note_on_c, 14, 35, 0
14, 52634, Note_on_c, 14, 43, 112
14, 52694, Note_on_c, 14, 43, 0
14, 52694, Note_on_c, 14, 47, 112
14, 52754, Note_on_c, 14, 47, 0
14, 52754, Note_on_c, 14, 43, 112
14, 52814, Note_on_c, 14, 43, 0
14, 52814, Note_on_c, 14, 47, 112
14, 52874, Note_on_c, 14, 47, 0
14, 52874, Note_on_c, 14, 43, 112
14, 52924, Note_on_c, 14, 43, 0
14, 52934, Control_c, 14, 11, 107
14, 52934, Note_on_c, 14, 48, 112
14, 52943, Control_c, 14, 11, 104
14, 52952, Control_c, 14, 11, 101
14, 52961, Control_c, 14, 11, 98
14, 52970, Control_c, 14, 11, 95
14, 52979, Control_c, 14, 11, 92
14, 52988, Control_c, 14, 11, 89
14, 52994, Note_on_c, 14, 48, 0
14, 52994, Note_on_c, 14, 36, 112
14, 53054, Note_on_c, 14, 36, 0
14, 53054, Note_on_c, 14, 48, 112
14, 53114, Note_on_c, 14, 48, 0
14, 53114, Note_on_c, 14, 36, 112
14, 53174, Note_on_c, 14, 36, 0
14, 53174, Note_on_c, 14, 48, 112
14, 53234, Note_on_c, 14, 48, 0
14, 53234, Note_on_c, 14, 36, 112
14, 53284, Note_on_c, 14, 36, 0
14, 53294, Control_c, 14, 11, 107
14, 53294, Note_on_c, 14, 48, 112
14, 53303, Control_c, 14, 11, 104
14, 53312, Control_c, 14, 11, 101
14, 53321, Control_c, 14, 11, 98
14, 53330, Control_c, 14, 11, 95
14, 53339, Control_c, 14, 11, 92
14, 53348, Control_c, 14, 11, 89
14, 53354, Note_on_c, 14, 48, 0
14, 53354, Note_on_c, 14, 36, 112
14, 53414, Note_on_c, 14, 36, 0
14, 53414, Note_on_c, 14, 48, 112
14, 53474, Note_on_c, 14, 48, 0
14, 53474, Note_on_c, 14, 36, 112
14, 53534, Note_on_c, 14, 36, 0
14, 53534, Note_on_c, 14, 48, 112
14, 53594, Note_on_c, 14, 48, 0
14, 53594, Note_on_c, 14, 36, 112
14, 53644, Note_on_c, 14, 36, 0
14, 53654, Control_c, 14, 11, 107
14, 53654, Note_on_c, 14, 48, 112
14, 53663, Control_c, 14, 11, 104
14, 53672, Control_c, 14, 11, 101
14, 53681, Control_c, 14, 11, 98
14, 53690, Control_c, 14, 11, 95
14, 53699, Control_c, 14, 11, 92
14, 53708, Control_c, 14, 11, 89
14, 53714, Note_on_c, 14, 48, 0
14, 53714, Note_on_c, 14, 41, 112
14, 53774, Note_on_c, 14, 41, 0
14, 53774, Note_on_c, 14, 48, 112
14, 53834, Note_on_c, 14, 48, 0
14, 53834, Note_on_c, 14, 41, 112
14, 53894, Note_on_c, 14, 41, 0
14, 53894, Control_c, 14, 11, 87
14, 53894, Note_on_c, 14, 48, 112
14, 53912, Control_c, 14, 11, 84
14, 53930, Control_c, 14, 11, 81
14, 53948, Control_c, 14, 11, 78
14, 53954, Note_on_c, 14, 48, 0
14, 53954, Note_on_c, 14, 41, 112
14, 53966, Control_c, 14, 11, 75
14, 53984, Control_c, 14, 11, 72
14, 54002, Control_c, 14, 11, 69
14, 54004, Note_on_c, 14, 41, 0
14, 54014, Note_on_c, 14, 41, 76
14, 54074, Note_on_c, 14, 41, 0
14, 54133, Program_c, 14, 45
14, 54134, Control_c, 14, 11, 100
14, 54134, Note_on_c, 14, 41, 49
14, 54194, Note_on_c, 14, 41, 0
14, 54374, Note_on_c, 14, 41, 47
14, 54494, Note_on_c, 14, 41, 0
14, 54494, Note_on_c, 14, 41, 45
14, 54614, Note_on_c, 14, 41, 0
14, 54734, Note_on_c, 14, 41, 43
14, 54854, Note_on_c, 14, 41, 0
14, 54854, Note_on_c, 14, 41, 41
14, 54974, Note_on_c, 14, 41, 0
14, 55094, Note_on_c, 14, 41, 39
14, 55214, Note_on_c, 14, 41, 0
14, 55214, Note_on_c, 14, 41, 37
14, 55333, Program_c, 14, 48
14, 55334, Note_on_c, 14, 41, 0
14, 55334, Control_c, 14, 11, 32
14, 55334, Note_on_c, 14, 46, 92
14, 55394, Note_on_c, 14, 46, 0
14, 55574, Note_on_c, 14, 46, 92
14, 55634, Note_on_c, 14, 46, 0
14, 55814, Note_on_c, 14, 46, 92
14, 55874, Note_on_c, 14, 46, 0
14, 56053, Program_c, 14, 45
14, 56054, Control_c, 14, 11, 100
14, 56054, Note_on_c, 14, 34, 57
14, 56174, Note_on_c, 14, 34, 0
14, 56174, Note_on_c, 14, 36, 57
14, 56294, Note_on_c, 14, 36, 0
14, 56294, Note_on_c, 14, 36, 57
14, 56414, Note_on_c, 14, 36, 0
14, 56414, Note_on_c, 14, 39, 57
14, 56534, Note_on_c, 14, 39, 0
14, 56534, Note_on_c, 14, 38, 57
14, 56654, Note_on_c, 14, 38, 0
14, 56654, Note_on_c, 14, 34, 57
14, 56774, Note_on_c, 14, 34, 0
14, 56774, Note_on_c, 14, 34, 57
14, 56834, Note_on_c, 14, 34, 0
14, 56834, Note_on_c, 14, 33, 57
14, 56894, Note_on_c, 14, 33, 0
14, 56894, Note_on_c, 14, 31, 57
14, 57014, Note_on_c, 14, 31, 0
14, 57014, Note_on_c, 14, 43, 57
14, 57134, Note_on_c, 14, 43, 0
14, 57134, Note_on_c, 14, 36, 57
14, 57254, Note_on_c, 14, 36, 0
14, 57254, Note_on_c, 14, 41, 57
14, 57374, Note_on_c, 14, 41, 0
14, 57493, Program_c, 14, 48
14, 57494, Control_c, 14, 11, 37
14, 57494, Note_on_c, 14, 41, 112
14, 57516, Control_c, 14, 11, 38
14, 57539, Control_c, 14, 11, 39
14, 57554, Note_on_c, 14, 41, 0
14, 57554, Note_on_c, 14, 36, 112
14, 57562, Control_c, 14, 11, 40
14, 57585, Control_c, 14, 11, 41
14, 57607, Control_c, 14, 11, 42
14, 57614, Note_on_c, 14, 36, 0
14, 57614, Note_on_c, 14, 43, 112
14, 57630, Control_c, 14, 11, 43
14, 57653, Control_c, 14, 11, 44
14, 57674, Note_on_c, 14, 43, 0
14, 57674, Note_on_c, 14, 36, 112
14, 57676, Control_c, 14, 11, 45
14, 57699, Control_c, 14, 11, 46
14, 57721, Control_c, 14, 11, 47
14, 57734, Note_on_c, 14, 36, 0
14, 57734, Note_on_c, 14, 43, 112
14, 57744, Control_c, 14, 11, 48
14, 57767, Control_c, 14, 11, 49
14, 57790, Control_c, 14, 11, 50
14, 57794, Note_on_c, 14, 43, 0
14, 57794, Note_on_c, 14, 36, 112
14, 57812, Control_c, 14, 11, 51
14, 57835, Control_c, 14, 11, 52
14, 57844, Note_on_c, 14, 36, 0
14, 57854, Note_on_c, 14, 46, 112
14, 57858, Control_c, 14, 11, 53
14, 57881, Control_c, 14, 11, 54
14, 57904, Control_c, 14, 11, 55
14, 57914, Note_on_c, 14, 46, 0
14, 57914, Note_on_c, 14, 36, 112
14, 57926, Control_c, 14, 11, 56
14, 57949, Control_c, 14, 11, 57
14, 57972, Control_c, 14, 11, 58
14, 57974, Note_on_c, 14, 36, 0
14, 57974, Note_on_c, 14, 45, 112
14, 57995, Control_c, 14, 11, 59
14, 58017, Control_c, 14, 11, 60
14, 58034, Note_on_c, 14, 45, 0
14, 58034, Note_on_c, 14, 36, 112
14, 58040, Control_c, 14, 11, 61
14, 58063, Control_c, 14, 11, 62
14, 58086, Control_c, 14, 11, 63
14, 58094, Note_on_c, 14, 36, 0
14, 58094, Note_on_c, 14, 45, 112
14, 58109, Control_c, 14, 11, 64
14, 58131, Control_c, 14, 11, 65
14, 58154, Note_on_c, 14, 45, 0
14, 58154, Control_c, 14, 11, 66
14, 58154, Note_on_c, 14, 36, 112
14, 58177, Control_c, 14, 11, 67
14, 58200, Control_c, 14, 11, 68
14, 58214, Note_on_c, 14, 36, 0
14, 58214, Note_on_c, 14, 45, 112
14, 58222, Control_c, 14, 11, 69
14, 58245, Control_c, 14, 11, 70
14, 58268, Control_c, 14, 11, 71
14, 58274, Note_on_c, 14, 45, 0
14, 58274, Note_on_c, 14, 36, 112
14, 58291, Control_c, 14, 11, 72
14, 58314, Control_c, 14, 11, 73
14, 58334, Note_on_c, 14, 36, 0
14, 58334, Note_on_c, 14, 46, 112
14, 58336, Control_c, 14, 11, 74
14, 58359, Control_c, 14, 11, 75
14, 58382, Control_c, 14, 11, 76
14, 58394, Note_on_c, 14, 46, 0
14, 58394, Note_on_c, 14, 36, 112
14, 58405, Control_c, 14, 11, 77
14, 58427, Control_c, 14, 11, 78
14, 58450, Control_c, 14, 11, 79
14, 58454, Note_on_c, 14, 36, 0
14, 58454, Note_on_c, 14, 46, 112
14, 58473, Control_c, 14, 11, 80
14, 58496, Control_c, 14, 11, 81
14, 58514, Note_on_c, 14, 46, 0
14, 58514, Note_on_c, 14, 45, 112
14, 58519, Control_c, 14, 11, 82
14, 58541, Control_c, 14, 11, 83
14, 58564, Control_c, 14, 11, 84
14, 58574, Note_on_c, 14, 45, 0
14, 58574, Note_on_c, 14, 43, 112
14, 58587, Control_c, 14, 11, 85
14, 58610, Control_c, 14, 11, 86
14, 58624, Note_on_c, 14, 43, 0
14, 58633, Control_c, 14, 11, 87
14, 58634, Note_on_c, 14, 41, 112
14, 58672, Note_on_c, 14, 41, 0
14, 58694, Control_c, 14, 11, 97
14, 58694, Note_on_c, 14, 41, 112
14, 58718, Control_c, 14, 11, 95
14, 58742, Control_c, 14, 11, 93
14, 58754, Note_on_c, 14, 41, 0
14, 58754, Note_on_c, 14, 36, 112
14, 58814, Note_on_c, 14, 36, 0
14, 58814, Note_on_c, 14, 40, 112
14, 58874, Note_on_c, 14, 40, 0
14, 58874, Note_on_c, 14, 38, 112
14, 58934, Note_on_c, 14, 38, 0
14, 58934, Note_on_c, 14, 36, 112
14, 58984, Note_on_c, 14, 36, 0
14, 58994, Note_on_c, 14, 46, 112
14, 59032, Note_on_c, 14, 46, 0
14, 59054, Note_on_c, 14, 46, 112
14, 59114, Note_on_c, 14, 46, 0
14, 59114, Note_on_c, 14, 41, 112
14, 59174, Note_on_c, 14, 41, 0
14, 59174, Note_on_c, 14, 45, 112
14, 59234, Note_on_c, 14, 45, 0
14, 59234, Note_on_c, 14, 43, 112
14, 59294, Note_on_c, 14, 43, 0
14, 59294, Note_on_c, 14, 41, 112
14, 59344, Note_on_c, 14, 41, 0
14, 59354, Control_c, 14, 11, 102
14, 59354, Note_on_c, 14, 51, 112
14, 59392, Note_on_c, 14, 51, 0
14, 59414, Note_on_c, 14, 51, 112
14, 59534, Note_on_c, 14, 51, 0
14, 59534, Note_on_c, 14, 50, 112
14, 59594, Note_on_c, 14, 50, 0
14, 60074, Note_on_c, 14, 48, 112
14, 60119, Note_on_c, 14, 48, 0
14, 60134, Note_on_c, 14, 48, 112
14, 60254, Note_on_c, 14, 48, 0
14, 60254, Note_on_c, 14, 41, 112
14, 60314, Note_on_c, 14, 41, 0
14, 60794, Note_on_c, 14, 48, 112
14, 60839, Note_on_c, 14, 48, 0
14, 60854, Note_on_c, 14, 48, 112
14, 60974, Note_on_c, 14, 48, 0
14, 60974, Note_on_c, 14, 41, 112
14, 61034, Note_on_c, 14, 41, 0
14, 61514, Note_on_c, 14, 48, 112
14, 61559, Note_on_c, 14, 48, 0
14, 61574, Note_on_c, 14, 48, 112
14, 61694, Note_on_c, 14, 48, 0
14, 61694, Note_on_c, 14, 41, 112
14, 61754, Note_on_c, 14, 41, 0
14, 62054, Note_on_c, 14, 48, 112
14, 62174, Note_on_c, 14, 48, 0
14, 62174, Note_on_c, 14, 41, 112
14, 62234, Note_on_c, 14, 41, 0
14, 62534, Control_c, 14, 11, 122
14, 62534, Note_on_c, 14, 36, 112
14, 62552, Control_c, 14, 11, 119
14, 62570, Control_c, 14, 11, 116
14, 62588, Control_c, 14, 11, 113
14, 62606, Control_c, 14, 11, 110
14, 62624, Control_c, 14, 11, 107
14, 62642, Control_c, 14, 11, 104
14, 63134, Note_on_c, 14, 36, 0
14, 63134, Note_on_c, 14, 29, 112
14, 63184, Note_on_c, 14, 29, 0
14, 63734, Control_c, 14, 121, 0
14, 63734, End_track
15, 0, Start_track
15, 0, MIDI_port, 0
15, 0, Title_t, "Sequ. by J.F.Lucarelli"
15, 0, End_track
16, 0, Start_track
16, 0, MIDI_port, 0
16, 0, Title_t, "j-f.lucarelli@infonie.be  --  http://perso.infonie.fr/espace-midi"
16, 0, End_track
17, 0, Start_track
17, 0, MIDI_port, 0
17, 0, Title_t, "Optimized for AWE 64  + 8 MB memory"
17, 0, End_track
18, 0, Start_track
18, 0, MIDI_port, 0
18, 0, Title_t, "\251 September 2000"
18, 0, End_track
19, 0, Start_track
19, 0, MIDI_port, 0
19, 0, Title_t, "Beethoven - Symphony no 8 in F - III : tempo di minuetto"
19, 0, End_track
0, 0, End_of_file