0, 0, Header, 1, 17, 120
1, 0, Start_track
1, 0, Title_t, "Piano Concerto No. 2 in B-flat Major, Op. 19"
1, 0, Title_t, "Mov't. 1"
1, 0, Text_t, "Ludwig van Beethoven"
1, 0, Text_t, "Allegro con brio"
1, 0, Text_t, "Allegro con brio\012"
1, 0, Time_signature, 4, 2, 24, 8
1, 0, Key_signature, -2, "major"
1, 0, Tempo, 410959
1, 0, Marker_t, "Allegro con brio"
1, 59160, Tempo, 428571
1, 59280, Tempo, 447761
1, 59400, Tempo, 472441
1, 59520, Tempo, 495868
1, 59640, Tempo, 526316
1, 59760, Tempo, 555556
1, 59880, Tempo, 588235
1, 60000, Tempo, 631579
1, 60120, Tempo, 674157
1, 60240, Tempo, 731707
1, 60360, Tempo, 789474
1, 60480, Tempo, 410959
1, 81720, Tempo, 425532
1, 81840, Tempo, 441176
1, 81960, Tempo, 458015
1, 82080, Tempo, 476190
1, 82200, Tempo, 458015
1, 82320, Tempo, 441176
1, 82440, Tempo, 425532
1, 82560, Tempo, 410959
1, 125040, Tempo, 408163
1, 125160, Tempo, 405405
1, 125280, Tempo, 402685
1, 125400, Tempo, 400000
1, 125520, Tempo, 397351
1, 125640, Tempo, 394737
1, 125760, Tempo, 392157
1, 126240, Tempo, 382166
1, 134880, Tempo, 410959
1, 147480, Tempo, 408163
1, 147600, Tempo, 405405
1, 147720, Tempo, 402685
1, 147840, Tempo, 397351
1, 148320, Tempo, 410959
1, 152640, Tempo, 397351
1, 165840, Tempo, 400000
1, 166080, Tempo, 402685
1, 166200, Tempo, 405405
1, 166440, Tempo, 408163
1, 166560, Tempo, 410959
1, 167040, Tempo, 397351
1, 177360, Tempo, 400000
1, 177600, Tempo, 402685
1, 177720, Tempo, 405405
1, 177960, Tempo, 408163
1, 178080, Tempo, 410959
1, 178680, Tempo, 408163
1, 178800, Tempo, 402685
1, 178920, Tempo, 400000
1, 179040, Tempo, 394737
1, 179160, Tempo, 389610
1, 179280, Tempo, 387097
1, 179400, Tempo, 382166
1, 179520, Tempo, 377358
1, 180240, Tempo, 375000
1, 180360, Tempo, 372671
1, 180480, Tempo, 370370
1, 180600, Tempo, 368098
1, 180720, Tempo, 365854
1, 180840, Tempo, 363636
1, 180960, Tempo, 361446
1, 181200, Tempo, 363636
1, 181320, Tempo, 365854
1, 181440, Tempo, 368098
1, 181560, Tempo, 370370
1, 181680, Tempo, 372671
1, 181800, Tempo, 375000
1, 181920, Tempo, 377358
1, 182040, Tempo, 379747
1, 182160, Tempo, 382166
1, 182280, Tempo, 384615
1, 182400, Tempo, 387097
1, 182520, Tempo, 389610
1, 182640, Tempo, 392157
1, 182760, Tempo, 394737
1, 182880, Tempo, 410959
1, 188640, Tempo, 1304348
1, 188760, Tempo, 1016949
1, 188880, Tempo, 821918
1, 189000, Tempo, 697674
1, 189120, Tempo, 392157
1, 199560, Tempo, 394737
1, 199562, Tempo, 400000
1, 199686, Tempo, 408163
1, 199802, Tempo, 419580
1, 199922, Tempo, 425532
1, 200044, Tempo, 437956
1, 200162, Tempo, 454545
1, 200280, Tempo, 476190
1, 200404, Tempo, 500000
1, 200522, Tempo, 389610
1, 200762, Tempo, 441176
1, 200880, Tempo, 480000
1, 201004, Tempo, 437956
1, 201118, Tempo, 413793
1, 201236, Tempo, 400000
1, 201360, Tempo, 392157
1, 201484, Tempo, 372671
1, 202082, Tempo, 361446
1, 202202, Tempo, 352941
1, 203090, Tempo, 422535
1, 203522, Tempo, 392157
1, 213364, Tempo, 405405
1, 213484, Tempo, 431655
1, 213600, Tempo, 451128
1, 213960, Tempo, 431655
1, 214204, Tempo, 419580
1, 214320, Tempo, 451128
1, 214680, Tempo, 487805
1, 214802, Tempo, 504202
1, 215040, Tempo, 392157
1, 215040, End_track
2, 0, Start_track
2, 0, MIDI_port, 0
2, 0, Title_t, "Flutes"
2, 0, Control_c, 0, 7, 100
2, 0, Control_c, 0, 10, 40
2, 0, Control_c, 0, 93, 0
2, 0, Control_c, 0, 91, 66
2, 0, Program_c, 0, 73
2, 0, Note_on_c, 0, 82, 86
2, 180, Note_on_c, 0, 82, 0
2, 210, Note_on_c, 0, 82, 89
2, 240, Note_on_c, 0, 82, 0
2, 240, Note_on_c, 0, 89, 99
2, 270, Note_on_c, 0, 89, 0
2, 330, Note_on_c, 0, 89, 99
2, 360, Note_on_c, 0, 89, 0
2, 360, Note_on_c, 0, 86, 99
2, 390, Note_on_c, 0, 86, 0
2, 450, Note_on_c, 0, 86, 95
2, 480, Note_on_c, 0, 86, 0
2, 480, Note_on_c, 0, 82, 90
2, 600, Note_on_c, 0, 82, 0
2, 1202, Control_c, 0, 7, 98
2, 1206, Control_c, 0, 7, 97
2, 1210, Control_c, 0, 7, 96
2, 1214, Control_c, 0, 7, 95
2, 1216, Control_c, 0, 7, 94
2, 1220, Control_c, 0, 7, 93
2, 1224, Control_c, 0, 7, 92
2, 1226, Control_c, 0, 7, 91
2, 1230, Control_c, 0, 7, 90
2, 1234, Control_c, 0, 7, 89
2, 1238, Control_c, 0, 7, 88
2, 1240, Control_c, 0, 7, 87
2, 1244, Control_c, 0, 7, 86
2, 1248, Control_c, 0, 7, 85
2, 1250, Control_c, 0, 7, 84
2, 1254, Control_c, 0, 7, 83
2, 1258, Control_c, 0, 7, 82
2, 1260, Control_c, 0, 7, 81
2, 1264, Control_c, 0, 7, 80
2, 1268, Control_c, 0, 7, 79
2, 1272, Control_c, 0, 7, 78
2, 1274, Control_c, 0, 7, 77
2, 1278, Control_c, 0, 7, 76
2, 1282, Control_c, 0, 7, 75
2, 1284, Control_c, 0, 7, 74
2, 1288, Control_c, 0, 7, 73
2, 1292, Control_c, 0, 7, 72
2, 1296, Control_c, 0, 7, 71
2, 1298, Control_c, 0, 7, 70
2, 1302, Control_c, 0, 7, 69
2, 1306, Control_c, 0, 7, 68
2, 1308, Control_c, 0, 7, 67
2, 1312, Control_c, 0, 7, 66
2, 1316, Control_c, 0, 7, 65
2, 1318, Control_c, 0, 7, 64
2, 1322, Control_c, 0, 7, 63
2, 1326, Control_c, 0, 7, 62
2, 1330, Control_c, 0, 7, 61
2, 1332, Control_c, 0, 7, 60
2, 1336, Control_c, 0, 7, 59
2, 1340, Control_c, 0, 7, 58
2, 1342, Control_c, 0, 7, 57
2, 1346, Control_c, 0, 7, 56
2, 1350, Control_c, 0, 7, 55
2, 1352, Control_c, 0, 7, 54
2, 1356, Control_c, 0, 7, 53
2, 1360, Control_c, 0, 7, 52
2, 1364, Control_c, 0, 7, 51
2, 1366, Control_c, 0, 7, 50
2, 1370, Control_c, 0, 7, 49
2, 1374, Control_c, 0, 7, 48
2, 1376, Control_c, 0, 7, 47
2, 1380, Control_c, 0, 7, 46
2, 1384, Control_c, 0, 7, 45
2, 1388, Control_c, 0, 7, 44
2, 1390, Control_c, 0, 7, 43
2, 1394, Control_c, 0, 7, 42
2, 1398, Control_c, 0, 7, 41
2, 1400, Control_c, 0, 7, 40
2, 1404, Control_c, 0, 7, 39
2, 1408, Control_c, 0, 7, 38
2, 1410, Control_c, 0, 7, 37
2, 1414, Control_c, 0, 7, 36
2, 1418, Control_c, 0, 7, 35
2, 1422, Control_c, 0, 7, 34
2, 1424, Control_c, 0, 7, 33
2, 1428, Control_c, 0, 7, 32
2, 1432, Control_c, 0, 7, 31
2, 1434, Control_c, 0, 7, 30
2, 1438, Control_c, 0, 7, 29
2, 1438, Control_c, 0, 7, 32
2, 1440, Control_c, 0, 7, 30
2, 1440, Note_on_c, 0, 81, 104
2, 1442, Control_c, 0, 7, 28
2, 1444, Control_c, 0, 7, 27
2, 1444, Control_c, 0, 7, 32
2, 1446, Control_c, 0, 7, 33
2, 1448, Control_c, 0, 7, 31
2, 1450, Control_c, 0, 7, 31
2, 1452, Control_c, 0, 7, 33
2, 1454, Control_c, 0, 7, 32
2, 1454, Control_c, 0, 7, 34
2, 1456, Control_c, 0, 7, 32
2, 1460, Control_c, 0, 7, 35
2, 1460, Control_c, 0, 7, 34
2, 1462, Control_c, 0, 7, 33
2, 1464, Control_c, 0, 7, 33
2, 1466, Control_c, 0, 7, 35
2, 1468, Control_c, 0, 7, 34
2, 1468, Control_c, 0, 7, 36
2, 1470, Control_c, 0, 7, 34
2, 1474, Control_c, 0, 7, 37
2, 1474, Control_c, 0, 7, 36
2, 1476, Control_c, 0, 7, 35
2, 1478, Control_c, 0, 7, 35
2, 1480, Control_c, 0, 7, 37
2, 1482, Control_c, 0, 7, 36
2, 1482, Control_c, 0, 7, 38
2, 1484, Control_c, 0, 7, 36
2, 1488, Control_c, 0, 7, 39
2, 1488, Control_c, 0, 7, 38
2, 1490, Control_c, 0, 7, 37
2, 1490, Control_c, 0, 7, 37
2, 1494, Control_c, 0, 7, 39
2, 1496, Control_c, 0, 7, 38
2, 1496, Control_c, 0, 7, 40
2, 1498, Control_c, 0, 7, 38
2, 1502, Control_c, 0, 7, 40
2, 1504, Control_c, 0, 7, 39
2, 1504, Control_c, 0, 7, 41
2, 1504, Control_c, 0, 7, 39
2, 1508, Control_c, 0, 7, 41
2, 1510, Control_c, 0, 7, 40
2, 1510, Control_c, 0, 7, 42
2, 1512, Control_c, 0, 7, 40
2, 1516, Control_c, 0, 7, 42
2, 1518, Control_c, 0, 7, 41
2, 1518, Control_c, 0, 7, 43
2, 1518, Control_c, 0, 7, 41
2, 1522, Control_c, 0, 7, 43
2, 1524, Control_c, 0, 7, 42
2, 1524, Control_c, 0, 7, 44
2, 1526, Control_c, 0, 7, 42
2, 1530, Control_c, 0, 7, 44
2, 1532, Control_c, 0, 7, 43
2, 1532, Control_c, 0, 7, 45
2, 1532, Control_c, 0, 7, 43
2, 1536, Control_c, 0, 7, 45
2, 1538, Control_c, 0, 7, 44
2, 1538, Control_c, 0, 7, 46
2, 1538, Control_c, 0, 7, 44
2, 1544, Control_c, 0, 7, 46
2, 1546, Control_c, 0, 7, 45
2, 1546, Control_c, 0, 7, 47
2, 1546, Control_c, 0, 7, 45
2, 1550, Control_c, 0, 7, 47
2, 1552, Control_c, 0, 7, 46
2, 1552, Control_c, 0, 7, 48
2, 1552, Control_c, 0, 7, 46
2, 1558, Control_c, 0, 7, 48
2, 1560, Control_c, 0, 7, 47
2, 1560, Control_c, 0, 7, 49
2, 1560, Control_c, 0, 7, 47
2, 1564, Control_c, 0, 7, 49
2, 1566, Control_c, 0, 7, 48
2, 1566, Control_c, 0, 7, 48
2, 1568, Control_c, 0, 7, 50
2, 1572, Control_c, 0, 7, 50
2, 1574, Control_c, 0, 7, 49
2, 1574, Control_c, 0, 7, 51
2, 1574, Control_c, 0, 7, 49
2, 1580, Control_c, 0, 7, 50
2, 1580, Control_c, 0, 7, 51
2, 1580, Control_c, 0, 7, 50
2, 1582, Control_c, 0, 7, 52
2, 1586, Control_c, 0, 7, 52
2, 1586, Control_c, 0, 7, 51
2, 1588, Control_c, 0, 7, 51
2, 1588, Control_c, 0, 7, 53
2, 1594, Control_c, 0, 7, 52
2, 1594, Control_c, 0, 7, 53
2, 1594, Control_c, 0, 7, 52
2, 1596, Control_c, 0, 7, 54
2, 1600, Control_c, 0, 7, 54
2, 1600, Control_c, 0, 7, 53
2, 1602, Control_c, 0, 7, 53
2, 1602, Control_c, 0, 7, 55
2, 1608, Control_c, 0, 7, 54
2, 1608, Control_c, 0, 7, 55
2, 1608, Control_c, 0, 7, 54
2, 1610, Control_c, 0, 7, 56
2, 1614, Control_c, 0, 7, 56
2, 1614, Control_c, 0, 7, 55
2, 1616, Control_c, 0, 7, 55
2, 1616, Control_c, 0, 7, 57
2, 1622, Control_c, 0, 7, 56
2, 1622, Control_c, 0, 7, 57
2, 1622, Control_c, 0, 7, 56
2, 1624, Control_c, 0, 7, 58
2, 1628, Control_c, 0, 7, 58
2, 1628, Control_c, 0, 7, 57
2, 1630, Control_c, 0, 7, 57
2, 1632, Control_c, 0, 7, 59
2, 1634, Control_c, 0, 7, 58
2, 1636, Control_c, 0, 7, 58
2, 1636, Control_c, 0, 7, 59
2, 1638, Control_c, 0, 7, 60
2, 1642, Control_c, 0, 7, 60
2, 1642, Control_c, 0, 7, 59
2, 1644, Control_c, 0, 7, 59
2, 1646, Control_c, 0, 7, 61
2, 1648, Control_c, 0, 7, 60
2, 1650, Control_c, 0, 7, 60
2, 1650, Control_c, 0, 7, 61
2, 1652, Control_c, 0, 7, 62
2, 1656, Control_c, 0, 7, 62
2, 1656, Control_c, 0, 7, 61
2, 1658, Control_c, 0, 7, 61
2, 1660, Control_c, 0, 7, 63
2, 1662, Control_c, 0, 7, 62
2, 1664, Control_c, 0, 7, 62
2, 1664, Control_c, 0, 7, 63
2, 1666, Control_c, 0, 7, 64
2, 1670, Control_c, 0, 7, 64
2, 1670, Control_c, 0, 7, 63
2, 1672, Control_c, 0, 7, 63
2, 1674, Control_c, 0, 7, 65
2, 1676, Control_c, 0, 7, 64
2, 1678, Control_c, 0, 7, 64
2, 1678, Control_c, 0, 7, 65
2, 1680, Note_on_c, 0, 81, 0
2, 1680, Note_on_c, 0, 82, 93
2, 1680, Control_c, 0, 7, 66
2, 1682, Control_c, 0, 7, 65
2, 1684, Control_c, 0, 7, 66
2, 1686, Control_c, 0, 7, 65
2, 1688, Control_c, 0, 7, 67
2, 1690, Control_c, 0, 7, 66
2, 1692, Control_c, 0, 7, 66
2, 1692, Control_c, 0, 7, 67
2, 1696, Control_c, 0, 7, 68
2, 1696, Control_c, 0, 7, 67
2, 1700, Control_c, 0, 7, 67
2, 1700, Control_c, 0, 7, 68
2, 1702, Control_c, 0, 7, 69
2, 1704, Control_c, 0, 7, 68
2, 1706, Control_c, 0, 7, 68
2, 1706, Control_c, 0, 7, 69
2, 1710, Control_c, 0, 7, 70
2, 1710, Control_c, 0, 7, 69
2, 1714, Control_c, 0, 7, 69
2, 1714, Control_c, 0, 7, 70
2, 1716, Control_c, 0, 7, 71
2, 1718, Control_c, 0, 7, 70
2, 1720, Control_c, 0, 7, 70
2, 1720, Control_c, 0, 7, 71
2, 1724, Control_c, 0, 7, 72
2, 1724, Control_c, 0, 7, 71
2, 1728, Control_c, 0, 7, 71
2, 1728, Control_c, 0, 7, 72
2, 1730, Control_c, 0, 7, 73
2, 1730, Control_c, 0, 7, 72
2, 1734, Control_c, 0, 7, 72
2, 1734, Control_c, 0, 7, 73
2, 1738, Control_c, 0, 7, 74
2, 1738, Control_c, 0, 7, 73
2, 1742, Control_c, 0, 7, 73
2, 1742, Control_c, 0, 7, 74
2, 1744, Control_c, 0, 7, 74
2, 1746, Control_c, 0, 7, 75
2, 1748, Control_c, 0, 7, 74
2, 1748, Control_c, 0, 7, 75
2, 1752, Control_c, 0, 7, 76
2, 1752, Control_c, 0, 7, 75
2, 1756, Control_c, 0, 7, 75
2, 1756, Control_c, 0, 7, 76
2, 1758, Control_c, 0, 7, 76
2, 1760, Control_c, 0, 7, 77
2, 1762, Control_c, 0, 7, 76
2, 1762, Control_c, 0, 7, 77
2, 1766, Control_c, 0, 7, 78
2, 1766, Control_c, 0, 7, 77
2, 1770, Control_c, 0, 7, 77
2, 1770, Control_c, 0, 7, 78
2, 1772, Control_c, 0, 7, 78
2, 1774, Control_c, 0, 7, 79
2, 1776, Control_c, 0, 7, 78
2, 1776, Control_c, 0, 7, 79
2, 1778, Control_c, 0, 7, 79
2, 1780, Control_c, 0, 7, 80
2, 1784, Control_c, 0, 7, 79
2, 1784, Control_c, 0, 7, 80
2, 1786, Control_c, 0, 7, 80
2, 1788, Control_c, 0, 7, 81
2, 1790, Control_c, 0, 7, 80
2, 1790, Control_c, 0, 7, 81
2, 1792, Control_c, 0, 7, 81
2, 1794, Control_c, 0, 7, 82
2, 1798, Control_c, 0, 7, 81
2, 1798, Control_c, 0, 7, 82
2, 1800, Control_c, 0, 7, 82
2, 1802, Control_c, 0, 7, 83
2, 1804, Control_c, 0, 7, 82
2, 1804, Control_c, 0, 7, 83
2, 1806, Control_c, 0, 7, 83
2, 1810, Control_c, 0, 7, 84
2, 1812, Control_c, 0, 7, 83
2, 1812, Control_c, 0, 7, 84
2, 1814, Control_c, 0, 7, 84
2, 1816, Control_c, 0, 7, 85
2, 1818, Control_c, 0, 7, 84
2, 1820, Control_c, 0, 7, 85
2, 1820, Control_c, 0, 7, 85
2, 1824, Control_c, 0, 7, 86
2, 1826, Control_c, 0, 7, 85
2, 1826, Control_c, 0, 7, 86
2, 1826, Control_c, 0, 7, 86
2, 1830, Control_c, 0, 7, 87
2, 1832, Control_c, 0, 7, 86
2, 1834, Control_c, 0, 7, 87
2, 1834, Control_c, 0, 7, 87
2, 1838, Control_c, 0, 7, 88
2, 1840, Control_c, 0, 7, 87
2, 1840, Control_c, 0, 7, 88
2, 1840, Control_c, 0, 7, 88
2, 1844, Control_c, 0, 7, 89
2, 1846, Control_c, 0, 7, 88
2, 1848, Control_c, 0, 7, 89
2, 1848, Control_c, 0, 7, 89
2, 1852, Control_c, 0, 7, 90
2, 1854, Control_c, 0, 7, 89
2, 1854, Control_c, 0, 7, 90
2, 1854, Control_c, 0, 7, 90
2, 1858, Control_c, 0, 7, 91
2, 1860, Control_c, 0, 7, 90
2, 1862, Control_c, 0, 7, 91
2, 1862, Control_c, 0, 7, 91
2, 1866, Control_c, 0, 7, 92
2, 1868, Control_c, 0, 7, 91
2, 1868, Control_c, 0, 7, 92
2, 1868, Control_c, 0, 7, 92
2, 1874, Control_c, 0, 7, 92
2, 1874, Control_c, 0, 7, 93
2, 1874, Control_c, 0, 7, 93
2, 1876, Control_c, 0, 7, 93
2, 1880, Control_c, 0, 7, 94
2, 1882, Control_c, 0, 7, 93
2, 1882, Control_c, 0, 7, 94
2, 1882, Control_c, 0, 7, 94
2, 1888, Control_c, 0, 7, 94
2, 1888, Control_c, 0, 7, 95
2, 1888, Control_c, 0, 7, 95
2, 1890, Control_c, 0, 7, 95
2, 1894, Control_c, 0, 7, 96
2, 1896, Control_c, 0, 7, 95
2, 1896, Control_c, 0, 7, 96
2, 1896, Control_c, 0, 7, 96
2, 1902, Control_c, 0, 7, 96
2, 1902, Control_c, 0, 7, 97
2, 1902, Control_c, 0, 7, 97
2, 1904, Control_c, 0, 7, 97
2, 1908, Control_c, 0, 7, 98
2, 1910, Control_c, 0, 7, 97
2, 1910, Control_c, 0, 7, 98
2, 1910, Control_c, 0, 7, 98
2, 1916, Control_c, 0, 7, 98
2, 1916, Control_c, 0, 7, 99
2, 1916, Control_c, 0, 7, 99
2, 1918, Control_c, 0, 7, 99
2, 1920, Note_on_c, 0, 82, 0
2, 1920, Control_c, 0, 7, 100
2, 1920, Control_c, 0, 10, 40
2, 1920, Control_c, 0, 93, 0
2, 1920, Control_c, 0, 91, 66
2, 1920, Note_on_c, 0, 84, 98
2, 1922, Control_c, 0, 7, 99
2, 1922, Control_c, 0, 7, 100
2, 1922, Control_c, 0, 7, 100
2, 1924, Control_c, 0, 7, 100
2, 2040, Control_c, 0, 7, 100
2, 2040, Control_c, 0, 10, 40
2, 2040, Control_c, 0, 93, 0
2, 2040, Control_c, 0, 91, 66
2, 2100, Note_on_c, 0, 84, 0
2, 2130, Note_on_c, 0, 77, 98
2, 2160, Note_on_c, 0, 77, 0
2, 2160, Note_on_c, 0, 84, 99
2, 2190, Note_on_c, 0, 84, 0
2, 2250, Note_on_c, 0, 84, 93
2, 2265, Note_on_c, 0, 84, 0
2, 2280, Note_on_c, 0, 81, 95
2, 2310, Note_on_c, 0, 81, 0
2, 2370, Note_on_c, 0, 81, 94
2, 2385, Note_on_c, 0, 81, 0
2, 2400, Note_on_c, 0, 77, 99
2, 2520, Note_on_c, 0, 77, 0
2, 3360, Control_c, 0, 7, 99
2, 3360, Note_on_c, 0, 82, 47
2, 3370, Control_c, 0, 7, 100
2, 3378, Control_c, 0, 7, 101
2, 3388, Control_c, 0, 7, 102
2, 3396, Control_c, 0, 7, 103
2, 3404, Control_c, 0, 7, 104
2, 3414, Control_c, 0, 7, 105
2, 3422, Control_c, 0, 7, 106
2, 3430, Control_c, 0, 7, 107
2, 3440, Control_c, 0, 7, 108
2, 3448, Control_c, 0, 7, 109
2, 3456, Control_c, 0, 7, 110
2, 3466, Control_c, 0, 7, 111
2, 3474, Control_c, 0, 7, 112
2, 3482, Control_c, 0, 7, 113
2, 3492, Control_c, 0, 7, 114
2, 3500, Control_c, 0, 7, 115
2, 3510, Control_c, 0, 7, 116
2, 3518, Control_c, 0, 7, 117
2, 3526, Control_c, 0, 7, 118
2, 3536, Control_c, 0, 7, 119
2, 3544, Control_c, 0, 7, 120
2, 3552, Control_c, 0, 7, 121
2, 3562, Control_c, 0, 7, 122
2, 3570, Control_c, 0, 7, 123
2, 3578, Control_c, 0, 7, 124
2, 3588, Control_c, 0, 7, 125
2, 3596, Control_c, 0, 7, 126
2, 3600, Note_on_c, 0, 82, 0
2, 3600, Note_on_c, 0, 84, 40
2, 3602, Control_c, 0, 7, 127
2, 3612, Control_c, 0, 7, 126
2, 3620, Control_c, 0, 7, 125
2, 3628, Control_c, 0, 7, 124
2, 3638, Control_c, 0, 7, 123
2, 3646, Control_c, 0, 7, 122
2, 3654, Control_c, 0, 7, 121
2, 3662, Control_c, 0, 7, 120
2, 3672, Control_c, 0, 7, 119
2, 3680, Control_c, 0, 7, 118
2, 3688, Control_c, 0, 7, 117
2, 3698, Control_c, 0, 7, 116
2, 3706, Control_c, 0, 7, 115
2, 3714, Control_c, 0, 7, 114
2, 3722, Control_c, 0, 7, 113
2, 3732, Control_c, 0, 7, 112
2, 3740, Control_c, 0, 7, 111
2, 3748, Control_c, 0, 7, 110
2, 3758, Control_c, 0, 7, 109
2, 3766, Control_c, 0, 7, 108
2, 3774, Control_c, 0, 7, 107
2, 3782, Control_c, 0, 7, 106
2, 3792, Control_c, 0, 7, 105
2, 3800, Control_c, 0, 7, 104
2, 3808, Control_c, 0, 7, 103
2, 3818, Control_c, 0, 7, 102
2, 3826, Control_c, 0, 7, 101
2, 3834, Control_c, 0, 7, 100
2, 3840, Note_on_c, 0, 84, 0
2, 3840, Note_on_c, 0, 86, 45
2, 3842, Control_c, 0, 7, 99
2, 3900, Note_on_c, 0, 86, 0
2, 7200, Note_on_c, 0, 74, 44
2, 7680, Note_on_c, 0, 74, 0
2, 7680, Note_on_c, 0, 82, 45
2, 8160, Note_on_c, 0, 82, 0
2, 8160, Note_on_c, 0, 81, 43
2, 8520, Note_on_c, 0, 81, 0
2, 8520, Note_on_c, 0, 84, 68
2, 8640, Note_on_c, 0, 84, 0
2, 8640, Note_on_c, 0, 87, 56
2, 9120, Note_on_c, 0, 87, 0
2, 9120, Note_on_c, 0, 86, 61
2, 9600, Note_on_c, 0, 86, 0
2, 9600, Note_on_c, 0, 89, 64
2, 10080, Note_on_c, 0, 89, 0
2, 10080, Note_on_c, 0, 89, 82
2, 10140, Note_on_c, 0, 89, 0
2, 10320, Note_on_c, 0, 80, 86
2, 10560, Note_on_c, 0, 80, 0
2, 10560, Note_on_c, 0, 79, 73
2, 10680, Note_on_c, 0, 79, 0
2, 11040, Note_on_c, 0, 70, 89
2, 11160, Note_on_c, 0, 70, 0
2, 11280, Note_on_c, 0, 82, 86
2, 11520, Note_on_c, 0, 82, 0
2, 11520, Note_on_c, 0, 81, 78
2, 11640, Note_on_c, 0, 81, 0
2, 14400, Note_on_c, 0, 84, 95
2, 14400, Control_c, 0, 7, 89
2, 14880, Note_on_c, 0, 84, 0
2, 14880, Note_on_c, 0, 84, 95
2, 15360, Note_on_c, 0, 84, 0
2, 15360, Note_on_c, 0, 84, 65
2, 15480, Note_on_c, 0, 84, 0
2, 15480, Note_on_c, 0, 84, 99
2, 15540, Note_on_c, 0, 84, 0
2, 15720, Note_on_c, 0, 84, 99
2, 15780, Note_on_c, 0, 84, 0
2, 15960, Note_on_c, 0, 84, 105
2, 16020, Note_on_c, 0, 84, 0
2, 16440, Note_on_c, 0, 79, 94
2, 16470, Note_on_c, 0, 79, 0
2, 16530, Note_on_c, 0, 79, 95
2, 16545, Note_on_c, 0, 79, 0
2, 16560, Note_on_c, 0, 76, 95
2, 16620, Note_on_c, 0, 76, 0
2, 16680, Note_on_c, 0, 72, 86
2, 16740, Note_on_c, 0, 72, 0
2, 16920, Note_on_c, 0, 84, 93
2, 16950, Note_on_c, 0, 84, 0
2, 17010, Note_on_c, 0, 84, 94
2, 17025, Note_on_c, 0, 84, 0
2, 17040, Note_on_c, 0, 80, 94
2, 17100, Note_on_c, 0, 80, 0
2, 17160, Note_on_c, 0, 77, 90
2, 17220, Note_on_c, 0, 77, 0
2, 17400, Note_on_c, 0, 84, 99
2, 17460, Note_on_c, 0, 84, 0
2, 17640, Note_on_c, 0, 84, 95
2, 17700, Note_on_c, 0, 84, 0
2, 17880, Note_on_c, 0, 84, 98
2, 17940, Note_on_c, 0, 84, 0
2, 18230, Control_c, 0, 7, 99
2, 18240, Note_on_c, 0, 72, 98
2, 18360, Note_on_c, 0, 72, 0
2, 18480, Note_on_c, 0, 72, 94
2, 18600, Note_on_c, 0, 72, 0
2, 18720, Note_on_c, 0, 72, 93
2, 18840, Note_on_c, 0, 72, 0
2, 19200, Note_on_c, 0, 73, 42
2, 19320, Note_on_c, 0, 73, 0
2, 19440, Note_on_c, 0, 73, 45
2, 19560, Note_on_c, 0, 73, 0
2, 19680, Note_on_c, 0, 73, 29
2, 19800, Note_on_c, 0, 73, 0
2, 21720, Note_on_c, 0, 87, 36
2, 21840, Note_on_c, 0, 87, 0
2, 21840, Note_on_c, 0, 84, 52
2, 21960, Note_on_c, 0, 84, 0
2, 21960, Note_on_c, 0, 78, 43
2, 22080, Note_on_c, 0, 78, 0
2, 22080, Note_on_c, 0, 77, 46
2, 22200, Note_on_c, 0, 77, 0
2, 23640, Note_on_c, 0, 87, 44
2, 23760, Note_on_c, 0, 87, 0
2, 23760, Note_on_c, 0, 84, 43
2, 23880, Note_on_c, 0, 84, 0
2, 23880, Note_on_c, 0, 81, 56
2, 24000, Note_on_c, 0, 81, 0
2, 24000, Note_on_c, 0, 82, 40
2, 24120, Note_on_c, 0, 82, 0
2, 24480, Note_on_c, 0, 77, 94
2, 24482, Control_c, 0, 7, 99
2, 24486, Control_c, 0, 7, 98
2, 24488, Control_c, 0, 7, 97
2, 24492, Control_c, 0, 7, 96
2, 24494, Control_c, 0, 7, 95
2, 24498, Control_c, 0, 7, 94
2, 24500, Control_c, 0, 7, 93
2, 24504, Control_c, 0, 7, 92
2, 24506, Control_c, 0, 7, 91
2, 24510, Control_c, 0, 7, 90
2, 24512, Control_c, 0, 7, 89
2, 24514, Control_c, 0, 7, 88
2, 24518, Control_c, 0, 7, 87
2, 24520, Control_c, 0, 7, 86
2, 24524, Control_c, 0, 7, 85
2, 24526, Control_c, 0, 7, 84
2, 24530, Control_c, 0, 7, 83
2, 24532, Control_c, 0, 7, 82
2, 24536, Control_c, 0, 7, 81
2, 24538, Control_c, 0, 7, 80
2, 24540, Control_c, 0, 7, 79
2, 24544, Control_c, 0, 7, 78
2, 24546, Control_c, 0, 7, 77
2, 24550, Control_c, 0, 7, 76
2, 24552, Control_c, 0, 7, 75
2, 24556, Control_c, 0, 7, 74
2, 24558, Control_c, 0, 7, 73
2, 24562, Control_c, 0, 7, 72
2, 24564, Control_c, 0, 7, 71
2, 24568, Control_c, 0, 7, 70
2, 24570, Control_c, 0, 7, 69
2, 24572, Control_c, 0, 7, 68
2, 24576, Control_c, 0, 7, 67
2, 24578, Control_c, 0, 7, 66
2, 24582, Control_c, 0, 7, 65
2, 24584, Control_c, 0, 7, 64
2, 24588, Control_c, 0, 7, 63
2, 24590, Control_c, 0, 7, 62
2, 24594, Control_c, 0, 7, 61
2, 24596, Control_c, 0, 7, 60
2, 24598, Control_c, 0, 7, 59
2, 24660, Note_on_c, 0, 77, 0
2, 24660, Note_on_c, 0, 79, 95
2, 24720, Note_on_c, 0, 79, 0
2, 24720, Note_on_c, 0, 81, 99
2, 24780, Note_on_c, 0, 81, 0
2, 24780, Note_on_c, 0, 82, 89
2, 24840, Note_on_c, 0, 82, 0
2, 24840, Note_on_c, 0, 84, 84
2, 24900, Note_on_c, 0, 84, 0
2, 24900, Note_on_c, 0, 81, 99
2, 24960, Note_on_c, 0, 81, 0
2, 24960, Note_on_c, 0, 82, 90
2, 25080, Note_on_c, 0, 82, 0
2, 25440, Control_c, 0, 7, 99
2, 25440, Note_on_c, 0, 77, 74
2, 25444, Control_c, 0, 7, 98
2, 25446, Control_c, 0, 7, 97
2, 25450, Control_c, 0, 7, 96
2, 25452, Control_c, 0, 7, 95
2, 25456, Control_c, 0, 7, 94
2, 25458, Control_c, 0, 7, 93
2, 25462, Control_c, 0, 7, 92
2, 25464, Control_c, 0, 7, 91
2, 25468, Control_c, 0, 7, 90
2, 25470, Control_c, 0, 7, 89
2, 25474, Control_c, 0, 7, 88
2, 25476, Control_c, 0, 7, 87
2, 25480, Control_c, 0, 7, 86
2, 25482, Control_c, 0, 7, 85
2, 25484, Control_c, 0, 7, 84
2, 25488, Control_c, 0, 7, 83
2, 25490, Control_c, 0, 7, 82
2, 25494, Control_c, 0, 7, 81
2, 25496, Control_c, 0, 7, 80
2, 25500, Control_c, 0, 7, 79
2, 25502, Control_c, 0, 7, 78
2, 25506, Control_c, 0, 7, 77
2, 25508, Control_c, 0, 7, 76
2, 25512, Control_c, 0, 7, 75
2, 25514, Control_c, 0, 7, 74
2, 25518, Control_c, 0, 7, 73
2, 25520, Control_c, 0, 7, 72
2, 25522, Control_c, 0, 7, 71
2, 25526, Control_c, 0, 7, 70
2, 25528, Control_c, 0, 7, 69
2, 25532, Control_c, 0, 7, 68
2, 25534, Control_c, 0, 7, 67
2, 25538, Control_c, 0, 7, 66
2, 25540, Control_c, 0, 7, 65
2, 25544, Control_c, 0, 7, 64
2, 25546, Control_c, 0, 7, 63
2, 25550, Control_c, 0, 7, 62
2, 25552, Control_c, 0, 7, 61
2, 25556, Control_c, 0, 7, 60
2, 25558, Control_c, 0, 7, 59
2, 25560, Control_c, 0, 7, 58
2, 25620, Note_on_c, 0, 77, 0
2, 25620, Note_on_c, 0, 79, 86
2, 25680, Note_on_c, 0, 79, 0
2, 25680, Note_on_c, 0, 81, 89
2, 25740, Note_on_c, 0, 81, 0
2, 25740, Note_on_c, 0, 82, 89
2, 25800, Note_on_c, 0, 82, 0
2, 25800, Note_on_c, 0, 84, 90
2, 25860, Note_on_c, 0, 84, 0
2, 25860, Note_on_c, 0, 81, 90
2, 25920, Note_on_c, 0, 81, 0
2, 25920, Note_on_c, 0, 82, 90
2, 26040, Note_on_c, 0, 82, 0
2, 26040, Control_c, 0, 7, 59
2, 26040, Note_on_c, 0, 70, 93
2, 26050, Control_c, 0, 7, 60
2, 26058, Control_c, 0, 7, 61
2, 26068, Control_c, 0, 7, 62
2, 26076, Control_c, 0, 7, 63
2, 26086, Control_c, 0, 7, 64
2, 26094, Control_c, 0, 7, 65
2, 26100, Note_on_c, 0, 70, 0
2, 26100, Note_on_c, 0, 72, 73
2, 26104, Control_c, 0, 7, 66
2, 26112, Control_c, 0, 7, 67
2, 26122, Control_c, 0, 7, 68
2, 26130, Control_c, 0, 7, 69
2, 26140, Control_c, 0, 7, 70
2, 26148, Control_c, 0, 7, 71
2, 26158, Control_c, 0, 7, 72
2, 26160, Note_on_c, 0, 72, 0
2, 26160, Note_on_c, 0, 73, 84
2, 26166, Control_c, 0, 7, 73
2, 26176, Control_c, 0, 7, 74
2, 26184, Control_c, 0, 7, 75
2, 26194, Control_c, 0, 7, 76
2, 26202, Control_c, 0, 7, 77
2, 26212, Control_c, 0, 7, 78
2, 26220, Note_on_c, 0, 73, 0
2, 26220, Control_c, 0, 7, 79
2, 26220, Note_on_c, 0, 75, 95
2, 26230, Control_c, 0, 7, 80
2, 26238, Control_c, 0, 7, 81
2, 26248, Control_c, 0, 7, 82
2, 26256, Control_c, 0, 7, 83
2, 26266, Control_c, 0, 7, 84
2, 26274, Control_c, 0, 7, 85
2, 26280, Note_on_c, 0, 75, 0
2, 26280, Note_on_c, 0, 77, 89
2, 26284, Control_c, 0, 7, 86
2, 26292, Control_c, 0, 7, 87
2, 26302, Control_c, 0, 7, 88
2, 26310, Control_c, 0, 7, 89
2, 26320, Control_c, 0, 7, 90
2, 26328, Control_c, 0, 7, 91
2, 26338, Control_c, 0, 7, 92
2, 26340, Note_on_c, 0, 77, 0
2, 26340, Note_on_c, 0, 73, 82
2, 26346, Control_c, 0, 7, 93
2, 26356, Control_c, 0, 7, 94
2, 26364, Control_c, 0, 7, 95
2, 26374, Control_c, 0, 7, 96
2, 26382, Control_c, 0, 7, 97
2, 26392, Control_c, 0, 7, 98
2, 26400, Note_on_c, 0, 73, 0
2, 26400, Note_on_c, 0, 75, 93
2, 26400, Control_c, 0, 7, 99
2, 26640, Note_on_c, 0, 75, 0
2, 26640, Note_on_c, 0, 76, 105
2, 26880, Note_on_c, 0, 76, 0
2, 26880, Note_on_c, 0, 77, 89
2, 27000, Note_on_c, 0, 77, 0
2, 27600, Note_on_c, 0, 82, 43
2, 27660, Note_on_c, 0, 82, 0
2, 28080, Note_on_c, 0, 84, 46
2, 28140, Note_on_c, 0, 84, 0
2, 28560, Note_on_c, 0, 86, 40
2, 28620, Note_on_c, 0, 86, 0
2, 29040, Note_on_c, 0, 87, 76
2, 29100, Note_on_c, 0, 87, 0
2, 29520, Note_on_c, 0, 84, 86
2, 29580, Note_on_c, 0, 84, 0
2, 29760, Control_c, 0, 7, 99
2, 29760, Note_on_c, 0, 82, 90
2, 29766, Control_c, 0, 7, 98
2, 29770, Control_c, 0, 7, 97
2, 29776, Control_c, 0, 7, 96
2, 29780, Control_c, 0, 7, 95
2, 29786, Control_c, 0, 7, 94
2, 29790, Control_c, 0, 7, 93
2, 29796, Control_c, 0, 7, 92
2, 29800, Control_c, 0, 7, 91
2, 29806, Control_c, 0, 7, 90
2, 29810, Control_c, 0, 7, 89
2, 29816, Control_c, 0, 7, 88
2, 29820, Control_c, 0, 7, 87
2, 29826, Control_c, 0, 7, 86
2, 29830, Control_c, 0, 7, 85
2, 29836, Control_c, 0, 7, 84
2, 29840, Control_c, 0, 7, 83
2, 29846, Control_c, 0, 7, 82
2, 29850, Control_c, 0, 7, 81
2, 29856, Control_c, 0, 7, 80
2, 29860, Control_c, 0, 7, 79
2, 29866, Control_c, 0, 7, 78
2, 29870, Control_c, 0, 7, 77
2, 29876, Control_c, 0, 7, 76
2, 29880, Control_c, 0, 7, 75
2, 29886, Control_c, 0, 7, 74
2, 29890, Control_c, 0, 7, 73
2, 29896, Control_c, 0, 7, 72
2, 29900, Control_c, 0, 7, 71
2, 29906, Control_c, 0, 7, 70
2, 29910, Control_c, 0, 7, 69
2, 29916, Control_c, 0, 7, 68
2, 29920, Control_c, 0, 7, 67
2, 29926, Control_c, 0, 7, 66
2, 29930, Control_c, 0, 7, 65
2, 29936, Control_c, 0, 7, 64
2, 29940, Note_on_c, 0, 82, 0
2, 29940, Control_c, 0, 7, 63
2, 30120, Control_c, 0, 7, 63
2, 30124, Control_c, 0, 7, 64
2, 30128, Control_c, 0, 7, 65
2, 30130, Control_c, 0, 7, 66
2, 30134, Control_c, 0, 7, 67
2, 30138, Control_c, 0, 7, 68
2, 30140, Control_c, 0, 7, 69
2, 30144, Control_c, 0, 7, 70
2, 30148, Control_c, 0, 7, 71
2, 30150, Control_c, 0, 7, 72
2, 30154, Control_c, 0, 7, 73
2, 30158, Control_c, 0, 7, 74
2, 30160, Control_c, 0, 7, 75
2, 30164, Control_c, 0, 7, 76
2, 30168, Control_c, 0, 7, 77
2, 30170, Control_c, 0, 7, 78
2, 30174, Control_c, 0, 7, 79
2, 30178, Control_c, 0, 7, 80
2, 30180, Control_c, 0, 7, 81
2, 30184, Control_c, 0, 7, 82
2, 30188, Control_c, 0, 7, 83
2, 30190, Control_c, 0, 7, 84
2, 30194, Control_c, 0, 7, 85
2, 30198, Control_c, 0, 7, 86
2, 30200, Control_c, 0, 7, 87
2, 30204, Control_c, 0, 7, 88
2, 30208, Control_c, 0, 7, 89
2, 30210, Control_c, 0, 7, 90
2, 30214, Control_c, 0, 7, 91
2, 30218, Control_c, 0, 7, 92
2, 30220, Control_c, 0, 7, 93
2, 30224, Control_c, 0, 7, 94
2, 30228, Control_c, 0, 7, 95
2, 30230, Control_c, 0, 7, 96
2, 30234, Control_c, 0, 7, 97
2, 30238, Control_c, 0, 7, 98
2, 30240, Control_c, 0, 7, 99
2, 30720, Note_on_c, 0, 75, 81
2, 30780, Note_on_c, 0, 75, 0
2, 30840, Note_on_c, 0, 81, 46
2, 30900, Note_on_c, 0, 81, 0
2, 30960, Note_on_c, 0, 84, 45
2, 31020, Note_on_c, 0, 84, 0
2, 31080, Note_on_c, 0, 87, 68
2, 31140, Note_on_c, 0, 87, 0
2, 31200, Note_on_c, 0, 81, 54
2, 31320, Note_on_c, 0, 81, 0
2, 31680, Note_on_c, 0, 77, 76
2, 31740, Note_on_c, 0, 77, 0
2, 31800, Note_on_c, 0, 83, 44
2, 31860, Note_on_c, 0, 83, 0
2, 31920, Note_on_c, 0, 86, 50
2, 31980, Note_on_c, 0, 86, 0
2, 32040, Note_on_c, 0, 89, 40
2, 32100, Note_on_c, 0, 89, 0
2, 32160, Note_on_c, 0, 83, 57
2, 32280, Note_on_c, 0, 83, 0
2, 32640, Note_on_c, 0, 84, 93
2, 32820, Note_on_c, 0, 84, 0
2, 33120, Note_on_c, 0, 86, 93
2, 33300, Note_on_c, 0, 86, 0
2, 33600, Note_on_c, 0, 86, 90
2, 33780, Note_on_c, 0, 86, 0
2, 34080, Note_on_c, 0, 87, 89
2, 34260, Note_on_c, 0, 87, 0
2, 34560, Note_on_c, 0, 88, 101
2, 34740, Note_on_c, 0, 88, 0
2, 35520, Note_on_c, 0, 76, 94
2, 35760, Note_on_c, 0, 76, 0
2, 35760, Note_on_c, 0, 77, 81
2, 35880, Note_on_c, 0, 77, 0
2, 36000, Note_on_c, 0, 81, 94
2, 36240, Note_on_c, 0, 81, 0
2, 36240, Note_on_c, 0, 82, 71
2, 36360, Note_on_c, 0, 82, 0
2, 36480, Note_on_c, 0, 83, 99
2, 36720, Note_on_c, 0, 83, 0
2, 36720, Note_on_c, 0, 84, 86
2, 36840, Note_on_c, 0, 84, 0
2, 36840, Note_on_c, 0, 86, 101
2, 36900, Note_on_c, 0, 86, 0
2, 36900, Note_on_c, 0, 87, 94
2, 36960, Note_on_c, 0, 87, 0
2, 36960, Note_on_c, 0, 82, 89
2, 37200, Note_on_c, 0, 82, 0
2, 37200, Note_on_c, 0, 81, 95
2, 37440, Note_on_c, 0, 81, 0
2, 37440, Note_on_c, 0, 86, 104
2, 37680, Note_on_c, 0, 86, 0
2, 37680, Note_on_c, 0, 87, 84
2, 37800, Note_on_c, 0, 87, 0
2, 37800, Note_on_c, 0, 89, 99
2, 37860, Note_on_c, 0, 89, 0
2, 37860, Note_on_c, 0, 91, 95
2, 37920, Note_on_c, 0, 91, 0
2, 37920, Note_on_c, 0, 86, 95
2, 38160, Note_on_c, 0, 86, 0
2, 38160, Note_on_c, 0, 87, 94
2, 38340, Note_on_c, 0, 87, 0
2, 38340, Note_on_c, 0, 84, 81
2, 38400, Note_on_c, 0, 84, 0
2, 38400, Note_on_c, 0, 86, 99
2, 38880, Note_on_c, 0, 86, 0
2, 38880, Note_on_c, 0, 87, 98
2, 39120, Note_on_c, 0, 87, 0
2, 39120, Note_on_c, 0, 84, 98
2, 39360, Note_on_c, 0, 84, 0
2, 39360, Note_on_c, 0, 86, 99
2, 39840, Note_on_c, 0, 86, 0
2, 39840, Note_on_c, 0, 87, 99
2, 40080, Note_on_c, 0, 87, 0
2, 40080, Note_on_c, 0, 84, 95
2, 40320, Note_on_c, 0, 84, 0
2, 40320, Note_on_c, 0, 82, 90
2, 40440, Note_on_c, 0, 82, 0
2, 41400, Note_on_c, 0, 82, 44
2, 41490, Note_on_c, 0, 82, 0
2, 41520, Note_on_c, 0, 82, 56
2, 41610, Note_on_c, 0, 82, 0
2, 41640, Note_on_c, 0, 82, 65
2, 41730, Note_on_c, 0, 82, 0
2, 41760, Note_on_c, 0, 81, 78
2, 41940, Note_on_c, 0, 81, 0
2, 41940, Note_on_c, 0, 82, 81
2, 42000, Note_on_c, 0, 82, 0
2, 42000, Note_on_c, 0, 84, 93
2, 42060, Note_on_c, 0, 84, 0
2, 42060, Note_on_c, 0, 86, 89
2, 42120, Note_on_c, 0, 86, 0
2, 42120, Note_on_c, 0, 87, 65
2, 42180, Note_on_c, 0, 87, 0
2, 42180, Note_on_c, 0, 84, 47
2, 42240, Note_on_c, 0, 84, 0
2, 42240, Note_on_c, 0, 82, 58
2, 42360, Note_on_c, 0, 82, 0
2, 42480, Note_on_c, 0, 86, 105
2, 42600, Note_on_c, 0, 86, 0
2, 42720, Note_on_c, 0, 82, 89
2, 42840, Note_on_c, 0, 82, 0
2, 48480, Note_on_c, 0, 82, 84
2, 48600, Note_on_c, 0, 82, 0
2, 49980, Note_on_c, 0, 87, 94
2, 50010, Note_on_c, 0, 87, 0
2, 50040, Note_on_c, 0, 87, 89
2, 50070, Note_on_c, 0, 87, 0
2, 50100, Note_on_c, 0, 87, 90
2, 50130, Note_on_c, 0, 87, 0
2, 50160, Note_on_c, 0, 87, 95
2, 50190, Note_on_c, 0, 87, 0
2, 50220, Note_on_c, 0, 87, 95
2, 50250, Note_on_c, 0, 87, 0
2, 50280, Note_on_c, 0, 86, 94
2, 50340, Note_on_c, 0, 86, 0
2, 50340, Note_on_c, 0, 87, 94
2, 50400, Note_on_c, 0, 87, 0
2, 50400, Note_on_c, 0, 86, 95
2, 50520, Note_on_c, 0, 86, 0
2, 58740, Note_on_c, 0, 84, 45
2, 58800, Note_on_c, 0, 84, 0
2, 58800, Note_on_c, 0, 83, 45
2, 58860, Note_on_c, 0, 83, 0
2, 58980, Note_on_c, 0, 83, 67
2, 59040, Note_on_c, 0, 83, 0
2, 59040, Note_on_c, 0, 84, 59
2, 59100, Note_on_c, 0, 84, 0
2, 60960, Note_on_c, 0, 81, 95
2, 61019, Control_c, 0, 7, 99
2, 61021, Control_c, 0, 7, 98
2, 61023, Control_c, 0, 7, 97
2, 61025, Control_c, 0, 7, 96
2, 61027, Control_c, 0, 7, 95
2, 61029, Control_c, 0, 7, 94
2, 61031, Control_c, 0, 7, 93
2, 61033, Control_c, 0, 7, 92
2, 61035, Control_c, 0, 7, 90
2, 61037, Control_c, 0, 7, 89
2, 61039, Control_c, 0, 7, 88
2, 61041, Control_c, 0, 7, 87
2, 61043, Control_c, 0, 7, 86
2, 61045, Control_c, 0, 7, 85
2, 61047, Control_c, 0, 7, 84
2, 61049, Control_c, 0, 7, 82
2, 61051, Control_c, 0, 7, 81
2, 61053, Control_c, 0, 7, 80
2, 61055, Control_c, 0, 7, 79
2, 61057, Control_c, 0, 7, 78
2, 61059, Control_c, 0, 7, 77
2, 61061, Control_c, 0, 7, 76
2, 61063, Control_c, 0, 7, 74
2, 61065, Control_c, 0, 7, 73
2, 61067, Control_c, 0, 7, 72
2, 61069, Control_c, 0, 7, 71
2, 61071, Control_c, 0, 7, 70
2, 61073, Control_c, 0, 7, 69
2, 61075, Control_c, 0, 7, 68
2, 61077, Control_c, 0, 7, 66
2, 61200, Note_on_c, 0, 81, 0
2, 61200, Note_on_c, 0, 82, 86
2, 61440, Note_on_c, 0, 82, 0
2, 61440, Note_on_c, 0, 81, 89
2, 61560, Note_on_c, 0, 81, 0
2, 61680, Note_on_c, 0, 86, 89
2, 61740, Note_on_c, 0, 86, 0
2, 61740, Note_on_c, 0, 84, 86
2, 61800, Note_on_c, 0, 84, 0
2, 61800, Note_on_c, 0, 82, 76
2, 61860, Note_on_c, 0, 82, 0
2, 61860, Note_on_c, 0, 81, 94
2, 61920, Note_on_c, 0, 81, 0
2, 61920, Note_on_c, 0, 79, 86
2, 61980, Note_on_c, 0, 79, 0
2, 62040, Note_on_c, 0, 79, 89
2, 62100, Note_on_c, 0, 79, 0
2, 62160, Note_on_c, 0, 79, 90
2, 62220, Note_on_c, 0, 79, 0
2, 62280, Note_on_c, 0, 81, 95
2, 62340, Note_on_c, 0, 81, 0
2, 62400, Control_c, 0, 7, 94
2, 62400, Note_on_c, 0, 84, 95
2, 62640, Note_on_c, 0, 84, 0
2, 62640, Note_on_c, 0, 82, 85
2, 62760, Note_on_c, 0, 82, 0
2, 62880, Note_on_c, 0, 84, 95
2, 62938, Control_c, 0, 7, 99
2, 62940, Control_c, 0, 7, 98
2, 62942, Control_c, 0, 7, 97
2, 62944, Control_c, 0, 7, 96
2, 62946, Control_c, 0, 7, 95
2, 62948, Control_c, 0, 7, 94
2, 62950, Control_c, 0, 7, 93
2, 62952, Control_c, 0, 7, 92
2, 62954, Control_c, 0, 7, 91
2, 62956, Control_c, 0, 7, 90
2, 62958, Control_c, 0, 7, 88
2, 62960, Control_c, 0, 7, 87
2, 62962, Control_c, 0, 7, 86
2, 62964, Control_c, 0, 7, 85
2, 62966, Control_c, 0, 7, 84
2, 62968, Control_c, 0, 7, 83
2, 62970, Control_c, 0, 7, 82
2, 62972, Control_c, 0, 7, 81
2, 62974, Control_c, 0, 7, 80
2, 62976, Control_c, 0, 7, 79
2, 62978, Control_c, 0, 7, 77
2, 62980, Control_c, 0, 7, 76
2, 62982, Control_c, 0, 7, 75
2, 62984, Control_c, 0, 7, 74
2, 62986, Control_c, 0, 7, 73
2, 62988, Control_c, 0, 7, 72
2, 62990, Control_c, 0, 7, 71
2, 62992, Control_c, 0, 7, 70
2, 62994, Control_c, 0, 7, 69
2, 62996, Control_c, 0, 7, 68
2, 62998, Control_c, 0, 7, 66
2, 63360, Note_on_c, 0, 84, 0
2, 63360, Note_on_c, 0, 84, 78
2, 63480, Note_on_c, 0, 84, 0
2, 63600, Note_on_c, 0, 89, 99
2, 63660, Note_on_c, 0, 89, 0
2, 63660, Note_on_c, 0, 88, 98
2, 63720, Note_on_c, 0, 88, 0
2, 63720, Note_on_c, 0, 86, 95
2, 63750, Note_on_c, 0, 86, 0
2, 63780, Note_on_c, 0, 84, 89
2, 63810, Note_on_c, 0, 84, 0
2, 63840, Note_on_c, 0, 83, 98
2, 63900, Note_on_c, 0, 83, 0
2, 63900, Note_on_c, 0, 84, 95
2, 63960, Note_on_c, 0, 84, 0
2, 63960, Note_on_c, 0, 79, 95
2, 63990, Note_on_c, 0, 79, 0
2, 64020, Note_on_c, 0, 84, 89
2, 64050, Note_on_c, 0, 84, 0
2, 64080, Note_on_c, 0, 82, 86
2, 64140, Note_on_c, 0, 82, 0
2, 64140, Note_on_c, 0, 81, 95
2, 64200, Note_on_c, 0, 81, 0
2, 64200, Note_on_c, 0, 79, 95
2, 64230, Note_on_c, 0, 79, 0
2, 64260, Note_on_c, 0, 77, 93
2, 64290, Note_on_c, 0, 77, 0
2, 64320, Control_c, 0, 7, 66
2, 64320, Note_on_c, 0, 81, 94
2, 64328, Control_c, 0, 7, 67
2, 64336, Control_c, 0, 7, 68
2, 64344, Control_c, 0, 7, 69
2, 64352, Control_c, 0, 7, 70
2, 64358, Control_c, 0, 7, 71
2, 64366, Control_c, 0, 7, 72
2, 64374, Control_c, 0, 7, 73
2, 64382, Control_c, 0, 7, 74
2, 64390, Control_c, 0, 7, 75
2, 64396, Control_c, 0, 7, 76
2, 64404, Control_c, 0, 7, 77
2, 64412, Control_c, 0, 7, 78
2, 64420, Control_c, 0, 7, 79
2, 64426, Control_c, 0, 7, 80
2, 64434, Control_c, 0, 7, 81
2, 64442, Control_c, 0, 7, 82
2, 64450, Control_c, 0, 7, 83
2, 64458, Control_c, 0, 7, 84
2, 64464, Control_c, 0, 7, 85
2, 64472, Control_c, 0, 7, 86
2, 64480, Control_c, 0, 7, 87
2, 64488, Control_c, 0, 7, 88
2, 64494, Control_c, 0, 7, 89
2, 64502, Control_c, 0, 7, 90
2, 64510, Control_c, 0, 7, 91
2, 64518, Control_c, 0, 7, 92
2, 64526, Control_c, 0, 7, 93
2, 64532, Control_c, 0, 7, 94
2, 64540, Control_c, 0, 7, 95
2, 64548, Control_c, 0, 7, 96
2, 64556, Control_c, 0, 7, 97
2, 64560, Note_on_c, 0, 81, 0
2, 64560, Note_on_c, 0, 79, 90
2, 64562, Control_c, 0, 7, 98
2, 64564, Control_c, 0, 7, 98
2, 64568, Control_c, 0, 7, 97
2, 64572, Control_c, 0, 7, 96
2, 64576, Control_c, 0, 7, 95
2, 64580, Control_c, 0, 7, 94
2, 64584, Control_c, 0, 7, 93
2, 64586, Control_c, 0, 7, 92
2, 64590, Control_c, 0, 7, 91
2, 64594, Control_c, 0, 7, 90
2, 64598, Control_c, 0, 7, 89
2, 64602, Control_c, 0, 7, 88
2, 64604, Control_c, 0, 7, 87
2, 64608, Control_c, 0, 7, 86
2, 64612, Control_c, 0, 7, 85
2, 64616, Control_c, 0, 7, 84
2, 64620, Control_c, 0, 7, 83
2, 64622, Control_c, 0, 7, 82
2, 64626, Control_c, 0, 7, 81
2, 64630, Control_c, 0, 7, 80
2, 64634, Control_c, 0, 7, 79
2, 64638, Control_c, 0, 7, 78
2, 64642, Control_c, 0, 7, 77
2, 64644, Control_c, 0, 7, 76
2, 64648, Control_c, 0, 7, 75
2, 64652, Control_c, 0, 7, 74
2, 64656, Control_c, 0, 7, 73
2, 64660, Control_c, 0, 7, 72
2, 64662, Control_c, 0, 7, 71
2, 64666, Control_c, 0, 7, 70
2, 64670, Control_c, 0, 7, 69
2, 64674, Control_c, 0, 7, 68
2, 64678, Control_c, 0, 7, 67
2, 64680, Note_on_c, 0, 79, 0
2, 64680, Control_c, 0, 7, 66
2, 64740, Control_c, 0, 7, 99
2, 79680, Note_on_c, 0, 76, 76
2, 79710, Note_on_c, 0, 76, 0
2, 79740, Note_on_c, 0, 77, 71
2, 79770, Note_on_c, 0, 77, 0
2, 79800, Note_on_c, 0, 79, 64
2, 79830, Note_on_c, 0, 79, 0
2, 79860, Note_on_c, 0, 81, 40
2, 79890, Note_on_c, 0, 81, 0
2, 79920, Note_on_c, 0, 82, 71
2, 79950, Note_on_c, 0, 82, 0
2, 79980, Note_on_c, 0, 84, 78
2, 80010, Note_on_c, 0, 84, 0
2, 80040, Note_on_c, 0, 86, 64
2, 80070, Note_on_c, 0, 86, 0
2, 80100, Note_on_c, 0, 88, 76
2, 80130, Note_on_c, 0, 88, 0
2, 80160, Note_on_c, 0, 89, 90
2, 80400, Note_on_c, 0, 89, 0
2, 80400, Note_on_c, 0, 85, 89
2, 80640, Note_on_c, 0, 85, 0
2, 80640, Note_on_c, 0, 86, 70
2, 80760, Note_on_c, 0, 86, 0
2, 85680, Note_on_c, 0, 77, 93
2, 85920, Note_on_c, 0, 77, 0
2, 85920, Note_on_c, 0, 77, 84
2, 85980, Note_on_c, 0, 77, 0
2, 86640, Note_on_c, 0, 83, 95
2, 86880, Note_on_c, 0, 83, 0
2, 86880, Note_on_c, 0, 84, 80
2, 86940, Note_on_c, 0, 84, 0
2, 87600, Note_on_c, 0, 89, 98
2, 87840, Note_on_c, 0, 89, 0
2, 87840, Note_on_c, 0, 89, 90
2, 87900, Note_on_c, 0, 89, 0
2, 94560, Note_on_c, 0, 77, 93
2, 94920, Note_on_c, 0, 77, 0
2, 94920, Note_on_c, 0, 77, 85
2, 94950, Note_on_c, 0, 77, 0
2, 94950, Note_on_c, 0, 79, 84
2, 94980, Note_on_c, 0, 79, 0
2, 94980, Note_on_c, 0, 81, 80
2, 95010, Note_on_c, 0, 81, 0
2, 95010, Note_on_c, 0, 82, 80
2, 95040, Note_on_c, 0, 82, 0
2, 95040, Note_on_c, 0, 84, 76
2, 95100, Note_on_c, 0, 84, 0
2, 95160, Note_on_c, 0, 84, 82
2, 95220, Note_on_c, 0, 84, 0
2, 95280, Note_on_c, 0, 84, 76
2, 95340, Note_on_c, 0, 84, 0
2, 95400, Note_on_c, 0, 84, 82
2, 95460, Note_on_c, 0, 84, 0
2, 95520, Note_on_c, 0, 84, 89
2, 96000, Note_on_c, 0, 84, 0
2, 96120, Note_on_c, 0, 84, 84
2, 96180, Note_on_c, 0, 84, 0
2, 96240, Note_on_c, 0, 84, 81
2, 96300, Note_on_c, 0, 84, 0
2, 96360, Note_on_c, 0, 84, 81
2, 96420, Note_on_c, 0, 84, 0
2, 96480, Note_on_c, 0, 84, 85
2, 96960, Note_on_c, 0, 84, 0
2, 96960, Note_on_c, 0, 84, 89
2, 97080, Note_on_c, 0, 84, 0
2, 97440, Note_on_c, 0, 75, 90
2, 97680, Note_on_c, 0, 75, 0
2, 97680, Note_on_c, 0, 74, 73
2, 97800, Note_on_c, 0, 74, 0
2, 97920, Note_on_c, 0, 82, 89
2, 98160, Note_on_c, 0, 82, 0
2, 98160, Note_on_c, 0, 81, 76
2, 98280, Note_on_c, 0, 81, 0
2, 98400, Note_on_c, 0, 86, 94
2, 98640, Note_on_c, 0, 86, 0
2, 98640, Note_on_c, 0, 89, 84
2, 99120, Note_on_c, 0, 89, 0
2, 99120, Note_on_c, 0, 88, 84
2, 99360, Note_on_c, 0, 88, 0
2, 99360, Note_on_c, 0, 89, 90
2, 99480, Note_on_c, 0, 89, 0
2, 100920, Note_on_c, 0, 84, 68
2, 101010, Note_on_c, 0, 84, 0
2, 101040, Note_on_c, 0, 84, 72
2, 101130, Note_on_c, 0, 84, 0
2, 101160, Note_on_c, 0, 84, 72
2, 101250, Note_on_c, 0, 84, 0
2, 101280, Note_on_c, 0, 81, 73
2, 101400, Note_on_c, 0, 81, 0
2, 101520, Note_on_c, 0, 89, 95
2, 101640, Note_on_c, 0, 89, 0
2, 101760, Note_on_c, 0, 89, 94
2, 101880, Note_on_c, 0, 89, 0
2, 108960, Note_on_c, 0, 74, 90
2, 109080, Note_on_c, 0, 74, 0
2, 109200, Note_on_c, 0, 74, 86
2, 109320, Note_on_c, 0, 74, 0
2, 109440, Note_on_c, 0, 74, 84
2, 109560, Note_on_c, 0, 74, 0
2, 109920, Note_on_c, 0, 75, 43
2, 110040, Note_on_c, 0, 75, 0
2, 110160, Note_on_c, 0, 75, 57
2, 110280, Note_on_c, 0, 75, 0
2, 110400, Note_on_c, 0, 75, 47
2, 110520, Note_on_c, 0, 75, 0
2, 110880, Note_on_c, 0, 75, 93
2, 111060, Note_on_c, 0, 75, 0
2, 111060, Note_on_c, 0, 77, 76
2, 111120, Note_on_c, 0, 77, 0
2, 111120, Note_on_c, 0, 79, 60
2, 111180, Note_on_c, 0, 79, 0
2, 111180, Note_on_c, 0, 80, 72
2, 111240, Note_on_c, 0, 80, 0
2, 111240, Note_on_c, 0, 82, 61
2, 111300, Note_on_c, 0, 82, 0
2, 111300, Note_on_c, 0, 79, 62
2, 111360, Note_on_c, 0, 79, 0
2, 111360, Note_on_c, 0, 75, 54
2, 111420, Note_on_c, 0, 75, 0
2, 111480, Note_on_c, 0, 87, 55
2, 111600, Note_on_c, 0, 87, 0
2, 111600, Note_on_c, 0, 82, 50
2, 111720, Note_on_c, 0, 82, 0
2, 111720, Note_on_c, 0, 79, 65
2, 111840, Note_on_c, 0, 79, 0
2, 111840, Note_on_c, 0, 77, 84
2, 112020, Note_on_c, 0, 77, 0
2, 112020, Note_on_c, 0, 79, 72
2, 112080, Note_on_c, 0, 79, 0
2, 112080, Note_on_c, 0, 80, 72
2, 112140, Note_on_c, 0, 80, 0
2, 112140, Note_on_c, 0, 82, 60
2, 112200, Note_on_c, 0, 82, 0
2, 112200, Note_on_c, 0, 84, 57
2, 112260, Note_on_c, 0, 84, 0
2, 112260, Note_on_c, 0, 80, 56
2, 112320, Note_on_c, 0, 80, 0
2, 112320, Note_on_c, 0, 77, 64
2, 112380, Note_on_c, 0, 77, 0
2, 112440, Note_on_c, 0, 89, 62
2, 112500, Note_on_c, 0, 89, 0
2, 112500, Note_on_c, 0, 87, 71
2, 112560, Note_on_c, 0, 87, 0
2, 112560, Note_on_c, 0, 86, 69
2, 112620, Note_on_c, 0, 86, 0
2, 112620, Note_on_c, 0, 84, 59
2, 112680, Note_on_c, 0, 84, 0
2, 112680, Note_on_c, 0, 82, 61
2, 112740, Note_on_c, 0, 82, 0
2, 112740, Note_on_c, 0, 80, 53
2, 112800, Note_on_c, 0, 80, 0
2, 112800, Note_on_c, 0, 79, 57
2, 112920, Note_on_c, 0, 79, 0
2, 117660, Note_on_c, 0, 75, 52
2, 117690, Note_on_c, 0, 75, 0
2, 117720, Note_on_c, 0, 75, 54
2, 117750, Note_on_c, 0, 75, 0
2, 117780, Note_on_c, 0, 75, 61
2, 117810, Note_on_c, 0, 75, 0
2, 117840, Note_on_c, 0, 75, 44
2, 117870, Note_on_c, 0, 75, 0
2, 117900, Note_on_c, 0, 75, 53
2, 117930, Note_on_c, 0, 75, 0
2, 117960, Note_on_c, 0, 75, 52
2, 117990, Note_on_c, 0, 75, 0
2, 118020, Note_on_c, 0, 75, 61
2, 118050, Note_on_c, 0, 75, 0
2, 118080, Note_on_c, 0, 79, 58
2, 118200, Note_on_c, 0, 79, 0
2, 118620, Note_on_c, 0, 79, 67
2, 118650, Note_on_c, 0, 79, 0
2, 118680, Note_on_c, 0, 79, 54
2, 118710, Note_on_c, 0, 79, 0
2, 118740, Note_on_c, 0, 79, 58
2, 118770, Note_on_c, 0, 79, 0
2, 118800, Note_on_c, 0, 79, 55
2, 118830, Note_on_c, 0, 79, 0
2, 118860, Note_on_c, 0, 79, 58
2, 118890, Note_on_c, 0, 79, 0
2, 118920, Note_on_c, 0, 79, 58
2, 118950, Note_on_c, 0, 79, 0
2, 118980, Note_on_c, 0, 80, 52
2, 119010, Note_on_c, 0, 80, 0
2, 119040, Note_on_c, 0, 82, 45
2, 119160, Note_on_c, 0, 82, 0
2, 119580, Note_on_c, 0, 83, 47
2, 119610, Note_on_c, 0, 83, 0
2, 119640, Note_on_c, 0, 83, 53
2, 119670, Note_on_c, 0, 83, 0
2, 119700, Note_on_c, 0, 83, 63
2, 119730, Note_on_c, 0, 83, 0
2, 119760, Note_on_c, 0, 83, 48
2, 119790, Note_on_c, 0, 83, 0
2, 119820, Note_on_c, 0, 83, 43
2, 119850, Note_on_c, 0, 83, 0
2, 119880, Note_on_c, 0, 83, 48
2, 119910, Note_on_c, 0, 83, 0
2, 119940, Note_on_c, 0, 84, 49
2, 119970, Note_on_c, 0, 84, 0
2, 120000, Note_on_c, 0, 86, 37
2, 120120, Note_on_c, 0, 86, 0
2, 120540, Note_on_c, 0, 86, 49
2, 120570, Note_on_c, 0, 86, 0
2, 120600, Note_on_c, 0, 86, 46
2, 120630, Note_on_c, 0, 86, 0
2, 120660, Note_on_c, 0, 86, 46
2, 120690, Note_on_c, 0, 86, 0
2, 120720, Note_on_c, 0, 86, 45
2, 120750, Note_on_c, 0, 86, 0
2, 120780, Note_on_c, 0, 86, 56
2, 120810, Note_on_c, 0, 86, 0
2, 120840, Note_on_c, 0, 86, 45
2, 120870, Note_on_c, 0, 86, 0
2, 120900, Note_on_c, 0, 87, 64
2, 120930, Note_on_c, 0, 87, 0
2, 120960, Note_on_c, 0, 89, 65
2, 121080, Note_on_c, 0, 89, 0
2, 121920, Control_c, 0, 7, 89
2, 122160, Note_on_c, 0, 79, 60
2, 122220, Note_on_c, 0, 79, 0
2, 122280, Note_on_c, 0, 79, 62
2, 122340, Note_on_c, 0, 79, 0
2, 122400, Note_on_c, 0, 79, 47
2, 122460, Note_on_c, 0, 79, 0
2, 123120, Note_on_c, 0, 79, 45
2, 123180, Note_on_c, 0, 79, 0
2, 123240, Note_on_c, 0, 79, 51
2, 123300, Note_on_c, 0, 79, 0
2, 123360, Note_on_c, 0, 79, 51
2, 123420, Note_on_c, 0, 79, 0
2, 124320, Control_c, 0, 7, 99
2, 131880, Note_on_c, 0, 82, 43
2, 132000, Note_on_c, 0, 82, 0
2, 132000, Note_on_c, 0, 81, 46
2, 132120, Note_on_c, 0, 81, 0
2, 132360, Note_on_c, 0, 82, 41
2, 132480, Note_on_c, 0, 82, 0
2, 132480, Note_on_c, 0, 81, 44
2, 132600, Note_on_c, 0, 81, 0
2, 132720, Note_on_c, 0, 77, 40
2, 132840, Note_on_c, 0, 77, 0
2, 132960, Note_on_c, 0, 81, 43
2, 133080, Note_on_c, 0, 81, 0
2, 133440, Note_on_c, 0, 84, 43
2, 133560, Note_on_c, 0, 84, 0
2, 133920, Note_on_c, 0, 87, 50
2, 134040, Note_on_c, 0, 87, 0
2, 135826, Control_c, 0, 7, 54
2, 135840, Note_on_c, 0, 89, 95
2, 135840, Control_c, 0, 7, 54
2, 135852, Control_c, 0, 7, 55
2, 135862, Control_c, 0, 7, 56
2, 135872, Control_c, 0, 7, 57
2, 135884, Control_c, 0, 7, 58
2, 135894, Control_c, 0, 7, 59
2, 135904, Control_c, 0, 7, 60
2, 135916, Control_c, 0, 7, 61
2, 135926, Control_c, 0, 7, 62
2, 135936, Control_c, 0, 7, 63
2, 135948, Control_c, 0, 7, 64
2, 135958, Control_c, 0, 7, 65
2, 135968, Control_c, 0, 7, 66
2, 135980, Control_c, 0, 7, 67
2, 135990, Control_c, 0, 7, 68
2, 136000, Control_c, 0, 7, 69
2, 136012, Control_c, 0, 7, 70
2, 136022, Control_c, 0, 7, 71
2, 136032, Control_c, 0, 7, 72
2, 136044, Control_c, 0, 7, 73
2, 136054, Control_c, 0, 7, 74
2, 136064, Control_c, 0, 7, 75
2, 136076, Control_c, 0, 7, 76
2, 136086, Control_c, 0, 7, 77
2, 136096, Control_c, 0, 7, 78
2, 136108, Control_c, 0, 7, 79
2, 136118, Control_c, 0, 7, 80
2, 136128, Control_c, 0, 7, 81
2, 136140, Control_c, 0, 7, 82
2, 136150, Control_c, 0, 7, 83
2, 136160, Control_c, 0, 7, 84
2, 136172, Control_c, 0, 7, 85
2, 136182, Control_c, 0, 7, 86
2, 136192, Control_c, 0, 7, 87
2, 136204, Control_c, 0, 7, 88
2, 136214, Control_c, 0, 7, 89
2, 136224, Control_c, 0, 7, 90
2, 136236, Control_c, 0, 7, 91
2, 136246, Control_c, 0, 7, 92
2, 136256, Control_c, 0, 7, 93
2, 136268, Control_c, 0, 7, 94
2, 136278, Control_c, 0, 7, 95
2, 136288, Control_c, 0, 7, 96
2, 136300, Control_c, 0, 7, 97
2, 136310, Control_c, 0, 7, 98
2, 136320, Note_on_c, 0, 89, 0
2, 136320, Note_on_c, 0, 82, 78
2, 136320, Control_c, 0, 7, 99
2, 136500, Note_on_c, 0, 82, 0
2, 136530, Note_on_c, 0, 82, 78
2, 136560, Note_on_c, 0, 82, 0
2, 136560, Note_on_c, 0, 89, 89
2, 136605, Note_on_c, 0, 89, 0
2, 136650, Note_on_c, 0, 89, 89
2, 136665, Note_on_c, 0, 89, 0
2, 136680, Note_on_c, 0, 86, 89
2, 136725, Note_on_c, 0, 86, 0
2, 136770, Note_on_c, 0, 86, 81
2, 136785, Note_on_c, 0, 86, 0
2, 136800, Note_on_c, 0, 82, 80
2, 136860, Note_on_c, 0, 82, 0
2, 136920, Note_on_c, 0, 77, 76
2, 136980, Note_on_c, 0, 77, 0
2, 137040, Note_on_c, 0, 74, 80
2, 137100, Note_on_c, 0, 74, 0
2, 137160, Note_on_c, 0, 70, 72
2, 137220, Note_on_c, 0, 70, 0
2, 137280, Note_on_c, 0, 65, 53
2, 137400, Note_on_c, 0, 65, 0
2, 137732, Control_c, 0, 7, 56
2, 137760, Control_c, 0, 7, 55
2, 137760, Note_on_c, 0, 81, 94
2, 137772, Control_c, 0, 7, 56
2, 137782, Control_c, 0, 7, 57
2, 137794, Control_c, 0, 7, 58
2, 137804, Control_c, 0, 7, 59
2, 137816, Control_c, 0, 7, 60
2, 137826, Control_c, 0, 7, 61
2, 137838, Control_c, 0, 7, 62
2, 137848, Control_c, 0, 7, 63
2, 137860, Control_c, 0, 7, 64
2, 137870, Control_c, 0, 7, 65
2, 137880, Control_c, 0, 7, 66
2, 137892, Control_c, 0, 7, 67
2, 137902, Control_c, 0, 7, 68
2, 137914, Control_c, 0, 7, 69
2, 137924, Control_c, 0, 7, 70
2, 137936, Control_c, 0, 7, 71
2, 137946, Control_c, 0, 7, 72
2, 137958, Control_c, 0, 7, 73
2, 137968, Control_c, 0, 7, 74
2, 137980, Control_c, 0, 7, 75
2, 137990, Control_c, 0, 7, 76
2, 138000, Note_on_c, 0, 81, 0
2, 138000, Note_on_c, 0, 82, 86
2, 138000, Control_c, 0, 7, 77
2, 138012, Control_c, 0, 7, 78
2, 138022, Control_c, 0, 7, 79
2, 138034, Control_c, 0, 7, 80
2, 138044, Control_c, 0, 7, 81
2, 138056, Control_c, 0, 7, 82
2, 138066, Control_c, 0, 7, 83
2, 138078, Control_c, 0, 7, 84
2, 138088, Control_c, 0, 7, 85
2, 138100, Control_c, 0, 7, 86
2, 138110, Control_c, 0, 7, 87
2, 138120, Control_c, 0, 7, 88
2, 138132, Control_c, 0, 7, 89
2, 138142, Control_c, 0, 7, 90
2, 138154, Control_c, 0, 7, 91
2, 138164, Control_c, 0, 7, 92
2, 138176, Control_c, 0, 7, 93
2, 138186, Control_c, 0, 7, 94
2, 138198, Control_c, 0, 7, 95
2, 138208, Control_c, 0, 7, 96
2, 138220, Control_c, 0, 7, 97
2, 138230, Control_c, 0, 7, 98
2, 138240, Note_on_c, 0, 82, 0
2, 138240, Control_c, 0, 7, 99
2, 138240, Note_on_c, 0, 84, 89
2, 138420, Note_on_c, 0, 84, 0
2, 138450, Note_on_c, 0, 77, 89
2, 138480, Note_on_c, 0, 77, 0
2, 138480, Note_on_c, 0, 84, 81
2, 138525, Note_on_c, 0, 84, 0
2, 138570, Note_on_c, 0, 84, 84
2, 138585, Note_on_c, 0, 84, 0
2, 138600, Note_on_c, 0, 81, 89
2, 138645, Note_on_c, 0, 81, 0
2, 138690, Note_on_c, 0, 81, 89
2, 138705, Note_on_c, 0, 81, 0
2, 138720, Note_on_c, 0, 77, 93
2, 138780, Note_on_c, 0, 77, 0
2, 138840, Note_on_c, 0, 75, 86
2, 138900, Note_on_c, 0, 75, 0
2, 138960, Note_on_c, 0, 72, 45
2, 139020, Note_on_c, 0, 72, 0
2, 139080, Note_on_c, 0, 69, 56
2, 139140, Note_on_c, 0, 69, 0
2, 139200, Note_on_c, 0, 70, 50
2, 139320, Note_on_c, 0, 70, 0
2, 139680, Control_c, 0, 7, 99
2, 139680, Note_on_c, 0, 82, 54
2, 139692, Control_c, 0, 7, 100
2, 139702, Control_c, 0, 7, 101
2, 139712, Control_c, 0, 7, 102
2, 139722, Control_c, 0, 7, 103
2, 139734, Control_c, 0, 7, 104
2, 139744, Control_c, 0, 7, 105
2, 139754, Control_c, 0, 7, 106
2, 139764, Control_c, 0, 7, 107
2, 139774, Control_c, 0, 7, 108
2, 139786, Control_c, 0, 7, 109
2, 139796, Control_c, 0, 7, 110
2, 139806, Control_c, 0, 7, 111
2, 139816, Control_c, 0, 7, 112
2, 139828, Control_c, 0, 7, 113
2, 139838, Control_c, 0, 7, 114
2, 139848, Control_c, 0, 7, 115
2, 139858, Control_c, 0, 7, 116
2, 139868, Control_c, 0, 7, 117
2, 139880, Control_c, 0, 7, 118
2, 139890, Control_c, 0, 7, 119
2, 139900, Control_c, 0, 7, 120
2, 139910, Control_c, 0, 7, 121
2, 139920, Note_on_c, 0, 82, 0
2, 139920, Note_on_c, 0, 84, 53
2, 139920, Control_c, 0, 7, 122
2, 139932, Control_c, 0, 7, 121
2, 139942, Control_c, 0, 7, 120
2, 139952, Control_c, 0, 7, 119
2, 139962, Control_c, 0, 7, 118
2, 139974, Control_c, 0, 7, 117
2, 139984, Control_c, 0, 7, 116
2, 139994, Control_c, 0, 7, 115
2, 140004, Control_c, 0, 7, 114
2, 140014, Control_c, 0, 7, 113
2, 140026, Control_c, 0, 7, 112
2, 140036, Control_c, 0, 7, 111
2, 140046, Control_c, 0, 7, 110
2, 140056, Control_c, 0, 7, 109
2, 140068, Control_c, 0, 7, 108
2, 140078, Control_c, 0, 7, 107
2, 140088, Control_c, 0, 7, 106
2, 140098, Control_c, 0, 7, 105
2, 140108, Control_c, 0, 7, 104
2, 140120, Control_c, 0, 7, 103
2, 140130, Control_c, 0, 7, 102
2, 140140, Control_c, 0, 7, 101
2, 140150, Control_c, 0, 7, 100
2, 140160, Note_on_c, 0, 84, 0
2, 140160, Control_c, 0, 7, 99
2, 140160, Note_on_c, 0, 86, 58
2, 140280, Note_on_c, 0, 86, 0
2, 144480, Note_on_c, 0, 81, 50
2, 144660, Note_on_c, 0, 81, 0
2, 144690, Note_on_c, 0, 81, 64
2, 144720, Note_on_c, 0, 81, 0
2, 144720, Note_on_c, 0, 87, 65
2, 144765, Note_on_c, 0, 87, 0
2, 144810, Note_on_c, 0, 87, 71
2, 144833, Note_on_c, 0, 87, 0
2, 144840, Note_on_c, 0, 84, 64
2, 144885, Note_on_c, 0, 84, 0
2, 144930, Note_on_c, 0, 84, 58
2, 144953, Note_on_c, 0, 84, 0
2, 144960, Note_on_c, 0, 81, 50
2, 145020, Note_on_c, 0, 81, 0
2, 145080, Note_on_c, 0, 77, 51
2, 145140, Note_on_c, 0, 77, 0
2, 145200, Note_on_c, 0, 75, 65
2, 145260, Note_on_c, 0, 75, 0
2, 145320, Note_on_c, 0, 72, 46
2, 145380, Note_on_c, 0, 72, 0
2, 145440, Note_on_c, 0, 70, 57
2, 145560, Note_on_c, 0, 70, 0
2, 146400, Note_on_c, 0, 76, 43
2, 146580, Note_on_c, 0, 76, 0
2, 146610, Note_on_c, 0, 76, 64
2, 146640, Note_on_c, 0, 76, 0
2, 146640, Note_on_c, 0, 82, 42
2, 146685, Note_on_c, 0, 82, 0
2, 146730, Note_on_c, 0, 82, 45
2, 146753, Note_on_c, 0, 82, 0
2, 146760, Note_on_c, 0, 79, 64
2, 146805, Note_on_c, 0, 79, 0
2, 146850, Note_on_c, 0, 79, 53
2, 146873, Note_on_c, 0, 79, 0
2, 146880, Note_on_c, 0, 76, 49
2, 146910, Note_on_c, 0, 76, 0
2, 146940, Note_on_c, 0, 77, 40
2, 146970, Note_on_c, 0, 77, 0
2, 147000, Note_on_c, 0, 79, 40
2, 147030, Note_on_c, 0, 79, 0
2, 147060, Note_on_c, 0, 81, 36
2, 147090, Note_on_c, 0, 81, 0
2, 147120, Note_on_c, 0, 82, 43
2, 147150, Note_on_c, 0, 82, 0
2, 147180, Note_on_c, 0, 84, 46
2, 147210, Note_on_c, 0, 84, 0
2, 147240, Note_on_c, 0, 86, 54
2, 147270, Note_on_c, 0, 86, 0
2, 147300, Note_on_c, 0, 88, 40
2, 147330, Note_on_c, 0, 88, 0
2, 147360, Note_on_c, 0, 89, 50
2, 147480, Note_on_c, 0, 89, 0
2, 149040, Note_on_c, 0, 77, 54
2, 149130, Note_on_c, 0, 77, 0
2, 149160, Note_on_c, 0, 77, 84
2, 149250, Note_on_c, 0, 77, 0
2, 149280, Note_on_c, 0, 82, 89
2, 149340, Control_c, 0, 7, 99
2, 149342, Control_c, 0, 7, 98
2, 149344, Control_c, 0, 7, 97
2, 149346, Control_c, 0, 7, 96
2, 149348, Control_c, 0, 7, 95
2, 149350, Control_c, 0, 7, 94
2, 149352, Control_c, 0, 7, 93
2, 149354, Control_c, 0, 7, 91
2, 149356, Control_c, 0, 7, 90
2, 149358, Control_c, 0, 7, 89
2, 149360, Control_c, 0, 7, 88
2, 149362, Control_c, 0, 7, 87
2, 149364, Control_c, 0, 7, 86
2, 149366, Control_c, 0, 7, 84
2, 149368, Control_c, 0, 7, 83
2, 149370, Control_c, 0, 7, 82
2, 149372, Control_c, 0, 7, 81
2, 149374, Control_c, 0, 7, 80
2, 149376, Control_c, 0, 7, 79
2, 149378, Control_c, 0, 7, 77
2, 149380, Control_c, 0, 7, 76
2, 149382, Control_c, 0, 7, 75
2, 149384, Control_c, 0, 7, 74
2, 149386, Control_c, 0, 7, 73
2, 149388, Control_c, 0, 7, 72
2, 149390, Control_c, 0, 7, 70
2, 149392, Control_c, 0, 7, 69
2, 149394, Control_c, 0, 7, 68
2, 149396, Control_c, 0, 7, 67
2, 149398, Control_c, 0, 7, 66
2, 149400, Control_c, 0, 7, 65
2, 149402, Control_c, 0, 7, 63
2, 149520, Note_on_c, 0, 82, 0
2, 149520, Control_c, 0, 7, 99
2, 149520, Note_on_c, 0, 81, 46
2, 149580, Note_on_c, 0, 81, 0
2, 149580, Note_on_c, 0, 79, 40
2, 149640, Note_on_c, 0, 79, 0
2, 149640, Note_on_c, 0, 77, 55
2, 149700, Note_on_c, 0, 77, 0
2, 149700, Note_on_c, 0, 75, 64
2, 149760, Note_on_c, 0, 75, 0
2, 149760, Note_on_c, 0, 74, 55
2, 149880, Note_on_c, 0, 74, 0
2, 150000, Note_on_c, 0, 79, 52
2, 150060, Note_on_c, 0, 79, 0
2, 150060, Note_on_c, 0, 77, 45
2, 150120, Note_on_c, 0, 77, 0
2, 150120, Note_on_c, 0, 75, 56
2, 150180, Note_on_c, 0, 75, 0
2, 150180, Note_on_c, 0, 74, 52
2, 150240, Note_on_c, 0, 74, 0
2, 150240, Note_on_c, 0, 72, 29
2, 150300, Note_on_c, 0, 72, 0
2, 150360, Note_on_c, 0, 84, 41
2, 150420, Note_on_c, 0, 84, 0
2, 150480, Note_on_c, 0, 84, 43
2, 150540, Note_on_c, 0, 84, 0
2, 150600, Note_on_c, 0, 86, 72
2, 150660, Note_on_c, 0, 86, 0
2, 150720, Note_on_c, 0, 89, 89
2, 150960, Note_on_c, 0, 89, 0
2, 150960, Note_on_c, 0, 87, 73
2, 151080, Note_on_c, 0, 87, 0
2, 151080, Note_on_c, 0, 84, 72
2, 151140, Note_on_c, 0, 84, 0
2, 151140, Note_on_c, 0, 86, 81
2, 151200, Note_on_c, 0, 86, 0
2, 151200, Note_on_c, 0, 87, 86
2, 151258, Control_c, 0, 7, 99
2, 151260, Control_c, 0, 7, 98
2, 151262, Control_c, 0, 7, 97
2, 151264, Control_c, 0, 7, 96
2, 151266, Control_c, 0, 7, 95
2, 151268, Control_c, 0, 7, 94
2, 151270, Control_c, 0, 7, 93
2, 151272, Control_c, 0, 7, 92
2, 151274, Control_c, 0, 7, 90
2, 151276, Control_c, 0, 7, 89
2, 151278, Control_c, 0, 7, 88
2, 151280, Control_c, 0, 7, 87
2, 151282, Control_c, 0, 7, 86
2, 151284, Control_c, 0, 7, 85
2, 151286, Control_c, 0, 7, 84
2, 151288, Control_c, 0, 7, 83
2, 151290, Control_c, 0, 7, 81
2, 151292, Control_c, 0, 7, 80
2, 151294, Control_c, 0, 7, 79
2, 151296, Control_c, 0, 7, 78
2, 151298, Control_c, 0, 7, 77
2, 151300, Control_c, 0, 7, 76
2, 151302, Control_c, 0, 7, 75
2, 151304, Control_c, 0, 7, 74
2, 151306, Control_c, 0, 7, 72
2, 151308, Control_c, 0, 7, 71
2, 151310, Control_c, 0, 7, 70
2, 151312, Control_c, 0, 7, 69
2, 151314, Control_c, 0, 7, 68
2, 151316, Control_c, 0, 7, 67
2, 151318, Control_c, 0, 7, 66
2, 151320, Control_c, 0, 7, 64
2, 151440, Note_on_c, 0, 87, 0
2, 151440, Control_c, 0, 7, 99
2, 151440, Note_on_c, 0, 86, 55
2, 151500, Note_on_c, 0, 86, 0
2, 151500, Note_on_c, 0, 84, 56
2, 151560, Note_on_c, 0, 84, 0
2, 151560, Note_on_c, 0, 82, 58
2, 151620, Note_on_c, 0, 82, 0
2, 151620, Note_on_c, 0, 81, 46
2, 151680, Note_on_c, 0, 81, 0
2, 151680, Note_on_c, 0, 84, 53
2, 151740, Note_on_c, 0, 84, 0
2, 151740, Note_on_c, 0, 82, 50
2, 151800, Note_on_c, 0, 82, 0
2, 151800, Note_on_c, 0, 86, 46
2, 151830, Note_on_c, 0, 86, 0
2, 151860, Note_on_c, 0, 84, 62
2, 151890, Note_on_c, 0, 84, 0
2, 151920, Note_on_c, 0, 82, 52
2, 151980, Note_on_c, 0, 82, 0
2, 151980, Note_on_c, 0, 81, 62
2, 152040, Note_on_c, 0, 81, 0
2, 152040, Note_on_c, 0, 79, 38
2, 152070, Note_on_c, 0, 79, 0
2, 152100, Note_on_c, 0, 77, 43
2, 152130, Note_on_c, 0, 77, 0
2, 152160, Note_on_c, 0, 76, 53
2, 152220, Note_on_c, 0, 76, 0
2, 152220, Note_on_c, 0, 77, 54
2, 152280, Note_on_c, 0, 77, 0
2, 152280, Note_on_c, 0, 84, 59
2, 152310, Note_on_c, 0, 84, 0
2, 152340, Note_on_c, 0, 89, 58
2, 152370, Note_on_c, 0, 89, 0
2, 152400, Note_on_c, 0, 87, 65
2, 152460, Note_on_c, 0, 87, 0
2, 152460, Note_on_c, 0, 86, 74
2, 152520, Note_on_c, 0, 86, 0
2, 152520, Note_on_c, 0, 84, 43
2, 152550, Note_on_c, 0, 84, 0
2, 152580, Note_on_c, 0, 82, 65
2, 152610, Note_on_c, 0, 82, 0
2, 152640, Control_c, 0, 7, 99
2, 152640, Note_on_c, 0, 86, 67
2, 152648, Control_c, 0, 7, 100
2, 152654, Control_c, 0, 7, 101
2, 152660, Control_c, 0, 7, 102
2, 152668, Control_c, 0, 7, 103
2, 152674, Control_c, 0, 7, 104
2, 152680, Control_c, 0, 7, 105
2, 152688, Control_c, 0, 7, 106
2, 152694, Control_c, 0, 7, 107
2, 152700, Control_c, 0, 7, 108
2, 152708, Control_c, 0, 7, 109
2, 152714, Control_c, 0, 7, 110
2, 152720, Control_c, 0, 7, 111
2, 152728, Control_c, 0, 7, 112
2, 152734, Control_c, 0, 7, 113
2, 152740, Control_c, 0, 7, 114
2, 152748, Control_c, 0, 7, 115
2, 152754, Control_c, 0, 7, 116
2, 152760, Control_c, 0, 7, 117
2, 152768, Control_c, 0, 7, 118
2, 152774, Control_c, 0, 7, 119
2, 152780, Control_c, 0, 7, 120
2, 152788, Control_c, 0, 7, 121
2, 152794, Control_c, 0, 7, 122
2, 152800, Control_c, 0, 7, 123
2, 152808, Control_c, 0, 7, 124
2, 152814, Control_c, 0, 7, 125
2, 152820, Control_c, 0, 7, 126
2, 152828, Control_c, 0, 7, 125
2, 152834, Control_c, 0, 7, 124
2, 152840, Control_c, 0, 7, 123
2, 152848, Control_c, 0, 7, 122
2, 152854, Control_c, 0, 7, 121
2, 152860, Control_c, 0, 7, 120
2, 152868, Control_c, 0, 7, 119
2, 152874, Control_c, 0, 7, 118
2, 152880, Note_on_c, 0, 86, 0
2, 152880, Control_c, 0, 7, 117
2, 152880, Note_on_c, 0, 84, 58
2, 152888, Control_c, 0, 7, 116
2, 152894, Control_c, 0, 7, 115
2, 152900, Control_c, 0, 7, 114
2, 152908, Control_c, 0, 7, 113
2, 152914, Control_c, 0, 7, 112
2, 152920, Control_c, 0, 7, 111
2, 152928, Control_c, 0, 7, 110
2, 152934, Control_c, 0, 7, 109
2, 152940, Control_c, 0, 7, 108
2, 152948, Control_c, 0, 7, 107
2, 152954, Control_c, 0, 7, 106
2, 152960, Control_c, 0, 7, 105
2, 152968, Control_c, 0, 7, 104
2, 152974, Control_c, 0, 7, 103
2, 152980, Control_c, 0, 7, 102
2, 152988, Control_c, 0, 7, 101
2, 152994, Control_c, 0, 7, 100
2, 153000, Note_on_c, 0, 84, 0
2, 153000, Control_c, 0, 7, 99
2, 174000, Note_on_c, 0, 82, 82
2, 174240, Note_on_c, 0, 82, 0
2, 174240, Note_on_c, 0, 82, 84
2, 174300, Note_on_c, 0, 82, 0
2, 174960, Note_on_c, 0, 85, 80
2, 175200, Note_on_c, 0, 85, 0
2, 175200, Note_on_c, 0, 86, 95
2, 175260, Note_on_c, 0, 86, 0
2, 175920, Note_on_c, 0, 88, 89
2, 176160, Note_on_c, 0, 88, 0
2, 176160, Note_on_c, 0, 89, 89
2, 176220, Note_on_c, 0, 89, 0
2, 183840, Note_on_c, 0, 74, 95
2, 183900, Note_on_c, 0, 74, 0
2, 183900, Note_on_c, 0, 82, 84
2, 183930, Note_on_c, 0, 82, 0
2, 183960, Note_on_c, 0, 82, 89
2, 183990, Note_on_c, 0, 82, 0
2, 184020, Note_on_c, 0, 82, 89
2, 184050, Note_on_c, 0, 82, 0
2, 184080, Note_on_c, 0, 82, 94
2, 184140, Note_on_c, 0, 82, 0
2, 184140, Note_on_c, 0, 84, 94
2, 184200, Note_on_c, 0, 84, 0
2, 184200, Note_on_c, 0, 86, 95
2, 184230, Note_on_c, 0, 86, 0
2, 184260, Note_on_c, 0, 82, 93
2, 184290, Note_on_c, 0, 82, 0
2, 184320, Note_on_c, 0, 81, 95
2, 184440, Note_on_c, 0, 81, 0
2, 184560, Note_on_c, 0, 84, 95
2, 184800, Note_on_c, 0, 84, 0
2, 184800, Note_on_c, 0, 84, 84
2, 184860, Note_on_c, 0, 84, 0
2, 184860, Note_on_c, 0, 84, 84
2, 184890, Note_on_c, 0, 84, 0
2, 184920, Note_on_c, 0, 84, 86
2, 184950, Note_on_c, 0, 84, 0
2, 184980, Note_on_c, 0, 84, 89
2, 185010, Note_on_c, 0, 84, 0
2, 185040, Note_on_c, 0, 84, 93
2, 185100, Note_on_c, 0, 84, 0
2, 185100, Note_on_c, 0, 86, 99
2, 185160, Note_on_c, 0, 86, 0
2, 185160, Note_on_c, 0, 87, 89
2, 185190, Note_on_c, 0, 87, 0
2, 185220, Note_on_c, 0, 84, 89
2, 185250, Note_on_c, 0, 84, 0
2, 185280, Note_on_c, 0, 83, 93
2, 185400, Note_on_c, 0, 83, 0
2, 185520, Note_on_c, 0, 86, 99
2, 185880, Note_on_c, 0, 86, 0
2, 185880, Note_on_c, 0, 86, 104
2, 186120, Note_on_c, 0, 86, 0
2, 186120, Note_on_c, 0, 79, 94
2, 186360, Note_on_c, 0, 79, 0
2, 186360, Note_on_c, 0, 84, 95
2, 186600, Note_on_c, 0, 84, 0
2, 186600, Note_on_c, 0, 77, 93
2, 186840, Note_on_c, 0, 77, 0
2, 186840, Note_on_c, 0, 82, 95
2, 187080, Note_on_c, 0, 82, 0
2, 187080, Note_on_c, 0, 81, 94
2, 187140, Note_on_c, 0, 81, 0
2, 187200, Note_on_c, 0, 81, 95
2, 187260, Note_on_c, 0, 81, 0
2, 187320, Note_on_c, 0, 79, 99
2, 187380, Note_on_c, 0, 79, 0
2, 187440, Note_on_c, 0, 79, 84
2, 187500, Note_on_c, 0, 79, 0
2, 187560, Note_on_c, 0, 77, 99
2, 187620, Note_on_c, 0, 77, 0
2, 187680, Note_on_c, 0, 82, 86
2, 187740, Note_on_c, 0, 82, 0
2, 187800, Note_on_c, 0, 84, 95
2, 188040, Note_on_c, 0, 84, 0
2, 188040, Note_on_c, 0, 85, 90
2, 188280, Note_on_c, 0, 85, 0
2, 188280, Note_on_c, 0, 86, 105
2, 188340, Note_on_c, 0, 86, 0
2, 188400, Note_on_c, 0, 87, 94
2, 188460, Note_on_c, 0, 87, 0
2, 188520, Note_on_c, 0, 88, 105
2, 188580, Note_on_c, 0, 88, 0
2, 188640, Note_on_c, 0, 89, 119
2, 188880, Note_on_c, 0, 89, 0
2, 229440, Note_on_c, 0, 82, 76
2, 229560, Note_on_c, 0, 82, 0
2, 230520, Note_on_c, 0, 82, 52
2, 230610, Note_on_c, 0, 82, 0
2, 230640, Note_on_c, 0, 82, 58
2, 230730, Note_on_c, 0, 82, 0
2, 230760, Note_on_c, 0, 82, 68
2, 230850, Note_on_c, 0, 82, 0
2, 230880, Note_on_c, 0, 81, 85
2, 231060, Note_on_c, 0, 81, 0
2, 231060, Note_on_c, 0, 82, 80
2, 231120, Note_on_c, 0, 82, 0
2, 231120, Note_on_c, 0, 84, 86
2, 231180, Note_on_c, 0, 84, 0
2, 231180, Note_on_c, 0, 86, 95
2, 231240, Note_on_c, 0, 86, 0
2, 231240, Note_on_c, 0, 87, 98
2, 231300, Note_on_c, 0, 87, 0
2, 231300, Note_on_c, 0, 84, 95
2, 231360, Note_on_c, 0, 84, 0
2, 231360, Note_on_c, 0, 82, 52
2, 231480, Note_on_c, 0, 82, 0
2, 231600, Note_on_c, 0, 86, 98
2, 231720, Note_on_c, 0, 86, 0
2, 231840, Note_on_c, 0, 82, 90
2, 231960, Note_on_c, 0, 82, 0
2, 231960, End_track
3, 0, Start_track
3, 0, MIDI_port, 0
3, 0, Title_t, "Oboes"
3, 0, Control_c, 1, 7, 100
3, 0, Control_c, 1, 10, 60
3, 0, Control_c, 1, 93, 0
3, 0, Control_c, 1, 91, 66
3, 0, Program_c, 1, 68
3, 0, Note_on_c, 1, 70, 86
3, 180, Note_on_c, 1, 70, 0
3, 210, Note_on_c, 1, 70, 89
3, 240, Note_on_c, 1, 70, 0
3, 240, Note_on_c, 1, 77, 99
3, 270, Note_on_c, 1, 77, 0
3, 330, Note_on_c, 1, 77, 95
3, 345, Note_on_c, 1, 77, 0
3, 360, Note_on_c, 1, 74, 99
3, 390, Note_on_c, 1, 74, 0
3, 450, Note_on_c, 1, 77, 90
3, 465, Note_on_c, 1, 77, 0
3, 480, Note_on_c, 1, 70, 90
3, 600, Note_on_c, 1, 70, 0
3, 1326, Control_c, 1, 7, 95
3, 1328, Control_c, 1, 7, 94
3, 1330, Control_c, 1, 7, 93
3, 1332, Control_c, 1, 7, 92
3, 1334, Control_c, 1, 7, 91
3, 1336, Control_c, 1, 7, 90
3, 1338, Control_c, 1, 7, 88
3, 1340, Control_c, 1, 7, 87
3, 1342, Control_c, 1, 7, 86
3, 1344, Control_c, 1, 7, 85
3, 1346, Control_c, 1, 7, 84
3, 1348, Control_c, 1, 7, 82
3, 1350, Control_c, 1, 7, 81
3, 1352, Control_c, 1, 7, 80
3, 1354, Control_c, 1, 7, 79
3, 1356, Control_c, 1, 7, 78
3, 1358, Control_c, 1, 7, 76
3, 1360, Control_c, 1, 7, 75
3, 1362, Control_c, 1, 7, 74
3, 1364, Control_c, 1, 7, 73
3, 1366, Control_c, 1, 7, 72
3, 1368, Control_c, 1, 7, 70
3, 1370, Control_c, 1, 7, 69
3, 1372, Control_c, 1, 7, 68
3, 1374, Control_c, 1, 7, 67
3, 1376, Control_c, 1, 7, 66
3, 1378, Control_c, 1, 7, 64
3, 1380, Control_c, 1, 7, 63
3, 1382, Control_c, 1, 7, 62
3, 1384, Control_c, 1, 7, 61
3, 1386, Control_c, 1, 7, 60
3, 1388, Control_c, 1, 7, 59
3, 1390, Control_c, 1, 7, 57
3, 1392, Control_c, 1, 7, 56
3, 1394, Control_c, 1, 7, 55
3, 1396, Control_c, 1, 7, 54
3, 1398, Control_c, 1, 7, 53
3, 1400, Control_c, 1, 7, 51
3, 1402, Control_c, 1, 7, 50
3, 1404, Control_c, 1, 7, 49
3, 1406, Control_c, 1, 7, 48
3, 1408, Control_c, 1, 7, 47
3, 1410, Control_c, 1, 7, 45
3, 1412, Control_c, 1, 7, 44
3, 1414, Control_c, 1, 7, 43
3, 1416, Control_c, 1, 7, 42
3, 1418, Control_c, 1, 7, 41
3, 1420, Control_c, 1, 7, 39
3, 1422, Control_c, 1, 7, 38
3, 1424, Control_c, 1, 7, 37
3, 1426, Control_c, 1, 7, 36
3, 1428, Control_c, 1, 7, 35
3, 1430, Control_c, 1, 7, 33
3, 1432, Control_c, 1, 7, 32
3, 1434, Control_c, 1, 7, 31
3, 1436, Control_c, 1, 7, 30
3, 1438, Control_c, 1, 7, 29
3, 1440, Control_c, 1, 7, 27
3, 1440, Note_on_c, 1, 75, 95
3, 1440, Note_on_c, 1, 69, 95
3, 1442, Control_c, 1, 7, 31
3, 1450, Control_c, 1, 7, 32
3, 1456, Control_c, 1, 7, 33
3, 1464, Control_c, 1, 7, 34
3, 1470, Control_c, 1, 7, 35
3, 1476, Control_c, 1, 7, 36
3, 1484, Control_c, 1, 7, 37
3, 1490, Control_c, 1, 7, 38
3, 1496, Control_c, 1, 7, 39
3, 1504, Control_c, 1, 7, 40
3, 1510, Control_c, 1, 7, 41
3, 1518, Control_c, 1, 7, 42
3, 1524, Control_c, 1, 7, 43
3, 1530, Control_c, 1, 7, 44
3, 1538, Control_c, 1, 7, 45
3, 1544, Control_c, 1, 7, 46
3, 1550, Control_c, 1, 7, 47
3, 1558, Control_c, 1, 7, 48
3, 1564, Control_c, 1, 7, 49
3, 1570, Control_c, 1, 7, 50
3, 1578, Control_c, 1, 7, 51
3, 1584, Control_c, 1, 7, 52
3, 1592, Control_c, 1, 7, 53
3, 1598, Control_c, 1, 7, 54
3, 1604, Control_c, 1, 7, 55
3, 1612, Control_c, 1, 7, 56
3, 1618, Control_c, 1, 7, 57
3, 1624, Control_c, 1, 7, 58
3, 1632, Control_c, 1, 7, 59
3, 1638, Control_c, 1, 7, 60
3, 1644, Control_c, 1, 7, 61
3, 1652, Control_c, 1, 7, 62
3, 1658, Control_c, 1, 7, 63
3, 1666, Control_c, 1, 7, 64
3, 1672, Control_c, 1, 7, 65
3, 1678, Control_c, 1, 7, 66
3, 1680, Note_on_c, 1, 69, 0
3, 1680, Note_on_c, 1, 75, 0
3, 1680, Note_on_c, 1, 74, 94
3, 1680, Note_on_c, 1, 70, 94
3, 1686, Control_c, 1, 7, 67
3, 1692, Control_c, 1, 7, 68
3, 1698, Control_c, 1, 7, 69
3, 1706, Control_c, 1, 7, 70
3, 1712, Control_c, 1, 7, 71
3, 1720, Control_c, 1, 7, 72
3, 1726, Control_c, 1, 7, 73
3, 1732, Control_c, 1, 7, 74
3, 1740, Control_c, 1, 7, 75
3, 1746, Control_c, 1, 7, 76
3, 1752, Control_c, 1, 7, 77
3, 1760, Control_c, 1, 7, 78
3, 1766, Control_c, 1, 7, 79
3, 1772, Control_c, 1, 7, 80
3, 1780, Control_c, 1, 7, 81
3, 1786, Control_c, 1, 7, 82
3, 1794, Control_c, 1, 7, 83
3, 1800, Control_c, 1, 7, 84
3, 1806, Control_c, 1, 7, 85
3, 1814, Control_c, 1, 7, 86
3, 1820, Control_c, 1, 7, 87
3, 1826, Control_c, 1, 7, 88
3, 1834, Control_c, 1, 7, 89
3, 1840, Control_c, 1, 7, 90
3, 1846, Control_c, 1, 7, 91
3, 1854, Control_c, 1, 7, 92
3, 1860, Control_c, 1, 7, 93
3, 1868, Control_c, 1, 7, 94
3, 1874, Control_c, 1, 7, 95
3, 1880, Control_c, 1, 7, 96
3, 1888, Control_c, 1, 7, 97
3, 1894, Control_c, 1, 7, 98
3, 1900, Control_c, 1, 7, 99
3, 1908, Control_c, 1, 7, 100
3, 1914, Control_c, 1, 7, 101
3, 1920, Note_on_c, 1, 70, 0
3, 1920, Note_on_c, 1, 74, 0
3, 1920, Control_c, 1, 7, 100
3, 1920, Control_c, 1, 10, 60
3, 1920, Control_c, 1, 93, 0
3, 1920, Control_c, 1, 91, 66
3, 1920, Note_on_c, 1, 75, 95
3, 1920, Note_on_c, 1, 72, 72
3, 2040, Control_c, 1, 7, 100
3, 2040, Control_c, 1, 10, 60
3, 2040, Control_c, 1, 93, 0
3, 2040, Control_c, 1, 91, 66
3, 2100, Note_on_c, 1, 72, 0
3, 2100, Note_on_c, 1, 75, 0
3, 2130, Note_on_c, 1, 65, 99
3, 2160, Note_on_c, 1, 65, 0
3, 2160, Note_on_c, 1, 72, 85
3, 2190, Note_on_c, 1, 72, 0
3, 2250, Note_on_c, 1, 72, 81
3, 2265, Note_on_c, 1, 72, 0
3, 2280, Note_on_c, 1, 69, 95
3, 2310, Note_on_c, 1, 69, 0
3, 2370, Note_on_c, 1, 69, 95
3, 2385, Note_on_c, 1, 69, 0
3, 2400, Note_on_c, 1, 65, 95
3, 2520, Note_on_c, 1, 65, 0
3, 3360, Note_on_c, 1, 77, 59
3, 3362, Control_c, 1, 7, 99
3, 3372, Control_c, 1, 7, 100
3, 3380, Control_c, 1, 7, 101
3, 3388, Control_c, 1, 7, 102
3, 3398, Control_c, 1, 7, 103
3, 3406, Control_c, 1, 7, 104
3, 3414, Control_c, 1, 7, 105
3, 3422, Control_c, 1, 7, 106
3, 3432, Control_c, 1, 7, 107
3, 3440, Control_c, 1, 7, 108
3, 3448, Control_c, 1, 7, 109
3, 3458, Control_c, 1, 7, 110
3, 3466, Control_c, 1, 7, 111
3, 3474, Control_c, 1, 7, 112
3, 3482, Control_c, 1, 7, 113
3, 3492, Control_c, 1, 7, 114
3, 3500, Control_c, 1, 7, 115
3, 3508, Control_c, 1, 7, 116
3, 3518, Control_c, 1, 7, 117
3, 3526, Control_c, 1, 7, 118
3, 3534, Control_c, 1, 7, 119
3, 3542, Control_c, 1, 7, 120
3, 3552, Control_c, 1, 7, 121
3, 3560, Control_c, 1, 7, 122
3, 3568, Control_c, 1, 7, 123
3, 3578, Control_c, 1, 7, 124
3, 3586, Control_c, 1, 7, 125
3, 3594, Control_c, 1, 7, 126
3, 3600, Note_on_c, 1, 77, 0
3, 3600, Note_on_c, 1, 81, 58
3, 3600, Control_c, 1, 7, 127
3, 3610, Control_c, 1, 7, 126
3, 3618, Control_c, 1, 7, 125
3, 3628, Control_c, 1, 7, 124
3, 3636, Control_c, 1, 7, 123
3, 3644, Control_c, 1, 7, 122
3, 3654, Control_c, 1, 7, 121
3, 3662, Control_c, 1, 7, 120
3, 3670, Control_c, 1, 7, 119
3, 3680, Control_c, 1, 7, 118
3, 3688, Control_c, 1, 7, 117
3, 3696, Control_c, 1, 7, 116
3, 3706, Control_c, 1, 7, 115
3, 3714, Control_c, 1, 7, 114
3, 3722, Control_c, 1, 7, 113
3, 3732, Control_c, 1, 7, 112
3, 3740, Control_c, 1, 7, 111
3, 3750, Control_c, 1, 7, 110
3, 3758, Control_c, 1, 7, 109
3, 3766, Control_c, 1, 7, 108
3, 3776, Control_c, 1, 7, 107
3, 3784, Control_c, 1, 7, 106
3, 3792, Control_c, 1, 7, 105
3, 3802, Control_c, 1, 7, 104
3, 3810, Control_c, 1, 7, 103
3, 3818, Control_c, 1, 7, 102
3, 3828, Control_c, 1, 7, 101
3, 3836, Control_c, 1, 7, 100
3, 3840, Note_on_c, 1, 81, 0
3, 3840, Note_on_c, 1, 82, 64
3, 3844, Control_c, 1, 7, 99
3, 3900, Note_on_c, 1, 82, 0
3, 7200, Note_on_c, 1, 70, 42
3, 7200, Note_on_c, 1, 74, 52
3, 7680, Note_on_c, 1, 74, 0
3, 7680, Note_on_c, 1, 70, 0
3, 7680, Note_on_c, 1, 65, 46
3, 7680, Note_on_c, 1, 77, 44
3, 8160, Note_on_c, 1, 77, 0
3, 8160, Note_on_c, 1, 65, 0
3, 8160, Note_on_c, 1, 65, 39
3, 8160, Note_on_c, 1, 77, 53
3, 8640, Note_on_c, 1, 77, 0
3, 8640, Note_on_c, 1, 65, 0
3, 8640, Note_on_c, 1, 65, 47
3, 8640, Note_on_c, 1, 77, 46
3, 9120, Note_on_c, 1, 77, 0
3, 9120, Note_on_c, 1, 65, 0
3, 9120, Note_on_c, 1, 65, 43
3, 9120, Note_on_c, 1, 77, 53
3, 9600, Note_on_c, 1, 77, 0
3, 9600, Note_on_c, 1, 65, 0
3, 9600, Note_on_c, 1, 70, 64
3, 9600, Note_on_c, 1, 82, 57
3, 10080, Note_on_c, 1, 82, 0
3, 10080, Note_on_c, 1, 70, 0
3, 10080, Note_on_c, 1, 80, 73
3, 10080, Note_on_c, 1, 68, 85
3, 10140, Note_on_c, 1, 68, 0
3, 10140, Note_on_c, 1, 80, 0
3, 10320, Note_on_c, 1, 65, 95
3, 10320, Note_on_c, 1, 68, 89
3, 10560, Note_on_c, 1, 68, 0
3, 10560, Note_on_c, 1, 67, 89
3, 10680, Note_on_c, 1, 67, 0
3, 10680, Note_on_c, 1, 65, 0
3, 11040, Note_on_c, 1, 70, 84
3, 11160, Note_on_c, 1, 70, 0
3, 11280, Note_on_c, 1, 70, 89
3, 11520, Note_on_c, 1, 70, 0
3, 11520, Note_on_c, 1, 69, 84
3, 11640, Note_on_c, 1, 69, 0
3, 14400, Note_on_c, 1, 72, 84
3, 14880, Note_on_c, 1, 72, 0
3, 14880, Note_on_c, 1, 72, 78
3, 15360, Note_on_c, 1, 72, 0
3, 15360, Note_on_c, 1, 72, 29
3, 15480, Note_on_c, 1, 72, 0
3, 15480, Note_on_c, 1, 72, 94
3, 15540, Note_on_c, 1, 72, 0
3, 15720, Note_on_c, 1, 72, 84
3, 15780, Note_on_c, 1, 72, 0
3, 15960, Note_on_c, 1, 72, 89
3, 16020, Note_on_c, 1, 72, 0
3, 16440, Note_on_c, 1, 79, 89
3, 16440, Note_on_c, 1, 67, 94
3, 16470, Note_on_c, 1, 67, 0
3, 16470, Note_on_c, 1, 79, 0
3, 16530, Note_on_c, 1, 79, 81
3, 16530, Note_on_c, 1, 67, 76
3, 16545, Note_on_c, 1, 67, 0
3, 16545, Note_on_c, 1, 79, 0
3, 16560, Note_on_c, 1, 76, 89
3, 16560, Note_on_c, 1, 64, 95
3, 16620, Note_on_c, 1, 64, 0
3, 16620, Note_on_c, 1, 76, 0
3, 16680, Note_on_c, 1, 72, 45
3, 16680, Note_on_c, 1, 60, 89
3, 16740, Note_on_c, 1, 60, 0
3, 16740, Note_on_c, 1, 72, 0
3, 16770, Note_on_c, 1, 72, 74
3, 16770, Note_on_c, 1, 60, 90
3, 16785, Note_on_c, 1, 60, 0
3, 16785, Note_on_c, 1, 72, 0
3, 16920, Note_on_c, 1, 84, 80
3, 16920, Note_on_c, 1, 72, 65
3, 16950, Note_on_c, 1, 72, 0
3, 16950, Note_on_c, 1, 84, 0
3, 17040, Note_on_c, 1, 80, 84
3, 17040, Note_on_c, 1, 68, 94
3, 17100, Note_on_c, 1, 68, 0
3, 17100, Note_on_c, 1, 80, 0
3, 17160, Note_on_c, 1, 77, 76
3, 17160, Note_on_c, 1, 65, 90
3, 17220, Note_on_c, 1, 65, 0
3, 17220, Note_on_c, 1, 77, 0
3, 17400, Note_on_c, 1, 72, 93
3, 17460, Note_on_c, 1, 72, 0
3, 17640, Note_on_c, 1, 72, 85
3, 17700, Note_on_c, 1, 72, 0
3, 17880, Note_on_c, 1, 72, 89
3, 17940, Note_on_c, 1, 72, 0
3, 18240, Note_on_c, 1, 72, 93
3, 18360, Note_on_c, 1, 72, 0
3, 18480, Note_on_c, 1, 72, 94
3, 18600, Note_on_c, 1, 72, 0
3, 18720, Note_on_c, 1, 72, 94
3, 18840, Note_on_c, 1, 72, 0
3, 22680, Note_on_c, 1, 77, 45
3, 22800, Note_on_c, 1, 77, 0
3, 22800, Note_on_c, 1, 73, 60
3, 22920, Note_on_c, 1, 73, 0
3, 22920, Note_on_c, 1, 70, 64
3, 23040, Note_on_c, 1, 70, 0
3, 23040, Note_on_c, 1, 72, 43
3, 23160, Note_on_c, 1, 72, 0
3, 23640, Note_on_c, 1, 75, 58
3, 23760, Note_on_c, 1, 75, 0
3, 23760, Note_on_c, 1, 72, 53
3, 23880, Note_on_c, 1, 72, 0
3, 23880, Note_on_c, 1, 69, 57
3, 24000, Note_on_c, 1, 69, 0
3, 24000, Note_on_c, 1, 70, 45
3, 24120, Note_on_c, 1, 70, 0
3, 24480, Note_on_c, 1, 75, 85
3, 24480, Note_on_c, 1, 72, 49
3, 24483, Control_c, 1, 7, 99
3, 24487, Control_c, 1, 7, 98
3, 24489, Control_c, 1, 7, 97
3, 24493, Control_c, 1, 7, 96
3, 24495, Control_c, 1, 7, 95
3, 24499, Control_c, 1, 7, 94
3, 24501, Control_c, 1, 7, 93
3, 24505, Control_c, 1, 7, 92
3, 24507, Control_c, 1, 7, 91
3, 24511, Control_c, 1, 7, 90
3, 24513, Control_c, 1, 7, 89
3, 24515, Control_c, 1, 7, 88
3, 24519, Control_c, 1, 7, 87
3, 24521, Control_c, 1, 7, 86
3, 24525, Control_c, 1, 7, 85
3, 24527, Control_c, 1, 7, 84
3, 24531, Control_c, 1, 7, 83
3, 24533, Control_c, 1, 7, 82
3, 24537, Control_c, 1, 7, 81
3, 24539, Control_c, 1, 7, 80
3, 24541, Control_c, 1, 7, 79
3, 24545, Control_c, 1, 7, 78
3, 24547, Control_c, 1, 7, 77
3, 24551, Control_c, 1, 7, 76
3, 24553, Control_c, 1, 7, 75
3, 24557, Control_c, 1, 7, 74
3, 24559, Control_c, 1, 7, 73
3, 24563, Control_c, 1, 7, 72
3, 24565, Control_c, 1, 7, 71
3, 24569, Control_c, 1, 7, 70
3, 24571, Control_c, 1, 7, 69
3, 24573, Control_c, 1, 7, 68
3, 24577, Control_c, 1, 7, 67
3, 24579, Control_c, 1, 7, 66
3, 24583, Control_c, 1, 7, 65
3, 24585, Control_c, 1, 7, 64
3, 24589, Control_c, 1, 7, 63
3, 24591, Control_c, 1, 7, 62
3, 24595, Control_c, 1, 7, 61
3, 24597, Control_c, 1, 7, 60
3, 24599, Control_c, 1, 7, 59
3, 24960, Note_on_c, 1, 72, 0
3, 24960, Note_on_c, 1, 75, 0
3, 24960, Note_on_c, 1, 73, 72
3, 24960, Note_on_c, 1, 70, 72
3, 25020, Note_on_c, 1, 70, 0
3, 25020, Note_on_c, 1, 73, 0
3, 25440, Note_on_c, 1, 75, 89
3, 25440, Note_on_c, 1, 72, 53
3, 25440, Control_c, 1, 7, 99
3, 25444, Control_c, 1, 7, 98
3, 25446, Control_c, 1, 7, 97
3, 25450, Control_c, 1, 7, 96
3, 25452, Control_c, 1, 7, 95
3, 25456, Control_c, 1, 7, 94
3, 25458, Control_c, 1, 7, 93
3, 25462, Control_c, 1, 7, 92
3, 25464, Control_c, 1, 7, 91
3, 25468, Control_c, 1, 7, 90
3, 25470, Control_c, 1, 7, 89
3, 25474, Control_c, 1, 7, 88
3, 25476, Control_c, 1, 7, 87
3, 25480, Control_c, 1, 7, 86
3, 25482, Control_c, 1, 7, 85
3, 25486, Control_c, 1, 7, 84
3, 25488, Control_c, 1, 7, 83
3, 25492, Control_c, 1, 7, 82
3, 25494, Control_c, 1, 7, 81
3, 25498, Control_c, 1, 7, 80
3, 25500, Control_c, 1, 7, 79
3, 25504, Control_c, 1, 7, 78
3, 25506, Control_c, 1, 7, 77
3, 25510, Control_c, 1, 7, 76
3, 25512, Control_c, 1, 7, 75
3, 25516, Control_c, 1, 7, 74
3, 25518, Control_c, 1, 7, 73
3, 25522, Control_c, 1, 7, 72
3, 25524, Control_c, 1, 7, 71
3, 25528, Control_c, 1, 7, 70
3, 25530, Control_c, 1, 7, 69
3, 25534, Control_c, 1, 7, 68
3, 25536, Control_c, 1, 7, 67
3, 25540, Control_c, 1, 7, 66
3, 25542, Control_c, 1, 7, 65
3, 25546, Control_c, 1, 7, 64
3, 25548, Control_c, 1, 7, 63
3, 25552, Control_c, 1, 7, 62
3, 25554, Control_c, 1, 7, 61
3, 25558, Control_c, 1, 7, 60
3, 25560, Control_c, 1, 7, 59
3, 25920, Note_on_c, 1, 72, 0
3, 25920, Note_on_c, 1, 75, 0
3, 25920, Note_on_c, 1, 73, 85
3, 25920, Note_on_c, 1, 70, 85
3, 25980, Note_on_c, 1, 70, 0
3, 25980, Note_on_c, 1, 73, 0
3, 26038, Control_c, 1, 7, 60
3, 26040, Note_on_c, 1, 70, 84
3, 26040, Note_on_c, 1, 70, 93
3, 26048, Control_c, 1, 7, 61
3, 26058, Control_c, 1, 7, 62
3, 26066, Control_c, 1, 7, 63
3, 26076, Control_c, 1, 7, 64
3, 26086, Control_c, 1, 7, 65
3, 26094, Control_c, 1, 7, 66
3, 26100, Note_on_c, 1, 70, 0
3, 26100, Note_on_c, 1, 72, 76
3, 26104, Control_c, 1, 7, 67
3, 26114, Control_c, 1, 7, 68
3, 26122, Control_c, 1, 7, 69
3, 26132, Control_c, 1, 7, 70
3, 26142, Control_c, 1, 7, 71
3, 26150, Control_c, 1, 7, 72
3, 26160, Note_on_c, 1, 72, 0
3, 26160, Control_c, 1, 7, 73
3, 26160, Note_on_c, 1, 73, 89
3, 26168, Control_c, 1, 7, 74
3, 26178, Control_c, 1, 7, 75
3, 26188, Control_c, 1, 7, 76
3, 26196, Control_c, 1, 7, 77
3, 26206, Control_c, 1, 7, 78
3, 26216, Control_c, 1, 7, 79
3, 26220, Note_on_c, 1, 73, 0
3, 26220, Note_on_c, 1, 75, 93
3, 26224, Control_c, 1, 7, 80
3, 26234, Control_c, 1, 7, 81
3, 26244, Control_c, 1, 7, 82
3, 26252, Control_c, 1, 7, 83
3, 26262, Control_c, 1, 7, 84
3, 26272, Control_c, 1, 7, 85
3, 26280, Note_on_c, 1, 75, 0
3, 26280, Note_on_c, 1, 70, 0
3, 26280, Note_on_c, 1, 70, 95
3, 26280, Control_c, 1, 7, 86
3, 26280, Note_on_c, 1, 77, 93
3, 26290, Control_c, 1, 7, 87
3, 26298, Control_c, 1, 7, 88
3, 26308, Control_c, 1, 7, 89
3, 26318, Control_c, 1, 7, 90
3, 26326, Control_c, 1, 7, 91
3, 26336, Control_c, 1, 7, 92
3, 26340, Note_on_c, 1, 77, 0
3, 26340, Note_on_c, 1, 73, 84
3, 26346, Control_c, 1, 7, 93
3, 26354, Control_c, 1, 7, 94
3, 26364, Control_c, 1, 7, 95
3, 26374, Control_c, 1, 7, 96
3, 26382, Control_c, 1, 7, 97
3, 26392, Control_c, 1, 7, 98
3, 26400, Note_on_c, 1, 73, 0
3, 26400, Note_on_c, 1, 70, 0
3, 26400, Note_on_c, 1, 72, 73
3, 26400, Note_on_c, 1, 70, 82
3, 26400, Control_c, 1, 7, 99
3, 26880, Note_on_c, 1, 70, 0
3, 26880, Note_on_c, 1, 72, 0
3, 26880, Note_on_c, 1, 72, 57
3, 26880, Note_on_c, 1, 69, 85
3, 27000, Note_on_c, 1, 69, 0
3, 27000, Note_on_c, 1, 72, 0
3, 27600, Note_on_c, 1, 79, 38
3, 27600, Note_on_c, 1, 70, 40
3, 27660, Note_on_c, 1, 70, 0
3, 27660, Note_on_c, 1, 79, 0
3, 28080, Note_on_c, 1, 81, 41
3, 28080, Note_on_c, 1, 72, 29
3, 28140, Note_on_c, 1, 72, 0
3, 28140, Note_on_c, 1, 81, 0
3, 28560, Note_on_c, 1, 82, 30
3, 28560, Note_on_c, 1, 74, 43
3, 28620, Note_on_c, 1, 74, 0
3, 28620, Note_on_c, 1, 82, 0
3, 29040, Note_on_c, 1, 84, 61
3, 29040, Note_on_c, 1, 75, 80
3, 29100, Note_on_c, 1, 75, 0
3, 29100, Note_on_c, 1, 84, 0
3, 29520, Note_on_c, 1, 81, 76
3, 29520, Note_on_c, 1, 72, 74
3, 29580, Note_on_c, 1, 72, 0
3, 29580, Note_on_c, 1, 81, 0
3, 29760, Control_c, 1, 7, 99
3, 29760, Note_on_c, 1, 82, 68
3, 29760, Note_on_c, 1, 74, 94
3, 29766, Control_c, 1, 7, 98
3, 29770, Control_c, 1, 7, 97
3, 29776, Control_c, 1, 7, 96
3, 29780, Control_c, 1, 7, 95
3, 29786, Control_c, 1, 7, 94
3, 29790, Control_c, 1, 7, 93
3, 29796, Control_c, 1, 7, 92
3, 29800, Control_c, 1, 7, 91
3, 29806, Control_c, 1, 7, 90
3, 29810, Control_c, 1, 7, 89
3, 29816, Control_c, 1, 7, 88
3, 29820, Control_c, 1, 7, 87
3, 29826, Control_c, 1, 7, 86
3, 29830, Control_c, 1, 7, 85
3, 29836, Control_c, 1, 7, 84
3, 29840, Control_c, 1, 7, 83
3, 29846, Control_c, 1, 7, 82
3, 29850, Control_c, 1, 7, 81
3, 29856, Control_c, 1, 7, 80
3, 29860, Control_c, 1, 7, 79
3, 29866, Control_c, 1, 7, 78
3, 29870, Control_c, 1, 7, 77
3, 29876, Control_c, 1, 7, 76
3, 29880, Control_c, 1, 7, 75
3, 29886, Control_c, 1, 7, 74
3, 29890, Control_c, 1, 7, 73
3, 29896, Control_c, 1, 7, 72
3, 29900, Control_c, 1, 7, 71
3, 29906, Control_c, 1, 7, 70
3, 29910, Control_c, 1, 7, 69
3, 29916, Control_c, 1, 7, 68
3, 29920, Control_c, 1, 7, 67
3, 29926, Control_c, 1, 7, 66
3, 29930, Control_c, 1, 7, 65
3, 29936, Control_c, 1, 7, 64
3, 29940, Note_on_c, 1, 74, 0
3, 29940, Note_on_c, 1, 82, 0
3, 29940, Control_c, 1, 7, 63
3, 30118, Control_c, 1, 7, 63
3, 30122, Control_c, 1, 7, 64
3, 30126, Control_c, 1, 7, 65
3, 30130, Control_c, 1, 7, 66
3, 30132, Control_c, 1, 7, 67
3, 30136, Control_c, 1, 7, 68
3, 30140, Control_c, 1, 7, 69
3, 30142, Control_c, 1, 7, 70
3, 30146, Control_c, 1, 7, 71
3, 30150, Control_c, 1, 7, 72
3, 30152, Control_c, 1, 7, 73
3, 30156, Control_c, 1, 7, 74
3, 30160, Control_c, 1, 7, 75
3, 30164, Control_c, 1, 7, 76
3, 30166, Control_c, 1, 7, 77
3, 30170, Control_c, 1, 7, 78
3, 30174, Control_c, 1, 7, 79
3, 30176, Control_c, 1, 7, 80
3, 30180, Control_c, 1, 7, 81
3, 30184, Control_c, 1, 7, 82
3, 30186, Control_c, 1, 7, 83
3, 30190, Control_c, 1, 7, 84
3, 30194, Control_c, 1, 7, 85
3, 30196, Control_c, 1, 7, 86
3, 30200, Control_c, 1, 7, 87
3, 30204, Control_c, 1, 7, 88
3, 30208, Control_c, 1, 7, 89
3, 30210, Control_c, 1, 7, 90
3, 30214, Control_c, 1, 7, 91
3, 30218, Control_c, 1, 7, 92
3, 30220, Control_c, 1, 7, 93
3, 30224, Control_c, 1, 7, 94
3, 30228, Control_c, 1, 7, 95
3, 30230, Control_c, 1, 7, 96
3, 30234, Control_c, 1, 7, 97
3, 30238, Control_c, 1, 7, 98
3, 30240, Control_c, 1, 7, 99
3, 30720, Note_on_c, 1, 63, 86
3, 30780, Note_on_c, 1, 63, 0
3, 30840, Note_on_c, 1, 69, 60
3, 30900, Note_on_c, 1, 69, 0
3, 30960, Note_on_c, 1, 72, 56
3, 31020, Note_on_c, 1, 72, 0
3, 31080, Note_on_c, 1, 75, 58
3, 31140, Note_on_c, 1, 75, 0
3, 31200, Note_on_c, 1, 69, 46
3, 31320, Note_on_c, 1, 69, 0
3, 31680, Note_on_c, 1, 65, 94
3, 31740, Note_on_c, 1, 65, 0
3, 31800, Note_on_c, 1, 71, 53
3, 31860, Note_on_c, 1, 71, 0
3, 31920, Note_on_c, 1, 74, 48
3, 31980, Note_on_c, 1, 74, 0
3, 32040, Note_on_c, 1, 77, 60
3, 32100, Note_on_c, 1, 77, 0
3, 32160, Note_on_c, 1, 71, 63
3, 32280, Note_on_c, 1, 71, 0
3, 32640, Note_on_c, 1, 79, 76
3, 32640, Note_on_c, 1, 72, 61
3, 32820, Note_on_c, 1, 72, 0
3, 32820, Note_on_c, 1, 79, 0
3, 33120, Note_on_c, 1, 80, 68
3, 33120, Note_on_c, 1, 74, 99
3, 33300, Note_on_c, 1, 74, 0
3, 33300, Note_on_c, 1, 80, 0
3, 33600, Note_on_c, 1, 80, 68
3, 33600, Note_on_c, 1, 74, 101
3, 33780, Note_on_c, 1, 74, 0
3, 33780, Note_on_c, 1, 80, 0
3, 34080, Note_on_c, 1, 82, 76
3, 34080, Note_on_c, 1, 75, 94
3, 34260, Note_on_c, 1, 75, 0
3, 34260, Note_on_c, 1, 82, 0
3, 34560, Note_on_c, 1, 82, 68
3, 34560, Note_on_c, 1, 76, 99
3, 34740, Note_on_c, 1, 76, 0
3, 34740, Note_on_c, 1, 82, 0
3, 35520, Note_on_c, 1, 67, 89
3, 35520, Note_on_c, 1, 64, 84
3, 35760, Note_on_c, 1, 64, 0
3, 35760, Note_on_c, 1, 67, 0
3, 35760, Note_on_c, 1, 69, 62
3, 35760, Note_on_c, 1, 65, 65
3, 35880, Note_on_c, 1, 65, 0
3, 35880, Note_on_c, 1, 69, 0
3, 36000, Note_on_c, 1, 72, 64
3, 36000, Note_on_c, 1, 69, 99
3, 36240, Note_on_c, 1, 69, 0
3, 36240, Note_on_c, 1, 72, 0
3, 36240, Note_on_c, 1, 74, 65
3, 36240, Note_on_c, 1, 70, 73
3, 36360, Note_on_c, 1, 70, 0
3, 36360, Note_on_c, 1, 74, 0
3, 36480, Note_on_c, 1, 74, 105
3, 36480, Note_on_c, 1, 71, 86
3, 36720, Note_on_c, 1, 71, 0
3, 36720, Note_on_c, 1, 74, 0
3, 36720, Note_on_c, 1, 75, 84
3, 36720, Note_on_c, 1, 72, 95
3, 36840, Note_on_c, 1, 72, 0
3, 36840, Note_on_c, 1, 75, 0
3, 36840, Note_on_c, 1, 77, 82
3, 36840, Note_on_c, 1, 74, 80
3, 36900, Note_on_c, 1, 74, 0
3, 36900, Note_on_c, 1, 77, 0
3, 36900, Note_on_c, 1, 79, 39
3, 36900, Note_on_c, 1, 75, 65
3, 36960, Note_on_c, 1, 75, 0
3, 36960, Note_on_c, 1, 79, 0
3, 36960, Note_on_c, 1, 74, 89
3, 36960, Note_on_c, 1, 70, 84
3, 37200, Note_on_c, 1, 70, 0
3, 37200, Note_on_c, 1, 74, 0
3, 37200, Note_on_c, 1, 72, 82
3, 37200, Note_on_c, 1, 69, 84
3, 37440, Note_on_c, 1, 69, 0
3, 37440, Note_on_c, 1, 72, 0
3, 37440, Note_on_c, 1, 74, 94
3, 37440, Note_on_c, 1, 71, 101
3, 37680, Note_on_c, 1, 71, 0
3, 37680, Note_on_c, 1, 74, 0
3, 37680, Note_on_c, 1, 75, 89
3, 37680, Note_on_c, 1, 72, 94
3, 37800, Note_on_c, 1, 72, 0
3, 37800, Note_on_c, 1, 75, 0
3, 37800, Note_on_c, 1, 77, 80
3, 37800, Note_on_c, 1, 74, 90
3, 37860, Note_on_c, 1, 74, 0
3, 37860, Note_on_c, 1, 77, 0
3, 37860, Note_on_c, 1, 79, 67
3, 37860, Note_on_c, 1, 75, 89
3, 37920, Note_on_c, 1, 75, 0
3, 37920, Note_on_c, 1, 79, 0
3, 37920, Note_on_c, 1, 74, 80
3, 37920, Note_on_c, 1, 70, 84
3, 38160, Note_on_c, 1, 70, 0
3, 38160, Note_on_c, 1, 74, 0
3, 38160, Note_on_c, 1, 75, 84
3, 38160, Note_on_c, 1, 72, 93
3, 38340, Note_on_c, 1, 72, 0
3, 38340, Note_on_c, 1, 75, 0
3, 38340, Note_on_c, 1, 72, 58
3, 38340, Note_on_c, 1, 69, 73
3, 38400, Note_on_c, 1, 69, 0
3, 38400, Note_on_c, 1, 72, 0
3, 38400, Note_on_c, 1, 74, 104
3, 38400, Note_on_c, 1, 70, 95
3, 38640, Note_on_c, 1, 70, 0
3, 38640, Note_on_c, 1, 71, 99
3, 38880, Note_on_c, 1, 71, 0
3, 38880, Note_on_c, 1, 74, 0
3, 38880, Note_on_c, 1, 75, 90
3, 38880, Note_on_c, 1, 72, 50
3, 39120, Note_on_c, 1, 72, 0
3, 39120, Note_on_c, 1, 75, 0
3, 39120, Note_on_c, 1, 72, 84
3, 39120, Note_on_c, 1, 69, 89
3, 39360, Note_on_c, 1, 69, 0
3, 39360, Note_on_c, 1, 72, 0
3, 39360, Note_on_c, 1, 74, 105
3, 39360, Note_on_c, 1, 82, 90
3, 39600, Note_on_c, 1, 82, 0
3, 39600, Note_on_c, 1, 83, 98
3, 39840, Note_on_c, 1, 83, 0
3, 39840, Note_on_c, 1, 74, 0
3, 39840, Note_on_c, 1, 84, 89
3, 39840, Note_on_c, 1, 75, 99
3, 40080, Note_on_c, 1, 75, 0
3, 40080, Note_on_c, 1, 84, 0
3, 40080, Note_on_c, 1, 81, 82
3, 40080, Note_on_c, 1, 72, 74
3, 40320, Note_on_c, 1, 72, 0
3, 40320, Note_on_c, 1, 81, 0
3, 40320, Note_on_c, 1, 82, 65
3, 40320, Note_on_c, 1, 74, 99
3, 40440, Note_on_c, 1, 74, 0
3, 40440, Note_on_c, 1, 82, 0
3, 41400, Note_on_c, 1, 74, 65
3, 41400, Note_on_c, 1, 70, 56
3, 41490, Note_on_c, 1, 70, 0
3, 41490, Note_on_c, 1, 74, 0
3, 41520, Note_on_c, 1, 74, 53
3, 41520, Note_on_c, 1, 70, 61
3, 41610, Note_on_c, 1, 70, 0
3, 41610, Note_on_c, 1, 74, 0
3, 41640, Note_on_c, 1, 74, 58
3, 41640, Note_on_c, 1, 70, 63
3, 41730, Note_on_c, 1, 70, 0
3, 41730, Note_on_c, 1, 74, 0
3, 41760, Note_on_c, 1, 75, 70
3, 41760, Note_on_c, 1, 69, 64
3, 41760, Control_c, 1, 7, 99
3, 41770, Control_c, 1, 7, 100
3, 41778, Control_c, 1, 7, 101
3, 41788, Control_c, 1, 7, 102
3, 41796, Control_c, 1, 7, 103
3, 41806, Control_c, 1, 7, 104
3, 41814, Control_c, 1, 7, 105
3, 41824, Control_c, 1, 7, 106
3, 41832, Control_c, 1, 7, 107
3, 41840, Control_c, 1, 7, 108
3, 41850, Control_c, 1, 7, 109
3, 41858, Control_c, 1, 7, 110
3, 41868, Control_c, 1, 7, 111
3, 41876, Control_c, 1, 7, 112
3, 41886, Control_c, 1, 7, 113
3, 41894, Control_c, 1, 7, 114
3, 41904, Control_c, 1, 7, 115
3, 41912, Control_c, 1, 7, 116
3, 41920, Control_c, 1, 7, 117
3, 41930, Control_c, 1, 7, 118
3, 41938, Control_c, 1, 7, 119
3, 41948, Control_c, 1, 7, 120
3, 41956, Control_c, 1, 7, 121
3, 41966, Control_c, 1, 7, 122
3, 41974, Control_c, 1, 7, 123
3, 41984, Control_c, 1, 7, 124
3, 41992, Control_c, 1, 7, 125
3, 42000, Control_c, 1, 7, 126
3, 42010, Control_c, 1, 7, 125
3, 42018, Control_c, 1, 7, 124
3, 42028, Control_c, 1, 7, 123
3, 42036, Control_c, 1, 7, 122
3, 42046, Control_c, 1, 7, 121
3, 42054, Control_c, 1, 7, 120
3, 42064, Control_c, 1, 7, 119
3, 42072, Control_c, 1, 7, 118
3, 42082, Control_c, 1, 7, 117
3, 42090, Control_c, 1, 7, 116
3, 42100, Control_c, 1, 7, 115
3, 42108, Control_c, 1, 7, 114
3, 42118, Control_c, 1, 7, 113
3, 42126, Control_c, 1, 7, 112
3, 42136, Control_c, 1, 7, 111
3, 42144, Control_c, 1, 7, 110
3, 42154, Control_c, 1, 7, 109
3, 42162, Control_c, 1, 7, 108
3, 42172, Control_c, 1, 7, 107
3, 42180, Control_c, 1, 7, 106
3, 42190, Control_c, 1, 7, 105
3, 42198, Control_c, 1, 7, 104
3, 42208, Control_c, 1, 7, 103
3, 42216, Control_c, 1, 7, 102
3, 42226, Control_c, 1, 7, 101
3, 42234, Control_c, 1, 7, 100
3, 42240, Note_on_c, 1, 69, 0
3, 42240, Note_on_c, 1, 75, 0
3, 42240, Note_on_c, 1, 74, 70
3, 42240, Note_on_c, 1, 70, 70
3, 42242, Control_c, 1, 7, 99
3, 42360, Note_on_c, 1, 70, 0
3, 42360, Note_on_c, 1, 74, 0
3, 42480, Note_on_c, 1, 77, 94
3, 42480, Note_on_c, 1, 74, 77
3, 42600, Note_on_c, 1, 74, 0
3, 42600, Note_on_c, 1, 77, 0
3, 42720, Note_on_c, 1, 74, 93
3, 42720, Note_on_c, 1, 70, 94
3, 42840, Note_on_c, 1, 70, 0
3, 42840, Note_on_c, 1, 74, 0
3, 48480, Note_on_c, 1, 70, 69
3, 48480, Note_on_c, 1, 62, 77
3, 48600, Note_on_c, 1, 62, 0
3, 48600, Note_on_c, 1, 70, 0
3, 49500, Note_on_c, 1, 82, 70
3, 49500, Note_on_c, 1, 70, 80
3, 49530, Note_on_c, 1, 70, 0
3, 49530, Note_on_c, 1, 82, 0
3, 49560, Note_on_c, 1, 82, 76
3, 49560, Note_on_c, 1, 70, 89
3, 49590, Note_on_c, 1, 70, 0
3, 49590, Note_on_c, 1, 82, 0
3, 49620, Note_on_c, 1, 82, 71
3, 49620, Note_on_c, 1, 70, 85
3, 49650, Note_on_c, 1, 70, 0
3, 49650, Note_on_c, 1, 82, 0
3, 49680, Note_on_c, 1, 82, 73
3, 49680, Note_on_c, 1, 70, 90
3, 49710, Note_on_c, 1, 70, 0
3, 49710, Note_on_c, 1, 82, 0
3, 49740, Note_on_c, 1, 82, 71
3, 49740, Note_on_c, 1, 70, 89
3, 49770, Note_on_c, 1, 70, 0
3, 49770, Note_on_c, 1, 82, 0
3, 49800, Note_on_c, 1, 81, 85
3, 49800, Note_on_c, 1, 69, 86
3, 49860, Note_on_c, 1, 69, 0
3, 49860, Note_on_c, 1, 81, 0
3, 49860, Note_on_c, 1, 82, 78
3, 49860, Note_on_c, 1, 70, 93
3, 49920, Note_on_c, 1, 70, 0
3, 49920, Note_on_c, 1, 82, 0
3, 49920, Note_on_c, 1, 79, 85
3, 49920, Note_on_c, 1, 67, 90
3, 50160, Note_on_c, 1, 67, 0
3, 50160, Note_on_c, 1, 79, 0
3, 50160, Note_on_c, 1, 81, 80
3, 50160, Note_on_c, 1, 69, 84
3, 50400, Note_on_c, 1, 69, 0
3, 50400, Note_on_c, 1, 81, 0
3, 50400, Note_on_c, 1, 82, 77
3, 50400, Note_on_c, 1, 70, 90
3, 50520, Note_on_c, 1, 70, 0
3, 50520, Note_on_c, 1, 82, 0
3, 58740, Note_on_c, 1, 76, 45
3, 58800, Note_on_c, 1, 76, 0
3, 58800, Note_on_c, 1, 77, 43
3, 58800, Note_on_c, 1, 74, 49
3, 58860, Note_on_c, 1, 74, 0
3, 58860, Note_on_c, 1, 77, 0
3, 58980, Note_on_c, 1, 74, 48
3, 58980, Note_on_c, 1, 77, 44
3, 59040, Note_on_c, 1, 77, 0
3, 59040, Note_on_c, 1, 74, 0
3, 59040, Note_on_c, 1, 76, 44
3, 59100, Note_on_c, 1, 76, 0
3, 60960, Note_on_c, 1, 69, 86
3, 60960, Note_on_c, 1, 65, 77
3, 61020, Control_c, 1, 7, 98
3, 61022, Control_c, 1, 7, 97
3, 61024, Control_c, 1, 7, 96
3, 61026, Control_c, 1, 7, 95
3, 61028, Control_c, 1, 7, 94
3, 61030, Control_c, 1, 7, 93
3, 61032, Control_c, 1, 7, 92
3, 61034, Control_c, 1, 7, 91
3, 61036, Control_c, 1, 7, 90
3, 61038, Control_c, 1, 7, 89
3, 61040, Control_c, 1, 7, 88
3, 61042, Control_c, 1, 7, 87
3, 61044, Control_c, 1, 7, 86
3, 61046, Control_c, 1, 7, 85
3, 61048, Control_c, 1, 7, 84
3, 61050, Control_c, 1, 7, 82
3, 61052, Control_c, 1, 7, 81
3, 61054, Control_c, 1, 7, 80
3, 61056, Control_c, 1, 7, 79
3, 61058, Control_c, 1, 7, 78
3, 61060, Control_c, 1, 7, 77
3, 61062, Control_c, 1, 7, 76
3, 61064, Control_c, 1, 7, 75
3, 61066, Control_c, 1, 7, 74
3, 61068, Control_c, 1, 7, 73
3, 61070, Control_c, 1, 7, 72
3, 61072, Control_c, 1, 7, 71
3, 61074, Control_c, 1, 7, 70
3, 61076, Control_c, 1, 7, 69
3, 61078, Control_c, 1, 7, 68
3, 61080, Control_c, 1, 7, 66
3, 61200, Note_on_c, 1, 65, 0
3, 61200, Note_on_c, 1, 69, 0
3, 61200, Note_on_c, 1, 70, 80
3, 61200, Note_on_c, 1, 67, 86
3, 61440, Note_on_c, 1, 67, 0
3, 61440, Note_on_c, 1, 70, 0
3, 61440, Note_on_c, 1, 69, 81
3, 61440, Note_on_c, 1, 65, 74
3, 61560, Note_on_c, 1, 65, 0
3, 61560, Note_on_c, 1, 69, 0
3, 61680, Note_on_c, 1, 74, 89
3, 61740, Note_on_c, 1, 74, 0
3, 61740, Note_on_c, 1, 72, 65
3, 61800, Note_on_c, 1, 72, 0
3, 61800, Note_on_c, 1, 70, 86
3, 61860, Note_on_c, 1, 70, 0
3, 61860, Note_on_c, 1, 69, 90
3, 61920, Note_on_c, 1, 69, 0
3, 61920, Note_on_c, 1, 67, 74
3, 61920, Note_on_c, 1, 62, 81
3, 61980, Note_on_c, 1, 62, 0
3, 61980, Note_on_c, 1, 67, 0
3, 62040, Note_on_c, 1, 74, 72
3, 62040, Note_on_c, 1, 62, 72
3, 62100, Note_on_c, 1, 62, 0
3, 62100, Note_on_c, 1, 74, 0
3, 62160, Note_on_c, 1, 74, 80
3, 62160, Note_on_c, 1, 62, 73
3, 62220, Note_on_c, 1, 62, 0
3, 62220, Note_on_c, 1, 74, 0
3, 62280, Note_on_c, 1, 74, 80
3, 62280, Note_on_c, 1, 62, 77
3, 62340, Note_on_c, 1, 62, 0
3, 62340, Note_on_c, 1, 74, 0
3, 62400, Control_c, 1, 7, 99
3, 62400, Note_on_c, 1, 74, 85
3, 62400, Note_on_c, 1, 62, 84
3, 62760, Note_on_c, 1, 62, 0
3, 62760, Note_on_c, 1, 74, 0
3, 62880, Note_on_c, 1, 72, 80
3, 62940, Control_c, 1, 7, 99
3, 62942, Control_c, 1, 7, 98
3, 62944, Control_c, 1, 7, 97
3, 62946, Control_c, 1, 7, 96
3, 62948, Control_c, 1, 7, 95
3, 62950, Control_c, 1, 7, 94
3, 62952, Control_c, 1, 7, 93
3, 62954, Control_c, 1, 7, 92
3, 62956, Control_c, 1, 7, 91
3, 62958, Control_c, 1, 7, 90
3, 62960, Control_c, 1, 7, 89
3, 62962, Control_c, 1, 7, 88
3, 62964, Control_c, 1, 7, 87
3, 62966, Control_c, 1, 7, 86
3, 62968, Control_c, 1, 7, 85
3, 62970, Control_c, 1, 7, 84
3, 62972, Control_c, 1, 7, 82
3, 62974, Control_c, 1, 7, 81
3, 62976, Control_c, 1, 7, 80
3, 62978, Control_c, 1, 7, 79
3, 62980, Control_c, 1, 7, 78
3, 62982, Control_c, 1, 7, 77
3, 62984, Control_c, 1, 7, 76
3, 62986, Control_c, 1, 7, 75
3, 62988, Control_c, 1, 7, 74
3, 62990, Control_c, 1, 7, 73
3, 62992, Control_c, 1, 7, 72
3, 62994, Control_c, 1, 7, 71
3, 62996, Control_c, 1, 7, 70
3, 62998, Control_c, 1, 7, 69
3, 63000, Control_c, 1, 7, 68
3, 63002, Control_c, 1, 7, 66
3, 63360, Note_on_c, 1, 72, 0
3, 63360, Note_on_c, 1, 72, 64
3, 63480, Note_on_c, 1, 72, 0
3, 63480, Note_on_c, 1, 81, 89
3, 63510, Note_on_c, 1, 81, 0
3, 63540, Note_on_c, 1, 79, 89
3, 63570, Note_on_c, 1, 79, 0
3, 63600, Note_on_c, 1, 77, 94
3, 63660, Note_on_c, 1, 77, 0
3, 63660, Note_on_c, 1, 76, 95
3, 63720, Note_on_c, 1, 76, 0
3, 63720, Note_on_c, 1, 74, 89
3, 63750, Note_on_c, 1, 74, 0
3, 63780, Note_on_c, 1, 72, 86
3, 63810, Note_on_c, 1, 72, 0
3, 63840, Note_on_c, 1, 71, 99
3, 63900, Note_on_c, 1, 71, 0
3, 63900, Note_on_c, 1, 72, 84
3, 63960, Note_on_c, 1, 72, 0
3, 63960, Note_on_c, 1, 67, 90
3, 63990, Note_on_c, 1, 67, 0
3, 64020, Note_on_c, 1, 72, 89
3, 64050, Note_on_c, 1, 72, 0
3, 64080, Note_on_c, 1, 72, 81
3, 64080, Note_on_c, 1, 69, 74
3, 64140, Note_on_c, 1, 69, 0
3, 64140, Note_on_c, 1, 72, 0
3, 64200, Note_on_c, 1, 72, 76
3, 64260, Note_on_c, 1, 72, 0
3, 64320, Control_c, 1, 7, 66
3, 64320, Note_on_c, 1, 77, 82
3, 64320, Note_on_c, 1, 69, 98
3, 64328, Control_c, 1, 7, 67
3, 64336, Control_c, 1, 7, 68
3, 64344, Control_c, 1, 7, 69
3, 64350, Control_c, 1, 7, 70
3, 64358, Control_c, 1, 7, 71
3, 64366, Control_c, 1, 7, 72
3, 64374, Control_c, 1, 7, 73
3, 64380, Control_c, 1, 7, 74
3, 64388, Control_c, 1, 7, 75
3, 64396, Control_c, 1, 7, 76
3, 64404, Control_c, 1, 7, 77
3, 64410, Control_c, 1, 7, 78
3, 64418, Control_c, 1, 7, 79
3, 64426, Control_c, 1, 7, 80
3, 64434, Control_c, 1, 7, 81
3, 64440, Control_c, 1, 7, 82
3, 64448, Control_c, 1, 7, 83
3, 64456, Control_c, 1, 7, 84
3, 64464, Control_c, 1, 7, 85
3, 64470, Control_c, 1, 7, 86
3, 64478, Control_c, 1, 7, 87
3, 64486, Control_c, 1, 7, 88
3, 64494, Control_c, 1, 7, 89
3, 64500, Control_c, 1, 7, 90
3, 64508, Control_c, 1, 7, 91
3, 64516, Control_c, 1, 7, 92
3, 64524, Control_c, 1, 7, 93
3, 64530, Control_c, 1, 7, 94
3, 64538, Control_c, 1, 7, 95
3, 64546, Control_c, 1, 7, 96
3, 64554, Control_c, 1, 7, 97
3, 64560, Note_on_c, 1, 69, 0
3, 64560, Note_on_c, 1, 77, 0
3, 64560, Control_c, 1, 7, 98
3, 64560, Note_on_c, 1, 76, 84
3, 64560, Note_on_c, 1, 67, 89
3, 64564, Control_c, 1, 7, 97
3, 64568, Control_c, 1, 7, 96
3, 64572, Control_c, 1, 7, 95
3, 64576, Control_c, 1, 7, 94
3, 64580, Control_c, 1, 7, 93
3, 64584, Control_c, 1, 7, 92
3, 64586, Control_c, 1, 7, 91
3, 64590, Control_c, 1, 7, 90
3, 64594, Control_c, 1, 7, 89
3, 64598, Control_c, 1, 7, 88
3, 64602, Control_c, 1, 7, 87
3, 64606, Control_c, 1, 7, 86
3, 64608, Control_c, 1, 7, 85
3, 64612, Control_c, 1, 7, 84
3, 64616, Control_c, 1, 7, 83
3, 64620, Control_c, 1, 7, 82
3, 64624, Control_c, 1, 7, 81
3, 64628, Control_c, 1, 7, 80
3, 64632, Control_c, 1, 7, 79
3, 64634, Control_c, 1, 7, 78
3, 64638, Control_c, 1, 7, 77
3, 64642, Control_c, 1, 7, 76
3, 64646, Control_c, 1, 7, 75
3, 64650, Control_c, 1, 7, 74
3, 64654, Control_c, 1, 7, 73
3, 64656, Control_c, 1, 7, 72
3, 64660, Control_c, 1, 7, 71
3, 64664, Control_c, 1, 7, 70
3, 64668, Control_c, 1, 7, 69
3, 64672, Control_c, 1, 7, 68
3, 64676, Control_c, 1, 7, 67
3, 64678, Control_c, 1, 7, 66
3, 64680, Note_on_c, 1, 67, 0
3, 64680, Note_on_c, 1, 76, 0
3, 64740, Control_c, 1, 7, 99
3, 68520, Note_on_c, 1, 74, 70
3, 68520, Note_on_c, 1, 70, 65
3, 68640, Note_on_c, 1, 70, 0
3, 68640, Note_on_c, 1, 74, 0
3, 68640, Note_on_c, 1, 72, 41
3, 68640, Note_on_c, 1, 69, 64
3, 68700, Note_on_c, 1, 69, 0
3, 68700, Note_on_c, 1, 72, 0
3, 68760, Note_on_c, 1, 69, 45
3, 68760, Note_on_c, 1, 65, 40
3, 68820, Note_on_c, 1, 65, 0
3, 68820, Note_on_c, 1, 69, 0
3, 69000, Note_on_c, 1, 74, 61
3, 69000, Note_on_c, 1, 70, 43
3, 69120, Note_on_c, 1, 70, 0
3, 69120, Note_on_c, 1, 74, 0
3, 69120, Note_on_c, 1, 72, 62
3, 69120, Note_on_c, 1, 69, 46
3, 69180, Note_on_c, 1, 69, 0
3, 69180, Note_on_c, 1, 72, 0
3, 69240, Note_on_c, 1, 69, 70
3, 69240, Note_on_c, 1, 65, 42
3, 69300, Note_on_c, 1, 65, 0
3, 69300, Note_on_c, 1, 69, 0
3, 69360, Note_on_c, 1, 76, 61
3, 69420, Note_on_c, 1, 76, 0
3, 69420, Note_on_c, 1, 77, 57
3, 69480, Note_on_c, 1, 77, 0
3, 69480, Note_on_c, 1, 74, 80
3, 69510, Note_on_c, 1, 74, 0
3, 69540, Note_on_c, 1, 70, 67
3, 69570, Note_on_c, 1, 70, 0
3, 69600, Note_on_c, 1, 71, 64
3, 69660, Note_on_c, 1, 71, 0
3, 69660, Note_on_c, 1, 72, 64
3, 69720, Note_on_c, 1, 72, 0
3, 69720, Note_on_c, 1, 69, 58
3, 69750, Note_on_c, 1, 69, 0
3, 69780, Note_on_c, 1, 65, 73
3, 69810, Note_on_c, 1, 65, 0
3, 69840, Note_on_c, 1, 76, 69
3, 69900, Note_on_c, 1, 76, 0
3, 69900, Note_on_c, 1, 77, 65
3, 69960, Note_on_c, 1, 77, 0
3, 69960, Note_on_c, 1, 74, 62
3, 69990, Note_on_c, 1, 74, 0
3, 70020, Note_on_c, 1, 70, 58
3, 70050, Note_on_c, 1, 70, 0
3, 70080, Note_on_c, 1, 71, 78
3, 70140, Note_on_c, 1, 71, 0
3, 70140, Note_on_c, 1, 72, 59
3, 70200, Note_on_c, 1, 72, 0
3, 70200, Note_on_c, 1, 69, 69
3, 70230, Note_on_c, 1, 69, 0
3, 70260, Note_on_c, 1, 65, 44
3, 70290, Note_on_c, 1, 65, 0
3, 79680, Note_on_c, 1, 72, 45
3, 79710, Note_on_c, 1, 72, 0
3, 79740, Note_on_c, 1, 74, 68
3, 79770, Note_on_c, 1, 74, 0
3, 79800, Note_on_c, 1, 76, 68
3, 79830, Note_on_c, 1, 76, 0
3, 79860, Note_on_c, 1, 77, 64
3, 79890, Note_on_c, 1, 77, 0
3, 79920, Note_on_c, 1, 79, 72
3, 79950, Note_on_c, 1, 79, 0
3, 79980, Note_on_c, 1, 81, 73
3, 80010, Note_on_c, 1, 81, 0
3, 80040, Note_on_c, 1, 82, 72
3, 80070, Note_on_c, 1, 82, 0
3, 80100, Note_on_c, 1, 79, 73
3, 80130, Note_on_c, 1, 79, 0
3, 80160, Note_on_c, 1, 81, 85
3, 80400, Note_on_c, 1, 81, 0
3, 80400, Note_on_c, 1, 79, 93
3, 80640, Note_on_c, 1, 79, 0
3, 80640, Note_on_c, 1, 77, 71
3, 80760, Note_on_c, 1, 77, 0
3, 85680, Note_on_c, 1, 68, 89
3, 85680, Note_on_c, 1, 71, 94
3, 85920, Note_on_c, 1, 71, 0
3, 85920, Note_on_c, 1, 68, 0
3, 85920, Note_on_c, 1, 72, 50
3, 85920, Note_on_c, 1, 69, 94
3, 85980, Note_on_c, 1, 69, 0
3, 85980, Note_on_c, 1, 72, 0
3, 86640, Note_on_c, 1, 71, 94
3, 86640, Note_on_c, 1, 77, 82
3, 86880, Note_on_c, 1, 77, 0
3, 86880, Note_on_c, 1, 71, 0
3, 86880, Note_on_c, 1, 77, 78
3, 86880, Note_on_c, 1, 72, 64
3, 86940, Note_on_c, 1, 72, 0
3, 86940, Note_on_c, 1, 77, 0
3, 87600, Note_on_c, 1, 71, 99
3, 87600, Note_on_c, 1, 80, 84
3, 87840, Note_on_c, 1, 80, 0
3, 87840, Note_on_c, 1, 71, 0
3, 87840, Note_on_c, 1, 81, 74
3, 87840, Note_on_c, 1, 72, 58
3, 87900, Note_on_c, 1, 72, 0
3, 87900, Note_on_c, 1, 81, 0
3, 94560, Note_on_c, 1, 69, 84
3, 94560, Note_on_c, 1, 77, 73
3, 95040, Note_on_c, 1, 77, 0
3, 95040, Note_on_c, 1, 69, 0
3, 95160, Note_on_c, 1, 77, 63
3, 95160, Note_on_c, 1, 69, 72
3, 95220, Note_on_c, 1, 69, 0
3, 95220, Note_on_c, 1, 77, 0
3, 95280, Note_on_c, 1, 77, 68
3, 95280, Note_on_c, 1, 69, 78
3, 95340, Note_on_c, 1, 69, 0
3, 95340, Note_on_c, 1, 77, 0
3, 95400, Note_on_c, 1, 77, 72
3, 95400, Note_on_c, 1, 69, 84
3, 95460, Note_on_c, 1, 69, 0
3, 95460, Note_on_c, 1, 77, 0
3, 95520, Note_on_c, 1, 70, 86
3, 95520, Note_on_c, 1, 76, 85
3, 96000, Note_on_c, 1, 76, 0
3, 96000, Note_on_c, 1, 70, 0
3, 96120, Note_on_c, 1, 76, 73
3, 96120, Note_on_c, 1, 70, 80
3, 96180, Note_on_c, 1, 70, 0
3, 96180, Note_on_c, 1, 76, 0
3, 96240, Note_on_c, 1, 76, 73
3, 96240, Note_on_c, 1, 70, 73
3, 96300, Note_on_c, 1, 70, 0
3, 96300, Note_on_c, 1, 76, 0
3, 96360, Note_on_c, 1, 76, 74
3, 96360, Note_on_c, 1, 70, 76
3, 96420, Note_on_c, 1, 70, 0
3, 96420, Note_on_c, 1, 76, 0
3, 96480, Note_on_c, 1, 75, 84
3, 96480, Note_on_c, 1, 72, 80
3, 96960, Note_on_c, 1, 72, 0
3, 96960, Note_on_c, 1, 75, 0
3, 96960, Note_on_c, 1, 75, 74
3, 96960, Note_on_c, 1, 72, 60
3, 97080, Note_on_c, 1, 72, 0
3, 97080, Note_on_c, 1, 75, 0
3, 97440, Note_on_c, 1, 75, 80
3, 97440, Note_on_c, 1, 72, 46
3, 97680, Note_on_c, 1, 72, 0
3, 97680, Note_on_c, 1, 75, 0
3, 97680, Note_on_c, 1, 74, 80
3, 97680, Note_on_c, 1, 70, 80
3, 97800, Note_on_c, 1, 70, 0
3, 97800, Note_on_c, 1, 74, 0
3, 97920, Note_on_c, 1, 76, 77
3, 97920, Note_on_c, 1, 70, 82
3, 98160, Note_on_c, 1, 70, 0
3, 98160, Note_on_c, 1, 76, 0
3, 98160, Note_on_c, 1, 77, 61
3, 98160, Note_on_c, 1, 69, 81
3, 98280, Note_on_c, 1, 69, 0
3, 98280, Note_on_c, 1, 77, 0
3, 98400, Note_on_c, 1, 74, 94
3, 98400, Note_on_c, 1, 68, 74
3, 98640, Note_on_c, 1, 68, 0
3, 98640, Note_on_c, 1, 74, 0
3, 98640, Note_on_c, 1, 77, 84
3, 98640, Note_on_c, 1, 67, 80
3, 98880, Note_on_c, 1, 67, 0
3, 98880, Note_on_c, 1, 69, 80
3, 99120, Note_on_c, 1, 69, 0
3, 99120, Note_on_c, 1, 77, 0
3, 99120, Note_on_c, 1, 76, 90
3, 99120, Note_on_c, 1, 70, 76
3, 99360, Note_on_c, 1, 70, 0
3, 99360, Note_on_c, 1, 76, 0
3, 99360, Note_on_c, 1, 77, 71
3, 99360, Note_on_c, 1, 69, 84
3, 99480, Note_on_c, 1, 69, 0
3, 99480, Note_on_c, 1, 77, 0
3, 100440, Note_on_c, 1, 77, 53
3, 100440, Note_on_c, 1, 69, 65
3, 100530, Note_on_c, 1, 69, 0
3, 100530, Note_on_c, 1, 77, 0
3, 100560, Note_on_c, 1, 77, 62
3, 100560, Note_on_c, 1, 69, 61
3, 100650, Note_on_c, 1, 69, 0
3, 100650, Note_on_c, 1, 77, 0
3, 100680, Note_on_c, 1, 77, 57
3, 100680, Note_on_c, 1, 69, 63
3, 100770, Note_on_c, 1, 69, 0
3, 100770, Note_on_c, 1, 77, 0
3, 100800, Note_on_c, 1, 70, 95
3, 100800, Control_c, 1, 7, 70
3, 100800, Note_on_c, 1, 76, 95
3, 100978, Control_c, 1, 7, 70
3, 100980, Note_on_c, 1, 76, 0
3, 100980, Note_on_c, 1, 77, 95
3, 100988, Control_c, 1, 7, 71
3, 100996, Control_c, 1, 7, 72
3, 101006, Control_c, 1, 7, 73
3, 101014, Control_c, 1, 7, 74
3, 101024, Control_c, 1, 7, 75
3, 101032, Control_c, 1, 7, 76
3, 101040, Note_on_c, 1, 77, 0
3, 101040, Note_on_c, 1, 79, 89
3, 101042, Control_c, 1, 7, 77
3, 101050, Control_c, 1, 7, 78
3, 101060, Control_c, 1, 7, 79
3, 101068, Control_c, 1, 7, 80
3, 101078, Control_c, 1, 7, 81
3, 101086, Control_c, 1, 7, 82
3, 101096, Control_c, 1, 7, 83
3, 101100, Note_on_c, 1, 79, 0
3, 101100, Note_on_c, 1, 81, 90
3, 101104, Control_c, 1, 7, 84
3, 101114, Control_c, 1, 7, 85
3, 101122, Control_c, 1, 7, 86
3, 101132, Control_c, 1, 7, 87
3, 101140, Control_c, 1, 7, 88
3, 101150, Control_c, 1, 7, 89
3, 101158, Control_c, 1, 7, 90
3, 101160, Note_on_c, 1, 81, 0
3, 101160, Note_on_c, 1, 82, 84
3, 101168, Control_c, 1, 7, 91
3, 101176, Control_c, 1, 7, 92
3, 101186, Control_c, 1, 7, 93
3, 101194, Control_c, 1, 7, 94
3, 101202, Control_c, 1, 7, 95
3, 101220, Note_on_c, 1, 82, 0
3, 101220, Note_on_c, 1, 79, 86
3, 101280, Note_on_c, 1, 79, 0
3, 101280, Note_on_c, 1, 70, 0
3, 101280, Control_c, 1, 7, 71
3, 101280, Note_on_c, 1, 77, 82
3, 101280, Note_on_c, 1, 69, 98
3, 101400, Note_on_c, 1, 69, 0
3, 101400, Note_on_c, 1, 77, 0
3, 101474, Control_c, 1, 7, 99
3, 101520, Note_on_c, 1, 81, 80
3, 101520, Note_on_c, 1, 72, 65
3, 101640, Note_on_c, 1, 72, 0
3, 101640, Note_on_c, 1, 81, 0
3, 101760, Note_on_c, 1, 77, 80
3, 101760, Note_on_c, 1, 69, 95
3, 101880, Note_on_c, 1, 69, 0
3, 101880, Note_on_c, 1, 77, 0
3, 108960, Note_on_c, 1, 74, 74
3, 108960, Note_on_c, 1, 62, 63
3, 109080, Note_on_c, 1, 62, 0
3, 109080, Note_on_c, 1, 74, 0
3, 109200, Note_on_c, 1, 74, 80
3, 109200, Note_on_c, 1, 62, 68
3, 109320, Note_on_c, 1, 62, 0
3, 109320, Note_on_c, 1, 74, 0
3, 109440, Note_on_c, 1, 74, 73
3, 109440, Note_on_c, 1, 62, 50
3, 109560, Note_on_c, 1, 62, 0
3, 109560, Note_on_c, 1, 74, 0
3, 110880, Note_on_c, 1, 75, 61
3, 110880, Note_on_c, 1, 67, 80
3, 110940, Control_c, 1, 7, 99
3, 110942, Control_c, 1, 7, 98
3, 110944, Control_c, 1, 7, 97
3, 110946, Control_c, 1, 7, 96
3, 110948, Control_c, 1, 7, 95
3, 110950, Control_c, 1, 7, 94
3, 110952, Control_c, 1, 7, 93
3, 110954, Control_c, 1, 7, 92
3, 110956, Control_c, 1, 7, 91
3, 110958, Control_c, 1, 7, 90
3, 110960, Control_c, 1, 7, 89
3, 110962, Control_c, 1, 7, 88
3, 110964, Control_c, 1, 7, 87
3, 110966, Control_c, 1, 7, 86
3, 110968, Control_c, 1, 7, 85
3, 110970, Control_c, 1, 7, 84
3, 110972, Control_c, 1, 7, 83
3, 110974, Control_c, 1, 7, 82
3, 110976, Control_c, 1, 7, 81
3, 110978, Control_c, 1, 7, 80
3, 110980, Control_c, 1, 7, 79
3, 110982, Control_c, 1, 7, 78
3, 110984, Control_c, 1, 7, 77
3, 110986, Control_c, 1, 7, 76
3, 110988, Control_c, 1, 7, 75
3, 110990, Control_c, 1, 7, 74
3, 110992, Control_c, 1, 7, 73
3, 110994, Control_c, 1, 7, 72
3, 110996, Control_c, 1, 7, 71
3, 110998, Control_c, 1, 7, 70
3, 111000, Control_c, 1, 7, 68
3, 111360, Note_on_c, 1, 67, 0
3, 111360, Note_on_c, 1, 75, 0
3, 111360, Note_on_c, 1, 75, 71
3, 111360, Note_on_c, 1, 67, 77
3, 111840, Note_on_c, 1, 67, 0
3, 111840, Note_on_c, 1, 75, 0
3, 111840, Note_on_c, 1, 75, 68
3, 111840, Note_on_c, 1, 65, 86
3, 111840, Control_c, 1, 7, 99
3, 111900, Control_c, 1, 7, 99
3, 111902, Control_c, 1, 7, 98
3, 111904, Control_c, 1, 7, 97
3, 111906, Control_c, 1, 7, 96
3, 111908, Control_c, 1, 7, 95
3, 111910, Control_c, 1, 7, 94
3, 111912, Control_c, 1, 7, 93
3, 111914, Control_c, 1, 7, 92
3, 111916, Control_c, 1, 7, 91
3, 111918, Control_c, 1, 7, 90
3, 111920, Control_c, 1, 7, 89
3, 111922, Control_c, 1, 7, 88
3, 111924, Control_c, 1, 7, 87
3, 111926, Control_c, 1, 7, 86
3, 111928, Control_c, 1, 7, 85
3, 111930, Control_c, 1, 7, 84
3, 111932, Control_c, 1, 7, 83
3, 111934, Control_c, 1, 7, 82
3, 111936, Control_c, 1, 7, 81
3, 111938, Control_c, 1, 7, 80
3, 111940, Control_c, 1, 7, 79
3, 111942, Control_c, 1, 7, 78
3, 111944, Control_c, 1, 7, 77
3, 111946, Control_c, 1, 7, 76
3, 111948, Control_c, 1, 7, 75
3, 111950, Control_c, 1, 7, 74
3, 111952, Control_c, 1, 7, 73
3, 111954, Control_c, 1, 7, 72
3, 111956, Control_c, 1, 7, 71
3, 111958, Control_c, 1, 7, 70
3, 111960, Control_c, 1, 7, 69
3, 111962, Control_c, 1, 7, 68
3, 112320, Note_on_c, 1, 65, 0
3, 112320, Note_on_c, 1, 75, 0
3, 112320, Note_on_c, 1, 74, 72
3, 112320, Note_on_c, 1, 65, 72
3, 112800, Note_on_c, 1, 65, 0
3, 112800, Note_on_c, 1, 74, 0
3, 112800, Note_on_c, 1, 75, 67
3, 112800, Note_on_c, 1, 67, 85
3, 112920, Note_on_c, 1, 67, 0
3, 112920, Note_on_c, 1, 75, 0
3, 113040, Control_c, 1, 7, 99
3, 117660, Note_on_c, 1, 70, 60
3, 117690, Note_on_c, 1, 70, 0
3, 117720, Note_on_c, 1, 70, 58
3, 117750, Note_on_c, 1, 70, 0
3, 117780, Note_on_c, 1, 70, 56
3, 117810, Note_on_c, 1, 70, 0
3, 117840, Note_on_c, 1, 70, 46
3, 117870, Note_on_c, 1, 70, 0
3, 117900, Note_on_c, 1, 70, 45
3, 117930, Note_on_c, 1, 70, 0
3, 117960, Note_on_c, 1, 70, 62
3, 117990, Note_on_c, 1, 70, 0
3, 118020, Note_on_c, 1, 70, 55
3, 118050, Note_on_c, 1, 70, 0
3, 118080, Note_on_c, 1, 75, 53
3, 118200, Note_on_c, 1, 75, 0
3, 118620, Note_on_c, 1, 75, 38
3, 118620, Note_on_c, 1, 70, 52
3, 118650, Note_on_c, 1, 70, 0
3, 118650, Note_on_c, 1, 75, 0
3, 118680, Note_on_c, 1, 75, 46
3, 118680, Note_on_c, 1, 70, 64
3, 118710, Note_on_c, 1, 70, 0
3, 118710, Note_on_c, 1, 75, 0
3, 118740, Note_on_c, 1, 75, 45
3, 118740, Note_on_c, 1, 70, 61
3, 118770, Note_on_c, 1, 70, 0
3, 118770, Note_on_c, 1, 75, 0
3, 118800, Note_on_c, 1, 75, 43
3, 118800, Note_on_c, 1, 70, 52
3, 118830, Note_on_c, 1, 70, 0
3, 118830, Note_on_c, 1, 75, 0
3, 118860, Note_on_c, 1, 75, 43
3, 118860, Note_on_c, 1, 70, 53
3, 118890, Note_on_c, 1, 70, 0
3, 118890, Note_on_c, 1, 75, 0
3, 118920, Note_on_c, 1, 75, 40
3, 118920, Note_on_c, 1, 70, 43
3, 118950, Note_on_c, 1, 70, 0
3, 118950, Note_on_c, 1, 75, 0
3, 118980, Note_on_c, 1, 77, 46
3, 118980, Note_on_c, 1, 68, 50
3, 119010, Note_on_c, 1, 68, 0
3, 119010, Note_on_c, 1, 77, 0
3, 119040, Note_on_c, 1, 79, 42
3, 119040, Note_on_c, 1, 67, 38
3, 119160, Note_on_c, 1, 67, 0
3, 119160, Note_on_c, 1, 79, 0
3, 119580, Note_on_c, 1, 77, 42
3, 119580, Note_on_c, 1, 67, 42
3, 119610, Note_on_c, 1, 67, 0
3, 119610, Note_on_c, 1, 77, 0
3, 119640, Note_on_c, 1, 77, 42
3, 119640, Note_on_c, 1, 67, 38
3, 119670, Note_on_c, 1, 67, 0
3, 119670, Note_on_c, 1, 77, 0
3, 119700, Note_on_c, 1, 77, 43
3, 119700, Note_on_c, 1, 67, 41
3, 119730, Note_on_c, 1, 67, 0
3, 119730, Note_on_c, 1, 77, 0
3, 119760, Note_on_c, 1, 77, 40
3, 119760, Note_on_c, 1, 67, 33
3, 119790, Note_on_c, 1, 67, 0
3, 119790, Note_on_c, 1, 77, 0
3, 119820, Note_on_c, 1, 77, 50
3, 119820, Note_on_c, 1, 67, 43
3, 119850, Note_on_c, 1, 67, 0
3, 119850, Note_on_c, 1, 77, 0
3, 119880, Note_on_c, 1, 77, 44
3, 119880, Note_on_c, 1, 67, 41
3, 119910, Note_on_c, 1, 67, 0
3, 119910, Note_on_c, 1, 77, 0
3, 119940, Note_on_c, 1, 75, 42
3, 119940, Note_on_c, 1, 67, 58
3, 119970, Note_on_c, 1, 67, 0
3, 119970, Note_on_c, 1, 75, 0
3, 120000, Note_on_c, 1, 74, 43
3, 120000, Note_on_c, 1, 67, 42
3, 120120, Note_on_c, 1, 67, 0
3, 120120, Note_on_c, 1, 74, 0
3, 120540, Note_on_c, 1, 83, 43
3, 120540, Note_on_c, 1, 79, 41
3, 120570, Note_on_c, 1, 79, 0
3, 120570, Note_on_c, 1, 83, 0
3, 120600, Note_on_c, 1, 83, 41
3, 120600, Note_on_c, 1, 79, 40
3, 120630, Note_on_c, 1, 79, 0
3, 120630, Note_on_c, 1, 83, 0
3, 120660, Note_on_c, 1, 83, 43
3, 120660, Note_on_c, 1, 79, 44
3, 120690, Note_on_c, 1, 79, 0
3, 120690, Note_on_c, 1, 83, 0
3, 120720, Note_on_c, 1, 83, 46
3, 120720, Note_on_c, 1, 79, 46
3, 120750, Note_on_c, 1, 79, 0
3, 120750, Note_on_c, 1, 83, 0
3, 120780, Note_on_c, 1, 83, 41
3, 120780, Note_on_c, 1, 79, 41
3, 120810, Note_on_c, 1, 79, 0
3, 120810, Note_on_c, 1, 83, 0
3, 120840, Note_on_c, 1, 83, 40
3, 120840, Note_on_c, 1, 79, 44
3, 120870, Note_on_c, 1, 79, 0
3, 120870, Note_on_c, 1, 83, 0
3, 120900, Note_on_c, 1, 84, 45
3, 120900, Note_on_c, 1, 79, 43
3, 120930, Note_on_c, 1, 79, 0
3, 120930, Note_on_c, 1, 84, 0
3, 120960, Note_on_c, 1, 86, 41
3, 120960, Note_on_c, 1, 79, 45
3, 121080, Note_on_c, 1, 79, 0
3, 121080, Note_on_c, 1, 86, 0
3, 121920, Control_c, 1, 7, 89
3, 122160, Note_on_c, 1, 67, 50
3, 122220, Note_on_c, 1, 67, 0
3, 122280, Note_on_c, 1, 67, 58
3, 122340, Note_on_c, 1, 67, 0
3, 122400, Note_on_c, 1, 71, 52
3, 122400, Note_on_c, 1, 67, 55
3, 122460, Note_on_c, 1, 67, 0
3, 122460, Note_on_c, 1, 71, 0
3, 123120, Note_on_c, 1, 71, 43
3, 123120, Note_on_c, 1, 67, 40
3, 123180, Note_on_c, 1, 67, 0
3, 123180, Note_on_c, 1, 71, 0
3, 123240, Note_on_c, 1, 71, 43
3, 123240, Note_on_c, 1, 67, 40
3, 123300, Note_on_c, 1, 67, 0
3, 123300, Note_on_c, 1, 71, 0
3, 123360, Note_on_c, 1, 73, 44
3, 123360, Note_on_c, 1, 70, 54
3, 123420, Note_on_c, 1, 70, 0
3, 123420, Note_on_c, 1, 73, 0
3, 124320, Control_c, 1, 7, 99
3, 131880, Note_on_c, 1, 73, 45
3, 131880, Note_on_c, 1, 70, 45
3, 132000, Note_on_c, 1, 70, 0
3, 132000, Note_on_c, 1, 73, 0
3, 132000, Note_on_c, 1, 72, 29
3, 132000, Note_on_c, 1, 69, 45
3, 132120, Note_on_c, 1, 69, 0
3, 132120, Note_on_c, 1, 72, 0
3, 132360, Note_on_c, 1, 73, 53
3, 132360, Note_on_c, 1, 70, 42
3, 132480, Note_on_c, 1, 70, 0
3, 132480, Note_on_c, 1, 73, 0
3, 132480, Note_on_c, 1, 72, 29
3, 132480, Note_on_c, 1, 69, 42
3, 132600, Note_on_c, 1, 69, 0
3, 132600, Note_on_c, 1, 72, 0
3, 132720, Note_on_c, 1, 72, 29
3, 132720, Note_on_c, 1, 69, 44
3, 132840, Note_on_c, 1, 69, 0
3, 132840, Note_on_c, 1, 72, 0
3, 132960, Note_on_c, 1, 72, 29
3, 132960, Note_on_c, 1, 69, 44
3, 133080, Note_on_c, 1, 69, 0
3, 133080, Note_on_c, 1, 72, 0
3, 133440, Note_on_c, 1, 72, 29
3, 133440, Note_on_c, 1, 69, 45
3, 133560, Note_on_c, 1, 69, 0
3, 133560, Note_on_c, 1, 72, 0
3, 133920, Note_on_c, 1, 75, 43
3, 133920, Note_on_c, 1, 72, 29
3, 134040, Note_on_c, 1, 72, 0
3, 134040, Note_on_c, 1, 75, 0
3, 135340, Control_c, 1, 7, 54
3, 135360, Note_on_c, 1, 81, 81
3, 135840, Note_on_c, 1, 81, 0
3, 135840, Note_on_c, 1, 81, 82
3, 135840, Note_on_c, 1, 77, 80
3, 135840, Control_c, 1, 7, 54
3, 135852, Control_c, 1, 7, 55
3, 135862, Control_c, 1, 7, 56
3, 135872, Control_c, 1, 7, 57
3, 135884, Control_c, 1, 7, 58
3, 135894, Control_c, 1, 7, 59
3, 135904, Control_c, 1, 7, 60
3, 135916, Control_c, 1, 7, 61
3, 135926, Control_c, 1, 7, 62
3, 135936, Control_c, 1, 7, 63
3, 135948, Control_c, 1, 7, 64
3, 135958, Control_c, 1, 7, 65
3, 135968, Control_c, 1, 7, 66
3, 135980, Control_c, 1, 7, 67
3, 135990, Control_c, 1, 7, 68
3, 136000, Control_c, 1, 7, 69
3, 136012, Control_c, 1, 7, 70
3, 136022, Control_c, 1, 7, 71
3, 136032, Control_c, 1, 7, 72
3, 136044, Control_c, 1, 7, 73
3, 136054, Control_c, 1, 7, 74
3, 136064, Control_c, 1, 7, 75
3, 136076, Control_c, 1, 7, 76
3, 136086, Control_c, 1, 7, 77
3, 136096, Control_c, 1, 7, 78
3, 136108, Control_c, 1, 7, 79
3, 136118, Control_c, 1, 7, 80
3, 136128, Control_c, 1, 7, 81
3, 136140, Control_c, 1, 7, 82
3, 136150, Control_c, 1, 7, 83
3, 136160, Control_c, 1, 7, 84
3, 136172, Control_c, 1, 7, 85
3, 136182, Control_c, 1, 7, 86
3, 136192, Control_c, 1, 7, 87
3, 136204, Control_c, 1, 7, 88
3, 136214, Control_c, 1, 7, 89
3, 136224, Control_c, 1, 7, 90
3, 136236, Control_c, 1, 7, 91
3, 136246, Control_c, 1, 7, 92
3, 136256, Control_c, 1, 7, 93
3, 136268, Control_c, 1, 7, 94
3, 136278, Control_c, 1, 7, 95
3, 136288, Control_c, 1, 7, 96
3, 136300, Control_c, 1, 7, 97
3, 136310, Control_c, 1, 7, 98
3, 136320, Note_on_c, 1, 77, 0
3, 136320, Note_on_c, 1, 81, 0
3, 136320, Note_on_c, 1, 82, 63
3, 136320, Note_on_c, 1, 74, 94
3, 136320, Control_c, 1, 7, 99
3, 136500, Note_on_c, 1, 74, 0
3, 136500, Note_on_c, 1, 82, 0
3, 136530, Note_on_c, 1, 70, 77
3, 136560, Note_on_c, 1, 70, 0
3, 136560, Note_on_c, 1, 77, 84
3, 136605, Note_on_c, 1, 77, 0
3, 136650, Note_on_c, 1, 77, 81
3, 136665, Note_on_c, 1, 77, 0
3, 136680, Note_on_c, 1, 74, 95
3, 136725, Note_on_c, 1, 74, 0
3, 136770, Note_on_c, 1, 74, 93
3, 136785, Note_on_c, 1, 74, 0
3, 136800, Note_on_c, 1, 70, 93
3, 136860, Note_on_c, 1, 70, 0
3, 136920, Note_on_c, 1, 77, 76
3, 136920, Note_on_c, 1, 65, 81
3, 136980, Note_on_c, 1, 65, 0
3, 136980, Note_on_c, 1, 77, 0
3, 137040, Note_on_c, 1, 74, 68
3, 137040, Note_on_c, 1, 62, 53
3, 137100, Note_on_c, 1, 62, 0
3, 137100, Note_on_c, 1, 74, 0
3, 137160, Note_on_c, 1, 70, 66
3, 137220, Note_on_c, 1, 70, 0
3, 137280, Note_on_c, 1, 65, 60
3, 137400, Note_on_c, 1, 65, 0
3, 137732, Control_c, 1, 7, 63
3, 137760, Control_c, 1, 7, 63
3, 137760, Note_on_c, 1, 75, 61
3, 137760, Note_on_c, 1, 69, 80
3, 137774, Control_c, 1, 7, 64
3, 137788, Control_c, 1, 7, 65
3, 137800, Control_c, 1, 7, 66
3, 137814, Control_c, 1, 7, 67
3, 137828, Control_c, 1, 7, 68
3, 137840, Control_c, 1, 7, 69
3, 137854, Control_c, 1, 7, 70
3, 137868, Control_c, 1, 7, 71
3, 137880, Control_c, 1, 7, 72
3, 137894, Control_c, 1, 7, 73
3, 137908, Control_c, 1, 7, 74
3, 137920, Control_c, 1, 7, 75
3, 137934, Control_c, 1, 7, 76
3, 137948, Control_c, 1, 7, 77
3, 137960, Control_c, 1, 7, 78
3, 137974, Control_c, 1, 7, 79
3, 137988, Control_c, 1, 7, 80
3, 138000, Note_on_c, 1, 69, 0
3, 138000, Note_on_c, 1, 75, 0
3, 138000, Note_on_c, 1, 74, 78
3, 138000, Note_on_c, 1, 70, 68
3, 138000, Control_c, 1, 7, 81
3, 138014, Control_c, 1, 7, 82
3, 138028, Control_c, 1, 7, 83
3, 138040, Control_c, 1, 7, 84
3, 138054, Control_c, 1, 7, 85
3, 138068, Control_c, 1, 7, 86
3, 138080, Control_c, 1, 7, 87
3, 138094, Control_c, 1, 7, 88
3, 138108, Control_c, 1, 7, 89
3, 138120, Control_c, 1, 7, 90
3, 138134, Control_c, 1, 7, 91
3, 138148, Control_c, 1, 7, 92
3, 138160, Control_c, 1, 7, 93
3, 138174, Control_c, 1, 7, 94
3, 138188, Control_c, 1, 7, 95
3, 138200, Control_c, 1, 7, 96
3, 138214, Control_c, 1, 7, 97
3, 138228, Control_c, 1, 7, 98
3, 138240, Note_on_c, 1, 70, 0
3, 138240, Note_on_c, 1, 74, 0
3, 138240, Control_c, 1, 7, 99
3, 138240, Note_on_c, 1, 75, 80
3, 138420, Note_on_c, 1, 75, 0
3, 138450, Note_on_c, 1, 77, 68
3, 138450, Note_on_c, 1, 65, 69
3, 138480, Note_on_c, 1, 65, 0
3, 138480, Note_on_c, 1, 77, 0
3, 138480, Note_on_c, 1, 84, 57
3, 138480, Note_on_c, 1, 72, 33
3, 138525, Note_on_c, 1, 72, 0
3, 138525, Note_on_c, 1, 84, 0
3, 138570, Note_on_c, 1, 84, 57
3, 138570, Note_on_c, 1, 72, 35
3, 138585, Note_on_c, 1, 72, 0
3, 138585, Note_on_c, 1, 84, 0
3, 138600, Note_on_c, 1, 81, 74
3, 138600, Note_on_c, 1, 69, 72
3, 138645, Note_on_c, 1, 69, 0
3, 138645, Note_on_c, 1, 81, 0
3, 138690, Note_on_c, 1, 81, 66
3, 138690, Note_on_c, 1, 69, 64
3, 138705, Note_on_c, 1, 69, 0
3, 138705, Note_on_c, 1, 81, 0
3, 138720, Note_on_c, 1, 77, 68
3, 138720, Note_on_c, 1, 65, 73
3, 138780, Note_on_c, 1, 65, 0
3, 138780, Note_on_c, 1, 77, 0
3, 138840, Note_on_c, 1, 75, 84
3, 138900, Note_on_c, 1, 75, 0
3, 138960, Note_on_c, 1, 72, 53
3, 139020, Note_on_c, 1, 72, 0
3, 139080, Note_on_c, 1, 69, 67
3, 139140, Note_on_c, 1, 69, 0
3, 139200, Note_on_c, 1, 70, 46
3, 139320, Note_on_c, 1, 70, 0
3, 139680, Control_c, 1, 7, 99
3, 139680, Note_on_c, 1, 77, 45
3, 139680, Note_on_c, 1, 70, 62
3, 139692, Control_c, 1, 7, 100
3, 139702, Control_c, 1, 7, 101
3, 139712, Control_c, 1, 7, 102
3, 139722, Control_c, 1, 7, 103
3, 139734, Control_c, 1, 7, 104
3, 139744, Control_c, 1, 7, 105
3, 139754, Control_c, 1, 7, 106
3, 139764, Control_c, 1, 7, 107
3, 139774, Control_c, 1, 7, 108
3, 139786, Control_c, 1, 7, 109
3, 139796, Control_c, 1, 7, 110
3, 139806, Control_c, 1, 7, 111
3, 139816, Control_c, 1, 7, 112
3, 139828, Control_c, 1, 7, 113
3, 139838, Control_c, 1, 7, 114
3, 139848, Control_c, 1, 7, 115
3, 139858, Control_c, 1, 7, 116
3, 139868, Control_c, 1, 7, 117
3, 139880, Control_c, 1, 7, 118
3, 139890, Control_c, 1, 7, 119
3, 139900, Control_c, 1, 7, 120
3, 139910, Control_c, 1, 7, 121
3, 139920, Note_on_c, 1, 70, 0
3, 139920, Note_on_c, 1, 77, 0
3, 139920, Note_on_c, 1, 81, 52
3, 139920, Control_c, 1, 7, 122
3, 139932, Control_c, 1, 7, 121
3, 139942, Control_c, 1, 7, 120
3, 139952, Control_c, 1, 7, 119
3, 139962, Control_c, 1, 7, 118
3, 139974, Control_c, 1, 7, 117
3, 139984, Control_c, 1, 7, 116
3, 139994, Control_c, 1, 7, 115
3, 140004, Control_c, 1, 7, 114
3, 140014, Control_c, 1, 7, 113
3, 140026, Control_c, 1, 7, 112
3, 140036, Control_c, 1, 7, 111
3, 140046, Control_c, 1, 7, 110
3, 140056, Control_c, 1, 7, 109
3, 140068, Control_c, 1, 7, 108
3, 140078, Control_c, 1, 7, 107
3, 140088, Control_c, 1, 7, 106
3, 140098, Control_c, 1, 7, 105
3, 140108, Control_c, 1, 7, 104
3, 140120, Control_c, 1, 7, 103
3, 140130, Control_c, 1, 7, 102
3, 140140, Control_c, 1, 7, 101
3, 140150, Control_c, 1, 7, 100
3, 140160, Note_on_c, 1, 81, 0
3, 140160, Control_c, 1, 7, 99
3, 140160, Note_on_c, 1, 82, 33
3, 140160, Note_on_c, 1, 74, 53
3, 140280, Note_on_c, 1, 74, 0
3, 140280, Note_on_c, 1, 82, 0
3, 149280, Note_on_c, 1, 74, 70
3, 149280, Note_on_c, 1, 70, 68
3, 149340, Control_c, 1, 7, 99
3, 149342, Control_c, 1, 7, 98
3, 149344, Control_c, 1, 7, 97
3, 149346, Control_c, 1, 7, 96
3, 149348, Control_c, 1, 7, 95
3, 149350, Control_c, 1, 7, 93
3, 149352, Control_c, 1, 7, 92
3, 149354, Control_c, 1, 7, 91
3, 149356, Control_c, 1, 7, 90
3, 149358, Control_c, 1, 7, 89
3, 149360, Control_c, 1, 7, 87
3, 149362, Control_c, 1, 7, 86
3, 149364, Control_c, 1, 7, 85
3, 149366, Control_c, 1, 7, 84
3, 149368, Control_c, 1, 7, 83
3, 149370, Control_c, 1, 7, 81
3, 149372, Control_c, 1, 7, 80
3, 149374, Control_c, 1, 7, 79
3, 149376, Control_c, 1, 7, 78
3, 149378, Control_c, 1, 7, 77
3, 149380, Control_c, 1, 7, 75
3, 149382, Control_c, 1, 7, 74
3, 149384, Control_c, 1, 7, 73
3, 149386, Control_c, 1, 7, 72
3, 149388, Control_c, 1, 7, 71
3, 149390, Control_c, 1, 7, 69
3, 149392, Control_c, 1, 7, 68
3, 149394, Control_c, 1, 7, 67
3, 149396, Control_c, 1, 7, 66
3, 149398, Control_c, 1, 7, 65
3, 149400, Control_c, 1, 7, 63
3, 149520, Note_on_c, 1, 70, 0
3, 149520, Note_on_c, 1, 74, 0
3, 149520, Note_on_c, 1, 75, 33
3, 149520, Note_on_c, 1, 69, 43
3, 149520, Control_c, 1, 7, 99
3, 149760, Note_on_c, 1, 69, 0
3, 149760, Note_on_c, 1, 75, 0
3, 149760, Note_on_c, 1, 74, 42
3, 149760, Note_on_c, 1, 70, 44
3, 149880, Note_on_c, 1, 70, 0
3, 149880, Note_on_c, 1, 74, 0
3, 150240, Note_on_c, 1, 72, 50
3, 150240, Note_on_c, 1, 67, 43
3, 150300, Note_on_c, 1, 67, 0
3, 150300, Note_on_c, 1, 72, 0
3, 150360, Note_on_c, 1, 72, 59
3, 150360, Note_on_c, 1, 67, 41
3, 150420, Note_on_c, 1, 67, 0
3, 150420, Note_on_c, 1, 72, 0
3, 150480, Note_on_c, 1, 72, 64
3, 150480, Note_on_c, 1, 67, 39
3, 150540, Note_on_c, 1, 67, 0
3, 150540, Note_on_c, 1, 72, 0
3, 150600, Note_on_c, 1, 74, 45
3, 150600, Note_on_c, 1, 71, 58
3, 150660, Note_on_c, 1, 71, 0
3, 150660, Note_on_c, 1, 74, 0
3, 150720, Note_on_c, 1, 77, 68
3, 150720, Note_on_c, 1, 74, 84
3, 150960, Note_on_c, 1, 74, 0
3, 150960, Note_on_c, 1, 77, 0
3, 150960, Note_on_c, 1, 75, 44
3, 151080, Note_on_c, 1, 75, 0
3, 151200, Note_on_c, 1, 69, 77
3, 151200, Note_on_c, 1, 65, 81
3, 151260, Control_c, 1, 7, 99
3, 151262, Control_c, 1, 7, 98
3, 151264, Control_c, 1, 7, 97
3, 151266, Control_c, 1, 7, 96
3, 151268, Control_c, 1, 7, 95
3, 151270, Control_c, 1, 7, 94
3, 151272, Control_c, 1, 7, 92
3, 151274, Control_c, 1, 7, 91
3, 151276, Control_c, 1, 7, 90
3, 151278, Control_c, 1, 7, 89
3, 151280, Control_c, 1, 7, 88
3, 151282, Control_c, 1, 7, 87
3, 151284, Control_c, 1, 7, 85
3, 151286, Control_c, 1, 7, 84
3, 151288, Control_c, 1, 7, 83
3, 151290, Control_c, 1, 7, 82
3, 151292, Control_c, 1, 7, 81
3, 151294, Control_c, 1, 7, 80
3, 151296, Control_c, 1, 7, 78
3, 151298, Control_c, 1, 7, 77
3, 151300, Control_c, 1, 7, 76
3, 151302, Control_c, 1, 7, 75
3, 151304, Control_c, 1, 7, 74
3, 151306, Control_c, 1, 7, 73
3, 151308, Control_c, 1, 7, 71
3, 151310, Control_c, 1, 7, 70
3, 151312, Control_c, 1, 7, 69
3, 151314, Control_c, 1, 7, 68
3, 151316, Control_c, 1, 7, 67
3, 151318, Control_c, 1, 7, 66
3, 151320, Control_c, 1, 7, 64
3, 151440, Note_on_c, 1, 65, 0
3, 151440, Note_on_c, 1, 69, 0
3, 151440, Note_on_c, 1, 77, 76
3, 151440, Note_on_c, 1, 65, 72
3, 151800, Note_on_c, 1, 65, 0
3, 151800, Note_on_c, 1, 77, 0
3, 151920, Control_c, 1, 7, 99
3, 152040, Note_on_c, 1, 74, 43
3, 152040, Note_on_c, 1, 79, 50
3, 152070, Note_on_c, 1, 79, 0
3, 152100, Note_on_c, 1, 77, 43
3, 152130, Note_on_c, 1, 77, 0
3, 152160, Note_on_c, 1, 74, 0
3, 152160, Note_on_c, 1, 76, 70
3, 152160, Note_on_c, 1, 72, 56
3, 152220, Note_on_c, 1, 72, 0
3, 152220, Note_on_c, 1, 76, 0
3, 152220, Note_on_c, 1, 77, 65
3, 152280, Note_on_c, 1, 77, 0
3, 152280, Note_on_c, 1, 72, 53
3, 152280, Note_on_c, 1, 69, 62
3, 152310, Note_on_c, 1, 72, 0
3, 152340, Note_on_c, 1, 69, 0
3, 152340, Note_on_c, 1, 77, 61
3, 152370, Note_on_c, 1, 77, 0
3, 152400, Note_on_c, 1, 75, 62
3, 152400, Note_on_c, 1, 65, 52
3, 152460, Note_on_c, 1, 65, 0
3, 152460, Note_on_c, 1, 75, 0
3, 152460, Note_on_c, 1, 74, 61
3, 152520, Note_on_c, 1, 74, 0
3, 152520, Note_on_c, 1, 72, 58
3, 152520, Note_on_c, 1, 65, 67
3, 152550, Note_on_c, 1, 72, 0
3, 152580, Note_on_c, 1, 65, 0
3, 152580, Note_on_c, 1, 70, 62
3, 152610, Note_on_c, 1, 70, 0
3, 152640, Control_c, 1, 7, 99
3, 152640, Note_on_c, 1, 74, 48
3, 152640, Note_on_c, 1, 70, 55
3, 152648, Control_c, 1, 7, 100
3, 152654, Control_c, 1, 7, 101
3, 152660, Control_c, 1, 7, 102
3, 152668, Control_c, 1, 7, 103
3, 152674, Control_c, 1, 7, 104
3, 152680, Control_c, 1, 7, 105
3, 152688, Control_c, 1, 7, 106
3, 152694, Control_c, 1, 7, 107
3, 152700, Control_c, 1, 7, 108
3, 152708, Control_c, 1, 7, 109
3, 152714, Control_c, 1, 7, 110
3, 152720, Control_c, 1, 7, 111
3, 152728, Control_c, 1, 7, 112
3, 152734, Control_c, 1, 7, 113
3, 152740, Control_c, 1, 7, 114
3, 152748, Control_c, 1, 7, 115
3, 152754, Control_c, 1, 7, 116
3, 152760, Control_c, 1, 7, 117
3, 152768, Control_c, 1, 7, 118
3, 152774, Control_c, 1, 7, 119
3, 152780, Control_c, 1, 7, 120
3, 152788, Control_c, 1, 7, 121
3, 152794, Control_c, 1, 7, 122
3, 152800, Control_c, 1, 7, 123
3, 152808, Control_c, 1, 7, 124
3, 152814, Control_c, 1, 7, 125
3, 152820, Control_c, 1, 7, 126
3, 152828, Control_c, 1, 7, 125
3, 152834, Control_c, 1, 7, 124
3, 152840, Control_c, 1, 7, 123
3, 152848, Control_c, 1, 7, 122
3, 152854, Control_c, 1, 7, 121
3, 152860, Control_c, 1, 7, 120
3, 152868, Control_c, 1, 7, 119
3, 152874, Control_c, 1, 7, 118
3, 152880, Note_on_c, 1, 70, 0
3, 152880, Note_on_c, 1, 74, 0
3, 152880, Control_c, 1, 7, 117
3, 152880, Note_on_c, 1, 72, 40
3, 152880, Note_on_c, 1, 69, 48
3, 152888, Control_c, 1, 7, 116
3, 152894, Control_c, 1, 7, 115
3, 152900, Control_c, 1, 7, 114
3, 152908, Control_c, 1, 7, 113
3, 152914, Control_c, 1, 7, 112
3, 152920, Control_c, 1, 7, 111
3, 152928, Control_c, 1, 7, 110
3, 152934, Control_c, 1, 7, 109
3, 152940, Control_c, 1, 7, 108
3, 152948, Control_c, 1, 7, 107
3, 152954, Control_c, 1, 7, 106
3, 152960, Control_c, 1, 7, 105
3, 152968, Control_c, 1, 7, 104
3, 152974, Control_c, 1, 7, 103
3, 152980, Control_c, 1, 7, 102
3, 152988, Control_c, 1, 7, 101
3, 152994, Control_c, 1, 7, 100
3, 153000, Note_on_c, 1, 69, 0
3, 153000, Note_on_c, 1, 72, 0
3, 153000, Control_c, 1, 7, 99
3, 156840, Note_on_c, 1, 70, 50
3, 156840, Note_on_c, 1, 79, 61
3, 156960, Note_on_c, 1, 79, 0
3, 156960, Note_on_c, 1, 77, 67
3, 157020, Note_on_c, 1, 77, 0
3, 157080, Note_on_c, 1, 70, 0
3, 157080, Note_on_c, 1, 74, 43
3, 157080, Note_on_c, 1, 70, 50
3, 157140, Note_on_c, 1, 70, 0
3, 157140, Note_on_c, 1, 74, 0
3, 157320, Note_on_c, 1, 70, 50
3, 157320, Note_on_c, 1, 79, 73
3, 157440, Note_on_c, 1, 79, 0
3, 157440, Note_on_c, 1, 77, 59
3, 157500, Note_on_c, 1, 77, 0
3, 157560, Note_on_c, 1, 70, 0
3, 157560, Note_on_c, 1, 74, 57
3, 157560, Note_on_c, 1, 70, 56
3, 157620, Note_on_c, 1, 70, 0
3, 157620, Note_on_c, 1, 74, 0
3, 157680, Note_on_c, 1, 81, 55
3, 157740, Note_on_c, 1, 81, 0
3, 157740, Note_on_c, 1, 82, 57
3, 157800, Note_on_c, 1, 82, 0
3, 157800, Note_on_c, 1, 79, 55
3, 157830, Note_on_c, 1, 79, 0
3, 157860, Note_on_c, 1, 75, 58
3, 157890, Note_on_c, 1, 75, 0
3, 157920, Note_on_c, 1, 76, 68
3, 157980, Note_on_c, 1, 76, 0
3, 157980, Note_on_c, 1, 77, 62
3, 158040, Note_on_c, 1, 77, 0
3, 158040, Note_on_c, 1, 74, 60
3, 158070, Note_on_c, 1, 74, 0
3, 158100, Note_on_c, 1, 70, 63
3, 158130, Note_on_c, 1, 70, 0
3, 158160, Note_on_c, 1, 81, 68
3, 158220, Note_on_c, 1, 81, 0
3, 158220, Note_on_c, 1, 82, 66
3, 158280, Note_on_c, 1, 82, 0
3, 158280, Note_on_c, 1, 79, 47
3, 158310, Note_on_c, 1, 79, 0
3, 158340, Note_on_c, 1, 75, 57
3, 158370, Note_on_c, 1, 75, 0
3, 158400, Note_on_c, 1, 76, 68
3, 158460, Note_on_c, 1, 76, 0
3, 158460, Note_on_c, 1, 77, 67
3, 158520, Note_on_c, 1, 77, 0
3, 158520, Note_on_c, 1, 74, 72
3, 158550, Note_on_c, 1, 74, 0
3, 158580, Note_on_c, 1, 70, 64
3, 158610, Note_on_c, 1, 70, 0
3, 168000, Note_on_c, 1, 69, 58
3, 168000, Note_on_c, 1, 65, 62
3, 168030, Note_on_c, 1, 65, 0
3, 168030, Note_on_c, 1, 69, 0
3, 168060, Note_on_c, 1, 70, 67
3, 168060, Note_on_c, 1, 67, 68
3, 168090, Note_on_c, 1, 67, 0
3, 168090, Note_on_c, 1, 70, 0
3, 168120, Note_on_c, 1, 72, 45
3, 168120, Note_on_c, 1, 69, 74
3, 168150, Note_on_c, 1, 69, 0
3, 168150, Note_on_c, 1, 72, 0
3, 168180, Note_on_c, 1, 74, 60
3, 168180, Note_on_c, 1, 70, 64
3, 168210, Note_on_c, 1, 70, 0
3, 168210, Note_on_c, 1, 74, 0
3, 168240, Note_on_c, 1, 75, 81
3, 168240, Note_on_c, 1, 72, 39
3, 168270, Note_on_c, 1, 72, 0
3, 168270, Note_on_c, 1, 75, 0
3, 168300, Note_on_c, 1, 77, 43
3, 168300, Note_on_c, 1, 74, 72
3, 168330, Note_on_c, 1, 74, 0
3, 168330, Note_on_c, 1, 77, 0
3, 168360, Note_on_c, 1, 79, 54
3, 168360, Note_on_c, 1, 75, 72
3, 168390, Note_on_c, 1, 75, 0
3, 168390, Note_on_c, 1, 79, 0
3, 168420, Note_on_c, 1, 81, 80
3, 168420, Note_on_c, 1, 72, 35
3, 168450, Note_on_c, 1, 72, 0
3, 168450, Note_on_c, 1, 81, 0
3, 168480, Note_on_c, 1, 82, 77
3, 168480, Note_on_c, 1, 74, 105
3, 168720, Note_on_c, 1, 74, 0
3, 168720, Note_on_c, 1, 82, 0
3, 168720, Note_on_c, 1, 72, 76
3, 168720, Note_on_c, 1, 78, 77
3, 168960, Note_on_c, 1, 78, 0
3, 168960, Note_on_c, 1, 72, 0
3, 168960, Note_on_c, 1, 79, 39
3, 168960, Note_on_c, 1, 70, 57
3, 169080, Note_on_c, 1, 70, 0
3, 169080, Note_on_c, 1, 79, 0
3, 174000, Note_on_c, 1, 73, 72
3, 174000, Note_on_c, 1, 76, 77
3, 174240, Note_on_c, 1, 76, 0
3, 174240, Note_on_c, 1, 73, 0
3, 174240, Note_on_c, 1, 77, 64
3, 174240, Note_on_c, 1, 74, 80
3, 174300, Note_on_c, 1, 74, 0
3, 174300, Note_on_c, 1, 77, 0
3, 174960, Note_on_c, 1, 73, 74
3, 174960, Note_on_c, 1, 76, 84
3, 175200, Note_on_c, 1, 76, 0
3, 175200, Note_on_c, 1, 73, 0
3, 175200, Note_on_c, 1, 77, 63
3, 175200, Note_on_c, 1, 74, 86
3, 175260, Note_on_c, 1, 74, 0
3, 175260, Note_on_c, 1, 77, 0
3, 175920, Note_on_c, 1, 73, 77
3, 175920, Note_on_c, 1, 76, 82
3, 176160, Note_on_c, 1, 76, 0
3, 176160, Note_on_c, 1, 73, 0
3, 176160, Note_on_c, 1, 77, 58
3, 176160, Note_on_c, 1, 74, 80
3, 176220, Note_on_c, 1, 74, 0
3, 176220, Note_on_c, 1, 77, 0
3, 183840, Note_on_c, 1, 70, 93
3, 183840, Note_on_c, 1, 62, 89
3, 183900, Note_on_c, 1, 62, 0
3, 183900, Note_on_c, 1, 70, 86
3, 183930, Note_on_c, 1, 70, 0
3, 183960, Note_on_c, 1, 70, 0
3, 183960, Note_on_c, 1, 70, 89
3, 183990, Note_on_c, 1, 70, 0
3, 184020, Note_on_c, 1, 70, 89
3, 184050, Note_on_c, 1, 70, 0
3, 184080, Note_on_c, 1, 70, 95
3, 184140, Note_on_c, 1, 70, 0
3, 184140, Note_on_c, 1, 72, 80
3, 184200, Note_on_c, 1, 72, 0
3, 184200, Note_on_c, 1, 74, 101
3, 184230, Note_on_c, 1, 74, 0
3, 184260, Note_on_c, 1, 70, 99
3, 184290, Note_on_c, 1, 70, 0
3, 184320, Note_on_c, 1, 69, 94
3, 184380, Note_on_c, 1, 77, 89
3, 184410, Note_on_c, 1, 77, 0
3, 184440, Note_on_c, 1, 69, 0
3, 184440, Note_on_c, 1, 77, 84
3, 184470, Note_on_c, 1, 77, 0
3, 184500, Note_on_c, 1, 77, 84
3, 184530, Note_on_c, 1, 77, 0
3, 184560, Note_on_c, 1, 77, 95
3, 184560, Note_on_c, 1, 72, 89
3, 184620, Note_on_c, 1, 77, 0
3, 184620, Note_on_c, 1, 79, 89
3, 184680, Note_on_c, 1, 79, 0
3, 184680, Note_on_c, 1, 80, 85
3, 184710, Note_on_c, 1, 80, 0
3, 184740, Note_on_c, 1, 77, 90
3, 184770, Note_on_c, 1, 77, 0
3, 184800, Note_on_c, 1, 72, 0
3, 184800, Note_on_c, 1, 76, 95
3, 184800, Note_on_c, 1, 72, 64
3, 184860, Note_on_c, 1, 72, 0
3, 184860, Note_on_c, 1, 72, 72
3, 184890, Note_on_c, 1, 72, 0
3, 184920, Note_on_c, 1, 76, 0
3, 184920, Note_on_c, 1, 72, 71
3, 184950, Note_on_c, 1, 72, 0
3, 184980, Note_on_c, 1, 72, 76
3, 185010, Note_on_c, 1, 72, 0
3, 185040, Note_on_c, 1, 79, 99
3, 185040, Note_on_c, 1, 72, 84
3, 185100, Note_on_c, 1, 72, 0
3, 185100, Note_on_c, 1, 74, 90
3, 185160, Note_on_c, 1, 74, 0
3, 185160, Note_on_c, 1, 75, 93
3, 185190, Note_on_c, 1, 75, 0
3, 185220, Note_on_c, 1, 72, 74
3, 185250, Note_on_c, 1, 72, 0
3, 185280, Note_on_c, 1, 79, 0
3, 185280, Note_on_c, 1, 79, 94
3, 185280, Note_on_c, 1, 71, 95
3, 185340, Note_on_c, 1, 79, 0
3, 185340, Note_on_c, 1, 79, 89
3, 185370, Note_on_c, 1, 79, 0
3, 185400, Note_on_c, 1, 71, 0
3, 185400, Note_on_c, 1, 79, 81
3, 185430, Note_on_c, 1, 79, 0
3, 185460, Note_on_c, 1, 79, 90
3, 185490, Note_on_c, 1, 79, 0
3, 185520, Note_on_c, 1, 79, 95
3, 185520, Note_on_c, 1, 74, 104
3, 185580, Note_on_c, 1, 79, 0
3, 185580, Note_on_c, 1, 81, 90
3, 185640, Note_on_c, 1, 81, 0
3, 185640, Note_on_c, 1, 82, 95
3, 185670, Note_on_c, 1, 82, 0
3, 185700, Note_on_c, 1, 79, 90
3, 185730, Note_on_c, 1, 79, 0
3, 185760, Note_on_c, 1, 78, 89
3, 185880, Note_on_c, 1, 78, 0
3, 185880, Note_on_c, 1, 74, 0
3, 186000, Note_on_c, 1, 79, 77
3, 186000, Note_on_c, 1, 67, 80
3, 186240, Note_on_c, 1, 67, 0
3, 186240, Note_on_c, 1, 79, 0
3, 186240, Note_on_c, 1, 76, 90
3, 186240, Note_on_c, 1, 67, 90
3, 186480, Note_on_c, 1, 67, 0
3, 186480, Note_on_c, 1, 76, 0
3, 186480, Note_on_c, 1, 77, 89
3, 186480, Note_on_c, 1, 65, 94
3, 186840, Note_on_c, 1, 65, 0
3, 186840, Note_on_c, 1, 77, 0
3, 186840, Note_on_c, 1, 75, 99
3, 186840, Note_on_c, 1, 70, 89
3, 187080, Note_on_c, 1, 70, 0
3, 187080, Note_on_c, 1, 75, 0
3, 187080, Note_on_c, 1, 73, 76
3, 187080, Note_on_c, 1, 69, 89
3, 187140, Note_on_c, 1, 69, 0
3, 187140, Note_on_c, 1, 73, 0
3, 187200, Note_on_c, 1, 74, 78
3, 187200, Note_on_c, 1, 69, 86
3, 187260, Note_on_c, 1, 69, 0
3, 187260, Note_on_c, 1, 74, 0
3, 187320, Note_on_c, 1, 71, 90
3, 187320, Note_on_c, 1, 67, 81
3, 187380, Note_on_c, 1, 67, 0
3, 187380, Note_on_c, 1, 71, 0
3, 187440, Note_on_c, 1, 67, 77
3, 187500, Note_on_c, 1, 67, 0
3, 187560, Note_on_c, 1, 69, 94
3, 187560, Note_on_c, 1, 65, 86
3, 187620, Note_on_c, 1, 65, 0
3, 187620, Note_on_c, 1, 69, 0
3, 187680, Note_on_c, 1, 70, 94
3, 187740, Note_on_c, 1, 70, 0
3, 187740, Note_on_c, 1, 82, 85
3, 187740, Note_on_c, 1, 70, 94
3, 187800, Note_on_c, 1, 70, 0
3, 187800, Note_on_c, 1, 82, 0
3, 187800, Note_on_c, 1, 82, 95
3, 187800, Note_on_c, 1, 70, 105
3, 187860, Note_on_c, 1, 70, 0
3, 187860, Note_on_c, 1, 82, 0
3, 187860, Note_on_c, 1, 82, 72
3, 187860, Note_on_c, 1, 70, 85
3, 187920, Note_on_c, 1, 70, 0
3, 187920, Note_on_c, 1, 82, 0
3, 187920, Note_on_c, 1, 82, 76
3, 187920, Note_on_c, 1, 70, 86
3, 187980, Note_on_c, 1, 70, 0
3, 187980, Note_on_c, 1, 82, 0
3, 187980, Note_on_c, 1, 82, 84
3, 187980, Note_on_c, 1, 70, 94
3, 188040, Note_on_c, 1, 70, 0
3, 188040, Note_on_c, 1, 82, 0
3, 188040, Note_on_c, 1, 82, 95
3, 188040, Note_on_c, 1, 70, 105
3, 188100, Note_on_c, 1, 70, 0
3, 188100, Note_on_c, 1, 82, 0
3, 188100, Note_on_c, 1, 82, 71
3, 188100, Note_on_c, 1, 70, 85
3, 188160, Note_on_c, 1, 70, 0
3, 188160, Note_on_c, 1, 82, 0
3, 188160, Note_on_c, 1, 82, 74
3, 188160, Note_on_c, 1, 70, 94
3, 188220, Note_on_c, 1, 70, 0
3, 188220, Note_on_c, 1, 82, 0
3, 188220, Note_on_c, 1, 82, 74
3, 188220, Note_on_c, 1, 70, 84
3, 188280, Note_on_c, 1, 70, 0
3, 188280, Note_on_c, 1, 82, 0
3, 188280, Note_on_c, 1, 82, 72
3, 188280, Note_on_c, 1, 70, 78
3, 188340, Note_on_c, 1, 70, 0
3, 188340, Note_on_c, 1, 82, 0
3, 188340, Note_on_c, 1, 82, 70
3, 188340, Note_on_c, 1, 70, 82
3, 188400, Note_on_c, 1, 70, 0
3, 188400, Note_on_c, 1, 82, 0
3, 188400, Note_on_c, 1, 82, 69
3, 188400, Note_on_c, 1, 70, 85
3, 188460, Note_on_c, 1, 70, 0
3, 188460, Note_on_c, 1, 82, 0
3, 188460, Note_on_c, 1, 82, 70
3, 188460, Note_on_c, 1, 70, 86
3, 188520, Note_on_c, 1, 70, 0
3, 188520, Note_on_c, 1, 82, 0
3, 188520, Note_on_c, 1, 82, 80
3, 188520, Note_on_c, 1, 70, 89
3, 188580, Note_on_c, 1, 70, 0
3, 188580, Note_on_c, 1, 82, 0
3, 188580, Note_on_c, 1, 82, 82
3, 188580, Note_on_c, 1, 70, 94
3, 188640, Note_on_c, 1, 70, 0
3, 188640, Note_on_c, 1, 82, 0
3, 188640, Note_on_c, 1, 82, 90
3, 188640, Note_on_c, 1, 74, 105
3, 188880, Note_on_c, 1, 74, 0
3, 188880, Note_on_c, 1, 82, 0
3, 229440, Note_on_c, 1, 70, 84
3, 229560, Note_on_c, 1, 70, 0
3, 230520, Note_on_c, 1, 74, 48
3, 230520, Note_on_c, 1, 70, 49
3, 230610, Note_on_c, 1, 70, 0
3, 230610, Note_on_c, 1, 74, 0
3, 230640, Note_on_c, 1, 74, 58
3, 230640, Note_on_c, 1, 70, 53
3, 230730, Note_on_c, 1, 70, 0
3, 230730, Note_on_c, 1, 74, 0
3, 230760, Note_on_c, 1, 74, 43
3, 230760, Note_on_c, 1, 70, 52
3, 230850, Note_on_c, 1, 70, 0
3, 230850, Note_on_c, 1, 74, 0
3, 230876, Control_c, 1, 7, 64
3, 230880, Note_on_c, 1, 75, 82
3, 230880, Note_on_c, 1, 69, 84
3, 230890, Control_c, 1, 7, 65
3, 230904, Control_c, 1, 7, 66
3, 230918, Control_c, 1, 7, 67
3, 230932, Control_c, 1, 7, 68
3, 230946, Control_c, 1, 7, 69
3, 230960, Control_c, 1, 7, 70
3, 230974, Control_c, 1, 7, 71
3, 230988, Control_c, 1, 7, 72
3, 231000, Control_c, 1, 7, 73
3, 231014, Control_c, 1, 7, 74
3, 231028, Control_c, 1, 7, 75
3, 231042, Control_c, 1, 7, 76
3, 231056, Control_c, 1, 7, 77
3, 231070, Control_c, 1, 7, 78
3, 231084, Control_c, 1, 7, 79
3, 231098, Control_c, 1, 7, 80
3, 231112, Control_c, 1, 7, 81
3, 231124, Control_c, 1, 7, 82
3, 231138, Control_c, 1, 7, 83
3, 231152, Control_c, 1, 7, 84
3, 231166, Control_c, 1, 7, 85
3, 231180, Control_c, 1, 7, 86
3, 231194, Control_c, 1, 7, 87
3, 231208, Control_c, 1, 7, 88
3, 231222, Control_c, 1, 7, 89
3, 231236, Control_c, 1, 7, 90
3, 231248, Control_c, 1, 7, 91
3, 231262, Control_c, 1, 7, 92
3, 231276, Control_c, 1, 7, 93
3, 231290, Control_c, 1, 7, 94
3, 231304, Control_c, 1, 7, 95
3, 231318, Control_c, 1, 7, 96
3, 231332, Control_c, 1, 7, 97
3, 231346, Control_c, 1, 7, 98
3, 231358, Control_c, 1, 7, 99
3, 231360, Note_on_c, 1, 69, 0
3, 231360, Note_on_c, 1, 75, 0
3, 231360, Note_on_c, 1, 74, 61
3, 231360, Note_on_c, 1, 70, 56
3, 231480, Note_on_c, 1, 70, 0
3, 231480, Note_on_c, 1, 74, 0
3, 231600, Note_on_c, 1, 77, 80
3, 231600, Note_on_c, 1, 74, 94
3, 231720, Note_on_c, 1, 74, 0
3, 231720, Note_on_c, 1, 77, 0
3, 231840, Note_on_c, 1, 74, 84
3, 231840, Note_on_c, 1, 70, 77
3, 231960, Note_on_c, 1, 70, 0
3, 231960, Note_on_c, 1, 74, 0
3, 231960, End_track
4, 0, Start_track
4, 0, MIDI_port, 0
4, 0, Title_t, "Bassoons"
4, 0, Control_c, 2, 7, 100
4, 0, Control_c, 2, 10, 89
4, 0, Control_c, 2, 93, 0
4, 0, Control_c, 2, 91, 66
4, 0, Program_c, 2, 70
4, 0, Note_on_c, 2, 58, 72
4, 0, Note_on_c, 2, 46, 84
4, 180, Note_on_c, 2, 46, 0
4, 180, Note_on_c, 2, 58, 0
4, 210, Note_on_c, 2, 58, 80
4, 210, Note_on_c, 2, 46, 90
4, 240, Note_on_c, 2, 46, 0
4, 240, Note_on_c, 2, 58, 0
4, 240, Note_on_c, 2, 65, 78
4, 240, Note_on_c, 2, 53, 80
4, 285, Note_on_c, 2, 53, 0
4, 285, Note_on_c, 2, 65, 0
4, 330, Note_on_c, 2, 65, 81
4, 330, Note_on_c, 2, 53, 82
4, 345, Note_on_c, 2, 53, 0
4, 345, Note_on_c, 2, 65, 0
4, 360, Note_on_c, 2, 62, 72
4, 360, Note_on_c, 2, 50, 89
4, 405, Note_on_c, 2, 50, 0
4, 405, Note_on_c, 2, 62, 0
4, 450, Note_on_c, 2, 62, 74
4, 450, Note_on_c, 2, 50, 94
4, 465, Note_on_c, 2, 50, 0
4, 465, Note_on_c, 2, 62, 0
4, 480, Note_on_c, 2, 58, 74
4, 480, Note_on_c, 2, 46, 89
4, 600, Note_on_c, 2, 46, 0
4, 600, Note_on_c, 2, 58, 0
4, 1198, Control_c, 2, 7, 98
4, 1202, Control_c, 2, 7, 97
4, 1206, Control_c, 2, 7, 96
4, 1210, Control_c, 2, 7, 95
4, 1214, Control_c, 2, 7, 94
4, 1216, Control_c, 2, 7, 93
4, 1220, Control_c, 2, 7, 92
4, 1224, Control_c, 2, 7, 91
4, 1228, Control_c, 2, 7, 90
4, 1232, Control_c, 2, 7, 89
4, 1234, Control_c, 2, 7, 88
4, 1238, Control_c, 2, 7, 87
4, 1242, Control_c, 2, 7, 86
4, 1246, Control_c, 2, 7, 85
4, 1250, Control_c, 2, 7, 84
4, 1252, Control_c, 2, 7, 83
4, 1256, Control_c, 2, 7, 82
4, 1260, Control_c, 2, 7, 81
4, 1264, Control_c, 2, 7, 80
4, 1268, Control_c, 2, 7, 79
4, 1270, Control_c, 2, 7, 78
4, 1274, Control_c, 2, 7, 77
4, 1278, Control_c, 2, 7, 76
4, 1282, Control_c, 2, 7, 75
4, 1286, Control_c, 2, 7, 74
4, 1288, Control_c, 2, 7, 73
4, 1292, Control_c, 2, 7, 72
4, 1296, Control_c, 2, 7, 71
4, 1300, Control_c, 2, 7, 70
4, 1304, Control_c, 2, 7, 69
4, 1306, Control_c, 2, 7, 68
4, 1310, Control_c, 2, 7, 67
4, 1314, Control_c, 2, 7, 66
4, 1318, Control_c, 2, 7, 65
4, 1320, Control_c, 2, 7, 64
4, 1324, Control_c, 2, 7, 63
4, 1328, Control_c, 2, 7, 62
4, 1332, Control_c, 2, 7, 61
4, 1336, Control_c, 2, 7, 60
4, 1338, Control_c, 2, 7, 59
4, 1342, Control_c, 2, 7, 58
4, 1346, Control_c, 2, 7, 57
4, 1350, Control_c, 2, 7, 56
4, 1354, Control_c, 2, 7, 55
4, 1356, Control_c, 2, 7, 54
4, 1360, Control_c, 2, 7, 53
4, 1364, Control_c, 2, 7, 52
4, 1368, Control_c, 2, 7, 51
4, 1372, Control_c, 2, 7, 50
4, 1374, Control_c, 2, 7, 49
4, 1378, Control_c, 2, 7, 48
4, 1382, Control_c, 2, 7, 47
4, 1386, Control_c, 2, 7, 46
4, 1390, Control_c, 2, 7, 45
4, 1392, Control_c, 2, 7, 44
4, 1396, Control_c, 2, 7, 43
4, 1400, Control_c, 2, 7, 42
4, 1404, Control_c, 2, 7, 41
4, 1408, Control_c, 2, 7, 40
4, 1410, Control_c, 2, 7, 39
4, 1414, Control_c, 2, 7, 38
4, 1418, Control_c, 2, 7, 37
4, 1422, Control_c, 2, 7, 36
4, 1426, Control_c, 2, 7, 35
4, 1428, Control_c, 2, 7, 34
4, 1432, Control_c, 2, 7, 33
4, 1436, Control_c, 2, 7, 32
4, 1440, Control_c, 2, 7, 29
4, 1440, Note_on_c, 2, 63, 94
4, 1440, Note_on_c, 2, 60, 85
4, 1448, Control_c, 2, 7, 30
4, 1454, Control_c, 2, 7, 31
4, 1462, Control_c, 2, 7, 32
4, 1468, Control_c, 2, 7, 33
4, 1474, Control_c, 2, 7, 34
4, 1482, Control_c, 2, 7, 35
4, 1488, Control_c, 2, 7, 36
4, 1494, Control_c, 2, 7, 37
4, 1502, Control_c, 2, 7, 38
4, 1508, Control_c, 2, 7, 39
4, 1514, Control_c, 2, 7, 40
4, 1522, Control_c, 2, 7, 41
4, 1528, Control_c, 2, 7, 42
4, 1536, Control_c, 2, 7, 43
4, 1542, Control_c, 2, 7, 44
4, 1548, Control_c, 2, 7, 45
4, 1556, Control_c, 2, 7, 46
4, 1562, Control_c, 2, 7, 47
4, 1568, Control_c, 2, 7, 48
4, 1576, Control_c, 2, 7, 49
4, 1582, Control_c, 2, 7, 50
4, 1588, Control_c, 2, 7, 51
4, 1596, Control_c, 2, 7, 52
4, 1602, Control_c, 2, 7, 53
4, 1610, Control_c, 2, 7, 54
4, 1616, Control_c, 2, 7, 55
4, 1622, Control_c, 2, 7, 56
4, 1630, Control_c, 2, 7, 57
4, 1636, Control_c, 2, 7, 58
4, 1642, Control_c, 2, 7, 59
4, 1650, Control_c, 2, 7, 60
4, 1656, Control_c, 2, 7, 61
4, 1662, Control_c, 2, 7, 62
4, 1670, Control_c, 2, 7, 63
4, 1676, Control_c, 2, 7, 64
4, 1680, Note_on_c, 2, 60, 0
4, 1680, Note_on_c, 2, 63, 0
4, 1680, Note_on_c, 2, 58, 82
4, 1680, Note_on_c, 2, 62, 90
4, 1682, Control_c, 2, 7, 65
4, 1690, Control_c, 2, 7, 66
4, 1696, Control_c, 2, 7, 67
4, 1704, Control_c, 2, 7, 68
4, 1710, Control_c, 2, 7, 69
4, 1716, Control_c, 2, 7, 70
4, 1724, Control_c, 2, 7, 71
4, 1730, Control_c, 2, 7, 72
4, 1736, Control_c, 2, 7, 73
4, 1744, Control_c, 2, 7, 74
4, 1750, Control_c, 2, 7, 75
4, 1756, Control_c, 2, 7, 76
4, 1764, Control_c, 2, 7, 77
4, 1770, Control_c, 2, 7, 78
4, 1778, Control_c, 2, 7, 79
4, 1784, Control_c, 2, 7, 80
4, 1790, Control_c, 2, 7, 81
4, 1798, Control_c, 2, 7, 82
4, 1804, Control_c, 2, 7, 83
4, 1810, Control_c, 2, 7, 84
4, 1818, Control_c, 2, 7, 85
4, 1824, Control_c, 2, 7, 86
4, 1830, Control_c, 2, 7, 87
4, 1838, Control_c, 2, 7, 88
4, 1844, Control_c, 2, 7, 89
4, 1852, Control_c, 2, 7, 90
4, 1858, Control_c, 2, 7, 91
4, 1864, Control_c, 2, 7, 92
4, 1872, Control_c, 2, 7, 93
4, 1878, Control_c, 2, 7, 94
4, 1884, Control_c, 2, 7, 95
4, 1892, Control_c, 2, 7, 96
4, 1898, Control_c, 2, 7, 97
4, 1904, Control_c, 2, 7, 98
4, 1912, Control_c, 2, 7, 99
4, 1918, Control_c, 2, 7, 100
4, 1920, Note_on_c, 2, 62, 0
4, 1920, Note_on_c, 2, 58, 0
4, 1920, Control_c, 2, 7, 100
4, 1920, Control_c, 2, 10, 89
4, 1920, Control_c, 2, 93, 0
4, 1920, Control_c, 2, 91, 66
4, 1920, Note_on_c, 2, 60, 89
4, 1920, Note_on_c, 2, 57, 99
4, 1924, Control_c, 2, 7, 101
4, 2040, Control_c, 2, 7, 100
4, 2040, Control_c, 2, 10, 89
4, 2040, Control_c, 2, 93, 0
4, 2040, Control_c, 2, 91, 66
4, 2100, Note_on_c, 2, 57, 0
4, 2100, Note_on_c, 2, 60, 0
4, 2130, Note_on_c, 2, 53, 89
4, 2130, Note_on_c, 2, 41, 95
4, 2160, Note_on_c, 2, 41, 0
4, 2160, Note_on_c, 2, 53, 0
4, 2160, Note_on_c, 2, 60, 90
4, 2160, Note_on_c, 2, 48, 95
4, 2190, Note_on_c, 2, 48, 0
4, 2190, Note_on_c, 2, 60, 0
4, 2250, Note_on_c, 2, 60, 84
4, 2250, Note_on_c, 2, 48, 85
4, 2265, Note_on_c, 2, 48, 0
4, 2265, Note_on_c, 2, 60, 0
4, 2280, Note_on_c, 2, 57, 99
4, 2280, Note_on_c, 2, 45, 99
4, 2310, Note_on_c, 2, 45, 0
4, 2310, Note_on_c, 2, 57, 0
4, 2370, Note_on_c, 2, 57, 98
4, 2370, Note_on_c, 2, 45, 98
4, 2385, Note_on_c, 2, 45, 0
4, 2385, Note_on_c, 2, 57, 0
4, 2400, Note_on_c, 2, 53, 89
4, 2400, Note_on_c, 2, 41, 90
4, 2520, Note_on_c, 2, 41, 0
4, 2520, Note_on_c, 2, 53, 0
4, 3360, Control_c, 2, 7, 99
4, 3360, Note_on_c, 2, 65, 42
4, 3360, Note_on_c, 2, 62, 43
4, 3370, Control_c, 2, 7, 100
4, 3378, Control_c, 2, 7, 101
4, 3386, Control_c, 2, 7, 102
4, 3396, Control_c, 2, 7, 103
4, 3404, Control_c, 2, 7, 104
4, 3412, Control_c, 2, 7, 105
4, 3420, Control_c, 2, 7, 106
4, 3430, Control_c, 2, 7, 107
4, 3438, Control_c, 2, 7, 108
4, 3446, Control_c, 2, 7, 109
4, 3456, Control_c, 2, 7, 110
4, 3464, Control_c, 2, 7, 111
4, 3472, Control_c, 2, 7, 112
4, 3480, Control_c, 2, 7, 113
4, 3490, Control_c, 2, 7, 114
4, 3498, Control_c, 2, 7, 115
4, 3506, Control_c, 2, 7, 116
4, 3516, Control_c, 2, 7, 117
4, 3524, Control_c, 2, 7, 118
4, 3532, Control_c, 2, 7, 119
4, 3540, Control_c, 2, 7, 120
4, 3550, Control_c, 2, 7, 121
4, 3558, Control_c, 2, 7, 122
4, 3566, Control_c, 2, 7, 123
4, 3576, Control_c, 2, 7, 124
4, 3584, Control_c, 2, 7, 125
4, 3592, Control_c, 2, 7, 126
4, 3600, Note_on_c, 2, 62, 0
4, 3600, Note_on_c, 2, 65, 0
4, 3600, Note_on_c, 2, 60, 43
4, 3600, Note_on_c, 2, 63, 42
4, 3600, Control_c, 2, 7, 126
4, 3610, Control_c, 2, 7, 125
4, 3618, Control_c, 2, 7, 124
4, 3628, Control_c, 2, 7, 123
4, 3636, Control_c, 2, 7, 122
4, 3646, Control_c, 2, 7, 121
4, 3654, Control_c, 2, 7, 120
4, 3662, Control_c, 2, 7, 119
4, 3672, Control_c, 2, 7, 118
4, 3680, Control_c, 2, 7, 117
4, 3690, Control_c, 2, 7, 116
4, 3698, Control_c, 2, 7, 115
4, 3706, Control_c, 2, 7, 114
4, 3716, Control_c, 2, 7, 113
4, 3724, Control_c, 2, 7, 112
4, 3734, Control_c, 2, 7, 111
4, 3742, Control_c, 2, 7, 110
4, 3750, Control_c, 2, 7, 109
4, 3760, Control_c, 2, 7, 108
4, 3768, Control_c, 2, 7, 107
4, 3778, Control_c, 2, 7, 106
4, 3786, Control_c, 2, 7, 105
4, 3794, Control_c, 2, 7, 104
4, 3804, Control_c, 2, 7, 103
4, 3812, Control_c, 2, 7, 102
4, 3822, Control_c, 2, 7, 101
4, 3830, Control_c, 2, 7, 100
4, 3838, Control_c, 2, 7, 99
4, 3840, Note_on_c, 2, 63, 0
4, 3840, Note_on_c, 2, 60, 0
4, 3840, Note_on_c, 2, 62, 42
4, 3840, Note_on_c, 2, 58, 49
4, 3900, Note_on_c, 2, 58, 0
4, 3900, Note_on_c, 2, 62, 0
4, 7200, Note_on_c, 2, 58, 43
4, 7200, Note_on_c, 2, 62, 43
4, 7680, Note_on_c, 2, 62, 0
4, 7680, Note_on_c, 2, 58, 0
4, 7680, Note_on_c, 2, 58, 40
4, 7680, Note_on_c, 2, 62, 43
4, 8160, Note_on_c, 2, 62, 0
4, 8160, Note_on_c, 2, 58, 0
4, 8160, Note_on_c, 2, 57, 47
4, 8160, Note_on_c, 2, 60, 42
4, 8640, Note_on_c, 2, 60, 0
4, 8640, Note_on_c, 2, 57, 0
4, 8640, Note_on_c, 2, 60, 50
4, 8640, Note_on_c, 2, 63, 54
4, 9120, Note_on_c, 2, 63, 0
4, 9120, Note_on_c, 2, 60, 0
4, 9120, Note_on_c, 2, 58, 46
4, 9120, Note_on_c, 2, 62, 43
4, 9600, Note_on_c, 2, 62, 0
4, 9600, Note_on_c, 2, 58, 0
4, 9600, Note_on_c, 2, 58, 43
4, 9600, Note_on_c, 2, 62, 65
4, 10080, Note_on_c, 2, 62, 0
4, 10080, Note_on_c, 2, 58, 0
4, 10080, Note_on_c, 2, 60, 89
4, 10140, Note_on_c, 2, 60, 0
4, 10140, Note_on_c, 2, 48, 89
4, 10200, Note_on_c, 2, 48, 0
4, 10200, Note_on_c, 2, 48, 94
4, 10260, Note_on_c, 2, 48, 0
4, 10260, Note_on_c, 2, 48, 94
4, 10320, Note_on_c, 2, 48, 0
4, 10320, Note_on_c, 2, 56, 76
4, 10320, Note_on_c, 2, 48, 104
4, 10380, Note_on_c, 2, 48, 0
4, 10380, Note_on_c, 2, 48, 80
4, 10440, Note_on_c, 2, 48, 0
4, 10440, Note_on_c, 2, 48, 84
4, 10500, Note_on_c, 2, 48, 0
4, 10500, Note_on_c, 2, 48, 89
4, 10560, Note_on_c, 2, 48, 0
4, 10560, Note_on_c, 2, 56, 0
4, 10560, Note_on_c, 2, 55, 66
4, 10560, Note_on_c, 2, 47, 80
4, 10680, Note_on_c, 2, 47, 0
4, 10680, Note_on_c, 2, 55, 0
4, 11040, Note_on_c, 2, 62, 81
4, 11040, Note_on_c, 2, 50, 89
4, 11100, Note_on_c, 2, 50, 0
4, 11100, Note_on_c, 2, 50, 95
4, 11160, Note_on_c, 2, 50, 0
4, 11160, Note_on_c, 2, 62, 0
4, 11160, Note_on_c, 2, 50, 99
4, 11220, Note_on_c, 2, 50, 0
4, 11220, Note_on_c, 2, 50, 95
4, 11280, Note_on_c, 2, 50, 0
4, 11280, Note_on_c, 2, 58, 89
4, 11280, Note_on_c, 2, 50, 99
4, 11340, Note_on_c, 2, 50, 0
4, 11340, Note_on_c, 2, 50, 101
4, 11400, Note_on_c, 2, 50, 0
4, 11400, Note_on_c, 2, 50, 99
4, 11460, Note_on_c, 2, 50, 0
4, 11460, Note_on_c, 2, 50, 101
4, 11520, Note_on_c, 2, 50, 0
4, 11520, Note_on_c, 2, 58, 0
4, 11520, Note_on_c, 2, 57, 95
4, 11640, Note_on_c, 2, 57, 0
4, 14400, Note_on_c, 2, 48, 94
4, 14400, Note_on_c, 2, 60, 85
4, 14880, Note_on_c, 2, 60, 0
4, 14880, Note_on_c, 2, 48, 0
4, 14880, Note_on_c, 2, 48, 84
4, 14880, Note_on_c, 2, 60, 80
4, 15360, Note_on_c, 2, 60, 0
4, 15360, Note_on_c, 2, 48, 0
4, 15360, Note_on_c, 2, 60, 65
4, 15360, Note_on_c, 2, 48, 72
4, 15480, Note_on_c, 2, 48, 0
4, 15480, Note_on_c, 2, 60, 0
4, 15480, Note_on_c, 2, 60, 90
4, 15480, Note_on_c, 2, 48, 94
4, 15540, Note_on_c, 2, 48, 0
4, 15540, Note_on_c, 2, 60, 0
4, 15720, Note_on_c, 2, 60, 90
4, 15720, Note_on_c, 2, 48, 94
4, 15780, Note_on_c, 2, 48, 0
4, 15780, Note_on_c, 2, 60, 0
4, 15960, Note_on_c, 2, 60, 98
4, 15960, Note_on_c, 2, 48, 98
4, 16020, Note_on_c, 2, 48, 0
4, 16020, Note_on_c, 2, 60, 0
4, 16320, Note_on_c, 2, 48, 90
4, 16440, Note_on_c, 2, 48, 0
4, 16440, Note_on_c, 2, 55, 90
4, 16470, Note_on_c, 2, 55, 0
4, 16530, Note_on_c, 2, 55, 94
4, 16545, Note_on_c, 2, 55, 0
4, 16560, Note_on_c, 2, 52, 98
4, 16620, Note_on_c, 2, 52, 0
4, 16680, Note_on_c, 2, 58, 86
4, 16680, Note_on_c, 2, 48, 93
4, 16740, Note_on_c, 2, 48, 0
4, 16800, Note_on_c, 2, 58, 0
4, 16800, Note_on_c, 2, 56, 86
4, 16920, Note_on_c, 2, 56, 0
4, 16920, Note_on_c, 2, 60, 95
4, 16920, Note_on_c, 2, 53, 90
4, 16950, Note_on_c, 2, 60, 0
4, 17010, Note_on_c, 2, 60, 93
4, 17025, Note_on_c, 2, 60, 0
4, 17040, Note_on_c, 2, 53, 0
4, 17040, Note_on_c, 2, 56, 90
4, 17100, Note_on_c, 2, 56, 0
4, 17160, Note_on_c, 2, 53, 94
4, 17220, Note_on_c, 2, 53, 0
4, 17400, Note_on_c, 2, 60, 98
4, 17400, Note_on_c, 2, 48, 95
4, 17460, Note_on_c, 2, 48, 0
4, 17460, Note_on_c, 2, 60, 0
4, 17640, Note_on_c, 2, 60, 94
4, 17640, Note_on_c, 2, 48, 94
4, 17700, Note_on_c, 2, 48, 0
4, 17700, Note_on_c, 2, 60, 0
4, 17880, Note_on_c, 2, 60, 89
4, 17880, Note_on_c, 2, 48, 95
4, 17940, Note_on_c, 2, 48, 0
4, 17940, Note_on_c, 2, 60, 0
4, 18240, Note_on_c, 2, 48, 99
4, 18240, Note_on_c, 2, 36, 104
4, 18360, Note_on_c, 2, 36, 0
4, 18360, Note_on_c, 2, 48, 0
4, 18480, Note_on_c, 2, 48, 95
4, 18480, Note_on_c, 2, 36, 105
4, 18600, Note_on_c, 2, 36, 0
4, 18600, Note_on_c, 2, 48, 0
4, 18720, Note_on_c, 2, 48, 99
4, 18720, Note_on_c, 2, 36, 105
4, 18840, Note_on_c, 2, 36, 0
4, 18840, Note_on_c, 2, 48, 0
4, 20160, Note_on_c, 2, 61, 50
4, 20640, Note_on_c, 2, 61, 0
4, 20640, Note_on_c, 2, 53, 45
4, 20640, Note_on_c, 2, 61, 41
4, 21120, Note_on_c, 2, 61, 0
4, 21120, Note_on_c, 2, 53, 0
4, 21120, Note_on_c, 2, 51, 56
4, 21120, Note_on_c, 2, 61, 49
4, 21600, Note_on_c, 2, 61, 0
4, 21600, Note_on_c, 2, 51, 0
4, 21600, Note_on_c, 2, 51, 62
4, 21600, Note_on_c, 2, 60, 31
4, 22080, Note_on_c, 2, 60, 0
4, 22080, Note_on_c, 2, 51, 0
4, 22080, Note_on_c, 2, 53, 63
4, 22080, Note_on_c, 2, 61, 41
4, 22560, Note_on_c, 2, 61, 0
4, 22560, Note_on_c, 2, 53, 0
4, 22560, Note_on_c, 2, 58, 48
4, 22560, Note_on_c, 2, 61, 57
4, 23040, Note_on_c, 2, 61, 0
4, 23040, Note_on_c, 2, 58, 0
4, 23040, Note_on_c, 2, 58, 38
4, 23040, Note_on_c, 2, 60, 44
4, 23520, Note_on_c, 2, 60, 0
4, 23520, Note_on_c, 2, 58, 0
4, 23520, Note_on_c, 2, 57, 61
4, 23520, Note_on_c, 2, 60, 58
4, 24000, Note_on_c, 2, 60, 0
4, 24000, Note_on_c, 2, 57, 0
4, 24000, Note_on_c, 2, 61, 50
4, 24000, Note_on_c, 2, 58, 54
4, 24120, Note_on_c, 2, 58, 0
4, 24120, Note_on_c, 2, 61, 0
4, 24480, Note_on_c, 2, 60, 80
4, 24480, Note_on_c, 2, 63, 85
4, 24482, Control_c, 2, 7, 99
4, 24486, Control_c, 2, 7, 98
4, 24488, Control_c, 2, 7, 97
4, 24492, Control_c, 2, 7, 96
4, 24494, Control_c, 2, 7, 95
4, 24498, Control_c, 2, 7, 94
4, 24500, Control_c, 2, 7, 93
4, 24504, Control_c, 2, 7, 92
4, 24506, Control_c, 2, 7, 91
4, 24510, Control_c, 2, 7, 90
4, 24512, Control_c, 2, 7, 89
4, 24516, Control_c, 2, 7, 88
4, 24518, Control_c, 2, 7, 87
4, 24522, Control_c, 2, 7, 86
4, 24524, Control_c, 2, 7, 85
4, 24528, Control_c, 2, 7, 84
4, 24530, Control_c, 2, 7, 83
4, 24534, Control_c, 2, 7, 82
4, 24536, Control_c, 2, 7, 81
4, 24540, Control_c, 2, 7, 80
4, 24542, Control_c, 2, 7, 79
4, 24544, Control_c, 2, 7, 78
4, 24548, Control_c, 2, 7, 77
4, 24550, Control_c, 2, 7, 76
4, 24554, Control_c, 2, 7, 75
4, 24556, Control_c, 2, 7, 74
4, 24560, Control_c, 2, 7, 73
4, 24562, Control_c, 2, 7, 72
4, 24566, Control_c, 2, 7, 71
4, 24568, Control_c, 2, 7, 70
4, 24572, Control_c, 2, 7, 69
4, 24574, Control_c, 2, 7, 68
4, 24578, Control_c, 2, 7, 67
4, 24580, Control_c, 2, 7, 66
4, 24584, Control_c, 2, 7, 65
4, 24586, Control_c, 2, 7, 64
4, 24590, Control_c, 2, 7, 63
4, 24592, Control_c, 2, 7, 62
4, 24596, Control_c, 2, 7, 61
4, 24598, Control_c, 2, 7, 60
4, 24600, Control_c, 2, 7, 59
4, 24960, Note_on_c, 2, 63, 0
4, 24960, Note_on_c, 2, 60, 0
4, 24960, Note_on_c, 2, 61, 76
4, 24960, Note_on_c, 2, 58, 52
4, 25020, Note_on_c, 2, 58, 0
4, 25020, Note_on_c, 2, 61, 0
4, 25438, Control_c, 2, 7, 99
4, 25440, Note_on_c, 2, 60, 84
4, 25440, Note_on_c, 2, 63, 94
4, 25442, Control_c, 2, 7, 98
4, 25444, Control_c, 2, 7, 97
4, 25448, Control_c, 2, 7, 96
4, 25450, Control_c, 2, 7, 95
4, 25454, Control_c, 2, 7, 94
4, 25456, Control_c, 2, 7, 93
4, 25460, Control_c, 2, 7, 92
4, 25462, Control_c, 2, 7, 91
4, 25466, Control_c, 2, 7, 90
4, 25468, Control_c, 2, 7, 89
4, 25472, Control_c, 2, 7, 88
4, 25474, Control_c, 2, 7, 87
4, 25478, Control_c, 2, 7, 86
4, 25480, Control_c, 2, 7, 85
4, 25484, Control_c, 2, 7, 84
4, 25486, Control_c, 2, 7, 83
4, 25490, Control_c, 2, 7, 82
4, 25492, Control_c, 2, 7, 81
4, 25496, Control_c, 2, 7, 80
4, 25498, Control_c, 2, 7, 79
4, 25502, Control_c, 2, 7, 78
4, 25504, Control_c, 2, 7, 77
4, 25508, Control_c, 2, 7, 76
4, 25510, Control_c, 2, 7, 75
4, 25514, Control_c, 2, 7, 74
4, 25516, Control_c, 2, 7, 73
4, 25520, Control_c, 2, 7, 72
4, 25522, Control_c, 2, 7, 71
4, 25526, Control_c, 2, 7, 70
4, 25528, Control_c, 2, 7, 69
4, 25532, Control_c, 2, 7, 68
4, 25534, Control_c, 2, 7, 67
4, 25538, Control_c, 2, 7, 66
4, 25540, Control_c, 2, 7, 65
4, 25544, Control_c, 2, 7, 64
4, 25546, Control_c, 2, 7, 63
4, 25550, Control_c, 2, 7, 62
4, 25552, Control_c, 2, 7, 61
4, 25556, Control_c, 2, 7, 60
4, 25558, Control_c, 2, 7, 59
4, 25920, Note_on_c, 2, 63, 0
4, 25920, Note_on_c, 2, 60, 0
4, 25920, Note_on_c, 2, 61, 81
4, 25920, Note_on_c, 2, 58, 77
4, 25980, Note_on_c, 2, 58, 0
4, 25980, Note_on_c, 2, 61, 0
4, 26038, Control_c, 2, 7, 59
4, 26040, Note_on_c, 2, 61, 84
4, 26040, Note_on_c, 2, 58, 84
4, 26048, Control_c, 2, 7, 60
4, 26058, Control_c, 2, 7, 61
4, 26066, Control_c, 2, 7, 62
4, 26076, Control_c, 2, 7, 63
4, 26084, Control_c, 2, 7, 64
4, 26094, Control_c, 2, 7, 65
4, 26102, Control_c, 2, 7, 66
4, 26112, Control_c, 2, 7, 67
4, 26120, Control_c, 2, 7, 68
4, 26130, Control_c, 2, 7, 69
4, 26138, Control_c, 2, 7, 70
4, 26148, Control_c, 2, 7, 71
4, 26156, Control_c, 2, 7, 72
4, 26166, Control_c, 2, 7, 73
4, 26174, Control_c, 2, 7, 74
4, 26184, Control_c, 2, 7, 75
4, 26192, Control_c, 2, 7, 76
4, 26202, Control_c, 2, 7, 77
4, 26210, Control_c, 2, 7, 78
4, 26220, Control_c, 2, 7, 79
4, 26230, Control_c, 2, 7, 80
4, 26238, Control_c, 2, 7, 81
4, 26248, Control_c, 2, 7, 82
4, 26256, Control_c, 2, 7, 83
4, 26266, Control_c, 2, 7, 84
4, 26274, Control_c, 2, 7, 85
4, 26280, Note_on_c, 2, 58, 0
4, 26280, Note_on_c, 2, 61, 0
4, 26280, Note_on_c, 2, 58, 84
4, 26280, Note_on_c, 2, 61, 84
4, 26284, Control_c, 2, 7, 86
4, 26292, Control_c, 2, 7, 87
4, 26302, Control_c, 2, 7, 88
4, 26310, Control_c, 2, 7, 89
4, 26320, Control_c, 2, 7, 90
4, 26328, Control_c, 2, 7, 91
4, 26338, Control_c, 2, 7, 92
4, 26346, Control_c, 2, 7, 93
4, 26356, Control_c, 2, 7, 94
4, 26364, Control_c, 2, 7, 95
4, 26374, Control_c, 2, 7, 96
4, 26382, Control_c, 2, 7, 97
4, 26392, Control_c, 2, 7, 98
4, 26400, Note_on_c, 2, 61, 0
4, 26400, Note_on_c, 2, 58, 0
4, 26400, Note_on_c, 2, 58, 78
4, 26400, Note_on_c, 2, 60, 89
4, 26400, Control_c, 2, 7, 99
4, 26880, Note_on_c, 2, 60, 0
4, 26880, Note_on_c, 2, 58, 0
4, 26880, Note_on_c, 2, 60, 72
4, 26880, Note_on_c, 2, 57, 89
4, 27000, Note_on_c, 2, 57, 0
4, 27000, Note_on_c, 2, 60, 0
4, 27600, Note_on_c, 2, 62, 43
4, 27600, Note_on_c, 2, 58, 41
4, 27660, Note_on_c, 2, 58, 0
4, 27660, Note_on_c, 2, 62, 0
4, 28080, Note_on_c, 2, 63, 42
4, 28080, Note_on_c, 2, 60, 37
4, 28140, Note_on_c, 2, 60, 0
4, 28140, Note_on_c, 2, 63, 0
4, 28560, Note_on_c, 2, 65, 42
4, 28560, Note_on_c, 2, 62, 45
4, 28620, Note_on_c, 2, 62, 0
4, 28620, Note_on_c, 2, 65, 0
4, 29040, Note_on_c, 2, 67, 58
4, 29040, Note_on_c, 2, 63, 64
4, 29100, Note_on_c, 2, 63, 0
4, 29100, Note_on_c, 2, 67, 0
4, 29520, Note_on_c, 2, 63, 84
4, 29520, Note_on_c, 2, 60, 67
4, 29580, Note_on_c, 2, 60, 0
4, 29580, Note_on_c, 2, 63, 0
4, 29760, Control_c, 2, 7, 99
4, 29760, Note_on_c, 2, 62, 76
4, 29760, Note_on_c, 2, 58, 78
4, 29766, Control_c, 2, 7, 98
4, 29770, Control_c, 2, 7, 97
4, 29776, Control_c, 2, 7, 96
4, 29780, Control_c, 2, 7, 95
4, 29786, Control_c, 2, 7, 94
4, 29790, Control_c, 2, 7, 93
4, 29796, Control_c, 2, 7, 92
4, 29800, Control_c, 2, 7, 91
4, 29806, Control_c, 2, 7, 90
4, 29810, Control_c, 2, 7, 89
4, 29816, Control_c, 2, 7, 88
4, 29820, Control_c, 2, 7, 87
4, 29826, Control_c, 2, 7, 86
4, 29830, Control_c, 2, 7, 85
4, 29836, Control_c, 2, 7, 84
4, 29840, Control_c, 2, 7, 83
4, 29846, Control_c, 2, 7, 82
4, 29850, Control_c, 2, 7, 81
4, 29856, Control_c, 2, 7, 80
4, 29860, Control_c, 2, 7, 79
4, 29866, Control_c, 2, 7, 78
4, 29870, Control_c, 2, 7, 77
4, 29876, Control_c, 2, 7, 76
4, 29880, Control_c, 2, 7, 75
4, 29886, Control_c, 2, 7, 74
4, 29890, Control_c, 2, 7, 73
4, 29896, Control_c, 2, 7, 72
4, 29900, Control_c, 2, 7, 71
4, 29906, Control_c, 2, 7, 70
4, 29910, Control_c, 2, 7, 69
4, 29916, Control_c, 2, 7, 68
4, 29920, Control_c, 2, 7, 67
4, 29926, Control_c, 2, 7, 66
4, 29930, Control_c, 2, 7, 65
4, 29936, Control_c, 2, 7, 64
4, 29940, Note_on_c, 2, 58, 0
4, 29940, Note_on_c, 2, 62, 0
4, 29940, Control_c, 2, 7, 63
4, 30118, Control_c, 2, 7, 63
4, 30122, Control_c, 2, 7, 64
4, 30126, Control_c, 2, 7, 65
4, 30130, Control_c, 2, 7, 66
4, 30132, Control_c, 2, 7, 67
4, 30136, Control_c, 2, 7, 68
4, 30140, Control_c, 2, 7, 69
4, 30144, Control_c, 2, 7, 70
4, 30146, Control_c, 2, 7, 71
4, 30150, Control_c, 2, 7, 72
4, 30154, Control_c, 2, 7, 73
4, 30156, Control_c, 2, 7, 74
4, 30160, Control_c, 2, 7, 75
4, 30164, Control_c, 2, 7, 76
4, 30168, Control_c, 2, 7, 77
4, 30170, Control_c, 2, 7, 78
4, 30174, Control_c, 2, 7, 79
4, 30178, Control_c, 2, 7, 80
4, 30180, Control_c, 2, 7, 81
4, 30184, Control_c, 2, 7, 82
4, 30188, Control_c, 2, 7, 83
4, 30192, Control_c, 2, 7, 84
4, 30194, Control_c, 2, 7, 85
4, 30198, Control_c, 2, 7, 86
4, 30202, Control_c, 2, 7, 87
4, 30206, Control_c, 2, 7, 88
4, 30208, Control_c, 2, 7, 89
4, 30212, Control_c, 2, 7, 90
4, 30216, Control_c, 2, 7, 91
4, 30218, Control_c, 2, 7, 92
4, 30222, Control_c, 2, 7, 93
4, 30226, Control_c, 2, 7, 94
4, 30230, Control_c, 2, 7, 95
4, 30232, Control_c, 2, 7, 96
4, 30236, Control_c, 2, 7, 97
4, 30240, Control_c, 2, 7, 98
4, 30242, Control_c, 2, 7, 99
4, 30720, Note_on_c, 2, 51, 94
4, 30780, Note_on_c, 2, 51, 0
4, 30840, Note_on_c, 2, 57, 81
4, 30900, Note_on_c, 2, 57, 0
4, 30960, Note_on_c, 2, 60, 60
4, 31020, Note_on_c, 2, 60, 0
4, 31080, Note_on_c, 2, 63, 62
4, 31140, Note_on_c, 2, 63, 0
4, 31200, Note_on_c, 2, 57, 57
4, 31320, Note_on_c, 2, 57, 0
4, 31680, Note_on_c, 2, 53, 93
4, 31740, Note_on_c, 2, 53, 0
4, 31800, Note_on_c, 2, 59, 58
4, 31860, Note_on_c, 2, 59, 0
4, 31920, Note_on_c, 2, 62, 44
4, 31980, Note_on_c, 2, 62, 0
4, 32040, Note_on_c, 2, 65, 57
4, 32100, Note_on_c, 2, 65, 0
4, 32160, Note_on_c, 2, 59, 45
4, 32280, Note_on_c, 2, 59, 0
4, 32640, Note_on_c, 2, 60, 85
4, 32640, Note_on_c, 2, 55, 89
4, 32820, Note_on_c, 2, 55, 0
4, 32820, Note_on_c, 2, 60, 0
4, 33120, Note_on_c, 2, 62, 85
4, 33120, Note_on_c, 2, 56, 89
4, 33300, Note_on_c, 2, 56, 0
4, 33300, Note_on_c, 2, 62, 0
4, 33600, Note_on_c, 2, 62, 89
4, 33600, Note_on_c, 2, 56, 90
4, 33780, Note_on_c, 2, 56, 0
4, 33780, Note_on_c, 2, 62, 0
4, 34080, Note_on_c, 2, 63, 80
4, 34080, Note_on_c, 2, 58, 89
4, 34260, Note_on_c, 2, 58, 0
4, 34260, Note_on_c, 2, 63, 0
4, 34560, Note_on_c, 2, 61, 68
4, 34560, Note_on_c, 2, 58, 94
4, 34740, Note_on_c, 2, 58, 0
4, 34740, Note_on_c, 2, 61, 0
4, 35520, Note_on_c, 2, 46, 86
4, 35580, Note_on_c, 2, 46, 0
4, 35640, Note_on_c, 2, 58, 90
4, 35880, Note_on_c, 2, 58, 0
4, 35880, Note_on_c, 2, 57, 89
4, 35940, Note_on_c, 2, 57, 0
4, 36000, Note_on_c, 2, 51, 85
4, 36060, Note_on_c, 2, 51, 0
4, 36120, Note_on_c, 2, 63, 94
4, 36360, Note_on_c, 2, 63, 0
4, 36360, Note_on_c, 2, 62, 93
4, 36480, Note_on_c, 2, 62, 0
4, 36480, Note_on_c, 2, 53, 98
4, 36540, Note_on_c, 2, 53, 0
4, 36600, Note_on_c, 2, 65, 105
4, 36780, Note_on_c, 2, 65, 0
4, 36780, Note_on_c, 2, 63, 90
4, 36840, Note_on_c, 2, 63, 0
4, 36840, Note_on_c, 2, 62, 84
4, 36900, Note_on_c, 2, 62, 0
4, 36900, Note_on_c, 2, 60, 81
4, 36960, Note_on_c, 2, 60, 0
4, 36960, Note_on_c, 2, 65, 95
4, 37020, Note_on_c, 2, 65, 0
4, 37080, Note_on_c, 2, 53, 93
4, 37140, Note_on_c, 2, 53, 0
4, 37200, Note_on_c, 2, 53, 94
4, 37260, Note_on_c, 2, 53, 0
4, 37320, Note_on_c, 2, 53, 95
4, 37380, Note_on_c, 2, 53, 0
4, 37440, Note_on_c, 2, 62, 99
4, 37440, Note_on_c, 2, 59, 98
4, 37680, Note_on_c, 2, 59, 0
4, 37680, Note_on_c, 2, 62, 0
4, 37680, Note_on_c, 2, 63, 84
4, 37680, Note_on_c, 2, 60, 73
4, 37800, Note_on_c, 2, 60, 0
4, 37800, Note_on_c, 2, 63, 0
4, 37800, Note_on_c, 2, 65, 94
4, 37800, Note_on_c, 2, 62, 78
4, 37860, Note_on_c, 2, 62, 0
4, 37860, Note_on_c, 2, 65, 0
4, 37860, Note_on_c, 2, 63, 84
4, 37860, Note_on_c, 2, 67, 71
4, 37920, Note_on_c, 2, 67, 0
4, 37920, Note_on_c, 2, 63, 0
4, 37920, Note_on_c, 2, 62, 78
4, 37920, Note_on_c, 2, 58, 80
4, 38160, Note_on_c, 2, 58, 0
4, 38160, Note_on_c, 2, 62, 0
4, 38160, Note_on_c, 2, 63, 89
4, 38160, Note_on_c, 2, 60, 77
4, 38340, Note_on_c, 2, 60, 0
4, 38340, Note_on_c, 2, 63, 0
4, 38340, Note_on_c, 2, 57, 90
4, 38340, Note_on_c, 2, 60, 82
4, 38400, Note_on_c, 2, 60, 0
4, 38400, Note_on_c, 2, 57, 0
4, 38400, Note_on_c, 2, 62, 98
4, 38400, Note_on_c, 2, 58, 95
4, 38640, Note_on_c, 2, 58, 0
4, 38640, Note_on_c, 2, 59, 105
4, 38880, Note_on_c, 2, 59, 0
4, 38880, Note_on_c, 2, 62, 0
4, 38880, Note_on_c, 2, 63, 94
4, 38880, Note_on_c, 2, 60, 94
4, 39120, Note_on_c, 2, 60, 0
4, 39120, Note_on_c, 2, 63, 0
4, 39120, Note_on_c, 2, 57, 105
4, 39120, Note_on_c, 2, 60, 99
4, 39360, Note_on_c, 2, 60, 0
4, 39360, Note_on_c, 2, 57, 0
4, 39360, Note_on_c, 2, 62, 99
4, 39360, Note_on_c, 2, 58, 98
4, 39600, Note_on_c, 2, 58, 0
4, 39600, Note_on_c, 2, 59, 104
4, 39840, Note_on_c, 2, 59, 0
4, 39840, Note_on_c, 2, 62, 0
4, 39840, Note_on_c, 2, 63, 73
4, 39840, Note_on_c, 2, 60, 98
4, 40080, Note_on_c, 2, 60, 0
4, 40080, Note_on_c, 2, 63, 0
4, 40080, Note_on_c, 2, 57, 99
4, 40080, Note_on_c, 2, 60, 84
4, 40320, Note_on_c, 2, 60, 0
4, 40320, Note_on_c, 2, 57, 0
4, 40320, Note_on_c, 2, 58, 90
4, 40440, Note_on_c, 2, 58, 0
4, 41400, Note_on_c, 2, 62, 63
4, 41400, Note_on_c, 2, 58, 63
4, 41490, Note_on_c, 2, 58, 0
4, 41490, Note_on_c, 2, 62, 0
4, 41520, Note_on_c, 2, 62, 67
4, 41520, Note_on_c, 2, 58, 64
4, 41610, Note_on_c, 2, 58, 0
4, 41610, Note_on_c, 2, 62, 0
4, 41640, Note_on_c, 2, 62, 57
4, 41640, Note_on_c, 2, 58, 65
4, 41730, Note_on_c, 2, 58, 0
4, 41730, Note_on_c, 2, 62, 0
4, 41760, Note_on_c, 2, 60, 68
4, 41760, Note_on_c, 2, 63, 73
4, 41760, Control_c, 2, 7, 99
4, 41770, Control_c, 2, 7, 100
4, 41778, Control_c, 2, 7, 101
4, 41786, Control_c, 2, 7, 102
4, 41796, Control_c, 2, 7, 103
4, 41804, Control_c, 2, 7, 104
4, 41812, Control_c, 2, 7, 105
4, 41820, Control_c, 2, 7, 106
4, 41830, Control_c, 2, 7, 107
4, 41838, Control_c, 2, 7, 108
4, 41846, Control_c, 2, 7, 109
4, 41856, Control_c, 2, 7, 110
4, 41864, Control_c, 2, 7, 111
4, 41872, Control_c, 2, 7, 112
4, 41880, Control_c, 2, 7, 113
4, 41890, Control_c, 2, 7, 114
4, 41898, Control_c, 2, 7, 115
4, 41906, Control_c, 2, 7, 116
4, 41916, Control_c, 2, 7, 117
4, 41924, Control_c, 2, 7, 118
4, 41932, Control_c, 2, 7, 119
4, 41940, Control_c, 2, 7, 120
4, 41950, Control_c, 2, 7, 121
4, 41958, Control_c, 2, 7, 122
4, 41966, Control_c, 2, 7, 123
4, 41976, Control_c, 2, 7, 124
4, 41984, Control_c, 2, 7, 125
4, 41992, Control_c, 2, 7, 126
4, 42000, Control_c, 2, 7, 127
4, 42010, Control_c, 2, 7, 126
4, 42018, Control_c, 2, 7, 125
4, 42026, Control_c, 2, 7, 124
4, 42036, Control_c, 2, 7, 123
4, 42044, Control_c, 2, 7, 122
4, 42052, Control_c, 2, 7, 121
4, 42060, Control_c, 2, 7, 120
4, 42070, Control_c, 2, 7, 119
4, 42078, Control_c, 2, 7, 118
4, 42086, Control_c, 2, 7, 117
4, 42096, Control_c, 2, 7, 116
4, 42104, Control_c, 2, 7, 115
4, 42112, Control_c, 2, 7, 114
4, 42120, Control_c, 2, 7, 113
4, 42130, Control_c, 2, 7, 112
4, 42138, Control_c, 2, 7, 111
4, 42146, Control_c, 2, 7, 110
4, 42156, Control_c, 2, 7, 109
4, 42164, Control_c, 2, 7, 108
4, 42172, Control_c, 2, 7, 107
4, 42180, Control_c, 2, 7, 106
4, 42190, Control_c, 2, 7, 105
4, 42198, Control_c, 2, 7, 104
4, 42206, Control_c, 2, 7, 103
4, 42216, Control_c, 2, 7, 102
4, 42224, Control_c, 2, 7, 101
4, 42232, Control_c, 2, 7, 100
4, 42240, Note_on_c, 2, 63, 0
4, 42240, Note_on_c, 2, 60, 0
4, 42240, Control_c, 2, 7, 99
4, 42240, Note_on_c, 2, 62, 64
4, 42240, Note_on_c, 2, 58, 59
4, 42360, Note_on_c, 2, 58, 0
4, 42360, Note_on_c, 2, 62, 0
4, 42480, Note_on_c, 2, 62, 86
4, 42480, Note_on_c, 2, 53, 94
4, 42600, Note_on_c, 2, 53, 0
4, 42600, Note_on_c, 2, 62, 0
4, 42720, Note_on_c, 2, 58, 76
4, 42720, Note_on_c, 2, 50, 104
4, 42840, Note_on_c, 2, 50, 0
4, 42840, Note_on_c, 2, 58, 0
4, 48480, Note_on_c, 2, 46, 94
4, 48480, Note_on_c, 2, 58, 85
4, 48520, Control_c, 2, 7, 99
4, 48524, Control_c, 2, 7, 98
4, 48526, Control_c, 2, 7, 97
4, 48528, Control_c, 2, 7, 96
4, 48530, Control_c, 2, 7, 95
4, 48532, Control_c, 2, 7, 94
4, 48534, Control_c, 2, 7, 93
4, 48536, Control_c, 2, 7, 92
4, 48540, Control_c, 2, 7, 91
4, 48542, Control_c, 2, 7, 90
4, 48544, Control_c, 2, 7, 89
4, 48546, Control_c, 2, 7, 88
4, 48548, Control_c, 2, 7, 87
4, 48550, Control_c, 2, 7, 86
4, 48552, Control_c, 2, 7, 85
4, 48556, Control_c, 2, 7, 84
4, 48558, Control_c, 2, 7, 83
4, 48560, Control_c, 2, 7, 82
4, 48562, Control_c, 2, 7, 81
4, 48564, Control_c, 2, 7, 80
4, 48566, Control_c, 2, 7, 79
4, 48568, Control_c, 2, 7, 78
4, 48570, Control_c, 2, 7, 77
4, 48574, Control_c, 2, 7, 76
4, 48576, Control_c, 2, 7, 75
4, 48578, Control_c, 2, 7, 74
4, 48580, Control_c, 2, 7, 73
4, 48582, Control_c, 2, 7, 72
4, 48584, Control_c, 2, 7, 71
4, 48586, Control_c, 2, 7, 70
4, 48590, Control_c, 2, 7, 69
4, 48592, Control_c, 2, 7, 68
4, 48594, Control_c, 2, 7, 67
4, 48596, Control_c, 2, 7, 66
4, 48598, Control_c, 2, 7, 65
4, 48600, Control_c, 2, 7, 64
4, 48602, Control_c, 2, 7, 63
4, 48604, Control_c, 2, 7, 62
4, 48960, Note_on_c, 2, 58, 0
4, 48960, Note_on_c, 2, 46, 0
4, 48960, Note_on_c, 2, 46, 99
4, 48960, Note_on_c, 2, 58, 84
4, 49440, Control_c, 2, 7, 63
4, 49454, Control_c, 2, 7, 64
4, 49468, Control_c, 2, 7, 65
4, 49480, Control_c, 2, 7, 66
4, 49494, Control_c, 2, 7, 67
4, 49508, Control_c, 2, 7, 68
4, 49520, Control_c, 2, 7, 69
4, 49534, Control_c, 2, 7, 70
4, 49548, Control_c, 2, 7, 71
4, 49560, Control_c, 2, 7, 72
4, 49574, Control_c, 2, 7, 73
4, 49588, Control_c, 2, 7, 74
4, 49600, Control_c, 2, 7, 75
4, 49614, Control_c, 2, 7, 76
4, 49628, Control_c, 2, 7, 77
4, 49640, Control_c, 2, 7, 78
4, 49654, Control_c, 2, 7, 79
4, 49668, Control_c, 2, 7, 80
4, 49680, Note_on_c, 2, 58, 0
4, 49680, Note_on_c, 2, 46, 0
4, 49680, Note_on_c, 2, 56, 81
4, 49680, Note_on_c, 2, 62, 86
4, 49680, Control_c, 2, 7, 81
4, 49694, Control_c, 2, 7, 82
4, 49708, Control_c, 2, 7, 83
4, 49720, Control_c, 2, 7, 84
4, 49734, Control_c, 2, 7, 85
4, 49748, Control_c, 2, 7, 86
4, 49760, Control_c, 2, 7, 87
4, 49774, Control_c, 2, 7, 88
4, 49788, Control_c, 2, 7, 89
4, 49800, Control_c, 2, 7, 90
4, 49814, Control_c, 2, 7, 91
4, 49828, Control_c, 2, 7, 92
4, 49840, Control_c, 2, 7, 93
4, 49854, Control_c, 2, 7, 94
4, 49868, Control_c, 2, 7, 95
4, 49880, Control_c, 2, 7, 96
4, 49894, Control_c, 2, 7, 97
4, 49908, Control_c, 2, 7, 98
4, 49920, Note_on_c, 2, 62, 0
4, 49920, Note_on_c, 2, 56, 0
4, 49920, Control_c, 2, 7, 99
4, 49920, Note_on_c, 2, 63, 72
4, 49920, Note_on_c, 2, 55, 90
4, 50160, Note_on_c, 2, 55, 0
4, 50160, Note_on_c, 2, 63, 0
4, 50160, Note_on_c, 2, 60, 98
4, 50160, Note_on_c, 2, 63, 68
4, 50400, Note_on_c, 2, 63, 0
4, 50400, Note_on_c, 2, 60, 0
4, 50400, Note_on_c, 2, 62, 82
4, 50400, Note_on_c, 2, 58, 76
4, 50520, Note_on_c, 2, 58, 0
4, 50520, Note_on_c, 2, 62, 0
4, 58740, Note_on_c, 2, 60, 62
4, 58800, Note_on_c, 2, 60, 0
4, 58800, Note_on_c, 2, 55, 62
4, 58860, Note_on_c, 2, 55, 0
4, 58980, Note_on_c, 2, 55, 66
4, 59040, Note_on_c, 2, 55, 0
4, 59040, Note_on_c, 2, 48, 66
4, 59100, Note_on_c, 2, 48, 0
4, 60720, Note_on_c, 2, 60, 76
4, 60810, Note_on_c, 2, 60, 0
4, 60840, Note_on_c, 2, 60, 89
4, 60930, Note_on_c, 2, 60, 0
4, 60960, Note_on_c, 2, 65, 89
4, 60960, Note_on_c, 2, 53, 90
4, 61018, Control_c, 2, 7, 98
4, 61020, Control_c, 2, 7, 97
4, 61022, Control_c, 2, 7, 96
4, 61024, Control_c, 2, 7, 95
4, 61026, Control_c, 2, 7, 94
4, 61028, Control_c, 2, 7, 93
4, 61030, Control_c, 2, 7, 92
4, 61032, Control_c, 2, 7, 91
4, 61034, Control_c, 2, 7, 90
4, 61036, Control_c, 2, 7, 89
4, 61038, Control_c, 2, 7, 88
4, 61040, Control_c, 2, 7, 87
4, 61042, Control_c, 2, 7, 86
4, 61044, Control_c, 2, 7, 85
4, 61046, Control_c, 2, 7, 84
4, 61048, Control_c, 2, 7, 83
4, 61050, Control_c, 2, 7, 82
4, 61052, Control_c, 2, 7, 81
4, 61054, Control_c, 2, 7, 80
4, 61056, Control_c, 2, 7, 79
4, 61058, Control_c, 2, 7, 78
4, 61060, Control_c, 2, 7, 77
4, 61062, Control_c, 2, 7, 76
4, 61064, Control_c, 2, 7, 75
4, 61066, Control_c, 2, 7, 74
4, 61068, Control_c, 2, 7, 73
4, 61070, Control_c, 2, 7, 72
4, 61072, Control_c, 2, 7, 71
4, 61074, Control_c, 2, 7, 70
4, 61076, Control_c, 2, 7, 69
4, 61078, Control_c, 2, 7, 68
4, 61080, Control_c, 2, 7, 66
4, 61200, Note_on_c, 2, 53, 0
4, 61200, Note_on_c, 2, 65, 0
4, 61200, Note_on_c, 2, 48, 99
4, 61200, Note_on_c, 2, 64, 93
4, 61260, Note_on_c, 2, 64, 0
4, 61260, Note_on_c, 2, 62, 94
4, 61320, Note_on_c, 2, 62, 0
4, 61320, Note_on_c, 2, 60, 99
4, 61380, Note_on_c, 2, 60, 0
4, 61380, Note_on_c, 2, 58, 95
4, 61440, Note_on_c, 2, 58, 0
4, 61440, Note_on_c, 2, 48, 0
4, 61440, Note_on_c, 2, 57, 86
4, 61440, Note_on_c, 2, 50, 104
4, 61560, Note_on_c, 2, 50, 0
4, 61560, Note_on_c, 2, 57, 0
4, 61920, Note_on_c, 2, 62, 85
4, 61920, Note_on_c, 2, 46, 90
4, 61980, Note_on_c, 2, 46, 0
4, 61980, Note_on_c, 2, 62, 0
4, 62040, Note_on_c, 2, 62, 70
4, 62040, Note_on_c, 2, 58, 80
4, 62100, Note_on_c, 2, 58, 0
4, 62100, Note_on_c, 2, 62, 0
4, 62160, Note_on_c, 2, 62, 70
4, 62160, Note_on_c, 2, 58, 80
4, 62220, Note_on_c, 2, 58, 0
4, 62220, Note_on_c, 2, 62, 0
4, 62280, Note_on_c, 2, 60, 64
4, 62280, Note_on_c, 2, 57, 90
4, 62340, Note_on_c, 2, 57, 0
4, 62340, Note_on_c, 2, 60, 0
4, 62400, Control_c, 2, 7, 99
4, 62400, Note_on_c, 2, 60, 82
4, 62400, Note_on_c, 2, 57, 99
4, 62640, Note_on_c, 2, 57, 0
4, 62640, Note_on_c, 2, 60, 0
4, 62640, Note_on_c, 2, 58, 80
4, 62640, Note_on_c, 2, 55, 76
4, 62760, Note_on_c, 2, 55, 0
4, 62760, Note_on_c, 2, 58, 0
4, 62880, Note_on_c, 2, 64, 85
4, 62880, Note_on_c, 2, 55, 99
4, 62940, Control_c, 2, 7, 100
4, 62942, Control_c, 2, 7, 99
4, 62944, Control_c, 2, 7, 98
4, 62946, Control_c, 2, 7, 97
4, 62948, Control_c, 2, 7, 96
4, 62950, Control_c, 2, 7, 95
4, 62952, Control_c, 2, 7, 94
4, 62954, Control_c, 2, 7, 93
4, 62956, Control_c, 2, 7, 91
4, 62958, Control_c, 2, 7, 90
4, 62960, Control_c, 2, 7, 89
4, 62962, Control_c, 2, 7, 88
4, 62964, Control_c, 2, 7, 87
4, 62966, Control_c, 2, 7, 86
4, 62968, Control_c, 2, 7, 85
4, 62970, Control_c, 2, 7, 83
4, 62972, Control_c, 2, 7, 82
4, 62974, Control_c, 2, 7, 81
4, 62976, Control_c, 2, 7, 80
4, 62978, Control_c, 2, 7, 79
4, 62980, Control_c, 2, 7, 78
4, 62982, Control_c, 2, 7, 77
4, 62984, Control_c, 2, 7, 76
4, 62986, Control_c, 2, 7, 74
4, 62988, Control_c, 2, 7, 73
4, 62990, Control_c, 2, 7, 72
4, 62992, Control_c, 2, 7, 71
4, 62994, Control_c, 2, 7, 70
4, 62996, Control_c, 2, 7, 69
4, 62998, Control_c, 2, 7, 68
4, 63000, Control_c, 2, 7, 66
4, 63120, Note_on_c, 2, 55, 0
4, 63120, Note_on_c, 2, 64, 0
4, 63120, Note_on_c, 2, 58, 85
4, 63120, Note_on_c, 2, 67, 89
4, 63360, Note_on_c, 2, 67, 0
4, 63360, Note_on_c, 2, 58, 0
4, 63360, Note_on_c, 2, 65, 81
4, 63360, Note_on_c, 2, 57, 94
4, 63480, Note_on_c, 2, 57, 0
4, 63480, Note_on_c, 2, 65, 0
4, 63720, Note_on_c, 2, 53, 84
4, 63720, Note_on_c, 2, 62, 90
4, 63750, Note_on_c, 2, 62, 0
4, 63780, Note_on_c, 2, 60, 95
4, 63810, Note_on_c, 2, 60, 0
4, 63840, Note_on_c, 2, 53, 0
4, 63840, Note_on_c, 2, 59, 99
4, 63840, Note_on_c, 2, 52, 99
4, 63870, Note_on_c, 2, 59, 0
4, 63900, Note_on_c, 2, 60, 93
4, 63930, Note_on_c, 2, 60, 0
4, 63960, Note_on_c, 2, 52, 0
4, 63960, Note_on_c, 2, 55, 94
4, 63960, Note_on_c, 2, 48, 95
4, 63990, Note_on_c, 2, 55, 0
4, 64020, Note_on_c, 2, 60, 94
4, 64050, Note_on_c, 2, 60, 0
4, 64080, Note_on_c, 2, 48, 0
4, 64080, Note_on_c, 2, 58, 94
4, 64080, Note_on_c, 2, 53, 89
4, 64110, Note_on_c, 2, 58, 0
4, 64140, Note_on_c, 2, 57, 104
4, 64170, Note_on_c, 2, 57, 0
4, 64200, Note_on_c, 2, 53, 0
4, 64200, Note_on_c, 2, 57, 95
4, 64200, Note_on_c, 2, 55, 94
4, 64230, Note_on_c, 2, 55, 0
4, 64260, Note_on_c, 2, 53, 94
4, 64290, Note_on_c, 2, 53, 0
4, 64320, Note_on_c, 2, 57, 0
4, 64320, Control_c, 2, 7, 66
4, 64320, Note_on_c, 2, 60, 84
4, 64320, Note_on_c, 2, 48, 89
4, 64328, Control_c, 2, 7, 67
4, 64336, Control_c, 2, 7, 68
4, 64344, Control_c, 2, 7, 69
4, 64352, Control_c, 2, 7, 70
4, 64358, Control_c, 2, 7, 71
4, 64366, Control_c, 2, 7, 72
4, 64374, Control_c, 2, 7, 73
4, 64382, Control_c, 2, 7, 74
4, 64390, Control_c, 2, 7, 75
4, 64396, Control_c, 2, 7, 76
4, 64404, Control_c, 2, 7, 77
4, 64412, Control_c, 2, 7, 78
4, 64420, Control_c, 2, 7, 79
4, 64426, Control_c, 2, 7, 80
4, 64434, Control_c, 2, 7, 81
4, 64440, Note_on_c, 2, 48, 0
4, 64440, Note_on_c, 2, 60, 0
4, 64440, Note_on_c, 2, 59, 89
4, 64440, Note_on_c, 2, 47, 94
4, 64442, Control_c, 2, 7, 82
4, 64450, Control_c, 2, 7, 83
4, 64458, Control_c, 2, 7, 84
4, 64464, Control_c, 2, 7, 85
4, 64472, Control_c, 2, 7, 86
4, 64480, Control_c, 2, 7, 87
4, 64488, Control_c, 2, 7, 88
4, 64494, Control_c, 2, 7, 89
4, 64502, Control_c, 2, 7, 90
4, 64510, Control_c, 2, 7, 91
4, 64518, Control_c, 2, 7, 92
4, 64526, Control_c, 2, 7, 93
4, 64532, Control_c, 2, 7, 94
4, 64540, Control_c, 2, 7, 95
4, 64548, Control_c, 2, 7, 96
4, 64556, Control_c, 2, 7, 97
4, 64560, Note_on_c, 2, 47, 0
4, 64560, Note_on_c, 2, 59, 0
4, 64560, Note_on_c, 2, 60, 81
4, 64560, Note_on_c, 2, 48, 95
4, 64562, Control_c, 2, 7, 98
4, 64566, Control_c, 2, 7, 97
4, 64570, Control_c, 2, 7, 96
4, 64574, Control_c, 2, 7, 95
4, 64578, Control_c, 2, 7, 94
4, 64582, Control_c, 2, 7, 93
4, 64584, Control_c, 2, 7, 92
4, 64588, Control_c, 2, 7, 91
4, 64592, Control_c, 2, 7, 90
4, 64596, Control_c, 2, 7, 89
4, 64600, Control_c, 2, 7, 88
4, 64602, Control_c, 2, 7, 87
4, 64606, Control_c, 2, 7, 86
4, 64610, Control_c, 2, 7, 85
4, 64614, Control_c, 2, 7, 84
4, 64618, Control_c, 2, 7, 83
4, 64620, Control_c, 2, 7, 82
4, 64624, Control_c, 2, 7, 81
4, 64628, Control_c, 2, 7, 80
4, 64632, Control_c, 2, 7, 79
4, 64636, Control_c, 2, 7, 78
4, 64640, Control_c, 2, 7, 77
4, 64642, Control_c, 2, 7, 76
4, 64646, Control_c, 2, 7, 75
4, 64650, Control_c, 2, 7, 74
4, 64654, Control_c, 2, 7, 73
4, 64658, Control_c, 2, 7, 72
4, 64660, Control_c, 2, 7, 71
4, 64664, Control_c, 2, 7, 70
4, 64668, Control_c, 2, 7, 69
4, 64672, Control_c, 2, 7, 68
4, 64676, Control_c, 2, 7, 67
4, 64678, Control_c, 2, 7, 66
4, 64680, Note_on_c, 2, 48, 0
4, 64680, Note_on_c, 2, 60, 0
4, 64740, Control_c, 2, 7, 99
4, 68520, Note_on_c, 2, 58, 61
4, 68520, Note_on_c, 2, 62, 58
4, 68640, Note_on_c, 2, 62, 0
4, 68640, Note_on_c, 2, 58, 0
4, 68640, Note_on_c, 2, 60, 58
4, 68640, Note_on_c, 2, 57, 65
4, 68700, Note_on_c, 2, 57, 0
4, 68700, Note_on_c, 2, 60, 0
4, 68760, Note_on_c, 2, 57, 53
4, 68760, Note_on_c, 2, 53, 52
4, 68820, Note_on_c, 2, 53, 0
4, 68820, Note_on_c, 2, 57, 0
4, 69000, Note_on_c, 2, 58, 60
4, 69000, Note_on_c, 2, 62, 51
4, 69120, Note_on_c, 2, 62, 0
4, 69120, Note_on_c, 2, 58, 0
4, 69120, Note_on_c, 2, 60, 50
4, 69120, Note_on_c, 2, 57, 65
4, 69180, Note_on_c, 2, 57, 0
4, 69180, Note_on_c, 2, 60, 0
4, 69240, Note_on_c, 2, 57, 57
4, 69240, Note_on_c, 2, 53, 46
4, 69300, Note_on_c, 2, 53, 0
4, 69300, Note_on_c, 2, 57, 0
4, 79680, Note_on_c, 2, 52, 65
4, 79680, Note_on_c, 2, 48, 68
4, 79710, Note_on_c, 2, 48, 0
4, 79710, Note_on_c, 2, 52, 0
4, 79740, Note_on_c, 2, 53, 41
4, 79740, Note_on_c, 2, 50, 47
4, 79770, Note_on_c, 2, 50, 0
4, 79770, Note_on_c, 2, 53, 0
4, 79800, Note_on_c, 2, 55, 44
4, 79800, Note_on_c, 2, 52, 77
4, 79830, Note_on_c, 2, 52, 0
4, 79830, Note_on_c, 2, 55, 0
4, 79860, Note_on_c, 2, 57, 68
4, 79860, Note_on_c, 2, 53, 64
4, 79890, Note_on_c, 2, 53, 0
4, 79890, Note_on_c, 2, 57, 0
4, 79920, Note_on_c, 2, 58, 61
4, 79920, Note_on_c, 2, 55, 68
4, 79950, Note_on_c, 2, 55, 0
4, 79950, Note_on_c, 2, 58, 0
4, 79980, Note_on_c, 2, 60, 72
4, 79980, Note_on_c, 2, 57, 67
4, 80010, Note_on_c, 2, 57, 0
4, 80010, Note_on_c, 2, 60, 0
4, 80040, Note_on_c, 2, 62, 62
4, 80040, Note_on_c, 2, 58, 65
4, 80070, Note_on_c, 2, 58, 0
4, 80070, Note_on_c, 2, 62, 0
4, 80100, Note_on_c, 2, 64, 66
4, 80100, Note_on_c, 2, 55, 63
4, 80130, Note_on_c, 2, 55, 0
4, 80130, Note_on_c, 2, 64, 0
4, 80160, Note_on_c, 2, 65, 93
4, 80160, Note_on_c, 2, 53, 89
4, 80400, Note_on_c, 2, 53, 0
4, 80400, Note_on_c, 2, 65, 0
4, 80400, Note_on_c, 2, 57, 94
4, 80400, Note_on_c, 2, 64, 82
4, 80640, Note_on_c, 2, 64, 0
4, 80640, Note_on_c, 2, 57, 0
4, 80640, Note_on_c, 2, 62, 43
4, 80640, Note_on_c, 2, 50, 38
4, 80760, Note_on_c, 2, 50, 0
4, 80760, Note_on_c, 2, 62, 0
4, 85680, Note_on_c, 2, 56, 86
4, 85680, Note_on_c, 2, 59, 94
4, 85920, Note_on_c, 2, 59, 0
4, 85920, Note_on_c, 2, 56, 0
4, 85920, Note_on_c, 2, 60, 81
4, 85920, Note_on_c, 2, 57, 101
4, 85980, Note_on_c, 2, 57, 0
4, 85980, Note_on_c, 2, 60, 0
4, 86640, Note_on_c, 2, 56, 94
4, 86640, Note_on_c, 2, 59, 94
4, 86880, Note_on_c, 2, 59, 0
4, 86880, Note_on_c, 2, 56, 0
4, 86880, Note_on_c, 2, 60, 85
4, 86880, Note_on_c, 2, 57, 99
4, 86940, Note_on_c, 2, 57, 0
4, 86940, Note_on_c, 2, 60, 0
4, 87600, Note_on_c, 2, 56, 101
4, 87600, Note_on_c, 2, 65, 104
4, 87840, Note_on_c, 2, 65, 0
4, 87840, Note_on_c, 2, 56, 0
4, 87840, Note_on_c, 2, 65, 89
4, 87840, Note_on_c, 2, 57, 107
4, 87900, Note_on_c, 2, 57, 0
4, 87900, Note_on_c, 2, 65, 0
4, 94560, Note_on_c, 2, 57, 76
4, 94560, Note_on_c, 2, 60, 63
4, 95040, Note_on_c, 2, 60, 0
4, 95040, Note_on_c, 2, 57, 0
4, 95160, Note_on_c, 2, 57, 76
4, 95160, Note_on_c, 2, 53, 72
4, 95220, Note_on_c, 2, 53, 0
4, 95220, Note_on_c, 2, 57, 0
4, 95280, Note_on_c, 2, 57, 77
4, 95280, Note_on_c, 2, 53, 76
4, 95340, Note_on_c, 2, 53, 0
4, 95340, Note_on_c, 2, 57, 0
4, 95400, Note_on_c, 2, 57, 82
4, 95400, Note_on_c, 2, 53, 72
4, 95460, Note_on_c, 2, 53, 0
4, 95460, Note_on_c, 2, 57, 0
4, 95520, Note_on_c, 2, 55, 81
4, 95520, Note_on_c, 2, 58, 89
4, 96000, Note_on_c, 2, 58, 0
4, 96000, Note_on_c, 2, 55, 0
4, 96120, Note_on_c, 2, 58, 69
4, 96120, Note_on_c, 2, 55, 63
4, 96180, Note_on_c, 2, 55, 0
4, 96180, Note_on_c, 2, 58, 0
4, 96240, Note_on_c, 2, 58, 65
4, 96240, Note_on_c, 2, 55, 65
4, 96300, Note_on_c, 2, 55, 0
4, 96300, Note_on_c, 2, 58, 0
4, 96360, Note_on_c, 2, 58, 68
4, 96360, Note_on_c, 2, 55, 73
4, 96420, Note_on_c, 2, 55, 0
4, 96420, Note_on_c, 2, 58, 0
4, 96480, Note_on_c, 2, 57, 98
4, 96480, Note_on_c, 2, 60, 82
4, 96960, Note_on_c, 2, 60, 0
4, 96960, Note_on_c, 2, 57, 0
4, 96960, Note_on_c, 2, 60, 84
4, 96960, Note_on_c, 2, 57, 99
4, 97080, Note_on_c, 2, 57, 0
4, 97080, Note_on_c, 2, 60, 0
4, 97440, Note_on_c, 2, 45, 86
4, 97500, Note_on_c, 2, 45, 0
4, 97560, Note_on_c, 2, 57, 104
4, 97800, Note_on_c, 2, 57, 0
4, 97800, Note_on_c, 2, 58, 84
4, 97920, Note_on_c, 2, 58, 0
4, 97920, Note_on_c, 2, 60, 89
4, 97980, Note_on_c, 2, 60, 0
4, 98040, Note_on_c, 2, 61, 86
4, 98280, Note_on_c, 2, 61, 0
4, 98280, Note_on_c, 2, 62, 84
4, 98400, Note_on_c, 2, 62, 0
4, 98400, Note_on_c, 2, 62, 74
4, 98400, Note_on_c, 2, 65, 84
4, 98880, Note_on_c, 2, 65, 0
4, 98880, Note_on_c, 2, 62, 0
4, 98880, Note_on_c, 2, 65, 76
4, 98880, Note_on_c, 2, 57, 89
4, 99120, Note_on_c, 2, 57, 0
4, 99120, Note_on_c, 2, 65, 0
4, 99120, Note_on_c, 2, 58, 85
4, 99120, Note_on_c, 2, 64, 80
4, 99360, Note_on_c, 2, 64, 0
4, 99360, Note_on_c, 2, 58, 0
4, 99360, Note_on_c, 2, 65, 80
4, 99360, Note_on_c, 2, 57, 94
4, 99480, Note_on_c, 2, 57, 0
4, 99480, Note_on_c, 2, 65, 0
4, 100440, Note_on_c, 2, 65, 53
4, 100440, Note_on_c, 2, 53, 46
4, 100530, Note_on_c, 2, 53, 0
4, 100530, Note_on_c, 2, 65, 0
4, 100560, Note_on_c, 2, 65, 66
4, 100560, Note_on_c, 2, 53, 58
4, 100650, Note_on_c, 2, 53, 0
4, 100650, Note_on_c, 2, 65, 0
4, 100680, Note_on_c, 2, 65, 53
4, 100680, Note_on_c, 2, 53, 50
4, 100770, Note_on_c, 2, 53, 0
4, 100770, Note_on_c, 2, 65, 0
4, 100800, Note_on_c, 2, 48, 86
4, 100800, Control_c, 2, 7, 68
4, 100800, Note_on_c, 2, 67, 95
4, 100818, Control_c, 2, 7, 69
4, 100836, Control_c, 2, 7, 70
4, 100852, Control_c, 2, 7, 71
4, 100870, Control_c, 2, 7, 72
4, 100888, Control_c, 2, 7, 73
4, 100904, Control_c, 2, 7, 74
4, 100922, Control_c, 2, 7, 75
4, 100940, Control_c, 2, 7, 76
4, 100956, Control_c, 2, 7, 77
4, 100974, Control_c, 2, 7, 78
4, 100992, Control_c, 2, 7, 79
4, 101008, Control_c, 2, 7, 80
4, 101026, Control_c, 2, 7, 81
4, 101040, Note_on_c, 2, 67, 0
4, 101040, Note_on_c, 2, 64, 99
4, 101044, Control_c, 2, 7, 82
4, 101060, Control_c, 2, 7, 83
4, 101078, Control_c, 2, 7, 84
4, 101096, Control_c, 2, 7, 85
4, 101112, Control_c, 2, 7, 86
4, 101130, Control_c, 2, 7, 87
4, 101148, Control_c, 2, 7, 88
4, 101164, Control_c, 2, 7, 89
4, 101182, Control_c, 2, 7, 90
4, 101198, Control_c, 2, 7, 91
4, 101220, Note_on_c, 2, 64, 0
4, 101220, Note_on_c, 2, 60, 95
4, 101280, Note_on_c, 2, 60, 0
4, 101280, Note_on_c, 2, 48, 0
4, 101280, Control_c, 2, 7, 68
4, 101280, Note_on_c, 2, 65, 89
4, 101280, Note_on_c, 2, 53, 93
4, 101400, Note_on_c, 2, 53, 0
4, 101400, Note_on_c, 2, 65, 0
4, 101490, Control_c, 2, 7, 99
4, 101520, Note_on_c, 2, 60, 89
4, 101520, Note_on_c, 2, 57, 99
4, 101640, Note_on_c, 2, 57, 0
4, 101640, Note_on_c, 2, 60, 0
4, 101760, Note_on_c, 2, 57, 86
4, 101760, Note_on_c, 2, 53, 90
4, 101880, Note_on_c, 2, 53, 0
4, 101880, Note_on_c, 2, 57, 0
4, 108960, Note_on_c, 2, 62, 68
4, 108960, Note_on_c, 2, 50, 80
4, 109080, Note_on_c, 2, 50, 0
4, 109080, Note_on_c, 2, 62, 0
4, 109200, Note_on_c, 2, 62, 76
4, 109200, Note_on_c, 2, 50, 84
4, 109320, Note_on_c, 2, 50, 0
4, 109320, Note_on_c, 2, 62, 0
4, 109440, Note_on_c, 2, 62, 76
4, 109440, Note_on_c, 2, 50, 89
4, 109560, Note_on_c, 2, 50, 0
4, 109560, Note_on_c, 2, 62, 0
4, 110880, Note_on_c, 2, 55, 80
4, 110880, Note_on_c, 2, 51, 81
4, 110940, Control_c, 2, 7, 99
4, 110942, Control_c, 2, 7, 98
4, 110944, Control_c, 2, 7, 97
4, 110946, Control_c, 2, 7, 96
4, 110948, Control_c, 2, 7, 95
4, 110950, Control_c, 2, 7, 94
4, 110952, Control_c, 2, 7, 93
4, 110954, Control_c, 2, 7, 92
4, 110956, Control_c, 2, 7, 91
4, 110958, Control_c, 2, 7, 90
4, 110960, Control_c, 2, 7, 89
4, 110962, Control_c, 2, 7, 88
4, 110964, Control_c, 2, 7, 87
4, 110966, Control_c, 2, 7, 86
4, 110968, Control_c, 2, 7, 85
4, 110970, Control_c, 2, 7, 84
4, 110972, Control_c, 2, 7, 83
4, 110974, Control_c, 2, 7, 82
4, 110976, Control_c, 2, 7, 81
4, 110978, Control_c, 2, 7, 80
4, 110980, Control_c, 2, 7, 79
4, 110982, Control_c, 2, 7, 78
4, 110984, Control_c, 2, 7, 77
4, 110986, Control_c, 2, 7, 76
4, 110988, Control_c, 2, 7, 75
4, 110990, Control_c, 2, 7, 74
4, 110992, Control_c, 2, 7, 73
4, 110994, Control_c, 2, 7, 72
4, 110996, Control_c, 2, 7, 71
4, 110998, Control_c, 2, 7, 70
4, 111000, Control_c, 2, 7, 68
4, 111360, Note_on_c, 2, 51, 0
4, 111360, Note_on_c, 2, 55, 0
4, 111360, Note_on_c, 2, 58, 76
4, 111360, Note_on_c, 2, 55, 80
4, 111840, Note_on_c, 2, 55, 0
4, 111840, Note_on_c, 2, 58, 0
4, 111840, Note_on_c, 2, 60, 74
4, 111840, Note_on_c, 2, 56, 78
4, 111840, Control_c, 2, 7, 100
4, 111900, Control_c, 2, 7, 99
4, 111902, Control_c, 2, 7, 98
4, 111904, Control_c, 2, 7, 97
4, 111906, Control_c, 2, 7, 96
4, 111908, Control_c, 2, 7, 95
4, 111910, Control_c, 2, 7, 94
4, 111912, Control_c, 2, 7, 93
4, 111914, Control_c, 2, 7, 92
4, 111916, Control_c, 2, 7, 91
4, 111918, Control_c, 2, 7, 90
4, 111920, Control_c, 2, 7, 89
4, 111922, Control_c, 2, 7, 88
4, 111924, Control_c, 2, 7, 87
4, 111926, Control_c, 2, 7, 86
4, 111928, Control_c, 2, 7, 85
4, 111930, Control_c, 2, 7, 84
4, 111932, Control_c, 2, 7, 83
4, 111934, Control_c, 2, 7, 82
4, 111936, Control_c, 2, 7, 81
4, 111938, Control_c, 2, 7, 80
4, 111940, Control_c, 2, 7, 79
4, 111942, Control_c, 2, 7, 78
4, 111944, Control_c, 2, 7, 77
4, 111946, Control_c, 2, 7, 76
4, 111948, Control_c, 2, 7, 75
4, 111950, Control_c, 2, 7, 74
4, 111952, Control_c, 2, 7, 73
4, 111954, Control_c, 2, 7, 72
4, 111956, Control_c, 2, 7, 71
4, 111958, Control_c, 2, 7, 70
4, 111960, Control_c, 2, 7, 69
4, 112320, Note_on_c, 2, 56, 0
4, 112320, Note_on_c, 2, 60, 0
4, 112320, Note_on_c, 2, 56, 84
4, 112320, Note_on_c, 2, 53, 76
4, 112800, Note_on_c, 2, 53, 0
4, 112800, Note_on_c, 2, 56, 0
4, 112800, Note_on_c, 2, 55, 74
4, 112800, Note_on_c, 2, 51, 84
4, 112920, Note_on_c, 2, 51, 0
4, 112920, Note_on_c, 2, 55, 0
4, 113040, Control_c, 2, 7, 99
4, 117600, Note_on_c, 2, 51, 43
4, 117660, Note_on_c, 2, 67, 68
4, 117690, Note_on_c, 2, 67, 0
4, 117720, Note_on_c, 2, 51, 0
4, 117720, Note_on_c, 2, 67, 61
4, 117750, Note_on_c, 2, 67, 0
4, 117780, Note_on_c, 2, 67, 65
4, 117810, Note_on_c, 2, 67, 0
4, 117840, Note_on_c, 2, 67, 58
4, 117870, Note_on_c, 2, 67, 0
4, 117900, Note_on_c, 2, 67, 52
4, 117930, Note_on_c, 2, 67, 0
4, 117960, Note_on_c, 2, 67, 61
4, 117990, Note_on_c, 2, 67, 0
4, 118020, Note_on_c, 2, 67, 72
4, 118050, Note_on_c, 2, 67, 0
4, 118080, Note_on_c, 2, 63, 59
4, 118200, Note_on_c, 2, 63, 0
4, 118320, Note_on_c, 2, 51, 51
4, 118380, Note_on_c, 2, 51, 0
4, 118440, Note_on_c, 2, 51, 58
4, 118500, Note_on_c, 2, 51, 0
4, 118560, Note_on_c, 2, 51, 65
4, 118620, Note_on_c, 2, 51, 0
4, 118620, Note_on_c, 2, 67, 64
4, 118650, Note_on_c, 2, 67, 0
4, 118680, Note_on_c, 2, 67, 61
4, 118710, Note_on_c, 2, 67, 0
4, 118740, Note_on_c, 2, 67, 53
4, 118770, Note_on_c, 2, 67, 0
4, 118800, Note_on_c, 2, 67, 57
4, 118830, Note_on_c, 2, 67, 0
4, 118860, Note_on_c, 2, 67, 60
4, 118890, Note_on_c, 2, 67, 0
4, 118920, Note_on_c, 2, 67, 58
4, 118950, Note_on_c, 2, 67, 0
4, 118980, Note_on_c, 2, 67, 65
4, 119010, Note_on_c, 2, 67, 0
4, 119040, Note_on_c, 2, 63, 58
4, 119160, Note_on_c, 2, 63, 0
4, 119280, Note_on_c, 2, 51, 70
4, 119340, Note_on_c, 2, 51, 0
4, 119400, Note_on_c, 2, 51, 65
4, 119460, Note_on_c, 2, 51, 0
4, 119520, Note_on_c, 2, 50, 68
4, 119580, Note_on_c, 2, 50, 0
4, 119580, Note_on_c, 2, 62, 50
4, 119610, Note_on_c, 2, 62, 0
4, 119640, Note_on_c, 2, 62, 45
4, 119670, Note_on_c, 2, 62, 0
4, 119700, Note_on_c, 2, 62, 58
4, 119730, Note_on_c, 2, 62, 0
4, 119760, Note_on_c, 2, 62, 41
4, 119790, Note_on_c, 2, 62, 0
4, 119820, Note_on_c, 2, 62, 61
4, 119850, Note_on_c, 2, 62, 0
4, 119880, Note_on_c, 2, 62, 61
4, 119910, Note_on_c, 2, 62, 0
4, 119940, Note_on_c, 2, 60, 44
4, 119970, Note_on_c, 2, 60, 0
4, 120000, Note_on_c, 2, 59, 74
4, 120120, Note_on_c, 2, 59, 0
4, 120240, Note_on_c, 2, 47, 56
4, 120300, Note_on_c, 2, 47, 0
4, 120360, Note_on_c, 2, 47, 65
4, 120420, Note_on_c, 2, 47, 0
4, 120480, Note_on_c, 2, 47, 60
4, 120540, Note_on_c, 2, 47, 0
4, 120540, Note_on_c, 2, 65, 46
4, 120540, Note_on_c, 2, 62, 43
4, 120570, Note_on_c, 2, 62, 0
4, 120570, Note_on_c, 2, 65, 0
4, 120600, Note_on_c, 2, 65, 44
4, 120600, Note_on_c, 2, 62, 43
4, 120630, Note_on_c, 2, 62, 0
4, 120630, Note_on_c, 2, 65, 0
4, 120660, Note_on_c, 2, 65, 42
4, 120660, Note_on_c, 2, 62, 38
4, 120690, Note_on_c, 2, 62, 0
4, 120690, Note_on_c, 2, 65, 0
4, 120720, Note_on_c, 2, 65, 55
4, 120720, Note_on_c, 2, 62, 43
4, 120750, Note_on_c, 2, 62, 0
4, 120750, Note_on_c, 2, 65, 0
4, 120780, Note_on_c, 2, 65, 46
4, 120780, Note_on_c, 2, 62, 45
4, 120810, Note_on_c, 2, 62, 0
4, 120810, Note_on_c, 2, 65, 0
4, 120840, Note_on_c, 2, 65, 52
4, 120840, Note_on_c, 2, 62, 45
4, 120870, Note_on_c, 2, 62, 0
4, 120870, Note_on_c, 2, 65, 0
4, 120900, Note_on_c, 2, 63, 58
4, 120900, Note_on_c, 2, 60, 45
4, 120930, Note_on_c, 2, 60, 0
4, 120930, Note_on_c, 2, 63, 0
4, 120960, Note_on_c, 2, 62, 40
4, 120960, Note_on_c, 2, 59, 53
4, 121080, Note_on_c, 2, 59, 0
4, 121080, Note_on_c, 2, 62, 0
4, 121920, Control_c, 2, 7, 89
4, 122160, Note_on_c, 2, 63, 57
4, 122160, Note_on_c, 2, 60, 44
4, 122220, Note_on_c, 2, 60, 0
4, 122220, Note_on_c, 2, 63, 0
4, 122280, Note_on_c, 2, 63, 55
4, 122280, Note_on_c, 2, 60, 46
4, 122340, Note_on_c, 2, 60, 0
4, 122340, Note_on_c, 2, 63, 0
4, 122400, Note_on_c, 2, 65, 58
4, 122400, Note_on_c, 2, 62, 65
4, 122460, Note_on_c, 2, 62, 0
4, 122460, Note_on_c, 2, 65, 0
4, 123120, Note_on_c, 2, 65, 60
4, 123120, Note_on_c, 2, 62, 49
4, 123180, Note_on_c, 2, 62, 0
4, 123180, Note_on_c, 2, 65, 0
4, 123240, Note_on_c, 2, 65, 64
4, 123240, Note_on_c, 2, 62, 61
4, 123300, Note_on_c, 2, 62, 0
4, 123300, Note_on_c, 2, 65, 0
4, 123360, Note_on_c, 2, 67, 61
4, 123360, Note_on_c, 2, 64, 59
4, 123420, Note_on_c, 2, 64, 0
4, 123420, Note_on_c, 2, 67, 0
4, 124320, Control_c, 2, 7, 99
4, 131880, Note_on_c, 2, 58, 38
4, 131880, Note_on_c, 2, 46, 45
4, 132000, Note_on_c, 2, 46, 0
4, 132000, Note_on_c, 2, 58, 0
4, 132000, Note_on_c, 2, 65, 61
4, 132000, Note_on_c, 2, 53, 43
4, 132120, Note_on_c, 2, 53, 0
4, 132120, Note_on_c, 2, 65, 0
4, 132360, Note_on_c, 2, 58, 43
4, 132360, Note_on_c, 2, 46, 43
4, 132480, Note_on_c, 2, 46, 0
4, 132480, Note_on_c, 2, 58, 0
4, 132480, Note_on_c, 2, 65, 52
4, 132480, Note_on_c, 2, 53, 43
4, 132600, Note_on_c, 2, 53, 0
4, 132600, Note_on_c, 2, 65, 0
4, 132720, Note_on_c, 2, 60, 55
4, 132720, Note_on_c, 2, 57, 58
4, 132840, Note_on_c, 2, 57, 0
4, 132840, Note_on_c, 2, 60, 0
4, 132960, Note_on_c, 2, 60, 43
4, 132960, Note_on_c, 2, 57, 48
4, 133080, Note_on_c, 2, 57, 0
4, 133080, Note_on_c, 2, 60, 0
4, 133440, Note_on_c, 2, 60, 43
4, 133440, Note_on_c, 2, 57, 46
4, 133560, Note_on_c, 2, 57, 0
4, 133560, Note_on_c, 2, 60, 0
4, 133920, Note_on_c, 2, 63, 43
4, 133920, Note_on_c, 2, 60, 43
4, 134040, Note_on_c, 2, 60, 0
4, 134040, Note_on_c, 2, 63, 0
4, 134856, Control_c, 2, 7, 54
4, 134880, Note_on_c, 2, 63, 93
4, 135360, Note_on_c, 2, 63, 0
4, 135360, Note_on_c, 2, 63, 93
4, 135840, Note_on_c, 2, 63, 0
4, 135840, Note_on_c, 2, 63, 94
4, 135840, Note_on_c, 2, 60, 93
4, 135840, Control_c, 2, 7, 54
4, 135852, Control_c, 2, 7, 55
4, 135862, Control_c, 2, 7, 56
4, 135872, Control_c, 2, 7, 57
4, 135884, Control_c, 2, 7, 58
4, 135894, Control_c, 2, 7, 59
4, 135904, Control_c, 2, 7, 60
4, 135916, Control_c, 2, 7, 61
4, 135926, Control_c, 2, 7, 62
4, 135936, Control_c, 2, 7, 63
4, 135948, Control_c, 2, 7, 64
4, 135958, Control_c, 2, 7, 65
4, 135968, Control_c, 2, 7, 66
4, 135980, Control_c, 2, 7, 67
4, 135990, Control_c, 2, 7, 68
4, 136000, Control_c, 2, 7, 69
4, 136012, Control_c, 2, 7, 70
4, 136022, Control_c, 2, 7, 71
4, 136032, Control_c, 2, 7, 72
4, 136044, Control_c, 2, 7, 73
4, 136054, Control_c, 2, 7, 74
4, 136064, Control_c, 2, 7, 75
4, 136076, Control_c, 2, 7, 76
4, 136086, Control_c, 2, 7, 77
4, 136096, Control_c, 2, 7, 78
4, 136108, Control_c, 2, 7, 79
4, 136118, Control_c, 2, 7, 80
4, 136128, Control_c, 2, 7, 81
4, 136140, Control_c, 2, 7, 82
4, 136150, Control_c, 2, 7, 83
4, 136160, Control_c, 2, 7, 84
4, 136172, Control_c, 2, 7, 85
4, 136182, Control_c, 2, 7, 86
4, 136192, Control_c, 2, 7, 87
4, 136204, Control_c, 2, 7, 88
4, 136214, Control_c, 2, 7, 89
4, 136224, Control_c, 2, 7, 90
4, 136236, Control_c, 2, 7, 91
4, 136246, Control_c, 2, 7, 92
4, 136256, Control_c, 2, 7, 93
4, 136268, Control_c, 2, 7, 94
4, 136278, Control_c, 2, 7, 95
4, 136288, Control_c, 2, 7, 96
4, 136300, Control_c, 2, 7, 97
4, 136310, Control_c, 2, 7, 98
4, 136320, Note_on_c, 2, 60, 0
4, 136320, Note_on_c, 2, 63, 0
4, 136320, Note_on_c, 2, 62, 78
4, 136320, Note_on_c, 2, 58, 72
4, 136320, Control_c, 2, 7, 99
4, 136500, Note_on_c, 2, 58, 0
4, 136500, Note_on_c, 2, 62, 0
4, 136530, Note_on_c, 2, 58, 80
4, 136530, Note_on_c, 2, 46, 94
4, 136560, Note_on_c, 2, 46, 0
4, 136560, Note_on_c, 2, 58, 0
4, 136560, Note_on_c, 2, 65, 85
4, 136560, Note_on_c, 2, 53, 84
4, 136605, Note_on_c, 2, 53, 0
4, 136605, Note_on_c, 2, 65, 0
4, 136650, Note_on_c, 2, 65, 85
4, 136650, Note_on_c, 2, 53, 81
4, 136665, Note_on_c, 2, 53, 0
4, 136665, Note_on_c, 2, 65, 0
4, 136680, Note_on_c, 2, 62, 80
4, 136680, Note_on_c, 2, 50, 94
4, 136725, Note_on_c, 2, 50, 0
4, 136725, Note_on_c, 2, 62, 0
4, 136770, Note_on_c, 2, 62, 76
4, 136770, Note_on_c, 2, 50, 94
4, 136785, Note_on_c, 2, 50, 0
4, 136785, Note_on_c, 2, 62, 0
4, 136800, Note_on_c, 2, 58, 80
4, 136800, Note_on_c, 2, 46, 90
4, 136860, Note_on_c, 2, 46, 0
4, 136860, Note_on_c, 2, 58, 0
4, 136920, Note_on_c, 2, 65, 95
4, 136920, Note_on_c, 2, 53, 89
4, 136980, Note_on_c, 2, 53, 0
4, 136980, Note_on_c, 2, 65, 0
4, 137040, Note_on_c, 2, 62, 65
4, 137040, Note_on_c, 2, 50, 85
4, 137100, Note_on_c, 2, 50, 0
4, 137100, Note_on_c, 2, 62, 0
4, 137160, Note_on_c, 2, 58, 65
4, 137160, Note_on_c, 2, 46, 78
4, 137220, Note_on_c, 2, 46, 0
4, 137220, Note_on_c, 2, 58, 0
4, 137280, Note_on_c, 2, 53, 47
4, 137280, Note_on_c, 2, 41, 46
4, 137400, Note_on_c, 2, 41, 0
4, 137400, Note_on_c, 2, 53, 0
4, 137724, Control_c, 2, 7, 63
4, 137760, Control_c, 2, 7, 63
4, 137760, Note_on_c, 2, 63, 69
4, 137760, Note_on_c, 2, 60, 68
4, 137774, Control_c, 2, 7, 64
4, 137788, Control_c, 2, 7, 65
4, 137802, Control_c, 2, 7, 66
4, 137814, Control_c, 2, 7, 67
4, 137828, Control_c, 2, 7, 68
4, 137842, Control_c, 2, 7, 69
4, 137854, Control_c, 2, 7, 70
4, 137868, Control_c, 2, 7, 71
4, 137882, Control_c, 2, 7, 72
4, 137894, Control_c, 2, 7, 73
4, 137908, Control_c, 2, 7, 74
4, 137922, Control_c, 2, 7, 75
4, 137936, Control_c, 2, 7, 76
4, 137948, Control_c, 2, 7, 77
4, 137962, Control_c, 2, 7, 78
4, 137976, Control_c, 2, 7, 79
4, 137988, Control_c, 2, 7, 80
4, 138000, Note_on_c, 2, 60, 0
4, 138000, Note_on_c, 2, 63, 0
4, 138000, Note_on_c, 2, 62, 58
4, 138000, Note_on_c, 2, 58, 72
4, 138002, Control_c, 2, 7, 81
4, 138016, Control_c, 2, 7, 82
4, 138028, Control_c, 2, 7, 83
4, 138042, Control_c, 2, 7, 84
4, 138056, Control_c, 2, 7, 85
4, 138068, Control_c, 2, 7, 86
4, 138082, Control_c, 2, 7, 87
4, 138096, Control_c, 2, 7, 88
4, 138110, Control_c, 2, 7, 89
4, 138122, Control_c, 2, 7, 90
4, 138136, Control_c, 2, 7, 91
4, 138150, Control_c, 2, 7, 92
4, 138162, Control_c, 2, 7, 93
4, 138176, Control_c, 2, 7, 94
4, 138190, Control_c, 2, 7, 95
4, 138202, Control_c, 2, 7, 96
4, 138216, Control_c, 2, 7, 97
4, 138230, Control_c, 2, 7, 98
4, 138240, Note_on_c, 2, 58, 0
4, 138240, Note_on_c, 2, 62, 0
4, 138240, Note_on_c, 2, 60, 73
4, 138240, Note_on_c, 2, 57, 80
4, 138242, Control_c, 2, 7, 99
4, 138420, Note_on_c, 2, 57, 0
4, 138420, Note_on_c, 2, 60, 0
4, 138450, Note_on_c, 2, 53, 76
4, 138450, Note_on_c, 2, 41, 78
4, 138480, Note_on_c, 2, 41, 0
4, 138480, Note_on_c, 2, 53, 0
4, 138480, Note_on_c, 2, 60, 80
4, 138480, Note_on_c, 2, 48, 85
4, 138525, Note_on_c, 2, 48, 0
4, 138525, Note_on_c, 2, 60, 0
4, 138570, Note_on_c, 2, 60, 73
4, 138570, Note_on_c, 2, 48, 85
4, 138585, Note_on_c, 2, 48, 0
4, 138585, Note_on_c, 2, 60, 0
4, 138600, Note_on_c, 2, 57, 94
4, 138600, Note_on_c, 2, 45, 90
4, 138645, Note_on_c, 2, 45, 0
4, 138645, Note_on_c, 2, 57, 0
4, 138690, Note_on_c, 2, 57, 86
4, 138690, Note_on_c, 2, 45, 93
4, 138705, Note_on_c, 2, 45, 0
4, 138705, Note_on_c, 2, 57, 0
4, 138720, Note_on_c, 2, 53, 66
4, 138720, Note_on_c, 2, 41, 76
4, 138780, Note_on_c, 2, 41, 0
4, 138780, Note_on_c, 2, 53, 0
4, 138840, Note_on_c, 2, 63, 71
4, 138900, Note_on_c, 2, 63, 0
4, 138960, Note_on_c, 2, 60, 68
4, 139020, Note_on_c, 2, 60, 0
4, 139080, Note_on_c, 2, 57, 73
4, 139140, Note_on_c, 2, 57, 0
4, 139200, Note_on_c, 2, 58, 52
4, 139320, Note_on_c, 2, 58, 0
4, 139680, Control_c, 2, 7, 99
4, 139680, Note_on_c, 2, 65, 50
4, 139680, Note_on_c, 2, 62, 62
4, 139692, Control_c, 2, 7, 100
4, 139702, Control_c, 2, 7, 101
4, 139712, Control_c, 2, 7, 102
4, 139722, Control_c, 2, 7, 103
4, 139734, Control_c, 2, 7, 104
4, 139744, Control_c, 2, 7, 105
4, 139754, Control_c, 2, 7, 106
4, 139764, Control_c, 2, 7, 107
4, 139774, Control_c, 2, 7, 108
4, 139786, Control_c, 2, 7, 109
4, 139796, Control_c, 2, 7, 110
4, 139806, Control_c, 2, 7, 111
4, 139816, Control_c, 2, 7, 112
4, 139828, Control_c, 2, 7, 113
4, 139838, Control_c, 2, 7, 114
4, 139848, Control_c, 2, 7, 115
4, 139858, Control_c, 2, 7, 116
4, 139868, Control_c, 2, 7, 117
4, 139880, Control_c, 2, 7, 118
4, 139890, Control_c, 2, 7, 119
4, 139900, Control_c, 2, 7, 120
4, 139910, Control_c, 2, 7, 121
4, 139920, Note_on_c, 2, 62, 0
4, 139920, Note_on_c, 2, 65, 0
4, 139920, Note_on_c, 2, 63, 50
4, 139920, Note_on_c, 2, 60, 43
4, 139920, Control_c, 2, 7, 122
4, 139932, Control_c, 2, 7, 121
4, 139942, Control_c, 2, 7, 120
4, 139952, Control_c, 2, 7, 119
4, 139962, Control_c, 2, 7, 118
4, 139974, Control_c, 2, 7, 117
4, 139984, Control_c, 2, 7, 116
4, 139994, Control_c, 2, 7, 115
4, 140004, Control_c, 2, 7, 114
4, 140014, Control_c, 2, 7, 113
4, 140026, Control_c, 2, 7, 112
4, 140036, Control_c, 2, 7, 111
4, 140046, Control_c, 2, 7, 110
4, 140056, Control_c, 2, 7, 109
4, 140068, Control_c, 2, 7, 108
4, 140078, Control_c, 2, 7, 107
4, 140088, Control_c, 2, 7, 106
4, 140098, Control_c, 2, 7, 105
4, 140108, Control_c, 2, 7, 104
4, 140120, Control_c, 2, 7, 103
4, 140130, Control_c, 2, 7, 102
4, 140140, Control_c, 2, 7, 101
4, 140150, Control_c, 2, 7, 100
4, 140160, Note_on_c, 2, 60, 0
4, 140160, Note_on_c, 2, 63, 0
4, 140160, Control_c, 2, 7, 99
4, 140160, Note_on_c, 2, 62, 38
4, 140160, Note_on_c, 2, 58, 40
4, 140280, Note_on_c, 2, 58, 0
4, 140280, Note_on_c, 2, 62, 0
4, 144480, Note_on_c, 2, 41, 46
4, 144540, Note_on_c, 2, 41, 0
4, 144600, Note_on_c, 2, 45, 57
4, 144660, Note_on_c, 2, 45, 0
4, 144720, Note_on_c, 2, 48, 76
4, 144780, Note_on_c, 2, 48, 0
4, 144840, Note_on_c, 2, 51, 62
4, 144900, Note_on_c, 2, 51, 0
4, 144960, Note_on_c, 2, 53, 43
4, 145020, Note_on_c, 2, 53, 0
4, 145080, Note_on_c, 2, 57, 71
4, 145140, Note_on_c, 2, 57, 0
4, 145200, Note_on_c, 2, 60, 46
4, 145260, Note_on_c, 2, 60, 0
4, 145320, Note_on_c, 2, 63, 60
4, 145380, Note_on_c, 2, 63, 0
4, 145440, Note_on_c, 2, 62, 33
4, 145560, Note_on_c, 2, 62, 0
4, 146400, Note_on_c, 2, 43, 42
4, 146460, Note_on_c, 2, 43, 0
4, 146520, Note_on_c, 2, 46, 70
4, 146580, Note_on_c, 2, 46, 0
4, 146640, Note_on_c, 2, 48, 68
4, 146700, Note_on_c, 2, 48, 0
4, 146760, Note_on_c, 2, 52, 58
4, 146820, Note_on_c, 2, 52, 0
4, 146880, Note_on_c, 2, 55, 68
4, 146940, Note_on_c, 2, 55, 0
4, 147000, Note_on_c, 2, 58, 64
4, 147060, Note_on_c, 2, 58, 0
4, 147120, Note_on_c, 2, 60, 73
4, 147180, Note_on_c, 2, 60, 0
4, 147240, Note_on_c, 2, 58, 68
4, 147300, Note_on_c, 2, 58, 0
4, 147360, Note_on_c, 2, 57, 64
4, 147480, Note_on_c, 2, 57, 0
4, 149280, Note_on_c, 2, 62, 70
4, 149280, Note_on_c, 2, 58, 72
4, 149340, Control_c, 2, 7, 99
4, 149342, Control_c, 2, 7, 98
4, 149344, Control_c, 2, 7, 97
4, 149346, Control_c, 2, 7, 96
4, 149348, Control_c, 2, 7, 95
4, 149350, Control_c, 2, 7, 93
4, 149352, Control_c, 2, 7, 92
4, 149354, Control_c, 2, 7, 91
4, 149356, Control_c, 2, 7, 90
4, 149358, Control_c, 2, 7, 89
4, 149360, Control_c, 2, 7, 87
4, 149362, Control_c, 2, 7, 86
4, 149364, Control_c, 2, 7, 85
4, 149366, Control_c, 2, 7, 84
4, 149368, Control_c, 2, 7, 83
4, 149370, Control_c, 2, 7, 81
4, 149372, Control_c, 2, 7, 80
4, 149374, Control_c, 2, 7, 79
4, 149376, Control_c, 2, 7, 78
4, 149378, Control_c, 2, 7, 77
4, 149380, Control_c, 2, 7, 75
4, 149382, Control_c, 2, 7, 74
4, 149384, Control_c, 2, 7, 73
4, 149386, Control_c, 2, 7, 72
4, 149388, Control_c, 2, 7, 71
4, 149390, Control_c, 2, 7, 69
4, 149392, Control_c, 2, 7, 68
4, 149394, Control_c, 2, 7, 67
4, 149396, Control_c, 2, 7, 66
4, 149398, Control_c, 2, 7, 65
4, 149400, Control_c, 2, 7, 63
4, 149520, Note_on_c, 2, 58, 0
4, 149520, Note_on_c, 2, 62, 0
4, 149520, Note_on_c, 2, 63, 33
4, 149520, Note_on_c, 2, 60, 38
4, 149520, Control_c, 2, 7, 99
4, 149760, Note_on_c, 2, 60, 0
4, 149760, Note_on_c, 2, 63, 0
4, 149760, Note_on_c, 2, 62, 35
4, 149760, Note_on_c, 2, 58, 40
4, 149880, Note_on_c, 2, 58, 0
4, 149880, Note_on_c, 2, 62, 0
4, 150240, Note_on_c, 2, 60, 41
4, 150240, Note_on_c, 2, 55, 48
4, 150300, Note_on_c, 2, 55, 0
4, 150300, Note_on_c, 2, 60, 0
4, 150360, Note_on_c, 2, 60, 38
4, 150360, Note_on_c, 2, 55, 43
4, 150420, Note_on_c, 2, 55, 0
4, 150420, Note_on_c, 2, 60, 0
4, 150480, Note_on_c, 2, 60, 43
4, 150480, Note_on_c, 2, 55, 49
4, 150540, Note_on_c, 2, 55, 0
4, 150540, Note_on_c, 2, 60, 0
4, 150600, Note_on_c, 2, 62, 44
4, 150600, Note_on_c, 2, 59, 45
4, 150660, Note_on_c, 2, 59, 0
4, 150660, Note_on_c, 2, 62, 0
4, 150720, Note_on_c, 2, 65, 86
4, 150720, Note_on_c, 2, 62, 89
4, 150960, Note_on_c, 2, 62, 0
4, 150960, Note_on_c, 2, 65, 0
4, 150960, Note_on_c, 2, 63, 45
4, 150960, Note_on_c, 2, 60, 44
4, 151080, Note_on_c, 2, 60, 0
4, 151080, Note_on_c, 2, 63, 0
4, 151200, Note_on_c, 2, 57, 98
4, 151200, Note_on_c, 2, 48, 99
4, 151260, Control_c, 2, 7, 100
4, 151262, Control_c, 2, 7, 99
4, 151264, Control_c, 2, 7, 98
4, 151266, Control_c, 2, 7, 97
4, 151268, Control_c, 2, 7, 96
4, 151270, Control_c, 2, 7, 95
4, 151272, Control_c, 2, 7, 94
4, 151274, Control_c, 2, 7, 92
4, 151276, Control_c, 2, 7, 91
4, 151278, Control_c, 2, 7, 90
4, 151280, Control_c, 2, 7, 89
4, 151282, Control_c, 2, 7, 88
4, 151284, Control_c, 2, 7, 87
4, 151286, Control_c, 2, 7, 85
4, 151288, Control_c, 2, 7, 84
4, 151290, Control_c, 2, 7, 83
4, 151292, Control_c, 2, 7, 82
4, 151294, Control_c, 2, 7, 81
4, 151296, Control_c, 2, 7, 80
4, 151298, Control_c, 2, 7, 78
4, 151300, Control_c, 2, 7, 77
4, 151302, Control_c, 2, 7, 76
4, 151304, Control_c, 2, 7, 75
4, 151306, Control_c, 2, 7, 74
4, 151308, Control_c, 2, 7, 73
4, 151310, Control_c, 2, 7, 71
4, 151312, Control_c, 2, 7, 70
4, 151314, Control_c, 2, 7, 69
4, 151316, Control_c, 2, 7, 68
4, 151318, Control_c, 2, 7, 67
4, 151320, Control_c, 2, 7, 66
4, 151322, Control_c, 2, 7, 64
4, 151440, Note_on_c, 2, 48, 0
4, 151440, Note_on_c, 2, 57, 0
4, 151440, Note_on_c, 2, 60, 85
4, 151440, Note_on_c, 2, 51, 89
4, 151680, Note_on_c, 2, 51, 0
4, 151680, Note_on_c, 2, 60, 0
4, 151680, Note_on_c, 2, 58, 74
4, 151680, Note_on_c, 2, 50, 99
4, 151800, Note_on_c, 2, 50, 0
4, 151800, Note_on_c, 2, 58, 0
4, 151920, Control_c, 2, 7, 99
4, 152040, Note_on_c, 2, 58, 40
4, 152040, Note_on_c, 2, 46, 42
4, 152160, Note_on_c, 2, 46, 0
4, 152160, Note_on_c, 2, 58, 0
4, 152160, Note_on_c, 2, 57, 43
4, 152160, Note_on_c, 2, 45, 45
4, 152220, Note_on_c, 2, 45, 0
4, 152220, Note_on_c, 2, 57, 0
4, 152280, Note_on_c, 2, 53, 42
4, 152280, Note_on_c, 2, 41, 41
4, 152340, Note_on_c, 2, 41, 0
4, 152340, Note_on_c, 2, 53, 0
4, 152400, Note_on_c, 2, 58, 44
4, 152400, Note_on_c, 2, 46, 54
4, 152460, Note_on_c, 2, 46, 0
4, 152460, Note_on_c, 2, 58, 0
4, 152520, Note_on_c, 2, 62, 54
4, 152520, Note_on_c, 2, 50, 53
4, 152580, Note_on_c, 2, 50, 0
4, 152580, Note_on_c, 2, 62, 0
4, 152640, Note_on_c, 2, 65, 49
4, 152640, Note_on_c, 2, 53, 50
4, 152760, Note_on_c, 2, 53, 0
4, 152760, Note_on_c, 2, 65, 0
4, 152760, Note_on_c, 2, 64, 81
4, 152760, Note_on_c, 2, 52, 89
4, 152880, Note_on_c, 2, 52, 0
4, 152880, Note_on_c, 2, 64, 0
4, 152880, Note_on_c, 2, 65, 43
4, 152880, Note_on_c, 2, 53, 43
4, 153000, Note_on_c, 2, 53, 0
4, 153000, Note_on_c, 2, 65, 0
4, 156840, Note_on_c, 2, 63, 45
4, 156960, Note_on_c, 2, 63, 0
4, 156960, Note_on_c, 2, 62, 62
4, 157020, Note_on_c, 2, 62, 0
4, 157080, Note_on_c, 2, 58, 65
4, 157140, Note_on_c, 2, 58, 0
4, 157320, Note_on_c, 2, 63, 58
4, 157440, Note_on_c, 2, 63, 0
4, 157440, Note_on_c, 2, 62, 62
4, 157500, Note_on_c, 2, 62, 0
4, 157560, Note_on_c, 2, 58, 61
4, 157620, Note_on_c, 2, 58, 0
4, 168000, Note_on_c, 2, 57, 45
4, 168000, Note_on_c, 2, 53, 46
4, 168030, Note_on_c, 2, 53, 0
4, 168030, Note_on_c, 2, 57, 0
4, 168060, Note_on_c, 2, 58, 58
4, 168060, Note_on_c, 2, 55, 65
4, 168090, Note_on_c, 2, 55, 0
4, 168090, Note_on_c, 2, 58, 0
4, 168120, Note_on_c, 2, 60, 50
4, 168120, Note_on_c, 2, 57, 73
4, 168150, Note_on_c, 2, 57, 0
4, 168150, Note_on_c, 2, 60, 0
4, 168180, Note_on_c, 2, 62, 55
4, 168180, Note_on_c, 2, 58, 65
4, 168210, Note_on_c, 2, 58, 0
4, 168210, Note_on_c, 2, 62, 0
4, 168240, Note_on_c, 2, 63, 58
4, 168240, Note_on_c, 2, 60, 44
4, 168270, Note_on_c, 2, 60, 0
4, 168270, Note_on_c, 2, 63, 0
4, 168300, Note_on_c, 2, 65, 59
4, 168300, Note_on_c, 2, 62, 74
4, 168330, Note_on_c, 2, 62, 0
4, 168330, Note_on_c, 2, 65, 0
4, 168360, Note_on_c, 2, 67, 50
4, 168360, Note_on_c, 2, 63, 68
4, 168390, Note_on_c, 2, 63, 0
4, 168390, Note_on_c, 2, 67, 0
4, 168420, Note_on_c, 2, 63, 68
4, 168420, Note_on_c, 2, 60, 61
4, 168450, Note_on_c, 2, 60, 0
4, 168450, Note_on_c, 2, 63, 0
4, 168480, Note_on_c, 2, 58, 76
4, 168480, Note_on_c, 2, 46, 90
4, 168720, Note_on_c, 2, 46, 0
4, 168720, Note_on_c, 2, 58, 0
4, 168720, Note_on_c, 2, 50, 90
4, 168720, Note_on_c, 2, 62, 77
4, 168960, Note_on_c, 2, 62, 0
4, 168960, Note_on_c, 2, 50, 0
4, 168960, Note_on_c, 2, 55, 62
4, 168960, Note_on_c, 2, 43, 72
4, 169080, Note_on_c, 2, 43, 0
4, 169080, Note_on_c, 2, 55, 0
4, 174000, Note_on_c, 2, 61, 76
4, 174000, Note_on_c, 2, 64, 84
4, 174240, Note_on_c, 2, 64, 0
4, 174240, Note_on_c, 2, 61, 0
4, 174240, Note_on_c, 2, 65, 74
4, 174240, Note_on_c, 2, 62, 86
4, 174300, Note_on_c, 2, 62, 0
4, 174300, Note_on_c, 2, 65, 0
4, 174960, Note_on_c, 2, 61, 80
4, 174960, Note_on_c, 2, 64, 90
4, 175200, Note_on_c, 2, 64, 0
4, 175200, Note_on_c, 2, 61, 0
4, 175200, Note_on_c, 2, 65, 74
4, 175200, Note_on_c, 2, 62, 80
4, 175260, Note_on_c, 2, 62, 0
4, 175260, Note_on_c, 2, 65, 0
4, 175920, Note_on_c, 2, 61, 77
4, 175920, Note_on_c, 2, 64, 80
4, 176160, Note_on_c, 2, 64, 0
4, 176160, Note_on_c, 2, 61, 0
4, 176160, Note_on_c, 2, 65, 74
4, 176160, Note_on_c, 2, 62, 84
4, 176220, Note_on_c, 2, 62, 0
4, 176220, Note_on_c, 2, 65, 0
4, 183840, Note_on_c, 2, 46, 89
4, 183840, Note_on_c, 2, 58, 76
4, 184320, Note_on_c, 2, 58, 0
4, 184320, Note_on_c, 2, 46, 0
4, 184320, Note_on_c, 2, 53, 90
4, 184320, Note_on_c, 2, 65, 94
4, 184800, Note_on_c, 2, 65, 0
4, 184800, Note_on_c, 2, 53, 0
4, 184800, Note_on_c, 2, 60, 85
4, 184800, Note_on_c, 2, 48, 95
4, 185280, Note_on_c, 2, 48, 0
4, 185280, Note_on_c, 2, 60, 0
4, 185280, Note_on_c, 2, 67, 99
4, 185280, Note_on_c, 2, 55, 104
4, 185760, Note_on_c, 2, 55, 0
4, 185760, Note_on_c, 2, 67, 0
4, 185760, Note_on_c, 2, 66, 119
4, 185760, Note_on_c, 2, 62, 112
4, 186000, Note_on_c, 2, 66, 0
4, 186000, Note_on_c, 2, 65, 115
4, 186240, Note_on_c, 2, 65, 0
4, 186240, Note_on_c, 2, 62, 0
4, 186240, Note_on_c, 2, 64, 105
4, 186240, Note_on_c, 2, 60, 119
4, 186480, Note_on_c, 2, 64, 0
4, 186480, Note_on_c, 2, 63, 101
4, 186720, Note_on_c, 2, 63, 0
4, 186720, Note_on_c, 2, 60, 0
4, 186720, Note_on_c, 2, 62, 89
4, 186720, Note_on_c, 2, 58, 93
4, 186780, Note_on_c, 2, 58, 0
4, 186780, Note_on_c, 2, 62, 0
4, 186840, Note_on_c, 2, 63, 105
4, 186840, Note_on_c, 2, 55, 112
4, 187080, Note_on_c, 2, 55, 0
4, 187080, Note_on_c, 2, 63, 0
4, 187080, Note_on_c, 2, 61, 84
4, 187080, Note_on_c, 2, 57, 104
4, 187140, Note_on_c, 2, 57, 0
4, 187140, Note_on_c, 2, 61, 0
4, 187200, Note_on_c, 2, 62, 89
4, 187200, Note_on_c, 2, 54, 90
4, 187260, Note_on_c, 2, 54, 0
4, 187260, Note_on_c, 2, 62, 0
4, 187320, Note_on_c, 2, 59, 99
4, 187320, Note_on_c, 2, 55, 105
4, 187380, Note_on_c, 2, 55, 0
4, 187380, Note_on_c, 2, 59, 0
4, 187440, Note_on_c, 2, 60, 85
4, 187440, Note_on_c, 2, 52, 101
4, 187500, Note_on_c, 2, 52, 0
4, 187500, Note_on_c, 2, 60, 0
4, 187560, Note_on_c, 2, 57, 125
4, 187560, Note_on_c, 2, 53, 110
4, 187620, Note_on_c, 2, 53, 0
4, 187620, Note_on_c, 2, 57, 0
4, 187680, Note_on_c, 2, 58, 80
4, 187680, Note_on_c, 2, 50, 101
4, 187740, Note_on_c, 2, 50, 0
4, 187740, Note_on_c, 2, 58, 0
4, 187800, Note_on_c, 2, 60, 98
4, 187800, Note_on_c, 2, 51, 110
4, 188040, Note_on_c, 2, 51, 0
4, 188040, Note_on_c, 2, 60, 0
4, 188040, Note_on_c, 2, 61, 105
4, 188040, Note_on_c, 2, 52, 112
4, 188280, Note_on_c, 2, 52, 0
4, 188280, Note_on_c, 2, 61, 0
4, 188280, Note_on_c, 2, 62, 84
4, 188280, Note_on_c, 2, 53, 94
4, 188340, Note_on_c, 2, 53, 0
4, 188340, Note_on_c, 2, 62, 0
4, 188400, Note_on_c, 2, 63, 82
4, 188400, Note_on_c, 2, 54, 89
4, 188460, Note_on_c, 2, 54, 0
4, 188460, Note_on_c, 2, 63, 0
4, 188520, Note_on_c, 2, 64, 94
4, 188520, Note_on_c, 2, 55, 94
4, 188580, Note_on_c, 2, 55, 0
4, 188580, Note_on_c, 2, 64, 0
4, 188640, Note_on_c, 2, 65, 107
4, 188640, Note_on_c, 2, 53, 107
4, 188880, Note_on_c, 2, 53, 0
4, 188880, Note_on_c, 2, 65, 0
4, 229440, Note_on_c, 2, 58, 80
4, 229440, Note_on_c, 2, 46, 90
4, 229560, Note_on_c, 2, 46, 0
4, 229560, Note_on_c, 2, 58, 0
4, 230520, Note_on_c, 2, 62, 53
4, 230520, Note_on_c, 2, 58, 45
4, 230610, Note_on_c, 2, 58, 0
4, 230610, Note_on_c, 2, 62, 0
4, 230640, Note_on_c, 2, 62, 44
4, 230640, Note_on_c, 2, 58, 43
4, 230730, Note_on_c, 2, 58, 0
4, 230730, Note_on_c, 2, 62, 0
4, 230760, Note_on_c, 2, 62, 52
4, 230760, Note_on_c, 2, 58, 43
4, 230850, Note_on_c, 2, 58, 0
4, 230850, Note_on_c, 2, 62, 0
4, 230874, Control_c, 2, 7, 64
4, 230880, Note_on_c, 2, 63, 82
4, 230880, Note_on_c, 2, 60, 78
4, 230888, Control_c, 2, 7, 65
4, 230902, Control_c, 2, 7, 66
4, 230916, Control_c, 2, 7, 67
4, 230930, Control_c, 2, 7, 68
4, 230944, Control_c, 2, 7, 69
4, 230958, Control_c, 2, 7, 70
4, 230972, Control_c, 2, 7, 71
4, 230986, Control_c, 2, 7, 72
4, 231000, Control_c, 2, 7, 73
4, 231014, Control_c, 2, 7, 74
4, 231028, Control_c, 2, 7, 75
4, 231040, Control_c, 2, 7, 76
4, 231054, Control_c, 2, 7, 77
4, 231068, Control_c, 2, 7, 78
4, 231082, Control_c, 2, 7, 79
4, 231096, Control_c, 2, 7, 80
4, 231110, Control_c, 2, 7, 81
4, 231124, Control_c, 2, 7, 82
4, 231138, Control_c, 2, 7, 83
4, 231152, Control_c, 2, 7, 84
4, 231166, Control_c, 2, 7, 85
4, 231180, Control_c, 2, 7, 86
4, 231194, Control_c, 2, 7, 87
4, 231206, Control_c, 2, 7, 88
4, 231220, Control_c, 2, 7, 89
4, 231234, Control_c, 2, 7, 90
4, 231248, Control_c, 2, 7, 91
4, 231262, Control_c, 2, 7, 92
4, 231276, Control_c, 2, 7, 93
4, 231290, Control_c, 2, 7, 94
4, 231304, Control_c, 2, 7, 95
4, 231318, Control_c, 2, 7, 96
4, 231332, Control_c, 2, 7, 97
4, 231346, Control_c, 2, 7, 98
4, 231358, Control_c, 2, 7, 99
4, 231360, Note_on_c, 2, 60, 0
4, 231360, Note_on_c, 2, 63, 0
4, 231360, Note_on_c, 2, 62, 57
4, 231360, Note_on_c, 2, 58, 54
4, 231480, Note_on_c, 2, 58, 0
4, 231480, Note_on_c, 2, 62, 0
4, 231600, Note_on_c, 2, 62, 90
4, 231600, Note_on_c, 2, 53, 94
4, 231720, Note_on_c, 2, 53, 0
4, 231720, Note_on_c, 2, 62, 0
4, 231840, Note_on_c, 2, 58, 86
4, 231840, Note_on_c, 2, 50, 112
4, 231960, Note_on_c, 2, 50, 0
4, 231960, Note_on_c, 2, 58, 0
4, 231960, End_track
5, 0, Start_track
5, 0, MIDI_port, 0
5, 0, Title_t, "French Horns"
5, 0, Control_c, 3, 7, 100
5, 0, Control_c, 3, 10, 54
5, 0, Control_c, 3, 93, 0
5, 0, Control_c, 3, 91, 66
5, 0, Program_c, 3, 60
5, 0, Note_on_c, 3, 70, 82
5, 0, Note_on_c, 3, 58, 85
5, 180, Note_on_c, 3, 58, 0
5, 180, Note_on_c, 3, 70, 0
5, 210, Note_on_c, 3, 70, 84
5, 210, Note_on_c, 3, 58, 94
5, 240, Note_on_c, 3, 58, 0
5, 240, Note_on_c, 3, 70, 0
5, 240, Note_on_c, 3, 77, 86
5, 240, Note_on_c, 3, 65, 93
5, 270, Note_on_c, 3, 65, 0
5, 270, Note_on_c, 3, 77, 0
5, 330, Note_on_c, 3, 77, 77
5, 330, Note_on_c, 3, 65, 84
5, 345, Note_on_c, 3, 65, 0
5, 345, Note_on_c, 3, 77, 0
5, 360, Note_on_c, 3, 74, 98
5, 360, Note_on_c, 3, 62, 90
5, 390, Note_on_c, 3, 62, 0
5, 390, Note_on_c, 3, 74, 0
5, 450, Note_on_c, 3, 74, 90
5, 450, Note_on_c, 3, 62, 90
5, 465, Note_on_c, 3, 62, 0
5, 465, Note_on_c, 3, 74, 0
5, 480, Note_on_c, 3, 70, 89
5, 480, Note_on_c, 3, 58, 89
5, 600, Note_on_c, 3, 58, 0
5, 600, Note_on_c, 3, 70, 0
5, 1198, Control_c, 3, 7, 94
5, 1202, Control_c, 3, 7, 93
5, 1206, Control_c, 3, 7, 92
5, 1210, Control_c, 3, 7, 91
5, 1214, Control_c, 3, 7, 90
5, 1218, Control_c, 3, 7, 89
5, 1222, Control_c, 3, 7, 88
5, 1226, Control_c, 3, 7, 87
5, 1230, Control_c, 3, 7, 86
5, 1234, Control_c, 3, 7, 85
5, 1238, Control_c, 3, 7, 84
5, 1242, Control_c, 3, 7, 83
5, 1246, Control_c, 3, 7, 82
5, 1248, Control_c, 3, 7, 81
5, 1252, Control_c, 3, 7, 80
5, 1256, Control_c, 3, 7, 79
5, 1260, Control_c, 3, 7, 78
5, 1264, Control_c, 3, 7, 77
5, 1268, Control_c, 3, 7, 76
5, 1272, Control_c, 3, 7, 75
5, 1276, Control_c, 3, 7, 74
5, 1280, Control_c, 3, 7, 73
5, 1284, Control_c, 3, 7, 72
5, 1288, Control_c, 3, 7, 71
5, 1292, Control_c, 3, 7, 70
5, 1296, Control_c, 3, 7, 69
5, 1298, Control_c, 3, 7, 68
5, 1302, Control_c, 3, 7, 67
5, 1306, Control_c, 3, 7, 66
5, 1310, Control_c, 3, 7, 65
5, 1314, Control_c, 3, 7, 64
5, 1318, Control_c, 3, 7, 63
5, 1322, Control_c, 3, 7, 62
5, 1326, Control_c, 3, 7, 61
5, 1330, Control_c, 3, 7, 60
5, 1334, Control_c, 3, 7, 59
5, 1338, Control_c, 3, 7, 58
5, 1342, Control_c, 3, 7, 57
5, 1344, Control_c, 3, 7, 56
5, 1348, Control_c, 3, 7, 55
5, 1352, Control_c, 3, 7, 54
5, 1356, Control_c, 3, 7, 53
5, 1360, Control_c, 3, 7, 52
5, 1364, Control_c, 3, 7, 51
5, 1368, Control_c, 3, 7, 50
5, 1372, Control_c, 3, 7, 49
5, 1376, Control_c, 3, 7, 48
5, 1380, Control_c, 3, 7, 47
5, 1384, Control_c, 3, 7, 46
5, 1388, Control_c, 3, 7, 45
5, 1392, Control_c, 3, 7, 44
5, 1394, Control_c, 3, 7, 43
5, 1398, Control_c, 3, 7, 42
5, 1402, Control_c, 3, 7, 41
5, 1406, Control_c, 3, 7, 40
5, 1410, Control_c, 3, 7, 39
5, 1414, Control_c, 3, 7, 38
5, 1418, Control_c, 3, 7, 37
5, 1422, Control_c, 3, 7, 36
5, 1426, Control_c, 3, 7, 35
5, 1430, Control_c, 3, 7, 34
5, 1434, Control_c, 3, 7, 33
5, 1438, Control_c, 3, 7, 32
5, 1440, Note_on_c, 3, 77, 95
5, 1440, Control_c, 3, 7, 31
5, 1444, Control_c, 3, 7, 30
5, 1452, Control_c, 3, 7, 31
5, 1458, Control_c, 3, 7, 32
5, 1466, Control_c, 3, 7, 33
5, 1472, Control_c, 3, 7, 34
5, 1478, Control_c, 3, 7, 35
5, 1486, Control_c, 3, 7, 36
5, 1492, Control_c, 3, 7, 37
5, 1498, Control_c, 3, 7, 38
5, 1506, Control_c, 3, 7, 39
5, 1512, Control_c, 3, 7, 40
5, 1518, Control_c, 3, 7, 41
5, 1526, Control_c, 3, 7, 42
5, 1532, Control_c, 3, 7, 43
5, 1538, Control_c, 3, 7, 44
5, 1546, Control_c, 3, 7, 45
5, 1552, Control_c, 3, 7, 46
5, 1558, Control_c, 3, 7, 47
5, 1566, Control_c, 3, 7, 48
5, 1572, Control_c, 3, 7, 49
5, 1580, Control_c, 3, 7, 50
5, 1586, Control_c, 3, 7, 51
5, 1592, Control_c, 3, 7, 52
5, 1600, Control_c, 3, 7, 53
5, 1606, Control_c, 3, 7, 54
5, 1612, Control_c, 3, 7, 55
5, 1620, Control_c, 3, 7, 56
5, 1626, Control_c, 3, 7, 57
5, 1632, Control_c, 3, 7, 58
5, 1640, Control_c, 3, 7, 59
5, 1646, Control_c, 3, 7, 60
5, 1652, Control_c, 3, 7, 61
5, 1660, Control_c, 3, 7, 62
5, 1666, Control_c, 3, 7, 63
5, 1672, Control_c, 3, 7, 64
5, 1680, Control_c, 3, 7, 65
5, 1686, Control_c, 3, 7, 66
5, 1694, Control_c, 3, 7, 67
5, 1700, Control_c, 3, 7, 68
5, 1706, Control_c, 3, 7, 69
5, 1714, Control_c, 3, 7, 70
5, 1720, Control_c, 3, 7, 71
5, 1726, Control_c, 3, 7, 72
5, 1734, Control_c, 3, 7, 73
5, 1740, Control_c, 3, 7, 74
5, 1746, Control_c, 3, 7, 75
5, 1754, Control_c, 3, 7, 76
5, 1760, Control_c, 3, 7, 77
5, 1766, Control_c, 3, 7, 78
5, 1774, Control_c, 3, 7, 79
5, 1780, Control_c, 3, 7, 80
5, 1786, Control_c, 3, 7, 81
5, 1794, Control_c, 3, 7, 82
5, 1800, Control_c, 3, 7, 83
5, 1808, Control_c, 3, 7, 84
5, 1814, Control_c, 3, 7, 85
5, 1820, Control_c, 3, 7, 86
5, 1828, Control_c, 3, 7, 87
5, 1834, Control_c, 3, 7, 88
5, 1840, Control_c, 3, 7, 89
5, 1848, Control_c, 3, 7, 90
5, 1854, Control_c, 3, 7, 91
5, 1860, Control_c, 3, 7, 92
5, 1868, Control_c, 3, 7, 93
5, 1874, Control_c, 3, 7, 94
5, 1880, Control_c, 3, 7, 95
5, 1888, Control_c, 3, 7, 96
5, 1894, Control_c, 3, 7, 97
5, 1900, Control_c, 3, 7, 98
5, 1908, Control_c, 3, 7, 99
5, 1914, Control_c, 3, 7, 100
5, 1920, Note_on_c, 3, 77, 0
5, 1920, Control_c, 3, 7, 100
5, 1920, Control_c, 3, 10, 54
5, 1920, Control_c, 3, 93, 0
5, 1920, Control_c, 3, 91, 66
5, 1920, Note_on_c, 3, 77, 90
5, 1920, Note_on_c, 3, 65, 98
5, 2040, Control_c, 3, 7, 100
5, 2040, Control_c, 3, 10, 54
5, 2040, Control_c, 3, 93, 0
5, 2040, Control_c, 3, 91, 66
5, 2100, Note_on_c, 3, 65, 0
5, 2100, Note_on_c, 3, 77, 0
5, 2130, Note_on_c, 3, 77, 90
5, 2130, Note_on_c, 3, 65, 99
5, 2160, Note_on_c, 3, 65, 0
5, 2160, Note_on_c, 3, 77, 0
5, 2160, Note_on_c, 3, 77, 89
5, 2160, Note_on_c, 3, 65, 94
5, 2190, Note_on_c, 3, 65, 0
5, 2190, Note_on_c, 3, 77, 0
5, 2250, Note_on_c, 3, 77, 81
5, 2250, Note_on_c, 3, 65, 85
5, 2265, Note_on_c, 3, 65, 0
5, 2265, Note_on_c, 3, 77, 0
5, 2280, Note_on_c, 3, 77, 90
5, 2280, Note_on_c, 3, 65, 89
5, 2310, Note_on_c, 3, 65, 0
5, 2310, Note_on_c, 3, 77, 0
5, 2370, Note_on_c, 3, 77, 84
5, 2370, Note_on_c, 3, 65, 85
5, 2385, Note_on_c, 3, 65, 0
5, 2385, Note_on_c, 3, 77, 0
5, 2400, Note_on_c, 3, 77, 94
5, 2400, Note_on_c, 3, 65, 99
5, 2520, Note_on_c, 3, 65, 0
5, 2520, Note_on_c, 3, 77, 0
5, 3360, Control_c, 3, 7, 99
5, 3370, Control_c, 3, 7, 100
5, 3378, Control_c, 3, 7, 101
5, 3386, Control_c, 3, 7, 102
5, 3396, Control_c, 3, 7, 103
5, 3404, Control_c, 3, 7, 104
5, 3412, Control_c, 3, 7, 105
5, 3422, Control_c, 3, 7, 106
5, 3430, Control_c, 3, 7, 107
5, 3438, Control_c, 3, 7, 108
5, 3448, Control_c, 3, 7, 109
5, 3456, Control_c, 3, 7, 110
5, 3464, Control_c, 3, 7, 111
5, 3474, Control_c, 3, 7, 112
5, 3482, Control_c, 3, 7, 113
5, 3490, Control_c, 3, 7, 114
5, 3500, Control_c, 3, 7, 115
5, 3508, Control_c, 3, 7, 116
5, 3516, Control_c, 3, 7, 117
5, 3526, Control_c, 3, 7, 118
5, 3534, Control_c, 3, 7, 119
5, 3542, Control_c, 3, 7, 120
5, 3552, Control_c, 3, 7, 121
5, 3560, Control_c, 3, 7, 122
5, 3568, Control_c, 3, 7, 123
5, 3578, Control_c, 3, 7, 124
5, 3586, Control_c, 3, 7, 125
5, 3594, Control_c, 3, 7, 126
5, 3596, Control_c, 3, 7, 127
5, 3606, Control_c, 3, 7, 126
5, 3614, Control_c, 3, 7, 125
5, 3624, Control_c, 3, 7, 124
5, 3632, Control_c, 3, 7, 123
5, 3640, Control_c, 3, 7, 122
5, 3650, Control_c, 3, 7, 121
5, 3658, Control_c, 3, 7, 120
5, 3666, Control_c, 3, 7, 119
5, 3676, Control_c, 3, 7, 118
5, 3684, Control_c, 3, 7, 117
5, 3692, Control_c, 3, 7, 116
5, 3702, Control_c, 3, 7, 115
5, 3710, Control_c, 3, 7, 114
5, 3718, Control_c, 3, 7, 113
5, 3728, Control_c, 3, 7, 112
5, 3736, Control_c, 3, 7, 111
5, 3746, Control_c, 3, 7, 110
5, 3754, Control_c, 3, 7, 109
5, 3762, Control_c, 3, 7, 108
5, 3772, Control_c, 3, 7, 107
5, 3780, Control_c, 3, 7, 106
5, 3788, Control_c, 3, 7, 105
5, 3798, Control_c, 3, 7, 104
5, 3806, Control_c, 3, 7, 103
5, 3814, Control_c, 3, 7, 102
5, 3824, Control_c, 3, 7, 101
5, 3832, Control_c, 3, 7, 100
5, 3840, Control_c, 3, 7, 99
5, 7200, Note_on_c, 3, 62, 47
5, 7200, Note_on_c, 3, 70, 41
5, 7680, Note_on_c, 3, 70, 0
5, 7680, Note_on_c, 3, 62, 0
5, 7680, Note_on_c, 3, 62, 55
5, 7680, Note_on_c, 3, 70, 41
5, 8160, Note_on_c, 3, 70, 0
5, 8160, Note_on_c, 3, 62, 0
5, 8160, Note_on_c, 3, 65, 47
5, 8160, Note_on_c, 3, 72, 29
5, 8640, Note_on_c, 3, 72, 0
5, 8640, Note_on_c, 3, 65, 0
5, 8640, Note_on_c, 3, 65, 72
5, 8640, Note_on_c, 3, 72, 29
5, 9120, Note_on_c, 3, 72, 0
5, 9120, Note_on_c, 3, 65, 0
5, 9120, Note_on_c, 3, 62, 68
5, 9120, Note_on_c, 3, 70, 45
5, 9600, Note_on_c, 3, 70, 0
5, 9600, Note_on_c, 3, 62, 0
5, 9600, Note_on_c, 3, 65, 72
5, 9600, Note_on_c, 3, 77, 68
5, 10080, Note_on_c, 3, 77, 0
5, 10080, Note_on_c, 3, 65, 0
5, 10080, Note_on_c, 3, 77, 82
5, 10080, Note_on_c, 3, 65, 90
5, 10200, Note_on_c, 3, 65, 0
5, 10200, Note_on_c, 3, 77, 0
5, 10320, Note_on_c, 3, 65, 98
5, 10320, Note_on_c, 3, 77, 85
5, 10560, Note_on_c, 3, 77, 0
5, 10560, Note_on_c, 3, 65, 0
5, 10560, Note_on_c, 3, 77, 70
5, 10560, Note_on_c, 3, 65, 84
5, 10680, Note_on_c, 3, 65, 0
5, 10680, Note_on_c, 3, 77, 0
5, 14400, Note_on_c, 3, 72, 78
5, 14880, Note_on_c, 3, 72, 0
5, 14880, Note_on_c, 3, 72, 80
5, 15360, Note_on_c, 3, 72, 0
5, 15360, Note_on_c, 3, 72, 71
5, 15480, Note_on_c, 3, 72, 0
5, 15480, Note_on_c, 3, 72, 93
5, 15540, Note_on_c, 3, 72, 0
5, 15720, Note_on_c, 3, 72, 86
5, 15780, Note_on_c, 3, 72, 0
5, 15960, Note_on_c, 3, 72, 94
5, 16020, Note_on_c, 3, 72, 0
5, 16320, Note_on_c, 3, 72, 76
5, 16680, Note_on_c, 3, 72, 0
5, 16680, Note_on_c, 3, 72, 74
5, 16770, Note_on_c, 3, 72, 0
5, 16770, Note_on_c, 3, 72, 81
5, 16800, Note_on_c, 3, 72, 0
5, 16800, Note_on_c, 3, 72, 78
5, 17160, Note_on_c, 3, 72, 0
5, 17160, Note_on_c, 3, 72, 76
5, 17250, Note_on_c, 3, 72, 0
5, 17250, Note_on_c, 3, 72, 81
5, 17280, Note_on_c, 3, 72, 0
5, 17400, Note_on_c, 3, 72, 89
5, 17430, Note_on_c, 3, 72, 0
5, 17640, Note_on_c, 3, 72, 84
5, 17670, Note_on_c, 3, 72, 0
5, 17880, Note_on_c, 3, 72, 85
5, 17910, Note_on_c, 3, 72, 0
5, 22560, Note_on_c, 3, 70, 53
5, 23040, Note_on_c, 3, 70, 0
5, 23040, Note_on_c, 3, 72, 62
5, 23040, Note_on_c, 3, 70, 49
5, 23520, Note_on_c, 3, 70, 0
5, 23520, Note_on_c, 3, 72, 0
5, 23520, Note_on_c, 3, 72, 57
5, 23520, Note_on_c, 3, 65, 42
5, 24000, Note_on_c, 3, 65, 0
5, 24000, Note_on_c, 3, 72, 0
5, 24000, Note_on_c, 3, 70, 45
5, 24000, Note_on_c, 3, 58, 43
5, 24120, Note_on_c, 3, 58, 0
5, 24120, Note_on_c, 3, 70, 0
5, 24480, Note_on_c, 3, 77, 84
5, 24480, Note_on_c, 3, 65, 86
5, 24482, Control_c, 3, 7, 99
5, 24486, Control_c, 3, 7, 98
5, 24488, Control_c, 3, 7, 97
5, 24492, Control_c, 3, 7, 96
5, 24494, Control_c, 3, 7, 95
5, 24498, Control_c, 3, 7, 94
5, 24500, Control_c, 3, 7, 93
5, 24504, Control_c, 3, 7, 92
5, 24506, Control_c, 3, 7, 91
5, 24510, Control_c, 3, 7, 90
5, 24512, Control_c, 3, 7, 89
5, 24516, Control_c, 3, 7, 88
5, 24518, Control_c, 3, 7, 87
5, 24522, Control_c, 3, 7, 86
5, 24524, Control_c, 3, 7, 85
5, 24528, Control_c, 3, 7, 84
5, 24530, Control_c, 3, 7, 83
5, 24534, Control_c, 3, 7, 82
5, 24536, Control_c, 3, 7, 81
5, 24540, Control_c, 3, 7, 80
5, 24542, Control_c, 3, 7, 79
5, 24544, Control_c, 3, 7, 78
5, 24548, Control_c, 3, 7, 77
5, 24550, Control_c, 3, 7, 76
5, 24554, Control_c, 3, 7, 75
5, 24556, Control_c, 3, 7, 74
5, 24560, Control_c, 3, 7, 73
5, 24562, Control_c, 3, 7, 72
5, 24566, Control_c, 3, 7, 71
5, 24568, Control_c, 3, 7, 70
5, 24572, Control_c, 3, 7, 69
5, 24574, Control_c, 3, 7, 68
5, 24578, Control_c, 3, 7, 67
5, 24580, Control_c, 3, 7, 66
5, 24584, Control_c, 3, 7, 65
5, 24586, Control_c, 3, 7, 64
5, 24590, Control_c, 3, 7, 63
5, 24592, Control_c, 3, 7, 62
5, 24596, Control_c, 3, 7, 61
5, 24598, Control_c, 3, 7, 60
5, 24600, Control_c, 3, 7, 59
5, 24960, Note_on_c, 3, 65, 0
5, 24960, Note_on_c, 3, 77, 0
5, 24960, Note_on_c, 3, 70, 84
5, 24960, Note_on_c, 3, 58, 94
5, 25080, Note_on_c, 3, 58, 0
5, 25080, Note_on_c, 3, 70, 0
5, 25440, Note_on_c, 3, 77, 77
5, 25440, Note_on_c, 3, 65, 89
5, 25440, Control_c, 3, 7, 99
5, 25444, Control_c, 3, 7, 98
5, 25446, Control_c, 3, 7, 97
5, 25450, Control_c, 3, 7, 96
5, 25452, Control_c, 3, 7, 95
5, 25456, Control_c, 3, 7, 94
5, 25458, Control_c, 3, 7, 93
5, 25462, Control_c, 3, 7, 92
5, 25464, Control_c, 3, 7, 91
5, 25468, Control_c, 3, 7, 90
5, 25470, Control_c, 3, 7, 89
5, 25474, Control_c, 3, 7, 88
5, 25476, Control_c, 3, 7, 87
5, 25480, Control_c, 3, 7, 86
5, 25482, Control_c, 3, 7, 85
5, 25486, Control_c, 3, 7, 84
5, 25488, Control_c, 3, 7, 83
5, 25492, Control_c, 3, 7, 82
5, 25494, Control_c, 3, 7, 81
5, 25498, Control_c, 3, 7, 80
5, 25500, Control_c, 3, 7, 79
5, 25504, Control_c, 3, 7, 78
5, 25506, Control_c, 3, 7, 77
5, 25510, Control_c, 3, 7, 76
5, 25512, Control_c, 3, 7, 75
5, 25516, Control_c, 3, 7, 74
5, 25518, Control_c, 3, 7, 73
5, 25522, Control_c, 3, 7, 72
5, 25524, Control_c, 3, 7, 71
5, 25528, Control_c, 3, 7, 70
5, 25530, Control_c, 3, 7, 69
5, 25534, Control_c, 3, 7, 68
5, 25536, Control_c, 3, 7, 67
5, 25540, Control_c, 3, 7, 66
5, 25542, Control_c, 3, 7, 65
5, 25546, Control_c, 3, 7, 64
5, 25548, Control_c, 3, 7, 63
5, 25552, Control_c, 3, 7, 62
5, 25554, Control_c, 3, 7, 61
5, 25558, Control_c, 3, 7, 60
5, 25560, Control_c, 3, 7, 59
5, 25920, Note_on_c, 3, 65, 0
5, 25920, Note_on_c, 3, 77, 0
5, 25920, Note_on_c, 3, 70, 81
5, 25920, Note_on_c, 3, 58, 85
5, 26040, Note_on_c, 3, 58, 0
5, 26040, Note_on_c, 3, 70, 0
5, 26040, Control_c, 3, 7, 59
5, 26050, Control_c, 3, 7, 60
5, 26060, Control_c, 3, 7, 61
5, 26068, Control_c, 3, 7, 62
5, 26078, Control_c, 3, 7, 63
5, 26086, Control_c, 3, 7, 64
5, 26096, Control_c, 3, 7, 65
5, 26104, Control_c, 3, 7, 66
5, 26114, Control_c, 3, 7, 67
5, 26122, Control_c, 3, 7, 68
5, 26132, Control_c, 3, 7, 69
5, 26140, Control_c, 3, 7, 70
5, 26150, Control_c, 3, 7, 71
5, 26158, Control_c, 3, 7, 72
5, 26168, Control_c, 3, 7, 73
5, 26176, Control_c, 3, 7, 74
5, 26186, Control_c, 3, 7, 75
5, 26194, Control_c, 3, 7, 76
5, 26204, Control_c, 3, 7, 77
5, 26212, Control_c, 3, 7, 78
5, 26222, Control_c, 3, 7, 79
5, 26232, Control_c, 3, 7, 80
5, 26240, Control_c, 3, 7, 81
5, 26250, Control_c, 3, 7, 82
5, 26258, Control_c, 3, 7, 83
5, 26268, Control_c, 3, 7, 84
5, 26276, Control_c, 3, 7, 85
5, 26286, Control_c, 3, 7, 86
5, 26294, Control_c, 3, 7, 87
5, 26304, Control_c, 3, 7, 88
5, 26312, Control_c, 3, 7, 89
5, 26322, Control_c, 3, 7, 90
5, 26330, Control_c, 3, 7, 91
5, 26340, Control_c, 3, 7, 92
5, 26348, Control_c, 3, 7, 93
5, 26358, Control_c, 3, 7, 94
5, 26366, Control_c, 3, 7, 95
5, 26376, Control_c, 3, 7, 96
5, 26384, Control_c, 3, 7, 97
5, 26394, Control_c, 3, 7, 98
5, 26400, Note_on_c, 3, 70, 86
5, 26400, Note_on_c, 3, 72, 61
5, 26402, Control_c, 3, 7, 99
5, 26880, Note_on_c, 3, 72, 0
5, 26880, Note_on_c, 3, 70, 0
5, 26880, Note_on_c, 3, 72, 64
5, 26880, Note_on_c, 3, 65, 90
5, 27000, Note_on_c, 3, 65, 0
5, 27000, Note_on_c, 3, 72, 0
5, 29274, Control_c, 3, 7, 59
5, 29280, Note_on_c, 3, 65, 90
5, 29280, Note_on_c, 3, 72, 76
5, 29288, Control_c, 3, 7, 60
5, 29300, Control_c, 3, 7, 61
5, 29312, Control_c, 3, 7, 62
5, 29324, Control_c, 3, 7, 63
5, 29336, Control_c, 3, 7, 64
5, 29348, Control_c, 3, 7, 65
5, 29360, Control_c, 3, 7, 66
5, 29372, Control_c, 3, 7, 67
5, 29384, Control_c, 3, 7, 68
5, 29396, Control_c, 3, 7, 69
5, 29408, Control_c, 3, 7, 70
5, 29420, Control_c, 3, 7, 71
5, 29432, Control_c, 3, 7, 72
5, 29446, Control_c, 3, 7, 73
5, 29458, Control_c, 3, 7, 74
5, 29470, Control_c, 3, 7, 75
5, 29482, Control_c, 3, 7, 76
5, 29494, Control_c, 3, 7, 77
5, 29506, Control_c, 3, 7, 78
5, 29518, Control_c, 3, 7, 79
5, 29530, Control_c, 3, 7, 80
5, 29542, Control_c, 3, 7, 81
5, 29554, Control_c, 3, 7, 82
5, 29566, Control_c, 3, 7, 83
5, 29578, Control_c, 3, 7, 84
5, 29590, Control_c, 3, 7, 85
5, 29604, Control_c, 3, 7, 86
5, 29616, Control_c, 3, 7, 87
5, 29628, Control_c, 3, 7, 88
5, 29640, Control_c, 3, 7, 89
5, 29652, Control_c, 3, 7, 90
5, 29664, Control_c, 3, 7, 91
5, 29676, Control_c, 3, 7, 92
5, 29688, Control_c, 3, 7, 93
5, 29700, Control_c, 3, 7, 94
5, 29712, Control_c, 3, 7, 95
5, 29724, Control_c, 3, 7, 96
5, 29736, Control_c, 3, 7, 97
5, 29748, Control_c, 3, 7, 98
5, 29760, Note_on_c, 3, 72, 0
5, 29760, Note_on_c, 3, 65, 0
5, 29760, Control_c, 3, 7, 99
5, 29760, Note_on_c, 3, 70, 77
5, 29760, Note_on_c, 3, 62, 90
5, 29766, Control_c, 3, 7, 99
5, 29772, Control_c, 3, 7, 98
5, 29776, Control_c, 3, 7, 97
5, 29782, Control_c, 3, 7, 96
5, 29786, Control_c, 3, 7, 95
5, 29792, Control_c, 3, 7, 94
5, 29796, Control_c, 3, 7, 93
5, 29800, Control_c, 3, 7, 92
5, 29806, Control_c, 3, 7, 91
5, 29810, Control_c, 3, 7, 90
5, 29816, Control_c, 3, 7, 89
5, 29820, Control_c, 3, 7, 88
5, 29824, Control_c, 3, 7, 87
5, 29830, Control_c, 3, 7, 86
5, 29834, Control_c, 3, 7, 85
5, 29840, Control_c, 3, 7, 84
5, 29844, Control_c, 3, 7, 83
5, 29850, Control_c, 3, 7, 82
5, 29854, Control_c, 3, 7, 81
5, 29858, Control_c, 3, 7, 80
5, 29864, Control_c, 3, 7, 79
5, 29868, Control_c, 3, 7, 78
5, 29874, Control_c, 3, 7, 77
5, 29878, Control_c, 3, 7, 76
5, 29882, Control_c, 3, 7, 75
5, 29888, Control_c, 3, 7, 74
5, 29892, Control_c, 3, 7, 73
5, 29898, Control_c, 3, 7, 72
5, 29902, Control_c, 3, 7, 71
5, 29908, Control_c, 3, 7, 70
5, 29912, Control_c, 3, 7, 69
5, 29916, Control_c, 3, 7, 68
5, 29922, Control_c, 3, 7, 67
5, 29926, Control_c, 3, 7, 66
5, 29932, Control_c, 3, 7, 65
5, 29936, Control_c, 3, 7, 64
5, 29940, Note_on_c, 3, 62, 0
5, 29940, Note_on_c, 3, 70, 0
5, 29940, Control_c, 3, 7, 63
5, 30118, Control_c, 3, 7, 63
5, 30122, Control_c, 3, 7, 64
5, 30126, Control_c, 3, 7, 65
5, 30130, Control_c, 3, 7, 66
5, 30132, Control_c, 3, 7, 67
5, 30136, Control_c, 3, 7, 68
5, 30140, Control_c, 3, 7, 69
5, 30142, Control_c, 3, 7, 70
5, 30146, Control_c, 3, 7, 71
5, 30150, Control_c, 3, 7, 72
5, 30152, Control_c, 3, 7, 73
5, 30156, Control_c, 3, 7, 74
5, 30160, Control_c, 3, 7, 75
5, 30164, Control_c, 3, 7, 76
5, 30166, Control_c, 3, 7, 77
5, 30170, Control_c, 3, 7, 78
5, 30174, Control_c, 3, 7, 79
5, 30176, Control_c, 3, 7, 80
5, 30180, Control_c, 3, 7, 81
5, 30184, Control_c, 3, 7, 82
5, 30186, Control_c, 3, 7, 83
5, 30190, Control_c, 3, 7, 84
5, 30194, Control_c, 3, 7, 85
5, 30196, Control_c, 3, 7, 86
5, 30200, Control_c, 3, 7, 87
5, 30204, Control_c, 3, 7, 88
5, 30208, Control_c, 3, 7, 89
5, 30210, Control_c, 3, 7, 90
5, 30214, Control_c, 3, 7, 91
5, 30218, Control_c, 3, 7, 92
5, 30220, Control_c, 3, 7, 93
5, 30224, Control_c, 3, 7, 94
5, 30228, Control_c, 3, 7, 95
5, 30230, Control_c, 3, 7, 96
5, 30234, Control_c, 3, 7, 97
5, 30238, Control_c, 3, 7, 98
5, 30240, Note_on_c, 3, 77, 61
5, 30240, Note_on_c, 3, 65, 62
5, 30240, Control_c, 3, 7, 99
5, 30420, Note_on_c, 3, 65, 0
5, 30420, Note_on_c, 3, 77, 0
5, 30450, Note_on_c, 3, 77, 64
5, 30450, Note_on_c, 3, 65, 61
5, 30480, Note_on_c, 3, 65, 0
5, 30480, Note_on_c, 3, 77, 0
5, 30480, Note_on_c, 3, 77, 52
5, 30480, Note_on_c, 3, 65, 65
5, 30525, Note_on_c, 3, 65, 0
5, 30525, Note_on_c, 3, 77, 0
5, 30570, Note_on_c, 3, 77, 56
5, 30570, Note_on_c, 3, 65, 64
5, 30585, Note_on_c, 3, 65, 0
5, 30585, Note_on_c, 3, 77, 0
5, 30600, Note_on_c, 3, 77, 58
5, 30600, Note_on_c, 3, 65, 65
5, 30645, Note_on_c, 3, 65, 0
5, 30645, Note_on_c, 3, 77, 0
5, 30690, Note_on_c, 3, 77, 45
5, 30690, Note_on_c, 3, 65, 68
5, 30705, Note_on_c, 3, 65, 0
5, 30705, Note_on_c, 3, 77, 0
5, 30720, Note_on_c, 3, 77, 82
5, 30720, Note_on_c, 3, 65, 89
5, 30722, Control_c, 3, 7, 99
5, 30726, Control_c, 3, 7, 98
5, 30730, Control_c, 3, 7, 97
5, 30734, Control_c, 3, 7, 96
5, 30736, Control_c, 3, 7, 95
5, 30740, Control_c, 3, 7, 94
5, 30744, Control_c, 3, 7, 93
5, 30748, Control_c, 3, 7, 92
5, 30750, Control_c, 3, 7, 91
5, 30754, Control_c, 3, 7, 90
5, 30758, Control_c, 3, 7, 89
5, 30762, Control_c, 3, 7, 88
5, 30764, Control_c, 3, 7, 87
5, 30768, Control_c, 3, 7, 86
5, 30772, Control_c, 3, 7, 85
5, 30776, Control_c, 3, 7, 84
5, 30778, Control_c, 3, 7, 83
5, 30782, Control_c, 3, 7, 82
5, 30786, Control_c, 3, 7, 81
5, 30788, Control_c, 3, 7, 80
5, 30792, Control_c, 3, 7, 79
5, 30796, Control_c, 3, 7, 78
5, 30800, Control_c, 3, 7, 77
5, 30802, Control_c, 3, 7, 76
5, 30806, Control_c, 3, 7, 75
5, 30810, Control_c, 3, 7, 74
5, 30814, Control_c, 3, 7, 73
5, 30816, Control_c, 3, 7, 72
5, 30820, Control_c, 3, 7, 71
5, 30824, Control_c, 3, 7, 70
5, 30828, Control_c, 3, 7, 69
5, 30830, Control_c, 3, 7, 68
5, 30834, Control_c, 3, 7, 67
5, 30838, Control_c, 3, 7, 66
5, 30840, Note_on_c, 3, 65, 0
5, 30840, Note_on_c, 3, 77, 0
5, 30840, Control_c, 3, 7, 65
5, 31072, Control_c, 3, 7, 64
5, 31076, Control_c, 3, 7, 65
5, 31080, Control_c, 3, 7, 66
5, 31084, Control_c, 3, 7, 67
5, 31088, Control_c, 3, 7, 68
5, 31090, Control_c, 3, 7, 69
5, 31094, Control_c, 3, 7, 70
5, 31098, Control_c, 3, 7, 71
5, 31102, Control_c, 3, 7, 72
5, 31104, Control_c, 3, 7, 73
5, 31108, Control_c, 3, 7, 74
5, 31112, Control_c, 3, 7, 75
5, 31116, Control_c, 3, 7, 76
5, 31120, Control_c, 3, 7, 77
5, 31122, Control_c, 3, 7, 78
5, 31126, Control_c, 3, 7, 79
5, 31130, Control_c, 3, 7, 80
5, 31134, Control_c, 3, 7, 81
5, 31136, Control_c, 3, 7, 82
5, 31140, Control_c, 3, 7, 83
5, 31144, Control_c, 3, 7, 84
5, 31148, Control_c, 3, 7, 85
5, 31150, Control_c, 3, 7, 86
5, 31154, Control_c, 3, 7, 87
5, 31158, Control_c, 3, 7, 88
5, 31162, Control_c, 3, 7, 89
5, 31166, Control_c, 3, 7, 90
5, 31168, Control_c, 3, 7, 91
5, 31172, Control_c, 3, 7, 92
5, 31176, Control_c, 3, 7, 93
5, 31180, Control_c, 3, 7, 94
5, 31182, Control_c, 3, 7, 95
5, 31186, Control_c, 3, 7, 96
5, 31190, Control_c, 3, 7, 97
5, 31194, Control_c, 3, 7, 98
5, 31196, Control_c, 3, 7, 99
5, 31200, Note_on_c, 3, 77, 59
5, 31200, Note_on_c, 3, 65, 74
5, 31380, Note_on_c, 3, 65, 0
5, 31380, Note_on_c, 3, 77, 0
5, 31410, Note_on_c, 3, 77, 63
5, 31410, Note_on_c, 3, 65, 62
5, 31440, Note_on_c, 3, 65, 0
5, 31440, Note_on_c, 3, 77, 0
5, 31440, Note_on_c, 3, 77, 64
5, 31440, Note_on_c, 3, 65, 65
5, 31485, Note_on_c, 3, 65, 0
5, 31485, Note_on_c, 3, 77, 0
5, 31530, Note_on_c, 3, 77, 62
5, 31530, Note_on_c, 3, 65, 70
5, 31545, Note_on_c, 3, 65, 0
5, 31545, Note_on_c, 3, 77, 0
5, 31560, Note_on_c, 3, 77, 53
5, 31560, Note_on_c, 3, 65, 52
5, 31605, Note_on_c, 3, 65, 0
5, 31605, Note_on_c, 3, 77, 0
5, 31650, Note_on_c, 3, 77, 66
5, 31650, Note_on_c, 3, 65, 62
5, 31665, Note_on_c, 3, 65, 0
5, 31665, Note_on_c, 3, 77, 0
5, 31680, Note_on_c, 3, 77, 94
5, 31680, Note_on_c, 3, 65, 95
5, 31682, Control_c, 3, 7, 99
5, 31686, Control_c, 3, 7, 98
5, 31690, Control_c, 3, 7, 97
5, 31694, Control_c, 3, 7, 96
5, 31696, Control_c, 3, 7, 95
5, 31700, Control_c, 3, 7, 94
5, 31704, Control_c, 3, 7, 93
5, 31708, Control_c, 3, 7, 92
5, 31710, Control_c, 3, 7, 91
5, 31714, Control_c, 3, 7, 90
5, 31718, Control_c, 3, 7, 89
5, 31722, Control_c, 3, 7, 88
5, 31724, Control_c, 3, 7, 87
5, 31728, Control_c, 3, 7, 86
5, 31732, Control_c, 3, 7, 85
5, 31736, Control_c, 3, 7, 84
5, 31738, Control_c, 3, 7, 83
5, 31742, Control_c, 3, 7, 82
5, 31746, Control_c, 3, 7, 81
5, 31748, Control_c, 3, 7, 80
5, 31752, Control_c, 3, 7, 79
5, 31756, Control_c, 3, 7, 78
5, 31760, Control_c, 3, 7, 77
5, 31762, Control_c, 3, 7, 76
5, 31766, Control_c, 3, 7, 75
5, 31770, Control_c, 3, 7, 74
5, 31774, Control_c, 3, 7, 73
5, 31776, Control_c, 3, 7, 72
5, 31780, Control_c, 3, 7, 71
5, 31784, Control_c, 3, 7, 70
5, 31788, Control_c, 3, 7, 69
5, 31790, Control_c, 3, 7, 68
5, 31794, Control_c, 3, 7, 67
5, 31798, Control_c, 3, 7, 66
5, 31800, Note_on_c, 3, 65, 0
5, 31800, Note_on_c, 3, 77, 0
5, 31800, Control_c, 3, 7, 65
5, 32036, Control_c, 3, 7, 63
5, 32040, Control_c, 3, 7, 64
5, 32044, Control_c, 3, 7, 65
5, 32046, Control_c, 3, 7, 66
5, 32050, Control_c, 3, 7, 67
5, 32054, Control_c, 3, 7, 68
5, 32056, Control_c, 3, 7, 69
5, 32060, Control_c, 3, 7, 70
5, 32064, Control_c, 3, 7, 71
5, 32066, Control_c, 3, 7, 72
5, 32070, Control_c, 3, 7, 73
5, 32074, Control_c, 3, 7, 74
5, 32076, Control_c, 3, 7, 75
5, 32080, Control_c, 3, 7, 76
5, 32084, Control_c, 3, 7, 77
5, 32086, Control_c, 3, 7, 78
5, 32090, Control_c, 3, 7, 79
5, 32094, Control_c, 3, 7, 80
5, 32096, Control_c, 3, 7, 81
5, 32100, Control_c, 3, 7, 82
5, 32104, Control_c, 3, 7, 83
5, 32106, Control_c, 3, 7, 84
5, 32110, Control_c, 3, 7, 85
5, 32114, Control_c, 3, 7, 86
5, 32116, Control_c, 3, 7, 87
5, 32120, Control_c, 3, 7, 88
5, 32124, Control_c, 3, 7, 89
5, 32126, Control_c, 3, 7, 90
5, 32130, Control_c, 3, 7, 91
5, 32134, Control_c, 3, 7, 92
5, 32136, Control_c, 3, 7, 93
5, 32140, Control_c, 3, 7, 94
5, 32144, Control_c, 3, 7, 95
5, 32146, Control_c, 3, 7, 96
5, 32150, Control_c, 3, 7, 97
5, 32154, Control_c, 3, 7, 98
5, 32156, Control_c, 3, 7, 99
5, 32160, Note_on_c, 3, 77, 64
5, 32160, Note_on_c, 3, 65, 62
5, 32340, Note_on_c, 3, 65, 0
5, 32340, Note_on_c, 3, 77, 0
5, 32370, Note_on_c, 3, 77, 51
5, 32370, Note_on_c, 3, 65, 61
5, 32400, Note_on_c, 3, 65, 0
5, 32400, Note_on_c, 3, 77, 0
5, 32400, Note_on_c, 3, 77, 64
5, 32400, Note_on_c, 3, 65, 67
5, 32445, Note_on_c, 3, 65, 0
5, 32445, Note_on_c, 3, 77, 0
5, 32490, Note_on_c, 3, 77, 57
5, 32490, Note_on_c, 3, 65, 58
5, 32505, Note_on_c, 3, 65, 0
5, 32505, Note_on_c, 3, 77, 0
5, 32520, Note_on_c, 3, 77, 58
5, 32520, Note_on_c, 3, 65, 63
5, 32565, Note_on_c, 3, 65, 0
5, 32565, Note_on_c, 3, 77, 0
5, 32610, Note_on_c, 3, 77, 59
5, 32610, Note_on_c, 3, 65, 58
5, 32625, Note_on_c, 3, 65, 0
5, 32625, Note_on_c, 3, 77, 0
5, 32640, Note_on_c, 3, 72, 98
5, 32820, Note_on_c, 3, 72, 0
5, 33600, Note_on_c, 3, 70, 90
5, 33600, Note_on_c, 3, 58, 98
5, 33780, Note_on_c, 3, 58, 0
5, 33780, Note_on_c, 3, 70, 0
5, 34080, Note_on_c, 3, 70, 94
5, 34080, Note_on_c, 3, 58, 99
5, 34260, Note_on_c, 3, 58, 0
5, 34260, Note_on_c, 3, 70, 0
5, 34560, Note_on_c, 3, 70, 90
5, 34560, Note_on_c, 3, 58, 94
5, 34740, Note_on_c, 3, 58, 0
5, 34740, Note_on_c, 3, 70, 0
5, 36960, Note_on_c, 3, 77, 101
5, 36960, Note_on_c, 3, 65, 101
5, 37440, Note_on_c, 3, 65, 0
5, 37440, Note_on_c, 3, 77, 0
5, 37920, Note_on_c, 3, 77, 94
5, 37920, Note_on_c, 3, 65, 98
5, 38040, Note_on_c, 3, 65, 0
5, 38040, Note_on_c, 3, 77, 0
5, 38040, Note_on_c, 3, 77, 85
5, 38040, Note_on_c, 3, 65, 89
5, 38160, Note_on_c, 3, 65, 0
5, 38160, Note_on_c, 3, 77, 0
5, 38160, Note_on_c, 3, 77, 85
5, 38160, Note_on_c, 3, 65, 86
5, 38280, Note_on_c, 3, 65, 0
5, 38280, Note_on_c, 3, 77, 0
5, 38280, Note_on_c, 3, 77, 89
5, 38280, Note_on_c, 3, 65, 99
5, 38400, Note_on_c, 3, 65, 0
5, 38400, Note_on_c, 3, 77, 0
5, 38400, Note_on_c, 3, 74, 89
5, 38400, Note_on_c, 3, 70, 82
5, 38520, Note_on_c, 3, 70, 0
5, 38520, Note_on_c, 3, 74, 0
5, 38880, Note_on_c, 3, 75, 99
5, 38880, Note_on_c, 3, 72, 76
5, 39120, Note_on_c, 3, 72, 0
5, 39120, Note_on_c, 3, 75, 0
5, 39120, Note_on_c, 3, 72, 76
5, 39120, Note_on_c, 3, 65, 101
5, 39360, Note_on_c, 3, 65, 0
5, 39360, Note_on_c, 3, 72, 0
5, 39360, Note_on_c, 3, 74, 94
5, 39360, Note_on_c, 3, 70, 94
5, 39480, Note_on_c, 3, 70, 0
5, 39480, Note_on_c, 3, 74, 0
5, 39840, Note_on_c, 3, 75, 82
5, 39840, Note_on_c, 3, 72, 81
5, 40080, Note_on_c, 3, 72, 0
5, 40080, Note_on_c, 3, 75, 0
5, 40080, Note_on_c, 3, 72, 64
5, 40080, Note_on_c, 3, 65, 99
5, 40320, Note_on_c, 3, 65, 0
5, 40320, Note_on_c, 3, 72, 0
5, 40320, Note_on_c, 3, 70, 82
5, 40320, Note_on_c, 3, 62, 99
5, 40440, Note_on_c, 3, 62, 0
5, 40560, Note_on_c, 3, 70, 0
5, 41400, Note_on_c, 3, 77, 48
5, 41400, Note_on_c, 3, 65, 45
5, 41490, Note_on_c, 3, 65, 0
5, 41490, Note_on_c, 3, 77, 0
5, 41520, Note_on_c, 3, 77, 53
5, 41520, Note_on_c, 3, 65, 54
5, 41610, Note_on_c, 3, 65, 0
5, 41610, Note_on_c, 3, 77, 0
5, 41640, Note_on_c, 3, 77, 67
5, 41640, Note_on_c, 3, 65, 72
5, 41730, Note_on_c, 3, 65, 0
5, 41730, Note_on_c, 3, 77, 0
5, 41760, Note_on_c, 3, 77, 70
5, 41760, Note_on_c, 3, 65, 72
5, 41760, Control_c, 3, 7, 99
5, 41770, Control_c, 3, 7, 100
5, 41778, Control_c, 3, 7, 101
5, 41786, Control_c, 3, 7, 102
5, 41796, Control_c, 3, 7, 103
5, 41804, Control_c, 3, 7, 104
5, 41812, Control_c, 3, 7, 105
5, 41820, Control_c, 3, 7, 106
5, 41830, Control_c, 3, 7, 107
5, 41838, Control_c, 3, 7, 108
5, 41846, Control_c, 3, 7, 109
5, 41856, Control_c, 3, 7, 110
5, 41864, Control_c, 3, 7, 111
5, 41872, Control_c, 3, 7, 112
5, 41880, Control_c, 3, 7, 113
5, 41890, Control_c, 3, 7, 114
5, 41898, Control_c, 3, 7, 115
5, 41906, Control_c, 3, 7, 116
5, 41916, Control_c, 3, 7, 117
5, 41924, Control_c, 3, 7, 118
5, 41932, Control_c, 3, 7, 119
5, 41940, Control_c, 3, 7, 120
5, 41950, Control_c, 3, 7, 121
5, 41958, Control_c, 3, 7, 122
5, 41966, Control_c, 3, 7, 123
5, 41976, Control_c, 3, 7, 124
5, 41984, Control_c, 3, 7, 125
5, 41992, Control_c, 3, 7, 126
5, 42000, Control_c, 3, 7, 127
5, 42010, Control_c, 3, 7, 126
5, 42018, Control_c, 3, 7, 125
5, 42026, Control_c, 3, 7, 124
5, 42036, Control_c, 3, 7, 123
5, 42044, Control_c, 3, 7, 122
5, 42052, Control_c, 3, 7, 121
5, 42060, Control_c, 3, 7, 120
5, 42070, Control_c, 3, 7, 119
5, 42078, Control_c, 3, 7, 118
5, 42086, Control_c, 3, 7, 117
5, 42096, Control_c, 3, 7, 116
5, 42104, Control_c, 3, 7, 115
5, 42112, Control_c, 3, 7, 114
5, 42120, Control_c, 3, 7, 113
5, 42130, Control_c, 3, 7, 112
5, 42138, Control_c, 3, 7, 111
5, 42146, Control_c, 3, 7, 110
5, 42156, Control_c, 3, 7, 109
5, 42164, Control_c, 3, 7, 108
5, 42172, Control_c, 3, 7, 107
5, 42180, Control_c, 3, 7, 106
5, 42190, Control_c, 3, 7, 105
5, 42198, Control_c, 3, 7, 104
5, 42206, Control_c, 3, 7, 103
5, 42216, Control_c, 3, 7, 102
5, 42224, Control_c, 3, 7, 101
5, 42232, Control_c, 3, 7, 100
5, 42240, Note_on_c, 3, 65, 0
5, 42240, Note_on_c, 3, 77, 0
5, 42240, Control_c, 3, 7, 99
5, 42240, Note_on_c, 3, 77, 47
5, 42240, Note_on_c, 3, 70, 58
5, 42360, Note_on_c, 3, 70, 0
5, 42360, Note_on_c, 3, 77, 0
5, 42480, Note_on_c, 3, 70, 90
5, 42480, Note_on_c, 3, 58, 99
5, 42600, Note_on_c, 3, 58, 0
5, 42600, Note_on_c, 3, 70, 0
5, 42720, Note_on_c, 3, 70, 81
5, 42720, Note_on_c, 3, 58, 94
5, 42840, Note_on_c, 3, 58, 0
5, 42840, Note_on_c, 3, 70, 0
5, 48480, Note_on_c, 3, 70, 85
5, 48480, Note_on_c, 3, 58, 90
5, 48522, Control_c, 3, 7, 99
5, 48526, Control_c, 3, 7, 98
5, 48528, Control_c, 3, 7, 97
5, 48530, Control_c, 3, 7, 96
5, 48532, Control_c, 3, 7, 95
5, 48534, Control_c, 3, 7, 94
5, 48536, Control_c, 3, 7, 93
5, 48538, Control_c, 3, 7, 92
5, 48540, Control_c, 3, 7, 91
5, 48542, Control_c, 3, 7, 90
5, 48544, Control_c, 3, 7, 89
5, 48546, Control_c, 3, 7, 88
5, 48548, Control_c, 3, 7, 87
5, 48552, Control_c, 3, 7, 86
5, 48554, Control_c, 3, 7, 85
5, 48556, Control_c, 3, 7, 84
5, 48558, Control_c, 3, 7, 83
5, 48560, Control_c, 3, 7, 82
5, 48562, Control_c, 3, 7, 81
5, 48564, Control_c, 3, 7, 80
5, 48566, Control_c, 3, 7, 79
5, 48568, Control_c, 3, 7, 78
5, 48570, Control_c, 3, 7, 77
5, 48572, Control_c, 3, 7, 76
5, 48574, Control_c, 3, 7, 75
5, 48578, Control_c, 3, 7, 74
5, 48580, Control_c, 3, 7, 73
5, 48582, Control_c, 3, 7, 72
5, 48584, Control_c, 3, 7, 71
5, 48586, Control_c, 3, 7, 70
5, 48588, Control_c, 3, 7, 69
5, 48590, Control_c, 3, 7, 68
5, 48592, Control_c, 3, 7, 67
5, 48594, Control_c, 3, 7, 66
5, 48596, Control_c, 3, 7, 65
5, 48598, Control_c, 3, 7, 64
5, 48600, Control_c, 3, 7, 63
5, 49200, Note_on_c, 3, 58, 0
5, 49200, Note_on_c, 3, 70, 0
5, 49200, Note_on_c, 3, 70, 80
5, 49200, Note_on_c, 3, 58, 89
5, 49440, Control_c, 3, 7, 63
5, 49454, Control_c, 3, 7, 64
5, 49468, Control_c, 3, 7, 65
5, 49480, Control_c, 3, 7, 66
5, 49494, Control_c, 3, 7, 67
5, 49508, Control_c, 3, 7, 68
5, 49520, Control_c, 3, 7, 69
5, 49534, Control_c, 3, 7, 70
5, 49548, Control_c, 3, 7, 71
5, 49560, Control_c, 3, 7, 72
5, 49574, Control_c, 3, 7, 73
5, 49588, Control_c, 3, 7, 74
5, 49600, Control_c, 3, 7, 75
5, 49614, Control_c, 3, 7, 76
5, 49628, Control_c, 3, 7, 77
5, 49640, Control_c, 3, 7, 78
5, 49654, Control_c, 3, 7, 79
5, 49668, Control_c, 3, 7, 80
5, 49680, Control_c, 3, 7, 81
5, 49694, Control_c, 3, 7, 82
5, 49708, Control_c, 3, 7, 83
5, 49720, Control_c, 3, 7, 84
5, 49734, Control_c, 3, 7, 85
5, 49748, Control_c, 3, 7, 86
5, 49760, Control_c, 3, 7, 87
5, 49774, Control_c, 3, 7, 88
5, 49788, Control_c, 3, 7, 89
5, 49800, Control_c, 3, 7, 90
5, 49814, Control_c, 3, 7, 91
5, 49828, Control_c, 3, 7, 92
5, 49840, Control_c, 3, 7, 93
5, 49854, Control_c, 3, 7, 94
5, 49868, Control_c, 3, 7, 95
5, 49880, Control_c, 3, 7, 96
5, 49894, Control_c, 3, 7, 97
5, 49908, Control_c, 3, 7, 98
5, 49920, Note_on_c, 3, 58, 0
5, 49920, Note_on_c, 3, 70, 0
5, 49920, Control_c, 3, 7, 99
5, 49920, Note_on_c, 3, 70, 73
5, 49920, Note_on_c, 3, 58, 65
5, 49980, Note_on_c, 3, 58, 0
5, 49980, Note_on_c, 3, 70, 0
5, 50040, Note_on_c, 3, 70, 85
5, 50040, Note_on_c, 3, 58, 94
5, 50100, Note_on_c, 3, 58, 0
5, 50100, Note_on_c, 3, 70, 0
5, 50160, Note_on_c, 3, 70, 84
5, 50160, Note_on_c, 3, 58, 89
5, 50220, Note_on_c, 3, 58, 0
5, 50220, Note_on_c, 3, 70, 0
5, 50280, Note_on_c, 3, 70, 89
5, 50280, Note_on_c, 3, 58, 94
5, 50340, Note_on_c, 3, 58, 0
5, 50340, Note_on_c, 3, 70, 0
5, 50400, Note_on_c, 3, 70, 84
5, 50400, Note_on_c, 3, 58, 95
5, 50520, Note_on_c, 3, 58, 0
5, 50520, Note_on_c, 3, 70, 0
5, 60960, Note_on_c, 3, 72, 86
5, 61020, Control_c, 3, 7, 98
5, 61022, Control_c, 3, 7, 97
5, 61024, Control_c, 3, 7, 96
5, 61026, Control_c, 3, 7, 95
5, 61028, Control_c, 3, 7, 94
5, 61030, Control_c, 3, 7, 93
5, 61032, Control_c, 3, 7, 92
5, 61034, Control_c, 3, 7, 91
5, 61036, Control_c, 3, 7, 90
5, 61038, Control_c, 3, 7, 89
5, 61040, Control_c, 3, 7, 87
5, 61042, Control_c, 3, 7, 86
5, 61044, Control_c, 3, 7, 85
5, 61046, Control_c, 3, 7, 84
5, 61048, Control_c, 3, 7, 83
5, 61050, Control_c, 3, 7, 82
5, 61052, Control_c, 3, 7, 81
5, 61054, Control_c, 3, 7, 80
5, 61056, Control_c, 3, 7, 79
5, 61058, Control_c, 3, 7, 78
5, 61060, Control_c, 3, 7, 76
5, 61062, Control_c, 3, 7, 75
5, 61064, Control_c, 3, 7, 74
5, 61066, Control_c, 3, 7, 73
5, 61068, Control_c, 3, 7, 72
5, 61070, Control_c, 3, 7, 71
5, 61072, Control_c, 3, 7, 70
5, 61074, Control_c, 3, 7, 69
5, 61076, Control_c, 3, 7, 68
5, 61078, Control_c, 3, 7, 66
5, 61200, Note_on_c, 3, 72, 0
5, 61200, Note_on_c, 3, 72, 84
5, 61440, Note_on_c, 3, 72, 0
5, 61440, Note_on_c, 3, 77, 77
5, 61440, Note_on_c, 3, 65, 85
5, 61560, Note_on_c, 3, 65, 0
5, 61560, Note_on_c, 3, 77, 0
5, 61920, Note_on_c, 3, 74, 80
5, 61920, Note_on_c, 3, 62, 77
5, 61980, Note_on_c, 3, 62, 0
5, 61980, Note_on_c, 3, 74, 0
5, 62040, Note_on_c, 3, 74, 89
5, 62040, Note_on_c, 3, 62, 86
5, 62100, Note_on_c, 3, 62, 0
5, 62100, Note_on_c, 3, 74, 0
5, 62160, Note_on_c, 3, 74, 90
5, 62160, Note_on_c, 3, 62, 89
5, 62220, Note_on_c, 3, 62, 0
5, 62220, Note_on_c, 3, 74, 0
5, 62280, Note_on_c, 3, 74, 84
5, 62280, Note_on_c, 3, 62, 80
5, 62340, Note_on_c, 3, 62, 0
5, 62340, Note_on_c, 3, 74, 0
5, 62400, Control_c, 3, 7, 99
5, 62400, Note_on_c, 3, 74, 94
5, 62400, Note_on_c, 3, 62, 89
5, 62760, Note_on_c, 3, 62, 0
5, 62760, Note_on_c, 3, 74, 0
5, 62880, Note_on_c, 3, 72, 86
5, 62940, Control_c, 3, 7, 99
5, 62942, Control_c, 3, 7, 98
5, 62944, Control_c, 3, 7, 97
5, 62946, Control_c, 3, 7, 96
5, 62948, Control_c, 3, 7, 95
5, 62950, Control_c, 3, 7, 94
5, 62952, Control_c, 3, 7, 93
5, 62954, Control_c, 3, 7, 92
5, 62956, Control_c, 3, 7, 91
5, 62958, Control_c, 3, 7, 90
5, 62960, Control_c, 3, 7, 89
5, 62962, Control_c, 3, 7, 88
5, 62964, Control_c, 3, 7, 87
5, 62966, Control_c, 3, 7, 86
5, 62968, Control_c, 3, 7, 85
5, 62970, Control_c, 3, 7, 84
5, 62972, Control_c, 3, 7, 82
5, 62974, Control_c, 3, 7, 81
5, 62976, Control_c, 3, 7, 80
5, 62978, Control_c, 3, 7, 79
5, 62980, Control_c, 3, 7, 78
5, 62982, Control_c, 3, 7, 77
5, 62984, Control_c, 3, 7, 76
5, 62986, Control_c, 3, 7, 75
5, 62988, Control_c, 3, 7, 74
5, 62990, Control_c, 3, 7, 73
5, 62992, Control_c, 3, 7, 72
5, 62994, Control_c, 3, 7, 71
5, 62996, Control_c, 3, 7, 70
5, 62998, Control_c, 3, 7, 69
5, 63000, Control_c, 3, 7, 68
5, 63002, Control_c, 3, 7, 66
5, 63360, Note_on_c, 3, 72, 0
5, 63360, Note_on_c, 3, 72, 72
5, 63480, Note_on_c, 3, 72, 0
5, 63720, Note_on_c, 3, 72, 80
5, 63960, Note_on_c, 3, 72, 0
5, 63960, Note_on_c, 3, 72, 84
5, 64020, Note_on_c, 3, 72, 0
5, 64080, Note_on_c, 3, 72, 84
5, 64140, Note_on_c, 3, 72, 0
5, 64200, Note_on_c, 3, 72, 84
5, 64260, Note_on_c, 3, 72, 0
5, 64320, Control_c, 3, 7, 66
5, 64320, Note_on_c, 3, 72, 84
5, 64328, Control_c, 3, 7, 67
5, 64336, Control_c, 3, 7, 68
5, 64344, Control_c, 3, 7, 69
5, 64350, Control_c, 3, 7, 70
5, 64358, Control_c, 3, 7, 71
5, 64366, Control_c, 3, 7, 72
5, 64374, Control_c, 3, 7, 73
5, 64380, Control_c, 3, 7, 74
5, 64388, Control_c, 3, 7, 75
5, 64396, Control_c, 3, 7, 76
5, 64404, Control_c, 3, 7, 77
5, 64410, Control_c, 3, 7, 78
5, 64418, Control_c, 3, 7, 79
5, 64426, Control_c, 3, 7, 80
5, 64434, Control_c, 3, 7, 81
5, 64440, Control_c, 3, 7, 82
5, 64448, Control_c, 3, 7, 83
5, 64456, Control_c, 3, 7, 84
5, 64464, Control_c, 3, 7, 85
5, 64470, Control_c, 3, 7, 86
5, 64478, Control_c, 3, 7, 87
5, 64486, Control_c, 3, 7, 88
5, 64494, Control_c, 3, 7, 89
5, 64500, Control_c, 3, 7, 90
5, 64508, Control_c, 3, 7, 91
5, 64516, Control_c, 3, 7, 92
5, 64524, Control_c, 3, 7, 93
5, 64530, Control_c, 3, 7, 94
5, 64538, Control_c, 3, 7, 95
5, 64546, Control_c, 3, 7, 96
5, 64554, Control_c, 3, 7, 97
5, 64560, Control_c, 3, 7, 98
5, 64564, Control_c, 3, 7, 97
5, 64568, Control_c, 3, 7, 96
5, 64572, Control_c, 3, 7, 95
5, 64576, Control_c, 3, 7, 94
5, 64580, Control_c, 3, 7, 93
5, 64584, Control_c, 3, 7, 92
5, 64588, Control_c, 3, 7, 91
5, 64590, Control_c, 3, 7, 90
5, 64594, Control_c, 3, 7, 89
5, 64598, Control_c, 3, 7, 88
5, 64602, Control_c, 3, 7, 87
5, 64606, Control_c, 3, 7, 86
5, 64610, Control_c, 3, 7, 85
5, 64614, Control_c, 3, 7, 84
5, 64618, Control_c, 3, 7, 83
5, 64620, Control_c, 3, 7, 82
5, 64624, Control_c, 3, 7, 81
5, 64628, Control_c, 3, 7, 80
5, 64632, Control_c, 3, 7, 79
5, 64636, Control_c, 3, 7, 78
5, 64640, Control_c, 3, 7, 77
5, 64644, Control_c, 3, 7, 76
5, 64648, Control_c, 3, 7, 75
5, 64650, Control_c, 3, 7, 74
5, 64654, Control_c, 3, 7, 73
5, 64658, Control_c, 3, 7, 72
5, 64662, Control_c, 3, 7, 71
5, 64666, Control_c, 3, 7, 70
5, 64670, Control_c, 3, 7, 69
5, 64674, Control_c, 3, 7, 68
5, 64678, Control_c, 3, 7, 67
5, 64680, Note_on_c, 3, 72, 0
5, 64680, Control_c, 3, 7, 66
5, 64740, Control_c, 3, 7, 99
5, 85680, Note_on_c, 3, 65, 94
5, 85680, Note_on_c, 3, 77, 89
5, 85920, Note_on_c, 3, 77, 0
5, 85920, Note_on_c, 3, 65, 0
5, 85920, Note_on_c, 3, 77, 84
5, 85920, Note_on_c, 3, 65, 90
5, 85980, Note_on_c, 3, 65, 0
5, 85980, Note_on_c, 3, 77, 0
5, 86640, Note_on_c, 3, 65, 99
5, 86640, Note_on_c, 3, 77, 94
5, 86880, Note_on_c, 3, 77, 0
5, 86880, Note_on_c, 3, 65, 0
5, 86880, Note_on_c, 3, 77, 81
5, 86880, Note_on_c, 3, 65, 89
5, 86940, Note_on_c, 3, 65, 0
5, 86940, Note_on_c, 3, 77, 0
5, 87600, Note_on_c, 3, 65, 99
5, 87600, Note_on_c, 3, 77, 89
5, 87840, Note_on_c, 3, 77, 0
5, 87840, Note_on_c, 3, 65, 0
5, 87840, Note_on_c, 3, 77, 85
5, 87840, Note_on_c, 3, 65, 94
5, 87900, Note_on_c, 3, 65, 0
5, 87900, Note_on_c, 3, 77, 0
5, 94560, Note_on_c, 3, 65, 84
5, 94560, Note_on_c, 3, 77, 78
5, 95040, Note_on_c, 3, 77, 0
5, 95040, Note_on_c, 3, 65, 0
5, 95160, Note_on_c, 3, 72, 76
5, 95220, Note_on_c, 3, 72, 0
5, 95280, Note_on_c, 3, 72, 80
5, 95340, Note_on_c, 3, 72, 0
5, 95400, Note_on_c, 3, 72, 76
5, 95460, Note_on_c, 3, 72, 0
5, 95520, Note_on_c, 3, 72, 89
5, 96000, Note_on_c, 3, 72, 0
5, 96120, Note_on_c, 3, 72, 64
5, 96180, Note_on_c, 3, 72, 0
5, 96240, Note_on_c, 3, 72, 78
5, 96300, Note_on_c, 3, 72, 0
5, 96360, Note_on_c, 3, 72, 69
5, 96420, Note_on_c, 3, 72, 0
5, 96480, Note_on_c, 3, 72, 74
5, 96480, Note_on_c, 3, 65, 89
5, 96960, Note_on_c, 3, 65, 0
5, 96960, Note_on_c, 3, 72, 0
5, 96960, Note_on_c, 3, 72, 73
5, 96960, Note_on_c, 3, 65, 98
5, 97080, Note_on_c, 3, 65, 0
5, 97080, Note_on_c, 3, 72, 0
5, 98400, Note_on_c, 3, 74, 99
5, 98400, Note_on_c, 3, 62, 89
5, 98880, Note_on_c, 3, 62, 0
5, 98880, Note_on_c, 3, 74, 0
5, 98880, Note_on_c, 3, 77, 76
5, 98880, Note_on_c, 3, 65, 90
5, 99120, Note_on_c, 3, 65, 0
5, 99120, Note_on_c, 3, 77, 0
5, 99120, Note_on_c, 3, 72, 84
5, 99360, Note_on_c, 3, 72, 0
5, 99360, Note_on_c, 3, 72, 55
5, 99360, Note_on_c, 3, 65, 89
5, 99480, Note_on_c, 3, 65, 0
5, 99480, Note_on_c, 3, 72, 0
5, 100440, Note_on_c, 3, 72, 30
5, 100440, Note_on_c, 3, 65, 61
5, 100530, Note_on_c, 3, 65, 0
5, 100530, Note_on_c, 3, 72, 0
5, 100560, Note_on_c, 3, 72, 40
5, 100560, Note_on_c, 3, 65, 58
5, 100650, Note_on_c, 3, 65, 0
5, 100650, Note_on_c, 3, 72, 0
5, 100680, Note_on_c, 3, 72, 37
5, 100680, Note_on_c, 3, 65, 57
5, 100770, Note_on_c, 3, 65, 0
5, 100770, Note_on_c, 3, 72, 0
5, 100800, Note_on_c, 3, 72, 71
5, 100800, Control_c, 3, 7, 99
5, 100810, Control_c, 3, 7, 100
5, 100820, Control_c, 3, 7, 101
5, 100828, Control_c, 3, 7, 102
5, 100838, Control_c, 3, 7, 103
5, 100848, Control_c, 3, 7, 104
5, 100856, Control_c, 3, 7, 105
5, 100866, Control_c, 3, 7, 106
5, 100874, Control_c, 3, 7, 107
5, 100884, Control_c, 3, 7, 108
5, 100894, Control_c, 3, 7, 109
5, 100902, Control_c, 3, 7, 110
5, 100912, Control_c, 3, 7, 111
5, 100920, Control_c, 3, 7, 112
5, 100930, Control_c, 3, 7, 113
5, 100940, Control_c, 3, 7, 114
5, 100948, Control_c, 3, 7, 115
5, 100958, Control_c, 3, 7, 116
5, 100968, Control_c, 3, 7, 117
5, 100976, Control_c, 3, 7, 118
5, 100986, Control_c, 3, 7, 119
5, 100994, Control_c, 3, 7, 120
5, 101004, Control_c, 3, 7, 121
5, 101014, Control_c, 3, 7, 122
5, 101022, Control_c, 3, 7, 123
5, 101032, Control_c, 3, 7, 124
5, 101040, Control_c, 3, 7, 125
5, 101050, Control_c, 3, 7, 124
5, 101060, Control_c, 3, 7, 123
5, 101068, Control_c, 3, 7, 122
5, 101078, Control_c, 3, 7, 121
5, 101086, Control_c, 3, 7, 120
5, 101096, Control_c, 3, 7, 119
5, 101106, Control_c, 3, 7, 118
5, 101114, Control_c, 3, 7, 117
5, 101124, Control_c, 3, 7, 116
5, 101132, Control_c, 3, 7, 115
5, 101142, Control_c, 3, 7, 114
5, 101150, Control_c, 3, 7, 113
5, 101160, Control_c, 3, 7, 112
5, 101170, Control_c, 3, 7, 111
5, 101178, Control_c, 3, 7, 110
5, 101188, Control_c, 3, 7, 109
5, 101196, Control_c, 3, 7, 108
5, 101206, Control_c, 3, 7, 107
5, 101214, Control_c, 3, 7, 106
5, 101224, Control_c, 3, 7, 105
5, 101234, Control_c, 3, 7, 104
5, 101242, Control_c, 3, 7, 103
5, 101252, Control_c, 3, 7, 102
5, 101260, Control_c, 3, 7, 101
5, 101270, Control_c, 3, 7, 100
5, 101278, Control_c, 3, 7, 99
5, 101280, Note_on_c, 3, 72, 0
5, 101280, Note_on_c, 3, 72, 64
5, 101280, Note_on_c, 3, 65, 90
5, 101400, Note_on_c, 3, 65, 0
5, 101400, Note_on_c, 3, 72, 0
5, 101520, Note_on_c, 3, 77, 98
5, 101520, Note_on_c, 3, 65, 99
5, 101640, Note_on_c, 3, 65, 0
5, 101640, Note_on_c, 3, 77, 0
5, 101760, Note_on_c, 3, 77, 94
5, 101760, Note_on_c, 3, 65, 95
5, 101880, Note_on_c, 3, 65, 0
5, 101880, Note_on_c, 3, 77, 0
5, 108960, Note_on_c, 3, 74, 76
5, 108960, Note_on_c, 3, 62, 73
5, 109080, Note_on_c, 3, 62, 0
5, 109080, Note_on_c, 3, 74, 0
5, 109200, Note_on_c, 3, 74, 89
5, 109200, Note_on_c, 3, 62, 84
5, 109320, Note_on_c, 3, 62, 0
5, 109320, Note_on_c, 3, 74, 0
5, 109440, Note_on_c, 3, 74, 84
5, 109440, Note_on_c, 3, 62, 82
5, 109560, Note_on_c, 3, 62, 0
5, 109560, Note_on_c, 3, 74, 0
5, 112320, Note_on_c, 3, 70, 46
5, 112320, Note_on_c, 3, 58, 43
5, 112800, Note_on_c, 3, 58, 0
5, 112800, Note_on_c, 3, 70, 0
5, 112800, Note_on_c, 3, 70, 45
5, 112800, Note_on_c, 3, 58, 38
5, 112920, Note_on_c, 3, 58, 0
5, 112920, Note_on_c, 3, 70, 0
5, 128640, Note_on_c, 3, 77, 65
5, 128640, Note_on_c, 3, 65, 45
5, 129120, Note_on_c, 3, 65, 0
5, 129120, Note_on_c, 3, 77, 0
5, 129120, Note_on_c, 3, 77, 65
5, 129120, Note_on_c, 3, 65, 45
5, 129600, Note_on_c, 3, 65, 0
5, 129600, Note_on_c, 3, 77, 0
5, 129600, Note_on_c, 3, 77, 65
5, 129600, Note_on_c, 3, 65, 45
5, 130080, Note_on_c, 3, 65, 0
5, 130080, Note_on_c, 3, 77, 0
5, 130080, Note_on_c, 3, 77, 65
5, 130080, Note_on_c, 3, 65, 45
5, 130560, Note_on_c, 3, 65, 0
5, 130560, Note_on_c, 3, 77, 0
5, 130560, Note_on_c, 3, 77, 65
5, 130560, Note_on_c, 3, 65, 45
5, 131040, Note_on_c, 3, 65, 0
5, 131040, Note_on_c, 3, 77, 0
5, 131040, Note_on_c, 3, 77, 65
5, 131040, Note_on_c, 3, 65, 45
5, 131520, Note_on_c, 3, 65, 0
5, 131520, Note_on_c, 3, 77, 0
5, 131520, Note_on_c, 3, 77, 43
5, 131520, Note_on_c, 3, 65, 40
5, 131640, Note_on_c, 3, 65, 0
5, 131640, Note_on_c, 3, 77, 0
5, 131880, Note_on_c, 3, 77, 53
5, 131880, Note_on_c, 3, 65, 43
5, 132120, Note_on_c, 3, 65, 0
5, 132120, Note_on_c, 3, 77, 0
5, 132360, Note_on_c, 3, 77, 52
5, 132360, Note_on_c, 3, 65, 42
5, 132600, Note_on_c, 3, 65, 0
5, 132600, Note_on_c, 3, 77, 0
5, 132720, Note_on_c, 3, 72, 43
5, 132720, Note_on_c, 3, 65, 54
5, 132840, Note_on_c, 3, 65, 0
5, 132840, Note_on_c, 3, 72, 0
5, 132960, Note_on_c, 3, 72, 29
5, 132960, Note_on_c, 3, 65, 45
5, 133080, Note_on_c, 3, 65, 0
5, 133080, Note_on_c, 3, 72, 0
5, 133440, Note_on_c, 3, 72, 45
5, 133440, Note_on_c, 3, 65, 51
5, 133560, Note_on_c, 3, 65, 0
5, 133560, Note_on_c, 3, 72, 0
5, 133920, Note_on_c, 3, 72, 29
5, 133920, Note_on_c, 3, 65, 40
5, 134040, Note_on_c, 3, 65, 0
5, 134040, Note_on_c, 3, 72, 0
5, 135820, Control_c, 3, 7, 54
5, 135840, Note_on_c, 3, 72, 76
5, 135840, Note_on_c, 3, 65, 95
5, 135840, Control_c, 3, 7, 54
5, 135852, Control_c, 3, 7, 55
5, 135862, Control_c, 3, 7, 56
5, 135872, Control_c, 3, 7, 57
5, 135884, Control_c, 3, 7, 58
5, 135894, Control_c, 3, 7, 59
5, 135904, Control_c, 3, 7, 60
5, 135916, Control_c, 3, 7, 61
5, 135926, Control_c, 3, 7, 62
5, 135936, Control_c, 3, 7, 63
5, 135948, Control_c, 3, 7, 64
5, 135958, Control_c, 3, 7, 65
5, 135968, Control_c, 3, 7, 66
5, 135980, Control_c, 3, 7, 67
5, 135990, Control_c, 3, 7, 68
5, 136000, Control_c, 3, 7, 69
5, 136012, Control_c, 3, 7, 70
5, 136022, Control_c, 3, 7, 71
5, 136032, Control_c, 3, 7, 72
5, 136044, Control_c, 3, 7, 73
5, 136054, Control_c, 3, 7, 74
5, 136064, Control_c, 3, 7, 75
5, 136076, Control_c, 3, 7, 76
5, 136086, Control_c, 3, 7, 77
5, 136096, Control_c, 3, 7, 78
5, 136108, Control_c, 3, 7, 79
5, 136118, Control_c, 3, 7, 80
5, 136128, Control_c, 3, 7, 81
5, 136140, Control_c, 3, 7, 82
5, 136150, Control_c, 3, 7, 83
5, 136160, Control_c, 3, 7, 84
5, 136172, Control_c, 3, 7, 85
5, 136182, Control_c, 3, 7, 86
5, 136192, Control_c, 3, 7, 87
5, 136204, Control_c, 3, 7, 88
5, 136214, Control_c, 3, 7, 89
5, 136224, Control_c, 3, 7, 90
5, 136236, Control_c, 3, 7, 91
5, 136246, Control_c, 3, 7, 92
5, 136256, Control_c, 3, 7, 93
5, 136268, Control_c, 3, 7, 94
5, 136278, Control_c, 3, 7, 95
5, 136288, Control_c, 3, 7, 96
5, 136300, Control_c, 3, 7, 97
5, 136310, Control_c, 3, 7, 98
5, 136320, Note_on_c, 3, 65, 0
5, 136320, Note_on_c, 3, 72, 0
5, 136320, Note_on_c, 3, 70, 78
5, 136320, Note_on_c, 3, 62, 94
5, 136320, Control_c, 3, 7, 99
5, 136500, Note_on_c, 3, 62, 0
5, 136500, Note_on_c, 3, 70, 0
5, 136530, Note_on_c, 3, 70, 77
5, 136530, Note_on_c, 3, 58, 80
5, 136560, Note_on_c, 3, 58, 0
5, 136560, Note_on_c, 3, 70, 0
5, 136560, Note_on_c, 3, 77, 84
5, 136560, Note_on_c, 3, 65, 89
5, 136605, Note_on_c, 3, 65, 0
5, 136605, Note_on_c, 3, 77, 0
5, 136650, Note_on_c, 3, 77, 81
5, 136650, Note_on_c, 3, 65, 90
5, 136665, Note_on_c, 3, 65, 0
5, 136665, Note_on_c, 3, 77, 0
5, 136680, Note_on_c, 3, 74, 94
5, 136680, Note_on_c, 3, 62, 90
5, 136725, Note_on_c, 3, 62, 0
5, 136725, Note_on_c, 3, 74, 0
5, 136770, Note_on_c, 3, 74, 89
5, 136770, Note_on_c, 3, 62, 85
5, 136785, Note_on_c, 3, 62, 0
5, 136785, Note_on_c, 3, 74, 0
5, 136800, Note_on_c, 3, 70, 86
5, 136800, Note_on_c, 3, 58, 94
5, 136860, Note_on_c, 3, 58, 0
5, 136860, Note_on_c, 3, 70, 0
5, 136920, Note_on_c, 3, 77, 85
5, 136920, Note_on_c, 3, 65, 98
5, 136980, Note_on_c, 3, 65, 0
5, 136980, Note_on_c, 3, 77, 0
5, 137040, Note_on_c, 3, 74, 80
5, 137040, Note_on_c, 3, 62, 78
5, 137100, Note_on_c, 3, 62, 0
5, 137100, Note_on_c, 3, 74, 0
5, 137160, Note_on_c, 3, 70, 66
5, 137160, Note_on_c, 3, 58, 47
5, 137220, Note_on_c, 3, 58, 0
5, 137220, Note_on_c, 3, 70, 0
5, 137280, Note_on_c, 3, 77, 53
5, 137280, Note_on_c, 3, 65, 53
5, 137400, Note_on_c, 3, 65, 0
5, 137400, Note_on_c, 3, 77, 0
5, 137744, Control_c, 3, 7, 63
5, 137760, Note_on_c, 3, 77, 94
5, 137760, Control_c, 3, 7, 63
5, 137774, Control_c, 3, 7, 64
5, 137788, Control_c, 3, 7, 65
5, 137800, Control_c, 3, 7, 66
5, 137814, Control_c, 3, 7, 67
5, 137828, Control_c, 3, 7, 68
5, 137840, Control_c, 3, 7, 69
5, 137854, Control_c, 3, 7, 70
5, 137868, Control_c, 3, 7, 71
5, 137880, Control_c, 3, 7, 72
5, 137894, Control_c, 3, 7, 73
5, 137908, Control_c, 3, 7, 74
5, 137920, Control_c, 3, 7, 75
5, 137934, Control_c, 3, 7, 76
5, 137948, Control_c, 3, 7, 77
5, 137960, Control_c, 3, 7, 78
5, 137974, Control_c, 3, 7, 79
5, 137988, Control_c, 3, 7, 80
5, 138000, Control_c, 3, 7, 81
5, 138014, Control_c, 3, 7, 82
5, 138028, Control_c, 3, 7, 83
5, 138040, Control_c, 3, 7, 84
5, 138054, Control_c, 3, 7, 85
5, 138068, Control_c, 3, 7, 86
5, 138080, Control_c, 3, 7, 87
5, 138094, Control_c, 3, 7, 88
5, 138108, Control_c, 3, 7, 89
5, 138120, Control_c, 3, 7, 90
5, 138134, Control_c, 3, 7, 91
5, 138148, Control_c, 3, 7, 92
5, 138160, Control_c, 3, 7, 93
5, 138174, Control_c, 3, 7, 94
5, 138188, Control_c, 3, 7, 95
5, 138200, Control_c, 3, 7, 96
5, 138214, Control_c, 3, 7, 97
5, 138228, Control_c, 3, 7, 98
5, 138240, Note_on_c, 3, 77, 0
5, 138240, Control_c, 3, 7, 99
5, 138240, Note_on_c, 3, 77, 77
5, 138240, Note_on_c, 3, 65, 85
5, 138420, Note_on_c, 3, 65, 0
5, 138420, Note_on_c, 3, 77, 0
5, 138450, Note_on_c, 3, 77, 80
5, 138450, Note_on_c, 3, 65, 89
5, 138480, Note_on_c, 3, 65, 0
5, 138480, Note_on_c, 3, 77, 0
5, 138480, Note_on_c, 3, 77, 80
5, 138480, Note_on_c, 3, 65, 85
5, 138525, Note_on_c, 3, 65, 0
5, 138525, Note_on_c, 3, 77, 0
5, 138570, Note_on_c, 3, 77, 78
5, 138570, Note_on_c, 3, 65, 85
5, 138585, Note_on_c, 3, 65, 0
5, 138585, Note_on_c, 3, 77, 0
5, 138600, Note_on_c, 3, 77, 74
5, 138600, Note_on_c, 3, 65, 81
5, 138645, Note_on_c, 3, 65, 0
5, 138645, Note_on_c, 3, 77, 0
5, 138690, Note_on_c, 3, 77, 78
5, 138690, Note_on_c, 3, 65, 85
5, 138705, Note_on_c, 3, 65, 0
5, 138705, Note_on_c, 3, 77, 0
5, 138720, Note_on_c, 3, 77, 80
5, 138720, Note_on_c, 3, 65, 90
5, 138840, Note_on_c, 3, 65, 0
5, 138840, Note_on_c, 3, 77, 0
5, 143520, Note_on_c, 3, 77, 44
5, 143520, Note_on_c, 3, 65, 39
5, 144240, Note_on_c, 3, 65, 0
5, 144240, Note_on_c, 3, 77, 0
5, 144240, Note_on_c, 3, 77, 43
5, 144240, Note_on_c, 3, 65, 39
5, 144960, Note_on_c, 3, 65, 0
5, 144960, Note_on_c, 3, 77, 0
5, 144960, Note_on_c, 3, 65, 41
5, 144960, Note_on_c, 3, 77, 50
5, 145440, Note_on_c, 3, 77, 0
5, 145440, Note_on_c, 3, 65, 0
5, 145440, Note_on_c, 3, 77, 38
5, 145440, Note_on_c, 3, 65, 35
5, 145560, Note_on_c, 3, 65, 0
5, 145560, Note_on_c, 3, 77, 0
5, 145560, Note_on_c, 3, 70, 50
5, 145560, Note_on_c, 3, 58, 45
5, 145620, Note_on_c, 3, 58, 0
5, 145620, Note_on_c, 3, 70, 0
5, 145680, Note_on_c, 3, 74, 43
5, 145680, Note_on_c, 3, 62, 44
5, 145740, Note_on_c, 3, 62, 0
5, 145740, Note_on_c, 3, 74, 0
5, 145800, Note_on_c, 3, 77, 53
5, 145800, Note_on_c, 3, 65, 49
5, 145860, Note_on_c, 3, 65, 0
5, 145860, Note_on_c, 3, 77, 0
5, 145920, Note_on_c, 3, 74, 59
5, 145920, Note_on_c, 3, 70, 70
5, 145980, Note_on_c, 3, 70, 0
5, 145980, Note_on_c, 3, 74, 0
5, 146040, Note_on_c, 3, 77, 52
5, 146040, Note_on_c, 3, 65, 49
5, 146100, Note_on_c, 3, 65, 0
5, 146100, Note_on_c, 3, 77, 0
5, 146160, Note_on_c, 3, 74, 61
5, 146160, Note_on_c, 3, 62, 43
5, 146220, Note_on_c, 3, 62, 0
5, 146220, Note_on_c, 3, 74, 0
5, 146280, Note_on_c, 3, 70, 57
5, 146280, Note_on_c, 3, 58, 60
5, 146340, Note_on_c, 3, 58, 0
5, 146340, Note_on_c, 3, 70, 0
5, 146400, Note_on_c, 3, 58, 55
5, 146400, Note_on_c, 3, 70, 56
5, 146880, Note_on_c, 3, 70, 0
5, 146880, Note_on_c, 3, 58, 0
5, 149280, Note_on_c, 3, 70, 82
5, 149280, Note_on_c, 3, 62, 94
5, 149340, Control_c, 3, 7, 99
5, 149342, Control_c, 3, 7, 98
5, 149344, Control_c, 3, 7, 97
5, 149346, Control_c, 3, 7, 96
5, 149348, Control_c, 3, 7, 95
5, 149350, Control_c, 3, 7, 94
5, 149352, Control_c, 3, 7, 93
5, 149354, Control_c, 3, 7, 92
5, 149356, Control_c, 3, 7, 90
5, 149358, Control_c, 3, 7, 89
5, 149360, Control_c, 3, 7, 88
5, 149362, Control_c, 3, 7, 87
5, 149364, Control_c, 3, 7, 86
5, 149366, Control_c, 3, 7, 85
5, 149368, Control_c, 3, 7, 84
5, 149370, Control_c, 3, 7, 83
5, 149372, Control_c, 3, 7, 81
5, 149374, Control_c, 3, 7, 80
5, 149376, Control_c, 3, 7, 79
5, 149378, Control_c, 3, 7, 78
5, 149380, Control_c, 3, 7, 77
5, 149382, Control_c, 3, 7, 76
5, 149384, Control_c, 3, 7, 75
5, 149386, Control_c, 3, 7, 74
5, 149388, Control_c, 3, 7, 72
5, 149390, Control_c, 3, 7, 71
5, 149392, Control_c, 3, 7, 70
5, 149394, Control_c, 3, 7, 69
5, 149396, Control_c, 3, 7, 68
5, 149398, Control_c, 3, 7, 67
5, 149400, Control_c, 3, 7, 66
5, 149402, Control_c, 3, 7, 64
5, 149520, Note_on_c, 3, 62, 0
5, 149520, Note_on_c, 3, 70, 0
5, 149520, Note_on_c, 3, 65, 46
5, 149520, Control_c, 3, 7, 99
5, 149760, Note_on_c, 3, 65, 0
5, 149760, Note_on_c, 3, 70, 45
5, 149760, Note_on_c, 3, 58, 43
5, 149880, Note_on_c, 3, 58, 0
5, 149880, Note_on_c, 3, 70, 0
5, 151200, Note_on_c, 3, 77, 84
5, 151200, Note_on_c, 3, 65, 89
5, 151260, Control_c, 3, 7, 99
5, 151262, Control_c, 3, 7, 98
5, 151264, Control_c, 3, 7, 97
5, 151266, Control_c, 3, 7, 96
5, 151268, Control_c, 3, 7, 95
5, 151270, Control_c, 3, 7, 94
5, 151272, Control_c, 3, 7, 93
5, 151274, Control_c, 3, 7, 92
5, 151276, Control_c, 3, 7, 90
5, 151278, Control_c, 3, 7, 89
5, 151280, Control_c, 3, 7, 88
5, 151282, Control_c, 3, 7, 87
5, 151284, Control_c, 3, 7, 86
5, 151286, Control_c, 3, 7, 85
5, 151288, Control_c, 3, 7, 84
5, 151290, Control_c, 3, 7, 82
5, 151292, Control_c, 3, 7, 81
5, 151294, Control_c, 3, 7, 80
5, 151296, Control_c, 3, 7, 79
5, 151298, Control_c, 3, 7, 78
5, 151300, Control_c, 3, 7, 77
5, 151302, Control_c, 3, 7, 76
5, 151304, Control_c, 3, 7, 75
5, 151306, Control_c, 3, 7, 73
5, 151308, Control_c, 3, 7, 72
5, 151310, Control_c, 3, 7, 71
5, 151312, Control_c, 3, 7, 70
5, 151314, Control_c, 3, 7, 69
5, 151316, Control_c, 3, 7, 68
5, 151318, Control_c, 3, 7, 67
5, 151320, Control_c, 3, 7, 65
5, 151440, Note_on_c, 3, 65, 0
5, 151440, Note_on_c, 3, 77, 0
5, 151440, Note_on_c, 3, 77, 80
5, 151440, Note_on_c, 3, 65, 84
5, 151680, Note_on_c, 3, 65, 0
5, 151680, Note_on_c, 3, 77, 0
5, 151680, Note_on_c, 3, 77, 89
5, 151680, Note_on_c, 3, 65, 95
5, 151800, Note_on_c, 3, 65, 0
5, 151800, Note_on_c, 3, 77, 0
5, 151920, Control_c, 3, 7, 99
5, 152040, Note_on_c, 3, 77, 43
5, 152040, Note_on_c, 3, 65, 38
5, 152280, Note_on_c, 3, 65, 0
5, 152280, Note_on_c, 3, 77, 0
5, 152280, Note_on_c, 3, 77, 52
5, 152280, Note_on_c, 3, 65, 43
5, 152340, Note_on_c, 3, 65, 0
5, 152340, Note_on_c, 3, 77, 0
5, 152400, Note_on_c, 3, 77, 54
5, 152400, Note_on_c, 3, 65, 56
5, 152460, Note_on_c, 3, 65, 0
5, 152460, Note_on_c, 3, 77, 0
5, 152520, Note_on_c, 3, 77, 54
5, 152520, Note_on_c, 3, 65, 44
5, 152580, Note_on_c, 3, 65, 0
5, 152580, Note_on_c, 3, 77, 0
5, 152640, Control_c, 3, 7, 99
5, 152640, Note_on_c, 3, 74, 70
5, 152640, Note_on_c, 3, 70, 66
5, 152648, Control_c, 3, 7, 100
5, 152654, Control_c, 3, 7, 101
5, 152660, Control_c, 3, 7, 102
5, 152668, Control_c, 3, 7, 103
5, 152674, Control_c, 3, 7, 104
5, 152680, Control_c, 3, 7, 105
5, 152688, Control_c, 3, 7, 106
5, 152694, Control_c, 3, 7, 107
5, 152700, Control_c, 3, 7, 108
5, 152706, Control_c, 3, 7, 109
5, 152714, Control_c, 3, 7, 110
5, 152720, Control_c, 3, 7, 111
5, 152726, Control_c, 3, 7, 112
5, 152734, Control_c, 3, 7, 113
5, 152740, Control_c, 3, 7, 114
5, 152746, Control_c, 3, 7, 115
5, 152754, Control_c, 3, 7, 116
5, 152760, Control_c, 3, 7, 117
5, 152766, Control_c, 3, 7, 118
5, 152772, Control_c, 3, 7, 119
5, 152780, Control_c, 3, 7, 120
5, 152786, Control_c, 3, 7, 121
5, 152792, Control_c, 3, 7, 122
5, 152800, Control_c, 3, 7, 123
5, 152806, Control_c, 3, 7, 124
5, 152812, Control_c, 3, 7, 125
5, 152818, Control_c, 3, 7, 126
5, 152820, Control_c, 3, 7, 126
5, 152828, Control_c, 3, 7, 125
5, 152834, Control_c, 3, 7, 124
5, 152840, Control_c, 3, 7, 123
5, 152848, Control_c, 3, 7, 122
5, 152854, Control_c, 3, 7, 121
5, 152860, Control_c, 3, 7, 120
5, 152868, Control_c, 3, 7, 119
5, 152874, Control_c, 3, 7, 118
5, 152880, Note_on_c, 3, 70, 0
5, 152880, Note_on_c, 3, 74, 0
5, 152880, Control_c, 3, 7, 117
5, 152880, Note_on_c, 3, 72, 29
5, 152880, Note_on_c, 3, 65, 58
5, 152888, Control_c, 3, 7, 116
5, 152894, Control_c, 3, 7, 115
5, 152900, Control_c, 3, 7, 114
5, 152908, Control_c, 3, 7, 113
5, 152914, Control_c, 3, 7, 112
5, 152920, Control_c, 3, 7, 111
5, 152928, Control_c, 3, 7, 110
5, 152934, Control_c, 3, 7, 109
5, 152940, Control_c, 3, 7, 108
5, 152948, Control_c, 3, 7, 107
5, 152954, Control_c, 3, 7, 106
5, 152960, Control_c, 3, 7, 105
5, 152968, Control_c, 3, 7, 104
5, 152974, Control_c, 3, 7, 103
5, 152980, Control_c, 3, 7, 102
5, 152988, Control_c, 3, 7, 101
5, 152994, Control_c, 3, 7, 100
5, 153000, Note_on_c, 3, 65, 0
5, 153000, Note_on_c, 3, 72, 0
5, 153000, Control_c, 3, 7, 99
5, 174000, Note_on_c, 3, 58, 95
5, 174000, Note_on_c, 3, 70, 89
5, 174240, Note_on_c, 3, 70, 0
5, 174240, Note_on_c, 3, 58, 0
5, 174240, Note_on_c, 3, 70, 85
5, 174240, Note_on_c, 3, 58, 90
5, 174300, Note_on_c, 3, 58, 0
5, 174300, Note_on_c, 3, 70, 0
5, 174960, Note_on_c, 3, 58, 99
5, 174960, Note_on_c, 3, 70, 93
5, 175200, Note_on_c, 3, 70, 0
5, 175200, Note_on_c, 3, 58, 0
5, 175200, Note_on_c, 3, 70, 81
5, 175200, Note_on_c, 3, 58, 89
5, 175260, Note_on_c, 3, 58, 0
5, 175260, Note_on_c, 3, 70, 0
5, 175920, Note_on_c, 3, 58, 98
5, 175920, Note_on_c, 3, 70, 93
5, 176160, Note_on_c, 3, 70, 0
5, 176160, Note_on_c, 3, 58, 0
5, 176160, Note_on_c, 3, 70, 81
5, 176160, Note_on_c, 3, 58, 90
5, 176220, Note_on_c, 3, 58, 0
5, 176220, Note_on_c, 3, 70, 0
5, 183840, Note_on_c, 3, 58, 95
5, 183840, Note_on_c, 3, 70, 90
5, 184320, Note_on_c, 3, 70, 0
5, 184320, Note_on_c, 3, 58, 0
5, 184320, Note_on_c, 3, 65, 95
5, 184320, Note_on_c, 3, 77, 94
5, 184800, Note_on_c, 3, 77, 0
5, 184800, Note_on_c, 3, 65, 0
5, 186480, Note_on_c, 3, 72, 62
5, 186480, Note_on_c, 3, 65, 94
5, 186720, Note_on_c, 3, 65, 0
5, 186720, Note_on_c, 3, 72, 0
5, 186720, Note_on_c, 3, 70, 84
5, 186720, Note_on_c, 3, 58, 94
5, 186840, Note_on_c, 3, 58, 0
5, 186840, Note_on_c, 3, 70, 0
5, 186840, Note_on_c, 3, 70, 119
5, 186840, Note_on_c, 3, 58, 105
5, 187080, Note_on_c, 3, 58, 0
5, 187080, Note_on_c, 3, 70, 0
5, 187680, Note_on_c, 3, 70, 84
5, 187680, Note_on_c, 3, 58, 89
5, 187740, Note_on_c, 3, 58, 0
5, 187740, Note_on_c, 3, 70, 0
5, 187740, Note_on_c, 3, 70, 85
5, 187740, Note_on_c, 3, 58, 94
5, 187800, Note_on_c, 3, 58, 0
5, 187800, Note_on_c, 3, 70, 0
5, 187800, Note_on_c, 3, 70, 115
5, 187800, Note_on_c, 3, 58, 105
5, 187860, Note_on_c, 3, 58, 0
5, 187860, Note_on_c, 3, 70, 0
5, 187860, Note_on_c, 3, 70, 80
5, 187860, Note_on_c, 3, 58, 86
5, 187920, Note_on_c, 3, 58, 0
5, 187920, Note_on_c, 3, 70, 0
5, 187920, Note_on_c, 3, 70, 66
5, 187920, Note_on_c, 3, 58, 80
5, 187980, Note_on_c, 3, 58, 0
5, 187980, Note_on_c, 3, 70, 0
5, 187980, Note_on_c, 3, 70, 77
5, 187980, Note_on_c, 3, 58, 86
5, 188040, Note_on_c, 3, 58, 0
5, 188040, Note_on_c, 3, 70, 0
5, 188040, Note_on_c, 3, 70, 119
5, 188040, Note_on_c, 3, 58, 112
5, 188100, Note_on_c, 3, 58, 0
5, 188100, Note_on_c, 3, 70, 0
5, 188100, Note_on_c, 3, 70, 85
5, 188100, Note_on_c, 3, 58, 89
5, 188160, Note_on_c, 3, 58, 0
5, 188160, Note_on_c, 3, 70, 0
5, 188160, Note_on_c, 3, 70, 81
5, 188160, Note_on_c, 3, 58, 84
5, 188220, Note_on_c, 3, 58, 0
5, 188220, Note_on_c, 3, 70, 0
5, 188220, Note_on_c, 3, 70, 72
5, 188220, Note_on_c, 3, 58, 84
5, 188280, Note_on_c, 3, 58, 0
5, 188280, Note_on_c, 3, 70, 0
5, 188280, Note_on_c, 3, 70, 74
5, 188280, Note_on_c, 3, 58, 84
5, 188340, Note_on_c, 3, 58, 0
5, 188340, Note_on_c, 3, 70, 0
5, 188340, Note_on_c, 3, 70, 78
5, 188340, Note_on_c, 3, 58, 86
5, 188400, Note_on_c, 3, 58, 0
5, 188400, Note_on_c, 3, 70, 0
5, 188400, Note_on_c, 3, 70, 81
5, 188400, Note_on_c, 3, 58, 84
5, 188460, Note_on_c, 3, 58, 0
5, 188460, Note_on_c, 3, 70, 0
5, 188460, Note_on_c, 3, 70, 82
5, 188460, Note_on_c, 3, 58, 84
5, 188520, Note_on_c, 3, 58, 0
5, 188520, Note_on_c, 3, 70, 0
5, 188520, Note_on_c, 3, 70, 84
5, 188520, Note_on_c, 3, 58, 84
5, 188580, Note_on_c, 3, 58, 0
5, 188580, Note_on_c, 3, 70, 0
5, 188580, Note_on_c, 3, 70, 89
5, 188580, Note_on_c, 3, 58, 90
5, 188640, Note_on_c, 3, 58, 0
5, 188640, Note_on_c, 3, 70, 0
5, 188640, Note_on_c, 3, 70, 125
5, 188640, Note_on_c, 3, 58, 110
5, 188880, Note_on_c, 3, 58, 0
5, 188880, Note_on_c, 3, 70, 0
5, 229440, Note_on_c, 3, 70, 82
5, 229440, Note_on_c, 3, 62, 99
5, 229560, Note_on_c, 3, 62, 0
5, 229560, Note_on_c, 3, 70, 0
5, 230520, Note_on_c, 3, 77, 54
5, 230520, Note_on_c, 3, 65, 48
5, 230610, Note_on_c, 3, 65, 0
5, 230610, Note_on_c, 3, 77, 0
5, 230640, Note_on_c, 3, 77, 45
5, 230640, Note_on_c, 3, 65, 61
5, 230730, Note_on_c, 3, 65, 0
5, 230730, Note_on_c, 3, 77, 0
5, 230760, Note_on_c, 3, 77, 62
5, 230760, Note_on_c, 3, 65, 63
5, 230850, Note_on_c, 3, 65, 0
5, 230850, Note_on_c, 3, 77, 0
5, 230876, Control_c, 3, 7, 64
5, 230880, Note_on_c, 3, 77, 86
5, 230880, Note_on_c, 3, 65, 90
5, 230890, Control_c, 3, 7, 65
5, 230904, Control_c, 3, 7, 66
5, 230918, Control_c, 3, 7, 67
5, 230932, Control_c, 3, 7, 68
5, 230946, Control_c, 3, 7, 69
5, 230960, Control_c, 3, 7, 70
5, 230974, Control_c, 3, 7, 71
5, 230988, Control_c, 3, 7, 72
5, 231000, Control_c, 3, 7, 73
5, 231014, Control_c, 3, 7, 74
5, 231028, Control_c, 3, 7, 75
5, 231042, Control_c, 3, 7, 76
5, 231056, Control_c, 3, 7, 77
5, 231070, Control_c, 3, 7, 78
5, 231084, Control_c, 3, 7, 79
5, 231098, Control_c, 3, 7, 80
5, 231112, Control_c, 3, 7, 81
5, 231124, Control_c, 3, 7, 82
5, 231138, Control_c, 3, 7, 83
5, 231152, Control_c, 3, 7, 84
5, 231166, Control_c, 3, 7, 85
5, 231180, Control_c, 3, 7, 86
5, 231194, Control_c, 3, 7, 87
5, 231208, Control_c, 3, 7, 88
5, 231222, Control_c, 3, 7, 89
5, 231236, Control_c, 3, 7, 90
5, 231248, Control_c, 3, 7, 91
5, 231262, Control_c, 3, 7, 92
5, 231276, Control_c, 3, 7, 93
5, 231290, Control_c, 3, 7, 94
5, 231304, Control_c, 3, 7, 95
5, 231318, Control_c, 3, 7, 96
5, 231332, Control_c, 3, 7, 97
5, 231346, Control_c, 3, 7, 98
5, 231358, Control_c, 3, 7, 99
5, 231360, Note_on_c, 3, 65, 0
5, 231360, Note_on_c, 3, 77, 0
5, 231360, Note_on_c, 3, 70, 48
5, 231360, Note_on_c, 3, 58, 52
5, 231480, Note_on_c, 3, 58, 0
5, 231480, Note_on_c, 3, 70, 0
5, 231600, Note_on_c, 3, 70, 101
5, 231600, Note_on_c, 3, 58, 95
5, 231720, Note_on_c, 3, 58, 0
5, 231720, Note_on_c, 3, 70, 0
5, 231840, Note_on_c, 3, 70, 105
5, 231840, Note_on_c, 3, 58, 105
5, 231960, Note_on_c, 3, 58, 0
5, 231960, Note_on_c, 3, 70, 0
5, 231960, End_track
6, 0, Start_track
6, 0, MIDI_port, 0
6, 0, Title_t, "Piano"
6, 0, Control_c, 4, 7, 100
6, 0, Control_c, 4, 10, 64
6, 0, Control_c, 4, 93, 0
6, 0, Control_c, 4, 91, 66
6, 0, Program_c, 4, 0
6, 42900, Note_on_c, 4, 89, 68
6, 42960, Note_on_c, 4, 89, 0
6, 42960, Note_on_c, 4, 88, 68
6, 43020, Note_on_c, 4, 88, 0
6, 43020, Note_on_c, 4, 89, 84
6, 43080, Note_on_c, 4, 89, 0
6, 43080, Note_on_c, 4, 86, 46
6, 43110, Note_on_c, 4, 86, 0
6, 43140, Note_on_c, 4, 82, 69
6, 43170, Note_on_c, 4, 82, 0
6, 43200, Note_on_c, 4, 77, 43
6, 43320, Note_on_c, 4, 77, 0
6, 43320, Note_on_c, 4, 72, 53
6, 43320, Note_on_c, 4, 69, 53
6, 43320, Note_on_c, 4, 65, 62
6, 43320, Note_on_c, 4, 63, 50
6, 43380, Note_on_c, 4, 77, 80
6, 43440, Note_on_c, 4, 77, 0
6, 43440, Note_on_c, 4, 65, 0
6, 43440, Note_on_c, 4, 72, 0
6, 43440, Note_on_c, 4, 69, 0
6, 43440, Note_on_c, 4, 63, 0
6, 43440, Note_on_c, 4, 76, 68
6, 43500, Note_on_c, 4, 76, 0
6, 43500, Note_on_c, 4, 77, 64
6, 43560, Note_on_c, 4, 77, 0
6, 43560, Note_on_c, 4, 79, 67
6, 43620, Note_on_c, 4, 79, 0
6, 43620, Note_on_c, 4, 81, 72
6, 43680, Note_on_c, 4, 81, 0
6, 43680, Note_on_c, 4, 84, 61
6, 43740, Note_on_c, 4, 84, 0
6, 43740, Note_on_c, 4, 82, 57
6, 43800, Note_on_c, 4, 82, 0
6, 43800, Note_on_c, 4, 70, 73
6, 43800, Note_on_c, 4, 65, 63
6, 43800, Note_on_c, 4, 62, 58
6, 43860, Note_on_c, 4, 82, 67
6, 43920, Note_on_c, 4, 82, 0
6, 43920, Note_on_c, 4, 70, 0
6, 43920, Note_on_c, 4, 65, 0
6, 43920, Note_on_c, 4, 62, 0
6, 43920, Note_on_c, 4, 81, 52
6, 43980, Note_on_c, 4, 81, 0
6, 43980, Note_on_c, 4, 82, 47
6, 44040, Note_on_c, 4, 82, 0
6, 44040, Note_on_c, 4, 84, 58
6, 44100, Note_on_c, 4, 84, 0
6, 44100, Note_on_c, 4, 86, 64
6, 44160, Note_on_c, 4, 86, 0
6, 44160, Note_on_c, 4, 89, 69
6, 44220, Note_on_c, 4, 89, 0
6, 44220, Note_on_c, 4, 87, 53
6, 44280, Note_on_c, 4, 87, 0
6, 44280, Note_on_c, 4, 77, 49
6, 44280, Note_on_c, 4, 72, 40
6, 44280, Note_on_c, 4, 69, 57
6, 44340, Note_on_c, 4, 87, 72
6, 44400, Note_on_c, 4, 87, 0
6, 44400, Note_on_c, 4, 77, 0
6, 44400, Note_on_c, 4, 72, 0
6, 44400, Note_on_c, 4, 69, 0
6, 44400, Note_on_c, 4, 87, 70
6, 44424, Note_on_c, 4, 87, 0
6, 44424, Note_on_c, 4, 89, 84
6, 44448, Note_on_c, 4, 89, 0
6, 44448, Note_on_c, 4, 87, 70
6, 44472, Note_on_c, 4, 87, 0
6, 44472, Note_on_c, 4, 86, 71
6, 44496, Note_on_c, 4, 86, 0
6, 44496, Note_on_c, 4, 87, 69
6, 44520, Note_on_c, 4, 87, 0
6, 44520, Note_on_c, 4, 89, 61
6, 44550, Note_on_c, 4, 89, 0
6, 44580, Note_on_c, 4, 87, 65
6, 44610, Note_on_c, 4, 87, 0
6, 44640, Note_on_c, 4, 85, 58
6, 44700, Note_on_c, 4, 85, 0
6, 44700, Note_on_c, 4, 86, 53
6, 44760, Note_on_c, 4, 86, 0
6, 44760, Note_on_c, 4, 65, 43
6, 44760, Note_on_c, 4, 62, 48
6, 44760, Note_on_c, 4, 58, 43
6, 44790, Note_on_c, 4, 77, 67
6, 44820, Note_on_c, 4, 77, 0
6, 44820, Note_on_c, 4, 76, 62
6, 44850, Note_on_c, 4, 76, 0
6, 44850, Note_on_c, 4, 77, 60
6, 44880, Note_on_c, 4, 77, 0
6, 44880, Note_on_c, 4, 65, 0
6, 44880, Note_on_c, 4, 62, 0
6, 44880, Note_on_c, 4, 58, 0
6, 44880, Note_on_c, 4, 79, 58
6, 44910, Note_on_c, 4, 79, 0
6, 44910, Note_on_c, 4, 77, 55
6, 44940, Note_on_c, 4, 77, 0
6, 44940, Note_on_c, 4, 75, 67
6, 44970, Note_on_c, 4, 75, 0
6, 44970, Note_on_c, 4, 74, 61
6, 45000, Note_on_c, 4, 74, 0
6, 45000, Note_on_c, 4, 72, 56
6, 45030, Note_on_c, 4, 72, 0
6, 45030, Note_on_c, 4, 70, 70
6, 45060, Note_on_c, 4, 70, 0
6, 45060, Note_on_c, 4, 69, 78
6, 45090, Note_on_c, 4, 69, 0
6, 45090, Note_on_c, 4, 67, 62
6, 45120, Note_on_c, 4, 67, 0
6, 45120, Note_on_c, 4, 65, 65
6, 45150, Note_on_c, 4, 65, 0
6, 45180, Note_on_c, 4, 65, 53
6, 45180, Note_on_c, 4, 51, 70
6, 45210, Note_on_c, 4, 65, 0
6, 45240, Note_on_c, 4, 51, 0
6, 45240, Note_on_c, 4, 53, 68
6, 45300, Note_on_c, 4, 53, 0
6, 45300, Note_on_c, 4, 65, 56
6, 45300, Note_on_c, 4, 57, 66
6, 45360, Note_on_c, 4, 57, 0
6, 45360, Note_on_c, 4, 65, 0
6, 45360, Note_on_c, 4, 64, 67
6, 45360, Note_on_c, 4, 60, 70
6, 45420, Note_on_c, 4, 64, 0
6, 45420, Note_on_c, 4, 65, 68
6, 45480, Note_on_c, 4, 65, 0
6, 45480, Note_on_c, 4, 60, 0
6, 45480, Note_on_c, 4, 67, 71
6, 45540, Note_on_c, 4, 67, 0
6, 45540, Note_on_c, 4, 69, 71
6, 45600, Note_on_c, 4, 69, 0
6, 45600, Note_on_c, 4, 70, 65
6, 45630, Note_on_c, 4, 70, 0
6, 45660, Note_on_c, 4, 70, 61
6, 45660, Note_on_c, 4, 50, 72
6, 45690, Note_on_c, 4, 70, 0
6, 45720, Note_on_c, 4, 50, 0
6, 45720, Note_on_c, 4, 53, 65
6, 45780, Note_on_c, 4, 53, 0
6, 45780, Note_on_c, 4, 70, 69
6, 45780, Note_on_c, 4, 58, 67
6, 45840, Note_on_c, 4, 58, 0
6, 45840, Note_on_c, 4, 70, 0
6, 45840, Note_on_c, 4, 69, 56
6, 45840, Note_on_c, 4, 62, 65
6, 45900, Note_on_c, 4, 69, 0
6, 45900, Note_on_c, 4, 70, 76
6, 45960, Note_on_c, 4, 70, 0
6, 45960, Note_on_c, 4, 62, 0
6, 45960, Note_on_c, 4, 72, 76
6, 46020, Note_on_c, 4, 72, 0
6, 46020, Note_on_c, 4, 74, 84
6, 46080, Note_on_c, 4, 74, 0
6, 46080, Note_on_c, 4, 77, 65
6, 46140, Note_on_c, 4, 77, 0
6, 46140, Note_on_c, 4, 75, 84
6, 46140, Note_on_c, 4, 67, 52
6, 46200, Note_on_c, 4, 67, 0
6, 46200, Note_on_c, 4, 75, 0
6, 46200, Note_on_c, 4, 75, 93
6, 46200, Note_on_c, 4, 63, 68
6, 46260, Note_on_c, 4, 63, 0
6, 46260, Note_on_c, 4, 60, 80
6, 46320, Note_on_c, 4, 60, 0
6, 46320, Note_on_c, 4, 58, 80
6, 46380, Note_on_c, 4, 58, 0
6, 46380, Note_on_c, 4, 66, 77
6, 46440, Note_on_c, 4, 66, 0
6, 46440, Note_on_c, 4, 75, 0
6, 46440, Note_on_c, 4, 75, 85
6, 46440, Note_on_c, 4, 60, 98
6, 46500, Note_on_c, 4, 60, 0
6, 46500, Note_on_c, 4, 58, 78
6, 46560, Note_on_c, 4, 58, 0
6, 46560, Note_on_c, 4, 57, 95
6, 46620, Note_on_c, 4, 57, 0
6, 46620, Note_on_c, 4, 65, 84
6, 46680, Note_on_c, 4, 65, 0
6, 46680, Note_on_c, 4, 75, 0
6, 46680, Note_on_c, 4, 87, 90
6, 46680, Note_on_c, 4, 60, 89
6, 46740, Note_on_c, 4, 60, 0
6, 46740, Note_on_c, 4, 57, 99
6, 46800, Note_on_c, 4, 57, 0
6, 46800, Note_on_c, 4, 58, 81
6, 46800, Note_on_c, 4, 58, 93
6, 46860, Note_on_c, 4, 58, 0
6, 46860, Note_on_c, 4, 58, 0
6, 46860, Note_on_c, 4, 62, 72
6, 46920, Note_on_c, 4, 62, 0
6, 46920, Note_on_c, 4, 87, 0
6, 46920, Note_on_c, 4, 86, 46
6, 46920, Note_on_c, 4, 65, 65
6, 46980, Note_on_c, 4, 65, 0
6, 46980, Note_on_c, 4, 70, 67
6, 47040, Note_on_c, 4, 70, 0
6, 47040, Note_on_c, 4, 86, 0
6, 47040, Note_on_c, 4, 86, 43
6, 47040, Note_on_c, 4, 67, 48
6, 47040, Note_on_c, 4, 63, 45
6, 47070, Note_on_c, 4, 86, 0
6, 47070, Note_on_c, 4, 84, 64
6, 47100, Note_on_c, 4, 84, 0
6, 47100, Note_on_c, 4, 83, 63
6, 47130, Note_on_c, 4, 83, 0
6, 47130, Note_on_c, 4, 84, 71
6, 47160, Note_on_c, 4, 84, 0
6, 47160, Note_on_c, 4, 63, 0
6, 47160, Note_on_c, 4, 67, 0
6, 47160, Note_on_c, 4, 86, 73
6, 47160, Note_on_c, 4, 60, 64
6, 47160, Note_on_c, 4, 55, 82
6, 47160, Note_on_c, 4, 51, 70
6, 47190, Note_on_c, 4, 86, 0
6, 47190, Note_on_c, 4, 84, 73
6, 47220, Note_on_c, 4, 84, 0
6, 47220, Note_on_c, 4, 87, 86
6, 47250, Note_on_c, 4, 87, 0
6, 47250, Note_on_c, 4, 86, 95
6, 47280, Note_on_c, 4, 86, 0
6, 47280, Note_on_c, 4, 89, 84
6, 47340, Note_on_c, 4, 89, 0
6, 47340, Note_on_c, 4, 87, 93
6, 47400, Note_on_c, 4, 87, 0
6, 47400, Note_on_c, 4, 51, 0
6, 47400, Note_on_c, 4, 55, 0
6, 47400, Note_on_c, 4, 60, 0
6, 47400, Note_on_c, 4, 60, 81
6, 47400, Note_on_c, 4, 55, 80
6, 47400, Note_on_c, 4, 86, 98
6, 47400, Note_on_c, 4, 51, 78
6, 47430, Note_on_c, 4, 86, 0
6, 47460, Note_on_c, 4, 84, 89
6, 47490, Note_on_c, 4, 84, 0
6, 47520, Note_on_c, 4, 51, 0
6, 47520, Note_on_c, 4, 55, 0
6, 47520, Note_on_c, 4, 60, 0
6, 47520, Note_on_c, 4, 88, 105
6, 47520, Note_on_c, 4, 62, 81
6, 47520, Note_on_c, 4, 58, 89
6, 47520, Note_on_c, 4, 53, 89
6, 47550, Note_on_c, 4, 88, 0
6, 47550, Note_on_c, 4, 89, 105
6, 47580, Note_on_c, 4, 89, 0
6, 47580, Note_on_c, 4, 87, 85
6, 47595, Note_on_c, 4, 87, 0
6, 47610, Note_on_c, 4, 86, 94
6, 47625, Note_on_c, 4, 86, 0
6, 47640, Note_on_c, 4, 53, 0
6, 47640, Note_on_c, 4, 58, 0
6, 47640, Note_on_c, 4, 62, 0
6, 47640, Note_on_c, 4, 84, 80
6, 47655, Note_on_c, 4, 84, 0
6, 47670, Note_on_c, 4, 82, 76
6, 47685, Note_on_c, 4, 82, 0
6, 47700, Note_on_c, 4, 81, 89
6, 47715, Note_on_c, 4, 81, 0
6, 47730, Note_on_c, 4, 79, 80
6, 47745, Note_on_c, 4, 79, 0
6, 47760, Note_on_c, 4, 76, 99
6, 47790, Note_on_c, 4, 76, 0
6, 47790, Note_on_c, 4, 77, 94
6, 47820, Note_on_c, 4, 77, 0
6, 47820, Note_on_c, 4, 75, 90
6, 47835, Note_on_c, 4, 75, 0
6, 47850, Note_on_c, 4, 74, 89
6, 47865, Note_on_c, 4, 74, 0
6, 47880, Note_on_c, 4, 72, 86
6, 47895, Note_on_c, 4, 72, 0
6, 47910, Note_on_c, 4, 70, 84
6, 47925, Note_on_c, 4, 70, 0
6, 47940, Note_on_c, 4, 69, 80
6, 47955, Note_on_c, 4, 69, 0
6, 47970, Note_on_c, 4, 67, 84
6, 47985, Note_on_c, 4, 67, 0
6, 48000, Note_on_c, 4, 64, 98
6, 48030, Note_on_c, 4, 64, 0
6, 48030, Note_on_c, 4, 65, 86
6, 48060, Note_on_c, 4, 65, 0
6, 48060, Note_on_c, 4, 63, 81
6, 48075, Note_on_c, 4, 63, 0
6, 48090, Note_on_c, 4, 62, 84
6, 48105, Note_on_c, 4, 62, 0
6, 48120, Note_on_c, 4, 60, 84
6, 48135, Note_on_c, 4, 60, 0
6, 48150, Note_on_c, 4, 58, 76
6, 48165, Note_on_c, 4, 58, 0
6, 48180, Note_on_c, 4, 57, 95
6, 48195, Note_on_c, 4, 57, 0
6, 48210, Note_on_c, 4, 55, 80
6, 48225, Note_on_c, 4, 55, 0
6, 48240, Note_on_c, 4, 53, 73
6, 48360, Note_on_c, 4, 53, 0
6, 48360, Note_on_c, 4, 57, 95
6, 48360, Note_on_c, 4, 53, 93
6, 48360, Note_on_c, 4, 51, 85
6, 48360, Note_on_c, 4, 48, 73
6, 48360, Note_on_c, 4, 41, 80
6, 48360, Note_on_c, 4, 29, 80
6, 48480, Note_on_c, 4, 29, 0
6, 48480, Note_on_c, 4, 53, 0
6, 48480, Note_on_c, 4, 51, 0
6, 48480, Note_on_c, 4, 57, 0
6, 48480, Note_on_c, 4, 41, 0
6, 48480, Note_on_c, 4, 48, 0
6, 48480, Note_on_c, 4, 58, 86
6, 48480, Note_on_c, 4, 53, 93
6, 48480, Note_on_c, 4, 50, 84
6, 48480, Note_on_c, 4, 46, 90
6, 48480, Note_on_c, 4, 34, 80
6, 48600, Note_on_c, 4, 34, 0
6, 48600, Note_on_c, 4, 50, 0
6, 48600, Note_on_c, 4, 58, 0
6, 48600, Note_on_c, 4, 53, 0
6, 48600, Note_on_c, 4, 46, 0
6, 50400, Note_on_c, 4, 82, 76
6, 50400, Note_on_c, 4, 77, 89
6, 50400, Note_on_c, 4, 74, 89
6, 50400, Note_on_c, 4, 70, 93
6, 50400, Note_on_c, 4, 58, 90
6, 50430, Note_on_c, 4, 58, 0
6, 50430, Note_on_c, 4, 65, 94
6, 50460, Note_on_c, 4, 65, 0
6, 50460, Note_on_c, 4, 62, 95
6, 50490, Note_on_c, 4, 62, 0
6, 50490, Note_on_c, 4, 65, 89
6, 50520, Note_on_c, 4, 65, 0
6, 50520, Note_on_c, 4, 57, 105
6, 50550, Note_on_c, 4, 57, 0
6, 50550, Note_on_c, 4, 65, 94
6, 50580, Note_on_c, 4, 65, 0
6, 50580, Note_on_c, 4, 70, 0
6, 50580, Note_on_c, 4, 82, 0
6, 50580, Note_on_c, 4, 77, 0
6, 50580, Note_on_c, 4, 74, 0
6, 50580, Note_on_c, 4, 62, 86
6, 50610, Note_on_c, 4, 62, 0
6, 50610, Note_on_c, 4, 70, 94
6, 50610, Note_on_c, 4, 65, 90
6, 50640, Note_on_c, 4, 65, 0
6, 50640, Note_on_c, 4, 70, 0
6, 50640, Note_on_c, 4, 77, 98
6, 50640, Note_on_c, 4, 58, 86
6, 50670, Note_on_c, 4, 58, 0
6, 50670, Note_on_c, 4, 65, 93
6, 50685, Note_on_c, 4, 77, 0
6, 50700, Note_on_c, 4, 65, 0
6, 50700, Note_on_c, 4, 62, 94
6, 50730, Note_on_c, 4, 62, 0
6, 50730, Note_on_c, 4, 77, 95
6, 50730, Note_on_c, 4, 65, 93
6, 50745, Note_on_c, 4, 77, 0
6, 50760, Note_on_c, 4, 65, 0
6, 50760, Note_on_c, 4, 74, 105
6, 50760, Note_on_c, 4, 53, 94
6, 50790, Note_on_c, 4, 53, 0
6, 50790, Note_on_c, 4, 65, 89
6, 50805, Note_on_c, 4, 74, 0
6, 50820, Note_on_c, 4, 65, 0
6, 50820, Note_on_c, 4, 62, 90
6, 50850, Note_on_c, 4, 62, 0
6, 50850, Note_on_c, 4, 74, 99
6, 50850, Note_on_c, 4, 65, 94
6, 50865, Note_on_c, 4, 74, 0
6, 50880, Note_on_c, 4, 65, 0
6, 50880, Note_on_c, 4, 70, 90
6, 50880, Note_on_c, 4, 58, 86
6, 50910, Note_on_c, 4, 58, 0
6, 50910, Note_on_c, 4, 62, 99
6, 50940, Note_on_c, 4, 62, 0
6, 50940, Note_on_c, 4, 70, 0
6, 50940, Note_on_c, 4, 86, 94
6, 50940, Note_on_c, 4, 74, 94
6, 50940, Note_on_c, 4, 65, 90
6, 50970, Note_on_c, 4, 65, 0
6, 50970, Note_on_c, 4, 74, 0
6, 50970, Note_on_c, 4, 86, 0
6, 50970, Note_on_c, 4, 62, 94
6, 51000, Note_on_c, 4, 62, 0
6, 51000, Note_on_c, 4, 86, 89
6, 51000, Note_on_c, 4, 74, 94
6, 51000, Note_on_c, 4, 65, 89
6, 51030, Note_on_c, 4, 65, 0
6, 51030, Note_on_c, 4, 74, 0
6, 51030, Note_on_c, 4, 86, 0
6, 51030, Note_on_c, 4, 62, 94
6, 51060, Note_on_c, 4, 62, 0
6, 51060, Note_on_c, 4, 86, 85
6, 51060, Note_on_c, 4, 74, 85
6, 51060, Note_on_c, 4, 65, 85
6, 51090, Note_on_c, 4, 65, 0
6, 51090, Note_on_c, 4, 74, 0
6, 51090, Note_on_c, 4, 86, 0
6, 51090, Note_on_c, 4, 62, 89
6, 51120, Note_on_c, 4, 62, 0
6, 51120, Note_on_c, 4, 86, 85
6, 51120, Note_on_c, 4, 74, 89
6, 51120, Note_on_c, 4, 53, 95
6, 51150, Note_on_c, 4, 53, 0
6, 51150, Note_on_c, 4, 74, 0
6, 51150, Note_on_c, 4, 86, 0
6, 51150, Note_on_c, 4, 62, 95
6, 51180, Note_on_c, 4, 62, 0
6, 51180, Note_on_c, 4, 86, 90
6, 51180, Note_on_c, 4, 74, 94
6, 51180, Note_on_c, 4, 65, 94
6, 51210, Note_on_c, 4, 65, 0
6, 51210, Note_on_c, 4, 74, 0
6, 51210, Note_on_c, 4, 86, 0
6, 51210, Note_on_c, 4, 62, 95
6, 51240, Note_on_c, 4, 62, 0
6, 51240, Note_on_c, 4, 86, 94
6, 51240, Note_on_c, 4, 74, 99
6, 51240, Note_on_c, 4, 65, 94
6, 51270, Note_on_c, 4, 65, 0
6, 51270, Note_on_c, 4, 74, 0
6, 51270, Note_on_c, 4, 86, 0
6, 51270, Note_on_c, 4, 62, 94
6, 51300, Note_on_c, 4, 62, 0
6, 51300, Note_on_c, 4, 88, 93
6, 51300, Note_on_c, 4, 76, 94
6, 51300, Note_on_c, 4, 65, 89
6, 51330, Note_on_c, 4, 65, 0
6, 51330, Note_on_c, 4, 76, 0
6, 51330, Note_on_c, 4, 88, 0
6, 51330, Note_on_c, 4, 62, 90
6, 51360, Note_on_c, 4, 62, 0
6, 51360, Note_on_c, 4, 89, 98
6, 51360, Note_on_c, 4, 77, 80
6, 51360, Note_on_c, 4, 56, 99
6, 51390, Note_on_c, 4, 56, 0
6, 51390, Note_on_c, 4, 65, 80
6, 51420, Note_on_c, 4, 65, 0
6, 51420, Note_on_c, 4, 59, 93
6, 51450, Note_on_c, 4, 59, 0
6, 51450, Note_on_c, 4, 65, 73
6, 51480, Note_on_c, 4, 65, 0
6, 51480, Note_on_c, 4, 77, 0
6, 51480, Note_on_c, 4, 89, 0
6, 51480, Note_on_c, 4, 89, 89
6, 51480, Note_on_c, 4, 62, 78
6, 51510, Note_on_c, 4, 62, 0
6, 51510, Note_on_c, 4, 89, 0
6, 51510, Note_on_c, 4, 86, 93
6, 51510, Note_on_c, 4, 65, 52
6, 51540, Note_on_c, 4, 65, 0
6, 51540, Note_on_c, 4, 86, 0
6, 51540, Note_on_c, 4, 84, 90
6, 51540, Note_on_c, 4, 62, 84
6, 51570, Note_on_c, 4, 62, 0
6, 51570, Note_on_c, 4, 84, 0
6, 51570, Note_on_c, 4, 83, 84
6, 51570, Note_on_c, 4, 65, 76
6, 51600, Note_on_c, 4, 65, 0
6, 51600, Note_on_c, 4, 83, 0
6, 51600, Note_on_c, 4, 89, 105
6, 51600, Note_on_c, 4, 56, 101
6, 51630, Note_on_c, 4, 56, 0
6, 51630, Note_on_c, 4, 65, 64
6, 51660, Note_on_c, 4, 65, 0
6, 51660, Note_on_c, 4, 59, 99
6, 51690, Note_on_c, 4, 59, 0
6, 51690, Note_on_c, 4, 65, 74
6, 51720, Note_on_c, 4, 65, 0
6, 51720, Note_on_c, 4, 89, 0
6, 51720, Note_on_c, 4, 89, 77
6, 51720, Note_on_c, 4, 62, 85
6, 51750, Note_on_c, 4, 62, 0
6, 51750, Note_on_c, 4, 89, 0
6, 51750, Note_on_c, 4, 86, 99
6, 51750, Note_on_c, 4, 65, 72
6, 51780, Note_on_c, 4, 65, 0
6, 51780, Note_on_c, 4, 86, 0
6, 51780, Note_on_c, 4, 84, 85
6, 51780, Note_on_c, 4, 62, 84
6, 51810, Note_on_c, 4, 62, 0
6, 51810, Note_on_c, 4, 84, 0
6, 51810, Note_on_c, 4, 83, 81
6, 51810, Note_on_c, 4, 65, 65
6, 51840, Note_on_c, 4, 65, 0
6, 51840, Note_on_c, 4, 83, 0
6, 51840, Note_on_c, 4, 89, 94
6, 51840, Note_on_c, 4, 56, 78
6, 51870, Note_on_c, 4, 56, 0
6, 51870, Note_on_c, 4, 89, 0
6, 51870, Note_on_c, 4, 88, 90
6, 51870, Note_on_c, 4, 64, 84
6, 51900, Note_on_c, 4, 64, 0
6, 51900, Note_on_c, 4, 88, 0
6, 51900, Note_on_c, 4, 86, 73
6, 51900, Note_on_c, 4, 59, 84
6, 51930, Note_on_c, 4, 59, 0
6, 51930, Note_on_c, 4, 86, 0
6, 51930, Note_on_c, 4, 84, 76
6, 51930, Note_on_c, 4, 64, 86
6, 51960, Note_on_c, 4, 64, 0
6, 51960, Note_on_c, 4, 84, 0
6, 51960, Note_on_c, 4, 83, 70
6, 51960, Note_on_c, 4, 62, 86
6, 51990, Note_on_c, 4, 62, 0
6, 51990, Note_on_c, 4, 83, 0
6, 51990, Note_on_c, 4, 84, 84
6, 51990, Note_on_c, 4, 64, 85
6, 52020, Note_on_c, 4, 64, 0
6, 52020, Note_on_c, 4, 84, 0
6, 52020, Note_on_c, 4, 86, 86
6, 52020, Note_on_c, 4, 59, 94
6, 52050, Note_on_c, 4, 59, 0
6, 52050, Note_on_c, 4, 86, 0
6, 52050, Note_on_c, 4, 84, 84
6, 52050, Note_on_c, 4, 64, 89
6, 52080, Note_on_c, 4, 64, 0
6, 52080, Note_on_c, 4, 84, 0
6, 52080, Note_on_c, 4, 83, 69
6, 52080, Note_on_c, 4, 56, 94
6, 52110, Note_on_c, 4, 56, 0
6, 52110, Note_on_c, 4, 83, 0
6, 52110, Note_on_c, 4, 81, 89
6, 52110, Note_on_c, 4, 64, 86
6, 52140, Note_on_c, 4, 64, 0
6, 52140, Note_on_c, 4, 81, 0
6, 52140, Note_on_c, 4, 80, 84
6, 52140, Note_on_c, 4, 62, 93
6, 52170, Note_on_c, 4, 62, 0
6, 52170, Note_on_c, 4, 80, 0
6, 52170, Note_on_c, 4, 77, 80
6, 52170, Note_on_c, 4, 64, 89
6, 52200, Note_on_c, 4, 64, 0
6, 52200, Note_on_c, 4, 77, 0
6, 52200, Note_on_c, 4, 76, 86
6, 52200, Note_on_c, 4, 56, 93
6, 52230, Note_on_c, 4, 56, 0
6, 52230, Note_on_c, 4, 76, 0
6, 52230, Note_on_c, 4, 74, 90
6, 52230, Note_on_c, 4, 64, 90
6, 52260, Note_on_c, 4, 64, 0
6, 52260, Note_on_c, 4, 74, 0
6, 52260, Note_on_c, 4, 72, 67
6, 52260, Note_on_c, 4, 62, 84
6, 52290, Note_on_c, 4, 62, 0
6, 52290, Note_on_c, 4, 72, 0
6, 52290, Note_on_c, 4, 71, 94
6, 52290, Note_on_c, 4, 64, 86
6, 52320, Note_on_c, 4, 64, 0
6, 52320, Note_on_c, 4, 71, 0
6, 52320, Note_on_c, 4, 81, 90
6, 52320, Note_on_c, 4, 76, 94
6, 52320, Note_on_c, 4, 72, 64
6, 52320, Note_on_c, 4, 69, 73
6, 52320, Note_on_c, 4, 57, 101
6, 52350, Note_on_c, 4, 57, 0
6, 52350, Note_on_c, 4, 64, 84
6, 52380, Note_on_c, 4, 64, 0
6, 52380, Note_on_c, 4, 60, 89
6, 52410, Note_on_c, 4, 60, 0
6, 52410, Note_on_c, 4, 64, 82
6, 52440, Note_on_c, 4, 64, 0
6, 52440, Note_on_c, 4, 56, 95
6, 52470, Note_on_c, 4, 56, 0
6, 52470, Note_on_c, 4, 64, 86
6, 52500, Note_on_c, 4, 64, 0
6, 52500, Note_on_c, 4, 69, 0
6, 52500, Note_on_c, 4, 81, 0
6, 52500, Note_on_c, 4, 76, 0
6, 52500, Note_on_c, 4, 72, 0
6, 52500, Note_on_c, 4, 60, 93
6, 52530, Note_on_c, 4, 60, 0
6, 52530, Note_on_c, 4, 69, 99
6, 52530, Note_on_c, 4, 64, 81
6, 52560, Note_on_c, 4, 64, 0
6, 52560, Note_on_c, 4, 69, 0
6, 52560, Note_on_c, 4, 76, 99
6, 52560, Note_on_c, 4, 57, 99
6, 52590, Note_on_c, 4, 57, 0
6, 52590, Note_on_c, 4, 64, 82
6, 52605, Note_on_c, 4, 76, 0
6, 52620, Note_on_c, 4, 64, 0
6, 52620, Note_on_c, 4, 60, 89
6, 52650, Note_on_c, 4, 60, 0
6, 52650, Note_on_c, 4, 76, 95
6, 52650, Note_on_c, 4, 64, 84
6, 52665, Note_on_c, 4, 76, 0
6, 52680, Note_on_c, 4, 64, 0
6, 52680, Note_on_c, 4, 72, 80
6, 52680, Note_on_c, 4, 52, 90
6, 52710, Note_on_c, 4, 52, 0
6, 52710, Note_on_c, 4, 64, 84
6, 52725, Note_on_c, 4, 72, 0
6, 52740, Note_on_c, 4, 64, 0
6, 52740, Note_on_c, 4, 60, 89
6, 52770, Note_on_c, 4, 60, 0
6, 52770, Note_on_c, 4, 72, 77
6, 52770, Note_on_c, 4, 64, 81
6, 52785, Note_on_c, 4, 72, 0
6, 52800, Note_on_c, 4, 64, 0
6, 52800, Note_on_c, 4, 69, 104
6, 52800, Note_on_c, 4, 57, 90
6, 52830, Note_on_c, 4, 57, 0
6, 52830, Note_on_c, 4, 60, 94
6, 52860, Note_on_c, 4, 60, 0
6, 52860, Note_on_c, 4, 69, 0
6, 52860, Note_on_c, 4, 84, 76
6, 52860, Note_on_c, 4, 72, 62
6, 52860, Note_on_c, 4, 64, 82
6, 52890, Note_on_c, 4, 64, 0
6, 52890, Note_on_c, 4, 72, 0
6, 52890, Note_on_c, 4, 84, 0
6, 52890, Note_on_c, 4, 60, 94
6, 52920, Note_on_c, 4, 60, 0
6, 52920, Note_on_c, 4, 84, 72
6, 52920, Note_on_c, 4, 72, 53
6, 52920, Note_on_c, 4, 64, 86
6, 52950, Note_on_c, 4, 64, 0
6, 52950, Note_on_c, 4, 72, 0
6, 52950, Note_on_c, 4, 84, 0
6, 52950, Note_on_c, 4, 60, 93
6, 52980, Note_on_c, 4, 60, 0
6, 52980, Note_on_c, 4, 84, 80
6, 52980, Note_on_c, 4, 72, 66
6, 52980, Note_on_c, 4, 64, 85
6, 53010, Note_on_c, 4, 64, 0
6, 53010, Note_on_c, 4, 72, 0
6, 53010, Note_on_c, 4, 84, 0
6, 53010, Note_on_c, 4, 60, 85
6, 53040, Note_on_c, 4, 60, 0
6, 53040, Note_on_c, 4, 84, 72
6, 53040, Note_on_c, 4, 72, 74
6, 53040, Note_on_c, 4, 55, 94
6, 53070, Note_on_c, 4, 55, 0
6, 53070, Note_on_c, 4, 72, 0
6, 53070, Note_on_c, 4, 84, 0
6, 53070, Note_on_c, 4, 60, 95
6, 53100, Note_on_c, 4, 60, 0
6, 53100, Note_on_c, 4, 84, 76
6, 53100, Note_on_c, 4, 72, 67
6, 53100, Note_on_c, 4, 63, 81
6, 53130, Note_on_c, 4, 63, 0
6, 53130, Note_on_c, 4, 72, 0
6, 53130, Note_on_c, 4, 84, 0
6, 53130, Note_on_c, 4, 60, 94
6, 53160, Note_on_c, 4, 60, 0
6, 53160, Note_on_c, 4, 84, 76
6, 53160, Note_on_c, 4, 72, 64
6, 53160, Note_on_c, 4, 63, 80
6, 53190, Note_on_c, 4, 63, 0
6, 53190, Note_on_c, 4, 72, 0
6, 53190, Note_on_c, 4, 84, 0
6, 53190, Note_on_c, 4, 60, 94
6, 53220, Note_on_c, 4, 60, 0
6, 53220, Note_on_c, 4, 86, 81
6, 53220, Note_on_c, 4, 74, 86
6, 53220, Note_on_c, 4, 63, 81
6, 53250, Note_on_c, 4, 63, 0
6, 53250, Note_on_c, 4, 74, 0
6, 53250, Note_on_c, 4, 86, 0
6, 53250, Note_on_c, 4, 60, 99
6, 53280, Note_on_c, 4, 60, 0
6, 53280, Note_on_c, 4, 87, 94
6, 53280, Note_on_c, 4, 75, 101
6, 53280, Note_on_c, 4, 54, 99
6, 53310, Note_on_c, 4, 54, 0
6, 53310, Note_on_c, 4, 63, 89
6, 53340, Note_on_c, 4, 63, 0
6, 53340, Note_on_c, 4, 57, 94
6, 53370, Note_on_c, 4, 57, 0
6, 53370, Note_on_c, 4, 63, 80
6, 53400, Note_on_c, 4, 63, 0
6, 53400, Note_on_c, 4, 75, 0
6, 53400, Note_on_c, 4, 87, 0
6, 53400, Note_on_c, 4, 87, 78
6, 53400, Note_on_c, 4, 60, 86
6, 53430, Note_on_c, 4, 60, 0
6, 53430, Note_on_c, 4, 87, 0
6, 53430, Note_on_c, 4, 84, 93
6, 53430, Note_on_c, 4, 63, 73
6, 53460, Note_on_c, 4, 63, 0
6, 53460, Note_on_c, 4, 84, 0
6, 53460, Note_on_c, 4, 83, 89
6, 53460, Note_on_c, 4, 60, 86
6, 53490, Note_on_c, 4, 60, 0
6, 53490, Note_on_c, 4, 83, 0
6, 53490, Note_on_c, 4, 81, 86
6, 53490, Note_on_c, 4, 63, 93
6, 53520, Note_on_c, 4, 63, 0
6, 53520, Note_on_c, 4, 81, 0
6, 53520, Note_on_c, 4, 87, 104
6, 53520, Note_on_c, 4, 54, 101
6, 53550, Note_on_c, 4, 54, 0
6, 53550, Note_on_c, 4, 63, 82
6, 53580, Note_on_c, 4, 63, 0
6, 53580, Note_on_c, 4, 57, 94
6, 53610, Note_on_c, 4, 57, 0
6, 53610, Note_on_c, 4, 63, 89
6, 53640, Note_on_c, 4, 63, 0
6, 53640, Note_on_c, 4, 87, 0
6, 53640, Note_on_c, 4, 87, 80
6, 53640, Note_on_c, 4, 60, 94
6, 53670, Note_on_c, 4, 60, 0
6, 53670, Note_on_c, 4, 87, 0
6, 53670, Note_on_c, 4, 84, 84
6, 53670, Note_on_c, 4, 63, 86
6, 53700, Note_on_c, 4, 63, 0
6, 53700, Note_on_c, 4, 84, 0
6, 53700, Note_on_c, 4, 83, 86
6, 53700, Note_on_c, 4, 60, 93
6, 53730, Note_on_c, 4, 60, 0
6, 53730, Note_on_c, 4, 83, 0
6, 53730, Note_on_c, 4, 81, 86
6, 53730, Note_on_c, 4, 63, 90
6, 53760, Note_on_c, 4, 63, 0
6, 53760, Note_on_c, 4, 81, 0
6, 53760, Note_on_c, 4, 87, 89
6, 53760, Note_on_c, 4, 54, 89
6, 53790, Note_on_c, 4, 54, 0
6, 53790, Note_on_c, 4, 87, 0
6, 53790, Note_on_c, 4, 86, 89
6, 53790, Note_on_c, 4, 62, 94
6, 53820, Note_on_c, 4, 62, 0
6, 53820, Note_on_c, 4, 86, 0
6, 53820, Note_on_c, 4, 84, 93
6, 53820, Note_on_c, 4, 57, 93
6, 53850, Note_on_c, 4, 57, 0
6, 53850, Note_on_c, 4, 84, 0
6, 53850, Note_on_c, 4, 83, 84
6, 53850, Note_on_c, 4, 62, 94
6, 53880, Note_on_c, 4, 62, 0
6, 53880, Note_on_c, 4, 83, 0
6, 53880, Note_on_c, 4, 81, 89
6, 53880, Note_on_c, 4, 60, 89
6, 53910, Note_on_c, 4, 60, 0
6, 53910, Note_on_c, 4, 81, 0
6, 53910, Note_on_c, 4, 83, 93
6, 53910, Note_on_c, 4, 62, 90
6, 53940, Note_on_c, 4, 62, 0
6, 53940, Note_on_c, 4, 83, 0
6, 53940, Note_on_c, 4, 84, 89
6, 53940, Note_on_c, 4, 60, 86
6, 53970, Note_on_c, 4, 60, 0
6, 53970, Note_on_c, 4, 84, 0
6, 53970, Note_on_c, 4, 83, 86
6, 53970, Note_on_c, 4, 62, 94
6, 54000, Note_on_c, 4, 62, 0
6, 54000, Note_on_c, 4, 83, 0
6, 54000, Note_on_c, 4, 81, 78
6, 54000, Note_on_c, 4, 54, 84
6, 54030, Note_on_c, 4, 54, 0
6, 54030, Note_on_c, 4, 81, 0
6, 54030, Note_on_c, 4, 79, 86
6, 54030, Note_on_c, 4, 62, 93
6, 54060, Note_on_c, 4, 62, 0
6, 54060, Note_on_c, 4, 79, 0
6, 54060, Note_on_c, 4, 78, 89
6, 54060, Note_on_c, 4, 57, 94
6, 54090, Note_on_c, 4, 57, 0
6, 54090, Note_on_c, 4, 78, 0
6, 54090, Note_on_c, 4, 75, 95
6, 54090, Note_on_c, 4, 62, 94
6, 54120, Note_on_c, 4, 62, 0
6, 54120, Note_on_c, 4, 75, 0
6, 54120, Note_on_c, 4, 74, 95
6, 54120, Note_on_c, 4, 60, 94
6, 54150, Note_on_c, 4, 60, 0
6, 54150, Note_on_c, 4, 74, 0
6, 54150, Note_on_c, 4, 72, 68
6, 54150, Note_on_c, 4, 62, 90
6, 54180, Note_on_c, 4, 62, 0
6, 54180, Note_on_c, 4, 72, 0
6, 54180, Note_on_c, 4, 70, 89
6, 54180, Note_on_c, 4, 54, 84
6, 54210, Note_on_c, 4, 54, 0
6, 54210, Note_on_c, 4, 70, 0
6, 54210, Note_on_c, 4, 69, 93
6, 54210, Note_on_c, 4, 62, 90
6, 54240, Note_on_c, 4, 62, 0
6, 54240, Note_on_c, 4, 69, 0
6, 54240, Note_on_c, 4, 58, 80
6, 54240, Note_on_c, 4, 55, 84
6, 54270, Note_on_c, 4, 67, 82
6, 54300, Note_on_c, 4, 67, 0
6, 54300, Note_on_c, 4, 55, 0
6, 54300, Note_on_c, 4, 58, 0
6, 54300, Note_on_c, 4, 66, 80
6, 54330, Note_on_c, 4, 66, 0
6, 54330, Note_on_c, 4, 67, 84
6, 54360, Note_on_c, 4, 67, 0
6, 54360, Note_on_c, 4, 70, 89
6, 54360, Note_on_c, 4, 58, 84
6, 54360, Note_on_c, 4, 55, 82
6, 54390, Note_on_c, 4, 70, 0
6, 54390, Note_on_c, 4, 67, 81
6, 54420, Note_on_c, 4, 67, 0
6, 54420, Note_on_c, 4, 55, 0
6, 54420, Note_on_c, 4, 58, 0
6, 54420, Note_on_c, 4, 74, 94
6, 54450, Note_on_c, 4, 74, 0
6, 54450, Note_on_c, 4, 67, 84
6, 54480, Note_on_c, 4, 67, 0
6, 54480, Note_on_c, 4, 76, 94
6, 54510, Note_on_c, 4, 76, 0
6, 54510, Note_on_c, 4, 67, 84
6, 54540, Note_on_c, 4, 67, 0
6, 54540, Note_on_c, 4, 78, 89
6, 54570, Note_on_c, 4, 78, 0
6, 54570, Note_on_c, 4, 67, 86
6, 54600, Note_on_c, 4, 67, 0
6, 54600, Note_on_c, 4, 79, 86
6, 54630, Note_on_c, 4, 79, 0
6, 54630, Note_on_c, 4, 67, 86
6, 54660, Note_on_c, 4, 67, 0
6, 54660, Note_on_c, 4, 81, 89
6, 54660, Note_on_c, 4, 58, 77
6, 54660, Note_on_c, 4, 55, 82
6, 54690, Note_on_c, 4, 55, 0
6, 54690, Note_on_c, 4, 58, 0
6, 54690, Note_on_c, 4, 81, 0
6, 54690, Note_on_c, 4, 67, 86
6, 54720, Note_on_c, 4, 67, 0
6, 54720, Note_on_c, 4, 82, 95
6, 54720, Note_on_c, 4, 58, 77
6, 54720, Note_on_c, 4, 55, 80
6, 54720, Note_on_c, 4, 52, 90
6, 54750, Note_on_c, 4, 82, 0
6, 54750, Note_on_c, 4, 67, 84
6, 54780, Note_on_c, 4, 67, 0
6, 54780, Note_on_c, 4, 52, 0
6, 54780, Note_on_c, 4, 55, 0
6, 54780, Note_on_c, 4, 58, 0
6, 54780, Note_on_c, 4, 66, 81
6, 54810, Note_on_c, 4, 66, 0
6, 54810, Note_on_c, 4, 67, 76
6, 54840, Note_on_c, 4, 67, 0
6, 54840, Note_on_c, 4, 70, 81
6, 54840, Note_on_c, 4, 58, 85
6, 54840, Note_on_c, 4, 55, 76
6, 54840, Note_on_c, 4, 52, 85
6, 54870, Note_on_c, 4, 70, 0
6, 54870, Note_on_c, 4, 67, 84
6, 54900, Note_on_c, 4, 67, 0
6, 54900, Note_on_c, 4, 52, 0
6, 54900, Note_on_c, 4, 55, 0
6, 54900, Note_on_c, 4, 58, 0
6, 54900, Note_on_c, 4, 75, 89
6, 54930, Note_on_c, 4, 75, 0
6, 54930, Note_on_c, 4, 67, 84
6, 54960, Note_on_c, 4, 67, 0
6, 54960, Note_on_c, 4, 76, 94
6, 54990, Note_on_c, 4, 76, 0
6, 54990, Note_on_c, 4, 67, 84
6, 55020, Note_on_c, 4, 67, 0
6, 55020, Note_on_c, 4, 78, 80
6, 55050, Note_on_c, 4, 78, 0
6, 55050, Note_on_c, 4, 67, 89
6, 55080, Note_on_c, 4, 67, 0
6, 55080, Note_on_c, 4, 79, 93
6, 55110, Note_on_c, 4, 79, 0
6, 55110, Note_on_c, 4, 67, 90
6, 55140, Note_on_c, 4, 67, 0
6, 55140, Note_on_c, 4, 81, 85
6, 55140, Note_on_c, 4, 58, 80
6, 55140, Note_on_c, 4, 55, 81
6, 55140, Note_on_c, 4, 52, 86
6, 55170, Note_on_c, 4, 52, 0
6, 55170, Note_on_c, 4, 81, 0
6, 55170, Note_on_c, 4, 58, 0
6, 55170, Note_on_c, 4, 55, 0
6, 55170, Note_on_c, 4, 67, 85
6, 55200, Note_on_c, 4, 67, 0
6, 55200, Note_on_c, 4, 82, 89
6, 55200, Note_on_c, 4, 58, 43
6, 55200, Note_on_c, 4, 55, 80
6, 55200, Note_on_c, 4, 52, 94
6, 55200, Note_on_c, 4, 49, 69
6, 55230, Note_on_c, 4, 82, 0
6, 55230, Note_on_c, 4, 67, 86
6, 55260, Note_on_c, 4, 67, 0
6, 55260, Note_on_c, 4, 49, 0
6, 55260, Note_on_c, 4, 58, 0
6, 55260, Note_on_c, 4, 55, 0
6, 55260, Note_on_c, 4, 52, 0
6, 55260, Note_on_c, 4, 66, 82
6, 55290, Note_on_c, 4, 66, 0
6, 55290, Note_on_c, 4, 67, 89
6, 55320, Note_on_c, 4, 67, 0
6, 55320, Note_on_c, 4, 70, 77
6, 55320, Note_on_c, 4, 58, 59
6, 55320, Note_on_c, 4, 55, 82
6, 55320, Note_on_c, 4, 52, 94
6, 55320, Note_on_c, 4, 49, 74
6, 55350, Note_on_c, 4, 70, 0
6, 55350, Note_on_c, 4, 67, 81
6, 55380, Note_on_c, 4, 67, 0
6, 55380, Note_on_c, 4, 49, 0
6, 55380, Note_on_c, 4, 58, 0
6, 55380, Note_on_c, 4, 55, 0
6, 55380, Note_on_c, 4, 52, 0
6, 55380, Note_on_c, 4, 75, 89
6, 55410, Note_on_c, 4, 75, 0
6, 55410, Note_on_c, 4, 67, 84
6, 55440, Note_on_c, 4, 67, 0
6, 55440, Note_on_c, 4, 76, 94
6, 55470, Note_on_c, 4, 76, 0
6, 55470, Note_on_c, 4, 67, 84
6, 55500, Note_on_c, 4, 67, 0
6, 55500, Note_on_c, 4, 78, 81
6, 55530, Note_on_c, 4, 78, 0
6, 55530, Note_on_c, 4, 67, 90
6, 55560, Note_on_c, 4, 67, 0
6, 55560, Note_on_c, 4, 79, 89
6, 55590, Note_on_c, 4, 79, 0
6, 55590, Note_on_c, 4, 67, 86
6, 55620, Note_on_c, 4, 67, 0
6, 55620, Note_on_c, 4, 81, 93
6, 55620, Note_on_c, 4, 58, 53
6, 55620, Note_on_c, 4, 55, 85
6, 55620, Note_on_c, 4, 52, 94
6, 55620, Note_on_c, 4, 49, 71
6, 55650, Note_on_c, 4, 49, 0
6, 55650, Note_on_c, 4, 55, 0
6, 55650, Note_on_c, 4, 81, 0
6, 55650, Note_on_c, 4, 58, 0
6, 55650, Note_on_c, 4, 52, 0
6, 55650, Note_on_c, 4, 67, 86
6, 55680, Note_on_c, 4, 67, 0
6, 55680, Note_on_c, 4, 82, 94
6, 55680, Note_on_c, 4, 58, 53
6, 55680, Note_on_c, 4, 55, 89
6, 55680, Note_on_c, 4, 52, 99
6, 55680, Note_on_c, 4, 48, 76
6, 55740, Note_on_c, 4, 82, 0
6, 55740, Note_on_c, 4, 66, 86
6, 55770, Note_on_c, 4, 66, 0
6, 55770, Note_on_c, 4, 78, 82
6, 55800, Note_on_c, 4, 78, 0
6, 55800, Note_on_c, 4, 52, 0
6, 55800, Note_on_c, 4, 58, 0
6, 55800, Note_on_c, 4, 55, 0
6, 55800, Note_on_c, 4, 48, 0
6, 55800, Note_on_c, 4, 67, 89
6, 55830, Note_on_c, 4, 67, 0
6, 55830, Note_on_c, 4, 79, 86
6, 55860, Note_on_c, 4, 79, 0
6, 55860, Note_on_c, 4, 69, 89
6, 55860, Note_on_c, 4, 58, 52
6, 55860, Note_on_c, 4, 55, 84
6, 55860, Note_on_c, 4, 52, 98
6, 55860, Note_on_c, 4, 48, 68
6, 55890, Note_on_c, 4, 69, 0
6, 55890, Note_on_c, 4, 81, 86
6, 55920, Note_on_c, 4, 81, 0
6, 55920, Note_on_c, 4, 48, 0
6, 55920, Note_on_c, 4, 58, 0
6, 55920, Note_on_c, 4, 55, 0
6, 55920, Note_on_c, 4, 52, 0
6, 55920, Note_on_c, 4, 70, 94
6, 55920, Note_on_c, 4, 58, 52
6, 55920, Note_on_c, 4, 55, 85
6, 55920, Note_on_c, 4, 52, 99
6, 55920, Note_on_c, 4, 49, 71
6, 55950, Note_on_c, 4, 70, 0
6, 55950, Note_on_c, 4, 82, 93
6, 55980, Note_on_c, 4, 82, 0
6, 55980, Note_on_c, 4, 66, 93
6, 56010, Note_on_c, 4, 66, 0
6, 56010, Note_on_c, 4, 78, 85
6, 56040, Note_on_c, 4, 78, 0
6, 56040, Note_on_c, 4, 49, 0
6, 56040, Note_on_c, 4, 58, 0
6, 56040, Note_on_c, 4, 55, 0
6, 56040, Note_on_c, 4, 52, 0
6, 56040, Note_on_c, 4, 67, 89
6, 56070, Note_on_c, 4, 67, 0
6, 56070, Note_on_c, 4, 79, 93
6, 56100, Note_on_c, 4, 79, 0
6, 56100, Note_on_c, 4, 69, 98
6, 56100, Note_on_c, 4, 58, 62
6, 56100, Note_on_c, 4, 55, 89
6, 56100, Note_on_c, 4, 52, 99
6, 56100, Note_on_c, 4, 49, 77
6, 56130, Note_on_c, 4, 69, 0
6, 56130, Note_on_c, 4, 81, 89
6, 56160, Note_on_c, 4, 81, 0
6, 56160, Note_on_c, 4, 49, 0
6, 56160, Note_on_c, 4, 58, 0
6, 56160, Note_on_c, 4, 55, 0
6, 56160, Note_on_c, 4, 52, 0
6, 56160, Note_on_c, 4, 70, 95
6, 56160, Note_on_c, 4, 58, 66
6, 56160, Note_on_c, 4, 55, 90
6, 56160, Note_on_c, 4, 52, 99
6, 56160, Note_on_c, 4, 48, 80
6, 56190, Note_on_c, 4, 70, 0
6, 56190, Note_on_c, 4, 82, 98
6, 56220, Note_on_c, 4, 82, 0
6, 56220, Note_on_c, 4, 66, 94
6, 56250, Note_on_c, 4, 66, 0
6, 56250, Note_on_c, 4, 78, 94
6, 56280, Note_on_c, 4, 78, 0
6, 56280, Note_on_c, 4, 48, 0
6, 56280, Note_on_c, 4, 58, 0
6, 56280, Note_on_c, 4, 55, 0
6, 56280, Note_on_c, 4, 52, 0
6, 56280, Note_on_c, 4, 67, 99
6, 56310, Note_on_c, 4, 67, 0
6, 56310, Note_on_c, 4, 79, 99
6, 56340, Note_on_c, 4, 79, 0
6, 56340, Note_on_c, 4, 69, 99
6, 56340, Note_on_c, 4, 58, 65
6, 56340, Note_on_c, 4, 55, 89
6, 56340, Note_on_c, 4, 52, 105
6, 56340, Note_on_c, 4, 48, 84
6, 56370, Note_on_c, 4, 69, 0
6, 56370, Note_on_c, 4, 81, 95
6, 56400, Note_on_c, 4, 81, 0
6, 56400, Note_on_c, 4, 48, 0
6, 56400, Note_on_c, 4, 58, 0
6, 56400, Note_on_c, 4, 55, 0
6, 56400, Note_on_c, 4, 52, 0
6, 56400, Note_on_c, 4, 70, 98
6, 56400, Note_on_c, 4, 58, 68
6, 56400, Note_on_c, 4, 55, 86
6, 56400, Note_on_c, 4, 52, 99
6, 56400, Note_on_c, 4, 49, 73
6, 56430, Note_on_c, 4, 70, 0
6, 56430, Note_on_c, 4, 82, 99
6, 56460, Note_on_c, 4, 82, 0
6, 56460, Note_on_c, 4, 66, 95
6, 56490, Note_on_c, 4, 66, 0
6, 56490, Note_on_c, 4, 78, 93
6, 56520, Note_on_c, 4, 78, 0
6, 56520, Note_on_c, 4, 49, 0
6, 56520, Note_on_c, 4, 58, 0
6, 56520, Note_on_c, 4, 55, 0
6, 56520, Note_on_c, 4, 52, 0
6, 56520, Note_on_c, 4, 67, 94
6, 56550, Note_on_c, 4, 67, 0
6, 56550, Note_on_c, 4, 79, 99
6, 56580, Note_on_c, 4, 79, 0
6, 56580, Note_on_c, 4, 69, 101
6, 56580, Note_on_c, 4, 58, 71
6, 56580, Note_on_c, 4, 55, 93
6, 56580, Note_on_c, 4, 52, 99
6, 56580, Note_on_c, 4, 49, 81
6, 56610, Note_on_c, 4, 69, 0
6, 56610, Note_on_c, 4, 81, 99
6, 56640, Note_on_c, 4, 81, 0
6, 56640, Note_on_c, 4, 49, 0
6, 56640, Note_on_c, 4, 58, 0
6, 56640, Note_on_c, 4, 55, 0
6, 56640, Note_on_c, 4, 52, 0
6, 56640, Note_on_c, 4, 48, 86
6, 56640, Note_on_c, 4, 48, 95
6, 56640, Control_c, 4, 7, 109
6, 56640, Note_on_c, 4, 70, 86
6, 56670, Note_on_c, 4, 70, 0
6, 56670, Note_on_c, 4, 82, 86
6, 56760, Note_on_c, 4, 48, 0
6, 56760, Note_on_c, 4, 55, 45
6, 56760, Note_on_c, 4, 52, 65
6, 56880, Note_on_c, 4, 52, 0
6, 56880, Note_on_c, 4, 55, 0
6, 56880, Note_on_c, 4, 55, 40
6, 56880, Note_on_c, 4, 52, 46
6, 56910, Note_on_c, 4, 82, 0
6, 56910, Note_on_c, 4, 81, 64
6, 56940, Note_on_c, 4, 81, 0
6, 56940, Note_on_c, 4, 79, 71
6, 56970, Note_on_c, 4, 79, 0
6, 56970, Note_on_c, 4, 77, 43
6, 57000, Note_on_c, 4, 77, 0
6, 57000, Note_on_c, 4, 52, 0
6, 57000, Note_on_c, 4, 55, 0
6, 57000, Note_on_c, 4, 76, 45
6, 57000, Note_on_c, 4, 55, 36
6, 57000, Note_on_c, 4, 52, 43
6, 57030, Note_on_c, 4, 76, 0
6, 57030, Note_on_c, 4, 74, 61
6, 57060, Note_on_c, 4, 74, 0
6, 57060, Note_on_c, 4, 72, 38
6, 57090, Note_on_c, 4, 72, 0
6, 57090, Note_on_c, 4, 70, 44
6, 57120, Note_on_c, 4, 70, 0
6, 57120, Note_on_c, 4, 52, 0
6, 57120, Note_on_c, 4, 55, 0
6, 57120, Note_on_c, 4, 48, 0
6, 57120, Note_on_c, 4, 48, 56
6, 57120, Note_on_c, 4, 69, 44
6, 57120, Note_on_c, 4, 48, 49
6, 57150, Note_on_c, 4, 69, 0
6, 57150, Note_on_c, 4, 70, 64
6, 57180, Note_on_c, 4, 70, 0
6, 57180, Note_on_c, 4, 71, 46
6, 57210, Note_on_c, 4, 71, 0
6, 57210, Note_on_c, 4, 72, 42
6, 57240, Note_on_c, 4, 72, 0
6, 57240, Note_on_c, 4, 48, 0
6, 57240, Note_on_c, 4, 73, 51
6, 57240, Note_on_c, 4, 57, 49
6, 57240, Note_on_c, 4, 53, 48
6, 57270, Note_on_c, 4, 73, 0
6, 57270, Note_on_c, 4, 74, 44
6, 57300, Note_on_c, 4, 74, 0
6, 57300, Note_on_c, 4, 75, 59
6, 57330, Note_on_c, 4, 75, 0
6, 57330, Note_on_c, 4, 76, 44
6, 57360, Note_on_c, 4, 76, 0
6, 57360, Note_on_c, 4, 53, 0
6, 57360, Note_on_c, 4, 57, 0
6, 57360, Note_on_c, 4, 77, 50
6, 57360, Note_on_c, 4, 57, 45
6, 57360, Note_on_c, 4, 53, 46
6, 57390, Note_on_c, 4, 77, 0
6, 57390, Note_on_c, 4, 78, 44
6, 57420, Note_on_c, 4, 78, 0
6, 57420, Note_on_c, 4, 79, 43
6, 57450, Note_on_c, 4, 79, 0
6, 57450, Note_on_c, 4, 80, 45
6, 57480, Note_on_c, 4, 80, 0
6, 57480, Note_on_c, 4, 53, 0
6, 57480, Note_on_c, 4, 57, 0
6, 57480, Note_on_c, 4, 81, 46
6, 57480, Note_on_c, 4, 57, 44
6, 57480, Note_on_c, 4, 53, 45
6, 57510, Note_on_c, 4, 81, 0
6, 57510, Note_on_c, 4, 82, 43
6, 57540, Note_on_c, 4, 82, 0
6, 57540, Note_on_c, 4, 83, 43
6, 57570, Note_on_c, 4, 83, 0
6, 57570, Note_on_c, 4, 84, 49
6, 57600, Note_on_c, 4, 84, 0
6, 57600, Note_on_c, 4, 53, 0
6, 57600, Note_on_c, 4, 57, 0
6, 57600, Note_on_c, 4, 48, 0
6, 57600, Note_on_c, 4, 85, 51
6, 57600, Note_on_c, 4, 48, 44
6, 57600, Note_on_c, 4, 48, 47
6, 57630, Note_on_c, 4, 85, 0
6, 57630, Note_on_c, 4, 86, 80
6, 57660, Note_on_c, 4, 86, 0
6, 57660, Note_on_c, 4, 87, 53
6, 57690, Note_on_c, 4, 87, 0
6, 57690, Note_on_c, 4, 88, 65
6, 57720, Note_on_c, 4, 88, 0
6, 57720, Note_on_c, 4, 48, 0
6, 57720, Note_on_c, 4, 89, 65
6, 57720, Note_on_c, 4, 59, 43
6, 57720, Note_on_c, 4, 53, 60
6, 57720, Note_on_c, 4, 50, 42
6, 57750, Note_on_c, 4, 89, 0
6, 57750, Note_on_c, 4, 88, 44
6, 57780, Note_on_c, 4, 88, 0
6, 57780, Note_on_c, 4, 89, 40
6, 57810, Note_on_c, 4, 89, 0
6, 57810, Note_on_c, 4, 88, 45
6, 57840, Note_on_c, 4, 88, 0
6, 57840, Note_on_c, 4, 50, 0
6, 57840, Note_on_c, 4, 53, 0
6, 57840, Note_on_c, 4, 59, 0
6, 57840, Note_on_c, 4, 89, 43
6, 57840, Note_on_c, 4, 59, 41
6, 57840, Note_on_c, 4, 53, 42
6, 57840, Note_on_c, 4, 50, 43
6, 57870, Note_on_c, 4, 89, 0
6, 57870, Note_on_c, 4, 88, 44
6, 57900, Note_on_c, 4, 88, 0
6, 57900, Note_on_c, 4, 89, 50
6, 57930, Note_on_c, 4, 89, 0
6, 57930, Note_on_c, 4, 88, 52
6, 57960, Note_on_c, 4, 88, 0
6, 57960, Note_on_c, 4, 50, 0
6, 57960, Note_on_c, 4, 53, 0
6, 57960, Note_on_c, 4, 59, 0
6, 57960, Note_on_c, 4, 89, 52
6, 57960, Note_on_c, 4, 59, 43
6, 57960, Note_on_c, 4, 53, 52
6, 57960, Note_on_c, 4, 50, 51
6, 57990, Note_on_c, 4, 89, 0
6, 57990, Note_on_c, 4, 86, 80
6, 58020, Note_on_c, 4, 86, 0
6, 58020, Note_on_c, 4, 84, 62
6, 58050, Note_on_c, 4, 84, 0
6, 58050, Note_on_c, 4, 83, 52
6, 58080, Note_on_c, 4, 83, 0
6, 58080, Note_on_c, 4, 50, 0
6, 58080, Note_on_c, 4, 48, 0
6, 58080, Note_on_c, 4, 59, 0
6, 58080, Note_on_c, 4, 53, 0
6, 58080, Note_on_c, 4, 86, 56
6, 58080, Note_on_c, 4, 60, 47
6, 58080, Note_on_c, 4, 55, 57
6, 58080, Note_on_c, 4, 52, 45
6, 58110, Note_on_c, 4, 86, 0
6, 58110, Note_on_c, 4, 84, 62
6, 58140, Note_on_c, 4, 84, 0
6, 58140, Note_on_c, 4, 83, 64
6, 58170, Note_on_c, 4, 83, 0
6, 58170, Note_on_c, 4, 84, 64
6, 58200, Note_on_c, 4, 84, 0
6, 58200, Note_on_c, 4, 52, 0
6, 58200, Note_on_c, 4, 55, 0
6, 58200, Note_on_c, 4, 60, 0
6, 58200, Note_on_c, 4, 88, 45
6, 58230, Note_on_c, 4, 88, 0
6, 58230, Note_on_c, 4, 84, 57
6, 58260, Note_on_c, 4, 84, 0
6, 58260, Note_on_c, 4, 79, 58
6, 58260, Note_on_c, 4, 60, 68
6, 58290, Note_on_c, 4, 79, 0
6, 58290, Note_on_c, 4, 76, 67
6, 58320, Note_on_c, 4, 76, 0
6, 58320, Note_on_c, 4, 60, 0
6, 58320, Note_on_c, 4, 79, 54
6, 58320, Note_on_c, 4, 55, 57
6, 58350, Note_on_c, 4, 79, 0
6, 58350, Note_on_c, 4, 77, 50
6, 58380, Note_on_c, 4, 77, 0
6, 58380, Note_on_c, 4, 76, 62
6, 58410, Note_on_c, 4, 76, 0
6, 58410, Note_on_c, 4, 77, 60
6, 58440, Note_on_c, 4, 77, 0
6, 58440, Note_on_c, 4, 55, 0
6, 58440, Note_on_c, 4, 81, 65
6, 58470, Note_on_c, 4, 81, 0
6, 58470, Note_on_c, 4, 77, 84
6, 58500, Note_on_c, 4, 77, 0
6, 58500, Note_on_c, 4, 76, 76
6, 58500, Note_on_c, 4, 55, 68
6, 58530, Note_on_c, 4, 76, 0
6, 58530, Note_on_c, 4, 71, 58
6, 58560, Note_on_c, 4, 71, 0
6, 58560, Note_on_c, 4, 55, 0
6, 58560, Note_on_c, 4, 74, 69
6, 58560, Note_on_c, 4, 48, 70
6, 58590, Note_on_c, 4, 74, 0
6, 58590, Note_on_c, 4, 72, 50
6, 58620, Note_on_c, 4, 72, 0
6, 58620, Note_on_c, 4, 71, 48
6, 58650, Note_on_c, 4, 71, 0
6, 58650, Note_on_c, 4, 72, 29
6, 58680, Note_on_c, 4, 72, 0
6, 58680, Note_on_c, 4, 48, 0
6, 58680, Note_on_c, 4, 76, 66
6, 58710, Note_on_c, 4, 76, 0
6, 58710, Note_on_c, 4, 72, 40
6, 58740, Note_on_c, 4, 72, 0
6, 58740, Note_on_c, 4, 67, 65
6, 58740, Note_on_c, 4, 48, 68
6, 58770, Note_on_c, 4, 67, 0
6, 58770, Note_on_c, 4, 64, 47
6, 58800, Note_on_c, 4, 64, 0
6, 58800, Note_on_c, 4, 48, 0
6, 58800, Note_on_c, 4, 67, 45
6, 58800, Note_on_c, 4, 43, 71
6, 58830, Note_on_c, 4, 67, 0
6, 58830, Note_on_c, 4, 65, 44
6, 58860, Note_on_c, 4, 65, 0
6, 58860, Note_on_c, 4, 64, 63
6, 58890, Note_on_c, 4, 64, 0
6, 58890, Note_on_c, 4, 65, 74
6, 58920, Note_on_c, 4, 65, 0
6, 58920, Note_on_c, 4, 43, 0
6, 58920, Note_on_c, 4, 69, 62
6, 58950, Note_on_c, 4, 69, 0
6, 58950, Note_on_c, 4, 65, 65
6, 58980, Note_on_c, 4, 65, 0
6, 58980, Note_on_c, 4, 62, 43
6, 58980, Note_on_c, 4, 43, 68
6, 59010, Note_on_c, 4, 62, 0
6, 59010, Note_on_c, 4, 59, 64
6, 59040, Note_on_c, 4, 59, 0
6, 59040, Note_on_c, 4, 43, 0
6, 59040, Note_on_c, 4, 60, 68
6, 59070, Note_on_c, 4, 36, 50
6, 59100, Note_on_c, 4, 36, 0
6, 59100, Note_on_c, 4, 38, 64
6, 59130, Note_on_c, 4, 38, 0
6, 59130, Note_on_c, 4, 40, 65
6, 59160, Note_on_c, 4, 40, 0
6, 59160, Note_on_c, 4, 60, 0
6, 59160, Note_on_c, 4, 41, 62
6, 59190, Note_on_c, 4, 41, 0
6, 59190, Note_on_c, 4, 43, 57
6, 59220, Note_on_c, 4, 43, 0
6, 59220, Note_on_c, 4, 45, 58
6, 59250, Note_on_c, 4, 45, 0
6, 59250, Note_on_c, 4, 47, 67
6, 59280, Note_on_c, 4, 47, 0
6, 59280, Note_on_c, 4, 48, 55
6, 59310, Note_on_c, 4, 48, 0
6, 59310, Note_on_c, 4, 50, 64
6, 59340, Note_on_c, 4, 50, 0
6, 59340, Note_on_c, 4, 52, 80
6, 59370, Note_on_c, 4, 52, 0
6, 59370, Note_on_c, 4, 53, 59
6, 59400, Note_on_c, 4, 53, 0
6, 59400, Note_on_c, 4, 55, 54
6, 59430, Note_on_c, 4, 55, 0
6, 59430, Note_on_c, 4, 57, 86
6, 59460, Note_on_c, 4, 57, 0
6, 59460, Note_on_c, 4, 59, 67
6, 59490, Note_on_c, 4, 59, 0
6, 59490, Note_on_c, 4, 60, 74
6, 59520, Note_on_c, 4, 60, 0
6, 59520, Note_on_c, 4, 62, 70
6, 59550, Note_on_c, 4, 62, 0
6, 59550, Note_on_c, 4, 64, 58
6, 59580, Note_on_c, 4, 64, 0
6, 59580, Note_on_c, 4, 65, 73
6, 59610, Note_on_c, 4, 65, 0
6, 59610, Note_on_c, 4, 67, 63
6, 59640, Note_on_c, 4, 67, 0
6, 59640, Note_on_c, 4, 69, 71
6, 59670, Note_on_c, 4, 69, 0
6, 59670, Note_on_c, 4, 71, 84
6, 59700, Note_on_c, 4, 71, 0
6, 59700, Note_on_c, 4, 72, 60
6, 59730, Note_on_c, 4, 72, 0
6, 59730, Note_on_c, 4, 74, 53
6, 59760, Note_on_c, 4, 74, 0
6, 59760, Note_on_c, 4, 76, 84
6, 59790, Note_on_c, 4, 76, 0
6, 59790, Note_on_c, 4, 77, 60
6, 59820, Note_on_c, 4, 77, 0
6, 59820, Note_on_c, 4, 78, 64
6, 59850, Note_on_c, 4, 78, 0
6, 59850, Note_on_c, 4, 79, 62
6, 59880, Note_on_c, 4, 79, 0
6, 59880, Note_on_c, 4, 80, 68
6, 59910, Note_on_c, 4, 80, 0
6, 59910, Note_on_c, 4, 81, 64
6, 59940, Note_on_c, 4, 81, 0
6, 59940, Note_on_c, 4, 82, 53
6, 59970, Note_on_c, 4, 82, 0
6, 59970, Note_on_c, 4, 83, 63
6, 60000, Note_on_c, 4, 83, 0
6, 60000, Note_on_c, 4, 84, 68
6, 60120, Note_on_c, 4, 84, 0
6, 60144, Control_c, 4, 7, 90
6, 60180, Note_on_c, 4, 79, 52
6, 60240, Note_on_c, 4, 79, 0
6, 60240, Note_on_c, 4, 84, 59
6, 60270, Note_on_c, 4, 84, 0
6, 60330, Note_on_c, 4, 79, 64
6, 60360, Note_on_c, 4, 79, 0
6, 60360, Note_on_c, 4, 84, 60
6, 60390, Note_on_c, 4, 84, 0
6, 60450, Note_on_c, 4, 79, 63
6, 60480, Note_on_c, 4, 79, 0
6, 60480, Note_on_c, 4, 84, 52
6, 60540, Note_on_c, 4, 84, 0
6, 60600, Control_c, 4, 7, 99
6, 64560, Note_on_c, 4, 84, 93
6, 64680, Note_on_c, 4, 84, 0
6, 64680, Note_on_c, 4, 84, 73
6, 64704, Note_on_c, 4, 84, 0
6, 64704, Note_on_c, 4, 86, 73
6, 64728, Note_on_c, 4, 86, 0
6, 64728, Note_on_c, 4, 84, 76
6, 64752, Note_on_c, 4, 84, 0
6, 64752, Note_on_c, 4, 83, 76
6, 64776, Note_on_c, 4, 83, 0
6, 64776, Note_on_c, 4, 84, 85
6, 64800, Note_on_c, 4, 84, 0
6, 64800, Note_on_c, 4, 89, 52
6, 64800, Note_on_c, 4, 69, 57
6, 64800, Note_on_c, 4, 65, 53
6, 65040, Note_on_c, 4, 65, 0
6, 65040, Note_on_c, 4, 69, 0
6, 65040, Note_on_c, 4, 89, 0
6, 65040, Note_on_c, 4, 70, 50
6, 65040, Note_on_c, 4, 67, 50
6, 65040, Note_on_c, 4, 88, 64
6, 65040, Note_on_c, 4, 60, 54
6, 65100, Note_on_c, 4, 88, 0
6, 65100, Note_on_c, 4, 86, 46
6, 65160, Note_on_c, 4, 86, 0
6, 65160, Note_on_c, 4, 84, 67
6, 65220, Note_on_c, 4, 84, 0
6, 65220, Note_on_c, 4, 82, 59
6, 65280, Note_on_c, 4, 82, 0
6, 65280, Note_on_c, 4, 60, 0
6, 65280, Note_on_c, 4, 67, 0
6, 65280, Note_on_c, 4, 70, 0
6, 65280, Note_on_c, 4, 81, 64
6, 65280, Note_on_c, 4, 69, 45
6, 65280, Note_on_c, 4, 65, 52
6, 65280, Note_on_c, 4, 60, 46
6, 65340, Note_on_c, 4, 81, 0
6, 65400, Note_on_c, 4, 69, 0
6, 65400, Note_on_c, 4, 65, 0
6, 65400, Note_on_c, 4, 60, 0
6, 65520, Note_on_c, 4, 86, 70
6, 65560, Note_on_c, 4, 86, 0
6, 65560, Note_on_c, 4, 85, 62
6, 65600, Note_on_c, 4, 85, 0
6, 65600, Note_on_c, 4, 84, 63
6, 65640, Note_on_c, 4, 84, 0
6, 65640, Note_on_c, 4, 83, 64
6, 65680, Note_on_c, 4, 83, 0
6, 65680, Note_on_c, 4, 82, 52
6, 65720, Note_on_c, 4, 82, 0
6, 65720, Note_on_c, 4, 81, 50
6, 65760, Note_on_c, 4, 81, 0
6, 65760, Note_on_c, 4, 79, 72
6, 65760, Note_on_c, 4, 74, 77
6, 65800, Note_on_c, 4, 74, 0
6, 65800, Note_on_c, 4, 73, 45
6, 65820, Note_on_c, 4, 79, 0
6, 65840, Note_on_c, 4, 73, 0
6, 65840, Note_on_c, 4, 72, 29
6, 65880, Note_on_c, 4, 72, 0
6, 65880, Note_on_c, 4, 79, 63
6, 65880, Note_on_c, 4, 71, 38
6, 65920, Note_on_c, 4, 71, 0
6, 65920, Note_on_c, 4, 70, 67
6, 65940, Note_on_c, 4, 79, 0
6, 65960, Note_on_c, 4, 70, 0
6, 65960, Note_on_c, 4, 69, 73
6, 66000, Note_on_c, 4, 69, 0
6, 66000, Note_on_c, 4, 79, 68
6, 66000, Note_on_c, 4, 67, 46
6, 66060, Note_on_c, 4, 79, 0
6, 66120, Note_on_c, 4, 67, 0
6, 66120, Note_on_c, 4, 81, 52
6, 66120, Note_on_c, 4, 74, 50
6, 66120, Note_on_c, 4, 66, 50
6, 66120, Note_on_c, 4, 62, 72
6, 66150, Note_on_c, 4, 62, 0
6, 66150, Note_on_c, 4, 81, 0
6, 66150, Note_on_c, 4, 74, 0
6, 66150, Note_on_c, 4, 66, 0
6, 66240, Note_on_c, 4, 84, 68
6, 66240, Note_on_c, 4, 74, 65
6, 66240, Note_on_c, 4, 69, 57
6, 66240, Note_on_c, 4, 34, 52
6, 66360, Note_on_c, 4, 69, 0
6, 66360, Note_on_c, 4, 66, 74
6, 66480, Note_on_c, 4, 66, 0
6, 66480, Note_on_c, 4, 84, 0
6, 66480, Note_on_c, 4, 74, 0
6, 66480, Note_on_c, 4, 82, 48
6, 66480, Note_on_c, 4, 74, 58
6, 66480, Note_on_c, 4, 67, 61
6, 66600, Note_on_c, 4, 67, 0
6, 66600, Note_on_c, 4, 34, 0
6, 66600, Note_on_c, 4, 82, 0
6, 66600, Note_on_c, 4, 74, 0
6, 66600, Note_on_c, 4, 79, 53
6, 66660, Note_on_c, 4, 79, 0
6, 66660, Note_on_c, 4, 81, 62
6, 66720, Note_on_c, 4, 81, 0
6, 66720, Note_on_c, 4, 82, 68
6, 66720, Note_on_c, 4, 64, 47
6, 66720, Note_on_c, 4, 60, 53
6, 66720, Note_on_c, 4, 55, 43
6, 66750, Note_on_c, 4, 82, 0
6, 66750, Note_on_c, 4, 84, 71
6, 66765, Note_on_c, 4, 84, 0
6, 66765, Note_on_c, 4, 82, 62
6, 66780, Note_on_c, 4, 82, 0
6, 66780, Note_on_c, 4, 84, 67
6, 66795, Note_on_c, 4, 84, 0
6, 66795, Note_on_c, 4, 82, 65
6, 66810, Note_on_c, 4, 82, 0
6, 66810, Note_on_c, 4, 84, 61
6, 66825, Note_on_c, 4, 84, 0
6, 66825, Note_on_c, 4, 82, 57
6, 66840, Note_on_c, 4, 82, 0
6, 66840, Note_on_c, 4, 84, 64
6, 66900, Note_on_c, 4, 84, 0
6, 66900, Note_on_c, 4, 82, 58
6, 66960, Note_on_c, 4, 82, 0
6, 66960, Note_on_c, 4, 64, 0
6, 66960, Note_on_c, 4, 60, 0
6, 66960, Note_on_c, 4, 55, 0
6, 66960, Note_on_c, 4, 67, 42
6, 66960, Note_on_c, 4, 81, 62
6, 66960, Note_on_c, 4, 60, 65
6, 66960, Note_on_c, 4, 58, 40
6, 67020, Note_on_c, 4, 81, 0
6, 67020, Note_on_c, 4, 79, 64
6, 67080, Note_on_c, 4, 79, 0
6, 67080, Note_on_c, 4, 77, 62
6, 67140, Note_on_c, 4, 77, 0
6, 67140, Note_on_c, 4, 76, 68
6, 67200, Note_on_c, 4, 76, 0
6, 67200, Note_on_c, 4, 58, 0
6, 67200, Note_on_c, 4, 60, 0
6, 67200, Note_on_c, 4, 67, 0
6, 67200, Note_on_c, 4, 79, 68
6, 67200, Note_on_c, 4, 65, 43
6, 67200, Note_on_c, 4, 60, 62
6, 67200, Note_on_c, 4, 57, 58
6, 67260, Note_on_c, 4, 79, 0
6, 67260, Note_on_c, 4, 77, 53
6, 67320, Note_on_c, 4, 77, 0
6, 67320, Note_on_c, 4, 57, 0
6, 67320, Note_on_c, 4, 60, 0
6, 67320, Note_on_c, 4, 65, 0
6, 67320, Note_on_c, 4, 76, 64
6, 67380, Note_on_c, 4, 76, 0
6, 67380, Note_on_c, 4, 77, 46
6, 67440, Note_on_c, 4, 77, 0
6, 67440, Note_on_c, 4, 79, 84
6, 67500, Note_on_c, 4, 79, 0
6, 67500, Note_on_c, 4, 81, 71
6, 67560, Note_on_c, 4, 81, 0
6, 67560, Note_on_c, 4, 82, 50
6, 67620, Note_on_c, 4, 82, 0
6, 67620, Note_on_c, 4, 84, 61
6, 67680, Note_on_c, 4, 84, 0
6, 67680, Note_on_c, 4, 86, 48
6, 67680, Note_on_c, 4, 58, 64
6, 67740, Note_on_c, 4, 58, 0
6, 67740, Note_on_c, 4, 86, 0
6, 67740, Note_on_c, 4, 88, 80
6, 67740, Note_on_c, 4, 65, 61
6, 67800, Note_on_c, 4, 65, 0
6, 67800, Note_on_c, 4, 88, 0
6, 67800, Note_on_c, 4, 89, 77
6, 67800, Note_on_c, 4, 62, 76
6, 67800, Note_on_c, 4, 58, 44
6, 67860, Note_on_c, 4, 62, 0
6, 67860, Note_on_c, 4, 89, 0
6, 67860, Note_on_c, 4, 86, 55
6, 67860, Note_on_c, 4, 65, 65
6, 67920, Note_on_c, 4, 65, 0
6, 67920, Note_on_c, 4, 86, 0
6, 67920, Note_on_c, 4, 58, 0
6, 67920, Note_on_c, 4, 84, 58
6, 67920, Note_on_c, 4, 69, 65
6, 67920, Note_on_c, 4, 60, 50
6, 67980, Note_on_c, 4, 69, 0
6, 67980, Note_on_c, 4, 84, 0
6, 67980, Note_on_c, 4, 81, 46
6, 67980, Note_on_c, 4, 65, 69
6, 68040, Note_on_c, 4, 65, 0
6, 68040, Note_on_c, 4, 81, 0
6, 68040, Note_on_c, 4, 60, 0
6, 68040, Note_on_c, 4, 82, 68
6, 68040, Note_on_c, 4, 67, 55
6, 68040, Note_on_c, 4, 60, 62
6, 68100, Note_on_c, 4, 67, 0
6, 68100, Note_on_c, 4, 82, 0
6, 68100, Note_on_c, 4, 79, 50
6, 68100, Note_on_c, 4, 64, 74
6, 68160, Note_on_c, 4, 64, 0
6, 68160, Note_on_c, 4, 79, 0
6, 68160, Note_on_c, 4, 60, 0
6, 68160, Note_on_c, 4, 77, 52
6, 68160, Note_on_c, 4, 53, 71
6, 68220, Note_on_c, 4, 53, 0
6, 68220, Note_on_c, 4, 77, 0
6, 68220, Note_on_c, 4, 65, 69
6, 68280, Note_on_c, 4, 65, 0
6, 68280, Note_on_c, 4, 53, 68
6, 68340, Note_on_c, 4, 53, 0
6, 68340, Note_on_c, 4, 65, 69
6, 68400, Note_on_c, 4, 65, 0
6, 68400, Note_on_c, 4, 88, 61
6, 68400, Note_on_c, 4, 53, 67
6, 68460, Note_on_c, 4, 53, 0
6, 68460, Note_on_c, 4, 88, 0
6, 68460, Note_on_c, 4, 89, 69
6, 68460, Note_on_c, 4, 65, 73
6, 68520, Note_on_c, 4, 65, 0
6, 68520, Note_on_c, 4, 89, 0
6, 68520, Note_on_c, 4, 86, 67
6, 68520, Note_on_c, 4, 53, 72
6, 68550, Note_on_c, 4, 86, 0
6, 68580, Note_on_c, 4, 53, 0
6, 68580, Note_on_c, 4, 82, 59
6, 68580, Note_on_c, 4, 65, 73
6, 68610, Note_on_c, 4, 82, 0
6, 68640, Note_on_c, 4, 65, 0
6, 68640, Note_on_c, 4, 83, 72
6, 68640, Note_on_c, 4, 53, 69
6, 68700, Note_on_c, 4, 53, 0
6, 68700, Note_on_c, 4, 83, 0
6, 68700, Note_on_c, 4, 84, 60
6, 68700, Note_on_c, 4, 65, 73
6, 68760, Note_on_c, 4, 65, 0
6, 68760, Note_on_c, 4, 84, 0
6, 68760, Note_on_c, 4, 81, 61
6, 68760, Note_on_c, 4, 53, 69
6, 68790, Note_on_c, 4, 81, 0
6, 68820, Note_on_c, 4, 53, 0
6, 68820, Note_on_c, 4, 77, 59
6, 68820, Note_on_c, 4, 65, 71
6, 68850, Note_on_c, 4, 77, 0
6, 68880, Note_on_c, 4, 65, 0
6, 68880, Note_on_c, 4, 88, 76
6, 68880, Note_on_c, 4, 53, 71
6, 68940, Note_on_c, 4, 53, 0
6, 68940, Note_on_c, 4, 88, 0
6, 68940, Note_on_c, 4, 89, 76
6, 68940, Note_on_c, 4, 65, 71
6, 69000, Note_on_c, 4, 65, 0
6, 69000, Note_on_c, 4, 89, 0
6, 69000, Note_on_c, 4, 86, 62
6, 69000, Note_on_c, 4, 53, 76
6, 69030, Note_on_c, 4, 86, 0
6, 69060, Note_on_c, 4, 53, 0
6, 69060, Note_on_c, 4, 82, 64
6, 69060, Note_on_c, 4, 65, 73
6, 69090, Note_on_c, 4, 82, 0
6, 69120, Note_on_c, 4, 65, 0
6, 69120, Note_on_c, 4, 83, 72
6, 69120, Note_on_c, 4, 53, 71
6, 69180, Note_on_c, 4, 53, 0
6, 69180, Note_on_c, 4, 83, 0
6, 69180, Note_on_c, 4, 84, 69
6, 69180, Note_on_c, 4, 65, 71
6, 69240, Note_on_c, 4, 65, 0
6, 69240, Note_on_c, 4, 84, 0
6, 69240, Note_on_c, 4, 81, 82
6, 69240, Note_on_c, 4, 53, 80
6, 69270, Note_on_c, 4, 81, 0
6, 69300, Note_on_c, 4, 53, 0
6, 69300, Note_on_c, 4, 77, 73
6, 69300, Note_on_c, 4, 65, 73
6, 69330, Note_on_c, 4, 77, 0
6, 69330, Note_on_c, 4, 76, 78
6, 69360, Note_on_c, 4, 76, 0
6, 69360, Note_on_c, 4, 65, 0
6, 69360, Note_on_c, 4, 77, 69
6, 69390, Note_on_c, 4, 77, 0
6, 69390, Note_on_c, 4, 76, 76
6, 69420, Note_on_c, 4, 76, 0
6, 69420, Note_on_c, 4, 77, 57
6, 69440, Note_on_c, 4, 77, 0
6, 69440, Note_on_c, 4, 76, 76
6, 69460, Note_on_c, 4, 76, 0
6, 69460, Note_on_c, 4, 77, 72
6, 69480, Note_on_c, 4, 77, 0
6, 69480, Note_on_c, 4, 76, 82
6, 69480, Note_on_c, 4, 62, 62
6, 69480, Note_on_c, 4, 58, 55
6, 69495, Note_on_c, 4, 76, 0
6, 69495, Note_on_c, 4, 77, 73
6, 69510, Note_on_c, 4, 77, 0
6, 69510, Note_on_c, 4, 76, 73
6, 69525, Note_on_c, 4, 76, 0
6, 69525, Note_on_c, 4, 77, 64
6, 69540, Note_on_c, 4, 77, 0
6, 69540, Note_on_c, 4, 76, 71
6, 69555, Note_on_c, 4, 76, 0
6, 69555, Note_on_c, 4, 77, 72
6, 69570, Note_on_c, 4, 77, 0
6, 69570, Note_on_c, 4, 76, 80
6, 69585, Note_on_c, 4, 76, 0
6, 69585, Note_on_c, 4, 77, 50
6, 69600, Note_on_c, 4, 77, 0
6, 69600, Note_on_c, 4, 58, 0
6, 69600, Note_on_c, 4, 62, 0
6, 69600, Note_on_c, 4, 76, 84
6, 69600, Note_on_c, 4, 60, 64
6, 69600, Note_on_c, 4, 57, 73
6, 69620, Note_on_c, 4, 76, 0
6, 69620, Note_on_c, 4, 77, 71
6, 69640, Note_on_c, 4, 77, 0
6, 69640, Note_on_c, 4, 76, 71
6, 69660, Note_on_c, 4, 76, 0
6, 69660, Note_on_c, 4, 57, 0
6, 69660, Note_on_c, 4, 60, 0
6, 69660, Note_on_c, 4, 77, 76
6, 69675, Note_on_c, 4, 77, 0
6, 69675, Note_on_c, 4, 76, 65
6, 69690, Note_on_c, 4, 76, 0
6, 69690, Note_on_c, 4, 77, 74
6, 69705, Note_on_c, 4, 77, 0
6, 69705, Note_on_c, 4, 76, 70
6, 69720, Note_on_c, 4, 76, 0
6, 69720, Note_on_c, 4, 77, 65
6, 69720, Note_on_c, 4, 57, 63
6, 69720, Note_on_c, 4, 53, 43
6, 69735, Note_on_c, 4, 77, 0
6, 69735, Note_on_c, 4, 76, 80
6, 69750, Note_on_c, 4, 76, 0
6, 69750, Note_on_c, 4, 77, 68
6, 69765, Note_on_c, 4, 77, 0
6, 69765, Note_on_c, 4, 76, 74
6, 69780, Note_on_c, 4, 76, 0
6, 69780, Note_on_c, 4, 53, 0
6, 69780, Note_on_c, 4, 57, 0
6, 69780, Note_on_c, 4, 77, 67
6, 69800, Note_on_c, 4, 77, 0
6, 69800, Note_on_c, 4, 76, 65
6, 69820, Note_on_c, 4, 76, 0
6, 69820, Note_on_c, 4, 77, 71
6, 69840, Note_on_c, 4, 77, 0
6, 69840, Note_on_c, 4, 76, 76
6, 69855, Note_on_c, 4, 76, 0
6, 69855, Note_on_c, 4, 77, 65
6, 69870, Note_on_c, 4, 77, 0
6, 69870, Note_on_c, 4, 76, 77
6, 69885, Note_on_c, 4, 76, 0
6, 69885, Note_on_c, 4, 77, 67
6, 69900, Note_on_c, 4, 77, 0
6, 69900, Note_on_c, 4, 76, 78
6, 69915, Note_on_c, 4, 76, 0
6, 69915, Note_on_c, 4, 77, 72
6, 69930, Note_on_c, 4, 77, 0
6, 69930, Note_on_c, 4, 76, 67
6, 69945, Note_on_c, 4, 76, 0
6, 69945, Note_on_c, 4, 77, 69
6, 69960, Note_on_c, 4, 77, 0
6, 69960, Note_on_c, 4, 76, 67
6, 69960, Note_on_c, 4, 62, 59
6, 69960, Note_on_c, 4, 58, 58
6, 69980, Note_on_c, 4, 76, 0
6, 69980, Note_on_c, 4, 77, 74
6, 70000, Note_on_c, 4, 77, 0
6, 70000, Note_on_c, 4, 76, 71
6, 70020, Note_on_c, 4, 76, 0
6, 70020, Note_on_c, 4, 77, 44
6, 70035, Note_on_c, 4, 77, 0
6, 70035, Note_on_c, 4, 76, 77
6, 70050, Note_on_c, 4, 76, 0
6, 70050, Note_on_c, 4, 77, 69
6, 70065, Note_on_c, 4, 77, 0
6, 70065, Note_on_c, 4, 76, 69
6, 70080, Note_on_c, 4, 76, 0
6, 70080, Note_on_c, 4, 58, 0
6, 70080, Note_on_c, 4, 62, 0
6, 70080, Note_on_c, 4, 77, 67
6, 70080, Note_on_c, 4, 60, 46
6, 70080, Note_on_c, 4, 57, 57
6, 70100, Note_on_c, 4, 77, 0
6, 70100, Note_on_c, 4, 76, 70
6, 70120, Note_on_c, 4, 76, 0
6, 70120, Note_on_c, 4, 77, 61
6, 70140, Note_on_c, 4, 77, 0
6, 70140, Note_on_c, 4, 57, 0
6, 70140, Note_on_c, 4, 60, 0
6, 70140, Note_on_c, 4, 76, 73
6, 70155, Note_on_c, 4, 76, 0
6, 70155, Note_on_c, 4, 77, 73
6, 70170, Note_on_c, 4, 77, 0
6, 70170, Note_on_c, 4, 76, 80
6, 70185, Note_on_c, 4, 76, 0
6, 70185, Note_on_c, 4, 77, 76
6, 70200, Note_on_c, 4, 77, 0
6, 70200, Note_on_c, 4, 76, 80
6, 70200, Note_on_c, 4, 57, 65
6, 70200, Note_on_c, 4, 53, 44
6, 70220, Note_on_c, 4, 76, 0
6, 70220, Note_on_c, 4, 77, 73
6, 70240, Note_on_c, 4, 77, 0
6, 70240, Note_on_c, 4, 76, 80
6, 70260, Note_on_c, 4, 76, 0
6, 70260, Note_on_c, 4, 53, 0
6, 70260, Note_on_c, 4, 57, 0
6, 70260, Note_on_c, 4, 77, 73
6, 70275, Note_on_c, 4, 77, 0
6, 70275, Note_on_c, 4, 76, 62
6, 70290, Note_on_c, 4, 76, 0
6, 70290, Note_on_c, 4, 77, 71
6, 70305, Note_on_c, 4, 77, 0
6, 70305, Note_on_c, 4, 76, 76
6, 70320, Note_on_c, 4, 76, 0
6, 70320, Note_on_c, 4, 77, 54
6, 70340, Note_on_c, 4, 77, 0
6, 70340, Note_on_c, 4, 76, 80
6, 70360, Note_on_c, 4, 76, 0
6, 70360, Note_on_c, 4, 77, 71
6, 70380, Note_on_c, 4, 77, 0
6, 70380, Note_on_c, 4, 76, 76
6, 70395, Note_on_c, 4, 76, 0
6, 70395, Note_on_c, 4, 77, 80
6, 70410, Note_on_c, 4, 77, 0
6, 70410, Note_on_c, 4, 76, 72
6, 70425, Note_on_c, 4, 76, 0
6, 70425, Note_on_c, 4, 77, 63
6, 70440, Note_on_c, 4, 77, 0
6, 70440, Note_on_c, 4, 76, 61
6, 70500, Note_on_c, 4, 76, 0
6, 70500, Note_on_c, 4, 77, 58
6, 70560, Note_on_c, 4, 77, 0
6, 70560, Note_on_c, 4, 76, 63
6, 70620, Note_on_c, 4, 76, 0
6, 70620, Note_on_c, 4, 77, 46
6, 70680, Note_on_c, 4, 77, 0
6, 70680, Note_on_c, 4, 76, 57
6, 70740, Note_on_c, 4, 76, 0
6, 70740, Note_on_c, 4, 77, 41
6, 70800, Note_on_c, 4, 77, 0
6, 70800, Note_on_c, 4, 76, 52
6, 70860, Note_on_c, 4, 76, 0
6, 70860, Note_on_c, 4, 77, 52
6, 70920, Note_on_c, 4, 77, 0
6, 70920, Note_on_c, 4, 78, 39
6, 70980, Note_on_c, 4, 78, 0
6, 70980, Note_on_c, 4, 77, 43
6, 71040, Note_on_c, 4, 77, 0
6, 71040, Note_on_c, 4, 80, 41
6, 71040, Note_on_c, 4, 49, 59
6, 71100, Note_on_c, 4, 49, 0
6, 71100, Note_on_c, 4, 53, 60
6, 71160, Note_on_c, 4, 53, 0
6, 71160, Note_on_c, 4, 56, 53
6, 71220, Note_on_c, 4, 56, 0
6, 71220, Note_on_c, 4, 61, 49
6, 71280, Note_on_c, 4, 61, 0
6, 71280, Note_on_c, 4, 80, 0
6, 71280, Note_on_c, 4, 73, 43
6, 71280, Note_on_c, 4, 49, 43
6, 71340, Note_on_c, 4, 49, 0
6, 71340, Note_on_c, 4, 53, 54
6, 71400, Note_on_c, 4, 53, 0
6, 71400, Note_on_c, 4, 56, 68
6, 71460, Note_on_c, 4, 56, 0
6, 71460, Note_on_c, 4, 61, 53
6, 71520, Note_on_c, 4, 61, 0
6, 71520, Note_on_c, 4, 73, 0
6, 71520, Note_on_c, 4, 78, 53
6, 71520, Note_on_c, 4, 49, 69
6, 71580, Note_on_c, 4, 49, 0
6, 71580, Note_on_c, 4, 51, 64
6, 71640, Note_on_c, 4, 51, 0
6, 71640, Note_on_c, 4, 54, 60
6, 71700, Note_on_c, 4, 54, 0
6, 71700, Note_on_c, 4, 60, 61
6, 71760, Note_on_c, 4, 60, 0
6, 71760, Note_on_c, 4, 78, 0
6, 71760, Note_on_c, 4, 78, 38
6, 71760, Note_on_c, 4, 49, 71
6, 71820, Note_on_c, 4, 49, 0
6, 71820, Note_on_c, 4, 78, 0
6, 71820, Note_on_c, 4, 82, 43
6, 71820, Note_on_c, 4, 51, 64
6, 71880, Note_on_c, 4, 51, 0
6, 71880, Note_on_c, 4, 82, 0
6, 71880, Note_on_c, 4, 80, 44
6, 71880, Note_on_c, 4, 54, 45
6, 71940, Note_on_c, 4, 54, 0
6, 71940, Note_on_c, 4, 80, 0
6, 71940, Note_on_c, 4, 78, 64
6, 71940, Note_on_c, 4, 60, 42
6, 72000, Note_on_c, 4, 60, 0
6, 72000, Note_on_c, 4, 78, 0
6, 72000, Note_on_c, 4, 77, 52
6, 72000, Note_on_c, 4, 49, 53
6, 72060, Note_on_c, 4, 49, 0
6, 72060, Note_on_c, 4, 77, 0
6, 72060, Note_on_c, 4, 75, 53
6, 72060, Note_on_c, 4, 53, 43
6, 72120, Note_on_c, 4, 53, 0
6, 72120, Note_on_c, 4, 75, 0
6, 72120, Note_on_c, 4, 73, 56
6, 72120, Note_on_c, 4, 56, 78
6, 72180, Note_on_c, 4, 56, 0
6, 72180, Note_on_c, 4, 73, 0
6, 72180, Note_on_c, 4, 72, 50
6, 72180, Note_on_c, 4, 61, 53
6, 72240, Note_on_c, 4, 61, 0
6, 72240, Note_on_c, 4, 72, 0
6, 72240, Note_on_c, 4, 73, 61
6, 72240, Note_on_c, 4, 49, 35
6, 72264, Note_on_c, 4, 73, 0
6, 72264, Note_on_c, 4, 75, 73
6, 72288, Note_on_c, 4, 75, 0
6, 72288, Note_on_c, 4, 73, 48
6, 72300, Note_on_c, 4, 49, 0
6, 72300, Note_on_c, 4, 53, 41
6, 72312, Note_on_c, 4, 73, 0
6, 72312, Note_on_c, 4, 72, 64
6, 72336, Note_on_c, 4, 72, 0
6, 72336, Note_on_c, 4, 73, 62
6, 72360, Note_on_c, 4, 73, 0
6, 72360, Note_on_c, 4, 53, 0
6, 72360, Note_on_c, 4, 75, 71
6, 72360, Note_on_c, 4, 56, 64
6, 72420, Note_on_c, 4, 56, 0
6, 72420, Note_on_c, 4, 75, 0
6, 72420, Note_on_c, 4, 77, 67
6, 72420, Note_on_c, 4, 61, 56
6, 72480, Note_on_c, 4, 61, 0
6, 72480, Note_on_c, 4, 77, 0
6, 72480, Note_on_c, 4, 80, 73
6, 72480, Note_on_c, 4, 49, 38
6, 72540, Note_on_c, 4, 49, 0
6, 72540, Note_on_c, 4, 51, 64
6, 72600, Note_on_c, 4, 51, 0
6, 72600, Note_on_c, 4, 80, 0
6, 72600, Note_on_c, 4, 78, 50
6, 72600, Note_on_c, 4, 54, 45
6, 72660, Note_on_c, 4, 54, 0
6, 72660, Note_on_c, 4, 60, 44
6, 72720, Note_on_c, 4, 60, 0
6, 72720, Note_on_c, 4, 78, 0
6, 72720, Note_on_c, 4, 78, 43
6, 72720, Note_on_c, 4, 49, 57
6, 72780, Note_on_c, 4, 49, 0
6, 72780, Note_on_c, 4, 78, 0
6, 72780, Note_on_c, 4, 82, 38
6, 72780, Note_on_c, 4, 51, 59
6, 72840, Note_on_c, 4, 51, 0
6, 72840, Note_on_c, 4, 82, 0
6, 72840, Note_on_c, 4, 80, 46
6, 72840, Note_on_c, 4, 54, 64
6, 72900, Note_on_c, 4, 54, 0
6, 72900, Note_on_c, 4, 80, 0
6, 72900, Note_on_c, 4, 78, 43
6, 72900, Note_on_c, 4, 60, 45
6, 72960, Note_on_c, 4, 60, 0
6, 72960, Note_on_c, 4, 78, 0
6, 72960, Note_on_c, 4, 77, 72
6, 72960, Note_on_c, 4, 49, 53
6, 73020, Note_on_c, 4, 49, 0
6, 73020, Note_on_c, 4, 53, 65
6, 73080, Note_on_c, 4, 53, 0
6, 73080, Note_on_c, 4, 77, 0
6, 73080, Note_on_c, 4, 89, 86
6, 73080, Note_on_c, 4, 56, 62
6, 73140, Note_on_c, 4, 56, 0
6, 73140, Note_on_c, 4, 61, 54
6, 73200, Note_on_c, 4, 61, 0
6, 73200, Note_on_c, 4, 47, 64
6, 73260, Note_on_c, 4, 47, 0
6, 73260, Note_on_c, 4, 53, 58
6, 73320, Note_on_c, 4, 53, 0
6, 73320, Note_on_c, 4, 89, 0
6, 73320, Note_on_c, 4, 89, 99
6, 73320, Note_on_c, 4, 57, 61
6, 73380, Note_on_c, 4, 57, 0
6, 73380, Note_on_c, 4, 62, 77
6, 73440, Note_on_c, 4, 62, 0
6, 73440, Note_on_c, 4, 48, 84
6, 73500, Note_on_c, 4, 48, 0
6, 73500, Note_on_c, 4, 89, 0
6, 73500, Note_on_c, 4, 84, 73
6, 73500, Note_on_c, 4, 53, 73
6, 73560, Note_on_c, 4, 53, 0
6, 73560, Note_on_c, 4, 84, 0
6, 73560, Note_on_c, 4, 80, 54
6, 73560, Note_on_c, 4, 56, 52
6, 73620, Note_on_c, 4, 56, 0
6, 73620, Note_on_c, 4, 80, 0
6, 73620, Note_on_c, 4, 77, 69
6, 73620, Note_on_c, 4, 60, 45
6, 73680, Note_on_c, 4, 60, 0
6, 73680, Note_on_c, 4, 77, 0
6, 73680, Note_on_c, 4, 76, 43
6, 73680, Note_on_c, 4, 48, 60
6, 73740, Note_on_c, 4, 48, 0
6, 73740, Note_on_c, 4, 76, 0
6, 73740, Note_on_c, 4, 82, 35
6, 73740, Note_on_c, 4, 52, 45
6, 73800, Note_on_c, 4, 52, 0
6, 73800, Note_on_c, 4, 82, 0
6, 73800, Note_on_c, 4, 79, 42
6, 73800, Note_on_c, 4, 55, 46
6, 73860, Note_on_c, 4, 55, 0
6, 73860, Note_on_c, 4, 79, 0
6, 73860, Note_on_c, 4, 76, 43
6, 73860, Note_on_c, 4, 58, 44
6, 73920, Note_on_c, 4, 58, 0
6, 73920, Note_on_c, 4, 76, 0
6, 73920, Note_on_c, 4, 77, 50
6, 73920, Note_on_c, 4, 49, 40
6, 73980, Note_on_c, 4, 49, 0
6, 73980, Note_on_c, 4, 53, 62
6, 74040, Note_on_c, 4, 53, 0
6, 74040, Note_on_c, 4, 77, 0
6, 74040, Note_on_c, 4, 89, 76
6, 74040, Note_on_c, 4, 56, 63
6, 74100, Note_on_c, 4, 56, 0
6, 74100, Note_on_c, 4, 53, 76
6, 74160, Note_on_c, 4, 53, 0
6, 74160, Note_on_c, 4, 50, 89
6, 74220, Note_on_c, 4, 50, 0
6, 74220, Note_on_c, 4, 53, 89
6, 74280, Note_on_c, 4, 53, 0
6, 74280, Note_on_c, 4, 89, 0
6, 74280, Note_on_c, 4, 89, 93
6, 74280, Note_on_c, 4, 57, 93
6, 74340, Note_on_c, 4, 57, 0
6, 74340, Note_on_c, 4, 59, 78
6, 74400, Note_on_c, 4, 59, 0
6, 74400, Note_on_c, 4, 48, 81
6, 74460, Note_on_c, 4, 48, 0
6, 74460, Note_on_c, 4, 89, 0
6, 74460, Note_on_c, 4, 84, 72
6, 74460, Note_on_c, 4, 53, 77
6, 74520, Note_on_c, 4, 53, 0
6, 74520, Note_on_c, 4, 84, 0
6, 74520, Note_on_c, 4, 81, 73
6, 74520, Note_on_c, 4, 57, 68
6, 74580, Note_on_c, 4, 57, 0
6, 74580, Note_on_c, 4, 81, 0
6, 74580, Note_on_c, 4, 77, 60
6, 74580, Note_on_c, 4, 60, 57
6, 74640, Note_on_c, 4, 60, 0
6, 74640, Note_on_c, 4, 77, 0
6, 74640, Note_on_c, 4, 76, 59
6, 74640, Note_on_c, 4, 48, 44
6, 74700, Note_on_c, 4, 48, 0
6, 74700, Note_on_c, 4, 76, 0
6, 74700, Note_on_c, 4, 82, 45
6, 74700, Note_on_c, 4, 55, 38
6, 74760, Note_on_c, 4, 55, 0
6, 74760, Note_on_c, 4, 82, 0
6, 74760, Note_on_c, 4, 79, 43
6, 74760, Note_on_c, 4, 58, 44
6, 74820, Note_on_c, 4, 58, 0
6, 74820, Note_on_c, 4, 79, 0
6, 74820, Note_on_c, 4, 76, 42
6, 74820, Note_on_c, 4, 55, 43
6, 74880, Note_on_c, 4, 55, 0
6, 74880, Note_on_c, 4, 76, 0
6, 74880, Note_on_c, 4, 77, 61
6, 74880, Note_on_c, 4, 41, 45
6, 74940, Note_on_c, 4, 41, 0
6, 74940, Note_on_c, 4, 53, 40
6, 75000, Note_on_c, 4, 53, 0
6, 75000, Note_on_c, 4, 77, 0
6, 75000, Note_on_c, 4, 41, 52
6, 75060, Note_on_c, 4, 41, 0
6, 75060, Note_on_c, 4, 53, 43
6, 75120, Note_on_c, 4, 53, 0
6, 75120, Note_on_c, 4, 76, 64
6, 75120, Note_on_c, 4, 41, 61
6, 75150, Note_on_c, 4, 76, 0
6, 75150, Note_on_c, 4, 77, 46
6, 75180, Note_on_c, 4, 77, 0
6, 75180, Note_on_c, 4, 41, 0
6, 75180, Note_on_c, 4, 79, 58
6, 75180, Note_on_c, 4, 53, 54
6, 75210, Note_on_c, 4, 79, 0
6, 75210, Note_on_c, 4, 81, 65
6, 75240, Note_on_c, 4, 81, 0
6, 75240, Note_on_c, 4, 53, 0
6, 75240, Note_on_c, 4, 82, 63
6, 75240, Note_on_c, 4, 41, 52
6, 75270, Note_on_c, 4, 82, 0
6, 75270, Note_on_c, 4, 84, 77
6, 75300, Note_on_c, 4, 84, 0
6, 75300, Note_on_c, 4, 41, 0
6, 75300, Note_on_c, 4, 86, 80
6, 75300, Note_on_c, 4, 53, 56
6, 75330, Note_on_c, 4, 86, 0
6, 75330, Note_on_c, 4, 88, 56
6, 75360, Note_on_c, 4, 88, 0
6, 75360, Note_on_c, 4, 53, 0
6, 75360, Note_on_c, 4, 89, 69
6, 75360, Note_on_c, 4, 41, 54
6, 75420, Note_on_c, 4, 41, 0
6, 75420, Note_on_c, 4, 89, 0
6, 75420, Note_on_c, 4, 53, 44
6, 75480, Note_on_c, 4, 53, 0
6, 75480, Note_on_c, 4, 41, 57
6, 75540, Note_on_c, 4, 41, 0
6, 75540, Note_on_c, 4, 53, 59
6, 75600, Note_on_c, 4, 53, 0
6, 75600, Note_on_c, 4, 82, 45
6, 75600, Note_on_c, 4, 41, 53
6, 75630, Note_on_c, 4, 82, 0
6, 75630, Note_on_c, 4, 81, 45
6, 75660, Note_on_c, 4, 81, 0
6, 75660, Note_on_c, 4, 41, 0
6, 75660, Note_on_c, 4, 79, 65
6, 75660, Note_on_c, 4, 53, 43
6, 75690, Note_on_c, 4, 79, 0
6, 75690, Note_on_c, 4, 77, 64
6, 75720, Note_on_c, 4, 77, 0
6, 75720, Note_on_c, 4, 53, 0
6, 75720, Note_on_c, 4, 76, 73
6, 75720, Note_on_c, 4, 41, 67
6, 75750, Note_on_c, 4, 76, 0
6, 75750, Note_on_c, 4, 74, 58
6, 75780, Note_on_c, 4, 74, 0
6, 75780, Note_on_c, 4, 41, 0
6, 75780, Note_on_c, 4, 72, 45
6, 75780, Note_on_c, 4, 53, 44
6, 75810, Note_on_c, 4, 72, 0
6, 75810, Note_on_c, 4, 70, 58
6, 75840, Note_on_c, 4, 70, 0
6, 75840, Note_on_c, 4, 53, 0
6, 75840, Note_on_c, 4, 69, 48
6, 75840, Note_on_c, 4, 41, 64
6, 75900, Note_on_c, 4, 41, 0
6, 75900, Note_on_c, 4, 69, 0
6, 75900, Note_on_c, 4, 53, 43
6, 75960, Note_on_c, 4, 53, 0
6, 75960, Note_on_c, 4, 41, 61
6, 76020, Note_on_c, 4, 41, 0
6, 76020, Note_on_c, 4, 53, 50
6, 76080, Note_on_c, 4, 53, 0
6, 76080, Note_on_c, 4, 76, 64
6, 76080, Note_on_c, 4, 41, 71
6, 76110, Note_on_c, 4, 76, 0
6, 76110, Note_on_c, 4, 77, 73
6, 76140, Note_on_c, 4, 77, 0
6, 76140, Note_on_c, 4, 41, 0
6, 76140, Note_on_c, 4, 79, 73
6, 76140, Note_on_c, 4, 53, 66
6, 76170, Note_on_c, 4, 79, 0
6, 76170, Note_on_c, 4, 81, 81
6, 76200, Note_on_c, 4, 81, 0
6, 76200, Note_on_c, 4, 53, 0
6, 76200, Note_on_c, 4, 82, 80
6, 76200, Note_on_c, 4, 41, 84
6, 76230, Note_on_c, 4, 82, 0
6, 76230, Note_on_c, 4, 84, 77
6, 76260, Note_on_c, 4, 84, 0
6, 76260, Note_on_c, 4, 41, 0
6, 76260, Note_on_c, 4, 86, 89
6, 76260, Note_on_c, 4, 53, 74
6, 76290, Note_on_c, 4, 86, 0
6, 76290, Note_on_c, 4, 88, 84
6, 76320, Note_on_c, 4, 88, 0
6, 76320, Note_on_c, 4, 53, 0
6, 76320, Note_on_c, 4, 89, 95
6, 76320, Note_on_c, 4, 41, 93
6, 76350, Note_on_c, 4, 89, 0
6, 76350, Note_on_c, 4, 88, 95
6, 76380, Note_on_c, 4, 88, 0
6, 76380, Note_on_c, 4, 41, 0
6, 76380, Note_on_c, 4, 86, 90
6, 76380, Note_on_c, 4, 53, 78
6, 76410, Note_on_c, 4, 86, 0
6, 76410, Note_on_c, 4, 84, 86
6, 76440, Note_on_c, 4, 84, 0
6, 76440, Note_on_c, 4, 53, 0
6, 76440, Note_on_c, 4, 82, 89
6, 76440, Note_on_c, 4, 41, 89
6, 76470, Note_on_c, 4, 82, 0
6, 76470, Note_on_c, 4, 81, 94
6, 76500, Note_on_c, 4, 81, 0
6, 76500, Note_on_c, 4, 41, 0
6, 76500, Note_on_c, 4, 79, 86
6, 76500, Note_on_c, 4, 53, 81
6, 76530, Note_on_c, 4, 79, 0
6, 76530, Note_on_c, 4, 77, 86
6, 76560, Note_on_c, 4, 77, 0
6, 76560, Note_on_c, 4, 53, 0
6, 76560, Note_on_c, 4, 76, 89
6, 76560, Note_on_c, 4, 41, 94
6, 76590, Note_on_c, 4, 76, 0
6, 76590, Note_on_c, 4, 77, 89
6, 76620, Note_on_c, 4, 77, 0
6, 76620, Note_on_c, 4, 41, 0
6, 76620, Note_on_c, 4, 79, 95
6, 76620, Note_on_c, 4, 53, 81
6, 76650, Note_on_c, 4, 79, 0
6, 76650, Note_on_c, 4, 81, 95
6, 76680, Note_on_c, 4, 81, 0
6, 76680, Note_on_c, 4, 53, 0
6, 76680, Note_on_c, 4, 82, 93
6, 76680, Note_on_c, 4, 41, 94
6, 76710, Note_on_c, 4, 82, 0
6, 76710, Note_on_c, 4, 84, 94
6, 76740, Note_on_c, 4, 84, 0
6, 76740, Note_on_c, 4, 41, 0
6, 76740, Note_on_c, 4, 86, 95
6, 76740, Note_on_c, 4, 53, 85
6, 76770, Note_on_c, 4, 86, 0
6, 76770, Note_on_c, 4, 88, 99
6, 76800, Note_on_c, 4, 88, 0
6, 76800, Note_on_c, 4, 53, 0
6, 76800, Note_on_c, 4, 89, 104
6, 76800, Note_on_c, 4, 65, 98
6, 76800, Note_on_c, 4, 53, 94
6, 76830, Note_on_c, 4, 89, 0
6, 76830, Note_on_c, 4, 88, 105
6, 76860, Note_on_c, 4, 88, 0
6, 76860, Note_on_c, 4, 86, 107
6, 76890, Note_on_c, 4, 86, 0
6, 76890, Note_on_c, 4, 84, 95
6, 76920, Note_on_c, 4, 84, 0
6, 76920, Note_on_c, 4, 82, 101
6, 76950, Note_on_c, 4, 82, 0
6, 76950, Note_on_c, 4, 81, 104
6, 76980, Note_on_c, 4, 81, 0
6, 76980, Note_on_c, 4, 79, 94
6, 77010, Note_on_c, 4, 79, 0
6, 77010, Note_on_c, 4, 77, 98
6, 77040, Note_on_c, 4, 77, 0
6, 77040, Note_on_c, 4, 53, 0
6, 77040, Note_on_c, 4, 65, 0
6, 77040, Note_on_c, 4, 76, 107
6, 77040, Note_on_c, 4, 61, 80
6, 77040, Note_on_c, 4, 49, 94
6, 77070, Note_on_c, 4, 76, 0
6, 77070, Note_on_c, 4, 69, 99
6, 77100, Note_on_c, 4, 69, 0
6, 77100, Note_on_c, 4, 73, 94
6, 77130, Note_on_c, 4, 73, 0
6, 77130, Note_on_c, 4, 76, 105
6, 77160, Note_on_c, 4, 76, 0
6, 77160, Note_on_c, 4, 81, 105
6, 77190, Note_on_c, 4, 81, 0
6, 77190, Note_on_c, 4, 79, 98
6, 77220, Note_on_c, 4, 79, 0
6, 77220, Note_on_c, 4, 77, 98
6, 77250, Note_on_c, 4, 77, 0
6, 77250, Note_on_c, 4, 76, 104
6, 77280, Note_on_c, 4, 76, 0
6, 77280, Note_on_c, 4, 49, 0
6, 77280, Note_on_c, 4, 61, 0
6, 77280, Note_on_c, 4, 77, 94
6, 77280, Note_on_c, 4, 62, 86
6, 77280, Note_on_c, 4, 50, 98
6, 77310, Note_on_c, 4, 77, 0
6, 77310, Note_on_c, 4, 79, 99
6, 77340, Note_on_c, 4, 79, 0
6, 77340, Note_on_c, 4, 81, 105
6, 77370, Note_on_c, 4, 81, 0
6, 77370, Note_on_c, 4, 79, 99
6, 77400, Note_on_c, 4, 79, 0
6, 77400, Note_on_c, 4, 50, 0
6, 77400, Note_on_c, 4, 62, 0
6, 77400, Note_on_c, 4, 77, 94
6, 77430, Note_on_c, 4, 77, 0
6, 77430, Note_on_c, 4, 80, 99
6, 77460, Note_on_c, 4, 80, 0
6, 77460, Note_on_c, 4, 79, 101
6, 77490, Note_on_c, 4, 79, 0
6, 77490, Note_on_c, 4, 77, 93
6, 77490, Note_on_c, 4, 71, 105
6, 77505, Note_on_c, 4, 71, 0
6, 77520, Note_on_c, 4, 77, 0
6, 77520, Note_on_c, 4, 76, 99
6, 77520, Note_on_c, 4, 72, 86
6, 77550, Note_on_c, 4, 76, 0
6, 77550, Note_on_c, 4, 79, 104
6, 77580, Note_on_c, 4, 79, 0
6, 77580, Note_on_c, 4, 72, 0
6, 77580, Note_on_c, 4, 77, 94
6, 77610, Note_on_c, 4, 77, 0
6, 77610, Note_on_c, 4, 76, 99
6, 77640, Note_on_c, 4, 76, 0
6, 77640, Note_on_c, 4, 75, 104
6, 77640, Note_on_c, 4, 69, 104
6, 77670, Note_on_c, 4, 75, 0
6, 77670, Note_on_c, 4, 78, 95
6, 77700, Note_on_c, 4, 78, 0
6, 77700, Note_on_c, 4, 69, 0
6, 77700, Note_on_c, 4, 77, 104
6, 77730, Note_on_c, 4, 77, 0
6, 77730, Note_on_c, 4, 75, 99
6, 77760, Note_on_c, 4, 75, 0
6, 77760, Note_on_c, 4, 74, 99
6, 77760, Note_on_c, 4, 70, 99
6, 77790, Note_on_c, 4, 74, 0
6, 77790, Note_on_c, 4, 75, 105
6, 77820, Note_on_c, 4, 75, 0
6, 77820, Note_on_c, 4, 70, 0
6, 77820, Note_on_c, 4, 77, 99
6, 77850, Note_on_c, 4, 77, 0
6, 77850, Note_on_c, 4, 75, 99
6, 77880, Note_on_c, 4, 75, 0
6, 77880, Note_on_c, 4, 74, 95
6, 77910, Note_on_c, 4, 74, 0
6, 77910, Note_on_c, 4, 77, 99
6, 77940, Note_on_c, 4, 77, 0
6, 77940, Note_on_c, 4, 76, 95
6, 77970, Note_on_c, 4, 76, 0
6, 77970, Note_on_c, 4, 74, 99
6, 77970, Note_on_c, 4, 68, 99
6, 77985, Note_on_c, 4, 68, 0
6, 78000, Note_on_c, 4, 74, 0
6, 78000, Note_on_c, 4, 73, 93
6, 78000, Note_on_c, 4, 69, 101
6, 78030, Note_on_c, 4, 73, 0
6, 78030, Note_on_c, 4, 76, 101
6, 78060, Note_on_c, 4, 76, 0
6, 78060, Note_on_c, 4, 69, 0
6, 78060, Note_on_c, 4, 74, 104
6, 78090, Note_on_c, 4, 74, 0
6, 78090, Note_on_c, 4, 73, 93
6, 78120, Note_on_c, 4, 73, 0
6, 78120, Note_on_c, 4, 72, 80
6, 78120, Note_on_c, 4, 66, 99
6, 78150, Note_on_c, 4, 72, 0
6, 78150, Note_on_c, 4, 75, 99
6, 78180, Note_on_c, 4, 75, 0
6, 78180, Note_on_c, 4, 66, 0
6, 78180, Note_on_c, 4, 74, 105
6, 78210, Note_on_c, 4, 74, 0
6, 78210, Note_on_c, 4, 72, 78
6, 78240, Note_on_c, 4, 72, 0
6, 78240, Note_on_c, 4, 71, 94
6, 78240, Note_on_c, 4, 67, 99
6, 78270, Note_on_c, 4, 71, 0
6, 78270, Note_on_c, 4, 72, 84
6, 78300, Note_on_c, 4, 72, 0
6, 78300, Note_on_c, 4, 67, 0
6, 78300, Note_on_c, 4, 74, 110
6, 78330, Note_on_c, 4, 74, 0
6, 78330, Note_on_c, 4, 72, 78
6, 78360, Note_on_c, 4, 72, 0
6, 78360, Note_on_c, 4, 70, 99
6, 78390, Note_on_c, 4, 70, 0
6, 78390, Note_on_c, 4, 74, 105
6, 78420, Note_on_c, 4, 74, 0
6, 78420, Note_on_c, 4, 72, 80
6, 78450, Note_on_c, 4, 72, 0
6, 78450, Note_on_c, 4, 70, 99
6, 78450, Note_on_c, 4, 64, 99
6, 78465, Note_on_c, 4, 64, 0
6, 78480, Note_on_c, 4, 70, 0
6, 78480, Note_on_c, 4, 69, 95
6, 78480, Note_on_c, 4, 65, 105
6, 78510, Note_on_c, 4, 69, 0
6, 78510, Note_on_c, 4, 70, 99
6, 78540, Note_on_c, 4, 70, 0
6, 78540, Note_on_c, 4, 65, 0
6, 78540, Note_on_c, 4, 72, 80
6, 78570, Note_on_c, 4, 72, 0
6, 78570, Note_on_c, 4, 70, 94
6, 78600, Note_on_c, 4, 70, 0
6, 78600, Note_on_c, 4, 69, 104
6, 78630, Note_on_c, 4, 69, 0
6, 78630, Note_on_c, 4, 72, 82
6, 78660, Note_on_c, 4, 72, 0
6, 78660, Note_on_c, 4, 70, 95
6, 78690, Note_on_c, 4, 70, 0
6, 78690, Note_on_c, 4, 69, 104
6, 78690, Note_on_c, 4, 62, 99
6, 78705, Note_on_c, 4, 62, 0
6, 78720, Note_on_c, 4, 69, 0
6, 78720, Note_on_c, 4, 67, 94
6, 78720, Note_on_c, 4, 64, 105
6, 78750, Note_on_c, 4, 67, 0
6, 78750, Note_on_c, 4, 69, 104
6, 78780, Note_on_c, 4, 69, 0
6, 78780, Note_on_c, 4, 64, 0
6, 78780, Note_on_c, 4, 70, 98
6, 78810, Note_on_c, 4, 70, 0
6, 78810, Note_on_c, 4, 69, 101
6, 78840, Note_on_c, 4, 69, 0
6, 78840, Note_on_c, 4, 67, 89
6, 78870, Note_on_c, 4, 67, 0
6, 78870, Note_on_c, 4, 70, 99
6, 78900, Note_on_c, 4, 70, 0
6, 78900, Note_on_c, 4, 69, 99
6, 78930, Note_on_c, 4, 69, 0
6, 78930, Note_on_c, 4, 67, 86
6, 78930, Note_on_c, 4, 61, 93
6, 78945, Note_on_c, 4, 61, 0
6, 78960, Note_on_c, 4, 67, 0
6, 78960, Note_on_c, 4, 65, 95
6, 78960, Note_on_c, 4, 62, 99
6, 78990, Note_on_c, 4, 62, 0
6, 78990, Note_on_c, 4, 65, 0
6, 78990, Note_on_c, 4, 68, 99
6, 79020, Note_on_c, 4, 68, 0
6, 79020, Note_on_c, 4, 67, 101
6, 79020, Note_on_c, 4, 59, 104
6, 79050, Note_on_c, 4, 59, 0
6, 79050, Note_on_c, 4, 67, 0
6, 79050, Note_on_c, 4, 65, 94
6, 79080, Note_on_c, 4, 65, 0
6, 79080, Note_on_c, 4, 64, 90
6, 79080, Note_on_c, 4, 60, 99
6, 79110, Note_on_c, 4, 60, 0
6, 79110, Note_on_c, 4, 64, 0
6, 79110, Note_on_c, 4, 67, 98
6, 79140, Note_on_c, 4, 67, 0
6, 79140, Note_on_c, 4, 65, 99
6, 79140, Note_on_c, 4, 57, 110
6, 79170, Note_on_c, 4, 57, 0
6, 79170, Note_on_c, 4, 65, 0
6, 79170, Note_on_c, 4, 63, 99
6, 79200, Note_on_c, 4, 63, 0
6, 79200, Note_on_c, 4, 62, 94
6, 79200, Note_on_c, 4, 58, 93
6, 79230, Note_on_c, 4, 58, 0
6, 79230, Note_on_c, 4, 62, 0
6, 79230, Note_on_c, 4, 65, 105
6, 79260, Note_on_c, 4, 65, 0
6, 79260, Note_on_c, 4, 64, 101
6, 79260, Note_on_c, 4, 56, 95
6, 79290, Note_on_c, 4, 56, 0
6, 79290, Note_on_c, 4, 64, 0
6, 79290, Note_on_c, 4, 62, 95
6, 79320, Note_on_c, 4, 62, 0
6, 79320, Note_on_c, 4, 60, 89
6, 79320, Note_on_c, 4, 57, 105
6, 79350, Note_on_c, 4, 57, 0
6, 79350, Note_on_c, 4, 60, 0
6, 79350, Note_on_c, 4, 63, 95
6, 79380, Note_on_c, 4, 63, 0
6, 79380, Note_on_c, 4, 62, 98
6, 79380, Note_on_c, 4, 54, 95
6, 79410, Note_on_c, 4, 54, 0
6, 79410, Note_on_c, 4, 62, 0
6, 79410, Note_on_c, 4, 60, 90
6, 79440, Note_on_c, 4, 60, 0
6, 79440, Note_on_c, 4, 59, 95
6, 79440, Note_on_c, 4, 55, 95
6, 79470, Note_on_c, 4, 55, 0
6, 79470, Note_on_c, 4, 59, 0
6, 79470, Note_on_c, 4, 62, 98
6, 79500, Note_on_c, 4, 62, 0
6, 79500, Note_on_c, 4, 60, 101
6, 79500, Note_on_c, 4, 52, 105
6, 79530, Note_on_c, 4, 52, 0
6, 79530, Note_on_c, 4, 60, 0
6, 79530, Note_on_c, 4, 58, 98
6, 79560, Note_on_c, 4, 58, 0
6, 79560, Note_on_c, 4, 57, 105
6, 79560, Note_on_c, 4, 53, 89
6, 79590, Note_on_c, 4, 53, 0
6, 79590, Note_on_c, 4, 57, 0
6, 79590, Note_on_c, 4, 65, 101
6, 79620, Note_on_c, 4, 65, 0
6, 79620, Note_on_c, 4, 59, 99
6, 79620, Note_on_c, 4, 50, 107
6, 79650, Note_on_c, 4, 50, 0
6, 79650, Note_on_c, 4, 59, 0
6, 79650, Note_on_c, 4, 65, 105
6, 79680, Note_on_c, 4, 65, 0
6, 79680, Note_on_c, 4, 64, 101
6, 79680, Note_on_c, 4, 48, 99
6, 79710, Note_on_c, 4, 64, 0
6, 79710, Note_on_c, 4, 67, 89
6, 79740, Note_on_c, 4, 67, 0
6, 79740, Note_on_c, 4, 65, 94
6, 79770, Note_on_c, 4, 65, 0
6, 79770, Note_on_c, 4, 64, 89
6, 79800, Note_on_c, 4, 64, 0
6, 79800, Note_on_c, 4, 48, 0
6, 79800, Note_on_c, 4, 62, 94
6, 79830, Note_on_c, 4, 62, 0
6, 79830, Note_on_c, 4, 60, 95
6, 79860, Note_on_c, 4, 60, 0
6, 79860, Note_on_c, 4, 58, 90
6, 79890, Note_on_c, 4, 58, 0
6, 79890, Note_on_c, 4, 57, 105
6, 79920, Note_on_c, 4, 57, 0
6, 79920, Note_on_c, 4, 55, 89
6, 79950, Note_on_c, 4, 55, 0
6, 79950, Note_on_c, 4, 53, 89
6, 79980, Note_on_c, 4, 53, 0
6, 79980, Note_on_c, 4, 52, 101
6, 80010, Note_on_c, 4, 52, 0
6, 80010, Note_on_c, 4, 50, 94
6, 80040, Note_on_c, 4, 50, 0
6, 80040, Note_on_c, 4, 48, 84
6, 80070, Note_on_c, 4, 48, 0
6, 80070, Note_on_c, 4, 47, 95
6, 80100, Note_on_c, 4, 47, 0
6, 80100, Note_on_c, 4, 45, 95
6, 80130, Note_on_c, 4, 45, 0
6, 80130, Note_on_c, 4, 43, 90
6, 80160, Note_on_c, 4, 43, 0
6, 80160, Note_on_c, 4, 53, 89
6, 80160, Note_on_c, 4, 41, 95
6, 80190, Note_on_c, 4, 41, 0
6, 80190, Note_on_c, 4, 53, 0
6, 80190, Note_on_c, 4, 55, 94
6, 80190, Note_on_c, 4, 43, 93
6, 80220, Note_on_c, 4, 43, 0
6, 80220, Note_on_c, 4, 55, 0
6, 80220, Note_on_c, 4, 57, 104
6, 80220, Note_on_c, 4, 45, 99
6, 80250, Note_on_c, 4, 45, 0
6, 80250, Note_on_c, 4, 57, 0
6, 80250, Note_on_c, 4, 58, 93
6, 80250, Note_on_c, 4, 46, 94
6, 80280, Note_on_c, 4, 46, 0
6, 80280, Note_on_c, 4, 58, 0
6, 80280, Note_on_c, 4, 60, 98
6, 80280, Note_on_c, 4, 48, 98
6, 80310, Note_on_c, 4, 48, 0
6, 80310, Note_on_c, 4, 60, 0
6, 80310, Note_on_c, 4, 62, 99
6, 80310, Note_on_c, 4, 50, 95
6, 80340, Note_on_c, 4, 50, 0
6, 80340, Note_on_c, 4, 62, 0
6, 80340, Note_on_c, 4, 64, 101
6, 80340, Note_on_c, 4, 52, 99
6, 80370, Note_on_c, 4, 52, 0
6, 80370, Note_on_c, 4, 64, 0
6, 80370, Note_on_c, 4, 65, 99
6, 80370, Note_on_c, 4, 53, 94
6, 80400, Note_on_c, 4, 53, 0
6, 80400, Note_on_c, 4, 65, 0
6, 80400, Note_on_c, 4, 57, 98
6, 80400, Note_on_c, 4, 45, 95
6, 80430, Note_on_c, 4, 45, 0
6, 80430, Note_on_c, 4, 57, 0
6, 80430, Note_on_c, 4, 59, 99
6, 80430, Note_on_c, 4, 47, 94
6, 80460, Note_on_c, 4, 47, 0
6, 80460, Note_on_c, 4, 59, 0
6, 80460, Note_on_c, 4, 61, 89
6, 80460, Note_on_c, 4, 49, 90
6, 80490, Note_on_c, 4, 49, 0
6, 80490, Note_on_c, 4, 61, 0
6, 80490, Note_on_c, 4, 62, 89
6, 80490, Note_on_c, 4, 50, 104
6, 80520, Note_on_c, 4, 50, 0
6, 80520, Note_on_c, 4, 62, 0
6, 80520, Note_on_c, 4, 64, 95
6, 80520, Note_on_c, 4, 52, 99
6, 80550, Note_on_c, 4, 52, 0
6, 80550, Note_on_c, 4, 64, 0
6, 80550, Note_on_c, 4, 65, 104
6, 80550, Note_on_c, 4, 53, 84
6, 80580, Note_on_c, 4, 53, 0
6, 80580, Note_on_c, 4, 65, 0
6, 80580, Note_on_c, 4, 67, 90
6, 80580, Note_on_c, 4, 55, 94
6, 80610, Note_on_c, 4, 55, 0
6, 80610, Note_on_c, 4, 67, 0
6, 80610, Note_on_c, 4, 69, 101
6, 80610, Note_on_c, 4, 57, 105
6, 80640, Note_on_c, 4, 57, 0
6, 80640, Note_on_c, 4, 69, 0
6, 80640, Note_on_c, 4, 62, 98
6, 80640, Note_on_c, 4, 50, 105
6, 80670, Note_on_c, 4, 50, 0
6, 80670, Note_on_c, 4, 52, 99
6, 80700, Note_on_c, 4, 52, 0
6, 80700, Note_on_c, 4, 53, 94
6, 80730, Note_on_c, 4, 53, 0
6, 80730, Note_on_c, 4, 55, 95
6, 80760, Note_on_c, 4, 55, 0
6, 80760, Note_on_c, 4, 62, 0
6, 80760, Note_on_c, 4, 57, 98
6, 80790, Note_on_c, 4, 57, 0
6, 80790, Note_on_c, 4, 59, 99
6, 80820, Note_on_c, 4, 59, 0
6, 80820, Note_on_c, 4, 61, 89
6, 80850, Note_on_c, 4, 61, 0
6, 80850, Note_on_c, 4, 83, 98
6, 80850, Note_on_c, 4, 71, 104
6, 80850, Note_on_c, 4, 62, 99
6, 80865, Note_on_c, 4, 71, 0
6, 80865, Note_on_c, 4, 83, 0
6, 80880, Note_on_c, 4, 62, 0
6, 80880, Note_on_c, 4, 84, 94
6, 80880, Note_on_c, 4, 72, 80
6, 80880, Note_on_c, 4, 64, 95
6, 80910, Note_on_c, 4, 64, 0
6, 80910, Note_on_c, 4, 67, 86
6, 80940, Note_on_c, 4, 67, 0
6, 80940, Note_on_c, 4, 72, 0
6, 80940, Note_on_c, 4, 84, 0
6, 80940, Note_on_c, 4, 65, 101
6, 80970, Note_on_c, 4, 65, 0
6, 80970, Note_on_c, 4, 64, 101
6, 81000, Note_on_c, 4, 64, 0
6, 81000, Note_on_c, 4, 81, 94
6, 81000, Note_on_c, 4, 69, 99
6, 81000, Note_on_c, 4, 63, 95
6, 81030, Note_on_c, 4, 63, 0
6, 81030, Note_on_c, 4, 66, 94
6, 81060, Note_on_c, 4, 66, 0
6, 81060, Note_on_c, 4, 69, 0
6, 81060, Note_on_c, 4, 81, 0
6, 81060, Note_on_c, 4, 65, 94
6, 81090, Note_on_c, 4, 65, 0
6, 81090, Note_on_c, 4, 63, 95
6, 81120, Note_on_c, 4, 63, 0
6, 81120, Note_on_c, 4, 82, 85
6, 81120, Note_on_c, 4, 70, 98
6, 81120, Note_on_c, 4, 62, 101
6, 81150, Note_on_c, 4, 62, 0
6, 81150, Note_on_c, 4, 64, 101
6, 81180, Note_on_c, 4, 64, 0
6, 81180, Note_on_c, 4, 70, 0
6, 81180, Note_on_c, 4, 82, 0
6, 81180, Note_on_c, 4, 65, 94
6, 81210, Note_on_c, 4, 65, 0
6, 81210, Note_on_c, 4, 67, 95
6, 81240, Note_on_c, 4, 67, 0
6, 81240, Note_on_c, 4, 69, 104
6, 81270, Note_on_c, 4, 69, 0
6, 81270, Note_on_c, 4, 71, 101
6, 81300, Note_on_c, 4, 71, 0
6, 81300, Note_on_c, 4, 73, 94
6, 81330, Note_on_c, 4, 73, 0
6, 81330, Note_on_c, 4, 80, 101
6, 81330, Note_on_c, 4, 74, 110
6, 81345, Note_on_c, 4, 80, 0
6, 81360, Note_on_c, 4, 74, 0
6, 81360, Note_on_c, 4, 81, 99
6, 81360, Note_on_c, 4, 73, 94
6, 81390, Note_on_c, 4, 73, 0
6, 81390, Note_on_c, 4, 76, 105
6, 81420, Note_on_c, 4, 76, 0
6, 81420, Note_on_c, 4, 81, 0
6, 81420, Note_on_c, 4, 74, 105
6, 81450, Note_on_c, 4, 74, 0
6, 81450, Note_on_c, 4, 73, 94
6, 81480, Note_on_c, 4, 73, 0
6, 81480, Note_on_c, 4, 78, 95
6, 81480, Note_on_c, 4, 72, 99
6, 81510, Note_on_c, 4, 72, 0
6, 81510, Note_on_c, 4, 75, 104
6, 81540, Note_on_c, 4, 75, 0
6, 81540, Note_on_c, 4, 78, 0
6, 81540, Note_on_c, 4, 74, 105
6, 81570, Note_on_c, 4, 74, 0
6, 81570, Note_on_c, 4, 72, 95
6, 81600, Note_on_c, 4, 72, 0
6, 81600, Note_on_c, 4, 79, 95
6, 81600, Note_on_c, 4, 71, 99
6, 81630, Note_on_c, 4, 71, 0
6, 81630, Note_on_c, 4, 72, 89
6, 81660, Note_on_c, 4, 72, 0
6, 81660, Note_on_c, 4, 79, 0
6, 81660, Note_on_c, 4, 71, 99
6, 81690, Note_on_c, 4, 71, 0
6, 81690, Note_on_c, 4, 69, 86
6, 81720, Note_on_c, 4, 69, 0
6, 81720, Note_on_c, 4, 70, 94
6, 81750, Note_on_c, 4, 70, 0
6, 81750, Note_on_c, 4, 74, 98
6, 81780, Note_on_c, 4, 74, 0
6, 81780, Note_on_c, 4, 72, 89
6, 81810, Note_on_c, 4, 72, 0
6, 81810, Note_on_c, 4, 88, 94
6, 81810, Note_on_c, 4, 76, 98
6, 81810, Note_on_c, 4, 70, 89
6, 81825, Note_on_c, 4, 76, 0
6, 81825, Note_on_c, 4, 88, 0
6, 81840, Note_on_c, 4, 70, 0
6, 81840, Note_on_c, 4, 89, 95
6, 81840, Note_on_c, 4, 77, 81
6, 81840, Note_on_c, 4, 69, 98
6, 81870, Note_on_c, 4, 69, 0
6, 81870, Note_on_c, 4, 70, 95
6, 81900, Note_on_c, 4, 70, 0
6, 81900, Note_on_c, 4, 77, 0
6, 81900, Note_on_c, 4, 89, 0
6, 81900, Note_on_c, 4, 69, 99
6, 81930, Note_on_c, 4, 69, 0
6, 81930, Note_on_c, 4, 68, 93
6, 81960, Note_on_c, 4, 68, 0
6, 81960, Note_on_c, 4, 69, 104
6, 81990, Note_on_c, 4, 69, 0
6, 81990, Note_on_c, 4, 72, 80
6, 82020, Note_on_c, 4, 72, 0
6, 82020, Note_on_c, 4, 71, 101
6, 82050, Note_on_c, 4, 71, 0
6, 82050, Note_on_c, 4, 87, 90
6, 82050, Note_on_c, 4, 75, 99
6, 82050, Note_on_c, 4, 69, 101
6, 82065, Note_on_c, 4, 75, 0
6, 82065, Note_on_c, 4, 87, 0
6, 82080, Note_on_c, 4, 69, 0
6, 82080, Note_on_c, 4, 88, 99
6, 82080, Note_on_c, 4, 76, 99
6, 82080, Note_on_c, 4, 67, 95
6, 82110, Note_on_c, 4, 67, 0
6, 82110, Note_on_c, 4, 69, 99
6, 82140, Note_on_c, 4, 69, 0
6, 82140, Note_on_c, 4, 76, 0
6, 82140, Note_on_c, 4, 88, 0
6, 82140, Note_on_c, 4, 67, 98
6, 82170, Note_on_c, 4, 67, 0
6, 82170, Note_on_c, 4, 66, 94
6, 82200, Note_on_c, 4, 66, 0
6, 82200, Note_on_c, 4, 67, 95
6, 82230, Note_on_c, 4, 67, 0
6, 82230, Note_on_c, 4, 70, 99
6, 82260, Note_on_c, 4, 70, 0
6, 82260, Note_on_c, 4, 69, 104
6, 82290, Note_on_c, 4, 69, 0
6, 82290, Note_on_c, 4, 85, 80
6, 82290, Note_on_c, 4, 73, 94
6, 82290, Note_on_c, 4, 67, 89
6, 82305, Note_on_c, 4, 73, 0
6, 82305, Note_on_c, 4, 85, 0
6, 82320, Note_on_c, 4, 67, 0
6, 82320, Note_on_c, 4, 86, 104
6, 82320, Note_on_c, 4, 74, 105
6, 82320, Note_on_c, 4, 65, 99
6, 82350, Note_on_c, 4, 65, 0
6, 82350, Note_on_c, 4, 74, 0
6, 82350, Note_on_c, 4, 86, 0
6, 82350, Note_on_c, 4, 68, 95
6, 82380, Note_on_c, 4, 68, 0
6, 82380, Note_on_c, 4, 83, 89
6, 82380, Note_on_c, 4, 71, 99
6, 82380, Note_on_c, 4, 67, 94
6, 82410, Note_on_c, 4, 67, 0
6, 82410, Note_on_c, 4, 71, 0
6, 82410, Note_on_c, 4, 83, 0
6, 82410, Note_on_c, 4, 65, 98
6, 82440, Note_on_c, 4, 65, 0
6, 82440, Note_on_c, 4, 84, 89
6, 82440, Note_on_c, 4, 72, 72
6, 82440, Note_on_c, 4, 64, 99
6, 82470, Note_on_c, 4, 64, 0
6, 82470, Note_on_c, 4, 72, 0
6, 82470, Note_on_c, 4, 84, 0
6, 82470, Note_on_c, 4, 67, 93
6, 82500, Note_on_c, 4, 67, 0
6, 82500, Note_on_c, 4, 81, 89
6, 82500, Note_on_c, 4, 69, 99
6, 82500, Note_on_c, 4, 65, 101
6, 82530, Note_on_c, 4, 65, 0
6, 82530, Note_on_c, 4, 69, 0
6, 82530, Note_on_c, 4, 81, 0
6, 82530, Note_on_c, 4, 63, 89
6, 82560, Note_on_c, 4, 63, 0
6, 82560, Note_on_c, 4, 82, 85
6, 82560, Note_on_c, 4, 70, 98
6, 82560, Note_on_c, 4, 62, 99
6, 82590, Note_on_c, 4, 62, 0
6, 82590, Note_on_c, 4, 70, 0
6, 82590, Note_on_c, 4, 82, 0
6, 82590, Note_on_c, 4, 65, 95
6, 82620, Note_on_c, 4, 65, 0
6, 82620, Note_on_c, 4, 80, 93
6, 82620, Note_on_c, 4, 68, 99
6, 82620, Note_on_c, 4, 64, 99
6, 82650, Note_on_c, 4, 64, 0
6, 82650, Note_on_c, 4, 68, 0
6, 82650, Note_on_c, 4, 80, 0
6, 82650, Note_on_c, 4, 62, 95
6, 82680, Note_on_c, 4, 62, 0
6, 82680, Note_on_c, 4, 81, 94
6, 82680, Note_on_c, 4, 69, 99
6, 82680, Note_on_c, 4, 60, 94
6, 82710, Note_on_c, 4, 60, 0
6, 82710, Note_on_c, 4, 69, 0
6, 82710, Note_on_c, 4, 81, 0
6, 82710, Note_on_c, 4, 63, 93
6, 82740, Note_on_c, 4, 63, 0
6, 82740, Note_on_c, 4, 78, 86
6, 82740, Note_on_c, 4, 66, 95
6, 82740, Note_on_c, 4, 62, 93
6, 82770, Note_on_c, 4, 62, 0
6, 82770, Note_on_c, 4, 66, 0
6, 82770, Note_on_c, 4, 78, 0
6, 82770, Note_on_c, 4, 60, 99
6, 82800, Note_on_c, 4, 60, 0
6, 82800, Note_on_c, 4, 79, 94
6, 82800, Note_on_c, 4, 67, 94
6, 82800, Note_on_c, 4, 59, 99
6, 82830, Note_on_c, 4, 59, 0
6, 82830, Note_on_c, 4, 67, 0
6, 82830, Note_on_c, 4, 79, 0
6, 82830, Note_on_c, 4, 62, 94
6, 82860, Note_on_c, 4, 62, 0
6, 82860, Note_on_c, 4, 76, 99
6, 82860, Note_on_c, 4, 64, 104
6, 82860, Note_on_c, 4, 60, 99
6, 82890, Note_on_c, 4, 60, 0
6, 82890, Note_on_c, 4, 64, 0
6, 82890, Note_on_c, 4, 76, 0
6, 82890, Note_on_c, 4, 58, 89
6, 82920, Note_on_c, 4, 58, 0
6, 82920, Note_on_c, 4, 77, 90
6, 82920, Note_on_c, 4, 65, 101
6, 82920, Note_on_c, 4, 57, 105
6, 82950, Note_on_c, 4, 57, 0
6, 82950, Note_on_c, 4, 65, 0
6, 82950, Note_on_c, 4, 77, 0
6, 82950, Note_on_c, 4, 60, 95
6, 82980, Note_on_c, 4, 60, 0
6, 82980, Note_on_c, 4, 72, 94
6, 82980, Note_on_c, 4, 58, 89
6, 83010, Note_on_c, 4, 58, 0
6, 83010, Note_on_c, 4, 72, 0
6, 83010, Note_on_c, 4, 57, 104
6, 83040, Note_on_c, 4, 57, 0
6, 83040, Note_on_c, 4, 55, 85
6, 83040, Note_on_c, 4, 53, 89
6, 83040, Note_on_c, 4, 47, 84
6, 83070, Note_on_c, 4, 77, 99
6, 83100, Note_on_c, 4, 77, 0
6, 83100, Note_on_c, 4, 55, 0
6, 83100, Note_on_c, 4, 53, 0
6, 83100, Note_on_c, 4, 47, 0
6, 83100, Note_on_c, 4, 76, 104
6, 83130, Note_on_c, 4, 76, 0
6, 83130, Note_on_c, 4, 77, 99
6, 83160, Note_on_c, 4, 77, 0
6, 83160, Note_on_c, 4, 79, 99
6, 83160, Note_on_c, 4, 55, 86
6, 83160, Note_on_c, 4, 53, 95
6, 83160, Note_on_c, 4, 47, 99
6, 83190, Note_on_c, 4, 79, 0
6, 83190, Note_on_c, 4, 77, 94
6, 83220, Note_on_c, 4, 77, 0
6, 83220, Note_on_c, 4, 47, 0
6, 83220, Note_on_c, 4, 53, 0
6, 83220, Note_on_c, 4, 55, 0
6, 83220, Note_on_c, 4, 76, 99
6, 83250, Note_on_c, 4, 76, 0
6, 83250, Note_on_c, 4, 77, 94
6, 83280, Note_on_c, 4, 77, 0
6, 83280, Note_on_c, 4, 81, 105
6, 83310, Note_on_c, 4, 81, 0
6, 83310, Note_on_c, 4, 77, 95
6, 83340, Note_on_c, 4, 77, 0
6, 83340, Note_on_c, 4, 76, 101
6, 83370, Note_on_c, 4, 76, 0
6, 83370, Note_on_c, 4, 77, 101
6, 83400, Note_on_c, 4, 77, 0
6, 83400, Note_on_c, 4, 69, 90
6, 83400, Note_on_c, 4, 57, 98
6, 83400, Note_on_c, 4, 53, 93
6, 83400, Note_on_c, 4, 48, 99
6, 83430, Note_on_c, 4, 69, 0
6, 83430, Note_on_c, 4, 77, 94
6, 83460, Note_on_c, 4, 77, 0
6, 83460, Note_on_c, 4, 48, 0
6, 83460, Note_on_c, 4, 53, 0
6, 83460, Note_on_c, 4, 57, 0
6, 83460, Note_on_c, 4, 76, 94
6, 83490, Note_on_c, 4, 76, 0
6, 83490, Note_on_c, 4, 77, 99
6, 83520, Note_on_c, 4, 77, 0
6, 83520, Note_on_c, 4, 82, 99
6, 83550, Note_on_c, 4, 82, 0
6, 83550, Note_on_c, 4, 77, 99
6, 83580, Note_on_c, 4, 77, 0
6, 83580, Note_on_c, 4, 76, 98
6, 83610, Note_on_c, 4, 76, 0
6, 83610, Note_on_c, 4, 77, 99
6, 83640, Note_on_c, 4, 77, 0
6, 83640, Note_on_c, 4, 70, 99
6, 83640, Note_on_c, 4, 49, 105
6, 83670, Note_on_c, 4, 49, 0
6, 83670, Note_on_c, 4, 70, 0
6, 83670, Note_on_c, 4, 77, 93
6, 83670, Note_on_c, 4, 53, 84
6, 83700, Note_on_c, 4, 53, 0
6, 83700, Note_on_c, 4, 77, 0
6, 83700, Note_on_c, 4, 76, 90
6, 83700, Note_on_c, 4, 58, 85
6, 83730, Note_on_c, 4, 58, 0
6, 83730, Note_on_c, 4, 76, 0
6, 83730, Note_on_c, 4, 77, 94
6, 83730, Note_on_c, 4, 61, 81
6, 83760, Note_on_c, 4, 61, 0
6, 83760, Note_on_c, 4, 77, 0
6, 83760, Note_on_c, 4, 82, 89
6, 83760, Note_on_c, 4, 49, 84
6, 83790, Note_on_c, 4, 49, 0
6, 83790, Note_on_c, 4, 82, 0
6, 83790, Note_on_c, 4, 77, 104
6, 83790, Note_on_c, 4, 53, 95
6, 83820, Note_on_c, 4, 53, 0
6, 83820, Note_on_c, 4, 77, 0
6, 83820, Note_on_c, 4, 75, 99
6, 83820, Note_on_c, 4, 58, 86
6, 83850, Note_on_c, 4, 58, 0
6, 83850, Note_on_c, 4, 75, 0
6, 83850, Note_on_c, 4, 77, 99
6, 83850, Note_on_c, 4, 61, 76
6, 83880, Note_on_c, 4, 61, 0
6, 83880, Note_on_c, 4, 77, 0
6, 83880, Note_on_c, 4, 80, 94
6, 83880, Note_on_c, 4, 48, 93
6, 83910, Note_on_c, 4, 48, 0
6, 83910, Note_on_c, 4, 80, 0
6, 83910, Note_on_c, 4, 77, 99
6, 83910, Note_on_c, 4, 53, 89
6, 83940, Note_on_c, 4, 53, 0
6, 83940, Note_on_c, 4, 77, 0
6, 83940, Note_on_c, 4, 76, 95
6, 83940, Note_on_c, 4, 56, 93
6, 83970, Note_on_c, 4, 56, 0
6, 83970, Note_on_c, 4, 76, 0
6, 83970, Note_on_c, 4, 77, 94
6, 83970, Note_on_c, 4, 60, 80
6, 84000, Note_on_c, 4, 60, 0
6, 84000, Note_on_c, 4, 77, 0
6, 84000, Note_on_c, 4, 79, 94
6, 84000, Note_on_c, 4, 55, 76
6, 84000, Note_on_c, 4, 53, 86
6, 84000, Note_on_c, 4, 47, 90
6, 84030, Note_on_c, 4, 79, 0
6, 84030, Note_on_c, 4, 77, 94
6, 84060, Note_on_c, 4, 77, 0
6, 84060, Note_on_c, 4, 47, 0
6, 84060, Note_on_c, 4, 53, 0
6, 84060, Note_on_c, 4, 55, 0
6, 84060, Note_on_c, 4, 76, 98
6, 84090, Note_on_c, 4, 76, 0
6, 84090, Note_on_c, 4, 77, 99
6, 84120, Note_on_c, 4, 77, 0
6, 84120, Note_on_c, 4, 67, 86
6, 84120, Note_on_c, 4, 55, 85
6, 84120, Note_on_c, 4, 53, 93
6, 84120, Note_on_c, 4, 47, 98
6, 84150, Note_on_c, 4, 67, 0
6, 84150, Note_on_c, 4, 77, 95
6, 84180, Note_on_c, 4, 77, 0
6, 84180, Note_on_c, 4, 47, 0
6, 84180, Note_on_c, 4, 53, 0
6, 84180, Note_on_c, 4, 55, 0
6, 84180, Note_on_c, 4, 76, 101
6, 84210, Note_on_c, 4, 76, 0
6, 84210, Note_on_c, 4, 77, 99
6, 84240, Note_on_c, 4, 77, 0
6, 84240, Note_on_c, 4, 81, 105
6, 84270, Note_on_c, 4, 81, 0
6, 84270, Note_on_c, 4, 77, 99
6, 84300, Note_on_c, 4, 77, 0
6, 84300, Note_on_c, 4, 76, 95
6, 84330, Note_on_c, 4, 76, 0
6, 84330, Note_on_c, 4, 77, 95
6, 84360, Note_on_c, 4, 77, 0
6, 84360, Note_on_c, 4, 69, 89
6, 84360, Note_on_c, 4, 57, 94
6, 84360, Note_on_c, 4, 53, 89
6, 84360, Note_on_c, 4, 48, 104
6, 84390, Note_on_c, 4, 69, 0
6, 84390, Note_on_c, 4, 77, 95
6, 84420, Note_on_c, 4, 77, 0
6, 84420, Note_on_c, 4, 48, 0
6, 84420, Note_on_c, 4, 53, 0
6, 84420, Note_on_c, 4, 57, 0
6, 84420, Note_on_c, 4, 76, 98
6, 84450, Note_on_c, 4, 76, 0
6, 84450, Note_on_c, 4, 77, 94
6, 84480, Note_on_c, 4, 77, 0
6, 84480, Note_on_c, 4, 82, 99
6, 84510, Note_on_c, 4, 82, 0
6, 84510, Note_on_c, 4, 77, 105
6, 84540, Note_on_c, 4, 77, 0
6, 84540, Note_on_c, 4, 76, 105
6, 84570, Note_on_c, 4, 76, 0
6, 84570, Note_on_c, 4, 77, 101
6, 84600, Note_on_c, 4, 77, 0
6, 84600, Note_on_c, 4, 70, 86
6, 84600, Note_on_c, 4, 49, 94
6, 84630, Note_on_c, 4, 49, 0
6, 84630, Note_on_c, 4, 70, 0
6, 84630, Note_on_c, 4, 77, 104
6, 84630, Note_on_c, 4, 53, 98
6, 84660, Note_on_c, 4, 53, 0
6, 84660, Note_on_c, 4, 77, 0
6, 84660, Note_on_c, 4, 76, 99
6, 84660, Note_on_c, 4, 58, 84
6, 84690, Note_on_c, 4, 58, 0
6, 84690, Note_on_c, 4, 76, 0
6, 84690, Note_on_c, 4, 77, 101
6, 84690, Note_on_c, 4, 61, 94
6, 84720, Note_on_c, 4, 61, 0
6, 84720, Note_on_c, 4, 77, 0
6, 84720, Note_on_c, 4, 82, 95
6, 84720, Note_on_c, 4, 49, 104
6, 84750, Note_on_c, 4, 82, 0
6, 84750, Note_on_c, 4, 77, 104
6, 84780, Note_on_c, 4, 77, 0
6, 84780, Note_on_c, 4, 76, 101
6, 84810, Note_on_c, 4, 76, 0
6, 84810, Note_on_c, 4, 77, 105
6, 84840, Note_on_c, 4, 77, 0
6, 84840, Note_on_c, 4, 49, 0
6, 84840, Note_on_c, 4, 85, 95
6, 84870, Note_on_c, 4, 85, 0
6, 84870, Note_on_c, 4, 77, 99
6, 84900, Note_on_c, 4, 77, 0
6, 84900, Note_on_c, 4, 76, 95
6, 84930, Note_on_c, 4, 76, 0
6, 84930, Note_on_c, 4, 77, 95
6, 84960, Note_on_c, 4, 77, 0
6, 84960, Note_on_c, 4, 89, 99
6, 84990, Note_on_c, 4, 89, 0
6, 84990, Note_on_c, 4, 77, 99
6, 85020, Note_on_c, 4, 77, 0
6, 85020, Note_on_c, 4, 76, 99
6, 85050, Note_on_c, 4, 76, 0
6, 85050, Note_on_c, 4, 77, 99
6, 85080, Note_on_c, 4, 77, 0
6, 85080, Note_on_c, 4, 71, 94
6, 85080, Note_on_c, 4, 50, 99
6, 85110, Note_on_c, 4, 50, 0
6, 85110, Note_on_c, 4, 71, 0
6, 85110, Note_on_c, 4, 77, 98
6, 85110, Note_on_c, 4, 53, 98
6, 85140, Note_on_c, 4, 53, 0
6, 85140, Note_on_c, 4, 77, 0
6, 85140, Note_on_c, 4, 76, 99
6, 85140, Note_on_c, 4, 56, 95
6, 85170, Note_on_c, 4, 56, 0
6, 85170, Note_on_c, 4, 76, 0
6, 85170, Note_on_c, 4, 77, 99
6, 85170, Note_on_c, 4, 59, 89
6, 85200, Note_on_c, 4, 59, 0
6, 85200, Note_on_c, 4, 77, 0
6, 85200, Note_on_c, 4, 83, 99
6, 85200, Note_on_c, 4, 50, 105
6, 85230, Note_on_c, 4, 83, 0
6, 85230, Note_on_c, 4, 77, 98
6, 85260, Note_on_c, 4, 77, 0
6, 85260, Note_on_c, 4, 76, 95
6, 85290, Note_on_c, 4, 76, 0
6, 85290, Note_on_c, 4, 77, 98
6, 85320, Note_on_c, 4, 77, 0
6, 85320, Note_on_c, 4, 50, 0
6, 85320, Note_on_c, 4, 86, 99
6, 85350, Note_on_c, 4, 86, 0
6, 85350, Note_on_c, 4, 77, 93
6, 85380, Note_on_c, 4, 77, 0
6, 85380, Note_on_c, 4, 76, 95
6, 85410, Note_on_c, 4, 76, 0
6, 85410, Note_on_c, 4, 77, 98
6, 85440, Note_on_c, 4, 77, 0
6, 85440, Note_on_c, 4, 89, 99
6, 85560, Note_on_c, 4, 89, 0
6, 86160, Note_on_c, 4, 81, 73
6, 86160, Note_on_c, 4, 69, 76
6, 86250, Note_on_c, 4, 69, 0
6, 86250, Note_on_c, 4, 81, 0
6, 86250, Note_on_c, 4, 77, 62
6, 86250, Note_on_c, 4, 65, 73
6, 86280, Note_on_c, 4, 65, 0
6, 86280, Note_on_c, 4, 77, 0
6, 86280, Note_on_c, 4, 81, 70
6, 86280, Note_on_c, 4, 69, 70
6, 86370, Note_on_c, 4, 69, 0
6, 86370, Note_on_c, 4, 81, 0
6, 86370, Note_on_c, 4, 77, 53
6, 86370, Note_on_c, 4, 65, 64
6, 86400, Note_on_c, 4, 65, 0
6, 86400, Note_on_c, 4, 77, 0
6, 86400, Note_on_c, 4, 84, 53
6, 86400, Note_on_c, 4, 72, 29
6, 86460, Note_on_c, 4, 72, 0
6, 86460, Note_on_c, 4, 84, 0
6, 87120, Note_on_c, 4, 84, 53
6, 87120, Note_on_c, 4, 72, 61
6, 87210, Note_on_c, 4, 72, 0
6, 87210, Note_on_c, 4, 84, 0
6, 87210, Note_on_c, 4, 81, 57
6, 87210, Note_on_c, 4, 69, 68
6, 87240, Note_on_c, 4, 69, 0
6, 87240, Note_on_c, 4, 81, 0
6, 87240, Note_on_c, 4, 84, 71
6, 87240, Note_on_c, 4, 72, 43
6, 87330, Note_on_c, 4, 72, 0
6, 87330, Note_on_c, 4, 84, 0
6, 87330, Note_on_c, 4, 81, 43
6, 87330, Note_on_c, 4, 69, 65
6, 87360, Note_on_c, 4, 69, 0
6, 87360, Note_on_c, 4, 81, 0
6, 87360, Note_on_c, 4, 89, 58
6, 87360, Note_on_c, 4, 77, 57
6, 87420, Note_on_c, 4, 77, 0
6, 87420, Note_on_c, 4, 89, 0
6, 87840, Note_on_c, 4, 65, 58
6, 87840, Note_on_c, 4, 60, 49
6, 87840, Note_on_c, 4, 57, 66
6, 87870, Note_on_c, 4, 36, 74
6, 87900, Note_on_c, 4, 36, 0
6, 87900, Note_on_c, 4, 41, 66
6, 87930, Note_on_c, 4, 41, 0
6, 87930, Note_on_c, 4, 45, 65
6, 87960, Note_on_c, 4, 45, 0
6, 87960, Note_on_c, 4, 65, 0
6, 87960, Note_on_c, 4, 60, 0
6, 87960, Note_on_c, 4, 57, 0
6, 87960, Note_on_c, 4, 48, 43
6, 87990, Note_on_c, 4, 69, 76
6, 88020, Note_on_c, 4, 69, 0
6, 88020, Note_on_c, 4, 70, 43
6, 88050, Note_on_c, 4, 70, 0
6, 88050, Note_on_c, 4, 67, 84
6, 88080, Note_on_c, 4, 67, 0
6, 88080, Note_on_c, 4, 48, 0
6, 88080, Note_on_c, 4, 65, 84
6, 88110, Note_on_c, 4, 48, 80
6, 88140, Note_on_c, 4, 48, 0
6, 88140, Note_on_c, 4, 65, 0
6, 88140, Note_on_c, 4, 53, 81
6, 88170, Note_on_c, 4, 53, 0
6, 88170, Note_on_c, 4, 57, 84
6, 88200, Note_on_c, 4, 57, 0
6, 88200, Note_on_c, 4, 60, 71
6, 88230, Note_on_c, 4, 72, 52
6, 88260, Note_on_c, 4, 72, 0
6, 88260, Note_on_c, 4, 74, 76
6, 88290, Note_on_c, 4, 74, 0
6, 88290, Note_on_c, 4, 70, 80
6, 88320, Note_on_c, 4, 70, 0
6, 88320, Note_on_c, 4, 60, 0
6, 88320, Note_on_c, 4, 69, 86
6, 88350, Note_on_c, 4, 60, 67
6, 88380, Note_on_c, 4, 60, 0
6, 88380, Note_on_c, 4, 69, 0
6, 88380, Note_on_c, 4, 65, 76
6, 88410, Note_on_c, 4, 65, 0
6, 88410, Note_on_c, 4, 69, 71
6, 88440, Note_on_c, 4, 69, 0
6, 88440, Note_on_c, 4, 72, 44
6, 88470, Note_on_c, 4, 81, 86
6, 88500, Note_on_c, 4, 81, 0
6, 88500, Note_on_c, 4, 82, 76
6, 88530, Note_on_c, 4, 82, 0
6, 88530, Note_on_c, 4, 79, 84
6, 88560, Note_on_c, 4, 79, 0
6, 88560, Note_on_c, 4, 72, 0
6, 88560, Note_on_c, 4, 77, 80
6, 88590, Note_on_c, 4, 72, 58
6, 88620, Note_on_c, 4, 72, 0
6, 88620, Note_on_c, 4, 77, 0
6, 88620, Note_on_c, 4, 74, 80
6, 88650, Note_on_c, 4, 74, 0
6, 88650, Note_on_c, 4, 70, 77
6, 88680, Note_on_c, 4, 70, 0
6, 88680, Note_on_c, 4, 69, 89
6, 88710, Note_on_c, 4, 84, 84
6, 88740, Note_on_c, 4, 84, 0
6, 88740, Note_on_c, 4, 69, 0
6, 88740, Note_on_c, 4, 86, 86
6, 88770, Note_on_c, 4, 86, 0
6, 88770, Note_on_c, 4, 82, 90
6, 88800, Note_on_c, 4, 82, 0
6, 88800, Note_on_c, 4, 81, 99
6, 88830, Note_on_c, 4, 76, 89
6, 88860, Note_on_c, 4, 76, 0
6, 88860, Note_on_c, 4, 81, 0
6, 88860, Note_on_c, 4, 77, 71
6, 88890, Note_on_c, 4, 77, 0
6, 88890, Note_on_c, 4, 74, 89
6, 88920, Note_on_c, 4, 74, 0
6, 88920, Note_on_c, 4, 72, 80
6, 88950, Note_on_c, 4, 88, 99
6, 88980, Note_on_c, 4, 88, 0
6, 88980, Note_on_c, 4, 72, 0
6, 88980, Note_on_c, 4, 89, 98
6, 89010, Note_on_c, 4, 89, 0
6, 89010, Note_on_c, 4, 86, 105
6, 89040, Note_on_c, 4, 86, 0
6, 89040, Note_on_c, 4, 84, 94
6, 89070, Note_on_c, 4, 76, 101
6, 89100, Note_on_c, 4, 76, 0
6, 89100, Note_on_c, 4, 84, 0
6, 89100, Note_on_c, 4, 77, 84
6, 89130, Note_on_c, 4, 77, 0
6, 89130, Note_on_c, 4, 74, 101
6, 89160, Note_on_c, 4, 74, 0
6, 89160, Note_on_c, 4, 72, 86
6, 89190, Note_on_c, 4, 88, 104
6, 89220, Note_on_c, 4, 88, 0
6, 89220, Note_on_c, 4, 72, 0
6, 89220, Note_on_c, 4, 89, 95
6, 89250, Note_on_c, 4, 89, 0
6, 89250, Note_on_c, 4, 86, 105
6, 89280, Note_on_c, 4, 86, 0
6, 89280, Note_on_c, 4, 84, 94
6, 89310, Note_on_c, 4, 76, 99
6, 89340, Note_on_c, 4, 76, 0
6, 89340, Note_on_c, 4, 84, 0
6, 89340, Note_on_c, 4, 77, 86
6, 89370, Note_on_c, 4, 77, 0
6, 89370, Note_on_c, 4, 74, 105
6, 89400, Note_on_c, 4, 74, 0
6, 89400, Note_on_c, 4, 72, 89
6, 89460, Note_on_c, 4, 72, 0
6, 89580, Note_on_c, 4, 88, 76
6, 89640, Note_on_c, 4, 88, 0
6, 89640, Note_on_c, 4, 89, 71
6, 89700, Note_on_c, 4, 89, 0
6, 89700, Note_on_c, 4, 86, 62
6, 89760, Note_on_c, 4, 86, 0
6, 89760, Note_on_c, 4, 84, 67
6, 89820, Note_on_c, 4, 84, 0
6, 89820, Note_on_c, 4, 76, 81
6, 89880, Note_on_c, 4, 76, 0
6, 89880, Note_on_c, 4, 77, 73
6, 89940, Note_on_c, 4, 77, 0
6, 89940, Note_on_c, 4, 74, 73
6, 90000, Note_on_c, 4, 74, 0
6, 90000, Note_on_c, 4, 72, 61
6, 90060, Note_on_c, 4, 72, 0
6, 90060, Note_on_c, 4, 88, 80
6, 90120, Note_on_c, 4, 88, 0
6, 90120, Note_on_c, 4, 89, 72
6, 90180, Note_on_c, 4, 89, 0
6, 90180, Note_on_c, 4, 86, 65
6, 90240, Note_on_c, 4, 86, 0
6, 90240, Note_on_c, 4, 84, 65
6, 90300, Note_on_c, 4, 84, 0
6, 90300, Note_on_c, 4, 76, 57
6, 90360, Note_on_c, 4, 76, 0
6, 90360, Note_on_c, 4, 77, 50
6, 90420, Note_on_c, 4, 77, 0
6, 90420, Note_on_c, 4, 74, 40
6, 90480, Note_on_c, 4, 74, 0
6, 90480, Note_on_c, 4, 72, 48
6, 90540, Note_on_c, 4, 88, 59
6, 90600, Note_on_c, 4, 88, 0
6, 90600, Note_on_c, 4, 72, 0
6, 90600, Note_on_c, 4, 89, 76
6, 90660, Note_on_c, 4, 89, 0
6, 90660, Note_on_c, 4, 86, 43
6, 90720, Note_on_c, 4, 86, 0
6, 90720, Note_on_c, 4, 84, 43
6, 90780, Note_on_c, 4, 84, 0
6, 90780, Note_on_c, 4, 88, 45
6, 90840, Note_on_c, 4, 88, 0
6, 90840, Note_on_c, 4, 89, 43
6, 90900, Note_on_c, 4, 89, 0
6, 90900, Note_on_c, 4, 86, 56
6, 90960, Note_on_c, 4, 86, 0
6, 90960, Note_on_c, 4, 84, 50
6, 91020, Note_on_c, 4, 84, 0
6, 91020, Note_on_c, 4, 88, 57
6, 91020, Note_on_c, 4, 56, 58
6, 91080, Note_on_c, 4, 56, 0
6, 91080, Note_on_c, 4, 88, 0
6, 91080, Note_on_c, 4, 89, 68
6, 91080, Note_on_c, 4, 57, 74
6, 91140, Note_on_c, 4, 57, 0
6, 91140, Note_on_c, 4, 89, 0
6, 91140, Note_on_c, 4, 86, 62
6, 91140, Note_on_c, 4, 59, 61
6, 91200, Note_on_c, 4, 59, 0
6, 91200, Note_on_c, 4, 86, 0
6, 91200, Note_on_c, 4, 84, 61
6, 91200, Note_on_c, 4, 60, 61
6, 91260, Note_on_c, 4, 60, 0
6, 91260, Note_on_c, 4, 84, 0
6, 91260, Note_on_c, 4, 88, 72
6, 91260, Note_on_c, 4, 61, 62
6, 91320, Note_on_c, 4, 61, 0
6, 91320, Note_on_c, 4, 88, 0
6, 91320, Note_on_c, 4, 89, 90
6, 91320, Note_on_c, 4, 62, 70
6, 91380, Note_on_c, 4, 62, 0
6, 91380, Note_on_c, 4, 89, 0
6, 91380, Note_on_c, 4, 86, 81
6, 91380, Note_on_c, 4, 64, 73
6, 91440, Note_on_c, 4, 64, 0
6, 91440, Note_on_c, 4, 86, 0
6, 91440, Note_on_c, 4, 84, 74
6, 91440, Note_on_c, 4, 65, 89
6, 91500, Note_on_c, 4, 65, 0
6, 91500, Note_on_c, 4, 84, 0
6, 91500, Note_on_c, 4, 88, 85
6, 91500, Note_on_c, 4, 68, 80
6, 91560, Note_on_c, 4, 68, 0
6, 91560, Note_on_c, 4, 88, 0
6, 91560, Note_on_c, 4, 89, 94
6, 91560, Note_on_c, 4, 69, 94
6, 91620, Note_on_c, 4, 69, 0
6, 91620, Note_on_c, 4, 89, 0
6, 91620, Note_on_c, 4, 86, 95
6, 91620, Note_on_c, 4, 71, 95
6, 91680, Note_on_c, 4, 71, 0
6, 91680, Note_on_c, 4, 86, 0
6, 91680, Note_on_c, 4, 84, 78
6, 91680, Note_on_c, 4, 72, 74
6, 91700, Note_on_c, 4, 72, 0
6, 91700, Note_on_c, 4, 84, 0
6, 91720, Note_on_c, 4, 88, 89
6, 91720, Note_on_c, 4, 76, 89
6, 91760, Note_on_c, 4, 76, 0
6, 91760, Note_on_c, 4, 88, 0
6, 91760, Note_on_c, 4, 89, 94
6, 91760, Note_on_c, 4, 77, 71
6, 91800, Note_on_c, 4, 77, 0
6, 91800, Note_on_c, 4, 89, 0
6, 91800, Note_on_c, 4, 81, 81
6, 91800, Note_on_c, 4, 69, 86
6, 91820, Note_on_c, 4, 69, 0
6, 91820, Note_on_c, 4, 81, 0
6, 91840, Note_on_c, 4, 83, 89
6, 91840, Note_on_c, 4, 71, 71
6, 91880, Note_on_c, 4, 71, 0
6, 91880, Note_on_c, 4, 83, 0
6, 91880, Note_on_c, 4, 84, 89
6, 91880, Note_on_c, 4, 72, 68
6, 91920, Note_on_c, 4, 72, 0
6, 91920, Note_on_c, 4, 84, 0
6, 91920, Note_on_c, 4, 77, 76
6, 91920, Note_on_c, 4, 65, 84
6, 91940, Note_on_c, 4, 65, 0
6, 91940, Note_on_c, 4, 77, 0
6, 91960, Note_on_c, 4, 80, 77
6, 91960, Note_on_c, 4, 68, 80
6, 92000, Note_on_c, 4, 68, 0
6, 92000, Note_on_c, 4, 80, 0
6, 92000, Note_on_c, 4, 81, 93
6, 92000, Note_on_c, 4, 69, 85
6, 92040, Note_on_c, 4, 69, 0
6, 92040, Note_on_c, 4, 81, 0
6, 92040, Note_on_c, 4, 72, 57
6, 92040, Note_on_c, 4, 60, 86
6, 92060, Note_on_c, 4, 60, 0
6, 92060, Note_on_c, 4, 72, 0
6, 92080, Note_on_c, 4, 76, 90
6, 92080, Note_on_c, 4, 64, 81
6, 92120, Note_on_c, 4, 64, 0
6, 92120, Note_on_c, 4, 76, 0
6, 92120, Note_on_c, 4, 77, 86
6, 92120, Note_on_c, 4, 65, 90
6, 92160, Note_on_c, 4, 65, 0
6, 92160, Note_on_c, 4, 77, 0
6, 92160, Note_on_c, 4, 69, 82
6, 92160, Note_on_c, 4, 57, 99
6, 92180, Note_on_c, 4, 57, 0
6, 92180, Note_on_c, 4, 69, 0
6, 92200, Note_on_c, 4, 71, 86
6, 92200, Note_on_c, 4, 59, 84
6, 92240, Note_on_c, 4, 59, 0
6, 92240, Note_on_c, 4, 71, 0
6, 92240, Note_on_c, 4, 72, 77
6, 92240, Note_on_c, 4, 60, 86
6, 92280, Note_on_c, 4, 60, 0
6, 92280, Note_on_c, 4, 72, 0
6, 92280, Note_on_c, 4, 65, 84
6, 92280, Note_on_c, 4, 53, 80
6, 92300, Note_on_c, 4, 53, 0
6, 92300, Note_on_c, 4, 65, 0
6, 92320, Note_on_c, 4, 68, 85
6, 92320, Note_on_c, 4, 56, 85
6, 92360, Note_on_c, 4, 56, 0
6, 92360, Note_on_c, 4, 68, 0
6, 92360, Note_on_c, 4, 69, 93
6, 92360, Note_on_c, 4, 57, 90
6, 92400, Note_on_c, 4, 57, 0
6, 92400, Note_on_c, 4, 69, 0
6, 92400, Note_on_c, 4, 62, 80
6, 92400, Note_on_c, 4, 50, 86
6, 92420, Note_on_c, 4, 50, 0
6, 92420, Note_on_c, 4, 62, 0
6, 92440, Note_on_c, 4, 64, 90
6, 92440, Note_on_c, 4, 52, 89
6, 92480, Note_on_c, 4, 52, 0
6, 92480, Note_on_c, 4, 64, 0
6, 92480, Note_on_c, 4, 65, 89
6, 92480, Note_on_c, 4, 53, 81
6, 92520, Note_on_c, 4, 53, 0
6, 92520, Note_on_c, 4, 65, 0
6, 92520, Note_on_c, 4, 59, 82
6, 92520, Note_on_c, 4, 47, 82
6, 92550, Note_on_c, 4, 47, 0
6, 92550, Note_on_c, 4, 59, 0
6, 92550, Note_on_c, 4, 65, 90
6, 92550, Note_on_c, 4, 53, 73
6, 92580, Note_on_c, 4, 53, 0
6, 92580, Note_on_c, 4, 65, 0
6, 92580, Note_on_c, 4, 62, 85
6, 92580, Note_on_c, 4, 50, 89
6, 92610, Note_on_c, 4, 50, 0
6, 92610, Note_on_c, 4, 62, 0
6, 92610, Note_on_c, 4, 59, 82
6, 92610, Note_on_c, 4, 47, 90
6, 92640, Note_on_c, 4, 47, 0
6, 92640, Note_on_c, 4, 59, 0
6, 92640, Note_on_c, 4, 48, 82
6, 92640, Note_on_c, 4, 36, 89
6, 92670, Note_on_c, 4, 60, 86
6, 92700, Note_on_c, 4, 60, 0
6, 92700, Note_on_c, 4, 59, 84
6, 92730, Note_on_c, 4, 59, 0
6, 92730, Note_on_c, 4, 60, 85
6, 92760, Note_on_c, 4, 60, 0
6, 92760, Note_on_c, 4, 36, 0
6, 92760, Note_on_c, 4, 48, 0
6, 92760, Note_on_c, 4, 59, 93
6, 92790, Note_on_c, 4, 59, 0
6, 92790, Note_on_c, 4, 60, 89
6, 92820, Note_on_c, 4, 60, 0
6, 92820, Note_on_c, 4, 57, 93
6, 92850, Note_on_c, 4, 57, 0
6, 92850, Note_on_c, 4, 53, 81
6, 92880, Note_on_c, 4, 53, 0
6, 92880, Note_on_c, 4, 64, 86
6, 92910, Note_on_c, 4, 64, 0
6, 92910, Note_on_c, 4, 65, 84
6, 92940, Note_on_c, 4, 65, 0
6, 92940, Note_on_c, 4, 64, 81
6, 92970, Note_on_c, 4, 64, 0
6, 92970, Note_on_c, 4, 65, 86
6, 93000, Note_on_c, 4, 65, 0
6, 93000, Note_on_c, 4, 64, 81
6, 93030, Note_on_c, 4, 64, 0
6, 93030, Note_on_c, 4, 65, 90
6, 93060, Note_on_c, 4, 65, 0
6, 93060, Note_on_c, 4, 60, 84
6, 93090, Note_on_c, 4, 60, 0
6, 93090, Note_on_c, 4, 57, 94
6, 93120, Note_on_c, 4, 57, 0
6, 93120, Note_on_c, 4, 68, 86
6, 93150, Note_on_c, 4, 68, 0
6, 93150, Note_on_c, 4, 69, 89
6, 93180, Note_on_c, 4, 69, 0
6, 93180, Note_on_c, 4, 65, 93
6, 93195, Note_on_c, 4, 65, 0
6, 93210, Note_on_c, 4, 60, 89
6, 93225, Note_on_c, 4, 60, 0
6, 93240, Note_on_c, 4, 71, 89
6, 93270, Note_on_c, 4, 71, 0
6, 93270, Note_on_c, 4, 72, 65
6, 93300, Note_on_c, 4, 72, 0
6, 93300, Note_on_c, 4, 69, 84
6, 93315, Note_on_c, 4, 69, 0
6, 93330, Note_on_c, 4, 65, 94
6, 93345, Note_on_c, 4, 65, 0
6, 93360, Note_on_c, 4, 76, 93
6, 93390, Note_on_c, 4, 76, 0
6, 93390, Note_on_c, 4, 77, 84
6, 93420, Note_on_c, 4, 77, 0
6, 93420, Note_on_c, 4, 72, 84
6, 93435, Note_on_c, 4, 72, 0
6, 93450, Note_on_c, 4, 69, 94
6, 93465, Note_on_c, 4, 69, 0
6, 93480, Note_on_c, 4, 80, 86
6, 93510, Note_on_c, 4, 80, 0
6, 93510, Note_on_c, 4, 81, 81
6, 93540, Note_on_c, 4, 81, 0
6, 93540, Note_on_c, 4, 77, 89
6, 93555, Note_on_c, 4, 77, 0
6, 93570, Note_on_c, 4, 72, 80
6, 93585, Note_on_c, 4, 72, 0
6, 93600, Note_on_c, 4, 83, 89
6, 93630, Note_on_c, 4, 83, 0
6, 93630, Note_on_c, 4, 84, 84
6, 93660, Note_on_c, 4, 84, 0
6, 93660, Note_on_c, 4, 81, 93
6, 93675, Note_on_c, 4, 81, 0
6, 93690, Note_on_c, 4, 77, 94
6, 93705, Note_on_c, 4, 77, 0
6, 93720, Note_on_c, 4, 89, 94
6, 93750, Note_on_c, 4, 89, 0
6, 93750, Note_on_c, 4, 88, 81
6, 93780, Note_on_c, 4, 88, 0
6, 93780, Note_on_c, 4, 89, 95
6, 93810, Note_on_c, 4, 89, 0
6, 93810, Note_on_c, 4, 88, 89
6, 93840, Note_on_c, 4, 88, 0
6, 93840, Note_on_c, 4, 89, 98
6, 93870, Note_on_c, 4, 89, 0
6, 93870, Note_on_c, 4, 88, 94
6, 93900, Note_on_c, 4, 88, 0
6, 93900, Note_on_c, 4, 86, 90
6, 93930, Note_on_c, 4, 86, 0
6, 93930, Note_on_c, 4, 84, 81
6, 93960, Note_on_c, 4, 84, 0
6, 93960, Note_on_c, 4, 82, 69
6, 93990, Note_on_c, 4, 82, 0
6, 93990, Note_on_c, 4, 81, 89
6, 94020, Note_on_c, 4, 81, 0
6, 94020, Note_on_c, 4, 79, 76
6, 94050, Note_on_c, 4, 79, 0
6, 94050, Note_on_c, 4, 77, 89
6, 94080, Note_on_c, 4, 77, 0
6, 94080, Note_on_c, 4, 79, 84
6, 94080, Note_on_c, 4, 36, 99
6, 94110, Note_on_c, 4, 36, 0
6, 94110, Note_on_c, 4, 48, 84
6, 94140, Note_on_c, 4, 48, 0
6, 94140, Note_on_c, 4, 79, 0
6, 94140, Note_on_c, 4, 81, 86
6, 94140, Note_on_c, 4, 38, 90
6, 94170, Note_on_c, 4, 38, 0
6, 94170, Note_on_c, 4, 81, 0
6, 94170, Note_on_c, 4, 79, 85
6, 94170, Note_on_c, 4, 50, 80
6, 94200, Note_on_c, 4, 50, 0
6, 94200, Note_on_c, 4, 79, 0
6, 94200, Note_on_c, 4, 81, 86
6, 94200, Note_on_c, 4, 40, 89
6, 94220, Note_on_c, 4, 81, 0
6, 94220, Note_on_c, 4, 79, 81
6, 94230, Note_on_c, 4, 40, 0
6, 94230, Note_on_c, 4, 52, 89
6, 94240, Note_on_c, 4, 79, 0
6, 94240, Note_on_c, 4, 81, 89
6, 94260, Note_on_c, 4, 81, 0
6, 94260, Note_on_c, 4, 52, 0
6, 94260, Note_on_c, 4, 79, 85
6, 94260, Note_on_c, 4, 41, 85
6, 94280, Note_on_c, 4, 79, 0
6, 94280, Note_on_c, 4, 81, 86
6, 94290, Note_on_c, 4, 41, 0
6, 94290, Note_on_c, 4, 53, 80
6, 94300, Note_on_c, 4, 81, 0
6, 94300, Note_on_c, 4, 79, 74
6, 94320, Note_on_c, 4, 79, 0
6, 94320, Note_on_c, 4, 53, 0
6, 94320, Note_on_c, 4, 81, 84
6, 94320, Note_on_c, 4, 43, 94
6, 94340, Note_on_c, 4, 81, 0
6, 94340, Note_on_c, 4, 79, 73
6, 94350, Note_on_c, 4, 43, 0
6, 94350, Note_on_c, 4, 55, 78
6, 94360, Note_on_c, 4, 79, 0
6, 94360, Note_on_c, 4, 81, 86
6, 94380, Note_on_c, 4, 81, 0
6, 94380, Note_on_c, 4, 55, 0
6, 94380, Note_on_c, 4, 79, 73
6, 94380, Note_on_c, 4, 45, 95
6, 94400, Note_on_c, 4, 79, 0
6, 94400, Note_on_c, 4, 81, 81
6, 94410, Note_on_c, 4, 45, 0
6, 94410, Note_on_c, 4, 57, 89
6, 94420, Note_on_c, 4, 81, 0
6, 94420, Note_on_c, 4, 79, 67
6, 94440, Note_on_c, 4, 79, 0
6, 94440, Note_on_c, 4, 57, 0
6, 94440, Note_on_c, 4, 81, 84
6, 94440, Note_on_c, 4, 46, 94
6, 94460, Note_on_c, 4, 81, 0
6, 94460, Note_on_c, 4, 79, 72
6, 94470, Note_on_c, 4, 46, 0
6, 94470, Note_on_c, 4, 58, 80
6, 94480, Note_on_c, 4, 79, 0
6, 94480, Note_on_c, 4, 81, 76
6, 94500, Note_on_c, 4, 81, 0
6, 94500, Note_on_c, 4, 58, 0
6, 94500, Note_on_c, 4, 79, 73
6, 94500, Note_on_c, 4, 48, 95
6, 94520, Note_on_c, 4, 79, 0
6, 94520, Note_on_c, 4, 81, 76
6, 94530, Note_on_c, 4, 48, 0
6, 94530, Note_on_c, 4, 60, 93
6, 94540, Note_on_c, 4, 81, 0
6, 94540, Note_on_c, 4, 79, 80
6, 94560, Note_on_c, 4, 79, 0
6, 94560, Note_on_c, 4, 60, 0
6, 94560, Note_on_c, 4, 77, 93
6, 94560, Note_on_c, 4, 57, 86
6, 94560, Note_on_c, 4, 53, 84
6, 94680, Note_on_c, 4, 53, 0
6, 94680, Note_on_c, 4, 57, 0
6, 94680, Note_on_c, 4, 77, 0
6, 101940, Note_on_c, 4, 84, 74
6, 102000, Note_on_c, 4, 84, 0
6, 102000, Note_on_c, 4, 83, 77
6, 102060, Note_on_c, 4, 83, 0
6, 102060, Note_on_c, 4, 84, 64
6, 102120, Note_on_c, 4, 84, 0
6, 102120, Note_on_c, 4, 81, 68
6, 102150, Note_on_c, 4, 81, 0
6, 102180, Note_on_c, 4, 77, 65
6, 102210, Note_on_c, 4, 77, 0
6, 102240, Note_on_c, 4, 72, 54
6, 102300, Note_on_c, 4, 72, 0
6, 102360, Note_on_c, 4, 67, 43
6, 102360, Note_on_c, 4, 60, 54
6, 102360, Note_on_c, 4, 58, 58
6, 102420, Note_on_c, 4, 72, 44
6, 102480, Note_on_c, 4, 72, 0
6, 102480, Note_on_c, 4, 67, 0
6, 102480, Note_on_c, 4, 60, 0
6, 102480, Note_on_c, 4, 58, 0
6, 102480, Note_on_c, 4, 71, 46
6, 102540, Note_on_c, 4, 71, 0
6, 102540, Note_on_c, 4, 72, 47
6, 102600, Note_on_c, 4, 72, 0
6, 102600, Note_on_c, 4, 74, 69
6, 102660, Note_on_c, 4, 74, 0
6, 102660, Note_on_c, 4, 76, 59
6, 102720, Note_on_c, 4, 76, 0
6, 102720, Note_on_c, 4, 79, 50
6, 102780, Note_on_c, 4, 79, 0
6, 102780, Note_on_c, 4, 77, 53
6, 102840, Note_on_c, 4, 77, 0
6, 102840, Note_on_c, 4, 65, 43
6, 102840, Note_on_c, 4, 60, 62
6, 102840, Note_on_c, 4, 57, 66
6, 102900, Note_on_c, 4, 77, 73
6, 102960, Note_on_c, 4, 77, 0
6, 102960, Note_on_c, 4, 65, 0
6, 102960, Note_on_c, 4, 60, 0
6, 102960, Note_on_c, 4, 57, 0
6, 102960, Note_on_c, 4, 76, 65
6, 103020, Note_on_c, 4, 76, 0
6, 103020, Note_on_c, 4, 77, 56
6, 103080, Note_on_c, 4, 77, 0
6, 103080, Note_on_c, 4, 79, 72
6, 103140, Note_on_c, 4, 79, 0
6, 103140, Note_on_c, 4, 81, 40
6, 103200, Note_on_c, 4, 81, 0
6, 103200, Note_on_c, 4, 84, 65
6, 103260, Note_on_c, 4, 84, 0
6, 103260, Note_on_c, 4, 82, 62
6, 103320, Note_on_c, 4, 82, 0
6, 103320, Note_on_c, 4, 60, 54
6, 103320, Note_on_c, 4, 55, 60
6, 103320, Note_on_c, 4, 52, 57
6, 103380, Note_on_c, 4, 82, 65
6, 103440, Note_on_c, 4, 82, 0
6, 103440, Note_on_c, 4, 60, 0
6, 103440, Note_on_c, 4, 55, 0
6, 103440, Note_on_c, 4, 52, 0
6, 103440, Note_on_c, 4, 82, 68
6, 103464, Note_on_c, 4, 82, 0
6, 103464, Note_on_c, 4, 84, 52
6, 103488, Note_on_c, 4, 84, 0
6, 103488, Note_on_c, 4, 82, 65
6, 103512, Note_on_c, 4, 82, 0
6, 103512, Note_on_c, 4, 81, 48
6, 103536, Note_on_c, 4, 81, 0
6, 103536, Note_on_c, 4, 82, 58
6, 103560, Note_on_c, 4, 82, 0
6, 103560, Note_on_c, 4, 84, 73
6, 103560, Note_on_c, 4, 60, 53
6, 103560, Note_on_c, 4, 55, 58
6, 103560, Note_on_c, 4, 52, 72
6, 103590, Note_on_c, 4, 84, 0
6, 103620, Note_on_c, 4, 82, 61
6, 103650, Note_on_c, 4, 82, 0
6, 103680, Note_on_c, 4, 52, 0
6, 103680, Note_on_c, 4, 55, 0
6, 103680, Note_on_c, 4, 60, 0
6, 103680, Note_on_c, 4, 80, 68
6, 103740, Note_on_c, 4, 80, 0
6, 103740, Note_on_c, 4, 81, 72
6, 103800, Note_on_c, 4, 81, 0
6, 103800, Note_on_c, 4, 60, 45
6, 103800, Note_on_c, 4, 57, 63
6, 103800, Note_on_c, 4, 53, 61
6, 103830, Note_on_c, 4, 84, 59
6, 103860, Note_on_c, 4, 84, 0
6, 103860, Note_on_c, 4, 83, 68
6, 103890, Note_on_c, 4, 83, 0
6, 103890, Note_on_c, 4, 84, 72
6, 103920, Note_on_c, 4, 84, 0
6, 103920, Note_on_c, 4, 60, 0
6, 103920, Note_on_c, 4, 57, 0
6, 103920, Note_on_c, 4, 53, 0
6, 103920, Note_on_c, 4, 86, 61
6, 103950, Note_on_c, 4, 86, 0
6, 103950, Note_on_c, 4, 84, 58
6, 103980, Note_on_c, 4, 84, 0
6, 103980, Note_on_c, 4, 82, 65
6, 104010, Note_on_c, 4, 82, 0
6, 104010, Note_on_c, 4, 81, 66
6, 104040, Note_on_c, 4, 81, 0
6, 104040, Note_on_c, 4, 79, 60
6, 104070, Note_on_c, 4, 79, 0
6, 104070, Note_on_c, 4, 77, 67
6, 104100, Note_on_c, 4, 77, 0
6, 104100, Note_on_c, 4, 76, 64
6, 104130, Note_on_c, 4, 76, 0
6, 104130, Note_on_c, 4, 74, 50
6, 104160, Note_on_c, 4, 74, 0
6, 104160, Note_on_c, 4, 72, 58
6, 104190, Note_on_c, 4, 72, 0
6, 104220, Note_on_c, 4, 72, 50
6, 104250, Note_on_c, 4, 72, 0
6, 104280, Note_on_c, 4, 67, 38
6, 104280, Note_on_c, 4, 60, 53
6, 104280, Note_on_c, 4, 58, 40
6, 104340, Note_on_c, 4, 72, 49
6, 104400, Note_on_c, 4, 72, 0
6, 104400, Note_on_c, 4, 67, 0
6, 104400, Note_on_c, 4, 60, 0
6, 104400, Note_on_c, 4, 58, 0
6, 104400, Note_on_c, 4, 71, 64
6, 104460, Note_on_c, 4, 71, 0
6, 104460, Note_on_c, 4, 72, 56
6, 104520, Note_on_c, 4, 72, 0
6, 104520, Note_on_c, 4, 74, 89
6, 104580, Note_on_c, 4, 74, 0
6, 104580, Note_on_c, 4, 76, 90
6, 104640, Note_on_c, 4, 76, 0
6, 104640, Note_on_c, 4, 77, 84
6, 104670, Note_on_c, 4, 77, 0
6, 104700, Note_on_c, 4, 77, 81
6, 104730, Note_on_c, 4, 77, 0
6, 104760, Note_on_c, 4, 65, 58
6, 104760, Note_on_c, 4, 60, 78
6, 104760, Note_on_c, 4, 57, 68
6, 104820, Note_on_c, 4, 77, 86
6, 104880, Note_on_c, 4, 77, 0
6, 104880, Note_on_c, 4, 65, 0
6, 104880, Note_on_c, 4, 60, 0
6, 104880, Note_on_c, 4, 57, 0
6, 104880, Note_on_c, 4, 76, 86
6, 104940, Note_on_c, 4, 76, 0
6, 104940, Note_on_c, 4, 77, 82
6, 105000, Note_on_c, 4, 77, 0
6, 105000, Note_on_c, 4, 79, 74
6, 105060, Note_on_c, 4, 79, 0
6, 105060, Note_on_c, 4, 80, 84
6, 105120, Note_on_c, 4, 80, 0
6, 105120, Note_on_c, 4, 81, 85
6, 105150, Note_on_c, 4, 81, 0
6, 105180, Note_on_c, 4, 81, 82
6, 105210, Note_on_c, 4, 81, 0
6, 105240, Note_on_c, 4, 69, 72
6, 105240, Note_on_c, 4, 62, 76
6, 105240, Note_on_c, 4, 60, 82
6, 105300, Note_on_c, 4, 74, 86
6, 105360, Note_on_c, 4, 74, 0
6, 105360, Note_on_c, 4, 69, 0
6, 105360, Note_on_c, 4, 62, 0
6, 105360, Note_on_c, 4, 60, 0
6, 105360, Note_on_c, 4, 73, 76
6, 105420, Note_on_c, 4, 73, 0
6, 105420, Note_on_c, 4, 74, 89
6, 105480, Note_on_c, 4, 74, 0
6, 105480, Note_on_c, 4, 76, 85
6, 105540, Note_on_c, 4, 76, 0
6, 105540, Note_on_c, 4, 78, 73
6, 105600, Note_on_c, 4, 78, 0
6, 105600, Note_on_c, 4, 79, 81
6, 105630, Note_on_c, 4, 79, 0
6, 105660, Note_on_c, 4, 79, 86
6, 105690, Note_on_c, 4, 79, 0
6, 105720, Note_on_c, 4, 67, 80
6, 105720, Note_on_c, 4, 62, 84
6, 105720, Note_on_c, 4, 58, 89
6, 105780, Note_on_c, 4, 79, 89
6, 105840, Note_on_c, 4, 79, 0
6, 105840, Note_on_c, 4, 67, 0
6, 105840, Note_on_c, 4, 62, 0
6, 105840, Note_on_c, 4, 58, 0
6, 105840, Note_on_c, 4, 78, 80
6, 105900, Note_on_c, 4, 78, 0
6, 105900, Note_on_c, 4, 79, 84
6, 105960, Note_on_c, 4, 79, 0
6, 105960, Note_on_c, 4, 81, 89
6, 106020, Note_on_c, 4, 81, 0
6, 106020, Note_on_c, 4, 82, 86
6, 106080, Note_on_c, 4, 82, 0
6, 106080, Note_on_c, 4, 86, 94
6, 106140, Note_on_c, 4, 86, 0
6, 106140, Note_on_c, 4, 84, 89
6, 106200, Note_on_c, 4, 84, 0
6, 106200, Note_on_c, 4, 72, 53
6, 106200, Note_on_c, 4, 67, 77
6, 106200, Note_on_c, 4, 63, 76
6, 106260, Note_on_c, 4, 82, 89
6, 106290, Note_on_c, 4, 82, 0
6, 106320, Note_on_c, 4, 72, 0
6, 106320, Note_on_c, 4, 67, 0
6, 106320, Note_on_c, 4, 63, 0
6, 106320, Note_on_c, 4, 82, 94
6, 106380, Note_on_c, 4, 82, 0
6, 106380, Note_on_c, 4, 81, 93
6, 106440, Note_on_c, 4, 81, 0
6, 106440, Note_on_c, 4, 73, 68
6, 106440, Note_on_c, 4, 67, 94
6, 106440, Note_on_c, 4, 63, 84
6, 106500, Note_on_c, 4, 79, 95
6, 106530, Note_on_c, 4, 79, 0
6, 106560, Note_on_c, 4, 73, 0
6, 106560, Note_on_c, 4, 67, 0
6, 106560, Note_on_c, 4, 63, 0
6, 106560, Note_on_c, 4, 78, 58
6, 106560, Note_on_c, 4, 62, 69
6, 106600, Note_on_c, 4, 62, 0
6, 106600, Note_on_c, 4, 66, 53
6, 106640, Note_on_c, 4, 66, 0
6, 106640, Note_on_c, 4, 69, 67
6, 106680, Note_on_c, 4, 69, 0
6, 106680, Note_on_c, 4, 78, 0
6, 106680, Note_on_c, 4, 74, 73
6, 106720, Note_on_c, 4, 74, 0
6, 106720, Note_on_c, 4, 78, 58
6, 106760, Note_on_c, 4, 78, 0
6, 106760, Note_on_c, 4, 81, 73
6, 106800, Note_on_c, 4, 81, 0
6, 106800, Note_on_c, 4, 86, 82
6, 106840, Note_on_c, 4, 86, 0
6, 106840, Note_on_c, 4, 81, 77
6, 106880, Note_on_c, 4, 81, 0
6, 106880, Note_on_c, 4, 78, 53
6, 106920, Note_on_c, 4, 78, 0
6, 106920, Note_on_c, 4, 84, 67
6, 106960, Note_on_c, 4, 84, 0
6, 106960, Note_on_c, 4, 81, 65
6, 107000, Note_on_c, 4, 81, 0
6, 107000, Note_on_c, 4, 78, 62
6, 107040, Note_on_c, 4, 78, 0
6, 107040, Note_on_c, 4, 50, 53
6, 107080, Note_on_c, 4, 50, 0
6, 107080, Note_on_c, 4, 55, 73
6, 107120, Note_on_c, 4, 55, 0
6, 107120, Note_on_c, 4, 58, 42
6, 107160, Note_on_c, 4, 58, 0
6, 107160, Note_on_c, 4, 70, 62
6, 107160, Note_on_c, 4, 62, 73
6, 107200, Note_on_c, 4, 70, 0
6, 107200, Note_on_c, 4, 74, 72
6, 107240, Note_on_c, 4, 74, 0
6, 107240, Note_on_c, 4, 79, 81
6, 107280, Note_on_c, 4, 79, 0
6, 107280, Note_on_c, 4, 62, 0
6, 107280, Note_on_c, 4, 82, 62
6, 107320, Note_on_c, 4, 82, 0
6, 107320, Note_on_c, 4, 79, 60
6, 107360, Note_on_c, 4, 79, 0
6, 107360, Note_on_c, 4, 76, 69
6, 107400, Note_on_c, 4, 76, 0
6, 107400, Note_on_c, 4, 79, 61
6, 107440, Note_on_c, 4, 79, 0
6, 107440, Note_on_c, 4, 76, 68
6, 107480, Note_on_c, 4, 76, 0
6, 107480, Note_on_c, 4, 73, 59
6, 107520, Note_on_c, 4, 73, 0
6, 107520, Note_on_c, 4, 38, 63
6, 107560, Note_on_c, 4, 38, 0
6, 107560, Note_on_c, 4, 42, 56
6, 107600, Note_on_c, 4, 42, 0
6, 107600, Note_on_c, 4, 45, 62
6, 107640, Note_on_c, 4, 45, 0
6, 107640, Note_on_c, 4, 62, 65
6, 107640, Note_on_c, 4, 50, 70
6, 107680, Note_on_c, 4, 50, 0
6, 107680, Note_on_c, 4, 62, 0
6, 107680, Note_on_c, 4, 66, 78
6, 107680, Note_on_c, 4, 54, 73
6, 107720, Note_on_c, 4, 54, 0
6, 107720, Note_on_c, 4, 66, 0
6, 107720, Note_on_c, 4, 69, 76
6, 107720, Note_on_c, 4, 57, 77
6, 107760, Note_on_c, 4, 57, 0
6, 107760, Note_on_c, 4, 69, 0
6, 107760, Note_on_c, 4, 74, 84
6, 107760, Note_on_c, 4, 62, 78
6, 107800, Note_on_c, 4, 74, 0
6, 107800, Note_on_c, 4, 69, 89
6, 107840, Note_on_c, 4, 69, 0
6, 107840, Note_on_c, 4, 66, 73
6, 107880, Note_on_c, 4, 66, 0
6, 107880, Note_on_c, 4, 62, 0
6, 107880, Note_on_c, 4, 72, 65
6, 107920, Note_on_c, 4, 72, 0
6, 107920, Note_on_c, 4, 69, 94
6, 107960, Note_on_c, 4, 69, 0
6, 107960, Note_on_c, 4, 66, 74
6, 108000, Note_on_c, 4, 66, 0
6, 108000, Note_on_c, 4, 38, 76
6, 108040, Note_on_c, 4, 38, 0
6, 108040, Note_on_c, 4, 43, 82
6, 108080, Note_on_c, 4, 43, 0
6, 108080, Note_on_c, 4, 46, 80
6, 108120, Note_on_c, 4, 46, 0
6, 108120, Note_on_c, 4, 58, 73
6, 108120, Note_on_c, 4, 50, 85
6, 108160, Note_on_c, 4, 50, 0
6, 108160, Note_on_c, 4, 58, 0
6, 108160, Note_on_c, 4, 62, 86
6, 108160, Note_on_c, 4, 55, 84
6, 108200, Note_on_c, 4, 55, 0
6, 108200, Note_on_c, 4, 62, 0
6, 108200, Note_on_c, 4, 67, 90
6, 108200, Note_on_c, 4, 58, 76
6, 108240, Note_on_c, 4, 58, 0
6, 108240, Note_on_c, 4, 67, 0
6, 108240, Note_on_c, 4, 70, 90
6, 108240, Note_on_c, 4, 50, 95
6, 108280, Note_on_c, 4, 70, 0
6, 108280, Note_on_c, 4, 67, 94
6, 108320, Note_on_c, 4, 67, 0
6, 108320, Note_on_c, 4, 64, 89
6, 108360, Note_on_c, 4, 64, 0
6, 108360, Note_on_c, 4, 50, 0
6, 108360, Note_on_c, 4, 67, 86
6, 108400, Note_on_c, 4, 67, 0
6, 108400, Note_on_c, 4, 64, 95
6, 108440, Note_on_c, 4, 64, 0
6, 108440, Note_on_c, 4, 61, 72
6, 108480, Note_on_c, 4, 61, 0
6, 108480, Note_on_c, 4, 38, 80
6, 108520, Note_on_c, 4, 38, 0
6, 108520, Note_on_c, 4, 42, 76
6, 108560, Note_on_c, 4, 42, 0
6, 108560, Note_on_c, 4, 45, 81
6, 108600, Note_on_c, 4, 45, 0
6, 108600, Note_on_c, 4, 50, 86
6, 108640, Note_on_c, 4, 50, 0
6, 108640, Note_on_c, 4, 54, 82
6, 108680, Note_on_c, 4, 54, 0
6, 108680, Note_on_c, 4, 57, 101
6, 108720, Note_on_c, 4, 57, 0
6, 108720, Note_on_c, 4, 62, 76
6, 108720, Note_on_c, 4, 50, 86
6, 108760, Note_on_c, 4, 50, 0
6, 108760, Note_on_c, 4, 62, 0
6, 108760, Note_on_c, 4, 66, 86
6, 108760, Note_on_c, 4, 54, 80
6, 108800, Note_on_c, 4, 54, 0
6, 108800, Note_on_c, 4, 66, 0
6, 108800, Note_on_c, 4, 69, 89
6, 108800, Note_on_c, 4, 57, 81
6, 108840, Note_on_c, 4, 57, 0
6, 108840, Note_on_c, 4, 69, 0
6, 108840, Note_on_c, 4, 74, 86
6, 108840, Note_on_c, 4, 62, 82
6, 108880, Note_on_c, 4, 62, 0
6, 108880, Note_on_c, 4, 74, 0
6, 108880, Note_on_c, 4, 78, 85
6, 108880, Note_on_c, 4, 66, 89
6, 108920, Note_on_c, 4, 66, 0
6, 108920, Note_on_c, 4, 78, 0
6, 108920, Note_on_c, 4, 81, 98
6, 108920, Note_on_c, 4, 69, 90
6, 108960, Note_on_c, 4, 69, 0
6, 108960, Note_on_c, 4, 81, 0
6, 108960, Note_on_c, 4, 86, 98
6, 108960, Note_on_c, 4, 74, 99
6, 109080, Note_on_c, 4, 74, 0
6, 109080, Note_on_c, 4, 86, 0
6, 112800, Note_on_c, 4, 75, 94
6, 112800, Note_on_c, 4, 70, 89
6, 112800, Note_on_c, 4, 67, 94
6, 112800, Note_on_c, 4, 63, 76
6, 112800, Note_on_c, 4, 51, 73
6, 112800, Note_on_c, 4, 46, 90
6, 112800, Note_on_c, 4, 43, 94
6, 112800, Note_on_c, 4, 39, 80
6, 112920, Note_on_c, 4, 39, 0
6, 112920, Note_on_c, 4, 43, 0
6, 112920, Note_on_c, 4, 51, 0
6, 112920, Note_on_c, 4, 70, 0
6, 112920, Note_on_c, 4, 67, 0
6, 112920, Note_on_c, 4, 63, 0
6, 112920, Note_on_c, 4, 46, 0
6, 112920, Note_on_c, 4, 63, 43
6, 112920, Note_on_c, 4, 58, 65
6, 112920, Note_on_c, 4, 55, 56
6, 112980, Note_on_c, 4, 75, 0
6, 112980, Note_on_c, 4, 77, 68
6, 113040, Note_on_c, 4, 77, 0
6, 113040, Note_on_c, 4, 55, 0
6, 113040, Note_on_c, 4, 58, 0
6, 113040, Note_on_c, 4, 63, 0
6, 113040, Note_on_c, 4, 79, 67
6, 113040, Note_on_c, 4, 63, 36
6, 113040, Note_on_c, 4, 58, 49
6, 113040, Note_on_c, 4, 55, 40
6, 113100, Note_on_c, 4, 79, 0
6, 113100, Note_on_c, 4, 80, 46
6, 113160, Note_on_c, 4, 80, 0
6, 113160, Note_on_c, 4, 55, 0
6, 113160, Note_on_c, 4, 58, 0
6, 113160, Note_on_c, 4, 63, 0
6, 113160, Note_on_c, 4, 63, 33
6, 113160, Note_on_c, 4, 82, 69
6, 113160, Note_on_c, 4, 58, 43
6, 113160, Note_on_c, 4, 55, 40
6, 113220, Note_on_c, 4, 82, 0
6, 113220, Note_on_c, 4, 79, 64
6, 113280, Note_on_c, 4, 79, 0
6, 113280, Note_on_c, 4, 55, 0
6, 113280, Note_on_c, 4, 58, 0
6, 113280, Note_on_c, 4, 63, 0
6, 113280, Note_on_c, 4, 75, 68
6, 113340, Note_on_c, 4, 75, 0
6, 113400, Note_on_c, 4, 87, 43
6, 113400, Note_on_c, 4, 63, 40
6, 113400, Note_on_c, 4, 58, 53
6, 113400, Note_on_c, 4, 55, 53
6, 113460, Note_on_c, 4, 87, 0
6, 113460, Note_on_c, 4, 86, 46
6, 113520, Note_on_c, 4, 86, 0
6, 113520, Note_on_c, 4, 55, 0
6, 113520, Note_on_c, 4, 58, 0
6, 113520, Note_on_c, 4, 63, 0
6, 113520, Note_on_c, 4, 89, 45
6, 113520, Note_on_c, 4, 63, 35
6, 113520, Note_on_c, 4, 58, 40
6, 113520, Note_on_c, 4, 55, 43
6, 113580, Note_on_c, 4, 89, 0
6, 113580, Note_on_c, 4, 87, 49
6, 113640, Note_on_c, 4, 87, 0
6, 113640, Note_on_c, 4, 55, 0
6, 113640, Note_on_c, 4, 58, 0
6, 113640, Note_on_c, 4, 63, 0
6, 113640, Note_on_c, 4, 63, 42
6, 113640, Note_on_c, 4, 58, 36
6, 113640, Note_on_c, 4, 82, 69
6, 113640, Note_on_c, 4, 55, 45
6, 113700, Note_on_c, 4, 82, 0
6, 113700, Note_on_c, 4, 79, 45
6, 113760, Note_on_c, 4, 79, 0
6, 113760, Note_on_c, 4, 55, 0
6, 113760, Note_on_c, 4, 58, 0
6, 113760, Note_on_c, 4, 63, 0
6, 113760, Note_on_c, 4, 77, 77
6, 113820, Note_on_c, 4, 77, 0
6, 113820, Note_on_c, 4, 79, 80
6, 113840, Note_on_c, 4, 79, 0
6, 113840, Note_on_c, 4, 77, 65
6, 113860, Note_on_c, 4, 77, 0
6, 113860, Note_on_c, 4, 75, 80
6, 113880, Note_on_c, 4, 75, 0
6, 113880, Note_on_c, 4, 77, 67
6, 113880, Note_on_c, 4, 65, 43
6, 113880, Note_on_c, 4, 63, 44
6, 113880, Note_on_c, 4, 60, 60
6, 113880, Note_on_c, 4, 56, 36
6, 113940, Note_on_c, 4, 77, 0
6, 113940, Note_on_c, 4, 79, 69
6, 114000, Note_on_c, 4, 79, 0
6, 114000, Note_on_c, 4, 56, 0
6, 114000, Note_on_c, 4, 65, 0
6, 114000, Note_on_c, 4, 63, 0
6, 114000, Note_on_c, 4, 60, 0
6, 114000, Note_on_c, 4, 80, 73
6, 114000, Note_on_c, 4, 65, 46
6, 114000, Note_on_c, 4, 63, 44
6, 114000, Note_on_c, 4, 60, 72
6, 114000, Note_on_c, 4, 56, 43
6, 114060, Note_on_c, 4, 80, 0
6, 114060, Note_on_c, 4, 82, 73
6, 114120, Note_on_c, 4, 82, 0
6, 114120, Note_on_c, 4, 56, 0
6, 114120, Note_on_c, 4, 65, 0
6, 114120, Note_on_c, 4, 63, 0
6, 114120, Note_on_c, 4, 60, 0
6, 114120, Note_on_c, 4, 65, 38
6, 114120, Note_on_c, 4, 63, 42
6, 114120, Note_on_c, 4, 60, 64
6, 114120, Note_on_c, 4, 84, 53
6, 114120, Note_on_c, 4, 56, 34
6, 114180, Note_on_c, 4, 84, 0
6, 114180, Note_on_c, 4, 82, 76
6, 114240, Note_on_c, 4, 82, 0
6, 114240, Note_on_c, 4, 56, 0
6, 114240, Note_on_c, 4, 65, 0
6, 114240, Note_on_c, 4, 63, 0
6, 114240, Note_on_c, 4, 60, 0
6, 114240, Note_on_c, 4, 80, 71
6, 114300, Note_on_c, 4, 80, 0
6, 114300, Note_on_c, 4, 79, 46
6, 114360, Note_on_c, 4, 79, 0
6, 114360, Note_on_c, 4, 77, 73
6, 114360, Note_on_c, 4, 65, 40
6, 114360, Note_on_c, 4, 62, 49
6, 114360, Note_on_c, 4, 58, 43
6, 114420, Note_on_c, 4, 77, 0
6, 114420, Note_on_c, 4, 75, 65
6, 114480, Note_on_c, 4, 75, 0
6, 114480, Note_on_c, 4, 58, 0
6, 114480, Note_on_c, 4, 62, 0
6, 114480, Note_on_c, 4, 65, 0
6, 114480, Note_on_c, 4, 74, 74
6, 114480, Note_on_c, 4, 65, 45
6, 114480, Note_on_c, 4, 62, 57
6, 114480, Note_on_c, 4, 58, 40
6, 114540, Note_on_c, 4, 74, 0
6, 114540, Note_on_c, 4, 72, 76
6, 114600, Note_on_c, 4, 72, 0
6, 114600, Note_on_c, 4, 58, 0
6, 114600, Note_on_c, 4, 62, 0
6, 114600, Note_on_c, 4, 65, 0
6, 114600, Note_on_c, 4, 65, 43
6, 114600, Note_on_c, 4, 62, 50
6, 114600, Note_on_c, 4, 70, 67
6, 114600, Note_on_c, 4, 58, 43
6, 114660, Note_on_c, 4, 70, 0
6, 114660, Note_on_c, 4, 68, 61
6, 114720, Note_on_c, 4, 68, 0
6, 114720, Note_on_c, 4, 58, 0
6, 114720, Note_on_c, 4, 62, 0
6, 114720, Note_on_c, 4, 65, 0
6, 114720, Note_on_c, 4, 67, 72
6, 114720, Note_on_c, 4, 38, 68
6, 114760, Note_on_c, 4, 67, 0
6, 114760, Note_on_c, 4, 69, 68
6, 114800, Note_on_c, 4, 69, 0
6, 114800, Note_on_c, 4, 70, 53
6, 114840, Note_on_c, 4, 70, 0
6, 114840, Note_on_c, 4, 71, 59
6, 114840, Note_on_c, 4, 67, 40
6, 114840, Note_on_c, 4, 65, 53
6, 114840, Note_on_c, 4, 62, 51
6, 114880, Note_on_c, 4, 71, 0
6, 114880, Note_on_c, 4, 72, 61
6, 114920, Note_on_c, 4, 72, 0
6, 114920, Note_on_c, 4, 73, 62
6, 114960, Note_on_c, 4, 73, 0
6, 114960, Note_on_c, 4, 65, 0
6, 114960, Note_on_c, 4, 62, 0
6, 114960, Note_on_c, 4, 67, 0
6, 114960, Note_on_c, 4, 74, 74
6, 114960, Note_on_c, 4, 67, 52
6, 114960, Note_on_c, 4, 65, 67
6, 114960, Note_on_c, 4, 62, 70
6, 115000, Note_on_c, 4, 74, 0
6, 115000, Note_on_c, 4, 75, 82
6, 115040, Note_on_c, 4, 75, 0
6, 115040, Note_on_c, 4, 76, 80
6, 115080, Note_on_c, 4, 76, 0
6, 115080, Note_on_c, 4, 65, 0
6, 115080, Note_on_c, 4, 62, 0
6, 115080, Note_on_c, 4, 67, 0
6, 115080, Note_on_c, 4, 67, 70
6, 115080, Note_on_c, 4, 77, 82
6, 115080, Note_on_c, 4, 65, 84
6, 115080, Note_on_c, 4, 62, 71
6, 115120, Note_on_c, 4, 77, 0
6, 115120, Note_on_c, 4, 78, 85
6, 115160, Note_on_c, 4, 78, 0
6, 115160, Note_on_c, 4, 79, 80
6, 115200, Note_on_c, 4, 79, 0
6, 115200, Note_on_c, 4, 65, 0
6, 115200, Note_on_c, 4, 38, 0
6, 115200, Note_on_c, 4, 67, 0
6, 115200, Note_on_c, 4, 62, 0
6, 115200, Note_on_c, 4, 80, 82
6, 115200, Note_on_c, 4, 60, 84
6, 115200, Note_on_c, 4, 60, 84
6, 115230, Note_on_c, 4, 80, 0
6, 115230, Note_on_c, 4, 81, 94
6, 115260, Note_on_c, 4, 81, 0
6, 115260, Note_on_c, 4, 82, 81
6, 115290, Note_on_c, 4, 82, 0
6, 115290, Note_on_c, 4, 83, 89
6, 115320, Note_on_c, 4, 83, 0
6, 115320, Note_on_c, 4, 60, 0
6, 115320, Note_on_c, 4, 84, 89
6, 115320, Note_on_c, 4, 67, 73
6, 115320, Note_on_c, 4, 63, 89
6, 115350, Note_on_c, 4, 84, 0
6, 115350, Note_on_c, 4, 85, 89
6, 115380, Note_on_c, 4, 85, 0
6, 115380, Note_on_c, 4, 86, 101
6, 115410, Note_on_c, 4, 86, 0
6, 115410, Note_on_c, 4, 87, 94
6, 115440, Note_on_c, 4, 87, 0
6, 115440, Note_on_c, 4, 63, 0
6, 115440, Note_on_c, 4, 67, 0
6, 115440, Note_on_c, 4, 60, 0
6, 115440, Note_on_c, 4, 86, 105
6, 115440, Note_on_c, 4, 58, 93
6, 115440, Note_on_c, 4, 58, 90
6, 115470, Note_on_c, 4, 86, 0
6, 115470, Note_on_c, 4, 87, 95
6, 115500, Note_on_c, 4, 87, 0
6, 115500, Note_on_c, 4, 86, 99
6, 115530, Note_on_c, 4, 86, 0
6, 115530, Note_on_c, 4, 87, 98
6, 115560, Note_on_c, 4, 87, 0
6, 115560, Note_on_c, 4, 58, 0
6, 115560, Note_on_c, 4, 86, 101
6, 115560, Note_on_c, 4, 67, 84
6, 115560, Note_on_c, 4, 63, 81
6, 115560, Note_on_c, 4, 60, 93
6, 115590, Note_on_c, 4, 86, 0
6, 115590, Note_on_c, 4, 87, 98
6, 115620, Note_on_c, 4, 87, 0
6, 115620, Note_on_c, 4, 86, 99
6, 115650, Note_on_c, 4, 86, 0
6, 115650, Note_on_c, 4, 87, 99
6, 115680, Note_on_c, 4, 87, 0
6, 115680, Note_on_c, 4, 60, 0
6, 115680, Note_on_c, 4, 58, 0
6, 115680, Note_on_c, 4, 67, 0
6, 115680, Note_on_c, 4, 63, 0
6, 115680, Note_on_c, 4, 87, 99
6, 115700, Note_on_c, 4, 87, 0
6, 115700, Note_on_c, 4, 89, 95
6, 115720, Note_on_c, 4, 89, 0
6, 115720, Note_on_c, 4, 87, 99
6, 115740, Note_on_c, 4, 87, 0
6, 115740, Note_on_c, 4, 89, 94
6, 115740, Note_on_c, 4, 45, 94
6, 115755, Note_on_c, 4, 89, 0
6, 115755, Note_on_c, 4, 87, 99
6, 115770, Note_on_c, 4, 87, 0
6, 115770, Note_on_c, 4, 89, 99
6, 115785, Note_on_c, 4, 89, 0
6, 115785, Note_on_c, 4, 87, 99
6, 115800, Note_on_c, 4, 87, 0
6, 115800, Note_on_c, 4, 45, 0
6, 115800, Note_on_c, 4, 89, 93
6, 115800, Note_on_c, 4, 48, 94
6, 115820, Note_on_c, 4, 89, 0
6, 115820, Note_on_c, 4, 87, 99
6, 115840, Note_on_c, 4, 87, 0
6, 115840, Note_on_c, 4, 89, 101
6, 115860, Note_on_c, 4, 89, 0
6, 115860, Note_on_c, 4, 48, 0
6, 115860, Note_on_c, 4, 87, 94
6, 115860, Note_on_c, 4, 53, 82
6, 115875, Note_on_c, 4, 87, 0
6, 115875, Note_on_c, 4, 89, 95
6, 115890, Note_on_c, 4, 89, 0
6, 115890, Note_on_c, 4, 87, 101
6, 115905, Note_on_c, 4, 87, 0
6, 115905, Note_on_c, 4, 89, 105
6, 115920, Note_on_c, 4, 89, 0
6, 115920, Note_on_c, 4, 53, 0
6, 115920, Note_on_c, 4, 87, 99
6, 115920, Note_on_c, 4, 57, 94
6, 115940, Note_on_c, 4, 87, 0
6, 115940, Note_on_c, 4, 89, 105
6, 115960, Note_on_c, 4, 89, 0
6, 115960, Note_on_c, 4, 87, 95
6, 115980, Note_on_c, 4, 87, 0
6, 115980, Note_on_c, 4, 57, 0
6, 115980, Note_on_c, 4, 89, 101
6, 115980, Note_on_c, 4, 60, 95
6, 115995, Note_on_c, 4, 89, 0
6, 115995, Note_on_c, 4, 87, 94
6, 116010, Note_on_c, 4, 87, 0
6, 116010, Note_on_c, 4, 89, 99
6, 116025, Note_on_c, 4, 89, 0
6, 116025, Note_on_c, 4, 87, 95
6, 116040, Note_on_c, 4, 87, 0
6, 116040, Note_on_c, 4, 60, 0
6, 116040, Note_on_c, 4, 89, 104
6, 116040, Note_on_c, 4, 63, 95
6, 116060, Note_on_c, 4, 89, 0
6, 116060, Note_on_c, 4, 87, 95
6, 116080, Note_on_c, 4, 87, 0
6, 116080, Note_on_c, 4, 89, 105
6, 116100, Note_on_c, 4, 89, 0
6, 116100, Note_on_c, 4, 63, 0
6, 116100, Note_on_c, 4, 87, 95
6, 116100, Note_on_c, 4, 65, 93
6, 116115, Note_on_c, 4, 87, 0
6, 116115, Note_on_c, 4, 89, 99
6, 116130, Note_on_c, 4, 89, 0
6, 116130, Note_on_c, 4, 86, 105
6, 116145, Note_on_c, 4, 86, 0
6, 116145, Note_on_c, 4, 87, 105
6, 116160, Note_on_c, 4, 87, 0
6, 116160, Note_on_c, 4, 65, 0
6, 116160, Note_on_c, 4, 89, 105
6, 116220, Note_on_c, 4, 44, 95
6, 116280, Note_on_c, 4, 44, 0
6, 116280, Note_on_c, 4, 50, 105
6, 116340, Note_on_c, 4, 50, 0
6, 116340, Note_on_c, 4, 53, 89
6, 116400, Note_on_c, 4, 53, 0
6, 116400, Note_on_c, 4, 89, 0
6, 116400, Note_on_c, 4, 87, 98
6, 116400, Note_on_c, 4, 56, 95
6, 116460, Note_on_c, 4, 56, 0
6, 116460, Note_on_c, 4, 87, 0
6, 116460, Note_on_c, 4, 86, 94
6, 116460, Note_on_c, 4, 58, 89
6, 116520, Note_on_c, 4, 58, 0
6, 116520, Note_on_c, 4, 86, 0
6, 116520, Note_on_c, 4, 84, 80
6, 116520, Note_on_c, 4, 62, 67
6, 116580, Note_on_c, 4, 62, 0
6, 116580, Note_on_c, 4, 84, 0
6, 116580, Note_on_c, 4, 82, 65
6, 116580, Note_on_c, 4, 65, 57
6, 116640, Note_on_c, 4, 65, 0
6, 116640, Note_on_c, 4, 82, 0
6, 116640, Note_on_c, 4, 63, 55
6, 116640, Note_on_c, 4, 58, 58
6, 116640, Note_on_c, 4, 55, 43
6, 116680, Note_on_c, 4, 87, 71
6, 116720, Note_on_c, 4, 87, 0
6, 116720, Note_on_c, 4, 86, 44
6, 116760, Note_on_c, 4, 86, 0
6, 116760, Note_on_c, 4, 55, 0
6, 116760, Note_on_c, 4, 58, 0
6, 116760, Note_on_c, 4, 63, 0
6, 116760, Note_on_c, 4, 87, 65
6, 116800, Note_on_c, 4, 87, 0
6, 116800, Note_on_c, 4, 82, 71
6, 116840, Note_on_c, 4, 82, 0
6, 116840, Note_on_c, 4, 79, 57
6, 116880, Note_on_c, 4, 79, 0
6, 116880, Note_on_c, 4, 65, 43
6, 116880, Note_on_c, 4, 60, 57
6, 116880, Note_on_c, 4, 56, 36
6, 116920, Note_on_c, 4, 84, 60
6, 116960, Note_on_c, 4, 84, 0
6, 116960, Note_on_c, 4, 83, 61
6, 117000, Note_on_c, 4, 83, 0
6, 117000, Note_on_c, 4, 56, 0
6, 117000, Note_on_c, 4, 60, 0
6, 117000, Note_on_c, 4, 65, 0
6, 117000, Note_on_c, 4, 84, 45
6, 117040, Note_on_c, 4, 84, 0
6, 117040, Note_on_c, 4, 80, 62
6, 117080, Note_on_c, 4, 80, 0
6, 117080, Note_on_c, 4, 77, 55
6, 117120, Note_on_c, 4, 77, 0
6, 117120, Note_on_c, 4, 67, 43
6, 117120, Note_on_c, 4, 63, 53
6, 117120, Note_on_c, 4, 58, 43
6, 117160, Note_on_c, 4, 82, 48
6, 117200, Note_on_c, 4, 82, 0
6, 117200, Note_on_c, 4, 81, 71
6, 117240, Note_on_c, 4, 81, 0
6, 117240, Note_on_c, 4, 58, 0
6, 117240, Note_on_c, 4, 63, 0
6, 117240, Note_on_c, 4, 67, 0
6, 117240, Note_on_c, 4, 82, 56
6, 117280, Note_on_c, 4, 82, 0
6, 117280, Note_on_c, 4, 79, 74
6, 117320, Note_on_c, 4, 79, 0
6, 117320, Note_on_c, 4, 75, 67
6, 117360, Note_on_c, 4, 75, 0
6, 117360, Note_on_c, 4, 80, 62
6, 117360, Note_on_c, 4, 56, 39
6, 117360, Note_on_c, 4, 53, 58
6, 117360, Note_on_c, 4, 46, 50
6, 117400, Note_on_c, 4, 80, 0
6, 117400, Note_on_c, 4, 77, 74
6, 117440, Note_on_c, 4, 77, 0
6, 117440, Note_on_c, 4, 74, 80
6, 117460, Note_on_c, 4, 74, 0
6, 117480, Note_on_c, 4, 56, 0
6, 117480, Note_on_c, 4, 53, 0
6, 117480, Note_on_c, 4, 46, 0
6, 117480, Note_on_c, 4, 70, 72
6, 117500, Note_on_c, 4, 70, 0
6, 117520, Note_on_c, 4, 68, 84
6, 117540, Note_on_c, 4, 68, 0
6, 117560, Note_on_c, 4, 65, 73
6, 117580, Note_on_c, 4, 65, 0
6, 117600, Note_on_c, 4, 63, 71
6, 117600, Note_on_c, 4, 55, 37
6, 117600, Note_on_c, 4, 51, 62
6, 117680, Note_on_c, 4, 63, 0
6, 117720, Note_on_c, 4, 51, 0
6, 117720, Note_on_c, 4, 55, 0
6, 118080, Note_on_c, 4, 39, 69
6, 118100, Note_on_c, 4, 39, 0
6, 118120, Note_on_c, 4, 43, 69
6, 118140, Note_on_c, 4, 43, 0
6, 118160, Note_on_c, 4, 46, 43
6, 118180, Note_on_c, 4, 46, 0
6, 118200, Note_on_c, 4, 51, 76
6, 118220, Note_on_c, 4, 51, 0
6, 118240, Note_on_c, 4, 55, 68
6, 118260, Note_on_c, 4, 55, 0
6, 118280, Note_on_c, 4, 58, 46
6, 118300, Note_on_c, 4, 58, 0
6, 118320, Note_on_c, 4, 63, 68
6, 118340, Note_on_c, 4, 63, 0
6, 118360, Note_on_c, 4, 67, 55
6, 118380, Note_on_c, 4, 67, 0
6, 118400, Note_on_c, 4, 70, 45
6, 118420, Note_on_c, 4, 70, 0
6, 118440, Note_on_c, 4, 75, 69
6, 118460, Note_on_c, 4, 75, 0
6, 118480, Note_on_c, 4, 79, 80
6, 118500, Note_on_c, 4, 79, 0
6, 118520, Note_on_c, 4, 82, 66
6, 118540, Note_on_c, 4, 82, 0
6, 118560, Note_on_c, 4, 87, 62
6, 118680, Note_on_c, 4, 87, 0
6, 119040, Note_on_c, 4, 51, 76
6, 119080, Note_on_c, 4, 51, 0
6, 119080, Note_on_c, 4, 55, 76
6, 119120, Note_on_c, 4, 55, 0
6, 119120, Note_on_c, 4, 58, 61
6, 119160, Note_on_c, 4, 58, 0
6, 119160, Note_on_c, 4, 63, 74
6, 119200, Note_on_c, 4, 63, 0
6, 119200, Note_on_c, 4, 67, 43
6, 119240, Note_on_c, 4, 67, 0
6, 119240, Note_on_c, 4, 70, 45
6, 119280, Note_on_c, 4, 70, 0
6, 119280, Note_on_c, 4, 75, 64
6, 119320, Note_on_c, 4, 75, 0
6, 119320, Note_on_c, 4, 79, 64
6, 119360, Note_on_c, 4, 79, 0
6, 119360, Note_on_c, 4, 82, 65
6, 119400, Note_on_c, 4, 82, 0
6, 119400, Note_on_c, 4, 87, 43
6, 119440, Note_on_c, 4, 87, 0
6, 119440, Note_on_c, 4, 86, 66
6, 119480, Note_on_c, 4, 86, 0
6, 119480, Note_on_c, 4, 84, 76
6, 119520, Note_on_c, 4, 84, 0
6, 119520, Note_on_c, 4, 83, 72
6, 119640, Note_on_c, 4, 83, 0
6, 120000, Note_on_c, 4, 43, 58
6, 120040, Note_on_c, 4, 43, 0
6, 120040, Note_on_c, 4, 47, 72
6, 120080, Note_on_c, 4, 47, 0
6, 120080, Note_on_c, 4, 50, 59
6, 120120, Note_on_c, 4, 50, 0
6, 120120, Note_on_c, 4, 55, 64
6, 120160, Note_on_c, 4, 55, 0
6, 120160, Note_on_c, 4, 59, 70
6, 120200, Note_on_c, 4, 59, 0
6, 120200, Note_on_c, 4, 62, 43
6, 120240, Note_on_c, 4, 62, 0
6, 120240, Note_on_c, 4, 67, 62
6, 120280, Note_on_c, 4, 67, 0
6, 120280, Note_on_c, 4, 71, 74
6, 120320, Note_on_c, 4, 71, 0
6, 120320, Note_on_c, 4, 74, 50
6, 120360, Note_on_c, 4, 74, 0
6, 120360, Note_on_c, 4, 79, 62
6, 120400, Note_on_c, 4, 79, 0
6, 120400, Note_on_c, 4, 83, 71
6, 120440, Note_on_c, 4, 83, 0
6, 120440, Note_on_c, 4, 86, 70
6, 120480, Note_on_c, 4, 86, 0
6, 120480, Note_on_c, 4, 91, 60
6, 120600, Note_on_c, 4, 91, 0
6, 120960, Note_on_c, 4, 89, 61
6, 121000, Note_on_c, 4, 89, 0
6, 121000, Note_on_c, 4, 86, 76
6, 121040, Note_on_c, 4, 86, 0
6, 121040, Note_on_c, 4, 83, 74
6, 121080, Note_on_c, 4, 83, 0
6, 121080, Note_on_c, 4, 79, 66
6, 121120, Note_on_c, 4, 79, 0
6, 121120, Note_on_c, 4, 77, 62
6, 121160, Note_on_c, 4, 77, 0
6, 121160, Note_on_c, 4, 74, 77
6, 121200, Note_on_c, 4, 74, 0
6, 121200, Note_on_c, 4, 71, 68
6, 121240, Note_on_c, 4, 71, 0
6, 121240, Note_on_c, 4, 67, 70
6, 121280, Note_on_c, 4, 67, 0
6, 121280, Note_on_c, 4, 65, 68
6, 121320, Note_on_c, 4, 65, 0
6, 121320, Note_on_c, 4, 62, 64
6, 121320, Note_on_c, 4, 50, 69
6, 121360, Note_on_c, 4, 50, 0
6, 121360, Note_on_c, 4, 62, 0
6, 121360, Note_on_c, 4, 59, 61
6, 121360, Note_on_c, 4, 47, 73
6, 121400, Note_on_c, 4, 47, 0
6, 121400, Note_on_c, 4, 59, 0
6, 121400, Note_on_c, 4, 55, 62
6, 121400, Note_on_c, 4, 43, 58
6, 121440, Note_on_c, 4, 43, 0
6, 121440, Note_on_c, 4, 55, 0
6, 121440, Note_on_c, 4, 60, 44
6, 121440, Note_on_c, 4, 48, 64
6, 121560, Note_on_c, 4, 48, 0
6, 121560, Note_on_c, 4, 60, 0
6, 121920, Note_on_c, 4, 48, 67
6, 121950, Note_on_c, 4, 48, 0
6, 121950, Note_on_c, 4, 51, 45
6, 121980, Note_on_c, 4, 51, 0
6, 121980, Note_on_c, 4, 79, 62
6, 121980, Note_on_c, 4, 55, 46
6, 122010, Note_on_c, 4, 55, 0
6, 122010, Note_on_c, 4, 79, 0
6, 122010, Note_on_c, 4, 60, 59
6, 122040, Note_on_c, 4, 60, 0
6, 122040, Note_on_c, 4, 79, 65
6, 122040, Note_on_c, 4, 51, 45
6, 122070, Note_on_c, 4, 51, 0
6, 122070, Note_on_c, 4, 79, 0
6, 122070, Note_on_c, 4, 55, 56
6, 122100, Note_on_c, 4, 55, 0
6, 122100, Note_on_c, 4, 79, 63
6, 122100, Note_on_c, 4, 60, 69
6, 122130, Note_on_c, 4, 60, 0
6, 122130, Note_on_c, 4, 79, 0
6, 122130, Note_on_c, 4, 63, 53
6, 122160, Note_on_c, 4, 63, 0
6, 122160, Note_on_c, 4, 79, 59
6, 122160, Note_on_c, 4, 55, 52
6, 122180, Note_on_c, 4, 79, 0
6, 122180, Note_on_c, 4, 80, 65
6, 122190, Note_on_c, 4, 55, 0
6, 122190, Note_on_c, 4, 60, 60
6, 122200, Note_on_c, 4, 80, 0
6, 122200, Note_on_c, 4, 79, 53
6, 122220, Note_on_c, 4, 79, 0
6, 122220, Note_on_c, 4, 60, 0
6, 122220, Note_on_c, 4, 80, 67
6, 122220, Note_on_c, 4, 63, 50
6, 122235, Note_on_c, 4, 80, 0
6, 122235, Note_on_c, 4, 79, 61
6, 122250, Note_on_c, 4, 79, 0
6, 122250, Note_on_c, 4, 63, 0
6, 122250, Note_on_c, 4, 78, 64
6, 122250, Note_on_c, 4, 67, 38
6, 122265, Note_on_c, 4, 78, 0
6, 122265, Note_on_c, 4, 79, 51
6, 122280, Note_on_c, 4, 79, 0
6, 122280, Note_on_c, 4, 67, 0
6, 122280, Note_on_c, 4, 87, 89
6, 122280, Note_on_c, 4, 60, 72
6, 122310, Note_on_c, 4, 60, 0
6, 122310, Note_on_c, 4, 63, 78
6, 122340, Note_on_c, 4, 63, 0
6, 122340, Note_on_c, 4, 87, 0
6, 122340, Note_on_c, 4, 84, 69
6, 122340, Note_on_c, 4, 67, 68
6, 122370, Note_on_c, 4, 67, 0
6, 122370, Note_on_c, 4, 72, 43
6, 122400, Note_on_c, 4, 72, 0
6, 122400, Note_on_c, 4, 84, 0
6, 122400, Note_on_c, 4, 83, 62
6, 122400, Note_on_c, 4, 71, 43
6, 122400, Note_on_c, 4, 67, 53
6, 122400, Note_on_c, 4, 65, 63
6, 122400, Note_on_c, 4, 62, 53
6, 122520, Note_on_c, 4, 62, 0
6, 122520, Note_on_c, 4, 67, 0
6, 122520, Note_on_c, 4, 83, 0
6, 122520, Note_on_c, 4, 71, 0
6, 122520, Note_on_c, 4, 65, 0
6, 122880, Note_on_c, 4, 50, 69
6, 122910, Note_on_c, 4, 50, 0
6, 122910, Note_on_c, 4, 53, 72
6, 122940, Note_on_c, 4, 53, 0
6, 122940, Note_on_c, 4, 79, 66
6, 122940, Note_on_c, 4, 59, 74
6, 122970, Note_on_c, 4, 59, 0
6, 122970, Note_on_c, 4, 79, 0
6, 122970, Note_on_c, 4, 62, 52
6, 123000, Note_on_c, 4, 62, 0
6, 123000, Note_on_c, 4, 79, 62
6, 123000, Note_on_c, 4, 53, 51
6, 123030, Note_on_c, 4, 53, 0
6, 123030, Note_on_c, 4, 79, 0
6, 123030, Note_on_c, 4, 59, 71
6, 123060, Note_on_c, 4, 59, 0
6, 123060, Note_on_c, 4, 79, 64
6, 123060, Note_on_c, 4, 62, 64
6, 123090, Note_on_c, 4, 62, 0
6, 123090, Note_on_c, 4, 79, 0
6, 123090, Note_on_c, 4, 65, 63
6, 123120, Note_on_c, 4, 65, 0
6, 123120, Note_on_c, 4, 79, 58
6, 123120, Note_on_c, 4, 59, 53
6, 123140, Note_on_c, 4, 79, 0
6, 123140, Note_on_c, 4, 80, 60
6, 123150, Note_on_c, 4, 59, 0
6, 123150, Note_on_c, 4, 62, 64
6, 123160, Note_on_c, 4, 80, 0
6, 123160, Note_on_c, 4, 79, 50
6, 123180, Note_on_c, 4, 79, 0
6, 123180, Note_on_c, 4, 62, 0
6, 123180, Note_on_c, 4, 80, 62
6, 123180, Note_on_c, 4, 65, 43
6, 123195, Note_on_c, 4, 80, 0
6, 123195, Note_on_c, 4, 79, 50
6, 123210, Note_on_c, 4, 79, 0
6, 123210, Note_on_c, 4, 65, 0
6, 123210, Note_on_c, 4, 78, 68
6, 123210, Note_on_c, 4, 71, 61
6, 123225, Note_on_c, 4, 78, 0
6, 123225, Note_on_c, 4, 79, 56
6, 123240, Note_on_c, 4, 79, 0
6, 123240, Note_on_c, 4, 71, 0
6, 123240, Note_on_c, 4, 89, 89
6, 123240, Note_on_c, 4, 62, 94
6, 123270, Note_on_c, 4, 62, 0
6, 123270, Note_on_c, 4, 65, 62
6, 123300, Note_on_c, 4, 65, 0
6, 123300, Note_on_c, 4, 89, 0
6, 123300, Note_on_c, 4, 86, 85
6, 123300, Note_on_c, 4, 71, 68
6, 123330, Note_on_c, 4, 71, 0
6, 123330, Note_on_c, 4, 74, 74
6, 123360, Note_on_c, 4, 74, 0
6, 123360, Note_on_c, 4, 86, 0
6, 123360, Note_on_c, 4, 85, 71
6, 123360, Note_on_c, 4, 73, 58
6, 123360, Note_on_c, 4, 70, 52
6, 123360, Note_on_c, 4, 67, 45
6, 123360, Note_on_c, 4, 64, 58
6, 123480, Note_on_c, 4, 64, 0
6, 123480, Note_on_c, 4, 70, 0
6, 123480, Note_on_c, 4, 85, 0
6, 123480, Note_on_c, 4, 73, 0
6, 123480, Note_on_c, 4, 67, 0
6, 123900, Note_on_c, 4, 82, 42
6, 123900, Note_on_c, 4, 76, 85
6, 123900, Note_on_c, 4, 73, 43
6, 123900, Note_on_c, 4, 70, 56
6, 123900, Note_on_c, 4, 67, 53
6, 123930, Note_on_c, 4, 67, 0
6, 123930, Note_on_c, 4, 73, 0
6, 123930, Note_on_c, 4, 82, 0
6, 123930, Note_on_c, 4, 76, 0
6, 123930, Note_on_c, 4, 70, 0
6, 123960, Note_on_c, 4, 82, 42
6, 123960, Note_on_c, 4, 76, 72
6, 123960, Note_on_c, 4, 73, 40
6, 123960, Note_on_c, 4, 70, 46
6, 123960, Note_on_c, 4, 67, 45
6, 123990, Note_on_c, 4, 67, 0
6, 123990, Note_on_c, 4, 73, 0
6, 123990, Note_on_c, 4, 82, 0
6, 123990, Note_on_c, 4, 76, 0
6, 123990, Note_on_c, 4, 70, 0
6, 124020, Note_on_c, 4, 82, 40
6, 124020, Note_on_c, 4, 76, 69
6, 124020, Note_on_c, 4, 73, 42
6, 124020, Note_on_c, 4, 70, 58
6, 124020, Note_on_c, 4, 67, 49
6, 124050, Note_on_c, 4, 67, 0
6, 124050, Note_on_c, 4, 73, 0
6, 124050, Note_on_c, 4, 82, 0
6, 124050, Note_on_c, 4, 76, 0
6, 124050, Note_on_c, 4, 70, 0
6, 124080, Note_on_c, 4, 82, 39
6, 124080, Note_on_c, 4, 76, 72
6, 124080, Note_on_c, 4, 73, 40
6, 124080, Note_on_c, 4, 70, 45
6, 124080, Note_on_c, 4, 67, 46
6, 124110, Note_on_c, 4, 67, 0
6, 124110, Note_on_c, 4, 73, 0
6, 124110, Note_on_c, 4, 82, 0
6, 124110, Note_on_c, 4, 76, 0
6, 124110, Note_on_c, 4, 70, 0
6, 124140, Note_on_c, 4, 82, 43
6, 124140, Note_on_c, 4, 76, 76
6, 124140, Note_on_c, 4, 73, 44
6, 124140, Note_on_c, 4, 70, 44
6, 124140, Note_on_c, 4, 67, 45
6, 124170, Note_on_c, 4, 67, 0
6, 124170, Note_on_c, 4, 73, 0
6, 124170, Note_on_c, 4, 82, 0
6, 124170, Note_on_c, 4, 76, 0
6, 124170, Note_on_c, 4, 70, 0
6, 124200, Note_on_c, 4, 82, 36
6, 124200, Note_on_c, 4, 76, 78
6, 124200, Note_on_c, 4, 73, 42
6, 124200, Note_on_c, 4, 70, 57
6, 124200, Note_on_c, 4, 67, 52
6, 124230, Note_on_c, 4, 67, 0
6, 124230, Note_on_c, 4, 73, 0
6, 124230, Note_on_c, 4, 82, 0
6, 124230, Note_on_c, 4, 76, 0
6, 124230, Note_on_c, 4, 70, 0
6, 124260, Note_on_c, 4, 82, 52
6, 124260, Note_on_c, 4, 77, 68
6, 124260, Note_on_c, 4, 73, 73
6, 124260, Note_on_c, 4, 70, 60
6, 124260, Note_on_c, 4, 65, 43
6, 124290, Note_on_c, 4, 65, 0
6, 124290, Note_on_c, 4, 73, 0
6, 124290, Note_on_c, 4, 82, 0
6, 124290, Note_on_c, 4, 77, 0
6, 124290, Note_on_c, 4, 70, 0
6, 124320, Note_on_c, 4, 82, 40
6, 124320, Note_on_c, 4, 79, 66
6, 124320, Note_on_c, 4, 73, 52
6, 124320, Note_on_c, 4, 70, 51
6, 124320, Note_on_c, 4, 64, 59
6, 124440, Note_on_c, 4, 64, 0
6, 124440, Note_on_c, 4, 73, 0
6, 124440, Note_on_c, 4, 82, 0
6, 124440, Note_on_c, 4, 79, 0
6, 124440, Note_on_c, 4, 70, 0
6, 124860, Note_on_c, 4, 82, 38
6, 124860, Note_on_c, 4, 76, 67
6, 124860, Note_on_c, 4, 73, 40
6, 124860, Note_on_c, 4, 70, 43
6, 124860, Note_on_c, 4, 67, 44
6, 124920, Note_on_c, 4, 67, 0
6, 124920, Note_on_c, 4, 73, 0
6, 124920, Note_on_c, 4, 82, 0
6, 124920, Note_on_c, 4, 76, 0
6, 124920, Note_on_c, 4, 70, 0
6, 124920, Note_on_c, 4, 82, 35
6, 124920, Note_on_c, 4, 76, 62
6, 124920, Note_on_c, 4, 73, 38
6, 124920, Note_on_c, 4, 70, 45
6, 124920, Note_on_c, 4, 67, 44
6, 124980, Note_on_c, 4, 67, 0
6, 124980, Note_on_c, 4, 73, 0
6, 124980, Note_on_c, 4, 82, 0
6, 124980, Note_on_c, 4, 76, 0
6, 124980, Note_on_c, 4, 70, 0
6, 124980, Note_on_c, 4, 82, 35
6, 124980, Note_on_c, 4, 76, 69
6, 124980, Note_on_c, 4, 73, 36
6, 124980, Note_on_c, 4, 70, 42
6, 124980, Note_on_c, 4, 67, 43
6, 125040, Note_on_c, 4, 67, 0
6, 125040, Note_on_c, 4, 73, 0
6, 125040, Note_on_c, 4, 82, 0
6, 125040, Note_on_c, 4, 76, 0
6, 125040, Note_on_c, 4, 70, 0
6, 125040, Note_on_c, 4, 82, 32
6, 125040, Note_on_c, 4, 76, 65
6, 125040, Note_on_c, 4, 73, 37
6, 125040, Note_on_c, 4, 70, 46
6, 125040, Note_on_c, 4, 67, 46
6, 125100, Note_on_c, 4, 67, 0
6, 125100, Note_on_c, 4, 73, 0
6, 125100, Note_on_c, 4, 82, 0
6, 125100, Note_on_c, 4, 76, 0
6, 125100, Note_on_c, 4, 70, 0
6, 125100, Note_on_c, 4, 82, 32
6, 125100, Note_on_c, 4, 76, 68
6, 125100, Note_on_c, 4, 73, 33
6, 125100, Note_on_c, 4, 70, 44
6, 125100, Note_on_c, 4, 67, 46
6, 125160, Note_on_c, 4, 67, 0
6, 125160, Note_on_c, 4, 73, 0
6, 125160, Note_on_c, 4, 82, 0
6, 125160, Note_on_c, 4, 76, 0
6, 125160, Note_on_c, 4, 70, 0
6, 125160, Note_on_c, 4, 82, 38
6, 125160, Note_on_c, 4, 76, 73
6, 125160, Note_on_c, 4, 73, 35
6, 125160, Note_on_c, 4, 70, 44
6, 125160, Note_on_c, 4, 67, 57
6, 125220, Note_on_c, 4, 67, 0
6, 125220, Note_on_c, 4, 73, 0
6, 125220, Note_on_c, 4, 82, 0
6, 125220, Note_on_c, 4, 76, 0
6, 125220, Note_on_c, 4, 70, 0
6, 125220, Note_on_c, 4, 82, 35
6, 125220, Note_on_c, 4, 77, 64
6, 125220, Note_on_c, 4, 73, 39
6, 125220, Note_on_c, 4, 70, 46
6, 125220, Note_on_c, 4, 65, 45
6, 125280, Note_on_c, 4, 65, 0
6, 125280, Note_on_c, 4, 73, 0
6, 125280, Note_on_c, 4, 82, 0
6, 125280, Note_on_c, 4, 77, 0
6, 125280, Note_on_c, 4, 70, 0
6, 125280, Note_on_c, 4, 82, 68
6, 125280, Note_on_c, 4, 79, 89
6, 125280, Note_on_c, 4, 73, 72
6, 125280, Note_on_c, 4, 70, 76
6, 125280, Note_on_c, 4, 64, 89
6, 125340, Note_on_c, 4, 64, 0
6, 125340, Note_on_c, 4, 73, 0
6, 125340, Note_on_c, 4, 82, 0
6, 125340, Note_on_c, 4, 79, 0
6, 125340, Note_on_c, 4, 70, 0
6, 125340, Note_on_c, 4, 76, 65
6, 125340, Note_on_c, 4, 73, 33
6, 125340, Note_on_c, 4, 70, 43
6, 125340, Note_on_c, 4, 67, 62
6, 125400, Note_on_c, 4, 67, 0
6, 125400, Note_on_c, 4, 76, 0
6, 125400, Note_on_c, 4, 73, 0
6, 125400, Note_on_c, 4, 70, 0
6, 125400, Note_on_c, 4, 82, 37
6, 125400, Note_on_c, 4, 76, 62
6, 125400, Note_on_c, 4, 73, 35
6, 125400, Note_on_c, 4, 70, 43
6, 125400, Note_on_c, 4, 67, 64
6, 125460, Note_on_c, 4, 67, 0
6, 125460, Note_on_c, 4, 73, 0
6, 125460, Note_on_c, 4, 82, 0
6, 125460, Note_on_c, 4, 76, 0
6, 125460, Note_on_c, 4, 70, 0
6, 125460, Note_on_c, 4, 77, 64
6, 125460, Note_on_c, 4, 73, 35
6, 125460, Note_on_c, 4, 70, 43
6, 125460, Note_on_c, 4, 65, 68
6, 125520, Note_on_c, 4, 65, 0
6, 125520, Note_on_c, 4, 77, 0
6, 125520, Note_on_c, 4, 73, 0
6, 125520, Note_on_c, 4, 70, 0
6, 125520, Note_on_c, 4, 82, 77
6, 125520, Note_on_c, 4, 79, 98
6, 125520, Note_on_c, 4, 73, 77
6, 125520, Note_on_c, 4, 70, 78
6, 125520, Note_on_c, 4, 64, 98
6, 125580, Note_on_c, 4, 64, 0
6, 125580, Note_on_c, 4, 73, 0
6, 125580, Note_on_c, 4, 82, 0
6, 125580, Note_on_c, 4, 79, 0
6, 125580, Note_on_c, 4, 70, 0
6, 125580, Note_on_c, 4, 82, 29
6, 125580, Note_on_c, 4, 76, 63
6, 125580, Note_on_c, 4, 73, 29
6, 125580, Note_on_c, 4, 70, 40
6, 125580, Note_on_c, 4, 67, 59
6, 125640, Note_on_c, 4, 67, 0
6, 125640, Note_on_c, 4, 73, 0
6, 125640, Note_on_c, 4, 82, 0
6, 125640, Note_on_c, 4, 76, 0
6, 125640, Note_on_c, 4, 70, 0
6, 125640, Note_on_c, 4, 82, 37
6, 125640, Note_on_c, 4, 76, 61
6, 125640, Note_on_c, 4, 73, 40
6, 125640, Note_on_c, 4, 70, 43
6, 125640, Note_on_c, 4, 67, 62
6, 125700, Note_on_c, 4, 67, 0
6, 125700, Note_on_c, 4, 73, 0
6, 125700, Note_on_c, 4, 82, 0
6, 125700, Note_on_c, 4, 76, 0
6, 125700, Note_on_c, 4, 70, 0
6, 125700, Note_on_c, 4, 82, 40
6, 125700, Note_on_c, 4, 77, 66
6, 125700, Note_on_c, 4, 73, 31
6, 125700, Note_on_c, 4, 70, 42
6, 125700, Note_on_c, 4, 65, 67
6, 125760, Note_on_c, 4, 65, 0
6, 125760, Note_on_c, 4, 73, 0
6, 125760, Note_on_c, 4, 82, 0
6, 125760, Note_on_c, 4, 77, 0
6, 125760, Note_on_c, 4, 70, 0
6, 125760, Note_on_c, 4, 82, 42
6, 125760, Note_on_c, 4, 79, 73
6, 125760, Note_on_c, 4, 73, 39
6, 125760, Note_on_c, 4, 70, 45
6, 125760, Note_on_c, 4, 64, 70
6, 125820, Note_on_c, 4, 64, 0
6, 125820, Note_on_c, 4, 73, 0
6, 125820, Note_on_c, 4, 82, 0
6, 125820, Note_on_c, 4, 79, 0
6, 125820, Note_on_c, 4, 70, 0
6, 125820, Note_on_c, 4, 85, 46
6, 125820, Note_on_c, 4, 82, 44
6, 125820, Note_on_c, 4, 76, 43
6, 125820, Note_on_c, 4, 73, 33
6, 125820, Note_on_c, 4, 70, 48
6, 125820, Note_on_c, 4, 67, 41
6, 125880, Note_on_c, 4, 67, 0
6, 125880, Note_on_c, 4, 82, 0
6, 125880, Note_on_c, 4, 76, 0
6, 125880, Note_on_c, 4, 85, 0
6, 125880, Note_on_c, 4, 70, 0
6, 125880, Note_on_c, 4, 73, 0
6, 125880, Note_on_c, 4, 85, 36
6, 125880, Note_on_c, 4, 82, 40
6, 125880, Note_on_c, 4, 76, 39
6, 125880, Note_on_c, 4, 73, 37
6, 125880, Note_on_c, 4, 67, 39
6, 125940, Note_on_c, 4, 67, 0
6, 125940, Note_on_c, 4, 76, 0
6, 125940, Note_on_c, 4, 85, 0
6, 125940, Note_on_c, 4, 82, 0
6, 125940, Note_on_c, 4, 73, 0
6, 125940, Note_on_c, 4, 85, 52
6, 125940, Note_on_c, 4, 82, 41
6, 125940, Note_on_c, 4, 76, 45
6, 125940, Note_on_c, 4, 73, 37
6, 125940, Note_on_c, 4, 70, 29
6, 125940, Note_on_c, 4, 67, 42
6, 126000, Note_on_c, 4, 67, 0
6, 126000, Note_on_c, 4, 82, 0
6, 126000, Note_on_c, 4, 76, 0
6, 126000, Note_on_c, 4, 85, 0
6, 126000, Note_on_c, 4, 70, 0
6, 126000, Note_on_c, 4, 73, 0
6, 126000, Note_on_c, 4, 85, 39
6, 126000, Note_on_c, 4, 82, 39
6, 126000, Note_on_c, 4, 76, 40
6, 126000, Note_on_c, 4, 73, 40
6, 126000, Note_on_c, 4, 70, 29
6, 126000, Note_on_c, 4, 67, 43
6, 126060, Note_on_c, 4, 67, 0
6, 126060, Note_on_c, 4, 82, 0
6, 126060, Note_on_c, 4, 76, 0
6, 126060, Note_on_c, 4, 85, 0
6, 126060, Note_on_c, 4, 70, 0
6, 126060, Note_on_c, 4, 73, 0
6, 126060, Note_on_c, 4, 85, 45
6, 126060, Note_on_c, 4, 82, 42
6, 126060, Note_on_c, 4, 76, 43
6, 126060, Note_on_c, 4, 73, 38
6, 126060, Note_on_c, 4, 70, 50
6, 126060, Note_on_c, 4, 67, 43
6, 126120, Note_on_c, 4, 67, 0
6, 126120, Note_on_c, 4, 82, 0
6, 126120, Note_on_c, 4, 76, 0
6, 126120, Note_on_c, 4, 85, 0
6, 126120, Note_on_c, 4, 70, 0
6, 126120, Note_on_c, 4, 73, 0
6, 126120, Note_on_c, 4, 85, 43
6, 126120, Note_on_c, 4, 82, 42
6, 126120, Note_on_c, 4, 76, 42
6, 126120, Note_on_c, 4, 73, 35
6, 126120, Note_on_c, 4, 67, 43
6, 126180, Note_on_c, 4, 67, 0
6, 126180, Note_on_c, 4, 76, 0
6, 126180, Note_on_c, 4, 85, 0
6, 126180, Note_on_c, 4, 82, 0
6, 126180, Note_on_c, 4, 73, 0
6, 126180, Note_on_c, 4, 85, 46
6, 126180, Note_on_c, 4, 82, 45
6, 126180, Note_on_c, 4, 77, 36
6, 126180, Note_on_c, 4, 73, 43
6, 126180, Note_on_c, 4, 70, 29
6, 126180, Note_on_c, 4, 65, 44
6, 126240, Note_on_c, 4, 65, 0
6, 126240, Note_on_c, 4, 82, 0
6, 126240, Note_on_c, 4, 77, 0
6, 126240, Note_on_c, 4, 85, 0
6, 126240, Note_on_c, 4, 70, 0
6, 126240, Note_on_c, 4, 73, 0
6, 126240, Note_on_c, 4, 85, 65
6, 126240, Note_on_c, 4, 82, 72
6, 126240, Note_on_c, 4, 79, 73
6, 126240, Note_on_c, 4, 73, 64
6, 126240, Note_on_c, 4, 70, 85
6, 126240, Note_on_c, 4, 64, 90
6, 126300, Note_on_c, 4, 64, 0
6, 126300, Note_on_c, 4, 82, 0
6, 126300, Note_on_c, 4, 79, 0
6, 126300, Note_on_c, 4, 85, 0
6, 126300, Note_on_c, 4, 70, 0
6, 126300, Note_on_c, 4, 73, 0
6, 126300, Note_on_c, 4, 85, 48
6, 126300, Note_on_c, 4, 82, 44
6, 126300, Note_on_c, 4, 76, 43
6, 126300, Note_on_c, 4, 73, 42
6, 126300, Note_on_c, 4, 70, 64
6, 126300, Note_on_c, 4, 67, 45
6, 126360, Note_on_c, 4, 67, 0
6, 126360, Note_on_c, 4, 82, 0
6, 126360, Note_on_c, 4, 76, 0
6, 126360, Note_on_c, 4, 85, 0
6, 126360, Note_on_c, 4, 70, 0
6, 126360, Note_on_c, 4, 73, 0
6, 126360, Note_on_c, 4, 85, 44
6, 126360, Note_on_c, 4, 82, 43
6, 126360, Note_on_c, 4, 76, 43
6, 126360, Note_on_c, 4, 73, 35
6, 126360, Note_on_c, 4, 70, 29
6, 126360, Note_on_c, 4, 67, 29
6, 126420, Note_on_c, 4, 67, 0
6, 126420, Note_on_c, 4, 82, 0
6, 126420, Note_on_c, 4, 76, 0
6, 126420, Note_on_c, 4, 85, 0
6, 126420, Note_on_c, 4, 70, 0
6, 126420, Note_on_c, 4, 73, 0
6, 126420, Note_on_c, 4, 85, 42
6, 126420, Note_on_c, 4, 82, 43
6, 126420, Note_on_c, 4, 77, 40
6, 126420, Note_on_c, 4, 73, 40
6, 126420, Note_on_c, 4, 65, 44
6, 126480, Note_on_c, 4, 65, 0
6, 126480, Note_on_c, 4, 77, 0
6, 126480, Note_on_c, 4, 85, 0
6, 126480, Note_on_c, 4, 82, 0
6, 126480, Note_on_c, 4, 73, 0
6, 126480, Note_on_c, 4, 85, 68
6, 126480, Note_on_c, 4, 82, 73
6, 126480, Note_on_c, 4, 79, 70
6, 126480, Note_on_c, 4, 73, 69
6, 126480, Note_on_c, 4, 70, 84
6, 126480, Note_on_c, 4, 64, 98
6, 126540, Note_on_c, 4, 64, 0
6, 126540, Note_on_c, 4, 82, 0
6, 126540, Note_on_c, 4, 79, 0
6, 126540, Note_on_c, 4, 85, 0
6, 126540, Note_on_c, 4, 70, 0
6, 126540, Note_on_c, 4, 73, 0
6, 126540, Note_on_c, 4, 85, 38
6, 126540, Note_on_c, 4, 82, 35
6, 126540, Note_on_c, 4, 76, 29
6, 126540, Note_on_c, 4, 73, 35
6, 126540, Note_on_c, 4, 70, 31
6, 126540, Note_on_c, 4, 67, 29
6, 126600, Note_on_c, 4, 67, 0
6, 126600, Note_on_c, 4, 82, 0
6, 126600, Note_on_c, 4, 76, 0
6, 126600, Note_on_c, 4, 85, 0
6, 126600, Note_on_c, 4, 70, 0
6, 126600, Note_on_c, 4, 73, 0
6, 126600, Note_on_c, 4, 85, 42
6, 126600, Note_on_c, 4, 82, 40
6, 126600, Note_on_c, 4, 76, 42
6, 126600, Note_on_c, 4, 73, 43
6, 126600, Note_on_c, 4, 67, 61
6, 126660, Note_on_c, 4, 67, 0
6, 126660, Note_on_c, 4, 76, 0
6, 126660, Note_on_c, 4, 85, 0
6, 126660, Note_on_c, 4, 82, 0
6, 126660, Note_on_c, 4, 73, 0
6, 126660, Note_on_c, 4, 85, 45
6, 126660, Note_on_c, 4, 82, 48
6, 126660, Note_on_c, 4, 77, 53
6, 126660, Note_on_c, 4, 73, 40
6, 126660, Note_on_c, 4, 65, 56
6, 126720, Note_on_c, 4, 65, 0
6, 126720, Note_on_c, 4, 77, 0
6, 126720, Note_on_c, 4, 85, 0
6, 126720, Note_on_c, 4, 82, 0
6, 126720, Note_on_c, 4, 73, 0
6, 126720, Note_on_c, 4, 85, 76
6, 126720, Note_on_c, 4, 82, 93
6, 126720, Note_on_c, 4, 79, 94
6, 126720, Note_on_c, 4, 73, 76
6, 126720, Note_on_c, 4, 70, 101
6, 126720, Note_on_c, 4, 64, 107
6, 126750, Note_on_c, 4, 79, 0
6, 126750, Note_on_c, 4, 85, 0
6, 126750, Note_on_c, 4, 82, 0
6, 126780, Note_on_c, 4, 82, 81
6, 126810, Note_on_c, 4, 82, 0
6, 126840, Note_on_c, 4, 64, 0
6, 126840, Note_on_c, 4, 70, 0
6, 126840, Note_on_c, 4, 73, 0
6, 126840, Note_on_c, 4, 82, 81
6, 126900, Note_on_c, 4, 82, 0
6, 126900, Note_on_c, 4, 84, 84
6, 126960, Note_on_c, 4, 84, 0
6, 126960, Note_on_c, 4, 85, 81
6, 126960, Note_on_c, 4, 73, 65
6, 126960, Note_on_c, 4, 70, 80
6, 126960, Note_on_c, 4, 65, 85
6, 126990, Note_on_c, 4, 85, 0
6, 127020, Note_on_c, 4, 82, 82
6, 127050, Note_on_c, 4, 82, 0
6, 127080, Note_on_c, 4, 65, 0
6, 127080, Note_on_c, 4, 70, 0
6, 127080, Note_on_c, 4, 73, 0
6, 127080, Note_on_c, 4, 82, 80
6, 127140, Note_on_c, 4, 82, 0
6, 127140, Note_on_c, 4, 84, 76
6, 127200, Note_on_c, 4, 84, 0
6, 127200, Note_on_c, 4, 85, 71
6, 127200, Note_on_c, 4, 73, 54
6, 127200, Note_on_c, 4, 70, 72
6, 127200, Note_on_c, 4, 66, 72
6, 127230, Note_on_c, 4, 85, 0
6, 127260, Note_on_c, 4, 82, 73
6, 127290, Note_on_c, 4, 82, 0
6, 127320, Note_on_c, 4, 66, 0
6, 127320, Note_on_c, 4, 70, 0
6, 127320, Note_on_c, 4, 73, 0
6, 127320, Note_on_c, 4, 82, 76
6, 127380, Note_on_c, 4, 82, 0
6, 127380, Note_on_c, 4, 84, 68
6, 127440, Note_on_c, 4, 84, 0
6, 127440, Note_on_c, 4, 85, 68
6, 127440, Note_on_c, 4, 73, 33
6, 127440, Note_on_c, 4, 70, 52
6, 127440, Note_on_c, 4, 65, 53
6, 127470, Note_on_c, 4, 85, 0
6, 127500, Note_on_c, 4, 82, 61
6, 127530, Note_on_c, 4, 82, 0
6, 127560, Note_on_c, 4, 65, 0
6, 127560, Note_on_c, 4, 70, 0
6, 127560, Note_on_c, 4, 73, 0
6, 127560, Note_on_c, 4, 82, 69
6, 127620, Note_on_c, 4, 82, 0
6, 127620, Note_on_c, 4, 84, 59
6, 127680, Note_on_c, 4, 84, 0
6, 127680, Note_on_c, 4, 73, 43
6, 127680, Note_on_c, 4, 70, 56
6, 127680, Note_on_c, 4, 64, 65
6, 127720, Note_on_c, 4, 85, 60
6, 127760, Note_on_c, 4, 85, 0
6, 127760, Note_on_c, 4, 84, 49
6, 127800, Note_on_c, 4, 84, 0
6, 127800, Note_on_c, 4, 64, 0
6, 127800, Note_on_c, 4, 70, 0
6, 127800, Note_on_c, 4, 73, 0
6, 127800, Note_on_c, 4, 85, 46
6, 127840, Note_on_c, 4, 85, 0
6, 127840, Note_on_c, 4, 82, 52
6, 127880, Note_on_c, 4, 82, 0
6, 127880, Note_on_c, 4, 81, 59
6, 127920, Note_on_c, 4, 81, 0
6, 127920, Note_on_c, 4, 82, 65
6, 127920, Note_on_c, 4, 73, 36
6, 127920, Note_on_c, 4, 70, 56
6, 127920, Note_on_c, 4, 65, 51
6, 127960, Note_on_c, 4, 82, 0
6, 127960, Note_on_c, 4, 85, 44
6, 128000, Note_on_c, 4, 85, 0
6, 128000, Note_on_c, 4, 84, 46
6, 128040, Note_on_c, 4, 84, 0
6, 128040, Note_on_c, 4, 73, 0
6, 128040, Note_on_c, 4, 70, 0
6, 128040, Note_on_c, 4, 65, 0
6, 128040, Note_on_c, 4, 85, 46
6, 128080, Note_on_c, 4, 85, 0
6, 128080, Note_on_c, 4, 82, 46
6, 128120, Note_on_c, 4, 82, 0
6, 128120, Note_on_c, 4, 81, 56
6, 128160, Note_on_c, 4, 81, 0
6, 128160, Note_on_c, 4, 82, 59
6, 128160, Note_on_c, 4, 73, 30
6, 128160, Note_on_c, 4, 70, 43
6, 128160, Note_on_c, 4, 66, 35
6, 128200, Note_on_c, 4, 82, 0
6, 128200, Note_on_c, 4, 85, 51
6, 128240, Note_on_c, 4, 85, 0
6, 128240, Note_on_c, 4, 84, 53
6, 128280, Note_on_c, 4, 84, 0
6, 128280, Note_on_c, 4, 73, 0
6, 128280, Note_on_c, 4, 70, 0
6, 128280, Note_on_c, 4, 66, 0
6, 128280, Note_on_c, 4, 85, 59
6, 128320, Note_on_c, 4, 85, 0
6, 128320, Note_on_c, 4, 82, 43
6, 128360, Note_on_c, 4, 82, 0
6, 128360, Note_on_c, 4, 81, 62
6, 128400, Note_on_c, 4, 81, 0
6, 128400, Note_on_c, 4, 82, 59
6, 128400, Note_on_c, 4, 76, 40
6, 128400, Note_on_c, 4, 70, 40
6, 128400, Note_on_c, 4, 66, 40
6, 128440, Note_on_c, 4, 82, 0
6, 128440, Note_on_c, 4, 85, 58
6, 128480, Note_on_c, 4, 85, 0
6, 128480, Note_on_c, 4, 84, 68
6, 128500, Note_on_c, 4, 84, 0
6, 128500, Note_on_c, 4, 87, 53
6, 128520, Note_on_c, 4, 87, 0
6, 128520, Note_on_c, 4, 66, 0
6, 128520, Note_on_c, 4, 70, 0
6, 128520, Note_on_c, 4, 76, 0
6, 128520, Note_on_c, 4, 85, 72
6, 128560, Note_on_c, 4, 85, 0
6, 128560, Note_on_c, 4, 84, 47
6, 128600, Note_on_c, 4, 84, 0
6, 128600, Note_on_c, 4, 82, 43
6, 128640, Note_on_c, 4, 82, 0
6, 128640, Note_on_c, 4, 81, 76
6, 128640, Note_on_c, 4, 53, 46
6, 128700, Note_on_c, 4, 53, 0
6, 128700, Note_on_c, 4, 57, 66
6, 128760, Note_on_c, 4, 57, 0
6, 128760, Note_on_c, 4, 81, 0
6, 128760, Note_on_c, 4, 89, 74
6, 128760, Note_on_c, 4, 60, 65
6, 128820, Note_on_c, 4, 60, 0
6, 128820, Note_on_c, 4, 65, 65
6, 128880, Note_on_c, 4, 65, 0
6, 128880, Note_on_c, 4, 53, 69
6, 128940, Note_on_c, 4, 53, 0
6, 128940, Note_on_c, 4, 60, 76
6, 129000, Note_on_c, 4, 60, 0
6, 129000, Note_on_c, 4, 89, 0
6, 129000, Note_on_c, 4, 89, 94
6, 129000, Note_on_c, 4, 63, 86
6, 129060, Note_on_c, 4, 63, 0
6, 129060, Note_on_c, 4, 65, 89
6, 129120, Note_on_c, 4, 65, 0
6, 129120, Note_on_c, 4, 53, 85
6, 129180, Note_on_c, 4, 53, 0
6, 129180, Note_on_c, 4, 58, 86
6, 129240, Note_on_c, 4, 58, 0
6, 129240, Note_on_c, 4, 89, 0
6, 129240, Note_on_c, 4, 89, 99
6, 129240, Note_on_c, 4, 61, 86
6, 129300, Note_on_c, 4, 61, 0
6, 129300, Note_on_c, 4, 65, 95
6, 129360, Note_on_c, 4, 65, 0
6, 129360, Note_on_c, 4, 53, 81
6, 129420, Note_on_c, 4, 53, 0
6, 129420, Note_on_c, 4, 58, 77
6, 129480, Note_on_c, 4, 58, 0
6, 129480, Note_on_c, 4, 89, 0
6, 129480, Note_on_c, 4, 87, 89
6, 129480, Note_on_c, 4, 61, 63
6, 129510, Note_on_c, 4, 87, 0
6, 129510, Note_on_c, 4, 85, 81
6, 129540, Note_on_c, 4, 85, 0
6, 129540, Note_on_c, 4, 61, 0
6, 129540, Note_on_c, 4, 84, 44
6, 129540, Note_on_c, 4, 65, 50
6, 129570, Note_on_c, 4, 84, 0
6, 129570, Note_on_c, 4, 82, 46
6, 129600, Note_on_c, 4, 82, 0
6, 129600, Note_on_c, 4, 65, 0
6, 129600, Note_on_c, 4, 81, 57
6, 129600, Note_on_c, 4, 53, 45
6, 129660, Note_on_c, 4, 53, 0
6, 129660, Note_on_c, 4, 81, 0
6, 129660, Note_on_c, 4, 57, 44
6, 129705, Note_on_c, 4, 88, 84
6, 129720, Note_on_c, 4, 88, 0
6, 129720, Note_on_c, 4, 57, 0
6, 129720, Note_on_c, 4, 89, 89
6, 129720, Note_on_c, 4, 60, 46
6, 129780, Note_on_c, 4, 60, 0
6, 129780, Note_on_c, 4, 65, 64
6, 129840, Note_on_c, 4, 65, 0
6, 129840, Note_on_c, 4, 53, 66
6, 129900, Note_on_c, 4, 53, 0
6, 129900, Note_on_c, 4, 60, 80
6, 129945, Note_on_c, 4, 88, 94
6, 129960, Note_on_c, 4, 88, 0
6, 129960, Note_on_c, 4, 60, 0
6, 129960, Note_on_c, 4, 89, 0
6, 129960, Note_on_c, 4, 89, 98
6, 129960, Note_on_c, 4, 63, 84
6, 130020, Note_on_c, 4, 63, 0
6, 130020, Note_on_c, 4, 65, 93
6, 130080, Note_on_c, 4, 65, 0
6, 130080, Note_on_c, 4, 53, 86
6, 130140, Note_on_c, 4, 53, 0
6, 130140, Note_on_c, 4, 58, 86
6, 130185, Note_on_c, 4, 88, 101
6, 130200, Note_on_c, 4, 88, 0
6, 130200, Note_on_c, 4, 58, 0
6, 130200, Note_on_c, 4, 89, 0
6, 130200, Note_on_c, 4, 89, 101
6, 130200, Note_on_c, 4, 61, 85
6, 130260, Note_on_c, 4, 61, 0
6, 130260, Note_on_c, 4, 65, 99
6, 130320, Note_on_c, 4, 65, 0
6, 130320, Note_on_c, 4, 53, 84
6, 130380, Note_on_c, 4, 53, 0
6, 130380, Note_on_c, 4, 58, 61
6, 130440, Note_on_c, 4, 58, 0
6, 130440, Note_on_c, 4, 89, 0
6, 130440, Note_on_c, 4, 87, 95
6, 130440, Note_on_c, 4, 61, 55
6, 130470, Note_on_c, 4, 87, 0
6, 130470, Note_on_c, 4, 85, 65
6, 130500, Note_on_c, 4, 85, 0
6, 130500, Note_on_c, 4, 61, 0
6, 130500, Note_on_c, 4, 84, 45
6, 130500, Note_on_c, 4, 65, 44
6, 130530, Note_on_c, 4, 84, 0
6, 130530, Note_on_c, 4, 82, 43
6, 130560, Note_on_c, 4, 82, 0
6, 130560, Note_on_c, 4, 65, 0
6, 130560, Note_on_c, 4, 81, 85
6, 130560, Note_on_c, 4, 53, 46
6, 130575, Note_on_c, 4, 81, 0
6, 130590, Note_on_c, 4, 89, 64
6, 130620, Note_on_c, 4, 89, 0
6, 130620, Note_on_c, 4, 53, 0
6, 130620, Note_on_c, 4, 88, 59
6, 130620, Note_on_c, 4, 57, 68
6, 130650, Note_on_c, 4, 88, 0
6, 130650, Note_on_c, 4, 89, 70
6, 130680, Note_on_c, 4, 89, 0
6, 130680, Note_on_c, 4, 57, 0
6, 130680, Note_on_c, 4, 88, 73
6, 130680, Note_on_c, 4, 60, 71
6, 130710, Note_on_c, 4, 88, 0
6, 130710, Note_on_c, 4, 89, 69
6, 130740, Note_on_c, 4, 89, 0
6, 130740, Note_on_c, 4, 60, 0
6, 130740, Note_on_c, 4, 88, 81
6, 130740, Note_on_c, 4, 65, 76
6, 130770, Note_on_c, 4, 88, 0
6, 130770, Note_on_c, 4, 89, 86
6, 130800, Note_on_c, 4, 89, 0
6, 130800, Note_on_c, 4, 65, 0
6, 130800, Note_on_c, 4, 77, 81
6, 130800, Note_on_c, 4, 53, 74
6, 130815, Note_on_c, 4, 77, 0
6, 130830, Note_on_c, 4, 89, 85
6, 130860, Note_on_c, 4, 89, 0
6, 130860, Note_on_c, 4, 53, 0
6, 130860, Note_on_c, 4, 88, 89
6, 130860, Note_on_c, 4, 60, 95
6, 130890, Note_on_c, 4, 88, 0
6, 130890, Note_on_c, 4, 89, 94
6, 130920, Note_on_c, 4, 89, 0
6, 130920, Note_on_c, 4, 60, 0
6, 130920, Note_on_c, 4, 88, 95
6, 130920, Note_on_c, 4, 63, 77
6, 130950, Note_on_c, 4, 88, 0
6, 130950, Note_on_c, 4, 89, 99
6, 130980, Note_on_c, 4, 89, 0
6, 130980, Note_on_c, 4, 63, 0
6, 130980, Note_on_c, 4, 88, 101
6, 130980, Note_on_c, 4, 65, 99
6, 131010, Note_on_c, 4, 88, 0
6, 131010, Note_on_c, 4, 89, 98
6, 131040, Note_on_c, 4, 89, 0
6, 131040, Note_on_c, 4, 65, 0
6, 131040, Note_on_c, 4, 77, 99
6, 131040, Note_on_c, 4, 53, 89
6, 131055, Note_on_c, 4, 77, 0
6, 131070, Note_on_c, 4, 89, 95
6, 131100, Note_on_c, 4, 89, 0
6, 131100, Note_on_c, 4, 53, 0
6, 131100, Note_on_c, 4, 88, 95
6, 131100, Note_on_c, 4, 58, 89
6, 131130, Note_on_c, 4, 88, 0
6, 131130, Note_on_c, 4, 89, 98
6, 131160, Note_on_c, 4, 89, 0
6, 131160, Note_on_c, 4, 58, 0
6, 131160, Note_on_c, 4, 88, 95
6, 131160, Note_on_c, 4, 61, 57
6, 131190, Note_on_c, 4, 88, 0
6, 131190, Note_on_c, 4, 89, 89
6, 131220, Note_on_c, 4, 89, 0
6, 131220, Note_on_c, 4, 61, 0
6, 131220, Note_on_c, 4, 88, 89
6, 131220, Note_on_c, 4, 65, 71
6, 131250, Note_on_c, 4, 88, 0
6, 131250, Note_on_c, 4, 89, 69
6, 131280, Note_on_c, 4, 89, 0
6, 131280, Note_on_c, 4, 65, 0
6, 131280, Note_on_c, 4, 77, 69
6, 131280, Note_on_c, 4, 53, 43
6, 131295, Note_on_c, 4, 77, 0
6, 131310, Note_on_c, 4, 89, 74
6, 131340, Note_on_c, 4, 89, 0
6, 131340, Note_on_c, 4, 53, 0
6, 131340, Note_on_c, 4, 88, 73
6, 131340, Note_on_c, 4, 58, 52
6, 131370, Note_on_c, 4, 88, 0
6, 131370, Note_on_c, 4, 89, 68
6, 131400, Note_on_c, 4, 89, 0
6, 131400, Note_on_c, 4, 58, 0
6, 131400, Note_on_c, 4, 87, 68
6, 131400, Note_on_c, 4, 61, 43
6, 131430, Note_on_c, 4, 87, 0
6, 131430, Note_on_c, 4, 85, 57
6, 131460, Note_on_c, 4, 85, 0
6, 131460, Note_on_c, 4, 61, 0
6, 131460, Note_on_c, 4, 84, 43
6, 131460, Note_on_c, 4, 65, 48
6, 131490, Note_on_c, 4, 84, 0
6, 131490, Note_on_c, 4, 82, 65
6, 131520, Note_on_c, 4, 82, 0
6, 131520, Note_on_c, 4, 65, 0
6, 131520, Control_c, 4, 7, 112
6, 131520, Note_on_c, 4, 81, 68
6, 131520, Note_on_c, 4, 53, 67
6, 131550, Note_on_c, 4, 81, 0
6, 131550, Note_on_c, 4, 84, 73
6, 131580, Note_on_c, 4, 84, 0
6, 131580, Note_on_c, 4, 82, 68
6, 131610, Note_on_c, 4, 82, 0
6, 131610, Note_on_c, 4, 85, 71
6, 131640, Note_on_c, 4, 85, 0
6, 131640, Note_on_c, 4, 53, 0
6, 131640, Note_on_c, 4, 84, 43
6, 131640, Note_on_c, 4, 72, 81
6, 131640, Note_on_c, 4, 65, 58
6, 131670, Note_on_c, 4, 84, 0
6, 131670, Note_on_c, 4, 87, 72
6, 131700, Note_on_c, 4, 87, 0
6, 131700, Note_on_c, 4, 84, 68
6, 131730, Note_on_c, 4, 84, 0
6, 131730, Note_on_c, 4, 81, 61
6, 131760, Note_on_c, 4, 81, 0
6, 131760, Note_on_c, 4, 65, 0
6, 131760, Note_on_c, 4, 72, 0
6, 131760, Note_on_c, 4, 82, 73
6, 131760, Note_on_c, 4, 73, 52
6, 131760, Note_on_c, 4, 70, 72
6, 131790, Note_on_c, 4, 82, 0
6, 131790, Note_on_c, 4, 85, 77
6, 131820, Note_on_c, 4, 85, 0
6, 131820, Note_on_c, 4, 70, 0
6, 131820, Note_on_c, 4, 73, 0
6, 131820, Note_on_c, 4, 84, 66
6, 131850, Note_on_c, 4, 84, 0
6, 131850, Note_on_c, 4, 87, 72
6, 131880, Note_on_c, 4, 87, 0
6, 131880, Note_on_c, 4, 85, 84
6, 131910, Note_on_c, 4, 85, 0
6, 131910, Note_on_c, 4, 89, 65
6, 131940, Note_on_c, 4, 89, 0
6, 131940, Note_on_c, 4, 85, 82
6, 131970, Note_on_c, 4, 85, 0
6, 131970, Note_on_c, 4, 82, 56
6, 132000, Note_on_c, 4, 82, 0
6, 132000, Note_on_c, 4, 81, 53
6, 132030, Note_on_c, 4, 81, 0
6, 132030, Note_on_c, 4, 84, 76
6, 132060, Note_on_c, 4, 84, 0
6, 132060, Note_on_c, 4, 82, 64
6, 132090, Note_on_c, 4, 82, 0
6, 132090, Note_on_c, 4, 85, 65
6, 132120, Note_on_c, 4, 85, 0
6, 132120, Note_on_c, 4, 84, 76
6, 132120, Note_on_c, 4, 72, 77
6, 132120, Note_on_c, 4, 72, 33
6, 132120, Note_on_c, 4, 65, 69
6, 132150, Note_on_c, 4, 84, 0
6, 132150, Note_on_c, 4, 87, 62
6, 132180, Note_on_c, 4, 87, 0
6, 132180, Note_on_c, 4, 84, 58
6, 132210, Note_on_c, 4, 84, 0
6, 132210, Note_on_c, 4, 81, 58
6, 132240, Note_on_c, 4, 81, 0
6, 132240, Note_on_c, 4, 65, 0
6, 132240, Note_on_c, 4, 72, 0
6, 132240, Note_on_c, 4, 72, 0
6, 132240, Note_on_c, 4, 82, 72
6, 132240, Note_on_c, 4, 73, 49
6, 132240, Note_on_c, 4, 70, 50
6, 132270, Note_on_c, 4, 82, 0
6, 132270, Note_on_c, 4, 85, 74
6, 132300, Note_on_c, 4, 85, 0
6, 132300, Note_on_c, 4, 70, 0
6, 132300, Note_on_c, 4, 73, 0
6, 132300, Note_on_c, 4, 84, 64
6, 132330, Note_on_c, 4, 84, 0
6, 132330, Note_on_c, 4, 87, 68
6, 132360, Note_on_c, 4, 87, 0
6, 132360, Note_on_c, 4, 85, 65
6, 132390, Note_on_c, 4, 85, 0
6, 132390, Note_on_c, 4, 89, 84
6, 132420, Note_on_c, 4, 89, 0
6, 132420, Note_on_c, 4, 85, 81
6, 132450, Note_on_c, 4, 85, 0
6, 132450, Note_on_c, 4, 82, 80
6, 132480, Note_on_c, 4, 82, 0
6, 132480, Note_on_c, 4, 81, 49
6, 132480, Note_on_c, 4, 72, 29
6, 132480, Note_on_c, 4, 65, 43
6, 132510, Note_on_c, 4, 81, 0
6, 132510, Note_on_c, 4, 84, 45
6, 132540, Note_on_c, 4, 84, 0
6, 132540, Note_on_c, 4, 82, 45
6, 132570, Note_on_c, 4, 82, 0
6, 132570, Note_on_c, 4, 85, 58
6, 132600, Note_on_c, 4, 85, 0
6, 132600, Note_on_c, 4, 65, 0
6, 132600, Note_on_c, 4, 72, 0
6, 132600, Note_on_c, 4, 84, 43
6, 132630, Note_on_c, 4, 84, 0
6, 132630, Note_on_c, 4, 87, 52
6, 132660, Note_on_c, 4, 87, 0
6, 132660, Note_on_c, 4, 84, 51
6, 132690, Note_on_c, 4, 84, 0
6, 132690, Note_on_c, 4, 82, 58
6, 132720, Note_on_c, 4, 82, 0
6, 132720, Note_on_c, 4, 81, 50
6, 132720, Note_on_c, 4, 72, 29
6, 132720, Note_on_c, 4, 65, 43
6, 132750, Note_on_c, 4, 81, 0
6, 132750, Note_on_c, 4, 84, 47
6, 132780, Note_on_c, 4, 84, 0
6, 132780, Note_on_c, 4, 82, 45
6, 132810, Note_on_c, 4, 82, 0
6, 132810, Note_on_c, 4, 85, 53
6, 132840, Note_on_c, 4, 85, 0
6, 132840, Note_on_c, 4, 65, 0
6, 132840, Note_on_c, 4, 72, 0
6, 132840, Note_on_c, 4, 84, 43
6, 132870, Note_on_c, 4, 84, 0
6, 132870, Note_on_c, 4, 87, 69
6, 132900, Note_on_c, 4, 87, 0
6, 132900, Note_on_c, 4, 84, 62
6, 132930, Note_on_c, 4, 84, 0
6, 132930, Note_on_c, 4, 82, 48
6, 132960, Note_on_c, 4, 82, 0
6, 132960, Note_on_c, 4, 81, 57
6, 132960, Note_on_c, 4, 75, 46
6, 132960, Note_on_c, 4, 72, 29
6, 132960, Note_on_c, 4, 65, 38
6, 132990, Note_on_c, 4, 81, 0
6, 132990, Note_on_c, 4, 84, 60
6, 133020, Note_on_c, 4, 84, 0
6, 133020, Note_on_c, 4, 82, 44
6, 133050, Note_on_c, 4, 82, 0
6, 133050, Note_on_c, 4, 86, 45
6, 133080, Note_on_c, 4, 86, 0
6, 133080, Note_on_c, 4, 65, 0
6, 133080, Note_on_c, 4, 72, 0
6, 133080, Note_on_c, 4, 75, 0
6, 133080, Note_on_c, 4, 84, 53
6, 133110, Note_on_c, 4, 84, 0
6, 133110, Note_on_c, 4, 87, 43
6, 133140, Note_on_c, 4, 87, 0
6, 133140, Note_on_c, 4, 84, 71
6, 133170, Note_on_c, 4, 84, 0
6, 133170, Note_on_c, 4, 82, 50
6, 133200, Note_on_c, 4, 82, 0
6, 133200, Note_on_c, 4, 81, 54
6, 133230, Note_on_c, 4, 81, 0
6, 133230, Note_on_c, 4, 84, 46
6, 133260, Note_on_c, 4, 84, 0
6, 133260, Note_on_c, 4, 81, 51
6, 133290, Note_on_c, 4, 81, 0
6, 133290, Note_on_c, 4, 79, 39
6, 133320, Note_on_c, 4, 79, 0
6, 133320, Note_on_c, 4, 77, 45
6, 133350, Note_on_c, 4, 77, 0
6, 133350, Note_on_c, 4, 81, 53
6, 133380, Note_on_c, 4, 81, 0
6, 133380, Note_on_c, 4, 77, 44
6, 133410, Note_on_c, 4, 77, 0
6, 133410, Note_on_c, 4, 76, 55
6, 133440, Note_on_c, 4, 76, 0
6, 133440, Note_on_c, 4, 75, 68
6, 133440, Note_on_c, 4, 63, 39
6, 133440, Note_on_c, 4, 60, 50
6, 133440, Note_on_c, 4, 53, 46
6, 133470, Note_on_c, 4, 75, 0
6, 133470, Note_on_c, 4, 79, 45
6, 133500, Note_on_c, 4, 79, 0
6, 133500, Note_on_c, 4, 75, 57
6, 133530, Note_on_c, 4, 75, 0
6, 133530, Note_on_c, 4, 74, 45
6, 133560, Note_on_c, 4, 74, 0
6, 133560, Note_on_c, 4, 53, 0
6, 133560, Note_on_c, 4, 60, 0
6, 133560, Note_on_c, 4, 63, 0
6, 133560, Note_on_c, 4, 72, 43
6, 133590, Note_on_c, 4, 72, 0
6, 133590, Note_on_c, 4, 75, 60
6, 133620, Note_on_c, 4, 75, 0
6, 133620, Note_on_c, 4, 72, 38
6, 133650, Note_on_c, 4, 72, 0
6, 133650, Note_on_c, 4, 70, 53
6, 133680, Note_on_c, 4, 70, 0
6, 133680, Note_on_c, 4, 69, 40
6, 133710, Note_on_c, 4, 69, 0
6, 133710, Note_on_c, 4, 72, 46
6, 133740, Note_on_c, 4, 72, 0
6, 133740, Note_on_c, 4, 69, 45
6, 133770, Note_on_c, 4, 69, 0
6, 133770, Note_on_c, 4, 67, 41
6, 133800, Note_on_c, 4, 67, 0
6, 133800, Note_on_c, 4, 65, 52
6, 133830, Note_on_c, 4, 65, 0
6, 133830, Note_on_c, 4, 69, 43
6, 133860, Note_on_c, 4, 69, 0
6, 133860, Note_on_c, 4, 65, 43
6, 133890, Note_on_c, 4, 65, 0
6, 133890, Note_on_c, 4, 64, 44
6, 133920, Note_on_c, 4, 64, 0
6, 133920, Note_on_c, 4, 63, 43
6, 133920, Note_on_c, 4, 51, 40
6, 133920, Note_on_c, 4, 48, 50
6, 133920, Note_on_c, 4, 41, 36
6, 133950, Note_on_c, 4, 63, 0
6, 133950, Note_on_c, 4, 67, 43
6, 133980, Note_on_c, 4, 67, 0
6, 133980, Note_on_c, 4, 63, 43
6, 134010, Note_on_c, 4, 63, 0
6, 134010, Note_on_c, 4, 62, 35
6, 134040, Note_on_c, 4, 62, 0
6, 134040, Note_on_c, 4, 41, 0
6, 134040, Note_on_c, 4, 48, 0
6, 134040, Note_on_c, 4, 51, 0
6, 134040, Note_on_c, 4, 60, 44
6, 134070, Note_on_c, 4, 60, 0
6, 134070, Note_on_c, 4, 63, 60
6, 134100, Note_on_c, 4, 63, 0
6, 134100, Note_on_c, 4, 60, 43
6, 134130, Note_on_c, 4, 60, 0
6, 134130, Note_on_c, 4, 58, 45
6, 134160, Note_on_c, 4, 58, 0
6, 134160, Note_on_c, 4, 57, 43
6, 134190, Note_on_c, 4, 57, 0
6, 134190, Note_on_c, 4, 60, 62
6, 134220, Note_on_c, 4, 60, 0
6, 134220, Note_on_c, 4, 57, 61
6, 134250, Note_on_c, 4, 57, 0
6, 134250, Note_on_c, 4, 55, 43
6, 134280, Note_on_c, 4, 55, 0
6, 134280, Note_on_c, 4, 53, 46
6, 134310, Note_on_c, 4, 53, 0
6, 134310, Note_on_c, 4, 57, 52
6, 134340, Note_on_c, 4, 57, 0
6, 134340, Note_on_c, 4, 53, 44
6, 134370, Note_on_c, 4, 53, 0
6, 134370, Note_on_c, 4, 52, 41
6, 134400, Note_on_c, 4, 52, 0
6, 134400, Note_on_c, 4, 51, 44
6, 134400, Control_c, 4, 64, 99
6, 134400, Control_c, 4, 7, 99
6, 134430, Note_on_c, 4, 29, 50
6, 134460, Note_on_c, 4, 29, 0
6, 134460, Note_on_c, 4, 32, 55
6, 134490, Note_on_c, 4, 32, 0
6, 134490, Note_on_c, 4, 36, 59
6, 134520, Note_on_c, 4, 36, 0
6, 134520, Note_on_c, 4, 51, 0
6, 134520, Note_on_c, 4, 39, 46
6, 134550, Note_on_c, 4, 51, 45
6, 134580, Note_on_c, 4, 51, 0
6, 134580, Note_on_c, 4, 48, 68
6, 134610, Note_on_c, 4, 48, 0
6, 134610, Note_on_c, 4, 45, 67
6, 134640, Note_on_c, 4, 45, 0
6, 134640, Note_on_c, 4, 39, 0
6, 134640, Note_on_c, 4, 41, 43
6, 134670, Note_on_c, 4, 29, 50
6, 134700, Note_on_c, 4, 29, 0
6, 134700, Note_on_c, 4, 32, 69
6, 134730, Note_on_c, 4, 32, 0
6, 134730, Note_on_c, 4, 36, 46
6, 134760, Note_on_c, 4, 36, 0
6, 134760, Note_on_c, 4, 41, 0
6, 134760, Note_on_c, 4, 39, 62
6, 134790, Note_on_c, 4, 51, 45
6, 134820, Note_on_c, 4, 51, 0
6, 134820, Note_on_c, 4, 48, 68
6, 134850, Note_on_c, 4, 48, 0
6, 134850, Note_on_c, 4, 45, 81
6, 134880, Note_on_c, 4, 45, 0
6, 134880, Note_on_c, 4, 39, 0
6, 134880, Note_on_c, 4, 42, 40
6, 134910, Note_on_c, 4, 30, 58
6, 134940, Note_on_c, 4, 30, 0
6, 134940, Note_on_c, 4, 33, 86
6, 134970, Note_on_c, 4, 33, 0
6, 134970, Note_on_c, 4, 36, 76
6, 135000, Note_on_c, 4, 36, 0
6, 135000, Note_on_c, 4, 42, 0
6, 135000, Note_on_c, 4, 39, 66
6, 135030, Note_on_c, 4, 51, 67
6, 135060, Note_on_c, 4, 51, 0
6, 135060, Note_on_c, 4, 48, 81
6, 135090, Note_on_c, 4, 48, 0
6, 135090, Note_on_c, 4, 45, 89
6, 135120, Note_on_c, 4, 45, 0
6, 135120, Note_on_c, 4, 39, 0
6, 135120, Note_on_c, 4, 42, 71
6, 135150, Note_on_c, 4, 30, 84
6, 135180, Note_on_c, 4, 30, 0
6, 135180, Note_on_c, 4, 33, 90
6, 135210, Note_on_c, 4, 33, 0
6, 135210, Note_on_c, 4, 36, 93
6, 135240, Note_on_c, 4, 36, 0
6, 135240, Note_on_c, 4, 42, 0
6, 135240, Note_on_c, 4, 39, 82
6, 135270, Note_on_c, 4, 51, 72
6, 135300, Note_on_c, 4, 51, 0
6, 135300, Note_on_c, 4, 48, 94
6, 135330, Note_on_c, 4, 48, 0
6, 135330, Note_on_c, 4, 45, 105
6, 135360, Note_on_c, 4, 45, 0
6, 135360, Note_on_c, 4, 39, 0
6, 135360, Note_on_c, 4, 41, 73
6, 135390, Note_on_c, 4, 29, 94
6, 135420, Note_on_c, 4, 29, 0
6, 135420, Note_on_c, 4, 33, 99
6, 135450, Note_on_c, 4, 33, 0
6, 135450, Note_on_c, 4, 36, 95
6, 135480, Note_on_c, 4, 36, 0
6, 135480, Note_on_c, 4, 41, 0
6, 135480, Note_on_c, 4, 39, 84
6, 135510, Note_on_c, 4, 51, 80
6, 135540, Note_on_c, 4, 51, 0
6, 135540, Note_on_c, 4, 48, 99
6, 135570, Note_on_c, 4, 48, 0
6, 135570, Note_on_c, 4, 45, 105
6, 135600, Note_on_c, 4, 45, 0
6, 135600, Note_on_c, 4, 39, 0
6, 135600, Note_on_c, 4, 41, 86
6, 135630, Note_on_c, 4, 29, 99
6, 135660, Note_on_c, 4, 29, 0
6, 135660, Note_on_c, 4, 33, 99
6, 135690, Note_on_c, 4, 33, 0
6, 135690, Note_on_c, 4, 36, 104
6, 135720, Note_on_c, 4, 36, 0
6, 135720, Note_on_c, 4, 41, 0
6, 135720, Note_on_c, 4, 39, 94
6, 135750, Note_on_c, 4, 51, 84
6, 135780, Note_on_c, 4, 51, 0
6, 135780, Note_on_c, 4, 48, 99
6, 135810, Note_on_c, 4, 48, 0
6, 135810, Note_on_c, 4, 45, 115
6, 135840, Note_on_c, 4, 45, 0
6, 135840, Note_on_c, 4, 39, 0
6, 135840, Note_on_c, 4, 41, 99
6, 135840, Note_on_c, 4, 29, 99
6, 135860, Note_on_c, 4, 41, 0
6, 135860, Note_on_c, 4, 43, 98
6, 135880, Note_on_c, 4, 43, 0
6, 135880, Note_on_c, 4, 45, 99
6, 135900, Note_on_c, 4, 45, 0
6, 135900, Note_on_c, 4, 46, 95
6, 135920, Note_on_c, 4, 46, 0
6, 135920, Note_on_c, 4, 48, 104
6, 135940, Note_on_c, 4, 48, 0
6, 135940, Note_on_c, 4, 50, 98
6, 135960, Note_on_c, 4, 50, 0
6, 135960, Note_on_c, 4, 29, 0
6, 135960, Note_on_c, 4, 51, 105
6, 135980, Note_on_c, 4, 51, 0
6, 135980, Note_on_c, 4, 53, 101
6, 136000, Note_on_c, 4, 53, 0
6, 136000, Note_on_c, 4, 55, 93
6, 136020, Note_on_c, 4, 55, 0
6, 136020, Note_on_c, 4, 57, 105
6, 136040, Note_on_c, 4, 57, 0
6, 136040, Note_on_c, 4, 58, 98
6, 136060, Note_on_c, 4, 58, 0
6, 136060, Note_on_c, 4, 60, 93
6, 136080, Note_on_c, 4, 60, 0
6, 136080, Note_on_c, 4, 62, 99
6, 136100, Note_on_c, 4, 62, 0
6, 136100, Note_on_c, 4, 63, 99
6, 136120, Note_on_c, 4, 63, 0
6, 136120, Note_on_c, 4, 65, 101
6, 136140, Note_on_c, 4, 65, 0
6, 136140, Note_on_c, 4, 67, 94
6, 136160, Note_on_c, 4, 67, 0
6, 136160, Note_on_c, 4, 69, 99
6, 136180, Note_on_c, 4, 69, 0
6, 136180, Note_on_c, 4, 70, 104
6, 136200, Note_on_c, 4, 70, 0
6, 136200, Note_on_c, 4, 72, 101
6, 136220, Note_on_c, 4, 72, 0
6, 136220, Note_on_c, 4, 74, 107
6, 136240, Note_on_c, 4, 74, 0
6, 136240, Note_on_c, 4, 75, 104
6, 136260, Note_on_c, 4, 75, 0
6, 136260, Note_on_c, 4, 77, 104
6, 136280, Note_on_c, 4, 77, 0
6, 136280, Note_on_c, 4, 79, 104
6, 136300, Note_on_c, 4, 79, 0
6, 136300, Note_on_c, 4, 81, 110
6, 136320, Note_on_c, 4, 81, 0
6, 136320, Note_on_c, 4, 82, 119
6, 136440, Note_on_c, 4, 82, 0
6, 136448, Control_c, 4, 64, 99
6, 136450, Control_c, 4, 64, 97
6, 136452, Control_c, 4, 64, 94
6, 136454, Control_c, 4, 64, 92
6, 136456, Control_c, 4, 64, 89
6, 136458, Control_c, 4, 64, 86
6, 136460, Control_c, 4, 64, 84
6, 136462, Control_c, 4, 64, 81
6, 136464, Control_c, 4, 64, 79
6, 136466, Control_c, 4, 64, 76
6, 136468, Control_c, 4, 64, 73
6, 136470, Control_c, 4, 64, 71
6, 136472, Control_c, 4, 64, 68
6, 136474, Control_c, 4, 64, 66
6, 136476, Control_c, 4, 64, 63
6, 136478, Control_c, 4, 64, 60
6, 136480, Control_c, 4, 64, 58
6, 136482, Control_c, 4, 64, 55
6, 136484, Control_c, 4, 64, 53
6, 136486, Control_c, 4, 64, 50
6, 136488, Control_c, 4, 64, 47
6, 136490, Control_c, 4, 64, 45
6, 136492, Control_c, 4, 64, 42
6, 136494, Control_c, 4, 64, 40
6, 136496, Control_c, 4, 64, 37
6, 136498, Control_c, 4, 64, 34
6, 136500, Control_c, 4, 64, 32
6, 136502, Control_c, 4, 64, 29
6, 136504, Control_c, 4, 64, 27
6, 136506, Control_c, 4, 64, 24
6, 136508, Control_c, 4, 64, 21
6, 136510, Control_c, 4, 64, 19
6, 136512, Control_c, 4, 64, 16
6, 136514, Control_c, 4, 64, 14
6, 136516, Control_c, 4, 64, 11
6, 136518, Control_c, 4, 64, 8
6, 136520, Control_c, 4, 64, 6
6, 136522, Control_c, 4, 64, 3
6, 136524, Control_c, 4, 64, 0
6, 140160, Note_on_c, 4, 58, 68
6, 140160, Note_on_c, 4, 53, 57
6, 140160, Note_on_c, 4, 50, 56
6, 140280, Note_on_c, 4, 50, 0
6, 140280, Note_on_c, 4, 53, 0
6, 140280, Note_on_c, 4, 58, 0
6, 140280, Note_on_c, 4, 82, 53
6, 140370, Note_on_c, 4, 82, 0
6, 140400, Note_on_c, 4, 82, 61
6, 140490, Note_on_c, 4, 82, 0
6, 140520, Note_on_c, 4, 82, 55
6, 140610, Note_on_c, 4, 82, 0
6, 140640, Note_on_c, 4, 83, 73
6, 140640, Note_on_c, 4, 60, 68
6, 140640, Note_on_c, 4, 55, 56
6, 140640, Note_on_c, 4, 51, 46
6, 140760, Note_on_c, 4, 51, 0
6, 140760, Note_on_c, 4, 55, 0
6, 140760, Note_on_c, 4, 60, 0
6, 140880, Note_on_c, 4, 83, 0
6, 140880, Note_on_c, 4, 84, 68
6, 141000, Note_on_c, 4, 84, 0
6, 141060, Note_on_c, 4, 82, 68
6, 141120, Note_on_c, 4, 82, 0
6, 141120, Note_on_c, 4, 82, 57
6, 141120, Note_on_c, 4, 63, 45
6, 141120, Note_on_c, 4, 60, 44
6, 141120, Note_on_c, 4, 53, 49
6, 141180, Note_on_c, 4, 82, 0
6, 141180, Note_on_c, 4, 81, 61
6, 141240, Note_on_c, 4, 81, 0
6, 141240, Note_on_c, 4, 53, 0
6, 141240, Note_on_c, 4, 60, 0
6, 141240, Note_on_c, 4, 63, 0
6, 141240, Note_on_c, 4, 79, 71
6, 141300, Note_on_c, 4, 79, 0
6, 141300, Note_on_c, 4, 77, 64
6, 141360, Note_on_c, 4, 77, 0
6, 141360, Note_on_c, 4, 76, 68
6, 141420, Note_on_c, 4, 76, 0
6, 141420, Note_on_c, 4, 77, 61
6, 141480, Note_on_c, 4, 77, 0
6, 141480, Note_on_c, 4, 89, 51
6, 141540, Note_on_c, 4, 89, 0
6, 141540, Note_on_c, 4, 87, 76
6, 141600, Note_on_c, 4, 87, 0
6, 141600, Note_on_c, 4, 85, 65
6, 141600, Note_on_c, 4, 62, 65
6, 141600, Note_on_c, 4, 58, 44
6, 141600, Note_on_c, 4, 55, 65
6, 141720, Note_on_c, 4, 55, 0
6, 141720, Note_on_c, 4, 58, 0
6, 141720, Note_on_c, 4, 62, 0
6, 141840, Note_on_c, 4, 85, 0
6, 141840, Note_on_c, 4, 86, 57
6, 141900, Note_on_c, 4, 86, 0
6, 141900, Note_on_c, 4, 89, 84
6, 141960, Note_on_c, 4, 89, 0
6, 141960, Note_on_c, 4, 87, 72
6, 142020, Note_on_c, 4, 87, 0
6, 142020, Note_on_c, 4, 84, 64
6, 142080, Note_on_c, 4, 84, 0
6, 142080, Note_on_c, 4, 84, 78
6, 142080, Note_on_c, 4, 58, 52
6, 142080, Note_on_c, 4, 53, 43
6, 142080, Note_on_c, 4, 50, 65
6, 142140, Note_on_c, 4, 84, 0
6, 142140, Note_on_c, 4, 82, 56
6, 142200, Note_on_c, 4, 82, 0
6, 142200, Note_on_c, 4, 50, 0
6, 142200, Note_on_c, 4, 53, 0
6, 142200, Note_on_c, 4, 58, 0
6, 142200, Note_on_c, 4, 81, 62
6, 142260, Note_on_c, 4, 81, 0
6, 142260, Note_on_c, 4, 82, 55
6, 142320, Note_on_c, 4, 82, 0
6, 142320, Note_on_c, 4, 81, 43
6, 142380, Note_on_c, 4, 81, 0
6, 142380, Note_on_c, 4, 82, 64
6, 142440, Note_on_c, 4, 82, 0
6, 142440, Note_on_c, 4, 81, 53
6, 142500, Note_on_c, 4, 81, 0
6, 142500, Note_on_c, 4, 82, 65
6, 142560, Note_on_c, 4, 82, 0
6, 142560, Note_on_c, 4, 83, 71
6, 142560, Note_on_c, 4, 60, 58
6, 142560, Note_on_c, 4, 55, 44
6, 142560, Note_on_c, 4, 51, 64
6, 142580, Note_on_c, 4, 83, 0
6, 142580, Note_on_c, 4, 84, 68
6, 142600, Note_on_c, 4, 84, 0
6, 142600, Note_on_c, 4, 83, 74
6, 142620, Note_on_c, 4, 83, 0
6, 142620, Note_on_c, 4, 84, 58
6, 142635, Note_on_c, 4, 84, 0
6, 142635, Note_on_c, 4, 83, 68
6, 142650, Note_on_c, 4, 83, 0
6, 142650, Note_on_c, 4, 84, 76
6, 142665, Note_on_c, 4, 84, 0
6, 142665, Note_on_c, 4, 83, 71
6, 142680, Note_on_c, 4, 83, 0
6, 142680, Note_on_c, 4, 60, 0
6, 142680, Note_on_c, 4, 55, 0
6, 142680, Note_on_c, 4, 51, 0
6, 142680, Note_on_c, 4, 86, 71
6, 142740, Note_on_c, 4, 86, 0
6, 142740, Note_on_c, 4, 84, 73
6, 142800, Note_on_c, 4, 84, 0
6, 142800, Note_on_c, 4, 84, 67
6, 142980, Note_on_c, 4, 84, 0
6, 142980, Note_on_c, 4, 82, 72
6, 143040, Note_on_c, 4, 82, 0
6, 143040, Note_on_c, 4, 82, 72
6, 143040, Note_on_c, 4, 63, 49
6, 143040, Note_on_c, 4, 60, 53
6, 143040, Note_on_c, 4, 53, 51
6, 143100, Note_on_c, 4, 82, 0
6, 143100, Note_on_c, 4, 81, 71
6, 143160, Note_on_c, 4, 81, 0
6, 143160, Note_on_c, 4, 53, 0
6, 143160, Note_on_c, 4, 60, 0
6, 143160, Note_on_c, 4, 63, 0
6, 143160, Note_on_c, 4, 79, 52
6, 143190, Note_on_c, 4, 79, 0
6, 143220, Note_on_c, 4, 77, 65
6, 143250, Note_on_c, 4, 77, 0
6, 143280, Note_on_c, 4, 77, 72
6, 143280, Note_on_c, 4, 60, 50
6, 143280, Note_on_c, 4, 57, 56
6, 143280, Note_on_c, 4, 53, 35
6, 143340, Note_on_c, 4, 77, 0
6, 143340, Note_on_c, 4, 75, 76
6, 143400, Note_on_c, 4, 75, 0
6, 143400, Note_on_c, 4, 53, 0
6, 143400, Note_on_c, 4, 57, 0
6, 143400, Note_on_c, 4, 60, 0
6, 143400, Note_on_c, 4, 74, 76
6, 143430, Note_on_c, 4, 74, 0
6, 143460, Note_on_c, 4, 72, 71
6, 143490, Note_on_c, 4, 72, 0
6, 143520, Note_on_c, 4, 70, 58
6, 143520, Note_on_c, 4, 58, 42
6, 143520, Note_on_c, 4, 46, 41
6, 143640, Note_on_c, 4, 46, 0
6, 143640, Note_on_c, 4, 58, 0
6, 143640, Note_on_c, 4, 70, 0
6, 143880, Note_on_c, 4, 89, 59
6, 143900, Note_on_c, 4, 89, 0
6, 143920, Note_on_c, 4, 86, 72
6, 143940, Note_on_c, 4, 86, 0
6, 143960, Note_on_c, 4, 82, 72
6, 143980, Note_on_c, 4, 82, 0
6, 144000, Note_on_c, 4, 77, 71
6, 144040, Note_on_c, 4, 77, 0
6, 144040, Note_on_c, 4, 74, 72
6, 144080, Note_on_c, 4, 74, 0
6, 144080, Note_on_c, 4, 70, 45
6, 144120, Note_on_c, 4, 70, 0
6, 144120, Note_on_c, 4, 65, 45
6, 144160, Note_on_c, 4, 65, 0
6, 144160, Note_on_c, 4, 62, 59
6, 144200, Note_on_c, 4, 62, 0
6, 144200, Note_on_c, 4, 58, 50
6, 144240, Note_on_c, 4, 58, 0
6, 144240, Note_on_c, 4, 53, 43
6, 144280, Note_on_c, 4, 53, 0
6, 144280, Note_on_c, 4, 50, 64
6, 144320, Note_on_c, 4, 50, 0
6, 144320, Note_on_c, 4, 46, 65
6, 144360, Note_on_c, 4, 46, 0
6, 144360, Note_on_c, 4, 41, 52
6, 144400, Note_on_c, 4, 41, 0
6, 144400, Note_on_c, 4, 38, 72
6, 144440, Note_on_c, 4, 38, 0
6, 144440, Note_on_c, 4, 34, 66
6, 144480, Note_on_c, 4, 34, 0
6, 144480, Note_on_c, 4, 29, 71
6, 144600, Note_on_c, 4, 29, 0
6, 144840, Note_on_c, 4, 41, 52
6, 144880, Note_on_c, 4, 41, 0
6, 144880, Note_on_c, 4, 45, 76
6, 144920, Note_on_c, 4, 45, 0
6, 144920, Note_on_c, 4, 48, 60
6, 144960, Note_on_c, 4, 48, 0
6, 144960, Note_on_c, 4, 53, 61
6, 145000, Note_on_c, 4, 53, 0
6, 145000, Note_on_c, 4, 57, 84
6, 145040, Note_on_c, 4, 57, 0
6, 145040, Note_on_c, 4, 60, 52
6, 145080, Note_on_c, 4, 60, 0
6, 145080, Note_on_c, 4, 65, 72
6, 145120, Note_on_c, 4, 65, 0
6, 145120, Note_on_c, 4, 69, 74
6, 145160, Note_on_c, 4, 69, 0
6, 145160, Note_on_c, 4, 72, 34
6, 145200, Note_on_c, 4, 72, 0
6, 145200, Note_on_c, 4, 77, 64
6, 145240, Note_on_c, 4, 77, 0
6, 145240, Note_on_c, 4, 81, 60
6, 145280, Note_on_c, 4, 81, 0
6, 145280, Note_on_c, 4, 84, 72
6, 145320, Note_on_c, 4, 84, 0
6, 145320, Note_on_c, 4, 89, 52
6, 145360, Note_on_c, 4, 89, 0
6, 145360, Note_on_c, 4, 88, 76
6, 145400, Note_on_c, 4, 88, 0
6, 145400, Note_on_c, 4, 89, 84
6, 145440, Note_on_c, 4, 89, 0
6, 145440, Note_on_c, 4, 82, 65
6, 145440, Note_on_c, 4, 58, 55
6, 145440, Note_on_c, 4, 46, 68
6, 145560, Note_on_c, 4, 46, 0
6, 145560, Note_on_c, 4, 58, 0
6, 145560, Note_on_c, 4, 82, 0
6, 145800, Note_on_c, 4, 86, 52
6, 145840, Note_on_c, 4, 86, 0
6, 145840, Note_on_c, 4, 82, 61
6, 145880, Note_on_c, 4, 82, 0
6, 145880, Note_on_c, 4, 77, 48
6, 145920, Note_on_c, 4, 77, 0
6, 145920, Note_on_c, 4, 74, 43
6, 145960, Note_on_c, 4, 74, 0
6, 145960, Note_on_c, 4, 70, 66
6, 146000, Note_on_c, 4, 70, 0
6, 146000, Note_on_c, 4, 65, 46
6, 146040, Note_on_c, 4, 65, 0
6, 146040, Note_on_c, 4, 62, 72
6, 146080, Note_on_c, 4, 62, 0
6, 146080, Note_on_c, 4, 58, 76
6, 146120, Note_on_c, 4, 58, 0
6, 146120, Note_on_c, 4, 53, 67
6, 146160, Note_on_c, 4, 53, 0
6, 146160, Note_on_c, 4, 50, 43
6, 146200, Note_on_c, 4, 50, 0
6, 146200, Note_on_c, 4, 46, 71
6, 146240, Note_on_c, 4, 46, 0
6, 146240, Note_on_c, 4, 41, 57
6, 146280, Note_on_c, 4, 41, 0
6, 146280, Note_on_c, 4, 38, 64
6, 146320, Note_on_c, 4, 38, 0
6, 146320, Note_on_c, 4, 34, 70
6, 146360, Note_on_c, 4, 34, 0
6, 146360, Note_on_c, 4, 33, 76
6, 146400, Note_on_c, 4, 33, 0
6, 146400, Note_on_c, 4, 31, 62
6, 146520, Note_on_c, 4, 31, 0
6, 146760, Note_on_c, 4, 58, 65
6, 146800, Note_on_c, 4, 58, 0
6, 146800, Note_on_c, 4, 64, 76
6, 146840, Note_on_c, 4, 64, 0
6, 146840, Note_on_c, 4, 67, 71
6, 146880, Note_on_c, 4, 67, 0
6, 146880, Note_on_c, 4, 70, 76
6, 146880, Note_on_c, 4, 48, 54
6, 146880, Note_on_c, 4, 36, 44
6, 146920, Note_on_c, 4, 70, 0
6, 146920, Note_on_c, 4, 76, 76
6, 146960, Note_on_c, 4, 76, 0
6, 146960, Note_on_c, 4, 79, 68
6, 147000, Note_on_c, 4, 79, 0
6, 147000, Note_on_c, 4, 36, 0
6, 147000, Note_on_c, 4, 48, 0
6, 147000, Note_on_c, 4, 82, 70
6, 147040, Note_on_c, 4, 82, 0
6, 147040, Note_on_c, 4, 79, 73
6, 147080, Note_on_c, 4, 79, 0
6, 147080, Note_on_c, 4, 76, 74
6, 147120, Note_on_c, 4, 76, 0
6, 147120, Note_on_c, 4, 70, 52
6, 147160, Note_on_c, 4, 70, 0
6, 147160, Note_on_c, 4, 67, 62
6, 147200, Note_on_c, 4, 67, 0
6, 147200, Note_on_c, 4, 64, 68
6, 147240, Note_on_c, 4, 64, 0
6, 147240, Note_on_c, 4, 58, 67
6, 147280, Note_on_c, 4, 58, 0
6, 147280, Note_on_c, 4, 55, 73
6, 147320, Note_on_c, 4, 55, 0
6, 147320, Note_on_c, 4, 60, 72
6, 147360, Note_on_c, 4, 60, 0
6, 147360, Note_on_c, 4, 53, 93
6, 147360, Note_on_c, 4, 41, 90
6, 147390, Note_on_c, 4, 53, 0
6, 147390, Note_on_c, 4, 57, 94
6, 147420, Note_on_c, 4, 57, 0
6, 147420, Note_on_c, 4, 60, 95
6, 147450, Note_on_c, 4, 60, 0
6, 147450, Note_on_c, 4, 65, 94
6, 147480, Note_on_c, 4, 65, 0
6, 147480, Note_on_c, 4, 41, 0
6, 147480, Note_on_c, 4, 57, 105
6, 147510, Note_on_c, 4, 57, 0
6, 147510, Note_on_c, 4, 60, 86
6, 147540, Note_on_c, 4, 60, 0
6, 147540, Note_on_c, 4, 65, 104
6, 147570, Note_on_c, 4, 65, 0
6, 147570, Note_on_c, 4, 69, 104
6, 147600, Note_on_c, 4, 69, 0
6, 147600, Note_on_c, 4, 60, 89
6, 147630, Note_on_c, 4, 60, 0
6, 147630, Note_on_c, 4, 65, 93
6, 147660, Note_on_c, 4, 65, 0
6, 147660, Note_on_c, 4, 69, 99
6, 147690, Note_on_c, 4, 69, 0
6, 147690, Note_on_c, 4, 72, 89
6, 147720, Note_on_c, 4, 72, 0
6, 147720, Note_on_c, 4, 64, 99
6, 147720, Note_on_c, 4, 58, 65
6, 147720, Note_on_c, 4, 55, 94
6, 147720, Note_on_c, 4, 48, 84
6, 147750, Note_on_c, 4, 64, 0
6, 147750, Note_on_c, 4, 67, 84
6, 147780, Note_on_c, 4, 67, 0
6, 147780, Note_on_c, 4, 70, 93
6, 147810, Note_on_c, 4, 70, 0
6, 147810, Note_on_c, 4, 58, 0
6, 147810, Note_on_c, 4, 55, 0
6, 147810, Note_on_c, 4, 48, 0
6, 147810, Note_on_c, 4, 76, 99
6, 147810, Note_on_c, 4, 58, 62
6, 147810, Note_on_c, 4, 55, 94
6, 147810, Note_on_c, 4, 48, 89
6, 147840, Note_on_c, 4, 48, 0
6, 147840, Note_on_c, 4, 76, 0
6, 147840, Note_on_c, 4, 58, 0
6, 147840, Note_on_c, 4, 55, 0
6, 147840, Note_on_c, 4, 65, 98
6, 147840, Note_on_c, 4, 57, 90
6, 147840, Note_on_c, 4, 53, 84
6, 147870, Note_on_c, 4, 65, 0
6, 147870, Note_on_c, 4, 69, 93
6, 147900, Note_on_c, 4, 69, 0
6, 147900, Note_on_c, 4, 72, 74
6, 147930, Note_on_c, 4, 72, 0
6, 147930, Note_on_c, 4, 77, 98
6, 147960, Note_on_c, 4, 77, 0
6, 147960, Note_on_c, 4, 53, 0
6, 147960, Note_on_c, 4, 57, 0
6, 147960, Note_on_c, 4, 69, 95
6, 147990, Note_on_c, 4, 69, 0
6, 147990, Note_on_c, 4, 72, 76
6, 148020, Note_on_c, 4, 72, 0
6, 148020, Note_on_c, 4, 77, 99
6, 148050, Note_on_c, 4, 77, 0
6, 148050, Note_on_c, 4, 81, 105
6, 148080, Note_on_c, 4, 81, 0
6, 148080, Note_on_c, 4, 72, 70
6, 148110, Note_on_c, 4, 72, 0
6, 148110, Note_on_c, 4, 77, 95
6, 148140, Note_on_c, 4, 77, 0
6, 148140, Note_on_c, 4, 81, 95
6, 148170, Note_on_c, 4, 81, 0
6, 148170, Note_on_c, 4, 84, 95
6, 148200, Note_on_c, 4, 84, 0
6, 148200, Note_on_c, 4, 76, 94
6, 148200, Note_on_c, 4, 70, 65
6, 148200, Note_on_c, 4, 67, 90
6, 148200, Note_on_c, 4, 60, 93
6, 148230, Note_on_c, 4, 76, 0
6, 148230, Note_on_c, 4, 79, 99
6, 148260, Note_on_c, 4, 79, 0
6, 148260, Note_on_c, 4, 82, 90
6, 148290, Note_on_c, 4, 82, 0
6, 148290, Note_on_c, 4, 70, 0
6, 148290, Note_on_c, 4, 67, 0
6, 148290, Note_on_c, 4, 60, 0
6, 148290, Note_on_c, 4, 88, 104
6, 148290, Note_on_c, 4, 70, 69
6, 148290, Note_on_c, 4, 67, 94
6, 148290, Note_on_c, 4, 60, 89
6, 148320, Note_on_c, 4, 60, 0
6, 148320, Note_on_c, 4, 88, 0
6, 148320, Note_on_c, 4, 70, 0
6, 148320, Note_on_c, 4, 67, 0
6, 148320, Note_on_c, 4, 77, 89
6, 148320, Note_on_c, 4, 69, 89
6, 148320, Note_on_c, 4, 65, 94
6, 148350, Note_on_c, 4, 77, 0
6, 148350, Note_on_c, 4, 81, 99
6, 148380, Note_on_c, 4, 81, 0
6, 148380, Note_on_c, 4, 84, 99
6, 148410, Note_on_c, 4, 84, 0
6, 148410, Note_on_c, 4, 89, 105
6, 148440, Note_on_c, 4, 89, 0
6, 148440, Note_on_c, 4, 65, 0
6, 148440, Note_on_c, 4, 69, 0
6, 148440, Note_on_c, 4, 76, 94
6, 148440, Note_on_c, 4, 70, 76
6, 148440, Note_on_c, 4, 67, 93
6, 148440, Note_on_c, 4, 60, 94
6, 148470, Note_on_c, 4, 76, 0
6, 148470, Note_on_c, 4, 79, 95
6, 148500, Note_on_c, 4, 79, 0
6, 148500, Note_on_c, 4, 82, 86
6, 148530, Note_on_c, 4, 82, 0
6, 148530, Note_on_c, 4, 70, 0
6, 148530, Note_on_c, 4, 67, 0
6, 148530, Note_on_c, 4, 60, 0
6, 148530, Note_on_c, 4, 88, 105
6, 148530, Note_on_c, 4, 70, 74
6, 148530, Note_on_c, 4, 67, 95
6, 148530, Note_on_c, 4, 60, 93
6, 148560, Note_on_c, 4, 60, 0
6, 148560, Note_on_c, 4, 88, 0
6, 148560, Note_on_c, 4, 70, 0
6, 148560, Note_on_c, 4, 67, 0
6, 148560, Note_on_c, 4, 77, 94
6, 148560, Note_on_c, 4, 69, 94
6, 148560, Note_on_c, 4, 65, 101
6, 148590, Note_on_c, 4, 77, 0
6, 148590, Note_on_c, 4, 81, 99
6, 148620, Note_on_c, 4, 81, 0
6, 148620, Note_on_c, 4, 84, 95
6, 148650, Note_on_c, 4, 84, 0
6, 148650, Note_on_c, 4, 89, 99
6, 148680, Note_on_c, 4, 89, 0
6, 148680, Note_on_c, 4, 65, 0
6, 148680, Note_on_c, 4, 69, 0
6, 148680, Note_on_c, 4, 76, 89
6, 148680, Note_on_c, 4, 70, 78
6, 148680, Note_on_c, 4, 67, 98
6, 148680, Note_on_c, 4, 60, 94
6, 148710, Note_on_c, 4, 76, 0
6, 148710, Note_on_c, 4, 79, 94
6, 148740, Note_on_c, 4, 79, 0
6, 148740, Note_on_c, 4, 82, 86
6, 148770, Note_on_c, 4, 82, 0
6, 148770, Note_on_c, 4, 70, 0
6, 148770, Note_on_c, 4, 67, 0
6, 148770, Note_on_c, 4, 60, 0
6, 148770, Note_on_c, 4, 88, 99
6, 148770, Note_on_c, 4, 70, 86
6, 148770, Note_on_c, 4, 67, 98
6, 148770, Note_on_c, 4, 60, 94
6, 148800, Note_on_c, 4, 60, 0
6, 148800, Note_on_c, 4, 88, 0
6, 148800, Note_on_c, 4, 70, 0
6, 148800, Note_on_c, 4, 67, 0
6, 148800, Note_on_c, 4, 89, 98
6, 148800, Note_on_c, 4, 77, 95
6, 148800, Note_on_c, 4, 69, 89
6, 148800, Note_on_c, 4, 65, 101
6, 148920, Note_on_c, 4, 65, 0
6, 148920, Note_on_c, 4, 89, 0
6, 148920, Note_on_c, 4, 77, 0
6, 148920, Note_on_c, 4, 69, 0
6, 152880, Note_on_c, 4, 77, 70
6, 153000, Note_on_c, 4, 77, 0
6, 153000, Note_on_c, 4, 77, 65
6, 153020, Note_on_c, 4, 77, 0
6, 153020, Note_on_c, 4, 79, 71
6, 153040, Note_on_c, 4, 79, 0
6, 153040, Note_on_c, 4, 77, 71
6, 153060, Note_on_c, 4, 77, 0
6, 153060, Note_on_c, 4, 79, 67
6, 153075, Note_on_c, 4, 79, 0
6, 153075, Note_on_c, 4, 77, 74
6, 153090, Note_on_c, 4, 77, 0
6, 153090, Note_on_c, 4, 76, 81
6, 153105, Note_on_c, 4, 76, 0
6, 153105, Note_on_c, 4, 77, 73
6, 153120, Note_on_c, 4, 77, 0
6, 153120, Note_on_c, 4, 82, 73
6, 153120, Note_on_c, 4, 62, 51
6, 153120, Note_on_c, 4, 58, 57
6, 153360, Note_on_c, 4, 58, 0
6, 153360, Note_on_c, 4, 62, 0
6, 153360, Note_on_c, 4, 82, 0
6, 153360, Note_on_c, 4, 81, 69
6, 153360, Note_on_c, 4, 63, 40
6, 153360, Note_on_c, 4, 60, 63
6, 153360, Note_on_c, 4, 53, 47
6, 153420, Note_on_c, 4, 81, 0
6, 153420, Note_on_c, 4, 79, 71
6, 153480, Note_on_c, 4, 79, 0
6, 153480, Note_on_c, 4, 77, 74
6, 153540, Note_on_c, 4, 77, 0
6, 153540, Note_on_c, 4, 75, 76
6, 153600, Note_on_c, 4, 75, 0
6, 153600, Note_on_c, 4, 53, 0
6, 153600, Note_on_c, 4, 60, 0
6, 153600, Note_on_c, 4, 63, 0
6, 153600, Note_on_c, 4, 74, 84
6, 153600, Note_on_c, 4, 62, 54
6, 153600, Note_on_c, 4, 58, 56
6, 153600, Note_on_c, 4, 55, 64
6, 153660, Note_on_c, 4, 74, 0
6, 153720, Note_on_c, 4, 62, 0
6, 153720, Note_on_c, 4, 58, 0
6, 153720, Note_on_c, 4, 55, 0
6, 153840, Note_on_c, 4, 79, 72
6, 153880, Note_on_c, 4, 79, 0
6, 153880, Note_on_c, 4, 78, 54
6, 153920, Note_on_c, 4, 78, 0
6, 153920, Note_on_c, 4, 77, 57
6, 153960, Note_on_c, 4, 77, 0
6, 153960, Note_on_c, 4, 76, 65
6, 154000, Note_on_c, 4, 76, 0
6, 154000, Note_on_c, 4, 75, 62
6, 154040, Note_on_c, 4, 75, 0
6, 154040, Note_on_c, 4, 74, 69
6, 154080, Note_on_c, 4, 74, 0
6, 154080, Note_on_c, 4, 72, 65
6, 154080, Note_on_c, 4, 67, 64
6, 154120, Note_on_c, 4, 67, 0
6, 154120, Note_on_c, 4, 66, 70
6, 154140, Note_on_c, 4, 72, 0
6, 154160, Note_on_c, 4, 66, 0
6, 154160, Note_on_c, 4, 65, 61
6, 154200, Note_on_c, 4, 65, 0
6, 154200, Note_on_c, 4, 72, 72
6, 154200, Note_on_c, 4, 64, 72
6, 154240, Note_on_c, 4, 64, 0
6, 154240, Note_on_c, 4, 63, 71
6, 154260, Note_on_c, 4, 72, 0
6, 154280, Note_on_c, 4, 63, 0
6, 154280, Note_on_c, 4, 62, 76
6, 154320, Note_on_c, 4, 62, 0
6, 154320, Note_on_c, 4, 72, 64
6, 154320, Note_on_c, 4, 60, 77
6, 154380, Note_on_c, 4, 60, 0
6, 154380, Note_on_c, 4, 72, 0
6, 154440, Note_on_c, 4, 74, 61
6, 154440, Note_on_c, 4, 67, 57
6, 154440, Note_on_c, 4, 62, 59
6, 154440, Note_on_c, 4, 59, 68
6, 154500, Note_on_c, 4, 59, 0
6, 154500, Note_on_c, 4, 74, 0
6, 154500, Note_on_c, 4, 67, 0
6, 154500, Note_on_c, 4, 62, 0
6, 154560, Note_on_c, 4, 77, 61
6, 154560, Note_on_c, 4, 67, 60
6, 154560, Note_on_c, 4, 62, 64
6, 154560, Note_on_c, 4, 48, 80
6, 154680, Note_on_c, 4, 62, 0
6, 154680, Note_on_c, 4, 59, 68
6, 154800, Note_on_c, 4, 59, 0
6, 154800, Note_on_c, 4, 77, 0
6, 154800, Note_on_c, 4, 67, 0
6, 154800, Note_on_c, 4, 75, 54
6, 154800, Note_on_c, 4, 67, 64
6, 154800, Note_on_c, 4, 60, 69
6, 154920, Note_on_c, 4, 60, 0
6, 154920, Note_on_c, 4, 48, 0
6, 154920, Note_on_c, 4, 75, 0
6, 154920, Note_on_c, 4, 67, 0
6, 154920, Note_on_c, 4, 84, 71
6, 154980, Note_on_c, 4, 84, 0
6, 154980, Note_on_c, 4, 86, 81
6, 155040, Note_on_c, 4, 86, 0
6, 155040, Note_on_c, 4, 87, 73
6, 155040, Note_on_c, 4, 69, 62
6, 155040, Note_on_c, 4, 65, 65
6, 155040, Note_on_c, 4, 60, 62
6, 155060, Note_on_c, 4, 87, 0
6, 155060, Note_on_c, 4, 89, 71
6, 155080, Note_on_c, 4, 89, 0
6, 155080, Note_on_c, 4, 87, 73
6, 155100, Note_on_c, 4, 87, 0
6, 155100, Note_on_c, 4, 89, 80
6, 155115, Note_on_c, 4, 89, 0
6, 155115, Note_on_c, 4, 87, 78
6, 155130, Note_on_c, 4, 87, 0
6, 155130, Note_on_c, 4, 86, 80
6, 155145, Note_on_c, 4, 86, 0
6, 155145, Note_on_c, 4, 87, 82
6, 155160, Note_on_c, 4, 87, 0
6, 155160, Note_on_c, 4, 89, 80
6, 155220, Note_on_c, 4, 89, 0
6, 155220, Note_on_c, 4, 87, 72
6, 155280, Note_on_c, 4, 87, 0
6, 155280, Note_on_c, 4, 69, 0
6, 155280, Note_on_c, 4, 65, 0
6, 155280, Note_on_c, 4, 60, 0
6, 155280, Note_on_c, 4, 86, 89
6, 155280, Note_on_c, 4, 72, 40
6, 155280, Note_on_c, 4, 65, 70
6, 155280, Note_on_c, 4, 63, 53
6, 155340, Note_on_c, 4, 86, 0
6, 155340, Note_on_c, 4, 84, 76
6, 155400, Note_on_c, 4, 84, 0
6, 155400, Note_on_c, 4, 82, 74
6, 155460, Note_on_c, 4, 82, 0
6, 155460, Note_on_c, 4, 81, 78
6, 155520, Note_on_c, 4, 81, 0
6, 155520, Note_on_c, 4, 63, 0
6, 155520, Note_on_c, 4, 65, 0
6, 155520, Note_on_c, 4, 72, 0
6, 155520, Note_on_c, 4, 84, 70
6, 155520, Note_on_c, 4, 70, 58
6, 155520, Note_on_c, 4, 65, 80
6, 155520, Note_on_c, 4, 62, 76
6, 155580, Note_on_c, 4, 84, 0
6, 155580, Note_on_c, 4, 82, 74
6, 155640, Note_on_c, 4, 82, 0
6, 155640, Note_on_c, 4, 62, 0
6, 155640, Note_on_c, 4, 65, 0
6, 155640, Note_on_c, 4, 70, 0
6, 155640, Note_on_c, 4, 86, 76
6, 155700, Note_on_c, 4, 86, 0
6, 155700, Note_on_c, 4, 84, 76
6, 155760, Note_on_c, 4, 84, 0
6, 155760, Note_on_c, 4, 82, 72
6, 155820, Note_on_c, 4, 82, 0
6, 155820, Note_on_c, 4, 81, 64
6, 155880, Note_on_c, 4, 81, 0
6, 155880, Note_on_c, 4, 79, 84
6, 155940, Note_on_c, 4, 79, 0
6, 155940, Note_on_c, 4, 77, 81
6, 156000, Note_on_c, 4, 77, 0
6, 156000, Note_on_c, 4, 76, 78
6, 156060, Note_on_c, 4, 76, 0
6, 156060, Note_on_c, 4, 77, 76
6, 156120, Note_on_c, 4, 77, 0
6, 156120, Note_on_c, 4, 79, 71
6, 156120, Note_on_c, 4, 55, 62
6, 156120, Note_on_c, 4, 51, 70
6, 156180, Note_on_c, 4, 55, 0
6, 156180, Note_on_c, 4, 79, 0
6, 156180, Note_on_c, 4, 75, 84
6, 156180, Note_on_c, 4, 60, 66
6, 156240, Note_on_c, 4, 60, 0
6, 156240, Note_on_c, 4, 75, 0
6, 156240, Note_on_c, 4, 51, 0
6, 156240, Note_on_c, 4, 74, 81
6, 156240, Note_on_c, 4, 58, 72
6, 156240, Note_on_c, 4, 53, 74
6, 156300, Note_on_c, 4, 58, 0
6, 156300, Note_on_c, 4, 74, 0
6, 156300, Note_on_c, 4, 77, 76
6, 156300, Note_on_c, 4, 62, 67
6, 156360, Note_on_c, 4, 62, 0
6, 156360, Note_on_c, 4, 77, 0
6, 156360, Note_on_c, 4, 53, 0
6, 156360, Note_on_c, 4, 75, 80
6, 156360, Note_on_c, 4, 60, 76
6, 156360, Note_on_c, 4, 53, 61
6, 156420, Note_on_c, 4, 60, 0
6, 156420, Note_on_c, 4, 75, 0
6, 156420, Note_on_c, 4, 72, 58
6, 156420, Note_on_c, 4, 57, 86
6, 156480, Note_on_c, 4, 57, 0
6, 156480, Note_on_c, 4, 72, 0
6, 156480, Note_on_c, 4, 53, 0
6, 156480, Note_on_c, 4, 70, 76
6, 156480, Note_on_c, 4, 46, 61
6, 156540, Note_on_c, 4, 46, 0
6, 156540, Note_on_c, 4, 58, 57
6, 156600, Note_on_c, 4, 58, 0
6, 156600, Note_on_c, 4, 70, 0
6, 156600, Note_on_c, 4, 46, 64
6, 156660, Note_on_c, 4, 46, 0
6, 156660, Note_on_c, 4, 58, 54
6, 156720, Note_on_c, 4, 58, 0
6, 156720, Note_on_c, 4, 81, 71
6, 156720, Note_on_c, 4, 46, 64
6, 156780, Note_on_c, 4, 46, 0
6, 156780, Note_on_c, 4, 81, 0
6, 156780, Note_on_c, 4, 82, 72
6, 156780, Note_on_c, 4, 58, 52
6, 156840, Note_on_c, 4, 58, 0
6, 156840, Note_on_c, 4, 82, 0
6, 156840, Note_on_c, 4, 79, 71
6, 156840, Note_on_c, 4, 46, 74
6, 156870, Note_on_c, 4, 79, 0
6, 156900, Note_on_c, 4, 46, 0
6, 156900, Note_on_c, 4, 75, 80
6, 156900, Note_on_c, 4, 58, 58
6, 156930, Note_on_c, 4, 75, 0
6, 156960, Note_on_c, 4, 58, 0
6, 156960, Note_on_c, 4, 76, 78
6, 156960, Note_on_c, 4, 46, 71
6, 157020, Note_on_c, 4, 46, 0
6, 157020, Note_on_c, 4, 76, 0
6, 157020, Note_on_c, 4, 77, 72
6, 157020, Note_on_c, 4, 58, 58
6, 157080, Note_on_c, 4, 58, 0
6, 157080, Note_on_c, 4, 77, 0
6, 157080, Note_on_c, 4, 74, 80
6, 157080, Note_on_c, 4, 46, 63
6, 157110, Note_on_c, 4, 74, 0
6, 157140, Note_on_c, 4, 46, 0
6, 157140, Note_on_c, 4, 70, 76
6, 157140, Note_on_c, 4, 58, 52
6, 157170, Note_on_c, 4, 70, 0
6, 157200, Note_on_c, 4, 58, 0
6, 157200, Note_on_c, 4, 81, 72
6, 157200, Note_on_c, 4, 46, 62
6, 157260, Note_on_c, 4, 46, 0
6, 157260, Note_on_c, 4, 81, 0
6, 157260, Note_on_c, 4, 82, 74
6, 157260, Note_on_c, 4, 58, 53
6, 157320, Note_on_c, 4, 58, 0
6, 157320, Note_on_c, 4, 82, 0
6, 157320, Note_on_c, 4, 79, 74
6, 157320, Note_on_c, 4, 46, 74
6, 157350, Note_on_c, 4, 79, 0
6, 157380, Note_on_c, 4, 46, 0
6, 157380, Note_on_c, 4, 75, 89
6, 157380, Note_on_c, 4, 58, 62
6, 157410, Note_on_c, 4, 75, 0
6, 157440, Note_on_c, 4, 58, 0
6, 157440, Note_on_c, 4, 76, 89
6, 157440, Note_on_c, 4, 46, 71
6, 157500, Note_on_c, 4, 46, 0
6, 157500, Note_on_c, 4, 76, 0
6, 157500, Note_on_c, 4, 77, 82
6, 157500, Note_on_c, 4, 58, 57
6, 157560, Note_on_c, 4, 58, 0
6, 157560, Note_on_c, 4, 77, 0
6, 157560, Note_on_c, 4, 74, 71
6, 157560, Note_on_c, 4, 46, 76
6, 157590, Note_on_c, 4, 74, 0
6, 157620, Note_on_c, 4, 46, 0
6, 157620, Note_on_c, 4, 70, 76
6, 157620, Note_on_c, 4, 58, 63
6, 157650, Note_on_c, 4, 70, 0
6, 157680, Note_on_c, 4, 58, 0
6, 157680, Note_on_c, 4, 70, 73
6, 157710, Note_on_c, 4, 70, 0
6, 157710, Note_on_c, 4, 72, 53
6, 157740, Note_on_c, 4, 72, 0
6, 157740, Note_on_c, 4, 70, 74
6, 157760, Note_on_c, 4, 70, 0
6, 157760, Note_on_c, 4, 72, 52
6, 157780, Note_on_c, 4, 72, 0
6, 157780, Note_on_c, 4, 70, 77
6, 157800, Note_on_c, 4, 70, 0
6, 157800, Note_on_c, 4, 72, 46
6, 157815, Note_on_c, 4, 72, 0
6, 157815, Note_on_c, 4, 70, 78
6, 157830, Note_on_c, 4, 70, 0
6, 157830, Note_on_c, 4, 72, 68
6, 157845, Note_on_c, 4, 72, 0
6, 157845, Note_on_c, 4, 70, 80
6, 157860, Note_on_c, 4, 70, 0
6, 157860, Note_on_c, 4, 72, 64
6, 157880, Note_on_c, 4, 72, 0
6, 157880, Note_on_c, 4, 70, 82
6, 157900, Note_on_c, 4, 70, 0
6, 157900, Note_on_c, 4, 72, 65
6, 157920, Note_on_c, 4, 72, 0
6, 157920, Note_on_c, 4, 70, 82
6, 157940, Note_on_c, 4, 70, 0
6, 157940, Note_on_c, 4, 72, 58
6, 157960, Note_on_c, 4, 72, 0
6, 157960, Note_on_c, 4, 70, 80
6, 157980, Note_on_c, 4, 70, 0
6, 157980, Note_on_c, 4, 72, 56
6, 157995, Note_on_c, 4, 72, 0
6, 157995, Note_on_c, 4, 70, 76
6, 158010, Note_on_c, 4, 70, 0
6, 158010, Note_on_c, 4, 72, 54
6, 158025, Note_on_c, 4, 72, 0
6, 158025, Note_on_c, 4, 70, 81
6, 158040, Note_on_c, 4, 70, 0
6, 158040, Note_on_c, 4, 72, 71
6, 158060, Note_on_c, 4, 72, 0
6, 158060, Note_on_c, 4, 70, 77
6, 158080, Note_on_c, 4, 70, 0
6, 158080, Note_on_c, 4, 72, 59
6, 158100, Note_on_c, 4, 72, 0
6, 158100, Note_on_c, 4, 70, 81
6, 158115, Note_on_c, 4, 70, 0
6, 158115, Note_on_c, 4, 72, 72
6, 158130, Note_on_c, 4, 72, 0
6, 158130, Note_on_c, 4, 70, 81
6, 158145, Note_on_c, 4, 70, 0
6, 158145, Note_on_c, 4, 72, 62
6, 158160, Note_on_c, 4, 72, 0
6, 158160, Note_on_c, 4, 70, 82
6, 158180, Note_on_c, 4, 70, 0
6, 158180, Note_on_c, 4, 72, 72
6, 158200, Note_on_c, 4, 72, 0
6, 158200, Note_on_c, 4, 70, 82
6, 158220, Note_on_c, 4, 70, 0
6, 158220, Note_on_c, 4, 72, 64
6, 158235, Note_on_c, 4, 72, 0
6, 158235, Note_on_c, 4, 70, 86
6, 158250, Note_on_c, 4, 70, 0
6, 158250, Note_on_c, 4, 72, 53
6, 158265, Note_on_c, 4, 72, 0
6, 158265, Note_on_c, 4, 70, 82
6, 158280, Note_on_c, 4, 70, 0
6, 158280, Note_on_c, 4, 72, 69
6, 158300, Note_on_c, 4, 72, 0
6, 158300, Note_on_c, 4, 70, 84
6, 158320, Note_on_c, 4, 70, 0
6, 158320, Note_on_c, 4, 72, 61
6, 158340, Note_on_c, 4, 72, 0
6, 158340, Note_on_c, 4, 70, 86
6, 158350, Note_on_c, 4, 70, 0
6, 158350, Note_on_c, 4, 72, 63
6, 158360, Note_on_c, 4, 72, 0
6, 158360, Note_on_c, 4, 70, 89
6, 158370, Note_on_c, 4, 70, 0
6, 158370, Note_on_c, 4, 72, 69
6, 158380, Note_on_c, 4, 72, 0
6, 158400, Note_on_c, 4, 70, 81
6, 158420, Note_on_c, 4, 70, 0
6, 158420, Note_on_c, 4, 72, 56
6, 158440, Note_on_c, 4, 72, 0
6, 158440, Note_on_c, 4, 70, 82
6, 158460, Note_on_c, 4, 70, 0
6, 158460, Note_on_c, 4, 72, 71
6, 158475, Note_on_c, 4, 72, 0
6, 158475, Note_on_c, 4, 70, 84
6, 158490, Note_on_c, 4, 70, 0
6, 158490, Note_on_c, 4, 72, 57
6, 158505, Note_on_c, 4, 72, 0
6, 158505, Note_on_c, 4, 70, 84
6, 158520, Note_on_c, 4, 70, 0
6, 158520, Note_on_c, 4, 72, 61
6, 158540, Note_on_c, 4, 72, 0
6, 158540, Note_on_c, 4, 70, 84
6, 158560, Note_on_c, 4, 70, 0
6, 158560, Note_on_c, 4, 72, 63
6, 158580, Note_on_c, 4, 72, 0
6, 158580, Note_on_c, 4, 70, 86
6, 158595, Note_on_c, 4, 70, 0
6, 158595, Note_on_c, 4, 72, 59
6, 158610, Note_on_c, 4, 72, 0
6, 158610, Note_on_c, 4, 70, 89
6, 158625, Note_on_c, 4, 70, 0
6, 158625, Note_on_c, 4, 72, 65
6, 158640, Note_on_c, 4, 72, 0
6, 158640, Note_on_c, 4, 70, 85
6, 158660, Note_on_c, 4, 70, 0
6, 158660, Note_on_c, 4, 72, 67
6, 158680, Note_on_c, 4, 72, 0
6, 158680, Note_on_c, 4, 70, 89
6, 158700, Note_on_c, 4, 70, 0
6, 158700, Note_on_c, 4, 72, 64
6, 158710, Note_on_c, 4, 72, 0
6, 158710, Note_on_c, 4, 70, 90
6, 158720, Note_on_c, 4, 70, 0
6, 158720, Note_on_c, 4, 72, 74
6, 158730, Note_on_c, 4, 72, 0
6, 158730, Note_on_c, 4, 70, 89
6, 158740, Note_on_c, 4, 70, 0
6, 158770, Note_on_c, 4, 69, 53
6, 158830, Note_on_c, 4, 69, 0
6, 158830, Note_on_c, 4, 70, 44
6, 158890, Note_on_c, 4, 70, 0
6, 158890, Note_on_c, 4, 69, 57
6, 158950, Note_on_c, 4, 69, 0
6, 158950, Note_on_c, 4, 70, 53
6, 159010, Note_on_c, 4, 70, 0
6, 159010, Note_on_c, 4, 69, 51
6, 159070, Note_on_c, 4, 69, 0
6, 159070, Note_on_c, 4, 70, 43
6, 159130, Note_on_c, 4, 70, 0
6, 159130, Note_on_c, 4, 69, 52
6, 159190, Note_on_c, 4, 69, 0
6, 159190, Note_on_c, 4, 70, 43
6, 159250, Note_on_c, 4, 70, 0
6, 159250, Note_on_c, 4, 71, 46
6, 159310, Note_on_c, 4, 71, 0
6, 159310, Note_on_c, 4, 70, 44
6, 159360, Note_on_c, 4, 73, 43
6, 159360, Note_on_c, 4, 54, 35
6, 159370, Note_on_c, 4, 70, 0
6, 159420, Note_on_c, 4, 54, 0
6, 159420, Note_on_c, 4, 58, 50
6, 159480, Note_on_c, 4, 58, 0
6, 159480, Note_on_c, 4, 61, 44
6, 159540, Note_on_c, 4, 61, 0
6, 159540, Note_on_c, 4, 58, 35
6, 159600, Note_on_c, 4, 58, 0
6, 159600, Note_on_c, 4, 73, 0
6, 159600, Note_on_c, 4, 66, 43
6, 159600, Note_on_c, 4, 54, 48
6, 159660, Note_on_c, 4, 54, 0
6, 159660, Note_on_c, 4, 58, 35
6, 159720, Note_on_c, 4, 58, 0
6, 159720, Note_on_c, 4, 61, 43
6, 159780, Note_on_c, 4, 61, 0
6, 159780, Note_on_c, 4, 58, 45
6, 159840, Note_on_c, 4, 58, 0
6, 159840, Note_on_c, 4, 66, 0
6, 159840, Note_on_c, 4, 71, 43
6, 159840, Note_on_c, 4, 54, 38
6, 159900, Note_on_c, 4, 54, 0
6, 159900, Note_on_c, 4, 56, 38
6, 159960, Note_on_c, 4, 56, 0
6, 159960, Note_on_c, 4, 59, 46
6, 160020, Note_on_c, 4, 59, 0
6, 160020, Note_on_c, 4, 56, 62
6, 160080, Note_on_c, 4, 56, 0
6, 160080, Note_on_c, 4, 71, 0
6, 160080, Note_on_c, 4, 54, 52
6, 160140, Note_on_c, 4, 54, 0
6, 160140, Note_on_c, 4, 75, 70
6, 160140, Note_on_c, 4, 56, 61
6, 160200, Note_on_c, 4, 56, 0
6, 160200, Note_on_c, 4, 75, 0
6, 160200, Note_on_c, 4, 73, 45
6, 160200, Note_on_c, 4, 59, 65
6, 160260, Note_on_c, 4, 59, 0
6, 160260, Note_on_c, 4, 73, 0
6, 160260, Note_on_c, 4, 71, 43
6, 160260, Note_on_c, 4, 56, 65
6, 160320, Note_on_c, 4, 56, 0
6, 160320, Note_on_c, 4, 71, 0
6, 160320, Note_on_c, 4, 70, 49
6, 160320, Note_on_c, 4, 54, 54
6, 160380, Note_on_c, 4, 54, 0
6, 160380, Note_on_c, 4, 70, 0
6, 160380, Note_on_c, 4, 71, 62
6, 160380, Note_on_c, 4, 58, 61
6, 160440, Note_on_c, 4, 58, 0
6, 160440, Note_on_c, 4, 71, 0
6, 160440, Note_on_c, 4, 73, 63
6, 160440, Note_on_c, 4, 61, 43
6, 160500, Note_on_c, 4, 61, 0
6, 160500, Note_on_c, 4, 73, 0
6, 160500, Note_on_c, 4, 75, 72
6, 160500, Note_on_c, 4, 58, 62
6, 160560, Note_on_c, 4, 58, 0
6, 160560, Note_on_c, 4, 75, 0
6, 160560, Note_on_c, 4, 77, 52
6, 160560, Note_on_c, 4, 54, 50
6, 160620, Note_on_c, 4, 54, 0
6, 160620, Note_on_c, 4, 77, 0
6, 160620, Note_on_c, 4, 78, 41
6, 160620, Note_on_c, 4, 58, 52
6, 160680, Note_on_c, 4, 58, 0
6, 160680, Note_on_c, 4, 78, 0
6, 160680, Note_on_c, 4, 80, 51
6, 160680, Note_on_c, 4, 61, 45
6, 160740, Note_on_c, 4, 61, 0
6, 160740, Note_on_c, 4, 80, 0
6, 160740, Note_on_c, 4, 82, 44
6, 160740, Note_on_c, 4, 58, 65
6, 160800, Note_on_c, 4, 58, 0
6, 160800, Note_on_c, 4, 82, 0
6, 160800, Note_on_c, 4, 83, 59
6, 160800, Note_on_c, 4, 54, 53
6, 160860, Note_on_c, 4, 54, 0
6, 160860, Note_on_c, 4, 83, 0
6, 160860, Note_on_c, 4, 84, 52
6, 160860, Note_on_c, 4, 56, 54
6, 160880, Note_on_c, 4, 84, 0
6, 160880, Note_on_c, 4, 83, 59
6, 160900, Note_on_c, 4, 83, 0
6, 160900, Note_on_c, 4, 82, 43
6, 160920, Note_on_c, 4, 82, 0
6, 160920, Note_on_c, 4, 56, 0
6, 160920, Note_on_c, 4, 83, 44
6, 160920, Note_on_c, 4, 59, 44
6, 160980, Note_on_c, 4, 59, 0
6, 160980, Note_on_c, 4, 83, 0
6, 160980, Note_on_c, 4, 85, 61
6, 160980, Note_on_c, 4, 56, 43
6, 161040, Note_on_c, 4, 56, 0
6, 161040, Note_on_c, 4, 85, 0
6, 161040, Note_on_c, 4, 89, 48
6, 161040, Note_on_c, 4, 54, 50
6, 161100, Note_on_c, 4, 54, 0
6, 161100, Note_on_c, 4, 89, 0
6, 161100, Note_on_c, 4, 87, 65
6, 161100, Note_on_c, 4, 56, 43
6, 161160, Note_on_c, 4, 56, 0
6, 161160, Note_on_c, 4, 87, 0
6, 161160, Note_on_c, 4, 85, 50
6, 161160, Note_on_c, 4, 59, 44
6, 161220, Note_on_c, 4, 59, 0
6, 161220, Note_on_c, 4, 85, 0
6, 161220, Note_on_c, 4, 83, 49
6, 161220, Note_on_c, 4, 56, 44
6, 161280, Note_on_c, 4, 56, 0
6, 161280, Note_on_c, 4, 83, 0
6, 161280, Note_on_c, 4, 82, 61
6, 161280, Note_on_c, 4, 54, 61
6, 161340, Note_on_c, 4, 54, 0
6, 161340, Note_on_c, 4, 58, 68
6, 161400, Note_on_c, 4, 58, 0
6, 161400, Note_on_c, 4, 82, 0
6, 161400, Note_on_c, 4, 84, 81
6, 161400, Note_on_c, 4, 61, 72
6, 161460, Note_on_c, 4, 61, 0
6, 161460, Note_on_c, 4, 84, 0
6, 161460, Note_on_c, 4, 85, 85
6, 161460, Note_on_c, 4, 58, 86
6, 161520, Note_on_c, 4, 58, 0
6, 161520, Note_on_c, 4, 85, 0
6, 161520, Note_on_c, 4, 52, 99
6, 161580, Note_on_c, 4, 52, 0
6, 161580, Note_on_c, 4, 58, 84
6, 161640, Note_on_c, 4, 58, 0
6, 161640, Note_on_c, 4, 84, 80
6, 161640, Note_on_c, 4, 61, 74
6, 161700, Note_on_c, 4, 61, 0
6, 161700, Note_on_c, 4, 84, 0
6, 161700, Note_on_c, 4, 85, 86
6, 161700, Note_on_c, 4, 58, 84
6, 161760, Note_on_c, 4, 58, 0
6, 161760, Note_on_c, 4, 85, 0
6, 161760, Note_on_c, 4, 53, 86
6, 161820, Note_on_c, 4, 53, 0
6, 161820, Note_on_c, 4, 85, 84
6, 161820, Note_on_c, 4, 58, 80
6, 161880, Note_on_c, 4, 58, 0
6, 161880, Note_on_c, 4, 85, 0
6, 161880, Note_on_c, 4, 87, 93
6, 161880, Note_on_c, 4, 61, 50
6, 161940, Note_on_c, 4, 61, 0
6, 161940, Note_on_c, 4, 87, 0
6, 161940, Note_on_c, 4, 88, 72
6, 161940, Note_on_c, 4, 58, 45
6, 162000, Note_on_c, 4, 58, 0
6, 162000, Note_on_c, 4, 88, 0
6, 162000, Note_on_c, 4, 89, 58
6, 162000, Note_on_c, 4, 53, 42
6, 162060, Note_on_c, 4, 53, 0
6, 162060, Note_on_c, 4, 89, 0
6, 162060, Note_on_c, 4, 77, 74
6, 162060, Note_on_c, 4, 60, 64
6, 162120, Note_on_c, 4, 60, 0
6, 162120, Note_on_c, 4, 77, 0
6, 162120, Note_on_c, 4, 79, 50
6, 162120, Note_on_c, 4, 63, 35
6, 162180, Note_on_c, 4, 63, 0
6, 162180, Note_on_c, 4, 79, 0
6, 162180, Note_on_c, 4, 81, 44
6, 162180, Note_on_c, 4, 60, 45
6, 162210, Note_on_c, 4, 81, 0
6, 162225, Note_on_c, 4, 84, 59
6, 162240, Note_on_c, 4, 84, 0
6, 162240, Note_on_c, 4, 60, 0
6, 162240, Note_on_c, 4, 82, 61
6, 162240, Note_on_c, 4, 54, 32
6, 162270, Note_on_c, 4, 82, 0
6, 162270, Note_on_c, 4, 81, 68
6, 162300, Note_on_c, 4, 81, 0
6, 162300, Note_on_c, 4, 54, 0
6, 162300, Note_on_c, 4, 82, 74
6, 162300, Note_on_c, 4, 61, 43
6, 162330, Note_on_c, 4, 82, 0
6, 162330, Note_on_c, 4, 84, 84
6, 162360, Note_on_c, 4, 84, 0
6, 162360, Note_on_c, 4, 61, 0
6, 162360, Note_on_c, 4, 85, 84
6, 162360, Note_on_c, 4, 58, 51
6, 162390, Note_on_c, 4, 85, 0
6, 162420, Note_on_c, 4, 58, 0
6, 162420, Note_on_c, 4, 85, 80
6, 162420, Note_on_c, 4, 61, 54
6, 162450, Note_on_c, 4, 85, 0
6, 162465, Note_on_c, 4, 84, 74
6, 162480, Note_on_c, 4, 84, 0
6, 162480, Note_on_c, 4, 61, 0
6, 162480, Note_on_c, 4, 82, 74
6, 162480, Note_on_c, 4, 55, 71
6, 162510, Note_on_c, 4, 82, 0
6, 162510, Note_on_c, 4, 81, 82
6, 162540, Note_on_c, 4, 81, 0
6, 162540, Note_on_c, 4, 55, 0
6, 162540, Note_on_c, 4, 82, 85
6, 162540, Note_on_c, 4, 64, 72
6, 162570, Note_on_c, 4, 82, 0
6, 162570, Note_on_c, 4, 84, 84
6, 162600, Note_on_c, 4, 84, 0
6, 162600, Note_on_c, 4, 64, 0
6, 162600, Note_on_c, 4, 85, 82
6, 162600, Note_on_c, 4, 58, 80
6, 162630, Note_on_c, 4, 85, 0
6, 162660, Note_on_c, 4, 58, 0
6, 162660, Note_on_c, 4, 85, 85
6, 162660, Note_on_c, 4, 64, 84
6, 162690, Note_on_c, 4, 85, 0
6, 162705, Note_on_c, 4, 87, 95
6, 162720, Note_on_c, 4, 87, 0
6, 162720, Note_on_c, 4, 64, 0
6, 162720, Note_on_c, 4, 86, 99
6, 162720, Note_on_c, 4, 53, 86
6, 162750, Note_on_c, 4, 86, 0
6, 162750, Note_on_c, 4, 84, 85
6, 162780, Note_on_c, 4, 84, 0
6, 162780, Note_on_c, 4, 53, 0
6, 162780, Note_on_c, 4, 86, 94
6, 162780, Note_on_c, 4, 65, 82
6, 162810, Note_on_c, 4, 86, 0
6, 162810, Note_on_c, 4, 87, 85
6, 162840, Note_on_c, 4, 87, 0
6, 162840, Note_on_c, 4, 65, 0
6, 162840, Note_on_c, 4, 89, 86
6, 162840, Note_on_c, 4, 62, 86
6, 162870, Note_on_c, 4, 89, 0
6, 162900, Note_on_c, 4, 62, 0
6, 162900, Note_on_c, 4, 89, 82
6, 162900, Note_on_c, 4, 58, 82
6, 162930, Note_on_c, 4, 89, 0
6, 162960, Note_on_c, 4, 58, 0
6, 162960, Note_on_c, 4, 89, 62
6, 162960, Note_on_c, 4, 53, 84
6, 163020, Note_on_c, 4, 53, 0
6, 163020, Note_on_c, 4, 89, 0
6, 163020, Note_on_c, 4, 77, 44
6, 163020, Note_on_c, 4, 65, 62
6, 163080, Note_on_c, 4, 65, 0
6, 163080, Note_on_c, 4, 77, 0
6, 163080, Note_on_c, 4, 79, 46
6, 163080, Note_on_c, 4, 63, 44
6, 163110, Note_on_c, 4, 79, 0
6, 163140, Note_on_c, 4, 63, 0
6, 163140, Note_on_c, 4, 81, 65
6, 163140, Note_on_c, 4, 60, 61
6, 163170, Note_on_c, 4, 81, 0
6, 163200, Note_on_c, 4, 60, 0
6, 163200, Note_on_c, 4, 82, 36
6, 163200, Note_on_c, 4, 46, 50
6, 163260, Note_on_c, 4, 46, 0
6, 163260, Note_on_c, 4, 58, 50
6, 163320, Note_on_c, 4, 58, 0
6, 163320, Note_on_c, 4, 82, 0
6, 163320, Note_on_c, 4, 46, 43
6, 163380, Note_on_c, 4, 46, 0
6, 163380, Note_on_c, 4, 58, 52
6, 163440, Note_on_c, 4, 58, 0
6, 163440, Note_on_c, 4, 69, 73
6, 163440, Note_on_c, 4, 46, 40
6, 163470, Note_on_c, 4, 69, 0
6, 163470, Note_on_c, 4, 70, 72
6, 163500, Note_on_c, 4, 70, 0
6, 163500, Note_on_c, 4, 46, 0
6, 163500, Note_on_c, 4, 72, 62
6, 163500, Note_on_c, 4, 58, 43
6, 163530, Note_on_c, 4, 72, 0
6, 163530, Note_on_c, 4, 74, 56
6, 163560, Note_on_c, 4, 74, 0
6, 163560, Note_on_c, 4, 58, 0
6, 163560, Note_on_c, 4, 75, 68
6, 163560, Note_on_c, 4, 46, 45
6, 163590, Note_on_c, 4, 75, 0
6, 163590, Note_on_c, 4, 77, 72
6, 163620, Note_on_c, 4, 77, 0
6, 163620, Note_on_c, 4, 46, 0
6, 163620, Note_on_c, 4, 79, 66
6, 163620, Note_on_c, 4, 58, 46
6, 163650, Note_on_c, 4, 79, 0
6, 163650, Note_on_c, 4, 81, 67
6, 163680, Note_on_c, 4, 81, 0
6, 163680, Note_on_c, 4, 58, 0
6, 163680, Note_on_c, 4, 82, 69
6, 163680, Note_on_c, 4, 46, 53
6, 163740, Note_on_c, 4, 46, 0
6, 163740, Note_on_c, 4, 82, 0
6, 163740, Note_on_c, 4, 58, 52
6, 163800, Note_on_c, 4, 58, 0
6, 163800, Note_on_c, 4, 46, 38
6, 163860, Note_on_c, 4, 46, 0
6, 163860, Note_on_c, 4, 58, 54
6, 163920, Note_on_c, 4, 58, 0
6, 163920, Note_on_c, 4, 87, 62
6, 163920, Note_on_c, 4, 46, 40
6, 163950, Note_on_c, 4, 87, 0
6, 163950, Note_on_c, 4, 86, 64
6, 163980, Note_on_c, 4, 86, 0
6, 163980, Note_on_c, 4, 46, 0
6, 163980, Note_on_c, 4, 84, 61
6, 163980, Note_on_c, 4, 58, 43
6, 164010, Note_on_c, 4, 84, 0
6, 164010, Note_on_c, 4, 82, 64
6, 164040, Note_on_c, 4, 82, 0
6, 164040, Note_on_c, 4, 58, 0
6, 164040, Note_on_c, 4, 81, 63
6, 164040, Note_on_c, 4, 46, 50
6, 164070, Note_on_c, 4, 81, 0
6, 164070, Note_on_c, 4, 79, 43
6, 164100, Note_on_c, 4, 79, 0
6, 164100, Note_on_c, 4, 46, 0
6, 164100, Note_on_c, 4, 77, 46
6, 164100, Note_on_c, 4, 58, 46
6, 164130, Note_on_c, 4, 77, 0
6, 164130, Note_on_c, 4, 75, 72
6, 164160, Note_on_c, 4, 75, 0
6, 164160, Note_on_c, 4, 58, 0
6, 164160, Note_on_c, 4, 74, 72
6, 164160, Note_on_c, 4, 46, 51
6, 164220, Note_on_c, 4, 46, 0
6, 164220, Note_on_c, 4, 74, 0
6, 164220, Note_on_c, 4, 58, 50
6, 164280, Note_on_c, 4, 58, 0
6, 164280, Note_on_c, 4, 46, 48
6, 164340, Note_on_c, 4, 46, 0
6, 164340, Note_on_c, 4, 58, 59
6, 164400, Note_on_c, 4, 58, 0
6, 164400, Note_on_c, 4, 69, 71
6, 164400, Note_on_c, 4, 46, 72
6, 164430, Note_on_c, 4, 69, 0
6, 164430, Note_on_c, 4, 70, 72
6, 164460, Note_on_c, 4, 70, 0
6, 164460, Note_on_c, 4, 46, 0
6, 164460, Note_on_c, 4, 72, 56
6, 164460, Note_on_c, 4, 58, 64
6, 164490, Note_on_c, 4, 72, 0
6, 164490, Note_on_c, 4, 74, 80
6, 164520, Note_on_c, 4, 74, 0
6, 164520, Note_on_c, 4, 58, 0
6, 164520, Note_on_c, 4, 75, 81
6, 164520, Note_on_c, 4, 46, 81
6, 164550, Note_on_c, 4, 75, 0
6, 164550, Note_on_c, 4, 77, 89
6, 164580, Note_on_c, 4, 77, 0
6, 164580, Note_on_c, 4, 46, 0
6, 164580, Note_on_c, 4, 79, 81
6, 164580, Note_on_c, 4, 58, 69
6, 164610, Note_on_c, 4, 79, 0
6, 164610, Note_on_c, 4, 81, 84
6, 164640, Note_on_c, 4, 81, 0
6, 164640, Note_on_c, 4, 58, 0
6, 164640, Note_on_c, 4, 82, 84
6, 164640, Note_on_c, 4, 46, 86
6, 164670, Note_on_c, 4, 82, 0
6, 164670, Note_on_c, 4, 84, 89
6, 164700, Note_on_c, 4, 84, 0
6, 164700, Note_on_c, 4, 46, 0
6, 164700, Note_on_c, 4, 86, 89
6, 164700, Note_on_c, 4, 58, 73
6, 164730, Note_on_c, 4, 86, 0
6, 164730, Note_on_c, 4, 87, 98
6, 164760, Note_on_c, 4, 87, 0
6, 164760, Note_on_c, 4, 58, 0
6, 164760, Note_on_c, 4, 89, 85
6, 164760, Note_on_c, 4, 46, 94
6, 164790, Note_on_c, 4, 89, 0
6, 164790, Note_on_c, 4, 86, 94
6, 164820, Note_on_c, 4, 86, 0
6, 164820, Note_on_c, 4, 46, 0
6, 164820, Note_on_c, 4, 89, 89
6, 164820, Note_on_c, 4, 58, 74
6, 164850, Note_on_c, 4, 89, 0
6, 164850, Note_on_c, 4, 86, 99
6, 164880, Note_on_c, 4, 86, 0
6, 164880, Note_on_c, 4, 58, 0
6, 164880, Note_on_c, 4, 87, 93
6, 164880, Note_on_c, 4, 46, 93
6, 164910, Note_on_c, 4, 87, 0
6, 164910, Note_on_c, 4, 86, 98
6, 164940, Note_on_c, 4, 86, 0
6, 164940, Note_on_c, 4, 46, 0
6, 164940, Note_on_c, 4, 84, 85
6, 164940, Note_on_c, 4, 58, 73
6, 164970, Note_on_c, 4, 84, 0
6, 164970, Note_on_c, 4, 82, 95
6, 165000, Note_on_c, 4, 82, 0
6, 165000, Note_on_c, 4, 58, 0
6, 165000, Note_on_c, 4, 81, 95
6, 165000, Note_on_c, 4, 46, 104
6, 165030, Note_on_c, 4, 81, 0
6, 165030, Note_on_c, 4, 79, 84
6, 165060, Note_on_c, 4, 79, 0
6, 165060, Note_on_c, 4, 46, 0
6, 165060, Note_on_c, 4, 77, 99
6, 165060, Note_on_c, 4, 58, 99
6, 165090, Note_on_c, 4, 77, 0
6, 165090, Note_on_c, 4, 75, 101
6, 165120, Note_on_c, 4, 75, 0
6, 165120, Note_on_c, 4, 58, 0
6, 165120, Note_on_c, 4, 74, 112
6, 165120, Note_on_c, 4, 70, 105
6, 165120, Note_on_c, 4, 58, 105
6, 165150, Note_on_c, 4, 74, 0
6, 165150, Note_on_c, 4, 75, 105
6, 165180, Note_on_c, 4, 75, 0
6, 165180, Note_on_c, 4, 74, 110
6, 165210, Note_on_c, 4, 74, 0
6, 165210, Note_on_c, 4, 72, 82
6, 165240, Note_on_c, 4, 72, 0
6, 165240, Note_on_c, 4, 74, 112
6, 165270, Note_on_c, 4, 74, 0
6, 165270, Note_on_c, 4, 75, 104
6, 165300, Note_on_c, 4, 75, 0
6, 165300, Note_on_c, 4, 77, 94
6, 165330, Note_on_c, 4, 77, 0
6, 165330, Note_on_c, 4, 79, 104
6, 165360, Note_on_c, 4, 79, 0
6, 165360, Note_on_c, 4, 58, 0
6, 165360, Note_on_c, 4, 70, 0
6, 165360, Note_on_c, 4, 81, 94
6, 165360, Note_on_c, 4, 66, 110
6, 165360, Note_on_c, 4, 54, 104
6, 165390, Note_on_c, 4, 81, 0
6, 165390, Note_on_c, 4, 82, 95
6, 165420, Note_on_c, 4, 82, 0
6, 165420, Note_on_c, 4, 84, 104
6, 165450, Note_on_c, 4, 84, 0
6, 165450, Note_on_c, 4, 86, 104
6, 165480, Note_on_c, 4, 86, 0
6, 165480, Note_on_c, 4, 87, 101
6, 165510, Note_on_c, 4, 87, 0
6, 165510, Note_on_c, 4, 86, 112
6, 165540, Note_on_c, 4, 86, 0
6, 165540, Note_on_c, 4, 87, 99
6, 165570, Note_on_c, 4, 87, 0
6, 165570, Note_on_c, 4, 84, 105
6, 165600, Note_on_c, 4, 84, 0
6, 165600, Note_on_c, 4, 54, 0
6, 165600, Note_on_c, 4, 66, 0
6, 165600, Note_on_c, 4, 82, 99
6, 165600, Note_on_c, 4, 67, 90
6, 165600, Note_on_c, 4, 55, 94
6, 165630, Note_on_c, 4, 82, 0
6, 165630, Note_on_c, 4, 84, 105
6, 165660, Note_on_c, 4, 84, 0
6, 165660, Note_on_c, 4, 86, 105
6, 165690, Note_on_c, 4, 86, 0
6, 165690, Note_on_c, 4, 84, 104
6, 165720, Note_on_c, 4, 84, 0
6, 165720, Note_on_c, 4, 55, 0
6, 165720, Note_on_c, 4, 67, 0
6, 165720, Note_on_c, 4, 82, 95
6, 165750, Note_on_c, 4, 82, 0
6, 165750, Note_on_c, 4, 86, 104
6, 165780, Note_on_c, 4, 86, 0
6, 165780, Note_on_c, 4, 84, 99
6, 165810, Note_on_c, 4, 84, 0
6, 165810, Note_on_c, 4, 82, 99
6, 165810, Note_on_c, 4, 76, 105
6, 165825, Note_on_c, 4, 76, 0
6, 165840, Note_on_c, 4, 82, 0
6, 165840, Note_on_c, 4, 81, 99
6, 165840, Note_on_c, 4, 77, 98
6, 165870, Note_on_c, 4, 81, 0
6, 165870, Note_on_c, 4, 84, 99
6, 165900, Note_on_c, 4, 84, 0
6, 165900, Note_on_c, 4, 77, 0
6, 165900, Note_on_c, 4, 82, 95
6, 165930, Note_on_c, 4, 82, 0
6, 165930, Note_on_c, 4, 81, 95
6, 165960, Note_on_c, 4, 81, 0
6, 165960, Note_on_c, 4, 80, 98
6, 165960, Note_on_c, 4, 74, 107
6, 165990, Note_on_c, 4, 80, 0
6, 165990, Note_on_c, 4, 84, 95
6, 166020, Note_on_c, 4, 84, 0
6, 166020, Note_on_c, 4, 74, 0
6, 166020, Note_on_c, 4, 82, 98
6, 166050, Note_on_c, 4, 82, 0
6, 166050, Note_on_c, 4, 80, 101
6, 166080, Note_on_c, 4, 80, 0
6, 166080, Note_on_c, 4, 79, 94
6, 166080, Note_on_c, 4, 75, 99
6, 166110, Note_on_c, 4, 79, 0
6, 166110, Note_on_c, 4, 80, 99
6, 166140, Note_on_c, 4, 80, 0
6, 166140, Note_on_c, 4, 75, 0
6, 166140, Note_on_c, 4, 82, 99
6, 166170, Note_on_c, 4, 82, 0
6, 166170, Note_on_c, 4, 80, 99
6, 166200, Note_on_c, 4, 80, 0
6, 166200, Note_on_c, 4, 79, 89
6, 166230, Note_on_c, 4, 79, 0
6, 166230, Note_on_c, 4, 82, 95
6, 166260, Note_on_c, 4, 82, 0
6, 166260, Note_on_c, 4, 81, 99
6, 166290, Note_on_c, 4, 81, 0
6, 166290, Note_on_c, 4, 79, 89
6, 166290, Note_on_c, 4, 73, 95
6, 166305, Note_on_c, 4, 73, 0
6, 166320, Note_on_c, 4, 79, 0
6, 166320, Note_on_c, 4, 78, 89
6, 166320, Note_on_c, 4, 74, 105
6, 166350, Note_on_c, 4, 78, 0
6, 166350, Note_on_c, 4, 81, 95
6, 166380, Note_on_c, 4, 81, 0
6, 166380, Note_on_c, 4, 74, 0
6, 166380, Note_on_c, 4, 79, 99
6, 166410, Note_on_c, 4, 79, 0
6, 166410, Note_on_c, 4, 78, 94
6, 166440, Note_on_c, 4, 78, 0
6, 166440, Note_on_c, 4, 77, 89
6, 166440, Note_on_c, 4, 71, 105
6, 166470, Note_on_c, 4, 77, 0
6, 166470, Note_on_c, 4, 80, 98
6, 166500, Note_on_c, 4, 80, 0
6, 166500, Note_on_c, 4, 71, 0
6, 166500, Note_on_c, 4, 79, 105
6, 166530, Note_on_c, 4, 79, 0
6, 166530, Note_on_c, 4, 77, 101
6, 166560, Note_on_c, 4, 77, 0
6, 166560, Note_on_c, 4, 76, 98
6, 166560, Note_on_c, 4, 72, 99
6, 166590, Note_on_c, 4, 76, 0
6, 166590, Note_on_c, 4, 77, 95
6, 166620, Note_on_c, 4, 77, 0
6, 166620, Note_on_c, 4, 72, 0
6, 166620, Note_on_c, 4, 79, 99
6, 166650, Note_on_c, 4, 79, 0
6, 166650, Note_on_c, 4, 77, 101
6, 166680, Note_on_c, 4, 77, 0
6, 166680, Note_on_c, 4, 75, 95
6, 166710, Note_on_c, 4, 75, 0
6, 166710, Note_on_c, 4, 79, 104
6, 166740, Note_on_c, 4, 79, 0
6, 166740, Note_on_c, 4, 77, 99
6, 166770, Note_on_c, 4, 77, 0
6, 166770, Note_on_c, 4, 75, 98
6, 166770, Note_on_c, 4, 69, 105
6, 166785, Note_on_c, 4, 69, 0
6, 166800, Note_on_c, 4, 75, 0
6, 166800, Note_on_c, 4, 74, 99
6, 166800, Note_on_c, 4, 70, 99
6, 166830, Note_on_c, 4, 74, 0
6, 166830, Note_on_c, 4, 75, 99
6, 166860, Note_on_c, 4, 75, 0
6, 166860, Note_on_c, 4, 70, 0
6, 166860, Note_on_c, 4, 77, 98
6, 166890, Note_on_c, 4, 77, 0
6, 166890, Note_on_c, 4, 75, 99
6, 166920, Note_on_c, 4, 75, 0
6, 166920, Note_on_c, 4, 74, 99
6, 166950, Note_on_c, 4, 74, 0
6, 166950, Note_on_c, 4, 77, 101
6, 166980, Note_on_c, 4, 77, 0
6, 166980, Note_on_c, 4, 75, 98
6, 167010, Note_on_c, 4, 75, 0
6, 167010, Note_on_c, 4, 74, 99
6, 167010, Note_on_c, 4, 67, 104
6, 167025, Note_on_c, 4, 67, 0
6, 167040, Note_on_c, 4, 74, 0
6, 167040, Note_on_c, 4, 72, 71
6, 167040, Note_on_c, 4, 69, 105
6, 167070, Note_on_c, 4, 72, 0
6, 167070, Note_on_c, 4, 74, 104
6, 167100, Note_on_c, 4, 74, 0
6, 167100, Note_on_c, 4, 69, 0
6, 167100, Note_on_c, 4, 75, 101
6, 167130, Note_on_c, 4, 75, 0
6, 167130, Note_on_c, 4, 74, 105
6, 167160, Note_on_c, 4, 74, 0
6, 167160, Note_on_c, 4, 72, 73
6, 167190, Note_on_c, 4, 72, 0
6, 167190, Note_on_c, 4, 75, 104
6, 167220, Note_on_c, 4, 75, 0
6, 167220, Note_on_c, 4, 74, 105
6, 167250, Note_on_c, 4, 74, 0
6, 167250, Note_on_c, 4, 72, 81
6, 167250, Note_on_c, 4, 66, 99
6, 167265, Note_on_c, 4, 66, 0
6, 167280, Note_on_c, 4, 72, 0
6, 167280, Note_on_c, 4, 71, 90
6, 167280, Note_on_c, 4, 67, 94
6, 167310, Note_on_c, 4, 67, 0
6, 167310, Note_on_c, 4, 71, 0
6, 167310, Note_on_c, 4, 74, 104
6, 167340, Note_on_c, 4, 74, 0
6, 167340, Note_on_c, 4, 72, 74
6, 167340, Note_on_c, 4, 64, 104
6, 167370, Note_on_c, 4, 64, 0
6, 167370, Note_on_c, 4, 72, 0
6, 167370, Note_on_c, 4, 70, 101
6, 167400, Note_on_c, 4, 70, 0
6, 167400, Note_on_c, 4, 69, 89
6, 167400, Note_on_c, 4, 65, 105
6, 167430, Note_on_c, 4, 65, 0
6, 167430, Note_on_c, 4, 69, 0
6, 167430, Note_on_c, 4, 72, 81
6, 167460, Note_on_c, 4, 72, 0
6, 167460, Note_on_c, 4, 70, 99
6, 167460, Note_on_c, 4, 62, 99
6, 167490, Note_on_c, 4, 62, 0
6, 167490, Note_on_c, 4, 70, 0
6, 167490, Note_on_c, 4, 68, 105
6, 167520, Note_on_c, 4, 68, 0
6, 167520, Note_on_c, 4, 67, 86
6, 167520, Note_on_c, 4, 63, 99
6, 167550, Note_on_c, 4, 63, 0
6, 167550, Note_on_c, 4, 67, 0
6, 167550, Note_on_c, 4, 70, 104
6, 167580, Note_on_c, 4, 70, 0
6, 167580, Note_on_c, 4, 69, 99
6, 167580, Note_on_c, 4, 61, 94
6, 167610, Note_on_c, 4, 61, 0
6, 167610, Note_on_c, 4, 69, 0
6, 167610, Note_on_c, 4, 67, 89
6, 167640, Note_on_c, 4, 67, 0
6, 167640, Note_on_c, 4, 65, 94
6, 167640, Note_on_c, 4, 62, 104
6, 167670, Note_on_c, 4, 62, 0
6, 167670, Note_on_c, 4, 65, 0
6, 167670, Note_on_c, 4, 68, 99
6, 167700, Note_on_c, 4, 68, 0
6, 167700, Note_on_c, 4, 67, 98
6, 167700, Note_on_c, 4, 59, 105
6, 167730, Note_on_c, 4, 59, 0
6, 167730, Note_on_c, 4, 67, 0
6, 167730, Note_on_c, 4, 65, 90
6, 167760, Note_on_c, 4, 65, 0
6, 167760, Note_on_c, 4, 64, 93
6, 167760, Note_on_c, 4, 60, 99
6, 167790, Note_on_c, 4, 60, 0
6, 167790, Note_on_c, 4, 64, 0
6, 167790, Note_on_c, 4, 67, 93
6, 167820, Note_on_c, 4, 67, 0
6, 167820, Note_on_c, 4, 65, 101
6, 167820, Note_on_c, 4, 57, 110
6, 167850, Note_on_c, 4, 57, 0
6, 167850, Note_on_c, 4, 65, 0
6, 167850, Note_on_c, 4, 63, 94
6, 167880, Note_on_c, 4, 63, 0
6, 167880, Note_on_c, 4, 62, 86
6, 167880, Note_on_c, 4, 58, 95
6, 167910, Note_on_c, 4, 58, 0
6, 167910, Note_on_c, 4, 62, 0
6, 167910, Note_on_c, 4, 70, 95
6, 167940, Note_on_c, 4, 70, 0
6, 167940, Note_on_c, 4, 64, 90
6, 167940, Note_on_c, 4, 55, 101
6, 167970, Note_on_c, 4, 55, 0
6, 167970, Note_on_c, 4, 64, 0
6, 167970, Note_on_c, 4, 70, 104
6, 168000, Note_on_c, 4, 70, 0
6, 168000, Note_on_c, 4, 69, 99
6, 168000, Note_on_c, 4, 53, 99
6, 168030, Note_on_c, 4, 69, 0
6, 168030, Note_on_c, 4, 72, 77
6, 168060, Note_on_c, 4, 72, 0
6, 168060, Note_on_c, 4, 70, 98
6, 168090, Note_on_c, 4, 70, 0
6, 168090, Note_on_c, 4, 69, 99
6, 168120, Note_on_c, 4, 69, 0
6, 168120, Note_on_c, 4, 53, 0
6, 168120, Note_on_c, 4, 67, 89
6, 168150, Note_on_c, 4, 67, 0
6, 168150, Note_on_c, 4, 65, 101
6, 168180, Note_on_c, 4, 65, 0
6, 168180, Note_on_c, 4, 63, 94
6, 168210, Note_on_c, 4, 63, 0
6, 168210, Note_on_c, 4, 62, 95
6, 168240, Note_on_c, 4, 62, 0
6, 168240, Note_on_c, 4, 60, 90
6, 168270, Note_on_c, 4, 60, 0
6, 168270, Note_on_c, 4, 58, 98
6, 168300, Note_on_c, 4, 58, 0
6, 168300, Note_on_c, 4, 57, 105
6, 168330, Note_on_c, 4, 57, 0
6, 168330, Note_on_c, 4, 55, 89
6, 168360, Note_on_c, 4, 55, 0
6, 168360, Note_on_c, 4, 53, 86
6, 168390, Note_on_c, 4, 53, 0
6, 168390, Note_on_c, 4, 51, 94
6, 168420, Note_on_c, 4, 51, 0
6, 168420, Note_on_c, 4, 50, 104
6, 168450, Note_on_c, 4, 50, 0
6, 168450, Note_on_c, 4, 48, 99
6, 168480, Note_on_c, 4, 48, 0
6, 168480, Note_on_c, 4, 46, 104
6, 168480, Note_on_c, 4, 34, 95
6, 168510, Note_on_c, 4, 34, 0
6, 168510, Note_on_c, 4, 46, 0
6, 168510, Note_on_c, 4, 48, 90
6, 168510, Note_on_c, 4, 36, 98
6, 168540, Note_on_c, 4, 36, 0
6, 168540, Note_on_c, 4, 48, 0
6, 168540, Note_on_c, 4, 50, 99
6, 168540, Note_on_c, 4, 38, 94
6, 168570, Note_on_c, 4, 38, 0
6, 168570, Note_on_c, 4, 50, 0
6, 168570, Note_on_c, 4, 51, 101
6, 168570, Note_on_c, 4, 39, 98
6, 168600, Note_on_c, 4, 39, 0
6, 168600, Note_on_c, 4, 51, 0
6, 168600, Note_on_c, 4, 53, 85
6, 168600, Note_on_c, 4, 41, 98
6, 168630, Note_on_c, 4, 41, 0
6, 168630, Note_on_c, 4, 53, 0
6, 168630, Note_on_c, 4, 55, 95
6, 168630, Note_on_c, 4, 43, 98
6, 168660, Note_on_c, 4, 43, 0
6, 168660, Note_on_c, 4, 55, 0
6, 168660, Note_on_c, 4, 57, 107
6, 168660, Note_on_c, 4, 45, 89
6, 168690, Note_on_c, 4, 45, 0
6, 168690, Note_on_c, 4, 57, 0
6, 168690, Note_on_c, 4, 58, 94
6, 168690, Note_on_c, 4, 46, 99
6, 168720, Note_on_c, 4, 46, 0
6, 168720, Note_on_c, 4, 58, 0
6, 168720, Note_on_c, 4, 50, 94
6, 168720, Note_on_c, 4, 38, 94
6, 168750, Note_on_c, 4, 38, 0
6, 168750, Note_on_c, 4, 50, 0
6, 168750, Note_on_c, 4, 52, 98
6, 168750, Note_on_c, 4, 40, 99
6, 168780, Note_on_c, 4, 40, 0
6, 168780, Note_on_c, 4, 52, 0
6, 168780, Note_on_c, 4, 54, 93
6, 168780, Note_on_c, 4, 42, 90
6, 168810, Note_on_c, 4, 42, 0
6, 168810, Note_on_c, 4, 54, 0
6, 168810, Note_on_c, 4, 55, 90
6, 168810, Note_on_c, 4, 43, 99
6, 168840, Note_on_c, 4, 43, 0
6, 168840, Note_on_c, 4, 55, 0
6, 168840, Note_on_c, 4, 57, 98
6, 168840, Note_on_c, 4, 45, 101
6, 168870, Note_on_c, 4, 45, 0
6, 168870, Note_on_c, 4, 57, 0
6, 168870, Note_on_c, 4, 59, 98
6, 168870, Note_on_c, 4, 47, 98
6, 168900, Note_on_c, 4, 47, 0
6, 168900, Note_on_c, 4, 59, 0
6, 168900, Note_on_c, 4, 61, 90
6, 168900, Note_on_c, 4, 49, 89
6, 168930, Note_on_c, 4, 49, 0
6, 168930, Note_on_c, 4, 61, 0
6, 168930, Note_on_c, 4, 62, 94
6, 168930, Note_on_c, 4, 50, 110
6, 168960, Note_on_c, 4, 50, 0
6, 168960, Note_on_c, 4, 62, 0
6, 168960, Note_on_c, 4, 55, 104
6, 168960, Note_on_c, 4, 43, 95
6, 168990, Note_on_c, 4, 43, 0
6, 168990, Note_on_c, 4, 45, 99
6, 169020, Note_on_c, 4, 45, 0
6, 169020, Note_on_c, 4, 46, 95
6, 169050, Note_on_c, 4, 46, 0
6, 169050, Note_on_c, 4, 48, 105
6, 169080, Note_on_c, 4, 48, 0
6, 169080, Note_on_c, 4, 55, 0
6, 169080, Note_on_c, 4, 50, 105
6, 169110, Note_on_c, 4, 50, 0
6, 169110, Note_on_c, 4, 52, 105
6, 169140, Note_on_c, 4, 52, 0
6, 169140, Note_on_c, 4, 54, 93
6, 169170, Note_on_c, 4, 54, 0
6, 169170, Note_on_c, 4, 76, 104
6, 169170, Note_on_c, 4, 64, 101
6, 169170, Note_on_c, 4, 55, 89
6, 169185, Note_on_c, 4, 64, 0
6, 169185, Note_on_c, 4, 76, 0
6, 169200, Note_on_c, 4, 55, 0
6, 169200, Note_on_c, 4, 77, 98
6, 169200, Note_on_c, 4, 65, 105
6, 169200, Note_on_c, 4, 57, 107
6, 169230, Note_on_c, 4, 57, 0
6, 169230, Note_on_c, 4, 60, 93
6, 169260, Note_on_c, 4, 60, 0
6, 169260, Note_on_c, 4, 65, 0
6, 169260, Note_on_c, 4, 77, 0
6, 169260, Note_on_c, 4, 58, 95
6, 169290, Note_on_c, 4, 58, 0
6, 169290, Note_on_c, 4, 57, 110
6, 169320, Note_on_c, 4, 57, 0
6, 169320, Note_on_c, 4, 74, 104
6, 169320, Note_on_c, 4, 62, 99
6, 169320, Note_on_c, 4, 56, 94
6, 169350, Note_on_c, 4, 56, 0
6, 169350, Note_on_c, 4, 60, 90
6, 169380, Note_on_c, 4, 60, 0
6, 169380, Note_on_c, 4, 62, 0
6, 169380, Note_on_c, 4, 74, 0
6, 169380, Note_on_c, 4, 58, 94
6, 169410, Note_on_c, 4, 58, 0
6, 169410, Note_on_c, 4, 56, 95
6, 169440, Note_on_c, 4, 56, 0
6, 169440, Note_on_c, 4, 75, 94
6, 169440, Note_on_c, 4, 63, 99
6, 169440, Note_on_c, 4, 55, 99
6, 169470, Note_on_c, 4, 55, 0
6, 169470, Note_on_c, 4, 57, 104
6, 169500, Note_on_c, 4, 57, 0
6, 169500, Note_on_c, 4, 63, 0
6, 169500, Note_on_c, 4, 75, 0
6, 169500, Note_on_c, 4, 58, 95
6, 169530, Note_on_c, 4, 58, 0
6, 169530, Note_on_c, 4, 60, 94
6, 169560, Note_on_c, 4, 60, 0
6, 169560, Note_on_c, 4, 62, 99
6, 169590, Note_on_c, 4, 62, 0
6, 169590, Note_on_c, 4, 64, 105
6, 169620, Note_on_c, 4, 64, 0
6, 169620, Note_on_c, 4, 66, 99
6, 169650, Note_on_c, 4, 66, 0
6, 169650, Note_on_c, 4, 85, 89
6, 169650, Note_on_c, 4, 73, 99
6, 169650, Note_on_c, 4, 67, 90
6, 169665, Note_on_c, 4, 73, 0
6, 169665, Note_on_c, 4, 85, 0
6, 169680, Note_on_c, 4, 67, 0
6, 169680, Note_on_c, 4, 86, 104
6, 169680, Note_on_c, 4, 74, 105
6, 169680, Note_on_c, 4, 66, 94
6, 169710, Note_on_c, 4, 66, 0
6, 169710, Note_on_c, 4, 69, 94
6, 169740, Note_on_c, 4, 69, 0
6, 169740, Note_on_c, 4, 74, 0
6, 169740, Note_on_c, 4, 86, 0
6, 169740, Note_on_c, 4, 67, 99
6, 169770, Note_on_c, 4, 67, 0
6, 169770, Note_on_c, 4, 66, 98
6, 169800, Note_on_c, 4, 66, 0
6, 169800, Note_on_c, 4, 83, 94
6, 169800, Note_on_c, 4, 71, 101
6, 169800, Note_on_c, 4, 65, 105
6, 169830, Note_on_c, 4, 65, 0
6, 169830, Note_on_c, 4, 68, 99
6, 169860, Note_on_c, 4, 68, 0
6, 169860, Note_on_c, 4, 71, 0
6, 169860, Note_on_c, 4, 83, 0
6, 169860, Note_on_c, 4, 67, 104
6, 169890, Note_on_c, 4, 67, 0
6, 169890, Note_on_c, 4, 65, 104
6, 169920, Note_on_c, 4, 65, 0
6, 169920, Note_on_c, 4, 84, 90
6, 169920, Note_on_c, 4, 72, 72
6, 169920, Note_on_c, 4, 64, 104
6, 169950, Note_on_c, 4, 64, 0
6, 169950, Note_on_c, 4, 65, 98
6, 169980, Note_on_c, 4, 65, 0
6, 169980, Note_on_c, 4, 72, 0
6, 169980, Note_on_c, 4, 84, 0
6, 169980, Note_on_c, 4, 64, 105
6, 170010, Note_on_c, 4, 64, 0
6, 170010, Note_on_c, 4, 62, 99
6, 170040, Note_on_c, 4, 62, 0
6, 170040, Note_on_c, 4, 63, 95
6, 170070, Note_on_c, 4, 63, 0
6, 170070, Note_on_c, 4, 67, 90
6, 170100, Note_on_c, 4, 67, 0
6, 170100, Note_on_c, 4, 65, 105
6, 170130, Note_on_c, 4, 65, 0
6, 170130, Note_on_c, 4, 81, 99
6, 170130, Note_on_c, 4, 69, 104
6, 170130, Note_on_c, 4, 63, 95
6, 170145, Note_on_c, 4, 69, 0
6, 170145, Note_on_c, 4, 81, 0
6, 170160, Note_on_c, 4, 63, 0
6, 170160, Note_on_c, 4, 82, 93
6, 170160, Note_on_c, 4, 70, 104
6, 170160, Note_on_c, 4, 62, 104
6, 170190, Note_on_c, 4, 62, 0
6, 170190, Note_on_c, 4, 63, 99
6, 170220, Note_on_c, 4, 63, 0
6, 170220, Note_on_c, 4, 70, 0
6, 170220, Note_on_c, 4, 82, 0
6, 170220, Note_on_c, 4, 62, 99
6, 170250, Note_on_c, 4, 62, 0
6, 170250, Note_on_c, 4, 61, 93
6, 170280, Note_on_c, 4, 61, 0
6, 170280, Note_on_c, 4, 62, 99
6, 170310, Note_on_c, 4, 62, 0
6, 170310, Note_on_c, 4, 65, 95
6, 170340, Note_on_c, 4, 65, 0
6, 170340, Note_on_c, 4, 64, 105
6, 170370, Note_on_c, 4, 64, 0
6, 170370, Note_on_c, 4, 80, 90
6, 170370, Note_on_c, 4, 68, 105
6, 170370, Note_on_c, 4, 62, 101
6, 170385, Note_on_c, 4, 68, 0
6, 170385, Note_on_c, 4, 80, 0
6, 170400, Note_on_c, 4, 62, 0
6, 170400, Note_on_c, 4, 81, 99
6, 170400, Note_on_c, 4, 69, 105
6, 170400, Note_on_c, 4, 60, 99
6, 170430, Note_on_c, 4, 60, 0
6, 170430, Note_on_c, 4, 62, 99
6, 170460, Note_on_c, 4, 62, 0
6, 170460, Note_on_c, 4, 69, 0
6, 170460, Note_on_c, 4, 81, 0
6, 170460, Note_on_c, 4, 60, 104
6, 170490, Note_on_c, 4, 60, 0
6, 170490, Note_on_c, 4, 59, 105
6, 170520, Note_on_c, 4, 59, 0
6, 170520, Note_on_c, 4, 60, 99
6, 170550, Note_on_c, 4, 60, 0
6, 170550, Note_on_c, 4, 63, 95
6, 170580, Note_on_c, 4, 63, 0
6, 170580, Note_on_c, 4, 62, 95
6, 170610, Note_on_c, 4, 62, 0
6, 170610, Note_on_c, 4, 78, 86
6, 170610, Note_on_c, 4, 66, 95
6, 170610, Note_on_c, 4, 60, 105
6, 170625, Note_on_c, 4, 66, 0
6, 170625, Note_on_c, 4, 78, 0
6, 170640, Note_on_c, 4, 60, 0
6, 170640, Note_on_c, 4, 79, 99
6, 170640, Note_on_c, 4, 67, 99
6, 170640, Note_on_c, 4, 59, 105
6, 170670, Note_on_c, 4, 59, 0
6, 170670, Note_on_c, 4, 67, 0
6, 170670, Note_on_c, 4, 79, 0
6, 170670, Note_on_c, 4, 62, 93
6, 170700, Note_on_c, 4, 62, 0
6, 170700, Note_on_c, 4, 76, 99
6, 170700, Note_on_c, 4, 64, 105
6, 170700, Note_on_c, 4, 60, 99
6, 170730, Note_on_c, 4, 60, 0
6, 170730, Note_on_c, 4, 64, 0
6, 170730, Note_on_c, 4, 76, 0
6, 170730, Note_on_c, 4, 58, 95
6, 170760, Note_on_c, 4, 58, 0
6, 170760, Note_on_c, 4, 77, 95
6, 170760, Note_on_c, 4, 65, 105
6, 170760, Note_on_c, 4, 57, 112
6, 170790, Note_on_c, 4, 57, 0
6, 170790, Note_on_c, 4, 65, 0
6, 170790, Note_on_c, 4, 77, 0
6, 170790, Note_on_c, 4, 60, 94
6, 170820, Note_on_c, 4, 60, 0
6, 170820, Note_on_c, 4, 74, 101
6, 170820, Note_on_c, 4, 62, 99
6, 170820, Note_on_c, 4, 58, 95
6, 170850, Note_on_c, 4, 58, 0
6, 170850, Note_on_c, 4, 62, 0
6, 170850, Note_on_c, 4, 74, 0
6, 170850, Note_on_c, 4, 56, 99
6, 170880, Note_on_c, 4, 56, 0
6, 170880, Note_on_c, 4, 75, 98
6, 170880, Note_on_c, 4, 63, 99
6, 170880, Note_on_c, 4, 55, 99
6, 170910, Note_on_c, 4, 55, 0
6, 170910, Note_on_c, 4, 63, 0
6, 170910, Note_on_c, 4, 75, 0
6, 170910, Note_on_c, 4, 58, 99
6, 170940, Note_on_c, 4, 58, 0
6, 170940, Note_on_c, 4, 73, 89
6, 170940, Note_on_c, 4, 61, 104
6, 170940, Note_on_c, 4, 57, 107
6, 170970, Note_on_c, 4, 57, 0
6, 170970, Note_on_c, 4, 61, 0
6, 170970, Note_on_c, 4, 73, 0
6, 170970, Note_on_c, 4, 55, 99
6, 171000, Note_on_c, 4, 55, 0
6, 171000, Note_on_c, 4, 74, 105
6, 171000, Note_on_c, 4, 62, 104
6, 171000, Note_on_c, 4, 54, 98
6, 171030, Note_on_c, 4, 54, 0
6, 171030, Note_on_c, 4, 62, 0
6, 171030, Note_on_c, 4, 74, 0
6, 171030, Note_on_c, 4, 57, 101
6, 171060, Note_on_c, 4, 57, 0
6, 171060, Note_on_c, 4, 71, 104
6, 171060, Note_on_c, 4, 59, 104
6, 171060, Note_on_c, 4, 55, 105
6, 171090, Note_on_c, 4, 55, 0
6, 171090, Note_on_c, 4, 59, 0
6, 171090, Note_on_c, 4, 71, 0
6, 171090, Note_on_c, 4, 53, 98
6, 171120, Note_on_c, 4, 53, 0
6, 171120, Note_on_c, 4, 72, 95
6, 171120, Note_on_c, 4, 60, 101
6, 171120, Note_on_c, 4, 52, 99
6, 171150, Note_on_c, 4, 52, 0
6, 171150, Note_on_c, 4, 60, 0
6, 171150, Note_on_c, 4, 72, 0
6, 171150, Note_on_c, 4, 55, 101
6, 171180, Note_on_c, 4, 55, 0
6, 171180, Note_on_c, 4, 69, 105
6, 171180, Note_on_c, 4, 57, 112
6, 171180, Note_on_c, 4, 53, 98
6, 171210, Note_on_c, 4, 53, 0
6, 171210, Note_on_c, 4, 57, 0
6, 171210, Note_on_c, 4, 69, 0
6, 171210, Note_on_c, 4, 51, 95
6, 171240, Note_on_c, 4, 51, 0
6, 171240, Note_on_c, 4, 70, 94
6, 171240, Note_on_c, 4, 58, 101
6, 171240, Note_on_c, 4, 50, 104
6, 171270, Note_on_c, 4, 50, 0
6, 171270, Note_on_c, 4, 58, 0
6, 171270, Note_on_c, 4, 70, 0
6, 171270, Note_on_c, 4, 53, 98
6, 171300, Note_on_c, 4, 53, 0
6, 171300, Note_on_c, 4, 62, 105
6, 171300, Note_on_c, 4, 51, 99
6, 171330, Note_on_c, 4, 51, 0
6, 171330, Note_on_c, 4, 62, 0
6, 171330, Note_on_c, 4, 50, 110
6, 171360, Note_on_c, 4, 50, 0
6, 171360, Note_on_c, 4, 52, 99
6, 171390, Note_on_c, 4, 70, 98
6, 171420, Note_on_c, 4, 70, 0
6, 171420, Note_on_c, 4, 52, 0
6, 171420, Note_on_c, 4, 69, 95
6, 171450, Note_on_c, 4, 69, 0
6, 171450, Note_on_c, 4, 70, 94
6, 171480, Note_on_c, 4, 70, 0
6, 171480, Note_on_c, 4, 72, 80
6, 171480, Note_on_c, 4, 60, 86
6, 171480, Note_on_c, 4, 58, 89
6, 171480, Note_on_c, 4, 52, 98
6, 171510, Note_on_c, 4, 72, 0
6, 171510, Note_on_c, 4, 70, 94
6, 171540, Note_on_c, 4, 70, 0
6, 171540, Note_on_c, 4, 52, 0
6, 171540, Note_on_c, 4, 58, 0
6, 171540, Note_on_c, 4, 60, 0
6, 171540, Note_on_c, 4, 69, 94
6, 171570, Note_on_c, 4, 69, 0
6, 171570, Note_on_c, 4, 70, 94
6, 171600, Note_on_c, 4, 70, 0
6, 171600, Note_on_c, 4, 74, 104
6, 171630, Note_on_c, 4, 74, 0
6, 171630, Note_on_c, 4, 70, 94
6, 171660, Note_on_c, 4, 70, 0
6, 171660, Note_on_c, 4, 69, 89
6, 171690, Note_on_c, 4, 69, 0
6, 171690, Note_on_c, 4, 70, 95
6, 171720, Note_on_c, 4, 70, 0
6, 171720, Note_on_c, 4, 82, 104
6, 171720, Note_on_c, 4, 62, 80
6, 171720, Note_on_c, 4, 58, 89
6, 171720, Note_on_c, 4, 53, 89
6, 171750, Note_on_c, 4, 82, 0
6, 171750, Note_on_c, 4, 70, 93
6, 171780, Note_on_c, 4, 70, 0
6, 171780, Note_on_c, 4, 69, 93
6, 171810, Note_on_c, 4, 69, 0
6, 171810, Note_on_c, 4, 70, 99
6, 171840, Note_on_c, 4, 70, 0
6, 171840, Note_on_c, 4, 53, 0
6, 171840, Note_on_c, 4, 58, 0
6, 171840, Note_on_c, 4, 62, 0
6, 171840, Note_on_c, 4, 75, 101
6, 171870, Note_on_c, 4, 75, 0
6, 171870, Note_on_c, 4, 70, 101
6, 171900, Note_on_c, 4, 70, 0
6, 171900, Note_on_c, 4, 69, 94
6, 171930, Note_on_c, 4, 69, 0
6, 171930, Note_on_c, 4, 70, 104
6, 171960, Note_on_c, 4, 70, 0
6, 171960, Note_on_c, 4, 82, 125
6, 171960, Note_on_c, 4, 54, 119
6, 171990, Note_on_c, 4, 54, 0
6, 171990, Note_on_c, 4, 82, 0
6, 171990, Note_on_c, 4, 70, 90
6, 171990, Note_on_c, 4, 58, 95
6, 172020, Note_on_c, 4, 58, 0
6, 172020, Note_on_c, 4, 70, 0
6, 172020, Note_on_c, 4, 69, 93
6, 172020, Note_on_c, 4, 63, 99
6, 172050, Note_on_c, 4, 63, 0
6, 172050, Note_on_c, 4, 69, 0
6, 172050, Note_on_c, 4, 70, 94
6, 172050, Note_on_c, 4, 66, 82
6, 172080, Note_on_c, 4, 66, 0
6, 172080, Note_on_c, 4, 70, 0
6, 172080, Note_on_c, 4, 75, 99
6, 172080, Note_on_c, 4, 54, 95
6, 172110, Note_on_c, 4, 54, 0
6, 172110, Note_on_c, 4, 75, 0
6, 172110, Note_on_c, 4, 70, 95
6, 172110, Note_on_c, 4, 58, 99
6, 172140, Note_on_c, 4, 58, 0
6, 172140, Note_on_c, 4, 70, 0
6, 172140, Note_on_c, 4, 69, 89
6, 172140, Note_on_c, 4, 63, 99
6, 172170, Note_on_c, 4, 63, 0
6, 172170, Note_on_c, 4, 69, 0
6, 172170, Note_on_c, 4, 70, 94
6, 172170, Note_on_c, 4, 66, 86
6, 172200, Note_on_c, 4, 66, 0
6, 172200, Note_on_c, 4, 70, 0
6, 172200, Note_on_c, 4, 73, 89
6, 172200, Note_on_c, 4, 53, 101
6, 172230, Note_on_c, 4, 53, 0
6, 172230, Note_on_c, 4, 73, 0
6, 172230, Note_on_c, 4, 70, 95
6, 172230, Note_on_c, 4, 58, 95
6, 172260, Note_on_c, 4, 58, 0
6, 172260, Note_on_c, 4, 70, 0
6, 172260, Note_on_c, 4, 69, 94
6, 172260, Note_on_c, 4, 61, 86
6, 172290, Note_on_c, 4, 61, 0
6, 172290, Note_on_c, 4, 69, 0
6, 172290, Note_on_c, 4, 70, 99
6, 172290, Note_on_c, 4, 65, 94
6, 172320, Note_on_c, 4, 65, 0
6, 172320, Note_on_c, 4, 70, 0
6, 172320, Note_on_c, 4, 72, 84
6, 172320, Note_on_c, 4, 60, 84
6, 172320, Note_on_c, 4, 58, 86
6, 172320, Note_on_c, 4, 52, 94
6, 172350, Note_on_c, 4, 72, 0
6, 172350, Note_on_c, 4, 82, 98
6, 172380, Note_on_c, 4, 82, 0
6, 172380, Note_on_c, 4, 52, 0
6, 172380, Note_on_c, 4, 58, 0
6, 172380, Note_on_c, 4, 60, 0
6, 172380, Note_on_c, 4, 81, 98
6, 172410, Note_on_c, 4, 81, 0
6, 172410, Note_on_c, 4, 82, 95
6, 172440, Note_on_c, 4, 82, 0
6, 172440, Note_on_c, 4, 84, 94
6, 172440, Note_on_c, 4, 60, 89
6, 172440, Note_on_c, 4, 58, 89
6, 172440, Note_on_c, 4, 52, 99
6, 172470, Note_on_c, 4, 84, 0
6, 172470, Note_on_c, 4, 82, 89
6, 172500, Note_on_c, 4, 82, 0
6, 172500, Note_on_c, 4, 52, 0
6, 172500, Note_on_c, 4, 58, 0
6, 172500, Note_on_c, 4, 60, 0
6, 172500, Note_on_c, 4, 81, 89
6, 172530, Note_on_c, 4, 81, 0
6, 172530, Note_on_c, 4, 82, 90
6, 172560, Note_on_c, 4, 82, 0
6, 172560, Note_on_c, 4, 86, 99
6, 172590, Note_on_c, 4, 86, 0
6, 172590, Note_on_c, 4, 82, 89
6, 172620, Note_on_c, 4, 82, 0
6, 172620, Note_on_c, 4, 81, 85
6, 172650, Note_on_c, 4, 81, 0
6, 172650, Note_on_c, 4, 82, 90
6, 172680, Note_on_c, 4, 82, 0
6, 172680, Note_on_c, 4, 84, 94
6, 172680, Note_on_c, 4, 62, 76
6, 172680, Note_on_c, 4, 58, 89
6, 172680, Note_on_c, 4, 53, 89
6, 172710, Note_on_c, 4, 84, 0
6, 172710, Note_on_c, 4, 82, 93
6, 172740, Note_on_c, 4, 82, 0
6, 172740, Note_on_c, 4, 53, 0
6, 172740, Note_on_c, 4, 58, 0
6, 172740, Note_on_c, 4, 62, 0
6, 172740, Note_on_c, 4, 81, 94
6, 172770, Note_on_c, 4, 81, 0
6, 172770, Note_on_c, 4, 82, 99
6, 172800, Note_on_c, 4, 82, 0
6, 172800, Note_on_c, 4, 87, 105
6, 172830, Note_on_c, 4, 87, 0
6, 172830, Note_on_c, 4, 82, 99
6, 172860, Note_on_c, 4, 82, 0
6, 172860, Note_on_c, 4, 81, 95
6, 172890, Note_on_c, 4, 81, 0
6, 172890, Note_on_c, 4, 82, 99
6, 172920, Note_on_c, 4, 82, 0
6, 172920, Note_on_c, 4, 84, 99
6, 172920, Note_on_c, 4, 54, 99
6, 172950, Note_on_c, 4, 54, 0
6, 172950, Note_on_c, 4, 84, 0
6, 172950, Note_on_c, 4, 82, 94
6, 172950, Note_on_c, 4, 58, 101
6, 172980, Note_on_c, 4, 58, 0
6, 172980, Note_on_c, 4, 82, 0
6, 172980, Note_on_c, 4, 81, 94
6, 172980, Note_on_c, 4, 63, 99
6, 173010, Note_on_c, 4, 63, 0
6, 173010, Note_on_c, 4, 81, 0
6, 173010, Note_on_c, 4, 82, 99
6, 173010, Note_on_c, 4, 66, 89
6, 173040, Note_on_c, 4, 66, 0
6, 173040, Note_on_c, 4, 82, 0
6, 173040, Note_on_c, 4, 72, 68
6, 173040, Note_on_c, 4, 54, 98
6, 173070, Note_on_c, 4, 72, 0
6, 173070, Note_on_c, 4, 82, 90
6, 173100, Note_on_c, 4, 82, 0
6, 173100, Note_on_c, 4, 81, 99
6, 173130, Note_on_c, 4, 81, 0
6, 173130, Note_on_c, 4, 82, 99
6, 173160, Note_on_c, 4, 82, 0
6, 173160, Note_on_c, 4, 54, 0
6, 173160, Note_on_c, 4, 87, 105
6, 173190, Note_on_c, 4, 87, 0
6, 173190, Note_on_c, 4, 82, 99
6, 173220, Note_on_c, 4, 82, 0
6, 173220, Note_on_c, 4, 81, 105
6, 173250, Note_on_c, 4, 81, 0
6, 173250, Note_on_c, 4, 82, 98
6, 173280, Note_on_c, 4, 82, 0
6, 173280, Note_on_c, 4, 88, 110
6, 173310, Note_on_c, 4, 88, 0
6, 173310, Note_on_c, 4, 82, 95
6, 173340, Note_on_c, 4, 82, 0
6, 173340, Note_on_c, 4, 81, 94
6, 173370, Note_on_c, 4, 81, 0
6, 173370, Note_on_c, 4, 82, 95
6, 173400, Note_on_c, 4, 82, 0
6, 173400, Note_on_c, 4, 84, 98
6, 173400, Note_on_c, 4, 55, 99
6, 173430, Note_on_c, 4, 55, 0
6, 173430, Note_on_c, 4, 84, 0
6, 173430, Note_on_c, 4, 82, 93
6, 173430, Note_on_c, 4, 58, 94
6, 173460, Note_on_c, 4, 58, 0
6, 173460, Note_on_c, 4, 82, 0
6, 173460, Note_on_c, 4, 81, 99
6, 173460, Note_on_c, 4, 61, 90
6, 173490, Note_on_c, 4, 61, 0
6, 173490, Note_on_c, 4, 81, 0
6, 173490, Note_on_c, 4, 82, 98
6, 173490, Note_on_c, 4, 64, 99
6, 173520, Note_on_c, 4, 64, 0
6, 173520, Note_on_c, 4, 82, 0
6, 173520, Note_on_c, 4, 76, 98
6, 173520, Note_on_c, 4, 55, 94
6, 173550, Note_on_c, 4, 76, 0
6, 173550, Note_on_c, 4, 82, 95
6, 173580, Note_on_c, 4, 82, 0
6, 173580, Note_on_c, 4, 81, 99
6, 173610, Note_on_c, 4, 81, 0
6, 173610, Note_on_c, 4, 82, 98
6, 173640, Note_on_c, 4, 82, 0
6, 173640, Note_on_c, 4, 55, 0
6, 173640, Note_on_c, 4, 85, 99
6, 173670, Note_on_c, 4, 85, 0
6, 173670, Note_on_c, 4, 82, 94
6, 173700, Note_on_c, 4, 82, 0
6, 173700, Note_on_c, 4, 81, 99
6, 173730, Note_on_c, 4, 81, 0
6, 173730, Note_on_c, 4, 82, 101
6, 173760, Note_on_c, 4, 82, 0
6, 173760, Note_on_c, 4, 88, 105
6, 173880, Note_on_c, 4, 88, 0
6, 174480, Note_on_c, 4, 74, 56
6, 174480, Note_on_c, 4, 62, 61
6, 174570, Note_on_c, 4, 62, 0
6, 174570, Note_on_c, 4, 74, 0
6, 174570, Note_on_c, 4, 70, 65
6, 174570, Note_on_c, 4, 58, 65
6, 174600, Note_on_c, 4, 58, 0
6, 174600, Note_on_c, 4, 70, 0
6, 174600, Note_on_c, 4, 74, 61
6, 174600, Note_on_c, 4, 62, 68
6, 174690, Note_on_c, 4, 62, 0
6, 174690, Note_on_c, 4, 74, 0
6, 174690, Note_on_c, 4, 70, 71
6, 174690, Note_on_c, 4, 58, 69
6, 174720, Note_on_c, 4, 58, 0
6, 174720, Note_on_c, 4, 70, 0
6, 174720, Note_on_c, 4, 77, 54
6, 174720, Note_on_c, 4, 65, 66
6, 174780, Note_on_c, 4, 65, 0
6, 174780, Note_on_c, 4, 77, 0
6, 175440, Note_on_c, 4, 86, 44
6, 175440, Note_on_c, 4, 74, 38
6, 175530, Note_on_c, 4, 74, 0
6, 175530, Note_on_c, 4, 86, 0
6, 175530, Note_on_c, 4, 82, 68
6, 175530, Note_on_c, 4, 70, 68
6, 175560, Note_on_c, 4, 70, 0
6, 175560, Note_on_c, 4, 82, 0
6, 175560, Note_on_c, 4, 86, 70
6, 175560, Note_on_c, 4, 74, 55
6, 175650, Note_on_c, 4, 74, 0
6, 175650, Note_on_c, 4, 86, 0
6, 175650, Note_on_c, 4, 82, 61
6, 175650, Note_on_c, 4, 70, 64
6, 175680, Note_on_c, 4, 70, 0
6, 175680, Note_on_c, 4, 82, 0
6, 175680, Note_on_c, 4, 89, 64
6, 175680, Note_on_c, 4, 77, 65
6, 175740, Note_on_c, 4, 77, 0
6, 175740, Note_on_c, 4, 89, 0
6, 176160, Note_on_c, 4, 53, 49
6, 176160, Note_on_c, 4, 50, 72
6, 176160, Note_on_c, 4, 46, 44
6, 176190, Note_on_c, 4, 29, 73
6, 176220, Note_on_c, 4, 29, 0
6, 176220, Note_on_c, 4, 34, 72
6, 176250, Note_on_c, 4, 34, 0
6, 176250, Note_on_c, 4, 38, 71
6, 176280, Note_on_c, 4, 38, 0
6, 176280, Note_on_c, 4, 53, 0
6, 176280, Note_on_c, 4, 50, 0
6, 176280, Note_on_c, 4, 46, 0
6, 176280, Note_on_c, 4, 41, 65
6, 176310, Note_on_c, 4, 57, 89
6, 176340, Note_on_c, 4, 57, 0
6, 176340, Note_on_c, 4, 58, 74
6, 176370, Note_on_c, 4, 58, 0
6, 176370, Note_on_c, 4, 55, 85
6, 176400, Note_on_c, 4, 55, 0
6, 176400, Note_on_c, 4, 41, 0
6, 176400, Note_on_c, 4, 53, 81
6, 176430, Note_on_c, 4, 41, 85
6, 176460, Note_on_c, 4, 41, 0
6, 176460, Note_on_c, 4, 53, 0
6, 176460, Note_on_c, 4, 46, 90
6, 176490, Note_on_c, 4, 46, 0
6, 176490, Note_on_c, 4, 50, 85
6, 176520, Note_on_c, 4, 50, 0
6, 176520, Note_on_c, 4, 53, 86
6, 176550, Note_on_c, 4, 69, 94
6, 176580, Note_on_c, 4, 69, 0
6, 176580, Note_on_c, 4, 70, 94
6, 176610, Note_on_c, 4, 70, 0
6, 176610, Note_on_c, 4, 67, 86
6, 176640, Note_on_c, 4, 67, 0
6, 176640, Note_on_c, 4, 53, 0
6, 176640, Note_on_c, 4, 65, 93
6, 176670, Note_on_c, 4, 53, 86
6, 176700, Note_on_c, 4, 53, 0
6, 176700, Note_on_c, 4, 65, 0
6, 176700, Note_on_c, 4, 58, 84
6, 176730, Note_on_c, 4, 58, 0
6, 176730, Note_on_c, 4, 62, 76
6, 176760, Note_on_c, 4, 62, 0
6, 176760, Note_on_c, 4, 65, 93
6, 176790, Note_on_c, 4, 81, 98
6, 176820, Note_on_c, 4, 81, 0
6, 176820, Note_on_c, 4, 82, 93
6, 176850, Note_on_c, 4, 82, 0
6, 176850, Note_on_c, 4, 79, 95
6, 176880, Note_on_c, 4, 79, 0
6, 176880, Note_on_c, 4, 65, 0
6, 176880, Note_on_c, 4, 77, 93
6, 176910, Note_on_c, 4, 65, 104
6, 176940, Note_on_c, 4, 65, 0
6, 176940, Note_on_c, 4, 77, 0
6, 176940, Note_on_c, 4, 70, 95
6, 176970, Note_on_c, 4, 70, 0
6, 176970, Note_on_c, 4, 74, 95
6, 177000, Note_on_c, 4, 74, 0
6, 177000, Note_on_c, 4, 77, 90
6, 177030, Note_on_c, 4, 86, 105
6, 177060, Note_on_c, 4, 86, 0
6, 177060, Note_on_c, 4, 87, 99
6, 177090, Note_on_c, 4, 87, 0
6, 177090, Note_on_c, 4, 84, 101
6, 177120, Note_on_c, 4, 84, 0
6, 177120, Note_on_c, 4, 77, 0
6, 177120, Note_on_c, 4, 82, 95
6, 177150, Note_on_c, 4, 74, 105
6, 177180, Note_on_c, 4, 74, 0
6, 177180, Note_on_c, 4, 82, 0
6, 177180, Note_on_c, 4, 75, 99
6, 177210, Note_on_c, 4, 75, 0
6, 177210, Note_on_c, 4, 72, 77
6, 177240, Note_on_c, 4, 72, 0
6, 177240, Note_on_c, 4, 70, 99
6, 177270, Note_on_c, 4, 86, 105
6, 177300, Note_on_c, 4, 86, 0
6, 177300, Note_on_c, 4, 70, 0
6, 177300, Note_on_c, 4, 87, 98
6, 177330, Note_on_c, 4, 87, 0
6, 177330, Note_on_c, 4, 84, 99
6, 177360, Note_on_c, 4, 84, 0
6, 177360, Note_on_c, 4, 82, 95
6, 177390, Note_on_c, 4, 74, 104
6, 177420, Note_on_c, 4, 74, 0
6, 177420, Note_on_c, 4, 82, 0
6, 177420, Note_on_c, 4, 75, 98
6, 177450, Note_on_c, 4, 75, 0
6, 177450, Note_on_c, 4, 72, 81
6, 177480, Note_on_c, 4, 72, 0
6, 177480, Note_on_c, 4, 70, 95
6, 177510, Note_on_c, 4, 86, 105
6, 177540, Note_on_c, 4, 86, 0
6, 177540, Note_on_c, 4, 70, 0
6, 177540, Note_on_c, 4, 87, 99
6, 177570, Note_on_c, 4, 87, 0
6, 177570, Note_on_c, 4, 84, 99
6, 177600, Note_on_c, 4, 84, 0
6, 177600, Note_on_c, 4, 82, 94
6, 177630, Note_on_c, 4, 74, 105
6, 177660, Note_on_c, 4, 74, 0
6, 177660, Note_on_c, 4, 82, 0
6, 177660, Note_on_c, 4, 75, 104
6, 177690, Note_on_c, 4, 75, 0
6, 177690, Note_on_c, 4, 72, 73
6, 177720, Note_on_c, 4, 72, 0
6, 177720, Note_on_c, 4, 70, 101
6, 177780, Note_on_c, 4, 70, 0
6, 177900, Note_on_c, 4, 86, 80
6, 177960, Note_on_c, 4, 86, 0
6, 177960, Note_on_c, 4, 87, 81
6, 178020, Note_on_c, 4, 87, 0
6, 178020, Note_on_c, 4, 84, 76
6, 178080, Note_on_c, 4, 84, 0
6, 178080, Note_on_c, 4, 82, 44
6, 178140, Note_on_c, 4, 82, 0
6, 178140, Note_on_c, 4, 74, 65
6, 178200, Note_on_c, 4, 74, 0
6, 178200, Note_on_c, 4, 75, 70
6, 178260, Note_on_c, 4, 75, 0
6, 178260, Note_on_c, 4, 72, 61
6, 178320, Note_on_c, 4, 72, 0
6, 178320, Note_on_c, 4, 70, 60
6, 178380, Note_on_c, 4, 70, 0
6, 178380, Note_on_c, 4, 86, 60
6, 178440, Note_on_c, 4, 86, 0
6, 178440, Note_on_c, 4, 87, 61
6, 178500, Note_on_c, 4, 87, 0
6, 178500, Note_on_c, 4, 84, 43
6, 178560, Note_on_c, 4, 84, 0
6, 178560, Note_on_c, 4, 82, 47
6, 178620, Note_on_c, 4, 82, 0
6, 178620, Note_on_c, 4, 74, 43
6, 178680, Note_on_c, 4, 74, 0
6, 178680, Note_on_c, 4, 75, 46
6, 178740, Note_on_c, 4, 75, 0
6, 178740, Note_on_c, 4, 72, 35
6, 178800, Note_on_c, 4, 72, 0
6, 178800, Note_on_c, 4, 70, 36
6, 178860, Note_on_c, 4, 70, 0
6, 178860, Note_on_c, 4, 86, 40
6, 178920, Note_on_c, 4, 86, 0
6, 178920, Note_on_c, 4, 87, 35
6, 178980, Note_on_c, 4, 87, 0
6, 178980, Note_on_c, 4, 84, 33
6, 179040, Note_on_c, 4, 84, 0
6, 179040, Note_on_c, 4, 82, 40
6, 179100, Note_on_c, 4, 82, 0
6, 179100, Note_on_c, 4, 86, 58
6, 179160, Note_on_c, 4, 86, 0
6, 179160, Note_on_c, 4, 87, 41
6, 179220, Note_on_c, 4, 87, 0
6, 179220, Note_on_c, 4, 84, 67
6, 179280, Note_on_c, 4, 84, 0
6, 179280, Note_on_c, 4, 82, 46
6, 179340, Note_on_c, 4, 82, 0
6, 179340, Note_on_c, 4, 86, 63
6, 179340, Note_on_c, 4, 53, 62
6, 179400, Note_on_c, 4, 53, 0
6, 179400, Note_on_c, 4, 86, 0
6, 179400, Note_on_c, 4, 87, 68
6, 179400, Note_on_c, 4, 55, 54
6, 179460, Note_on_c, 4, 55, 0
6, 179460, Note_on_c, 4, 87, 0
6, 179460, Note_on_c, 4, 84, 68
6, 179460, Note_on_c, 4, 56, 72
6, 179520, Note_on_c, 4, 56, 0
6, 179520, Note_on_c, 4, 84, 0
6, 179520, Note_on_c, 4, 82, 63
6, 179520, Note_on_c, 4, 58, 74
6, 179580, Note_on_c, 4, 58, 0
6, 179580, Note_on_c, 4, 82, 0
6, 179580, Note_on_c, 4, 86, 89
6, 179580, Note_on_c, 4, 59, 84
6, 179640, Note_on_c, 4, 59, 0
6, 179640, Note_on_c, 4, 86, 0
6, 179640, Note_on_c, 4, 87, 90
6, 179640, Note_on_c, 4, 60, 76
6, 179700, Note_on_c, 4, 60, 0
6, 179700, Note_on_c, 4, 87, 0
6, 179700, Note_on_c, 4, 84, 85
6, 179700, Note_on_c, 4, 63, 85
6, 179760, Note_on_c, 4, 63, 0
6, 179760, Note_on_c, 4, 84, 0
6, 179760, Note_on_c, 4, 82, 68
6, 179760, Note_on_c, 4, 62, 85
6, 179820, Note_on_c, 4, 62, 0
6, 179820, Note_on_c, 4, 82, 0
6, 179820, Note_on_c, 4, 86, 94
6, 179820, Note_on_c, 4, 65, 85
6, 179880, Note_on_c, 4, 65, 0
6, 179880, Note_on_c, 4, 86, 0
6, 179880, Note_on_c, 4, 87, 94
6, 179880, Note_on_c, 4, 67, 86
6, 179940, Note_on_c, 4, 67, 0
6, 179940, Note_on_c, 4, 87, 0
6, 179940, Note_on_c, 4, 84, 93
6, 179940, Note_on_c, 4, 69, 94
6, 180000, Note_on_c, 4, 69, 0
6, 180000, Note_on_c, 4, 84, 0
6, 180000, Note_on_c, 4, 82, 81
6, 180000, Note_on_c, 4, 70, 95
6, 180020, Note_on_c, 4, 70, 0
6, 180020, Note_on_c, 4, 82, 0
6, 180040, Note_on_c, 4, 85, 86
6, 180040, Note_on_c, 4, 73, 89
6, 180080, Note_on_c, 4, 73, 0
6, 180080, Note_on_c, 4, 85, 0
6, 180080, Note_on_c, 4, 86, 99
6, 180080, Note_on_c, 4, 74, 104
6, 180120, Note_on_c, 4, 74, 0
6, 180120, Note_on_c, 4, 86, 0
6, 180120, Note_on_c, 4, 77, 84
6, 180120, Note_on_c, 4, 65, 99
6, 180140, Note_on_c, 4, 65, 0
6, 180140, Note_on_c, 4, 77, 0
6, 180160, Note_on_c, 4, 81, 89
6, 180160, Note_on_c, 4, 69, 95
6, 180200, Note_on_c, 4, 69, 0
6, 180200, Note_on_c, 4, 81, 0
6, 180200, Note_on_c, 4, 82, 94
6, 180200, Note_on_c, 4, 70, 99
6, 180240, Note_on_c, 4, 70, 0
6, 180240, Note_on_c, 4, 82, 0
6, 180240, Note_on_c, 4, 74, 94
6, 180240, Note_on_c, 4, 62, 93
6, 180260, Note_on_c, 4, 62, 0
6, 180260, Note_on_c, 4, 74, 0
6, 180280, Note_on_c, 4, 76, 99
6, 180280, Note_on_c, 4, 64, 99
6, 180320, Note_on_c, 4, 64, 0
6, 180320, Note_on_c, 4, 76, 0
6, 180320, Note_on_c, 4, 77, 94
6, 180320, Note_on_c, 4, 65, 98
6, 180360, Note_on_c, 4, 65, 0
6, 180360, Note_on_c, 4, 77, 0
6, 180360, Note_on_c, 4, 70, 89
6, 180360, Note_on_c, 4, 58, 89
6, 180380, Note_on_c, 4, 58, 0
6, 180380, Note_on_c, 4, 70, 0
6, 180400, Note_on_c, 4, 73, 86
6, 180400, Note_on_c, 4, 61, 89
6, 180440, Note_on_c, 4, 61, 0
6, 180440, Note_on_c, 4, 73, 0
6, 180440, Note_on_c, 4, 74, 104
6, 180440, Note_on_c, 4, 62, 98
6, 180480, Note_on_c, 4, 62, 0
6, 180480, Note_on_c, 4, 74, 0
6, 180480, Note_on_c, 4, 65, 90
6, 180480, Note_on_c, 4, 53, 95
6, 180500, Note_on_c, 4, 53, 0
6, 180500, Note_on_c, 4, 65, 0
6, 180520, Note_on_c, 4, 69, 99
6, 180520, Note_on_c, 4, 57, 99
6, 180560, Note_on_c, 4, 57, 0
6, 180560, Note_on_c, 4, 69, 0
6, 180560, Note_on_c, 4, 70, 95
6, 180560, Note_on_c, 4, 58, 94
6, 180600, Note_on_c, 4, 58, 0
6, 180600, Note_on_c, 4, 70, 0
6, 180600, Note_on_c, 4, 62, 90
6, 180600, Note_on_c, 4, 50, 99
6, 180620, Note_on_c, 4, 50, 0
6, 180620, Note_on_c, 4, 62, 0
6, 180640, Note_on_c, 4, 64, 94
6, 180640, Note_on_c, 4, 52, 95
6, 180680, Note_on_c, 4, 52, 0
6, 180680, Note_on_c, 4, 64, 0
6, 180680, Note_on_c, 4, 65, 94
6, 180680, Note_on_c, 4, 53, 89
6, 180720, Note_on_c, 4, 53, 0
6, 180720, Note_on_c, 4, 65, 0
6, 180720, Note_on_c, 4, 58, 89
6, 180720, Note_on_c, 4, 46, 93
6, 180740, Note_on_c, 4, 46, 0
6, 180740, Note_on_c, 4, 58, 0
6, 180760, Note_on_c, 4, 61, 89
6, 180760, Note_on_c, 4, 49, 89
6, 180800, Note_on_c, 4, 49, 0
6, 180800, Note_on_c, 4, 61, 0
6, 180800, Note_on_c, 4, 62, 89
6, 180800, Note_on_c, 4, 50, 101
6, 180840, Note_on_c, 4, 50, 0
6, 180840, Note_on_c, 4, 62, 0
6, 180840, Note_on_c, 4, 55, 94
6, 180840, Note_on_c, 4, 43, 94
6, 180880, Note_on_c, 4, 43, 0
6, 180880, Note_on_c, 4, 55, 0
6, 180880, Note_on_c, 4, 58, 94
6, 180880, Note_on_c, 4, 46, 94
6, 180920, Note_on_c, 4, 46, 0
6, 180920, Note_on_c, 4, 58, 0
6, 180920, Note_on_c, 4, 52, 98
6, 180920, Note_on_c, 4, 40, 99
6, 180960, Note_on_c, 4, 40, 0
6, 180960, Note_on_c, 4, 52, 0
6, 180960, Note_on_c, 4, 41, 94
6, 180990, Note_on_c, 4, 53, 89
6, 181020, Note_on_c, 4, 53, 0
6, 181020, Note_on_c, 4, 52, 95
6, 181050, Note_on_c, 4, 52, 0
6, 181050, Note_on_c, 4, 53, 86
6, 181080, Note_on_c, 4, 53, 0
6, 181080, Note_on_c, 4, 41, 0
6, 181080, Note_on_c, 4, 52, 94
6, 181110, Note_on_c, 4, 52, 0
6, 181110, Note_on_c, 4, 53, 89
6, 181140, Note_on_c, 4, 53, 0
6, 181140, Note_on_c, 4, 50, 95
6, 181170, Note_on_c, 4, 50, 0
6, 181170, Note_on_c, 4, 46, 95
6, 181200, Note_on_c, 4, 46, 0
6, 181200, Note_on_c, 4, 57, 104
6, 181230, Note_on_c, 4, 57, 0
6, 181230, Note_on_c, 4, 58, 84
6, 181260, Note_on_c, 4, 58, 0
6, 181260, Note_on_c, 4, 57, 101
6, 181290, Note_on_c, 4, 57, 0
6, 181290, Note_on_c, 4, 58, 84
6, 181320, Note_on_c, 4, 58, 0
6, 181320, Note_on_c, 4, 57, 104
6, 181350, Note_on_c, 4, 57, 0
6, 181350, Note_on_c, 4, 58, 84
6, 181380, Note_on_c, 4, 58, 0
6, 181380, Note_on_c, 4, 53, 89
6, 181410, Note_on_c, 4, 53, 0
6, 181410, Note_on_c, 4, 50, 95
6, 181440, Note_on_c, 4, 50, 0
6, 181440, Note_on_c, 4, 61, 89
6, 181470, Note_on_c, 4, 61, 0
6, 181470, Note_on_c, 4, 62, 84
6, 181500, Note_on_c, 4, 62, 0
6, 181500, Note_on_c, 4, 58, 86
6, 181515, Note_on_c, 4, 58, 0
6, 181530, Note_on_c, 4, 53, 99
6, 181545, Note_on_c, 4, 53, 0
6, 181560, Note_on_c, 4, 64, 95
6, 181590, Note_on_c, 4, 64, 0
6, 181590, Note_on_c, 4, 65, 94
6, 181620, Note_on_c, 4, 65, 0
6, 181620, Note_on_c, 4, 62, 86
6, 181635, Note_on_c, 4, 62, 0
6, 181650, Note_on_c, 4, 58, 86
6, 181665, Note_on_c, 4, 58, 0
6, 181680, Note_on_c, 4, 69, 99
6, 181710, Note_on_c, 4, 69, 0
6, 181710, Note_on_c, 4, 70, 89
6, 181740, Note_on_c, 4, 70, 0
6, 181740, Note_on_c, 4, 65, 101
6, 181755, Note_on_c, 4, 65, 0
6, 181770, Note_on_c, 4, 62, 95
6, 181785, Note_on_c, 4, 62, 0
6, 181800, Note_on_c, 4, 73, 86
6, 181830, Note_on_c, 4, 73, 0
6, 181830, Note_on_c, 4, 74, 99
6, 181860, Note_on_c, 4, 74, 0
6, 181860, Note_on_c, 4, 70, 94
6, 181875, Note_on_c, 4, 70, 0
6, 181890, Note_on_c, 4, 65, 104
6, 181905, Note_on_c, 4, 65, 0
6, 181920, Note_on_c, 4, 76, 99
6, 181950, Note_on_c, 4, 76, 0
6, 181950, Note_on_c, 4, 77, 86
6, 181980, Note_on_c, 4, 77, 0
6, 181980, Note_on_c, 4, 74, 107
6, 181995, Note_on_c, 4, 74, 0
6, 182010, Note_on_c, 4, 70, 99
6, 182025, Note_on_c, 4, 70, 0
6, 182040, Note_on_c, 4, 81, 104
6, 182070, Note_on_c, 4, 81, 0
6, 182070, Note_on_c, 4, 82, 95
6, 182100, Note_on_c, 4, 82, 0
6, 182100, Note_on_c, 4, 77, 95
6, 182115, Note_on_c, 4, 77, 0
6, 182130, Note_on_c, 4, 74, 107
6, 182145, Note_on_c, 4, 74, 0
6, 182160, Note_on_c, 4, 85, 89
6, 182190, Note_on_c, 4, 85, 0
6, 182190, Note_on_c, 4, 86, 98
6, 182220, Note_on_c, 4, 86, 0
6, 182220, Note_on_c, 4, 82, 95
6, 182235, Note_on_c, 4, 82, 0
6, 182250, Note_on_c, 4, 77, 99
6, 182265, Note_on_c, 4, 77, 0
6, 182280, Note_on_c, 4, 89, 105
6, 182340, Note_on_c, 4, 89, 0
6, 182340, Note_on_c, 4, 89, 110
6, 182400, Note_on_c, 4, 89, 0
6, 182400, Note_on_c, 4, 89, 101
6, 182430, Note_on_c, 4, 89, 0
6, 182430, Note_on_c, 4, 88, 104
6, 182460, Note_on_c, 4, 88, 0
6, 182460, Note_on_c, 4, 87, 99
6, 182490, Note_on_c, 4, 87, 0
6, 182490, Note_on_c, 4, 86, 94
6, 182520, Note_on_c, 4, 86, 0
6, 182520, Note_on_c, 4, 85, 94
6, 182550, Note_on_c, 4, 85, 0
6, 182550, Note_on_c, 4, 84, 93
6, 182580, Note_on_c, 4, 84, 0
6, 182580, Note_on_c, 4, 83, 99
6, 182610, Note_on_c, 4, 83, 0
6, 182610, Note_on_c, 4, 82, 93
6, 182640, Note_on_c, 4, 82, 0
6, 182640, Note_on_c, 4, 81, 95
6, 182670, Note_on_c, 4, 81, 0
6, 182670, Note_on_c, 4, 80, 98
6, 182700, Note_on_c, 4, 80, 0
6, 182700, Note_on_c, 4, 79, 95
6, 182730, Note_on_c, 4, 79, 0
6, 182730, Note_on_c, 4, 78, 95
6, 182760, Note_on_c, 4, 78, 0
6, 182760, Note_on_c, 4, 77, 95
6, 182790, Note_on_c, 4, 77, 0
6, 182790, Note_on_c, 4, 76, 104
6, 182820, Note_on_c, 4, 76, 0
6, 182820, Note_on_c, 4, 75, 95
6, 182850, Note_on_c, 4, 75, 0
6, 182850, Note_on_c, 4, 74, 105
6, 182880, Note_on_c, 4, 74, 0
6, 182880, Note_on_c, 4, 72, 89
6, 182880, Note_on_c, 4, 53, 95
6, 182900, Note_on_c, 4, 72, 0
6, 182900, Note_on_c, 4, 74, 99
6, 182910, Note_on_c, 4, 53, 0
6, 182910, Note_on_c, 4, 54, 94
6, 182920, Note_on_c, 4, 74, 0
6, 182920, Note_on_c, 4, 72, 80
6, 182940, Note_on_c, 4, 72, 0
6, 182940, Note_on_c, 4, 54, 0
6, 182940, Note_on_c, 4, 74, 104
6, 182940, Note_on_c, 4, 55, 86
6, 182955, Note_on_c, 4, 74, 0
6, 182955, Note_on_c, 4, 72, 81
6, 182970, Note_on_c, 4, 72, 0
6, 182970, Note_on_c, 4, 55, 0
6, 182970, Note_on_c, 4, 74, 99
6, 182970, Note_on_c, 4, 56, 95
6, 182985, Note_on_c, 4, 74, 0
6, 182985, Note_on_c, 4, 72, 84
6, 183000, Note_on_c, 4, 72, 0
6, 183000, Note_on_c, 4, 56, 0
6, 183000, Note_on_c, 4, 74, 99
6, 183000, Note_on_c, 4, 57, 99
6, 183020, Note_on_c, 4, 74, 0
6, 183020, Note_on_c, 4, 72, 84
6, 183030, Note_on_c, 4, 57, 0
6, 183030, Note_on_c, 4, 58, 94
6, 183040, Note_on_c, 4, 72, 0
6, 183040, Note_on_c, 4, 74, 101
6, 183060, Note_on_c, 4, 74, 0
6, 183060, Note_on_c, 4, 58, 0
6, 183060, Note_on_c, 4, 72, 84
6, 183060, Note_on_c, 4, 59, 94
6, 183075, Note_on_c, 4, 72, 0
6, 183075, Note_on_c, 4, 74, 101
6, 183090, Note_on_c, 4, 74, 0
6, 183090, Note_on_c, 4, 59, 0
6, 183090, Note_on_c, 4, 72, 89
6, 183090, Note_on_c, 4, 60, 98
6, 183105, Note_on_c, 4, 72, 0
6, 183105, Note_on_c, 4, 74, 101
6, 183120, Note_on_c, 4, 74, 0
6, 183120, Note_on_c, 4, 60, 0
6, 183120, Note_on_c, 4, 72, 84
6, 183120, Note_on_c, 4, 61, 90
6, 183140, Note_on_c, 4, 72, 0
6, 183140, Note_on_c, 4, 74, 101
6, 183150, Note_on_c, 4, 61, 0
6, 183150, Note_on_c, 4, 62, 93
6, 183160, Note_on_c, 4, 74, 0
6, 183160, Note_on_c, 4, 72, 89
6, 183180, Note_on_c, 4, 72, 0
6, 183180, Note_on_c, 4, 62, 0
6, 183180, Note_on_c, 4, 74, 104
6, 183180, Note_on_c, 4, 63, 86
6, 183190, Note_on_c, 4, 74, 0
6, 183190, Note_on_c, 4, 72, 84
6, 183200, Note_on_c, 4, 72, 0
6, 183200, Note_on_c, 4, 74, 101
6, 183210, Note_on_c, 4, 74, 0
6, 183210, Note_on_c, 4, 63, 0
6, 183210, Note_on_c, 4, 72, 84
6, 183210, Note_on_c, 4, 64, 95
6, 183220, Note_on_c, 4, 72, 0
6, 183220, Note_on_c, 4, 74, 104
6, 183240, Note_on_c, 4, 64, 0
6, 183240, Note_on_c, 4, 65, 101
6, 183250, Note_on_c, 4, 74, 0
6, 183250, Note_on_c, 4, 72, 86
6, 183270, Note_on_c, 4, 65, 0
6, 183270, Note_on_c, 4, 66, 98
6, 183280, Note_on_c, 4, 72, 0
6, 183280, Note_on_c, 4, 74, 104
6, 183300, Note_on_c, 4, 66, 0
6, 183300, Note_on_c, 4, 67, 93
6, 183310, Note_on_c, 4, 74, 0
6, 183310, Note_on_c, 4, 72, 89
6, 183325, Note_on_c, 4, 72, 0
6, 183325, Note_on_c, 4, 74, 105
6, 183330, Note_on_c, 4, 67, 0
6, 183330, Note_on_c, 4, 68, 99
6, 183340, Note_on_c, 4, 74, 0
6, 183340, Note_on_c, 4, 72, 94
6, 183355, Note_on_c, 4, 72, 0
6, 183355, Note_on_c, 4, 74, 105
6, 183360, Note_on_c, 4, 68, 0
6, 183360, Note_on_c, 4, 84, 95
6, 183360, Note_on_c, 4, 69, 101
6, 183370, Note_on_c, 4, 74, 0
6, 183375, Note_on_c, 4, 69, 0
6, 183375, Note_on_c, 4, 70, 95
6, 183380, Note_on_c, 4, 84, 0
6, 183380, Note_on_c, 4, 86, 99
6, 183390, Note_on_c, 4, 70, 0
6, 183390, Note_on_c, 4, 69, 99
6, 183400, Note_on_c, 4, 86, 0
6, 183400, Note_on_c, 4, 84, 95
6, 183405, Note_on_c, 4, 69, 0
6, 183405, Note_on_c, 4, 70, 94
6, 183420, Note_on_c, 4, 70, 0
6, 183420, Note_on_c, 4, 84, 0
6, 183420, Note_on_c, 4, 86, 104
6, 183420, Note_on_c, 4, 69, 99
6, 183435, Note_on_c, 4, 86, 0
6, 183435, Note_on_c, 4, 84, 95
6, 183440, Note_on_c, 4, 69, 0
6, 183440, Note_on_c, 4, 70, 94
6, 183450, Note_on_c, 4, 84, 0
6, 183450, Note_on_c, 4, 86, 99
6, 183460, Note_on_c, 4, 70, 0
6, 183460, Note_on_c, 4, 69, 99
6, 183465, Note_on_c, 4, 86, 0
6, 183465, Note_on_c, 4, 84, 95
6, 183480, Note_on_c, 4, 84, 0
6, 183480, Note_on_c, 4, 69, 0
6, 183480, Note_on_c, 4, 86, 101
6, 183480, Note_on_c, 4, 70, 94
6, 183495, Note_on_c, 4, 70, 0
6, 183495, Note_on_c, 4, 69, 99
6, 183500, Note_on_c, 4, 86, 0
6, 183500, Note_on_c, 4, 84, 94
6, 183510, Note_on_c, 4, 69, 0
6, 183510, Note_on_c, 4, 70, 95
6, 183520, Note_on_c, 4, 84, 0
6, 183520, Note_on_c, 4, 86, 99
6, 183525, Note_on_c, 4, 70, 0
6, 183525, Note_on_c, 4, 69, 98
6, 183540, Note_on_c, 4, 69, 0
6, 183540, Note_on_c, 4, 86, 0
6, 183540, Note_on_c, 4, 84, 95
6, 183540, Note_on_c, 4, 70, 98
6, 183555, Note_on_c, 4, 84, 0
6, 183555, Note_on_c, 4, 86, 99
6, 183560, Note_on_c, 4, 70, 0
6, 183560, Note_on_c, 4, 69, 99
6, 183570, Note_on_c, 4, 86, 0
6, 183570, Note_on_c, 4, 84, 94
6, 183580, Note_on_c, 4, 69, 0
6, 183580, Note_on_c, 4, 70, 98
6, 183585, Note_on_c, 4, 84, 0
6, 183585, Note_on_c, 4, 86, 95
6, 183600, Note_on_c, 4, 86, 0
6, 183600, Note_on_c, 4, 70, 0
6, 183600, Note_on_c, 4, 84, 95
6, 183600, Note_on_c, 4, 69, 99
6, 183615, Note_on_c, 4, 69, 0
6, 183615, Note_on_c, 4, 70, 94
6, 183620, Note_on_c, 4, 84, 0
6, 183620, Note_on_c, 4, 86, 99
6, 183630, Note_on_c, 4, 70, 0
6, 183630, Note_on_c, 4, 69, 99
6, 183640, Note_on_c, 4, 86, 0
6, 183640, Note_on_c, 4, 84, 94
6, 183645, Note_on_c, 4, 69, 0
6, 183645, Note_on_c, 4, 70, 95
6, 183660, Note_on_c, 4, 70, 0
6, 183660, Note_on_c, 4, 84, 0
6, 183660, Note_on_c, 4, 86, 104
6, 183660, Note_on_c, 4, 69, 95
6, 183675, Note_on_c, 4, 86, 0
6, 183675, Note_on_c, 4, 84, 94
6, 183680, Note_on_c, 4, 69, 0
6, 183680, Note_on_c, 4, 70, 95
6, 183690, Note_on_c, 4, 84, 0
6, 183690, Note_on_c, 4, 86, 99
6, 183700, Note_on_c, 4, 70, 0
6, 183700, Note_on_c, 4, 69, 95
6, 183705, Note_on_c, 4, 86, 0
6, 183705, Note_on_c, 4, 84, 94
6, 183720, Note_on_c, 4, 84, 0
6, 183720, Note_on_c, 4, 69, 0
6, 183720, Note_on_c, 4, 86, 104
6, 183720, Note_on_c, 4, 70, 95
6, 183735, Note_on_c, 4, 70, 0
6, 183735, Note_on_c, 4, 69, 99
6, 183740, Note_on_c, 4, 86, 0
6, 183740, Note_on_c, 4, 84, 99
6, 183750, Note_on_c, 4, 69, 0
6, 183750, Note_on_c, 4, 70, 95
6, 183760, Note_on_c, 4, 84, 0
6, 183760, Note_on_c, 4, 86, 104
6, 183765, Note_on_c, 4, 70, 0
6, 183765, Note_on_c, 4, 69, 104
6, 183780, Note_on_c, 4, 69, 0
6, 183780, Note_on_c, 4, 86, 0
6, 183780, Note_on_c, 4, 84, 95
6, 183780, Note_on_c, 4, 70, 95
6, 183795, Note_on_c, 4, 84, 0
6, 183795, Note_on_c, 4, 86, 99
6, 183800, Note_on_c, 4, 70, 0
6, 183800, Note_on_c, 4, 69, 99
6, 183810, Note_on_c, 4, 86, 0
6, 183810, Note_on_c, 4, 84, 95
6, 183820, Note_on_c, 4, 69, 0
6, 183820, Note_on_c, 4, 70, 99
6, 183825, Note_on_c, 4, 84, 0
6, 183825, Note_on_c, 4, 86, 104
6, 183840, Note_on_c, 4, 86, 0
6, 183840, Note_on_c, 4, 70, 0
6, 183840, Note_on_c, 4, 82, 94
6, 183840, Note_on_c, 4, 70, 105
6, 183960, Note_on_c, 4, 70, 0
6, 183960, Note_on_c, 4, 82, 0
6, 189120, Note_on_c, 4, 46, 95
6, 189300, Note_on_c, 4, 46, 0
6, 189330, Note_on_c, 4, 46, 94
6, 189360, Note_on_c, 4, 46, 0
6, 189360, Note_on_c, 4, 50, 105
6, 189450, Note_on_c, 4, 50, 0
6, 189450, Note_on_c, 4, 50, 104
6, 189480, Note_on_c, 4, 50, 0
6, 189480, Note_on_c, 4, 53, 95
6, 189570, Note_on_c, 4, 53, 0
6, 189570, Note_on_c, 4, 53, 99
6, 189600, Note_on_c, 4, 53, 0
6, 189600, Note_on_c, 4, 58, 99
6, 189720, Note_on_c, 4, 58, 0
6, 189960, Note_on_c, 4, 62, 65
6, 190050, Note_on_c, 4, 62, 0
6, 190050, Note_on_c, 4, 60, 81
6, 190080, Note_on_c, 4, 60, 0
6, 190080, Note_on_c, 4, 58, 76
6, 190170, Note_on_c, 4, 58, 0
6, 190170, Note_on_c, 4, 57, 86
6, 190200, Note_on_c, 4, 57, 0
6, 190200, Note_on_c, 4, 55, 76
6, 190290, Note_on_c, 4, 55, 0
6, 190290, Note_on_c, 4, 53, 71
6, 190320, Note_on_c, 4, 53, 0
6, 190320, Note_on_c, 4, 52, 86
6, 190440, Note_on_c, 4, 52, 0
6, 190440, Note_on_c, 4, 60, 63
6, 190530, Note_on_c, 4, 60, 0
6, 190530, Note_on_c, 4, 58, 65
6, 190560, Note_on_c, 4, 58, 0
6, 190560, Note_on_c, 4, 57, 67
6, 190650, Note_on_c, 4, 57, 0
6, 190650, Note_on_c, 4, 55, 72
6, 190680, Note_on_c, 4, 55, 0
6, 190680, Note_on_c, 4, 53, 54
6, 190770, Note_on_c, 4, 53, 0
6, 190770, Note_on_c, 4, 51, 57
6, 190800, Note_on_c, 4, 51, 0
6, 190800, Note_on_c, 4, 50, 81
6, 190920, Note_on_c, 4, 50, 0
6, 190920, Note_on_c, 4, 58, 53
6, 190980, Note_on_c, 4, 58, 0
6, 190980, Note_on_c, 4, 56, 69
6, 191040, Note_on_c, 4, 56, 0
6, 191040, Note_on_c, 4, 55, 68
6, 191100, Note_on_c, 4, 55, 0
6, 191100, Note_on_c, 4, 57, 84
6, 191160, Note_on_c, 4, 57, 0
6, 191160, Note_on_c, 4, 58, 60
6, 191220, Note_on_c, 4, 58, 0
6, 191220, Note_on_c, 4, 60, 57
6, 191280, Note_on_c, 4, 60, 0
6, 191280, Note_on_c, 4, 65, 77
6, 191280, Note_on_c, 4, 58, 64
6, 191400, Note_on_c, 4, 58, 0
6, 191400, Note_on_c, 4, 57, 82
6, 191460, Note_on_c, 4, 57, 0
6, 191460, Note_on_c, 4, 65, 0
6, 191460, Note_on_c, 4, 58, 67
6, 191490, Note_on_c, 4, 65, 84
6, 191520, Note_on_c, 4, 65, 0
6, 191520, Note_on_c, 4, 58, 0
6, 191520, Note_on_c, 4, 69, 84
6, 191520, Note_on_c, 4, 60, 57
6, 191580, Note_on_c, 4, 60, 0
6, 191580, Note_on_c, 4, 58, 65
6, 191610, Note_on_c, 4, 69, 0
6, 191610, Note_on_c, 4, 69, 81
6, 191640, Note_on_c, 4, 69, 0
6, 191640, Note_on_c, 4, 58, 0
6, 191640, Note_on_c, 4, 72, 78
6, 191640, Note_on_c, 4, 57, 74
6, 191700, Note_on_c, 4, 57, 0
6, 191700, Note_on_c, 4, 55, 59
6, 191730, Note_on_c, 4, 72, 0
6, 191730, Note_on_c, 4, 72, 73
6, 191760, Note_on_c, 4, 72, 0
6, 191760, Note_on_c, 4, 55, 0
6, 191760, Note_on_c, 4, 77, 84
6, 191760, Note_on_c, 4, 53, 45
6, 191820, Note_on_c, 4, 53, 0
6, 191820, Note_on_c, 4, 52, 59
6, 191880, Note_on_c, 4, 52, 0
6, 191880, Note_on_c, 4, 77, 0
6, 191880, Note_on_c, 4, 80, 77
6, 191880, Note_on_c, 4, 53, 62
6, 191940, Note_on_c, 4, 53, 0
6, 191940, Note_on_c, 4, 55, 58
6, 191970, Note_on_c, 4, 80, 0
6, 191970, Note_on_c, 4, 79, 74
6, 192000, Note_on_c, 4, 79, 0
6, 192000, Note_on_c, 4, 55, 0
6, 192000, Note_on_c, 4, 77, 69
6, 192000, Note_on_c, 4, 56, 74
6, 192090, Note_on_c, 4, 77, 0
6, 192090, Note_on_c, 4, 75, 89
6, 192120, Note_on_c, 4, 75, 0
6, 192120, Note_on_c, 4, 56, 0
6, 192120, Note_on_c, 4, 74, 82
6, 192120, Note_on_c, 4, 54, 73
6, 192210, Note_on_c, 4, 74, 0
6, 192210, Note_on_c, 4, 72, 73
6, 192240, Note_on_c, 4, 72, 0
6, 192240, Note_on_c, 4, 54, 0
6, 192240, Note_on_c, 4, 71, 85
6, 192240, Note_on_c, 4, 55, 78
6, 192300, Note_on_c, 4, 55, 0
6, 192300, Note_on_c, 4, 53, 73
6, 192360, Note_on_c, 4, 53, 0
6, 192360, Note_on_c, 4, 71, 0
6, 192360, Note_on_c, 4, 79, 73
6, 192360, Note_on_c, 4, 52, 74
6, 192420, Note_on_c, 4, 52, 0
6, 192420, Note_on_c, 4, 53, 76
6, 192450, Note_on_c, 4, 79, 0
6, 192450, Note_on_c, 4, 77, 76
6, 192480, Note_on_c, 4, 77, 0
6, 192480, Note_on_c, 4, 53, 0
6, 192480, Note_on_c, 4, 76, 71
6, 192480, Note_on_c, 4, 55, 73
6, 192570, Note_on_c, 4, 76, 0
6, 192570, Note_on_c, 4, 73, 71
6, 192600, Note_on_c, 4, 73, 0
6, 192600, Note_on_c, 4, 55, 0
6, 192600, Note_on_c, 4, 72, 84
6, 192600, Note_on_c, 4, 52, 84
6, 192690, Note_on_c, 4, 72, 0
6, 192690, Note_on_c, 4, 70, 84
6, 192720, Note_on_c, 4, 70, 0
6, 192720, Note_on_c, 4, 52, 0
6, 192720, Note_on_c, 4, 69, 89
6, 192720, Note_on_c, 4, 53, 46
6, 192780, Note_on_c, 4, 53, 0
6, 192780, Note_on_c, 4, 51, 80
6, 192840, Note_on_c, 4, 51, 0
6, 192840, Note_on_c, 4, 69, 0
6, 192840, Note_on_c, 4, 77, 73
6, 192840, Note_on_c, 4, 50, 80
6, 192900, Note_on_c, 4, 50, 0
6, 192900, Note_on_c, 4, 51, 80
6, 192930, Note_on_c, 4, 77, 0
6, 192930, Note_on_c, 4, 75, 80
6, 192960, Note_on_c, 4, 75, 0
6, 192960, Note_on_c, 4, 51, 0
6, 192960, Note_on_c, 4, 74, 78
6, 192960, Note_on_c, 4, 53, 74
6, 193020, Note_on_c, 4, 53, 0
6, 193020, Note_on_c, 4, 74, 0
6, 193020, Note_on_c, 4, 72, 76
6, 193020, Note_on_c, 4, 46, 76
6, 193050, Note_on_c, 4, 46, 0
6, 193050, Note_on_c, 4, 48, 80
6, 193080, Note_on_c, 4, 48, 0
6, 193080, Note_on_c, 4, 72, 0
6, 193080, Note_on_c, 4, 70, 80
6, 193080, Note_on_c, 4, 50, 89
6, 193140, Note_on_c, 4, 50, 0
6, 193140, Note_on_c, 4, 70, 0
6, 193140, Note_on_c, 4, 68, 84
6, 193140, Note_on_c, 4, 48, 85
6, 193170, Note_on_c, 4, 48, 0
6, 193170, Note_on_c, 4, 50, 90
6, 193200, Note_on_c, 4, 50, 0
6, 193200, Note_on_c, 4, 68, 0
6, 193200, Note_on_c, 4, 67, 81
6, 193200, Note_on_c, 4, 51, 89
6, 193260, Note_on_c, 4, 51, 0
6, 193260, Note_on_c, 4, 63, 77
6, 193320, Note_on_c, 4, 63, 0
6, 193320, Note_on_c, 4, 67, 0
6, 193320, Note_on_c, 4, 66, 80
6, 193320, Note_on_c, 4, 51, 78
6, 193380, Note_on_c, 4, 51, 0
6, 193380, Note_on_c, 4, 51, 78
6, 193440, Note_on_c, 4, 51, 0
6, 193440, Note_on_c, 4, 66, 0
6, 193440, Note_on_c, 4, 70, 80
6, 193440, Note_on_c, 4, 65, 93
6, 193440, Note_on_c, 4, 51, 80
6, 193500, Note_on_c, 4, 51, 0
6, 193500, Note_on_c, 4, 65, 0
6, 193500, Note_on_c, 4, 67, 68
6, 193500, Note_on_c, 4, 48, 74
6, 193560, Note_on_c, 4, 48, 0
6, 193560, Note_on_c, 4, 67, 0
6, 193560, Note_on_c, 4, 65, 84
6, 193560, Note_on_c, 4, 50, 76
6, 193620, Note_on_c, 4, 50, 0
6, 193620, Note_on_c, 4, 65, 0
6, 193620, Note_on_c, 4, 70, 0
6, 193620, Note_on_c, 4, 63, 74
6, 193620, Note_on_c, 4, 46, 78
6, 193650, Note_on_c, 4, 70, 89
6, 193680, Note_on_c, 4, 70, 0
6, 193680, Note_on_c, 4, 46, 0
6, 193680, Note_on_c, 4, 63, 0
6, 193680, Note_on_c, 4, 74, 94
6, 193680, Note_on_c, 4, 62, 86
6, 193740, Note_on_c, 4, 62, 0
6, 193740, Note_on_c, 4, 72, 59
6, 193770, Note_on_c, 4, 74, 0
6, 193770, Note_on_c, 4, 74, 95
6, 193800, Note_on_c, 4, 74, 0
6, 193800, Note_on_c, 4, 72, 0
6, 193800, Note_on_c, 4, 77, 72
6, 193800, Note_on_c, 4, 70, 81
6, 193860, Note_on_c, 4, 70, 0
6, 193860, Note_on_c, 4, 69, 84
6, 193890, Note_on_c, 4, 77, 0
6, 193890, Note_on_c, 4, 77, 81
6, 193920, Note_on_c, 4, 77, 0
6, 193920, Note_on_c, 4, 69, 0
6, 193920, Note_on_c, 4, 82, 85
6, 193920, Note_on_c, 4, 67, 64
6, 193980, Note_on_c, 4, 67, 0
6, 193980, Note_on_c, 4, 66, 74
6, 194040, Note_on_c, 4, 66, 0
6, 194040, Note_on_c, 4, 82, 0
6, 194040, Note_on_c, 4, 67, 81
6, 194100, Note_on_c, 4, 67, 0
6, 194100, Note_on_c, 4, 69, 76
6, 194160, Note_on_c, 4, 69, 0
6, 194160, Note_on_c, 4, 70, 86
6, 194220, Note_on_c, 4, 70, 0
6, 194220, Note_on_c, 4, 69, 80
6, 194280, Note_on_c, 4, 69, 0
6, 194280, Note_on_c, 4, 85, 81
6, 194280, Note_on_c, 4, 70, 86
6, 194340, Note_on_c, 4, 70, 0
6, 194340, Note_on_c, 4, 72, 58
6, 194370, Note_on_c, 4, 85, 0
6, 194370, Note_on_c, 4, 84, 78
6, 194400, Note_on_c, 4, 84, 0
6, 194400, Note_on_c, 4, 72, 0
6, 194400, Note_on_c, 4, 82, 76
6, 194400, Note_on_c, 4, 73, 70
6, 194490, Note_on_c, 4, 82, 0
6, 194490, Note_on_c, 4, 80, 78
6, 194520, Note_on_c, 4, 80, 0
6, 194520, Note_on_c, 4, 73, 0
6, 194520, Note_on_c, 4, 79, 81
6, 194520, Note_on_c, 4, 71, 93
6, 194610, Note_on_c, 4, 79, 0
6, 194610, Note_on_c, 4, 77, 80
6, 194640, Note_on_c, 4, 77, 0
6, 194640, Note_on_c, 4, 71, 0
6, 194640, Note_on_c, 4, 76, 94
6, 194640, Note_on_c, 4, 72, 55
6, 194700, Note_on_c, 4, 72, 0
6, 194700, Note_on_c, 4, 70, 78
6, 194760, Note_on_c, 4, 70, 0
6, 194760, Note_on_c, 4, 76, 0
6, 194760, Note_on_c, 4, 84, 82
6, 194760, Note_on_c, 4, 69, 71
6, 194820, Note_on_c, 4, 69, 0
6, 194820, Note_on_c, 4, 70, 72
6, 194850, Note_on_c, 4, 84, 0
6, 194850, Note_on_c, 4, 82, 77
6, 194880, Note_on_c, 4, 82, 0
6, 194880, Note_on_c, 4, 70, 0
6, 194880, Note_on_c, 4, 81, 85
6, 194880, Note_on_c, 4, 72, 46
6, 194970, Note_on_c, 4, 81, 0
6, 194970, Note_on_c, 4, 79, 80
6, 195000, Note_on_c, 4, 79, 0
6, 195000, Note_on_c, 4, 72, 0
6, 195000, Note_on_c, 4, 77, 81
6, 195000, Note_on_c, 4, 69, 81
6, 195090, Note_on_c, 4, 77, 0
6, 195090, Note_on_c, 4, 75, 90
6, 195120, Note_on_c, 4, 75, 0
6, 195120, Note_on_c, 4, 69, 0
6, 195120, Note_on_c, 4, 74, 80
6, 195120, Note_on_c, 4, 70, 78
6, 195120, Note_on_c, 4, 46, 76
6, 195180, Note_on_c, 4, 74, 0
6, 195180, Note_on_c, 4, 72, 71
6, 195240, Note_on_c, 4, 72, 0
6, 195240, Note_on_c, 4, 70, 0
6, 195240, Note_on_c, 4, 74, 99
6, 195300, Note_on_c, 4, 74, 0
6, 195300, Note_on_c, 4, 46, 0
6, 195300, Note_on_c, 4, 75, 93
6, 195330, Note_on_c, 4, 46, 80
6, 195360, Note_on_c, 4, 46, 0
6, 195360, Note_on_c, 4, 75, 0
6, 195360, Note_on_c, 4, 77, 76
6, 195360, Note_on_c, 4, 50, 81
6, 195420, Note_on_c, 4, 77, 0
6, 195420, Note_on_c, 4, 75, 89
6, 195450, Note_on_c, 4, 50, 0
6, 195450, Note_on_c, 4, 50, 86
6, 195480, Note_on_c, 4, 50, 0
6, 195480, Note_on_c, 4, 75, 0
6, 195480, Note_on_c, 4, 77, 84
6, 195480, Note_on_c, 4, 53, 76
6, 195540, Note_on_c, 4, 77, 0
6, 195540, Note_on_c, 4, 79, 74
6, 195570, Note_on_c, 4, 53, 0
6, 195570, Note_on_c, 4, 53, 80
6, 195600, Note_on_c, 4, 53, 0
6, 195600, Note_on_c, 4, 79, 0
6, 195600, Note_on_c, 4, 80, 89
6, 195600, Note_on_c, 4, 59, 77
6, 195720, Note_on_c, 4, 59, 0
6, 195720, Note_on_c, 4, 80, 0
6, 195720, Note_on_c, 4, 78, 84
6, 195720, Note_on_c, 4, 74, 82
6, 195810, Note_on_c, 4, 74, 0
6, 195810, Note_on_c, 4, 72, 58
6, 195840, Note_on_c, 4, 72, 0
6, 195840, Note_on_c, 4, 78, 0
6, 195840, Note_on_c, 4, 79, 86
6, 195840, Note_on_c, 4, 71, 84
6, 195930, Note_on_c, 4, 71, 0
6, 195930, Note_on_c, 4, 68, 76
6, 195960, Note_on_c, 4, 68, 0
6, 195960, Note_on_c, 4, 79, 0
6, 195960, Note_on_c, 4, 67, 78
6, 196050, Note_on_c, 4, 67, 0
6, 196050, Note_on_c, 4, 67, 80
6, 196080, Note_on_c, 4, 67, 0
6, 196080, Note_on_c, 4, 75, 89
6, 196080, Note_on_c, 4, 67, 89
6, 196080, Note_on_c, 4, 48, 90
6, 196140, Note_on_c, 4, 75, 0
6, 196140, Note_on_c, 4, 74, 81
6, 196200, Note_on_c, 4, 74, 0
6, 196200, Note_on_c, 4, 67, 0
6, 196200, Note_on_c, 4, 75, 86
6, 196260, Note_on_c, 4, 75, 0
6, 196260, Note_on_c, 4, 48, 0
6, 196260, Note_on_c, 4, 77, 78
6, 196290, Note_on_c, 4, 48, 85
6, 196320, Note_on_c, 4, 48, 0
6, 196320, Note_on_c, 4, 77, 0
6, 196320, Note_on_c, 4, 79, 81
6, 196320, Note_on_c, 4, 52, 89
6, 196380, Note_on_c, 4, 79, 0
6, 196380, Note_on_c, 4, 77, 89
6, 196410, Note_on_c, 4, 52, 0
6, 196410, Note_on_c, 4, 52, 86
6, 196440, Note_on_c, 4, 52, 0
6, 196440, Note_on_c, 4, 77, 0
6, 196440, Note_on_c, 4, 79, 81
6, 196440, Note_on_c, 4, 55, 81
6, 196500, Note_on_c, 4, 79, 0
6, 196500, Note_on_c, 4, 81, 84
6, 196530, Note_on_c, 4, 55, 0
6, 196530, Note_on_c, 4, 55, 84
6, 196560, Note_on_c, 4, 55, 0
6, 196560, Note_on_c, 4, 81, 0
6, 196560, Note_on_c, 4, 82, 84
6, 196560, Note_on_c, 4, 61, 81
6, 196680, Note_on_c, 4, 61, 0
6, 196680, Note_on_c, 4, 82, 0
6, 196680, Note_on_c, 4, 80, 85
6, 196680, Note_on_c, 4, 64, 78
6, 196720, Note_on_c, 4, 64, 0
6, 196720, Note_on_c, 4, 61, 76
6, 196760, Note_on_c, 4, 61, 0
6, 196760, Note_on_c, 4, 55, 89
6, 196800, Note_on_c, 4, 55, 0
6, 196800, Note_on_c, 4, 80, 0
6, 196800, Note_on_c, 4, 81, 93
6, 196800, Note_on_c, 4, 69, 85
6, 196800, Note_on_c, 4, 53, 81
6, 196840, Note_on_c, 4, 53, 0
6, 196840, Note_on_c, 4, 57, 90
6, 196880, Note_on_c, 4, 57, 0
6, 196880, Note_on_c, 4, 55, 77
6, 196890, Note_on_c, 4, 69, 0
6, 196890, Note_on_c, 4, 69, 84
6, 196920, Note_on_c, 4, 69, 0
6, 196920, Note_on_c, 4, 55, 0
6, 196920, Note_on_c, 4, 81, 0
6, 196920, Note_on_c, 4, 74, 94
6, 196920, Note_on_c, 4, 53, 81
6, 196960, Note_on_c, 4, 53, 0
6, 196960, Note_on_c, 4, 52, 84
6, 197000, Note_on_c, 4, 52, 0
6, 197000, Note_on_c, 4, 50, 90
6, 197010, Note_on_c, 4, 74, 0
6, 197010, Note_on_c, 4, 74, 90
6, 197040, Note_on_c, 4, 74, 0
6, 197040, Note_on_c, 4, 50, 0
6, 197040, Note_on_c, 4, 79, 89
6, 197040, Note_on_c, 4, 74, 93
6, 197040, Note_on_c, 4, 52, 90
6, 197080, Note_on_c, 4, 52, 0
6, 197080, Note_on_c, 4, 58, 77
6, 197120, Note_on_c, 4, 58, 0
6, 197120, Note_on_c, 4, 57, 95
6, 197130, Note_on_c, 4, 79, 0
6, 197130, Note_on_c, 4, 79, 80
6, 197160, Note_on_c, 4, 79, 0
6, 197160, Note_on_c, 4, 57, 0
6, 197160, Note_on_c, 4, 74, 0
6, 197160, Note_on_c, 4, 82, 86
6, 197160, Note_on_c, 4, 73, 84
6, 197160, Note_on_c, 4, 55, 81
6, 197200, Note_on_c, 4, 55, 0
6, 197200, Note_on_c, 4, 53, 76
6, 197240, Note_on_c, 4, 53, 0
6, 197240, Note_on_c, 4, 52, 93
6, 197250, Note_on_c, 4, 82, 0
6, 197250, Note_on_c, 4, 82, 80
6, 197280, Note_on_c, 4, 82, 0
6, 197280, Note_on_c, 4, 52, 0
6, 197280, Note_on_c, 4, 73, 0
6, 197280, Note_on_c, 4, 82, 89
6, 197280, Note_on_c, 4, 73, 80
6, 197280, Note_on_c, 4, 57, 90
6, 197320, Note_on_c, 4, 57, 0
6, 197320, Note_on_c, 4, 64, 76
6, 197360, Note_on_c, 4, 64, 0
6, 197360, Note_on_c, 4, 62, 81
6, 197370, Note_on_c, 4, 73, 0
6, 197370, Note_on_c, 4, 73, 76
6, 197400, Note_on_c, 4, 73, 0
6, 197400, Note_on_c, 4, 62, 0
6, 197400, Note_on_c, 4, 82, 0
6, 197400, Note_on_c, 4, 81, 94
6, 197400, Note_on_c, 4, 79, 84
6, 197400, Note_on_c, 4, 61, 77
6, 197440, Note_on_c, 4, 61, 0
6, 197440, Note_on_c, 4, 59, 81
6, 197480, Note_on_c, 4, 59, 0
6, 197480, Note_on_c, 4, 57, 98
6, 197490, Note_on_c, 4, 79, 0
6, 197490, Note_on_c, 4, 79, 81
6, 197520, Note_on_c, 4, 79, 0
6, 197520, Note_on_c, 4, 57, 0
6, 197520, Note_on_c, 4, 81, 0
6, 197520, Note_on_c, 4, 81, 84
6, 197520, Note_on_c, 4, 79, 86
6, 197520, Note_on_c, 4, 62, 89
6, 197560, Note_on_c, 4, 62, 0
6, 197560, Note_on_c, 4, 72, 80
6, 197600, Note_on_c, 4, 72, 0
6, 197600, Note_on_c, 4, 70, 85
6, 197610, Note_on_c, 4, 81, 0
6, 197610, Note_on_c, 4, 81, 85
6, 197640, Note_on_c, 4, 81, 0
6, 197640, Note_on_c, 4, 70, 0
6, 197640, Note_on_c, 4, 79, 0
6, 197640, Note_on_c, 4, 84, 71
6, 197640, Note_on_c, 4, 78, 86
6, 197640, Note_on_c, 4, 69, 93
6, 197680, Note_on_c, 4, 69, 0
6, 197680, Note_on_c, 4, 67, 71
6, 197720, Note_on_c, 4, 67, 0
6, 197720, Note_on_c, 4, 66, 85
6, 197730, Note_on_c, 4, 84, 0
6, 197730, Note_on_c, 4, 84, 81
6, 197760, Note_on_c, 4, 84, 0
6, 197760, Note_on_c, 4, 66, 0
6, 197760, Note_on_c, 4, 78, 0
6, 197760, Note_on_c, 4, 84, 84
6, 197760, Note_on_c, 4, 77, 93
6, 197760, Note_on_c, 4, 55, 90
6, 197800, Note_on_c, 4, 55, 0
6, 197800, Note_on_c, 4, 65, 80
6, 197840, Note_on_c, 4, 65, 0
6, 197840, Note_on_c, 4, 63, 80
6, 197850, Note_on_c, 4, 84, 0
6, 197850, Note_on_c, 4, 83, 93
6, 197880, Note_on_c, 4, 83, 0
6, 197880, Note_on_c, 4, 63, 0
6, 197880, Note_on_c, 4, 77, 0
6, 197880, Note_on_c, 4, 86, 80
6, 197880, Note_on_c, 4, 83, 86
6, 197880, Note_on_c, 4, 62, 85
6, 197920, Note_on_c, 4, 62, 0
6, 197920, Note_on_c, 4, 60, 77
6, 197940, Note_on_c, 4, 83, 0
6, 197940, Note_on_c, 4, 86, 0
6, 197940, Note_on_c, 4, 86, 77
6, 197940, Note_on_c, 4, 83, 93
6, 197960, Note_on_c, 4, 60, 0
6, 197960, Note_on_c, 4, 59, 86
6, 198000, Note_on_c, 4, 59, 0
6, 198000, Note_on_c, 4, 83, 0
6, 198000, Note_on_c, 4, 86, 0
6, 198000, Note_on_c, 4, 86, 85
6, 198000, Note_on_c, 4, 77, 93
6, 198000, Note_on_c, 4, 48, 78
6, 198040, Note_on_c, 4, 48, 0
6, 198040, Note_on_c, 4, 55, 80
6, 198080, Note_on_c, 4, 55, 0
6, 198080, Note_on_c, 4, 53, 84
6, 198090, Note_on_c, 4, 77, 0
6, 198090, Note_on_c, 4, 86, 0
6, 198090, Note_on_c, 4, 84, 73
6, 198090, Note_on_c, 4, 75, 84
6, 198120, Note_on_c, 4, 75, 0
6, 198120, Note_on_c, 4, 84, 0
6, 198120, Note_on_c, 4, 53, 0
6, 198120, Note_on_c, 4, 87, 80
6, 198120, Note_on_c, 4, 84, 72
6, 198120, Note_on_c, 4, 51, 89
6, 198160, Note_on_c, 4, 51, 0
6, 198160, Note_on_c, 4, 50, 94
6, 198180, Note_on_c, 4, 84, 0
6, 198180, Note_on_c, 4, 87, 0
6, 198180, Note_on_c, 4, 87, 84
6, 198180, Note_on_c, 4, 84, 73
6, 198200, Note_on_c, 4, 50, 0
6, 198200, Note_on_c, 4, 48, 95
6, 198240, Note_on_c, 4, 48, 0
6, 198240, Note_on_c, 4, 84, 0
6, 198240, Note_on_c, 4, 87, 0
6, 198240, Note_on_c, 4, 87, 86
6, 198240, Note_on_c, 4, 84, 73
6, 198240, Note_on_c, 4, 41, 89
6, 198270, Note_on_c, 4, 41, 0
6, 198270, Note_on_c, 4, 53, 73
6, 198300, Note_on_c, 4, 53, 0
6, 198300, Note_on_c, 4, 84, 0
6, 198300, Note_on_c, 4, 87, 0
6, 198300, Note_on_c, 4, 41, 86
6, 198330, Note_on_c, 4, 41, 0
6, 198330, Note_on_c, 4, 81, 86
6, 198330, Note_on_c, 4, 53, 72
6, 198360, Note_on_c, 4, 53, 0
6, 198360, Note_on_c, 4, 81, 0
6, 198360, Note_on_c, 4, 84, 89
6, 198360, Note_on_c, 4, 41, 81
6, 198390, Note_on_c, 4, 41, 0
6, 198390, Note_on_c, 4, 53, 72
6, 198420, Note_on_c, 4, 53, 0
6, 198420, Note_on_c, 4, 41, 84
6, 198450, Note_on_c, 4, 41, 0
6, 198450, Note_on_c, 4, 84, 0
6, 198450, Note_on_c, 4, 84, 84
6, 198450, Note_on_c, 4, 53, 72
6, 198480, Note_on_c, 4, 53, 0
6, 198480, Note_on_c, 4, 84, 0
6, 198480, Note_on_c, 4, 84, 85
6, 198480, Note_on_c, 4, 41, 80
6, 198510, Note_on_c, 4, 41, 0
6, 198510, Note_on_c, 4, 53, 68
6, 198540, Note_on_c, 4, 53, 0
6, 198540, Note_on_c, 4, 41, 78
6, 198570, Note_on_c, 4, 41, 0
6, 198570, Note_on_c, 4, 75, 86
6, 198570, Note_on_c, 4, 53, 76
6, 198600, Note_on_c, 4, 53, 0
6, 198600, Note_on_c, 4, 75, 0
6, 198600, Note_on_c, 4, 78, 84
6, 198600, Note_on_c, 4, 41, 84
6, 198630, Note_on_c, 4, 41, 0
6, 198630, Note_on_c, 4, 53, 72
6, 198660, Note_on_c, 4, 53, 0
6, 198660, Note_on_c, 4, 41, 84
6, 198690, Note_on_c, 4, 41, 0
6, 198690, Note_on_c, 4, 78, 0
6, 198690, Note_on_c, 4, 78, 76
6, 198690, Note_on_c, 4, 53, 77
6, 198720, Note_on_c, 4, 53, 0
6, 198720, Note_on_c, 4, 78, 0
6, 198720, Note_on_c, 4, 84, 0
6, 198720, Note_on_c, 4, 84, 43
6, 198720, Note_on_c, 4, 74, 94
6, 198720, Note_on_c, 4, 41, 82
6, 198750, Note_on_c, 4, 41, 0
6, 198750, Note_on_c, 4, 53, 81
6, 198780, Note_on_c, 4, 53, 0
6, 198780, Note_on_c, 4, 41, 81
6, 198810, Note_on_c, 4, 41, 0
6, 198810, Note_on_c, 4, 84, 0
6, 198810, Note_on_c, 4, 77, 94
6, 198810, Note_on_c, 4, 53, 80
6, 198840, Note_on_c, 4, 53, 0
6, 198840, Note_on_c, 4, 77, 0
6, 198840, Note_on_c, 4, 82, 85
6, 198840, Note_on_c, 4, 41, 84
6, 198870, Note_on_c, 4, 41, 0
6, 198870, Note_on_c, 4, 53, 76
6, 198900, Note_on_c, 4, 53, 0
6, 198900, Note_on_c, 4, 41, 82
6, 198930, Note_on_c, 4, 41, 0
6, 198930, Note_on_c, 4, 82, 0
6, 198930, Note_on_c, 4, 82, 90
6, 198930, Note_on_c, 4, 53, 76
6, 198960, Note_on_c, 4, 53, 0
6, 198960, Note_on_c, 4, 82, 0
6, 198960, Note_on_c, 4, 74, 0
6, 198960, Note_on_c, 4, 82, 86
6, 198960, Note_on_c, 4, 41, 84
6, 198990, Note_on_c, 4, 41, 0
6, 198990, Note_on_c, 4, 53, 78
6, 199020, Note_on_c, 4, 53, 0
6, 199020, Note_on_c, 4, 41, 89
6, 199050, Note_on_c, 4, 41, 0
6, 199050, Note_on_c, 4, 73, 82
6, 199050, Note_on_c, 4, 53, 81
6, 199080, Note_on_c, 4, 53, 0
6, 199080, Note_on_c, 4, 73, 0
6, 199080, Note_on_c, 4, 76, 101
6, 199080, Note_on_c, 4, 41, 93
6, 199110, Note_on_c, 4, 41, 0
6, 199110, Note_on_c, 4, 53, 80
6, 199140, Note_on_c, 4, 53, 0
6, 199140, Note_on_c, 4, 41, 89
6, 199170, Note_on_c, 4, 41, 0
6, 199170, Note_on_c, 4, 76, 0
6, 199170, Note_on_c, 4, 76, 101
6, 199170, Note_on_c, 4, 53, 78
6, 199200, Note_on_c, 4, 53, 0
6, 199200, Note_on_c, 4, 76, 0
6, 199200, Note_on_c, 4, 82, 0
6, 199200, Note_on_c, 4, 82, 93
6, 199200, Note_on_c, 4, 75, 98
6, 199200, Note_on_c, 4, 72, 86
6, 199200, Note_on_c, 4, 41, 89
6, 199290, Note_on_c, 4, 41, 0
6, 199290, Note_on_c, 4, 41, 84
6, 199320, Note_on_c, 4, 41, 0
6, 199320, Note_on_c, 4, 82, 0
6, 199320, Note_on_c, 4, 81, 99
6, 199320, Note_on_c, 4, 57, 101
6, 199410, Note_on_c, 4, 57, 0
6, 199410, Note_on_c, 4, 57, 98
6, 199440, Note_on_c, 4, 57, 0
6, 199440, Note_on_c, 4, 81, 0
6, 199440, Note_on_c, 4, 75, 0
6, 199440, Note_on_c, 4, 80, 90
6, 199440, Note_on_c, 4, 77, 82
6, 199440, Note_on_c, 4, 72, 73
6, 199440, Note_on_c, 4, 60, 90
6, 199530, Note_on_c, 4, 60, 0
6, 199530, Note_on_c, 4, 60, 94
6, 199560, Note_on_c, 4, 60, 0
6, 199560, Note_on_c, 4, 72, 0
6, 199560, Note_on_c, 4, 72, 0
6, 199560, Note_on_c, 4, 71, 98
6, 199560, Note_on_c, 4, 50, 99
6, 199650, Note_on_c, 4, 50, 0
6, 199650, Note_on_c, 4, 50, 98
6, 199680, Note_on_c, 4, 50, 0
6, 199680, Note_on_c, 4, 71, 0
6, 199680, Note_on_c, 4, 77, 0
6, 199680, Note_on_c, 4, 80, 0
6, 199680, Note_on_c, 4, 79, 89
6, 199680, Note_on_c, 4, 74, 89
6, 199680, Note_on_c, 4, 71, 95
6, 199680, Note_on_c, 4, 68, 84
6, 199680, Note_on_c, 4, 53, 89
6, 199770, Note_on_c, 4, 53, 0
6, 199770, Note_on_c, 4, 53, 89
6, 199800, Note_on_c, 4, 53, 0
6, 199800, Note_on_c, 4, 79, 0
6, 199800, Note_on_c, 4, 77, 94
6, 199800, Note_on_c, 4, 56, 95
6, 199890, Note_on_c, 4, 56, 0
6, 199890, Note_on_c, 4, 56, 90
6, 199920, Note_on_c, 4, 56, 0
6, 199920, Note_on_c, 4, 77, 0
6, 199920, Note_on_c, 4, 68, 0
6, 199920, Note_on_c, 4, 71, 0
6, 199920, Note_on_c, 4, 74, 0
6, 199920, Note_on_c, 4, 75, 98
6, 199920, Note_on_c, 4, 71, 82
6, 199920, Note_on_c, 4, 68, 84
6, 199920, Note_on_c, 4, 65, 77
6, 199920, Note_on_c, 4, 47, 99
6, 200010, Note_on_c, 4, 47, 0
6, 200010, Note_on_c, 4, 47, 99
6, 200040, Note_on_c, 4, 47, 0
6, 200040, Note_on_c, 4, 75, 0
6, 200040, Note_on_c, 4, 74, 104
6, 200040, Note_on_c, 4, 50, 99
6, 200130, Note_on_c, 4, 50, 0
6, 200130, Note_on_c, 4, 50, 98
6, 200160, Note_on_c, 4, 50, 0
6, 200160, Note_on_c, 4, 74, 0
6, 200160, Note_on_c, 4, 65, 0
6, 200160, Note_on_c, 4, 68, 0
6, 200160, Note_on_c, 4, 71, 0
6, 200160, Note_on_c, 4, 74, 89
6, 200160, Note_on_c, 4, 71, 86
6, 200160, Note_on_c, 4, 67, 78
6, 200160, Note_on_c, 4, 65, 89
6, 200160, Note_on_c, 4, 43, 90
6, 200250, Note_on_c, 4, 43, 0
6, 200250, Note_on_c, 4, 43, 95
6, 200280, Note_on_c, 4, 43, 0
6, 200280, Note_on_c, 4, 65, 0
6, 200280, Note_on_c, 4, 74, 0
6, 200280, Note_on_c, 4, 71, 0
6, 200280, Note_on_c, 4, 67, 0
6, 200280, Note_on_c, 4, 75, 89
6, 200280, Note_on_c, 4, 72, 59
6, 200280, Note_on_c, 4, 67, 84
6, 200280, Note_on_c, 4, 63, 84
6, 200280, Note_on_c, 4, 48, 95
6, 200370, Note_on_c, 4, 48, 0
6, 200370, Note_on_c, 4, 48, 99
6, 200400, Note_on_c, 4, 48, 0
6, 200400, Note_on_c, 4, 63, 0
6, 200400, Note_on_c, 4, 75, 0
6, 200400, Note_on_c, 4, 72, 0
6, 200400, Note_on_c, 4, 67, 0
6, 200400, Note_on_c, 4, 75, 81
6, 200400, Note_on_c, 4, 72, 62
6, 200400, Note_on_c, 4, 69, 84
6, 200400, Note_on_c, 4, 63, 89
6, 200400, Note_on_c, 4, 41, 84
6, 200460, Note_on_c, 4, 41, 0
6, 200460, Note_on_c, 4, 69, 0
6, 200460, Note_on_c, 4, 75, 0
6, 200460, Note_on_c, 4, 72, 0
6, 200460, Note_on_c, 4, 63, 0
6, 200520, Note_on_c, 4, 81, 77
6, 200520, Note_on_c, 4, 75, 84
6, 200520, Note_on_c, 4, 72, 47
6, 200520, Note_on_c, 4, 69, 95
6, 200520, Note_on_c, 4, 41, 89
6, 200520, Note_on_c, 4, 29, 80
6, 200580, Note_on_c, 4, 29, 0
6, 200580, Note_on_c, 4, 41, 0
6, 200640, Note_on_c, 4, 72, 0
6, 200640, Note_on_c, 4, 81, 0
6, 200640, Note_on_c, 4, 75, 0
6, 200640, Note_on_c, 4, 69, 0
6, 200640, Note_on_c, 4, 84, 76
6, 200640, Note_on_c, 4, 81, 82
6, 200640, Note_on_c, 4, 75, 89
6, 200640, Note_on_c, 4, 72, 50
6, 200640, Note_on_c, 4, 41, 93
6, 200640, Note_on_c, 4, 29, 80
6, 200700, Note_on_c, 4, 29, 0
6, 200700, Note_on_c, 4, 41, 0
6, 200760, Note_on_c, 4, 75, 0
6, 200760, Note_on_c, 4, 84, 0
6, 200760, Note_on_c, 4, 81, 0
6, 200760, Note_on_c, 4, 72, 0
6, 200760, Note_on_c, 4, 69, 63
6, 200820, Note_on_c, 4, 69, 0
6, 200820, Note_on_c, 4, 70, 62
6, 200880, Note_on_c, 4, 70, 0
6, 200880, Note_on_c, 4, 72, 46
6, 200940, Note_on_c, 4, 72, 0
6, 200940, Note_on_c, 4, 74, 73
6, 201000, Note_on_c, 4, 74, 0
6, 201000, Note_on_c, 4, 75, 67
6, 201060, Note_on_c, 4, 75, 0
6, 201060, Note_on_c, 4, 72, 29
6, 201120, Note_on_c, 4, 72, 0
6, 201120, Note_on_c, 4, 69, 69
6, 201240, Note_on_c, 4, 65, 43
6, 201240, Note_on_c, 4, 63, 46
6, 201360, Note_on_c, 4, 63, 0
6, 201360, Note_on_c, 4, 65, 0
6, 201360, Note_on_c, 4, 65, 43
6, 201360, Note_on_c, 4, 63, 49
6, 201480, Note_on_c, 4, 63, 0
6, 201480, Note_on_c, 4, 65, 0
6, 201480, Note_on_c, 4, 65, 43
6, 201480, Note_on_c, 4, 63, 43
6, 201600, Note_on_c, 4, 63, 0
6, 201600, Note_on_c, 4, 65, 0
6, 201600, Note_on_c, 4, 69, 0
6, 201600, Note_on_c, 4, 70, 71
6, 201720, Note_on_c, 4, 65, 46
6, 201720, Note_on_c, 4, 62, 53
6, 201780, Note_on_c, 4, 70, 0
6, 201780, Note_on_c, 4, 72, 64
6, 201840, Note_on_c, 4, 72, 0
6, 201840, Note_on_c, 4, 62, 0
6, 201840, Note_on_c, 4, 65, 0
6, 201840, Note_on_c, 4, 74, 73
6, 201840, Note_on_c, 4, 65, 45
6, 201840, Note_on_c, 4, 62, 58
6, 201900, Note_on_c, 4, 74, 0
6, 201900, Note_on_c, 4, 75, 82
6, 201960, Note_on_c, 4, 75, 0
6, 201960, Note_on_c, 4, 62, 0
6, 201960, Note_on_c, 4, 65, 0
6, 201960, Note_on_c, 4, 77, 69
6, 201960, Note_on_c, 4, 65, 43
6, 201960, Note_on_c, 4, 62, 46
6, 202020, Note_on_c, 4, 77, 0
6, 202020, Note_on_c, 4, 74, 74
6, 202080, Note_on_c, 4, 74, 0
6, 202080, Note_on_c, 4, 62, 0
6, 202080, Note_on_c, 4, 65, 0
6, 202080, Note_on_c, 4, 70, 65
6, 202200, Note_on_c, 4, 70, 0
6, 202200, Note_on_c, 4, 82, 74
6, 202200, Note_on_c, 4, 58, 35
6, 202200, Note_on_c, 4, 53, 46
6, 202200, Note_on_c, 4, 50, 45
6, 202260, Note_on_c, 4, 82, 0
6, 202260, Note_on_c, 4, 81, 70
6, 202320, Note_on_c, 4, 81, 0
6, 202320, Note_on_c, 4, 50, 0
6, 202320, Note_on_c, 4, 53, 0
6, 202320, Note_on_c, 4, 58, 0
6, 202320, Note_on_c, 4, 84, 68
6, 202320, Note_on_c, 4, 58, 37
6, 202320, Note_on_c, 4, 53, 58
6, 202320, Note_on_c, 4, 50, 49
6, 202380, Note_on_c, 4, 84, 0
6, 202380, Note_on_c, 4, 82, 71
6, 202440, Note_on_c, 4, 82, 0
6, 202440, Note_on_c, 4, 50, 0
6, 202440, Note_on_c, 4, 53, 0
6, 202440, Note_on_c, 4, 58, 0
6, 202440, Note_on_c, 4, 77, 69
6, 202440, Note_on_c, 4, 58, 33
6, 202440, Note_on_c, 4, 53, 61
6, 202440, Note_on_c, 4, 50, 45
6, 202500, Note_on_c, 4, 77, 0
6, 202500, Note_on_c, 4, 74, 84
6, 202560, Note_on_c, 4, 74, 0
6, 202560, Note_on_c, 4, 50, 0
6, 202560, Note_on_c, 4, 53, 0
6, 202560, Note_on_c, 4, 58, 0
6, 202560, Note_on_c, 4, 72, 56
6, 202620, Note_on_c, 4, 72, 0
6, 202620, Note_on_c, 4, 74, 76
6, 202640, Note_on_c, 4, 74, 0
6, 202640, Note_on_c, 4, 72, 52
6, 202660, Note_on_c, 4, 72, 0
6, 202660, Note_on_c, 4, 71, 80
6, 202680, Note_on_c, 4, 71, 0
6, 202680, Note_on_c, 4, 72, 59
6, 202680, Note_on_c, 4, 60, 39
6, 202680, Note_on_c, 4, 55, 44
6, 202680, Note_on_c, 4, 51, 58
6, 202740, Note_on_c, 4, 72, 0
6, 202740, Note_on_c, 4, 74, 84
6, 202800, Note_on_c, 4, 74, 0
6, 202800, Note_on_c, 4, 51, 0
6, 202800, Note_on_c, 4, 55, 0
6, 202800, Note_on_c, 4, 60, 0
6, 202800, Note_on_c, 4, 75, 74
6, 202800, Note_on_c, 4, 60, 43
6, 202800, Note_on_c, 4, 55, 62
6, 202800, Note_on_c, 4, 51, 40
6, 202860, Note_on_c, 4, 75, 0
6, 202860, Note_on_c, 4, 77, 78
6, 202920, Note_on_c, 4, 77, 0
6, 202920, Note_on_c, 4, 51, 0
6, 202920, Note_on_c, 4, 55, 0
6, 202920, Note_on_c, 4, 60, 0
6, 202920, Note_on_c, 4, 79, 71
6, 202920, Note_on_c, 4, 60, 46
6, 202920, Note_on_c, 4, 55, 63
6, 202920, Note_on_c, 4, 51, 58
6, 202980, Note_on_c, 4, 79, 0
6, 202980, Note_on_c, 4, 77, 76
6, 203040, Note_on_c, 4, 77, 0
6, 203040, Note_on_c, 4, 51, 0
6, 203040, Note_on_c, 4, 55, 0
6, 203040, Note_on_c, 4, 60, 0
6, 203040, Note_on_c, 4, 75, 80
6, 203100, Note_on_c, 4, 75, 0
6, 203100, Note_on_c, 4, 74, 86
6, 203160, Note_on_c, 4, 74, 0
6, 203160, Note_on_c, 4, 75, 71
6, 203160, Note_on_c, 4, 72, 43
6, 203160, Note_on_c, 4, 63, 40
6, 203160, Note_on_c, 4, 60, 70
6, 203160, Note_on_c, 4, 53, 63
6, 203220, Note_on_c, 4, 72, 0
6, 203220, Note_on_c, 4, 75, 0
6, 203220, Note_on_c, 4, 76, 72
6, 203220, Note_on_c, 4, 70, 73
6, 203280, Note_on_c, 4, 70, 0
6, 203280, Note_on_c, 4, 60, 0
6, 203280, Note_on_c, 4, 53, 0
6, 203280, Note_on_c, 4, 63, 0
6, 203280, Note_on_c, 4, 76, 0
6, 203280, Note_on_c, 4, 77, 64
6, 203280, Note_on_c, 4, 69, 73
6, 203280, Note_on_c, 4, 63, 39
6, 203280, Note_on_c, 4, 60, 62
6, 203280, Note_on_c, 4, 53, 65
6, 203340, Note_on_c, 4, 69, 0
6, 203340, Note_on_c, 4, 77, 0
6, 203340, Note_on_c, 4, 77, 70
6, 203340, Note_on_c, 4, 67, 80
6, 203400, Note_on_c, 4, 67, 0
6, 203400, Note_on_c, 4, 60, 0
6, 203400, Note_on_c, 4, 53, 0
6, 203400, Note_on_c, 4, 63, 0
6, 203400, Note_on_c, 4, 77, 0
6, 203400, Note_on_c, 4, 79, 70
6, 203400, Note_on_c, 4, 65, 76
6, 203460, Note_on_c, 4, 65, 0
6, 203460, Note_on_c, 4, 79, 0
6, 203460, Note_on_c, 4, 81, 78
6, 203460, Note_on_c, 4, 63, 76
6, 203520, Note_on_c, 4, 63, 0
6, 203520, Note_on_c, 4, 81, 0
6, 203520, Note_on_c, 4, 82, 53
6, 203520, Note_on_c, 4, 70, 61
6, 203520, Note_on_c, 4, 46, 71
6, 203550, Note_on_c, 4, 46, 0
6, 203550, Note_on_c, 4, 58, 65
6, 203580, Note_on_c, 4, 58, 0
6, 203580, Note_on_c, 4, 61, 65
6, 203610, Note_on_c, 4, 61, 0
6, 203610, Note_on_c, 4, 58, 67
6, 203640, Note_on_c, 4, 58, 0
6, 203640, Note_on_c, 4, 61, 62
6, 203670, Note_on_c, 4, 61, 0
6, 203670, Note_on_c, 4, 58, 65
6, 203700, Note_on_c, 4, 58, 0
6, 203700, Note_on_c, 4, 70, 0
6, 203700, Note_on_c, 4, 82, 0
6, 203700, Note_on_c, 4, 84, 58
6, 203700, Note_on_c, 4, 72, 40
6, 203700, Note_on_c, 4, 61, 60
6, 203730, Note_on_c, 4, 61, 0
6, 203730, Note_on_c, 4, 58, 76
6, 203760, Note_on_c, 4, 58, 0
6, 203760, Note_on_c, 4, 72, 0
6, 203760, Note_on_c, 4, 84, 0
6, 203760, Note_on_c, 4, 85, 62
6, 203760, Note_on_c, 4, 73, 64
6, 203760, Note_on_c, 4, 46, 72
6, 203790, Note_on_c, 4, 46, 0
6, 203790, Note_on_c, 4, 58, 64
6, 203820, Note_on_c, 4, 58, 0
6, 203820, Note_on_c, 4, 73, 0
6, 203820, Note_on_c, 4, 85, 0
6, 203820, Note_on_c, 4, 87, 74
6, 203820, Note_on_c, 4, 75, 78
6, 203820, Note_on_c, 4, 61, 58
6, 203850, Note_on_c, 4, 61, 0
6, 203850, Note_on_c, 4, 58, 63
6, 203880, Note_on_c, 4, 58, 0
6, 203880, Note_on_c, 4, 75, 0
6, 203880, Note_on_c, 4, 87, 0
6, 203880, Note_on_c, 4, 89, 66
6, 203880, Note_on_c, 4, 77, 67
6, 203880, Note_on_c, 4, 61, 56
6, 203910, Note_on_c, 4, 61, 0
6, 203910, Note_on_c, 4, 58, 57
6, 203940, Note_on_c, 4, 58, 0
6, 203940, Note_on_c, 4, 77, 0
6, 203940, Note_on_c, 4, 89, 0
6, 203940, Note_on_c, 4, 85, 61
6, 203940, Note_on_c, 4, 73, 67
6, 203940, Note_on_c, 4, 61, 52
6, 203970, Note_on_c, 4, 61, 0
6, 203970, Note_on_c, 4, 58, 65
6, 204000, Note_on_c, 4, 58, 0
6, 204000, Note_on_c, 4, 73, 0
6, 204000, Note_on_c, 4, 85, 0
6, 204000, Note_on_c, 4, 82, 62
6, 204000, Note_on_c, 4, 70, 73
6, 204000, Note_on_c, 4, 46, 61
6, 204030, Note_on_c, 4, 46, 0
6, 204030, Note_on_c, 4, 58, 73
6, 204060, Note_on_c, 4, 58, 0
6, 204060, Note_on_c, 4, 61, 54
6, 204090, Note_on_c, 4, 61, 0
6, 204090, Note_on_c, 4, 58, 82
6, 204120, Note_on_c, 4, 58, 0
6, 204120, Note_on_c, 4, 70, 0
6, 204120, Note_on_c, 4, 82, 0
6, 204120, Note_on_c, 4, 46, 80
6, 204150, Note_on_c, 4, 46, 0
6, 204150, Note_on_c, 4, 58, 68
6, 204180, Note_on_c, 4, 58, 0
6, 204180, Note_on_c, 4, 48, 73
6, 204210, Note_on_c, 4, 48, 0
6, 204210, Note_on_c, 4, 58, 59
6, 204240, Note_on_c, 4, 58, 0
6, 204240, Note_on_c, 4, 49, 73
6, 204270, Note_on_c, 4, 49, 0
6, 204270, Note_on_c, 4, 58, 53
6, 204300, Note_on_c, 4, 58, 0
6, 204300, Note_on_c, 4, 51, 76
6, 204330, Note_on_c, 4, 51, 0
6, 204330, Note_on_c, 4, 58, 62
6, 204360, Note_on_c, 4, 58, 0
6, 204360, Note_on_c, 4, 53, 74
6, 204390, Note_on_c, 4, 53, 0
6, 204390, Note_on_c, 4, 58, 68
6, 204420, Note_on_c, 4, 58, 0
6, 204420, Note_on_c, 4, 49, 81
6, 204450, Note_on_c, 4, 49, 0
6, 204450, Note_on_c, 4, 58, 68
6, 204480, Note_on_c, 4, 58, 0
6, 204480, Note_on_c, 4, 84, 62
6, 204480, Note_on_c, 4, 72, 38
6, 204480, Note_on_c, 4, 51, 68
6, 204510, Note_on_c, 4, 51, 0
6, 204510, Note_on_c, 4, 58, 58
6, 204510, Note_on_c, 4, 54, 61
6, 204540, Note_on_c, 4, 54, 0
6, 204540, Note_on_c, 4, 58, 0
6, 204540, Note_on_c, 4, 60, 44
6, 204570, Note_on_c, 4, 60, 0
6, 204570, Note_on_c, 4, 58, 62
6, 204570, Note_on_c, 4, 54, 58
6, 204600, Note_on_c, 4, 54, 0
6, 204600, Note_on_c, 4, 58, 0
6, 204600, Note_on_c, 4, 60, 65
6, 204630, Note_on_c, 4, 60, 0
6, 204630, Note_on_c, 4, 58, 64
6, 204630, Note_on_c, 4, 54, 61
6, 204660, Note_on_c, 4, 54, 0
6, 204660, Note_on_c, 4, 84, 0
6, 204660, Note_on_c, 4, 72, 0
6, 204660, Note_on_c, 4, 58, 0
6, 204660, Note_on_c, 4, 85, 58
6, 204660, Note_on_c, 4, 73, 62
6, 204660, Note_on_c, 4, 60, 72
6, 204690, Note_on_c, 4, 60, 0
6, 204690, Note_on_c, 4, 58, 77
6, 204690, Note_on_c, 4, 54, 58
6, 204720, Note_on_c, 4, 54, 0
6, 204720, Note_on_c, 4, 85, 0
6, 204720, Note_on_c, 4, 73, 0
6, 204720, Note_on_c, 4, 58, 0
6, 204720, Note_on_c, 4, 87, 81
6, 204720, Note_on_c, 4, 75, 72
6, 204720, Note_on_c, 4, 51, 84
6, 204750, Note_on_c, 4, 51, 0
6, 204750, Note_on_c, 4, 58, 69
6, 204750, Note_on_c, 4, 54, 64
6, 204780, Note_on_c, 4, 54, 0
6, 204780, Note_on_c, 4, 87, 0
6, 204780, Note_on_c, 4, 75, 0
6, 204780, Note_on_c, 4, 58, 0
6, 204780, Note_on_c, 4, 89, 74
6, 204780, Note_on_c, 4, 77, 73
6, 204780, Note_on_c, 4, 60, 58
6, 204810, Note_on_c, 4, 60, 0
6, 204810, Note_on_c, 4, 58, 65
6, 204810, Note_on_c, 4, 54, 57
6, 204840, Note_on_c, 4, 54, 0
6, 204840, Note_on_c, 4, 89, 0
6, 204840, Note_on_c, 4, 77, 0
6, 204840, Note_on_c, 4, 58, 0
6, 204840, Note_on_c, 4, 90, 56
6, 204840, Note_on_c, 4, 78, 73
6, 204840, Note_on_c, 4, 60, 70
6, 204870, Note_on_c, 4, 60, 0
6, 204870, Note_on_c, 4, 58, 62
6, 204870, Note_on_c, 4, 54, 61
6, 204900, Note_on_c, 4, 54, 0
6, 204900, Note_on_c, 4, 90, 0
6, 204900, Note_on_c, 4, 78, 0
6, 204900, Note_on_c, 4, 58, 0
6, 204900, Note_on_c, 4, 87, 76
6, 204900, Note_on_c, 4, 75, 84
6, 204900, Note_on_c, 4, 60, 69
6, 204930, Note_on_c, 4, 60, 0
6, 204930, Note_on_c, 4, 58, 73
6, 204930, Note_on_c, 4, 54, 64
6, 204960, Note_on_c, 4, 54, 0
6, 204960, Note_on_c, 4, 87, 0
6, 204960, Note_on_c, 4, 75, 0
6, 204960, Note_on_c, 4, 58, 0
6, 204960, Note_on_c, 4, 84, 73
6, 204960, Note_on_c, 4, 72, 46
6, 204960, Note_on_c, 4, 51, 80
6, 204990, Note_on_c, 4, 51, 0
6, 204990, Note_on_c, 4, 58, 73
6, 205020, Note_on_c, 4, 58, 0
6, 205020, Note_on_c, 4, 63, 60
6, 205050, Note_on_c, 4, 63, 0
6, 205050, Note_on_c, 4, 58, 71
6, 205080, Note_on_c, 4, 58, 0
6, 205080, Note_on_c, 4, 72, 0
6, 205080, Note_on_c, 4, 84, 0
6, 205080, Note_on_c, 4, 51, 93
6, 205110, Note_on_c, 4, 51, 0
6, 205110, Note_on_c, 4, 63, 65
6, 205140, Note_on_c, 4, 63, 0
6, 205140, Note_on_c, 4, 53, 85
6, 205170, Note_on_c, 4, 53, 0
6, 205170, Note_on_c, 4, 63, 65
6, 205200, Note_on_c, 4, 63, 0
6, 205200, Note_on_c, 4, 54, 72
6, 205230, Note_on_c, 4, 54, 0
6, 205230, Note_on_c, 4, 63, 78
6, 205260, Note_on_c, 4, 63, 0
6, 205260, Note_on_c, 4, 56, 74
6, 205290, Note_on_c, 4, 56, 0
6, 205290, Note_on_c, 4, 63, 73
6, 205320, Note_on_c, 4, 63, 0
6, 205320, Note_on_c, 4, 58, 81
6, 205350, Note_on_c, 4, 58, 0
6, 205350, Note_on_c, 4, 63, 74
6, 205380, Note_on_c, 4, 63, 0
6, 205380, Note_on_c, 4, 54, 85
6, 205410, Note_on_c, 4, 54, 0
6, 205410, Note_on_c, 4, 63, 67
6, 205440, Note_on_c, 4, 63, 0
6, 205440, Note_on_c, 4, 72, 84
6, 205440, Note_on_c, 4, 51, 89
6, 205470, Note_on_c, 4, 51, 0
6, 205470, Note_on_c, 4, 58, 66
6, 205470, Note_on_c, 4, 54, 74
6, 205500, Note_on_c, 4, 54, 0
6, 205500, Note_on_c, 4, 58, 0
6, 205500, Note_on_c, 4, 60, 76
6, 205530, Note_on_c, 4, 60, 0
6, 205530, Note_on_c, 4, 58, 76
6, 205530, Note_on_c, 4, 54, 72
6, 205560, Note_on_c, 4, 54, 0
6, 205560, Note_on_c, 4, 58, 0
6, 205560, Note_on_c, 4, 60, 74
6, 205590, Note_on_c, 4, 60, 0
6, 205590, Note_on_c, 4, 58, 72
6, 205590, Note_on_c, 4, 54, 72
6, 205620, Note_on_c, 4, 54, 0
6, 205620, Note_on_c, 4, 58, 0
6, 205620, Note_on_c, 4, 72, 0
6, 205620, Note_on_c, 4, 73, 76
6, 205620, Note_on_c, 4, 60, 72
6, 205650, Note_on_c, 4, 60, 0
6, 205650, Note_on_c, 4, 58, 72
6, 205650, Note_on_c, 4, 54, 76
6, 205680, Note_on_c, 4, 54, 0
6, 205680, Note_on_c, 4, 58, 0
6, 205680, Note_on_c, 4, 73, 0
6, 205680, Note_on_c, 4, 75, 80
6, 205680, Note_on_c, 4, 51, 86
6, 205710, Note_on_c, 4, 51, 0
6, 205710, Note_on_c, 4, 58, 68
6, 205710, Note_on_c, 4, 54, 71
6, 205740, Note_on_c, 4, 54, 0
6, 205740, Note_on_c, 4, 58, 0
6, 205740, Note_on_c, 4, 75, 0
6, 205740, Note_on_c, 4, 77, 77
6, 205740, Note_on_c, 4, 60, 61
6, 205770, Note_on_c, 4, 60, 0
6, 205770, Note_on_c, 4, 58, 65
6, 205770, Note_on_c, 4, 54, 69
6, 205800, Note_on_c, 4, 54, 0
6, 205800, Note_on_c, 4, 58, 0
6, 205800, Note_on_c, 4, 77, 0
6, 205800, Note_on_c, 4, 78, 72
6, 205800, Note_on_c, 4, 60, 71
6, 205830, Note_on_c, 4, 60, 0
6, 205830, Note_on_c, 4, 58, 72
6, 205830, Note_on_c, 4, 54, 72
6, 205860, Note_on_c, 4, 54, 0
6, 205860, Note_on_c, 4, 58, 0
6, 205860, Note_on_c, 4, 78, 0
6, 205860, Note_on_c, 4, 75, 81
6, 205860, Note_on_c, 4, 60, 76
6, 205890, Note_on_c, 4, 60, 0
6, 205890, Note_on_c, 4, 58, 76
6, 205890, Note_on_c, 4, 54, 74
6, 205920, Note_on_c, 4, 54, 0
6, 205920, Note_on_c, 4, 58, 0
6, 205920, Note_on_c, 4, 75, 0
6, 205920, Note_on_c, 4, 73, 52
6, 205920, Note_on_c, 4, 61, 50
6, 205920, Note_on_c, 4, 58, 45
6, 205920, Note_on_c, 4, 55, 55
6, 205920, Note_on_c, 4, 52, 71
6, 205980, Note_on_c, 4, 52, 0
6, 205980, Note_on_c, 4, 58, 0
6, 205980, Note_on_c, 4, 73, 0
6, 205980, Note_on_c, 4, 61, 0
6, 205980, Note_on_c, 4, 55, 0
6, 205980, Note_on_c, 4, 82, 46
6, 206010, Note_on_c, 4, 82, 0
6, 206010, Note_on_c, 4, 84, 73
6, 206040, Note_on_c, 4, 84, 0
6, 206040, Note_on_c, 4, 85, 78
6, 206070, Note_on_c, 4, 85, 0
6, 206070, Note_on_c, 4, 87, 84
6, 206100, Note_on_c, 4, 87, 0
6, 206100, Note_on_c, 4, 88, 64
6, 206130, Note_on_c, 4, 88, 0
6, 206130, Note_on_c, 4, 85, 77
6, 206160, Note_on_c, 4, 85, 0
6, 206160, Note_on_c, 4, 82, 65
6, 206220, Note_on_c, 4, 82, 0
6, 206220, Note_on_c, 4, 70, 71
6, 206250, Note_on_c, 4, 70, 0
6, 206250, Note_on_c, 4, 72, 65
6, 206280, Note_on_c, 4, 72, 0
6, 206280, Note_on_c, 4, 73, 69
6, 206310, Note_on_c, 4, 73, 0
6, 206310, Note_on_c, 4, 75, 77
6, 206340, Note_on_c, 4, 75, 0
6, 206340, Note_on_c, 4, 76, 58
6, 206370, Note_on_c, 4, 76, 0
6, 206370, Note_on_c, 4, 73, 76
6, 206400, Note_on_c, 4, 73, 0
6, 206400, Note_on_c, 4, 70, 76
6, 206460, Note_on_c, 4, 70, 0
6, 206460, Note_on_c, 4, 58, 68
6, 206490, Note_on_c, 4, 58, 0
6, 206490, Note_on_c, 4, 60, 74
6, 206520, Note_on_c, 4, 60, 0
6, 206520, Note_on_c, 4, 61, 78
6, 206550, Note_on_c, 4, 61, 0
6, 206550, Note_on_c, 4, 63, 80
6, 206580, Note_on_c, 4, 63, 0
6, 206580, Note_on_c, 4, 64, 86
6, 206610, Note_on_c, 4, 64, 0
6, 206610, Note_on_c, 4, 61, 73
6, 206640, Note_on_c, 4, 61, 0
6, 206640, Note_on_c, 4, 58, 71
6, 206700, Note_on_c, 4, 58, 0
6, 206700, Note_on_c, 4, 55, 72
6, 206730, Note_on_c, 4, 55, 0
6, 206730, Note_on_c, 4, 57, 84
6, 206760, Note_on_c, 4, 57, 0
6, 206760, Note_on_c, 4, 58, 72
6, 206790, Note_on_c, 4, 58, 0
6, 206790, Note_on_c, 4, 60, 69
6, 206820, Note_on_c, 4, 60, 0
6, 206820, Note_on_c, 4, 61, 69
6, 206850, Note_on_c, 4, 61, 0
6, 206850, Note_on_c, 4, 58, 73
6, 206880, Note_on_c, 4, 58, 0
6, 206880, Note_on_c, 4, 60, 80
6, 206940, Note_on_c, 4, 60, 0
6, 206940, Note_on_c, 4, 93, 67
6, 206970, Note_on_c, 4, 93, 0
6, 206970, Note_on_c, 4, 94, 72
6, 207000, Note_on_c, 4, 94, 0
6, 207000, Note_on_c, 4, 96, 71
6, 207030, Note_on_c, 4, 96, 0
6, 207030, Note_on_c, 4, 97, 74
6, 207060, Note_on_c, 4, 97, 0
6, 207060, Note_on_c, 4, 99, 80
6, 207090, Note_on_c, 4, 99, 0
6, 207090, Note_on_c, 4, 96, 80
6, 207120, Note_on_c, 4, 96, 0
6, 207120, Note_on_c, 4, 93, 77
6, 207180, Note_on_c, 4, 93, 0
6, 207180, Note_on_c, 4, 81, 61
6, 207180, Note_on_c, 4, 75, 73
6, 207210, Note_on_c, 4, 75, 0
6, 207210, Note_on_c, 4, 81, 0
6, 207210, Note_on_c, 4, 82, 68
6, 207210, Note_on_c, 4, 73, 73
6, 207240, Note_on_c, 4, 73, 0
6, 207240, Note_on_c, 4, 82, 0
6, 207240, Note_on_c, 4, 84, 68
6, 207240, Note_on_c, 4, 72, 33
6, 207270, Note_on_c, 4, 72, 0
6, 207270, Note_on_c, 4, 84, 0
6, 207270, Note_on_c, 4, 85, 65
6, 207270, Note_on_c, 4, 70, 72
6, 207300, Note_on_c, 4, 70, 0
6, 207300, Note_on_c, 4, 85, 0
6, 207300, Note_on_c, 4, 87, 82
6, 207300, Note_on_c, 4, 69, 73
6, 207330, Note_on_c, 4, 69, 0
6, 207330, Note_on_c, 4, 87, 0
6, 207330, Note_on_c, 4, 84, 69
6, 207330, Note_on_c, 4, 72, 61
6, 207360, Note_on_c, 4, 72, 0
6, 207360, Note_on_c, 4, 84, 0
6, 207360, Note_on_c, 4, 81, 72
6, 207360, Note_on_c, 4, 75, 77
6, 207420, Note_on_c, 4, 75, 0
6, 207420, Note_on_c, 4, 81, 0
6, 207420, Note_on_c, 4, 69, 65
6, 207420, Note_on_c, 4, 63, 71
6, 207450, Note_on_c, 4, 63, 0
6, 207450, Note_on_c, 4, 69, 0
6, 207450, Note_on_c, 4, 70, 81
6, 207450, Note_on_c, 4, 61, 74
6, 207480, Note_on_c, 4, 61, 0
6, 207480, Note_on_c, 4, 70, 0
6, 207480, Note_on_c, 4, 72, 53
6, 207480, Note_on_c, 4, 60, 85
6, 207510, Note_on_c, 4, 60, 0
6, 207510, Note_on_c, 4, 72, 0
6, 207510, Note_on_c, 4, 73, 68
6, 207510, Note_on_c, 4, 58, 76
6, 207540, Note_on_c, 4, 58, 0
6, 207540, Note_on_c, 4, 73, 0
6, 207540, Note_on_c, 4, 75, 90
6, 207540, Note_on_c, 4, 57, 82
6, 207570, Note_on_c, 4, 57, 0
6, 207570, Note_on_c, 4, 75, 0
6, 207570, Note_on_c, 4, 72, 45
6, 207570, Note_on_c, 4, 60, 65
6, 207600, Note_on_c, 4, 60, 0
6, 207600, Note_on_c, 4, 72, 0
6, 207600, Note_on_c, 4, 69, 76
6, 207600, Note_on_c, 4, 63, 73
6, 207660, Note_on_c, 4, 63, 0
6, 207660, Note_on_c, 4, 69, 0
6, 207660, Note_on_c, 4, 57, 77
6, 207660, Note_on_c, 4, 51, 78
6, 207690, Note_on_c, 4, 51, 0
6, 207690, Note_on_c, 4, 57, 0
6, 207690, Note_on_c, 4, 58, 72
6, 207690, Note_on_c, 4, 49, 76
6, 207720, Note_on_c, 4, 49, 0
6, 207720, Note_on_c, 4, 58, 0
6, 207720, Note_on_c, 4, 60, 62
6, 207720, Note_on_c, 4, 48, 82
6, 207750, Note_on_c, 4, 48, 0
6, 207750, Note_on_c, 4, 60, 0
6, 207750, Note_on_c, 4, 61, 76
6, 207750, Note_on_c, 4, 46, 78
6, 207780, Note_on_c, 4, 46, 0
6, 207780, Note_on_c, 4, 61, 0
6, 207780, Note_on_c, 4, 63, 81
6, 207780, Note_on_c, 4, 45, 82
6, 207810, Note_on_c, 4, 45, 0
6, 207810, Note_on_c, 4, 63, 0
6, 207810, Note_on_c, 4, 60, 74
6, 207810, Note_on_c, 4, 48, 80
6, 207840, Note_on_c, 4, 48, 0
6, 207840, Note_on_c, 4, 60, 0
6, 207840, Note_on_c, 4, 57, 84
6, 207840, Note_on_c, 4, 51, 77
6, 207900, Note_on_c, 4, 51, 0
6, 207900, Note_on_c, 4, 57, 0
6, 207900, Note_on_c, 4, 57, 85
6, 207900, Note_on_c, 4, 51, 80
6, 207930, Note_on_c, 4, 51, 0
6, 207930, Note_on_c, 4, 57, 0
6, 207930, Note_on_c, 4, 58, 73
6, 207930, Note_on_c, 4, 50, 77
6, 207960, Note_on_c, 4, 50, 0
6, 207960, Note_on_c, 4, 58, 0
6, 207960, Note_on_c, 4, 60, 73
6, 207960, Note_on_c, 4, 48, 76
6, 207990, Note_on_c, 4, 48, 0
6, 207990, Note_on_c, 4, 60, 0
6, 207990, Note_on_c, 4, 62, 71
6, 207990, Note_on_c, 4, 46, 81
6, 208020, Note_on_c, 4, 46, 0
6, 208020, Note_on_c, 4, 62, 0
6, 208020, Note_on_c, 4, 63, 84
6, 208020, Note_on_c, 4, 45, 82
6, 208050, Note_on_c, 4, 45, 0
6, 208050, Note_on_c, 4, 63, 0
6, 208050, Note_on_c, 4, 60, 76
6, 208050, Note_on_c, 4, 48, 85
6, 208080, Note_on_c, 4, 48, 0
6, 208080, Note_on_c, 4, 60, 0
6, 208080, Note_on_c, 4, 57, 84
6, 208080, Note_on_c, 4, 51, 73
6, 208110, Note_on_c, 4, 51, 0
6, 208110, Note_on_c, 4, 57, 0
6, 208110, Note_on_c, 4, 58, 73
6, 208110, Note_on_c, 4, 50, 93
6, 208140, Note_on_c, 4, 50, 0
6, 208140, Note_on_c, 4, 58, 0
6, 208140, Note_on_c, 4, 60, 76
6, 208140, Note_on_c, 4, 48, 89
6, 208170, Note_on_c, 4, 48, 0
6, 208170, Note_on_c, 4, 60, 0
6, 208170, Note_on_c, 4, 62, 76
6, 208170, Note_on_c, 4, 46, 80
6, 208200, Note_on_c, 4, 46, 0
6, 208200, Note_on_c, 4, 62, 0
6, 208200, Note_on_c, 4, 63, 74
6, 208200, Note_on_c, 4, 45, 81
6, 208230, Note_on_c, 4, 45, 0
6, 208230, Note_on_c, 4, 63, 0
6, 208230, Note_on_c, 4, 60, 80
6, 208230, Note_on_c, 4, 48, 73
6, 208260, Note_on_c, 4, 48, 0
6, 208260, Note_on_c, 4, 60, 0
6, 208260, Note_on_c, 4, 57, 85
6, 208260, Note_on_c, 4, 51, 76
6, 208290, Note_on_c, 4, 51, 0
6, 208290, Note_on_c, 4, 57, 0
6, 208290, Note_on_c, 4, 58, 80
6, 208290, Note_on_c, 4, 50, 93
6, 208320, Note_on_c, 4, 50, 0
6, 208320, Note_on_c, 4, 58, 0
6, 208320, Note_on_c, 4, 57, 72
6, 208320, Note_on_c, 4, 51, 76
6, 208350, Note_on_c, 4, 51, 0
6, 208350, Note_on_c, 4, 57, 0
6, 208350, Note_on_c, 4, 58, 74
6, 208350, Note_on_c, 4, 50, 90
6, 208380, Note_on_c, 4, 50, 0
6, 208380, Note_on_c, 4, 58, 0
6, 208380, Note_on_c, 4, 60, 72
6, 208380, Note_on_c, 4, 48, 80
6, 208410, Note_on_c, 4, 48, 0
6, 208410, Note_on_c, 4, 60, 0
6, 208410, Note_on_c, 4, 62, 80
6, 208410, Note_on_c, 4, 46, 78
6, 208440, Note_on_c, 4, 46, 0
6, 208440, Note_on_c, 4, 62, 0
6, 208440, Note_on_c, 4, 63, 78
6, 208440, Note_on_c, 4, 45, 82
6, 208470, Note_on_c, 4, 45, 0
6, 208470, Note_on_c, 4, 63, 0
6, 208470, Note_on_c, 4, 60, 80
6, 208470, Note_on_c, 4, 48, 73
6, 208500, Note_on_c, 4, 48, 0
6, 208500, Note_on_c, 4, 60, 0
6, 208500, Note_on_c, 4, 57, 84
6, 208500, Note_on_c, 4, 51, 74
6, 208530, Note_on_c, 4, 51, 0
6, 208530, Note_on_c, 4, 57, 0
6, 208530, Note_on_c, 4, 58, 73
6, 208530, Note_on_c, 4, 50, 86
6, 208560, Note_on_c, 4, 50, 0
6, 208560, Note_on_c, 4, 58, 0
6, 208560, Note_on_c, 4, 59, 72
6, 208560, Note_on_c, 4, 53, 67
6, 208590, Note_on_c, 4, 53, 0
6, 208590, Note_on_c, 4, 59, 0
6, 208590, Note_on_c, 4, 60, 70
6, 208590, Note_on_c, 4, 51, 77
6, 208620, Note_on_c, 4, 51, 0
6, 208620, Note_on_c, 4, 60, 0
6, 208620, Note_on_c, 4, 62, 78
6, 208620, Note_on_c, 4, 50, 93
6, 208650, Note_on_c, 4, 50, 0
6, 208650, Note_on_c, 4, 62, 0
6, 208650, Note_on_c, 4, 63, 80
6, 208650, Note_on_c, 4, 48, 78
6, 208680, Note_on_c, 4, 48, 0
6, 208680, Note_on_c, 4, 63, 0
6, 208680, Note_on_c, 4, 65, 89
6, 208680, Note_on_c, 4, 47, 81
6, 208710, Note_on_c, 4, 47, 0
6, 208710, Note_on_c, 4, 65, 0
6, 208710, Note_on_c, 4, 62, 80
6, 208710, Note_on_c, 4, 50, 86
6, 208740, Note_on_c, 4, 50, 0
6, 208740, Note_on_c, 4, 62, 0
6, 208740, Note_on_c, 4, 59, 73
6, 208740, Note_on_c, 4, 53, 68
6, 208770, Note_on_c, 4, 53, 0
6, 208770, Note_on_c, 4, 59, 0
6, 208770, Note_on_c, 4, 60, 80
6, 208770, Note_on_c, 4, 51, 84
6, 208800, Note_on_c, 4, 51, 0
6, 208800, Note_on_c, 4, 60, 0
6, 208800, Note_on_c, 4, 62, 76
6, 208800, Note_on_c, 4, 56, 73
6, 208830, Note_on_c, 4, 56, 0
6, 208830, Note_on_c, 4, 62, 0
6, 208830, Note_on_c, 4, 63, 76
6, 208830, Note_on_c, 4, 55, 80
6, 208860, Note_on_c, 4, 55, 0
6, 208860, Note_on_c, 4, 63, 0
6, 208860, Note_on_c, 4, 65, 80
6, 208860, Note_on_c, 4, 53, 78
6, 208890, Note_on_c, 4, 53, 0
6, 208890, Note_on_c, 4, 65, 0
6, 208890, Note_on_c, 4, 67, 74
6, 208890, Note_on_c, 4, 51, 81
6, 208920, Note_on_c, 4, 51, 0
6, 208920, Note_on_c, 4, 67, 0
6, 208920, Note_on_c, 4, 68, 82
6, 208920, Note_on_c, 4, 50, 90
6, 208950, Note_on_c, 4, 50, 0
6, 208950, Note_on_c, 4, 68, 0
6, 208950, Note_on_c, 4, 65, 94
6, 208950, Note_on_c, 4, 53, 74
6, 208980, Note_on_c, 4, 53, 0
6, 208980, Note_on_c, 4, 65, 0
6, 208980, Note_on_c, 4, 62, 81
6, 208980, Note_on_c, 4, 56, 74
6, 209010, Note_on_c, 4, 56, 0
6, 209010, Note_on_c, 4, 62, 0
6, 209010, Note_on_c, 4, 63, 85
6, 209010, Note_on_c, 4, 55, 84
6, 209040, Note_on_c, 4, 55, 0
6, 209040, Note_on_c, 4, 63, 0
6, 209040, Note_on_c, 4, 66, 71
6, 209040, Note_on_c, 4, 60, 73
6, 209070, Note_on_c, 4, 60, 0
6, 209070, Note_on_c, 4, 66, 0
6, 209070, Note_on_c, 4, 67, 85
6, 209070, Note_on_c, 4, 58, 81
6, 209100, Note_on_c, 4, 58, 0
6, 209100, Note_on_c, 4, 67, 0
6, 209100, Note_on_c, 4, 69, 93
6, 209100, Note_on_c, 4, 57, 94
6, 209130, Note_on_c, 4, 57, 0
6, 209130, Note_on_c, 4, 69, 0
6, 209130, Note_on_c, 4, 70, 90
6, 209130, Note_on_c, 4, 55, 85
6, 209160, Note_on_c, 4, 55, 0
6, 209160, Note_on_c, 4, 70, 0
6, 209160, Note_on_c, 4, 72, 31
6, 209160, Note_on_c, 4, 54, 80
6, 209190, Note_on_c, 4, 54, 0
6, 209190, Note_on_c, 4, 72, 0
6, 209190, Note_on_c, 4, 69, 94
6, 209190, Note_on_c, 4, 57, 89
6, 209220, Note_on_c, 4, 57, 0
6, 209220, Note_on_c, 4, 69, 0
6, 209220, Note_on_c, 4, 66, 73
6, 209220, Note_on_c, 4, 60, 64
6, 209250, Note_on_c, 4, 60, 0
6, 209250, Note_on_c, 4, 66, 0
6, 209250, Note_on_c, 4, 67, 89
6, 209250, Note_on_c, 4, 58, 80
6, 209280, Note_on_c, 4, 58, 0
6, 209280, Note_on_c, 4, 67, 0
6, 209280, Note_on_c, 4, 69, 80
6, 209280, Note_on_c, 4, 63, 84
6, 209310, Note_on_c, 4, 63, 0
6, 209310, Note_on_c, 4, 69, 0
6, 209310, Note_on_c, 4, 70, 90
6, 209310, Note_on_c, 4, 62, 80
6, 209340, Note_on_c, 4, 62, 0
6, 209340, Note_on_c, 4, 70, 0
6, 209340, Note_on_c, 4, 72, 67
6, 209340, Note_on_c, 4, 60, 84
6, 209370, Note_on_c, 4, 60, 0
6, 209370, Note_on_c, 4, 72, 0
6, 209370, Note_on_c, 4, 74, 95
6, 209370, Note_on_c, 4, 58, 84
6, 209400, Note_on_c, 4, 58, 0
6, 209400, Note_on_c, 4, 74, 0
6, 209400, Note_on_c, 4, 75, 99
6, 209400, Note_on_c, 4, 57, 101
6, 209430, Note_on_c, 4, 57, 0
6, 209430, Note_on_c, 4, 75, 0
6, 209430, Note_on_c, 4, 72, 89
6, 209430, Note_on_c, 4, 60, 84
6, 209460, Note_on_c, 4, 60, 0
6, 209460, Note_on_c, 4, 72, 0
6, 209460, Note_on_c, 4, 69, 90
6, 209460, Note_on_c, 4, 63, 86
6, 209490, Note_on_c, 4, 63, 0
6, 209490, Note_on_c, 4, 69, 0
6, 209490, Note_on_c, 4, 70, 93
6, 209490, Note_on_c, 4, 62, 89
6, 209520, Note_on_c, 4, 62, 0
6, 209520, Note_on_c, 4, 70, 0
6, 209520, Note_on_c, 4, 69, 86
6, 209520, Note_on_c, 4, 63, 89
6, 209550, Note_on_c, 4, 63, 0
6, 209550, Note_on_c, 4, 69, 0
6, 209550, Note_on_c, 4, 70, 89
6, 209550, Note_on_c, 4, 62, 94
6, 209580, Note_on_c, 4, 62, 0
6, 209580, Note_on_c, 4, 70, 0
6, 209580, Note_on_c, 4, 72, 72
6, 209580, Note_on_c, 4, 60, 89
6, 209610, Note_on_c, 4, 60, 0
6, 209610, Note_on_c, 4, 72, 0
6, 209610, Note_on_c, 4, 74, 94
6, 209610, Note_on_c, 4, 58, 80
6, 209640, Note_on_c, 4, 58, 0
6, 209640, Note_on_c, 4, 74, 0
6, 209640, Note_on_c, 4, 75, 99
6, 209640, Note_on_c, 4, 57, 99
6, 209670, Note_on_c, 4, 57, 0
6, 209670, Note_on_c, 4, 75, 0
6, 209670, Note_on_c, 4, 72, 89
6, 209670, Note_on_c, 4, 60, 93
6, 209700, Note_on_c, 4, 60, 0
6, 209700, Note_on_c, 4, 72, 0
6, 209700, Note_on_c, 4, 69, 89
6, 209700, Note_on_c, 4, 63, 90
6, 209730, Note_on_c, 4, 63, 0
6, 209730, Note_on_c, 4, 69, 0
6, 209730, Note_on_c, 4, 70, 94
6, 209730, Note_on_c, 4, 62, 89
6, 209760, Note_on_c, 4, 62, 0
6, 209760, Note_on_c, 4, 70, 0
6, 209760, Note_on_c, 4, 69, 90
6, 209760, Note_on_c, 4, 63, 80
6, 209790, Note_on_c, 4, 63, 0
6, 209790, Note_on_c, 4, 69, 0
6, 209790, Note_on_c, 4, 70, 93
6, 209790, Note_on_c, 4, 62, 94
6, 209820, Note_on_c, 4, 62, 0
6, 209820, Note_on_c, 4, 70, 0
6, 209820, Note_on_c, 4, 72, 78
6, 209820, Note_on_c, 4, 60, 89
6, 209850, Note_on_c, 4, 60, 0
6, 209850, Note_on_c, 4, 72, 0
6, 209850, Note_on_c, 4, 74, 95
6, 209850, Note_on_c, 4, 58, 89
6, 209880, Note_on_c, 4, 58, 0
6, 209880, Note_on_c, 4, 74, 0
6, 209880, Note_on_c, 4, 75, 85
6, 209880, Note_on_c, 4, 57, 90
6, 209910, Note_on_c, 4, 57, 0
6, 209910, Note_on_c, 4, 75, 0
6, 209910, Note_on_c, 4, 77, 94
6, 209910, Note_on_c, 4, 55, 89
6, 209940, Note_on_c, 4, 55, 0
6, 209940, Note_on_c, 4, 77, 0
6, 209940, Note_on_c, 4, 79, 99
6, 209940, Note_on_c, 4, 54, 81
6, 209970, Note_on_c, 4, 54, 0
6, 209970, Note_on_c, 4, 79, 0
6, 209970, Note_on_c, 4, 80, 95
6, 209970, Note_on_c, 4, 52, 99
6, 210000, Note_on_c, 4, 52, 0
6, 210000, Note_on_c, 4, 80, 0
6, 210000, Note_on_c, 4, 82, 93
6, 210000, Note_on_c, 4, 50, 95
6, 210030, Note_on_c, 4, 50, 0
6, 210030, Note_on_c, 4, 82, 0
6, 210030, Note_on_c, 4, 84, 99
6, 210030, Note_on_c, 4, 48, 93
6, 210060, Note_on_c, 4, 48, 0
6, 210060, Note_on_c, 4, 84, 0
6, 210060, Note_on_c, 4, 86, 104
6, 210060, Note_on_c, 4, 46, 93
6, 210090, Note_on_c, 4, 46, 0
6, 210090, Note_on_c, 4, 86, 0
6, 210090, Note_on_c, 4, 87, 98
6, 210090, Note_on_c, 4, 45, 99
6, 210120, Note_on_c, 4, 45, 0
6, 210120, Note_on_c, 4, 87, 0
6, 210120, Note_on_c, 4, 89, 99
6, 210120, Note_on_c, 4, 43, 98
6, 210150, Note_on_c, 4, 43, 0
6, 210150, Note_on_c, 4, 89, 0
6, 210150, Note_on_c, 4, 91, 101
6, 210150, Note_on_c, 4, 41, 94
6, 210180, Note_on_c, 4, 41, 0
6, 210180, Note_on_c, 4, 91, 0
6, 210180, Note_on_c, 4, 92, 101
6, 210180, Note_on_c, 4, 39, 98
6, 210210, Note_on_c, 4, 39, 0
6, 210210, Note_on_c, 4, 92, 0
6, 210210, Note_on_c, 4, 94, 94
6, 210210, Note_on_c, 4, 38, 107
6, 210240, Note_on_c, 4, 38, 0
6, 210240, Note_on_c, 4, 94, 0
6, 210240, Note_on_c, 4, 91, 104
6, 210240, Note_on_c, 4, 51, 115
6, 210240, Note_on_c, 4, 39, 115
6, 210270, Note_on_c, 4, 91, 0
6, 210270, Note_on_c, 4, 87, 105
6, 210300, Note_on_c, 4, 87, 0
6, 210300, Note_on_c, 4, 86, 110
6, 210330, Note_on_c, 4, 86, 0
6, 210330, Note_on_c, 4, 84, 95
6, 210360, Note_on_c, 4, 84, 0
6, 210360, Note_on_c, 4, 82, 104
6, 210390, Note_on_c, 4, 82, 0
6, 210390, Note_on_c, 4, 80, 101
6, 210420, Note_on_c, 4, 80, 0
6, 210420, Note_on_c, 4, 39, 0
6, 210420, Note_on_c, 4, 51, 0
6, 210420, Note_on_c, 4, 79, 99
6, 210450, Note_on_c, 4, 79, 0
6, 210450, Note_on_c, 4, 77, 110
6, 210450, Note_on_c, 4, 51, 105
6, 210480, Note_on_c, 4, 51, 0
6, 210480, Note_on_c, 4, 77, 0
6, 210480, Note_on_c, 4, 75, 105
6, 210480, Note_on_c, 4, 58, 101
6, 210520, Note_on_c, 4, 75, 0
6, 210520, Note_on_c, 4, 74, 107
6, 210560, Note_on_c, 4, 74, 0
6, 210560, Note_on_c, 4, 72, 95
6, 210570, Note_on_c, 4, 58, 0
6, 210570, Note_on_c, 4, 58, 99
6, 210600, Note_on_c, 4, 58, 0
6, 210600, Note_on_c, 4, 72, 0
6, 210600, Note_on_c, 4, 70, 104
6, 210600, Note_on_c, 4, 55, 107
6, 210630, Note_on_c, 4, 70, 0
6, 210630, Note_on_c, 4, 68, 104
6, 210660, Note_on_c, 4, 68, 0
6, 210660, Note_on_c, 4, 67, 99
6, 210690, Note_on_c, 4, 67, 0
6, 210690, Note_on_c, 4, 55, 0
6, 210690, Note_on_c, 4, 65, 105
6, 210690, Note_on_c, 4, 55, 105
6, 210720, Note_on_c, 4, 55, 0
6, 210720, Note_on_c, 4, 65, 0
6, 210720, Note_on_c, 4, 63, 104
6, 210720, Note_on_c, 4, 63, 104
6, 210780, Note_on_c, 4, 63, 0
6, 210900, Note_on_c, 4, 63, 0
6, 210900, Note_on_c, 4, 62, 68
6, 210960, Note_on_c, 4, 62, 0
6, 210960, Note_on_c, 4, 60, 46
6, 211050, Note_on_c, 4, 60, 0
6, 211050, Note_on_c, 4, 58, 72
6, 211080, Note_on_c, 4, 58, 0
6, 211080, Note_on_c, 4, 56, 65
6, 211170, Note_on_c, 4, 56, 0
6, 211170, Note_on_c, 4, 55, 76
6, 211200, Note_on_c, 4, 55, 0
6, 211200, Note_on_c, 4, 84, 43
6, 211200, Note_on_c, 4, 80, 50
6, 211200, Note_on_c, 4, 53, 68
6, 211290, Note_on_c, 4, 53, 0
6, 211290, Note_on_c, 4, 52, 73
6, 211320, Note_on_c, 4, 52, 0
6, 211320, Note_on_c, 4, 53, 68
6, 211380, Note_on_c, 4, 80, 0
6, 211380, Note_on_c, 4, 84, 0
6, 211410, Note_on_c, 4, 53, 0
6, 211410, Note_on_c, 4, 82, 55
6, 211410, Note_on_c, 4, 79, 52
6, 211410, Note_on_c, 4, 55, 73
6, 211440, Note_on_c, 4, 55, 0
6, 211440, Note_on_c, 4, 79, 0
6, 211440, Note_on_c, 4, 82, 0
6, 211440, Note_on_c, 4, 80, 47
6, 211440, Note_on_c, 4, 77, 53
6, 211440, Note_on_c, 4, 56, 72
6, 211530, Note_on_c, 4, 77, 0
6, 211530, Note_on_c, 4, 80, 0
6, 211530, Note_on_c, 4, 79, 49
6, 211530, Note_on_c, 4, 75, 70
6, 211560, Note_on_c, 4, 75, 0
6, 211560, Note_on_c, 4, 79, 0
6, 211560, Note_on_c, 4, 56, 0
6, 211560, Note_on_c, 4, 77, 57
6, 211560, Note_on_c, 4, 74, 54
6, 211650, Note_on_c, 4, 74, 0
6, 211650, Note_on_c, 4, 77, 0
6, 211650, Note_on_c, 4, 75, 68
6, 211680, Note_on_c, 4, 75, 0
6, 211680, Note_on_c, 4, 74, 57
6, 211680, Note_on_c, 4, 70, 47
6, 211680, Note_on_c, 4, 65, 52
6, 211680, Note_on_c, 4, 62, 62
6, 211770, Note_on_c, 4, 70, 0
6, 211770, Note_on_c, 4, 74, 0
6, 211770, Note_on_c, 4, 72, 70
6, 211770, Note_on_c, 4, 69, 72
6, 211800, Note_on_c, 4, 69, 0
6, 211800, Note_on_c, 4, 72, 0
6, 211800, Note_on_c, 4, 74, 50
6, 211800, Note_on_c, 4, 70, 61
6, 211860, Note_on_c, 4, 65, 0
6, 211860, Note_on_c, 4, 62, 0
6, 211890, Note_on_c, 4, 74, 0
6, 211890, Note_on_c, 4, 70, 0
6, 211890, Note_on_c, 4, 75, 65
6, 211890, Note_on_c, 4, 63, 69
6, 211890, Note_on_c, 4, 60, 54
6, 211920, Note_on_c, 4, 60, 0
6, 211920, Note_on_c, 4, 63, 0
6, 211920, Note_on_c, 4, 75, 0
6, 211920, Note_on_c, 4, 77, 44
6, 211920, Note_on_c, 4, 74, 73
6, 211920, Note_on_c, 4, 62, 46
6, 211920, Note_on_c, 4, 58, 64
6, 212010, Note_on_c, 4, 58, 0
6, 212010, Note_on_c, 4, 62, 0
6, 212010, Note_on_c, 4, 60, 61
6, 212010, Note_on_c, 4, 56, 59
6, 212040, Note_on_c, 4, 56, 0
6, 212040, Note_on_c, 4, 77, 0
6, 212040, Note_on_c, 4, 74, 0
6, 212040, Note_on_c, 4, 60, 0
6, 212040, Note_on_c, 4, 58, 53
6, 212040, Note_on_c, 4, 55, 65
6, 212130, Note_on_c, 4, 55, 0
6, 212130, Note_on_c, 4, 58, 0
6, 212130, Note_on_c, 4, 57, 68
6, 212130, Note_on_c, 4, 53, 64
6, 212160, Note_on_c, 4, 53, 0
6, 212160, Note_on_c, 4, 57, 0
6, 212160, Note_on_c, 4, 79, 69
6, 212160, Note_on_c, 4, 79, 64
6, 212160, Note_on_c, 4, 51, 74
6, 212250, Note_on_c, 4, 51, 0
6, 212250, Note_on_c, 4, 79, 0
6, 212250, Note_on_c, 4, 77, 66
6, 212250, Note_on_c, 4, 50, 76
6, 212280, Note_on_c, 4, 50, 0
6, 212280, Note_on_c, 4, 77, 0
6, 212280, Note_on_c, 4, 75, 78
6, 212280, Note_on_c, 4, 48, 65
6, 212370, Note_on_c, 4, 48, 0
6, 212370, Note_on_c, 4, 75, 0
6, 212370, Note_on_c, 4, 74, 73
6, 212370, Note_on_c, 4, 46, 68
6, 212400, Note_on_c, 4, 46, 0
6, 212400, Note_on_c, 4, 74, 0
6, 212400, Note_on_c, 4, 79, 0
6, 212400, Note_on_c, 4, 84, 62
6, 212400, Note_on_c, 4, 72, 45
6, 212400, Note_on_c, 4, 45, 59
6, 212460, Note_on_c, 4, 45, 0
6, 212460, Note_on_c, 4, 43, 78
6, 212490, Note_on_c, 4, 84, 0
6, 212490, Note_on_c, 4, 82, 76
6, 212520, Note_on_c, 4, 82, 0
6, 212520, Note_on_c, 4, 43, 0
6, 212520, Note_on_c, 4, 81, 76
6, 212520, Note_on_c, 4, 42, 74
6, 212580, Note_on_c, 4, 42, 0
6, 212580, Note_on_c, 4, 40, 78
6, 212610, Note_on_c, 4, 81, 0
6, 212610, Note_on_c, 4, 79, 43
6, 212640, Note_on_c, 4, 79, 0
6, 212640, Note_on_c, 4, 40, 0
6, 212640, Note_on_c, 4, 72, 0
6, 212640, Note_on_c, 4, 78, 67
6, 212640, Note_on_c, 4, 78, 76
6, 212640, Note_on_c, 4, 38, 73
6, 212730, Note_on_c, 4, 78, 0
6, 212730, Note_on_c, 4, 76, 77
6, 212760, Note_on_c, 4, 76, 0
6, 212760, Note_on_c, 4, 74, 80
6, 212850, Note_on_c, 4, 74, 0
6, 212850, Note_on_c, 4, 72, 61
6, 212880, Note_on_c, 4, 72, 0
6, 212880, Note_on_c, 4, 38, 0
6, 212880, Note_on_c, 4, 78, 0
6, 212880, Note_on_c, 4, 77, 63
6, 212880, Note_on_c, 4, 71, 64
6, 212880, Note_on_c, 4, 43, 62
6, 212970, Note_on_c, 4, 43, 0
6, 212970, Note_on_c, 4, 71, 0
6, 212970, Note_on_c, 4, 74, 80
6, 212970, Note_on_c, 4, 47, 74
6, 213000, Note_on_c, 4, 47, 0
6, 213000, Note_on_c, 4, 74, 0
6, 213000, Note_on_c, 4, 77, 0
6, 213000, Note_on_c, 4, 76, 70
6, 213000, Note_on_c, 4, 67, 68
6, 213000, Note_on_c, 4, 48, 82
6, 213090, Note_on_c, 4, 48, 0
6, 213090, Note_on_c, 4, 67, 0
6, 213090, Note_on_c, 4, 72, 60
6, 213090, Note_on_c, 4, 40, 65
6, 213120, Note_on_c, 4, 40, 0
6, 213120, Note_on_c, 4, 72, 0
6, 213120, Note_on_c, 4, 76, 0
6, 213120, Note_on_c, 4, 75, 67
6, 213120, Note_on_c, 4, 69, 84
6, 213120, Note_on_c, 4, 41, 58
6, 213210, Note_on_c, 4, 41, 0
6, 213210, Note_on_c, 4, 69, 0
6, 213210, Note_on_c, 4, 72, 53
6, 213210, Note_on_c, 4, 45, 86
6, 213240, Note_on_c, 4, 45, 0
6, 213240, Note_on_c, 4, 72, 0
6, 213240, Note_on_c, 4, 75, 0
6, 213240, Note_on_c, 4, 74, 64
6, 213240, Note_on_c, 4, 65, 66
6, 213240, Note_on_c, 4, 46, 68
6, 213330, Note_on_c, 4, 46, 0
6, 213330, Note_on_c, 4, 65, 0
6, 213330, Note_on_c, 4, 70, 77
6, 213330, Note_on_c, 4, 38, 64
6, 213360, Note_on_c, 4, 38, 0
6, 213360, Note_on_c, 4, 70, 0
6, 213360, Note_on_c, 4, 74, 0
6, 213360, Note_on_c, 4, 74, 80
6, 213360, Note_on_c, 4, 68, 76
6, 213360, Note_on_c, 4, 40, 77
6, 213450, Note_on_c, 4, 40, 0
6, 213450, Note_on_c, 4, 68, 0
6, 213450, Note_on_c, 4, 71, 80
6, 213450, Note_on_c, 4, 44, 76
6, 213480, Note_on_c, 4, 44, 0
6, 213480, Note_on_c, 4, 71, 0
6, 213480, Note_on_c, 4, 74, 0
6, 213480, Note_on_c, 4, 73, 63
6, 213480, Note_on_c, 4, 64, 72
6, 213480, Note_on_c, 4, 45, 62
6, 213570, Note_on_c, 4, 45, 0
6, 213570, Note_on_c, 4, 64, 0
6, 213570, Note_on_c, 4, 69, 80
6, 213570, Note_on_c, 4, 37, 78
6, 213600, Note_on_c, 4, 37, 0
6, 213600, Note_on_c, 4, 69, 0
6, 213600, Note_on_c, 4, 73, 0
6, 213600, Note_on_c, 4, 72, 61
6, 213600, Note_on_c, 4, 66, 65
6, 213600, Note_on_c, 4, 50, 81
6, 213690, Note_on_c, 4, 50, 0
6, 213690, Note_on_c, 4, 66, 0
6, 213690, Note_on_c, 4, 69, 81
6, 213690, Note_on_c, 4, 54, 69
6, 213720, Note_on_c, 4, 54, 0
6, 213720, Note_on_c, 4, 69, 0
6, 213720, Note_on_c, 4, 72, 0
6, 213720, Note_on_c, 4, 71, 61
6, 213720, Note_on_c, 4, 62, 57
6, 213720, Note_on_c, 4, 55, 73
6, 213810, Note_on_c, 4, 55, 0
6, 213810, Note_on_c, 4, 62, 0
6, 213810, Note_on_c, 4, 67, 60
6, 213810, Note_on_c, 4, 47, 60
6, 213840, Note_on_c, 4, 47, 0
6, 213840, Note_on_c, 4, 67, 0
6, 213840, Note_on_c, 4, 71, 0
6, 213840, Note_on_c, 4, 70, 50
6, 213840, Note_on_c, 4, 64, 76
6, 213840, Note_on_c, 4, 48, 66
6, 213930, Note_on_c, 4, 48, 0
6, 213930, Note_on_c, 4, 64, 0
6, 213930, Note_on_c, 4, 67, 77
6, 213930, Note_on_c, 4, 52, 78
6, 213960, Note_on_c, 4, 52, 0
6, 213960, Note_on_c, 4, 67, 0
6, 213960, Note_on_c, 4, 70, 0
6, 213960, Note_on_c, 4, 69, 62
6, 213960, Note_on_c, 4, 65, 74
6, 213960, Note_on_c, 4, 60, 48
6, 213960, Note_on_c, 4, 41, 70
6, 214050, Note_on_c, 4, 41, 0
6, 214050, Note_on_c, 4, 69, 0
6, 214050, Note_on_c, 4, 65, 0
6, 214050, Note_on_c, 4, 60, 0
6, 214050, Note_on_c, 4, 70, 53
6, 214050, Note_on_c, 4, 65, 73
6, 214050, Note_on_c, 4, 62, 46
6, 214050, Note_on_c, 4, 46, 89
6, 214080, Note_on_c, 4, 46, 0
6, 214080, Note_on_c, 4, 70, 0
6, 214080, Note_on_c, 4, 65, 0
6, 214080, Note_on_c, 4, 62, 0
6, 214080, Note_on_c, 4, 72, 58
6, 214080, Note_on_c, 4, 69, 70
6, 214080, Note_on_c, 4, 53, 72
6, 214170, Note_on_c, 4, 53, 0
6, 214170, Note_on_c, 4, 69, 0
6, 214170, Note_on_c, 4, 72, 0
6, 214170, Note_on_c, 4, 74, 64
6, 214170, Note_on_c, 4, 68, 60
6, 214170, Note_on_c, 4, 65, 53
6, 214170, Note_on_c, 4, 46, 71
6, 214200, Note_on_c, 4, 46, 0
6, 214200, Note_on_c, 4, 74, 0
6, 214200, Note_on_c, 4, 68, 0
6, 214200, Note_on_c, 4, 65, 0
6, 214200, Note_on_c, 4, 75, 72
6, 214200, Note_on_c, 4, 67, 69
6, 214200, Note_on_c, 4, 51, 71
6, 214290, Note_on_c, 4, 51, 0
6, 214290, Note_on_c, 4, 67, 0
6, 214290, Note_on_c, 4, 75, 0
6, 214290, Note_on_c, 4, 77, 62
6, 214290, Note_on_c, 4, 74, 72
6, 214290, Note_on_c, 4, 46, 70
6, 214320, Note_on_c, 4, 46, 0
6, 214320, Note_on_c, 4, 74, 0
6, 214320, Note_on_c, 4, 77, 0
6, 214320, Note_on_c, 4, 79, 67
6, 214320, Note_on_c, 4, 75, 68
6, 214320, Note_on_c, 4, 51, 71
6, 214410, Note_on_c, 4, 51, 0
6, 214410, Note_on_c, 4, 75, 0
6, 214410, Note_on_c, 4, 79, 0
6, 214410, Note_on_c, 4, 79, 74
6, 214410, Note_on_c, 4, 75, 74
6, 214410, Note_on_c, 4, 48, 67
6, 214440, Note_on_c, 4, 48, 0
6, 214440, Note_on_c, 4, 75, 0
6, 214440, Note_on_c, 4, 79, 0
6, 214440, Note_on_c, 4, 84, 73
6, 214440, Note_on_c, 4, 75, 84
6, 214440, Note_on_c, 4, 45, 74
6, 214530, Note_on_c, 4, 45, 0
6, 214530, Note_on_c, 4, 75, 0
6, 214530, Note_on_c, 4, 84, 0
6, 214530, Note_on_c, 4, 84, 72
6, 214530, Note_on_c, 4, 75, 84
6, 214530, Note_on_c, 4, 43, 72
6, 214560, Note_on_c, 4, 43, 0
6, 214560, Note_on_c, 4, 75, 0
6, 214560, Note_on_c, 4, 84, 0
6, 214560, Note_on_c, 4, 87, 63
6, 214560, Note_on_c, 4, 84, 68
6, 214560, Note_on_c, 4, 41, 73
6, 214650, Note_on_c, 4, 41, 0
6, 214650, Note_on_c, 4, 84, 0
6, 214650, Note_on_c, 4, 87, 0
6, 214650, Note_on_c, 4, 84, 61
6, 214650, Note_on_c, 4, 81, 73
6, 214650, Note_on_c, 4, 42, 76
6, 214680, Note_on_c, 4, 42, 0
6, 214680, Note_on_c, 4, 81, 0
6, 214680, Note_on_c, 4, 84, 0
6, 214680, Note_on_c, 4, 87, 71
6, 214680, Note_on_c, 4, 84, 70
6, 214680, Note_on_c, 4, 41, 73
6, 214770, Note_on_c, 4, 41, 0
6, 214770, Note_on_c, 4, 84, 0
6, 214770, Note_on_c, 4, 87, 0
6, 214770, Note_on_c, 4, 84, 62
6, 214770, Note_on_c, 4, 81, 72
6, 214770, Note_on_c, 4, 42, 71
6, 214800, Note_on_c, 4, 42, 0
6, 214800, Note_on_c, 4, 81, 0
6, 214800, Note_on_c, 4, 84, 0
6, 214800, Note_on_c, 4, 87, 81
6, 214800, Note_on_c, 4, 84, 72
6, 214800, Note_on_c, 4, 41, 77
6, 214890, Note_on_c, 4, 41, 0
6, 214890, Note_on_c, 4, 84, 0
6, 214890, Note_on_c, 4, 87, 0
6, 214890, Note_on_c, 4, 84, 76
6, 214890, Note_on_c, 4, 81, 85
6, 214890, Note_on_c, 4, 42, 68
6, 214920, Note_on_c, 4, 42, 0
6, 214920, Note_on_c, 4, 81, 0
6, 214920, Note_on_c, 4, 84, 0
6, 214920, Note_on_c, 4, 87, 89
6, 214920, Note_on_c, 4, 84, 73
6, 214920, Note_on_c, 4, 41, 81
6, 215010, Note_on_c, 4, 41, 0
6, 215010, Note_on_c, 4, 84, 0
6, 215010, Note_on_c, 4, 87, 0
6, 215010, Note_on_c, 4, 84, 73
6, 215010, Note_on_c, 4, 81, 82
6, 215010, Note_on_c, 4, 42, 73
6, 215040, Note_on_c, 4, 42, 0
6, 215040, Note_on_c, 4, 81, 0
6, 215040, Note_on_c, 4, 84, 0
6, 215040, Note_on_c, 4, 87, 82
6, 215040, Note_on_c, 4, 84, 73
6, 215040, Note_on_c, 4, 29, 80
6, 215070, Note_on_c, 4, 29, 0
6, 215070, Note_on_c, 4, 41, 73
6, 215100, Note_on_c, 4, 41, 0
6, 215100, Note_on_c, 4, 40, 73
6, 215130, Note_on_c, 4, 40, 0
6, 215130, Note_on_c, 4, 84, 0
6, 215130, Note_on_c, 4, 87, 0
6, 215130, Note_on_c, 4, 87, 80
6, 215130, Note_on_c, 4, 84, 73
6, 215130, Note_on_c, 4, 41, 76
6, 215160, Note_on_c, 4, 41, 0
6, 215160, Note_on_c, 4, 84, 0
6, 215160, Note_on_c, 4, 87, 0
6, 215160, Note_on_c, 4, 84, 72
6, 215160, Note_on_c, 4, 81, 82
6, 215160, Note_on_c, 4, 33, 80
6, 215190, Note_on_c, 4, 33, 0
6, 215190, Note_on_c, 4, 45, 66
6, 215220, Note_on_c, 4, 45, 0
6, 215220, Note_on_c, 4, 44, 73
6, 215250, Note_on_c, 4, 44, 0
6, 215250, Note_on_c, 4, 81, 0
6, 215250, Note_on_c, 4, 84, 0
6, 215250, Note_on_c, 4, 84, 65
6, 215250, Note_on_c, 4, 81, 80
6, 215250, Note_on_c, 4, 45, 84
6, 215280, Note_on_c, 4, 45, 0
6, 215280, Note_on_c, 4, 81, 0
6, 215280, Note_on_c, 4, 84, 0
6, 215280, Note_on_c, 4, 81, 73
6, 215280, Note_on_c, 4, 75, 82
6, 215280, Note_on_c, 4, 36, 89
6, 215310, Note_on_c, 4, 36, 0
6, 215310, Note_on_c, 4, 48, 66
6, 215340, Note_on_c, 4, 48, 0
6, 215340, Note_on_c, 4, 47, 84
6, 215370, Note_on_c, 4, 47, 0
6, 215370, Note_on_c, 4, 75, 0
6, 215370, Note_on_c, 4, 81, 0
6, 215370, Note_on_c, 4, 81, 70
6, 215370, Note_on_c, 4, 75, 84
6, 215370, Note_on_c, 4, 48, 82
6, 215400, Note_on_c, 4, 48, 0
6, 215400, Note_on_c, 4, 75, 0
6, 215400, Note_on_c, 4, 81, 0
6, 215400, Note_on_c, 4, 75, 84
6, 215400, Note_on_c, 4, 72, 65
6, 215400, Note_on_c, 4, 41, 84
6, 215430, Note_on_c, 4, 41, 0
6, 215430, Note_on_c, 4, 53, 67
6, 215460, Note_on_c, 4, 53, 0
6, 215460, Note_on_c, 4, 52, 93
6, 215490, Note_on_c, 4, 52, 0
6, 215490, Note_on_c, 4, 72, 0
6, 215490, Note_on_c, 4, 75, 0
6, 215490, Note_on_c, 4, 75, 72
6, 215490, Note_on_c, 4, 72, 58
6, 215490, Note_on_c, 4, 53, 74
6, 215520, Note_on_c, 4, 53, 0
6, 215520, Note_on_c, 4, 72, 0
6, 215520, Note_on_c, 4, 75, 0
6, 215520, Note_on_c, 4, 72, 45
6, 215520, Note_on_c, 4, 69, 89
6, 215520, Note_on_c, 4, 45, 84
6, 215550, Note_on_c, 4, 45, 0
6, 215550, Note_on_c, 4, 57, 84
6, 215580, Note_on_c, 4, 57, 0
6, 215580, Note_on_c, 4, 56, 84
6, 215610, Note_on_c, 4, 56, 0
6, 215610, Note_on_c, 4, 69, 0
6, 215610, Note_on_c, 4, 72, 0
6, 215610, Note_on_c, 4, 72, 52
6, 215610, Note_on_c, 4, 69, 80
6, 215610, Note_on_c, 4, 57, 84
6, 215640, Note_on_c, 4, 57, 0
6, 215640, Note_on_c, 4, 69, 0
6, 215640, Note_on_c, 4, 72, 0
6, 215640, Note_on_c, 4, 69, 70
6, 215640, Note_on_c, 4, 63, 73
6, 215640, Note_on_c, 4, 48, 81
6, 215670, Note_on_c, 4, 48, 0
6, 215670, Note_on_c, 4, 60, 68
6, 215700, Note_on_c, 4, 60, 0
6, 215700, Note_on_c, 4, 59, 84
6, 215730, Note_on_c, 4, 59, 0
6, 215730, Note_on_c, 4, 63, 0
6, 215730, Note_on_c, 4, 69, 0
6, 215730, Note_on_c, 4, 69, 71
6, 215730, Note_on_c, 4, 63, 74
6, 215730, Note_on_c, 4, 60, 77
6, 215760, Note_on_c, 4, 60, 0
6, 215760, Note_on_c, 4, 63, 0
6, 215760, Note_on_c, 4, 69, 0
6, 215760, Note_on_c, 4, 63, 69
6, 215760, Note_on_c, 4, 60, 74
6, 215760, Note_on_c, 4, 53, 76
6, 215790, Note_on_c, 4, 53, 0
6, 215790, Note_on_c, 4, 65, 77
6, 215820, Note_on_c, 4, 65, 0
6, 215820, Note_on_c, 4, 60, 0
6, 215820, Note_on_c, 4, 63, 0
6, 215820, Note_on_c, 4, 64, 90
6, 215850, Note_on_c, 4, 64, 0
6, 215850, Note_on_c, 4, 65, 76
6, 215880, Note_on_c, 4, 65, 0
6, 215880, Note_on_c, 4, 64, 76
6, 215910, Note_on_c, 4, 64, 0
6, 215910, Note_on_c, 4, 65, 77
6, 215940, Note_on_c, 4, 65, 0
6, 215940, Note_on_c, 4, 64, 85
6, 215970, Note_on_c, 4, 64, 0
6, 215970, Note_on_c, 4, 65, 73
6, 216000, Note_on_c, 4, 65, 0
6, 216000, Note_on_c, 4, 89, 84
6, 216000, Note_on_c, 4, 86, 76
6, 216000, Note_on_c, 4, 29, 80
6, 216030, Note_on_c, 4, 29, 0
6, 216030, Note_on_c, 4, 41, 84
6, 216060, Note_on_c, 4, 41, 0
6, 216060, Note_on_c, 4, 40, 84
6, 216090, Note_on_c, 4, 40, 0
6, 216090, Note_on_c, 4, 86, 0
6, 216090, Note_on_c, 4, 89, 0
6, 216090, Note_on_c, 4, 89, 74
6, 216090, Note_on_c, 4, 86, 72
6, 216090, Note_on_c, 4, 41, 85
6, 216120, Note_on_c, 4, 41, 0
6, 216120, Note_on_c, 4, 86, 0
6, 216120, Note_on_c, 4, 89, 0
6, 216120, Note_on_c, 4, 86, 73
6, 216120, Note_on_c, 4, 82, 64
6, 216120, Note_on_c, 4, 34, 80
6, 216150, Note_on_c, 4, 34, 0
6, 216150, Note_on_c, 4, 46, 84
6, 216180, Note_on_c, 4, 46, 0
6, 216180, Note_on_c, 4, 45, 89
6, 216210, Note_on_c, 4, 45, 0
6, 216210, Note_on_c, 4, 82, 0
6, 216210, Note_on_c, 4, 86, 0
6, 216210, Note_on_c, 4, 86, 71
6, 216210, Note_on_c, 4, 82, 74
6, 216210, Note_on_c, 4, 46, 89
6, 216240, Note_on_c, 4, 46, 0
6, 216240, Note_on_c, 4, 82, 0
6, 216240, Note_on_c, 4, 86, 0
6, 216240, Note_on_c, 4, 82, 77
6, 216240, Note_on_c, 4, 77, 80
6, 216240, Note_on_c, 4, 38, 90
6, 216270, Note_on_c, 4, 38, 0
6, 216270, Note_on_c, 4, 50, 84
6, 216300, Note_on_c, 4, 50, 0
6, 216300, Note_on_c, 4, 49, 89
6, 216330, Note_on_c, 4, 49, 0
6, 216330, Note_on_c, 4, 77, 0
6, 216330, Note_on_c, 4, 82, 0
6, 216330, Note_on_c, 4, 82, 82
6, 216330, Note_on_c, 4, 77, 84
6, 216330, Note_on_c, 4, 50, 86
6, 216360, Note_on_c, 4, 50, 0
6, 216360, Note_on_c, 4, 77, 0
6, 216360, Note_on_c, 4, 82, 0
6, 216360, Note_on_c, 4, 77, 74
6, 216360, Note_on_c, 4, 74, 84
6, 216360, Note_on_c, 4, 41, 81
6, 216390, Note_on_c, 4, 41, 0
6, 216390, Note_on_c, 4, 53, 74
6, 216420, Note_on_c, 4, 53, 0
6, 216420, Note_on_c, 4, 52, 99
6, 216450, Note_on_c, 4, 52, 0
6, 216450, Note_on_c, 4, 74, 0
6, 216450, Note_on_c, 4, 77, 0
6, 216450, Note_on_c, 4, 77, 76
6, 216450, Note_on_c, 4, 74, 95
6, 216450, Note_on_c, 4, 53, 84
6, 216480, Note_on_c, 4, 53, 0
6, 216480, Note_on_c, 4, 74, 0
6, 216480, Note_on_c, 4, 77, 0
6, 216480, Note_on_c, 4, 74, 86
6, 216480, Note_on_c, 4, 70, 85
6, 216480, Note_on_c, 4, 46, 95
6, 216510, Note_on_c, 4, 46, 0
6, 216510, Note_on_c, 4, 58, 78
6, 216540, Note_on_c, 4, 58, 0
6, 216540, Note_on_c, 4, 57, 99
6, 216570, Note_on_c, 4, 57, 0
6, 216570, Note_on_c, 4, 70, 0
6, 216570, Note_on_c, 4, 74, 0
6, 216570, Note_on_c, 4, 74, 85
6, 216570, Note_on_c, 4, 70, 86
6, 216570, Note_on_c, 4, 58, 93
6, 216600, Note_on_c, 4, 58, 0
6, 216600, Note_on_c, 4, 70, 0
6, 216600, Note_on_c, 4, 74, 0
6, 216600, Note_on_c, 4, 70, 89
6, 216600, Note_on_c, 4, 65, 95
6, 216600, Note_on_c, 4, 50, 98
6, 216630, Note_on_c, 4, 50, 0
6, 216630, Note_on_c, 4, 62, 80
6, 216660, Note_on_c, 4, 62, 0
6, 216660, Note_on_c, 4, 61, 86
6, 216690, Note_on_c, 4, 61, 0
6, 216690, Note_on_c, 4, 65, 0
6, 216690, Note_on_c, 4, 70, 0
6, 216690, Note_on_c, 4, 70, 90
6, 216690, Note_on_c, 4, 65, 90
6, 216690, Note_on_c, 4, 62, 84
6, 216720, Note_on_c, 4, 62, 0
6, 216720, Note_on_c, 4, 65, 0
6, 216720, Note_on_c, 4, 70, 0
6, 216720, Note_on_c, 4, 65, 85
6, 216720, Note_on_c, 4, 62, 84
6, 216720, Note_on_c, 4, 53, 89
6, 216750, Note_on_c, 4, 53, 0
6, 216750, Note_on_c, 4, 65, 89
6, 216780, Note_on_c, 4, 65, 0
6, 216780, Note_on_c, 4, 62, 0
6, 216780, Note_on_c, 4, 65, 0
6, 216780, Note_on_c, 4, 64, 98
6, 216810, Note_on_c, 4, 64, 0
6, 216810, Note_on_c, 4, 65, 89
6, 216840, Note_on_c, 4, 65, 0
6, 216840, Note_on_c, 4, 64, 99
6, 216870, Note_on_c, 4, 64, 0
6, 216870, Note_on_c, 4, 65, 89
6, 216900, Note_on_c, 4, 65, 0
6, 216900, Note_on_c, 4, 64, 95
6, 216930, Note_on_c, 4, 64, 0
6, 216930, Note_on_c, 4, 65, 90
6, 216960, Note_on_c, 4, 65, 0
6, 216960, Note_on_c, 4, 63, 84
6, 216960, Note_on_c, 4, 53, 90
6, 216990, Note_on_c, 4, 53, 0
6, 216990, Note_on_c, 4, 65, 81
6, 217020, Note_on_c, 4, 65, 0
6, 217020, Note_on_c, 4, 64, 94
6, 217050, Note_on_c, 4, 64, 0
6, 217050, Note_on_c, 4, 63, 0
6, 217050, Note_on_c, 4, 65, 84
6, 217050, Note_on_c, 4, 63, 84
6, 217080, Note_on_c, 4, 63, 0
6, 217080, Note_on_c, 4, 65, 0
6, 217080, Note_on_c, 4, 60, 89
6, 217080, Note_on_c, 4, 57, 105
6, 217110, Note_on_c, 4, 57, 0
6, 217110, Note_on_c, 4, 69, 85
6, 217140, Note_on_c, 4, 69, 0
6, 217140, Note_on_c, 4, 68, 94
6, 217170, Note_on_c, 4, 68, 0
6, 217170, Note_on_c, 4, 60, 0
6, 217170, Note_on_c, 4, 69, 89
6, 217170, Note_on_c, 4, 60, 85
6, 217200, Note_on_c, 4, 60, 0
6, 217200, Note_on_c, 4, 69, 0
6, 217200, Note_on_c, 4, 60, 86
6, 217200, Note_on_c, 4, 57, 95
6, 217230, Note_on_c, 4, 60, 0
6, 217230, Note_on_c, 4, 72, 65
6, 217260, Note_on_c, 4, 72, 0
6, 217260, Note_on_c, 4, 71, 95
6, 217290, Note_on_c, 4, 71, 0
6, 217290, Note_on_c, 4, 57, 0
6, 217290, Note_on_c, 4, 72, 68
6, 217290, Note_on_c, 4, 57, 93
6, 217320, Note_on_c, 4, 57, 0
6, 217320, Note_on_c, 4, 72, 0
6, 217320, Note_on_c, 4, 65, 98
6, 217320, Note_on_c, 4, 53, 86
6, 217350, Note_on_c, 4, 65, 0
6, 217350, Note_on_c, 4, 77, 89
6, 217380, Note_on_c, 4, 77, 0
6, 217380, Note_on_c, 4, 76, 99
6, 217410, Note_on_c, 4, 76, 0
6, 217410, Note_on_c, 4, 53, 0
6, 217410, Note_on_c, 4, 77, 89
6, 217410, Note_on_c, 4, 53, 84
6, 217440, Note_on_c, 4, 53, 0
6, 217440, Note_on_c, 4, 77, 0
6, 217440, Note_on_c, 4, 69, 101
6, 217440, Note_on_c, 4, 51, 95
6, 217470, Note_on_c, 4, 69, 0
6, 217470, Note_on_c, 4, 81, 89
6, 217500, Note_on_c, 4, 81, 0
6, 217500, Note_on_c, 4, 80, 94
6, 217530, Note_on_c, 4, 80, 0
6, 217530, Note_on_c, 4, 51, 0
6, 217530, Note_on_c, 4, 81, 89
6, 217530, Note_on_c, 4, 51, 93
6, 217560, Note_on_c, 4, 51, 0
6, 217560, Note_on_c, 4, 81, 0
6, 217560, Note_on_c, 4, 72, 78
6, 217560, Note_on_c, 4, 48, 99
6, 217590, Note_on_c, 4, 72, 0
6, 217590, Note_on_c, 4, 84, 85
6, 217620, Note_on_c, 4, 84, 0
6, 217620, Note_on_c, 4, 83, 95
6, 217650, Note_on_c, 4, 83, 0
6, 217650, Note_on_c, 4, 48, 0
6, 217650, Note_on_c, 4, 84, 85
6, 217650, Note_on_c, 4, 48, 95
6, 217680, Note_on_c, 4, 48, 0
6, 217680, Note_on_c, 4, 84, 0
6, 217680, Note_on_c, 4, 77, 99
6, 217680, Note_on_c, 4, 45, 95
6, 217710, Note_on_c, 4, 77, 0
6, 217710, Note_on_c, 4, 89, 94
6, 217740, Note_on_c, 4, 89, 0
6, 217740, Note_on_c, 4, 88, 101
6, 217770, Note_on_c, 4, 88, 0
6, 217770, Note_on_c, 4, 45, 0
6, 217770, Note_on_c, 4, 89, 94
6, 217770, Note_on_c, 4, 45, 99
6, 217800, Note_on_c, 4, 45, 0
6, 217800, Note_on_c, 4, 89, 0
6, 217800, Note_on_c, 4, 88, 99
6, 217800, Note_on_c, 4, 41, 93
6, 217830, Note_on_c, 4, 88, 0
6, 217830, Note_on_c, 4, 89, 94
6, 217860, Note_on_c, 4, 89, 0
6, 217860, Note_on_c, 4, 88, 101
6, 217890, Note_on_c, 4, 88, 0
6, 217890, Note_on_c, 4, 41, 0
6, 217890, Note_on_c, 4, 89, 94
6, 217890, Note_on_c, 4, 41, 89
6, 217920, Note_on_c, 4, 41, 0
6, 217920, Note_on_c, 4, 89, 0
6, 217920, Note_on_c, 4, 53, 76
6, 217950, Note_on_c, 4, 53, 0
6, 217950, Note_on_c, 4, 65, 93
6, 217980, Note_on_c, 4, 65, 0
6, 217980, Note_on_c, 4, 64, 90
6, 218010, Note_on_c, 4, 64, 0
6, 218010, Note_on_c, 4, 65, 95
6, 218040, Note_on_c, 4, 65, 0
6, 218040, Note_on_c, 4, 62, 90
6, 218040, Note_on_c, 4, 58, 80
6, 218070, Note_on_c, 4, 58, 0
6, 218070, Note_on_c, 4, 70, 95
6, 218100, Note_on_c, 4, 70, 0
6, 218100, Note_on_c, 4, 69, 99
6, 218130, Note_on_c, 4, 69, 0
6, 218130, Note_on_c, 4, 62, 0
6, 218130, Note_on_c, 4, 70, 95
6, 218130, Note_on_c, 4, 62, 89
6, 218160, Note_on_c, 4, 62, 0
6, 218160, Note_on_c, 4, 70, 0
6, 218160, Note_on_c, 4, 62, 82
6, 218160, Note_on_c, 4, 58, 93
6, 218190, Note_on_c, 4, 62, 0
6, 218190, Note_on_c, 4, 74, 94
6, 218220, Note_on_c, 4, 74, 0
6, 218220, Note_on_c, 4, 73, 82
6, 218250, Note_on_c, 4, 73, 0
6, 218250, Note_on_c, 4, 58, 0
6, 218250, Note_on_c, 4, 74, 95
6, 218250, Note_on_c, 4, 58, 89
6, 218280, Note_on_c, 4, 58, 0
6, 218280, Note_on_c, 4, 74, 0
6, 218280, Note_on_c, 4, 65, 90
6, 218280, Note_on_c, 4, 53, 94
6, 218310, Note_on_c, 4, 65, 0
6, 218310, Note_on_c, 4, 77, 90
6, 218340, Note_on_c, 4, 77, 0
6, 218340, Note_on_c, 4, 76, 98
6, 218370, Note_on_c, 4, 76, 0
6, 218370, Note_on_c, 4, 53, 0
6, 218370, Note_on_c, 4, 77, 95
6, 218370, Note_on_c, 4, 53, 90
6, 218400, Note_on_c, 4, 53, 0
6, 218400, Note_on_c, 4, 77, 0
6, 218400, Note_on_c, 4, 70, 93
6, 218400, Note_on_c, 4, 50, 99
6, 218430, Note_on_c, 4, 70, 0
6, 218430, Note_on_c, 4, 82, 94
6, 218460, Note_on_c, 4, 82, 0
6, 218460, Note_on_c, 4, 81, 99
6, 218490, Note_on_c, 4, 81, 0
6, 218490, Note_on_c, 4, 50, 0
6, 218490, Note_on_c, 4, 82, 95
6, 218490, Note_on_c, 4, 50, 99
6, 218520, Note_on_c, 4, 50, 0
6, 218520, Note_on_c, 4, 82, 0
6, 218520, Note_on_c, 4, 74, 89
6, 218520, Note_on_c, 4, 46, 95
6, 218550, Note_on_c, 4, 74, 0
6, 218550, Note_on_c, 4, 86, 94
6, 218580, Note_on_c, 4, 86, 0
6, 218580, Note_on_c, 4, 85, 94
6, 218610, Note_on_c, 4, 85, 0
6, 218610, Note_on_c, 4, 46, 0
6, 218610, Note_on_c, 4, 86, 99
6, 218610, Note_on_c, 4, 46, 94
6, 218640, Note_on_c, 4, 46, 0
6, 218640, Note_on_c, 4, 86, 0
6, 218640, Note_on_c, 4, 77, 93
6, 218640, Note_on_c, 4, 41, 95
6, 218670, Note_on_c, 4, 77, 0
6, 218670, Note_on_c, 4, 89, 95
6, 218700, Note_on_c, 4, 89, 0
6, 218700, Note_on_c, 4, 88, 99
6, 218730, Note_on_c, 4, 88, 0
6, 218730, Note_on_c, 4, 89, 95
6, 218760, Note_on_c, 4, 89, 0
6, 218760, Note_on_c, 4, 41, 0
6, 218760, Note_on_c, 4, 88, 94
6, 218790, Note_on_c, 4, 88, 0
6, 218790, Note_on_c, 4, 89, 89
6, 218820, Note_on_c, 4, 89, 0
6, 218820, Note_on_c, 4, 88, 99
6, 218850, Note_on_c, 4, 88, 0
6, 218850, Note_on_c, 4, 89, 94
6, 218880, Note_on_c, 4, 89, 0
6, 218880, Note_on_c, 4, 58, 84
6, 218880, Note_on_c, 4, 56, 94
6, 218910, Note_on_c, 4, 58, 0
6, 218910, Note_on_c, 4, 70, 99
6, 218940, Note_on_c, 4, 70, 0
6, 218940, Note_on_c, 4, 69, 98
6, 218970, Note_on_c, 4, 69, 0
6, 218970, Note_on_c, 4, 56, 0
6, 218970, Note_on_c, 4, 70, 95
6, 218970, Note_on_c, 4, 56, 94
6, 219000, Note_on_c, 4, 56, 0
6, 219000, Note_on_c, 4, 70, 0
6, 219000, Note_on_c, 4, 62, 81
6, 219000, Note_on_c, 4, 53, 94
6, 219030, Note_on_c, 4, 62, 0
6, 219030, Note_on_c, 4, 74, 95
6, 219060, Note_on_c, 4, 74, 0
6, 219060, Note_on_c, 4, 73, 89
6, 219090, Note_on_c, 4, 73, 0
6, 219090, Note_on_c, 4, 53, 0
6, 219090, Note_on_c, 4, 74, 95
6, 219090, Note_on_c, 4, 53, 89
6, 219120, Note_on_c, 4, 53, 0
6, 219120, Note_on_c, 4, 74, 0
6, 219120, Note_on_c, 4, 65, 89
6, 219120, Note_on_c, 4, 50, 104
6, 219150, Note_on_c, 4, 65, 0
6, 219150, Note_on_c, 4, 77, 93
6, 219180, Note_on_c, 4, 77, 0
6, 219180, Note_on_c, 4, 76, 99
6, 219210, Note_on_c, 4, 76, 0
6, 219210, Note_on_c, 4, 50, 0
6, 219210, Note_on_c, 4, 77, 84
6, 219210, Note_on_c, 4, 50, 99
6, 219240, Note_on_c, 4, 50, 0
6, 219240, Note_on_c, 4, 77, 0
6, 219240, Note_on_c, 4, 70, 86
6, 219240, Note_on_c, 4, 46, 94
6, 219270, Note_on_c, 4, 70, 0
6, 219270, Note_on_c, 4, 82, 95
6, 219300, Note_on_c, 4, 82, 0
6, 219300, Note_on_c, 4, 81, 101
6, 219330, Note_on_c, 4, 81, 0
6, 219330, Note_on_c, 4, 46, 0
6, 219330, Note_on_c, 4, 82, 95
6, 219330, Note_on_c, 4, 46, 94
6, 219360, Note_on_c, 4, 46, 0
6, 219360, Note_on_c, 4, 82, 0
6, 219360, Note_on_c, 4, 74, 90
6, 219360, Note_on_c, 4, 44, 94
6, 219390, Note_on_c, 4, 74, 0
6, 219390, Note_on_c, 4, 86, 99
6, 219420, Note_on_c, 4, 86, 0
6, 219420, Note_on_c, 4, 85, 93
6, 219450, Note_on_c, 4, 85, 0
6, 219450, Note_on_c, 4, 44, 0
6, 219450, Note_on_c, 4, 86, 95
6, 219450, Note_on_c, 4, 44, 93
6, 219480, Note_on_c, 4, 44, 0
6, 219480, Note_on_c, 4, 86, 0
6, 219480, Note_on_c, 4, 77, 94
6, 219480, Note_on_c, 4, 41, 98
6, 219510, Note_on_c, 4, 77, 0
6, 219510, Note_on_c, 4, 89, 105
6, 219540, Note_on_c, 4, 89, 0
6, 219540, Note_on_c, 4, 88, 99
6, 219570, Note_on_c, 4, 88, 0
6, 219570, Note_on_c, 4, 41, 0
6, 219570, Note_on_c, 4, 89, 105
6, 219570, Note_on_c, 4, 41, 94
6, 219600, Note_on_c, 4, 41, 0
6, 219600, Note_on_c, 4, 89, 0
6, 219600, Note_on_c, 4, 82, 81
6, 219600, Note_on_c, 4, 38, 99
6, 219630, Note_on_c, 4, 82, 0
6, 219630, Note_on_c, 4, 94, 95
6, 219660, Note_on_c, 4, 94, 0
6, 219660, Note_on_c, 4, 93, 99
6, 219690, Note_on_c, 4, 93, 0
6, 219690, Note_on_c, 4, 38, 0
6, 219690, Note_on_c, 4, 94, 101
6, 219690, Note_on_c, 4, 38, 99
6, 219720, Note_on_c, 4, 38, 0
6, 219720, Note_on_c, 4, 94, 0
6, 219720, Note_on_c, 4, 93, 99
6, 219720, Note_on_c, 4, 34, 80
6, 219750, Note_on_c, 4, 93, 0
6, 219750, Note_on_c, 4, 94, 94
6, 219780, Note_on_c, 4, 94, 0
6, 219780, Note_on_c, 4, 93, 101
6, 219810, Note_on_c, 4, 93, 0
6, 219810, Note_on_c, 4, 34, 0
6, 219810, Note_on_c, 4, 94, 99
6, 219810, Note_on_c, 4, 34, 80
6, 219840, Note_on_c, 4, 34, 0
6, 219840, Note_on_c, 4, 94, 0
6, 219840, Note_on_c, 4, 58, 89
6, 219840, Note_on_c, 4, 55, 80
6, 219870, Note_on_c, 4, 58, 0
6, 219870, Note_on_c, 4, 70, 101
6, 219900, Note_on_c, 4, 70, 0
6, 219900, Note_on_c, 4, 69, 99
6, 219930, Note_on_c, 4, 69, 0
6, 219930, Note_on_c, 4, 55, 0
6, 219930, Note_on_c, 4, 70, 99
6, 219930, Note_on_c, 4, 55, 81
6, 219960, Note_on_c, 4, 55, 0
6, 219960, Note_on_c, 4, 70, 0
6, 219960, Note_on_c, 4, 63, 95
6, 219960, Note_on_c, 4, 51, 99
6, 219990, Note_on_c, 4, 63, 0
6, 219990, Note_on_c, 4, 75, 98
6, 220020, Note_on_c, 4, 75, 0
6, 220020, Note_on_c, 4, 74, 105
6, 220050, Note_on_c, 4, 74, 0
6, 220050, Note_on_c, 4, 51, 0
6, 220050, Note_on_c, 4, 75, 105
6, 220050, Note_on_c, 4, 51, 94
6, 220080, Note_on_c, 4, 51, 0
6, 220080, Note_on_c, 4, 75, 0
6, 220080, Note_on_c, 4, 67, 86
6, 220080, Note_on_c, 4, 46, 95
6, 220110, Note_on_c, 4, 67, 0
6, 220110, Note_on_c, 4, 79, 94
6, 220140, Note_on_c, 4, 79, 0
6, 220140, Note_on_c, 4, 78, 89
6, 220170, Note_on_c, 4, 78, 0
6, 220170, Note_on_c, 4, 46, 0
6, 220170, Note_on_c, 4, 79, 99
6, 220170, Note_on_c, 4, 46, 95
6, 220200, Note_on_c, 4, 46, 0
6, 220200, Note_on_c, 4, 79, 0
6, 220200, Note_on_c, 4, 70, 86
6, 220200, Note_on_c, 4, 43, 99
6, 220230, Note_on_c, 4, 70, 0
6, 220230, Note_on_c, 4, 82, 99
6, 220260, Note_on_c, 4, 82, 0
6, 220260, Note_on_c, 4, 81, 99
6, 220290, Note_on_c, 4, 81, 0
6, 220290, Note_on_c, 4, 43, 0
6, 220290, Note_on_c, 4, 82, 95
6, 220290, Note_on_c, 4, 43, 98
6, 220320, Note_on_c, 4, 43, 0
6, 220320, Note_on_c, 4, 82, 0
6, 220320, Note_on_c, 4, 75, 90
6, 220320, Note_on_c, 4, 46, 98
6, 220350, Note_on_c, 4, 75, 0
6, 220350, Note_on_c, 4, 87, 101
6, 220380, Note_on_c, 4, 87, 0
6, 220380, Note_on_c, 4, 86, 105
6, 220410, Note_on_c, 4, 86, 0
6, 220410, Note_on_c, 4, 46, 0
6, 220410, Note_on_c, 4, 87, 99
6, 220410, Note_on_c, 4, 46, 94
6, 220440, Note_on_c, 4, 46, 0
6, 220440, Note_on_c, 4, 87, 0
6, 220440, Note_on_c, 4, 79, 95
6, 220440, Note_on_c, 4, 43, 99
6, 220470, Note_on_c, 4, 79, 0
6, 220470, Note_on_c, 4, 91, 104
6, 220500, Note_on_c, 4, 91, 0
6, 220500, Note_on_c, 4, 90, 94
6, 220530, Note_on_c, 4, 90, 0
6, 220530, Note_on_c, 4, 43, 0
6, 220530, Note_on_c, 4, 91, 105
6, 220530, Note_on_c, 4, 43, 95
6, 220560, Note_on_c, 4, 43, 0
6, 220560, Note_on_c, 4, 91, 0
6, 220560, Note_on_c, 4, 82, 93
6, 220560, Note_on_c, 4, 39, 95
6, 220590, Note_on_c, 4, 82, 0
6, 220590, Note_on_c, 4, 94, 95
6, 220620, Note_on_c, 4, 94, 0
6, 220620, Note_on_c, 4, 93, 99
6, 220650, Note_on_c, 4, 93, 0
6, 220650, Note_on_c, 4, 39, 0
6, 220650, Note_on_c, 4, 94, 95
6, 220650, Note_on_c, 4, 39, 98
6, 220680, Note_on_c, 4, 39, 0
6, 220680, Note_on_c, 4, 94, 0
6, 220680, Note_on_c, 4, 93, 99
6, 220680, Note_on_c, 4, 34, 80
6, 220710, Note_on_c, 4, 93, 0
6, 220710, Note_on_c, 4, 94, 95
6, 220740, Note_on_c, 4, 94, 0
6, 220740, Note_on_c, 4, 93, 99
6, 220770, Note_on_c, 4, 93, 0
6, 220770, Note_on_c, 4, 34, 0
6, 220770, Note_on_c, 4, 94, 98
6, 220770, Note_on_c, 4, 34, 80
6, 220800, Note_on_c, 4, 34, 0
6, 220800, Note_on_c, 4, 94, 0
6, 220800, Note_on_c, 4, 57, 107
6, 220800, Note_on_c, 4, 54, 95
6, 220830, Note_on_c, 4, 57, 0
6, 220830, Note_on_c, 4, 69, 99
6, 220860, Note_on_c, 4, 69, 0
6, 220860, Note_on_c, 4, 68, 95
6, 220890, Note_on_c, 4, 68, 0
6, 220890, Note_on_c, 4, 54, 0
6, 220890, Note_on_c, 4, 69, 105
6, 220890, Note_on_c, 4, 54, 93
6, 220920, Note_on_c, 4, 54, 0
6, 220920, Note_on_c, 4, 69, 0
6, 220920, Note_on_c, 4, 60, 99
6, 220920, Note_on_c, 4, 51, 98
6, 220950, Note_on_c, 4, 60, 0
6, 220950, Note_on_c, 4, 72, 93
6, 220980, Note_on_c, 4, 72, 0
6, 220980, Note_on_c, 4, 71, 104
6, 221010, Note_on_c, 4, 71, 0
6, 221010, Note_on_c, 4, 51, 0
6, 221010, Note_on_c, 4, 72, 94
6, 221010, Note_on_c, 4, 51, 95
6, 221040, Note_on_c, 4, 51, 0
6, 221040, Note_on_c, 4, 72, 0
6, 221040, Note_on_c, 4, 63, 95
6, 221040, Note_on_c, 4, 48, 104
6, 221070, Note_on_c, 4, 63, 0
6, 221070, Note_on_c, 4, 75, 104
6, 221100, Note_on_c, 4, 75, 0
6, 221100, Note_on_c, 4, 74, 104
6, 221130, Note_on_c, 4, 74, 0
6, 221130, Note_on_c, 4, 48, 0
6, 221130, Note_on_c, 4, 75, 105
6, 221130, Note_on_c, 4, 48, 101
6, 221160, Note_on_c, 4, 48, 0
6, 221160, Note_on_c, 4, 75, 0
6, 221160, Note_on_c, 4, 66, 99
6, 221160, Note_on_c, 4, 46, 95
6, 221190, Note_on_c, 4, 66, 0
6, 221190, Note_on_c, 4, 78, 95
6, 221220, Note_on_c, 4, 78, 0
6, 221220, Note_on_c, 4, 77, 99
6, 221250, Note_on_c, 4, 77, 0
6, 221250, Note_on_c, 4, 46, 0
6, 221250, Note_on_c, 4, 78, 95
6, 221250, Note_on_c, 4, 46, 98
6, 221280, Note_on_c, 4, 46, 0
6, 221280, Note_on_c, 4, 78, 0
6, 221280, Note_on_c, 4, 69, 99
6, 221280, Note_on_c, 4, 45, 105
6, 221310, Note_on_c, 4, 69, 0
6, 221310, Note_on_c, 4, 81, 99
6, 221340, Note_on_c, 4, 81, 0
6, 221340, Note_on_c, 4, 80, 98
6, 221370, Note_on_c, 4, 80, 0
6, 221370, Note_on_c, 4, 45, 0
6, 221370, Note_on_c, 4, 81, 104
6, 221370, Note_on_c, 4, 45, 105
6, 221400, Note_on_c, 4, 45, 0
6, 221400, Note_on_c, 4, 81, 0
6, 221400, Note_on_c, 4, 72, 89
6, 221400, Note_on_c, 4, 42, 95
6, 221430, Note_on_c, 4, 72, 0
6, 221430, Note_on_c, 4, 84, 99
6, 221460, Note_on_c, 4, 84, 0
6, 221460, Note_on_c, 4, 83, 99
6, 221490, Note_on_c, 4, 83, 0
6, 221490, Note_on_c, 4, 42, 0
6, 221490, Note_on_c, 4, 84, 104
6, 221490, Note_on_c, 4, 42, 94
6, 221520, Note_on_c, 4, 42, 0
6, 221520, Note_on_c, 4, 84, 0
6, 221520, Note_on_c, 4, 75, 105
6, 221520, Note_on_c, 4, 39, 98
6, 221550, Note_on_c, 4, 75, 0
6, 221550, Note_on_c, 4, 87, 101
6, 221580, Note_on_c, 4, 87, 0
6, 221580, Note_on_c, 4, 86, 105
6, 221610, Note_on_c, 4, 86, 0
6, 221610, Note_on_c, 4, 39, 0
6, 221610, Note_on_c, 4, 87, 104
6, 221610, Note_on_c, 4, 39, 99
6, 221640, Note_on_c, 4, 39, 0
6, 221640, Note_on_c, 4, 87, 0
6, 221640, Note_on_c, 4, 81, 104
6, 221640, Note_on_c, 4, 34, 80
6, 221670, Note_on_c, 4, 81, 0
6, 221670, Note_on_c, 4, 93, 105
6, 221700, Note_on_c, 4, 93, 0
6, 221700, Note_on_c, 4, 92, 95
6, 221730, Note_on_c, 4, 92, 0
6, 221730, Note_on_c, 4, 34, 0
6, 221730, Note_on_c, 4, 93, 104
6, 221730, Note_on_c, 4, 34, 80
6, 221760, Note_on_c, 4, 34, 0
6, 221760, Note_on_c, 4, 93, 0
6, 221760, Note_on_c, 4, 34, 57
6, 221790, Note_on_c, 4, 34, 0
6, 221790, Note_on_c, 4, 33, 67
6, 221820, Note_on_c, 4, 33, 0
6, 221820, Note_on_c, 4, 34, 62
6, 221850, Note_on_c, 4, 34, 0
6, 221850, Note_on_c, 4, 33, 78
6, 221880, Note_on_c, 4, 33, 0
6, 221880, Note_on_c, 4, 34, 61
6, 221910, Note_on_c, 4, 34, 0
6, 221910, Note_on_c, 4, 33, 65
6, 221940, Note_on_c, 4, 33, 0
6, 221940, Note_on_c, 4, 34, 63
6, 221970, Note_on_c, 4, 34, 0
6, 221970, Note_on_c, 4, 65, 44
6, 221970, Note_on_c, 4, 33, 72
6, 222000, Note_on_c, 4, 33, 0
6, 222000, Note_on_c, 4, 65, 0
6, 222000, Note_on_c, 4, 71, 65
6, 222000, Note_on_c, 4, 34, 68
6, 222030, Note_on_c, 4, 34, 0
6, 222030, Note_on_c, 4, 33, 65
6, 222060, Note_on_c, 4, 33, 0
6, 222060, Note_on_c, 4, 34, 62
6, 222090, Note_on_c, 4, 34, 0
6, 222090, Note_on_c, 4, 62, 65
6, 222090, Note_on_c, 4, 33, 65
6, 222120, Note_on_c, 4, 33, 0
6, 222120, Note_on_c, 4, 62, 0
6, 222120, Note_on_c, 4, 68, 77
6, 222120, Note_on_c, 4, 34, 65
6, 222150, Note_on_c, 4, 34, 0
6, 222150, Note_on_c, 4, 33, 64
6, 222180, Note_on_c, 4, 33, 0
6, 222180, Note_on_c, 4, 71, 0
6, 222180, Note_on_c, 4, 70, 68
6, 222180, Note_on_c, 4, 34, 70
6, 222210, Note_on_c, 4, 34, 0
6, 222210, Note_on_c, 4, 68, 0
6, 222210, Note_on_c, 4, 67, 51
6, 222210, Note_on_c, 4, 63, 64
6, 222210, Note_on_c, 4, 33, 69
6, 222240, Note_on_c, 4, 33, 0
6, 222240, Note_on_c, 4, 70, 0
6, 222240, Note_on_c, 4, 67, 0
6, 222240, Note_on_c, 4, 63, 0
6, 222240, Note_on_c, 4, 69, 68
6, 222240, Note_on_c, 4, 34, 57
6, 222270, Note_on_c, 4, 34, 0
6, 222270, Note_on_c, 4, 33, 67
6, 222300, Note_on_c, 4, 33, 0
6, 222300, Note_on_c, 4, 34, 62
6, 222330, Note_on_c, 4, 34, 0
6, 222330, Note_on_c, 4, 60, 51
6, 222330, Note_on_c, 4, 33, 78
6, 222360, Note_on_c, 4, 33, 0
6, 222360, Note_on_c, 4, 60, 0
6, 222360, Note_on_c, 4, 66, 74
6, 222360, Note_on_c, 4, 34, 61
6, 222390, Note_on_c, 4, 34, 0
6, 222390, Note_on_c, 4, 33, 65
6, 222420, Note_on_c, 4, 33, 0
6, 222420, Note_on_c, 4, 66, 0
6, 222420, Note_on_c, 4, 69, 0
6, 222420, Note_on_c, 4, 72, 42
6, 222420, Note_on_c, 4, 69, 40
6, 222420, Note_on_c, 4, 66, 53
6, 222420, Note_on_c, 4, 63, 43
6, 222420, Note_on_c, 4, 34, 63
6, 222450, Note_on_c, 4, 34, 0
6, 222450, Note_on_c, 4, 33, 72
6, 222480, Note_on_c, 4, 33, 0
6, 222480, Note_on_c, 4, 63, 0
6, 222480, Note_on_c, 4, 72, 0
6, 222480, Note_on_c, 4, 69, 0
6, 222480, Note_on_c, 4, 66, 0
6, 222480, Note_on_c, 4, 75, 60
6, 222480, Note_on_c, 4, 34, 68
6, 222510, Note_on_c, 4, 34, 0
6, 222510, Note_on_c, 4, 33, 65
6, 222540, Note_on_c, 4, 33, 0
6, 222540, Note_on_c, 4, 34, 62
6, 222570, Note_on_c, 4, 34, 0
6, 222570, Note_on_c, 4, 66, 55
6, 222570, Note_on_c, 4, 33, 65
6, 222600, Note_on_c, 4, 33, 0
6, 222600, Note_on_c, 4, 66, 0
6, 222600, Note_on_c, 4, 66, 65
6, 222600, Note_on_c, 4, 34, 65
6, 222630, Note_on_c, 4, 34, 0
6, 222630, Note_on_c, 4, 33, 64
6, 222660, Note_on_c, 4, 33, 0
6, 222660, Note_on_c, 4, 66, 0
6, 222660, Note_on_c, 4, 75, 0
6, 222660, Note_on_c, 4, 74, 71
6, 222660, Note_on_c, 4, 70, 54
6, 222660, Note_on_c, 4, 65, 64
6, 222660, Note_on_c, 4, 34, 70
6, 222690, Note_on_c, 4, 34, 0
6, 222690, Note_on_c, 4, 33, 69
6, 222720, Note_on_c, 4, 33, 0
6, 222720, Note_on_c, 4, 65, 0
6, 222720, Note_on_c, 4, 70, 0
6, 222720, Note_on_c, 4, 74, 0
6, 222720, Note_on_c, 4, 70, 64
6, 222720, Note_on_c, 4, 65, 50
6, 222720, Note_on_c, 4, 62, 61
6, 222720, Note_on_c, 4, 34, 57
6, 222750, Note_on_c, 4, 34, 0
6, 222750, Note_on_c, 4, 33, 67
6, 222780, Note_on_c, 4, 33, 0
6, 222780, Note_on_c, 4, 34, 62
6, 222810, Note_on_c, 4, 34, 0
6, 222810, Note_on_c, 4, 33, 78
6, 222840, Note_on_c, 4, 33, 0
6, 222840, Note_on_c, 4, 62, 0
6, 222840, Note_on_c, 4, 65, 0
6, 222840, Note_on_c, 4, 70, 0
6, 222840, Note_on_c, 4, 34, 61
6, 222870, Note_on_c, 4, 34, 0
6, 222870, Note_on_c, 4, 33, 65
6, 222900, Note_on_c, 4, 33, 0
6, 222900, Note_on_c, 4, 34, 63
6, 222930, Note_on_c, 4, 34, 0
6, 222930, Note_on_c, 4, 65, 65
6, 222930, Note_on_c, 4, 33, 72
6, 222960, Note_on_c, 4, 33, 0
6, 222960, Note_on_c, 4, 65, 0
6, 222960, Note_on_c, 4, 71, 71
6, 222960, Note_on_c, 4, 34, 68
6, 222990, Note_on_c, 4, 34, 0
6, 222990, Note_on_c, 4, 33, 65
6, 223020, Note_on_c, 4, 33, 0
6, 223020, Note_on_c, 4, 34, 62
6, 223050, Note_on_c, 4, 34, 0
6, 223050, Note_on_c, 4, 62, 58
6, 223050, Note_on_c, 4, 33, 65
6, 223080, Note_on_c, 4, 33, 0
6, 223080, Note_on_c, 4, 62, 0
6, 223080, Note_on_c, 4, 68, 76
6, 223080, Note_on_c, 4, 34, 65
6, 223110, Note_on_c, 4, 34, 0
6, 223110, Note_on_c, 4, 33, 64
6, 223140, Note_on_c, 4, 33, 0
6, 223140, Note_on_c, 4, 71, 0
6, 223140, Note_on_c, 4, 70, 80
6, 223140, Note_on_c, 4, 34, 70
6, 223170, Note_on_c, 4, 34, 0
6, 223170, Note_on_c, 4, 68, 0
6, 223170, Note_on_c, 4, 67, 43
6, 223170, Note_on_c, 4, 63, 45
6, 223170, Note_on_c, 4, 33, 69
6, 223200, Note_on_c, 4, 33, 0
6, 223200, Note_on_c, 4, 70, 0
6, 223200, Note_on_c, 4, 67, 0
6, 223200, Note_on_c, 4, 63, 0
6, 223200, Note_on_c, 4, 69, 60
6, 223200, Note_on_c, 4, 34, 57
6, 223230, Note_on_c, 4, 34, 0
6, 223230, Note_on_c, 4, 33, 67
6, 223260, Note_on_c, 4, 33, 0
6, 223260, Note_on_c, 4, 34, 62
6, 223290, Note_on_c, 4, 34, 0
6, 223290, Note_on_c, 4, 60, 67
6, 223290, Note_on_c, 4, 33, 78
6, 223320, Note_on_c, 4, 33, 0
6, 223320, Note_on_c, 4, 60, 0
6, 223320, Note_on_c, 4, 66, 76
6, 223320, Note_on_c, 4, 34, 61
6, 223350, Note_on_c, 4, 34, 0
6, 223350, Note_on_c, 4, 33, 65
6, 223380, Note_on_c, 4, 33, 0
6, 223380, Note_on_c, 4, 66, 0
6, 223380, Note_on_c, 4, 69, 0
6, 223380, Note_on_c, 4, 72, 45
6, 223380, Note_on_c, 4, 69, 55
6, 223380, Note_on_c, 4, 66, 67
6, 223380, Note_on_c, 4, 63, 55
6, 223380, Note_on_c, 4, 34, 63
6, 223410, Note_on_c, 4, 34, 0
6, 223410, Note_on_c, 4, 33, 72
6, 223440, Note_on_c, 4, 33, 0
6, 223440, Note_on_c, 4, 63, 0
6, 223440, Note_on_c, 4, 72, 0
6, 223440, Note_on_c, 4, 69, 0
6, 223440, Note_on_c, 4, 66, 0
6, 223440, Note_on_c, 4, 75, 49
6, 223440, Note_on_c, 4, 34, 68
6, 223470, Note_on_c, 4, 34, 0
6, 223470, Note_on_c, 4, 33, 65
6, 223500, Note_on_c, 4, 33, 0
6, 223500, Note_on_c, 4, 34, 62
6, 223530, Note_on_c, 4, 34, 0
6, 223530, Note_on_c, 4, 66, 73
6, 223530, Note_on_c, 4, 33, 65
6, 223560, Note_on_c, 4, 33, 0
6, 223560, Note_on_c, 4, 66, 0
6, 223560, Note_on_c, 4, 72, 44
6, 223560, Note_on_c, 4, 66, 72
6, 223560, Note_on_c, 4, 34, 65
6, 223590, Note_on_c, 4, 34, 0
6, 223590, Note_on_c, 4, 33, 64
6, 223620, Note_on_c, 4, 33, 0
6, 223620, Note_on_c, 4, 66, 0
6, 223620, Note_on_c, 4, 72, 0
6, 223620, Note_on_c, 4, 75, 0
6, 223620, Note_on_c, 4, 74, 71
6, 223620, Note_on_c, 4, 70, 65
6, 223620, Note_on_c, 4, 65, 46
6, 223620, Note_on_c, 4, 34, 70
6, 223650, Note_on_c, 4, 34, 0
6, 223650, Note_on_c, 4, 33, 69
6, 223680, Note_on_c, 4, 33, 0
6, 223680, Note_on_c, 4, 65, 0
6, 223680, Note_on_c, 4, 70, 0
6, 223680, Note_on_c, 4, 74, 0
6, 223680, Note_on_c, 4, 74, 54
6, 223680, Note_on_c, 4, 70, 57
6, 223680, Note_on_c, 4, 65, 45
6, 223680, Note_on_c, 4, 62, 65
6, 223680, Note_on_c, 4, 34, 57
6, 223710, Note_on_c, 4, 34, 0
6, 223710, Note_on_c, 4, 33, 67
6, 223740, Note_on_c, 4, 33, 0
6, 223740, Note_on_c, 4, 62, 0
6, 223740, Note_on_c, 4, 65, 0
6, 223740, Note_on_c, 4, 34, 62
6, 223770, Note_on_c, 4, 34, 0
6, 223770, Note_on_c, 4, 58, 74
6, 223770, Note_on_c, 4, 33, 78
6, 223800, Note_on_c, 4, 33, 0
6, 223800, Note_on_c, 4, 74, 0
6, 223800, Note_on_c, 4, 70, 0
6, 223800, Note_on_c, 4, 58, 0
6, 223800, Note_on_c, 4, 62, 61
6, 223800, Note_on_c, 4, 34, 61
6, 223830, Note_on_c, 4, 34, 0
6, 223830, Note_on_c, 4, 33, 65
6, 223860, Note_on_c, 4, 33, 0
6, 223860, Note_on_c, 4, 62, 0
6, 223860, Note_on_c, 4, 58, 73
6, 223860, Note_on_c, 4, 34, 63
6, 223890, Note_on_c, 4, 34, 0
6, 223890, Note_on_c, 4, 33, 72
6, 223920, Note_on_c, 4, 33, 0
6, 223920, Note_on_c, 4, 58, 0
6, 223920, Note_on_c, 4, 66, 77
6, 223920, Note_on_c, 4, 34, 68
6, 223950, Note_on_c, 4, 34, 0
6, 223950, Note_on_c, 4, 33, 65
6, 223980, Note_on_c, 4, 33, 0
6, 223980, Note_on_c, 4, 34, 62
6, 224010, Note_on_c, 4, 34, 0
6, 224010, Note_on_c, 4, 57, 95
6, 224010, Note_on_c, 4, 33, 65
6, 224040, Note_on_c, 4, 33, 0
6, 224040, Note_on_c, 4, 57, 0
6, 224040, Note_on_c, 4, 63, 69
6, 224040, Note_on_c, 4, 34, 65
6, 224070, Note_on_c, 4, 34, 0
6, 224070, Note_on_c, 4, 33, 64
6, 224100, Note_on_c, 4, 33, 0
6, 224100, Note_on_c, 4, 63, 0
6, 224100, Note_on_c, 4, 57, 98
6, 224100, Note_on_c, 4, 34, 70
6, 224130, Note_on_c, 4, 34, 0
6, 224130, Note_on_c, 4, 33, 69
6, 224160, Note_on_c, 4, 33, 0
6, 224160, Note_on_c, 4, 57, 0
6, 224160, Note_on_c, 4, 66, 0
6, 224160, Note_on_c, 4, 63, 68
6, 224160, Note_on_c, 4, 34, 57
6, 224190, Note_on_c, 4, 34, 0
6, 224190, Note_on_c, 4, 33, 67
6, 224220, Note_on_c, 4, 33, 0
6, 224220, Note_on_c, 4, 34, 62
6, 224250, Note_on_c, 4, 34, 0
6, 224250, Note_on_c, 4, 54, 71
6, 224250, Note_on_c, 4, 33, 78
6, 224280, Note_on_c, 4, 33, 0
6, 224280, Note_on_c, 4, 54, 0
6, 224280, Note_on_c, 4, 60, 73
6, 224280, Note_on_c, 4, 34, 61
6, 224310, Note_on_c, 4, 34, 0
6, 224310, Note_on_c, 4, 33, 65
6, 224340, Note_on_c, 4, 33, 0
6, 224340, Note_on_c, 4, 60, 0
6, 224340, Note_on_c, 4, 54, 76
6, 224340, Note_on_c, 4, 34, 63
6, 224370, Note_on_c, 4, 34, 0
6, 224370, Note_on_c, 4, 33, 72
6, 224400, Note_on_c, 4, 33, 0
6, 224400, Note_on_c, 4, 54, 0
6, 224400, Note_on_c, 4, 63, 0
6, 224400, Note_on_c, 4, 60, 84
6, 224400, Note_on_c, 4, 34, 68
6, 224430, Note_on_c, 4, 34, 0
6, 224430, Note_on_c, 4, 33, 65
6, 224460, Note_on_c, 4, 33, 0
6, 224460, Note_on_c, 4, 34, 62
6, 224490, Note_on_c, 4, 34, 0
6, 224490, Note_on_c, 4, 51, 85
6, 224490, Note_on_c, 4, 33, 65
6, 224520, Note_on_c, 4, 33, 0
6, 224520, Note_on_c, 4, 51, 0
6, 224520, Note_on_c, 4, 57, 80
6, 224520, Note_on_c, 4, 34, 65
6, 224550, Note_on_c, 4, 34, 0
6, 224550, Note_on_c, 4, 33, 64
6, 224580, Note_on_c, 4, 33, 0
6, 224580, Note_on_c, 4, 57, 0
6, 224580, Note_on_c, 4, 51, 80
6, 224580, Note_on_c, 4, 34, 70
6, 224610, Note_on_c, 4, 34, 0
6, 224610, Note_on_c, 4, 33, 69
6, 224640, Note_on_c, 4, 33, 0
6, 224640, Note_on_c, 4, 51, 0
6, 224640, Note_on_c, 4, 60, 0
6, 224640, Note_on_c, 4, 62, 65
6, 224640, Note_on_c, 4, 34, 57
6, 224670, Note_on_c, 4, 34, 0
6, 224670, Note_on_c, 4, 33, 67
6, 224700, Note_on_c, 4, 33, 0
6, 224700, Note_on_c, 4, 34, 62
6, 224730, Note_on_c, 4, 34, 0
6, 224730, Note_on_c, 4, 53, 72
6, 224730, Note_on_c, 4, 33, 78
6, 224760, Note_on_c, 4, 33, 0
6, 224760, Note_on_c, 4, 53, 0
6, 224760, Note_on_c, 4, 58, 74
6, 224760, Note_on_c, 4, 34, 61
6, 224790, Note_on_c, 4, 34, 0
6, 224790, Note_on_c, 4, 33, 65
6, 224820, Note_on_c, 4, 33, 0
6, 224820, Note_on_c, 4, 58, 0
6, 224820, Note_on_c, 4, 53, 84
6, 224820, Note_on_c, 4, 34, 63
6, 224850, Note_on_c, 4, 34, 0
6, 224850, Note_on_c, 4, 33, 72
6, 224880, Note_on_c, 4, 33, 0
6, 224880, Note_on_c, 4, 53, 0
6, 224880, Note_on_c, 4, 62, 0
6, 224880, Note_on_c, 4, 60, 72
6, 224880, Note_on_c, 4, 34, 68
6, 224910, Note_on_c, 4, 34, 0
6, 224910, Note_on_c, 4, 33, 65
6, 224940, Note_on_c, 4, 33, 0
6, 224940, Note_on_c, 4, 34, 62
6, 224970, Note_on_c, 4, 34, 0
6, 224970, Note_on_c, 4, 51, 89
6, 224970, Note_on_c, 4, 33, 65
6, 225000, Note_on_c, 4, 33, 0
6, 225000, Note_on_c, 4, 51, 0
6, 225000, Note_on_c, 4, 54, 74
6, 225000, Note_on_c, 4, 34, 65
6, 225030, Note_on_c, 4, 34, 0
6, 225030, Note_on_c, 4, 33, 64
6, 225060, Note_on_c, 4, 33, 0
6, 225060, Note_on_c, 4, 54, 0
6, 225060, Note_on_c, 4, 51, 81
6, 225060, Note_on_c, 4, 34, 70
6, 225090, Note_on_c, 4, 34, 0
6, 225090, Note_on_c, 4, 33, 69
6, 225120, Note_on_c, 4, 33, 0
6, 225120, Note_on_c, 4, 51, 0
6, 225120, Note_on_c, 4, 60, 0
6, 225120, Note_on_c, 4, 59, 71
6, 225120, Note_on_c, 4, 34, 57
6, 225150, Note_on_c, 4, 34, 0
6, 225150, Note_on_c, 4, 33, 67
6, 225180, Note_on_c, 4, 33, 0
6, 225180, Note_on_c, 4, 34, 62
6, 225210, Note_on_c, 4, 34, 0
6, 225210, Note_on_c, 4, 51, 78
6, 225210, Note_on_c, 4, 33, 78
6, 225240, Note_on_c, 4, 33, 0
6, 225240, Note_on_c, 4, 51, 0
6, 225240, Note_on_c, 4, 54, 73
6, 225240, Note_on_c, 4, 34, 61
6, 225270, Note_on_c, 4, 34, 0
6, 225270, Note_on_c, 4, 33, 65
6, 225300, Note_on_c, 4, 33, 0
6, 225300, Note_on_c, 4, 54, 0
6, 225300, Note_on_c, 4, 51, 82
6, 225300, Note_on_c, 4, 34, 63
6, 225330, Note_on_c, 4, 34, 0
6, 225330, Note_on_c, 4, 33, 72
6, 225360, Note_on_c, 4, 33, 0
6, 225360, Note_on_c, 4, 51, 0
6, 225360, Note_on_c, 4, 59, 0
6, 225360, Note_on_c, 4, 60, 69
6, 225360, Note_on_c, 4, 34, 68
6, 225390, Note_on_c, 4, 34, 0
6, 225390, Note_on_c, 4, 33, 65
6, 225420, Note_on_c, 4, 33, 0
6, 225420, Note_on_c, 4, 34, 62
6, 225450, Note_on_c, 4, 34, 0
6, 225450, Note_on_c, 4, 51, 77
6, 225450, Note_on_c, 4, 33, 65
6, 225480, Note_on_c, 4, 33, 0
6, 225480, Note_on_c, 4, 51, 0
6, 225480, Note_on_c, 4, 54, 77
6, 225480, Note_on_c, 4, 34, 65
6, 225510, Note_on_c, 4, 34, 0
6, 225510, Note_on_c, 4, 33, 64
6, 225540, Note_on_c, 4, 33, 0
6, 225540, Note_on_c, 4, 54, 0
6, 225540, Note_on_c, 4, 51, 82
6, 225540, Note_on_c, 4, 34, 70
6, 225570, Note_on_c, 4, 34, 0
6, 225570, Note_on_c, 4, 33, 69
6, 225600, Note_on_c, 4, 33, 0
6, 225600, Note_on_c, 4, 51, 0
6, 225600, Note_on_c, 4, 60, 0
6, 225600, Note_on_c, 4, 60, 48
6, 225600, Note_on_c, 4, 57, 51
6, 225600, Note_on_c, 4, 54, 43
6, 225600, Note_on_c, 4, 51, 45
6, 225600, Note_on_c, 4, 46, 53
6, 225600, Note_on_c, 4, 34, 57
6, 225720, Note_on_c, 4, 34, 0
6, 225720, Note_on_c, 4, 57, 0
6, 225720, Note_on_c, 4, 54, 0
6, 225720, Note_on_c, 4, 60, 0
6, 225720, Note_on_c, 4, 46, 0
6, 225720, Note_on_c, 4, 51, 0
6, 226080, Note_on_c, 4, 62, 46
6, 226080, Note_on_c, 4, 58, 40
6, 226080, Note_on_c, 4, 53, 44
6, 226080, Note_on_c, 4, 50, 50
6, 226080, Note_on_c, 4, 46, 62
6, 226080, Note_on_c, 4, 34, 66
6, 226200, Note_on_c, 4, 34, 0
6, 226200, Note_on_c, 4, 58, 0
6, 226200, Note_on_c, 4, 53, 0
6, 226200, Note_on_c, 4, 62, 0
6, 226200, Note_on_c, 4, 46, 0
6, 226200, Note_on_c, 4, 50, 0
6, 226560, Note_on_c, 4, 62, 58
6, 226560, Note_on_c, 4, 58, 45
6, 226560, Note_on_c, 4, 53, 43
6, 226560, Note_on_c, 4, 50, 57
6, 226560, Note_on_c, 4, 46, 57
6, 226560, Note_on_c, 4, 34, 73
6, 226680, Note_on_c, 4, 34, 0
6, 226680, Note_on_c, 4, 58, 0
6, 226680, Note_on_c, 4, 53, 0
6, 226680, Note_on_c, 4, 62, 0
6, 226680, Note_on_c, 4, 46, 0
6, 226680, Note_on_c, 4, 50, 0
6, 226800, Note_on_c, 4, 62, 56
6, 226800, Note_on_c, 4, 58, 45
6, 226800, Note_on_c, 4, 53, 52
6, 226800, Note_on_c, 4, 50, 61
6, 226800, Note_on_c, 4, 46, 41
6, 226800, Note_on_c, 4, 34, 72
6, 226920, Note_on_c, 4, 34, 0
6, 226920, Note_on_c, 4, 58, 0
6, 226920, Note_on_c, 4, 53, 0
6, 226920, Note_on_c, 4, 62, 0
6, 226920, Note_on_c, 4, 46, 0
6, 226920, Note_on_c, 4, 50, 0
6, 227040, Note_on_c, 4, 46, 74
6, 227070, Note_on_c, 4, 46, 0
6, 227070, Note_on_c, 4, 48, 72
6, 227100, Note_on_c, 4, 48, 0
6, 227100, Note_on_c, 4, 50, 76
6, 227130, Note_on_c, 4, 50, 0
6, 227130, Note_on_c, 4, 51, 81
6, 227160, Note_on_c, 4, 51, 0
6, 227160, Note_on_c, 4, 53, 80
6, 227190, Note_on_c, 4, 53, 0
6, 227190, Note_on_c, 4, 55, 72
6, 227220, Note_on_c, 4, 55, 0
6, 227220, Note_on_c, 4, 57, 95
6, 227250, Note_on_c, 4, 57, 0
6, 227250, Note_on_c, 4, 58, 82
6, 227280, Note_on_c, 4, 58, 0
6, 227280, Note_on_c, 4, 57, 94
6, 227310, Note_on_c, 4, 57, 0
6, 227310, Note_on_c, 4, 55, 76
6, 227340, Note_on_c, 4, 55, 0
6, 227340, Note_on_c, 4, 53, 76
6, 227370, Note_on_c, 4, 53, 0
6, 227370, Note_on_c, 4, 51, 89
6, 227400, Note_on_c, 4, 51, 0
6, 227400, Note_on_c, 4, 50, 99
6, 227430, Note_on_c, 4, 50, 0
6, 227430, Note_on_c, 4, 48, 85
6, 227460, Note_on_c, 4, 48, 0
6, 227460, Note_on_c, 4, 46, 89
6, 227490, Note_on_c, 4, 46, 0
6, 227490, Note_on_c, 4, 48, 99
6, 227520, Note_on_c, 4, 48, 0
6, 227520, Note_on_c, 4, 50, 89
6, 227520, Note_on_c, 4, 46, 89
6, 227550, Note_on_c, 4, 46, 0
6, 227550, Note_on_c, 4, 50, 0
6, 227550, Note_on_c, 4, 51, 84
6, 227550, Note_on_c, 4, 48, 89
6, 227580, Note_on_c, 4, 48, 0
6, 227580, Note_on_c, 4, 51, 0
6, 227580, Note_on_c, 4, 53, 84
6, 227580, Note_on_c, 4, 50, 84
6, 227610, Note_on_c, 4, 50, 0
6, 227610, Note_on_c, 4, 53, 0
6, 227610, Note_on_c, 4, 55, 76
6, 227610, Note_on_c, 4, 51, 94
6, 227640, Note_on_c, 4, 51, 0
6, 227640, Note_on_c, 4, 55, 0
6, 227640, Note_on_c, 4, 57, 89
6, 227640, Note_on_c, 4, 53, 84
6, 227670, Note_on_c, 4, 53, 0
6, 227670, Note_on_c, 4, 57, 0
6, 227670, Note_on_c, 4, 58, 84
6, 227670, Note_on_c, 4, 55, 78
6, 227700, Note_on_c, 4, 55, 0
6, 227700, Note_on_c, 4, 58, 0
6, 227700, Note_on_c, 4, 60, 82
6, 227700, Note_on_c, 4, 57, 98
6, 227730, Note_on_c, 4, 57, 0
6, 227730, Note_on_c, 4, 60, 0
6, 227730, Note_on_c, 4, 62, 84
6, 227730, Note_on_c, 4, 58, 89
6, 227760, Note_on_c, 4, 58, 0
6, 227760, Note_on_c, 4, 62, 0
6, 227760, Note_on_c, 4, 60, 85
6, 227760, Note_on_c, 4, 57, 101
6, 227790, Note_on_c, 4, 57, 0
6, 227790, Note_on_c, 4, 60, 0
6, 227790, Note_on_c, 4, 58, 86
6, 227790, Note_on_c, 4, 55, 89
6, 227820, Note_on_c, 4, 55, 0
6, 227820, Note_on_c, 4, 58, 0
6, 227820, Note_on_c, 4, 57, 98
6, 227820, Note_on_c, 4, 53, 85
6, 227850, Note_on_c, 4, 53, 0
6, 227850, Note_on_c, 4, 57, 0
6, 227850, Note_on_c, 4, 55, 78
6, 227850, Note_on_c, 4, 51, 89
6, 227880, Note_on_c, 4, 51, 0
6, 227880, Note_on_c, 4, 55, 0
6, 227880, Note_on_c, 4, 53, 89
6, 227880, Note_on_c, 4, 50, 99
6, 227910, Note_on_c, 4, 50, 0
6, 227910, Note_on_c, 4, 53, 0
6, 227910, Note_on_c, 4, 51, 93
6, 227910, Note_on_c, 4, 48, 86
6, 227940, Note_on_c, 4, 48, 0
6, 227940, Note_on_c, 4, 51, 0
6, 227940, Note_on_c, 4, 50, 93
6, 227940, Note_on_c, 4, 46, 86
6, 227970, Note_on_c, 4, 46, 0
6, 227970, Note_on_c, 4, 50, 0
6, 227970, Note_on_c, 4, 51, 85
6, 227970, Note_on_c, 4, 48, 90
6, 228000, Note_on_c, 4, 48, 0
6, 228000, Note_on_c, 4, 51, 0
6, 228000, Note_on_c, 4, 53, 84
6, 228000, Note_on_c, 4, 50, 89
6, 228030, Note_on_c, 4, 50, 0
6, 228030, Note_on_c, 4, 53, 0
6, 228030, Note_on_c, 4, 55, 89
6, 228030, Note_on_c, 4, 51, 94
6, 228060, Note_on_c, 4, 51, 0
6, 228060, Note_on_c, 4, 55, 0
6, 228060, Note_on_c, 4, 57, 98
6, 228060, Note_on_c, 4, 48, 93
6, 228090, Note_on_c, 4, 48, 0
6, 228090, Note_on_c, 4, 57, 0
6, 228090, Note_on_c, 4, 58, 84
6, 228090, Note_on_c, 4, 50, 94
6, 228120, Note_on_c, 4, 50, 0
6, 228120, Note_on_c, 4, 58, 0
6, 228120, Note_on_c, 4, 60, 94
6, 228120, Note_on_c, 4, 51, 93
6, 228150, Note_on_c, 4, 51, 0
6, 228150, Note_on_c, 4, 60, 0
6, 228150, Note_on_c, 4, 62, 89
6, 228150, Note_on_c, 4, 53, 89
6, 228180, Note_on_c, 4, 53, 0
6, 228180, Note_on_c, 4, 62, 0
6, 228180, Note_on_c, 4, 63, 89
6, 228180, Note_on_c, 4, 55, 89
6, 228210, Note_on_c, 4, 55, 0
6, 228210, Note_on_c, 4, 63, 0
6, 228210, Note_on_c, 4, 65, 98
6, 228210, Note_on_c, 4, 57, 104
6, 228240, Note_on_c, 4, 57, 0
6, 228240, Note_on_c, 4, 65, 0
6, 228240, Note_on_c, 4, 67, 89
6, 228240, Note_on_c, 4, 58, 89
6, 228270, Note_on_c, 4, 58, 0
6, 228270, Note_on_c, 4, 67, 0
6, 228270, Note_on_c, 4, 69, 99
6, 228270, Note_on_c, 4, 60, 94
6, 228300, Note_on_c, 4, 60, 0
6, 228300, Note_on_c, 4, 69, 0
6, 228300, Note_on_c, 4, 70, 99
6, 228300, Note_on_c, 4, 62, 85
6, 228330, Note_on_c, 4, 62, 0
6, 228330, Note_on_c, 4, 70, 0
6, 228330, Note_on_c, 4, 69, 98
6, 228330, Note_on_c, 4, 60, 98
6, 228360, Note_on_c, 4, 60, 0
6, 228360, Note_on_c, 4, 69, 0
6, 228360, Note_on_c, 4, 67, 89
6, 228360, Note_on_c, 4, 58, 90
6, 228390, Note_on_c, 4, 58, 0
6, 228390, Note_on_c, 4, 67, 0
6, 228390, Note_on_c, 4, 65, 89
6, 228390, Note_on_c, 4, 57, 105
6, 228420, Note_on_c, 4, 57, 0
6, 228420, Note_on_c, 4, 65, 0
6, 228420, Note_on_c, 4, 63, 93
6, 228420, Note_on_c, 4, 55, 94
6, 228450, Note_on_c, 4, 55, 0
6, 228450, Note_on_c, 4, 63, 0
6, 228450, Note_on_c, 4, 62, 98
6, 228450, Note_on_c, 4, 53, 95
6, 228480, Note_on_c, 4, 53, 0
6, 228480, Note_on_c, 4, 62, 0
6, 228480, Note_on_c, 4, 60, 90
6, 228480, Note_on_c, 4, 51, 95
6, 228510, Note_on_c, 4, 51, 0
6, 228510, Note_on_c, 4, 60, 0
6, 228510, Note_on_c, 4, 58, 98
6, 228510, Note_on_c, 4, 50, 105
6, 228540, Note_on_c, 4, 50, 0
6, 228540, Note_on_c, 4, 58, 0
6, 228540, Note_on_c, 4, 60, 89
6, 228540, Note_on_c, 4, 51, 99
6, 228570, Note_on_c, 4, 51, 0
6, 228570, Note_on_c, 4, 60, 0
6, 228570, Note_on_c, 4, 62, 94
6, 228570, Note_on_c, 4, 53, 95
6, 228600, Note_on_c, 4, 53, 0
6, 228600, Note_on_c, 4, 62, 0
6, 228600, Note_on_c, 4, 63, 95
6, 228600, Note_on_c, 4, 55, 89
6, 228630, Note_on_c, 4, 55, 0
6, 228630, Note_on_c, 4, 63, 0
6, 228630, Note_on_c, 4, 65, 90
6, 228630, Note_on_c, 4, 57, 110
6, 228660, Note_on_c, 4, 57, 0
6, 228660, Note_on_c, 4, 65, 0
6, 228660, Note_on_c, 4, 67, 94
6, 228660, Note_on_c, 4, 58, 95
6, 228690, Note_on_c, 4, 58, 0
6, 228690, Note_on_c, 4, 67, 0
6, 228690, Note_on_c, 4, 69, 105
6, 228690, Note_on_c, 4, 60, 101
6, 228720, Note_on_c, 4, 60, 0
6, 228720, Note_on_c, 4, 69, 0
6, 228720, Note_on_c, 4, 70, 115
6, 228720, Note_on_c, 4, 62, 101
6, 228750, Note_on_c, 4, 62, 0
6, 228750, Note_on_c, 4, 70, 0
6, 228750, Note_on_c, 4, 72, 99
6, 228750, Note_on_c, 4, 63, 112
6, 228780, Note_on_c, 4, 63, 0
6, 228780, Note_on_c, 4, 72, 0
6, 228780, Note_on_c, 4, 74, 112
6, 228780, Note_on_c, 4, 65, 112
6, 228810, Note_on_c, 4, 65, 0
6, 228810, Note_on_c, 4, 74, 0
6, 228810, Note_on_c, 4, 75, 119
6, 228810, Note_on_c, 4, 67, 105
6, 228840, Note_on_c, 4, 67, 0
6, 228840, Note_on_c, 4, 75, 0
6, 228840, Note_on_c, 4, 77, 110
6, 228840, Note_on_c, 4, 69, 112
6, 228870, Note_on_c, 4, 69, 0
6, 228870, Note_on_c, 4, 77, 0
6, 228870, Note_on_c, 4, 79, 112
6, 228870, Note_on_c, 4, 70, 112
6, 228900, Note_on_c, 4, 70, 0
6, 228900, Note_on_c, 4, 79, 0
6, 228900, Note_on_c, 4, 81, 110
6, 228900, Note_on_c, 4, 72, 99
6, 228930, Note_on_c, 4, 72, 0
6, 228930, Note_on_c, 4, 81, 0
6, 228930, Note_on_c, 4, 82, 112
6, 228930, Note_on_c, 4, 74, 110
6, 228960, Note_on_c, 4, 74, 0
6, 228960, Note_on_c, 4, 82, 0
6, 228960, Note_on_c, 4, 84, 105
6, 228960, Note_on_c, 4, 75, 112
6, 228990, Note_on_c, 4, 75, 0
6, 228990, Note_on_c, 4, 84, 0
6, 228990, Note_on_c, 4, 86, 112
6, 228990, Note_on_c, 4, 77, 99
6, 229020, Note_on_c, 4, 77, 0
6, 229020, Note_on_c, 4, 86, 0
6, 229020, Note_on_c, 4, 87, 115
6, 229020, Note_on_c, 4, 79, 104
6, 229050, Note_on_c, 4, 79, 0
6, 229050, Note_on_c, 4, 87, 0
6, 229050, Note_on_c, 4, 89, 112
6, 229050, Note_on_c, 4, 81, 104
6, 229080, Note_on_c, 4, 81, 0
6, 229080, Note_on_c, 4, 89, 0
6, 229080, Note_on_c, 4, 91, 112
6, 229080, Note_on_c, 4, 82, 112
6, 229110, Note_on_c, 4, 82, 0
6, 229110, Note_on_c, 4, 91, 0
6, 229110, Note_on_c, 4, 93, 119
6, 229110, Note_on_c, 4, 84, 115
6, 229140, Note_on_c, 4, 84, 0
6, 229140, Note_on_c, 4, 93, 0
6, 229140, Note_on_c, 4, 93, 101
6, 229140, Note_on_c, 4, 84, 94
6, 229160, Note_on_c, 4, 84, 0
6, 229160, Note_on_c, 4, 93, 0
6, 229160, Note_on_c, 4, 94, 89
6, 229160, Note_on_c, 4, 86, 104
6, 229180, Note_on_c, 4, 86, 0
6, 229180, Note_on_c, 4, 94, 0
6, 229180, Note_on_c, 4, 93, 99
6, 229180, Note_on_c, 4, 84, 98
6, 229200, Note_on_c, 4, 84, 0
6, 229200, Note_on_c, 4, 93, 0
6, 229200, Note_on_c, 4, 94, 95
6, 229200, Note_on_c, 4, 86, 104
6, 229215, Note_on_c, 4, 86, 0
6, 229215, Note_on_c, 4, 94, 0
6, 229215, Note_on_c, 4, 93, 99
6, 229215, Note_on_c, 4, 84, 95
6, 229230, Note_on_c, 4, 84, 0
6, 229230, Note_on_c, 4, 93, 0
6, 229230, Note_on_c, 4, 94, 93
6, 229230, Note_on_c, 4, 86, 105
6, 229245, Note_on_c, 4, 86, 0
6, 229245, Note_on_c, 4, 94, 0
6, 229245, Note_on_c, 4, 93, 99
6, 229245, Note_on_c, 4, 84, 98
6, 229260, Note_on_c, 4, 84, 0
6, 229260, Note_on_c, 4, 93, 0
6, 229260, Note_on_c, 4, 94, 95
6, 229260, Note_on_c, 4, 86, 105
6, 229280, Note_on_c, 4, 86, 0
6, 229280, Note_on_c, 4, 94, 0
6, 229280, Note_on_c, 4, 93, 107
6, 229280, Note_on_c, 4, 84, 95
6, 229300, Note_on_c, 4, 84, 0
6, 229300, Note_on_c, 4, 93, 0
6, 229300, Note_on_c, 4, 94, 99
6, 229300, Note_on_c, 4, 86, 105
6, 229320, Note_on_c, 4, 86, 0
6, 229320, Note_on_c, 4, 94, 0
6, 229320, Note_on_c, 4, 93, 104
6, 229320, Note_on_c, 4, 84, 98
6, 229335, Note_on_c, 4, 84, 0
6, 229335, Note_on_c, 4, 93, 0
6, 229335, Note_on_c, 4, 94, 94
6, 229335, Note_on_c, 4, 86, 105
6, 229350, Note_on_c, 4, 86, 0
6, 229350, Note_on_c, 4, 94, 0
6, 229350, Note_on_c, 4, 93, 104
6, 229350, Note_on_c, 4, 84, 95
6, 229365, Note_on_c, 4, 84, 0
6, 229365, Note_on_c, 4, 93, 0
6, 229365, Note_on_c, 4, 94, 99
6, 229365, Note_on_c, 4, 86, 104
6, 229380, Note_on_c, 4, 86, 0
6, 229380, Note_on_c, 4, 94, 0
6, 229380, Note_on_c, 4, 93, 101
6, 229380, Note_on_c, 4, 84, 99
6, 229400, Note_on_c, 4, 84, 0
6, 229400, Note_on_c, 4, 93, 0
6, 229400, Note_on_c, 4, 94, 94
6, 229400, Note_on_c, 4, 86, 99
6, 229420, Note_on_c, 4, 86, 0
6, 229420, Note_on_c, 4, 94, 0
6, 229420, Note_on_c, 4, 93, 99
6, 229420, Note_on_c, 4, 84, 101
6, 229440, Note_on_c, 4, 84, 0
6, 229440, Note_on_c, 4, 93, 0
6, 229440, Note_on_c, 4, 94, 119
6, 229440, Note_on_c, 4, 86, 123
6, 229500, Note_on_c, 4, 86, 0
6, 229500, Note_on_c, 4, 94, 0
6, 229500, End_track
7, 0, Start_track
7, 0, MIDI_port, 0
7, 0, Title_t, "1st Violins"
7, 0, Control_c, 5, 7, 100
7, 0, Control_c, 5, 10, 26
7, 0, Control_c, 5, 93, 0
7, 0, Control_c, 5, 91, 66
7, 0, Program_c, 5, 48
7, 0, Note_on_c, 5, 82, 93
7, 0, Note_on_c, 5, 70, 89
7, 0, Note_on_c, 5, 62, 95
7, 180, Note_on_c, 5, 62, 0
7, 180, Note_on_c, 5, 70, 0
7, 180, Note_on_c, 5, 82, 0
7, 210, Note_on_c, 5, 58, 94
7, 240, Note_on_c, 5, 58, 0
7, 240, Note_on_c, 5, 65, 94
7, 270, Note_on_c, 5, 65, 0
7, 330, Note_on_c, 5, 65, 65
7, 345, Note_on_c, 5, 65, 0
7, 360, Note_on_c, 5, 62, 101
7, 390, Note_on_c, 5, 62, 0
7, 450, Note_on_c, 5, 62, 82
7, 465, Note_on_c, 5, 62, 0
7, 480, Note_on_c, 5, 58, 94
7, 600, Note_on_c, 5, 58, 0
7, 780, Note_on_c, 5, 65, 76
7, 840, Note_on_c, 5, 65, 0
7, 840, Note_on_c, 5, 74, 69
7, 900, Note_on_c, 5, 74, 0
7, 900, Note_on_c, 5, 70, 62
7, 960, Note_on_c, 5, 70, 0
7, 960, Note_on_c, 5, 69, 68
7, 1140, Note_on_c, 5, 69, 0
7, 1140, Note_on_c, 5, 70, 67
7, 1200, Note_on_c, 5, 70, 0
7, 1200, Note_on_c, 5, 72, 69
7, 1260, Note_on_c, 5, 72, 0
7, 1260, Note_on_c, 5, 74, 69
7, 1320, Note_on_c, 5, 74, 0
7, 1320, Note_on_c, 5, 75, 64
7, 1380, Note_on_c, 5, 75, 0
7, 1380, Note_on_c, 5, 72, 81
7, 1440, Note_on_c, 5, 72, 0
7, 1440, Note_on_c, 5, 69, 51
7, 1560, Note_on_c, 5, 69, 0
7, 1920, Control_c, 5, 7, 100
7, 1920, Control_c, 5, 10, 26
7, 1920, Control_c, 5, 93, 0
7, 1920, Control_c, 5, 91, 66
7, 1920, Note_on_c, 5, 84, 99
7, 1920, Note_on_c, 5, 75, 94
7, 1920, Note_on_c, 5, 65, 104
7, 2040, Control_c, 5, 7, 100
7, 2040, Control_c, 5, 10, 26
7, 2040, Control_c, 5, 93, 0
7, 2040, Control_c, 5, 91, 66
7, 2100, Note_on_c, 5, 65, 0
7, 2100, Note_on_c, 5, 75, 0
7, 2100, Note_on_c, 5, 84, 0
7, 2130, Note_on_c, 5, 65, 105
7, 2160, Note_on_c, 5, 65, 0
7, 2160, Note_on_c, 5, 72, 84
7, 2190, Note_on_c, 5, 72, 0
7, 2250, Note_on_c, 5, 72, 81
7, 2265, Note_on_c, 5, 72, 0
7, 2280, Note_on_c, 5, 69, 105
7, 2310, Note_on_c, 5, 69, 0
7, 2370, Note_on_c, 5, 69, 94
7, 2385, Note_on_c, 5, 69, 0
7, 2400, Note_on_c, 5, 65, 104
7, 2520, Note_on_c, 5, 65, 0
7, 2700, Note_on_c, 5, 69, 45
7, 2760, Note_on_c, 5, 69, 0
7, 2760, Note_on_c, 5, 75, 65
7, 2820, Note_on_c, 5, 75, 0
7, 2820, Note_on_c, 5, 72, 35
7, 2880, Note_on_c, 5, 72, 0
7, 2880, Note_on_c, 5, 70, 59
7, 3060, Note_on_c, 5, 70, 0
7, 3060, Note_on_c, 5, 72, 63
7, 3120, Note_on_c, 5, 72, 0
7, 3120, Note_on_c, 5, 74, 72
7, 3180, Note_on_c, 5, 74, 0
7, 3180, Note_on_c, 5, 75, 72
7, 3240, Note_on_c, 5, 75, 0
7, 3240, Note_on_c, 5, 77, 43
7, 3300, Note_on_c, 5, 77, 0
7, 3300, Note_on_c, 5, 74, 57
7, 3360, Note_on_c, 5, 74, 0
7, 3360, Note_on_c, 5, 70, 62
7, 3480, Note_on_c, 5, 70, 0
7, 3840, Note_on_c, 5, 58, 58
7, 3960, Note_on_c, 5, 58, 0
7, 3960, Note_on_c, 5, 70, 52
7, 4050, Note_on_c, 5, 70, 0
7, 4080, Note_on_c, 5, 70, 64
7, 4170, Note_on_c, 5, 70, 0
7, 4200, Note_on_c, 5, 70, 54
7, 4290, Note_on_c, 5, 70, 0
7, 4320, Note_on_c, 5, 71, 44
7, 4560, Note_on_c, 5, 71, 0
7, 4560, Note_on_c, 5, 72, 60
7, 4620, Note_on_c, 5, 72, 0
7, 4740, Note_on_c, 5, 70, 58
7, 4800, Note_on_c, 5, 70, 0
7, 4800, Note_on_c, 5, 70, 52
7, 4860, Note_on_c, 5, 70, 0
7, 4860, Note_on_c, 5, 69, 70
7, 4920, Note_on_c, 5, 69, 0
7, 4920, Note_on_c, 5, 67, 57
7, 4950, Note_on_c, 5, 67, 0
7, 4980, Note_on_c, 5, 65, 52
7, 5010, Note_on_c, 5, 65, 0
7, 5040, Note_on_c, 5, 65, 61
7, 5070, Note_on_c, 5, 65, 0
7, 5100, Note_on_c, 5, 77, 45
7, 5160, Note_on_c, 5, 77, 0
7, 5160, Note_on_c, 5, 76, 45
7, 5220, Note_on_c, 5, 76, 0
7, 5220, Note_on_c, 5, 75, 65
7, 5280, Note_on_c, 5, 75, 0
7, 5280, Note_on_c, 5, 73, 43
7, 5520, Note_on_c, 5, 73, 0
7, 5520, Note_on_c, 5, 74, 45
7, 5580, Note_on_c, 5, 74, 0
7, 5580, Note_on_c, 5, 77, 54
7, 5640, Note_on_c, 5, 77, 0
7, 5640, Note_on_c, 5, 75, 59
7, 5700, Note_on_c, 5, 75, 0
7, 5700, Note_on_c, 5, 72, 30
7, 5760, Note_on_c, 5, 72, 0
7, 5760, Note_on_c, 5, 70, 61
7, 5820, Note_on_c, 5, 70, 0
7, 5880, Note_on_c, 5, 82, 45
7, 5970, Note_on_c, 5, 82, 0
7, 6000, Note_on_c, 5, 82, 55
7, 6090, Note_on_c, 5, 82, 0
7, 6120, Note_on_c, 5, 82, 65
7, 6210, Note_on_c, 5, 82, 0
7, 6240, Note_on_c, 5, 83, 60
7, 6480, Note_on_c, 5, 83, 0
7, 6480, Note_on_c, 5, 84, 62
7, 6540, Note_on_c, 5, 84, 0
7, 6600, Note_on_c, 5, 82, 69
7, 6660, Note_on_c, 5, 82, 0
7, 6720, Note_on_c, 5, 82, 68
7, 6780, Note_on_c, 5, 82, 0
7, 6780, Note_on_c, 5, 81, 57
7, 6840, Note_on_c, 5, 81, 0
7, 6840, Note_on_c, 5, 79, 36
7, 6870, Note_on_c, 5, 79, 0
7, 6900, Note_on_c, 5, 77, 45
7, 6930, Note_on_c, 5, 77, 0
7, 6960, Note_on_c, 5, 77, 62
7, 7020, Note_on_c, 5, 77, 0
7, 7020, Note_on_c, 5, 75, 72
7, 7080, Note_on_c, 5, 75, 0
7, 7080, Note_on_c, 5, 74, 70
7, 7110, Note_on_c, 5, 74, 0
7, 7140, Note_on_c, 5, 72, 29
7, 7170, Note_on_c, 5, 72, 0
7, 7200, Note_on_c, 5, 70, 63
7, 7320, Note_on_c, 5, 70, 0
7, 7410, Note_on_c, 5, 70, 72
7, 7440, Note_on_c, 5, 70, 0
7, 7440, Note_on_c, 5, 77, 65
7, 7470, Note_on_c, 5, 77, 0
7, 7530, Note_on_c, 5, 77, 60
7, 7545, Note_on_c, 5, 77, 0
7, 7560, Note_on_c, 5, 74, 73
7, 7590, Note_on_c, 5, 74, 0
7, 7650, Note_on_c, 5, 74, 67
7, 7665, Note_on_c, 5, 74, 0
7, 7680, Note_on_c, 5, 70, 61
7, 7740, Note_on_c, 5, 70, 0
7, 7800, Note_on_c, 5, 74, 80
7, 7860, Note_on_c, 5, 74, 0
7, 7920, Note_on_c, 5, 77, 64
7, 7980, Note_on_c, 5, 77, 0
7, 8040, Note_on_c, 5, 82, 71
7, 8100, Note_on_c, 5, 82, 0
7, 8160, Note_on_c, 5, 81, 64
7, 8280, Note_on_c, 5, 81, 0
7, 8370, Note_on_c, 5, 81, 57
7, 8400, Note_on_c, 5, 81, 0
7, 8400, Note_on_c, 5, 87, 67
7, 8430, Note_on_c, 5, 87, 0
7, 8490, Note_on_c, 5, 87, 76
7, 8505, Note_on_c, 5, 87, 0
7, 8520, Note_on_c, 5, 84, 67
7, 8550, Note_on_c, 5, 84, 0
7, 8610, Note_on_c, 5, 84, 66
7, 8625, Note_on_c, 5, 84, 0
7, 8640, Note_on_c, 5, 81, 65
7, 8700, Note_on_c, 5, 81, 0
7, 8760, Note_on_c, 5, 77, 54
7, 8820, Note_on_c, 5, 77, 0
7, 8880, Note_on_c, 5, 75, 65
7, 8940, Note_on_c, 5, 75, 0
7, 9000, Note_on_c, 5, 72, 66
7, 9120, Note_on_c, 5, 72, 0
7, 9120, Note_on_c, 5, 70, 65
7, 9240, Note_on_c, 5, 70, 0
7, 9330, Note_on_c, 5, 70, 71
7, 9360, Note_on_c, 5, 70, 0
7, 9360, Note_on_c, 5, 77, 78
7, 9390, Note_on_c, 5, 77, 0
7, 9450, Note_on_c, 5, 77, 77
7, 9465, Note_on_c, 5, 77, 0
7, 9480, Note_on_c, 5, 74, 53
7, 9510, Note_on_c, 5, 74, 0
7, 9570, Note_on_c, 5, 74, 74
7, 9585, Note_on_c, 5, 74, 0
7, 9600, Note_on_c, 5, 70, 74
7, 9660, Note_on_c, 5, 70, 0
7, 9720, Note_on_c, 5, 74, 90
7, 9780, Note_on_c, 5, 74, 0
7, 9840, Note_on_c, 5, 77, 94
7, 9900, Note_on_c, 5, 77, 0
7, 9960, Note_on_c, 5, 82, 85
7, 10020, Note_on_c, 5, 82, 0
7, 10080, Note_on_c, 5, 80, 99
7, 10140, Note_on_c, 5, 80, 0
7, 10320, Note_on_c, 5, 56, 89
7, 10560, Note_on_c, 5, 56, 0
7, 10560, Note_on_c, 5, 55, 94
7, 10590, Note_on_c, 5, 55, 0
7, 10620, Note_on_c, 5, 79, 94
7, 10650, Note_on_c, 5, 79, 0
7, 10680, Note_on_c, 5, 79, 94
7, 10710, Note_on_c, 5, 79, 0
7, 10740, Note_on_c, 5, 79, 94
7, 10770, Note_on_c, 5, 79, 0
7, 10800, Note_on_c, 5, 79, 94
7, 10830, Note_on_c, 5, 79, 0
7, 10860, Note_on_c, 5, 79, 95
7, 10890, Note_on_c, 5, 79, 0
7, 10920, Note_on_c, 5, 79, 98
7, 10950, Note_on_c, 5, 79, 0
7, 10980, Note_on_c, 5, 81, 99
7, 11010, Note_on_c, 5, 81, 0
7, 11040, Note_on_c, 5, 82, 101
7, 11100, Note_on_c, 5, 82, 0
7, 11280, Note_on_c, 5, 58, 86
7, 11520, Note_on_c, 5, 58, 0
7, 11520, Note_on_c, 5, 57, 95
7, 11640, Note_on_c, 5, 57, 0
7, 11760, Note_on_c, 5, 82, 95
7, 12000, Note_on_c, 5, 82, 0
7, 12000, Note_on_c, 5, 81, 94
7, 12060, Note_on_c, 5, 81, 0
7, 12240, Note_on_c, 5, 82, 95
7, 12420, Note_on_c, 5, 82, 0
7, 12420, Note_on_c, 5, 80, 95
7, 12480, Note_on_c, 5, 80, 0
7, 12480, Note_on_c, 5, 81, 99
7, 12540, Note_on_c, 5, 81, 0
7, 12600, Note_on_c, 5, 78, 82
7, 12660, Note_on_c, 5, 78, 0
7, 12720, Note_on_c, 5, 79, 93
7, 12780, Note_on_c, 5, 79, 0
7, 12840, Note_on_c, 5, 76, 99
7, 12900, Note_on_c, 5, 76, 0
7, 12960, Note_on_c, 5, 77, 84
7, 13020, Note_on_c, 5, 77, 0
7, 13200, Note_on_c, 5, 78, 95
7, 13440, Note_on_c, 5, 78, 0
7, 13440, Note_on_c, 5, 77, 89
7, 13500, Note_on_c, 5, 77, 0
7, 13680, Note_on_c, 5, 78, 99
7, 13860, Note_on_c, 5, 78, 0
7, 13860, Note_on_c, 5, 76, 95
7, 13920, Note_on_c, 5, 76, 0
7, 13920, Note_on_c, 5, 77, 95
7, 13980, Note_on_c, 5, 77, 0
7, 14040, Note_on_c, 5, 73, 89
7, 14100, Note_on_c, 5, 73, 0
7, 14160, Note_on_c, 5, 72, 98
7, 14220, Note_on_c, 5, 72, 0
7, 14280, Note_on_c, 5, 71, 101
7, 14340, Note_on_c, 5, 71, 0
7, 14400, Note_on_c, 5, 72, 93
7, 14580, Note_on_c, 5, 72, 0
7, 14610, Note_on_c, 5, 72, 86
7, 14640, Note_on_c, 5, 72, 0
7, 14640, Note_on_c, 5, 79, 94
7, 14670, Note_on_c, 5, 79, 0
7, 14730, Note_on_c, 5, 79, 89
7, 14745, Note_on_c, 5, 79, 0
7, 14760, Note_on_c, 5, 76, 98
7, 14790, Note_on_c, 5, 76, 0
7, 14850, Note_on_c, 5, 76, 99
7, 14865, Note_on_c, 5, 76, 0
7, 14880, Note_on_c, 5, 77, 94
7, 15060, Note_on_c, 5, 77, 0
7, 15090, Note_on_c, 5, 77, 94
7, 15120, Note_on_c, 5, 77, 0
7, 15120, Note_on_c, 5, 84, 84
7, 15150, Note_on_c, 5, 84, 0
7, 15210, Note_on_c, 5, 84, 89
7, 15225, Note_on_c, 5, 84, 0
7, 15240, Note_on_c, 5, 80, 90
7, 15270, Note_on_c, 5, 80, 0
7, 15330, Note_on_c, 5, 80, 89
7, 15345, Note_on_c, 5, 80, 0
7, 15360, Note_on_c, 5, 82, 94
7, 15360, Note_on_c, 5, 72, 72
7, 15360, Note_on_c, 5, 64, 104
7, 15420, Note_on_c, 5, 64, 0
7, 15420, Note_on_c, 5, 72, 0
7, 15420, Note_on_c, 5, 82, 0
7, 15600, Note_on_c, 5, 80, 98
7, 15600, Note_on_c, 5, 72, 73
7, 15600, Note_on_c, 5, 65, 105
7, 15660, Note_on_c, 5, 65, 0
7, 15660, Note_on_c, 5, 72, 0
7, 15660, Note_on_c, 5, 80, 0
7, 15840, Note_on_c, 5, 79, 98
7, 15840, Note_on_c, 5, 72, 71
7, 15840, Note_on_c, 5, 64, 104
7, 15900, Note_on_c, 5, 64, 0
7, 15900, Note_on_c, 5, 72, 0
7, 15900, Note_on_c, 5, 79, 0
7, 15900, Note_on_c, 5, 84, 94
7, 15960, Note_on_c, 5, 84, 0
7, 15960, Note_on_c, 5, 83, 99
7, 16020, Note_on_c, 5, 83, 0
7, 16020, Note_on_c, 5, 84, 104
7, 16080, Note_on_c, 5, 84, 0
7, 16080, Note_on_c, 5, 83, 104
7, 16140, Note_on_c, 5, 83, 0
7, 16140, Note_on_c, 5, 84, 99
7, 16200, Note_on_c, 5, 84, 0
7, 16200, Note_on_c, 5, 79, 90
7, 16230, Note_on_c, 5, 79, 0
7, 16260, Note_on_c, 5, 76, 105
7, 16290, Note_on_c, 5, 76, 0
7, 16320, Note_on_c, 5, 72, 80
7, 16500, Note_on_c, 5, 72, 0
7, 16500, Note_on_c, 5, 74, 98
7, 16560, Note_on_c, 5, 74, 0
7, 16560, Note_on_c, 5, 76, 94
7, 16620, Note_on_c, 5, 76, 0
7, 16620, Note_on_c, 5, 77, 89
7, 16680, Note_on_c, 5, 77, 0
7, 16680, Note_on_c, 5, 79, 77
7, 16740, Note_on_c, 5, 79, 0
7, 16740, Note_on_c, 5, 76, 99
7, 16800, Note_on_c, 5, 76, 0
7, 16800, Note_on_c, 5, 77, 94
7, 16980, Note_on_c, 5, 77, 0
7, 16980, Note_on_c, 5, 79, 95
7, 17040, Note_on_c, 5, 79, 0
7, 17040, Note_on_c, 5, 80, 99
7, 17100, Note_on_c, 5, 80, 0
7, 17100, Note_on_c, 5, 82, 89
7, 17160, Note_on_c, 5, 82, 0
7, 17160, Note_on_c, 5, 84, 89
7, 17220, Note_on_c, 5, 84, 0
7, 17220, Note_on_c, 5, 80, 95
7, 17280, Note_on_c, 5, 80, 0
7, 17280, Note_on_c, 5, 82, 95
7, 17280, Note_on_c, 5, 72, 70
7, 17280, Note_on_c, 5, 64, 105
7, 17340, Note_on_c, 5, 64, 0
7, 17340, Note_on_c, 5, 72, 0
7, 17340, Note_on_c, 5, 82, 0
7, 17520, Note_on_c, 5, 80, 95
7, 17520, Note_on_c, 5, 72, 72
7, 17520, Note_on_c, 5, 65, 105
7, 17580, Note_on_c, 5, 65, 0
7, 17580, Note_on_c, 5, 72, 0
7, 17580, Note_on_c, 5, 80, 0
7, 17760, Note_on_c, 5, 79, 99
7, 17760, Note_on_c, 5, 72, 74
7, 17760, Note_on_c, 5, 64, 107
7, 17820, Note_on_c, 5, 64, 0
7, 17820, Note_on_c, 5, 72, 0
7, 17820, Note_on_c, 5, 79, 0
7, 18240, Note_on_c, 5, 60, 101
7, 18360, Note_on_c, 5, 60, 0
7, 18480, Note_on_c, 5, 60, 99
7, 18600, Note_on_c, 5, 60, 0
7, 18720, Note_on_c, 5, 60, 98
7, 18840, Note_on_c, 5, 60, 0
7, 19200, Note_on_c, 5, 61, 40
7, 19320, Note_on_c, 5, 61, 0
7, 19440, Note_on_c, 5, 61, 29
7, 19560, Note_on_c, 5, 61, 0
7, 19680, Note_on_c, 5, 61, 33
7, 19800, Note_on_c, 5, 61, 0
7, 20160, Note_on_c, 5, 61, 46
7, 20340, Note_on_c, 5, 61, 0
7, 20340, Note_on_c, 5, 63, 53
7, 20400, Note_on_c, 5, 63, 0
7, 20400, Note_on_c, 5, 65, 39
7, 20460, Note_on_c, 5, 65, 0
7, 20460, Note_on_c, 5, 66, 36
7, 20520, Note_on_c, 5, 66, 0
7, 20520, Note_on_c, 5, 68, 44
7, 20580, Note_on_c, 5, 68, 0
7, 20580, Note_on_c, 5, 65, 35
7, 20640, Note_on_c, 5, 65, 0
7, 20640, Note_on_c, 5, 61, 44
7, 20670, Note_on_c, 5, 61, 0
7, 20700, Note_on_c, 5, 80, 35
7, 20760, Note_on_c, 5, 80, 0
7, 20760, Note_on_c, 5, 76, 61
7, 20820, Note_on_c, 5, 76, 0
7, 20820, Note_on_c, 5, 77, 45
7, 20880, Note_on_c, 5, 77, 0
7, 20880, Note_on_c, 5, 72, 68
7, 20940, Note_on_c, 5, 72, 0
7, 20940, Note_on_c, 5, 73, 58
7, 21000, Note_on_c, 5, 73, 0
7, 21000, Note_on_c, 5, 68, 64
7, 21060, Note_on_c, 5, 68, 0
7, 21060, Note_on_c, 5, 65, 64
7, 21120, Note_on_c, 5, 65, 0
7, 21120, Note_on_c, 5, 63, 58
7, 21240, Note_on_c, 5, 63, 0
7, 21660, Note_on_c, 5, 78, 45
7, 21720, Note_on_c, 5, 78, 0
7, 21720, Note_on_c, 5, 77, 39
7, 21780, Note_on_c, 5, 77, 0
7, 21780, Note_on_c, 5, 75, 57
7, 21840, Note_on_c, 5, 75, 0
7, 21840, Note_on_c, 5, 73, 61
7, 21900, Note_on_c, 5, 73, 0
7, 21900, Note_on_c, 5, 72, 71
7, 21960, Note_on_c, 5, 72, 0
7, 21960, Note_on_c, 5, 75, 57
7, 22020, Note_on_c, 5, 75, 0
7, 22020, Note_on_c, 5, 66, 52
7, 22080, Note_on_c, 5, 66, 0
7, 22080, Note_on_c, 5, 65, 61
7, 22140, Note_on_c, 5, 65, 0
7, 22620, Note_on_c, 5, 77, 58
7, 22680, Note_on_c, 5, 77, 0
7, 22680, Note_on_c, 5, 73, 68
7, 22740, Note_on_c, 5, 73, 0
7, 22740, Note_on_c, 5, 70, 61
7, 22800, Note_on_c, 5, 70, 0
7, 22800, Note_on_c, 5, 65, 63
7, 22830, Note_on_c, 5, 65, 0
7, 22860, Note_on_c, 5, 65, 61
7, 22920, Note_on_c, 5, 65, 0
7, 22920, Note_on_c, 5, 61, 44
7, 22980, Note_on_c, 5, 61, 0
7, 22980, Note_on_c, 5, 58, 61
7, 23040, Note_on_c, 5, 58, 0
7, 23040, Note_on_c, 5, 60, 61
7, 23100, Note_on_c, 5, 60, 0
7, 23580, Note_on_c, 5, 75, 61
7, 23640, Note_on_c, 5, 75, 0
7, 23640, Note_on_c, 5, 72, 72
7, 23700, Note_on_c, 5, 72, 0
7, 23700, Note_on_c, 5, 69, 81
7, 23760, Note_on_c, 5, 69, 0
7, 23760, Note_on_c, 5, 65, 58
7, 23820, Note_on_c, 5, 65, 0
7, 23820, Note_on_c, 5, 63, 45
7, 23880, Note_on_c, 5, 63, 0
7, 23880, Note_on_c, 5, 60, 53
7, 23940, Note_on_c, 5, 60, 0
7, 23940, Note_on_c, 5, 63, 45
7, 24000, Note_on_c, 5, 63, 0
7, 24000, Note_on_c, 5, 61, 44
7, 24060, Note_on_c, 5, 61, 0
7, 24060, Note_on_c, 5, 61, 72
7, 24180, Note_on_c, 5, 61, 0
7, 24180, Note_on_c, 5, 61, 78
7, 24300, Note_on_c, 5, 61, 0
7, 24300, Note_on_c, 5, 61, 42
7, 24420, Note_on_c, 5, 61, 0
7, 24420, Note_on_c, 5, 61, 43
7, 24480, Note_on_c, 5, 61, 0
7, 24480, Note_on_c, 5, 60, 67
7, 24540, Note_on_c, 5, 60, 0
7, 24960, Note_on_c, 5, 61, 64
7, 25020, Note_on_c, 5, 61, 0
7, 25020, Note_on_c, 5, 61, 72
7, 25140, Note_on_c, 5, 61, 0
7, 25140, Note_on_c, 5, 61, 84
7, 25260, Note_on_c, 5, 61, 0
7, 25260, Note_on_c, 5, 61, 68
7, 25380, Note_on_c, 5, 61, 0
7, 25380, Note_on_c, 5, 61, 61
7, 25440, Note_on_c, 5, 61, 0
7, 25440, Note_on_c, 5, 60, 45
7, 25500, Note_on_c, 5, 60, 0
7, 25920, Note_on_c, 5, 58, 48
7, 26100, Note_on_c, 5, 58, 0
7, 26100, Note_on_c, 5, 60, 80
7, 26160, Note_on_c, 5, 60, 0
7, 26160, Note_on_c, 5, 61, 80
7, 26220, Note_on_c, 5, 61, 0
7, 26220, Note_on_c, 5, 63, 86
7, 26280, Note_on_c, 5, 63, 0
7, 26280, Note_on_c, 5, 65, 82
7, 26340, Note_on_c, 5, 65, 0
7, 26340, Note_on_c, 5, 61, 84
7, 26400, Note_on_c, 5, 61, 0
7, 26400, Note_on_c, 5, 63, 101
7, 26640, Note_on_c, 5, 63, 0
7, 26640, Note_on_c, 5, 64, 104
7, 26880, Note_on_c, 5, 64, 0
7, 26880, Note_on_c, 5, 65, 94
7, 26940, Note_on_c, 5, 65, 0
7, 27000, Note_on_c, 5, 65, 44
7, 27060, Note_on_c, 5, 65, 0
7, 27060, Note_on_c, 5, 67, 40
7, 27120, Note_on_c, 5, 67, 0
7, 27120, Note_on_c, 5, 69, 53
7, 27180, Note_on_c, 5, 69, 0
7, 27180, Note_on_c, 5, 70, 41
7, 27240, Note_on_c, 5, 70, 0
7, 27240, Note_on_c, 5, 72, 33
7, 27300, Note_on_c, 5, 72, 0
7, 27300, Note_on_c, 5, 69, 45
7, 27360, Note_on_c, 5, 69, 0
7, 27360, Note_on_c, 5, 67, 46
7, 27420, Note_on_c, 5, 67, 0
7, 27420, Note_on_c, 5, 66, 60
7, 27480, Note_on_c, 5, 66, 0
7, 27480, Note_on_c, 5, 67, 45
7, 27540, Note_on_c, 5, 67, 0
7, 27540, Note_on_c, 5, 69, 57
7, 27600, Note_on_c, 5, 69, 0
7, 27600, Note_on_c, 5, 70, 34
7, 27660, Note_on_c, 5, 70, 0
7, 27660, Note_on_c, 5, 72, 62
7, 27720, Note_on_c, 5, 72, 0
7, 27720, Note_on_c, 5, 74, 40
7, 27780, Note_on_c, 5, 74, 0
7, 27780, Note_on_c, 5, 70, 29
7, 27840, Note_on_c, 5, 70, 0
7, 27840, Note_on_c, 5, 69, 43
7, 27900, Note_on_c, 5, 69, 0
7, 27900, Note_on_c, 5, 68, 32
7, 27960, Note_on_c, 5, 68, 0
7, 27960, Note_on_c, 5, 69, 37
7, 28020, Note_on_c, 5, 69, 0
7, 28020, Note_on_c, 5, 70, 45
7, 28080, Note_on_c, 5, 70, 0
7, 28080, Note_on_c, 5, 72, 43
7, 28140, Note_on_c, 5, 72, 0
7, 28140, Note_on_c, 5, 74, 38
7, 28200, Note_on_c, 5, 74, 0
7, 28200, Note_on_c, 5, 75, 30
7, 28260, Note_on_c, 5, 75, 0
7, 28260, Note_on_c, 5, 72, 29
7, 28320, Note_on_c, 5, 72, 0
7, 28320, Note_on_c, 5, 70, 29
7, 28380, Note_on_c, 5, 70, 0
7, 28380, Note_on_c, 5, 69, 39
7, 28440, Note_on_c, 5, 69, 0
7, 28440, Note_on_c, 5, 70, 29
7, 28500, Note_on_c, 5, 70, 0
7, 28500, Note_on_c, 5, 72, 54
7, 28560, Note_on_c, 5, 72, 0
7, 28560, Note_on_c, 5, 74, 31
7, 28620, Note_on_c, 5, 74, 0
7, 28620, Note_on_c, 5, 75, 52
7, 28680, Note_on_c, 5, 75, 0
7, 28680, Note_on_c, 5, 77, 34
7, 28740, Note_on_c, 5, 77, 0
7, 28740, Note_on_c, 5, 74, 31
7, 28800, Note_on_c, 5, 74, 0
7, 28800, Note_on_c, 5, 72, 40
7, 28860, Note_on_c, 5, 72, 0
7, 28860, Note_on_c, 5, 71, 61
7, 28920, Note_on_c, 5, 71, 0
7, 28920, Note_on_c, 5, 72, 42
7, 28980, Note_on_c, 5, 72, 0
7, 28980, Note_on_c, 5, 74, 72
7, 29040, Note_on_c, 5, 74, 0
7, 29040, Note_on_c, 5, 75, 77
7, 29100, Note_on_c, 5, 75, 0
7, 29100, Note_on_c, 5, 77, 69
7, 29160, Note_on_c, 5, 77, 0
7, 29160, Note_on_c, 5, 79, 72
7, 29220, Note_on_c, 5, 79, 0
7, 29220, Note_on_c, 5, 77, 84
7, 29280, Note_on_c, 5, 77, 0
7, 29280, Note_on_c, 5, 75, 85
7, 29340, Note_on_c, 5, 75, 0
7, 29340, Note_on_c, 5, 74, 94
7, 29400, Note_on_c, 5, 74, 0
7, 29400, Note_on_c, 5, 72, 84
7, 29460, Note_on_c, 5, 72, 0
7, 29460, Note_on_c, 5, 74, 94
7, 29520, Note_on_c, 5, 74, 0
7, 29520, Note_on_c, 5, 75, 99
7, 29580, Note_on_c, 5, 75, 0
7, 29580, Note_on_c, 5, 77, 95
7, 29640, Note_on_c, 5, 77, 0
7, 29640, Note_on_c, 5, 79, 89
7, 29700, Note_on_c, 5, 79, 0
7, 29700, Note_on_c, 5, 81, 99
7, 29760, Note_on_c, 5, 81, 0
7, 29760, Control_c, 5, 7, 99
7, 29760, Note_on_c, 5, 82, 95
7, 29766, Control_c, 5, 7, 98
7, 29770, Control_c, 5, 7, 97
7, 29776, Control_c, 5, 7, 96
7, 29780, Control_c, 5, 7, 95
7, 29786, Control_c, 5, 7, 94
7, 29790, Control_c, 5, 7, 93
7, 29796, Control_c, 5, 7, 92
7, 29800, Control_c, 5, 7, 91
7, 29806, Control_c, 5, 7, 90
7, 29810, Control_c, 5, 7, 89
7, 29816, Control_c, 5, 7, 88
7, 29820, Control_c, 5, 7, 87
7, 29826, Control_c, 5, 7, 86
7, 29830, Control_c, 5, 7, 85
7, 29836, Control_c, 5, 7, 84
7, 29840, Control_c, 5, 7, 83
7, 29846, Control_c, 5, 7, 82
7, 29850, Control_c, 5, 7, 81
7, 29856, Control_c, 5, 7, 80
7, 29860, Control_c, 5, 7, 79
7, 29866, Control_c, 5, 7, 78
7, 29870, Control_c, 5, 7, 77
7, 29876, Control_c, 5, 7, 76
7, 29880, Control_c, 5, 7, 75
7, 29886, Control_c, 5, 7, 74
7, 29890, Control_c, 5, 7, 73
7, 29896, Control_c, 5, 7, 72
7, 29900, Control_c, 5, 7, 71
7, 29906, Control_c, 5, 7, 70
7, 29910, Control_c, 5, 7, 69
7, 29916, Control_c, 5, 7, 68
7, 29920, Control_c, 5, 7, 67
7, 29926, Control_c, 5, 7, 66
7, 29930, Control_c, 5, 7, 65
7, 29936, Control_c, 5, 7, 64
7, 29940, Note_on_c, 5, 82, 0
7, 29940, Control_c, 5, 7, 63
7, 29942, Control_c, 5, 7, 65
7, 29944, Control_c, 5, 7, 67
7, 29946, Control_c, 5, 7, 69
7, 29948, Control_c, 5, 7, 71
7, 29950, Control_c, 5, 7, 73
7, 29952, Control_c, 5, 7, 75
7, 29954, Control_c, 5, 7, 77
7, 29956, Control_c, 5, 7, 79
7, 29958, Control_c, 5, 7, 81
7, 29960, Control_c, 5, 7, 83
7, 29962, Control_c, 5, 7, 85
7, 29964, Control_c, 5, 7, 87
7, 29966, Control_c, 5, 7, 89
7, 29968, Control_c, 5, 7, 91
7, 29970, Note_on_c, 5, 70, 78
7, 29970, Control_c, 5, 7, 93
7, 29972, Control_c, 5, 7, 95
7, 29974, Control_c, 5, 7, 97
7, 29976, Control_c, 5, 7, 99
7, 30000, Note_on_c, 5, 70, 0
7, 30000, Note_on_c, 5, 77, 74
7, 30045, Note_on_c, 5, 77, 0
7, 30090, Note_on_c, 5, 77, 76
7, 30105, Note_on_c, 5, 77, 0
7, 30120, Note_on_c, 5, 74, 77
7, 30165, Note_on_c, 5, 74, 0
7, 30210, Note_on_c, 5, 74, 80
7, 30225, Note_on_c, 5, 74, 0
7, 30240, Note_on_c, 5, 70, 58
7, 30300, Note_on_c, 5, 70, 0
7, 30360, Note_on_c, 5, 74, 69
7, 30420, Note_on_c, 5, 74, 0
7, 30480, Note_on_c, 5, 77, 58
7, 30540, Note_on_c, 5, 77, 0
7, 30600, Note_on_c, 5, 82, 65
7, 30660, Note_on_c, 5, 82, 0
7, 30720, Note_on_c, 5, 81, 99
7, 30762, Control_c, 5, 7, 99
7, 30766, Control_c, 5, 7, 98
7, 30770, Control_c, 5, 7, 97
7, 30774, Control_c, 5, 7, 96
7, 30778, Control_c, 5, 7, 95
7, 30782, Control_c, 5, 7, 94
7, 30786, Control_c, 5, 7, 93
7, 30788, Control_c, 5, 7, 92
7, 30792, Control_c, 5, 7, 91
7, 30796, Control_c, 5, 7, 90
7, 30800, Control_c, 5, 7, 89
7, 30804, Control_c, 5, 7, 88
7, 30808, Control_c, 5, 7, 87
7, 30810, Control_c, 5, 7, 86
7, 30814, Control_c, 5, 7, 85
7, 30818, Control_c, 5, 7, 84
7, 30822, Control_c, 5, 7, 83
7, 30826, Control_c, 5, 7, 82
7, 30830, Control_c, 5, 7, 81
7, 30832, Control_c, 5, 7, 80
7, 30836, Control_c, 5, 7, 79
7, 30840, Control_c, 5, 7, 78
7, 30844, Control_c, 5, 7, 77
7, 30848, Control_c, 5, 7, 76
7, 30852, Control_c, 5, 7, 75
7, 30854, Control_c, 5, 7, 74
7, 30858, Control_c, 5, 7, 73
7, 30862, Control_c, 5, 7, 72
7, 30866, Control_c, 5, 7, 71
7, 30870, Control_c, 5, 7, 70
7, 30874, Control_c, 5, 7, 69
7, 30876, Control_c, 5, 7, 68
7, 30880, Control_c, 5, 7, 67
7, 30884, Control_c, 5, 7, 66
7, 30888, Control_c, 5, 7, 65
7, 30892, Control_c, 5, 7, 64
7, 30896, Control_c, 5, 7, 63
7, 30898, Control_c, 5, 7, 62
7, 30900, Note_on_c, 5, 81, 0
7, 30906, Control_c, 5, 7, 63
7, 30908, Control_c, 5, 7, 64
7, 30910, Control_c, 5, 7, 65
7, 30912, Control_c, 5, 7, 67
7, 30914, Control_c, 5, 7, 68
7, 30916, Control_c, 5, 7, 70
7, 30918, Control_c, 5, 7, 71
7, 30920, Control_c, 5, 7, 73
7, 30922, Control_c, 5, 7, 74
7, 30924, Control_c, 5, 7, 75
7, 30926, Control_c, 5, 7, 77
7, 30928, Control_c, 5, 7, 78
7, 30930, Control_c, 5, 7, 80
7, 30930, Note_on_c, 5, 69, 73
7, 30932, Control_c, 5, 7, 81
7, 30934, Control_c, 5, 7, 83
7, 30936, Control_c, 5, 7, 84
7, 30938, Control_c, 5, 7, 86
7, 30940, Control_c, 5, 7, 87
7, 30942, Control_c, 5, 7, 88
7, 30944, Control_c, 5, 7, 90
7, 30946, Control_c, 5, 7, 91
7, 30948, Control_c, 5, 7, 93
7, 30950, Control_c, 5, 7, 94
7, 30952, Control_c, 5, 7, 96
7, 30954, Control_c, 5, 7, 97
7, 30956, Control_c, 5, 7, 99
7, 30960, Note_on_c, 5, 69, 0
7, 30960, Note_on_c, 5, 75, 67
7, 31005, Note_on_c, 5, 75, 0
7, 31050, Note_on_c, 5, 75, 72
7, 31065, Note_on_c, 5, 75, 0
7, 31080, Note_on_c, 5, 72, 65
7, 31125, Note_on_c, 5, 72, 0
7, 31170, Note_on_c, 5, 72, 72
7, 31185, Note_on_c, 5, 72, 0
7, 31200, Note_on_c, 5, 69, 62
7, 31260, Note_on_c, 5, 69, 0
7, 31320, Note_on_c, 5, 75, 65
7, 31380, Note_on_c, 5, 75, 0
7, 31440, Note_on_c, 5, 81, 61
7, 31500, Note_on_c, 5, 81, 0
7, 31560, Note_on_c, 5, 84, 59
7, 31620, Note_on_c, 5, 84, 0
7, 31680, Note_on_c, 5, 83, 95
7, 31728, Control_c, 5, 7, 99
7, 31732, Control_c, 5, 7, 98
7, 31736, Control_c, 5, 7, 97
7, 31738, Control_c, 5, 7, 96
7, 31742, Control_c, 5, 7, 95
7, 31746, Control_c, 5, 7, 94
7, 31748, Control_c, 5, 7, 93
7, 31752, Control_c, 5, 7, 92
7, 31756, Control_c, 5, 7, 91
7, 31758, Control_c, 5, 7, 90
7, 31762, Control_c, 5, 7, 89
7, 31766, Control_c, 5, 7, 88
7, 31768, Control_c, 5, 7, 87
7, 31772, Control_c, 5, 7, 86
7, 31776, Control_c, 5, 7, 85
7, 31778, Control_c, 5, 7, 84
7, 31782, Control_c, 5, 7, 83
7, 31786, Control_c, 5, 7, 82
7, 31788, Control_c, 5, 7, 81
7, 31792, Control_c, 5, 7, 80
7, 31796, Control_c, 5, 7, 79
7, 31798, Control_c, 5, 7, 78
7, 31802, Control_c, 5, 7, 77
7, 31806, Control_c, 5, 7, 76
7, 31808, Control_c, 5, 7, 75
7, 31812, Control_c, 5, 7, 74
7, 31816, Control_c, 5, 7, 73
7, 31818, Control_c, 5, 7, 72
7, 31822, Control_c, 5, 7, 71
7, 31826, Control_c, 5, 7, 70
7, 31828, Control_c, 5, 7, 69
7, 31832, Control_c, 5, 7, 68
7, 31836, Control_c, 5, 7, 67
7, 31838, Control_c, 5, 7, 66
7, 31842, Control_c, 5, 7, 65
7, 31846, Control_c, 5, 7, 64
7, 31848, Control_c, 5, 7, 63
7, 31852, Control_c, 5, 7, 62
7, 31854, Control_c, 5, 7, 61
7, 31856, Control_c, 5, 7, 62
7, 31858, Control_c, 5, 7, 63
7, 31860, Note_on_c, 5, 83, 0
7, 31860, Control_c, 5, 7, 64
7, 31862, Control_c, 5, 7, 65
7, 31864, Control_c, 5, 7, 66
7, 31866, Control_c, 5, 7, 68
7, 31868, Control_c, 5, 7, 69
7, 31870, Control_c, 5, 7, 70
7, 31872, Control_c, 5, 7, 71
7, 31874, Control_c, 5, 7, 72
7, 31876, Control_c, 5, 7, 74
7, 31878, Control_c, 5, 7, 75
7, 31880, Control_c, 5, 7, 76
7, 31882, Control_c, 5, 7, 77
7, 31884, Control_c, 5, 7, 78
7, 31886, Control_c, 5, 7, 80
7, 31888, Control_c, 5, 7, 81
7, 31890, Control_c, 5, 7, 82
7, 31890, Note_on_c, 5, 71, 64
7, 31892, Control_c, 5, 7, 83
7, 31894, Control_c, 5, 7, 84
7, 31896, Control_c, 5, 7, 85
7, 31898, Control_c, 5, 7, 87
7, 31900, Control_c, 5, 7, 88
7, 31902, Control_c, 5, 7, 89
7, 31904, Control_c, 5, 7, 90
7, 31906, Control_c, 5, 7, 91
7, 31908, Control_c, 5, 7, 93
7, 31910, Control_c, 5, 7, 94
7, 31912, Control_c, 5, 7, 95
7, 31914, Control_c, 5, 7, 96
7, 31916, Control_c, 5, 7, 97
7, 31918, Control_c, 5, 7, 99
7, 31920, Note_on_c, 5, 71, 0
7, 31920, Note_on_c, 5, 77, 74
7, 31965, Note_on_c, 5, 77, 0
7, 32010, Note_on_c, 5, 77, 66
7, 32025, Note_on_c, 5, 77, 0
7, 32040, Note_on_c, 5, 74, 76
7, 32085, Note_on_c, 5, 74, 0
7, 32130, Note_on_c, 5, 74, 57
7, 32145, Note_on_c, 5, 74, 0
7, 32160, Note_on_c, 5, 71, 68
7, 32220, Note_on_c, 5, 71, 0
7, 32280, Note_on_c, 5, 86, 72
7, 32340, Note_on_c, 5, 86, 0
7, 32400, Note_on_c, 5, 83, 71
7, 32460, Note_on_c, 5, 83, 0
7, 32520, Note_on_c, 5, 79, 76
7, 32580, Note_on_c, 5, 79, 0
7, 32640, Note_on_c, 5, 84, 93
7, 32820, Note_on_c, 5, 84, 0
7, 32850, Note_on_c, 5, 72, 90
7, 32880, Note_on_c, 5, 72, 0
7, 32880, Note_on_c, 5, 79, 101
7, 32925, Note_on_c, 5, 79, 0
7, 32970, Note_on_c, 5, 79, 89
7, 32985, Note_on_c, 5, 79, 0
7, 33000, Note_on_c, 5, 75, 93
7, 33045, Note_on_c, 5, 75, 0
7, 33090, Note_on_c, 5, 75, 94
7, 33105, Note_on_c, 5, 75, 0
7, 33120, Note_on_c, 5, 74, 112
7, 33300, Note_on_c, 5, 74, 0
7, 33330, Note_on_c, 5, 74, 104
7, 33345, Note_on_c, 5, 74, 0
7, 33360, Note_on_c, 5, 80, 84
7, 33450, Note_on_c, 5, 80, 0
7, 33450, Note_on_c, 5, 80, 89
7, 33480, Note_on_c, 5, 80, 0
7, 33480, Note_on_c, 5, 77, 85
7, 33570, Note_on_c, 5, 77, 0
7, 33570, Note_on_c, 5, 77, 81
7, 33600, Note_on_c, 5, 77, 0
7, 33600, Note_on_c, 5, 74, 105
7, 33780, Note_on_c, 5, 74, 0
7, 33810, Note_on_c, 5, 74, 94
7, 33840, Note_on_c, 5, 74, 0
7, 33840, Note_on_c, 5, 80, 84
7, 33930, Note_on_c, 5, 80, 0
7, 33930, Note_on_c, 5, 80, 80
7, 33960, Note_on_c, 5, 80, 0
7, 33960, Note_on_c, 5, 77, 81
7, 34050, Note_on_c, 5, 77, 0
7, 34050, Note_on_c, 5, 77, 80
7, 34080, Note_on_c, 5, 77, 0
7, 34080, Note_on_c, 5, 75, 101
7, 34260, Note_on_c, 5, 75, 0
7, 34290, Note_on_c, 5, 75, 86
7, 34320, Note_on_c, 5, 75, 0
7, 34320, Note_on_c, 5, 82, 84
7, 34410, Note_on_c, 5, 82, 0
7, 34410, Note_on_c, 5, 82, 84
7, 34440, Note_on_c, 5, 82, 0
7, 34440, Note_on_c, 5, 79, 80
7, 34530, Note_on_c, 5, 79, 0
7, 34530, Note_on_c, 5, 79, 84
7, 34560, Note_on_c, 5, 79, 0
7, 34560, Note_on_c, 5, 76, 105
7, 34740, Note_on_c, 5, 76, 0
7, 34770, Note_on_c, 5, 76, 104
7, 34800, Note_on_c, 5, 76, 0
7, 34800, Note_on_c, 5, 82, 94
7, 34845, Note_on_c, 5, 82, 0
7, 34890, Note_on_c, 5, 82, 93
7, 34905, Note_on_c, 5, 82, 0
7, 34920, Note_on_c, 5, 79, 99
7, 34965, Note_on_c, 5, 79, 0
7, 35010, Note_on_c, 5, 79, 95
7, 35025, Note_on_c, 5, 79, 0
7, 35040, Note_on_c, 5, 76, 95
7, 35085, Note_on_c, 5, 76, 0
7, 35130, Note_on_c, 5, 76, 99
7, 35145, Note_on_c, 5, 76, 0
7, 35160, Note_on_c, 5, 73, 89
7, 35205, Note_on_c, 5, 73, 0
7, 35250, Note_on_c, 5, 73, 89
7, 35265, Note_on_c, 5, 73, 0
7, 35280, Note_on_c, 5, 70, 99
7, 35325, Note_on_c, 5, 70, 0
7, 35370, Note_on_c, 5, 70, 94
7, 35385, Note_on_c, 5, 70, 0
7, 35400, Note_on_c, 5, 67, 94
7, 35445, Note_on_c, 5, 67, 0
7, 35490, Note_on_c, 5, 67, 101
7, 35505, Note_on_c, 5, 67, 0
7, 35520, Note_on_c, 5, 64, 105
7, 35760, Note_on_c, 5, 64, 0
7, 35760, Note_on_c, 5, 65, 80
7, 35880, Note_on_c, 5, 65, 0
7, 36000, Note_on_c, 5, 69, 101
7, 36240, Note_on_c, 5, 69, 0
7, 36240, Note_on_c, 5, 70, 74
7, 36360, Note_on_c, 5, 70, 0
7, 36480, Note_on_c, 5, 71, 104
7, 36720, Note_on_c, 5, 71, 0
7, 36720, Note_on_c, 5, 72, 95
7, 36840, Note_on_c, 5, 72, 0
7, 36840, Note_on_c, 5, 74, 93
7, 36900, Note_on_c, 5, 74, 0
7, 36900, Note_on_c, 5, 75, 98
7, 36960, Note_on_c, 5, 75, 0
7, 36960, Note_on_c, 5, 70, 94
7, 37200, Note_on_c, 5, 70, 0
7, 37200, Note_on_c, 5, 69, 94
7, 37440, Note_on_c, 5, 69, 0
7, 37440, Note_on_c, 5, 74, 110
7, 37680, Note_on_c, 5, 74, 0
7, 37680, Note_on_c, 5, 75, 84
7, 37800, Note_on_c, 5, 75, 0
7, 37800, Note_on_c, 5, 77, 93
7, 37860, Note_on_c, 5, 77, 0
7, 37860, Note_on_c, 5, 79, 84
7, 37920, Note_on_c, 5, 79, 0
7, 37920, Note_on_c, 5, 74, 94
7, 38160, Note_on_c, 5, 74, 0
7, 38160, Note_on_c, 5, 75, 93
7, 38340, Note_on_c, 5, 75, 0
7, 38340, Note_on_c, 5, 72, 94
7, 38400, Note_on_c, 5, 72, 0
7, 38400, Note_on_c, 5, 74, 112
7, 38430, Note_on_c, 5, 74, 0
7, 38430, Note_on_c, 5, 74, 99
7, 38460, Note_on_c, 5, 74, 0
7, 38460, Note_on_c, 5, 74, 95
7, 38490, Note_on_c, 5, 74, 0
7, 38490, Note_on_c, 5, 74, 101
7, 38520, Note_on_c, 5, 74, 0
7, 38520, Note_on_c, 5, 74, 94
7, 38550, Note_on_c, 5, 74, 0
7, 38550, Note_on_c, 5, 74, 90
7, 38580, Note_on_c, 5, 74, 0
7, 38580, Note_on_c, 5, 74, 95
7, 38610, Note_on_c, 5, 74, 0
7, 38610, Note_on_c, 5, 74, 95
7, 38640, Note_on_c, 5, 74, 0
7, 38640, Note_on_c, 5, 74, 112
7, 38670, Note_on_c, 5, 74, 0
7, 38670, Note_on_c, 5, 74, 99
7, 38700, Note_on_c, 5, 74, 0
7, 38700, Note_on_c, 5, 74, 99
7, 38730, Note_on_c, 5, 74, 0
7, 38730, Note_on_c, 5, 74, 95
7, 38760, Note_on_c, 5, 74, 0
7, 38760, Note_on_c, 5, 74, 93
7, 38790, Note_on_c, 5, 74, 0
7, 38790, Note_on_c, 5, 74, 90
7, 38820, Note_on_c, 5, 74, 0
7, 38820, Note_on_c, 5, 74, 94
7, 38850, Note_on_c, 5, 74, 0
7, 38850, Note_on_c, 5, 74, 99
7, 38880, Note_on_c, 5, 74, 0
7, 38880, Note_on_c, 5, 75, 105
7, 38910, Note_on_c, 5, 75, 0
7, 38910, Note_on_c, 5, 75, 93
7, 38940, Note_on_c, 5, 75, 0
7, 38940, Note_on_c, 5, 75, 90
7, 38970, Note_on_c, 5, 75, 0
7, 38970, Note_on_c, 5, 75, 94
7, 39000, Note_on_c, 5, 75, 0
7, 39000, Note_on_c, 5, 75, 90
7, 39030, Note_on_c, 5, 75, 0
7, 39030, Note_on_c, 5, 75, 93
7, 39060, Note_on_c, 5, 75, 0
7, 39060, Note_on_c, 5, 75, 93
7, 39090, Note_on_c, 5, 75, 0
7, 39090, Note_on_c, 5, 75, 94
7, 39120, Note_on_c, 5, 75, 0
7, 39120, Note_on_c, 5, 72, 99
7, 39150, Note_on_c, 5, 72, 0
7, 39150, Note_on_c, 5, 72, 81
7, 39180, Note_on_c, 5, 72, 0
7, 39180, Note_on_c, 5, 72, 82
7, 39210, Note_on_c, 5, 72, 0
7, 39210, Note_on_c, 5, 72, 85
7, 39240, Note_on_c, 5, 72, 0
7, 39240, Note_on_c, 5, 72, 82
7, 39270, Note_on_c, 5, 72, 0
7, 39270, Note_on_c, 5, 72, 84
7, 39300, Note_on_c, 5, 72, 0
7, 39300, Note_on_c, 5, 72, 77
7, 39330, Note_on_c, 5, 72, 0
7, 39330, Note_on_c, 5, 72, 82
7, 39360, Note_on_c, 5, 72, 0
7, 39360, Note_on_c, 5, 74, 107
7, 39390, Note_on_c, 5, 74, 0
7, 39390, Note_on_c, 5, 82, 95
7, 39420, Note_on_c, 5, 82, 0
7, 39420, Note_on_c, 5, 82, 93
7, 39450, Note_on_c, 5, 82, 0
7, 39450, Note_on_c, 5, 82, 95
7, 39480, Note_on_c, 5, 82, 0
7, 39480, Note_on_c, 5, 82, 94
7, 39510, Note_on_c, 5, 82, 0
7, 39510, Note_on_c, 5, 82, 93
7, 39540, Note_on_c, 5, 82, 0
7, 39540, Note_on_c, 5, 82, 94
7, 39570, Note_on_c, 5, 82, 0
7, 39570, Note_on_c, 5, 82, 94
7, 39600, Note_on_c, 5, 82, 0
7, 39600, Note_on_c, 5, 83, 101
7, 39630, Note_on_c, 5, 83, 0
7, 39630, Note_on_c, 5, 83, 104
7, 39660, Note_on_c, 5, 83, 0
7, 39660, Note_on_c, 5, 83, 98
7, 39690, Note_on_c, 5, 83, 0
7, 39690, Note_on_c, 5, 83, 104
7, 39720, Note_on_c, 5, 83, 0
7, 39720, Note_on_c, 5, 83, 99
7, 39750, Note_on_c, 5, 83, 0
7, 39750, Note_on_c, 5, 83, 99
7, 39780, Note_on_c, 5, 83, 0
7, 39780, Note_on_c, 5, 83, 99
7, 39810, Note_on_c, 5, 83, 0
7, 39810, Note_on_c, 5, 83, 104
7, 39840, Note_on_c, 5, 83, 0
7, 39840, Note_on_c, 5, 87, 99
7, 39870, Note_on_c, 5, 87, 0
7, 39870, Note_on_c, 5, 87, 99
7, 39900, Note_on_c, 5, 87, 0
7, 39900, Note_on_c, 5, 87, 99
7, 39930, Note_on_c, 5, 87, 0
7, 39930, Note_on_c, 5, 87, 104
7, 39960, Note_on_c, 5, 87, 0
7, 39960, Note_on_c, 5, 87, 105
7, 39990, Note_on_c, 5, 87, 0
7, 39990, Note_on_c, 5, 87, 101
7, 40020, Note_on_c, 5, 87, 0
7, 40020, Note_on_c, 5, 87, 104
7, 40050, Note_on_c, 5, 87, 0
7, 40050, Note_on_c, 5, 87, 99
7, 40080, Note_on_c, 5, 87, 0
7, 40080, Note_on_c, 5, 84, 99
7, 40110, Note_on_c, 5, 84, 0
7, 40110, Note_on_c, 5, 84, 99
7, 40140, Note_on_c, 5, 84, 0
7, 40140, Note_on_c, 5, 84, 99
7, 40170, Note_on_c, 5, 84, 0
7, 40170, Note_on_c, 5, 84, 99
7, 40200, Note_on_c, 5, 84, 0
7, 40200, Note_on_c, 5, 84, 99
7, 40230, Note_on_c, 5, 84, 0
7, 40230, Note_on_c, 5, 84, 99
7, 40260, Note_on_c, 5, 84, 0
7, 40260, Note_on_c, 5, 84, 104
7, 40290, Note_on_c, 5, 84, 0
7, 40290, Note_on_c, 5, 84, 98
7, 40320, Note_on_c, 5, 84, 0
7, 40320, Note_on_c, 5, 82, 99
7, 40440, Note_on_c, 5, 82, 0
7, 40440, Note_on_c, 5, 70, 54
7, 40530, Note_on_c, 5, 70, 0
7, 40560, Note_on_c, 5, 70, 63
7, 40650, Note_on_c, 5, 70, 0
7, 40680, Note_on_c, 5, 70, 58
7, 40770, Note_on_c, 5, 70, 0
7, 40800, Note_on_c, 5, 69, 73
7, 40980, Note_on_c, 5, 69, 0
7, 40980, Note_on_c, 5, 70, 72
7, 41040, Note_on_c, 5, 70, 0
7, 41040, Note_on_c, 5, 72, 77
7, 41100, Note_on_c, 5, 72, 0
7, 41100, Note_on_c, 5, 74, 73
7, 41160, Note_on_c, 5, 74, 0
7, 41160, Note_on_c, 5, 75, 66
7, 41220, Note_on_c, 5, 75, 0
7, 41220, Note_on_c, 5, 72, 58
7, 41280, Note_on_c, 5, 72, 0
7, 41280, Note_on_c, 5, 70, 74
7, 41400, Note_on_c, 5, 70, 0
7, 41580, Note_on_c, 5, 65, 68
7, 41640, Note_on_c, 5, 65, 0
7, 41640, Note_on_c, 5, 62, 71
7, 41700, Note_on_c, 5, 62, 0
7, 41700, Note_on_c, 5, 65, 72
7, 41760, Note_on_c, 5, 65, 0
7, 41760, Note_on_c, 5, 63, 82
7, 41820, Note_on_c, 5, 63, 0
7, 41820, Note_on_c, 5, 65, 78
7, 41880, Note_on_c, 5, 65, 0
7, 41880, Note_on_c, 5, 63, 89
7, 41940, Note_on_c, 5, 63, 0
7, 41940, Note_on_c, 5, 65, 86
7, 42000, Note_on_c, 5, 65, 0
7, 42000, Note_on_c, 5, 63, 86
7, 42060, Note_on_c, 5, 63, 0
7, 42060, Note_on_c, 5, 65, 77
7, 42120, Note_on_c, 5, 65, 0
7, 42120, Note_on_c, 5, 63, 65
7, 42180, Note_on_c, 5, 63, 0
7, 42180, Note_on_c, 5, 65, 53
7, 42240, Note_on_c, 5, 65, 0
7, 42240, Note_on_c, 5, 62, 31
7, 42360, Note_on_c, 5, 62, 0
7, 42480, Note_on_c, 5, 82, 89
7, 42480, Note_on_c, 5, 70, 93
7, 42480, Note_on_c, 5, 62, 105
7, 42600, Note_on_c, 5, 62, 0
7, 42600, Note_on_c, 5, 70, 0
7, 42600, Note_on_c, 5, 82, 0
7, 42720, Note_on_c, 5, 58, 95
7, 42840, Note_on_c, 5, 58, 0
7, 45240, Note_on_c, 5, 69, 43
7, 45360, Note_on_c, 5, 69, 0
7, 45720, Note_on_c, 5, 70, 46
7, 45840, Note_on_c, 5, 70, 0
7, 46200, Note_on_c, 5, 75, 56
7, 46320, Note_on_c, 5, 75, 0
7, 46440, Note_on_c, 5, 75, 58
7, 46560, Note_on_c, 5, 75, 0
7, 46680, Note_on_c, 5, 75, 62
7, 46800, Note_on_c, 5, 75, 0
7, 46920, Note_on_c, 5, 74, 65
7, 47040, Note_on_c, 5, 74, 0
7, 47160, Note_on_c, 5, 72, 56
7, 47280, Note_on_c, 5, 72, 0
7, 47520, Note_on_c, 5, 74, 72
7, 47640, Note_on_c, 5, 74, 0
7, 48360, Note_on_c, 5, 69, 72
7, 48480, Note_on_c, 5, 69, 0
7, 48480, Note_on_c, 5, 58, 89
7, 48522, Control_c, 5, 7, 99
7, 48526, Control_c, 5, 7, 98
7, 48528, Control_c, 5, 7, 97
7, 48530, Control_c, 5, 7, 96
7, 48532, Control_c, 5, 7, 95
7, 48534, Control_c, 5, 7, 94
7, 48536, Control_c, 5, 7, 93
7, 48538, Control_c, 5, 7, 92
7, 48540, Note_on_c, 5, 58, 0
7, 48540, Control_c, 5, 7, 91
7, 48540, Note_on_c, 5, 70, 78
7, 48542, Control_c, 5, 7, 90
7, 48544, Control_c, 5, 7, 89
7, 48546, Control_c, 5, 7, 88
7, 48548, Control_c, 5, 7, 87
7, 48552, Control_c, 5, 7, 86
7, 48554, Control_c, 5, 7, 85
7, 48556, Control_c, 5, 7, 84
7, 48558, Control_c, 5, 7, 83
7, 48560, Control_c, 5, 7, 82
7, 48562, Control_c, 5, 7, 81
7, 48564, Control_c, 5, 7, 80
7, 48566, Control_c, 5, 7, 79
7, 48568, Control_c, 5, 7, 78
7, 48570, Note_on_c, 5, 70, 0
7, 48570, Control_c, 5, 7, 77
7, 48572, Control_c, 5, 7, 76
7, 48574, Control_c, 5, 7, 75
7, 48578, Control_c, 5, 7, 74
7, 48580, Control_c, 5, 7, 73
7, 48582, Control_c, 5, 7, 72
7, 48584, Control_c, 5, 7, 71
7, 48586, Control_c, 5, 7, 70
7, 48588, Control_c, 5, 7, 69
7, 48590, Control_c, 5, 7, 68
7, 48592, Control_c, 5, 7, 67
7, 48594, Control_c, 5, 7, 66
7, 48596, Control_c, 5, 7, 65
7, 48598, Control_c, 5, 7, 64
7, 48600, Control_c, 5, 7, 63
7, 48600, Note_on_c, 5, 70, 65
7, 48630, Note_on_c, 5, 70, 0
7, 48660, Note_on_c, 5, 70, 73
7, 48690, Note_on_c, 5, 70, 0
7, 48720, Note_on_c, 5, 70, 62
7, 48750, Note_on_c, 5, 70, 0
7, 48780, Note_on_c, 5, 70, 70
7, 48810, Note_on_c, 5, 70, 0
7, 48840, Note_on_c, 5, 69, 80
7, 48900, Note_on_c, 5, 69, 0
7, 48900, Note_on_c, 5, 70, 77
7, 48960, Note_on_c, 5, 70, 0
7, 48960, Note_on_c, 5, 67, 63
7, 49200, Note_on_c, 5, 67, 0
7, 49200, Note_on_c, 5, 69, 66
7, 49440, Note_on_c, 5, 69, 0
7, 49440, Control_c, 5, 7, 63
7, 49440, Note_on_c, 5, 70, 73
7, 49454, Control_c, 5, 7, 64
7, 49468, Control_c, 5, 7, 65
7, 49480, Control_c, 5, 7, 66
7, 49494, Control_c, 5, 7, 67
7, 49500, Note_on_c, 5, 70, 0
7, 49500, Note_on_c, 5, 82, 76
7, 49508, Control_c, 5, 7, 68
7, 49520, Control_c, 5, 7, 69
7, 49530, Note_on_c, 5, 82, 0
7, 49534, Control_c, 5, 7, 70
7, 49548, Control_c, 5, 7, 71
7, 49560, Control_c, 5, 7, 72
7, 49560, Note_on_c, 5, 82, 73
7, 49574, Control_c, 5, 7, 73
7, 49588, Control_c, 5, 7, 74
7, 49590, Note_on_c, 5, 82, 0
7, 49600, Control_c, 5, 7, 75
7, 49614, Control_c, 5, 7, 76
7, 49620, Note_on_c, 5, 82, 81
7, 49628, Control_c, 5, 7, 77
7, 49640, Control_c, 5, 7, 78
7, 49650, Note_on_c, 5, 82, 0
7, 49654, Control_c, 5, 7, 79
7, 49668, Control_c, 5, 7, 80
7, 49680, Control_c, 5, 7, 81
7, 49680, Note_on_c, 5, 82, 89
7, 49694, Control_c, 5, 7, 82
7, 49708, Control_c, 5, 7, 83
7, 49710, Note_on_c, 5, 82, 0
7, 49720, Control_c, 5, 7, 84
7, 49734, Control_c, 5, 7, 85
7, 49740, Note_on_c, 5, 82, 93
7, 49748, Control_c, 5, 7, 86
7, 49760, Control_c, 5, 7, 87
7, 49770, Note_on_c, 5, 82, 0
7, 49774, Control_c, 5, 7, 88
7, 49788, Control_c, 5, 7, 89
7, 49800, Control_c, 5, 7, 90
7, 49800, Note_on_c, 5, 81, 94
7, 49814, Control_c, 5, 7, 91
7, 49828, Control_c, 5, 7, 92
7, 49840, Control_c, 5, 7, 93
7, 49854, Control_c, 5, 7, 94
7, 49860, Note_on_c, 5, 81, 0
7, 49860, Note_on_c, 5, 82, 86
7, 49868, Control_c, 5, 7, 95
7, 49880, Control_c, 5, 7, 96
7, 49894, Control_c, 5, 7, 97
7, 49908, Control_c, 5, 7, 98
7, 49920, Note_on_c, 5, 82, 0
7, 49920, Control_c, 5, 7, 99
7, 49920, Note_on_c, 5, 79, 95
7, 49950, Note_on_c, 5, 79, 0
7, 49980, Note_on_c, 5, 75, 90
7, 50010, Note_on_c, 5, 75, 0
7, 50040, Note_on_c, 5, 75, 94
7, 50070, Note_on_c, 5, 75, 0
7, 50100, Note_on_c, 5, 75, 99
7, 50130, Note_on_c, 5, 75, 0
7, 50160, Note_on_c, 5, 75, 95
7, 50190, Note_on_c, 5, 75, 0
7, 50220, Note_on_c, 5, 75, 98
7, 50250, Note_on_c, 5, 75, 0
7, 50280, Note_on_c, 5, 74, 104
7, 50340, Note_on_c, 5, 74, 0
7, 50340, Note_on_c, 5, 75, 99
7, 50400, Note_on_c, 5, 75, 0
7, 50400, Note_on_c, 5, 74, 104
7, 50520, Note_on_c, 5, 74, 0
7, 51000, Note_on_c, 5, 65, 64
7, 51120, Note_on_c, 5, 65, 0
7, 51240, Note_on_c, 5, 65, 65
7, 51360, Note_on_c, 5, 65, 0
7, 51480, Note_on_c, 5, 74, 67
7, 51480, Note_on_c, 5, 65, 60
7, 51600, Note_on_c, 5, 65, 0
7, 51600, Note_on_c, 5, 74, 0
7, 51960, Note_on_c, 5, 64, 72
7, 52080, Note_on_c, 5, 64, 0
7, 52200, Note_on_c, 5, 64, 81
7, 52320, Note_on_c, 5, 64, 0
7, 52440, Note_on_c, 5, 64, 67
7, 52560, Note_on_c, 5, 64, 0
7, 52920, Note_on_c, 5, 64, 65
7, 53040, Note_on_c, 5, 64, 0
7, 53160, Note_on_c, 5, 72, 32
7, 53160, Note_on_c, 5, 63, 67
7, 53280, Note_on_c, 5, 63, 0
7, 53280, Note_on_c, 5, 72, 0
7, 53400, Note_on_c, 5, 72, 30
7, 53400, Note_on_c, 5, 63, 59
7, 53520, Note_on_c, 5, 63, 0
7, 53520, Note_on_c, 5, 72, 0
7, 53880, Note_on_c, 5, 62, 62
7, 54000, Note_on_c, 5, 62, 0
7, 54120, Note_on_c, 5, 62, 65
7, 54240, Note_on_c, 5, 62, 0
7, 54360, Note_on_c, 5, 70, 53
7, 54360, Note_on_c, 5, 62, 57
7, 54480, Note_on_c, 5, 62, 0
7, 54480, Note_on_c, 5, 70, 0
7, 54840, Note_on_c, 5, 70, 57
7, 54960, Note_on_c, 5, 70, 0
7, 55320, Note_on_c, 5, 70, 64
7, 55440, Note_on_c, 5, 70, 0
7, 55800, Note_on_c, 5, 70, 53
7, 55920, Note_on_c, 5, 70, 0
7, 56040, Note_on_c, 5, 70, 53
7, 56160, Note_on_c, 5, 70, 0
7, 56280, Note_on_c, 5, 70, 65
7, 56400, Note_on_c, 5, 70, 0
7, 56520, Note_on_c, 5, 70, 64
7, 56640, Note_on_c, 5, 70, 0
7, 56760, Note_on_c, 5, 70, 56
7, 56880, Note_on_c, 5, 70, 0
7, 56880, Note_on_c, 5, 67, 43
7, 57000, Note_on_c, 5, 67, 0
7, 57000, Note_on_c, 5, 64, 60
7, 57120, Note_on_c, 5, 64, 0
7, 57240, Note_on_c, 5, 72, 52
7, 57360, Note_on_c, 5, 72, 0
7, 57360, Note_on_c, 5, 69, 43
7, 57480, Note_on_c, 5, 69, 0
7, 57480, Note_on_c, 5, 65, 44
7, 57600, Note_on_c, 5, 65, 0
7, 57720, Note_on_c, 5, 77, 45
7, 57840, Note_on_c, 5, 77, 0
7, 57840, Note_on_c, 5, 74, 58
7, 57960, Note_on_c, 5, 74, 0
7, 57960, Note_on_c, 5, 71, 40
7, 58080, Note_on_c, 5, 71, 0
7, 58080, Note_on_c, 5, 72, 48
7, 58140, Note_on_c, 5, 72, 0
7, 58260, Note_on_c, 5, 72, 43
7, 58320, Note_on_c, 5, 72, 0
7, 58320, Note_on_c, 5, 71, 62
7, 58380, Note_on_c, 5, 71, 0
7, 58500, Note_on_c, 5, 71, 73
7, 58560, Note_on_c, 5, 71, 0
7, 58560, Note_on_c, 5, 72, 74
7, 58620, Note_on_c, 5, 72, 0
7, 60720, Note_on_c, 5, 72, 81
7, 60810, Note_on_c, 5, 72, 0
7, 60840, Note_on_c, 5, 72, 94
7, 60930, Note_on_c, 5, 72, 0
7, 60960, Note_on_c, 5, 77, 95
7, 61020, Control_c, 5, 7, 98
7, 61022, Control_c, 5, 7, 97
7, 61024, Control_c, 5, 7, 96
7, 61026, Control_c, 5, 7, 95
7, 61028, Control_c, 5, 7, 94
7, 61030, Control_c, 5, 7, 93
7, 61032, Control_c, 5, 7, 92
7, 61034, Control_c, 5, 7, 91
7, 61036, Control_c, 5, 7, 90
7, 61038, Control_c, 5, 7, 89
7, 61040, Control_c, 5, 7, 88
7, 61042, Control_c, 5, 7, 87
7, 61044, Control_c, 5, 7, 86
7, 61046, Control_c, 5, 7, 85
7, 61048, Control_c, 5, 7, 84
7, 61050, Control_c, 5, 7, 82
7, 61052, Control_c, 5, 7, 81
7, 61054, Control_c, 5, 7, 80
7, 61056, Control_c, 5, 7, 79
7, 61058, Control_c, 5, 7, 78
7, 61060, Control_c, 5, 7, 77
7, 61062, Control_c, 5, 7, 76
7, 61064, Control_c, 5, 7, 75
7, 61066, Control_c, 5, 7, 74
7, 61068, Control_c, 5, 7, 73
7, 61070, Control_c, 5, 7, 72
7, 61072, Control_c, 5, 7, 71
7, 61074, Control_c, 5, 7, 70
7, 61076, Control_c, 5, 7, 69
7, 61078, Control_c, 5, 7, 68
7, 61080, Control_c, 5, 7, 66
7, 61200, Note_on_c, 5, 77, 0
7, 61200, Note_on_c, 5, 76, 99
7, 61260, Note_on_c, 5, 76, 0
7, 61260, Note_on_c, 5, 74, 99
7, 61320, Note_on_c, 5, 74, 0
7, 61320, Note_on_c, 5, 72, 86
7, 61380, Note_on_c, 5, 72, 0
7, 61380, Note_on_c, 5, 70, 89
7, 61440, Note_on_c, 5, 70, 0
7, 61440, Note_on_c, 5, 69, 99
7, 61560, Note_on_c, 5, 69, 0
7, 61680, Note_on_c, 5, 74, 94
7, 61740, Note_on_c, 5, 74, 0
7, 61740, Note_on_c, 5, 72, 84
7, 61800, Note_on_c, 5, 72, 0
7, 61800, Note_on_c, 5, 70, 89
7, 61860, Note_on_c, 5, 70, 0
7, 61860, Note_on_c, 5, 69, 89
7, 61920, Note_on_c, 5, 69, 0
7, 61920, Note_on_c, 5, 67, 94
7, 61980, Note_on_c, 5, 67, 0
7, 62040, Note_on_c, 5, 67, 94
7, 62100, Note_on_c, 5, 67, 0
7, 62160, Note_on_c, 5, 67, 95
7, 62220, Note_on_c, 5, 67, 0
7, 62280, Note_on_c, 5, 69, 84
7, 62280, Note_on_c, 5, 62, 95
7, 62340, Note_on_c, 5, 62, 0
7, 62340, Note_on_c, 5, 69, 0
7, 62400, Control_c, 5, 7, 99
7, 62400, Note_on_c, 5, 72, 65
7, 62400, Note_on_c, 5, 62, 99
7, 62640, Note_on_c, 5, 72, 0
7, 62640, Note_on_c, 5, 70, 81
7, 62760, Note_on_c, 5, 70, 0
7, 62760, Note_on_c, 5, 62, 0
7, 62760, Note_on_c, 5, 79, 86
7, 62820, Note_on_c, 5, 79, 0
7, 62820, Note_on_c, 5, 81, 76
7, 62880, Note_on_c, 5, 81, 0
7, 62880, Note_on_c, 5, 82, 94
7, 62938, Control_c, 5, 7, 99
7, 62940, Control_c, 5, 7, 98
7, 62942, Control_c, 5, 7, 97
7, 62944, Control_c, 5, 7, 96
7, 62946, Control_c, 5, 7, 95
7, 62948, Control_c, 5, 7, 94
7, 62950, Control_c, 5, 7, 93
7, 62952, Control_c, 5, 7, 92
7, 62954, Control_c, 5, 7, 91
7, 62956, Control_c, 5, 7, 90
7, 62958, Control_c, 5, 7, 89
7, 62960, Control_c, 5, 7, 88
7, 62962, Control_c, 5, 7, 87
7, 62964, Control_c, 5, 7, 86
7, 62966, Control_c, 5, 7, 85
7, 62968, Control_c, 5, 7, 84
7, 62970, Control_c, 5, 7, 83
7, 62972, Control_c, 5, 7, 82
7, 62974, Control_c, 5, 7, 81
7, 62976, Control_c, 5, 7, 80
7, 62978, Control_c, 5, 7, 79
7, 62980, Control_c, 5, 7, 78
7, 62982, Control_c, 5, 7, 77
7, 62984, Control_c, 5, 7, 76
7, 62986, Control_c, 5, 7, 75
7, 62988, Control_c, 5, 7, 74
7, 62990, Control_c, 5, 7, 73
7, 62992, Control_c, 5, 7, 72
7, 62994, Control_c, 5, 7, 71
7, 62996, Control_c, 5, 7, 70
7, 62998, Control_c, 5, 7, 69
7, 63000, Control_c, 5, 7, 68
7, 63002, Control_c, 5, 7, 66
7, 63120, Note_on_c, 5, 82, 0
7, 63120, Note_on_c, 5, 81, 95
7, 63180, Note_on_c, 5, 81, 0
7, 63180, Note_on_c, 5, 79, 93
7, 63240, Note_on_c, 5, 79, 0
7, 63240, Note_on_c, 5, 77, 95
7, 63300, Note_on_c, 5, 77, 0
7, 63300, Note_on_c, 5, 76, 95
7, 63360, Note_on_c, 5, 76, 0
7, 63360, Note_on_c, 5, 79, 94
7, 63420, Note_on_c, 5, 79, 0
7, 63420, Note_on_c, 5, 77, 90
7, 63480, Note_on_c, 5, 77, 0
7, 63480, Note_on_c, 5, 81, 84
7, 63510, Note_on_c, 5, 81, 0
7, 63540, Note_on_c, 5, 79, 89
7, 63570, Note_on_c, 5, 79, 0
7, 63600, Note_on_c, 5, 77, 95
7, 63660, Note_on_c, 5, 77, 0
7, 63660, Note_on_c, 5, 76, 93
7, 63720, Note_on_c, 5, 76, 0
7, 63720, Note_on_c, 5, 74, 85
7, 63750, Note_on_c, 5, 74, 0
7, 63780, Note_on_c, 5, 72, 84
7, 63810, Note_on_c, 5, 72, 0
7, 63840, Note_on_c, 5, 71, 101
7, 63900, Note_on_c, 5, 71, 0
7, 63900, Note_on_c, 5, 72, 95
7, 63960, Note_on_c, 5, 72, 0
7, 63960, Note_on_c, 5, 67, 94
7, 63990, Note_on_c, 5, 67, 0
7, 64020, Note_on_c, 5, 72, 95
7, 64050, Note_on_c, 5, 72, 0
7, 64080, Note_on_c, 5, 70, 94
7, 64140, Note_on_c, 5, 70, 0
7, 64140, Note_on_c, 5, 69, 99
7, 64200, Note_on_c, 5, 69, 0
7, 64200, Note_on_c, 5, 67, 89
7, 64230, Note_on_c, 5, 67, 0
7, 64260, Note_on_c, 5, 65, 99
7, 64290, Note_on_c, 5, 65, 0
7, 64320, Control_c, 5, 7, 66
7, 64320, Note_on_c, 5, 69, 95
7, 64328, Control_c, 5, 7, 67
7, 64336, Control_c, 5, 7, 68
7, 64344, Control_c, 5, 7, 69
7, 64350, Control_c, 5, 7, 70
7, 64358, Control_c, 5, 7, 71
7, 64366, Control_c, 5, 7, 72
7, 64374, Control_c, 5, 7, 73
7, 64380, Control_c, 5, 7, 74
7, 64388, Control_c, 5, 7, 75
7, 64396, Control_c, 5, 7, 76
7, 64404, Control_c, 5, 7, 77
7, 64410, Control_c, 5, 7, 78
7, 64418, Control_c, 5, 7, 79
7, 64426, Control_c, 5, 7, 80
7, 64434, Control_c, 5, 7, 81
7, 64440, Control_c, 5, 7, 82
7, 64448, Control_c, 5, 7, 83
7, 64456, Control_c, 5, 7, 84
7, 64464, Control_c, 5, 7, 85
7, 64470, Control_c, 5, 7, 86
7, 64478, Control_c, 5, 7, 87
7, 64486, Control_c, 5, 7, 88
7, 64494, Control_c, 5, 7, 89
7, 64500, Control_c, 5, 7, 90
7, 64508, Control_c, 5, 7, 91
7, 64516, Control_c, 5, 7, 92
7, 64524, Control_c, 5, 7, 93
7, 64530, Control_c, 5, 7, 94
7, 64538, Control_c, 5, 7, 95
7, 64546, Control_c, 5, 7, 96
7, 64554, Control_c, 5, 7, 97
7, 64560, Note_on_c, 5, 69, 0
7, 64560, Control_c, 5, 7, 98
7, 64560, Note_on_c, 5, 67, 94
7, 64564, Control_c, 5, 7, 97
7, 64568, Control_c, 5, 7, 96
7, 64572, Control_c, 5, 7, 95
7, 64576, Control_c, 5, 7, 94
7, 64580, Control_c, 5, 7, 93
7, 64584, Control_c, 5, 7, 92
7, 64588, Control_c, 5, 7, 91
7, 64590, Control_c, 5, 7, 90
7, 64594, Control_c, 5, 7, 89
7, 64598, Control_c, 5, 7, 88
7, 64602, Control_c, 5, 7, 87
7, 64606, Control_c, 5, 7, 86
7, 64610, Control_c, 5, 7, 85
7, 64614, Control_c, 5, 7, 84
7, 64618, Control_c, 5, 7, 83
7, 64620, Control_c, 5, 7, 82
7, 64624, Control_c, 5, 7, 81
7, 64628, Control_c, 5, 7, 80
7, 64632, Control_c, 5, 7, 79
7, 64636, Control_c, 5, 7, 78
7, 64640, Control_c, 5, 7, 77
7, 64644, Control_c, 5, 7, 76
7, 64648, Control_c, 5, 7, 75
7, 64650, Control_c, 5, 7, 74
7, 64654, Control_c, 5, 7, 73
7, 64658, Control_c, 5, 7, 72
7, 64662, Control_c, 5, 7, 71
7, 64666, Control_c, 5, 7, 70
7, 64670, Control_c, 5, 7, 69
7, 64674, Control_c, 5, 7, 68
7, 64678, Control_c, 5, 7, 67
7, 64680, Note_on_c, 5, 67, 0
7, 64680, Control_c, 5, 7, 66
7, 64740, Control_c, 5, 7, 99
7, 64920, Note_on_c, 5, 72, 40
7, 65040, Note_on_c, 5, 72, 0
7, 65160, Note_on_c, 5, 76, 43
7, 65280, Note_on_c, 5, 76, 0
7, 65400, Note_on_c, 5, 77, 38
7, 65520, Note_on_c, 5, 77, 0
7, 66840, Note_on_c, 5, 70, 56
7, 66960, Note_on_c, 5, 70, 0
7, 67080, Note_on_c, 5, 67, 52
7, 67200, Note_on_c, 5, 67, 0
7, 67320, Note_on_c, 5, 72, 44
7, 67440, Note_on_c, 5, 72, 0
7, 67800, Note_on_c, 5, 67, 42
7, 67920, Note_on_c, 5, 67, 0
7, 67920, Note_on_c, 5, 69, 67
7, 68040, Note_on_c, 5, 69, 0
7, 68040, Note_on_c, 5, 67, 56
7, 68160, Note_on_c, 5, 67, 0
7, 68160, Note_on_c, 5, 65, 60
7, 68280, Note_on_c, 5, 65, 0
7, 69480, Note_on_c, 5, 62, 55
7, 69600, Note_on_c, 5, 62, 0
7, 69600, Note_on_c, 5, 60, 54
7, 69660, Note_on_c, 5, 60, 0
7, 69720, Note_on_c, 5, 57, 65
7, 69780, Note_on_c, 5, 57, 0
7, 69960, Note_on_c, 5, 62, 61
7, 70080, Note_on_c, 5, 62, 0
7, 70080, Note_on_c, 5, 60, 53
7, 70140, Note_on_c, 5, 60, 0
7, 70200, Note_on_c, 5, 57, 80
7, 70260, Note_on_c, 5, 57, 0
7, 71040, Note_on_c, 5, 65, 38
7, 71040, Note_on_c, 5, 56, 38
7, 71520, Note_on_c, 5, 56, 0
7, 71520, Note_on_c, 5, 65, 0
7, 71520, Note_on_c, 5, 66, 38
7, 71520, Note_on_c, 5, 56, 38
7, 72000, Note_on_c, 5, 56, 0
7, 72000, Note_on_c, 5, 66, 0
7, 72000, Note_on_c, 5, 65, 45
7, 72240, Note_on_c, 5, 65, 0
7, 72240, Note_on_c, 5, 61, 51
7, 72480, Note_on_c, 5, 61, 0
7, 72480, Note_on_c, 5, 66, 43
7, 72480, Note_on_c, 5, 56, 33
7, 72960, Note_on_c, 5, 56, 0
7, 72960, Note_on_c, 5, 66, 0
7, 72960, Note_on_c, 5, 65, 43
7, 72960, Note_on_c, 5, 56, 33
7, 73080, Note_on_c, 5, 56, 0
7, 73080, Note_on_c, 5, 65, 0
7, 73080, Note_on_c, 5, 65, 46
7, 73200, Note_on_c, 5, 65, 0
7, 73320, Note_on_c, 5, 65, 50
7, 73440, Note_on_c, 5, 65, 0
7, 73560, Note_on_c, 5, 65, 62
7, 73680, Note_on_c, 5, 65, 0
7, 73800, Note_on_c, 5, 64, 48
7, 73920, Note_on_c, 5, 64, 0
7, 74040, Note_on_c, 5, 65, 49
7, 74160, Note_on_c, 5, 65, 0
7, 74280, Note_on_c, 5, 68, 49
7, 74400, Note_on_c, 5, 68, 0
7, 74520, Note_on_c, 5, 69, 51
7, 74640, Note_on_c, 5, 69, 0
7, 74760, Note_on_c, 5, 64, 59
7, 74880, Note_on_c, 5, 64, 0
7, 74880, Note_on_c, 5, 65, 62
7, 74910, Note_on_c, 5, 65, 0
7, 74940, Note_on_c, 5, 69, 53
7, 74970, Note_on_c, 5, 69, 0
7, 75000, Note_on_c, 5, 69, 54
7, 75030, Note_on_c, 5, 69, 0
7, 75060, Note_on_c, 5, 69, 65
7, 75090, Note_on_c, 5, 69, 0
7, 75120, Note_on_c, 5, 70, 95
7, 75360, Note_on_c, 5, 70, 0
7, 75360, Note_on_c, 5, 69, 73
7, 75390, Note_on_c, 5, 69, 0
7, 75420, Note_on_c, 5, 65, 57
7, 75450, Note_on_c, 5, 65, 0
7, 75480, Note_on_c, 5, 65, 58
7, 75510, Note_on_c, 5, 65, 0
7, 75540, Note_on_c, 5, 65, 65
7, 75570, Note_on_c, 5, 65, 0
7, 75600, Note_on_c, 5, 64, 94
7, 75840, Note_on_c, 5, 64, 0
7, 75840, Note_on_c, 5, 65, 76
7, 75900, Note_on_c, 5, 65, 0
7, 75900, Note_on_c, 5, 69, 59
7, 75960, Note_on_c, 5, 69, 0
7, 75960, Note_on_c, 5, 69, 65
7, 76020, Note_on_c, 5, 69, 0
7, 76020, Note_on_c, 5, 69, 57
7, 76080, Note_on_c, 5, 69, 0
7, 76080, Note_on_c, 5, 70, 67
7, 76140, Note_on_c, 5, 70, 0
7, 76140, Note_on_c, 5, 70, 50
7, 76200, Note_on_c, 5, 70, 0
7, 76200, Note_on_c, 5, 70, 52
7, 76260, Note_on_c, 5, 70, 0
7, 76260, Note_on_c, 5, 70, 66
7, 76320, Note_on_c, 5, 70, 0
7, 76320, Note_on_c, 5, 69, 67
7, 76380, Note_on_c, 5, 69, 0
7, 76380, Note_on_c, 5, 65, 67
7, 76440, Note_on_c, 5, 65, 0
7, 76440, Note_on_c, 5, 65, 55
7, 76500, Note_on_c, 5, 65, 0
7, 76500, Note_on_c, 5, 65, 65
7, 76560, Note_on_c, 5, 65, 0
7, 76560, Note_on_c, 5, 64, 55
7, 76620, Note_on_c, 5, 64, 0
7, 76620, Note_on_c, 5, 64, 52
7, 76680, Note_on_c, 5, 64, 0
7, 76680, Note_on_c, 5, 64, 58
7, 76740, Note_on_c, 5, 64, 0
7, 76740, Note_on_c, 5, 64, 64
7, 76800, Note_on_c, 5, 64, 0
7, 76800, Note_on_c, 5, 65, 39
7, 76920, Note_on_c, 5, 65, 0
7, 79680, Note_on_c, 5, 64, 77
7, 79710, Note_on_c, 5, 64, 0
7, 79740, Note_on_c, 5, 65, 70
7, 79770, Note_on_c, 5, 65, 0
7, 79800, Note_on_c, 5, 67, 76
7, 79830, Note_on_c, 5, 67, 0
7, 79860, Note_on_c, 5, 69, 72
7, 79890, Note_on_c, 5, 69, 0
7, 79920, Note_on_c, 5, 70, 81
7, 79950, Note_on_c, 5, 70, 0
7, 79980, Note_on_c, 5, 72, 72
7, 80010, Note_on_c, 5, 72, 0
7, 80040, Note_on_c, 5, 74, 71
7, 80070, Note_on_c, 5, 74, 0
7, 80100, Note_on_c, 5, 76, 64
7, 80130, Note_on_c, 5, 76, 0
7, 80160, Note_on_c, 5, 77, 68
7, 80280, Note_on_c, 5, 77, 0
7, 80400, Note_on_c, 5, 73, 73
7, 80520, Note_on_c, 5, 73, 0
7, 80640, Note_on_c, 5, 74, 82
7, 80760, Note_on_c, 5, 74, 0
7, 83160, Note_on_c, 5, 67, 65
7, 83280, Note_on_c, 5, 67, 0
7, 83400, Note_on_c, 5, 69, 67
7, 83520, Note_on_c, 5, 69, 0
7, 83640, Note_on_c, 5, 70, 95
7, 83880, Note_on_c, 5, 70, 0
7, 83880, Note_on_c, 5, 68, 62
7, 84000, Note_on_c, 5, 68, 0
7, 84120, Note_on_c, 5, 67, 65
7, 84240, Note_on_c, 5, 67, 0
7, 84360, Note_on_c, 5, 69, 76
7, 84480, Note_on_c, 5, 69, 0
7, 84600, Note_on_c, 5, 70, 57
7, 84840, Note_on_c, 5, 70, 0
7, 84840, Note_on_c, 5, 70, 78
7, 84960, Note_on_c, 5, 70, 0
7, 85080, Note_on_c, 5, 71, 67
7, 85080, Note_on_c, 5, 62, 63
7, 85320, Note_on_c, 5, 62, 0
7, 85320, Note_on_c, 5, 71, 0
7, 85320, Note_on_c, 5, 62, 55
7, 85320, Note_on_c, 5, 71, 68
7, 85440, Note_on_c, 5, 71, 0
7, 85440, Note_on_c, 5, 62, 0
7, 85440, Note_on_c, 5, 71, 69
7, 85440, Note_on_c, 5, 62, 61
7, 85560, Note_on_c, 5, 62, 0
7, 85560, Note_on_c, 5, 71, 0
7, 85680, Note_on_c, 5, 59, 99
7, 85920, Note_on_c, 5, 59, 0
7, 85920, Note_on_c, 5, 60, 99
7, 85980, Note_on_c, 5, 60, 0
7, 86640, Note_on_c, 5, 59, 101
7, 86880, Note_on_c, 5, 59, 0
7, 86880, Note_on_c, 5, 60, 101
7, 86940, Note_on_c, 5, 60, 0
7, 87600, Note_on_c, 5, 59, 104
7, 87840, Note_on_c, 5, 59, 0
7, 87840, Note_on_c, 5, 60, 95
7, 87900, Note_on_c, 5, 60, 0
7, 92760, Note_on_c, 5, 60, 61
7, 92820, Note_on_c, 5, 60, 0
7, 92880, Note_on_c, 5, 65, 64
7, 93240, Note_on_c, 5, 65, 0
7, 93240, Note_on_c, 5, 69, 53
7, 93300, Note_on_c, 5, 69, 0
7, 93360, Note_on_c, 5, 72, 59
7, 93720, Note_on_c, 5, 72, 0
7, 93720, Note_on_c, 5, 77, 72
7, 93780, Note_on_c, 5, 77, 0
7, 93840, Note_on_c, 5, 81, 62
7, 93900, Note_on_c, 5, 81, 0
7, 93960, Note_on_c, 5, 84, 67
7, 94020, Note_on_c, 5, 84, 0
7, 94080, Note_on_c, 5, 76, 81
7, 94140, Note_on_c, 5, 76, 0
7, 94140, Note_on_c, 5, 70, 73
7, 94200, Note_on_c, 5, 70, 0
7, 94200, Note_on_c, 5, 70, 69
7, 94260, Note_on_c, 5, 70, 0
7, 94260, Note_on_c, 5, 70, 71
7, 94320, Note_on_c, 5, 70, 0
7, 94320, Note_on_c, 5, 70, 76
7, 94380, Note_on_c, 5, 70, 0
7, 94380, Note_on_c, 5, 70, 72
7, 94440, Note_on_c, 5, 70, 0
7, 94440, Note_on_c, 5, 70, 74
7, 94500, Note_on_c, 5, 70, 0
7, 94500, Note_on_c, 5, 70, 69
7, 94560, Note_on_c, 5, 70, 0
7, 94560, Note_on_c, 5, 77, 73
7, 94560, Note_on_c, 5, 69, 90
7, 94920, Note_on_c, 5, 69, 0
7, 94920, Note_on_c, 5, 77, 0
7, 94920, Note_on_c, 5, 77, 76
7, 94950, Note_on_c, 5, 77, 0
7, 94950, Note_on_c, 5, 79, 84
7, 94980, Note_on_c, 5, 79, 0
7, 94980, Note_on_c, 5, 81, 86
7, 95010, Note_on_c, 5, 81, 0
7, 95010, Note_on_c, 5, 82, 81
7, 95040, Note_on_c, 5, 82, 0
7, 95040, Note_on_c, 5, 84, 95
7, 95220, Note_on_c, 5, 84, 0
7, 95220, Note_on_c, 5, 81, 94
7, 95250, Note_on_c, 5, 81, 0
7, 95280, Note_on_c, 5, 77, 89
7, 95310, Note_on_c, 5, 77, 0
7, 95340, Note_on_c, 5, 72, 84
7, 95370, Note_on_c, 5, 72, 0
7, 95400, Note_on_c, 5, 69, 90
7, 95430, Note_on_c, 5, 69, 0
7, 95460, Note_on_c, 5, 65, 90
7, 95490, Note_on_c, 5, 65, 0
7, 95505, Note_on_c, 5, 67, 101
7, 95520, Note_on_c, 5, 67, 0
7, 95520, Note_on_c, 5, 65, 99
7, 95580, Note_on_c, 5, 65, 0
7, 95580, Note_on_c, 5, 64, 94
7, 95640, Note_on_c, 5, 64, 0
7, 95640, Note_on_c, 5, 64, 99
7, 95700, Note_on_c, 5, 64, 0
7, 95880, Note_on_c, 5, 76, 89
7, 95910, Note_on_c, 5, 76, 0
7, 95910, Note_on_c, 5, 77, 84
7, 95940, Note_on_c, 5, 77, 0
7, 95940, Note_on_c, 5, 79, 89
7, 95970, Note_on_c, 5, 79, 0
7, 95970, Note_on_c, 5, 81, 94
7, 96000, Note_on_c, 5, 81, 0
7, 96000, Note_on_c, 5, 82, 95
7, 96180, Note_on_c, 5, 82, 0
7, 96180, Note_on_c, 5, 79, 90
7, 96210, Note_on_c, 5, 79, 0
7, 96240, Note_on_c, 5, 76, 94
7, 96270, Note_on_c, 5, 76, 0
7, 96300, Note_on_c, 5, 70, 94
7, 96330, Note_on_c, 5, 70, 0
7, 96360, Note_on_c, 5, 67, 93
7, 96390, Note_on_c, 5, 67, 0
7, 96420, Note_on_c, 5, 64, 99
7, 96450, Note_on_c, 5, 64, 0
7, 96480, Note_on_c, 5, 65, 94
7, 96540, Note_on_c, 5, 65, 0
7, 96540, Note_on_c, 5, 63, 77
7, 96600, Note_on_c, 5, 63, 0
7, 96600, Note_on_c, 5, 63, 80
7, 96720, Note_on_c, 5, 63, 0
7, 96840, Note_on_c, 5, 81, 74
7, 96870, Note_on_c, 5, 81, 0
7, 96870, Note_on_c, 5, 82, 84
7, 96900, Note_on_c, 5, 82, 0
7, 96900, Note_on_c, 5, 84, 84
7, 96930, Note_on_c, 5, 84, 0
7, 96930, Note_on_c, 5, 86, 99
7, 96960, Note_on_c, 5, 86, 0
7, 96960, Note_on_c, 5, 87, 94
7, 96990, Note_on_c, 5, 87, 0
7, 97020, Note_on_c, 5, 84, 99
7, 97050, Note_on_c, 5, 84, 0
7, 97080, Note_on_c, 5, 81, 110
7, 97110, Note_on_c, 5, 81, 0
7, 97140, Note_on_c, 5, 77, 95
7, 97170, Note_on_c, 5, 77, 0
7, 97200, Note_on_c, 5, 75, 99
7, 97230, Note_on_c, 5, 75, 0
7, 97260, Note_on_c, 5, 72, 86
7, 97290, Note_on_c, 5, 72, 0
7, 97320, Note_on_c, 5, 69, 104
7, 97350, Note_on_c, 5, 69, 0
7, 97380, Note_on_c, 5, 65, 99
7, 97410, Note_on_c, 5, 65, 0
7, 97440, Note_on_c, 5, 63, 95
7, 97680, Note_on_c, 5, 63, 0
7, 97680, Note_on_c, 5, 62, 84
7, 97740, Note_on_c, 5, 62, 0
7, 97920, Note_on_c, 5, 70, 99
7, 98160, Note_on_c, 5, 70, 0
7, 98160, Note_on_c, 5, 69, 94
7, 98280, Note_on_c, 5, 69, 0
7, 98400, Note_on_c, 5, 74, 95
7, 98430, Note_on_c, 5, 74, 0
7, 98430, Note_on_c, 5, 77, 90
7, 98460, Note_on_c, 5, 77, 0
7, 98460, Note_on_c, 5, 77, 94
7, 98490, Note_on_c, 5, 77, 0
7, 98490, Note_on_c, 5, 77, 94
7, 98520, Note_on_c, 5, 77, 0
7, 98520, Note_on_c, 5, 77, 90
7, 98550, Note_on_c, 5, 77, 0
7, 98550, Note_on_c, 5, 77, 90
7, 98580, Note_on_c, 5, 77, 0
7, 98580, Note_on_c, 5, 77, 94
7, 98610, Note_on_c, 5, 77, 0
7, 98610, Note_on_c, 5, 77, 93
7, 98640, Note_on_c, 5, 77, 0
7, 98640, Note_on_c, 5, 77, 94
7, 98670, Note_on_c, 5, 77, 0
7, 98670, Note_on_c, 5, 77, 95
7, 98700, Note_on_c, 5, 77, 0
7, 98700, Note_on_c, 5, 77, 93
7, 98730, Note_on_c, 5, 77, 0
7, 98730, Note_on_c, 5, 77, 94
7, 98760, Note_on_c, 5, 77, 0
7, 98760, Note_on_c, 5, 77, 89
7, 98790, Note_on_c, 5, 77, 0
7, 98790, Note_on_c, 5, 77, 95
7, 98820, Note_on_c, 5, 77, 0
7, 98820, Note_on_c, 5, 77, 94
7, 98850, Note_on_c, 5, 77, 0
7, 98850, Note_on_c, 5, 77, 93
7, 98880, Note_on_c, 5, 77, 0
7, 98880, Note_on_c, 5, 77, 95
7, 98910, Note_on_c, 5, 77, 0
7, 98910, Note_on_c, 5, 77, 93
7, 98940, Note_on_c, 5, 77, 0
7, 98940, Note_on_c, 5, 77, 93
7, 98970, Note_on_c, 5, 77, 0
7, 98970, Note_on_c, 5, 77, 85
7, 99000, Note_on_c, 5, 77, 0
7, 99000, Note_on_c, 5, 77, 89
7, 99030, Note_on_c, 5, 77, 0
7, 99030, Note_on_c, 5, 77, 94
7, 99060, Note_on_c, 5, 77, 0
7, 99060, Note_on_c, 5, 77, 94
7, 99090, Note_on_c, 5, 77, 0
7, 99090, Note_on_c, 5, 77, 94
7, 99120, Note_on_c, 5, 77, 0
7, 99120, Note_on_c, 5, 76, 99
7, 99150, Note_on_c, 5, 76, 0
7, 99150, Note_on_c, 5, 76, 99
7, 99180, Note_on_c, 5, 76, 0
7, 99180, Note_on_c, 5, 76, 101
7, 99210, Note_on_c, 5, 76, 0
7, 99210, Note_on_c, 5, 76, 99
7, 99240, Note_on_c, 5, 76, 0
7, 99240, Note_on_c, 5, 76, 98
7, 99270, Note_on_c, 5, 76, 0
7, 99270, Note_on_c, 5, 76, 95
7, 99300, Note_on_c, 5, 76, 0
7, 99300, Note_on_c, 5, 76, 99
7, 99330, Note_on_c, 5, 76, 0
7, 99330, Note_on_c, 5, 76, 99
7, 99360, Note_on_c, 5, 76, 0
7, 99360, Note_on_c, 5, 77, 98
7, 99480, Note_on_c, 5, 77, 0
7, 99480, Note_on_c, 5, 65, 72
7, 99570, Note_on_c, 5, 65, 0
7, 99600, Note_on_c, 5, 65, 48
7, 99690, Note_on_c, 5, 65, 0
7, 99720, Note_on_c, 5, 65, 58
7, 99810, Note_on_c, 5, 65, 0
7, 99840, Note_on_c, 5, 64, 68
7, 100020, Note_on_c, 5, 64, 0
7, 100020, Note_on_c, 5, 65, 61
7, 100080, Note_on_c, 5, 65, 0
7, 100080, Note_on_c, 5, 67, 61
7, 100140, Note_on_c, 5, 67, 0
7, 100140, Note_on_c, 5, 69, 66
7, 100200, Note_on_c, 5, 69, 0
7, 100200, Note_on_c, 5, 70, 61
7, 100260, Note_on_c, 5, 70, 0
7, 100260, Note_on_c, 5, 67, 52
7, 100320, Note_on_c, 5, 67, 0
7, 100320, Note_on_c, 5, 65, 65
7, 100440, Note_on_c, 5, 65, 0
7, 100620, Note_on_c, 5, 69, 62
7, 100680, Note_on_c, 5, 69, 0
7, 100680, Note_on_c, 5, 72, 62
7, 100740, Note_on_c, 5, 72, 0
7, 100740, Note_on_c, 5, 69, 51
7, 100800, Note_on_c, 5, 69, 0
7, 100800, Note_on_c, 5, 70, 43
7, 100860, Note_on_c, 5, 70, 0
7, 100860, Note_on_c, 5, 72, 43
7, 100920, Note_on_c, 5, 72, 0
7, 100920, Note_on_c, 5, 70, 59
7, 100980, Note_on_c, 5, 70, 0
7, 100980, Note_on_c, 5, 72, 50
7, 101040, Note_on_c, 5, 72, 0
7, 101040, Note_on_c, 5, 70, 69
7, 101100, Note_on_c, 5, 70, 0
7, 101100, Note_on_c, 5, 72, 64
7, 101160, Note_on_c, 5, 72, 0
7, 101160, Note_on_c, 5, 70, 89
7, 101220, Note_on_c, 5, 70, 0
7, 101220, Note_on_c, 5, 72, 68
7, 101280, Note_on_c, 5, 72, 0
7, 101280, Note_on_c, 5, 69, 54
7, 101400, Note_on_c, 5, 69, 0
7, 101520, Note_on_c, 5, 81, 99
7, 101520, Note_on_c, 5, 72, 69
7, 101520, Note_on_c, 5, 65, 101
7, 101640, Note_on_c, 5, 65, 0
7, 101640, Note_on_c, 5, 72, 0
7, 101640, Note_on_c, 5, 81, 0
7, 101760, Note_on_c, 5, 65, 94
7, 101760, Note_on_c, 5, 57, 105
7, 101880, Note_on_c, 5, 57, 0
7, 101880, Note_on_c, 5, 65, 0
7, 104280, Note_on_c, 5, 67, 52
7, 104400, Note_on_c, 5, 67, 0
7, 104400, Note_on_c, 5, 64, 65
7, 104520, Note_on_c, 5, 64, 0
7, 104520, Note_on_c, 5, 60, 56
7, 104640, Note_on_c, 5, 60, 0
7, 104760, Note_on_c, 5, 72, 43
7, 104880, Note_on_c, 5, 72, 0
7, 104880, Note_on_c, 5, 69, 50
7, 105000, Note_on_c, 5, 69, 0
7, 105000, Note_on_c, 5, 65, 41
7, 105120, Note_on_c, 5, 65, 0
7, 105240, Note_on_c, 5, 69, 49
7, 105360, Note_on_c, 5, 69, 0
7, 105360, Note_on_c, 5, 66, 62
7, 105480, Note_on_c, 5, 66, 0
7, 105480, Note_on_c, 5, 62, 34
7, 105600, Note_on_c, 5, 62, 0
7, 105720, Note_on_c, 5, 74, 55
7, 105840, Note_on_c, 5, 74, 0
7, 105840, Note_on_c, 5, 70, 64
7, 105960, Note_on_c, 5, 70, 0
7, 105960, Note_on_c, 5, 67, 40
7, 106080, Note_on_c, 5, 67, 0
7, 106200, Note_on_c, 5, 72, 55
7, 106320, Note_on_c, 5, 72, 0
7, 106440, Note_on_c, 5, 73, 62
7, 106560, Note_on_c, 5, 73, 0
7, 106560, Note_on_c, 5, 74, 45
7, 107040, Note_on_c, 5, 74, 0
7, 107040, Note_on_c, 5, 74, 47
7, 107280, Note_on_c, 5, 74, 0
7, 107280, Note_on_c, 5, 76, 44
7, 107520, Note_on_c, 5, 76, 0
7, 107520, Note_on_c, 5, 69, 52
7, 107640, Note_on_c, 5, 69, 0
7, 107640, Note_on_c, 5, 74, 62
7, 107700, Note_on_c, 5, 74, 0
7, 107700, Note_on_c, 5, 76, 65
7, 107760, Note_on_c, 5, 76, 0
7, 107760, Note_on_c, 5, 78, 43
7, 107820, Note_on_c, 5, 78, 0
7, 107820, Note_on_c, 5, 79, 61
7, 107880, Note_on_c, 5, 79, 0
7, 107880, Note_on_c, 5, 81, 50
7, 107940, Note_on_c, 5, 81, 0
7, 107940, Note_on_c, 5, 78, 61
7, 108000, Note_on_c, 5, 78, 0
7, 108000, Note_on_c, 5, 79, 46
7, 108120, Note_on_c, 5, 79, 0
7, 108120, Note_on_c, 5, 82, 54
7, 108360, Note_on_c, 5, 82, 0
7, 108360, Note_on_c, 5, 81, 64
7, 108420, Note_on_c, 5, 81, 0
7, 108420, Note_on_c, 5, 79, 38
7, 108480, Note_on_c, 5, 79, 0
7, 108480, Note_on_c, 5, 78, 58
7, 108600, Note_on_c, 5, 78, 0
7, 108960, Note_on_c, 5, 62, 95
7, 109080, Note_on_c, 5, 62, 0
7, 109200, Note_on_c, 5, 62, 94
7, 109320, Note_on_c, 5, 62, 0
7, 109440, Note_on_c, 5, 62, 99
7, 109560, Note_on_c, 5, 62, 0
7, 109920, Note_on_c, 5, 63, 39
7, 110040, Note_on_c, 5, 63, 0
7, 110160, Note_on_c, 5, 63, 35
7, 110280, Note_on_c, 5, 63, 0
7, 110400, Note_on_c, 5, 63, 41
7, 110520, Note_on_c, 5, 63, 0
7, 110880, Note_on_c, 5, 63, 72
7, 110880, Note_on_c, 5, 55, 84
7, 111060, Note_on_c, 5, 55, 0
7, 111060, Note_on_c, 5, 63, 0
7, 111060, Note_on_c, 5, 65, 76
7, 111120, Note_on_c, 5, 65, 0
7, 111120, Note_on_c, 5, 67, 61
7, 111180, Note_on_c, 5, 67, 0
7, 111180, Note_on_c, 5, 68, 76
7, 111240, Note_on_c, 5, 68, 0
7, 111240, Note_on_c, 5, 70, 57
7, 111300, Note_on_c, 5, 70, 0
7, 111300, Note_on_c, 5, 67, 44
7, 111360, Note_on_c, 5, 67, 0
7, 111360, Note_on_c, 5, 63, 67
7, 111420, Note_on_c, 5, 63, 0
7, 111480, Note_on_c, 5, 75, 76
7, 111540, Note_on_c, 5, 75, 0
7, 111540, Note_on_c, 5, 74, 69
7, 111600, Note_on_c, 5, 74, 0
7, 111600, Note_on_c, 5, 77, 72
7, 111660, Note_on_c, 5, 77, 0
7, 111660, Note_on_c, 5, 75, 73
7, 111720, Note_on_c, 5, 75, 0
7, 111720, Note_on_c, 5, 70, 68
7, 111780, Note_on_c, 5, 70, 0
7, 111780, Note_on_c, 5, 67, 65
7, 111840, Note_on_c, 5, 67, 0
7, 111840, Note_on_c, 5, 65, 94
7, 112020, Note_on_c, 5, 65, 0
7, 112020, Note_on_c, 5, 67, 47
7, 112080, Note_on_c, 5, 67, 0
7, 112080, Note_on_c, 5, 68, 74
7, 112140, Note_on_c, 5, 68, 0
7, 112140, Note_on_c, 5, 70, 67
7, 112200, Note_on_c, 5, 70, 0
7, 112200, Note_on_c, 5, 72, 45
7, 112260, Note_on_c, 5, 72, 0
7, 112260, Note_on_c, 5, 68, 72
7, 112320, Note_on_c, 5, 68, 0
7, 112320, Note_on_c, 5, 65, 68
7, 112350, Note_on_c, 5, 65, 0
7, 112380, Note_on_c, 5, 80, 68
7, 112440, Note_on_c, 5, 80, 0
7, 112440, Note_on_c, 5, 77, 61
7, 112500, Note_on_c, 5, 77, 0
7, 112500, Note_on_c, 5, 75, 72
7, 112560, Note_on_c, 5, 75, 0
7, 112560, Note_on_c, 5, 74, 84
7, 112620, Note_on_c, 5, 74, 0
7, 112620, Note_on_c, 5, 72, 68
7, 112680, Note_on_c, 5, 72, 0
7, 112680, Note_on_c, 5, 70, 71
7, 112740, Note_on_c, 5, 70, 0
7, 112740, Note_on_c, 5, 68, 68
7, 112800, Note_on_c, 5, 68, 0
7, 112800, Note_on_c, 5, 67, 64
7, 112920, Note_on_c, 5, 67, 0
7, 114840, Note_on_c, 5, 67, 56
7, 114960, Note_on_c, 5, 67, 0
7, 114960, Note_on_c, 5, 67, 67
7, 115080, Note_on_c, 5, 67, 0
7, 115080, Note_on_c, 5, 67, 57
7, 115200, Note_on_c, 5, 67, 0
7, 115320, Note_on_c, 5, 67, 53
7, 115440, Note_on_c, 5, 67, 0
7, 115560, Note_on_c, 5, 67, 46
7, 115680, Note_on_c, 5, 67, 0
7, 115800, Note_on_c, 5, 65, 66
7, 115920, Note_on_c, 5, 65, 0
7, 115920, Note_on_c, 5, 65, 61
7, 116040, Note_on_c, 5, 65, 0
7, 116040, Note_on_c, 5, 65, 67
7, 116160, Note_on_c, 5, 65, 0
7, 116280, Note_on_c, 5, 65, 62
7, 116400, Note_on_c, 5, 65, 0
7, 116400, Note_on_c, 5, 65, 61
7, 116520, Note_on_c, 5, 65, 0
7, 116520, Note_on_c, 5, 65, 64
7, 116640, Note_on_c, 5, 65, 0
7, 116760, Note_on_c, 5, 70, 62
7, 116880, Note_on_c, 5, 70, 0
7, 117000, Note_on_c, 5, 68, 57
7, 117120, Note_on_c, 5, 68, 0
7, 117240, Note_on_c, 5, 67, 62
7, 117360, Note_on_c, 5, 67, 0
7, 117480, Note_on_c, 5, 65, 64
7, 117600, Note_on_c, 5, 65, 0
7, 117600, Note_on_c, 5, 63, 52
7, 117720, Note_on_c, 5, 63, 0
7, 118320, Note_on_c, 5, 63, 56
7, 118380, Note_on_c, 5, 63, 0
7, 118440, Note_on_c, 5, 63, 43
7, 118500, Note_on_c, 5, 63, 0
7, 118560, Note_on_c, 5, 67, 53
7, 118620, Note_on_c, 5, 67, 0
7, 119280, Note_on_c, 5, 70, 61
7, 119340, Note_on_c, 5, 70, 0
7, 119400, Note_on_c, 5, 70, 53
7, 119460, Note_on_c, 5, 70, 0
7, 119520, Note_on_c, 5, 71, 61
7, 119580, Note_on_c, 5, 71, 0
7, 120240, Note_on_c, 5, 74, 67
7, 120300, Note_on_c, 5, 74, 0
7, 120360, Note_on_c, 5, 74, 61
7, 120420, Note_on_c, 5, 74, 0
7, 120480, Note_on_c, 5, 77, 46
7, 120540, Note_on_c, 5, 77, 0
7, 121200, Note_on_c, 5, 77, 52
7, 121260, Note_on_c, 5, 77, 0
7, 121320, Note_on_c, 5, 77, 49
7, 121380, Note_on_c, 5, 77, 0
7, 121440, Note_on_c, 5, 75, 61
7, 121500, Note_on_c, 5, 75, 0
7, 121500, Note_on_c, 5, 63, 38
7, 121500, Note_on_c, 5, 55, 45
7, 121530, Note_on_c, 5, 55, 0
7, 121530, Note_on_c, 5, 63, 0
7, 121560, Note_on_c, 5, 63, 38
7, 121560, Note_on_c, 5, 55, 45
7, 121590, Note_on_c, 5, 55, 0
7, 121590, Note_on_c, 5, 63, 0
7, 121620, Note_on_c, 5, 63, 36
7, 121620, Note_on_c, 5, 55, 44
7, 121650, Note_on_c, 5, 55, 0
7, 121650, Note_on_c, 5, 63, 0
7, 121680, Note_on_c, 5, 63, 38
7, 121680, Note_on_c, 5, 55, 44
7, 121710, Note_on_c, 5, 55, 0
7, 121710, Note_on_c, 5, 63, 0
7, 121740, Note_on_c, 5, 63, 38
7, 121740, Note_on_c, 5, 55, 43
7, 121770, Note_on_c, 5, 55, 0
7, 121770, Note_on_c, 5, 63, 0
7, 121800, Note_on_c, 5, 63, 38
7, 121800, Note_on_c, 5, 55, 50
7, 121830, Note_on_c, 5, 55, 0
7, 121830, Note_on_c, 5, 63, 0
7, 121860, Note_on_c, 5, 62, 43
7, 121860, Note_on_c, 5, 55, 43
7, 121890, Note_on_c, 5, 55, 0
7, 121890, Note_on_c, 5, 62, 0
7, 121920, Note_on_c, 5, 60, 62
7, 122040, Note_on_c, 5, 60, 0
7, 122400, Note_on_c, 5, 65, 44
7, 122400, Note_on_c, 5, 55, 43
7, 122430, Note_on_c, 5, 55, 0
7, 122430, Note_on_c, 5, 65, 0
7, 122460, Note_on_c, 5, 65, 45
7, 122460, Note_on_c, 5, 55, 43
7, 122490, Note_on_c, 5, 55, 0
7, 122490, Note_on_c, 5, 65, 0
7, 122520, Note_on_c, 5, 65, 43
7, 122520, Note_on_c, 5, 55, 41
7, 122550, Note_on_c, 5, 55, 0
7, 122550, Note_on_c, 5, 65, 0
7, 122580, Note_on_c, 5, 65, 58
7, 122580, Note_on_c, 5, 55, 44
7, 122610, Note_on_c, 5, 55, 0
7, 122610, Note_on_c, 5, 65, 0
7, 122640, Note_on_c, 5, 65, 50
7, 122640, Note_on_c, 5, 55, 39
7, 122670, Note_on_c, 5, 55, 0
7, 122670, Note_on_c, 5, 65, 0
7, 122700, Note_on_c, 5, 65, 45
7, 122700, Note_on_c, 5, 55, 42
7, 122730, Note_on_c, 5, 55, 0
7, 122730, Note_on_c, 5, 65, 0
7, 122760, Note_on_c, 5, 65, 53
7, 122760, Note_on_c, 5, 55, 43
7, 122790, Note_on_c, 5, 55, 0
7, 122790, Note_on_c, 5, 65, 0
7, 122820, Note_on_c, 5, 63, 42
7, 122820, Note_on_c, 5, 55, 52
7, 122850, Note_on_c, 5, 55, 0
7, 122850, Note_on_c, 5, 63, 0
7, 122880, Note_on_c, 5, 62, 43
7, 122880, Note_on_c, 5, 55, 45
7, 123000, Note_on_c, 5, 55, 0
7, 123000, Note_on_c, 5, 62, 0
7, 123360, Note_on_c, 5, 67, 43
7, 123360, Note_on_c, 5, 58, 49
7, 123390, Note_on_c, 5, 58, 0
7, 123390, Note_on_c, 5, 67, 0
7, 123420, Note_on_c, 5, 67, 43
7, 123420, Note_on_c, 5, 58, 43
7, 123450, Note_on_c, 5, 58, 0
7, 123450, Note_on_c, 5, 67, 0
7, 123480, Note_on_c, 5, 67, 35
7, 123480, Note_on_c, 5, 58, 38
7, 123510, Note_on_c, 5, 58, 0
7, 123510, Note_on_c, 5, 67, 0
7, 123540, Note_on_c, 5, 67, 42
7, 123540, Note_on_c, 5, 58, 35
7, 123570, Note_on_c, 5, 58, 0
7, 123570, Note_on_c, 5, 67, 0
7, 123600, Note_on_c, 5, 67, 35
7, 123600, Note_on_c, 5, 58, 40
7, 123630, Note_on_c, 5, 58, 0
7, 123630, Note_on_c, 5, 67, 0
7, 123660, Note_on_c, 5, 67, 43
7, 123660, Note_on_c, 5, 58, 34
7, 123690, Note_on_c, 5, 58, 0
7, 123690, Note_on_c, 5, 67, 0
7, 123720, Note_on_c, 5, 67, 40
7, 123720, Note_on_c, 5, 58, 45
7, 123750, Note_on_c, 5, 58, 0
7, 123750, Note_on_c, 5, 67, 0
7, 123780, Note_on_c, 5, 65, 46
7, 123780, Note_on_c, 5, 58, 50
7, 123810, Note_on_c, 5, 58, 0
7, 123810, Note_on_c, 5, 65, 0
7, 123840, Note_on_c, 5, 64, 43
7, 123840, Note_on_c, 5, 58, 50
7, 123960, Note_on_c, 5, 58, 0
7, 123960, Note_on_c, 5, 64, 0
7, 124320, Note_on_c, 5, 70, 59
7, 124380, Note_on_c, 5, 70, 0
7, 124380, Note_on_c, 5, 70, 50
7, 124440, Note_on_c, 5, 70, 0
7, 124440, Note_on_c, 5, 70, 53
7, 124500, Note_on_c, 5, 70, 0
7, 124500, Note_on_c, 5, 70, 46
7, 124560, Note_on_c, 5, 70, 0
7, 124560, Note_on_c, 5, 70, 43
7, 124620, Note_on_c, 5, 70, 0
7, 124620, Note_on_c, 5, 70, 46
7, 124680, Note_on_c, 5, 70, 0
7, 124680, Note_on_c, 5, 70, 45
7, 124740, Note_on_c, 5, 70, 0
7, 124740, Note_on_c, 5, 70, 60
7, 124800, Note_on_c, 5, 70, 0
7, 124800, Note_on_c, 5, 70, 45
7, 124920, Note_on_c, 5, 70, 0
7, 126840, Note_on_c, 5, 73, 61
7, 126960, Note_on_c, 5, 73, 0
7, 127080, Note_on_c, 5, 73, 61
7, 127200, Note_on_c, 5, 73, 0
7, 127320, Note_on_c, 5, 73, 66
7, 127440, Note_on_c, 5, 73, 0
7, 127560, Note_on_c, 5, 73, 55
7, 127680, Note_on_c, 5, 73, 0
7, 127800, Note_on_c, 5, 73, 54
7, 127920, Note_on_c, 5, 73, 0
7, 128040, Note_on_c, 5, 61, 58
7, 128160, Note_on_c, 5, 61, 0
7, 128280, Note_on_c, 5, 61, 62
7, 128400, Note_on_c, 5, 61, 0
7, 128520, Note_on_c, 5, 64, 57
7, 128640, Note_on_c, 5, 64, 0
7, 128640, Note_on_c, 5, 65, 62
7, 128760, Note_on_c, 5, 65, 0
7, 128760, Note_on_c, 5, 69, 71
7, 128820, Note_on_c, 5, 69, 0
7, 128820, Note_on_c, 5, 70, 72
7, 128880, Note_on_c, 5, 70, 0
7, 128880, Note_on_c, 5, 72, 50
7, 128940, Note_on_c, 5, 72, 0
7, 128940, Note_on_c, 5, 73, 69
7, 129000, Note_on_c, 5, 73, 0
7, 129000, Note_on_c, 5, 75, 77
7, 129060, Note_on_c, 5, 75, 0
7, 129060, Note_on_c, 5, 72, 59
7, 129120, Note_on_c, 5, 72, 0
7, 129120, Note_on_c, 5, 73, 65
7, 129240, Note_on_c, 5, 73, 0
7, 129720, Note_on_c, 5, 69, 65
7, 129780, Note_on_c, 5, 69, 0
7, 129780, Note_on_c, 5, 70, 80
7, 129840, Note_on_c, 5, 70, 0
7, 129840, Note_on_c, 5, 72, 58
7, 129900, Note_on_c, 5, 72, 0
7, 129900, Note_on_c, 5, 73, 60
7, 129960, Note_on_c, 5, 73, 0
7, 129960, Note_on_c, 5, 75, 74
7, 130020, Note_on_c, 5, 75, 0
7, 130020, Note_on_c, 5, 72, 76
7, 130080, Note_on_c, 5, 72, 0
7, 130080, Note_on_c, 5, 73, 65
7, 130200, Note_on_c, 5, 73, 0
7, 130680, Note_on_c, 5, 69, 65
7, 130740, Note_on_c, 5, 69, 0
7, 130740, Note_on_c, 5, 70, 80
7, 130800, Note_on_c, 5, 70, 0
7, 130800, Note_on_c, 5, 72, 58
7, 130860, Note_on_c, 5, 72, 0
7, 130860, Note_on_c, 5, 73, 60
7, 130920, Note_on_c, 5, 73, 0
7, 130920, Note_on_c, 5, 75, 74
7, 130980, Note_on_c, 5, 75, 0
7, 130980, Note_on_c, 5, 72, 76
7, 131040, Note_on_c, 5, 72, 0
7, 131040, Note_on_c, 5, 73, 65
7, 131160, Note_on_c, 5, 73, 0
7, 131160, Note_on_c, 5, 77, 54
7, 131400, Note_on_c, 5, 77, 0
7, 131400, Note_on_c, 5, 77, 69
7, 131640, Note_on_c, 5, 77, 0
7, 131640, Note_on_c, 5, 72, 52
7, 131640, Note_on_c, 5, 65, 58
7, 131760, Note_on_c, 5, 72, 0
7, 131760, Note_on_c, 5, 73, 42
7, 131880, Note_on_c, 5, 73, 0
7, 131880, Note_on_c, 5, 65, 0
7, 132120, Note_on_c, 5, 72, 66
7, 132120, Note_on_c, 5, 65, 44
7, 132240, Note_on_c, 5, 72, 0
7, 132240, Note_on_c, 5, 73, 58
7, 132360, Note_on_c, 5, 73, 0
7, 132360, Note_on_c, 5, 65, 0
7, 132720, Note_on_c, 5, 65, 53
7, 132840, Note_on_c, 5, 65, 0
7, 132960, Note_on_c, 5, 69, 59
7, 133080, Note_on_c, 5, 69, 0
7, 133440, Note_on_c, 5, 72, 40
7, 133560, Note_on_c, 5, 72, 0
7, 133920, Note_on_c, 5, 75, 43
7, 134040, Note_on_c, 5, 75, 0
7, 134880, Note_on_c, 5, 69, 44
7, 135060, Note_on_c, 5, 69, 0
7, 135090, Note_on_c, 5, 69, 68
7, 135120, Note_on_c, 5, 69, 0
7, 135120, Note_on_c, 5, 75, 43
7, 135165, Note_on_c, 5, 75, 0
7, 135210, Note_on_c, 5, 75, 51
7, 135225, Note_on_c, 5, 75, 0
7, 135240, Note_on_c, 5, 72, 52
7, 135285, Note_on_c, 5, 72, 0
7, 135330, Note_on_c, 5, 72, 65
7, 135345, Note_on_c, 5, 72, 0
7, 135360, Note_on_c, 5, 69, 43
7, 135480, Note_on_c, 5, 69, 0
7, 135830, Control_c, 5, 7, 54
7, 135840, Control_c, 5, 7, 54
7, 135840, Note_on_c, 5, 77, 93
7, 135852, Control_c, 5, 7, 55
7, 135862, Control_c, 5, 7, 56
7, 135872, Control_c, 5, 7, 57
7, 135884, Control_c, 5, 7, 58
7, 135894, Control_c, 5, 7, 59
7, 135904, Control_c, 5, 7, 60
7, 135916, Control_c, 5, 7, 61
7, 135926, Control_c, 5, 7, 62
7, 135936, Control_c, 5, 7, 63
7, 135948, Control_c, 5, 7, 64
7, 135958, Control_c, 5, 7, 65
7, 135968, Control_c, 5, 7, 66
7, 135980, Control_c, 5, 7, 67
7, 135990, Control_c, 5, 7, 68
7, 136000, Control_c, 5, 7, 69
7, 136012, Control_c, 5, 7, 70
7, 136022, Control_c, 5, 7, 71
7, 136032, Control_c, 5, 7, 72
7, 136044, Control_c, 5, 7, 73
7, 136054, Control_c, 5, 7, 74
7, 136064, Control_c, 5, 7, 75
7, 136076, Control_c, 5, 7, 76
7, 136086, Control_c, 5, 7, 77
7, 136096, Control_c, 5, 7, 78
7, 136108, Control_c, 5, 7, 79
7, 136118, Control_c, 5, 7, 80
7, 136128, Control_c, 5, 7, 81
7, 136140, Control_c, 5, 7, 82
7, 136150, Control_c, 5, 7, 83
7, 136160, Control_c, 5, 7, 84
7, 136172, Control_c, 5, 7, 85
7, 136182, Control_c, 5, 7, 86
7, 136192, Control_c, 5, 7, 87
7, 136200, Note_on_c, 5, 77, 0
7, 136200, Note_on_c, 5, 77, 94
7, 136204, Control_c, 5, 7, 88
7, 136214, Control_c, 5, 7, 89
7, 136224, Control_c, 5, 7, 90
7, 136230, Note_on_c, 5, 77, 0
7, 136230, Note_on_c, 5, 75, 95
7, 136236, Control_c, 5, 7, 91
7, 136246, Control_c, 5, 7, 92
7, 136256, Control_c, 5, 7, 93
7, 136260, Note_on_c, 5, 75, 0
7, 136260, Note_on_c, 5, 74, 104
7, 136268, Control_c, 5, 7, 94
7, 136278, Control_c, 5, 7, 95
7, 136288, Control_c, 5, 7, 96
7, 136290, Note_on_c, 5, 74, 0
7, 136290, Note_on_c, 5, 72, 81
7, 136300, Control_c, 5, 7, 97
7, 136310, Control_c, 5, 7, 98
7, 136320, Note_on_c, 5, 72, 0
7, 136320, Note_on_c, 5, 82, 89
7, 136320, Note_on_c, 5, 70, 85
7, 136320, Note_on_c, 5, 62, 99
7, 136500, Note_on_c, 5, 62, 0
7, 136500, Note_on_c, 5, 70, 0
7, 136500, Note_on_c, 5, 82, 0
7, 136530, Note_on_c, 5, 58, 90
7, 136560, Note_on_c, 5, 58, 0
7, 136560, Note_on_c, 5, 65, 99
7, 136605, Note_on_c, 5, 65, 0
7, 136650, Note_on_c, 5, 65, 101
7, 136665, Note_on_c, 5, 65, 0
7, 136680, Note_on_c, 5, 62, 101
7, 136725, Note_on_c, 5, 62, 0
7, 136770, Note_on_c, 5, 62, 99
7, 136785, Note_on_c, 5, 62, 0
7, 136800, Note_on_c, 5, 58, 90
7, 136920, Note_on_c, 5, 58, 0
7, 137100, Note_on_c, 5, 65, 57
7, 137160, Note_on_c, 5, 65, 0
7, 137160, Note_on_c, 5, 74, 71
7, 137220, Note_on_c, 5, 74, 0
7, 137220, Note_on_c, 5, 70, 68
7, 137280, Note_on_c, 5, 70, 0
7, 137280, Note_on_c, 5, 69, 72
7, 137460, Note_on_c, 5, 69, 0
7, 137460, Note_on_c, 5, 70, 71
7, 137520, Note_on_c, 5, 70, 0
7, 137520, Note_on_c, 5, 72, 67
7, 137580, Note_on_c, 5, 72, 0
7, 137580, Note_on_c, 5, 74, 58
7, 137640, Note_on_c, 5, 74, 0
7, 137640, Note_on_c, 5, 75, 76
7, 137700, Note_on_c, 5, 75, 0
7, 137700, Note_on_c, 5, 72, 66
7, 137760, Note_on_c, 5, 72, 0
7, 137760, Note_on_c, 5, 69, 69
7, 137880, Note_on_c, 5, 69, 0
7, 138240, Note_on_c, 5, 84, 76
7, 138240, Note_on_c, 5, 75, 84
7, 138240, Note_on_c, 5, 65, 89
7, 138420, Note_on_c, 5, 65, 0
7, 138420, Note_on_c, 5, 75, 0
7, 138420, Note_on_c, 5, 84, 0
7, 138450, Note_on_c, 5, 65, 93
7, 138480, Note_on_c, 5, 65, 0
7, 138480, Note_on_c, 5, 72, 57
7, 138525, Note_on_c, 5, 72, 0
7, 138570, Note_on_c, 5, 72, 58
7, 138585, Note_on_c, 5, 72, 0
7, 138600, Note_on_c, 5, 69, 90
7, 138645, Note_on_c, 5, 69, 0
7, 138690, Note_on_c, 5, 69, 94
7, 138705, Note_on_c, 5, 69, 0
7, 138720, Note_on_c, 5, 65, 93
7, 138840, Note_on_c, 5, 65, 0
7, 139020, Note_on_c, 5, 69, 89
7, 139080, Note_on_c, 5, 69, 0
7, 139080, Note_on_c, 5, 75, 61
7, 139140, Note_on_c, 5, 75, 0
7, 139140, Note_on_c, 5, 72, 67
7, 139200, Note_on_c, 5, 72, 0
7, 139200, Note_on_c, 5, 70, 62
7, 139380, Note_on_c, 5, 70, 0
7, 139380, Note_on_c, 5, 72, 65
7, 139440, Note_on_c, 5, 72, 0
7, 139440, Note_on_c, 5, 74, 64
7, 139500, Note_on_c, 5, 74, 0
7, 139500, Note_on_c, 5, 75, 61
7, 139560, Note_on_c, 5, 75, 0
7, 139560, Note_on_c, 5, 77, 57
7, 139620, Note_on_c, 5, 77, 0
7, 139620, Note_on_c, 5, 74, 62
7, 139680, Note_on_c, 5, 74, 0
7, 139680, Note_on_c, 5, 70, 51
7, 139800, Note_on_c, 5, 70, 0
7, 140280, Note_on_c, 5, 70, 53
7, 140370, Note_on_c, 5, 70, 0
7, 140400, Note_on_c, 5, 70, 45
7, 140490, Note_on_c, 5, 70, 0
7, 140520, Note_on_c, 5, 70, 53
7, 140610, Note_on_c, 5, 70, 0
7, 140760, Note_on_c, 5, 72, 43
7, 140850, Note_on_c, 5, 72, 0
7, 140880, Note_on_c, 5, 72, 44
7, 140970, Note_on_c, 5, 72, 0
7, 141000, Note_on_c, 5, 72, 43
7, 141090, Note_on_c, 5, 72, 0
7, 141240, Note_on_c, 5, 69, 62
7, 141330, Note_on_c, 5, 69, 0
7, 141360, Note_on_c, 5, 69, 54
7, 141450, Note_on_c, 5, 69, 0
7, 141480, Note_on_c, 5, 69, 58
7, 141570, Note_on_c, 5, 69, 0
7, 141720, Note_on_c, 5, 70, 54
7, 141810, Note_on_c, 5, 70, 0
7, 141840, Note_on_c, 5, 70, 53
7, 141930, Note_on_c, 5, 70, 0
7, 141960, Note_on_c, 5, 70, 57
7, 142050, Note_on_c, 5, 70, 0
7, 142200, Note_on_c, 5, 70, 62
7, 142290, Note_on_c, 5, 70, 0
7, 142320, Note_on_c, 5, 70, 52
7, 142410, Note_on_c, 5, 70, 0
7, 142440, Note_on_c, 5, 70, 43
7, 142530, Note_on_c, 5, 70, 0
7, 142680, Note_on_c, 5, 72, 43
7, 142770, Note_on_c, 5, 72, 0
7, 142800, Note_on_c, 5, 72, 47
7, 142890, Note_on_c, 5, 72, 0
7, 142920, Note_on_c, 5, 72, 53
7, 143010, Note_on_c, 5, 72, 0
7, 143160, Note_on_c, 5, 69, 46
7, 143250, Note_on_c, 5, 69, 0
7, 143280, Note_on_c, 5, 69, 52
7, 143370, Note_on_c, 5, 69, 0
7, 143400, Note_on_c, 5, 69, 71
7, 143490, Note_on_c, 5, 69, 0
7, 143520, Note_on_c, 5, 70, 40
7, 143700, Note_on_c, 5, 70, 0
7, 143730, Note_on_c, 5, 70, 46
7, 143760, Note_on_c, 5, 70, 0
7, 143760, Note_on_c, 5, 77, 57
7, 143805, Note_on_c, 5, 77, 0
7, 143850, Note_on_c, 5, 77, 45
7, 143873, Note_on_c, 5, 77, 0
7, 143880, Note_on_c, 5, 74, 61
7, 143925, Note_on_c, 5, 74, 0
7, 143970, Note_on_c, 5, 74, 39
7, 143993, Note_on_c, 5, 74, 0
7, 144000, Note_on_c, 5, 70, 45
7, 144060, Note_on_c, 5, 70, 0
7, 144120, Note_on_c, 5, 74, 45
7, 144180, Note_on_c, 5, 74, 0
7, 144240, Note_on_c, 5, 77, 44
7, 144300, Note_on_c, 5, 77, 0
7, 144360, Note_on_c, 5, 82, 40
7, 144420, Note_on_c, 5, 82, 0
7, 144480, Note_on_c, 5, 81, 41
7, 144600, Note_on_c, 5, 81, 0
7, 145260, Note_on_c, 5, 65, 55
7, 145320, Note_on_c, 5, 65, 0
7, 145320, Note_on_c, 5, 67, 55
7, 145380, Note_on_c, 5, 67, 0
7, 145380, Note_on_c, 5, 69, 60
7, 145440, Note_on_c, 5, 69, 0
7, 145440, Note_on_c, 5, 70, 40
7, 145620, Note_on_c, 5, 70, 0
7, 145650, Note_on_c, 5, 70, 65
7, 145680, Note_on_c, 5, 70, 0
7, 145680, Note_on_c, 5, 77, 61
7, 145725, Note_on_c, 5, 77, 0
7, 145770, Note_on_c, 5, 77, 54
7, 145793, Note_on_c, 5, 77, 0
7, 145800, Note_on_c, 5, 74, 58
7, 145845, Note_on_c, 5, 74, 0
7, 145890, Note_on_c, 5, 74, 48
7, 145913, Note_on_c, 5, 74, 0
7, 145920, Note_on_c, 5, 70, 54
7, 145980, Note_on_c, 5, 70, 0
7, 146040, Note_on_c, 5, 74, 53
7, 146100, Note_on_c, 5, 74, 0
7, 146160, Note_on_c, 5, 77, 51
7, 146220, Note_on_c, 5, 77, 0
7, 146280, Note_on_c, 5, 82, 59
7, 146340, Note_on_c, 5, 82, 0
7, 146460, Note_on_c, 5, 70, 43
7, 146520, Note_on_c, 5, 70, 0
7, 146520, Note_on_c, 5, 70, 48
7, 146580, Note_on_c, 5, 70, 0
7, 146580, Note_on_c, 5, 70, 46
7, 146640, Note_on_c, 5, 70, 0
7, 146640, Note_on_c, 5, 70, 43
7, 146700, Note_on_c, 5, 70, 0
7, 146700, Note_on_c, 5, 70, 46
7, 146760, Note_on_c, 5, 70, 0
7, 146760, Note_on_c, 5, 70, 50
7, 146820, Note_on_c, 5, 70, 0
7, 146820, Note_on_c, 5, 70, 64
7, 146880, Note_on_c, 5, 70, 0
7, 146940, Note_on_c, 5, 64, 45
7, 146940, Note_on_c, 5, 58, 40
7, 147000, Note_on_c, 5, 58, 0
7, 147000, Note_on_c, 5, 64, 0
7, 147000, Note_on_c, 5, 64, 60
7, 147000, Note_on_c, 5, 58, 42
7, 147060, Note_on_c, 5, 58, 0
7, 147060, Note_on_c, 5, 64, 0
7, 147060, Note_on_c, 5, 64, 46
7, 147060, Note_on_c, 5, 58, 30
7, 147120, Note_on_c, 5, 58, 0
7, 147120, Note_on_c, 5, 64, 0
7, 147120, Note_on_c, 5, 64, 40
7, 147120, Note_on_c, 5, 58, 31
7, 147180, Note_on_c, 5, 58, 0
7, 147180, Note_on_c, 5, 64, 0
7, 147180, Note_on_c, 5, 64, 41
7, 147180, Note_on_c, 5, 58, 31
7, 147240, Note_on_c, 5, 58, 0
7, 147240, Note_on_c, 5, 64, 0
7, 147240, Note_on_c, 5, 64, 43
7, 147240, Note_on_c, 5, 58, 33
7, 147300, Note_on_c, 5, 58, 0
7, 147300, Note_on_c, 5, 64, 0
7, 147300, Note_on_c, 5, 58, 39
7, 147300, Note_on_c, 5, 64, 45
7, 147360, Note_on_c, 5, 64, 0
7, 147360, Note_on_c, 5, 58, 0
7, 147360, Note_on_c, 5, 65, 41
7, 147360, Note_on_c, 5, 57, 42
7, 147480, Note_on_c, 5, 57, 0
7, 147480, Note_on_c, 5, 65, 0
7, 147720, Note_on_c, 5, 64, 40
7, 147780, Note_on_c, 5, 64, 0
7, 147840, Note_on_c, 5, 65, 45
7, 147900, Note_on_c, 5, 65, 0
7, 148200, Note_on_c, 5, 70, 41
7, 148260, Note_on_c, 5, 70, 0
7, 148320, Note_on_c, 5, 69, 54
7, 148380, Note_on_c, 5, 69, 0
7, 148440, Note_on_c, 5, 70, 47
7, 148500, Note_on_c, 5, 70, 0
7, 148560, Note_on_c, 5, 69, 45
7, 148620, Note_on_c, 5, 69, 0
7, 148680, Note_on_c, 5, 70, 53
7, 148740, Note_on_c, 5, 70, 0
7, 148800, Note_on_c, 5, 69, 64
7, 148920, Note_on_c, 5, 69, 0
7, 149040, Note_on_c, 5, 77, 71
7, 149130, Note_on_c, 5, 77, 0
7, 149160, Note_on_c, 5, 77, 84
7, 149250, Note_on_c, 5, 77, 0
7, 149280, Note_on_c, 5, 82, 89
7, 149340, Control_c, 5, 7, 99
7, 149342, Control_c, 5, 7, 98
7, 149344, Control_c, 5, 7, 97
7, 149346, Control_c, 5, 7, 96
7, 149348, Control_c, 5, 7, 95
7, 149350, Control_c, 5, 7, 93
7, 149352, Control_c, 5, 7, 92
7, 149354, Control_c, 5, 7, 91
7, 149356, Control_c, 5, 7, 90
7, 149358, Control_c, 5, 7, 89
7, 149360, Control_c, 5, 7, 87
7, 149362, Control_c, 5, 7, 86
7, 149364, Control_c, 5, 7, 85
7, 149366, Control_c, 5, 7, 84
7, 149368, Control_c, 5, 7, 83
7, 149370, Control_c, 5, 7, 81
7, 149372, Control_c, 5, 7, 80
7, 149374, Control_c, 5, 7, 79
7, 149376, Control_c, 5, 7, 78
7, 149378, Control_c, 5, 7, 77
7, 149380, Control_c, 5, 7, 75
7, 149382, Control_c, 5, 7, 74
7, 149384, Control_c, 5, 7, 73
7, 149386, Control_c, 5, 7, 72
7, 149388, Control_c, 5, 7, 71
7, 149390, Control_c, 5, 7, 69
7, 149392, Control_c, 5, 7, 68
7, 149394, Control_c, 5, 7, 67
7, 149396, Control_c, 5, 7, 66
7, 149398, Control_c, 5, 7, 65
7, 149400, Control_c, 5, 7, 63
7, 149520, Note_on_c, 5, 82, 0
7, 149520, Control_c, 5, 7, 99
7, 149520, Note_on_c, 5, 81, 49
7, 149580, Note_on_c, 5, 81, 0
7, 149580, Note_on_c, 5, 79, 44
7, 149640, Note_on_c, 5, 79, 0
7, 149640, Note_on_c, 5, 77, 61
7, 149700, Note_on_c, 5, 77, 0
7, 149700, Note_on_c, 5, 75, 64
7, 149760, Note_on_c, 5, 75, 0
7, 149760, Note_on_c, 5, 74, 43
7, 149880, Note_on_c, 5, 74, 0
7, 150000, Note_on_c, 5, 79, 61
7, 150060, Note_on_c, 5, 79, 0
7, 150060, Note_on_c, 5, 77, 45
7, 150120, Note_on_c, 5, 77, 0
7, 150120, Note_on_c, 5, 75, 71
7, 150180, Note_on_c, 5, 75, 0
7, 150180, Note_on_c, 5, 74, 62
7, 150240, Note_on_c, 5, 74, 0
7, 150240, Note_on_c, 5, 72, 76
7, 150300, Note_on_c, 5, 72, 0
7, 150360, Note_on_c, 5, 72, 43
7, 150420, Note_on_c, 5, 72, 0
7, 150480, Note_on_c, 5, 72, 71
7, 150540, Note_on_c, 5, 72, 0
7, 150600, Note_on_c, 5, 74, 60
7, 150660, Note_on_c, 5, 74, 0
7, 150720, Note_on_c, 5, 77, 98
7, 150960, Note_on_c, 5, 77, 0
7, 150960, Note_on_c, 5, 75, 80
7, 151080, Note_on_c, 5, 75, 0
7, 151080, Note_on_c, 5, 72, 52
7, 151140, Note_on_c, 5, 72, 0
7, 151140, Note_on_c, 5, 74, 61
7, 151200, Note_on_c, 5, 74, 0
7, 151200, Note_on_c, 5, 75, 104
7, 151260, Control_c, 5, 7, 99
7, 151262, Control_c, 5, 7, 98
7, 151264, Control_c, 5, 7, 97
7, 151266, Control_c, 5, 7, 96
7, 151268, Control_c, 5, 7, 95
7, 151270, Control_c, 5, 7, 94
7, 151272, Control_c, 5, 7, 93
7, 151274, Control_c, 5, 7, 92
7, 151276, Control_c, 5, 7, 91
7, 151278, Control_c, 5, 7, 90
7, 151280, Control_c, 5, 7, 89
7, 151282, Control_c, 5, 7, 87
7, 151284, Control_c, 5, 7, 86
7, 151286, Control_c, 5, 7, 85
7, 151288, Control_c, 5, 7, 84
7, 151290, Control_c, 5, 7, 83
7, 151292, Control_c, 5, 7, 82
7, 151294, Control_c, 5, 7, 81
7, 151296, Control_c, 5, 7, 80
7, 151298, Control_c, 5, 7, 79
7, 151300, Control_c, 5, 7, 78
7, 151302, Control_c, 5, 7, 76
7, 151304, Control_c, 5, 7, 75
7, 151306, Control_c, 5, 7, 74
7, 151308, Control_c, 5, 7, 73
7, 151310, Control_c, 5, 7, 72
7, 151312, Control_c, 5, 7, 71
7, 151314, Control_c, 5, 7, 70
7, 151316, Control_c, 5, 7, 69
7, 151318, Control_c, 5, 7, 68
7, 151320, Control_c, 5, 7, 67
7, 151322, Control_c, 5, 7, 65
7, 151440, Note_on_c, 5, 75, 0
7, 151440, Control_c, 5, 7, 99
7, 151440, Note_on_c, 5, 74, 60
7, 151500, Note_on_c, 5, 74, 0
7, 151500, Note_on_c, 5, 72, 43
7, 151560, Note_on_c, 5, 72, 0
7, 151560, Note_on_c, 5, 70, 57
7, 151620, Note_on_c, 5, 70, 0
7, 151620, Note_on_c, 5, 69, 58
7, 151680, Note_on_c, 5, 69, 0
7, 151680, Note_on_c, 5, 72, 57
7, 151740, Note_on_c, 5, 72, 0
7, 151740, Note_on_c, 5, 70, 64
7, 151800, Note_on_c, 5, 70, 0
7, 151800, Note_on_c, 5, 74, 45
7, 151830, Note_on_c, 5, 74, 0
7, 151860, Note_on_c, 5, 72, 53
7, 151890, Note_on_c, 5, 72, 0
7, 151920, Note_on_c, 5, 70, 62
7, 151980, Note_on_c, 5, 70, 0
7, 151980, Note_on_c, 5, 69, 53
7, 152040, Note_on_c, 5, 69, 0
7, 152040, Note_on_c, 5, 67, 50
7, 152070, Note_on_c, 5, 67, 0
7, 152100, Note_on_c, 5, 65, 44
7, 152130, Note_on_c, 5, 65, 0
7, 152160, Note_on_c, 5, 64, 65
7, 152220, Note_on_c, 5, 64, 0
7, 152220, Note_on_c, 5, 65, 64
7, 152280, Note_on_c, 5, 65, 0
7, 152280, Note_on_c, 5, 60, 42
7, 152310, Note_on_c, 5, 60, 0
7, 152340, Note_on_c, 5, 65, 53
7, 152370, Note_on_c, 5, 65, 0
7, 152400, Note_on_c, 5, 63, 56
7, 152460, Note_on_c, 5, 63, 0
7, 152460, Note_on_c, 5, 62, 61
7, 152520, Note_on_c, 5, 62, 0
7, 152520, Note_on_c, 5, 60, 66
7, 152550, Note_on_c, 5, 60, 0
7, 152580, Note_on_c, 5, 58, 59
7, 152610, Note_on_c, 5, 58, 0
7, 152640, Control_c, 5, 7, 99
7, 152640, Note_on_c, 5, 62, 73
7, 152648, Control_c, 5, 7, 100
7, 152654, Control_c, 5, 7, 101
7, 152660, Control_c, 5, 7, 102
7, 152668, Control_c, 5, 7, 103
7, 152674, Control_c, 5, 7, 104
7, 152680, Control_c, 5, 7, 105
7, 152688, Control_c, 5, 7, 106
7, 152694, Control_c, 5, 7, 107
7, 152700, Control_c, 5, 7, 108
7, 152708, Control_c, 5, 7, 109
7, 152714, Control_c, 5, 7, 110
7, 152720, Control_c, 5, 7, 111
7, 152728, Control_c, 5, 7, 112
7, 152734, Control_c, 5, 7, 113
7, 152740, Control_c, 5, 7, 114
7, 152748, Control_c, 5, 7, 115
7, 152754, Control_c, 5, 7, 116
7, 152760, Control_c, 5, 7, 117
7, 152768, Control_c, 5, 7, 118
7, 152774, Control_c, 5, 7, 119
7, 152780, Control_c, 5, 7, 120
7, 152788, Control_c, 5, 7, 121
7, 152794, Control_c, 5, 7, 122
7, 152800, Control_c, 5, 7, 123
7, 152808, Control_c, 5, 7, 124
7, 152814, Control_c, 5, 7, 125
7, 152820, Control_c, 5, 7, 126
7, 152822, Control_c, 5, 7, 126
7, 152830, Control_c, 5, 7, 125
7, 152836, Control_c, 5, 7, 124
7, 152842, Control_c, 5, 7, 123
7, 152850, Control_c, 5, 7, 122
7, 152856, Control_c, 5, 7, 121
7, 152862, Control_c, 5, 7, 120
7, 152870, Control_c, 5, 7, 119
7, 152876, Control_c, 5, 7, 118
7, 152880, Note_on_c, 5, 62, 0
7, 152880, Note_on_c, 5, 60, 62
7, 152882, Control_c, 5, 7, 117
7, 152888, Control_c, 5, 7, 116
7, 152896, Control_c, 5, 7, 115
7, 152902, Control_c, 5, 7, 114
7, 152908, Control_c, 5, 7, 113
7, 152916, Control_c, 5, 7, 112
7, 152922, Control_c, 5, 7, 111
7, 152928, Control_c, 5, 7, 110
7, 152936, Control_c, 5, 7, 109
7, 152942, Control_c, 5, 7, 108
7, 152948, Control_c, 5, 7, 107
7, 152954, Control_c, 5, 7, 106
7, 152962, Control_c, 5, 7, 105
7, 152968, Control_c, 5, 7, 104
7, 152974, Control_c, 5, 7, 103
7, 152982, Control_c, 5, 7, 102
7, 152988, Control_c, 5, 7, 101
7, 152994, Control_c, 5, 7, 100
7, 153000, Note_on_c, 5, 60, 0
7, 153000, Control_c, 5, 7, 99
7, 153240, Note_on_c, 5, 70, 52
7, 153360, Note_on_c, 5, 70, 0
7, 153480, Note_on_c, 5, 69, 57
7, 153600, Note_on_c, 5, 69, 0
7, 153720, Note_on_c, 5, 70, 71
7, 153840, Note_on_c, 5, 70, 0
7, 155160, Note_on_c, 5, 75, 53
7, 155280, Note_on_c, 5, 75, 0
7, 155400, Note_on_c, 5, 69, 51
7, 155520, Note_on_c, 5, 69, 0
7, 155640, Note_on_c, 5, 70, 64
7, 155760, Note_on_c, 5, 70, 0
7, 156120, Note_on_c, 5, 67, 60
7, 156180, Note_on_c, 5, 67, 0
7, 156180, Note_on_c, 5, 63, 61
7, 156240, Note_on_c, 5, 63, 0
7, 156240, Note_on_c, 5, 62, 56
7, 156300, Note_on_c, 5, 62, 0
7, 156300, Note_on_c, 5, 65, 65
7, 156360, Note_on_c, 5, 65, 0
7, 156360, Note_on_c, 5, 63, 60
7, 156420, Note_on_c, 5, 63, 0
7, 156420, Note_on_c, 5, 60, 61
7, 156480, Note_on_c, 5, 60, 0
7, 156480, Note_on_c, 5, 58, 45
7, 156600, Note_on_c, 5, 58, 0
7, 157800, Note_on_c, 5, 67, 64
7, 157920, Note_on_c, 5, 67, 0
7, 157920, Note_on_c, 5, 65, 69
7, 157980, Note_on_c, 5, 65, 0
7, 158040, Note_on_c, 5, 62, 54
7, 158100, Note_on_c, 5, 62, 0
7, 158280, Note_on_c, 5, 67, 58
7, 158400, Note_on_c, 5, 67, 0
7, 158400, Note_on_c, 5, 65, 58
7, 158460, Note_on_c, 5, 65, 0
7, 158520, Note_on_c, 5, 62, 68
7, 158580, Note_on_c, 5, 62, 0
7, 159360, Note_on_c, 5, 66, 32
7, 159840, Note_on_c, 5, 66, 0
7, 159840, Note_on_c, 5, 65, 38
7, 160080, Note_on_c, 5, 65, 0
7, 160080, Note_on_c, 5, 61, 43
7, 160320, Note_on_c, 5, 61, 0
7, 160320, Note_on_c, 5, 66, 40
7, 160800, Note_on_c, 5, 66, 0
7, 160800, Note_on_c, 5, 65, 43
7, 161040, Note_on_c, 5, 65, 0
7, 161040, Note_on_c, 5, 61, 40
7, 161280, Note_on_c, 5, 61, 0
7, 161280, Note_on_c, 5, 66, 42
7, 161400, Note_on_c, 5, 66, 0
7, 161400, Note_on_c, 5, 70, 45
7, 161520, Note_on_c, 5, 70, 0
7, 161640, Note_on_c, 5, 70, 53
7, 161760, Note_on_c, 5, 70, 0
7, 161880, Note_on_c, 5, 70, 43
7, 162000, Note_on_c, 5, 70, 0
7, 162120, Note_on_c, 5, 69, 43
7, 162240, Note_on_c, 5, 69, 0
7, 162360, Note_on_c, 5, 70, 50
7, 162480, Note_on_c, 5, 70, 0
7, 162600, Note_on_c, 5, 73, 52
7, 162720, Note_on_c, 5, 73, 0
7, 162840, Note_on_c, 5, 74, 62
7, 162960, Note_on_c, 5, 74, 0
7, 163080, Note_on_c, 5, 69, 43
7, 163200, Note_on_c, 5, 69, 0
7, 163200, Note_on_c, 5, 70, 66
7, 163230, Note_on_c, 5, 70, 0
7, 163260, Note_on_c, 5, 74, 65
7, 163290, Note_on_c, 5, 74, 0
7, 163320, Note_on_c, 5, 74, 71
7, 163350, Note_on_c, 5, 74, 0
7, 163380, Note_on_c, 5, 74, 61
7, 163410, Note_on_c, 5, 74, 0
7, 163440, Note_on_c, 5, 75, 99
7, 163680, Note_on_c, 5, 75, 0
7, 163680, Note_on_c, 5, 74, 70
7, 163710, Note_on_c, 5, 74, 0
7, 163740, Note_on_c, 5, 70, 71
7, 163770, Note_on_c, 5, 70, 0
7, 163800, Note_on_c, 5, 70, 58
7, 163830, Note_on_c, 5, 70, 0
7, 163860, Note_on_c, 5, 70, 68
7, 163890, Note_on_c, 5, 70, 0
7, 163920, Note_on_c, 5, 69, 99
7, 164160, Note_on_c, 5, 69, 0
7, 164160, Note_on_c, 5, 70, 67
7, 164220, Note_on_c, 5, 70, 0
7, 164220, Note_on_c, 5, 74, 72
7, 164280, Note_on_c, 5, 74, 0
7, 164280, Note_on_c, 5, 74, 45
7, 164340, Note_on_c, 5, 74, 0
7, 164340, Note_on_c, 5, 74, 44
7, 164400, Note_on_c, 5, 74, 0
7, 164400, Note_on_c, 5, 75, 46
7, 164460, Note_on_c, 5, 75, 0
7, 164460, Note_on_c, 5, 75, 45
7, 164520, Note_on_c, 5, 75, 0
7, 164520, Note_on_c, 5, 75, 43
7, 164580, Note_on_c, 5, 75, 0
7, 164580, Note_on_c, 5, 75, 64
7, 164640, Note_on_c, 5, 75, 0
7, 164640, Note_on_c, 5, 74, 65
7, 164700, Note_on_c, 5, 74, 0
7, 164700, Note_on_c, 5, 70, 59
7, 164760, Note_on_c, 5, 70, 0
7, 164760, Note_on_c, 5, 70, 53
7, 164820, Note_on_c, 5, 70, 0
7, 164820, Note_on_c, 5, 70, 63
7, 164880, Note_on_c, 5, 70, 0
7, 164880, Note_on_c, 5, 69, 58
7, 164940, Note_on_c, 5, 69, 0
7, 164940, Note_on_c, 5, 69, 57
7, 165000, Note_on_c, 5, 69, 0
7, 165000, Note_on_c, 5, 69, 62
7, 165060, Note_on_c, 5, 69, 0
7, 165060, Note_on_c, 5, 69, 64
7, 165120, Note_on_c, 5, 69, 0
7, 165120, Note_on_c, 5, 70, 42
7, 165240, Note_on_c, 5, 70, 0
7, 168000, Note_on_c, 5, 57, 62
7, 168030, Note_on_c, 5, 57, 0
7, 168060, Note_on_c, 5, 58, 61
7, 168090, Note_on_c, 5, 58, 0
7, 168120, Note_on_c, 5, 60, 62
7, 168150, Note_on_c, 5, 60, 0
7, 168180, Note_on_c, 5, 62, 70
7, 168210, Note_on_c, 5, 62, 0
7, 168240, Note_on_c, 5, 63, 64
7, 168270, Note_on_c, 5, 63, 0
7, 168300, Note_on_c, 5, 65, 59
7, 168330, Note_on_c, 5, 65, 0
7, 168360, Note_on_c, 5, 67, 65
7, 168390, Note_on_c, 5, 67, 0
7, 168420, Note_on_c, 5, 69, 74
7, 168450, Note_on_c, 5, 69, 0
7, 168480, Note_on_c, 5, 70, 76
7, 168600, Note_on_c, 5, 70, 0
7, 168720, Note_on_c, 5, 66, 44
7, 168840, Note_on_c, 5, 66, 0
7, 168960, Note_on_c, 5, 67, 65
7, 169080, Note_on_c, 5, 67, 0
7, 171480, Note_on_c, 5, 72, 76
7, 171600, Note_on_c, 5, 72, 0
7, 171720, Note_on_c, 5, 74, 69
7, 171840, Note_on_c, 5, 74, 0
7, 171960, Note_on_c, 5, 75, 94
7, 172200, Note_on_c, 5, 75, 0
7, 172200, Note_on_c, 5, 73, 64
7, 172320, Note_on_c, 5, 73, 0
7, 172440, Note_on_c, 5, 72, 51
7, 172560, Note_on_c, 5, 72, 0
7, 172680, Note_on_c, 5, 74, 76
7, 172800, Note_on_c, 5, 74, 0
7, 172920, Note_on_c, 5, 75, 64
7, 173160, Note_on_c, 5, 75, 0
7, 173160, Note_on_c, 5, 75, 64
7, 173280, Note_on_c, 5, 75, 0
7, 173400, Note_on_c, 5, 76, 71
7, 173640, Note_on_c, 5, 76, 0
7, 173640, Note_on_c, 5, 76, 70
7, 173760, Note_on_c, 5, 76, 0
7, 173760, Note_on_c, 5, 76, 74
7, 173880, Note_on_c, 5, 76, 0
7, 174000, Note_on_c, 5, 64, 104
7, 174240, Note_on_c, 5, 64, 0
7, 174240, Note_on_c, 5, 65, 99
7, 174300, Note_on_c, 5, 65, 0
7, 174960, Note_on_c, 5, 64, 105
7, 175200, Note_on_c, 5, 64, 0
7, 175200, Note_on_c, 5, 65, 99
7, 175260, Note_on_c, 5, 65, 0
7, 175920, Note_on_c, 5, 64, 104
7, 176160, Note_on_c, 5, 64, 0
7, 176160, Note_on_c, 5, 65, 99
7, 176220, Note_on_c, 5, 65, 0
7, 181080, Note_on_c, 5, 62, 65
7, 181140, Note_on_c, 5, 62, 0
7, 181200, Note_on_c, 5, 65, 68
7, 181560, Note_on_c, 5, 65, 0
7, 181560, Note_on_c, 5, 65, 78
7, 181620, Note_on_c, 5, 65, 0
7, 181680, Note_on_c, 5, 70, 76
7, 182040, Note_on_c, 5, 70, 0
7, 182040, Note_on_c, 5, 70, 76
7, 182100, Note_on_c, 5, 70, 0
7, 182160, Note_on_c, 5, 74, 77
7, 182220, Note_on_c, 5, 74, 0
7, 182280, Note_on_c, 5, 77, 73
7, 182340, Note_on_c, 5, 77, 0
7, 182400, Note_on_c, 5, 82, 82
7, 182460, Note_on_c, 5, 82, 0
7, 182940, Note_on_c, 5, 69, 68
7, 183000, Note_on_c, 5, 69, 0
7, 183000, Note_on_c, 5, 69, 71
7, 183060, Note_on_c, 5, 69, 0
7, 183060, Note_on_c, 5, 69, 71
7, 183120, Note_on_c, 5, 69, 0
7, 183120, Note_on_c, 5, 69, 74
7, 183180, Note_on_c, 5, 69, 0
7, 183180, Note_on_c, 5, 69, 69
7, 183240, Note_on_c, 5, 69, 0
7, 183240, Note_on_c, 5, 69, 72
7, 183300, Note_on_c, 5, 69, 0
7, 183300, Note_on_c, 5, 69, 73
7, 183360, Note_on_c, 5, 69, 0
7, 183360, Note_on_c, 5, 75, 76
7, 183420, Note_on_c, 5, 75, 0
7, 183420, Note_on_c, 5, 75, 74
7, 183480, Note_on_c, 5, 75, 0
7, 183480, Note_on_c, 5, 75, 65
7, 183540, Note_on_c, 5, 75, 0
7, 183540, Note_on_c, 5, 75, 72
7, 183600, Note_on_c, 5, 75, 0
7, 183600, Note_on_c, 5, 75, 74
7, 183660, Note_on_c, 5, 75, 0
7, 183660, Note_on_c, 5, 75, 64
7, 183720, Note_on_c, 5, 75, 0
7, 183720, Note_on_c, 5, 75, 67
7, 183780, Note_on_c, 5, 75, 0
7, 183780, Note_on_c, 5, 75, 68
7, 183840, Note_on_c, 5, 75, 0
7, 183840, Note_on_c, 5, 82, 93
7, 183840, Note_on_c, 5, 74, 99
7, 183840, Note_on_c, 5, 65, 99
7, 183960, Note_on_c, 5, 65, 0
7, 183960, Note_on_c, 5, 74, 0
7, 183960, Note_on_c, 5, 82, 0
7, 184380, Note_on_c, 5, 77, 99
7, 184410, Note_on_c, 5, 77, 0
7, 184440, Note_on_c, 5, 77, 101
7, 184470, Note_on_c, 5, 77, 0
7, 184500, Note_on_c, 5, 77, 99
7, 184530, Note_on_c, 5, 77, 0
7, 184560, Note_on_c, 5, 77, 119
7, 184620, Note_on_c, 5, 77, 0
7, 184620, Note_on_c, 5, 79, 101
7, 184680, Note_on_c, 5, 79, 0
7, 184680, Note_on_c, 5, 80, 99
7, 184710, Note_on_c, 5, 80, 0
7, 184740, Note_on_c, 5, 77, 99
7, 184770, Note_on_c, 5, 77, 0
7, 184800, Note_on_c, 5, 76, 104
7, 184920, Note_on_c, 5, 76, 0
7, 185340, Note_on_c, 5, 79, 95
7, 185370, Note_on_c, 5, 79, 0
7, 185400, Note_on_c, 5, 79, 94
7, 185430, Note_on_c, 5, 79, 0
7, 185460, Note_on_c, 5, 79, 99
7, 185490, Note_on_c, 5, 79, 0
7, 185520, Note_on_c, 5, 79, 119
7, 185580, Note_on_c, 5, 79, 0
7, 185580, Note_on_c, 5, 81, 95
7, 185640, Note_on_c, 5, 81, 0
7, 185640, Note_on_c, 5, 82, 95
7, 185670, Note_on_c, 5, 82, 0
7, 185700, Note_on_c, 5, 79, 94
7, 185730, Note_on_c, 5, 79, 0
7, 185760, Note_on_c, 5, 78, 95
7, 185850, Note_on_c, 5, 78, 0
7, 185970, Note_on_c, 5, 78, 99
7, 185985, Note_on_c, 5, 78, 0
7, 186000, Note_on_c, 5, 79, 104
7, 186090, Note_on_c, 5, 79, 0
7, 186210, Note_on_c, 5, 79, 104
7, 186225, Note_on_c, 5, 79, 0
7, 186240, Note_on_c, 5, 76, 105
7, 186330, Note_on_c, 5, 76, 0
7, 186450, Note_on_c, 5, 76, 104
7, 186465, Note_on_c, 5, 76, 0
7, 186480, Note_on_c, 5, 77, 99
7, 186570, Note_on_c, 5, 77, 0
7, 186690, Note_on_c, 5, 77, 95
7, 186705, Note_on_c, 5, 77, 0
7, 186720, Note_on_c, 5, 74, 105
7, 186780, Note_on_c, 5, 74, 0
7, 186840, Note_on_c, 5, 75, 125
7, 187080, Note_on_c, 5, 75, 0
7, 187080, Note_on_c, 5, 73, 89
7, 187140, Note_on_c, 5, 73, 0
7, 187200, Note_on_c, 5, 74, 105
7, 187260, Note_on_c, 5, 74, 0
7, 187320, Note_on_c, 5, 71, 119
7, 187380, Note_on_c, 5, 71, 0
7, 187440, Note_on_c, 5, 72, 86
7, 187500, Note_on_c, 5, 72, 0
7, 187560, Note_on_c, 5, 69, 119
7, 187620, Note_on_c, 5, 69, 0
7, 187680, Note_on_c, 5, 70, 94
7, 187740, Note_on_c, 5, 70, 0
7, 187800, Note_on_c, 5, 72, 99
7, 188040, Note_on_c, 5, 72, 0
7, 188040, Note_on_c, 5, 73, 119
7, 188280, Note_on_c, 5, 73, 0
7, 188280, Note_on_c, 5, 74, 99
7, 188340, Note_on_c, 5, 74, 0
7, 188400, Note_on_c, 5, 75, 95
7, 188460, Note_on_c, 5, 75, 0
7, 188520, Note_on_c, 5, 76, 101
7, 188580, Note_on_c, 5, 76, 0
7, 188640, Note_on_c, 5, 77, 125
7, 188880, Note_on_c, 5, 77, 0
7, 229440, Note_on_c, 5, 82, 84
7, 229440, Note_on_c, 5, 70, 82
7, 229440, Note_on_c, 5, 62, 95
7, 229560, Note_on_c, 5, 62, 0
7, 229560, Note_on_c, 5, 70, 0
7, 229560, Note_on_c, 5, 82, 0
7, 229560, Note_on_c, 5, 70, 50
7, 229650, Note_on_c, 5, 70, 0
7, 229680, Note_on_c, 5, 70, 70
7, 229770, Note_on_c, 5, 70, 0
7, 229800, Note_on_c, 5, 70, 48
7, 229890, Note_on_c, 5, 70, 0
7, 229920, Note_on_c, 5, 69, 76
7, 230100, Note_on_c, 5, 69, 0
7, 230100, Note_on_c, 5, 70, 77
7, 230160, Note_on_c, 5, 70, 0
7, 230160, Note_on_c, 5, 72, 84
7, 230220, Note_on_c, 5, 72, 0
7, 230220, Note_on_c, 5, 74, 81
7, 230280, Note_on_c, 5, 74, 0
7, 230280, Note_on_c, 5, 75, 77
7, 230340, Note_on_c, 5, 75, 0
7, 230340, Note_on_c, 5, 72, 81
7, 230400, Note_on_c, 5, 72, 0
7, 230400, Note_on_c, 5, 70, 77
7, 230520, Note_on_c, 5, 70, 0
7, 230700, Note_on_c, 5, 65, 67
7, 230760, Note_on_c, 5, 65, 0
7, 230760, Note_on_c, 5, 62, 73
7, 230820, Note_on_c, 5, 62, 0
7, 230820, Note_on_c, 5, 65, 70
7, 230880, Note_on_c, 5, 65, 0
7, 230880, Note_on_c, 5, 63, 70
7, 230940, Note_on_c, 5, 63, 0
7, 230940, Note_on_c, 5, 65, 71
7, 231000, Note_on_c, 5, 65, 0
7, 231000, Note_on_c, 5, 63, 84
7, 231060, Note_on_c, 5, 63, 0
7, 231060, Note_on_c, 5, 65, 89
7, 231120, Note_on_c, 5, 65, 0
7, 231120, Note_on_c, 5, 63, 89
7, 231180, Note_on_c, 5, 63, 0
7, 231180, Note_on_c, 5, 65, 94
7, 231240, Note_on_c, 5, 65, 0
7, 231240, Note_on_c, 5, 63, 94
7, 231300, Note_on_c, 5, 63, 0
7, 231300, Note_on_c, 5, 65, 93
7, 231360, Note_on_c, 5, 65, 0
7, 231360, Note_on_c, 5, 62, 42
7, 231480, Note_on_c, 5, 62, 0
7, 231600, Note_on_c, 5, 82, 105
7, 231600, Note_on_c, 5, 70, 110
7, 231600, Note_on_c, 5, 62, 105
7, 231720, Note_on_c, 5, 62, 0
7, 231720, Note_on_c, 5, 70, 0
7, 231720, Note_on_c, 5, 82, 0
7, 231840, Note_on_c, 5, 58, 123
7, 231960, Note_on_c, 5, 58, 0
7, 231960, End_track
8, 0, Start_track
8, 0, MIDI_port, 0
8, 0, Title_t, "2nd Violins"
8, 0, Control_c, 6, 7, 100
8, 0, Control_c, 6, 10, 9
8, 0, Control_c, 6, 93, 0
8, 0, Control_c, 6, 91, 66
8, 0, Program_c, 6, 48
8, 0, Note_on_c, 6, 74, 98
8, 0, Note_on_c, 6, 65, 82
8, 0, Note_on_c, 6, 58, 86
8, 180, Note_on_c, 6, 58, 0
8, 180, Note_on_c, 6, 65, 0
8, 180, Note_on_c, 6, 74, 0
8, 210, Note_on_c, 6, 58, 93
8, 240, Note_on_c, 6, 58, 0
8, 240, Note_on_c, 6, 65, 95
8, 270, Note_on_c, 6, 65, 0
8, 330, Note_on_c, 6, 65, 86
8, 345, Note_on_c, 6, 65, 0
8, 360, Note_on_c, 6, 62, 95
8, 390, Note_on_c, 6, 62, 0
8, 450, Note_on_c, 6, 62, 89
8, 465, Note_on_c, 6, 62, 0
8, 480, Note_on_c, 6, 58, 89
8, 600, Note_on_c, 6, 58, 0
8, 960, Note_on_c, 6, 63, 46
8, 1440, Note_on_c, 6, 63, 0
8, 1440, Note_on_c, 6, 63, 40
8, 1560, Note_on_c, 6, 63, 0
8, 1920, Control_c, 6, 7, 100
8, 1920, Control_c, 6, 10, 9
8, 1920, Control_c, 6, 93, 0
8, 1920, Control_c, 6, 91, 66
8, 1920, Note_on_c, 6, 72, 80
8, 1920, Note_on_c, 6, 65, 82
8, 1920, Note_on_c, 6, 57, 105
8, 2040, Control_c, 6, 7, 100
8, 2040, Control_c, 6, 10, 9
8, 2040, Control_c, 6, 93, 0
8, 2040, Control_c, 6, 91, 66
8, 2100, Note_on_c, 6, 57, 0
8, 2100, Note_on_c, 6, 65, 0
8, 2100, Note_on_c, 6, 72, 0
8, 2130, Note_on_c, 6, 65, 98
8, 2160, Note_on_c, 6, 65, 0
8, 2160, Note_on_c, 6, 72, 86
8, 2190, Note_on_c, 6, 72, 0
8, 2250, Note_on_c, 6, 72, 85
8, 2265, Note_on_c, 6, 72, 0
8, 2280, Note_on_c, 6, 69, 101
8, 2310, Note_on_c, 6, 69, 0
8, 2370, Note_on_c, 6, 69, 94
8, 2385, Note_on_c, 6, 69, 0
8, 2400, Note_on_c, 6, 65, 99
8, 2520, Note_on_c, 6, 65, 0
8, 2880, Note_on_c, 6, 65, 57
8, 2880, Note_on_c, 6, 58, 43
8, 3360, Note_on_c, 6, 58, 0
8, 3360, Note_on_c, 6, 65, 0
8, 3360, Note_on_c, 6, 65, 40
8, 3360, Note_on_c, 6, 58, 35
8, 3480, Note_on_c, 6, 58, 0
8, 3480, Note_on_c, 6, 65, 0
8, 3960, Note_on_c, 6, 65, 43
8, 4050, Note_on_c, 6, 65, 0
8, 4080, Note_on_c, 6, 65, 43
8, 4170, Note_on_c, 6, 65, 0
8, 4200, Note_on_c, 6, 65, 43
8, 4290, Note_on_c, 6, 65, 0
8, 4440, Note_on_c, 6, 67, 53
8, 4530, Note_on_c, 6, 67, 0
8, 4560, Note_on_c, 6, 67, 41
8, 4650, Note_on_c, 6, 67, 0
8, 4680, Note_on_c, 6, 67, 43
8, 4770, Note_on_c, 6, 67, 0
8, 4920, Note_on_c, 6, 63, 56
8, 4980, Note_on_c, 6, 63, 0
8, 5040, Note_on_c, 6, 63, 59
8, 5160, Note_on_c, 6, 63, 0
8, 5160, Note_on_c, 6, 60, 53
8, 5280, Note_on_c, 6, 60, 0
8, 5400, Note_on_c, 6, 62, 57
8, 5490, Note_on_c, 6, 62, 0
8, 5520, Note_on_c, 6, 62, 46
8, 5610, Note_on_c, 6, 62, 0
8, 5640, Note_on_c, 6, 62, 48
8, 5730, Note_on_c, 6, 62, 0
8, 5880, Note_on_c, 6, 70, 33
8, 5880, Note_on_c, 6, 62, 44
8, 5970, Note_on_c, 6, 62, 0
8, 5970, Note_on_c, 6, 70, 0
8, 6000, Note_on_c, 6, 70, 40
8, 6000, Note_on_c, 6, 62, 52
8, 6090, Note_on_c, 6, 62, 0
8, 6090, Note_on_c, 6, 70, 0
8, 6120, Note_on_c, 6, 70, 34
8, 6120, Note_on_c, 6, 62, 43
8, 6210, Note_on_c, 6, 62, 0
8, 6210, Note_on_c, 6, 70, 0
8, 6360, Note_on_c, 6, 72, 29
8, 6360, Note_on_c, 6, 63, 53
8, 6450, Note_on_c, 6, 63, 0
8, 6450, Note_on_c, 6, 72, 0
8, 6480, Note_on_c, 6, 72, 35
8, 6480, Note_on_c, 6, 63, 58
8, 6570, Note_on_c, 6, 63, 0
8, 6570, Note_on_c, 6, 72, 0
8, 6600, Note_on_c, 6, 72, 31
8, 6600, Note_on_c, 6, 63, 61
8, 6690, Note_on_c, 6, 63, 0
8, 6690, Note_on_c, 6, 72, 0
8, 6840, Note_on_c, 6, 69, 46
8, 6840, Note_on_c, 6, 60, 43
8, 6930, Note_on_c, 6, 60, 0
8, 6930, Note_on_c, 6, 69, 0
8, 6960, Note_on_c, 6, 69, 59
8, 6960, Note_on_c, 6, 60, 42
8, 7050, Note_on_c, 6, 60, 0
8, 7050, Note_on_c, 6, 69, 0
8, 7080, Note_on_c, 6, 69, 57
8, 7080, Note_on_c, 6, 60, 45
8, 7170, Note_on_c, 6, 60, 0
8, 7170, Note_on_c, 6, 69, 0
8, 7200, Note_on_c, 6, 62, 64
8, 7260, Note_on_c, 6, 62, 0
8, 7260, Note_on_c, 6, 65, 29
8, 7260, Note_on_c, 6, 58, 43
8, 7320, Note_on_c, 6, 58, 0
8, 7320, Note_on_c, 6, 65, 0
8, 7320, Note_on_c, 6, 65, 44
8, 7320, Note_on_c, 6, 58, 45
8, 7380, Note_on_c, 6, 58, 0
8, 7380, Note_on_c, 6, 65, 0
8, 7380, Note_on_c, 6, 65, 58
8, 7380, Note_on_c, 6, 58, 44
8, 7440, Note_on_c, 6, 58, 0
8, 7440, Note_on_c, 6, 65, 0
8, 7440, Note_on_c, 6, 65, 52
8, 7440, Note_on_c, 6, 58, 43
8, 7500, Note_on_c, 6, 58, 0
8, 7500, Note_on_c, 6, 65, 0
8, 7500, Note_on_c, 6, 65, 50
8, 7500, Note_on_c, 6, 58, 40
8, 7560, Note_on_c, 6, 58, 0
8, 7560, Note_on_c, 6, 65, 0
8, 7560, Note_on_c, 6, 65, 53
8, 7560, Note_on_c, 6, 58, 40
8, 7620, Note_on_c, 6, 58, 0
8, 7620, Note_on_c, 6, 65, 0
8, 7620, Note_on_c, 6, 58, 43
8, 7620, Note_on_c, 6, 65, 58
8, 7680, Note_on_c, 6, 65, 0
8, 7680, Note_on_c, 6, 58, 0
8, 7680, Note_on_c, 6, 65, 64
8, 7680, Note_on_c, 6, 58, 56
8, 7740, Note_on_c, 6, 58, 0
8, 7740, Note_on_c, 6, 65, 0
8, 7740, Note_on_c, 6, 65, 44
8, 7740, Note_on_c, 6, 58, 42
8, 7800, Note_on_c, 6, 58, 0
8, 7800, Note_on_c, 6, 65, 0
8, 7800, Note_on_c, 6, 65, 44
8, 7800, Note_on_c, 6, 58, 35
8, 7860, Note_on_c, 6, 58, 0
8, 7860, Note_on_c, 6, 65, 0
8, 7860, Note_on_c, 6, 65, 43
8, 7860, Note_on_c, 6, 58, 42
8, 7920, Note_on_c, 6, 58, 0
8, 7920, Note_on_c, 6, 65, 0
8, 7920, Note_on_c, 6, 65, 50
8, 7920, Note_on_c, 6, 58, 44
8, 7980, Note_on_c, 6, 58, 0
8, 7980, Note_on_c, 6, 65, 0
8, 7980, Note_on_c, 6, 65, 47
8, 7980, Note_on_c, 6, 58, 46
8, 8040, Note_on_c, 6, 58, 0
8, 8040, Note_on_c, 6, 65, 0
8, 8040, Note_on_c, 6, 65, 60
8, 8040, Note_on_c, 6, 58, 44
8, 8100, Note_on_c, 6, 58, 0
8, 8100, Note_on_c, 6, 65, 0
8, 8100, Note_on_c, 6, 58, 62
8, 8100, Note_on_c, 6, 65, 61
8, 8160, Note_on_c, 6, 65, 0
8, 8160, Note_on_c, 6, 58, 0
8, 8160, Note_on_c, 6, 65, 53
8, 8160, Note_on_c, 6, 57, 60
8, 8220, Note_on_c, 6, 57, 0
8, 8220, Note_on_c, 6, 65, 0
8, 8220, Note_on_c, 6, 65, 57
8, 8220, Note_on_c, 6, 57, 73
8, 8280, Note_on_c, 6, 57, 0
8, 8280, Note_on_c, 6, 65, 0
8, 8280, Note_on_c, 6, 65, 35
8, 8280, Note_on_c, 6, 57, 42
8, 8340, Note_on_c, 6, 57, 0
8, 8340, Note_on_c, 6, 65, 0
8, 8340, Note_on_c, 6, 65, 47
8, 8340, Note_on_c, 6, 57, 43
8, 8400, Note_on_c, 6, 57, 0
8, 8400, Note_on_c, 6, 65, 0
8, 8400, Note_on_c, 6, 65, 44
8, 8400, Note_on_c, 6, 57, 43
8, 8460, Note_on_c, 6, 57, 0
8, 8460, Note_on_c, 6, 65, 0
8, 8460, Note_on_c, 6, 65, 44
8, 8460, Note_on_c, 6, 57, 53
8, 8520, Note_on_c, 6, 57, 0
8, 8520, Note_on_c, 6, 65, 0
8, 8520, Note_on_c, 6, 65, 44
8, 8520, Note_on_c, 6, 57, 49
8, 8580, Note_on_c, 6, 57, 0
8, 8580, Note_on_c, 6, 65, 0
8, 8580, Note_on_c, 6, 57, 45
8, 8580, Note_on_c, 6, 65, 54
8, 8640, Note_on_c, 6, 65, 0
8, 8640, Note_on_c, 6, 57, 0
8, 8640, Note_on_c, 6, 65, 52
8, 8640, Note_on_c, 6, 60, 38
8, 8700, Note_on_c, 6, 60, 0
8, 8700, Note_on_c, 6, 65, 0
8, 8700, Note_on_c, 6, 65, 48
8, 8700, Note_on_c, 6, 60, 43
8, 8760, Note_on_c, 6, 60, 0
8, 8760, Note_on_c, 6, 65, 0
8, 8760, Note_on_c, 6, 65, 52
8, 8760, Note_on_c, 6, 60, 45
8, 8820, Note_on_c, 6, 60, 0
8, 8820, Note_on_c, 6, 65, 0
8, 8820, Note_on_c, 6, 65, 57
8, 8820, Note_on_c, 6, 60, 43
8, 8880, Note_on_c, 6, 60, 0
8, 8880, Note_on_c, 6, 65, 0
8, 8880, Note_on_c, 6, 65, 44
8, 8880, Note_on_c, 6, 60, 46
8, 8940, Note_on_c, 6, 60, 0
8, 8940, Note_on_c, 6, 65, 0
8, 8940, Note_on_c, 6, 65, 45
8, 8940, Note_on_c, 6, 60, 44
8, 9000, Note_on_c, 6, 60, 0
8, 9000, Note_on_c, 6, 65, 0
8, 9000, Note_on_c, 6, 65, 43
8, 9000, Note_on_c, 6, 60, 42
8, 9060, Note_on_c, 6, 60, 0
8, 9060, Note_on_c, 6, 65, 0
8, 9060, Note_on_c, 6, 60, 48
8, 9060, Note_on_c, 6, 65, 53
8, 9120, Note_on_c, 6, 65, 0
8, 9120, Note_on_c, 6, 60, 0
8, 9120, Note_on_c, 6, 65, 46
8, 9120, Note_on_c, 6, 58, 51
8, 9180, Note_on_c, 6, 58, 0
8, 9180, Note_on_c, 6, 65, 0
8, 9180, Note_on_c, 6, 65, 45
8, 9180, Note_on_c, 6, 58, 53
8, 9240, Note_on_c, 6, 58, 0
8, 9240, Note_on_c, 6, 65, 0
8, 9240, Note_on_c, 6, 65, 56
8, 9240, Note_on_c, 6, 58, 52
8, 9300, Note_on_c, 6, 58, 0
8, 9300, Note_on_c, 6, 65, 0
8, 9300, Note_on_c, 6, 65, 46
8, 9300, Note_on_c, 6, 58, 45
8, 9360, Note_on_c, 6, 58, 0
8, 9360, Note_on_c, 6, 65, 0
8, 9360, Note_on_c, 6, 65, 46
8, 9360, Note_on_c, 6, 58, 43
8, 9420, Note_on_c, 6, 58, 0
8, 9420, Note_on_c, 6, 65, 0
8, 9420, Note_on_c, 6, 65, 45
8, 9420, Note_on_c, 6, 58, 53
8, 9480, Note_on_c, 6, 58, 0
8, 9480, Note_on_c, 6, 65, 0
8, 9480, Note_on_c, 6, 65, 53
8, 9480, Note_on_c, 6, 58, 55
8, 9540, Note_on_c, 6, 58, 0
8, 9540, Note_on_c, 6, 65, 0
8, 9540, Note_on_c, 6, 58, 62
8, 9540, Note_on_c, 6, 65, 53
8, 9600, Note_on_c, 6, 65, 0
8, 9600, Note_on_c, 6, 58, 0
8, 9600, Note_on_c, 6, 65, 69
8, 9600, Note_on_c, 6, 58, 70
8, 9660, Note_on_c, 6, 58, 0
8, 9660, Note_on_c, 6, 65, 0
8, 9660, Note_on_c, 6, 65, 74
8, 9660, Note_on_c, 6, 58, 72
8, 9720, Note_on_c, 6, 58, 0
8, 9720, Note_on_c, 6, 65, 0
8, 9720, Note_on_c, 6, 65, 80
8, 9720, Note_on_c, 6, 58, 77
8, 9780, Note_on_c, 6, 58, 0
8, 9780, Note_on_c, 6, 65, 0
8, 9780, Note_on_c, 6, 65, 85
8, 9780, Note_on_c, 6, 58, 76
8, 9840, Note_on_c, 6, 58, 0
8, 9840, Note_on_c, 6, 65, 0
8, 9840, Note_on_c, 6, 65, 90
8, 9840, Note_on_c, 6, 58, 71
8, 9900, Note_on_c, 6, 58, 0
8, 9900, Note_on_c, 6, 65, 0
8, 9900, Note_on_c, 6, 65, 93
8, 9900, Note_on_c, 6, 58, 82
8, 9960, Note_on_c, 6, 58, 0
8, 9960, Note_on_c, 6, 65, 0
8, 9960, Note_on_c, 6, 65, 84
8, 9960, Note_on_c, 6, 58, 80
8, 10020, Note_on_c, 6, 58, 0
8, 10020, Note_on_c, 6, 65, 0
8, 10020, Note_on_c, 6, 58, 89
8, 10020, Note_on_c, 6, 65, 99
8, 10080, Note_on_c, 6, 65, 0
8, 10080, Note_on_c, 6, 58, 0
8, 10080, Note_on_c, 6, 65, 93
8, 10080, Note_on_c, 6, 56, 95
8, 10200, Note_on_c, 6, 56, 0
8, 10200, Note_on_c, 6, 65, 0
8, 10320, Note_on_c, 6, 56, 99
8, 10560, Note_on_c, 6, 56, 0
8, 10560, Note_on_c, 6, 55, 94
8, 10590, Note_on_c, 6, 55, 0
8, 10620, Note_on_c, 6, 67, 85
8, 10650, Note_on_c, 6, 67, 0
8, 10680, Note_on_c, 6, 67, 86
8, 10710, Note_on_c, 6, 67, 0
8, 10740, Note_on_c, 6, 67, 89
8, 10770, Note_on_c, 6, 67, 0
8, 10800, Note_on_c, 6, 67, 90
8, 10830, Note_on_c, 6, 67, 0
8, 10860, Note_on_c, 6, 67, 90
8, 10890, Note_on_c, 6, 67, 0
8, 10920, Note_on_c, 6, 67, 94
8, 10950, Note_on_c, 6, 67, 0
8, 10980, Note_on_c, 6, 69, 99
8, 11010, Note_on_c, 6, 69, 0
8, 11040, Note_on_c, 6, 79, 74
8, 11040, Note_on_c, 6, 70, 86
8, 11160, Note_on_c, 6, 70, 0
8, 11160, Note_on_c, 6, 79, 0
8, 11280, Note_on_c, 6, 55, 94
8, 11640, Note_on_c, 6, 55, 0
8, 11760, Note_on_c, 6, 70, 94
8, 12000, Note_on_c, 6, 70, 0
8, 12000, Note_on_c, 6, 69, 95
8, 12060, Note_on_c, 6, 69, 0
8, 12240, Note_on_c, 6, 70, 95
8, 12420, Note_on_c, 6, 70, 0
8, 12420, Note_on_c, 6, 68, 93
8, 12480, Note_on_c, 6, 68, 0
8, 12480, Note_on_c, 6, 69, 94
8, 12540, Note_on_c, 6, 69, 0
8, 12600, Note_on_c, 6, 66, 84
8, 12660, Note_on_c, 6, 66, 0
8, 12720, Note_on_c, 6, 67, 95
8, 12780, Note_on_c, 6, 67, 0
8, 12840, Note_on_c, 6, 64, 99
8, 12900, Note_on_c, 6, 64, 0
8, 12960, Note_on_c, 6, 65, 95
8, 13020, Note_on_c, 6, 65, 0
8, 13020, Note_on_c, 6, 72, 85
8, 13080, Note_on_c, 6, 72, 0
8, 13080, Note_on_c, 6, 72, 81
8, 13140, Note_on_c, 6, 72, 0
8, 13140, Note_on_c, 6, 72, 78
8, 13200, Note_on_c, 6, 72, 0
8, 13200, Note_on_c, 6, 73, 99
8, 13260, Note_on_c, 6, 73, 0
8, 13260, Note_on_c, 6, 73, 80
8, 13320, Note_on_c, 6, 73, 0
8, 13320, Note_on_c, 6, 73, 85
8, 13380, Note_on_c, 6, 73, 0
8, 13380, Note_on_c, 6, 73, 77
8, 13440, Note_on_c, 6, 73, 0
8, 13440, Note_on_c, 6, 72, 76
8, 13500, Note_on_c, 6, 72, 0
8, 13500, Note_on_c, 6, 72, 78
8, 13560, Note_on_c, 6, 72, 0
8, 13560, Note_on_c, 6, 72, 56
8, 13620, Note_on_c, 6, 72, 0
8, 13620, Note_on_c, 6, 72, 80
8, 13680, Note_on_c, 6, 72, 0
8, 13680, Note_on_c, 6, 73, 98
8, 13740, Note_on_c, 6, 73, 0
8, 13740, Note_on_c, 6, 73, 86
8, 13800, Note_on_c, 6, 73, 0
8, 13800, Note_on_c, 6, 73, 86
8, 13860, Note_on_c, 6, 73, 0
8, 13860, Note_on_c, 6, 73, 84
8, 13920, Note_on_c, 6, 73, 0
8, 13920, Note_on_c, 6, 72, 82
8, 13980, Note_on_c, 6, 72, 0
8, 13980, Note_on_c, 6, 72, 89
8, 14040, Note_on_c, 6, 72, 0
8, 14040, Note_on_c, 6, 68, 90
8, 14100, Note_on_c, 6, 68, 0
8, 14100, Note_on_c, 6, 68, 93
8, 14160, Note_on_c, 6, 68, 0
8, 14160, Note_on_c, 6, 67, 89
8, 14220, Note_on_c, 6, 67, 0
8, 14220, Note_on_c, 6, 67, 90
8, 14280, Note_on_c, 6, 67, 0
8, 14280, Note_on_c, 6, 65, 95
8, 14340, Note_on_c, 6, 65, 0
8, 14340, Note_on_c, 6, 65, 99
8, 14400, Note_on_c, 6, 65, 0
8, 14400, Note_on_c, 6, 64, 99
8, 14580, Note_on_c, 6, 64, 0
8, 14610, Note_on_c, 6, 60, 99
8, 14640, Note_on_c, 6, 60, 0
8, 14640, Note_on_c, 6, 67, 89
8, 14670, Note_on_c, 6, 67, 0
8, 14730, Note_on_c, 6, 67, 89
8, 14745, Note_on_c, 6, 67, 0
8, 14760, Note_on_c, 6, 64, 95
8, 14790, Note_on_c, 6, 64, 0
8, 14850, Note_on_c, 6, 64, 94
8, 14865, Note_on_c, 6, 64, 0
8, 14880, Note_on_c, 6, 65, 94
8, 15060, Note_on_c, 6, 65, 0
8, 15090, Note_on_c, 6, 65, 93
8, 15120, Note_on_c, 6, 65, 0
8, 15120, Note_on_c, 6, 72, 84
8, 15150, Note_on_c, 6, 72, 0
8, 15210, Note_on_c, 6, 72, 78
8, 15225, Note_on_c, 6, 72, 0
8, 15240, Note_on_c, 6, 68, 95
8, 15270, Note_on_c, 6, 68, 0
8, 15330, Note_on_c, 6, 68, 94
8, 15345, Note_on_c, 6, 68, 0
8, 15360, Note_on_c, 6, 79, 94
8, 15360, Note_on_c, 6, 72, 80
8, 15360, Note_on_c, 6, 64, 105
8, 15420, Note_on_c, 6, 64, 0
8, 15420, Note_on_c, 6, 72, 0
8, 15420, Note_on_c, 6, 79, 0
8, 15600, Note_on_c, 6, 77, 98
8, 15600, Note_on_c, 6, 72, 84
8, 15600, Note_on_c, 6, 65, 104
8, 15720, Note_on_c, 6, 65, 0
8, 15720, Note_on_c, 6, 72, 0
8, 15720, Note_on_c, 6, 77, 0
8, 15840, Note_on_c, 6, 76, 98
8, 15840, Note_on_c, 6, 72, 80
8, 15840, Note_on_c, 6, 67, 89
8, 15900, Note_on_c, 6, 67, 0
8, 15900, Note_on_c, 6, 72, 0
8, 15900, Note_on_c, 6, 76, 0
8, 15900, Note_on_c, 6, 72, 89
8, 15960, Note_on_c, 6, 72, 0
8, 15960, Note_on_c, 6, 71, 99
8, 16020, Note_on_c, 6, 71, 0
8, 16020, Note_on_c, 6, 72, 89
8, 16080, Note_on_c, 6, 72, 0
8, 16080, Note_on_c, 6, 71, 99
8, 16140, Note_on_c, 6, 71, 0
8, 16140, Note_on_c, 6, 72, 89
8, 16200, Note_on_c, 6, 72, 0
8, 16200, Note_on_c, 6, 67, 99
8, 16260, Note_on_c, 6, 67, 0
8, 16260, Note_on_c, 6, 64, 101
8, 16320, Note_on_c, 6, 64, 0
8, 16320, Note_on_c, 6, 60, 95
8, 16500, Note_on_c, 6, 60, 0
8, 16500, Note_on_c, 6, 62, 94
8, 16560, Note_on_c, 6, 62, 0
8, 16560, Note_on_c, 6, 64, 98
8, 16620, Note_on_c, 6, 64, 0
8, 16620, Note_on_c, 6, 65, 89
8, 16680, Note_on_c, 6, 65, 0
8, 16680, Note_on_c, 6, 67, 80
8, 16740, Note_on_c, 6, 67, 0
8, 16740, Note_on_c, 6, 64, 95
8, 16800, Note_on_c, 6, 64, 0
8, 16800, Note_on_c, 6, 65, 89
8, 16980, Note_on_c, 6, 65, 0
8, 16980, Note_on_c, 6, 67, 93
8, 17040, Note_on_c, 6, 67, 0
8, 17040, Note_on_c, 6, 68, 94
8, 17100, Note_on_c, 6, 68, 0
8, 17100, Note_on_c, 6, 70, 95
8, 17160, Note_on_c, 6, 70, 0
8, 17160, Note_on_c, 6, 72, 67
8, 17220, Note_on_c, 6, 72, 0
8, 17220, Note_on_c, 6, 68, 93
8, 17280, Note_on_c, 6, 68, 0
8, 17280, Note_on_c, 6, 79, 104
8, 17280, Note_on_c, 6, 72, 78
8, 17280, Note_on_c, 6, 64, 110
8, 17340, Note_on_c, 6, 64, 0
8, 17340, Note_on_c, 6, 72, 0
8, 17340, Note_on_c, 6, 79, 0
8, 17520, Note_on_c, 6, 77, 82
8, 17520, Note_on_c, 6, 72, 85
8, 17520, Note_on_c, 6, 65, 104
8, 17580, Note_on_c, 6, 65, 0
8, 17580, Note_on_c, 6, 72, 0
8, 17580, Note_on_c, 6, 77, 0
8, 17760, Note_on_c, 6, 76, 95
8, 17760, Note_on_c, 6, 72, 85
8, 17760, Note_on_c, 6, 67, 101
8, 17820, Note_on_c, 6, 67, 0
8, 17820, Note_on_c, 6, 72, 0
8, 17820, Note_on_c, 6, 76, 0
8, 18240, Note_on_c, 6, 60, 101
8, 18360, Note_on_c, 6, 60, 0
8, 18480, Note_on_c, 6, 60, 99
8, 18600, Note_on_c, 6, 60, 0
8, 18720, Note_on_c, 6, 60, 101
8, 18840, Note_on_c, 6, 60, 0
8, 19200, Note_on_c, 6, 61, 29
8, 19320, Note_on_c, 6, 61, 0
8, 19440, Note_on_c, 6, 61, 29
8, 19560, Note_on_c, 6, 61, 0
8, 19680, Note_on_c, 6, 61, 29
8, 19800, Note_on_c, 6, 61, 0
8, 20160, Note_on_c, 6, 61, 60
8, 20340, Note_on_c, 6, 61, 0
8, 20340, Note_on_c, 6, 63, 59
8, 20400, Note_on_c, 6, 63, 0
8, 20400, Note_on_c, 6, 65, 44
8, 20460, Note_on_c, 6, 65, 0
8, 20460, Note_on_c, 6, 66, 64
8, 20520, Note_on_c, 6, 66, 0
8, 20520, Note_on_c, 6, 68, 68
8, 20580, Note_on_c, 6, 68, 0
8, 20580, Note_on_c, 6, 65, 46
8, 20640, Note_on_c, 6, 65, 0
8, 20640, Note_on_c, 6, 61, 49
8, 20760, Note_on_c, 6, 61, 0
8, 21120, Note_on_c, 6, 63, 43
8, 21300, Note_on_c, 6, 63, 0
8, 21300, Note_on_c, 6, 65, 63
8, 21360, Note_on_c, 6, 65, 0
8, 21360, Note_on_c, 6, 66, 72
8, 21420, Note_on_c, 6, 66, 0
8, 21420, Note_on_c, 6, 68, 72
8, 21480, Note_on_c, 6, 68, 0
8, 21480, Note_on_c, 6, 70, 72
8, 21540, Note_on_c, 6, 70, 0
8, 21540, Note_on_c, 6, 66, 56
8, 21600, Note_on_c, 6, 66, 0
8, 21600, Note_on_c, 6, 63, 54
8, 21720, Note_on_c, 6, 63, 0
8, 22080, Note_on_c, 6, 61, 67
8, 22260, Note_on_c, 6, 61, 0
8, 22260, Note_on_c, 6, 63, 54
8, 22320, Note_on_c, 6, 63, 0
8, 22320, Note_on_c, 6, 65, 50
8, 22380, Note_on_c, 6, 65, 0
8, 22380, Note_on_c, 6, 66, 43
8, 22440, Note_on_c, 6, 66, 0
8, 22440, Note_on_c, 6, 68, 58
8, 22500, Note_on_c, 6, 68, 0
8, 22500, Note_on_c, 6, 65, 51
8, 22560, Note_on_c, 6, 65, 0
8, 22560, Note_on_c, 6, 61, 43
8, 22680, Note_on_c, 6, 61, 0
8, 23040, Note_on_c, 6, 60, 46
8, 23220, Note_on_c, 6, 60, 0
8, 23220, Note_on_c, 6, 61, 49
8, 23280, Note_on_c, 6, 61, 0
8, 23280, Note_on_c, 6, 63, 52
8, 23340, Note_on_c, 6, 63, 0
8, 23340, Note_on_c, 6, 65, 47
8, 23400, Note_on_c, 6, 65, 0
8, 23400, Note_on_c, 6, 66, 57
8, 23460, Note_on_c, 6, 66, 0
8, 23460, Note_on_c, 6, 63, 67
8, 23520, Note_on_c, 6, 63, 0
8, 23520, Note_on_c, 6, 60, 43
8, 23640, Note_on_c, 6, 60, 0
8, 24000, Note_on_c, 6, 58, 43
8, 24060, Note_on_c, 6, 58, 0
8, 24060, Note_on_c, 6, 58, 64
8, 24180, Note_on_c, 6, 58, 0
8, 24180, Note_on_c, 6, 58, 80
8, 24300, Note_on_c, 6, 58, 0
8, 24300, Note_on_c, 6, 58, 59
8, 24420, Note_on_c, 6, 58, 0
8, 24420, Note_on_c, 6, 58, 47
8, 24480, Note_on_c, 6, 58, 0
8, 24480, Note_on_c, 6, 57, 76
8, 24540, Note_on_c, 6, 57, 0
8, 24960, Note_on_c, 6, 58, 57
8, 25020, Note_on_c, 6, 58, 0
8, 25020, Note_on_c, 6, 58, 76
8, 25140, Note_on_c, 6, 58, 0
8, 25140, Note_on_c, 6, 58, 77
8, 25260, Note_on_c, 6, 58, 0
8, 25260, Note_on_c, 6, 58, 41
8, 25380, Note_on_c, 6, 58, 0
8, 25380, Note_on_c, 6, 58, 55
8, 25440, Note_on_c, 6, 58, 0
8, 25440, Note_on_c, 6, 57, 67
8, 25500, Note_on_c, 6, 57, 0
8, 25920, Note_on_c, 6, 61, 55
8, 25980, Note_on_c, 6, 61, 0
8, 25980, Note_on_c, 6, 61, 74
8, 26100, Note_on_c, 6, 61, 0
8, 26100, Note_on_c, 6, 61, 84
8, 26220, Note_on_c, 6, 61, 0
8, 26220, Note_on_c, 6, 61, 84
8, 26340, Note_on_c, 6, 61, 0
8, 26340, Note_on_c, 6, 61, 86
8, 26400, Note_on_c, 6, 61, 0
8, 26400, Note_on_c, 6, 60, 86
8, 26460, Note_on_c, 6, 60, 0
8, 26460, Note_on_c, 6, 60, 90
8, 26580, Note_on_c, 6, 60, 0
8, 26580, Note_on_c, 6, 60, 105
8, 26700, Note_on_c, 6, 60, 0
8, 26700, Note_on_c, 6, 60, 94
8, 26820, Note_on_c, 6, 60, 0
8, 26820, Note_on_c, 6, 60, 94
8, 26880, Note_on_c, 6, 60, 0
8, 26880, Note_on_c, 6, 60, 93
8, 26940, Note_on_c, 6, 60, 0
8, 27000, Note_on_c, 6, 60, 43
8, 27060, Note_on_c, 6, 60, 0
8, 27240, Note_on_c, 6, 60, 60
8, 27360, Note_on_c, 6, 60, 0
8, 27360, Note_on_c, 6, 62, 43
8, 27420, Note_on_c, 6, 62, 0
8, 27480, Note_on_c, 6, 62, 43
8, 27540, Note_on_c, 6, 62, 0
8, 27720, Note_on_c, 6, 62, 43
8, 27840, Note_on_c, 6, 62, 0
8, 27840, Note_on_c, 6, 63, 31
8, 27900, Note_on_c, 6, 63, 0
8, 27960, Note_on_c, 6, 63, 44
8, 28020, Note_on_c, 6, 63, 0
8, 28200, Note_on_c, 6, 63, 30
8, 28320, Note_on_c, 6, 63, 0
8, 28320, Note_on_c, 6, 65, 35
8, 28380, Note_on_c, 6, 65, 0
8, 28440, Note_on_c, 6, 65, 45
8, 28500, Note_on_c, 6, 65, 0
8, 28680, Note_on_c, 6, 65, 38
8, 28800, Note_on_c, 6, 65, 0
8, 28800, Note_on_c, 6, 67, 65
8, 28860, Note_on_c, 6, 67, 0
8, 28920, Note_on_c, 6, 67, 69
8, 28980, Note_on_c, 6, 67, 0
8, 29160, Note_on_c, 6, 67, 64
8, 29280, Note_on_c, 6, 67, 0
8, 29280, Note_on_c, 6, 63, 85
8, 29340, Note_on_c, 6, 63, 0
8, 29400, Note_on_c, 6, 63, 86
8, 29460, Note_on_c, 6, 63, 0
8, 29640, Note_on_c, 6, 63, 90
8, 29700, Note_on_c, 6, 63, 0
8, 29760, Note_on_c, 6, 70, 84
8, 29760, Note_on_c, 6, 62, 99
8, 29790, Note_on_c, 6, 62, 0
8, 29790, Note_on_c, 6, 70, 0
8, 29790, Note_on_c, 6, 70, 53
8, 29790, Note_on_c, 6, 62, 59
8, 29820, Note_on_c, 6, 62, 0
8, 29820, Note_on_c, 6, 70, 0
8, 29820, Note_on_c, 6, 70, 45
8, 29820, Note_on_c, 6, 62, 44
8, 29850, Note_on_c, 6, 62, 0
8, 29850, Note_on_c, 6, 70, 0
8, 29850, Note_on_c, 6, 70, 43
8, 29850, Note_on_c, 6, 62, 59
8, 29880, Note_on_c, 6, 62, 0
8, 29880, Note_on_c, 6, 70, 0
8, 29880, Note_on_c, 6, 70, 40
8, 29880, Note_on_c, 6, 62, 53
8, 29910, Note_on_c, 6, 62, 0
8, 29910, Note_on_c, 6, 70, 0
8, 29910, Note_on_c, 6, 70, 36
8, 29910, Note_on_c, 6, 62, 54
8, 29940, Note_on_c, 6, 62, 0
8, 29940, Note_on_c, 6, 70, 0
8, 29940, Note_on_c, 6, 70, 38
8, 29940, Note_on_c, 6, 62, 57
8, 29970, Note_on_c, 6, 62, 0
8, 29970, Note_on_c, 6, 70, 0
8, 29970, Note_on_c, 6, 70, 57
8, 29970, Note_on_c, 6, 62, 63
8, 30000, Note_on_c, 6, 62, 0
8, 30000, Note_on_c, 6, 70, 0
8, 30000, Note_on_c, 6, 70, 45
8, 30000, Note_on_c, 6, 62, 64
8, 30030, Note_on_c, 6, 62, 0
8, 30030, Note_on_c, 6, 70, 0
8, 30030, Note_on_c, 6, 70, 51
8, 30030, Note_on_c, 6, 62, 65
8, 30060, Note_on_c, 6, 62, 0
8, 30060, Note_on_c, 6, 70, 0
8, 30060, Note_on_c, 6, 70, 43
8, 30060, Note_on_c, 6, 62, 64
8, 30090, Note_on_c, 6, 62, 0
8, 30090, Note_on_c, 6, 70, 0
8, 30090, Note_on_c, 6, 70, 44
8, 30090, Note_on_c, 6, 62, 64
8, 30120, Note_on_c, 6, 62, 0
8, 30120, Note_on_c, 6, 70, 0
8, 30120, Note_on_c, 6, 70, 44
8, 30120, Note_on_c, 6, 62, 62
8, 30150, Note_on_c, 6, 62, 0
8, 30150, Note_on_c, 6, 70, 0
8, 30150, Note_on_c, 6, 70, 44
8, 30150, Note_on_c, 6, 62, 54
8, 30180, Note_on_c, 6, 62, 0
8, 30180, Note_on_c, 6, 70, 0
8, 30180, Note_on_c, 6, 70, 40
8, 30180, Note_on_c, 6, 62, 62
8, 30210, Note_on_c, 6, 62, 0
8, 30210, Note_on_c, 6, 70, 0
8, 30210, Note_on_c, 6, 70, 45
8, 30210, Note_on_c, 6, 62, 57
8, 30240, Note_on_c, 6, 62, 0
8, 30240, Note_on_c, 6, 70, 0
8, 30240, Note_on_c, 6, 70, 46
8, 30240, Note_on_c, 6, 62, 52
8, 30270, Note_on_c, 6, 62, 0
8, 30270, Note_on_c, 6, 70, 0
8, 30270, Note_on_c, 6, 70, 43
8, 30270, Note_on_c, 6, 62, 46
8, 30300, Note_on_c, 6, 62, 0
8, 30300, Note_on_c, 6, 70, 0
8, 30300, Note_on_c, 6, 70, 53
8, 30300, Note_on_c, 6, 62, 52
8, 30330, Note_on_c, 6, 62, 0
8, 30330, Note_on_c, 6, 70, 0
8, 30330, Note_on_c, 6, 70, 58
8, 30330, Note_on_c, 6, 62, 45
8, 30360, Note_on_c, 6, 62, 0
8, 30360, Note_on_c, 6, 70, 0
8, 30360, Note_on_c, 6, 70, 50
8, 30360, Note_on_c, 6, 62, 46
8, 30390, Note_on_c, 6, 62, 0
8, 30390, Note_on_c, 6, 70, 0
8, 30390, Note_on_c, 6, 70, 57
8, 30390, Note_on_c, 6, 62, 61
8, 30420, Note_on_c, 6, 62, 0
8, 30420, Note_on_c, 6, 70, 0
8, 30420, Note_on_c, 6, 70, 56
8, 30420, Note_on_c, 6, 62, 50
8, 30450, Note_on_c, 6, 62, 0
8, 30450, Note_on_c, 6, 70, 0
8, 30450, Note_on_c, 6, 70, 42
8, 30450, Note_on_c, 6, 62, 61
8, 30480, Note_on_c, 6, 62, 0
8, 30480, Note_on_c, 6, 70, 0
8, 30480, Note_on_c, 6, 70, 44
8, 30480, Note_on_c, 6, 62, 55
8, 30510, Note_on_c, 6, 62, 0
8, 30510, Note_on_c, 6, 70, 0
8, 30510, Note_on_c, 6, 70, 47
8, 30510, Note_on_c, 6, 62, 56
8, 30540, Note_on_c, 6, 62, 0
8, 30540, Note_on_c, 6, 70, 0
8, 30540, Note_on_c, 6, 70, 44
8, 30540, Note_on_c, 6, 62, 46
8, 30570, Note_on_c, 6, 62, 0
8, 30570, Note_on_c, 6, 70, 0
8, 30570, Note_on_c, 6, 70, 48
8, 30570, Note_on_c, 6, 62, 58
8, 30600, Note_on_c, 6, 62, 0
8, 30600, Note_on_c, 6, 70, 0
8, 30600, Note_on_c, 6, 70, 63
8, 30600, Note_on_c, 6, 62, 61
8, 30630, Note_on_c, 6, 62, 0
8, 30630, Note_on_c, 6, 70, 0
8, 30630, Note_on_c, 6, 70, 49
8, 30630, Note_on_c, 6, 62, 43
8, 30660, Note_on_c, 6, 62, 0
8, 30660, Note_on_c, 6, 70, 0
8, 30660, Note_on_c, 6, 70, 46
8, 30660, Note_on_c, 6, 62, 41
8, 30690, Note_on_c, 6, 62, 0
8, 30690, Note_on_c, 6, 70, 0
8, 30690, Note_on_c, 6, 70, 56
8, 30690, Note_on_c, 6, 62, 45
8, 30720, Note_on_c, 6, 62, 0
8, 30720, Note_on_c, 6, 70, 0
8, 30720, Note_on_c, 6, 69, 105
8, 30720, Note_on_c, 6, 63, 99
8, 30750, Note_on_c, 6, 63, 0
8, 30750, Note_on_c, 6, 69, 0
8, 30750, Note_on_c, 6, 69, 84
8, 30750, Note_on_c, 6, 63, 82
8, 30780, Note_on_c, 6, 63, 0
8, 30780, Note_on_c, 6, 69, 0
8, 30780, Note_on_c, 6, 69, 43
8, 30780, Note_on_c, 6, 63, 61
8, 30810, Note_on_c, 6, 63, 0
8, 30810, Note_on_c, 6, 69, 0
8, 30810, Note_on_c, 6, 69, 43
8, 30810, Note_on_c, 6, 63, 58
8, 30840, Note_on_c, 6, 63, 0
8, 30840, Note_on_c, 6, 69, 0
8, 30840, Note_on_c, 6, 69, 40
8, 30840, Note_on_c, 6, 63, 45
8, 30870, Note_on_c, 6, 63, 0
8, 30870, Note_on_c, 6, 69, 0
8, 30870, Note_on_c, 6, 69, 43
8, 30870, Note_on_c, 6, 63, 43
8, 30900, Note_on_c, 6, 63, 0
8, 30900, Note_on_c, 6, 69, 0
8, 30900, Note_on_c, 6, 69, 41
8, 30900, Note_on_c, 6, 63, 34
8, 30930, Note_on_c, 6, 63, 0
8, 30930, Note_on_c, 6, 69, 0
8, 30930, Note_on_c, 6, 69, 40
8, 30930, Note_on_c, 6, 63, 32
8, 30960, Note_on_c, 6, 63, 0
8, 30960, Note_on_c, 6, 69, 0
8, 30960, Note_on_c, 6, 69, 41
8, 30960, Note_on_c, 6, 63, 31
8, 30990, Note_on_c, 6, 63, 0
8, 30990, Note_on_c, 6, 69, 0
8, 30990, Note_on_c, 6, 69, 43
8, 30990, Note_on_c, 6, 63, 32
8, 31020, Note_on_c, 6, 63, 0
8, 31020, Note_on_c, 6, 69, 0
8, 31020, Note_on_c, 6, 69, 41
8, 31020, Note_on_c, 6, 63, 32
8, 31050, Note_on_c, 6, 63, 0
8, 31050, Note_on_c, 6, 69, 0
8, 31050, Note_on_c, 6, 69, 43
8, 31050, Note_on_c, 6, 63, 37
8, 31080, Note_on_c, 6, 63, 0
8, 31080, Note_on_c, 6, 69, 0
8, 31080, Note_on_c, 6, 69, 43
8, 31080, Note_on_c, 6, 63, 43
8, 31110, Note_on_c, 6, 63, 0
8, 31110, Note_on_c, 6, 69, 0
8, 31110, Note_on_c, 6, 69, 43
8, 31110, Note_on_c, 6, 63, 35
8, 31140, Note_on_c, 6, 63, 0
8, 31140, Note_on_c, 6, 69, 0
8, 31140, Note_on_c, 6, 69, 43
8, 31140, Note_on_c, 6, 63, 35
8, 31170, Note_on_c, 6, 63, 0
8, 31170, Note_on_c, 6, 69, 0
8, 31170, Note_on_c, 6, 69, 44
8, 31170, Note_on_c, 6, 63, 51
8, 31200, Note_on_c, 6, 63, 0
8, 31200, Note_on_c, 6, 69, 0
8, 31200, Note_on_c, 6, 69, 43
8, 31200, Note_on_c, 6, 63, 45
8, 31230, Note_on_c, 6, 63, 0
8, 31230, Note_on_c, 6, 69, 0
8, 31230, Note_on_c, 6, 69, 39
8, 31230, Note_on_c, 6, 63, 43
8, 31260, Note_on_c, 6, 63, 0
8, 31260, Note_on_c, 6, 69, 0
8, 31260, Note_on_c, 6, 69, 43
8, 31260, Note_on_c, 6, 63, 45
8, 31290, Note_on_c, 6, 63, 0
8, 31290, Note_on_c, 6, 69, 0
8, 31290, Note_on_c, 6, 69, 41
8, 31290, Note_on_c, 6, 63, 38
8, 31320, Note_on_c, 6, 63, 0
8, 31320, Note_on_c, 6, 69, 0
8, 31320, Note_on_c, 6, 69, 43
8, 31320, Note_on_c, 6, 63, 50
8, 31350, Note_on_c, 6, 63, 0
8, 31350, Note_on_c, 6, 69, 0
8, 31350, Note_on_c, 6, 69, 43
8, 31350, Note_on_c, 6, 63, 41
8, 31380, Note_on_c, 6, 63, 0
8, 31380, Note_on_c, 6, 69, 0
8, 31380, Note_on_c, 6, 69, 45
8, 31380, Note_on_c, 6, 63, 44
8, 31410, Note_on_c, 6, 63, 0
8, 31410, Note_on_c, 6, 69, 0
8, 31410, Note_on_c, 6, 69, 41
8, 31410, Note_on_c, 6, 63, 40
8, 31440, Note_on_c, 6, 63, 0
8, 31440, Note_on_c, 6, 69, 0
8, 31440, Note_on_c, 6, 69, 39
8, 31440, Note_on_c, 6, 63, 34
8, 31470, Note_on_c, 6, 63, 0
8, 31470, Note_on_c, 6, 69, 0
8, 31470, Note_on_c, 6, 69, 40
8, 31470, Note_on_c, 6, 63, 32
8, 31500, Note_on_c, 6, 63, 0
8, 31500, Note_on_c, 6, 69, 0
8, 31500, Note_on_c, 6, 69, 42
8, 31500, Note_on_c, 6, 63, 40
8, 31530, Note_on_c, 6, 63, 0
8, 31530, Note_on_c, 6, 69, 0
8, 31530, Note_on_c, 6, 69, 43
8, 31530, Note_on_c, 6, 63, 34
8, 31560, Note_on_c, 6, 63, 0
8, 31560, Note_on_c, 6, 69, 0
8, 31560, Note_on_c, 6, 69, 39
8, 31560, Note_on_c, 6, 63, 42
8, 31590, Note_on_c, 6, 63, 0
8, 31590, Note_on_c, 6, 69, 0
8, 31590, Note_on_c, 6, 69, 40
8, 31590, Note_on_c, 6, 63, 38
8, 31620, Note_on_c, 6, 63, 0
8, 31620, Note_on_c, 6, 69, 0
8, 31620, Note_on_c, 6, 69, 38
8, 31620, Note_on_c, 6, 63, 34
8, 31650, Note_on_c, 6, 63, 0
8, 31650, Note_on_c, 6, 69, 0
8, 31650, Note_on_c, 6, 69, 43
8, 31650, Note_on_c, 6, 63, 45
8, 31680, Note_on_c, 6, 63, 0
8, 31680, Note_on_c, 6, 69, 0
8, 31680, Note_on_c, 6, 71, 98
8, 31680, Note_on_c, 6, 62, 99
8, 31710, Note_on_c, 6, 62, 0
8, 31710, Note_on_c, 6, 71, 0
8, 31710, Note_on_c, 6, 71, 73
8, 31710, Note_on_c, 6, 62, 80
8, 31740, Note_on_c, 6, 62, 0
8, 31740, Note_on_c, 6, 71, 0
8, 31740, Note_on_c, 6, 71, 43
8, 31740, Note_on_c, 6, 62, 62
8, 31770, Note_on_c, 6, 62, 0
8, 31770, Note_on_c, 6, 71, 0
8, 31770, Note_on_c, 6, 71, 43
8, 31770, Note_on_c, 6, 62, 43
8, 31800, Note_on_c, 6, 62, 0
8, 31800, Note_on_c, 6, 71, 0
8, 31800, Note_on_c, 6, 71, 40
8, 31800, Note_on_c, 6, 62, 43
8, 31830, Note_on_c, 6, 62, 0
8, 31830, Note_on_c, 6, 71, 0
8, 31830, Note_on_c, 6, 71, 38
8, 31830, Note_on_c, 6, 62, 42
8, 31860, Note_on_c, 6, 62, 0
8, 31860, Note_on_c, 6, 71, 0
8, 31860, Note_on_c, 6, 71, 38
8, 31860, Note_on_c, 6, 62, 41
8, 31890, Note_on_c, 6, 62, 0
8, 31890, Note_on_c, 6, 71, 0
8, 31890, Note_on_c, 6, 71, 38
8, 31890, Note_on_c, 6, 62, 43
8, 31920, Note_on_c, 6, 62, 0
8, 31920, Note_on_c, 6, 71, 0
8, 31920, Note_on_c, 6, 71, 40
8, 31920, Note_on_c, 6, 62, 38
8, 31950, Note_on_c, 6, 62, 0
8, 31950, Note_on_c, 6, 71, 0
8, 31950, Note_on_c, 6, 71, 38
8, 31950, Note_on_c, 6, 62, 40
8, 31980, Note_on_c, 6, 62, 0
8, 31980, Note_on_c, 6, 71, 0
8, 31980, Note_on_c, 6, 71, 45
8, 31980, Note_on_c, 6, 62, 58
8, 32010, Note_on_c, 6, 62, 0
8, 32010, Note_on_c, 6, 71, 0
8, 32010, Note_on_c, 6, 71, 42
8, 32010, Note_on_c, 6, 62, 43
8, 32040, Note_on_c, 6, 62, 0
8, 32040, Note_on_c, 6, 71, 0
8, 32040, Note_on_c, 6, 71, 41
8, 32040, Note_on_c, 6, 62, 44
8, 32070, Note_on_c, 6, 62, 0
8, 32070, Note_on_c, 6, 71, 0
8, 32070, Note_on_c, 6, 71, 39
8, 32070, Note_on_c, 6, 62, 36
8, 32100, Note_on_c, 6, 62, 0
8, 32100, Note_on_c, 6, 71, 0
8, 32100, Note_on_c, 6, 71, 38
8, 32100, Note_on_c, 6, 62, 40
8, 32130, Note_on_c, 6, 62, 0
8, 32130, Note_on_c, 6, 71, 0
8, 32130, Note_on_c, 6, 71, 42
8, 32130, Note_on_c, 6, 62, 40
8, 32160, Note_on_c, 6, 62, 0
8, 32160, Note_on_c, 6, 71, 0
8, 32160, Note_on_c, 6, 71, 43
8, 32160, Note_on_c, 6, 62, 52
8, 32190, Note_on_c, 6, 62, 0
8, 32190, Note_on_c, 6, 71, 0
8, 32190, Note_on_c, 6, 71, 42
8, 32190, Note_on_c, 6, 62, 41
8, 32220, Note_on_c, 6, 62, 0
8, 32220, Note_on_c, 6, 71, 0
8, 32220, Note_on_c, 6, 71, 40
8, 32220, Note_on_c, 6, 62, 42
8, 32250, Note_on_c, 6, 62, 0
8, 32250, Note_on_c, 6, 71, 0
8, 32250, Note_on_c, 6, 71, 37
8, 32250, Note_on_c, 6, 62, 41
8, 32280, Note_on_c, 6, 62, 0
8, 32280, Note_on_c, 6, 71, 0
8, 32280, Note_on_c, 6, 71, 40
8, 32280, Note_on_c, 6, 62, 40
8, 32310, Note_on_c, 6, 62, 0
8, 32310, Note_on_c, 6, 71, 0
8, 32310, Note_on_c, 6, 71, 39
8, 32310, Note_on_c, 6, 62, 35
8, 32340, Note_on_c, 6, 62, 0
8, 32340, Note_on_c, 6, 71, 0
8, 32340, Note_on_c, 6, 71, 40
8, 32340, Note_on_c, 6, 62, 43
8, 32370, Note_on_c, 6, 62, 0
8, 32370, Note_on_c, 6, 71, 0
8, 32370, Note_on_c, 6, 71, 40
8, 32370, Note_on_c, 6, 62, 40
8, 32400, Note_on_c, 6, 62, 0
8, 32400, Note_on_c, 6, 71, 0
8, 32400, Note_on_c, 6, 71, 36
8, 32400, Note_on_c, 6, 62, 38
8, 32430, Note_on_c, 6, 62, 0
8, 32430, Note_on_c, 6, 71, 0
8, 32430, Note_on_c, 6, 71, 39
8, 32430, Note_on_c, 6, 62, 43
8, 32460, Note_on_c, 6, 62, 0
8, 32460, Note_on_c, 6, 71, 0
8, 32460, Note_on_c, 6, 71, 38
8, 32460, Note_on_c, 6, 62, 41
8, 32490, Note_on_c, 6, 62, 0
8, 32490, Note_on_c, 6, 71, 0
8, 32490, Note_on_c, 6, 71, 39
8, 32490, Note_on_c, 6, 62, 40
8, 32520, Note_on_c, 6, 62, 0
8, 32520, Note_on_c, 6, 71, 0
8, 32520, Note_on_c, 6, 71, 41
8, 32520, Note_on_c, 6, 62, 38
8, 32550, Note_on_c, 6, 62, 0
8, 32550, Note_on_c, 6, 71, 0
8, 32550, Note_on_c, 6, 71, 43
8, 32550, Note_on_c, 6, 62, 40
8, 32580, Note_on_c, 6, 62, 0
8, 32580, Note_on_c, 6, 71, 0
8, 32580, Note_on_c, 6, 71, 40
8, 32580, Note_on_c, 6, 62, 40
8, 32610, Note_on_c, 6, 62, 0
8, 32610, Note_on_c, 6, 71, 0
8, 32610, Note_on_c, 6, 71, 43
8, 32610, Note_on_c, 6, 62, 40
8, 32640, Note_on_c, 6, 62, 0
8, 32640, Note_on_c, 6, 71, 0
8, 32640, Note_on_c, 6, 72, 80
8, 32640, Note_on_c, 6, 63, 95
8, 32685, Note_on_c, 6, 63, 0
8, 32685, Note_on_c, 6, 72, 0
8, 32730, Note_on_c, 6, 60, 105
8, 32745, Note_on_c, 6, 60, 0
8, 32760, Note_on_c, 6, 60, 89
8, 32880, Note_on_c, 6, 60, 0
8, 33120, Note_on_c, 6, 62, 93
8, 33120, Note_on_c, 6, 56, 93
8, 33165, Note_on_c, 6, 56, 0
8, 33165, Note_on_c, 6, 62, 0
8, 33210, Note_on_c, 6, 62, 67
8, 33210, Note_on_c, 6, 56, 72
8, 33225, Note_on_c, 6, 56, 0
8, 33225, Note_on_c, 6, 62, 0
8, 33240, Note_on_c, 6, 62, 82
8, 33240, Note_on_c, 6, 56, 84
8, 33360, Note_on_c, 6, 56, 0
8, 33360, Note_on_c, 6, 62, 0
8, 33600, Note_on_c, 6, 62, 89
8, 33600, Note_on_c, 6, 56, 89
8, 33645, Note_on_c, 6, 56, 0
8, 33645, Note_on_c, 6, 62, 0
8, 33690, Note_on_c, 6, 62, 76
8, 33690, Note_on_c, 6, 56, 76
8, 33705, Note_on_c, 6, 56, 0
8, 33705, Note_on_c, 6, 62, 0
8, 33720, Note_on_c, 6, 62, 72
8, 33720, Note_on_c, 6, 56, 76
8, 33840, Note_on_c, 6, 56, 0
8, 33840, Note_on_c, 6, 62, 0
8, 34080, Note_on_c, 6, 63, 89
8, 34080, Note_on_c, 6, 58, 86
8, 34125, Note_on_c, 6, 58, 0
8, 34125, Note_on_c, 6, 63, 0
8, 34170, Note_on_c, 6, 63, 67
8, 34170, Note_on_c, 6, 58, 69
8, 34185, Note_on_c, 6, 58, 0
8, 34185, Note_on_c, 6, 63, 0
8, 34200, Note_on_c, 6, 63, 72
8, 34200, Note_on_c, 6, 58, 77
8, 34320, Note_on_c, 6, 58, 0
8, 34320, Note_on_c, 6, 63, 0
8, 34560, Note_on_c, 6, 64, 89
8, 34560, Note_on_c, 6, 58, 80
8, 34605, Note_on_c, 6, 58, 0
8, 34605, Note_on_c, 6, 64, 0
8, 34650, Note_on_c, 6, 64, 93
8, 34650, Note_on_c, 6, 58, 93
8, 34665, Note_on_c, 6, 58, 0
8, 34665, Note_on_c, 6, 64, 0
8, 34680, Note_on_c, 6, 64, 98
8, 34680, Note_on_c, 6, 58, 94
8, 34800, Note_on_c, 6, 58, 0
8, 34800, Note_on_c, 6, 64, 0
8, 35520, Note_on_c, 6, 61, 89
8, 35760, Note_on_c, 6, 61, 0
8, 35760, Note_on_c, 6, 60, 73
8, 35880, Note_on_c, 6, 60, 0
8, 36000, Note_on_c, 6, 66, 95
8, 36240, Note_on_c, 6, 66, 0
8, 36240, Note_on_c, 6, 65, 73
8, 36360, Note_on_c, 6, 65, 0
8, 36480, Note_on_c, 6, 68, 101
8, 36720, Note_on_c, 6, 68, 0
8, 36720, Note_on_c, 6, 68, 84
8, 36780, Note_on_c, 6, 68, 0
8, 36780, Note_on_c, 6, 67, 81
8, 36840, Note_on_c, 6, 67, 0
8, 36840, Note_on_c, 6, 65, 52
8, 36900, Note_on_c, 6, 65, 0
8, 36900, Note_on_c, 6, 63, 74
8, 36960, Note_on_c, 6, 63, 0
8, 36960, Note_on_c, 6, 62, 94
8, 37200, Note_on_c, 6, 62, 0
8, 37200, Note_on_c, 6, 60, 89
8, 37440, Note_on_c, 6, 60, 0
8, 37440, Note_on_c, 6, 71, 101
8, 37680, Note_on_c, 6, 71, 0
8, 37680, Note_on_c, 6, 72, 90
8, 37800, Note_on_c, 6, 72, 0
8, 37800, Note_on_c, 6, 74, 94
8, 37860, Note_on_c, 6, 74, 0
8, 37860, Note_on_c, 6, 75, 90
8, 37920, Note_on_c, 6, 75, 0
8, 37920, Note_on_c, 6, 70, 89
8, 38160, Note_on_c, 6, 70, 0
8, 38160, Note_on_c, 6, 72, 89
8, 38340, Note_on_c, 6, 72, 0
8, 38340, Note_on_c, 6, 69, 90
8, 38400, Note_on_c, 6, 69, 0
8, 38400, Note_on_c, 6, 70, 104
8, 38430, Note_on_c, 6, 70, 0
8, 38430, Note_on_c, 6, 70, 104
8, 38460, Note_on_c, 6, 70, 0
8, 38460, Note_on_c, 6, 70, 93
8, 38490, Note_on_c, 6, 70, 0
8, 38490, Note_on_c, 6, 70, 84
8, 38520, Note_on_c, 6, 70, 0
8, 38520, Note_on_c, 6, 70, 95
8, 38550, Note_on_c, 6, 70, 0
8, 38550, Note_on_c, 6, 70, 86
8, 38580, Note_on_c, 6, 70, 0
8, 38580, Note_on_c, 6, 70, 89
8, 38610, Note_on_c, 6, 70, 0
8, 38610, Note_on_c, 6, 70, 93
8, 38640, Note_on_c, 6, 70, 0
8, 38640, Note_on_c, 6, 71, 110
8, 38670, Note_on_c, 6, 71, 0
8, 38670, Note_on_c, 6, 71, 99
8, 38700, Note_on_c, 6, 71, 0
8, 38700, Note_on_c, 6, 71, 89
8, 38730, Note_on_c, 6, 71, 0
8, 38730, Note_on_c, 6, 71, 84
8, 38760, Note_on_c, 6, 71, 0
8, 38760, Note_on_c, 6, 71, 90
8, 38790, Note_on_c, 6, 71, 0
8, 38790, Note_on_c, 6, 71, 94
8, 38820, Note_on_c, 6, 71, 0
8, 38820, Note_on_c, 6, 71, 89
8, 38850, Note_on_c, 6, 71, 0
8, 38850, Note_on_c, 6, 71, 94
8, 38880, Note_on_c, 6, 71, 0
8, 38880, Note_on_c, 6, 72, 94
8, 38910, Note_on_c, 6, 72, 0
8, 38910, Note_on_c, 6, 72, 77
8, 38940, Note_on_c, 6, 72, 0
8, 38940, Note_on_c, 6, 72, 81
8, 38970, Note_on_c, 6, 72, 0
8, 38970, Note_on_c, 6, 72, 82
8, 39000, Note_on_c, 6, 72, 0
8, 39000, Note_on_c, 6, 72, 78
8, 39030, Note_on_c, 6, 72, 0
8, 39030, Note_on_c, 6, 72, 81
8, 39060, Note_on_c, 6, 72, 0
8, 39060, Note_on_c, 6, 72, 78
8, 39090, Note_on_c, 6, 72, 0
8, 39090, Note_on_c, 6, 72, 80
8, 39120, Note_on_c, 6, 72, 0
8, 39120, Note_on_c, 6, 69, 104
8, 39150, Note_on_c, 6, 69, 0
8, 39150, Note_on_c, 6, 69, 95
8, 39180, Note_on_c, 6, 69, 0
8, 39180, Note_on_c, 6, 69, 89
8, 39210, Note_on_c, 6, 69, 0
8, 39210, Note_on_c, 6, 69, 94
8, 39240, Note_on_c, 6, 69, 0
8, 39240, Note_on_c, 6, 69, 89
8, 39270, Note_on_c, 6, 69, 0
8, 39270, Note_on_c, 6, 69, 89
8, 39300, Note_on_c, 6, 69, 0
8, 39300, Note_on_c, 6, 69, 94
8, 39330, Note_on_c, 6, 69, 0
8, 39330, Note_on_c, 6, 69, 99
8, 39360, Note_on_c, 6, 69, 0
8, 39360, Note_on_c, 6, 70, 99
8, 39390, Note_on_c, 6, 70, 0
8, 39390, Note_on_c, 6, 74, 105
8, 39420, Note_on_c, 6, 74, 0
8, 39420, Note_on_c, 6, 74, 104
8, 39450, Note_on_c, 6, 74, 0
8, 39450, Note_on_c, 6, 74, 107
8, 39480, Note_on_c, 6, 74, 0
8, 39480, Note_on_c, 6, 74, 105
8, 39510, Note_on_c, 6, 74, 0
8, 39510, Note_on_c, 6, 74, 104
8, 39540, Note_on_c, 6, 74, 0
8, 39540, Note_on_c, 6, 74, 104
8, 39570, Note_on_c, 6, 74, 0
8, 39570, Note_on_c, 6, 74, 104
8, 39600, Note_on_c, 6, 74, 0
8, 39600, Note_on_c, 6, 74, 99
8, 39600, Note_on_c, 6, 67, 98
8, 39630, Note_on_c, 6, 67, 0
8, 39630, Note_on_c, 6, 74, 0
8, 39630, Note_on_c, 6, 74, 99
8, 39630, Note_on_c, 6, 67, 98
8, 39660, Note_on_c, 6, 67, 0
8, 39660, Note_on_c, 6, 74, 0
8, 39660, Note_on_c, 6, 74, 95
8, 39660, Note_on_c, 6, 67, 99
8, 39690, Note_on_c, 6, 67, 0
8, 39690, Note_on_c, 6, 74, 0
8, 39690, Note_on_c, 6, 74, 99
8, 39690, Note_on_c, 6, 67, 99
8, 39720, Note_on_c, 6, 67, 0
8, 39720, Note_on_c, 6, 74, 0
8, 39720, Note_on_c, 6, 74, 98
8, 39720, Note_on_c, 6, 67, 99
8, 39750, Note_on_c, 6, 67, 0
8, 39750, Note_on_c, 6, 74, 0
8, 39750, Note_on_c, 6, 74, 99
8, 39750, Note_on_c, 6, 67, 99
8, 39780, Note_on_c, 6, 67, 0
8, 39780, Note_on_c, 6, 74, 0
8, 39780, Note_on_c, 6, 74, 94
8, 39780, Note_on_c, 6, 67, 98
8, 39810, Note_on_c, 6, 67, 0
8, 39810, Note_on_c, 6, 74, 0
8, 39810, Note_on_c, 6, 74, 98
8, 39810, Note_on_c, 6, 67, 99
8, 39840, Note_on_c, 6, 67, 0
8, 39840, Note_on_c, 6, 74, 0
8, 39840, Note_on_c, 6, 75, 86
8, 39840, Note_on_c, 6, 67, 105
8, 39870, Note_on_c, 6, 67, 0
8, 39870, Note_on_c, 6, 75, 0
8, 39870, Note_on_c, 6, 75, 85
8, 39870, Note_on_c, 6, 67, 94
8, 39900, Note_on_c, 6, 67, 0
8, 39900, Note_on_c, 6, 75, 0
8, 39900, Note_on_c, 6, 75, 85
8, 39900, Note_on_c, 6, 67, 94
8, 39930, Note_on_c, 6, 67, 0
8, 39930, Note_on_c, 6, 75, 0
8, 39930, Note_on_c, 6, 75, 93
8, 39930, Note_on_c, 6, 67, 99
8, 39960, Note_on_c, 6, 67, 0
8, 39960, Note_on_c, 6, 75, 0
8, 39960, Note_on_c, 6, 75, 94
8, 39960, Note_on_c, 6, 67, 101
8, 39990, Note_on_c, 6, 67, 0
8, 39990, Note_on_c, 6, 75, 0
8, 39990, Note_on_c, 6, 75, 86
8, 39990, Note_on_c, 6, 67, 99
8, 40020, Note_on_c, 6, 67, 0
8, 40020, Note_on_c, 6, 75, 0
8, 40020, Note_on_c, 6, 75, 84
8, 40020, Note_on_c, 6, 67, 99
8, 40050, Note_on_c, 6, 67, 0
8, 40050, Note_on_c, 6, 75, 0
8, 40050, Note_on_c, 6, 75, 80
8, 40050, Note_on_c, 6, 67, 104
8, 40080, Note_on_c, 6, 67, 0
8, 40080, Note_on_c, 6, 75, 0
8, 40080, Note_on_c, 6, 72, 94
8, 40080, Note_on_c, 6, 63, 94
8, 40110, Note_on_c, 6, 63, 0
8, 40110, Note_on_c, 6, 72, 0
8, 40110, Note_on_c, 6, 72, 84
8, 40110, Note_on_c, 6, 63, 89
8, 40140, Note_on_c, 6, 63, 0
8, 40140, Note_on_c, 6, 72, 0
8, 40140, Note_on_c, 6, 72, 65
8, 40140, Note_on_c, 6, 63, 86
8, 40170, Note_on_c, 6, 63, 0
8, 40170, Note_on_c, 6, 72, 0
8, 40170, Note_on_c, 6, 72, 70
8, 40170, Note_on_c, 6, 63, 84
8, 40200, Note_on_c, 6, 63, 0
8, 40200, Note_on_c, 6, 72, 0
8, 40200, Note_on_c, 6, 72, 65
8, 40200, Note_on_c, 6, 63, 86
8, 40230, Note_on_c, 6, 63, 0
8, 40230, Note_on_c, 6, 72, 0
8, 40230, Note_on_c, 6, 72, 66
8, 40230, Note_on_c, 6, 63, 85
8, 40260, Note_on_c, 6, 63, 0
8, 40260, Note_on_c, 6, 72, 0
8, 40260, Note_on_c, 6, 72, 64
8, 40260, Note_on_c, 6, 63, 80
8, 40290, Note_on_c, 6, 63, 0
8, 40290, Note_on_c, 6, 72, 0
8, 40290, Note_on_c, 6, 72, 71
8, 40290, Note_on_c, 6, 63, 94
8, 40320, Note_on_c, 6, 63, 0
8, 40320, Note_on_c, 6, 72, 0
8, 40320, Note_on_c, 6, 70, 85
8, 40320, Note_on_c, 6, 62, 104
8, 40440, Note_on_c, 6, 62, 0
8, 40440, Note_on_c, 6, 70, 0
8, 40440, Note_on_c, 6, 62, 72
8, 40530, Note_on_c, 6, 62, 0
8, 40560, Note_on_c, 6, 62, 71
8, 40650, Note_on_c, 6, 62, 0
8, 40680, Note_on_c, 6, 62, 77
8, 40770, Note_on_c, 6, 62, 0
8, 40800, Note_on_c, 6, 63, 71
8, 40860, Note_on_c, 6, 63, 0
8, 40860, Note_on_c, 6, 65, 64
8, 40920, Note_on_c, 6, 65, 0
8, 40920, Note_on_c, 6, 63, 68
8, 40980, Note_on_c, 6, 63, 0
8, 40980, Note_on_c, 6, 65, 72
8, 41040, Note_on_c, 6, 65, 0
8, 41040, Note_on_c, 6, 63, 69
8, 41100, Note_on_c, 6, 63, 0
8, 41100, Note_on_c, 6, 65, 67
8, 41160, Note_on_c, 6, 65, 0
8, 41160, Note_on_c, 6, 63, 67
8, 41220, Note_on_c, 6, 63, 0
8, 41220, Note_on_c, 6, 65, 73
8, 41280, Note_on_c, 6, 65, 0
8, 41280, Note_on_c, 6, 62, 53
8, 41400, Note_on_c, 6, 62, 0
8, 41760, Note_on_c, 6, 60, 68
8, 41820, Note_on_c, 6, 60, 0
8, 41820, Note_on_c, 6, 57, 69
8, 41880, Note_on_c, 6, 57, 0
8, 41880, Note_on_c, 6, 60, 77
8, 41940, Note_on_c, 6, 60, 0
8, 41940, Note_on_c, 6, 57, 99
8, 42000, Note_on_c, 6, 57, 0
8, 42000, Note_on_c, 6, 60, 85
8, 42060, Note_on_c, 6, 60, 0
8, 42060, Note_on_c, 6, 57, 81
8, 42120, Note_on_c, 6, 57, 0
8, 42120, Note_on_c, 6, 60, 45
8, 42180, Note_on_c, 6, 60, 0
8, 42180, Note_on_c, 6, 57, 74
8, 42240, Note_on_c, 6, 57, 0
8, 42240, Note_on_c, 6, 58, 59
8, 42360, Note_on_c, 6, 58, 0
8, 42480, Note_on_c, 6, 77, 101
8, 42480, Note_on_c, 6, 70, 90
8, 42480, Note_on_c, 6, 62, 99
8, 42600, Note_on_c, 6, 62, 0
8, 42600, Note_on_c, 6, 70, 0
8, 42600, Note_on_c, 6, 77, 0
8, 42720, Note_on_c, 6, 58, 94
8, 42840, Note_on_c, 6, 58, 0
8, 45240, Note_on_c, 6, 65, 52
8, 45360, Note_on_c, 6, 65, 0
8, 45720, Note_on_c, 6, 65, 44
8, 45840, Note_on_c, 6, 65, 0
8, 46200, Note_on_c, 6, 67, 57
8, 46320, Note_on_c, 6, 67, 0
8, 46440, Note_on_c, 6, 66, 44
8, 46560, Note_on_c, 6, 66, 0
8, 46680, Note_on_c, 6, 65, 52
8, 46800, Note_on_c, 6, 65, 0
8, 46920, Note_on_c, 6, 65, 54
8, 47040, Note_on_c, 6, 65, 0
8, 47160, Note_on_c, 6, 67, 60
8, 47280, Note_on_c, 6, 67, 0
8, 47520, Note_on_c, 6, 70, 61
8, 47640, Note_on_c, 6, 70, 0
8, 48360, Note_on_c, 6, 63, 65
8, 48480, Note_on_c, 6, 63, 0
8, 48480, Note_on_c, 6, 62, 95
8, 48522, Control_c, 6, 7, 99
8, 48526, Control_c, 6, 7, 98
8, 48528, Control_c, 6, 7, 97
8, 48530, Control_c, 6, 7, 96
8, 48532, Control_c, 6, 7, 95
8, 48534, Control_c, 6, 7, 94
8, 48536, Control_c, 6, 7, 93
8, 48538, Control_c, 6, 7, 92
8, 48540, Control_c, 6, 7, 91
8, 48542, Control_c, 6, 7, 90
8, 48544, Control_c, 6, 7, 89
8, 48546, Control_c, 6, 7, 88
8, 48548, Control_c, 6, 7, 87
8, 48552, Control_c, 6, 7, 86
8, 48554, Control_c, 6, 7, 85
8, 48556, Control_c, 6, 7, 84
8, 48558, Control_c, 6, 7, 83
8, 48560, Control_c, 6, 7, 82
8, 48562, Control_c, 6, 7, 81
8, 48564, Control_c, 6, 7, 80
8, 48566, Control_c, 6, 7, 79
8, 48568, Control_c, 6, 7, 78
8, 48570, Control_c, 6, 7, 77
8, 48572, Control_c, 6, 7, 76
8, 48574, Control_c, 6, 7, 75
8, 48578, Control_c, 6, 7, 74
8, 48580, Control_c, 6, 7, 73
8, 48582, Control_c, 6, 7, 72
8, 48584, Control_c, 6, 7, 71
8, 48586, Control_c, 6, 7, 70
8, 48588, Control_c, 6, 7, 69
8, 48590, Control_c, 6, 7, 68
8, 48592, Control_c, 6, 7, 67
8, 48594, Control_c, 6, 7, 66
8, 48596, Control_c, 6, 7, 65
8, 48598, Control_c, 6, 7, 64
8, 48600, Control_c, 6, 7, 63
8, 48720, Note_on_c, 6, 62, 0
8, 48720, Note_on_c, 6, 65, 94
8, 48960, Note_on_c, 6, 65, 0
8, 48960, Note_on_c, 6, 67, 99
8, 49020, Note_on_c, 6, 67, 0
8, 49020, Note_on_c, 6, 75, 99
8, 49050, Note_on_c, 6, 75, 0
8, 49080, Note_on_c, 6, 75, 95
8, 49110, Note_on_c, 6, 75, 0
8, 49140, Note_on_c, 6, 75, 98
8, 49170, Note_on_c, 6, 75, 0
8, 49200, Note_on_c, 6, 75, 95
8, 49230, Note_on_c, 6, 75, 0
8, 49260, Note_on_c, 6, 75, 99
8, 49290, Note_on_c, 6, 75, 0
8, 49320, Note_on_c, 6, 74, 105
8, 49380, Note_on_c, 6, 74, 0
8, 49380, Note_on_c, 6, 75, 99
8, 49440, Note_on_c, 6, 75, 0
8, 49440, Control_c, 6, 7, 63
8, 49440, Note_on_c, 6, 74, 105
8, 49454, Control_c, 6, 7, 64
8, 49468, Control_c, 6, 7, 65
8, 49480, Control_c, 6, 7, 66
8, 49494, Control_c, 6, 7, 67
8, 49508, Control_c, 6, 7, 68
8, 49520, Control_c, 6, 7, 69
8, 49534, Control_c, 6, 7, 70
8, 49548, Control_c, 6, 7, 71
8, 49560, Control_c, 6, 7, 72
8, 49574, Control_c, 6, 7, 73
8, 49588, Control_c, 6, 7, 74
8, 49600, Control_c, 6, 7, 75
8, 49614, Control_c, 6, 7, 76
8, 49628, Control_c, 6, 7, 77
8, 49640, Control_c, 6, 7, 78
8, 49654, Control_c, 6, 7, 79
8, 49668, Control_c, 6, 7, 80
8, 49680, Note_on_c, 6, 74, 0
8, 49680, Note_on_c, 6, 68, 99
8, 49680, Control_c, 6, 7, 81
8, 49694, Control_c, 6, 7, 82
8, 49708, Control_c, 6, 7, 83
8, 49720, Control_c, 6, 7, 84
8, 49734, Control_c, 6, 7, 85
8, 49748, Control_c, 6, 7, 86
8, 49760, Control_c, 6, 7, 87
8, 49774, Control_c, 6, 7, 88
8, 49788, Control_c, 6, 7, 89
8, 49800, Control_c, 6, 7, 90
8, 49814, Control_c, 6, 7, 91
8, 49828, Control_c, 6, 7, 92
8, 49840, Control_c, 6, 7, 93
8, 49854, Control_c, 6, 7, 94
8, 49868, Control_c, 6, 7, 95
8, 49880, Control_c, 6, 7, 96
8, 49894, Control_c, 6, 7, 97
8, 49908, Control_c, 6, 7, 98
8, 49920, Note_on_c, 6, 68, 0
8, 49920, Control_c, 6, 7, 99
8, 49920, Note_on_c, 6, 67, 95
8, 50160, Note_on_c, 6, 67, 0
8, 50160, Note_on_c, 6, 69, 99
8, 50400, Note_on_c, 6, 69, 0
8, 50400, Note_on_c, 6, 70, 86
8, 50400, Note_on_c, 6, 62, 94
8, 50520, Note_on_c, 6, 62, 0
8, 50520, Note_on_c, 6, 70, 0
8, 51000, Note_on_c, 6, 62, 69
8, 51120, Note_on_c, 6, 62, 0
8, 51240, Note_on_c, 6, 62, 73
8, 51360, Note_on_c, 6, 62, 0
8, 51480, Note_on_c, 6, 71, 64
8, 51600, Note_on_c, 6, 71, 0
8, 51960, Note_on_c, 6, 62, 67
8, 52080, Note_on_c, 6, 62, 0
8, 52200, Note_on_c, 6, 62, 63
8, 52320, Note_on_c, 6, 62, 0
8, 52440, Note_on_c, 6, 60, 72
8, 52560, Note_on_c, 6, 60, 0
8, 52920, Note_on_c, 6, 60, 61
8, 53040, Note_on_c, 6, 60, 0
8, 53160, Note_on_c, 6, 69, 73
8, 53280, Note_on_c, 6, 69, 0
8, 53400, Note_on_c, 6, 69, 72
8, 53520, Note_on_c, 6, 69, 0
8, 53880, Note_on_c, 6, 60, 67
8, 54000, Note_on_c, 6, 60, 0
8, 54120, Note_on_c, 6, 60, 67
8, 54240, Note_on_c, 6, 60, 0
8, 54360, Note_on_c, 6, 58, 60
8, 54480, Note_on_c, 6, 58, 0
8, 54840, Note_on_c, 6, 61, 65
8, 54960, Note_on_c, 6, 61, 0
8, 55320, Note_on_c, 6, 64, 58
8, 55440, Note_on_c, 6, 64, 0
8, 55800, Note_on_c, 6, 64, 64
8, 55920, Note_on_c, 6, 64, 0
8, 56040, Note_on_c, 6, 64, 71
8, 56160, Note_on_c, 6, 64, 0
8, 56280, Note_on_c, 6, 64, 72
8, 56400, Note_on_c, 6, 64, 0
8, 56520, Note_on_c, 6, 64, 68
8, 56640, Note_on_c, 6, 64, 0
8, 56760, Note_on_c, 6, 60, 43
8, 57000, Note_on_c, 6, 60, 0
8, 57000, Note_on_c, 6, 55, 47
8, 57120, Note_on_c, 6, 55, 0
8, 57240, Note_on_c, 6, 60, 40
8, 57480, Note_on_c, 6, 60, 0
8, 57480, Note_on_c, 6, 57, 48
8, 57600, Note_on_c, 6, 57, 0
8, 57720, Note_on_c, 6, 65, 52
8, 57960, Note_on_c, 6, 65, 0
8, 57960, Note_on_c, 6, 62, 43
8, 58080, Note_on_c, 6, 62, 0
8, 58080, Note_on_c, 6, 67, 64
8, 58140, Note_on_c, 6, 67, 0
8, 58260, Note_on_c, 6, 64, 64
8, 58320, Note_on_c, 6, 64, 0
8, 58320, Note_on_c, 6, 65, 72
8, 58380, Note_on_c, 6, 65, 0
8, 58500, Note_on_c, 6, 65, 73
8, 58560, Note_on_c, 6, 65, 0
8, 58560, Note_on_c, 6, 64, 72
8, 58620, Note_on_c, 6, 64, 0
8, 60480, Note_on_c, 6, 72, 53
8, 60540, Note_on_c, 6, 72, 0
8, 60540, Note_on_c, 6, 74, 58
8, 60600, Note_on_c, 6, 74, 0
8, 60600, Note_on_c, 6, 70, 76
8, 60660, Note_on_c, 6, 70, 0
8, 60660, Note_on_c, 6, 72, 76
8, 60720, Note_on_c, 6, 72, 0
8, 60720, Note_on_c, 6, 69, 76
8, 60780, Note_on_c, 6, 69, 0
8, 60780, Note_on_c, 6, 70, 84
8, 60840, Note_on_c, 6, 70, 0
8, 60840, Note_on_c, 6, 67, 94
8, 60900, Note_on_c, 6, 67, 0
8, 60900, Note_on_c, 6, 69, 99
8, 60960, Note_on_c, 6, 69, 0
8, 60960, Note_on_c, 6, 65, 99
8, 61020, Control_c, 6, 7, 98
8, 61022, Control_c, 6, 7, 97
8, 61024, Control_c, 6, 7, 96
8, 61026, Control_c, 6, 7, 95
8, 61028, Control_c, 6, 7, 94
8, 61030, Control_c, 6, 7, 93
8, 61032, Control_c, 6, 7, 92
8, 61034, Control_c, 6, 7, 91
8, 61036, Control_c, 6, 7, 90
8, 61038, Control_c, 6, 7, 89
8, 61040, Control_c, 6, 7, 87
8, 61042, Control_c, 6, 7, 86
8, 61044, Control_c, 6, 7, 85
8, 61046, Control_c, 6, 7, 84
8, 61048, Control_c, 6, 7, 83
8, 61050, Control_c, 6, 7, 82
8, 61052, Control_c, 6, 7, 81
8, 61054, Control_c, 6, 7, 80
8, 61056, Control_c, 6, 7, 79
8, 61058, Control_c, 6, 7, 78
8, 61060, Control_c, 6, 7, 76
8, 61062, Control_c, 6, 7, 75
8, 61064, Control_c, 6, 7, 74
8, 61066, Control_c, 6, 7, 73
8, 61068, Control_c, 6, 7, 72
8, 61070, Control_c, 6, 7, 71
8, 61072, Control_c, 6, 7, 70
8, 61074, Control_c, 6, 7, 69
8, 61076, Control_c, 6, 7, 68
8, 61078, Control_c, 6, 7, 66
8, 61080, Note_on_c, 6, 65, 0
8, 61080, Note_on_c, 6, 69, 99
8, 61200, Note_on_c, 6, 69, 0
8, 61200, Note_on_c, 6, 70, 99
8, 61320, Note_on_c, 6, 70, 0
8, 61320, Note_on_c, 6, 64, 99
8, 61440, Note_on_c, 6, 64, 0
8, 61440, Note_on_c, 6, 65, 98
8, 61560, Note_on_c, 6, 65, 0
8, 61920, Note_on_c, 6, 62, 95
8, 61980, Note_on_c, 6, 62, 0
8, 62040, Note_on_c, 6, 62, 93
8, 62100, Note_on_c, 6, 62, 0
8, 62160, Note_on_c, 6, 62, 94
8, 62220, Note_on_c, 6, 62, 0
8, 62280, Note_on_c, 6, 66, 94
8, 62340, Note_on_c, 6, 66, 0
8, 62400, Control_c, 6, 7, 99
8, 62400, Note_on_c, 6, 66, 95
8, 62580, Note_on_c, 6, 66, 0
8, 62580, Note_on_c, 6, 69, 93
8, 62640, Note_on_c, 6, 69, 0
8, 62640, Note_on_c, 6, 67, 84
8, 62700, Note_on_c, 6, 67, 0
8, 62760, Note_on_c, 6, 67, 86
8, 62820, Note_on_c, 6, 67, 0
8, 62820, Note_on_c, 6, 69, 94
8, 62880, Note_on_c, 6, 69, 0
8, 62880, Note_on_c, 6, 70, 94
8, 62940, Control_c, 6, 7, 99
8, 62942, Control_c, 6, 7, 98
8, 62944, Control_c, 6, 7, 97
8, 62946, Control_c, 6, 7, 96
8, 62948, Control_c, 6, 7, 95
8, 62950, Control_c, 6, 7, 94
8, 62952, Control_c, 6, 7, 93
8, 62954, Control_c, 6, 7, 92
8, 62956, Control_c, 6, 7, 91
8, 62958, Control_c, 6, 7, 90
8, 62960, Control_c, 6, 7, 88
8, 62962, Control_c, 6, 7, 87
8, 62964, Control_c, 6, 7, 86
8, 62966, Control_c, 6, 7, 85
8, 62968, Control_c, 6, 7, 84
8, 62970, Control_c, 6, 7, 83
8, 62972, Control_c, 6, 7, 82
8, 62974, Control_c, 6, 7, 81
8, 62976, Control_c, 6, 7, 80
8, 62978, Control_c, 6, 7, 79
8, 62980, Control_c, 6, 7, 77
8, 62982, Control_c, 6, 7, 76
8, 62984, Control_c, 6, 7, 75
8, 62986, Control_c, 6, 7, 74
8, 62988, Control_c, 6, 7, 73
8, 62990, Control_c, 6, 7, 72
8, 62992, Control_c, 6, 7, 71
8, 62994, Control_c, 6, 7, 70
8, 62996, Control_c, 6, 7, 69
8, 62998, Control_c, 6, 7, 68
8, 63000, Control_c, 6, 7, 66
8, 63120, Note_on_c, 6, 70, 0
8, 63120, Note_on_c, 6, 69, 95
8, 63180, Note_on_c, 6, 69, 0
8, 63180, Note_on_c, 6, 67, 93
8, 63240, Note_on_c, 6, 67, 0
8, 63240, Note_on_c, 6, 65, 95
8, 63300, Note_on_c, 6, 65, 0
8, 63300, Note_on_c, 6, 64, 95
8, 63360, Note_on_c, 6, 64, 0
8, 63360, Note_on_c, 6, 67, 94
8, 63420, Note_on_c, 6, 67, 0
8, 63420, Note_on_c, 6, 65, 90
8, 63480, Note_on_c, 6, 65, 0
8, 63480, Note_on_c, 6, 69, 84
8, 63510, Note_on_c, 6, 69, 0
8, 63540, Note_on_c, 6, 67, 89
8, 63570, Note_on_c, 6, 67, 0
8, 63600, Note_on_c, 6, 65, 95
8, 63660, Note_on_c, 6, 65, 0
8, 63660, Note_on_c, 6, 64, 93
8, 63720, Note_on_c, 6, 64, 0
8, 63720, Note_on_c, 6, 62, 85
8, 63750, Note_on_c, 6, 62, 0
8, 63780, Note_on_c, 6, 60, 84
8, 63810, Note_on_c, 6, 60, 0
8, 63840, Note_on_c, 6, 59, 101
8, 63900, Note_on_c, 6, 59, 0
8, 63900, Note_on_c, 6, 60, 95
8, 63960, Note_on_c, 6, 60, 0
8, 63960, Note_on_c, 6, 55, 94
8, 63990, Note_on_c, 6, 55, 0
8, 64020, Note_on_c, 6, 60, 95
8, 64050, Note_on_c, 6, 60, 0
8, 64080, Note_on_c, 6, 57, 99
8, 64140, Note_on_c, 6, 57, 0
8, 64140, Note_on_c, 6, 60, 99
8, 64200, Note_on_c, 6, 60, 0
8, 64200, Note_on_c, 6, 60, 98
8, 64230, Note_on_c, 6, 60, 0
8, 64260, Note_on_c, 6, 65, 99
8, 64290, Note_on_c, 6, 65, 0
8, 64320, Control_c, 6, 7, 66
8, 64320, Note_on_c, 6, 65, 99
8, 64328, Control_c, 6, 7, 67
8, 64336, Control_c, 6, 7, 68
8, 64344, Control_c, 6, 7, 69
8, 64352, Control_c, 6, 7, 70
8, 64358, Control_c, 6, 7, 71
8, 64366, Control_c, 6, 7, 72
8, 64374, Control_c, 6, 7, 73
8, 64382, Control_c, 6, 7, 74
8, 64390, Control_c, 6, 7, 75
8, 64396, Control_c, 6, 7, 76
8, 64404, Control_c, 6, 7, 77
8, 64412, Control_c, 6, 7, 78
8, 64420, Control_c, 6, 7, 79
8, 64426, Control_c, 6, 7, 80
8, 64434, Control_c, 6, 7, 81
8, 64442, Control_c, 6, 7, 82
8, 64450, Control_c, 6, 7, 83
8, 64458, Control_c, 6, 7, 84
8, 64464, Control_c, 6, 7, 85
8, 64472, Control_c, 6, 7, 86
8, 64480, Control_c, 6, 7, 87
8, 64488, Control_c, 6, 7, 88
8, 64494, Control_c, 6, 7, 89
8, 64502, Control_c, 6, 7, 90
8, 64510, Control_c, 6, 7, 91
8, 64518, Control_c, 6, 7, 92
8, 64526, Control_c, 6, 7, 93
8, 64532, Control_c, 6, 7, 94
8, 64540, Control_c, 6, 7, 95
8, 64548, Control_c, 6, 7, 96
8, 64556, Control_c, 6, 7, 97
8, 64560, Note_on_c, 6, 65, 0
8, 64560, Note_on_c, 6, 64, 99
8, 64562, Control_c, 6, 7, 98
8, 64566, Control_c, 6, 7, 97
8, 64570, Control_c, 6, 7, 96
8, 64574, Control_c, 6, 7, 95
8, 64578, Control_c, 6, 7, 94
8, 64582, Control_c, 6, 7, 93
8, 64586, Control_c, 6, 7, 92
8, 64588, Control_c, 6, 7, 91
8, 64592, Control_c, 6, 7, 90
8, 64596, Control_c, 6, 7, 89
8, 64600, Control_c, 6, 7, 88
8, 64604, Control_c, 6, 7, 87
8, 64608, Control_c, 6, 7, 86
8, 64610, Control_c, 6, 7, 85
8, 64614, Control_c, 6, 7, 84
8, 64618, Control_c, 6, 7, 83
8, 64622, Control_c, 6, 7, 82
8, 64626, Control_c, 6, 7, 81
8, 64630, Control_c, 6, 7, 80
8, 64634, Control_c, 6, 7, 79
8, 64636, Control_c, 6, 7, 78
8, 64640, Control_c, 6, 7, 77
8, 64644, Control_c, 6, 7, 76
8, 64648, Control_c, 6, 7, 75
8, 64652, Control_c, 6, 7, 74
8, 64656, Control_c, 6, 7, 73
8, 64658, Control_c, 6, 7, 72
8, 64662, Control_c, 6, 7, 71
8, 64666, Control_c, 6, 7, 70
8, 64670, Control_c, 6, 7, 69
8, 64674, Control_c, 6, 7, 68
8, 64678, Control_c, 6, 7, 67
8, 64680, Note_on_c, 6, 64, 0
8, 64680, Control_c, 6, 7, 66
8, 64740, Control_c, 6, 7, 99
8, 64920, Note_on_c, 6, 69, 61
8, 65040, Note_on_c, 6, 69, 0
8, 65160, Note_on_c, 6, 70, 43
8, 65280, Note_on_c, 6, 70, 0
8, 65400, Note_on_c, 6, 69, 60
8, 65520, Note_on_c, 6, 69, 0
8, 66840, Note_on_c, 6, 64, 62
8, 66960, Note_on_c, 6, 64, 0
8, 67080, Note_on_c, 6, 72, 62
8, 67200, Note_on_c, 6, 72, 0
8, 67320, Note_on_c, 6, 65, 63
8, 67440, Note_on_c, 6, 65, 0
8, 67800, Note_on_c, 6, 65, 46
8, 67920, Note_on_c, 6, 65, 0
8, 67920, Note_on_c, 6, 65, 56
8, 68040, Note_on_c, 6, 65, 0
8, 68040, Note_on_c, 6, 64, 56
8, 68160, Note_on_c, 6, 64, 0
8, 68160, Note_on_c, 6, 65, 55
8, 68280, Note_on_c, 6, 65, 0
8, 69480, Note_on_c, 6, 65, 64
8, 69600, Note_on_c, 6, 65, 0
8, 69600, Note_on_c, 6, 65, 54
8, 69660, Note_on_c, 6, 65, 0
8, 69720, Note_on_c, 6, 65, 67
8, 69780, Note_on_c, 6, 65, 0
8, 69960, Note_on_c, 6, 65, 64
8, 70080, Note_on_c, 6, 65, 0
8, 70080, Note_on_c, 6, 65, 57
8, 70140, Note_on_c, 6, 65, 0
8, 70200, Note_on_c, 6, 65, 63
8, 70260, Note_on_c, 6, 65, 0
8, 71040, Note_on_c, 6, 61, 40
8, 71520, Note_on_c, 6, 61, 0
8, 71520, Note_on_c, 6, 60, 39
8, 72000, Note_on_c, 6, 60, 0
8, 72000, Note_on_c, 6, 61, 39
8, 72240, Note_on_c, 6, 61, 0
8, 72240, Note_on_c, 6, 56, 41
8, 72480, Note_on_c, 6, 56, 0
8, 72480, Note_on_c, 6, 60, 44
8, 72960, Note_on_c, 6, 60, 0
8, 72960, Note_on_c, 6, 61, 39
8, 73080, Note_on_c, 6, 61, 0
8, 73080, Note_on_c, 6, 61, 43
8, 73200, Note_on_c, 6, 61, 0
8, 73320, Note_on_c, 6, 62, 46
8, 73440, Note_on_c, 6, 62, 0
8, 73560, Note_on_c, 6, 60, 45
8, 73680, Note_on_c, 6, 60, 0
8, 73800, Note_on_c, 6, 58, 46
8, 73920, Note_on_c, 6, 58, 0
8, 74040, Note_on_c, 6, 56, 43
8, 74160, Note_on_c, 6, 56, 0
8, 74280, Note_on_c, 6, 59, 45
8, 74400, Note_on_c, 6, 59, 0
8, 74520, Note_on_c, 6, 60, 48
8, 74640, Note_on_c, 6, 60, 0
8, 74760, Note_on_c, 6, 58, 42
8, 74880, Note_on_c, 6, 58, 0
8, 74880, Note_on_c, 6, 60, 60
8, 74910, Note_on_c, 6, 60, 0
8, 74940, Note_on_c, 6, 65, 72
8, 74970, Note_on_c, 6, 65, 0
8, 75000, Note_on_c, 6, 65, 74
8, 75030, Note_on_c, 6, 65, 0
8, 75060, Note_on_c, 6, 65, 65
8, 75090, Note_on_c, 6, 65, 0
8, 75120, Note_on_c, 6, 67, 86
8, 75360, Note_on_c, 6, 67, 0
8, 75360, Note_on_c, 6, 65, 49
8, 75390, Note_on_c, 6, 65, 0
8, 75420, Note_on_c, 6, 60, 67
8, 75450, Note_on_c, 6, 60, 0
8, 75480, Note_on_c, 6, 60, 73
8, 75510, Note_on_c, 6, 60, 0
8, 75540, Note_on_c, 6, 60, 72
8, 75570, Note_on_c, 6, 60, 0
8, 75600, Note_on_c, 6, 58, 84
8, 75840, Note_on_c, 6, 58, 0
8, 75840, Note_on_c, 6, 60, 81
8, 75900, Note_on_c, 6, 60, 0
8, 75900, Note_on_c, 6, 65, 69
8, 75960, Note_on_c, 6, 65, 0
8, 75960, Note_on_c, 6, 65, 58
8, 76020, Note_on_c, 6, 65, 0
8, 76020, Note_on_c, 6, 65, 53
8, 76080, Note_on_c, 6, 65, 0
8, 76080, Note_on_c, 6, 67, 54
8, 76140, Note_on_c, 6, 67, 0
8, 76140, Note_on_c, 6, 67, 62
8, 76200, Note_on_c, 6, 67, 0
8, 76200, Note_on_c, 6, 67, 53
8, 76260, Note_on_c, 6, 67, 0
8, 76260, Note_on_c, 6, 67, 57
8, 76320, Note_on_c, 6, 67, 0
8, 76320, Note_on_c, 6, 65, 54
8, 76380, Note_on_c, 6, 65, 0
8, 76380, Note_on_c, 6, 60, 45
8, 76440, Note_on_c, 6, 60, 0
8, 76440, Note_on_c, 6, 60, 52
8, 76500, Note_on_c, 6, 60, 0
8, 76500, Note_on_c, 6, 60, 68
8, 76560, Note_on_c, 6, 60, 0
8, 76560, Note_on_c, 6, 58, 64
8, 76620, Note_on_c, 6, 58, 0
8, 76620, Note_on_c, 6, 58, 56
8, 76680, Note_on_c, 6, 58, 0
8, 76680, Note_on_c, 6, 58, 43
8, 76740, Note_on_c, 6, 58, 0
8, 76740, Note_on_c, 6, 58, 44
8, 76800, Note_on_c, 6, 58, 0
8, 76800, Note_on_c, 6, 57, 69
8, 76920, Note_on_c, 6, 57, 0
8, 79680, Note_on_c, 6, 60, 77
8, 79710, Note_on_c, 6, 60, 0
8, 79740, Note_on_c, 6, 62, 74
8, 79770, Note_on_c, 6, 62, 0
8, 79800, Note_on_c, 6, 64, 72
8, 79830, Note_on_c, 6, 64, 0
8, 79860, Note_on_c, 6, 65, 72
8, 79890, Note_on_c, 6, 65, 0
8, 79920, Note_on_c, 6, 67, 76
8, 79950, Note_on_c, 6, 67, 0
8, 79980, Note_on_c, 6, 69, 82
8, 80010, Note_on_c, 6, 69, 0
8, 80040, Note_on_c, 6, 70, 78
8, 80070, Note_on_c, 6, 70, 0
8, 80100, Note_on_c, 6, 67, 72
8, 80130, Note_on_c, 6, 67, 0
8, 80160, Note_on_c, 6, 69, 66
8, 80280, Note_on_c, 6, 69, 0
8, 80400, Note_on_c, 6, 67, 65
8, 80520, Note_on_c, 6, 67, 0
8, 80640, Note_on_c, 6, 65, 64
8, 80760, Note_on_c, 6, 65, 0
8, 83160, Note_on_c, 6, 62, 73
8, 83280, Note_on_c, 6, 62, 0
8, 83400, Note_on_c, 6, 60, 71
8, 83520, Note_on_c, 6, 60, 0
8, 83640, Note_on_c, 6, 58, 86
8, 83880, Note_on_c, 6, 58, 0
8, 83880, Note_on_c, 6, 60, 84
8, 84000, Note_on_c, 6, 60, 0
8, 84120, Note_on_c, 6, 62, 71
8, 84240, Note_on_c, 6, 62, 0
8, 84360, Note_on_c, 6, 60, 73
8, 84480, Note_on_c, 6, 60, 0
8, 84600, Note_on_c, 6, 58, 62
8, 84840, Note_on_c, 6, 58, 0
8, 84840, Note_on_c, 6, 58, 71
8, 84960, Note_on_c, 6, 58, 0
8, 85080, Note_on_c, 6, 68, 72
8, 85320, Note_on_c, 6, 68, 0
8, 85320, Note_on_c, 6, 68, 73
8, 85440, Note_on_c, 6, 68, 0
8, 85440, Note_on_c, 6, 68, 78
8, 85560, Note_on_c, 6, 68, 0
8, 85680, Note_on_c, 6, 56, 94
8, 85920, Note_on_c, 6, 56, 0
8, 85920, Note_on_c, 6, 57, 105
8, 85980, Note_on_c, 6, 57, 0
8, 86640, Note_on_c, 6, 56, 99
8, 86880, Note_on_c, 6, 56, 0
8, 86880, Note_on_c, 6, 57, 105
8, 86940, Note_on_c, 6, 57, 0
8, 87600, Note_on_c, 6, 56, 99
8, 87840, Note_on_c, 6, 56, 0
8, 87840, Note_on_c, 6, 57, 110
8, 87900, Note_on_c, 6, 57, 0
8, 92760, Note_on_c, 6, 57, 73
8, 92820, Note_on_c, 6, 57, 0
8, 92880, Note_on_c, 6, 60, 62
8, 93240, Note_on_c, 6, 60, 0
8, 93240, Note_on_c, 6, 65, 68
8, 93300, Note_on_c, 6, 65, 0
8, 93360, Note_on_c, 6, 69, 71
8, 93720, Note_on_c, 6, 69, 0
8, 93720, Note_on_c, 6, 72, 73
8, 93780, Note_on_c, 6, 72, 0
8, 93840, Note_on_c, 6, 77, 69
8, 93900, Note_on_c, 6, 77, 0
8, 93960, Note_on_c, 6, 81, 69
8, 94020, Note_on_c, 6, 81, 0
8, 94080, Note_on_c, 6, 70, 70
8, 94140, Note_on_c, 6, 70, 0
8, 94140, Note_on_c, 6, 64, 66
8, 94200, Note_on_c, 6, 64, 0
8, 94200, Note_on_c, 6, 64, 65
8, 94260, Note_on_c, 6, 64, 0
8, 94260, Note_on_c, 6, 64, 76
8, 94320, Note_on_c, 6, 64, 0
8, 94320, Note_on_c, 6, 67, 69
8, 94380, Note_on_c, 6, 67, 0
8, 94380, Note_on_c, 6, 67, 65
8, 94440, Note_on_c, 6, 67, 0
8, 94440, Note_on_c, 6, 67, 62
8, 94500, Note_on_c, 6, 67, 0
8, 94500, Note_on_c, 6, 67, 68
8, 94560, Note_on_c, 6, 67, 0
8, 94560, Note_on_c, 6, 65, 76
8, 94560, Note_on_c, 6, 57, 85
8, 94590, Note_on_c, 6, 57, 0
8, 94590, Note_on_c, 6, 65, 0
8, 94590, Note_on_c, 6, 65, 73
8, 94590, Note_on_c, 6, 57, 80
8, 94620, Note_on_c, 6, 57, 0
8, 94620, Note_on_c, 6, 65, 0
8, 94620, Note_on_c, 6, 60, 78
8, 94650, Note_on_c, 6, 60, 0
8, 94650, Note_on_c, 6, 60, 74
8, 94680, Note_on_c, 6, 60, 0
8, 94680, Note_on_c, 6, 57, 84
8, 94710, Note_on_c, 6, 57, 0
8, 94710, Note_on_c, 6, 57, 84
8, 94740, Note_on_c, 6, 57, 0
8, 94740, Note_on_c, 6, 60, 84
8, 94770, Note_on_c, 6, 60, 0
8, 94770, Note_on_c, 6, 60, 80
8, 94800, Note_on_c, 6, 60, 0
8, 94800, Note_on_c, 6, 57, 89
8, 94830, Note_on_c, 6, 57, 0
8, 94830, Note_on_c, 6, 57, 86
8, 94860, Note_on_c, 6, 57, 0
8, 94860, Note_on_c, 6, 60, 82
8, 94890, Note_on_c, 6, 60, 0
8, 94890, Note_on_c, 6, 60, 80
8, 94920, Note_on_c, 6, 60, 0
8, 94920, Note_on_c, 6, 57, 86
8, 94950, Note_on_c, 6, 57, 0
8, 94950, Note_on_c, 6, 57, 86
8, 94980, Note_on_c, 6, 57, 0
8, 94980, Note_on_c, 6, 60, 85
8, 95010, Note_on_c, 6, 60, 0
8, 95010, Note_on_c, 6, 60, 81
8, 95040, Note_on_c, 6, 60, 0
8, 95040, Note_on_c, 6, 57, 105
8, 95070, Note_on_c, 6, 57, 0
8, 95070, Note_on_c, 6, 57, 76
8, 95100, Note_on_c, 6, 57, 0
8, 95100, Note_on_c, 6, 60, 84
8, 95130, Note_on_c, 6, 60, 0
8, 95130, Note_on_c, 6, 60, 72
8, 95160, Note_on_c, 6, 60, 0
8, 95160, Note_on_c, 6, 57, 84
8, 95190, Note_on_c, 6, 57, 0
8, 95190, Note_on_c, 6, 57, 80
8, 95220, Note_on_c, 6, 57, 0
8, 95220, Note_on_c, 6, 60, 78
8, 95250, Note_on_c, 6, 60, 0
8, 95250, Note_on_c, 6, 60, 68
8, 95280, Note_on_c, 6, 60, 0
8, 95280, Note_on_c, 6, 57, 82
8, 95310, Note_on_c, 6, 57, 0
8, 95310, Note_on_c, 6, 57, 78
8, 95340, Note_on_c, 6, 57, 0
8, 95340, Note_on_c, 6, 60, 76
8, 95370, Note_on_c, 6, 60, 0
8, 95370, Note_on_c, 6, 60, 73
8, 95400, Note_on_c, 6, 60, 0
8, 95400, Note_on_c, 6, 57, 80
8, 95430, Note_on_c, 6, 57, 0
8, 95430, Note_on_c, 6, 57, 82
8, 95460, Note_on_c, 6, 57, 0
8, 95460, Note_on_c, 6, 60, 84
8, 95490, Note_on_c, 6, 60, 0
8, 95490, Note_on_c, 6, 60, 81
8, 95520, Note_on_c, 6, 60, 0
8, 95520, Note_on_c, 6, 58, 107
8, 95550, Note_on_c, 6, 58, 0
8, 95550, Note_on_c, 6, 58, 72
8, 95580, Note_on_c, 6, 58, 0
8, 95580, Note_on_c, 6, 60, 74
8, 95610, Note_on_c, 6, 60, 0
8, 95610, Note_on_c, 6, 60, 80
8, 95640, Note_on_c, 6, 60, 0
8, 95640, Note_on_c, 6, 58, 67
8, 95670, Note_on_c, 6, 58, 0
8, 95670, Note_on_c, 6, 58, 72
8, 95700, Note_on_c, 6, 58, 0
8, 95700, Note_on_c, 6, 60, 77
8, 95730, Note_on_c, 6, 60, 0
8, 95730, Note_on_c, 6, 60, 86
8, 95760, Note_on_c, 6, 60, 0
8, 95760, Note_on_c, 6, 58, 73
8, 95790, Note_on_c, 6, 58, 0
8, 95790, Note_on_c, 6, 58, 77
8, 95820, Note_on_c, 6, 58, 0
8, 95820, Note_on_c, 6, 60, 85
8, 95850, Note_on_c, 6, 60, 0
8, 95850, Note_on_c, 6, 60, 90
8, 95880, Note_on_c, 6, 60, 0
8, 95880, Note_on_c, 6, 58, 72
8, 95910, Note_on_c, 6, 58, 0
8, 95910, Note_on_c, 6, 58, 73
8, 95940, Note_on_c, 6, 58, 0
8, 95940, Note_on_c, 6, 60, 84
8, 95970, Note_on_c, 6, 60, 0
8, 95970, Note_on_c, 6, 60, 86
8, 96000, Note_on_c, 6, 60, 0
8, 96000, Note_on_c, 6, 58, 99
8, 96030, Note_on_c, 6, 58, 0
8, 96030, Note_on_c, 6, 58, 60
8, 96060, Note_on_c, 6, 58, 0
8, 96060, Note_on_c, 6, 60, 81
8, 96090, Note_on_c, 6, 60, 0
8, 96090, Note_on_c, 6, 60, 78
8, 96120, Note_on_c, 6, 60, 0
8, 96120, Note_on_c, 6, 58, 61
8, 96150, Note_on_c, 6, 58, 0
8, 96150, Note_on_c, 6, 58, 71
8, 96180, Note_on_c, 6, 58, 0
8, 96180, Note_on_c, 6, 60, 81
8, 96210, Note_on_c, 6, 60, 0
8, 96210, Note_on_c, 6, 60, 80
8, 96240, Note_on_c, 6, 60, 0
8, 96240, Note_on_c, 6, 58, 68
8, 96270, Note_on_c, 6, 58, 0
8, 96270, Note_on_c, 6, 58, 72
8, 96300, Note_on_c, 6, 58, 0
8, 96300, Note_on_c, 6, 60, 84
8, 96330, Note_on_c, 6, 60, 0
8, 96330, Note_on_c, 6, 60, 82
8, 96360, Note_on_c, 6, 60, 0
8, 96360, Note_on_c, 6, 58, 72
8, 96390, Note_on_c, 6, 58, 0
8, 96390, Note_on_c, 6, 58, 72
8, 96420, Note_on_c, 6, 58, 0
8, 96420, Note_on_c, 6, 60, 85
8, 96450, Note_on_c, 6, 60, 0
8, 96450, Note_on_c, 6, 60, 86
8, 96480, Note_on_c, 6, 60, 0
8, 96480, Note_on_c, 6, 57, 105
8, 96510, Note_on_c, 6, 57, 0
8, 96510, Note_on_c, 6, 63, 76
8, 96510, Note_on_c, 6, 60, 71
8, 96540, Note_on_c, 6, 60, 0
8, 96540, Note_on_c, 6, 63, 0
8, 96540, Note_on_c, 6, 63, 76
8, 96540, Note_on_c, 6, 60, 72
8, 96570, Note_on_c, 6, 60, 0
8, 96570, Note_on_c, 6, 63, 0
8, 96570, Note_on_c, 6, 63, 73
8, 96570, Note_on_c, 6, 60, 72
8, 96600, Note_on_c, 6, 60, 0
8, 96600, Note_on_c, 6, 63, 0
8, 96600, Note_on_c, 6, 63, 80
8, 96600, Note_on_c, 6, 60, 81
8, 96630, Note_on_c, 6, 60, 0
8, 96630, Note_on_c, 6, 63, 0
8, 96630, Note_on_c, 6, 63, 67
8, 96630, Note_on_c, 6, 60, 73
8, 96660, Note_on_c, 6, 60, 0
8, 96660, Note_on_c, 6, 63, 0
8, 96660, Note_on_c, 6, 63, 68
8, 96660, Note_on_c, 6, 60, 74
8, 96690, Note_on_c, 6, 60, 0
8, 96690, Note_on_c, 6, 63, 0
8, 96690, Note_on_c, 6, 63, 70
8, 96690, Note_on_c, 6, 60, 70
8, 96720, Note_on_c, 6, 60, 0
8, 96720, Note_on_c, 6, 63, 0
8, 96720, Note_on_c, 6, 63, 64
8, 96720, Note_on_c, 6, 60, 74
8, 96750, Note_on_c, 6, 60, 0
8, 96750, Note_on_c, 6, 63, 0
8, 96750, Note_on_c, 6, 63, 66
8, 96750, Note_on_c, 6, 60, 71
8, 96780, Note_on_c, 6, 60, 0
8, 96780, Note_on_c, 6, 63, 0
8, 96780, Note_on_c, 6, 63, 71
8, 96780, Note_on_c, 6, 60, 73
8, 96810, Note_on_c, 6, 60, 0
8, 96810, Note_on_c, 6, 63, 0
8, 96810, Note_on_c, 6, 63, 73
8, 96810, Note_on_c, 6, 60, 76
8, 96840, Note_on_c, 6, 60, 0
8, 96840, Note_on_c, 6, 63, 0
8, 96840, Note_on_c, 6, 63, 74
8, 96840, Note_on_c, 6, 60, 72
8, 96870, Note_on_c, 6, 60, 0
8, 96870, Note_on_c, 6, 63, 0
8, 96870, Note_on_c, 6, 63, 73
8, 96870, Note_on_c, 6, 60, 71
8, 96900, Note_on_c, 6, 60, 0
8, 96900, Note_on_c, 6, 63, 0
8, 96900, Note_on_c, 6, 63, 72
8, 96900, Note_on_c, 6, 60, 72
8, 96930, Note_on_c, 6, 60, 0
8, 96930, Note_on_c, 6, 63, 0
8, 96930, Note_on_c, 6, 63, 84
8, 96930, Note_on_c, 6, 60, 81
8, 96960, Note_on_c, 6, 60, 0
8, 96960, Note_on_c, 6, 63, 0
8, 96960, Note_on_c, 6, 72, 80
8, 96960, Note_on_c, 6, 63, 84
8, 97080, Note_on_c, 6, 63, 0
8, 97080, Note_on_c, 6, 72, 0
8, 97440, Note_on_c, 6, 60, 95
8, 97680, Note_on_c, 6, 60, 0
8, 97680, Note_on_c, 6, 58, 84
8, 97800, Note_on_c, 6, 58, 0
8, 97920, Note_on_c, 6, 64, 101
8, 98160, Note_on_c, 6, 64, 0
8, 98160, Note_on_c, 6, 65, 94
8, 98280, Note_on_c, 6, 65, 0
8, 98400, Note_on_c, 6, 68, 93
8, 98430, Note_on_c, 6, 68, 0
8, 98430, Note_on_c, 6, 68, 90
8, 98460, Note_on_c, 6, 68, 0
8, 98460, Note_on_c, 6, 68, 94
8, 98490, Note_on_c, 6, 68, 0
8, 98490, Note_on_c, 6, 68, 94
8, 98520, Note_on_c, 6, 68, 0
8, 98520, Note_on_c, 6, 68, 94
8, 98550, Note_on_c, 6, 68, 0
8, 98550, Note_on_c, 6, 68, 89
8, 98580, Note_on_c, 6, 68, 0
8, 98580, Note_on_c, 6, 68, 95
8, 98610, Note_on_c, 6, 68, 0
8, 98610, Note_on_c, 6, 68, 94
8, 98640, Note_on_c, 6, 68, 0
8, 98640, Note_on_c, 6, 74, 94
8, 98640, Note_on_c, 6, 67, 85
8, 98670, Note_on_c, 6, 67, 0
8, 98670, Note_on_c, 6, 74, 0
8, 98670, Note_on_c, 6, 74, 86
8, 98670, Note_on_c, 6, 67, 85
8, 98700, Note_on_c, 6, 67, 0
8, 98700, Note_on_c, 6, 74, 0
8, 98700, Note_on_c, 6, 74, 89
8, 98700, Note_on_c, 6, 67, 80
8, 98730, Note_on_c, 6, 67, 0
8, 98730, Note_on_c, 6, 74, 0
8, 98730, Note_on_c, 6, 74, 90
8, 98730, Note_on_c, 6, 67, 84
8, 98760, Note_on_c, 6, 67, 0
8, 98760, Note_on_c, 6, 74, 0
8, 98760, Note_on_c, 6, 74, 84
8, 98760, Note_on_c, 6, 67, 76
8, 98790, Note_on_c, 6, 67, 0
8, 98790, Note_on_c, 6, 74, 0
8, 98790, Note_on_c, 6, 74, 82
8, 98790, Note_on_c, 6, 67, 81
8, 98820, Note_on_c, 6, 67, 0
8, 98820, Note_on_c, 6, 74, 0
8, 98820, Note_on_c, 6, 74, 84
8, 98820, Note_on_c, 6, 67, 81
8, 98850, Note_on_c, 6, 67, 0
8, 98850, Note_on_c, 6, 74, 0
8, 98850, Note_on_c, 6, 74, 94
8, 98850, Note_on_c, 6, 67, 84
8, 98880, Note_on_c, 6, 67, 0
8, 98880, Note_on_c, 6, 74, 0
8, 98880, Note_on_c, 6, 69, 95
8, 98910, Note_on_c, 6, 69, 0
8, 98910, Note_on_c, 6, 69, 99
8, 98940, Note_on_c, 6, 69, 0
8, 98940, Note_on_c, 6, 69, 94
8, 98970, Note_on_c, 6, 69, 0
8, 98970, Note_on_c, 6, 69, 99
8, 99000, Note_on_c, 6, 69, 0
8, 99000, Note_on_c, 6, 69, 94
8, 99030, Note_on_c, 6, 69, 0
8, 99030, Note_on_c, 6, 69, 99
8, 99060, Note_on_c, 6, 69, 0
8, 99060, Note_on_c, 6, 69, 98
8, 99090, Note_on_c, 6, 69, 0
8, 99090, Note_on_c, 6, 69, 104
8, 99120, Note_on_c, 6, 69, 0
8, 99120, Note_on_c, 6, 70, 95
8, 99120, Note_on_c, 6, 67, 86
8, 99150, Note_on_c, 6, 67, 0
8, 99150, Note_on_c, 6, 70, 0
8, 99150, Note_on_c, 6, 70, 89
8, 99150, Note_on_c, 6, 67, 86
8, 99180, Note_on_c, 6, 67, 0
8, 99180, Note_on_c, 6, 70, 0
8, 99180, Note_on_c, 6, 70, 90
8, 99180, Note_on_c, 6, 67, 90
8, 99210, Note_on_c, 6, 67, 0
8, 99210, Note_on_c, 6, 70, 0
8, 99210, Note_on_c, 6, 70, 89
8, 99210, Note_on_c, 6, 67, 84
8, 99240, Note_on_c, 6, 67, 0
8, 99240, Note_on_c, 6, 70, 0
8, 99240, Note_on_c, 6, 70, 90
8, 99240, Note_on_c, 6, 67, 93
8, 99270, Note_on_c, 6, 67, 0
8, 99270, Note_on_c, 6, 70, 0
8, 99270, Note_on_c, 6, 70, 85
8, 99270, Note_on_c, 6, 67, 86
8, 99300, Note_on_c, 6, 67, 0
8, 99300, Note_on_c, 6, 70, 0
8, 99300, Note_on_c, 6, 70, 90
8, 99300, Note_on_c, 6, 67, 90
8, 99330, Note_on_c, 6, 67, 0
8, 99330, Note_on_c, 6, 70, 0
8, 99330, Note_on_c, 6, 70, 89
8, 99330, Note_on_c, 6, 67, 93
8, 99360, Note_on_c, 6, 67, 0
8, 99360, Note_on_c, 6, 70, 0
8, 99360, Note_on_c, 6, 69, 95
8, 99480, Note_on_c, 6, 69, 0
8, 99480, Note_on_c, 6, 60, 57
8, 99570, Note_on_c, 6, 60, 0
8, 99600, Note_on_c, 6, 60, 53
8, 99690, Note_on_c, 6, 60, 0
8, 99720, Note_on_c, 6, 60, 68
8, 99810, Note_on_c, 6, 60, 0
8, 99840, Note_on_c, 6, 58, 65
8, 99900, Note_on_c, 6, 58, 0
8, 99900, Note_on_c, 6, 60, 63
8, 99960, Note_on_c, 6, 60, 0
8, 99960, Note_on_c, 6, 58, 73
8, 100020, Note_on_c, 6, 58, 0
8, 100020, Note_on_c, 6, 60, 62
8, 100080, Note_on_c, 6, 60, 0
8, 100080, Note_on_c, 6, 58, 46
8, 100140, Note_on_c, 6, 58, 0
8, 100140, Note_on_c, 6, 60, 62
8, 100200, Note_on_c, 6, 60, 0
8, 100200, Note_on_c, 6, 58, 61
8, 100260, Note_on_c, 6, 58, 0
8, 100260, Note_on_c, 6, 60, 71
8, 100320, Note_on_c, 6, 60, 0
8, 100320, Note_on_c, 6, 57, 72
8, 100440, Note_on_c, 6, 57, 0
8, 100620, Note_on_c, 6, 57, 74
8, 100680, Note_on_c, 6, 57, 0
8, 100680, Note_on_c, 6, 60, 52
8, 100740, Note_on_c, 6, 60, 0
8, 100740, Note_on_c, 6, 57, 71
8, 100800, Note_on_c, 6, 57, 0
8, 100800, Note_on_c, 6, 58, 61
8, 100860, Note_on_c, 6, 58, 0
8, 100860, Note_on_c, 6, 60, 64
8, 100920, Note_on_c, 6, 60, 0
8, 100920, Note_on_c, 6, 58, 66
8, 100980, Note_on_c, 6, 58, 0
8, 100980, Note_on_c, 6, 60, 65
8, 101040, Note_on_c, 6, 60, 0
8, 101040, Note_on_c, 6, 58, 84
8, 101100, Note_on_c, 6, 58, 0
8, 101100, Note_on_c, 6, 60, 81
8, 101160, Note_on_c, 6, 60, 0
8, 101160, Note_on_c, 6, 58, 89
8, 101220, Note_on_c, 6, 58, 0
8, 101220, Note_on_c, 6, 60, 86
8, 101280, Note_on_c, 6, 60, 0
8, 101280, Note_on_c, 6, 57, 59
8, 101400, Note_on_c, 6, 57, 0
8, 101520, Note_on_c, 6, 77, 93
8, 101520, Note_on_c, 6, 69, 99
8, 101640, Note_on_c, 6, 69, 0
8, 101640, Note_on_c, 6, 77, 0
8, 101760, Note_on_c, 6, 65, 90
8, 101760, Note_on_c, 6, 57, 99
8, 101880, Note_on_c, 6, 57, 0
8, 101880, Note_on_c, 6, 65, 0
8, 104280, Note_on_c, 6, 60, 61
8, 104640, Note_on_c, 6, 60, 0
8, 104760, Note_on_c, 6, 60, 50
8, 105120, Note_on_c, 6, 60, 0
8, 105240, Note_on_c, 6, 62, 46
8, 105600, Note_on_c, 6, 62, 0
8, 105720, Note_on_c, 6, 62, 61
8, 106080, Note_on_c, 6, 62, 0
8, 106200, Note_on_c, 6, 67, 42
8, 106320, Note_on_c, 6, 67, 0
8, 106440, Note_on_c, 6, 67, 53
8, 106560, Note_on_c, 6, 67, 0
8, 106560, Note_on_c, 6, 66, 43
8, 106680, Note_on_c, 6, 66, 0
8, 106680, Note_on_c, 6, 62, 55
8, 106740, Note_on_c, 6, 62, 0
8, 106740, Note_on_c, 6, 64, 53
8, 106800, Note_on_c, 6, 64, 0
8, 106800, Note_on_c, 6, 66, 61
8, 106860, Note_on_c, 6, 66, 0
8, 106860, Note_on_c, 6, 67, 40
8, 106920, Note_on_c, 6, 67, 0
8, 106920, Note_on_c, 6, 69, 43
8, 106980, Note_on_c, 6, 69, 0
8, 106980, Note_on_c, 6, 66, 46
8, 107040, Note_on_c, 6, 66, 0
8, 107040, Note_on_c, 6, 67, 58
8, 107160, Note_on_c, 6, 67, 0
8, 107160, Note_on_c, 6, 70, 60
8, 107400, Note_on_c, 6, 70, 0
8, 107400, Note_on_c, 6, 69, 57
8, 107460, Note_on_c, 6, 69, 0
8, 107460, Note_on_c, 6, 67, 58
8, 107520, Note_on_c, 6, 67, 0
8, 107520, Note_on_c, 6, 66, 45
8, 107760, Note_on_c, 6, 66, 0
8, 107760, Note_on_c, 6, 72, 45
8, 108000, Note_on_c, 6, 72, 0
8, 108000, Note_on_c, 6, 70, 45
8, 108240, Note_on_c, 6, 70, 0
8, 108240, Note_on_c, 6, 76, 53
8, 108480, Note_on_c, 6, 76, 0
8, 108480, Note_on_c, 6, 69, 59
8, 108600, Note_on_c, 6, 69, 0
8, 108960, Note_on_c, 6, 62, 95
8, 109080, Note_on_c, 6, 62, 0
8, 109200, Note_on_c, 6, 62, 94
8, 109320, Note_on_c, 6, 62, 0
8, 109440, Note_on_c, 6, 62, 99
8, 109560, Note_on_c, 6, 62, 0
8, 109920, Note_on_c, 6, 63, 39
8, 110040, Note_on_c, 6, 63, 0
8, 110160, Note_on_c, 6, 63, 35
8, 110280, Note_on_c, 6, 63, 0
8, 110400, Note_on_c, 6, 63, 41
8, 110520, Note_on_c, 6, 63, 0
8, 110880, Note_on_c, 6, 63, 77
8, 110880, Note_on_c, 6, 55, 93
8, 111000, Note_on_c, 6, 55, 0
8, 111000, Note_on_c, 6, 63, 0
8, 111000, Note_on_c, 6, 63, 40
8, 111000, Note_on_c, 6, 55, 53
8, 111120, Note_on_c, 6, 55, 0
8, 111120, Note_on_c, 6, 63, 0
8, 111120, Note_on_c, 6, 63, 33
8, 111120, Note_on_c, 6, 55, 43
8, 111240, Note_on_c, 6, 55, 0
8, 111240, Note_on_c, 6, 63, 0
8, 111240, Note_on_c, 6, 63, 37
8, 111240, Note_on_c, 6, 55, 43
8, 111360, Note_on_c, 6, 55, 0
8, 111360, Note_on_c, 6, 63, 0
8, 111480, Note_on_c, 6, 63, 38
8, 111480, Note_on_c, 6, 55, 46
8, 111600, Note_on_c, 6, 55, 0
8, 111600, Note_on_c, 6, 63, 0
8, 111600, Note_on_c, 6, 63, 40
8, 111600, Note_on_c, 6, 55, 44
8, 111720, Note_on_c, 6, 55, 0
8, 111720, Note_on_c, 6, 63, 0
8, 111720, Note_on_c, 6, 63, 35
8, 111720, Note_on_c, 6, 55, 43
8, 111840, Note_on_c, 6, 55, 0
8, 111840, Note_on_c, 6, 63, 0
8, 111960, Note_on_c, 6, 65, 45
8, 111960, Note_on_c, 6, 56, 37
8, 112080, Note_on_c, 6, 56, 0
8, 112080, Note_on_c, 6, 65, 0
8, 112080, Note_on_c, 6, 65, 57
8, 112080, Note_on_c, 6, 56, 34
8, 112200, Note_on_c, 6, 56, 0
8, 112200, Note_on_c, 6, 65, 0
8, 112200, Note_on_c, 6, 65, 49
8, 112200, Note_on_c, 6, 56, 37
8, 112320, Note_on_c, 6, 56, 0
8, 112320, Note_on_c, 6, 65, 0
8, 112440, Note_on_c, 6, 62, 44
8, 112440, Note_on_c, 6, 56, 42
8, 112560, Note_on_c, 6, 56, 0
8, 112560, Note_on_c, 6, 62, 0
8, 112560, Note_on_c, 6, 62, 43
8, 112560, Note_on_c, 6, 56, 42
8, 112680, Note_on_c, 6, 56, 0
8, 112680, Note_on_c, 6, 62, 0
8, 112680, Note_on_c, 6, 62, 43
8, 112680, Note_on_c, 6, 56, 40
8, 112800, Note_on_c, 6, 56, 0
8, 112800, Note_on_c, 6, 62, 0
8, 112800, Note_on_c, 6, 63, 40
8, 112800, Note_on_c, 6, 55, 43
8, 112920, Note_on_c, 6, 55, 0
8, 112920, Note_on_c, 6, 63, 0
8, 114840, Note_on_c, 6, 65, 60
8, 114960, Note_on_c, 6, 65, 0
8, 114960, Note_on_c, 6, 65, 54
8, 115080, Note_on_c, 6, 65, 0
8, 115080, Note_on_c, 6, 65, 43
8, 115200, Note_on_c, 6, 65, 0
8, 115320, Note_on_c, 6, 63, 58
8, 115440, Note_on_c, 6, 63, 0
8, 115560, Note_on_c, 6, 63, 52
8, 115680, Note_on_c, 6, 63, 0
8, 115800, Note_on_c, 6, 63, 59
8, 115920, Note_on_c, 6, 63, 0
8, 115920, Note_on_c, 6, 63, 46
8, 116040, Note_on_c, 6, 63, 0
8, 116040, Note_on_c, 6, 63, 54
8, 116160, Note_on_c, 6, 63, 0
8, 116280, Note_on_c, 6, 62, 68
8, 116400, Note_on_c, 6, 62, 0
8, 116400, Note_on_c, 6, 62, 64
8, 116520, Note_on_c, 6, 62, 0
8, 116520, Note_on_c, 6, 62, 64
8, 116640, Note_on_c, 6, 62, 0
8, 116760, Note_on_c, 6, 63, 61
8, 116880, Note_on_c, 6, 63, 0
8, 117000, Note_on_c, 6, 65, 60
8, 117120, Note_on_c, 6, 65, 0
8, 117240, Note_on_c, 6, 63, 50
8, 117360, Note_on_c, 6, 63, 0
8, 117480, Note_on_c, 6, 62, 62
8, 117600, Note_on_c, 6, 62, 0
8, 117600, Note_on_c, 6, 63, 41
8, 117600, Note_on_c, 6, 55, 62
8, 117720, Note_on_c, 6, 55, 0
8, 117720, Note_on_c, 6, 63, 0
8, 118320, Note_on_c, 6, 58, 43
8, 118380, Note_on_c, 6, 58, 0
8, 118440, Note_on_c, 6, 58, 50
8, 118500, Note_on_c, 6, 58, 0
8, 118560, Note_on_c, 6, 63, 52
8, 118620, Note_on_c, 6, 63, 0
8, 119280, Note_on_c, 6, 67, 43
8, 119340, Note_on_c, 6, 67, 0
8, 119400, Note_on_c, 6, 67, 63
8, 119460, Note_on_c, 6, 67, 0
8, 119520, Note_on_c, 6, 67, 50
8, 119580, Note_on_c, 6, 67, 0
8, 120240, Note_on_c, 6, 62, 43
8, 120240, Note_on_c, 6, 59, 42
8, 120300, Note_on_c, 6, 59, 0
8, 120300, Note_on_c, 6, 62, 0
8, 120360, Note_on_c, 6, 62, 44
8, 120360, Note_on_c, 6, 59, 57
8, 120420, Note_on_c, 6, 59, 0
8, 120420, Note_on_c, 6, 62, 0
8, 120480, Note_on_c, 6, 62, 42
8, 120480, Note_on_c, 6, 59, 43
8, 120540, Note_on_c, 6, 59, 0
8, 120540, Note_on_c, 6, 62, 0
8, 121200, Note_on_c, 6, 62, 44
8, 121200, Note_on_c, 6, 59, 44
8, 121260, Note_on_c, 6, 59, 0
8, 121260, Note_on_c, 6, 62, 0
8, 121320, Note_on_c, 6, 62, 43
8, 121320, Note_on_c, 6, 59, 47
8, 121380, Note_on_c, 6, 59, 0
8, 121380, Note_on_c, 6, 62, 0
8, 121440, Note_on_c, 6, 60, 58
8, 121470, Note_on_c, 6, 60, 0
8, 121500, Note_on_c, 6, 60, 44
8, 121530, Note_on_c, 6, 60, 0
8, 121560, Note_on_c, 6, 60, 50
8, 121590, Note_on_c, 6, 60, 0
8, 121620, Note_on_c, 6, 60, 46
8, 121650, Note_on_c, 6, 60, 0
8, 121680, Note_on_c, 6, 60, 63
8, 121710, Note_on_c, 6, 60, 0
8, 121740, Note_on_c, 6, 60, 60
8, 121770, Note_on_c, 6, 60, 0
8, 121800, Note_on_c, 6, 60, 59
8, 121830, Note_on_c, 6, 60, 0
8, 121860, Note_on_c, 6, 59, 64
8, 121890, Note_on_c, 6, 59, 0
8, 121920, Note_on_c, 6, 60, 33
8, 122040, Note_on_c, 6, 60, 0
8, 122400, Note_on_c, 6, 59, 62
8, 122430, Note_on_c, 6, 59, 0
8, 122460, Note_on_c, 6, 59, 57
8, 122490, Note_on_c, 6, 59, 0
8, 122520, Note_on_c, 6, 59, 46
8, 122550, Note_on_c, 6, 59, 0
8, 122580, Note_on_c, 6, 59, 56
8, 122610, Note_on_c, 6, 59, 0
8, 122640, Note_on_c, 6, 59, 50
8, 122670, Note_on_c, 6, 59, 0
8, 122700, Note_on_c, 6, 59, 50
8, 122730, Note_on_c, 6, 59, 0
8, 122760, Note_on_c, 6, 59, 50
8, 122790, Note_on_c, 6, 59, 0
8, 122820, Note_on_c, 6, 60, 57
8, 122850, Note_on_c, 6, 60, 0
8, 122880, Note_on_c, 6, 59, 62
8, 123000, Note_on_c, 6, 59, 0
8, 123360, Note_on_c, 6, 58, 53
8, 123390, Note_on_c, 6, 58, 0
8, 123420, Note_on_c, 6, 58, 48
8, 123450, Note_on_c, 6, 58, 0
8, 123480, Note_on_c, 6, 58, 42
8, 123510, Note_on_c, 6, 58, 0
8, 123540, Note_on_c, 6, 58, 33
8, 123570, Note_on_c, 6, 58, 0
8, 123600, Note_on_c, 6, 58, 45
8, 123630, Note_on_c, 6, 58, 0
8, 123660, Note_on_c, 6, 58, 45
8, 123690, Note_on_c, 6, 58, 0
8, 123720, Note_on_c, 6, 58, 33
8, 123750, Note_on_c, 6, 58, 0
8, 123780, Note_on_c, 6, 58, 47
8, 123810, Note_on_c, 6, 58, 0
8, 123840, Note_on_c, 6, 58, 52
8, 123960, Note_on_c, 6, 58, 0
8, 124320, Note_on_c, 6, 67, 45
8, 124380, Note_on_c, 6, 67, 0
8, 124380, Note_on_c, 6, 67, 47
8, 124440, Note_on_c, 6, 67, 0
8, 124440, Note_on_c, 6, 67, 43
8, 124500, Note_on_c, 6, 67, 0
8, 124500, Note_on_c, 6, 67, 45
8, 124560, Note_on_c, 6, 67, 0
8, 124560, Note_on_c, 6, 67, 43
8, 124620, Note_on_c, 6, 67, 0
8, 124620, Note_on_c, 6, 67, 51
8, 124680, Note_on_c, 6, 67, 0
8, 124680, Note_on_c, 6, 67, 44
8, 124740, Note_on_c, 6, 67, 0
8, 124740, Note_on_c, 6, 65, 43
8, 124800, Note_on_c, 6, 65, 0
8, 124800, Note_on_c, 6, 64, 61
8, 124920, Note_on_c, 6, 64, 0
8, 126840, Note_on_c, 6, 70, 66
8, 126960, Note_on_c, 6, 70, 0
8, 127080, Note_on_c, 6, 70, 57
8, 127200, Note_on_c, 6, 70, 0
8, 127320, Note_on_c, 6, 70, 64
8, 127440, Note_on_c, 6, 70, 0
8, 127560, Note_on_c, 6, 70, 64
8, 127680, Note_on_c, 6, 70, 0
8, 127800, Note_on_c, 6, 70, 73
8, 127920, Note_on_c, 6, 70, 0
8, 128040, Note_on_c, 6, 58, 58
8, 128160, Note_on_c, 6, 58, 0
8, 128280, Note_on_c, 6, 58, 54
8, 128400, Note_on_c, 6, 58, 0
8, 128520, Note_on_c, 6, 58, 44
8, 128640, Note_on_c, 6, 58, 0
8, 128640, Note_on_c, 6, 57, 61
8, 128760, Note_on_c, 6, 57, 0
8, 129180, Note_on_c, 6, 65, 65
8, 129240, Note_on_c, 6, 65, 0
8, 129240, Note_on_c, 6, 70, 62
8, 129300, Note_on_c, 6, 70, 0
8, 129300, Note_on_c, 6, 73, 52
8, 129360, Note_on_c, 6, 73, 0
8, 129360, Note_on_c, 6, 77, 71
8, 129420, Note_on_c, 6, 77, 0
8, 129420, Note_on_c, 6, 73, 64
8, 129480, Note_on_c, 6, 73, 0
8, 129480, Note_on_c, 6, 72, 65
8, 129540, Note_on_c, 6, 72, 0
8, 129540, Note_on_c, 6, 70, 63
8, 129600, Note_on_c, 6, 70, 0
8, 129600, Note_on_c, 6, 69, 69
8, 129720, Note_on_c, 6, 69, 0
8, 130140, Note_on_c, 6, 65, 65
8, 130200, Note_on_c, 6, 65, 0
8, 130200, Note_on_c, 6, 70, 62
8, 130260, Note_on_c, 6, 70, 0
8, 130260, Note_on_c, 6, 73, 52
8, 130320, Note_on_c, 6, 73, 0
8, 130320, Note_on_c, 6, 77, 71
8, 130380, Note_on_c, 6, 77, 0
8, 130380, Note_on_c, 6, 73, 64
8, 130440, Note_on_c, 6, 73, 0
8, 130440, Note_on_c, 6, 72, 65
8, 130500, Note_on_c, 6, 72, 0
8, 130500, Note_on_c, 6, 70, 63
8, 130560, Note_on_c, 6, 70, 0
8, 130560, Note_on_c, 6, 69, 69
8, 130680, Note_on_c, 6, 69, 0
8, 131100, Note_on_c, 6, 65, 65
8, 131160, Note_on_c, 6, 65, 0
8, 131160, Note_on_c, 6, 70, 62
8, 131220, Note_on_c, 6, 70, 0
8, 131220, Note_on_c, 6, 73, 52
8, 131280, Note_on_c, 6, 73, 0
8, 131280, Note_on_c, 6, 77, 71
8, 131340, Note_on_c, 6, 77, 0
8, 131340, Note_on_c, 6, 73, 64
8, 131400, Note_on_c, 6, 73, 0
8, 131400, Note_on_c, 6, 72, 65
8, 131460, Note_on_c, 6, 72, 0
8, 131460, Note_on_c, 6, 70, 63
8, 131520, Note_on_c, 6, 70, 0
8, 131520, Note_on_c, 6, 69, 65
8, 131640, Note_on_c, 6, 69, 0
8, 131640, Note_on_c, 6, 69, 68
8, 131760, Note_on_c, 6, 69, 0
8, 131760, Note_on_c, 6, 70, 69
8, 131880, Note_on_c, 6, 70, 0
8, 132120, Note_on_c, 6, 69, 62
8, 132240, Note_on_c, 6, 69, 0
8, 132240, Note_on_c, 6, 70, 68
8, 132360, Note_on_c, 6, 70, 0
8, 132720, Note_on_c, 6, 60, 49
8, 132840, Note_on_c, 6, 60, 0
8, 132960, Note_on_c, 6, 63, 32
8, 133080, Note_on_c, 6, 63, 0
8, 133440, Note_on_c, 6, 69, 57
8, 133560, Note_on_c, 6, 69, 0
8, 133920, Note_on_c, 6, 72, 32
8, 134040, Note_on_c, 6, 72, 0
8, 134400, Note_on_c, 6, 57, 44
8, 134580, Note_on_c, 6, 57, 0
8, 134610, Note_on_c, 6, 57, 68
8, 134640, Note_on_c, 6, 57, 0
8, 134640, Note_on_c, 6, 63, 43
8, 134685, Note_on_c, 6, 63, 0
8, 134730, Note_on_c, 6, 63, 51
8, 134745, Note_on_c, 6, 63, 0
8, 134760, Note_on_c, 6, 60, 52
8, 134805, Note_on_c, 6, 60, 0
8, 134850, Note_on_c, 6, 60, 65
8, 134865, Note_on_c, 6, 60, 0
8, 134880, Note_on_c, 6, 57, 43
8, 135000, Note_on_c, 6, 57, 0
8, 135360, Note_on_c, 6, 57, 44
8, 135540, Note_on_c, 6, 57, 0
8, 135570, Note_on_c, 6, 57, 68
8, 135600, Note_on_c, 6, 57, 0
8, 135600, Note_on_c, 6, 63, 43
8, 135645, Note_on_c, 6, 63, 0
8, 135690, Note_on_c, 6, 63, 51
8, 135705, Note_on_c, 6, 63, 0
8, 135720, Note_on_c, 6, 60, 52
8, 135765, Note_on_c, 6, 60, 0
8, 135810, Note_on_c, 6, 60, 65
8, 135825, Note_on_c, 6, 60, 0
8, 135840, Note_on_c, 6, 57, 52
8, 135930, Note_on_c, 6, 57, 0
8, 135930, Note_on_c, 6, 57, 68
8, 135960, Note_on_c, 6, 57, 0
8, 135960, Note_on_c, 6, 60, 61
8, 136050, Note_on_c, 6, 60, 0
8, 136050, Note_on_c, 6, 60, 76
8, 136080, Note_on_c, 6, 60, 0
8, 136080, Note_on_c, 6, 63, 67
8, 136170, Note_on_c, 6, 63, 0
8, 136170, Note_on_c, 6, 63, 82
8, 136200, Note_on_c, 6, 63, 0
8, 136200, Note_on_c, 6, 69, 95
8, 136290, Note_on_c, 6, 69, 0
8, 136290, Note_on_c, 6, 69, 99
8, 136320, Note_on_c, 6, 69, 0
8, 136320, Note_on_c, 6, 82, 89
8, 136320, Note_on_c, 6, 70, 85
8, 136320, Note_on_c, 6, 62, 99
8, 136500, Note_on_c, 6, 62, 0
8, 136500, Note_on_c, 6, 70, 0
8, 136500, Note_on_c, 6, 82, 0
8, 136530, Note_on_c, 6, 58, 90
8, 136560, Note_on_c, 6, 58, 0
8, 136560, Note_on_c, 6, 65, 99
8, 136605, Note_on_c, 6, 65, 0
8, 136650, Note_on_c, 6, 65, 101
8, 136665, Note_on_c, 6, 65, 0
8, 136680, Note_on_c, 6, 62, 101
8, 136725, Note_on_c, 6, 62, 0
8, 136770, Note_on_c, 6, 62, 99
8, 136785, Note_on_c, 6, 62, 0
8, 136800, Note_on_c, 6, 58, 90
8, 136920, Note_on_c, 6, 58, 0
8, 137280, Note_on_c, 6, 63, 69
8, 137760, Note_on_c, 6, 63, 0
8, 137760, Note_on_c, 6, 63, 45
8, 137880, Note_on_c, 6, 63, 0
8, 138240, Note_on_c, 6, 72, 72
8, 138240, Note_on_c, 6, 65, 77
8, 138240, Note_on_c, 6, 57, 99
8, 138420, Note_on_c, 6, 57, 0
8, 138420, Note_on_c, 6, 65, 0
8, 138420, Note_on_c, 6, 72, 0
8, 138450, Note_on_c, 6, 65, 93
8, 138480, Note_on_c, 6, 65, 0
8, 138480, Note_on_c, 6, 72, 55
8, 138525, Note_on_c, 6, 72, 0
8, 138570, Note_on_c, 6, 72, 53
8, 138585, Note_on_c, 6, 72, 0
8, 138600, Note_on_c, 6, 69, 89
8, 138645, Note_on_c, 6, 69, 0
8, 138690, Note_on_c, 6, 69, 89
8, 138705, Note_on_c, 6, 69, 0
8, 138720, Note_on_c, 6, 65, 90
8, 138780, Note_on_c, 6, 65, 0
8, 138840, Note_on_c, 6, 63, 81
8, 138900, Note_on_c, 6, 63, 0
8, 138960, Note_on_c, 6, 60, 62
8, 139020, Note_on_c, 6, 60, 0
8, 139080, Note_on_c, 6, 57, 86
8, 139140, Note_on_c, 6, 57, 0
8, 139200, Note_on_c, 6, 58, 45
8, 139200, Note_on_c, 6, 65, 52
8, 139680, Note_on_c, 6, 65, 0
8, 139680, Note_on_c, 6, 58, 0
8, 139680, Note_on_c, 6, 65, 40
8, 139680, Note_on_c, 6, 58, 32
8, 139800, Note_on_c, 6, 58, 0
8, 139800, Note_on_c, 6, 65, 0
8, 140280, Note_on_c, 6, 65, 58
8, 140370, Note_on_c, 6, 65, 0
8, 140400, Note_on_c, 6, 65, 47
8, 140490, Note_on_c, 6, 65, 0
8, 140520, Note_on_c, 6, 65, 59
8, 140610, Note_on_c, 6, 65, 0
8, 140760, Note_on_c, 6, 67, 60
8, 140850, Note_on_c, 6, 67, 0
8, 140880, Note_on_c, 6, 67, 44
8, 140970, Note_on_c, 6, 67, 0
8, 141000, Note_on_c, 6, 67, 57
8, 141090, Note_on_c, 6, 67, 0
8, 141240, Note_on_c, 6, 63, 51
8, 141330, Note_on_c, 6, 63, 0
8, 141360, Note_on_c, 6, 63, 58
8, 141450, Note_on_c, 6, 63, 0
8, 141480, Note_on_c, 6, 63, 45
8, 141570, Note_on_c, 6, 63, 0
8, 141720, Note_on_c, 6, 62, 44
8, 141810, Note_on_c, 6, 62, 0
8, 141840, Note_on_c, 6, 62, 50
8, 141930, Note_on_c, 6, 62, 0
8, 141960, Note_on_c, 6, 62, 49
8, 142050, Note_on_c, 6, 62, 0
8, 142200, Note_on_c, 6, 65, 42
8, 142290, Note_on_c, 6, 65, 0
8, 142320, Note_on_c, 6, 65, 49
8, 142410, Note_on_c, 6, 65, 0
8, 142440, Note_on_c, 6, 65, 45
8, 142530, Note_on_c, 6, 65, 0
8, 142680, Note_on_c, 6, 67, 43
8, 142770, Note_on_c, 6, 67, 0
8, 142800, Note_on_c, 6, 67, 43
8, 142890, Note_on_c, 6, 67, 0
8, 142920, Note_on_c, 6, 67, 40
8, 143010, Note_on_c, 6, 67, 0
8, 143160, Note_on_c, 6, 63, 57
8, 143250, Note_on_c, 6, 63, 0
8, 143280, Note_on_c, 6, 63, 61
8, 143370, Note_on_c, 6, 63, 0
8, 143400, Note_on_c, 6, 63, 53
8, 143490, Note_on_c, 6, 63, 0
8, 143520, Note_on_c, 6, 62, 54
8, 143580, Note_on_c, 6, 62, 0
8, 143580, Note_on_c, 6, 65, 40
8, 143580, Note_on_c, 6, 58, 31
8, 143640, Note_on_c, 6, 58, 0
8, 143640, Note_on_c, 6, 65, 0
8, 143640, Note_on_c, 6, 65, 39
8, 143640, Note_on_c, 6, 58, 29
8, 143700, Note_on_c, 6, 58, 0
8, 143700, Note_on_c, 6, 65, 0
8, 143700, Note_on_c, 6, 65, 40
8, 143700, Note_on_c, 6, 58, 29
8, 143760, Note_on_c, 6, 58, 0
8, 143760, Note_on_c, 6, 65, 0
8, 143760, Note_on_c, 6, 65, 38
8, 143760, Note_on_c, 6, 58, 29
8, 143820, Note_on_c, 6, 58, 0
8, 143820, Note_on_c, 6, 65, 0
8, 143820, Note_on_c, 6, 65, 38
8, 143820, Note_on_c, 6, 58, 30
8, 143880, Note_on_c, 6, 58, 0
8, 143880, Note_on_c, 6, 65, 0
8, 143880, Note_on_c, 6, 65, 40
8, 143880, Note_on_c, 6, 58, 32
8, 143940, Note_on_c, 6, 58, 0
8, 143940, Note_on_c, 6, 65, 0
8, 143940, Note_on_c, 6, 65, 40
8, 143940, Note_on_c, 6, 58, 33
8, 144000, Note_on_c, 6, 58, 0
8, 144000, Note_on_c, 6, 65, 0
8, 144060, Note_on_c, 6, 65, 38
8, 144060, Note_on_c, 6, 58, 31
8, 144120, Note_on_c, 6, 58, 0
8, 144120, Note_on_c, 6, 65, 0
8, 144120, Note_on_c, 6, 65, 38
8, 144120, Note_on_c, 6, 58, 29
8, 144180, Note_on_c, 6, 58, 0
8, 144180, Note_on_c, 6, 65, 0
8, 144180, Note_on_c, 6, 65, 36
8, 144180, Note_on_c, 6, 58, 29
8, 144240, Note_on_c, 6, 58, 0
8, 144240, Note_on_c, 6, 65, 0
8, 144240, Note_on_c, 6, 65, 43
8, 144240, Note_on_c, 6, 58, 29
8, 144300, Note_on_c, 6, 58, 0
8, 144300, Note_on_c, 6, 65, 0
8, 144300, Note_on_c, 6, 65, 40
8, 144300, Note_on_c, 6, 58, 29
8, 144360, Note_on_c, 6, 58, 0
8, 144360, Note_on_c, 6, 65, 0
8, 144360, Note_on_c, 6, 65, 37
8, 144360, Note_on_c, 6, 58, 32
8, 144420, Note_on_c, 6, 58, 0
8, 144420, Note_on_c, 6, 65, 0
8, 144420, Note_on_c, 6, 65, 36
8, 144420, Note_on_c, 6, 58, 32
8, 144480, Note_on_c, 6, 58, 0
8, 144480, Note_on_c, 6, 65, 0
8, 144540, Note_on_c, 6, 65, 41
8, 144540, Note_on_c, 6, 57, 40
8, 144600, Note_on_c, 6, 57, 0
8, 144600, Note_on_c, 6, 65, 0
8, 144600, Note_on_c, 6, 65, 38
8, 144600, Note_on_c, 6, 57, 33
8, 144660, Note_on_c, 6, 57, 0
8, 144660, Note_on_c, 6, 65, 0
8, 144660, Note_on_c, 6, 65, 42
8, 144660, Note_on_c, 6, 57, 34
8, 144720, Note_on_c, 6, 57, 0
8, 144720, Note_on_c, 6, 65, 0
8, 144720, Note_on_c, 6, 65, 36
8, 144720, Note_on_c, 6, 57, 32
8, 144780, Note_on_c, 6, 57, 0
8, 144780, Note_on_c, 6, 65, 0
8, 144780, Note_on_c, 6, 65, 38
8, 144780, Note_on_c, 6, 57, 38
8, 144840, Note_on_c, 6, 57, 0
8, 144840, Note_on_c, 6, 65, 0
8, 144840, Note_on_c, 6, 65, 42
8, 144840, Note_on_c, 6, 57, 38
8, 144900, Note_on_c, 6, 57, 0
8, 144900, Note_on_c, 6, 65, 0
8, 144900, Note_on_c, 6, 57, 35
8, 144900, Note_on_c, 6, 65, 33
8, 144960, Note_on_c, 6, 65, 0
8, 144960, Note_on_c, 6, 57, 0
8, 145020, Note_on_c, 6, 65, 44
8, 145020, Note_on_c, 6, 57, 40
8, 145080, Note_on_c, 6, 57, 0
8, 145080, Note_on_c, 6, 65, 0
8, 145080, Note_on_c, 6, 65, 31
8, 145080, Note_on_c, 6, 57, 35
8, 145140, Note_on_c, 6, 57, 0
8, 145140, Note_on_c, 6, 65, 0
8, 145140, Note_on_c, 6, 65, 38
8, 145140, Note_on_c, 6, 57, 37
8, 145200, Note_on_c, 6, 57, 0
8, 145200, Note_on_c, 6, 65, 0
8, 145200, Note_on_c, 6, 65, 38
8, 145200, Note_on_c, 6, 57, 35
8, 145260, Note_on_c, 6, 57, 0
8, 145260, Note_on_c, 6, 65, 0
8, 145260, Note_on_c, 6, 65, 38
8, 145260, Note_on_c, 6, 57, 33
8, 145320, Note_on_c, 6, 57, 0
8, 145320, Note_on_c, 6, 65, 0
8, 145320, Note_on_c, 6, 65, 37
8, 145320, Note_on_c, 6, 57, 38
8, 145380, Note_on_c, 6, 57, 0
8, 145380, Note_on_c, 6, 65, 0
8, 145380, Note_on_c, 6, 57, 43
8, 145380, Note_on_c, 6, 65, 40
8, 145440, Note_on_c, 6, 65, 0
8, 145440, Note_on_c, 6, 57, 0
8, 145500, Note_on_c, 6, 65, 37
8, 145500, Note_on_c, 6, 58, 29
8, 145560, Note_on_c, 6, 58, 0
8, 145560, Note_on_c, 6, 65, 0
8, 145560, Note_on_c, 6, 65, 38
8, 145560, Note_on_c, 6, 58, 29
8, 145620, Note_on_c, 6, 58, 0
8, 145620, Note_on_c, 6, 65, 0
8, 145620, Note_on_c, 6, 65, 35
8, 145620, Note_on_c, 6, 58, 31
8, 145680, Note_on_c, 6, 58, 0
8, 145680, Note_on_c, 6, 65, 0
8, 145680, Note_on_c, 6, 65, 33
8, 145680, Note_on_c, 6, 58, 29
8, 145740, Note_on_c, 6, 58, 0
8, 145740, Note_on_c, 6, 65, 0
8, 145740, Note_on_c, 6, 65, 41
8, 145740, Note_on_c, 6, 58, 31
8, 145800, Note_on_c, 6, 58, 0
8, 145800, Note_on_c, 6, 65, 0
8, 145800, Note_on_c, 6, 65, 40
8, 145800, Note_on_c, 6, 58, 29
8, 145860, Note_on_c, 6, 58, 0
8, 145860, Note_on_c, 6, 65, 0
8, 145860, Note_on_c, 6, 58, 35
8, 145860, Note_on_c, 6, 65, 41
8, 145920, Note_on_c, 6, 65, 0
8, 145920, Note_on_c, 6, 58, 0
8, 145980, Note_on_c, 6, 65, 42
8, 145980, Note_on_c, 6, 58, 40
8, 146040, Note_on_c, 6, 58, 0
8, 146040, Note_on_c, 6, 65, 0
8, 146040, Note_on_c, 6, 65, 35
8, 146040, Note_on_c, 6, 58, 29
8, 146100, Note_on_c, 6, 58, 0
8, 146100, Note_on_c, 6, 65, 0
8, 146100, Note_on_c, 6, 65, 38
8, 146100, Note_on_c, 6, 58, 31
8, 146160, Note_on_c, 6, 58, 0
8, 146160, Note_on_c, 6, 65, 0
8, 146160, Note_on_c, 6, 65, 40
8, 146160, Note_on_c, 6, 58, 35
8, 146220, Note_on_c, 6, 58, 0
8, 146220, Note_on_c, 6, 65, 0
8, 146220, Note_on_c, 6, 65, 40
8, 146220, Note_on_c, 6, 58, 32
8, 146280, Note_on_c, 6, 58, 0
8, 146280, Note_on_c, 6, 65, 0
8, 146280, Note_on_c, 6, 65, 38
8, 146280, Note_on_c, 6, 58, 32
8, 146340, Note_on_c, 6, 58, 0
8, 146340, Note_on_c, 6, 65, 0
8, 146340, Note_on_c, 6, 58, 36
8, 146340, Note_on_c, 6, 65, 39
8, 146400, Note_on_c, 6, 65, 0
8, 146400, Note_on_c, 6, 58, 0
8, 146460, Note_on_c, 6, 64, 38
8, 146460, Note_on_c, 6, 55, 38
8, 146520, Note_on_c, 6, 55, 0
8, 146520, Note_on_c, 6, 64, 0
8, 146520, Note_on_c, 6, 64, 37
8, 146520, Note_on_c, 6, 55, 32
8, 146580, Note_on_c, 6, 55, 0
8, 146580, Note_on_c, 6, 64, 0
8, 146580, Note_on_c, 6, 64, 38
8, 146580, Note_on_c, 6, 55, 33
8, 146640, Note_on_c, 6, 55, 0
8, 146640, Note_on_c, 6, 64, 0
8, 146640, Note_on_c, 6, 64, 38
8, 146640, Note_on_c, 6, 55, 34
8, 146700, Note_on_c, 6, 55, 0
8, 146700, Note_on_c, 6, 64, 0
8, 146700, Note_on_c, 6, 64, 37
8, 146700, Note_on_c, 6, 55, 32
8, 146760, Note_on_c, 6, 55, 0
8, 146760, Note_on_c, 6, 64, 0
8, 146760, Note_on_c, 6, 64, 34
8, 146760, Note_on_c, 6, 55, 29
8, 146820, Note_on_c, 6, 55, 0
8, 146820, Note_on_c, 6, 64, 0
8, 146820, Note_on_c, 6, 55, 31
8, 146820, Note_on_c, 6, 64, 35
8, 146880, Note_on_c, 6, 64, 0
8, 146880, Note_on_c, 6, 55, 0
8, 146940, Note_on_c, 6, 58, 41
8, 147000, Note_on_c, 6, 58, 0
8, 147000, Note_on_c, 6, 58, 30
8, 147060, Note_on_c, 6, 58, 0
8, 147060, Note_on_c, 6, 58, 30
8, 147120, Note_on_c, 6, 58, 0
8, 147120, Note_on_c, 6, 58, 32
8, 147180, Note_on_c, 6, 58, 0
8, 147180, Note_on_c, 6, 58, 33
8, 147240, Note_on_c, 6, 58, 0
8, 147240, Note_on_c, 6, 58, 33
8, 147300, Note_on_c, 6, 58, 0
8, 147300, Note_on_c, 6, 58, 35
8, 147360, Note_on_c, 6, 58, 0
8, 147360, Note_on_c, 6, 57, 58
8, 147480, Note_on_c, 6, 57, 0
8, 147720, Note_on_c, 6, 58, 43
8, 147780, Note_on_c, 6, 58, 0
8, 147840, Note_on_c, 6, 57, 53
8, 147900, Note_on_c, 6, 57, 0
8, 148200, Note_on_c, 6, 67, 52
8, 148260, Note_on_c, 6, 67, 0
8, 148320, Note_on_c, 6, 65, 65
8, 148380, Note_on_c, 6, 65, 0
8, 148440, Note_on_c, 6, 67, 53
8, 148500, Note_on_c, 6, 67, 0
8, 148560, Note_on_c, 6, 65, 61
8, 148620, Note_on_c, 6, 65, 0
8, 148680, Note_on_c, 6, 76, 61
8, 148740, Note_on_c, 6, 76, 0
8, 148800, Note_on_c, 6, 77, 54
8, 148860, Note_on_c, 6, 77, 0
8, 148860, Note_on_c, 6, 79, 74
8, 148920, Note_on_c, 6, 79, 0
8, 148920, Note_on_c, 6, 75, 71
8, 148980, Note_on_c, 6, 75, 0
8, 148980, Note_on_c, 6, 77, 66
8, 149040, Note_on_c, 6, 77, 0
8, 149040, Note_on_c, 6, 74, 93
8, 149100, Note_on_c, 6, 74, 0
8, 149100, Note_on_c, 6, 75, 95
8, 149160, Note_on_c, 6, 75, 0
8, 149160, Note_on_c, 6, 72, 76
8, 149220, Note_on_c, 6, 72, 0
8, 149220, Note_on_c, 6, 74, 99
8, 149280, Note_on_c, 6, 74, 0
8, 149280, Note_on_c, 6, 70, 95
8, 149340, Control_c, 6, 7, 99
8, 149342, Control_c, 6, 7, 98
8, 149344, Control_c, 6, 7, 97
8, 149346, Control_c, 6, 7, 96
8, 149348, Control_c, 6, 7, 95
8, 149350, Control_c, 6, 7, 94
8, 149352, Control_c, 6, 7, 92
8, 149354, Control_c, 6, 7, 91
8, 149356, Control_c, 6, 7, 90
8, 149358, Control_c, 6, 7, 89
8, 149360, Control_c, 6, 7, 88
8, 149362, Control_c, 6, 7, 87
8, 149364, Control_c, 6, 7, 85
8, 149366, Control_c, 6, 7, 84
8, 149368, Control_c, 6, 7, 83
8, 149370, Control_c, 6, 7, 82
8, 149372, Control_c, 6, 7, 81
8, 149374, Control_c, 6, 7, 80
8, 149376, Control_c, 6, 7, 78
8, 149378, Control_c, 6, 7, 77
8, 149380, Control_c, 6, 7, 76
8, 149382, Control_c, 6, 7, 75
8, 149384, Control_c, 6, 7, 74
8, 149386, Control_c, 6, 7, 73
8, 149388, Control_c, 6, 7, 71
8, 149390, Control_c, 6, 7, 70
8, 149392, Control_c, 6, 7, 69
8, 149394, Control_c, 6, 7, 68
8, 149396, Control_c, 6, 7, 67
8, 149398, Control_c, 6, 7, 66
8, 149400, Note_on_c, 6, 70, 0
8, 149400, Control_c, 6, 7, 64
8, 149400, Note_on_c, 6, 74, 104
8, 149520, Note_on_c, 6, 74, 0
8, 149520, Note_on_c, 6, 75, 99
8, 149640, Note_on_c, 6, 75, 0
8, 149640, Note_on_c, 6, 69, 101
8, 149760, Note_on_c, 6, 69, 0
8, 149760, Note_on_c, 6, 70, 59
8, 149760, Control_c, 6, 7, 99
8, 149880, Note_on_c, 6, 70, 0
8, 150000, Note_on_c, 6, 67, 43
8, 150060, Note_on_c, 6, 67, 0
8, 150060, Note_on_c, 6, 65, 57
8, 150120, Note_on_c, 6, 65, 0
8, 150120, Note_on_c, 6, 63, 58
8, 150180, Note_on_c, 6, 63, 0
8, 150180, Note_on_c, 6, 62, 49
8, 150240, Note_on_c, 6, 62, 0
8, 150240, Note_on_c, 6, 60, 44
8, 150300, Note_on_c, 6, 60, 0
8, 150360, Note_on_c, 6, 67, 48
8, 150420, Note_on_c, 6, 67, 0
8, 150480, Note_on_c, 6, 67, 43
8, 150540, Note_on_c, 6, 67, 0
8, 150600, Note_on_c, 6, 67, 53
8, 150660, Note_on_c, 6, 67, 0
8, 150720, Note_on_c, 6, 71, 95
8, 150960, Note_on_c, 6, 71, 0
8, 150960, Note_on_c, 6, 72, 29
8, 151080, Note_on_c, 6, 72, 0
8, 151200, Note_on_c, 6, 63, 99
8, 151260, Control_c, 6, 7, 99
8, 151262, Control_c, 6, 7, 98
8, 151264, Control_c, 6, 7, 97
8, 151266, Control_c, 6, 7, 96
8, 151268, Control_c, 6, 7, 95
8, 151270, Control_c, 6, 7, 94
8, 151272, Control_c, 6, 7, 92
8, 151274, Control_c, 6, 7, 91
8, 151276, Control_c, 6, 7, 90
8, 151278, Control_c, 6, 7, 89
8, 151280, Control_c, 6, 7, 88
8, 151282, Control_c, 6, 7, 87
8, 151284, Control_c, 6, 7, 85
8, 151286, Control_c, 6, 7, 84
8, 151288, Control_c, 6, 7, 83
8, 151290, Control_c, 6, 7, 82
8, 151292, Control_c, 6, 7, 81
8, 151294, Control_c, 6, 7, 80
8, 151296, Control_c, 6, 7, 78
8, 151298, Control_c, 6, 7, 77
8, 151300, Control_c, 6, 7, 76
8, 151302, Control_c, 6, 7, 75
8, 151304, Control_c, 6, 7, 74
8, 151306, Control_c, 6, 7, 73
8, 151308, Control_c, 6, 7, 71
8, 151310, Control_c, 6, 7, 70
8, 151312, Control_c, 6, 7, 69
8, 151314, Control_c, 6, 7, 68
8, 151316, Control_c, 6, 7, 67
8, 151318, Control_c, 6, 7, 66
8, 151320, Note_on_c, 6, 63, 0
8, 151320, Control_c, 6, 7, 64
8, 151320, Note_on_c, 6, 65, 95
8, 151560, Note_on_c, 6, 65, 0
8, 151560, Note_on_c, 6, 65, 99
8, 151800, Note_on_c, 6, 65, 0
8, 151920, Control_c, 6, 7, 99
8, 152040, Note_on_c, 6, 67, 43
8, 152070, Note_on_c, 6, 67, 0
8, 152100, Note_on_c, 6, 65, 61
8, 152130, Note_on_c, 6, 65, 0
8, 152160, Note_on_c, 6, 64, 57
8, 152220, Note_on_c, 6, 64, 0
8, 152220, Note_on_c, 6, 65, 54
8, 152280, Note_on_c, 6, 65, 0
8, 152280, Note_on_c, 6, 60, 50
8, 152310, Note_on_c, 6, 60, 0
8, 152340, Note_on_c, 6, 65, 43
8, 152370, Note_on_c, 6, 65, 0
8, 152400, Note_on_c, 6, 63, 52
8, 152460, Note_on_c, 6, 63, 0
8, 152460, Note_on_c, 6, 62, 73
8, 152520, Note_on_c, 6, 62, 0
8, 152520, Note_on_c, 6, 60, 59
8, 152550, Note_on_c, 6, 60, 0
8, 152580, Note_on_c, 6, 58, 66
8, 152610, Note_on_c, 6, 58, 0
8, 152640, Control_c, 6, 7, 99
8, 152640, Note_on_c, 6, 58, 68
8, 152648, Control_c, 6, 7, 100
8, 152654, Control_c, 6, 7, 101
8, 152662, Control_c, 6, 7, 102
8, 152668, Control_c, 6, 7, 103
8, 152674, Control_c, 6, 7, 104
8, 152682, Control_c, 6, 7, 105
8, 152688, Control_c, 6, 7, 106
8, 152694, Control_c, 6, 7, 107
8, 152702, Control_c, 6, 7, 108
8, 152708, Control_c, 6, 7, 109
8, 152716, Control_c, 6, 7, 110
8, 152722, Control_c, 6, 7, 111
8, 152728, Control_c, 6, 7, 112
8, 152736, Control_c, 6, 7, 113
8, 152742, Control_c, 6, 7, 114
8, 152748, Control_c, 6, 7, 115
8, 152756, Control_c, 6, 7, 116
8, 152762, Control_c, 6, 7, 117
8, 152770, Control_c, 6, 7, 118
8, 152776, Control_c, 6, 7, 119
8, 152782, Control_c, 6, 7, 120
8, 152790, Control_c, 6, 7, 121
8, 152796, Control_c, 6, 7, 122
8, 152802, Control_c, 6, 7, 123
8, 152810, Control_c, 6, 7, 124
8, 152816, Control_c, 6, 7, 125
8, 152822, Control_c, 6, 7, 126
8, 152830, Control_c, 6, 7, 125
8, 152836, Control_c, 6, 7, 124
8, 152842, Control_c, 6, 7, 123
8, 152850, Control_c, 6, 7, 122
8, 152856, Control_c, 6, 7, 121
8, 152862, Control_c, 6, 7, 120
8, 152870, Control_c, 6, 7, 119
8, 152876, Control_c, 6, 7, 118
8, 152880, Note_on_c, 6, 58, 0
8, 152880, Note_on_c, 6, 57, 72
8, 152882, Control_c, 6, 7, 117
8, 152888, Control_c, 6, 7, 116
8, 152896, Control_c, 6, 7, 115
8, 152902, Control_c, 6, 7, 114
8, 152908, Control_c, 6, 7, 113
8, 152916, Control_c, 6, 7, 112
8, 152922, Control_c, 6, 7, 111
8, 152928, Control_c, 6, 7, 110
8, 152936, Control_c, 6, 7, 109
8, 152942, Control_c, 6, 7, 108
8, 152948, Control_c, 6, 7, 107
8, 152954, Control_c, 6, 7, 106
8, 152962, Control_c, 6, 7, 105
8, 152968, Control_c, 6, 7, 104
8, 152974, Control_c, 6, 7, 103
8, 152982, Control_c, 6, 7, 102
8, 152988, Control_c, 6, 7, 101
8, 152994, Control_c, 6, 7, 100
8, 153000, Note_on_c, 6, 57, 0
8, 153000, Control_c, 6, 7, 99
8, 153240, Note_on_c, 6, 62, 56
8, 153360, Note_on_c, 6, 62, 0
8, 153480, Note_on_c, 6, 63, 43
8, 153600, Note_on_c, 6, 63, 0
8, 153720, Note_on_c, 6, 62, 62
8, 153840, Note_on_c, 6, 62, 0
8, 155160, Note_on_c, 6, 65, 43
8, 155280, Note_on_c, 6, 65, 0
8, 155400, Note_on_c, 6, 65, 43
8, 155520, Note_on_c, 6, 65, 0
8, 155640, Note_on_c, 6, 65, 62
8, 155760, Note_on_c, 6, 65, 0
8, 156120, Note_on_c, 6, 63, 68
8, 156180, Note_on_c, 6, 63, 0
8, 156180, Note_on_c, 6, 60, 59
8, 156240, Note_on_c, 6, 60, 0
8, 156240, Note_on_c, 6, 58, 64
8, 156300, Note_on_c, 6, 58, 0
8, 156300, Note_on_c, 6, 62, 56
8, 156360, Note_on_c, 6, 62, 0
8, 156360, Note_on_c, 6, 60, 60
8, 156420, Note_on_c, 6, 60, 0
8, 156420, Note_on_c, 6, 57, 65
8, 156480, Note_on_c, 6, 57, 0
8, 156480, Note_on_c, 6, 58, 46
8, 156600, Note_on_c, 6, 58, 0
8, 157800, Note_on_c, 6, 70, 62
8, 157980, Note_on_c, 6, 70, 0
8, 158040, Note_on_c, 6, 70, 57
8, 158100, Note_on_c, 6, 70, 0
8, 158280, Note_on_c, 6, 70, 59
8, 158460, Note_on_c, 6, 70, 0
8, 158520, Note_on_c, 6, 70, 67
8, 158580, Note_on_c, 6, 70, 0
8, 159360, Note_on_c, 6, 58, 38
8, 159840, Note_on_c, 6, 58, 0
8, 159840, Note_on_c, 6, 59, 35
8, 160320, Note_on_c, 6, 59, 0
8, 160320, Note_on_c, 6, 58, 32
8, 160800, Note_on_c, 6, 58, 0
8, 160800, Note_on_c, 6, 59, 38
8, 161280, Note_on_c, 6, 59, 0
8, 161280, Note_on_c, 6, 58, 36
8, 161400, Note_on_c, 6, 58, 0
8, 161400, Note_on_c, 6, 61, 38
8, 161520, Note_on_c, 6, 61, 0
8, 161640, Note_on_c, 6, 61, 34
8, 161760, Note_on_c, 6, 61, 0
8, 161880, Note_on_c, 6, 61, 35
8, 162000, Note_on_c, 6, 61, 0
8, 162120, Note_on_c, 6, 63, 41
8, 162240, Note_on_c, 6, 63, 0
8, 162360, Note_on_c, 6, 61, 50
8, 162480, Note_on_c, 6, 61, 0
8, 162600, Note_on_c, 6, 64, 45
8, 162720, Note_on_c, 6, 64, 0
8, 162840, Note_on_c, 6, 65, 55
8, 162960, Note_on_c, 6, 65, 0
8, 163080, Note_on_c, 6, 63, 40
8, 163200, Note_on_c, 6, 63, 0
8, 163200, Note_on_c, 6, 62, 69
8, 163230, Note_on_c, 6, 62, 0
8, 163260, Note_on_c, 6, 70, 57
8, 163290, Note_on_c, 6, 70, 0
8, 163320, Note_on_c, 6, 70, 67
8, 163350, Note_on_c, 6, 70, 0
8, 163380, Note_on_c, 6, 70, 70
8, 163410, Note_on_c, 6, 70, 0
8, 163440, Note_on_c, 6, 72, 77
8, 163680, Note_on_c, 6, 72, 0
8, 163680, Note_on_c, 6, 70, 76
8, 163710, Note_on_c, 6, 70, 0
8, 163740, Note_on_c, 6, 65, 57
8, 163770, Note_on_c, 6, 65, 0
8, 163800, Note_on_c, 6, 65, 65
8, 163830, Note_on_c, 6, 65, 0
8, 163860, Note_on_c, 6, 65, 69
8, 163890, Note_on_c, 6, 65, 0
8, 163920, Note_on_c, 6, 63, 84
8, 164160, Note_on_c, 6, 63, 0
8, 164160, Note_on_c, 6, 62, 65
8, 164220, Note_on_c, 6, 62, 0
8, 164220, Note_on_c, 6, 70, 57
8, 164280, Note_on_c, 6, 70, 0
8, 164280, Note_on_c, 6, 70, 56
8, 164340, Note_on_c, 6, 70, 0
8, 164340, Note_on_c, 6, 70, 55
8, 164400, Note_on_c, 6, 70, 0
8, 164400, Note_on_c, 6, 72, 58
8, 164460, Note_on_c, 6, 72, 0
8, 164460, Note_on_c, 6, 72, 76
8, 164520, Note_on_c, 6, 72, 0
8, 164520, Note_on_c, 6, 72, 76
8, 164580, Note_on_c, 6, 72, 0
8, 164580, Note_on_c, 6, 72, 71
8, 164640, Note_on_c, 6, 72, 0
8, 164640, Note_on_c, 6, 70, 56
8, 164700, Note_on_c, 6, 70, 0
8, 164700, Note_on_c, 6, 65, 67
8, 164760, Note_on_c, 6, 65, 0
8, 164760, Note_on_c, 6, 65, 72
8, 164820, Note_on_c, 6, 65, 0
8, 164820, Note_on_c, 6, 65, 69
8, 164880, Note_on_c, 6, 65, 0
8, 164880, Note_on_c, 6, 63, 43
8, 164940, Note_on_c, 6, 63, 0
8, 164940, Note_on_c, 6, 63, 63
8, 165000, Note_on_c, 6, 63, 0
8, 165000, Note_on_c, 6, 63, 64
8, 165060, Note_on_c, 6, 63, 0
8, 165060, Note_on_c, 6, 63, 64
8, 165120, Note_on_c, 6, 63, 0
8, 165120, Note_on_c, 6, 60, 46
8, 165240, Note_on_c, 6, 60, 0
8, 168000, Note_on_c, 6, 57, 61
8, 168030, Note_on_c, 6, 57, 0
8, 168060, Note_on_c, 6, 58, 51
8, 168090, Note_on_c, 6, 58, 0
8, 168120, Note_on_c, 6, 57, 84
8, 168150, Note_on_c, 6, 57, 0
8, 168180, Note_on_c, 6, 58, 63
8, 168210, Note_on_c, 6, 58, 0
8, 168240, Note_on_c, 6, 60, 65
8, 168270, Note_on_c, 6, 60, 0
8, 168300, Note_on_c, 6, 62, 68
8, 168330, Note_on_c, 6, 62, 0
8, 168360, Note_on_c, 6, 63, 71
8, 168390, Note_on_c, 6, 63, 0
8, 168420, Note_on_c, 6, 60, 63
8, 168450, Note_on_c, 6, 60, 0
8, 168480, Note_on_c, 6, 62, 60
8, 168600, Note_on_c, 6, 62, 0
8, 168720, Note_on_c, 6, 60, 60
8, 168840, Note_on_c, 6, 60, 0
8, 168960, Note_on_c, 6, 58, 57
8, 169080, Note_on_c, 6, 58, 0
8, 171480, Note_on_c, 6, 67, 62
8, 171600, Note_on_c, 6, 67, 0
8, 171720, Note_on_c, 6, 65, 56
8, 171840, Note_on_c, 6, 65, 0
8, 171960, Note_on_c, 6, 63, 94
8, 172200, Note_on_c, 6, 63, 0
8, 172200, Note_on_c, 6, 65, 71
8, 172320, Note_on_c, 6, 65, 0
8, 172440, Note_on_c, 6, 67, 63
8, 172560, Note_on_c, 6, 67, 0
8, 172680, Note_on_c, 6, 65, 54
8, 172800, Note_on_c, 6, 65, 0
8, 172920, Note_on_c, 6, 63, 65
8, 173160, Note_on_c, 6, 63, 0
8, 173160, Note_on_c, 6, 63, 67
8, 173280, Note_on_c, 6, 63, 0
8, 173400, Note_on_c, 6, 73, 58
8, 173640, Note_on_c, 6, 73, 0
8, 173640, Note_on_c, 6, 73, 41
8, 173760, Note_on_c, 6, 73, 0
8, 173760, Note_on_c, 6, 73, 64
8, 173880, Note_on_c, 6, 73, 0
8, 174000, Note_on_c, 6, 61, 89
8, 174240, Note_on_c, 6, 61, 0
8, 174240, Note_on_c, 6, 62, 95
8, 174300, Note_on_c, 6, 62, 0
8, 174960, Note_on_c, 6, 61, 95
8, 175200, Note_on_c, 6, 61, 0
8, 175200, Note_on_c, 6, 62, 95
8, 175260, Note_on_c, 6, 62, 0
8, 175920, Note_on_c, 6, 61, 94
8, 176160, Note_on_c, 6, 61, 0
8, 176160, Note_on_c, 6, 62, 99
8, 176220, Note_on_c, 6, 62, 0
8, 181080, Note_on_c, 6, 58, 54
8, 181140, Note_on_c, 6, 58, 0
8, 181200, Note_on_c, 6, 62, 59
8, 181560, Note_on_c, 6, 62, 0
8, 181560, Note_on_c, 6, 62, 67
8, 181620, Note_on_c, 6, 62, 0
8, 181680, Note_on_c, 6, 65, 73
8, 182040, Note_on_c, 6, 65, 0
8, 182040, Note_on_c, 6, 65, 65
8, 182100, Note_on_c, 6, 65, 0
8, 182160, Note_on_c, 6, 70, 69
8, 182220, Note_on_c, 6, 70, 0
8, 182280, Note_on_c, 6, 74, 80
8, 182340, Note_on_c, 6, 74, 0
8, 182400, Note_on_c, 6, 77, 78
8, 182460, Note_on_c, 6, 77, 0
8, 182940, Note_on_c, 6, 63, 62
8, 183000, Note_on_c, 6, 63, 0
8, 183000, Note_on_c, 6, 63, 58
8, 183060, Note_on_c, 6, 63, 0
8, 183060, Note_on_c, 6, 63, 54
8, 183120, Note_on_c, 6, 63, 0
8, 183120, Note_on_c, 6, 63, 62
8, 183180, Note_on_c, 6, 63, 0
8, 183180, Note_on_c, 6, 63, 58
8, 183240, Note_on_c, 6, 63, 0
8, 183240, Note_on_c, 6, 63, 57
8, 183300, Note_on_c, 6, 63, 0
8, 183300, Note_on_c, 6, 63, 56
8, 183360, Note_on_c, 6, 63, 0
8, 183360, Note_on_c, 6, 72, 42
8, 183420, Note_on_c, 6, 72, 0
8, 183420, Note_on_c, 6, 72, 43
8, 183480, Note_on_c, 6, 72, 0
8, 183480, Note_on_c, 6, 72, 49
8, 183540, Note_on_c, 6, 72, 0
8, 183540, Note_on_c, 6, 72, 73
8, 183600, Note_on_c, 6, 72, 0
8, 183600, Note_on_c, 6, 72, 71
8, 183660, Note_on_c, 6, 72, 0
8, 183660, Note_on_c, 6, 72, 74
8, 183720, Note_on_c, 6, 72, 0
8, 183720, Note_on_c, 6, 72, 71
8, 183780, Note_on_c, 6, 72, 0
8, 183780, Note_on_c, 6, 72, 67
8, 183840, Note_on_c, 6, 72, 0
8, 183840, Note_on_c, 6, 70, 104
8, 183870, Note_on_c, 6, 70, 0
8, 183900, Note_on_c, 6, 70, 99
8, 183930, Note_on_c, 6, 70, 0
8, 183960, Note_on_c, 6, 70, 98
8, 183990, Note_on_c, 6, 70, 0
8, 184020, Note_on_c, 6, 70, 104
8, 184050, Note_on_c, 6, 70, 0
8, 184080, Note_on_c, 6, 70, 104
8, 184140, Note_on_c, 6, 70, 0
8, 184140, Note_on_c, 6, 72, 85
8, 184200, Note_on_c, 6, 72, 0
8, 184200, Note_on_c, 6, 74, 95
8, 184230, Note_on_c, 6, 74, 0
8, 184260, Note_on_c, 6, 70, 94
8, 184290, Note_on_c, 6, 70, 0
8, 184320, Note_on_c, 6, 69, 99
8, 184500, Note_on_c, 6, 69, 0
8, 184530, Note_on_c, 6, 68, 94
8, 184560, Note_on_c, 6, 68, 0
8, 184560, Note_on_c, 6, 72, 112
8, 184605, Note_on_c, 6, 72, 0
8, 184650, Note_on_c, 6, 72, 89
8, 184673, Note_on_c, 6, 72, 0
8, 184680, Note_on_c, 6, 68, 99
8, 184725, Note_on_c, 6, 68, 0
8, 184770, Note_on_c, 6, 68, 99
8, 184793, Note_on_c, 6, 68, 0
8, 184800, Note_on_c, 6, 67, 95
8, 184830, Note_on_c, 6, 67, 0
8, 184860, Note_on_c, 6, 72, 93
8, 184890, Note_on_c, 6, 72, 0
8, 184920, Note_on_c, 6, 72, 94
8, 184950, Note_on_c, 6, 72, 0
8, 184980, Note_on_c, 6, 72, 94
8, 185010, Note_on_c, 6, 72, 0
8, 185040, Note_on_c, 6, 72, 112
8, 185100, Note_on_c, 6, 72, 0
8, 185100, Note_on_c, 6, 74, 105
8, 185160, Note_on_c, 6, 74, 0
8, 185160, Note_on_c, 6, 75, 101
8, 185190, Note_on_c, 6, 75, 0
8, 185220, Note_on_c, 6, 72, 101
8, 185250, Note_on_c, 6, 72, 0
8, 185280, Note_on_c, 6, 71, 99
8, 185460, Note_on_c, 6, 71, 0
8, 185490, Note_on_c, 6, 70, 98
8, 185520, Note_on_c, 6, 70, 0
8, 185520, Note_on_c, 6, 74, 119
8, 185565, Note_on_c, 6, 74, 0
8, 185610, Note_on_c, 6, 74, 104
8, 185633, Note_on_c, 6, 74, 0
8, 185640, Note_on_c, 6, 70, 95
8, 185685, Note_on_c, 6, 70, 0
8, 185730, Note_on_c, 6, 70, 99
8, 185753, Note_on_c, 6, 70, 0
8, 185760, Note_on_c, 6, 69, 86
8, 185760, Note_on_c, 6, 66, 89
8, 185940, Note_on_c, 6, 66, 0
8, 185940, Note_on_c, 6, 69, 0
8, 185970, Note_on_c, 6, 66, 99
8, 185985, Note_on_c, 6, 66, 0
8, 186000, Note_on_c, 6, 67, 99
8, 186090, Note_on_c, 6, 67, 0
8, 186210, Note_on_c, 6, 67, 98
8, 186225, Note_on_c, 6, 67, 0
8, 186240, Note_on_c, 6, 64, 104
8, 186330, Note_on_c, 6, 64, 0
8, 186450, Note_on_c, 6, 64, 105
8, 186465, Note_on_c, 6, 64, 0
8, 186480, Note_on_c, 6, 65, 104
8, 186570, Note_on_c, 6, 65, 0
8, 186690, Note_on_c, 6, 65, 105
8, 186705, Note_on_c, 6, 65, 0
8, 186720, Note_on_c, 6, 62, 98
8, 186780, Note_on_c, 6, 62, 0
8, 186840, Note_on_c, 6, 70, 125
8, 187080, Note_on_c, 6, 70, 0
8, 187080, Note_on_c, 6, 64, 105
8, 187140, Note_on_c, 6, 64, 0
8, 187200, Note_on_c, 6, 69, 105
8, 187260, Note_on_c, 6, 69, 0
8, 187320, Note_on_c, 6, 62, 119
8, 187380, Note_on_c, 6, 62, 0
8, 187440, Note_on_c, 6, 67, 94
8, 187500, Note_on_c, 6, 67, 0
8, 187560, Note_on_c, 6, 60, 125
8, 187620, Note_on_c, 6, 60, 0
8, 187680, Note_on_c, 6, 58, 90
8, 187740, Note_on_c, 6, 58, 0
8, 187800, Note_on_c, 6, 60, 119
8, 188040, Note_on_c, 6, 60, 0
8, 188040, Note_on_c, 6, 61, 119
8, 188280, Note_on_c, 6, 61, 0
8, 188280, Note_on_c, 6, 62, 95
8, 188340, Note_on_c, 6, 62, 0
8, 188400, Note_on_c, 6, 63, 89
8, 188460, Note_on_c, 6, 63, 0
8, 188520, Note_on_c, 6, 64, 99
8, 188580, Note_on_c, 6, 64, 0
8, 188640, Note_on_c, 6, 65, 107
8, 188640, Note_on_c, 6, 59, 43
8, 188640, Note_on_c, 6, 58, 115
8, 188880, Note_on_c, 6, 58, 0
8, 188880, Note_on_c, 6, 59, 0
8, 188880, Note_on_c, 6, 65, 0
8, 229440, Note_on_c, 6, 70, 80
8, 229440, Note_on_c, 6, 62, 98
8, 229560, Note_on_c, 6, 62, 0
8, 229560, Note_on_c, 6, 70, 0
8, 229560, Note_on_c, 6, 62, 59
8, 229650, Note_on_c, 6, 62, 0
8, 229680, Note_on_c, 6, 62, 68
8, 229770, Note_on_c, 6, 62, 0
8, 229800, Note_on_c, 6, 62, 60
8, 229890, Note_on_c, 6, 62, 0
8, 229920, Note_on_c, 6, 63, 71
8, 229980, Note_on_c, 6, 63, 0
8, 229980, Note_on_c, 6, 65, 73
8, 230040, Note_on_c, 6, 65, 0
8, 230040, Note_on_c, 6, 63, 66
8, 230100, Note_on_c, 6, 63, 0
8, 230100, Note_on_c, 6, 65, 74
8, 230160, Note_on_c, 6, 65, 0
8, 230160, Note_on_c, 6, 63, 54
8, 230220, Note_on_c, 6, 63, 0
8, 230220, Note_on_c, 6, 65, 67
8, 230280, Note_on_c, 6, 65, 0
8, 230280, Note_on_c, 6, 63, 73
8, 230340, Note_on_c, 6, 63, 0
8, 230340, Note_on_c, 6, 65, 78
8, 230400, Note_on_c, 6, 65, 0
8, 230400, Note_on_c, 6, 62, 69
8, 230520, Note_on_c, 6, 62, 0
8, 230880, Note_on_c, 6, 60, 63
8, 230940, Note_on_c, 6, 60, 0
8, 230940, Note_on_c, 6, 57, 93
8, 231000, Note_on_c, 6, 57, 0
8, 231000, Note_on_c, 6, 60, 81
8, 231060, Note_on_c, 6, 60, 0
8, 231060, Note_on_c, 6, 57, 101
8, 231120, Note_on_c, 6, 57, 0
8, 231120, Note_on_c, 6, 60, 93
8, 231180, Note_on_c, 6, 60, 0
8, 231180, Note_on_c, 6, 57, 101
8, 231240, Note_on_c, 6, 57, 0
8, 231240, Note_on_c, 6, 60, 90
8, 231300, Note_on_c, 6, 60, 0
8, 231300, Note_on_c, 6, 57, 105
8, 231360, Note_on_c, 6, 57, 0
8, 231360, Note_on_c, 6, 58, 69
8, 231480, Note_on_c, 6, 58, 0
8, 231600, Note_on_c, 6, 77, 99
8, 231600, Note_on_c, 6, 70, 94
8, 231600, Note_on_c, 6, 62, 99
8, 231720, Note_on_c, 6, 62, 0
8, 231720, Note_on_c, 6, 70, 0
8, 231720, Note_on_c, 6, 77, 0
8, 231840, Note_on_c, 6, 58, 104
8, 231960, Note_on_c, 6, 58, 0
8, 231960, End_track
9, 0, Start_track
9, 0, MIDI_port, 0
9, 0, Title_t, "Violas"
9, 0, Control_c, 7, 7, 100
9, 0, Control_c, 7, 10, 64
9, 0, Control_c, 7, 93, 0
9, 0, Control_c, 7, 91, 66
9, 0, Program_c, 7, 48
9, 0, Note_on_c, 7, 70, 99
9, 0, Note_on_c, 7, 65, 93
9, 0, Note_on_c, 7, 58, 90
9, 180, Note_on_c, 7, 58, 0
9, 180, Note_on_c, 7, 65, 0
9, 180, Note_on_c, 7, 70, 0
9, 210, Note_on_c, 7, 58, 89
9, 240, Note_on_c, 7, 58, 0
9, 240, Note_on_c, 7, 65, 95
9, 270, Note_on_c, 7, 65, 0
9, 330, Note_on_c, 7, 65, 82
9, 345, Note_on_c, 7, 65, 0
9, 360, Note_on_c, 7, 62, 99
9, 390, Note_on_c, 7, 62, 0
9, 450, Note_on_c, 7, 62, 80
9, 465, Note_on_c, 7, 62, 0
9, 480, Note_on_c, 7, 58, 89
9, 600, Note_on_c, 7, 58, 0
9, 960, Note_on_c, 7, 65, 41
9, 1440, Note_on_c, 7, 65, 0
9, 1440, Note_on_c, 7, 65, 45
9, 1560, Note_on_c, 7, 65, 0
9, 1920, Control_c, 7, 7, 100
9, 1920, Control_c, 7, 10, 64
9, 1920, Control_c, 7, 93, 0
9, 1920, Control_c, 7, 91, 66
9, 1920, Note_on_c, 7, 65, 104
9, 2040, Control_c, 7, 7, 100
9, 2040, Control_c, 7, 10, 64
9, 2040, Control_c, 7, 93, 0
9, 2040, Control_c, 7, 91, 66
9, 2100, Note_on_c, 7, 65, 0
9, 2130, Note_on_c, 7, 53, 95
9, 2160, Note_on_c, 7, 53, 0
9, 2160, Note_on_c, 7, 60, 95
9, 2190, Note_on_c, 7, 60, 0
9, 2250, Note_on_c, 7, 60, 94
9, 2265, Note_on_c, 7, 60, 0
9, 2280, Note_on_c, 7, 57, 104
9, 2310, Note_on_c, 7, 57, 0
9, 2370, Note_on_c, 7, 57, 95
9, 2385, Note_on_c, 7, 57, 0
9, 2400, Note_on_c, 7, 53, 98
9, 2520, Note_on_c, 7, 53, 0
9, 2880, Note_on_c, 7, 62, 43
9, 3360, Note_on_c, 7, 62, 0
9, 3360, Note_on_c, 7, 62, 33
9, 3480, Note_on_c, 7, 62, 0
9, 3960, Note_on_c, 7, 62, 40
9, 4050, Note_on_c, 7, 62, 0
9, 4080, Note_on_c, 7, 62, 45
9, 4170, Note_on_c, 7, 62, 0
9, 4200, Note_on_c, 7, 62, 53
9, 4290, Note_on_c, 7, 62, 0
9, 4440, Note_on_c, 7, 63, 46
9, 4530, Note_on_c, 7, 63, 0
9, 4560, Note_on_c, 7, 63, 45
9, 4650, Note_on_c, 7, 63, 0
9, 4680, Note_on_c, 7, 63, 46
9, 4770, Note_on_c, 7, 63, 0
9, 4920, Note_on_c, 7, 60, 40
9, 4980, Note_on_c, 7, 60, 0
9, 5040, Note_on_c, 7, 60, 39
9, 5160, Note_on_c, 7, 60, 0
9, 5160, Note_on_c, 7, 57, 43
9, 5280, Note_on_c, 7, 57, 0
9, 5400, Note_on_c, 7, 58, 45
9, 5490, Note_on_c, 7, 58, 0
9, 5520, Note_on_c, 7, 58, 58
9, 5610, Note_on_c, 7, 58, 0
9, 5640, Note_on_c, 7, 58, 62
9, 5730, Note_on_c, 7, 58, 0
9, 5880, Note_on_c, 7, 65, 43
9, 5970, Note_on_c, 7, 65, 0
9, 6000, Note_on_c, 7, 65, 57
9, 6090, Note_on_c, 7, 65, 0
9, 6120, Note_on_c, 7, 65, 64
9, 6210, Note_on_c, 7, 65, 0
9, 6360, Note_on_c, 7, 67, 45
9, 6450, Note_on_c, 7, 67, 0
9, 6480, Note_on_c, 7, 67, 43
9, 6570, Note_on_c, 7, 67, 0
9, 6600, Note_on_c, 7, 67, 43
9, 6690, Note_on_c, 7, 67, 0
9, 6840, Note_on_c, 7, 63, 53
9, 6930, Note_on_c, 7, 63, 0
9, 6960, Note_on_c, 7, 63, 56
9, 7050, Note_on_c, 7, 63, 0
9, 7080, Note_on_c, 7, 63, 56
9, 7170, Note_on_c, 7, 63, 0
9, 7200, Note_on_c, 7, 58, 60
9, 7260, Note_on_c, 7, 58, 0
9, 7260, Note_on_c, 7, 62, 61
9, 7320, Note_on_c, 7, 62, 0
9, 7320, Note_on_c, 7, 62, 58
9, 7380, Note_on_c, 7, 62, 0
9, 7380, Note_on_c, 7, 62, 50
9, 7440, Note_on_c, 7, 62, 0
9, 7440, Note_on_c, 7, 62, 60
9, 7500, Note_on_c, 7, 62, 0
9, 7500, Note_on_c, 7, 62, 64
9, 7560, Note_on_c, 7, 62, 0
9, 7560, Note_on_c, 7, 62, 68
9, 7620, Note_on_c, 7, 62, 0
9, 7620, Note_on_c, 7, 62, 66
9, 7680, Note_on_c, 7, 62, 0
9, 7680, Note_on_c, 7, 62, 56
9, 7740, Note_on_c, 7, 62, 0
9, 7740, Note_on_c, 7, 62, 68
9, 7800, Note_on_c, 7, 62, 0
9, 7800, Note_on_c, 7, 62, 64
9, 7860, Note_on_c, 7, 62, 0
9, 7860, Note_on_c, 7, 62, 70
9, 7920, Note_on_c, 7, 62, 0
9, 7920, Note_on_c, 7, 62, 66
9, 7980, Note_on_c, 7, 62, 0
9, 7980, Note_on_c, 7, 62, 64
9, 8040, Note_on_c, 7, 62, 0
9, 8040, Note_on_c, 7, 62, 68
9, 8100, Note_on_c, 7, 62, 0
9, 8100, Note_on_c, 7, 62, 66
9, 8160, Note_on_c, 7, 62, 0
9, 8160, Note_on_c, 7, 63, 57
9, 8160, Note_on_c, 7, 60, 62
9, 8220, Note_on_c, 7, 60, 0
9, 8220, Note_on_c, 7, 63, 0
9, 8220, Note_on_c, 7, 63, 45
9, 8220, Note_on_c, 7, 60, 53
9, 8280, Note_on_c, 7, 60, 0
9, 8280, Note_on_c, 7, 63, 0
9, 8280, Note_on_c, 7, 63, 40
9, 8280, Note_on_c, 7, 60, 60
9, 8340, Note_on_c, 7, 60, 0
9, 8340, Note_on_c, 7, 63, 0
9, 8340, Note_on_c, 7, 63, 46
9, 8340, Note_on_c, 7, 60, 62
9, 8400, Note_on_c, 7, 60, 0
9, 8400, Note_on_c, 7, 63, 0
9, 8400, Note_on_c, 7, 63, 44
9, 8400, Note_on_c, 7, 60, 58
9, 8460, Note_on_c, 7, 60, 0
9, 8460, Note_on_c, 7, 63, 0
9, 8460, Note_on_c, 7, 63, 48
9, 8460, Note_on_c, 7, 60, 58
9, 8520, Note_on_c, 7, 60, 0
9, 8520, Note_on_c, 7, 63, 0
9, 8520, Note_on_c, 7, 63, 43
9, 8520, Note_on_c, 7, 60, 55
9, 8580, Note_on_c, 7, 60, 0
9, 8580, Note_on_c, 7, 63, 0
9, 8580, Note_on_c, 7, 60, 42
9, 8580, Note_on_c, 7, 63, 45
9, 8640, Note_on_c, 7, 63, 0
9, 8640, Note_on_c, 7, 60, 0
9, 8640, Note_on_c, 7, 63, 53
9, 8700, Note_on_c, 7, 63, 0
9, 8700, Note_on_c, 7, 63, 63
9, 8760, Note_on_c, 7, 63, 0
9, 8760, Note_on_c, 7, 63, 53
9, 8820, Note_on_c, 7, 63, 0
9, 8820, Note_on_c, 7, 63, 43
9, 8880, Note_on_c, 7, 63, 0
9, 8880, Note_on_c, 7, 63, 52
9, 8940, Note_on_c, 7, 63, 0
9, 8940, Note_on_c, 7, 63, 65
9, 9000, Note_on_c, 7, 63, 0
9, 9000, Note_on_c, 7, 63, 54
9, 9060, Note_on_c, 7, 63, 0
9, 9060, Note_on_c, 7, 63, 61
9, 9120, Note_on_c, 7, 63, 0
9, 9120, Note_on_c, 7, 62, 46
9, 9180, Note_on_c, 7, 62, 0
9, 9180, Note_on_c, 7, 62, 60
9, 9240, Note_on_c, 7, 62, 0
9, 9240, Note_on_c, 7, 62, 61
9, 9300, Note_on_c, 7, 62, 0
9, 9300, Note_on_c, 7, 62, 53
9, 9360, Note_on_c, 7, 62, 0
9, 9360, Note_on_c, 7, 62, 65
9, 9420, Note_on_c, 7, 62, 0
9, 9420, Note_on_c, 7, 62, 57
9, 9480, Note_on_c, 7, 62, 0
9, 9480, Note_on_c, 7, 62, 52
9, 9540, Note_on_c, 7, 62, 0
9, 9540, Note_on_c, 7, 62, 52
9, 9600, Note_on_c, 7, 62, 0
9, 9600, Note_on_c, 7, 62, 61
9, 9660, Note_on_c, 7, 62, 0
9, 9660, Note_on_c, 7, 62, 66
9, 9720, Note_on_c, 7, 62, 0
9, 9720, Note_on_c, 7, 62, 80
9, 9780, Note_on_c, 7, 62, 0
9, 9780, Note_on_c, 7, 62, 84
9, 9840, Note_on_c, 7, 62, 0
9, 9840, Note_on_c, 7, 62, 73
9, 9900, Note_on_c, 7, 62, 0
9, 9900, Note_on_c, 7, 62, 94
9, 9960, Note_on_c, 7, 62, 0
9, 9960, Note_on_c, 7, 62, 89
9, 10020, Note_on_c, 7, 62, 0
9, 10020, Note_on_c, 7, 62, 89
9, 10080, Note_on_c, 7, 62, 0
9, 10080, Note_on_c, 7, 60, 95
9, 10200, Note_on_c, 7, 60, 0
9, 10320, Note_on_c, 7, 53, 86
9, 10680, Note_on_c, 7, 53, 0
9, 11040, Note_on_c, 7, 74, 80
9, 11040, Note_on_c, 7, 62, 72
9, 11160, Note_on_c, 7, 62, 0
9, 11160, Note_on_c, 7, 74, 0
9, 11280, Note_on_c, 7, 50, 105
9, 11520, Note_on_c, 7, 50, 0
9, 11520, Note_on_c, 7, 52, 95
9, 11580, Note_on_c, 7, 52, 0
9, 11580, Note_on_c, 7, 64, 94
9, 11640, Note_on_c, 7, 64, 0
9, 11640, Note_on_c, 7, 64, 90
9, 11700, Note_on_c, 7, 64, 0
9, 11700, Note_on_c, 7, 64, 95
9, 11760, Note_on_c, 7, 64, 0
9, 11760, Note_on_c, 7, 65, 105
9, 11820, Note_on_c, 7, 65, 0
9, 11820, Note_on_c, 7, 65, 94
9, 11880, Note_on_c, 7, 65, 0
9, 11880, Note_on_c, 7, 65, 84
9, 11940, Note_on_c, 7, 65, 0
9, 11940, Note_on_c, 7, 65, 86
9, 12000, Note_on_c, 7, 65, 0
9, 12000, Note_on_c, 7, 64, 99
9, 12060, Note_on_c, 7, 64, 0
9, 12060, Note_on_c, 7, 64, 94
9, 12120, Note_on_c, 7, 64, 0
9, 12120, Note_on_c, 7, 64, 95
9, 12180, Note_on_c, 7, 64, 0
9, 12180, Note_on_c, 7, 64, 99
9, 12240, Note_on_c, 7, 64, 0
9, 12240, Note_on_c, 7, 65, 107
9, 12300, Note_on_c, 7, 65, 0
9, 12300, Note_on_c, 7, 65, 90
9, 12360, Note_on_c, 7, 65, 0
9, 12360, Note_on_c, 7, 65, 90
9, 12420, Note_on_c, 7, 65, 0
9, 12420, Note_on_c, 7, 65, 94
9, 12480, Note_on_c, 7, 65, 0
9, 12480, Note_on_c, 7, 64, 98
9, 12525, Note_on_c, 7, 64, 0
9, 12540, Note_on_c, 7, 64, 94
9, 12585, Note_on_c, 7, 64, 0
9, 12600, Note_on_c, 7, 63, 89
9, 12645, Note_on_c, 7, 63, 0
9, 12660, Note_on_c, 7, 63, 93
9, 12705, Note_on_c, 7, 63, 0
9, 12720, Note_on_c, 7, 62, 94
9, 12765, Note_on_c, 7, 62, 0
9, 12780, Note_on_c, 7, 62, 99
9, 12825, Note_on_c, 7, 62, 0
9, 12840, Note_on_c, 7, 61, 90
9, 12885, Note_on_c, 7, 61, 0
9, 12900, Note_on_c, 7, 61, 86
9, 12945, Note_on_c, 7, 61, 0
9, 12960, Note_on_c, 7, 60, 101
9, 13020, Note_on_c, 7, 60, 0
9, 13020, Note_on_c, 7, 69, 95
9, 13080, Note_on_c, 7, 69, 0
9, 13080, Note_on_c, 7, 69, 95
9, 13140, Note_on_c, 7, 69, 0
9, 13140, Note_on_c, 7, 69, 99
9, 13200, Note_on_c, 7, 69, 0
9, 13200, Note_on_c, 7, 70, 105
9, 13260, Note_on_c, 7, 70, 0
9, 13260, Note_on_c, 7, 70, 95
9, 13320, Note_on_c, 7, 70, 0
9, 13320, Note_on_c, 7, 70, 94
9, 13380, Note_on_c, 7, 70, 0
9, 13380, Note_on_c, 7, 70, 89
9, 13440, Note_on_c, 7, 70, 0
9, 13440, Note_on_c, 7, 69, 94
9, 13500, Note_on_c, 7, 69, 0
9, 13500, Note_on_c, 7, 69, 99
9, 13560, Note_on_c, 7, 69, 0
9, 13560, Note_on_c, 7, 69, 95
9, 13620, Note_on_c, 7, 69, 0
9, 13620, Note_on_c, 7, 69, 99
9, 13680, Note_on_c, 7, 69, 0
9, 13680, Note_on_c, 7, 70, 99
9, 13740, Note_on_c, 7, 70, 0
9, 13740, Note_on_c, 7, 70, 93
9, 13800, Note_on_c, 7, 70, 0
9, 13800, Note_on_c, 7, 70, 89
9, 13860, Note_on_c, 7, 70, 0
9, 13860, Note_on_c, 7, 70, 89
9, 13920, Note_on_c, 7, 70, 0
9, 13920, Note_on_c, 7, 68, 94
9, 13980, Note_on_c, 7, 68, 0
9, 13980, Note_on_c, 7, 68, 90
9, 14040, Note_on_c, 7, 68, 0
9, 14040, Note_on_c, 7, 65, 95
9, 14100, Note_on_c, 7, 65, 0
9, 14100, Note_on_c, 7, 65, 99
9, 14160, Note_on_c, 7, 65, 0
9, 14160, Note_on_c, 7, 63, 90
9, 14220, Note_on_c, 7, 63, 0
9, 14220, Note_on_c, 7, 63, 89
9, 14280, Note_on_c, 7, 63, 0
9, 14280, Note_on_c, 7, 61, 90
9, 14340, Note_on_c, 7, 61, 0
9, 14340, Note_on_c, 7, 61, 93
9, 14400, Note_on_c, 7, 61, 0
9, 14400, Note_on_c, 7, 60, 84
9, 14430, Note_on_c, 7, 60, 0
9, 14460, Note_on_c, 7, 48, 98
9, 14490, Note_on_c, 7, 48, 0
9, 14520, Note_on_c, 7, 52, 99
9, 14550, Note_on_c, 7, 52, 0
9, 14580, Note_on_c, 7, 55, 86
9, 14610, Note_on_c, 7, 55, 0
9, 14640, Note_on_c, 7, 60, 84
9, 14670, Note_on_c, 7, 60, 0
9, 14700, Note_on_c, 7, 64, 95
9, 14730, Note_on_c, 7, 64, 0
9, 14760, Note_on_c, 7, 67, 95
9, 14790, Note_on_c, 7, 67, 0
9, 14820, Note_on_c, 7, 72, 85
9, 14850, Note_on_c, 7, 72, 0
9, 14940, Note_on_c, 7, 48, 89
9, 15000, Note_on_c, 7, 48, 0
9, 15000, Note_on_c, 7, 53, 94
9, 15060, Note_on_c, 7, 53, 0
9, 15060, Note_on_c, 7, 56, 94
9, 15120, Note_on_c, 7, 56, 0
9, 15120, Note_on_c, 7, 60, 101
9, 15180, Note_on_c, 7, 60, 0
9, 15180, Note_on_c, 7, 65, 99
9, 15240, Note_on_c, 7, 65, 0
9, 15240, Note_on_c, 7, 68, 94
9, 15300, Note_on_c, 7, 68, 0
9, 15300, Note_on_c, 7, 72, 86
9, 15360, Note_on_c, 7, 72, 0
9, 15360, Note_on_c, 7, 72, 76
9, 15420, Note_on_c, 7, 72, 0
9, 15420, Note_on_c, 7, 67, 95
9, 15480, Note_on_c, 7, 67, 0
9, 15480, Note_on_c, 7, 64, 99
9, 15540, Note_on_c, 7, 64, 0
9, 15540, Note_on_c, 7, 60, 95
9, 15600, Note_on_c, 7, 60, 0
9, 15600, Note_on_c, 7, 72, 78
9, 15660, Note_on_c, 7, 72, 0
9, 15660, Note_on_c, 7, 68, 94
9, 15720, Note_on_c, 7, 68, 0
9, 15720, Note_on_c, 7, 65, 99
9, 15780, Note_on_c, 7, 65, 0
9, 15780, Note_on_c, 7, 60, 105
9, 15840, Note_on_c, 7, 60, 0
9, 15840, Note_on_c, 7, 72, 99
9, 15960, Note_on_c, 7, 72, 0
9, 16320, Note_on_c, 7, 60, 81
9, 16320, Note_on_c, 7, 48, 86
9, 16350, Note_on_c, 7, 48, 0
9, 16350, Note_on_c, 7, 60, 0
9, 16350, Note_on_c, 7, 60, 84
9, 16350, Note_on_c, 7, 48, 101
9, 16380, Note_on_c, 7, 48, 0
9, 16380, Note_on_c, 7, 60, 0
9, 16380, Note_on_c, 7, 60, 84
9, 16380, Note_on_c, 7, 48, 95
9, 16410, Note_on_c, 7, 48, 0
9, 16410, Note_on_c, 7, 60, 0
9, 16410, Note_on_c, 7, 60, 84
9, 16410, Note_on_c, 7, 48, 98
9, 16440, Note_on_c, 7, 48, 0
9, 16440, Note_on_c, 7, 60, 0
9, 16440, Note_on_c, 7, 60, 93
9, 16440, Note_on_c, 7, 48, 99
9, 16470, Note_on_c, 7, 48, 0
9, 16470, Note_on_c, 7, 60, 0
9, 16470, Note_on_c, 7, 60, 86
9, 16470, Note_on_c, 7, 48, 101
9, 16500, Note_on_c, 7, 48, 0
9, 16500, Note_on_c, 7, 60, 0
9, 16500, Note_on_c, 7, 60, 89
9, 16500, Note_on_c, 7, 48, 98
9, 16530, Note_on_c, 7, 48, 0
9, 16530, Note_on_c, 7, 60, 0
9, 16530, Note_on_c, 7, 60, 90
9, 16530, Note_on_c, 7, 48, 99
9, 16560, Note_on_c, 7, 48, 0
9, 16560, Note_on_c, 7, 60, 0
9, 16560, Note_on_c, 7, 60, 84
9, 16560, Note_on_c, 7, 48, 99
9, 16590, Note_on_c, 7, 48, 0
9, 16590, Note_on_c, 7, 60, 0
9, 16590, Note_on_c, 7, 60, 93
9, 16590, Note_on_c, 7, 48, 101
9, 16620, Note_on_c, 7, 48, 0
9, 16620, Note_on_c, 7, 60, 0
9, 16620, Note_on_c, 7, 60, 84
9, 16620, Note_on_c, 7, 48, 99
9, 16650, Note_on_c, 7, 48, 0
9, 16650, Note_on_c, 7, 60, 0
9, 16650, Note_on_c, 7, 60, 89
9, 16650, Note_on_c, 7, 48, 99
9, 16680, Note_on_c, 7, 48, 0
9, 16680, Note_on_c, 7, 60, 0
9, 16680, Note_on_c, 7, 60, 86
9, 16680, Note_on_c, 7, 48, 105
9, 16710, Note_on_c, 7, 48, 0
9, 16710, Note_on_c, 7, 60, 0
9, 16710, Note_on_c, 7, 60, 86
9, 16710, Note_on_c, 7, 48, 98
9, 16740, Note_on_c, 7, 48, 0
9, 16740, Note_on_c, 7, 60, 0
9, 16740, Note_on_c, 7, 60, 89
9, 16740, Note_on_c, 7, 48, 99
9, 16770, Note_on_c, 7, 48, 0
9, 16770, Note_on_c, 7, 60, 0
9, 16770, Note_on_c, 7, 48, 101
9, 16770, Note_on_c, 7, 60, 86
9, 16800, Note_on_c, 7, 60, 0
9, 16800, Note_on_c, 7, 48, 0
9, 16800, Note_on_c, 7, 60, 82
9, 16800, Note_on_c, 7, 48, 94
9, 16830, Note_on_c, 7, 48, 0
9, 16830, Note_on_c, 7, 60, 0
9, 16830, Note_on_c, 7, 60, 84
9, 16830, Note_on_c, 7, 48, 95
9, 16860, Note_on_c, 7, 48, 0
9, 16860, Note_on_c, 7, 60, 0
9, 16860, Note_on_c, 7, 60, 85
9, 16860, Note_on_c, 7, 48, 95
9, 16890, Note_on_c, 7, 48, 0
9, 16890, Note_on_c, 7, 60, 0
9, 16890, Note_on_c, 7, 60, 86
9, 16890, Note_on_c, 7, 48, 93
9, 16920, Note_on_c, 7, 48, 0
9, 16920, Note_on_c, 7, 60, 0
9, 16920, Note_on_c, 7, 60, 81
9, 16920, Note_on_c, 7, 48, 90
9, 16950, Note_on_c, 7, 48, 0
9, 16950, Note_on_c, 7, 60, 0
9, 16950, Note_on_c, 7, 60, 89
9, 16950, Note_on_c, 7, 48, 90
9, 16980, Note_on_c, 7, 48, 0
9, 16980, Note_on_c, 7, 60, 0
9, 16980, Note_on_c, 7, 60, 72
9, 16980, Note_on_c, 7, 48, 95
9, 17010, Note_on_c, 7, 48, 0
9, 17010, Note_on_c, 7, 60, 0
9, 17010, Note_on_c, 7, 60, 84
9, 17010, Note_on_c, 7, 48, 85
9, 17040, Note_on_c, 7, 48, 0
9, 17040, Note_on_c, 7, 60, 0
9, 17040, Note_on_c, 7, 60, 80
9, 17040, Note_on_c, 7, 48, 90
9, 17070, Note_on_c, 7, 48, 0
9, 17070, Note_on_c, 7, 60, 0
9, 17070, Note_on_c, 7, 60, 86
9, 17070, Note_on_c, 7, 48, 94
9, 17100, Note_on_c, 7, 48, 0
9, 17100, Note_on_c, 7, 60, 0
9, 17100, Note_on_c, 7, 60, 69
9, 17100, Note_on_c, 7, 48, 90
9, 17130, Note_on_c, 7, 48, 0
9, 17130, Note_on_c, 7, 60, 0
9, 17130, Note_on_c, 7, 60, 90
9, 17130, Note_on_c, 7, 48, 94
9, 17160, Note_on_c, 7, 48, 0
9, 17160, Note_on_c, 7, 60, 0
9, 17160, Note_on_c, 7, 60, 89
9, 17160, Note_on_c, 7, 48, 95
9, 17190, Note_on_c, 7, 48, 0
9, 17190, Note_on_c, 7, 60, 0
9, 17190, Note_on_c, 7, 60, 95
9, 17190, Note_on_c, 7, 48, 94
9, 17220, Note_on_c, 7, 48, 0
9, 17220, Note_on_c, 7, 60, 0
9, 17220, Note_on_c, 7, 60, 85
9, 17220, Note_on_c, 7, 48, 85
9, 17250, Note_on_c, 7, 48, 0
9, 17250, Note_on_c, 7, 60, 0
9, 17250, Note_on_c, 7, 48, 89
9, 17250, Note_on_c, 7, 60, 86
9, 17280, Note_on_c, 7, 60, 0
9, 17280, Note_on_c, 7, 48, 0
9, 17280, Note_on_c, 7, 60, 95
9, 17280, Note_on_c, 7, 48, 101
9, 17310, Note_on_c, 7, 48, 0
9, 17310, Note_on_c, 7, 60, 0
9, 17310, Note_on_c, 7, 60, 94
9, 17310, Note_on_c, 7, 48, 94
9, 17340, Note_on_c, 7, 48, 0
9, 17340, Note_on_c, 7, 60, 0
9, 17340, Note_on_c, 7, 60, 95
9, 17340, Note_on_c, 7, 48, 104
9, 17370, Note_on_c, 7, 48, 0
9, 17370, Note_on_c, 7, 60, 0
9, 17370, Note_on_c, 7, 60, 95
9, 17370, Note_on_c, 7, 48, 105
9, 17400, Note_on_c, 7, 48, 0
9, 17400, Note_on_c, 7, 60, 0
9, 17400, Note_on_c, 7, 60, 94
9, 17400, Note_on_c, 7, 48, 105
9, 17430, Note_on_c, 7, 48, 0
9, 17430, Note_on_c, 7, 60, 0
9, 17430, Note_on_c, 7, 60, 99
9, 17430, Note_on_c, 7, 48, 110
9, 17460, Note_on_c, 7, 48, 0
9, 17460, Note_on_c, 7, 60, 0
9, 17460, Note_on_c, 7, 60, 99
9, 17460, Note_on_c, 7, 48, 110
9, 17490, Note_on_c, 7, 48, 0
9, 17490, Note_on_c, 7, 60, 0
9, 17490, Note_on_c, 7, 60, 101
9, 17490, Note_on_c, 7, 48, 112
9, 17520, Note_on_c, 7, 48, 0
9, 17520, Note_on_c, 7, 60, 0
9, 17520, Note_on_c, 7, 60, 104
9, 17520, Note_on_c, 7, 48, 112
9, 17550, Note_on_c, 7, 48, 0
9, 17550, Note_on_c, 7, 60, 0
9, 17550, Note_on_c, 7, 60, 104
9, 17550, Note_on_c, 7, 48, 112
9, 17580, Note_on_c, 7, 48, 0
9, 17580, Note_on_c, 7, 60, 0
9, 17580, Note_on_c, 7, 60, 104
9, 17580, Note_on_c, 7, 48, 110
9, 17610, Note_on_c, 7, 48, 0
9, 17610, Note_on_c, 7, 60, 0
9, 17610, Note_on_c, 7, 60, 99
9, 17610, Note_on_c, 7, 48, 110
9, 17640, Note_on_c, 7, 48, 0
9, 17640, Note_on_c, 7, 60, 0
9, 17640, Note_on_c, 7, 60, 101
9, 17640, Note_on_c, 7, 48, 107
9, 17670, Note_on_c, 7, 48, 0
9, 17670, Note_on_c, 7, 60, 0
9, 17670, Note_on_c, 7, 60, 101
9, 17670, Note_on_c, 7, 48, 112
9, 17700, Note_on_c, 7, 48, 0
9, 17700, Note_on_c, 7, 60, 0
9, 17700, Note_on_c, 7, 60, 104
9, 17700, Note_on_c, 7, 48, 110
9, 17730, Note_on_c, 7, 48, 0
9, 17730, Note_on_c, 7, 60, 0
9, 17730, Note_on_c, 7, 48, 117
9, 17730, Note_on_c, 7, 60, 107
9, 17760, Note_on_c, 7, 60, 0
9, 17760, Note_on_c, 7, 48, 0
9, 17760, Note_on_c, 7, 60, 95
9, 17760, Note_on_c, 7, 48, 101
9, 17880, Note_on_c, 7, 48, 0
9, 17880, Note_on_c, 7, 60, 0
9, 18240, Note_on_c, 7, 48, 98
9, 18360, Note_on_c, 7, 48, 0
9, 18480, Note_on_c, 7, 48, 101
9, 18600, Note_on_c, 7, 48, 0
9, 18720, Note_on_c, 7, 48, 104
9, 18840, Note_on_c, 7, 48, 0
9, 19200, Note_on_c, 7, 49, 41
9, 19320, Note_on_c, 7, 49, 0
9, 19440, Note_on_c, 7, 49, 33
9, 19560, Note_on_c, 7, 49, 0
9, 19680, Note_on_c, 7, 49, 40
9, 19800, Note_on_c, 7, 49, 0
9, 20160, Note_on_c, 7, 49, 46
9, 20220, Note_on_c, 7, 49, 0
9, 20220, Note_on_c, 7, 53, 71
9, 20280, Note_on_c, 7, 53, 0
9, 20280, Note_on_c, 7, 56, 51
9, 20340, Note_on_c, 7, 56, 0
9, 20340, Note_on_c, 7, 53, 46
9, 20400, Note_on_c, 7, 53, 0
9, 20400, Note_on_c, 7, 56, 43
9, 20460, Note_on_c, 7, 56, 0
9, 20460, Note_on_c, 7, 53, 59
9, 20520, Note_on_c, 7, 53, 0
9, 20520, Note_on_c, 7, 56, 42
9, 20580, Note_on_c, 7, 56, 0
9, 20580, Note_on_c, 7, 53, 58
9, 20640, Note_on_c, 7, 53, 0
9, 20640, Note_on_c, 7, 49, 43
9, 20700, Note_on_c, 7, 49, 0
9, 20700, Note_on_c, 7, 53, 62
9, 20760, Note_on_c, 7, 53, 0
9, 20760, Note_on_c, 7, 56, 43
9, 20820, Note_on_c, 7, 56, 0
9, 20820, Note_on_c, 7, 53, 52
9, 20880, Note_on_c, 7, 53, 0
9, 20880, Note_on_c, 7, 56, 43
9, 20940, Note_on_c, 7, 56, 0
9, 20940, Note_on_c, 7, 53, 54
9, 21000, Note_on_c, 7, 53, 0
9, 21000, Note_on_c, 7, 56, 40
9, 21060, Note_on_c, 7, 56, 0
9, 21060, Note_on_c, 7, 53, 61
9, 21120, Note_on_c, 7, 53, 0
9, 21120, Note_on_c, 7, 49, 68
9, 21180, Note_on_c, 7, 49, 0
9, 21180, Note_on_c, 7, 51, 54
9, 21240, Note_on_c, 7, 51, 0
9, 21240, Note_on_c, 7, 49, 50
9, 21300, Note_on_c, 7, 49, 0
9, 21300, Note_on_c, 7, 51, 53
9, 21360, Note_on_c, 7, 51, 0
9, 21360, Note_on_c, 7, 49, 65
9, 21420, Note_on_c, 7, 49, 0
9, 21420, Note_on_c, 7, 51, 50
9, 21480, Note_on_c, 7, 51, 0
9, 21480, Note_on_c, 7, 49, 67
9, 21540, Note_on_c, 7, 49, 0
9, 21540, Note_on_c, 7, 51, 45
9, 21600, Note_on_c, 7, 51, 0
9, 21600, Note_on_c, 7, 48, 54
9, 21660, Note_on_c, 7, 48, 0
9, 21660, Note_on_c, 7, 51, 56
9, 21720, Note_on_c, 7, 51, 0
9, 21720, Note_on_c, 7, 48, 59
9, 21780, Note_on_c, 7, 48, 0
9, 21780, Note_on_c, 7, 51, 45
9, 21840, Note_on_c, 7, 51, 0
9, 21840, Note_on_c, 7, 48, 50
9, 21900, Note_on_c, 7, 48, 0
9, 21900, Note_on_c, 7, 51, 51
9, 21960, Note_on_c, 7, 51, 0
9, 21960, Note_on_c, 7, 48, 46
9, 22020, Note_on_c, 7, 48, 0
9, 22020, Note_on_c, 7, 51, 47
9, 22080, Note_on_c, 7, 51, 0
9, 22080, Note_on_c, 7, 49, 60
9, 22140, Note_on_c, 7, 49, 0
9, 22140, Note_on_c, 7, 53, 41
9, 22200, Note_on_c, 7, 53, 0
9, 22200, Note_on_c, 7, 56, 49
9, 22260, Note_on_c, 7, 56, 0
9, 22260, Note_on_c, 7, 53, 71
9, 22320, Note_on_c, 7, 53, 0
9, 22320, Note_on_c, 7, 56, 53
9, 22380, Note_on_c, 7, 56, 0
9, 22380, Note_on_c, 7, 53, 72
9, 22440, Note_on_c, 7, 53, 0
9, 22440, Note_on_c, 7, 56, 59
9, 22500, Note_on_c, 7, 56, 0
9, 22500, Note_on_c, 7, 53, 68
9, 22560, Note_on_c, 7, 53, 0
9, 22560, Note_on_c, 7, 49, 72
9, 22620, Note_on_c, 7, 49, 0
9, 22620, Note_on_c, 7, 53, 72
9, 22680, Note_on_c, 7, 53, 0
9, 22680, Note_on_c, 7, 58, 45
9, 22740, Note_on_c, 7, 58, 0
9, 22740, Note_on_c, 7, 53, 70
9, 22800, Note_on_c, 7, 53, 0
9, 22800, Note_on_c, 7, 58, 56
9, 22860, Note_on_c, 7, 58, 0
9, 22860, Note_on_c, 7, 53, 62
9, 22920, Note_on_c, 7, 53, 0
9, 22920, Note_on_c, 7, 58, 50
9, 22980, Note_on_c, 7, 58, 0
9, 22980, Note_on_c, 7, 53, 59
9, 23040, Note_on_c, 7, 53, 0
9, 23040, Note_on_c, 7, 54, 43
9, 23100, Note_on_c, 7, 54, 0
9, 23100, Note_on_c, 7, 58, 53
9, 23160, Note_on_c, 7, 58, 0
9, 23160, Note_on_c, 7, 60, 58
9, 23220, Note_on_c, 7, 60, 0
9, 23220, Note_on_c, 7, 58, 65
9, 23280, Note_on_c, 7, 58, 0
9, 23280, Note_on_c, 7, 60, 62
9, 23340, Note_on_c, 7, 60, 0
9, 23340, Note_on_c, 7, 58, 61
9, 23400, Note_on_c, 7, 58, 0
9, 23400, Note_on_c, 7, 60, 61
9, 23460, Note_on_c, 7, 60, 0
9, 23460, Note_on_c, 7, 58, 45
9, 23520, Note_on_c, 7, 58, 0
9, 23520, Note_on_c, 7, 57, 67
9, 23580, Note_on_c, 7, 57, 0
9, 23580, Note_on_c, 7, 60, 44
9, 23640, Note_on_c, 7, 60, 0
9, 23640, Note_on_c, 7, 57, 81
9, 23700, Note_on_c, 7, 57, 0
9, 23700, Note_on_c, 7, 60, 43
9, 23760, Note_on_c, 7, 60, 0
9, 23760, Note_on_c, 7, 57, 67
9, 23820, Note_on_c, 7, 57, 0
9, 23820, Note_on_c, 7, 60, 45
9, 23880, Note_on_c, 7, 60, 0
9, 23880, Note_on_c, 7, 57, 72
9, 23940, Note_on_c, 7, 57, 0
9, 23940, Note_on_c, 7, 60, 43
9, 24000, Note_on_c, 7, 60, 0
9, 24000, Note_on_c, 7, 58, 68
9, 24180, Note_on_c, 7, 58, 0
9, 24180, Note_on_c, 7, 60, 64
9, 24240, Note_on_c, 7, 60, 0
9, 24240, Note_on_c, 7, 61, 82
9, 24300, Note_on_c, 7, 61, 0
9, 24300, Note_on_c, 7, 63, 81
9, 24360, Note_on_c, 7, 63, 0
9, 24360, Note_on_c, 7, 65, 61
9, 24420, Note_on_c, 7, 65, 0
9, 24420, Note_on_c, 7, 64, 57
9, 24480, Note_on_c, 7, 64, 0
9, 24480, Note_on_c, 7, 65, 43
9, 24600, Note_on_c, 7, 65, 0
9, 24960, Note_on_c, 7, 58, 66
9, 25140, Note_on_c, 7, 58, 0
9, 25140, Note_on_c, 7, 60, 80
9, 25200, Note_on_c, 7, 60, 0
9, 25200, Note_on_c, 7, 61, 81
9, 25260, Note_on_c, 7, 61, 0
9, 25260, Note_on_c, 7, 63, 84
9, 25320, Note_on_c, 7, 63, 0
9, 25320, Note_on_c, 7, 65, 41
9, 25380, Note_on_c, 7, 65, 0
9, 25380, Note_on_c, 7, 64, 57
9, 25440, Note_on_c, 7, 64, 0
9, 25440, Note_on_c, 7, 65, 43
9, 25560, Note_on_c, 7, 65, 0
9, 25920, Note_on_c, 7, 58, 67
9, 25980, Note_on_c, 7, 58, 0
9, 25980, Note_on_c, 7, 58, 67
9, 26100, Note_on_c, 7, 58, 0
9, 26100, Note_on_c, 7, 58, 84
9, 26220, Note_on_c, 7, 58, 0
9, 26220, Note_on_c, 7, 58, 90
9, 26340, Note_on_c, 7, 58, 0
9, 26340, Note_on_c, 7, 58, 89
9, 26460, Note_on_c, 7, 58, 0
9, 26460, Note_on_c, 7, 58, 93
9, 26580, Note_on_c, 7, 58, 0
9, 26580, Note_on_c, 7, 58, 99
9, 26700, Note_on_c, 7, 58, 0
9, 26700, Note_on_c, 7, 58, 93
9, 26820, Note_on_c, 7, 58, 0
9, 26820, Note_on_c, 7, 58, 84
9, 26880, Note_on_c, 7, 58, 0
9, 26880, Note_on_c, 7, 57, 99
9, 26940, Note_on_c, 7, 57, 0
9, 27000, Note_on_c, 7, 57, 42
9, 27060, Note_on_c, 7, 57, 0
9, 27240, Note_on_c, 7, 57, 42
9, 27360, Note_on_c, 7, 57, 0
9, 27360, Note_on_c, 7, 58, 29
9, 27420, Note_on_c, 7, 58, 0
9, 27480, Note_on_c, 7, 58, 29
9, 27540, Note_on_c, 7, 58, 0
9, 27720, Note_on_c, 7, 58, 30
9, 27840, Note_on_c, 7, 58, 0
9, 27840, Note_on_c, 7, 60, 38
9, 27900, Note_on_c, 7, 60, 0
9, 27960, Note_on_c, 7, 60, 29
9, 28020, Note_on_c, 7, 60, 0
9, 28200, Note_on_c, 7, 60, 29
9, 28320, Note_on_c, 7, 60, 0
9, 28320, Note_on_c, 7, 62, 42
9, 28380, Note_on_c, 7, 62, 0
9, 28440, Note_on_c, 7, 62, 45
9, 28500, Note_on_c, 7, 62, 0
9, 28680, Note_on_c, 7, 62, 42
9, 28800, Note_on_c, 7, 62, 0
9, 28800, Note_on_c, 7, 63, 73
9, 28860, Note_on_c, 7, 63, 0
9, 28920, Note_on_c, 7, 63, 73
9, 28980, Note_on_c, 7, 63, 0
9, 29160, Note_on_c, 7, 63, 81
9, 29280, Note_on_c, 7, 63, 0
9, 29280, Note_on_c, 7, 60, 82
9, 29340, Note_on_c, 7, 60, 0
9, 29400, Note_on_c, 7, 60, 84
9, 29460, Note_on_c, 7, 60, 0
9, 29640, Note_on_c, 7, 60, 89
9, 29760, Note_on_c, 7, 60, 0
9, 29760, Note_on_c, 7, 58, 93
9, 29790, Note_on_c, 7, 58, 0
9, 29820, Note_on_c, 7, 65, 57
9, 29850, Note_on_c, 7, 65, 0
9, 29850, Note_on_c, 7, 65, 63
9, 29880, Note_on_c, 7, 65, 0
9, 29880, Note_on_c, 7, 65, 45
9, 29910, Note_on_c, 7, 65, 0
9, 29910, Note_on_c, 7, 65, 52
9, 29940, Note_on_c, 7, 65, 0
9, 29940, Note_on_c, 7, 65, 43
9, 29970, Note_on_c, 7, 65, 0
9, 29970, Note_on_c, 7, 65, 56
9, 30000, Note_on_c, 7, 65, 0
9, 30000, Note_on_c, 7, 65, 43
9, 30030, Note_on_c, 7, 65, 0
9, 30030, Note_on_c, 7, 65, 42
9, 30060, Note_on_c, 7, 65, 0
9, 30060, Note_on_c, 7, 65, 54
9, 30090, Note_on_c, 7, 65, 0
9, 30090, Note_on_c, 7, 65, 59
9, 30120, Note_on_c, 7, 65, 0
9, 30120, Note_on_c, 7, 65, 49
9, 30150, Note_on_c, 7, 65, 0
9, 30150, Note_on_c, 7, 65, 52
9, 30180, Note_on_c, 7, 65, 0
9, 30180, Note_on_c, 7, 65, 47
9, 30210, Note_on_c, 7, 65, 0
9, 30210, Note_on_c, 7, 65, 53
9, 30240, Note_on_c, 7, 65, 0
9, 30240, Note_on_c, 7, 65, 64
9, 30270, Note_on_c, 7, 65, 0
9, 30270, Note_on_c, 7, 65, 47
9, 30300, Note_on_c, 7, 65, 0
9, 30300, Note_on_c, 7, 65, 46
9, 30330, Note_on_c, 7, 65, 0
9, 30330, Note_on_c, 7, 65, 45
9, 30360, Note_on_c, 7, 65, 0
9, 30360, Note_on_c, 7, 65, 43
9, 30390, Note_on_c, 7, 65, 0
9, 30390, Note_on_c, 7, 65, 43
9, 30420, Note_on_c, 7, 65, 0
9, 30420, Note_on_c, 7, 65, 44
9, 30450, Note_on_c, 7, 65, 0
9, 30450, Note_on_c, 7, 65, 45
9, 30480, Note_on_c, 7, 65, 0
9, 30480, Note_on_c, 7, 65, 46
9, 30510, Note_on_c, 7, 65, 0
9, 30510, Note_on_c, 7, 65, 40
9, 30540, Note_on_c, 7, 65, 0
9, 30540, Note_on_c, 7, 65, 44
9, 30570, Note_on_c, 7, 65, 0
9, 30570, Note_on_c, 7, 65, 57
9, 30600, Note_on_c, 7, 65, 0
9, 30600, Note_on_c, 7, 65, 57
9, 30630, Note_on_c, 7, 65, 0
9, 30630, Note_on_c, 7, 65, 54
9, 30660, Note_on_c, 7, 65, 0
9, 30660, Note_on_c, 7, 65, 47
9, 30690, Note_on_c, 7, 65, 0
9, 30690, Note_on_c, 7, 65, 53
9, 30720, Note_on_c, 7, 65, 0
9, 30720, Note_on_c, 7, 65, 99
9, 30750, Note_on_c, 7, 65, 0
9, 30750, Note_on_c, 7, 65, 90
9, 30780, Note_on_c, 7, 65, 0
9, 30780, Note_on_c, 7, 65, 61
9, 30810, Note_on_c, 7, 65, 0
9, 30810, Note_on_c, 7, 65, 54
9, 30840, Note_on_c, 7, 65, 0
9, 30840, Note_on_c, 7, 65, 43
9, 30870, Note_on_c, 7, 65, 0
9, 30870, Note_on_c, 7, 65, 38
9, 30900, Note_on_c, 7, 65, 0
9, 30900, Note_on_c, 7, 65, 49
9, 30930, Note_on_c, 7, 65, 0
9, 30930, Note_on_c, 7, 65, 38
9, 30960, Note_on_c, 7, 65, 0
9, 30960, Note_on_c, 7, 65, 46
9, 30990, Note_on_c, 7, 65, 0
9, 30990, Note_on_c, 7, 65, 45
9, 31020, Note_on_c, 7, 65, 0
9, 31020, Note_on_c, 7, 65, 41
9, 31050, Note_on_c, 7, 65, 0
9, 31050, Note_on_c, 7, 65, 42
9, 31080, Note_on_c, 7, 65, 0
9, 31080, Note_on_c, 7, 65, 37
9, 31110, Note_on_c, 7, 65, 0
9, 31110, Note_on_c, 7, 65, 43
9, 31140, Note_on_c, 7, 65, 0
9, 31140, Note_on_c, 7, 65, 42
9, 31170, Note_on_c, 7, 65, 0
9, 31170, Note_on_c, 7, 65, 42
9, 31200, Note_on_c, 7, 65, 0
9, 31200, Note_on_c, 7, 65, 53
9, 31230, Note_on_c, 7, 65, 0
9, 31230, Note_on_c, 7, 65, 44
9, 31260, Note_on_c, 7, 65, 0
9, 31260, Note_on_c, 7, 65, 44
9, 31290, Note_on_c, 7, 65, 0
9, 31290, Note_on_c, 7, 65, 45
9, 31320, Note_on_c, 7, 65, 0
9, 31320, Note_on_c, 7, 65, 44
9, 31350, Note_on_c, 7, 65, 0
9, 31350, Note_on_c, 7, 65, 42
9, 31380, Note_on_c, 7, 65, 0
9, 31380, Note_on_c, 7, 65, 46
9, 31410, Note_on_c, 7, 65, 0
9, 31410, Note_on_c, 7, 65, 45
9, 31440, Note_on_c, 7, 65, 0
9, 31440, Note_on_c, 7, 65, 43
9, 31470, Note_on_c, 7, 65, 0
9, 31470, Note_on_c, 7, 65, 43
9, 31500, Note_on_c, 7, 65, 0
9, 31500, Note_on_c, 7, 65, 43
9, 31530, Note_on_c, 7, 65, 0
9, 31530, Note_on_c, 7, 65, 41
9, 31560, Note_on_c, 7, 65, 0
9, 31560, Note_on_c, 7, 65, 44
9, 31590, Note_on_c, 7, 65, 0
9, 31590, Note_on_c, 7, 65, 38
9, 31620, Note_on_c, 7, 65, 0
9, 31620, Note_on_c, 7, 65, 44
9, 31650, Note_on_c, 7, 65, 0
9, 31650, Note_on_c, 7, 65, 42
9, 31680, Note_on_c, 7, 65, 0
9, 31680, Note_on_c, 7, 68, 95
9, 31680, Note_on_c, 7, 65, 101
9, 31710, Note_on_c, 7, 65, 0
9, 31710, Note_on_c, 7, 68, 0
9, 31710, Note_on_c, 7, 68, 80
9, 31710, Note_on_c, 7, 65, 84
9, 31740, Note_on_c, 7, 65, 0
9, 31740, Note_on_c, 7, 68, 0
9, 31740, Note_on_c, 7, 68, 40
9, 31740, Note_on_c, 7, 65, 56
9, 31770, Note_on_c, 7, 65, 0
9, 31770, Note_on_c, 7, 68, 0
9, 31770, Note_on_c, 7, 68, 41
9, 31770, Note_on_c, 7, 65, 46
9, 31800, Note_on_c, 7, 65, 0
9, 31800, Note_on_c, 7, 68, 0
9, 31800, Note_on_c, 7, 68, 35
9, 31800, Note_on_c, 7, 65, 41
9, 31830, Note_on_c, 7, 65, 0
9, 31830, Note_on_c, 7, 68, 0
9, 31830, Note_on_c, 7, 68, 40
9, 31830, Note_on_c, 7, 65, 43
9, 31860, Note_on_c, 7, 65, 0
9, 31860, Note_on_c, 7, 68, 0
9, 31860, Note_on_c, 7, 68, 36
9, 31860, Note_on_c, 7, 65, 38
9, 31890, Note_on_c, 7, 65, 0
9, 31890, Note_on_c, 7, 68, 0
9, 31890, Note_on_c, 7, 68, 38
9, 31890, Note_on_c, 7, 65, 42
9, 31920, Note_on_c, 7, 65, 0
9, 31920, Note_on_c, 7, 68, 0
9, 31920, Note_on_c, 7, 68, 32
9, 31920, Note_on_c, 7, 65, 43
9, 31950, Note_on_c, 7, 65, 0
9, 31950, Note_on_c, 7, 68, 0
9, 31950, Note_on_c, 7, 68, 31
9, 31950, Note_on_c, 7, 65, 37
9, 31980, Note_on_c, 7, 65, 0
9, 31980, Note_on_c, 7, 68, 0
9, 31980, Note_on_c, 7, 68, 36
9, 31980, Note_on_c, 7, 65, 41
9, 32010, Note_on_c, 7, 65, 0
9, 32010, Note_on_c, 7, 68, 0
9, 32010, Note_on_c, 7, 68, 32
9, 32010, Note_on_c, 7, 65, 40
9, 32040, Note_on_c, 7, 65, 0
9, 32040, Note_on_c, 7, 68, 0
9, 32040, Note_on_c, 7, 68, 33
9, 32040, Note_on_c, 7, 65, 42
9, 32070, Note_on_c, 7, 65, 0
9, 32070, Note_on_c, 7, 68, 0
9, 32070, Note_on_c, 7, 68, 35
9, 32070, Note_on_c, 7, 65, 46
9, 32100, Note_on_c, 7, 65, 0
9, 32100, Note_on_c, 7, 68, 0
9, 32100, Note_on_c, 7, 68, 36
9, 32100, Note_on_c, 7, 65, 38
9, 32130, Note_on_c, 7, 65, 0
9, 32130, Note_on_c, 7, 68, 0
9, 32130, Note_on_c, 7, 68, 38
9, 32130, Note_on_c, 7, 65, 38
9, 32160, Note_on_c, 7, 65, 0
9, 32160, Note_on_c, 7, 68, 0
9, 32160, Note_on_c, 7, 67, 40
9, 32160, Note_on_c, 7, 65, 45
9, 32190, Note_on_c, 7, 65, 0
9, 32190, Note_on_c, 7, 67, 0
9, 32190, Note_on_c, 7, 67, 38
9, 32190, Note_on_c, 7, 65, 40
9, 32220, Note_on_c, 7, 65, 0
9, 32220, Note_on_c, 7, 67, 0
9, 32220, Note_on_c, 7, 67, 38
9, 32220, Note_on_c, 7, 65, 38
9, 32250, Note_on_c, 7, 65, 0
9, 32250, Note_on_c, 7, 67, 0
9, 32250, Note_on_c, 7, 67, 37
9, 32250, Note_on_c, 7, 65, 35
9, 32280, Note_on_c, 7, 65, 0
9, 32280, Note_on_c, 7, 67, 0
9, 32280, Note_on_c, 7, 67, 35
9, 32280, Note_on_c, 7, 65, 32
9, 32310, Note_on_c, 7, 65, 0
9, 32310, Note_on_c, 7, 67, 0
9, 32310, Note_on_c, 7, 67, 39
9, 32310, Note_on_c, 7, 65, 40
9, 32340, Note_on_c, 7, 65, 0
9, 32340, Note_on_c, 7, 67, 0
9, 32340, Note_on_c, 7, 67, 38
9, 32340, Note_on_c, 7, 65, 40
9, 32370, Note_on_c, 7, 65, 0
9, 32370, Note_on_c, 7, 67, 0
9, 32370, Note_on_c, 7, 67, 43
9, 32370, Note_on_c, 7, 65, 44
9, 32400, Note_on_c, 7, 65, 0
9, 32400, Note_on_c, 7, 67, 0
9, 32400, Note_on_c, 7, 67, 36
9, 32400, Note_on_c, 7, 65, 31
9, 32430, Note_on_c, 7, 65, 0
9, 32430, Note_on_c, 7, 67, 0
9, 32430, Note_on_c, 7, 67, 35
9, 32430, Note_on_c, 7, 65, 35
9, 32460, Note_on_c, 7, 65, 0
9, 32460, Note_on_c, 7, 67, 0
9, 32460, Note_on_c, 7, 67, 38
9, 32460, Note_on_c, 7, 65, 40
9, 32490, Note_on_c, 7, 65, 0
9, 32490, Note_on_c, 7, 67, 0
9, 32490, Note_on_c, 7, 67, 38
9, 32490, Note_on_c, 7, 65, 36
9, 32520, Note_on_c, 7, 65, 0
9, 32520, Note_on_c, 7, 67, 0
9, 32520, Note_on_c, 7, 67, 38
9, 32520, Note_on_c, 7, 65, 36
9, 32550, Note_on_c, 7, 65, 0
9, 32550, Note_on_c, 7, 67, 0
9, 32550, Note_on_c, 7, 67, 35
9, 32550, Note_on_c, 7, 65, 31
9, 32580, Note_on_c, 7, 65, 0
9, 32580, Note_on_c, 7, 67, 0
9, 32580, Note_on_c, 7, 67, 39
9, 32580, Note_on_c, 7, 65, 38
9, 32610, Note_on_c, 7, 65, 0
9, 32610, Note_on_c, 7, 67, 0
9, 32610, Note_on_c, 7, 67, 38
9, 32610, Note_on_c, 7, 65, 40
9, 32640, Note_on_c, 7, 65, 0
9, 32640, Note_on_c, 7, 67, 0
9, 32640, Note_on_c, 7, 67, 99
9, 32685, Note_on_c, 7, 67, 0
9, 32730, Note_on_c, 7, 55, 94
9, 32745, Note_on_c, 7, 55, 0
9, 32760, Note_on_c, 7, 55, 84
9, 32880, Note_on_c, 7, 55, 0
9, 33120, Note_on_c, 7, 56, 101
9, 33165, Note_on_c, 7, 56, 0
9, 33210, Note_on_c, 7, 68, 86
9, 33225, Note_on_c, 7, 68, 0
9, 33240, Note_on_c, 7, 68, 86
9, 33360, Note_on_c, 7, 68, 0
9, 33600, Note_on_c, 7, 56, 94
9, 33645, Note_on_c, 7, 56, 0
9, 33690, Note_on_c, 7, 56, 84
9, 33705, Note_on_c, 7, 56, 0
9, 33720, Note_on_c, 7, 68, 68
9, 33840, Note_on_c, 7, 68, 0
9, 34080, Note_on_c, 7, 58, 93
9, 34125, Note_on_c, 7, 58, 0
9, 34170, Note_on_c, 7, 58, 77
9, 34185, Note_on_c, 7, 58, 0
9, 34200, Note_on_c, 7, 70, 76
9, 34320, Note_on_c, 7, 70, 0
9, 34560, Note_on_c, 7, 58, 94
9, 34605, Note_on_c, 7, 58, 0
9, 34650, Note_on_c, 7, 70, 99
9, 34665, Note_on_c, 7, 70, 0
9, 34680, Note_on_c, 7, 70, 101
9, 34800, Note_on_c, 7, 70, 0
9, 35520, Note_on_c, 7, 55, 95
9, 35760, Note_on_c, 7, 55, 0
9, 35760, Note_on_c, 7, 57, 95
9, 35880, Note_on_c, 7, 57, 0
9, 36000, Note_on_c, 7, 60, 105
9, 36240, Note_on_c, 7, 60, 0
9, 36240, Note_on_c, 7, 62, 81
9, 36360, Note_on_c, 7, 62, 0
9, 36480, Note_on_c, 7, 62, 104
9, 36720, Note_on_c, 7, 62, 0
9, 36720, Note_on_c, 7, 63, 89
9, 36840, Note_on_c, 7, 63, 0
9, 36840, Note_on_c, 7, 65, 95
9, 36900, Note_on_c, 7, 65, 0
9, 36900, Note_on_c, 7, 67, 94
9, 36960, Note_on_c, 7, 67, 0
9, 36960, Note_on_c, 7, 65, 95
9, 37440, Note_on_c, 7, 65, 0
9, 37440, Note_on_c, 7, 68, 104
9, 37680, Note_on_c, 7, 68, 0
9, 37680, Note_on_c, 7, 68, 73
9, 37740, Note_on_c, 7, 68, 0
9, 37740, Note_on_c, 7, 67, 93
9, 37800, Note_on_c, 7, 67, 0
9, 37800, Note_on_c, 7, 65, 64
9, 37860, Note_on_c, 7, 65, 0
9, 37860, Note_on_c, 7, 63, 80
9, 37920, Note_on_c, 7, 63, 0
9, 37920, Note_on_c, 7, 65, 94
9, 38280, Note_on_c, 7, 65, 0
9, 38340, Note_on_c, 7, 63, 80
9, 38400, Note_on_c, 7, 63, 0
9, 38400, Note_on_c, 7, 62, 99
9, 38520, Note_on_c, 7, 62, 0
9, 38520, Note_on_c, 7, 70, 90
9, 38550, Note_on_c, 7, 70, 0
9, 38580, Note_on_c, 7, 69, 94
9, 38610, Note_on_c, 7, 69, 0
9, 38640, Note_on_c, 7, 67, 90
9, 38700, Note_on_c, 7, 67, 0
9, 38700, Note_on_c, 7, 66, 94
9, 38760, Note_on_c, 7, 66, 0
9, 38760, Note_on_c, 7, 67, 94
9, 38790, Note_on_c, 7, 67, 0
9, 38820, Note_on_c, 7, 65, 93
9, 38850, Note_on_c, 7, 65, 0
9, 38880, Note_on_c, 7, 63, 95
9, 38940, Note_on_c, 7, 63, 0
9, 38940, Note_on_c, 7, 62, 84
9, 39000, Note_on_c, 7, 62, 0
9, 39000, Note_on_c, 7, 63, 86
9, 39030, Note_on_c, 7, 63, 0
9, 39060, Note_on_c, 7, 60, 84
9, 39090, Note_on_c, 7, 60, 0
9, 39120, Note_on_c, 7, 65, 105
9, 39180, Note_on_c, 7, 65, 0
9, 39180, Note_on_c, 7, 64, 89
9, 39240, Note_on_c, 7, 64, 0
9, 39240, Note_on_c, 7, 65, 94
9, 39270, Note_on_c, 7, 65, 0
9, 39300, Note_on_c, 7, 53, 80
9, 39330, Note_on_c, 7, 53, 0
9, 39360, Note_on_c, 7, 70, 99
9, 39420, Note_on_c, 7, 70, 0
9, 39420, Note_on_c, 7, 69, 99
9, 39480, Note_on_c, 7, 69, 0
9, 39480, Note_on_c, 7, 70, 99
9, 39510, Note_on_c, 7, 70, 0
9, 39540, Note_on_c, 7, 69, 99
9, 39570, Note_on_c, 7, 69, 0
9, 39600, Note_on_c, 7, 67, 99
9, 39660, Note_on_c, 7, 67, 0
9, 39660, Note_on_c, 7, 66, 99
9, 39720, Note_on_c, 7, 66, 0
9, 39720, Note_on_c, 7, 67, 95
9, 39750, Note_on_c, 7, 67, 0
9, 39780, Note_on_c, 7, 65, 104
9, 39810, Note_on_c, 7, 65, 0
9, 39840, Note_on_c, 7, 63, 89
9, 39900, Note_on_c, 7, 63, 0
9, 39900, Note_on_c, 7, 62, 99
9, 39960, Note_on_c, 7, 62, 0
9, 39960, Note_on_c, 7, 63, 95
9, 39990, Note_on_c, 7, 63, 0
9, 40020, Note_on_c, 7, 60, 89
9, 40050, Note_on_c, 7, 60, 0
9, 40080, Note_on_c, 7, 65, 101
9, 40140, Note_on_c, 7, 65, 0
9, 40140, Note_on_c, 7, 64, 101
9, 40200, Note_on_c, 7, 64, 0
9, 40200, Note_on_c, 7, 65, 99
9, 40230, Note_on_c, 7, 65, 0
9, 40260, Note_on_c, 7, 53, 99
9, 40290, Note_on_c, 7, 53, 0
9, 40320, Note_on_c, 7, 58, 90
9, 40440, Note_on_c, 7, 58, 0
9, 40440, Note_on_c, 7, 58, 71
9, 40530, Note_on_c, 7, 58, 0
9, 40560, Note_on_c, 7, 58, 63
9, 40650, Note_on_c, 7, 58, 0
9, 40680, Note_on_c, 7, 58, 71
9, 40770, Note_on_c, 7, 58, 0
9, 40800, Note_on_c, 7, 60, 68
9, 41040, Note_on_c, 7, 60, 0
9, 41040, Note_on_c, 7, 57, 77
9, 41220, Note_on_c, 7, 57, 0
9, 41220, Note_on_c, 7, 53, 68
9, 41280, Note_on_c, 7, 53, 0
9, 41280, Note_on_c, 7, 58, 63
9, 41400, Note_on_c, 7, 58, 0
9, 41580, Note_on_c, 7, 53, 73
9, 41640, Note_on_c, 7, 53, 0
9, 41640, Note_on_c, 7, 50, 72
9, 41700, Note_on_c, 7, 50, 0
9, 41700, Note_on_c, 7, 53, 77
9, 41760, Note_on_c, 7, 53, 0
9, 41760, Note_on_c, 7, 51, 77
9, 41820, Note_on_c, 7, 51, 0
9, 41820, Note_on_c, 7, 53, 80
9, 41880, Note_on_c, 7, 53, 0
9, 41880, Note_on_c, 7, 51, 77
9, 41940, Note_on_c, 7, 51, 0
9, 41940, Note_on_c, 7, 53, 73
9, 42000, Note_on_c, 7, 53, 0
9, 42000, Note_on_c, 7, 51, 73
9, 42060, Note_on_c, 7, 51, 0
9, 42060, Note_on_c, 7, 53, 72
9, 42120, Note_on_c, 7, 53, 0
9, 42120, Note_on_c, 7, 51, 71
9, 42180, Note_on_c, 7, 51, 0
9, 42180, Note_on_c, 7, 53, 76
9, 42240, Note_on_c, 7, 53, 0
9, 42240, Note_on_c, 7, 50, 80
9, 42360, Note_on_c, 7, 50, 0
9, 42480, Note_on_c, 7, 70, 99
9, 42600, Note_on_c, 7, 70, 0
9, 42720, Note_on_c, 7, 58, 95
9, 42840, Note_on_c, 7, 58, 0
9, 45240, Note_on_c, 7, 60, 58
9, 45360, Note_on_c, 7, 60, 0
9, 45720, Note_on_c, 7, 62, 52
9, 45840, Note_on_c, 7, 62, 0
9, 46200, Note_on_c, 7, 60, 62
9, 46320, Note_on_c, 7, 60, 0
9, 46440, Note_on_c, 7, 60, 57
9, 46560, Note_on_c, 7, 60, 0
9, 46680, Note_on_c, 7, 60, 56
9, 46800, Note_on_c, 7, 60, 0
9, 46920, Note_on_c, 7, 58, 53
9, 47040, Note_on_c, 7, 58, 0
9, 47160, Note_on_c, 7, 63, 58
9, 47280, Note_on_c, 7, 63, 0
9, 47520, Note_on_c, 7, 65, 64
9, 47640, Note_on_c, 7, 65, 0
9, 48360, Note_on_c, 7, 60, 61
9, 48480, Note_on_c, 7, 60, 0
9, 48480, Note_on_c, 7, 58, 93
9, 48520, Control_c, 7, 7, 99
9, 48524, Control_c, 7, 7, 98
9, 48526, Control_c, 7, 7, 97
9, 48528, Control_c, 7, 7, 96
9, 48530, Control_c, 7, 7, 95
9, 48532, Control_c, 7, 7, 94
9, 48534, Control_c, 7, 7, 93
9, 48536, Control_c, 7, 7, 92
9, 48538, Control_c, 7, 7, 91
9, 48540, Control_c, 7, 7, 90
9, 48544, Control_c, 7, 7, 89
9, 48546, Control_c, 7, 7, 88
9, 48548, Control_c, 7, 7, 87
9, 48550, Control_c, 7, 7, 86
9, 48552, Control_c, 7, 7, 85
9, 48554, Control_c, 7, 7, 84
9, 48556, Control_c, 7, 7, 83
9, 48558, Control_c, 7, 7, 82
9, 48560, Control_c, 7, 7, 81
9, 48564, Control_c, 7, 7, 80
9, 48566, Control_c, 7, 7, 79
9, 48568, Control_c, 7, 7, 78
9, 48570, Control_c, 7, 7, 77
9, 48572, Control_c, 7, 7, 76
9, 48574, Control_c, 7, 7, 75
9, 48576, Control_c, 7, 7, 74
9, 48578, Control_c, 7, 7, 73
9, 48580, Control_c, 7, 7, 72
9, 48584, Control_c, 7, 7, 71
9, 48586, Control_c, 7, 7, 70
9, 48588, Control_c, 7, 7, 69
9, 48590, Control_c, 7, 7, 68
9, 48592, Control_c, 7, 7, 67
9, 48594, Control_c, 7, 7, 66
9, 48596, Control_c, 7, 7, 65
9, 48598, Control_c, 7, 7, 64
9, 48600, Control_c, 7, 7, 63
9, 48720, Note_on_c, 7, 58, 0
9, 48720, Note_on_c, 7, 50, 101
9, 48960, Note_on_c, 7, 50, 0
9, 48960, Note_on_c, 7, 51, 94
9, 49200, Note_on_c, 7, 51, 0
9, 49200, Note_on_c, 7, 53, 94
9, 49438, Control_c, 7, 7, 63
9, 49440, Note_on_c, 7, 53, 0
9, 49440, Note_on_c, 7, 58, 93
9, 49452, Control_c, 7, 7, 64
9, 49466, Control_c, 7, 7, 65
9, 49480, Control_c, 7, 7, 66
9, 49492, Control_c, 7, 7, 67
9, 49506, Control_c, 7, 7, 68
9, 49520, Control_c, 7, 7, 69
9, 49532, Control_c, 7, 7, 70
9, 49546, Control_c, 7, 7, 71
9, 49560, Control_c, 7, 7, 72
9, 49572, Control_c, 7, 7, 73
9, 49586, Control_c, 7, 7, 74
9, 49600, Control_c, 7, 7, 75
9, 49614, Control_c, 7, 7, 76
9, 49626, Control_c, 7, 7, 77
9, 49640, Control_c, 7, 7, 78
9, 49654, Control_c, 7, 7, 79
9, 49666, Control_c, 7, 7, 80
9, 49680, Note_on_c, 7, 58, 0
9, 49680, Note_on_c, 7, 62, 94
9, 49680, Note_on_c, 7, 65, 86
9, 49680, Control_c, 7, 7, 81
9, 49694, Control_c, 7, 7, 82
9, 49706, Control_c, 7, 7, 83
9, 49720, Control_c, 7, 7, 84
9, 49734, Control_c, 7, 7, 85
9, 49746, Control_c, 7, 7, 86
9, 49760, Control_c, 7, 7, 87
9, 49774, Control_c, 7, 7, 88
9, 49788, Control_c, 7, 7, 89
9, 49800, Control_c, 7, 7, 90
9, 49814, Control_c, 7, 7, 91
9, 49828, Control_c, 7, 7, 92
9, 49840, Control_c, 7, 7, 93
9, 49854, Control_c, 7, 7, 94
9, 49868, Control_c, 7, 7, 95
9, 49880, Control_c, 7, 7, 96
9, 49894, Control_c, 7, 7, 97
9, 49908, Control_c, 7, 7, 98
9, 49920, Note_on_c, 7, 65, 0
9, 49920, Note_on_c, 7, 62, 0
9, 49920, Control_c, 7, 7, 99
9, 49920, Note_on_c, 7, 63, 94
9, 50160, Note_on_c, 7, 63, 0
9, 50160, Note_on_c, 7, 60, 95
9, 50400, Note_on_c, 7, 60, 0
9, 50400, Note_on_c, 7, 58, 89
9, 50520, Note_on_c, 7, 58, 0
9, 51000, Note_on_c, 7, 62, 69
9, 51120, Note_on_c, 7, 62, 0
9, 51240, Note_on_c, 7, 62, 52
9, 51360, Note_on_c, 7, 62, 0
9, 51480, Note_on_c, 7, 62, 62
9, 51600, Note_on_c, 7, 62, 0
9, 51960, Note_on_c, 7, 59, 64
9, 52080, Note_on_c, 7, 59, 0
9, 52200, Note_on_c, 7, 59, 62
9, 52320, Note_on_c, 7, 59, 0
9, 52440, Note_on_c, 7, 60, 71
9, 52560, Note_on_c, 7, 60, 0
9, 52920, Note_on_c, 7, 60, 55
9, 53040, Note_on_c, 7, 60, 0
9, 53160, Note_on_c, 7, 67, 58
9, 53280, Note_on_c, 7, 67, 0
9, 53400, Note_on_c, 7, 66, 64
9, 53520, Note_on_c, 7, 66, 0
9, 53880, Note_on_c, 7, 57, 61
9, 54000, Note_on_c, 7, 57, 0
9, 54120, Note_on_c, 7, 57, 60
9, 54240, Note_on_c, 7, 57, 0
9, 54360, Note_on_c, 7, 58, 60
9, 54480, Note_on_c, 7, 58, 0
9, 54840, Note_on_c, 7, 67, 74
9, 54960, Note_on_c, 7, 67, 0
9, 55320, Note_on_c, 7, 67, 61
9, 55440, Note_on_c, 7, 67, 0
9, 55800, Note_on_c, 7, 67, 65
9, 55920, Note_on_c, 7, 67, 0
9, 56040, Note_on_c, 7, 67, 59
9, 56160, Note_on_c, 7, 67, 0
9, 56280, Note_on_c, 7, 67, 72
9, 56400, Note_on_c, 7, 67, 0
9, 56520, Note_on_c, 7, 67, 69
9, 56640, Note_on_c, 7, 67, 0
9, 56760, Note_on_c, 7, 52, 50
9, 56880, Note_on_c, 7, 52, 0
9, 56880, Note_on_c, 7, 55, 61
9, 57000, Note_on_c, 7, 55, 0
9, 57000, Note_on_c, 7, 58, 39
9, 57120, Note_on_c, 7, 58, 0
9, 57240, Note_on_c, 7, 53, 44
9, 57360, Note_on_c, 7, 53, 0
9, 57360, Note_on_c, 7, 57, 57
9, 57480, Note_on_c, 7, 57, 0
9, 57480, Note_on_c, 7, 60, 45
9, 57600, Note_on_c, 7, 60, 0
9, 57720, Note_on_c, 7, 59, 37
9, 57840, Note_on_c, 7, 59, 0
9, 57840, Note_on_c, 7, 62, 57
9, 57960, Note_on_c, 7, 62, 0
9, 57960, Note_on_c, 7, 65, 48
9, 58080, Note_on_c, 7, 65, 0
9, 58080, Note_on_c, 7, 64, 43
9, 58140, Note_on_c, 7, 64, 0
9, 58260, Note_on_c, 7, 60, 45
9, 58320, Note_on_c, 7, 60, 0
9, 58320, Note_on_c, 7, 62, 45
9, 58380, Note_on_c, 7, 62, 0
9, 58500, Note_on_c, 7, 62, 56
9, 58560, Note_on_c, 7, 62, 0
9, 58560, Note_on_c, 7, 60, 45
9, 58620, Note_on_c, 7, 60, 0
9, 60480, Note_on_c, 7, 60, 53
9, 60540, Note_on_c, 7, 60, 0
9, 60540, Note_on_c, 7, 62, 58
9, 60600, Note_on_c, 7, 62, 0
9, 60600, Note_on_c, 7, 58, 76
9, 60660, Note_on_c, 7, 58, 0
9, 60660, Note_on_c, 7, 60, 76
9, 60720, Note_on_c, 7, 60, 0
9, 60720, Note_on_c, 7, 57, 76
9, 60780, Note_on_c, 7, 57, 0
9, 60780, Note_on_c, 7, 58, 84
9, 60840, Note_on_c, 7, 58, 0
9, 60840, Note_on_c, 7, 55, 94
9, 60900, Note_on_c, 7, 55, 0
9, 60900, Note_on_c, 7, 57, 99
9, 60960, Note_on_c, 7, 57, 0
9, 60960, Note_on_c, 7, 53, 99
9, 61020, Control_c, 7, 7, 98
9, 61022, Control_c, 7, 7, 97
9, 61024, Control_c, 7, 7, 96
9, 61026, Control_c, 7, 7, 95
9, 61028, Control_c, 7, 7, 94
9, 61030, Control_c, 7, 7, 93
9, 61032, Control_c, 7, 7, 92
9, 61034, Control_c, 7, 7, 91
9, 61036, Control_c, 7, 7, 90
9, 61038, Control_c, 7, 7, 89
9, 61040, Control_c, 7, 7, 88
9, 61042, Control_c, 7, 7, 87
9, 61044, Control_c, 7, 7, 86
9, 61046, Control_c, 7, 7, 85
9, 61048, Control_c, 7, 7, 84
9, 61050, Control_c, 7, 7, 83
9, 61052, Control_c, 7, 7, 82
9, 61054, Control_c, 7, 7, 81
9, 61056, Control_c, 7, 7, 80
9, 61058, Control_c, 7, 7, 79
9, 61060, Control_c, 7, 7, 78
9, 61062, Control_c, 7, 7, 77
9, 61064, Control_c, 7, 7, 76
9, 61066, Control_c, 7, 7, 75
9, 61068, Control_c, 7, 7, 74
9, 61070, Control_c, 7, 7, 73
9, 61072, Control_c, 7, 7, 72
9, 61074, Control_c, 7, 7, 71
9, 61076, Control_c, 7, 7, 70
9, 61078, Control_c, 7, 7, 69
9, 61080, Note_on_c, 7, 53, 0
9, 61080, Control_c, 7, 7, 68
9, 61080, Note_on_c, 7, 57, 99
9, 61082, Control_c, 7, 7, 66
9, 61200, Note_on_c, 7, 57, 0
9, 61200, Note_on_c, 7, 58, 99
9, 61320, Note_on_c, 7, 58, 0
9, 61320, Note_on_c, 7, 52, 99
9, 61440, Note_on_c, 7, 52, 0
9, 61440, Note_on_c, 7, 53, 98
9, 61560, Note_on_c, 7, 53, 0
9, 61920, Note_on_c, 7, 62, 94
9, 61980, Note_on_c, 7, 62, 0
9, 62040, Note_on_c, 7, 62, 90
9, 62100, Note_on_c, 7, 62, 0
9, 62160, Note_on_c, 7, 62, 89
9, 62220, Note_on_c, 7, 62, 0
9, 62280, Note_on_c, 7, 60, 95
9, 62340, Note_on_c, 7, 60, 0
9, 62400, Control_c, 7, 7, 99
9, 62400, Note_on_c, 7, 69, 101
9, 62580, Note_on_c, 7, 69, 0
9, 62580, Note_on_c, 7, 66, 82
9, 62640, Note_on_c, 7, 66, 0
9, 62640, Note_on_c, 7, 67, 94
9, 62700, Note_on_c, 7, 67, 0
9, 62880, Note_on_c, 7, 60, 78
9, 62880, Note_on_c, 7, 48, 85
9, 62940, Control_c, 7, 7, 99
9, 62942, Control_c, 7, 7, 98
9, 62944, Control_c, 7, 7, 97
9, 62946, Control_c, 7, 7, 96
9, 62948, Control_c, 7, 7, 95
9, 62950, Control_c, 7, 7, 94
9, 62952, Control_c, 7, 7, 93
9, 62954, Control_c, 7, 7, 92
9, 62956, Control_c, 7, 7, 91
9, 62958, Control_c, 7, 7, 90
9, 62960, Control_c, 7, 7, 89
9, 62962, Control_c, 7, 7, 88
9, 62964, Control_c, 7, 7, 87
9, 62966, Control_c, 7, 7, 86
9, 62968, Control_c, 7, 7, 85
9, 62970, Control_c, 7, 7, 84
9, 62972, Control_c, 7, 7, 82
9, 62974, Control_c, 7, 7, 81
9, 62976, Control_c, 7, 7, 80
9, 62978, Control_c, 7, 7, 79
9, 62980, Control_c, 7, 7, 78
9, 62982, Control_c, 7, 7, 77
9, 62984, Control_c, 7, 7, 76
9, 62986, Control_c, 7, 7, 75
9, 62988, Control_c, 7, 7, 74
9, 62990, Control_c, 7, 7, 73
9, 62992, Control_c, 7, 7, 72
9, 62994, Control_c, 7, 7, 71
9, 62996, Control_c, 7, 7, 70
9, 62998, Control_c, 7, 7, 69
9, 63000, Note_on_c, 7, 48, 0
9, 63000, Note_on_c, 7, 60, 0
9, 63000, Control_c, 7, 7, 68
9, 63000, Note_on_c, 7, 60, 77
9, 63000, Note_on_c, 7, 48, 89
9, 63002, Control_c, 7, 7, 66
9, 63240, Note_on_c, 7, 48, 0
9, 63240, Note_on_c, 7, 60, 0
9, 63240, Note_on_c, 7, 60, 89
9, 63240, Note_on_c, 7, 48, 95
9, 63480, Note_on_c, 7, 48, 0
9, 63480, Note_on_c, 7, 60, 0
9, 63720, Note_on_c, 7, 57, 99
9, 63780, Note_on_c, 7, 57, 0
9, 63840, Note_on_c, 7, 55, 94
9, 63900, Note_on_c, 7, 55, 0
9, 63960, Note_on_c, 7, 52, 95
9, 64020, Note_on_c, 7, 52, 0
9, 64020, Note_on_c, 7, 55, 94
9, 64080, Note_on_c, 7, 55, 0
9, 64080, Note_on_c, 7, 53, 93
9, 64140, Note_on_c, 7, 53, 0
9, 64140, Note_on_c, 7, 60, 93
9, 64200, Note_on_c, 7, 60, 0
9, 64200, Note_on_c, 7, 60, 94
9, 64230, Note_on_c, 7, 60, 0
9, 64260, Note_on_c, 7, 60, 94
9, 64290, Note_on_c, 7, 60, 0
9, 64320, Control_c, 7, 7, 66
9, 64320, Note_on_c, 7, 60, 94
9, 64328, Control_c, 7, 7, 67
9, 64336, Control_c, 7, 7, 68
9, 64344, Control_c, 7, 7, 69
9, 64352, Control_c, 7, 7, 70
9, 64358, Control_c, 7, 7, 71
9, 64366, Control_c, 7, 7, 72
9, 64374, Control_c, 7, 7, 73
9, 64382, Control_c, 7, 7, 74
9, 64390, Control_c, 7, 7, 75
9, 64396, Control_c, 7, 7, 76
9, 64404, Control_c, 7, 7, 77
9, 64412, Control_c, 7, 7, 78
9, 64420, Control_c, 7, 7, 79
9, 64426, Control_c, 7, 7, 80
9, 64434, Control_c, 7, 7, 81
9, 64440, Note_on_c, 7, 60, 0
9, 64440, Note_on_c, 7, 59, 99
9, 64442, Control_c, 7, 7, 82
9, 64450, Control_c, 7, 7, 83
9, 64458, Control_c, 7, 7, 84
9, 64464, Control_c, 7, 7, 85
9, 64472, Control_c, 7, 7, 86
9, 64480, Control_c, 7, 7, 87
9, 64488, Control_c, 7, 7, 88
9, 64494, Control_c, 7, 7, 89
9, 64502, Control_c, 7, 7, 90
9, 64510, Control_c, 7, 7, 91
9, 64518, Control_c, 7, 7, 92
9, 64526, Control_c, 7, 7, 93
9, 64532, Control_c, 7, 7, 94
9, 64540, Control_c, 7, 7, 95
9, 64548, Control_c, 7, 7, 96
9, 64556, Control_c, 7, 7, 97
9, 64560, Note_on_c, 7, 59, 0
9, 64560, Note_on_c, 7, 60, 95
9, 64562, Control_c, 7, 7, 98
9, 64566, Control_c, 7, 7, 97
9, 64570, Control_c, 7, 7, 96
9, 64574, Control_c, 7, 7, 95
9, 64578, Control_c, 7, 7, 94
9, 64582, Control_c, 7, 7, 93
9, 64586, Control_c, 7, 7, 92
9, 64588, Control_c, 7, 7, 91
9, 64592, Control_c, 7, 7, 90
9, 64596, Control_c, 7, 7, 89
9, 64600, Control_c, 7, 7, 88
9, 64604, Control_c, 7, 7, 87
9, 64608, Control_c, 7, 7, 86
9, 64610, Control_c, 7, 7, 85
9, 64614, Control_c, 7, 7, 84
9, 64618, Control_c, 7, 7, 83
9, 64622, Control_c, 7, 7, 82
9, 64626, Control_c, 7, 7, 81
9, 64630, Control_c, 7, 7, 80
9, 64634, Control_c, 7, 7, 79
9, 64636, Control_c, 7, 7, 78
9, 64640, Control_c, 7, 7, 77
9, 64644, Control_c, 7, 7, 76
9, 64648, Control_c, 7, 7, 75
9, 64652, Control_c, 7, 7, 74
9, 64656, Control_c, 7, 7, 73
9, 64658, Control_c, 7, 7, 72
9, 64662, Control_c, 7, 7, 71
9, 64666, Control_c, 7, 7, 70
9, 64670, Control_c, 7, 7, 69
9, 64674, Control_c, 7, 7, 68
9, 64678, Control_c, 7, 7, 67
9, 64680, Note_on_c, 7, 60, 0
9, 64680, Control_c, 7, 7, 66
9, 64740, Control_c, 7, 7, 99
9, 64920, Note_on_c, 7, 65, 44
9, 65040, Note_on_c, 7, 65, 0
9, 65160, Note_on_c, 7, 67, 53
9, 65280, Note_on_c, 7, 67, 0
9, 65400, Note_on_c, 7, 65, 43
9, 65520, Note_on_c, 7, 65, 0
9, 66840, Note_on_c, 7, 60, 64
9, 66960, Note_on_c, 7, 60, 0
9, 67080, Note_on_c, 7, 64, 45
9, 67200, Note_on_c, 7, 64, 0
9, 67320, Note_on_c, 7, 65, 50
9, 67440, Note_on_c, 7, 65, 0
9, 67800, Note_on_c, 7, 62, 52
9, 67920, Note_on_c, 7, 62, 0
9, 67920, Note_on_c, 7, 60, 63
9, 68040, Note_on_c, 7, 60, 0
9, 68040, Note_on_c, 7, 58, 50
9, 68160, Note_on_c, 7, 58, 0
9, 68160, Note_on_c, 7, 57, 76
9, 68280, Note_on_c, 7, 57, 0
9, 69480, Note_on_c, 7, 53, 61
9, 69600, Note_on_c, 7, 53, 0
9, 69600, Note_on_c, 7, 53, 65
9, 69660, Note_on_c, 7, 53, 0
9, 69720, Note_on_c, 7, 53, 59
9, 69780, Note_on_c, 7, 53, 0
9, 69960, Note_on_c, 7, 53, 57
9, 70080, Note_on_c, 7, 53, 0
9, 70080, Note_on_c, 7, 53, 59
9, 70140, Note_on_c, 7, 53, 0
9, 70200, Note_on_c, 7, 53, 53
9, 70260, Note_on_c, 7, 53, 0
9, 71040, Note_on_c, 7, 49, 52
9, 71520, Note_on_c, 7, 49, 0
9, 71520, Note_on_c, 7, 51, 52
9, 72000, Note_on_c, 7, 51, 0
9, 72000, Note_on_c, 7, 56, 52
9, 72240, Note_on_c, 7, 56, 0
9, 72240, Note_on_c, 7, 53, 55
9, 72480, Note_on_c, 7, 53, 0
9, 72480, Note_on_c, 7, 51, 43
9, 72960, Note_on_c, 7, 51, 0
9, 72960, Note_on_c, 7, 53, 47
9, 73080, Note_on_c, 7, 53, 0
9, 73080, Note_on_c, 7, 56, 61
9, 73200, Note_on_c, 7, 56, 0
9, 73320, Note_on_c, 7, 56, 46
9, 73440, Note_on_c, 7, 56, 0
9, 73560, Note_on_c, 7, 56, 64
9, 73680, Note_on_c, 7, 56, 0
9, 73800, Note_on_c, 7, 55, 60
9, 73920, Note_on_c, 7, 55, 0
9, 74040, Note_on_c, 7, 53, 55
9, 74160, Note_on_c, 7, 53, 0
9, 74280, Note_on_c, 7, 65, 42
9, 74400, Note_on_c, 7, 65, 0
9, 74520, Note_on_c, 7, 65, 62
9, 74640, Note_on_c, 7, 65, 0
9, 74760, Note_on_c, 7, 55, 65
9, 74880, Note_on_c, 7, 55, 0
9, 74880, Note_on_c, 7, 57, 76
9, 74910, Note_on_c, 7, 57, 0
9, 74940, Note_on_c, 7, 60, 60
9, 74970, Note_on_c, 7, 60, 0
9, 75000, Note_on_c, 7, 60, 69
9, 75030, Note_on_c, 7, 60, 0
9, 75060, Note_on_c, 7, 60, 65
9, 75090, Note_on_c, 7, 60, 0
9, 75120, Note_on_c, 7, 60, 93
9, 75360, Note_on_c, 7, 60, 0
9, 75360, Note_on_c, 7, 60, 40
9, 75420, Note_on_c, 7, 60, 0
9, 75420, Note_on_c, 7, 57, 65
9, 75450, Note_on_c, 7, 57, 0
9, 75480, Note_on_c, 7, 57, 74
9, 75510, Note_on_c, 7, 57, 0
9, 75540, Note_on_c, 7, 57, 71
9, 75570, Note_on_c, 7, 57, 0
9, 75600, Note_on_c, 7, 55, 93
9, 75840, Note_on_c, 7, 55, 0
9, 75840, Note_on_c, 7, 57, 84
9, 75900, Note_on_c, 7, 57, 0
9, 75900, Note_on_c, 7, 60, 64
9, 75960, Note_on_c, 7, 60, 0
9, 75960, Note_on_c, 7, 60, 68
9, 76020, Note_on_c, 7, 60, 0
9, 76020, Note_on_c, 7, 60, 63
9, 76080, Note_on_c, 7, 60, 0
9, 76080, Note_on_c, 7, 60, 62
9, 76140, Note_on_c, 7, 60, 0
9, 76140, Note_on_c, 7, 60, 62
9, 76200, Note_on_c, 7, 60, 0
9, 76200, Note_on_c, 7, 60, 58
9, 76260, Note_on_c, 7, 60, 0
9, 76260, Note_on_c, 7, 60, 62
9, 76320, Note_on_c, 7, 60, 0
9, 76320, Note_on_c, 7, 60, 65
9, 76380, Note_on_c, 7, 60, 0
9, 76380, Note_on_c, 7, 57, 64
9, 76440, Note_on_c, 7, 57, 0
9, 76440, Note_on_c, 7, 57, 81
9, 76500, Note_on_c, 7, 57, 0
9, 76500, Note_on_c, 7, 57, 73
9, 76560, Note_on_c, 7, 57, 0
9, 76560, Note_on_c, 7, 55, 56
9, 76620, Note_on_c, 7, 55, 0
9, 76620, Note_on_c, 7, 55, 61
9, 76680, Note_on_c, 7, 55, 0
9, 76680, Note_on_c, 7, 55, 62
9, 76740, Note_on_c, 7, 55, 0
9, 76740, Note_on_c, 7, 55, 70
9, 76800, Note_on_c, 7, 55, 0
9, 76800, Note_on_c, 7, 53, 56
9, 76920, Note_on_c, 7, 53, 0
9, 79680, Note_on_c, 7, 60, 66
9, 80160, Note_on_c, 7, 60, 0
9, 80160, Note_on_c, 7, 65, 62
9, 80280, Note_on_c, 7, 65, 0
9, 80400, Note_on_c, 7, 69, 71
9, 80520, Note_on_c, 7, 69, 0
9, 80640, Note_on_c, 7, 62, 66
9, 80760, Note_on_c, 7, 62, 0
9, 83160, Note_on_c, 7, 65, 71
9, 83280, Note_on_c, 7, 65, 0
9, 83400, Note_on_c, 7, 65, 74
9, 83520, Note_on_c, 7, 65, 0
9, 83640, Note_on_c, 7, 65, 99
9, 83880, Note_on_c, 7, 65, 0
9, 83880, Note_on_c, 7, 65, 72
9, 84000, Note_on_c, 7, 65, 0
9, 84120, Note_on_c, 7, 65, 72
9, 84240, Note_on_c, 7, 65, 0
9, 84360, Note_on_c, 7, 65, 67
9, 84480, Note_on_c, 7, 65, 0
9, 84600, Note_on_c, 7, 65, 73
9, 84840, Note_on_c, 7, 65, 0
9, 84840, Note_on_c, 7, 65, 64
9, 84960, Note_on_c, 7, 65, 0
9, 85080, Note_on_c, 7, 65, 76
9, 85320, Note_on_c, 7, 65, 0
9, 85320, Note_on_c, 7, 65, 64
9, 85440, Note_on_c, 7, 65, 0
9, 85440, Note_on_c, 7, 65, 65
9, 85560, Note_on_c, 7, 65, 0
9, 85680, Note_on_c, 7, 53, 95
9, 85920, Note_on_c, 7, 53, 0
9, 85920, Note_on_c, 7, 53, 84
9, 85980, Note_on_c, 7, 53, 0
9, 86640, Note_on_c, 7, 53, 95
9, 86880, Note_on_c, 7, 53, 0
9, 86880, Note_on_c, 7, 53, 80
9, 86940, Note_on_c, 7, 53, 0
9, 87600, Note_on_c, 7, 53, 95
9, 87840, Note_on_c, 7, 53, 0
9, 87840, Note_on_c, 7, 53, 80
9, 87900, Note_on_c, 7, 53, 0
9, 92760, Note_on_c, 7, 53, 74
9, 92820, Note_on_c, 7, 53, 0
9, 92880, Note_on_c, 7, 57, 74
9, 93240, Note_on_c, 7, 57, 0
9, 93240, Note_on_c, 7, 60, 77
9, 93300, Note_on_c, 7, 60, 0
9, 93360, Note_on_c, 7, 65, 72
9, 93720, Note_on_c, 7, 65, 0
9, 93720, Note_on_c, 7, 69, 76
9, 93780, Note_on_c, 7, 69, 0
9, 93840, Note_on_c, 7, 72, 60
9, 93900, Note_on_c, 7, 72, 0
9, 93960, Note_on_c, 7, 72, 71
9, 94020, Note_on_c, 7, 72, 0
9, 94080, Note_on_c, 7, 72, 72
9, 94140, Note_on_c, 7, 72, 0
9, 94140, Note_on_c, 7, 67, 68
9, 94200, Note_on_c, 7, 67, 0
9, 94200, Note_on_c, 7, 67, 73
9, 94260, Note_on_c, 7, 67, 0
9, 94260, Note_on_c, 7, 67, 64
9, 94320, Note_on_c, 7, 67, 0
9, 94320, Note_on_c, 7, 64, 72
9, 94380, Note_on_c, 7, 64, 0
9, 94380, Note_on_c, 7, 64, 70
9, 94440, Note_on_c, 7, 64, 0
9, 94440, Note_on_c, 7, 64, 64
9, 94500, Note_on_c, 7, 64, 0
9, 94500, Note_on_c, 7, 64, 70
9, 94560, Note_on_c, 7, 64, 0
9, 94560, Note_on_c, 7, 65, 85
9, 94740, Note_on_c, 7, 65, 0
9, 94770, Note_on_c, 7, 53, 84
9, 94800, Note_on_c, 7, 53, 0
9, 94800, Note_on_c, 7, 60, 93
9, 94845, Note_on_c, 7, 60, 0
9, 94890, Note_on_c, 7, 60, 95
9, 94905, Note_on_c, 7, 60, 0
9, 94920, Note_on_c, 7, 57, 94
9, 94965, Note_on_c, 7, 57, 0
9, 95010, Note_on_c, 7, 57, 94
9, 95025, Note_on_c, 7, 57, 0
9, 95040, Note_on_c, 7, 53, 98
9, 95100, Note_on_c, 7, 53, 0
9, 95160, Note_on_c, 7, 57, 84
9, 95220, Note_on_c, 7, 57, 0
9, 95280, Note_on_c, 7, 60, 94
9, 95340, Note_on_c, 7, 60, 0
9, 95400, Note_on_c, 7, 65, 85
9, 95460, Note_on_c, 7, 65, 0
9, 95520, Note_on_c, 7, 67, 99
9, 95700, Note_on_c, 7, 67, 0
9, 95730, Note_on_c, 7, 55, 90
9, 95760, Note_on_c, 7, 55, 0
9, 95760, Note_on_c, 7, 60, 95
9, 95805, Note_on_c, 7, 60, 0
9, 95850, Note_on_c, 7, 60, 95
9, 95865, Note_on_c, 7, 60, 0
9, 95880, Note_on_c, 7, 58, 84
9, 95925, Note_on_c, 7, 58, 0
9, 95970, Note_on_c, 7, 58, 84
9, 95985, Note_on_c, 7, 58, 0
9, 96000, Note_on_c, 7, 55, 98
9, 96060, Note_on_c, 7, 55, 0
9, 96120, Note_on_c, 7, 58, 86
9, 96180, Note_on_c, 7, 58, 0
9, 96240, Note_on_c, 7, 64, 98
9, 96300, Note_on_c, 7, 64, 0
9, 96360, Note_on_c, 7, 67, 90
9, 96420, Note_on_c, 7, 67, 0
9, 96480, Note_on_c, 7, 69, 110
9, 96660, Note_on_c, 7, 69, 0
9, 96690, Note_on_c, 7, 57, 93
9, 96720, Note_on_c, 7, 57, 0
9, 96720, Note_on_c, 7, 65, 93
9, 96765, Note_on_c, 7, 65, 0
9, 96810, Note_on_c, 7, 65, 89
9, 96825, Note_on_c, 7, 65, 0
9, 96840, Note_on_c, 7, 60, 99
9, 96885, Note_on_c, 7, 60, 0
9, 96930, Note_on_c, 7, 60, 94
9, 96945, Note_on_c, 7, 60, 0
9, 96960, Note_on_c, 7, 57, 99
9, 97080, Note_on_c, 7, 57, 0
9, 97440, Note_on_c, 7, 53, 99
9, 97800, Note_on_c, 7, 53, 0
9, 97920, Note_on_c, 7, 67, 95
9, 98160, Note_on_c, 7, 67, 0
9, 98160, Note_on_c, 7, 65, 85
9, 98280, Note_on_c, 7, 65, 0
9, 98400, Note_on_c, 7, 70, 93
9, 98460, Note_on_c, 7, 70, 0
9, 98460, Note_on_c, 7, 69, 105
9, 98520, Note_on_c, 7, 69, 0
9, 98520, Note_on_c, 7, 70, 89
9, 98550, Note_on_c, 7, 70, 0
9, 98580, Note_on_c, 7, 70, 89
9, 98610, Note_on_c, 7, 70, 0
9, 98640, Note_on_c, 7, 71, 98
9, 98700, Note_on_c, 7, 71, 0
9, 98700, Note_on_c, 7, 70, 94
9, 98760, Note_on_c, 7, 70, 0
9, 98760, Note_on_c, 7, 71, 98
9, 98790, Note_on_c, 7, 71, 0
9, 98820, Note_on_c, 7, 71, 99
9, 98850, Note_on_c, 7, 71, 0
9, 98880, Note_on_c, 7, 72, 99
9, 98940, Note_on_c, 7, 72, 0
9, 98940, Note_on_c, 7, 71, 104
9, 99000, Note_on_c, 7, 71, 0
9, 99000, Note_on_c, 7, 72, 99
9, 99030, Note_on_c, 7, 72, 0
9, 99060, Note_on_c, 7, 72, 94
9, 99090, Note_on_c, 7, 72, 0
9, 99120, Note_on_c, 7, 60, 98
9, 99180, Note_on_c, 7, 60, 0
9, 99180, Note_on_c, 7, 59, 101
9, 99240, Note_on_c, 7, 59, 0
9, 99240, Note_on_c, 7, 60, 99
9, 99270, Note_on_c, 7, 60, 0
9, 99300, Note_on_c, 7, 60, 95
9, 99330, Note_on_c, 7, 60, 0
9, 99360, Note_on_c, 7, 53, 90
9, 99480, Note_on_c, 7, 53, 0
9, 99480, Note_on_c, 7, 57, 81
9, 99570, Note_on_c, 7, 57, 0
9, 99600, Note_on_c, 7, 57, 61
9, 99690, Note_on_c, 7, 57, 0
9, 99720, Note_on_c, 7, 57, 73
9, 99810, Note_on_c, 7, 57, 0
9, 99840, Note_on_c, 7, 55, 55
9, 100080, Note_on_c, 7, 55, 0
9, 100080, Note_on_c, 7, 52, 71
9, 100260, Note_on_c, 7, 52, 0
9, 100260, Note_on_c, 7, 48, 65
9, 100320, Note_on_c, 7, 48, 0
9, 100320, Note_on_c, 7, 53, 45
9, 100440, Note_on_c, 7, 53, 0
9, 100800, Note_on_c, 7, 55, 50
9, 101040, Note_on_c, 7, 55, 0
9, 101040, Note_on_c, 7, 52, 74
9, 101220, Note_on_c, 7, 52, 0
9, 101220, Note_on_c, 7, 48, 85
9, 101280, Note_on_c, 7, 48, 0
9, 101280, Note_on_c, 7, 53, 40
9, 101400, Note_on_c, 7, 53, 0
9, 101520, Note_on_c, 7, 65, 99
9, 101640, Note_on_c, 7, 65, 0
9, 101760, Note_on_c, 7, 53, 90
9, 101880, Note_on_c, 7, 53, 0
9, 104280, Note_on_c, 7, 48, 44
9, 104400, Note_on_c, 7, 48, 0
9, 104400, Note_on_c, 7, 52, 54
9, 104520, Note_on_c, 7, 52, 0
9, 104520, Note_on_c, 7, 55, 44
9, 104640, Note_on_c, 7, 55, 0
9, 104760, Note_on_c, 7, 53, 43
9, 104880, Note_on_c, 7, 53, 0
9, 104880, Note_on_c, 7, 57, 59
9, 105000, Note_on_c, 7, 57, 0
9, 105000, Note_on_c, 7, 60, 45
9, 105120, Note_on_c, 7, 60, 0
9, 105240, Note_on_c, 7, 50, 51
9, 105360, Note_on_c, 7, 50, 0
9, 105360, Note_on_c, 7, 54, 62
9, 105480, Note_on_c, 7, 54, 0
9, 105480, Note_on_c, 7, 57, 61
9, 105600, Note_on_c, 7, 57, 0
9, 105720, Note_on_c, 7, 55, 56
9, 105840, Note_on_c, 7, 55, 0
9, 105840, Note_on_c, 7, 58, 50
9, 105960, Note_on_c, 7, 58, 0
9, 105960, Note_on_c, 7, 62, 50
9, 106080, Note_on_c, 7, 62, 0
9, 106200, Note_on_c, 7, 63, 45
9, 106320, Note_on_c, 7, 63, 0
9, 106440, Note_on_c, 7, 63, 45
9, 106560, Note_on_c, 7, 63, 0
9, 106560, Note_on_c, 7, 62, 46
9, 106800, Note_on_c, 7, 62, 0
9, 106800, Note_on_c, 7, 60, 43
9, 107040, Note_on_c, 7, 60, 0
9, 107040, Note_on_c, 7, 58, 45
9, 107280, Note_on_c, 7, 58, 0
9, 107280, Note_on_c, 7, 61, 46
9, 107520, Note_on_c, 7, 61, 0
9, 107520, Note_on_c, 7, 62, 44
9, 107760, Note_on_c, 7, 62, 0
9, 107760, Note_on_c, 7, 57, 52
9, 108000, Note_on_c, 7, 57, 0
9, 108000, Note_on_c, 7, 55, 57
9, 108240, Note_on_c, 7, 55, 0
9, 108240, Note_on_c, 7, 61, 45
9, 108480, Note_on_c, 7, 61, 0
9, 108480, Note_on_c, 7, 62, 57
9, 108600, Note_on_c, 7, 62, 0
9, 108960, Note_on_c, 7, 50, 105
9, 109080, Note_on_c, 7, 50, 0
9, 109200, Note_on_c, 7, 50, 99
9, 109320, Note_on_c, 7, 50, 0
9, 109440, Note_on_c, 7, 50, 101
9, 109560, Note_on_c, 7, 50, 0
9, 109920, Note_on_c, 7, 51, 39
9, 110040, Note_on_c, 7, 51, 0
9, 110160, Note_on_c, 7, 51, 49
9, 110280, Note_on_c, 7, 51, 0
9, 110400, Note_on_c, 7, 51, 45
9, 110520, Note_on_c, 7, 51, 0
9, 110880, Note_on_c, 7, 51, 89
9, 111000, Note_on_c, 7, 51, 0
9, 111000, Note_on_c, 7, 58, 61
9, 111120, Note_on_c, 7, 58, 0
9, 111120, Note_on_c, 7, 58, 61
9, 111240, Note_on_c, 7, 58, 0
9, 111240, Note_on_c, 7, 58, 50
9, 111360, Note_on_c, 7, 58, 0
9, 111480, Note_on_c, 7, 58, 61
9, 111600, Note_on_c, 7, 58, 0
9, 111600, Note_on_c, 7, 58, 59
9, 111720, Note_on_c, 7, 58, 0
9, 111720, Note_on_c, 7, 58, 62
9, 111840, Note_on_c, 7, 58, 0
9, 111960, Note_on_c, 7, 60, 48
9, 112080, Note_on_c, 7, 60, 0
9, 112080, Note_on_c, 7, 60, 58
9, 112200, Note_on_c, 7, 60, 0
9, 112200, Note_on_c, 7, 60, 45
9, 112320, Note_on_c, 7, 60, 0
9, 112440, Note_on_c, 7, 53, 58
9, 112560, Note_on_c, 7, 53, 0
9, 112560, Note_on_c, 7, 53, 71
9, 112680, Note_on_c, 7, 53, 0
9, 112680, Note_on_c, 7, 53, 53
9, 112800, Note_on_c, 7, 53, 0
9, 112800, Note_on_c, 7, 51, 65
9, 112920, Note_on_c, 7, 51, 0
9, 114840, Note_on_c, 7, 62, 61
9, 114960, Note_on_c, 7, 62, 0
9, 114960, Note_on_c, 7, 62, 65
9, 115080, Note_on_c, 7, 62, 0
9, 115080, Note_on_c, 7, 62, 65
9, 115200, Note_on_c, 7, 62, 0
9, 115320, Note_on_c, 7, 60, 61
9, 115440, Note_on_c, 7, 60, 0
9, 115560, Note_on_c, 7, 60, 72
9, 115680, Note_on_c, 7, 60, 0
9, 115800, Note_on_c, 7, 60, 66
9, 115920, Note_on_c, 7, 60, 0
9, 115920, Note_on_c, 7, 60, 74
9, 116040, Note_on_c, 7, 60, 0
9, 116040, Note_on_c, 7, 60, 71
9, 116160, Note_on_c, 7, 60, 0
9, 116280, Note_on_c, 7, 58, 52
9, 116400, Note_on_c, 7, 58, 0
9, 116400, Note_on_c, 7, 58, 66
9, 116520, Note_on_c, 7, 58, 0
9, 116520, Note_on_c, 7, 58, 68
9, 116640, Note_on_c, 7, 58, 0
9, 116760, Note_on_c, 7, 67, 62
9, 116880, Note_on_c, 7, 67, 0
9, 117000, Note_on_c, 7, 60, 52
9, 117120, Note_on_c, 7, 60, 0
9, 117240, Note_on_c, 7, 58, 68
9, 117360, Note_on_c, 7, 58, 0
9, 117480, Note_on_c, 7, 56, 67
9, 117600, Note_on_c, 7, 56, 0
9, 117600, Note_on_c, 7, 55, 70
9, 117720, Note_on_c, 7, 55, 0
9, 118320, Note_on_c, 7, 55, 50
9, 118380, Note_on_c, 7, 55, 0
9, 118440, Note_on_c, 7, 55, 62
9, 118500, Note_on_c, 7, 55, 0
9, 118560, Note_on_c, 7, 58, 59
9, 118620, Note_on_c, 7, 58, 0
9, 119280, Note_on_c, 7, 63, 50
9, 119340, Note_on_c, 7, 63, 0
9, 119400, Note_on_c, 7, 63, 52
9, 119460, Note_on_c, 7, 63, 0
9, 119520, Note_on_c, 7, 65, 53
9, 119520, Note_on_c, 7, 55, 53
9, 119580, Note_on_c, 7, 55, 0
9, 119580, Note_on_c, 7, 65, 0
9, 120240, Note_on_c, 7, 55, 50
9, 120300, Note_on_c, 7, 55, 0
9, 120360, Note_on_c, 7, 55, 53
9, 120420, Note_on_c, 7, 55, 0
9, 120480, Note_on_c, 7, 55, 52
9, 120540, Note_on_c, 7, 55, 0
9, 121200, Note_on_c, 7, 55, 46
9, 121260, Note_on_c, 7, 55, 0
9, 121320, Note_on_c, 7, 55, 60
9, 121380, Note_on_c, 7, 55, 0
9, 121440, Note_on_c, 7, 55, 54
9, 121470, Note_on_c, 7, 55, 0
9, 121500, Note_on_c, 7, 48, 49
9, 121530, Note_on_c, 7, 48, 0
9, 121560, Note_on_c, 7, 48, 45
9, 121590, Note_on_c, 7, 48, 0
9, 121620, Note_on_c, 7, 48, 54
9, 121650, Note_on_c, 7, 48, 0
9, 121680, Note_on_c, 7, 48, 50
9, 121710, Note_on_c, 7, 48, 0
9, 121740, Note_on_c, 7, 48, 55
9, 121770, Note_on_c, 7, 48, 0
9, 121800, Note_on_c, 7, 48, 43
9, 121830, Note_on_c, 7, 48, 0
9, 121860, Note_on_c, 7, 50, 61
9, 121890, Note_on_c, 7, 50, 0
9, 121920, Note_on_c, 7, 51, 61
9, 122040, Note_on_c, 7, 51, 0
9, 122400, Note_on_c, 7, 50, 65
9, 122430, Note_on_c, 7, 50, 0
9, 122460, Note_on_c, 7, 50, 58
9, 122490, Note_on_c, 7, 50, 0
9, 122520, Note_on_c, 7, 50, 64
9, 122550, Note_on_c, 7, 50, 0
9, 122580, Note_on_c, 7, 50, 58
9, 122610, Note_on_c, 7, 50, 0
9, 122640, Note_on_c, 7, 50, 68
9, 122670, Note_on_c, 7, 50, 0
9, 122700, Note_on_c, 7, 50, 63
9, 122730, Note_on_c, 7, 50, 0
9, 122760, Note_on_c, 7, 50, 59
9, 122790, Note_on_c, 7, 50, 0
9, 122820, Note_on_c, 7, 51, 56
9, 122850, Note_on_c, 7, 51, 0
9, 122880, Note_on_c, 7, 53, 55
9, 123000, Note_on_c, 7, 53, 0
9, 123360, Note_on_c, 7, 52, 62
9, 123390, Note_on_c, 7, 52, 0
9, 123420, Note_on_c, 7, 52, 74
9, 123450, Note_on_c, 7, 52, 0
9, 123480, Note_on_c, 7, 52, 54
9, 123510, Note_on_c, 7, 52, 0
9, 123540, Note_on_c, 7, 52, 61
9, 123570, Note_on_c, 7, 52, 0
9, 123600, Note_on_c, 7, 52, 52
9, 123630, Note_on_c, 7, 52, 0
9, 123660, Note_on_c, 7, 52, 53
9, 123690, Note_on_c, 7, 52, 0
9, 123720, Note_on_c, 7, 52, 62
9, 123750, Note_on_c, 7, 52, 0
9, 123780, Note_on_c, 7, 53, 56
9, 123810, Note_on_c, 7, 53, 0
9, 123840, Note_on_c, 7, 55, 43
9, 123960, Note_on_c, 7, 55, 0
9, 124320, Note_on_c, 7, 61, 40
9, 124320, Note_on_c, 7, 52, 46
9, 124380, Note_on_c, 7, 52, 0
9, 124380, Note_on_c, 7, 61, 0
9, 124380, Note_on_c, 7, 61, 39
9, 124380, Note_on_c, 7, 52, 45
9, 124440, Note_on_c, 7, 52, 0
9, 124440, Note_on_c, 7, 61, 0
9, 124440, Note_on_c, 7, 61, 37
9, 124440, Note_on_c, 7, 52, 44
9, 124500, Note_on_c, 7, 52, 0
9, 124500, Note_on_c, 7, 61, 0
9, 124500, Note_on_c, 7, 61, 43
9, 124500, Note_on_c, 7, 52, 50
9, 124560, Note_on_c, 7, 52, 0
9, 124560, Note_on_c, 7, 61, 0
9, 124560, Note_on_c, 7, 61, 42
9, 124560, Note_on_c, 7, 52, 50
9, 124620, Note_on_c, 7, 52, 0
9, 124620, Note_on_c, 7, 61, 0
9, 124620, Note_on_c, 7, 61, 40
9, 124620, Note_on_c, 7, 52, 48
9, 124680, Note_on_c, 7, 52, 0
9, 124680, Note_on_c, 7, 61, 0
9, 124680, Note_on_c, 7, 61, 40
9, 124680, Note_on_c, 7, 52, 50
9, 124740, Note_on_c, 7, 52, 0
9, 124740, Note_on_c, 7, 61, 0
9, 124740, Note_on_c, 7, 61, 44
9, 124740, Note_on_c, 7, 53, 57
9, 124800, Note_on_c, 7, 53, 0
9, 124800, Note_on_c, 7, 61, 0
9, 124800, Note_on_c, 7, 61, 41
9, 124800, Note_on_c, 7, 55, 45
9, 124860, Note_on_c, 7, 55, 0
9, 124860, Note_on_c, 7, 61, 0
9, 126720, Note_on_c, 7, 64, 65
9, 126840, Note_on_c, 7, 64, 0
9, 126960, Note_on_c, 7, 65, 62
9, 127080, Note_on_c, 7, 65, 0
9, 127200, Note_on_c, 7, 66, 65
9, 127320, Note_on_c, 7, 66, 0
9, 127440, Note_on_c, 7, 65, 57
9, 127560, Note_on_c, 7, 65, 0
9, 127680, Note_on_c, 7, 64, 60
9, 127800, Note_on_c, 7, 64, 0
9, 127920, Note_on_c, 7, 65, 62
9, 128040, Note_on_c, 7, 65, 0
9, 128160, Note_on_c, 7, 66, 54
9, 128280, Note_on_c, 7, 66, 0
9, 128400, Note_on_c, 7, 54, 45
9, 128520, Note_on_c, 7, 54, 0
9, 128640, Note_on_c, 7, 53, 43
9, 128760, Note_on_c, 7, 53, 0
9, 129180, Note_on_c, 7, 53, 65
9, 129240, Note_on_c, 7, 53, 0
9, 129240, Note_on_c, 7, 58, 62
9, 129300, Note_on_c, 7, 58, 0
9, 129300, Note_on_c, 7, 61, 52
9, 129360, Note_on_c, 7, 61, 0
9, 129360, Note_on_c, 7, 65, 71
9, 129420, Note_on_c, 7, 65, 0
9, 129420, Note_on_c, 7, 61, 64
9, 129480, Note_on_c, 7, 61, 0
9, 129480, Note_on_c, 7, 60, 65
9, 129540, Note_on_c, 7, 60, 0
9, 129540, Note_on_c, 7, 58, 63
9, 129600, Note_on_c, 7, 58, 0
9, 129600, Note_on_c, 7, 57, 69
9, 129720, Note_on_c, 7, 57, 0
9, 130140, Note_on_c, 7, 53, 65
9, 130200, Note_on_c, 7, 53, 0
9, 130200, Note_on_c, 7, 58, 62
9, 130260, Note_on_c, 7, 58, 0
9, 130260, Note_on_c, 7, 61, 52
9, 130320, Note_on_c, 7, 61, 0
9, 130320, Note_on_c, 7, 65, 71
9, 130380, Note_on_c, 7, 65, 0
9, 130380, Note_on_c, 7, 61, 64
9, 130440, Note_on_c, 7, 61, 0
9, 130440, Note_on_c, 7, 60, 65
9, 130500, Note_on_c, 7, 60, 0
9, 130500, Note_on_c, 7, 58, 63
9, 130560, Note_on_c, 7, 58, 0
9, 130560, Note_on_c, 7, 57, 69
9, 130680, Note_on_c, 7, 57, 0
9, 131100, Note_on_c, 7, 53, 65
9, 131160, Note_on_c, 7, 53, 0
9, 131160, Note_on_c, 7, 58, 62
9, 131220, Note_on_c, 7, 58, 0
9, 131220, Note_on_c, 7, 61, 52
9, 131280, Note_on_c, 7, 61, 0
9, 131280, Note_on_c, 7, 65, 71
9, 131340, Note_on_c, 7, 65, 0
9, 131340, Note_on_c, 7, 61, 64
9, 131400, Note_on_c, 7, 61, 0
9, 131400, Note_on_c, 7, 60, 65
9, 131460, Note_on_c, 7, 60, 0
9, 131460, Note_on_c, 7, 58, 63
9, 131520, Note_on_c, 7, 58, 0
9, 131520, Note_on_c, 7, 57, 74
9, 131640, Note_on_c, 7, 57, 0
9, 131640, Note_on_c, 7, 53, 62
9, 131760, Note_on_c, 7, 53, 0
9, 131760, Note_on_c, 7, 58, 64
9, 131880, Note_on_c, 7, 58, 0
9, 132120, Note_on_c, 7, 53, 62
9, 132240, Note_on_c, 7, 53, 0
9, 132240, Note_on_c, 7, 58, 64
9, 132360, Note_on_c, 7, 58, 0
9, 132720, Note_on_c, 7, 57, 53
9, 132840, Note_on_c, 7, 57, 0
9, 132960, Note_on_c, 7, 60, 44
9, 133080, Note_on_c, 7, 60, 0
9, 133440, Note_on_c, 7, 63, 45
9, 133560, Note_on_c, 7, 63, 0
9, 133920, Note_on_c, 7, 69, 43
9, 134040, Note_on_c, 7, 69, 0
9, 134400, Note_on_c, 7, 53, 46
9, 134880, Note_on_c, 7, 53, 0
9, 134880, Note_on_c, 7, 54, 50
9, 135360, Note_on_c, 7, 54, 0
9, 135360, Note_on_c, 7, 53, 44
9, 135840, Note_on_c, 7, 53, 0
9, 135840, Note_on_c, 7, 63, 84
9, 135840, Note_on_c, 7, 60, 89
9, 135840, Control_c, 7, 7, 54
9, 135852, Control_c, 7, 7, 55
9, 135862, Control_c, 7, 7, 56
9, 135872, Control_c, 7, 7, 57
9, 135884, Control_c, 7, 7, 58
9, 135894, Control_c, 7, 7, 59
9, 135904, Control_c, 7, 7, 60
9, 135916, Control_c, 7, 7, 61
9, 135926, Control_c, 7, 7, 62
9, 135936, Control_c, 7, 7, 63
9, 135948, Control_c, 7, 7, 64
9, 135958, Control_c, 7, 7, 65
9, 135968, Control_c, 7, 7, 66
9, 135980, Control_c, 7, 7, 67
9, 135990, Control_c, 7, 7, 68
9, 136000, Control_c, 7, 7, 69
9, 136012, Control_c, 7, 7, 70
9, 136022, Control_c, 7, 7, 71
9, 136032, Control_c, 7, 7, 72
9, 136044, Control_c, 7, 7, 73
9, 136054, Control_c, 7, 7, 74
9, 136064, Control_c, 7, 7, 75
9, 136076, Control_c, 7, 7, 76
9, 136086, Control_c, 7, 7, 77
9, 136096, Control_c, 7, 7, 78
9, 136108, Control_c, 7, 7, 79
9, 136118, Control_c, 7, 7, 80
9, 136128, Control_c, 7, 7, 81
9, 136140, Control_c, 7, 7, 82
9, 136150, Control_c, 7, 7, 83
9, 136160, Control_c, 7, 7, 84
9, 136172, Control_c, 7, 7, 85
9, 136182, Control_c, 7, 7, 86
9, 136192, Control_c, 7, 7, 87
9, 136204, Control_c, 7, 7, 88
9, 136214, Control_c, 7, 7, 89
9, 136224, Control_c, 7, 7, 90
9, 136236, Control_c, 7, 7, 91
9, 136246, Control_c, 7, 7, 92
9, 136256, Control_c, 7, 7, 93
9, 136268, Control_c, 7, 7, 94
9, 136278, Control_c, 7, 7, 95
9, 136288, Control_c, 7, 7, 96
9, 136300, Control_c, 7, 7, 97
9, 136310, Control_c, 7, 7, 98
9, 136320, Note_on_c, 7, 60, 0
9, 136320, Note_on_c, 7, 63, 0
9, 136320, Note_on_c, 7, 70, 94
9, 136320, Note_on_c, 7, 65, 74
9, 136320, Note_on_c, 7, 58, 72
9, 136320, Control_c, 7, 7, 99
9, 136500, Note_on_c, 7, 58, 0
9, 136500, Note_on_c, 7, 65, 0
9, 136500, Note_on_c, 7, 70, 0
9, 136530, Note_on_c, 7, 58, 89
9, 136560, Note_on_c, 7, 58, 0
9, 136560, Note_on_c, 7, 65, 94
9, 136605, Note_on_c, 7, 65, 0
9, 136650, Note_on_c, 7, 65, 99
9, 136665, Note_on_c, 7, 65, 0
9, 136680, Note_on_c, 7, 62, 95
9, 136725, Note_on_c, 7, 62, 0
9, 136770, Note_on_c, 7, 62, 99
9, 136785, Note_on_c, 7, 62, 0
9, 136800, Note_on_c, 7, 58, 94
9, 136920, Note_on_c, 7, 58, 0
9, 137280, Note_on_c, 7, 65, 64
9, 137760, Note_on_c, 7, 65, 0
9, 137760, Note_on_c, 7, 65, 51
9, 137880, Note_on_c, 7, 65, 0
9, 138240, Note_on_c, 7, 65, 81
9, 138240, Note_on_c, 7, 57, 93
9, 138420, Note_on_c, 7, 57, 0
9, 138420, Note_on_c, 7, 65, 0
9, 138450, Note_on_c, 7, 53, 84
9, 138480, Note_on_c, 7, 53, 0
9, 138480, Note_on_c, 7, 60, 81
9, 138525, Note_on_c, 7, 60, 0
9, 138570, Note_on_c, 7, 60, 76
9, 138585, Note_on_c, 7, 60, 0
9, 138600, Note_on_c, 7, 57, 101
9, 138645, Note_on_c, 7, 57, 0
9, 138690, Note_on_c, 7, 57, 95
9, 138705, Note_on_c, 7, 57, 0
9, 138720, Note_on_c, 7, 53, 89
9, 138840, Note_on_c, 7, 53, 0
9, 139200, Note_on_c, 7, 62, 44
9, 139680, Note_on_c, 7, 62, 0
9, 139680, Note_on_c, 7, 62, 45
9, 139800, Note_on_c, 7, 62, 0
9, 140280, Note_on_c, 7, 62, 45
9, 140370, Note_on_c, 7, 62, 0
9, 140400, Note_on_c, 7, 62, 52
9, 140490, Note_on_c, 7, 62, 0
9, 140520, Note_on_c, 7, 62, 45
9, 140610, Note_on_c, 7, 62, 0
9, 140760, Note_on_c, 7, 63, 45
9, 140850, Note_on_c, 7, 63, 0
9, 140880, Note_on_c, 7, 63, 43
9, 140970, Note_on_c, 7, 63, 0
9, 141000, Note_on_c, 7, 63, 50
9, 141090, Note_on_c, 7, 63, 0
9, 141240, Note_on_c, 7, 60, 52
9, 141330, Note_on_c, 7, 60, 0
9, 141360, Note_on_c, 7, 60, 59
9, 141450, Note_on_c, 7, 60, 0
9, 141480, Note_on_c, 7, 60, 57
9, 141570, Note_on_c, 7, 60, 0
9, 141720, Note_on_c, 7, 58, 50
9, 141810, Note_on_c, 7, 58, 0
9, 141840, Note_on_c, 7, 58, 45
9, 141930, Note_on_c, 7, 58, 0
9, 141960, Note_on_c, 7, 58, 58
9, 142050, Note_on_c, 7, 58, 0
9, 142200, Note_on_c, 7, 62, 46
9, 142290, Note_on_c, 7, 62, 0
9, 142320, Note_on_c, 7, 62, 54
9, 142410, Note_on_c, 7, 62, 0
9, 142440, Note_on_c, 7, 62, 60
9, 142530, Note_on_c, 7, 62, 0
9, 142680, Note_on_c, 7, 63, 38
9, 142770, Note_on_c, 7, 63, 0
9, 142800, Note_on_c, 7, 63, 46
9, 142890, Note_on_c, 7, 63, 0
9, 142920, Note_on_c, 7, 63, 43
9, 143010, Note_on_c, 7, 63, 0
9, 143160, Note_on_c, 7, 60, 62
9, 143250, Note_on_c, 7, 60, 0
9, 143280, Note_on_c, 7, 60, 50
9, 143370, Note_on_c, 7, 60, 0
9, 143400, Note_on_c, 7, 60, 44
9, 143490, Note_on_c, 7, 60, 0
9, 143520, Note_on_c, 7, 58, 46
9, 143580, Note_on_c, 7, 58, 0
9, 143580, Note_on_c, 7, 62, 43
9, 143640, Note_on_c, 7, 62, 0
9, 143640, Note_on_c, 7, 62, 41
9, 143700, Note_on_c, 7, 62, 0
9, 143700, Note_on_c, 7, 62, 41
9, 143760, Note_on_c, 7, 62, 0
9, 143760, Note_on_c, 7, 62, 43
9, 143820, Note_on_c, 7, 62, 0
9, 143820, Note_on_c, 7, 62, 43
9, 143880, Note_on_c, 7, 62, 0
9, 143880, Note_on_c, 7, 62, 38
9, 143940, Note_on_c, 7, 62, 0
9, 143940, Note_on_c, 7, 62, 38
9, 144000, Note_on_c, 7, 62, 0
9, 144060, Note_on_c, 7, 62, 46
9, 144120, Note_on_c, 7, 62, 0
9, 144120, Note_on_c, 7, 62, 36
9, 144180, Note_on_c, 7, 62, 0
9, 144180, Note_on_c, 7, 62, 35
9, 144240, Note_on_c, 7, 62, 0
9, 144240, Note_on_c, 7, 62, 38
9, 144300, Note_on_c, 7, 62, 0
9, 144300, Note_on_c, 7, 62, 35
9, 144360, Note_on_c, 7, 62, 0
9, 144360, Note_on_c, 7, 62, 38
9, 144420, Note_on_c, 7, 62, 0
9, 144420, Note_on_c, 7, 62, 49
9, 144480, Note_on_c, 7, 62, 0
9, 144540, Note_on_c, 7, 63, 29
9, 144600, Note_on_c, 7, 63, 0
9, 144600, Note_on_c, 7, 63, 32
9, 144660, Note_on_c, 7, 63, 0
9, 144660, Note_on_c, 7, 63, 31
9, 144720, Note_on_c, 7, 63, 0
9, 144720, Note_on_c, 7, 63, 31
9, 144780, Note_on_c, 7, 63, 0
9, 144780, Note_on_c, 7, 63, 43
9, 144840, Note_on_c, 7, 63, 0
9, 144840, Note_on_c, 7, 63, 35
9, 144900, Note_on_c, 7, 63, 0
9, 144900, Note_on_c, 7, 63, 35
9, 144960, Note_on_c, 7, 63, 0
9, 145020, Note_on_c, 7, 63, 35
9, 145020, Note_on_c, 7, 60, 36
9, 145080, Note_on_c, 7, 60, 0
9, 145080, Note_on_c, 7, 63, 0
9, 145080, Note_on_c, 7, 63, 29
9, 145080, Note_on_c, 7, 60, 36
9, 145140, Note_on_c, 7, 60, 0
9, 145140, Note_on_c, 7, 63, 0
9, 145140, Note_on_c, 7, 63, 38
9, 145140, Note_on_c, 7, 60, 36
9, 145200, Note_on_c, 7, 60, 0
9, 145200, Note_on_c, 7, 63, 0
9, 145200, Note_on_c, 7, 63, 29
9, 145200, Note_on_c, 7, 60, 38
9, 145260, Note_on_c, 7, 60, 0
9, 145260, Note_on_c, 7, 63, 0
9, 145260, Note_on_c, 7, 63, 34
9, 145260, Note_on_c, 7, 60, 40
9, 145320, Note_on_c, 7, 60, 0
9, 145320, Note_on_c, 7, 63, 0
9, 145320, Note_on_c, 7, 63, 35
9, 145320, Note_on_c, 7, 60, 39
9, 145380, Note_on_c, 7, 60, 0
9, 145380, Note_on_c, 7, 63, 0
9, 145380, Note_on_c, 7, 60, 38
9, 145380, Note_on_c, 7, 63, 39
9, 145440, Note_on_c, 7, 63, 0
9, 145440, Note_on_c, 7, 60, 0
9, 145500, Note_on_c, 7, 62, 39
9, 145560, Note_on_c, 7, 62, 0
9, 145560, Note_on_c, 7, 62, 43
9, 145620, Note_on_c, 7, 62, 0
9, 145620, Note_on_c, 7, 62, 43
9, 145680, Note_on_c, 7, 62, 0
9, 145680, Note_on_c, 7, 62, 43
9, 145740, Note_on_c, 7, 62, 0
9, 145740, Note_on_c, 7, 62, 43
9, 145800, Note_on_c, 7, 62, 0
9, 145800, Note_on_c, 7, 62, 43
9, 145860, Note_on_c, 7, 62, 0
9, 145860, Note_on_c, 7, 62, 43
9, 145920, Note_on_c, 7, 62, 0
9, 145980, Note_on_c, 7, 62, 50
9, 146040, Note_on_c, 7, 62, 0
9, 146040, Note_on_c, 7, 62, 45
9, 146100, Note_on_c, 7, 62, 0
9, 146100, Note_on_c, 7, 62, 43
9, 146160, Note_on_c, 7, 62, 0
9, 146160, Note_on_c, 7, 62, 45
9, 146220, Note_on_c, 7, 62, 0
9, 146220, Note_on_c, 7, 62, 43
9, 146280, Note_on_c, 7, 62, 0
9, 146280, Note_on_c, 7, 62, 44
9, 146340, Note_on_c, 7, 62, 0
9, 146340, Note_on_c, 7, 62, 52
9, 146400, Note_on_c, 7, 62, 0
9, 146460, Note_on_c, 7, 58, 42
9, 146520, Note_on_c, 7, 58, 0
9, 146520, Note_on_c, 7, 58, 43
9, 146580, Note_on_c, 7, 58, 0
9, 146580, Note_on_c, 7, 58, 48
9, 146640, Note_on_c, 7, 58, 0
9, 146640, Note_on_c, 7, 58, 37
9, 146700, Note_on_c, 7, 58, 0
9, 146700, Note_on_c, 7, 58, 38
9, 146760, Note_on_c, 7, 58, 0
9, 146760, Note_on_c, 7, 58, 45
9, 146820, Note_on_c, 7, 58, 0
9, 146820, Note_on_c, 7, 58, 35
9, 146880, Note_on_c, 7, 58, 0
9, 146940, Note_on_c, 7, 60, 36
9, 147000, Note_on_c, 7, 60, 0
9, 147000, Note_on_c, 7, 60, 38
9, 147060, Note_on_c, 7, 60, 0
9, 147060, Note_on_c, 7, 60, 43
9, 147120, Note_on_c, 7, 60, 0
9, 147120, Note_on_c, 7, 60, 40
9, 147180, Note_on_c, 7, 60, 0
9, 147180, Note_on_c, 7, 60, 44
9, 147240, Note_on_c, 7, 60, 0
9, 147240, Note_on_c, 7, 60, 43
9, 147300, Note_on_c, 7, 60, 0
9, 147300, Note_on_c, 7, 60, 46
9, 147360, Note_on_c, 7, 60, 0
9, 147360, Note_on_c, 7, 60, 44
9, 147480, Note_on_c, 7, 60, 0
9, 147720, Note_on_c, 7, 55, 45
9, 147780, Note_on_c, 7, 55, 0
9, 147840, Note_on_c, 7, 53, 45
9, 147900, Note_on_c, 7, 53, 0
9, 148200, Note_on_c, 7, 60, 54
9, 148260, Note_on_c, 7, 60, 0
9, 148320, Note_on_c, 7, 65, 53
9, 148380, Note_on_c, 7, 65, 0
9, 148440, Note_on_c, 7, 60, 48
9, 148500, Note_on_c, 7, 60, 0
9, 148560, Note_on_c, 7, 65, 45
9, 148620, Note_on_c, 7, 65, 0
9, 148680, Note_on_c, 7, 60, 61
9, 148740, Note_on_c, 7, 60, 0
9, 148800, Note_on_c, 7, 65, 48
9, 148860, Note_on_c, 7, 65, 0
9, 148860, Note_on_c, 7, 67, 53
9, 148920, Note_on_c, 7, 67, 0
9, 148920, Note_on_c, 7, 63, 68
9, 148980, Note_on_c, 7, 63, 0
9, 148980, Note_on_c, 7, 65, 89
9, 149040, Note_on_c, 7, 65, 0
9, 149040, Note_on_c, 7, 62, 86
9, 149100, Note_on_c, 7, 62, 0
9, 149100, Note_on_c, 7, 63, 93
9, 149160, Note_on_c, 7, 63, 0
9, 149160, Note_on_c, 7, 60, 90
9, 149220, Note_on_c, 7, 60, 0
9, 149220, Note_on_c, 7, 62, 89
9, 149280, Note_on_c, 7, 62, 0
9, 149280, Note_on_c, 7, 58, 89
9, 149340, Control_c, 7, 7, 99
9, 149342, Control_c, 7, 7, 98
9, 149344, Control_c, 7, 7, 97
9, 149346, Control_c, 7, 7, 96
9, 149348, Control_c, 7, 7, 95
9, 149350, Control_c, 7, 7, 94
9, 149352, Control_c, 7, 7, 93
9, 149354, Control_c, 7, 7, 92
9, 149356, Control_c, 7, 7, 90
9, 149358, Control_c, 7, 7, 89
9, 149360, Control_c, 7, 7, 88
9, 149362, Control_c, 7, 7, 87
9, 149364, Control_c, 7, 7, 86
9, 149366, Control_c, 7, 7, 85
9, 149368, Control_c, 7, 7, 84
9, 149370, Control_c, 7, 7, 83
9, 149372, Control_c, 7, 7, 81
9, 149374, Control_c, 7, 7, 80
9, 149376, Control_c, 7, 7, 79
9, 149378, Control_c, 7, 7, 78
9, 149380, Control_c, 7, 7, 77
9, 149382, Control_c, 7, 7, 76
9, 149384, Control_c, 7, 7, 75
9, 149386, Control_c, 7, 7, 74
9, 149388, Control_c, 7, 7, 72
9, 149390, Control_c, 7, 7, 71
9, 149392, Control_c, 7, 7, 70
9, 149394, Control_c, 7, 7, 69
9, 149396, Control_c, 7, 7, 68
9, 149398, Control_c, 7, 7, 67
9, 149400, Note_on_c, 7, 58, 0
9, 149400, Control_c, 7, 7, 66
9, 149400, Note_on_c, 7, 62, 93
9, 149402, Control_c, 7, 7, 64
9, 149520, Note_on_c, 7, 62, 0
9, 149520, Note_on_c, 7, 63, 77
9, 149640, Note_on_c, 7, 63, 0
9, 149640, Note_on_c, 7, 57, 105
9, 149760, Note_on_c, 7, 57, 0
9, 149760, Note_on_c, 7, 58, 41
9, 149760, Control_c, 7, 7, 99
9, 149880, Note_on_c, 7, 58, 0
9, 150240, Note_on_c, 7, 55, 37
9, 150300, Note_on_c, 7, 55, 0
9, 150360, Note_on_c, 7, 55, 52
9, 150420, Note_on_c, 7, 55, 0
9, 150480, Note_on_c, 7, 55, 68
9, 150540, Note_on_c, 7, 55, 0
9, 150600, Note_on_c, 7, 59, 45
9, 150660, Note_on_c, 7, 59, 0
9, 150720, Note_on_c, 7, 62, 93
9, 150960, Note_on_c, 7, 62, 0
9, 150960, Note_on_c, 7, 60, 65
9, 151080, Note_on_c, 7, 60, 0
9, 151200, Note_on_c, 7, 53, 95
9, 151260, Control_c, 7, 7, 99
9, 151262, Control_c, 7, 7, 98
9, 151264, Control_c, 7, 7, 97
9, 151266, Control_c, 7, 7, 96
9, 151268, Control_c, 7, 7, 95
9, 151270, Control_c, 7, 7, 94
9, 151272, Control_c, 7, 7, 93
9, 151274, Control_c, 7, 7, 92
9, 151276, Control_c, 7, 7, 90
9, 151278, Control_c, 7, 7, 89
9, 151280, Control_c, 7, 7, 88
9, 151282, Control_c, 7, 7, 87
9, 151284, Control_c, 7, 7, 86
9, 151286, Control_c, 7, 7, 85
9, 151288, Control_c, 7, 7, 84
9, 151290, Control_c, 7, 7, 82
9, 151292, Control_c, 7, 7, 81
9, 151294, Control_c, 7, 7, 80
9, 151296, Control_c, 7, 7, 79
9, 151298, Control_c, 7, 7, 78
9, 151300, Control_c, 7, 7, 77
9, 151302, Control_c, 7, 7, 76
9, 151304, Control_c, 7, 7, 75
9, 151306, Control_c, 7, 7, 73
9, 151308, Control_c, 7, 7, 72
9, 151310, Control_c, 7, 7, 71
9, 151312, Control_c, 7, 7, 70
9, 151314, Control_c, 7, 7, 69
9, 151316, Control_c, 7, 7, 68
9, 151318, Control_c, 7, 7, 67
9, 151320, Note_on_c, 7, 53, 0
9, 151320, Control_c, 7, 7, 65
9, 151320, Note_on_c, 7, 57, 105
9, 151560, Note_on_c, 7, 57, 0
9, 151560, Note_on_c, 7, 60, 95
9, 151680, Note_on_c, 7, 60, 0
9, 151680, Note_on_c, 7, 58, 95
9, 151800, Note_on_c, 7, 58, 0
9, 151920, Control_c, 7, 7, 99
9, 152040, Note_on_c, 7, 62, 42
9, 152100, Note_on_c, 7, 62, 0
9, 152160, Note_on_c, 7, 60, 56
9, 152220, Note_on_c, 7, 60, 0
9, 152280, Note_on_c, 7, 57, 65
9, 152340, Note_on_c, 7, 57, 0
9, 152400, Note_on_c, 7, 62, 59
9, 152460, Note_on_c, 7, 62, 0
9, 152520, Note_on_c, 7, 65, 62
9, 152580, Note_on_c, 7, 65, 0
9, 152640, Note_on_c, 7, 53, 72
9, 152760, Note_on_c, 7, 53, 0
9, 152760, Note_on_c, 7, 52, 99
9, 152880, Note_on_c, 7, 52, 0
9, 152880, Note_on_c, 7, 53, 65
9, 153000, Note_on_c, 7, 53, 0
9, 153240, Note_on_c, 7, 58, 58
9, 153360, Note_on_c, 7, 58, 0
9, 153480, Note_on_c, 7, 60, 49
9, 153600, Note_on_c, 7, 60, 0
9, 153720, Note_on_c, 7, 58, 61
9, 153840, Note_on_c, 7, 58, 0
9, 155160, Note_on_c, 7, 57, 73
9, 155280, Note_on_c, 7, 57, 0
9, 155400, Note_on_c, 7, 60, 60
9, 155520, Note_on_c, 7, 60, 0
9, 155640, Note_on_c, 7, 58, 67
9, 155760, Note_on_c, 7, 58, 0
9, 156120, Note_on_c, 7, 63, 65
9, 156240, Note_on_c, 7, 63, 0
9, 156240, Note_on_c, 7, 65, 64
9, 156360, Note_on_c, 7, 65, 0
9, 156360, Note_on_c, 7, 53, 64
9, 156480, Note_on_c, 7, 53, 0
9, 156480, Note_on_c, 7, 58, 58
9, 156600, Note_on_c, 7, 58, 0
9, 157800, Note_on_c, 7, 58, 53
9, 157980, Note_on_c, 7, 58, 0
9, 158040, Note_on_c, 7, 58, 59
9, 158100, Note_on_c, 7, 58, 0
9, 158280, Note_on_c, 7, 58, 53
9, 158460, Note_on_c, 7, 58, 0
9, 158520, Note_on_c, 7, 58, 64
9, 158580, Note_on_c, 7, 58, 0
9, 159360, Note_on_c, 7, 58, 34
9, 159840, Note_on_c, 7, 58, 0
9, 159840, Note_on_c, 7, 59, 42
9, 160320, Note_on_c, 7, 59, 0
9, 160320, Note_on_c, 7, 61, 40
9, 160800, Note_on_c, 7, 61, 0
9, 160800, Note_on_c, 7, 56, 32
9, 161280, Note_on_c, 7, 56, 0
9, 161280, Note_on_c, 7, 61, 40
9, 161400, Note_on_c, 7, 61, 0
9, 161400, Note_on_c, 7, 58, 44
9, 161520, Note_on_c, 7, 58, 0
9, 161640, Note_on_c, 7, 67, 43
9, 161760, Note_on_c, 7, 67, 0
9, 161880, Note_on_c, 7, 65, 45
9, 162000, Note_on_c, 7, 65, 0
9, 162120, Note_on_c, 7, 60, 45
9, 162240, Note_on_c, 7, 60, 0
9, 162360, Note_on_c, 7, 58, 57
9, 162480, Note_on_c, 7, 58, 0
9, 162600, Note_on_c, 7, 70, 44
9, 162720, Note_on_c, 7, 70, 0
9, 162840, Note_on_c, 7, 70, 45
9, 162960, Note_on_c, 7, 70, 0
9, 163080, Note_on_c, 7, 60, 45
9, 163200, Note_on_c, 7, 60, 0
9, 163200, Note_on_c, 7, 58, 58
9, 163230, Note_on_c, 7, 58, 0
9, 163260, Note_on_c, 7, 65, 69
9, 163290, Note_on_c, 7, 65, 0
9, 163320, Note_on_c, 7, 65, 68
9, 163350, Note_on_c, 7, 65, 0
9, 163380, Note_on_c, 7, 65, 57
9, 163410, Note_on_c, 7, 65, 0
9, 163440, Note_on_c, 7, 65, 93
9, 163680, Note_on_c, 7, 65, 0
9, 163680, Note_on_c, 7, 65, 62
9, 163710, Note_on_c, 7, 65, 0
9, 163740, Note_on_c, 7, 62, 58
9, 163770, Note_on_c, 7, 62, 0
9, 163800, Note_on_c, 7, 62, 56
9, 163830, Note_on_c, 7, 62, 0
9, 163860, Note_on_c, 7, 62, 58
9, 163890, Note_on_c, 7, 62, 0
9, 163920, Note_on_c, 7, 60, 94
9, 164160, Note_on_c, 7, 60, 0
9, 164160, Note_on_c, 7, 62, 66
9, 164220, Note_on_c, 7, 62, 0
9, 164220, Note_on_c, 7, 65, 62
9, 164280, Note_on_c, 7, 65, 0
9, 164280, Note_on_c, 7, 65, 67
9, 164340, Note_on_c, 7, 65, 0
9, 164340, Note_on_c, 7, 65, 59
9, 164400, Note_on_c, 7, 65, 0
9, 164400, Note_on_c, 7, 65, 61
9, 164460, Note_on_c, 7, 65, 0
9, 164460, Note_on_c, 7, 65, 54
9, 164520, Note_on_c, 7, 65, 0
9, 164520, Note_on_c, 7, 65, 52
9, 164580, Note_on_c, 7, 65, 0
9, 164580, Note_on_c, 7, 65, 56
9, 164640, Note_on_c, 7, 65, 0
9, 164640, Note_on_c, 7, 65, 61
9, 164700, Note_on_c, 7, 65, 0
9, 164700, Note_on_c, 7, 62, 62
9, 164760, Note_on_c, 7, 62, 0
9, 164760, Note_on_c, 7, 62, 70
9, 164820, Note_on_c, 7, 62, 0
9, 164820, Note_on_c, 7, 62, 70
9, 164880, Note_on_c, 7, 62, 0
9, 164880, Note_on_c, 7, 60, 53
9, 164940, Note_on_c, 7, 60, 0
9, 164940, Note_on_c, 7, 60, 45
9, 165000, Note_on_c, 7, 60, 0
9, 165000, Note_on_c, 7, 60, 50
9, 165060, Note_on_c, 7, 60, 0
9, 165060, Note_on_c, 7, 60, 54
9, 165120, Note_on_c, 7, 60, 0
9, 165120, Note_on_c, 7, 62, 43
9, 165240, Note_on_c, 7, 62, 0
9, 168000, Note_on_c, 7, 53, 59
9, 168480, Note_on_c, 7, 53, 0
9, 168480, Note_on_c, 7, 58, 54
9, 168600, Note_on_c, 7, 58, 0
9, 168720, Note_on_c, 7, 62, 44
9, 168840, Note_on_c, 7, 62, 0
9, 168960, Note_on_c, 7, 55, 61
9, 169080, Note_on_c, 7, 55, 0
9, 171480, Note_on_c, 7, 70, 53
9, 171600, Note_on_c, 7, 70, 0
9, 171720, Note_on_c, 7, 70, 62
9, 171840, Note_on_c, 7, 70, 0
9, 171960, Note_on_c, 7, 70, 94
9, 172200, Note_on_c, 7, 70, 0
9, 172200, Note_on_c, 7, 70, 59
9, 172320, Note_on_c, 7, 70, 0
9, 172440, Note_on_c, 7, 70, 42
9, 172560, Note_on_c, 7, 70, 0
9, 172680, Note_on_c, 7, 70, 64
9, 172800, Note_on_c, 7, 70, 0
9, 172920, Note_on_c, 7, 70, 62
9, 173160, Note_on_c, 7, 70, 0
9, 173160, Note_on_c, 7, 70, 62
9, 173280, Note_on_c, 7, 70, 0
9, 173400, Note_on_c, 7, 70, 69
9, 173400, Note_on_c, 7, 67, 63
9, 173640, Note_on_c, 7, 67, 0
9, 173640, Note_on_c, 7, 70, 0
9, 173640, Note_on_c, 7, 67, 50
9, 173640, Note_on_c, 7, 70, 45
9, 173760, Note_on_c, 7, 70, 0
9, 173760, Note_on_c, 7, 67, 0
9, 173760, Note_on_c, 7, 70, 43
9, 173760, Note_on_c, 7, 67, 46
9, 173880, Note_on_c, 7, 67, 0
9, 173880, Note_on_c, 7, 70, 0
9, 174000, Note_on_c, 7, 58, 99
9, 174240, Note_on_c, 7, 58, 0
9, 174240, Note_on_c, 7, 58, 84
9, 174300, Note_on_c, 7, 58, 0
9, 174960, Note_on_c, 7, 58, 98
9, 175200, Note_on_c, 7, 58, 0
9, 175200, Note_on_c, 7, 58, 86
9, 175260, Note_on_c, 7, 58, 0
9, 175920, Note_on_c, 7, 58, 99
9, 176160, Note_on_c, 7, 58, 0
9, 176160, Note_on_c, 7, 58, 94
9, 176220, Note_on_c, 7, 58, 0
9, 181080, Note_on_c, 7, 53, 73
9, 181140, Note_on_c, 7, 53, 0
9, 181200, Note_on_c, 7, 58, 73
9, 181560, Note_on_c, 7, 58, 0
9, 181560, Note_on_c, 7, 58, 69
9, 181620, Note_on_c, 7, 58, 0
9, 181680, Note_on_c, 7, 62, 76
9, 182040, Note_on_c, 7, 62, 0
9, 182040, Note_on_c, 7, 62, 72
9, 182100, Note_on_c, 7, 62, 0
9, 182160, Note_on_c, 7, 65, 72
9, 182220, Note_on_c, 7, 65, 0
9, 182280, Note_on_c, 7, 70, 84
9, 182340, Note_on_c, 7, 70, 0
9, 182400, Note_on_c, 7, 74, 84
9, 182460, Note_on_c, 7, 74, 0
9, 182940, Note_on_c, 7, 60, 63
9, 183000, Note_on_c, 7, 60, 0
9, 183000, Note_on_c, 7, 60, 63
9, 183060, Note_on_c, 7, 60, 0
9, 183060, Note_on_c, 7, 60, 69
9, 183120, Note_on_c, 7, 60, 0
9, 183120, Note_on_c, 7, 60, 61
9, 183180, Note_on_c, 7, 60, 0
9, 183180, Note_on_c, 7, 60, 71
9, 183240, Note_on_c, 7, 60, 0
9, 183240, Note_on_c, 7, 60, 72
9, 183300, Note_on_c, 7, 60, 0
9, 183300, Note_on_c, 7, 60, 68
9, 183360, Note_on_c, 7, 60, 0
9, 183360, Note_on_c, 7, 65, 70
9, 183420, Note_on_c, 7, 65, 0
9, 183420, Note_on_c, 7, 65, 72
9, 183480, Note_on_c, 7, 65, 0
9, 183480, Note_on_c, 7, 65, 68
9, 183540, Note_on_c, 7, 65, 0
9, 183540, Note_on_c, 7, 65, 76
9, 183600, Note_on_c, 7, 65, 0
9, 183600, Note_on_c, 7, 65, 73
9, 183660, Note_on_c, 7, 65, 0
9, 183660, Note_on_c, 7, 65, 64
9, 183720, Note_on_c, 7, 65, 0
9, 183720, Note_on_c, 7, 65, 72
9, 183780, Note_on_c, 7, 65, 0
9, 183780, Note_on_c, 7, 65, 74
9, 183840, Note_on_c, 7, 65, 0
9, 183840, Note_on_c, 7, 58, 90
9, 184020, Note_on_c, 7, 58, 0
9, 184050, Note_on_c, 7, 58, 95
9, 184080, Note_on_c, 7, 58, 0
9, 184080, Note_on_c, 7, 62, 86
9, 184125, Note_on_c, 7, 62, 0
9, 184170, Note_on_c, 7, 62, 84
9, 184193, Note_on_c, 7, 62, 0
9, 184200, Note_on_c, 7, 58, 89
9, 184245, Note_on_c, 7, 58, 0
9, 184290, Note_on_c, 7, 58, 95
9, 184313, Note_on_c, 7, 58, 0
9, 184320, Note_on_c, 7, 65, 95
9, 184500, Note_on_c, 7, 65, 0
9, 184530, Note_on_c, 7, 53, 95
9, 184560, Note_on_c, 7, 53, 0
9, 184560, Note_on_c, 7, 56, 115
9, 184605, Note_on_c, 7, 56, 0
9, 184650, Note_on_c, 7, 56, 95
9, 184673, Note_on_c, 7, 56, 0
9, 184680, Note_on_c, 7, 53, 95
9, 184725, Note_on_c, 7, 53, 0
9, 184770, Note_on_c, 7, 53, 104
9, 184793, Note_on_c, 7, 53, 0
9, 184800, Note_on_c, 7, 60, 104
9, 184980, Note_on_c, 7, 60, 0
9, 185010, Note_on_c, 7, 60, 107
9, 185040, Note_on_c, 7, 60, 0
9, 185040, Note_on_c, 7, 63, 119
9, 185085, Note_on_c, 7, 63, 0
9, 185130, Note_on_c, 7, 63, 95
9, 185153, Note_on_c, 7, 63, 0
9, 185160, Note_on_c, 7, 60, 104
9, 185205, Note_on_c, 7, 60, 0
9, 185250, Note_on_c, 7, 60, 104
9, 185273, Note_on_c, 7, 60, 0
9, 185280, Note_on_c, 7, 67, 95
9, 185460, Note_on_c, 7, 67, 0
9, 185490, Note_on_c, 7, 55, 94
9, 185520, Note_on_c, 7, 55, 0
9, 185520, Note_on_c, 7, 58, 105
9, 185565, Note_on_c, 7, 58, 0
9, 185610, Note_on_c, 7, 58, 95
9, 185633, Note_on_c, 7, 58, 0
9, 185640, Note_on_c, 7, 55, 99
9, 185685, Note_on_c, 7, 55, 0
9, 185730, Note_on_c, 7, 55, 95
9, 185753, Note_on_c, 7, 55, 0
9, 185760, Note_on_c, 7, 62, 104
9, 185820, Note_on_c, 7, 62, 0
9, 185820, Note_on_c, 7, 74, 89
9, 185880, Note_on_c, 7, 74, 0
9, 185880, Note_on_c, 7, 74, 78
9, 185940, Note_on_c, 7, 74, 0
9, 185940, Note_on_c, 7, 74, 89
9, 186000, Note_on_c, 7, 74, 0
9, 186000, Note_on_c, 7, 59, 104
9, 186060, Note_on_c, 7, 59, 0
9, 186060, Note_on_c, 7, 71, 90
9, 186120, Note_on_c, 7, 71, 0
9, 186120, Note_on_c, 7, 71, 93
9, 186180, Note_on_c, 7, 71, 0
9, 186180, Note_on_c, 7, 71, 89
9, 186240, Note_on_c, 7, 71, 0
9, 186240, Note_on_c, 7, 60, 104
9, 186300, Note_on_c, 7, 60, 0
9, 186300, Note_on_c, 7, 72, 89
9, 186360, Note_on_c, 7, 72, 0
9, 186360, Note_on_c, 7, 72, 86
9, 186420, Note_on_c, 7, 72, 0
9, 186420, Note_on_c, 7, 72, 93
9, 186480, Note_on_c, 7, 72, 0
9, 186480, Note_on_c, 7, 57, 104
9, 186540, Note_on_c, 7, 57, 0
9, 186540, Note_on_c, 7, 69, 99
9, 186600, Note_on_c, 7, 69, 0
9, 186600, Note_on_c, 7, 69, 99
9, 186660, Note_on_c, 7, 69, 0
9, 186660, Note_on_c, 7, 69, 99
9, 186720, Note_on_c, 7, 69, 0
9, 186720, Note_on_c, 7, 70, 94
9, 186780, Note_on_c, 7, 70, 0
9, 186840, Note_on_c, 7, 67, 119
9, 187080, Note_on_c, 7, 67, 0
9, 187080, Note_on_c, 7, 69, 110
9, 187140, Note_on_c, 7, 69, 0
9, 187200, Note_on_c, 7, 66, 94
9, 187260, Note_on_c, 7, 66, 0
9, 187320, Note_on_c, 7, 67, 119
9, 187380, Note_on_c, 7, 67, 0
9, 187440, Note_on_c, 7, 64, 105
9, 187500, Note_on_c, 7, 64, 0
9, 187560, Note_on_c, 7, 65, 115
9, 187620, Note_on_c, 7, 65, 0
9, 187680, Note_on_c, 7, 58, 95
9, 187740, Note_on_c, 7, 58, 0
9, 187740, Note_on_c, 7, 70, 89
9, 187800, Note_on_c, 7, 70, 0
9, 187800, Note_on_c, 7, 70, 119
9, 187860, Note_on_c, 7, 70, 0
9, 187860, Note_on_c, 7, 70, 85
9, 187920, Note_on_c, 7, 70, 0
9, 187920, Note_on_c, 7, 70, 76
9, 187980, Note_on_c, 7, 70, 0
9, 187980, Note_on_c, 7, 70, 89
9, 188040, Note_on_c, 7, 70, 0
9, 188040, Note_on_c, 7, 70, 115
9, 188100, Note_on_c, 7, 70, 0
9, 188100, Note_on_c, 7, 70, 94
9, 188160, Note_on_c, 7, 70, 0
9, 188160, Note_on_c, 7, 70, 95
9, 188220, Note_on_c, 7, 70, 0
9, 188220, Note_on_c, 7, 70, 95
9, 188280, Note_on_c, 7, 70, 0
9, 188280, Note_on_c, 7, 70, 95
9, 188340, Note_on_c, 7, 70, 0
9, 188340, Note_on_c, 7, 70, 94
9, 188400, Note_on_c, 7, 70, 0
9, 188400, Note_on_c, 7, 70, 94
9, 188460, Note_on_c, 7, 70, 0
9, 188460, Note_on_c, 7, 70, 95
9, 188520, Note_on_c, 7, 70, 0
9, 188520, Note_on_c, 7, 70, 94
9, 188580, Note_on_c, 7, 70, 0
9, 188580, Note_on_c, 7, 70, 95
9, 188640, Note_on_c, 7, 70, 0
9, 188640, Note_on_c, 7, 70, 127
9, 188640, Note_on_c, 7, 62, 117
9, 188880, Note_on_c, 7, 62, 0
9, 188880, Note_on_c, 7, 70, 0
9, 229440, Note_on_c, 7, 70, 99
9, 229440, Note_on_c, 7, 65, 94
9, 229440, Note_on_c, 7, 58, 90
9, 229560, Note_on_c, 7, 58, 0
9, 229560, Note_on_c, 7, 65, 0
9, 229560, Note_on_c, 7, 70, 0
9, 229560, Note_on_c, 7, 58, 71
9, 229650, Note_on_c, 7, 58, 0
9, 229680, Note_on_c, 7, 58, 72
9, 229770, Note_on_c, 7, 58, 0
9, 229800, Note_on_c, 7, 58, 68
9, 229890, Note_on_c, 7, 58, 0
9, 229920, Note_on_c, 7, 60, 62
9, 230160, Note_on_c, 7, 60, 0
9, 230160, Note_on_c, 7, 57, 69
9, 230340, Note_on_c, 7, 57, 0
9, 230340, Note_on_c, 7, 53, 70
9, 230400, Note_on_c, 7, 53, 0
9, 230400, Note_on_c, 7, 58, 67
9, 230520, Note_on_c, 7, 58, 0
9, 230700, Note_on_c, 7, 53, 65
9, 230760, Note_on_c, 7, 53, 0
9, 230760, Note_on_c, 7, 50, 62
9, 230820, Note_on_c, 7, 50, 0
9, 230820, Note_on_c, 7, 53, 67
9, 230880, Note_on_c, 7, 53, 0
9, 230880, Note_on_c, 7, 51, 68
9, 230940, Note_on_c, 7, 51, 0
9, 230940, Note_on_c, 7, 53, 62
9, 231000, Note_on_c, 7, 53, 0
9, 231000, Note_on_c, 7, 51, 77
9, 231060, Note_on_c, 7, 51, 0
9, 231060, Note_on_c, 7, 53, 80
9, 231120, Note_on_c, 7, 53, 0
9, 231120, Note_on_c, 7, 51, 90
9, 231180, Note_on_c, 7, 51, 0
9, 231180, Note_on_c, 7, 53, 84
9, 231240, Note_on_c, 7, 53, 0
9, 231240, Note_on_c, 7, 51, 93
9, 231300, Note_on_c, 7, 51, 0
9, 231300, Note_on_c, 7, 53, 81
9, 231360, Note_on_c, 7, 53, 0
9, 231360, Note_on_c, 7, 50, 64
9, 231480, Note_on_c, 7, 50, 0
9, 231600, Note_on_c, 7, 70, 98
9, 231600, Note_on_c, 7, 65, 94
9, 231600, Note_on_c, 7, 58, 89
9, 231720, Note_on_c, 7, 58, 0
9, 231720, Note_on_c, 7, 65, 0
9, 231720, Note_on_c, 7, 70, 0
9, 231840, Note_on_c, 7, 58, 99
9, 231960, Note_on_c, 7, 58, 0
9, 231960, End_track
10, 0, Start_track
10, 0, MIDI_port, 0
10, 0, Title_t, "Cellos"
10, 0, Control_c, 8, 7, 100
10, 0, Control_c, 8, 10, 103
10, 0, Control_c, 8, 93, 0
10, 0, Control_c, 8, 91, 66
10, 0, Program_c, 8, 48
10, 0, Note_on_c, 8, 58, 95
10, 180, Note_on_c, 8, 58, 0
10, 210, Note_on_c, 8, 46, 82
10, 240, Note_on_c, 8, 46, 0
10, 240, Note_on_c, 8, 53, 89
10, 285, Note_on_c, 8, 53, 0
10, 330, Note_on_c, 8, 53, 89
10, 345, Note_on_c, 8, 53, 0
10, 360, Note_on_c, 8, 50, 104
10, 390, Note_on_c, 8, 50, 0
10, 450, Note_on_c, 8, 50, 99
10, 465, Note_on_c, 8, 50, 0
10, 480, Note_on_c, 8, 46, 99
10, 600, Note_on_c, 8, 46, 0
10, 960, Note_on_c, 8, 60, 57
10, 1440, Note_on_c, 8, 60, 0
10, 1440, Note_on_c, 8, 60, 43
10, 1560, Note_on_c, 8, 60, 0
10, 1920, Control_c, 8, 7, 100
10, 1920, Control_c, 8, 10, 103
10, 1920, Control_c, 8, 93, 0
10, 1920, Control_c, 8, 91, 66
10, 1920, Note_on_c, 8, 53, 94
10, 2040, Control_c, 8, 7, 100
10, 2040, Control_c, 8, 10, 103
10, 2040, Control_c, 8, 93, 0
10, 2040, Control_c, 8, 91, 66
10, 2100, Note_on_c, 8, 53, 0
10, 2130, Note_on_c, 8, 41, 94
10, 2160, Note_on_c, 8, 41, 0
10, 2160, Note_on_c, 8, 48, 95
10, 2190, Note_on_c, 8, 48, 0
10, 2250, Note_on_c, 8, 48, 95
10, 2265, Note_on_c, 8, 48, 0
10, 2280, Note_on_c, 8, 45, 101
10, 2310, Note_on_c, 8, 45, 0
10, 2370, Note_on_c, 8, 45, 84
10, 2385, Note_on_c, 8, 45, 0
10, 2400, Note_on_c, 8, 41, 95
10, 2520, Note_on_c, 8, 41, 0
10, 2880, Note_on_c, 8, 50, 50
10, 3360, Note_on_c, 8, 50, 0
10, 3360, Note_on_c, 8, 50, 35
10, 3480, Note_on_c, 8, 50, 0
10, 3840, Note_on_c, 8, 58, 63
10, 3960, Note_on_c, 8, 58, 0
10, 4320, Note_on_c, 8, 51, 50
10, 4440, Note_on_c, 8, 51, 0
10, 4800, Note_on_c, 8, 53, 45
10, 4920, Note_on_c, 8, 53, 0
10, 5280, Note_on_c, 8, 46, 49
10, 5400, Note_on_c, 8, 46, 0
10, 5760, Note_on_c, 8, 50, 57
10, 5880, Note_on_c, 8, 50, 0
10, 6240, Note_on_c, 8, 51, 54
10, 6360, Note_on_c, 8, 51, 0
10, 6720, Note_on_c, 8, 53, 60
10, 6840, Note_on_c, 8, 53, 0
10, 6960, Note_on_c, 8, 53, 56
10, 7080, Note_on_c, 8, 53, 0
10, 7200, Note_on_c, 8, 46, 54
10, 7320, Note_on_c, 8, 46, 0
10, 7680, Note_on_c, 8, 46, 62
10, 7860, Note_on_c, 8, 46, 0
10, 7890, Note_on_c, 8, 46, 72
10, 7920, Note_on_c, 8, 46, 0
10, 7920, Note_on_c, 8, 50, 73
10, 7950, Note_on_c, 8, 50, 0
10, 7980, Note_on_c, 8, 50, 56
10, 7995, Note_on_c, 8, 50, 0
10, 8040, Note_on_c, 8, 46, 65
10, 8070, Note_on_c, 8, 46, 0
10, 8100, Note_on_c, 8, 46, 54
10, 8115, Note_on_c, 8, 46, 0
10, 8160, Note_on_c, 8, 51, 58
10, 8220, Note_on_c, 8, 51, 0
10, 8280, Note_on_c, 8, 51, 74
10, 8340, Note_on_c, 8, 51, 0
10, 8400, Note_on_c, 8, 48, 67
10, 8460, Note_on_c, 8, 48, 0
10, 8520, Note_on_c, 8, 45, 65
10, 8580, Note_on_c, 8, 45, 0
10, 8640, Note_on_c, 8, 41, 59
10, 8820, Note_on_c, 8, 41, 0
10, 8850, Note_on_c, 8, 41, 53
10, 8880, Note_on_c, 8, 41, 0
10, 8880, Note_on_c, 8, 43, 64
10, 8910, Note_on_c, 8, 43, 0
10, 8940, Note_on_c, 8, 43, 69
10, 8955, Note_on_c, 8, 43, 0
10, 9000, Note_on_c, 8, 45, 72
10, 9030, Note_on_c, 8, 45, 0
10, 9060, Note_on_c, 8, 45, 69
10, 9075, Note_on_c, 8, 45, 0
10, 9120, Note_on_c, 8, 46, 58
10, 9180, Note_on_c, 8, 46, 0
10, 9240, Note_on_c, 8, 50, 69
10, 9300, Note_on_c, 8, 50, 0
10, 9360, Note_on_c, 8, 53, 72
10, 9420, Note_on_c, 8, 53, 0
10, 9480, Note_on_c, 8, 58, 73
10, 9540, Note_on_c, 8, 58, 0
10, 9600, Note_on_c, 8, 62, 61
10, 9780, Note_on_c, 8, 62, 0
10, 9810, Note_on_c, 8, 50, 71
10, 9840, Note_on_c, 8, 50, 0
10, 9840, Note_on_c, 8, 50, 89
10, 9900, Note_on_c, 8, 50, 0
10, 9960, Note_on_c, 8, 50, 99
10, 10020, Note_on_c, 8, 50, 0
10, 10080, Note_on_c, 8, 48, 95
10, 10140, Note_on_c, 8, 48, 0
10, 10140, Note_on_c, 8, 48, 94
10, 10200, Note_on_c, 8, 48, 0
10, 10200, Note_on_c, 8, 48, 95
10, 10260, Note_on_c, 8, 48, 0
10, 10260, Note_on_c, 8, 48, 95
10, 10320, Note_on_c, 8, 48, 0
10, 10320, Note_on_c, 8, 48, 107
10, 10380, Note_on_c, 8, 48, 0
10, 10380, Note_on_c, 8, 48, 94
10, 10440, Note_on_c, 8, 48, 0
10, 10440, Note_on_c, 8, 48, 86
10, 10500, Note_on_c, 8, 48, 0
10, 10500, Note_on_c, 8, 48, 93
10, 10560, Note_on_c, 8, 48, 0
10, 10560, Note_on_c, 8, 47, 89
10, 10680, Note_on_c, 8, 47, 0
10, 11040, Note_on_c, 8, 50, 99
10, 11100, Note_on_c, 8, 50, 0
10, 11100, Note_on_c, 8, 50, 95
10, 11160, Note_on_c, 8, 50, 0
10, 11160, Note_on_c, 8, 50, 95
10, 11220, Note_on_c, 8, 50, 0
10, 11220, Note_on_c, 8, 50, 95
10, 11280, Note_on_c, 8, 50, 0
10, 11280, Note_on_c, 8, 50, 112
10, 11340, Note_on_c, 8, 50, 0
10, 11340, Note_on_c, 8, 50, 101
10, 11400, Note_on_c, 8, 50, 0
10, 11400, Note_on_c, 8, 50, 95
10, 11460, Note_on_c, 8, 50, 0
10, 11460, Note_on_c, 8, 50, 95
10, 11520, Note_on_c, 8, 50, 0
10, 11520, Note_on_c, 8, 49, 93
10, 11580, Note_on_c, 8, 49, 0
10, 11580, Note_on_c, 8, 61, 80
10, 11640, Note_on_c, 8, 61, 0
10, 11640, Note_on_c, 8, 61, 84
10, 11700, Note_on_c, 8, 61, 0
10, 11700, Note_on_c, 8, 61, 84
10, 11760, Note_on_c, 8, 61, 0
10, 11760, Note_on_c, 8, 62, 105
10, 11820, Note_on_c, 8, 62, 0
10, 11820, Note_on_c, 8, 62, 84
10, 11880, Note_on_c, 8, 62, 0
10, 11880, Note_on_c, 8, 62, 89
10, 11940, Note_on_c, 8, 62, 0
10, 11940, Note_on_c, 8, 62, 82
10, 12000, Note_on_c, 8, 62, 0
10, 12000, Note_on_c, 8, 61, 89
10, 12060, Note_on_c, 8, 61, 0
10, 12060, Note_on_c, 8, 61, 89
10, 12120, Note_on_c, 8, 61, 0
10, 12120, Note_on_c, 8, 61, 89
10, 12180, Note_on_c, 8, 61, 0
10, 12180, Note_on_c, 8, 61, 90
10, 12240, Note_on_c, 8, 61, 0
10, 12240, Note_on_c, 8, 62, 105
10, 12300, Note_on_c, 8, 62, 0
10, 12300, Note_on_c, 8, 62, 95
10, 12360, Note_on_c, 8, 62, 0
10, 12360, Note_on_c, 8, 62, 86
10, 12420, Note_on_c, 8, 62, 0
10, 12420, Note_on_c, 8, 62, 99
10, 12480, Note_on_c, 8, 62, 0
10, 12480, Note_on_c, 8, 61, 84
10, 12525, Note_on_c, 8, 61, 0
10, 12540, Note_on_c, 8, 61, 81
10, 12585, Note_on_c, 8, 61, 0
10, 12600, Note_on_c, 8, 60, 95
10, 12645, Note_on_c, 8, 60, 0
10, 12660, Note_on_c, 8, 60, 93
10, 12705, Note_on_c, 8, 60, 0
10, 12720, Note_on_c, 8, 59, 94
10, 12765, Note_on_c, 8, 59, 0
10, 12780, Note_on_c, 8, 59, 95
10, 12825, Note_on_c, 8, 59, 0
10, 12840, Note_on_c, 8, 58, 98
10, 12885, Note_on_c, 8, 58, 0
10, 12900, Note_on_c, 8, 58, 86
10, 12945, Note_on_c, 8, 58, 0
10, 12960, Note_on_c, 8, 57, 99
10, 13080, Note_on_c, 8, 57, 0
10, 13320, Note_on_c, 8, 53, 94
10, 13440, Note_on_c, 8, 53, 0
10, 13440, Note_on_c, 8, 65, 95
10, 13500, Note_on_c, 8, 65, 0
10, 13560, Note_on_c, 8, 65, 94
10, 13620, Note_on_c, 8, 65, 0
10, 13800, Note_on_c, 8, 53, 98
10, 13920, Note_on_c, 8, 53, 0
10, 13920, Note_on_c, 8, 65, 93
10, 13980, Note_on_c, 8, 65, 0
10, 14040, Note_on_c, 8, 53, 89
10, 14100, Note_on_c, 8, 53, 0
10, 14160, Note_on_c, 8, 51, 90
10, 14220, Note_on_c, 8, 51, 0
10, 14280, Note_on_c, 8, 49, 86
10, 14340, Note_on_c, 8, 49, 0
10, 14400, Note_on_c, 8, 48, 94
10, 14520, Note_on_c, 8, 48, 0
10, 14520, Note_on_c, 8, 60, 81
10, 14580, Note_on_c, 8, 60, 0
10, 14760, Note_on_c, 8, 58, 86
10, 14820, Note_on_c, 8, 58, 0
10, 14880, Note_on_c, 8, 56, 84
10, 14940, Note_on_c, 8, 56, 0
10, 15000, Note_on_c, 8, 53, 94
10, 15060, Note_on_c, 8, 53, 0
10, 15240, Note_on_c, 8, 53, 86
10, 15360, Note_on_c, 8, 53, 0
10, 15360, Note_on_c, 8, 52, 104
10, 15480, Note_on_c, 8, 52, 0
10, 15480, Note_on_c, 8, 48, 101
10, 15600, Note_on_c, 8, 48, 0
10, 15600, Note_on_c, 8, 53, 95
10, 15720, Note_on_c, 8, 53, 0
10, 15720, Note_on_c, 8, 56, 99
10, 15840, Note_on_c, 8, 56, 0
10, 15840, Note_on_c, 8, 60, 99
10, 15960, Note_on_c, 8, 60, 0
10, 16320, Note_on_c, 8, 48, 93
10, 16440, Note_on_c, 8, 48, 0
10, 16440, Note_on_c, 8, 60, 80
10, 16560, Note_on_c, 8, 60, 0
10, 16680, Note_on_c, 8, 58, 89
10, 16800, Note_on_c, 8, 58, 0
10, 16800, Note_on_c, 8, 56, 77
10, 16920, Note_on_c, 8, 56, 0
10, 16920, Note_on_c, 8, 53, 89
10, 17040, Note_on_c, 8, 53, 0
10, 17160, Note_on_c, 8, 53, 93
10, 17280, Note_on_c, 8, 53, 0
10, 17280, Note_on_c, 8, 52, 107
10, 17400, Note_on_c, 8, 52, 0
10, 17400, Note_on_c, 8, 48, 99
10, 17520, Note_on_c, 8, 48, 0
10, 17520, Note_on_c, 8, 53, 99
10, 17640, Note_on_c, 8, 53, 0
10, 17640, Note_on_c, 8, 56, 99
10, 17760, Note_on_c, 8, 56, 0
10, 17760, Note_on_c, 8, 60, 99
10, 17880, Note_on_c, 8, 60, 0
10, 18240, Note_on_c, 8, 48, 101
10, 18360, Note_on_c, 8, 48, 0
10, 18480, Note_on_c, 8, 48, 99
10, 18600, Note_on_c, 8, 48, 0
10, 18720, Note_on_c, 8, 48, 101
10, 18840, Note_on_c, 8, 48, 0
10, 19200, Note_on_c, 8, 49, 42
10, 19320, Note_on_c, 8, 49, 0
10, 19440, Note_on_c, 8, 49, 43
10, 19560, Note_on_c, 8, 49, 0
10, 19680, Note_on_c, 8, 49, 50
10, 19800, Note_on_c, 8, 49, 0
10, 20160, Note_on_c, 8, 49, 53
10, 20640, Note_on_c, 8, 49, 0
10, 20640, Note_on_c, 8, 53, 46
10, 21120, Note_on_c, 8, 53, 0
10, 21120, Note_on_c, 8, 54, 44
10, 21600, Note_on_c, 8, 54, 0
10, 21600, Note_on_c, 8, 56, 52
10, 22080, Note_on_c, 8, 56, 0
10, 22080, Note_on_c, 8, 49, 50
10, 22560, Note_on_c, 8, 49, 0
10, 22560, Note_on_c, 8, 46, 46
10, 23040, Note_on_c, 8, 46, 0
10, 23040, Note_on_c, 8, 51, 52
10, 23520, Note_on_c, 8, 51, 0
10, 23520, Note_on_c, 8, 53, 59
10, 24000, Note_on_c, 8, 53, 0
10, 24000, Note_on_c, 8, 46, 67
10, 24180, Note_on_c, 8, 46, 0
10, 24180, Note_on_c, 8, 48, 64
10, 24240, Note_on_c, 8, 48, 0
10, 24240, Note_on_c, 8, 49, 82
10, 24300, Note_on_c, 8, 49, 0
10, 24300, Note_on_c, 8, 51, 89
10, 24360, Note_on_c, 8, 51, 0
10, 24360, Note_on_c, 8, 53, 61
10, 24420, Note_on_c, 8, 53, 0
10, 24420, Note_on_c, 8, 52, 46
10, 24480, Note_on_c, 8, 52, 0
10, 24480, Note_on_c, 8, 53, 45
10, 24600, Note_on_c, 8, 53, 0
10, 24960, Note_on_c, 8, 46, 44
10, 25140, Note_on_c, 8, 46, 0
10, 25140, Note_on_c, 8, 48, 72
10, 25200, Note_on_c, 8, 48, 0
10, 25200, Note_on_c, 8, 49, 85
10, 25260, Note_on_c, 8, 49, 0
10, 25260, Note_on_c, 8, 51, 94
10, 25320, Note_on_c, 8, 51, 0
10, 25320, Note_on_c, 8, 53, 62
10, 25380, Note_on_c, 8, 53, 0
10, 25380, Note_on_c, 8, 52, 43
10, 25440, Note_on_c, 8, 52, 0
10, 25440, Note_on_c, 8, 53, 54
10, 25560, Note_on_c, 8, 53, 0
10, 25920, Note_on_c, 8, 46, 53
10, 26100, Note_on_c, 8, 46, 0
10, 26100, Note_on_c, 8, 48, 67
10, 26160, Note_on_c, 8, 48, 0
10, 26160, Note_on_c, 8, 49, 84
10, 26220, Note_on_c, 8, 49, 0
10, 26220, Note_on_c, 8, 51, 85
10, 26280, Note_on_c, 8, 51, 0
10, 26280, Note_on_c, 8, 53, 80
10, 26340, Note_on_c, 8, 53, 0
10, 26340, Note_on_c, 8, 49, 89
10, 26400, Note_on_c, 8, 49, 0
10, 26400, Note_on_c, 8, 51, 95
10, 26640, Note_on_c, 8, 51, 0
10, 26640, Note_on_c, 8, 52, 105
10, 26880, Note_on_c, 8, 52, 0
10, 26880, Note_on_c, 8, 53, 86
10, 27000, Note_on_c, 8, 53, 0
10, 27360, Note_on_c, 8, 53, 40
10, 27480, Note_on_c, 8, 53, 0
10, 27840, Note_on_c, 8, 53, 50
10, 27960, Note_on_c, 8, 53, 0
10, 28320, Note_on_c, 8, 53, 40
10, 28440, Note_on_c, 8, 53, 0
10, 28800, Note_on_c, 8, 53, 78
10, 28920, Note_on_c, 8, 53, 0
10, 29280, Note_on_c, 8, 53, 86
10, 29400, Note_on_c, 8, 53, 0
10, 29760, Control_c, 8, 7, 99
10, 29760, Note_on_c, 8, 46, 94
10, 29766, Control_c, 8, 7, 98
10, 29770, Control_c, 8, 7, 97
10, 29776, Control_c, 8, 7, 96
10, 29780, Control_c, 8, 7, 95
10, 29786, Control_c, 8, 7, 94
10, 29790, Control_c, 8, 7, 93
10, 29796, Control_c, 8, 7, 92
10, 29800, Control_c, 8, 7, 91
10, 29806, Control_c, 8, 7, 90
10, 29810, Control_c, 8, 7, 89
10, 29816, Control_c, 8, 7, 88
10, 29820, Control_c, 8, 7, 87
10, 29826, Control_c, 8, 7, 86
10, 29830, Control_c, 8, 7, 85
10, 29836, Control_c, 8, 7, 84
10, 29840, Control_c, 8, 7, 83
10, 29846, Control_c, 8, 7, 82
10, 29850, Control_c, 8, 7, 81
10, 29856, Control_c, 8, 7, 80
10, 29860, Control_c, 8, 7, 79
10, 29866, Control_c, 8, 7, 78
10, 29870, Control_c, 8, 7, 77
10, 29876, Control_c, 8, 7, 76
10, 29880, Note_on_c, 8, 46, 0
10, 29880, Control_c, 8, 7, 75
10, 29886, Control_c, 8, 7, 74
10, 29890, Control_c, 8, 7, 73
10, 29896, Control_c, 8, 7, 72
10, 29900, Control_c, 8, 7, 71
10, 29906, Control_c, 8, 7, 70
10, 29910, Control_c, 8, 7, 69
10, 29916, Control_c, 8, 7, 68
10, 29920, Control_c, 8, 7, 67
10, 29926, Control_c, 8, 7, 66
10, 29930, Control_c, 8, 7, 65
10, 29936, Control_c, 8, 7, 64
10, 29940, Control_c, 8, 7, 63
10, 30118, Control_c, 8, 7, 63
10, 30122, Control_c, 8, 7, 64
10, 30126, Control_c, 8, 7, 65
10, 30130, Control_c, 8, 7, 66
10, 30132, Control_c, 8, 7, 67
10, 30136, Control_c, 8, 7, 68
10, 30140, Control_c, 8, 7, 69
10, 30142, Control_c, 8, 7, 70
10, 30146, Control_c, 8, 7, 71
10, 30150, Control_c, 8, 7, 72
10, 30152, Control_c, 8, 7, 73
10, 30156, Control_c, 8, 7, 74
10, 30160, Control_c, 8, 7, 75
10, 30164, Control_c, 8, 7, 76
10, 30166, Control_c, 8, 7, 77
10, 30170, Control_c, 8, 7, 78
10, 30174, Control_c, 8, 7, 79
10, 30176, Control_c, 8, 7, 80
10, 30180, Control_c, 8, 7, 81
10, 30184, Control_c, 8, 7, 82
10, 30186, Control_c, 8, 7, 83
10, 30190, Control_c, 8, 7, 84
10, 30194, Control_c, 8, 7, 85
10, 30196, Control_c, 8, 7, 86
10, 30200, Control_c, 8, 7, 87
10, 30204, Control_c, 8, 7, 88
10, 30208, Control_c, 8, 7, 89
10, 30210, Control_c, 8, 7, 90
10, 30214, Control_c, 8, 7, 91
10, 30218, Control_c, 8, 7, 92
10, 30220, Control_c, 8, 7, 93
10, 30224, Control_c, 8, 7, 94
10, 30228, Control_c, 8, 7, 95
10, 30230, Control_c, 8, 7, 96
10, 30234, Control_c, 8, 7, 97
10, 30238, Control_c, 8, 7, 98
10, 30240, Note_on_c, 8, 58, 58
10, 30240, Control_c, 8, 7, 99
10, 30300, Note_on_c, 8, 58, 0
10, 30360, Note_on_c, 8, 53, 63
10, 30420, Note_on_c, 8, 53, 0
10, 30480, Note_on_c, 8, 50, 64
10, 30540, Note_on_c, 8, 50, 0
10, 30600, Note_on_c, 8, 46, 56
10, 30660, Note_on_c, 8, 46, 0
10, 30720, Note_on_c, 8, 48, 90
10, 30840, Note_on_c, 8, 48, 0
10, 31200, Note_on_c, 8, 60, 61
10, 31260, Note_on_c, 8, 60, 0
10, 31320, Note_on_c, 8, 57, 72
10, 31380, Note_on_c, 8, 57, 0
10, 31440, Note_on_c, 8, 51, 52
10, 31500, Note_on_c, 8, 51, 0
10, 31560, Note_on_c, 8, 48, 68
10, 31620, Note_on_c, 8, 48, 0
10, 31680, Note_on_c, 8, 50, 90
10, 31800, Note_on_c, 8, 50, 0
10, 32160, Note_on_c, 8, 62, 62
10, 32220, Note_on_c, 8, 62, 0
10, 32280, Note_on_c, 8, 59, 67
10, 32340, Note_on_c, 8, 59, 0
10, 32400, Note_on_c, 8, 55, 68
10, 32460, Note_on_c, 8, 55, 0
10, 32520, Note_on_c, 8, 53, 66
10, 32580, Note_on_c, 8, 53, 0
10, 32640, Note_on_c, 8, 51, 95
10, 32670, Note_on_c, 8, 51, 0
10, 32730, Note_on_c, 8, 51, 95
10, 32745, Note_on_c, 8, 51, 0
10, 32760, Note_on_c, 8, 51, 82
10, 32880, Note_on_c, 8, 51, 0
10, 33120, Note_on_c, 8, 53, 99
10, 33165, Note_on_c, 8, 53, 0
10, 33210, Note_on_c, 8, 53, 86
10, 33225, Note_on_c, 8, 53, 0
10, 33240, Note_on_c, 8, 53, 84
10, 33360, Note_on_c, 8, 53, 0
10, 33600, Note_on_c, 8, 53, 95
10, 33645, Note_on_c, 8, 53, 0
10, 33690, Note_on_c, 8, 53, 82
10, 33705, Note_on_c, 8, 53, 0
10, 33720, Note_on_c, 8, 53, 81
10, 33840, Note_on_c, 8, 53, 0
10, 34080, Note_on_c, 8, 55, 95
10, 34125, Note_on_c, 8, 55, 0
10, 34170, Note_on_c, 8, 55, 84
10, 34185, Note_on_c, 8, 55, 0
10, 34200, Note_on_c, 8, 55, 84
10, 34320, Note_on_c, 8, 55, 0
10, 34560, Note_on_c, 8, 55, 93
10, 34605, Note_on_c, 8, 55, 0
10, 34650, Note_on_c, 8, 55, 99
10, 34665, Note_on_c, 8, 55, 0
10, 34680, Note_on_c, 8, 55, 99
10, 34800, Note_on_c, 8, 55, 0
10, 35520, Note_on_c, 8, 46, 84
10, 35580, Note_on_c, 8, 46, 0
10, 35640, Note_on_c, 8, 58, 94
10, 35880, Note_on_c, 8, 58, 0
10, 35880, Note_on_c, 8, 57, 90
10, 36000, Note_on_c, 8, 57, 0
10, 36000, Note_on_c, 8, 51, 67
10, 36060, Note_on_c, 8, 51, 0
10, 36120, Note_on_c, 8, 63, 94
10, 36360, Note_on_c, 8, 63, 0
10, 36360, Note_on_c, 8, 62, 81
10, 36480, Note_on_c, 8, 62, 0
10, 36480, Note_on_c, 8, 53, 77
10, 36540, Note_on_c, 8, 53, 0
10, 36600, Note_on_c, 8, 65, 107
10, 36780, Note_on_c, 8, 65, 0
10, 36780, Note_on_c, 8, 63, 89
10, 36840, Note_on_c, 8, 63, 0
10, 36840, Note_on_c, 8, 62, 84
10, 36900, Note_on_c, 8, 62, 0
10, 36900, Note_on_c, 8, 60, 78
10, 36960, Note_on_c, 8, 60, 0
10, 36960, Note_on_c, 8, 65, 99
10, 37020, Note_on_c, 8, 65, 0
10, 37080, Note_on_c, 8, 53, 89
10, 37140, Note_on_c, 8, 53, 0
10, 37200, Note_on_c, 8, 53, 90
10, 37260, Note_on_c, 8, 53, 0
10, 37320, Note_on_c, 8, 53, 90
10, 37380, Note_on_c, 8, 53, 0
10, 37440, Note_on_c, 8, 53, 95
10, 37500, Note_on_c, 8, 53, 0
10, 37560, Note_on_c, 8, 65, 110
10, 37740, Note_on_c, 8, 65, 0
10, 37740, Note_on_c, 8, 63, 80
10, 37800, Note_on_c, 8, 63, 0
10, 37800, Note_on_c, 8, 62, 84
10, 37860, Note_on_c, 8, 62, 0
10, 37860, Note_on_c, 8, 60, 84
10, 37920, Note_on_c, 8, 60, 0
10, 37920, Note_on_c, 8, 65, 94
10, 37980, Note_on_c, 8, 65, 0
10, 38040, Note_on_c, 8, 53, 90
10, 38100, Note_on_c, 8, 53, 0
10, 38160, Note_on_c, 8, 53, 94
10, 38220, Note_on_c, 8, 53, 0
10, 38280, Note_on_c, 8, 53, 94
10, 38340, Note_on_c, 8, 53, 0
10, 38400, Note_on_c, 8, 58, 99
10, 38460, Note_on_c, 8, 58, 0
10, 38460, Note_on_c, 8, 57, 104
10, 38520, Note_on_c, 8, 57, 0
10, 38520, Note_on_c, 8, 58, 80
10, 38550, Note_on_c, 8, 58, 0
10, 38580, Note_on_c, 8, 57, 86
10, 38610, Note_on_c, 8, 57, 0
10, 38640, Note_on_c, 8, 55, 99
10, 38700, Note_on_c, 8, 55, 0
10, 38700, Note_on_c, 8, 54, 81
10, 38760, Note_on_c, 8, 54, 0
10, 38760, Note_on_c, 8, 55, 85
10, 38790, Note_on_c, 8, 55, 0
10, 38820, Note_on_c, 8, 53, 82
10, 38850, Note_on_c, 8, 53, 0
10, 38880, Note_on_c, 8, 51, 98
10, 38940, Note_on_c, 8, 51, 0
10, 38940, Note_on_c, 8, 50, 90
10, 39000, Note_on_c, 8, 50, 0
10, 39000, Note_on_c, 8, 51, 84
10, 39030, Note_on_c, 8, 51, 0
10, 39060, Note_on_c, 8, 48, 94
10, 39090, Note_on_c, 8, 48, 0
10, 39120, Note_on_c, 8, 53, 98
10, 39180, Note_on_c, 8, 53, 0
10, 39180, Note_on_c, 8, 52, 89
10, 39240, Note_on_c, 8, 52, 0
10, 39240, Note_on_c, 8, 53, 90
10, 39270, Note_on_c, 8, 53, 0
10, 39300, Note_on_c, 8, 41, 94
10, 39330, Note_on_c, 8, 41, 0
10, 39360, Note_on_c, 8, 58, 98
10, 39420, Note_on_c, 8, 58, 0
10, 39420, Note_on_c, 8, 57, 110
10, 39480, Note_on_c, 8, 57, 0
10, 39480, Note_on_c, 8, 58, 90
10, 39510, Note_on_c, 8, 58, 0
10, 39540, Note_on_c, 8, 57, 105
10, 39570, Note_on_c, 8, 57, 0
10, 39600, Note_on_c, 8, 55, 98
10, 39660, Note_on_c, 8, 55, 0
10, 39660, Note_on_c, 8, 54, 90
10, 39720, Note_on_c, 8, 54, 0
10, 39720, Note_on_c, 8, 55, 99
10, 39750, Note_on_c, 8, 55, 0
10, 39780, Note_on_c, 8, 53, 95
10, 39810, Note_on_c, 8, 53, 0
10, 39840, Note_on_c, 8, 51, 94
10, 39900, Note_on_c, 8, 51, 0
10, 39900, Note_on_c, 8, 50, 105
10, 39960, Note_on_c, 8, 50, 0
10, 39960, Note_on_c, 8, 51, 95
10, 39990, Note_on_c, 8, 51, 0
10, 40020, Note_on_c, 8, 48, 104
10, 40050, Note_on_c, 8, 48, 0
10, 40080, Note_on_c, 8, 53, 95
10, 40140, Note_on_c, 8, 53, 0
10, 40140, Note_on_c, 8, 52, 101
10, 40200, Note_on_c, 8, 52, 0
10, 40200, Note_on_c, 8, 53, 95
10, 40230, Note_on_c, 8, 53, 0
10, 40260, Note_on_c, 8, 41, 95
10, 40290, Note_on_c, 8, 41, 0
10, 40320, Note_on_c, 8, 46, 95
10, 40440, Note_on_c, 8, 46, 0
10, 40800, Note_on_c, 8, 53, 60
10, 41280, Note_on_c, 8, 53, 0
10, 41280, Note_on_c, 8, 58, 72
10, 41400, Note_on_c, 8, 58, 0
10, 41760, Note_on_c, 8, 53, 71
10, 41880, Note_on_c, 8, 53, 0
10, 42240, Note_on_c, 8, 46, 78
10, 42360, Note_on_c, 8, 46, 0
10, 42480, Note_on_c, 8, 58, 95
10, 42600, Note_on_c, 8, 58, 0
10, 42720, Note_on_c, 8, 46, 95
10, 42840, Note_on_c, 8, 46, 0
10, 45120, Note_on_c, 8, 51, 67
10, 45240, Note_on_c, 8, 51, 0
10, 45600, Note_on_c, 8, 50, 58
10, 45720, Note_on_c, 8, 50, 0
10, 46080, Note_on_c, 8, 60, 62
10, 46200, Note_on_c, 8, 60, 0
10, 46320, Note_on_c, 8, 58, 68
10, 46440, Note_on_c, 8, 58, 0
10, 46560, Note_on_c, 8, 57, 65
10, 46680, Note_on_c, 8, 57, 0
10, 46800, Note_on_c, 8, 58, 65
10, 46920, Note_on_c, 8, 58, 0
10, 47040, Note_on_c, 8, 51, 61
10, 47160, Note_on_c, 8, 51, 0
10, 47520, Note_on_c, 8, 53, 57
10, 47640, Note_on_c, 8, 53, 0
10, 48360, Note_on_c, 8, 53, 67
10, 48480, Note_on_c, 8, 53, 0
10, 48480, Note_on_c, 8, 46, 90
10, 48520, Control_c, 8, 7, 99
10, 48524, Control_c, 8, 7, 98
10, 48526, Control_c, 8, 7, 97
10, 48528, Control_c, 8, 7, 96
10, 48530, Control_c, 8, 7, 95
10, 48532, Control_c, 8, 7, 94
10, 48534, Control_c, 8, 7, 93
10, 48536, Control_c, 8, 7, 92
10, 48538, Control_c, 8, 7, 91
10, 48540, Control_c, 8, 7, 90
10, 48544, Control_c, 8, 7, 89
10, 48546, Control_c, 8, 7, 88
10, 48548, Control_c, 8, 7, 87
10, 48550, Control_c, 8, 7, 86
10, 48552, Control_c, 8, 7, 85
10, 48554, Control_c, 8, 7, 84
10, 48556, Control_c, 8, 7, 83
10, 48558, Control_c, 8, 7, 82
10, 48560, Control_c, 8, 7, 81
10, 48564, Control_c, 8, 7, 80
10, 48566, Control_c, 8, 7, 79
10, 48568, Control_c, 8, 7, 78
10, 48570, Control_c, 8, 7, 77
10, 48572, Control_c, 8, 7, 76
10, 48574, Control_c, 8, 7, 75
10, 48576, Control_c, 8, 7, 74
10, 48578, Control_c, 8, 7, 73
10, 48580, Control_c, 8, 7, 72
10, 48584, Control_c, 8, 7, 71
10, 48586, Control_c, 8, 7, 70
10, 48588, Control_c, 8, 7, 69
10, 48590, Control_c, 8, 7, 68
10, 48592, Control_c, 8, 7, 67
10, 48594, Control_c, 8, 7, 66
10, 48596, Control_c, 8, 7, 65
10, 48598, Control_c, 8, 7, 64
10, 48600, Control_c, 8, 7, 63
10, 48960, Note_on_c, 8, 46, 0
10, 48960, Note_on_c, 8, 46, 81
10, 49440, Note_on_c, 8, 46, 0
10, 49440, Note_on_c, 8, 46, 86
10, 49440, Control_c, 8, 7, 63
10, 49454, Control_c, 8, 7, 64
10, 49468, Control_c, 8, 7, 65
10, 49480, Control_c, 8, 7, 66
10, 49494, Control_c, 8, 7, 67
10, 49508, Control_c, 8, 7, 68
10, 49520, Control_c, 8, 7, 69
10, 49534, Control_c, 8, 7, 70
10, 49548, Control_c, 8, 7, 71
10, 49560, Control_c, 8, 7, 72
10, 49574, Control_c, 8, 7, 73
10, 49588, Control_c, 8, 7, 74
10, 49600, Control_c, 8, 7, 75
10, 49614, Control_c, 8, 7, 76
10, 49628, Control_c, 8, 7, 77
10, 49640, Control_c, 8, 7, 78
10, 49654, Control_c, 8, 7, 79
10, 49668, Control_c, 8, 7, 80
10, 49680, Control_c, 8, 7, 81
10, 49694, Control_c, 8, 7, 82
10, 49708, Control_c, 8, 7, 83
10, 49720, Control_c, 8, 7, 84
10, 49734, Control_c, 8, 7, 85
10, 49748, Control_c, 8, 7, 86
10, 49760, Control_c, 8, 7, 87
10, 49774, Control_c, 8, 7, 88
10, 49788, Control_c, 8, 7, 89
10, 49800, Control_c, 8, 7, 90
10, 49814, Control_c, 8, 7, 91
10, 49828, Control_c, 8, 7, 92
10, 49840, Control_c, 8, 7, 93
10, 49854, Control_c, 8, 7, 94
10, 49868, Control_c, 8, 7, 95
10, 49880, Control_c, 8, 7, 96
10, 49894, Control_c, 8, 7, 97
10, 49908, Control_c, 8, 7, 98
10, 49920, Note_on_c, 8, 46, 0
10, 49920, Note_on_c, 8, 46, 89
10, 49920, Control_c, 8, 7, 99
10, 50400, Note_on_c, 8, 46, 0
10, 50400, Note_on_c, 8, 46, 95
10, 50520, Note_on_c, 8, 46, 0
10, 50880, Note_on_c, 8, 58, 71
10, 51000, Note_on_c, 8, 58, 0
10, 51120, Note_on_c, 8, 56, 60
10, 51240, Note_on_c, 8, 56, 0
10, 51360, Note_on_c, 8, 56, 64
10, 51480, Note_on_c, 8, 56, 0
10, 51840, Note_on_c, 8, 56, 64
10, 51960, Note_on_c, 8, 56, 0
10, 52080, Note_on_c, 8, 56, 62
10, 52200, Note_on_c, 8, 56, 0
10, 52320, Note_on_c, 8, 57, 71
10, 52440, Note_on_c, 8, 57, 0
10, 52800, Note_on_c, 8, 57, 76
10, 52920, Note_on_c, 8, 57, 0
10, 53040, Note_on_c, 8, 55, 64
10, 53160, Note_on_c, 8, 55, 0
10, 53280, Note_on_c, 8, 54, 65
10, 53400, Note_on_c, 8, 54, 0
10, 53760, Note_on_c, 8, 54, 53
10, 53880, Note_on_c, 8, 54, 0
10, 54000, Note_on_c, 8, 54, 68
10, 54120, Note_on_c, 8, 54, 0
10, 54240, Note_on_c, 8, 55, 53
10, 54360, Note_on_c, 8, 55, 0
10, 54720, Note_on_c, 8, 52, 62
10, 54840, Note_on_c, 8, 52, 0
10, 55200, Note_on_c, 8, 49, 62
10, 55320, Note_on_c, 8, 49, 0
10, 55680, Note_on_c, 8, 48, 61
10, 55800, Note_on_c, 8, 48, 0
10, 55920, Note_on_c, 8, 49, 71
10, 56040, Note_on_c, 8, 49, 0
10, 56160, Note_on_c, 8, 48, 73
10, 56280, Note_on_c, 8, 48, 0
10, 56400, Note_on_c, 8, 49, 76
10, 56520, Note_on_c, 8, 49, 0
10, 56640, Note_on_c, 8, 48, 45
10, 57120, Note_on_c, 8, 48, 0
10, 57120, Note_on_c, 8, 48, 57
10, 57600, Note_on_c, 8, 48, 0
10, 57600, Note_on_c, 8, 48, 43
10, 58080, Note_on_c, 8, 48, 0
10, 58080, Note_on_c, 8, 48, 55
10, 58140, Note_on_c, 8, 48, 0
10, 58260, Note_on_c, 8, 60, 49
10, 58320, Note_on_c, 8, 60, 0
10, 58320, Note_on_c, 8, 55, 62
10, 58380, Note_on_c, 8, 55, 0
10, 58500, Note_on_c, 8, 55, 62
10, 58560, Note_on_c, 8, 55, 0
10, 58560, Note_on_c, 8, 48, 54
10, 58620, Note_on_c, 8, 48, 0
10, 60960, Note_on_c, 8, 53, 89
10, 61020, Control_c, 8, 7, 98
10, 61022, Control_c, 8, 7, 97
10, 61024, Control_c, 8, 7, 96
10, 61026, Control_c, 8, 7, 95
10, 61028, Control_c, 8, 7, 94
10, 61030, Control_c, 8, 7, 93
10, 61032, Control_c, 8, 7, 92
10, 61034, Control_c, 8, 7, 91
10, 61036, Control_c, 8, 7, 90
10, 61038, Control_c, 8, 7, 89
10, 61040, Control_c, 8, 7, 88
10, 61042, Control_c, 8, 7, 87
10, 61044, Control_c, 8, 7, 86
10, 61046, Control_c, 8, 7, 85
10, 61048, Control_c, 8, 7, 84
10, 61050, Control_c, 8, 7, 82
10, 61052, Control_c, 8, 7, 81
10, 61054, Control_c, 8, 7, 80
10, 61056, Control_c, 8, 7, 79
10, 61058, Control_c, 8, 7, 78
10, 61060, Control_c, 8, 7, 77
10, 61062, Control_c, 8, 7, 76
10, 61064, Control_c, 8, 7, 75
10, 61066, Control_c, 8, 7, 74
10, 61068, Control_c, 8, 7, 73
10, 61070, Control_c, 8, 7, 72
10, 61072, Control_c, 8, 7, 71
10, 61074, Control_c, 8, 7, 70
10, 61076, Control_c, 8, 7, 69
10, 61078, Control_c, 8, 7, 68
10, 61080, Control_c, 8, 7, 66
10, 61200, Note_on_c, 8, 53, 0
10, 61200, Note_on_c, 8, 48, 99
10, 61440, Note_on_c, 8, 48, 0
10, 61440, Note_on_c, 8, 50, 99
10, 61560, Note_on_c, 8, 50, 0
10, 61920, Note_on_c, 8, 46, 101
10, 61980, Note_on_c, 8, 46, 0
10, 62040, Note_on_c, 8, 58, 81
10, 62100, Note_on_c, 8, 58, 0
10, 62160, Note_on_c, 8, 58, 80
10, 62220, Note_on_c, 8, 58, 0
10, 62280, Note_on_c, 8, 57, 104
10, 62340, Note_on_c, 8, 57, 0
10, 62398, Control_c, 8, 7, 99
10, 62400, Note_on_c, 8, 55, 99
10, 62460, Note_on_c, 8, 55, 0
10, 62520, Note_on_c, 8, 50, 104
10, 62580, Note_on_c, 8, 50, 0
10, 62640, Note_on_c, 8, 55, 99
10, 62700, Note_on_c, 8, 55, 0
10, 62880, Note_on_c, 8, 55, 99
10, 62940, Control_c, 8, 7, 99
10, 62942, Control_c, 8, 7, 98
10, 62944, Control_c, 8, 7, 97
10, 62946, Control_c, 8, 7, 96
10, 62948, Control_c, 8, 7, 95
10, 62950, Control_c, 8, 7, 94
10, 62952, Control_c, 8, 7, 93
10, 62954, Control_c, 8, 7, 92
10, 62956, Control_c, 8, 7, 91
10, 62958, Control_c, 8, 7, 90
10, 62960, Control_c, 8, 7, 88
10, 62962, Control_c, 8, 7, 87
10, 62964, Control_c, 8, 7, 86
10, 62966, Control_c, 8, 7, 85
10, 62968, Control_c, 8, 7, 84
10, 62970, Control_c, 8, 7, 83
10, 62972, Control_c, 8, 7, 82
10, 62974, Control_c, 8, 7, 81
10, 62976, Control_c, 8, 7, 80
10, 62978, Control_c, 8, 7, 79
10, 62980, Control_c, 8, 7, 77
10, 62982, Control_c, 8, 7, 76
10, 62984, Control_c, 8, 7, 75
10, 62986, Control_c, 8, 7, 74
10, 62988, Control_c, 8, 7, 73
10, 62990, Control_c, 8, 7, 72
10, 62992, Control_c, 8, 7, 71
10, 62994, Control_c, 8, 7, 70
10, 62996, Control_c, 8, 7, 69
10, 62998, Control_c, 8, 7, 68
10, 63000, Control_c, 8, 7, 66
10, 63120, Note_on_c, 8, 55, 0
10, 63120, Note_on_c, 8, 58, 90
10, 63360, Note_on_c, 8, 58, 0
10, 63360, Note_on_c, 8, 57, 99
10, 63480, Note_on_c, 8, 57, 0
10, 63720, Note_on_c, 8, 53, 93
10, 63780, Note_on_c, 8, 53, 0
10, 63840, Note_on_c, 8, 52, 99
10, 63900, Note_on_c, 8, 52, 0
10, 63960, Note_on_c, 8, 48, 98
10, 64020, Note_on_c, 8, 48, 0
10, 64080, Note_on_c, 8, 53, 89
10, 64140, Note_on_c, 8, 53, 0
10, 64200, Note_on_c, 8, 57, 104
10, 64260, Note_on_c, 8, 57, 0
10, 64320, Control_c, 8, 7, 66
10, 64320, Note_on_c, 8, 60, 85
10, 64328, Control_c, 8, 7, 67
10, 64336, Control_c, 8, 7, 68
10, 64344, Control_c, 8, 7, 69
10, 64350, Control_c, 8, 7, 70
10, 64358, Control_c, 8, 7, 71
10, 64366, Control_c, 8, 7, 72
10, 64374, Control_c, 8, 7, 73
10, 64380, Control_c, 8, 7, 74
10, 64388, Control_c, 8, 7, 75
10, 64396, Control_c, 8, 7, 76
10, 64404, Control_c, 8, 7, 77
10, 64410, Control_c, 8, 7, 78
10, 64418, Control_c, 8, 7, 79
10, 64426, Control_c, 8, 7, 80
10, 64434, Control_c, 8, 7, 81
10, 64440, Note_on_c, 8, 60, 0
10, 64440, Control_c, 8, 7, 82
10, 64440, Note_on_c, 8, 59, 94
10, 64448, Control_c, 8, 7, 83
10, 64456, Control_c, 8, 7, 84
10, 64464, Control_c, 8, 7, 85
10, 64470, Control_c, 8, 7, 86
10, 64478, Control_c, 8, 7, 87
10, 64486, Control_c, 8, 7, 88
10, 64494, Control_c, 8, 7, 89
10, 64500, Control_c, 8, 7, 90
10, 64508, Control_c, 8, 7, 91
10, 64516, Control_c, 8, 7, 92
10, 64524, Control_c, 8, 7, 93
10, 64530, Control_c, 8, 7, 94
10, 64538, Control_c, 8, 7, 95
10, 64546, Control_c, 8, 7, 96
10, 64554, Control_c, 8, 7, 97
10, 64560, Note_on_c, 8, 59, 0
10, 64560, Control_c, 8, 7, 98
10, 64560, Note_on_c, 8, 60, 86
10, 64564, Control_c, 8, 7, 97
10, 64568, Control_c, 8, 7, 96
10, 64572, Control_c, 8, 7, 95
10, 64576, Control_c, 8, 7, 94
10, 64580, Control_c, 8, 7, 93
10, 64584, Control_c, 8, 7, 92
10, 64588, Control_c, 8, 7, 91
10, 64590, Control_c, 8, 7, 90
10, 64594, Control_c, 8, 7, 89
10, 64598, Control_c, 8, 7, 88
10, 64602, Control_c, 8, 7, 87
10, 64606, Control_c, 8, 7, 86
10, 64610, Control_c, 8, 7, 85
10, 64614, Control_c, 8, 7, 84
10, 64618, Control_c, 8, 7, 83
10, 64620, Control_c, 8, 7, 82
10, 64624, Control_c, 8, 7, 81
10, 64628, Control_c, 8, 7, 80
10, 64632, Control_c, 8, 7, 79
10, 64636, Control_c, 8, 7, 78
10, 64640, Control_c, 8, 7, 77
10, 64644, Control_c, 8, 7, 76
10, 64648, Control_c, 8, 7, 75
10, 64650, Control_c, 8, 7, 74
10, 64654, Control_c, 8, 7, 73
10, 64658, Control_c, 8, 7, 72
10, 64662, Control_c, 8, 7, 71
10, 64666, Control_c, 8, 7, 70
10, 64670, Control_c, 8, 7, 69
10, 64674, Control_c, 8, 7, 68
10, 64678, Control_c, 8, 7, 67
10, 64680, Note_on_c, 8, 60, 0
10, 64680, Control_c, 8, 7, 66
10, 64740, Control_c, 8, 7, 99
10, 64800, Note_on_c, 8, 65, 57
10, 64920, Note_on_c, 8, 65, 0
10, 65040, Note_on_c, 8, 60, 54
10, 65160, Note_on_c, 8, 60, 0
10, 65280, Note_on_c, 8, 62, 45
10, 65400, Note_on_c, 8, 62, 0
10, 66720, Note_on_c, 8, 55, 65
10, 66840, Note_on_c, 8, 55, 0
10, 66960, Note_on_c, 8, 58, 49
10, 67080, Note_on_c, 8, 58, 0
10, 67200, Note_on_c, 8, 57, 71
10, 67320, Note_on_c, 8, 57, 0
10, 67800, Note_on_c, 8, 58, 64
10, 67920, Note_on_c, 8, 58, 0
10, 67920, Note_on_c, 8, 60, 60
10, 68040, Note_on_c, 8, 60, 0
10, 68040, Note_on_c, 8, 48, 40
10, 68160, Note_on_c, 8, 48, 0
10, 68160, Note_on_c, 8, 53, 58
10, 68280, Note_on_c, 8, 53, 0
10, 69480, Note_on_c, 8, 58, 60
10, 69600, Note_on_c, 8, 58, 0
10, 69600, Note_on_c, 8, 57, 69
10, 69660, Note_on_c, 8, 57, 0
10, 69720, Note_on_c, 8, 53, 64
10, 69780, Note_on_c, 8, 53, 0
10, 69960, Note_on_c, 8, 58, 62
10, 70080, Note_on_c, 8, 58, 0
10, 70080, Note_on_c, 8, 57, 67
10, 70140, Note_on_c, 8, 57, 0
10, 70200, Note_on_c, 8, 53, 50
10, 70260, Note_on_c, 8, 53, 0
10, 71040, Note_on_c, 8, 49, 43
10, 71520, Note_on_c, 8, 49, 0
10, 71520, Note_on_c, 8, 49, 46
10, 72000, Note_on_c, 8, 49, 0
10, 72000, Note_on_c, 8, 49, 46
10, 72480, Note_on_c, 8, 49, 0
10, 72480, Note_on_c, 8, 49, 45
10, 72960, Note_on_c, 8, 49, 0
10, 72960, Note_on_c, 8, 49, 46
10, 73080, Note_on_c, 8, 49, 0
10, 73200, Note_on_c, 8, 47, 64
10, 73320, Note_on_c, 8, 47, 0
10, 73440, Note_on_c, 8, 48, 63
10, 73560, Note_on_c, 8, 48, 0
10, 73680, Note_on_c, 8, 48, 50
10, 73800, Note_on_c, 8, 48, 0
10, 73920, Note_on_c, 8, 49, 53
10, 74040, Note_on_c, 8, 49, 0
10, 74160, Note_on_c, 8, 50, 65
10, 74280, Note_on_c, 8, 50, 0
10, 74400, Note_on_c, 8, 48, 76
10, 74520, Note_on_c, 8, 48, 0
10, 74640, Note_on_c, 8, 48, 67
10, 74760, Note_on_c, 8, 48, 0
10, 74880, Note_on_c, 8, 53, 52
10, 74880, Note_on_c, 8, 53, 56
10, 74940, Note_on_c, 8, 53, 0
10, 74940, Note_on_c, 8, 53, 61
10, 75000, Note_on_c, 8, 53, 0
10, 75000, Note_on_c, 8, 53, 0
10, 75000, Note_on_c, 8, 53, 62
10, 75060, Note_on_c, 8, 53, 0
10, 75060, Note_on_c, 8, 53, 53
10, 75120, Note_on_c, 8, 53, 0
10, 75120, Note_on_c, 8, 53, 57
10, 75180, Note_on_c, 8, 53, 0
10, 75180, Note_on_c, 8, 53, 61
10, 75240, Note_on_c, 8, 53, 0
10, 75240, Note_on_c, 8, 53, 61
10, 75300, Note_on_c, 8, 53, 0
10, 75300, Note_on_c, 8, 53, 60
10, 75360, Note_on_c, 8, 53, 0
10, 75360, Note_on_c, 8, 53, 52
10, 75360, Note_on_c, 8, 53, 56
10, 75420, Note_on_c, 8, 53, 0
10, 75420, Note_on_c, 8, 53, 61
10, 75480, Note_on_c, 8, 53, 0
10, 75480, Note_on_c, 8, 53, 0
10, 75480, Note_on_c, 8, 53, 62
10, 75540, Note_on_c, 8, 53, 0
10, 75540, Note_on_c, 8, 53, 53
10, 75600, Note_on_c, 8, 53, 0
10, 75600, Note_on_c, 8, 53, 57
10, 75660, Note_on_c, 8, 53, 0
10, 75660, Note_on_c, 8, 53, 61
10, 75720, Note_on_c, 8, 53, 0
10, 75720, Note_on_c, 8, 53, 61
10, 75780, Note_on_c, 8, 53, 0
10, 75780, Note_on_c, 8, 53, 60
10, 75840, Note_on_c, 8, 53, 0
10, 75840, Note_on_c, 8, 53, 52
10, 75840, Note_on_c, 8, 53, 56
10, 75900, Note_on_c, 8, 53, 0
10, 75900, Note_on_c, 8, 53, 61
10, 75960, Note_on_c, 8, 53, 0
10, 75960, Note_on_c, 8, 53, 0
10, 75960, Note_on_c, 8, 53, 62
10, 76020, Note_on_c, 8, 53, 0
10, 76020, Note_on_c, 8, 53, 53
10, 76080, Note_on_c, 8, 53, 0
10, 76080, Note_on_c, 8, 53, 57
10, 76140, Note_on_c, 8, 53, 0
10, 76140, Note_on_c, 8, 53, 61
10, 76200, Note_on_c, 8, 53, 0
10, 76200, Note_on_c, 8, 53, 61
10, 76260, Note_on_c, 8, 53, 0
10, 76260, Note_on_c, 8, 53, 60
10, 76320, Note_on_c, 8, 53, 0
10, 76320, Note_on_c, 8, 53, 52
10, 76320, Note_on_c, 8, 53, 56
10, 76380, Note_on_c, 8, 53, 0
10, 76380, Note_on_c, 8, 53, 61
10, 76440, Note_on_c, 8, 53, 0
10, 76440, Note_on_c, 8, 53, 0
10, 76440, Note_on_c, 8, 53, 62
10, 76500, Note_on_c, 8, 53, 0
10, 76500, Note_on_c, 8, 53, 53
10, 76560, Note_on_c, 8, 53, 0
10, 76560, Note_on_c, 8, 53, 57
10, 76620, Note_on_c, 8, 53, 0
10, 76620, Note_on_c, 8, 53, 61
10, 76680, Note_on_c, 8, 53, 0
10, 76680, Note_on_c, 8, 53, 61
10, 76740, Note_on_c, 8, 53, 0
10, 76740, Note_on_c, 8, 53, 60
10, 76800, Note_on_c, 8, 53, 0
10, 76800, Note_on_c, 8, 53, 68
10, 76920, Note_on_c, 8, 53, 0
10, 79680, Note_on_c, 8, 48, 73
10, 80160, Note_on_c, 8, 48, 0
10, 80160, Note_on_c, 8, 53, 56
10, 80280, Note_on_c, 8, 53, 0
10, 80400, Note_on_c, 8, 57, 61
10, 80520, Note_on_c, 8, 57, 0
10, 80640, Note_on_c, 8, 50, 62
10, 80760, Note_on_c, 8, 50, 0
10, 83040, Note_on_c, 8, 47, 76
10, 83160, Note_on_c, 8, 47, 0
10, 83280, Note_on_c, 8, 48, 71
10, 83400, Note_on_c, 8, 48, 0
10, 83520, Note_on_c, 8, 49, 95
10, 83880, Note_on_c, 8, 49, 0
10, 83880, Note_on_c, 8, 48, 77
10, 84000, Note_on_c, 8, 48, 0
10, 84000, Note_on_c, 8, 47, 77
10, 84120, Note_on_c, 8, 47, 0
10, 84240, Note_on_c, 8, 48, 80
10, 84360, Note_on_c, 8, 48, 0
10, 84480, Note_on_c, 8, 49, 70
10, 84600, Note_on_c, 8, 49, 0
10, 84960, Note_on_c, 8, 50, 64
10, 85080, Note_on_c, 8, 50, 0
10, 85680, Note_on_c, 8, 50, 94
10, 85920, Note_on_c, 8, 50, 0
10, 85920, Note_on_c, 8, 48, 101
10, 85980, Note_on_c, 8, 48, 0
10, 86640, Note_on_c, 8, 49, 93
10, 86880, Note_on_c, 8, 49, 0
10, 86880, Note_on_c, 8, 48, 104
10, 86940, Note_on_c, 8, 48, 0
10, 87600, Note_on_c, 8, 50, 99
10, 87840, Note_on_c, 8, 50, 0
10, 87840, Note_on_c, 8, 48, 101
10, 87900, Note_on_c, 8, 48, 0
10, 92640, Note_on_c, 8, 48, 71
10, 92760, Note_on_c, 8, 48, 0
10, 94080, Note_on_c, 8, 48, 78
10, 94140, Note_on_c, 8, 48, 0
10, 94140, Note_on_c, 8, 60, 61
10, 94200, Note_on_c, 8, 60, 0
10, 94200, Note_on_c, 8, 60, 69
10, 94260, Note_on_c, 8, 60, 0
10, 94260, Note_on_c, 8, 60, 64
10, 94320, Note_on_c, 8, 60, 0
10, 94320, Note_on_c, 8, 60, 67
10, 94380, Note_on_c, 8, 60, 0
10, 94380, Note_on_c, 8, 60, 67
10, 94440, Note_on_c, 8, 60, 0
10, 94440, Note_on_c, 8, 60, 63
10, 94500, Note_on_c, 8, 60, 0
10, 94500, Note_on_c, 8, 60, 66
10, 94560, Note_on_c, 8, 60, 0
10, 94560, Note_on_c, 8, 53, 85
10, 94740, Note_on_c, 8, 53, 0
10, 94770, Note_on_c, 8, 41, 84
10, 94800, Note_on_c, 8, 41, 0
10, 94800, Note_on_c, 8, 48, 93
10, 94845, Note_on_c, 8, 48, 0
10, 94890, Note_on_c, 8, 48, 95
10, 94905, Note_on_c, 8, 48, 0
10, 94920, Note_on_c, 8, 45, 94
10, 94965, Note_on_c, 8, 45, 0
10, 95010, Note_on_c, 8, 45, 94
10, 95025, Note_on_c, 8, 45, 0
10, 95040, Note_on_c, 8, 41, 98
10, 95100, Note_on_c, 8, 41, 0
10, 95160, Note_on_c, 8, 45, 84
10, 95220, Note_on_c, 8, 45, 0
10, 95280, Note_on_c, 8, 48, 94
10, 95340, Note_on_c, 8, 48, 0
10, 95400, Note_on_c, 8, 53, 85
10, 95460, Note_on_c, 8, 53, 0
10, 95520, Note_on_c, 8, 55, 99
10, 95700, Note_on_c, 8, 55, 0
10, 95730, Note_on_c, 8, 43, 90
10, 95760, Note_on_c, 8, 43, 0
10, 95760, Note_on_c, 8, 48, 95
10, 95805, Note_on_c, 8, 48, 0
10, 95850, Note_on_c, 8, 48, 95
10, 95865, Note_on_c, 8, 48, 0
10, 95880, Note_on_c, 8, 46, 84
10, 95925, Note_on_c, 8, 46, 0
10, 95970, Note_on_c, 8, 46, 84
10, 95985, Note_on_c, 8, 46, 0
10, 96000, Note_on_c, 8, 43, 98
10, 96060, Note_on_c, 8, 43, 0
10, 96120, Note_on_c, 8, 46, 86
10, 96180, Note_on_c, 8, 46, 0
10, 96240, Note_on_c, 8, 52, 98
10, 96300, Note_on_c, 8, 52, 0
10, 96360, Note_on_c, 8, 55, 90
10, 96420, Note_on_c, 8, 55, 0
10, 96480, Note_on_c, 8, 57, 110
10, 96660, Note_on_c, 8, 57, 0
10, 96690, Note_on_c, 8, 45, 93
10, 96720, Note_on_c, 8, 45, 0
10, 96720, Note_on_c, 8, 53, 93
10, 96765, Note_on_c, 8, 53, 0
10, 96810, Note_on_c, 8, 53, 89
10, 96825, Note_on_c, 8, 53, 0
10, 96840, Note_on_c, 8, 48, 99
10, 96885, Note_on_c, 8, 48, 0
10, 96930, Note_on_c, 8, 48, 94
10, 96945, Note_on_c, 8, 48, 0
10, 96960, Note_on_c, 8, 45, 99
10, 97080, Note_on_c, 8, 45, 0
10, 97440, Note_on_c, 8, 45, 94
10, 97500, Note_on_c, 8, 45, 0
10, 97560, Note_on_c, 8, 57, 105
10, 97800, Note_on_c, 8, 57, 0
10, 97800, Note_on_c, 8, 58, 89
10, 97920, Note_on_c, 8, 58, 0
10, 97920, Note_on_c, 8, 60, 84
10, 97980, Note_on_c, 8, 60, 0
10, 98040, Note_on_c, 8, 61, 93
10, 98280, Note_on_c, 8, 61, 0
10, 98280, Note_on_c, 8, 62, 89
10, 98400, Note_on_c, 8, 62, 0
10, 98400, Note_on_c, 8, 58, 93
10, 98460, Note_on_c, 8, 58, 0
10, 98460, Note_on_c, 8, 57, 105
10, 98520, Note_on_c, 8, 57, 0
10, 98520, Note_on_c, 8, 58, 89
10, 98550, Note_on_c, 8, 58, 0
10, 98580, Note_on_c, 8, 58, 89
10, 98610, Note_on_c, 8, 58, 0
10, 98640, Note_on_c, 8, 59, 98
10, 98700, Note_on_c, 8, 59, 0
10, 98700, Note_on_c, 8, 58, 94
10, 98760, Note_on_c, 8, 58, 0
10, 98760, Note_on_c, 8, 59, 98
10, 98790, Note_on_c, 8, 59, 0
10, 98820, Note_on_c, 8, 59, 99
10, 98850, Note_on_c, 8, 59, 0
10, 98880, Note_on_c, 8, 60, 99
10, 98940, Note_on_c, 8, 60, 0
10, 98940, Note_on_c, 8, 59, 104
10, 99000, Note_on_c, 8, 59, 0
10, 99000, Note_on_c, 8, 60, 99
10, 99030, Note_on_c, 8, 60, 0
10, 99060, Note_on_c, 8, 60, 94
10, 99090, Note_on_c, 8, 60, 0
10, 99120, Note_on_c, 8, 48, 98
10, 99180, Note_on_c, 8, 48, 0
10, 99180, Note_on_c, 8, 47, 101
10, 99240, Note_on_c, 8, 47, 0
10, 99240, Note_on_c, 8, 48, 99
10, 99270, Note_on_c, 8, 48, 0
10, 99300, Note_on_c, 8, 48, 95
10, 99330, Note_on_c, 8, 48, 0
10, 99360, Note_on_c, 8, 53, 94
10, 99480, Note_on_c, 8, 53, 0
10, 99840, Note_on_c, 8, 48, 71
10, 100320, Note_on_c, 8, 48, 0
10, 100320, Note_on_c, 8, 53, 61
10, 100440, Note_on_c, 8, 53, 0
10, 100800, Note_on_c, 8, 48, 80
10, 100920, Note_on_c, 8, 48, 0
10, 101280, Note_on_c, 8, 53, 68
10, 101400, Note_on_c, 8, 53, 0
10, 101520, Note_on_c, 8, 53, 98
10, 101640, Note_on_c, 8, 53, 0
10, 101760, Note_on_c, 8, 41, 98
10, 101880, Note_on_c, 8, 41, 0
10, 104160, Note_on_c, 8, 46, 54
10, 104640, Note_on_c, 8, 46, 0
10, 104640, Note_on_c, 8, 45, 54
10, 105120, Note_on_c, 8, 45, 0
10, 105120, Note_on_c, 8, 48, 52
10, 105600, Note_on_c, 8, 48, 0
10, 105600, Note_on_c, 8, 46, 55
10, 106080, Note_on_c, 8, 46, 0
10, 106080, Note_on_c, 8, 51, 42
10, 106200, Note_on_c, 8, 51, 0
10, 106320, Note_on_c, 8, 51, 44
10, 106440, Note_on_c, 8, 51, 0
10, 106560, Note_on_c, 8, 50, 51
10, 107040, Note_on_c, 8, 50, 0
10, 107040, Note_on_c, 8, 50, 45
10, 107520, Note_on_c, 8, 50, 0
10, 107520, Note_on_c, 8, 50, 46
10, 108000, Note_on_c, 8, 50, 0
10, 108000, Note_on_c, 8, 50, 50
10, 108480, Note_on_c, 8, 50, 0
10, 108480, Note_on_c, 8, 50, 52
10, 108600, Note_on_c, 8, 50, 0
10, 108960, Note_on_c, 8, 50, 105
10, 109080, Note_on_c, 8, 50, 0
10, 109200, Note_on_c, 8, 50, 99
10, 109320, Note_on_c, 8, 50, 0
10, 109440, Note_on_c, 8, 50, 101
10, 109560, Note_on_c, 8, 50, 0
10, 109920, Note_on_c, 8, 51, 39
10, 110040, Note_on_c, 8, 51, 0
10, 110160, Note_on_c, 8, 51, 49
10, 110280, Note_on_c, 8, 51, 0
10, 110400, Note_on_c, 8, 51, 45
10, 110520, Note_on_c, 8, 51, 0
10, 110880, Note_on_c, 8, 51, 90
10, 110938, Control_c, 8, 7, 99
10, 110940, Control_c, 8, 7, 98
10, 110942, Control_c, 8, 7, 97
10, 110944, Control_c, 8, 7, 96
10, 110946, Control_c, 8, 7, 95
10, 110948, Control_c, 8, 7, 94
10, 110950, Control_c, 8, 7, 93
10, 110952, Control_c, 8, 7, 92
10, 110954, Control_c, 8, 7, 91
10, 110956, Control_c, 8, 7, 90
10, 110958, Control_c, 8, 7, 89
10, 110960, Control_c, 8, 7, 88
10, 110962, Control_c, 8, 7, 87
10, 110964, Control_c, 8, 7, 86
10, 110966, Control_c, 8, 7, 85
10, 110968, Control_c, 8, 7, 84
10, 110970, Control_c, 8, 7, 83
10, 110972, Control_c, 8, 7, 82
10, 110974, Control_c, 8, 7, 81
10, 110976, Control_c, 8, 7, 80
10, 110978, Control_c, 8, 7, 79
10, 110980, Control_c, 8, 7, 78
10, 110982, Control_c, 8, 7, 77
10, 110984, Control_c, 8, 7, 76
10, 110986, Control_c, 8, 7, 75
10, 110988, Control_c, 8, 7, 74
10, 110990, Control_c, 8, 7, 73
10, 110992, Control_c, 8, 7, 72
10, 110994, Control_c, 8, 7, 71
10, 110996, Control_c, 8, 7, 70
10, 110998, Control_c, 8, 7, 69
10, 111000, Control_c, 8, 7, 68
10, 111360, Note_on_c, 8, 51, 0
10, 111360, Note_on_c, 8, 43, 80
10, 111840, Note_on_c, 8, 43, 0
10, 111840, Note_on_c, 8, 44, 80
10, 111840, Control_c, 8, 7, 99
10, 111900, Control_c, 8, 7, 99
10, 111904, Control_c, 8, 7, 98
10, 111906, Control_c, 8, 7, 97
10, 111908, Control_c, 8, 7, 96
10, 111910, Control_c, 8, 7, 95
10, 111912, Control_c, 8, 7, 94
10, 111914, Control_c, 8, 7, 93
10, 111916, Control_c, 8, 7, 92
10, 111918, Control_c, 8, 7, 91
10, 111920, Control_c, 8, 7, 90
10, 111922, Control_c, 8, 7, 89
10, 111924, Control_c, 8, 7, 88
10, 111926, Control_c, 8, 7, 87
10, 111928, Control_c, 8, 7, 86
10, 111930, Control_c, 8, 7, 85
10, 111934, Control_c, 8, 7, 84
10, 111936, Control_c, 8, 7, 83
10, 111938, Control_c, 8, 7, 82
10, 111940, Control_c, 8, 7, 81
10, 111942, Control_c, 8, 7, 80
10, 111944, Control_c, 8, 7, 79
10, 111946, Control_c, 8, 7, 78
10, 111948, Control_c, 8, 7, 77
10, 111950, Control_c, 8, 7, 76
10, 111952, Control_c, 8, 7, 75
10, 111954, Control_c, 8, 7, 74
10, 111956, Control_c, 8, 7, 73
10, 111958, Control_c, 8, 7, 72
10, 111960, Control_c, 8, 7, 71
10, 111962, Control_c, 8, 7, 70
10, 112320, Note_on_c, 8, 44, 0
10, 112320, Note_on_c, 8, 46, 89
10, 112800, Note_on_c, 8, 46, 0
10, 112800, Note_on_c, 8, 51, 84
10, 112920, Note_on_c, 8, 51, 0
10, 113040, Control_c, 8, 7, 99
10, 114720, Note_on_c, 8, 59, 56
10, 115200, Note_on_c, 8, 59, 0
10, 115200, Note_on_c, 8, 60, 64
10, 115440, Note_on_c, 8, 60, 0
10, 115440, Note_on_c, 8, 58, 53
10, 115680, Note_on_c, 8, 58, 0
10, 115680, Note_on_c, 8, 57, 72
10, 116160, Note_on_c, 8, 57, 0
10, 116160, Note_on_c, 8, 56, 68
10, 116640, Note_on_c, 8, 56, 0
10, 116640, Note_on_c, 8, 55, 71
10, 116760, Note_on_c, 8, 55, 0
10, 116880, Note_on_c, 8, 56, 60
10, 117000, Note_on_c, 8, 56, 0
10, 117120, Note_on_c, 8, 58, 64
10, 117240, Note_on_c, 8, 58, 0
10, 117360, Note_on_c, 8, 46, 62
10, 117480, Note_on_c, 8, 46, 0
10, 117600, Note_on_c, 8, 51, 58
10, 117720, Note_on_c, 8, 51, 0
10, 118320, Note_on_c, 8, 51, 65
10, 118380, Note_on_c, 8, 51, 0
10, 118440, Note_on_c, 8, 51, 62
10, 118500, Note_on_c, 8, 51, 0
10, 118560, Note_on_c, 8, 51, 70
10, 118620, Note_on_c, 8, 51, 0
10, 119280, Note_on_c, 8, 51, 61
10, 119340, Note_on_c, 8, 51, 0
10, 119400, Note_on_c, 8, 51, 58
10, 119460, Note_on_c, 8, 51, 0
10, 119520, Note_on_c, 8, 50, 52
10, 119580, Note_on_c, 8, 50, 0
10, 120240, Note_on_c, 8, 47, 62
10, 120300, Note_on_c, 8, 47, 0
10, 120360, Note_on_c, 8, 47, 44
10, 120420, Note_on_c, 8, 47, 0
10, 120480, Note_on_c, 8, 43, 59
10, 120540, Note_on_c, 8, 43, 0
10, 121200, Note_on_c, 8, 55, 57
10, 121260, Note_on_c, 8, 55, 0
10, 121320, Note_on_c, 8, 55, 45
10, 121380, Note_on_c, 8, 55, 0
10, 121440, Note_on_c, 8, 48, 57
10, 121560, Note_on_c, 8, 48, 0
10, 121920, Note_on_c, 8, 51, 49
10, 122040, Note_on_c, 8, 51, 0
10, 122400, Note_on_c, 8, 50, 64
10, 122520, Note_on_c, 8, 50, 0
10, 122880, Note_on_c, 8, 53, 61
10, 123000, Note_on_c, 8, 53, 0
10, 123360, Note_on_c, 8, 52, 62
10, 123480, Note_on_c, 8, 52, 0
10, 123840, Note_on_c, 8, 55, 62
10, 123960, Note_on_c, 8, 55, 0
10, 124320, Note_on_c, 8, 52, 70
10, 124440, Note_on_c, 8, 52, 0
10, 124800, Note_on_c, 8, 55, 53
10, 124920, Note_on_c, 8, 55, 0
10, 126720, Note_on_c, 8, 52, 65
10, 126840, Note_on_c, 8, 52, 0
10, 126960, Note_on_c, 8, 53, 62
10, 127080, Note_on_c, 8, 53, 0
10, 127200, Note_on_c, 8, 54, 65
10, 127320, Note_on_c, 8, 54, 0
10, 127440, Note_on_c, 8, 53, 57
10, 127560, Note_on_c, 8, 53, 0
10, 127680, Note_on_c, 8, 52, 60
10, 127800, Note_on_c, 8, 52, 0
10, 127920, Note_on_c, 8, 53, 62
10, 128040, Note_on_c, 8, 53, 0
10, 128160, Note_on_c, 8, 54, 64
10, 128280, Note_on_c, 8, 54, 0
10, 128400, Note_on_c, 8, 54, 65
10, 128520, Note_on_c, 8, 54, 0
10, 128640, Note_on_c, 8, 53, 65
10, 128700, Note_on_c, 8, 53, 0
10, 128880, Note_on_c, 8, 45, 57
10, 128940, Note_on_c, 8, 45, 0
10, 129120, Note_on_c, 8, 46, 68
10, 129180, Note_on_c, 8, 46, 0
10, 129360, Note_on_c, 8, 49, 57
10, 129420, Note_on_c, 8, 49, 0
10, 129600, Note_on_c, 8, 53, 68
10, 129660, Note_on_c, 8, 53, 0
10, 129840, Note_on_c, 8, 45, 73
10, 129900, Note_on_c, 8, 45, 0
10, 130080, Note_on_c, 8, 46, 57
10, 130140, Note_on_c, 8, 46, 0
10, 130320, Note_on_c, 8, 49, 60
10, 130380, Note_on_c, 8, 49, 0
10, 130560, Note_on_c, 8, 53, 68
10, 130620, Note_on_c, 8, 53, 0
10, 130800, Note_on_c, 8, 45, 72
10, 130860, Note_on_c, 8, 45, 0
10, 131040, Note_on_c, 8, 46, 69
10, 131100, Note_on_c, 8, 46, 0
10, 131280, Note_on_c, 8, 49, 56
10, 131340, Note_on_c, 8, 49, 0
10, 131520, Note_on_c, 8, 53, 48
10, 131580, Note_on_c, 8, 53, 0
10, 131640, Note_on_c, 8, 53, 65
10, 131760, Note_on_c, 8, 53, 0
10, 131760, Note_on_c, 8, 58, 64
10, 131880, Note_on_c, 8, 58, 0
10, 132000, Note_on_c, 8, 53, 69
10, 132120, Note_on_c, 8, 53, 0
10, 132120, Note_on_c, 8, 53, 74
10, 132240, Note_on_c, 8, 53, 0
10, 132240, Note_on_c, 8, 58, 69
10, 132360, Note_on_c, 8, 58, 0
10, 132720, Note_on_c, 8, 53, 40
10, 132840, Note_on_c, 8, 53, 0
10, 132960, Note_on_c, 8, 53, 40
10, 133080, Note_on_c, 8, 53, 0
10, 133440, Note_on_c, 8, 53, 40
10, 133560, Note_on_c, 8, 53, 0
10, 133920, Note_on_c, 8, 53, 32
10, 134040, Note_on_c, 8, 53, 0
10, 134400, Note_on_c, 8, 53, 43
10, 134880, Note_on_c, 8, 53, 0
10, 134880, Note_on_c, 8, 54, 43
10, 135360, Note_on_c, 8, 54, 0
10, 135360, Note_on_c, 8, 53, 45
10, 135840, Note_on_c, 8, 53, 0
10, 135840, Note_on_c, 8, 53, 99
10, 135840, Control_c, 8, 7, 54
10, 135852, Control_c, 8, 7, 55
10, 135862, Control_c, 8, 7, 56
10, 135872, Control_c, 8, 7, 57
10, 135884, Control_c, 8, 7, 58
10, 135894, Control_c, 8, 7, 59
10, 135904, Control_c, 8, 7, 60
10, 135916, Control_c, 8, 7, 61
10, 135926, Control_c, 8, 7, 62
10, 135936, Control_c, 8, 7, 63
10, 135948, Control_c, 8, 7, 64
10, 135958, Control_c, 8, 7, 65
10, 135968, Control_c, 8, 7, 66
10, 135980, Control_c, 8, 7, 67
10, 135990, Control_c, 8, 7, 68
10, 136000, Control_c, 8, 7, 69
10, 136012, Control_c, 8, 7, 70
10, 136022, Control_c, 8, 7, 71
10, 136032, Control_c, 8, 7, 72
10, 136044, Control_c, 8, 7, 73
10, 136054, Control_c, 8, 7, 74
10, 136064, Control_c, 8, 7, 75
10, 136076, Control_c, 8, 7, 76
10, 136086, Control_c, 8, 7, 77
10, 136096, Control_c, 8, 7, 78
10, 136108, Control_c, 8, 7, 79
10, 136118, Control_c, 8, 7, 80
10, 136128, Control_c, 8, 7, 81
10, 136140, Control_c, 8, 7, 82
10, 136150, Control_c, 8, 7, 83
10, 136160, Control_c, 8, 7, 84
10, 136172, Control_c, 8, 7, 85
10, 136182, Control_c, 8, 7, 86
10, 136192, Control_c, 8, 7, 87
10, 136204, Control_c, 8, 7, 88
10, 136214, Control_c, 8, 7, 89
10, 136224, Control_c, 8, 7, 90
10, 136236, Control_c, 8, 7, 91
10, 136246, Control_c, 8, 7, 92
10, 136256, Control_c, 8, 7, 93
10, 136268, Control_c, 8, 7, 94
10, 136278, Control_c, 8, 7, 95
10, 136288, Control_c, 8, 7, 96
10, 136300, Control_c, 8, 7, 97
10, 136310, Control_c, 8, 7, 98
10, 136320, Note_on_c, 8, 53, 0
10, 136320, Note_on_c, 8, 58, 93
10, 136320, Control_c, 8, 7, 99
10, 136500, Note_on_c, 8, 58, 0
10, 136530, Note_on_c, 8, 46, 93
10, 136560, Note_on_c, 8, 46, 0
10, 136560, Note_on_c, 8, 53, 94
10, 136605, Note_on_c, 8, 53, 0
10, 136650, Note_on_c, 8, 53, 98
10, 136665, Note_on_c, 8, 53, 0
10, 136680, Note_on_c, 8, 50, 105
10, 136725, Note_on_c, 8, 50, 0
10, 136770, Note_on_c, 8, 50, 105
10, 136785, Note_on_c, 8, 50, 0
10, 136800, Note_on_c, 8, 46, 94
10, 136920, Note_on_c, 8, 46, 0
10, 137280, Note_on_c, 8, 60, 64
10, 137760, Note_on_c, 8, 60, 0
10, 137760, Note_on_c, 8, 60, 57
10, 137880, Note_on_c, 8, 60, 0
10, 138240, Note_on_c, 8, 53, 93
10, 138420, Note_on_c, 8, 53, 0
10, 138450, Note_on_c, 8, 53, 86
10, 138480, Note_on_c, 8, 53, 0
10, 138480, Note_on_c, 8, 60, 85
10, 138525, Note_on_c, 8, 60, 0
10, 138570, Note_on_c, 8, 60, 90
10, 138585, Note_on_c, 8, 60, 0
10, 138600, Note_on_c, 8, 57, 99
10, 138645, Note_on_c, 8, 57, 0
10, 138690, Note_on_c, 8, 57, 99
10, 138705, Note_on_c, 8, 57, 0
10, 138720, Note_on_c, 8, 53, 86
10, 138840, Note_on_c, 8, 53, 0
10, 139200, Note_on_c, 8, 50, 56
10, 139680, Note_on_c, 8, 50, 0
10, 139680, Note_on_c, 8, 50, 58
10, 139800, Note_on_c, 8, 50, 0
10, 140160, Note_on_c, 8, 58, 46
10, 140280, Note_on_c, 8, 58, 0
10, 140640, Note_on_c, 8, 51, 56
10, 140760, Note_on_c, 8, 51, 0
10, 141120, Note_on_c, 8, 53, 53
10, 141240, Note_on_c, 8, 53, 0
10, 141600, Note_on_c, 8, 55, 40
10, 141720, Note_on_c, 8, 55, 0
10, 142080, Note_on_c, 8, 50, 65
10, 142200, Note_on_c, 8, 50, 0
10, 142560, Note_on_c, 8, 51, 61
10, 142680, Note_on_c, 8, 51, 0
10, 143040, Note_on_c, 8, 53, 62
10, 143160, Note_on_c, 8, 53, 0
10, 143280, Note_on_c, 8, 53, 68
10, 143400, Note_on_c, 8, 53, 0
10, 143520, Note_on_c, 8, 58, 38
10, 143640, Note_on_c, 8, 58, 0
10, 144000, Note_on_c, 8, 62, 39
10, 144120, Note_on_c, 8, 62, 0
10, 144480, Note_on_c, 8, 60, 52
10, 144600, Note_on_c, 8, 60, 0
10, 144960, Note_on_c, 8, 53, 54
10, 145080, Note_on_c, 8, 53, 0
10, 145440, Note_on_c, 8, 58, 56
10, 145560, Note_on_c, 8, 58, 0
10, 145920, Note_on_c, 8, 62, 44
10, 146040, Note_on_c, 8, 62, 0
10, 146400, Note_on_c, 8, 55, 46
10, 146520, Note_on_c, 8, 55, 0
10, 146880, Note_on_c, 8, 48, 52
10, 147000, Note_on_c, 8, 48, 0
10, 147360, Note_on_c, 8, 53, 43
10, 147480, Note_on_c, 8, 53, 0
10, 147720, Note_on_c, 8, 48, 42
10, 147780, Note_on_c, 8, 48, 0
10, 147840, Note_on_c, 8, 53, 47
10, 147900, Note_on_c, 8, 53, 0
10, 148200, Note_on_c, 8, 60, 57
10, 148260, Note_on_c, 8, 60, 0
10, 148320, Note_on_c, 8, 65, 58
10, 148380, Note_on_c, 8, 65, 0
10, 148440, Note_on_c, 8, 60, 48
10, 148500, Note_on_c, 8, 60, 0
10, 148560, Note_on_c, 8, 65, 60
10, 148620, Note_on_c, 8, 65, 0
10, 148680, Note_on_c, 8, 60, 65
10, 148740, Note_on_c, 8, 60, 0
10, 148800, Note_on_c, 8, 65, 59
10, 148920, Note_on_c, 8, 65, 0
10, 149280, Note_on_c, 8, 58, 89
10, 149338, Control_c, 8, 7, 99
10, 149340, Control_c, 8, 7, 98
10, 149342, Control_c, 8, 7, 97
10, 149344, Control_c, 8, 7, 96
10, 149346, Control_c, 8, 7, 95
10, 149348, Control_c, 8, 7, 94
10, 149350, Control_c, 8, 7, 93
10, 149352, Control_c, 8, 7, 92
10, 149354, Control_c, 8, 7, 91
10, 149356, Control_c, 8, 7, 90
10, 149358, Control_c, 8, 7, 89
10, 149360, Control_c, 8, 7, 87
10, 149362, Control_c, 8, 7, 86
10, 149364, Control_c, 8, 7, 85
10, 149366, Control_c, 8, 7, 84
10, 149368, Control_c, 8, 7, 83
10, 149370, Control_c, 8, 7, 82
10, 149372, Control_c, 8, 7, 81
10, 149374, Control_c, 8, 7, 80
10, 149376, Control_c, 8, 7, 79
10, 149378, Control_c, 8, 7, 78
10, 149380, Control_c, 8, 7, 76
10, 149382, Control_c, 8, 7, 75
10, 149384, Control_c, 8, 7, 74
10, 149386, Control_c, 8, 7, 73
10, 149388, Control_c, 8, 7, 72
10, 149390, Control_c, 8, 7, 71
10, 149392, Control_c, 8, 7, 70
10, 149394, Control_c, 8, 7, 69
10, 149396, Control_c, 8, 7, 68
10, 149398, Control_c, 8, 7, 67
10, 149400, Control_c, 8, 7, 65
10, 149520, Note_on_c, 8, 58, 0
10, 149520, Note_on_c, 8, 53, 43
10, 149520, Control_c, 8, 7, 99
10, 149760, Note_on_c, 8, 53, 0
10, 149760, Note_on_c, 8, 55, 58
10, 149880, Note_on_c, 8, 55, 0
10, 150240, Note_on_c, 8, 51, 50
10, 150300, Note_on_c, 8, 51, 0
10, 150360, Note_on_c, 8, 51, 47
10, 150420, Note_on_c, 8, 51, 0
10, 150480, Note_on_c, 8, 51, 44
10, 150540, Note_on_c, 8, 51, 0
10, 150600, Note_on_c, 8, 50, 69
10, 150660, Note_on_c, 8, 50, 0
10, 150720, Note_on_c, 8, 48, 101
10, 150780, Note_on_c, 8, 48, 0
10, 150840, Note_on_c, 8, 43, 76
10, 150900, Note_on_c, 8, 43, 0
10, 150960, Note_on_c, 8, 48, 72
10, 151020, Note_on_c, 8, 48, 0
10, 151200, Note_on_c, 8, 48, 101
10, 151260, Control_c, 8, 7, 99
10, 151262, Control_c, 8, 7, 98
10, 151264, Control_c, 8, 7, 97
10, 151266, Control_c, 8, 7, 96
10, 151268, Control_c, 8, 7, 95
10, 151270, Control_c, 8, 7, 94
10, 151272, Control_c, 8, 7, 93
10, 151274, Control_c, 8, 7, 92
10, 151276, Control_c, 8, 7, 90
10, 151278, Control_c, 8, 7, 89
10, 151280, Control_c, 8, 7, 88
10, 151282, Control_c, 8, 7, 87
10, 151284, Control_c, 8, 7, 86
10, 151286, Control_c, 8, 7, 85
10, 151288, Control_c, 8, 7, 84
10, 151290, Control_c, 8, 7, 83
10, 151292, Control_c, 8, 7, 81
10, 151294, Control_c, 8, 7, 80
10, 151296, Control_c, 8, 7, 79
10, 151298, Control_c, 8, 7, 78
10, 151300, Control_c, 8, 7, 77
10, 151302, Control_c, 8, 7, 76
10, 151304, Control_c, 8, 7, 75
10, 151306, Control_c, 8, 7, 74
10, 151308, Control_c, 8, 7, 72
10, 151310, Control_c, 8, 7, 71
10, 151312, Control_c, 8, 7, 70
10, 151314, Control_c, 8, 7, 69
10, 151316, Control_c, 8, 7, 68
10, 151318, Control_c, 8, 7, 67
10, 151320, Control_c, 8, 7, 66
10, 151322, Control_c, 8, 7, 64
10, 151440, Note_on_c, 8, 48, 0
10, 151440, Note_on_c, 8, 51, 94
10, 151680, Note_on_c, 8, 51, 0
10, 151680, Note_on_c, 8, 50, 104
10, 151800, Note_on_c, 8, 50, 0
10, 151920, Control_c, 8, 7, 99
10, 152040, Note_on_c, 8, 58, 45
10, 152100, Note_on_c, 8, 58, 0
10, 152160, Note_on_c, 8, 57, 60
10, 152220, Note_on_c, 8, 57, 0
10, 152280, Note_on_c, 8, 53, 40
10, 152340, Note_on_c, 8, 53, 0
10, 152400, Note_on_c, 8, 58, 61
10, 152460, Note_on_c, 8, 58, 0
10, 152520, Note_on_c, 8, 62, 45
10, 152580, Note_on_c, 8, 62, 0
10, 152640, Note_on_c, 8, 53, 54
10, 152760, Note_on_c, 8, 53, 0
10, 152760, Note_on_c, 8, 52, 95
10, 152880, Note_on_c, 8, 52, 0
10, 152880, Note_on_c, 8, 53, 43
10, 153000, Note_on_c, 8, 53, 0
10, 153120, Note_on_c, 8, 58, 45
10, 153240, Note_on_c, 8, 58, 0
10, 153360, Note_on_c, 8, 53, 60
10, 153480, Note_on_c, 8, 53, 0
10, 153600, Note_on_c, 8, 55, 53
10, 153720, Note_on_c, 8, 55, 0
10, 155040, Note_on_c, 8, 48, 71
10, 155160, Note_on_c, 8, 48, 0
10, 155280, Note_on_c, 8, 51, 63
10, 155400, Note_on_c, 8, 51, 0
10, 155520, Note_on_c, 8, 50, 67
10, 155640, Note_on_c, 8, 50, 0
10, 156120, Note_on_c, 8, 51, 67
10, 156240, Note_on_c, 8, 51, 0
10, 156240, Note_on_c, 8, 53, 55
10, 156360, Note_on_c, 8, 53, 0
10, 156360, Note_on_c, 8, 53, 57
10, 156480, Note_on_c, 8, 53, 0
10, 156480, Note_on_c, 8, 46, 68
10, 156600, Note_on_c, 8, 46, 0
10, 157800, Note_on_c, 8, 51, 60
10, 157920, Note_on_c, 8, 51, 0
10, 157920, Note_on_c, 8, 50, 67
10, 157980, Note_on_c, 8, 50, 0
10, 158040, Note_on_c, 8, 46, 59
10, 158100, Note_on_c, 8, 46, 0
10, 158280, Note_on_c, 8, 51, 60
10, 158400, Note_on_c, 8, 51, 0
10, 158400, Note_on_c, 8, 50, 52
10, 158460, Note_on_c, 8, 50, 0
10, 158520, Note_on_c, 8, 46, 68
10, 158580, Note_on_c, 8, 46, 0
10, 159360, Note_on_c, 8, 54, 35
10, 160080, Note_on_c, 8, 54, 0
10, 160080, Note_on_c, 8, 54, 33
10, 160800, Note_on_c, 8, 54, 0
10, 160800, Note_on_c, 8, 54, 33
10, 161280, Note_on_c, 8, 54, 0
10, 161280, Note_on_c, 8, 54, 29
10, 161400, Note_on_c, 8, 54, 0
10, 161520, Note_on_c, 8, 52, 43
10, 161640, Note_on_c, 8, 52, 0
10, 161760, Note_on_c, 8, 53, 44
10, 161880, Note_on_c, 8, 53, 0
10, 162000, Note_on_c, 8, 53, 40
10, 162120, Note_on_c, 8, 53, 0
10, 162240, Note_on_c, 8, 54, 48
10, 162360, Note_on_c, 8, 54, 0
10, 162480, Note_on_c, 8, 55, 40
10, 162600, Note_on_c, 8, 55, 0
10, 162720, Note_on_c, 8, 53, 43
10, 162840, Note_on_c, 8, 53, 0
10, 162960, Note_on_c, 8, 53, 57
10, 163080, Note_on_c, 8, 53, 0
10, 163200, Note_on_c, 8, 58, 53
10, 163200, Note_on_c, 8, 46, 71
10, 163260, Note_on_c, 8, 58, 0
10, 163260, Note_on_c, 8, 58, 43
10, 163320, Note_on_c, 8, 58, 0
10, 163320, Note_on_c, 8, 46, 0
10, 163320, Note_on_c, 8, 58, 45
10, 163380, Note_on_c, 8, 58, 0
10, 163380, Note_on_c, 8, 58, 45
10, 163440, Note_on_c, 8, 58, 0
10, 163440, Note_on_c, 8, 58, 59
10, 163500, Note_on_c, 8, 58, 0
10, 163500, Note_on_c, 8, 58, 43
10, 163560, Note_on_c, 8, 58, 0
10, 163560, Note_on_c, 8, 58, 45
10, 163620, Note_on_c, 8, 58, 0
10, 163620, Note_on_c, 8, 58, 56
10, 163680, Note_on_c, 8, 58, 0
10, 163680, Note_on_c, 8, 58, 46
10, 163680, Note_on_c, 8, 46, 64
10, 163740, Note_on_c, 8, 58, 0
10, 163740, Note_on_c, 8, 58, 52
10, 163800, Note_on_c, 8, 58, 0
10, 163800, Note_on_c, 8, 46, 0
10, 163800, Note_on_c, 8, 58, 43
10, 163860, Note_on_c, 8, 58, 0
10, 163860, Note_on_c, 8, 58, 41
10, 163920, Note_on_c, 8, 58, 0
10, 163920, Note_on_c, 8, 58, 40
10, 163980, Note_on_c, 8, 58, 0
10, 163980, Note_on_c, 8, 58, 64
10, 164040, Note_on_c, 8, 58, 0
10, 164040, Note_on_c, 8, 58, 44
10, 164100, Note_on_c, 8, 58, 0
10, 164100, Note_on_c, 8, 58, 57
10, 164160, Note_on_c, 8, 58, 0
10, 164160, Note_on_c, 8, 58, 64
10, 164160, Note_on_c, 8, 46, 71
10, 164220, Note_on_c, 8, 58, 0
10, 164220, Note_on_c, 8, 58, 43
10, 164280, Note_on_c, 8, 58, 0
10, 164280, Note_on_c, 8, 46, 0
10, 164280, Note_on_c, 8, 58, 56
10, 164340, Note_on_c, 8, 58, 0
10, 164340, Note_on_c, 8, 58, 49
10, 164400, Note_on_c, 8, 58, 0
10, 164400, Note_on_c, 8, 58, 53
10, 164460, Note_on_c, 8, 58, 0
10, 164460, Note_on_c, 8, 58, 61
10, 164520, Note_on_c, 8, 58, 0
10, 164520, Note_on_c, 8, 58, 61
10, 164580, Note_on_c, 8, 58, 0
10, 164580, Note_on_c, 8, 58, 63
10, 164640, Note_on_c, 8, 58, 0
10, 164640, Note_on_c, 8, 58, 55
10, 164640, Note_on_c, 8, 46, 63
10, 164700, Note_on_c, 8, 58, 0
10, 164700, Note_on_c, 8, 58, 50
10, 164760, Note_on_c, 8, 58, 0
10, 164760, Note_on_c, 8, 46, 0
10, 164760, Note_on_c, 8, 58, 54
10, 164820, Note_on_c, 8, 58, 0
10, 164820, Note_on_c, 8, 58, 50
10, 164880, Note_on_c, 8, 58, 0
10, 164880, Note_on_c, 8, 58, 57
10, 164940, Note_on_c, 8, 58, 0
10, 164940, Note_on_c, 8, 58, 46
10, 165000, Note_on_c, 8, 58, 0
10, 165000, Note_on_c, 8, 58, 53
10, 165060, Note_on_c, 8, 58, 0
10, 165060, Note_on_c, 8, 58, 59
10, 165120, Note_on_c, 8, 58, 0
10, 165120, Note_on_c, 8, 58, 45
10, 165120, Note_on_c, 8, 46, 63
10, 165240, Note_on_c, 8, 46, 0
10, 165240, Note_on_c, 8, 58, 0
10, 168000, Note_on_c, 8, 53, 46
10, 168480, Note_on_c, 8, 53, 0
10, 168480, Note_on_c, 8, 46, 45
10, 168600, Note_on_c, 8, 46, 0
10, 168720, Note_on_c, 8, 50, 53
10, 168840, Note_on_c, 8, 50, 0
10, 168960, Note_on_c, 8, 43, 58
10, 169080, Note_on_c, 8, 43, 0
10, 171360, Note_on_c, 8, 52, 84
10, 171480, Note_on_c, 8, 52, 0
10, 171600, Note_on_c, 8, 53, 73
10, 171720, Note_on_c, 8, 53, 0
10, 171840, Note_on_c, 8, 54, 90
10, 172200, Note_on_c, 8, 54, 0
10, 172200, Note_on_c, 8, 53, 72
10, 172320, Note_on_c, 8, 53, 0
10, 172320, Note_on_c, 8, 52, 85
10, 172440, Note_on_c, 8, 52, 0
10, 172560, Note_on_c, 8, 53, 71
10, 172680, Note_on_c, 8, 53, 0
10, 172800, Note_on_c, 8, 54, 68
10, 172920, Note_on_c, 8, 54, 0
10, 173280, Note_on_c, 8, 55, 72
10, 173400, Note_on_c, 8, 55, 0
10, 174000, Note_on_c, 8, 55, 95
10, 174240, Note_on_c, 8, 55, 0
10, 174240, Note_on_c, 8, 53, 94
10, 174300, Note_on_c, 8, 53, 0
10, 174960, Note_on_c, 8, 54, 98
10, 175200, Note_on_c, 8, 54, 0
10, 175200, Note_on_c, 8, 53, 94
10, 175260, Note_on_c, 8, 53, 0
10, 175920, Note_on_c, 8, 55, 99
10, 176160, Note_on_c, 8, 55, 0
10, 176160, Note_on_c, 8, 53, 94
10, 176220, Note_on_c, 8, 53, 0
10, 180960, Note_on_c, 8, 53, 65
10, 181080, Note_on_c, 8, 53, 0
10, 182880, Note_on_c, 8, 41, 54
10, 182940, Note_on_c, 8, 41, 0
10, 182940, Note_on_c, 8, 53, 57
10, 183000, Note_on_c, 8, 53, 0
10, 183000, Note_on_c, 8, 53, 54
10, 183060, Note_on_c, 8, 53, 0
10, 183060, Note_on_c, 8, 53, 46
10, 183120, Note_on_c, 8, 53, 0
10, 183120, Note_on_c, 8, 53, 57
10, 183180, Note_on_c, 8, 53, 0
10, 183180, Note_on_c, 8, 53, 52
10, 183240, Note_on_c, 8, 53, 0
10, 183240, Note_on_c, 8, 53, 46
10, 183300, Note_on_c, 8, 53, 0
10, 183300, Note_on_c, 8, 53, 46
10, 183360, Note_on_c, 8, 53, 0
10, 183360, Note_on_c, 8, 53, 65
10, 183420, Note_on_c, 8, 53, 0
10, 183420, Note_on_c, 8, 53, 54
10, 183480, Note_on_c, 8, 53, 0
10, 183480, Note_on_c, 8, 53, 56
10, 183540, Note_on_c, 8, 53, 0
10, 183540, Note_on_c, 8, 53, 53
10, 183600, Note_on_c, 8, 53, 0
10, 183600, Note_on_c, 8, 53, 50
10, 183660, Note_on_c, 8, 53, 0
10, 183660, Note_on_c, 8, 53, 50
10, 183720, Note_on_c, 8, 53, 0
10, 183720, Note_on_c, 8, 53, 64
10, 183780, Note_on_c, 8, 53, 0
10, 183780, Note_on_c, 8, 53, 69
10, 183840, Note_on_c, 8, 53, 0
10, 183840, Note_on_c, 8, 46, 98
10, 184020, Note_on_c, 8, 46, 0
10, 184050, Note_on_c, 8, 46, 98
10, 184080, Note_on_c, 8, 46, 0
10, 184080, Note_on_c, 8, 50, 105
10, 184125, Note_on_c, 8, 50, 0
10, 184170, Note_on_c, 8, 50, 105
10, 184193, Note_on_c, 8, 50, 0
10, 184200, Note_on_c, 8, 46, 95
10, 184245, Note_on_c, 8, 46, 0
10, 184290, Note_on_c, 8, 46, 99
10, 184313, Note_on_c, 8, 46, 0
10, 184320, Note_on_c, 8, 53, 95
10, 184500, Note_on_c, 8, 53, 0
10, 184530, Note_on_c, 8, 41, 95
10, 184560, Note_on_c, 8, 41, 0
10, 184560, Note_on_c, 8, 44, 115
10, 184605, Note_on_c, 8, 44, 0
10, 184650, Note_on_c, 8, 44, 95
10, 184673, Note_on_c, 8, 44, 0
10, 184680, Note_on_c, 8, 41, 95
10, 184725, Note_on_c, 8, 41, 0
10, 184770, Note_on_c, 8, 41, 104
10, 184793, Note_on_c, 8, 41, 0
10, 184800, Note_on_c, 8, 48, 104
10, 184980, Note_on_c, 8, 48, 0
10, 185010, Note_on_c, 8, 48, 107
10, 185040, Note_on_c, 8, 48, 0
10, 185040, Note_on_c, 8, 51, 119
10, 185085, Note_on_c, 8, 51, 0
10, 185130, Note_on_c, 8, 51, 95
10, 185153, Note_on_c, 8, 51, 0
10, 185160, Note_on_c, 8, 48, 104
10, 185205, Note_on_c, 8, 48, 0
10, 185250, Note_on_c, 8, 48, 104
10, 185273, Note_on_c, 8, 48, 0
10, 185280, Note_on_c, 8, 55, 95
10, 185460, Note_on_c, 8, 55, 0
10, 185490, Note_on_c, 8, 43, 94
10, 185520, Note_on_c, 8, 43, 0
10, 185520, Note_on_c, 8, 46, 105
10, 185565, Note_on_c, 8, 46, 0
10, 185610, Note_on_c, 8, 46, 95
10, 185633, Note_on_c, 8, 46, 0
10, 185640, Note_on_c, 8, 43, 99
10, 185685, Note_on_c, 8, 43, 0
10, 185730, Note_on_c, 8, 43, 95
10, 185753, Note_on_c, 8, 43, 0
10, 185760, Note_on_c, 8, 50, 104
10, 185820, Note_on_c, 8, 50, 0
10, 185820, Note_on_c, 8, 62, 89
10, 185880, Note_on_c, 8, 62, 0
10, 185880, Note_on_c, 8, 62, 78
10, 185940, Note_on_c, 8, 62, 0
10, 185940, Note_on_c, 8, 62, 89
10, 186000, Note_on_c, 8, 62, 0
10, 186000, Note_on_c, 8, 47, 104
10, 186060, Note_on_c, 8, 47, 0
10, 186060, Note_on_c, 8, 59, 90
10, 186120, Note_on_c, 8, 59, 0
10, 186120, Note_on_c, 8, 59, 93
10, 186180, Note_on_c, 8, 59, 0
10, 186180, Note_on_c, 8, 59, 89
10, 186240, Note_on_c, 8, 59, 0
10, 186240, Note_on_c, 8, 48, 104
10, 186300, Note_on_c, 8, 48, 0
10, 186300, Note_on_c, 8, 60, 89
10, 186360, Note_on_c, 8, 60, 0
10, 186360, Note_on_c, 8, 60, 86
10, 186420, Note_on_c, 8, 60, 0
10, 186420, Note_on_c, 8, 60, 93
10, 186480, Note_on_c, 8, 60, 0
10, 186480, Note_on_c, 8, 45, 104
10, 186540, Note_on_c, 8, 45, 0
10, 186540, Note_on_c, 8, 57, 99
10, 186600, Note_on_c, 8, 57, 0
10, 186600, Note_on_c, 8, 57, 99
10, 186660, Note_on_c, 8, 57, 0
10, 186660, Note_on_c, 8, 57, 99
10, 186720, Note_on_c, 8, 57, 0
10, 186720, Note_on_c, 8, 58, 94
10, 186780, Note_on_c, 8, 58, 0
10, 186840, Note_on_c, 8, 55, 119
10, 187080, Note_on_c, 8, 55, 0
10, 187080, Note_on_c, 8, 57, 110
10, 187140, Note_on_c, 8, 57, 0
10, 187200, Note_on_c, 8, 54, 94
10, 187260, Note_on_c, 8, 54, 0
10, 187320, Note_on_c, 8, 55, 119
10, 187380, Note_on_c, 8, 55, 0
10, 187440, Note_on_c, 8, 52, 105
10, 187500, Note_on_c, 8, 52, 0
10, 187560, Note_on_c, 8, 53, 115
10, 187620, Note_on_c, 8, 53, 0
10, 187680, Note_on_c, 8, 50, 101
10, 187740, Note_on_c, 8, 50, 0
10, 187800, Note_on_c, 8, 51, 123
10, 188040, Note_on_c, 8, 51, 0
10, 188040, Note_on_c, 8, 52, 119
10, 188280, Note_on_c, 8, 52, 0
10, 188280, Note_on_c, 8, 53, 99
10, 188340, Note_on_c, 8, 53, 0
10, 188400, Note_on_c, 8, 54, 94
10, 188460, Note_on_c, 8, 54, 0
10, 188520, Note_on_c, 8, 55, 99
10, 188580, Note_on_c, 8, 55, 0
10, 188640, Note_on_c, 8, 53, 123
10, 188880, Note_on_c, 8, 53, 0
10, 229440, Note_on_c, 8, 58, 99
10, 229560, Note_on_c, 8, 58, 0
10, 229920, Note_on_c, 8, 53, 60
10, 230400, Note_on_c, 8, 53, 0
10, 230400, Note_on_c, 8, 58, 63
10, 230520, Note_on_c, 8, 58, 0
10, 230880, Note_on_c, 8, 41, 55
10, 231000, Note_on_c, 8, 41, 0
10, 231000, Note_on_c, 8, 53, 61
10, 231120, Note_on_c, 8, 53, 0
10, 231120, Note_on_c, 8, 53, 77
10, 231240, Note_on_c, 8, 53, 0
10, 231240, Note_on_c, 8, 53, 85
10, 231360, Note_on_c, 8, 53, 0
10, 231360, Note_on_c, 8, 46, 58
10, 231480, Note_on_c, 8, 46, 0
10, 231600, Note_on_c, 8, 58, 101
10, 231720, Note_on_c, 8, 58, 0
10, 231840, Note_on_c, 8, 46, 104
10, 231960, Note_on_c, 8, 46, 0
10, 231960, End_track
11, 0, Start_track
11, 0, MIDI_port, 0
11, 0, Title_t, "Contrabasses"
11, 0, Control_c, 10, 7, 100
11, 0, Control_c, 10, 10, 119
11, 0, Control_c, 10, 93, 0
11, 0, Control_c, 10, 91, 66
11, 0, Program_c, 10, 48
11, 0, Note_on_c, 10, 46, 95
11, 180, Note_on_c, 10, 46, 0
11, 210, Note_on_c, 10, 34, 82
11, 240, Note_on_c, 10, 34, 0
11, 240, Note_on_c, 10, 41, 89
11, 285, Note_on_c, 10, 41, 0
11, 330, Note_on_c, 10, 41, 89
11, 345, Note_on_c, 10, 41, 0
11, 360, Note_on_c, 10, 38, 104
11, 390, Note_on_c, 10, 38, 0
11, 450, Note_on_c, 10, 38, 99
11, 465, Note_on_c, 10, 38, 0
11, 480, Note_on_c, 10, 34, 99
11, 600, Note_on_c, 10, 34, 0
11, 960, Note_on_c, 10, 48, 41
11, 1440, Note_on_c, 10, 48, 0
11, 1440, Note_on_c, 10, 48, 35
11, 1560, Note_on_c, 10, 48, 0
11, 1920, Note_on_c, 10, 41, 94
11, 1920, Control_c, 10, 7, 100
11, 1920, Control_c, 10, 10, 103
11, 1920, Control_c, 10, 93, 0
11, 1920, Control_c, 10, 91, 66
11, 2040, Control_c, 10, 7, 100
11, 2040, Control_c, 10, 10, 103
11, 2040, Control_c, 10, 93, 0
11, 2040, Control_c, 10, 91, 66
11, 2100, Note_on_c, 10, 41, 0
11, 2130, Note_on_c, 10, 29, 94
11, 2160, Note_on_c, 10, 29, 0
11, 2160, Note_on_c, 10, 36, 95
11, 2190, Note_on_c, 10, 36, 0
11, 2250, Note_on_c, 10, 36, 95
11, 2265, Note_on_c, 10, 36, 0
11, 2280, Note_on_c, 10, 33, 101
11, 2310, Note_on_c, 10, 33, 0
11, 2370, Note_on_c, 10, 33, 84
11, 2385, Note_on_c, 10, 33, 0
11, 2400, Note_on_c, 10, 29, 95
11, 2520, Note_on_c, 10, 29, 0
11, 2880, Note_on_c, 10, 38, 45
11, 3360, Note_on_c, 10, 38, 0
11, 3360, Note_on_c, 10, 38, 34
11, 3480, Note_on_c, 10, 38, 0
11, 3840, Note_on_c, 10, 46, 48
11, 3960, Note_on_c, 10, 46, 0
11, 4320, Note_on_c, 10, 39, 48
11, 4440, Note_on_c, 10, 39, 0
11, 4800, Note_on_c, 10, 41, 45
11, 4920, Note_on_c, 10, 41, 0
11, 5280, Note_on_c, 10, 34, 49
11, 5400, Note_on_c, 10, 34, 0
11, 5760, Note_on_c, 10, 38, 57
11, 5880, Note_on_c, 10, 38, 0
11, 6240, Note_on_c, 10, 39, 54
11, 6360, Note_on_c, 10, 39, 0
11, 6720, Note_on_c, 10, 41, 60
11, 6840, Note_on_c, 10, 41, 0
11, 6960, Note_on_c, 10, 41, 56
11, 7080, Note_on_c, 10, 41, 0
11, 7200, Note_on_c, 10, 34, 54
11, 7320, Note_on_c, 10, 34, 0
11, 7680, Note_on_c, 10, 34, 62
11, 7860, Note_on_c, 10, 34, 0
11, 7890, Note_on_c, 10, 34, 72
11, 7920, Note_on_c, 10, 34, 0
11, 7920, Note_on_c, 10, 38, 73
11, 7950, Note_on_c, 10, 38, 0
11, 7980, Note_on_c, 10, 38, 56
11, 7995, Note_on_c, 10, 38, 0
11, 8040, Note_on_c, 10, 34, 65
11, 8070, Note_on_c, 10, 34, 0
11, 8100, Note_on_c, 10, 34, 54
11, 8115, Note_on_c, 10, 34, 0
11, 8160, Note_on_c, 10, 39, 58
11, 8220, Note_on_c, 10, 39, 0
11, 8280, Note_on_c, 10, 39, 74
11, 8340, Note_on_c, 10, 39, 0
11, 8400, Note_on_c, 10, 36, 67
11, 8460, Note_on_c, 10, 36, 0
11, 8520, Note_on_c, 10, 33, 65
11, 8580, Note_on_c, 10, 33, 0
11, 8640, Note_on_c, 10, 29, 59
11, 8820, Note_on_c, 10, 29, 0
11, 8850, Note_on_c, 10, 29, 53
11, 8880, Note_on_c, 10, 29, 0
11, 8880, Note_on_c, 10, 31, 64
11, 8910, Note_on_c, 10, 31, 0
11, 8940, Note_on_c, 10, 31, 69
11, 8955, Note_on_c, 10, 31, 0
11, 9000, Note_on_c, 10, 33, 72
11, 9030, Note_on_c, 10, 33, 0
11, 9060, Note_on_c, 10, 33, 69
11, 9075, Note_on_c, 10, 33, 0
11, 9120, Note_on_c, 10, 34, 58
11, 9180, Note_on_c, 10, 34, 0
11, 9240, Note_on_c, 10, 38, 69
11, 9300, Note_on_c, 10, 38, 0
11, 9360, Note_on_c, 10, 41, 72
11, 9420, Note_on_c, 10, 41, 0
11, 9480, Note_on_c, 10, 46, 73
11, 9540, Note_on_c, 10, 46, 0
11, 9600, Note_on_c, 10, 50, 61
11, 9780, Note_on_c, 10, 50, 0
11, 9810, Note_on_c, 10, 38, 71
11, 9840, Note_on_c, 10, 38, 0
11, 9840, Note_on_c, 10, 38, 89
11, 9900, Note_on_c, 10, 38, 0
11, 9960, Note_on_c, 10, 38, 99
11, 10020, Note_on_c, 10, 38, 0
11, 10080, Note_on_c, 10, 36, 95
11, 10140, Note_on_c, 10, 36, 0
11, 10140, Note_on_c, 10, 36, 94
11, 10200, Note_on_c, 10, 36, 0
11, 10200, Note_on_c, 10, 36, 95
11, 10260, Note_on_c, 10, 36, 0
11, 10260, Note_on_c, 10, 36, 95
11, 10320, Note_on_c, 10, 36, 0
11, 10320, Note_on_c, 10, 36, 107
11, 10380, Note_on_c, 10, 36, 0
11, 10380, Note_on_c, 10, 36, 94
11, 10440, Note_on_c, 10, 36, 0
11, 10440, Note_on_c, 10, 36, 86
11, 10500, Note_on_c, 10, 36, 0
11, 10500, Note_on_c, 10, 36, 93
11, 10560, Note_on_c, 10, 36, 0
11, 10560, Note_on_c, 10, 35, 89
11, 10680, Note_on_c, 10, 35, 0
11, 11040, Note_on_c, 10, 38, 99
11, 11100, Note_on_c, 10, 38, 0
11, 11100, Note_on_c, 10, 38, 95
11, 11160, Note_on_c, 10, 38, 0
11, 11160, Note_on_c, 10, 38, 95
11, 11220, Note_on_c, 10, 38, 0
11, 11220, Note_on_c, 10, 38, 95
11, 11280, Note_on_c, 10, 38, 0
11, 11280, Note_on_c, 10, 38, 112
11, 11340, Note_on_c, 10, 38, 0
11, 11340, Note_on_c, 10, 38, 101
11, 11400, Note_on_c, 10, 38, 0
11, 11400, Note_on_c, 10, 38, 95
11, 11460, Note_on_c, 10, 38, 0
11, 11460, Note_on_c, 10, 38, 95
11, 11520, Note_on_c, 10, 38, 0
11, 11520, Note_on_c, 10, 37, 93
11, 11580, Note_on_c, 10, 37, 0
11, 11580, Note_on_c, 10, 49, 80
11, 11640, Note_on_c, 10, 49, 0
11, 11640, Note_on_c, 10, 49, 84
11, 11700, Note_on_c, 10, 49, 0
11, 11700, Note_on_c, 10, 49, 84
11, 11760, Note_on_c, 10, 49, 0
11, 11760, Note_on_c, 10, 50, 105
11, 11820, Note_on_c, 10, 50, 0
11, 11820, Note_on_c, 10, 50, 84
11, 11880, Note_on_c, 10, 50, 0
11, 11880, Note_on_c, 10, 50, 89
11, 11940, Note_on_c, 10, 50, 0
11, 11940, Note_on_c, 10, 50, 82
11, 12000, Note_on_c, 10, 50, 0
11, 12000, Note_on_c, 10, 49, 89
11, 12060, Note_on_c, 10, 49, 0
11, 12060, Note_on_c, 10, 49, 89
11, 12120, Note_on_c, 10, 49, 0
11, 12120, Note_on_c, 10, 49, 89
11, 12180, Note_on_c, 10, 49, 0
11, 12180, Note_on_c, 10, 49, 90
11, 12240, Note_on_c, 10, 49, 0
11, 12240, Note_on_c, 10, 50, 105
11, 12300, Note_on_c, 10, 50, 0
11, 12300, Note_on_c, 10, 50, 95
11, 12360, Note_on_c, 10, 50, 0
11, 12360, Note_on_c, 10, 50, 86
11, 12420, Note_on_c, 10, 50, 0
11, 12420, Note_on_c, 10, 50, 99
11, 12480, Note_on_c, 10, 50, 0
11, 12480, Note_on_c, 10, 49, 84
11, 12525, Note_on_c, 10, 49, 0
11, 12540, Note_on_c, 10, 49, 81
11, 12585, Note_on_c, 10, 49, 0
11, 12600, Note_on_c, 10, 48, 95
11, 12645, Note_on_c, 10, 48, 0
11, 12660, Note_on_c, 10, 48, 93
11, 12705, Note_on_c, 10, 48, 0
11, 12720, Note_on_c, 10, 47, 94
11, 12765, Note_on_c, 10, 47, 0
11, 12780, Note_on_c, 10, 47, 95
11, 12825, Note_on_c, 10, 47, 0
11, 12840, Note_on_c, 10, 46, 98
11, 12885, Note_on_c, 10, 46, 0
11, 12900, Note_on_c, 10, 46, 86
11, 12945, Note_on_c, 10, 46, 0
11, 12960, Note_on_c, 10, 45, 99
11, 13080, Note_on_c, 10, 45, 0
11, 13320, Note_on_c, 10, 41, 94
11, 13440, Note_on_c, 10, 41, 0
11, 13440, Note_on_c, 10, 53, 95
11, 13500, Note_on_c, 10, 53, 0
11, 13560, Note_on_c, 10, 53, 94
11, 13620, Note_on_c, 10, 53, 0
11, 13800, Note_on_c, 10, 41, 98
11, 13920, Note_on_c, 10, 41, 0
11, 13920, Note_on_c, 10, 53, 93
11, 13980, Note_on_c, 10, 53, 0
11, 14040, Note_on_c, 10, 41, 89
11, 14100, Note_on_c, 10, 41, 0
11, 14160, Note_on_c, 10, 39, 90
11, 14220, Note_on_c, 10, 39, 0
11, 14280, Note_on_c, 10, 37, 86
11, 14340, Note_on_c, 10, 37, 0
11, 14400, Note_on_c, 10, 36, 94
11, 14520, Note_on_c, 10, 36, 0
11, 14520, Note_on_c, 10, 48, 81
11, 14580, Note_on_c, 10, 48, 0
11, 14760, Note_on_c, 10, 46, 86
11, 14820, Note_on_c, 10, 46, 0
11, 14880, Note_on_c, 10, 44, 84
11, 14940, Note_on_c, 10, 44, 0
11, 15000, Note_on_c, 10, 41, 94
11, 15060, Note_on_c, 10, 41, 0
11, 15240, Note_on_c, 10, 41, 86
11, 15360, Note_on_c, 10, 41, 0
11, 15360, Note_on_c, 10, 40, 104
11, 15480, Note_on_c, 10, 40, 0
11, 15480, Note_on_c, 10, 36, 101
11, 15600, Note_on_c, 10, 36, 0
11, 15600, Note_on_c, 10, 41, 95
11, 15720, Note_on_c, 10, 41, 0
11, 15720, Note_on_c, 10, 44, 99
11, 15840, Note_on_c, 10, 44, 0
11, 15840, Note_on_c, 10, 48, 99
11, 15960, Note_on_c, 10, 48, 0
11, 16320, Note_on_c, 10, 36, 93
11, 16440, Note_on_c, 10, 36, 0
11, 16440, Note_on_c, 10, 48, 80
11, 16560, Note_on_c, 10, 48, 0
11, 16680, Note_on_c, 10, 46, 89
11, 16800, Note_on_c, 10, 46, 0
11, 16800, Note_on_c, 10, 44, 77
11, 16920, Note_on_c, 10, 44, 0
11, 16920, Note_on_c, 10, 41, 89
11, 17040, Note_on_c, 10, 41, 0
11, 17160, Note_on_c, 10, 41, 93
11, 17280, Note_on_c, 10, 41, 0
11, 17280, Note_on_c, 10, 40, 107
11, 17400, Note_on_c, 10, 40, 0
11, 17400, Note_on_c, 10, 36, 99
11, 17520, Note_on_c, 10, 36, 0
11, 17520, Note_on_c, 10, 41, 99
11, 17640, Note_on_c, 10, 41, 0
11, 17640, Note_on_c, 10, 44, 99
11, 17760, Note_on_c, 10, 44, 0
11, 17760, Note_on_c, 10, 48, 99
11, 17880, Note_on_c, 10, 48, 0
11, 18240, Note_on_c, 10, 36, 101
11, 18360, Note_on_c, 10, 36, 0
11, 18480, Note_on_c, 10, 36, 99
11, 18600, Note_on_c, 10, 36, 0
11, 18720, Note_on_c, 10, 36, 101
11, 18840, Note_on_c, 10, 36, 0
11, 19200, Note_on_c, 10, 37, 42
11, 19320, Note_on_c, 10, 37, 0
11, 19440, Note_on_c, 10, 37, 43
11, 19560, Note_on_c, 10, 37, 0
11, 19680, Note_on_c, 10, 37, 50
11, 19800, Note_on_c, 10, 37, 0
11, 20160, Note_on_c, 10, 37, 53
11, 20640, Note_on_c, 10, 37, 0
11, 20640, Note_on_c, 10, 41, 46
11, 21120, Note_on_c, 10, 41, 0
11, 21120, Note_on_c, 10, 42, 44
11, 21600, Note_on_c, 10, 42, 0
11, 21600, Note_on_c, 10, 44, 52
11, 22080, Note_on_c, 10, 44, 0
11, 22080, Note_on_c, 10, 37, 50
11, 22560, Note_on_c, 10, 37, 0
11, 22560, Note_on_c, 10, 34, 46
11, 23040, Note_on_c, 10, 34, 0
11, 23040, Note_on_c, 10, 39, 52
11, 23520, Note_on_c, 10, 39, 0
11, 23520, Note_on_c, 10, 41, 59
11, 24000, Note_on_c, 10, 41, 0
11, 24000, Note_on_c, 10, 34, 67
11, 24180, Note_on_c, 10, 34, 0
11, 24180, Note_on_c, 10, 36, 64
11, 24240, Note_on_c, 10, 36, 0
11, 24240, Note_on_c, 10, 37, 82
11, 24300, Note_on_c, 10, 37, 0
11, 24300, Note_on_c, 10, 39, 89
11, 24360, Note_on_c, 10, 39, 0
11, 24360, Note_on_c, 10, 41, 61
11, 24420, Note_on_c, 10, 41, 0
11, 24420, Note_on_c, 10, 40, 46
11, 24480, Note_on_c, 10, 40, 0
11, 24480, Note_on_c, 10, 41, 45
11, 24600, Note_on_c, 10, 41, 0
11, 24960, Note_on_c, 10, 34, 44
11, 25140, Note_on_c, 10, 34, 0
11, 25140, Note_on_c, 10, 36, 72
11, 25200, Note_on_c, 10, 36, 0
11, 25200, Note_on_c, 10, 37, 85
11, 25260, Note_on_c, 10, 37, 0
11, 25260, Note_on_c, 10, 39, 94
11, 25320, Note_on_c, 10, 39, 0
11, 25320, Note_on_c, 10, 41, 62
11, 25380, Note_on_c, 10, 41, 0
11, 25380, Note_on_c, 10, 40, 43
11, 25440, Note_on_c, 10, 40, 0
11, 25440, Note_on_c, 10, 41, 54
11, 25560, Note_on_c, 10, 41, 0
11, 25920, Note_on_c, 10, 34, 53
11, 26100, Note_on_c, 10, 34, 0
11, 26100, Note_on_c, 10, 36, 67
11, 26160, Note_on_c, 10, 36, 0
11, 26160, Note_on_c, 10, 37, 84
11, 26220, Note_on_c, 10, 37, 0
11, 26220, Note_on_c, 10, 39, 85
11, 26280, Note_on_c, 10, 39, 0
11, 26280, Note_on_c, 10, 41, 80
11, 26340, Note_on_c, 10, 41, 0
11, 26340, Note_on_c, 10, 37, 89
11, 26400, Note_on_c, 10, 37, 0
11, 26400, Note_on_c, 10, 39, 95
11, 26640, Note_on_c, 10, 39, 0
11, 26640, Note_on_c, 10, 40, 105
11, 26880, Note_on_c, 10, 40, 0
11, 26880, Note_on_c, 10, 41, 86
11, 27000, Note_on_c, 10, 41, 0
11, 27360, Note_on_c, 10, 41, 40
11, 27480, Note_on_c, 10, 41, 0
11, 27840, Note_on_c, 10, 41, 50
11, 27960, Note_on_c, 10, 41, 0
11, 28320, Note_on_c, 10, 41, 40
11, 28440, Note_on_c, 10, 41, 0
11, 28800, Note_on_c, 10, 41, 78
11, 28920, Note_on_c, 10, 41, 0
11, 29280, Note_on_c, 10, 41, 86
11, 29400, Note_on_c, 10, 41, 0
11, 29760, Control_c, 10, 7, 99
11, 29760, Note_on_c, 10, 34, 94
11, 29766, Control_c, 10, 7, 98
11, 29770, Control_c, 10, 7, 97
11, 29776, Control_c, 10, 7, 96
11, 29780, Control_c, 10, 7, 95
11, 29786, Control_c, 10, 7, 94
11, 29790, Control_c, 10, 7, 93
11, 29796, Control_c, 10, 7, 92
11, 29800, Control_c, 10, 7, 91
11, 29806, Control_c, 10, 7, 90
11, 29810, Control_c, 10, 7, 89
11, 29816, Control_c, 10, 7, 88
11, 29820, Control_c, 10, 7, 87
11, 29826, Control_c, 10, 7, 86
11, 29830, Control_c, 10, 7, 85
11, 29836, Control_c, 10, 7, 84
11, 29840, Control_c, 10, 7, 83
11, 29846, Control_c, 10, 7, 82
11, 29850, Control_c, 10, 7, 81
11, 29856, Control_c, 10, 7, 80
11, 29860, Control_c, 10, 7, 79
11, 29866, Control_c, 10, 7, 78
11, 29870, Control_c, 10, 7, 77
11, 29876, Control_c, 10, 7, 76
11, 29880, Note_on_c, 10, 34, 0
11, 29880, Control_c, 10, 7, 75
11, 29886, Control_c, 10, 7, 74
11, 29890, Control_c, 10, 7, 73
11, 29896, Control_c, 10, 7, 72
11, 29900, Control_c, 10, 7, 71
11, 29906, Control_c, 10, 7, 70
11, 29910, Control_c, 10, 7, 69
11, 29916, Control_c, 10, 7, 68
11, 29920, Control_c, 10, 7, 67
11, 29926, Control_c, 10, 7, 66
11, 29930, Control_c, 10, 7, 65
11, 29936, Control_c, 10, 7, 64
11, 29940, Control_c, 10, 7, 63
11, 30116, Control_c, 10, 7, 63
11, 30120, Control_c, 10, 7, 64
11, 30124, Control_c, 10, 7, 65
11, 30128, Control_c, 10, 7, 66
11, 30130, Control_c, 10, 7, 67
11, 30134, Control_c, 10, 7, 68
11, 30138, Control_c, 10, 7, 69
11, 30142, Control_c, 10, 7, 70
11, 30144, Control_c, 10, 7, 71
11, 30148, Control_c, 10, 7, 72
11, 30152, Control_c, 10, 7, 73
11, 30154, Control_c, 10, 7, 74
11, 30158, Control_c, 10, 7, 75
11, 30162, Control_c, 10, 7, 76
11, 30166, Control_c, 10, 7, 77
11, 30168, Control_c, 10, 7, 78
11, 30172, Control_c, 10, 7, 79
11, 30176, Control_c, 10, 7, 80
11, 30178, Control_c, 10, 7, 81
11, 30182, Control_c, 10, 7, 82
11, 30186, Control_c, 10, 7, 83
11, 30190, Control_c, 10, 7, 84
11, 30192, Control_c, 10, 7, 85
11, 30196, Control_c, 10, 7, 86
11, 30200, Control_c, 10, 7, 87
11, 30204, Control_c, 10, 7, 88
11, 30206, Control_c, 10, 7, 89
11, 30210, Control_c, 10, 7, 90
11, 30214, Control_c, 10, 7, 91
11, 30216, Control_c, 10, 7, 92
11, 30220, Control_c, 10, 7, 93
11, 30224, Control_c, 10, 7, 94
11, 30228, Control_c, 10, 7, 95
11, 30230, Control_c, 10, 7, 96
11, 30234, Control_c, 10, 7, 97
11, 30238, Control_c, 10, 7, 98
11, 30240, Note_on_c, 10, 46, 58
11, 30240, Control_c, 10, 7, 99
11, 30300, Note_on_c, 10, 46, 0
11, 30360, Note_on_c, 10, 41, 63
11, 30420, Note_on_c, 10, 41, 0
11, 30480, Note_on_c, 10, 38, 64
11, 30540, Note_on_c, 10, 38, 0
11, 30600, Note_on_c, 10, 34, 56
11, 30660, Note_on_c, 10, 34, 0
11, 30720, Note_on_c, 10, 36, 90
11, 30840, Note_on_c, 10, 36, 0
11, 31200, Note_on_c, 10, 48, 61
11, 31260, Note_on_c, 10, 48, 0
11, 31320, Note_on_c, 10, 45, 72
11, 31380, Note_on_c, 10, 45, 0
11, 31440, Note_on_c, 10, 39, 52
11, 31500, Note_on_c, 10, 39, 0
11, 31560, Note_on_c, 10, 36, 68
11, 31620, Note_on_c, 10, 36, 0
11, 31680, Note_on_c, 10, 38, 90
11, 31800, Note_on_c, 10, 38, 0
11, 32160, Note_on_c, 10, 50, 62
11, 32220, Note_on_c, 10, 50, 0
11, 32280, Note_on_c, 10, 47, 67
11, 32340, Note_on_c, 10, 47, 0
11, 32400, Note_on_c, 10, 43, 68
11, 32460, Note_on_c, 10, 43, 0
11, 32520, Note_on_c, 10, 41, 66
11, 32580, Note_on_c, 10, 41, 0
11, 32640, Note_on_c, 10, 39, 95
11, 32670, Note_on_c, 10, 39, 0
11, 32730, Note_on_c, 10, 39, 95
11, 32745, Note_on_c, 10, 39, 0
11, 32760, Note_on_c, 10, 39, 82
11, 32880, Note_on_c, 10, 39, 0
11, 33120, Note_on_c, 10, 41, 99
11, 33165, Note_on_c, 10, 41, 0
11, 33210, Note_on_c, 10, 41, 86
11, 33225, Note_on_c, 10, 41, 0
11, 33240, Note_on_c, 10, 41, 84
11, 33360, Note_on_c, 10, 41, 0
11, 33600, Note_on_c, 10, 41, 95
11, 33645, Note_on_c, 10, 41, 0
11, 33690, Note_on_c, 10, 41, 82
11, 33705, Note_on_c, 10, 41, 0
11, 33720, Note_on_c, 10, 41, 81
11, 33840, Note_on_c, 10, 41, 0
11, 34080, Note_on_c, 10, 43, 95
11, 34125, Note_on_c, 10, 43, 0
11, 34170, Note_on_c, 10, 43, 84
11, 34185, Note_on_c, 10, 43, 0
11, 34200, Note_on_c, 10, 43, 84
11, 34320, Note_on_c, 10, 43, 0
11, 34560, Note_on_c, 10, 43, 93
11, 34605, Note_on_c, 10, 43, 0
11, 34650, Note_on_c, 10, 43, 99
11, 34665, Note_on_c, 10, 43, 0
11, 34680, Note_on_c, 10, 43, 99
11, 34800, Note_on_c, 10, 43, 0
11, 35520, Note_on_c, 10, 34, 84
11, 35580, Note_on_c, 10, 34, 0
11, 35640, Note_on_c, 10, 46, 94
11, 35880, Note_on_c, 10, 46, 0
11, 35880, Note_on_c, 10, 45, 90
11, 36000, Note_on_c, 10, 45, 0
11, 36000, Note_on_c, 10, 39, 67
11, 36060, Note_on_c, 10, 39, 0
11, 36120, Note_on_c, 10, 51, 94
11, 36360, Note_on_c, 10, 51, 0
11, 36360, Note_on_c, 10, 50, 81
11, 36480, Note_on_c, 10, 50, 0
11, 36480, Note_on_c, 10, 41, 77
11, 36540, Note_on_c, 10, 41, 0
11, 36600, Note_on_c, 10, 53, 107
11, 36780, Note_on_c, 10, 53, 0
11, 36780, Note_on_c, 10, 51, 89
11, 36840, Note_on_c, 10, 51, 0
11, 36840, Note_on_c, 10, 50, 84
11, 36900, Note_on_c, 10, 50, 0
11, 36900, Note_on_c, 10, 48, 78
11, 36960, Note_on_c, 10, 48, 0
11, 36960, Note_on_c, 10, 53, 99
11, 37020, Note_on_c, 10, 53, 0
11, 37080, Note_on_c, 10, 41, 89
11, 37140, Note_on_c, 10, 41, 0
11, 37200, Note_on_c, 10, 41, 90
11, 37260, Note_on_c, 10, 41, 0
11, 37320, Note_on_c, 10, 41, 90
11, 37380, Note_on_c, 10, 41, 0
11, 37440, Note_on_c, 10, 41, 95
11, 37500, Note_on_c, 10, 41, 0
11, 37560, Note_on_c, 10, 53, 110
11, 37740, Note_on_c, 10, 53, 0
11, 37740, Note_on_c, 10, 51, 80
11, 37800, Note_on_c, 10, 51, 0
11, 37800, Note_on_c, 10, 50, 84
11, 37860, Note_on_c, 10, 50, 0
11, 37860, Note_on_c, 10, 48, 84
11, 37920, Note_on_c, 10, 48, 0
11, 37920, Note_on_c, 10, 53, 94
11, 37980, Note_on_c, 10, 53, 0
11, 38040, Note_on_c, 10, 41, 90
11, 38100, Note_on_c, 10, 41, 0
11, 38160, Note_on_c, 10, 41, 94
11, 38220, Note_on_c, 10, 41, 0
11, 38280, Note_on_c, 10, 41, 94
11, 38340, Note_on_c, 10, 41, 0
11, 38400, Note_on_c, 10, 46, 99
11, 38460, Note_on_c, 10, 46, 0
11, 38460, Note_on_c, 10, 45, 104
11, 38520, Note_on_c, 10, 45, 0
11, 38520, Note_on_c, 10, 46, 80
11, 38550, Note_on_c, 10, 46, 0
11, 38580, Note_on_c, 10, 45, 86
11, 38610, Note_on_c, 10, 45, 0
11, 38640, Note_on_c, 10, 43, 99
11, 38700, Note_on_c, 10, 43, 0
11, 38700, Note_on_c, 10, 42, 81
11, 38760, Note_on_c, 10, 42, 0
11, 38760, Note_on_c, 10, 43, 85
11, 38790, Note_on_c, 10, 43, 0
11, 38820, Note_on_c, 10, 41, 82
11, 38850, Note_on_c, 10, 41, 0
11, 38880, Note_on_c, 10, 39, 98
11, 38940, Note_on_c, 10, 39, 0
11, 38940, Note_on_c, 10, 38, 90
11, 39000, Note_on_c, 10, 38, 0
11, 39000, Note_on_c, 10, 39, 84
11, 39030, Note_on_c, 10, 39, 0
11, 39060, Note_on_c, 10, 36, 94
11, 39090, Note_on_c, 10, 36, 0
11, 39120, Note_on_c, 10, 41, 98
11, 39180, Note_on_c, 10, 41, 0
11, 39180, Note_on_c, 10, 40, 89
11, 39240, Note_on_c, 10, 40, 0
11, 39240, Note_on_c, 10, 41, 90
11, 39270, Note_on_c, 10, 41, 0
11, 39300, Note_on_c, 10, 29, 94
11, 39330, Note_on_c, 10, 29, 0
11, 39360, Note_on_c, 10, 46, 98
11, 39420, Note_on_c, 10, 46, 0
11, 39420, Note_on_c, 10, 45, 110
11, 39480, Note_on_c, 10, 45, 0
11, 39480, Note_on_c, 10, 46, 90
11, 39510, Note_on_c, 10, 46, 0
11, 39540, Note_on_c, 10, 45, 105
11, 39570, Note_on_c, 10, 45, 0
11, 39600, Note_on_c, 10, 43, 98
11, 39660, Note_on_c, 10, 43, 0
11, 39660, Note_on_c, 10, 42, 90
11, 39720, Note_on_c, 10, 42, 0
11, 39720, Note_on_c, 10, 43, 99
11, 39750, Note_on_c, 10, 43, 0
11, 39780, Note_on_c, 10, 41, 95
11, 39810, Note_on_c, 10, 41, 0
11, 39840, Note_on_c, 10, 39, 94
11, 39900, Note_on_c, 10, 39, 0
11, 39900, Note_on_c, 10, 38, 105
11, 39960, Note_on_c, 10, 38, 0
11, 39960, Note_on_c, 10, 39, 95
11, 39990, Note_on_c, 10, 39, 0
11, 40020, Note_on_c, 10, 36, 104
11, 40050, Note_on_c, 10, 36, 0
11, 40080, Note_on_c, 10, 41, 95
11, 40140, Note_on_c, 10, 41, 0
11, 40140, Note_on_c, 10, 40, 101
11, 40200, Note_on_c, 10, 40, 0
11, 40200, Note_on_c, 10, 41, 95
11, 40230, Note_on_c, 10, 41, 0
11, 40260, Note_on_c, 10, 29, 95
11, 40290, Note_on_c, 10, 29, 0
11, 40320, Note_on_c, 10, 34, 95
11, 40440, Note_on_c, 10, 34, 0
11, 40800, Note_on_c, 10, 41, 60
11, 41280, Note_on_c, 10, 41, 0
11, 41280, Note_on_c, 10, 46, 72
11, 41400, Note_on_c, 10, 46, 0
11, 41760, Note_on_c, 10, 41, 71
11, 41880, Note_on_c, 10, 41, 0
11, 42240, Note_on_c, 10, 34, 78
11, 42360, Note_on_c, 10, 34, 0
11, 42480, Note_on_c, 10, 46, 95
11, 42600, Note_on_c, 10, 46, 0
11, 42720, Note_on_c, 10, 34, 95
11, 42840, Note_on_c, 10, 34, 0
11, 45120, Note_on_c, 10, 39, 67
11, 45240, Note_on_c, 10, 39, 0
11, 45600, Note_on_c, 10, 38, 58
11, 45720, Note_on_c, 10, 38, 0
11, 46080, Note_on_c, 10, 48, 62
11, 46200, Note_on_c, 10, 48, 0
11, 46320, Note_on_c, 10, 46, 62
11, 46440, Note_on_c, 10, 46, 0
11, 46560, Note_on_c, 10, 45, 65
11, 46680, Note_on_c, 10, 45, 0
11, 46800, Note_on_c, 10, 46, 65
11, 46920, Note_on_c, 10, 46, 0
11, 47040, Note_on_c, 10, 39, 61
11, 47160, Note_on_c, 10, 39, 0
11, 47520, Note_on_c, 10, 41, 57
11, 47640, Note_on_c, 10, 41, 0
11, 48360, Note_on_c, 10, 41, 67
11, 48480, Note_on_c, 10, 41, 0
11, 48480, Note_on_c, 10, 34, 90
11, 48520, Control_c, 10, 7, 99
11, 48524, Control_c, 10, 7, 98
11, 48526, Control_c, 10, 7, 97
11, 48528, Control_c, 10, 7, 96
11, 48530, Control_c, 10, 7, 95
11, 48532, Control_c, 10, 7, 94
11, 48534, Control_c, 10, 7, 93
11, 48536, Control_c, 10, 7, 92
11, 48538, Control_c, 10, 7, 91
11, 48540, Control_c, 10, 7, 90
11, 48542, Control_c, 10, 7, 89
11, 48544, Control_c, 10, 7, 88
11, 48546, Control_c, 10, 7, 87
11, 48548, Control_c, 10, 7, 86
11, 48550, Control_c, 10, 7, 85
11, 48552, Control_c, 10, 7, 84
11, 48554, Control_c, 10, 7, 83
11, 48556, Control_c, 10, 7, 82
11, 48558, Control_c, 10, 7, 81
11, 48562, Control_c, 10, 7, 80
11, 48564, Control_c, 10, 7, 79
11, 48566, Control_c, 10, 7, 78
11, 48568, Control_c, 10, 7, 77
11, 48570, Control_c, 10, 7, 76
11, 48572, Control_c, 10, 7, 75
11, 48574, Control_c, 10, 7, 74
11, 48576, Control_c, 10, 7, 73
11, 48578, Control_c, 10, 7, 72
11, 48580, Control_c, 10, 7, 71
11, 48582, Control_c, 10, 7, 70
11, 48584, Control_c, 10, 7, 69
11, 48586, Control_c, 10, 7, 68
11, 48588, Control_c, 10, 7, 67
11, 48590, Control_c, 10, 7, 66
11, 48592, Control_c, 10, 7, 65
11, 48594, Control_c, 10, 7, 64
11, 48596, Control_c, 10, 7, 63
11, 48960, Note_on_c, 10, 34, 0
11, 48960, Note_on_c, 10, 34, 81
11, 49440, Note_on_c, 10, 34, 0
11, 49440, Note_on_c, 10, 34, 86
11, 49440, Control_c, 10, 7, 63
11, 49454, Control_c, 10, 7, 64
11, 49468, Control_c, 10, 7, 65
11, 49480, Control_c, 10, 7, 66
11, 49494, Control_c, 10, 7, 67
11, 49508, Control_c, 10, 7, 68
11, 49520, Control_c, 10, 7, 69
11, 49534, Control_c, 10, 7, 70
11, 49548, Control_c, 10, 7, 71
11, 49560, Control_c, 10, 7, 72
11, 49574, Control_c, 10, 7, 73
11, 49588, Control_c, 10, 7, 74
11, 49600, Control_c, 10, 7, 75
11, 49614, Control_c, 10, 7, 76
11, 49628, Control_c, 10, 7, 77
11, 49640, Control_c, 10, 7, 78
11, 49654, Control_c, 10, 7, 79
11, 49668, Control_c, 10, 7, 80
11, 49680, Control_c, 10, 7, 81
11, 49694, Control_c, 10, 7, 82
11, 49708, Control_c, 10, 7, 83
11, 49720, Control_c, 10, 7, 84
11, 49734, Control_c, 10, 7, 85
11, 49748, Control_c, 10, 7, 86
11, 49760, Control_c, 10, 7, 87
11, 49774, Control_c, 10, 7, 88
11, 49788, Control_c, 10, 7, 89
11, 49800, Control_c, 10, 7, 90
11, 49814, Control_c, 10, 7, 91
11, 49828, Control_c, 10, 7, 92
11, 49840, Control_c, 10, 7, 93
11, 49854, Control_c, 10, 7, 94
11, 49868, Control_c, 10, 7, 95
11, 49880, Control_c, 10, 7, 96
11, 49894, Control_c, 10, 7, 97
11, 49908, Control_c, 10, 7, 98
11, 49920, Note_on_c, 10, 34, 0
11, 49920, Note_on_c, 10, 34, 89
11, 49920, Control_c, 10, 7, 99
11, 50400, Note_on_c, 10, 34, 0
11, 50400, Note_on_c, 10, 34, 95
11, 50520, Note_on_c, 10, 34, 0
11, 50880, Note_on_c, 10, 46, 72
11, 51000, Note_on_c, 10, 46, 0
11, 51120, Note_on_c, 10, 44, 60
11, 51240, Note_on_c, 10, 44, 0
11, 51360, Note_on_c, 10, 44, 68
11, 51480, Note_on_c, 10, 44, 0
11, 51840, Note_on_c, 10, 44, 61
11, 51960, Note_on_c, 10, 44, 0
11, 52080, Note_on_c, 10, 44, 52
11, 52200, Note_on_c, 10, 44, 0
11, 52320, Note_on_c, 10, 45, 64
11, 52440, Note_on_c, 10, 45, 0
11, 52800, Note_on_c, 10, 45, 81
11, 52920, Note_on_c, 10, 45, 0
11, 53040, Note_on_c, 10, 43, 69
11, 53160, Note_on_c, 10, 43, 0
11, 53280, Note_on_c, 10, 42, 72
11, 53400, Note_on_c, 10, 42, 0
11, 53760, Note_on_c, 10, 42, 68
11, 53880, Note_on_c, 10, 42, 0
11, 54000, Note_on_c, 10, 42, 67
11, 54120, Note_on_c, 10, 42, 0
11, 54240, Note_on_c, 10, 43, 69
11, 54360, Note_on_c, 10, 43, 0
11, 54720, Note_on_c, 10, 40, 59
11, 54840, Note_on_c, 10, 40, 0
11, 55200, Note_on_c, 10, 37, 65
11, 55320, Note_on_c, 10, 37, 0
11, 55680, Note_on_c, 10, 36, 68
11, 55800, Note_on_c, 10, 36, 0
11, 55920, Note_on_c, 10, 37, 67
11, 56040, Note_on_c, 10, 37, 0
11, 56160, Note_on_c, 10, 36, 71
11, 56280, Note_on_c, 10, 36, 0
11, 56400, Note_on_c, 10, 37, 68
11, 56520, Note_on_c, 10, 37, 0
11, 56640, Note_on_c, 10, 36, 64
11, 57120, Note_on_c, 10, 36, 0
11, 57120, Note_on_c, 10, 36, 71
11, 57600, Note_on_c, 10, 36, 0
11, 57600, Note_on_c, 10, 36, 65
11, 58080, Note_on_c, 10, 36, 0
11, 58080, Note_on_c, 10, 36, 62
11, 58140, Note_on_c, 10, 36, 0
11, 58260, Note_on_c, 10, 48, 53
11, 58320, Note_on_c, 10, 48, 0
11, 58320, Note_on_c, 10, 43, 58
11, 58380, Note_on_c, 10, 43, 0
11, 58500, Note_on_c, 10, 43, 71
11, 58560, Note_on_c, 10, 43, 0
11, 58560, Note_on_c, 10, 36, 42
11, 58620, Note_on_c, 10, 36, 0
11, 60960, Note_on_c, 10, 41, 94
11, 61020, Control_c, 10, 7, 98
11, 61022, Control_c, 10, 7, 97
11, 61024, Control_c, 10, 7, 96
11, 61026, Control_c, 10, 7, 95
11, 61028, Control_c, 10, 7, 94
11, 61030, Control_c, 10, 7, 93
11, 61032, Control_c, 10, 7, 92
11, 61034, Control_c, 10, 7, 91
11, 61036, Control_c, 10, 7, 90
11, 61038, Control_c, 10, 7, 89
11, 61040, Control_c, 10, 7, 88
11, 61042, Control_c, 10, 7, 87
11, 61044, Control_c, 10, 7, 86
11, 61046, Control_c, 10, 7, 85
11, 61048, Control_c, 10, 7, 84
11, 61050, Control_c, 10, 7, 82
11, 61052, Control_c, 10, 7, 81
11, 61054, Control_c, 10, 7, 80
11, 61056, Control_c, 10, 7, 79
11, 61058, Control_c, 10, 7, 78
11, 61060, Control_c, 10, 7, 77
11, 61062, Control_c, 10, 7, 76
11, 61064, Control_c, 10, 7, 75
11, 61066, Control_c, 10, 7, 74
11, 61068, Control_c, 10, 7, 73
11, 61070, Control_c, 10, 7, 72
11, 61072, Control_c, 10, 7, 71
11, 61074, Control_c, 10, 7, 70
11, 61076, Control_c, 10, 7, 69
11, 61078, Control_c, 10, 7, 68
11, 61080, Control_c, 10, 7, 66
11, 61200, Note_on_c, 10, 41, 0
11, 61200, Note_on_c, 10, 36, 104
11, 61440, Note_on_c, 10, 36, 0
11, 61440, Note_on_c, 10, 38, 99
11, 61560, Note_on_c, 10, 38, 0
11, 61920, Note_on_c, 10, 34, 101
11, 61980, Note_on_c, 10, 34, 0
11, 62040, Note_on_c, 10, 46, 81
11, 62100, Note_on_c, 10, 46, 0
11, 62160, Note_on_c, 10, 46, 80
11, 62220, Note_on_c, 10, 46, 0
11, 62280, Note_on_c, 10, 45, 104
11, 62340, Note_on_c, 10, 45, 0
11, 62400, Control_c, 10, 7, 99
11, 62400, Note_on_c, 10, 43, 99
11, 62460, Note_on_c, 10, 43, 0
11, 62520, Note_on_c, 10, 38, 104
11, 62580, Note_on_c, 10, 38, 0
11, 62640, Note_on_c, 10, 43, 99
11, 62700, Note_on_c, 10, 43, 0
11, 62880, Note_on_c, 10, 43, 99
11, 62940, Control_c, 10, 7, 99
11, 62942, Control_c, 10, 7, 98
11, 62944, Control_c, 10, 7, 97
11, 62946, Control_c, 10, 7, 96
11, 62948, Control_c, 10, 7, 95
11, 62950, Control_c, 10, 7, 94
11, 62952, Control_c, 10, 7, 93
11, 62954, Control_c, 10, 7, 92
11, 62956, Control_c, 10, 7, 90
11, 62958, Control_c, 10, 7, 89
11, 62960, Control_c, 10, 7, 88
11, 62962, Control_c, 10, 7, 87
11, 62964, Control_c, 10, 7, 86
11, 62966, Control_c, 10, 7, 85
11, 62968, Control_c, 10, 7, 84
11, 62970, Control_c, 10, 7, 82
11, 62972, Control_c, 10, 7, 81
11, 62974, Control_c, 10, 7, 80
11, 62976, Control_c, 10, 7, 79
11, 62978, Control_c, 10, 7, 78
11, 62980, Control_c, 10, 7, 77
11, 62982, Control_c, 10, 7, 76
11, 62984, Control_c, 10, 7, 74
11, 62986, Control_c, 10, 7, 73
11, 62988, Control_c, 10, 7, 72
11, 62990, Control_c, 10, 7, 71
11, 62992, Control_c, 10, 7, 70
11, 62994, Control_c, 10, 7, 69
11, 62996, Control_c, 10, 7, 68
11, 62998, Control_c, 10, 7, 66
11, 63120, Note_on_c, 10, 43, 0
11, 63120, Note_on_c, 10, 46, 90
11, 63360, Note_on_c, 10, 46, 0
11, 63360, Note_on_c, 10, 45, 99
11, 63480, Note_on_c, 10, 45, 0
11, 63720, Note_on_c, 10, 41, 93
11, 63780, Note_on_c, 10, 41, 0
11, 63840, Note_on_c, 10, 40, 99
11, 63900, Note_on_c, 10, 40, 0
11, 63960, Note_on_c, 10, 36, 98
11, 64020, Note_on_c, 10, 36, 0
11, 64080, Note_on_c, 10, 41, 89
11, 64140, Note_on_c, 10, 41, 0
11, 64200, Note_on_c, 10, 45, 104
11, 64260, Note_on_c, 10, 45, 0
11, 64320, Control_c, 10, 7, 66
11, 64320, Note_on_c, 10, 48, 85
11, 64328, Control_c, 10, 7, 67
11, 64336, Control_c, 10, 7, 68
11, 64344, Control_c, 10, 7, 69
11, 64350, Control_c, 10, 7, 70
11, 64358, Control_c, 10, 7, 71
11, 64366, Control_c, 10, 7, 72
11, 64374, Control_c, 10, 7, 73
11, 64380, Control_c, 10, 7, 74
11, 64388, Control_c, 10, 7, 75
11, 64396, Control_c, 10, 7, 76
11, 64404, Control_c, 10, 7, 77
11, 64410, Control_c, 10, 7, 78
11, 64418, Control_c, 10, 7, 79
11, 64426, Control_c, 10, 7, 80
11, 64434, Control_c, 10, 7, 81
11, 64440, Note_on_c, 10, 48, 0
11, 64440, Control_c, 10, 7, 82
11, 64440, Note_on_c, 10, 47, 94
11, 64448, Control_c, 10, 7, 83
11, 64456, Control_c, 10, 7, 84
11, 64464, Control_c, 10, 7, 85
11, 64470, Control_c, 10, 7, 86
11, 64478, Control_c, 10, 7, 87
11, 64486, Control_c, 10, 7, 88
11, 64494, Control_c, 10, 7, 89
11, 64500, Control_c, 10, 7, 90
11, 64508, Control_c, 10, 7, 91
11, 64516, Control_c, 10, 7, 92
11, 64524, Control_c, 10, 7, 93
11, 64530, Control_c, 10, 7, 94
11, 64538, Control_c, 10, 7, 95
11, 64546, Control_c, 10, 7, 96
11, 64554, Control_c, 10, 7, 97
11, 64560, Note_on_c, 10, 47, 0
11, 64560, Control_c, 10, 7, 98
11, 64560, Note_on_c, 10, 48, 86
11, 64564, Control_c, 10, 7, 97
11, 64568, Control_c, 10, 7, 96
11, 64572, Control_c, 10, 7, 95
11, 64576, Control_c, 10, 7, 94
11, 64580, Control_c, 10, 7, 93
11, 64584, Control_c, 10, 7, 92
11, 64588, Control_c, 10, 7, 91
11, 64590, Control_c, 10, 7, 90
11, 64594, Control_c, 10, 7, 89
11, 64598, Control_c, 10, 7, 88
11, 64602, Control_c, 10, 7, 87
11, 64606, Control_c, 10, 7, 86
11, 64610, Control_c, 10, 7, 85
11, 64614, Control_c, 10, 7, 84
11, 64618, Control_c, 10, 7, 83
11, 64620, Control_c, 10, 7, 82
11, 64624, Control_c, 10, 7, 81
11, 64628, Control_c, 10, 7, 80
11, 64632, Control_c, 10, 7, 79
11, 64636, Control_c, 10, 7, 78
11, 64640, Control_c, 10, 7, 77
11, 64644, Control_c, 10, 7, 76
11, 64648, Control_c, 10, 7, 75
11, 64650, Control_c, 10, 7, 74
11, 64654, Control_c, 10, 7, 73
11, 64658, Control_c, 10, 7, 72
11, 64662, Control_c, 10, 7, 71
11, 64666, Control_c, 10, 7, 70
11, 64670, Control_c, 10, 7, 69
11, 64674, Control_c, 10, 7, 68
11, 64678, Control_c, 10, 7, 67
11, 64680, Note_on_c, 10, 48, 0
11, 64680, Control_c, 10, 7, 66
11, 64738, Control_c, 10, 7, 99
11, 64800, Note_on_c, 10, 53, 43
11, 64920, Note_on_c, 10, 53, 0
11, 65040, Note_on_c, 10, 48, 55
11, 65160, Note_on_c, 10, 48, 0
11, 65280, Note_on_c, 10, 50, 51
11, 65400, Note_on_c, 10, 50, 0
11, 66720, Note_on_c, 10, 43, 53
11, 66840, Note_on_c, 10, 43, 0
11, 66960, Note_on_c, 10, 46, 58
11, 67080, Note_on_c, 10, 46, 0
11, 67200, Note_on_c, 10, 45, 64
11, 67320, Note_on_c, 10, 45, 0
11, 67800, Note_on_c, 10, 46, 71
11, 67920, Note_on_c, 10, 46, 0
11, 67920, Note_on_c, 10, 48, 65
11, 68040, Note_on_c, 10, 48, 0
11, 68040, Note_on_c, 10, 36, 68
11, 68160, Note_on_c, 10, 36, 0
11, 68160, Note_on_c, 10, 41, 64
11, 68280, Note_on_c, 10, 41, 0
11, 69480, Note_on_c, 10, 46, 60
11, 69600, Note_on_c, 10, 46, 0
11, 69600, Note_on_c, 10, 45, 69
11, 69660, Note_on_c, 10, 45, 0
11, 69720, Note_on_c, 10, 41, 64
11, 69780, Note_on_c, 10, 41, 0
11, 69960, Note_on_c, 10, 46, 62
11, 70080, Note_on_c, 10, 46, 0
11, 70080, Note_on_c, 10, 45, 67
11, 70140, Note_on_c, 10, 45, 0
11, 70200, Note_on_c, 10, 41, 50
11, 70260, Note_on_c, 10, 41, 0
11, 71040, Note_on_c, 10, 37, 43
11, 71520, Note_on_c, 10, 37, 0
11, 71520, Note_on_c, 10, 37, 44
11, 72000, Note_on_c, 10, 37, 0
11, 72000, Note_on_c, 10, 37, 46
11, 72480, Note_on_c, 10, 37, 0
11, 72480, Note_on_c, 10, 37, 45
11, 72960, Note_on_c, 10, 37, 0
11, 72960, Note_on_c, 10, 37, 46
11, 73080, Note_on_c, 10, 37, 0
11, 73200, Note_on_c, 10, 35, 64
11, 73320, Note_on_c, 10, 35, 0
11, 73440, Note_on_c, 10, 36, 63
11, 73560, Note_on_c, 10, 36, 0
11, 73680, Note_on_c, 10, 36, 50
11, 73800, Note_on_c, 10, 36, 0
11, 73920, Note_on_c, 10, 37, 53
11, 74040, Note_on_c, 10, 37, 0
11, 74160, Note_on_c, 10, 38, 65
11, 74280, Note_on_c, 10, 38, 0
11, 74400, Note_on_c, 10, 36, 76
11, 74520, Note_on_c, 10, 36, 0
11, 74640, Note_on_c, 10, 36, 68
11, 74760, Note_on_c, 10, 36, 0
11, 74880, Note_on_c, 10, 41, 56
11, 74880, Note_on_c, 10, 41, 52
11, 74940, Note_on_c, 10, 41, 0
11, 74940, Note_on_c, 10, 41, 61
11, 75000, Note_on_c, 10, 41, 0
11, 75000, Note_on_c, 10, 41, 0
11, 75000, Note_on_c, 10, 41, 62
11, 75060, Note_on_c, 10, 41, 0
11, 75060, Note_on_c, 10, 41, 53
11, 75120, Note_on_c, 10, 41, 0
11, 75120, Note_on_c, 10, 41, 57
11, 75180, Note_on_c, 10, 41, 0
11, 75180, Note_on_c, 10, 41, 61
11, 75240, Note_on_c, 10, 41, 0
11, 75240, Note_on_c, 10, 41, 61
11, 75300, Note_on_c, 10, 41, 0
11, 75300, Note_on_c, 10, 41, 60
11, 75360, Note_on_c, 10, 41, 0
11, 75360, Note_on_c, 10, 41, 56
11, 75360, Note_on_c, 10, 41, 52
11, 75420, Note_on_c, 10, 41, 0
11, 75420, Note_on_c, 10, 41, 61
11, 75480, Note_on_c, 10, 41, 0
11, 75480, Note_on_c, 10, 41, 0
11, 75480, Note_on_c, 10, 41, 62
11, 75540, Note_on_c, 10, 41, 0
11, 75540, Note_on_c, 10, 41, 53
11, 75600, Note_on_c, 10, 41, 0
11, 75600, Note_on_c, 10, 41, 57
11, 75660, Note_on_c, 10, 41, 0
11, 75660, Note_on_c, 10, 41, 61
11, 75720, Note_on_c, 10, 41, 0
11, 75720, Note_on_c, 10, 41, 61
11, 75780, Note_on_c, 10, 41, 0
11, 75780, Note_on_c, 10, 41, 60
11, 75840, Note_on_c, 10, 41, 0
11, 75840, Note_on_c, 10, 41, 56
11, 75840, Note_on_c, 10, 41, 52
11, 75900, Note_on_c, 10, 41, 0
11, 75900, Note_on_c, 10, 41, 61
11, 75960, Note_on_c, 10, 41, 0
11, 75960, Note_on_c, 10, 41, 0
11, 75960, Note_on_c, 10, 41, 62
11, 76020, Note_on_c, 10, 41, 0
11, 76020, Note_on_c, 10, 41, 53
11, 76080, Note_on_c, 10, 41, 0
11, 76080, Note_on_c, 10, 41, 57
11, 76140, Note_on_c, 10, 41, 0
11, 76140, Note_on_c, 10, 41, 61
11, 76200, Note_on_c, 10, 41, 0
11, 76200, Note_on_c, 10, 41, 61
11, 76260, Note_on_c, 10, 41, 0
11, 76260, Note_on_c, 10, 41, 60
11, 76320, Note_on_c, 10, 41, 0
11, 76320, Note_on_c, 10, 41, 56
11, 76320, Note_on_c, 10, 41, 52
11, 76380, Note_on_c, 10, 41, 0
11, 76380, Note_on_c, 10, 41, 61
11, 76440, Note_on_c, 10, 41, 0
11, 76440, Note_on_c, 10, 41, 0
11, 76440, Note_on_c, 10, 41, 62
11, 76500, Note_on_c, 10, 41, 0
11, 76500, Note_on_c, 10, 41, 53
11, 76560, Note_on_c, 10, 41, 0
11, 76560, Note_on_c, 10, 41, 57
11, 76620, Note_on_c, 10, 41, 0
11, 76620, Note_on_c, 10, 41, 61
11, 76680, Note_on_c, 10, 41, 0
11, 76680, Note_on_c, 10, 41, 61
11, 76740, Note_on_c, 10, 41, 0
11, 76740, Note_on_c, 10, 41, 60
11, 76800, Note_on_c, 10, 41, 0
11, 76800, Note_on_c, 10, 41, 65
11, 76920, Note_on_c, 10, 41, 0
11, 79680, Note_on_c, 10, 36, 69
11, 80160, Note_on_c, 10, 36, 0
11, 80160, Note_on_c, 10, 41, 67
11, 80280, Note_on_c, 10, 41, 0
11, 80400, Note_on_c, 10, 45, 72
11, 80520, Note_on_c, 10, 45, 0
11, 80640, Note_on_c, 10, 38, 68
11, 80760, Note_on_c, 10, 38, 0
11, 83040, Note_on_c, 10, 35, 71
11, 83160, Note_on_c, 10, 35, 0
11, 83280, Note_on_c, 10, 36, 65
11, 83400, Note_on_c, 10, 36, 0
11, 83520, Note_on_c, 10, 37, 94
11, 83880, Note_on_c, 10, 37, 0
11, 83880, Note_on_c, 10, 36, 85
11, 84000, Note_on_c, 10, 36, 0
11, 84000, Note_on_c, 10, 35, 76
11, 84120, Note_on_c, 10, 35, 0
11, 84240, Note_on_c, 10, 36, 73
11, 84360, Note_on_c, 10, 36, 0
11, 84480, Note_on_c, 10, 37, 69
11, 84600, Note_on_c, 10, 37, 0
11, 84960, Note_on_c, 10, 38, 64
11, 85080, Note_on_c, 10, 38, 0
11, 85680, Note_on_c, 10, 38, 94
11, 85920, Note_on_c, 10, 38, 0
11, 85920, Note_on_c, 10, 36, 101
11, 85980, Note_on_c, 10, 36, 0
11, 86640, Note_on_c, 10, 37, 93
11, 86880, Note_on_c, 10, 37, 0
11, 86880, Note_on_c, 10, 36, 104
11, 86940, Note_on_c, 10, 36, 0
11, 87600, Note_on_c, 10, 38, 99
11, 87840, Note_on_c, 10, 38, 0
11, 87840, Note_on_c, 10, 36, 101
11, 87900, Note_on_c, 10, 36, 0
11, 92640, Note_on_c, 10, 36, 85
11, 92760, Note_on_c, 10, 36, 0
11, 94080, Note_on_c, 10, 36, 81
11, 94140, Note_on_c, 10, 36, 0
11, 94140, Note_on_c, 10, 48, 68
11, 94200, Note_on_c, 10, 48, 0
11, 94200, Note_on_c, 10, 48, 69
11, 94260, Note_on_c, 10, 48, 0
11, 94260, Note_on_c, 10, 48, 62
11, 94320, Note_on_c, 10, 48, 0
11, 94320, Note_on_c, 10, 48, 73
11, 94380, Note_on_c, 10, 48, 0
11, 94380, Note_on_c, 10, 48, 62
11, 94440, Note_on_c, 10, 48, 0
11, 94440, Note_on_c, 10, 48, 74
11, 94500, Note_on_c, 10, 48, 0
11, 94500, Note_on_c, 10, 48, 72
11, 94560, Note_on_c, 10, 48, 0
11, 94560, Note_on_c, 10, 41, 85
11, 94740, Note_on_c, 10, 41, 0
11, 94770, Note_on_c, 10, 29, 84
11, 94800, Note_on_c, 10, 29, 0
11, 94800, Note_on_c, 10, 36, 93
11, 94845, Note_on_c, 10, 36, 0
11, 94890, Note_on_c, 10, 36, 95
11, 94905, Note_on_c, 10, 36, 0
11, 94920, Note_on_c, 10, 33, 94
11, 94965, Note_on_c, 10, 33, 0
11, 95010, Note_on_c, 10, 33, 94
11, 95025, Note_on_c, 10, 33, 0
11, 95040, Note_on_c, 10, 29, 98
11, 95100, Note_on_c, 10, 29, 0
11, 95160, Note_on_c, 10, 33, 84
11, 95220, Note_on_c, 10, 33, 0
11, 95280, Note_on_c, 10, 36, 94
11, 95340, Note_on_c, 10, 36, 0
11, 95400, Note_on_c, 10, 41, 85
11, 95460, Note_on_c, 10, 41, 0
11, 95520, Note_on_c, 10, 43, 99
11, 95700, Note_on_c, 10, 43, 0
11, 95730, Note_on_c, 10, 31, 90
11, 95760, Note_on_c, 10, 31, 0
11, 95760, Note_on_c, 10, 36, 95
11, 95805, Note_on_c, 10, 36, 0
11, 95850, Note_on_c, 10, 36, 95
11, 95865, Note_on_c, 10, 36, 0
11, 95880, Note_on_c, 10, 34, 84
11, 95925, Note_on_c, 10, 34, 0
11, 95970, Note_on_c, 10, 34, 84
11, 95985, Note_on_c, 10, 34, 0
11, 96000, Note_on_c, 10, 31, 98
11, 96060, Note_on_c, 10, 31, 0
11, 96120, Note_on_c, 10, 34, 86
11, 96180, Note_on_c, 10, 34, 0
11, 96240, Note_on_c, 10, 40, 98
11, 96300, Note_on_c, 10, 40, 0
11, 96360, Note_on_c, 10, 43, 90
11, 96420, Note_on_c, 10, 43, 0
11, 96480, Note_on_c, 10, 45, 110
11, 96660, Note_on_c, 10, 45, 0
11, 96690, Note_on_c, 10, 33, 93
11, 96720, Note_on_c, 10, 33, 0
11, 96720, Note_on_c, 10, 41, 93
11, 96765, Note_on_c, 10, 41, 0
11, 96810, Note_on_c, 10, 41, 89
11, 96825, Note_on_c, 10, 41, 0
11, 96840, Note_on_c, 10, 36, 99
11, 96885, Note_on_c, 10, 36, 0
11, 96930, Note_on_c, 10, 36, 94
11, 96945, Note_on_c, 10, 36, 0
11, 96960, Note_on_c, 10, 33, 99
11, 97080, Note_on_c, 10, 33, 0
11, 97440, Note_on_c, 10, 33, 94
11, 97500, Note_on_c, 10, 33, 0
11, 97560, Note_on_c, 10, 45, 105
11, 97800, Note_on_c, 10, 45, 0
11, 97800, Note_on_c, 10, 46, 89
11, 97920, Note_on_c, 10, 46, 0
11, 97920, Note_on_c, 10, 48, 84
11, 97980, Note_on_c, 10, 48, 0
11, 98040, Note_on_c, 10, 49, 93
11, 98280, Note_on_c, 10, 49, 0
11, 98280, Note_on_c, 10, 50, 89
11, 98400, Note_on_c, 10, 50, 0
11, 98400, Note_on_c, 10, 46, 93
11, 98460, Note_on_c, 10, 46, 0
11, 98460, Note_on_c, 10, 45, 105
11, 98520, Note_on_c, 10, 45, 0
11, 98520, Note_on_c, 10, 46, 89
11, 98550, Note_on_c, 10, 46, 0
11, 98580, Note_on_c, 10, 46, 89
11, 98610, Note_on_c, 10, 46, 0
11, 98640, Note_on_c, 10, 47, 98
11, 98700, Note_on_c, 10, 47, 0
11, 98700, Note_on_c, 10, 46, 94
11, 98760, Note_on_c, 10, 46, 0
11, 98760, Note_on_c, 10, 47, 98
11, 98790, Note_on_c, 10, 47, 0
11, 98820, Note_on_c, 10, 47, 99
11, 98850, Note_on_c, 10, 47, 0
11, 98880, Note_on_c, 10, 48, 99
11, 98940, Note_on_c, 10, 48, 0
11, 98940, Note_on_c, 10, 47, 104
11, 99000, Note_on_c, 10, 47, 0
11, 99000, Note_on_c, 10, 48, 99
11, 99030, Note_on_c, 10, 48, 0
11, 99060, Note_on_c, 10, 48, 94
11, 99090, Note_on_c, 10, 48, 0
11, 99120, Note_on_c, 10, 36, 98
11, 99180, Note_on_c, 10, 36, 0
11, 99180, Note_on_c, 10, 35, 101
11, 99240, Note_on_c, 10, 35, 0
11, 99240, Note_on_c, 10, 36, 99
11, 99270, Note_on_c, 10, 36, 0
11, 99300, Note_on_c, 10, 36, 95
11, 99330, Note_on_c, 10, 36, 0
11, 99360, Note_on_c, 10, 41, 94
11, 99480, Note_on_c, 10, 41, 0
11, 99840, Note_on_c, 10, 36, 71
11, 100320, Note_on_c, 10, 36, 0
11, 100320, Note_on_c, 10, 41, 61
11, 100440, Note_on_c, 10, 41, 0
11, 100800, Note_on_c, 10, 36, 80
11, 100920, Note_on_c, 10, 36, 0
11, 101280, Note_on_c, 10, 41, 68
11, 101400, Note_on_c, 10, 41, 0
11, 101520, Note_on_c, 10, 41, 98
11, 101640, Note_on_c, 10, 41, 0
11, 101760, Note_on_c, 10, 29, 98
11, 101880, Note_on_c, 10, 29, 0
11, 104160, Note_on_c, 10, 34, 54
11, 104640, Note_on_c, 10, 34, 0
11, 104640, Note_on_c, 10, 33, 54
11, 105120, Note_on_c, 10, 33, 0
11, 105120, Note_on_c, 10, 36, 52
11, 105600, Note_on_c, 10, 36, 0
11, 105600, Note_on_c, 10, 34, 55
11, 106080, Note_on_c, 10, 34, 0
11, 106080, Note_on_c, 10, 39, 42
11, 106200, Note_on_c, 10, 39, 0
11, 106320, Note_on_c, 10, 39, 44
11, 106440, Note_on_c, 10, 39, 0
11, 106560, Note_on_c, 10, 38, 51
11, 107040, Note_on_c, 10, 38, 0
11, 107040, Note_on_c, 10, 38, 45
11, 107520, Note_on_c, 10, 38, 0
11, 107520, Note_on_c, 10, 38, 46
11, 108000, Note_on_c, 10, 38, 0
11, 108000, Note_on_c, 10, 38, 50
11, 108480, Note_on_c, 10, 38, 0
11, 108480, Note_on_c, 10, 38, 52
11, 108600, Note_on_c, 10, 38, 0
11, 108960, Note_on_c, 10, 38, 105
11, 109080, Note_on_c, 10, 38, 0
11, 109200, Note_on_c, 10, 38, 99
11, 109320, Note_on_c, 10, 38, 0
11, 109440, Note_on_c, 10, 38, 101
11, 109560, Note_on_c, 10, 38, 0
11, 109920, Note_on_c, 10, 39, 39
11, 110040, Note_on_c, 10, 39, 0
11, 110160, Note_on_c, 10, 39, 49
11, 110280, Note_on_c, 10, 39, 0
11, 110400, Note_on_c, 10, 39, 45
11, 110520, Note_on_c, 10, 39, 0
11, 110880, Note_on_c, 10, 39, 90
11, 110940, Control_c, 10, 7, 99
11, 110942, Control_c, 10, 7, 98
11, 110944, Control_c, 10, 7, 97
11, 110946, Control_c, 10, 7, 96
11, 110948, Control_c, 10, 7, 95
11, 110950, Control_c, 10, 7, 94
11, 110952, Control_c, 10, 7, 93
11, 110954, Control_c, 10, 7, 92
11, 110956, Control_c, 10, 7, 91
11, 110958, Control_c, 10, 7, 90
11, 110960, Control_c, 10, 7, 89
11, 110962, Control_c, 10, 7, 88
11, 110964, Control_c, 10, 7, 87
11, 110966, Control_c, 10, 7, 86
11, 110968, Control_c, 10, 7, 85
11, 110970, Control_c, 10, 7, 84
11, 110972, Control_c, 10, 7, 83
11, 110974, Control_c, 10, 7, 82
11, 110976, Control_c, 10, 7, 81
11, 110978, Control_c, 10, 7, 80
11, 110980, Control_c, 10, 7, 79
11, 110982, Control_c, 10, 7, 78
11, 110984, Control_c, 10, 7, 77
11, 110986, Control_c, 10, 7, 76
11, 110988, Control_c, 10, 7, 75
11, 110990, Control_c, 10, 7, 74
11, 110992, Control_c, 10, 7, 73
11, 110994, Control_c, 10, 7, 72
11, 110996, Control_c, 10, 7, 71
11, 110998, Control_c, 10, 7, 70
11, 111000, Control_c, 10, 7, 68
11, 111360, Note_on_c, 10, 39, 0
11, 111360, Note_on_c, 10, 31, 80
11, 111840, Note_on_c, 10, 31, 0
11, 111840, Note_on_c, 10, 32, 80
11, 111840, Control_c, 10, 7, 99
11, 111900, Control_c, 10, 7, 98
11, 111902, Control_c, 10, 7, 97
11, 111904, Control_c, 10, 7, 96
11, 111906, Control_c, 10, 7, 95
11, 111908, Control_c, 10, 7, 94
11, 111910, Control_c, 10, 7, 93
11, 111912, Control_c, 10, 7, 92
11, 111914, Control_c, 10, 7, 91
11, 111916, Control_c, 10, 7, 90
11, 111918, Control_c, 10, 7, 89
11, 111920, Control_c, 10, 7, 88
11, 111922, Control_c, 10, 7, 87
11, 111924, Control_c, 10, 7, 86
11, 111926, Control_c, 10, 7, 85
11, 111928, Control_c, 10, 7, 84
11, 111930, Control_c, 10, 7, 83
11, 111932, Control_c, 10, 7, 82
11, 111934, Control_c, 10, 7, 81
11, 111936, Control_c, 10, 7, 80
11, 111938, Control_c, 10, 7, 79
11, 111940, Control_c, 10, 7, 78
11, 111942, Control_c, 10, 7, 77
11, 111944, Control_c, 10, 7, 76
11, 111946, Control_c, 10, 7, 75
11, 111948, Control_c, 10, 7, 74
11, 111950, Control_c, 10, 7, 73
11, 111952, Control_c, 10, 7, 72
11, 111954, Control_c, 10, 7, 71
11, 111956, Control_c, 10, 7, 70
11, 111958, Control_c, 10, 7, 69
11, 111960, Control_c, 10, 7, 68
11, 112320, Note_on_c, 10, 32, 0
11, 112320, Note_on_c, 10, 34, 89
11, 112800, Note_on_c, 10, 34, 0
11, 112800, Note_on_c, 10, 39, 84
11, 112920, Note_on_c, 10, 39, 0
11, 113040, Control_c, 10, 7, 99
11, 114720, Note_on_c, 10, 47, 56
11, 115200, Note_on_c, 10, 47, 0
11, 115200, Note_on_c, 10, 48, 64
11, 115440, Note_on_c, 10, 48, 0
11, 115440, Note_on_c, 10, 46, 53
11, 115680, Note_on_c, 10, 46, 0
11, 115680, Note_on_c, 10, 45, 72
11, 116160, Note_on_c, 10, 45, 0
11, 116160, Note_on_c, 10, 44, 68
11, 116640, Note_on_c, 10, 44, 0
11, 116640, Note_on_c, 10, 43, 71
11, 116760, Note_on_c, 10, 43, 0
11, 116880, Note_on_c, 10, 44, 60
11, 117000, Note_on_c, 10, 44, 0
11, 117120, Note_on_c, 10, 46, 64
11, 117240, Note_on_c, 10, 46, 0
11, 117360, Note_on_c, 10, 34, 62
11, 117480, Note_on_c, 10, 34, 0
11, 117600, Note_on_c, 10, 39, 58
11, 117720, Note_on_c, 10, 39, 0
11, 118320, Note_on_c, 10, 39, 65
11, 118380, Note_on_c, 10, 39, 0
11, 118440, Note_on_c, 10, 39, 62
11, 118500, Note_on_c, 10, 39, 0
11, 118560, Note_on_c, 10, 39, 70
11, 118620, Note_on_c, 10, 39, 0
11, 119280, Note_on_c, 10, 39, 61
11, 119340, Note_on_c, 10, 39, 0
11, 119400, Note_on_c, 10, 39, 58
11, 119460, Note_on_c, 10, 39, 0
11, 119520, Note_on_c, 10, 38, 52
11, 119580, Note_on_c, 10, 38, 0
11, 120240, Note_on_c, 10, 35, 62
11, 120300, Note_on_c, 10, 35, 0
11, 120360, Note_on_c, 10, 35, 44
11, 120420, Note_on_c, 10, 35, 0
11, 120480, Note_on_c, 10, 31, 59
11, 120540, Note_on_c, 10, 31, 0
11, 121200, Note_on_c, 10, 43, 57
11, 121260, Note_on_c, 10, 43, 0
11, 121320, Note_on_c, 10, 43, 45
11, 121380, Note_on_c, 10, 43, 0
11, 121440, Note_on_c, 10, 36, 57
11, 121560, Note_on_c, 10, 36, 0
11, 121920, Note_on_c, 10, 39, 59
11, 122040, Note_on_c, 10, 39, 0
11, 122400, Note_on_c, 10, 38, 64
11, 122520, Note_on_c, 10, 38, 0
11, 122880, Note_on_c, 10, 41, 61
11, 123000, Note_on_c, 10, 41, 0
11, 123360, Note_on_c, 10, 40, 62
11, 123480, Note_on_c, 10, 40, 0
11, 123840, Note_on_c, 10, 43, 62
11, 123960, Note_on_c, 10, 43, 0
11, 124320, Note_on_c, 10, 40, 70
11, 124440, Note_on_c, 10, 40, 0
11, 124800, Note_on_c, 10, 43, 53
11, 124920, Note_on_c, 10, 43, 0
11, 126720, Note_on_c, 10, 40, 65
11, 126840, Note_on_c, 10, 40, 0
11, 126960, Note_on_c, 10, 41, 62
11, 127080, Note_on_c, 10, 41, 0
11, 127200, Note_on_c, 10, 42, 65
11, 127320, Note_on_c, 10, 42, 0
11, 127440, Note_on_c, 10, 41, 57
11, 127560, Note_on_c, 10, 41, 0
11, 127680, Note_on_c, 10, 40, 60
11, 127800, Note_on_c, 10, 40, 0
11, 127920, Note_on_c, 10, 41, 62
11, 128040, Note_on_c, 10, 41, 0
11, 128160, Note_on_c, 10, 42, 64
11, 128280, Note_on_c, 10, 42, 0
11, 128400, Note_on_c, 10, 42, 65
11, 128520, Note_on_c, 10, 42, 0
11, 128640, Note_on_c, 10, 41, 65
11, 128700, Note_on_c, 10, 41, 0
11, 128880, Note_on_c, 10, 33, 57
11, 128940, Note_on_c, 10, 33, 0
11, 129120, Note_on_c, 10, 34, 68
11, 129180, Note_on_c, 10, 34, 0
11, 129360, Note_on_c, 10, 37, 57
11, 129420, Note_on_c, 10, 37, 0
11, 129600, Note_on_c, 10, 41, 68
11, 129660, Note_on_c, 10, 41, 0
11, 129840, Note_on_c, 10, 33, 73
11, 129900, Note_on_c, 10, 33, 0
11, 130080, Note_on_c, 10, 34, 57
11, 130140, Note_on_c, 10, 34, 0
11, 130320, Note_on_c, 10, 37, 60
11, 130380, Note_on_c, 10, 37, 0
11, 130560, Note_on_c, 10, 41, 68
11, 130620, Note_on_c, 10, 41, 0
11, 130800, Note_on_c, 10, 33, 72
11, 130860, Note_on_c, 10, 33, 0
11, 131040, Note_on_c, 10, 34, 69
11, 131100, Note_on_c, 10, 34, 0
11, 131280, Note_on_c, 10, 37, 56
11, 131340, Note_on_c, 10, 37, 0
11, 131520, Note_on_c, 10, 41, 48
11, 131580, Note_on_c, 10, 41, 0
11, 131640, Note_on_c, 10, 41, 65
11, 131760, Note_on_c, 10, 41, 0
11, 131760, Note_on_c, 10, 46, 64
11, 131880, Note_on_c, 10, 46, 0
11, 132000, Note_on_c, 10, 41, 69
11, 132120, Note_on_c, 10, 41, 0
11, 132120, Note_on_c, 10, 41, 74
11, 132240, Note_on_c, 10, 41, 0
11, 132240, Note_on_c, 10, 46, 69
11, 132360, Note_on_c, 10, 46, 0
11, 132720, Note_on_c, 10, 41, 40
11, 132840, Note_on_c, 10, 41, 0
11, 132960, Note_on_c, 10, 41, 40
11, 133080, Note_on_c, 10, 41, 0
11, 133440, Note_on_c, 10, 41, 40
11, 133560, Note_on_c, 10, 41, 0
11, 133920, Note_on_c, 10, 41, 32
11, 134040, Note_on_c, 10, 41, 0
11, 134400, Note_on_c, 10, 41, 43
11, 134880, Note_on_c, 10, 41, 0
11, 134880, Note_on_c, 10, 42, 43
11, 135360, Note_on_c, 10, 42, 0
11, 135360, Note_on_c, 10, 41, 45
11, 135840, Note_on_c, 10, 41, 0
11, 135840, Note_on_c, 10, 41, 99
11, 135840, Control_c, 10, 7, 54
11, 135852, Control_c, 10, 7, 55
11, 135862, Control_c, 10, 7, 56
11, 135872, Control_c, 10, 7, 57
11, 135884, Control_c, 10, 7, 58
11, 135894, Control_c, 10, 7, 59
11, 135904, Control_c, 10, 7, 60
11, 135916, Control_c, 10, 7, 61
11, 135926, Control_c, 10, 7, 62
11, 135936, Control_c, 10, 7, 63
11, 135948, Control_c, 10, 7, 64
11, 135958, Control_c, 10, 7, 65
11, 135968, Control_c, 10, 7, 66
11, 135980, Control_c, 10, 7, 67
11, 135990, Control_c, 10, 7, 68
11, 136000, Control_c, 10, 7, 69
11, 136012, Control_c, 10, 7, 70
11, 136022, Control_c, 10, 7, 71
11, 136032, Control_c, 10, 7, 72
11, 136044, Control_c, 10, 7, 73
11, 136054, Control_c, 10, 7, 74
11, 136064, Control_c, 10, 7, 75
11, 136076, Control_c, 10, 7, 76
11, 136086, Control_c, 10, 7, 77
11, 136096, Control_c, 10, 7, 78
11, 136108, Control_c, 10, 7, 79
11, 136118, Control_c, 10, 7, 80
11, 136128, Control_c, 10, 7, 81
11, 136140, Control_c, 10, 7, 82
11, 136150, Control_c, 10, 7, 83
11, 136160, Control_c, 10, 7, 84
11, 136172, Control_c, 10, 7, 85
11, 136182, Control_c, 10, 7, 86
11, 136192, Control_c, 10, 7, 87
11, 136204, Control_c, 10, 7, 88
11, 136214, Control_c, 10, 7, 89
11, 136224, Control_c, 10, 7, 90
11, 136236, Control_c, 10, 7, 91
11, 136246, Control_c, 10, 7, 92
11, 136256, Control_c, 10, 7, 93
11, 136268, Control_c, 10, 7, 94
11, 136278, Control_c, 10, 7, 95
11, 136288, Control_c, 10, 7, 96
11, 136300, Control_c, 10, 7, 97
11, 136310, Control_c, 10, 7, 98
11, 136320, Note_on_c, 10, 41, 0
11, 136320, Note_on_c, 10, 46, 93
11, 136320, Control_c, 10, 7, 99
11, 136500, Note_on_c, 10, 46, 0
11, 136530, Note_on_c, 10, 34, 93
11, 136560, Note_on_c, 10, 34, 0
11, 136560, Note_on_c, 10, 41, 94
11, 136605, Note_on_c, 10, 41, 0
11, 136650, Note_on_c, 10, 41, 98
11, 136665, Note_on_c, 10, 41, 0
11, 136680, Note_on_c, 10, 38, 105
11, 136725, Note_on_c, 10, 38, 0
11, 136770, Note_on_c, 10, 38, 105
11, 136785, Note_on_c, 10, 38, 0
11, 136800, Note_on_c, 10, 34, 94
11, 136920, Note_on_c, 10, 34, 0
11, 137280, Note_on_c, 10, 48, 64
11, 137760, Note_on_c, 10, 48, 0
11, 137760, Note_on_c, 10, 48, 57
11, 137880, Note_on_c, 10, 48, 0
11, 138240, Note_on_c, 10, 41, 93
11, 138420, Note_on_c, 10, 41, 0
11, 138450, Note_on_c, 10, 41, 86
11, 138480, Note_on_c, 10, 41, 0
11, 138480, Note_on_c, 10, 48, 85
11, 138525, Note_on_c, 10, 48, 0
11, 138570, Note_on_c, 10, 48, 90
11, 138585, Note_on_c, 10, 48, 0
11, 138600, Note_on_c, 10, 45, 99
11, 138645, Note_on_c, 10, 45, 0
11, 138690, Note_on_c, 10, 45, 99
11, 138705, Note_on_c, 10, 45, 0
11, 138720, Note_on_c, 10, 41, 86
11, 138840, Note_on_c, 10, 41, 0
11, 139200, Note_on_c, 10, 38, 56
11, 139680, Note_on_c, 10, 38, 0
11, 139680, Note_on_c, 10, 38, 58
11, 139800, Note_on_c, 10, 38, 0
11, 140160, Note_on_c, 10, 46, 46
11, 140280, Note_on_c, 10, 46, 0
11, 140640, Note_on_c, 10, 39, 56
11, 140760, Note_on_c, 10, 39, 0
11, 141120, Note_on_c, 10, 41, 53
11, 141240, Note_on_c, 10, 41, 0
11, 141600, Note_on_c, 10, 43, 40
11, 141720, Note_on_c, 10, 43, 0
11, 142080, Note_on_c, 10, 38, 65
11, 142200, Note_on_c, 10, 38, 0
11, 142560, Note_on_c, 10, 39, 61
11, 142680, Note_on_c, 10, 39, 0
11, 143040, Note_on_c, 10, 41, 62
11, 143160, Note_on_c, 10, 41, 0
11, 143280, Note_on_c, 10, 41, 68
11, 143400, Note_on_c, 10, 41, 0
11, 143520, Note_on_c, 10, 46, 31
11, 143640, Note_on_c, 10, 46, 0
11, 144000, Note_on_c, 10, 50, 40
11, 144120, Note_on_c, 10, 50, 0
11, 144480, Note_on_c, 10, 48, 43
11, 144600, Note_on_c, 10, 48, 0
11, 144960, Note_on_c, 10, 41, 52
11, 145080, Note_on_c, 10, 41, 0
11, 145440, Note_on_c, 10, 46, 44
11, 145560, Note_on_c, 10, 46, 0
11, 145920, Note_on_c, 10, 50, 54
11, 146040, Note_on_c, 10, 50, 0
11, 146400, Note_on_c, 10, 43, 44
11, 146520, Note_on_c, 10, 43, 0
11, 146880, Note_on_c, 10, 36, 44
11, 147000, Note_on_c, 10, 36, 0
11, 147360, Note_on_c, 10, 41, 43
11, 147480, Note_on_c, 10, 41, 0
11, 147720, Note_on_c, 10, 36, 54
11, 147780, Note_on_c, 10, 36, 0
11, 147840, Note_on_c, 10, 41, 43
11, 147900, Note_on_c, 10, 41, 0
11, 148200, Note_on_c, 10, 48, 42
11, 148260, Note_on_c, 10, 48, 0
11, 148320, Note_on_c, 10, 53, 46
11, 148380, Note_on_c, 10, 53, 0
11, 148440, Note_on_c, 10, 48, 57
11, 148500, Note_on_c, 10, 48, 0
11, 148560, Note_on_c, 10, 53, 45
11, 148620, Note_on_c, 10, 53, 0
11, 148680, Note_on_c, 10, 48, 57
11, 148740, Note_on_c, 10, 48, 0
11, 148800, Note_on_c, 10, 53, 61
11, 148920, Note_on_c, 10, 53, 0
11, 149280, Note_on_c, 10, 46, 94
11, 149338, Control_c, 10, 7, 99
11, 149340, Control_c, 10, 7, 98
11, 149342, Control_c, 10, 7, 97
11, 149344, Control_c, 10, 7, 96
11, 149346, Control_c, 10, 7, 95
11, 149348, Control_c, 10, 7, 94
11, 149350, Control_c, 10, 7, 93
11, 149352, Control_c, 10, 7, 92
11, 149354, Control_c, 10, 7, 90
11, 149356, Control_c, 10, 7, 89
11, 149358, Control_c, 10, 7, 88
11, 149360, Control_c, 10, 7, 87
11, 149362, Control_c, 10, 7, 86
11, 149364, Control_c, 10, 7, 85
11, 149366, Control_c, 10, 7, 84
11, 149368, Control_c, 10, 7, 83
11, 149370, Control_c, 10, 7, 81
11, 149372, Control_c, 10, 7, 80
11, 149374, Control_c, 10, 7, 79
11, 149376, Control_c, 10, 7, 78
11, 149378, Control_c, 10, 7, 77
11, 149380, Control_c, 10, 7, 76
11, 149382, Control_c, 10, 7, 75
11, 149384, Control_c, 10, 7, 74
11, 149386, Control_c, 10, 7, 72
11, 149388, Control_c, 10, 7, 71
11, 149390, Control_c, 10, 7, 70
11, 149392, Control_c, 10, 7, 69
11, 149394, Control_c, 10, 7, 68
11, 149396, Control_c, 10, 7, 67
11, 149398, Control_c, 10, 7, 66
11, 149400, Control_c, 10, 7, 64
11, 149520, Note_on_c, 10, 46, 0
11, 149520, Note_on_c, 10, 41, 53
11, 149520, Control_c, 10, 7, 99
11, 149760, Note_on_c, 10, 41, 0
11, 149760, Note_on_c, 10, 43, 58
11, 149880, Note_on_c, 10, 43, 0
11, 150240, Note_on_c, 10, 39, 50
11, 150300, Note_on_c, 10, 39, 0
11, 150360, Note_on_c, 10, 39, 47
11, 150420, Note_on_c, 10, 39, 0
11, 150480, Note_on_c, 10, 39, 44
11, 150540, Note_on_c, 10, 39, 0
11, 150600, Note_on_c, 10, 38, 69
11, 150660, Note_on_c, 10, 38, 0
11, 150720, Note_on_c, 10, 36, 101
11, 150780, Note_on_c, 10, 36, 0
11, 150840, Note_on_c, 10, 31, 76
11, 150900, Note_on_c, 10, 31, 0
11, 150960, Note_on_c, 10, 36, 72
11, 151020, Note_on_c, 10, 36, 0
11, 151200, Note_on_c, 10, 36, 101
11, 151260, Control_c, 10, 7, 99
11, 151262, Control_c, 10, 7, 98
11, 151264, Control_c, 10, 7, 97
11, 151266, Control_c, 10, 7, 96
11, 151268, Control_c, 10, 7, 95
11, 151270, Control_c, 10, 7, 94
11, 151272, Control_c, 10, 7, 93
11, 151274, Control_c, 10, 7, 92
11, 151276, Control_c, 10, 7, 90
11, 151278, Control_c, 10, 7, 89
11, 151280, Control_c, 10, 7, 88
11, 151282, Control_c, 10, 7, 87
11, 151284, Control_c, 10, 7, 86
11, 151286, Control_c, 10, 7, 85
11, 151288, Control_c, 10, 7, 84
11, 151290, Control_c, 10, 7, 83
11, 151292, Control_c, 10, 7, 81
11, 151294, Control_c, 10, 7, 80
11, 151296, Control_c, 10, 7, 79
11, 151298, Control_c, 10, 7, 78
11, 151300, Control_c, 10, 7, 77
11, 151302, Control_c, 10, 7, 76
11, 151304, Control_c, 10, 7, 75
11, 151306, Control_c, 10, 7, 74
11, 151308, Control_c, 10, 7, 72
11, 151310, Control_c, 10, 7, 71
11, 151312, Control_c, 10, 7, 70
11, 151314, Control_c, 10, 7, 69
11, 151316, Control_c, 10, 7, 68
11, 151318, Control_c, 10, 7, 67
11, 151320, Control_c, 10, 7, 66
11, 151322, Control_c, 10, 7, 64
11, 151440, Note_on_c, 10, 36, 0
11, 151440, Note_on_c, 10, 39, 94
11, 151680, Note_on_c, 10, 39, 0
11, 151680, Note_on_c, 10, 38, 104
11, 151800, Note_on_c, 10, 38, 0
11, 151920, Control_c, 10, 7, 99
11, 152040, Note_on_c, 10, 46, 45
11, 152100, Note_on_c, 10, 46, 0
11, 152160, Note_on_c, 10, 45, 60
11, 152220, Note_on_c, 10, 45, 0
11, 152280, Note_on_c, 10, 41, 40
11, 152340, Note_on_c, 10, 41, 0
11, 152400, Note_on_c, 10, 46, 61
11, 152460, Note_on_c, 10, 46, 0
11, 152520, Note_on_c, 10, 50, 45
11, 152580, Note_on_c, 10, 50, 0
11, 152640, Note_on_c, 10, 41, 54
11, 152760, Note_on_c, 10, 41, 0
11, 152760, Note_on_c, 10, 40, 95
11, 152880, Note_on_c, 10, 40, 0
11, 152880, Note_on_c, 10, 41, 43
11, 153000, Note_on_c, 10, 41, 0
11, 153120, Note_on_c, 10, 46, 45
11, 153240, Note_on_c, 10, 46, 0
11, 153360, Note_on_c, 10, 41, 60
11, 153480, Note_on_c, 10, 41, 0
11, 153600, Note_on_c, 10, 43, 53
11, 153720, Note_on_c, 10, 43, 0
11, 155040, Note_on_c, 10, 36, 71
11, 155160, Note_on_c, 10, 36, 0
11, 155280, Note_on_c, 10, 39, 63
11, 155400, Note_on_c, 10, 39, 0
11, 155520, Note_on_c, 10, 38, 67
11, 155640, Note_on_c, 10, 38, 0
11, 156120, Note_on_c, 10, 39, 67
11, 156240, Note_on_c, 10, 39, 0
11, 156240, Note_on_c, 10, 41, 55
11, 156360, Note_on_c, 10, 41, 0
11, 156360, Note_on_c, 10, 41, 57
11, 156480, Note_on_c, 10, 41, 0
11, 156480, Note_on_c, 10, 34, 68
11, 156600, Note_on_c, 10, 34, 0
11, 157800, Note_on_c, 10, 39, 60
11, 157920, Note_on_c, 10, 39, 0
11, 157920, Note_on_c, 10, 38, 67
11, 157980, Note_on_c, 10, 38, 0
11, 158040, Note_on_c, 10, 34, 59
11, 158100, Note_on_c, 10, 34, 0
11, 158280, Note_on_c, 10, 39, 60
11, 158400, Note_on_c, 10, 39, 0
11, 158400, Note_on_c, 10, 38, 52
11, 158460, Note_on_c, 10, 38, 0
11, 158520, Note_on_c, 10, 34, 68
11, 158580, Note_on_c, 10, 34, 0
11, 159360, Note_on_c, 10, 42, 35
11, 160080, Note_on_c, 10, 42, 0
11, 160080, Note_on_c, 10, 42, 33
11, 160800, Note_on_c, 10, 42, 0
11, 160800, Note_on_c, 10, 42, 33
11, 161280, Note_on_c, 10, 42, 0
11, 161280, Note_on_c, 10, 42, 29
11, 161400, Note_on_c, 10, 42, 0
11, 161520, Note_on_c, 10, 40, 43
11, 161640, Note_on_c, 10, 40, 0
11, 161760, Note_on_c, 10, 41, 44
11, 161880, Note_on_c, 10, 41, 0
11, 162000, Note_on_c, 10, 41, 40
11, 162120, Note_on_c, 10, 41, 0
11, 162240, Note_on_c, 10, 42, 48
11, 162360, Note_on_c, 10, 42, 0
11, 162480, Note_on_c, 10, 43, 40
11, 162600, Note_on_c, 10, 43, 0
11, 162720, Note_on_c, 10, 41, 43
11, 162840, Note_on_c, 10, 41, 0
11, 162960, Note_on_c, 10, 41, 57
11, 163080, Note_on_c, 10, 41, 0
11, 163200, Note_on_c, 10, 34, 71
11, 163200, Note_on_c, 10, 46, 53
11, 163260, Note_on_c, 10, 46, 0
11, 163260, Note_on_c, 10, 46, 43
11, 163320, Note_on_c, 10, 46, 0
11, 163320, Note_on_c, 10, 34, 0
11, 163320, Note_on_c, 10, 46, 45
11, 163380, Note_on_c, 10, 46, 0
11, 163380, Note_on_c, 10, 46, 45
11, 163440, Note_on_c, 10, 46, 0
11, 163440, Note_on_c, 10, 46, 59
11, 163500, Note_on_c, 10, 46, 0
11, 163500, Note_on_c, 10, 46, 43
11, 163560, Note_on_c, 10, 46, 0
11, 163560, Note_on_c, 10, 46, 45
11, 163620, Note_on_c, 10, 46, 0
11, 163620, Note_on_c, 10, 46, 56
11, 163680, Note_on_c, 10, 46, 0
11, 163680, Note_on_c, 10, 34, 64
11, 163680, Note_on_c, 10, 46, 46
11, 163740, Note_on_c, 10, 46, 0
11, 163740, Note_on_c, 10, 46, 52
11, 163800, Note_on_c, 10, 46, 0
11, 163800, Note_on_c, 10, 34, 0
11, 163800, Note_on_c, 10, 46, 43
11, 163860, Note_on_c, 10, 46, 0
11, 163860, Note_on_c, 10, 46, 41
11, 163920, Note_on_c, 10, 46, 0
11, 163920, Note_on_c, 10, 46, 40
11, 163980, Note_on_c, 10, 46, 0
11, 163980, Note_on_c, 10, 46, 64
11, 164040, Note_on_c, 10, 46, 0
11, 164040, Note_on_c, 10, 46, 44
11, 164100, Note_on_c, 10, 46, 0
11, 164100, Note_on_c, 10, 46, 57
11, 164160, Note_on_c, 10, 46, 0
11, 164160, Note_on_c, 10, 34, 71
11, 164160, Note_on_c, 10, 46, 64
11, 164220, Note_on_c, 10, 46, 0
11, 164220, Note_on_c, 10, 46, 43
11, 164280, Note_on_c, 10, 46, 0
11, 164280, Note_on_c, 10, 34, 0
11, 164280, Note_on_c, 10, 46, 56
11, 164340, Note_on_c, 10, 46, 0
11, 164340, Note_on_c, 10, 46, 49
11, 164400, Note_on_c, 10, 46, 0
11, 164400, Note_on_c, 10, 46, 53
11, 164460, Note_on_c, 10, 46, 0
11, 164460, Note_on_c, 10, 46, 61
11, 164520, Note_on_c, 10, 46, 0
11, 164520, Note_on_c, 10, 46, 61
11, 164580, Note_on_c, 10, 46, 0
11, 164580, Note_on_c, 10, 46, 63
11, 164640, Note_on_c, 10, 46, 0
11, 164640, Note_on_c, 10, 34, 63
11, 164640, Note_on_c, 10, 46, 55
11, 164700, Note_on_c, 10, 46, 0
11, 164700, Note_on_c, 10, 46, 50
11, 164760, Note_on_c, 10, 46, 0
11, 164760, Note_on_c, 10, 34, 0
11, 164760, Note_on_c, 10, 46, 54
11, 164820, Note_on_c, 10, 46, 0
11, 164820, Note_on_c, 10, 46, 50
11, 164880, Note_on_c, 10, 46, 0
11, 164880, Note_on_c, 10, 46, 57
11, 164940, Note_on_c, 10, 46, 0
11, 164940, Note_on_c, 10, 46, 46
11, 165000, Note_on_c, 10, 46, 0
11, 165000, Note_on_c, 10, 46, 53
11, 165060, Note_on_c, 10, 46, 0
11, 165060, Note_on_c, 10, 46, 59
11, 165120, Note_on_c, 10, 46, 0
11, 165120, Note_on_c, 10, 34, 63
11, 165120, Note_on_c, 10, 46, 45
11, 165240, Note_on_c, 10, 46, 0
11, 165240, Note_on_c, 10, 34, 0
11, 168000, Note_on_c, 10, 41, 46
11, 168480, Note_on_c, 10, 41, 0
11, 168480, Note_on_c, 10, 34, 45
11, 168600, Note_on_c, 10, 34, 0
11, 168720, Note_on_c, 10, 38, 53
11, 168840, Note_on_c, 10, 38, 0
11, 168960, Note_on_c, 10, 31, 58
11, 169080, Note_on_c, 10, 31, 0
11, 171360, Note_on_c, 10, 40, 84
11, 171480, Note_on_c, 10, 40, 0
11, 171600, Note_on_c, 10, 41, 73
11, 171720, Note_on_c, 10, 41, 0
11, 171840, Note_on_c, 10, 42, 90
11, 172200, Note_on_c, 10, 42, 0
11, 172200, Note_on_c, 10, 41, 72
11, 172320, Note_on_c, 10, 41, 0
11, 172320, Note_on_c, 10, 40, 85
11, 172440, Note_on_c, 10, 40, 0
11, 172560, Note_on_c, 10, 41, 71
11, 172680, Note_on_c, 10, 41, 0
11, 172800, Note_on_c, 10, 42, 68
11, 172920, Note_on_c, 10, 42, 0
11, 173280, Note_on_c, 10, 43, 72
11, 173400, Note_on_c, 10, 43, 0
11, 174000, Note_on_c, 10, 43, 95
11, 174240, Note_on_c, 10, 43, 0
11, 174240, Note_on_c, 10, 41, 94
11, 174300, Note_on_c, 10, 41, 0
11, 174960, Note_on_c, 10, 42, 98
11, 175200, Note_on_c, 10, 42, 0
11, 175200, Note_on_c, 10, 41, 94
11, 175260, Note_on_c, 10, 41, 0
11, 175920, Note_on_c, 10, 43, 99
11, 176160, Note_on_c, 10, 43, 0
11, 176160, Note_on_c, 10, 41, 94
11, 176220, Note_on_c, 10, 41, 0
11, 180960, Note_on_c, 10, 41, 73
11, 181080, Note_on_c, 10, 41, 0
11, 182880, Note_on_c, 10, 29, 54
11, 182940, Note_on_c, 10, 29, 0
11, 182940, Note_on_c, 10, 41, 57
11, 183000, Note_on_c, 10, 41, 0
11, 183000, Note_on_c, 10, 41, 54
11, 183060, Note_on_c, 10, 41, 0
11, 183060, Note_on_c, 10, 41, 46
11, 183120, Note_on_c, 10, 41, 0
11, 183120, Note_on_c, 10, 41, 57
11, 183180, Note_on_c, 10, 41, 0
11, 183180, Note_on_c, 10, 41, 52
11, 183240, Note_on_c, 10, 41, 0
11, 183240, Note_on_c, 10, 41, 46
11, 183300, Note_on_c, 10, 41, 0
11, 183300, Note_on_c, 10, 41, 46
11, 183360, Note_on_c, 10, 41, 0
11, 183360, Note_on_c, 10, 41, 65
11, 183420, Note_on_c, 10, 41, 0
11, 183420, Note_on_c, 10, 41, 54
11, 183480, Note_on_c, 10, 41, 0
11, 183480, Note_on_c, 10, 41, 56
11, 183540, Note_on_c, 10, 41, 0
11, 183540, Note_on_c, 10, 41, 53
11, 183600, Note_on_c, 10, 41, 0
11, 183600, Note_on_c, 10, 41, 50
11, 183660, Note_on_c, 10, 41, 0
11, 183660, Note_on_c, 10, 41, 50
11, 183720, Note_on_c, 10, 41, 0
11, 183720, Note_on_c, 10, 41, 64
11, 183780, Note_on_c, 10, 41, 0
11, 183780, Note_on_c, 10, 41, 69
11, 183840, Note_on_c, 10, 41, 0
11, 183840, Note_on_c, 10, 34, 98
11, 184020, Note_on_c, 10, 34, 0
11, 184050, Note_on_c, 10, 34, 98
11, 184080, Note_on_c, 10, 34, 0
11, 184080, Note_on_c, 10, 38, 105
11, 184125, Note_on_c, 10, 38, 0
11, 184170, Note_on_c, 10, 38, 105
11, 184193, Note_on_c, 10, 38, 0
11, 184200, Note_on_c, 10, 34, 95
11, 184245, Note_on_c, 10, 34, 0
11, 184290, Note_on_c, 10, 34, 99
11, 184313, Note_on_c, 10, 34, 0
11, 184320, Note_on_c, 10, 41, 95
11, 184500, Note_on_c, 10, 41, 0
11, 184530, Note_on_c, 10, 29, 95
11, 184560, Note_on_c, 10, 29, 0
11, 184560, Note_on_c, 10, 32, 115
11, 184605, Note_on_c, 10, 32, 0
11, 184650, Note_on_c, 10, 32, 95
11, 184673, Note_on_c, 10, 32, 0
11, 184680, Note_on_c, 10, 29, 95
11, 184725, Note_on_c, 10, 29, 0
11, 184770, Note_on_c, 10, 29, 104
11, 184793, Note_on_c, 10, 29, 0
11, 184800, Note_on_c, 10, 36, 104
11, 184980, Note_on_c, 10, 36, 0
11, 185010, Note_on_c, 10, 36, 107
11, 185040, Note_on_c, 10, 36, 0
11, 185040, Note_on_c, 10, 39, 119
11, 185085, Note_on_c, 10, 39, 0
11, 185130, Note_on_c, 10, 39, 95
11, 185153, Note_on_c, 10, 39, 0
11, 185160, Note_on_c, 10, 36, 104
11, 185205, Note_on_c, 10, 36, 0
11, 185250, Note_on_c, 10, 36, 104
11, 185273, Note_on_c, 10, 36, 0
11, 185280, Note_on_c, 10, 43, 95
11, 185460, Note_on_c, 10, 43, 0
11, 185490, Note_on_c, 10, 31, 94
11, 185520, Note_on_c, 10, 31, 0
11, 185520, Note_on_c, 10, 34, 105
11, 185565, Note_on_c, 10, 34, 0
11, 185610, Note_on_c, 10, 34, 95
11, 185633, Note_on_c, 10, 34, 0
11, 185640, Note_on_c, 10, 31, 99
11, 185685, Note_on_c, 10, 31, 0
11, 185730, Note_on_c, 10, 31, 95
11, 185753, Note_on_c, 10, 31, 0
11, 185760, Note_on_c, 10, 38, 104
11, 185820, Note_on_c, 10, 38, 0
11, 185820, Note_on_c, 10, 50, 89
11, 185880, Note_on_c, 10, 50, 0
11, 185880, Note_on_c, 10, 50, 78
11, 185940, Note_on_c, 10, 50, 0
11, 185940, Note_on_c, 10, 50, 89
11, 186000, Note_on_c, 10, 50, 0
11, 186000, Note_on_c, 10, 35, 104
11, 186060, Note_on_c, 10, 35, 0
11, 186060, Note_on_c, 10, 47, 90
11, 186120, Note_on_c, 10, 47, 0
11, 186120, Note_on_c, 10, 47, 93
11, 186180, Note_on_c, 10, 47, 0
11, 186180, Note_on_c, 10, 47, 89
11, 186240, Note_on_c, 10, 47, 0
11, 186240, Note_on_c, 10, 36, 104
11, 186300, Note_on_c, 10, 36, 0
11, 186300, Note_on_c, 10, 48, 89
11, 186360, Note_on_c, 10, 48, 0
11, 186360, Note_on_c, 10, 48, 86
11, 186420, Note_on_c, 10, 48, 0
11, 186420, Note_on_c, 10, 48, 93
11, 186480, Note_on_c, 10, 48, 0
11, 186480, Note_on_c, 10, 33, 104
11, 186540, Note_on_c, 10, 33, 0
11, 186540, Note_on_c, 10, 45, 99
11, 186600, Note_on_c, 10, 45, 0
11, 186600, Note_on_c, 10, 45, 99
11, 186660, Note_on_c, 10, 45, 0
11, 186660, Note_on_c, 10, 45, 99
11, 186720, Note_on_c, 10, 45, 0
11, 186720, Note_on_c, 10, 46, 94
11, 186780, Note_on_c, 10, 46, 0
11, 186840, Note_on_c, 10, 43, 119
11, 187080, Note_on_c, 10, 43, 0
11, 187080, Note_on_c, 10, 45, 110
11, 187140, Note_on_c, 10, 45, 0
11, 187200, Note_on_c, 10, 42, 94
11, 187260, Note_on_c, 10, 42, 0
11, 187320, Note_on_c, 10, 43, 119
11, 187380, Note_on_c, 10, 43, 0
11, 187440, Note_on_c, 10, 40, 105
11, 187500, Note_on_c, 10, 40, 0
11, 187560, Note_on_c, 10, 41, 115
11, 187620, Note_on_c, 10, 41, 0
11, 187680, Note_on_c, 10, 38, 101
11, 187740, Note_on_c, 10, 38, 0
11, 187800, Note_on_c, 10, 39, 123
11, 188040, Note_on_c, 10, 39, 0
11, 188040, Note_on_c, 10, 40, 119
11, 188280, Note_on_c, 10, 40, 0
11, 188280, Note_on_c, 10, 41, 99
11, 188340, Note_on_c, 10, 41, 0
11, 188400, Note_on_c, 10, 42, 94
11, 188460, Note_on_c, 10, 42, 0
11, 188520, Note_on_c, 10, 43, 99
11, 188580, Note_on_c, 10, 43, 0
11, 188640, Note_on_c, 10, 41, 123
11, 188880, Note_on_c, 10, 41, 0
11, 229440, Note_on_c, 10, 46, 99
11, 229560, Note_on_c, 10, 46, 0
11, 229920, Note_on_c, 10, 41, 60
11, 230400, Note_on_c, 10, 41, 0
11, 230400, Note_on_c, 10, 46, 63
11, 230520, Note_on_c, 10, 46, 0
11, 230880, Note_on_c, 10, 29, 55
11, 231000, Note_on_c, 10, 29, 0
11, 231000, Note_on_c, 10, 41, 61
11, 231120, Note_on_c, 10, 41, 0
11, 231120, Note_on_c, 10, 41, 77
11, 231240, Note_on_c, 10, 41, 0
11, 231240, Note_on_c, 10, 41, 85
11, 231360, Note_on_c, 10, 41, 0
11, 231360, Note_on_c, 10, 34, 58
11, 231480, Note_on_c, 10, 34, 0
11, 231600, Note_on_c, 10, 46, 101
11, 231720, Note_on_c, 10, 46, 0
11, 231840, Note_on_c, 10, 34, 104
11, 231960, Note_on_c, 10, 34, 0
11, 231960, End_track
12, 0, Start_track
12, 0, MIDI_port, 0
12, 0, Title_t, "Ludwig van Beethoven"
12, 0, End_track
13, 0, Start_track
13, 0, MIDI_port, 0
13, 0, Title_t, "Piano Concerto No. 2 "
13, 0, End_track
14, 0, Start_track
14, 0, MIDI_port, 0
14, 0, Title_t, "in Bb Major, Op. 19"
14, 0, End_track
15, 0, Start_track
15, 0, MIDI_port, 0
15, 0, Title_t, "Mov't. 1 - Allegro con brio"
15, 0, End_track
16, 0, Start_track
16, 0, MIDI_port, 0
16, 0, Title_t, "Sequenced by Bill Nemitz"
16, 0, End_track
17, 0, Start_track
17, 0, MIDI_port, 0
17, 0, Title_t, "Email at billnem@ix.netcom.com"
17, 0, End_track
0, 0, End_of_file