0, 0, Header, 1, 19, 480
1, 0, Start_track
1, 0, Tempo, 207612
1, 0, Time_signature, 4, 2, 24, 8
1, 0, Key_signature, -2, "major"
1, 5760, Tempo, 1111111
1, 13440, Tempo, 1250000
1, 15360, Tempo, 1111111
1, 71040, Time_signature, 3, 2, 24, 8
1, 72480, Tempo, 1428571
1, 72480, Time_signature, 1, 2, 24, 8
1, 72960, Tempo, 1111111
1, 72960, Time_signature, 4, 2, 24, 8
1, 78720, Tempo, 220588
1, 78720, Time_signature, 2, 1, 48, 8
1, 120960, Tempo, 240000
1, 122880, Tempo, 234375
1, 128640, Tempo, 220588
1, 207360, Tempo, 250000
1, 208320, Tempo, 285714
1, 209280, Tempo, 220588
1, 236160, Tempo, 230769
1, 257280, Tempo, 227273
1, 259200, Tempo, 220588
1, 273600, Tempo, 250000
1, 274560, Tempo, 227273
1, 289920, Tempo, 220588
1, 362880, Tempo, 441176
1, 368640, Tempo, 220588
1, 410880, Tempo, 240000
1, 412800, Tempo, 234375
1, 418560, Tempo, 220588
1, 497280, Tempo, 250000
1, 498240, Tempo, 272727
1, 499200, Tempo, 220588
1, 526080, Tempo, 230769
1, 547200, Tempo, 227273
1, 549120, Tempo, 220588
1, 563520, Tempo, 250000
1, 564480, Tempo, 227273
1, 579840, Tempo, 220588
1, 756480, Tempo, 211268
1, 764160, Tempo, 220588
1, 771840, Tempo, 211268
1, 779520, Tempo, 220588
1, 787200, Tempo, 211268
1, 794880, Tempo, 220588
1, 831360, Tempo, 234375
1, 846720, Tempo, 220588
1, 873600, Tempo, 236220
1, 875520, Tempo, 254237
1, 875520, Time_signature, 2, 2, 24, 8
1, 876480, Tempo, 275229
1, 877440, Tempo, 314136
1, 878400, Tempo, 416667
1, 879360, Tempo, 277777
1, 879360, Time_signature, 4, 2, 24, 8
1, 883200, Tempo, 234375
1, 894720, Tempo, 220588
1, 936960, Tempo, 240000
1, 938880, Tempo, 187500
1, 938880, Time_signature, 5, 2, 24, 8
1, 941280, Tempo, 214286
1, 941280, Time_signature, 4, 2, 24, 8
1, 948960, Tempo, 220588
1, 1024320, Tempo, 260869
1, 1025760, Tempo, 220588
1, 1052640, Tempo, 230769
1, 1079520, Tempo, 220588
1, 1089600, Tempo, 240000
1, 1091040, Tempo, 227273
1, 1106400, Tempo, 220588
1, 1246560, Tempo, 238095
1, 1248480, Tempo, 272727
1, 1250400, Tempo, 238095
1, 1252320, Tempo, 220588
1, 1252320, End_track
2, 0, Start_track
2, 0, Title_t, "Flute"
2, 0, MIDI_port, 0
2, 0, Channel_prefix, 0
2, 0, Control_c, 0, 7, 89
2, 0, Control_c, 0, 10, 55
2, 0, Program_c, 0, 73
2, 60, Control_c, 0, 121, 127
2, 480, Program_c, 0, 73
2, 480, Control_c, 0, 7, 90
2, 480, Control_c, 0, 91, 85
2, 480, Control_c, 0, 10, 60
2, 1920, Control_c, 0, 7, 90
2, 5700, Control_c, 0, 7, 75
2, 5760, Note_on_c, 0, 82, 40
2, 15360, Note_off_c, 0, 82, 64
2, 15360, Note_on_c, 0, 77, 26
2, 15552, Note_off_c, 0, 77, 64
2, 17340, Note_on_c, 0, 66, 27
2, 18720, Note_off_c, 0, 66, 64
2, 18720, Note_on_c, 0, 64, 27
2, 19200, Note_off_c, 0, 64, 64
2, 19200, Note_on_c, 0, 65, 27
2, 19440, Note_off_c, 0, 65, 64
2, 24480, Note_on_c, 0, 81, 30
2, 24672, Note_off_c, 0, 81, 64
2, 24960, Note_on_c, 0, 84, 30
2, 25152, Note_off_c, 0, 84, 64
2, 26400, Note_on_c, 0, 87, 30
2, 26592, Note_off_c, 0, 87, 64
2, 26880, Note_on_c, 0, 90, 30
2, 27072, Note_off_c, 0, 90, 64
2, 27360, Note_on_c, 0, 87, 30
2, 27552, Note_off_c, 0, 87, 64
2, 27840, Note_on_c, 0, 84, 30
2, 28032, Note_off_c, 0, 84, 64
2, 28320, Note_on_c, 0, 81, 30
2, 28512, Note_off_c, 0, 81, 64
2, 28800, Note_on_c, 0, 82, 30
2, 38592, Note_off_c, 0, 82, 64
2, 40380, Note_on_c, 0, 67, 27
2, 41760, Note_off_c, 0, 67, 64
2, 41760, Note_on_c, 0, 65, 27
2, 42240, Note_off_c, 0, 65, 64
2, 42240, Note_on_c, 0, 66, 27
2, 42480, Note_off_c, 0, 66, 64
2, 47520, Note_on_c, 0, 82, 30
2, 47712, Note_off_c, 0, 82, 64
2, 48000, Note_on_c, 0, 85, 30
2, 48192, Note_off_c, 0, 85, 64
2, 49440, Note_on_c, 0, 88, 30
2, 49632, Note_off_c, 0, 88, 64
2, 49920, Note_on_c, 0, 91, 30
2, 50112, Note_off_c, 0, 91, 64
2, 50400, Note_on_c, 0, 88, 30
2, 50592, Note_off_c, 0, 88, 64
2, 50880, Note_on_c, 0, 85, 30
2, 51072, Note_off_c, 0, 85, 64
2, 51360, Note_on_c, 0, 82, 30
2, 51552, Note_off_c, 0, 82, 64
2, 51840, Note_on_c, 0, 83, 30
2, 55680, Note_off_c, 0, 83, 64
2, 55680, Note_on_c, 0, 84, 30
2, 57600, Note_off_c, 0, 84, 64
2, 57600, Note_on_c, 0, 85, 30
2, 59520, Note_off_c, 0, 85, 64
2, 59520, Note_on_c, 0, 86, 30
2, 60932, Note_off_c, 0, 86, 64
2, 60932, Control_c, 0, 7, 77
2, 60960, Note_on_c, 0, 82, 51
2, 61932, Control_c, 0, 7, 76
2, 61960, Control_c, 0, 7, 75
2, 61972, Control_c, 0, 7, 74
2, 61988, Control_c, 0, 7, 73
2, 62000, Control_c, 0, 7, 72
2, 62012, Control_c, 0, 7, 71
2, 62028, Control_c, 0, 7, 70
2, 62052, Control_c, 0, 7, 69
2, 62068, Control_c, 0, 7, 68
2, 62080, Control_c, 0, 7, 67
2, 62092, Control_c, 0, 7, 66
2, 62108, Control_c, 0, 7, 65
2, 62120, Control_c, 0, 7, 64
2, 62132, Control_c, 0, 7, 63
2, 62160, Control_c, 0, 7, 62
2, 62172, Control_c, 0, 7, 61
2, 62188, Control_c, 0, 7, 60
2, 62200, Control_c, 0, 7, 59
2, 62212, Control_c, 0, 7, 58
2, 62228, Control_c, 0, 7, 57
2, 62240, Control_c, 0, 7, 56
2, 62268, Control_c, 0, 7, 55
2, 62280, Control_c, 0, 7, 54
2, 62292, Control_c, 0, 7, 53
2, 62308, Control_c, 0, 7, 52
2, 62320, Control_c, 0, 7, 51
2, 62332, Control_c, 0, 7, 50
2, 62348, Control_c, 0, 7, 49
2, 62372, Control_c, 0, 7, 48
2, 62388, Control_c, 0, 7, 47
2, 62400, Control_c, 0, 7, 46
2, 62412, Control_c, 0, 7, 45
2, 62428, Control_c, 0, 7, 44
2, 62440, Control_c, 0, 7, 43
2, 62468, Control_c, 0, 7, 42
2, 62480, Control_c, 0, 7, 41
2, 62492, Control_c, 0, 7, 40
2, 62508, Control_c, 0, 7, 39
2, 62520, Control_c, 0, 7, 38
2, 62532, Control_c, 0, 7, 37
2, 62548, Control_c, 0, 7, 36
2, 62572, Control_c, 0, 7, 35
2, 62588, Control_c, 0, 7, 34
2, 62600, Control_c, 0, 7, 33
2, 62612, Control_c, 0, 7, 32
2, 62628, Control_c, 0, 7, 31
2, 62640, Control_c, 0, 7, 30
2, 62652, Control_c, 0, 7, 29
2, 62680, Control_c, 0, 7, 28
2, 62692, Control_c, 0, 7, 27
2, 62708, Control_c, 0, 7, 26
2, 62720, Control_c, 0, 7, 25
2, 62732, Control_c, 0, 7, 24
2, 62748, Control_c, 0, 7, 23
2, 62760, Control_c, 0, 7, 22
2, 62788, Control_c, 0, 7, 21
2, 62800, Control_c, 0, 7, 20
2, 62812, Control_c, 0, 7, 19
2, 62828, Control_c, 0, 7, 18
2, 62836, Note_off_c, 0, 82, 64
2, 62840, Control_c, 0, 7, 17
2, 62852, Control_c, 0, 7, 16
2, 62865, Control_c, 0, 7, 73
2, 62880, Note_on_c, 0, 82, 36
2, 63360, Note_off_c, 0, 82, 64
2, 63360, Note_on_c, 0, 80, 40
2, 63557, Control_c, 0, 7, 72
2, 65280, Note_off_c, 0, 80, 64
2, 65280, Note_on_c, 0, 81, 40
2, 69346, Note_off_c, 0, 81, 64
2, 70080, Note_on_c, 0, 81, 40
2, 70306, Note_off_c, 0, 81, 64
2, 71040, Note_on_c, 0, 81, 32
2, 71266, Note_off_c, 0, 81, 64
2, 72480, Control_c, 0, 7, 90
2, 72960, Note_on_c, 0, 81, 100
2, 74736, Note_off_c, 0, 81, 64
2, 74820, Note_on_c, 0, 81, 100
2, 74850, Note_off_c, 0, 81, 64
2, 74880, Note_on_c, 0, 81, 100
2, 74976, Note_off_c, 0, 81, 64
2, 76800, Note_on_c, 0, 84, 100
2, 78576, Note_off_c, 0, 84, 64
2, 78660, Note_on_c, 0, 84, 100
2, 78690, Note_off_c, 0, 84, 64
2, 78720, Note_on_c, 0, 84, 100
2, 78960, Note_off_c, 0, 84, 64
2, 80640, Note_on_c, 0, 84, 80
2, 80880, Note_off_c, 0, 84, 64
2, 82560, Note_on_c, 0, 84, 80
2, 82800, Note_off_c, 0, 84, 64
2, 83520, Note_on_c, 0, 84, 80
2, 83760, Note_off_c, 0, 84, 64
2, 84480, Note_on_c, 0, 84, 80
2, 84720, Note_off_c, 0, 84, 64
2, 85440, Note_on_c, 0, 84, 80
2, 85680, Note_off_c, 0, 84, 64
2, 86400, Note_on_c, 0, 86, 80
2, 86640, Note_off_c, 0, 86, 64
2, 101760, Note_on_c, 0, 84, 80
2, 102000, Note_off_c, 0, 84, 64
2, 103680, Note_on_c, 0, 84, 80
2, 103920, Note_off_c, 0, 84, 64
2, 104640, Note_on_c, 0, 84, 80
2, 104880, Note_off_c, 0, 84, 64
2, 105600, Note_on_c, 0, 86, 80
2, 105840, Note_off_c, 0, 86, 64
2, 107520, Note_on_c, 0, 86, 67
2, 107712, Note_off_c, 0, 86, 64
2, 108000, Note_on_c, 0, 89, 67
2, 108192, Note_off_c, 0, 89, 64
2, 108480, Note_on_c, 0, 82, 67
2, 108672, Note_off_c, 0, 82, 64
2, 108960, Note_on_c, 0, 86, 67
2, 109152, Note_off_c, 0, 86, 64
2, 109440, Note_on_c, 0, 79, 67
2, 109632, Note_off_c, 0, 79, 64
2, 109920, Note_on_c, 0, 87, 67
2, 110112, Note_off_c, 0, 87, 64
2, 110400, Note_on_c, 0, 84, 67
2, 110592, Note_off_c, 0, 84, 64
2, 110880, Note_on_c, 0, 82, 67
2, 111072, Note_off_c, 0, 82, 64
2, 111360, Note_on_c, 0, 81, 67
2, 111552, Note_off_c, 0, 81, 64
2, 111840, Note_on_c, 0, 89, 67
2, 112032, Note_off_c, 0, 89, 64
2, 112320, Note_on_c, 0, 87, 67
2, 112512, Note_off_c, 0, 87, 64
2, 112800, Note_on_c, 0, 84, 67
2, 112992, Note_off_c, 0, 84, 64
2, 113280, Note_on_c, 0, 82, 67
2, 113472, Note_off_c, 0, 82, 64
2, 113760, Note_on_c, 0, 91, 67
2, 114210, Note_off_c, 0, 91, 64
2, 114240, Note_on_c, 0, 89, 67
2, 114690, Note_off_c, 0, 89, 64
2, 114720, Note_on_c, 0, 87, 67
2, 115170, Note_off_c, 0, 87, 64
2, 115200, Note_on_c, 0, 86, 67
2, 115650, Note_off_c, 0, 86, 64
2, 115680, Note_on_c, 0, 84, 67
2, 116130, Note_off_c, 0, 84, 64
2, 116160, Note_on_c, 0, 82, 67
2, 116610, Note_off_c, 0, 82, 64
2, 116640, Note_on_c, 0, 84, 67
2, 117090, Note_off_c, 0, 84, 64
2, 117120, Note_on_c, 0, 82, 67
2, 120960, Note_off_c, 0, 82, 64
2, 120960, Note_on_c, 0, 81, 50
2, 121248, Note_off_c, 0, 81, 64
2, 121920, Note_on_c, 0, 87, 63
2, 122208, Note_off_c, 0, 87, 64
2, 123840, Note_on_c, 0, 86, 63
2, 124128, Note_off_c, 0, 86, 64
2, 125760, Note_on_c, 0, 87, 63
2, 126048, Note_off_c, 0, 87, 64
2, 127680, Note_on_c, 0, 84, 63
2, 127968, Note_off_c, 0, 84, 64
2, 149760, Note_on_c, 0, 88, 64
2, 151296, Note_off_c, 0, 88, 64
2, 151680, Note_on_c, 0, 90, 45
2, 155520, Note_off_c, 0, 90, 64
2, 155520, Note_on_c, 0, 89, 51
2, 159360, Note_off_c, 0, 89, 64
2, 159360, Note_on_c, 0, 82, 89
2, 162816, Note_off_c, 0, 82, 64
2, 163200, Note_on_c, 0, 87, 89
2, 164736, Note_off_c, 0, 87, 64
2, 165120, Note_on_c, 0, 89, 89
2, 166920, Note_off_c, 0, 89, 64
2, 167040, Note_on_c, 0, 86, 62
2, 170496, Note_off_c, 0, 86, 64
2, 170880, Note_on_c, 0, 79, 62
2, 172416, Note_off_c, 0, 79, 64
2, 172800, Note_on_c, 0, 81, 62
2, 174600, Note_off_c, 0, 81, 64
2, 174720, Note_on_c, 0, 82, 62
2, 176256, Note_off_c, 0, 82, 64
2, 176640, Note_on_c, 0, 85, 62
2, 178440, Note_off_c, 0, 85, 64
2, 178560, Note_on_c, 0, 86, 62
2, 180096, Note_off_c, 0, 86, 64
2, 180480, Note_on_c, 0, 88, 78
2, 180672, Note_off_c, 0, 88, 64
2, 180960, Note_on_c, 0, 84, 78
2, 181152, Note_off_c, 0, 84, 64
2, 181440, Note_on_c, 0, 84, 78
2, 181632, Note_off_c, 0, 84, 64
2, 181920, Note_on_c, 0, 84, 78
2, 182112, Note_off_c, 0, 84, 64
2, 182400, Note_on_c, 0, 84, 78
2, 182592, Note_off_c, 0, 84, 64
2, 182880, Note_on_c, 0, 84, 78
2, 183072, Note_off_c, 0, 84, 64
2, 183360, Note_on_c, 0, 84, 78
2, 183552, Note_off_c, 0, 84, 64
2, 183840, Note_on_c, 0, 84, 78
2, 184032, Note_off_c, 0, 84, 64
2, 184320, Note_on_c, 0, 84, 78
2, 184512, Note_off_c, 0, 84, 64
2, 184800, Note_on_c, 0, 84, 78
2, 184992, Note_off_c, 0, 84, 64
2, 185280, Note_on_c, 0, 84, 78
2, 185472, Note_off_c, 0, 84, 64
2, 185760, Note_on_c, 0, 84, 78
2, 185952, Note_off_c, 0, 84, 64
2, 186240, Note_on_c, 0, 84, 78
2, 186432, Note_off_c, 0, 84, 64
2, 194400, Note_on_c, 0, 84, 64
2, 195168, Note_off_c, 0, 84, 64
2, 195360, Note_on_c, 0, 84, 64
2, 196224, Note_off_c, 0, 84, 64
2, 196320, Note_on_c, 0, 84, 64
2, 197088, Note_off_c, 0, 84, 64
2, 197280, Note_on_c, 0, 84, 64
2, 198144, Note_off_c, 0, 84, 64
2, 198240, Note_on_c, 0, 84, 64
2, 199008, Note_off_c, 0, 84, 64
2, 199200, Note_on_c, 0, 84, 64
2, 200064, Note_off_c, 0, 84, 64
2, 200160, Note_on_c, 0, 86, 64
2, 201120, Note_off_c, 0, 86, 64
2, 201120, Note_on_c, 0, 84, 64
2, 201504, Note_off_c, 0, 84, 64
2, 201600, Note_on_c, 0, 84, 64
2, 201984, Note_off_c, 0, 84, 64
2, 216960, Note_on_c, 0, 89, 67
2, 217200, Note_off_c, 0, 89, 64
2, 217200, Note_on_c, 0, 86, 67
2, 217440, Note_off_c, 0, 86, 64
2, 217440, Note_on_c, 0, 88, 67
2, 217680, Note_off_c, 0, 88, 64
2, 217680, Note_on_c, 0, 85, 67
2, 217920, Note_off_c, 0, 85, 64
2, 217920, Note_on_c, 0, 86, 67
2, 218112, Note_off_c, 0, 86, 64
2, 218400, Note_on_c, 0, 81, 67
2, 218592, Note_off_c, 0, 81, 64
2, 218880, Note_on_c, 0, 86, 67
2, 219072, Note_off_c, 0, 86, 64
2, 219360, Note_on_c, 0, 88, 67
2, 219552, Note_off_c, 0, 88, 64
2, 219840, Note_on_c, 0, 89, 67
2, 220032, Note_off_c, 0, 89, 64
2, 220320, Note_on_c, 0, 91, 67
2, 220512, Note_off_c, 0, 91, 64
2, 220800, Note_on_c, 0, 93, 67
2, 222240, Note_off_c, 0, 93, 64
2, 222240, Note_on_c, 0, 91, 67
2, 222720, Note_off_c, 0, 91, 64
2, 222720, Note_on_c, 0, 89, 67
2, 224160, Note_off_c, 0, 89, 64
2, 224160, Note_on_c, 0, 86, 67
2, 224640, Note_off_c, 0, 86, 64
2, 224640, Note_on_c, 0, 85, 67
2, 226080, Note_off_c, 0, 85, 64
2, 226080, Note_on_c, 0, 88, 67
2, 226320, Note_off_c, 0, 88, 64
2, 226440, Note_on_c, 0, 88, 67
2, 226560, Note_off_c, 0, 88, 64
2, 226560, Note_on_c, 0, 86, 67
2, 227040, Note_off_c, 0, 86, 64
2, 227040, Note_on_c, 0, 85, 67
2, 227520, Note_off_c, 0, 85, 64
2, 227520, Note_on_c, 0, 86, 67
2, 228000, Note_off_c, 0, 86, 64
2, 228000, Note_on_c, 0, 82, 67
2, 228000, Note_on_c, 0, 82, 67
2, 228480, Note_off_c, 0, 82, 64
2, 228480, Note_off_c, 0, 82, 64
2, 228480, Note_on_c, 0, 81, 67
2, 228960, Note_off_c, 0, 81, 64
2, 257280, Note_on_c, 0, 84, 55
2, 257760, Note_off_c, 0, 84, 64
2, 258240, Note_on_c, 0, 84, 58
2, 258720, Note_off_c, 0, 84, 64
2, 259200, Note_on_c, 0, 84, 55
2, 259680, Note_off_c, 0, 84, 64
2, 260160, Note_on_c, 0, 84, 58
2, 260640, Note_off_c, 0, 84, 64
2, 261120, Note_on_c, 0, 84, 55
2, 261600, Note_off_c, 0, 84, 64
2, 262080, Note_on_c, 0, 84, 58
2, 262560, Note_off_c, 0, 84, 64
2, 263040, Note_on_c, 0, 84, 80
2, 263232, Note_off_c, 0, 84, 64
2, 264960, Note_on_c, 0, 86, 80
2, 265152, Note_off_c, 0, 86, 64
2, 266880, Note_on_c, 0, 81, 80
2, 267072, Note_off_c, 0, 81, 64
2, 268320, Note_on_c, 0, 81, 56
2, 268512, Note_off_c, 0, 81, 64
2, 268800, Note_on_c, 0, 79, 56
2, 268992, Note_off_c, 0, 79, 64
2, 269280, Note_on_c, 0, 79, 56
2, 269472, Note_off_c, 0, 79, 64
2, 269760, Note_on_c, 0, 79, 56
2, 269952, Note_off_c, 0, 79, 64
2, 270240, Note_on_c, 0, 79, 56
2, 270432, Note_off_c, 0, 79, 64
2, 270720, Note_on_c, 0, 84, 56
2, 270912, Note_off_c, 0, 84, 64
2, 271680, Note_on_c, 0, 86, 56
2, 271872, Note_off_c, 0, 86, 64
2, 272640, Note_on_c, 0, 81, 56
2, 272832, Note_off_c, 0, 81, 64
2, 273600, Note_on_c, 0, 79, 56
2, 273792, Note_off_c, 0, 79, 64
2, 274560, Note_on_c, 0, 77, 56
2, 274944, Note_off_c, 0, 77, 64
2, 289440, Note_on_c, 0, 82, 64
2, 289824, Note_off_c, 0, 82, 64
2, 289920, Note_on_c, 0, 81, 80
2, 290400, Note_off_c, 0, 81, 64
2, 290400, Note_on_c, 0, 82, 80
2, 290640, Note_off_c, 0, 82, 64
2, 290880, Note_on_c, 0, 84, 80
2, 291120, Note_off_c, 0, 84, 64
2, 291360, Note_on_c, 0, 72, 80
2, 291600, Note_off_c, 0, 72, 64
2, 291840, Note_on_c, 0, 77, 80
2, 292992, Note_off_c, 0, 77, 64
2, 293280, Note_on_c, 0, 79, 80
2, 293520, Note_off_c, 0, 79, 64
2, 293760, Note_on_c, 0, 81, 80
2, 294240, Note_off_c, 0, 81, 64
2, 294240, Note_on_c, 0, 77, 80
2, 294480, Note_off_c, 0, 77, 64
2, 294720, Note_on_c, 0, 81, 80
2, 294960, Note_off_c, 0, 81, 64
2, 295200, Note_on_c, 0, 82, 80
2, 295440, Note_off_c, 0, 82, 64
2, 295680, Note_on_c, 0, 84, 80
2, 296832, Note_off_c, 0, 84, 64
2, 297120, Note_on_c, 0, 86, 80
2, 297360, Note_off_c, 0, 86, 64
2, 297600, Note_on_c, 0, 88, 80
2, 298080, Note_off_c, 0, 88, 64
2, 298080, Note_on_c, 0, 89, 80
2, 298320, Note_off_c, 0, 89, 64
2, 298560, Note_on_c, 0, 91, 80
2, 298800, Note_off_c, 0, 91, 64
2, 299040, Note_on_c, 0, 89, 80
2, 299280, Note_off_c, 0, 89, 64
2, 299520, Note_on_c, 0, 88, 80
2, 300672, Note_off_c, 0, 88, 64
2, 300960, Note_on_c, 0, 86, 80
2, 301200, Note_off_c, 0, 86, 64
2, 301440, Note_on_c, 0, 84, 80
2, 301920, Note_off_c, 0, 84, 64
2, 301920, Note_on_c, 0, 86, 80
2, 302160, Note_off_c, 0, 86, 64
2, 302400, Note_on_c, 0, 82, 64
2, 302640, Note_off_c, 0, 82, 64
2, 302880, Note_on_c, 0, 79, 64
2, 303120, Note_off_c, 0, 79, 64
2, 303360, Note_on_c, 0, 76, 51
2, 305280, Note_off_c, 0, 76, 64
2, 312960, Note_on_c, 0, 69, 62
2, 312960, Note_on_c, 0, 84, 62
2, 313200, Note_off_c, 0, 84, 64
2, 313200, Note_off_c, 0, 69, 64
2, 314400, Note_on_c, 0, 77, 62
2, 314592, Note_off_c, 0, 77, 64
2, 314880, Note_on_c, 0, 77, 62
2, 315120, Note_off_c, 0, 77, 64
2, 315840, Note_on_c, 0, 76, 62
2, 316080, Note_off_c, 0, 76, 64
2, 320640, Note_on_c, 0, 84, 62
2, 320640, Note_on_c, 0, 69, 62
2, 320880, Note_off_c, 0, 69, 64
2, 320880, Note_off_c, 0, 84, 64
2, 322080, Note_on_c, 0, 77, 62
2, 322272, Note_off_c, 0, 77, 64
2, 322560, Note_on_c, 0, 77, 62
2, 322800, Note_off_c, 0, 77, 64
2, 323520, Note_on_c, 0, 76, 62
2, 323760, Note_off_c, 0, 76, 64
2, 328320, Note_on_c, 0, 86, 80
2, 330164, Note_off_c, 0, 86, 64
2, 330240, Note_on_c, 0, 84, 80
2, 332084, Note_off_c, 0, 84, 64
2, 332160, Note_on_c, 0, 84, 80
2, 334004, Note_off_c, 0, 84, 64
2, 334080, Note_on_c, 0, 84, 80
2, 335924, Note_off_c, 0, 84, 64
2, 336000, Note_on_c, 0, 89, 80
2, 339456, Note_off_c, 0, 89, 64
2, 339840, Note_on_c, 0, 89, 80
2, 341376, Note_off_c, 0, 89, 64
2, 341760, Note_on_c, 0, 88, 80
2, 343296, Note_off_c, 0, 88, 64
2, 343680, Note_on_c, 0, 89, 80
2, 344064, Note_off_c, 0, 89, 64
2, 349920, Note_on_c, 0, 84, 80
2, 350688, Note_off_c, 0, 84, 64
2, 350880, Note_on_c, 0, 84, 80
2, 351120, Note_off_c, 0, 84, 64
2, 351360, Note_on_c, 0, 89, 80
2, 351744, Note_off_c, 0, 89, 64
2, 357600, Note_on_c, 0, 84, 80
2, 358368, Note_off_c, 0, 84, 64
2, 358560, Note_on_c, 0, 84, 80
2, 358800, Note_off_c, 0, 84, 64
2, 359040, Note_on_c, 0, 89, 80
2, 359424, Note_off_c, 0, 89, 64
2, 361440, Note_on_c, 0, 84, 80
2, 362208, Note_off_c, 0, 84, 64
2, 362400, Note_on_c, 0, 84, 80
2, 362640, Note_off_c, 0, 84, 64
2, 362880, Note_on_c, 0, 77, 100
2, 364656, Note_off_c, 0, 77, 64
2, 364740, Note_on_c, 0, 77, 100
2, 364770, Note_off_c, 0, 77, 64
2, 364800, Note_on_c, 0, 81, 100
2, 364896, Note_off_c, 0, 81, 64
2, 366720, Note_on_c, 0, 84, 100
2, 368496, Note_off_c, 0, 84, 64
2, 368580, Note_on_c, 0, 84, 100
2, 368610, Note_off_c, 0, 84, 64
2, 368640, Note_on_c, 0, 84, 100
2, 368880, Note_off_c, 0, 84, 64
2, 370560, Note_on_c, 0, 84, 100
2, 370800, Note_off_c, 0, 84, 64
2, 372480, Note_on_c, 0, 84, 80
2, 372720, Note_off_c, 0, 84, 64
2, 373440, Note_on_c, 0, 84, 80
2, 373680, Note_off_c, 0, 84, 64
2, 374400, Note_on_c, 0, 84, 80
2, 374640, Note_off_c, 0, 84, 64
2, 375360, Note_on_c, 0, 84, 80
2, 375600, Note_off_c, 0, 84, 64
2, 376320, Note_on_c, 0, 86, 80
2, 376560, Note_off_c, 0, 86, 64
2, 391680, Note_on_c, 0, 84, 80
2, 391920, Note_off_c, 0, 84, 64
2, 393600, Note_on_c, 0, 84, 80
2, 393840, Note_off_c, 0, 84, 64
2, 394560, Note_on_c, 0, 84, 80
2, 394800, Note_off_c, 0, 84, 64
2, 395520, Note_on_c, 0, 86, 80
2, 395760, Note_off_c, 0, 86, 64
2, 397440, Note_on_c, 0, 86, 67
2, 397632, Note_off_c, 0, 86, 64
2, 397920, Note_on_c, 0, 89, 67
2, 398112, Note_off_c, 0, 89, 64
2, 398400, Note_on_c, 0, 82, 67
2, 398592, Note_off_c, 0, 82, 64
2, 398880, Note_on_c, 0, 86, 67
2, 399072, Note_off_c, 0, 86, 64
2, 399360, Note_on_c, 0, 79, 67
2, 399552, Note_off_c, 0, 79, 64
2, 399840, Note_on_c, 0, 87, 67
2, 400032, Note_off_c, 0, 87, 64
2, 400320, Note_on_c, 0, 84, 67
2, 400512, Note_off_c, 0, 84, 64
2, 400800, Note_on_c, 0, 82, 67
2, 400992, Note_off_c, 0, 82, 64
2, 401280, Note_on_c, 0, 81, 67
2, 401472, Note_off_c, 0, 81, 64
2, 401760, Note_on_c, 0, 89, 67
2, 401952, Note_off_c, 0, 89, 64
2, 402240, Note_on_c, 0, 87, 67
2, 402432, Note_off_c, 0, 87, 64
2, 402720, Note_on_c, 0, 84, 67
2, 402912, Note_off_c, 0, 84, 64
2, 403200, Note_on_c, 0, 82, 67
2, 403392, Note_off_c, 0, 82, 64
2, 403680, Note_on_c, 0, 91, 67
2, 404130, Note_off_c, 0, 91, 64
2, 404160, Note_on_c, 0, 89, 67
2, 404610, Note_off_c, 0, 89, 64
2, 404640, Note_on_c, 0, 87, 67
2, 405090, Note_off_c, 0, 87, 64
2, 405120, Note_on_c, 0, 86, 67
2, 405570, Note_off_c, 0, 86, 64
2, 405600, Note_on_c, 0, 84, 67
2, 406050, Note_off_c, 0, 84, 64
2, 406080, Note_on_c, 0, 82, 67
2, 406530, Note_off_c, 0, 82, 64
2, 406560, Note_on_c, 0, 84, 67
2, 407010, Note_off_c, 0, 84, 64
2, 407040, Note_on_c, 0, 82, 67
2, 410880, Note_off_c, 0, 82, 64
2, 410880, Note_on_c, 0, 81, 50
2, 411168, Note_off_c, 0, 81, 64
2, 411840, Note_on_c, 0, 87, 63
2, 412128, Note_off_c, 0, 87, 64
2, 413760, Note_on_c, 0, 86, 63
2, 414048, Note_off_c, 0, 86, 64
2, 415680, Note_on_c, 0, 87, 63
2, 415968, Note_off_c, 0, 87, 64
2, 417600, Note_on_c, 0, 84, 63
2, 417888, Note_off_c, 0, 84, 64
2, 439680, Note_on_c, 0, 88, 64
2, 441216, Note_off_c, 0, 88, 64
2, 441600, Note_on_c, 0, 90, 45
2, 445440, Note_off_c, 0, 90, 64
2, 445440, Note_on_c, 0, 89, 51
2, 449280, Note_off_c, 0, 89, 64
2, 449280, Note_on_c, 0, 82, 89
2, 452736, Note_off_c, 0, 82, 64
2, 453120, Note_on_c, 0, 87, 89
2, 454656, Note_off_c, 0, 87, 64
2, 455040, Note_on_c, 0, 89, 89
2, 456840, Note_off_c, 0, 89, 64
2, 456960, Note_on_c, 0, 86, 62
2, 460416, Note_off_c, 0, 86, 64
2, 460800, Note_on_c, 0, 79, 62
2, 462336, Note_off_c, 0, 79, 64
2, 462720, Note_on_c, 0, 81, 62
2, 464520, Note_off_c, 0, 81, 64
2, 464640, Note_on_c, 0, 82, 62
2, 466176, Note_off_c, 0, 82, 64
2, 466560, Note_on_c, 0, 85, 62
2, 468360, Note_off_c, 0, 85, 64
2, 468480, Note_on_c, 0, 86, 62
2, 470016, Note_off_c, 0, 86, 64
2, 470400, Note_on_c, 0, 88, 78
2, 470592, Note_off_c, 0, 88, 64
2, 470880, Note_on_c, 0, 84, 78
2, 471072, Note_off_c, 0, 84, 64
2, 471360, Note_on_c, 0, 84, 78
2, 471552, Note_off_c, 0, 84, 64
2, 471840, Note_on_c, 0, 84, 78
2, 472032, Note_off_c, 0, 84, 64
2, 472320, Note_on_c, 0, 84, 78
2, 472512, Note_off_c, 0, 84, 64
2, 472800, Note_on_c, 0, 84, 78
2, 472992, Note_off_c, 0, 84, 64
2, 473280, Note_on_c, 0, 84, 78
2, 473472, Note_off_c, 0, 84, 64
2, 473760, Note_on_c, 0, 84, 78
2, 473952, Note_off_c, 0, 84, 64
2, 474240, Note_on_c, 0, 84, 78
2, 474432, Note_off_c, 0, 84, 64
2, 474720, Note_on_c, 0, 84, 78
2, 474912, Note_off_c, 0, 84, 64
2, 475200, Note_on_c, 0, 84, 78
2, 475392, Note_off_c, 0, 84, 64
2, 475680, Note_on_c, 0, 84, 78
2, 475872, Note_off_c, 0, 84, 64
2, 476160, Note_on_c, 0, 84, 78
2, 476352, Note_off_c, 0, 84, 64
2, 484320, Note_on_c, 0, 84, 64
2, 485088, Note_off_c, 0, 84, 64
2, 485280, Note_on_c, 0, 84, 64
2, 486144, Note_off_c, 0, 84, 64
2, 486240, Note_on_c, 0, 84, 64
2, 487008, Note_off_c, 0, 84, 64
2, 487200, Note_on_c, 0, 84, 64
2, 488064, Note_off_c, 0, 84, 64
2, 488160, Note_on_c, 0, 84, 64
2, 488928, Note_off_c, 0, 84, 64
2, 489120, Note_on_c, 0, 84, 64
2, 489984, Note_off_c, 0, 84, 64
2, 490080, Note_on_c, 0, 86, 64
2, 491040, Note_off_c, 0, 86, 64
2, 491040, Note_on_c, 0, 84, 64
2, 491424, Note_off_c, 0, 84, 64
2, 491520, Note_on_c, 0, 84, 64
2, 491904, Note_off_c, 0, 84, 64
2, 506880, Note_on_c, 0, 89, 67
2, 507120, Note_off_c, 0, 89, 64
2, 507120, Note_on_c, 0, 86, 67
2, 507360, Note_off_c, 0, 86, 64
2, 507360, Note_on_c, 0, 88, 67
2, 507600, Note_off_c, 0, 88, 64
2, 507600, Note_on_c, 0, 85, 67
2, 507840, Note_off_c, 0, 85, 64
2, 507840, Note_on_c, 0, 86, 67
2, 508032, Note_off_c, 0, 86, 64
2, 508320, Note_on_c, 0, 81, 67
2, 508512, Note_off_c, 0, 81, 64
2, 508800, Note_on_c, 0, 86, 67
2, 508992, Note_off_c, 0, 86, 64
2, 509280, Note_on_c, 0, 88, 67
2, 509472, Note_off_c, 0, 88, 64
2, 509760, Note_on_c, 0, 89, 67
2, 509952, Note_off_c, 0, 89, 64
2, 510240, Note_on_c, 0, 91, 67
2, 510432, Note_off_c, 0, 91, 64
2, 510720, Note_on_c, 0, 93, 67
2, 512160, Note_off_c, 0, 93, 64
2, 512160, Note_on_c, 0, 91, 67
2, 512640, Note_off_c, 0, 91, 64
2, 512640, Note_on_c, 0, 89, 67
2, 514080, Note_off_c, 0, 89, 64
2, 514080, Note_on_c, 0, 86, 67
2, 514560, Note_off_c, 0, 86, 64
2, 514560, Note_on_c, 0, 85, 67
2, 516000, Note_off_c, 0, 85, 64
2, 516000, Note_on_c, 0, 88, 67
2, 516240, Note_off_c, 0, 88, 64
2, 516360, Note_on_c, 0, 88, 67
2, 516480, Note_off_c, 0, 88, 64
2, 516480, Note_on_c, 0, 86, 67
2, 516960, Note_off_c, 0, 86, 64
2, 516960, Note_on_c, 0, 85, 67
2, 517440, Note_off_c, 0, 85, 64
2, 517440, Note_on_c, 0, 86, 67
2, 517920, Note_off_c, 0, 86, 64
2, 517920, Note_on_c, 0, 82, 67
2, 517920, Note_on_c, 0, 82, 67
2, 518400, Note_off_c, 0, 82, 64
2, 518400, Note_off_c, 0, 82, 64
2, 518400, Note_on_c, 0, 81, 67
2, 518880, Note_off_c, 0, 81, 64
2, 547200, Note_on_c, 0, 84, 55
2, 547680, Note_off_c, 0, 84, 64
2, 548160, Note_on_c, 0, 84, 58
2, 548640, Note_off_c, 0, 84, 64
2, 549120, Note_on_c, 0, 84, 55
2, 549600, Note_off_c, 0, 84, 64
2, 550080, Note_on_c, 0, 84, 58
2, 550560, Note_off_c, 0, 84, 64
2, 551040, Note_on_c, 0, 84, 55
2, 551520, Note_off_c, 0, 84, 64
2, 552000, Note_on_c, 0, 84, 58
2, 552480, Note_off_c, 0, 84, 64
2, 552960, Note_on_c, 0, 84, 80
2, 553152, Note_off_c, 0, 84, 64
2, 554880, Note_on_c, 0, 86, 80
2, 555072, Note_off_c, 0, 86, 64
2, 556800, Note_on_c, 0, 81, 80
2, 556992, Note_off_c, 0, 81, 64
2, 558240, Note_on_c, 0, 81, 56
2, 558432, Note_off_c, 0, 81, 64
2, 558720, Note_on_c, 0, 79, 56
2, 558912, Note_off_c, 0, 79, 64
2, 559200, Note_on_c, 0, 79, 56
2, 559392, Note_off_c, 0, 79, 64
2, 559680, Note_on_c, 0, 79, 56
2, 559872, Note_off_c, 0, 79, 64
2, 560160, Note_on_c, 0, 79, 56
2, 560352, Note_off_c, 0, 79, 64
2, 560640, Note_on_c, 0, 84, 56
2, 560832, Note_off_c, 0, 84, 64
2, 561600, Note_on_c, 0, 86, 56
2, 561792, Note_off_c, 0, 86, 64
2, 562560, Note_on_c, 0, 81, 56
2, 562752, Note_off_c, 0, 81, 64
2, 563520, Note_on_c, 0, 79, 56
2, 563712, Note_off_c, 0, 79, 64
2, 564480, Note_on_c, 0, 77, 56
2, 564864, Note_off_c, 0, 77, 64
2, 579360, Note_on_c, 0, 82, 64
2, 579744, Note_off_c, 0, 82, 64
2, 579840, Note_on_c, 0, 81, 80
2, 580320, Note_off_c, 0, 81, 64
2, 580320, Note_on_c, 0, 82, 80
2, 580560, Note_off_c, 0, 82, 64
2, 580800, Note_on_c, 0, 84, 80
2, 581040, Note_off_c, 0, 84, 64
2, 581280, Note_on_c, 0, 72, 80
2, 581520, Note_off_c, 0, 72, 64
2, 581760, Note_on_c, 0, 77, 80
2, 582912, Note_off_c, 0, 77, 64
2, 583200, Note_on_c, 0, 79, 80
2, 583440, Note_off_c, 0, 79, 64
2, 583680, Note_on_c, 0, 81, 80
2, 584160, Note_off_c, 0, 81, 64
2, 584160, Note_on_c, 0, 77, 80
2, 584400, Note_off_c, 0, 77, 64
2, 584640, Note_on_c, 0, 81, 80
2, 584880, Note_off_c, 0, 81, 64
2, 585120, Note_on_c, 0, 82, 80
2, 585360, Note_off_c, 0, 82, 64
2, 585600, Note_on_c, 0, 84, 80
2, 586752, Note_off_c, 0, 84, 64
2, 587040, Note_on_c, 0, 86, 80
2, 587280, Note_off_c, 0, 86, 64
2, 587520, Note_on_c, 0, 88, 80
2, 588000, Note_off_c, 0, 88, 64
2, 588000, Note_on_c, 0, 89, 80
2, 588240, Note_off_c, 0, 89, 64
2, 588480, Note_on_c, 0, 91, 80
2, 588720, Note_off_c, 0, 91, 64
2, 588960, Note_on_c, 0, 89, 80
2, 589200, Note_off_c, 0, 89, 64
2, 589440, Note_on_c, 0, 88, 80
2, 590592, Note_off_c, 0, 88, 64
2, 590880, Note_on_c, 0, 86, 80
2, 591120, Note_off_c, 0, 86, 64
2, 591360, Note_on_c, 0, 84, 80
2, 591840, Note_off_c, 0, 84, 64
2, 591840, Note_on_c, 0, 86, 80
2, 592080, Note_off_c, 0, 86, 64
2, 592320, Note_on_c, 0, 82, 64
2, 592560, Note_off_c, 0, 82, 64
2, 592800, Note_on_c, 0, 79, 64
2, 593040, Note_off_c, 0, 79, 64
2, 593280, Note_on_c, 0, 76, 51
2, 595200, Note_off_c, 0, 76, 64
2, 602880, Note_on_c, 0, 69, 62
2, 602880, Note_on_c, 0, 84, 62
2, 603120, Note_off_c, 0, 84, 64
2, 603120, Note_off_c, 0, 69, 64
2, 604320, Note_on_c, 0, 77, 62
2, 604512, Note_off_c, 0, 77, 64
2, 604800, Note_on_c, 0, 77, 62
2, 605040, Note_off_c, 0, 77, 64
2, 605760, Note_on_c, 0, 76, 62
2, 606000, Note_off_c, 0, 76, 64
2, 610560, Note_on_c, 0, 84, 62
2, 610560, Note_on_c, 0, 69, 62
2, 610800, Note_off_c, 0, 69, 64
2, 610800, Note_off_c, 0, 84, 64
2, 612000, Note_on_c, 0, 77, 62
2, 612192, Note_off_c, 0, 77, 64
2, 612480, Note_on_c, 0, 77, 62
2, 612720, Note_off_c, 0, 77, 64
2, 613440, Note_on_c, 0, 76, 62
2, 613680, Note_off_c, 0, 76, 64
2, 618240, Note_on_c, 0, 86, 80
2, 620084, Note_off_c, 0, 86, 64
2, 620160, Note_on_c, 0, 84, 80
2, 622004, Note_off_c, 0, 84, 64
2, 622080, Note_on_c, 0, 84, 80
2, 623924, Note_off_c, 0, 84, 64
2, 624000, Note_on_c, 0, 84, 80
2, 625844, Note_off_c, 0, 84, 64
2, 625920, Note_on_c, 0, 89, 80
2, 629376, Note_off_c, 0, 89, 64
2, 629760, Note_on_c, 0, 89, 80
2, 631296, Note_off_c, 0, 89, 64
2, 631680, Note_on_c, 0, 88, 80
2, 633216, Note_off_c, 0, 88, 64
2, 633600, Note_on_c, 0, 89, 80
2, 633984, Note_off_c, 0, 89, 64
2, 639840, Note_on_c, 0, 84, 80
2, 640608, Note_off_c, 0, 84, 64
2, 640800, Note_on_c, 0, 84, 80
2, 641040, Note_off_c, 0, 84, 64
2, 641280, Note_on_c, 0, 89, 80
2, 641664, Note_off_c, 0, 89, 64
2, 647520, Note_on_c, 0, 84, 80
2, 648288, Note_off_c, 0, 84, 64
2, 648480, Note_on_c, 0, 84, 80
2, 648720, Note_off_c, 0, 84, 64
2, 648960, Note_on_c, 0, 77, 80
2, 649200, Note_off_c, 0, 77, 64
2, 649920, Note_on_c, 0, 79, 80
2, 650160, Note_off_c, 0, 79, 64
2, 650880, Note_on_c, 0, 81, 80
2, 651120, Note_off_c, 0, 81, 64
2, 651840, Note_on_c, 0, 82, 80
2, 652080, Note_off_c, 0, 82, 64
2, 652800, Note_on_c, 0, 84, 80
2, 653040, Note_off_c, 0, 84, 64
2, 660240, Note_on_c, 0, 77, 80
2, 660320, Note_off_c, 0, 77, 64
2, 660320, Note_on_c, 0, 79, 80
2, 660400, Note_off_c, 0, 79, 64
2, 660400, Note_on_c, 0, 81, 80
2, 660480, Note_off_c, 0, 81, 64
2, 660480, Note_on_c, 0, 82, 80
2, 660720, Note_off_c, 0, 82, 64
2, 667920, Note_on_c, 0, 76, 80
2, 668000, Note_off_c, 0, 76, 64
2, 668000, Note_on_c, 0, 77, 80
2, 668080, Note_off_c, 0, 77, 64
2, 668080, Note_on_c, 0, 79, 80
2, 668160, Note_off_c, 0, 79, 64
2, 668160, Note_on_c, 0, 81, 80
2, 668400, Note_off_c, 0, 81, 64
2, 672000, Note_on_c, 0, 91, 58
2, 675720, Note_off_c, 0, 91, 64
2, 675840, Note_on_c, 0, 89, 58
2, 679560, Note_off_c, 0, 89, 64
2, 679680, Note_on_c, 0, 84, 44
2, 683400, Note_off_c, 0, 84, 64
2, 683520, Note_on_c, 0, 81, 40
2, 684480, Note_off_c, 0, 81, 64
2, 707280, Note_on_c, 0, 76, 41
2, 707400, Note_off_c, 0, 76, 64
2, 707400, Note_on_c, 0, 78, 44
2, 707520, Note_off_c, 0, 78, 64
2, 707520, Note_on_c, 0, 79, 45
2, 707688, Note_off_c, 0, 79, 64
2, 708240, Note_on_c, 0, 79, 59
2, 708360, Note_off_c, 0, 79, 64
2, 708360, Note_on_c, 0, 81, 61
2, 708480, Note_off_c, 0, 81, 64
2, 708480, Note_on_c, 0, 83, 64
2, 708648, Note_off_c, 0, 83, 64
2, 709200, Note_on_c, 0, 83, 78
2, 709320, Note_off_c, 0, 83, 64
2, 709320, Note_on_c, 0, 85, 80
2, 709440, Note_off_c, 0, 85, 64
2, 709440, Note_on_c, 0, 86, 81
2, 709608, Note_off_c, 0, 86, 64
2, 710160, Note_on_c, 0, 86, 95
2, 710280, Note_off_c, 0, 86, 64
2, 710280, Note_on_c, 0, 88, 98
2, 710400, Note_off_c, 0, 88, 64
2, 710400, Note_on_c, 0, 90, 100
2, 710568, Note_off_c, 0, 90, 64
2, 710880, Note_on_c, 0, 86, 50
2, 711048, Note_off_c, 0, 86, 64
2, 711360, Note_on_c, 0, 81, 50
2, 711528, Note_off_c, 0, 81, 64
2, 711840, Note_on_c, 0, 86, 50
2, 712008, Note_off_c, 0, 86, 64
2, 712320, Note_on_c, 0, 78, 50
2, 712488, Note_off_c, 0, 78, 64
2, 712800, Note_on_c, 0, 81, 50
2, 712968, Note_off_c, 0, 81, 64
2, 713280, Note_on_c, 0, 74, 50
2, 713448, Note_off_c, 0, 74, 64
2, 713760, Note_on_c, 0, 78, 50
2, 713928, Note_off_c, 0, 78, 64
2, 714240, Note_on_c, 0, 71, 50
2, 714408, Note_off_c, 0, 71, 64
2, 714720, Note_on_c, 0, 79, 50
2, 714888, Note_off_c, 0, 79, 64
2, 715200, Note_on_c, 0, 76, 50
2, 715368, Note_off_c, 0, 76, 64
2, 715680, Note_on_c, 0, 74, 50
2, 715848, Note_off_c, 0, 74, 64
2, 716160, Note_on_c, 0, 73, 50
2, 716328, Note_off_c, 0, 73, 64
2, 716640, Note_on_c, 0, 81, 50
2, 716808, Note_off_c, 0, 81, 64
2, 717120, Note_on_c, 0, 79, 50
2, 717288, Note_off_c, 0, 79, 64
2, 717600, Note_on_c, 0, 76, 50
2, 717768, Note_off_c, 0, 76, 64
2, 718080, Note_on_c, 0, 74, 40
2, 718248, Note_off_c, 0, 74, 64
2, 726720, Note_on_c, 0, 79, 38
2, 728640, Note_off_c, 0, 79, 64
2, 728640, Note_on_c, 0, 81, 38
2, 729120, Note_off_c, 0, 81, 64
2, 729120, Note_on_c, 0, 82, 38
2, 729480, Note_off_c, 0, 82, 64
2, 729480, Note_on_c, 0, 86, 38
2, 729600, Note_off_c, 0, 86, 64
2, 729600, Note_on_c, 0, 84, 38
2, 730560, Note_off_c, 0, 84, 64
2, 730560, Note_on_c, 0, 82, 38
2, 731040, Note_off_c, 0, 82, 64
2, 731040, Note_on_c, 0, 84, 38
2, 731520, Note_off_c, 0, 84, 64
2, 731520, Note_on_c, 0, 81, 38
2, 732480, Note_off_c, 0, 81, 64
2, 732480, Note_on_c, 0, 86, 38
2, 733440, Note_off_c, 0, 86, 64
2, 733440, Note_on_c, 0, 79, 30
2, 733920, Note_off_c, 0, 79, 64
2, 741120, Note_on_c, 0, 75, 29
2, 741120, Note_on_c, 0, 91, 46
2, 741288, Note_off_c, 0, 91, 64
2, 741600, Note_on_c, 0, 87, 46
2, 741768, Note_off_c, 0, 87, 64
2, 742080, Note_on_c, 0, 82, 46
2, 742248, Note_off_c, 0, 82, 64
2, 742560, Note_on_c, 0, 87, 46
2, 742728, Note_off_c, 0, 87, 64
2, 743040, Note_on_c, 0, 79, 46
2, 743208, Note_off_c, 0, 79, 64
2, 743520, Note_on_c, 0, 82, 46
2, 743688, Note_off_c, 0, 82, 64
2, 744000, Note_off_c, 0, 75, 64
2, 744000, Note_on_c, 0, 77, 29
2, 744000, Note_on_c, 0, 75, 46
2, 744168, Note_off_c, 0, 75, 64
2, 744480, Note_off_c, 0, 77, 64
2, 744480, Note_on_c, 0, 79, 29
2, 744480, Note_on_c, 0, 79, 46
2, 744648, Note_off_c, 0, 79, 64
2, 744960, Note_off_c, 0, 79, 64
2, 744960, Note_on_c, 0, 80, 29
2, 744960, Note_on_c, 0, 72, 46
2, 745128, Note_off_c, 0, 72, 64
2, 745440, Note_on_c, 0, 80, 46
2, 745608, Note_off_c, 0, 80, 64
2, 745920, Note_off_c, 0, 80, 64
2, 745920, Note_on_c, 0, 79, 29
2, 745920, Note_on_c, 0, 77, 46
2, 746088, Note_off_c, 0, 77, 64
2, 746400, Note_off_c, 0, 79, 64
2, 746400, Note_on_c, 0, 75, 46
2, 746400, Note_on_c, 0, 80, 29
2, 746568, Note_off_c, 0, 75, 64
2, 746880, Note_off_c, 0, 80, 64
2, 746880, Note_on_c, 0, 77, 29
2, 746880, Note_on_c, 0, 74, 46
2, 747048, Note_off_c, 0, 74, 64
2, 747360, Note_on_c, 0, 82, 46
2, 747528, Note_off_c, 0, 82, 64
2, 747840, Note_off_c, 0, 77, 64
2, 747840, Note_on_c, 0, 80, 46
2, 747840, Note_on_c, 0, 82, 25
2, 748008, Note_off_c, 0, 80, 64
2, 748320, Note_on_c, 0, 77, 46
2, 748488, Note_off_c, 0, 77, 64
2, 748800, Note_off_c, 0, 82, 64
2, 748800, Note_on_c, 0, 75, 32
2, 749184, Note_off_c, 0, 75, 64
2, 750720, Note_on_c, 0, 87, 32
2, 754560, Note_off_c, 0, 87, 64
2, 754560, Note_on_c, 0, 86, 32
2, 756480, Note_off_c, 0, 86, 64
2, 756480, Note_on_c, 0, 87, 80
2, 759936, Note_off_c, 0, 87, 64
2, 760320, Note_on_c, 0, 87, 80
2, 761856, Note_off_c, 0, 87, 64
2, 762240, Note_on_c, 0, 87, 80
2, 762690, Note_off_c, 0, 87, 64
2, 763200, Note_on_c, 0, 87, 80
2, 763650, Note_off_c, 0, 87, 64
2, 764160, Note_on_c, 0, 87, 80
2, 764610, Note_off_c, 0, 87, 64
2, 771840, Note_on_c, 0, 86, 80
2, 775296, Note_off_c, 0, 86, 64
2, 775680, Note_on_c, 0, 86, 80
2, 777216, Note_off_c, 0, 86, 64
2, 777600, Note_on_c, 0, 86, 80
2, 778050, Note_off_c, 0, 86, 64
2, 778560, Note_on_c, 0, 86, 80
2, 779010, Note_off_c, 0, 86, 64
2, 779520, Note_on_c, 0, 86, 80
2, 779970, Note_off_c, 0, 86, 64
2, 787200, Note_on_c, 0, 85, 80
2, 790656, Note_off_c, 0, 85, 64
2, 791040, Note_on_c, 0, 85, 80
2, 792576, Note_off_c, 0, 85, 64
2, 792960, Note_on_c, 0, 85, 80
2, 793410, Note_off_c, 0, 85, 64
2, 793920, Note_on_c, 0, 85, 80
2, 794370, Note_off_c, 0, 85, 64
2, 794880, Note_on_c, 0, 85, 80
2, 795330, Note_off_c, 0, 85, 64
2, 796800, Note_on_c, 0, 85, 80
2, 797250, Note_off_c, 0, 85, 64
2, 798720, Note_on_c, 0, 85, 80
2, 799170, Note_off_c, 0, 85, 64
2, 800640, Note_on_c, 0, 85, 80
2, 801090, Note_off_c, 0, 85, 64
2, 802560, Note_on_c, 0, 85, 80
2, 803010, Note_off_c, 0, 85, 64
2, 806400, Note_on_c, 0, 85, 34
2, 806850, Note_off_c, 0, 85, 64
2, 810240, Note_on_c, 0, 85, 24
2, 810690, Note_off_c, 0, 85, 64
2, 876480, Note_on_c, 0, 73, 25
2, 876960, Note_off_c, 0, 73, 64
2, 876960, Note_on_c, 0, 76, 25
2, 877440, Note_off_c, 0, 76, 64
2, 877440, Note_on_c, 0, 82, 25
2, 877920, Note_off_c, 0, 82, 64
2, 877920, Note_on_c, 0, 85, 25
2, 878380, Note_off_c, 0, 85, 64
2, 878400, Note_on_c, 0, 85, 25
2, 878784, Note_off_c, 0, 85, 64
2, 878880, Note_on_c, 0, 85, 25
2, 879330, Note_off_c, 0, 85, 64
2, 879360, Note_on_c, 0, 86, 20
2, 880260, Note_off_c, 0, 86, 64
2, 933120, Note_on_c, 0, 86, 80
2, 938592, Note_off_c, 0, 86, 64
2, 938640, Note_on_c, 0, 82, 120
2, 938760, Note_off_c, 0, 82, 64
2, 938760, Note_on_c, 0, 84, 120
2, 938880, Note_off_c, 0, 84, 64
2, 938880, Note_on_c, 0, 86, 120
2, 939120, Note_off_c, 0, 86, 64
2, 939840, Note_on_c, 0, 82, 120
2, 939960, Note_off_c, 0, 82, 64
2, 939960, Note_on_c, 0, 84, 120
2, 940080, Note_off_c, 0, 84, 64
2, 940080, Note_on_c, 0, 86, 127
2, 940320, Note_off_c, 0, 86, 64
2, 941040, Note_on_c, 0, 82, 120
2, 941160, Note_off_c, 0, 82, 64
2, 941160, Note_on_c, 0, 84, 120
2, 941280, Note_off_c, 0, 84, 64
2, 941280, Note_on_c, 0, 86, 127
2, 941520, Note_off_c, 0, 86, 64
2, 943200, Note_on_c, 0, 86, 72
2, 943392, Note_off_c, 0, 86, 64
2, 943680, Note_on_c, 0, 89, 72
2, 943872, Note_off_c, 0, 89, 64
2, 944160, Note_on_c, 0, 82, 72
2, 944352, Note_off_c, 0, 82, 64
2, 944640, Note_on_c, 0, 86, 72
2, 944832, Note_off_c, 0, 86, 64
2, 945120, Note_on_c, 0, 79, 72
2, 945312, Note_off_c, 0, 79, 64
2, 945600, Note_on_c, 0, 87, 72
2, 945792, Note_off_c, 0, 87, 64
2, 946080, Note_on_c, 0, 84, 72
2, 946272, Note_off_c, 0, 84, 64
2, 946560, Note_on_c, 0, 82, 72
2, 946752, Note_off_c, 0, 82, 64
2, 947040, Note_on_c, 0, 81, 72
2, 947232, Note_off_c, 0, 81, 64
2, 947520, Note_on_c, 0, 89, 72
2, 947712, Note_off_c, 0, 89, 64
2, 948000, Note_on_c, 0, 87, 72
2, 948192, Note_off_c, 0, 87, 64
2, 948480, Note_on_c, 0, 84, 72
2, 948672, Note_off_c, 0, 84, 64
2, 948960, Note_on_c, 0, 82, 40
2, 952800, Note_off_c, 0, 82, 64
2, 952800, Note_on_c, 0, 79, 48
2, 954720, Note_off_c, 0, 79, 64
2, 954720, Note_on_c, 0, 77, 48
2, 956256, Note_off_c, 0, 77, 64
2, 956640, Note_on_c, 0, 77, 48
2, 957024, Note_off_c, 0, 77, 64
2, 957120, Note_on_c, 0, 79, 40
2, 957600, Note_off_c, 0, 79, 64
2, 957600, Note_on_c, 0, 77, 40
2, 958080, Note_off_c, 0, 77, 64
2, 958080, Note_on_c, 0, 75, 40
2, 958560, Note_off_c, 0, 75, 64
2, 958560, Note_on_c, 0, 74, 40
2, 959040, Note_off_c, 0, 74, 64
2, 959040, Note_on_c, 0, 72, 40
2, 959520, Note_off_c, 0, 72, 64
2, 959520, Note_on_c, 0, 70, 40
2, 960000, Note_off_c, 0, 70, 64
2, 960000, Note_on_c, 0, 72, 40
2, 960480, Note_off_c, 0, 72, 64
2, 960480, Note_on_c, 0, 70, 40
2, 964320, Note_off_c, 0, 70, 64
2, 964320, Note_on_c, 0, 69, 32
2, 964800, Note_off_c, 0, 69, 64
2, 964800, Note_on_c, 0, 87, 58
2, 965280, Note_off_c, 0, 87, 64
2, 965280, Note_on_c, 0, 84, 61
2, 965760, Note_off_c, 0, 84, 64
2, 965760, Note_on_c, 0, 86, 64
2, 966240, Note_off_c, 0, 86, 64
2, 966240, Note_on_c, 0, 83, 68
2, 966720, Note_off_c, 0, 83, 64
2, 966720, Note_on_c, 0, 84, 71
2, 967200, Note_off_c, 0, 84, 64
2, 967200, Note_on_c, 0, 87, 75
2, 967680, Note_off_c, 0, 87, 64
2, 967680, Note_on_c, 0, 81, 78
2, 968160, Note_off_c, 0, 81, 64
2, 968160, Note_on_c, 0, 82, 89
2, 971616, Note_off_c, 0, 82, 64
2, 972000, Note_on_c, 0, 87, 89
2, 973536, Note_off_c, 0, 87, 64
2, 973920, Note_on_c, 0, 89, 89
2, 975720, Note_off_c, 0, 89, 64
2, 975840, Note_on_c, 0, 86, 89
2, 978336, Note_off_c, 0, 86, 64
2, 978720, Note_on_c, 0, 91, 89
2, 979620, Note_off_c, 0, 91, 64
2, 979680, Note_on_c, 0, 87, 89
2, 981480, Note_off_c, 0, 87, 64
2, 981600, Note_on_c, 0, 92, 102
2, 983400, Note_off_c, 0, 92, 64
2, 983520, Note_on_c, 0, 89, 102
2, 986016, Note_off_c, 0, 89, 64
2, 986400, Note_on_c, 0, 82, 102
2, 987168, Note_off_c, 0, 82, 64
2, 987360, Note_on_c, 0, 79, 127
2, 988128, Note_off_c, 0, 79, 64
2, 988320, Note_on_c, 0, 84, 127
2, 989088, Note_off_c, 0, 84, 64
2, 989280, Note_on_c, 0, 81, 127
2, 990048, Note_off_c, 0, 81, 64
2, 990240, Note_on_c, 0, 86, 127
2, 991008, Note_off_c, 0, 86, 64
2, 991200, Note_on_c, 0, 82, 127
2, 991968, Note_off_c, 0, 82, 64
2, 992160, Note_on_c, 0, 87, 127
2, 992928, Note_off_c, 0, 87, 64
2, 993120, Note_on_c, 0, 84, 102
2, 993888, Note_off_c, 0, 84, 64
2, 994080, Note_on_c, 0, 89, 102
2, 994848, Note_off_c, 0, 89, 64
2, 995040, Note_on_c, 0, 86, 104
2, 999648, Note_off_c, 0, 86, 64
2, 999840, Note_on_c, 0, 89, 104
2, 1000608, Note_off_c, 0, 89, 64
2, 1000800, Note_on_c, 0, 86, 104
2, 1001568, Note_off_c, 0, 86, 64
2, 1001760, Note_on_c, 0, 82, 104
2, 1002528, Note_off_c, 0, 82, 64
2, 1002720, Note_on_c, 0, 77, 78
2, 1002912, Note_off_c, 0, 77, 64
2, 1010880, Note_on_c, 0, 89, 64
2, 1011648, Note_off_c, 0, 89, 64
2, 1011840, Note_on_c, 0, 89, 64
2, 1012704, Note_off_c, 0, 89, 64
2, 1012800, Note_on_c, 0, 89, 64
2, 1013568, Note_off_c, 0, 89, 64
2, 1013760, Note_on_c, 0, 89, 64
2, 1014624, Note_off_c, 0, 89, 64
2, 1014720, Note_on_c, 0, 89, 64
2, 1015488, Note_off_c, 0, 89, 64
2, 1015680, Note_on_c, 0, 89, 64
2, 1016544, Note_off_c, 0, 89, 64
2, 1016640, Note_on_c, 0, 91, 64
2, 1017600, Note_off_c, 0, 91, 64
2, 1017600, Note_on_c, 0, 89, 64
2, 1017984, Note_off_c, 0, 89, 64
2, 1044960, Note_on_c, 0, 86, 40
2, 1045440, Note_off_c, 0, 86, 64
2, 1045440, Note_on_c, 0, 85, 40
2, 1045920, Note_off_c, 0, 85, 64
2, 1045920, Note_on_c, 0, 86, 40
2, 1046400, Note_off_c, 0, 86, 64
2, 1046400, Note_on_c, 0, 84, 40
2, 1046880, Note_off_c, 0, 84, 64
2, 1046880, Note_on_c, 0, 82, 40
2, 1047360, Note_off_c, 0, 82, 64
2, 1047360, Note_on_c, 0, 81, 40
2, 1047840, Note_off_c, 0, 81, 64
2, 1047840, Note_on_c, 0, 82, 40
2, 1048320, Note_off_c, 0, 82, 64
2, 1048320, Note_on_c, 0, 79, 40
2, 1048800, Note_off_c, 0, 79, 64
2, 1048800, Note_on_c, 0, 78, 40
2, 1049280, Note_off_c, 0, 78, 64
2, 1049280, Note_on_c, 0, 76, 40
2, 1049760, Note_off_c, 0, 76, 64
2, 1049760, Note_on_c, 0, 78, 40
2, 1050240, Note_off_c, 0, 78, 64
2, 1050240, Note_on_c, 0, 81, 40
2, 1050456, Note_off_c, 0, 81, 64
2, 1050600, Note_on_c, 0, 81, 40
2, 1050720, Note_off_c, 0, 81, 64
2, 1050720, Note_on_c, 0, 79, 40
2, 1051200, Note_off_c, 0, 79, 64
2, 1051200, Note_on_c, 0, 78, 40
2, 1051680, Note_off_c, 0, 78, 64
2, 1051680, Note_on_c, 0, 79, 40
2, 1052160, Note_off_c, 0, 79, 64
2, 1052160, Note_on_c, 0, 75, 40
2, 1052640, Note_off_c, 0, 75, 64
2, 1052640, Note_on_c, 0, 74, 32
2, 1053120, Note_off_c, 0, 74, 64
2, 1053600, Note_on_c, 0, 75, 32
2, 1054080, Note_off_c, 0, 75, 64
2, 1054560, Note_on_c, 0, 72, 32
2, 1055040, Note_off_c, 0, 72, 64
2, 1055520, Note_on_c, 0, 76, 32
2, 1056000, Note_off_c, 0, 76, 64
2, 1056480, Note_on_c, 0, 77, 32
2, 1056960, Note_off_c, 0, 77, 64
2, 1057440, Note_on_c, 0, 74, 32
2, 1057920, Note_off_c, 0, 74, 64
2, 1058400, Note_on_c, 0, 77, 31
2, 1058880, Note_off_c, 0, 77, 64
2, 1059360, Note_on_c, 0, 79, 36
2, 1059840, Note_off_c, 0, 79, 64
2, 1060320, Note_on_c, 0, 75, 40
2, 1060800, Note_off_c, 0, 75, 64
2, 1061280, Note_on_c, 0, 79, 44
2, 1061760, Note_off_c, 0, 79, 64
2, 1062240, Note_on_c, 0, 81, 49
2, 1062720, Note_off_c, 0, 81, 64
2, 1063200, Note_on_c, 0, 77, 53
2, 1063680, Note_off_c, 0, 77, 64
2, 1064160, Note_on_c, 0, 81, 57
2, 1064640, Note_off_c, 0, 81, 64
2, 1065120, Note_on_c, 0, 82, 61
2, 1065600, Note_off_c, 0, 82, 64
2, 1066080, Note_on_c, 0, 79, 66
2, 1066560, Note_off_c, 0, 79, 64
2, 1067040, Note_on_c, 0, 83, 70
2, 1067520, Note_off_c, 0, 83, 64
2, 1068000, Note_on_c, 0, 84, 74
2, 1068480, Note_off_c, 0, 84, 64
2, 1068960, Note_on_c, 0, 81, 79
2, 1069440, Note_off_c, 0, 81, 64
2, 1069920, Note_on_c, 0, 84, 58
2, 1070400, Note_off_c, 0, 84, 64
2, 1070880, Note_on_c, 0, 86, 61
2, 1071360, Note_off_c, 0, 86, 64
2, 1071840, Note_on_c, 0, 87, 64
2, 1072320, Note_off_c, 0, 87, 64
2, 1072800, Note_on_c, 0, 88, 67
2, 1073280, Note_off_c, 0, 88, 64
2, 1073760, Note_on_c, 0, 89, 64
2, 1074240, Note_off_c, 0, 89, 64
2, 1074720, Note_on_c, 0, 89, 67
2, 1075200, Note_off_c, 0, 89, 64
2, 1075680, Note_on_c, 0, 89, 64
2, 1076160, Note_off_c, 0, 89, 64
2, 1076640, Note_on_c, 0, 89, 67
2, 1077120, Note_off_c, 0, 89, 64
2, 1077600, Note_on_c, 0, 89, 64
2, 1078080, Note_off_c, 0, 89, 64
2, 1078560, Note_on_c, 0, 89, 67
2, 1079040, Note_off_c, 0, 89, 64
2, 1079520, Note_on_c, 0, 89, 80
2, 1080960, Note_off_c, 0, 89, 64
2, 1080960, Note_on_c, 0, 86, 80
2, 1081248, Note_off_c, 0, 86, 64
2, 1081440, Note_on_c, 0, 91, 80
2, 1082880, Note_off_c, 0, 91, 64
2, 1082880, Note_on_c, 0, 87, 80
2, 1083168, Note_off_c, 0, 87, 64
2, 1083360, Note_on_c, 0, 86, 80
2, 1084512, Note_off_c, 0, 86, 64
2, 1084800, Note_on_c, 0, 86, 80
2, 1085088, Note_off_c, 0, 86, 64
2, 1085280, Note_on_c, 0, 84, 80
2, 1085568, Note_off_c, 0, 84, 64
2, 1085760, Note_on_c, 0, 84, 80
2, 1086048, Note_off_c, 0, 84, 64
2, 1086240, Note_on_c, 0, 84, 80
2, 1086360, Note_off_c, 0, 84, 64
2, 1086360, Note_on_c, 0, 86, 80
2, 1086480, Note_off_c, 0, 86, 64
2, 1086480, Note_on_c, 0, 84, 80
2, 1086600, Note_off_c, 0, 84, 64
2, 1086600, Note_on_c, 0, 86, 80
2, 1086720, Note_off_c, 0, 86, 64
2, 1086720, Note_on_c, 0, 84, 80
2, 1086840, Note_off_c, 0, 84, 64
2, 1086840, Note_on_c, 0, 86, 80
2, 1086960, Note_off_c, 0, 86, 64
2, 1086960, Note_on_c, 0, 82, 80
2, 1087080, Note_off_c, 0, 82, 64
2, 1087080, Note_on_c, 0, 84, 80
2, 1087200, Note_off_c, 0, 84, 64
2, 1087200, Note_on_c, 0, 89, 80
2, 1087680, Note_off_c, 0, 89, 64
2, 1087680, Note_on_c, 0, 86, 80
2, 1087920, Note_off_c, 0, 86, 64
2, 1088160, Note_on_c, 0, 91, 80
2, 1088640, Note_off_c, 0, 91, 64
2, 1088640, Note_on_c, 0, 87, 80
2, 1088880, Note_off_c, 0, 87, 64
2, 1089120, Note_on_c, 0, 86, 80
2, 1089408, Note_off_c, 0, 86, 64
2, 1089600, Note_on_c, 0, 86, 80
2, 1089888, Note_off_c, 0, 86, 64
2, 1090080, Note_on_c, 0, 84, 80
2, 1090200, Note_off_c, 0, 84, 64
2, 1090200, Note_on_c, 0, 86, 80
2, 1090320, Note_off_c, 0, 86, 64
2, 1090320, Note_on_c, 0, 84, 80
2, 1090440, Note_off_c, 0, 84, 64
2, 1090440, Note_on_c, 0, 86, 80
2, 1090560, Note_off_c, 0, 86, 64
2, 1090560, Note_on_c, 0, 84, 80
2, 1090680, Note_off_c, 0, 84, 64
2, 1090680, Note_on_c, 0, 86, 80
2, 1090800, Note_off_c, 0, 86, 64
2, 1090800, Note_on_c, 0, 82, 80
2, 1090920, Note_off_c, 0, 82, 64
2, 1090920, Note_on_c, 0, 84, 80
2, 1091040, Note_off_c, 0, 84, 64
2, 1091040, Note_on_c, 0, 82, 56
2, 1091424, Note_off_c, 0, 82, 64
2, 1092960, Note_on_c, 0, 62, 43
2, 1093440, Note_off_c, 0, 62, 64
2, 1093440, Note_on_c, 0, 63, 43
2, 1093920, Note_off_c, 0, 63, 64
2, 1093920, Note_on_c, 0, 65, 43
2, 1094400, Note_off_c, 0, 65, 64
2, 1094400, Note_on_c, 0, 53, 43
2, 1094880, Note_off_c, 0, 53, 64
2, 1094880, Note_on_c, 0, 58, 43
2, 1096320, Note_off_c, 0, 58, 64
2, 1096320, Note_on_c, 0, 60, 43
2, 1096800, Note_off_c, 0, 60, 64
2, 1096800, Note_on_c, 0, 62, 43
2, 1097280, Note_off_c, 0, 62, 64
2, 1097280, Note_on_c, 0, 58, 43
2, 1097760, Note_off_c, 0, 58, 64
2, 1097760, Note_on_c, 0, 62, 43
2, 1098240, Note_off_c, 0, 62, 64
2, 1098240, Note_on_c, 0, 63, 43
2, 1098720, Note_off_c, 0, 63, 64
2, 1098720, Note_on_c, 0, 65, 43
2, 1100160, Note_off_c, 0, 65, 64
2, 1100160, Note_on_c, 0, 67, 43
2, 1100640, Note_off_c, 0, 67, 64
2, 1100640, Note_on_c, 0, 69, 43
2, 1101120, Note_off_c, 0, 69, 64
2, 1101120, Note_on_c, 0, 70, 43
2, 1101600, Note_off_c, 0, 70, 64
2, 1101600, Note_on_c, 0, 72, 43
2, 1102080, Note_off_c, 0, 72, 64
2, 1102080, Note_on_c, 0, 70, 43
2, 1102560, Note_off_c, 0, 70, 64
2, 1102560, Note_on_c, 0, 69, 43
2, 1104000, Note_off_c, 0, 69, 64
2, 1104000, Note_on_c, 0, 67, 43
2, 1104480, Note_off_c, 0, 67, 64
2, 1104480, Note_on_c, 0, 65, 43
2, 1104960, Note_off_c, 0, 65, 64
2, 1104960, Note_on_c, 0, 67, 43
2, 1105440, Note_off_c, 0, 67, 64
2, 1105440, Note_on_c, 0, 63, 43
2, 1105920, Note_off_c, 0, 63, 64
2, 1105920, Note_on_c, 0, 89, 80
2, 1106160, Note_off_c, 0, 89, 64
2, 1106400, Note_on_c, 0, 86, 80
2, 1106880, Note_off_c, 0, 86, 64
2, 1106880, Note_on_c, 0, 87, 80
2, 1107120, Note_off_c, 0, 87, 64
2, 1107360, Note_on_c, 0, 89, 80
2, 1107600, Note_off_c, 0, 89, 64
2, 1107840, Note_on_c, 0, 77, 80
2, 1108080, Note_off_c, 0, 77, 64
2, 1108320, Note_on_c, 0, 82, 80
2, 1109472, Note_off_c, 0, 82, 64
2, 1109760, Note_on_c, 0, 84, 80
2, 1110000, Note_off_c, 0, 84, 64
2, 1110240, Note_on_c, 0, 86, 80
2, 1110720, Note_off_c, 0, 86, 64
2, 1110720, Note_on_c, 0, 82, 80
2, 1110960, Note_off_c, 0, 82, 64
2, 1111200, Note_on_c, 0, 86, 80
2, 1111440, Note_off_c, 0, 86, 64
2, 1111680, Note_on_c, 0, 87, 80
2, 1111920, Note_off_c, 0, 87, 64
2, 1112160, Note_on_c, 0, 89, 80
2, 1113312, Note_off_c, 0, 89, 64
2, 1113600, Note_on_c, 0, 91, 80
2, 1113840, Note_off_c, 0, 91, 64
2, 1114080, Note_on_c, 0, 93, 80
2, 1114560, Note_off_c, 0, 93, 64
2, 1114560, Note_on_c, 0, 94, 80
2, 1114800, Note_off_c, 0, 94, 64
2, 1115040, Note_on_c, 0, 96, 80
2, 1115280, Note_off_c, 0, 96, 64
2, 1115520, Note_on_c, 0, 94, 80
2, 1115760, Note_off_c, 0, 94, 64
2, 1116000, Note_on_c, 0, 93, 80
2, 1117152, Note_off_c, 0, 93, 64
2, 1117440, Note_on_c, 0, 91, 80
2, 1117680, Note_off_c, 0, 91, 64
2, 1117920, Note_on_c, 0, 89, 80
2, 1118400, Note_off_c, 0, 89, 64
2, 1118400, Note_on_c, 0, 91, 80
2, 1118640, Note_off_c, 0, 91, 64
2, 1118880, Note_on_c, 0, 87, 64
2, 1119120, Note_off_c, 0, 87, 64
2, 1119360, Note_on_c, 0, 84, 64
2, 1119600, Note_off_c, 0, 84, 64
2, 1119840, Note_on_c, 0, 81, 51
2, 1121640, Note_off_c, 0, 81, 64
2, 1129440, Note_on_c, 0, 89, 62
2, 1129680, Note_off_c, 0, 89, 64
2, 1130880, Note_on_c, 0, 82, 62
2, 1131072, Note_off_c, 0, 82, 64
2, 1131360, Note_on_c, 0, 82, 62
2, 1131600, Note_off_c, 0, 82, 64
2, 1132320, Note_on_c, 0, 81, 62
2, 1132560, Note_off_c, 0, 81, 64
2, 1137120, Note_on_c, 0, 89, 62
2, 1137360, Note_off_c, 0, 89, 64
2, 1138560, Note_on_c, 0, 82, 62
2, 1138752, Note_off_c, 0, 82, 64
2, 1139040, Note_on_c, 0, 82, 62
2, 1139280, Note_off_c, 0, 82, 64
2, 1140000, Note_on_c, 0, 81, 62
2, 1140240, Note_off_c, 0, 81, 64
2, 1144800, Note_on_c, 0, 91, 80
2, 1146336, Note_off_c, 0, 91, 64
2, 1146720, Note_on_c, 0, 89, 80
2, 1148256, Note_off_c, 0, 89, 64
2, 1148640, Note_on_c, 0, 89, 80
2, 1150176, Note_off_c, 0, 89, 64
2, 1150560, Note_on_c, 0, 89, 80
2, 1152096, Note_off_c, 0, 89, 64
2, 1152480, Note_on_c, 0, 85, 80
2, 1155936, Note_off_c, 0, 85, 64
2, 1156320, Note_on_c, 0, 86, 80
2, 1157856, Note_off_c, 0, 86, 64
2, 1158240, Note_on_c, 0, 84, 80
2, 1159776, Note_off_c, 0, 84, 64
2, 1160160, Note_on_c, 0, 82, 127
2, 1160544, Note_off_c, 0, 82, 64
2, 1160640, Note_on_c, 0, 86, 78
2, 1161552, Note_off_c, 0, 86, 64
2, 1161600, Note_on_c, 0, 87, 78
2, 1162536, Note_off_c, 0, 87, 64
2, 1162560, Note_on_c, 0, 89, 78
2, 1163472, Note_off_c, 0, 89, 64
2, 1163520, Note_on_c, 0, 82, 78
2, 1164456, Note_off_c, 0, 82, 64
2, 1164480, Note_on_c, 0, 84, 78
2, 1165392, Note_off_c, 0, 84, 64
2, 1165440, Note_on_c, 0, 86, 78
2, 1166376, Note_off_c, 0, 86, 64
2, 1166400, Note_on_c, 0, 77, 112
2, 1167312, Note_off_c, 0, 77, 64
2, 1167360, Note_on_c, 0, 81, 112
2, 1167600, Note_off_c, 0, 81, 64
2, 1167840, Note_on_c, 0, 82, 127
2, 1168224, Note_off_c, 0, 82, 64
2, 1168320, Note_on_c, 0, 86, 78
2, 1169232, Note_off_c, 0, 86, 64
2, 1169280, Note_on_c, 0, 87, 78
2, 1170216, Note_off_c, 0, 87, 64
2, 1170240, Note_on_c, 0, 89, 78
2, 1171152, Note_off_c, 0, 89, 64
2, 1171200, Note_on_c, 0, 82, 78
2, 1172136, Note_off_c, 0, 82, 64
2, 1172160, Note_on_c, 0, 84, 78
2, 1173072, Note_off_c, 0, 84, 64
2, 1173120, Note_on_c, 0, 86, 78
2, 1174056, Note_off_c, 0, 86, 64
2, 1174080, Note_on_c, 0, 77, 112
2, 1174992, Note_off_c, 0, 77, 64
2, 1175040, Note_on_c, 0, 81, 112
2, 1175280, Note_off_c, 0, 81, 64
2, 1175520, Note_on_c, 0, 82, 78
2, 1175976, Note_off_c, 0, 82, 64
2, 1176000, Note_on_c, 0, 84, 78
2, 1176912, Note_off_c, 0, 84, 64
2, 1176960, Note_on_c, 0, 86, 78
2, 1177896, Note_off_c, 0, 86, 64
2, 1177920, Note_on_c, 0, 77, 112
2, 1178832, Note_off_c, 0, 77, 64
2, 1178880, Note_on_c, 0, 81, 112
2, 1179120, Note_off_c, 0, 81, 64
2, 1179360, Note_on_c, 0, 81, 112
2, 1182946, Note_off_c, 0, 81, 64
2, 1183080, Note_on_c, 0, 81, 112
2, 1183194, Note_off_c, 0, 81, 64
2, 1183200, Note_on_c, 0, 84, 112
2, 1183392, Note_off_c, 0, 84, 64
2, 1185120, Note_on_c, 0, 84, 112
2, 1185312, Note_off_c, 0, 84, 64
2, 1187040, Note_on_c, 0, 84, 112
2, 1187232, Note_off_c, 0, 84, 64
2, 1188000, Note_on_c, 0, 84, 112
2, 1188192, Note_off_c, 0, 84, 64
2, 1188960, Note_on_c, 0, 84, 112
2, 1189152, Note_off_c, 0, 84, 64
2, 1189920, Note_on_c, 0, 84, 112
2, 1190112, Note_off_c, 0, 84, 64
2, 1190880, Note_on_c, 0, 82, 112
2, 1191072, Note_off_c, 0, 82, 64
2, 1192800, Note_on_c, 0, 82, 67
2, 1192992, Note_off_c, 0, 82, 64
2, 1194720, Note_on_c, 0, 82, 67
2, 1194912, Note_off_c, 0, 82, 64
2, 1196640, Note_on_c, 0, 82, 67
2, 1196832, Note_off_c, 0, 82, 64
2, 1198560, Note_on_c, 0, 86, 112
2, 1198752, Note_off_c, 0, 86, 64
2, 1200480, Note_on_c, 0, 86, 67
2, 1200672, Note_off_c, 0, 86, 64
2, 1202400, Note_on_c, 0, 86, 67
2, 1202592, Note_off_c, 0, 86, 64
2, 1204320, Note_on_c, 0, 86, 67
2, 1204512, Note_off_c, 0, 86, 64
2, 1210080, Note_on_c, 0, 81, 76
2, 1211616, Note_off_c, 0, 81, 64
2, 1212000, Note_on_c, 0, 81, 76
2, 1213584, Note_off_c, 0, 81, 64
2, 1213800, Note_on_c, 0, 81, 76
2, 1213896, Note_off_c, 0, 81, 64
2, 1213920, Note_on_c, 0, 82, 116
2, 1214112, Note_off_c, 0, 82, 64
2, 1217760, Note_on_c, 0, 81, 76
2, 1219296, Note_off_c, 0, 81, 64
2, 1219680, Note_on_c, 0, 81, 76
2, 1221264, Note_off_c, 0, 81, 64
2, 1221480, Note_on_c, 0, 81, 76
2, 1221576, Note_off_c, 0, 81, 64
2, 1229280, Note_on_c, 0, 82, 80
2, 1232736, Note_off_c, 0, 82, 64
2, 1233120, Note_on_c, 0, 84, 75
2, 1236576, Note_off_c, 0, 84, 64
2, 1236960, Note_on_c, 0, 82, 101
2, 1244256, Note_off_c, 0, 82, 64
2, 1244640, Note_on_c, 0, 82, 120
2, 1244880, Note_off_c, 0, 82, 64
2, 1245600, Note_on_c, 0, 82, 120
2, 1245840, Note_off_c, 0, 82, 64
2, 1246560, Note_on_c, 0, 82, 120
2, 1246800, Note_off_c, 0, 82, 64
2, 1248480, Note_on_c, 0, 82, 120
2, 1248720, Note_off_c, 0, 82, 64
2, 1250400, Note_on_c, 0, 70, 120
2, 1250640, Note_off_c, 0, 70, 64
2, 1257600, Note_on_c, 0, 58, 1
2, 1257624, Note_off_c, 0, 58, 64
2, 1257624, End_track
3, 0, Start_track
3, 0, Title_t, "Oboe"
3, 0, MIDI_port, 0
3, 0, Channel_prefix, 1
3, 0, Control_c, 1, 7, 74
3, 0, Control_c, 1, 10, 70
3, 0, Program_c, 1, 68
3, 480, Program_c, 1, 68
3, 480, Control_c, 1, 91, 85
3, 480, Control_c, 1, 7, 90
3, 480, Control_c, 1, 10, 71
3, 5700, Control_c, 1, 7, 75
3, 24480, Note_on_c, 1, 75, 30
3, 24480, Note_on_c, 1, 72, 30
3, 24672, Note_off_c, 1, 72, 64
3, 24672, Note_off_c, 1, 75, 64
3, 24960, Note_on_c, 1, 72, 30
3, 24960, Note_on_c, 1, 75, 30
3, 25152, Note_off_c, 1, 75, 64
3, 25152, Note_off_c, 1, 72, 64
3, 26400, Note_on_c, 1, 75, 30
3, 26400, Note_on_c, 1, 72, 30
3, 26592, Note_off_c, 1, 72, 64
3, 26592, Note_off_c, 1, 75, 64
3, 26880, Note_on_c, 1, 72, 30
3, 26880, Note_on_c, 1, 75, 30
3, 27072, Note_off_c, 1, 75, 64
3, 27072, Note_off_c, 1, 72, 64
3, 27360, Note_on_c, 1, 75, 30
3, 27360, Note_on_c, 1, 72, 30
3, 27552, Note_off_c, 1, 72, 64
3, 27552, Note_off_c, 1, 75, 64
3, 27840, Note_on_c, 1, 72, 30
3, 27840, Note_on_c, 1, 75, 30
3, 28032, Note_off_c, 1, 75, 64
3, 28032, Note_off_c, 1, 72, 64
3, 28320, Note_on_c, 1, 72, 30
3, 28320, Note_on_c, 1, 75, 30
3, 28512, Note_off_c, 1, 75, 64
3, 28512, Note_off_c, 1, 72, 64
3, 28800, Note_on_c, 1, 70, 30
3, 28992, Note_off_c, 1, 70, 64
3, 47520, Note_on_c, 1, 73, 30
3, 47520, Note_on_c, 1, 76, 30
3, 47712, Note_off_c, 1, 76, 64
3, 47712, Note_off_c, 1, 73, 64
3, 48000, Note_on_c, 1, 76, 30
3, 48000, Note_on_c, 1, 73, 30
3, 48192, Note_off_c, 1, 73, 64
3, 48192, Note_off_c, 1, 76, 64
3, 49440, Note_on_c, 1, 76, 30
3, 49440, Note_on_c, 1, 73, 30
3, 49632, Note_off_c, 1, 73, 64
3, 49632, Note_off_c, 1, 76, 64
3, 49920, Note_on_c, 1, 76, 30
3, 49920, Note_on_c, 1, 73, 30
3, 50112, Note_off_c, 1, 73, 64
3, 50112, Note_off_c, 1, 76, 64
3, 50400, Note_on_c, 1, 76, 30
3, 50400, Note_on_c, 1, 73, 30
3, 50592, Note_off_c, 1, 73, 64
3, 50592, Note_off_c, 1, 76, 64
3, 50880, Note_on_c, 1, 73, 30
3, 50880, Note_on_c, 1, 76, 30
3, 51072, Note_off_c, 1, 76, 64
3, 51072, Note_off_c, 1, 73, 64
3, 51360, Note_on_c, 1, 73, 30
3, 51360, Note_on_c, 1, 76, 30
3, 51552, Note_off_c, 1, 76, 64
3, 51552, Note_off_c, 1, 73, 64
3, 51840, Note_on_c, 1, 71, 30
3, 55680, Note_off_c, 1, 71, 64
3, 55680, Note_on_c, 1, 72, 30
3, 57600, Note_off_c, 1, 72, 64
3, 57600, Note_on_c, 1, 73, 30
3, 59520, Note_off_c, 1, 73, 64
3, 59520, Note_on_c, 1, 74, 30
3, 60932, Note_off_c, 1, 74, 64
3, 60960, Note_on_c, 1, 77, 51
3, 60960, Note_on_c, 1, 74, 51
3, 61440, Control_c, 1, 7, 72
3, 61468, Control_c, 1, 7, 71
3, 61492, Control_c, 1, 7, 70
3, 61520, Control_c, 1, 7, 69
3, 61548, Control_c, 1, 7, 68
3, 61572, Control_c, 1, 7, 67
3, 61588, Control_c, 1, 7, 66
3, 61612, Control_c, 1, 7, 65
3, 61640, Control_c, 1, 7, 64
3, 61668, Control_c, 1, 7, 63
3, 61692, Control_c, 1, 7, 62
3, 61720, Control_c, 1, 7, 61
3, 61732, Control_c, 1, 7, 60
3, 61760, Control_c, 1, 7, 59
3, 61788, Control_c, 1, 7, 58
3, 61812, Control_c, 1, 7, 57
3, 61840, Control_c, 1, 7, 56
3, 61868, Control_c, 1, 7, 55
3, 61880, Control_c, 1, 7, 54
3, 61908, Control_c, 1, 7, 53
3, 61932, Control_c, 1, 7, 52
3, 61960, Control_c, 1, 7, 51
3, 61988, Control_c, 1, 7, 50
3, 62012, Control_c, 1, 7, 49
3, 62028, Control_c, 1, 7, 48
3, 62052, Control_c, 1, 7, 47
3, 62080, Control_c, 1, 7, 46
3, 62108, Control_c, 1, 7, 45
3, 62132, Control_c, 1, 7, 44
3, 62160, Control_c, 1, 7, 43
3, 62172, Control_c, 1, 7, 42
3, 62200, Control_c, 1, 7, 41
3, 62228, Control_c, 1, 7, 40
3, 62252, Control_c, 1, 7, 39
3, 62280, Control_c, 1, 7, 38
3, 62308, Control_c, 1, 7, 37
3, 62320, Control_c, 1, 7, 36
3, 62348, Control_c, 1, 7, 35
3, 62372, Control_c, 1, 7, 34
3, 62400, Control_c, 1, 7, 33
3, 62428, Control_c, 1, 7, 32
3, 62452, Control_c, 1, 7, 31
3, 62468, Control_c, 1, 7, 30
3, 62492, Control_c, 1, 7, 29
3, 62520, Control_c, 1, 7, 28
3, 62548, Control_c, 1, 7, 27
3, 62572, Control_c, 1, 7, 26
3, 62600, Control_c, 1, 7, 25
3, 62612, Control_c, 1, 7, 24
3, 62640, Control_c, 1, 7, 23
3, 62668, Control_c, 1, 7, 22
3, 62692, Control_c, 1, 7, 21
3, 62720, Control_c, 1, 7, 20
3, 62748, Control_c, 1, 7, 19
3, 62760, Control_c, 1, 7, 18
3, 62788, Control_c, 1, 7, 17
3, 62812, Control_c, 1, 7, 16
3, 62836, Note_off_c, 1, 74, 64
3, 62836, Note_off_c, 1, 77, 64
3, 62840, Control_c, 1, 7, 15
3, 62868, Control_c, 1, 7, 14
3, 62892, Control_c, 1, 7, 13
3, 62908, Control_c, 1, 7, 12
3, 63352, Control_c, 1, 7, 75
3, 63357, Control_c, 1, 7, 75
3, 64289, Control_c, 1, 7, 74
3, 72480, Control_c, 1, 7, 90
3, 72960, Note_on_c, 1, 75, 100
3, 72960, Note_on_c, 1, 72, 100
3, 74736, Note_off_c, 1, 72, 64
3, 74736, Note_off_c, 1, 75, 64
3, 74820, Note_on_c, 1, 72, 80
3, 74820, Note_on_c, 1, 75, 100
3, 74850, Note_off_c, 1, 75, 64
3, 74850, Note_off_c, 1, 72, 64
3, 74880, Note_on_c, 1, 72, 100
3, 74880, Note_on_c, 1, 75, 100
3, 74976, Note_off_c, 1, 75, 64
3, 74976, Note_off_c, 1, 72, 64
3, 76800, Note_on_c, 1, 75, 100
3, 76800, Note_on_c, 1, 81, 100
3, 78576, Note_off_c, 1, 81, 64
3, 78576, Note_off_c, 1, 75, 64
3, 78660, Note_on_c, 1, 81, 80
3, 78660, Note_on_c, 1, 75, 100
3, 78690, Note_off_c, 1, 75, 64
3, 78690, Note_off_c, 1, 81, 64
3, 78720, Note_on_c, 1, 81, 100
3, 78720, Note_on_c, 1, 75, 100
3, 78960, Note_off_c, 1, 75, 64
3, 78960, Note_off_c, 1, 81, 64
3, 80640, Note_on_c, 1, 75, 80
3, 80640, Note_on_c, 1, 81, 80
3, 80880, Note_off_c, 1, 81, 64
3, 80880, Note_off_c, 1, 75, 64
3, 82560, Note_on_c, 1, 75, 80
3, 82560, Note_on_c, 1, 81, 80
3, 82800, Note_off_c, 1, 81, 64
3, 82800, Note_off_c, 1, 75, 64
3, 83520, Note_on_c, 1, 81, 80
3, 83520, Note_on_c, 1, 75, 80
3, 83760, Note_off_c, 1, 75, 64
3, 83760, Note_off_c, 1, 81, 64
3, 84480, Note_on_c, 1, 81, 80
3, 84480, Note_on_c, 1, 75, 80
3, 84720, Note_off_c, 1, 75, 64
3, 84720, Note_off_c, 1, 81, 64
3, 85440, Note_on_c, 1, 81, 80
3, 85440, Note_on_c, 1, 75, 80
3, 85680, Note_off_c, 1, 75, 64
3, 85680, Note_off_c, 1, 81, 64
3, 86400, Note_on_c, 1, 74, 80
3, 86400, Note_on_c, 1, 82, 80
3, 86640, Note_off_c, 1, 82, 64
3, 86640, Note_off_c, 1, 74, 64
3, 92640, Note_on_c, 1, 77, 64
3, 92832, Note_off_c, 1, 77, 64
3, 93120, Note_on_c, 1, 75, 64
3, 93312, Note_off_c, 1, 75, 64
3, 93600, Note_on_c, 1, 72, 64
3, 93792, Note_off_c, 1, 72, 64
3, 94080, Note_on_c, 1, 70, 64
3, 94272, Note_off_c, 1, 70, 64
3, 94560, Note_on_c, 1, 79, 51
3, 95040, Note_off_c, 1, 79, 64
3, 95040, Note_on_c, 1, 77, 51
3, 95520, Note_off_c, 1, 77, 64
3, 95520, Note_on_c, 1, 75, 51
3, 96000, Note_off_c, 1, 75, 64
3, 96000, Note_on_c, 1, 74, 51
3, 96480, Note_off_c, 1, 74, 64
3, 96480, Note_on_c, 1, 72, 51
3, 96960, Note_off_c, 1, 72, 64
3, 96960, Note_on_c, 1, 70, 51
3, 97440, Note_off_c, 1, 70, 64
3, 97440, Note_on_c, 1, 72, 51
3, 97920, Note_off_c, 1, 72, 64
3, 97920, Note_on_c, 1, 70, 51
3, 101760, Note_off_c, 1, 70, 64
3, 101760, Note_on_c, 1, 81, 80
3, 101760, Note_on_c, 1, 75, 80
3, 102000, Note_off_c, 1, 75, 64
3, 102000, Note_off_c, 1, 81, 64
3, 103680, Note_on_c, 1, 75, 80
3, 103680, Note_on_c, 1, 81, 80
3, 103920, Note_off_c, 1, 81, 64
3, 103920, Note_off_c, 1, 75, 64
3, 104640, Note_on_c, 1, 81, 80
3, 104640, Note_on_c, 1, 75, 80
3, 104880, Note_off_c, 1, 75, 64
3, 104880, Note_off_c, 1, 81, 64
3, 105600, Note_on_c, 1, 74, 80
3, 105600, Note_on_c, 1, 82, 80
3, 105840, Note_off_c, 1, 82, 64
3, 105840, Note_off_c, 1, 74, 64
3, 106080, Note_on_c, 1, 82, 67
3, 106272, Note_off_c, 1, 82, 64
3, 106560, Note_on_c, 1, 77, 67
3, 106752, Note_off_c, 1, 77, 64
3, 107040, Note_on_c, 1, 82, 67
3, 107232, Note_off_c, 1, 82, 64
3, 107520, Note_on_c, 1, 74, 67
3, 107712, Note_off_c, 1, 74, 64
3, 108000, Note_on_c, 1, 77, 67
3, 108192, Note_off_c, 1, 77, 64
3, 108480, Note_on_c, 1, 70, 67
3, 108672, Note_off_c, 1, 70, 64
3, 108960, Note_on_c, 1, 74, 67
3, 109152, Note_off_c, 1, 74, 64
3, 109440, Note_on_c, 1, 67, 67
3, 109632, Note_off_c, 1, 67, 64
3, 109920, Note_on_c, 1, 75, 67
3, 110112, Note_off_c, 1, 75, 64
3, 110400, Note_on_c, 1, 72, 67
3, 110592, Note_off_c, 1, 72, 64
3, 110880, Note_on_c, 1, 70, 67
3, 111072, Note_off_c, 1, 70, 64
3, 111360, Note_on_c, 1, 69, 67
3, 111552, Note_off_c, 1, 69, 64
3, 111840, Note_on_c, 1, 77, 67
3, 112032, Note_off_c, 1, 77, 64
3, 112320, Note_on_c, 1, 75, 67
3, 112512, Note_off_c, 1, 75, 64
3, 112800, Note_on_c, 1, 72, 67
3, 112992, Note_off_c, 1, 72, 64
3, 113280, Note_on_c, 1, 70, 67
3, 113472, Note_off_c, 1, 70, 64
3, 113760, Note_on_c, 1, 79, 67
3, 114210, Note_off_c, 1, 79, 64
3, 114240, Note_on_c, 1, 77, 67
3, 114690, Note_off_c, 1, 77, 64
3, 114720, Note_on_c, 1, 75, 67
3, 115170, Note_off_c, 1, 75, 64
3, 115200, Note_on_c, 1, 74, 67
3, 115650, Note_off_c, 1, 74, 64
3, 115680, Note_on_c, 1, 72, 67
3, 116130, Note_off_c, 1, 72, 64
3, 116160, Note_on_c, 1, 70, 67
3, 116610, Note_off_c, 1, 70, 64
3, 116640, Note_on_c, 1, 72, 67
3, 117090, Note_off_c, 1, 72, 64
3, 117120, Note_on_c, 1, 70, 67
3, 120960, Note_off_c, 1, 70, 64
3, 120960, Note_on_c, 1, 69, 50
3, 121248, Note_off_c, 1, 69, 64
3, 121920, Note_on_c, 1, 84, 63
3, 121920, Note_on_c, 1, 75, 63
3, 122208, Note_off_c, 1, 75, 64
3, 122208, Note_off_c, 1, 84, 64
3, 123840, Note_on_c, 1, 74, 63
3, 123840, Note_on_c, 1, 82, 63
3, 124128, Note_off_c, 1, 82, 64
3, 124128, Note_off_c, 1, 74, 64
3, 125760, Note_on_c, 1, 75, 63
3, 125760, Note_on_c, 1, 84, 63
3, 126048, Note_off_c, 1, 84, 64
3, 126048, Note_off_c, 1, 75, 64
3, 127680, Note_on_c, 1, 72, 63
3, 127680, Note_on_c, 1, 81, 63
3, 127968, Note_off_c, 1, 81, 64
3, 127968, Note_off_c, 1, 72, 64
3, 128640, Note_on_c, 1, 70, 51
3, 136320, Note_off_c, 1, 70, 64
3, 136320, Note_on_c, 1, 69, 51
3, 136320, Note_on_c, 1, 72, 51
3, 144000, Note_off_c, 1, 72, 64
3, 144000, Note_off_c, 1, 69, 64
3, 144000, Note_on_c, 1, 71, 59
3, 144000, Note_on_c, 1, 74, 59
3, 147840, Note_off_c, 1, 74, 64
3, 147840, Note_off_c, 1, 71, 64
3, 147840, Note_on_c, 1, 73, 68
3, 147840, Note_on_c, 1, 76, 68
3, 151680, Note_off_c, 1, 76, 64
3, 151680, Note_off_c, 1, 73, 64
3, 151680, Note_on_c, 1, 78, 45
3, 155520, Note_off_c, 1, 78, 64
3, 155520, Note_on_c, 1, 77, 51
3, 159360, Note_off_c, 1, 77, 64
3, 159360, Note_on_c, 1, 70, 89
3, 162816, Note_off_c, 1, 70, 64
3, 163200, Note_on_c, 1, 75, 89
3, 164736, Note_off_c, 1, 75, 64
3, 165120, Note_on_c, 1, 77, 89
3, 166920, Note_off_c, 1, 77, 64
3, 167040, Note_on_c, 1, 74, 62
3, 170496, Note_off_c, 1, 74, 64
3, 170880, Note_on_c, 1, 67, 62
3, 172416, Note_off_c, 1, 67, 64
3, 172800, Note_on_c, 1, 69, 62
3, 174600, Note_off_c, 1, 69, 64
3, 174720, Note_on_c, 1, 70, 62
3, 176256, Note_off_c, 1, 70, 64
3, 176640, Note_on_c, 1, 73, 62
3, 178440, Note_off_c, 1, 73, 64
3, 178560, Note_on_c, 1, 74, 62
3, 180096, Note_off_c, 1, 74, 64
3, 186720, Note_on_c, 1, 72, 77
3, 187488, Note_off_c, 1, 72, 64
3, 187680, Note_on_c, 1, 72, 77
3, 188544, Note_off_c, 1, 72, 64
3, 188640, Note_on_c, 1, 72, 77
3, 189408, Note_off_c, 1, 72, 64
3, 189600, Note_on_c, 1, 72, 77
3, 190464, Note_off_c, 1, 72, 64
3, 190560, Note_on_c, 1, 72, 77
3, 191328, Note_off_c, 1, 72, 64
3, 191520, Note_on_c, 1, 72, 77
3, 192384, Note_off_c, 1, 72, 64
3, 192480, Note_on_c, 1, 74, 77
3, 193440, Note_off_c, 1, 74, 64
3, 193440, Note_on_c, 1, 72, 77
3, 193824, Note_off_c, 1, 72, 64
3, 193920, Note_on_c, 1, 72, 61
3, 194304, Note_off_c, 1, 72, 64
3, 194400, Note_on_c, 1, 79, 51
3, 194400, Note_on_c, 1, 76, 51
3, 195168, Note_off_c, 1, 76, 64
3, 195168, Note_off_c, 1, 79, 64
3, 195360, Note_on_c, 1, 80, 51
3, 195360, Note_on_c, 1, 77, 51
3, 196224, Note_off_c, 1, 77, 64
3, 196224, Note_off_c, 1, 80, 64
3, 196320, Note_on_c, 1, 79, 51
3, 196320, Note_on_c, 1, 82, 64
3, 197088, Note_off_c, 1, 82, 64
3, 197088, Note_off_c, 1, 79, 64
3, 197280, Note_on_c, 1, 77, 51
3, 197280, Note_on_c, 1, 74, 51
3, 198144, Note_off_c, 1, 74, 64
3, 198144, Note_off_c, 1, 77, 64
3, 198240, Note_on_c, 1, 76, 51
3, 198240, Note_on_c, 1, 79, 51
3, 199008, Note_off_c, 1, 79, 64
3, 199008, Note_off_c, 1, 76, 64
3, 199200, Note_on_c, 1, 77, 51
3, 199200, Note_on_c, 1, 80, 51
3, 200064, Note_off_c, 1, 80, 64
3, 200064, Note_off_c, 1, 77, 64
3, 200160, Note_on_c, 1, 80, 51
3, 200160, Note_on_c, 1, 77, 51
3, 201120, Note_off_c, 1, 77, 64
3, 201120, Note_off_c, 1, 80, 64
3, 201120, Note_on_c, 1, 79, 51
3, 201120, Note_on_c, 1, 76, 51
3, 201504, Note_off_c, 1, 76, 64
3, 201504, Note_off_c, 1, 79, 64
3, 201600, Note_on_c, 1, 64, 64
3, 201600, Note_on_c, 1, 67, 64
3, 201984, Note_off_c, 1, 67, 64
3, 201984, Note_off_c, 1, 64, 64
3, 213120, Note_on_c, 1, 84, 56
3, 213360, Note_off_c, 1, 84, 64
3, 213360, Note_on_c, 1, 81, 56
3, 213600, Note_off_c, 1, 81, 64
3, 213600, Note_on_c, 1, 82, 56
3, 213840, Note_off_c, 1, 82, 64
3, 213840, Note_on_c, 1, 79, 56
3, 214080, Note_off_c, 1, 79, 64
3, 214080, Note_on_c, 1, 77, 56
3, 214272, Note_off_c, 1, 77, 64
3, 214560, Note_on_c, 1, 72, 56
3, 214752, Note_off_c, 1, 72, 64
3, 215040, Note_on_c, 1, 77, 56
3, 215232, Note_off_c, 1, 77, 64
3, 215520, Note_on_c, 1, 79, 56
3, 215712, Note_off_c, 1, 79, 64
3, 216000, Note_on_c, 1, 81, 56
3, 216192, Note_off_c, 1, 81, 64
3, 216480, Note_on_c, 1, 81, 56
3, 216672, Note_off_c, 1, 81, 64
3, 216960, Note_on_c, 1, 81, 28
3, 220032, Note_off_c, 1, 81, 64
3, 220320, Note_on_c, 1, 77, 28
3, 220320, Note_on_c, 1, 74, 28
3, 220800, Note_off_c, 1, 74, 64
3, 220800, Note_off_c, 1, 77, 64
3, 220800, Note_on_c, 1, 73, 28
3, 220800, Note_on_c, 1, 76, 28
3, 222720, Note_off_c, 1, 76, 64
3, 222720, Note_off_c, 1, 73, 64
3, 222720, Note_on_c, 1, 74, 28
3, 222720, Note_on_c, 1, 77, 28
3, 224640, Note_off_c, 1, 77, 64
3, 224640, Note_off_c, 1, 74, 64
3, 224640, Note_on_c, 1, 76, 28
3, 224640, Note_on_c, 1, 79, 28
3, 226560, Note_off_c, 1, 79, 64
3, 226560, Note_off_c, 1, 76, 64
3, 226560, Note_on_c, 1, 74, 28
3, 226560, Note_on_c, 1, 77, 28
3, 228480, Note_off_c, 1, 77, 64
3, 228480, Note_off_c, 1, 74, 64
3, 228480, Note_on_c, 1, 73, 28
3, 228480, Note_on_c, 1, 76, 28
3, 228930, Note_off_c, 1, 76, 64
3, 228930, Note_off_c, 1, 73, 64
3, 257280, Note_on_c, 1, 76, 55
3, 257280, Note_on_c, 1, 79, 55
3, 257760, Note_off_c, 1, 79, 64
3, 257760, Note_off_c, 1, 76, 64
3, 258240, Note_on_c, 1, 79, 58
3, 258240, Note_on_c, 1, 76, 58
3, 258720, Note_off_c, 1, 76, 64
3, 258720, Note_off_c, 1, 79, 64
3, 259200, Note_on_c, 1, 76, 55
3, 259200, Note_on_c, 1, 79, 55
3, 259680, Note_off_c, 1, 79, 64
3, 259680, Note_off_c, 1, 76, 64
3, 260160, Note_on_c, 1, 79, 58
3, 260160, Note_on_c, 1, 76, 58
3, 260640, Note_off_c, 1, 76, 64
3, 260640, Note_off_c, 1, 79, 64
3, 261120, Note_on_c, 1, 76, 55
3, 261120, Note_on_c, 1, 79, 55
3, 261600, Note_off_c, 1, 79, 64
3, 261600, Note_off_c, 1, 76, 64
3, 262080, Note_on_c, 1, 79, 58
3, 262080, Note_on_c, 1, 76, 58
3, 262560, Note_off_c, 1, 76, 64
3, 262560, Note_off_c, 1, 79, 64
3, 263040, Note_on_c, 1, 72, 80
3, 263040, Note_on_c, 1, 77, 80
3, 263232, Note_off_c, 1, 77, 64
3, 263232, Note_off_c, 1, 72, 64
3, 264960, Note_on_c, 1, 74, 80
3, 264960, Note_on_c, 1, 77, 80
3, 265152, Note_off_c, 1, 77, 64
3, 265152, Note_off_c, 1, 74, 64
3, 266880, Note_on_c, 1, 77, 80
3, 266880, Note_on_c, 1, 72, 80
3, 267072, Note_off_c, 1, 72, 64
3, 267072, Note_off_c, 1, 77, 64
3, 268320, Note_on_c, 1, 72, 56
3, 268320, Note_on_c, 1, 77, 56
3, 268512, Note_off_c, 1, 77, 64
3, 268512, Note_off_c, 1, 72, 64
3, 268800, Note_on_c, 1, 76, 56
3, 268800, Note_on_c, 1, 72, 56
3, 268992, Note_off_c, 1, 72, 64
3, 268992, Note_off_c, 1, 76, 64
3, 269280, Note_on_c, 1, 76, 56
3, 269280, Note_on_c, 1, 72, 56
3, 269472, Note_off_c, 1, 72, 64
3, 269472, Note_off_c, 1, 76, 64
3, 269760, Note_on_c, 1, 72, 56
3, 269760, Note_on_c, 1, 76, 56
3, 269952, Note_off_c, 1, 76, 64
3, 269952, Note_off_c, 1, 72, 64
3, 270240, Note_on_c, 1, 72, 56
3, 270240, Note_on_c, 1, 76, 56
3, 270432, Note_off_c, 1, 76, 64
3, 270432, Note_off_c, 1, 72, 64
3, 270720, Note_on_c, 1, 72, 56
3, 270720, Note_on_c, 1, 77, 56
3, 270912, Note_off_c, 1, 77, 64
3, 270912, Note_off_c, 1, 72, 64
3, 271680, Note_on_c, 1, 77, 56
3, 271680, Note_on_c, 1, 74, 56
3, 271872, Note_off_c, 1, 74, 64
3, 271872, Note_off_c, 1, 77, 64
3, 272640, Note_on_c, 1, 72, 56
3, 272640, Note_on_c, 1, 77, 56
3, 272832, Note_off_c, 1, 77, 64
3, 272832, Note_off_c, 1, 72, 64
3, 273600, Note_on_c, 1, 70, 56
3, 273600, Note_on_c, 1, 76, 56
3, 273792, Note_off_c, 1, 76, 64
3, 273792, Note_off_c, 1, 70, 64
3, 290400, Note_on_c, 1, 84, 56
3, 290400, Note_on_c, 1, 72, 56
3, 290592, Note_off_c, 1, 72, 64
3, 290592, Note_off_c, 1, 84, 64
3, 290880, Note_on_c, 1, 72, 56
3, 290880, Note_on_c, 1, 84, 56
3, 291072, Note_off_c, 1, 84, 64
3, 291072, Note_off_c, 1, 72, 64
3, 291360, Note_on_c, 1, 72, 56
3, 291360, Note_on_c, 1, 84, 56
3, 291552, Note_off_c, 1, 84, 64
3, 291552, Note_off_c, 1, 72, 64
3, 291840, Note_on_c, 1, 72, 56
3, 291840, Note_on_c, 1, 84, 56
3, 293136, Note_off_c, 1, 84, 64
3, 293136, Note_off_c, 1, 72, 64
3, 293280, Note_on_c, 1, 84, 56
3, 293280, Note_on_c, 1, 72, 56
3, 293472, Note_off_c, 1, 72, 64
3, 293472, Note_off_c, 1, 84, 64
3, 293760, Note_on_c, 1, 84, 56
3, 293760, Note_on_c, 1, 72, 56
3, 293952, Note_off_c, 1, 72, 64
3, 293952, Note_off_c, 1, 84, 64
3, 294240, Note_on_c, 1, 72, 56
3, 294240, Note_on_c, 1, 84, 56
3, 294432, Note_off_c, 1, 84, 64
3, 294432, Note_off_c, 1, 72, 64
3, 294720, Note_on_c, 1, 72, 56
3, 294720, Note_on_c, 1, 84, 56
3, 294912, Note_off_c, 1, 84, 64
3, 294912, Note_off_c, 1, 72, 64
3, 295200, Note_on_c, 1, 84, 56
3, 295200, Note_on_c, 1, 72, 56
3, 295392, Note_off_c, 1, 72, 64
3, 295392, Note_off_c, 1, 84, 64
3, 295680, Note_on_c, 1, 72, 56
3, 295680, Note_on_c, 1, 84, 56
3, 296976, Note_off_c, 1, 84, 64
3, 296976, Note_off_c, 1, 72, 64
3, 297120, Note_on_c, 1, 84, 56
3, 297120, Note_on_c, 1, 72, 56
3, 297312, Note_off_c, 1, 72, 64
3, 297312, Note_off_c, 1, 84, 64
3, 297600, Note_on_c, 1, 84, 56
3, 297600, Note_on_c, 1, 72, 56
3, 297792, Note_off_c, 1, 72, 64
3, 297792, Note_off_c, 1, 84, 64
3, 298080, Note_on_c, 1, 72, 56
3, 298080, Note_on_c, 1, 84, 56
3, 298272, Note_off_c, 1, 84, 64
3, 298272, Note_off_c, 1, 72, 64
3, 298560, Note_on_c, 1, 72, 56
3, 298560, Note_on_c, 1, 84, 56
3, 298752, Note_off_c, 1, 84, 64
3, 298752, Note_off_c, 1, 72, 64
3, 299040, Note_on_c, 1, 84, 56
3, 299040, Note_on_c, 1, 72, 56
3, 299232, Note_off_c, 1, 72, 64
3, 299232, Note_off_c, 1, 84, 64
3, 299520, Note_on_c, 1, 72, 56
3, 299520, Note_on_c, 1, 84, 56
3, 300816, Note_off_c, 1, 84, 64
3, 300816, Note_off_c, 1, 72, 64
3, 300960, Note_on_c, 1, 84, 56
3, 300960, Note_on_c, 1, 72, 56
3, 301152, Note_off_c, 1, 72, 64
3, 301152, Note_off_c, 1, 84, 64
3, 301440, Note_on_c, 1, 84, 56
3, 301440, Note_on_c, 1, 72, 56
3, 301632, Note_off_c, 1, 72, 64
3, 301632, Note_off_c, 1, 84, 64
3, 301920, Note_on_c, 1, 72, 56
3, 301920, Note_on_c, 1, 84, 56
3, 302112, Note_off_c, 1, 84, 64
3, 302112, Note_off_c, 1, 72, 64
3, 302400, Note_on_c, 1, 72, 56
3, 302400, Note_on_c, 1, 84, 56
3, 302592, Note_off_c, 1, 84, 64
3, 302592, Note_off_c, 1, 72, 64
3, 302880, Note_on_c, 1, 84, 56
3, 302880, Note_on_c, 1, 72, 56
3, 303072, Note_off_c, 1, 72, 64
3, 303072, Note_off_c, 1, 84, 64
3, 303360, Note_on_c, 1, 72, 56
3, 303360, Note_on_c, 1, 84, 56
3, 305280, Note_off_c, 1, 84, 64
3, 305280, Note_off_c, 1, 72, 64
3, 312960, Note_on_c, 1, 81, 62
3, 312960, Note_on_c, 1, 84, 62
3, 313200, Note_off_c, 1, 84, 64
3, 313200, Note_off_c, 1, 81, 64
3, 314400, Note_on_c, 1, 69, 62
3, 314400, Note_on_c, 1, 77, 62
3, 314592, Note_off_c, 1, 77, 64
3, 314592, Note_off_c, 1, 69, 64
3, 314880, Note_on_c, 1, 74, 62
3, 314880, Note_on_c, 1, 77, 62
3, 315120, Note_off_c, 1, 77, 64
3, 315120, Note_off_c, 1, 74, 64
3, 315840, Note_on_c, 1, 76, 62
3, 315840, Note_on_c, 1, 72, 62
3, 316080, Note_off_c, 1, 72, 64
3, 316080, Note_off_c, 1, 76, 64
3, 320640, Note_on_c, 1, 84, 62
3, 320640, Note_on_c, 1, 81, 62
3, 320880, Note_off_c, 1, 81, 64
3, 320880, Note_off_c, 1, 84, 64
3, 322080, Note_on_c, 1, 77, 62
3, 322080, Note_on_c, 1, 69, 62
3, 322272, Note_off_c, 1, 69, 64
3, 322272, Note_off_c, 1, 77, 64
3, 322560, Note_on_c, 1, 77, 62
3, 322560, Note_on_c, 1, 74, 62
3, 322800, Note_off_c, 1, 74, 64
3, 322800, Note_off_c, 1, 77, 64
3, 323520, Note_on_c, 1, 76, 62
3, 323520, Note_on_c, 1, 72, 62
3, 323760, Note_off_c, 1, 72, 64
3, 323760, Note_off_c, 1, 76, 64
3, 330240, Note_on_c, 1, 81, 69
3, 330240, Note_on_c, 1, 84, 69
3, 332084, Note_off_c, 1, 84, 64
3, 332084, Note_off_c, 1, 81, 64
3, 332160, Note_on_c, 1, 80, 78
3, 332160, Note_on_c, 1, 83, 78
3, 334004, Note_off_c, 1, 83, 64
3, 334004, Note_off_c, 1, 80, 64
3, 334080, Note_on_c, 1, 82, 86
3, 334080, Note_on_c, 1, 79, 86
3, 335924, Note_off_c, 1, 79, 64
3, 335924, Note_off_c, 1, 82, 64
3, 336000, Note_on_c, 1, 80, 80
3, 336000, Note_on_c, 1, 77, 80
3, 339456, Note_off_c, 1, 77, 64
3, 339456, Note_off_c, 1, 80, 64
3, 339840, Note_on_c, 1, 77, 80
3, 339840, Note_on_c, 1, 81, 80
3, 341376, Note_off_c, 1, 81, 64
3, 341376, Note_off_c, 1, 77, 64
3, 341760, Note_on_c, 1, 76, 80
3, 341760, Note_on_c, 1, 79, 80
3, 343296, Note_off_c, 1, 79, 64
3, 343296, Note_off_c, 1, 76, 64
3, 343680, Note_on_c, 1, 77, 80
3, 344064, Note_off_c, 1, 77, 64
3, 349920, Note_on_c, 1, 72, 80
3, 350688, Note_off_c, 1, 72, 64
3, 350880, Note_on_c, 1, 70, 80
3, 350880, Note_on_c, 1, 76, 80
3, 351120, Note_off_c, 1, 76, 64
3, 351120, Note_off_c, 1, 70, 64
3, 351360, Note_on_c, 1, 77, 80
3, 351744, Note_off_c, 1, 77, 64
3, 357600, Note_on_c, 1, 72, 80
3, 358368, Note_off_c, 1, 72, 64
3, 358560, Note_on_c, 1, 70, 80
3, 358560, Note_on_c, 1, 76, 80
3, 358800, Note_off_c, 1, 76, 64
3, 358800, Note_off_c, 1, 70, 64
3, 359040, Note_on_c, 1, 77, 80
3, 359424, Note_off_c, 1, 77, 64
3, 361440, Note_on_c, 1, 72, 80
3, 362208, Note_off_c, 1, 72, 64
3, 362400, Note_on_c, 1, 70, 80
3, 362400, Note_on_c, 1, 76, 80
3, 362640, Note_off_c, 1, 76, 64
3, 362640, Note_off_c, 1, 70, 64
3, 362880, Note_on_c, 1, 77, 100
3, 362880, Note_on_c, 1, 69, 100
3, 364656, Note_off_c, 1, 69, 64
3, 364656, Note_off_c, 1, 77, 64
3, 364740, Note_on_c, 1, 77, 80
3, 364740, Note_on_c, 1, 69, 100
3, 364770, Note_off_c, 1, 69, 64
3, 364770, Note_off_c, 1, 77, 64
3, 364800, Note_on_c, 1, 69, 100
3, 364800, Note_on_c, 1, 77, 100
3, 364896, Note_off_c, 1, 77, 64
3, 364896, Note_off_c, 1, 69, 64
3, 366720, Note_on_c, 1, 75, 100
3, 366720, Note_on_c, 1, 81, 100
3, 368496, Note_off_c, 1, 81, 64
3, 368496, Note_off_c, 1, 75, 64
3, 368580, Note_on_c, 1, 81, 80
3, 368580, Note_on_c, 1, 75, 100
3, 368610, Note_off_c, 1, 75, 64
3, 368610, Note_off_c, 1, 81, 64
3, 368640, Note_on_c, 1, 75, 100
3, 368640, Note_on_c, 1, 81, 100
3, 368880, Note_off_c, 1, 81, 64
3, 368880, Note_off_c, 1, 75, 64
3, 370560, Note_on_c, 1, 75, 100
3, 370560, Note_on_c, 1, 81, 100
3, 370800, Note_off_c, 1, 81, 64
3, 370800, Note_off_c, 1, 75, 64
3, 372480, Note_on_c, 1, 75, 80
3, 372480, Note_on_c, 1, 81, 80
3, 372720, Note_off_c, 1, 81, 64
3, 372720, Note_off_c, 1, 75, 64
3, 373440, Note_on_c, 1, 81, 80
3, 373440, Note_on_c, 1, 75, 80
3, 373680, Note_off_c, 1, 75, 64
3, 373680, Note_off_c, 1, 81, 64
3, 374400, Note_on_c, 1, 81, 80
3, 374400, Note_on_c, 1, 75, 80
3, 374640, Note_off_c, 1, 75, 64
3, 374640, Note_off_c, 1, 81, 64
3, 375360, Note_on_c, 1, 81, 80
3, 375360, Note_on_c, 1, 75, 80
3, 375600, Note_off_c, 1, 75, 64
3, 375600, Note_off_c, 1, 81, 64
3, 376320, Note_on_c, 1, 74, 80
3, 376320, Note_on_c, 1, 82, 80
3, 376560, Note_off_c, 1, 82, 64
3, 376560, Note_off_c, 1, 74, 64
3, 382560, Note_on_c, 1, 77, 64
3, 382752, Note_off_c, 1, 77, 64
3, 383040, Note_on_c, 1, 75, 64
3, 383232, Note_off_c, 1, 75, 64
3, 383520, Note_on_c, 1, 72, 64
3, 383712, Note_off_c, 1, 72, 64
3, 384000, Note_on_c, 1, 70, 64
3, 384192, Note_off_c, 1, 70, 64
3, 384480, Note_on_c, 1, 79, 51
3, 384960, Note_off_c, 1, 79, 64
3, 384960, Note_on_c, 1, 77, 51
3, 385440, Note_off_c, 1, 77, 64
3, 385440, Note_on_c, 1, 75, 51
3, 385920, Note_off_c, 1, 75, 64
3, 385920, Note_on_c, 1, 74, 51
3, 386400, Note_off_c, 1, 74, 64
3, 386400, Note_on_c, 1, 72, 51
3, 386880, Note_off_c, 1, 72, 64
3, 386880, Note_on_c, 1, 70, 51
3, 387360, Note_off_c, 1, 70, 64
3, 387360, Note_on_c, 1, 72, 51
3, 387840, Note_off_c, 1, 72, 64
3, 387840, Note_on_c, 1, 70, 51
3, 391680, Note_off_c, 1, 70, 64
3, 391680, Note_on_c, 1, 81, 80
3, 391680, Note_on_c, 1, 75, 80
3, 391920, Note_off_c, 1, 75, 64
3, 391920, Note_off_c, 1, 81, 64
3, 393600, Note_on_c, 1, 75, 80
3, 393600, Note_on_c, 1, 81, 80
3, 393840, Note_off_c, 1, 81, 64
3, 393840, Note_off_c, 1, 75, 64
3, 394560, Note_on_c, 1, 81, 80
3, 394560, Note_on_c, 1, 75, 80
3, 394800, Note_off_c, 1, 75, 64
3, 394800, Note_off_c, 1, 81, 64
3, 395520, Note_on_c, 1, 74, 80
3, 395520, Note_on_c, 1, 82, 80
3, 395760, Note_off_c, 1, 82, 64
3, 395760, Note_off_c, 1, 74, 64
3, 396000, Note_on_c, 1, 82, 67
3, 396192, Note_off_c, 1, 82, 64
3, 396480, Note_on_c, 1, 77, 67
3, 396672, Note_off_c, 1, 77, 64
3, 396960, Note_on_c, 1, 82, 67
3, 397152, Note_off_c, 1, 82, 64
3, 397440, Note_on_c, 1, 74, 67
3, 397632, Note_off_c, 1, 74, 64
3, 397920, Note_on_c, 1, 77, 67
3, 398112, Note_off_c, 1, 77, 64
3, 398400, Note_on_c, 1, 70, 67
3, 398592, Note_off_c, 1, 70, 64
3, 398880, Note_on_c, 1, 74, 67
3, 399072, Note_off_c, 1, 74, 64
3, 399360, Note_on_c, 1, 67, 67
3, 399552, Note_off_c, 1, 67, 64
3, 399840, Note_on_c, 1, 75, 67
3, 400032, Note_off_c, 1, 75, 64
3, 400320, Note_on_c, 1, 72, 67
3, 400512, Note_off_c, 1, 72, 64
3, 400800, Note_on_c, 1, 70, 67
3, 400992, Note_off_c, 1, 70, 64
3, 401280, Note_on_c, 1, 69, 67
3, 401472, Note_off_c, 1, 69, 64
3, 401760, Note_on_c, 1, 77, 67
3, 401952, Note_off_c, 1, 77, 64
3, 402240, Note_on_c, 1, 75, 67
3, 402432, Note_off_c, 1, 75, 64
3, 402720, Note_on_c, 1, 72, 67
3, 402912, Note_off_c, 1, 72, 64
3, 403200, Note_on_c, 1, 70, 67
3, 403392, Note_off_c, 1, 70, 64
3, 403680, Note_on_c, 1, 79, 67
3, 404130, Note_off_c, 1, 79, 64
3, 404160, Note_on_c, 1, 77, 67
3, 404610, Note_off_c, 1, 77, 64
3, 404640, Note_on_c, 1, 75, 67
3, 405090, Note_off_c, 1, 75, 64
3, 405120, Note_on_c, 1, 74, 67
3, 405570, Note_off_c, 1, 74, 64
3, 405600, Note_on_c, 1, 72, 67
3, 406050, Note_off_c, 1, 72, 64
3, 406080, Note_on_c, 1, 70, 67
3, 406530, Note_off_c, 1, 70, 64
3, 406560, Note_on_c, 1, 72, 67
3, 407010, Note_off_c, 1, 72, 64
3, 407040, Note_on_c, 1, 70, 67
3, 410880, Note_off_c, 1, 70, 64
3, 410880, Note_on_c, 1, 69, 50
3, 411168, Note_off_c, 1, 69, 64
3, 411840, Note_on_c, 1, 84, 63
3, 411840, Note_on_c, 1, 75, 63
3, 412128, Note_off_c, 1, 75, 64
3, 412128, Note_off_c, 1, 84, 64
3, 413760, Note_on_c, 1, 74, 63
3, 413760, Note_on_c, 1, 82, 63
3, 414048, Note_off_c, 1, 82, 64
3, 414048, Note_off_c, 1, 74, 64
3, 415680, Note_on_c, 1, 75, 63
3, 415680, Note_on_c, 1, 84, 63
3, 415968, Note_off_c, 1, 84, 64
3, 415968, Note_off_c, 1, 75, 64
3, 417600, Note_on_c, 1, 72, 63
3, 417600, Note_on_c, 1, 81, 63
3, 417888, Note_off_c, 1, 81, 64
3, 417888, Note_off_c, 1, 72, 64
3, 418560, Note_on_c, 1, 70, 51
3, 426240, Note_off_c, 1, 70, 64
3, 426240, Note_on_c, 1, 69, 51
3, 426240, Note_on_c, 1, 72, 51
3, 433920, Note_off_c, 1, 72, 64
3, 433920, Note_off_c, 1, 69, 64
3, 433920, Note_on_c, 1, 71, 59
3, 433920, Note_on_c, 1, 74, 59
3, 437760, Note_off_c, 1, 74, 64
3, 437760, Note_off_c, 1, 71, 64
3, 437760, Note_on_c, 1, 73, 68
3, 437760, Note_on_c, 1, 76, 68
3, 441600, Note_off_c, 1, 76, 64
3, 441600, Note_off_c, 1, 73, 64
3, 441600, Note_on_c, 1, 78, 45
3, 445440, Note_off_c, 1, 78, 64
3, 445440, Note_on_c, 1, 77, 51
3, 449280, Note_off_c, 1, 77, 64
3, 449280, Note_on_c, 1, 70, 89
3, 452736, Note_off_c, 1, 70, 64
3, 453120, Note_on_c, 1, 75, 89
3, 454656, Note_off_c, 1, 75, 64
3, 455040, Note_on_c, 1, 77, 89
3, 456840, Note_off_c, 1, 77, 64
3, 456960, Note_on_c, 1, 74, 62
3, 460416, Note_off_c, 1, 74, 64
3, 460800, Note_on_c, 1, 67, 62
3, 462336, Note_off_c, 1, 67, 64
3, 462720, Note_on_c, 1, 69, 62
3, 464520, Note_off_c, 1, 69, 64
3, 464640, Note_on_c, 1, 70, 62
3, 466176, Note_off_c, 1, 70, 64
3, 466560, Note_on_c, 1, 73, 62
3, 468360, Note_off_c, 1, 73, 64
3, 468480, Note_on_c, 1, 74, 62
3, 470016, Note_off_c, 1, 74, 64
3, 476640, Note_on_c, 1, 72, 77
3, 477408, Note_off_c, 1, 72, 64
3, 477600, Note_on_c, 1, 72, 77
3, 478464, Note_off_c, 1, 72, 64
3, 478560, Note_on_c, 1, 72, 77
3, 479328, Note_off_c, 1, 72, 64
3, 479520, Note_on_c, 1, 72, 77
3, 480384, Note_off_c, 1, 72, 64
3, 480480, Note_on_c, 1, 72, 77
3, 481248, Note_off_c, 1, 72, 64
3, 481440, Note_on_c, 1, 72, 77
3, 482304, Note_off_c, 1, 72, 64
3, 482400, Note_on_c, 1, 74, 77
3, 483360, Note_off_c, 1, 74, 64
3, 483360, Note_on_c, 1, 72, 77
3, 483744, Note_off_c, 1, 72, 64
3, 483840, Note_on_c, 1, 72, 61
3, 484224, Note_off_c, 1, 72, 64
3, 484320, Note_on_c, 1, 79, 51
3, 484320, Note_on_c, 1, 76, 51
3, 485088, Note_off_c, 1, 76, 64
3, 485088, Note_off_c, 1, 79, 64
3, 485280, Note_on_c, 1, 80, 51
3, 485280, Note_on_c, 1, 77, 51
3, 486144, Note_off_c, 1, 77, 64
3, 486144, Note_off_c, 1, 80, 64
3, 486240, Note_on_c, 1, 79, 51
3, 486240, Note_on_c, 1, 82, 64
3, 487008, Note_off_c, 1, 82, 64
3, 487008, Note_off_c, 1, 79, 64
3, 487200, Note_on_c, 1, 77, 51
3, 487200, Note_on_c, 1, 74, 51
3, 488064, Note_off_c, 1, 74, 64
3, 488064, Note_off_c, 1, 77, 64
3, 488160, Note_on_c, 1, 76, 51
3, 488160, Note_on_c, 1, 79, 51
3, 488928, Note_off_c, 1, 79, 64
3, 488928, Note_off_c, 1, 76, 64
3, 489120, Note_on_c, 1, 77, 51
3, 489120, Note_on_c, 1, 80, 51
3, 489984, Note_off_c, 1, 80, 64
3, 489984, Note_off_c, 1, 77, 64
3, 490080, Note_on_c, 1, 80, 51
3, 490080, Note_on_c, 1, 77, 51
3, 491040, Note_off_c, 1, 77, 64
3, 491040, Note_off_c, 1, 80, 64
3, 491040, Note_on_c, 1, 79, 51
3, 491040, Note_on_c, 1, 76, 51
3, 491424, Note_off_c, 1, 76, 64
3, 491424, Note_off_c, 1, 79, 64
3, 491520, Note_on_c, 1, 64, 64
3, 491520, Note_on_c, 1, 67, 64
3, 491904, Note_off_c, 1, 67, 64
3, 491904, Note_off_c, 1, 64, 64
3, 503040, Note_on_c, 1, 84, 56
3, 503280, Note_off_c, 1, 84, 64
3, 503280, Note_on_c, 1, 81, 56
3, 503520, Note_off_c, 1, 81, 64
3, 503520, Note_on_c, 1, 82, 56
3, 503760, Note_off_c, 1, 82, 64
3, 503760, Note_on_c, 1, 79, 56
3, 504000, Note_off_c, 1, 79, 64
3, 504000, Note_on_c, 1, 77, 56
3, 504192, Note_off_c, 1, 77, 64
3, 504480, Note_on_c, 1, 72, 56
3, 504672, Note_off_c, 1, 72, 64
3, 504960, Note_on_c, 1, 77, 56
3, 505152, Note_off_c, 1, 77, 64
3, 505440, Note_on_c, 1, 79, 56
3, 505632, Note_off_c, 1, 79, 64
3, 505920, Note_on_c, 1, 81, 56
3, 506112, Note_off_c, 1, 81, 64
3, 506400, Note_on_c, 1, 81, 56
3, 506592, Note_off_c, 1, 81, 64
3, 506880, Note_on_c, 1, 81, 28
3, 509952, Note_off_c, 1, 81, 64
3, 510240, Note_on_c, 1, 77, 28
3, 510240, Note_on_c, 1, 74, 28
3, 510720, Note_off_c, 1, 74, 64
3, 510720, Note_off_c, 1, 77, 64
3, 510720, Note_on_c, 1, 73, 28
3, 510720, Note_on_c, 1, 76, 28
3, 512640, Note_off_c, 1, 76, 64
3, 512640, Note_off_c, 1, 73, 64
3, 512640, Note_on_c, 1, 74, 28
3, 512640, Note_on_c, 1, 77, 28
3, 514560, Note_off_c, 1, 77, 64
3, 514560, Note_off_c, 1, 74, 64
3, 514560, Note_on_c, 1, 76, 28
3, 514560, Note_on_c, 1, 79, 28
3, 516480, Note_off_c, 1, 79, 64
3, 516480, Note_off_c, 1, 76, 64
3, 516480, Note_on_c, 1, 74, 28
3, 516480, Note_on_c, 1, 77, 28
3, 518400, Note_off_c, 1, 77, 64
3, 518400, Note_off_c, 1, 74, 64
3, 518400, Note_on_c, 1, 73, 28
3, 518400, Note_on_c, 1, 76, 28
3, 518850, Note_off_c, 1, 76, 64
3, 518850, Note_off_c, 1, 73, 64
3, 547200, Note_on_c, 1, 76, 55
3, 547200, Note_on_c, 1, 79, 55
3, 547680, Note_off_c, 1, 79, 64
3, 547680, Note_off_c, 1, 76, 64
3, 548160, Note_on_c, 1, 79, 58
3, 548160, Note_on_c, 1, 76, 58
3, 548640, Note_off_c, 1, 76, 64
3, 548640, Note_off_c, 1, 79, 64
3, 549120, Note_on_c, 1, 76, 55
3, 549120, Note_on_c, 1, 79, 55
3, 549600, Note_off_c, 1, 79, 64
3, 549600, Note_off_c, 1, 76, 64
3, 550080, Note_on_c, 1, 79, 58
3, 550080, Note_on_c, 1, 76, 58
3, 550560, Note_off_c, 1, 76, 64
3, 550560, Note_off_c, 1, 79, 64
3, 551040, Note_on_c, 1, 76, 55
3, 551040, Note_on_c, 1, 79, 55
3, 551520, Note_off_c, 1, 79, 64
3, 551520, Note_off_c, 1, 76, 64
3, 552000, Note_on_c, 1, 79, 58
3, 552000, Note_on_c, 1, 76, 58
3, 552480, Note_off_c, 1, 76, 64
3, 552480, Note_off_c, 1, 79, 64
3, 552960, Note_on_c, 1, 72, 80
3, 552960, Note_on_c, 1, 77, 80
3, 553152, Note_off_c, 1, 77, 64
3, 553152, Note_off_c, 1, 72, 64
3, 554880, Note_on_c, 1, 74, 80
3, 554880, Note_on_c, 1, 77, 80
3, 555072, Note_off_c, 1, 77, 64
3, 555072, Note_off_c, 1, 74, 64
3, 556800, Note_on_c, 1, 77, 80
3, 556800, Note_on_c, 1, 72, 80
3, 556992, Note_off_c, 1, 72, 64
3, 556992, Note_off_c, 1, 77, 64
3, 558240, Note_on_c, 1, 72, 56
3, 558240, Note_on_c, 1, 77, 56
3, 558432, Note_off_c, 1, 77, 64
3, 558432, Note_off_c, 1, 72, 64
3, 558720, Note_on_c, 1, 76, 56
3, 558720, Note_on_c, 1, 72, 56
3, 558912, Note_off_c, 1, 72, 64
3, 558912, Note_off_c, 1, 76, 64
3, 559200, Note_on_c, 1, 76, 56
3, 559200, Note_on_c, 1, 72, 56
3, 559392, Note_off_c, 1, 72, 64
3, 559392, Note_off_c, 1, 76, 64
3, 559680, Note_on_c, 1, 72, 56
3, 559680, Note_on_c, 1, 76, 56
3, 559872, Note_off_c, 1, 76, 64
3, 559872, Note_off_c, 1, 72, 64
3, 560160, Note_on_c, 1, 72, 56
3, 560160, Note_on_c, 1, 76, 56
3, 560352, Note_off_c, 1, 76, 64
3, 560352, Note_off_c, 1, 72, 64
3, 560640, Note_on_c, 1, 72, 56
3, 560640, Note_on_c, 1, 77, 56
3, 560832, Note_off_c, 1, 77, 64
3, 560832, Note_off_c, 1, 72, 64
3, 561600, Note_on_c, 1, 77, 56
3, 561600, Note_on_c, 1, 74, 56
3, 561792, Note_off_c, 1, 74, 64
3, 561792, Note_off_c, 1, 77, 64
3, 562560, Note_on_c, 1, 72, 56
3, 562560, Note_on_c, 1, 77, 56
3, 562752, Note_off_c, 1, 77, 64
3, 562752, Note_off_c, 1, 72, 64
3, 563520, Note_on_c, 1, 70, 56
3, 563520, Note_on_c, 1, 76, 56
3, 563712, Note_off_c, 1, 76, 64
3, 563712, Note_off_c, 1, 70, 64
3, 580320, Note_on_c, 1, 84, 56
3, 580320, Note_on_c, 1, 72, 56
3, 580512, Note_off_c, 1, 72, 64
3, 580512, Note_off_c, 1, 84, 64
3, 580800, Note_on_c, 1, 72, 56
3, 580800, Note_on_c, 1, 84, 56
3, 580992, Note_off_c, 1, 84, 64
3, 580992, Note_off_c, 1, 72, 64
3, 581280, Note_on_c, 1, 72, 56
3, 581280, Note_on_c, 1, 84, 56
3, 581472, Note_off_c, 1, 84, 64
3, 581472, Note_off_c, 1, 72, 64
3, 581760, Note_on_c, 1, 72, 56
3, 581760, Note_on_c, 1, 84, 56
3, 583056, Note_off_c, 1, 84, 64
3, 583056, Note_off_c, 1, 72, 64
3, 583200, Note_on_c, 1, 84, 56
3, 583200, Note_on_c, 1, 72, 56
3, 583392, Note_off_c, 1, 72, 64
3, 583392, Note_off_c, 1, 84, 64
3, 583680, Note_on_c, 1, 84, 56
3, 583680, Note_on_c, 1, 72, 56
3, 583872, Note_off_c, 1, 72, 64
3, 583872, Note_off_c, 1, 84, 64
3, 584160, Note_on_c, 1, 72, 56
3, 584160, Note_on_c, 1, 84, 56
3, 584352, Note_off_c, 1, 84, 64
3, 584352, Note_off_c, 1, 72, 64
3, 584640, Note_on_c, 1, 72, 56
3, 584640, Note_on_c, 1, 84, 56
3, 584832, Note_off_c, 1, 84, 64
3, 584832, Note_off_c, 1, 72, 64
3, 585120, Note_on_c, 1, 84, 56
3, 585120, Note_on_c, 1, 72, 56
3, 585312, Note_off_c, 1, 72, 64
3, 585312, Note_off_c, 1, 84, 64
3, 585600, Note_on_c, 1, 72, 56
3, 585600, Note_on_c, 1, 84, 56
3, 586896, Note_off_c, 1, 84, 64
3, 586896, Note_off_c, 1, 72, 64
3, 587040, Note_on_c, 1, 84, 56
3, 587040, Note_on_c, 1, 72, 56
3, 587232, Note_off_c, 1, 72, 64
3, 587232, Note_off_c, 1, 84, 64
3, 587520, Note_on_c, 1, 84, 56
3, 587520, Note_on_c, 1, 72, 56
3, 587712, Note_off_c, 1, 72, 64
3, 587712, Note_off_c, 1, 84, 64
3, 588000, Note_on_c, 1, 72, 56
3, 588000, Note_on_c, 1, 84, 56
3, 588192, Note_off_c, 1, 84, 64
3, 588192, Note_off_c, 1, 72, 64
3, 588480, Note_on_c, 1, 72, 56
3, 588480, Note_on_c, 1, 84, 56
3, 588672, Note_off_c, 1, 84, 64
3, 588672, Note_off_c, 1, 72, 64
3, 588960, Note_on_c, 1, 84, 56
3, 588960, Note_on_c, 1, 72, 56
3, 589152, Note_off_c, 1, 72, 64
3, 589152, Note_off_c, 1, 84, 64
3, 589440, Note_on_c, 1, 72, 56
3, 589440, Note_on_c, 1, 84, 56
3, 590736, Note_off_c, 1, 84, 64
3, 590736, Note_off_c, 1, 72, 64
3, 590880, Note_on_c, 1, 84, 56
3, 590880, Note_on_c, 1, 72, 56
3, 591072, Note_off_c, 1, 72, 64
3, 591072, Note_off_c, 1, 84, 64
3, 591360, Note_on_c, 1, 84, 56
3, 591360, Note_on_c, 1, 72, 56
3, 591552, Note_off_c, 1, 72, 64
3, 591552, Note_off_c, 1, 84, 64
3, 591840, Note_on_c, 1, 72, 56
3, 591840, Note_on_c, 1, 84, 56
3, 592032, Note_off_c, 1, 84, 64
3, 592032, Note_off_c, 1, 72, 64
3, 592320, Note_on_c, 1, 72, 56
3, 592320, Note_on_c, 1, 84, 56
3, 592512, Note_off_c, 1, 84, 64
3, 592512, Note_off_c, 1, 72, 64
3, 592800, Note_on_c, 1, 84, 56
3, 592800, Note_on_c, 1, 72, 56
3, 592992, Note_off_c, 1, 72, 64
3, 592992, Note_off_c, 1, 84, 64
3, 593280, Note_on_c, 1, 72, 56
3, 593280, Note_on_c, 1, 84, 56
3, 595200, Note_off_c, 1, 84, 64
3, 595200, Note_off_c, 1, 72, 64
3, 602880, Note_on_c, 1, 81, 62
3, 602880, Note_on_c, 1, 84, 62
3, 603120, Note_off_c, 1, 84, 64
3, 603120, Note_off_c, 1, 81, 64
3, 604320, Note_on_c, 1, 69, 62
3, 604320, Note_on_c, 1, 77, 62
3, 604512, Note_off_c, 1, 77, 64
3, 604512, Note_off_c, 1, 69, 64
3, 604800, Note_on_c, 1, 74, 62
3, 604800, Note_on_c, 1, 77, 62
3, 605040, Note_off_c, 1, 77, 64
3, 605040, Note_off_c, 1, 74, 64
3, 605760, Note_on_c, 1, 76, 62
3, 605760, Note_on_c, 1, 72, 62
3, 606000, Note_off_c, 1, 72, 64
3, 606000, Note_off_c, 1, 76, 64
3, 610560, Note_on_c, 1, 84, 62
3, 610560, Note_on_c, 1, 81, 62
3, 610800, Note_off_c, 1, 81, 64
3, 610800, Note_off_c, 1, 84, 64
3, 612000, Note_on_c, 1, 77, 62
3, 612000, Note_on_c, 1, 69, 62
3, 612192, Note_off_c, 1, 69, 64
3, 612192, Note_off_c, 1, 77, 64
3, 612480, Note_on_c, 1, 77, 62
3, 612480, Note_on_c, 1, 74, 62
3, 612720, Note_off_c, 1, 74, 64
3, 612720, Note_off_c, 1, 77, 64
3, 613440, Note_on_c, 1, 76, 62
3, 613440, Note_on_c, 1, 72, 62
3, 613680, Note_off_c, 1, 72, 64
3, 613680, Note_off_c, 1, 76, 64
3, 620160, Note_on_c, 1, 81, 69
3, 620160, Note_on_c, 1, 84, 69
3, 622004, Note_off_c, 1, 84, 64
3, 622004, Note_off_c, 1, 81, 64
3, 622080, Note_on_c, 1, 80, 78
3, 622080, Note_on_c, 1, 83, 78
3, 623924, Note_off_c, 1, 83, 64
3, 623924, Note_off_c, 1, 80, 64
3, 624000, Note_on_c, 1, 82, 86
3, 624000, Note_on_c, 1, 79, 86
3, 625844, Note_off_c, 1, 79, 64
3, 625844, Note_off_c, 1, 82, 64
3, 625920, Note_on_c, 1, 80, 80
3, 625920, Note_on_c, 1, 77, 80
3, 629376, Note_off_c, 1, 77, 64
3, 629376, Note_off_c, 1, 80, 64
3, 629760, Note_on_c, 1, 77, 80
3, 629760, Note_on_c, 1, 81, 80
3, 631296, Note_off_c, 1, 81, 64
3, 631296, Note_off_c, 1, 77, 64
3, 631680, Note_on_c, 1, 76, 80
3, 631680, Note_on_c, 1, 79, 80
3, 633216, Note_off_c, 1, 79, 64
3, 633216, Note_off_c, 1, 76, 64
3, 633600, Note_on_c, 1, 77, 80
3, 633984, Note_off_c, 1, 77, 64
3, 639840, Note_on_c, 1, 72, 80
3, 640608, Note_off_c, 1, 72, 64
3, 640800, Note_on_c, 1, 70, 80
3, 640800, Note_on_c, 1, 76, 80
3, 641040, Note_off_c, 1, 76, 64
3, 641040, Note_off_c, 1, 70, 64
3, 641280, Note_on_c, 1, 77, 80
3, 641664, Note_off_c, 1, 77, 64
3, 647520, Note_on_c, 1, 72, 80
3, 648288, Note_off_c, 1, 72, 64
3, 648480, Note_on_c, 1, 70, 80
3, 648480, Note_on_c, 1, 76, 80
3, 648720, Note_off_c, 1, 76, 64
3, 648720, Note_off_c, 1, 70, 64
3, 648960, Note_on_c, 1, 69, 80
3, 648960, Note_on_c, 1, 77, 80
3, 649200, Note_off_c, 1, 77, 64
3, 649200, Note_off_c, 1, 69, 64
3, 649920, Note_on_c, 1, 79, 80
3, 649920, Note_on_c, 1, 76, 80
3, 650160, Note_off_c, 1, 76, 64
3, 650160, Note_off_c, 1, 79, 64
3, 650880, Note_on_c, 1, 77, 80
3, 650880, Note_on_c, 1, 81, 80
3, 651120, Note_off_c, 1, 81, 64
3, 651120, Note_off_c, 1, 77, 64
3, 651840, Note_on_c, 1, 79, 80
3, 651840, Note_on_c, 1, 82, 80
3, 652080, Note_off_c, 1, 82, 64
3, 652080, Note_off_c, 1, 79, 64
3, 652800, Note_on_c, 1, 81, 48
3, 652800, Note_on_c, 1, 84, 48
3, 660360, Note_off_c, 1, 84, 64
3, 660360, Note_off_c, 1, 81, 64
3, 660480, Note_on_c, 1, 79, 48
3, 660480, Note_on_c, 1, 82, 48
3, 668040, Note_off_c, 1, 82, 64
3, 668040, Note_off_c, 1, 79, 64
3, 668160, Note_on_c, 1, 81, 48
3, 668160, Note_on_c, 1, 77, 48
3, 671880, Note_off_c, 1, 77, 64
3, 671880, Note_off_c, 1, 81, 64
3, 672000, Note_on_c, 1, 79, 48
3, 672000, Note_on_c, 1, 74, 48
3, 675720, Note_off_c, 1, 74, 64
3, 675720, Note_off_c, 1, 79, 64
3, 675840, Note_on_c, 1, 69, 48
3, 675840, Note_on_c, 1, 77, 48
3, 679560, Note_off_c, 1, 77, 64
3, 679560, Note_off_c, 1, 69, 64
3, 679680, Note_on_c, 1, 67, 36
3, 679680, Note_on_c, 1, 72, 36
3, 683400, Note_off_c, 1, 72, 64
3, 683400, Note_off_c, 1, 67, 64
3, 683520, Note_on_c, 1, 69, 40
3, 684480, Note_off_c, 1, 69, 64
3, 733920, Note_on_c, 1, 79, 40
3, 733920, Note_on_c, 1, 74, 40
3, 734088, Note_off_c, 1, 74, 64
3, 734088, Note_off_c, 1, 79, 64
3, 734400, Note_on_c, 1, 70, 40
3, 734400, Note_on_c, 1, 74, 40
3, 734568, Note_off_c, 1, 74, 64
3, 734568, Note_off_c, 1, 70, 64
3, 734880, Note_on_c, 1, 74, 40
3, 734880, Note_on_c, 1, 79, 40
3, 735048, Note_off_c, 1, 79, 64
3, 735048, Note_off_c, 1, 74, 64
3, 735840, Note_on_c, 1, 79, 40
3, 735840, Note_on_c, 1, 75, 40
3, 736008, Note_off_c, 1, 75, 64
3, 736008, Note_off_c, 1, 79, 64
3, 736320, Note_on_c, 1, 75, 40
3, 736320, Note_on_c, 1, 70, 40
3, 736488, Note_off_c, 1, 70, 64
3, 736488, Note_off_c, 1, 75, 64
3, 736800, Note_on_c, 1, 75, 40
3, 736800, Note_on_c, 1, 79, 40
3, 736968, Note_off_c, 1, 79, 64
3, 736968, Note_off_c, 1, 75, 64
3, 737760, Note_on_c, 1, 80, 40
3, 737760, Note_on_c, 1, 75, 40
3, 737928, Note_off_c, 1, 75, 64
3, 737928, Note_off_c, 1, 80, 64
3, 738240, Note_on_c, 1, 75, 40
3, 738240, Note_on_c, 1, 72, 40
3, 738408, Note_off_c, 1, 72, 64
3, 738408, Note_off_c, 1, 75, 64
3, 738720, Note_on_c, 1, 75, 40
3, 738720, Note_on_c, 1, 80, 40
3, 738888, Note_off_c, 1, 80, 64
3, 738888, Note_off_c, 1, 75, 64
3, 739680, Note_on_c, 1, 80, 40
3, 739680, Note_on_c, 1, 77, 40
3, 739848, Note_off_c, 1, 77, 64
3, 739848, Note_off_c, 1, 80, 64
3, 740160, Note_on_c, 1, 77, 40
3, 740160, Note_on_c, 1, 74, 40
3, 740328, Note_off_c, 1, 74, 64
3, 740328, Note_off_c, 1, 77, 64
3, 740640, Note_on_c, 1, 77, 40
3, 740640, Note_on_c, 1, 80, 40
3, 740808, Note_off_c, 1, 80, 64
3, 740808, Note_off_c, 1, 77, 64
3, 741120, Note_on_c, 1, 79, 40
3, 741120, Note_on_c, 1, 75, 40
3, 741288, Note_off_c, 1, 75, 64
3, 741288, Note_off_c, 1, 79, 64
3, 749280, Note_on_c, 1, 79, 40
3, 749280, Note_on_c, 1, 75, 40
3, 749448, Note_off_c, 1, 75, 64
3, 749448, Note_off_c, 1, 79, 64
3, 749760, Note_on_c, 1, 75, 40
3, 749760, Note_on_c, 1, 70, 40
3, 749928, Note_off_c, 1, 70, 64
3, 749928, Note_off_c, 1, 75, 64
3, 750240, Note_on_c, 1, 75, 40
3, 750240, Note_on_c, 1, 79, 40
3, 750408, Note_off_c, 1, 79, 64
3, 750408, Note_off_c, 1, 75, 64
3, 751200, Note_on_c, 1, 79, 40
3, 751200, Note_on_c, 1, 75, 40
3, 751368, Note_off_c, 1, 75, 64
3, 751368, Note_off_c, 1, 79, 64
3, 751680, Note_on_c, 1, 72, 40
3, 751680, Note_on_c, 1, 75, 40
3, 751848, Note_off_c, 1, 75, 64
3, 751848, Note_off_c, 1, 72, 64
3, 752160, Note_on_c, 1, 79, 40
3, 752160, Note_on_c, 1, 75, 40
3, 752328, Note_off_c, 1, 75, 64
3, 752328, Note_off_c, 1, 79, 64
3, 753120, Note_on_c, 1, 75, 40
3, 753120, Note_on_c, 1, 77, 40
3, 753288, Note_off_c, 1, 77, 64
3, 753288, Note_off_c, 1, 75, 64
3, 753600, Note_on_c, 1, 72, 40
3, 753600, Note_on_c, 1, 75, 40
3, 753768, Note_off_c, 1, 75, 64
3, 753768, Note_off_c, 1, 72, 64
3, 754080, Note_on_c, 1, 75, 40
3, 754080, Note_on_c, 1, 77, 40
3, 754248, Note_off_c, 1, 77, 64
3, 754248, Note_off_c, 1, 75, 64
3, 755040, Note_on_c, 1, 77, 40
3, 755040, Note_on_c, 1, 74, 40
3, 755208, Note_off_c, 1, 74, 64
3, 755208, Note_off_c, 1, 77, 64
3, 755520, Note_on_c, 1, 70, 40
3, 755520, Note_on_c, 1, 74, 40
3, 755688, Note_off_c, 1, 74, 64
3, 755688, Note_off_c, 1, 70, 64
3, 756000, Note_on_c, 1, 74, 40
3, 756000, Note_on_c, 1, 77, 40
3, 756168, Note_off_c, 1, 77, 64
3, 756168, Note_off_c, 1, 74, 64
3, 756480, Note_on_c, 1, 79, 80
3, 756480, Note_on_c, 1, 75, 80
3, 759936, Note_off_c, 1, 75, 64
3, 759936, Note_off_c, 1, 79, 64
3, 760320, Note_on_c, 1, 79, 80
3, 760320, Note_on_c, 1, 75, 80
3, 761856, Note_off_c, 1, 75, 64
3, 761856, Note_off_c, 1, 79, 64
3, 762240, Note_on_c, 1, 79, 80
3, 762240, Note_on_c, 1, 75, 80
3, 762690, Note_off_c, 1, 75, 64
3, 762690, Note_off_c, 1, 79, 64
3, 763200, Note_on_c, 1, 79, 80
3, 763200, Note_on_c, 1, 75, 80
3, 763650, Note_off_c, 1, 75, 64
3, 763650, Note_off_c, 1, 79, 64
3, 764160, Note_on_c, 1, 75, 80
3, 764160, Note_on_c, 1, 79, 80
3, 764610, Note_off_c, 1, 79, 64
3, 764610, Note_off_c, 1, 75, 64
3, 771840, Note_on_c, 1, 83, 80
3, 771840, Note_on_c, 1, 74, 80
3, 775296, Note_off_c, 1, 74, 64
3, 775296, Note_off_c, 1, 83, 64
3, 775680, Note_on_c, 1, 83, 80
3, 775680, Note_on_c, 1, 74, 80
3, 777216, Note_off_c, 1, 74, 64
3, 777216, Note_off_c, 1, 83, 64
3, 777600, Note_on_c, 1, 83, 80
3, 777600, Note_on_c, 1, 74, 80
3, 778050, Note_off_c, 1, 74, 64
3, 778050, Note_off_c, 1, 83, 64
3, 778560, Note_on_c, 1, 74, 80
3, 778560, Note_on_c, 1, 83, 80
3, 779010, Note_off_c, 1, 83, 64
3, 779010, Note_off_c, 1, 74, 64
3, 779520, Note_on_c, 1, 74, 80
3, 779520, Note_on_c, 1, 83, 80
3, 779970, Note_off_c, 1, 83, 64
3, 779970, Note_off_c, 1, 74, 64
3, 787200, Note_on_c, 1, 73, 80
3, 787200, Note_on_c, 1, 82, 80
3, 790656, Note_off_c, 1, 82, 64
3, 790656, Note_off_c, 1, 73, 64
3, 791040, Note_on_c, 1, 73, 80
3, 791040, Note_on_c, 1, 82, 80
3, 792576, Note_off_c, 1, 82, 64
3, 792576, Note_off_c, 1, 73, 64
3, 792960, Note_on_c, 1, 73, 80
3, 792960, Note_on_c, 1, 82, 80
3, 793410, Note_off_c, 1, 82, 64
3, 793410, Note_off_c, 1, 73, 64
3, 793920, Note_on_c, 1, 73, 80
3, 793920, Note_on_c, 1, 82, 80
3, 794370, Note_off_c, 1, 82, 64
3, 794370, Note_off_c, 1, 73, 64
3, 794880, Note_on_c, 1, 73, 80
3, 794880, Note_on_c, 1, 82, 80
3, 795330, Note_off_c, 1, 82, 64
3, 795330, Note_off_c, 1, 73, 64
3, 796800, Note_on_c, 1, 82, 80
3, 796800, Note_on_c, 1, 73, 80
3, 797250, Note_off_c, 1, 73, 64
3, 797250, Note_off_c, 1, 82, 64
3, 798720, Note_on_c, 1, 82, 80
3, 798720, Note_on_c, 1, 73, 80
3, 799170, Note_off_c, 1, 73, 64
3, 799170, Note_off_c, 1, 82, 64
3, 800640, Note_on_c, 1, 82, 80
3, 800640, Note_on_c, 1, 73, 80
3, 801090, Note_off_c, 1, 73, 64
3, 801090, Note_off_c, 1, 82, 64
3, 802560, Note_on_c, 1, 82, 80
3, 802560, Note_on_c, 1, 73, 80
3, 803010, Note_off_c, 1, 73, 64
3, 803010, Note_off_c, 1, 82, 64
3, 806400, Note_on_c, 1, 82, 34
3, 806400, Note_on_c, 1, 73, 34
3, 806850, Note_off_c, 1, 73, 64
3, 806850, Note_off_c, 1, 82, 64
3, 810240, Note_on_c, 1, 82, 24
3, 810240, Note_on_c, 1, 73, 24
3, 810690, Note_off_c, 1, 73, 64
3, 810690, Note_off_c, 1, 82, 64
3, 933120, Note_on_c, 1, 82, 80
3, 933120, Note_on_c, 1, 86, 80
3, 938496, Note_off_c, 1, 86, 64
3, 938496, Note_off_c, 1, 82, 64
3, 938880, Note_on_c, 1, 82, 80
3, 938880, Note_on_c, 1, 86, 80
3, 939072, Note_off_c, 1, 86, 64
3, 939072, Note_off_c, 1, 82, 64
3, 940080, Note_on_c, 1, 82, 80
3, 940080, Note_on_c, 1, 86, 80
3, 940272, Note_off_c, 1, 86, 64
3, 940272, Note_off_c, 1, 82, 64
3, 941280, Note_on_c, 1, 86, 80
3, 941280, Note_on_c, 1, 82, 80
3, 941472, Note_off_c, 1, 82, 64
3, 941472, Note_off_c, 1, 86, 64
3, 948720, Note_on_c, 1, 82, 80
3, 948816, Note_off_c, 1, 82, 64
3, 948840, Note_on_c, 1, 84, 80
3, 948936, Note_off_c, 1, 84, 64
3, 948960, Note_on_c, 1, 86, 80
3, 949152, Note_off_c, 1, 86, 64
3, 949440, Note_on_c, 1, 82, 68
3, 949632, Note_off_c, 1, 82, 64
3, 949920, Note_on_c, 1, 77, 68
3, 950112, Note_off_c, 1, 77, 64
3, 950400, Note_on_c, 1, 82, 68
3, 950592, Note_off_c, 1, 82, 64
3, 950880, Note_on_c, 1, 74, 68
3, 951072, Note_off_c, 1, 74, 64
3, 951360, Note_on_c, 1, 77, 68
3, 951552, Note_off_c, 1, 77, 64
3, 951840, Note_on_c, 1, 70, 68
3, 952032, Note_off_c, 1, 70, 64
3, 952320, Note_on_c, 1, 74, 68
3, 952512, Note_off_c, 1, 74, 64
3, 952800, Note_on_c, 1, 67, 68
3, 952992, Note_off_c, 1, 67, 64
3, 953280, Note_on_c, 1, 75, 68
3, 953472, Note_off_c, 1, 75, 64
3, 953760, Note_on_c, 1, 72, 68
3, 953952, Note_off_c, 1, 72, 64
3, 954240, Note_on_c, 1, 70, 68
3, 954432, Note_off_c, 1, 70, 64
3, 954720, Note_on_c, 1, 69, 68
3, 954912, Note_off_c, 1, 69, 64
3, 955200, Note_on_c, 1, 77, 68
3, 955392, Note_off_c, 1, 77, 64
3, 955680, Note_on_c, 1, 75, 68
3, 955872, Note_off_c, 1, 75, 64
3, 956160, Note_on_c, 1, 72, 68
3, 956352, Note_off_c, 1, 72, 64
3, 956640, Note_on_c, 1, 70, 96
3, 956832, Note_off_c, 1, 70, 64
3, 962880, Note_on_c, 1, 79, 44
3, 963360, Note_off_c, 1, 79, 64
3, 963360, Note_on_c, 1, 76, 48
3, 963840, Note_off_c, 1, 76, 64
3, 963840, Note_on_c, 1, 77, 51
3, 964320, Note_off_c, 1, 77, 64
3, 964320, Note_on_c, 1, 74, 54
3, 964800, Note_off_c, 1, 74, 64
3, 964800, Note_on_c, 1, 75, 58
3, 965280, Note_off_c, 1, 75, 64
3, 965280, Note_on_c, 1, 72, 61
3, 965760, Note_off_c, 1, 72, 64
3, 965760, Note_on_c, 1, 74, 64
3, 966240, Note_off_c, 1, 74, 64
3, 966240, Note_on_c, 1, 71, 68
3, 966720, Note_off_c, 1, 71, 64
3, 966720, Note_on_c, 1, 72, 71
3, 967200, Note_off_c, 1, 72, 64
3, 967200, Note_on_c, 1, 75, 75
3, 967680, Note_off_c, 1, 75, 64
3, 967680, Note_on_c, 1, 69, 78
3, 968160, Note_off_c, 1, 69, 64
3, 968160, Note_on_c, 1, 70, 89
3, 971616, Note_off_c, 1, 70, 64
3, 972000, Note_on_c, 1, 75, 89
3, 973536, Note_off_c, 1, 75, 64
3, 973920, Note_on_c, 1, 77, 89
3, 975720, Note_off_c, 1, 77, 64
3, 975840, Note_on_c, 1, 74, 89
3, 978336, Note_off_c, 1, 74, 64
3, 978720, Note_on_c, 1, 79, 89
3, 979620, Note_off_c, 1, 79, 64
3, 979680, Note_on_c, 1, 75, 89
3, 981480, Note_off_c, 1, 75, 64
3, 981600, Note_on_c, 1, 80, 102
3, 983400, Note_off_c, 1, 80, 64
3, 983520, Note_on_c, 1, 77, 102
3, 986016, Note_off_c, 1, 77, 64
3, 986400, Note_on_c, 1, 70, 102
3, 986400, Note_on_c, 1, 77, 102
3, 987168, Note_off_c, 1, 77, 64
3, 987168, Note_off_c, 1, 70, 64
3, 987360, Note_on_c, 1, 79, 102
3, 987360, Note_on_c, 1, 70, 102
3, 988128, Note_off_c, 1, 70, 64
3, 988128, Note_off_c, 1, 79, 64
3, 988320, Note_on_c, 1, 72, 102
3, 988320, Note_on_c, 1, 77, 102
3, 989088, Note_off_c, 1, 77, 64
3, 989088, Note_off_c, 1, 72, 64
3, 989280, Note_on_c, 1, 81, 102
3, 989280, Note_on_c, 1, 72, 102
3, 990048, Note_off_c, 1, 72, 64
3, 990048, Note_off_c, 1, 81, 64
3, 990240, Note_on_c, 1, 74, 102
3, 990240, Note_on_c, 1, 81, 102
3, 991008, Note_off_c, 1, 81, 64
3, 991008, Note_off_c, 1, 74, 64
3, 991200, Note_on_c, 1, 74, 102
3, 991200, Note_on_c, 1, 82, 102
3, 991968, Note_off_c, 1, 82, 64
3, 991968, Note_off_c, 1, 74, 64
3, 992160, Note_on_c, 1, 82, 102
3, 992160, Note_on_c, 1, 75, 102
3, 992928, Note_off_c, 1, 75, 64
3, 992928, Note_off_c, 1, 82, 64
3, 993120, Note_on_c, 1, 84, 102
3, 993120, Note_on_c, 1, 75, 102
3, 993888, Note_off_c, 1, 75, 64
3, 993888, Note_off_c, 1, 84, 64
3, 994080, Note_on_c, 1, 77, 102
3, 994080, Note_on_c, 1, 84, 102
3, 994848, Note_off_c, 1, 84, 64
3, 994848, Note_off_c, 1, 77, 64
3, 995040, Note_on_c, 1, 70, 104
3, 995040, Note_on_c, 1, 74, 104
3, 999648, Note_off_c, 1, 74, 64
3, 999648, Note_off_c, 1, 70, 64
3, 999840, Note_on_c, 1, 77, 104
3, 1000608, Note_off_c, 1, 77, 64
3, 1000800, Note_on_c, 1, 74, 104
3, 1001568, Note_off_c, 1, 74, 64
3, 1001760, Note_on_c, 1, 70, 104
3, 1002528, Note_off_c, 1, 70, 64
3, 1003200, Note_on_c, 1, 77, 77
3, 1003968, Note_off_c, 1, 77, 64
3, 1004160, Note_on_c, 1, 77, 77
3, 1005024, Note_off_c, 1, 77, 64
3, 1005120, Note_on_c, 1, 77, 77
3, 1005888, Note_off_c, 1, 77, 64
3, 1006080, Note_on_c, 1, 77, 77
3, 1006944, Note_off_c, 1, 77, 64
3, 1007040, Note_on_c, 1, 77, 77
3, 1007808, Note_off_c, 1, 77, 64
3, 1008000, Note_on_c, 1, 77, 77
3, 1008864, Note_off_c, 1, 77, 64
3, 1008960, Note_on_c, 1, 79, 117
3, 1009920, Note_off_c, 1, 79, 64
3, 1009920, Note_on_c, 1, 77, 77
3, 1010304, Note_off_c, 1, 77, 64
3, 1010400, Note_on_c, 1, 77, 61
3, 1010784, Note_off_c, 1, 77, 64
3, 1010880, Note_on_c, 1, 84, 51
3, 1010880, Note_on_c, 1, 81, 51
3, 1011648, Note_off_c, 1, 81, 64
3, 1011648, Note_off_c, 1, 84, 64
3, 1011840, Note_on_c, 1, 85, 51
3, 1011840, Note_on_c, 1, 82, 51
3, 1012704, Note_off_c, 1, 82, 64
3, 1012704, Note_off_c, 1, 85, 64
3, 1012800, Note_on_c, 1, 87, 64
3, 1012800, Note_on_c, 1, 84, 51
3, 1013568, Note_off_c, 1, 84, 64
3, 1013568, Note_off_c, 1, 87, 64
3, 1013760, Note_on_c, 1, 79, 51
3, 1013760, Note_on_c, 1, 82, 51
3, 1014624, Note_off_c, 1, 82, 64
3, 1014624, Note_off_c, 1, 79, 64
3, 1014720, Note_on_c, 1, 84, 51
3, 1014720, Note_on_c, 1, 81, 51
3, 1015488, Note_off_c, 1, 81, 64
3, 1015488, Note_off_c, 1, 84, 64
3, 1015680, Note_on_c, 1, 85, 51
3, 1015680, Note_on_c, 1, 82, 51
3, 1016544, Note_off_c, 1, 82, 64
3, 1016544, Note_off_c, 1, 85, 64
3, 1016640, Note_on_c, 1, 85, 51
3, 1016640, Note_on_c, 1, 82, 51
3, 1017600, Note_off_c, 1, 82, 64
3, 1017600, Note_off_c, 1, 85, 64
3, 1017600, Note_on_c, 1, 84, 51
3, 1017600, Note_on_c, 1, 81, 51
3, 1017984, Note_off_c, 1, 81, 64
3, 1017984, Note_off_c, 1, 84, 64
3, 1033440, Note_on_c, 1, 82, 50
3, 1033680, Note_off_c, 1, 82, 64
3, 1033680, Note_on_c, 1, 79, 50
3, 1033920, Note_off_c, 1, 79, 64
3, 1033920, Note_on_c, 1, 81, 50
3, 1034160, Note_off_c, 1, 81, 64
3, 1034160, Note_on_c, 1, 78, 50
3, 1034400, Note_off_c, 1, 78, 64
3, 1034400, Note_on_c, 1, 79, 50
3, 1034592, Note_off_c, 1, 79, 64
3, 1034880, Note_on_c, 1, 74, 50
3, 1035072, Note_off_c, 1, 74, 64
3, 1035360, Note_on_c, 1, 79, 50
3, 1035552, Note_off_c, 1, 79, 64
3, 1035840, Note_on_c, 1, 81, 50
3, 1036032, Note_off_c, 1, 81, 64
3, 1036320, Note_on_c, 1, 82, 50
3, 1036512, Note_off_c, 1, 82, 64
3, 1036800, Note_on_c, 1, 84, 50
3, 1036992, Note_off_c, 1, 84, 64
3, 1037280, Note_on_c, 1, 86, 50
3, 1038720, Note_off_c, 1, 86, 64
3, 1038720, Note_on_c, 1, 84, 50
3, 1039200, Note_off_c, 1, 84, 64
3, 1039200, Note_on_c, 1, 82, 50
3, 1040640, Note_off_c, 1, 82, 64
3, 1040640, Note_on_c, 1, 79, 50
3, 1041120, Note_off_c, 1, 79, 64
3, 1041120, Note_on_c, 1, 78, 50
3, 1042560, Note_off_c, 1, 78, 64
3, 1042560, Note_on_c, 1, 81, 50
3, 1042800, Note_off_c, 1, 81, 64
3, 1042920, Note_on_c, 1, 81, 50
3, 1043040, Note_off_c, 1, 81, 64
3, 1043040, Note_on_c, 1, 79, 50
3, 1043520, Note_off_c, 1, 79, 64
3, 1043520, Note_on_c, 1, 78, 50
3, 1044000, Note_off_c, 1, 78, 64
3, 1044000, Note_on_c, 1, 79, 50
3, 1044480, Note_off_c, 1, 79, 64
3, 1044480, Note_on_c, 1, 75, 50
3, 1044480, Note_on_c, 1, 75, 50
3, 1044960, Note_off_c, 1, 75, 64
3, 1044960, Note_off_c, 1, 75, 64
3, 1044960, Note_on_c, 1, 74, 50
3, 1045440, Note_off_c, 1, 74, 64
3, 1073760, Note_on_c, 1, 84, 60
3, 1073760, Note_on_c, 1, 81, 60
3, 1074240, Note_off_c, 1, 81, 64
3, 1074240, Note_off_c, 1, 84, 64
3, 1074720, Note_on_c, 1, 81, 80
3, 1074720, Note_on_c, 1, 84, 80
3, 1075200, Note_off_c, 1, 84, 64
3, 1075200, Note_off_c, 1, 81, 64
3, 1075680, Note_on_c, 1, 81, 80
3, 1075680, Note_on_c, 1, 84, 80
3, 1076160, Note_off_c, 1, 84, 64
3, 1076160, Note_off_c, 1, 81, 64
3, 1076640, Note_on_c, 1, 81, 80
3, 1076640, Note_on_c, 1, 84, 80
3, 1077120, Note_off_c, 1, 84, 64
3, 1077120, Note_off_c, 1, 81, 64
3, 1077600, Note_on_c, 1, 81, 80
3, 1077600, Note_on_c, 1, 84, 80
3, 1078080, Note_off_c, 1, 84, 64
3, 1078080, Note_off_c, 1, 81, 64
3, 1078560, Note_on_c, 1, 81, 80
3, 1078560, Note_on_c, 1, 84, 80
3, 1079040, Note_off_c, 1, 84, 64
3, 1079040, Note_off_c, 1, 81, 64
3, 1079520, Note_on_c, 1, 82, 80
3, 1079520, Note_on_c, 1, 77, 80
3, 1079712, Note_off_c, 1, 77, 64
3, 1079712, Note_off_c, 1, 82, 64
3, 1081440, Note_on_c, 1, 82, 80
3, 1081440, Note_on_c, 1, 79, 80
3, 1081632, Note_off_c, 1, 79, 64
3, 1081632, Note_off_c, 1, 82, 64
3, 1083360, Note_on_c, 1, 77, 80
3, 1083360, Note_on_c, 1, 82, 80
3, 1083552, Note_off_c, 1, 82, 64
3, 1083552, Note_off_c, 1, 77, 64
3, 1084800, Note_on_c, 1, 82, 56
3, 1084800, Note_on_c, 1, 77, 56
3, 1084992, Note_off_c, 1, 77, 64
3, 1084992, Note_off_c, 1, 82, 64
3, 1085280, Note_on_c, 1, 81, 56
3, 1085280, Note_on_c, 1, 77, 56
3, 1085472, Note_off_c, 1, 77, 64
3, 1085472, Note_off_c, 1, 81, 64
3, 1085760, Note_on_c, 1, 77, 56
3, 1085760, Note_on_c, 1, 81, 56
3, 1085952, Note_off_c, 1, 81, 64
3, 1085952, Note_off_c, 1, 77, 64
3, 1086240, Note_on_c, 1, 77, 56
3, 1086240, Note_on_c, 1, 81, 56
3, 1086432, Note_off_c, 1, 81, 64
3, 1086432, Note_off_c, 1, 77, 64
3, 1086720, Note_on_c, 1, 77, 56
3, 1086720, Note_on_c, 1, 81, 56
3, 1086912, Note_off_c, 1, 81, 64
3, 1086912, Note_off_c, 1, 77, 64
3, 1087200, Note_on_c, 1, 77, 56
3, 1087200, Note_on_c, 1, 82, 56
3, 1087392, Note_off_c, 1, 82, 64
3, 1087392, Note_off_c, 1, 77, 64
3, 1088160, Note_on_c, 1, 79, 56
3, 1088160, Note_on_c, 1, 82, 56
3, 1088352, Note_off_c, 1, 82, 64
3, 1088352, Note_off_c, 1, 79, 64
3, 1089120, Note_on_c, 1, 77, 56
3, 1089120, Note_on_c, 1, 82, 56
3, 1089312, Note_off_c, 1, 82, 64
3, 1089312, Note_off_c, 1, 77, 64
3, 1090080, Note_on_c, 1, 81, 56
3, 1090080, Note_on_c, 1, 75, 56
3, 1090272, Note_off_c, 1, 75, 64
3, 1090272, Note_off_c, 1, 81, 64
3, 1106400, Note_on_c, 1, 65, 56
3, 1106400, Note_on_c, 1, 77, 56
3, 1106592, Note_off_c, 1, 77, 64
3, 1106592, Note_off_c, 1, 65, 64
3, 1106880, Note_on_c, 1, 77, 56
3, 1106880, Note_on_c, 1, 65, 56
3, 1107072, Note_off_c, 1, 65, 64
3, 1107072, Note_off_c, 1, 77, 64
3, 1107360, Note_on_c, 1, 77, 56
3, 1107360, Note_on_c, 1, 65, 56
3, 1107552, Note_off_c, 1, 65, 64
3, 1107552, Note_off_c, 1, 77, 64
3, 1107840, Note_on_c, 1, 65, 56
3, 1107840, Note_on_c, 1, 77, 56
3, 1108032, Note_off_c, 1, 77, 64
3, 1108032, Note_off_c, 1, 65, 64
3, 1108320, Note_on_c, 1, 65, 56
3, 1108320, Note_on_c, 1, 77, 56
3, 1109616, Note_off_c, 1, 77, 64
3, 1109616, Note_off_c, 1, 65, 64
3, 1109760, Note_on_c, 1, 65, 56
3, 1109760, Note_on_c, 1, 77, 56
3, 1109952, Note_off_c, 1, 77, 64
3, 1109952, Note_off_c, 1, 65, 64
3, 1110240, Note_on_c, 1, 77, 56
3, 1110240, Note_on_c, 1, 65, 56
3, 1110432, Note_off_c, 1, 65, 64
3, 1110432, Note_off_c, 1, 77, 64
3, 1110720, Note_on_c, 1, 77, 56
3, 1110720, Note_on_c, 1, 65, 56
3, 1110912, Note_off_c, 1, 65, 64
3, 1110912, Note_off_c, 1, 77, 64
3, 1111200, Note_on_c, 1, 65, 56
3, 1111200, Note_on_c, 1, 77, 56
3, 1111392, Note_off_c, 1, 77, 64
3, 1111392, Note_off_c, 1, 65, 64
3, 1111680, Note_on_c, 1, 65, 56
3, 1111680, Note_on_c, 1, 77, 56
3, 1111872, Note_off_c, 1, 77, 64
3, 1111872, Note_off_c, 1, 65, 64
3, 1112160, Note_on_c, 1, 65, 56
3, 1112160, Note_on_c, 1, 77, 56
3, 1113456, Note_off_c, 1, 77, 64
3, 1113456, Note_off_c, 1, 65, 64
3, 1113600, Note_on_c, 1, 77, 56
3, 1113600, Note_on_c, 1, 65, 56
3, 1113792, Note_off_c, 1, 65, 64
3, 1113792, Note_off_c, 1, 77, 64
3, 1114080, Note_on_c, 1, 65, 56
3, 1114080, Note_on_c, 1, 77, 56
3, 1114272, Note_off_c, 1, 77, 64
3, 1114272, Note_off_c, 1, 65, 64
3, 1114560, Note_on_c, 1, 77, 56
3, 1114560, Note_on_c, 1, 65, 56
3, 1114752, Note_off_c, 1, 65, 64
3, 1114752, Note_off_c, 1, 77, 64
3, 1115040, Note_on_c, 1, 65, 56
3, 1115040, Note_on_c, 1, 77, 56
3, 1115232, Note_off_c, 1, 77, 64
3, 1115232, Note_off_c, 1, 65, 64
3, 1115520, Note_on_c, 1, 65, 56
3, 1115520, Note_on_c, 1, 77, 56
3, 1115712, Note_off_c, 1, 77, 64
3, 1115712, Note_off_c, 1, 65, 64
3, 1116000, Note_on_c, 1, 65, 56
3, 1116000, Note_on_c, 1, 77, 56
3, 1117296, Note_off_c, 1, 77, 64
3, 1117296, Note_off_c, 1, 65, 64
3, 1117440, Note_on_c, 1, 77, 56
3, 1117440, Note_on_c, 1, 65, 56
3, 1117632, Note_off_c, 1, 65, 64
3, 1117632, Note_off_c, 1, 77, 64
3, 1117920, Note_on_c, 1, 65, 56
3, 1117920, Note_on_c, 1, 77, 56
3, 1118112, Note_off_c, 1, 77, 64
3, 1118112, Note_off_c, 1, 65, 64
3, 1118400, Note_on_c, 1, 77, 56
3, 1118400, Note_on_c, 1, 65, 56
3, 1118592, Note_off_c, 1, 65, 64
3, 1118592, Note_off_c, 1, 77, 64
3, 1118880, Note_on_c, 1, 65, 56
3, 1118880, Note_on_c, 1, 77, 56
3, 1119072, Note_off_c, 1, 77, 64
3, 1119072, Note_off_c, 1, 65, 64
3, 1119360, Note_on_c, 1, 65, 56
3, 1119360, Note_on_c, 1, 77, 56
3, 1119552, Note_off_c, 1, 77, 64
3, 1119552, Note_off_c, 1, 65, 64
3, 1119840, Note_on_c, 1, 65, 56
3, 1119840, Note_on_c, 1, 77, 56
3, 1121760, Note_off_c, 1, 77, 64
3, 1121760, Note_off_c, 1, 65, 64
3, 1129440, Note_on_c, 1, 74, 62
3, 1129440, Note_on_c, 1, 77, 62
3, 1129680, Note_off_c, 1, 77, 64
3, 1129680, Note_off_c, 1, 74, 64
3, 1130880, Note_on_c, 1, 82, 62
3, 1130880, Note_on_c, 1, 74, 62
3, 1131072, Note_off_c, 1, 74, 64
3, 1131072, Note_off_c, 1, 82, 64
3, 1131360, Note_on_c, 1, 82, 62
3, 1131360, Note_on_c, 1, 72, 62
3, 1131600, Note_off_c, 1, 72, 64
3, 1131600, Note_off_c, 1, 82, 64
3, 1132320, Note_on_c, 1, 81, 62
3, 1132320, Note_on_c, 1, 72, 62
3, 1132560, Note_off_c, 1, 72, 64
3, 1132560, Note_off_c, 1, 81, 64
3, 1137120, Note_on_c, 1, 77, 62
3, 1137120, Note_on_c, 1, 74, 62
3, 1137360, Note_off_c, 1, 74, 64
3, 1137360, Note_off_c, 1, 77, 64
3, 1138560, Note_on_c, 1, 82, 62
3, 1138560, Note_on_c, 1, 74, 62
3, 1138752, Note_off_c, 1, 74, 64
3, 1138752, Note_off_c, 1, 82, 64
3, 1139040, Note_on_c, 1, 72, 62
3, 1139040, Note_on_c, 1, 82, 62
3, 1139280, Note_off_c, 1, 82, 64
3, 1139280, Note_off_c, 1, 72, 64
3, 1140000, Note_on_c, 1, 72, 62
3, 1140000, Note_on_c, 1, 81, 62
3, 1140240, Note_off_c, 1, 81, 64
3, 1140240, Note_off_c, 1, 72, 64
3, 1144800, Note_on_c, 1, 79, 69
3, 1144800, Note_on_c, 1, 73, 69
3, 1146644, Note_off_c, 1, 73, 64
3, 1146644, Note_off_c, 1, 79, 64
3, 1146720, Note_on_c, 1, 77, 69
3, 1146720, Note_on_c, 1, 74, 69
3, 1148564, Note_off_c, 1, 74, 64
3, 1148564, Note_off_c, 1, 77, 64
3, 1148640, Note_on_c, 1, 76, 78
3, 1148640, Note_on_c, 1, 73, 78
3, 1150484, Note_off_c, 1, 73, 64
3, 1150484, Note_off_c, 1, 76, 64
3, 1150560, Note_on_c, 1, 72, 86
3, 1150560, Note_on_c, 1, 75, 86
3, 1152404, Note_off_c, 1, 75, 64
3, 1152404, Note_off_c, 1, 72, 64
3, 1152480, Note_on_c, 1, 73, 80
3, 1152480, Note_on_c, 1, 82, 80
3, 1155936, Note_off_c, 1, 82, 64
3, 1155936, Note_off_c, 1, 73, 64
3, 1156320, Note_on_c, 1, 82, 80
3, 1156320, Note_on_c, 1, 74, 80
3, 1157856, Note_off_c, 1, 74, 64
3, 1157856, Note_off_c, 1, 82, 64
3, 1158240, Note_on_c, 1, 81, 80
3, 1158240, Note_on_c, 1, 72, 80
3, 1159776, Note_off_c, 1, 72, 64
3, 1159776, Note_off_c, 1, 81, 64
3, 1160160, Note_on_c, 1, 82, 80
3, 1160544, Note_off_c, 1, 82, 64
3, 1166400, Note_on_c, 1, 77, 80
3, 1167168, Note_off_c, 1, 77, 64
3, 1167360, Note_on_c, 1, 75, 80
3, 1167360, Note_on_c, 1, 81, 80
3, 1167600, Note_off_c, 1, 81, 64
3, 1167600, Note_off_c, 1, 75, 64
3, 1167840, Note_on_c, 1, 74, 80
3, 1167840, Note_on_c, 1, 82, 80
3, 1168224, Note_off_c, 1, 82, 64
3, 1168224, Note_off_c, 1, 74, 64
3, 1174080, Note_on_c, 1, 77, 80
3, 1174848, Note_off_c, 1, 77, 64
3, 1175040, Note_on_c, 1, 75, 80
3, 1175040, Note_on_c, 1, 81, 80
3, 1175280, Note_off_c, 1, 81, 64
3, 1175280, Note_off_c, 1, 75, 64
3, 1175520, Note_on_c, 1, 82, 80
3, 1175520, Note_on_c, 1, 74, 80
3, 1175904, Note_off_c, 1, 74, 64
3, 1175904, Note_off_c, 1, 82, 64
3, 1177920, Note_on_c, 1, 75, 80
3, 1177920, Note_on_c, 1, 77, 80
3, 1178688, Note_off_c, 1, 77, 64
3, 1178688, Note_off_c, 1, 75, 64
3, 1178880, Note_on_c, 1, 81, 80
3, 1178880, Note_on_c, 1, 75, 80
3, 1179120, Note_off_c, 1, 75, 64
3, 1179120, Note_off_c, 1, 81, 64
3, 1179360, Note_on_c, 1, 75, 80
3, 1179360, Note_on_c, 1, 81, 80
3, 1182946, Note_off_c, 1, 81, 64
3, 1182946, Note_off_c, 1, 75, 64
3, 1183080, Note_on_c, 1, 75, 80
3, 1183080, Note_on_c, 1, 81, 80
3, 1183194, Note_off_c, 1, 81, 64
3, 1183194, Note_off_c, 1, 75, 64
3, 1183200, Note_on_c, 1, 81, 80
3, 1183200, Note_on_c, 1, 75, 80
3, 1183392, Note_off_c, 1, 75, 64
3, 1183392, Note_off_c, 1, 81, 64
3, 1185120, Note_on_c, 1, 75, 80
3, 1185120, Note_on_c, 1, 81, 80
3, 1185312, Note_off_c, 1, 81, 64
3, 1185312, Note_off_c, 1, 75, 64
3, 1187040, Note_on_c, 1, 81, 80
3, 1187040, Note_on_c, 1, 75, 80
3, 1187232, Note_off_c, 1, 75, 64
3, 1187232, Note_off_c, 1, 81, 64
3, 1188000, Note_on_c, 1, 81, 80
3, 1188000, Note_on_c, 1, 75, 80
3, 1188192, Note_off_c, 1, 75, 64
3, 1188192, Note_off_c, 1, 81, 64
3, 1188960, Note_on_c, 1, 81, 80
3, 1188960, Note_on_c, 1, 75, 80
3, 1189152, Note_off_c, 1, 75, 64
3, 1189152, Note_off_c, 1, 81, 64
3, 1189920, Note_on_c, 1, 75, 80
3, 1189920, Note_on_c, 1, 81, 80
3, 1190112, Note_off_c, 1, 81, 64
3, 1190112, Note_off_c, 1, 75, 64
3, 1190880, Note_on_c, 1, 82, 80
3, 1190880, Note_on_c, 1, 74, 80
3, 1191072, Note_off_c, 1, 74, 64
3, 1191072, Note_off_c, 1, 82, 64
3, 1192800, Note_on_c, 1, 82, 48
3, 1192800, Note_on_c, 1, 74, 48
3, 1192992, Note_off_c, 1, 74, 64
3, 1192992, Note_off_c, 1, 82, 64
3, 1194720, Note_on_c, 1, 74, 48
3, 1194720, Note_on_c, 1, 82, 48
3, 1194912, Note_off_c, 1, 82, 64
3, 1194912, Note_off_c, 1, 74, 64
3, 1196640, Note_on_c, 1, 74, 48
3, 1196640, Note_on_c, 1, 82, 48
3, 1196832, Note_off_c, 1, 82, 64
3, 1196832, Note_off_c, 1, 74, 64
3, 1198560, Note_on_c, 1, 74, 80
3, 1198560, Note_on_c, 1, 82, 80
3, 1198752, Note_off_c, 1, 82, 64
3, 1198752, Note_off_c, 1, 74, 64
3, 1200480, Note_on_c, 1, 74, 48
3, 1200480, Note_on_c, 1, 82, 48
3, 1200672, Note_off_c, 1, 82, 64
3, 1200672, Note_off_c, 1, 74, 64
3, 1202400, Note_on_c, 1, 74, 48
3, 1202400, Note_on_c, 1, 82, 48
3, 1202592, Note_off_c, 1, 82, 64
3, 1202592, Note_off_c, 1, 74, 64
3, 1204320, Note_on_c, 1, 74, 48
3, 1204320, Note_on_c, 1, 82, 48
3, 1204512, Note_off_c, 1, 82, 64
3, 1204512, Note_off_c, 1, 74, 64
3, 1206720, Note_on_c, 1, 79, 48
3, 1207200, Note_off_c, 1, 79, 64
3, 1207200, Note_on_c, 1, 77, 48
3, 1207680, Note_off_c, 1, 77, 64
3, 1207680, Note_on_c, 1, 75, 48
3, 1208160, Note_off_c, 1, 75, 64
3, 1208160, Note_on_c, 1, 74, 48
3, 1208640, Note_off_c, 1, 74, 64
3, 1208640, Note_on_c, 1, 72, 48
3, 1209120, Note_off_c, 1, 72, 64
3, 1209120, Note_on_c, 1, 70, 48
3, 1209600, Note_off_c, 1, 70, 64
3, 1209600, Note_on_c, 1, 72, 48
3, 1210080, Note_off_c, 1, 72, 64
3, 1210080, Note_on_c, 1, 72, 76
3, 1210080, Note_on_c, 1, 77, 76
3, 1211616, Note_off_c, 1, 77, 64
3, 1211616, Note_off_c, 1, 72, 64
3, 1212000, Note_on_c, 1, 72, 76
3, 1212000, Note_on_c, 1, 77, 76
3, 1213584, Note_off_c, 1, 77, 64
3, 1213584, Note_off_c, 1, 72, 64
3, 1213800, Note_on_c, 1, 77, 76
3, 1213800, Note_on_c, 1, 72, 76
3, 1213896, Note_off_c, 1, 72, 64
3, 1213896, Note_off_c, 1, 77, 64
3, 1213920, Note_on_c, 1, 77, 116
3, 1213920, Note_on_c, 1, 74, 76
3, 1214112, Note_off_c, 1, 74, 64
3, 1214112, Note_off_c, 1, 77, 64
3, 1214400, Note_on_c, 1, 79, 48
3, 1214880, Note_off_c, 1, 79, 64
3, 1214880, Note_on_c, 1, 77, 48
3, 1215360, Note_off_c, 1, 77, 64
3, 1215360, Note_on_c, 1, 75, 48
3, 1215840, Note_off_c, 1, 75, 64
3, 1215840, Note_on_c, 1, 74, 48
3, 1216320, Note_off_c, 1, 74, 64
3, 1216320, Note_on_c, 1, 72, 48
3, 1216800, Note_off_c, 1, 72, 64
3, 1216800, Note_on_c, 1, 70, 48
3, 1217280, Note_off_c, 1, 70, 64
3, 1217280, Note_on_c, 1, 72, 48
3, 1217760, Note_off_c, 1, 72, 64
3, 1217760, Note_on_c, 1, 77, 76
3, 1217760, Note_on_c, 1, 72, 76
3, 1219296, Note_off_c, 1, 72, 64
3, 1219296, Note_off_c, 1, 77, 64
3, 1219680, Note_on_c, 1, 72, 76
3, 1219680, Note_on_c, 1, 77, 76
3, 1221264, Note_off_c, 1, 77, 64
3, 1221264, Note_off_c, 1, 72, 64
3, 1221480, Note_on_c, 1, 72, 76
3, 1221480, Note_on_c, 1, 77, 76
3, 1221576, Note_off_c, 1, 77, 64
3, 1221576, Note_off_c, 1, 72, 64
3, 1229280, Note_on_c, 1, 70, 80
3, 1229280, Note_on_c, 1, 74, 80
3, 1232736, Note_off_c, 1, 74, 64
3, 1232736, Note_off_c, 1, 70, 64
3, 1233120, Note_on_c, 1, 69, 75
3, 1233120, Note_on_c, 1, 77, 75
3, 1236576, Note_off_c, 1, 77, 64
3, 1236576, Note_off_c, 1, 69, 64
3, 1236960, Note_on_c, 1, 82, 101
3, 1236960, Note_on_c, 1, 74, 101
3, 1244448, Note_off_c, 1, 74, 64
3, 1244448, Note_off_c, 1, 82, 64
3, 1244520, Note_on_c, 1, 65, 120
3, 1244520, Note_on_c, 1, 77, 120
3, 1244600, Note_off_c, 1, 77, 64
3, 1244600, Note_off_c, 1, 65, 64
3, 1244600, Note_on_c, 1, 67, 120
3, 1244600, Note_on_c, 1, 79, 120
3, 1244640, Note_on_c, 1, 74, 127
3, 1244640, Note_on_c, 1, 82, 127
3, 1244680, Note_off_c, 1, 79, 64
3, 1244680, Note_off_c, 1, 67, 64
3, 1244880, Note_off_c, 1, 74, 64
3, 1244880, Note_off_c, 1, 82, 64
3, 1245360, Note_on_c, 1, 77, 127
3, 1245440, Note_off_c, 1, 77, 64
3, 1245440, Note_on_c, 1, 79, 127
3, 1245520, Note_off_c, 1, 79, 64
3, 1245520, Note_on_c, 1, 81, 127
3, 1245600, Note_off_c, 1, 81, 64
3, 1245600, Note_on_c, 1, 74, 127
3, 1245600, Note_on_c, 1, 82, 127
3, 1245840, Note_off_c, 1, 82, 64
3, 1245840, Note_off_c, 1, 74, 64
3, 1246320, Note_on_c, 1, 77, 127
3, 1246400, Note_off_c, 1, 77, 64
3, 1246400, Note_on_c, 1, 79, 127
3, 1246480, Note_off_c, 1, 79, 64
3, 1246480, Note_on_c, 1, 81, 127
3, 1246560, Note_off_c, 1, 81, 64
3, 1246560, Note_on_c, 1, 74, 127
3, 1246560, Note_on_c, 1, 82, 127
3, 1246800, Note_off_c, 1, 82, 64
3, 1246800, Note_off_c, 1, 74, 64
3, 1248480, Note_on_c, 1, 82, 127
3, 1248480, Note_on_c, 1, 74, 127
3, 1248720, Note_off_c, 1, 74, 64
3, 1248720, Note_off_c, 1, 82, 64
3, 1250400, Note_on_c, 1, 70, 127
3, 1250640, Note_off_c, 1, 70, 64
3, 1250640, End_track
4, 0, Start_track
4, 0, Title_t, "Clarinet"
4, 0, MIDI_port, 0
4, 0, Channel_prefix, 2
4, 0, Control_c, 2, 7, 74
4, 0, Control_c, 2, 10, 55
4, 0, Program_c, 2, 71
4, 480, Program_c, 2, 71
4, 480, Control_c, 2, 91, 85
4, 480, Control_c, 2, 7, 90
4, 480, Control_c, 2, 10, 60
4, 5700, Control_c, 2, 7, 75
4, 5760, Note_on_c, 2, 70, 26
4, 13440, Control_c, 2, 7, 74
4, 13480, Control_c, 2, 7, 75
4, 13504, Control_c, 2, 7, 76
4, 13532, Control_c, 2, 7, 77
4, 13572, Control_c, 2, 7, 78
4, 13600, Control_c, 2, 7, 79
4, 13624, Control_c, 2, 7, 80
4, 13652, Control_c, 2, 7, 81
4, 13692, Control_c, 2, 7, 82
4, 13720, Control_c, 2, 7, 83
4, 13744, Control_c, 2, 7, 84
4, 13784, Control_c, 2, 7, 85
4, 13812, Control_c, 2, 7, 86
4, 13840, Control_c, 2, 7, 87
4, 13864, Control_c, 2, 7, 88
4, 13904, Control_c, 2, 7, 89
4, 13932, Control_c, 2, 7, 90
4, 13960, Control_c, 2, 7, 91
4, 14000, Control_c, 2, 7, 92
4, 14024, Control_c, 2, 7, 93
4, 14052, Control_c, 2, 7, 94
4, 14080, Control_c, 2, 7, 95
4, 14120, Control_c, 2, 7, 96
4, 14144, Control_c, 2, 7, 97
4, 14172, Control_c, 2, 7, 98
4, 14212, Control_c, 2, 7, 99
4, 14240, Control_c, 2, 7, 100
4, 14264, Control_c, 2, 7, 101
4, 14292, Control_c, 2, 7, 102
4, 14332, Control_c, 2, 7, 103
4, 14360, Control_c, 2, 7, 104
4, 14384, Control_c, 2, 7, 105
4, 14412, Control_c, 2, 7, 106
4, 14440, Control_c, 2, 7, 106
4, 14480, Control_c, 2, 7, 105
4, 14504, Control_c, 2, 7, 104
4, 14544, Control_c, 2, 7, 103
4, 14572, Control_c, 2, 7, 102
4, 14612, Control_c, 2, 7, 101
4, 14640, Control_c, 2, 7, 100
4, 14680, Control_c, 2, 7, 99
4, 14704, Control_c, 2, 7, 98
4, 14744, Control_c, 2, 7, 97
4, 14772, Control_c, 2, 7, 96
4, 14812, Control_c, 2, 7, 95
4, 14840, Control_c, 2, 7, 94
4, 14880, Control_c, 2, 7, 93
4, 14904, Control_c, 2, 7, 92
4, 14944, Control_c, 2, 7, 91
4, 14972, Control_c, 2, 7, 90
4, 15012, Control_c, 2, 7, 89
4, 15052, Control_c, 2, 7, 88
4, 15080, Control_c, 2, 7, 87
4, 15120, Control_c, 2, 7, 86
4, 15144, Control_c, 2, 7, 85
4, 15184, Control_c, 2, 7, 84
4, 15212, Control_c, 2, 7, 83
4, 15252, Control_c, 2, 7, 82
4, 15280, Control_c, 2, 7, 81
4, 15320, Control_c, 2, 7, 80
4, 15344, Control_c, 2, 7, 79
4, 15360, Note_off_c, 2, 70, 64
4, 15360, Note_on_c, 2, 65, 26
4, 15384, Control_c, 2, 7, 78
4, 15412, Control_c, 2, 7, 77
4, 15452, Control_c, 2, 7, 76
4, 15480, Control_c, 2, 7, 75
4, 15520, Control_c, 2, 7, 74
4, 15544, Control_c, 2, 7, 73
4, 15552, Note_off_c, 2, 65, 64
4, 24480, Note_on_c, 2, 69, 30
4, 24480, Note_on_c, 2, 63, 30
4, 24672, Note_off_c, 2, 63, 64
4, 24672, Note_off_c, 2, 69, 64
4, 24960, Note_on_c, 2, 63, 30
4, 24960, Note_on_c, 2, 72, 30
4, 25152, Note_off_c, 2, 72, 64
4, 25152, Note_off_c, 2, 63, 64
4, 26400, Note_on_c, 2, 69, 30
4, 26400, Note_on_c, 2, 75, 30
4, 26592, Note_off_c, 2, 75, 64
4, 26592, Note_off_c, 2, 69, 64
4, 26880, Note_on_c, 2, 69, 30
4, 26880, Note_on_c, 2, 78, 30
4, 27072, Note_off_c, 2, 78, 64
4, 27072, Note_off_c, 2, 69, 64
4, 27360, Note_on_c, 2, 69, 30
4, 27360, Note_on_c, 2, 75, 30
4, 27552, Note_off_c, 2, 75, 64
4, 27552, Note_off_c, 2, 69, 64
4, 27840, Note_on_c, 2, 69, 30
4, 27840, Note_on_c, 2, 72, 30
4, 28032, Note_off_c, 2, 72, 64
4, 28032, Note_off_c, 2, 69, 64
4, 28320, Note_on_c, 2, 69, 30
4, 28320, Note_on_c, 2, 63, 30
4, 28512, Note_off_c, 2, 63, 64
4, 28512, Note_off_c, 2, 69, 64
4, 28800, Note_on_c, 2, 70, 30
4, 36474, Control_c, 2, 7, 73
4, 36502, Control_c, 2, 7, 74
4, 36530, Control_c, 2, 7, 75
4, 36554, Control_c, 2, 7, 76
4, 36582, Control_c, 2, 7, 77
4, 36610, Control_c, 2, 7, 78
4, 36634, Control_c, 2, 7, 79
4, 36662, Control_c, 2, 7, 80
4, 36690, Control_c, 2, 7, 81
4, 36714, Control_c, 2, 7, 82
4, 36742, Control_c, 2, 7, 83
4, 36770, Control_c, 2, 7, 84
4, 36794, Control_c, 2, 7, 85
4, 36810, Control_c, 2, 7, 86
4, 36834, Control_c, 2, 7, 87
4, 36862, Control_c, 2, 7, 88
4, 36890, Control_c, 2, 7, 89
4, 36914, Control_c, 2, 7, 90
4, 36942, Control_c, 2, 7, 91
4, 36970, Control_c, 2, 7, 92
4, 36994, Control_c, 2, 7, 93
4, 37022, Control_c, 2, 7, 94
4, 37050, Control_c, 2, 7, 95
4, 37074, Control_c, 2, 7, 96
4, 37102, Control_c, 2, 7, 97
4, 37130, Control_c, 2, 7, 98
4, 37142, Control_c, 2, 7, 99
4, 37170, Control_c, 2, 7, 100
4, 37194, Control_c, 2, 7, 101
4, 37222, Control_c, 2, 7, 102
4, 37250, Control_c, 2, 7, 103
4, 37274, Control_c, 2, 7, 104
4, 37302, Control_c, 2, 7, 105
4, 37330, Control_c, 2, 7, 106
4, 37354, Control_c, 2, 7, 107
4, 37382, Control_c, 2, 7, 108
4, 37410, Control_c, 2, 7, 109
4, 37434, Control_c, 2, 7, 110
4, 37450, Control_c, 2, 7, 111
4, 37490, Control_c, 2, 7, 110
4, 37514, Control_c, 2, 7, 109
4, 37542, Control_c, 2, 7, 108
4, 37570, Control_c, 2, 7, 107
4, 37594, Control_c, 2, 7, 106
4, 37622, Control_c, 2, 7, 105
4, 37650, Control_c, 2, 7, 104
4, 37674, Control_c, 2, 7, 103
4, 37714, Control_c, 2, 7, 102
4, 37742, Control_c, 2, 7, 101
4, 37770, Control_c, 2, 7, 100
4, 37794, Control_c, 2, 7, 99
4, 37822, Control_c, 2, 7, 98
4, 37850, Control_c, 2, 7, 97
4, 37874, Control_c, 2, 7, 96
4, 37902, Control_c, 2, 7, 95
4, 37942, Control_c, 2, 7, 94
4, 37970, Control_c, 2, 7, 93
4, 37994, Control_c, 2, 7, 92
4, 38022, Control_c, 2, 7, 91
4, 38050, Control_c, 2, 7, 90
4, 38074, Control_c, 2, 7, 89
4, 38102, Control_c, 2, 7, 88
4, 38130, Control_c, 2, 7, 87
4, 38170, Control_c, 2, 7, 86
4, 38194, Control_c, 2, 7, 85
4, 38222, Control_c, 2, 7, 84
4, 38250, Control_c, 2, 7, 83
4, 38274, Control_c, 2, 7, 82
4, 38302, Control_c, 2, 7, 81
4, 38330, Control_c, 2, 7, 80
4, 38354, Control_c, 2, 7, 79
4, 38394, Control_c, 2, 7, 78
4, 38422, Control_c, 2, 7, 77
4, 38450, Control_c, 2, 7, 76
4, 38474, Control_c, 2, 7, 75
4, 38502, Control_c, 2, 7, 74
4, 38530, Control_c, 2, 7, 73
4, 38554, Control_c, 2, 7, 72
4, 38582, Control_c, 2, 7, 71
4, 38610, Control_c, 2, 7, 70
4, 38640, Note_off_c, 2, 70, 64
4, 47520, Note_on_c, 2, 70, 30
4, 47520, Note_on_c, 2, 64, 30
4, 47712, Note_off_c, 2, 64, 64
4, 47712, Note_off_c, 2, 70, 64
4, 48000, Note_on_c, 2, 73, 30
4, 48000, Note_on_c, 2, 64, 30
4, 48192, Note_off_c, 2, 64, 64
4, 48192, Note_off_c, 2, 73, 64
4, 49440, Note_on_c, 2, 76, 30
4, 49440, Note_on_c, 2, 70, 30
4, 49632, Note_off_c, 2, 70, 64
4, 49632, Note_off_c, 2, 76, 64
4, 49920, Note_on_c, 2, 70, 30
4, 49920, Note_on_c, 2, 79, 30
4, 50112, Note_off_c, 2, 79, 64
4, 50112, Note_off_c, 2, 70, 64
4, 50400, Note_on_c, 2, 70, 30
4, 50400, Note_on_c, 2, 76, 30
4, 50592, Note_off_c, 2, 76, 64
4, 50592, Note_off_c, 2, 70, 64
4, 50880, Note_on_c, 2, 70, 30
4, 50880, Note_on_c, 2, 73, 30
4, 51072, Note_off_c, 2, 73, 64
4, 51072, Note_off_c, 2, 70, 64
4, 51360, Note_on_c, 2, 64, 30
4, 51360, Note_on_c, 2, 70, 30
4, 51552, Note_off_c, 2, 70, 64
4, 51552, Note_off_c, 2, 64, 64
4, 51840, Note_on_c, 2, 71, 30
4, 52080, Note_off_c, 2, 71, 64
4, 55040, Control_c, 2, 7, 33
4, 55064, Control_c, 2, 7, 34
4, 55080, Control_c, 2, 7, 35
4, 55092, Control_c, 2, 7, 36
4, 55104, Control_c, 2, 7, 37
4, 55120, Control_c, 2, 7, 38
4, 55132, Control_c, 2, 7, 39
4, 55144, Control_c, 2, 7, 40
4, 55172, Control_c, 2, 7, 41
4, 55184, Control_c, 2, 7, 42
4, 55200, Control_c, 2, 7, 43
4, 55200, Note_on_c, 2, 67, 32
4, 55200, Note_on_c, 2, 79, 32
4, 55212, Control_c, 2, 7, 44
4, 55224, Control_c, 2, 7, 45
4, 55240, Control_c, 2, 7, 46
4, 55252, Control_c, 2, 7, 47
4, 55280, Control_c, 2, 7, 48
4, 55292, Control_c, 2, 7, 49
4, 55304, Control_c, 2, 7, 50
4, 55320, Control_c, 2, 7, 51
4, 55332, Control_c, 2, 7, 52
4, 55344, Control_c, 2, 7, 53
4, 55360, Control_c, 2, 7, 54
4, 55384, Control_c, 2, 7, 55
4, 55400, Control_c, 2, 7, 56
4, 55412, Control_c, 2, 7, 57
4, 55424, Control_c, 2, 7, 58
4, 55440, Control_c, 2, 7, 59
4, 55452, Control_c, 2, 7, 60
4, 55464, Control_c, 2, 7, 61
4, 55492, Control_c, 2, 7, 62
4, 55504, Control_c, 2, 7, 63
4, 55520, Control_c, 2, 7, 64
4, 55532, Control_c, 2, 7, 65
4, 55544, Control_c, 2, 7, 66
4, 55560, Control_c, 2, 7, 67
4, 55572, Control_c, 2, 7, 68
4, 55600, Control_c, 2, 7, 69
4, 55612, Control_c, 2, 7, 70
4, 55624, Control_c, 2, 7, 71
4, 55640, Control_c, 2, 7, 72
4, 55652, Control_c, 2, 7, 73
4, 55664, Control_c, 2, 7, 74
4, 55680, Control_c, 2, 7, 75
4, 55692, Control_c, 2, 7, 76
4, 55720, Control_c, 2, 7, 75
4, 55732, Control_c, 2, 7, 74
4, 55744, Control_c, 2, 7, 73
4, 55760, Control_c, 2, 7, 72
4, 55784, Control_c, 2, 7, 71
4, 55800, Control_c, 2, 7, 70
4, 55812, Control_c, 2, 7, 69
4, 55824, Control_c, 2, 7, 68
4, 55840, Control_c, 2, 7, 67
4, 55864, Control_c, 2, 7, 66
4, 55880, Control_c, 2, 7, 65
4, 55892, Control_c, 2, 7, 64
4, 55904, Control_c, 2, 7, 63
4, 55932, Control_c, 2, 7, 62
4, 55944, Control_c, 2, 7, 61
4, 55960, Control_c, 2, 7, 60
4, 55972, Control_c, 2, 7, 59
4, 55984, Control_c, 2, 7, 58
4, 56012, Control_c, 2, 7, 57
4, 56024, Control_c, 2, 7, 56
4, 56040, Control_c, 2, 7, 55
4, 56052, Control_c, 2, 7, 54
4, 56064, Control_c, 2, 7, 53
4, 56092, Control_c, 2, 7, 52
4, 56104, Control_c, 2, 7, 51
4, 56120, Control_c, 2, 7, 50
4, 56132, Control_c, 2, 7, 49
4, 56160, Note_off_c, 2, 79, 64
4, 56160, Note_off_c, 2, 67, 64
4, 56160, Control_c, 2, 7, 48
4, 56172, Control_c, 2, 7, 47
4, 56184, Control_c, 2, 7, 46
4, 56200, Control_c, 2, 7, 45
4, 56212, Control_c, 2, 7, 44
4, 56240, Control_c, 2, 7, 43
4, 56252, Control_c, 2, 7, 42
4, 56264, Control_c, 2, 7, 41
4, 56280, Control_c, 2, 7, 40
4, 56304, Control_c, 2, 7, 39
4, 56320, Control_c, 2, 7, 38
4, 56332, Control_c, 2, 7, 37
4, 56344, Control_c, 2, 7, 36
4, 56360, Control_c, 2, 7, 35
4, 56384, Control_c, 2, 7, 34
4, 56400, Control_c, 2, 7, 33
4, 56412, Control_c, 2, 7, 32
4, 56424, Control_c, 2, 7, 31
4, 56440, Control_c, 2, 7, 30
4, 57024, Control_c, 2, 7, 33
4, 57052, Control_c, 2, 7, 34
4, 57064, Control_c, 2, 7, 35
4, 57080, Control_c, 2, 7, 36
4, 57092, Control_c, 2, 7, 37
4, 57104, Control_c, 2, 7, 38
4, 57120, Control_c, 2, 7, 39
4, 57120, Note_on_c, 2, 67, 32
4, 57120, Note_on_c, 2, 79, 32
4, 57132, Control_c, 2, 7, 40
4, 57144, Control_c, 2, 7, 41
4, 57160, Control_c, 2, 7, 42
4, 57172, Control_c, 2, 7, 43
4, 57184, Control_c, 2, 7, 44
4, 57200, Control_c, 2, 7, 45
4, 57212, Control_c, 2, 7, 46
4, 57224, Control_c, 2, 7, 47
4, 57240, Control_c, 2, 7, 48
4, 57252, Control_c, 2, 7, 49
4, 57264, Control_c, 2, 7, 50
4, 57280, Control_c, 2, 7, 51
4, 57292, Control_c, 2, 7, 52
4, 57304, Control_c, 2, 7, 53
4, 57332, Control_c, 2, 7, 54
4, 57344, Control_c, 2, 7, 55
4, 57360, Control_c, 2, 7, 56
4, 57372, Control_c, 2, 7, 57
4, 57384, Control_c, 2, 7, 58
4, 57400, Control_c, 2, 7, 59
4, 57412, Control_c, 2, 7, 60
4, 57424, Control_c, 2, 7, 61
4, 57440, Control_c, 2, 7, 62
4, 57452, Control_c, 2, 7, 63
4, 57464, Control_c, 2, 7, 64
4, 57480, Control_c, 2, 7, 65
4, 57492, Control_c, 2, 7, 66
4, 57504, Control_c, 2, 7, 67
4, 57520, Control_c, 2, 7, 68
4, 57532, Control_c, 2, 7, 69
4, 57544, Control_c, 2, 7, 70
4, 57560, Control_c, 2, 7, 71
4, 57572, Control_c, 2, 7, 72
4, 57584, Control_c, 2, 7, 73
4, 57600, Control_c, 2, 7, 74
4, 57624, Control_c, 2, 7, 73
4, 57640, Control_c, 2, 7, 72
4, 57652, Control_c, 2, 7, 71
4, 57664, Control_c, 2, 7, 70
4, 57692, Control_c, 2, 7, 69
4, 57704, Control_c, 2, 7, 68
4, 57720, Control_c, 2, 7, 67
4, 57732, Control_c, 2, 7, 66
4, 57744, Control_c, 2, 7, 65
4, 57772, Control_c, 2, 7, 64
4, 57784, Control_c, 2, 7, 63
4, 57800, Control_c, 2, 7, 62
4, 57812, Control_c, 2, 7, 61
4, 57824, Control_c, 2, 7, 60
4, 57852, Control_c, 2, 7, 59
4, 57864, Control_c, 2, 7, 58
4, 57880, Control_c, 2, 7, 57
4, 57892, Control_c, 2, 7, 56
4, 57904, Control_c, 2, 7, 55
4, 57932, Control_c, 2, 7, 54
4, 57944, Control_c, 2, 7, 53
4, 57960, Control_c, 2, 7, 52
4, 57972, Control_c, 2, 7, 51
4, 58000, Control_c, 2, 7, 50
4, 58012, Control_c, 2, 7, 49
4, 58024, Control_c, 2, 7, 48
4, 58040, Control_c, 2, 7, 47
4, 58052, Control_c, 2, 7, 46
4, 58080, Note_off_c, 2, 79, 64
4, 58080, Note_off_c, 2, 67, 64
4, 58080, Control_c, 2, 7, 45
4, 58092, Control_c, 2, 7, 44
4, 58104, Control_c, 2, 7, 43
4, 58120, Control_c, 2, 7, 42
4, 58132, Control_c, 2, 7, 41
4, 58160, Control_c, 2, 7, 40
4, 58172, Control_c, 2, 7, 39
4, 58184, Control_c, 2, 7, 38
4, 58200, Control_c, 2, 7, 37
4, 58212, Control_c, 2, 7, 36
4, 58240, Control_c, 2, 7, 35
4, 58252, Control_c, 2, 7, 34
4, 58264, Control_c, 2, 7, 33
4, 58280, Control_c, 2, 7, 32
4, 58292, Control_c, 2, 7, 31
4, 58892, Control_c, 2, 7, 31
4, 58920, Control_c, 2, 7, 32
4, 58932, Control_c, 2, 7, 33
4, 58944, Control_c, 2, 7, 34
4, 58960, Control_c, 2, 7, 35
4, 58972, Control_c, 2, 7, 36
4, 58984, Control_c, 2, 7, 37
4, 59000, Control_c, 2, 7, 38
4, 59024, Control_c, 2, 7, 39
4, 59040, Control_c, 2, 7, 40
4, 59040, Note_on_c, 2, 81, 32
4, 59040, Note_on_c, 2, 69, 32
4, 59052, Control_c, 2, 7, 41
4, 59064, Control_c, 2, 7, 42
4, 59080, Control_c, 2, 7, 43
4, 59092, Control_c, 2, 7, 44
4, 59104, Control_c, 2, 7, 45
4, 59132, Control_c, 2, 7, 46
4, 59144, Control_c, 2, 7, 47
4, 59160, Control_c, 2, 7, 48
4, 59172, Control_c, 2, 7, 49
4, 59184, Control_c, 2, 7, 50
4, 59200, Control_c, 2, 7, 51
4, 59212, Control_c, 2, 7, 52
4, 59240, Control_c, 2, 7, 53
4, 59252, Control_c, 2, 7, 54
4, 59264, Control_c, 2, 7, 55
4, 59280, Control_c, 2, 7, 56
4, 59292, Control_c, 2, 7, 57
4, 59304, Control_c, 2, 7, 58
4, 59320, Control_c, 2, 7, 59
4, 59344, Control_c, 2, 7, 60
4, 59360, Control_c, 2, 7, 61
4, 59372, Control_c, 2, 7, 62
4, 59384, Control_c, 2, 7, 63
4, 59400, Control_c, 2, 7, 64
4, 59412, Control_c, 2, 7, 65
4, 59424, Control_c, 2, 7, 66
4, 59452, Control_c, 2, 7, 67
4, 59464, Control_c, 2, 7, 68
4, 59480, Control_c, 2, 7, 69
4, 59492, Control_c, 2, 7, 70
4, 59504, Control_c, 2, 7, 71
4, 59520, Control_c, 2, 7, 74
4, 59544, Control_c, 2, 7, 73
4, 59560, Control_c, 2, 7, 72
4, 59572, Control_c, 2, 7, 71
4, 59600, Control_c, 2, 7, 70
4, 59612, Control_c, 2, 7, 69
4, 59624, Control_c, 2, 7, 68
4, 59652, Control_c, 2, 7, 67
4, 59664, Control_c, 2, 7, 66
4, 59680, Control_c, 2, 7, 65
4, 59704, Control_c, 2, 7, 64
4, 59720, Control_c, 2, 7, 63
4, 59732, Control_c, 2, 7, 62
4, 59760, Control_c, 2, 7, 61
4, 59772, Control_c, 2, 7, 60
4, 59784, Control_c, 2, 7, 59
4, 59800, Control_c, 2, 7, 58
4, 59824, Control_c, 2, 7, 57
4, 59840, Control_c, 2, 7, 56
4, 59852, Control_c, 2, 7, 55
4, 59880, Control_c, 2, 7, 54
4, 59892, Control_c, 2, 7, 53
4, 59904, Control_c, 2, 7, 52
4, 59932, Control_c, 2, 7, 51
4, 59944, Control_c, 2, 7, 50
4, 59960, Control_c, 2, 7, 49
4, 59984, Control_c, 2, 7, 48
4, 60000, Note_off_c, 2, 69, 64
4, 60000, Note_off_c, 2, 81, 64
4, 60000, Control_c, 2, 7, 47
4, 60012, Control_c, 2, 7, 46
4, 60024, Control_c, 2, 7, 45
4, 60052, Control_c, 2, 7, 44
4, 60064, Control_c, 2, 7, 43
4, 60080, Control_c, 2, 7, 42
4, 60104, Control_c, 2, 7, 41
4, 60120, Control_c, 2, 7, 40
4, 60132, Control_c, 2, 7, 39
4, 60160, Control_c, 2, 7, 38
4, 60172, Control_c, 2, 7, 37
4, 60184, Control_c, 2, 7, 36
4, 60212, Control_c, 2, 7, 35
4, 60224, Control_c, 2, 7, 34
4, 60240, Control_c, 2, 7, 33
4, 60252, Control_c, 2, 7, 32
4, 65280, Note_on_c, 2, 69, 83
4, 69084, Control_c, 2, 7, 36
4, 69112, Control_c, 2, 7, 35
4, 69124, Control_c, 2, 7, 34
4, 69140, Control_c, 2, 7, 33
4, 69152, Control_c, 2, 7, 32
4, 69164, Control_c, 2, 7, 31
4, 69192, Control_c, 2, 7, 30
4, 69204, Control_c, 2, 7, 29
4, 69220, Control_c, 2, 7, 28
4, 69232, Control_c, 2, 7, 27
4, 69244, Control_c, 2, 7, 26
4, 69260, Control_c, 2, 7, 25
4, 69284, Control_c, 2, 7, 24
4, 69300, Control_c, 2, 7, 23
4, 69312, Control_c, 2, 7, 22
4, 69324, Control_c, 2, 7, 21
4, 69340, Control_c, 2, 7, 20
4, 69352, Control_c, 2, 7, 19
4, 69360, Note_off_c, 2, 69, 64
4, 69380, Control_c, 2, 7, 18
4, 69392, Control_c, 2, 7, 17
4, 69404, Control_c, 2, 7, 16
4, 69420, Control_c, 2, 7, 15
4, 69432, Control_c, 2, 7, 14
4, 69444, Control_c, 2, 7, 13
4, 69472, Control_c, 2, 7, 12
4, 69484, Control_c, 2, 7, 11
4, 69500, Control_c, 2, 7, 10
4, 69512, Control_c, 2, 7, 9
4, 69524, Control_c, 2, 7, 8
4, 69540, Control_c, 2, 7, 7
4, 69564, Control_c, 2, 7, 6
4, 69580, Control_c, 2, 7, 5
4, 69592, Control_c, 2, 7, 4
4, 69604, Control_c, 2, 7, 3
4, 69620, Control_c, 2, 7, 2
4, 69632, Control_c, 2, 7, 1
4, 69637, Control_c, 2, 7, 2
4, 69653, Control_c, 2, 7, 0
4, 69905, Control_c, 2, 7, 72
4, 70080, Note_on_c, 2, 69, 23
4, 70306, Note_off_c, 2, 69, 64
4, 71040, Note_on_c, 2, 69, 18
4, 71266, Note_off_c, 2, 69, 64
4, 72480, Control_c, 2, 7, 90
4, 72960, Note_on_c, 2, 69, 100
4, 72960, Note_on_c, 2, 72, 100
4, 74736, Note_off_c, 2, 72, 64
4, 74736, Note_off_c, 2, 69, 64
4, 74820, Note_on_c, 2, 69, 80
4, 74820, Note_on_c, 2, 72, 100
4, 74850, Note_off_c, 2, 72, 64
4, 74850, Note_off_c, 2, 69, 64
4, 74880, Note_on_c, 2, 69, 100
4, 74880, Note_on_c, 2, 72, 100
4, 74976, Note_off_c, 2, 72, 64
4, 74976, Note_off_c, 2, 69, 64
4, 76800, Note_on_c, 2, 69, 100
4, 76800, Note_on_c, 2, 75, 100
4, 78576, Note_off_c, 2, 75, 64
4, 78576, Note_off_c, 2, 69, 64
4, 78660, Note_on_c, 2, 69, 80
4, 78660, Note_on_c, 2, 75, 100
4, 78690, Note_off_c, 2, 75, 64
4, 78690, Note_off_c, 2, 69, 64
4, 78720, Note_on_c, 2, 69, 100
4, 78720, Note_on_c, 2, 75, 100
4, 78960, Note_off_c, 2, 75, 64
4, 78960, Note_off_c, 2, 69, 64
4, 80640, Note_on_c, 2, 75, 80
4, 80640, Note_on_c, 2, 69, 80
4, 80880, Note_off_c, 2, 69, 64
4, 80880, Note_off_c, 2, 75, 64
4, 82560, Note_on_c, 2, 69, 80
4, 82560, Note_on_c, 2, 75, 80
4, 82800, Note_off_c, 2, 75, 64
4, 82800, Note_off_c, 2, 69, 64
4, 83520, Note_on_c, 2, 75, 80
4, 83520, Note_on_c, 2, 69, 80
4, 83760, Note_off_c, 2, 69, 64
4, 83760, Note_off_c, 2, 75, 64
4, 84480, Note_on_c, 2, 75, 80
4, 84480, Note_on_c, 2, 69, 80
4, 84720, Note_off_c, 2, 69, 64
4, 84720, Note_off_c, 2, 75, 64
4, 85440, Note_on_c, 2, 75, 80
4, 85440, Note_on_c, 2, 69, 80
4, 85680, Note_off_c, 2, 69, 64
4, 85680, Note_off_c, 2, 75, 64
4, 86400, Note_on_c, 2, 74, 80
4, 86400, Note_on_c, 2, 70, 80
4, 86640, Note_off_c, 2, 70, 64
4, 86640, Note_off_c, 2, 74, 64
4, 94560, Note_on_c, 2, 70, 38
4, 94560, Note_on_c, 2, 74, 38
4, 95040, Note_off_c, 2, 74, 64
4, 95040, Note_off_c, 2, 70, 64
4, 95040, Note_on_c, 2, 69, 38
4, 95040, Note_on_c, 2, 72, 38
4, 95520, Note_off_c, 2, 72, 64
4, 95520, Note_off_c, 2, 69, 64
4, 95520, Note_on_c, 2, 70, 38
4, 95520, Note_on_c, 2, 67, 38
4, 96000, Note_off_c, 2, 67, 64
4, 96000, Note_off_c, 2, 70, 64
4, 96000, Note_on_c, 2, 69, 38
4, 96000, Note_on_c, 2, 65, 38
4, 96480, Note_off_c, 2, 65, 64
4, 96480, Note_off_c, 2, 69, 64
4, 96480, Note_on_c, 2, 63, 38
4, 96480, Note_on_c, 2, 67, 38
4, 96960, Note_off_c, 2, 67, 64
4, 96960, Note_off_c, 2, 63, 64
4, 96960, Note_on_c, 2, 62, 38
4, 96960, Note_on_c, 2, 65, 38
4, 97440, Note_off_c, 2, 65, 64
4, 97440, Note_off_c, 2, 62, 64
4, 97440, Note_on_c, 2, 67, 38
4, 97440, Note_on_c, 2, 63, 38
4, 97920, Note_off_c, 2, 63, 64
4, 97920, Note_off_c, 2, 67, 64
4, 97920, Note_on_c, 2, 60, 38
4, 97920, Note_on_c, 2, 63, 38
4, 101760, Note_off_c, 2, 63, 64
4, 101760, Note_off_c, 2, 60, 64
4, 101760, Note_on_c, 2, 69, 80
4, 101760, Note_on_c, 2, 75, 80
4, 102000, Note_off_c, 2, 75, 64
4, 102000, Note_off_c, 2, 69, 64
4, 103680, Note_on_c, 2, 69, 80
4, 103680, Note_on_c, 2, 75, 80
4, 103920, Note_off_c, 2, 75, 64
4, 103920, Note_off_c, 2, 69, 64
4, 104640, Note_on_c, 2, 75, 80
4, 104640, Note_on_c, 2, 69, 80
4, 104880, Note_off_c, 2, 69, 64
4, 104880, Note_off_c, 2, 75, 64
4, 105600, Note_on_c, 2, 70, 80
4, 105600, Note_on_c, 2, 74, 80
4, 105840, Note_off_c, 2, 74, 64
4, 105840, Note_off_c, 2, 70, 64
4, 106080, Note_on_c, 2, 70, 67
4, 106272, Note_off_c, 2, 70, 64
4, 106560, Note_on_c, 2, 65, 67
4, 106752, Note_off_c, 2, 65, 64
4, 107040, Note_on_c, 2, 70, 67
4, 107232, Note_off_c, 2, 70, 64
4, 107520, Note_on_c, 2, 62, 67
4, 107712, Note_off_c, 2, 62, 64
4, 108000, Note_on_c, 2, 65, 67
4, 108192, Note_off_c, 2, 65, 64
4, 108480, Note_on_c, 2, 58, 67
4, 108672, Note_off_c, 2, 58, 64
4, 108960, Note_on_c, 2, 62, 67
4, 109152, Note_off_c, 2, 62, 64
4, 109440, Note_on_c, 2, 55, 67
4, 109440, Note_on_c, 2, 67, 67
4, 109632, Note_off_c, 2, 67, 64
4, 109632, Note_off_c, 2, 55, 64
4, 109920, Note_on_c, 2, 63, 67
4, 109920, Note_on_c, 2, 75, 67
4, 110112, Note_off_c, 2, 75, 64
4, 110112, Note_off_c, 2, 63, 64
4, 110400, Note_on_c, 2, 72, 67
4, 110400, Note_on_c, 2, 60, 67
4, 110592, Note_off_c, 2, 60, 64
4, 110592, Note_off_c, 2, 72, 64
4, 110880, Note_on_c, 2, 58, 67
4, 110880, Note_on_c, 2, 70, 67
4, 111072, Note_off_c, 2, 70, 64
4, 111072, Note_off_c, 2, 58, 64
4, 111360, Note_on_c, 2, 57, 67
4, 111360, Note_on_c, 2, 69, 67
4, 111552, Note_off_c, 2, 69, 64
4, 111552, Note_off_c, 2, 57, 64
4, 111840, Note_on_c, 2, 65, 67
4, 111840, Note_on_c, 2, 77, 67
4, 112032, Note_off_c, 2, 77, 64
4, 112032, Note_off_c, 2, 65, 64
4, 112320, Note_on_c, 2, 75, 67
4, 112320, Note_on_c, 2, 63, 67
4, 112512, Note_off_c, 2, 63, 64
4, 112512, Note_off_c, 2, 75, 64
4, 112800, Note_on_c, 2, 60, 67
4, 112800, Note_on_c, 2, 72, 67
4, 112992, Note_off_c, 2, 72, 64
4, 112992, Note_off_c, 2, 60, 64
4, 113280, Note_on_c, 2, 70, 67
4, 113280, Note_on_c, 2, 58, 67
4, 113472, Note_off_c, 2, 58, 64
4, 113472, Note_off_c, 2, 70, 64
4, 113760, Note_on_c, 2, 67, 67
4, 113760, Note_on_c, 2, 79, 67
4, 114240, Note_off_c, 2, 79, 64
4, 114240, Note_off_c, 2, 67, 64
4, 114240, Note_on_c, 2, 65, 67
4, 114240, Note_on_c, 2, 77, 67
4, 114720, Note_off_c, 2, 77, 64
4, 114720, Note_off_c, 2, 65, 64
4, 114720, Note_on_c, 2, 63, 67
4, 114720, Note_on_c, 2, 75, 67
4, 115200, Note_off_c, 2, 75, 64
4, 115200, Note_off_c, 2, 63, 64
4, 115200, Note_on_c, 2, 74, 67
4, 115200, Note_on_c, 2, 62, 67
4, 115680, Note_off_c, 2, 62, 64
4, 115680, Note_off_c, 2, 74, 64
4, 115680, Note_on_c, 2, 72, 67
4, 115680, Note_on_c, 2, 60, 67
4, 116160, Note_off_c, 2, 60, 64
4, 116160, Note_off_c, 2, 72, 64
4, 116160, Note_on_c, 2, 70, 67
4, 116160, Note_on_c, 2, 58, 67
4, 116640, Note_off_c, 2, 58, 64
4, 116640, Note_off_c, 2, 70, 64
4, 116640, Note_on_c, 2, 72, 67
4, 116640, Note_on_c, 2, 60, 67
4, 117120, Note_off_c, 2, 60, 64
4, 117120, Note_off_c, 2, 72, 64
4, 117120, Note_on_c, 2, 70, 67
4, 117120, Note_on_c, 2, 63, 67
4, 120960, Note_off_c, 2, 70, 64
4, 120960, Note_on_c, 2, 69, 50
4, 121248, Note_off_c, 2, 63, 64
4, 121248, Note_off_c, 2, 69, 64
4, 121920, Note_on_c, 2, 75, 63
4, 121920, Note_on_c, 2, 72, 63
4, 122208, Note_off_c, 2, 72, 64
4, 122208, Note_off_c, 2, 75, 64
4, 123840, Note_on_c, 2, 70, 63
4, 123840, Note_on_c, 2, 74, 63
4, 124128, Note_off_c, 2, 74, 64
4, 124128, Note_off_c, 2, 70, 64
4, 125760, Note_on_c, 2, 72, 63
4, 125760, Note_on_c, 2, 75, 63
4, 126048, Note_off_c, 2, 75, 64
4, 126048, Note_off_c, 2, 72, 64
4, 127680, Note_on_c, 2, 72, 63
4, 127680, Note_on_c, 2, 69, 63
4, 127968, Note_off_c, 2, 69, 64
4, 127968, Note_off_c, 2, 72, 64
4, 128640, Note_on_c, 2, 58, 32
4, 136320, Note_off_c, 2, 58, 64
4, 136320, Note_on_c, 2, 57, 32
4, 136320, Note_on_c, 2, 60, 32
4, 144000, Note_off_c, 2, 60, 64
4, 144000, Note_off_c, 2, 57, 64
4, 144000, Note_on_c, 2, 62, 37
4, 144000, Note_on_c, 2, 59, 37
4, 147840, Note_off_c, 2, 59, 64
4, 147840, Note_off_c, 2, 62, 64
4, 147840, Note_on_c, 2, 64, 42
4, 147840, Note_on_c, 2, 61, 42
4, 151680, Note_off_c, 2, 61, 64
4, 151680, Note_off_c, 2, 64, 64
4, 156480, Note_on_c, 2, 69, 64
4, 156480, Note_on_c, 2, 72, 64
4, 157248, Note_off_c, 2, 72, 64
4, 157248, Note_off_c, 2, 69, 64
4, 157440, Note_on_c, 2, 69, 64
4, 157440, Note_on_c, 2, 72, 64
4, 158208, Note_off_c, 2, 72, 64
4, 158208, Note_off_c, 2, 69, 64
4, 158400, Note_on_c, 2, 69, 64
4, 158400, Note_on_c, 2, 72, 64
4, 159168, Note_off_c, 2, 72, 64
4, 159168, Note_off_c, 2, 69, 64
4, 159360, Note_on_c, 2, 70, 89
4, 159360, Note_on_c, 2, 58, 89
4, 162816, Note_off_c, 2, 58, 64
4, 162816, Note_off_c, 2, 70, 64
4, 163200, Note_on_c, 2, 75, 89
4, 163200, Note_on_c, 2, 63, 89
4, 164736, Note_off_c, 2, 63, 64
4, 164736, Note_off_c, 2, 75, 64
4, 165120, Note_on_c, 2, 77, 89
4, 165120, Note_on_c, 2, 65, 89
4, 166920, Note_off_c, 2, 65, 64
4, 166920, Note_off_c, 2, 77, 64
4, 167040, Note_on_c, 2, 74, 62
4, 167040, Note_on_c, 2, 62, 62
4, 170496, Note_off_c, 2, 62, 64
4, 170496, Note_off_c, 2, 74, 64
4, 170880, Note_on_c, 2, 67, 62
4, 170880, Note_on_c, 2, 55, 62
4, 172416, Note_off_c, 2, 55, 64
4, 172416, Note_off_c, 2, 67, 64
4, 172800, Note_on_c, 2, 69, 62
4, 172800, Note_on_c, 2, 57, 62
4, 174600, Note_off_c, 2, 57, 64
4, 174600, Note_off_c, 2, 69, 64
4, 174720, Note_on_c, 2, 70, 62
4, 174720, Note_on_c, 2, 58, 62
4, 176256, Note_off_c, 2, 58, 64
4, 176256, Note_off_c, 2, 70, 64
4, 176640, Note_on_c, 2, 73, 62
4, 176640, Note_on_c, 2, 61, 62
4, 178440, Note_off_c, 2, 61, 64
4, 178440, Note_off_c, 2, 73, 64
4, 178560, Note_on_c, 2, 74, 62
4, 178560, Note_on_c, 2, 62, 62
4, 180096, Note_off_c, 2, 62, 64
4, 180096, Note_off_c, 2, 74, 64
4, 180480, Note_on_c, 2, 76, 104
4, 180672, Note_off_c, 2, 76, 64
4, 180960, Note_on_c, 2, 72, 104
4, 180960, Note_on_c, 2, 60, 104
4, 181152, Note_off_c, 2, 60, 64
4, 181152, Note_off_c, 2, 72, 64
4, 181440, Note_on_c, 2, 72, 104
4, 181440, Note_on_c, 2, 60, 104
4, 181632, Note_off_c, 2, 60, 64
4, 181632, Note_off_c, 2, 72, 64
4, 181920, Note_on_c, 2, 72, 104
4, 181920, Note_on_c, 2, 60, 104
4, 182112, Note_off_c, 2, 60, 64
4, 182112, Note_off_c, 2, 72, 64
4, 182400, Note_on_c, 2, 60, 104
4, 182400, Note_on_c, 2, 72, 104
4, 182592, Note_off_c, 2, 72, 64
4, 182592, Note_off_c, 2, 60, 64
4, 182880, Note_on_c, 2, 72, 104
4, 182880, Note_on_c, 2, 60, 104
4, 183072, Note_off_c, 2, 60, 64
4, 183072, Note_off_c, 2, 72, 64
4, 183360, Note_on_c, 2, 72, 104
4, 183360, Note_on_c, 2, 60, 104
4, 183552, Note_off_c, 2, 60, 64
4, 183552, Note_off_c, 2, 72, 64
4, 183840, Note_on_c, 2, 60, 104
4, 183840, Note_on_c, 2, 72, 104
4, 184032, Note_off_c, 2, 72, 64
4, 184032, Note_off_c, 2, 60, 64
4, 184320, Note_on_c, 2, 60, 104
4, 184320, Note_on_c, 2, 72, 104
4, 184512, Note_off_c, 2, 72, 64
4, 184512, Note_off_c, 2, 60, 64
4, 184800, Note_on_c, 2, 72, 104
4, 184800, Note_on_c, 2, 60, 104
4, 184992, Note_off_c, 2, 60, 64
4, 184992, Note_off_c, 2, 72, 64
4, 185280, Note_on_c, 2, 72, 104
4, 185280, Note_on_c, 2, 60, 104
4, 185472, Note_off_c, 2, 60, 64
4, 185472, Note_off_c, 2, 72, 64
4, 185760, Note_on_c, 2, 60, 104
4, 185760, Note_on_c, 2, 72, 104
4, 185952, Note_off_c, 2, 72, 64
4, 185952, Note_off_c, 2, 60, 64
4, 186240, Note_on_c, 2, 72, 104
4, 186240, Note_on_c, 2, 60, 104
4, 186432, Note_off_c, 2, 60, 64
4, 186432, Note_off_c, 2, 72, 64
4, 186720, Note_on_c, 2, 64, 64
4, 186720, Note_on_c, 2, 67, 64
4, 187488, Note_off_c, 2, 67, 64
4, 187488, Note_off_c, 2, 64, 64
4, 187680, Note_on_c, 2, 65, 64
4, 187680, Note_on_c, 2, 68, 64
4, 188544, Note_off_c, 2, 68, 64
4, 188544, Note_off_c, 2, 65, 64
4, 188640, Note_on_c, 2, 70, 64
4, 188640, Note_on_c, 2, 67, 64
4, 189408, Note_off_c, 2, 67, 64
4, 189408, Note_off_c, 2, 70, 64
4, 189600, Note_on_c, 2, 65, 64
4, 189600, Note_on_c, 2, 62, 64
4, 190464, Note_off_c, 2, 62, 64
4, 190464, Note_off_c, 2, 65, 64
4, 190560, Note_on_c, 2, 67, 64
4, 190560, Note_on_c, 2, 64, 64
4, 191328, Note_off_c, 2, 64, 64
4, 191328, Note_off_c, 2, 67, 64
4, 191520, Note_on_c, 2, 65, 64
4, 191520, Note_on_c, 2, 68, 64
4, 192384, Note_off_c, 2, 68, 64
4, 192384, Note_off_c, 2, 65, 64
4, 192480, Note_on_c, 2, 65, 64
4, 192480, Note_on_c, 2, 68, 64
4, 193440, Note_off_c, 2, 68, 64
4, 193440, Note_off_c, 2, 65, 64
4, 193440, Note_on_c, 2, 67, 64
4, 193440, Note_on_c, 2, 64, 64
4, 193824, Note_off_c, 2, 64, 64
4, 193824, Note_off_c, 2, 67, 64
4, 193920, Note_on_c, 2, 64, 51
4, 193920, Note_on_c, 2, 67, 51
4, 194304, Note_off_c, 2, 67, 64
4, 194304, Note_off_c, 2, 64, 64
4, 194400, Note_on_c, 2, 72, 64
4, 195168, Note_off_c, 2, 72, 64
4, 195360, Note_on_c, 2, 72, 64
4, 196224, Note_off_c, 2, 72, 64
4, 196320, Note_on_c, 2, 72, 64
4, 197088, Note_off_c, 2, 72, 64
4, 197280, Note_on_c, 2, 72, 64
4, 198144, Note_off_c, 2, 72, 64
4, 198240, Note_on_c, 2, 72, 64
4, 199008, Note_off_c, 2, 72, 64
4, 199200, Note_on_c, 2, 72, 64
4, 200064, Note_off_c, 2, 72, 64
4, 200160, Note_on_c, 2, 74, 64
4, 201120, Note_off_c, 2, 74, 64
4, 201120, Note_on_c, 2, 72, 64
4, 201504, Note_off_c, 2, 72, 64
4, 201600, Note_on_c, 2, 72, 64
4, 201984, Note_off_c, 2, 72, 64
4, 257280, Note_on_c, 2, 72, 55
4, 257280, Note_on_c, 2, 67, 55
4, 257760, Note_off_c, 2, 67, 64
4, 257760, Note_off_c, 2, 72, 64
4, 258240, Note_on_c, 2, 67, 58
4, 258240, Note_on_c, 2, 72, 58
4, 258720, Note_off_c, 2, 72, 64
4, 258720, Note_off_c, 2, 67, 64
4, 259200, Note_on_c, 2, 72, 55
4, 259200, Note_on_c, 2, 67, 55
4, 259680, Note_off_c, 2, 67, 64
4, 259680, Note_off_c, 2, 72, 64
4, 260160, Note_on_c, 2, 67, 58
4, 260160, Note_on_c, 2, 72, 58
4, 260640, Note_off_c, 2, 72, 64
4, 260640, Note_off_c, 2, 67, 64
4, 261120, Note_on_c, 2, 72, 55
4, 261120, Note_on_c, 2, 67, 55
4, 261600, Note_off_c, 2, 67, 64
4, 261600, Note_off_c, 2, 72, 64
4, 262080, Note_on_c, 2, 67, 58
4, 262080, Note_on_c, 2, 72, 58
4, 262560, Note_off_c, 2, 72, 64
4, 262560, Note_off_c, 2, 67, 64
4, 263040, Note_on_c, 2, 72, 80
4, 263040, Note_on_c, 2, 69, 80
4, 263232, Note_off_c, 2, 69, 64
4, 263232, Note_off_c, 2, 72, 64
4, 264960, Note_on_c, 2, 74, 80
4, 264960, Note_on_c, 2, 65, 80
4, 265152, Note_off_c, 2, 65, 64
4, 265152, Note_off_c, 2, 74, 64
4, 266880, Note_on_c, 2, 65, 80
4, 266880, Note_on_c, 2, 69, 80
4, 267072, Note_off_c, 2, 69, 64
4, 267072, Note_off_c, 2, 65, 64
4, 268320, Note_on_c, 2, 65, 80
4, 268320, Note_on_c, 2, 69, 80
4, 268512, Note_off_c, 2, 69, 64
4, 268512, Note_off_c, 2, 65, 64
4, 268800, Note_on_c, 2, 67, 80
4, 268800, Note_on_c, 2, 64, 80
4, 268992, Note_off_c, 2, 64, 64
4, 268992, Note_off_c, 2, 67, 64
4, 269280, Note_on_c, 2, 67, 80
4, 269280, Note_on_c, 2, 64, 80
4, 269472, Note_off_c, 2, 64, 64
4, 269472, Note_off_c, 2, 67, 64
4, 269760, Note_on_c, 2, 67, 80
4, 269760, Note_on_c, 2, 64, 80
4, 269952, Note_off_c, 2, 64, 64
4, 269952, Note_off_c, 2, 67, 64
4, 270240, Note_on_c, 2, 64, 80
4, 270240, Note_on_c, 2, 67, 80
4, 270432, Note_off_c, 2, 67, 64
4, 270432, Note_off_c, 2, 64, 64
4, 270720, Note_on_c, 2, 65, 80
4, 270720, Note_on_c, 2, 69, 80
4, 270912, Note_off_c, 2, 69, 64
4, 270912, Note_off_c, 2, 65, 64
4, 271680, Note_on_c, 2, 67, 80
4, 271680, Note_on_c, 2, 65, 80
4, 271872, Note_off_c, 2, 65, 64
4, 271872, Note_off_c, 2, 67, 64
4, 272640, Note_on_c, 2, 65, 80
4, 272640, Note_on_c, 2, 69, 80
4, 272832, Note_off_c, 2, 69, 64
4, 272832, Note_off_c, 2, 65, 64
4, 273600, Note_on_c, 2, 67, 80
4, 273600, Note_on_c, 2, 64, 80
4, 273792, Note_off_c, 2, 64, 64
4, 273792, Note_off_c, 2, 67, 64
4, 274560, Note_on_c, 2, 69, 70
4, 275040, Note_off_c, 2, 69, 64
4, 275040, Note_on_c, 2, 70, 50
4, 275520, Note_off_c, 2, 70, 64
4, 275520, Note_on_c, 2, 72, 50
4, 276000, Note_off_c, 2, 72, 64
4, 276000, Note_on_c, 2, 60, 50
4, 276480, Note_off_c, 2, 60, 64
4, 276480, Note_on_c, 2, 65, 50
4, 277920, Note_off_c, 2, 65, 64
4, 277920, Note_on_c, 2, 67, 50
4, 278400, Note_off_c, 2, 67, 64
4, 278400, Note_on_c, 2, 69, 50
4, 278880, Note_off_c, 2, 69, 64
4, 278880, Note_on_c, 2, 65, 50
4, 279360, Note_off_c, 2, 65, 64
4, 279360, Note_on_c, 2, 69, 50
4, 279840, Note_off_c, 2, 69, 64
4, 279840, Note_on_c, 2, 70, 50
4, 280320, Note_off_c, 2, 70, 64
4, 280320, Note_on_c, 2, 72, 50
4, 281760, Note_off_c, 2, 72, 64
4, 281760, Note_on_c, 2, 74, 50
4, 282240, Note_off_c, 2, 74, 64
4, 282240, Note_on_c, 2, 76, 50
4, 282720, Note_off_c, 2, 76, 64
4, 282720, Note_on_c, 2, 77, 50
4, 283200, Note_off_c, 2, 77, 64
4, 283200, Note_on_c, 2, 79, 50
4, 283680, Note_off_c, 2, 79, 64
4, 283680, Note_on_c, 2, 77, 50
4, 284160, Note_off_c, 2, 77, 64
4, 284160, Note_on_c, 2, 76, 50
4, 285600, Note_off_c, 2, 76, 64
4, 285600, Note_on_c, 2, 74, 50
4, 286080, Note_off_c, 2, 74, 64
4, 286080, Note_on_c, 2, 72, 50
4, 286560, Note_off_c, 2, 72, 64
4, 286560, Note_on_c, 2, 74, 50
4, 287040, Note_off_c, 2, 74, 64
4, 287040, Note_on_c, 2, 70, 50
4, 287520, Note_off_c, 2, 70, 64
4, 287520, Note_on_c, 2, 67, 50
4, 288000, Note_off_c, 2, 67, 64
4, 288000, Note_on_c, 2, 64, 50
4, 289800, Note_off_c, 2, 64, 64
4, 305760, Note_on_c, 2, 74, 40
4, 306240, Note_off_c, 2, 74, 64
4, 306240, Note_on_c, 2, 70, 40
4, 306720, Note_off_c, 2, 70, 64
4, 306720, Note_on_c, 2, 67, 40
4, 307104, Note_off_c, 2, 67, 64
4, 307200, Note_on_c, 2, 64, 40
4, 307584, Note_off_c, 2, 64, 64
4, 312960, Note_on_c, 2, 69, 62
4, 312960, Note_on_c, 2, 72, 62
4, 313200, Note_off_c, 2, 72, 64
4, 313200, Note_off_c, 2, 69, 64
4, 314400, Note_on_c, 2, 77, 62
4, 314400, Note_on_c, 2, 69, 62
4, 314592, Note_off_c, 2, 69, 64
4, 314592, Note_off_c, 2, 77, 64
4, 314880, Note_on_c, 2, 74, 62
4, 314880, Note_on_c, 2, 67, 62
4, 315120, Note_off_c, 2, 67, 64
4, 315120, Note_off_c, 2, 74, 64
4, 315840, Note_on_c, 2, 72, 62
4, 315840, Note_on_c, 2, 67, 62
4, 316080, Note_off_c, 2, 67, 64
4, 316080, Note_off_c, 2, 72, 64
4, 320640, Note_on_c, 2, 69, 62
4, 320640, Note_on_c, 2, 72, 62
4, 320880, Note_off_c, 2, 72, 64
4, 320880, Note_off_c, 2, 69, 64
4, 322080, Note_on_c, 2, 69, 62
4, 322080, Note_on_c, 2, 77, 62
4, 322272, Note_off_c, 2, 77, 64
4, 322272, Note_off_c, 2, 69, 64
4, 322560, Note_on_c, 2, 67, 62
4, 322560, Note_on_c, 2, 74, 62
4, 322800, Note_off_c, 2, 74, 64
4, 322800, Note_off_c, 2, 67, 64
4, 323520, Note_on_c, 2, 72, 62
4, 323520, Note_on_c, 2, 67, 62
4, 323760, Note_off_c, 2, 67, 64
4, 323760, Note_off_c, 2, 72, 64
4, 326400, Note_on_c, 2, 71, 40
4, 328244, Note_off_c, 2, 71, 64
4, 328320, Note_on_c, 2, 71, 51
4, 330164, Note_off_c, 2, 71, 64
4, 330240, Note_on_c, 2, 72, 62
4, 332084, Note_off_c, 2, 72, 64
4, 332160, Note_on_c, 2, 74, 73
4, 334004, Note_off_c, 2, 74, 64
4, 334080, Note_on_c, 2, 76, 84
4, 335924, Note_off_c, 2, 76, 64
4, 336000, Note_on_c, 2, 68, 80
4, 336000, Note_on_c, 2, 77, 80
4, 339456, Note_off_c, 2, 77, 64
4, 339456, Note_off_c, 2, 68, 64
4, 339840, Note_on_c, 2, 77, 80
4, 339840, Note_on_c, 2, 69, 80
4, 341376, Note_off_c, 2, 69, 64
4, 341376, Note_off_c, 2, 77, 64
4, 341760, Note_on_c, 2, 76, 80
4, 341760, Note_on_c, 2, 67, 80
4, 343296, Note_off_c, 2, 67, 64
4, 343296, Note_off_c, 2, 76, 64
4, 343680, Note_on_c, 2, 69, 80
4, 343680, Note_on_c, 2, 77, 80
4, 344064, Note_off_c, 2, 77, 64
4, 344064, Note_off_c, 2, 69, 64
4, 349920, Note_on_c, 2, 70, 80
4, 349920, Note_on_c, 2, 67, 80
4, 350688, Note_off_c, 2, 67, 64
4, 350688, Note_off_c, 2, 70, 64
4, 350880, Note_on_c, 2, 70, 80
4, 350880, Note_on_c, 2, 67, 80
4, 351120, Note_off_c, 2, 67, 64
4, 351120, Note_off_c, 2, 70, 64
4, 351360, Note_on_c, 2, 77, 80
4, 351360, Note_on_c, 2, 69, 80
4, 351744, Note_off_c, 2, 69, 64
4, 351744, Note_off_c, 2, 77, 64
4, 357600, Note_on_c, 2, 70, 80
4, 357600, Note_on_c, 2, 67, 80
4, 358368, Note_off_c, 2, 67, 64
4, 358368, Note_off_c, 2, 70, 64
4, 358560, Note_on_c, 2, 70, 80
4, 358560, Note_on_c, 2, 67, 80
4, 358800, Note_off_c, 2, 67, 64
4, 358800, Note_off_c, 2, 70, 64
4, 359040, Note_on_c, 2, 77, 80
4, 359040, Note_on_c, 2, 69, 80
4, 359424, Note_off_c, 2, 69, 64
4, 359424, Note_off_c, 2, 77, 64
4, 361440, Note_on_c, 2, 70, 80
4, 361440, Note_on_c, 2, 67, 80
4, 362208, Note_off_c, 2, 67, 64
4, 362208, Note_off_c, 2, 70, 64
4, 362400, Note_on_c, 2, 70, 80
4, 362400, Note_on_c, 2, 67, 80
4, 362640, Note_off_c, 2, 67, 64
4, 362640, Note_off_c, 2, 70, 64
4, 362880, Note_on_c, 2, 69, 100
4, 362880, Note_on_c, 2, 72, 100
4, 364656, Note_off_c, 2, 72, 64
4, 364656, Note_off_c, 2, 69, 64
4, 364740, Note_on_c, 2, 69, 80
4, 364740, Note_on_c, 2, 72, 100
4, 364770, Note_off_c, 2, 72, 64
4, 364770, Note_off_c, 2, 69, 64
4, 364800, Note_on_c, 2, 72, 100
4, 364800, Note_on_c, 2, 69, 100
4, 364896, Note_off_c, 2, 69, 64
4, 364896, Note_off_c, 2, 72, 64
4, 366720, Note_on_c, 2, 69, 100
4, 366720, Note_on_c, 2, 75, 100
4, 368496, Note_off_c, 2, 75, 64
4, 368496, Note_off_c, 2, 69, 64
4, 368580, Note_on_c, 2, 69, 80
4, 368580, Note_on_c, 2, 75, 100
4, 368610, Note_off_c, 2, 75, 64
4, 368610, Note_off_c, 2, 69, 64
4, 368640, Note_on_c, 2, 75, 100
4, 368640, Note_on_c, 2, 69, 100
4, 368880, Note_off_c, 2, 69, 64
4, 368880, Note_off_c, 2, 75, 64
4, 370560, Note_on_c, 2, 75, 100
4, 370560, Note_on_c, 2, 69, 100
4, 370800, Note_off_c, 2, 69, 64
4, 370800, Note_off_c, 2, 75, 64
4, 372480, Note_on_c, 2, 69, 80
4, 372480, Note_on_c, 2, 75, 80
4, 372720, Note_off_c, 2, 75, 64
4, 372720, Note_off_c, 2, 69, 64
4, 373440, Note_on_c, 2, 75, 80
4, 373440, Note_on_c, 2, 69, 80
4, 373680, Note_off_c, 2, 69, 64
4, 373680, Note_off_c, 2, 75, 64
4, 374400, Note_on_c, 2, 75, 80
4, 374400, Note_on_c, 2, 69, 80
4, 374640, Note_off_c, 2, 69, 64
4, 374640, Note_off_c, 2, 75, 64
4, 375360, Note_on_c, 2, 75, 80
4, 375360, Note_on_c, 2, 69, 80
4, 375600, Note_off_c, 2, 69, 64
4, 375600, Note_off_c, 2, 75, 64
4, 376320, Note_on_c, 2, 74, 80
4, 376320, Note_on_c, 2, 70, 80
4, 376560, Note_off_c, 2, 70, 64
4, 376560, Note_off_c, 2, 74, 64
4, 384480, Note_on_c, 2, 70, 38
4, 384480, Note_on_c, 2, 74, 38
4, 384960, Note_off_c, 2, 74, 64
4, 384960, Note_off_c, 2, 70, 64
4, 384960, Note_on_c, 2, 69, 38
4, 384960, Note_on_c, 2, 72, 38
4, 385440, Note_off_c, 2, 72, 64
4, 385440, Note_off_c, 2, 69, 64
4, 385440, Note_on_c, 2, 70, 38
4, 385440, Note_on_c, 2, 67, 38
4, 385920, Note_off_c, 2, 67, 64
4, 385920, Note_off_c, 2, 70, 64
4, 385920, Note_on_c, 2, 69, 38
4, 385920, Note_on_c, 2, 65, 38
4, 386400, Note_off_c, 2, 65, 64
4, 386400, Note_off_c, 2, 69, 64
4, 386400, Note_on_c, 2, 63, 38
4, 386400, Note_on_c, 2, 67, 38
4, 386880, Note_off_c, 2, 67, 64
4, 386880, Note_off_c, 2, 63, 64
4, 386880, Note_on_c, 2, 62, 38
4, 386880, Note_on_c, 2, 65, 38
4, 387360, Note_off_c, 2, 65, 64
4, 387360, Note_off_c, 2, 62, 64
4, 387360, Note_on_c, 2, 67, 38
4, 387360, Note_on_c, 2, 63, 38
4, 387840, Note_off_c, 2, 63, 64
4, 387840, Note_off_c, 2, 67, 64
4, 387840, Note_on_c, 2, 60, 38
4, 387840, Note_on_c, 2, 63, 38
4, 391680, Note_off_c, 2, 63, 64
4, 391680, Note_off_c, 2, 60, 64
4, 391680, Note_on_c, 2, 69, 80
4, 391680, Note_on_c, 2, 75, 80
4, 391920, Note_off_c, 2, 75, 64
4, 391920, Note_off_c, 2, 69, 64
4, 393600, Note_on_c, 2, 69, 80
4, 393600, Note_on_c, 2, 75, 80
4, 393840, Note_off_c, 2, 75, 64
4, 393840, Note_off_c, 2, 69, 64
4, 394560, Note_on_c, 2, 75, 80
4, 394560, Note_on_c, 2, 69, 80
4, 394800, Note_off_c, 2, 69, 64
4, 394800, Note_off_c, 2, 75, 64
4, 395520, Note_on_c, 2, 70, 80
4, 395520, Note_on_c, 2, 74, 80
4, 395760, Note_off_c, 2, 74, 64
4, 395760, Note_off_c, 2, 70, 64
4, 396000, Note_on_c, 2, 70, 67
4, 396192, Note_off_c, 2, 70, 64
4, 396480, Note_on_c, 2, 65, 67
4, 396672, Note_off_c, 2, 65, 64
4, 396960, Note_on_c, 2, 70, 67
4, 397152, Note_off_c, 2, 70, 64
4, 397440, Note_on_c, 2, 62, 67
4, 397632, Note_off_c, 2, 62, 64
4, 397920, Note_on_c, 2, 65, 67
4, 398112, Note_off_c, 2, 65, 64
4, 398400, Note_on_c, 2, 58, 67
4, 398592, Note_off_c, 2, 58, 64
4, 398880, Note_on_c, 2, 62, 67
4, 399072, Note_off_c, 2, 62, 64
4, 399360, Note_on_c, 2, 55, 67
4, 399360, Note_on_c, 2, 67, 67
4, 399552, Note_off_c, 2, 67, 64
4, 399552, Note_off_c, 2, 55, 64
4, 399840, Note_on_c, 2, 63, 67
4, 399840, Note_on_c, 2, 75, 67
4, 400032, Note_off_c, 2, 75, 64
4, 400032, Note_off_c, 2, 63, 64
4, 400320, Note_on_c, 2, 72, 67
4, 400320, Note_on_c, 2, 60, 67
4, 400512, Note_off_c, 2, 60, 64
4, 400512, Note_off_c, 2, 72, 64
4, 400800, Note_on_c, 2, 58, 67
4, 400800, Note_on_c, 2, 70, 67
4, 400992, Note_off_c, 2, 70, 64
4, 400992, Note_off_c, 2, 58, 64
4, 401280, Note_on_c, 2, 57, 67
4, 401280, Note_on_c, 2, 69, 67
4, 401472, Note_off_c, 2, 69, 64
4, 401472, Note_off_c, 2, 57, 64
4, 401760, Note_on_c, 2, 65, 67
4, 401760, Note_on_c, 2, 77, 67
4, 401952, Note_off_c, 2, 77, 64
4, 401952, Note_off_c, 2, 65, 64
4, 402240, Note_on_c, 2, 75, 67
4, 402240, Note_on_c, 2, 63, 67
4, 402432, Note_off_c, 2, 63, 64
4, 402432, Note_off_c, 2, 75, 64
4, 402720, Note_on_c, 2, 60, 67
4, 402720, Note_on_c, 2, 72, 67
4, 402912, Note_off_c, 2, 72, 64
4, 402912, Note_off_c, 2, 60, 64
4, 403200, Note_on_c, 2, 70, 67
4, 403200, Note_on_c, 2, 58, 67
4, 403392, Note_off_c, 2, 58, 64
4, 403392, Note_off_c, 2, 70, 64
4, 403680, Note_on_c, 2, 67, 67
4, 403680, Note_on_c, 2, 79, 67
4, 404160, Note_off_c, 2, 79, 64
4, 404160, Note_off_c, 2, 67, 64
4, 404160, Note_on_c, 2, 65, 67
4, 404160, Note_on_c, 2, 77, 67
4, 404640, Note_off_c, 2, 77, 64
4, 404640, Note_off_c, 2, 65, 64
4, 404640, Note_on_c, 2, 63, 67
4, 404640, Note_on_c, 2, 75, 67
4, 405120, Note_off_c, 2, 75, 64
4, 405120, Note_off_c, 2, 63, 64
4, 405120, Note_on_c, 2, 74, 67
4, 405120, Note_on_c, 2, 62, 67
4, 405600, Note_off_c, 2, 62, 64
4, 405600, Note_off_c, 2, 74, 64
4, 405600, Note_on_c, 2, 72, 67
4, 405600, Note_on_c, 2, 60, 67
4, 406080, Note_off_c, 2, 60, 64
4, 406080, Note_off_c, 2, 72, 64
4, 406080, Note_on_c, 2, 70, 67
4, 406080, Note_on_c, 2, 58, 67
4, 406560, Note_off_c, 2, 58, 64
4, 406560, Note_off_c, 2, 70, 64
4, 406560, Note_on_c, 2, 72, 67
4, 406560, Note_on_c, 2, 60, 67
4, 407040, Note_off_c, 2, 60, 64
4, 407040, Note_off_c, 2, 72, 64
4, 407040, Note_on_c, 2, 70, 67
4, 407040, Note_on_c, 2, 63, 67
4, 410880, Note_off_c, 2, 70, 64
4, 410880, Note_on_c, 2, 69, 50
4, 411168, Note_off_c, 2, 63, 64
4, 411168, Note_off_c, 2, 69, 64
4, 411840, Note_on_c, 2, 75, 63
4, 411840, Note_on_c, 2, 72, 63
4, 412128, Note_off_c, 2, 72, 64
4, 412128, Note_off_c, 2, 75, 64
4, 413760, Note_on_c, 2, 70, 63
4, 413760, Note_on_c, 2, 74, 63
4, 414048, Note_off_c, 2, 74, 64
4, 414048, Note_off_c, 2, 70, 64
4, 415680, Note_on_c, 2, 72, 63
4, 415680, Note_on_c, 2, 75, 63
4, 415968, Note_off_c, 2, 75, 64
4, 415968, Note_off_c, 2, 72, 64
4, 417600, Note_on_c, 2, 72, 63
4, 417600, Note_on_c, 2, 69, 63
4, 417888, Note_off_c, 2, 69, 64
4, 417888, Note_off_c, 2, 72, 64
4, 418560, Note_on_c, 2, 58, 32
4, 426240, Note_off_c, 2, 58, 64
4, 426240, Note_on_c, 2, 57, 32
4, 426240, Note_on_c, 2, 60, 32
4, 433920, Note_off_c, 2, 60, 64
4, 433920, Note_off_c, 2, 57, 64
4, 433920, Note_on_c, 2, 62, 37
4, 433920, Note_on_c, 2, 59, 37
4, 437760, Note_off_c, 2, 59, 64
4, 437760, Note_off_c, 2, 62, 64
4, 437760, Note_on_c, 2, 64, 42
4, 437760, Note_on_c, 2, 61, 42
4, 441600, Note_off_c, 2, 61, 64
4, 441600, Note_off_c, 2, 64, 64
4, 446400, Note_on_c, 2, 69, 64
4, 446400, Note_on_c, 2, 72, 64
4, 447168, Note_off_c, 2, 72, 64
4, 447168, Note_off_c, 2, 69, 64
4, 447360, Note_on_c, 2, 69, 64
4, 447360, Note_on_c, 2, 72, 64
4, 448128, Note_off_c, 2, 72, 64
4, 448128, Note_off_c, 2, 69, 64
4, 448320, Note_on_c, 2, 69, 64
4, 448320, Note_on_c, 2, 72, 64
4, 449088, Note_off_c, 2, 72, 64
4, 449088, Note_off_c, 2, 69, 64
4, 449280, Note_on_c, 2, 70, 89
4, 449280, Note_on_c, 2, 58, 89
4, 452736, Note_off_c, 2, 58, 64
4, 452736, Note_off_c, 2, 70, 64
4, 453120, Note_on_c, 2, 75, 89
4, 453120, Note_on_c, 2, 63, 89
4, 454656, Note_off_c, 2, 63, 64
4, 454656, Note_off_c, 2, 75, 64
4, 455040, Note_on_c, 2, 77, 89
4, 455040, Note_on_c, 2, 65, 89
4, 456840, Note_off_c, 2, 65, 64
4, 456840, Note_off_c, 2, 77, 64
4, 456960, Note_on_c, 2, 74, 62
4, 456960, Note_on_c, 2, 62, 62
4, 460416, Note_off_c, 2, 62, 64
4, 460416, Note_off_c, 2, 74, 64
4, 460800, Note_on_c, 2, 67, 62
4, 460800, Note_on_c, 2, 55, 62
4, 462336, Note_off_c, 2, 55, 64
4, 462336, Note_off_c, 2, 67, 64
4, 462720, Note_on_c, 2, 69, 62
4, 462720, Note_on_c, 2, 57, 62
4, 464520, Note_off_c, 2, 57, 64
4, 464520, Note_off_c, 2, 69, 64
4, 464640, Note_on_c, 2, 70, 62
4, 464640, Note_on_c, 2, 58, 62
4, 466176, Note_off_c, 2, 58, 64
4, 466176, Note_off_c, 2, 70, 64
4, 466560, Note_on_c, 2, 73, 62
4, 466560, Note_on_c, 2, 61, 62
4, 468360, Note_off_c, 2, 61, 64
4, 468360, Note_off_c, 2, 73, 64
4, 468480, Note_on_c, 2, 74, 62
4, 468480, Note_on_c, 2, 62, 62
4, 470016, Note_off_c, 2, 62, 64
4, 470016, Note_off_c, 2, 74, 64
4, 470400, Note_on_c, 2, 76, 104
4, 470592, Note_off_c, 2, 76, 64
4, 470880, Note_on_c, 2, 72, 104
4, 470880, Note_on_c, 2, 60, 104
4, 471072, Note_off_c, 2, 60, 64
4, 471072, Note_off_c, 2, 72, 64
4, 471360, Note_on_c, 2, 72, 104
4, 471360, Note_on_c, 2, 60, 104
4, 471552, Note_off_c, 2, 60, 64
4, 471552, Note_off_c, 2, 72, 64
4, 471840, Note_on_c, 2, 72, 104
4, 471840, Note_on_c, 2, 60, 104
4, 472032, Note_off_c, 2, 60, 64
4, 472032, Note_off_c, 2, 72, 64
4, 472320, Note_on_c, 2, 60, 104
4, 472320, Note_on_c, 2, 72, 104
4, 472512, Note_off_c, 2, 72, 64
4, 472512, Note_off_c, 2, 60, 64
4, 472800, Note_on_c, 2, 72, 104
4, 472800, Note_on_c, 2, 60, 104
4, 472992, Note_off_c, 2, 60, 64
4, 472992, Note_off_c, 2, 72, 64
4, 473280, Note_on_c, 2, 72, 104
4, 473280, Note_on_c, 2, 60, 104
4, 473472, Note_off_c, 2, 60, 64
4, 473472, Note_off_c, 2, 72, 64
4, 473760, Note_on_c, 2, 60, 104
4, 473760, Note_on_c, 2, 72, 104
4, 473952, Note_off_c, 2, 72, 64
4, 473952, Note_off_c, 2, 60, 64
4, 474240, Note_on_c, 2, 60, 104
4, 474240, Note_on_c, 2, 72, 104
4, 474432, Note_off_c, 2, 72, 64
4, 474432, Note_off_c, 2, 60, 64
4, 474720, Note_on_c, 2, 72, 104
4, 474720, Note_on_c, 2, 60, 104
4, 474912, Note_off_c, 2, 60, 64
4, 474912, Note_off_c, 2, 72, 64
4, 475200, Note_on_c, 2, 72, 104
4, 475200, Note_on_c, 2, 60, 104
4, 475392, Note_off_c, 2, 60, 64
4, 475392, Note_off_c, 2, 72, 64
4, 475680, Note_on_c, 2, 60, 104
4, 475680, Note_on_c, 2, 72, 104
4, 475872, Note_off_c, 2, 72, 64
4, 475872, Note_off_c, 2, 60, 64
4, 476160, Note_on_c, 2, 72, 104
4, 476160, Note_on_c, 2, 60, 104
4, 476352, Note_off_c, 2, 60, 64
4, 476352, Note_off_c, 2, 72, 64
4, 476640, Note_on_c, 2, 64, 64
4, 476640, Note_on_c, 2, 67, 64
4, 477408, Note_off_c, 2, 67, 64
4, 477408, Note_off_c, 2, 64, 64
4, 477600, Note_on_c, 2, 65, 64
4, 477600, Note_on_c, 2, 68, 64
4, 478464, Note_off_c, 2, 68, 64
4, 478464, Note_off_c, 2, 65, 64
4, 478560, Note_on_c, 2, 70, 64
4, 478560, Note_on_c, 2, 67, 64
4, 479328, Note_off_c, 2, 67, 64
4, 479328, Note_off_c, 2, 70, 64
4, 479520, Note_on_c, 2, 65, 64
4, 479520, Note_on_c, 2, 62, 64
4, 480384, Note_off_c, 2, 62, 64
4, 480384, Note_off_c, 2, 65, 64
4, 480480, Note_on_c, 2, 67, 64
4, 480480, Note_on_c, 2, 64, 64
4, 481248, Note_off_c, 2, 64, 64
4, 481248, Note_off_c, 2, 67, 64
4, 481440, Note_on_c, 2, 65, 64
4, 481440, Note_on_c, 2, 68, 64
4, 482304, Note_off_c, 2, 68, 64
4, 482304, Note_off_c, 2, 65, 64
4, 482400, Note_on_c, 2, 65, 64
4, 482400, Note_on_c, 2, 68, 64
4, 483360, Note_off_c, 2, 68, 64
4, 483360, Note_off_c, 2, 65, 64
4, 483360, Note_on_c, 2, 67, 64
4, 483360, Note_on_c, 2, 64, 64
4, 483744, Note_off_c, 2, 64, 64
4, 483744, Note_off_c, 2, 67, 64
4, 483840, Note_on_c, 2, 64, 51
4, 483840, Note_on_c, 2, 67, 51
4, 484224, Note_off_c, 2, 67, 64
4, 484224, Note_off_c, 2, 64, 64
4, 484320, Note_on_c, 2, 72, 64
4, 485088, Note_off_c, 2, 72, 64
4, 485280, Note_on_c, 2, 72, 64
4, 486144, Note_off_c, 2, 72, 64
4, 486240, Note_on_c, 2, 72, 64
4, 487008, Note_off_c, 2, 72, 64
4, 487200, Note_on_c, 2, 72, 64
4, 488064, Note_off_c, 2, 72, 64
4, 488160, Note_on_c, 2, 72, 64
4, 488928, Note_off_c, 2, 72, 64
4, 489120, Note_on_c, 2, 72, 64
4, 489984, Note_off_c, 2, 72, 64
4, 490080, Note_on_c, 2, 74, 64
4, 491040, Note_off_c, 2, 74, 64
4, 491040, Note_on_c, 2, 72, 64
4, 491424, Note_off_c, 2, 72, 64
4, 491520, Note_on_c, 2, 72, 64
4, 491904, Note_off_c, 2, 72, 64
4, 547200, Note_on_c, 2, 72, 55
4, 547200, Note_on_c, 2, 67, 55
4, 547680, Note_off_c, 2, 67, 64
4, 547680, Note_off_c, 2, 72, 64
4, 548160, Note_on_c, 2, 67, 58
4, 548160, Note_on_c, 2, 72, 58
4, 548640, Note_off_c, 2, 72, 64
4, 548640, Note_off_c, 2, 67, 64
4, 549120, Note_on_c, 2, 72, 55
4, 549120, Note_on_c, 2, 67, 55
4, 549600, Note_off_c, 2, 67, 64
4, 549600, Note_off_c, 2, 72, 64
4, 550080, Note_on_c, 2, 67, 58
4, 550080, Note_on_c, 2, 72, 58
4, 550560, Note_off_c, 2, 72, 64
4, 550560, Note_off_c, 2, 67, 64
4, 551040, Note_on_c, 2, 72, 55
4, 551040, Note_on_c, 2, 67, 55
4, 551520, Note_off_c, 2, 67, 64
4, 551520, Note_off_c, 2, 72, 64
4, 552000, Note_on_c, 2, 67, 58
4, 552000, Note_on_c, 2, 72, 58
4, 552480, Note_off_c, 2, 72, 64
4, 552480, Note_off_c, 2, 67, 64
4, 552960, Note_on_c, 2, 72, 80
4, 552960, Note_on_c, 2, 69, 80
4, 553152, Note_off_c, 2, 69, 64
4, 553152, Note_off_c, 2, 72, 64
4, 554880, Note_on_c, 2, 74, 80
4, 554880, Note_on_c, 2, 65, 80
4, 555072, Note_off_c, 2, 65, 64
4, 555072, Note_off_c, 2, 74, 64
4, 556800, Note_on_c, 2, 65, 80
4, 556800, Note_on_c, 2, 69, 80
4, 556992, Note_off_c, 2, 69, 64
4, 556992, Note_off_c, 2, 65, 64
4, 558240, Note_on_c, 2, 65, 80
4, 558240, Note_on_c, 2, 69, 80
4, 558432, Note_off_c, 2, 69, 64
4, 558432, Note_off_c, 2, 65, 64
4, 558720, Note_on_c, 2, 67, 80
4, 558720, Note_on_c, 2, 64, 80
4, 558912, Note_off_c, 2, 64, 64
4, 558912, Note_off_c, 2, 67, 64
4, 559200, Note_on_c, 2, 67, 80
4, 559200, Note_on_c, 2, 64, 80
4, 559392, Note_off_c, 2, 64, 64
4, 559392, Note_off_c, 2, 67, 64
4, 559680, Note_on_c, 2, 67, 80
4, 559680, Note_on_c, 2, 64, 80
4, 559872, Note_off_c, 2, 64, 64
4, 559872, Note_off_c, 2, 67, 64
4, 560160, Note_on_c, 2, 64, 80
4, 560160, Note_on_c, 2, 67, 80
4, 560352, Note_off_c, 2, 67, 64
4, 560352, Note_off_c, 2, 64, 64
4, 560640, Note_on_c, 2, 65, 80
4, 560640, Note_on_c, 2, 69, 80
4, 560832, Note_off_c, 2, 69, 64
4, 560832, Note_off_c, 2, 65, 64
4, 561600, Note_on_c, 2, 67, 80
4, 561600, Note_on_c, 2, 65, 80
4, 561792, Note_off_c, 2, 65, 64
4, 561792, Note_off_c, 2, 67, 64
4, 562560, Note_on_c, 2, 65, 80
4, 562560, Note_on_c, 2, 69, 80
4, 562752, Note_off_c, 2, 69, 64
4, 562752, Note_off_c, 2, 65, 64
4, 563520, Note_on_c, 2, 67, 80
4, 563520, Note_on_c, 2, 64, 80
4, 563712, Note_off_c, 2, 64, 64
4, 563712, Note_off_c, 2, 67, 64
4, 564480, Note_on_c, 2, 69, 70
4, 564960, Note_off_c, 2, 69, 64
4, 564960, Note_on_c, 2, 70, 50
4, 565440, Note_off_c, 2, 70, 64
4, 565440, Note_on_c, 2, 72, 50
4, 565920, Note_off_c, 2, 72, 64
4, 565920, Note_on_c, 2, 60, 50
4, 566400, Note_off_c, 2, 60, 64
4, 566400, Note_on_c, 2, 65, 50
4, 567840, Note_off_c, 2, 65, 64
4, 567840, Note_on_c, 2, 67, 50
4, 568320, Note_off_c, 2, 67, 64
4, 568320, Note_on_c, 2, 69, 50
4, 568800, Note_off_c, 2, 69, 64
4, 568800, Note_on_c, 2, 65, 50
4, 569280, Note_off_c, 2, 65, 64
4, 569280, Note_on_c, 2, 69, 50
4, 569760, Note_off_c, 2, 69, 64
4, 569760, Note_on_c, 2, 70, 50
4, 570240, Note_off_c, 2, 70, 64
4, 570240, Note_on_c, 2, 72, 50
4, 571680, Note_off_c, 2, 72, 64
4, 571680, Note_on_c, 2, 74, 50
4, 572160, Note_off_c, 2, 74, 64
4, 572160, Note_on_c, 2, 76, 50
4, 572640, Note_off_c, 2, 76, 64
4, 572640, Note_on_c, 2, 77, 50
4, 573120, Note_off_c, 2, 77, 64
4, 573120, Note_on_c, 2, 79, 50
4, 573600, Note_off_c, 2, 79, 64
4, 573600, Note_on_c, 2, 77, 50
4, 574080, Note_off_c, 2, 77, 64
4, 574080, Note_on_c, 2, 76, 50
4, 575520, Note_off_c, 2, 76, 64
4, 575520, Note_on_c, 2, 74, 50
4, 576000, Note_off_c, 2, 74, 64
4, 576000, Note_on_c, 2, 72, 50
4, 576480, Note_off_c, 2, 72, 64
4, 576480, Note_on_c, 2, 74, 50
4, 576960, Note_off_c, 2, 74, 64
4, 576960, Note_on_c, 2, 70, 50
4, 577440, Note_off_c, 2, 70, 64
4, 577440, Note_on_c, 2, 67, 50
4, 577920, Note_off_c, 2, 67, 64
4, 577920, Note_on_c, 2, 64, 50
4, 579720, Note_off_c, 2, 64, 64
4, 595680, Note_on_c, 2, 74, 40
4, 596160, Note_off_c, 2, 74, 64
4, 596160, Note_on_c, 2, 70, 40
4, 596640, Note_off_c, 2, 70, 64
4, 596640, Note_on_c, 2, 67, 40
4, 597024, Note_off_c, 2, 67, 64
4, 597120, Note_on_c, 2, 64, 40
4, 597504, Note_off_c, 2, 64, 64
4, 602880, Note_on_c, 2, 69, 62
4, 602880, Note_on_c, 2, 72, 62
4, 603120, Note_off_c, 2, 72, 64
4, 603120, Note_off_c, 2, 69, 64
4, 604320, Note_on_c, 2, 77, 62
4, 604320, Note_on_c, 2, 69, 62
4, 604512, Note_off_c, 2, 69, 64
4, 604512, Note_off_c, 2, 77, 64
4, 604800, Note_on_c, 2, 74, 62
4, 604800, Note_on_c, 2, 67, 62
4, 605040, Note_off_c, 2, 67, 64
4, 605040, Note_off_c, 2, 74, 64
4, 605760, Note_on_c, 2, 72, 62
4, 605760, Note_on_c, 2, 67, 62
4, 606000, Note_off_c, 2, 67, 64
4, 606000, Note_off_c, 2, 72, 64
4, 610560, Note_on_c, 2, 69, 62
4, 610560, Note_on_c, 2, 72, 62
4, 610800, Note_off_c, 2, 72, 64
4, 610800, Note_off_c, 2, 69, 64
4, 612000, Note_on_c, 2, 69, 62
4, 612000, Note_on_c, 2, 77, 62
4, 612192, Note_off_c, 2, 77, 64
4, 612192, Note_off_c, 2, 69, 64
4, 612480, Note_on_c, 2, 67, 62
4, 612480, Note_on_c, 2, 74, 62
4, 612720, Note_off_c, 2, 74, 64
4, 612720, Note_off_c, 2, 67, 64
4, 613440, Note_on_c, 2, 72, 62
4, 613440, Note_on_c, 2, 67, 62
4, 613680, Note_off_c, 2, 67, 64
4, 613680, Note_off_c, 2, 72, 64
4, 616320, Note_on_c, 2, 71, 40
4, 618164, Note_off_c, 2, 71, 64
4, 618240, Note_on_c, 2, 71, 51
4, 620084, Note_off_c, 2, 71, 64
4, 620160, Note_on_c, 2, 72, 62
4, 622004, Note_off_c, 2, 72, 64
4, 622080, Note_on_c, 2, 74, 73
4, 623924, Note_off_c, 2, 74, 64
4, 624000, Note_on_c, 2, 76, 84
4, 625844, Note_off_c, 2, 76, 64
4, 625920, Note_on_c, 2, 68, 80
4, 625920, Note_on_c, 2, 77, 80
4, 629376, Note_off_c, 2, 77, 64
4, 629376, Note_off_c, 2, 68, 64
4, 629760, Note_on_c, 2, 77, 80
4, 629760, Note_on_c, 2, 69, 80
4, 631296, Note_off_c, 2, 69, 64
4, 631296, Note_off_c, 2, 77, 64
4, 631680, Note_on_c, 2, 76, 80
4, 631680, Note_on_c, 2, 67, 80
4, 633216, Note_off_c, 2, 67, 64
4, 633216, Note_off_c, 2, 76, 64
4, 633600, Note_on_c, 2, 69, 80
4, 633600, Note_on_c, 2, 77, 80
4, 633984, Note_off_c, 2, 77, 64
4, 633984, Note_off_c, 2, 69, 64
4, 639840, Note_on_c, 2, 70, 80
4, 639840, Note_on_c, 2, 67, 80
4, 640608, Note_off_c, 2, 67, 64
4, 640608, Note_off_c, 2, 70, 64
4, 640800, Note_on_c, 2, 70, 80
4, 640800, Note_on_c, 2, 67, 80
4, 641040, Note_off_c, 2, 67, 64
4, 641040, Note_off_c, 2, 70, 64
4, 641280, Note_on_c, 2, 77, 80
4, 641280, Note_on_c, 2, 69, 80
4, 641664, Note_off_c, 2, 69, 64
4, 641664, Note_off_c, 2, 77, 64
4, 647520, Note_on_c, 2, 70, 80
4, 647520, Note_on_c, 2, 67, 80
4, 648288, Note_off_c, 2, 67, 64
4, 648288, Note_off_c, 2, 70, 64
4, 648480, Note_on_c, 2, 70, 80
4, 648480, Note_on_c, 2, 67, 80
4, 648720, Note_off_c, 2, 67, 64
4, 648720, Note_off_c, 2, 70, 64
4, 648960, Note_on_c, 2, 69, 80
4, 648960, Note_on_c, 2, 65, 80
4, 649200, Note_off_c, 2, 65, 64
4, 649200, Note_off_c, 2, 69, 64
4, 649920, Note_on_c, 2, 64, 80
4, 649920, Note_on_c, 2, 67, 80
4, 650160, Note_off_c, 2, 67, 64
4, 650160, Note_off_c, 2, 64, 64
4, 650880, Note_on_c, 2, 69, 80
4, 650880, Note_on_c, 2, 65, 80
4, 651120, Note_off_c, 2, 65, 64
4, 651120, Note_off_c, 2, 69, 64
4, 651840, Note_on_c, 2, 70, 80
4, 651840, Note_on_c, 2, 67, 80
4, 652080, Note_off_c, 2, 67, 64
4, 652080, Note_off_c, 2, 70, 64
4, 652800, Note_on_c, 2, 72, 48
4, 652800, Note_on_c, 2, 69, 48
4, 660360, Note_off_c, 2, 69, 64
4, 660360, Note_off_c, 2, 72, 64
4, 660480, Note_on_c, 2, 67, 48
4, 660480, Note_on_c, 2, 70, 48
4, 668040, Note_off_c, 2, 70, 64
4, 668040, Note_off_c, 2, 67, 64
4, 668160, Note_on_c, 2, 69, 48
4, 668160, Note_on_c, 2, 65, 48
4, 671880, Note_off_c, 2, 65, 64
4, 671880, Note_off_c, 2, 69, 64
4, 672000, Note_on_c, 2, 67, 48
4, 672000, Note_on_c, 2, 62, 48
4, 675720, Note_off_c, 2, 62, 64
4, 675720, Note_off_c, 2, 67, 64
4, 675840, Note_on_c, 2, 65, 48
4, 675840, Note_on_c, 2, 57, 48
4, 679560, Note_off_c, 2, 57, 64
4, 679560, Note_off_c, 2, 65, 64
4, 679680, Note_on_c, 2, 60, 36
4, 679680, Note_on_c, 2, 55, 36
4, 683400, Note_off_c, 2, 55, 64
4, 683400, Note_off_c, 2, 60, 64
4, 683520, Note_on_c, 2, 57, 40
4, 684480, Note_off_c, 2, 57, 64
4, 726720, Note_on_c, 2, 67, 30
4, 728640, Note_off_c, 2, 67, 64
4, 728640, Note_on_c, 2, 69, 30
4, 729120, Note_off_c, 2, 69, 64
4, 729120, Note_on_c, 2, 70, 30
4, 729480, Note_off_c, 2, 70, 64
4, 729480, Note_on_c, 2, 74, 30
4, 729600, Note_off_c, 2, 74, 64
4, 729600, Note_on_c, 2, 72, 30
4, 730560, Note_off_c, 2, 72, 64
4, 730560, Note_on_c, 2, 70, 30
4, 731040, Note_off_c, 2, 70, 64
4, 731040, Note_on_c, 2, 72, 30
4, 731520, Note_off_c, 2, 72, 64
4, 731520, Note_on_c, 2, 69, 30
4, 732480, Note_off_c, 2, 69, 64
4, 732480, Note_on_c, 2, 74, 30
4, 733440, Note_off_c, 2, 74, 64
4, 733440, Note_on_c, 2, 67, 24
4, 733920, Note_off_c, 2, 67, 64
4, 733920, Note_on_c, 2, 67, 40
4, 733920, Note_on_c, 2, 62, 40
4, 734088, Note_off_c, 2, 62, 64
4, 734088, Note_off_c, 2, 67, 64
4, 734400, Note_on_c, 2, 58, 40
4, 734400, Note_on_c, 2, 62, 40
4, 734568, Note_off_c, 2, 62, 64
4, 734568, Note_off_c, 2, 58, 64
4, 734880, Note_on_c, 2, 62, 40
4, 734880, Note_on_c, 2, 67, 40
4, 735048, Note_off_c, 2, 67, 64
4, 735048, Note_off_c, 2, 62, 64
4, 735840, Note_on_c, 2, 63, 40
4, 735840, Note_on_c, 2, 67, 40
4, 736008, Note_off_c, 2, 67, 64
4, 736008, Note_off_c, 2, 63, 64
4, 736320, Note_on_c, 2, 63, 40
4, 736320, Note_on_c, 2, 58, 40
4, 736488, Note_off_c, 2, 58, 64
4, 736488, Note_off_c, 2, 63, 64
4, 736800, Note_on_c, 2, 63, 40
4, 736800, Note_on_c, 2, 67, 40
4, 736968, Note_off_c, 2, 67, 64
4, 736968, Note_off_c, 2, 63, 64
4, 737760, Note_on_c, 2, 63, 40
4, 737760, Note_on_c, 2, 68, 40
4, 737928, Note_off_c, 2, 68, 64
4, 737928, Note_off_c, 2, 63, 64
4, 738240, Note_on_c, 2, 63, 40
4, 738240, Note_on_c, 2, 60, 40
4, 738408, Note_off_c, 2, 60, 64
4, 738408, Note_off_c, 2, 63, 64
4, 738720, Note_on_c, 2, 63, 40
4, 738720, Note_on_c, 2, 68, 40
4, 738888, Note_off_c, 2, 68, 64
4, 738888, Note_off_c, 2, 63, 64
4, 739680, Note_on_c, 2, 65, 40
4, 739680, Note_on_c, 2, 68, 40
4, 739848, Note_off_c, 2, 68, 64
4, 739848, Note_off_c, 2, 65, 64
4, 740160, Note_on_c, 2, 65, 40
4, 740160, Note_on_c, 2, 62, 40
4, 740328, Note_off_c, 2, 62, 64
4, 740328, Note_off_c, 2, 65, 64
4, 740640, Note_on_c, 2, 65, 40
4, 740640, Note_on_c, 2, 68, 40
4, 740808, Note_off_c, 2, 68, 64
4, 740808, Note_off_c, 2, 65, 64
4, 741120, Note_on_c, 2, 75, 38
4, 744000, Note_off_c, 2, 75, 64
4, 744000, Note_on_c, 2, 77, 38
4, 744480, Note_off_c, 2, 77, 64
4, 744480, Note_on_c, 2, 79, 38
4, 744960, Note_off_c, 2, 79, 64
4, 744960, Note_on_c, 2, 80, 38
4, 745920, Note_off_c, 2, 80, 64
4, 745920, Note_on_c, 2, 79, 38
4, 746400, Note_off_c, 2, 79, 64
4, 746400, Note_on_c, 2, 80, 38
4, 746880, Note_off_c, 2, 80, 64
4, 746880, Note_on_c, 2, 77, 38
4, 747840, Note_off_c, 2, 77, 64
4, 747840, Note_on_c, 2, 82, 33
4, 748800, Note_off_c, 2, 82, 64
4, 748800, Note_on_c, 2, 79, 32
4, 748800, Note_on_c, 2, 75, 32
4, 752640, Note_off_c, 2, 79, 64
4, 752640, Note_on_c, 2, 77, 32
4, 754560, Note_off_c, 2, 75, 64
4, 754560, Note_on_c, 2, 74, 32
4, 756480, Note_off_c, 2, 77, 64
4, 756480, Note_off_c, 2, 74, 64
4, 756480, Note_on_c, 2, 67, 80
4, 756480, Note_on_c, 2, 70, 80
4, 759936, Note_off_c, 2, 70, 64
4, 759936, Note_off_c, 2, 67, 64
4, 760320, Note_on_c, 2, 67, 80
4, 760320, Note_on_c, 2, 70, 80
4, 761856, Note_off_c, 2, 70, 64
4, 761856, Note_off_c, 2, 67, 64
4, 762240, Note_on_c, 2, 67, 80
4, 762240, Note_on_c, 2, 70, 80
4, 762624, Note_off_c, 2, 70, 64
4, 762624, Note_off_c, 2, 67, 64
4, 763200, Note_on_c, 2, 67, 80
4, 763200, Note_on_c, 2, 70, 80
4, 763584, Note_off_c, 2, 70, 64
4, 763584, Note_off_c, 2, 67, 64
4, 764160, Note_on_c, 2, 70, 80
4, 764160, Note_on_c, 2, 67, 80
4, 764544, Note_off_c, 2, 67, 64
4, 764544, Note_off_c, 2, 70, 64
4, 771840, Note_on_c, 2, 74, 80
4, 771840, Note_on_c, 2, 77, 80
4, 775296, Note_off_c, 2, 77, 64
4, 775296, Note_off_c, 2, 74, 64
4, 775680, Note_on_c, 2, 77, 80
4, 775680, Note_on_c, 2, 74, 80
4, 777216, Note_off_c, 2, 74, 64
4, 777216, Note_off_c, 2, 77, 64
4, 777600, Note_on_c, 2, 74, 80
4, 777600, Note_on_c, 2, 77, 80
4, 777984, Note_off_c, 2, 77, 64
4, 777984, Note_off_c, 2, 74, 64
4, 778560, Note_on_c, 2, 74, 80
4, 778560, Note_on_c, 2, 77, 80
4, 778944, Note_off_c, 2, 77, 64
4, 778944, Note_off_c, 2, 74, 64
4, 779520, Note_on_c, 2, 77, 80
4, 779520, Note_on_c, 2, 74, 80
4, 779904, Note_off_c, 2, 74, 64
4, 779904, Note_off_c, 2, 77, 64
4, 787200, Note_on_c, 2, 73, 80
4, 787200, Note_on_c, 2, 76, 80
4, 790656, Note_off_c, 2, 76, 64
4, 790656, Note_off_c, 2, 73, 64
4, 791040, Note_on_c, 2, 76, 80
4, 791040, Note_on_c, 2, 73, 80
4, 792576, Note_off_c, 2, 73, 64
4, 792576, Note_off_c, 2, 76, 64
4, 792960, Note_on_c, 2, 73, 80
4, 792960, Note_on_c, 2, 76, 80
4, 793344, Note_off_c, 2, 76, 64
4, 793344, Note_off_c, 2, 73, 64
4, 793920, Note_on_c, 2, 73, 80
4, 793920, Note_on_c, 2, 76, 80
4, 794304, Note_off_c, 2, 76, 64
4, 794304, Note_off_c, 2, 73, 64
4, 794880, Note_on_c, 2, 76, 80
4, 794880, Note_on_c, 2, 67, 80
4, 795264, Note_off_c, 2, 67, 64
4, 795264, Note_off_c, 2, 76, 64
4, 796800, Note_on_c, 2, 67, 80
4, 796800, Note_on_c, 2, 76, 80
4, 797184, Note_off_c, 2, 76, 64
4, 797184, Note_off_c, 2, 67, 64
4, 798720, Note_on_c, 2, 67, 80
4, 798720, Note_on_c, 2, 76, 80
4, 799104, Note_off_c, 2, 76, 64
4, 799104, Note_off_c, 2, 67, 64
4, 800640, Note_on_c, 2, 67, 80
4, 800640, Note_on_c, 2, 76, 80
4, 801024, Note_off_c, 2, 76, 64
4, 801024, Note_off_c, 2, 67, 64
4, 802560, Note_on_c, 2, 67, 80
4, 802560, Note_on_c, 2, 76, 80
4, 802944, Note_off_c, 2, 76, 64
4, 802944, Note_off_c, 2, 67, 64
4, 806400, Note_on_c, 2, 67, 34
4, 806400, Note_on_c, 2, 76, 34
4, 806784, Note_off_c, 2, 76, 64
4, 806784, Note_off_c, 2, 67, 64
4, 810240, Note_on_c, 2, 67, 24
4, 810240, Note_on_c, 2, 76, 24
4, 810624, Note_off_c, 2, 76, 64
4, 810624, Note_off_c, 2, 67, 64
4, 933120, Note_on_c, 2, 74, 80
4, 933120, Note_on_c, 2, 77, 80
4, 938496, Note_off_c, 2, 77, 64
4, 938496, Note_off_c, 2, 74, 64
4, 938880, Note_on_c, 2, 74, 80
4, 938880, Note_on_c, 2, 77, 80
4, 939072, Note_off_c, 2, 77, 64
4, 939072, Note_off_c, 2, 74, 64
4, 940080, Note_on_c, 2, 77, 80
4, 940080, Note_on_c, 2, 74, 80
4, 940272, Note_off_c, 2, 74, 64
4, 940272, Note_off_c, 2, 77, 64
4, 941280, Note_on_c, 2, 74, 80
4, 941280, Note_on_c, 2, 77, 80
4, 941472, Note_off_c, 2, 77, 64
4, 941472, Note_off_c, 2, 74, 64
4, 941760, Note_on_c, 2, 82, 72
4, 941760, Note_on_c, 2, 70, 72
4, 941952, Note_off_c, 2, 70, 64
4, 941952, Note_off_c, 2, 82, 64
4, 942240, Note_on_c, 2, 65, 72
4, 942240, Note_on_c, 2, 77, 72
4, 942432, Note_off_c, 2, 77, 64
4, 942432, Note_off_c, 2, 65, 64
4, 942720, Note_on_c, 2, 82, 72
4, 942720, Note_on_c, 2, 70, 72
4, 942912, Note_off_c, 2, 70, 64
4, 942912, Note_off_c, 2, 82, 64
4, 943200, Note_on_c, 2, 62, 72
4, 943200, Note_on_c, 2, 74, 72
4, 943392, Note_off_c, 2, 74, 64
4, 943392, Note_off_c, 2, 62, 64
4, 943680, Note_on_c, 2, 77, 72
4, 943680, Note_on_c, 2, 65, 72
4, 943872, Note_off_c, 2, 65, 64
4, 943872, Note_off_c, 2, 77, 64
4, 944160, Note_on_c, 2, 58, 72
4, 944160, Note_on_c, 2, 70, 72
4, 944352, Note_off_c, 2, 70, 64
4, 944352, Note_off_c, 2, 58, 64
4, 944640, Note_on_c, 2, 74, 72
4, 944640, Note_on_c, 2, 62, 72
4, 944832, Note_off_c, 2, 62, 64
4, 944832, Note_off_c, 2, 74, 64
4, 945120, Note_on_c, 2, 55, 72
4, 945120, Note_on_c, 2, 67, 72
4, 945312, Note_off_c, 2, 67, 64
4, 945312, Note_off_c, 2, 55, 64
4, 945600, Note_on_c, 2, 75, 72
4, 945600, Note_on_c, 2, 63, 72
4, 945792, Note_off_c, 2, 63, 64
4, 945792, Note_off_c, 2, 75, 64
4, 946080, Note_on_c, 2, 72, 72
4, 946080, Note_on_c, 2, 60, 72
4, 946272, Note_off_c, 2, 60, 64
4, 946272, Note_off_c, 2, 72, 64
4, 946560, Note_on_c, 2, 58, 72
4, 946560, Note_on_c, 2, 70, 72
4, 946752, Note_off_c, 2, 70, 64
4, 946752, Note_off_c, 2, 58, 64
4, 947040, Note_on_c, 2, 57, 72
4, 947040, Note_on_c, 2, 69, 72
4, 947232, Note_off_c, 2, 69, 64
4, 947232, Note_off_c, 2, 57, 64
4, 947520, Note_on_c, 2, 65, 72
4, 947520, Note_on_c, 2, 77, 72
4, 947712, Note_off_c, 2, 77, 64
4, 947712, Note_off_c, 2, 65, 64
4, 948000, Note_on_c, 2, 75, 72
4, 948000, Note_on_c, 2, 63, 72
4, 948192, Note_off_c, 2, 63, 64
4, 948192, Note_off_c, 2, 75, 64
4, 948480, Note_on_c, 2, 72, 72
4, 948480, Note_on_c, 2, 60, 72
4, 948672, Note_off_c, 2, 60, 64
4, 948672, Note_off_c, 2, 72, 64
4, 948960, Note_on_c, 2, 70, 72
4, 948960, Note_on_c, 2, 58, 72
4, 949186, Note_off_c, 2, 58, 64
4, 949186, Note_off_c, 2, 70, 64
4, 949200, Note_on_c, 2, 70, 40
4, 952800, Note_off_c, 2, 70, 64
4, 952800, Note_on_c, 2, 75, 40
4, 956640, Note_off_c, 2, 75, 64
4, 956640, Note_on_c, 2, 74, 40
4, 957024, Note_off_c, 2, 74, 64
4, 957120, Note_on_c, 2, 70, 40
4, 957120, Note_on_c, 2, 74, 40
4, 957600, Note_off_c, 2, 74, 64
4, 957600, Note_off_c, 2, 70, 64
4, 957600, Note_on_c, 2, 69, 40
4, 957600, Note_on_c, 2, 72, 40
4, 958080, Note_off_c, 2, 72, 64
4, 958080, Note_off_c, 2, 69, 64
4, 958080, Note_on_c, 2, 67, 40
4, 958080, Note_on_c, 2, 70, 40
4, 958560, Note_off_c, 2, 70, 64
4, 958560, Note_off_c, 2, 67, 64
4, 958560, Note_on_c, 2, 65, 40
4, 958560, Note_on_c, 2, 69, 40
4, 959040, Note_off_c, 2, 69, 64
4, 959040, Note_off_c, 2, 65, 64
4, 959040, Note_on_c, 2, 63, 40
4, 959040, Note_on_c, 2, 67, 40
4, 959520, Note_off_c, 2, 67, 64
4, 959520, Note_off_c, 2, 63, 64
4, 959520, Note_on_c, 2, 62, 40
4, 959520, Note_on_c, 2, 65, 40
4, 960000, Note_off_c, 2, 65, 64
4, 960000, Note_off_c, 2, 62, 64
4, 960000, Note_on_c, 2, 63, 40
4, 960000, Note_on_c, 2, 67, 40
4, 960480, Note_off_c, 2, 67, 64
4, 960480, Note_off_c, 2, 63, 64
4, 960480, Note_on_c, 2, 60, 40
4, 960480, Note_on_c, 2, 63, 40
4, 964800, Note_off_c, 2, 63, 64
4, 964800, Note_off_c, 2, 60, 64
4, 968160, Note_on_c, 2, 70, 89
4, 968160, Note_on_c, 2, 58, 89
4, 971616, Note_off_c, 2, 58, 64
4, 971616, Note_off_c, 2, 70, 64
4, 972000, Note_on_c, 2, 75, 89
4, 972000, Note_on_c, 2, 63, 89
4, 973536, Note_off_c, 2, 63, 64
4, 973536, Note_off_c, 2, 75, 64
4, 973920, Note_on_c, 2, 77, 89
4, 973920, Note_on_c, 2, 65, 89
4, 975720, Note_off_c, 2, 65, 64
4, 975720, Note_off_c, 2, 77, 64
4, 975840, Note_on_c, 2, 62, 89
4, 975840, Note_on_c, 2, 74, 89
4, 978336, Note_off_c, 2, 74, 64
4, 978336, Note_off_c, 2, 62, 64
4, 978720, Note_on_c, 2, 67, 89
4, 978720, Note_on_c, 2, 79, 89
4, 979620, Note_off_c, 2, 79, 64
4, 979620, Note_off_c, 2, 67, 64
4, 979680, Note_on_c, 2, 75, 89
4, 979680, Note_on_c, 2, 63, 89
4, 981480, Note_off_c, 2, 63, 64
4, 981480, Note_off_c, 2, 75, 64
4, 981600, Note_on_c, 2, 68, 102
4, 981600, Note_on_c, 2, 80, 102
4, 983400, Note_off_c, 2, 80, 64
4, 983400, Note_off_c, 2, 68, 64
4, 983520, Note_on_c, 2, 65, 102
4, 983520, Note_on_c, 2, 77, 102
4, 986016, Note_off_c, 2, 77, 64
4, 986016, Note_off_c, 2, 65, 64
4, 986400, Note_on_c, 2, 65, 102
4, 986400, Note_on_c, 2, 70, 102
4, 987168, Note_off_c, 2, 70, 64
4, 987168, Note_off_c, 2, 65, 64
4, 987360, Note_on_c, 2, 67, 102
4, 987360, Note_on_c, 2, 70, 102
4, 988128, Note_off_c, 2, 70, 64
4, 988128, Note_off_c, 2, 67, 64
4, 988320, Note_on_c, 2, 72, 102
4, 988320, Note_on_c, 2, 67, 102
4, 989088, Note_off_c, 2, 67, 64
4, 989088, Note_off_c, 2, 72, 64
4, 989280, Note_on_c, 2, 69, 102
4, 989280, Note_on_c, 2, 72, 102
4, 990048, Note_off_c, 2, 72, 64
4, 990048, Note_off_c, 2, 69, 64
4, 990240, Note_on_c, 2, 69, 102
4, 990240, Note_on_c, 2, 74, 102
4, 991008, Note_off_c, 2, 74, 64
4, 991008, Note_off_c, 2, 69, 64
4, 991200, Note_on_c, 2, 74, 102
4, 991200, Note_on_c, 2, 70, 102
4, 991968, Note_off_c, 2, 70, 64
4, 991968, Note_off_c, 2, 74, 64
4, 992160, Note_on_c, 2, 70, 102
4, 992160, Note_on_c, 2, 75, 102
4, 992928, Note_off_c, 2, 75, 64
4, 992928, Note_off_c, 2, 70, 64
4, 993120, Note_on_c, 2, 72, 102
4, 993120, Note_on_c, 2, 75, 102
4, 993888, Note_off_c, 2, 75, 64
4, 993888, Note_off_c, 2, 72, 64
4, 994080, Note_on_c, 2, 72, 102
4, 994080, Note_on_c, 2, 77, 102
4, 994848, Note_off_c, 2, 77, 64
4, 994848, Note_off_c, 2, 72, 64
4, 995040, Note_on_c, 2, 70, 96
4, 995232, Note_off_c, 2, 70, 64
4, 995520, Note_on_c, 2, 72, 96
4, 995712, Note_off_c, 2, 72, 64
4, 996000, Note_on_c, 2, 74, 96
4, 996192, Note_off_c, 2, 74, 64
4, 996480, Note_on_c, 2, 75, 96
4, 996672, Note_off_c, 2, 75, 64
4, 996960, Note_on_c, 2, 77, 96
4, 997152, Note_off_c, 2, 77, 64
4, 997440, Note_on_c, 2, 75, 96
4, 997632, Note_off_c, 2, 75, 64
4, 997920, Note_on_c, 2, 74, 96
4, 998112, Note_off_c, 2, 74, 64
4, 998400, Note_on_c, 2, 72, 96
4, 998592, Note_off_c, 2, 72, 64
4, 998880, Note_on_c, 2, 70, 96
4, 999072, Note_off_c, 2, 70, 64
4, 999360, Note_on_c, 2, 69, 96
4, 999552, Note_off_c, 2, 69, 64
4, 999840, Note_on_c, 2, 67, 96
4, 1000032, Note_off_c, 2, 67, 64
4, 1000320, Note_on_c, 2, 65, 96
4, 1000512, Note_off_c, 2, 65, 64
4, 1000800, Note_on_c, 2, 63, 96
4, 1000992, Note_off_c, 2, 63, 64
4, 1001280, Note_on_c, 2, 62, 96
4, 1001472, Note_off_c, 2, 62, 64
4, 1001760, Note_on_c, 2, 60, 96
4, 1001952, Note_off_c, 2, 60, 64
4, 1002240, Note_on_c, 2, 58, 96
4, 1002432, Note_off_c, 2, 58, 64
4, 1002720, Note_on_c, 2, 53, 104
4, 1002720, Note_on_c, 2, 65, 104
4, 1002912, Note_off_c, 2, 65, 64
4, 1002912, Note_off_c, 2, 53, 64
4, 1003200, Note_on_c, 2, 69, 64
4, 1003200, Note_on_c, 2, 72, 64
4, 1003968, Note_off_c, 2, 72, 64
4, 1003968, Note_off_c, 2, 69, 64
4, 1004160, Note_on_c, 2, 70, 64
4, 1004160, Note_on_c, 2, 73, 64
4, 1005024, Note_off_c, 2, 73, 64
4, 1005024, Note_off_c, 2, 70, 64
4, 1005120, Note_on_c, 2, 75, 64
4, 1005120, Note_on_c, 2, 72, 64
4, 1005888, Note_off_c, 2, 72, 64
4, 1005888, Note_off_c, 2, 75, 64
4, 1006080, Note_on_c, 2, 70, 64
4, 1006080, Note_on_c, 2, 67, 64
4, 1006944, Note_off_c, 2, 67, 64
4, 1006944, Note_off_c, 2, 70, 64
4, 1007040, Note_on_c, 2, 72, 64
4, 1007040, Note_on_c, 2, 69, 64
4, 1007808, Note_off_c, 2, 69, 64
4, 1007808, Note_off_c, 2, 72, 64
4, 1008000, Note_on_c, 2, 70, 64
4, 1008000, Note_on_c, 2, 73, 64
4, 1008864, Note_off_c, 2, 73, 64
4, 1008864, Note_off_c, 2, 70, 64
4, 1008960, Note_on_c, 2, 70, 64
4, 1008960, Note_on_c, 2, 73, 104
4, 1009920, Note_off_c, 2, 73, 64
4, 1009920, Note_off_c, 2, 70, 64
4, 1009920, Note_on_c, 2, 69, 64
4, 1009920, Note_on_c, 2, 72, 64
4, 1010304, Note_off_c, 2, 72, 64
4, 1010304, Note_off_c, 2, 69, 64
4, 1010400, Note_on_c, 2, 72, 51
4, 1010400, Note_on_c, 2, 69, 51
4, 1010784, Note_off_c, 2, 69, 64
4, 1010784, Note_off_c, 2, 72, 64
4, 1010880, Note_on_c, 2, 77, 64
4, 1011648, Note_off_c, 2, 77, 64
4, 1011840, Note_on_c, 2, 77, 64
4, 1012704, Note_off_c, 2, 77, 64
4, 1012800, Note_on_c, 2, 77, 64
4, 1013568, Note_off_c, 2, 77, 64
4, 1013760, Note_on_c, 2, 77, 64
4, 1014624, Note_off_c, 2, 77, 64
4, 1014720, Note_on_c, 2, 77, 64
4, 1015488, Note_off_c, 2, 77, 64
4, 1015680, Note_on_c, 2, 77, 64
4, 1016544, Note_off_c, 2, 77, 64
4, 1016640, Note_on_c, 2, 79, 64
4, 1017600, Note_off_c, 2, 79, 64
4, 1017600, Note_on_c, 2, 77, 64
4, 1017984, Note_off_c, 2, 77, 64
4, 1029600, Note_on_c, 2, 77, 56
4, 1029840, Note_off_c, 2, 77, 64
4, 1029840, Note_on_c, 2, 74, 56
4, 1030080, Note_off_c, 2, 74, 64
4, 1030080, Note_on_c, 2, 75, 56
4, 1030320, Note_off_c, 2, 75, 64
4, 1030320, Note_on_c, 2, 72, 56
4, 1030560, Note_off_c, 2, 72, 64
4, 1030560, Note_on_c, 2, 70, 56
4, 1030752, Note_off_c, 2, 70, 64
4, 1031040, Note_on_c, 2, 65, 56
4, 1031232, Note_off_c, 2, 65, 64
4, 1031520, Note_on_c, 2, 70, 56
4, 1031712, Note_off_c, 2, 70, 64
4, 1032000, Note_on_c, 2, 72, 56
4, 1032192, Note_off_c, 2, 72, 64
4, 1032480, Note_on_c, 2, 74, 56
4, 1032672, Note_off_c, 2, 74, 64
4, 1032960, Note_on_c, 2, 74, 56
4, 1033152, Note_off_c, 2, 74, 64
4, 1033440, Note_on_c, 2, 74, 28
4, 1036512, Note_off_c, 2, 74, 64
4, 1036800, Note_on_c, 2, 67, 28
4, 1036800, Note_on_c, 2, 70, 28
4, 1037280, Note_off_c, 2, 70, 64
4, 1037280, Note_off_c, 2, 67, 64
4, 1037280, Note_on_c, 2, 66, 28
4, 1037280, Note_on_c, 2, 69, 28
4, 1039200, Note_off_c, 2, 69, 64
4, 1039200, Note_off_c, 2, 66, 64
4, 1039200, Note_on_c, 2, 67, 28
4, 1039200, Note_on_c, 2, 70, 28
4, 1041120, Note_off_c, 2, 70, 64
4, 1041120, Note_off_c, 2, 67, 64
4, 1041120, Note_on_c, 2, 72, 28
4, 1041120, Note_on_c, 2, 69, 28
4, 1043040, Note_off_c, 2, 69, 64
4, 1043040, Note_off_c, 2, 72, 64
4, 1043040, Note_on_c, 2, 70, 28
4, 1043040, Note_on_c, 2, 67, 28
4, 1044960, Note_off_c, 2, 67, 64
4, 1044960, Note_off_c, 2, 70, 64
4, 1044960, Note_on_c, 2, 66, 28
4, 1044960, Note_on_c, 2, 69, 28
4, 1045410, Note_off_c, 2, 69, 64
4, 1045410, Note_off_c, 2, 66, 64
4, 1073760, Note_on_c, 2, 72, 60
4, 1073760, Note_on_c, 2, 69, 60
4, 1074240, Note_off_c, 2, 69, 64
4, 1074240, Note_off_c, 2, 72, 64
4, 1074720, Note_on_c, 2, 69, 80
4, 1074720, Note_on_c, 2, 72, 80
4, 1075200, Note_off_c, 2, 72, 64
4, 1075200, Note_off_c, 2, 69, 64
4, 1075680, Note_on_c, 2, 69, 80
4, 1075680, Note_on_c, 2, 72, 80
4, 1076160, Note_off_c, 2, 72, 64
4, 1076160, Note_off_c, 2, 69, 64
4, 1076640, Note_on_c, 2, 69, 80
4, 1076640, Note_on_c, 2, 72, 80
4, 1077120, Note_off_c, 2, 72, 64
4, 1077120, Note_off_c, 2, 69, 64
4, 1077600, Note_on_c, 2, 69, 80
4, 1077600, Note_on_c, 2, 72, 80
4, 1078080, Note_off_c, 2, 72, 64
4, 1078080, Note_off_c, 2, 69, 64
4, 1078560, Note_on_c, 2, 69, 80
4, 1078560, Note_on_c, 2, 72, 80
4, 1079040, Note_off_c, 2, 72, 64
4, 1079040, Note_off_c, 2, 69, 64
4, 1079520, Note_on_c, 2, 74, 80
4, 1079520, Note_on_c, 2, 77, 80
4, 1079712, Note_off_c, 2, 77, 64
4, 1079712, Note_off_c, 2, 74, 64
4, 1081440, Note_on_c, 2, 70, 80
4, 1081440, Note_on_c, 2, 79, 80
4, 1081632, Note_off_c, 2, 79, 64
4, 1081632, Note_off_c, 2, 70, 64
4, 1083360, Note_on_c, 2, 74, 80
4, 1083360, Note_on_c, 2, 70, 80
4, 1083552, Note_off_c, 2, 70, 64
4, 1083552, Note_off_c, 2, 74, 64
4, 1084800, Note_on_c, 2, 74, 80
4, 1084800, Note_on_c, 2, 70, 80
4, 1084992, Note_off_c, 2, 70, 64
4, 1084992, Note_off_c, 2, 74, 64
4, 1085280, Note_on_c, 2, 72, 80
4, 1085280, Note_on_c, 2, 69, 80
4, 1085472, Note_off_c, 2, 69, 64
4, 1085472, Note_off_c, 2, 72, 64
4, 1085760, Note_on_c, 2, 69, 80
4, 1085760, Note_on_c, 2, 72, 80
4, 1085952, Note_off_c, 2, 72, 64
4, 1085952, Note_off_c, 2, 69, 64
4, 1086240, Note_on_c, 2, 72, 80
4, 1086240, Note_on_c, 2, 69, 80
4, 1086432, Note_off_c, 2, 69, 64
4, 1086432, Note_off_c, 2, 72, 64
4, 1086720, Note_on_c, 2, 72, 80
4, 1086720, Note_on_c, 2, 69, 80
4, 1086912, Note_off_c, 2, 69, 64
4, 1086912, Note_off_c, 2, 72, 64
4, 1087200, Note_on_c, 2, 70, 80
4, 1087200, Note_on_c, 2, 74, 80
4, 1087392, Note_off_c, 2, 74, 64
4, 1087392, Note_off_c, 2, 70, 64
4, 1088160, Note_on_c, 2, 70, 80
4, 1088160, Note_on_c, 2, 72, 80
4, 1088352, Note_off_c, 2, 72, 64
4, 1088352, Note_off_c, 2, 70, 64
4, 1089120, Note_on_c, 2, 74, 80
4, 1089120, Note_on_c, 2, 70, 80
4, 1089312, Note_off_c, 2, 70, 64
4, 1089312, Note_off_c, 2, 74, 64
4, 1090080, Note_on_c, 2, 69, 80
4, 1090080, Note_on_c, 2, 72, 80
4, 1090272, Note_off_c, 2, 72, 64
4, 1090272, Note_off_c, 2, 69, 64
4, 1091040, Note_on_c, 2, 74, 70
4, 1091520, Note_off_c, 2, 74, 64
4, 1091520, Note_on_c, 2, 75, 50
4, 1092000, Note_off_c, 2, 75, 64
4, 1092000, Note_on_c, 2, 77, 50
4, 1092480, Note_off_c, 2, 77, 64
4, 1092480, Note_on_c, 2, 65, 50
4, 1092960, Note_off_c, 2, 65, 64
4, 1092960, Note_on_c, 2, 70, 50
4, 1094400, Note_off_c, 2, 70, 64
4, 1094400, Note_on_c, 2, 72, 50
4, 1094880, Note_off_c, 2, 72, 64
4, 1094880, Note_on_c, 2, 74, 50
4, 1095360, Note_off_c, 2, 74, 64
4, 1095360, Note_on_c, 2, 70, 50
4, 1095840, Note_off_c, 2, 70, 64
4, 1095840, Note_on_c, 2, 74, 50
4, 1096320, Note_off_c, 2, 74, 64
4, 1096320, Note_on_c, 2, 75, 50
4, 1096800, Note_off_c, 2, 75, 64
4, 1096800, Note_on_c, 2, 77, 50
4, 1098240, Note_off_c, 2, 77, 64
4, 1098240, Note_on_c, 2, 79, 50
4, 1098720, Note_off_c, 2, 79, 64
4, 1098720, Note_on_c, 2, 81, 50
4, 1099200, Note_off_c, 2, 81, 64
4, 1099200, Note_on_c, 2, 82, 50
4, 1099680, Note_off_c, 2, 82, 64
4, 1099680, Note_on_c, 2, 84, 50
4, 1100160, Note_off_c, 2, 84, 64
4, 1100160, Note_on_c, 2, 82, 50
4, 1100640, Note_off_c, 2, 82, 64
4, 1100640, Note_on_c, 2, 81, 50
4, 1102080, Note_off_c, 2, 81, 64
4, 1102080, Note_on_c, 2, 79, 50
4, 1102560, Note_off_c, 2, 79, 64
4, 1102560, Note_on_c, 2, 77, 50
4, 1103040, Note_off_c, 2, 77, 64
4, 1103040, Note_on_c, 2, 79, 50
4, 1103520, Note_off_c, 2, 79, 64
4, 1103520, Note_on_c, 2, 75, 50
4, 1104000, Note_off_c, 2, 75, 64
4, 1104000, Note_on_c, 2, 72, 50
4, 1104480, Note_off_c, 2, 72, 64
4, 1104480, Note_on_c, 2, 69, 50
4, 1106280, Note_off_c, 2, 69, 64
4, 1122240, Note_on_c, 2, 79, 40
4, 1122720, Note_off_c, 2, 79, 64
4, 1122720, Note_on_c, 2, 75, 40
4, 1123200, Note_off_c, 2, 75, 64
4, 1123200, Note_on_c, 2, 72, 40
4, 1123584, Note_off_c, 2, 72, 64
4, 1123680, Note_on_c, 2, 69, 40
4, 1124064, Note_off_c, 2, 69, 64
4, 1129440, Note_on_c, 2, 74, 62
4, 1129440, Note_on_c, 2, 77, 62
4, 1129680, Note_off_c, 2, 77, 64
4, 1129680, Note_off_c, 2, 74, 64
4, 1130880, Note_on_c, 2, 74, 62
4, 1130880, Note_on_c, 2, 82, 62
4, 1131072, Note_off_c, 2, 82, 64
4, 1131072, Note_off_c, 2, 74, 64
4, 1131360, Note_on_c, 2, 72, 62
4, 1131360, Note_on_c, 2, 79, 62
4, 1131600, Note_off_c, 2, 79, 64
4, 1131600, Note_off_c, 2, 72, 64
4, 1132320, Note_on_c, 2, 72, 62
4, 1132320, Note_on_c, 2, 77, 62
4, 1132560, Note_off_c, 2, 77, 64
4, 1132560, Note_off_c, 2, 72, 64
4, 1137120, Note_on_c, 2, 74, 62
4, 1137120, Note_on_c, 2, 77, 62
4, 1137360, Note_off_c, 2, 77, 64
4, 1137360, Note_off_c, 2, 74, 64
4, 1138560, Note_on_c, 2, 82, 62
4, 1138560, Note_on_c, 2, 74, 62
4, 1138752, Note_off_c, 2, 74, 64
4, 1138752, Note_off_c, 2, 82, 64
4, 1139040, Note_on_c, 2, 72, 62
4, 1139040, Note_on_c, 2, 79, 62
4, 1139280, Note_off_c, 2, 79, 64
4, 1139280, Note_off_c, 2, 72, 64
4, 1140000, Note_on_c, 2, 77, 62
4, 1140000, Note_on_c, 2, 72, 62
4, 1140240, Note_off_c, 2, 72, 64
4, 1140240, Note_off_c, 2, 77, 64
4, 1142880, Note_on_c, 2, 64, 40
4, 1144724, Note_off_c, 2, 64, 64
4, 1144800, Note_on_c, 2, 64, 51
4, 1146644, Note_off_c, 2, 64, 64
4, 1146720, Note_on_c, 2, 65, 62
4, 1148564, Note_off_c, 2, 65, 64
4, 1148640, Note_on_c, 2, 67, 73
4, 1150484, Note_off_c, 2, 67, 64
4, 1150560, Note_on_c, 2, 69, 84
4, 1152404, Note_off_c, 2, 69, 64
4, 1152480, Note_on_c, 2, 70, 80
4, 1152480, Note_on_c, 2, 76, 80
4, 1155936, Note_off_c, 2, 76, 64
4, 1155936, Note_off_c, 2, 70, 64
4, 1156320, Note_on_c, 2, 77, 80
4, 1156320, Note_on_c, 2, 70, 80
4, 1157856, Note_off_c, 2, 70, 64
4, 1157856, Note_off_c, 2, 77, 64
4, 1158240, Note_on_c, 2, 69, 80
4, 1158240, Note_on_c, 2, 72, 80
4, 1159776, Note_off_c, 2, 72, 64
4, 1159776, Note_off_c, 2, 69, 64
4, 1160160, Note_on_c, 2, 82, 80
4, 1160160, Note_on_c, 2, 74, 80
4, 1160544, Note_off_c, 2, 74, 64
4, 1160544, Note_off_c, 2, 82, 64
4, 1166400, Note_on_c, 2, 75, 80
4, 1166400, Note_on_c, 2, 72, 80
4, 1167168, Note_off_c, 2, 72, 64
4, 1167168, Note_off_c, 2, 75, 64
4, 1167360, Note_on_c, 2, 72, 80
4, 1167360, Note_on_c, 2, 75, 80
4, 1167600, Note_off_c, 2, 75, 64
4, 1167600, Note_off_c, 2, 72, 64
4, 1167840, Note_on_c, 2, 74, 80
4, 1167840, Note_on_c, 2, 70, 80
4, 1168224, Note_off_c, 2, 70, 64
4, 1168224, Note_off_c, 2, 74, 64
4, 1174080, Note_on_c, 2, 75, 80
4, 1174080, Note_on_c, 2, 72, 80
4, 1174848, Note_off_c, 2, 72, 64
4, 1174848, Note_off_c, 2, 75, 64
4, 1175040, Note_on_c, 2, 75, 80
4, 1175040, Note_on_c, 2, 72, 80
4, 1175280, Note_off_c, 2, 72, 64
4, 1175280, Note_off_c, 2, 75, 64
4, 1175520, Note_on_c, 2, 70, 80
4, 1175520, Note_on_c, 2, 74, 80
4, 1175904, Note_off_c, 2, 74, 64
4, 1175904, Note_off_c, 2, 70, 64
4, 1177920, Note_on_c, 2, 75, 80
4, 1177920, Note_on_c, 2, 65, 80
4, 1178688, Note_off_c, 2, 65, 64
4, 1178688, Note_off_c, 2, 75, 64
4, 1178880, Note_on_c, 2, 75, 80
4, 1178880, Note_on_c, 2, 69, 80
4, 1179120, Note_off_c, 2, 69, 64
4, 1179120, Note_off_c, 2, 75, 64
4, 1179360, Note_on_c, 2, 75, 80
4, 1179360, Note_on_c, 2, 69, 80
4, 1182946, Note_off_c, 2, 69, 64
4, 1182946, Note_off_c, 2, 75, 64
4, 1183080, Note_on_c, 2, 69, 80
4, 1183080, Note_on_c, 2, 75, 80
4, 1183194, Note_off_c, 2, 75, 64
4, 1183194, Note_off_c, 2, 69, 64
4, 1183200, Note_on_c, 2, 69, 80
4, 1183200, Note_on_c, 2, 75, 80
4, 1183392, Note_off_c, 2, 75, 64
4, 1183392, Note_off_c, 2, 69, 64
4, 1185120, Note_on_c, 2, 75, 80
4, 1185120, Note_on_c, 2, 69, 80
4, 1185312, Note_off_c, 2, 69, 64
4, 1185312, Note_off_c, 2, 75, 64
4, 1187040, Note_on_c, 2, 75, 80
4, 1187040, Note_on_c, 2, 69, 80
4, 1187232, Note_off_c, 2, 69, 64
4, 1187232, Note_off_c, 2, 75, 64
4, 1188000, Note_on_c, 2, 69, 80
4, 1188000, Note_on_c, 2, 75, 80
4, 1188192, Note_off_c, 2, 75, 64
4, 1188192, Note_off_c, 2, 69, 64
4, 1188960, Note_on_c, 2, 69, 80
4, 1188960, Note_on_c, 2, 75, 80
4, 1189152, Note_off_c, 2, 75, 64
4, 1189152, Note_off_c, 2, 69, 64
4, 1189920, Note_on_c, 2, 69, 80
4, 1189920, Note_on_c, 2, 75, 80
4, 1190112, Note_off_c, 2, 75, 64
4, 1190112, Note_off_c, 2, 69, 64
4, 1190880, Note_on_c, 2, 70, 80
4, 1190880, Note_on_c, 2, 62, 80
4, 1191072, Note_off_c, 2, 62, 64
4, 1191072, Note_off_c, 2, 70, 64
4, 1192800, Note_on_c, 2, 70, 48
4, 1192800, Note_on_c, 2, 62, 48
4, 1192992, Note_off_c, 2, 62, 64
4, 1192992, Note_off_c, 2, 70, 64
4, 1194720, Note_on_c, 2, 62, 48
4, 1194720, Note_on_c, 2, 70, 48
4, 1194912, Note_off_c, 2, 70, 64
4, 1194912, Note_off_c, 2, 62, 64
4, 1196640, Note_on_c, 2, 62, 48
4, 1196640, Note_on_c, 2, 70, 48
4, 1196832, Note_off_c, 2, 70, 64
4, 1196832, Note_off_c, 2, 62, 64
4, 1198560, Note_on_c, 2, 70, 80
4, 1198560, Note_on_c, 2, 74, 80
4, 1198752, Note_off_c, 2, 74, 64
4, 1198752, Note_off_c, 2, 70, 64
4, 1200480, Note_on_c, 2, 74, 48
4, 1200480, Note_on_c, 2, 70, 48
4, 1200672, Note_off_c, 2, 70, 64
4, 1200672, Note_off_c, 2, 74, 64
4, 1202400, Note_on_c, 2, 70, 48
4, 1202400, Note_on_c, 2, 74, 48
4, 1202592, Note_off_c, 2, 74, 64
4, 1202592, Note_off_c, 2, 70, 64
4, 1204320, Note_on_c, 2, 70, 48
4, 1204320, Note_on_c, 2, 74, 48
4, 1204512, Note_off_c, 2, 74, 64
4, 1204512, Note_off_c, 2, 70, 64
4, 1206720, Note_on_c, 2, 70, 48
4, 1206720, Note_on_c, 2, 74, 48
4, 1207200, Note_off_c, 2, 74, 64
4, 1207200, Note_off_c, 2, 70, 64
4, 1207200, Note_on_c, 2, 69, 48
4, 1207200, Note_on_c, 2, 72, 48
4, 1207680, Note_off_c, 2, 72, 64
4, 1207680, Note_off_c, 2, 69, 64
4, 1207680, Note_on_c, 2, 67, 48
4, 1207680, Note_on_c, 2, 70, 48
4, 1208160, Note_off_c, 2, 70, 64
4, 1208160, Note_off_c, 2, 67, 64
4, 1208160, Note_on_c, 2, 65, 48
4, 1208160, Note_on_c, 2, 69, 48
4, 1208640, Note_off_c, 2, 69, 64
4, 1208640, Note_off_c, 2, 65, 64
4, 1208640, Note_on_c, 2, 67, 48
4, 1208640, Note_on_c, 2, 63, 48
4, 1209120, Note_off_c, 2, 63, 64
4, 1209120, Note_off_c, 2, 67, 64
4, 1209120, Note_on_c, 2, 62, 48
4, 1209120, Note_on_c, 2, 65, 48
4, 1209600, Note_off_c, 2, 65, 64
4, 1209600, Note_off_c, 2, 62, 64
4, 1209600, Note_on_c, 2, 67, 48
4, 1209600, Note_on_c, 2, 63, 48
4, 1210080, Note_off_c, 2, 63, 64
4, 1210080, Note_off_c, 2, 67, 64
4, 1210080, Note_on_c, 2, 60, 76
4, 1210080, Note_on_c, 2, 69, 76
4, 1211616, Note_off_c, 2, 69, 64
4, 1211616, Note_off_c, 2, 60, 64
4, 1212000, Note_on_c, 2, 60, 76
4, 1212000, Note_on_c, 2, 69, 76
4, 1213584, Note_off_c, 2, 69, 64
4, 1213584, Note_off_c, 2, 60, 64
4, 1213800, Note_on_c, 2, 69, 76
4, 1213800, Note_on_c, 2, 60, 76
4, 1213896, Note_off_c, 2, 60, 64
4, 1213896, Note_off_c, 2, 69, 64
4, 1213920, Note_on_c, 2, 62, 76
4, 1213920, Note_on_c, 2, 70, 116
4, 1214112, Note_off_c, 2, 70, 64
4, 1214112, Note_off_c, 2, 62, 64
4, 1214400, Note_on_c, 2, 70, 48
4, 1214400, Note_on_c, 2, 74, 48
4, 1214880, Note_off_c, 2, 74, 64
4, 1214880, Note_off_c, 2, 70, 64
4, 1214880, Note_on_c, 2, 69, 48
4, 1214880, Note_on_c, 2, 72, 48
4, 1215360, Note_off_c, 2, 72, 64
4, 1215360, Note_off_c, 2, 69, 64
4, 1215360, Note_on_c, 2, 70, 48
4, 1215360, Note_on_c, 2, 67, 48
4, 1215840, Note_off_c, 2, 67, 64
4, 1215840, Note_off_c, 2, 70, 64
4, 1215840, Note_on_c, 2, 65, 48
4, 1215840, Note_on_c, 2, 69, 48
4, 1216320, Note_off_c, 2, 69, 64
4, 1216320, Note_off_c, 2, 65, 64
4, 1216320, Note_on_c, 2, 67, 48
4, 1216320, Note_on_c, 2, 63, 48
4, 1216800, Note_off_c, 2, 63, 64
4, 1216800, Note_off_c, 2, 67, 64
4, 1216800, Note_on_c, 2, 65, 48
4, 1216800, Note_on_c, 2, 62, 48
4, 1217280, Note_off_c, 2, 62, 64
4, 1217280, Note_off_c, 2, 65, 64
4, 1217280, Note_on_c, 2, 63, 48
4, 1217280, Note_on_c, 2, 67, 48
4, 1217760, Note_off_c, 2, 67, 64
4, 1217760, Note_off_c, 2, 63, 64
4, 1217760, Note_on_c, 2, 69, 76
4, 1217760, Note_on_c, 2, 60, 76
4, 1219296, Note_off_c, 2, 60, 64
4, 1219296, Note_off_c, 2, 69, 64
4, 1219680, Note_on_c, 2, 69, 76
4, 1219680, Note_on_c, 2, 60, 76
4, 1221264, Note_off_c, 2, 60, 64
4, 1221264, Note_off_c, 2, 69, 64
4, 1221480, Note_on_c, 2, 69, 76
4, 1221480, Note_on_c, 2, 60, 76
4, 1221576, Note_off_c, 2, 60, 64
4, 1221576, Note_off_c, 2, 69, 64
4, 1229280, Note_on_c, 2, 62, 80
4, 1229280, Note_on_c, 2, 70, 80
4, 1232736, Note_off_c, 2, 70, 64
4, 1232736, Note_off_c, 2, 62, 64
4, 1233120, Note_on_c, 2, 69, 75
4, 1233120, Note_on_c, 2, 72, 75
4, 1236576, Note_off_c, 2, 72, 64
4, 1236576, Note_off_c, 2, 69, 64
4, 1236960, Note_on_c, 2, 70, 101
4, 1236960, Note_on_c, 2, 62, 101
4, 1244256, Note_off_c, 2, 62, 64
4, 1244256, Note_off_c, 2, 70, 64
4, 1244640, Note_on_c, 2, 62, 120
4, 1244640, Note_on_c, 2, 70, 120
4, 1244880, Note_off_c, 2, 70, 64
4, 1244880, Note_off_c, 2, 62, 64
4, 1245600, Note_on_c, 2, 62, 120
4, 1245600, Note_on_c, 2, 70, 120
4, 1245840, Note_off_c, 2, 70, 64
4, 1245840, Note_off_c, 2, 62, 64
4, 1246560, Note_on_c, 2, 62, 120
4, 1246560, Note_on_c, 2, 70, 120
4, 1246800, Note_off_c, 2, 70, 64
4, 1246800, Note_off_c, 2, 62, 64
4, 1248480, Note_on_c, 2, 62, 120
4, 1248480, Note_on_c, 2, 70, 120
4, 1248720, Note_off_c, 2, 70, 64
4, 1248720, Note_off_c, 2, 62, 64
4, 1250400, Note_on_c, 2, 58, 80
4, 1250784, Note_off_c, 2, 58, 64
4, 1250784, End_track
5, 0, Start_track
5, 0, Title_t, "Bassoon"
5, 0, MIDI_port, 0
5, 0, Channel_prefix, 3
5, 0, Control_c, 3, 7, 74
5, 0, Control_c, 3, 10, 70
5, 0, Program_c, 3, 70
5, 480, Program_c, 3, 70
5, 480, Control_c, 3, 91, 85
5, 480, Control_c, 3, 7, 90
5, 480, Control_c, 3, 10, 71
5, 5700, Control_c, 3, 7, 75
5, 5760, Note_on_c, 3, 46, 31
5, 5760, Note_on_c, 3, 58, 31
5, 15360, Note_off_c, 3, 58, 64
5, 15360, Note_off_c, 3, 46, 64
5, 15360, Note_on_c, 3, 53, 26
5, 15360, Note_on_c, 3, 41, 26
5, 15552, Note_off_c, 3, 41, 64
5, 15552, Note_off_c, 3, 53, 64
5, 17264, Control_c, 3, 7, 9
5, 17280, Control_c, 3, 7, 10
5, 17292, Control_c, 3, 7, 12
5, 17304, Control_c, 3, 7, 14
5, 17320, Control_c, 3, 7, 15
5, 17332, Control_c, 3, 7, 17
5, 17340, Note_on_c, 3, 66, 27
5, 17344, Control_c, 3, 7, 19
5, 17360, Control_c, 3, 7, 20
5, 17372, Control_c, 3, 7, 22
5, 17384, Control_c, 3, 7, 24
5, 17400, Control_c, 3, 7, 25
5, 17412, Control_c, 3, 7, 27
5, 17424, Control_c, 3, 7, 29
5, 17440, Control_c, 3, 7, 31
5, 17452, Control_c, 3, 7, 32
5, 17464, Control_c, 3, 7, 34
5, 17480, Control_c, 3, 7, 36
5, 17492, Control_c, 3, 7, 37
5, 17504, Control_c, 3, 7, 39
5, 17520, Control_c, 3, 7, 41
5, 17532, Control_c, 3, 7, 42
5, 17544, Control_c, 3, 7, 44
5, 17560, Control_c, 3, 7, 46
5, 17572, Control_c, 3, 7, 47
5, 17584, Control_c, 3, 7, 49
5, 17600, Control_c, 3, 7, 51
5, 17612, Control_c, 3, 7, 53
5, 17624, Control_c, 3, 7, 54
5, 17640, Control_c, 3, 7, 56
5, 17652, Control_c, 3, 7, 58
5, 17664, Control_c, 3, 7, 59
5, 17680, Control_c, 3, 7, 61
5, 17692, Control_c, 3, 7, 63
5, 17704, Control_c, 3, 7, 64
5, 17720, Control_c, 3, 7, 66
5, 17732, Control_c, 3, 7, 68
5, 17744, Control_c, 3, 7, 69
5, 17760, Control_c, 3, 7, 71
5, 17772, Control_c, 3, 7, 73
5, 17784, Control_c, 3, 7, 75
5, 18720, Note_off_c, 3, 66, 64
5, 18720, Note_on_c, 3, 64, 27
5, 19200, Note_off_c, 3, 64, 64
5, 19200, Note_on_c, 3, 65, 27
5, 19440, Note_off_c, 3, 65, 64
5, 24480, Note_on_c, 3, 60, 30
5, 24480, Note_on_c, 3, 57, 30
5, 24672, Note_off_c, 3, 57, 64
5, 24672, Note_off_c, 3, 60, 64
5, 24960, Note_on_c, 3, 57, 30
5, 24960, Note_on_c, 3, 60, 30
5, 25152, Note_off_c, 3, 60, 64
5, 25152, Note_off_c, 3, 57, 64
5, 26400, Note_on_c, 3, 60, 30
5, 26400, Note_on_c, 3, 57, 30
5, 26592, Note_off_c, 3, 57, 64
5, 26592, Note_off_c, 3, 60, 64
5, 26880, Note_on_c, 3, 57, 30
5, 26880, Note_on_c, 3, 60, 30
5, 27072, Note_off_c, 3, 60, 64
5, 27072, Note_off_c, 3, 57, 64
5, 27360, Note_on_c, 3, 57, 30
5, 27360, Note_on_c, 3, 60, 30
5, 27552, Note_off_c, 3, 60, 64
5, 27552, Note_off_c, 3, 57, 64
5, 27840, Note_on_c, 3, 57, 30
5, 27840, Note_on_c, 3, 60, 30
5, 28032, Note_off_c, 3, 60, 64
5, 28032, Note_off_c, 3, 57, 64
5, 28320, Note_on_c, 3, 60, 30
5, 28320, Note_on_c, 3, 57, 30
5, 28512, Note_off_c, 3, 57, 64
5, 28512, Note_off_c, 3, 60, 64
5, 28800, Note_on_c, 3, 58, 30
5, 28800, Note_on_c, 3, 46, 30
5, 38592, Note_off_c, 3, 46, 64
5, 38592, Note_off_c, 3, 58, 64
5, 40320, Control_c, 3, 7, 32
5, 40332, Control_c, 3, 7, 33
5, 40344, Control_c, 3, 7, 34
5, 40360, Control_c, 3, 7, 36
5, 40372, Control_c, 3, 7, 37
5, 40380, Note_on_c, 3, 67, 27
5, 40384, Control_c, 3, 7, 38
5, 40400, Control_c, 3, 7, 40
5, 40412, Control_c, 3, 7, 41
5, 40424, Control_c, 3, 7, 42
5, 40440, Control_c, 3, 7, 44
5, 40452, Control_c, 3, 7, 45
5, 40464, Control_c, 3, 7, 46
5, 40480, Control_c, 3, 7, 48
5, 40492, Control_c, 3, 7, 49
5, 40504, Control_c, 3, 7, 50
5, 40520, Control_c, 3, 7, 52
5, 40532, Control_c, 3, 7, 53
5, 40544, Control_c, 3, 7, 54
5, 40560, Control_c, 3, 7, 56
5, 40572, Control_c, 3, 7, 57
5, 40584, Control_c, 3, 7, 58
5, 40600, Control_c, 3, 7, 60
5, 40612, Control_c, 3, 7, 61
5, 40624, Control_c, 3, 7, 62
5, 40640, Control_c, 3, 7, 64
5, 40652, Control_c, 3, 7, 65
5, 40664, Control_c, 3, 7, 66
5, 40680, Control_c, 3, 7, 68
5, 40692, Control_c, 3, 7, 69
5, 40704, Control_c, 3, 7, 70
5, 40720, Control_c, 3, 7, 72
5, 41760, Note_off_c, 3, 67, 64
5, 41760, Note_on_c, 3, 65, 27
5, 42240, Note_off_c, 3, 65, 64
5, 42240, Note_on_c, 3, 66, 27
5, 42480, Note_off_c, 3, 66, 64
5, 47520, Note_on_c, 3, 42, 30
5, 47520, Note_on_c, 3, 54, 30
5, 47712, Note_off_c, 3, 54, 64
5, 47712, Note_off_c, 3, 42, 64
5, 48000, Note_on_c, 3, 42, 30
5, 48000, Note_on_c, 3, 54, 30
5, 48192, Note_off_c, 3, 54, 64
5, 48192, Note_off_c, 3, 42, 64
5, 49440, Note_on_c, 3, 42, 30
5, 49440, Note_on_c, 3, 54, 30
5, 49632, Note_off_c, 3, 54, 64
5, 49632, Note_off_c, 3, 42, 64
5, 49920, Note_on_c, 3, 42, 30
5, 49920, Note_on_c, 3, 54, 30
5, 50112, Note_off_c, 3, 54, 64
5, 50112, Note_off_c, 3, 42, 64
5, 50400, Note_on_c, 3, 54, 30
5, 50400, Note_on_c, 3, 42, 30
5, 50592, Note_off_c, 3, 42, 64
5, 50592, Note_off_c, 3, 54, 64
5, 50880, Note_on_c, 3, 54, 30
5, 50880, Note_on_c, 3, 42, 30
5, 51072, Note_off_c, 3, 42, 64
5, 51072, Note_off_c, 3, 54, 64
5, 51360, Note_on_c, 3, 42, 30
5, 51360, Note_on_c, 3, 54, 30
5, 51552, Note_off_c, 3, 54, 64
5, 51552, Note_off_c, 3, 42, 64
5, 51840, Note_on_c, 3, 59, 30
5, 51840, Note_on_c, 3, 47, 30
5, 55680, Note_off_c, 3, 47, 64
5, 55680, Note_off_c, 3, 59, 64
5, 55680, Note_on_c, 3, 48, 30
5, 55680, Note_on_c, 3, 60, 30
5, 57600, Note_off_c, 3, 60, 64
5, 57600, Note_off_c, 3, 48, 64
5, 57600, Note_on_c, 3, 61, 30
5, 57600, Note_on_c, 3, 49, 30
5, 59520, Note_off_c, 3, 49, 64
5, 59520, Note_off_c, 3, 61, 64
5, 59520, Note_on_c, 3, 62, 30
5, 59520, Note_on_c, 3, 50, 30
5, 60932, Note_off_c, 3, 50, 64
5, 60932, Note_off_c, 3, 62, 64
5, 60960, Note_on_c, 3, 50, 51
5, 60960, Note_on_c, 3, 62, 51
5, 61912, Control_c, 3, 7, 72
5, 61940, Control_c, 3, 7, 71
5, 61952, Control_c, 3, 7, 70
5, 61980, Control_c, 3, 7, 69
5, 61992, Control_c, 3, 7, 68
5, 62020, Control_c, 3, 7, 67
5, 62032, Control_c, 3, 7, 66
5, 62044, Control_c, 3, 7, 65
5, 62072, Control_c, 3, 7, 64
5, 62084, Control_c, 3, 7, 63
5, 62112, Control_c, 3, 7, 62
5, 62124, Control_c, 3, 7, 61
5, 62140, Control_c, 3, 7, 60
5, 62164, Control_c, 3, 7, 59
5, 62180, Control_c, 3, 7, 58
5, 62204, Control_c, 3, 7, 57
5, 62220, Control_c, 3, 7, 56
5, 62232, Control_c, 3, 7, 55
5, 62260, Control_c, 3, 7, 54
5, 62272, Control_c, 3, 7, 53
5, 62300, Control_c, 3, 7, 52
5, 62312, Control_c, 3, 7, 51
5, 62324, Control_c, 3, 7, 50
5, 62352, Control_c, 3, 7, 49
5, 62364, Control_c, 3, 7, 48
5, 62392, Control_c, 3, 7, 47
5, 62404, Control_c, 3, 7, 46
5, 62420, Control_c, 3, 7, 45
5, 62444, Control_c, 3, 7, 44
5, 62460, Control_c, 3, 7, 43
5, 62484, Control_c, 3, 7, 42
5, 62500, Control_c, 3, 7, 41
5, 62512, Control_c, 3, 7, 40
5, 62540, Control_c, 3, 7, 39
5, 62552, Control_c, 3, 7, 38
5, 62580, Control_c, 3, 7, 37
5, 62592, Control_c, 3, 7, 36
5, 62604, Control_c, 3, 7, 35
5, 62632, Control_c, 3, 7, 34
5, 62644, Control_c, 3, 7, 33
5, 62672, Control_c, 3, 7, 32
5, 62684, Control_c, 3, 7, 31
5, 62700, Control_c, 3, 7, 30
5, 62724, Control_c, 3, 7, 29
5, 62740, Control_c, 3, 7, 28
5, 62764, Control_c, 3, 7, 27
5, 62780, Control_c, 3, 7, 26
5, 62792, Control_c, 3, 7, 25
5, 62820, Control_c, 3, 7, 24
5, 62832, Control_c, 3, 7, 23
5, 62836, Note_off_c, 3, 62, 64
5, 62836, Note_off_c, 3, 50, 64
5, 62860, Control_c, 3, 7, 22
5, 62872, Control_c, 3, 7, 74
5, 62880, Note_on_c, 3, 62, 36
5, 62880, Note_on_c, 3, 50, 36
5, 62884, Control_c, 3, 7, 20
5, 63360, Note_off_c, 3, 50, 64
5, 63360, Note_off_c, 3, 62, 64
5, 63360, Note_on_c, 3, 64, 40
5, 63360, Note_on_c, 3, 52, 40
5, 65280, Note_off_c, 3, 52, 64
5, 65280, Note_off_c, 3, 64, 64
5, 65280, Note_on_c, 3, 45, 40
5, 65280, Note_on_c, 3, 57, 40
5, 69346, Note_off_c, 3, 57, 64
5, 69346, Note_off_c, 3, 45, 64
5, 70080, Note_on_c, 3, 45, 24
5, 70080, Note_on_c, 3, 57, 24
5, 70306, Note_off_c, 3, 57, 64
5, 70306, Note_off_c, 3, 45, 64
5, 71040, Note_on_c, 3, 57, 19
5, 71040, Note_on_c, 3, 45, 19
5, 71266, Note_off_c, 3, 45, 64
5, 71266, Note_off_c, 3, 57, 64
5, 72480, Control_c, 3, 7, 90
5, 72960, Note_on_c, 3, 53, 127
5, 72960, Note_on_c, 3, 41, 127
5, 74736, Note_off_c, 3, 41, 64
5, 74736, Note_off_c, 3, 53, 64
5, 74820, Note_on_c, 3, 53, 127
5, 74820, Note_on_c, 3, 41, 127
5, 74850, Note_off_c, 3, 41, 64
5, 74850, Note_off_c, 3, 53, 64
5, 74880, Note_on_c, 3, 53, 127
5, 74880, Note_on_c, 3, 41, 127
5, 74976, Note_off_c, 3, 41, 64
5, 74976, Note_off_c, 3, 53, 64
5, 76800, Note_on_c, 3, 53, 127
5, 76800, Note_on_c, 3, 41, 127
5, 78576, Note_off_c, 3, 41, 64
5, 78576, Note_off_c, 3, 53, 64
5, 78660, Note_on_c, 3, 41, 127
5, 78660, Note_on_c, 3, 53, 127
5, 78690, Note_off_c, 3, 53, 64
5, 78690, Note_off_c, 3, 41, 64
5, 78720, Note_on_c, 3, 53, 127
5, 78720, Note_on_c, 3, 41, 127
5, 78960, Note_off_c, 3, 41, 64
5, 78960, Note_off_c, 3, 53, 64
5, 80640, Note_on_c, 3, 53, 102
5, 80640, Note_on_c, 3, 41, 102
5, 80880, Note_off_c, 3, 41, 64
5, 80880, Note_off_c, 3, 53, 64
5, 82560, Note_on_c, 3, 41, 102
5, 82560, Note_on_c, 3, 53, 102
5, 82800, Note_off_c, 3, 53, 64
5, 82800, Note_off_c, 3, 41, 64
5, 83520, Note_on_c, 3, 53, 102
5, 83520, Note_on_c, 3, 41, 102
5, 83760, Note_off_c, 3, 41, 64
5, 83760, Note_off_c, 3, 53, 64
5, 84480, Note_on_c, 3, 53, 102
5, 84480, Note_on_c, 3, 41, 102
5, 84720, Note_off_c, 3, 41, 64
5, 84720, Note_off_c, 3, 53, 64
5, 85440, Note_on_c, 3, 41, 102
5, 85440, Note_on_c, 3, 53, 102
5, 85680, Note_off_c, 3, 53, 64
5, 85680, Note_off_c, 3, 41, 64
5, 86400, Note_on_c, 3, 58, 102
5, 86400, Note_on_c, 3, 46, 102
5, 86640, Note_off_c, 3, 46, 64
5, 86640, Note_off_c, 3, 58, 64
5, 94560, Note_on_c, 3, 58, 38
5, 94560, Note_on_c, 3, 62, 38
5, 95040, Note_off_c, 3, 62, 64
5, 95040, Note_off_c, 3, 58, 64
5, 95040, Note_on_c, 3, 60, 38
5, 95040, Note_on_c, 3, 57, 38
5, 95520, Note_off_c, 3, 57, 64
5, 95520, Note_off_c, 3, 60, 64
5, 95520, Note_on_c, 3, 55, 38
5, 95520, Note_on_c, 3, 58, 38
5, 96000, Note_off_c, 3, 58, 64
5, 96000, Note_off_c, 3, 55, 64
5, 96000, Note_on_c, 3, 57, 38
5, 96000, Note_on_c, 3, 53, 38
5, 96480, Note_off_c, 3, 53, 64
5, 96480, Note_off_c, 3, 57, 64
5, 96480, Note_on_c, 3, 55, 38
5, 96480, Note_on_c, 3, 51, 38
5, 96960, Note_off_c, 3, 51, 64
5, 96960, Note_off_c, 3, 55, 64
5, 96960, Note_on_c, 3, 53, 38
5, 96960, Note_on_c, 3, 50, 38
5, 97440, Note_off_c, 3, 50, 64
5, 97440, Note_off_c, 3, 53, 64
5, 97440, Note_on_c, 3, 51, 38
5, 97440, Note_on_c, 3, 55, 38
5, 97920, Note_off_c, 3, 55, 64
5, 97920, Note_off_c, 3, 51, 64
5, 97920, Note_on_c, 3, 53, 38
5, 101760, Note_off_c, 3, 53, 64
5, 101760, Note_on_c, 3, 53, 102
5, 101760, Note_on_c, 3, 41, 102
5, 102000, Note_off_c, 3, 41, 64
5, 102000, Note_off_c, 3, 53, 64
5, 103680, Note_on_c, 3, 41, 102
5, 103680, Note_on_c, 3, 53, 102
5, 103920, Note_off_c, 3, 53, 64
5, 103920, Note_off_c, 3, 41, 64
5, 104640, Note_on_c, 3, 41, 102
5, 104640, Note_on_c, 3, 53, 102
5, 104880, Note_off_c, 3, 53, 64
5, 104880, Note_off_c, 3, 41, 64
5, 105600, Note_on_c, 3, 58, 102
5, 105600, Note_on_c, 3, 46, 102
5, 105840, Note_off_c, 3, 46, 64
5, 105840, Note_off_c, 3, 58, 64
5, 106080, Note_on_c, 3, 58, 67
5, 106272, Note_off_c, 3, 58, 64
5, 106560, Note_on_c, 3, 53, 67
5, 106752, Note_off_c, 3, 53, 64
5, 107040, Note_on_c, 3, 58, 67
5, 107232, Note_off_c, 3, 58, 64
5, 107520, Note_on_c, 3, 50, 67
5, 107712, Note_off_c, 3, 50, 64
5, 108000, Note_on_c, 3, 53, 67
5, 108192, Note_off_c, 3, 53, 64
5, 108480, Note_on_c, 3, 46, 67
5, 108672, Note_off_c, 3, 46, 64
5, 108960, Note_on_c, 3, 50, 67
5, 109152, Note_off_c, 3, 50, 64
5, 109440, Note_on_c, 3, 43, 67
5, 109440, Note_on_c, 3, 55, 67
5, 109632, Note_off_c, 3, 55, 64
5, 109632, Note_off_c, 3, 43, 64
5, 109920, Note_on_c, 3, 63, 67
5, 109920, Note_on_c, 3, 51, 67
5, 110112, Note_off_c, 3, 51, 64
5, 110112, Note_off_c, 3, 63, 64
5, 110400, Note_on_c, 3, 60, 67
5, 110400, Note_on_c, 3, 48, 67
5, 110592, Note_off_c, 3, 48, 64
5, 110592, Note_off_c, 3, 60, 64
5, 110880, Note_on_c, 3, 58, 67
5, 110880, Note_on_c, 3, 46, 67
5, 111072, Note_off_c, 3, 46, 64
5, 111072, Note_off_c, 3, 58, 64
5, 111360, Note_on_c, 3, 45, 67
5, 111360, Note_on_c, 3, 57, 67
5, 111552, Note_off_c, 3, 57, 64
5, 111552, Note_off_c, 3, 45, 64
5, 111840, Note_on_c, 3, 65, 67
5, 111840, Note_on_c, 3, 53, 67
5, 112032, Note_off_c, 3, 53, 64
5, 112032, Note_off_c, 3, 65, 64
5, 112320, Note_on_c, 3, 63, 67
5, 112320, Note_on_c, 3, 51, 67
5, 112512, Note_off_c, 3, 51, 64
5, 112512, Note_off_c, 3, 63, 64
5, 112800, Note_on_c, 3, 60, 67
5, 112800, Note_on_c, 3, 48, 67
5, 112992, Note_off_c, 3, 48, 64
5, 112992, Note_off_c, 3, 60, 64
5, 113280, Note_on_c, 3, 46, 67
5, 113280, Note_on_c, 3, 58, 67
5, 113472, Note_off_c, 3, 58, 64
5, 113472, Note_off_c, 3, 46, 64
5, 113760, Note_on_c, 3, 67, 67
5, 113760, Note_on_c, 3, 58, 67
5, 114240, Note_off_c, 3, 58, 64
5, 114240, Note_off_c, 3, 67, 64
5, 114240, Note_on_c, 3, 57, 67
5, 114240, Note_on_c, 3, 65, 67
5, 114720, Note_off_c, 3, 65, 64
5, 114720, Note_off_c, 3, 57, 64
5, 114720, Note_on_c, 3, 55, 67
5, 114720, Note_on_c, 3, 63, 67
5, 115200, Note_off_c, 3, 63, 64
5, 115200, Note_off_c, 3, 55, 64
5, 115200, Note_on_c, 3, 53, 67
5, 115200, Note_on_c, 3, 62, 67
5, 115680, Note_off_c, 3, 62, 64
5, 115680, Note_off_c, 3, 53, 64
5, 115680, Note_on_c, 3, 60, 67
5, 115680, Note_on_c, 3, 51, 67
5, 116160, Note_off_c, 3, 51, 64
5, 116160, Note_off_c, 3, 60, 64
5, 116160, Note_on_c, 3, 58, 67
5, 116160, Note_on_c, 3, 50, 67
5, 116640, Note_off_c, 3, 50, 64
5, 116640, Note_off_c, 3, 58, 64
5, 116640, Note_on_c, 3, 51, 67
5, 116640, Note_on_c, 3, 60, 67
5, 117120, Note_off_c, 3, 60, 64
5, 117120, Note_off_c, 3, 51, 64
5, 117120, Note_on_c, 3, 53, 67
5, 117120, Note_on_c, 3, 60, 67
5, 121248, Note_off_c, 3, 60, 64
5, 121248, Note_off_c, 3, 53, 64
5, 121920, Note_on_c, 3, 41, 63
5, 121920, Note_on_c, 3, 53, 63
5, 122208, Note_off_c, 3, 53, 64
5, 122208, Note_off_c, 3, 41, 64
5, 123840, Note_on_c, 3, 43, 63
5, 123840, Note_on_c, 3, 55, 63
5, 124128, Note_off_c, 3, 55, 64
5, 124128, Note_off_c, 3, 43, 64
5, 125760, Note_on_c, 3, 36, 63
5, 125760, Note_on_c, 3, 48, 63
5, 126048, Note_off_c, 3, 48, 64
5, 126048, Note_off_c, 3, 36, 64
5, 127680, Note_on_c, 3, 41, 63
5, 127680, Note_on_c, 3, 53, 63
5, 127968, Note_off_c, 3, 53, 64
5, 127968, Note_off_c, 3, 41, 64
5, 128640, Note_on_c, 3, 58, 64
5, 128832, Note_off_c, 3, 58, 64
5, 129120, Note_on_c, 3, 53, 64
5, 129312, Note_off_c, 3, 53, 64
5, 129600, Note_on_c, 3, 50, 64
5, 129792, Note_off_c, 3, 50, 64
5, 130080, Note_on_c, 3, 53, 64
5, 130272, Note_off_c, 3, 53, 64
5, 130560, Note_on_c, 3, 46, 64
5, 130752, Note_off_c, 3, 46, 64
5, 131040, Note_on_c, 3, 53, 64
5, 131232, Note_off_c, 3, 53, 64
5, 131520, Note_on_c, 3, 50, 64
5, 131712, Note_off_c, 3, 50, 64
5, 132000, Note_on_c, 3, 53, 64
5, 132192, Note_off_c, 3, 53, 64
5, 132480, Note_on_c, 3, 58, 64
5, 132672, Note_off_c, 3, 58, 64
5, 132960, Note_on_c, 3, 53, 64
5, 133152, Note_off_c, 3, 53, 64
5, 133440, Note_on_c, 3, 50, 64
5, 133632, Note_off_c, 3, 50, 64
5, 133920, Note_on_c, 3, 53, 64
5, 134112, Note_off_c, 3, 53, 64
5, 134400, Note_on_c, 3, 46, 64
5, 134592, Note_off_c, 3, 46, 64
5, 134880, Note_on_c, 3, 50, 64
5, 135072, Note_off_c, 3, 50, 64
5, 135360, Note_on_c, 3, 53, 64
5, 135552, Note_off_c, 3, 53, 64
5, 135840, Note_on_c, 3, 58, 64
5, 136032, Note_off_c, 3, 58, 64
5, 136320, Note_on_c, 3, 60, 64
5, 136512, Note_off_c, 3, 60, 64
5, 136800, Note_on_c, 3, 57, 64
5, 136992, Note_off_c, 3, 57, 64
5, 137280, Note_on_c, 3, 54, 64
5, 137472, Note_off_c, 3, 54, 64
5, 137760, Note_on_c, 3, 57, 64
5, 137952, Note_off_c, 3, 57, 64
5, 138240, Note_on_c, 3, 51, 64
5, 138432, Note_off_c, 3, 51, 64
5, 138720, Note_on_c, 3, 57, 64
5, 138912, Note_off_c, 3, 57, 64
5, 139200, Note_on_c, 3, 54, 64
5, 139392, Note_off_c, 3, 54, 64
5, 139680, Note_on_c, 3, 57, 64
5, 139872, Note_off_c, 3, 57, 64
5, 140160, Note_on_c, 3, 60, 64
5, 140352, Note_off_c, 3, 60, 64
5, 140640, Note_on_c, 3, 57, 64
5, 140832, Note_off_c, 3, 57, 64
5, 141120, Note_on_c, 3, 54, 64
5, 141312, Note_off_c, 3, 54, 64
5, 141600, Note_on_c, 3, 57, 64
5, 141792, Note_off_c, 3, 57, 64
5, 142080, Note_on_c, 3, 48, 64
5, 142272, Note_off_c, 3, 48, 64
5, 142560, Note_on_c, 3, 51, 64
5, 142752, Note_off_c, 3, 51, 64
5, 143040, Note_on_c, 3, 57, 64
5, 143232, Note_off_c, 3, 57, 64
5, 143520, Note_on_c, 3, 60, 64
5, 143712, Note_off_c, 3, 60, 64
5, 144000, Note_on_c, 3, 62, 74
5, 144192, Note_off_c, 3, 62, 64
5, 144480, Note_on_c, 3, 59, 74
5, 144672, Note_off_c, 3, 59, 64
5, 144960, Note_on_c, 3, 56, 74
5, 145152, Note_off_c, 3, 56, 64
5, 145440, Note_on_c, 3, 59, 74
5, 145632, Note_off_c, 3, 59, 64
5, 145920, Note_on_c, 3, 53, 74
5, 146112, Note_off_c, 3, 53, 64
5, 146400, Note_on_c, 3, 59, 74
5, 146592, Note_off_c, 3, 59, 64
5, 146880, Note_on_c, 3, 56, 74
5, 147072, Note_off_c, 3, 56, 64
5, 147360, Note_on_c, 3, 59, 74
5, 147552, Note_off_c, 3, 59, 64
5, 147840, Note_on_c, 3, 64, 85
5, 148032, Note_off_c, 3, 64, 64
5, 148320, Note_on_c, 3, 61, 85
5, 148512, Note_off_c, 3, 61, 64
5, 148800, Note_on_c, 3, 58, 85
5, 148992, Note_off_c, 3, 58, 64
5, 149280, Note_on_c, 3, 61, 85
5, 149472, Note_off_c, 3, 61, 64
5, 149760, Note_on_c, 3, 52, 85
5, 149952, Note_off_c, 3, 52, 64
5, 150240, Note_on_c, 3, 55, 85
5, 150432, Note_off_c, 3, 55, 64
5, 150720, Note_on_c, 3, 61, 85
5, 150912, Note_off_c, 3, 61, 64
5, 151200, Note_on_c, 3, 64, 85
5, 151392, Note_off_c, 3, 64, 64
5, 151680, Note_on_c, 3, 66, 45
5, 155520, Note_off_c, 3, 66, 64
5, 155520, Note_on_c, 3, 65, 51
5, 159360, Note_off_c, 3, 65, 64
5, 159360, Note_on_c, 3, 58, 89
5, 159360, Note_on_c, 3, 46, 89
5, 162816, Note_off_c, 3, 46, 64
5, 162816, Note_off_c, 3, 58, 64
5, 163200, Note_on_c, 3, 51, 89
5, 163200, Note_on_c, 3, 63, 89
5, 164736, Note_off_c, 3, 63, 64
5, 164736, Note_off_c, 3, 51, 64
5, 165120, Note_on_c, 3, 53, 89
5, 165120, Note_on_c, 3, 65, 89
5, 166920, Note_off_c, 3, 65, 64
5, 166920, Note_off_c, 3, 53, 64
5, 167040, Note_on_c, 3, 62, 62
5, 167040, Note_on_c, 3, 50, 62
5, 170496, Note_off_c, 3, 50, 64
5, 170496, Note_off_c, 3, 62, 64
5, 170880, Note_on_c, 3, 51, 62
5, 170880, Note_on_c, 3, 55, 62
5, 172416, Note_off_c, 3, 55, 64
5, 172416, Note_off_c, 3, 51, 64
5, 172800, Note_on_c, 3, 53, 62
5, 172800, Note_on_c, 3, 57, 62
5, 174600, Note_off_c, 3, 57, 64
5, 174600, Note_off_c, 3, 53, 64
5, 174720, Note_on_c, 3, 46, 62
5, 174720, Note_on_c, 3, 58, 62
5, 176256, Note_off_c, 3, 58, 64
5, 176256, Note_off_c, 3, 46, 64
5, 176640, Note_on_c, 3, 45, 62
5, 176640, Note_on_c, 3, 61, 62
5, 178440, Note_off_c, 3, 61, 64
5, 178440, Note_off_c, 3, 45, 64
5, 178560, Note_on_c, 3, 50, 62
5, 178560, Note_on_c, 3, 62, 62
5, 180096, Note_off_c, 3, 62, 64
5, 180096, Note_off_c, 3, 50, 64
5, 180480, Note_on_c, 3, 48, 104
5, 180480, Note_on_c, 3, 60, 104
5, 180672, Note_off_c, 3, 60, 64
5, 180672, Note_off_c, 3, 48, 64
5, 180960, Note_on_c, 3, 48, 104
5, 180960, Note_on_c, 3, 60, 104
5, 181152, Note_off_c, 3, 60, 64
5, 181152, Note_off_c, 3, 48, 64
5, 181440, Note_on_c, 3, 48, 104
5, 181440, Note_on_c, 3, 60, 104
5, 181632, Note_off_c, 3, 60, 64
5, 181632, Note_off_c, 3, 48, 64
5, 181920, Note_on_c, 3, 48, 104
5, 181920, Note_on_c, 3, 60, 104
5, 182112, Note_off_c, 3, 60, 64
5, 182112, Note_off_c, 3, 48, 64
5, 182400, Note_on_c, 3, 48, 104
5, 182400, Note_on_c, 3, 60, 104
5, 182592, Note_off_c, 3, 60, 64
5, 182592, Note_off_c, 3, 48, 64
5, 182880, Note_on_c, 3, 48, 104
5, 182880, Note_on_c, 3, 60, 104
5, 183072, Note_off_c, 3, 60, 64
5, 183072, Note_off_c, 3, 48, 64
5, 183360, Note_on_c, 3, 60, 104
5, 183360, Note_on_c, 3, 48, 104
5, 183552, Note_off_c, 3, 48, 64
5, 183552, Note_off_c, 3, 60, 64
5, 183840, Note_on_c, 3, 48, 104
5, 183840, Note_on_c, 3, 60, 104
5, 184032, Note_off_c, 3, 60, 64
5, 184032, Note_off_c, 3, 48, 64
5, 184320, Note_on_c, 3, 48, 104
5, 184320, Note_on_c, 3, 60, 104
5, 184512, Note_off_c, 3, 60, 64
5, 184512, Note_off_c, 3, 48, 64
5, 184800, Note_on_c, 3, 48, 104
5, 184800, Note_on_c, 3, 60, 104
5, 184992, Note_off_c, 3, 60, 64
5, 184992, Note_off_c, 3, 48, 64
5, 185280, Note_on_c, 3, 60, 104
5, 185280, Note_on_c, 3, 48, 104
5, 185472, Note_off_c, 3, 48, 64
5, 185472, Note_off_c, 3, 60, 64
5, 185760, Note_on_c, 3, 48, 104
5, 185760, Note_on_c, 3, 60, 104
5, 185952, Note_off_c, 3, 60, 64
5, 185952, Note_off_c, 3, 48, 64
5, 186240, Note_on_c, 3, 48, 104
5, 186240, Note_on_c, 3, 60, 104
5, 186432, Note_off_c, 3, 60, 64
5, 186432, Note_off_c, 3, 48, 64
5, 186720, Note_on_c, 3, 55, 64
5, 186720, Note_on_c, 3, 52, 64
5, 187488, Note_off_c, 3, 52, 64
5, 187488, Note_off_c, 3, 55, 64
5, 187680, Note_on_c, 3, 53, 64
5, 187680, Note_on_c, 3, 56, 64
5, 188544, Note_off_c, 3, 56, 64
5, 188544, Note_off_c, 3, 53, 64
5, 188640, Note_on_c, 3, 58, 64
5, 188640, Note_on_c, 3, 55, 64
5, 189408, Note_off_c, 3, 55, 64
5, 189408, Note_off_c, 3, 58, 64
5, 189600, Note_on_c, 3, 50, 64
5, 189600, Note_on_c, 3, 53, 64
5, 190464, Note_off_c, 3, 53, 64
5, 190464, Note_off_c, 3, 50, 64
5, 190560, Note_on_c, 3, 55, 64
5, 190560, Note_on_c, 3, 52, 64
5, 191328, Note_off_c, 3, 52, 64
5, 191328, Note_off_c, 3, 55, 64
5, 191520, Note_on_c, 3, 56, 64
5, 191520, Note_on_c, 3, 53, 64
5, 192384, Note_off_c, 3, 53, 64
5, 192384, Note_off_c, 3, 56, 64
5, 192480, Note_on_c, 3, 53, 64
5, 192480, Note_on_c, 3, 56, 64
5, 193440, Note_off_c, 3, 56, 64
5, 193440, Note_off_c, 3, 53, 64
5, 193440, Note_on_c, 3, 55, 64
5, 193440, Note_on_c, 3, 52, 64
5, 193824, Note_off_c, 3, 52, 64
5, 193824, Note_off_c, 3, 55, 64
5, 193920, Note_on_c, 3, 52, 51
5, 193920, Note_on_c, 3, 55, 51
5, 194304, Note_off_c, 3, 55, 64
5, 194304, Note_off_c, 3, 52, 64
5, 194400, Note_on_c, 3, 64, 64
5, 194400, Note_on_c, 3, 55, 64
5, 195168, Note_off_c, 3, 55, 64
5, 195168, Note_off_c, 3, 64, 64
5, 195360, Note_on_c, 3, 65, 64
5, 195360, Note_on_c, 3, 56, 64
5, 196224, Note_off_c, 3, 56, 64
5, 196224, Note_off_c, 3, 65, 64
5, 196320, Note_on_c, 3, 67, 64
5, 196320, Note_on_c, 3, 58, 64
5, 197088, Note_off_c, 3, 58, 64
5, 197088, Note_off_c, 3, 67, 64
5, 197280, Note_on_c, 3, 62, 64
5, 197280, Note_on_c, 3, 53, 64
5, 198144, Note_off_c, 3, 53, 64
5, 198144, Note_off_c, 3, 62, 64
5, 198240, Note_on_c, 3, 64, 64
5, 198240, Note_on_c, 3, 55, 64
5, 199008, Note_off_c, 3, 55, 64
5, 199008, Note_off_c, 3, 64, 64
5, 199200, Note_on_c, 3, 56, 64
5, 199200, Note_on_c, 3, 65, 64
5, 200064, Note_off_c, 3, 65, 64
5, 200064, Note_off_c, 3, 56, 64
5, 200160, Note_on_c, 3, 65, 64
5, 200160, Note_on_c, 3, 56, 64
5, 201120, Note_off_c, 3, 56, 64
5, 201120, Note_off_c, 3, 65, 64
5, 201120, Note_on_c, 3, 55, 64
5, 201120, Note_on_c, 3, 64, 64
5, 201504, Note_off_c, 3, 64, 64
5, 201504, Note_off_c, 3, 55, 64
5, 201600, Note_on_c, 3, 55, 64
5, 201600, Note_on_c, 3, 64, 64
5, 201984, Note_off_c, 3, 64, 64
5, 201984, Note_off_c, 3, 55, 64
5, 209280, Note_on_c, 3, 60, 80
5, 209520, Note_off_c, 3, 60, 64
5, 209520, Note_on_c, 3, 57, 80
5, 209760, Note_off_c, 3, 57, 64
5, 209760, Note_on_c, 3, 58, 80
5, 210000, Note_off_c, 3, 58, 64
5, 210000, Note_on_c, 3, 55, 80
5, 210240, Note_off_c, 3, 55, 64
5, 210240, Note_on_c, 3, 53, 80
5, 210432, Note_off_c, 3, 53, 64
5, 210720, Note_on_c, 3, 48, 80
5, 210912, Note_off_c, 3, 48, 64
5, 211200, Note_on_c, 3, 53, 80
5, 211392, Note_off_c, 3, 53, 64
5, 211680, Note_on_c, 3, 55, 80
5, 211872, Note_off_c, 3, 55, 64
5, 212160, Note_on_c, 3, 57, 80
5, 212352, Note_off_c, 3, 57, 64
5, 212640, Note_on_c, 3, 58, 80
5, 212832, Note_off_c, 3, 58, 64
5, 213120, Note_on_c, 3, 60, 80
5, 214020, Note_off_c, 3, 60, 64
5, 228480, Note_on_c, 3, 61, 28
5, 228480, Note_on_c, 3, 64, 28
5, 230400, Note_off_c, 3, 64, 64
5, 230400, Note_off_c, 3, 61, 64
5, 230400, Note_on_c, 3, 62, 28
5, 230400, Note_on_c, 3, 65, 28
5, 232320, Note_off_c, 3, 65, 64
5, 232320, Note_off_c, 3, 62, 64
5, 232320, Note_on_c, 3, 67, 28
5, 232320, Note_on_c, 3, 64, 28
5, 234240, Note_off_c, 3, 64, 64
5, 234240, Note_off_c, 3, 67, 64
5, 234240, Note_on_c, 3, 62, 28
5, 234240, Note_on_c, 3, 65, 28
5, 236160, Note_off_c, 3, 65, 64
5, 236160, Note_off_c, 3, 62, 64
5, 236160, Note_on_c, 3, 57, 28
5, 236610, Note_off_c, 3, 57, 64
5, 257280, Note_on_c, 3, 64, 55
5, 257280, Note_on_c, 3, 60, 55
5, 257760, Note_off_c, 3, 60, 64
5, 257760, Note_off_c, 3, 64, 64
5, 258240, Note_on_c, 3, 64, 58
5, 258240, Note_on_c, 3, 58, 58
5, 258720, Note_off_c, 3, 58, 64
5, 258720, Note_off_c, 3, 64, 64
5, 259200, Note_on_c, 3, 64, 55
5, 259200, Note_on_c, 3, 55, 55
5, 259680, Note_off_c, 3, 55, 64
5, 259680, Note_off_c, 3, 64, 64
5, 260160, Note_on_c, 3, 64, 58
5, 260160, Note_on_c, 3, 52, 58
5, 260640, Note_off_c, 3, 52, 64
5, 260640, Note_off_c, 3, 64, 64
5, 261120, Note_on_c, 3, 48, 55
5, 261120, Note_on_c, 3, 64, 55
5, 261600, Note_off_c, 3, 64, 64
5, 261600, Note_off_c, 3, 48, 64
5, 262080, Note_on_c, 3, 64, 58
5, 262080, Note_on_c, 3, 46, 58
5, 262560, Note_off_c, 3, 46, 64
5, 262560, Note_off_c, 3, 64, 64
5, 263040, Note_on_c, 3, 65, 80
5, 263040, Note_on_c, 3, 45, 80
5, 263232, Note_off_c, 3, 45, 64
5, 263232, Note_off_c, 3, 65, 64
5, 264960, Note_on_c, 3, 58, 80
5, 264960, Note_on_c, 3, 46, 80
5, 265152, Note_off_c, 3, 46, 64
5, 265152, Note_off_c, 3, 58, 64
5, 266880, Note_on_c, 3, 60, 80
5, 266880, Note_on_c, 3, 48, 80
5, 267072, Note_off_c, 3, 48, 64
5, 267072, Note_off_c, 3, 60, 64
5, 268320, Note_on_c, 3, 48, 80
5, 268320, Note_on_c, 3, 60, 80
5, 268512, Note_off_c, 3, 60, 64
5, 268512, Note_off_c, 3, 48, 64
5, 268800, Note_on_c, 3, 46, 80
5, 268800, Note_on_c, 3, 58, 80
5, 268992, Note_off_c, 3, 58, 64
5, 268992, Note_off_c, 3, 46, 64
5, 269280, Note_on_c, 3, 46, 80
5, 269280, Note_on_c, 3, 58, 80
5, 269472, Note_off_c, 3, 58, 64
5, 269472, Note_off_c, 3, 46, 64
5, 269760, Note_on_c, 3, 46, 80
5, 269760, Note_on_c, 3, 58, 80
5, 269952, Note_off_c, 3, 58, 64
5, 269952, Note_off_c, 3, 46, 64
5, 270240, Note_on_c, 3, 58, 80
5, 270240, Note_on_c, 3, 46, 80
5, 270432, Note_off_c, 3, 46, 64
5, 270432, Note_off_c, 3, 58, 64
5, 270720, Note_on_c, 3, 45, 80
5, 270720, Note_on_c, 3, 57, 80
5, 270912, Note_off_c, 3, 57, 64
5, 270912, Note_off_c, 3, 45, 64
5, 271680, Note_on_c, 3, 46, 80
5, 271680, Note_on_c, 3, 58, 80
5, 271872, Note_off_c, 3, 58, 64
5, 271872, Note_off_c, 3, 46, 64
5, 272640, Note_on_c, 3, 48, 80
5, 272640, Note_on_c, 3, 60, 80
5, 272832, Note_off_c, 3, 60, 64
5, 272832, Note_off_c, 3, 48, 64
5, 273600, Note_on_c, 3, 36, 80
5, 273600, Note_on_c, 3, 48, 80
5, 273792, Note_off_c, 3, 48, 64
5, 273792, Note_off_c, 3, 36, 64
5, 276480, Note_on_c, 3, 57, 50
5, 276960, Note_off_c, 3, 57, 64
5, 276960, Note_on_c, 3, 58, 50
5, 277440, Note_off_c, 3, 58, 64
5, 277440, Note_on_c, 3, 60, 50
5, 277920, Note_off_c, 3, 60, 64
5, 277920, Note_on_c, 3, 48, 50
5, 278400, Note_off_c, 3, 48, 64
5, 278400, Note_on_c, 3, 53, 50
5, 279840, Note_off_c, 3, 53, 64
5, 279840, Note_on_c, 3, 55, 50
5, 280320, Note_off_c, 3, 55, 64
5, 280320, Note_on_c, 3, 57, 50
5, 280800, Note_off_c, 3, 57, 64
5, 280800, Note_on_c, 3, 53, 50
5, 281280, Note_off_c, 3, 53, 64
5, 281280, Note_on_c, 3, 57, 50
5, 281760, Note_off_c, 3, 57, 64
5, 281760, Note_on_c, 3, 58, 50
5, 282240, Note_off_c, 3, 58, 64
5, 282240, Note_on_c, 3, 60, 50
5, 283680, Note_off_c, 3, 60, 64
5, 283680, Note_on_c, 3, 62, 50
5, 284160, Note_off_c, 3, 62, 64
5, 284160, Note_on_c, 3, 64, 50
5, 284640, Note_off_c, 3, 64, 64
5, 284640, Note_on_c, 3, 65, 50
5, 285120, Note_off_c, 3, 65, 64
5, 285120, Note_on_c, 3, 67, 50
5, 285600, Note_off_c, 3, 67, 64
5, 285600, Note_on_c, 3, 65, 50
5, 286080, Note_off_c, 3, 65, 64
5, 286080, Note_on_c, 3, 64, 50
5, 287520, Note_off_c, 3, 64, 64
5, 287520, Note_on_c, 3, 62, 50
5, 288000, Note_off_c, 3, 62, 64
5, 288000, Note_on_c, 3, 60, 50
5, 288480, Note_off_c, 3, 60, 64
5, 288480, Note_on_c, 3, 62, 50
5, 288960, Note_off_c, 3, 62, 64
5, 288960, Note_on_c, 3, 58, 50
5, 289440, Note_off_c, 3, 58, 64
5, 289440, Note_on_c, 3, 55, 50
5, 289920, Note_off_c, 3, 55, 64
5, 289920, Note_on_c, 3, 53, 50
5, 290370, Note_off_c, 3, 53, 64
5, 290400, Note_on_c, 3, 60, 56
5, 290400, Note_on_c, 3, 48, 56
5, 290592, Note_off_c, 3, 48, 64
5, 290592, Note_off_c, 3, 60, 64
5, 290880, Note_on_c, 3, 48, 56
5, 290880, Note_on_c, 3, 60, 56
5, 291072, Note_off_c, 3, 60, 64
5, 291072, Note_off_c, 3, 48, 64
5, 291360, Note_on_c, 3, 48, 56
5, 291360, Note_on_c, 3, 60, 56
5, 291552, Note_off_c, 3, 60, 64
5, 291552, Note_off_c, 3, 48, 64
5, 291840, Note_on_c, 3, 48, 56
5, 291840, Note_on_c, 3, 60, 56
5, 293136, Note_off_c, 3, 60, 64
5, 293136, Note_off_c, 3, 48, 64
5, 293280, Note_on_c, 3, 60, 56
5, 293280, Note_on_c, 3, 48, 56
5, 293472, Note_off_c, 3, 48, 64
5, 293472, Note_off_c, 3, 60, 64
5, 293760, Note_on_c, 3, 48, 56
5, 293760, Note_on_c, 3, 60, 56
5, 293952, Note_off_c, 3, 60, 64
5, 293952, Note_off_c, 3, 48, 64
5, 294240, Note_on_c, 3, 48, 56
5, 294240, Note_on_c, 3, 60, 56
5, 294432, Note_off_c, 3, 60, 64
5, 294432, Note_off_c, 3, 48, 64
5, 294720, Note_on_c, 3, 48, 56
5, 294720, Note_on_c, 3, 60, 56
5, 294912, Note_off_c, 3, 60, 64
5, 294912, Note_off_c, 3, 48, 64
5, 295200, Note_on_c, 3, 60, 56
5, 295200, Note_on_c, 3, 48, 56
5, 295392, Note_off_c, 3, 48, 64
5, 295392, Note_off_c, 3, 60, 64
5, 295680, Note_on_c, 3, 48, 56
5, 295680, Note_on_c, 3, 60, 56
5, 296976, Note_off_c, 3, 60, 64
5, 296976, Note_off_c, 3, 48, 64
5, 297120, Note_on_c, 3, 60, 56
5, 297120, Note_on_c, 3, 48, 56
5, 297312, Note_off_c, 3, 48, 64
5, 297312, Note_off_c, 3, 60, 64
5, 297600, Note_on_c, 3, 48, 56
5, 297600, Note_on_c, 3, 60, 56
5, 297792, Note_off_c, 3, 60, 64
5, 297792, Note_off_c, 3, 48, 64
5, 298080, Note_on_c, 3, 48, 56
5, 298080, Note_on_c, 3, 60, 56
5, 298272, Note_off_c, 3, 60, 64
5, 298272, Note_off_c, 3, 48, 64
5, 298560, Note_on_c, 3, 48, 56
5, 298560, Note_on_c, 3, 60, 56
5, 298752, Note_off_c, 3, 60, 64
5, 298752, Note_off_c, 3, 48, 64
5, 299040, Note_on_c, 3, 60, 56
5, 299040, Note_on_c, 3, 48, 56
5, 299232, Note_off_c, 3, 48, 64
5, 299232, Note_off_c, 3, 60, 64
5, 299520, Note_on_c, 3, 48, 56
5, 299520, Note_on_c, 3, 60, 56
5, 300816, Note_off_c, 3, 60, 64
5, 300816, Note_off_c, 3, 48, 64
5, 300960, Note_on_c, 3, 60, 56
5, 300960, Note_on_c, 3, 48, 56
5, 301152, Note_off_c, 3, 48, 64
5, 301152, Note_off_c, 3, 60, 64
5, 301440, Note_on_c, 3, 48, 56
5, 301440, Note_on_c, 3, 60, 56
5, 301632, Note_off_c, 3, 60, 64
5, 301632, Note_off_c, 3, 48, 64
5, 301920, Note_on_c, 3, 48, 56
5, 301920, Note_on_c, 3, 60, 56
5, 302112, Note_off_c, 3, 60, 64
5, 302112, Note_off_c, 3, 48, 64
5, 302400, Note_on_c, 3, 48, 56
5, 302400, Note_on_c, 3, 60, 56
5, 302592, Note_off_c, 3, 60, 64
5, 302592, Note_off_c, 3, 48, 64
5, 302880, Note_on_c, 3, 60, 56
5, 302880, Note_on_c, 3, 48, 56
5, 303072, Note_off_c, 3, 48, 64
5, 303072, Note_off_c, 3, 60, 64
5, 303360, Note_on_c, 3, 48, 56
5, 303360, Note_on_c, 3, 60, 56
5, 305280, Note_off_c, 3, 60, 64
5, 305280, Note_off_c, 3, 48, 64
5, 305760, Note_on_c, 3, 62, 40
5, 306240, Note_off_c, 3, 62, 64
5, 306240, Note_on_c, 3, 58, 40
5, 306720, Note_off_c, 3, 58, 64
5, 306720, Note_on_c, 3, 55, 40
5, 307104, Note_off_c, 3, 55, 64
5, 307200, Note_on_c, 3, 52, 40
5, 307584, Note_off_c, 3, 52, 64
5, 312960, Note_on_c, 3, 41, 62
5, 312960, Note_on_c, 3, 53, 62
5, 313200, Note_off_c, 3, 53, 64
5, 313200, Note_off_c, 3, 41, 64
5, 314400, Note_on_c, 3, 50, 62
5, 314592, Note_off_c, 3, 50, 64
5, 314880, Note_on_c, 3, 46, 62
5, 315120, Note_off_c, 3, 46, 64
5, 315840, Note_on_c, 3, 48, 62
5, 316080, Note_off_c, 3, 48, 64
5, 320640, Note_on_c, 3, 41, 62
5, 320640, Note_on_c, 3, 53, 62
5, 320880, Note_off_c, 3, 53, 64
5, 320880, Note_off_c, 3, 41, 64
5, 322080, Note_on_c, 3, 50, 62
5, 322272, Note_off_c, 3, 50, 64
5, 322560, Note_on_c, 3, 46, 62
5, 322800, Note_off_c, 3, 46, 64
5, 323520, Note_on_c, 3, 48, 62
5, 323760, Note_off_c, 3, 48, 64
5, 326400, Note_on_c, 3, 59, 40
5, 328244, Note_off_c, 3, 59, 64
5, 328320, Note_on_c, 3, 59, 51
5, 330164, Note_off_c, 3, 59, 64
5, 330240, Note_on_c, 3, 60, 62
5, 332084, Note_off_c, 3, 60, 64
5, 332160, Note_on_c, 3, 62, 73
5, 334004, Note_off_c, 3, 62, 64
5, 334080, Note_on_c, 3, 64, 84
5, 335924, Note_off_c, 3, 64, 64
5, 336000, Note_on_c, 3, 65, 80
5, 336000, Note_on_c, 3, 53, 80
5, 336384, Note_off_c, 3, 53, 64
5, 336384, Note_off_c, 3, 65, 64
5, 336480, Note_on_c, 3, 49, 80
5, 336480, Note_on_c, 3, 61, 80
5, 339456, Note_off_c, 3, 61, 64
5, 339456, Note_off_c, 3, 49, 64
5, 339840, Note_on_c, 3, 60, 80
5, 339840, Note_on_c, 3, 48, 80
5, 341376, Note_off_c, 3, 48, 64
5, 341376, Note_off_c, 3, 60, 64
5, 341760, Note_on_c, 3, 48, 80
5, 341760, Note_on_c, 3, 60, 80
5, 343296, Note_off_c, 3, 60, 64
5, 343296, Note_off_c, 3, 48, 64
5, 343680, Note_on_c, 3, 53, 127
5, 344064, Note_off_c, 3, 53, 64
5, 349920, Note_on_c, 3, 55, 80
5, 349920, Note_on_c, 3, 58, 80
5, 350688, Note_off_c, 3, 58, 64
5, 350688, Note_off_c, 3, 55, 64
5, 350880, Note_on_c, 3, 58, 80
5, 350880, Note_on_c, 3, 55, 80
5, 351120, Note_off_c, 3, 55, 64
5, 351120, Note_off_c, 3, 58, 64
5, 351360, Note_on_c, 3, 53, 127
5, 351744, Note_off_c, 3, 53, 64
5, 357600, Note_on_c, 3, 55, 80
5, 357600, Note_on_c, 3, 58, 80
5, 358368, Note_off_c, 3, 58, 64
5, 358368, Note_off_c, 3, 55, 64
5, 358560, Note_on_c, 3, 58, 80
5, 358560, Note_on_c, 3, 55, 80
5, 358800, Note_off_c, 3, 55, 64
5, 358800, Note_off_c, 3, 58, 64
5, 359040, Note_on_c, 3, 53, 127
5, 359424, Note_off_c, 3, 53, 64
5, 361440, Note_on_c, 3, 55, 80
5, 361440, Note_on_c, 3, 58, 80
5, 362208, Note_off_c, 3, 58, 64
5, 362208, Note_off_c, 3, 55, 64
5, 362400, Note_on_c, 3, 58, 80
5, 362400, Note_on_c, 3, 55, 80
5, 362640, Note_off_c, 3, 55, 64
5, 362640, Note_off_c, 3, 58, 64
5, 362880, Note_on_c, 3, 53, 127
5, 362880, Note_on_c, 3, 41, 127
5, 364656, Note_off_c, 3, 41, 64
5, 364656, Note_off_c, 3, 53, 64
5, 364740, Note_on_c, 3, 41, 127
5, 364740, Note_on_c, 3, 53, 127
5, 364770, Note_off_c, 3, 53, 64
5, 364770, Note_off_c, 3, 41, 64
5, 364800, Note_on_c, 3, 53, 127
5, 364800, Note_on_c, 3, 41, 127
5, 364896, Note_off_c, 3, 41, 64
5, 364896, Note_off_c, 3, 53, 64
5, 366720, Note_on_c, 3, 41, 127
5, 366720, Note_on_c, 3, 53, 127
5, 368496, Note_off_c, 3, 53, 64
5, 368496, Note_off_c, 3, 41, 64
5, 368580, Note_on_c, 3, 53, 127
5, 368580, Note_on_c, 3, 41, 127
5, 368610, Note_off_c, 3, 41, 64
5, 368610, Note_off_c, 3, 53, 64
5, 368640, Note_on_c, 3, 53, 127
5, 368640, Note_on_c, 3, 41, 127
5, 368880, Note_off_c, 3, 41, 64
5, 368880, Note_off_c, 3, 53, 64
5, 370560, Note_on_c, 3, 53, 127
5, 370560, Note_on_c, 3, 41, 127
5, 370800, Note_off_c, 3, 41, 64
5, 370800, Note_off_c, 3, 53, 64
5, 372480, Note_on_c, 3, 41, 102
5, 372480, Note_on_c, 3, 53, 102
5, 372720, Note_off_c, 3, 53, 64
5, 372720, Note_off_c, 3, 41, 64
5, 373440, Note_on_c, 3, 53, 102
5, 373440, Note_on_c, 3, 41, 102
5, 373680, Note_off_c, 3, 41, 64
5, 373680, Note_off_c, 3, 53, 64
5, 374400, Note_on_c, 3, 53, 102
5, 374400, Note_on_c, 3, 41, 102
5, 374640, Note_off_c, 3, 41, 64
5, 374640, Note_off_c, 3, 53, 64
5, 375360, Note_on_c, 3, 41, 102
5, 375360, Note_on_c, 3, 53, 102
5, 375600, Note_off_c, 3, 53, 64
5, 375600, Note_off_c, 3, 41, 64
5, 376320, Note_on_c, 3, 58, 102
5, 376320, Note_on_c, 3, 46, 102
5, 376560, Note_off_c, 3, 46, 64
5, 376560, Note_off_c, 3, 58, 64
5, 384480, Note_on_c, 3, 58, 38
5, 384480, Note_on_c, 3, 62, 38
5, 384960, Note_off_c, 3, 62, 64
5, 384960, Note_off_c, 3, 58, 64
5, 384960, Note_on_c, 3, 60, 38
5, 384960, Note_on_c, 3, 57, 38
5, 385440, Note_off_c, 3, 57, 64
5, 385440, Note_off_c, 3, 60, 64
5, 385440, Note_on_c, 3, 55, 38
5, 385440, Note_on_c, 3, 58, 38
5, 385920, Note_off_c, 3, 58, 64
5, 385920, Note_off_c, 3, 55, 64
5, 385920, Note_on_c, 3, 57, 38
5, 385920, Note_on_c, 3, 53, 38
5, 386400, Note_off_c, 3, 53, 64
5, 386400, Note_off_c, 3, 57, 64
5, 386400, Note_on_c, 3, 55, 38
5, 386400, Note_on_c, 3, 51, 38
5, 386880, Note_off_c, 3, 51, 64
5, 386880, Note_off_c, 3, 55, 64
5, 386880, Note_on_c, 3, 53, 38
5, 386880, Note_on_c, 3, 50, 38
5, 387360, Note_off_c, 3, 50, 64
5, 387360, Note_off_c, 3, 53, 64
5, 387360, Note_on_c, 3, 51, 38
5, 387360, Note_on_c, 3, 55, 38
5, 387840, Note_off_c, 3, 55, 64
5, 387840, Note_off_c, 3, 51, 64
5, 387840, Note_on_c, 3, 53, 38
5, 391680, Note_off_c, 3, 53, 64
5, 391680, Note_on_c, 3, 53, 102
5, 391680, Note_on_c, 3, 41, 102
5, 391920, Note_off_c, 3, 41, 64
5, 391920, Note_off_c, 3, 53, 64
5, 393600, Note_on_c, 3, 41, 102
5, 393600, Note_on_c, 3, 53, 102
5, 393840, Note_off_c, 3, 53, 64
5, 393840, Note_off_c, 3, 41, 64
5, 394560, Note_on_c, 3, 41, 102
5, 394560, Note_on_c, 3, 53, 102
5, 394800, Note_off_c, 3, 53, 64
5, 394800, Note_off_c, 3, 41, 64
5, 395520, Note_on_c, 3, 58, 102
5, 395520, Note_on_c, 3, 46, 102
5, 395760, Note_off_c, 3, 46, 64
5, 395760, Note_off_c, 3, 58, 64
5, 396000, Note_on_c, 3, 58, 67
5, 396192, Note_off_c, 3, 58, 64
5, 396480, Note_on_c, 3, 53, 67
5, 396672, Note_off_c, 3, 53, 64
5, 396960, Note_on_c, 3, 58, 67
5, 397152, Note_off_c, 3, 58, 64
5, 397440, Note_on_c, 3, 50, 67
5, 397632, Note_off_c, 3, 50, 64
5, 397920, Note_on_c, 3, 53, 67
5, 398112, Note_off_c, 3, 53, 64
5, 398400, Note_on_c, 3, 46, 67
5, 398592, Note_off_c, 3, 46, 64
5, 398880, Note_on_c, 3, 50, 67
5, 399072, Note_off_c, 3, 50, 64
5, 399360, Note_on_c, 3, 43, 67
5, 399360, Note_on_c, 3, 55, 67
5, 399552, Note_off_c, 3, 55, 64
5, 399552, Note_off_c, 3, 43, 64
5, 399840, Note_on_c, 3, 63, 67
5, 399840, Note_on_c, 3, 51, 67
5, 400032, Note_off_c, 3, 51, 64
5, 400032, Note_off_c, 3, 63, 64
5, 400320, Note_on_c, 3, 60, 67
5, 400320, Note_on_c, 3, 48, 67
5, 400512, Note_off_c, 3, 48, 64
5, 400512, Note_off_c, 3, 60, 64
5, 400800, Note_on_c, 3, 58, 67
5, 400800, Note_on_c, 3, 46, 67
5, 400992, Note_off_c, 3, 46, 64
5, 400992, Note_off_c, 3, 58, 64
5, 401280, Note_on_c, 3, 45, 67
5, 401280, Note_on_c, 3, 57, 67
5, 401472, Note_off_c, 3, 57, 64
5, 401472, Note_off_c, 3, 45, 64
5, 401760, Note_on_c, 3, 65, 67
5, 401760, Note_on_c, 3, 53, 67
5, 401952, Note_off_c, 3, 53, 64
5, 401952, Note_off_c, 3, 65, 64
5, 402240, Note_on_c, 3, 63, 67
5, 402240, Note_on_c, 3, 51, 67
5, 402432, Note_off_c, 3, 51, 64
5, 402432, Note_off_c, 3, 63, 64
5, 402720, Note_on_c, 3, 60, 67
5, 402720, Note_on_c, 3, 48, 67
5, 402912, Note_off_c, 3, 48, 64
5, 402912, Note_off_c, 3, 60, 64
5, 403200, Note_on_c, 3, 46, 67
5, 403200, Note_on_c, 3, 58, 67
5, 403392, Note_off_c, 3, 58, 64
5, 403392, Note_off_c, 3, 46, 64
5, 403680, Note_on_c, 3, 67, 67
5, 403680, Note_on_c, 3, 58, 67
5, 404160, Note_off_c, 3, 58, 64
5, 404160, Note_off_c, 3, 67, 64
5, 404160, Note_on_c, 3, 57, 67
5, 404160, Note_on_c, 3, 65, 67
5, 404640, Note_off_c, 3, 65, 64
5, 404640, Note_off_c, 3, 57, 64
5, 404640, Note_on_c, 3, 55, 67
5, 404640, Note_on_c, 3, 63, 67
5, 405120, Note_off_c, 3, 63, 64
5, 405120, Note_off_c, 3, 55, 64
5, 405120, Note_on_c, 3, 53, 67
5, 405120, Note_on_c, 3, 62, 67
5, 405600, Note_off_c, 3, 62, 64
5, 405600, Note_off_c, 3, 53, 64
5, 405600, Note_on_c, 3, 60, 67
5, 405600, Note_on_c, 3, 51, 67
5, 406080, Note_off_c, 3, 51, 64
5, 406080, Note_off_c, 3, 60, 64
5, 406080, Note_on_c, 3, 58, 67
5, 406080, Note_on_c, 3, 50, 67
5, 406560, Note_off_c, 3, 50, 64
5, 406560, Note_off_c, 3, 58, 64
5, 406560, Note_on_c, 3, 51, 67
5, 406560, Note_on_c, 3, 60, 67
5, 407040, Note_off_c, 3, 60, 64
5, 407040, Note_off_c, 3, 51, 64
5, 407040, Note_on_c, 3, 53, 67
5, 407040, Note_on_c, 3, 60, 67
5, 411168, Note_off_c, 3, 60, 64
5, 411168, Note_off_c, 3, 53, 64
5, 411840, Note_on_c, 3, 41, 63
5, 411840, Note_on_c, 3, 53, 63
5, 412128, Note_off_c, 3, 53, 64
5, 412128, Note_off_c, 3, 41, 64
5, 413760, Note_on_c, 3, 43, 63
5, 413760, Note_on_c, 3, 55, 63
5, 414048, Note_off_c, 3, 55, 64
5, 414048, Note_off_c, 3, 43, 64
5, 415680, Note_on_c, 3, 36, 63
5, 415680, Note_on_c, 3, 48, 63
5, 415968, Note_off_c, 3, 48, 64
5, 415968, Note_off_c, 3, 36, 64
5, 417600, Note_on_c, 3, 41, 63
5, 417600, Note_on_c, 3, 53, 63
5, 417888, Note_off_c, 3, 53, 64
5, 417888, Note_off_c, 3, 41, 64
5, 418560, Note_on_c, 3, 58, 64
5, 418752, Note_off_c, 3, 58, 64
5, 419040, Note_on_c, 3, 53, 64
5, 419232, Note_off_c, 3, 53, 64
5, 419520, Note_on_c, 3, 50, 64
5, 419712, Note_off_c, 3, 50, 64
5, 420000, Note_on_c, 3, 53, 64
5, 420192, Note_off_c, 3, 53, 64
5, 420480, Note_on_c, 3, 46, 64
5, 420672, Note_off_c, 3, 46, 64
5, 420960, Note_on_c, 3, 53, 64
5, 421152, Note_off_c, 3, 53, 64
5, 421440, Note_on_c, 3, 50, 64
5, 421632, Note_off_c, 3, 50, 64
5, 421920, Note_on_c, 3, 53, 64
5, 422112, Note_off_c, 3, 53, 64
5, 422400, Note_on_c, 3, 58, 64
5, 422592, Note_off_c, 3, 58, 64
5, 422880, Note_on_c, 3, 53, 64
5, 423072, Note_off_c, 3, 53, 64
5, 423360, Note_on_c, 3, 50, 64
5, 423552, Note_off_c, 3, 50, 64
5, 423840, Note_on_c, 3, 53, 64
5, 424032, Note_off_c, 3, 53, 64
5, 424320, Note_on_c, 3, 46, 64
5, 424512, Note_off_c, 3, 46, 64
5, 424800, Note_on_c, 3, 50, 64
5, 424992, Note_off_c, 3, 50, 64
5, 425280, Note_on_c, 3, 53, 64
5, 425472, Note_off_c, 3, 53, 64
5, 425760, Note_on_c, 3, 58, 64
5, 425952, Note_off_c, 3, 58, 64
5, 426240, Note_on_c, 3, 60, 64
5, 426432, Note_off_c, 3, 60, 64
5, 426720, Note_on_c, 3, 57, 64
5, 426912, Note_off_c, 3, 57, 64
5, 427200, Note_on_c, 3, 54, 64
5, 427392, Note_off_c, 3, 54, 64
5, 427680, Note_on_c, 3, 57, 64
5, 427872, Note_off_c, 3, 57, 64
5, 428160, Note_on_c, 3, 51, 64
5, 428352, Note_off_c, 3, 51, 64
5, 428640, Note_on_c, 3, 57, 64
5, 428832, Note_off_c, 3, 57, 64
5, 429120, Note_on_c, 3, 54, 64
5, 429312, Note_off_c, 3, 54, 64
5, 429600, Note_on_c, 3, 57, 64
5, 429792, Note_off_c, 3, 57, 64
5, 430080, Note_on_c, 3, 60, 64
5, 430272, Note_off_c, 3, 60, 64
5, 430560, Note_on_c, 3, 57, 64
5, 430752, Note_off_c, 3, 57, 64
5, 431040, Note_on_c, 3, 54, 64
5, 431232, Note_off_c, 3, 54, 64
5, 431520, Note_on_c, 3, 57, 64
5, 431712, Note_off_c, 3, 57, 64
5, 432000, Note_on_c, 3, 48, 64
5, 432192, Note_off_c, 3, 48, 64
5, 432480, Note_on_c, 3, 51, 64
5, 432672, Note_off_c, 3, 51, 64
5, 432960, Note_on_c, 3, 57, 64
5, 433152, Note_off_c, 3, 57, 64
5, 433440, Note_on_c, 3, 60, 64
5, 433632, Note_off_c, 3, 60, 64
5, 433920, Note_on_c, 3, 62, 74
5, 434112, Note_off_c, 3, 62, 64
5, 434400, Note_on_c, 3, 59, 74
5, 434592, Note_off_c, 3, 59, 64
5, 434880, Note_on_c, 3, 56, 74
5, 435072, Note_off_c, 3, 56, 64
5, 435360, Note_on_c, 3, 59, 74
5, 435552, Note_off_c, 3, 59, 64
5, 435840, Note_on_c, 3, 53, 74
5, 436032, Note_off_c, 3, 53, 64
5, 436320, Note_on_c, 3, 59, 74
5, 436512, Note_off_c, 3, 59, 64
5, 436800, Note_on_c, 3, 56, 74
5, 436992, Note_off_c, 3, 56, 64
5, 437280, Note_on_c, 3, 59, 74
5, 437472, Note_off_c, 3, 59, 64
5, 437760, Note_on_c, 3, 64, 85
5, 437952, Note_off_c, 3, 64, 64
5, 438240, Note_on_c, 3, 61, 85
5, 438432, Note_off_c, 3, 61, 64
5, 438720, Note_on_c, 3, 58, 85
5, 438912, Note_off_c, 3, 58, 64
5, 439200, Note_on_c, 3, 61, 85
5, 439392, Note_off_c, 3, 61, 64
5, 439680, Note_on_c, 3, 52, 85
5, 439872, Note_off_c, 3, 52, 64
5, 440160, Note_on_c, 3, 55, 85
5, 440352, Note_off_c, 3, 55, 64
5, 440640, Note_on_c, 3, 61, 85
5, 440832, Note_off_c, 3, 61, 64
5, 441120, Note_on_c, 3, 64, 85
5, 441312, Note_off_c, 3, 64, 64
5, 441600, Note_on_c, 3, 66, 45
5, 445440, Note_off_c, 3, 66, 64
5, 445440, Note_on_c, 3, 65, 51
5, 449280, Note_off_c, 3, 65, 64
5, 449280, Note_on_c, 3, 58, 89
5, 449280, Note_on_c, 3, 46, 89
5, 452736, Note_off_c, 3, 46, 64
5, 452736, Note_off_c, 3, 58, 64
5, 453120, Note_on_c, 3, 51, 89
5, 453120, Note_on_c, 3, 63, 89
5, 454656, Note_off_c, 3, 63, 64
5, 454656, Note_off_c, 3, 51, 64
5, 455040, Note_on_c, 3, 53, 89
5, 455040, Note_on_c, 3, 65, 89
5, 456840, Note_off_c, 3, 65, 64
5, 456840, Note_off_c, 3, 53, 64
5, 456960, Note_on_c, 3, 62, 62
5, 456960, Note_on_c, 3, 50, 62
5, 460416, Note_off_c, 3, 50, 64
5, 460416, Note_off_c, 3, 62, 64
5, 460800, Note_on_c, 3, 51, 62
5, 460800, Note_on_c, 3, 55, 62
5, 462336, Note_off_c, 3, 55, 64
5, 462336, Note_off_c, 3, 51, 64
5, 462720, Note_on_c, 3, 53, 62
5, 462720, Note_on_c, 3, 57, 62
5, 464520, Note_off_c, 3, 57, 64
5, 464520, Note_off_c, 3, 53, 64
5, 464640, Note_on_c, 3, 46, 62
5, 464640, Note_on_c, 3, 58, 62
5, 466176, Note_off_c, 3, 58, 64
5, 466176, Note_off_c, 3, 46, 64
5, 466560, Note_on_c, 3, 45, 62
5, 466560, Note_on_c, 3, 61, 62
5, 468360, Note_off_c, 3, 61, 64
5, 468360, Note_off_c, 3, 45, 64
5, 468480, Note_on_c, 3, 50, 62
5, 468480, Note_on_c, 3, 62, 62
5, 470016, Note_off_c, 3, 62, 64
5, 470016, Note_off_c, 3, 50, 64
5, 470400, Note_on_c, 3, 48, 104
5, 470400, Note_on_c, 3, 60, 104
5, 470592, Note_off_c, 3, 60, 64
5, 470592, Note_off_c, 3, 48, 64
5, 470880, Note_on_c, 3, 48, 104
5, 470880, Note_on_c, 3, 60, 104
5, 471072, Note_off_c, 3, 60, 64
5, 471072, Note_off_c, 3, 48, 64
5, 471360, Note_on_c, 3, 48, 104
5, 471360, Note_on_c, 3, 60, 104
5, 471552, Note_off_c, 3, 60, 64
5, 471552, Note_off_c, 3, 48, 64
5, 471840, Note_on_c, 3, 48, 104
5, 471840, Note_on_c, 3, 60, 104
5, 472032, Note_off_c, 3, 60, 64
5, 472032, Note_off_c, 3, 48, 64
5, 472320, Note_on_c, 3, 48, 104
5, 472320, Note_on_c, 3, 60, 104
5, 472512, Note_off_c, 3, 60, 64
5, 472512, Note_off_c, 3, 48, 64
5, 472800, Note_on_c, 3, 48, 104
5, 472800, Note_on_c, 3, 60, 104
5, 472992, Note_off_c, 3, 60, 64
5, 472992, Note_off_c, 3, 48, 64
5, 473280, Note_on_c, 3, 60, 104
5, 473280, Note_on_c, 3, 48, 104
5, 473472, Note_off_c, 3, 48, 64
5, 473472, Note_off_c, 3, 60, 64
5, 473760, Note_on_c, 3, 48, 104
5, 473760, Note_on_c, 3, 60, 104
5, 473952, Note_off_c, 3, 60, 64
5, 473952, Note_off_c, 3, 48, 64
5, 474240, Note_on_c, 3, 48, 104
5, 474240, Note_on_c, 3, 60, 104
5, 474432, Note_off_c, 3, 60, 64
5, 474432, Note_off_c, 3, 48, 64
5, 474720, Note_on_c, 3, 48, 104
5, 474720, Note_on_c, 3, 60, 104
5, 474912, Note_off_c, 3, 60, 64
5, 474912, Note_off_c, 3, 48, 64
5, 475200, Note_on_c, 3, 60, 104
5, 475200, Note_on_c, 3, 48, 104
5, 475392, Note_off_c, 3, 48, 64
5, 475392, Note_off_c, 3, 60, 64
5, 475680, Note_on_c, 3, 48, 104
5, 475680, Note_on_c, 3, 60, 104
5, 475872, Note_off_c, 3, 60, 64
5, 475872, Note_off_c, 3, 48, 64
5, 476160, Note_on_c, 3, 48, 104
5, 476160, Note_on_c, 3, 60, 104
5, 476352, Note_off_c, 3, 60, 64
5, 476352, Note_off_c, 3, 48, 64
5, 476640, Note_on_c, 3, 55, 64
5, 476640, Note_on_c, 3, 52, 64
5, 477408, Note_off_c, 3, 52, 64
5, 477408, Note_off_c, 3, 55, 64
5, 477600, Note_on_c, 3, 53, 64
5, 477600, Note_on_c, 3, 56, 64
5, 478464, Note_off_c, 3, 56, 64
5, 478464, Note_off_c, 3, 53, 64
5, 478560, Note_on_c, 3, 58, 64
5, 478560, Note_on_c, 3, 55, 64
5, 479328, Note_off_c, 3, 55, 64
5, 479328, Note_off_c, 3, 58, 64
5, 479520, Note_on_c, 3, 50, 64
5, 479520, Note_on_c, 3, 53, 64
5, 480384, Note_off_c, 3, 53, 64
5, 480384, Note_off_c, 3, 50, 64
5, 480480, Note_on_c, 3, 55, 64
5, 480480, Note_on_c, 3, 52, 64
5, 481248, Note_off_c, 3, 52, 64
5, 481248, Note_off_c, 3, 55, 64
5, 481440, Note_on_c, 3, 56, 64
5, 481440, Note_on_c, 3, 53, 64
5, 482304, Note_off_c, 3, 53, 64
5, 482304, Note_off_c, 3, 56, 64
5, 482400, Note_on_c, 3, 53, 64
5, 482400, Note_on_c, 3, 56, 64
5, 483360, Note_off_c, 3, 56, 64
5, 483360, Note_off_c, 3, 53, 64
5, 483360, Note_on_c, 3, 55, 64
5, 483360, Note_on_c, 3, 52, 64
5, 483744, Note_off_c, 3, 52, 64
5, 483744, Note_off_c, 3, 55, 64
5, 483840, Note_on_c, 3, 52, 51
5, 483840, Note_on_c, 3, 55, 51
5, 484224, Note_off_c, 3, 55, 64
5, 484224, Note_off_c, 3, 52, 64
5, 484320, Note_on_c, 3, 64, 64
5, 484320, Note_on_c, 3, 55, 64
5, 485088, Note_off_c, 3, 55, 64
5, 485088, Note_off_c, 3, 64, 64
5, 485280, Note_on_c, 3, 65, 64
5, 485280, Note_on_c, 3, 56, 64
5, 486144, Note_off_c, 3, 56, 64
5, 486144, Note_off_c, 3, 65, 64
5, 486240, Note_on_c, 3, 67, 64
5, 486240, Note_on_c, 3, 58, 64
5, 487008, Note_off_c, 3, 58, 64
5, 487008, Note_off_c, 3, 67, 64
5, 487200, Note_on_c, 3, 62, 64
5, 487200, Note_on_c, 3, 53, 64
5, 488064, Note_off_c, 3, 53, 64
5, 488064, Note_off_c, 3, 62, 64
5, 488160, Note_on_c, 3, 64, 64
5, 488160, Note_on_c, 3, 55, 64
5, 488928, Note_off_c, 3, 55, 64
5, 488928, Note_off_c, 3, 64, 64
5, 489120, Note_on_c, 3, 56, 64
5, 489120, Note_on_c, 3, 65, 64
5, 489984, Note_off_c, 3, 65, 64
5, 489984, Note_off_c, 3, 56, 64
5, 490080, Note_on_c, 3, 65, 64
5, 490080, Note_on_c, 3, 56, 64
5, 491040, Note_off_c, 3, 56, 64
5, 491040, Note_off_c, 3, 65, 64
5, 491040, Note_on_c, 3, 55, 64
5, 491040, Note_on_c, 3, 64, 64
5, 491424, Note_off_c, 3, 64, 64
5, 491424, Note_off_c, 3, 55, 64
5, 491520, Note_on_c, 3, 55, 64
5, 491520, Note_on_c, 3, 64, 64
5, 491904, Note_off_c, 3, 64, 64
5, 491904, Note_off_c, 3, 55, 64
5, 499200, Note_on_c, 3, 60, 80
5, 499440, Note_off_c, 3, 60, 64
5, 499440, Note_on_c, 3, 57, 80
5, 499680, Note_off_c, 3, 57, 64
5, 499680, Note_on_c, 3, 58, 80
5, 499920, Note_off_c, 3, 58, 64
5, 499920, Note_on_c, 3, 55, 80
5, 500160, Note_off_c, 3, 55, 64
5, 500160, Note_on_c, 3, 53, 80
5, 500352, Note_off_c, 3, 53, 64
5, 500640, Note_on_c, 3, 48, 80
5, 500832, Note_off_c, 3, 48, 64
5, 501120, Note_on_c, 3, 53, 80
5, 501312, Note_off_c, 3, 53, 64
5, 501600, Note_on_c, 3, 55, 80
5, 501792, Note_off_c, 3, 55, 64
5, 502080, Note_on_c, 3, 57, 80
5, 502272, Note_off_c, 3, 57, 64
5, 502560, Note_on_c, 3, 58, 80
5, 502752, Note_off_c, 3, 58, 64
5, 503040, Note_on_c, 3, 60, 80
5, 503940, Note_off_c, 3, 60, 64
5, 518400, Note_on_c, 3, 61, 28
5, 518400, Note_on_c, 3, 64, 28
5, 520320, Note_off_c, 3, 64, 64
5, 520320, Note_off_c, 3, 61, 64
5, 520320, Note_on_c, 3, 62, 28
5, 520320, Note_on_c, 3, 65, 28
5, 522240, Note_off_c, 3, 65, 64
5, 522240, Note_off_c, 3, 62, 64
5, 522240, Note_on_c, 3, 67, 28
5, 522240, Note_on_c, 3, 64, 28
5, 524160, Note_off_c, 3, 64, 64
5, 524160, Note_off_c, 3, 67, 64
5, 524160, Note_on_c, 3, 62, 28
5, 524160, Note_on_c, 3, 65, 28
5, 526080, Note_off_c, 3, 65, 64
5, 526080, Note_off_c, 3, 62, 64
5, 526080, Note_on_c, 3, 57, 28
5, 526530, Note_off_c, 3, 57, 64
5, 547200, Note_on_c, 3, 64, 55
5, 547200, Note_on_c, 3, 60, 55
5, 547680, Note_off_c, 3, 60, 64
5, 547680, Note_off_c, 3, 64, 64
5, 548160, Note_on_c, 3, 64, 58
5, 548160, Note_on_c, 3, 58, 58
5, 548640, Note_off_c, 3, 58, 64
5, 548640, Note_off_c, 3, 64, 64
5, 549120, Note_on_c, 3, 64, 55
5, 549120, Note_on_c, 3, 55, 55
5, 549600, Note_off_c, 3, 55, 64
5, 549600, Note_off_c, 3, 64, 64
5, 550080, Note_on_c, 3, 64, 58
5, 550080, Note_on_c, 3, 52, 58
5, 550560, Note_off_c, 3, 52, 64
5, 550560, Note_off_c, 3, 64, 64
5, 551040, Note_on_c, 3, 48, 55
5, 551040, Note_on_c, 3, 64, 55
5, 551520, Note_off_c, 3, 64, 64
5, 551520, Note_off_c, 3, 48, 64
5, 552000, Note_on_c, 3, 64, 58
5, 552000, Note_on_c, 3, 46, 58
5, 552480, Note_off_c, 3, 46, 64
5, 552480, Note_off_c, 3, 64, 64
5, 552960, Note_on_c, 3, 65, 80
5, 552960, Note_on_c, 3, 45, 80
5, 553152, Note_off_c, 3, 45, 64
5, 553152, Note_off_c, 3, 65, 64
5, 554880, Note_on_c, 3, 58, 80
5, 554880, Note_on_c, 3, 46, 80
5, 555072, Note_off_c, 3, 46, 64
5, 555072, Note_off_c, 3, 58, 64
5, 556800, Note_on_c, 3, 60, 80
5, 556800, Note_on_c, 3, 48, 80
5, 556992, Note_off_c, 3, 48, 64
5, 556992, Note_off_c, 3, 60, 64
5, 558240, Note_on_c, 3, 48, 80
5, 558240, Note_on_c, 3, 60, 80
5, 558432, Note_off_c, 3, 60, 64
5, 558432, Note_off_c, 3, 48, 64
5, 558720, Note_on_c, 3, 46, 80
5, 558720, Note_on_c, 3, 58, 80
5, 558912, Note_off_c, 3, 58, 64
5, 558912, Note_off_c, 3, 46, 64
5, 559200, Note_on_c, 3, 46, 80
5, 559200, Note_on_c, 3, 58, 80
5, 559392, Note_off_c, 3, 58, 64
5, 559392, Note_off_c, 3, 46, 64
5, 559680, Note_on_c, 3, 46, 80
5, 559680, Note_on_c, 3, 58, 80
5, 559872, Note_off_c, 3, 58, 64
5, 559872, Note_off_c, 3, 46, 64
5, 560160, Note_on_c, 3, 58, 80
5, 560160, Note_on_c, 3, 46, 80
5, 560352, Note_off_c, 3, 46, 64
5, 560352, Note_off_c, 3, 58, 64
5, 560640, Note_on_c, 3, 45, 80
5, 560640, Note_on_c, 3, 57, 80
5, 560832, Note_off_c, 3, 57, 64
5, 560832, Note_off_c, 3, 45, 64
5, 561600, Note_on_c, 3, 46, 80
5, 561600, Note_on_c, 3, 58, 80
5, 561792, Note_off_c, 3, 58, 64
5, 561792, Note_off_c, 3, 46, 64
5, 562560, Note_on_c, 3, 48, 80
5, 562560, Note_on_c, 3, 60, 80
5, 562752, Note_off_c, 3, 60, 64
5, 562752, Note_off_c, 3, 48, 64
5, 563520, Note_on_c, 3, 36, 80
5, 563520, Note_on_c, 3, 48, 80
5, 563712, Note_off_c, 3, 48, 64
5, 563712, Note_off_c, 3, 36, 64
5, 566400, Note_on_c, 3, 57, 50
5, 566880, Note_off_c, 3, 57, 64
5, 566880, Note_on_c, 3, 58, 50
5, 567360, Note_off_c, 3, 58, 64
5, 567360, Note_on_c, 3, 60, 50
5, 567840, Note_off_c, 3, 60, 64
5, 567840, Note_on_c, 3, 48, 50
5, 568320, Note_off_c, 3, 48, 64
5, 568320, Note_on_c, 3, 53, 50
5, 569760, Note_off_c, 3, 53, 64
5, 569760, Note_on_c, 3, 55, 50
5, 570240, Note_off_c, 3, 55, 64
5, 570240, Note_on_c, 3, 57, 50
5, 570720, Note_off_c, 3, 57, 64
5, 570720, Note_on_c, 3, 53, 50
5, 571200, Note_off_c, 3, 53, 64
5, 571200, Note_on_c, 3, 57, 50
5, 571680, Note_off_c, 3, 57, 64
5, 571680, Note_on_c, 3, 58, 50
5, 572160, Note_off_c, 3, 58, 64
5, 572160, Note_on_c, 3, 60, 50
5, 573600, Note_off_c, 3, 60, 64
5, 573600, Note_on_c, 3, 62, 50
5, 574080, Note_off_c, 3, 62, 64
5, 574080, Note_on_c, 3, 64, 50
5, 574560, Note_off_c, 3, 64, 64
5, 574560, Note_on_c, 3, 65, 50
5, 575040, Note_off_c, 3, 65, 64
5, 575040, Note_on_c, 3, 67, 50
5, 575520, Note_off_c, 3, 67, 64
5, 575520, Note_on_c, 3, 65, 50
5, 576000, Note_off_c, 3, 65, 64
5, 576000, Note_on_c, 3, 64, 50
5, 577440, Note_off_c, 3, 64, 64
5, 577440, Note_on_c, 3, 62, 50
5, 577920, Note_off_c, 3, 62, 64
5, 577920, Note_on_c, 3, 60, 50
5, 578400, Note_off_c, 3, 60, 64
5, 578400, Note_on_c, 3, 62, 50
5, 578880, Note_off_c, 3, 62, 64
5, 578880, Note_on_c, 3, 58, 50
5, 579360, Note_off_c, 3, 58, 64
5, 579360, Note_on_c, 3, 55, 50
5, 579840, Note_off_c, 3, 55, 64
5, 579840, Note_on_c, 3, 53, 50
5, 580290, Note_off_c, 3, 53, 64
5, 580320, Note_on_c, 3, 60, 56
5, 580320, Note_on_c, 3, 48, 56
5, 580512, Note_off_c, 3, 48, 64
5, 580512, Note_off_c, 3, 60, 64
5, 580800, Note_on_c, 3, 48, 56
5, 580800, Note_on_c, 3, 60, 56
5, 580992, Note_off_c, 3, 60, 64
5, 580992, Note_off_c, 3, 48, 64
5, 581280, Note_on_c, 3, 48, 56
5, 581280, Note_on_c, 3, 60, 56
5, 581472, Note_off_c, 3, 60, 64
5, 581472, Note_off_c, 3, 48, 64
5, 581760, Note_on_c, 3, 48, 56
5, 581760, Note_on_c, 3, 60, 56
5, 583056, Note_off_c, 3, 60, 64
5, 583056, Note_off_c, 3, 48, 64
5, 583200, Note_on_c, 3, 60, 56
5, 583200, Note_on_c, 3, 48, 56
5, 583392, Note_off_c, 3, 48, 64
5, 583392, Note_off_c, 3, 60, 64
5, 583680, Note_on_c, 3, 48, 56
5, 583680, Note_on_c, 3, 60, 56
5, 583872, Note_off_c, 3, 60, 64
5, 583872, Note_off_c, 3, 48, 64
5, 584160, Note_on_c, 3, 48, 56
5, 584160, Note_on_c, 3, 60, 56
5, 584352, Note_off_c, 3, 60, 64
5, 584352, Note_off_c, 3, 48, 64
5, 584640, Note_on_c, 3, 48, 56
5, 584640, Note_on_c, 3, 60, 56
5, 584832, Note_off_c, 3, 60, 64
5, 584832, Note_off_c, 3, 48, 64
5, 585120, Note_on_c, 3, 60, 56
5, 585120, Note_on_c, 3, 48, 56
5, 585312, Note_off_c, 3, 48, 64
5, 585312, Note_off_c, 3, 60, 64
5, 585600, Note_on_c, 3, 48, 56
5, 585600, Note_on_c, 3, 60, 56
5, 586896, Note_off_c, 3, 60, 64
5, 586896, Note_off_c, 3, 48, 64
5, 587040, Note_on_c, 3, 60, 56
5, 587040, Note_on_c, 3, 48, 56
5, 587232, Note_off_c, 3, 48, 64
5, 587232, Note_off_c, 3, 60, 64
5, 587520, Note_on_c, 3, 48, 56
5, 587520, Note_on_c, 3, 60, 56
5, 587712, Note_off_c, 3, 60, 64
5, 587712, Note_off_c, 3, 48, 64
5, 588000, Note_on_c, 3, 48, 56
5, 588000, Note_on_c, 3, 60, 56
5, 588192, Note_off_c, 3, 60, 64
5, 588192, Note_off_c, 3, 48, 64
5, 588480, Note_on_c, 3, 48, 56
5, 588480, Note_on_c, 3, 60, 56
5, 588672, Note_off_c, 3, 60, 64
5, 588672, Note_off_c, 3, 48, 64
5, 588960, Note_on_c, 3, 60, 56
5, 588960, Note_on_c, 3, 48, 56
5, 589152, Note_off_c, 3, 48, 64
5, 589152, Note_off_c, 3, 60, 64
5, 589440, Note_on_c, 3, 48, 56
5, 589440, Note_on_c, 3, 60, 56
5, 590736, Note_off_c, 3, 60, 64
5, 590736, Note_off_c, 3, 48, 64
5, 590880, Note_on_c, 3, 60, 56
5, 590880, Note_on_c, 3, 48, 56
5, 591072, Note_off_c, 3, 48, 64
5, 591072, Note_off_c, 3, 60, 64
5, 591360, Note_on_c, 3, 48, 56
5, 591360, Note_on_c, 3, 60, 56
5, 591552, Note_off_c, 3, 60, 64
5, 591552, Note_off_c, 3, 48, 64
5, 591840, Note_on_c, 3, 48, 56
5, 591840, Note_on_c, 3, 60, 56
5, 592032, Note_off_c, 3, 60, 64
5, 592032, Note_off_c, 3, 48, 64
5, 592320, Note_on_c, 3, 48, 56
5, 592320, Note_on_c, 3, 60, 56
5, 592512, Note_off_c, 3, 60, 64
5, 592512, Note_off_c, 3, 48, 64
5, 592800, Note_on_c, 3, 60, 56
5, 592800, Note_on_c, 3, 48, 56
5, 592992, Note_off_c, 3, 48, 64
5, 592992, Note_off_c, 3, 60, 64
5, 593280, Note_on_c, 3, 48, 56
5, 593280, Note_on_c, 3, 60, 56
5, 595200, Note_off_c, 3, 60, 64
5, 595200, Note_off_c, 3, 48, 64
5, 595680, Note_on_c, 3, 62, 40
5, 596160, Note_off_c, 3, 62, 64
5, 596160, Note_on_c, 3, 58, 40
5, 596640, Note_off_c, 3, 58, 64
5, 596640, Note_on_c, 3, 55, 40
5, 597024, Note_off_c, 3, 55, 64
5, 597120, Note_on_c, 3, 52, 40
5, 597504, Note_off_c, 3, 52, 64
5, 602880, Note_on_c, 3, 41, 62
5, 602880, Note_on_c, 3, 53, 62
5, 603120, Note_off_c, 3, 53, 64
5, 603120, Note_off_c, 3, 41, 64
5, 604320, Note_on_c, 3, 50, 62
5, 604512, Note_off_c, 3, 50, 64
5, 604800, Note_on_c, 3, 46, 62
5, 605040, Note_off_c, 3, 46, 64
5, 605760, Note_on_c, 3, 48, 62
5, 606000, Note_off_c, 3, 48, 64
5, 610560, Note_on_c, 3, 41, 62
5, 610560, Note_on_c, 3, 53, 62
5, 610800, Note_off_c, 3, 53, 64
5, 610800, Note_off_c, 3, 41, 64
5, 612000, Note_on_c, 3, 50, 62
5, 612192, Note_off_c, 3, 50, 64
5, 612480, Note_on_c, 3, 46, 62
5, 612720, Note_off_c, 3, 46, 64
5, 613440, Note_on_c, 3, 48, 62
5, 613680, Note_off_c, 3, 48, 64
5, 616320, Note_on_c, 3, 59, 40
5, 618164, Note_off_c, 3, 59, 64
5, 618240, Note_on_c, 3, 59, 51
5, 620084, Note_off_c, 3, 59, 64
5, 620160, Note_on_c, 3, 60, 62
5, 622004, Note_off_c, 3, 60, 64
5, 622080, Note_on_c, 3, 62, 73
5, 623924, Note_off_c, 3, 62, 64
5, 624000, Note_on_c, 3, 64, 84
5, 625844, Note_off_c, 3, 64, 64
5, 625920, Note_on_c, 3, 65, 80
5, 625920, Note_on_c, 3, 53, 80
5, 626304, Note_off_c, 3, 53, 64
5, 626304, Note_off_c, 3, 65, 64
5, 626400, Note_on_c, 3, 49, 80
5, 626400, Note_on_c, 3, 61, 80
5, 629376, Note_off_c, 3, 61, 64
5, 629376, Note_off_c, 3, 49, 64
5, 629760, Note_on_c, 3, 60, 80
5, 629760, Note_on_c, 3, 48, 80
5, 631296, Note_off_c, 3, 48, 64
5, 631296, Note_off_c, 3, 60, 64
5, 631680, Note_on_c, 3, 48, 80
5, 631680, Note_on_c, 3, 60, 80
5, 633216, Note_off_c, 3, 60, 64
5, 633216, Note_off_c, 3, 48, 64
5, 633600, Note_on_c, 3, 53, 127
5, 633984, Note_off_c, 3, 53, 64
5, 639840, Note_on_c, 3, 55, 80
5, 639840, Note_on_c, 3, 58, 80
5, 640608, Note_off_c, 3, 58, 64
5, 640608, Note_off_c, 3, 55, 64
5, 640800, Note_on_c, 3, 58, 80
5, 640800, Note_on_c, 3, 55, 80
5, 641040, Note_off_c, 3, 55, 64
5, 641040, Note_off_c, 3, 58, 64
5, 641280, Note_on_c, 3, 53, 127
5, 641664, Note_off_c, 3, 53, 64
5, 647520, Note_on_c, 3, 55, 80
5, 647520, Note_on_c, 3, 58, 80
5, 648288, Note_off_c, 3, 58, 64
5, 648288, Note_off_c, 3, 55, 64
5, 648480, Note_on_c, 3, 58, 80
5, 648480, Note_on_c, 3, 55, 80
5, 648720, Note_off_c, 3, 55, 64
5, 648720, Note_off_c, 3, 58, 64
5, 648960, Note_on_c, 3, 57, 80
5, 648960, Note_on_c, 3, 53, 80
5, 649200, Note_off_c, 3, 53, 64
5, 649200, Note_off_c, 3, 57, 64
5, 649920, Note_on_c, 3, 55, 80
5, 649920, Note_on_c, 3, 52, 80
5, 650160, Note_off_c, 3, 52, 64
5, 650160, Note_off_c, 3, 55, 64
5, 650880, Note_on_c, 3, 57, 80
5, 650880, Note_on_c, 3, 53, 80
5, 651120, Note_off_c, 3, 53, 64
5, 651120, Note_off_c, 3, 57, 64
5, 651840, Note_on_c, 3, 55, 80
5, 651840, Note_on_c, 3, 58, 80
5, 652080, Note_off_c, 3, 58, 64
5, 652080, Note_off_c, 3, 55, 64
5, 652800, Note_on_c, 3, 60, 36
5, 652800, Note_on_c, 3, 57, 36
5, 660360, Note_off_c, 3, 57, 64
5, 660360, Note_off_c, 3, 60, 64
5, 660480, Note_on_c, 3, 55, 36
5, 660480, Note_on_c, 3, 58, 36
5, 668040, Note_off_c, 3, 58, 64
5, 668040, Note_off_c, 3, 55, 64
5, 668160, Note_on_c, 3, 57, 36
5, 668160, Note_on_c, 3, 53, 36
5, 671880, Note_off_c, 3, 53, 64
5, 671880, Note_off_c, 3, 57, 64
5, 672000, Note_on_c, 3, 50, 36
5, 672000, Note_on_c, 3, 55, 36
5, 675720, Note_off_c, 3, 55, 64
5, 675720, Note_off_c, 3, 50, 64
5, 675840, Note_on_c, 3, 53, 36
5, 675840, Note_on_c, 3, 48, 36
5, 679560, Note_off_c, 3, 48, 64
5, 679560, Note_off_c, 3, 53, 64
5, 679680, Note_on_c, 3, 52, 27
5, 679680, Note_on_c, 3, 48, 27
5, 683400, Note_off_c, 3, 48, 64
5, 683400, Note_off_c, 3, 52, 64
5, 683520, Note_on_c, 3, 52, 40
5, 683520, Note_on_c, 3, 49, 40
5, 684480, Note_off_c, 3, 49, 64
5, 684480, Note_off_c, 3, 52, 64
5, 718080, Note_on_c, 3, 66, 40
5, 718248, Note_off_c, 3, 66, 64
5, 718560, Note_on_c, 3, 62, 40
5, 718728, Note_off_c, 3, 62, 64
5, 719040, Note_on_c, 3, 57, 40
5, 719208, Note_off_c, 3, 57, 64
5, 719520, Note_on_c, 3, 62, 40
5, 719688, Note_off_c, 3, 62, 64
5, 720000, Note_on_c, 3, 54, 40
5, 720168, Note_off_c, 3, 54, 64
5, 720480, Note_on_c, 3, 57, 40
5, 720648, Note_off_c, 3, 57, 64
5, 720960, Note_on_c, 3, 50, 40
5, 721128, Note_off_c, 3, 50, 64
5, 721440, Note_on_c, 3, 54, 40
5, 721608, Note_off_c, 3, 54, 64
5, 721920, Note_on_c, 3, 47, 40
5, 722088, Note_off_c, 3, 47, 64
5, 722400, Note_on_c, 3, 55, 40
5, 722568, Note_off_c, 3, 55, 64
5, 722880, Note_on_c, 3, 52, 40
5, 723048, Note_off_c, 3, 52, 64
5, 723360, Note_on_c, 3, 50, 40
5, 723528, Note_off_c, 3, 50, 64
5, 723840, Note_on_c, 3, 49, 40
5, 724008, Note_off_c, 3, 49, 64
5, 724320, Note_on_c, 3, 57, 40
5, 724488, Note_off_c, 3, 57, 64
5, 724800, Note_on_c, 3, 55, 40
5, 724968, Note_off_c, 3, 55, 64
5, 725280, Note_on_c, 3, 52, 40
5, 725448, Note_off_c, 3, 52, 64
5, 725760, Note_on_c, 3, 50, 40
5, 725928, Note_off_c, 3, 50, 64
5, 726720, Note_on_c, 3, 55, 30
5, 728640, Note_off_c, 3, 55, 64
5, 728640, Note_on_c, 3, 57, 30
5, 729120, Note_off_c, 3, 57, 64
5, 729120, Note_on_c, 3, 58, 30
5, 729480, Note_off_c, 3, 58, 64
5, 729480, Note_on_c, 3, 62, 30
5, 729600, Note_off_c, 3, 62, 64
5, 729600, Note_on_c, 3, 60, 30
5, 730560, Note_off_c, 3, 60, 64
5, 730560, Note_on_c, 3, 58, 30
5, 731040, Note_off_c, 3, 58, 64
5, 731040, Note_on_c, 3, 60, 30
5, 731520, Note_off_c, 3, 60, 64
5, 731520, Note_on_c, 3, 57, 30
5, 732480, Note_off_c, 3, 57, 64
5, 732480, Note_on_c, 3, 62, 30
5, 733440, Note_off_c, 3, 62, 64
5, 733440, Note_on_c, 3, 55, 24
5, 733920, Note_off_c, 3, 55, 64
5, 741120, Note_on_c, 3, 67, 40
5, 741288, Note_off_c, 3, 67, 64
5, 741600, Note_on_c, 3, 63, 40
5, 741768, Note_off_c, 3, 63, 64
5, 742080, Note_on_c, 3, 58, 40
5, 742248, Note_off_c, 3, 58, 64
5, 742560, Note_on_c, 3, 63, 40
5, 742728, Note_off_c, 3, 63, 64
5, 743040, Note_on_c, 3, 55, 40
5, 743208, Note_off_c, 3, 55, 64
5, 743520, Note_on_c, 3, 58, 40
5, 743688, Note_off_c, 3, 58, 64
5, 744000, Note_on_c, 3, 51, 40
5, 744168, Note_off_c, 3, 51, 64
5, 744480, Note_on_c, 3, 55, 40
5, 744648, Note_off_c, 3, 55, 64
5, 744960, Note_on_c, 3, 48, 40
5, 745128, Note_off_c, 3, 48, 64
5, 745440, Note_on_c, 3, 56, 40
5, 745608, Note_off_c, 3, 56, 64
5, 745920, Note_on_c, 3, 53, 40
5, 746088, Note_off_c, 3, 53, 64
5, 746400, Note_on_c, 3, 51, 40
5, 746568, Note_off_c, 3, 51, 64
5, 746880, Note_on_c, 3, 50, 40
5, 747048, Note_off_c, 3, 50, 64
5, 747360, Note_on_c, 3, 58, 40
5, 747528, Note_off_c, 3, 58, 64
5, 747840, Note_on_c, 3, 56, 40
5, 748008, Note_off_c, 3, 56, 64
5, 748320, Note_on_c, 3, 53, 40
5, 748488, Note_off_c, 3, 53, 64
5, 748800, Note_on_c, 3, 51, 32
5, 749184, Note_off_c, 3, 51, 64
5, 750240, Note_on_c, 3, 63, 40
5, 750240, Note_on_c, 3, 67, 40
5, 750408, Note_off_c, 3, 67, 64
5, 750408, Note_off_c, 3, 63, 64
5, 750720, Note_on_c, 3, 60, 40
5, 750720, Note_on_c, 3, 63, 40
5, 750888, Note_off_c, 3, 63, 64
5, 750888, Note_off_c, 3, 60, 64
5, 751200, Note_on_c, 3, 67, 40
5, 751200, Note_on_c, 3, 63, 40
5, 751368, Note_off_c, 3, 63, 64
5, 751368, Note_off_c, 3, 67, 64
5, 752160, Note_on_c, 3, 63, 40
5, 752160, Note_on_c, 3, 60, 40
5, 752328, Note_off_c, 3, 60, 64
5, 752328, Note_off_c, 3, 63, 64
5, 752640, Note_on_c, 3, 60, 40
5, 752640, Note_on_c, 3, 56, 40
5, 752808, Note_off_c, 3, 56, 64
5, 752808, Note_off_c, 3, 60, 64
5, 753120, Note_on_c, 3, 60, 40
5, 753120, Note_on_c, 3, 65, 40
5, 753288, Note_off_c, 3, 65, 64
5, 753288, Note_off_c, 3, 60, 64
5, 754080, Note_on_c, 3, 60, 40
5, 754080, Note_on_c, 3, 56, 40
5, 754248, Note_off_c, 3, 56, 64
5, 754248, Note_off_c, 3, 60, 64
5, 754560, Note_on_c, 3, 58, 40
5, 754560, Note_on_c, 3, 53, 40
5, 754728, Note_off_c, 3, 53, 64
5, 754728, Note_off_c, 3, 58, 64
5, 755040, Note_on_c, 3, 62, 40
5, 755040, Note_on_c, 3, 58, 40
5, 755208, Note_off_c, 3, 58, 64
5, 755208, Note_off_c, 3, 62, 64
5, 756000, Note_on_c, 3, 62, 40
5, 756000, Note_on_c, 3, 58, 40
5, 756168, Note_off_c, 3, 58, 64
5, 756168, Note_off_c, 3, 62, 64
5, 756480, Note_on_c, 3, 51, 80
5, 756480, Note_on_c, 3, 63, 80
5, 759936, Note_off_c, 3, 63, 64
5, 759936, Note_off_c, 3, 51, 64
5, 760320, Note_on_c, 3, 51, 80
5, 760320, Note_on_c, 3, 63, 80
5, 761856, Note_off_c, 3, 63, 64
5, 761856, Note_off_c, 3, 51, 64
5, 762240, Note_on_c, 3, 51, 80
5, 762240, Note_on_c, 3, 63, 80
5, 762690, Note_off_c, 3, 63, 64
5, 762690, Note_off_c, 3, 51, 64
5, 763200, Note_on_c, 3, 51, 80
5, 763200, Note_on_c, 3, 63, 80
5, 763650, Note_off_c, 3, 63, 64
5, 763650, Note_off_c, 3, 51, 64
5, 764160, Note_on_c, 3, 63, 80
5, 764160, Note_on_c, 3, 51, 80
5, 764610, Note_off_c, 3, 51, 64
5, 764610, Note_off_c, 3, 63, 64
5, 771840, Note_on_c, 3, 59, 80
5, 771840, Note_on_c, 3, 62, 80
5, 775296, Note_off_c, 3, 62, 64
5, 775296, Note_off_c, 3, 59, 64
5, 775680, Note_on_c, 3, 59, 80
5, 775680, Note_on_c, 3, 62, 80
5, 777216, Note_off_c, 3, 62, 64
5, 777216, Note_off_c, 3, 59, 64
5, 777600, Note_on_c, 3, 59, 80
5, 777600, Note_on_c, 3, 62, 80
5, 778050, Note_off_c, 3, 62, 64
5, 778050, Note_off_c, 3, 59, 64
5, 778560, Note_on_c, 3, 59, 80
5, 778560, Note_on_c, 3, 62, 80
5, 779010, Note_off_c, 3, 62, 64
5, 779010, Note_off_c, 3, 59, 64
5, 779520, Note_on_c, 3, 62, 80
5, 779520, Note_on_c, 3, 59, 80
5, 779970, Note_off_c, 3, 59, 64
5, 779970, Note_off_c, 3, 62, 64
5, 787200, Note_on_c, 3, 61, 80
5, 787200, Note_on_c, 3, 58, 80
5, 790656, Note_off_c, 3, 58, 64
5, 790656, Note_off_c, 3, 61, 64
5, 791040, Note_on_c, 3, 61, 80
5, 791040, Note_on_c, 3, 58, 80
5, 792576, Note_off_c, 3, 58, 64
5, 792576, Note_off_c, 3, 61, 64
5, 792960, Note_on_c, 3, 58, 80
5, 792960, Note_on_c, 3, 61, 80
5, 793410, Note_off_c, 3, 61, 64
5, 793410, Note_off_c, 3, 58, 64
5, 793920, Note_on_c, 3, 61, 80
5, 793920, Note_on_c, 3, 58, 80
5, 794370, Note_off_c, 3, 58, 64
5, 794370, Note_off_c, 3, 61, 64
5, 794880, Note_on_c, 3, 61, 80
5, 794880, Note_on_c, 3, 55, 80
5, 795330, Note_off_c, 3, 55, 64
5, 795330, Note_off_c, 3, 61, 64
5, 796800, Note_on_c, 3, 61, 80
5, 796800, Note_on_c, 3, 55, 80
5, 797250, Note_off_c, 3, 55, 64
5, 797250, Note_off_c, 3, 61, 64
5, 798720, Note_on_c, 3, 61, 80
5, 798720, Note_on_c, 3, 55, 80
5, 799170, Note_off_c, 3, 55, 64
5, 799170, Note_off_c, 3, 61, 64
5, 800640, Note_on_c, 3, 61, 80
5, 800640, Note_on_c, 3, 55, 80
5, 801090, Note_off_c, 3, 55, 64
5, 801090, Note_off_c, 3, 61, 64
5, 802560, Note_on_c, 3, 61, 80
5, 802560, Note_on_c, 3, 55, 80
5, 803010, Note_off_c, 3, 55, 64
5, 803010, Note_off_c, 3, 61, 64
5, 806400, Note_on_c, 3, 61, 34
5, 806400, Note_on_c, 3, 55, 34
5, 806850, Note_off_c, 3, 55, 64
5, 806850, Note_off_c, 3, 61, 64
5, 810240, Note_on_c, 3, 61, 24
5, 810240, Note_on_c, 3, 55, 24
5, 810690, Note_off_c, 3, 55, 64
5, 810690, Note_off_c, 3, 61, 64
5, 933120, Note_on_c, 3, 58, 80
5, 933120, Note_on_c, 3, 62, 80
5, 938496, Note_off_c, 3, 62, 64
5, 938496, Note_off_c, 3, 58, 64
5, 938880, Note_on_c, 3, 58, 80
5, 938880, Note_on_c, 3, 62, 80
5, 939072, Note_off_c, 3, 62, 64
5, 939072, Note_off_c, 3, 58, 64
5, 940080, Note_on_c, 3, 58, 80
5, 940080, Note_on_c, 3, 62, 80
5, 940272, Note_off_c, 3, 62, 64
5, 940272, Note_off_c, 3, 58, 64
5, 941280, Note_on_c, 3, 58, 80
5, 941280, Note_on_c, 3, 62, 80
5, 941472, Note_off_c, 3, 62, 64
5, 941472, Note_off_c, 3, 58, 64
5, 941760, Note_on_c, 3, 58, 72
5, 941952, Note_off_c, 3, 58, 64
5, 942240, Note_on_c, 3, 53, 72
5, 942432, Note_off_c, 3, 53, 64
5, 942720, Note_on_c, 3, 58, 72
5, 942912, Note_off_c, 3, 58, 64
5, 943200, Note_on_c, 3, 50, 72
5, 943392, Note_off_c, 3, 50, 64
5, 943680, Note_on_c, 3, 53, 72
5, 943872, Note_off_c, 3, 53, 64
5, 944160, Note_on_c, 3, 46, 72
5, 944352, Note_off_c, 3, 46, 64
5, 944640, Note_on_c, 3, 50, 72
5, 944832, Note_off_c, 3, 50, 64
5, 945120, Note_on_c, 3, 43, 72
5, 945312, Note_off_c, 3, 43, 64
5, 945600, Note_on_c, 3, 51, 72
5, 945792, Note_off_c, 3, 51, 64
5, 946080, Note_on_c, 3, 48, 72
5, 946272, Note_off_c, 3, 48, 64
5, 946560, Note_on_c, 3, 46, 72
5, 946752, Note_off_c, 3, 46, 64
5, 947040, Note_on_c, 3, 45, 72
5, 947232, Note_off_c, 3, 45, 64
5, 947520, Note_on_c, 3, 53, 72
5, 947712, Note_off_c, 3, 53, 64
5, 948000, Note_on_c, 3, 51, 72
5, 948192, Note_off_c, 3, 51, 64
5, 948480, Note_on_c, 3, 48, 72
5, 948672, Note_off_c, 3, 48, 64
5, 948960, Note_on_c, 3, 46, 72
5, 949152, Note_off_c, 3, 46, 64
5, 953280, Note_on_c, 3, 63, 48
5, 953472, Note_off_c, 3, 63, 64
5, 953760, Note_on_c, 3, 60, 48
5, 953952, Note_off_c, 3, 60, 64
5, 954240, Note_on_c, 3, 58, 48
5, 954432, Note_off_c, 3, 58, 64
5, 954720, Note_on_c, 3, 57, 48
5, 954912, Note_off_c, 3, 57, 64
5, 955200, Note_on_c, 3, 65, 48
5, 955392, Note_off_c, 3, 65, 64
5, 955680, Note_on_c, 3, 63, 48
5, 955872, Note_off_c, 3, 63, 64
5, 956160, Note_on_c, 3, 60, 48
5, 956352, Note_off_c, 3, 60, 64
5, 956640, Note_on_c, 3, 58, 67
5, 956832, Note_off_c, 3, 58, 64
5, 962880, Note_on_c, 3, 67, 44
5, 963360, Note_off_c, 3, 67, 64
5, 963360, Note_on_c, 3, 64, 48
5, 963840, Note_off_c, 3, 64, 64
5, 963840, Note_on_c, 3, 65, 51
5, 964320, Note_off_c, 3, 65, 64
5, 964320, Note_on_c, 3, 62, 54
5, 964800, Note_off_c, 3, 62, 64
5, 964800, Note_on_c, 3, 63, 58
5, 965280, Note_off_c, 3, 63, 64
5, 965280, Note_on_c, 3, 60, 61
5, 965760, Note_off_c, 3, 60, 64
5, 965760, Note_on_c, 3, 62, 64
5, 966240, Note_off_c, 3, 62, 64
5, 966240, Note_on_c, 3, 59, 68
5, 966720, Note_off_c, 3, 59, 64
5, 966720, Note_on_c, 3, 60, 71
5, 967200, Note_off_c, 3, 60, 64
5, 967200, Note_on_c, 3, 63, 75
5, 967680, Note_off_c, 3, 63, 64
5, 967680, Note_on_c, 3, 57, 78
5, 968160, Note_off_c, 3, 57, 64
5, 968160, Note_on_c, 3, 58, 89
5, 968160, Note_on_c, 3, 46, 89
5, 971616, Note_off_c, 3, 46, 64
5, 971616, Note_off_c, 3, 58, 64
5, 972000, Note_on_c, 3, 51, 89
5, 972000, Note_on_c, 3, 63, 89
5, 973536, Note_off_c, 3, 63, 64
5, 973536, Note_off_c, 3, 51, 64
5, 973920, Note_on_c, 3, 53, 89
5, 973920, Note_on_c, 3, 65, 89
5, 975720, Note_off_c, 3, 65, 64
5, 975720, Note_off_c, 3, 53, 64
5, 975840, Note_on_c, 3, 62, 89
5, 975840, Note_on_c, 3, 50, 89
5, 978336, Note_off_c, 3, 50, 64
5, 978336, Note_off_c, 3, 62, 64
5, 978720, Note_on_c, 3, 55, 89
5, 978720, Note_on_c, 3, 67, 89
5, 979620, Note_off_c, 3, 67, 64
5, 979620, Note_off_c, 3, 55, 64
5, 979680, Note_on_c, 3, 63, 89
5, 979680, Note_on_c, 3, 51, 89
5, 981480, Note_off_c, 3, 51, 64
5, 981480, Note_off_c, 3, 63, 64
5, 981600, Note_on_c, 3, 56, 102
5, 981600, Note_on_c, 3, 68, 102
5, 983400, Note_off_c, 3, 68, 64
5, 983400, Note_off_c, 3, 56, 64
5, 983520, Note_on_c, 3, 65, 102
5, 983520, Note_on_c, 3, 53, 102
5, 986016, Note_off_c, 3, 53, 64
5, 986016, Note_off_c, 3, 65, 64
5, 986400, Note_on_c, 3, 53, 102
5, 986400, Note_on_c, 3, 58, 102
5, 987168, Note_off_c, 3, 58, 64
5, 987168, Note_off_c, 3, 53, 64
5, 987360, Note_on_c, 3, 58, 102
5, 987360, Note_on_c, 3, 55, 102
5, 988128, Note_off_c, 3, 55, 64
5, 988128, Note_off_c, 3, 58, 64
5, 988320, Note_on_c, 3, 55, 102
5, 988320, Note_on_c, 3, 60, 102
5, 989088, Note_off_c, 3, 60, 64
5, 989088, Note_off_c, 3, 55, 64
5, 989280, Note_on_c, 3, 60, 102
5, 989280, Note_on_c, 3, 57, 102
5, 990048, Note_off_c, 3, 57, 64
5, 990048, Note_off_c, 3, 60, 64
5, 990240, Note_on_c, 3, 57, 102
5, 990240, Note_on_c, 3, 62, 102
5, 991008, Note_off_c, 3, 62, 64
5, 991008, Note_off_c, 3, 57, 64
5, 991200, Note_on_c, 3, 62, 102
5, 991200, Note_on_c, 3, 58, 102
5, 991968, Note_off_c, 3, 58, 64
5, 991968, Note_off_c, 3, 62, 64
5, 992160, Note_on_c, 3, 63, 102
5, 992160, Note_on_c, 3, 58, 102
5, 992928, Note_off_c, 3, 58, 64
5, 992928, Note_off_c, 3, 63, 64
5, 993120, Note_on_c, 3, 63, 102
5, 993120, Note_on_c, 3, 60, 102
5, 993888, Note_off_c, 3, 60, 64
5, 993888, Note_off_c, 3, 63, 64
5, 994080, Note_on_c, 3, 65, 102
5, 994080, Note_on_c, 3, 60, 102
5, 994848, Note_off_c, 3, 60, 64
5, 994848, Note_off_c, 3, 65, 64
5, 995040, Note_on_c, 3, 58, 96
5, 995232, Note_off_c, 3, 58, 64
5, 995520, Note_on_c, 3, 60, 96
5, 995712, Note_off_c, 3, 60, 64
5, 996000, Note_on_c, 3, 62, 96
5, 996192, Note_off_c, 3, 62, 64
5, 996480, Note_on_c, 3, 63, 96
5, 996672, Note_off_c, 3, 63, 64
5, 996960, Note_on_c, 3, 65, 96
5, 997152, Note_off_c, 3, 65, 64
5, 997440, Note_on_c, 3, 63, 96
5, 997632, Note_off_c, 3, 63, 64
5, 997920, Note_on_c, 3, 62, 96
5, 998112, Note_off_c, 3, 62, 64
5, 998400, Note_on_c, 3, 60, 96
5, 998592, Note_off_c, 3, 60, 64
5, 998880, Note_on_c, 3, 58, 96
5, 999072, Note_off_c, 3, 58, 64
5, 999360, Note_on_c, 3, 57, 96
5, 999552, Note_off_c, 3, 57, 64
5, 999840, Note_on_c, 3, 55, 96
5, 1000032, Note_off_c, 3, 55, 64
5, 1000320, Note_on_c, 3, 53, 96
5, 1000512, Note_off_c, 3, 53, 64
5, 1000800, Note_on_c, 3, 51, 96
5, 1000992, Note_off_c, 3, 51, 64
5, 1001280, Note_on_c, 3, 50, 96
5, 1001472, Note_off_c, 3, 50, 64
5, 1001760, Note_on_c, 3, 48, 96
5, 1001952, Note_off_c, 3, 48, 64
5, 1002240, Note_on_c, 3, 46, 96
5, 1002432, Note_off_c, 3, 46, 64
5, 1002720, Note_on_c, 3, 41, 104
5, 1002720, Note_on_c, 3, 53, 104
5, 1002912, Note_off_c, 3, 53, 64
5, 1002912, Note_off_c, 3, 41, 64
5, 1003200, Note_on_c, 3, 60, 64
5, 1003200, Note_on_c, 3, 57, 64
5, 1003968, Note_off_c, 3, 57, 64
5, 1003968, Note_off_c, 3, 60, 64
5, 1004160, Note_on_c, 3, 58, 64
5, 1004160, Note_on_c, 3, 61, 64
5, 1005024, Note_off_c, 3, 61, 64
5, 1005024, Note_off_c, 3, 58, 64
5, 1005120, Note_on_c, 3, 60, 64
5, 1005120, Note_on_c, 3, 63, 64
5, 1005888, Note_off_c, 3, 63, 64
5, 1005888, Note_off_c, 3, 60, 64
5, 1006080, Note_on_c, 3, 55, 64
5, 1006080, Note_on_c, 3, 58, 64
5, 1006944, Note_off_c, 3, 58, 64
5, 1006944, Note_off_c, 3, 55, 64
5, 1007040, Note_on_c, 3, 57, 64
5, 1007040, Note_on_c, 3, 60, 64
5, 1007808, Note_off_c, 3, 60, 64
5, 1007808, Note_off_c, 3, 57, 64
5, 1008000, Note_on_c, 3, 61, 64
5, 1008000, Note_on_c, 3, 58, 64
5, 1008864, Note_off_c, 3, 58, 64
5, 1008864, Note_off_c, 3, 61, 64
5, 1008960, Note_on_c, 3, 61, 104
5, 1008960, Note_on_c, 3, 58, 64
5, 1009920, Note_off_c, 3, 58, 64
5, 1009920, Note_off_c, 3, 61, 64
5, 1009920, Note_on_c, 3, 57, 64
5, 1009920, Note_on_c, 3, 60, 64
5, 1010304, Note_off_c, 3, 60, 64
5, 1010304, Note_off_c, 3, 57, 64
5, 1010400, Note_on_c, 3, 57, 51
5, 1010400, Note_on_c, 3, 60, 51
5, 1010784, Note_off_c, 3, 60, 64
5, 1010784, Note_off_c, 3, 57, 64
5, 1010880, Note_on_c, 3, 60, 64
5, 1010880, Note_on_c, 3, 69, 64
5, 1011648, Note_off_c, 3, 69, 64
5, 1011648, Note_off_c, 3, 60, 64
5, 1011840, Note_on_c, 3, 61, 64
5, 1011840, Note_on_c, 3, 70, 64
5, 1012704, Note_off_c, 3, 70, 64
5, 1012704, Note_off_c, 3, 61, 64
5, 1012800, Note_on_c, 3, 72, 64
5, 1012800, Note_on_c, 3, 63, 64
5, 1013568, Note_off_c, 3, 63, 64
5, 1013568, Note_off_c, 3, 72, 64
5, 1013760, Note_on_c, 3, 67, 64
5, 1013760, Note_on_c, 3, 58, 64
5, 1014624, Note_off_c, 3, 58, 64
5, 1014624, Note_off_c, 3, 67, 64
5, 1014720, Note_on_c, 3, 69, 64
5, 1014720, Note_on_c, 3, 60, 64
5, 1015488, Note_off_c, 3, 60, 64
5, 1015488, Note_off_c, 3, 69, 64
5, 1015680, Note_on_c, 3, 61, 64
5, 1015680, Note_on_c, 3, 70, 64
5, 1016544, Note_off_c, 3, 70, 64
5, 1016544, Note_off_c, 3, 61, 64
5, 1016640, Note_on_c, 3, 70, 64
5, 1016640, Note_on_c, 3, 61, 64
5, 1017600, Note_off_c, 3, 61, 64
5, 1017600, Note_off_c, 3, 70, 64
5, 1017600, Note_on_c, 3, 60, 64
5, 1017600, Note_on_c, 3, 69, 64
5, 1017984, Note_off_c, 3, 69, 64
5, 1017984, Note_off_c, 3, 60, 64
5, 1025760, Note_on_c, 3, 65, 60
5, 1026000, Note_off_c, 3, 65, 64
5, 1026000, Note_on_c, 3, 62, 60
5, 1026240, Note_off_c, 3, 62, 64
5, 1026240, Note_on_c, 3, 63, 60
5, 1026480, Note_off_c, 3, 63, 64
5, 1026480, Note_on_c, 3, 60, 60
5, 1026720, Note_off_c, 3, 60, 64
5, 1026720, Note_on_c, 3, 58, 60
5, 1026912, Note_off_c, 3, 58, 64
5, 1027200, Note_on_c, 3, 53, 60
5, 1027392, Note_off_c, 3, 53, 64
5, 1027680, Note_on_c, 3, 58, 60
5, 1027872, Note_off_c, 3, 58, 64
5, 1028160, Note_on_c, 3, 60, 60
5, 1028352, Note_off_c, 3, 60, 64
5, 1028640, Note_on_c, 3, 62, 60
5, 1028832, Note_off_c, 3, 62, 64
5, 1029120, Note_on_c, 3, 63, 60
5, 1029312, Note_off_c, 3, 63, 64
5, 1029600, Note_on_c, 3, 65, 60
5, 1030500, Note_off_c, 3, 65, 64
5, 1044960, Note_on_c, 3, 57, 28
5, 1044960, Note_on_c, 3, 54, 28
5, 1046880, Note_off_c, 3, 54, 64
5, 1046880, Note_off_c, 3, 57, 64
5, 1046880, Note_on_c, 3, 58, 28
5, 1046880, Note_on_c, 3, 55, 28
5, 1048800, Note_off_c, 3, 55, 64
5, 1048800, Note_off_c, 3, 58, 64
5, 1048800, Note_on_c, 3, 57, 28
5, 1048800, Note_on_c, 3, 60, 28
5, 1050720, Note_off_c, 3, 60, 64
5, 1050720, Note_off_c, 3, 57, 64
5, 1050720, Note_on_c, 3, 55, 28
5, 1050720, Note_on_c, 3, 58, 28
5, 1052640, Note_off_c, 3, 58, 64
5, 1052640, Note_off_c, 3, 55, 64
5, 1073760, Note_on_c, 3, 60, 60
5, 1073760, Note_on_c, 3, 57, 60
5, 1074240, Note_off_c, 3, 57, 64
5, 1074240, Note_off_c, 3, 60, 64
5, 1074720, Note_on_c, 3, 57, 80
5, 1074720, Note_on_c, 3, 60, 80
5, 1075200, Note_off_c, 3, 60, 64
5, 1075200, Note_off_c, 3, 57, 64
5, 1075680, Note_on_c, 3, 57, 80
5, 1075680, Note_on_c, 3, 60, 80
5, 1076160, Note_off_c, 3, 60, 64
5, 1076160, Note_off_c, 3, 57, 64
5, 1076640, Note_on_c, 3, 57, 80
5, 1076640, Note_on_c, 3, 60, 80
5, 1077120, Note_off_c, 3, 60, 64
5, 1077120, Note_off_c, 3, 57, 64
5, 1077600, Note_on_c, 3, 57, 80
5, 1077600, Note_on_c, 3, 60, 80
5, 1078080, Note_off_c, 3, 60, 64
5, 1078080, Note_off_c, 3, 57, 64
5, 1078560, Note_on_c, 3, 57, 80
5, 1078560, Note_on_c, 3, 60, 80
5, 1079040, Note_off_c, 3, 60, 64
5, 1079040, Note_off_c, 3, 57, 64
5, 1079520, Note_on_c, 3, 50, 80
5, 1079520, Note_on_c, 3, 70, 80
5, 1079712, Note_off_c, 3, 70, 64
5, 1079712, Note_off_c, 3, 50, 64
5, 1081440, Note_on_c, 3, 51, 80
5, 1081440, Note_on_c, 3, 63, 80
5, 1081632, Note_off_c, 3, 63, 64
5, 1081632, Note_off_c, 3, 51, 64
5, 1083360, Note_on_c, 3, 53, 80
5, 1083360, Note_on_c, 3, 65, 80
5, 1083552, Note_off_c, 3, 65, 64
5, 1083552, Note_off_c, 3, 53, 64
5, 1084800, Note_on_c, 3, 65, 80
5, 1084800, Note_on_c, 3, 53, 80
5, 1084992, Note_off_c, 3, 53, 64
5, 1084992, Note_off_c, 3, 65, 64
5, 1085280, Note_on_c, 3, 51, 80
5, 1085280, Note_on_c, 3, 63, 80
5, 1085472, Note_off_c, 3, 63, 64
5, 1085472, Note_off_c, 3, 51, 64
5, 1085760, Note_on_c, 3, 63, 80
5, 1085760, Note_on_c, 3, 51, 80
5, 1085952, Note_off_c, 3, 51, 64
5, 1085952, Note_off_c, 3, 63, 64
5, 1086240, Note_on_c, 3, 51, 80
5, 1086240, Note_on_c, 3, 63, 80
5, 1086432, Note_off_c, 3, 63, 64
5, 1086432, Note_off_c, 3, 51, 64
5, 1086720, Note_on_c, 3, 51, 80
5, 1086720, Note_on_c, 3, 63, 80
5, 1086912, Note_off_c, 3, 63, 64
5, 1086912, Note_off_c, 3, 51, 64
5, 1087200, Note_on_c, 3, 62, 80
5, 1087200, Note_on_c, 3, 50, 80
5, 1087392, Note_off_c, 3, 50, 64
5, 1087392, Note_off_c, 3, 62, 64
5, 1088160, Note_on_c, 3, 63, 80
5, 1088160, Note_on_c, 3, 51, 80
5, 1088352, Note_off_c, 3, 51, 64
5, 1088352, Note_off_c, 3, 63, 64
5, 1089120, Note_on_c, 3, 53, 80
5, 1089120, Note_on_c, 3, 65, 80
5, 1089312, Note_off_c, 3, 65, 64
5, 1089312, Note_off_c, 3, 53, 64
5, 1090080, Note_on_c, 3, 53, 80
5, 1090080, Note_on_c, 3, 41, 80
5, 1090272, Note_off_c, 3, 41, 64
5, 1090272, Note_off_c, 3, 53, 64
5, 1092960, Note_on_c, 3, 62, 50
5, 1093440, Note_off_c, 3, 62, 64
5, 1093440, Note_on_c, 3, 63, 50
5, 1093920, Note_off_c, 3, 63, 64
5, 1093920, Note_on_c, 3, 65, 50
5, 1094400, Note_off_c, 3, 65, 64
5, 1094400, Note_on_c, 3, 53, 50
5, 1094880, Note_off_c, 3, 53, 64
5, 1094880, Note_on_c, 3, 58, 50
5, 1096320, Note_off_c, 3, 58, 64
5, 1096320, Note_on_c, 3, 60, 50
5, 1096800, Note_off_c, 3, 60, 64
5, 1096800, Note_on_c, 3, 62, 50
5, 1097280, Note_off_c, 3, 62, 64
5, 1097280, Note_on_c, 3, 58, 50
5, 1097760, Note_off_c, 3, 58, 64
5, 1097760, Note_on_c, 3, 62, 50
5, 1098240, Note_off_c, 3, 62, 64
5, 1098240, Note_on_c, 3, 63, 50
5, 1098720, Note_off_c, 3, 63, 64
5, 1098720, Note_on_c, 3, 65, 50
5, 1100160, Note_off_c, 3, 65, 64
5, 1100160, Note_on_c, 3, 67, 50
5, 1100640, Note_off_c, 3, 67, 64
5, 1100640, Note_on_c, 3, 69, 50
5, 1101120, Note_off_c, 3, 69, 64
5, 1101120, Note_on_c, 3, 70, 50
5, 1101600, Note_off_c, 3, 70, 64
5, 1101600, Note_on_c, 3, 72, 50
5, 1102080, Note_off_c, 3, 72, 64
5, 1102080, Note_on_c, 3, 70, 50
5, 1102560, Note_off_c, 3, 70, 64
5, 1102560, Note_on_c, 3, 69, 50
5, 1104000, Note_off_c, 3, 69, 64
5, 1104000, Note_on_c, 3, 67, 50
5, 1104480, Note_off_c, 3, 67, 64
5, 1104480, Note_on_c, 3, 65, 50
5, 1104960, Note_off_c, 3, 65, 64
5, 1104960, Note_on_c, 3, 67, 50
5, 1105440, Note_off_c, 3, 67, 64
5, 1105440, Note_on_c, 3, 63, 50
5, 1105920, Note_off_c, 3, 63, 64
5, 1105920, Note_on_c, 3, 60, 50
5, 1106400, Note_off_c, 3, 60, 64
5, 1106400, Note_on_c, 3, 46, 80
5, 1107300, Note_off_c, 3, 46, 64
5, 1107360, Note_on_c, 3, 53, 80
5, 1107600, Note_off_c, 3, 53, 64
5, 1108320, Note_on_c, 3, 50, 80
5, 1108800, Note_off_c, 3, 50, 64
5, 1108800, Note_on_c, 3, 51, 80
5, 1109040, Note_off_c, 3, 51, 64
5, 1109280, Note_on_c, 3, 53, 80
5, 1109520, Note_off_c, 3, 53, 64
5, 1109760, Note_on_c, 3, 41, 80
5, 1110000, Note_off_c, 3, 41, 64
5, 1110240, Note_on_c, 3, 46, 80
5, 1111392, Note_off_c, 3, 46, 64
5, 1111680, Note_on_c, 3, 48, 80
5, 1111920, Note_off_c, 3, 48, 64
5, 1112160, Note_on_c, 3, 50, 80
5, 1112640, Note_off_c, 3, 50, 64
5, 1112640, Note_on_c, 3, 46, 80
5, 1112880, Note_off_c, 3, 46, 64
5, 1113120, Note_on_c, 3, 50, 80
5, 1113360, Note_off_c, 3, 50, 64
5, 1113600, Note_on_c, 3, 51, 80
5, 1113840, Note_off_c, 3, 51, 64
5, 1114080, Note_on_c, 3, 53, 80
5, 1115232, Note_off_c, 3, 53, 64
5, 1115520, Note_on_c, 3, 55, 80
5, 1115760, Note_off_c, 3, 55, 64
5, 1116000, Note_on_c, 3, 57, 80
5, 1116480, Note_off_c, 3, 57, 64
5, 1116480, Note_on_c, 3, 58, 80
5, 1116720, Note_off_c, 3, 58, 64
5, 1116960, Note_on_c, 3, 60, 80
5, 1117200, Note_off_c, 3, 60, 64
5, 1117440, Note_on_c, 3, 58, 80
5, 1117680, Note_off_c, 3, 58, 64
5, 1117920, Note_on_c, 3, 57, 80
5, 1119072, Note_off_c, 3, 57, 64
5, 1119360, Note_on_c, 3, 55, 80
5, 1119600, Note_off_c, 3, 55, 64
5, 1119840, Note_on_c, 3, 53, 80
5, 1120320, Note_off_c, 3, 53, 64
5, 1120320, Note_on_c, 3, 55, 80
5, 1120560, Note_off_c, 3, 55, 64
5, 1120800, Note_on_c, 3, 51, 64
5, 1121040, Note_off_c, 3, 51, 64
5, 1121280, Note_on_c, 3, 48, 64
5, 1121520, Note_off_c, 3, 48, 64
5, 1122240, Note_on_c, 3, 67, 40
5, 1122720, Note_off_c, 3, 67, 64
5, 1122720, Note_on_c, 3, 63, 40
5, 1123200, Note_off_c, 3, 63, 64
5, 1123200, Note_on_c, 3, 60, 40
5, 1123584, Note_off_c, 3, 60, 64
5, 1123680, Note_on_c, 3, 57, 40
5, 1124064, Note_off_c, 3, 57, 64
5, 1129440, Note_on_c, 3, 58, 62
5, 1129440, Note_on_c, 3, 46, 62
5, 1129680, Note_off_c, 3, 46, 64
5, 1129680, Note_off_c, 3, 58, 64
5, 1130880, Note_on_c, 3, 55, 62
5, 1131072, Note_off_c, 3, 55, 64
5, 1131360, Note_on_c, 3, 51, 62
5, 1131600, Note_off_c, 3, 51, 64
5, 1132320, Note_on_c, 3, 53, 62
5, 1132560, Note_off_c, 3, 53, 64
5, 1137120, Note_on_c, 3, 58, 62
5, 1137120, Note_on_c, 3, 46, 62
5, 1137360, Note_off_c, 3, 46, 64
5, 1137360, Note_off_c, 3, 58, 64
5, 1138560, Note_on_c, 3, 55, 62
5, 1138752, Note_off_c, 3, 55, 64
5, 1139040, Note_on_c, 3, 51, 62
5, 1139280, Note_off_c, 3, 51, 64
5, 1140000, Note_on_c, 3, 53, 62
5, 1140240, Note_off_c, 3, 53, 64
5, 1142880, Note_on_c, 3, 52, 40
5, 1144724, Note_off_c, 3, 52, 64
5, 1144800, Note_on_c, 3, 52, 51
5, 1146644, Note_off_c, 3, 52, 64
5, 1146720, Note_on_c, 3, 53, 62
5, 1148564, Note_off_c, 3, 53, 64
5, 1148640, Note_on_c, 3, 55, 73
5, 1150484, Note_off_c, 3, 55, 64
5, 1150560, Note_on_c, 3, 57, 84
5, 1152404, Note_off_c, 3, 57, 64
5, 1152480, Note_on_c, 3, 58, 80
5, 1152864, Note_off_c, 3, 58, 64
5, 1152960, Note_on_c, 3, 66, 80
5, 1152960, Note_on_c, 3, 54, 80
5, 1155936, Note_off_c, 3, 54, 64
5, 1155936, Note_off_c, 3, 66, 64
5, 1156320, Note_on_c, 3, 62, 80
5, 1156320, Note_on_c, 3, 53, 80
5, 1157856, Note_off_c, 3, 53, 64
5, 1157856, Note_off_c, 3, 62, 64
5, 1158240, Note_on_c, 3, 53, 80
5, 1158240, Note_on_c, 3, 41, 80
5, 1159776, Note_off_c, 3, 41, 64
5, 1159776, Note_off_c, 3, 53, 64
5, 1160160, Note_on_c, 3, 58, 127
5, 1160160, Note_on_c, 3, 46, 127
5, 1160544, Note_off_c, 3, 46, 64
5, 1160544, Note_off_c, 3, 58, 64
5, 1166400, Note_on_c, 3, 60, 80
5, 1166400, Note_on_c, 3, 63, 80
5, 1167168, Note_off_c, 3, 63, 64
5, 1167168, Note_off_c, 3, 60, 64
5, 1167360, Note_on_c, 3, 60, 80
5, 1167360, Note_on_c, 3, 63, 80
5, 1167600, Note_off_c, 3, 63, 64
5, 1167600, Note_off_c, 3, 60, 64
5, 1167840, Note_on_c, 3, 58, 127
5, 1168224, Note_off_c, 3, 58, 64
5, 1174080, Note_on_c, 3, 60, 80
5, 1174080, Note_on_c, 3, 63, 80
5, 1174848, Note_off_c, 3, 63, 64
5, 1174848, Note_off_c, 3, 60, 64
5, 1175040, Note_on_c, 3, 63, 80
5, 1175040, Note_on_c, 3, 60, 80
5, 1175280, Note_off_c, 3, 60, 64
5, 1175280, Note_off_c, 3, 63, 64
5, 1175520, Note_on_c, 3, 58, 127
5, 1175904, Note_off_c, 3, 58, 64
5, 1177920, Note_on_c, 3, 60, 80
5, 1177920, Note_on_c, 3, 63, 80
5, 1178688, Note_off_c, 3, 63, 64
5, 1178688, Note_off_c, 3, 60, 64
5, 1178880, Note_on_c, 3, 63, 80
5, 1178880, Note_on_c, 3, 60, 80
5, 1179120, Note_off_c, 3, 60, 64
5, 1179120, Note_off_c, 3, 63, 64
5, 1179360, Note_on_c, 3, 63, 80
5, 1179360, Note_on_c, 3, 60, 80
5, 1182946, Note_off_c, 3, 60, 64
5, 1182946, Note_off_c, 3, 63, 64
5, 1183080, Note_on_c, 3, 63, 80
5, 1183080, Note_on_c, 3, 60, 80
5, 1183194, Note_off_c, 3, 60, 64
5, 1183194, Note_off_c, 3, 63, 64
5, 1183200, Note_on_c, 3, 60, 80
5, 1183200, Note_on_c, 3, 63, 80
5, 1183392, Note_off_c, 3, 63, 64
5, 1183392, Note_off_c, 3, 60, 64
5, 1185120, Note_on_c, 3, 60, 80
5, 1185120, Note_on_c, 3, 63, 80
5, 1185312, Note_off_c, 3, 63, 64
5, 1185312, Note_off_c, 3, 60, 64
5, 1187040, Note_on_c, 3, 63, 80
5, 1187040, Note_on_c, 3, 60, 80
5, 1187232, Note_off_c, 3, 60, 64
5, 1187232, Note_off_c, 3, 63, 64
5, 1188000, Note_on_c, 3, 63, 80
5, 1188000, Note_on_c, 3, 60, 80
5, 1188192, Note_off_c, 3, 60, 64
5, 1188192, Note_off_c, 3, 63, 64
5, 1188960, Note_on_c, 3, 60, 80
5, 1188960, Note_on_c, 3, 63, 80
5, 1189152, Note_off_c, 3, 63, 64
5, 1189152, Note_off_c, 3, 60, 64
5, 1189920, Note_on_c, 3, 60, 80
5, 1189920, Note_on_c, 3, 63, 80
5, 1190112, Note_off_c, 3, 63, 64
5, 1190112, Note_off_c, 3, 60, 64
5, 1190880, Note_on_c, 3, 58, 80
5, 1190880, Note_on_c, 3, 46, 80
5, 1191072, Note_off_c, 3, 46, 64
5, 1191072, Note_off_c, 3, 58, 64
5, 1191360, Note_on_c, 3, 62, 80
5, 1191552, Note_off_c, 3, 62, 64
5, 1191840, Note_on_c, 3, 58, 80
5, 1192032, Note_off_c, 3, 58, 64
5, 1192320, Note_on_c, 3, 62, 80
5, 1192512, Note_off_c, 3, 62, 64
5, 1193280, Note_on_c, 3, 58, 80
5, 1193472, Note_off_c, 3, 58, 64
5, 1193760, Note_on_c, 3, 53, 80
5, 1193952, Note_off_c, 3, 53, 64
5, 1194240, Note_on_c, 3, 58, 80
5, 1194432, Note_off_c, 3, 58, 64
5, 1195200, Note_on_c, 3, 53, 80
5, 1195392, Note_off_c, 3, 53, 64
5, 1195680, Note_on_c, 3, 50, 80
5, 1195872, Note_off_c, 3, 50, 64
5, 1196160, Note_on_c, 3, 53, 80
5, 1196352, Note_off_c, 3, 53, 64
5, 1197120, Note_on_c, 3, 50, 80
5, 1197312, Note_off_c, 3, 50, 64
5, 1197600, Note_on_c, 3, 46, 80
5, 1197792, Note_off_c, 3, 46, 64
5, 1198080, Note_on_c, 3, 50, 80
5, 1198272, Note_off_c, 3, 50, 64
5, 1198560, Note_on_c, 3, 58, 80
5, 1198560, Note_on_c, 3, 46, 80
5, 1198752, Note_off_c, 3, 46, 64
5, 1198752, Note_off_c, 3, 58, 64
5, 1199040, Note_on_c, 3, 65, 80
5, 1199232, Note_off_c, 3, 65, 64
5, 1199520, Note_on_c, 3, 62, 80
5, 1199712, Note_off_c, 3, 62, 64
5, 1200000, Note_on_c, 3, 65, 80
5, 1200192, Note_off_c, 3, 65, 64
5, 1200960, Note_on_c, 3, 62, 80
5, 1201152, Note_off_c, 3, 62, 64
5, 1201440, Note_on_c, 3, 58, 80
5, 1201632, Note_off_c, 3, 58, 64
5, 1201920, Note_on_c, 3, 62, 80
5, 1202112, Note_off_c, 3, 62, 64
5, 1202880, Note_on_c, 3, 58, 80
5, 1203072, Note_off_c, 3, 58, 64
5, 1203360, Note_on_c, 3, 53, 80
5, 1203552, Note_off_c, 3, 53, 64
5, 1203840, Note_on_c, 3, 58, 80
5, 1204032, Note_off_c, 3, 58, 64
5, 1204800, Note_on_c, 3, 53, 80
5, 1204992, Note_off_c, 3, 53, 64
5, 1205280, Note_on_c, 3, 50, 80
5, 1205472, Note_off_c, 3, 50, 64
5, 1205760, Note_on_c, 3, 53, 80
5, 1205952, Note_off_c, 3, 53, 64
5, 1206240, Note_on_c, 3, 46, 80
5, 1206432, Note_off_c, 3, 46, 64
5, 1210080, Note_on_c, 3, 41, 76
5, 1211616, Note_off_c, 3, 41, 64
5, 1212000, Note_on_c, 3, 41, 76
5, 1213584, Note_off_c, 3, 41, 64
5, 1213800, Note_on_c, 3, 41, 76
5, 1213896, Note_off_c, 3, 41, 64
5, 1213920, Note_on_c, 3, 46, 116
5, 1214112, Note_off_c, 3, 46, 64
5, 1217760, Note_on_c, 3, 41, 76
5, 1219296, Note_off_c, 3, 41, 64
5, 1219680, Note_on_c, 3, 41, 76
5, 1221264, Note_off_c, 3, 41, 64
5, 1221480, Note_on_c, 3, 41, 76
5, 1221576, Note_off_c, 3, 41, 64
5, 1229280, Note_on_c, 3, 50, 80
5, 1229280, Note_on_c, 3, 58, 80
5, 1232736, Note_off_c, 3, 58, 64
5, 1232736, Note_off_c, 3, 50, 64
5, 1233120, Note_on_c, 3, 53, 75
5, 1233120, Note_on_c, 3, 60, 75
5, 1236576, Note_off_c, 3, 60, 64
5, 1236576, Note_off_c, 3, 53, 64
5, 1236960, Note_on_c, 3, 58, 101
5, 1236960, Note_on_c, 3, 50, 101
5, 1236960, Note_on_c, 3, 46, 101
5, 1236960, Note_on_c, 3, 34, 101
5, 1244256, Note_off_c, 3, 34, 64
5, 1244256, Note_off_c, 3, 46, 64
5, 1244256, Note_off_c, 3, 50, 64
5, 1244256, Note_off_c, 3, 58, 64
5, 1244640, Note_on_c, 3, 50, 120
5, 1244640, Note_on_c, 3, 58, 120
5, 1244880, Note_off_c, 3, 58, 64
5, 1244880, Note_off_c, 3, 50, 64
5, 1245600, Note_on_c, 3, 50, 120
5, 1245600, Note_on_c, 3, 58, 120
5, 1245840, Note_off_c, 3, 58, 64
5, 1245840, Note_off_c, 3, 50, 64
5, 1246560, Note_on_c, 3, 50, 120
5, 1246560, Note_on_c, 3, 58, 120
5, 1246800, Note_off_c, 3, 58, 64
5, 1246800, Note_off_c, 3, 50, 64
5, 1248480, Note_on_c, 3, 50, 120
5, 1248480, Note_on_c, 3, 58, 120
5, 1248720, Note_off_c, 3, 58, 64
5, 1248720, Note_off_c, 3, 50, 64
5, 1250400, Note_on_c, 3, 34, 80
5, 1250400, Note_on_c, 3, 46, 80
5, 1250784, Note_off_c, 3, 46, 64
5, 1250784, Note_off_c, 3, 34, 64
5, 1257600, Control_c, 3, 123, 127
5, 1257600, End_track
6, 0, Start_track
6, 0, Title_t, "Horns 1,2"
6, 0, MIDI_port, 0
6, 0, Channel_prefix, 4
6, 0, Control_c, 4, 7, 89
6, 0, Control_c, 4, 10, 35
6, 0, Program_c, 4, 60
6, 480, Program_c, 4, 60
6, 480, Control_c, 4, 91, 85
6, 480, Control_c, 4, 93, 85
6, 480, Control_c, 4, 7, 90
6, 480, Control_c, 4, 10, 36
6, 5700, Control_c, 4, 7, 75
6, 24480, Note_on_c, 4, 41, 30
6, 24480, Note_on_c, 4, 53, 30
6, 24672, Note_off_c, 4, 53, 64
6, 24672, Note_off_c, 4, 41, 64
6, 24960, Note_on_c, 4, 53, 30
6, 24960, Note_on_c, 4, 41, 30
6, 25152, Note_off_c, 4, 41, 64
6, 25152, Note_off_c, 4, 53, 64
6, 26400, Note_on_c, 4, 53, 30
6, 26400, Note_on_c, 4, 41, 30
6, 26592, Note_off_c, 4, 41, 64
6, 26592, Note_off_c, 4, 53, 64
6, 26880, Note_on_c, 4, 53, 30
6, 26880, Note_on_c, 4, 41, 30
6, 27072, Note_off_c, 4, 41, 64
6, 27072, Note_off_c, 4, 53, 64
6, 27360, Note_on_c, 4, 41, 30
6, 27360, Note_on_c, 4, 53, 30
6, 27552, Note_off_c, 4, 53, 64
6, 27552, Note_off_c, 4, 41, 64
6, 27840, Note_on_c, 4, 41, 30
6, 27840, Note_on_c, 4, 53, 30
6, 28032, Note_off_c, 4, 53, 64
6, 28032, Note_off_c, 4, 41, 64
6, 28320, Note_on_c, 4, 41, 30
6, 28320, Note_on_c, 4, 53, 30
6, 28512, Note_off_c, 4, 53, 64
6, 28512, Note_off_c, 4, 41, 64
6, 28800, Note_on_c, 4, 34, 30
6, 28800, Note_on_c, 4, 46, 30
6, 38280, Note_off_c, 4, 46, 64
6, 38280, Note_off_c, 4, 34, 64
6, 60960, Note_on_c, 4, 65, 65
6, 60960, Note_on_c, 4, 58, 65
6, 61905, Control_c, 4, 7, 77
6, 61929, Control_c, 4, 7, 76
6, 61957, Control_c, 4, 7, 75
6, 61969, Control_c, 4, 7, 74
6, 61997, Control_c, 4, 7, 73
6, 62025, Control_c, 4, 7, 72
6, 62037, Control_c, 4, 7, 71
6, 62065, Control_c, 4, 7, 70
6, 62089, Control_c, 4, 7, 69
6, 62105, Control_c, 4, 7, 68
6, 62129, Control_c, 4, 7, 67
6, 62145, Control_c, 4, 7, 66
6, 62169, Control_c, 4, 7, 65
6, 62197, Control_c, 4, 7, 64
6, 62209, Control_c, 4, 7, 63
6, 62237, Control_c, 4, 7, 62
6, 62265, Control_c, 4, 7, 61
6, 62277, Control_c, 4, 7, 60
6, 62305, Control_c, 4, 7, 59
6, 62329, Control_c, 4, 7, 58
6, 62345, Control_c, 4, 7, 57
6, 62369, Control_c, 4, 7, 56
6, 62385, Control_c, 4, 7, 55
6, 62409, Control_c, 4, 7, 54
6, 62437, Control_c, 4, 7, 53
6, 62449, Control_c, 4, 7, 52
6, 62477, Control_c, 4, 7, 51
6, 62505, Control_c, 4, 7, 50
6, 62517, Control_c, 4, 7, 49
6, 62545, Control_c, 4, 7, 48
6, 62569, Control_c, 4, 7, 47
6, 62585, Control_c, 4, 7, 46
6, 62609, Control_c, 4, 7, 45
6, 62625, Control_c, 4, 7, 44
6, 62649, Control_c, 4, 7, 43
6, 62677, Control_c, 4, 7, 42
6, 62689, Control_c, 4, 7, 41
6, 62717, Control_c, 4, 7, 40
6, 62745, Control_c, 4, 7, 39
6, 62757, Control_c, 4, 7, 38
6, 62785, Control_c, 4, 7, 37
6, 62809, Control_c, 4, 7, 36
6, 62825, Control_c, 4, 7, 35
6, 62836, Note_off_c, 4, 58, 64
6, 62836, Note_off_c, 4, 65, 64
6, 62849, Control_c, 4, 7, 34
6, 62865, Control_c, 4, 7, 73
6, 62880, Note_on_c, 4, 58, 36
6, 62880, Note_on_c, 4, 65, 36
6, 63360, Note_off_c, 4, 65, 64
6, 63360, Note_off_c, 4, 58, 64
6, 64305, Control_c, 4, 7, 72
6, 72480, Control_c, 4, 7, 90
6, 72960, Note_on_c, 4, 53, 100
6, 72960, Note_on_c, 4, 65, 100
6, 74736, Note_off_c, 4, 65, 64
6, 74736, Note_off_c, 4, 53, 64
6, 74820, Note_on_c, 4, 53, 80
6, 74820, Note_on_c, 4, 65, 100
6, 74850, Note_off_c, 4, 65, 64
6, 74850, Note_off_c, 4, 53, 64
6, 74880, Note_on_c, 4, 53, 100
6, 74880, Note_on_c, 4, 65, 100
6, 74976, Note_off_c, 4, 65, 64
6, 74976, Note_off_c, 4, 53, 64
6, 76800, Note_on_c, 4, 53, 100
6, 76800, Note_on_c, 4, 60, 100
6, 78576, Note_off_c, 4, 60, 64
6, 78576, Note_off_c, 4, 53, 64
6, 78660, Note_on_c, 4, 53, 80
6, 78660, Note_on_c, 4, 60, 100
6, 78690, Note_off_c, 4, 60, 64
6, 78690, Note_off_c, 4, 53, 64
6, 78720, Note_on_c, 4, 53, 100
6, 78720, Note_on_c, 4, 60, 100
6, 78960, Note_off_c, 4, 60, 64
6, 78960, Note_off_c, 4, 53, 64
6, 80640, Note_on_c, 4, 60, 80
6, 80640, Note_on_c, 4, 53, 80
6, 80880, Note_off_c, 4, 53, 64
6, 80880, Note_off_c, 4, 60, 64
6, 82560, Note_on_c, 4, 60, 80
6, 82560, Note_on_c, 4, 53, 80
6, 82800, Note_off_c, 4, 53, 64
6, 82800, Note_off_c, 4, 60, 64
6, 83520, Note_on_c, 4, 53, 80
6, 83520, Note_on_c, 4, 60, 80
6, 83760, Note_off_c, 4, 60, 64
6, 83760, Note_off_c, 4, 53, 64
6, 84480, Note_on_c, 4, 53, 80
6, 84480, Note_on_c, 4, 60, 80
6, 84720, Note_off_c, 4, 60, 64
6, 84720, Note_off_c, 4, 53, 64
6, 85440, Note_on_c, 4, 53, 80
6, 85440, Note_on_c, 4, 60, 80
6, 85680, Note_off_c, 4, 60, 64
6, 85680, Note_off_c, 4, 53, 64
6, 86400, Note_on_c, 4, 58, 80
6, 86400, Note_on_c, 4, 62, 80
6, 86640, Note_off_c, 4, 62, 64
6, 86640, Note_off_c, 4, 58, 64
6, 97440, Note_on_c, 4, 60, 38
6, 97920, Note_off_c, 4, 60, 64
6, 97920, Note_on_c, 4, 60, 38
6, 97920, Note_on_c, 4, 53, 38
6, 101760, Note_off_c, 4, 53, 64
6, 101760, Note_off_c, 4, 60, 64
6, 101760, Note_on_c, 4, 53, 80
6, 101760, Note_on_c, 4, 60, 80
6, 102000, Note_off_c, 4, 60, 64
6, 102000, Note_off_c, 4, 53, 64
6, 103680, Note_on_c, 4, 60, 80
6, 103680, Note_on_c, 4, 53, 80
6, 103920, Note_off_c, 4, 53, 64
6, 103920, Note_off_c, 4, 60, 64
6, 104640, Note_on_c, 4, 53, 80
6, 104640, Note_on_c, 4, 60, 80
6, 104880, Note_off_c, 4, 60, 64
6, 104880, Note_off_c, 4, 53, 64
6, 105600, Note_on_c, 4, 62, 80
6, 105600, Note_on_c, 4, 58, 80
6, 105840, Note_off_c, 4, 58, 64
6, 105840, Note_off_c, 4, 62, 64
6, 106080, Note_on_c, 4, 58, 56
6, 106080, Note_on_c, 4, 46, 56
6, 106320, Note_off_c, 4, 46, 64
6, 106320, Note_off_c, 4, 58, 64
6, 106560, Note_on_c, 4, 46, 56
6, 106560, Note_on_c, 4, 58, 56
6, 106800, Note_off_c, 4, 58, 64
6, 106800, Note_off_c, 4, 46, 64
6, 107040, Note_on_c, 4, 46, 56
6, 107040, Note_on_c, 4, 58, 56
6, 107280, Note_off_c, 4, 58, 64
6, 107280, Note_off_c, 4, 46, 64
6, 107520, Note_on_c, 4, 58, 56
6, 107520, Note_on_c, 4, 46, 56
6, 107760, Note_off_c, 4, 46, 64
6, 107760, Note_off_c, 4, 58, 64
6, 108000, Note_on_c, 4, 46, 56
6, 108000, Note_on_c, 4, 58, 56
6, 108240, Note_off_c, 4, 58, 64
6, 108240, Note_off_c, 4, 46, 64
6, 108480, Note_on_c, 4, 58, 56
6, 108480, Note_on_c, 4, 46, 56
6, 108720, Note_off_c, 4, 46, 64
6, 108720, Note_off_c, 4, 58, 64
6, 108960, Note_on_c, 4, 58, 56
6, 108960, Note_on_c, 4, 46, 56
6, 109200, Note_off_c, 4, 46, 64
6, 109200, Note_off_c, 4, 58, 64
6, 109440, Note_on_c, 4, 58, 56
6, 109440, Note_on_c, 4, 46, 56
6, 109680, Note_off_c, 4, 46, 64
6, 109680, Note_off_c, 4, 58, 64
6, 109920, Note_on_c, 4, 58, 56
6, 109920, Note_on_c, 4, 46, 56
6, 110160, Note_off_c, 4, 46, 64
6, 110160, Note_off_c, 4, 58, 64
6, 110400, Note_on_c, 4, 58, 56
6, 110400, Note_on_c, 4, 46, 56
6, 110640, Note_off_c, 4, 46, 64
6, 110640, Note_off_c, 4, 58, 64
6, 110880, Note_on_c, 4, 58, 56
6, 110880, Note_on_c, 4, 46, 56
6, 111120, Note_off_c, 4, 46, 64
6, 111120, Note_off_c, 4, 58, 64
6, 111360, Note_on_c, 4, 53, 56
6, 111360, Note_on_c, 4, 60, 56
6, 111600, Note_off_c, 4, 60, 64
6, 111600, Note_off_c, 4, 53, 64
6, 111840, Note_on_c, 4, 53, 56
6, 111840, Note_on_c, 4, 60, 56
6, 112080, Note_off_c, 4, 60, 64
6, 112080, Note_off_c, 4, 53, 64
6, 112320, Note_on_c, 4, 53, 56
6, 112320, Note_on_c, 4, 60, 56
6, 112560, Note_off_c, 4, 60, 64
6, 112560, Note_off_c, 4, 53, 64
6, 112800, Note_on_c, 4, 53, 56
6, 112800, Note_on_c, 4, 60, 56
6, 113040, Note_off_c, 4, 60, 64
6, 113040, Note_off_c, 4, 53, 64
6, 113280, Note_on_c, 4, 58, 56
6, 113280, Note_on_c, 4, 46, 56
6, 113520, Note_off_c, 4, 46, 64
6, 113520, Note_off_c, 4, 58, 64
6, 116160, Note_on_c, 4, 58, 56
6, 116160, Note_on_c, 4, 62, 56
6, 116400, Note_off_c, 4, 62, 64
6, 116400, Note_off_c, 4, 58, 64
6, 116640, Note_on_c, 4, 58, 56
6, 116640, Note_on_c, 4, 60, 56
6, 116880, Note_off_c, 4, 60, 64
6, 116880, Note_off_c, 4, 58, 64
6, 117120, Note_on_c, 4, 53, 56
6, 117120, Note_on_c, 4, 60, 56
6, 121248, Note_off_c, 4, 60, 64
6, 121248, Note_off_c, 4, 53, 64
6, 121920, Note_on_c, 4, 60, 63
6, 121920, Note_on_c, 4, 53, 63
6, 122208, Note_off_c, 4, 53, 64
6, 122208, Note_off_c, 4, 60, 64
6, 123840, Note_on_c, 4, 50, 63
6, 123840, Note_on_c, 4, 58, 63
6, 124128, Note_off_c, 4, 58, 64
6, 124128, Note_off_c, 4, 50, 64
6, 125760, Note_on_c, 4, 63, 63
6, 125760, Note_on_c, 4, 60, 63
6, 126048, Note_off_c, 4, 60, 64
6, 126048, Note_off_c, 4, 63, 64
6, 127680, Note_on_c, 4, 53, 63
6, 127680, Note_on_c, 4, 60, 63
6, 127968, Note_off_c, 4, 60, 64
6, 127968, Note_off_c, 4, 53, 64
6, 128640, Note_on_c, 4, 46, 32
6, 128640, Note_on_c, 4, 58, 32
6, 135936, Note_off_c, 4, 58, 64
6, 135936, Note_off_c, 4, 46, 64
6, 136320, Note_on_c, 4, 46, 32
6, 136320, Note_on_c, 4, 58, 32
6, 143616, Note_off_c, 4, 58, 64
6, 143616, Note_off_c, 4, 46, 64
6, 144000, Note_on_c, 4, 46, 32
6, 144000, Note_on_c, 4, 58, 32
6, 147456, Note_off_c, 4, 58, 64
6, 147456, Note_off_c, 4, 46, 64
6, 147840, Note_on_c, 4, 46, 32
6, 147840, Note_on_c, 4, 58, 32
6, 151296, Note_off_c, 4, 58, 64
6, 151296, Note_off_c, 4, 46, 64
6, 151680, Note_on_c, 4, 46, 64
6, 151680, Note_on_c, 4, 58, 64
6, 152448, Note_off_c, 4, 58, 64
6, 152448, Note_off_c, 4, 46, 64
6, 152640, Note_on_c, 4, 46, 64
6, 152640, Note_on_c, 4, 58, 64
6, 153408, Note_off_c, 4, 58, 64
6, 153408, Note_off_c, 4, 46, 64
6, 153600, Note_on_c, 4, 46, 64
6, 153600, Note_on_c, 4, 58, 64
6, 154368, Note_off_c, 4, 58, 64
6, 154368, Note_off_c, 4, 46, 64
6, 154560, Note_on_c, 4, 46, 64
6, 154560, Note_on_c, 4, 58, 64
6, 155328, Note_off_c, 4, 58, 64
6, 155328, Note_off_c, 4, 46, 64
6, 155520, Note_on_c, 4, 53, 64
6, 155520, Note_on_c, 4, 60, 64
6, 156288, Note_off_c, 4, 60, 64
6, 156288, Note_off_c, 4, 53, 64
6, 156480, Note_on_c, 4, 53, 64
6, 156480, Note_on_c, 4, 60, 64
6, 157248, Note_off_c, 4, 60, 64
6, 157248, Note_off_c, 4, 53, 64
6, 157440, Note_on_c, 4, 60, 64
6, 157440, Note_on_c, 4, 53, 64
6, 158208, Note_off_c, 4, 53, 64
6, 158208, Note_off_c, 4, 60, 64
6, 158400, Note_on_c, 4, 60, 64
6, 158400, Note_on_c, 4, 53, 64
6, 159168, Note_off_c, 4, 53, 64
6, 159168, Note_off_c, 4, 60, 64
6, 159360, Note_on_c, 4, 58, 112
6, 159360, Note_on_c, 4, 50, 112
6, 159552, Note_off_c, 4, 50, 64
6, 159552, Note_off_c, 4, 58, 64
6, 159840, Note_on_c, 4, 46, 112
6, 159840, Note_on_c, 4, 58, 112
6, 160032, Note_off_c, 4, 58, 64
6, 160032, Note_off_c, 4, 46, 64
6, 160320, Note_on_c, 4, 58, 112
6, 160320, Note_on_c, 4, 46, 112
6, 160512, Note_off_c, 4, 46, 64
6, 160512, Note_off_c, 4, 58, 64
6, 160800, Note_on_c, 4, 58, 112
6, 160800, Note_on_c, 4, 46, 112
6, 160992, Note_off_c, 4, 46, 64
6, 160992, Note_off_c, 4, 58, 64
6, 161280, Note_on_c, 4, 58, 112
6, 161280, Note_on_c, 4, 46, 112
6, 161472, Note_off_c, 4, 46, 64
6, 161472, Note_off_c, 4, 58, 64
6, 161760, Note_on_c, 4, 46, 112
6, 161760, Note_on_c, 4, 58, 112
6, 161952, Note_off_c, 4, 58, 64
6, 161952, Note_off_c, 4, 46, 64
6, 162240, Note_on_c, 4, 58, 112
6, 162240, Note_on_c, 4, 46, 112
6, 162432, Note_off_c, 4, 46, 64
6, 162432, Note_off_c, 4, 58, 64
6, 162720, Note_on_c, 4, 58, 112
6, 162720, Note_on_c, 4, 46, 112
6, 162912, Note_off_c, 4, 46, 64
6, 162912, Note_off_c, 4, 58, 64
6, 163200, Note_on_c, 4, 58, 112
6, 163200, Note_on_c, 4, 46, 112
6, 163392, Note_off_c, 4, 46, 64
6, 163392, Note_off_c, 4, 58, 64
6, 163680, Note_on_c, 4, 46, 112
6, 163680, Note_on_c, 4, 58, 112
6, 163872, Note_off_c, 4, 58, 64
6, 163872, Note_off_c, 4, 46, 64
6, 164160, Note_on_c, 4, 58, 112
6, 164160, Note_on_c, 4, 46, 112
6, 164352, Note_off_c, 4, 46, 64
6, 164352, Note_off_c, 4, 58, 64
6, 164640, Note_on_c, 4, 58, 112
6, 164640, Note_on_c, 4, 46, 112
6, 164832, Note_off_c, 4, 46, 64
6, 164832, Note_off_c, 4, 58, 64
6, 165120, Note_on_c, 4, 53, 112
6, 165120, Note_on_c, 4, 41, 112
6, 165312, Note_off_c, 4, 41, 64
6, 165312, Note_off_c, 4, 53, 64
6, 165600, Note_on_c, 4, 41, 112
6, 165600, Note_on_c, 4, 53, 112
6, 165792, Note_off_c, 4, 53, 64
6, 165792, Note_off_c, 4, 41, 64
6, 166080, Note_on_c, 4, 53, 112
6, 166080, Note_on_c, 4, 41, 112
6, 166272, Note_off_c, 4, 41, 64
6, 166272, Note_off_c, 4, 53, 64
6, 166560, Note_on_c, 4, 53, 112
6, 166560, Note_on_c, 4, 41, 112
6, 166752, Note_off_c, 4, 41, 64
6, 166752, Note_off_c, 4, 53, 64
6, 167040, Note_on_c, 4, 46, 104
6, 167040, Note_on_c, 4, 58, 104
6, 170496, Note_off_c, 4, 58, 64
6, 170496, Note_off_c, 4, 46, 64
6, 170880, Note_on_c, 4, 46, 104
6, 170880, Note_on_c, 4, 58, 104
6, 172416, Note_off_c, 4, 58, 64
6, 172416, Note_off_c, 4, 46, 64
6, 172800, Note_on_c, 4, 41, 104
6, 172800, Note_on_c, 4, 53, 104
6, 174336, Note_off_c, 4, 53, 64
6, 174336, Note_off_c, 4, 41, 64
6, 174720, Note_on_c, 4, 46, 104
6, 174720, Note_on_c, 4, 58, 104
6, 176256, Note_off_c, 4, 58, 64
6, 176256, Note_off_c, 4, 46, 64
6, 178560, Note_on_c, 4, 65, 104
6, 178560, Note_on_c, 4, 53, 104
6, 180096, Note_off_c, 4, 53, 64
6, 180096, Note_off_c, 4, 65, 64
6, 180480, Note_on_c, 4, 60, 104
6, 180672, Note_off_c, 4, 60, 64
6, 180960, Note_on_c, 4, 60, 104
6, 181152, Note_off_c, 4, 60, 64
6, 181440, Note_on_c, 4, 60, 104
6, 181632, Note_off_c, 4, 60, 64
6, 181920, Note_on_c, 4, 60, 104
6, 182112, Note_off_c, 4, 60, 64
6, 182400, Note_on_c, 4, 60, 104
6, 182592, Note_off_c, 4, 60, 64
6, 182880, Note_on_c, 4, 60, 104
6, 183072, Note_off_c, 4, 60, 64
6, 183360, Note_on_c, 4, 60, 104
6, 183552, Note_off_c, 4, 60, 64
6, 183840, Note_on_c, 4, 60, 104
6, 184032, Note_off_c, 4, 60, 64
6, 184320, Note_on_c, 4, 60, 104
6, 184512, Note_off_c, 4, 60, 64
6, 184800, Note_on_c, 4, 60, 104
6, 184992, Note_off_c, 4, 60, 64
6, 185280, Note_on_c, 4, 60, 104
6, 185472, Note_off_c, 4, 60, 64
6, 185760, Note_on_c, 4, 60, 104
6, 185952, Note_off_c, 4, 60, 64
6, 186240, Note_on_c, 4, 60, 104
6, 186432, Note_off_c, 4, 60, 64
6, 257280, Note_on_c, 4, 60, 69
6, 257760, Note_off_c, 4, 60, 64
6, 258240, Note_on_c, 4, 60, 73
6, 258720, Note_off_c, 4, 60, 64
6, 259200, Note_on_c, 4, 60, 69
6, 259680, Note_off_c, 4, 60, 64
6, 260160, Note_on_c, 4, 60, 73
6, 260640, Note_off_c, 4, 60, 64
6, 261120, Note_on_c, 4, 60, 69
6, 261600, Note_off_c, 4, 60, 64
6, 262080, Note_on_c, 4, 60, 73
6, 262560, Note_off_c, 4, 60, 64
6, 263040, Note_on_c, 4, 53, 80
6, 263040, Note_on_c, 4, 60, 80
6, 263280, Note_off_c, 4, 60, 64
6, 263280, Note_off_c, 4, 53, 64
6, 264960, Note_on_c, 4, 53, 80
6, 264960, Note_on_c, 4, 62, 80
6, 265200, Note_off_c, 4, 62, 64
6, 265200, Note_off_c, 4, 53, 64
6, 266880, Note_on_c, 4, 53, 80
6, 266880, Note_on_c, 4, 60, 80
6, 267120, Note_off_c, 4, 60, 64
6, 267120, Note_off_c, 4, 53, 64
6, 268320, Note_on_c, 4, 60, 80
6, 268560, Note_off_c, 4, 60, 64
6, 268800, Note_on_c, 4, 60, 80
6, 269040, Note_off_c, 4, 60, 64
6, 269280, Note_on_c, 4, 60, 80
6, 269520, Note_off_c, 4, 60, 64
6, 269760, Note_on_c, 4, 60, 80
6, 270000, Note_off_c, 4, 60, 64
6, 270240, Note_on_c, 4, 60, 80
6, 270480, Note_off_c, 4, 60, 64
6, 312960, Note_on_c, 4, 53, 78
6, 312960, Note_on_c, 4, 65, 78
6, 313200, Note_off_c, 4, 65, 64
6, 313200, Note_off_c, 4, 53, 64
6, 314400, Note_on_c, 4, 65, 78
6, 314400, Note_on_c, 4, 53, 78
6, 314592, Note_off_c, 4, 53, 64
6, 314592, Note_off_c, 4, 65, 64
6, 314880, Note_on_c, 4, 53, 78
6, 314880, Note_on_c, 4, 65, 78
6, 315120, Note_off_c, 4, 65, 64
6, 315120, Note_off_c, 4, 53, 64
6, 315840, Note_on_c, 4, 60, 78
6, 315840, Note_on_c, 4, 53, 78
6, 316080, Note_off_c, 4, 53, 64
6, 316080, Note_off_c, 4, 60, 64
6, 320640, Note_on_c, 4, 65, 78
6, 320640, Note_on_c, 4, 53, 78
6, 320880, Note_off_c, 4, 53, 64
6, 320880, Note_off_c, 4, 65, 64
6, 322080, Note_on_c, 4, 53, 78
6, 322080, Note_on_c, 4, 65, 78
6, 322272, Note_off_c, 4, 65, 64
6, 322272, Note_off_c, 4, 53, 64
6, 322560, Note_on_c, 4, 65, 78
6, 322560, Note_on_c, 4, 53, 78
6, 322800, Note_off_c, 4, 53, 64
6, 322800, Note_off_c, 4, 65, 64
6, 323520, Note_on_c, 4, 53, 78
6, 323520, Note_on_c, 4, 60, 78
6, 323760, Note_off_c, 4, 60, 64
6, 323760, Note_off_c, 4, 53, 64
6, 330240, Note_on_c, 4, 60, 62
6, 332084, Note_off_c, 4, 60, 64
6, 332160, Note_on_c, 4, 60, 62
6, 334004, Note_off_c, 4, 60, 64
6, 334080, Note_on_c, 4, 60, 62
6, 335924, Note_off_c, 4, 60, 64
6, 336000, Note_on_c, 4, 65, 80
6, 336000, Note_on_c, 4, 53, 80
6, 339456, Note_off_c, 4, 53, 64
6, 339456, Note_off_c, 4, 65, 64
6, 339840, Note_on_c, 4, 53, 80
6, 339840, Note_on_c, 4, 65, 80
6, 341376, Note_off_c, 4, 65, 64
6, 341376, Note_off_c, 4, 53, 64
6, 341760, Note_on_c, 4, 60, 80
6, 343296, Note_off_c, 4, 60, 64
6, 343680, Note_on_c, 4, 53, 127
6, 343680, Note_on_c, 4, 60, 127
6, 344064, Note_off_c, 4, 60, 64
6, 344064, Note_off_c, 4, 53, 64
6, 349920, Note_on_c, 4, 60, 80
6, 350688, Note_off_c, 4, 60, 64
6, 350880, Note_on_c, 4, 60, 80
6, 351120, Note_off_c, 4, 60, 64
6, 351360, Note_on_c, 4, 60, 127
6, 351360, Note_on_c, 4, 53, 127
6, 351744, Note_off_c, 4, 53, 64
6, 351744, Note_off_c, 4, 60, 64
6, 357600, Note_on_c, 4, 60, 80
6, 358368, Note_off_c, 4, 60, 64
6, 358560, Note_on_c, 4, 60, 80
6, 358800, Note_off_c, 4, 60, 64
6, 359040, Note_on_c, 4, 53, 127
6, 359040, Note_on_c, 4, 60, 127
6, 359424, Note_off_c, 4, 60, 64
6, 359424, Note_off_c, 4, 53, 64
6, 361440, Note_on_c, 4, 60, 80
6, 362208, Note_off_c, 4, 60, 64
6, 362400, Note_on_c, 4, 60, 80
6, 362640, Note_off_c, 4, 60, 64
6, 362880, Note_on_c, 4, 53, 100
6, 362880, Note_on_c, 4, 65, 100
6, 364656, Note_off_c, 4, 65, 64
6, 364656, Note_off_c, 4, 53, 64
6, 364740, Note_on_c, 4, 53, 80
6, 364740, Note_on_c, 4, 65, 100
6, 364770, Note_off_c, 4, 65, 64
6, 364770, Note_off_c, 4, 53, 64
6, 364800, Note_on_c, 4, 65, 100
6, 364800, Note_on_c, 4, 53, 100
6, 364896, Note_off_c, 4, 53, 64
6, 364896, Note_off_c, 4, 65, 64
6, 366720, Note_on_c, 4, 53, 100
6, 366720, Note_on_c, 4, 60, 100
6, 368496, Note_off_c, 4, 60, 64
6, 368496, Note_off_c, 4, 53, 64
6, 368580, Note_on_c, 4, 60, 100
6, 368580, Note_on_c, 4, 53, 80
6, 368610, Note_off_c, 4, 53, 64
6, 368610, Note_off_c, 4, 60, 64
6, 368640, Note_on_c, 4, 60, 100
6, 368640, Note_on_c, 4, 53, 100
6, 368880, Note_off_c, 4, 53, 64
6, 368880, Note_off_c, 4, 60, 64
6, 370560, Note_on_c, 4, 60, 100
6, 370560, Note_on_c, 4, 53, 100
6, 370800, Note_off_c, 4, 53, 64
6, 370800, Note_off_c, 4, 60, 64
6, 372480, Note_on_c, 4, 60, 80
6, 372480, Note_on_c, 4, 53, 80
6, 372720, Note_off_c, 4, 53, 64
6, 372720, Note_off_c, 4, 60, 64
6, 373440, Note_on_c, 4, 53, 80
6, 373440, Note_on_c, 4, 60, 80
6, 373680, Note_off_c, 4, 60, 64
6, 373680, Note_off_c, 4, 53, 64
6, 374400, Note_on_c, 4, 53, 80
6, 374400, Note_on_c, 4, 60, 80
6, 374640, Note_off_c, 4, 60, 64
6, 374640, Note_off_c, 4, 53, 64
6, 375360, Note_on_c, 4, 53, 80
6, 375360, Note_on_c, 4, 60, 80
6, 375600, Note_off_c, 4, 60, 64
6, 375600, Note_off_c, 4, 53, 64
6, 376320, Note_on_c, 4, 58, 80
6, 376320, Note_on_c, 4, 62, 80
6, 376560, Note_off_c, 4, 62, 64
6, 376560, Note_off_c, 4, 58, 64
6, 387360, Note_on_c, 4, 60, 38
6, 387840, Note_off_c, 4, 60, 64
6, 387840, Note_on_c, 4, 60, 38
6, 387840, Note_on_c, 4, 53, 38
6, 391680, Note_off_c, 4, 53, 64
6, 391680, Note_off_c, 4, 60, 64
6, 391680, Note_on_c, 4, 53, 80
6, 391680, Note_on_c, 4, 60, 80
6, 391920, Note_off_c, 4, 60, 64
6, 391920, Note_off_c, 4, 53, 64
6, 393600, Note_on_c, 4, 60, 80
6, 393600, Note_on_c, 4, 53, 80
6, 393840, Note_off_c, 4, 53, 64
6, 393840, Note_off_c, 4, 60, 64
6, 394560, Note_on_c, 4, 53, 80
6, 394560, Note_on_c, 4, 60, 80
6, 394800, Note_off_c, 4, 60, 64
6, 394800, Note_off_c, 4, 53, 64
6, 395520, Note_on_c, 4, 62, 80
6, 395520, Note_on_c, 4, 58, 80
6, 395760, Note_off_c, 4, 58, 64
6, 395760, Note_off_c, 4, 62, 64
6, 396000, Note_on_c, 4, 58, 56
6, 396000, Note_on_c, 4, 46, 56
6, 396240, Note_off_c, 4, 46, 64
6, 396240, Note_off_c, 4, 58, 64
6, 396480, Note_on_c, 4, 46, 56
6, 396480, Note_on_c, 4, 58, 56
6, 396720, Note_off_c, 4, 58, 64
6, 396720, Note_off_c, 4, 46, 64
6, 396960, Note_on_c, 4, 46, 56
6, 396960, Note_on_c, 4, 58, 56
6, 397200, Note_off_c, 4, 58, 64
6, 397200, Note_off_c, 4, 46, 64
6, 397440, Note_on_c, 4, 58, 56
6, 397440, Note_on_c, 4, 46, 56
6, 397680, Note_off_c, 4, 46, 64
6, 397680, Note_off_c, 4, 58, 64
6, 397920, Note_on_c, 4, 46, 56
6, 397920, Note_on_c, 4, 58, 56
6, 398160, Note_off_c, 4, 58, 64
6, 398160, Note_off_c, 4, 46, 64
6, 398400, Note_on_c, 4, 58, 56
6, 398400, Note_on_c, 4, 46, 56
6, 398640, Note_off_c, 4, 46, 64
6, 398640, Note_off_c, 4, 58, 64
6, 398880, Note_on_c, 4, 58, 56
6, 398880, Note_on_c, 4, 46, 56
6, 399120, Note_off_c, 4, 46, 64
6, 399120, Note_off_c, 4, 58, 64
6, 399360, Note_on_c, 4, 58, 56
6, 399360, Note_on_c, 4, 46, 56
6, 399600, Note_off_c, 4, 46, 64
6, 399600, Note_off_c, 4, 58, 64
6, 399840, Note_on_c, 4, 58, 56
6, 399840, Note_on_c, 4, 46, 56
6, 400080, Note_off_c, 4, 46, 64
6, 400080, Note_off_c, 4, 58, 64
6, 400320, Note_on_c, 4, 58, 56
6, 400320, Note_on_c, 4, 46, 56
6, 400560, Note_off_c, 4, 46, 64
6, 400560, Note_off_c, 4, 58, 64
6, 400800, Note_on_c, 4, 58, 56
6, 400800, Note_on_c, 4, 46, 56
6, 401040, Note_off_c, 4, 46, 64
6, 401040, Note_off_c, 4, 58, 64
6, 401280, Note_on_c, 4, 53, 56
6, 401280, Note_on_c, 4, 60, 56
6, 401520, Note_off_c, 4, 60, 64
6, 401520, Note_off_c, 4, 53, 64
6, 401760, Note_on_c, 4, 53, 56
6, 401760, Note_on_c, 4, 60, 56
6, 402000, Note_off_c, 4, 60, 64
6, 402000, Note_off_c, 4, 53, 64
6, 402240, Note_on_c, 4, 53, 56
6, 402240, Note_on_c, 4, 60, 56
6, 402480, Note_off_c, 4, 60, 64
6, 402480, Note_off_c, 4, 53, 64
6, 402720, Note_on_c, 4, 53, 56
6, 402720, Note_on_c, 4, 60, 56
6, 402960, Note_off_c, 4, 60, 64
6, 402960, Note_off_c, 4, 53, 64
6, 403200, Note_on_c, 4, 58, 56
6, 403200, Note_on_c, 4, 46, 56
6, 403440, Note_off_c, 4, 46, 64
6, 403440, Note_off_c, 4, 58, 64
6, 406080, Note_on_c, 4, 58, 56
6, 406080, Note_on_c, 4, 62, 56
6, 406320, Note_off_c, 4, 62, 64
6, 406320, Note_off_c, 4, 58, 64
6, 406560, Note_on_c, 4, 58, 56
6, 406560, Note_on_c, 4, 60, 56
6, 406800, Note_off_c, 4, 60, 64
6, 406800, Note_off_c, 4, 58, 64
6, 407040, Note_on_c, 4, 53, 56
6, 407040, Note_on_c, 4, 60, 56
6, 411168, Note_off_c, 4, 60, 64
6, 411168, Note_off_c, 4, 53, 64
6, 411840, Note_on_c, 4, 60, 63
6, 411840, Note_on_c, 4, 53, 63
6, 412128, Note_off_c, 4, 53, 64
6, 412128, Note_off_c, 4, 60, 64
6, 413760, Note_on_c, 4, 50, 63
6, 413760, Note_on_c, 4, 58, 63
6, 414048, Note_off_c, 4, 58, 64
6, 414048, Note_off_c, 4, 50, 64
6, 415680, Note_on_c, 4, 63, 63
6, 415680, Note_on_c, 4, 60, 63
6, 415968, Note_off_c, 4, 60, 64
6, 415968, Note_off_c, 4, 63, 64
6, 417600, Note_on_c, 4, 53, 63
6, 417600, Note_on_c, 4, 60, 63
6, 417888, Note_off_c, 4, 60, 64
6, 417888, Note_off_c, 4, 53, 64
6, 418560, Note_on_c, 4, 46, 32
6, 418560, Note_on_c, 4, 58, 32
6, 425856, Note_off_c, 4, 58, 64
6, 425856, Note_off_c, 4, 46, 64
6, 426240, Note_on_c, 4, 46, 32
6, 426240, Note_on_c, 4, 58, 32
6, 433536, Note_off_c, 4, 58, 64
6, 433536, Note_off_c, 4, 46, 64
6, 433920, Note_on_c, 4, 46, 32
6, 433920, Note_on_c, 4, 58, 32
6, 437376, Note_off_c, 4, 58, 64
6, 437376, Note_off_c, 4, 46, 64
6, 437760, Note_on_c, 4, 46, 32
6, 437760, Note_on_c, 4, 58, 32
6, 441216, Note_off_c, 4, 58, 64
6, 441216, Note_off_c, 4, 46, 64
6, 441600, Note_on_c, 4, 46, 64
6, 441600, Note_on_c, 4, 58, 64
6, 442368, Note_off_c, 4, 58, 64
6, 442368, Note_off_c, 4, 46, 64
6, 442560, Note_on_c, 4, 46, 64
6, 442560, Note_on_c, 4, 58, 64
6, 443328, Note_off_c, 4, 58, 64
6, 443328, Note_off_c, 4, 46, 64
6, 443520, Note_on_c, 4, 46, 64
6, 443520, Note_on_c, 4, 58, 64
6, 444288, Note_off_c, 4, 58, 64
6, 444288, Note_off_c, 4, 46, 64
6, 444480, Note_on_c, 4, 46, 64
6, 444480, Note_on_c, 4, 58, 64
6, 445248, Note_off_c, 4, 58, 64
6, 445248, Note_off_c, 4, 46, 64
6, 445440, Note_on_c, 4, 53, 64
6, 445440, Note_on_c, 4, 60, 64
6, 446208, Note_off_c, 4, 60, 64
6, 446208, Note_off_c, 4, 53, 64
6, 446400, Note_on_c, 4, 53, 64
6, 446400, Note_on_c, 4, 60, 64
6, 447168, Note_off_c, 4, 60, 64
6, 447168, Note_off_c, 4, 53, 64
6, 447360, Note_on_c, 4, 60, 64
6, 447360, Note_on_c, 4, 53, 64
6, 448128, Note_off_c, 4, 53, 64
6, 448128, Note_off_c, 4, 60, 64
6, 448320, Note_on_c, 4, 60, 64
6, 448320, Note_on_c, 4, 53, 64
6, 449088, Note_off_c, 4, 53, 64
6, 449088, Note_off_c, 4, 60, 64
6, 449280, Note_on_c, 4, 58, 112
6, 449280, Note_on_c, 4, 50, 112
6, 449472, Note_off_c, 4, 50, 64
6, 449472, Note_off_c, 4, 58, 64
6, 449760, Note_on_c, 4, 46, 112
6, 449760, Note_on_c, 4, 58, 112
6, 449952, Note_off_c, 4, 58, 64
6, 449952, Note_off_c, 4, 46, 64
6, 450240, Note_on_c, 4, 58, 112
6, 450240, Note_on_c, 4, 46, 112
6, 450432, Note_off_c, 4, 46, 64
6, 450432, Note_off_c, 4, 58, 64
6, 450720, Note_on_c, 4, 58, 112
6, 450720, Note_on_c, 4, 46, 112
6, 450912, Note_off_c, 4, 46, 64
6, 450912, Note_off_c, 4, 58, 64
6, 451200, Note_on_c, 4, 58, 112
6, 451200, Note_on_c, 4, 46, 112
6, 451392, Note_off_c, 4, 46, 64
6, 451392, Note_off_c, 4, 58, 64
6, 451680, Note_on_c, 4, 46, 112
6, 451680, Note_on_c, 4, 58, 112
6, 451872, Note_off_c, 4, 58, 64
6, 451872, Note_off_c, 4, 46, 64
6, 452160, Note_on_c, 4, 58, 112
6, 452160, Note_on_c, 4, 46, 112
6, 452352, Note_off_c, 4, 46, 64
6, 452352, Note_off_c, 4, 58, 64
6, 452640, Note_on_c, 4, 58, 112
6, 452640, Note_on_c, 4, 46, 112
6, 452832, Note_off_c, 4, 46, 64
6, 452832, Note_off_c, 4, 58, 64
6, 453120, Note_on_c, 4, 58, 112
6, 453120, Note_on_c, 4, 46, 112
6, 453312, Note_off_c, 4, 46, 64
6, 453312, Note_off_c, 4, 58, 64
6, 453600, Note_on_c, 4, 46, 112
6, 453600, Note_on_c, 4, 58, 112
6, 453792, Note_off_c, 4, 58, 64
6, 453792, Note_off_c, 4, 46, 64
6, 454080, Note_on_c, 4, 58, 112
6, 454080, Note_on_c, 4, 46, 112
6, 454272, Note_off_c, 4, 46, 64
6, 454272, Note_off_c, 4, 58, 64
6, 454560, Note_on_c, 4, 58, 112
6, 454560, Note_on_c, 4, 46, 112
6, 454752, Note_off_c, 4, 46, 64
6, 454752, Note_off_c, 4, 58, 64
6, 455040, Note_on_c, 4, 53, 112
6, 455040, Note_on_c, 4, 41, 112
6, 455232, Note_off_c, 4, 41, 64
6, 455232, Note_off_c, 4, 53, 64
6, 455520, Note_on_c, 4, 41, 112
6, 455520, Note_on_c, 4, 53, 112
6, 455712, Note_off_c, 4, 53, 64
6, 455712, Note_off_c, 4, 41, 64
6, 456000, Note_on_c, 4, 53, 112
6, 456000, Note_on_c, 4, 41, 112
6, 456192, Note_off_c, 4, 41, 64
6, 456192, Note_off_c, 4, 53, 64
6, 456480, Note_on_c, 4, 53, 112
6, 456480, Note_on_c, 4, 41, 112
6, 456672, Note_off_c, 4, 41, 64
6, 456672, Note_off_c, 4, 53, 64
6, 456960, Note_on_c, 4, 46, 104
6, 456960, Note_on_c, 4, 58, 104
6, 460416, Note_off_c, 4, 58, 64
6, 460416, Note_off_c, 4, 46, 64
6, 460800, Note_on_c, 4, 46, 104
6, 460800, Note_on_c, 4, 58, 104
6, 462336, Note_off_c, 4, 58, 64
6, 462336, Note_off_c, 4, 46, 64
6, 462720, Note_on_c, 4, 41, 104
6, 462720, Note_on_c, 4, 53, 104
6, 464256, Note_off_c, 4, 53, 64
6, 464256, Note_off_c, 4, 41, 64
6, 464640, Note_on_c, 4, 46, 104
6, 464640, Note_on_c, 4, 58, 104
6, 466176, Note_off_c, 4, 58, 64
6, 466176, Note_off_c, 4, 46, 64
6, 468480, Note_on_c, 4, 65, 104
6, 468480, Note_on_c, 4, 53, 104
6, 470016, Note_off_c, 4, 53, 64
6, 470016, Note_off_c, 4, 65, 64
6, 470400, Note_on_c, 4, 60, 104
6, 470592, Note_off_c, 4, 60, 64
6, 470880, Note_on_c, 4, 60, 104
6, 471072, Note_off_c, 4, 60, 64
6, 471360, Note_on_c, 4, 60, 104
6, 471552, Note_off_c, 4, 60, 64
6, 471840, Note_on_c, 4, 60, 104
6, 472032, Note_off_c, 4, 60, 64
6, 472320, Note_on_c, 4, 60, 104
6, 472512, Note_off_c, 4, 60, 64
6, 472800, Note_on_c, 4, 60, 104
6, 472992, Note_off_c, 4, 60, 64
6, 473280, Note_on_c, 4, 60, 104
6, 473472, Note_off_c, 4, 60, 64
6, 473760, Note_on_c, 4, 60, 104
6, 473952, Note_off_c, 4, 60, 64
6, 474240, Note_on_c, 4, 60, 104
6, 474432, Note_off_c, 4, 60, 64
6, 474720, Note_on_c, 4, 60, 104
6, 474912, Note_off_c, 4, 60, 64
6, 475200, Note_on_c, 4, 60, 104
6, 475392, Note_off_c, 4, 60, 64
6, 475680, Note_on_c, 4, 60, 104
6, 475872, Note_off_c, 4, 60, 64
6, 476160, Note_on_c, 4, 60, 104
6, 476352, Note_off_c, 4, 60, 64
6, 547200, Note_on_c, 4, 60, 69
6, 547680, Note_off_c, 4, 60, 64
6, 548160, Note_on_c, 4, 60, 73
6, 548640, Note_off_c, 4, 60, 64
6, 549120, Note_on_c, 4, 60, 69
6, 549600, Note_off_c, 4, 60, 64
6, 550080, Note_on_c, 4, 60, 73
6, 550560, Note_off_c, 4, 60, 64
6, 551040, Note_on_c, 4, 60, 69
6, 551520, Note_off_c, 4, 60, 64
6, 552000, Note_on_c, 4, 60, 73
6, 552480, Note_off_c, 4, 60, 64
6, 552960, Note_on_c, 4, 53, 80
6, 552960, Note_on_c, 4, 60, 80
6, 553200, Note_off_c, 4, 60, 64
6, 553200, Note_off_c, 4, 53, 64
6, 554880, Note_on_c, 4, 53, 80
6, 554880, Note_on_c, 4, 62, 80
6, 555120, Note_off_c, 4, 62, 64
6, 555120, Note_off_c, 4, 53, 64
6, 556800, Note_on_c, 4, 53, 80
6, 556800, Note_on_c, 4, 60, 80
6, 557040, Note_off_c, 4, 60, 64
6, 557040, Note_off_c, 4, 53, 64
6, 558240, Note_on_c, 4, 60, 80
6, 558480, Note_off_c, 4, 60, 64
6, 558720, Note_on_c, 4, 60, 80
6, 558960, Note_off_c, 4, 60, 64
6, 559200, Note_on_c, 4, 60, 80
6, 559440, Note_off_c, 4, 60, 64
6, 559680, Note_on_c, 4, 60, 80
6, 559920, Note_off_c, 4, 60, 64
6, 560160, Note_on_c, 4, 60, 80
6, 560400, Note_off_c, 4, 60, 64
6, 602880, Note_on_c, 4, 53, 78
6, 602880, Note_on_c, 4, 65, 78
6, 603120, Note_off_c, 4, 65, 64
6, 603120, Note_off_c, 4, 53, 64
6, 604320, Note_on_c, 4, 65, 78
6, 604320, Note_on_c, 4, 53, 78
6, 604512, Note_off_c, 4, 53, 64
6, 604512, Note_off_c, 4, 65, 64
6, 604800, Note_on_c, 4, 53, 78
6, 604800, Note_on_c, 4, 65, 78
6, 605040, Note_off_c, 4, 65, 64
6, 605040, Note_off_c, 4, 53, 64
6, 605760, Note_on_c, 4, 60, 78
6, 605760, Note_on_c, 4, 53, 78
6, 606000, Note_off_c, 4, 53, 64
6, 606000, Note_off_c, 4, 60, 64
6, 610560, Note_on_c, 4, 65, 78
6, 610560, Note_on_c, 4, 53, 78
6, 610800, Note_off_c, 4, 53, 64
6, 610800, Note_off_c, 4, 65, 64
6, 612000, Note_on_c, 4, 53, 78
6, 612000, Note_on_c, 4, 65, 78
6, 612192, Note_off_c, 4, 65, 64
6, 612192, Note_off_c, 4, 53, 64
6, 612480, Note_on_c, 4, 65, 78
6, 612480, Note_on_c, 4, 53, 78
6, 612720, Note_off_c, 4, 53, 64
6, 612720, Note_off_c, 4, 65, 64
6, 613440, Note_on_c, 4, 53, 78
6, 613440, Note_on_c, 4, 60, 78
6, 613680, Note_off_c, 4, 60, 64
6, 613680, Note_off_c, 4, 53, 64
6, 620160, Note_on_c, 4, 60, 62
6, 622004, Note_off_c, 4, 60, 64
6, 622080, Note_on_c, 4, 60, 62
6, 623924, Note_off_c, 4, 60, 64
6, 624000, Note_on_c, 4, 60, 62
6, 625844, Note_off_c, 4, 60, 64
6, 625920, Note_on_c, 4, 65, 80
6, 625920, Note_on_c, 4, 53, 80
6, 629376, Note_off_c, 4, 53, 64
6, 629376, Note_off_c, 4, 65, 64
6, 629760, Note_on_c, 4, 53, 80
6, 629760, Note_on_c, 4, 65, 80
6, 631296, Note_off_c, 4, 65, 64
6, 631296, Note_off_c, 4, 53, 64
6, 631680, Note_on_c, 4, 60, 80
6, 633216, Note_off_c, 4, 60, 64
6, 633600, Note_on_c, 4, 53, 127
6, 633600, Note_on_c, 4, 60, 127
6, 633984, Note_off_c, 4, 60, 64
6, 633984, Note_off_c, 4, 53, 64
6, 639840, Note_on_c, 4, 60, 80
6, 640608, Note_off_c, 4, 60, 64
6, 640800, Note_on_c, 4, 60, 80
6, 641040, Note_off_c, 4, 60, 64
6, 641280, Note_on_c, 4, 60, 127
6, 641280, Note_on_c, 4, 53, 127
6, 641664, Note_off_c, 4, 53, 64
6, 641664, Note_off_c, 4, 60, 64
6, 647520, Note_on_c, 4, 60, 80
6, 648288, Note_off_c, 4, 60, 64
6, 648480, Note_on_c, 4, 60, 80
6, 648720, Note_off_c, 4, 60, 64
6, 648960, Note_on_c, 4, 53, 80
6, 648960, Note_on_c, 4, 60, 80
6, 649200, Note_off_c, 4, 60, 64
6, 649200, Note_off_c, 4, 53, 64
6, 649920, Note_on_c, 4, 53, 80
6, 649920, Note_on_c, 4, 65, 80
6, 650160, Note_off_c, 4, 65, 64
6, 650160, Note_off_c, 4, 53, 64
6, 650880, Note_on_c, 4, 65, 80
6, 650880, Note_on_c, 4, 53, 80
6, 651120, Note_off_c, 4, 53, 64
6, 651120, Note_off_c, 4, 65, 64
6, 651840, Note_on_c, 4, 53, 80
6, 651840, Note_on_c, 4, 65, 80
6, 652080, Note_off_c, 4, 65, 64
6, 652080, Note_off_c, 4, 53, 64
6, 652800, Note_on_c, 4, 53, 80
6, 652800, Note_on_c, 4, 65, 80
6, 653040, Note_off_c, 4, 65, 64
6, 653040, Note_off_c, 4, 53, 64
6, 756480, Note_on_c, 4, 63, 80
6, 759936, Note_off_c, 4, 63, 64
6, 760320, Note_on_c, 4, 63, 80
6, 761856, Note_off_c, 4, 63, 64
6, 762240, Note_on_c, 4, 63, 80
6, 762690, Note_off_c, 4, 63, 64
6, 763200, Note_on_c, 4, 63, 80
6, 763650, Note_off_c, 4, 63, 64
6, 764160, Note_on_c, 4, 63, 80
6, 764610, Note_off_c, 4, 63, 64
6, 771840, Note_on_c, 4, 62, 80
6, 775296, Note_off_c, 4, 62, 64
6, 775680, Note_on_c, 4, 62, 80
6, 777216, Note_off_c, 4, 62, 64
6, 777600, Note_on_c, 4, 62, 80
6, 778050, Note_off_c, 4, 62, 64
6, 778560, Note_on_c, 4, 62, 80
6, 779010, Note_off_c, 4, 62, 64
6, 779520, Note_on_c, 4, 62, 80
6, 779970, Note_off_c, 4, 62, 64
6, 787200, Note_on_c, 4, 46, 80
6, 787200, Note_on_c, 4, 58, 80
6, 790656, Note_off_c, 4, 58, 64
6, 790656, Note_off_c, 4, 46, 64
6, 791040, Note_on_c, 4, 58, 80
6, 791040, Note_on_c, 4, 46, 80
6, 792576, Note_off_c, 4, 46, 64
6, 792576, Note_off_c, 4, 58, 64
6, 792960, Note_on_c, 4, 46, 80
6, 792960, Note_on_c, 4, 58, 80
6, 793410, Note_off_c, 4, 58, 64
6, 793410, Note_off_c, 4, 46, 64
6, 793920, Note_on_c, 4, 46, 80
6, 793920, Note_on_c, 4, 58, 80
6, 794370, Note_off_c, 4, 58, 64
6, 794370, Note_off_c, 4, 46, 64
6, 794880, Note_on_c, 4, 46, 80
6, 794880, Note_on_c, 4, 58, 80
6, 795330, Note_off_c, 4, 58, 64
6, 795330, Note_off_c, 4, 46, 64
6, 796800, Note_on_c, 4, 58, 80
6, 796800, Note_on_c, 4, 46, 80
6, 797250, Note_off_c, 4, 46, 64
6, 797250, Note_off_c, 4, 58, 64
6, 798720, Note_on_c, 4, 58, 80
6, 798720, Note_on_c, 4, 46, 80
6, 799170, Note_off_c, 4, 46, 64
6, 799170, Note_off_c, 4, 58, 64
6, 800640, Note_on_c, 4, 58, 80
6, 800640, Note_on_c, 4, 46, 80
6, 801090, Note_off_c, 4, 46, 64
6, 801090, Note_off_c, 4, 58, 64
6, 802560, Note_on_c, 4, 58, 80
6, 802560, Note_on_c, 4, 46, 80
6, 803010, Note_off_c, 4, 46, 64
6, 803010, Note_off_c, 4, 58, 64
6, 806400, Note_on_c, 4, 58, 34
6, 806400, Note_on_c, 4, 46, 34
6, 806850, Note_off_c, 4, 46, 64
6, 806850, Note_off_c, 4, 58, 64
6, 810240, Note_on_c, 4, 58, 24
6, 810240, Note_on_c, 4, 46, 24
6, 810690, Note_off_c, 4, 46, 64
6, 810690, Note_off_c, 4, 58, 64
6, 879360, Note_on_c, 4, 50, 15
6, 879360, Note_on_c, 4, 58, 15
6, 883584, Note_off_c, 4, 58, 64
6, 883584, Note_off_c, 4, 50, 64
6, 887040, Note_on_c, 4, 50, 15
6, 887040, Note_on_c, 4, 58, 15
6, 891264, Note_off_c, 4, 58, 64
6, 891264, Note_off_c, 4, 50, 64
6, 933120, Note_on_c, 4, 58, 80
6, 933120, Note_on_c, 4, 65, 80
6, 938496, Note_off_c, 4, 65, 64
6, 938496, Note_off_c, 4, 58, 64
6, 938880, Note_on_c, 4, 58, 80
6, 938880, Note_on_c, 4, 65, 80
6, 939264, Note_off_c, 4, 65, 64
6, 939264, Note_off_c, 4, 58, 64
6, 940080, Note_on_c, 4, 65, 80
6, 940080, Note_on_c, 4, 58, 80
6, 940464, Note_off_c, 4, 58, 64
6, 940464, Note_off_c, 4, 65, 64
6, 941280, Note_on_c, 4, 58, 112
6, 941280, Note_on_c, 4, 65, 112
6, 941424, Note_off_c, 4, 65, 64
6, 941424, Note_off_c, 4, 58, 64
6, 941760, Note_on_c, 4, 58, 112
6, 941760, Note_on_c, 4, 62, 112
6, 941904, Note_off_c, 4, 62, 64
6, 941904, Note_off_c, 4, 58, 64
6, 942240, Note_on_c, 4, 62, 112
6, 942240, Note_on_c, 4, 58, 112
6, 942384, Note_off_c, 4, 58, 64
6, 942384, Note_off_c, 4, 62, 64
6, 942720, Note_on_c, 4, 62, 112
6, 942720, Note_on_c, 4, 58, 112
6, 942864, Note_off_c, 4, 58, 64
6, 942864, Note_off_c, 4, 62, 64
6, 943200, Note_on_c, 4, 58, 112
6, 943200, Note_on_c, 4, 62, 112
6, 943344, Note_off_c, 4, 62, 64
6, 943344, Note_off_c, 4, 58, 64
6, 943680, Note_on_c, 4, 65, 112
6, 943680, Note_on_c, 4, 53, 112
6, 943824, Note_off_c, 4, 53, 64
6, 943824, Note_off_c, 4, 65, 64
6, 944160, Note_on_c, 4, 58, 112
6, 944160, Note_on_c, 4, 46, 112
6, 944304, Note_off_c, 4, 46, 64
6, 944304, Note_off_c, 4, 58, 64
6, 944640, Note_on_c, 4, 50, 112
6, 944640, Note_on_c, 4, 62, 112
6, 944784, Note_off_c, 4, 62, 64
6, 944784, Note_off_c, 4, 50, 64
6, 945120, Note_on_c, 4, 46, 64
6, 945120, Note_on_c, 4, 58, 64
6, 945264, Note_off_c, 4, 58, 64
6, 945264, Note_off_c, 4, 46, 64
6, 945600, Note_on_c, 4, 46, 64
6, 945600, Note_on_c, 4, 58, 64
6, 945744, Note_off_c, 4, 58, 64
6, 945744, Note_off_c, 4, 46, 64
6, 946080, Note_on_c, 4, 58, 64
6, 946080, Note_on_c, 4, 46, 64
6, 946224, Note_off_c, 4, 46, 64
6, 946224, Note_off_c, 4, 58, 64
6, 946560, Note_on_c, 4, 58, 64
6, 946560, Note_on_c, 4, 46, 64
6, 946704, Note_off_c, 4, 46, 64
6, 946704, Note_off_c, 4, 58, 64
6, 947040, Note_on_c, 4, 53, 75
6, 947040, Note_on_c, 4, 60, 75
6, 947184, Note_off_c, 4, 60, 64
6, 947184, Note_off_c, 4, 53, 64
6, 947520, Note_on_c, 4, 53, 75
6, 947520, Note_on_c, 4, 60, 75
6, 947664, Note_off_c, 4, 60, 64
6, 947664, Note_off_c, 4, 53, 64
6, 948000, Note_on_c, 4, 60, 75
6, 948000, Note_on_c, 4, 53, 75
6, 948144, Note_off_c, 4, 53, 64
6, 948144, Note_off_c, 4, 60, 64
6, 948480, Note_on_c, 4, 60, 75
6, 948480, Note_on_c, 4, 53, 75
6, 948624, Note_off_c, 4, 53, 64
6, 948624, Note_off_c, 4, 60, 64
6, 948960, Note_on_c, 4, 50, 88
6, 948960, Note_on_c, 4, 58, 88
6, 949104, Note_off_c, 4, 58, 64
6, 949104, Note_off_c, 4, 50, 64
6, 968160, Note_on_c, 4, 58, 112
6, 968160, Note_on_c, 4, 46, 112
6, 971880, Note_off_c, 4, 46, 64
6, 971880, Note_off_c, 4, 58, 64
6, 972000, Note_on_c, 4, 60, 80
6, 972000, Note_on_c, 4, 58, 80
6, 973536, Note_off_c, 4, 58, 64
6, 973536, Note_off_c, 4, 60, 64
6, 973920, Note_on_c, 4, 53, 80
6, 973920, Note_on_c, 4, 60, 80
6, 975456, Note_off_c, 4, 60, 64
6, 975456, Note_off_c, 4, 53, 64
6, 975840, Note_on_c, 4, 62, 80
6, 975840, Note_on_c, 4, 50, 80
6, 978336, Note_off_c, 4, 50, 64
6, 978336, Note_off_c, 4, 62, 64
6, 979680, Note_on_c, 4, 63, 80
6, 979680, Note_on_c, 4, 51, 80
6, 981480, Note_off_c, 4, 51, 64
6, 981480, Note_off_c, 4, 63, 64
6, 983520, Note_on_c, 4, 65, 104
6, 983520, Note_on_c, 4, 58, 104
6, 986208, Note_off_c, 4, 58, 64
6, 986208, Note_off_c, 4, 65, 64
6, 986400, Note_on_c, 4, 65, 120
6, 986400, Note_on_c, 4, 58, 80
6, 987168, Note_off_c, 4, 58, 64
6, 987168, Note_off_c, 4, 65, 64
6, 987360, Note_on_c, 4, 63, 80
6, 987744, Note_off_c, 4, 63, 64
6, 988320, Note_on_c, 4, 60, 120
6, 989088, Note_off_c, 4, 60, 64
6, 989280, Note_on_c, 4, 60, 80
6, 990048, Note_off_c, 4, 60, 64
6, 990240, Note_on_c, 4, 62, 120
6, 990240, Note_on_c, 4, 50, 80
6, 991008, Note_off_c, 4, 50, 64
6, 991008, Note_off_c, 4, 62, 64
6, 991200, Note_on_c, 4, 50, 80
6, 991200, Note_on_c, 4, 62, 80
6, 991968, Note_off_c, 4, 62, 64
6, 991968, Note_off_c, 4, 50, 64
6, 992160, Note_on_c, 4, 63, 120
6, 992160, Note_on_c, 4, 51, 80
6, 992928, Note_off_c, 4, 51, 64
6, 992928, Note_off_c, 4, 63, 64
6, 993120, Note_on_c, 4, 51, 80
6, 993120, Note_on_c, 4, 63, 80
6, 993888, Note_off_c, 4, 63, 64
6, 993888, Note_off_c, 4, 51, 64
6, 994080, Note_on_c, 4, 65, 120
6, 994080, Note_on_c, 4, 53, 80
6, 994848, Note_off_c, 4, 53, 64
6, 994848, Note_off_c, 4, 65, 64
6, 995040, Note_on_c, 4, 58, 127
6, 995040, Note_on_c, 4, 62, 127
6, 999648, Note_off_c, 4, 62, 64
6, 999648, Note_off_c, 4, 58, 64
6, 999840, Note_on_c, 4, 65, 112
6, 999840, Note_on_c, 4, 53, 112
6, 1000608, Note_off_c, 4, 53, 64
6, 1000608, Note_off_c, 4, 65, 64
6, 1000800, Note_on_c, 4, 50, 112
6, 1000800, Note_on_c, 4, 62, 112
6, 1001568, Note_off_c, 4, 62, 64
6, 1001568, Note_off_c, 4, 50, 64
6, 1001760, Note_on_c, 4, 58, 95
6, 1001760, Note_on_c, 4, 46, 95
6, 1002528, Note_off_c, 4, 46, 64
6, 1002528, Note_off_c, 4, 58, 64
6, 1002720, Note_on_c, 4, 53, 127
6, 1002720, Note_on_c, 4, 41, 112
6, 1003104, Note_off_c, 4, 41, 64
6, 1003104, Note_off_c, 4, 53, 64
6, 1003200, Note_on_c, 4, 53, 62
6, 1003200, Note_on_c, 4, 65, 62
6, 1003968, Note_off_c, 4, 65, 64
6, 1003968, Note_off_c, 4, 53, 64
6, 1004160, Note_on_c, 4, 53, 62
6, 1004160, Note_on_c, 4, 65, 62
6, 1005024, Note_off_c, 4, 65, 64
6, 1005024, Note_off_c, 4, 53, 64
6, 1005120, Note_on_c, 4, 53, 62
6, 1005120, Note_on_c, 4, 65, 62
6, 1005888, Note_off_c, 4, 65, 64
6, 1005888, Note_off_c, 4, 53, 64
6, 1006080, Note_on_c, 4, 53, 62
6, 1006080, Note_on_c, 4, 65, 62
6, 1006944, Note_off_c, 4, 65, 64
6, 1006944, Note_off_c, 4, 53, 64
6, 1007040, Note_on_c, 4, 53, 62
6, 1007040, Note_on_c, 4, 65, 62
6, 1007808, Note_off_c, 4, 65, 64
6, 1007808, Note_off_c, 4, 53, 64
6, 1008000, Note_on_c, 4, 53, 62
6, 1008000, Note_on_c, 4, 65, 62
6, 1008864, Note_off_c, 4, 65, 64
6, 1008864, Note_off_c, 4, 53, 64
6, 1008960, Note_on_c, 4, 58, 102
6, 1009920, Note_off_c, 4, 58, 64
6, 1009920, Note_on_c, 4, 65, 62
6, 1009920, Note_on_c, 4, 53, 62
6, 1010304, Note_off_c, 4, 53, 64
6, 1010304, Note_off_c, 4, 65, 64
6, 1010400, Note_on_c, 4, 53, 49
6, 1010400, Note_on_c, 4, 65, 49
6, 1010784, Note_off_c, 4, 65, 64
6, 1010784, Note_off_c, 4, 53, 64
6, 1010880, Note_on_c, 4, 53, 62
6, 1010880, Note_on_c, 4, 65, 62
6, 1011648, Note_off_c, 4, 65, 64
6, 1011648, Note_off_c, 4, 53, 64
6, 1011840, Note_on_c, 4, 53, 62
6, 1011840, Note_on_c, 4, 65, 62
6, 1012704, Note_off_c, 4, 65, 64
6, 1012704, Note_off_c, 4, 53, 64
6, 1012800, Note_on_c, 4, 65, 62
6, 1012800, Note_on_c, 4, 53, 62
6, 1013568, Note_off_c, 4, 53, 64
6, 1013568, Note_off_c, 4, 65, 64
6, 1013760, Note_on_c, 4, 65, 62
6, 1013760, Note_on_c, 4, 53, 62
6, 1014624, Note_off_c, 4, 53, 64
6, 1014624, Note_off_c, 4, 65, 64
6, 1014720, Note_on_c, 4, 65, 62
6, 1014720, Note_on_c, 4, 53, 62
6, 1015488, Note_off_c, 4, 53, 64
6, 1015488, Note_off_c, 4, 65, 64
6, 1015680, Note_on_c, 4, 65, 62
6, 1015680, Note_on_c, 4, 53, 62
6, 1016544, Note_off_c, 4, 53, 64
6, 1016544, Note_off_c, 4, 65, 64
6, 1016640, Note_on_c, 4, 58, 102
6, 1017312, Note_off_c, 4, 58, 64
6, 1017600, Note_on_c, 4, 53, 62
6, 1017600, Note_on_c, 4, 65, 62
6, 1017984, Note_off_c, 4, 65, 64
6, 1017984, Note_off_c, 4, 53, 64
6, 1018080, Note_on_c, 4, 65, 49
6, 1018080, Note_on_c, 4, 53, 49
6, 1018464, Note_off_c, 4, 53, 64
6, 1018464, Note_off_c, 4, 65, 64
6, 1044960, Note_on_c, 4, 50, 40
6, 1044960, Note_on_c, 4, 62, 40
6, 1045200, Note_off_c, 4, 62, 64
6, 1045200, Note_off_c, 4, 50, 64
6, 1046400, Note_on_c, 4, 50, 40
6, 1046400, Note_on_c, 4, 62, 40
6, 1046640, Note_off_c, 4, 62, 64
6, 1046640, Note_off_c, 4, 50, 64
6, 1046880, Note_on_c, 4, 50, 40
6, 1046880, Note_on_c, 4, 62, 40
6, 1047120, Note_off_c, 4, 62, 64
6, 1047120, Note_off_c, 4, 50, 64
6, 1048320, Note_on_c, 4, 50, 40
6, 1048320, Note_on_c, 4, 62, 40
6, 1048560, Note_off_c, 4, 62, 64
6, 1048560, Note_off_c, 4, 50, 64
6, 1048800, Note_on_c, 4, 50, 40
6, 1048800, Note_on_c, 4, 62, 40
6, 1049040, Note_off_c, 4, 62, 64
6, 1049040, Note_off_c, 4, 50, 64
6, 1050240, Note_on_c, 4, 62, 40
6, 1050240, Note_on_c, 4, 50, 40
6, 1050480, Note_off_c, 4, 50, 64
6, 1050480, Note_off_c, 4, 62, 64
6, 1050720, Note_on_c, 4, 50, 40
6, 1050720, Note_on_c, 4, 62, 40
6, 1050960, Note_off_c, 4, 62, 64
6, 1050960, Note_off_c, 4, 50, 64
6, 1052160, Note_on_c, 4, 50, 40
6, 1052160, Note_on_c, 4, 62, 40
6, 1052400, Note_off_c, 4, 62, 64
6, 1052400, Note_off_c, 4, 50, 64
6, 1052640, Note_on_c, 4, 50, 40
6, 1052640, Note_on_c, 4, 62, 40
6, 1052880, Note_off_c, 4, 62, 64
6, 1052880, Note_off_c, 4, 50, 64
6, 1073760, Note_on_c, 4, 65, 60
6, 1073760, Note_on_c, 4, 53, 60
6, 1074240, Note_off_c, 4, 53, 64
6, 1074240, Note_off_c, 4, 65, 64
6, 1074720, Note_on_c, 4, 53, 80
6, 1074720, Note_on_c, 4, 65, 80
6, 1075200, Note_off_c, 4, 65, 64
6, 1075200, Note_off_c, 4, 53, 64
6, 1075680, Note_on_c, 4, 53, 80
6, 1075680, Note_on_c, 4, 65, 80
6, 1076160, Note_off_c, 4, 65, 64
6, 1076160, Note_off_c, 4, 53, 64
6, 1076640, Note_on_c, 4, 53, 80
6, 1076640, Note_on_c, 4, 65, 80
6, 1077120, Note_off_c, 4, 65, 64
6, 1077120, Note_off_c, 4, 53, 64
6, 1077600, Note_on_c, 4, 53, 80
6, 1077600, Note_on_c, 4, 65, 80
6, 1078080, Note_off_c, 4, 65, 64
6, 1078080, Note_off_c, 4, 53, 64
6, 1078560, Note_on_c, 4, 53, 80
6, 1078560, Note_on_c, 4, 65, 80
6, 1079040, Note_off_c, 4, 65, 64
6, 1079040, Note_off_c, 4, 53, 64
6, 1079520, Note_on_c, 4, 58, 80
6, 1079520, Note_on_c, 4, 65, 80
6, 1079760, Note_off_c, 4, 65, 64
6, 1079760, Note_off_c, 4, 58, 64
6, 1081440, Note_on_c, 4, 58, 80
6, 1081440, Note_on_c, 4, 60, 80
6, 1081680, Note_off_c, 4, 60, 64
6, 1081680, Note_off_c, 4, 58, 64
6, 1083360, Note_on_c, 4, 62, 80
6, 1083360, Note_on_c, 4, 58, 80
6, 1083600, Note_off_c, 4, 58, 64
6, 1083600, Note_off_c, 4, 62, 64
6, 1084800, Note_on_c, 4, 58, 80
6, 1084800, Note_on_c, 4, 62, 80
6, 1085040, Note_off_c, 4, 62, 64
6, 1085040, Note_off_c, 4, 58, 64
6, 1085280, Note_on_c, 4, 60, 80
6, 1085280, Note_on_c, 4, 53, 80
6, 1085520, Note_off_c, 4, 53, 64
6, 1085520, Note_off_c, 4, 60, 64
6, 1085760, Note_on_c, 4, 60, 80
6, 1085760, Note_on_c, 4, 53, 80
6, 1086000, Note_off_c, 4, 53, 64
6, 1086000, Note_off_c, 4, 60, 64
6, 1086240, Note_on_c, 4, 60, 80
6, 1086240, Note_on_c, 4, 53, 80
6, 1086480, Note_off_c, 4, 53, 64
6, 1086480, Note_off_c, 4, 60, 64
6, 1086720, Note_on_c, 4, 60, 80
6, 1086720, Note_on_c, 4, 53, 80
6, 1086960, Note_off_c, 4, 53, 64
6, 1086960, Note_off_c, 4, 60, 64
6, 1087200, Note_on_c, 4, 58, 80
6, 1087200, Note_on_c, 4, 62, 80
6, 1087440, Note_off_c, 4, 62, 64
6, 1087440, Note_off_c, 4, 58, 64
6, 1088160, Note_on_c, 4, 58, 80
6, 1088160, Note_on_c, 4, 60, 80
6, 1088400, Note_off_c, 4, 60, 64
6, 1088400, Note_off_c, 4, 58, 64
6, 1089120, Note_on_c, 4, 58, 80
6, 1089120, Note_on_c, 4, 62, 80
6, 1089360, Note_off_c, 4, 62, 64
6, 1089360, Note_off_c, 4, 58, 64
6, 1090080, Note_on_c, 4, 60, 80
6, 1090080, Note_on_c, 4, 53, 80
6, 1090320, Note_off_c, 4, 53, 64
6, 1090320, Note_off_c, 4, 60, 64
6, 1092960, Note_on_c, 4, 58, 48
6, 1092960, Note_on_c, 4, 50, 48
6, 1094400, Note_off_c, 4, 50, 64
6, 1094400, Note_off_c, 4, 58, 64
6, 1094400, Note_on_c, 4, 53, 48
6, 1094400, Note_on_c, 4, 60, 48
6, 1094880, Note_off_c, 4, 60, 64
6, 1094880, Note_off_c, 4, 53, 64
6, 1094880, Note_on_c, 4, 62, 41
6, 1094880, Note_on_c, 4, 58, 41
6, 1095600, Note_off_c, 4, 58, 64
6, 1095600, Note_off_c, 4, 62, 64
6, 1096800, Note_on_c, 4, 58, 48
6, 1096800, Note_on_c, 4, 62, 48
6, 1098240, Note_off_c, 4, 62, 64
6, 1098240, Note_off_c, 4, 58, 64
6, 1098240, Note_on_c, 4, 58, 48
6, 1098720, Note_off_c, 4, 58, 64
6, 1098720, Note_on_c, 4, 60, 41
6, 1098720, Note_on_c, 4, 53, 41
6, 1099440, Note_off_c, 4, 53, 64
6, 1099440, Note_off_c, 4, 60, 64
6, 1100640, Note_on_c, 4, 60, 48
6, 1100640, Note_on_c, 4, 53, 48
6, 1102080, Note_off_c, 4, 53, 64
6, 1102080, Note_off_c, 4, 60, 64
6, 1102080, Note_on_c, 4, 60, 48
6, 1102080, Note_on_c, 4, 53, 48
6, 1102560, Note_off_c, 4, 53, 64
6, 1102560, Note_off_c, 4, 60, 64
6, 1102560, Note_on_c, 4, 60, 41
6, 1102560, Note_on_c, 4, 53, 41
6, 1103280, Note_off_c, 4, 53, 64
6, 1103280, Note_off_c, 4, 60, 64
6, 1104480, Note_on_c, 4, 60, 48
6, 1104480, Note_on_c, 4, 53, 48
6, 1105920, Note_off_c, 4, 53, 64
6, 1105920, Note_off_c, 4, 60, 64
6, 1105920, Note_on_c, 4, 60, 48
6, 1105920, Note_on_c, 4, 53, 48
6, 1106400, Note_off_c, 4, 53, 64
6, 1106400, Note_off_c, 4, 60, 64
6, 1106400, Note_on_c, 4, 58, 80
6, 1106400, Note_on_c, 4, 50, 80
6, 1106640, Note_off_c, 4, 50, 64
6, 1106640, Note_off_c, 4, 58, 64
6, 1106880, Note_on_c, 4, 65, 80
6, 1106880, Note_on_c, 4, 53, 80
6, 1107120, Note_off_c, 4, 53, 64
6, 1107120, Note_off_c, 4, 65, 64
6, 1107360, Note_on_c, 4, 53, 80
6, 1107360, Note_on_c, 4, 65, 80
6, 1107600, Note_off_c, 4, 65, 64
6, 1107600, Note_off_c, 4, 53, 64
6, 1107840, Note_on_c, 4, 53, 80
6, 1107840, Note_on_c, 4, 65, 80
6, 1108080, Note_off_c, 4, 65, 64
6, 1108080, Note_off_c, 4, 53, 64
6, 1108320, Note_on_c, 4, 53, 80
6, 1108320, Note_on_c, 4, 65, 80
6, 1109472, Note_off_c, 4, 65, 64
6, 1109472, Note_off_c, 4, 53, 64
6, 1109760, Note_on_c, 4, 53, 80
6, 1109760, Note_on_c, 4, 65, 80
6, 1110000, Note_off_c, 4, 65, 64
6, 1110000, Note_off_c, 4, 53, 64
6, 1110240, Note_on_c, 4, 65, 80
6, 1110240, Note_on_c, 4, 53, 80
6, 1110480, Note_off_c, 4, 53, 64
6, 1110480, Note_off_c, 4, 65, 64
6, 1110720, Note_on_c, 4, 53, 80
6, 1110720, Note_on_c, 4, 65, 80
6, 1110960, Note_off_c, 4, 65, 64
6, 1110960, Note_off_c, 4, 53, 64
6, 1111200, Note_on_c, 4, 53, 80
6, 1111200, Note_on_c, 4, 65, 80
6, 1111440, Note_off_c, 4, 65, 64
6, 1111440, Note_off_c, 4, 53, 64
6, 1111680, Note_on_c, 4, 65, 80
6, 1111680, Note_on_c, 4, 53, 80
6, 1111920, Note_off_c, 4, 53, 64
6, 1111920, Note_off_c, 4, 65, 64
6, 1112160, Note_on_c, 4, 53, 80
6, 1112160, Note_on_c, 4, 65, 80
6, 1113312, Note_off_c, 4, 65, 64
6, 1113312, Note_off_c, 4, 53, 64
6, 1113600, Note_on_c, 4, 53, 80
6, 1113600, Note_on_c, 4, 65, 80
6, 1113840, Note_off_c, 4, 65, 64
6, 1113840, Note_off_c, 4, 53, 64
6, 1114080, Note_on_c, 4, 65, 80
6, 1114080, Note_on_c, 4, 53, 80
6, 1114320, Note_off_c, 4, 53, 64
6, 1114320, Note_off_c, 4, 65, 64
6, 1114560, Note_on_c, 4, 65, 80
6, 1114560, Note_on_c, 4, 53, 80
6, 1114800, Note_off_c, 4, 53, 64
6, 1114800, Note_off_c, 4, 65, 64
6, 1115040, Note_on_c, 4, 65, 80
6, 1115040, Note_on_c, 4, 53, 80
6, 1115280, Note_off_c, 4, 53, 64
6, 1115280, Note_off_c, 4, 65, 64
6, 1115520, Note_on_c, 4, 53, 80
6, 1115520, Note_on_c, 4, 65, 80
6, 1115760, Note_off_c, 4, 65, 64
6, 1115760, Note_off_c, 4, 53, 64
6, 1116000, Note_on_c, 4, 53, 80
6, 1116000, Note_on_c, 4, 65, 80
6, 1117152, Note_off_c, 4, 65, 64
6, 1117152, Note_off_c, 4, 53, 64
6, 1117440, Note_on_c, 4, 53, 80
6, 1117440, Note_on_c, 4, 65, 80
6, 1117680, Note_off_c, 4, 65, 64
6, 1117680, Note_off_c, 4, 53, 64
6, 1117920, Note_on_c, 4, 65, 80
6, 1117920, Note_on_c, 4, 53, 80
6, 1118160, Note_off_c, 4, 53, 64
6, 1118160, Note_off_c, 4, 65, 64
6, 1118400, Note_on_c, 4, 65, 80
6, 1118400, Note_on_c, 4, 53, 80
6, 1118640, Note_off_c, 4, 53, 64
6, 1118640, Note_off_c, 4, 65, 64
6, 1118880, Note_on_c, 4, 65, 80
6, 1118880, Note_on_c, 4, 53, 80
6, 1119120, Note_off_c, 4, 53, 64
6, 1119120, Note_off_c, 4, 65, 64
6, 1119360, Note_on_c, 4, 53, 80
6, 1119360, Note_on_c, 4, 65, 80
6, 1119600, Note_off_c, 4, 65, 64
6, 1119600, Note_off_c, 4, 53, 64
6, 1119840, Note_on_c, 4, 53, 80
6, 1119840, Note_on_c, 4, 65, 80
6, 1121640, Note_off_c, 4, 65, 64
6, 1121640, Note_off_c, 4, 53, 64
6, 1129440, Note_on_c, 4, 62, 78
6, 1129440, Note_on_c, 4, 58, 78
6, 1129680, Note_off_c, 4, 58, 64
6, 1129680, Note_off_c, 4, 62, 64
6, 1130880, Note_on_c, 4, 58, 78
6, 1130880, Note_on_c, 4, 62, 78
6, 1131072, Note_off_c, 4, 62, 64
6, 1131072, Note_off_c, 4, 58, 64
6, 1131360, Note_on_c, 4, 60, 78
6, 1131360, Note_on_c, 4, 58, 78
6, 1131600, Note_off_c, 4, 58, 64
6, 1131600, Note_off_c, 4, 60, 64
6, 1132320, Note_on_c, 4, 53, 78
6, 1132320, Note_on_c, 4, 60, 78
6, 1132560, Note_off_c, 4, 60, 64
6, 1132560, Note_off_c, 4, 53, 64
6, 1137120, Note_on_c, 4, 58, 78
6, 1137120, Note_on_c, 4, 62, 78
6, 1137360, Note_off_c, 4, 62, 64
6, 1137360, Note_off_c, 4, 58, 64
6, 1138560, Note_on_c, 4, 58, 78
6, 1138560, Note_on_c, 4, 62, 78
6, 1138752, Note_off_c, 4, 62, 64
6, 1138752, Note_off_c, 4, 58, 64
6, 1139040, Note_on_c, 4, 58, 78
6, 1139040, Note_on_c, 4, 60, 78
6, 1139280, Note_off_c, 4, 60, 64
6, 1139280, Note_off_c, 4, 58, 64
6, 1140000, Note_on_c, 4, 60, 78
6, 1140000, Note_on_c, 4, 53, 78
6, 1140240, Note_off_c, 4, 53, 64
6, 1140240, Note_off_c, 4, 60, 64
6, 1142880, Note_on_c, 4, 46, 40
6, 1142880, Note_on_c, 4, 58, 40
6, 1144724, Note_off_c, 4, 58, 64
6, 1144724, Note_off_c, 4, 46, 64
6, 1144800, Note_on_c, 4, 46, 40
6, 1144800, Note_on_c, 4, 58, 40
6, 1146644, Note_off_c, 4, 58, 64
6, 1146644, Note_off_c, 4, 46, 64
6, 1146720, Note_on_c, 4, 58, 62
6, 1146720, Note_on_c, 4, 46, 62
6, 1148564, Note_off_c, 4, 46, 64
6, 1148564, Note_off_c, 4, 58, 64
6, 1148640, Note_on_c, 4, 58, 62
6, 1148640, Note_on_c, 4, 46, 62
6, 1150484, Note_off_c, 4, 46, 64
6, 1150484, Note_off_c, 4, 58, 64
6, 1150560, Note_on_c, 4, 58, 62
6, 1150560, Note_on_c, 4, 46, 62
6, 1152404, Note_off_c, 4, 46, 64
6, 1152404, Note_off_c, 4, 58, 64
6, 1152480, Note_on_c, 4, 46, 80
6, 1152480, Note_on_c, 4, 58, 80
6, 1155936, Note_off_c, 4, 58, 64
6, 1155936, Note_off_c, 4, 46, 64
6, 1156320, Note_on_c, 4, 58, 80
6, 1156320, Note_on_c, 4, 62, 80
6, 1157856, Note_off_c, 4, 62, 64
6, 1157856, Note_off_c, 4, 58, 64
6, 1158240, Note_on_c, 4, 53, 80
6, 1158240, Note_on_c, 4, 60, 80
6, 1159776, Note_off_c, 4, 60, 64
6, 1159776, Note_off_c, 4, 53, 64
6, 1160160, Note_on_c, 4, 50, 127
6, 1160160, Note_on_c, 4, 58, 127
6, 1160544, Note_off_c, 4, 58, 64
6, 1160544, Note_off_c, 4, 50, 64
6, 1166400, Note_on_c, 4, 53, 80
6, 1166400, Note_on_c, 4, 60, 80
6, 1167168, Note_off_c, 4, 60, 64
6, 1167168, Note_off_c, 4, 53, 64
6, 1167360, Note_on_c, 4, 60, 80
6, 1167360, Note_on_c, 4, 53, 80
6, 1167600, Note_off_c, 4, 53, 64
6, 1167600, Note_off_c, 4, 60, 64
6, 1167840, Note_on_c, 4, 62, 127
6, 1167840, Note_on_c, 4, 58, 127
6, 1168224, Note_off_c, 4, 58, 64
6, 1168224, Note_off_c, 4, 62, 64
6, 1174080, Note_on_c, 4, 53, 80
6, 1174080, Note_on_c, 4, 60, 80
6, 1174848, Note_off_c, 4, 60, 64
6, 1174848, Note_off_c, 4, 53, 64
6, 1175040, Note_on_c, 4, 60, 80
6, 1175040, Note_on_c, 4, 53, 80
6, 1175280, Note_off_c, 4, 53, 64
6, 1175280, Note_off_c, 4, 60, 64
6, 1175520, Note_on_c, 4, 58, 127
6, 1175520, Note_on_c, 4, 62, 127
6, 1175904, Note_off_c, 4, 62, 64
6, 1175904, Note_off_c, 4, 58, 64
6, 1177920, Note_on_c, 4, 53, 80
6, 1177920, Note_on_c, 4, 60, 80
6, 1178688, Note_off_c, 4, 60, 64
6, 1178688, Note_off_c, 4, 53, 64
6, 1178880, Note_on_c, 4, 53, 80
6, 1178880, Note_on_c, 4, 60, 80
6, 1179120, Note_off_c, 4, 60, 64
6, 1179120, Note_off_c, 4, 53, 64
6, 1179360, Note_on_c, 4, 53, 80
6, 1179360, Note_on_c, 4, 60, 80
6, 1182946, Note_off_c, 4, 60, 64
6, 1182946, Note_off_c, 4, 53, 64
6, 1183080, Note_on_c, 4, 60, 80
6, 1183080, Note_on_c, 4, 53, 80
6, 1183194, Note_off_c, 4, 53, 64
6, 1183194, Note_off_c, 4, 60, 64
6, 1183200, Note_on_c, 4, 60, 80
6, 1183200, Note_on_c, 4, 53, 80
6, 1183392, Note_off_c, 4, 53, 64
6, 1183392, Note_off_c, 4, 60, 64
6, 1185120, Note_on_c, 4, 60, 80
6, 1185120, Note_on_c, 4, 53, 80
6, 1185312, Note_off_c, 4, 53, 64
6, 1185312, Note_off_c, 4, 60, 64
6, 1187040, Note_on_c, 4, 60, 80
6, 1187040, Note_on_c, 4, 53, 80
6, 1187232, Note_off_c, 4, 53, 64
6, 1187232, Note_off_c, 4, 60, 64
6, 1188000, Note_on_c, 4, 60, 80
6, 1188000, Note_on_c, 4, 53, 80
6, 1188192, Note_off_c, 4, 53, 64
6, 1188192, Note_off_c, 4, 60, 64
6, 1188960, Note_on_c, 4, 53, 80
6, 1188960, Note_on_c, 4, 60, 80
6, 1189152, Note_off_c, 4, 60, 64
6, 1189152, Note_off_c, 4, 53, 64
6, 1189920, Note_on_c, 4, 60, 80
6, 1189920, Note_on_c, 4, 53, 80
6, 1190112, Note_off_c, 4, 53, 64
6, 1190112, Note_off_c, 4, 60, 64
6, 1190880, Note_on_c, 4, 58, 80
6, 1190880, Note_on_c, 4, 50, 80
6, 1191072, Note_off_c, 4, 50, 64
6, 1191072, Note_off_c, 4, 58, 64
6, 1192800, Note_on_c, 4, 58, 48
6, 1192800, Note_on_c, 4, 50, 48
6, 1192992, Note_off_c, 4, 50, 64
6, 1192992, Note_off_c, 4, 58, 64
6, 1194720, Note_on_c, 4, 58, 48
6, 1194720, Note_on_c, 4, 50, 48
6, 1194912, Note_off_c, 4, 50, 64
6, 1194912, Note_off_c, 4, 58, 64
6, 1196640, Note_on_c, 4, 58, 48
6, 1196640, Note_on_c, 4, 50, 48
6, 1196832, Note_off_c, 4, 50, 64
6, 1196832, Note_off_c, 4, 58, 64
6, 1198560, Note_on_c, 4, 62, 80
6, 1198560, Note_on_c, 4, 58, 80
6, 1198752, Note_off_c, 4, 58, 64
6, 1198752, Note_off_c, 4, 62, 64
6, 1200480, Note_on_c, 4, 58, 48
6, 1200480, Note_on_c, 4, 62, 48
6, 1200672, Note_off_c, 4, 62, 64
6, 1200672, Note_off_c, 4, 58, 64
6, 1202400, Note_on_c, 4, 58, 48
6, 1202400, Note_on_c, 4, 62, 48
6, 1202592, Note_off_c, 4, 62, 64
6, 1202592, Note_off_c, 4, 58, 64
6, 1204320, Note_on_c, 4, 58, 48
6, 1204320, Note_on_c, 4, 62, 48
6, 1204512, Note_off_c, 4, 62, 64
6, 1204512, Note_off_c, 4, 58, 64
6, 1210080, Note_on_c, 4, 60, 76
6, 1210080, Note_on_c, 4, 53, 76
6, 1211616, Note_off_c, 4, 53, 64
6, 1211616, Note_off_c, 4, 60, 64
6, 1212000, Note_on_c, 4, 60, 76
6, 1212000, Note_on_c, 4, 53, 76
6, 1213584, Note_off_c, 4, 53, 64
6, 1213584, Note_off_c, 4, 60, 64
6, 1213800, Note_on_c, 4, 60, 76
6, 1213800, Note_on_c, 4, 53, 76
6, 1213896, Note_off_c, 4, 53, 64
6, 1213896, Note_off_c, 4, 60, 64
6, 1213920, Note_on_c, 4, 62, 76
6, 1213920, Note_on_c, 4, 58, 116
6, 1214112, Note_off_c, 4, 58, 64
6, 1214112, Note_off_c, 4, 62, 64
6, 1217760, Note_on_c, 4, 53, 76
6, 1217760, Note_on_c, 4, 60, 76
6, 1219296, Note_off_c, 4, 60, 64
6, 1219296, Note_off_c, 4, 53, 64
6, 1219680, Note_on_c, 4, 53, 76
6, 1219680, Note_on_c, 4, 60, 76
6, 1221264, Note_off_c, 4, 60, 64
6, 1221264, Note_off_c, 4, 53, 64
6, 1221480, Note_on_c, 4, 53, 76
6, 1221480, Note_on_c, 4, 60, 76
6, 1221576, Note_off_c, 4, 60, 64
6, 1221576, Note_off_c, 4, 53, 64
6, 1221600, Note_on_c, 4, 50, 56
6, 1221600, Note_on_c, 4, 58, 56
6, 1225344, Note_off_c, 4, 58, 64
6, 1225344, Note_off_c, 4, 50, 64
6, 1225440, Note_on_c, 4, 53, 67
6, 1225440, Note_on_c, 4, 60, 67
6, 1229184, Note_off_c, 4, 60, 64
6, 1229184, Note_off_c, 4, 53, 64
6, 1229280, Note_on_c, 4, 62, 80
6, 1229280, Note_on_c, 4, 58, 80
6, 1233024, Note_off_c, 4, 58, 64
6, 1233024, Note_off_c, 4, 62, 64
6, 1233120, Note_on_c, 4, 60, 96
6, 1233120, Note_on_c, 4, 53, 96
6, 1236864, Note_off_c, 4, 53, 64
6, 1236864, Note_off_c, 4, 60, 64
6, 1236960, Note_on_c, 4, 58, 101
6, 1236960, Note_on_c, 4, 50, 101
6, 1244256, Note_off_c, 4, 50, 64
6, 1244256, Note_off_c, 4, 58, 64
6, 1244640, Note_on_c, 4, 58, 120
6, 1244640, Note_on_c, 4, 50, 120
6, 1244880, Note_off_c, 4, 50, 64
6, 1244880, Note_off_c, 4, 58, 64
6, 1245600, Note_on_c, 4, 58, 120
6, 1245600, Note_on_c, 4, 50, 120
6, 1245840, Note_off_c, 4, 50, 64
6, 1245840, Note_off_c, 4, 58, 64
6, 1246560, Note_on_c, 4, 50, 120
6, 1246560, Note_on_c, 4, 58, 120
6, 1246800, Note_off_c, 4, 58, 64
6, 1246800, Note_off_c, 4, 50, 64
6, 1248480, Note_on_c, 4, 50, 120
6, 1248480, Note_on_c, 4, 58, 120
6, 1248720, Note_off_c, 4, 58, 64
6, 1248720, Note_off_c, 4, 50, 64
6, 1250400, Note_on_c, 4, 46, 127
6, 1250400, Note_on_c, 4, 58, 120
6, 1250640, Note_off_c, 4, 58, 64
6, 1250640, Note_off_c, 4, 46, 64
6, 1257600, Control_c, 4, 121, 127
6, 1257600, End_track
7, 0, Start_track
7, 0, Title_t, "Trumpets"
7, 0, MIDI_port, 0
7, 0, Channel_prefix, 5
7, 0, Control_c, 5, 7, 89
7, 0, Control_c, 5, 10, 110
7, 0, Program_c, 5, 61
7, 480, Program_c, 5, 61
7, 480, Control_c, 5, 7, 90
7, 480, Control_c, 5, 10, 91
7, 480, Control_c, 5, 93, 85
7, 480, Control_c, 5, 91, 85
7, 5700, Control_c, 5, 7, 75
7, 24960, Program_c, 5, 45
7, 28295, Note_on_c, 5, 29, 80
7, 28300, Note_on_c, 5, 41, 80
7, 28320, Note_on_c, 5, 69, 38
7, 28320, Note_on_c, 5, 63, 32
7, 28320, Note_on_c, 5, 60, 32
7, 28320, Note_on_c, 5, 53, 32
7, 28704, Note_off_c, 5, 53, 64
7, 28704, Note_off_c, 5, 60, 64
7, 28704, Note_off_c, 5, 63, 64
7, 28704, Note_off_c, 5, 69, 64
7, 28709, Note_off_c, 5, 29, 64
7, 28714, Note_off_c, 5, 41, 64
7, 28800, Note_on_c, 5, 34, 51
7, 28800, Note_on_c, 5, 46, 51
7, 29184, Note_off_c, 5, 46, 64
7, 29184, Note_off_c, 5, 34, 64
7, 30720, Program_c, 5, 61
7, 72480, Control_c, 5, 7, 90
7, 72960, Note_on_c, 5, 65, 100
7, 74736, Note_off_c, 5, 65, 64
7, 74820, Note_on_c, 5, 65, 100
7, 74850, Note_off_c, 5, 65, 64
7, 74880, Note_on_c, 5, 65, 100
7, 74976, Note_off_c, 5, 65, 64
7, 76800, Note_on_c, 5, 65, 100
7, 78576, Note_off_c, 5, 65, 64
7, 78660, Note_on_c, 5, 65, 100
7, 78690, Note_off_c, 5, 65, 64
7, 78720, Note_on_c, 5, 65, 100
7, 78960, Note_off_c, 5, 65, 64
7, 80640, Note_on_c, 5, 65, 80
7, 80880, Note_off_c, 5, 65, 64
7, 82560, Note_on_c, 5, 65, 80
7, 82800, Note_off_c, 5, 65, 64
7, 83520, Note_on_c, 5, 65, 80
7, 83760, Note_off_c, 5, 65, 64
7, 84480, Note_on_c, 5, 65, 80
7, 84720, Note_off_c, 5, 65, 64
7, 85440, Note_on_c, 5, 65, 80
7, 85680, Note_off_c, 5, 65, 64
7, 86400, Note_on_c, 5, 70, 80
7, 86400, Note_on_c, 5, 74, 80
7, 86640, Note_off_c, 5, 74, 64
7, 86640, Note_off_c, 5, 70, 64
7, 101760, Note_on_c, 5, 65, 80
7, 102000, Note_off_c, 5, 65, 64
7, 103680, Note_on_c, 5, 65, 80
7, 103920, Note_off_c, 5, 65, 64
7, 104640, Note_on_c, 5, 65, 80
7, 104880, Note_off_c, 5, 65, 64
7, 105600, Note_on_c, 5, 74, 80
7, 105600, Note_on_c, 5, 70, 80
7, 105840, Note_off_c, 5, 70, 64
7, 105840, Note_off_c, 5, 74, 64
7, 106080, Note_on_c, 5, 70, 56
7, 106080, Note_on_c, 5, 58, 56
7, 106320, Note_off_c, 5, 58, 64
7, 106320, Note_off_c, 5, 70, 64
7, 106560, Note_on_c, 5, 58, 56
7, 106560, Note_on_c, 5, 70, 56
7, 106800, Note_off_c, 5, 70, 64
7, 106800, Note_off_c, 5, 58, 64
7, 107040, Note_on_c, 5, 70, 56
7, 107040, Note_on_c, 5, 58, 56
7, 107280, Note_off_c, 5, 58, 64
7, 107280, Note_off_c, 5, 70, 64
7, 107520, Note_on_c, 5, 70, 56
7, 107520, Note_on_c, 5, 58, 56
7, 107760, Note_off_c, 5, 58, 64
7, 107760, Note_off_c, 5, 70, 64
7, 108000, Note_on_c, 5, 70, 56
7, 108000, Note_on_c, 5, 58, 56
7, 108240, Note_off_c, 5, 58, 64
7, 108240, Note_off_c, 5, 70, 64
7, 108480, Note_on_c, 5, 70, 56
7, 108480, Note_on_c, 5, 58, 56
7, 108720, Note_off_c, 5, 58, 64
7, 108720, Note_off_c, 5, 70, 64
7, 108960, Note_on_c, 5, 70, 56
7, 108960, Note_on_c, 5, 58, 56
7, 109200, Note_off_c, 5, 58, 64
7, 109200, Note_off_c, 5, 70, 64
7, 109440, Note_on_c, 5, 70, 56
7, 109440, Note_on_c, 5, 58, 56
7, 109680, Note_off_c, 5, 58, 64
7, 109680, Note_off_c, 5, 70, 64
7, 109920, Note_on_c, 5, 70, 56
7, 109920, Note_on_c, 5, 58, 56
7, 110160, Note_off_c, 5, 58, 64
7, 110160, Note_off_c, 5, 70, 64
7, 110400, Note_on_c, 5, 58, 56
7, 110400, Note_on_c, 5, 70, 56
7, 110640, Note_off_c, 5, 70, 64
7, 110640, Note_off_c, 5, 58, 64
7, 110880, Note_on_c, 5, 58, 56
7, 110880, Note_on_c, 5, 70, 56
7, 111120, Note_off_c, 5, 70, 64
7, 111120, Note_off_c, 5, 58, 64
7, 111360, Note_on_c, 5, 65, 56
7, 111360, Note_on_c, 5, 72, 56
7, 111600, Note_off_c, 5, 72, 64
7, 111600, Note_off_c, 5, 65, 64
7, 111840, Note_on_c, 5, 72, 56
7, 111840, Note_on_c, 5, 65, 56
7, 112080, Note_off_c, 5, 65, 64
7, 112080, Note_off_c, 5, 72, 64
7, 112320, Note_on_c, 5, 72, 56
7, 112320, Note_on_c, 5, 65, 56
7, 112560, Note_off_c, 5, 65, 64
7, 112560, Note_off_c, 5, 72, 64
7, 112800, Note_on_c, 5, 72, 56
7, 112800, Note_on_c, 5, 65, 56
7, 113040, Note_off_c, 5, 65, 64
7, 113040, Note_off_c, 5, 72, 64
7, 113280, Note_on_c, 5, 58, 56
7, 113280, Note_on_c, 5, 70, 56
7, 113520, Note_off_c, 5, 70, 64
7, 113520, Note_off_c, 5, 58, 64
7, 116160, Note_on_c, 5, 70, 56
7, 116160, Note_on_c, 5, 58, 56
7, 116400, Note_off_c, 5, 58, 64
7, 116400, Note_off_c, 5, 70, 64
7, 116640, Note_on_c, 5, 70, 56
7, 116640, Note_on_c, 5, 58, 56
7, 116880, Note_off_c, 5, 58, 64
7, 116880, Note_off_c, 5, 70, 64
7, 117120, Note_on_c, 5, 53, 56
7, 117120, Note_on_c, 5, 65, 56
7, 117360, Note_off_c, 5, 65, 64
7, 117360, Note_off_c, 5, 53, 64
7, 120960, Note_on_c, 5, 53, 70
7, 120960, Note_on_c, 5, 65, 70
7, 121200, Note_off_c, 5, 65, 64
7, 121200, Note_off_c, 5, 53, 64
7, 122880, Note_on_c, 5, 70, 70
7, 122880, Note_on_c, 5, 58, 70
7, 123120, Note_off_c, 5, 58, 64
7, 123120, Note_off_c, 5, 70, 64
7, 124800, Note_on_c, 5, 70, 70
7, 124800, Note_on_c, 5, 58, 70
7, 125040, Note_off_c, 5, 58, 64
7, 125040, Note_off_c, 5, 70, 64
7, 126720, Note_on_c, 5, 65, 70
7, 126720, Note_on_c, 5, 53, 70
7, 126960, Note_off_c, 5, 53, 64
7, 126960, Note_off_c, 5, 65, 64
7, 156480, Note_on_c, 5, 65, 64
7, 156480, Note_on_c, 5, 72, 64
7, 156864, Note_off_c, 5, 72, 64
7, 156864, Note_off_c, 5, 65, 64
7, 157440, Note_on_c, 5, 65, 64
7, 157440, Note_on_c, 5, 72, 64
7, 157824, Note_off_c, 5, 72, 64
7, 157824, Note_off_c, 5, 65, 64
7, 158400, Note_on_c, 5, 65, 64
7, 158400, Note_on_c, 5, 72, 64
7, 158784, Note_off_c, 5, 72, 64
7, 158784, Note_off_c, 5, 65, 64
7, 159360, Note_on_c, 5, 62, 112
7, 159360, Note_on_c, 5, 70, 112
7, 159552, Note_off_c, 5, 70, 64
7, 159552, Note_off_c, 5, 62, 64
7, 159840, Note_on_c, 5, 70, 112
7, 159840, Note_on_c, 5, 58, 112
7, 160032, Note_off_c, 5, 58, 64
7, 160032, Note_off_c, 5, 70, 64
7, 160320, Note_on_c, 5, 58, 112
7, 160320, Note_on_c, 5, 70, 112
7, 160512, Note_off_c, 5, 70, 64
7, 160512, Note_off_c, 5, 58, 64
7, 160800, Note_on_c, 5, 58, 112
7, 160800, Note_on_c, 5, 70, 112
7, 160992, Note_off_c, 5, 70, 64
7, 160992, Note_off_c, 5, 58, 64
7, 161280, Note_on_c, 5, 58, 112
7, 161280, Note_on_c, 5, 70, 112
7, 161472, Note_off_c, 5, 70, 64
7, 161472, Note_off_c, 5, 58, 64
7, 161760, Note_on_c, 5, 70, 112
7, 161760, Note_on_c, 5, 58, 112
7, 161952, Note_off_c, 5, 58, 64
7, 161952, Note_off_c, 5, 70, 64
7, 162240, Note_on_c, 5, 58, 112
7, 162240, Note_on_c, 5, 70, 112
7, 162432, Note_off_c, 5, 70, 64
7, 162432, Note_off_c, 5, 58, 64
7, 162720, Note_on_c, 5, 58, 112
7, 162720, Note_on_c, 5, 70, 112
7, 162912, Note_off_c, 5, 70, 64
7, 162912, Note_off_c, 5, 58, 64
7, 163200, Note_on_c, 5, 58, 112
7, 163200, Note_on_c, 5, 70, 112
7, 163392, Note_off_c, 5, 70, 64
7, 163392, Note_off_c, 5, 58, 64
7, 163680, Note_on_c, 5, 70, 112
7, 163680, Note_on_c, 5, 58, 112
7, 163872, Note_off_c, 5, 58, 64
7, 163872, Note_off_c, 5, 70, 64
7, 164160, Note_on_c, 5, 58, 112
7, 164160, Note_on_c, 5, 70, 112
7, 164352, Note_off_c, 5, 70, 64
7, 164352, Note_off_c, 5, 58, 64
7, 164640, Note_on_c, 5, 58, 112
7, 164640, Note_on_c, 5, 70, 112
7, 164832, Note_off_c, 5, 70, 64
7, 164832, Note_off_c, 5, 58, 64
7, 165120, Note_on_c, 5, 53, 112
7, 165120, Note_on_c, 5, 65, 112
7, 165312, Note_off_c, 5, 65, 64
7, 165312, Note_off_c, 5, 53, 64
7, 165600, Note_on_c, 5, 65, 112
7, 165600, Note_on_c, 5, 53, 112
7, 165792, Note_off_c, 5, 53, 64
7, 165792, Note_off_c, 5, 65, 64
7, 166080, Note_on_c, 5, 53, 112
7, 166080, Note_on_c, 5, 65, 112
7, 166272, Note_off_c, 5, 65, 64
7, 166272, Note_off_c, 5, 53, 64
7, 166560, Note_on_c, 5, 53, 112
7, 166560, Note_on_c, 5, 65, 112
7, 166752, Note_off_c, 5, 65, 64
7, 166752, Note_off_c, 5, 53, 64
7, 167040, Note_on_c, 5, 58, 104
7, 167040, Note_on_c, 5, 70, 104
7, 170496, Note_off_c, 5, 70, 64
7, 170496, Note_off_c, 5, 58, 64
7, 170880, Note_on_c, 5, 58, 104
7, 170880, Note_on_c, 5, 70, 104
7, 172416, Note_off_c, 5, 70, 64
7, 172416, Note_off_c, 5, 58, 64
7, 172800, Note_on_c, 5, 53, 104
7, 172800, Note_on_c, 5, 65, 104
7, 174336, Note_off_c, 5, 65, 64
7, 174336, Note_off_c, 5, 53, 64
7, 174720, Note_on_c, 5, 58, 104
7, 174720, Note_on_c, 5, 70, 104
7, 176256, Note_off_c, 5, 70, 64
7, 176256, Note_off_c, 5, 58, 64
7, 178560, Note_on_c, 5, 77, 104
7, 178560, Note_on_c, 5, 65, 104
7, 180096, Note_off_c, 5, 65, 64
7, 180096, Note_off_c, 5, 77, 64
7, 257280, Note_on_c, 5, 72, 69
7, 257760, Note_off_c, 5, 72, 64
7, 258240, Note_on_c, 5, 72, 73
7, 258720, Note_off_c, 5, 72, 64
7, 259200, Note_on_c, 5, 72, 69
7, 259680, Note_off_c, 5, 72, 64
7, 260160, Note_on_c, 5, 72, 73
7, 260640, Note_off_c, 5, 72, 64
7, 261120, Note_on_c, 5, 72, 69
7, 261600, Note_off_c, 5, 72, 64
7, 262080, Note_on_c, 5, 72, 73
7, 262560, Note_off_c, 5, 72, 64
7, 263040, Note_on_c, 5, 65, 80
7, 263040, Note_on_c, 5, 72, 80
7, 263280, Note_off_c, 5, 72, 64
7, 263280, Note_off_c, 5, 65, 64
7, 264960, Note_on_c, 5, 65, 80
7, 264960, Note_on_c, 5, 74, 80
7, 265200, Note_off_c, 5, 74, 64
7, 265200, Note_off_c, 5, 65, 64
7, 266880, Note_on_c, 5, 65, 80
7, 266880, Note_on_c, 5, 72, 80
7, 267120, Note_off_c, 5, 72, 64
7, 267120, Note_off_c, 5, 65, 64
7, 268320, Note_on_c, 5, 72, 80
7, 268560, Note_off_c, 5, 72, 64
7, 268800, Note_on_c, 5, 72, 80
7, 269040, Note_off_c, 5, 72, 64
7, 269280, Note_on_c, 5, 72, 80
7, 269520, Note_off_c, 5, 72, 64
7, 269760, Note_on_c, 5, 72, 80
7, 270000, Note_off_c, 5, 72, 64
7, 270240, Note_on_c, 5, 72, 80
7, 270480, Note_off_c, 5, 72, 64
7, 312960, Note_on_c, 5, 77, 78
7, 312960, Note_on_c, 5, 65, 78
7, 313200, Note_off_c, 5, 65, 64
7, 313200, Note_off_c, 5, 77, 64
7, 314400, Note_on_c, 5, 77, 78
7, 314400, Note_on_c, 5, 65, 78
7, 314592, Note_off_c, 5, 65, 64
7, 314592, Note_off_c, 5, 77, 64
7, 314880, Note_on_c, 5, 77, 78
7, 314880, Note_on_c, 5, 65, 78
7, 315120, Note_off_c, 5, 65, 64
7, 315120, Note_off_c, 5, 77, 64
7, 315840, Note_on_c, 5, 65, 78
7, 315840, Note_on_c, 5, 72, 78
7, 316080, Note_off_c, 5, 72, 64
7, 316080, Note_off_c, 5, 65, 64
7, 320640, Note_on_c, 5, 65, 78
7, 320640, Note_on_c, 5, 77, 78
7, 320880, Note_off_c, 5, 77, 64
7, 320880, Note_off_c, 5, 65, 64
7, 322080, Note_on_c, 5, 65, 78
7, 322080, Note_on_c, 5, 77, 78
7, 322272, Note_off_c, 5, 77, 64
7, 322272, Note_off_c, 5, 65, 64
7, 322560, Note_on_c, 5, 65, 78
7, 322560, Note_on_c, 5, 77, 78
7, 322800, Note_off_c, 5, 77, 64
7, 322800, Note_off_c, 5, 65, 64
7, 323520, Note_on_c, 5, 65, 78
7, 323520, Note_on_c, 5, 72, 78
7, 323760, Note_off_c, 5, 72, 64
7, 323760, Note_off_c, 5, 65, 64
7, 330240, Note_on_c, 5, 72, 62
7, 332084, Note_off_c, 5, 72, 64
7, 332160, Note_on_c, 5, 72, 62
7, 334004, Note_off_c, 5, 72, 64
7, 334080, Note_on_c, 5, 72, 62
7, 335924, Note_off_c, 5, 72, 64
7, 336000, Note_on_c, 5, 65, 80
7, 336000, Note_on_c, 5, 77, 80
7, 339456, Note_off_c, 5, 77, 64
7, 339456, Note_off_c, 5, 65, 64
7, 339840, Note_on_c, 5, 77, 80
7, 339840, Note_on_c, 5, 65, 80
7, 341376, Note_off_c, 5, 65, 64
7, 341376, Note_off_c, 5, 77, 64
7, 341760, Note_on_c, 5, 72, 80
7, 343296, Note_off_c, 5, 72, 64
7, 343680, Note_on_c, 5, 65, 127
7, 343680, Note_on_c, 5, 72, 127
7, 344064, Note_off_c, 5, 72, 64
7, 344064, Note_off_c, 5, 65, 64
7, 349920, Note_on_c, 5, 72, 80
7, 350688, Note_off_c, 5, 72, 64
7, 350880, Note_on_c, 5, 72, 80
7, 351120, Note_off_c, 5, 72, 64
7, 351360, Note_on_c, 5, 72, 127
7, 351360, Note_on_c, 5, 65, 127
7, 351744, Note_off_c, 5, 65, 64
7, 351744, Note_off_c, 5, 72, 64
7, 357600, Note_on_c, 5, 72, 80
7, 358368, Note_off_c, 5, 72, 64
7, 358560, Note_on_c, 5, 72, 80
7, 358800, Note_off_c, 5, 72, 64
7, 359040, Note_on_c, 5, 65, 127
7, 359040, Note_on_c, 5, 72, 127
7, 359424, Note_off_c, 5, 72, 64
7, 359424, Note_off_c, 5, 65, 64
7, 361440, Note_on_c, 5, 72, 80
7, 362208, Note_off_c, 5, 72, 64
7, 362400, Note_on_c, 5, 72, 80
7, 362640, Note_off_c, 5, 72, 64
7, 362880, Note_on_c, 5, 65, 100
7, 364656, Note_off_c, 5, 65, 64
7, 364740, Note_on_c, 5, 65, 100
7, 364770, Note_off_c, 5, 65, 64
7, 364800, Note_on_c, 5, 65, 100
7, 364896, Note_off_c, 5, 65, 64
7, 366720, Note_on_c, 5, 65, 100
7, 368496, Note_off_c, 5, 65, 64
7, 368580, Note_on_c, 5, 65, 100
7, 368610, Note_off_c, 5, 65, 64
7, 368640, Note_on_c, 5, 65, 100
7, 368880, Note_off_c, 5, 65, 64
7, 370560, Note_on_c, 5, 65, 100
7, 370800, Note_off_c, 5, 65, 64
7, 372480, Note_on_c, 5, 65, 80
7, 372720, Note_off_c, 5, 65, 64
7, 373440, Note_on_c, 5, 65, 80
7, 373680, Note_off_c, 5, 65, 64
7, 374400, Note_on_c, 5, 65, 80
7, 374640, Note_off_c, 5, 65, 64
7, 375360, Note_on_c, 5, 65, 80
7, 375600, Note_off_c, 5, 65, 64
7, 376320, Note_on_c, 5, 70, 80
7, 376320, Note_on_c, 5, 74, 80
7, 376560, Note_off_c, 5, 74, 64
7, 376560, Note_off_c, 5, 70, 64
7, 391680, Note_on_c, 5, 65, 80
7, 391920, Note_off_c, 5, 65, 64
7, 393600, Note_on_c, 5, 65, 80
7, 393840, Note_off_c, 5, 65, 64
7, 394560, Note_on_c, 5, 65, 80
7, 394800, Note_off_c, 5, 65, 64
7, 395520, Note_on_c, 5, 74, 80
7, 395520, Note_on_c, 5, 70, 80
7, 395760, Note_off_c, 5, 70, 64
7, 395760, Note_off_c, 5, 74, 64
7, 396000, Note_on_c, 5, 70, 56
7, 396000, Note_on_c, 5, 58, 56
7, 396240, Note_off_c, 5, 58, 64
7, 396240, Note_off_c, 5, 70, 64
7, 396480, Note_on_c, 5, 58, 56
7, 396480, Note_on_c, 5, 70, 56
7, 396720, Note_off_c, 5, 70, 64
7, 396720, Note_off_c, 5, 58, 64
7, 396960, Note_on_c, 5, 70, 56
7, 396960, Note_on_c, 5, 58, 56
7, 397200, Note_off_c, 5, 58, 64
7, 397200, Note_off_c, 5, 70, 64
7, 397440, Note_on_c, 5, 70, 56
7, 397440, Note_on_c, 5, 58, 56
7, 397680, Note_off_c, 5, 58, 64
7, 397680, Note_off_c, 5, 70, 64
7, 397920, Note_on_c, 5, 70, 56
7, 397920, Note_on_c, 5, 58, 56
7, 398160, Note_off_c, 5, 58, 64
7, 398160, Note_off_c, 5, 70, 64
7, 398400, Note_on_c, 5, 70, 56
7, 398400, Note_on_c, 5, 58, 56
7, 398640, Note_off_c, 5, 58, 64
7, 398640, Note_off_c, 5, 70, 64
7, 398880, Note_on_c, 5, 70, 56
7, 398880, Note_on_c, 5, 58, 56
7, 399120, Note_off_c, 5, 58, 64
7, 399120, Note_off_c, 5, 70, 64
7, 399360, Note_on_c, 5, 70, 56
7, 399360, Note_on_c, 5, 58, 56
7, 399600, Note_off_c, 5, 58, 64
7, 399600, Note_off_c, 5, 70, 64
7, 399840, Note_on_c, 5, 70, 56
7, 399840, Note_on_c, 5, 58, 56
7, 400080, Note_off_c, 5, 58, 64
7, 400080, Note_off_c, 5, 70, 64
7, 400320, Note_on_c, 5, 58, 56
7, 400320, Note_on_c, 5, 70, 56
7, 400560, Note_off_c, 5, 70, 64
7, 400560, Note_off_c, 5, 58, 64
7, 400800, Note_on_c, 5, 58, 56
7, 400800, Note_on_c, 5, 70, 56
7, 401040, Note_off_c, 5, 70, 64
7, 401040, Note_off_c, 5, 58, 64
7, 401280, Note_on_c, 5, 65, 56
7, 401280, Note_on_c, 5, 72, 56
7, 401520, Note_off_c, 5, 72, 64
7, 401520, Note_off_c, 5, 65, 64
7, 401760, Note_on_c, 5, 72, 56
7, 401760, Note_on_c, 5, 65, 56
7, 402000, Note_off_c, 5, 65, 64
7, 402000, Note_off_c, 5, 72, 64
7, 402240, Note_on_c, 5, 72, 56
7, 402240, Note_on_c, 5, 65, 56
7, 402480, Note_off_c, 5, 65, 64
7, 402480, Note_off_c, 5, 72, 64
7, 402720, Note_on_c, 5, 72, 56
7, 402720, Note_on_c, 5, 65, 56
7, 402960, Note_off_c, 5, 65, 64
7, 402960, Note_off_c, 5, 72, 64
7, 403200, Note_on_c, 5, 58, 56
7, 403200, Note_on_c, 5, 70, 56
7, 403440, Note_off_c, 5, 70, 64
7, 403440, Note_off_c, 5, 58, 64
7, 406080, Note_on_c, 5, 70, 56
7, 406080, Note_on_c, 5, 58, 56
7, 406320, Note_off_c, 5, 58, 64
7, 406320, Note_off_c, 5, 70, 64
7, 406560, Note_on_c, 5, 70, 56
7, 406560, Note_on_c, 5, 58, 56
7, 406800, Note_off_c, 5, 58, 64
7, 406800, Note_off_c, 5, 70, 64
7, 407040, Note_on_c, 5, 53, 56
7, 407040, Note_on_c, 5, 65, 56
7, 407280, Note_off_c, 5, 65, 64
7, 407280, Note_off_c, 5, 53, 64
7, 410880, Note_on_c, 5, 53, 70
7, 410880, Note_on_c, 5, 65, 70
7, 411120, Note_off_c, 5, 65, 64
7, 411120, Note_off_c, 5, 53, 64
7, 412800, Note_on_c, 5, 70, 70
7, 412800, Note_on_c, 5, 58, 70
7, 413040, Note_off_c, 5, 58, 64
7, 413040, Note_off_c, 5, 70, 64
7, 414720, Note_on_c, 5, 70, 70
7, 414720, Note_on_c, 5, 58, 70
7, 414960, Note_off_c, 5, 58, 64
7, 414960, Note_off_c, 5, 70, 64
7, 416640, Note_on_c, 5, 65, 70
7, 416640, Note_on_c, 5, 53, 70
7, 416880, Note_off_c, 5, 53, 64
7, 416880, Note_off_c, 5, 65, 64
7, 446400, Note_on_c, 5, 65, 64
7, 446400, Note_on_c, 5, 72, 64
7, 446784, Note_off_c, 5, 72, 64
7, 446784, Note_off_c, 5, 65, 64
7, 447360, Note_on_c, 5, 65, 64
7, 447360, Note_on_c, 5, 72, 64
7, 447744, Note_off_c, 5, 72, 64
7, 447744, Note_off_c, 5, 65, 64
7, 448320, Note_on_c, 5, 65, 64
7, 448320, Note_on_c, 5, 72, 64
7, 448704, Note_off_c, 5, 72, 64
7, 448704, Note_off_c, 5, 65, 64
7, 449280, Note_on_c, 5, 62, 112
7, 449280, Note_on_c, 5, 70, 112
7, 449472, Note_off_c, 5, 70, 64
7, 449472, Note_off_c, 5, 62, 64
7, 449760, Note_on_c, 5, 70, 112
7, 449760, Note_on_c, 5, 58, 112
7, 449952, Note_off_c, 5, 58, 64
7, 449952, Note_off_c, 5, 70, 64
7, 450240, Note_on_c, 5, 58, 112
7, 450240, Note_on_c, 5, 70, 112
7, 450432, Note_off_c, 5, 70, 64
7, 450432, Note_off_c, 5, 58, 64
7, 450720, Note_on_c, 5, 58, 112
7, 450720, Note_on_c, 5, 70, 112
7, 450912, Note_off_c, 5, 70, 64
7, 450912, Note_off_c, 5, 58, 64
7, 451200, Note_on_c, 5, 58, 112
7, 451200, Note_on_c, 5, 70, 112
7, 451392, Note_off_c, 5, 70, 64
7, 451392, Note_off_c, 5, 58, 64
7, 451680, Note_on_c, 5, 70, 112
7, 451680, Note_on_c, 5, 58, 112
7, 451872, Note_off_c, 5, 58, 64
7, 451872, Note_off_c, 5, 70, 64
7, 452160, Note_on_c, 5, 58, 112
7, 452160, Note_on_c, 5, 70, 112
7, 452352, Note_off_c, 5, 70, 64
7, 452352, Note_off_c, 5, 58, 64
7, 452640, Note_on_c, 5, 58, 112
7, 452640, Note_on_c, 5, 70, 112
7, 452832, Note_off_c, 5, 70, 64
7, 452832, Note_off_c, 5, 58, 64
7, 453120, Note_on_c, 5, 58, 112
7, 453120, Note_on_c, 5, 70, 112
7, 453312, Note_off_c, 5, 70, 64
7, 453312, Note_off_c, 5, 58, 64
7, 453600, Note_on_c, 5, 70, 112
7, 453600, Note_on_c, 5, 58, 112
7, 453792, Note_off_c, 5, 58, 64
7, 453792, Note_off_c, 5, 70, 64
7, 454080, Note_on_c, 5, 58, 112
7, 454080, Note_on_c, 5, 70, 112
7, 454272, Note_off_c, 5, 70, 64
7, 454272, Note_off_c, 5, 58, 64
7, 454560, Note_on_c, 5, 58, 112
7, 454560, Note_on_c, 5, 70, 112
7, 454752, Note_off_c, 5, 70, 64
7, 454752, Note_off_c, 5, 58, 64
7, 455040, Note_on_c, 5, 53, 112
7, 455040, Note_on_c, 5, 65, 112
7, 455232, Note_off_c, 5, 65, 64
7, 455232, Note_off_c, 5, 53, 64
7, 455520, Note_on_c, 5, 65, 112
7, 455520, Note_on_c, 5, 53, 112
7, 455712, Note_off_c, 5, 53, 64
7, 455712, Note_off_c, 5, 65, 64
7, 456000, Note_on_c, 5, 53, 112
7, 456000, Note_on_c, 5, 65, 112
7, 456192, Note_off_c, 5, 65, 64
7, 456192, Note_off_c, 5, 53, 64
7, 456480, Note_on_c, 5, 53, 112
7, 456480, Note_on_c, 5, 65, 112
7, 456672, Note_off_c, 5, 65, 64
7, 456672, Note_off_c, 5, 53, 64
7, 456960, Note_on_c, 5, 58, 104
7, 456960, Note_on_c, 5, 70, 104
7, 460416, Note_off_c, 5, 70, 64
7, 460416, Note_off_c, 5, 58, 64
7, 460800, Note_on_c, 5, 58, 104
7, 460800, Note_on_c, 5, 70, 104
7, 462336, Note_off_c, 5, 70, 64
7, 462336, Note_off_c, 5, 58, 64
7, 462720, Note_on_c, 5, 53, 104
7, 462720, Note_on_c, 5, 65, 104
7, 464256, Note_off_c, 5, 65, 64
7, 464256, Note_off_c, 5, 53, 64
7, 464640, Note_on_c, 5, 58, 104
7, 464640, Note_on_c, 5, 70, 104
7, 466176, Note_off_c, 5, 70, 64
7, 466176, Note_off_c, 5, 58, 64
7, 468480, Note_on_c, 5, 77, 104
7, 468480, Note_on_c, 5, 65, 104
7, 470016, Note_off_c, 5, 65, 64
7, 470016, Note_off_c, 5, 77, 64
7, 547200, Note_on_c, 5, 72, 69
7, 547680, Note_off_c, 5, 72, 64
7, 548160, Note_on_c, 5, 72, 73
7, 548640, Note_off_c, 5, 72, 64
7, 549120, Note_on_c, 5, 72, 69
7, 549600, Note_off_c, 5, 72, 64
7, 550080, Note_on_c, 5, 72, 73
7, 550560, Note_off_c, 5, 72, 64
7, 551040, Note_on_c, 5, 72, 69
7, 551520, Note_off_c, 5, 72, 64
7, 552000, Note_on_c, 5, 72, 73
7, 552480, Note_off_c, 5, 72, 64
7, 552960, Note_on_c, 5, 65, 80
7, 552960, Note_on_c, 5, 72, 80
7, 553200, Note_off_c, 5, 72, 64
7, 553200, Note_off_c, 5, 65, 64
7, 554880, Note_on_c, 5, 65, 80
7, 554880, Note_on_c, 5, 74, 80
7, 555120, Note_off_c, 5, 74, 64
7, 555120, Note_off_c, 5, 65, 64
7, 556800, Note_on_c, 5, 65, 80
7, 556800, Note_on_c, 5, 72, 80
7, 557040, Note_off_c, 5, 72, 64
7, 557040, Note_off_c, 5, 65, 64
7, 558240, Note_on_c, 5, 72, 80
7, 558480, Note_off_c, 5, 72, 64
7, 558720, Note_on_c, 5, 72, 80
7, 558960, Note_off_c, 5, 72, 64
7, 559200, Note_on_c, 5, 72, 80
7, 559440, Note_off_c, 5, 72, 64
7, 559680, Note_on_c, 5, 72, 80
7, 559920, Note_off_c, 5, 72, 64
7, 560160, Note_on_c, 5, 72, 80
7, 560400, Note_off_c, 5, 72, 64
7, 602880, Note_on_c, 5, 77, 78
7, 602880, Note_on_c, 5, 65, 78
7, 603120, Note_off_c, 5, 65, 64
7, 603120, Note_off_c, 5, 77, 64
7, 604320, Note_on_c, 5, 77, 78
7, 604320, Note_on_c, 5, 65, 78
7, 604512, Note_off_c, 5, 65, 64
7, 604512, Note_off_c, 5, 77, 64
7, 604800, Note_on_c, 5, 77, 78
7, 604800, Note_on_c, 5, 65, 78
7, 605040, Note_off_c, 5, 65, 64
7, 605040, Note_off_c, 5, 77, 64
7, 605760, Note_on_c, 5, 65, 78
7, 605760, Note_on_c, 5, 72, 78
7, 606000, Note_off_c, 5, 72, 64
7, 606000, Note_off_c, 5, 65, 64
7, 610560, Note_on_c, 5, 65, 78
7, 610560, Note_on_c, 5, 77, 78
7, 610800, Note_off_c, 5, 77, 64
7, 610800, Note_off_c, 5, 65, 64
7, 612000, Note_on_c, 5, 65, 78
7, 612000, Note_on_c, 5, 77, 78
7, 612192, Note_off_c, 5, 77, 64
7, 612192, Note_off_c, 5, 65, 64
7, 612480, Note_on_c, 5, 65, 78
7, 612480, Note_on_c, 5, 77, 78
7, 612720, Note_off_c, 5, 77, 64
7, 612720, Note_off_c, 5, 65, 64
7, 613440, Note_on_c, 5, 65, 78
7, 613440, Note_on_c, 5, 72, 78
7, 613680, Note_off_c, 5, 72, 64
7, 613680, Note_off_c, 5, 65, 64
7, 620160, Note_on_c, 5, 72, 62
7, 622004, Note_off_c, 5, 72, 64
7, 622080, Note_on_c, 5, 72, 62
7, 623924, Note_off_c, 5, 72, 64
7, 624000, Note_on_c, 5, 72, 62
7, 625844, Note_off_c, 5, 72, 64
7, 625920, Note_on_c, 5, 65, 80
7, 625920, Note_on_c, 5, 77, 80
7, 629376, Note_off_c, 5, 77, 64
7, 629376, Note_off_c, 5, 65, 64
7, 629760, Note_on_c, 5, 77, 80
7, 629760, Note_on_c, 5, 65, 80
7, 631296, Note_off_c, 5, 65, 64
7, 631296, Note_off_c, 5, 77, 64
7, 631680, Note_on_c, 5, 72, 80
7, 633216, Note_off_c, 5, 72, 64
7, 633600, Note_on_c, 5, 65, 127
7, 633600, Note_on_c, 5, 72, 127
7, 633984, Note_off_c, 5, 72, 64
7, 633984, Note_off_c, 5, 65, 64
7, 639840, Note_on_c, 5, 72, 80
7, 640608, Note_off_c, 5, 72, 64
7, 640800, Note_on_c, 5, 72, 80
7, 641040, Note_off_c, 5, 72, 64
7, 641280, Note_on_c, 5, 72, 127
7, 641280, Note_on_c, 5, 65, 127
7, 641664, Note_off_c, 5, 65, 64
7, 641664, Note_off_c, 5, 72, 64
7, 647520, Note_on_c, 5, 72, 80
7, 648288, Note_off_c, 5, 72, 64
7, 648480, Note_on_c, 5, 72, 80
7, 648720, Note_off_c, 5, 72, 64
7, 648960, Note_on_c, 5, 72, 80
7, 648960, Note_on_c, 5, 65, 80
7, 649200, Note_off_c, 5, 65, 64
7, 649200, Note_off_c, 5, 72, 64
7, 649920, Note_on_c, 5, 65, 80
7, 649920, Note_on_c, 5, 77, 80
7, 650160, Note_off_c, 5, 77, 64
7, 650160, Note_off_c, 5, 65, 64
7, 650880, Note_on_c, 5, 77, 80
7, 650880, Note_on_c, 5, 65, 80
7, 651120, Note_off_c, 5, 65, 64
7, 651120, Note_off_c, 5, 77, 64
7, 651840, Note_on_c, 5, 77, 80
7, 651840, Note_on_c, 5, 65, 80
7, 652080, Note_off_c, 5, 65, 64
7, 652080, Note_off_c, 5, 77, 64
7, 652800, Note_on_c, 5, 65, 80
7, 652800, Note_on_c, 5, 77, 80
7, 653040, Note_off_c, 5, 77, 64
7, 653040, Note_off_c, 5, 65, 64
7, 756480, Note_on_c, 5, 75, 80
7, 759936, Note_off_c, 5, 75, 64
7, 760320, Note_on_c, 5, 75, 80
7, 761856, Note_off_c, 5, 75, 64
7, 762240, Note_on_c, 5, 75, 80
7, 762690, Note_off_c, 5, 75, 64
7, 763200, Note_on_c, 5, 75, 80
7, 763650, Note_off_c, 5, 75, 64
7, 764160, Note_on_c, 5, 75, 80
7, 764610, Note_off_c, 5, 75, 64
7, 771840, Note_on_c, 5, 74, 80
7, 775296, Note_off_c, 5, 74, 64
7, 775680, Note_on_c, 5, 74, 80
7, 777216, Note_off_c, 5, 74, 64
7, 777600, Note_on_c, 5, 74, 80
7, 778050, Note_off_c, 5, 74, 64
7, 778560, Note_on_c, 5, 74, 80
7, 779010, Note_off_c, 5, 74, 64
7, 779520, Note_on_c, 5, 74, 80
7, 779970, Note_off_c, 5, 74, 64
7, 787200, Note_on_c, 5, 58, 80
7, 787200, Note_on_c, 5, 70, 80
7, 790656, Note_off_c, 5, 70, 64
7, 790656, Note_off_c, 5, 58, 64
7, 791040, Note_on_c, 5, 70, 80
7, 791040, Note_on_c, 5, 58, 80
7, 792576, Note_off_c, 5, 58, 64
7, 792576, Note_off_c, 5, 70, 64
7, 792960, Note_on_c, 5, 58, 80
7, 792960, Note_on_c, 5, 70, 80
7, 793410, Note_off_c, 5, 70, 64
7, 793410, Note_off_c, 5, 58, 64
7, 793920, Note_on_c, 5, 70, 80
7, 793920, Note_on_c, 5, 58, 80
7, 794370, Note_off_c, 5, 58, 64
7, 794370, Note_off_c, 5, 70, 64
7, 794880, Note_on_c, 5, 58, 80
7, 794880, Note_on_c, 5, 70, 80
7, 795330, Note_off_c, 5, 70, 64
7, 795330, Note_off_c, 5, 58, 64
7, 796800, Note_on_c, 5, 58, 80
7, 796800, Note_on_c, 5, 70, 80
7, 797250, Note_off_c, 5, 70, 64
7, 797250, Note_off_c, 5, 58, 64
7, 798720, Note_on_c, 5, 58, 80
7, 798720, Note_on_c, 5, 70, 80
7, 799170, Note_off_c, 5, 70, 64
7, 799170, Note_off_c, 5, 58, 64
7, 800640, Note_on_c, 5, 58, 80
7, 800640, Note_on_c, 5, 70, 80
7, 801090, Note_off_c, 5, 70, 64
7, 801090, Note_off_c, 5, 58, 64
7, 802560, Note_on_c, 5, 58, 80
7, 802560, Note_on_c, 5, 70, 80
7, 803010, Note_off_c, 5, 70, 64
7, 803010, Note_off_c, 5, 58, 64
7, 806400, Note_on_c, 5, 58, 34
7, 806400, Note_on_c, 5, 70, 34
7, 806850, Note_off_c, 5, 70, 64
7, 806850, Note_off_c, 5, 58, 64
7, 810240, Note_on_c, 5, 58, 24
7, 810240, Note_on_c, 5, 70, 24
7, 810690, Note_off_c, 5, 70, 64
7, 810690, Note_off_c, 5, 58, 64
7, 933120, Note_on_c, 5, 74, 80
7, 933120, Note_on_c, 5, 62, 80
7, 938496, Note_off_c, 5, 62, 64
7, 938496, Note_off_c, 5, 74, 64
7, 938880, Note_on_c, 5, 74, 80
7, 938880, Note_on_c, 5, 62, 80
7, 939264, Note_off_c, 5, 62, 64
7, 939264, Note_off_c, 5, 74, 64
7, 940080, Note_on_c, 5, 62, 80
7, 940080, Note_on_c, 5, 74, 80
7, 940464, Note_off_c, 5, 74, 64
7, 940464, Note_off_c, 5, 62, 64
7, 941280, Note_on_c, 5, 74, 112
7, 941280, Note_on_c, 5, 62, 112
7, 941424, Note_off_c, 5, 62, 64
7, 941424, Note_off_c, 5, 74, 64
7, 941760, Note_on_c, 5, 70, 112
7, 941904, Note_off_c, 5, 70, 64
7, 942240, Note_on_c, 5, 65, 112
7, 942384, Note_off_c, 5, 65, 64
7, 942720, Note_on_c, 5, 70, 112
7, 942864, Note_off_c, 5, 70, 64
7, 943200, Note_on_c, 5, 62, 112
7, 943344, Note_off_c, 5, 62, 64
7, 943680, Note_on_c, 5, 65, 112
7, 943824, Note_off_c, 5, 65, 64
7, 944160, Note_on_c, 5, 58, 112
7, 944304, Note_off_c, 5, 58, 64
7, 944640, Note_on_c, 5, 62, 112
7, 944784, Note_off_c, 5, 62, 64
7, 945120, Note_on_c, 5, 70, 64
7, 945120, Note_on_c, 5, 58, 64
7, 945264, Note_off_c, 5, 58, 64
7, 945264, Note_off_c, 5, 70, 64
7, 945600, Note_on_c, 5, 58, 64
7, 945600, Note_on_c, 5, 70, 64
7, 945744, Note_off_c, 5, 70, 64
7, 945744, Note_off_c, 5, 58, 64
7, 946080, Note_on_c, 5, 58, 64
7, 946080, Note_on_c, 5, 70, 64
7, 946224, Note_off_c, 5, 70, 64
7, 946224, Note_off_c, 5, 58, 64
7, 946560, Note_on_c, 5, 70, 64
7, 946560, Note_on_c, 5, 58, 64
7, 946704, Note_off_c, 5, 58, 64
7, 946704, Note_off_c, 5, 70, 64
7, 947040, Note_on_c, 5, 72, 75
7, 947040, Note_on_c, 5, 65, 75
7, 947184, Note_off_c, 5, 65, 64
7, 947184, Note_off_c, 5, 72, 64
7, 947520, Note_on_c, 5, 65, 75
7, 947520, Note_on_c, 5, 72, 75
7, 947664, Note_off_c, 5, 72, 64
7, 947664, Note_off_c, 5, 65, 64
7, 948000, Note_on_c, 5, 65, 75
7, 948000, Note_on_c, 5, 72, 75
7, 948144, Note_off_c, 5, 72, 64
7, 948144, Note_off_c, 5, 65, 64
7, 948480, Note_on_c, 5, 72, 75
7, 948480, Note_on_c, 5, 65, 75
7, 948624, Note_off_c, 5, 65, 64
7, 948624, Note_off_c, 5, 72, 64
7, 948960, Note_on_c, 5, 62, 88
7, 948960, Note_on_c, 5, 70, 88
7, 949104, Note_off_c, 5, 70, 64
7, 949104, Note_off_c, 5, 62, 64
7, 968160, Note_on_c, 5, 58, 112
7, 968160, Note_on_c, 5, 70, 112
7, 968352, Note_off_c, 5, 70, 64
7, 968352, Note_off_c, 5, 58, 64
7, 972000, Note_on_c, 5, 58, 112
7, 972000, Note_on_c, 5, 70, 112
7, 972192, Note_off_c, 5, 70, 64
7, 972192, Note_off_c, 5, 58, 64
7, 973920, Note_on_c, 5, 53, 112
7, 973920, Note_on_c, 5, 65, 112
7, 974112, Note_off_c, 5, 65, 64
7, 974112, Note_off_c, 5, 53, 64
7, 975840, Note_on_c, 5, 70, 112
7, 975840, Note_on_c, 5, 58, 112
7, 976032, Note_off_c, 5, 58, 64
7, 976032, Note_off_c, 5, 70, 64
7, 983520, Note_on_c, 5, 70, 80
7, 983520, Note_on_c, 5, 58, 80
7, 985890, Note_off_c, 5, 58, 64
7, 985890, Note_off_c, 5, 70, 64
7, 986400, Note_on_c, 5, 70, 120
7, 986400, Note_on_c, 5, 58, 80
7, 986784, Note_off_c, 5, 58, 64
7, 986784, Note_off_c, 5, 70, 64
7, 987360, Note_on_c, 5, 58, 80
7, 987360, Note_on_c, 5, 70, 80
7, 987744, Note_off_c, 5, 70, 64
7, 987744, Note_off_c, 5, 58, 64
7, 988320, Note_on_c, 5, 70, 120
7, 988320, Note_on_c, 5, 58, 80
7, 988704, Note_off_c, 5, 58, 64
7, 988704, Note_off_c, 5, 70, 64
7, 989280, Note_on_c, 5, 53, 80
7, 989280, Note_on_c, 5, 65, 80
7, 989664, Note_off_c, 5, 65, 64
7, 989664, Note_off_c, 5, 53, 64
7, 990240, Note_on_c, 5, 74, 120
7, 990240, Note_on_c, 5, 62, 80
7, 990624, Note_off_c, 5, 62, 64
7, 990624, Note_off_c, 5, 74, 64
7, 991680, Note_on_c, 5, 58, 80
7, 991680, Note_on_c, 5, 70, 120
7, 992064, Note_off_c, 5, 70, 64
7, 992064, Note_off_c, 5, 58, 64
7, 993600, Note_on_c, 5, 53, 80
7, 993600, Note_on_c, 5, 65, 120
7, 993984, Note_off_c, 5, 65, 64
7, 993984, Note_off_c, 5, 53, 64
7, 995040, Note_on_c, 5, 58, 127
7, 995040, Note_on_c, 5, 70, 127
7, 999648, Note_off_c, 5, 70, 64
7, 999648, Note_off_c, 5, 58, 64
7, 999840, Note_on_c, 5, 77, 112
7, 999840, Note_on_c, 5, 65, 112
7, 1000608, Note_off_c, 5, 65, 64
7, 1000608, Note_off_c, 5, 77, 64
7, 1000800, Note_on_c, 5, 74, 112
7, 1000800, Note_on_c, 5, 62, 112
7, 1001568, Note_off_c, 5, 62, 64
7, 1001568, Note_off_c, 5, 74, 64
7, 1001760, Note_on_c, 5, 70, 95
7, 1001760, Note_on_c, 5, 58, 95
7, 1002528, Note_off_c, 5, 58, 64
7, 1002528, Note_off_c, 5, 70, 64
7, 1002720, Note_on_c, 5, 65, 127
7, 1002720, Note_on_c, 5, 53, 112
7, 1003104, Note_off_c, 5, 53, 64
7, 1003104, Note_off_c, 5, 65, 64
7, 1010400, Note_on_c, 5, 65, 80
7, 1010400, Note_on_c, 5, 53, 80
7, 1010640, Note_off_c, 5, 53, 64
7, 1010640, Note_off_c, 5, 65, 64
7, 1011360, Note_on_c, 5, 65, 80
7, 1011360, Note_on_c, 5, 53, 80
7, 1011600, Note_off_c, 5, 53, 64
7, 1011600, Note_off_c, 5, 65, 64
7, 1012320, Note_on_c, 5, 65, 80
7, 1012320, Note_on_c, 5, 53, 80
7, 1012560, Note_off_c, 5, 53, 64
7, 1012560, Note_off_c, 5, 65, 64
7, 1013280, Note_on_c, 5, 65, 80
7, 1013280, Note_on_c, 5, 53, 80
7, 1013520, Note_off_c, 5, 53, 64
7, 1013520, Note_off_c, 5, 65, 64
7, 1014240, Note_on_c, 5, 65, 80
7, 1014240, Note_on_c, 5, 53, 80
7, 1014480, Note_off_c, 5, 53, 64
7, 1014480, Note_off_c, 5, 65, 64
7, 1015200, Note_on_c, 5, 65, 80
7, 1015200, Note_on_c, 5, 53, 80
7, 1015440, Note_off_c, 5, 53, 64
7, 1015440, Note_off_c, 5, 65, 64
7, 1016160, Note_on_c, 5, 65, 80
7, 1016160, Note_on_c, 5, 53, 80
7, 1016400, Note_off_c, 5, 53, 64
7, 1016400, Note_off_c, 5, 65, 64
7, 1017120, Note_on_c, 5, 53, 80
7, 1017120, Note_on_c, 5, 65, 80
7, 1017360, Note_off_c, 5, 65, 64
7, 1017360, Note_off_c, 5, 53, 64
7, 1018080, Note_on_c, 5, 53, 80
7, 1018080, Note_on_c, 5, 65, 80
7, 1018320, Note_off_c, 5, 65, 64
7, 1018320, Note_off_c, 5, 53, 64
7, 1073760, Note_on_c, 5, 65, 60
7, 1073760, Note_on_c, 5, 77, 60
7, 1074240, Note_off_c, 5, 77, 64
7, 1074240, Note_off_c, 5, 65, 64
7, 1074720, Note_on_c, 5, 65, 80
7, 1074720, Note_on_c, 5, 77, 80
7, 1075200, Note_off_c, 5, 77, 64
7, 1075200, Note_off_c, 5, 65, 64
7, 1075680, Note_on_c, 5, 65, 80
7, 1075680, Note_on_c, 5, 77, 80
7, 1076160, Note_off_c, 5, 77, 64
7, 1076160, Note_off_c, 5, 65, 64
7, 1076640, Note_on_c, 5, 65, 80
7, 1076640, Note_on_c, 5, 77, 80
7, 1077120, Note_off_c, 5, 77, 64
7, 1077120, Note_off_c, 5, 65, 64
7, 1077600, Note_on_c, 5, 65, 80
7, 1077600, Note_on_c, 5, 77, 80
7, 1078080, Note_off_c, 5, 77, 64
7, 1078080, Note_off_c, 5, 65, 64
7, 1078560, Note_on_c, 5, 65, 80
7, 1078560, Note_on_c, 5, 77, 80
7, 1079040, Note_off_c, 5, 77, 64
7, 1079040, Note_off_c, 5, 65, 64
7, 1079520, Note_on_c, 5, 58, 80
7, 1079520, Note_on_c, 5, 70, 80
7, 1079760, Note_off_c, 5, 70, 64
7, 1079760, Note_off_c, 5, 58, 64
7, 1081440, Note_on_c, 5, 58, 80
7, 1081440, Note_on_c, 5, 70, 80
7, 1081680, Note_off_c, 5, 70, 64
7, 1081680, Note_off_c, 5, 58, 64
7, 1083360, Note_on_c, 5, 58, 80
7, 1083360, Note_on_c, 5, 70, 80
7, 1083600, Note_off_c, 5, 70, 64
7, 1083600, Note_off_c, 5, 58, 64
7, 1084800, Note_on_c, 5, 58, 80
7, 1084800, Note_on_c, 5, 70, 80
7, 1085040, Note_off_c, 5, 70, 64
7, 1085040, Note_off_c, 5, 58, 64
7, 1085280, Note_on_c, 5, 53, 80
7, 1085280, Note_on_c, 5, 65, 80
7, 1085520, Note_off_c, 5, 65, 64
7, 1085520, Note_off_c, 5, 53, 64
7, 1085760, Note_on_c, 5, 53, 80
7, 1085760, Note_on_c, 5, 65, 80
7, 1086000, Note_off_c, 5, 65, 64
7, 1086000, Note_off_c, 5, 53, 64
7, 1086240, Note_on_c, 5, 53, 80
7, 1086240, Note_on_c, 5, 65, 80
7, 1086480, Note_off_c, 5, 65, 64
7, 1086480, Note_off_c, 5, 53, 64
7, 1086720, Note_on_c, 5, 65, 80
7, 1086720, Note_on_c, 5, 53, 80
7, 1086960, Note_off_c, 5, 53, 64
7, 1086960, Note_off_c, 5, 65, 64
7, 1087200, Note_on_c, 5, 70, 80
7, 1087200, Note_on_c, 5, 58, 80
7, 1087440, Note_off_c, 5, 58, 64
7, 1087440, Note_off_c, 5, 70, 64
7, 1088160, Note_on_c, 5, 58, 80
7, 1088160, Note_on_c, 5, 70, 80
7, 1088400, Note_off_c, 5, 70, 64
7, 1088400, Note_off_c, 5, 58, 64
7, 1089120, Note_on_c, 5, 70, 80
7, 1089120, Note_on_c, 5, 58, 80
7, 1089360, Note_off_c, 5, 58, 64
7, 1089360, Note_off_c, 5, 70, 64
7, 1090080, Note_on_c, 5, 65, 80
7, 1090080, Note_on_c, 5, 53, 80
7, 1090320, Note_off_c, 5, 53, 64
7, 1090320, Note_off_c, 5, 65, 64
7, 1106880, Note_on_c, 5, 65, 68
7, 1106880, Note_on_c, 5, 53, 68
7, 1107120, Note_off_c, 5, 53, 64
7, 1107120, Note_off_c, 5, 65, 64
7, 1107360, Note_on_c, 5, 65, 68
7, 1107360, Note_on_c, 5, 53, 68
7, 1107600, Note_off_c, 5, 53, 64
7, 1107600, Note_off_c, 5, 65, 64
7, 1107840, Note_on_c, 5, 65, 68
7, 1107840, Note_on_c, 5, 53, 68
7, 1108080, Note_off_c, 5, 53, 64
7, 1108080, Note_off_c, 5, 65, 64
7, 1108320, Note_on_c, 5, 53, 68
7, 1108320, Note_on_c, 5, 65, 68
7, 1109472, Note_off_c, 5, 65, 64
7, 1109472, Note_off_c, 5, 53, 64
7, 1109760, Note_on_c, 5, 53, 68
7, 1109760, Note_on_c, 5, 65, 68
7, 1110000, Note_off_c, 5, 65, 64
7, 1110000, Note_off_c, 5, 53, 64
7, 1110240, Note_on_c, 5, 53, 68
7, 1110240, Note_on_c, 5, 65, 68
7, 1110480, Note_off_c, 5, 65, 64
7, 1110480, Note_off_c, 5, 53, 64
7, 1110720, Note_on_c, 5, 65, 68
7, 1110720, Note_on_c, 5, 53, 68
7, 1110960, Note_off_c, 5, 53, 64
7, 1110960, Note_off_c, 5, 65, 64
7, 1111200, Note_on_c, 5, 65, 68
7, 1111200, Note_on_c, 5, 53, 68
7, 1111440, Note_off_c, 5, 53, 64
7, 1111440, Note_off_c, 5, 65, 64
7, 1111680, Note_on_c, 5, 65, 68
7, 1111680, Note_on_c, 5, 53, 68
7, 1111920, Note_off_c, 5, 53, 64
7, 1111920, Note_off_c, 5, 65, 64
7, 1112160, Note_on_c, 5, 53, 68
7, 1112160, Note_on_c, 5, 65, 68
7, 1113312, Note_off_c, 5, 65, 64
7, 1113312, Note_off_c, 5, 53, 64
7, 1113600, Note_on_c, 5, 53, 68
7, 1113600, Note_on_c, 5, 65, 68
7, 1113840, Note_off_c, 5, 65, 64
7, 1113840, Note_off_c, 5, 53, 64
7, 1114080, Note_on_c, 5, 65, 68
7, 1114080, Note_on_c, 5, 53, 68
7, 1114320, Note_off_c, 5, 53, 64
7, 1114320, Note_off_c, 5, 65, 64
7, 1114560, Note_on_c, 5, 53, 68
7, 1114560, Note_on_c, 5, 65, 68
7, 1114800, Note_off_c, 5, 65, 64
7, 1114800, Note_off_c, 5, 53, 64
7, 1115040, Note_on_c, 5, 65, 68
7, 1115040, Note_on_c, 5, 53, 68
7, 1115280, Note_off_c, 5, 53, 64
7, 1115280, Note_off_c, 5, 65, 64
7, 1115520, Note_on_c, 5, 53, 68
7, 1115520, Note_on_c, 5, 65, 68
7, 1115760, Note_off_c, 5, 65, 64
7, 1115760, Note_off_c, 5, 53, 64
7, 1116000, Note_on_c, 5, 53, 68
7, 1116000, Note_on_c, 5, 65, 68
7, 1117152, Note_off_c, 5, 65, 64
7, 1117152, Note_off_c, 5, 53, 64
7, 1117440, Note_on_c, 5, 53, 68
7, 1117440, Note_on_c, 5, 65, 68
7, 1117680, Note_off_c, 5, 65, 64
7, 1117680, Note_off_c, 5, 53, 64
7, 1117920, Note_on_c, 5, 65, 68
7, 1117920, Note_on_c, 5, 53, 68
7, 1118160, Note_off_c, 5, 53, 64
7, 1118160, Note_off_c, 5, 65, 64
7, 1118400, Note_on_c, 5, 53, 68
7, 1118400, Note_on_c, 5, 65, 68
7, 1118640, Note_off_c, 5, 65, 64
7, 1118640, Note_off_c, 5, 53, 64
7, 1118880, Note_on_c, 5, 65, 68
7, 1118880, Note_on_c, 5, 53, 68
7, 1119120, Note_off_c, 5, 53, 64
7, 1119120, Note_off_c, 5, 65, 64
7, 1119360, Note_on_c, 5, 53, 68
7, 1119360, Note_on_c, 5, 65, 68
7, 1119600, Note_off_c, 5, 65, 64
7, 1119600, Note_off_c, 5, 53, 64
7, 1119840, Note_on_c, 5, 65, 68
7, 1119840, Note_on_c, 5, 53, 68
7, 1121640, Note_off_c, 5, 53, 64
7, 1121640, Note_off_c, 5, 65, 64
7, 1129440, Note_on_c, 5, 70, 78
7, 1129440, Note_on_c, 5, 58, 78
7, 1129680, Note_off_c, 5, 58, 64
7, 1129680, Note_off_c, 5, 70, 64
7, 1130880, Note_on_c, 5, 70, 78
7, 1130880, Note_on_c, 5, 58, 78
7, 1131072, Note_off_c, 5, 58, 64
7, 1131072, Note_off_c, 5, 70, 64
7, 1131360, Note_on_c, 5, 58, 78
7, 1131360, Note_on_c, 5, 70, 78
7, 1131600, Note_off_c, 5, 70, 64
7, 1131600, Note_off_c, 5, 58, 64
7, 1132320, Note_on_c, 5, 53, 78
7, 1132320, Note_on_c, 5, 65, 78
7, 1132560, Note_off_c, 5, 65, 64
7, 1132560, Note_off_c, 5, 53, 64
7, 1137120, Note_on_c, 5, 70, 78
7, 1137120, Note_on_c, 5, 58, 78
7, 1137360, Note_off_c, 5, 58, 64
7, 1137360, Note_off_c, 5, 70, 64
7, 1138560, Note_on_c, 5, 70, 78
7, 1138560, Note_on_c, 5, 58, 78
7, 1138752, Note_off_c, 5, 58, 64
7, 1138752, Note_off_c, 5, 70, 64
7, 1139040, Note_on_c, 5, 70, 78
7, 1139040, Note_on_c, 5, 58, 78
7, 1139280, Note_off_c, 5, 58, 64
7, 1139280, Note_off_c, 5, 70, 64
7, 1140000, Note_on_c, 5, 53, 78
7, 1140000, Note_on_c, 5, 65, 78
7, 1140240, Note_off_c, 5, 65, 64
7, 1140240, Note_off_c, 5, 53, 64
7, 1144800, Note_on_c, 5, 58, 40
7, 1144800, Note_on_c, 5, 70, 40
7, 1145040, Note_off_c, 5, 70, 64
7, 1145040, Note_off_c, 5, 58, 64
7, 1146720, Note_on_c, 5, 58, 40
7, 1146720, Note_on_c, 5, 70, 40
7, 1146960, Note_off_c, 5, 70, 64
7, 1146960, Note_off_c, 5, 58, 64
7, 1148640, Note_on_c, 5, 58, 40
7, 1148640, Note_on_c, 5, 70, 40
7, 1148880, Note_off_c, 5, 70, 64
7, 1148880, Note_off_c, 5, 58, 64
7, 1150560, Note_on_c, 5, 58, 40
7, 1150560, Note_on_c, 5, 70, 40
7, 1150800, Note_off_c, 5, 70, 64
7, 1150800, Note_off_c, 5, 58, 64
7, 1152480, Note_on_c, 5, 70, 80
7, 1152480, Note_on_c, 5, 58, 80
7, 1155936, Note_off_c, 5, 58, 64
7, 1155936, Note_off_c, 5, 70, 64
7, 1156320, Note_on_c, 5, 58, 80
7, 1156320, Note_on_c, 5, 70, 80
7, 1157856, Note_off_c, 5, 70, 64
7, 1157856, Note_off_c, 5, 58, 64
7, 1158240, Note_on_c, 5, 53, 80
7, 1158240, Note_on_c, 5, 65, 80
7, 1159776, Note_off_c, 5, 65, 64
7, 1159776, Note_off_c, 5, 53, 64
7, 1160160, Note_on_c, 5, 58, 127
7, 1160160, Note_on_c, 5, 70, 127
7, 1160544, Note_off_c, 5, 70, 64
7, 1160544, Note_off_c, 5, 58, 64
7, 1166400, Note_on_c, 5, 65, 80
7, 1166400, Note_on_c, 5, 53, 80
7, 1167168, Note_off_c, 5, 53, 64
7, 1167168, Note_off_c, 5, 65, 64
7, 1167360, Note_on_c, 5, 53, 80
7, 1167360, Note_on_c, 5, 65, 80
7, 1167600, Note_off_c, 5, 65, 64
7, 1167600, Note_off_c, 5, 53, 64
7, 1167840, Note_on_c, 5, 58, 127
7, 1167840, Note_on_c, 5, 70, 127
7, 1168224, Note_off_c, 5, 70, 64
7, 1168224, Note_off_c, 5, 58, 64
7, 1174080, Note_on_c, 5, 65, 80
7, 1174080, Note_on_c, 5, 53, 80
7, 1174848, Note_off_c, 5, 53, 64
7, 1174848, Note_off_c, 5, 65, 64
7, 1175040, Note_on_c, 5, 53, 80
7, 1175040, Note_on_c, 5, 65, 80
7, 1175280, Note_off_c, 5, 65, 64
7, 1175280, Note_off_c, 5, 53, 64
7, 1175520, Note_on_c, 5, 58, 127
7, 1175520, Note_on_c, 5, 70, 127
7, 1175904, Note_off_c, 5, 70, 64
7, 1175904, Note_off_c, 5, 58, 64
7, 1177920, Note_on_c, 5, 65, 80
7, 1177920, Note_on_c, 5, 53, 80
7, 1178688, Note_off_c, 5, 53, 64
7, 1178688, Note_off_c, 5, 65, 64
7, 1178880, Note_on_c, 5, 53, 80
7, 1178880, Note_on_c, 5, 65, 80
7, 1179120, Note_off_c, 5, 65, 64
7, 1179120, Note_off_c, 5, 53, 64
7, 1179360, Note_on_c, 5, 53, 80
7, 1179360, Note_on_c, 5, 65, 80
7, 1182946, Note_off_c, 5, 65, 64
7, 1182946, Note_off_c, 5, 53, 64
7, 1183080, Note_on_c, 5, 53, 80
7, 1183080, Note_on_c, 5, 65, 80
7, 1183194, Note_off_c, 5, 65, 64
7, 1183194, Note_off_c, 5, 53, 64
7, 1183200, Note_on_c, 5, 65, 80
7, 1183200, Note_on_c, 5, 53, 80
7, 1183392, Note_off_c, 5, 53, 64
7, 1183392, Note_off_c, 5, 65, 64
7, 1185120, Note_on_c, 5, 65, 80
7, 1185120, Note_on_c, 5, 53, 80
7, 1185312, Note_off_c, 5, 53, 64
7, 1185312, Note_off_c, 5, 65, 64
7, 1187040, Note_on_c, 5, 53, 80
7, 1187040, Note_on_c, 5, 65, 80
7, 1187232, Note_off_c, 5, 65, 64
7, 1187232, Note_off_c, 5, 53, 64
7, 1188000, Note_on_c, 5, 65, 80
7, 1188000, Note_on_c, 5, 53, 80
7, 1188192, Note_off_c, 5, 53, 64
7, 1188192, Note_off_c, 5, 65, 64
7, 1188960, Note_on_c, 5, 65, 80
7, 1188960, Note_on_c, 5, 53, 80
7, 1189152, Note_off_c, 5, 53, 64
7, 1189152, Note_off_c, 5, 65, 64
7, 1189920, Note_on_c, 5, 53, 80
7, 1189920, Note_on_c, 5, 65, 80
7, 1190112, Note_off_c, 5, 65, 64
7, 1190112, Note_off_c, 5, 53, 64
7, 1190880, Note_on_c, 5, 62, 80
7, 1190880, Note_on_c, 5, 70, 80
7, 1191072, Note_off_c, 5, 70, 64
7, 1191072, Note_off_c, 5, 62, 64
7, 1192800, Note_on_c, 5, 58, 48
7, 1192800, Note_on_c, 5, 70, 48
7, 1192992, Note_off_c, 5, 70, 64
7, 1192992, Note_off_c, 5, 58, 64
7, 1194720, Note_on_c, 5, 70, 48
7, 1194720, Note_on_c, 5, 58, 48
7, 1194912, Note_off_c, 5, 58, 64
7, 1194912, Note_off_c, 5, 70, 64
7, 1196640, Note_on_c, 5, 70, 48
7, 1196640, Note_on_c, 5, 58, 48
7, 1196832, Note_off_c, 5, 58, 64
7, 1196832, Note_off_c, 5, 70, 64
7, 1198560, Note_on_c, 5, 74, 80
7, 1198560, Note_on_c, 5, 62, 80
7, 1198752, Note_off_c, 5, 62, 64
7, 1198752, Note_off_c, 5, 74, 64
7, 1200480, Note_on_c, 5, 62, 48
7, 1200480, Note_on_c, 5, 74, 48
7, 1200672, Note_off_c, 5, 74, 64
7, 1200672, Note_off_c, 5, 62, 64
7, 1202400, Note_on_c, 5, 62, 48
7, 1202400, Note_on_c, 5, 74, 48
7, 1202592, Note_off_c, 5, 74, 64
7, 1202592, Note_off_c, 5, 62, 64
7, 1204320, Note_on_c, 5, 62, 48
7, 1204320, Note_on_c, 5, 74, 48
7, 1204512, Note_off_c, 5, 74, 64
7, 1204512, Note_off_c, 5, 62, 64
7, 1210080, Note_on_c, 5, 53, 76
7, 1210080, Note_on_c, 5, 65, 76
7, 1211616, Note_off_c, 5, 65, 64
7, 1211616, Note_off_c, 5, 53, 64
7, 1212000, Note_on_c, 5, 53, 76
7, 1212000, Note_on_c, 5, 65, 76
7, 1213584, Note_off_c, 5, 65, 64
7, 1213584, Note_off_c, 5, 53, 64
7, 1213800, Note_on_c, 5, 65, 76
7, 1213800, Note_on_c, 5, 53, 76
7, 1213908, Note_off_c, 5, 53, 64
7, 1213908, Note_off_c, 5, 65, 64
7, 1213920, Note_on_c, 5, 58, 116
7, 1213920, Note_on_c, 5, 70, 76
7, 1214112, Note_off_c, 5, 70, 64
7, 1214112, Note_off_c, 5, 58, 64
7, 1217760, Note_on_c, 5, 65, 76
7, 1217760, Note_on_c, 5, 53, 76
7, 1219296, Note_off_c, 5, 53, 64
7, 1219296, Note_off_c, 5, 65, 64
7, 1219680, Note_on_c, 5, 53, 76
7, 1219680, Note_on_c, 5, 65, 76
7, 1221264, Note_off_c, 5, 65, 64
7, 1221264, Note_off_c, 5, 53, 64
7, 1221480, Note_on_c, 5, 65, 76
7, 1221480, Note_on_c, 5, 53, 76
7, 1221588, Note_off_c, 5, 53, 64
7, 1221588, Note_off_c, 5, 65, 64
7, 1221600, Note_on_c, 5, 70, 45
7, 1221600, Note_on_c, 5, 62, 45
7, 1225344, Note_off_c, 5, 62, 64
7, 1225344, Note_off_c, 5, 70, 64
7, 1225440, Note_on_c, 5, 72, 54
7, 1225440, Note_on_c, 5, 65, 54
7, 1229184, Note_off_c, 5, 65, 64
7, 1229184, Note_off_c, 5, 72, 64
7, 1229280, Note_on_c, 5, 74, 64
7, 1229280, Note_on_c, 5, 70, 64
7, 1233024, Note_off_c, 5, 70, 64
7, 1233024, Note_off_c, 5, 74, 64
7, 1233120, Note_on_c, 5, 72, 77
7, 1233120, Note_on_c, 5, 65, 77
7, 1236864, Note_off_c, 5, 65, 64
7, 1236864, Note_off_c, 5, 72, 64
7, 1236960, Note_on_c, 5, 70, 101
7, 1236960, Note_on_c, 5, 58, 101
7, 1244256, Note_off_c, 5, 58, 64
7, 1244256, Note_off_c, 5, 70, 64
7, 1244640, Note_on_c, 5, 70, 120
7, 1244640, Note_on_c, 5, 58, 120
7, 1244880, Note_off_c, 5, 58, 64
7, 1244880, Note_off_c, 5, 70, 64
7, 1245600, Note_on_c, 5, 70, 120
7, 1245600, Note_on_c, 5, 58, 120
7, 1245840, Note_off_c, 5, 58, 64
7, 1245840, Note_off_c, 5, 70, 64
7, 1246560, Note_on_c, 5, 58, 120
7, 1246560, Note_on_c, 5, 70, 120
7, 1246800, Note_off_c, 5, 70, 64
7, 1246800, Note_off_c, 5, 58, 64
7, 1248480, Note_on_c, 5, 58, 120
7, 1248480, Note_on_c, 5, 70, 120
7, 1248720, Note_off_c, 5, 70, 64
7, 1248720, Note_off_c, 5, 58, 64
7, 1250400, Note_on_c, 5, 58, 127
7, 1250640, Note_off_c, 5, 58, 64
7, 1250640, End_track
8, 0, Start_track
8, 0, Title_t, "Timpani"
8, 0, MIDI_port, 0
8, 0, Channel_prefix, 6
8, 0, Control_c, 6, 7, 89
8, 0, Control_c, 6, 10, 25
8, 0, Program_c, 6, 47
8, 480, Control_c, 6, 7, 90
8, 480, Program_c, 6, 47
8, 480, Control_c, 6, 10, 30
8, 480, Control_c, 6, 93, 85
8, 480, Control_c, 6, 91, 85
8, 5700, Control_c, 6, 7, 75
8, 72480, Control_c, 6, 7, 90
8, 72960, Note_on_c, 6, 41, 127
8, 72992, Note_off_c, 6, 41, 64
8, 73000, Note_on_c, 6, 41, 127
8, 73032, Note_off_c, 6, 41, 64
8, 73040, Note_on_c, 6, 41, 127
8, 73072, Note_off_c, 6, 41, 64
8, 73080, Note_on_c, 6, 41, 127
8, 73112, Note_off_c, 6, 41, 64
8, 73120, Note_on_c, 6, 41, 127
8, 73152, Note_off_c, 6, 41, 64
8, 73160, Note_on_c, 6, 41, 127
8, 73192, Note_off_c, 6, 41, 64
8, 73200, Note_on_c, 6, 41, 127
8, 73232, Note_off_c, 6, 41, 64
8, 73240, Note_on_c, 6, 41, 127
8, 73272, Note_off_c, 6, 41, 64
8, 73280, Note_on_c, 6, 41, 127
8, 73312, Note_off_c, 6, 41, 64
8, 73320, Note_on_c, 6, 41, 127
8, 73352, Note_off_c, 6, 41, 64
8, 73360, Note_on_c, 6, 41, 127
8, 73392, Note_off_c, 6, 41, 64
8, 73400, Note_on_c, 6, 41, 127
8, 73432, Note_off_c, 6, 41, 64
8, 73440, Note_on_c, 6, 41, 127
8, 73472, Note_off_c, 6, 41, 64
8, 73480, Note_on_c, 6, 41, 127
8, 73512, Note_off_c, 6, 41, 64
8, 73520, Note_on_c, 6, 41, 127
8, 73552, Note_off_c, 6, 41, 64
8, 73560, Note_on_c, 6, 41, 127
8, 73592, Note_off_c, 6, 41, 64
8, 73600, Note_on_c, 6, 41, 127
8, 73632, Note_off_c, 6, 41, 64
8, 73640, Note_on_c, 6, 41, 127
8, 73672, Note_off_c, 6, 41, 64
8, 73680, Note_on_c, 6, 41, 127
8, 73712, Note_off_c, 6, 41, 64
8, 73720, Note_on_c, 6, 41, 127
8, 73752, Note_off_c, 6, 41, 64
8, 73760, Note_on_c, 6, 41, 127
8, 73792, Note_off_c, 6, 41, 64
8, 73800, Note_on_c, 6, 41, 127
8, 73832, Note_off_c, 6, 41, 64
8, 73840, Note_on_c, 6, 41, 127
8, 73872, Note_off_c, 6, 41, 64
8, 73880, Note_on_c, 6, 41, 127
8, 73912, Note_off_c, 6, 41, 64
8, 73920, Note_on_c, 6, 41, 127
8, 73952, Note_off_c, 6, 41, 64
8, 73960, Note_on_c, 6, 41, 127
8, 73992, Note_off_c, 6, 41, 64
8, 74000, Note_on_c, 6, 41, 127
8, 74032, Note_off_c, 6, 41, 64
8, 74040, Note_on_c, 6, 41, 127
8, 74072, Note_off_c, 6, 41, 64
8, 74080, Note_on_c, 6, 41, 127
8, 74112, Note_off_c, 6, 41, 64
8, 74120, Note_on_c, 6, 41, 127
8, 74152, Note_off_c, 6, 41, 64
8, 74160, Note_on_c, 6, 41, 127
8, 74192, Note_off_c, 6, 41, 64
8, 74200, Note_on_c, 6, 41, 127
8, 74232, Note_off_c, 6, 41, 64
8, 74240, Note_on_c, 6, 41, 127
8, 74272, Note_off_c, 6, 41, 64
8, 74280, Note_on_c, 6, 41, 127
8, 74312, Note_off_c, 6, 41, 64
8, 74320, Note_on_c, 6, 41, 127
8, 74352, Note_off_c, 6, 41, 64
8, 74360, Note_on_c, 6, 41, 127
8, 74392, Note_off_c, 6, 41, 64
8, 74400, Note_on_c, 6, 41, 127
8, 74432, Note_off_c, 6, 41, 64
8, 74440, Note_on_c, 6, 41, 127
8, 74472, Note_off_c, 6, 41, 64
8, 74480, Note_on_c, 6, 41, 127
8, 74512, Note_off_c, 6, 41, 64
8, 74520, Note_on_c, 6, 41, 127
8, 74552, Note_off_c, 6, 41, 64
8, 74560, Note_on_c, 6, 41, 127
8, 74592, Note_off_c, 6, 41, 64
8, 74600, Note_on_c, 6, 41, 127
8, 74632, Note_off_c, 6, 41, 64
8, 74640, Note_on_c, 6, 41, 127
8, 74672, Note_off_c, 6, 41, 64
8, 74680, Note_on_c, 6, 41, 127
8, 74712, Note_off_c, 6, 41, 64
8, 74720, Note_on_c, 6, 41, 127
8, 74752, Note_off_c, 6, 41, 64
8, 74760, Note_on_c, 6, 41, 127
8, 74792, Note_off_c, 6, 41, 64
8, 74800, Note_on_c, 6, 41, 127
8, 74832, Note_off_c, 6, 41, 64
8, 74840, Note_on_c, 6, 41, 127
8, 74872, Note_off_c, 6, 41, 64
8, 74880, Note_on_c, 6, 41, 120
8, 75072, Note_off_c, 6, 41, 64
8, 76800, Note_on_c, 6, 41, 127
8, 76832, Note_off_c, 6, 41, 64
8, 76840, Note_on_c, 6, 41, 127
8, 76872, Note_off_c, 6, 41, 64
8, 76880, Note_on_c, 6, 41, 127
8, 76912, Note_off_c, 6, 41, 64
8, 76920, Note_on_c, 6, 41, 127
8, 76952, Note_off_c, 6, 41, 64
8, 76960, Note_on_c, 6, 41, 127
8, 76992, Note_off_c, 6, 41, 64
8, 77000, Note_on_c, 6, 41, 127
8, 77032, Note_off_c, 6, 41, 64
8, 77040, Note_on_c, 6, 41, 127
8, 77072, Note_off_c, 6, 41, 64
8, 77080, Note_on_c, 6, 41, 127
8, 77112, Note_off_c, 6, 41, 64
8, 77120, Note_on_c, 6, 41, 127
8, 77152, Note_off_c, 6, 41, 64
8, 77160, Note_on_c, 6, 41, 127
8, 77192, Note_off_c, 6, 41, 64
8, 77200, Note_on_c, 6, 41, 127
8, 77232, Note_off_c, 6, 41, 64
8, 77240, Note_on_c, 6, 41, 127
8, 77272, Note_off_c, 6, 41, 64
8, 77280, Note_on_c, 6, 41, 127
8, 77312, Note_off_c, 6, 41, 64
8, 77320, Note_on_c, 6, 41, 127
8, 77352, Note_off_c, 6, 41, 64
8, 77360, Note_on_c, 6, 41, 127
8, 77392, Note_off_c, 6, 41, 64
8, 77400, Note_on_c, 6, 41, 127
8, 77432, Note_off_c, 6, 41, 64
8, 77440, Note_on_c, 6, 41, 127
8, 77472, Note_off_c, 6, 41, 64
8, 77480, Note_on_c, 6, 41, 127
8, 77512, Note_off_c, 6, 41, 64
8, 77520, Note_on_c, 6, 41, 127
8, 77552, Note_off_c, 6, 41, 64
8, 77560, Note_on_c, 6, 41, 127
8, 77592, Note_off_c, 6, 41, 64
8, 77600, Note_on_c, 6, 41, 127
8, 77632, Note_off_c, 6, 41, 64
8, 77640, Note_on_c, 6, 41, 127
8, 77672, Note_off_c, 6, 41, 64
8, 77680, Note_on_c, 6, 41, 127
8, 77712, Note_off_c, 6, 41, 64
8, 77720, Note_on_c, 6, 41, 127
8, 77752, Note_off_c, 6, 41, 64
8, 77760, Note_on_c, 6, 41, 127
8, 77792, Note_off_c, 6, 41, 64
8, 77800, Note_on_c, 6, 41, 127
8, 77832, Note_off_c, 6, 41, 64
8, 77840, Note_on_c, 6, 41, 127
8, 77872, Note_off_c, 6, 41, 64
8, 77880, Note_on_c, 6, 41, 127
8, 77912, Note_off_c, 6, 41, 64
8, 77920, Note_on_c, 6, 41, 127
8, 77952, Note_off_c, 6, 41, 64
8, 77960, Note_on_c, 6, 41, 127
8, 77992, Note_off_c, 6, 41, 64
8, 78000, Note_on_c, 6, 41, 127
8, 78032, Note_off_c, 6, 41, 64
8, 78040, Note_on_c, 6, 41, 127
8, 78072, Note_off_c, 6, 41, 64
8, 78080, Note_on_c, 6, 41, 127
8, 78112, Note_off_c, 6, 41, 64
8, 78120, Note_on_c, 6, 41, 127
8, 78152, Note_off_c, 6, 41, 64
8, 78160, Note_on_c, 6, 41, 127
8, 78192, Note_off_c, 6, 41, 64
8, 78200, Note_on_c, 6, 41, 127
8, 78232, Note_off_c, 6, 41, 64
8, 78240, Note_on_c, 6, 41, 127
8, 78272, Note_off_c, 6, 41, 64
8, 78280, Note_on_c, 6, 41, 127
8, 78312, Note_off_c, 6, 41, 64
8, 78320, Note_on_c, 6, 41, 127
8, 78352, Note_off_c, 6, 41, 64
8, 78360, Note_on_c, 6, 41, 127
8, 78392, Note_off_c, 6, 41, 64
8, 78400, Note_on_c, 6, 41, 127
8, 78432, Note_off_c, 6, 41, 64
8, 78440, Note_on_c, 6, 41, 127
8, 78472, Note_off_c, 6, 41, 64
8, 78480, Note_on_c, 6, 41, 127
8, 78512, Note_off_c, 6, 41, 64
8, 78520, Note_on_c, 6, 41, 127
8, 78552, Note_off_c, 6, 41, 64
8, 78560, Note_on_c, 6, 41, 127
8, 78592, Note_off_c, 6, 41, 64
8, 78600, Note_on_c, 6, 41, 127
8, 78632, Note_off_c, 6, 41, 64
8, 78640, Note_on_c, 6, 41, 127
8, 78672, Note_off_c, 6, 41, 64
8, 78680, Note_on_c, 6, 41, 127
8, 78712, Note_off_c, 6, 41, 64
8, 78720, Note_on_c, 6, 41, 120
8, 78912, Note_off_c, 6, 41, 64
8, 80640, Note_on_c, 6, 41, 104
8, 80832, Note_off_c, 6, 41, 64
8, 82560, Note_on_c, 6, 41, 104
8, 82752, Note_off_c, 6, 41, 64
8, 83520, Note_on_c, 6, 41, 104
8, 83712, Note_off_c, 6, 41, 64
8, 84480, Note_on_c, 6, 41, 104
8, 84672, Note_off_c, 6, 41, 64
8, 85440, Note_on_c, 6, 41, 104
8, 85632, Note_off_c, 6, 41, 64
8, 86400, Note_on_c, 6, 46, 104
8, 86592, Note_off_c, 6, 46, 64
8, 101760, Note_on_c, 6, 41, 104
8, 101952, Note_off_c, 6, 41, 64
8, 103680, Note_on_c, 6, 41, 104
8, 103872, Note_off_c, 6, 41, 64
8, 104640, Note_on_c, 6, 41, 104
8, 104832, Note_off_c, 6, 41, 64
8, 105600, Note_on_c, 6, 46, 104
8, 105792, Note_off_c, 6, 46, 64
8, 106080, Note_on_c, 6, 46, 85
8, 106272, Note_off_c, 6, 46, 64
8, 106560, Note_on_c, 6, 46, 85
8, 106752, Note_off_c, 6, 46, 64
8, 107040, Note_on_c, 6, 46, 85
8, 107232, Note_off_c, 6, 46, 64
8, 107520, Note_on_c, 6, 46, 85
8, 107712, Note_off_c, 6, 46, 64
8, 108000, Note_on_c, 6, 46, 85
8, 108192, Note_off_c, 6, 46, 64
8, 108480, Note_on_c, 6, 46, 85
8, 108672, Note_off_c, 6, 46, 64
8, 108960, Note_on_c, 6, 46, 85
8, 109152, Note_off_c, 6, 46, 64
8, 109440, Note_on_c, 6, 46, 85
8, 109632, Note_off_c, 6, 46, 64
8, 109920, Note_on_c, 6, 46, 85
8, 110112, Note_off_c, 6, 46, 64
8, 110400, Note_on_c, 6, 46, 85
8, 110592, Note_off_c, 6, 46, 64
8, 110880, Note_on_c, 6, 46, 85
8, 111072, Note_off_c, 6, 46, 64
8, 111360, Note_on_c, 6, 46, 85
8, 111552, Note_off_c, 6, 46, 64
8, 111840, Note_on_c, 6, 46, 85
8, 112032, Note_off_c, 6, 46, 64
8, 112320, Note_on_c, 6, 46, 85
8, 112512, Note_off_c, 6, 46, 64
8, 112800, Note_on_c, 6, 46, 85
8, 112992, Note_off_c, 6, 46, 64
8, 113280, Note_on_c, 6, 46, 85
8, 113472, Note_off_c, 6, 46, 64
8, 116160, Note_on_c, 6, 46, 85
8, 116352, Note_off_c, 6, 46, 64
8, 116640, Note_on_c, 6, 46, 85
8, 116832, Note_off_c, 6, 46, 64
8, 117120, Note_on_c, 6, 41, 85
8, 117312, Note_off_c, 6, 41, 64
8, 120960, Note_on_c, 6, 41, 56
8, 121410, Note_off_c, 6, 41, 64
8, 122880, Note_on_c, 6, 46, 56
8, 123330, Note_off_c, 6, 46, 64
8, 124800, Note_on_c, 6, 46, 56
8, 125250, Note_off_c, 6, 46, 64
8, 126720, Note_on_c, 6, 41, 56
8, 127170, Note_off_c, 6, 41, 64
8, 156480, Note_on_c, 6, 46, 64
8, 157248, Note_off_c, 6, 46, 64
8, 157440, Note_on_c, 6, 46, 64
8, 158208, Note_off_c, 6, 46, 64
8, 158400, Note_on_c, 6, 46, 64
8, 159168, Note_off_c, 6, 46, 64
8, 159360, Note_on_c, 6, 46, 112
8, 159744, Note_off_c, 6, 46, 64
8, 159840, Note_on_c, 6, 46, 112
8, 160224, Note_off_c, 6, 46, 64
8, 160320, Note_on_c, 6, 46, 112
8, 160704, Note_off_c, 6, 46, 64
8, 160800, Note_on_c, 6, 46, 112
8, 161184, Note_off_c, 6, 46, 64
8, 161280, Note_on_c, 6, 46, 112
8, 161664, Note_off_c, 6, 46, 64
8, 161760, Note_on_c, 6, 46, 112
8, 162144, Note_off_c, 6, 46, 64
8, 162240, Note_on_c, 6, 46, 112
8, 162624, Note_off_c, 6, 46, 64
8, 162720, Note_on_c, 6, 46, 112
8, 163104, Note_off_c, 6, 46, 64
8, 163200, Note_on_c, 6, 46, 112
8, 163584, Note_off_c, 6, 46, 64
8, 163680, Note_on_c, 6, 46, 112
8, 164064, Note_off_c, 6, 46, 64
8, 164160, Note_on_c, 6, 46, 112
8, 164544, Note_off_c, 6, 46, 64
8, 164640, Note_on_c, 6, 46, 112
8, 165024, Note_off_c, 6, 46, 64
8, 165120, Note_on_c, 6, 41, 112
8, 165504, Note_off_c, 6, 41, 64
8, 165600, Note_on_c, 6, 41, 112
8, 165984, Note_off_c, 6, 41, 64
8, 166080, Note_on_c, 6, 41, 112
8, 166464, Note_off_c, 6, 41, 64
8, 166560, Note_on_c, 6, 41, 112
8, 166944, Note_off_c, 6, 41, 64
8, 167040, Note_on_c, 6, 46, 127
8, 167232, Note_off_c, 6, 46, 64
8, 167280, Note_on_c, 6, 46, 104
8, 167472, Note_off_c, 6, 46, 64
8, 167520, Note_on_c, 6, 46, 104
8, 167712, Note_off_c, 6, 46, 64
8, 167760, Note_on_c, 6, 46, 104
8, 167952, Note_off_c, 6, 46, 64
8, 168000, Note_on_c, 6, 46, 104
8, 168192, Note_off_c, 6, 46, 64
8, 168240, Note_on_c, 6, 46, 104
8, 168432, Note_off_c, 6, 46, 64
8, 168480, Note_on_c, 6, 46, 104
8, 168672, Note_off_c, 6, 46, 64
8, 168720, Note_on_c, 6, 46, 104
8, 168912, Note_off_c, 6, 46, 64
8, 168960, Note_on_c, 6, 46, 104
8, 169152, Note_off_c, 6, 46, 64
8, 169200, Note_on_c, 6, 46, 104
8, 169392, Note_off_c, 6, 46, 64
8, 169440, Note_on_c, 6, 46, 104
8, 169632, Note_off_c, 6, 46, 64
8, 169680, Note_on_c, 6, 46, 104
8, 169872, Note_off_c, 6, 46, 64
8, 169920, Note_on_c, 6, 46, 104
8, 170112, Note_off_c, 6, 46, 64
8, 170160, Note_on_c, 6, 46, 104
8, 170352, Note_off_c, 6, 46, 64
8, 170400, Note_on_c, 6, 46, 104
8, 170592, Note_off_c, 6, 46, 64
8, 170640, Note_on_c, 6, 46, 104
8, 170832, Note_off_c, 6, 46, 64
8, 170880, Note_on_c, 6, 46, 127
8, 171264, Note_off_c, 6, 46, 64
8, 172800, Note_on_c, 6, 41, 127
8, 173184, Note_off_c, 6, 41, 64
8, 174720, Note_on_c, 6, 46, 127
8, 175104, Note_off_c, 6, 46, 64
8, 178560, Note_on_c, 6, 41, 127
8, 178944, Note_off_c, 6, 41, 64
8, 263040, Note_on_c, 6, 41, 80
8, 263424, Note_off_c, 6, 41, 64
8, 264960, Note_on_c, 6, 41, 80
8, 265344, Note_off_c, 6, 41, 64
8, 266880, Note_on_c, 6, 41, 80
8, 267264, Note_off_c, 6, 41, 64
8, 312960, Note_on_c, 6, 41, 100
8, 313344, Note_off_c, 6, 41, 64
8, 314400, Note_on_c, 6, 41, 100
8, 314592, Note_off_c, 6, 41, 64
8, 314880, Note_on_c, 6, 41, 100
8, 315264, Note_off_c, 6, 41, 64
8, 315840, Note_on_c, 6, 48, 100
8, 316224, Note_off_c, 6, 48, 64
8, 320640, Note_on_c, 6, 41, 100
8, 321024, Note_off_c, 6, 41, 64
8, 322080, Note_on_c, 6, 41, 100
8, 322272, Note_off_c, 6, 41, 64
8, 322560, Note_on_c, 6, 41, 100
8, 322944, Note_off_c, 6, 41, 64
8, 323520, Note_on_c, 6, 48, 100
8, 323904, Note_off_c, 6, 48, 64
8, 328320, Note_on_c, 6, 41, 80
8, 329088, Note_off_c, 6, 41, 64
8, 330240, Note_on_c, 6, 41, 80
8, 331008, Note_off_c, 6, 41, 64
8, 332160, Note_on_c, 6, 41, 80
8, 332928, Note_off_c, 6, 41, 64
8, 334080, Note_on_c, 6, 41, 80
8, 334848, Note_off_c, 6, 41, 64
8, 336000, Note_on_c, 6, 41, 127
8, 336128, Note_off_c, 6, 41, 64
8, 336160, Note_on_c, 6, 41, 127
8, 336288, Note_off_c, 6, 41, 64
8, 336320, Note_on_c, 6, 41, 127
8, 336448, Note_off_c, 6, 41, 64
8, 336480, Note_on_c, 6, 41, 127
8, 336608, Note_off_c, 6, 41, 64
8, 336640, Note_on_c, 6, 41, 127
8, 336768, Note_off_c, 6, 41, 64
8, 336800, Note_on_c, 6, 41, 127
8, 336928, Note_off_c, 6, 41, 64
8, 336960, Note_on_c, 6, 41, 127
8, 337088, Note_off_c, 6, 41, 64
8, 337120, Note_on_c, 6, 41, 127
8, 337248, Note_off_c, 6, 41, 64
8, 337280, Note_on_c, 6, 41, 127
8, 337408, Note_off_c, 6, 41, 64
8, 337440, Note_on_c, 6, 41, 127
8, 337568, Note_off_c, 6, 41, 64
8, 337600, Note_on_c, 6, 41, 127
8, 337728, Note_off_c, 6, 41, 64
8, 337760, Note_on_c, 6, 41, 127
8, 337888, Note_off_c, 6, 41, 64
8, 337920, Note_on_c, 6, 41, 127
8, 338048, Note_off_c, 6, 41, 64
8, 338080, Note_on_c, 6, 41, 127
8, 338208, Note_off_c, 6, 41, 64
8, 338240, Note_on_c, 6, 41, 127
8, 338368, Note_off_c, 6, 41, 64
8, 338400, Note_on_c, 6, 41, 127
8, 338528, Note_off_c, 6, 41, 64
8, 338560, Note_on_c, 6, 41, 127
8, 338688, Note_off_c, 6, 41, 64
8, 338720, Note_on_c, 6, 41, 127
8, 338848, Note_off_c, 6, 41, 64
8, 338880, Note_on_c, 6, 41, 127
8, 339008, Note_off_c, 6, 41, 64
8, 339040, Note_on_c, 6, 41, 127
8, 339168, Note_off_c, 6, 41, 64
8, 339200, Note_on_c, 6, 41, 127
8, 339328, Note_off_c, 6, 41, 64
8, 339360, Note_on_c, 6, 41, 127
8, 339488, Note_off_c, 6, 41, 64
8, 339520, Note_on_c, 6, 41, 127
8, 339648, Note_off_c, 6, 41, 64
8, 339680, Note_on_c, 6, 41, 127
8, 339808, Note_off_c, 6, 41, 64
8, 339840, Note_on_c, 6, 41, 127
8, 339968, Note_off_c, 6, 41, 64
8, 340000, Note_on_c, 6, 41, 127
8, 340128, Note_off_c, 6, 41, 64
8, 340160, Note_on_c, 6, 41, 127
8, 340288, Note_off_c, 6, 41, 64
8, 340320, Note_on_c, 6, 41, 127
8, 340448, Note_off_c, 6, 41, 64
8, 340480, Note_on_c, 6, 41, 127
8, 340608, Note_off_c, 6, 41, 64
8, 340640, Note_on_c, 6, 41, 127
8, 340768, Note_off_c, 6, 41, 64
8, 340800, Note_on_c, 6, 41, 127
8, 340928, Note_off_c, 6, 41, 64
8, 340960, Note_on_c, 6, 41, 127
8, 341088, Note_off_c, 6, 41, 64
8, 341120, Note_on_c, 6, 41, 127
8, 341248, Note_off_c, 6, 41, 64
8, 341280, Note_on_c, 6, 41, 127
8, 341408, Note_off_c, 6, 41, 64
8, 341440, Note_on_c, 6, 41, 127
8, 341568, Note_off_c, 6, 41, 64
8, 341600, Note_on_c, 6, 41, 127
8, 341728, Note_off_c, 6, 41, 64
8, 341760, Note_on_c, 6, 48, 127
8, 341888, Note_off_c, 6, 48, 64
8, 341920, Note_on_c, 6, 48, 127
8, 342048, Note_off_c, 6, 48, 64
8, 342080, Note_on_c, 6, 48, 127
8, 342208, Note_off_c, 6, 48, 64
8, 342240, Note_on_c, 6, 48, 127
8, 342368, Note_off_c, 6, 48, 64
8, 342400, Note_on_c, 6, 48, 127
8, 342528, Note_off_c, 6, 48, 64
8, 342560, Note_on_c, 6, 48, 127
8, 342688, Note_off_c, 6, 48, 64
8, 342720, Note_on_c, 6, 48, 127
8, 342848, Note_off_c, 6, 48, 64
8, 342880, Note_on_c, 6, 48, 127
8, 343008, Note_off_c, 6, 48, 64
8, 343040, Note_on_c, 6, 48, 127
8, 343168, Note_off_c, 6, 48, 64
8, 343200, Note_on_c, 6, 48, 127
8, 343328, Note_off_c, 6, 48, 64
8, 343360, Note_on_c, 6, 48, 127
8, 343488, Note_off_c, 6, 48, 64
8, 343520, Note_on_c, 6, 48, 127
8, 343648, Note_off_c, 6, 48, 64
8, 343680, Note_on_c, 6, 41, 127
8, 344064, Note_off_c, 6, 41, 64
8, 351360, Note_on_c, 6, 41, 127
8, 351744, Note_off_c, 6, 41, 64
8, 359040, Note_on_c, 6, 41, 127
8, 359424, Note_off_c, 6, 41, 64
8, 362880, Note_on_c, 6, 41, 127
8, 362912, Note_off_c, 6, 41, 64
8, 362920, Note_on_c, 6, 41, 127
8, 362952, Note_off_c, 6, 41, 64
8, 362960, Note_on_c, 6, 41, 127
8, 362992, Note_off_c, 6, 41, 64
8, 363000, Note_on_c, 6, 41, 127
8, 363032, Note_off_c, 6, 41, 64
8, 363040, Note_on_c, 6, 41, 127
8, 363072, Note_off_c, 6, 41, 64
8, 363080, Note_on_c, 6, 41, 127
8, 363112, Note_off_c, 6, 41, 64
8, 363120, Note_on_c, 6, 41, 127
8, 363152, Note_off_c, 6, 41, 64
8, 363160, Note_on_c, 6, 41, 127
8, 363192, Note_off_c, 6, 41, 64
8, 363200, Note_on_c, 6, 41, 127
8, 363232, Note_off_c, 6, 41, 64
8, 363240, Note_on_c, 6, 41, 127
8, 363272, Note_off_c, 6, 41, 64
8, 363280, Note_on_c, 6, 41, 127
8, 363312, Note_off_c, 6, 41, 64
8, 363320, Note_on_c, 6, 41, 127
8, 363352, Note_off_c, 6, 41, 64
8, 363360, Note_on_c, 6, 41, 127
8, 363392, Note_off_c, 6, 41, 64
8, 363400, Note_on_c, 6, 41, 127
8, 363432, Note_off_c, 6, 41, 64
8, 363440, Note_on_c, 6, 41, 127
8, 363472, Note_off_c, 6, 41, 64
8, 363480, Note_on_c, 6, 41, 127
8, 363512, Note_off_c, 6, 41, 64
8, 363520, Note_on_c, 6, 41, 127
8, 363552, Note_off_c, 6, 41, 64
8, 363560, Note_on_c, 6, 41, 127
8, 363592, Note_off_c, 6, 41, 64
8, 363600, Note_on_c, 6, 41, 127
8, 363632, Note_off_c, 6, 41, 64
8, 363640, Note_on_c, 6, 41, 127
8, 363672, Note_off_c, 6, 41, 64
8, 363680, Note_on_c, 6, 41, 127
8, 363712, Note_off_c, 6, 41, 64
8, 363720, Note_on_c, 6, 41, 127
8, 363752, Note_off_c, 6, 41, 64
8, 363760, Note_on_c, 6, 41, 127
8, 363792, Note_off_c, 6, 41, 64
8, 363800, Note_on_c, 6, 41, 127
8, 363832, Note_off_c, 6, 41, 64
8, 363840, Note_on_c, 6, 41, 127
8, 363872, Note_off_c, 6, 41, 64
8, 363880, Note_on_c, 6, 41, 127
8, 363912, Note_off_c, 6, 41, 64
8, 363920, Note_on_c, 6, 41, 127
8, 363952, Note_off_c, 6, 41, 64
8, 363960, Note_on_c, 6, 41, 127
8, 363992, Note_off_c, 6, 41, 64
8, 364000, Note_on_c, 6, 41, 127
8, 364032, Note_off_c, 6, 41, 64
8, 364040, Note_on_c, 6, 41, 127
8, 364072, Note_off_c, 6, 41, 64
8, 364080, Note_on_c, 6, 41, 127
8, 364112, Note_off_c, 6, 41, 64
8, 364120, Note_on_c, 6, 41, 127
8, 364152, Note_off_c, 6, 41, 64
8, 364160, Note_on_c, 6, 41, 127
8, 364192, Note_off_c, 6, 41, 64
8, 364200, Note_on_c, 6, 41, 127
8, 364232, Note_off_c, 6, 41, 64
8, 364240, Note_on_c, 6, 41, 127
8, 364272, Note_off_c, 6, 41, 64
8, 364280, Note_on_c, 6, 41, 127
8, 364312, Note_off_c, 6, 41, 64
8, 364320, Note_on_c, 6, 41, 127
8, 364352, Note_off_c, 6, 41, 64
8, 364360, Note_on_c, 6, 41, 127
8, 364392, Note_off_c, 6, 41, 64
8, 364400, Note_on_c, 6, 41, 127
8, 364432, Note_off_c, 6, 41, 64
8, 364440, Note_on_c, 6, 41, 127
8, 364472, Note_off_c, 6, 41, 64
8, 364480, Note_on_c, 6, 41, 127
8, 364512, Note_off_c, 6, 41, 64
8, 364520, Note_on_c, 6, 41, 127
8, 364552, Note_off_c, 6, 41, 64
8, 364560, Note_on_c, 6, 41, 127
8, 364592, Note_off_c, 6, 41, 64
8, 364600, Note_on_c, 6, 41, 127
8, 364632, Note_off_c, 6, 41, 64
8, 364640, Note_on_c, 6, 41, 127
8, 364672, Note_off_c, 6, 41, 64
8, 364680, Note_on_c, 6, 41, 127
8, 364712, Note_off_c, 6, 41, 64
8, 364720, Note_on_c, 6, 41, 127
8, 364752, Note_off_c, 6, 41, 64
8, 364760, Note_on_c, 6, 41, 127
8, 364792, Note_off_c, 6, 41, 64
8, 364800, Note_on_c, 6, 41, 120
8, 364992, Note_off_c, 6, 41, 64
8, 366720, Note_on_c, 6, 41, 127
8, 366752, Note_off_c, 6, 41, 64
8, 366760, Note_on_c, 6, 41, 127
8, 366792, Note_off_c, 6, 41, 64
8, 366800, Note_on_c, 6, 41, 127
8, 366832, Note_off_c, 6, 41, 64
8, 366840, Note_on_c, 6, 41, 127
8, 366872, Note_off_c, 6, 41, 64
8, 366880, Note_on_c, 6, 41, 127
8, 366912, Note_off_c, 6, 41, 64
8, 366920, Note_on_c, 6, 41, 127
8, 366952, Note_off_c, 6, 41, 64
8, 366960, Note_on_c, 6, 41, 127
8, 366992, Note_off_c, 6, 41, 64
8, 367000, Note_on_c, 6, 41, 127
8, 367032, Note_off_c, 6, 41, 64
8, 367040, Note_on_c, 6, 41, 127
8, 367072, Note_off_c, 6, 41, 64
8, 367080, Note_on_c, 6, 41, 127
8, 367112, Note_off_c, 6, 41, 64
8, 367120, Note_on_c, 6, 41, 127
8, 367120, Note_on_c, 6, 41, 127
8, 367152, Note_off_c, 6, 41, 64
8, 367152, Note_off_c, 6, 41, 64
8, 367160, Note_on_c, 6, 41, 127
8, 367192, Note_off_c, 6, 41, 64
8, 367200, Note_on_c, 6, 41, 127
8, 367232, Note_off_c, 6, 41, 64
8, 367240, Note_on_c, 6, 41, 127
8, 367272, Note_off_c, 6, 41, 64
8, 367280, Note_on_c, 6, 41, 127
8, 367312, Note_off_c, 6, 41, 64
8, 367320, Note_on_c, 6, 41, 127
8, 367352, Note_off_c, 6, 41, 64
8, 367360, Note_on_c, 6, 41, 127
8, 367392, Note_off_c, 6, 41, 64
8, 367400, Note_on_c, 6, 41, 127
8, 367432, Note_off_c, 6, 41, 64
8, 367440, Note_on_c, 6, 41, 127
8, 367472, Note_off_c, 6, 41, 64
8, 367480, Note_on_c, 6, 41, 127
8, 367512, Note_off_c, 6, 41, 64
8, 367520, Note_on_c, 6, 41, 127
8, 367552, Note_off_c, 6, 41, 64
8, 367560, Note_on_c, 6, 41, 127
8, 367592, Note_off_c, 6, 41, 64
8, 367600, Note_on_c, 6, 41, 127
8, 367632, Note_off_c, 6, 41, 64
8, 367640, Note_on_c, 6, 41, 127
8, 367672, Note_off_c, 6, 41, 64
8, 367680, Note_on_c, 6, 41, 127
8, 367712, Note_off_c, 6, 41, 64
8, 367720, Note_on_c, 6, 41, 127
8, 367752, Note_off_c, 6, 41, 64
8, 367760, Note_on_c, 6, 41, 127
8, 367792, Note_off_c, 6, 41, 64
8, 367800, Note_on_c, 6, 41, 127
8, 367832, Note_off_c, 6, 41, 64
8, 367840, Note_on_c, 6, 41, 127
8, 367872, Note_off_c, 6, 41, 64
8, 367880, Note_on_c, 6, 41, 127
8, 367912, Note_off_c, 6, 41, 64
8, 367920, Note_on_c, 6, 41, 127
8, 367952, Note_off_c, 6, 41, 64
8, 367960, Note_on_c, 6, 41, 127
8, 367992, Note_off_c, 6, 41, 64
8, 368000, Note_on_c, 6, 41, 127
8, 368032, Note_off_c, 6, 41, 64
8, 368040, Note_on_c, 6, 41, 127
8, 368072, Note_off_c, 6, 41, 64
8, 368080, Note_on_c, 6, 41, 127
8, 368112, Note_off_c, 6, 41, 64
8, 368120, Note_on_c, 6, 41, 127
8, 368152, Note_off_c, 6, 41, 64
8, 368160, Note_on_c, 6, 41, 127
8, 368192, Note_off_c, 6, 41, 64
8, 368200, Note_on_c, 6, 41, 127
8, 368232, Note_off_c, 6, 41, 64
8, 368240, Note_on_c, 6, 41, 127
8, 368272, Note_off_c, 6, 41, 64
8, 368280, Note_on_c, 6, 41, 127
8, 368312, Note_off_c, 6, 41, 64
8, 368320, Note_on_c, 6, 41, 127
8, 368352, Note_off_c, 6, 41, 64
8, 368360, Note_on_c, 6, 41, 127
8, 368392, Note_off_c, 6, 41, 64
8, 368400, Note_on_c, 6, 41, 127
8, 368432, Note_off_c, 6, 41, 64
8, 368440, Note_on_c, 6, 41, 127
8, 368472, Note_off_c, 6, 41, 64
8, 368480, Note_on_c, 6, 41, 127
8, 368512, Note_off_c, 6, 41, 64
8, 368520, Note_on_c, 6, 41, 127
8, 368552, Note_off_c, 6, 41, 64
8, 368560, Note_on_c, 6, 41, 127
8, 368592, Note_off_c, 6, 41, 64
8, 368640, Note_on_c, 6, 41, 120
8, 368832, Note_off_c, 6, 41, 64
8, 370560, Note_on_c, 6, 41, 120
8, 370752, Note_off_c, 6, 41, 64
8, 372480, Note_on_c, 6, 41, 104
8, 372672, Note_off_c, 6, 41, 64
8, 373440, Note_on_c, 6, 41, 104
8, 373632, Note_off_c, 6, 41, 64
8, 374400, Note_on_c, 6, 41, 104
8, 374592, Note_off_c, 6, 41, 64
8, 375360, Note_on_c, 6, 41, 104
8, 375552, Note_off_c, 6, 41, 64
8, 376320, Note_on_c, 6, 46, 104
8, 376512, Note_off_c, 6, 46, 64
8, 391680, Note_on_c, 6, 41, 104
8, 391872, Note_off_c, 6, 41, 64
8, 393600, Note_on_c, 6, 41, 104
8, 393792, Note_off_c, 6, 41, 64
8, 394560, Note_on_c, 6, 41, 104
8, 394752, Note_off_c, 6, 41, 64
8, 395520, Note_on_c, 6, 46, 104
8, 395712, Note_off_c, 6, 46, 64
8, 396000, Note_on_c, 6, 46, 85
8, 396192, Note_off_c, 6, 46, 64
8, 396480, Note_on_c, 6, 46, 85
8, 396672, Note_off_c, 6, 46, 64
8, 396960, Note_on_c, 6, 46, 85
8, 397152, Note_off_c, 6, 46, 64
8, 397440, Note_on_c, 6, 46, 85
8, 397632, Note_off_c, 6, 46, 64
8, 397920, Note_on_c, 6, 46, 85
8, 398112, Note_off_c, 6, 46, 64
8, 398400, Note_on_c, 6, 46, 85
8, 398592, Note_off_c, 6, 46, 64
8, 398880, Note_on_c, 6, 46, 85
8, 399072, Note_off_c, 6, 46, 64
8, 399360, Note_on_c, 6, 46, 85
8, 399552, Note_off_c, 6, 46, 64
8, 399840, Note_on_c, 6, 46, 85
8, 400032, Note_off_c, 6, 46, 64
8, 400320, Note_on_c, 6, 46, 85
8, 400512, Note_off_c, 6, 46, 64
8, 400800, Note_on_c, 6, 46, 85
8, 400992, Note_off_c, 6, 46, 64
8, 401280, Note_on_c, 6, 46, 85
8, 401472, Note_off_c, 6, 46, 64
8, 401760, Note_on_c, 6, 46, 85
8, 401952, Note_off_c, 6, 46, 64
8, 402240, Note_on_c, 6, 46, 85
8, 402432, Note_off_c, 6, 46, 64
8, 402720, Note_on_c, 6, 46, 85
8, 402912, Note_off_c, 6, 46, 64
8, 403200, Note_on_c, 6, 46, 85
8, 403392, Note_off_c, 6, 46, 64
8, 406080, Note_on_c, 6, 46, 85
8, 406272, Note_off_c, 6, 46, 64
8, 406560, Note_on_c, 6, 46, 85
8, 406752, Note_off_c, 6, 46, 64
8, 407040, Note_on_c, 6, 41, 85
8, 407232, Note_off_c, 6, 41, 64
8, 410880, Note_on_c, 6, 41, 56
8, 411330, Note_off_c, 6, 41, 64
8, 412800, Note_on_c, 6, 46, 56
8, 413250, Note_off_c, 6, 46, 64
8, 414720, Note_on_c, 6, 46, 56
8, 415170, Note_off_c, 6, 46, 64
8, 416640, Note_on_c, 6, 41, 56
8, 417090, Note_off_c, 6, 41, 64
8, 446400, Note_on_c, 6, 46, 64
8, 447168, Note_off_c, 6, 46, 64
8, 447360, Note_on_c, 6, 46, 64
8, 448128, Note_off_c, 6, 46, 64
8, 448320, Note_on_c, 6, 46, 64
8, 449088, Note_off_c, 6, 46, 64
8, 449280, Note_on_c, 6, 46, 112
8, 449664, Note_off_c, 6, 46, 64
8, 449760, Note_on_c, 6, 46, 112
8, 450144, Note_off_c, 6, 46, 64
8, 450240, Note_on_c, 6, 46, 112
8, 450624, Note_off_c, 6, 46, 64
8, 450720, Note_on_c, 6, 46, 112
8, 451104, Note_off_c, 6, 46, 64
8, 451200, Note_on_c, 6, 46, 112
8, 451584, Note_off_c, 6, 46, 64
8, 451680, Note_on_c, 6, 46, 112
8, 452064, Note_off_c, 6, 46, 64
8, 452160, Note_on_c, 6, 46, 112
8, 452544, Note_off_c, 6, 46, 64
8, 452640, Note_on_c, 6, 46, 112
8, 453024, Note_off_c, 6, 46, 64
8, 453120, Note_on_c, 6, 46, 112
8, 453504, Note_off_c, 6, 46, 64
8, 453600, Note_on_c, 6, 46, 112
8, 453984, Note_off_c, 6, 46, 64
8, 454080, Note_on_c, 6, 46, 112
8, 454464, Note_off_c, 6, 46, 64
8, 454560, Note_on_c, 6, 46, 112
8, 454944, Note_off_c, 6, 46, 64
8, 455040, Note_on_c, 6, 41, 112
8, 455424, Note_off_c, 6, 41, 64
8, 455520, Note_on_c, 6, 41, 112
8, 455904, Note_off_c, 6, 41, 64
8, 456000, Note_on_c, 6, 41, 112
8, 456384, Note_off_c, 6, 41, 64
8, 456480, Note_on_c, 6, 41, 112
8, 456864, Note_off_c, 6, 41, 64
8, 456960, Note_on_c, 6, 46, 127
8, 457152, Note_off_c, 6, 46, 64
8, 457200, Note_on_c, 6, 46, 104
8, 457392, Note_off_c, 6, 46, 64
8, 457440, Note_on_c, 6, 46, 104
8, 457632, Note_off_c, 6, 46, 64
8, 457680, Note_on_c, 6, 46, 104
8, 457872, Note_off_c, 6, 46, 64
8, 457920, Note_on_c, 6, 46, 104
8, 458112, Note_off_c, 6, 46, 64
8, 458160, Note_on_c, 6, 46, 104
8, 458352, Note_off_c, 6, 46, 64
8, 458400, Note_on_c, 6, 46, 104
8, 458592, Note_off_c, 6, 46, 64
8, 458640, Note_on_c, 6, 46, 104
8, 458832, Note_off_c, 6, 46, 64
8, 458880, Note_on_c, 6, 46, 104
8, 459072, Note_off_c, 6, 46, 64
8, 459120, Note_on_c, 6, 46, 104
8, 459312, Note_off_c, 6, 46, 64
8, 459360, Note_on_c, 6, 46, 104
8, 459552, Note_off_c, 6, 46, 64
8, 459600, Note_on_c, 6, 46, 104
8, 459792, Note_off_c, 6, 46, 64
8, 459840, Note_on_c, 6, 46, 104
8, 460032, Note_off_c, 6, 46, 64
8, 460080, Note_on_c, 6, 46, 104
8, 460272, Note_off_c, 6, 46, 64
8, 460320, Note_on_c, 6, 46, 104
8, 460512, Note_off_c, 6, 46, 64
8, 460560, Note_on_c, 6, 46, 104
8, 460752, Note_off_c, 6, 46, 64
8, 460800, Note_on_c, 6, 46, 127
8, 461184, Note_off_c, 6, 46, 64
8, 462720, Note_on_c, 6, 41, 127
8, 463104, Note_off_c, 6, 41, 64
8, 464640, Note_on_c, 6, 46, 127
8, 465024, Note_off_c, 6, 46, 64
8, 468480, Note_on_c, 6, 41, 127
8, 468864, Note_off_c, 6, 41, 64
8, 552960, Note_on_c, 6, 41, 80
8, 553344, Note_off_c, 6, 41, 64
8, 554880, Note_on_c, 6, 41, 80
8, 555264, Note_off_c, 6, 41, 64
8, 556800, Note_on_c, 6, 41, 80
8, 557184, Note_off_c, 6, 41, 64
8, 602880, Note_on_c, 6, 41, 100
8, 603264, Note_off_c, 6, 41, 64
8, 604320, Note_on_c, 6, 41, 100
8, 604512, Note_off_c, 6, 41, 64
8, 604800, Note_on_c, 6, 41, 100
8, 605184, Note_off_c, 6, 41, 64
8, 605760, Note_on_c, 6, 48, 100
8, 606144, Note_off_c, 6, 48, 64
8, 610560, Note_on_c, 6, 41, 100
8, 610944, Note_off_c, 6, 41, 64
8, 612000, Note_on_c, 6, 41, 100
8, 612192, Note_off_c, 6, 41, 64
8, 612480, Note_on_c, 6, 41, 100
8, 612864, Note_off_c, 6, 41, 64
8, 613440, Note_on_c, 6, 48, 100
8, 613824, Note_off_c, 6, 48, 64
8, 618240, Note_on_c, 6, 41, 80
8, 619008, Note_off_c, 6, 41, 64
8, 620160, Note_on_c, 6, 41, 80
8, 620928, Note_off_c, 6, 41, 64
8, 622080, Note_on_c, 6, 41, 80
8, 622848, Note_off_c, 6, 41, 64
8, 624000, Note_on_c, 6, 41, 80
8, 624768, Note_off_c, 6, 41, 64
8, 625920, Note_on_c, 6, 41, 127
8, 626048, Note_off_c, 6, 41, 64
8, 626080, Note_on_c, 6, 41, 127
8, 626208, Note_off_c, 6, 41, 64
8, 626240, Note_on_c, 6, 41, 127
8, 626368, Note_off_c, 6, 41, 64
8, 626400, Note_on_c, 6, 41, 127
8, 626528, Note_off_c, 6, 41, 64
8, 626560, Note_on_c, 6, 41, 127
8, 626688, Note_off_c, 6, 41, 64
8, 626720, Note_on_c, 6, 41, 127
8, 626848, Note_off_c, 6, 41, 64
8, 626880, Note_on_c, 6, 41, 127
8, 627008, Note_off_c, 6, 41, 64
8, 627040, Note_on_c, 6, 41, 127
8, 627168, Note_off_c, 6, 41, 64
8, 627200, Note_on_c, 6, 41, 127
8, 627328, Note_off_c, 6, 41, 64
8, 627360, Note_on_c, 6, 41, 127
8, 627488, Note_off_c, 6, 41, 64
8, 627520, Note_on_c, 6, 41, 127
8, 627648, Note_off_c, 6, 41, 64
8, 627680, Note_on_c, 6, 41, 127
8, 627808, Note_off_c, 6, 41, 64
8, 627840, Note_on_c, 6, 41, 127
8, 627968, Note_off_c, 6, 41, 64
8, 628000, Note_on_c, 6, 41, 127
8, 628128, Note_off_c, 6, 41, 64
8, 628160, Note_on_c, 6, 41, 127
8, 628288, Note_off_c, 6, 41, 64
8, 628320, Note_on_c, 6, 41, 127
8, 628448, Note_off_c, 6, 41, 64
8, 628480, Note_on_c, 6, 41, 127
8, 628608, Note_off_c, 6, 41, 64
8, 628640, Note_on_c, 6, 41, 127
8, 628768, Note_off_c, 6, 41, 64
8, 628800, Note_on_c, 6, 41, 127
8, 628928, Note_off_c, 6, 41, 64
8, 628960, Note_on_c, 6, 41, 127
8, 629088, Note_off_c, 6, 41, 64
8, 629120, Note_on_c, 6, 41, 127
8, 629248, Note_off_c, 6, 41, 64
8, 629280, Note_on_c, 6, 41, 127
8, 629408, Note_off_c, 6, 41, 64
8, 629440, Note_on_c, 6, 41, 127
8, 629568, Note_off_c, 6, 41, 64
8, 629600, Note_on_c, 6, 41, 127
8, 629728, Note_off_c, 6, 41, 64
8, 629760, Note_on_c, 6, 41, 127
8, 629888, Note_off_c, 6, 41, 64
8, 629920, Note_on_c, 6, 41, 127
8, 630048, Note_off_c, 6, 41, 64
8, 630080, Note_on_c, 6, 41, 127
8, 630208, Note_off_c, 6, 41, 64
8, 630240, Note_on_c, 6, 41, 127
8, 630368, Note_off_c, 6, 41, 64
8, 630400, Note_on_c, 6, 41, 127
8, 630528, Note_off_c, 6, 41, 64
8, 630560, Note_on_c, 6, 41, 127
8, 630688, Note_off_c, 6, 41, 64
8, 630720, Note_on_c, 6, 41, 127
8, 630848, Note_off_c, 6, 41, 64
8, 630880, Note_on_c, 6, 41, 127
8, 631008, Note_off_c, 6, 41, 64
8, 631040, Note_on_c, 6, 41, 127
8, 631168, Note_off_c, 6, 41, 64
8, 631200, Note_on_c, 6, 41, 127
8, 631328, Note_off_c, 6, 41, 64
8, 631360, Note_on_c, 6, 41, 127
8, 631488, Note_off_c, 6, 41, 64
8, 631520, Note_on_c, 6, 41, 127
8, 631648, Note_off_c, 6, 41, 64
8, 631680, Note_on_c, 6, 48, 127
8, 631808, Note_off_c, 6, 48, 64
8, 631840, Note_on_c, 6, 48, 127
8, 631968, Note_off_c, 6, 48, 64
8, 632000, Note_on_c, 6, 48, 127
8, 632128, Note_off_c, 6, 48, 64
8, 632160, Note_on_c, 6, 48, 127
8, 632288, Note_off_c, 6, 48, 64
8, 632320, Note_on_c, 6, 48, 127
8, 632448, Note_off_c, 6, 48, 64
8, 632480, Note_on_c, 6, 48, 127
8, 632608, Note_off_c, 6, 48, 64
8, 632640, Note_on_c, 6, 48, 127
8, 632768, Note_off_c, 6, 48, 64
8, 632800, Note_on_c, 6, 48, 127
8, 632928, Note_off_c, 6, 48, 64
8, 632960, Note_on_c, 6, 48, 127
8, 633088, Note_off_c, 6, 48, 64
8, 633120, Note_on_c, 6, 48, 127
8, 633248, Note_off_c, 6, 48, 64
8, 633280, Note_on_c, 6, 48, 127
8, 633408, Note_off_c, 6, 48, 64
8, 633440, Note_on_c, 6, 48, 127
8, 633568, Note_off_c, 6, 48, 64
8, 633600, Note_on_c, 6, 41, 127
8, 633984, Note_off_c, 6, 41, 64
8, 641280, Note_on_c, 6, 41, 127
8, 641664, Note_off_c, 6, 41, 64
8, 648960, Note_on_c, 6, 41, 80
8, 649344, Note_off_c, 6, 41, 64
8, 649920, Note_on_c, 6, 41, 80
8, 650304, Note_off_c, 6, 41, 64
8, 650880, Note_on_c, 6, 41, 80
8, 651264, Note_off_c, 6, 41, 64
8, 651840, Note_on_c, 6, 41, 80
8, 652224, Note_off_c, 6, 41, 64
8, 652800, Note_on_c, 6, 41, 80
8, 653184, Note_off_c, 6, 41, 64
8, 787200, Note_on_c, 6, 46, 108
8, 787328, Note_off_c, 6, 46, 64
8, 787360, Note_on_c, 6, 46, 108
8, 787488, Note_off_c, 6, 46, 64
8, 787520, Note_on_c, 6, 46, 108
8, 787648, Note_off_c, 6, 46, 64
8, 787680, Note_on_c, 6, 46, 108
8, 787808, Note_off_c, 6, 46, 64
8, 787840, Note_on_c, 6, 46, 108
8, 787968, Note_off_c, 6, 46, 64
8, 788000, Note_on_c, 6, 46, 108
8, 788128, Note_off_c, 6, 46, 64
8, 788160, Note_on_c, 6, 46, 108
8, 788288, Note_off_c, 6, 46, 64
8, 788320, Note_on_c, 6, 46, 108
8, 788448, Note_off_c, 6, 46, 64
8, 788480, Note_on_c, 6, 46, 108
8, 788608, Note_off_c, 6, 46, 64
8, 788640, Note_on_c, 6, 46, 108
8, 788768, Note_off_c, 6, 46, 64
8, 788800, Note_on_c, 6, 46, 108
8, 788928, Note_off_c, 6, 46, 64
8, 788960, Note_on_c, 6, 46, 108
8, 789088, Note_off_c, 6, 46, 64
8, 789120, Note_on_c, 6, 46, 108
8, 789248, Note_off_c, 6, 46, 64
8, 789280, Note_on_c, 6, 46, 108
8, 789408, Note_off_c, 6, 46, 64
8, 789440, Note_on_c, 6, 46, 108
8, 789568, Note_off_c, 6, 46, 64
8, 789600, Note_on_c, 6, 46, 108
8, 789728, Note_off_c, 6, 46, 64
8, 789760, Note_on_c, 6, 46, 108
8, 789888, Note_off_c, 6, 46, 64
8, 789920, Note_on_c, 6, 46, 108
8, 790048, Note_off_c, 6, 46, 64
8, 790080, Note_on_c, 6, 46, 108
8, 790208, Note_off_c, 6, 46, 64
8, 790240, Note_on_c, 6, 46, 108
8, 790368, Note_off_c, 6, 46, 64
8, 790400, Note_on_c, 6, 46, 108
8, 790528, Note_off_c, 6, 46, 64
8, 790560, Note_on_c, 6, 46, 108
8, 790688, Note_off_c, 6, 46, 64
8, 790720, Note_on_c, 6, 46, 108
8, 790848, Note_off_c, 6, 46, 64
8, 790880, Note_on_c, 6, 46, 108
8, 791008, Note_off_c, 6, 46, 64
8, 791040, Note_on_c, 6, 46, 108
8, 791168, Note_off_c, 6, 46, 64
8, 791200, Note_on_c, 6, 46, 108
8, 791328, Note_off_c, 6, 46, 64
8, 791360, Note_on_c, 6, 46, 108
8, 791488, Note_off_c, 6, 46, 64
8, 791520, Note_on_c, 6, 46, 108
8, 791648, Note_off_c, 6, 46, 64
8, 791680, Note_on_c, 6, 46, 108
8, 791808, Note_off_c, 6, 46, 64
8, 791840, Note_on_c, 6, 46, 108
8, 791968, Note_off_c, 6, 46, 64
8, 792000, Note_on_c, 6, 46, 108
8, 792128, Note_off_c, 6, 46, 64
8, 792160, Note_on_c, 6, 46, 108
8, 792288, Note_off_c, 6, 46, 64
8, 792320, Note_on_c, 6, 46, 108
8, 792448, Note_off_c, 6, 46, 64
8, 792480, Note_on_c, 6, 46, 108
8, 792608, Note_off_c, 6, 46, 64
8, 792640, Note_on_c, 6, 46, 108
8, 792768, Note_off_c, 6, 46, 64
8, 792800, Note_on_c, 6, 46, 108
8, 792928, Note_off_c, 6, 46, 64
8, 792960, Note_on_c, 6, 46, 108
8, 793344, Note_off_c, 6, 46, 64
8, 793920, Note_on_c, 6, 46, 108
8, 794304, Note_off_c, 6, 46, 64
8, 794880, Note_on_c, 6, 46, 108
8, 795264, Note_off_c, 6, 46, 64
8, 796800, Note_on_c, 6, 46, 108
8, 797184, Note_off_c, 6, 46, 64
8, 798720, Note_on_c, 6, 46, 108
8, 799104, Note_off_c, 6, 46, 64
8, 800640, Note_on_c, 6, 46, 108
8, 801024, Note_off_c, 6, 46, 64
8, 802560, Note_on_c, 6, 46, 108
8, 802944, Note_off_c, 6, 46, 64
8, 806400, Note_on_c, 6, 46, 34
8, 806784, Note_off_c, 6, 46, 64
8, 810240, Note_on_c, 6, 46, 24
8, 810624, Note_off_c, 6, 46, 64
8, 837120, Note_on_c, 6, 46, 15
8, 837248, Note_off_c, 6, 46, 64
8, 837280, Note_on_c, 6, 46, 15
8, 837408, Note_off_c, 6, 46, 64
8, 837440, Note_on_c, 6, 46, 15
8, 837568, Note_off_c, 6, 46, 64
8, 837600, Note_on_c, 6, 46, 15
8, 837728, Note_off_c, 6, 46, 64
8, 837760, Note_on_c, 6, 46, 15
8, 837888, Note_off_c, 6, 46, 64
8, 837920, Note_on_c, 6, 46, 15
8, 838048, Note_off_c, 6, 46, 64
8, 838080, Note_on_c, 6, 46, 15
8, 838208, Note_off_c, 6, 46, 64
8, 838240, Note_on_c, 6, 46, 15
8, 838368, Note_off_c, 6, 46, 64
8, 838400, Note_on_c, 6, 46, 15
8, 838528, Note_off_c, 6, 46, 64
8, 838560, Note_on_c, 6, 46, 15
8, 838688, Note_off_c, 6, 46, 64
8, 838720, Note_on_c, 6, 46, 15
8, 838848, Note_off_c, 6, 46, 64
8, 838880, Note_on_c, 6, 46, 15
8, 839008, Note_off_c, 6, 46, 64
8, 839040, Note_on_c, 6, 46, 15
8, 839168, Note_off_c, 6, 46, 64
8, 839200, Note_on_c, 6, 46, 15
8, 839328, Note_off_c, 6, 46, 64
8, 839360, Note_on_c, 6, 46, 15
8, 839488, Note_off_c, 6, 46, 64
8, 839520, Note_on_c, 6, 46, 15
8, 839648, Note_off_c, 6, 46, 64
8, 839680, Note_on_c, 6, 46, 15
8, 839808, Note_off_c, 6, 46, 64
8, 839840, Note_on_c, 6, 46, 15
8, 839968, Note_off_c, 6, 46, 64
8, 840000, Note_on_c, 6, 46, 15
8, 840128, Note_off_c, 6, 46, 64
8, 840160, Note_on_c, 6, 46, 15
8, 840288, Note_off_c, 6, 46, 64
8, 840320, Note_on_c, 6, 46, 15
8, 840448, Note_off_c, 6, 46, 64
8, 840480, Note_on_c, 6, 46, 15
8, 840608, Note_off_c, 6, 46, 64
8, 840640, Note_on_c, 6, 46, 15
8, 840768, Note_off_c, 6, 46, 64
8, 840800, Note_on_c, 6, 46, 15
8, 840928, Note_off_c, 6, 46, 64
8, 840960, Note_on_c, 6, 46, 15
8, 841088, Note_off_c, 6, 46, 64
8, 844800, Note_on_c, 6, 46, 15
8, 844928, Note_off_c, 6, 46, 64
8, 844960, Note_on_c, 6, 46, 15
8, 845088, Note_off_c, 6, 46, 64
8, 845120, Note_on_c, 6, 46, 15
8, 845248, Note_off_c, 6, 46, 64
8, 845280, Note_on_c, 6, 46, 15
8, 845408, Note_off_c, 6, 46, 64
8, 845440, Note_on_c, 6, 46, 15
8, 845568, Note_off_c, 6, 46, 64
8, 845600, Note_on_c, 6, 46, 15
8, 845728, Note_off_c, 6, 46, 64
8, 845760, Note_on_c, 6, 46, 15
8, 845888, Note_off_c, 6, 46, 64
8, 845920, Note_on_c, 6, 46, 15
8, 846048, Note_off_c, 6, 46, 64
8, 846080, Note_on_c, 6, 46, 15
8, 846208, Note_off_c, 6, 46, 64
8, 846240, Note_on_c, 6, 46, 15
8, 846368, Note_off_c, 6, 46, 64
8, 846400, Note_on_c, 6, 46, 15
8, 846528, Note_off_c, 6, 46, 64
8, 846560, Note_on_c, 6, 46, 15
8, 846688, Note_off_c, 6, 46, 64
8, 846720, Note_on_c, 6, 46, 15
8, 846848, Note_off_c, 6, 46, 64
8, 846880, Note_on_c, 6, 46, 15
8, 847008, Note_off_c, 6, 46, 64
8, 847040, Note_on_c, 6, 46, 15
8, 847168, Note_off_c, 6, 46, 64
8, 847200, Note_on_c, 6, 46, 15
8, 847328, Note_off_c, 6, 46, 64
8, 847360, Note_on_c, 6, 46, 15
8, 847488, Note_off_c, 6, 46, 64
8, 847520, Note_on_c, 6, 46, 15
8, 847648, Note_off_c, 6, 46, 64
8, 847680, Note_on_c, 6, 46, 15
8, 847808, Note_off_c, 6, 46, 64
8, 847840, Note_on_c, 6, 46, 15
8, 847968, Note_off_c, 6, 46, 64
8, 848000, Note_on_c, 6, 46, 15
8, 848128, Note_off_c, 6, 46, 64
8, 848160, Note_on_c, 6, 46, 15
8, 848288, Note_off_c, 6, 46, 64
8, 848320, Note_on_c, 6, 46, 15
8, 848448, Note_off_c, 6, 46, 64
8, 848480, Note_on_c, 6, 46, 15
8, 848608, Note_off_c, 6, 46, 64
8, 848640, Note_on_c, 6, 46, 15
8, 848768, Note_off_c, 6, 46, 64
8, 883200, Note_on_c, 6, 46, 15
8, 883328, Note_off_c, 6, 46, 64
8, 883360, Note_on_c, 6, 46, 15
8, 883488, Note_off_c, 6, 46, 64
8, 883520, Note_on_c, 6, 46, 15
8, 883648, Note_off_c, 6, 46, 64
8, 883680, Note_on_c, 6, 46, 15
8, 883808, Note_off_c, 6, 46, 64
8, 883840, Note_on_c, 6, 46, 15
8, 883968, Note_off_c, 6, 46, 64
8, 884000, Note_on_c, 6, 46, 15
8, 884128, Note_off_c, 6, 46, 64
8, 884160, Note_on_c, 6, 46, 15
8, 884288, Note_off_c, 6, 46, 64
8, 884320, Note_on_c, 6, 46, 15
8, 884448, Note_off_c, 6, 46, 64
8, 884480, Note_on_c, 6, 46, 15
8, 884608, Note_off_c, 6, 46, 64
8, 884640, Note_on_c, 6, 46, 15
8, 884768, Note_off_c, 6, 46, 64
8, 884800, Note_on_c, 6, 46, 15
8, 884928, Note_off_c, 6, 46, 64
8, 884960, Note_on_c, 6, 46, 15
8, 885088, Note_off_c, 6, 46, 64
8, 885120, Note_on_c, 6, 46, 15
8, 885248, Note_off_c, 6, 46, 64
8, 885280, Note_on_c, 6, 46, 15
8, 885408, Note_off_c, 6, 46, 64
8, 885440, Note_on_c, 6, 46, 15
8, 885568, Note_off_c, 6, 46, 64
8, 885600, Note_on_c, 6, 46, 15
8, 885728, Note_off_c, 6, 46, 64
8, 885760, Note_on_c, 6, 46, 15
8, 885888, Note_off_c, 6, 46, 64
8, 885920, Note_on_c, 6, 46, 15
8, 886048, Note_off_c, 6, 46, 64
8, 886080, Note_on_c, 6, 46, 15
8, 886208, Note_off_c, 6, 46, 64
8, 886240, Note_on_c, 6, 46, 15
8, 886368, Note_off_c, 6, 46, 64
8, 886400, Note_on_c, 6, 46, 15
8, 886528, Note_off_c, 6, 46, 64
8, 886560, Note_on_c, 6, 46, 15
8, 886688, Note_off_c, 6, 46, 64
8, 886720, Note_on_c, 6, 46, 15
8, 886848, Note_off_c, 6, 46, 64
8, 886880, Note_on_c, 6, 46, 15
8, 887008, Note_off_c, 6, 46, 64
8, 887040, Note_on_c, 6, 46, 15
8, 887168, Note_off_c, 6, 46, 64
8, 890880, Note_on_c, 6, 46, 15
8, 891008, Note_off_c, 6, 46, 64
8, 891040, Note_on_c, 6, 46, 15
8, 891168, Note_off_c, 6, 46, 64
8, 891200, Note_on_c, 6, 46, 15
8, 891328, Note_off_c, 6, 46, 64
8, 891360, Note_on_c, 6, 46, 15
8, 891488, Note_off_c, 6, 46, 64
8, 891520, Note_on_c, 6, 46, 15
8, 891648, Note_off_c, 6, 46, 64
8, 891680, Note_on_c, 6, 46, 15
8, 891808, Note_off_c, 6, 46, 64
8, 891840, Note_on_c, 6, 46, 15
8, 891968, Note_off_c, 6, 46, 64
8, 892000, Note_on_c, 6, 46, 15
8, 892128, Note_off_c, 6, 46, 64
8, 892160, Note_on_c, 6, 46, 15
8, 892288, Note_off_c, 6, 46, 64
8, 892320, Note_on_c, 6, 46, 15
8, 892448, Note_off_c, 6, 46, 64
8, 892480, Note_on_c, 6, 46, 15
8, 892608, Note_off_c, 6, 46, 64
8, 892640, Note_on_c, 6, 46, 15
8, 892768, Note_off_c, 6, 46, 64
8, 892800, Note_on_c, 6, 46, 15
8, 892928, Note_off_c, 6, 46, 64
8, 892960, Note_on_c, 6, 46, 15
8, 893088, Note_off_c, 6, 46, 64
8, 893120, Note_on_c, 6, 46, 15
8, 893248, Note_off_c, 6, 46, 64
8, 893280, Note_on_c, 6, 46, 15
8, 893408, Note_off_c, 6, 46, 64
8, 893440, Note_on_c, 6, 46, 15
8, 893568, Note_off_c, 6, 46, 64
8, 893600, Note_on_c, 6, 46, 15
8, 893728, Note_off_c, 6, 46, 64
8, 893760, Note_on_c, 6, 46, 15
8, 893888, Note_off_c, 6, 46, 64
8, 893920, Note_on_c, 6, 46, 15
8, 894048, Note_off_c, 6, 46, 64
8, 894080, Note_on_c, 6, 46, 15
8, 894208, Note_off_c, 6, 46, 64
8, 894240, Note_on_c, 6, 46, 15
8, 894368, Note_off_c, 6, 46, 64
8, 894400, Note_on_c, 6, 46, 15
8, 894528, Note_off_c, 6, 46, 64
8, 894560, Note_on_c, 6, 46, 15
8, 894688, Note_off_c, 6, 46, 64
8, 894720, Note_on_c, 6, 46, 15
8, 894848, Note_off_c, 6, 46, 64
8, 894880, Note_on_c, 6, 46, 15
8, 895008, Note_off_c, 6, 46, 64
8, 895040, Note_on_c, 6, 46, 15
8, 895168, Note_off_c, 6, 46, 64
8, 895200, Note_on_c, 6, 46, 15
8, 895328, Note_off_c, 6, 46, 64
8, 895360, Note_on_c, 6, 46, 15
8, 895488, Note_off_c, 6, 46, 64
8, 895520, Note_on_c, 6, 46, 15
8, 895648, Note_off_c, 6, 46, 64
8, 895680, Note_on_c, 6, 46, 15
8, 895808, Note_off_c, 6, 46, 64
8, 895840, Note_on_c, 6, 46, 15
8, 895968, Note_off_c, 6, 46, 64
8, 896000, Note_on_c, 6, 46, 15
8, 896128, Note_off_c, 6, 46, 64
8, 896160, Note_on_c, 6, 46, 15
8, 896288, Note_off_c, 6, 46, 64
8, 896320, Note_on_c, 6, 46, 15
8, 896448, Note_off_c, 6, 46, 64
8, 896480, Note_on_c, 6, 46, 15
8, 896608, Note_off_c, 6, 46, 64
8, 896640, Note_on_c, 6, 46, 15
8, 896768, Note_off_c, 6, 46, 64
8, 896800, Note_on_c, 6, 46, 15
8, 896928, Note_off_c, 6, 46, 64
8, 896960, Note_on_c, 6, 46, 15
8, 897088, Note_off_c, 6, 46, 64
8, 897120, Note_on_c, 6, 46, 15
8, 897248, Note_off_c, 6, 46, 64
8, 897280, Note_on_c, 6, 46, 15
8, 897408, Note_off_c, 6, 46, 64
8, 897440, Note_on_c, 6, 46, 15
8, 897568, Note_off_c, 6, 46, 64
8, 897600, Note_on_c, 6, 46, 15
8, 897728, Note_off_c, 6, 46, 64
8, 897760, Note_on_c, 6, 46, 15
8, 897888, Note_off_c, 6, 46, 64
8, 897920, Note_on_c, 6, 46, 15
8, 898048, Note_off_c, 6, 46, 64
8, 898080, Note_on_c, 6, 46, 15
8, 898208, Note_off_c, 6, 46, 64
8, 898240, Note_on_c, 6, 46, 15
8, 898368, Note_off_c, 6, 46, 64
8, 898400, Note_on_c, 6, 46, 15
8, 898528, Note_off_c, 6, 46, 64
8, 898560, Note_on_c, 6, 46, 15
8, 898688, Note_off_c, 6, 46, 64
8, 898720, Note_on_c, 6, 46, 15
8, 898848, Note_off_c, 6, 46, 64
8, 898880, Note_on_c, 6, 46, 15
8, 899008, Note_off_c, 6, 46, 64
8, 899040, Note_on_c, 6, 46, 15
8, 899168, Note_off_c, 6, 46, 64
8, 899200, Note_on_c, 6, 46, 15
8, 899328, Note_off_c, 6, 46, 64
8, 899360, Note_on_c, 6, 46, 15
8, 899488, Note_off_c, 6, 46, 64
8, 899520, Note_on_c, 6, 46, 15
8, 899648, Note_off_c, 6, 46, 64
8, 899680, Note_on_c, 6, 46, 15
8, 899808, Note_off_c, 6, 46, 64
8, 899840, Note_on_c, 6, 46, 15
8, 899968, Note_off_c, 6, 46, 64
8, 900000, Note_on_c, 6, 46, 15
8, 900128, Note_off_c, 6, 46, 64
8, 900160, Note_on_c, 6, 46, 15
8, 900288, Note_off_c, 6, 46, 64
8, 900320, Note_on_c, 6, 46, 15
8, 900448, Note_off_c, 6, 46, 64
8, 900480, Note_on_c, 6, 46, 15
8, 900608, Note_off_c, 6, 46, 64
8, 900640, Note_on_c, 6, 46, 15
8, 900768, Note_off_c, 6, 46, 64
8, 900800, Note_on_c, 6, 46, 15
8, 900928, Note_off_c, 6, 46, 64
8, 900960, Note_on_c, 6, 46, 15
8, 901088, Note_off_c, 6, 46, 64
8, 901120, Note_on_c, 6, 46, 15
8, 901248, Note_off_c, 6, 46, 64
8, 901280, Note_on_c, 6, 46, 15
8, 901408, Note_off_c, 6, 46, 64
8, 901440, Note_on_c, 6, 46, 15
8, 901568, Note_off_c, 6, 46, 64
8, 901600, Note_on_c, 6, 46, 15
8, 901728, Note_off_c, 6, 46, 64
8, 901760, Note_on_c, 6, 46, 15
8, 901888, Note_off_c, 6, 46, 64
8, 901920, Note_on_c, 6, 46, 15
8, 902048, Note_off_c, 6, 46, 64
8, 902080, Note_on_c, 6, 46, 15
8, 902208, Note_off_c, 6, 46, 64
8, 902240, Note_on_c, 6, 46, 15
8, 902368, Note_off_c, 6, 46, 64
8, 902400, Note_on_c, 6, 46, 15
8, 902528, Note_off_c, 6, 46, 64
8, 902560, Note_on_c, 6, 46, 15
8, 902688, Note_off_c, 6, 46, 64
8, 902720, Note_on_c, 6, 46, 15
8, 902848, Note_off_c, 6, 46, 64
8, 902880, Note_on_c, 6, 46, 15
8, 903008, Note_off_c, 6, 46, 64
8, 903040, Note_on_c, 6, 46, 15
8, 903168, Note_off_c, 6, 46, 64
8, 903200, Note_on_c, 6, 46, 15
8, 903328, Note_off_c, 6, 46, 64
8, 903360, Note_on_c, 6, 46, 15
8, 903488, Note_off_c, 6, 46, 64
8, 903520, Note_on_c, 6, 46, 15
8, 903648, Note_off_c, 6, 46, 64
8, 903680, Note_on_c, 6, 46, 15
8, 903808, Note_off_c, 6, 46, 64
8, 903840, Note_on_c, 6, 46, 15
8, 903968, Note_off_c, 6, 46, 64
8, 904000, Note_on_c, 6, 46, 15
8, 904128, Note_off_c, 6, 46, 64
8, 904160, Note_on_c, 6, 46, 15
8, 904288, Note_off_c, 6, 46, 64
8, 904320, Note_on_c, 6, 46, 15
8, 904448, Note_off_c, 6, 46, 64
8, 904480, Note_on_c, 6, 46, 15
8, 904608, Note_off_c, 6, 46, 64
8, 904640, Note_on_c, 6, 46, 15
8, 904768, Note_off_c, 6, 46, 64
8, 904800, Note_on_c, 6, 46, 15
8, 904928, Note_off_c, 6, 46, 64
8, 904960, Note_on_c, 6, 46, 15
8, 905088, Note_off_c, 6, 46, 64
8, 905120, Note_on_c, 6, 46, 15
8, 905248, Note_off_c, 6, 46, 64
8, 905280, Note_on_c, 6, 46, 15
8, 905408, Note_off_c, 6, 46, 64
8, 905440, Note_on_c, 6, 46, 15
8, 905568, Note_off_c, 6, 46, 64
8, 905600, Note_on_c, 6, 46, 15
8, 905728, Note_off_c, 6, 46, 64
8, 905760, Note_on_c, 6, 46, 15
8, 905888, Note_off_c, 6, 46, 64
8, 905920, Note_on_c, 6, 46, 15
8, 906048, Note_off_c, 6, 46, 64
8, 906080, Note_on_c, 6, 46, 15
8, 906208, Note_off_c, 6, 46, 64
8, 906240, Note_on_c, 6, 46, 15
8, 906368, Note_off_c, 6, 46, 64
8, 906400, Note_on_c, 6, 46, 15
8, 906528, Note_off_c, 6, 46, 64
8, 906560, Note_on_c, 6, 46, 15
8, 906688, Note_off_c, 6, 46, 64
8, 906720, Note_on_c, 6, 46, 15
8, 906848, Note_off_c, 6, 46, 64
8, 906880, Note_on_c, 6, 46, 15
8, 907008, Note_off_c, 6, 46, 64
8, 907040, Note_on_c, 6, 46, 15
8, 907168, Note_off_c, 6, 46, 64
8, 907200, Note_on_c, 6, 46, 15
8, 907328, Note_off_c, 6, 46, 64
8, 907360, Note_on_c, 6, 46, 15
8, 907488, Note_off_c, 6, 46, 64
8, 907520, Note_on_c, 6, 46, 15
8, 907648, Note_off_c, 6, 46, 64
8, 907680, Note_on_c, 6, 46, 15
8, 907808, Note_off_c, 6, 46, 64
8, 907840, Note_on_c, 6, 46, 15
8, 907968, Note_off_c, 6, 46, 64
8, 908000, Note_on_c, 6, 46, 15
8, 908128, Note_off_c, 6, 46, 64
8, 908160, Note_on_c, 6, 46, 15
8, 908288, Note_off_c, 6, 46, 64
8, 908320, Note_on_c, 6, 46, 15
8, 908448, Note_off_c, 6, 46, 64
8, 908480, Note_on_c, 6, 46, 15
8, 908608, Note_off_c, 6, 46, 64
8, 908640, Note_on_c, 6, 46, 15
8, 908768, Note_off_c, 6, 46, 64
8, 908800, Note_on_c, 6, 46, 15
8, 908928, Note_off_c, 6, 46, 64
8, 908960, Note_on_c, 6, 46, 15
8, 909088, Note_off_c, 6, 46, 64
8, 909120, Note_on_c, 6, 46, 15
8, 909248, Note_off_c, 6, 46, 64
8, 909280, Note_on_c, 6, 46, 15
8, 909408, Note_off_c, 6, 46, 64
8, 909440, Note_on_c, 6, 46, 15
8, 909568, Note_off_c, 6, 46, 64
8, 909600, Note_on_c, 6, 46, 15
8, 909728, Note_off_c, 6, 46, 64
8, 909760, Note_on_c, 6, 46, 15
8, 909888, Note_off_c, 6, 46, 64
8, 909920, Note_on_c, 6, 46, 15
8, 910048, Note_off_c, 6, 46, 64
8, 910080, Note_on_c, 6, 46, 15
8, 910208, Note_off_c, 6, 46, 64
8, 910240, Note_on_c, 6, 46, 15
8, 910368, Note_off_c, 6, 46, 64
8, 910400, Note_on_c, 6, 46, 15
8, 910528, Note_off_c, 6, 46, 64
8, 910560, Note_on_c, 6, 46, 15
8, 910688, Note_off_c, 6, 46, 64
8, 910720, Note_on_c, 6, 46, 15
8, 910848, Note_off_c, 6, 46, 64
8, 910880, Note_on_c, 6, 46, 15
8, 911008, Note_off_c, 6, 46, 64
8, 911040, Note_on_c, 6, 46, 15
8, 911168, Note_off_c, 6, 46, 64
8, 911200, Note_on_c, 6, 46, 15
8, 911328, Note_off_c, 6, 46, 64
8, 911360, Note_on_c, 6, 46, 15
8, 911488, Note_off_c, 6, 46, 64
8, 911520, Note_on_c, 6, 46, 15
8, 911648, Note_off_c, 6, 46, 64
8, 911680, Note_on_c, 6, 46, 15
8, 911808, Note_off_c, 6, 46, 64
8, 911840, Note_on_c, 6, 46, 15
8, 911968, Note_off_c, 6, 46, 64
8, 912000, Note_on_c, 6, 46, 15
8, 912128, Note_off_c, 6, 46, 64
8, 912160, Note_on_c, 6, 46, 15
8, 912288, Note_off_c, 6, 46, 64
8, 912320, Note_on_c, 6, 46, 15
8, 912448, Note_off_c, 6, 46, 64
8, 912480, Note_on_c, 6, 46, 15
8, 912608, Note_off_c, 6, 46, 64
8, 912640, Note_on_c, 6, 46, 15
8, 912768, Note_off_c, 6, 46, 64
8, 912800, Note_on_c, 6, 46, 15
8, 912928, Note_off_c, 6, 46, 64
8, 912960, Note_on_c, 6, 46, 15
8, 913088, Note_off_c, 6, 46, 64
8, 913120, Note_on_c, 6, 46, 15
8, 913248, Note_off_c, 6, 46, 64
8, 913280, Note_on_c, 6, 46, 15
8, 913408, Note_off_c, 6, 46, 64
8, 913440, Note_on_c, 6, 46, 15
8, 913568, Note_off_c, 6, 46, 64
8, 913600, Note_on_c, 6, 46, 15
8, 913728, Note_off_c, 6, 46, 64
8, 913760, Note_on_c, 6, 46, 15
8, 913888, Note_off_c, 6, 46, 64
8, 913920, Note_on_c, 6, 46, 15
8, 914048, Note_off_c, 6, 46, 64
8, 914080, Note_on_c, 6, 46, 15
8, 914208, Note_off_c, 6, 46, 64
8, 914240, Note_on_c, 6, 46, 15
8, 914368, Note_off_c, 6, 46, 64
8, 914400, Note_on_c, 6, 46, 15
8, 914528, Note_off_c, 6, 46, 64
8, 914560, Note_on_c, 6, 46, 15
8, 914688, Note_off_c, 6, 46, 64
8, 914720, Note_on_c, 6, 46, 15
8, 914848, Note_off_c, 6, 46, 64
8, 914880, Note_on_c, 6, 46, 15
8, 915008, Note_off_c, 6, 46, 64
8, 915040, Note_on_c, 6, 46, 15
8, 915168, Note_off_c, 6, 46, 64
8, 915200, Note_on_c, 6, 46, 15
8, 915328, Note_off_c, 6, 46, 64
8, 915360, Note_on_c, 6, 46, 15
8, 915488, Note_off_c, 6, 46, 64
8, 915520, Note_on_c, 6, 46, 15
8, 915648, Note_off_c, 6, 46, 64
8, 915680, Note_on_c, 6, 46, 15
8, 915808, Note_off_c, 6, 46, 64
8, 915840, Note_on_c, 6, 46, 15
8, 915968, Note_off_c, 6, 46, 64
8, 916000, Note_on_c, 6, 46, 15
8, 916128, Note_off_c, 6, 46, 64
8, 916160, Note_on_c, 6, 46, 15
8, 916288, Note_off_c, 6, 46, 64
8, 916320, Note_on_c, 6, 46, 15
8, 916448, Note_off_c, 6, 46, 64
8, 916480, Note_on_c, 6, 46, 15
8, 916608, Note_off_c, 6, 46, 64
8, 916640, Note_on_c, 6, 46, 15
8, 916768, Note_off_c, 6, 46, 64
8, 916800, Note_on_c, 6, 46, 15
8, 916928, Note_off_c, 6, 46, 64
8, 916960, Note_on_c, 6, 46, 15
8, 917088, Note_off_c, 6, 46, 64
8, 917120, Note_on_c, 6, 46, 15
8, 917248, Note_off_c, 6, 46, 64
8, 917280, Note_on_c, 6, 46, 15
8, 917408, Note_off_c, 6, 46, 64
8, 917440, Note_on_c, 6, 46, 15
8, 917568, Note_off_c, 6, 46, 64
8, 917600, Note_on_c, 6, 46, 15
8, 917728, Note_off_c, 6, 46, 64
8, 917760, Note_on_c, 6, 46, 24
8, 917888, Note_off_c, 6, 46, 64
8, 917920, Note_on_c, 6, 46, 25
8, 918048, Note_off_c, 6, 46, 64
8, 918080, Note_on_c, 6, 46, 26
8, 918208, Note_off_c, 6, 46, 64
8, 918240, Note_on_c, 6, 46, 27
8, 918368, Note_off_c, 6, 46, 64
8, 918400, Note_on_c, 6, 46, 28
8, 918528, Note_off_c, 6, 46, 64
8, 918560, Note_on_c, 6, 46, 29
8, 918688, Note_off_c, 6, 46, 64
8, 918720, Note_on_c, 6, 46, 30
8, 918848, Note_off_c, 6, 46, 64
8, 918880, Note_on_c, 6, 46, 31
8, 919008, Note_off_c, 6, 46, 64
8, 919040, Note_on_c, 6, 46, 32
8, 919168, Note_off_c, 6, 46, 64
8, 919200, Note_on_c, 6, 46, 33
8, 919328, Note_off_c, 6, 46, 64
8, 919360, Note_on_c, 6, 46, 34
8, 919488, Note_off_c, 6, 46, 64
8, 919520, Note_on_c, 6, 46, 35
8, 919648, Note_off_c, 6, 46, 64
8, 919680, Note_on_c, 6, 46, 36
8, 919808, Note_off_c, 6, 46, 64
8, 919840, Note_on_c, 6, 46, 37
8, 919968, Note_off_c, 6, 46, 64
8, 920000, Note_on_c, 6, 46, 38
8, 920128, Note_off_c, 6, 46, 64
8, 920160, Note_on_c, 6, 46, 39
8, 920288, Note_off_c, 6, 46, 64
8, 920320, Note_on_c, 6, 46, 40
8, 920448, Note_off_c, 6, 46, 64
8, 920480, Note_on_c, 6, 46, 41
8, 920608, Note_off_c, 6, 46, 64
8, 920640, Note_on_c, 6, 46, 42
8, 920768, Note_off_c, 6, 46, 64
8, 920800, Note_on_c, 6, 46, 43
8, 920928, Note_off_c, 6, 46, 64
8, 920960, Note_on_c, 6, 46, 44
8, 921088, Note_off_c, 6, 46, 64
8, 921120, Note_on_c, 6, 46, 45
8, 921248, Note_off_c, 6, 46, 64
8, 921280, Note_on_c, 6, 46, 46
8, 921408, Note_off_c, 6, 46, 64
8, 921440, Note_on_c, 6, 46, 47
8, 921568, Note_off_c, 6, 46, 64
8, 921600, Note_on_c, 6, 46, 48
8, 921728, Note_off_c, 6, 46, 64
8, 921760, Note_on_c, 6, 46, 49
8, 921888, Note_off_c, 6, 46, 64
8, 921920, Note_on_c, 6, 46, 50
8, 922048, Note_off_c, 6, 46, 64
8, 922080, Note_on_c, 6, 46, 51
8, 922208, Note_off_c, 6, 46, 64
8, 922240, Note_on_c, 6, 46, 52
8, 922368, Note_off_c, 6, 46, 64
8, 922400, Note_on_c, 6, 46, 53
8, 922528, Note_off_c, 6, 46, 64
8, 922560, Note_on_c, 6, 46, 54
8, 922688, Note_off_c, 6, 46, 64
8, 922720, Note_on_c, 6, 46, 55
8, 922848, Note_off_c, 6, 46, 64
8, 922880, Note_on_c, 6, 46, 56
8, 923008, Note_off_c, 6, 46, 64
8, 923040, Note_on_c, 6, 46, 57
8, 923168, Note_off_c, 6, 46, 64
8, 923200, Note_on_c, 6, 46, 58
8, 923328, Note_off_c, 6, 46, 64
8, 923360, Note_on_c, 6, 46, 59
8, 923488, Note_off_c, 6, 46, 64
8, 923520, Note_on_c, 6, 46, 60
8, 923648, Note_off_c, 6, 46, 64
8, 923680, Note_on_c, 6, 46, 61
8, 923808, Note_off_c, 6, 46, 64
8, 923840, Note_on_c, 6, 46, 62
8, 923968, Note_off_c, 6, 46, 64
8, 924000, Note_on_c, 6, 46, 63
8, 924128, Note_off_c, 6, 46, 64
8, 924160, Note_on_c, 6, 46, 64
8, 924288, Note_off_c, 6, 46, 64
8, 924320, Note_on_c, 6, 46, 65
8, 924448, Note_off_c, 6, 46, 64
8, 924480, Note_on_c, 6, 46, 66
8, 924608, Note_off_c, 6, 46, 64
8, 924640, Note_on_c, 6, 46, 67
8, 924768, Note_off_c, 6, 46, 64
8, 924800, Note_on_c, 6, 46, 68
8, 924928, Note_off_c, 6, 46, 64
8, 924960, Note_on_c, 6, 46, 69
8, 925088, Note_off_c, 6, 46, 64
8, 925120, Note_on_c, 6, 46, 70
8, 925248, Note_off_c, 6, 46, 64
8, 925280, Note_on_c, 6, 46, 71
8, 925408, Note_off_c, 6, 46, 64
8, 925440, Note_on_c, 6, 46, 72
8, 925568, Note_off_c, 6, 46, 64
8, 925600, Note_on_c, 6, 46, 73
8, 925728, Note_off_c, 6, 46, 64
8, 925760, Note_on_c, 6, 46, 74
8, 925888, Note_off_c, 6, 46, 64
8, 925920, Note_on_c, 6, 46, 75
8, 926048, Note_off_c, 6, 46, 64
8, 926080, Note_on_c, 6, 46, 76
8, 926208, Note_off_c, 6, 46, 64
8, 926240, Note_on_c, 6, 46, 77
8, 926368, Note_off_c, 6, 46, 64
8, 926400, Note_on_c, 6, 46, 78
8, 926528, Note_off_c, 6, 46, 64
8, 926560, Note_on_c, 6, 46, 79
8, 926688, Note_off_c, 6, 46, 64
8, 926720, Note_on_c, 6, 46, 80
8, 926848, Note_off_c, 6, 46, 64
8, 926880, Note_on_c, 6, 46, 81
8, 927008, Note_off_c, 6, 46, 64
8, 927040, Note_on_c, 6, 46, 82
8, 927168, Note_off_c, 6, 46, 64
8, 927200, Note_on_c, 6, 46, 83
8, 927328, Note_off_c, 6, 46, 64
8, 927360, Note_on_c, 6, 46, 84
8, 927488, Note_off_c, 6, 46, 64
8, 927520, Note_on_c, 6, 46, 85
8, 927648, Note_off_c, 6, 46, 64
8, 927680, Note_on_c, 6, 46, 86
8, 927808, Note_off_c, 6, 46, 64
8, 927840, Note_on_c, 6, 46, 87
8, 927968, Note_off_c, 6, 46, 64
8, 928000, Note_on_c, 6, 46, 88
8, 928128, Note_off_c, 6, 46, 64
8, 928160, Note_on_c, 6, 46, 89
8, 928288, Note_off_c, 6, 46, 64
8, 928320, Note_on_c, 6, 46, 90
8, 928448, Note_off_c, 6, 46, 64
8, 928480, Note_on_c, 6, 46, 91
8, 928608, Note_off_c, 6, 46, 64
8, 928640, Note_on_c, 6, 46, 92
8, 928768, Note_off_c, 6, 46, 64
8, 928800, Note_on_c, 6, 46, 93
8, 928928, Note_off_c, 6, 46, 64
8, 928960, Note_on_c, 6, 46, 94
8, 929088, Note_off_c, 6, 46, 64
8, 929120, Note_on_c, 6, 46, 95
8, 929248, Note_off_c, 6, 46, 64
8, 929280, Note_on_c, 6, 46, 96
8, 929408, Note_off_c, 6, 46, 64
8, 929440, Note_on_c, 6, 46, 97
8, 929568, Note_off_c, 6, 46, 64
8, 929600, Note_on_c, 6, 46, 98
8, 929728, Note_off_c, 6, 46, 64
8, 929760, Note_on_c, 6, 46, 99
8, 929888, Note_off_c, 6, 46, 64
8, 929920, Note_on_c, 6, 46, 100
8, 930048, Note_off_c, 6, 46, 64
8, 930080, Note_on_c, 6, 46, 101
8, 930208, Note_off_c, 6, 46, 64
8, 930240, Note_on_c, 6, 46, 102
8, 930368, Note_off_c, 6, 46, 64
8, 930400, Note_on_c, 6, 46, 103
8, 930528, Note_off_c, 6, 46, 64
8, 930560, Note_on_c, 6, 46, 104
8, 930688, Note_off_c, 6, 46, 64
8, 930720, Note_on_c, 6, 46, 105
8, 930848, Note_off_c, 6, 46, 64
8, 930880, Note_on_c, 6, 46, 106
8, 931008, Note_off_c, 6, 46, 64
8, 931040, Note_on_c, 6, 46, 107
8, 931168, Note_off_c, 6, 46, 64
8, 931200, Note_on_c, 6, 46, 108
8, 931328, Note_off_c, 6, 46, 64
8, 931360, Note_on_c, 6, 46, 109
8, 931488, Note_off_c, 6, 46, 64
8, 931520, Note_on_c, 6, 46, 110
8, 931648, Note_off_c, 6, 46, 64
8, 931680, Note_on_c, 6, 46, 111
8, 931808, Note_off_c, 6, 46, 64
8, 931840, Note_on_c, 6, 46, 112
8, 931968, Note_off_c, 6, 46, 64
8, 932000, Note_on_c, 6, 46, 113
8, 932128, Note_off_c, 6, 46, 64
8, 932160, Note_on_c, 6, 46, 114
8, 932288, Note_off_c, 6, 46, 64
8, 932320, Note_on_c, 6, 46, 115
8, 932448, Note_off_c, 6, 46, 64
8, 932480, Note_on_c, 6, 46, 116
8, 932608, Note_off_c, 6, 46, 64
8, 932640, Note_on_c, 6, 46, 117
8, 932768, Note_off_c, 6, 46, 64
8, 932800, Note_on_c, 6, 46, 118
8, 932928, Note_off_c, 6, 46, 64
8, 932960, Note_on_c, 6, 46, 119
8, 933088, Note_off_c, 6, 46, 64
8, 933120, Note_on_c, 6, 46, 120
8, 933248, Note_off_c, 6, 46, 64
8, 933280, Note_on_c, 6, 46, 120
8, 933408, Note_off_c, 6, 46, 64
8, 933440, Note_on_c, 6, 46, 120
8, 933568, Note_off_c, 6, 46, 64
8, 933600, Note_on_c, 6, 46, 120
8, 933728, Note_off_c, 6, 46, 64
8, 933760, Note_on_c, 6, 46, 120
8, 933888, Note_off_c, 6, 46, 64
8, 933920, Note_on_c, 6, 46, 120
8, 934048, Note_off_c, 6, 46, 64
8, 934080, Note_on_c, 6, 46, 120
8, 934208, Note_off_c, 6, 46, 64
8, 934240, Note_on_c, 6, 46, 120
8, 934368, Note_off_c, 6, 46, 64
8, 934400, Note_on_c, 6, 46, 120
8, 934528, Note_off_c, 6, 46, 64
8, 934560, Note_on_c, 6, 46, 120
8, 934688, Note_off_c, 6, 46, 64
8, 934720, Note_on_c, 6, 46, 120
8, 934848, Note_off_c, 6, 46, 64
8, 934880, Note_on_c, 6, 46, 120
8, 935008, Note_off_c, 6, 46, 64
8, 935040, Note_on_c, 6, 46, 120
8, 935168, Note_off_c, 6, 46, 64
8, 935200, Note_on_c, 6, 46, 120
8, 935328, Note_off_c, 6, 46, 64
8, 935360, Note_on_c, 6, 46, 120
8, 935488, Note_off_c, 6, 46, 64
8, 935520, Note_on_c, 6, 46, 120
8, 935648, Note_off_c, 6, 46, 64
8, 935680, Note_on_c, 6, 46, 120
8, 935808, Note_off_c, 6, 46, 64
8, 935840, Note_on_c, 6, 46, 120
8, 935968, Note_off_c, 6, 46, 64
8, 936000, Note_on_c, 6, 46, 120
8, 936128, Note_off_c, 6, 46, 64
8, 936160, Note_on_c, 6, 46, 120
8, 936288, Note_off_c, 6, 46, 64
8, 936320, Note_on_c, 6, 46, 120
8, 936448, Note_off_c, 6, 46, 64
8, 936480, Note_on_c, 6, 46, 120
8, 936608, Note_off_c, 6, 46, 64
8, 936640, Note_on_c, 6, 46, 120
8, 936768, Note_off_c, 6, 46, 64
8, 936800, Note_on_c, 6, 46, 120
8, 936928, Note_off_c, 6, 46, 64
8, 936960, Note_on_c, 6, 46, 120
8, 937088, Note_off_c, 6, 46, 64
8, 937120, Note_on_c, 6, 46, 120
8, 937248, Note_off_c, 6, 46, 64
8, 937280, Note_on_c, 6, 46, 120
8, 937408, Note_off_c, 6, 46, 64
8, 937440, Note_on_c, 6, 46, 120
8, 937568, Note_off_c, 6, 46, 64
8, 937600, Note_on_c, 6, 46, 120
8, 937728, Note_off_c, 6, 46, 64
8, 937760, Note_on_c, 6, 46, 120
8, 937888, Note_off_c, 6, 46, 64
8, 937920, Note_on_c, 6, 46, 120
8, 938048, Note_off_c, 6, 46, 64
8, 938080, Note_on_c, 6, 46, 120
8, 938208, Note_off_c, 6, 46, 64
8, 938240, Note_on_c, 6, 46, 120
8, 938368, Note_off_c, 6, 46, 64
8, 938400, Note_on_c, 6, 46, 120
8, 938528, Note_off_c, 6, 46, 64
8, 938560, Note_on_c, 6, 46, 120
8, 938688, Note_off_c, 6, 46, 64
8, 938720, Note_on_c, 6, 46, 120
8, 938848, Note_off_c, 6, 46, 64
8, 938880, Note_on_c, 6, 46, 127
8, 939264, Note_off_c, 6, 46, 64
8, 940080, Note_on_c, 6, 46, 127
8, 940464, Note_off_c, 6, 46, 64
8, 941280, Note_on_c, 6, 46, 127
8, 941664, Note_off_c, 6, 46, 64
8, 941760, Note_on_c, 6, 46, 80
8, 942144, Note_off_c, 6, 46, 64
8, 942240, Note_on_c, 6, 46, 80
8, 942624, Note_off_c, 6, 46, 64
8, 942720, Note_on_c, 6, 46, 80
8, 943104, Note_off_c, 6, 46, 64
8, 943200, Note_on_c, 6, 46, 80
8, 943584, Note_off_c, 6, 46, 64
8, 943680, Note_on_c, 6, 46, 80
8, 944064, Note_off_c, 6, 46, 64
8, 944160, Note_on_c, 6, 46, 80
8, 944544, Note_off_c, 6, 46, 64
8, 944640, Note_on_c, 6, 46, 80
8, 945024, Note_off_c, 6, 46, 64
8, 945120, Note_on_c, 6, 46, 80
8, 945504, Note_off_c, 6, 46, 64
8, 945600, Note_on_c, 6, 46, 80
8, 945984, Note_off_c, 6, 46, 64
8, 946080, Note_on_c, 6, 46, 80
8, 946464, Note_off_c, 6, 46, 64
8, 946560, Note_on_c, 6, 46, 80
8, 946944, Note_off_c, 6, 46, 64
8, 947040, Note_on_c, 6, 46, 80
8, 947424, Note_off_c, 6, 46, 64
8, 947520, Note_on_c, 6, 46, 80
8, 947904, Note_off_c, 6, 46, 64
8, 948000, Note_on_c, 6, 46, 80
8, 948384, Note_off_c, 6, 46, 64
8, 948480, Note_on_c, 6, 46, 80
8, 948864, Note_off_c, 6, 46, 64
8, 948960, Note_on_c, 6, 46, 120
8, 949344, Note_off_c, 6, 46, 64
8, 968160, Note_on_c, 6, 46, 112
8, 968544, Note_off_c, 6, 46, 64
8, 972000, Note_on_c, 6, 46, 112
8, 972384, Note_off_c, 6, 46, 64
8, 973920, Note_on_c, 6, 41, 112
8, 974304, Note_off_c, 6, 41, 64
8, 975840, Note_on_c, 6, 46, 112
8, 976224, Note_off_c, 6, 46, 64
8, 983520, Note_on_c, 6, 46, 112
8, 983712, Note_off_c, 6, 46, 64
8, 983760, Note_on_c, 6, 46, 112
8, 983952, Note_off_c, 6, 46, 64
8, 984000, Note_on_c, 6, 46, 112
8, 984192, Note_off_c, 6, 46, 64
8, 984240, Note_on_c, 6, 46, 112
8, 984432, Note_off_c, 6, 46, 64
8, 984480, Note_on_c, 6, 46, 112
8, 984672, Note_off_c, 6, 46, 64
8, 984720, Note_on_c, 6, 46, 112
8, 984912, Note_off_c, 6, 46, 64
8, 984960, Note_on_c, 6, 46, 112
8, 985152, Note_off_c, 6, 46, 64
8, 985200, Note_on_c, 6, 46, 112
8, 985392, Note_off_c, 6, 46, 64
8, 985440, Note_on_c, 6, 46, 112
8, 985824, Note_off_c, 6, 46, 64
8, 986400, Note_on_c, 6, 46, 127
8, 986784, Note_off_c, 6, 46, 64
8, 987360, Note_on_c, 6, 46, 112
8, 987744, Note_off_c, 6, 46, 64
8, 988320, Note_on_c, 6, 46, 127
8, 988704, Note_off_c, 6, 46, 64
8, 989280, Note_on_c, 6, 46, 112
8, 989664, Note_off_c, 6, 46, 64
8, 990240, Note_on_c, 6, 46, 127
8, 990624, Note_off_c, 6, 46, 64
8, 992160, Note_on_c, 6, 46, 127
8, 992544, Note_off_c, 6, 46, 64
8, 994080, Note_on_c, 6, 41, 127
8, 994464, Note_off_c, 6, 41, 64
8, 995040, Note_on_c, 6, 46, 104
8, 995232, Note_off_c, 6, 46, 64
8, 995280, Note_on_c, 6, 46, 104
8, 995472, Note_off_c, 6, 46, 64
8, 995520, Note_on_c, 6, 46, 104
8, 995712, Note_off_c, 6, 46, 64
8, 995760, Note_on_c, 6, 46, 104
8, 995952, Note_off_c, 6, 46, 64
8, 996000, Note_on_c, 6, 46, 104
8, 996192, Note_off_c, 6, 46, 64
8, 996240, Note_on_c, 6, 46, 104
8, 996432, Note_off_c, 6, 46, 64
8, 996480, Note_on_c, 6, 46, 104
8, 996672, Note_off_c, 6, 46, 64
8, 996720, Note_on_c, 6, 46, 104
8, 996912, Note_off_c, 6, 46, 64
8, 996960, Note_on_c, 6, 46, 104
8, 997152, Note_off_c, 6, 46, 64
8, 997200, Note_on_c, 6, 46, 104
8, 997392, Note_off_c, 6, 46, 64
8, 997440, Note_on_c, 6, 46, 104
8, 997632, Note_off_c, 6, 46, 64
8, 997680, Note_on_c, 6, 46, 104
8, 997872, Note_off_c, 6, 46, 64
8, 997920, Note_on_c, 6, 46, 104
8, 998112, Note_off_c, 6, 46, 64
8, 998160, Note_on_c, 6, 46, 104
8, 998352, Note_off_c, 6, 46, 64
8, 998400, Note_on_c, 6, 46, 104
8, 998592, Note_off_c, 6, 46, 64
8, 998640, Note_on_c, 6, 46, 104
8, 998832, Note_off_c, 6, 46, 64
8, 998880, Note_on_c, 6, 46, 104
8, 999072, Note_off_c, 6, 46, 64
8, 999120, Note_on_c, 6, 46, 104
8, 999312, Note_off_c, 6, 46, 64
8, 999360, Note_on_c, 6, 46, 104
8, 999552, Note_off_c, 6, 46, 64
8, 999600, Note_on_c, 6, 46, 104
8, 999792, Note_off_c, 6, 46, 64
8, 999840, Note_on_c, 6, 46, 104
8, 1000032, Note_off_c, 6, 46, 64
8, 1000080, Note_on_c, 6, 46, 104
8, 1000272, Note_off_c, 6, 46, 64
8, 1000320, Note_on_c, 6, 46, 104
8, 1000512, Note_off_c, 6, 46, 64
8, 1000560, Note_on_c, 6, 46, 104
8, 1000752, Note_off_c, 6, 46, 64
8, 1000800, Note_on_c, 6, 46, 104
8, 1000992, Note_off_c, 6, 46, 64
8, 1001040, Note_on_c, 6, 46, 104
8, 1001232, Note_off_c, 6, 46, 64
8, 1001280, Note_on_c, 6, 46, 104
8, 1001472, Note_off_c, 6, 46, 64
8, 1001520, Note_on_c, 6, 46, 104
8, 1001712, Note_off_c, 6, 46, 64
8, 1001760, Note_on_c, 6, 46, 104
8, 1001952, Note_off_c, 6, 46, 64
8, 1002000, Note_on_c, 6, 46, 104
8, 1002192, Note_off_c, 6, 46, 64
8, 1002240, Note_on_c, 6, 46, 104
8, 1002432, Note_off_c, 6, 46, 64
8, 1002480, Note_on_c, 6, 46, 104
8, 1002672, Note_off_c, 6, 46, 64
8, 1002720, Note_on_c, 6, 41, 120
8, 1003104, Note_off_c, 6, 41, 64
8, 1010400, Note_on_c, 6, 41, 80
8, 1010640, Note_off_c, 6, 41, 64
8, 1011360, Note_on_c, 6, 41, 80
8, 1011600, Note_off_c, 6, 41, 64
8, 1012320, Note_on_c, 6, 41, 80
8, 1012560, Note_off_c, 6, 41, 64
8, 1013280, Note_on_c, 6, 41, 80
8, 1013520, Note_off_c, 6, 41, 64
8, 1014240, Note_on_c, 6, 41, 80
8, 1014480, Note_off_c, 6, 41, 64
8, 1015200, Note_on_c, 6, 41, 80
8, 1015440, Note_off_c, 6, 41, 64
8, 1016160, Note_on_c, 6, 41, 80
8, 1016400, Note_off_c, 6, 41, 64
8, 1017120, Note_on_c, 6, 41, 80
8, 1017360, Note_off_c, 6, 41, 64
8, 1018080, Note_on_c, 6, 41, 80
8, 1018320, Note_off_c, 6, 41, 64
8, 1073760, Note_on_c, 6, 41, 60
8, 1074240, Note_off_c, 6, 41, 64
8, 1074720, Note_on_c, 6, 41, 80
8, 1075200, Note_off_c, 6, 41, 64
8, 1075680, Note_on_c, 6, 41, 80
8, 1076160, Note_off_c, 6, 41, 64
8, 1076640, Note_on_c, 6, 41, 80
8, 1077120, Note_off_c, 6, 41, 64
8, 1077600, Note_on_c, 6, 41, 80
8, 1078080, Note_off_c, 6, 41, 64
8, 1078560, Note_on_c, 6, 41, 80
8, 1079040, Note_off_c, 6, 41, 64
8, 1079520, Note_on_c, 6, 46, 80
8, 1079904, Note_off_c, 6, 46, 64
8, 1081440, Note_on_c, 6, 46, 80
8, 1081824, Note_off_c, 6, 46, 64
8, 1083360, Note_on_c, 6, 46, 80
8, 1083744, Note_off_c, 6, 46, 64
8, 1084800, Note_on_c, 6, 46, 80
8, 1085184, Note_off_c, 6, 46, 64
8, 1085280, Note_on_c, 6, 41, 80
8, 1085664, Note_off_c, 6, 41, 64
8, 1085760, Note_on_c, 6, 41, 80
8, 1086144, Note_off_c, 6, 41, 64
8, 1086240, Note_on_c, 6, 41, 80
8, 1086624, Note_off_c, 6, 41, 64
8, 1086720, Note_on_c, 6, 41, 80
8, 1087104, Note_off_c, 6, 41, 64
8, 1087200, Note_on_c, 6, 46, 80
8, 1087584, Note_off_c, 6, 46, 64
8, 1088160, Note_on_c, 6, 46, 80
8, 1088544, Note_off_c, 6, 46, 64
8, 1089120, Note_on_c, 6, 46, 80
8, 1089504, Note_off_c, 6, 46, 64
8, 1090080, Note_on_c, 6, 41, 80
8, 1090464, Note_off_c, 6, 41, 64
8, 1092960, Note_on_c, 6, 46, 40
8, 1093344, Note_off_c, 6, 46, 64
8, 1094400, Note_on_c, 6, 41, 40
8, 1094784, Note_off_c, 6, 41, 64
8, 1094880, Note_on_c, 6, 46, 40
8, 1095264, Note_off_c, 6, 46, 64
8, 1096800, Note_on_c, 6, 46, 40
8, 1097184, Note_off_c, 6, 46, 64
8, 1098240, Note_on_c, 6, 46, 40
8, 1098624, Note_off_c, 6, 46, 64
8, 1098720, Note_on_c, 6, 41, 40
8, 1099104, Note_off_c, 6, 41, 64
8, 1100640, Note_on_c, 6, 41, 40
8, 1101024, Note_off_c, 6, 41, 64
8, 1102080, Note_on_c, 6, 41, 40
8, 1102464, Note_off_c, 6, 41, 64
8, 1102560, Note_on_c, 6, 41, 40
8, 1102944, Note_off_c, 6, 41, 64
8, 1104480, Note_on_c, 6, 41, 40
8, 1104864, Note_off_c, 6, 41, 64
8, 1105920, Note_on_c, 6, 41, 40
8, 1106304, Note_off_c, 6, 41, 64
8, 1106400, Note_on_c, 6, 46, 80
8, 1106784, Note_off_c, 6, 46, 64
8, 1106880, Note_on_c, 6, 41, 80
8, 1107264, Note_off_c, 6, 41, 64
8, 1107360, Note_on_c, 6, 41, 80
8, 1107744, Note_off_c, 6, 41, 64
8, 1107840, Note_on_c, 6, 41, 80
8, 1108224, Note_off_c, 6, 41, 64
8, 1108320, Note_on_c, 6, 41, 80
8, 1108704, Note_off_c, 6, 41, 64
8, 1109760, Note_on_c, 6, 41, 80
8, 1110144, Note_off_c, 6, 41, 64
8, 1110240, Note_on_c, 6, 41, 80
8, 1110624, Note_off_c, 6, 41, 64
8, 1110720, Note_on_c, 6, 41, 80
8, 1111104, Note_off_c, 6, 41, 64
8, 1111200, Note_on_c, 6, 41, 80
8, 1111584, Note_off_c, 6, 41, 64
8, 1111680, Note_on_c, 6, 41, 80
8, 1112064, Note_off_c, 6, 41, 64
8, 1112160, Note_on_c, 6, 41, 80
8, 1112544, Note_off_c, 6, 41, 64
8, 1113600, Note_on_c, 6, 41, 80
8, 1113984, Note_off_c, 6, 41, 64
8, 1114080, Note_on_c, 6, 41, 80
8, 1114464, Note_off_c, 6, 41, 64
8, 1114560, Note_on_c, 6, 41, 80
8, 1114944, Note_off_c, 6, 41, 64
8, 1115040, Note_on_c, 6, 41, 80
8, 1115424, Note_off_c, 6, 41, 64
8, 1115520, Note_on_c, 6, 41, 80
8, 1115904, Note_off_c, 6, 41, 64
8, 1116000, Note_on_c, 6, 41, 80
8, 1116384, Note_off_c, 6, 41, 64
8, 1117440, Note_on_c, 6, 41, 80
8, 1117824, Note_off_c, 6, 41, 64
8, 1117920, Note_on_c, 6, 41, 80
8, 1118304, Note_off_c, 6, 41, 64
8, 1118400, Note_on_c, 6, 41, 80
8, 1118784, Note_off_c, 6, 41, 64
8, 1118880, Note_on_c, 6, 41, 80
8, 1119264, Note_off_c, 6, 41, 64
8, 1119360, Note_on_c, 6, 41, 80
8, 1119744, Note_off_c, 6, 41, 64
8, 1119840, Note_on_c, 6, 41, 80
8, 1120224, Note_off_c, 6, 41, 64
8, 1129440, Note_on_c, 6, 46, 100
8, 1129824, Note_off_c, 6, 46, 64
8, 1130880, Note_on_c, 6, 46, 100
8, 1131072, Note_off_c, 6, 46, 64
8, 1131360, Note_on_c, 6, 46, 100
8, 1131744, Note_off_c, 6, 46, 64
8, 1132320, Note_on_c, 6, 41, 100
8, 1132704, Note_off_c, 6, 41, 64
8, 1137120, Note_on_c, 6, 46, 100
8, 1137504, Note_off_c, 6, 46, 64
8, 1138560, Note_on_c, 6, 46, 100
8, 1138752, Note_off_c, 6, 46, 64
8, 1139040, Note_on_c, 6, 46, 100
8, 1139424, Note_off_c, 6, 46, 64
8, 1140000, Note_on_c, 6, 41, 100
8, 1140384, Note_off_c, 6, 41, 64
8, 1144800, Note_on_c, 6, 46, 80
8, 1145568, Note_off_c, 6, 46, 64
8, 1146720, Note_on_c, 6, 46, 80
8, 1147488, Note_off_c, 6, 46, 64
8, 1148640, Note_on_c, 6, 46, 80
8, 1149408, Note_off_c, 6, 46, 64
8, 1150560, Note_on_c, 6, 46, 80
8, 1151328, Note_off_c, 6, 46, 64
8, 1152480, Note_on_c, 6, 46, 127
8, 1152608, Note_off_c, 6, 46, 64
8, 1152640, Note_on_c, 6, 46, 127
8, 1152768, Note_off_c, 6, 46, 64
8, 1152800, Note_on_c, 6, 46, 127
8, 1152928, Note_off_c, 6, 46, 64
8, 1152960, Note_on_c, 6, 46, 127
8, 1153088, Note_off_c, 6, 46, 64
8, 1153120, Note_on_c, 6, 46, 127
8, 1153248, Note_off_c, 6, 46, 64
8, 1153280, Note_on_c, 6, 46, 127
8, 1153408, Note_off_c, 6, 46, 64
8, 1153440, Note_on_c, 6, 46, 127
8, 1153568, Note_off_c, 6, 46, 64
8, 1153600, Note_on_c, 6, 46, 127
8, 1153728, Note_off_c, 6, 46, 64
8, 1153760, Note_on_c, 6, 46, 127
8, 1153888, Note_off_c, 6, 46, 64
8, 1153920, Note_on_c, 6, 46, 127
8, 1154048, Note_off_c, 6, 46, 64
8, 1154080, Note_on_c, 6, 46, 127
8, 1154208, Note_off_c, 6, 46, 64
8, 1154240, Note_on_c, 6, 46, 127
8, 1154368, Note_off_c, 6, 46, 64
8, 1154400, Note_on_c, 6, 46, 127
8, 1154528, Note_off_c, 6, 46, 64
8, 1154560, Note_on_c, 6, 46, 127
8, 1154688, Note_off_c, 6, 46, 64
8, 1154720, Note_on_c, 6, 46, 127
8, 1154848, Note_off_c, 6, 46, 64
8, 1154880, Note_on_c, 6, 46, 127
8, 1155008, Note_off_c, 6, 46, 64
8, 1155040, Note_on_c, 6, 46, 127
8, 1155168, Note_off_c, 6, 46, 64
8, 1155200, Note_on_c, 6, 46, 127
8, 1155328, Note_off_c, 6, 46, 64
8, 1155360, Note_on_c, 6, 46, 127
8, 1155488, Note_off_c, 6, 46, 64
8, 1155520, Note_on_c, 6, 46, 127
8, 1155648, Note_off_c, 6, 46, 64
8, 1155680, Note_on_c, 6, 46, 127
8, 1155808, Note_off_c, 6, 46, 64
8, 1155840, Note_on_c, 6, 46, 127
8, 1155968, Note_off_c, 6, 46, 64
8, 1156000, Note_on_c, 6, 46, 127
8, 1156128, Note_off_c, 6, 46, 64
8, 1156160, Note_on_c, 6, 46, 127
8, 1156288, Note_off_c, 6, 46, 64
8, 1156320, Note_on_c, 6, 46, 127
8, 1156448, Note_off_c, 6, 46, 64
8, 1156480, Note_on_c, 6, 46, 127
8, 1156608, Note_off_c, 6, 46, 64
8, 1156640, Note_on_c, 6, 46, 127
8, 1156768, Note_off_c, 6, 46, 64
8, 1156800, Note_on_c, 6, 46, 127
8, 1156928, Note_off_c, 6, 46, 64
8, 1156960, Note_on_c, 6, 46, 127
8, 1157088, Note_off_c, 6, 46, 64
8, 1157120, Note_on_c, 6, 46, 127
8, 1157248, Note_off_c, 6, 46, 64
8, 1157280, Note_on_c, 6, 46, 127
8, 1157408, Note_off_c, 6, 46, 64
8, 1157440, Note_on_c, 6, 46, 127
8, 1157568, Note_off_c, 6, 46, 64
8, 1157600, Note_on_c, 6, 46, 127
8, 1157728, Note_off_c, 6, 46, 64
8, 1157760, Note_on_c, 6, 46, 127
8, 1157888, Note_off_c, 6, 46, 64
8, 1157920, Note_on_c, 6, 46, 127
8, 1158048, Note_off_c, 6, 46, 64
8, 1158080, Note_on_c, 6, 46, 127
8, 1158208, Note_off_c, 6, 46, 64
8, 1158240, Note_on_c, 6, 41, 127
8, 1158368, Note_off_c, 6, 41, 64
8, 1158400, Note_on_c, 6, 41, 127
8, 1158528, Note_off_c, 6, 41, 64
8, 1158560, Note_on_c, 6, 41, 127
8, 1158688, Note_off_c, 6, 41, 64
8, 1158720, Note_on_c, 6, 41, 127
8, 1158848, Note_off_c, 6, 41, 64
8, 1158880, Note_on_c, 6, 41, 127
8, 1159008, Note_off_c, 6, 41, 64
8, 1159040, Note_on_c, 6, 41, 127
8, 1159168, Note_off_c, 6, 41, 64
8, 1159200, Note_on_c, 6, 41, 127
8, 1159328, Note_off_c, 6, 41, 64
8, 1159360, Note_on_c, 6, 41, 127
8, 1159488, Note_off_c, 6, 41, 64
8, 1159520, Note_on_c, 6, 41, 127
8, 1159648, Note_off_c, 6, 41, 64
8, 1159680, Note_on_c, 6, 41, 127
8, 1159808, Note_off_c, 6, 41, 64
8, 1159840, Note_on_c, 6, 41, 127
8, 1159968, Note_off_c, 6, 41, 64
8, 1160000, Note_on_c, 6, 41, 127
8, 1160128, Note_off_c, 6, 41, 64
8, 1160160, Note_on_c, 6, 46, 127
8, 1160544, Note_off_c, 6, 46, 64
8, 1166400, Note_on_c, 6, 41, 112
8, 1166784, Note_off_c, 6, 41, 64
8, 1166880, Note_on_c, 6, 41, 112
8, 1167264, Note_off_c, 6, 41, 64
8, 1167360, Note_on_c, 6, 41, 112
8, 1167744, Note_off_c, 6, 41, 64
8, 1167840, Note_on_c, 6, 46, 127
8, 1168224, Note_off_c, 6, 46, 64
8, 1174080, Note_on_c, 6, 41, 112
8, 1174464, Note_off_c, 6, 41, 64
8, 1174560, Note_on_c, 6, 41, 112
8, 1174944, Note_off_c, 6, 41, 64
8, 1175040, Note_on_c, 6, 41, 112
8, 1175424, Note_off_c, 6, 41, 64
8, 1175520, Note_on_c, 6, 46, 127
8, 1175904, Note_off_c, 6, 46, 64
8, 1177920, Note_on_c, 6, 41, 112
8, 1178304, Note_off_c, 6, 41, 64
8, 1178400, Note_on_c, 6, 41, 112
8, 1178784, Note_off_c, 6, 41, 64
8, 1178880, Note_on_c, 6, 41, 112
8, 1179264, Note_off_c, 6, 41, 64
8, 1179360, Note_on_c, 6, 41, 112
8, 1179488, Note_off_c, 6, 41, 64
8, 1179520, Note_on_c, 6, 41, 112
8, 1179648, Note_off_c, 6, 41, 64
8, 1179680, Note_on_c, 6, 41, 112
8, 1179808, Note_off_c, 6, 41, 64
8, 1179840, Note_on_c, 6, 41, 112
8, 1179968, Note_off_c, 6, 41, 64
8, 1180000, Note_on_c, 6, 41, 112
8, 1180128, Note_off_c, 6, 41, 64
8, 1180160, Note_on_c, 6, 41, 112
8, 1180288, Note_off_c, 6, 41, 64
8, 1180320, Note_on_c, 6, 41, 112
8, 1180448, Note_off_c, 6, 41, 64
8, 1180480, Note_on_c, 6, 41, 112
8, 1180608, Note_off_c, 6, 41, 64
8, 1180640, Note_on_c, 6, 41, 112
8, 1180768, Note_off_c, 6, 41, 64
8, 1180800, Note_on_c, 6, 41, 112
8, 1180928, Note_off_c, 6, 41, 64
8, 1180960, Note_on_c, 6, 41, 112
8, 1181088, Note_off_c, 6, 41, 64
8, 1181120, Note_on_c, 6, 41, 112
8, 1181248, Note_off_c, 6, 41, 64
8, 1181280, Note_on_c, 6, 41, 112
8, 1181408, Note_off_c, 6, 41, 64
8, 1181440, Note_on_c, 6, 41, 112
8, 1181568, Note_off_c, 6, 41, 64
8, 1181600, Note_on_c, 6, 41, 112
8, 1181728, Note_off_c, 6, 41, 64
8, 1181760, Note_on_c, 6, 41, 112
8, 1181888, Note_off_c, 6, 41, 64
8, 1181920, Note_on_c, 6, 41, 112
8, 1182048, Note_off_c, 6, 41, 64
8, 1182080, Note_on_c, 6, 41, 112
8, 1182208, Note_off_c, 6, 41, 64
8, 1182240, Note_on_c, 6, 41, 112
8, 1182368, Note_off_c, 6, 41, 64
8, 1182400, Note_on_c, 6, 41, 112
8, 1182528, Note_off_c, 6, 41, 64
8, 1182560, Note_on_c, 6, 41, 112
8, 1182688, Note_off_c, 6, 41, 64
8, 1182720, Note_on_c, 6, 41, 112
8, 1182848, Note_off_c, 6, 41, 64
8, 1182880, Note_on_c, 6, 41, 112
8, 1183008, Note_off_c, 6, 41, 64
8, 1183040, Note_on_c, 6, 41, 112
8, 1183168, Note_off_c, 6, 41, 64
8, 1183200, Note_on_c, 6, 41, 127
8, 1183584, Note_off_c, 6, 41, 64
8, 1185120, Note_on_c, 6, 41, 127
8, 1185504, Note_off_c, 6, 41, 64
8, 1187040, Note_on_c, 6, 41, 127
8, 1187424, Note_off_c, 6, 41, 64
8, 1188000, Note_on_c, 6, 41, 127
8, 1188384, Note_off_c, 6, 41, 64
8, 1188960, Note_on_c, 6, 41, 127
8, 1189344, Note_off_c, 6, 41, 64
8, 1189920, Note_on_c, 6, 41, 127
8, 1190304, Note_off_c, 6, 41, 64
8, 1190880, Note_on_c, 6, 46, 127
8, 1191264, Note_off_c, 6, 46, 64
8, 1192800, Note_on_c, 6, 46, 67
8, 1193184, Note_off_c, 6, 46, 64
8, 1194720, Note_on_c, 6, 46, 67
8, 1195104, Note_off_c, 6, 46, 64
8, 1196640, Note_on_c, 6, 46, 67
8, 1197024, Note_off_c, 6, 46, 64
8, 1198560, Note_on_c, 6, 46, 127
8, 1198944, Note_off_c, 6, 46, 64
8, 1200480, Note_on_c, 6, 46, 67
8, 1200864, Note_off_c, 6, 46, 64
8, 1202400, Note_on_c, 6, 46, 67
8, 1202784, Note_off_c, 6, 46, 64
8, 1204320, Note_on_c, 6, 46, 67
8, 1204704, Note_off_c, 6, 46, 64
8, 1210080, Note_on_c, 6, 41, 127
8, 1210464, Note_off_c, 6, 41, 64
8, 1212000, Note_on_c, 6, 41, 127
8, 1212384, Note_off_c, 6, 41, 64
8, 1213800, Note_on_c, 6, 41, 127
8, 1213908, Note_off_c, 6, 41, 64
8, 1213920, Note_on_c, 6, 46, 127
8, 1214370, Note_off_c, 6, 46, 64
8, 1217760, Note_on_c, 6, 41, 127
8, 1218144, Note_off_c, 6, 41, 64
8, 1219680, Note_on_c, 6, 41, 127
8, 1220064, Note_off_c, 6, 41, 64
8, 1221480, Note_on_c, 6, 41, 127
8, 1221588, Note_off_c, 6, 41, 64
8, 1221600, Note_on_c, 6, 46, 32
8, 1221792, Note_off_c, 6, 46, 64
8, 1221840, Note_on_c, 6, 46, 33
8, 1222032, Note_off_c, 6, 46, 64
8, 1222080, Note_on_c, 6, 46, 35
8, 1222272, Note_off_c, 6, 46, 64
8, 1222320, Note_on_c, 6, 46, 36
8, 1222512, Note_off_c, 6, 46, 64
8, 1222560, Note_on_c, 6, 46, 38
8, 1222752, Note_off_c, 6, 46, 64
8, 1222800, Note_on_c, 6, 46, 39
8, 1222992, Note_off_c, 6, 46, 64
8, 1223040, Note_on_c, 6, 46, 40
8, 1223232, Note_off_c, 6, 46, 64
8, 1223280, Note_on_c, 6, 46, 42
8, 1223472, Note_off_c, 6, 46, 64
8, 1223520, Note_on_c, 6, 46, 43
8, 1223712, Note_off_c, 6, 46, 64
8, 1223760, Note_on_c, 6, 46, 44
8, 1223952, Note_off_c, 6, 46, 64
8, 1224000, Note_on_c, 6, 46, 46
8, 1224192, Note_off_c, 6, 46, 64
8, 1224240, Note_on_c, 6, 46, 47
8, 1224432, Note_off_c, 6, 46, 64
8, 1224480, Note_on_c, 6, 46, 49
8, 1224672, Note_off_c, 6, 46, 64
8, 1224720, Note_on_c, 6, 46, 50
8, 1224912, Note_off_c, 6, 46, 64
8, 1224960, Note_on_c, 6, 46, 51
8, 1225152, Note_off_c, 6, 46, 64
8, 1225200, Note_on_c, 6, 46, 53
8, 1225392, Note_off_c, 6, 46, 64
8, 1225440, Note_on_c, 6, 41, 54
8, 1225632, Note_off_c, 6, 41, 64
8, 1225680, Note_on_c, 6, 41, 55
8, 1225872, Note_off_c, 6, 41, 64
8, 1225920, Note_on_c, 6, 41, 57
8, 1226112, Note_off_c, 6, 41, 64
8, 1226160, Note_on_c, 6, 41, 58
8, 1226352, Note_off_c, 6, 41, 64
8, 1226400, Note_on_c, 6, 41, 60
8, 1226592, Note_off_c, 6, 41, 64
8, 1226640, Note_on_c, 6, 41, 61
8, 1226832, Note_off_c, 6, 41, 64
8, 1226880, Note_on_c, 6, 41, 62
8, 1227072, Note_off_c, 6, 41, 64
8, 1227120, Note_on_c, 6, 41, 64
8, 1227312, Note_off_c, 6, 41, 64
8, 1227360, Note_on_c, 6, 41, 65
8, 1227552, Note_off_c, 6, 41, 64
8, 1227600, Note_on_c, 6, 41, 66
8, 1227792, Note_off_c, 6, 41, 64
8, 1227840, Note_on_c, 6, 41, 68
8, 1228032, Note_off_c, 6, 41, 64
8, 1228080, Note_on_c, 6, 41, 69
8, 1228272, Note_off_c, 6, 41, 64
8, 1228320, Note_on_c, 6, 41, 71
8, 1228512, Note_off_c, 6, 41, 64
8, 1228560, Note_on_c, 6, 41, 72
8, 1228752, Note_off_c, 6, 41, 64
8, 1228800, Note_on_c, 6, 41, 73
8, 1228992, Note_off_c, 6, 41, 64
8, 1229040, Note_on_c, 6, 41, 75
8, 1229232, Note_off_c, 6, 41, 64
8, 1229280, Note_on_c, 6, 46, 76
8, 1229472, Note_off_c, 6, 46, 64
8, 1229520, Note_on_c, 6, 46, 77
8, 1229712, Note_off_c, 6, 46, 64
8, 1229760, Note_on_c, 6, 46, 79
8, 1229952, Note_off_c, 6, 46, 64
8, 1230000, Note_on_c, 6, 46, 80
8, 1230192, Note_off_c, 6, 46, 64
8, 1230240, Note_on_c, 6, 46, 82
8, 1230432, Note_off_c, 6, 46, 64
8, 1230480, Note_on_c, 6, 46, 83
8, 1230672, Note_off_c, 6, 46, 64
8, 1230720, Note_on_c, 6, 46, 84
8, 1230912, Note_off_c, 6, 46, 64
8, 1230960, Note_on_c, 6, 46, 86
8, 1231152, Note_off_c, 6, 46, 64
8, 1231200, Note_on_c, 6, 46, 87
8, 1231392, Note_off_c, 6, 46, 64
8, 1231440, Note_on_c, 6, 46, 88
8, 1231632, Note_off_c, 6, 46, 64
8, 1231680, Note_on_c, 6, 46, 90
8, 1231872, Note_off_c, 6, 46, 64
8, 1231920, Note_on_c, 6, 46, 91
8, 1232112, Note_off_c, 6, 46, 64
8, 1232160, Note_on_c, 6, 46, 93
8, 1232352, Note_off_c, 6, 46, 64
8, 1232400, Note_on_c, 6, 46, 94
8, 1232592, Note_off_c, 6, 46, 64
8, 1232640, Note_on_c, 6, 46, 95
8, 1232832, Note_off_c, 6, 46, 64
8, 1232880, Note_on_c, 6, 46, 97
8, 1233072, Note_off_c, 6, 46, 64
8, 1233120, Note_on_c, 6, 41, 98
8, 1233312, Note_off_c, 6, 41, 64
8, 1233360, Note_on_c, 6, 41, 99
8, 1233552, Note_off_c, 6, 41, 64
8, 1233600, Note_on_c, 6, 41, 101
8, 1233792, Note_off_c, 6, 41, 64
8, 1233840, Note_on_c, 6, 41, 102
8, 1234032, Note_off_c, 6, 41, 64
8, 1234080, Note_on_c, 6, 41, 104
8, 1234272, Note_off_c, 6, 41, 64
8, 1234320, Note_on_c, 6, 41, 105
8, 1234512, Note_off_c, 6, 41, 64
8, 1234560, Note_on_c, 6, 41, 106
8, 1234752, Note_off_c, 6, 41, 64
8, 1234800, Note_on_c, 6, 41, 108
8, 1234992, Note_off_c, 6, 41, 64
8, 1235040, Note_on_c, 6, 41, 109
8, 1235232, Note_off_c, 6, 41, 64
8, 1235280, Note_on_c, 6, 41, 110
8, 1235472, Note_off_c, 6, 41, 64
8, 1235520, Note_on_c, 6, 41, 112
8, 1235712, Note_off_c, 6, 41, 64
8, 1235760, Note_on_c, 6, 41, 113
8, 1235952, Note_off_c, 6, 41, 64
8, 1236000, Note_on_c, 6, 41, 115
8, 1236192, Note_off_c, 6, 41, 64
8, 1236240, Note_on_c, 6, 41, 116
8, 1236432, Note_off_c, 6, 41, 64
8, 1236480, Note_on_c, 6, 41, 117
8, 1236672, Note_off_c, 6, 41, 64
8, 1236720, Note_on_c, 6, 41, 119
8, 1236912, Note_off_c, 6, 41, 64
8, 1236960, Note_on_c, 6, 46, 127
8, 1237152, Note_off_c, 6, 46, 64
8, 1237200, Note_on_c, 6, 46, 127
8, 1237392, Note_off_c, 6, 46, 64
8, 1237440, Note_on_c, 6, 46, 127
8, 1237632, Note_off_c, 6, 46, 64
8, 1237680, Note_on_c, 6, 46, 127
8, 1237872, Note_off_c, 6, 46, 64
8, 1237920, Note_on_c, 6, 46, 127
8, 1238112, Note_off_c, 6, 46, 64
8, 1238160, Note_on_c, 6, 46, 127
8, 1238352, Note_off_c, 6, 46, 64
8, 1238400, Note_on_c, 6, 46, 127
8, 1238592, Note_off_c, 6, 46, 64
8, 1238640, Note_on_c, 6, 46, 127
8, 1238832, Note_off_c, 6, 46, 64
8, 1238880, Note_on_c, 6, 46, 127
8, 1239072, Note_off_c, 6, 46, 64
8, 1239120, Note_on_c, 6, 46, 127
8, 1239312, Note_off_c, 6, 46, 64
8, 1239360, Note_on_c, 6, 46, 127
8, 1239552, Note_off_c, 6, 46, 64
8, 1239600, Note_on_c, 6, 46, 127
8, 1239792, Note_off_c, 6, 46, 64
8, 1239840, Note_on_c, 6, 46, 127
8, 1240032, Note_off_c, 6, 46, 64
8, 1240080, Note_on_c, 6, 46, 127
8, 1240272, Note_off_c, 6, 46, 64
8, 1240320, Note_on_c, 6, 46, 127
8, 1240512, Note_off_c, 6, 46, 64
8, 1240560, Note_on_c, 6, 46, 127
8, 1240752, Note_off_c, 6, 46, 64
8, 1240800, Note_on_c, 6, 46, 127
8, 1240992, Note_off_c, 6, 46, 64
8, 1241040, Note_on_c, 6, 46, 127
8, 1241232, Note_off_c, 6, 46, 64
8, 1241280, Note_on_c, 6, 46, 127
8, 1241472, Note_off_c, 6, 46, 64
8, 1241520, Note_on_c, 6, 46, 127
8, 1241712, Note_off_c, 6, 46, 64
8, 1241760, Note_on_c, 6, 46, 127
8, 1241952, Note_off_c, 6, 46, 64
8, 1242000, Note_on_c, 6, 46, 127
8, 1242192, Note_off_c, 6, 46, 64
8, 1242240, Note_on_c, 6, 46, 127
8, 1242432, Note_off_c, 6, 46, 64
8, 1242480, Note_on_c, 6, 46, 127
8, 1242672, Note_off_c, 6, 46, 64
8, 1242720, Note_on_c, 6, 46, 127
8, 1242912, Note_off_c, 6, 46, 64
8, 1242960, Note_on_c, 6, 46, 127
8, 1243152, Note_off_c, 6, 46, 64
8, 1243200, Note_on_c, 6, 46, 127
8, 1243392, Note_off_c, 6, 46, 64
8, 1243440, Note_on_c, 6, 46, 127
8, 1243632, Note_off_c, 6, 46, 64
8, 1243680, Note_on_c, 6, 46, 127
8, 1243872, Note_off_c, 6, 46, 64
8, 1243920, Note_on_c, 6, 46, 127
8, 1244112, Note_off_c, 6, 46, 64
8, 1244160, Note_on_c, 6, 46, 127
8, 1244352, Note_off_c, 6, 46, 64
8, 1244400, Note_on_c, 6, 46, 127
8, 1244592, Note_off_c, 6, 46, 64
8, 1244640, Note_on_c, 6, 46, 120
8, 1244880, Note_off_c, 6, 46, 64
8, 1245600, Note_on_c, 6, 46, 120
8, 1245840, Note_off_c, 6, 46, 64
8, 1246560, Note_on_c, 6, 46, 120
8, 1246800, Note_off_c, 6, 46, 64
8, 1248480, Note_on_c, 6, 46, 120
8, 1248720, Note_off_c, 6, 46, 64
8, 1250400, Note_on_c, 6, 46, 127
8, 1250640, Note_off_c, 6, 46, 64
8, 1250640, End_track
9, 0, Start_track
9, 0, Title_t, "Violin 1"
9, 0, MIDI_port, 0
9, 0, Channel_prefix, 7
9, 0, Control_c, 7, 7, 99
9, 0, Control_c, 7, 10, 45
9, 0, Program_c, 7, 48
9, 480, Program_c, 7, 48
9, 480, Control_c, 7, 91, 85
9, 480, Control_c, 7, 7, 105
9, 480, Control_c, 7, 93, 90
9, 480, Control_c, 7, 10, 34
9, 5700, Control_c, 7, 7, 90
9, 7605, Control_c, 7, 7, 33
9, 7621, Control_c, 7, 7, 35
9, 7633, Control_c, 7, 7, 37
9, 7645, Control_c, 7, 7, 39
9, 7661, Control_c, 7, 7, 42
9, 7673, Control_c, 7, 7, 44
9, 7680, Note_on_c, 7, 66, 26
9, 7685, Control_c, 7, 7, 46
9, 7701, Control_c, 7, 7, 49
9, 7713, Control_c, 7, 7, 51
9, 7725, Control_c, 7, 7, 53
9, 7741, Control_c, 7, 7, 56
9, 7753, Control_c, 7, 7, 58
9, 7765, Control_c, 7, 7, 60
9, 7781, Control_c, 7, 7, 63
9, 7793, Control_c, 7, 7, 65
9, 7805, Control_c, 7, 7, 67
9, 7821, Control_c, 7, 7, 70
9, 7833, Control_c, 7, 7, 72
9, 7845, Control_c, 7, 7, 74
9, 7861, Control_c, 7, 7, 77
9, 7873, Control_c, 7, 7, 79
9, 7885, Control_c, 7, 7, 81
9, 7901, Control_c, 7, 7, 84
9, 7913, Control_c, 7, 7, 86
9, 7925, Control_c, 7, 7, 88
9, 7941, Control_c, 7, 7, 91
9, 8640, Note_off_c, 7, 66, 64
9, 8640, Note_on_c, 7, 63, 26
9, 9600, Note_off_c, 7, 63, 64
9, 9600, Note_on_c, 7, 65, 26
9, 10560, Note_off_c, 7, 65, 64
9, 10560, Note_on_c, 7, 61, 26
9, 11520, Note_off_c, 7, 61, 64
9, 11520, Note_on_c, 7, 63, 26
9, 12000, Note_off_c, 7, 63, 64
9, 12000, Note_on_c, 7, 60, 26
9, 12480, Note_off_c, 7, 60, 64
9, 12480, Note_on_c, 7, 61, 26
9, 12960, Note_off_c, 7, 61, 64
9, 12960, Note_on_c, 7, 58, 26
9, 13440, Note_off_c, 7, 58, 64
9, 13440, Note_on_c, 7, 66, 26
9, 13445, Control_c, 7, 7, 87
9, 13473, Control_c, 7, 7, 88
9, 13501, Control_c, 7, 7, 89
9, 13525, Control_c, 7, 7, 90
9, 13553, Control_c, 7, 7, 91
9, 13565, Control_c, 7, 7, 92
9, 13593, Control_c, 7, 7, 93
9, 13621, Control_c, 7, 7, 94
9, 13645, Control_c, 7, 7, 95
9, 13661, Control_c, 7, 7, 96
9, 13685, Control_c, 7, 7, 97
9, 13713, Control_c, 7, 7, 98
9, 13741, Control_c, 7, 7, 99
9, 13765, Control_c, 7, 7, 100
9, 13781, Control_c, 7, 7, 101
9, 13805, Control_c, 7, 7, 102
9, 13833, Control_c, 7, 7, 103
9, 13861, Control_c, 7, 7, 104
9, 13873, Control_c, 7, 7, 105
9, 13901, Control_c, 7, 7, 106
9, 13925, Control_c, 7, 7, 107
9, 13953, Control_c, 7, 7, 108
9, 13981, Control_c, 7, 7, 109
9, 13993, Control_c, 7, 7, 110
9, 14021, Control_c, 7, 7, 111
9, 14045, Control_c, 7, 7, 112
9, 14073, Control_c, 7, 7, 113
9, 14085, Control_c, 7, 7, 114
9, 14113, Control_c, 7, 7, 115
9, 14141, Control_c, 7, 7, 116
9, 14165, Control_c, 7, 7, 117
9, 14193, Control_c, 7, 7, 118
9, 14205, Control_c, 7, 7, 119
9, 14233, Control_c, 7, 7, 120
9, 14261, Control_c, 7, 7, 121
9, 14285, Control_c, 7, 7, 122
9, 14301, Control_c, 7, 7, 123
9, 14325, Control_c, 7, 7, 124
9, 14353, Control_c, 7, 7, 125
9, 14381, Control_c, 7, 7, 126
9, 14393, Control_c, 7, 7, 127
9, 14421, Control_c, 7, 7, 126
9, 14445, Control_c, 7, 7, 125
9, 14473, Control_c, 7, 7, 124
9, 14501, Control_c, 7, 7, 123
9, 14525, Control_c, 7, 7, 122
9, 14553, Control_c, 7, 7, 121
9, 14565, Control_c, 7, 7, 120
9, 14593, Control_c, 7, 7, 119
9, 14621, Control_c, 7, 7, 118
9, 14645, Control_c, 7, 7, 117
9, 14673, Control_c, 7, 7, 116
9, 14701, Control_c, 7, 7, 115
9, 14725, Control_c, 7, 7, 114
9, 14741, Control_c, 7, 7, 113
9, 14765, Control_c, 7, 7, 112
9, 14793, Control_c, 7, 7, 111
9, 14821, Control_c, 7, 7, 110
9, 14845, Control_c, 7, 7, 109
9, 14873, Control_c, 7, 7, 108
9, 14901, Control_c, 7, 7, 107
9, 14913, Control_c, 7, 7, 106
9, 14941, Control_c, 7, 7, 105
9, 14965, Control_c, 7, 7, 104
9, 14993, Control_c, 7, 7, 103
9, 15021, Control_c, 7, 7, 102
9, 15045, Control_c, 7, 7, 101
9, 15073, Control_c, 7, 7, 100
9, 15085, Control_c, 7, 7, 99
9, 15113, Control_c, 7, 7, 98
9, 15141, Control_c, 7, 7, 97
9, 15165, Control_c, 7, 7, 96
9, 15193, Control_c, 7, 7, 95
9, 15221, Control_c, 7, 7, 94
9, 15245, Control_c, 7, 7, 93
9, 15261, Control_c, 7, 7, 92
9, 15285, Control_c, 7, 7, 91
9, 15313, Control_c, 7, 7, 90
9, 15341, Control_c, 7, 7, 89
9, 15360, Note_off_c, 7, 66, 64
9, 15360, Note_on_c, 7, 65, 26
9, 15365, Control_c, 7, 7, 88
9, 15393, Control_c, 7, 7, 87
9, 15421, Control_c, 7, 7, 86
9, 15433, Control_c, 7, 7, 85
9, 15528, Note_off_c, 7, 65, 64
9, 18720, Note_on_c, 7, 73, 24
9, 19200, Note_off_c, 7, 73, 64
9, 19200, Note_on_c, 7, 72, 21
9, 19392, Note_off_c, 7, 72, 64
9, 22560, Note_on_c, 7, 61, 27
9, 23040, Note_off_c, 7, 61, 64
9, 23040, Note_on_c, 7, 60, 26
9, 23232, Note_off_c, 7, 60, 64
9, 24960, Program_c, 7, 48
9, 30633, Control_c, 7, 7, 32
9, 30645, Control_c, 7, 7, 36
9, 30661, Control_c, 7, 7, 40
9, 30673, Control_c, 7, 7, 44
9, 30685, Control_c, 7, 7, 48
9, 30701, Control_c, 7, 7, 52
9, 30713, Control_c, 7, 7, 56
9, 30720, Note_on_c, 7, 66, 30
9, 30725, Control_c, 7, 7, 61
9, 30741, Control_c, 7, 7, 65
9, 30753, Control_c, 7, 7, 69
9, 30765, Control_c, 7, 7, 73
9, 30781, Control_c, 7, 7, 77
9, 30793, Control_c, 7, 7, 81
9, 30805, Control_c, 7, 7, 85
9, 30821, Control_c, 7, 7, 90
9, 31680, Note_off_c, 7, 66, 64
9, 31680, Note_on_c, 7, 63, 30
9, 32640, Note_off_c, 7, 63, 64
9, 32640, Note_on_c, 7, 65, 30
9, 33600, Note_off_c, 7, 65, 64
9, 33600, Note_on_c, 7, 61, 30
9, 34560, Note_off_c, 7, 61, 64
9, 34560, Note_on_c, 7, 63, 30
9, 35040, Note_off_c, 7, 63, 64
9, 35040, Note_on_c, 7, 60, 30
9, 35520, Note_off_c, 7, 60, 64
9, 35520, Note_on_c, 7, 61, 30
9, 36000, Note_off_c, 7, 61, 64
9, 36000, Note_on_c, 7, 58, 30
9, 36480, Note_off_c, 7, 58, 64
9, 36480, Control_c, 7, 7, 87
9, 36480, Note_on_c, 7, 66, 30
9, 36504, Control_c, 7, 7, 88
9, 36532, Control_c, 7, 7, 89
9, 36560, Control_c, 7, 7, 90
9, 36584, Control_c, 7, 7, 91
9, 36612, Control_c, 7, 7, 92
9, 36640, Control_c, 7, 7, 93
9, 36664, Control_c, 7, 7, 94
9, 36680, Control_c, 7, 7, 95
9, 36704, Control_c, 7, 7, 96
9, 36732, Control_c, 7, 7, 97
9, 36760, Control_c, 7, 7, 98
9, 36784, Control_c, 7, 7, 99
9, 36812, Control_c, 7, 7, 100
9, 36840, Control_c, 7, 7, 101
9, 36864, Control_c, 7, 7, 102
9, 36880, Control_c, 7, 7, 103
9, 36904, Control_c, 7, 7, 104
9, 36932, Control_c, 7, 7, 105
9, 36960, Control_c, 7, 7, 106
9, 36984, Control_c, 7, 7, 107
9, 37012, Control_c, 7, 7, 108
9, 37040, Control_c, 7, 7, 109
9, 37064, Control_c, 7, 7, 110
9, 37080, Control_c, 7, 7, 111
9, 37104, Control_c, 7, 7, 112
9, 37132, Control_c, 7, 7, 113
9, 37160, Control_c, 7, 7, 114
9, 37184, Control_c, 7, 7, 115
9, 37212, Control_c, 7, 7, 116
9, 37240, Control_c, 7, 7, 117
9, 37264, Control_c, 7, 7, 118
9, 37280, Control_c, 7, 7, 119
9, 37304, Control_c, 7, 7, 120
9, 37332, Control_c, 7, 7, 121
9, 37360, Control_c, 7, 7, 122
9, 37384, Control_c, 7, 7, 123
9, 37412, Control_c, 7, 7, 124
9, 37440, Control_c, 7, 7, 125
9, 37452, Control_c, 7, 7, 125
9, 37492, Control_c, 7, 7, 124
9, 37520, Control_c, 7, 7, 123
9, 37544, Control_c, 7, 7, 122
9, 37572, Control_c, 7, 7, 121
9, 37600, Control_c, 7, 7, 120
9, 37624, Control_c, 7, 7, 119
9, 37664, Control_c, 7, 7, 118
9, 37692, Control_c, 7, 7, 117
9, 37720, Control_c, 7, 7, 116
9, 37744, Control_c, 7, 7, 115
9, 37772, Control_c, 7, 7, 114
9, 37800, Control_c, 7, 7, 113
9, 37840, Control_c, 7, 7, 112
9, 37864, Control_c, 7, 7, 111
9, 37892, Control_c, 7, 7, 110
9, 37920, Control_c, 7, 7, 109
9, 37944, Control_c, 7, 7, 108
9, 37972, Control_c, 7, 7, 107
9, 38000, Control_c, 7, 7, 106
9, 38040, Control_c, 7, 7, 105
9, 38064, Control_c, 7, 7, 104
9, 38092, Control_c, 7, 7, 103
9, 38120, Control_c, 7, 7, 102
9, 38144, Control_c, 7, 7, 101
9, 38172, Control_c, 7, 7, 100
9, 38212, Control_c, 7, 7, 99
9, 38240, Control_c, 7, 7, 98
9, 38264, Control_c, 7, 7, 97
9, 38292, Control_c, 7, 7, 96
9, 38320, Control_c, 7, 7, 95
9, 38344, Control_c, 7, 7, 94
9, 38384, Control_c, 7, 7, 93
9, 38412, Control_c, 7, 7, 92
9, 38440, Control_c, 7, 7, 91
9, 38464, Control_c, 7, 7, 90
9, 38492, Control_c, 7, 7, 89
9, 38520, Control_c, 7, 7, 88
9, 38544, Control_c, 7, 7, 87
9, 38568, Note_off_c, 7, 66, 64
9, 41760, Note_on_c, 7, 74, 24
9, 42240, Note_off_c, 7, 74, 64
9, 42240, Note_on_c, 7, 73, 21
9, 42432, Note_off_c, 7, 73, 64
9, 45600, Note_on_c, 7, 62, 30
9, 46080, Note_off_c, 7, 62, 64
9, 46080, Note_on_c, 7, 61, 26
9, 46272, Note_off_c, 7, 61, 64
9, 48000, Program_c, 7, 45
9, 51360, Note_on_c, 7, 64, 32
9, 51360, Note_on_c, 7, 70, 32
9, 51744, Note_off_c, 7, 70, 64
9, 51744, Note_off_c, 7, 64, 64
9, 51840, Note_on_c, 7, 59, 64
9, 52224, Note_off_c, 7, 59, 64
9, 53760, Program_c, 7, 48
9, 60960, Note_on_c, 7, 70, 64
9, 60960, Note_on_c, 7, 82, 64
9, 61632, Note_off_c, 7, 82, 64
9, 61632, Note_off_c, 7, 70, 64
9, 62880, Note_on_c, 7, 70, 45
9, 63360, Note_off_c, 7, 70, 64
9, 63360, Note_on_c, 7, 68, 38
9, 65280, Note_off_c, 7, 68, 64
9, 65280, Note_on_c, 7, 69, 38
9, 65760, Note_off_c, 7, 69, 64
9, 65760, Note_on_c, 7, 64, 48
9, 66240, Note_off_c, 7, 64, 64
9, 66240, Note_on_c, 7, 65, 48
9, 66720, Note_off_c, 7, 65, 64
9, 66720, Note_on_c, 7, 67, 48
9, 66960, Note_off_c, 7, 67, 64
9, 66960, Note_on_c, 7, 69, 48
9, 67200, Note_off_c, 7, 69, 64
9, 67200, Note_on_c, 7, 67, 48
9, 67680, Note_off_c, 7, 67, 64
9, 67680, Note_on_c, 7, 64, 48
9, 68160, Note_off_c, 7, 64, 64
9, 68160, Note_on_c, 7, 65, 48
9, 68640, Note_off_c, 7, 65, 64
9, 68640, Note_on_c, 7, 64, 48
9, 68880, Note_off_c, 7, 64, 64
9, 68880, Note_on_c, 7, 62, 48
9, 69120, Note_off_c, 7, 62, 64
9, 69120, Note_on_c, 7, 61, 40
9, 69504, Note_off_c, 7, 61, 64
9, 70080, Note_on_c, 7, 69, 23
9, 70320, Note_off_c, 7, 69, 64
9, 71040, Note_on_c, 7, 69, 18
9, 71280, Note_off_c, 7, 69, 64
9, 72480, Control_c, 7, 7, 110
9, 72960, Note_on_c, 7, 81, 127
9, 74718, Note_off_c, 7, 81, 64
9, 74730, Note_on_c, 7, 72, 127
9, 74760, Note_off_c, 7, 72, 64
9, 74760, Note_on_c, 7, 74, 127
9, 74790, Note_off_c, 7, 74, 64
9, 74790, Note_on_c, 7, 75, 127
9, 74820, Note_off_c, 7, 75, 64
9, 74820, Note_on_c, 7, 77, 127
9, 74850, Note_off_c, 7, 77, 64
9, 74850, Note_on_c, 7, 79, 127
9, 74880, Note_off_c, 7, 79, 64
9, 74880, Note_on_c, 7, 81, 127
9, 74976, Note_off_c, 7, 81, 64
9, 76800, Note_on_c, 7, 84, 127
9, 78558, Note_off_c, 7, 84, 64
9, 78570, Note_on_c, 7, 75, 127
9, 78600, Note_off_c, 7, 75, 64
9, 78600, Note_on_c, 7, 77, 127
9, 78630, Note_off_c, 7, 77, 64
9, 78630, Note_on_c, 7, 79, 127
9, 78660, Note_off_c, 7, 79, 64
9, 78660, Note_on_c, 7, 81, 127
9, 78690, Note_off_c, 7, 81, 64
9, 78690, Note_on_c, 7, 82, 127
9, 78720, Note_off_c, 7, 82, 64
9, 78720, Note_on_c, 7, 84, 127
9, 78960, Note_off_c, 7, 84, 64
9, 80160, Note_on_c, 7, 77, 127
9, 80280, Note_off_c, 7, 77, 64
9, 80280, Note_on_c, 7, 79, 127
9, 80400, Note_off_c, 7, 79, 64
9, 80400, Note_on_c, 7, 81, 127
9, 80520, Note_off_c, 7, 81, 64
9, 80520, Note_on_c, 7, 82, 127
9, 80640, Note_off_c, 7, 82, 64
9, 80640, Note_on_c, 7, 84, 127
9, 80880, Note_off_c, 7, 84, 64
9, 82080, Note_on_c, 7, 77, 102
9, 82200, Note_off_c, 7, 77, 64
9, 82200, Note_on_c, 7, 79, 102
9, 82320, Note_off_c, 7, 79, 64
9, 82320, Note_on_c, 7, 81, 102
9, 82440, Note_off_c, 7, 81, 64
9, 82440, Note_on_c, 7, 82, 102
9, 82560, Note_off_c, 7, 82, 64
9, 82560, Note_on_c, 7, 84, 102
9, 82800, Note_off_c, 7, 84, 64
9, 83280, Note_on_c, 7, 81, 102
9, 83400, Note_off_c, 7, 81, 64
9, 83400, Note_on_c, 7, 82, 102
9, 83520, Note_off_c, 7, 82, 64
9, 83520, Note_on_c, 7, 84, 102
9, 83760, Note_off_c, 7, 84, 64
9, 84240, Note_on_c, 7, 81, 102
9, 84360, Note_off_c, 7, 81, 64
9, 84360, Note_on_c, 7, 82, 102
9, 84480, Note_off_c, 7, 82, 64
9, 84480, Note_on_c, 7, 84, 102
9, 84720, Note_off_c, 7, 84, 64
9, 85200, Note_on_c, 7, 81, 102
9, 85320, Note_off_c, 7, 81, 64
9, 85320, Note_on_c, 7, 82, 102
9, 85440, Note_off_c, 7, 82, 64
9, 85440, Note_on_c, 7, 84, 102
9, 85680, Note_off_c, 7, 84, 64
9, 86160, Note_on_c, 7, 81, 102
9, 86240, Note_off_c, 7, 81, 64
9, 86240, Note_on_c, 7, 82, 102
9, 86240, Note_on_c, 7, 82, 102
9, 86320, Note_off_c, 7, 82, 64
9, 86320, Note_off_c, 7, 82, 64
9, 86320, Note_on_c, 7, 84, 102
9, 86320, Note_on_c, 7, 82, 102
9, 86400, Note_off_c, 7, 82, 64
9, 86400, Note_off_c, 7, 84, 64
9, 86400, Note_on_c, 7, 86, 102
9, 86592, Note_off_c, 7, 86, 64
9, 86880, Note_on_c, 7, 82, 64
9, 87072, Note_off_c, 7, 82, 64
9, 87360, Note_on_c, 7, 77, 64
9, 87552, Note_off_c, 7, 77, 64
9, 87840, Note_on_c, 7, 82, 64
9, 88032, Note_off_c, 7, 82, 64
9, 88320, Note_on_c, 7, 74, 64
9, 88512, Note_off_c, 7, 74, 64
9, 88800, Note_on_c, 7, 77, 64
9, 88992, Note_off_c, 7, 77, 64
9, 89280, Note_on_c, 7, 70, 64
9, 89472, Note_off_c, 7, 70, 64
9, 89760, Note_on_c, 7, 74, 64
9, 89952, Note_off_c, 7, 74, 64
9, 90240, Note_on_c, 7, 67, 64
9, 90432, Note_off_c, 7, 67, 64
9, 90720, Note_on_c, 7, 75, 64
9, 90912, Note_off_c, 7, 75, 64
9, 91200, Note_on_c, 7, 72, 64
9, 91392, Note_off_c, 7, 72, 64
9, 91680, Note_on_c, 7, 70, 64
9, 91872, Note_off_c, 7, 70, 64
9, 92160, Note_on_c, 7, 69, 64
9, 92352, Note_off_c, 7, 69, 64
9, 92640, Note_on_c, 7, 77, 64
9, 92832, Note_off_c, 7, 77, 64
9, 93120, Note_on_c, 7, 75, 64
9, 93312, Note_off_c, 7, 75, 64
9, 93600, Note_on_c, 7, 72, 64
9, 93792, Note_off_c, 7, 72, 64
9, 94080, Note_on_c, 7, 70, 64
9, 94272, Note_off_c, 7, 70, 64
9, 101280, Note_on_c, 7, 77, 102
9, 101400, Note_off_c, 7, 77, 64
9, 101400, Note_on_c, 7, 79, 102
9, 101520, Note_off_c, 7, 79, 64
9, 101520, Note_on_c, 7, 81, 102
9, 101640, Note_off_c, 7, 81, 64
9, 101640, Note_on_c, 7, 82, 102
9, 101760, Note_off_c, 7, 82, 64
9, 101760, Note_on_c, 7, 84, 102
9, 102000, Note_off_c, 7, 84, 64
9, 103200, Note_on_c, 7, 77, 102
9, 103320, Note_off_c, 7, 77, 64
9, 103320, Note_on_c, 7, 79, 102
9, 103440, Note_off_c, 7, 79, 64
9, 103440, Note_on_c, 7, 81, 102
9, 103560, Note_off_c, 7, 81, 64
9, 103560, Note_on_c, 7, 82, 102
9, 103680, Note_off_c, 7, 82, 64
9, 103680, Note_on_c, 7, 84, 102
9, 103920, Note_off_c, 7, 84, 64
9, 104400, Note_on_c, 7, 81, 102
9, 104520, Note_off_c, 7, 81, 64
9, 104520, Note_on_c, 7, 82, 102
9, 104640, Note_off_c, 7, 82, 64
9, 104640, Note_on_c, 7, 84, 102
9, 104880, Note_off_c, 7, 84, 64
9, 105360, Note_on_c, 7, 81, 102
9, 105440, Note_off_c, 7, 81, 64
9, 105440, Note_on_c, 7, 82, 102
9, 105440, Note_on_c, 7, 82, 102
9, 105520, Note_off_c, 7, 82, 64
9, 105520, Note_off_c, 7, 82, 64
9, 105520, Note_on_c, 7, 84, 102
9, 105520, Note_on_c, 7, 82, 102
9, 105600, Note_off_c, 7, 82, 64
9, 105600, Note_off_c, 7, 84, 64
9, 105600, Note_on_c, 7, 62, 102
9, 105600, Note_on_c, 7, 86, 102
9, 105600, Note_on_c, 7, 74, 102
9, 105792, Note_off_c, 7, 74, 64
9, 105792, Note_off_c, 7, 86, 64
9, 105792, Note_off_c, 7, 62, 64
9, 106080, Note_on_c, 7, 82, 96
9, 106272, Note_off_c, 7, 82, 64
9, 106560, Note_on_c, 7, 77, 96
9, 106752, Note_off_c, 7, 77, 64
9, 107040, Note_on_c, 7, 82, 96
9, 107232, Note_off_c, 7, 82, 64
9, 107520, Note_on_c, 7, 74, 96
9, 107712, Note_off_c, 7, 74, 64
9, 108000, Note_on_c, 7, 77, 96
9, 108192, Note_off_c, 7, 77, 64
9, 108480, Note_on_c, 7, 70, 96
9, 108672, Note_off_c, 7, 70, 64
9, 108960, Note_on_c, 7, 74, 96
9, 109152, Note_off_c, 7, 74, 64
9, 109440, Note_on_c, 7, 67, 96
9, 109632, Note_off_c, 7, 67, 64
9, 109920, Note_on_c, 7, 75, 96
9, 110112, Note_off_c, 7, 75, 64
9, 110400, Note_on_c, 7, 72, 96
9, 110592, Note_off_c, 7, 72, 64
9, 110880, Note_on_c, 7, 70, 96
9, 111072, Note_off_c, 7, 70, 64
9, 111360, Note_on_c, 7, 69, 96
9, 111552, Note_off_c, 7, 69, 64
9, 111840, Note_on_c, 7, 77, 96
9, 112032, Note_off_c, 7, 77, 64
9, 112320, Note_on_c, 7, 75, 96
9, 112512, Note_off_c, 7, 75, 64
9, 112800, Note_on_c, 7, 72, 96
9, 112992, Note_off_c, 7, 72, 64
9, 113280, Note_on_c, 7, 70, 96
9, 113472, Note_off_c, 7, 70, 64
9, 113760, Note_on_c, 7, 79, 96
9, 113952, Note_off_c, 7, 79, 64
9, 114000, Note_on_c, 7, 79, 96
9, 114192, Note_off_c, 7, 79, 64
9, 114240, Note_on_c, 7, 77, 96
9, 114432, Note_off_c, 7, 77, 64
9, 114480, Note_on_c, 7, 77, 96
9, 114672, Note_off_c, 7, 77, 64
9, 114720, Note_on_c, 7, 75, 96
9, 114912, Note_off_c, 7, 75, 64
9, 114960, Note_on_c, 7, 75, 96
9, 115152, Note_off_c, 7, 75, 64
9, 115200, Note_on_c, 7, 74, 96
9, 115392, Note_off_c, 7, 74, 64
9, 115440, Note_on_c, 7, 74, 96
9, 115632, Note_off_c, 7, 74, 64
9, 115680, Note_on_c, 7, 72, 96
9, 115872, Note_off_c, 7, 72, 64
9, 115920, Note_on_c, 7, 72, 96
9, 116112, Note_off_c, 7, 72, 64
9, 116160, Note_on_c, 7, 70, 96
9, 116352, Note_off_c, 7, 70, 64
9, 116400, Note_on_c, 7, 70, 96
9, 116592, Note_off_c, 7, 70, 64
9, 116640, Note_on_c, 7, 72, 96
9, 116832, Note_off_c, 7, 72, 64
9, 116880, Note_on_c, 7, 72, 96
9, 117072, Note_off_c, 7, 72, 64
9, 117120, Note_on_c, 7, 70, 102
9, 119280, Note_off_c, 7, 70, 64
9, 119280, Note_on_c, 7, 72, 102
9, 119520, Note_off_c, 7, 72, 64
9, 119520, Note_on_c, 7, 74, 102
9, 119760, Note_off_c, 7, 74, 64
9, 119760, Note_on_c, 7, 75, 102
9, 120000, Note_off_c, 7, 75, 64
9, 120000, Note_on_c, 7, 77, 102
9, 120240, Note_off_c, 7, 77, 64
9, 120240, Note_on_c, 7, 79, 102
9, 120480, Note_off_c, 7, 79, 64
9, 120480, Note_on_c, 7, 81, 102
9, 120720, Note_off_c, 7, 81, 64
9, 120720, Note_on_c, 7, 82, 102
9, 120960, Note_off_c, 7, 82, 64
9, 120960, Note_on_c, 7, 81, 102
9, 120960, Note_on_c, 7, 69, 102
9, 121320, Note_off_c, 7, 69, 64
9, 121320, Note_off_c, 7, 81, 64
9, 122880, Note_on_c, 7, 70, 102
9, 122880, Note_on_c, 7, 82, 102
9, 123240, Note_off_c, 7, 82, 64
9, 123240, Note_off_c, 7, 70, 64
9, 124800, Note_on_c, 7, 75, 102
9, 124800, Note_on_c, 7, 67, 102
9, 124800, Note_on_c, 7, 84, 102
9, 125160, Note_off_c, 7, 84, 64
9, 125160, Note_off_c, 7, 67, 64
9, 125160, Note_off_c, 7, 75, 64
9, 126720, Note_on_c, 7, 72, 102
9, 126720, Note_on_c, 7, 65, 102
9, 126720, Note_on_c, 7, 81, 102
9, 127080, Note_off_c, 7, 81, 64
9, 127080, Note_off_c, 7, 65, 64
9, 127080, Note_off_c, 7, 72, 64
9, 128640, Note_on_c, 7, 58, 45
9, 130944, Note_off_c, 7, 58, 64
9, 131040, Note_on_c, 7, 70, 45
9, 131280, Note_off_c, 7, 70, 64
9, 131280, Note_on_c, 7, 69, 45
9, 131520, Note_off_c, 7, 69, 64
9, 131520, Note_on_c, 7, 70, 45
9, 131760, Note_off_c, 7, 70, 64
9, 131760, Note_on_c, 7, 69, 45
9, 132000, Note_off_c, 7, 69, 64
9, 132000, Note_on_c, 7, 70, 45
9, 132240, Note_off_c, 7, 70, 64
9, 132240, Note_on_c, 7, 69, 45
9, 132480, Note_off_c, 7, 69, 64
9, 132480, Note_on_c, 7, 70, 45
9, 132672, Note_off_c, 7, 70, 64
9, 132960, Note_on_c, 7, 70, 45
9, 133200, Note_off_c, 7, 70, 64
9, 133200, Note_on_c, 7, 69, 45
9, 133440, Note_off_c, 7, 69, 64
9, 133440, Note_on_c, 7, 70, 45
9, 133680, Note_off_c, 7, 70, 64
9, 133680, Note_on_c, 7, 69, 45
9, 133920, Note_off_c, 7, 69, 64
9, 133920, Note_on_c, 7, 70, 45
9, 134160, Note_off_c, 7, 70, 64
9, 134160, Note_on_c, 7, 69, 45
9, 134400, Note_off_c, 7, 69, 64
9, 134400, Note_on_c, 7, 70, 45
9, 134592, Note_off_c, 7, 70, 64
9, 134880, Note_on_c, 7, 70, 45
9, 135120, Note_off_c, 7, 70, 64
9, 135120, Note_on_c, 7, 69, 45
9, 135360, Note_off_c, 7, 69, 64
9, 135360, Note_on_c, 7, 70, 45
9, 135600, Note_off_c, 7, 70, 64
9, 135600, Note_on_c, 7, 69, 45
9, 135840, Note_off_c, 7, 69, 64
9, 135840, Note_on_c, 7, 70, 45
9, 136080, Note_off_c, 7, 70, 64
9, 136080, Note_on_c, 7, 71, 45
9, 136320, Note_off_c, 7, 71, 64
9, 136320, Note_on_c, 7, 72, 45
9, 138624, Note_off_c, 7, 72, 64
9, 138720, Note_on_c, 7, 72, 45
9, 138960, Note_off_c, 7, 72, 64
9, 138960, Note_on_c, 7, 71, 45
9, 139200, Note_off_c, 7, 71, 64
9, 139200, Note_on_c, 7, 72, 45
9, 139440, Note_off_c, 7, 72, 64
9, 139440, Note_on_c, 7, 71, 45
9, 139680, Note_off_c, 7, 71, 64
9, 139680, Note_on_c, 7, 72, 45
9, 139920, Note_off_c, 7, 72, 64
9, 139920, Note_on_c, 7, 71, 45
9, 140160, Note_off_c, 7, 71, 64
9, 140160, Note_on_c, 7, 72, 45
9, 140352, Note_off_c, 7, 72, 64
9, 140640, Note_on_c, 7, 72, 45
9, 140880, Note_off_c, 7, 72, 64
9, 140880, Note_on_c, 7, 71, 45
9, 141120, Note_off_c, 7, 71, 64
9, 141120, Note_on_c, 7, 72, 45
9, 141360, Note_off_c, 7, 72, 64
9, 141360, Note_on_c, 7, 71, 45
9, 141600, Note_off_c, 7, 71, 64
9, 141600, Note_on_c, 7, 72, 45
9, 141840, Note_off_c, 7, 72, 64
9, 141840, Note_on_c, 7, 71, 45
9, 142080, Note_off_c, 7, 71, 64
9, 142080, Note_on_c, 7, 72, 56
9, 142272, Note_off_c, 7, 72, 64
9, 142560, Note_on_c, 7, 72, 56
9, 142800, Note_off_c, 7, 72, 64
9, 142800, Note_on_c, 7, 71, 56
9, 143040, Note_off_c, 7, 71, 64
9, 143040, Note_on_c, 7, 72, 56
9, 143280, Note_off_c, 7, 72, 64
9, 143280, Note_on_c, 7, 71, 56
9, 143520, Note_off_c, 7, 71, 64
9, 143520, Note_on_c, 7, 72, 56
9, 143760, Note_off_c, 7, 72, 64
9, 143760, Note_on_c, 7, 73, 56
9, 144000, Note_off_c, 7, 73, 64
9, 144000, Note_on_c, 7, 74, 64
9, 146304, Note_off_c, 7, 74, 64
9, 146400, Note_on_c, 7, 74, 70
9, 146640, Note_off_c, 7, 74, 64
9, 146640, Note_on_c, 7, 73, 70
9, 146880, Note_off_c, 7, 73, 64
9, 146880, Note_on_c, 7, 74, 70
9, 147120, Note_off_c, 7, 74, 64
9, 147120, Note_on_c, 7, 73, 70
9, 147360, Note_off_c, 7, 73, 64
9, 147360, Note_on_c, 7, 74, 70
9, 147600, Note_off_c, 7, 74, 64
9, 147600, Note_on_c, 7, 74, 70
9, 147840, Note_off_c, 7, 74, 64
9, 147840, Note_on_c, 7, 76, 80
9, 150144, Note_off_c, 7, 76, 64
9, 150240, Note_on_c, 7, 79, 88
9, 150480, Note_off_c, 7, 79, 64
9, 150480, Note_on_c, 7, 78, 88
9, 150720, Note_off_c, 7, 78, 64
9, 150720, Note_on_c, 7, 79, 88
9, 150960, Note_off_c, 7, 79, 64
9, 150960, Note_on_c, 7, 78, 88
9, 151200, Note_off_c, 7, 78, 64
9, 151200, Note_on_c, 7, 79, 88
9, 151440, Note_off_c, 7, 79, 64
9, 151440, Note_on_c, 7, 79, 88
9, 151680, Note_off_c, 7, 79, 64
9, 151680, Note_on_c, 7, 81, 51
9, 151680, Note_on_c, 7, 72, 51
9, 151872, Note_off_c, 7, 72, 64
9, 151872, Note_off_c, 7, 81, 64
9, 151920, Note_on_c, 7, 72, 52
9, 151920, Note_on_c, 7, 81, 52
9, 152112, Note_off_c, 7, 81, 64
9, 152112, Note_off_c, 7, 72, 64
9, 152160, Note_on_c, 7, 72, 54
9, 152160, Note_on_c, 7, 81, 54
9, 152352, Note_off_c, 7, 81, 64
9, 152352, Note_off_c, 7, 72, 64
9, 152400, Note_on_c, 7, 72, 55
9, 152400, Note_on_c, 7, 81, 55
9, 152592, Note_off_c, 7, 81, 64
9, 152592, Note_off_c, 7, 72, 64
9, 152640, Note_on_c, 7, 81, 57
9, 152640, Note_on_c, 7, 72, 57
9, 152832, Note_off_c, 7, 72, 64
9, 152832, Note_off_c, 7, 81, 64
9, 152880, Note_on_c, 7, 72, 58
9, 152880, Note_on_c, 7, 81, 58
9, 153072, Note_off_c, 7, 81, 64
9, 153072, Note_off_c, 7, 72, 64
9, 153120, Note_on_c, 7, 81, 59
9, 153120, Note_on_c, 7, 72, 59
9, 153312, Note_off_c, 7, 72, 64
9, 153312, Note_off_c, 7, 81, 64
9, 153360, Note_on_c, 7, 72, 61
9, 153360, Note_on_c, 7, 81, 61
9, 153552, Note_off_c, 7, 81, 64
9, 153552, Note_off_c, 7, 72, 64
9, 153600, Note_on_c, 7, 81, 68
9, 153600, Note_on_c, 7, 72, 68
9, 153792, Note_off_c, 7, 72, 64
9, 153792, Note_off_c, 7, 81, 64
9, 153840, Note_on_c, 7, 72, 70
9, 153840, Note_on_c, 7, 81, 70
9, 154032, Note_off_c, 7, 81, 64
9, 154032, Note_off_c, 7, 72, 64
9, 154080, Note_on_c, 7, 72, 72
9, 154080, Note_on_c, 7, 81, 72
9, 154272, Note_off_c, 7, 81, 64
9, 154272, Note_off_c, 7, 72, 64
9, 154320, Note_on_c, 7, 81, 73
9, 154320, Note_on_c, 7, 72, 73
9, 154512, Note_off_c, 7, 72, 64
9, 154512, Note_off_c, 7, 81, 64
9, 154560, Note_on_c, 7, 72, 75
9, 154560, Note_on_c, 7, 81, 75
9, 154752, Note_off_c, 7, 81, 64
9, 154752, Note_off_c, 7, 72, 64
9, 154800, Note_on_c, 7, 81, 77
9, 154800, Note_on_c, 7, 72, 77
9, 154992, Note_off_c, 7, 72, 64
9, 154992, Note_off_c, 7, 81, 64
9, 155040, Note_on_c, 7, 72, 77
9, 155040, Note_on_c, 7, 81, 77
9, 155232, Note_off_c, 7, 81, 64
9, 155232, Note_off_c, 7, 72, 64
9, 155280, Note_on_c, 7, 72, 79
9, 155280, Note_on_c, 7, 81, 79
9, 155472, Note_off_c, 7, 81, 64
9, 155472, Note_off_c, 7, 72, 64
9, 155520, Note_on_c, 7, 81, 96
9, 155520, Note_on_c, 7, 72, 96
9, 155712, Note_off_c, 7, 72, 64
9, 155712, Note_off_c, 7, 81, 64
9, 155760, Note_on_c, 7, 81, 98
9, 155760, Note_on_c, 7, 72, 98
9, 155952, Note_off_c, 7, 72, 64
9, 155952, Note_off_c, 7, 81, 64
9, 156000, Note_on_c, 7, 72, 100
9, 156000, Note_on_c, 7, 81, 100
9, 156192, Note_off_c, 7, 81, 64
9, 156192, Note_off_c, 7, 72, 64
9, 156240, Note_on_c, 7, 81, 101
9, 156240, Note_on_c, 7, 72, 101
9, 156432, Note_off_c, 7, 72, 64
9, 156432, Note_off_c, 7, 81, 64
9, 156480, Note_on_c, 7, 81, 103
9, 156480, Note_on_c, 7, 72, 103
9, 156672, Note_off_c, 7, 72, 64
9, 156672, Note_off_c, 7, 81, 64
9, 156720, Note_on_c, 7, 72, 105
9, 156720, Note_on_c, 7, 81, 105
9, 156912, Note_off_c, 7, 81, 64
9, 156912, Note_off_c, 7, 72, 64
9, 156960, Note_on_c, 7, 81, 107
9, 156960, Note_on_c, 7, 72, 107
9, 157152, Note_off_c, 7, 72, 64
9, 157152, Note_off_c, 7, 81, 64
9, 157200, Note_on_c, 7, 72, 108
9, 157200, Note_on_c, 7, 81, 108
9, 157392, Note_off_c, 7, 81, 64
9, 157392, Note_off_c, 7, 72, 64
9, 157440, Note_on_c, 7, 81, 111
9, 157440, Note_on_c, 7, 72, 111
9, 157632, Note_off_c, 7, 72, 64
9, 157632, Note_off_c, 7, 81, 64
9, 157680, Note_on_c, 7, 72, 112
9, 157680, Note_on_c, 7, 81, 112
9, 157872, Note_off_c, 7, 81, 64
9, 157872, Note_off_c, 7, 72, 64
9, 157920, Note_on_c, 7, 72, 114
9, 157920, Note_on_c, 7, 81, 114
9, 158112, Note_off_c, 7, 81, 64
9, 158112, Note_off_c, 7, 72, 64
9, 158160, Note_on_c, 7, 81, 116
9, 158160, Note_on_c, 7, 72, 116
9, 158352, Note_off_c, 7, 72, 64
9, 158352, Note_off_c, 7, 81, 64
9, 158400, Note_on_c, 7, 81, 117
9, 158400, Note_on_c, 7, 72, 117
9, 158592, Note_off_c, 7, 72, 64
9, 158592, Note_off_c, 7, 81, 64
9, 158640, Note_on_c, 7, 72, 120
9, 158640, Note_on_c, 7, 81, 120
9, 158832, Note_off_c, 7, 81, 64
9, 158832, Note_off_c, 7, 72, 64
9, 158880, Note_on_c, 7, 72, 122
9, 158880, Note_on_c, 7, 81, 122
9, 159072, Note_off_c, 7, 81, 64
9, 159072, Note_off_c, 7, 72, 64
9, 159120, Note_on_c, 7, 72, 124
9, 159120, Note_on_c, 7, 81, 124
9, 159312, Note_off_c, 7, 81, 64
9, 159312, Note_off_c, 7, 72, 64
9, 159360, Note_on_c, 7, 82, 127
9, 162816, Note_off_c, 7, 82, 64
9, 163200, Note_on_c, 7, 87, 127
9, 164736, Note_off_c, 7, 87, 64
9, 165120, Note_on_c, 7, 89, 127
9, 166640, Note_off_c, 7, 89, 64
9, 166640, Note_on_c, 7, 77, 127
9, 166720, Note_off_c, 7, 77, 64
9, 166720, Note_on_c, 7, 79, 127
9, 166800, Note_off_c, 7, 79, 64
9, 166800, Note_on_c, 7, 81, 127
9, 166864, Note_off_c, 7, 81, 64
9, 166880, Note_on_c, 7, 82, 127
9, 166944, Note_off_c, 7, 82, 64
9, 166960, Note_on_c, 7, 84, 127
9, 167024, Note_off_c, 7, 84, 64
9, 167040, Note_on_c, 7, 86, 127
9, 167280, Note_off_c, 7, 86, 64
9, 167280, Note_on_c, 7, 86, 127
9, 167280, Note_on_c, 7, 86, 127
9, 167520, Note_off_c, 7, 86, 64
9, 167520, Note_off_c, 7, 86, 64
9, 167520, Note_on_c, 7, 82, 127
9, 167760, Note_off_c, 7, 82, 64
9, 167760, Note_on_c, 7, 82, 127
9, 168000, Note_off_c, 7, 82, 64
9, 168000, Note_on_c, 7, 77, 127
9, 168240, Note_off_c, 7, 77, 64
9, 168240, Note_on_c, 7, 77, 127
9, 168480, Note_off_c, 7, 77, 64
9, 168480, Note_on_c, 7, 82, 127
9, 168720, Note_off_c, 7, 82, 64
9, 168720, Note_on_c, 7, 82, 127
9, 168960, Note_off_c, 7, 82, 64
9, 168960, Note_on_c, 7, 74, 127
9, 169200, Note_off_c, 7, 74, 64
9, 169200, Note_on_c, 7, 74, 127
9, 169440, Note_off_c, 7, 74, 64
9, 169440, Note_on_c, 7, 77, 127
9, 169680, Note_off_c, 7, 77, 64
9, 169680, Note_on_c, 7, 77, 127
9, 169920, Note_off_c, 7, 77, 64
9, 169920, Note_on_c, 7, 70, 127
9, 170160, Note_off_c, 7, 70, 64
9, 170160, Note_on_c, 7, 70, 127
9, 170400, Note_off_c, 7, 70, 64
9, 170400, Note_on_c, 7, 74, 127
9, 170640, Note_off_c, 7, 74, 64
9, 170640, Note_on_c, 7, 74, 127
9, 170880, Note_off_c, 7, 74, 64
9, 170880, Note_on_c, 7, 67, 127
9, 171120, Note_off_c, 7, 67, 64
9, 171120, Note_on_c, 7, 67, 127
9, 171360, Note_off_c, 7, 67, 64
9, 171360, Note_on_c, 7, 75, 127
9, 171600, Note_off_c, 7, 75, 64
9, 171600, Note_on_c, 7, 75, 127
9, 171840, Note_off_c, 7, 75, 64
9, 171840, Note_on_c, 7, 72, 127
9, 172080, Note_off_c, 7, 72, 64
9, 172080, Note_on_c, 7, 72, 127
9, 172320, Note_off_c, 7, 72, 64
9, 172320, Note_on_c, 7, 70, 127
9, 172560, Note_off_c, 7, 70, 64
9, 172560, Note_on_c, 7, 70, 127
9, 172800, Note_off_c, 7, 70, 64
9, 172800, Note_on_c, 7, 69, 127
9, 173040, Note_off_c, 7, 69, 64
9, 173040, Note_on_c, 7, 69, 127
9, 173280, Note_off_c, 7, 69, 64
9, 173280, Note_on_c, 7, 77, 127
9, 173520, Note_off_c, 7, 77, 64
9, 173520, Note_on_c, 7, 77, 127
9, 173760, Note_off_c, 7, 77, 64
9, 173760, Note_on_c, 7, 75, 127
9, 174000, Note_off_c, 7, 75, 64
9, 174000, Note_on_c, 7, 75, 127
9, 174240, Note_off_c, 7, 75, 64
9, 174240, Note_on_c, 7, 72, 127
9, 174480, Note_off_c, 7, 72, 64
9, 174480, Note_on_c, 7, 72, 127
9, 174720, Note_off_c, 7, 72, 64
9, 174720, Note_on_c, 7, 70, 127
9, 174960, Note_off_c, 7, 70, 64
9, 174960, Note_on_c, 7, 70, 127
9, 174960, Note_on_c, 7, 70, 127
9, 175200, Note_off_c, 7, 70, 64
9, 175200, Note_off_c, 7, 70, 64
9, 175200, Note_on_c, 7, 79, 127
9, 175440, Note_off_c, 7, 79, 64
9, 175440, Note_on_c, 7, 79, 127
9, 175680, Note_off_c, 7, 79, 64
9, 175680, Note_on_c, 7, 76, 127
9, 175920, Note_off_c, 7, 76, 64
9, 175920, Note_on_c, 7, 76, 127
9, 176160, Note_off_c, 7, 76, 64
9, 176160, Note_on_c, 7, 74, 127
9, 176400, Note_off_c, 7, 74, 64
9, 176400, Note_on_c, 7, 74, 127
9, 176640, Note_off_c, 7, 74, 64
9, 176640, Note_on_c, 7, 73, 127
9, 176880, Note_off_c, 7, 73, 64
9, 176880, Note_on_c, 7, 73, 127
9, 177120, Note_off_c, 7, 73, 64
9, 177120, Note_on_c, 7, 81, 127
9, 177360, Note_off_c, 7, 81, 64
9, 177360, Note_on_c, 7, 81, 127
9, 177600, Note_off_c, 7, 81, 64
9, 177600, Note_on_c, 7, 79, 127
9, 177840, Note_off_c, 7, 79, 64
9, 177840, Note_on_c, 7, 79, 127
9, 178080, Note_off_c, 7, 79, 64
9, 178080, Note_on_c, 7, 76, 127
9, 178320, Note_off_c, 7, 76, 64
9, 178320, Note_on_c, 7, 76, 127
9, 178560, Note_off_c, 7, 76, 64
9, 178560, Note_on_c, 7, 74, 127
9, 178800, Note_off_c, 7, 74, 64
9, 178800, Note_on_c, 7, 74, 127
9, 178800, Note_on_c, 7, 74, 127
9, 179040, Note_off_c, 7, 74, 64
9, 179040, Note_off_c, 7, 74, 64
9, 179040, Note_on_c, 7, 83, 127
9, 179280, Note_off_c, 7, 83, 64
9, 179280, Note_on_c, 7, 83, 127
9, 179520, Note_off_c, 7, 83, 64
9, 179520, Note_on_c, 7, 80, 127
9, 179760, Note_off_c, 7, 80, 64
9, 179760, Note_on_c, 7, 80, 127
9, 180000, Note_off_c, 7, 80, 64
9, 180000, Note_on_c, 7, 77, 127
9, 180240, Note_off_c, 7, 77, 64
9, 180240, Note_on_c, 7, 77, 127
9, 180480, Note_off_c, 7, 77, 64
9, 180480, Note_on_c, 7, 76, 127
9, 180720, Note_off_c, 7, 76, 64
9, 180720, Note_on_c, 7, 76, 127
9, 180960, Note_off_c, 7, 76, 64
9, 180960, Note_on_c, 7, 84, 127
9, 181200, Note_off_c, 7, 84, 64
9, 181200, Note_on_c, 7, 84, 127
9, 181440, Note_off_c, 7, 84, 64
9, 181440, Note_on_c, 7, 82, 127
9, 181680, Note_off_c, 7, 82, 64
9, 181680, Note_on_c, 7, 82, 127
9, 181920, Note_off_c, 7, 82, 64
9, 181920, Note_on_c, 7, 79, 127
9, 182160, Note_off_c, 7, 79, 64
9, 182160, Note_on_c, 7, 79, 127
9, 182400, Note_off_c, 7, 79, 64
9, 182400, Note_on_c, 7, 76, 127
9, 182640, Note_off_c, 7, 76, 64
9, 182640, Note_on_c, 7, 76, 127
9, 182880, Note_off_c, 7, 76, 64
9, 182880, Note_on_c, 7, 72, 127
9, 183120, Note_off_c, 7, 72, 64
9, 183120, Note_on_c, 7, 72, 127
9, 183360, Note_off_c, 7, 72, 64
9, 183360, Note_on_c, 7, 70, 127
9, 183600, Note_off_c, 7, 70, 64
9, 183600, Note_on_c, 7, 70, 127
9, 183840, Note_off_c, 7, 70, 64
9, 183840, Note_on_c, 7, 67, 127
9, 184080, Note_off_c, 7, 67, 64
9, 184080, Note_on_c, 7, 67, 127
9, 184320, Note_off_c, 7, 67, 64
9, 184320, Note_on_c, 7, 68, 127
9, 184560, Note_off_c, 7, 68, 64
9, 184560, Note_on_c, 7, 68, 127
9, 184800, Note_off_c, 7, 68, 64
9, 184800, Note_on_c, 7, 65, 127
9, 185040, Note_off_c, 7, 65, 64
9, 185040, Note_on_c, 7, 65, 127
9, 185280, Note_off_c, 7, 65, 64
9, 185280, Note_on_c, 7, 63, 127
9, 185520, Note_off_c, 7, 63, 64
9, 185520, Note_on_c, 7, 63, 127
9, 185760, Note_off_c, 7, 63, 64
9, 185760, Note_on_c, 7, 61, 127
9, 186000, Note_off_c, 7, 61, 64
9, 186000, Note_on_c, 7, 61, 127
9, 186240, Note_off_c, 7, 61, 64
9, 186240, Note_on_c, 7, 60, 127
9, 186624, Note_off_c, 7, 60, 64
9, 192480, Note_on_c, 7, 83, 125
9, 193440, Note_off_c, 7, 83, 64
9, 193440, Note_on_c, 7, 84, 96
9, 193776, Note_off_c, 7, 84, 64
9, 193920, Note_on_c, 7, 84, 96
9, 194256, Note_off_c, 7, 84, 64
9, 194400, Note_on_c, 7, 79, 96
9, 195168, Note_off_c, 7, 79, 64
9, 195360, Note_on_c, 7, 80, 96
9, 196224, Note_off_c, 7, 80, 64
9, 196320, Note_on_c, 7, 82, 96
9, 197088, Note_off_c, 7, 82, 64
9, 197280, Note_on_c, 7, 77, 96
9, 198144, Note_off_c, 7, 77, 64
9, 198240, Note_on_c, 7, 79, 96
9, 199008, Note_off_c, 7, 79, 64
9, 199200, Note_on_c, 7, 80, 96
9, 200064, Note_off_c, 7, 80, 64
9, 200160, Note_on_c, 7, 83, 125
9, 201120, Note_off_c, 7, 83, 64
9, 201120, Note_on_c, 7, 84, 96
9, 201504, Note_off_c, 7, 84, 64
9, 201600, Note_on_c, 7, 84, 80
9, 206400, Note_off_c, 7, 84, 64
9, 206400, Note_on_c, 7, 72, 60
9, 208320, Note_off_c, 7, 72, 64
9, 208320, Note_on_c, 7, 64, 45
9, 209280, Note_off_c, 7, 64, 64
9, 209280, Note_on_c, 7, 65, 34
9, 216960, Note_off_c, 7, 65, 64
9, 216960, Note_on_c, 7, 65, 34
9, 220800, Note_off_c, 7, 65, 64
9, 220800, Note_on_c, 7, 64, 42
9, 220992, Note_off_c, 7, 64, 64
9, 221280, Note_on_c, 7, 61, 42
9, 221472, Note_off_c, 7, 61, 64
9, 221760, Note_on_c, 7, 64, 42
9, 221952, Note_off_c, 7, 64, 64
9, 223200, Note_on_c, 7, 62, 42
9, 223392, Note_off_c, 7, 62, 64
9, 223680, Note_on_c, 7, 65, 42
9, 223872, Note_off_c, 7, 65, 64
9, 225120, Note_on_c, 7, 64, 42
9, 225312, Note_off_c, 7, 64, 64
9, 225600, Note_on_c, 7, 67, 42
9, 225792, Note_off_c, 7, 67, 64
9, 227040, Note_on_c, 7, 62, 42
9, 227232, Note_off_c, 7, 62, 64
9, 227520, Note_on_c, 7, 65, 42
9, 227712, Note_off_c, 7, 65, 64
9, 228480, Note_on_c, 7, 81, 40
9, 228960, Note_off_c, 7, 81, 64
9, 228960, Note_on_c, 7, 80, 40
9, 229440, Note_off_c, 7, 80, 64
9, 229440, Note_on_c, 7, 81, 40
9, 229920, Note_off_c, 7, 81, 64
9, 229920, Note_on_c, 7, 79, 40
9, 230400, Note_off_c, 7, 79, 64
9, 230400, Note_on_c, 7, 77, 40
9, 230880, Note_off_c, 7, 77, 64
9, 230880, Note_on_c, 7, 76, 40
9, 231360, Note_off_c, 7, 76, 64
9, 231360, Note_on_c, 7, 77, 40
9, 231840, Note_off_c, 7, 77, 64
9, 231840, Note_on_c, 7, 74, 40
9, 232320, Note_off_c, 7, 74, 64
9, 232320, Note_on_c, 7, 73, 40
9, 232800, Note_off_c, 7, 73, 64
9, 232800, Note_on_c, 7, 71, 40
9, 233280, Note_off_c, 7, 71, 64
9, 233280, Note_on_c, 7, 73, 40
9, 233760, Note_off_c, 7, 73, 64
9, 233760, Note_on_c, 7, 76, 40
9, 234045, Note_off_c, 7, 76, 64
9, 234120, Note_on_c, 7, 76, 40
9, 234240, Note_off_c, 7, 76, 64
9, 234240, Note_on_c, 7, 74, 40
9, 234720, Note_off_c, 7, 74, 64
9, 234720, Note_on_c, 7, 73, 40
9, 235200, Note_off_c, 7, 73, 64
9, 235200, Note_on_c, 7, 74, 40
9, 235680, Note_off_c, 7, 74, 64
9, 235680, Note_on_c, 7, 70, 40
9, 236160, Note_off_c, 7, 70, 64
9, 236160, Note_on_c, 7, 69, 32
9, 236640, Note_off_c, 7, 69, 64
9, 237120, Note_on_c, 7, 70, 32
9, 237600, Note_off_c, 7, 70, 64
9, 238080, Note_on_c, 7, 67, 32
9, 238560, Note_off_c, 7, 67, 64
9, 239040, Note_on_c, 7, 71, 32
9, 239520, Note_off_c, 7, 71, 64
9, 240000, Note_on_c, 7, 72, 32
9, 240480, Note_off_c, 7, 72, 64
9, 240960, Note_on_c, 7, 69, 32
9, 241440, Note_off_c, 7, 69, 64
9, 241920, Note_on_c, 7, 72, 31
9, 242400, Note_off_c, 7, 72, 64
9, 242880, Note_on_c, 7, 74, 36
9, 243360, Note_off_c, 7, 74, 64
9, 243840, Note_on_c, 7, 70, 40
9, 244320, Note_off_c, 7, 70, 64
9, 244800, Note_on_c, 7, 74, 44
9, 245280, Note_off_c, 7, 74, 64
9, 245760, Note_on_c, 7, 76, 49
9, 246240, Note_off_c, 7, 76, 64
9, 246720, Note_on_c, 7, 72, 53
9, 247200, Note_off_c, 7, 72, 64
9, 247680, Note_on_c, 7, 76, 57
9, 248160, Note_off_c, 7, 76, 64
9, 248640, Note_on_c, 7, 77, 61
9, 249120, Note_off_c, 7, 77, 64
9, 249600, Note_on_c, 7, 74, 66
9, 250080, Note_off_c, 7, 74, 64
9, 250560, Note_on_c, 7, 78, 70
9, 251040, Note_off_c, 7, 78, 64
9, 251520, Note_on_c, 7, 79, 74
9, 252000, Note_off_c, 7, 79, 64
9, 252480, Note_on_c, 7, 76, 79
9, 252960, Note_off_c, 7, 76, 64
9, 253440, Note_on_c, 7, 79, 83
9, 253920, Note_off_c, 7, 79, 64
9, 254400, Note_on_c, 7, 81, 87
9, 254880, Note_off_c, 7, 81, 64
9, 255360, Note_on_c, 7, 82, 92
9, 255840, Note_off_c, 7, 82, 64
9, 256320, Note_on_c, 7, 83, 96
9, 256800, Note_off_c, 7, 83, 64
9, 257280, Note_on_c, 7, 84, 92
9, 257760, Note_off_c, 7, 84, 64
9, 258240, Note_on_c, 7, 84, 96
9, 258720, Note_off_c, 7, 84, 64
9, 259200, Note_on_c, 7, 84, 92
9, 259680, Note_off_c, 7, 84, 64
9, 260160, Note_on_c, 7, 84, 96
9, 260640, Note_off_c, 7, 84, 64
9, 261120, Note_on_c, 7, 84, 92
9, 261600, Note_off_c, 7, 84, 64
9, 262080, Note_on_c, 7, 84, 96
9, 262560, Note_off_c, 7, 84, 64
9, 263040, Note_on_c, 7, 84, 80
9, 264480, Note_off_c, 7, 84, 64
9, 264480, Note_on_c, 7, 81, 80
9, 264768, Note_off_c, 7, 81, 64
9, 264960, Note_on_c, 7, 86, 80
9, 266400, Note_off_c, 7, 86, 64
9, 266400, Note_on_c, 7, 82, 80
9, 266688, Note_off_c, 7, 82, 64
9, 266880, Note_on_c, 7, 81, 80
9, 268032, Note_off_c, 7, 81, 64
9, 268320, Note_on_c, 7, 81, 80
9, 268608, Note_off_c, 7, 81, 64
9, 268800, Note_on_c, 7, 79, 80
9, 269088, Note_off_c, 7, 79, 64
9, 269280, Note_on_c, 7, 79, 80
9, 269568, Note_off_c, 7, 79, 64
9, 269760, Note_on_c, 7, 79, 80
9, 269880, Note_off_c, 7, 79, 64
9, 269880, Note_on_c, 7, 81, 80
9, 270000, Note_off_c, 7, 81, 64
9, 270000, Note_on_c, 7, 79, 80
9, 270120, Note_off_c, 7, 79, 64
9, 270120, Note_on_c, 7, 81, 80
9, 270240, Note_off_c, 7, 81, 64
9, 270240, Note_on_c, 7, 79, 80
9, 270360, Note_off_c, 7, 79, 64
9, 270360, Note_on_c, 7, 81, 80
9, 270480, Note_off_c, 7, 81, 64
9, 270480, Note_on_c, 7, 77, 80
9, 270600, Note_off_c, 7, 77, 64
9, 270600, Note_on_c, 7, 79, 80
9, 270720, Note_off_c, 7, 79, 64
9, 270720, Note_on_c, 7, 84, 80
9, 271200, Note_off_c, 7, 84, 64
9, 271200, Note_on_c, 7, 81, 80
9, 271440, Note_off_c, 7, 81, 64
9, 271680, Note_on_c, 7, 86, 80
9, 272160, Note_off_c, 7, 86, 64
9, 272160, Note_on_c, 7, 82, 80
9, 272400, Note_off_c, 7, 82, 64
9, 272640, Note_on_c, 7, 81, 80
9, 272928, Note_off_c, 7, 81, 64
9, 273120, Note_on_c, 7, 81, 80
9, 273408, Note_off_c, 7, 81, 64
9, 273600, Note_on_c, 7, 79, 80
9, 273720, Note_off_c, 7, 79, 64
9, 273720, Note_on_c, 7, 81, 80
9, 273840, Note_off_c, 7, 81, 64
9, 273840, Note_on_c, 7, 79, 80
9, 273960, Note_off_c, 7, 79, 64
9, 273960, Note_on_c, 7, 81, 80
9, 274080, Note_off_c, 7, 81, 64
9, 274080, Note_on_c, 7, 79, 80
9, 274200, Note_off_c, 7, 79, 64
9, 274200, Note_on_c, 7, 81, 80
9, 274320, Note_off_c, 7, 81, 64
9, 274320, Note_on_c, 7, 77, 80
9, 274440, Note_off_c, 7, 77, 64
9, 274440, Note_on_c, 7, 79, 80
9, 274560, Note_off_c, 7, 79, 64
9, 274560, Note_on_c, 7, 77, 56
9, 274944, Note_off_c, 7, 77, 64
9, 276480, Note_on_c, 7, 65, 32
9, 277920, Note_off_c, 7, 65, 64
9, 277920, Note_on_c, 7, 67, 32
9, 278400, Note_off_c, 7, 67, 64
9, 278400, Note_on_c, 7, 69, 32
9, 278880, Note_off_c, 7, 69, 64
9, 280320, Note_on_c, 7, 72, 32
9, 281760, Note_off_c, 7, 72, 64
9, 281760, Note_on_c, 7, 74, 32
9, 282240, Note_off_c, 7, 74, 64
9, 282240, Note_on_c, 7, 76, 32
9, 282720, Note_off_c, 7, 76, 64
9, 284160, Note_on_c, 7, 76, 32
9, 285600, Note_off_c, 7, 76, 64
9, 285600, Note_on_c, 7, 74, 32
9, 286080, Note_off_c, 7, 74, 64
9, 286080, Note_on_c, 7, 72, 32
9, 286560, Note_off_c, 7, 72, 64
9, 288000, Note_on_c, 7, 72, 32
9, 289440, Note_off_c, 7, 72, 64
9, 289440, Note_on_c, 7, 82, 104
9, 289632, Note_off_c, 7, 82, 64
9, 289680, Note_on_c, 7, 82, 104
9, 289872, Note_off_c, 7, 82, 64
9, 289920, Note_on_c, 7, 81, 104
9, 290112, Note_off_c, 7, 81, 64
9, 290160, Note_on_c, 7, 81, 104
9, 290352, Note_off_c, 7, 81, 64
9, 290400, Note_on_c, 7, 82, 104
9, 290592, Note_off_c, 7, 82, 64
9, 290640, Note_on_c, 7, 82, 104
9, 290832, Note_off_c, 7, 82, 64
9, 290880, Note_on_c, 7, 84, 104
9, 291072, Note_off_c, 7, 84, 64
9, 291120, Note_on_c, 7, 84, 104
9, 291312, Note_off_c, 7, 84, 64
9, 291360, Note_on_c, 7, 72, 104
9, 291552, Note_off_c, 7, 72, 64
9, 291600, Note_on_c, 7, 72, 104
9, 291792, Note_off_c, 7, 72, 64
9, 291840, Note_on_c, 7, 77, 104
9, 293222, Note_off_c, 7, 77, 64
9, 293280, Note_on_c, 7, 79, 104
9, 293472, Note_off_c, 7, 79, 64
9, 293520, Note_on_c, 7, 79, 104
9, 293712, Note_off_c, 7, 79, 64
9, 293760, Note_on_c, 7, 81, 104
9, 293952, Note_off_c, 7, 81, 64
9, 294000, Note_on_c, 7, 81, 104
9, 294192, Note_off_c, 7, 81, 64
9, 294240, Note_on_c, 7, 77, 104
9, 294432, Note_off_c, 7, 77, 64
9, 294480, Note_on_c, 7, 77, 104
9, 294672, Note_off_c, 7, 77, 64
9, 294720, Note_on_c, 7, 81, 104
9, 294912, Note_off_c, 7, 81, 64
9, 294960, Note_on_c, 7, 81, 104
9, 295152, Note_off_c, 7, 81, 64
9, 295200, Note_on_c, 7, 82, 104
9, 295392, Note_off_c, 7, 82, 64
9, 295440, Note_on_c, 7, 82, 104
9, 295632, Note_off_c, 7, 82, 64
9, 295680, Note_on_c, 7, 84, 104
9, 297062, Note_off_c, 7, 84, 64
9, 297120, Note_on_c, 7, 86, 104
9, 297312, Note_off_c, 7, 86, 64
9, 297360, Note_on_c, 7, 86, 104
9, 297552, Note_off_c, 7, 86, 64
9, 297600, Note_on_c, 7, 88, 104
9, 297792, Note_off_c, 7, 88, 64
9, 297840, Note_on_c, 7, 88, 104
9, 298032, Note_off_c, 7, 88, 64
9, 298080, Note_on_c, 7, 89, 104
9, 298272, Note_off_c, 7, 89, 64
9, 298320, Note_on_c, 7, 89, 104
9, 298512, Note_off_c, 7, 89, 64
9, 298560, Note_on_c, 7, 91, 104
9, 298752, Note_off_c, 7, 91, 64
9, 298800, Note_on_c, 7, 91, 104
9, 298992, Note_off_c, 7, 91, 64
9, 299040, Note_on_c, 7, 89, 104
9, 299232, Note_off_c, 7, 89, 64
9, 299280, Note_on_c, 7, 89, 104
9, 299472, Note_off_c, 7, 89, 64
9, 299520, Note_on_c, 7, 88, 104
9, 300902, Note_off_c, 7, 88, 64
9, 300960, Note_on_c, 7, 86, 104
9, 301152, Note_off_c, 7, 86, 64
9, 301200, Note_on_c, 7, 86, 104
9, 301392, Note_off_c, 7, 86, 64
9, 301440, Note_on_c, 7, 84, 104
9, 301632, Note_off_c, 7, 84, 64
9, 301680, Note_on_c, 7, 84, 104
9, 301872, Note_off_c, 7, 84, 64
9, 301920, Note_on_c, 7, 86, 104
9, 302112, Note_off_c, 7, 86, 64
9, 302160, Note_on_c, 7, 86, 104
9, 302352, Note_off_c, 7, 86, 64
9, 302400, Note_on_c, 7, 82, 104
9, 302592, Note_off_c, 7, 82, 64
9, 302640, Note_on_c, 7, 82, 104
9, 302832, Note_off_c, 7, 82, 64
9, 302880, Note_on_c, 7, 79, 104
9, 303072, Note_off_c, 7, 79, 64
9, 303120, Note_on_c, 7, 79, 104
9, 303312, Note_off_c, 7, 79, 64
9, 303360, Note_on_c, 7, 76, 104
9, 305280, Note_off_c, 7, 76, 64
9, 307680, Note_on_c, 7, 76, 40
9, 308160, Note_off_c, 7, 76, 64
9, 308160, Note_on_c, 7, 79, 40
9, 308640, Note_off_c, 7, 79, 64
9, 308640, Note_on_c, 7, 82, 40
9, 309024, Note_off_c, 7, 82, 64
9, 309120, Note_on_c, 7, 86, 40
9, 309312, Note_off_c, 7, 86, 64
9, 309360, Note_on_c, 7, 86, 40
9, 309552, Note_off_c, 7, 86, 64
9, 309600, Note_on_c, 7, 86, 40
9, 309792, Note_off_c, 7, 86, 64
9, 309840, Note_on_c, 7, 86, 40
9, 310032, Note_off_c, 7, 86, 64
9, 310080, Note_on_c, 7, 86, 40
9, 310272, Note_off_c, 7, 86, 64
9, 310320, Note_on_c, 7, 86, 40
9, 310512, Note_off_c, 7, 86, 64
9, 310560, Note_on_c, 7, 86, 40
9, 310752, Note_off_c, 7, 86, 64
9, 310800, Note_on_c, 7, 86, 40
9, 310992, Note_off_c, 7, 86, 64
9, 311040, Note_on_c, 7, 86, 40
9, 311232, Note_off_c, 7, 86, 64
9, 311280, Note_on_c, 7, 86, 40
9, 311472, Note_off_c, 7, 86, 64
9, 311520, Note_on_c, 7, 86, 40
9, 311712, Note_off_c, 7, 86, 64
9, 311760, Note_on_c, 7, 86, 40
9, 311952, Note_off_c, 7, 86, 64
9, 312000, Note_on_c, 7, 86, 40
9, 312192, Note_off_c, 7, 86, 64
9, 312240, Note_on_c, 7, 86, 40
9, 312432, Note_off_c, 7, 86, 64
9, 312480, Note_on_c, 7, 86, 40
9, 312672, Note_off_c, 7, 86, 64
9, 312720, Note_on_c, 7, 86, 40
9, 312912, Note_off_c, 7, 86, 64
9, 312960, Note_on_c, 7, 69, 127
9, 312960, Note_on_c, 7, 84, 127
9, 313200, Note_off_c, 7, 84, 64
9, 313200, Note_off_c, 7, 69, 64
9, 314400, Note_on_c, 7, 69, 127
9, 314400, Note_on_c, 7, 77, 127
9, 314592, Note_off_c, 7, 77, 64
9, 314592, Note_off_c, 7, 69, 64
9, 314880, Note_on_c, 7, 67, 127
9, 314880, Note_on_c, 7, 77, 127
9, 315120, Note_off_c, 7, 77, 64
9, 315120, Note_off_c, 7, 67, 64
9, 315840, Note_on_c, 7, 76, 127
9, 315840, Note_on_c, 7, 67, 127
9, 316080, Note_off_c, 7, 67, 64
9, 316080, Note_off_c, 7, 76, 64
9, 316800, Note_on_c, 7, 86, 40
9, 316992, Note_off_c, 7, 86, 64
9, 317040, Note_on_c, 7, 86, 40
9, 317232, Note_off_c, 7, 86, 64
9, 317280, Note_on_c, 7, 86, 40
9, 317472, Note_off_c, 7, 86, 64
9, 317520, Note_on_c, 7, 86, 40
9, 317712, Note_off_c, 7, 86, 64
9, 317760, Note_on_c, 7, 86, 40
9, 317952, Note_off_c, 7, 86, 64
9, 318000, Note_on_c, 7, 86, 40
9, 318192, Note_off_c, 7, 86, 64
9, 318240, Note_on_c, 7, 86, 40
9, 318432, Note_off_c, 7, 86, 64
9, 318480, Note_on_c, 7, 86, 40
9, 318672, Note_off_c, 7, 86, 64
9, 318720, Note_on_c, 7, 86, 40
9, 318912, Note_off_c, 7, 86, 64
9, 318960, Note_on_c, 7, 86, 40
9, 319152, Note_off_c, 7, 86, 64
9, 319200, Note_on_c, 7, 86, 40
9, 319392, Note_off_c, 7, 86, 64
9, 319440, Note_on_c, 7, 86, 40
9, 319632, Note_off_c, 7, 86, 64
9, 319680, Note_on_c, 7, 86, 40
9, 319872, Note_off_c, 7, 86, 64
9, 319920, Note_on_c, 7, 86, 40
9, 320112, Note_off_c, 7, 86, 64
9, 320160, Note_on_c, 7, 86, 40
9, 320352, Note_off_c, 7, 86, 64
9, 320400, Note_on_c, 7, 86, 40
9, 320592, Note_off_c, 7, 86, 64
9, 320640, Note_on_c, 7, 84, 127
9, 320640, Note_on_c, 7, 69, 127
9, 320880, Note_off_c, 7, 69, 64
9, 320880, Note_off_c, 7, 84, 64
9, 322080, Note_on_c, 7, 77, 127
9, 322080, Note_on_c, 7, 69, 127
9, 322272, Note_off_c, 7, 69, 64
9, 322272, Note_off_c, 7, 77, 64
9, 322560, Note_on_c, 7, 77, 127
9, 322560, Note_on_c, 7, 67, 127
9, 322800, Note_off_c, 7, 67, 64
9, 322800, Note_off_c, 7, 77, 64
9, 323520, Note_on_c, 7, 67, 127
9, 323520, Note_on_c, 7, 76, 127
9, 323760, Note_off_c, 7, 76, 64
9, 323760, Note_off_c, 7, 67, 64
9, 324480, Note_on_c, 7, 86, 32
9, 324672, Note_off_c, 7, 86, 64
9, 324720, Note_on_c, 7, 86, 33
9, 324912, Note_off_c, 7, 86, 64
9, 324960, Note_on_c, 7, 86, 35
9, 325152, Note_off_c, 7, 86, 64
9, 325200, Note_on_c, 7, 86, 36
9, 325392, Note_off_c, 7, 86, 64
9, 325440, Note_on_c, 7, 86, 38
9, 325632, Note_off_c, 7, 86, 64
9, 325680, Note_on_c, 7, 86, 39
9, 325872, Note_off_c, 7, 86, 64
9, 325920, Note_on_c, 7, 86, 41
9, 326112, Note_off_c, 7, 86, 64
9, 326160, Note_on_c, 7, 86, 42
9, 326352, Note_off_c, 7, 86, 64
9, 326400, Note_on_c, 7, 86, 43
9, 326592, Note_off_c, 7, 86, 64
9, 326640, Note_on_c, 7, 86, 45
9, 326832, Note_off_c, 7, 86, 64
9, 326880, Note_on_c, 7, 86, 46
9, 327072, Note_off_c, 7, 86, 64
9, 327120, Note_on_c, 7, 86, 48
9, 327312, Note_off_c, 7, 86, 64
9, 327360, Note_on_c, 7, 86, 49
9, 327552, Note_off_c, 7, 86, 64
9, 327600, Note_on_c, 7, 86, 50
9, 327792, Note_off_c, 7, 86, 64
9, 327840, Note_on_c, 7, 86, 52
9, 328032, Note_off_c, 7, 86, 64
9, 328080, Note_on_c, 7, 86, 53
9, 328272, Note_off_c, 7, 86, 64
9, 328320, Note_on_c, 7, 86, 75
9, 328512, Note_off_c, 7, 86, 64
9, 328560, Note_on_c, 7, 86, 56
9, 328752, Note_off_c, 7, 86, 64
9, 328800, Note_on_c, 7, 86, 58
9, 328992, Note_off_c, 7, 86, 64
9, 329040, Note_on_c, 7, 86, 59
9, 329232, Note_off_c, 7, 86, 64
9, 329280, Note_on_c, 7, 86, 60
9, 329472, Note_off_c, 7, 86, 64
9, 329520, Note_on_c, 7, 86, 62
9, 329712, Note_off_c, 7, 86, 64
9, 329760, Note_on_c, 7, 86, 63
9, 329952, Note_off_c, 7, 86, 64
9, 330000, Note_on_c, 7, 86, 65
9, 330192, Note_off_c, 7, 86, 64
9, 330240, Note_on_c, 7, 84, 86
9, 330432, Note_off_c, 7, 84, 64
9, 330480, Note_on_c, 7, 84, 67
9, 330672, Note_off_c, 7, 84, 64
9, 330720, Note_on_c, 7, 84, 69
9, 330912, Note_off_c, 7, 84, 64
9, 330960, Note_on_c, 7, 84, 70
9, 331152, Note_off_c, 7, 84, 64
9, 331200, Note_on_c, 7, 84, 72
9, 331392, Note_off_c, 7, 84, 64
9, 331440, Note_on_c, 7, 84, 73
9, 331632, Note_off_c, 7, 84, 64
9, 331680, Note_on_c, 7, 84, 75
9, 331872, Note_off_c, 7, 84, 64
9, 331920, Note_on_c, 7, 84, 76
9, 332112, Note_off_c, 7, 84, 64
9, 332160, Note_on_c, 7, 84, 97
9, 332352, Note_off_c, 7, 84, 64
9, 332400, Note_on_c, 7, 84, 79
9, 332592, Note_off_c, 7, 84, 64
9, 332640, Note_on_c, 7, 84, 80
9, 332832, Note_off_c, 7, 84, 64
9, 332880, Note_on_c, 7, 84, 82
9, 333072, Note_off_c, 7, 84, 64
9, 333120, Note_on_c, 7, 84, 83
9, 333312, Note_off_c, 7, 84, 64
9, 333360, Note_on_c, 7, 84, 84
9, 333552, Note_off_c, 7, 84, 64
9, 333600, Note_on_c, 7, 84, 86
9, 333792, Note_off_c, 7, 84, 64
9, 333840, Note_on_c, 7, 84, 87
9, 334032, Note_off_c, 7, 84, 64
9, 334080, Note_on_c, 7, 84, 109
9, 334272, Note_off_c, 7, 84, 64
9, 334320, Note_on_c, 7, 84, 90
9, 334512, Note_off_c, 7, 84, 64
9, 334560, Note_on_c, 7, 84, 92
9, 334752, Note_off_c, 7, 84, 64
9, 334800, Note_on_c, 7, 84, 93
9, 334992, Note_off_c, 7, 84, 64
9, 335040, Note_on_c, 7, 84, 94
9, 335232, Note_off_c, 7, 84, 64
9, 335280, Note_on_c, 7, 84, 96
9, 335472, Note_off_c, 7, 84, 64
9, 335520, Note_on_c, 7, 84, 97
9, 335712, Note_off_c, 7, 84, 64
9, 335760, Note_on_c, 7, 84, 99
9, 335952, Note_off_c, 7, 84, 64
9, 336000, Note_on_c, 7, 84, 127
9, 336192, Note_off_c, 7, 84, 64
9, 336240, Note_on_c, 7, 89, 127
9, 336432, Note_off_c, 7, 89, 64
9, 336480, Note_on_c, 7, 89, 127
9, 336672, Note_off_c, 7, 89, 64
9, 336720, Note_on_c, 7, 89, 127
9, 336912, Note_off_c, 7, 89, 64
9, 336960, Note_on_c, 7, 89, 127
9, 337152, Note_off_c, 7, 89, 64
9, 337200, Note_on_c, 7, 89, 127
9, 337392, Note_off_c, 7, 89, 64
9, 337440, Note_on_c, 7, 89, 127
9, 337632, Note_off_c, 7, 89, 64
9, 337680, Note_on_c, 7, 89, 127
9, 337872, Note_off_c, 7, 89, 64
9, 337920, Note_on_c, 7, 89, 127
9, 338112, Note_off_c, 7, 89, 64
9, 338160, Note_on_c, 7, 89, 127
9, 338352, Note_off_c, 7, 89, 64
9, 338400, Note_on_c, 7, 89, 127
9, 338592, Note_off_c, 7, 89, 64
9, 338640, Note_on_c, 7, 89, 127
9, 338832, Note_off_c, 7, 89, 64
9, 338880, Note_on_c, 7, 89, 127
9, 339072, Note_off_c, 7, 89, 64
9, 339120, Note_on_c, 7, 89, 127
9, 339312, Note_off_c, 7, 89, 64
9, 339360, Note_on_c, 7, 89, 127
9, 339552, Note_off_c, 7, 89, 64
9, 339600, Note_on_c, 7, 89, 127
9, 339792, Note_off_c, 7, 89, 64
9, 339840, Note_on_c, 7, 89, 127
9, 340032, Note_off_c, 7, 89, 64
9, 340080, Note_on_c, 7, 89, 127
9, 340272, Note_off_c, 7, 89, 64
9, 340320, Note_on_c, 7, 89, 127
9, 340512, Note_off_c, 7, 89, 64
9, 340560, Note_on_c, 7, 89, 127
9, 340752, Note_off_c, 7, 89, 64
9, 340800, Note_on_c, 7, 89, 127
9, 340992, Note_off_c, 7, 89, 64
9, 341040, Note_on_c, 7, 89, 127
9, 341232, Note_off_c, 7, 89, 64
9, 341280, Note_on_c, 7, 89, 127
9, 341472, Note_off_c, 7, 89, 64
9, 341520, Note_on_c, 7, 89, 127
9, 341712, Note_off_c, 7, 89, 64
9, 341760, Note_on_c, 7, 88, 127
9, 341952, Note_off_c, 7, 88, 64
9, 342000, Note_on_c, 7, 88, 127
9, 342192, Note_off_c, 7, 88, 64
9, 342240, Note_on_c, 7, 88, 127
9, 342432, Note_off_c, 7, 88, 64
9, 342480, Note_on_c, 7, 88, 127
9, 342672, Note_off_c, 7, 88, 64
9, 342720, Note_on_c, 7, 88, 127
9, 342912, Note_off_c, 7, 88, 64
9, 342960, Note_on_c, 7, 88, 127
9, 343152, Note_off_c, 7, 88, 64
9, 343200, Note_on_c, 7, 88, 127
9, 343392, Note_off_c, 7, 88, 64
9, 343440, Note_on_c, 7, 88, 127
9, 343632, Note_off_c, 7, 88, 64
9, 343680, Note_on_c, 7, 89, 127
9, 344064, Note_off_c, 7, 89, 64
9, 344160, Note_on_c, 7, 81, 112
9, 345072, Note_off_c, 7, 81, 64
9, 345120, Note_on_c, 7, 82, 112
9, 346056, Note_off_c, 7, 82, 64
9, 346080, Note_on_c, 7, 84, 112
9, 346992, Note_off_c, 7, 84, 64
9, 347040, Note_on_c, 7, 77, 112
9, 347976, Note_off_c, 7, 77, 64
9, 348000, Note_on_c, 7, 79, 112
9, 348912, Note_off_c, 7, 79, 64
9, 348960, Note_on_c, 7, 81, 112
9, 349896, Note_off_c, 7, 81, 64
9, 349920, Note_on_c, 7, 72, 112
9, 350832, Note_off_c, 7, 72, 64
9, 350880, Note_on_c, 7, 70, 112
9, 350880, Note_on_c, 7, 76, 112
9, 350880, Note_on_c, 7, 67, 112
9, 351120, Note_off_c, 7, 67, 64
9, 351120, Note_off_c, 7, 76, 64
9, 351120, Note_off_c, 7, 70, 64
9, 351360, Note_on_c, 7, 69, 112
9, 351360, Note_on_c, 7, 77, 112
9, 351600, Note_off_c, 7, 77, 64
9, 351600, Note_off_c, 7, 69, 64
9, 351840, Note_on_c, 7, 81, 112
9, 352752, Note_off_c, 7, 81, 64
9, 352800, Note_on_c, 7, 82, 112
9, 353736, Note_off_c, 7, 82, 64
9, 353760, Note_on_c, 7, 84, 112
9, 354672, Note_off_c, 7, 84, 64
9, 354720, Note_on_c, 7, 77, 112
9, 355656, Note_off_c, 7, 77, 64
9, 355680, Note_on_c, 7, 79, 112
9, 356592, Note_off_c, 7, 79, 64
9, 356640, Note_on_c, 7, 81, 112
9, 357576, Note_off_c, 7, 81, 64
9, 357600, Note_on_c, 7, 72, 112
9, 358512, Note_off_c, 7, 72, 64
9, 358560, Note_on_c, 7, 70, 112
9, 358560, Note_on_c, 7, 76, 112
9, 358560, Note_on_c, 7, 67, 112
9, 358800, Note_off_c, 7, 67, 64
9, 358800, Note_off_c, 7, 76, 64
9, 358800, Note_off_c, 7, 70, 64
9, 359040, Note_on_c, 7, 77, 112
9, 359280, Note_off_c, 7, 77, 64
9, 359520, Note_on_c, 7, 79, 112
9, 360432, Note_off_c, 7, 79, 64
9, 360480, Note_on_c, 7, 81, 112
9, 361416, Note_off_c, 7, 81, 64
9, 361440, Note_on_c, 7, 72, 112
9, 362352, Note_off_c, 7, 72, 64
9, 362400, Note_on_c, 7, 67, 112
9, 362400, Note_on_c, 7, 76, 112
9, 362400, Note_on_c, 7, 70, 112
9, 362640, Note_off_c, 7, 70, 64
9, 362640, Note_off_c, 7, 76, 64
9, 362640, Note_off_c, 7, 67, 64
9, 362880, Note_on_c, 7, 77, 127
9, 364400, Note_off_c, 7, 77, 64
9, 364400, Note_on_c, 7, 72, 127
9, 364480, Note_off_c, 7, 72, 64
9, 364480, Note_on_c, 7, 74, 127
9, 364560, Note_off_c, 7, 74, 64
9, 364560, Note_on_c, 7, 75, 127
9, 364640, Note_off_c, 7, 75, 64
9, 364640, Note_on_c, 7, 77, 127
9, 364720, Note_off_c, 7, 77, 64
9, 364720, Note_on_c, 7, 79, 127
9, 364800, Note_off_c, 7, 79, 64
9, 364800, Note_on_c, 7, 81, 127
9, 364896, Note_off_c, 7, 81, 64
9, 366720, Note_on_c, 7, 81, 127
9, 368240, Note_off_c, 7, 81, 64
9, 368240, Note_on_c, 7, 75, 127
9, 368320, Note_off_c, 7, 75, 64
9, 368320, Note_on_c, 7, 77, 127
9, 368400, Note_off_c, 7, 77, 64
9, 368400, Note_on_c, 7, 79, 127
9, 368480, Note_off_c, 7, 79, 64
9, 368480, Note_on_c, 7, 81, 127
9, 368560, Note_off_c, 7, 81, 64
9, 368560, Note_on_c, 7, 82, 127
9, 368640, Note_off_c, 7, 82, 64
9, 368640, Note_on_c, 7, 84, 127
9, 368880, Note_off_c, 7, 84, 64
9, 370080, Note_on_c, 7, 77, 127
9, 370200, Note_off_c, 7, 77, 64
9, 370200, Note_on_c, 7, 79, 127
9, 370320, Note_off_c, 7, 79, 64
9, 370320, Note_on_c, 7, 81, 127
9, 370440, Note_off_c, 7, 81, 64
9, 370440, Note_on_c, 7, 82, 127
9, 370560, Note_off_c, 7, 82, 64
9, 370560, Note_on_c, 7, 84, 127
9, 370800, Note_off_c, 7, 84, 64
9, 372000, Note_on_c, 7, 77, 127
9, 372120, Note_off_c, 7, 77, 64
9, 372120, Note_on_c, 7, 79, 127
9, 372240, Note_off_c, 7, 79, 64
9, 372240, Note_on_c, 7, 81, 127
9, 372360, Note_off_c, 7, 81, 64
9, 372360, Note_on_c, 7, 82, 127
9, 372480, Note_off_c, 7, 82, 64
9, 372480, Note_on_c, 7, 84, 102
9, 372720, Note_off_c, 7, 84, 64
9, 373200, Note_on_c, 7, 81, 102
9, 373320, Note_off_c, 7, 81, 64
9, 373320, Note_on_c, 7, 82, 102
9, 373440, Note_off_c, 7, 82, 64
9, 373440, Note_on_c, 7, 84, 102
9, 373680, Note_off_c, 7, 84, 64
9, 374160, Note_on_c, 7, 81, 102
9, 374280, Note_off_c, 7, 81, 64
9, 374280, Note_on_c, 7, 82, 102
9, 374400, Note_off_c, 7, 82, 64
9, 374400, Note_on_c, 7, 84, 102
9, 374640, Note_off_c, 7, 84, 64
9, 375120, Note_on_c, 7, 81, 102
9, 375240, Note_off_c, 7, 81, 64
9, 375240, Note_on_c, 7, 82, 102
9, 375360, Note_off_c, 7, 82, 64
9, 375360, Note_on_c, 7, 84, 102
9, 375600, Note_off_c, 7, 84, 64
9, 376080, Note_on_c, 7, 81, 102
9, 376160, Note_off_c, 7, 81, 64
9, 376160, Note_on_c, 7, 82, 102
9, 376160, Note_on_c, 7, 82, 102
9, 376240, Note_off_c, 7, 82, 64
9, 376240, Note_off_c, 7, 82, 64
9, 376240, Note_on_c, 7, 84, 102
9, 376240, Note_on_c, 7, 82, 102
9, 376320, Note_off_c, 7, 82, 64
9, 376320, Note_off_c, 7, 84, 64
9, 376320, Note_on_c, 7, 86, 102
9, 376512, Note_off_c, 7, 86, 64
9, 376800, Note_on_c, 7, 82, 64
9, 376992, Note_off_c, 7, 82, 64
9, 377280, Note_on_c, 7, 77, 64
9, 377472, Note_off_c, 7, 77, 64
9, 377760, Note_on_c, 7, 82, 64
9, 377952, Note_off_c, 7, 82, 64
9, 378240, Note_on_c, 7, 74, 64
9, 378432, Note_off_c, 7, 74, 64
9, 378720, Note_on_c, 7, 77, 64
9, 378912, Note_off_c, 7, 77, 64
9, 379200, Note_on_c, 7, 70, 64
9, 379392, Note_off_c, 7, 70, 64
9, 379680, Note_on_c, 7, 74, 64
9, 379872, Note_off_c, 7, 74, 64
9, 380160, Note_on_c, 7, 67, 64
9, 380352, Note_off_c, 7, 67, 64
9, 380640, Note_on_c, 7, 75, 64
9, 380832, Note_off_c, 7, 75, 64
9, 381120, Note_on_c, 7, 72, 64
9, 381312, Note_off_c, 7, 72, 64
9, 381600, Note_on_c, 7, 70, 64
9, 381792, Note_off_c, 7, 70, 64
9, 382080, Note_on_c, 7, 69, 64
9, 382272, Note_off_c, 7, 69, 64
9, 382560, Note_on_c, 7, 77, 64
9, 382752, Note_off_c, 7, 77, 64
9, 383040, Note_on_c, 7, 75, 64
9, 383232, Note_off_c, 7, 75, 64
9, 383520, Note_on_c, 7, 72, 64
9, 383712, Note_off_c, 7, 72, 64
9, 384000, Note_on_c, 7, 70, 64
9, 384192, Note_off_c, 7, 70, 64
9, 391200, Note_on_c, 7, 77, 102
9, 391320, Note_off_c, 7, 77, 64
9, 391320, Note_on_c, 7, 79, 102
9, 391440, Note_off_c, 7, 79, 64
9, 391440, Note_on_c, 7, 81, 102
9, 391560, Note_off_c, 7, 81, 64
9, 391560, Note_on_c, 7, 82, 102
9, 391680, Note_off_c, 7, 82, 64
9, 391680, Note_on_c, 7, 84, 102
9, 391920, Note_off_c, 7, 84, 64
9, 393120, Note_on_c, 7, 77, 102
9, 393240, Note_off_c, 7, 77, 64
9, 393240, Note_on_c, 7, 79, 102
9, 393360, Note_off_c, 7, 79, 64
9, 393360, Note_on_c, 7, 81, 102
9, 393480, Note_off_c, 7, 81, 64
9, 393480, Note_on_c, 7, 82, 102
9, 393600, Note_off_c, 7, 82, 64
9, 393600, Note_on_c, 7, 84, 102
9, 393840, Note_off_c, 7, 84, 64
9, 394320, Note_on_c, 7, 81, 102
9, 394440, Note_off_c, 7, 81, 64
9, 394440, Note_on_c, 7, 82, 102
9, 394560, Note_off_c, 7, 82, 64
9, 394560, Note_on_c, 7, 84, 102
9, 394800, Note_off_c, 7, 84, 64
9, 395280, Note_on_c, 7, 81, 102
9, 395360, Note_off_c, 7, 81, 64
9, 395360, Note_on_c, 7, 82, 102
9, 395360, Note_on_c, 7, 82, 102
9, 395440, Note_off_c, 7, 82, 64
9, 395440, Note_off_c, 7, 82, 64
9, 395440, Note_on_c, 7, 84, 102
9, 395440, Note_on_c, 7, 82, 102
9, 395520, Note_off_c, 7, 82, 64
9, 395520, Note_off_c, 7, 84, 64
9, 395520, Note_on_c, 7, 62, 102
9, 395520, Note_on_c, 7, 86, 102
9, 395520, Note_on_c, 7, 74, 102
9, 395712, Note_off_c, 7, 74, 64
9, 395712, Note_off_c, 7, 86, 64
9, 395712, Note_off_c, 7, 62, 64
9, 396000, Note_on_c, 7, 82, 96
9, 396192, Note_off_c, 7, 82, 64
9, 396480, Note_on_c, 7, 77, 96
9, 396672, Note_off_c, 7, 77, 64
9, 396960, Note_on_c, 7, 82, 96
9, 397152, Note_off_c, 7, 82, 64
9, 397440, Note_on_c, 7, 74, 96
9, 397632, Note_off_c, 7, 74, 64
9, 397920, Note_on_c, 7, 77, 96
9, 398112, Note_off_c, 7, 77, 64
9, 398400, Note_on_c, 7, 70, 96
9, 398592, Note_off_c, 7, 70, 64
9, 398880, Note_on_c, 7, 74, 96
9, 399072, Note_off_c, 7, 74, 64
9, 399360, Note_on_c, 7, 67, 96
9, 399552, Note_off_c, 7, 67, 64
9, 399840, Note_on_c, 7, 75, 96
9, 400032, Note_off_c, 7, 75, 64
9, 400320, Note_on_c, 7, 72, 96
9, 400512, Note_off_c, 7, 72, 64
9, 400800, Note_on_c, 7, 70, 96
9, 400992, Note_off_c, 7, 70, 64
9, 401280, Note_on_c, 7, 69, 96
9, 401472, Note_off_c, 7, 69, 64
9, 401760, Note_on_c, 7, 77, 96
9, 401952, Note_off_c, 7, 77, 64
9, 402240, Note_on_c, 7, 75, 96
9, 402432, Note_off_c, 7, 75, 64
9, 402720, Note_on_c, 7, 72, 96
9, 402912, Note_off_c, 7, 72, 64
9, 403200, Note_on_c, 7, 70, 96
9, 403392, Note_off_c, 7, 70, 64
9, 403680, Note_on_c, 7, 79, 96
9, 403872, Note_off_c, 7, 79, 64
9, 403920, Note_on_c, 7, 79, 96
9, 404112, Note_off_c, 7, 79, 64
9, 404160, Note_on_c, 7, 77, 96
9, 404352, Note_off_c, 7, 77, 64
9, 404400, Note_on_c, 7, 77, 96
9, 404592, Note_off_c, 7, 77, 64
9, 404640, Note_on_c, 7, 75, 96
9, 404832, Note_off_c, 7, 75, 64
9, 404880, Note_on_c, 7, 75, 96
9, 405072, Note_off_c, 7, 75, 64
9, 405120, Note_on_c, 7, 74, 96
9, 405312, Note_off_c, 7, 74, 64
9, 405360, Note_on_c, 7, 74, 96
9, 405552, Note_off_c, 7, 74, 64
9, 405600, Note_on_c, 7, 72, 96
9, 405792, Note_off_c, 7, 72, 64
9, 405840, Note_on_c, 7, 72, 96
9, 406032, Note_off_c, 7, 72, 64
9, 406080, Note_on_c, 7, 70, 96
9, 406272, Note_off_c, 7, 70, 64
9, 406320, Note_on_c, 7, 70, 96
9, 406512, Note_off_c, 7, 70, 64
9, 406560, Note_on_c, 7, 72, 96
9, 406752, Note_off_c, 7, 72, 64
9, 406800, Note_on_c, 7, 72, 96
9, 406992, Note_off_c, 7, 72, 64
9, 407040, Note_on_c, 7, 70, 102
9, 409200, Note_off_c, 7, 70, 64
9, 409200, Note_on_c, 7, 72, 102
9, 409440, Note_off_c, 7, 72, 64
9, 409440, Note_on_c, 7, 74, 102
9, 409680, Note_off_c, 7, 74, 64
9, 409680, Note_on_c, 7, 75, 102
9, 409920, Note_off_c, 7, 75, 64
9, 409920, Note_on_c, 7, 77, 102
9, 410160, Note_off_c, 7, 77, 64
9, 410160, Note_on_c, 7, 79, 102
9, 410400, Note_off_c, 7, 79, 64
9, 410400, Note_on_c, 7, 81, 102
9, 410640, Note_off_c, 7, 81, 64
9, 410640, Note_on_c, 7, 82, 102
9, 410880, Note_off_c, 7, 82, 64
9, 410880, Note_on_c, 7, 81, 102
9, 410880, Note_on_c, 7, 69, 102
9, 411240, Note_off_c, 7, 69, 64
9, 411240, Note_off_c, 7, 81, 64
9, 412800, Note_on_c, 7, 70, 102
9, 412800, Note_on_c, 7, 82, 102
9, 413160, Note_off_c, 7, 82, 64
9, 413160, Note_off_c, 7, 70, 64
9, 414720, Note_on_c, 7, 75, 102
9, 414720, Note_on_c, 7, 67, 102
9, 414720, Note_on_c, 7, 84, 102
9, 415080, Note_off_c, 7, 84, 64
9, 415080, Note_off_c, 7, 67, 64
9, 415080, Note_off_c, 7, 75, 64
9, 416640, Note_on_c, 7, 72, 102
9, 416640, Note_on_c, 7, 65, 102
9, 416640, Note_on_c, 7, 81, 102
9, 417000, Note_off_c, 7, 81, 64
9, 417000, Note_off_c, 7, 65, 64
9, 417000, Note_off_c, 7, 72, 64
9, 418560, Note_on_c, 7, 58, 45
9, 420864, Note_off_c, 7, 58, 64
9, 420960, Note_on_c, 7, 70, 45
9, 421200, Note_off_c, 7, 70, 64
9, 421200, Note_on_c, 7, 69, 45
9, 421440, Note_off_c, 7, 69, 64
9, 421440, Note_on_c, 7, 70, 45
9, 421680, Note_off_c, 7, 70, 64
9, 421680, Note_on_c, 7, 69, 45
9, 421920, Note_off_c, 7, 69, 64
9, 421920, Note_on_c, 7, 70, 45
9, 422160, Note_off_c, 7, 70, 64
9, 422160, Note_on_c, 7, 69, 45
9, 422400, Note_off_c, 7, 69, 64
9, 422400, Note_on_c, 7, 70, 45
9, 422592, Note_off_c, 7, 70, 64
9, 422880, Note_on_c, 7, 70, 45
9, 423120, Note_off_c, 7, 70, 64
9, 423120, Note_on_c, 7, 69, 45
9, 423360, Note_off_c, 7, 69, 64
9, 423360, Note_on_c, 7, 70, 45
9, 423600, Note_off_c, 7, 70, 64
9, 423600, Note_on_c, 7, 69, 45
9, 423840, Note_off_c, 7, 69, 64
9, 423840, Note_on_c, 7, 70, 45
9, 424080, Note_off_c, 7, 70, 64
9, 424080, Note_on_c, 7, 69, 45
9, 424320, Note_off_c, 7, 69, 64
9, 424320, Note_on_c, 7, 70, 45
9, 424512, Note_off_c, 7, 70, 64
9, 424800, Note_on_c, 7, 70, 45
9, 425040, Note_off_c, 7, 70, 64
9, 425040, Note_on_c, 7, 69, 45
9, 425280, Note_off_c, 7, 69, 64
9, 425280, Note_on_c, 7, 70, 45
9, 425520, Note_off_c, 7, 70, 64
9, 425520, Note_on_c, 7, 69, 45
9, 425760, Note_off_c, 7, 69, 64
9, 425760, Note_on_c, 7, 70, 45
9, 426000, Note_off_c, 7, 70, 64
9, 426000, Note_on_c, 7, 71, 45
9, 426240, Note_off_c, 7, 71, 64
9, 426240, Note_on_c, 7, 72, 45
9, 428544, Note_off_c, 7, 72, 64
9, 428640, Note_on_c, 7, 72, 45
9, 428880, Note_off_c, 7, 72, 64
9, 428880, Note_on_c, 7, 71, 45
9, 429120, Note_off_c, 7, 71, 64
9, 429120, Note_on_c, 7, 72, 45
9, 429360, Note_off_c, 7, 72, 64
9, 429360, Note_on_c, 7, 71, 45
9, 429600, Note_off_c, 7, 71, 64
9, 429600, Note_on_c, 7, 72, 45
9, 429840, Note_off_c, 7, 72, 64
9, 429840, Note_on_c, 7, 71, 45
9, 430080, Note_off_c, 7, 71, 64
9, 430080, Note_on_c, 7, 72, 45
9, 430272, Note_off_c, 7, 72, 64
9, 430560, Note_on_c, 7, 72, 45
9, 430800, Note_off_c, 7, 72, 64
9, 430800, Note_on_c, 7, 71, 45
9, 431040, Note_off_c, 7, 71, 64
9, 431040, Note_on_c, 7, 72, 45
9, 431280, Note_off_c, 7, 72, 64
9, 431280, Note_on_c, 7, 71, 45
9, 431520, Note_off_c, 7, 71, 64
9, 431520, Note_on_c, 7, 72, 45
9, 431760, Note_off_c, 7, 72, 64
9, 431760, Note_on_c, 7, 71, 45
9, 432000, Note_off_c, 7, 71, 64
9, 432000, Note_on_c, 7, 72, 56
9, 432192, Note_off_c, 7, 72, 64
9, 432480, Note_on_c, 7, 72, 56
9, 432720, Note_off_c, 7, 72, 64
9, 432720, Note_on_c, 7, 71, 56
9, 432960, Note_off_c, 7, 71, 64
9, 432960, Note_on_c, 7, 72, 56
9, 433200, Note_off_c, 7, 72, 64
9, 433200, Note_on_c, 7, 71, 56
9, 433440, Note_off_c, 7, 71, 64
9, 433440, Note_on_c, 7, 72, 56
9, 433680, Note_off_c, 7, 72, 64
9, 433680, Note_on_c, 7, 73, 56
9, 433920, Note_off_c, 7, 73, 64
9, 433920, Note_on_c, 7, 74, 64
9, 436224, Note_off_c, 7, 74, 64
9, 436320, Note_on_c, 7, 74, 70
9, 436560, Note_off_c, 7, 74, 64
9, 436560, Note_on_c, 7, 73, 70
9, 436800, Note_off_c, 7, 73, 64
9, 436800, Note_on_c, 7, 74, 70
9, 437040, Note_off_c, 7, 74, 64
9, 437040, Note_on_c, 7, 73, 70
9, 437280, Note_off_c, 7, 73, 64
9, 437280, Note_on_c, 7, 74, 70
9, 437520, Note_off_c, 7, 74, 64
9, 437520, Note_on_c, 7, 74, 70
9, 437760, Note_off_c, 7, 74, 64
9, 437760, Note_on_c, 7, 76, 80
9, 440064, Note_off_c, 7, 76, 64
9, 440160, Note_on_c, 7, 79, 88
9, 440400, Note_off_c, 7, 79, 64
9, 440400, Note_on_c, 7, 78, 88
9, 440640, Note_off_c, 7, 78, 64
9, 440640, Note_on_c, 7, 79, 88
9, 440880, Note_off_c, 7, 79, 64
9, 440880, Note_on_c, 7, 78, 88
9, 441120, Note_off_c, 7, 78, 64
9, 441120, Note_on_c, 7, 79, 88
9, 441360, Note_off_c, 7, 79, 64
9, 441360, Note_on_c, 7, 79, 88
9, 441600, Note_off_c, 7, 79, 64
9, 441600, Note_on_c, 7, 81, 51
9, 441600, Note_on_c, 7, 72, 51
9, 441792, Note_off_c, 7, 72, 64
9, 441792, Note_off_c, 7, 81, 64
9, 441840, Note_on_c, 7, 72, 52
9, 441840, Note_on_c, 7, 81, 52
9, 442032, Note_off_c, 7, 81, 64
9, 442032, Note_off_c, 7, 72, 64
9, 442080, Note_on_c, 7, 72, 54
9, 442080, Note_on_c, 7, 81, 54
9, 442272, Note_off_c, 7, 81, 64
9, 442272, Note_off_c, 7, 72, 64
9, 442320, Note_on_c, 7, 72, 55
9, 442320, Note_on_c, 7, 81, 55
9, 442512, Note_off_c, 7, 81, 64
9, 442512, Note_off_c, 7, 72, 64
9, 442560, Note_on_c, 7, 81, 57
9, 442560, Note_on_c, 7, 72, 57
9, 442752, Note_off_c, 7, 72, 64
9, 442752, Note_off_c, 7, 81, 64
9, 442800, Note_on_c, 7, 72, 58
9, 442800, Note_on_c, 7, 81, 58
9, 442992, Note_off_c, 7, 81, 64
9, 442992, Note_off_c, 7, 72, 64
9, 443040, Note_on_c, 7, 81, 59
9, 443040, Note_on_c, 7, 72, 59
9, 443232, Note_off_c, 7, 72, 64
9, 443232, Note_off_c, 7, 81, 64
9, 443280, Note_on_c, 7, 72, 61
9, 443280, Note_on_c, 7, 81, 61
9, 443472, Note_off_c, 7, 81, 64
9, 443472, Note_off_c, 7, 72, 64
9, 443520, Note_on_c, 7, 81, 68
9, 443520, Note_on_c, 7, 72, 68
9, 443712, Note_off_c, 7, 72, 64
9, 443712, Note_off_c, 7, 81, 64
9, 443760, Note_on_c, 7, 72, 70
9, 443760, Note_on_c, 7, 81, 70
9, 443952, Note_off_c, 7, 81, 64
9, 443952, Note_off_c, 7, 72, 64
9, 444000, Note_on_c, 7, 72, 72
9, 444000, Note_on_c, 7, 81, 72
9, 444192, Note_off_c, 7, 81, 64
9, 444192, Note_off_c, 7, 72, 64
9, 444240, Note_on_c, 7, 81, 73
9, 444240, Note_on_c, 7, 72, 73
9, 444432, Note_off_c, 7, 72, 64
9, 444432, Note_off_c, 7, 81, 64
9, 444480, Note_on_c, 7, 72, 75
9, 444480, Note_on_c, 7, 81, 75
9, 444672, Note_off_c, 7, 81, 64
9, 444672, Note_off_c, 7, 72, 64
9, 444720, Note_on_c, 7, 81, 77
9, 444720, Note_on_c, 7, 72, 77
9, 444912, Note_off_c, 7, 72, 64
9, 444912, Note_off_c, 7, 81, 64
9, 444960, Note_on_c, 7, 72, 77
9, 444960, Note_on_c, 7, 81, 77
9, 445152, Note_off_c, 7, 81, 64
9, 445152, Note_off_c, 7, 72, 64
9, 445200, Note_on_c, 7, 72, 79
9, 445200, Note_on_c, 7, 81, 79
9, 445392, Note_off_c, 7, 81, 64
9, 445392, Note_off_c, 7, 72, 64
9, 445440, Note_on_c, 7, 81, 96
9, 445440, Note_on_c, 7, 72, 96
9, 445632, Note_off_c, 7, 72, 64
9, 445632, Note_off_c, 7, 81, 64
9, 445680, Note_on_c, 7, 81, 98
9, 445680, Note_on_c, 7, 72, 98
9, 445872, Note_off_c, 7, 72, 64
9, 445872, Note_off_c, 7, 81, 64
9, 445920, Note_on_c, 7, 72, 100
9, 445920, Note_on_c, 7, 81, 100
9, 446112, Note_off_c, 7, 81, 64
9, 446112, Note_off_c, 7, 72, 64
9, 446160, Note_on_c, 7, 81, 101
9, 446160, Note_on_c, 7, 72, 101
9, 446352, Note_off_c, 7, 72, 64
9, 446352, Note_off_c, 7, 81, 64
9, 446400, Note_on_c, 7, 81, 103
9, 446400, Note_on_c, 7, 72, 103
9, 446592, Note_off_c, 7, 72, 64
9, 446592, Note_off_c, 7, 81, 64
9, 446640, Note_on_c, 7, 72, 105
9, 446640, Note_on_c, 7, 81, 105
9, 446832, Note_off_c, 7, 81, 64
9, 446832, Note_off_c, 7, 72, 64
9, 446880, Note_on_c, 7, 81, 107
9, 446880, Note_on_c, 7, 72, 107
9, 447072, Note_off_c, 7, 72, 64
9, 447072, Note_off_c, 7, 81, 64
9, 447120, Note_on_c, 7, 72, 108
9, 447120, Note_on_c, 7, 81, 108
9, 447312, Note_off_c, 7, 81, 64
9, 447312, Note_off_c, 7, 72, 64
9, 447360, Note_on_c, 7, 81, 111
9, 447360, Note_on_c, 7, 72, 111
9, 447552, Note_off_c, 7, 72, 64
9, 447552, Note_off_c, 7, 81, 64
9, 447600, Note_on_c, 7, 72, 112
9, 447600, Note_on_c, 7, 81, 112
9, 447792, Note_off_c, 7, 81, 64
9, 447792, Note_off_c, 7, 72, 64
9, 447840, Note_on_c, 7, 72, 114
9, 447840, Note_on_c, 7, 81, 114
9, 448032, Note_off_c, 7, 81, 64
9, 448032, Note_off_c, 7, 72, 64
9, 448080, Note_on_c, 7, 81, 116
9, 448080, Note_on_c, 7, 72, 116
9, 448272, Note_off_c, 7, 72, 64
9, 448272, Note_off_c, 7, 81, 64
9, 448320, Note_on_c, 7, 81, 117
9, 448320, Note_on_c, 7, 72, 117
9, 448512, Note_off_c, 7, 72, 64
9, 448512, Note_off_c, 7, 81, 64
9, 448560, Note_on_c, 7, 72, 120
9, 448560, Note_on_c, 7, 81, 120
9, 448752, Note_off_c, 7, 81, 64
9, 448752, Note_off_c, 7, 72, 64
9, 448800, Note_on_c, 7, 72, 122
9, 448800, Note_on_c, 7, 81, 122
9, 448992, Note_off_c, 7, 81, 64
9, 448992, Note_off_c, 7, 72, 64
9, 449040, Note_on_c, 7, 72, 124
9, 449040, Note_on_c, 7, 81, 124
9, 449232, Note_off_c, 7, 81, 64
9, 449232, Note_off_c, 7, 72, 64
9, 449280, Note_on_c, 7, 82, 127
9, 452736, Note_off_c, 7, 82, 64
9, 453120, Note_on_c, 7, 87, 127
9, 454656, Note_off_c, 7, 87, 64
9, 455040, Note_on_c, 7, 89, 127
9, 456560, Note_off_c, 7, 89, 64
9, 456560, Note_on_c, 7, 77, 127
9, 456640, Note_off_c, 7, 77, 64
9, 456640, Note_on_c, 7, 79, 127
9, 456720, Note_off_c, 7, 79, 64
9, 456720, Note_on_c, 7, 81, 127
9, 456784, Note_off_c, 7, 81, 64
9, 456800, Note_on_c, 7, 82, 127
9, 456864, Note_off_c, 7, 82, 64
9, 456880, Note_on_c, 7, 84, 127
9, 456944, Note_off_c, 7, 84, 64
9, 456960, Note_on_c, 7, 86, 127
9, 457200, Note_off_c, 7, 86, 64
9, 457200, Note_on_c, 7, 86, 127
9, 457200, Note_on_c, 7, 86, 127
9, 457440, Note_off_c, 7, 86, 64
9, 457440, Note_off_c, 7, 86, 64
9, 457440, Note_on_c, 7, 82, 127
9, 457680, Note_off_c, 7, 82, 64
9, 457680, Note_on_c, 7, 82, 127
9, 457920, Note_off_c, 7, 82, 64
9, 457920, Note_on_c, 7, 77, 127
9, 458160, Note_off_c, 7, 77, 64
9, 458160, Note_on_c, 7, 77, 127
9, 458400, Note_off_c, 7, 77, 64
9, 458400, Note_on_c, 7, 82, 127
9, 458640, Note_off_c, 7, 82, 64
9, 458640, Note_on_c, 7, 82, 127
9, 458880, Note_off_c, 7, 82, 64
9, 458880, Note_on_c, 7, 74, 127
9, 459120, Note_off_c, 7, 74, 64
9, 459120, Note_on_c, 7, 74, 127
9, 459360, Note_off_c, 7, 74, 64
9, 459360, Note_on_c, 7, 77, 127
9, 459600, Note_off_c, 7, 77, 64
9, 459600, Note_on_c, 7, 77, 127
9, 459840, Note_off_c, 7, 77, 64
9, 459840, Note_on_c, 7, 70, 127
9, 460080, Note_off_c, 7, 70, 64
9, 460080, Note_on_c, 7, 70, 127
9, 460320, Note_off_c, 7, 70, 64
9, 460320, Note_on_c, 7, 74, 127
9, 460560, Note_off_c, 7, 74, 64
9, 460560, Note_on_c, 7, 74, 127
9, 460800, Note_off_c, 7, 74, 64
9, 460800, Note_on_c, 7, 67, 127
9, 461040, Note_off_c, 7, 67, 64
9, 461040, Note_on_c, 7, 67, 127
9, 461280, Note_off_c, 7, 67, 64
9, 461280, Note_on_c, 7, 75, 127
9, 461520, Note_off_c, 7, 75, 64
9, 461520, Note_on_c, 7, 75, 127
9, 461760, Note_off_c, 7, 75, 64
9, 461760, Note_on_c, 7, 72, 127
9, 462000, Note_off_c, 7, 72, 64
9, 462000, Note_on_c, 7, 72, 127
9, 462240, Note_off_c, 7, 72, 64
9, 462240, Note_on_c, 7, 70, 127
9, 462480, Note_off_c, 7, 70, 64
9, 462480, Note_on_c, 7, 70, 127
9, 462720, Note_off_c, 7, 70, 64
9, 462720, Note_on_c, 7, 69, 127
9, 462960, Note_off_c, 7, 69, 64
9, 462960, Note_on_c, 7, 69, 127
9, 463200, Note_off_c, 7, 69, 64
9, 463200, Note_on_c, 7, 77, 127
9, 463440, Note_off_c, 7, 77, 64
9, 463440, Note_on_c, 7, 77, 127
9, 463680, Note_off_c, 7, 77, 64
9, 463680, Note_on_c, 7, 75, 127
9, 463920, Note_off_c, 7, 75, 64
9, 463920, Note_on_c, 7, 75, 127
9, 464160, Note_off_c, 7, 75, 64
9, 464160, Note_on_c, 7, 72, 127
9, 464400, Note_off_c, 7, 72, 64
9, 464400, Note_on_c, 7, 72, 127
9, 464640, Note_off_c, 7, 72, 64
9, 464640, Note_on_c, 7, 70, 127
9, 464880, Note_off_c, 7, 70, 64
9, 464880, Note_on_c, 7, 70, 127
9, 464880, Note_on_c, 7, 70, 127
9, 465120, Note_off_c, 7, 70, 64
9, 465120, Note_off_c, 7, 70, 64
9, 465120, Note_on_c, 7, 79, 127
9, 465360, Note_off_c, 7, 79, 64
9, 465360, Note_on_c, 7, 79, 127
9, 465600, Note_off_c, 7, 79, 64
9, 465600, Note_on_c, 7, 76, 127
9, 465840, Note_off_c, 7, 76, 64
9, 465840, Note_on_c, 7, 76, 127
9, 466080, Note_off_c, 7, 76, 64
9, 466080, Note_on_c, 7, 74, 127
9, 466320, Note_off_c, 7, 74, 64
9, 466320, Note_on_c, 7, 74, 127
9, 466560, Note_off_c, 7, 74, 64
9, 466560, Note_on_c, 7, 73, 127
9, 466800, Note_off_c, 7, 73, 64
9, 466800, Note_on_c, 7, 73, 127
9, 467040, Note_off_c, 7, 73, 64
9, 467040, Note_on_c, 7, 81, 127
9, 467280, Note_off_c, 7, 81, 64
9, 467280, Note_on_c, 7, 81, 127
9, 467520, Note_off_c, 7, 81, 64
9, 467520, Note_on_c, 7, 79, 127
9, 467760, Note_off_c, 7, 79, 64
9, 467760, Note_on_c, 7, 79, 127
9, 468000, Note_off_c, 7, 79, 64
9, 468000, Note_on_c, 7, 76, 127
9, 468240, Note_off_c, 7, 76, 64
9, 468240, Note_on_c, 7, 76, 127
9, 468480, Note_off_c, 7, 76, 64
9, 468480, Note_on_c, 7, 74, 127
9, 468720, Note_off_c, 7, 74, 64
9, 468720, Note_on_c, 7, 74, 127
9, 468720, Note_on_c, 7, 74, 127
9, 468960, Note_off_c, 7, 74, 64
9, 468960, Note_off_c, 7, 74, 64
9, 468960, Note_on_c, 7, 83, 127
9, 469200, Note_off_c, 7, 83, 64
9, 469200, Note_on_c, 7, 83, 127
9, 469440, Note_off_c, 7, 83, 64
9, 469440, Note_on_c, 7, 80, 127
9, 469680, Note_off_c, 7, 80, 64
9, 469680, Note_on_c, 7, 80, 127
9, 469920, Note_off_c, 7, 80, 64
9, 469920, Note_on_c, 7, 77, 127
9, 470160, Note_off_c, 7, 77, 64
9, 470160, Note_on_c, 7, 77, 127
9, 470400, Note_off_c, 7, 77, 64
9, 470400, Note_on_c, 7, 76, 127
9, 470640, Note_off_c, 7, 76, 64
9, 470640, Note_on_c, 7, 76, 127
9, 470880, Note_off_c, 7, 76, 64
9, 470880, Note_on_c, 7, 84, 127
9, 471120, Note_off_c, 7, 84, 64
9, 471120, Note_on_c, 7, 84, 127
9, 471360, Note_off_c, 7, 84, 64
9, 471360, Note_on_c, 7, 82, 127
9, 471600, Note_off_c, 7, 82, 64
9, 471600, Note_on_c, 7, 82, 127
9, 471840, Note_off_c, 7, 82, 64
9, 471840, Note_on_c, 7, 79, 127
9, 472080, Note_off_c, 7, 79, 64
9, 472080, Note_on_c, 7, 79, 127
9, 472320, Note_off_c, 7, 79, 64
9, 472320, Note_on_c, 7, 76, 127
9, 472560, Note_off_c, 7, 76, 64
9, 472560, Note_on_c, 7, 76, 127
9, 472800, Note_off_c, 7, 76, 64
9, 472800, Note_on_c, 7, 72, 127
9, 473040, Note_off_c, 7, 72, 64
9, 473040, Note_on_c, 7, 72, 127
9, 473280, Note_off_c, 7, 72, 64
9, 473280, Note_on_c, 7, 70, 127
9, 473520, Note_off_c, 7, 70, 64
9, 473520, Note_on_c, 7, 70, 127
9, 473760, Note_off_c, 7, 70, 64
9, 473760, Note_on_c, 7, 67, 127
9, 474000, Note_off_c, 7, 67, 64
9, 474000, Note_on_c, 7, 67, 127
9, 474240, Note_off_c, 7, 67, 64
9, 474240, Note_on_c, 7, 68, 127
9, 474480, Note_off_c, 7, 68, 64
9, 474480, Note_on_c, 7, 68, 127
9, 474720, Note_off_c, 7, 68, 64
9, 474720, Note_on_c, 7, 65, 127
9, 474960, Note_off_c, 7, 65, 64
9, 474960, Note_on_c, 7, 65, 127
9, 475200, Note_off_c, 7, 65, 64
9, 475200, Note_on_c, 7, 63, 127
9, 475440, Note_off_c, 7, 63, 64
9, 475440, Note_on_c, 7, 63, 127
9, 475680, Note_off_c, 7, 63, 64
9, 475680, Note_on_c, 7, 61, 127
9, 475920, Note_off_c, 7, 61, 64
9, 475920, Note_on_c, 7, 61, 127
9, 476160, Note_off_c, 7, 61, 64
9, 476160, Note_on_c, 7, 60, 127
9, 476544, Note_off_c, 7, 60, 64
9, 482400, Note_on_c, 7, 83, 125
9, 483360, Note_off_c, 7, 83, 64
9, 483360, Note_on_c, 7, 84, 96
9, 483696, Note_off_c, 7, 84, 64
9, 483840, Note_on_c, 7, 84, 96
9, 484176, Note_off_c, 7, 84, 64
9, 484320, Note_on_c, 7, 79, 96
9, 485088, Note_off_c, 7, 79, 64
9, 485280, Note_on_c, 7, 80, 96
9, 486144, Note_off_c, 7, 80, 64
9, 486240, Note_on_c, 7, 82, 96
9, 487008, Note_off_c, 7, 82, 64
9, 487200, Note_on_c, 7, 77, 96
9, 488064, Note_off_c, 7, 77, 64
9, 488160, Note_on_c, 7, 79, 96
9, 488928, Note_off_c, 7, 79, 64
9, 489120, Note_on_c, 7, 80, 96
9, 489984, Note_off_c, 7, 80, 64
9, 490080, Note_on_c, 7, 83, 125
9, 491040, Note_off_c, 7, 83, 64
9, 491040, Note_on_c, 7, 84, 96
9, 491424, Note_off_c, 7, 84, 64
9, 491520, Note_on_c, 7, 84, 80
9, 496320, Note_off_c, 7, 84, 64
9, 496320, Note_on_c, 7, 72, 60
9, 498240, Note_off_c, 7, 72, 64
9, 498240, Note_on_c, 7, 64, 45
9, 499200, Note_off_c, 7, 64, 64
9, 499200, Note_on_c, 7, 65, 34
9, 506880, Note_off_c, 7, 65, 64
9, 506880, Note_on_c, 7, 65, 34
9, 510720, Note_off_c, 7, 65, 64
9, 510720, Note_on_c, 7, 64, 42
9, 510912, Note_off_c, 7, 64, 64
9, 511200, Note_on_c, 7, 61, 42
9, 511392, Note_off_c, 7, 61, 64
9, 511680, Note_on_c, 7, 64, 42
9, 511872, Note_off_c, 7, 64, 64
9, 513120, Note_on_c, 7, 62, 42
9, 513312, Note_off_c, 7, 62, 64
9, 513600, Note_on_c, 7, 65, 42
9, 513792, Note_off_c, 7, 65, 64
9, 515040, Note_on_c, 7, 64, 42
9, 515232, Note_off_c, 7, 64, 64
9, 515520, Note_on_c, 7, 67, 42
9, 515712, Note_off_c, 7, 67, 64
9, 516960, Note_on_c, 7, 62, 42
9, 517152, Note_off_c, 7, 62, 64
9, 517440, Note_on_c, 7, 65, 42
9, 517632, Note_off_c, 7, 65, 64
9, 518400, Note_on_c, 7, 81, 40
9, 518880, Note_off_c, 7, 81, 64
9, 518880, Note_on_c, 7, 80, 40
9, 519360, Note_off_c, 7, 80, 64
9, 519360, Note_on_c, 7, 81, 40
9, 519840, Note_off_c, 7, 81, 64
9, 519840, Note_on_c, 7, 79, 40
9, 520320, Note_off_c, 7, 79, 64
9, 520320, Note_on_c, 7, 77, 40
9, 520800, Note_off_c, 7, 77, 64
9, 520800, Note_on_c, 7, 76, 40
9, 521280, Note_off_c, 7, 76, 64
9, 521280, Note_on_c, 7, 77, 40
9, 521760, Note_off_c, 7, 77, 64
9, 521760, Note_on_c, 7, 74, 40
9, 522240, Note_off_c, 7, 74, 64
9, 522240, Note_on_c, 7, 73, 40
9, 522720, Note_off_c, 7, 73, 64
9, 522720, Note_on_c, 7, 71, 40
9, 523200, Note_off_c, 7, 71, 64
9, 523200, Note_on_c, 7, 73, 40
9, 523680, Note_off_c, 7, 73, 64
9, 523680, Note_on_c, 7, 76, 40
9, 523896, Note_off_c, 7, 76, 64
9, 524040, Note_on_c, 7, 76, 40
9, 524160, Note_off_c, 7, 76, 64
9, 524160, Note_on_c, 7, 74, 40
9, 524640, Note_off_c, 7, 74, 64
9, 524640, Note_on_c, 7, 73, 40
9, 525120, Note_off_c, 7, 73, 64
9, 525120, Note_on_c, 7, 74, 40
9, 525600, Note_off_c, 7, 74, 64
9, 525600, Note_on_c, 7, 70, 40
9, 526080, Note_off_c, 7, 70, 64
9, 526080, Note_on_c, 7, 69, 32
9, 526560, Note_off_c, 7, 69, 64
9, 527040, Note_on_c, 7, 70, 32
9, 527520, Note_off_c, 7, 70, 64
9, 528000, Note_on_c, 7, 67, 32
9, 528480, Note_off_c, 7, 67, 64
9, 528960, Note_on_c, 7, 71, 32
9, 529440, Note_off_c, 7, 71, 64
9, 529920, Note_on_c, 7, 72, 32
9, 530400, Note_off_c, 7, 72, 64
9, 530880, Note_on_c, 7, 69, 32
9, 531360, Note_off_c, 7, 69, 64
9, 531840, Note_on_c, 7, 72, 31
9, 532320, Note_off_c, 7, 72, 64
9, 532800, Note_on_c, 7, 74, 36
9, 533280, Note_off_c, 7, 74, 64
9, 533760, Note_on_c, 7, 70, 40
9, 534240, Note_off_c, 7, 70, 64
9, 534720, Note_on_c, 7, 74, 44
9, 535200, Note_off_c, 7, 74, 64
9, 535680, Note_on_c, 7, 76, 49
9, 536160, Note_off_c, 7, 76, 64
9, 536640, Note_on_c, 7, 72, 53
9, 537120, Note_off_c, 7, 72, 64
9, 537600, Note_on_c, 7, 76, 57
9, 538080, Note_off_c, 7, 76, 64
9, 538560, Note_on_c, 7, 77, 61
9, 539040, Note_off_c, 7, 77, 64
9, 539520, Note_on_c, 7, 74, 66
9, 540000, Note_off_c, 7, 74, 64
9, 540480, Note_on_c, 7, 78, 70
9, 540960, Note_off_c, 7, 78, 64
9, 541440, Note_on_c, 7, 79, 74
9, 541920, Note_off_c, 7, 79, 64
9, 542400, Note_on_c, 7, 76, 79
9, 542880, Note_off_c, 7, 76, 64
9, 543360, Note_on_c, 7, 79, 83
9, 543840, Note_off_c, 7, 79, 64
9, 544320, Note_on_c, 7, 81, 87
9, 544800, Note_off_c, 7, 81, 64
9, 545280, Note_on_c, 7, 82, 92
9, 545760, Note_off_c, 7, 82, 64
9, 546240, Note_on_c, 7, 83, 96
9, 546720, Note_off_c, 7, 83, 64
9, 547200, Note_on_c, 7, 84, 92
9, 547680, Note_off_c, 7, 84, 64
9, 548160, Note_on_c, 7, 84, 96
9, 548640, Note_off_c, 7, 84, 64
9, 549120, Note_on_c, 7, 84, 92
9, 549600, Note_off_c, 7, 84, 64
9, 550080, Note_on_c, 7, 84, 96
9, 550560, Note_off_c, 7, 84, 64
9, 551040, Note_on_c, 7, 84, 92
9, 551520, Note_off_c, 7, 84, 64
9, 552000, Note_on_c, 7, 84, 96
9, 552480, Note_off_c, 7, 84, 64
9, 552960, Note_on_c, 7, 84, 80
9, 554400, Note_off_c, 7, 84, 64
9, 554400, Note_on_c, 7, 81, 80
9, 554688, Note_off_c, 7, 81, 64
9, 554880, Note_on_c, 7, 86, 80
9, 556320, Note_off_c, 7, 86, 64
9, 556320, Note_on_c, 7, 82, 80
9, 556608, Note_off_c, 7, 82, 64
9, 556800, Note_on_c, 7, 81, 80
9, 557952, Note_off_c, 7, 81, 64
9, 558240, Note_on_c, 7, 81, 80
9, 558528, Note_off_c, 7, 81, 64
9, 558720, Note_on_c, 7, 79, 80
9, 559008, Note_off_c, 7, 79, 64
9, 559200, Note_on_c, 7, 79, 80
9, 559488, Note_off_c, 7, 79, 64
9, 559680, Note_on_c, 7, 79, 80
9, 559800, Note_off_c, 7, 79, 64
9, 559800, Note_on_c, 7, 81, 80
9, 559920, Note_off_c, 7, 81, 64
9, 559920, Note_on_c, 7, 79, 80
9, 560040, Note_off_c, 7, 79, 64
9, 560040, Note_on_c, 7, 81, 80
9, 560160, Note_off_c, 7, 81, 64
9, 560160, Note_on_c, 7, 79, 80
9, 560280, Note_off_c, 7, 79, 64
9, 560280, Note_on_c, 7, 81, 80
9, 560400, Note_off_c, 7, 81, 64
9, 560400, Note_on_c, 7, 77, 80
9, 560520, Note_off_c, 7, 77, 64
9, 560520, Note_on_c, 7, 79, 80
9, 560640, Note_off_c, 7, 79, 64
9, 560640, Note_on_c, 7, 84, 80
9, 561120, Note_off_c, 7, 84, 64
9, 561120, Note_on_c, 7, 81, 80
9, 561360, Note_off_c, 7, 81, 64
9, 561600, Note_on_c, 7, 86, 80
9, 562080, Note_off_c, 7, 86, 64
9, 562080, Note_on_c, 7, 82, 80
9, 562320, Note_off_c, 7, 82, 64
9, 562560, Note_on_c, 7, 81, 80
9, 562848, Note_off_c, 7, 81, 64
9, 563040, Note_on_c, 7, 81, 80
9, 563328, Note_off_c, 7, 81, 64
9, 563520, Note_on_c, 7, 79, 80
9, 563640, Note_off_c, 7, 79, 64
9, 563640, Note_on_c, 7, 81, 80
9, 563760, Note_off_c, 7, 81, 64
9, 563760, Note_on_c, 7, 79, 80
9, 563880, Note_off_c, 7, 79, 64
9, 563880, Note_on_c, 7, 81, 80
9, 564000, Note_off_c, 7, 81, 64
9, 564000, Note_on_c, 7, 79, 80
9, 564120, Note_off_c, 7, 79, 64
9, 564120, Note_on_c, 7, 81, 80
9, 564240, Note_off_c, 7, 81, 64
9, 564240, Note_on_c, 7, 77, 80
9, 564360, Note_off_c, 7, 77, 64
9, 564360, Note_on_c, 7, 79, 80
9, 564480, Note_off_c, 7, 79, 64
9, 564480, Note_on_c, 7, 77, 56
9, 564864, Note_off_c, 7, 77, 64
9, 566400, Note_on_c, 7, 65, 32
9, 567840, Note_off_c, 7, 65, 64
9, 567840, Note_on_c, 7, 67, 32
9, 568320, Note_off_c, 7, 67, 64
9, 568320, Note_on_c, 7, 69, 32
9, 568800, Note_off_c, 7, 69, 64
9, 570240, Note_on_c, 7, 72, 32
9, 571680, Note_off_c, 7, 72, 64
9, 571680, Note_on_c, 7, 74, 32
9, 572160, Note_off_c, 7, 74, 64
9, 572160, Note_on_c, 7, 76, 32
9, 572640, Note_off_c, 7, 76, 64
9, 574080, Note_on_c, 7, 76, 32
9, 575520, Note_off_c, 7, 76, 64
9, 575520, Note_on_c, 7, 74, 32
9, 576000, Note_off_c, 7, 74, 64
9, 576000, Note_on_c, 7, 72, 32
9, 576480, Note_off_c, 7, 72, 64
9, 577920, Note_on_c, 7, 72, 32
9, 579360, Note_off_c, 7, 72, 64
9, 579360, Note_on_c, 7, 82, 104
9, 579552, Note_off_c, 7, 82, 64
9, 579600, Note_on_c, 7, 82, 104
9, 579792, Note_off_c, 7, 82, 64
9, 579840, Note_on_c, 7, 81, 104
9, 580032, Note_off_c, 7, 81, 64
9, 580080, Note_on_c, 7, 81, 104
9, 580272, Note_off_c, 7, 81, 64
9, 580320, Note_on_c, 7, 82, 104
9, 580512, Note_off_c, 7, 82, 64
9, 580560, Note_on_c, 7, 82, 104
9, 580752, Note_off_c, 7, 82, 64
9, 580800, Note_on_c, 7, 84, 104
9, 580992, Note_off_c, 7, 84, 64
9, 581040, Note_on_c, 7, 84, 104
9, 581232, Note_off_c, 7, 84, 64
9, 581280, Note_on_c, 7, 72, 104
9, 581472, Note_off_c, 7, 72, 64
9, 581520, Note_on_c, 7, 72, 104
9, 581712, Note_off_c, 7, 72, 64
9, 581760, Note_on_c, 7, 77, 104
9, 583142, Note_off_c, 7, 77, 64
9, 583200, Note_on_c, 7, 79, 104
9, 583392, Note_off_c, 7, 79, 64
9, 583440, Note_on_c, 7, 79, 104
9, 583632, Note_off_c, 7, 79, 64
9, 583680, Note_on_c, 7, 81, 104
9, 583872, Note_off_c, 7, 81, 64
9, 583920, Note_on_c, 7, 81, 104
9, 584112, Note_off_c, 7, 81, 64
9, 584160, Note_on_c, 7, 77, 104
9, 584352, Note_off_c, 7, 77, 64
9, 584400, Note_on_c, 7, 77, 104
9, 584592, Note_off_c, 7, 77, 64
9, 584640, Note_on_c, 7, 81, 104
9, 584832, Note_off_c, 7, 81, 64
9, 584880, Note_on_c, 7, 81, 104
9, 585072, Note_off_c, 7, 81, 64
9, 585120, Note_on_c, 7, 82, 104
9, 585312, Note_off_c, 7, 82, 64
9, 585360, Note_on_c, 7, 82, 104
9, 585552, Note_off_c, 7, 82, 64
9, 585600, Note_on_c, 7, 84, 104
9, 586982, Note_off_c, 7, 84, 64
9, 587040, Note_on_c, 7, 86, 104
9, 587232, Note_off_c, 7, 86, 64
9, 587280, Note_on_c, 7, 86, 104
9, 587472, Note_off_c, 7, 86, 64
9, 587520, Note_on_c, 7, 88, 104
9, 587712, Note_off_c, 7, 88, 64
9, 587760, Note_on_c, 7, 88, 104
9, 587952, Note_off_c, 7, 88, 64
9, 588000, Note_on_c, 7, 89, 104
9, 588192, Note_off_c, 7, 89, 64
9, 588240, Note_on_c, 7, 89, 104
9, 588432, Note_off_c, 7, 89, 64
9, 588480, Note_on_c, 7, 91, 104
9, 588672, Note_off_c, 7, 91, 64
9, 588720, Note_on_c, 7, 91, 104
9, 588912, Note_off_c, 7, 91, 64
9, 588960, Note_on_c, 7, 89, 104
9, 589152, Note_off_c, 7, 89, 64
9, 589200, Note_on_c, 7, 89, 104
9, 589392, Note_off_c, 7, 89, 64
9, 589440, Note_on_c, 7, 88, 104
9, 590822, Note_off_c, 7, 88, 64
9, 590880, Note_on_c, 7, 86, 104
9, 591072, Note_off_c, 7, 86, 64
9, 591120, Note_on_c, 7, 86, 104
9, 591312, Note_off_c, 7, 86, 64
9, 591360, Note_on_c, 7, 84, 104
9, 591552, Note_off_c, 7, 84, 64
9, 591600, Note_on_c, 7, 84, 104
9, 591792, Note_off_c, 7, 84, 64
9, 591840, Note_on_c, 7, 86, 104
9, 592032, Note_off_c, 7, 86, 64
9, 592080, Note_on_c, 7, 86, 104
9, 592272, Note_off_c, 7, 86, 64
9, 592320, Note_on_c, 7, 82, 104
9, 592512, Note_off_c, 7, 82, 64
9, 592560, Note_on_c, 7, 82, 104
9, 592752, Note_off_c, 7, 82, 64
9, 592800, Note_on_c, 7, 79, 104
9, 592992, Note_off_c, 7, 79, 64
9, 593040, Note_on_c, 7, 79, 104
9, 593232, Note_off_c, 7, 79, 64
9, 593280, Note_on_c, 7, 76, 104
9, 595200, Note_off_c, 7, 76, 64
9, 597600, Note_on_c, 7, 76, 40
9, 598080, Note_off_c, 7, 76, 64
9, 598080, Note_on_c, 7, 79, 40
9, 598560, Note_off_c, 7, 79, 64
9, 598560, Note_on_c, 7, 82, 40
9, 598944, Note_off_c, 7, 82, 64
9, 599040, Note_on_c, 7, 86, 40
9, 599232, Note_off_c, 7, 86, 64
9, 599280, Note_on_c, 7, 86, 40
9, 599472, Note_off_c, 7, 86, 64
9, 599520, Note_on_c, 7, 86, 40
9, 599712, Note_off_c, 7, 86, 64
9, 599760, Note_on_c, 7, 86, 40
9, 599952, Note_off_c, 7, 86, 64
9, 600000, Note_on_c, 7, 86, 40
9, 600192, Note_off_c, 7, 86, 64
9, 600240, Note_on_c, 7, 86, 40
9, 600432, Note_off_c, 7, 86, 64
9, 600480, Note_on_c, 7, 86, 40
9, 600672, Note_off_c, 7, 86, 64
9, 600720, Note_on_c, 7, 86, 40
9, 600912, Note_off_c, 7, 86, 64
9, 600960, Note_on_c, 7, 86, 40
9, 601152, Note_off_c, 7, 86, 64
9, 601200, Note_on_c, 7, 86, 40
9, 601392, Note_off_c, 7, 86, 64
9, 601440, Note_on_c, 7, 86, 40
9, 601632, Note_off_c, 7, 86, 64
9, 601680, Note_on_c, 7, 86, 40
9, 601872, Note_off_c, 7, 86, 64
9, 601920, Note_on_c, 7, 86, 40
9, 602112, Note_off_c, 7, 86, 64
9, 602160, Note_on_c, 7, 86, 40
9, 602352, Note_off_c, 7, 86, 64
9, 602400, Note_on_c, 7, 86, 40
9, 602592, Note_off_c, 7, 86, 64
9, 602640, Note_on_c, 7, 86, 40
9, 602832, Note_off_c, 7, 86, 64
9, 602880, Note_on_c, 7, 69, 127
9, 602880, Note_on_c, 7, 84, 127
9, 603120, Note_off_c, 7, 84, 64
9, 603120, Note_off_c, 7, 69, 64
9, 604320, Note_on_c, 7, 69, 127
9, 604320, Note_on_c, 7, 77, 127
9, 604512, Note_off_c, 7, 77, 64
9, 604512, Note_off_c, 7, 69, 64
9, 604800, Note_on_c, 7, 67, 127
9, 604800, Note_on_c, 7, 77, 127
9, 605040, Note_off_c, 7, 77, 64
9, 605040, Note_off_c, 7, 67, 64
9, 605760, Note_on_c, 7, 76, 127
9, 605760, Note_on_c, 7, 67, 127
9, 606000, Note_off_c, 7, 67, 64
9, 606000, Note_off_c, 7, 76, 64
9, 606720, Note_on_c, 7, 86, 40
9, 606912, Note_off_c, 7, 86, 64
9, 606960, Note_on_c, 7, 86, 40
9, 607152, Note_off_c, 7, 86, 64
9, 607200, Note_on_c, 7, 86, 40
9, 607392, Note_off_c, 7, 86, 64
9, 607440, Note_on_c, 7, 86, 40
9, 607632, Note_off_c, 7, 86, 64
9, 607680, Note_on_c, 7, 86, 40
9, 607872, Note_off_c, 7, 86, 64
9, 607920, Note_on_c, 7, 86, 40
9, 608112, Note_off_c, 7, 86, 64
9, 608160, Note_on_c, 7, 86, 40
9, 608352, Note_off_c, 7, 86, 64
9, 608400, Note_on_c, 7, 86, 40
9, 608592, Note_off_c, 7, 86, 64
9, 608640, Note_on_c, 7, 86, 40
9, 608832, Note_off_c, 7, 86, 64
9, 608880, Note_on_c, 7, 86, 40
9, 609072, Note_off_c, 7, 86, 64
9, 609120, Note_on_c, 7, 86, 40
9, 609312, Note_off_c, 7, 86, 64
9, 609360, Note_on_c, 7, 86, 40
9, 609552, Note_off_c, 7, 86, 64
9, 609600, Note_on_c, 7, 86, 40
9, 609792, Note_off_c, 7, 86, 64
9, 609840, Note_on_c, 7, 86, 40
9, 610032, Note_off_c, 7, 86, 64
9, 610080, Note_on_c, 7, 86, 40
9, 610272, Note_off_c, 7, 86, 64
9, 610320, Note_on_c, 7, 86, 40
9, 610512, Note_off_c, 7, 86, 64
9, 610560, Note_on_c, 7, 84, 127
9, 610560, Note_on_c, 7, 69, 127
9, 610800, Note_off_c, 7, 69, 64
9, 610800, Note_off_c, 7, 84, 64
9, 612000, Note_on_c, 7, 77, 127
9, 612000, Note_on_c, 7, 69, 127
9, 612192, Note_off_c, 7, 69, 64
9, 612192, Note_off_c, 7, 77, 64
9, 612480, Note_on_c, 7, 77, 127
9, 612480, Note_on_c, 7, 67, 127
9, 612720, Note_off_c, 7, 67, 64
9, 612720, Note_off_c, 7, 77, 64
9, 613440, Note_on_c, 7, 67, 127
9, 613440, Note_on_c, 7, 76, 127
9, 613680, Note_off_c, 7, 76, 64
9, 613680, Note_off_c, 7, 67, 64
9, 614400, Note_on_c, 7, 86, 32
9, 614592, Note_off_c, 7, 86, 64
9, 614640, Note_on_c, 7, 86, 33
9, 614832, Note_off_c, 7, 86, 64
9, 614880, Note_on_c, 7, 86, 35
9, 615072, Note_off_c, 7, 86, 64
9, 615120, Note_on_c, 7, 86, 36
9, 615312, Note_off_c, 7, 86, 64
9, 615360, Note_on_c, 7, 86, 38
9, 615552, Note_off_c, 7, 86, 64
9, 615600, Note_on_c, 7, 86, 39
9, 615792, Note_off_c, 7, 86, 64
9, 615840, Note_on_c, 7, 86, 41
9, 616032, Note_off_c, 7, 86, 64
9, 616080, Note_on_c, 7, 86, 42
9, 616272, Note_off_c, 7, 86, 64
9, 616320, Note_on_c, 7, 86, 43
9, 616512, Note_off_c, 7, 86, 64
9, 616560, Note_on_c, 7, 86, 45
9, 616752, Note_off_c, 7, 86, 64
9, 616800, Note_on_c, 7, 86, 46
9, 616992, Note_off_c, 7, 86, 64
9, 617040, Note_on_c, 7, 86, 48
9, 617232, Note_off_c, 7, 86, 64
9, 617280, Note_on_c, 7, 86, 49
9, 617472, Note_off_c, 7, 86, 64
9, 617520, Note_on_c, 7, 86, 50
9, 617712, Note_off_c, 7, 86, 64
9, 617760, Note_on_c, 7, 86, 52
9, 617952, Note_off_c, 7, 86, 64
9, 618000, Note_on_c, 7, 86, 53
9, 618192, Note_off_c, 7, 86, 64
9, 618240, Note_on_c, 7, 86, 75
9, 618432, Note_off_c, 7, 86, 64
9, 618480, Note_on_c, 7, 86, 56
9, 618672, Note_off_c, 7, 86, 64
9, 618720, Note_on_c, 7, 86, 58
9, 618912, Note_off_c, 7, 86, 64
9, 618960, Note_on_c, 7, 86, 59
9, 619152, Note_off_c, 7, 86, 64
9, 619200, Note_on_c, 7, 86, 60
9, 619392, Note_off_c, 7, 86, 64
9, 619440, Note_on_c, 7, 86, 62
9, 619632, Note_off_c, 7, 86, 64
9, 619680, Note_on_c, 7, 86, 63
9, 619872, Note_off_c, 7, 86, 64
9, 619920, Note_on_c, 7, 86, 65
9, 620112, Note_off_c, 7, 86, 64
9, 620160, Note_on_c, 7, 84, 86
9, 620352, Note_off_c, 7, 84, 64
9, 620400, Note_on_c, 7, 84, 67
9, 620592, Note_off_c, 7, 84, 64
9, 620640, Note_on_c, 7, 84, 69
9, 620832, Note_off_c, 7, 84, 64
9, 620880, Note_on_c, 7, 84, 70
9, 621072, Note_off_c, 7, 84, 64
9, 621120, Note_on_c, 7, 84, 72
9, 621312, Note_off_c, 7, 84, 64
9, 621360, Note_on_c, 7, 84, 73
9, 621552, Note_off_c, 7, 84, 64
9, 621600, Note_on_c, 7, 84, 75
9, 621792, Note_off_c, 7, 84, 64
9, 621840, Note_on_c, 7, 84, 76
9, 622032, Note_off_c, 7, 84, 64
9, 622080, Note_on_c, 7, 84, 97
9, 622272, Note_off_c, 7, 84, 64
9, 622320, Note_on_c, 7, 84, 79
9, 622512, Note_off_c, 7, 84, 64
9, 622560, Note_on_c, 7, 84, 80
9, 622752, Note_off_c, 7, 84, 64
9, 622800, Note_on_c, 7, 84, 82
9, 622992, Note_off_c, 7, 84, 64
9, 623040, Note_on_c, 7, 84, 83
9, 623232, Note_off_c, 7, 84, 64
9, 623280, Note_on_c, 7, 84, 84
9, 623472, Note_off_c, 7, 84, 64
9, 623520, Note_on_c, 7, 84, 86
9, 623712, Note_off_c, 7, 84, 64
9, 623760, Note_on_c, 7, 84, 87
9, 623952, Note_off_c, 7, 84, 64
9, 624000, Note_on_c, 7, 84, 109
9, 624192, Note_off_c, 7, 84, 64
9, 624240, Note_on_c, 7, 84, 90
9, 624432, Note_off_c, 7, 84, 64
9, 624480, Note_on_c, 7, 84, 92
9, 624672, Note_off_c, 7, 84, 64
9, 624720, Note_on_c, 7, 84, 93
9, 624912, Note_off_c, 7, 84, 64
9, 624960, Note_on_c, 7, 84, 94
9, 625152, Note_off_c, 7, 84, 64
9, 625200, Note_on_c, 7, 84, 96
9, 625392, Note_off_c, 7, 84, 64
9, 625440, Note_on_c, 7, 84, 97
9, 625632, Note_off_c, 7, 84, 64
9, 625680, Note_on_c, 7, 84, 99
9, 625872, Note_off_c, 7, 84, 64
9, 625920, Note_on_c, 7, 84, 127
9, 626112, Note_off_c, 7, 84, 64
9, 626160, Note_on_c, 7, 89, 127
9, 626352, Note_off_c, 7, 89, 64
9, 626400, Note_on_c, 7, 89, 127
9, 626592, Note_off_c, 7, 89, 64
9, 626640, Note_on_c, 7, 89, 127
9, 626832, Note_off_c, 7, 89, 64
9, 626880, Note_on_c, 7, 89, 127
9, 627072, Note_off_c, 7, 89, 64
9, 627120, Note_on_c, 7, 89, 127
9, 627312, Note_off_c, 7, 89, 64
9, 627360, Note_on_c, 7, 89, 127
9, 627552, Note_off_c, 7, 89, 64
9, 627600, Note_on_c, 7, 89, 127
9, 627792, Note_off_c, 7, 89, 64
9, 627840, Note_on_c, 7, 89, 127
9, 628032, Note_off_c, 7, 89, 64
9, 628080, Note_on_c, 7, 89, 127
9, 628272, Note_off_c, 7, 89, 64
9, 628320, Note_on_c, 7, 89, 127
9, 628512, Note_off_c, 7, 89, 64
9, 628560, Note_on_c, 7, 89, 127
9, 628752, Note_off_c, 7, 89, 64
9, 628800, Note_on_c, 7, 89, 127
9, 628992, Note_off_c, 7, 89, 64
9, 629040, Note_on_c, 7, 89, 127
9, 629232, Note_off_c, 7, 89, 64
9, 629280, Note_on_c, 7, 89, 127
9, 629472, Note_off_c, 7, 89, 64
9, 629520, Note_on_c, 7, 89, 127
9, 629712, Note_off_c, 7, 89, 64
9, 629760, Note_on_c, 7, 89, 127
9, 629952, Note_off_c, 7, 89, 64
9, 630000, Note_on_c, 7, 89, 127
9, 630192, Note_off_c, 7, 89, 64
9, 630240, Note_on_c, 7, 89, 127
9, 630432, Note_off_c, 7, 89, 64
9, 630480, Note_on_c, 7, 89, 127
9, 630672, Note_off_c, 7, 89, 64
9, 630720, Note_on_c, 7, 89, 127
9, 630912, Note_off_c, 7, 89, 64
9, 630960, Note_on_c, 7, 89, 127
9, 631152, Note_off_c, 7, 89, 64
9, 631200, Note_on_c, 7, 89, 127
9, 631392, Note_off_c, 7, 89, 64
9, 631440, Note_on_c, 7, 89, 127
9, 631632, Note_off_c, 7, 89, 64
9, 631680, Note_on_c, 7, 88, 127
9, 631872, Note_off_c, 7, 88, 64
9, 631920, Note_on_c, 7, 88, 127
9, 632112, Note_off_c, 7, 88, 64
9, 632160, Note_on_c, 7, 88, 127
9, 632352, Note_off_c, 7, 88, 64
9, 632400, Note_on_c, 7, 88, 127
9, 632592, Note_off_c, 7, 88, 64
9, 632640, Note_on_c, 7, 88, 127
9, 632832, Note_off_c, 7, 88, 64
9, 632880, Note_on_c, 7, 88, 127
9, 633072, Note_off_c, 7, 88, 64
9, 633120, Note_on_c, 7, 88, 127
9, 633312, Note_off_c, 7, 88, 64
9, 633360, Note_on_c, 7, 88, 127
9, 633552, Note_off_c, 7, 88, 64
9, 633600, Note_on_c, 7, 89, 127
9, 633984, Note_off_c, 7, 89, 64
9, 634080, Note_on_c, 7, 81, 112
9, 634992, Note_off_c, 7, 81, 64
9, 635040, Note_on_c, 7, 82, 112
9, 635976, Note_off_c, 7, 82, 64
9, 636000, Note_on_c, 7, 84, 112
9, 636912, Note_off_c, 7, 84, 64
9, 636960, Note_on_c, 7, 77, 112
9, 637896, Note_off_c, 7, 77, 64
9, 637920, Note_on_c, 7, 79, 112
9, 638832, Note_off_c, 7, 79, 64
9, 638880, Note_on_c, 7, 81, 112
9, 639816, Note_off_c, 7, 81, 64
9, 639840, Note_on_c, 7, 72, 112
9, 640752, Note_off_c, 7, 72, 64
9, 640800, Note_on_c, 7, 70, 112
9, 640800, Note_on_c, 7, 76, 112
9, 640800, Note_on_c, 7, 67, 112
9, 641040, Note_off_c, 7, 67, 64
9, 641040, Note_off_c, 7, 76, 64
9, 641040, Note_off_c, 7, 70, 64
9, 641280, Note_on_c, 7, 69, 112
9, 641280, Note_on_c, 7, 77, 112
9, 641520, Note_off_c, 7, 77, 64
9, 641520, Note_off_c, 7, 69, 64
9, 641760, Note_on_c, 7, 81, 112
9, 642672, Note_off_c, 7, 81, 64
9, 642720, Note_on_c, 7, 82, 112
9, 643656, Note_off_c, 7, 82, 64
9, 643680, Note_on_c, 7, 84, 112
9, 644592, Note_off_c, 7, 84, 64
9, 644640, Note_on_c, 7, 77, 112
9, 645576, Note_off_c, 7, 77, 64
9, 645600, Note_on_c, 7, 79, 112
9, 646512, Note_off_c, 7, 79, 64
9, 646560, Note_on_c, 7, 81, 112
9, 647496, Note_off_c, 7, 81, 64
9, 647520, Note_on_c, 7, 72, 112
9, 648432, Note_off_c, 7, 72, 64
9, 648480, Note_on_c, 7, 70, 112
9, 648480, Note_on_c, 7, 76, 112
9, 648480, Note_on_c, 7, 67, 112
9, 648720, Note_off_c, 7, 67, 64
9, 648720, Note_off_c, 7, 76, 64
9, 648720, Note_off_c, 7, 70, 64
9, 648960, Note_on_c, 7, 77, 112
9, 648960, Note_on_c, 7, 69, 112
9, 649200, Note_off_c, 7, 69, 64
9, 649200, Note_off_c, 7, 77, 64
9, 649440, Note_on_c, 7, 79, 112
9, 650340, Note_off_c, 7, 79, 64
9, 650400, Note_on_c, 7, 81, 112
9, 651312, Note_off_c, 7, 81, 64
9, 651360, Note_on_c, 7, 82, 112
9, 652260, Note_off_c, 7, 82, 64
9, 652320, Note_on_c, 7, 84, 112
9, 652992, Note_off_c, 7, 84, 64
9, 653280, Note_on_c, 7, 81, 90
9, 653472, Note_off_c, 7, 81, 64
9, 653760, Note_on_c, 7, 77, 90
9, 653952, Note_off_c, 7, 77, 64
9, 654240, Note_on_c, 7, 81, 90
9, 654432, Note_off_c, 7, 81, 64
9, 654720, Note_on_c, 7, 72, 90
9, 654912, Note_off_c, 7, 72, 64
9, 655200, Note_on_c, 7, 77, 90
9, 655392, Note_off_c, 7, 77, 64
9, 655680, Note_on_c, 7, 69, 90
9, 655872, Note_off_c, 7, 69, 64
9, 656160, Note_on_c, 7, 72, 90
9, 656352, Note_off_c, 7, 72, 64
9, 656640, Note_on_c, 7, 65, 90
9, 656832, Note_off_c, 7, 65, 64
9, 657120, Note_on_c, 7, 69, 90
9, 657312, Note_off_c, 7, 69, 64
9, 657600, Note_on_c, 7, 60, 90
9, 657792, Note_off_c, 7, 60, 64
9, 658080, Note_on_c, 7, 65, 90
9, 658272, Note_off_c, 7, 65, 64
9, 658560, Note_on_c, 7, 57, 90
9, 658752, Note_off_c, 7, 57, 64
9, 660240, Note_on_c, 7, 77, 80
9, 660320, Note_off_c, 7, 77, 64
9, 660320, Note_on_c, 7, 79, 80
9, 660400, Note_off_c, 7, 79, 64
9, 660400, Note_on_c, 7, 81, 80
9, 660480, Note_off_c, 7, 81, 64
9, 660480, Note_on_c, 7, 82, 112
9, 660672, Note_off_c, 7, 82, 64
9, 660960, Note_on_c, 7, 79, 90
9, 661152, Note_off_c, 7, 79, 64
9, 661440, Note_on_c, 7, 76, 90
9, 661632, Note_off_c, 7, 76, 64
9, 661920, Note_on_c, 7, 79, 90
9, 662112, Note_off_c, 7, 79, 64
9, 662400, Note_on_c, 7, 70, 90
9, 662592, Note_off_c, 7, 70, 64
9, 662880, Note_on_c, 7, 76, 90
9, 663072, Note_off_c, 7, 76, 64
9, 663360, Note_on_c, 7, 67, 90
9, 663552, Note_off_c, 7, 67, 64
9, 663840, Note_on_c, 7, 70, 90
9, 664032, Note_off_c, 7, 70, 64
9, 664320, Note_on_c, 7, 64, 90
9, 664512, Note_off_c, 7, 64, 64
9, 664800, Note_on_c, 7, 67, 90
9, 664992, Note_off_c, 7, 67, 64
9, 665280, Note_on_c, 7, 58, 90
9, 665472, Note_off_c, 7, 58, 64
9, 665760, Note_on_c, 7, 64, 90
9, 665952, Note_off_c, 7, 64, 64
9, 666240, Note_on_c, 7, 55, 90
9, 666432, Note_off_c, 7, 55, 64
9, 667920, Note_on_c, 7, 76, 80
9, 668000, Note_off_c, 7, 76, 64
9, 668000, Note_on_c, 7, 77, 80
9, 668080, Note_off_c, 7, 77, 64
9, 668080, Note_on_c, 7, 79, 80
9, 668160, Note_off_c, 7, 79, 64
9, 668160, Note_on_c, 7, 81, 112
9, 668352, Note_off_c, 7, 81, 64
9, 668640, Note_on_c, 7, 77, 90
9, 668832, Note_off_c, 7, 77, 64
9, 669120, Note_on_c, 7, 72, 90
9, 669312, Note_off_c, 7, 72, 64
9, 669600, Note_on_c, 7, 77, 90
9, 669792, Note_off_c, 7, 77, 64
9, 671760, Note_on_c, 7, 74, 80
9, 671840, Note_off_c, 7, 74, 64
9, 671840, Note_on_c, 7, 76, 80
9, 671920, Note_off_c, 7, 76, 64
9, 671920, Note_on_c, 7, 77, 80
9, 672000, Note_off_c, 7, 77, 64
9, 672000, Note_on_c, 7, 79, 112
9, 672192, Note_off_c, 7, 79, 64
9, 672480, Note_on_c, 7, 74, 90
9, 672672, Note_off_c, 7, 74, 64
9, 672960, Note_on_c, 7, 70, 90
9, 673152, Note_off_c, 7, 70, 64
9, 673440, Note_on_c, 7, 74, 90
9, 673632, Note_off_c, 7, 74, 64
9, 675600, Note_on_c, 7, 72, 80
9, 675680, Note_off_c, 7, 72, 64
9, 675680, Note_on_c, 7, 74, 80
9, 675760, Note_off_c, 7, 74, 64
9, 675760, Note_on_c, 7, 76, 80
9, 675840, Note_off_c, 7, 76, 64
9, 675840, Note_on_c, 7, 77, 112
9, 676032, Note_off_c, 7, 77, 64
9, 676320, Note_on_c, 7, 72, 90
9, 676512, Note_off_c, 7, 72, 64
9, 676800, Note_on_c, 7, 69, 90
9, 676992, Note_off_c, 7, 69, 64
9, 677280, Note_on_c, 7, 72, 90
9, 677472, Note_off_c, 7, 72, 64
9, 679440, Note_on_c, 7, 67, 80
9, 679520, Note_off_c, 7, 67, 64
9, 679520, Note_on_c, 7, 69, 80
9, 679600, Note_off_c, 7, 69, 64
9, 679600, Note_on_c, 7, 71, 80
9, 679680, Note_off_c, 7, 71, 64
9, 679680, Note_on_c, 7, 72, 112
9, 679872, Note_off_c, 7, 72, 64
9, 680160, Note_on_c, 7, 67, 72
9, 680352, Note_off_c, 7, 67, 64
9, 680640, Note_on_c, 7, 64, 72
9, 680832, Note_off_c, 7, 64, 64
9, 681120, Note_on_c, 7, 67, 72
9, 681312, Note_off_c, 7, 67, 64
9, 683280, Note_on_c, 7, 64, 58
9, 683360, Note_off_c, 7, 64, 64
9, 683360, Note_on_c, 7, 65, 58
9, 683440, Note_off_c, 7, 65, 64
9, 683440, Note_on_c, 7, 67, 58
9, 683520, Note_off_c, 7, 67, 64
9, 683520, Note_on_c, 7, 69, 28
9, 683520, Note_on_c, 7, 57, 28
9, 686340, Note_off_c, 7, 57, 64
9, 686340, Note_off_c, 7, 69, 64
9, 686880, Note_on_c, 7, 57, 24
9, 687000, Note_off_c, 7, 57, 64
9, 687000, Note_on_c, 7, 59, 24
9, 687120, Note_off_c, 7, 59, 64
9, 687120, Note_on_c, 7, 61, 24
9, 687240, Note_off_c, 7, 61, 64
9, 687240, Note_on_c, 7, 62, 24
9, 687360, Note_off_c, 7, 62, 64
9, 687360, Note_on_c, 7, 64, 24
9, 690432, Note_off_c, 7, 64, 64
9, 690720, Note_on_c, 7, 57, 24
9, 690840, Note_off_c, 7, 57, 64
9, 690840, Note_on_c, 7, 59, 24
9, 690960, Note_off_c, 7, 59, 64
9, 690960, Note_on_c, 7, 61, 24
9, 691080, Note_off_c, 7, 61, 64
9, 691080, Note_on_c, 7, 62, 24
9, 691200, Note_off_c, 7, 62, 64
9, 691200, Note_on_c, 7, 64, 24
9, 692352, Note_off_c, 7, 64, 64
9, 692640, Note_on_c, 7, 57, 24
9, 692760, Note_off_c, 7, 57, 64
9, 692760, Note_on_c, 7, 59, 24
9, 692880, Note_off_c, 7, 59, 64
9, 692880, Note_on_c, 7, 61, 24
9, 693000, Note_off_c, 7, 61, 64
9, 693000, Note_on_c, 7, 62, 24
9, 693120, Note_off_c, 7, 62, 64
9, 693120, Note_on_c, 7, 64, 24
9, 694272, Note_off_c, 7, 64, 64
9, 694560, Note_on_c, 7, 57, 24
9, 694680, Note_off_c, 7, 57, 64
9, 694680, Note_on_c, 7, 59, 24
9, 694800, Note_off_c, 7, 59, 64
9, 694800, Note_on_c, 7, 61, 24
9, 694920, Note_off_c, 7, 61, 64
9, 694920, Note_on_c, 7, 62, 24
9, 695040, Note_off_c, 7, 62, 64
9, 695040, Note_on_c, 7, 64, 24
9, 696192, Note_off_c, 7, 64, 64
9, 696480, Note_on_c, 7, 57, 24
9, 696600, Note_off_c, 7, 57, 64
9, 696600, Note_on_c, 7, 59, 24
9, 696720, Note_off_c, 7, 59, 64
9, 696720, Note_on_c, 7, 61, 24
9, 696840, Note_off_c, 7, 61, 64
9, 696840, Note_on_c, 7, 62, 24
9, 696960, Note_off_c, 7, 62, 64
9, 696960, Note_on_c, 7, 64, 24
9, 698112, Note_off_c, 7, 64, 64
9, 698400, Note_on_c, 7, 57, 24
9, 698520, Note_off_c, 7, 57, 64
9, 698520, Note_on_c, 7, 59, 24
9, 698640, Note_off_c, 7, 59, 64
9, 698640, Note_on_c, 7, 61, 24
9, 698760, Note_off_c, 7, 61, 64
9, 698760, Note_on_c, 7, 62, 24
9, 698880, Note_off_c, 7, 62, 64
9, 698880, Note_on_c, 7, 64, 24
9, 700032, Note_off_c, 7, 64, 64
9, 700320, Note_on_c, 7, 61, 24
9, 700440, Note_off_c, 7, 61, 64
9, 700440, Note_on_c, 7, 62, 24
9, 700560, Note_off_c, 7, 62, 64
9, 700560, Note_on_c, 7, 64, 24
9, 700680, Note_off_c, 7, 64, 64
9, 700680, Note_on_c, 7, 66, 24
9, 700800, Note_off_c, 7, 66, 64
9, 700800, Note_on_c, 7, 67, 24
9, 701952, Note_off_c, 7, 67, 64
9, 702240, Note_on_c, 7, 61, 24
9, 702360, Note_off_c, 7, 61, 64
9, 702360, Note_on_c, 7, 62, 24
9, 702480, Note_off_c, 7, 62, 64
9, 702480, Note_on_c, 7, 64, 24
9, 702600, Note_off_c, 7, 64, 64
9, 702600, Note_on_c, 7, 66, 24
9, 702720, Note_off_c, 7, 66, 64
9, 702720, Note_on_c, 7, 67, 24
9, 703872, Note_off_c, 7, 67, 64
9, 704160, Note_on_c, 7, 61, 24
9, 704280, Note_off_c, 7, 61, 64
9, 704280, Note_on_c, 7, 62, 24
9, 704400, Note_off_c, 7, 62, 64
9, 704400, Note_on_c, 7, 64, 24
9, 704520, Note_off_c, 7, 64, 64
9, 704520, Note_on_c, 7, 66, 24
9, 704640, Note_off_c, 7, 66, 64
9, 704640, Note_on_c, 7, 67, 24
9, 705792, Note_off_c, 7, 67, 64
9, 706080, Note_on_c, 7, 61, 24
9, 706200, Note_off_c, 7, 61, 64
9, 706200, Note_on_c, 7, 62, 24
9, 706320, Note_off_c, 7, 62, 64
9, 706320, Note_on_c, 7, 64, 24
9, 706440, Note_off_c, 7, 64, 64
9, 706440, Note_on_c, 7, 66, 24
9, 706560, Note_off_c, 7, 66, 64
9, 706560, Note_on_c, 7, 67, 24
9, 706752, Note_off_c, 7, 67, 64
9, 707040, Note_on_c, 7, 67, 30
9, 707232, Note_off_c, 7, 67, 64
9, 707520, Note_on_c, 7, 64, 37
9, 707712, Note_off_c, 7, 64, 64
9, 708000, Note_on_c, 7, 67, 44
9, 708192, Note_off_c, 7, 67, 64
9, 708480, Note_on_c, 7, 64, 52
9, 708672, Note_off_c, 7, 64, 64
9, 708960, Note_on_c, 7, 67, 59
9, 709152, Note_off_c, 7, 67, 64
9, 709440, Note_on_c, 7, 64, 67
9, 709632, Note_off_c, 7, 64, 64
9, 709920, Note_on_c, 7, 66, 74
9, 710112, Note_off_c, 7, 66, 64
9, 710400, Note_on_c, 7, 62, 80
9, 710592, Note_off_c, 7, 62, 64
9, 710640, Note_on_c, 7, 69, 32
9, 710832, Note_off_c, 7, 69, 64
9, 710880, Note_on_c, 7, 69, 32
9, 711072, Note_off_c, 7, 69, 64
9, 711120, Note_on_c, 7, 69, 32
9, 711312, Note_off_c, 7, 69, 64
9, 711360, Note_on_c, 7, 69, 32
9, 711552, Note_off_c, 7, 69, 64
9, 711600, Note_on_c, 7, 69, 32
9, 711792, Note_off_c, 7, 69, 64
9, 711840, Note_on_c, 7, 69, 32
9, 712032, Note_off_c, 7, 69, 64
9, 712080, Note_on_c, 7, 69, 32
9, 712272, Note_off_c, 7, 69, 64
9, 712320, Note_on_c, 7, 69, 32
9, 712512, Note_off_c, 7, 69, 64
9, 712560, Note_on_c, 7, 69, 32
9, 712752, Note_off_c, 7, 69, 64
9, 712800, Note_on_c, 7, 69, 32
9, 712992, Note_off_c, 7, 69, 64
9, 713040, Note_on_c, 7, 69, 32
9, 713232, Note_off_c, 7, 69, 64
9, 713280, Note_on_c, 7, 69, 32
9, 713472, Note_off_c, 7, 69, 64
9, 713520, Note_on_c, 7, 69, 32
9, 713712, Note_off_c, 7, 69, 64
9, 713760, Note_on_c, 7, 69, 32
9, 713952, Note_off_c, 7, 69, 64
9, 714000, Note_on_c, 7, 69, 32
9, 714192, Note_off_c, 7, 69, 64
9, 714240, Note_on_c, 7, 71, 32
9, 714432, Note_off_c, 7, 71, 64
9, 714480, Note_on_c, 7, 71, 32
9, 714672, Note_off_c, 7, 71, 64
9, 714720, Note_on_c, 7, 71, 32
9, 714912, Note_off_c, 7, 71, 64
9, 714960, Note_on_c, 7, 71, 32
9, 715152, Note_off_c, 7, 71, 64
9, 715200, Note_on_c, 7, 71, 32
9, 715392, Note_off_c, 7, 71, 64
9, 715440, Note_on_c, 7, 71, 32
9, 715632, Note_off_c, 7, 71, 64
9, 715680, Note_on_c, 7, 71, 32
9, 715872, Note_off_c, 7, 71, 64
9, 715920, Note_on_c, 7, 71, 32
9, 716112, Note_off_c, 7, 71, 64
9, 716160, Note_on_c, 7, 73, 32
9, 716352, Note_off_c, 7, 73, 64
9, 716400, Note_on_c, 7, 73, 32
9, 716592, Note_off_c, 7, 73, 64
9, 716640, Note_on_c, 7, 73, 32
9, 716832, Note_off_c, 7, 73, 64
9, 716880, Note_on_c, 7, 73, 32
9, 717072, Note_off_c, 7, 73, 64
9, 717120, Note_on_c, 7, 73, 32
9, 717312, Note_off_c, 7, 73, 64
9, 717360, Note_on_c, 7, 73, 32
9, 717552, Note_off_c, 7, 73, 64
9, 717600, Note_on_c, 7, 73, 32
9, 717792, Note_off_c, 7, 73, 64
9, 717840, Note_on_c, 7, 73, 32
9, 718032, Note_off_c, 7, 73, 64
9, 718080, Note_on_c, 7, 74, 38
9, 720960, Note_off_c, 7, 74, 64
9, 720960, Note_on_c, 7, 76, 38
9, 721440, Note_off_c, 7, 76, 64
9, 721440, Note_on_c, 7, 78, 38
9, 721800, Note_off_c, 7, 78, 64
9, 721800, Note_on_c, 7, 81, 38
9, 721920, Note_off_c, 7, 81, 64
9, 721920, Note_on_c, 7, 79, 38
9, 722880, Note_off_c, 7, 79, 64
9, 722880, Note_on_c, 7, 78, 38
9, 723360, Note_off_c, 7, 78, 64
9, 723360, Note_on_c, 7, 79, 38
9, 723840, Note_off_c, 7, 79, 64
9, 723840, Note_on_c, 7, 76, 38
9, 724800, Note_off_c, 7, 76, 64
9, 724800, Note_on_c, 7, 81, 38
9, 725760, Note_off_c, 7, 81, 64
9, 725760, Note_on_c, 7, 74, 32
9, 726097, Note_off_c, 7, 74, 64
9, 726240, Note_on_c, 7, 79, 32
9, 726408, Note_off_c, 7, 79, 64
9, 726720, Note_on_c, 7, 74, 32
9, 726888, Note_off_c, 7, 74, 64
9, 727200, Note_on_c, 7, 79, 32
9, 727368, Note_off_c, 7, 79, 64
9, 727680, Note_on_c, 7, 70, 32
9, 727848, Note_off_c, 7, 70, 64
9, 728160, Note_on_c, 7, 74, 32
9, 728328, Note_off_c, 7, 74, 64
9, 728640, Note_on_c, 7, 67, 32
9, 728808, Note_off_c, 7, 67, 64
9, 729120, Note_on_c, 7, 70, 32
9, 729288, Note_off_c, 7, 70, 64
9, 729600, Note_on_c, 7, 63, 32
9, 729768, Note_off_c, 7, 63, 64
9, 730080, Note_on_c, 7, 72, 32
9, 730248, Note_off_c, 7, 72, 64
9, 730560, Note_on_c, 7, 69, 32
9, 730728, Note_off_c, 7, 69, 64
9, 731040, Note_on_c, 7, 67, 32
9, 731208, Note_off_c, 7, 67, 64
9, 731520, Note_on_c, 7, 66, 32
9, 731688, Note_off_c, 7, 66, 64
9, 732000, Note_on_c, 7, 74, 32
9, 732168, Note_off_c, 7, 74, 64
9, 732480, Note_on_c, 7, 72, 32
9, 732648, Note_off_c, 7, 72, 64
9, 732960, Note_on_c, 7, 69, 32
9, 733128, Note_off_c, 7, 69, 64
9, 733440, Note_on_c, 7, 79, 38
9, 736320, Note_off_c, 7, 79, 64
9, 736320, Note_on_c, 7, 80, 34
9, 736800, Note_off_c, 7, 80, 64
9, 736800, Note_on_c, 7, 82, 38
9, 737280, Note_off_c, 7, 82, 64
9, 737280, Note_on_c, 7, 84, 38
9, 738240, Note_off_c, 7, 84, 64
9, 738240, Note_on_c, 7, 82, 34
9, 738720, Note_off_c, 7, 82, 64
9, 738720, Note_on_c, 7, 84, 38
9, 739200, Note_off_c, 7, 84, 64
9, 739200, Note_on_c, 7, 86, 38
9, 740160, Note_off_c, 7, 86, 64
9, 740160, Note_on_c, 7, 84, 34
9, 740640, Note_off_c, 7, 84, 64
9, 740640, Note_on_c, 7, 86, 38
9, 741120, Note_off_c, 7, 86, 64
9, 741120, Note_on_c, 7, 87, 32
9, 741600, Note_off_c, 7, 87, 64
9, 748800, Note_on_c, 7, 75, 38
9, 751680, Note_off_c, 7, 75, 64
9, 751680, Note_on_c, 7, 77, 39
9, 752160, Note_off_c, 7, 77, 64
9, 752160, Note_on_c, 7, 79, 44
9, 752640, Note_off_c, 7, 79, 64
9, 752640, Note_on_c, 7, 80, 51
9, 753600, Note_off_c, 7, 80, 64
9, 753600, Note_on_c, 7, 79, 52
9, 754080, Note_off_c, 7, 79, 64
9, 754080, Note_on_c, 7, 80, 59
9, 754560, Note_off_c, 7, 80, 64
9, 754560, Note_on_c, 7, 77, 68
9, 755520, Note_off_c, 7, 77, 64
9, 755520, Note_on_c, 7, 82, 69
9, 756000, Note_off_c, 7, 82, 64
9, 756240, Note_on_c, 7, 82, 127
9, 756320, Note_off_c, 7, 82, 64
9, 756320, Note_on_c, 7, 84, 127
9, 756400, Note_off_c, 7, 84, 64
9, 756400, Note_on_c, 7, 86, 127
9, 756480, Note_off_c, 7, 86, 64
9, 756480, Note_on_c, 7, 87, 127
9, 760032, Note_off_c, 7, 87, 64
9, 760080, Note_on_c, 7, 82, 127
9, 760160, Note_off_c, 7, 82, 64
9, 760160, Note_on_c, 7, 84, 127
9, 760240, Note_off_c, 7, 84, 64
9, 760240, Note_on_c, 7, 86, 127
9, 760320, Note_off_c, 7, 86, 64
9, 760320, Note_on_c, 7, 87, 127
9, 761952, Note_off_c, 7, 87, 64
9, 762000, Note_on_c, 7, 82, 127
9, 762080, Note_off_c, 7, 82, 64
9, 762080, Note_on_c, 7, 84, 127
9, 762160, Note_off_c, 7, 84, 64
9, 762160, Note_on_c, 7, 86, 127
9, 762240, Note_off_c, 7, 86, 64
9, 762240, Note_on_c, 7, 87, 127
9, 762624, Note_off_c, 7, 87, 64
9, 762960, Note_on_c, 7, 82, 127
9, 763040, Note_off_c, 7, 82, 64
9, 763040, Note_on_c, 7, 84, 127
9, 763120, Note_off_c, 7, 84, 64
9, 763120, Note_on_c, 7, 86, 127
9, 763200, Note_off_c, 7, 86, 64
9, 763200, Note_on_c, 7, 87, 127
9, 763584, Note_off_c, 7, 87, 64
9, 763920, Note_on_c, 7, 82, 127
9, 764000, Note_off_c, 7, 82, 64
9, 764000, Note_on_c, 7, 84, 127
9, 764080, Note_off_c, 7, 84, 64
9, 764080, Note_on_c, 7, 86, 127
9, 764160, Note_off_c, 7, 86, 64
9, 764160, Note_on_c, 7, 87, 127
9, 764544, Note_off_c, 7, 87, 64
9, 764640, Note_on_c, 7, 82, 88
9, 764832, Note_off_c, 7, 82, 64
9, 765120, Note_on_c, 7, 79, 48
9, 765312, Note_off_c, 7, 79, 64
9, 765600, Note_on_c, 7, 82, 48
9, 765792, Note_off_c, 7, 82, 64
9, 766560, Note_on_c, 7, 79, 48
9, 766752, Note_off_c, 7, 79, 64
9, 767040, Note_on_c, 7, 75, 48
9, 767232, Note_off_c, 7, 75, 64
9, 767520, Note_on_c, 7, 79, 48
9, 767712, Note_off_c, 7, 79, 64
9, 768480, Note_on_c, 7, 75, 48
9, 768672, Note_off_c, 7, 75, 64
9, 768960, Note_on_c, 7, 70, 48
9, 769152, Note_off_c, 7, 70, 64
9, 769440, Note_on_c, 7, 75, 48
9, 769632, Note_off_c, 7, 75, 64
9, 770400, Note_on_c, 7, 70, 48
9, 770592, Note_off_c, 7, 70, 64
9, 770880, Note_on_c, 7, 67, 48
9, 771072, Note_off_c, 7, 67, 64
9, 771600, Note_on_c, 7, 83, 127
9, 771720, Note_off_c, 7, 83, 64
9, 771720, Note_on_c, 7, 84, 127
9, 771840, Note_off_c, 7, 84, 64
9, 771840, Note_on_c, 7, 86, 127
9, 775392, Note_off_c, 7, 86, 64
9, 775440, Note_on_c, 7, 83, 127
9, 775554, Note_off_c, 7, 83, 64
9, 775560, Note_on_c, 7, 84, 127
9, 775674, Note_off_c, 7, 84, 64
9, 775680, Note_on_c, 7, 86, 127
9, 777312, Note_off_c, 7, 86, 64
9, 777360, Note_on_c, 7, 83, 127
9, 777474, Note_off_c, 7, 83, 64
9, 777480, Note_on_c, 7, 84, 127
9, 777594, Note_off_c, 7, 84, 64
9, 777600, Note_on_c, 7, 86, 127
9, 777984, Note_off_c, 7, 86, 64
9, 778320, Note_on_c, 7, 83, 127
9, 778434, Note_off_c, 7, 83, 64
9, 778440, Note_on_c, 7, 84, 127
9, 778554, Note_off_c, 7, 84, 64
9, 778560, Note_on_c, 7, 86, 127
9, 778944, Note_off_c, 7, 86, 64
9, 779280, Note_on_c, 7, 83, 127
9, 779394, Note_off_c, 7, 83, 64
9, 779400, Note_on_c, 7, 84, 127
9, 779514, Note_off_c, 7, 84, 64
9, 779520, Note_on_c, 7, 86, 127
9, 779904, Note_off_c, 7, 86, 64
9, 780000, Note_on_c, 7, 83, 88
9, 780192, Note_off_c, 7, 83, 64
9, 780480, Note_on_c, 7, 79, 48
9, 780672, Note_off_c, 7, 79, 64
9, 780960, Note_on_c, 7, 83, 48
9, 781152, Note_off_c, 7, 83, 64
9, 781920, Note_on_c, 7, 79, 48
9, 782112, Note_off_c, 7, 79, 64
9, 782400, Note_on_c, 7, 74, 48
9, 782592, Note_off_c, 7, 74, 64
9, 782880, Note_on_c, 7, 79, 48
9, 783072, Note_off_c, 7, 79, 64
9, 783840, Note_on_c, 7, 74, 48
9, 784032, Note_off_c, 7, 74, 64
9, 784320, Note_on_c, 7, 71, 48
9, 784512, Note_off_c, 7, 71, 64
9, 784800, Note_on_c, 7, 74, 48
9, 784992, Note_off_c, 7, 74, 64
9, 785760, Note_on_c, 7, 71, 48
9, 785952, Note_off_c, 7, 71, 64
9, 786240, Note_on_c, 7, 67, 48
9, 786432, Note_off_c, 7, 67, 64
9, 786960, Note_on_c, 7, 82, 127
9, 787080, Note_off_c, 7, 82, 64
9, 787080, Note_on_c, 7, 84, 127
9, 787200, Note_off_c, 7, 84, 64
9, 787200, Note_on_c, 7, 85, 127
9, 790752, Note_off_c, 7, 85, 64
9, 790800, Note_on_c, 7, 82, 127
9, 790914, Note_off_c, 7, 82, 64
9, 790920, Note_on_c, 7, 84, 127
9, 791034, Note_off_c, 7, 84, 64
9, 791040, Note_on_c, 7, 85, 127
9, 792672, Note_off_c, 7, 85, 64
9, 792720, Note_on_c, 7, 82, 127
9, 792834, Note_off_c, 7, 82, 64
9, 792840, Note_on_c, 7, 84, 127
9, 792954, Note_off_c, 7, 84, 64
9, 792960, Note_on_c, 7, 85, 127
9, 793344, Note_off_c, 7, 85, 64
9, 793680, Note_on_c, 7, 82, 127
9, 793794, Note_off_c, 7, 82, 64
9, 793800, Note_on_c, 7, 84, 127
9, 793914, Note_off_c, 7, 84, 64
9, 793920, Note_on_c, 7, 85, 127
9, 794304, Note_off_c, 7, 85, 64
9, 794640, Note_on_c, 7, 82, 127
9, 794754, Note_off_c, 7, 82, 64
9, 794760, Note_on_c, 7, 84, 127
9, 794874, Note_off_c, 7, 84, 64
9, 794880, Note_on_c, 7, 85, 127
9, 795264, Note_off_c, 7, 85, 64
9, 795360, Note_on_c, 7, 82, 107
9, 795552, Note_off_c, 7, 82, 64
9, 795840, Note_on_c, 7, 79, 67
9, 796032, Note_off_c, 7, 79, 64
9, 796320, Note_on_c, 7, 82, 67
9, 796512, Note_off_c, 7, 82, 64
9, 797280, Note_on_c, 7, 79, 118
9, 797472, Note_off_c, 7, 79, 64
9, 797760, Note_on_c, 7, 76, 115
9, 797952, Note_off_c, 7, 76, 64
9, 798240, Note_on_c, 7, 79, 113
9, 798432, Note_off_c, 7, 79, 64
9, 799200, Note_on_c, 7, 76, 107
9, 799392, Note_off_c, 7, 76, 64
9, 799680, Note_on_c, 7, 73, 105
9, 799872, Note_off_c, 7, 73, 64
9, 800160, Note_on_c, 7, 76, 102
9, 800352, Note_off_c, 7, 76, 64
9, 801120, Note_on_c, 7, 73, 97
9, 801312, Note_off_c, 7, 73, 64
9, 801600, Note_on_c, 7, 70, 94
9, 801792, Note_off_c, 7, 70, 64
9, 802080, Note_on_c, 7, 73, 92
9, 802272, Note_off_c, 7, 73, 64
9, 803040, Note_on_c, 7, 70, 87
9, 803232, Note_off_c, 7, 70, 64
9, 803520, Note_on_c, 7, 67, 84
9, 803712, Note_off_c, 7, 67, 64
9, 804000, Note_on_c, 7, 70, 81
9, 804192, Note_off_c, 7, 70, 64
9, 804960, Note_on_c, 7, 73, 76
9, 805152, Note_off_c, 7, 73, 64
9, 805440, Note_on_c, 7, 70, 74
9, 805632, Note_off_c, 7, 70, 64
9, 805920, Note_on_c, 7, 73, 71
9, 806112, Note_off_c, 7, 73, 64
9, 806880, Note_on_c, 7, 70, 53
9, 807072, Note_off_c, 7, 70, 64
9, 807360, Note_on_c, 7, 67, 50
9, 807552, Note_off_c, 7, 67, 64
9, 807840, Note_on_c, 7, 70, 49
9, 808032, Note_off_c, 7, 70, 64
9, 808800, Note_on_c, 7, 73, 44
9, 808992, Note_off_c, 7, 73, 64
9, 809280, Note_on_c, 7, 70, 42
9, 809472, Note_off_c, 7, 70, 64
9, 809760, Note_on_c, 7, 73, 40
9, 809952, Note_off_c, 7, 73, 64
9, 810720, Note_on_c, 7, 73, 31
9, 810912, Note_off_c, 7, 73, 64
9, 811200, Note_on_c, 7, 70, 29
9, 811392, Note_off_c, 7, 70, 64
9, 812640, Note_on_c, 7, 73, 31
9, 812832, Note_off_c, 7, 73, 64
9, 813120, Note_on_c, 7, 70, 29
9, 813312, Note_off_c, 7, 70, 64
9, 814560, Note_on_c, 7, 73, 31
9, 814752, Note_off_c, 7, 73, 64
9, 815040, Note_on_c, 7, 70, 29
9, 815232, Note_off_c, 7, 70, 64
9, 816480, Note_on_c, 7, 73, 31
9, 816672, Note_off_c, 7, 73, 64
9, 816960, Note_on_c, 7, 70, 29
9, 817152, Note_off_c, 7, 70, 64
9, 818400, Note_on_c, 7, 73, 31
9, 818880, Note_off_c, 7, 73, 64
9, 818880, Note_on_c, 7, 70, 29
9, 819360, Note_off_c, 7, 70, 64
9, 819360, Note_on_c, 7, 73, 31
9, 819552, Note_off_c, 7, 73, 64
9, 820320, Note_on_c, 7, 73, 31
9, 820800, Note_off_c, 7, 73, 64
9, 820800, Note_on_c, 7, 70, 29
9, 821280, Note_off_c, 7, 70, 64
9, 821280, Note_on_c, 7, 73, 31
9, 821472, Note_off_c, 7, 73, 64
9, 822240, Note_on_c, 7, 73, 31
9, 822720, Note_off_c, 7, 73, 64
9, 822720, Note_on_c, 7, 70, 29
9, 823200, Note_off_c, 7, 70, 64
9, 823200, Note_on_c, 7, 73, 31
9, 823392, Note_off_c, 7, 73, 64
9, 824160, Note_on_c, 7, 73, 31
9, 824640, Note_off_c, 7, 73, 64
9, 824640, Note_on_c, 7, 70, 29
9, 825120, Note_off_c, 7, 70, 64
9, 825120, Note_on_c, 7, 73, 31
9, 825312, Note_off_c, 7, 73, 64
9, 826080, Note_on_c, 7, 73, 31
9, 826560, Note_off_c, 7, 73, 64
9, 826560, Note_on_c, 7, 70, 29
9, 826800, Note_off_c, 7, 70, 64
9, 827040, Note_on_c, 7, 73, 31
9, 827520, Note_off_c, 7, 73, 64
9, 827520, Note_on_c, 7, 70, 30
9, 827760, Note_off_c, 7, 70, 64
9, 828000, Note_on_c, 7, 73, 29
9, 828480, Note_off_c, 7, 73, 64
9, 828480, Note_on_c, 7, 70, 27
9, 828720, Note_off_c, 7, 70, 64
9, 828960, Note_on_c, 7, 73, 25
9, 829440, Note_off_c, 7, 73, 64
9, 829440, Note_on_c, 7, 70, 23
9, 829680, Note_off_c, 7, 70, 64
9, 829920, Note_on_c, 7, 73, 22
9, 830400, Note_off_c, 7, 73, 64
9, 830400, Note_on_c, 7, 70, 20
9, 830640, Note_off_c, 7, 70, 64
9, 830880, Note_on_c, 7, 73, 18
9, 831360, Note_off_c, 7, 73, 64
9, 831360, Note_on_c, 7, 70, 17
9, 831600, Note_off_c, 7, 70, 64
9, 831840, Note_on_c, 7, 73, 15
9, 832320, Note_off_c, 7, 73, 64
9, 832320, Note_on_c, 7, 70, 13
9, 832560, Note_off_c, 7, 70, 64
9, 832800, Note_on_c, 7, 73, 12
9, 833280, Note_off_c, 7, 73, 64
9, 833280, Note_on_c, 7, 73, 15
9, 836640, Note_off_c, 7, 73, 64
9, 836640, Note_on_c, 7, 70, 15
9, 836760, Note_off_c, 7, 70, 64
9, 836760, Note_on_c, 7, 71, 15
9, 836880, Note_off_c, 7, 71, 64
9, 836880, Note_on_c, 7, 73, 15
9, 837000, Note_off_c, 7, 73, 64
9, 837000, Note_on_c, 7, 75, 15
9, 837120, Note_off_c, 7, 75, 64
9, 837120, Note_on_c, 7, 76, 15
9, 837360, Note_off_c, 7, 76, 64
9, 840960, Note_on_c, 7, 76, 15
9, 844320, Note_off_c, 7, 76, 64
9, 844320, Note_on_c, 7, 73, 15
9, 844440, Note_off_c, 7, 73, 64
9, 844440, Note_on_c, 7, 75, 15
9, 844560, Note_off_c, 7, 75, 64
9, 844560, Note_on_c, 7, 76, 15
9, 844680, Note_off_c, 7, 76, 64
9, 844680, Note_on_c, 7, 78, 15
9, 844800, Note_off_c, 7, 78, 64
9, 844800, Note_on_c, 7, 80, 15
9, 845040, Note_off_c, 7, 80, 64
9, 849120, Note_on_c, 7, 80, 15
9, 849600, Note_off_c, 7, 80, 64
9, 849600, Note_on_c, 7, 78, 15
9, 850080, Note_off_c, 7, 78, 64
9, 850080, Note_on_c, 7, 76, 15
9, 850560, Note_off_c, 7, 76, 64
9, 850560, Note_on_c, 7, 75, 15
9, 851040, Note_off_c, 7, 75, 64
9, 851040, Note_on_c, 7, 73, 15
9, 851520, Note_off_c, 7, 73, 64
9, 851520, Note_on_c, 7, 71, 15
9, 852000, Note_off_c, 7, 71, 64
9, 852000, Note_on_c, 7, 73, 15
9, 852480, Note_off_c, 7, 73, 64
9, 852480, Note_on_c, 7, 71, 15
9, 856320, Note_off_c, 7, 71, 64
9, 856320, Note_on_c, 7, 70, 10
9, 856560, Note_off_c, 7, 70, 64
9, 856800, Note_on_c, 7, 80, 15
9, 857280, Note_off_c, 7, 80, 64
9, 857280, Note_on_c, 7, 78, 15
9, 857760, Note_off_c, 7, 78, 64
9, 857760, Note_on_c, 7, 76, 15
9, 858240, Note_off_c, 7, 76, 64
9, 858240, Note_on_c, 7, 75, 15
9, 858720, Note_off_c, 7, 75, 64
9, 858720, Note_on_c, 7, 73, 15
9, 859200, Note_off_c, 7, 73, 64
9, 859200, Note_on_c, 7, 71, 15
9, 859680, Note_off_c, 7, 71, 64
9, 859680, Note_on_c, 7, 70, 10
9, 860160, Note_off_c, 7, 70, 64
9, 860640, Note_on_c, 7, 80, 15
9, 861120, Note_off_c, 7, 80, 64
9, 861120, Note_on_c, 7, 78, 15
9, 861600, Note_off_c, 7, 78, 64
9, 861600, Note_on_c, 7, 76, 15
9, 862080, Note_off_c, 7, 76, 64
9, 862080, Note_on_c, 7, 75, 15
9, 862560, Note_off_c, 7, 75, 64
9, 862560, Note_on_c, 7, 73, 15
9, 863040, Note_off_c, 7, 73, 64
9, 863040, Note_on_c, 7, 71, 15
9, 863520, Note_off_c, 7, 71, 64
9, 863520, Note_on_c, 7, 70, 10
9, 864000, Note_off_c, 7, 70, 64
9, 875520, Note_on_c, 7, 64, 22
9, 876000, Note_off_c, 7, 64, 64
9, 876000, Note_on_c, 7, 70, 22
9, 876480, Note_off_c, 7, 70, 64
9, 876480, Note_on_c, 7, 73, 22
9, 879360, Note_off_c, 7, 73, 64
9, 879360, Note_on_c, 7, 74, 15
9, 882720, Note_off_c, 7, 74, 64
9, 882720, Note_on_c, 7, 70, 15
9, 882840, Note_off_c, 7, 70, 64
9, 882840, Note_on_c, 7, 72, 15
9, 882960, Note_off_c, 7, 72, 64
9, 882960, Note_on_c, 7, 74, 15
9, 883080, Note_off_c, 7, 74, 64
9, 883080, Note_on_c, 7, 75, 15
9, 883200, Note_off_c, 7, 75, 64
9, 883200, Note_on_c, 7, 77, 15
9, 883440, Note_off_c, 7, 77, 64
9, 887040, Note_on_c, 7, 77, 15
9, 890400, Note_off_c, 7, 77, 64
9, 890400, Note_on_c, 7, 74, 15
9, 890496, Note_off_c, 7, 74, 64
9, 890496, Note_on_c, 7, 75, 15
9, 890592, Note_off_c, 7, 75, 64
9, 890592, Note_on_c, 7, 77, 15
9, 890688, Note_off_c, 7, 77, 64
9, 890688, Note_on_c, 7, 79, 15
9, 890784, Note_off_c, 7, 79, 64
9, 890784, Note_on_c, 7, 81, 15
9, 890880, Note_off_c, 7, 81, 64
9, 890880, Note_on_c, 7, 82, 15
9, 890994, Note_off_c, 7, 82, 64
9, 896400, Note_on_c, 7, 77, 25
9, 896480, Note_off_c, 7, 77, 64
9, 896480, Note_on_c, 7, 79, 25
9, 896560, Note_off_c, 7, 79, 64
9, 896560, Note_on_c, 7, 81, 25
9, 896640, Note_off_c, 7, 81, 64
9, 896640, Note_on_c, 7, 82, 25
9, 898560, Note_off_c, 7, 82, 64
9, 900240, Note_on_c, 7, 74, 25
9, 900360, Note_off_c, 7, 74, 64
9, 900360, Note_on_c, 7, 75, 25
9, 900480, Note_off_c, 7, 75, 64
9, 900480, Note_on_c, 7, 77, 25
9, 902400, Note_off_c, 7, 77, 64
9, 904080, Note_on_c, 7, 70, 25
9, 904200, Note_off_c, 7, 70, 64
9, 904200, Note_on_c, 7, 72, 25
9, 904320, Note_off_c, 7, 72, 64
9, 904320, Note_on_c, 7, 74, 25
9, 906240, Note_off_c, 7, 74, 64
9, 907920, Note_on_c, 7, 65, 30
9, 908000, Note_off_c, 7, 65, 64
9, 908000, Note_on_c, 7, 67, 25
9, 908080, Note_off_c, 7, 67, 64
9, 908080, Note_on_c, 7, 69, 25
9, 908144, Note_off_c, 7, 69, 64
9, 908160, Note_on_c, 7, 70, 25
9, 910080, Note_off_c, 7, 70, 64
9, 910800, Note_on_c, 7, 62, 25
9, 910920, Note_off_c, 7, 62, 64
9, 910920, Note_on_c, 7, 63, 25
9, 911040, Note_off_c, 7, 63, 64
9, 911040, Note_on_c, 7, 65, 25
9, 911940, Note_off_c, 7, 65, 64
9, 912720, Note_on_c, 7, 58, 25
9, 912840, Note_off_c, 7, 58, 64
9, 912840, Note_on_c, 7, 60, 25
9, 912960, Note_off_c, 7, 60, 64
9, 912960, Note_on_c, 7, 62, 25
9, 913860, Note_off_c, 7, 62, 64
9, 914640, Note_on_c, 7, 62, 25
9, 914760, Note_off_c, 7, 62, 64
9, 914760, Note_on_c, 7, 63, 25
9, 914880, Note_off_c, 7, 63, 64
9, 914880, Note_on_c, 7, 65, 25
9, 915780, Note_off_c, 7, 65, 64
9, 916560, Note_on_c, 7, 65, 25
9, 916640, Note_off_c, 7, 65, 64
9, 916640, Note_on_c, 7, 67, 25
9, 916720, Note_off_c, 7, 67, 64
9, 916720, Note_on_c, 7, 69, 25
9, 916800, Note_off_c, 7, 69, 64
9, 916800, Note_on_c, 7, 70, 25
9, 918144, Note_off_c, 7, 70, 64
9, 918480, Note_on_c, 7, 58, 29
9, 918600, Note_off_c, 7, 58, 64
9, 918600, Note_on_c, 7, 60, 29
9, 918720, Note_off_c, 7, 60, 64
9, 918720, Note_on_c, 7, 62, 30
9, 919200, Note_off_c, 7, 62, 64
9, 919440, Note_on_c, 7, 62, 35
9, 919560, Note_off_c, 7, 62, 64
9, 919560, Note_on_c, 7, 63, 35
9, 919680, Note_off_c, 7, 63, 64
9, 919680, Note_on_c, 7, 65, 36
9, 920160, Note_off_c, 7, 65, 64
9, 920400, Note_on_c, 7, 65, 41
9, 920480, Note_off_c, 7, 65, 64
9, 920480, Note_on_c, 7, 67, 41
9, 920560, Note_off_c, 7, 67, 64
9, 920560, Note_on_c, 7, 69, 42
9, 920640, Note_off_c, 7, 69, 64
9, 920640, Note_on_c, 7, 70, 42
9, 921120, Note_off_c, 7, 70, 64
9, 921360, Note_on_c, 7, 70, 47
9, 921480, Note_off_c, 7, 70, 64
9, 921480, Note_on_c, 7, 72, 47
9, 921600, Note_off_c, 7, 72, 64
9, 921600, Note_on_c, 7, 74, 48
9, 922080, Note_off_c, 7, 74, 64
9, 922320, Note_on_c, 7, 62, 53
9, 922440, Note_off_c, 7, 62, 64
9, 922440, Note_on_c, 7, 63, 53
9, 922560, Note_off_c, 7, 63, 64
9, 922560, Note_on_c, 7, 65, 54
9, 923040, Note_off_c, 7, 65, 64
9, 923280, Note_on_c, 7, 65, 59
9, 923360, Note_off_c, 7, 65, 64
9, 923360, Note_on_c, 7, 67, 59
9, 923440, Note_off_c, 7, 67, 64
9, 923440, Note_on_c, 7, 69, 60
9, 923520, Note_off_c, 7, 69, 64
9, 923520, Note_on_c, 7, 70, 60
9, 924000, Note_off_c, 7, 70, 64
9, 924240, Note_on_c, 7, 70, 65
9, 924360, Note_off_c, 7, 70, 64
9, 924360, Note_on_c, 7, 72, 65
9, 924480, Note_off_c, 7, 72, 64
9, 924480, Note_on_c, 7, 74, 66
9, 924960, Note_off_c, 7, 74, 64
9, 925200, Note_on_c, 7, 74, 71
9, 925320, Note_off_c, 7, 74, 64
9, 925320, Note_on_c, 7, 75, 71
9, 925440, Note_off_c, 7, 75, 64
9, 925440, Note_on_c, 7, 77, 72
9, 925920, Note_off_c, 7, 77, 64
9, 926160, Note_on_c, 7, 65, 77
9, 926240, Note_off_c, 7, 65, 64
9, 926240, Note_on_c, 7, 67, 77
9, 926320, Note_off_c, 7, 67, 64
9, 926320, Note_on_c, 7, 69, 78
9, 926400, Note_off_c, 7, 69, 64
9, 926400, Note_on_c, 7, 70, 78
9, 926880, Note_off_c, 7, 70, 64
9, 927120, Note_on_c, 7, 70, 83
9, 927240, Note_off_c, 7, 70, 64
9, 927240, Note_on_c, 7, 72, 83
9, 927360, Note_off_c, 7, 72, 64
9, 927360, Note_on_c, 7, 74, 84
9, 927840, Note_off_c, 7, 74, 64
9, 928080, Note_on_c, 7, 74, 89
9, 928200, Note_off_c, 7, 74, 64
9, 928200, Note_on_c, 7, 75, 89
9, 928320, Note_off_c, 7, 75, 64
9, 928320, Note_on_c, 7, 77, 90
9, 928800, Note_off_c, 7, 77, 64
9, 929040, Note_on_c, 7, 77, 95
9, 929120, Note_off_c, 7, 77, 64
9, 929120, Note_on_c, 7, 79, 95
9, 929200, Note_off_c, 7, 79, 64
9, 929200, Note_on_c, 7, 81, 96
9, 929280, Note_off_c, 7, 81, 64
9, 929280, Note_on_c, 7, 82, 96
9, 929760, Note_off_c, 7, 82, 64
9, 930000, Note_on_c, 7, 70, 101
9, 930120, Note_off_c, 7, 70, 64
9, 930120, Note_on_c, 7, 72, 101
9, 930240, Note_off_c, 7, 72, 64
9, 930240, Note_on_c, 7, 74, 102
9, 930720, Note_off_c, 7, 74, 64
9, 930960, Note_on_c, 7, 74, 107
9, 931080, Note_off_c, 7, 74, 64
9, 931080, Note_on_c, 7, 75, 107
9, 931200, Note_off_c, 7, 75, 64
9, 931200, Note_on_c, 7, 77, 108
9, 931680, Note_off_c, 7, 77, 64
9, 931920, Note_on_c, 7, 77, 113
9, 932000, Note_off_c, 7, 77, 64
9, 932000, Note_on_c, 7, 79, 113
9, 932080, Note_off_c, 7, 79, 64
9, 932080, Note_on_c, 7, 81, 114
9, 932160, Note_off_c, 7, 81, 64
9, 932160, Note_on_c, 7, 82, 114
9, 932640, Note_off_c, 7, 82, 64
9, 932880, Note_on_c, 7, 81, 119
9, 932960, Note_off_c, 7, 81, 64
9, 932960, Note_on_c, 7, 82, 119
9, 933040, Note_off_c, 7, 82, 64
9, 933040, Note_on_c, 7, 84, 120
9, 933120, Note_off_c, 7, 84, 64
9, 933120, Note_on_c, 7, 86, 120
9, 933312, Note_off_c, 7, 86, 64
9, 933360, Note_on_c, 7, 86, 120
9, 933552, Note_off_c, 7, 86, 64
9, 933600, Note_on_c, 7, 86, 120
9, 933792, Note_off_c, 7, 86, 64
9, 933840, Note_on_c, 7, 86, 120
9, 934032, Note_off_c, 7, 86, 64
9, 934080, Note_on_c, 7, 86, 120
9, 934272, Note_off_c, 7, 86, 64
9, 934320, Note_on_c, 7, 86, 120
9, 934512, Note_off_c, 7, 86, 64
9, 934560, Note_on_c, 7, 86, 120
9, 934752, Note_off_c, 7, 86, 64
9, 934800, Note_on_c, 7, 86, 120
9, 934992, Note_off_c, 7, 86, 64
9, 935040, Note_on_c, 7, 86, 120
9, 935232, Note_off_c, 7, 86, 64
9, 935280, Note_on_c, 7, 86, 120
9, 935472, Note_off_c, 7, 86, 64
9, 935520, Note_on_c, 7, 86, 120
9, 935712, Note_off_c, 7, 86, 64
9, 935760, Note_on_c, 7, 86, 120
9, 935952, Note_off_c, 7, 86, 64
9, 936000, Note_on_c, 7, 86, 120
9, 936192, Note_off_c, 7, 86, 64
9, 936240, Note_on_c, 7, 86, 120
9, 936432, Note_off_c, 7, 86, 64
9, 936480, Note_on_c, 7, 86, 120
9, 936672, Note_off_c, 7, 86, 64
9, 936720, Note_on_c, 7, 86, 120
9, 936912, Note_off_c, 7, 86, 64
9, 936960, Note_on_c, 7, 86, 120
9, 937152, Note_off_c, 7, 86, 64
9, 937200, Note_on_c, 7, 86, 120
9, 937392, Note_off_c, 7, 86, 64
9, 937440, Note_on_c, 7, 86, 120
9, 937632, Note_off_c, 7, 86, 64
9, 937680, Note_on_c, 7, 86, 120
9, 937872, Note_off_c, 7, 86, 64
9, 937920, Note_on_c, 7, 86, 120
9, 938112, Note_off_c, 7, 86, 64
9, 938160, Note_on_c, 7, 86, 120
9, 938352, Note_off_c, 7, 86, 64
9, 938400, Note_on_c, 7, 86, 120
9, 938592, Note_off_c, 7, 86, 64
9, 938640, Note_on_c, 7, 82, 120
9, 938760, Note_off_c, 7, 82, 64
9, 938760, Note_on_c, 7, 84, 120
9, 938880, Note_off_c, 7, 84, 64
9, 938880, Note_on_c, 7, 77, 120
9, 938880, Note_on_c, 7, 86, 120
9, 939120, Note_off_c, 7, 86, 64
9, 939120, Note_off_c, 7, 77, 64
9, 939840, Note_on_c, 7, 82, 120
9, 939960, Note_off_c, 7, 82, 64
9, 939960, Note_on_c, 7, 84, 120
9, 940080, Note_off_c, 7, 84, 64
9, 940080, Note_on_c, 7, 86, 127
9, 940080, Note_on_c, 7, 77, 120
9, 940320, Note_off_c, 7, 77, 64
9, 940320, Note_off_c, 7, 86, 64
9, 941040, Note_on_c, 7, 82, 120
9, 941160, Note_off_c, 7, 82, 64
9, 941160, Note_on_c, 7, 84, 120
9, 941280, Note_off_c, 7, 84, 64
9, 941280, Note_on_c, 7, 77, 120
9, 941280, Note_on_c, 7, 86, 127
9, 941520, Note_off_c, 7, 86, 64
9, 941520, Note_off_c, 7, 77, 64
9, 941760, Note_on_c, 7, 82, 120
9, 941952, Note_off_c, 7, 82, 64
9, 942240, Note_on_c, 7, 77, 120
9, 942432, Note_off_c, 7, 77, 64
9, 942720, Note_on_c, 7, 82, 120
9, 942912, Note_off_c, 7, 82, 64
9, 943200, Note_on_c, 7, 74, 120
9, 943392, Note_off_c, 7, 74, 64
9, 943680, Note_on_c, 7, 77, 120
9, 943872, Note_off_c, 7, 77, 64
9, 944160, Note_on_c, 7, 70, 120
9, 944352, Note_off_c, 7, 70, 64
9, 944640, Note_on_c, 7, 74, 120
9, 944832, Note_off_c, 7, 74, 64
9, 945120, Note_on_c, 7, 67, 120
9, 945312, Note_off_c, 7, 67, 64
9, 945600, Note_on_c, 7, 75, 120
9, 945792, Note_off_c, 7, 75, 64
9, 946080, Note_on_c, 7, 72, 120
9, 946272, Note_off_c, 7, 72, 64
9, 946560, Note_on_c, 7, 70, 120
9, 946752, Note_off_c, 7, 70, 64
9, 947040, Note_on_c, 7, 69, 120
9, 947232, Note_off_c, 7, 69, 64
9, 947520, Note_on_c, 7, 77, 120
9, 947712, Note_off_c, 7, 77, 64
9, 948000, Note_on_c, 7, 75, 120
9, 948192, Note_off_c, 7, 75, 64
9, 948480, Note_on_c, 7, 72, 120
9, 948672, Note_off_c, 7, 72, 64
9, 948960, Note_on_c, 7, 70, 120
9, 949152, Note_off_c, 7, 70, 64
9, 957120, Note_on_c, 7, 79, 40
9, 957600, Note_off_c, 7, 79, 64
9, 957600, Note_on_c, 7, 77, 40
9, 958080, Note_off_c, 7, 77, 64
9, 958080, Note_on_c, 7, 75, 40
9, 958560, Note_off_c, 7, 75, 64
9, 958560, Note_on_c, 7, 74, 40
9, 959040, Note_off_c, 7, 74, 64
9, 959040, Note_on_c, 7, 72, 40
9, 959520, Note_off_c, 7, 72, 64
9, 959520, Note_on_c, 7, 70, 40
9, 960000, Note_off_c, 7, 70, 64
9, 960000, Note_on_c, 7, 72, 40
9, 960480, Note_off_c, 7, 72, 64
9, 960480, Note_on_c, 7, 70, 40
9, 964320, Note_off_c, 7, 70, 64
9, 964320, Note_on_c, 7, 69, 32
9, 964800, Note_off_c, 7, 69, 64
9, 966720, Note_on_c, 7, 72, 51
9, 967200, Note_off_c, 7, 72, 64
9, 967200, Note_on_c, 7, 75, 64
9, 967680, Note_off_c, 7, 75, 64
9, 967680, Note_on_c, 7, 69, 78
9, 968160, Note_off_c, 7, 69, 64
9, 968160, Note_on_c, 7, 70, 127
9, 971616, Note_off_c, 7, 70, 64
9, 972000, Note_on_c, 7, 75, 127
9, 973536, Note_off_c, 7, 75, 64
9, 973920, Note_on_c, 7, 77, 127
9, 975456, Note_off_c, 7, 77, 64
9, 975840, Note_on_c, 7, 74, 127
9, 978336, Note_off_c, 7, 74, 64
9, 978720, Note_on_c, 7, 79, 127
9, 979488, Note_off_c, 7, 79, 64
9, 979680, Note_on_c, 7, 75, 127
9, 981216, Note_off_c, 7, 75, 64
9, 981600, Note_on_c, 7, 80, 127
9, 983136, Note_off_c, 7, 80, 64
9, 983520, Note_on_c, 7, 77, 127
9, 986016, Note_off_c, 7, 77, 64
9, 986400, Note_on_c, 7, 82, 127
9, 987168, Note_off_c, 7, 82, 64
9, 987360, Note_on_c, 7, 79, 127
9, 988128, Note_off_c, 7, 79, 64
9, 988320, Note_on_c, 7, 84, 127
9, 989088, Note_off_c, 7, 84, 64
9, 989280, Note_on_c, 7, 81, 127
9, 990048, Note_off_c, 7, 81, 64
9, 990240, Note_on_c, 7, 86, 127
9, 991008, Note_off_c, 7, 86, 64
9, 991200, Note_on_c, 7, 82, 127
9, 991968, Note_off_c, 7, 82, 64
9, 992160, Note_on_c, 7, 87, 127
9, 992928, Note_off_c, 7, 87, 64
9, 993120, Note_on_c, 7, 84, 127
9, 993888, Note_off_c, 7, 84, 64
9, 994080, Note_on_c, 7, 89, 127
9, 994848, Note_off_c, 7, 89, 64
9, 995040, Note_on_c, 7, 86, 127
9, 995808, Note_off_c, 7, 86, 64
9, 996000, Note_on_c, 7, 82, 127
9, 996768, Note_off_c, 7, 82, 64
9, 996960, Note_on_c, 7, 77, 127
9, 997728, Note_off_c, 7, 77, 64
9, 997920, Note_on_c, 7, 74, 127
9, 998688, Note_off_c, 7, 74, 64
9, 998880, Note_on_c, 7, 70, 127
9, 999648, Note_off_c, 7, 70, 64
9, 999840, Note_on_c, 7, 65, 127
9, 1000608, Note_off_c, 7, 65, 64
9, 1000800, Note_on_c, 7, 62, 127
9, 1001568, Note_off_c, 7, 62, 64
9, 1001760, Note_on_c, 7, 58, 127
9, 1002336, Note_off_c, 7, 58, 64
9, 1002720, Note_on_c, 7, 65, 127
9, 1002912, Note_off_c, 7, 65, 64
9, 1008960, Note_on_c, 7, 76, 125
9, 1009920, Note_off_c, 7, 76, 64
9, 1009920, Note_on_c, 7, 77, 96
9, 1010256, Note_off_c, 7, 77, 64
9, 1010400, Note_on_c, 7, 77, 96
9, 1010736, Note_off_c, 7, 77, 64
9, 1010880, Note_on_c, 7, 84, 96
9, 1011648, Note_off_c, 7, 84, 64
9, 1011840, Note_on_c, 7, 85, 96
9, 1012704, Note_off_c, 7, 85, 64
9, 1012800, Note_on_c, 7, 87, 96
9, 1013568, Note_off_c, 7, 87, 64
9, 1013760, Note_on_c, 7, 82, 96
9, 1014624, Note_off_c, 7, 82, 64
9, 1014720, Note_on_c, 7, 84, 96
9, 1015488, Note_off_c, 7, 84, 64
9, 1015680, Note_on_c, 7, 85, 96
9, 1016544, Note_off_c, 7, 85, 64
9, 1016640, Note_on_c, 7, 76, 125
9, 1017600, Note_off_c, 7, 76, 64
9, 1017600, Note_on_c, 7, 77, 96
9, 1017984, Note_off_c, 7, 77, 64
9, 1018080, Note_on_c, 7, 77, 80
9, 1022880, Note_off_c, 7, 77, 64
9, 1022880, Note_on_c, 7, 65, 60
9, 1024800, Note_off_c, 7, 65, 64
9, 1024800, Note_on_c, 7, 69, 45
9, 1025760, Note_off_c, 7, 69, 64
9, 1025760, Note_on_c, 7, 70, 26
9, 1029600, Note_off_c, 7, 70, 64
9, 1029600, Note_on_c, 7, 62, 34
9, 1037280, Note_off_c, 7, 62, 64
9, 1037280, Note_on_c, 7, 62, 32
9, 1037472, Note_off_c, 7, 62, 64
9, 1038720, Note_on_c, 7, 62, 32
9, 1038912, Note_off_c, 7, 62, 64
9, 1039200, Note_on_c, 7, 62, 32
9, 1039392, Note_off_c, 7, 62, 64
9, 1040640, Note_on_c, 7, 62, 32
9, 1040832, Note_off_c, 7, 62, 64
9, 1041120, Note_on_c, 7, 62, 32
9, 1041312, Note_off_c, 7, 62, 64
9, 1042560, Note_on_c, 7, 62, 32
9, 1042752, Note_off_c, 7, 62, 64
9, 1043040, Note_on_c, 7, 62, 32
9, 1043232, Note_off_c, 7, 62, 64
9, 1044480, Note_on_c, 7, 62, 32
9, 1044672, Note_off_c, 7, 62, 64
9, 1044960, Note_on_c, 7, 74, 40
9, 1045440, Note_off_c, 7, 74, 64
9, 1045440, Note_on_c, 7, 73, 40
9, 1045920, Note_off_c, 7, 73, 64
9, 1045920, Note_on_c, 7, 74, 40
9, 1046400, Note_off_c, 7, 74, 64
9, 1046400, Note_on_c, 7, 72, 40
9, 1046880, Note_off_c, 7, 72, 64
9, 1046880, Note_on_c, 7, 70, 40
9, 1047360, Note_off_c, 7, 70, 64
9, 1047360, Note_on_c, 7, 69, 40
9, 1047840, Note_off_c, 7, 69, 64
9, 1047840, Note_on_c, 7, 70, 40
9, 1048320, Note_off_c, 7, 70, 64
9, 1048320, Note_on_c, 7, 67, 40
9, 1048800, Note_off_c, 7, 67, 64
9, 1048800, Note_on_c, 7, 66, 40
9, 1049280, Note_off_c, 7, 66, 64
9, 1049280, Note_on_c, 7, 64, 40
9, 1049760, Note_off_c, 7, 64, 64
9, 1049760, Note_on_c, 7, 66, 40
9, 1050240, Note_off_c, 7, 66, 64
9, 1050240, Note_on_c, 7, 69, 40
9, 1050456, Note_off_c, 7, 69, 64
9, 1050600, Note_on_c, 7, 69, 40
9, 1050720, Note_off_c, 7, 69, 64
9, 1050720, Note_on_c, 7, 67, 40
9, 1051200, Note_off_c, 7, 67, 64
9, 1051200, Note_on_c, 7, 66, 40
9, 1051680, Note_off_c, 7, 66, 64
9, 1051680, Note_on_c, 7, 67, 40
9, 1052160, Note_off_c, 7, 67, 64
9, 1052160, Note_on_c, 7, 63, 40
9, 1052640, Note_off_c, 7, 63, 64
9, 1052640, Note_on_c, 7, 62, 32
9, 1053120, Note_off_c, 7, 62, 64
9, 1053600, Note_on_c, 7, 63, 32
9, 1054080, Note_off_c, 7, 63, 64
9, 1054560, Note_on_c, 7, 60, 32
9, 1055040, Note_off_c, 7, 60, 64
9, 1055520, Note_on_c, 7, 64, 32
9, 1056000, Note_off_c, 7, 64, 64
9, 1056480, Note_on_c, 7, 65, 32
9, 1056960, Note_off_c, 7, 65, 64
9, 1057440, Note_on_c, 7, 62, 32
9, 1057920, Note_off_c, 7, 62, 64
9, 1058400, Note_on_c, 7, 65, 31
9, 1058880, Note_off_c, 7, 65, 64
9, 1059360, Note_on_c, 7, 67, 36
9, 1059840, Note_off_c, 7, 67, 64
9, 1060320, Note_on_c, 7, 63, 40
9, 1060800, Note_off_c, 7, 63, 64
9, 1061280, Note_on_c, 7, 67, 44
9, 1061760, Note_off_c, 7, 67, 64
9, 1062240, Note_on_c, 7, 69, 49
9, 1062720, Note_off_c, 7, 69, 64
9, 1063200, Note_on_c, 7, 65, 53
9, 1063680, Note_off_c, 7, 65, 64
9, 1064160, Note_on_c, 7, 69, 57
9, 1064640, Note_off_c, 7, 69, 64
9, 1065120, Note_on_c, 7, 70, 61
9, 1065600, Note_off_c, 7, 70, 64
9, 1066080, Note_on_c, 7, 67, 66
9, 1066560, Note_off_c, 7, 67, 64
9, 1067040, Note_on_c, 7, 71, 70
9, 1067520, Note_off_c, 7, 71, 64
9, 1068000, Note_on_c, 7, 72, 74
9, 1068480, Note_off_c, 7, 72, 64
9, 1068960, Note_on_c, 7, 69, 79
9, 1069440, Note_off_c, 7, 69, 64
9, 1069920, Note_on_c, 7, 72, 83
9, 1070400, Note_off_c, 7, 72, 64
9, 1070880, Note_on_c, 7, 74, 87
9, 1071360, Note_off_c, 7, 74, 64
9, 1071840, Note_on_c, 7, 75, 92
9, 1072320, Note_off_c, 7, 75, 64
9, 1072800, Note_on_c, 7, 76, 96
9, 1073280, Note_off_c, 7, 76, 64
9, 1073760, Note_on_c, 7, 77, 92
9, 1074240, Note_off_c, 7, 77, 64
9, 1074720, Note_on_c, 7, 77, 96
9, 1075200, Note_off_c, 7, 77, 64
9, 1075680, Note_on_c, 7, 77, 92
9, 1076160, Note_off_c, 7, 77, 64
9, 1076640, Note_on_c, 7, 77, 96
9, 1077120, Note_off_c, 7, 77, 64
9, 1077600, Note_on_c, 7, 77, 92
9, 1078080, Note_off_c, 7, 77, 64
9, 1078560, Note_on_c, 7, 77, 96
9, 1079040, Note_off_c, 7, 77, 64
9, 1079520, Note_on_c, 7, 70, 80
9, 1079520, Note_on_c, 7, 77, 80
9, 1080960, Note_off_c, 7, 77, 64
9, 1080960, Note_off_c, 7, 70, 64
9, 1080960, Note_on_c, 7, 74, 80
9, 1081248, Note_off_c, 7, 74, 64
9, 1081440, Note_on_c, 7, 79, 80
9, 1082880, Note_off_c, 7, 79, 64
9, 1082880, Note_on_c, 7, 75, 80
9, 1083168, Note_off_c, 7, 75, 64
9, 1083360, Note_on_c, 7, 74, 80
9, 1084512, Note_off_c, 7, 74, 64
9, 1084800, Note_on_c, 7, 74, 80
9, 1085088, Note_off_c, 7, 74, 64
9, 1085280, Note_on_c, 7, 72, 80
9, 1085568, Note_off_c, 7, 72, 64
9, 1085760, Note_on_c, 7, 72, 80
9, 1086048, Note_off_c, 7, 72, 64
9, 1086240, Note_on_c, 7, 72, 80
9, 1086360, Note_off_c, 7, 72, 64
9, 1086360, Note_on_c, 7, 74, 80
9, 1086480, Note_off_c, 7, 74, 64
9, 1086480, Note_on_c, 7, 72, 80
9, 1086600, Note_off_c, 7, 72, 64
9, 1086600, Note_on_c, 7, 74, 80
9, 1086720, Note_off_c, 7, 74, 64
9, 1086720, Note_on_c, 7, 72, 80
9, 1086840, Note_off_c, 7, 72, 64
9, 1086840, Note_on_c, 7, 74, 80
9, 1086960, Note_off_c, 7, 74, 64
9, 1086960, Note_on_c, 7, 70, 80
9, 1087080, Note_off_c, 7, 70, 64
9, 1087080, Note_on_c, 7, 72, 80
9, 1087200, Note_off_c, 7, 72, 64
9, 1087200, Note_on_c, 7, 77, 80
9, 1087680, Note_off_c, 7, 77, 64
9, 1087680, Note_on_c, 7, 74, 80
9, 1087920, Note_off_c, 7, 74, 64
9, 1088160, Note_on_c, 7, 79, 80
9, 1088640, Note_off_c, 7, 79, 64
9, 1088640, Note_on_c, 7, 75, 80
9, 1088880, Note_off_c, 7, 75, 64
9, 1089120, Note_on_c, 7, 74, 80
9, 1089408, Note_off_c, 7, 74, 64
9, 1089600, Note_on_c, 7, 74, 80
9, 1089888, Note_off_c, 7, 74, 64
9, 1090080, Note_on_c, 7, 72, 80
9, 1090200, Note_off_c, 7, 72, 64
9, 1090200, Note_on_c, 7, 74, 80
9, 1090320, Note_off_c, 7, 74, 64
9, 1090320, Note_on_c, 7, 72, 80
9, 1090440, Note_off_c, 7, 72, 64
9, 1090440, Note_on_c, 7, 74, 80
9, 1090560, Note_off_c, 7, 74, 64
9, 1090560, Note_on_c, 7, 72, 80
9, 1090680, Note_off_c, 7, 72, 64
9, 1090680, Note_on_c, 7, 74, 80
9, 1090800, Note_off_c, 7, 74, 64
9, 1090800, Note_on_c, 7, 70, 80
9, 1090920, Note_off_c, 7, 70, 64
9, 1090920, Note_on_c, 7, 72, 80
9, 1091040, Note_off_c, 7, 72, 64
9, 1091040, Note_on_c, 7, 70, 56
9, 1091424, Note_off_c, 7, 70, 64
9, 1105920, Note_on_c, 7, 77, 127
9, 1106112, Note_off_c, 7, 77, 64
9, 1106160, Note_on_c, 7, 77, 127
9, 1106352, Note_off_c, 7, 77, 64
9, 1106400, Note_on_c, 7, 74, 127
9, 1106592, Note_off_c, 7, 74, 64
9, 1106640, Note_on_c, 7, 74, 127
9, 1106832, Note_off_c, 7, 74, 64
9, 1106880, Note_on_c, 7, 75, 127
9, 1107072, Note_off_c, 7, 75, 64
9, 1107120, Note_on_c, 7, 75, 127
9, 1107312, Note_off_c, 7, 75, 64
9, 1107360, Note_on_c, 7, 77, 127
9, 1107552, Note_off_c, 7, 77, 64
9, 1107600, Note_on_c, 7, 77, 127
9, 1107792, Note_off_c, 7, 77, 64
9, 1107840, Note_on_c, 7, 65, 127
9, 1108032, Note_off_c, 7, 65, 64
9, 1108080, Note_on_c, 7, 65, 127
9, 1108272, Note_off_c, 7, 65, 64
9, 1108320, Note_on_c, 7, 70, 127
9, 1109702, Note_off_c, 7, 70, 64
9, 1109760, Note_on_c, 7, 72, 127
9, 1109952, Note_off_c, 7, 72, 64
9, 1110000, Note_on_c, 7, 72, 127
9, 1110192, Note_off_c, 7, 72, 64
9, 1110240, Note_on_c, 7, 74, 127
9, 1110432, Note_off_c, 7, 74, 64
9, 1110480, Note_on_c, 7, 74, 127
9, 1110672, Note_off_c, 7, 74, 64
9, 1110720, Note_on_c, 7, 70, 127
9, 1110912, Note_off_c, 7, 70, 64
9, 1110960, Note_on_c, 7, 70, 127
9, 1111152, Note_off_c, 7, 70, 64
9, 1111200, Note_on_c, 7, 74, 127
9, 1111392, Note_off_c, 7, 74, 64
9, 1111440, Note_on_c, 7, 74, 127
9, 1111632, Note_off_c, 7, 74, 64
9, 1111680, Note_on_c, 7, 75, 127
9, 1111872, Note_off_c, 7, 75, 64
9, 1111920, Note_on_c, 7, 75, 127
9, 1112112, Note_off_c, 7, 75, 64
9, 1112160, Note_on_c, 7, 77, 127
9, 1113542, Note_off_c, 7, 77, 64
9, 1113600, Note_on_c, 7, 79, 127
9, 1113792, Note_off_c, 7, 79, 64
9, 1113840, Note_on_c, 7, 79, 127
9, 1114032, Note_off_c, 7, 79, 64
9, 1114080, Note_on_c, 7, 81, 127
9, 1114272, Note_off_c, 7, 81, 64
9, 1114320, Note_on_c, 7, 81, 127
9, 1114512, Note_off_c, 7, 81, 64
9, 1114560, Note_on_c, 7, 82, 127
9, 1114752, Note_off_c, 7, 82, 64
9, 1114800, Note_on_c, 7, 82, 127
9, 1114992, Note_off_c, 7, 82, 64
9, 1115040, Note_on_c, 7, 84, 127
9, 1115232, Note_off_c, 7, 84, 64
9, 1115280, Note_on_c, 7, 84, 127
9, 1115472, Note_off_c, 7, 84, 64
9, 1115520, Note_on_c, 7, 82, 127
9, 1115712, Note_off_c, 7, 82, 64
9, 1115760, Note_on_c, 7, 82, 127
9, 1115952, Note_off_c, 7, 82, 64
9, 1116000, Note_on_c, 7, 81, 127
9, 1117382, Note_off_c, 7, 81, 64
9, 1117440, Note_on_c, 7, 79, 127
9, 1117632, Note_off_c, 7, 79, 64
9, 1117680, Note_on_c, 7, 79, 127
9, 1117872, Note_off_c, 7, 79, 64
9, 1117920, Note_on_c, 7, 77, 127
9, 1118112, Note_off_c, 7, 77, 64
9, 1118160, Note_on_c, 7, 77, 127
9, 1118352, Note_off_c, 7, 77, 64
9, 1118400, Note_on_c, 7, 79, 127
9, 1118592, Note_off_c, 7, 79, 64
9, 1118640, Note_on_c, 7, 79, 127
9, 1118832, Note_off_c, 7, 79, 64
9, 1118880, Note_on_c, 7, 75, 127
9, 1119072, Note_off_c, 7, 75, 64
9, 1119120, Note_on_c, 7, 75, 127
9, 1119312, Note_off_c, 7, 75, 64
9, 1119360, Note_on_c, 7, 72, 127
9, 1119552, Note_off_c, 7, 72, 64
9, 1119600, Note_on_c, 7, 72, 127
9, 1119792, Note_off_c, 7, 72, 64
9, 1119840, Note_on_c, 7, 69, 127
9, 1121760, Note_off_c, 7, 69, 64
9, 1124160, Note_on_c, 7, 69, 40
9, 1124640, Note_off_c, 7, 69, 64
9, 1124640, Note_on_c, 7, 72, 40
9, 1125120, Note_off_c, 7, 72, 64
9, 1125120, Note_on_c, 7, 75, 40
9, 1125504, Note_off_c, 7, 75, 64
9, 1125600, Note_on_c, 7, 79, 40
9, 1125792, Note_off_c, 7, 79, 64
9, 1125840, Note_on_c, 7, 79, 40
9, 1126032, Note_off_c, 7, 79, 64
9, 1126080, Note_on_c, 7, 79, 40
9, 1126272, Note_off_c, 7, 79, 64
9, 1126320, Note_on_c, 7, 79, 40
9, 1126512, Note_off_c, 7, 79, 64
9, 1126560, Note_on_c, 7, 79, 40
9, 1126752, Note_off_c, 7, 79, 64
9, 1126800, Note_on_c, 7, 79, 40
9, 1126992, Note_off_c, 7, 79, 64
9, 1127040, Note_on_c, 7, 79, 40
9, 1127232, Note_off_c, 7, 79, 64
9, 1127280, Note_on_c, 7, 79, 40
9, 1127472, Note_off_c, 7, 79, 64
9, 1127520, Note_on_c, 7, 79, 40
9, 1127712, Note_off_c, 7, 79, 64
9, 1127760, Note_on_c, 7, 79, 40
9, 1127952, Note_off_c, 7, 79, 64
9, 1128000, Note_on_c, 7, 79, 40
9, 1128192, Note_off_c, 7, 79, 64
9, 1128240, Note_on_c, 7, 79, 40
9, 1128432, Note_off_c, 7, 79, 64
9, 1128480, Note_on_c, 7, 79, 40
9, 1128672, Note_off_c, 7, 79, 64
9, 1128720, Note_on_c, 7, 79, 40
9, 1128912, Note_off_c, 7, 79, 64
9, 1128960, Note_on_c, 7, 79, 40
9, 1129152, Note_off_c, 7, 79, 64
9, 1129200, Note_on_c, 7, 79, 40
9, 1129392, Note_off_c, 7, 79, 64
9, 1129440, Note_on_c, 7, 62, 127
9, 1129440, Note_on_c, 7, 77, 127
9, 1129680, Note_off_c, 7, 77, 64
9, 1129680, Note_off_c, 7, 62, 64
9, 1130880, Note_on_c, 7, 62, 127
9, 1130880, Note_on_c, 7, 70, 127
9, 1131072, Note_off_c, 7, 70, 64
9, 1131072, Note_off_c, 7, 62, 64
9, 1131360, Note_on_c, 7, 60, 127
9, 1131360, Note_on_c, 7, 70, 127
9, 1131600, Note_off_c, 7, 70, 64
9, 1131600, Note_off_c, 7, 60, 64
9, 1132320, Note_on_c, 7, 69, 127
9, 1132320, Note_on_c, 7, 60, 127
9, 1132560, Note_off_c, 7, 60, 64
9, 1132560, Note_off_c, 7, 69, 64
9, 1133280, Note_on_c, 7, 79, 40
9, 1133472, Note_off_c, 7, 79, 64
9, 1133520, Note_on_c, 7, 79, 40
9, 1133712, Note_off_c, 7, 79, 64
9, 1133760, Note_on_c, 7, 79, 40
9, 1133952, Note_off_c, 7, 79, 64
9, 1134000, Note_on_c, 7, 79, 40
9, 1134192, Note_off_c, 7, 79, 64
9, 1134240, Note_on_c, 7, 79, 40
9, 1134432, Note_off_c, 7, 79, 64
9, 1134480, Note_on_c, 7, 79, 40
9, 1134672, Note_off_c, 7, 79, 64
9, 1134720, Note_on_c, 7, 79, 40
9, 1134912, Note_off_c, 7, 79, 64
9, 1134960, Note_on_c, 7, 79, 40
9, 1135152, Note_off_c, 7, 79, 64
9, 1135200, Note_on_c, 7, 79, 40
9, 1135392, Note_off_c, 7, 79, 64
9, 1135440, Note_on_c, 7, 79, 40
9, 1135632, Note_off_c, 7, 79, 64
9, 1135680, Note_on_c, 7, 79, 40
9, 1135872, Note_off_c, 7, 79, 64
9, 1135920, Note_on_c, 7, 79, 40
9, 1136112, Note_off_c, 7, 79, 64
9, 1136160, Note_on_c, 7, 79, 40
9, 1136352, Note_off_c, 7, 79, 64
9, 1136400, Note_on_c, 7, 79, 40
9, 1136592, Note_off_c, 7, 79, 64
9, 1136640, Note_on_c, 7, 79, 40
9, 1136832, Note_off_c, 7, 79, 64
9, 1136880, Note_on_c, 7, 79, 40
9, 1137072, Note_off_c, 7, 79, 64
9, 1137120, Note_on_c, 7, 77, 127
9, 1137120, Note_on_c, 7, 62, 127
9, 1137360, Note_off_c, 7, 62, 64
9, 1137360, Note_off_c, 7, 77, 64
9, 1138560, Note_on_c, 7, 62, 127
9, 1138560, Note_on_c, 7, 70, 127
9, 1138752, Note_off_c, 7, 70, 64
9, 1138752, Note_off_c, 7, 62, 64
9, 1139040, Note_on_c, 7, 70, 127
9, 1139040, Note_on_c, 7, 60, 127
9, 1139280, Note_off_c, 7, 60, 64
9, 1139280, Note_off_c, 7, 70, 64
9, 1140000, Note_on_c, 7, 69, 127
9, 1140000, Note_on_c, 7, 60, 127
9, 1140240, Note_off_c, 7, 60, 64
9, 1140240, Note_off_c, 7, 69, 64
9, 1140960, Note_on_c, 7, 79, 32
9, 1141152, Note_off_c, 7, 79, 64
9, 1141200, Note_on_c, 7, 79, 33
9, 1141392, Note_off_c, 7, 79, 64
9, 1141440, Note_on_c, 7, 79, 35
9, 1141632, Note_off_c, 7, 79, 64
9, 1141680, Note_on_c, 7, 79, 36
9, 1141872, Note_off_c, 7, 79, 64
9, 1141920, Note_on_c, 7, 79, 38
9, 1142112, Note_off_c, 7, 79, 64
9, 1142160, Note_on_c, 7, 79, 39
9, 1142352, Note_off_c, 7, 79, 64
9, 1142400, Note_on_c, 7, 79, 41
9, 1142592, Note_off_c, 7, 79, 64
9, 1142640, Note_on_c, 7, 79, 42
9, 1142832, Note_off_c, 7, 79, 64
9, 1142880, Note_on_c, 7, 79, 43
9, 1143072, Note_off_c, 7, 79, 64
9, 1143120, Note_on_c, 7, 79, 45
9, 1143312, Note_off_c, 7, 79, 64
9, 1143360, Note_on_c, 7, 79, 46
9, 1143552, Note_off_c, 7, 79, 64
9, 1143600, Note_on_c, 7, 79, 48
9, 1143792, Note_off_c, 7, 79, 64
9, 1143840, Note_on_c, 7, 79, 49
9, 1144032, Note_off_c, 7, 79, 64
9, 1144080, Note_on_c, 7, 79, 50
9, 1144272, Note_off_c, 7, 79, 64
9, 1144320, Note_on_c, 7, 79, 52
9, 1144512, Note_off_c, 7, 79, 64
9, 1144560, Note_on_c, 7, 79, 53
9, 1144752, Note_off_c, 7, 79, 64
9, 1144800, Note_on_c, 7, 79, 75
9, 1144992, Note_off_c, 7, 79, 64
9, 1145040, Note_on_c, 7, 79, 56
9, 1145232, Note_off_c, 7, 79, 64
9, 1145280, Note_on_c, 7, 79, 58
9, 1145472, Note_off_c, 7, 79, 64
9, 1145520, Note_on_c, 7, 79, 59
9, 1145712, Note_off_c, 7, 79, 64
9, 1145760, Note_on_c, 7, 79, 60
9, 1145952, Note_off_c, 7, 79, 64
9, 1146000, Note_on_c, 7, 79, 62
9, 1146192, Note_off_c, 7, 79, 64
9, 1146240, Note_on_c, 7, 79, 63
9, 1146432, Note_off_c, 7, 79, 64
9, 1146480, Note_on_c, 7, 79, 65
9, 1146672, Note_off_c, 7, 79, 64
9, 1146720, Note_on_c, 7, 77, 86
9, 1146912, Note_off_c, 7, 77, 64
9, 1146960, Note_on_c, 7, 77, 67
9, 1147152, Note_off_c, 7, 77, 64
9, 1147200, Note_on_c, 7, 77, 69
9, 1147392, Note_off_c, 7, 77, 64
9, 1147440, Note_on_c, 7, 77, 70
9, 1147632, Note_off_c, 7, 77, 64
9, 1147680, Note_on_c, 7, 77, 72
9, 1147872, Note_off_c, 7, 77, 64
9, 1147920, Note_on_c, 7, 77, 73
9, 1148112, Note_off_c, 7, 77, 64
9, 1148160, Note_on_c, 7, 77, 75
9, 1148352, Note_off_c, 7, 77, 64
9, 1148400, Note_on_c, 7, 77, 76
9, 1148592, Note_off_c, 7, 77, 64
9, 1148640, Note_on_c, 7, 77, 97
9, 1148832, Note_off_c, 7, 77, 64
9, 1148880, Note_on_c, 7, 77, 79
9, 1149072, Note_off_c, 7, 77, 64
9, 1149120, Note_on_c, 7, 77, 80
9, 1149312, Note_off_c, 7, 77, 64
9, 1149360, Note_on_c, 7, 77, 82
9, 1149552, Note_off_c, 7, 77, 64
9, 1149600, Note_on_c, 7, 77, 83
9, 1149792, Note_off_c, 7, 77, 64
9, 1149840, Note_on_c, 7, 77, 84
9, 1150032, Note_off_c, 7, 77, 64
9, 1150080, Note_on_c, 7, 77, 86
9, 1150272, Note_off_c, 7, 77, 64
9, 1150320, Note_on_c, 7, 77, 87
9, 1150512, Note_off_c, 7, 77, 64
9, 1150560, Note_on_c, 7, 77, 109
9, 1150752, Note_off_c, 7, 77, 64
9, 1150800, Note_on_c, 7, 77, 90
9, 1150992, Note_off_c, 7, 77, 64
9, 1151040, Note_on_c, 7, 77, 92
9, 1151232, Note_off_c, 7, 77, 64
9, 1151280, Note_on_c, 7, 77, 93
9, 1151472, Note_off_c, 7, 77, 64
9, 1151520, Note_on_c, 7, 77, 94
9, 1151712, Note_off_c, 7, 77, 64
9, 1151760, Note_on_c, 7, 77, 96
9, 1151952, Note_off_c, 7, 77, 64
9, 1152000, Note_on_c, 7, 77, 97
9, 1152192, Note_off_c, 7, 77, 64
9, 1152240, Note_on_c, 7, 77, 99
9, 1152432, Note_off_c, 7, 77, 64
9, 1152480, Note_on_c, 7, 77, 127
9, 1152672, Note_off_c, 7, 77, 64
9, 1152720, Note_on_c, 7, 82, 127
9, 1152912, Note_off_c, 7, 82, 64
9, 1152960, Note_on_c, 7, 82, 127
9, 1153152, Note_off_c, 7, 82, 64
9, 1153200, Note_on_c, 7, 82, 127
9, 1153392, Note_off_c, 7, 82, 64
9, 1153440, Note_on_c, 7, 82, 127
9, 1153632, Note_off_c, 7, 82, 64
9, 1153680, Note_on_c, 7, 82, 127
9, 1153872, Note_off_c, 7, 82, 64
9, 1153920, Note_on_c, 7, 82, 127
9, 1154112, Note_off_c, 7, 82, 64
9, 1154160, Note_on_c, 7, 82, 127
9, 1154352, Note_off_c, 7, 82, 64
9, 1154400, Note_on_c, 7, 82, 127
9, 1154592, Note_off_c, 7, 82, 64
9, 1154640, Note_on_c, 7, 82, 127
9, 1154832, Note_off_c, 7, 82, 64
9, 1154880, Note_on_c, 7, 82, 127
9, 1155072, Note_off_c, 7, 82, 64
9, 1155120, Note_on_c, 7, 82, 127
9, 1155312, Note_off_c, 7, 82, 64
9, 1155360, Note_on_c, 7, 82, 127
9, 1155552, Note_off_c, 7, 82, 64
9, 1155600, Note_on_c, 7, 82, 127
9, 1155792, Note_off_c, 7, 82, 64
9, 1155840, Note_on_c, 7, 82, 127
9, 1156032, Note_off_c, 7, 82, 64
9, 1156080, Note_on_c, 7, 82, 127
9, 1156272, Note_off_c, 7, 82, 64
9, 1156320, Note_on_c, 7, 82, 127
9, 1156512, Note_off_c, 7, 82, 64
9, 1156560, Note_on_c, 7, 82, 127
9, 1156752, Note_off_c, 7, 82, 64
9, 1156800, Note_on_c, 7, 82, 127
9, 1156992, Note_off_c, 7, 82, 64
9, 1157040, Note_on_c, 7, 82, 127
9, 1157232, Note_off_c, 7, 82, 64
9, 1157280, Note_on_c, 7, 82, 127
9, 1157472, Note_off_c, 7, 82, 64
9, 1157520, Note_on_c, 7, 82, 127
9, 1157712, Note_off_c, 7, 82, 64
9, 1157760, Note_on_c, 7, 82, 127
9, 1157952, Note_off_c, 7, 82, 64
9, 1158000, Note_on_c, 7, 82, 127
9, 1158192, Note_off_c, 7, 82, 64
9, 1158240, Note_on_c, 7, 81, 127
9, 1158432, Note_off_c, 7, 81, 64
9, 1158480, Note_on_c, 7, 81, 127
9, 1158672, Note_off_c, 7, 81, 64
9, 1158720, Note_on_c, 7, 81, 127
9, 1158912, Note_off_c, 7, 81, 64
9, 1158960, Note_on_c, 7, 81, 127
9, 1159152, Note_off_c, 7, 81, 64
9, 1159200, Note_on_c, 7, 81, 127
9, 1159392, Note_off_c, 7, 81, 64
9, 1159440, Note_on_c, 7, 81, 127
9, 1159632, Note_off_c, 7, 81, 64
9, 1159680, Note_on_c, 7, 81, 127
9, 1159872, Note_off_c, 7, 81, 64
9, 1159920, Note_on_c, 7, 81, 127
9, 1160112, Note_off_c, 7, 81, 64
9, 1160160, Note_on_c, 7, 82, 127
9, 1160544, Note_off_c, 7, 82, 64
9, 1160640, Note_on_c, 7, 74, 112
9, 1161552, Note_off_c, 7, 74, 64
9, 1161600, Note_on_c, 7, 75, 112
9, 1162536, Note_off_c, 7, 75, 64
9, 1162560, Note_on_c, 7, 77, 112
9, 1163472, Note_off_c, 7, 77, 64
9, 1163520, Note_on_c, 7, 70, 112
9, 1164456, Note_off_c, 7, 70, 64
9, 1164480, Note_on_c, 7, 72, 112
9, 1165392, Note_off_c, 7, 72, 64
9, 1165440, Note_on_c, 7, 74, 112
9, 1166376, Note_off_c, 7, 74, 64
9, 1166400, Note_on_c, 7, 65, 112
9, 1167312, Note_off_c, 7, 65, 64
9, 1167360, Note_on_c, 7, 75, 112
9, 1167360, Note_on_c, 7, 81, 112
9, 1167360, Note_on_c, 7, 72, 112
9, 1167600, Note_off_c, 7, 72, 64
9, 1167600, Note_off_c, 7, 81, 64
9, 1167600, Note_off_c, 7, 75, 64
9, 1167840, Note_on_c, 7, 82, 112
9, 1167840, Note_on_c, 7, 74, 112
9, 1168080, Note_off_c, 7, 74, 64
9, 1168080, Note_off_c, 7, 82, 64
9, 1168320, Note_on_c, 7, 74, 112
9, 1169232, Note_off_c, 7, 74, 64
9, 1169280, Note_on_c, 7, 75, 112
9, 1170216, Note_off_c, 7, 75, 64
9, 1170240, Note_on_c, 7, 77, 112
9, 1171152, Note_off_c, 7, 77, 64
9, 1171200, Note_on_c, 7, 70, 112
9, 1172136, Note_off_c, 7, 70, 64
9, 1172160, Note_on_c, 7, 72, 112
9, 1173072, Note_off_c, 7, 72, 64
9, 1173120, Note_on_c, 7, 74, 112
9, 1174056, Note_off_c, 7, 74, 64
9, 1174080, Note_on_c, 7, 65, 112
9, 1174992, Note_off_c, 7, 65, 64
9, 1175040, Note_on_c, 7, 81, 112
9, 1175040, Note_on_c, 7, 72, 112
9, 1175280, Note_off_c, 7, 72, 64
9, 1175280, Note_off_c, 7, 81, 64
9, 1175520, Note_on_c, 7, 74, 112
9, 1175520, Note_on_c, 7, 82, 112
9, 1175760, Note_off_c, 7, 82, 64
9, 1175760, Note_off_c, 7, 74, 64
9, 1176000, Note_on_c, 7, 84, 112
9, 1176912, Note_off_c, 7, 84, 64
9, 1176960, Note_on_c, 7, 86, 112
9, 1177896, Note_off_c, 7, 86, 64
9, 1177920, Note_on_c, 7, 77, 112
9, 1178832, Note_off_c, 7, 77, 64
9, 1178880, Note_on_c, 7, 81, 112
9, 1179120, Note_off_c, 7, 81, 64
9, 1179360, Note_on_c, 7, 81, 112
9, 1182720, Note_off_c, 7, 81, 64
9, 1182720, Note_on_c, 7, 77, 127
9, 1182840, Note_off_c, 7, 77, 64
9, 1182840, Note_on_c, 7, 79, 127
9, 1182960, Note_off_c, 7, 79, 64
9, 1182960, Note_on_c, 7, 81, 127
9, 1183080, Note_off_c, 7, 81, 64
9, 1183080, Note_on_c, 7, 82, 127
9, 1183200, Note_off_c, 7, 82, 64
9, 1183200, Note_on_c, 7, 84, 127
9, 1183392, Note_off_c, 7, 84, 64
9, 1184640, Note_on_c, 7, 77, 127
9, 1184760, Note_off_c, 7, 77, 64
9, 1184760, Note_on_c, 7, 79, 127
9, 1184880, Note_off_c, 7, 79, 64
9, 1184880, Note_on_c, 7, 81, 127
9, 1185000, Note_off_c, 7, 81, 64
9, 1185000, Note_on_c, 7, 82, 127
9, 1185120, Note_off_c, 7, 82, 64
9, 1185120, Note_on_c, 7, 84, 127
9, 1185312, Note_off_c, 7, 84, 64
9, 1186560, Note_on_c, 7, 77, 127
9, 1186680, Note_off_c, 7, 77, 64
9, 1186680, Note_on_c, 7, 79, 127
9, 1186800, Note_off_c, 7, 79, 64
9, 1186800, Note_on_c, 7, 81, 127
9, 1186920, Note_off_c, 7, 81, 64
9, 1186920, Note_on_c, 7, 82, 127
9, 1187040, Note_off_c, 7, 82, 64
9, 1187040, Note_on_c, 7, 84, 127
9, 1187232, Note_off_c, 7, 84, 64
9, 1187760, Note_on_c, 7, 81, 127
9, 1187880, Note_off_c, 7, 81, 64
9, 1187880, Note_on_c, 7, 82, 127
9, 1188000, Note_off_c, 7, 82, 64
9, 1188000, Note_on_c, 7, 84, 127
9, 1188192, Note_off_c, 7, 84, 64
9, 1188720, Note_on_c, 7, 81, 127
9, 1188840, Note_off_c, 7, 81, 64
9, 1188840, Note_on_c, 7, 82, 127
9, 1188960, Note_off_c, 7, 82, 64
9, 1188960, Note_on_c, 7, 84, 127
9, 1189152, Note_off_c, 7, 84, 64
9, 1189680, Note_on_c, 7, 81, 127
9, 1189800, Note_off_c, 7, 81, 64
9, 1189800, Note_on_c, 7, 82, 127
9, 1189920, Note_off_c, 7, 82, 64
9, 1189920, Note_on_c, 7, 84, 127
9, 1190112, Note_off_c, 7, 84, 64
9, 1190640, Note_on_c, 7, 81, 127
9, 1190720, Note_off_c, 7, 81, 64
9, 1190720, Note_on_c, 7, 82, 127
9, 1190800, Note_off_c, 7, 82, 64
9, 1190800, Note_on_c, 7, 84, 127
9, 1190880, Note_off_c, 7, 84, 64
9, 1190880, Note_on_c, 7, 86, 127
9, 1191072, Note_off_c, 7, 86, 64
9, 1191360, Note_on_c, 7, 82, 80
9, 1191552, Note_off_c, 7, 82, 64
9, 1192320, Note_on_c, 7, 86, 80
9, 1192512, Note_off_c, 7, 86, 64
9, 1192800, Note_on_c, 7, 82, 100
9, 1192992, Note_off_c, 7, 82, 64
9, 1193280, Note_on_c, 7, 77, 80
9, 1193472, Note_off_c, 7, 77, 64
9, 1194240, Note_on_c, 7, 82, 80
9, 1194432, Note_off_c, 7, 82, 64
9, 1194720, Note_on_c, 7, 77, 100
9, 1194912, Note_off_c, 7, 77, 64
9, 1195200, Note_on_c, 7, 74, 80
9, 1195392, Note_off_c, 7, 74, 64
9, 1196160, Note_on_c, 7, 77, 80
9, 1196352, Note_off_c, 7, 77, 64
9, 1196640, Note_on_c, 7, 74, 100
9, 1196832, Note_off_c, 7, 74, 64
9, 1197120, Note_on_c, 7, 70, 80
9, 1197312, Note_off_c, 7, 70, 64
9, 1198320, Note_on_c, 7, 86, 80
9, 1198440, Note_off_c, 7, 86, 64
9, 1198440, Note_on_c, 7, 87, 80
9, 1198560, Note_off_c, 7, 87, 64
9, 1198560, Note_on_c, 7, 89, 100
9, 1198752, Note_off_c, 7, 89, 64
9, 1199040, Note_on_c, 7, 86, 80
9, 1199232, Note_off_c, 7, 86, 64
9, 1200000, Note_on_c, 7, 89, 80
9, 1200192, Note_off_c, 7, 89, 64
9, 1200480, Note_on_c, 7, 86, 100
9, 1200672, Note_off_c, 7, 86, 64
9, 1200960, Note_on_c, 7, 82, 80
9, 1201152, Note_off_c, 7, 82, 64
9, 1201920, Note_on_c, 7, 86, 80
9, 1202112, Note_off_c, 7, 86, 64
9, 1202400, Note_on_c, 7, 82, 100
9, 1202592, Note_off_c, 7, 82, 64
9, 1202880, Note_on_c, 7, 77, 80
9, 1203072, Note_off_c, 7, 77, 64
9, 1203840, Note_on_c, 7, 82, 80
9, 1204032, Note_off_c, 7, 82, 64
9, 1204320, Note_on_c, 7, 77, 100
9, 1204512, Note_off_c, 7, 77, 64
9, 1204800, Note_on_c, 7, 74, 80
9, 1204992, Note_off_c, 7, 74, 64
9, 1205760, Note_on_c, 7, 77, 80
9, 1205952, Note_off_c, 7, 77, 64
9, 1206240, Note_on_c, 7, 70, 80
9, 1206432, Note_off_c, 7, 70, 64
9, 1210080, Note_on_c, 7, 72, 127
9, 1210080, Note_on_c, 7, 81, 127
9, 1211616, Note_off_c, 7, 81, 64
9, 1211616, Note_off_c, 7, 72, 64
9, 1212000, Note_on_c, 7, 72, 127
9, 1212000, Note_on_c, 7, 81, 127
9, 1213620, Note_off_c, 7, 81, 64
9, 1213620, Note_off_c, 7, 72, 64
9, 1213800, Note_on_c, 7, 72, 127
9, 1213800, Note_on_c, 7, 81, 127
9, 1213908, Note_off_c, 7, 81, 64
9, 1213908, Note_off_c, 7, 72, 64
9, 1213920, Note_on_c, 7, 82, 127
9, 1213920, Note_on_c, 7, 74, 127
9, 1214112, Note_off_c, 7, 74, 64
9, 1214112, Note_off_c, 7, 82, 64
9, 1217760, Note_on_c, 7, 72, 127
9, 1217760, Note_on_c, 7, 81, 127
9, 1219296, Note_off_c, 7, 81, 64
9, 1219296, Note_off_c, 7, 72, 64
9, 1219680, Note_on_c, 7, 72, 127
9, 1219680, Note_on_c, 7, 81, 127
9, 1221264, Note_off_c, 7, 81, 64
9, 1221264, Note_off_c, 7, 72, 64
9, 1221480, Note_on_c, 7, 72, 127
9, 1221480, Note_on_c, 7, 81, 127
9, 1221588, Note_off_c, 7, 81, 64
9, 1221588, Note_off_c, 7, 72, 64
9, 1221600, Note_on_c, 7, 82, 112
9, 1221600, Note_on_c, 7, 74, 72
9, 1221984, Note_off_c, 7, 74, 64
9, 1221984, Note_off_c, 7, 82, 64
9, 1223280, Note_on_c, 7, 77, 80
9, 1223360, Note_off_c, 7, 77, 64
9, 1223360, Note_on_c, 7, 79, 80
9, 1223440, Note_off_c, 7, 79, 64
9, 1223440, Note_on_c, 7, 81, 80
9, 1223520, Note_off_c, 7, 81, 64
9, 1223520, Note_on_c, 7, 82, 80
9, 1224000, Note_off_c, 7, 82, 64
9, 1226880, Note_on_c, 7, 77, 80
9, 1227000, Note_off_c, 7, 77, 64
9, 1227000, Note_on_c, 7, 79, 80
9, 1227120, Note_off_c, 7, 79, 64
9, 1227120, Note_on_c, 7, 81, 80
9, 1227240, Note_off_c, 7, 81, 64
9, 1227240, Note_on_c, 7, 82, 80
9, 1227360, Note_off_c, 7, 82, 64
9, 1227360, Note_on_c, 7, 84, 80
9, 1227840, Note_off_c, 7, 84, 64
9, 1230720, Note_on_c, 7, 77, 104
9, 1230816, Note_off_c, 7, 77, 64
9, 1230816, Note_on_c, 7, 79, 104
9, 1230912, Note_off_c, 7, 79, 64
9, 1230912, Note_on_c, 7, 81, 104
9, 1231008, Note_off_c, 7, 81, 64
9, 1231008, Note_on_c, 7, 82, 104
9, 1231104, Note_off_c, 7, 82, 64
9, 1231104, Note_on_c, 7, 84, 104
9, 1231200, Note_off_c, 7, 84, 64
9, 1231200, Note_on_c, 7, 86, 104
9, 1231680, Note_off_c, 7, 86, 64
9, 1233840, Note_on_c, 7, 69, 127
9, 1233960, Note_off_c, 7, 69, 64
9, 1233960, Note_on_c, 7, 70, 127
9, 1234080, Note_off_c, 7, 70, 64
9, 1234080, Note_on_c, 7, 72, 127
9, 1234320, Note_off_c, 7, 72, 64
9, 1234800, Note_on_c, 7, 72, 127
9, 1234920, Note_off_c, 7, 72, 64
9, 1234920, Note_on_c, 7, 74, 127
9, 1235040, Note_off_c, 7, 74, 64
9, 1235040, Note_on_c, 7, 75, 127
9, 1235280, Note_off_c, 7, 75, 64
9, 1235760, Note_on_c, 7, 75, 127
9, 1235880, Note_off_c, 7, 75, 64
9, 1235880, Note_on_c, 7, 77, 127
9, 1236000, Note_off_c, 7, 77, 64
9, 1236000, Note_on_c, 7, 79, 127
9, 1236240, Note_off_c, 7, 79, 64
9, 1236720, Note_on_c, 7, 79, 127
9, 1236840, Note_off_c, 7, 79, 64
9, 1236840, Note_on_c, 7, 81, 127
9, 1236960, Note_off_c, 7, 81, 64
9, 1236960, Note_on_c, 7, 82, 127
9, 1237152, Note_off_c, 7, 82, 64
9, 1237200, Note_on_c, 7, 82, 127
9, 1237392, Note_off_c, 7, 82, 64
9, 1237440, Note_on_c, 7, 82, 127
9, 1237632, Note_off_c, 7, 82, 64
9, 1237680, Note_on_c, 7, 82, 127
9, 1237872, Note_off_c, 7, 82, 64
9, 1237920, Note_on_c, 7, 82, 127
9, 1238112, Note_off_c, 7, 82, 64
9, 1238160, Note_on_c, 7, 82, 127
9, 1238352, Note_off_c, 7, 82, 64
9, 1238400, Note_on_c, 7, 82, 127
9, 1238592, Note_off_c, 7, 82, 64
9, 1238640, Note_on_c, 7, 82, 127
9, 1238832, Note_off_c, 7, 82, 64
9, 1238880, Note_on_c, 7, 82, 127
9, 1239072, Note_off_c, 7, 82, 64
9, 1239120, Note_on_c, 7, 82, 127
9, 1239312, Note_off_c, 7, 82, 64
9, 1239360, Note_on_c, 7, 82, 127
9, 1239552, Note_off_c, 7, 82, 64
9, 1239600, Note_on_c, 7, 82, 127
9, 1239792, Note_off_c, 7, 82, 64
9, 1239840, Note_on_c, 7, 82, 127
9, 1240032, Note_off_c, 7, 82, 64
9, 1240080, Note_on_c, 7, 82, 127
9, 1240272, Note_off_c, 7, 82, 64
9, 1240320, Note_on_c, 7, 82, 127
9, 1240512, Note_off_c, 7, 82, 64
9, 1240560, Note_on_c, 7, 82, 127
9, 1240752, Note_off_c, 7, 82, 64
9, 1240800, Note_on_c, 7, 82, 127
9, 1240992, Note_off_c, 7, 82, 64
9, 1241040, Note_on_c, 7, 82, 127
9, 1241232, Note_off_c, 7, 82, 64
9, 1241280, Note_on_c, 7, 82, 127
9, 1241472, Note_off_c, 7, 82, 64
9, 1241520, Note_on_c, 7, 82, 127
9, 1241712, Note_off_c, 7, 82, 64
9, 1241760, Note_on_c, 7, 82, 127
9, 1241952, Note_off_c, 7, 82, 64
9, 1242000, Note_on_c, 7, 82, 127
9, 1242192, Note_off_c, 7, 82, 64
9, 1242240, Note_on_c, 7, 82, 127
9, 1242432, Note_off_c, 7, 82, 64
9, 1242480, Note_on_c, 7, 82, 127
9, 1242672, Note_off_c, 7, 82, 64
9, 1242720, Note_on_c, 7, 82, 127
9, 1242912, Note_off_c, 7, 82, 64
9, 1242960, Note_on_c, 7, 82, 127
9, 1243152, Note_off_c, 7, 82, 64
9, 1243200, Note_on_c, 7, 82, 127
9, 1243392, Note_off_c, 7, 82, 64
9, 1243440, Note_on_c, 7, 82, 127
9, 1243632, Note_off_c, 7, 82, 64
9, 1243680, Note_on_c, 7, 82, 127
9, 1243872, Note_off_c, 7, 82, 64
9, 1243920, Note_on_c, 7, 82, 127
9, 1244112, Note_off_c, 7, 82, 64
9, 1244160, Note_on_c, 7, 82, 127
9, 1244352, Note_off_c, 7, 82, 64
9, 1244400, Note_on_c, 7, 77, 127
9, 1244480, Note_off_c, 7, 77, 64
9, 1244480, Note_on_c, 7, 79, 127
9, 1244560, Note_off_c, 7, 79, 64
9, 1244560, Note_on_c, 7, 81, 127
9, 1244640, Note_off_c, 7, 81, 64
9, 1244640, Note_on_c, 7, 82, 127
9, 1244880, Note_off_c, 7, 82, 64
9, 1245360, Note_on_c, 7, 77, 127
9, 1245440, Note_off_c, 7, 77, 64
9, 1245440, Note_on_c, 7, 79, 127
9, 1245520, Note_off_c, 7, 79, 64
9, 1245520, Note_on_c, 7, 81, 127
9, 1245600, Note_off_c, 7, 81, 64
9, 1245600, Note_on_c, 7, 82, 127
9, 1245840, Note_off_c, 7, 82, 64
9, 1246320, Note_on_c, 7, 77, 127
9, 1246400, Note_off_c, 7, 77, 64
9, 1246400, Note_on_c, 7, 79, 127
9, 1246480, Note_off_c, 7, 79, 64
9, 1246480, Note_on_c, 7, 81, 127
9, 1246560, Note_off_c, 7, 81, 64
9, 1246560, Note_on_c, 7, 82, 127
9, 1246800, Note_off_c, 7, 82, 64
9, 1248480, Note_on_c, 7, 70, 127
9, 1248480, Note_on_c, 7, 58, 127
9, 1248480, Note_on_c, 7, 62, 127
9, 1248720, Note_off_c, 7, 62, 64
9, 1248720, Note_off_c, 7, 58, 64
9, 1248720, Note_off_c, 7, 70, 64
9, 1248960, Control_c, 7, 7, 127
9, 1250400, Note_on_c, 7, 58, 127
9, 1250640, Note_off_c, 7, 58, 64
9, 1250640, End_track
10, 0, Start_track
10, 0, Title_t, "Violin 2"
10, 0, MIDI_port, 0
10, 0, Channel_prefix, 8
10, 0, Control_c, 8, 7, 99
10, 0, Control_c, 8, 10, 45
10, 0, Program_c, 8, 48
10, 480, Program_c, 8, 48
10, 480, Control_c, 8, 91, 85
10, 480, Control_c, 8, 7, 90
10, 480, Control_c, 8, 93, 90
10, 480, Control_c, 8, 10, 94
10, 5700, Control_c, 8, 7, 75
10, 18720, Note_on_c, 8, 70, 24
10, 19200, Note_off_c, 8, 70, 64
10, 19200, Note_on_c, 8, 69, 21
10, 19392, Note_off_c, 8, 69, 64
10, 22560, Note_on_c, 8, 58, 27
10, 23040, Note_off_c, 8, 58, 64
10, 23040, Note_on_c, 8, 57, 26
10, 23232, Note_off_c, 8, 57, 64
10, 41760, Note_on_c, 8, 71, 24
10, 42240, Note_off_c, 8, 71, 64
10, 42240, Note_on_c, 8, 70, 21
10, 42432, Note_off_c, 8, 70, 64
10, 45600, Note_on_c, 8, 59, 24
10, 46080, Note_off_c, 8, 59, 64
10, 46080, Note_on_c, 8, 58, 21
10, 46272, Note_off_c, 8, 58, 64
10, 48000, Program_c, 8, 45
10, 51360, Note_on_c, 8, 64, 32
10, 51360, Note_on_c, 8, 61, 32
10, 51744, Note_off_c, 8, 61, 64
10, 51744, Note_off_c, 8, 64, 64
10, 51840, Program_c, 8, 48
10, 54240, Note_on_c, 8, 65, 22
10, 54240, Note_on_c, 8, 55, 22
10, 54432, Note_off_c, 8, 55, 64
10, 54432, Note_off_c, 8, 65, 64
10, 54720, Note_on_c, 8, 55, 22
10, 54720, Note_on_c, 8, 65, 22
10, 54912, Note_off_c, 8, 65, 64
10, 54912, Note_off_c, 8, 55, 64
10, 56160, Note_on_c, 8, 64, 22
10, 56160, Note_on_c, 8, 55, 22
10, 56352, Note_off_c, 8, 55, 64
10, 56352, Note_off_c, 8, 64, 64
10, 56640, Note_on_c, 8, 55, 22
10, 56640, Note_on_c, 8, 64, 22
10, 56832, Note_off_c, 8, 64, 64
10, 56832, Note_off_c, 8, 55, 64
10, 58080, Note_on_c, 8, 67, 22
10, 58080, Note_on_c, 8, 57, 22
10, 58272, Note_off_c, 8, 57, 64
10, 58272, Note_off_c, 8, 67, 64
10, 58560, Note_on_c, 8, 67, 22
10, 58560, Note_on_c, 8, 57, 22
10, 58752, Note_off_c, 8, 57, 64
10, 58752, Note_off_c, 8, 67, 64
10, 60000, Note_on_c, 8, 57, 22
10, 60000, Note_on_c, 8, 65, 22
10, 60192, Note_off_c, 8, 65, 64
10, 60192, Note_off_c, 8, 57, 64
10, 60480, Note_on_c, 8, 57, 22
10, 60480, Note_on_c, 8, 65, 22
10, 60672, Note_off_c, 8, 65, 64
10, 60672, Note_off_c, 8, 57, 64
10, 60960, Note_on_c, 8, 65, 64
10, 60960, Note_on_c, 8, 62, 64
10, 61632, Note_off_c, 8, 62, 64
10, 61632, Note_off_c, 8, 65, 64
10, 62880, Note_on_c, 8, 62, 45
10, 62880, Note_on_c, 8, 58, 45
10, 63360, Note_off_c, 8, 58, 64
10, 63360, Note_off_c, 8, 62, 64
10, 63360, Note_on_c, 8, 59, 30
10, 63360, Note_on_c, 8, 62, 30
10, 63840, Note_off_c, 8, 62, 64
10, 63840, Note_off_c, 8, 59, 64
10, 63840, Note_on_c, 8, 62, 48
10, 64320, Note_off_c, 8, 62, 64
10, 64320, Note_on_c, 8, 64, 48
10, 64800, Note_off_c, 8, 64, 64
10, 64800, Note_on_c, 8, 59, 48
10, 65280, Note_off_c, 8, 59, 64
10, 65280, Note_on_c, 8, 61, 38
10, 65760, Note_off_c, 8, 61, 64
10, 65760, Note_on_c, 8, 61, 38
10, 66240, Note_off_c, 8, 61, 64
10, 66240, Note_on_c, 8, 62, 38
10, 66720, Note_off_c, 8, 62, 64
10, 66720, Note_on_c, 8, 64, 38
10, 66960, Note_off_c, 8, 64, 64
10, 66960, Note_on_c, 8, 65, 38
10, 67200, Note_off_c, 8, 65, 64
10, 67200, Note_on_c, 8, 64, 38
10, 67680, Note_off_c, 8, 64, 64
10, 67680, Note_on_c, 8, 61, 38
10, 68160, Note_off_c, 8, 61, 64
10, 68160, Note_on_c, 8, 62, 38
10, 68640, Note_off_c, 8, 62, 64
10, 68640, Note_on_c, 8, 57, 38
10, 68880, Note_off_c, 8, 57, 64
10, 68880, Note_on_c, 8, 57, 38
10, 69120, Note_off_c, 8, 57, 64
10, 69120, Note_on_c, 8, 57, 23
10, 69504, Note_off_c, 8, 57, 64
10, 70080, Note_on_c, 8, 57, 23
10, 70320, Note_off_c, 8, 57, 64
10, 71040, Note_on_c, 8, 57, 18
10, 71280, Note_off_c, 8, 57, 64
10, 72480, Control_c, 8, 7, 90
10, 72960, Note_on_c, 8, 69, 127
10, 74800, Note_off_c, 8, 69, 64
10, 74880, Note_on_c, 8, 69, 127
10, 74976, Note_off_c, 8, 69, 64
10, 76800, Note_on_c, 8, 69, 127
10, 78640, Note_off_c, 8, 69, 64
10, 78720, Note_on_c, 8, 69, 127
10, 78960, Note_off_c, 8, 69, 64
10, 80640, Note_on_c, 8, 69, 102
10, 80880, Note_off_c, 8, 69, 64
10, 82560, Note_on_c, 8, 69, 102
10, 82800, Note_off_c, 8, 69, 64
10, 83520, Note_on_c, 8, 69, 102
10, 83760, Note_off_c, 8, 69, 64
10, 84480, Note_on_c, 8, 69, 102
10, 84720, Note_off_c, 8, 69, 64
10, 85440, Note_on_c, 8, 69, 102
10, 85680, Note_off_c, 8, 69, 64
10, 86400, Note_on_c, 8, 70, 102
10, 86626, Note_off_c, 8, 70, 64
10, 86640, Note_on_c, 8, 62, 48
10, 86832, Note_off_c, 8, 62, 64
10, 86880, Note_on_c, 8, 62, 48
10, 87072, Note_off_c, 8, 62, 64
10, 87120, Note_on_c, 8, 62, 48
10, 87312, Note_off_c, 8, 62, 64
10, 87360, Note_on_c, 8, 62, 48
10, 87552, Note_off_c, 8, 62, 64
10, 87600, Note_on_c, 8, 62, 48
10, 87792, Note_off_c, 8, 62, 64
10, 87840, Note_on_c, 8, 62, 48
10, 88032, Note_off_c, 8, 62, 64
10, 88080, Note_on_c, 8, 62, 48
10, 88272, Note_off_c, 8, 62, 64
10, 88320, Note_on_c, 8, 62, 48
10, 88512, Note_off_c, 8, 62, 64
10, 88560, Note_on_c, 8, 62, 48
10, 88752, Note_off_c, 8, 62, 64
10, 88800, Note_on_c, 8, 62, 48
10, 88992, Note_off_c, 8, 62, 64
10, 89040, Note_on_c, 8, 62, 48
10, 89232, Note_off_c, 8, 62, 64
10, 89280, Note_on_c, 8, 62, 48
10, 89472, Note_off_c, 8, 62, 64
10, 89520, Note_on_c, 8, 62, 48
10, 89712, Note_off_c, 8, 62, 64
10, 89760, Note_on_c, 8, 62, 48
10, 89952, Note_off_c, 8, 62, 64
10, 90000, Note_on_c, 8, 62, 48
10, 90192, Note_off_c, 8, 62, 64
10, 90240, Note_on_c, 8, 67, 48
10, 90432, Note_off_c, 8, 67, 64
10, 90480, Note_on_c, 8, 67, 48
10, 90672, Note_off_c, 8, 67, 64
10, 90720, Note_on_c, 8, 67, 48
10, 90912, Note_off_c, 8, 67, 64
10, 90960, Note_on_c, 8, 67, 48
10, 91152, Note_off_c, 8, 67, 64
10, 91200, Note_on_c, 8, 67, 48
10, 91392, Note_off_c, 8, 67, 64
10, 91440, Note_on_c, 8, 67, 48
10, 91632, Note_off_c, 8, 67, 64
10, 91680, Note_on_c, 8, 67, 48
10, 91872, Note_off_c, 8, 67, 64
10, 91920, Note_on_c, 8, 67, 48
10, 91920, Note_on_c, 8, 67, 48
10, 92112, Note_off_c, 8, 67, 64
10, 92112, Note_off_c, 8, 67, 64
10, 92160, Note_on_c, 8, 65, 48
10, 92352, Note_off_c, 8, 65, 64
10, 92400, Note_on_c, 8, 65, 48
10, 92592, Note_off_c, 8, 65, 64
10, 92640, Note_on_c, 8, 65, 48
10, 92832, Note_off_c, 8, 65, 64
10, 92880, Note_on_c, 8, 65, 48
10, 93072, Note_off_c, 8, 65, 64
10, 93120, Note_on_c, 8, 65, 48
10, 93312, Note_off_c, 8, 65, 64
10, 93360, Note_on_c, 8, 65, 48
10, 93552, Note_off_c, 8, 65, 64
10, 93600, Note_on_c, 8, 65, 48
10, 93792, Note_off_c, 8, 65, 64
10, 93840, Note_on_c, 8, 65, 48
10, 94032, Note_off_c, 8, 65, 64
10, 94080, Note_on_c, 8, 65, 48
10, 94272, Note_off_c, 8, 65, 64
10, 101760, Note_on_c, 8, 69, 102
10, 102000, Note_off_c, 8, 69, 64
10, 103680, Note_on_c, 8, 69, 102
10, 103920, Note_off_c, 8, 69, 64
10, 104640, Note_on_c, 8, 69, 102
10, 104880, Note_off_c, 8, 69, 64
10, 113760, Note_on_c, 8, 62, 96
10, 113952, Note_off_c, 8, 62, 64
10, 114000, Note_on_c, 8, 62, 96
10, 114192, Note_off_c, 8, 62, 64
10, 114240, Note_on_c, 8, 60, 96
10, 114432, Note_off_c, 8, 60, 64
10, 114480, Note_on_c, 8, 60, 96
10, 114672, Note_off_c, 8, 60, 64
10, 114720, Note_on_c, 8, 58, 96
10, 114912, Note_off_c, 8, 58, 64
10, 114960, Note_on_c, 8, 58, 96
10, 115152, Note_off_c, 8, 58, 64
10, 115200, Note_on_c, 8, 57, 96
10, 115392, Note_off_c, 8, 57, 64
10, 115440, Note_on_c, 8, 57, 96
10, 115632, Note_off_c, 8, 57, 64
10, 115680, Note_on_c, 8, 55, 96
10, 115872, Note_off_c, 8, 55, 64
10, 115920, Note_on_c, 8, 55, 96
10, 116112, Note_off_c, 8, 55, 64
10, 116160, Note_on_c, 8, 65, 96
10, 116352, Note_off_c, 8, 65, 64
10, 116400, Note_on_c, 8, 65, 96
10, 116592, Note_off_c, 8, 65, 64
10, 116640, Note_on_c, 8, 55, 96
10, 116640, Note_on_c, 8, 55, 96
10, 116832, Note_off_c, 8, 55, 64
10, 116832, Note_off_c, 8, 55, 64
10, 116880, Note_on_c, 8, 55, 96
10, 117072, Note_off_c, 8, 55, 64
10, 117120, Note_on_c, 8, 63, 102
10, 117360, Note_off_c, 8, 63, 64
10, 117360, Note_on_c, 8, 62, 102
10, 117600, Note_off_c, 8, 62, 64
10, 117600, Note_on_c, 8, 63, 102
10, 117840, Note_off_c, 8, 63, 64
10, 117840, Note_on_c, 8, 62, 102
10, 118080, Note_off_c, 8, 62, 64
10, 118080, Note_on_c, 8, 63, 102
10, 118320, Note_off_c, 8, 63, 64
10, 118320, Note_on_c, 8, 62, 102
10, 118560, Note_off_c, 8, 62, 64
10, 118560, Note_on_c, 8, 63, 102
10, 118800, Note_off_c, 8, 63, 64
10, 118800, Note_on_c, 8, 62, 102
10, 119040, Note_off_c, 8, 62, 64
10, 119040, Note_on_c, 8, 63, 102
10, 119232, Note_off_c, 8, 63, 64
10, 119280, Note_on_c, 8, 75, 64
10, 119472, Note_off_c, 8, 75, 64
10, 119520, Note_on_c, 8, 75, 64
10, 119712, Note_off_c, 8, 75, 64
10, 119760, Note_on_c, 8, 75, 64
10, 119952, Note_off_c, 8, 75, 64
10, 120000, Note_on_c, 8, 75, 64
10, 120192, Note_off_c, 8, 75, 64
10, 120240, Note_on_c, 8, 75, 64
10, 120432, Note_off_c, 8, 75, 64
10, 120480, Note_on_c, 8, 75, 64
10, 120672, Note_off_c, 8, 75, 64
10, 120720, Note_on_c, 8, 75, 64
10, 120912, Note_off_c, 8, 75, 64
10, 120960, Note_on_c, 8, 69, 102
10, 120960, Note_on_c, 8, 75, 102
10, 121320, Note_off_c, 8, 75, 64
10, 121320, Note_off_c, 8, 69, 64
10, 122880, Note_on_c, 8, 62, 102
10, 122880, Note_on_c, 8, 74, 102
10, 123240, Note_off_c, 8, 74, 64
10, 123240, Note_off_c, 8, 62, 64
10, 124800, Note_on_c, 8, 63, 102
10, 124800, Note_on_c, 8, 79, 102
10, 124800, Note_on_c, 8, 72, 102
10, 125160, Note_off_c, 8, 72, 64
10, 125160, Note_off_c, 8, 79, 64
10, 125160, Note_off_c, 8, 63, 64
10, 126720, Note_on_c, 8, 65, 102
10, 126720, Note_on_c, 8, 75, 102
10, 127080, Note_off_c, 8, 75, 64
10, 127080, Note_off_c, 8, 65, 64
10, 136800, Note_on_c, 8, 69, 65
10, 137040, Note_off_c, 8, 69, 64
10, 137040, Note_on_c, 8, 68, 65
10, 137280, Note_off_c, 8, 68, 64
10, 137280, Note_on_c, 8, 69, 65
10, 137520, Note_off_c, 8, 69, 64
10, 137520, Note_on_c, 8, 68, 65
10, 137760, Note_off_c, 8, 68, 64
10, 137760, Note_on_c, 8, 69, 65
10, 138000, Note_off_c, 8, 69, 64
10, 138000, Note_on_c, 8, 68, 65
10, 138240, Note_off_c, 8, 68, 64
10, 138240, Note_on_c, 8, 69, 65
10, 138432, Note_off_c, 8, 69, 64
10, 144480, Note_on_c, 8, 71, 80
10, 144720, Note_off_c, 8, 71, 64
10, 144720, Note_on_c, 8, 70, 80
10, 144960, Note_off_c, 8, 70, 64
10, 144960, Note_on_c, 8, 71, 80
10, 145200, Note_off_c, 8, 71, 64
10, 145200, Note_on_c, 8, 70, 80
10, 145440, Note_off_c, 8, 70, 64
10, 145440, Note_on_c, 8, 71, 80
10, 145680, Note_off_c, 8, 71, 64
10, 145680, Note_on_c, 8, 70, 80
10, 145920, Note_off_c, 8, 70, 64
10, 145920, Note_on_c, 8, 71, 80
10, 146112, Note_off_c, 8, 71, 64
10, 148320, Note_on_c, 8, 73, 80
10, 148560, Note_off_c, 8, 73, 64
10, 148560, Note_on_c, 8, 72, 80
10, 148800, Note_off_c, 8, 72, 64
10, 148800, Note_on_c, 8, 73, 80
10, 149040, Note_off_c, 8, 73, 64
10, 149040, Note_on_c, 8, 72, 80
10, 149280, Note_off_c, 8, 72, 64
10, 149280, Note_on_c, 8, 73, 80
10, 149520, Note_off_c, 8, 73, 64
10, 149520, Note_on_c, 8, 72, 80
10, 149760, Note_off_c, 8, 72, 64
10, 149760, Note_on_c, 8, 73, 80
10, 149952, Note_off_c, 8, 73, 64
10, 151680, Note_on_c, 8, 69, 51
10, 151680, Note_on_c, 8, 78, 51
10, 151872, Note_off_c, 8, 78, 64
10, 151872, Note_off_c, 8, 69, 64
10, 151920, Note_on_c, 8, 78, 52
10, 151920, Note_on_c, 8, 69, 52
10, 152112, Note_off_c, 8, 69, 64
10, 152112, Note_off_c, 8, 78, 64
10, 152160, Note_on_c, 8, 69, 54
10, 152160, Note_on_c, 8, 78, 54
10, 152352, Note_off_c, 8, 78, 64
10, 152352, Note_off_c, 8, 69, 64
10, 152400, Note_on_c, 8, 78, 55
10, 152400, Note_on_c, 8, 69, 55
10, 152592, Note_off_c, 8, 69, 64
10, 152592, Note_off_c, 8, 78, 64
10, 152640, Note_on_c, 8, 69, 57
10, 152640, Note_on_c, 8, 78, 57
10, 152832, Note_off_c, 8, 78, 64
10, 152832, Note_off_c, 8, 69, 64
10, 152880, Note_on_c, 8, 78, 58
10, 152880, Note_on_c, 8, 69, 58
10, 153072, Note_off_c, 8, 69, 64
10, 153072, Note_off_c, 8, 78, 64
10, 153120, Note_on_c, 8, 69, 59
10, 153120, Note_on_c, 8, 78, 59
10, 153312, Note_off_c, 8, 78, 64
10, 153312, Note_off_c, 8, 69, 64
10, 153360, Note_on_c, 8, 78, 61
10, 153360, Note_on_c, 8, 69, 61
10, 153552, Note_off_c, 8, 69, 64
10, 153552, Note_off_c, 8, 78, 64
10, 153600, Note_on_c, 8, 69, 68
10, 153600, Note_on_c, 8, 78, 68
10, 153792, Note_off_c, 8, 78, 64
10, 153792, Note_off_c, 8, 69, 64
10, 153840, Note_on_c, 8, 78, 70
10, 153840, Note_on_c, 8, 69, 70
10, 154032, Note_off_c, 8, 69, 64
10, 154032, Note_off_c, 8, 78, 64
10, 154080, Note_on_c, 8, 69, 72
10, 154080, Note_on_c, 8, 78, 72
10, 154272, Note_off_c, 8, 78, 64
10, 154272, Note_off_c, 8, 69, 64
10, 154320, Note_on_c, 8, 69, 73
10, 154320, Note_on_c, 8, 78, 73
10, 154512, Note_off_c, 8, 78, 64
10, 154512, Note_off_c, 8, 69, 64
10, 154560, Note_on_c, 8, 78, 75
10, 154560, Note_on_c, 8, 69, 75
10, 154752, Note_off_c, 8, 69, 64
10, 154752, Note_off_c, 8, 78, 64
10, 154800, Note_on_c, 8, 69, 77
10, 154800, Note_on_c, 8, 78, 77
10, 154992, Note_off_c, 8, 78, 64
10, 154992, Note_off_c, 8, 69, 64
10, 155040, Note_on_c, 8, 78, 77
10, 155040, Note_on_c, 8, 69, 77
10, 155232, Note_off_c, 8, 69, 64
10, 155232, Note_off_c, 8, 78, 64
10, 155280, Note_on_c, 8, 78, 79
10, 155280, Note_on_c, 8, 69, 79
10, 155472, Note_off_c, 8, 69, 64
10, 155472, Note_off_c, 8, 78, 64
10, 155520, Note_on_c, 8, 69, 96
10, 155520, Note_on_c, 8, 77, 96
10, 155712, Note_off_c, 8, 77, 64
10, 155712, Note_off_c, 8, 69, 64
10, 155760, Note_on_c, 8, 77, 98
10, 155760, Note_on_c, 8, 69, 98
10, 155952, Note_off_c, 8, 69, 64
10, 155952, Note_off_c, 8, 77, 64
10, 156000, Note_on_c, 8, 69, 100
10, 156000, Note_on_c, 8, 77, 100
10, 156192, Note_off_c, 8, 77, 64
10, 156192, Note_off_c, 8, 69, 64
10, 156240, Note_on_c, 8, 77, 101
10, 156240, Note_on_c, 8, 69, 101
10, 156432, Note_off_c, 8, 69, 64
10, 156432, Note_off_c, 8, 77, 64
10, 156480, Note_on_c, 8, 69, 103
10, 156480, Note_on_c, 8, 77, 103
10, 156672, Note_off_c, 8, 77, 64
10, 156672, Note_off_c, 8, 69, 64
10, 156720, Note_on_c, 8, 69, 105
10, 156720, Note_on_c, 8, 77, 105
10, 156912, Note_off_c, 8, 77, 64
10, 156912, Note_off_c, 8, 69, 64
10, 156960, Note_on_c, 8, 77, 107
10, 156960, Note_on_c, 8, 69, 107
10, 157152, Note_off_c, 8, 69, 64
10, 157152, Note_off_c, 8, 77, 64
10, 157200, Note_on_c, 8, 77, 108
10, 157200, Note_on_c, 8, 69, 108
10, 157392, Note_off_c, 8, 69, 64
10, 157392, Note_off_c, 8, 77, 64
10, 157440, Note_on_c, 8, 69, 111
10, 157440, Note_on_c, 8, 77, 111
10, 157632, Note_off_c, 8, 77, 64
10, 157632, Note_off_c, 8, 69, 64
10, 157680, Note_on_c, 8, 77, 112
10, 157680, Note_on_c, 8, 69, 112
10, 157872, Note_off_c, 8, 69, 64
10, 157872, Note_off_c, 8, 77, 64
10, 157920, Note_on_c, 8, 77, 114
10, 157920, Note_on_c, 8, 69, 114
10, 158112, Note_off_c, 8, 69, 64
10, 158112, Note_off_c, 8, 77, 64
10, 158160, Note_on_c, 8, 69, 116
10, 158160, Note_on_c, 8, 77, 116
10, 158352, Note_off_c, 8, 77, 64
10, 158352, Note_off_c, 8, 69, 64
10, 158400, Note_on_c, 8, 69, 117
10, 158400, Note_on_c, 8, 77, 117
10, 158592, Note_off_c, 8, 77, 64
10, 158592, Note_off_c, 8, 69, 64
10, 158640, Note_on_c, 8, 69, 120
10, 158640, Note_on_c, 8, 77, 120
10, 158832, Note_off_c, 8, 77, 64
10, 158832, Note_off_c, 8, 69, 64
10, 158880, Note_on_c, 8, 69, 122
10, 158880, Note_on_c, 8, 77, 122
10, 159072, Note_off_c, 8, 77, 64
10, 159072, Note_off_c, 8, 69, 64
10, 159120, Note_on_c, 8, 77, 124
10, 159120, Note_on_c, 8, 69, 124
10, 159312, Note_off_c, 8, 69, 64
10, 159312, Note_off_c, 8, 77, 64
10, 159360, Note_on_c, 8, 70, 127
10, 162816, Note_off_c, 8, 70, 64
10, 163200, Note_on_c, 8, 75, 127
10, 164736, Note_off_c, 8, 75, 64
10, 165120, Note_on_c, 8, 77, 127
10, 166640, Note_off_c, 8, 77, 64
10, 166640, Note_on_c, 8, 65, 127
10, 166720, Note_off_c, 8, 65, 64
10, 166720, Note_on_c, 8, 67, 127
10, 166800, Note_off_c, 8, 67, 64
10, 166800, Note_on_c, 8, 69, 127
10, 166864, Note_off_c, 8, 69, 64
10, 166880, Note_on_c, 8, 70, 127
10, 166944, Note_off_c, 8, 70, 64
10, 166960, Note_on_c, 8, 72, 127
10, 167024, Note_off_c, 8, 72, 64
10, 167040, Note_on_c, 8, 74, 127
10, 167280, Note_off_c, 8, 74, 64
10, 167280, Note_on_c, 8, 74, 127
10, 167280, Note_on_c, 8, 74, 127
10, 167520, Note_off_c, 8, 74, 64
10, 167520, Note_off_c, 8, 74, 64
10, 167520, Note_on_c, 8, 70, 127
10, 167760, Note_off_c, 8, 70, 64
10, 167760, Note_on_c, 8, 70, 127
10, 168000, Note_off_c, 8, 70, 64
10, 168000, Note_on_c, 8, 65, 127
10, 168240, Note_off_c, 8, 65, 64
10, 168240, Note_on_c, 8, 65, 127
10, 168480, Note_off_c, 8, 65, 64
10, 168480, Note_on_c, 8, 70, 127
10, 168720, Note_off_c, 8, 70, 64
10, 168720, Note_on_c, 8, 70, 127
10, 168960, Note_off_c, 8, 70, 64
10, 168960, Note_on_c, 8, 62, 127
10, 169200, Note_off_c, 8, 62, 64
10, 169200, Note_on_c, 8, 62, 127
10, 169440, Note_off_c, 8, 62, 64
10, 169440, Note_on_c, 8, 65, 127
10, 169680, Note_off_c, 8, 65, 64
10, 169680, Note_on_c, 8, 65, 127
10, 169920, Note_off_c, 8, 65, 64
10, 169920, Note_on_c, 8, 58, 127
10, 170160, Note_off_c, 8, 58, 64
10, 170160, Note_on_c, 8, 58, 127
10, 170400, Note_off_c, 8, 58, 64
10, 170400, Note_on_c, 8, 62, 127
10, 170640, Note_off_c, 8, 62, 64
10, 170640, Note_on_c, 8, 62, 127
10, 170880, Note_off_c, 8, 62, 64
10, 170880, Note_on_c, 8, 55, 127
10, 171120, Note_off_c, 8, 55, 64
10, 171120, Note_on_c, 8, 55, 127
10, 171360, Note_off_c, 8, 55, 64
10, 171360, Note_on_c, 8, 63, 127
10, 171600, Note_off_c, 8, 63, 64
10, 171600, Note_on_c, 8, 63, 127
10, 171840, Note_off_c, 8, 63, 64
10, 171840, Note_on_c, 8, 60, 127
10, 172080, Note_off_c, 8, 60, 64
10, 172080, Note_on_c, 8, 60, 127
10, 172320, Note_off_c, 8, 60, 64
10, 172320, Note_on_c, 8, 58, 127
10, 172560, Note_off_c, 8, 58, 64
10, 172560, Note_on_c, 8, 58, 127
10, 172800, Note_off_c, 8, 58, 64
10, 172800, Note_on_c, 8, 57, 127
10, 173040, Note_off_c, 8, 57, 64
10, 173040, Note_on_c, 8, 57, 127
10, 173280, Note_off_c, 8, 57, 64
10, 173280, Note_on_c, 8, 65, 127
10, 173520, Note_off_c, 8, 65, 64
10, 173520, Note_on_c, 8, 65, 127
10, 173760, Note_off_c, 8, 65, 64
10, 173760, Note_on_c, 8, 63, 127
10, 174000, Note_off_c, 8, 63, 64
10, 174000, Note_on_c, 8, 63, 127
10, 174240, Note_off_c, 8, 63, 64
10, 174240, Note_on_c, 8, 60, 127
10, 174480, Note_off_c, 8, 60, 64
10, 174480, Note_on_c, 8, 60, 127
10, 174720, Note_off_c, 8, 60, 64
10, 174720, Note_on_c, 8, 58, 127
10, 174960, Note_off_c, 8, 58, 64
10, 174960, Note_on_c, 8, 58, 127
10, 174960, Note_on_c, 8, 58, 127
10, 175200, Note_off_c, 8, 58, 64
10, 175200, Note_off_c, 8, 58, 64
10, 175200, Note_on_c, 8, 67, 127
10, 175440, Note_off_c, 8, 67, 64
10, 175440, Note_on_c, 8, 67, 127
10, 175680, Note_off_c, 8, 67, 64
10, 175680, Note_on_c, 8, 64, 127
10, 175920, Note_off_c, 8, 64, 64
10, 175920, Note_on_c, 8, 64, 127
10, 176160, Note_off_c, 8, 64, 64
10, 176160, Note_on_c, 8, 62, 127
10, 176400, Note_off_c, 8, 62, 64
10, 176400, Note_on_c, 8, 62, 127
10, 176640, Note_off_c, 8, 62, 64
10, 176640, Note_on_c, 8, 61, 127
10, 176880, Note_off_c, 8, 61, 64
10, 176880, Note_on_c, 8, 61, 127
10, 177120, Note_off_c, 8, 61, 64
10, 177120, Note_on_c, 8, 69, 127
10, 177360, Note_off_c, 8, 69, 64
10, 177360, Note_on_c, 8, 69, 127
10, 177600, Note_off_c, 8, 69, 64
10, 177600, Note_on_c, 8, 67, 127
10, 177840, Note_off_c, 8, 67, 64
10, 177840, Note_on_c, 8, 67, 127
10, 178080, Note_off_c, 8, 67, 64
10, 178080, Note_on_c, 8, 64, 127
10, 178320, Note_off_c, 8, 64, 64
10, 178320, Note_on_c, 8, 64, 127
10, 178560, Note_off_c, 8, 64, 64
10, 178560, Note_on_c, 8, 62, 127
10, 178800, Note_off_c, 8, 62, 64
10, 178800, Note_on_c, 8, 62, 127
10, 178800, Note_on_c, 8, 62, 127
10, 179040, Note_off_c, 8, 62, 64
10, 179040, Note_off_c, 8, 62, 64
10, 179040, Note_on_c, 8, 71, 127
10, 179280, Note_off_c, 8, 71, 64
10, 179280, Note_on_c, 8, 71, 127
10, 179520, Note_off_c, 8, 71, 64
10, 179520, Note_on_c, 8, 68, 127
10, 179760, Note_off_c, 8, 68, 64
10, 179760, Note_on_c, 8, 68, 127
10, 180000, Note_off_c, 8, 68, 64
10, 180000, Note_on_c, 8, 65, 127
10, 180240, Note_off_c, 8, 65, 64
10, 180240, Note_on_c, 8, 65, 127
10, 180480, Note_off_c, 8, 65, 64
10, 180480, Note_on_c, 8, 64, 127
10, 180720, Note_off_c, 8, 64, 64
10, 180720, Note_on_c, 8, 64, 127
10, 180960, Note_off_c, 8, 64, 64
10, 180960, Note_on_c, 8, 72, 127
10, 181200, Note_off_c, 8, 72, 64
10, 181200, Note_on_c, 8, 72, 127
10, 181440, Note_off_c, 8, 72, 64
10, 181440, Note_on_c, 8, 70, 127
10, 181680, Note_off_c, 8, 70, 64
10, 181680, Note_on_c, 8, 70, 127
10, 181920, Note_off_c, 8, 70, 64
10, 181920, Note_on_c, 8, 67, 127
10, 182160, Note_off_c, 8, 67, 64
10, 182160, Note_on_c, 8, 67, 127
10, 182400, Note_off_c, 8, 67, 64
10, 182400, Note_on_c, 8, 64, 127
10, 182640, Note_off_c, 8, 64, 64
10, 182640, Note_on_c, 8, 64, 127
10, 182880, Note_off_c, 8, 64, 64
10, 182880, Note_on_c, 8, 60, 127
10, 183120, Note_off_c, 8, 60, 64
10, 183120, Note_on_c, 8, 60, 127
10, 183360, Note_off_c, 8, 60, 64
10, 183360, Note_on_c, 8, 58, 127
10, 183600, Note_off_c, 8, 58, 64
10, 183600, Note_on_c, 8, 58, 127
10, 183840, Note_off_c, 8, 58, 64
10, 183840, Note_on_c, 8, 55, 127
10, 184080, Note_off_c, 8, 55, 64
10, 184080, Note_on_c, 8, 55, 127
10, 184320, Note_off_c, 8, 55, 64
10, 184320, Note_on_c, 8, 56, 127
10, 184560, Note_off_c, 8, 56, 64
10, 184560, Note_on_c, 8, 56, 127
10, 184800, Note_off_c, 8, 56, 64
10, 184800, Note_on_c, 8, 53, 127
10, 185040, Note_off_c, 8, 53, 64
10, 185040, Note_on_c, 8, 53, 127
10, 185280, Note_off_c, 8, 53, 64
10, 185280, Note_on_c, 8, 51, 127
10, 185520, Note_off_c, 8, 51, 64
10, 185520, Note_on_c, 8, 51, 127
10, 185760, Note_off_c, 8, 51, 64
10, 185760, Note_on_c, 8, 49, 127
10, 186000, Note_off_c, 8, 49, 64
10, 186000, Note_on_c, 8, 49, 127
10, 186240, Note_off_c, 8, 49, 64
10, 192480, Note_on_c, 8, 71, 125
10, 193440, Note_off_c, 8, 71, 64
10, 193440, Note_on_c, 8, 72, 96
10, 193776, Note_off_c, 8, 72, 64
10, 193920, Note_on_c, 8, 72, 127
10, 194256, Note_off_c, 8, 72, 64
10, 194400, Note_on_c, 8, 67, 96
10, 195168, Note_off_c, 8, 67, 64
10, 195360, Note_on_c, 8, 68, 96
10, 196224, Note_off_c, 8, 68, 64
10, 196320, Note_on_c, 8, 70, 96
10, 197088, Note_off_c, 8, 70, 64
10, 197280, Note_on_c, 8, 65, 96
10, 198144, Note_off_c, 8, 65, 64
10, 198240, Note_on_c, 8, 67, 96
10, 199008, Note_off_c, 8, 67, 64
10, 199200, Note_on_c, 8, 68, 96
10, 200064, Note_off_c, 8, 68, 64
10, 200160, Note_on_c, 8, 71, 125
10, 201120, Note_off_c, 8, 71, 64
10, 201120, Note_on_c, 8, 72, 96
10, 201504, Note_off_c, 8, 72, 64
10, 201600, Note_on_c, 8, 72, 80
10, 206400, Note_off_c, 8, 72, 64
10, 206400, Note_on_c, 8, 60, 60
10, 208320, Note_off_c, 8, 60, 64
10, 208320, Note_on_c, 8, 58, 45
10, 208770, Note_off_c, 8, 58, 64
10, 208800, Note_on_c, 8, 55, 45
10, 209250, Note_off_c, 8, 55, 64
10, 209280, Note_on_c, 8, 57, 34
10, 216960, Note_off_c, 8, 57, 64
10, 216960, Note_on_c, 8, 62, 34
10, 220800, Note_off_c, 8, 62, 64
10, 220800, Note_on_c, 8, 61, 42
10, 220992, Note_off_c, 8, 61, 64
10, 221280, Note_on_c, 8, 57, 42
10, 221472, Note_off_c, 8, 57, 64
10, 221760, Note_on_c, 8, 61, 42
10, 221952, Note_off_c, 8, 61, 64
10, 223200, Note_on_c, 8, 57, 42
10, 223392, Note_off_c, 8, 57, 64
10, 223680, Note_on_c, 8, 62, 42
10, 223872, Note_off_c, 8, 62, 64
10, 225120, Note_on_c, 8, 57, 42
10, 225312, Note_off_c, 8, 57, 64
10, 225600, Note_on_c, 8, 64, 42
10, 225792, Note_off_c, 8, 64, 64
10, 227040, Note_on_c, 8, 57, 42
10, 227232, Note_off_c, 8, 57, 64
10, 227520, Note_on_c, 8, 62, 42
10, 227712, Note_off_c, 8, 62, 64
10, 228480, Note_on_c, 8, 69, 40
10, 228960, Note_off_c, 8, 69, 64
10, 228960, Note_on_c, 8, 68, 40
10, 229440, Note_off_c, 8, 68, 64
10, 229440, Note_on_c, 8, 69, 40
10, 229920, Note_off_c, 8, 69, 64
10, 229920, Note_on_c, 8, 67, 40
10, 230400, Note_off_c, 8, 67, 64
10, 230400, Note_on_c, 8, 65, 40
10, 230880, Note_off_c, 8, 65, 64
10, 230880, Note_on_c, 8, 64, 40
10, 231360, Note_off_c, 8, 64, 64
10, 231360, Note_on_c, 8, 65, 40
10, 231840, Note_off_c, 8, 65, 64
10, 231840, Note_on_c, 8, 62, 40
10, 232320, Note_off_c, 8, 62, 64
10, 232320, Note_on_c, 8, 61, 40
10, 232800, Note_off_c, 8, 61, 64
10, 232800, Note_on_c, 8, 59, 40
10, 233280, Note_off_c, 8, 59, 64
10, 233280, Note_on_c, 8, 61, 40
10, 233760, Note_off_c, 8, 61, 64
10, 233760, Note_on_c, 8, 64, 40
10, 233976, Note_off_c, 8, 64, 64
10, 234120, Note_on_c, 8, 64, 40
10, 234240, Note_off_c, 8, 64, 64
10, 234240, Note_on_c, 8, 62, 40
10, 234720, Note_off_c, 8, 62, 64
10, 234720, Note_on_c, 8, 61, 40
10, 235200, Note_off_c, 8, 61, 64
10, 235200, Note_on_c, 8, 62, 40
10, 235680, Note_off_c, 8, 62, 64
10, 235680, Note_on_c, 8, 58, 40
10, 236160, Note_off_c, 8, 58, 64
10, 236160, Note_on_c, 8, 57, 32
10, 236640, Note_off_c, 8, 57, 64
10, 237120, Note_on_c, 8, 58, 32
10, 237600, Note_off_c, 8, 58, 64
10, 238080, Note_on_c, 8, 55, 32
10, 238560, Note_off_c, 8, 55, 64
10, 239040, Note_on_c, 8, 59, 32
10, 239520, Note_off_c, 8, 59, 64
10, 240000, Note_on_c, 8, 60, 32
10, 240480, Note_off_c, 8, 60, 64
10, 240960, Note_on_c, 8, 57, 32
10, 241440, Note_off_c, 8, 57, 64
10, 241920, Note_on_c, 8, 60, 31
10, 242400, Note_off_c, 8, 60, 64
10, 242880, Note_on_c, 8, 62, 36
10, 243360, Note_off_c, 8, 62, 64
10, 243840, Note_on_c, 8, 58, 40
10, 244320, Note_off_c, 8, 58, 64
10, 244800, Note_on_c, 8, 62, 44
10, 245280, Note_off_c, 8, 62, 64
10, 245760, Note_on_c, 8, 64, 49
10, 246240, Note_off_c, 8, 64, 64
10, 246720, Note_on_c, 8, 60, 53
10, 247200, Note_off_c, 8, 60, 64
10, 247680, Note_on_c, 8, 64, 57
10, 248160, Note_off_c, 8, 64, 64
10, 248640, Note_on_c, 8, 65, 61
10, 249120, Note_off_c, 8, 65, 64
10, 249600, Note_on_c, 8, 62, 66
10, 250080, Note_off_c, 8, 62, 64
10, 250560, Note_on_c, 8, 66, 70
10, 251040, Note_off_c, 8, 66, 64
10, 251520, Note_on_c, 8, 67, 74
10, 252000, Note_off_c, 8, 67, 64
10, 252480, Note_on_c, 8, 64, 79
10, 252960, Note_off_c, 8, 64, 64
10, 253440, Note_on_c, 8, 67, 83
10, 253920, Note_off_c, 8, 67, 64
10, 254400, Note_on_c, 8, 69, 87
10, 254880, Note_off_c, 8, 69, 64
10, 255360, Note_on_c, 8, 70, 92
10, 255840, Note_off_c, 8, 70, 64
10, 256320, Note_on_c, 8, 71, 96
10, 256800, Note_off_c, 8, 71, 64
10, 257280, Note_on_c, 8, 72, 92
10, 257760, Note_off_c, 8, 72, 64
10, 258240, Note_on_c, 8, 76, 96
10, 258240, Note_on_c, 8, 72, 96
10, 258720, Note_off_c, 8, 72, 64
10, 258720, Note_off_c, 8, 76, 64
10, 259200, Note_on_c, 8, 72, 92
10, 259200, Note_on_c, 8, 76, 92
10, 259680, Note_off_c, 8, 76, 64
10, 259680, Note_off_c, 8, 72, 64
10, 260160, Note_on_c, 8, 76, 96
10, 260160, Note_on_c, 8, 72, 96
10, 260640, Note_off_c, 8, 72, 64
10, 260640, Note_off_c, 8, 76, 64
10, 261120, Note_on_c, 8, 72, 92
10, 261120, Note_on_c, 8, 76, 92
10, 261600, Note_off_c, 8, 76, 64
10, 261600, Note_off_c, 8, 72, 64
10, 262080, Note_on_c, 8, 76, 96
10, 262080, Note_on_c, 8, 72, 96
10, 262560, Note_off_c, 8, 72, 64
10, 262560, Note_off_c, 8, 76, 64
10, 263040, Note_on_c, 8, 72, 80
10, 264480, Note_off_c, 8, 72, 64
10, 264480, Note_on_c, 8, 69, 80
10, 264768, Note_off_c, 8, 69, 64
10, 264960, Note_on_c, 8, 74, 80
10, 266400, Note_off_c, 8, 74, 64
10, 266400, Note_on_c, 8, 70, 80
10, 266688, Note_off_c, 8, 70, 64
10, 266880, Note_on_c, 8, 69, 80
10, 268032, Note_off_c, 8, 69, 64
10, 268320, Note_on_c, 8, 69, 80
10, 268608, Note_off_c, 8, 69, 64
10, 268800, Note_on_c, 8, 67, 80
10, 269088, Note_off_c, 8, 67, 64
10, 269280, Note_on_c, 8, 67, 80
10, 269568, Note_off_c, 8, 67, 64
10, 269760, Note_on_c, 8, 67, 80
10, 269880, Note_off_c, 8, 67, 64
10, 269880, Note_on_c, 8, 69, 80
10, 270000, Note_off_c, 8, 69, 64
10, 270000, Note_on_c, 8, 67, 80
10, 270120, Note_off_c, 8, 67, 64
10, 270120, Note_on_c, 8, 69, 80
10, 270240, Note_off_c, 8, 69, 64
10, 270240, Note_on_c, 8, 67, 80
10, 270360, Note_off_c, 8, 67, 64
10, 270360, Note_on_c, 8, 69, 80
10, 270480, Note_off_c, 8, 69, 64
10, 270480, Note_on_c, 8, 65, 80
10, 270600, Note_off_c, 8, 65, 64
10, 270600, Note_on_c, 8, 67, 80
10, 270720, Note_off_c, 8, 67, 64
10, 270720, Note_on_c, 8, 72, 80
10, 271200, Note_off_c, 8, 72, 64
10, 271200, Note_on_c, 8, 69, 80
10, 271440, Note_off_c, 8, 69, 64
10, 271680, Note_on_c, 8, 74, 80
10, 272160, Note_off_c, 8, 74, 64
10, 272160, Note_on_c, 8, 70, 80
10, 272400, Note_off_c, 8, 70, 64
10, 272640, Note_on_c, 8, 69, 80
10, 272928, Note_off_c, 8, 69, 64
10, 273120, Note_on_c, 8, 69, 80
10, 273408, Note_off_c, 8, 69, 64
10, 273600, Note_on_c, 8, 67, 80
10, 273720, Note_off_c, 8, 67, 64
10, 273720, Note_on_c, 8, 69, 80
10, 273840, Note_off_c, 8, 69, 64
10, 273840, Note_on_c, 8, 67, 80
10, 273960, Note_off_c, 8, 67, 64
10, 273960, Note_on_c, 8, 69, 80
10, 274080, Note_off_c, 8, 69, 64
10, 274080, Note_on_c, 8, 67, 80
10, 274200, Note_off_c, 8, 67, 64
10, 274200, Note_on_c, 8, 69, 80
10, 274320, Note_off_c, 8, 69, 64
10, 274320, Note_on_c, 8, 65, 80
10, 274440, Note_off_c, 8, 65, 64
10, 274440, Note_on_c, 8, 67, 80
10, 274560, Note_off_c, 8, 67, 64
10, 274560, Note_on_c, 8, 65, 56
10, 274944, Note_off_c, 8, 65, 64
10, 276480, Note_on_c, 8, 60, 32
10, 277920, Note_off_c, 8, 60, 64
10, 277920, Note_on_c, 8, 64, 32
10, 278400, Note_off_c, 8, 64, 64
10, 278400, Note_on_c, 8, 65, 32
10, 278880, Note_off_c, 8, 65, 64
10, 280320, Note_on_c, 8, 60, 32
10, 281760, Note_off_c, 8, 60, 64
10, 281760, Note_on_c, 8, 62, 32
10, 282240, Note_off_c, 8, 62, 64
10, 282240, Note_on_c, 8, 64, 32
10, 282720, Note_off_c, 8, 64, 64
10, 284160, Note_on_c, 8, 67, 32
10, 285600, Note_off_c, 8, 67, 64
10, 285600, Note_on_c, 8, 65, 32
10, 286080, Note_off_c, 8, 65, 64
10, 286080, Note_on_c, 8, 64, 32
10, 286560, Note_off_c, 8, 64, 64
10, 288000, Note_on_c, 8, 64, 32
10, 289440, Note_off_c, 8, 64, 64
10, 289440, Note_on_c, 8, 70, 104
10, 289632, Note_off_c, 8, 70, 64
10, 289680, Note_on_c, 8, 70, 104
10, 289872, Note_off_c, 8, 70, 64
10, 289920, Note_on_c, 8, 69, 104
10, 290112, Note_off_c, 8, 69, 64
10, 290160, Note_on_c, 8, 69, 104
10, 290352, Note_off_c, 8, 69, 64
10, 290400, Note_on_c, 8, 70, 104
10, 290592, Note_off_c, 8, 70, 64
10, 290640, Note_on_c, 8, 70, 104
10, 290832, Note_off_c, 8, 70, 64
10, 290880, Note_on_c, 8, 72, 104
10, 291072, Note_off_c, 8, 72, 64
10, 291120, Note_on_c, 8, 72, 104
10, 291312, Note_off_c, 8, 72, 64
10, 291360, Note_on_c, 8, 60, 104
10, 291552, Note_off_c, 8, 60, 64
10, 291600, Note_on_c, 8, 60, 104
10, 291792, Note_off_c, 8, 60, 64
10, 291840, Note_on_c, 8, 65, 104
10, 293222, Note_off_c, 8, 65, 64
10, 293280, Note_on_c, 8, 67, 104
10, 293472, Note_off_c, 8, 67, 64
10, 293520, Note_on_c, 8, 67, 104
10, 293712, Note_off_c, 8, 67, 64
10, 293760, Note_on_c, 8, 69, 104
10, 293952, Note_off_c, 8, 69, 64
10, 294000, Note_on_c, 8, 69, 104
10, 294192, Note_off_c, 8, 69, 64
10, 294240, Note_on_c, 8, 65, 104
10, 294432, Note_off_c, 8, 65, 64
10, 294480, Note_on_c, 8, 65, 104
10, 294672, Note_off_c, 8, 65, 64
10, 294720, Note_on_c, 8, 69, 104
10, 294912, Note_off_c, 8, 69, 64
10, 294960, Note_on_c, 8, 69, 104
10, 295152, Note_off_c, 8, 69, 64
10, 295200, Note_on_c, 8, 70, 104
10, 295392, Note_off_c, 8, 70, 64
10, 295440, Note_on_c, 8, 70, 104
10, 295632, Note_off_c, 8, 70, 64
10, 295680, Note_on_c, 8, 72, 104
10, 297062, Note_off_c, 8, 72, 64
10, 297120, Note_on_c, 8, 74, 104
10, 297312, Note_off_c, 8, 74, 64
10, 297360, Note_on_c, 8, 74, 104
10, 297552, Note_off_c, 8, 74, 64
10, 297600, Note_on_c, 8, 76, 104
10, 297792, Note_off_c, 8, 76, 64
10, 297840, Note_on_c, 8, 76, 104
10, 298032, Note_off_c, 8, 76, 64
10, 298080, Note_on_c, 8, 77, 104
10, 298272, Note_off_c, 8, 77, 64
10, 298320, Note_on_c, 8, 77, 104
10, 298512, Note_off_c, 8, 77, 64
10, 298560, Note_on_c, 8, 79, 104
10, 298752, Note_off_c, 8, 79, 64
10, 298800, Note_on_c, 8, 79, 104
10, 298992, Note_off_c, 8, 79, 64
10, 299040, Note_on_c, 8, 77, 104
10, 299232, Note_off_c, 8, 77, 64
10, 299280, Note_on_c, 8, 77, 104
10, 299472, Note_off_c, 8, 77, 64
10, 299520, Note_on_c, 8, 76, 104
10, 300902, Note_off_c, 8, 76, 64
10, 300960, Note_on_c, 8, 74, 104
10, 301152, Note_off_c, 8, 74, 64
10, 301200, Note_on_c, 8, 74, 104
10, 301392, Note_off_c, 8, 74, 64
10, 301440, Note_on_c, 8, 72, 104
10, 301632, Note_off_c, 8, 72, 64
10, 301680, Note_on_c, 8, 72, 104
10, 301872, Note_off_c, 8, 72, 64
10, 301920, Note_on_c, 8, 74, 104
10, 302112, Note_off_c, 8, 74, 64
10, 302160, Note_on_c, 8, 74, 104
10, 302352, Note_off_c, 8, 74, 64
10, 302400, Note_on_c, 8, 70, 104
10, 302592, Note_off_c, 8, 70, 64
10, 302640, Note_on_c, 8, 70, 104
10, 302832, Note_off_c, 8, 70, 64
10, 302880, Note_on_c, 8, 67, 104
10, 303072, Note_off_c, 8, 67, 64
10, 303120, Note_on_c, 8, 67, 104
10, 303312, Note_off_c, 8, 67, 64
10, 303360, Note_on_c, 8, 64, 104
10, 305280, Note_off_c, 8, 64, 64
10, 309120, Note_on_c, 8, 82, 40
10, 309312, Note_off_c, 8, 82, 64
10, 309360, Note_on_c, 8, 82, 40
10, 309552, Note_off_c, 8, 82, 64
10, 309600, Note_on_c, 8, 82, 40
10, 309792, Note_off_c, 8, 82, 64
10, 309840, Note_on_c, 8, 82, 40
10, 310032, Note_off_c, 8, 82, 64
10, 310080, Note_on_c, 8, 82, 40
10, 310272, Note_off_c, 8, 82, 64
10, 310320, Note_on_c, 8, 82, 40
10, 310512, Note_off_c, 8, 82, 64
10, 310560, Note_on_c, 8, 82, 40
10, 310752, Note_off_c, 8, 82, 64
10, 310800, Note_on_c, 8, 82, 40
10, 310992, Note_off_c, 8, 82, 64
10, 311040, Note_on_c, 8, 82, 40
10, 311232, Note_off_c, 8, 82, 64
10, 311280, Note_on_c, 8, 82, 40
10, 311472, Note_off_c, 8, 82, 64
10, 311520, Note_on_c, 8, 82, 40
10, 311712, Note_off_c, 8, 82, 64
10, 311760, Note_on_c, 8, 82, 40
10, 311952, Note_off_c, 8, 82, 64
10, 312000, Note_on_c, 8, 82, 40
10, 312192, Note_off_c, 8, 82, 64
10, 312240, Note_on_c, 8, 82, 40
10, 312432, Note_off_c, 8, 82, 64
10, 312480, Note_on_c, 8, 82, 40
10, 312672, Note_off_c, 8, 82, 64
10, 312720, Note_on_c, 8, 82, 40
10, 312912, Note_off_c, 8, 82, 64
10, 312960, Note_on_c, 8, 81, 127
10, 312960, Note_on_c, 8, 69, 127
10, 313200, Note_off_c, 8, 69, 64
10, 313200, Note_off_c, 8, 81, 64
10, 314400, Note_on_c, 8, 74, 127
10, 314400, Note_on_c, 8, 65, 127
10, 314640, Note_off_c, 8, 65, 64
10, 314640, Note_off_c, 8, 74, 64
10, 314880, Note_on_c, 8, 65, 127
10, 314880, Note_on_c, 8, 74, 127
10, 315120, Note_off_c, 8, 74, 64
10, 315120, Note_off_c, 8, 65, 64
10, 315840, Note_on_c, 8, 72, 127
10, 315840, Note_on_c, 8, 64, 127
10, 316080, Note_off_c, 8, 64, 64
10, 316080, Note_off_c, 8, 72, 64
10, 316800, Note_on_c, 8, 82, 40
10, 316992, Note_off_c, 8, 82, 64
10, 317040, Note_on_c, 8, 82, 40
10, 317232, Note_off_c, 8, 82, 64
10, 317280, Note_on_c, 8, 82, 40
10, 317472, Note_off_c, 8, 82, 64
10, 317520, Note_on_c, 8, 82, 40
10, 317712, Note_off_c, 8, 82, 64
10, 317760, Note_on_c, 8, 82, 40
10, 317952, Note_off_c, 8, 82, 64
10, 318000, Note_on_c, 8, 82, 40
10, 318192, Note_off_c, 8, 82, 64
10, 318240, Note_on_c, 8, 82, 40
10, 318432, Note_off_c, 8, 82, 64
10, 318480, Note_on_c, 8, 82, 40
10, 318672, Note_off_c, 8, 82, 64
10, 318720, Note_on_c, 8, 82, 40
10, 318912, Note_off_c, 8, 82, 64
10, 318960, Note_on_c, 8, 82, 40
10, 319152, Note_off_c, 8, 82, 64
10, 319200, Note_on_c, 8, 82, 40
10, 319392, Note_off_c, 8, 82, 64
10, 319440, Note_on_c, 8, 82, 40
10, 319632, Note_off_c, 8, 82, 64
10, 319680, Note_on_c, 8, 82, 40
10, 319872, Note_off_c, 8, 82, 64
10, 319920, Note_on_c, 8, 82, 40
10, 320112, Note_off_c, 8, 82, 64
10, 320160, Note_on_c, 8, 82, 40
10, 320352, Note_off_c, 8, 82, 64
10, 320400, Note_on_c, 8, 82, 40
10, 320592, Note_off_c, 8, 82, 64
10, 320640, Note_on_c, 8, 81, 127
10, 320640, Note_on_c, 8, 69, 127
10, 320880, Note_off_c, 8, 69, 64
10, 320880, Note_off_c, 8, 81, 64
10, 322080, Note_on_c, 8, 74, 127
10, 322080, Note_on_c, 8, 65, 127
10, 322320, Note_off_c, 8, 65, 64
10, 322320, Note_off_c, 8, 74, 64
10, 322560, Note_on_c, 8, 65, 127
10, 322560, Note_on_c, 8, 74, 127
10, 322800, Note_off_c, 8, 74, 64
10, 322800, Note_off_c, 8, 65, 64
10, 323520, Note_on_c, 8, 64, 127
10, 323520, Note_on_c, 8, 72, 127
10, 323760, Note_off_c, 8, 72, 64
10, 323760, Note_off_c, 8, 64, 64
10, 324480, Note_on_c, 8, 80, 32
10, 324672, Note_off_c, 8, 80, 64
10, 324720, Note_on_c, 8, 80, 33
10, 324912, Note_off_c, 8, 80, 64
10, 324960, Note_on_c, 8, 80, 35
10, 325152, Note_off_c, 8, 80, 64
10, 325200, Note_on_c, 8, 80, 36
10, 325392, Note_off_c, 8, 80, 64
10, 325440, Note_on_c, 8, 80, 38
10, 325632, Note_off_c, 8, 80, 64
10, 325680, Note_on_c, 8, 80, 39
10, 325872, Note_off_c, 8, 80, 64
10, 325920, Note_on_c, 8, 80, 41
10, 326112, Note_off_c, 8, 80, 64
10, 326160, Note_on_c, 8, 80, 42
10, 326352, Note_off_c, 8, 80, 64
10, 326400, Note_on_c, 8, 80, 43
10, 326592, Note_off_c, 8, 80, 64
10, 326640, Note_on_c, 8, 80, 45
10, 326832, Note_off_c, 8, 80, 64
10, 326880, Note_on_c, 8, 80, 46
10, 327072, Note_off_c, 8, 80, 64
10, 327120, Note_on_c, 8, 80, 48
10, 327312, Note_off_c, 8, 80, 64
10, 327360, Note_on_c, 8, 80, 49
10, 327552, Note_off_c, 8, 80, 64
10, 327600, Note_on_c, 8, 80, 50
10, 327792, Note_off_c, 8, 80, 64
10, 327840, Note_on_c, 8, 80, 52
10, 328032, Note_off_c, 8, 80, 64
10, 328080, Note_on_c, 8, 80, 53
10, 328272, Note_off_c, 8, 80, 64
10, 328320, Note_on_c, 8, 80, 75
10, 328512, Note_off_c, 8, 80, 64
10, 328560, Note_on_c, 8, 80, 56
10, 328752, Note_off_c, 8, 80, 64
10, 328800, Note_on_c, 8, 80, 58
10, 328992, Note_off_c, 8, 80, 64
10, 329040, Note_on_c, 8, 80, 59
10, 329232, Note_off_c, 8, 80, 64
10, 329280, Note_on_c, 8, 80, 60
10, 329472, Note_off_c, 8, 80, 64
10, 329520, Note_on_c, 8, 80, 62
10, 329712, Note_off_c, 8, 80, 64
10, 329760, Note_on_c, 8, 80, 63
10, 329952, Note_off_c, 8, 80, 64
10, 330000, Note_on_c, 8, 80, 65
10, 330192, Note_off_c, 8, 80, 64
10, 330240, Note_on_c, 8, 81, 86
10, 330240, Note_on_c, 8, 72, 66
10, 330432, Note_off_c, 8, 72, 64
10, 330432, Note_off_c, 8, 81, 64
10, 330480, Note_on_c, 8, 72, 67
10, 330480, Note_on_c, 8, 81, 67
10, 330672, Note_off_c, 8, 81, 64
10, 330672, Note_off_c, 8, 72, 64
10, 330720, Note_on_c, 8, 81, 69
10, 330720, Note_on_c, 8, 72, 69
10, 330912, Note_off_c, 8, 72, 64
10, 330912, Note_off_c, 8, 81, 64
10, 330960, Note_on_c, 8, 81, 70
10, 330960, Note_on_c, 8, 72, 70
10, 331152, Note_off_c, 8, 72, 64
10, 331152, Note_off_c, 8, 81, 64
10, 331200, Note_on_c, 8, 72, 72
10, 331200, Note_on_c, 8, 81, 72
10, 331392, Note_off_c, 8, 81, 64
10, 331392, Note_off_c, 8, 72, 64
10, 331440, Note_on_c, 8, 81, 73
10, 331440, Note_on_c, 8, 72, 73
10, 331632, Note_off_c, 8, 72, 64
10, 331632, Note_off_c, 8, 81, 64
10, 331680, Note_on_c, 8, 81, 75
10, 331680, Note_on_c, 8, 72, 75
10, 331872, Note_off_c, 8, 72, 64
10, 331872, Note_off_c, 8, 81, 64
10, 331920, Note_on_c, 8, 81, 76
10, 331920, Note_on_c, 8, 72, 76
10, 332112, Note_off_c, 8, 72, 64
10, 332112, Note_off_c, 8, 81, 64
10, 332160, Note_on_c, 8, 80, 97
10, 332160, Note_on_c, 8, 71, 77
10, 332352, Note_off_c, 8, 71, 64
10, 332352, Note_off_c, 8, 80, 64
10, 332400, Note_on_c, 8, 71, 79
10, 332400, Note_on_c, 8, 80, 79
10, 332592, Note_off_c, 8, 80, 64
10, 332592, Note_off_c, 8, 71, 64
10, 332640, Note_on_c, 8, 80, 80
10, 332640, Note_on_c, 8, 71, 80
10, 332832, Note_off_c, 8, 71, 64
10, 332832, Note_off_c, 8, 80, 64
10, 332880, Note_on_c, 8, 80, 82
10, 332880, Note_on_c, 8, 71, 82
10, 333072, Note_off_c, 8, 71, 64
10, 333072, Note_off_c, 8, 80, 64
10, 333120, Note_on_c, 8, 71, 83
10, 333120, Note_on_c, 8, 80, 83
10, 333312, Note_off_c, 8, 80, 64
10, 333312, Note_off_c, 8, 71, 64
10, 333360, Note_on_c, 8, 80, 84
10, 333360, Note_on_c, 8, 71, 84
10, 333552, Note_off_c, 8, 71, 64
10, 333552, Note_off_c, 8, 80, 64
10, 333600, Note_on_c, 8, 80, 86
10, 333600, Note_on_c, 8, 71, 86
10, 333792, Note_off_c, 8, 71, 64
10, 333792, Note_off_c, 8, 80, 64
10, 333840, Note_on_c, 8, 80, 87
10, 333840, Note_on_c, 8, 71, 87
10, 334032, Note_off_c, 8, 71, 64
10, 334032, Note_off_c, 8, 80, 64
10, 334080, Note_on_c, 8, 79, 109
10, 334080, Note_on_c, 8, 70, 89
10, 334272, Note_off_c, 8, 70, 64
10, 334272, Note_off_c, 8, 79, 64
10, 334320, Note_on_c, 8, 79, 90
10, 334320, Note_on_c, 8, 70, 90
10, 334512, Note_off_c, 8, 70, 64
10, 334512, Note_off_c, 8, 79, 64
10, 334560, Note_on_c, 8, 70, 92
10, 334560, Note_on_c, 8, 79, 92
10, 334752, Note_off_c, 8, 79, 64
10, 334752, Note_off_c, 8, 70, 64
10, 334800, Note_on_c, 8, 70, 93
10, 334800, Note_on_c, 8, 79, 93
10, 334992, Note_off_c, 8, 79, 64
10, 334992, Note_off_c, 8, 70, 64
10, 335040, Note_on_c, 8, 70, 94
10, 335040, Note_on_c, 8, 79, 94
10, 335232, Note_off_c, 8, 79, 64
10, 335232, Note_off_c, 8, 70, 64
10, 335280, Note_on_c, 8, 70, 96
10, 335280, Note_on_c, 8, 79, 96
10, 335472, Note_off_c, 8, 79, 64
10, 335472, Note_off_c, 8, 70, 64
10, 335520, Note_on_c, 8, 70, 97
10, 335520, Note_on_c, 8, 79, 97
10, 335712, Note_off_c, 8, 79, 64
10, 335712, Note_off_c, 8, 70, 64
10, 335760, Note_on_c, 8, 70, 99
10, 335760, Note_on_c, 8, 79, 99
10, 335952, Note_off_c, 8, 79, 64
10, 335952, Note_off_c, 8, 70, 64
10, 336000, Note_on_c, 8, 68, 127
10, 336192, Note_off_c, 8, 68, 64
10, 336240, Note_on_c, 8, 80, 127
10, 336432, Note_off_c, 8, 80, 64
10, 336480, Note_on_c, 8, 80, 127
10, 336672, Note_off_c, 8, 80, 64
10, 336720, Note_on_c, 8, 80, 127
10, 336912, Note_off_c, 8, 80, 64
10, 336960, Note_on_c, 8, 80, 127
10, 337152, Note_off_c, 8, 80, 64
10, 337200, Note_on_c, 8, 80, 127
10, 337392, Note_off_c, 8, 80, 64
10, 337440, Note_on_c, 8, 80, 127
10, 337632, Note_off_c, 8, 80, 64
10, 337680, Note_on_c, 8, 80, 127
10, 337872, Note_off_c, 8, 80, 64
10, 337920, Note_on_c, 8, 80, 127
10, 338112, Note_off_c, 8, 80, 64
10, 338160, Note_on_c, 8, 80, 127
10, 338352, Note_off_c, 8, 80, 64
10, 338400, Note_on_c, 8, 80, 127
10, 338592, Note_off_c, 8, 80, 64
10, 338640, Note_on_c, 8, 80, 127
10, 338832, Note_off_c, 8, 80, 64
10, 338880, Note_on_c, 8, 80, 127
10, 339072, Note_off_c, 8, 80, 64
10, 339120, Note_on_c, 8, 80, 127
10, 339312, Note_off_c, 8, 80, 64
10, 339360, Note_on_c, 8, 80, 127
10, 339552, Note_off_c, 8, 80, 64
10, 339600, Note_on_c, 8, 80, 127
10, 339792, Note_off_c, 8, 80, 64
10, 339840, Note_on_c, 8, 81, 127
10, 340032, Note_off_c, 8, 81, 64
10, 340080, Note_on_c, 8, 81, 127
10, 340272, Note_off_c, 8, 81, 64
10, 340320, Note_on_c, 8, 81, 127
10, 340512, Note_off_c, 8, 81, 64
10, 340560, Note_on_c, 8, 81, 127
10, 340752, Note_off_c, 8, 81, 64
10, 340800, Note_on_c, 8, 81, 127
10, 340992, Note_off_c, 8, 81, 64
10, 341040, Note_on_c, 8, 81, 127
10, 341232, Note_off_c, 8, 81, 64
10, 341280, Note_on_c, 8, 81, 127
10, 341472, Note_off_c, 8, 81, 64
10, 341520, Note_on_c, 8, 81, 127
10, 341712, Note_off_c, 8, 81, 64
10, 341760, Note_on_c, 8, 79, 127
10, 341952, Note_off_c, 8, 79, 64
10, 342000, Note_on_c, 8, 79, 127
10, 342192, Note_off_c, 8, 79, 64
10, 342240, Note_on_c, 8, 79, 127
10, 342432, Note_off_c, 8, 79, 64
10, 342480, Note_on_c, 8, 79, 127
10, 342672, Note_off_c, 8, 79, 64
10, 342720, Note_on_c, 8, 79, 127
10, 342912, Note_off_c, 8, 79, 64
10, 342960, Note_on_c, 8, 79, 127
10, 343152, Note_off_c, 8, 79, 64
10, 343200, Note_on_c, 8, 79, 127
10, 343392, Note_off_c, 8, 79, 64
10, 343440, Note_on_c, 8, 79, 127
10, 343632, Note_off_c, 8, 79, 64
10, 343680, Note_on_c, 8, 77, 127
10, 344064, Note_off_c, 8, 77, 64
10, 344160, Note_on_c, 8, 69, 112
10, 345072, Note_off_c, 8, 69, 64
10, 345120, Note_on_c, 8, 70, 112
10, 346056, Note_off_c, 8, 70, 64
10, 346080, Note_on_c, 8, 72, 112
10, 346992, Note_off_c, 8, 72, 64
10, 347040, Note_on_c, 8, 65, 112
10, 347976, Note_off_c, 8, 65, 64
10, 348000, Note_on_c, 8, 67, 112
10, 348912, Note_off_c, 8, 67, 64
10, 348960, Note_on_c, 8, 69, 112
10, 349896, Note_off_c, 8, 69, 64
10, 349920, Note_on_c, 8, 60, 112
10, 350832, Note_off_c, 8, 60, 64
10, 350880, Note_on_c, 8, 64, 112
10, 351120, Note_off_c, 8, 64, 64
10, 351360, Note_on_c, 8, 65, 112
10, 351600, Note_off_c, 8, 65, 64
10, 351840, Note_on_c, 8, 69, 112
10, 352752, Note_off_c, 8, 69, 64
10, 352800, Note_on_c, 8, 70, 112
10, 353736, Note_off_c, 8, 70, 64
10, 353760, Note_on_c, 8, 72, 112
10, 354672, Note_off_c, 8, 72, 64
10, 354720, Note_on_c, 8, 65, 112
10, 355656, Note_off_c, 8, 65, 64
10, 355680, Note_on_c, 8, 67, 112
10, 356592, Note_off_c, 8, 67, 64
10, 356640, Note_on_c, 8, 69, 112
10, 357576, Note_off_c, 8, 69, 64
10, 357600, Note_on_c, 8, 60, 112
10, 358512, Note_off_c, 8, 60, 64
10, 358560, Note_on_c, 8, 64, 112
10, 358800, Note_off_c, 8, 64, 64
10, 359040, Note_on_c, 8, 65, 112
10, 359280, Note_off_c, 8, 65, 64
10, 359520, Note_on_c, 8, 67, 112
10, 360432, Note_off_c, 8, 67, 64
10, 360480, Note_on_c, 8, 69, 112
10, 361416, Note_off_c, 8, 69, 64
10, 361440, Note_on_c, 8, 60, 112
10, 362352, Note_off_c, 8, 60, 64
10, 362400, Note_on_c, 8, 64, 112
10, 362640, Note_off_c, 8, 64, 64
10, 362880, Note_on_c, 8, 69, 127
10, 364720, Note_off_c, 8, 69, 64
10, 364800, Note_on_c, 8, 69, 127
10, 364896, Note_off_c, 8, 69, 64
10, 366720, Note_on_c, 8, 69, 127
10, 368560, Note_off_c, 8, 69, 64
10, 368640, Note_on_c, 8, 69, 127
10, 368880, Note_off_c, 8, 69, 64
10, 370560, Note_on_c, 8, 69, 127
10, 370800, Note_off_c, 8, 69, 64
10, 372480, Note_on_c, 8, 69, 102
10, 372720, Note_off_c, 8, 69, 64
10, 373440, Note_on_c, 8, 69, 102
10, 373680, Note_off_c, 8, 69, 64
10, 374400, Note_on_c, 8, 69, 102
10, 374640, Note_off_c, 8, 69, 64
10, 375360, Note_on_c, 8, 69, 102
10, 375600, Note_off_c, 8, 69, 64
10, 376320, Note_on_c, 8, 70, 102
10, 376546, Note_off_c, 8, 70, 64
10, 376560, Note_on_c, 8, 62, 48
10, 376752, Note_off_c, 8, 62, 64
10, 376800, Note_on_c, 8, 62, 48
10, 376992, Note_off_c, 8, 62, 64
10, 377040, Note_on_c, 8, 62, 48
10, 377232, Note_off_c, 8, 62, 64
10, 377280, Note_on_c, 8, 62, 48
10, 377472, Note_off_c, 8, 62, 64
10, 377520, Note_on_c, 8, 62, 48
10, 377712, Note_off_c, 8, 62, 64
10, 377760, Note_on_c, 8, 62, 48
10, 377952, Note_off_c, 8, 62, 64
10, 378000, Note_on_c, 8, 62, 48
10, 378192, Note_off_c, 8, 62, 64
10, 378240, Note_on_c, 8, 62, 48
10, 378432, Note_off_c, 8, 62, 64
10, 378480, Note_on_c, 8, 62, 48
10, 378672, Note_off_c, 8, 62, 64
10, 378720, Note_on_c, 8, 62, 48
10, 378912, Note_off_c, 8, 62, 64
10, 378960, Note_on_c, 8, 62, 48
10, 379152, Note_off_c, 8, 62, 64
10, 379200, Note_on_c, 8, 62, 48
10, 379392, Note_off_c, 8, 62, 64
10, 379440, Note_on_c, 8, 62, 48
10, 379632, Note_off_c, 8, 62, 64
10, 379680, Note_on_c, 8, 62, 48
10, 379872, Note_off_c, 8, 62, 64
10, 379920, Note_on_c, 8, 62, 48
10, 380112, Note_off_c, 8, 62, 64
10, 380160, Note_on_c, 8, 67, 48
10, 380352, Note_off_c, 8, 67, 64
10, 380400, Note_on_c, 8, 67, 48
10, 380592, Note_off_c, 8, 67, 64
10, 380640, Note_on_c, 8, 67, 48
10, 380832, Note_off_c, 8, 67, 64
10, 380880, Note_on_c, 8, 67, 48
10, 381072, Note_off_c, 8, 67, 64
10, 381120, Note_on_c, 8, 67, 48
10, 381312, Note_off_c, 8, 67, 64
10, 381360, Note_on_c, 8, 67, 48
10, 381552, Note_off_c, 8, 67, 64
10, 381600, Note_on_c, 8, 67, 48
10, 381792, Note_off_c, 8, 67, 64
10, 381840, Note_on_c, 8, 67, 48
10, 381840, Note_on_c, 8, 67, 48
10, 382032, Note_off_c, 8, 67, 64
10, 382032, Note_off_c, 8, 67, 64
10, 382080, Note_on_c, 8, 65, 48
10, 382272, Note_off_c, 8, 65, 64
10, 382320, Note_on_c, 8, 65, 48
10, 382512, Note_off_c, 8, 65, 64
10, 382560, Note_on_c, 8, 65, 48
10, 382752, Note_off_c, 8, 65, 64
10, 382800, Note_on_c, 8, 65, 48
10, 382992, Note_off_c, 8, 65, 64
10, 383040, Note_on_c, 8, 65, 48
10, 383232, Note_off_c, 8, 65, 64
10, 383280, Note_on_c, 8, 65, 48
10, 383472, Note_off_c, 8, 65, 64
10, 383520, Note_on_c, 8, 65, 48
10, 383712, Note_off_c, 8, 65, 64
10, 383760, Note_on_c, 8, 65, 48
10, 383952, Note_off_c, 8, 65, 64
10, 384000, Note_on_c, 8, 65, 48
10, 384192, Note_off_c, 8, 65, 64
10, 391680, Note_on_c, 8, 69, 102
10, 391920, Note_off_c, 8, 69, 64
10, 393600, Note_on_c, 8, 69, 102
10, 393840, Note_off_c, 8, 69, 64
10, 394560, Note_on_c, 8, 69, 102
10, 394800, Note_off_c, 8, 69, 64
10, 403680, Note_on_c, 8, 62, 96
10, 403872, Note_off_c, 8, 62, 64
10, 403920, Note_on_c, 8, 62, 96
10, 404112, Note_off_c, 8, 62, 64
10, 404160, Note_on_c, 8, 60, 96
10, 404352, Note_off_c, 8, 60, 64
10, 404400, Note_on_c, 8, 60, 96
10, 404592, Note_off_c, 8, 60, 64
10, 404640, Note_on_c, 8, 58, 96
10, 404832, Note_off_c, 8, 58, 64
10, 404880, Note_on_c, 8, 58, 96
10, 405072, Note_off_c, 8, 58, 64
10, 405120, Note_on_c, 8, 57, 96
10, 405312, Note_off_c, 8, 57, 64
10, 405360, Note_on_c, 8, 57, 96
10, 405552, Note_off_c, 8, 57, 64
10, 405600, Note_on_c, 8, 55, 96
10, 405792, Note_off_c, 8, 55, 64
10, 405840, Note_on_c, 8, 55, 96
10, 406032, Note_off_c, 8, 55, 64
10, 406080, Note_on_c, 8, 65, 96
10, 406272, Note_off_c, 8, 65, 64
10, 406320, Note_on_c, 8, 65, 96
10, 406512, Note_off_c, 8, 65, 64
10, 406560, Note_on_c, 8, 55, 96
10, 406560, Note_on_c, 8, 55, 96
10, 406752, Note_off_c, 8, 55, 64
10, 406752, Note_off_c, 8, 55, 64
10, 406800, Note_on_c, 8, 55, 96
10, 406992, Note_off_c, 8, 55, 64
10, 407040, Note_on_c, 8, 63, 102
10, 407280, Note_off_c, 8, 63, 64
10, 407280, Note_on_c, 8, 62, 102
10, 407520, Note_off_c, 8, 62, 64
10, 407520, Note_on_c, 8, 63, 102
10, 407760, Note_off_c, 8, 63, 64
10, 407760, Note_on_c, 8, 62, 102
10, 408000, Note_off_c, 8, 62, 64
10, 408000, Note_on_c, 8, 63, 102
10, 408240, Note_off_c, 8, 63, 64
10, 408240, Note_on_c, 8, 62, 102
10, 408480, Note_off_c, 8, 62, 64
10, 408480, Note_on_c, 8, 63, 102
10, 408720, Note_off_c, 8, 63, 64
10, 408720, Note_on_c, 8, 62, 102
10, 408960, Note_off_c, 8, 62, 64
10, 408960, Note_on_c, 8, 63, 102
10, 409152, Note_off_c, 8, 63, 64
10, 409200, Note_on_c, 8, 75, 64
10, 409392, Note_off_c, 8, 75, 64
10, 409440, Note_on_c, 8, 75, 64
10, 409632, Note_off_c, 8, 75, 64
10, 409680, Note_on_c, 8, 75, 64
10, 409872, Note_off_c, 8, 75, 64
10, 409920, Note_on_c, 8, 75, 64
10, 410112, Note_off_c, 8, 75, 64
10, 410160, Note_on_c, 8, 75, 64
10, 410352, Note_off_c, 8, 75, 64
10, 410400, Note_on_c, 8, 75, 64
10, 410592, Note_off_c, 8, 75, 64
10, 410640, Note_on_c, 8, 75, 64
10, 410832, Note_off_c, 8, 75, 64
10, 410880, Note_on_c, 8, 69, 102
10, 410880, Note_on_c, 8, 75, 102
10, 411240, Note_off_c, 8, 75, 64
10, 411240, Note_off_c, 8, 69, 64
10, 412800, Note_on_c, 8, 62, 102
10, 412800, Note_on_c, 8, 74, 102
10, 413160, Note_off_c, 8, 74, 64
10, 413160, Note_off_c, 8, 62, 64
10, 414720, Note_on_c, 8, 63, 102
10, 414720, Note_on_c, 8, 79, 102
10, 414720, Note_on_c, 8, 72, 102
10, 415080, Note_off_c, 8, 72, 64
10, 415080, Note_off_c, 8, 79, 64
10, 415080, Note_off_c, 8, 63, 64
10, 416640, Note_on_c, 8, 65, 102
10, 416640, Note_on_c, 8, 75, 102
10, 417000, Note_off_c, 8, 75, 64
10, 417000, Note_off_c, 8, 65, 64
10, 426720, Note_on_c, 8, 69, 65
10, 426960, Note_off_c, 8, 69, 64
10, 426960, Note_on_c, 8, 68, 65
10, 427200, Note_off_c, 8, 68, 64
10, 427200, Note_on_c, 8, 69, 65
10, 427440, Note_off_c, 8, 69, 64
10, 427440, Note_on_c, 8, 68, 65
10, 427680, Note_off_c, 8, 68, 64
10, 427680, Note_on_c, 8, 69, 65
10, 427920, Note_off_c, 8, 69, 64
10, 427920, Note_on_c, 8, 68, 65
10, 428160, Note_off_c, 8, 68, 64
10, 428160, Note_on_c, 8, 69, 65
10, 428352, Note_off_c, 8, 69, 64
10, 434400, Note_on_c, 8, 71, 80
10, 434640, Note_off_c, 8, 71, 64
10, 434640, Note_on_c, 8, 70, 80
10, 434880, Note_off_c, 8, 70, 64
10, 434880, Note_on_c, 8, 71, 80
10, 435120, Note_off_c, 8, 71, 64
10, 435120, Note_on_c, 8, 70, 80
10, 435360, Note_off_c, 8, 70, 64
10, 435360, Note_on_c, 8, 71, 80
10, 435600, Note_off_c, 8, 71, 64
10, 435600, Note_on_c, 8, 70, 80
10, 435840, Note_off_c, 8, 70, 64
10, 435840, Note_on_c, 8, 71, 80
10, 436032, Note_off_c, 8, 71, 64
10, 438240, Note_on_c, 8, 73, 80
10, 438480, Note_off_c, 8, 73, 64
10, 438480, Note_on_c, 8, 72, 80
10, 438720, Note_off_c, 8, 72, 64
10, 438720, Note_on_c, 8, 73, 80
10, 438960, Note_off_c, 8, 73, 64
10, 438960, Note_on_c, 8, 72, 80
10, 439200, Note_off_c, 8, 72, 64
10, 439200, Note_on_c, 8, 73, 80
10, 439440, Note_off_c, 8, 73, 64
10, 439440, Note_on_c, 8, 72, 80
10, 439680, Note_off_c, 8, 72, 64
10, 439680, Note_on_c, 8, 73, 80
10, 439872, Note_off_c, 8, 73, 64
10, 441600, Note_on_c, 8, 69, 51
10, 441600, Note_on_c, 8, 78, 51
10, 441792, Note_off_c, 8, 78, 64
10, 441792, Note_off_c, 8, 69, 64
10, 441840, Note_on_c, 8, 78, 52
10, 441840, Note_on_c, 8, 69, 52
10, 442032, Note_off_c, 8, 69, 64
10, 442032, Note_off_c, 8, 78, 64
10, 442080, Note_on_c, 8, 69, 54
10, 442080, Note_on_c, 8, 78, 54
10, 442272, Note_off_c, 8, 78, 64
10, 442272, Note_off_c, 8, 69, 64
10, 442320, Note_on_c, 8, 78, 55
10, 442320, Note_on_c, 8, 69, 55
10, 442512, Note_off_c, 8, 69, 64
10, 442512, Note_off_c, 8, 78, 64
10, 442560, Note_on_c, 8, 69, 57
10, 442560, Note_on_c, 8, 78, 57
10, 442752, Note_off_c, 8, 78, 64
10, 442752, Note_off_c, 8, 69, 64
10, 442800, Note_on_c, 8, 78, 58
10, 442800, Note_on_c, 8, 69, 58
10, 442992, Note_off_c, 8, 69, 64
10, 442992, Note_off_c, 8, 78, 64
10, 443040, Note_on_c, 8, 69, 59
10, 443040, Note_on_c, 8, 78, 59
10, 443232, Note_off_c, 8, 78, 64
10, 443232, Note_off_c, 8, 69, 64
10, 443280, Note_on_c, 8, 78, 61
10, 443280, Note_on_c, 8, 69, 61
10, 443472, Note_off_c, 8, 69, 64
10, 443472, Note_off_c, 8, 78, 64
10, 443520, Note_on_c, 8, 69, 68
10, 443520, Note_on_c, 8, 78, 68
10, 443712, Note_off_c, 8, 78, 64
10, 443712, Note_off_c, 8, 69, 64
10, 443760, Note_on_c, 8, 78, 70
10, 443760, Note_on_c, 8, 69, 70
10, 443952, Note_off_c, 8, 69, 64
10, 443952, Note_off_c, 8, 78, 64
10, 444000, Note_on_c, 8, 69, 72
10, 444000, Note_on_c, 8, 78, 72
10, 444192, Note_off_c, 8, 78, 64
10, 444192, Note_off_c, 8, 69, 64
10, 444240, Note_on_c, 8, 69, 73
10, 444240, Note_on_c, 8, 78, 73
10, 444432, Note_off_c, 8, 78, 64
10, 444432, Note_off_c, 8, 69, 64
10, 444480, Note_on_c, 8, 78, 75
10, 444480, Note_on_c, 8, 69, 75
10, 444672, Note_off_c, 8, 69, 64
10, 444672, Note_off_c, 8, 78, 64
10, 444720, Note_on_c, 8, 69, 77
10, 444720, Note_on_c, 8, 78, 77
10, 444912, Note_off_c, 8, 78, 64
10, 444912, Note_off_c, 8, 69, 64
10, 444960, Note_on_c, 8, 78, 77
10, 444960, Note_on_c, 8, 69, 77
10, 445152, Note_off_c, 8, 69, 64
10, 445152, Note_off_c, 8, 78, 64
10, 445200, Note_on_c, 8, 78, 79
10, 445200, Note_on_c, 8, 69, 79
10, 445392, Note_off_c, 8, 69, 64
10, 445392, Note_off_c, 8, 78, 64
10, 445440, Note_on_c, 8, 69, 96
10, 445440, Note_on_c, 8, 77, 96
10, 445632, Note_off_c, 8, 77, 64
10, 445632, Note_off_c, 8, 69, 64
10, 445680, Note_on_c, 8, 77, 98
10, 445680, Note_on_c, 8, 69, 98
10, 445872, Note_off_c, 8, 69, 64
10, 445872, Note_off_c, 8, 77, 64
10, 445920, Note_on_c, 8, 69, 100
10, 445920, Note_on_c, 8, 77, 100
10, 446112, Note_off_c, 8, 77, 64
10, 446112, Note_off_c, 8, 69, 64
10, 446160, Note_on_c, 8, 77, 101
10, 446160, Note_on_c, 8, 69, 101
10, 446352, Note_off_c, 8, 69, 64
10, 446352, Note_off_c, 8, 77, 64
10, 446400, Note_on_c, 8, 69, 103
10, 446400, Note_on_c, 8, 77, 103
10, 446592, Note_off_c, 8, 77, 64
10, 446592, Note_off_c, 8, 69, 64
10, 446640, Note_on_c, 8, 69, 105
10, 446640, Note_on_c, 8, 77, 105
10, 446832, Note_off_c, 8, 77, 64
10, 446832, Note_off_c, 8, 69, 64
10, 446880, Note_on_c, 8, 77, 107
10, 446880, Note_on_c, 8, 69, 107
10, 447072, Note_off_c, 8, 69, 64
10, 447072, Note_off_c, 8, 77, 64
10, 447120, Note_on_c, 8, 77, 108
10, 447120, Note_on_c, 8, 69, 108
10, 447312, Note_off_c, 8, 69, 64
10, 447312, Note_off_c, 8, 77, 64
10, 447360, Note_on_c, 8, 69, 111
10, 447360, Note_on_c, 8, 77, 111
10, 447552, Note_off_c, 8, 77, 64
10, 447552, Note_off_c, 8, 69, 64
10, 447600, Note_on_c, 8, 77, 112
10, 447600, Note_on_c, 8, 69, 112
10, 447792, Note_off_c, 8, 69, 64
10, 447792, Note_off_c, 8, 77, 64
10, 447840, Note_on_c, 8, 77, 114
10, 447840, Note_on_c, 8, 69, 114
10, 448032, Note_off_c, 8, 69, 64
10, 448032, Note_off_c, 8, 77, 64
10, 448080, Note_on_c, 8, 69, 116
10, 448080, Note_on_c, 8, 77, 116
10, 448272, Note_off_c, 8, 77, 64
10, 448272, Note_off_c, 8, 69, 64
10, 448320, Note_on_c, 8, 69, 117
10, 448320, Note_on_c, 8, 77, 117
10, 448512, Note_off_c, 8, 77, 64
10, 448512, Note_off_c, 8, 69, 64
10, 448560, Note_on_c, 8, 69, 120
10, 448560, Note_on_c, 8, 77, 120
10, 448752, Note_off_c, 8, 77, 64
10, 448752, Note_off_c, 8, 69, 64
10, 448800, Note_on_c, 8, 69, 122
10, 448800, Note_on_c, 8, 77, 122
10, 448992, Note_off_c, 8, 77, 64
10, 448992, Note_off_c, 8, 69, 64
10, 449040, Note_on_c, 8, 77, 124
10, 449040, Note_on_c, 8, 69, 124
10, 449232, Note_off_c, 8, 69, 64
10, 449232, Note_off_c, 8, 77, 64
10, 449280, Note_on_c, 8, 70, 127
10, 452736, Note_off_c, 8, 70, 64
10, 453120, Note_on_c, 8, 75, 127
10, 454656, Note_off_c, 8, 75, 64
10, 455040, Note_on_c, 8, 77, 127
10, 456560, Note_off_c, 8, 77, 64
10, 456560, Note_on_c, 8, 65, 127
10, 456640, Note_off_c, 8, 65, 64
10, 456640, Note_on_c, 8, 67, 127
10, 456720, Note_off_c, 8, 67, 64
10, 456720, Note_on_c, 8, 69, 127
10, 456784, Note_off_c, 8, 69, 64
10, 456800, Note_on_c, 8, 70, 127
10, 456864, Note_off_c, 8, 70, 64
10, 456880, Note_on_c, 8, 72, 127
10, 456944, Note_off_c, 8, 72, 64
10, 456960, Note_on_c, 8, 74, 127
10, 457200, Note_off_c, 8, 74, 64
10, 457200, Note_on_c, 8, 74, 127
10, 457200, Note_on_c, 8, 74, 127
10, 457440, Note_off_c, 8, 74, 64
10, 457440, Note_off_c, 8, 74, 64
10, 457440, Note_on_c, 8, 70, 127
10, 457680, Note_off_c, 8, 70, 64
10, 457680, Note_on_c, 8, 70, 127
10, 457920, Note_off_c, 8, 70, 64
10, 457920, Note_on_c, 8, 65, 127
10, 458160, Note_off_c, 8, 65, 64
10, 458160, Note_on_c, 8, 65, 127
10, 458400, Note_off_c, 8, 65, 64
10, 458400, Note_on_c, 8, 70, 127
10, 458640, Note_off_c, 8, 70, 64
10, 458640, Note_on_c, 8, 70, 127
10, 458880, Note_off_c, 8, 70, 64
10, 458880, Note_on_c, 8, 62, 127
10, 459120, Note_off_c, 8, 62, 64
10, 459120, Note_on_c, 8, 62, 127
10, 459360, Note_off_c, 8, 62, 64
10, 459360, Note_on_c, 8, 65, 127
10, 459600, Note_off_c, 8, 65, 64
10, 459600, Note_on_c, 8, 65, 127
10, 459840, Note_off_c, 8, 65, 64
10, 459840, Note_on_c, 8, 58, 127
10, 460080, Note_off_c, 8, 58, 64
10, 460080, Note_on_c, 8, 58, 127
10, 460320, Note_off_c, 8, 58, 64
10, 460320, Note_on_c, 8, 62, 127
10, 460560, Note_off_c, 8, 62, 64
10, 460560, Note_on_c, 8, 62, 127
10, 460800, Note_off_c, 8, 62, 64
10, 460800, Note_on_c, 8, 55, 127
10, 461040, Note_off_c, 8, 55, 64
10, 461040, Note_on_c, 8, 55, 127
10, 461280, Note_off_c, 8, 55, 64
10, 461280, Note_on_c, 8, 63, 127
10, 461520, Note_off_c, 8, 63, 64
10, 461520, Note_on_c, 8, 63, 127
10, 461760, Note_off_c, 8, 63, 64
10, 461760, Note_on_c, 8, 60, 127
10, 462000, Note_off_c, 8, 60, 64
10, 462000, Note_on_c, 8, 60, 127
10, 462240, Note_off_c, 8, 60, 64
10, 462240, Note_on_c, 8, 58, 127
10, 462480, Note_off_c, 8, 58, 64
10, 462480, Note_on_c, 8, 58, 127
10, 462720, Note_off_c, 8, 58, 64
10, 462720, Note_on_c, 8, 57, 127
10, 462960, Note_off_c, 8, 57, 64
10, 462960, Note_on_c, 8, 57, 127
10, 463200, Note_off_c, 8, 57, 64
10, 463200, Note_on_c, 8, 65, 127
10, 463440, Note_off_c, 8, 65, 64
10, 463440, Note_on_c, 8, 65, 127
10, 463680, Note_off_c, 8, 65, 64
10, 463680, Note_on_c, 8, 63, 127
10, 463920, Note_off_c, 8, 63, 64
10, 463920, Note_on_c, 8, 63, 127
10, 464160, Note_off_c, 8, 63, 64
10, 464160, Note_on_c, 8, 60, 127
10, 464400, Note_off_c, 8, 60, 64
10, 464400, Note_on_c, 8, 60, 127
10, 464640, Note_off_c, 8, 60, 64
10, 464640, Note_on_c, 8, 58, 127
10, 464880, Note_off_c, 8, 58, 64
10, 464880, Note_on_c, 8, 58, 127
10, 464880, Note_on_c, 8, 58, 127
10, 465120, Note_off_c, 8, 58, 64
10, 465120, Note_off_c, 8, 58, 64
10, 465120, Note_on_c, 8, 67, 127
10, 465360, Note_off_c, 8, 67, 64
10, 465360, Note_on_c, 8, 67, 127
10, 465600, Note_off_c, 8, 67, 64
10, 465600, Note_on_c, 8, 64, 127
10, 465840, Note_off_c, 8, 64, 64
10, 465840, Note_on_c, 8, 64, 127
10, 466080, Note_off_c, 8, 64, 64
10, 466080, Note_on_c, 8, 62, 127
10, 466320, Note_off_c, 8, 62, 64
10, 466320, Note_on_c, 8, 62, 127
10, 466560, Note_off_c, 8, 62, 64
10, 466560, Note_on_c, 8, 61, 127
10, 466800, Note_off_c, 8, 61, 64
10, 466800, Note_on_c, 8, 61, 127
10, 467040, Note_off_c, 8, 61, 64
10, 467040, Note_on_c, 8, 69, 127
10, 467280, Note_off_c, 8, 69, 64
10, 467280, Note_on_c, 8, 69, 127
10, 467520, Note_off_c, 8, 69, 64
10, 467520, Note_on_c, 8, 67, 127
10, 467760, Note_off_c, 8, 67, 64
10, 467760, Note_on_c, 8, 67, 127
10, 468000, Note_off_c, 8, 67, 64
10, 468000, Note_on_c, 8, 64, 127
10, 468240, Note_off_c, 8, 64, 64
10, 468240, Note_on_c, 8, 64, 127
10, 468480, Note_off_c, 8, 64, 64
10, 468480, Note_on_c, 8, 62, 127
10, 468720, Note_off_c, 8, 62, 64
10, 468720, Note_on_c, 8, 62, 127
10, 468720, Note_on_c, 8, 62, 127
10, 468960, Note_off_c, 8, 62, 64
10, 468960, Note_off_c, 8, 62, 64
10, 468960, Note_on_c, 8, 71, 127
10, 469200, Note_off_c, 8, 71, 64
10, 469200, Note_on_c, 8, 71, 127
10, 469440, Note_off_c, 8, 71, 64
10, 469440, Note_on_c, 8, 68, 127
10, 469680, Note_off_c, 8, 68, 64
10, 469680, Note_on_c, 8, 68, 127
10, 469920, Note_off_c, 8, 68, 64
10, 469920, Note_on_c, 8, 65, 127
10, 470160, Note_off_c, 8, 65, 64
10, 470160, Note_on_c, 8, 65, 127
10, 470400, Note_off_c, 8, 65, 64
10, 470400, Note_on_c, 8, 64, 127
10, 470640, Note_off_c, 8, 64, 64
10, 470640, Note_on_c, 8, 64, 127
10, 470880, Note_off_c, 8, 64, 64
10, 470880, Note_on_c, 8, 72, 127
10, 471120, Note_off_c, 8, 72, 64
10, 471120, Note_on_c, 8, 72, 127
10, 471360, Note_off_c, 8, 72, 64
10, 471360, Note_on_c, 8, 70, 127
10, 471600, Note_off_c, 8, 70, 64
10, 471600, Note_on_c, 8, 70, 127
10, 471840, Note_off_c, 8, 70, 64
10, 471840, Note_on_c, 8, 67, 127
10, 472080, Note_off_c, 8, 67, 64
10, 472080, Note_on_c, 8, 67, 127
10, 472320, Note_off_c, 8, 67, 64
10, 472320, Note_on_c, 8, 64, 127
10, 472560, Note_off_c, 8, 64, 64
10, 472560, Note_on_c, 8, 64, 127
10, 472800, Note_off_c, 8, 64, 64
10, 472800, Note_on_c, 8, 60, 127
10, 473040, Note_off_c, 8, 60, 64
10, 473040, Note_on_c, 8, 60, 127
10, 473280, Note_off_c, 8, 60, 64
10, 473280, Note_on_c, 8, 58, 127
10, 473520, Note_off_c, 8, 58, 64
10, 473520, Note_on_c, 8, 58, 127
10, 473760, Note_off_c, 8, 58, 64
10, 473760, Note_on_c, 8, 55, 127
10, 474000, Note_off_c, 8, 55, 64
10, 474000, Note_on_c, 8, 55, 127
10, 474240, Note_off_c, 8, 55, 64
10, 474240, Note_on_c, 8, 56, 127
10, 474480, Note_off_c, 8, 56, 64
10, 474480, Note_on_c, 8, 56, 127
10, 474720, Note_off_c, 8, 56, 64
10, 474720, Note_on_c, 8, 53, 127
10, 474960, Note_off_c, 8, 53, 64
10, 474960, Note_on_c, 8, 53, 127
10, 475200, Note_off_c, 8, 53, 64
10, 475200, Note_on_c, 8, 51, 127
10, 475440, Note_off_c, 8, 51, 64
10, 475440, Note_on_c, 8, 51, 127
10, 475680, Note_off_c, 8, 51, 64
10, 475680, Note_on_c, 8, 49, 127
10, 475920, Note_off_c, 8, 49, 64
10, 475920, Note_on_c, 8, 49, 127
10, 476160, Note_off_c, 8, 49, 64
10, 482400, Note_on_c, 8, 71, 125
10, 483360, Note_off_c, 8, 71, 64
10, 483360, Note_on_c, 8, 72, 96
10, 483696, Note_off_c, 8, 72, 64
10, 483840, Note_on_c, 8, 72, 127
10, 484176, Note_off_c, 8, 72, 64
10, 484320, Note_on_c, 8, 67, 96
10, 485088, Note_off_c, 8, 67, 64
10, 485280, Note_on_c, 8, 68, 96
10, 486144, Note_off_c, 8, 68, 64
10, 486240, Note_on_c, 8, 70, 96
10, 487008, Note_off_c, 8, 70, 64
10, 487200, Note_on_c, 8, 65, 96
10, 488064, Note_off_c, 8, 65, 64
10, 488160, Note_on_c, 8, 67, 96
10, 488928, Note_off_c, 8, 67, 64
10, 489120, Note_on_c, 8, 68, 96
10, 489984, Note_off_c, 8, 68, 64
10, 490080, Note_on_c, 8, 71, 125
10, 491040, Note_off_c, 8, 71, 64
10, 491040, Note_on_c, 8, 72, 96
10, 491424, Note_off_c, 8, 72, 64
10, 491520, Note_on_c, 8, 72, 80
10, 496320, Note_off_c, 8, 72, 64
10, 496320, Note_on_c, 8, 60, 60
10, 498240, Note_off_c, 8, 60, 64
10, 498240, Note_on_c, 8, 58, 45
10, 498690, Note_off_c, 8, 58, 64
10, 498720, Note_on_c, 8, 55, 45
10, 499170, Note_off_c, 8, 55, 64
10, 499200, Note_on_c, 8, 57, 34
10, 506880, Note_off_c, 8, 57, 64
10, 506880, Note_on_c, 8, 62, 34
10, 510720, Note_off_c, 8, 62, 64
10, 510720, Note_on_c, 8, 61, 42
10, 510912, Note_off_c, 8, 61, 64
10, 511200, Note_on_c, 8, 57, 42
10, 511392, Note_off_c, 8, 57, 64
10, 511680, Note_on_c, 8, 61, 42
10, 511872, Note_off_c, 8, 61, 64
10, 513120, Note_on_c, 8, 57, 42
10, 513312, Note_off_c, 8, 57, 64
10, 513600, Note_on_c, 8, 62, 42
10, 513792, Note_off_c, 8, 62, 64
10, 515040, Note_on_c, 8, 57, 42
10, 515232, Note_off_c, 8, 57, 64
10, 515520, Note_on_c, 8, 64, 42
10, 515712, Note_off_c, 8, 64, 64
10, 516960, Note_on_c, 8, 57, 42
10, 517152, Note_off_c, 8, 57, 64
10, 517440, Note_on_c, 8, 62, 42
10, 517632, Note_off_c, 8, 62, 64
10, 518400, Note_on_c, 8, 69, 40
10, 518880, Note_off_c, 8, 69, 64
10, 518880, Note_on_c, 8, 68, 40
10, 519360, Note_off_c, 8, 68, 64
10, 519360, Note_on_c, 8, 69, 40
10, 519840, Note_off_c, 8, 69, 64
10, 519840, Note_on_c, 8, 67, 40
10, 520320, Note_off_c, 8, 67, 64
10, 520320, Note_on_c, 8, 65, 40
10, 520800, Note_off_c, 8, 65, 64
10, 520800, Note_on_c, 8, 64, 40
10, 521280, Note_off_c, 8, 64, 64
10, 521280, Note_on_c, 8, 65, 40
10, 521760, Note_off_c, 8, 65, 64
10, 521760, Note_on_c, 8, 62, 40
10, 522240, Note_off_c, 8, 62, 64
10, 522240, Note_on_c, 8, 61, 40
10, 522720, Note_off_c, 8, 61, 64
10, 522720, Note_on_c, 8, 59, 40
10, 523200, Note_off_c, 8, 59, 64
10, 523200, Note_on_c, 8, 61, 40
10, 523680, Note_off_c, 8, 61, 64
10, 523680, Note_on_c, 8, 64, 40
10, 523896, Note_off_c, 8, 64, 64
10, 524040, Note_on_c, 8, 64, 40
10, 524160, Note_off_c, 8, 64, 64
10, 524160, Note_on_c, 8, 62, 40
10, 524640, Note_off_c, 8, 62, 64
10, 524640, Note_on_c, 8, 61, 40
10, 525120, Note_off_c, 8, 61, 64
10, 525120, Note_on_c, 8, 62, 40
10, 525600, Note_off_c, 8, 62, 64
10, 525600, Note_on_c, 8, 58, 40
10, 526080, Note_off_c, 8, 58, 64
10, 526080, Note_on_c, 8, 57, 32
10, 526560, Note_off_c, 8, 57, 64
10, 527040, Note_on_c, 8, 58, 32
10, 527520, Note_off_c, 8, 58, 64
10, 528000, Note_on_c, 8, 55, 32
10, 528480, Note_off_c, 8, 55, 64
10, 528960, Note_on_c, 8, 59, 32
10, 529440, Note_off_c, 8, 59, 64
10, 529920, Note_on_c, 8, 60, 32
10, 530400, Note_off_c, 8, 60, 64
10, 530880, Note_on_c, 8, 57, 32
10, 531360, Note_off_c, 8, 57, 64
10, 531840, Note_on_c, 8, 60, 31
10, 532320, Note_off_c, 8, 60, 64
10, 532800, Note_on_c, 8, 62, 36
10, 533280, Note_off_c, 8, 62, 64
10, 533760, Note_on_c, 8, 58, 40
10, 534240, Note_off_c, 8, 58, 64
10, 534720, Note_on_c, 8, 62, 44
10, 535200, Note_off_c, 8, 62, 64
10, 535680, Note_on_c, 8, 64, 49
10, 536160, Note_off_c, 8, 64, 64
10, 536640, Note_on_c, 8, 60, 53
10, 537120, Note_off_c, 8, 60, 64
10, 537600, Note_on_c, 8, 64, 57
10, 538080, Note_off_c, 8, 64, 64
10, 538560, Note_on_c, 8, 65, 61
10, 539040, Note_off_c, 8, 65, 64
10, 539520, Note_on_c, 8, 62, 66
10, 540000, Note_off_c, 8, 62, 64
10, 540480, Note_on_c, 8, 66, 70
10, 540960, Note_off_c, 8, 66, 64
10, 541440, Note_on_c, 8, 67, 74
10, 541920, Note_off_c, 8, 67, 64
10, 542400, Note_on_c, 8, 64, 79
10, 542880, Note_off_c, 8, 64, 64
10, 543360, Note_on_c, 8, 67, 83
10, 543840, Note_off_c, 8, 67, 64
10, 544320, Note_on_c, 8, 69, 87
10, 544800, Note_off_c, 8, 69, 64
10, 545280, Note_on_c, 8, 70, 92
10, 545760, Note_off_c, 8, 70, 64
10, 546240, Note_on_c, 8, 71, 96
10, 546720, Note_off_c, 8, 71, 64
10, 547200, Note_on_c, 8, 72, 92
10, 547680, Note_off_c, 8, 72, 64
10, 548160, Note_on_c, 8, 76, 96
10, 548160, Note_on_c, 8, 72, 96
10, 548640, Note_off_c, 8, 72, 64
10, 548640, Note_off_c, 8, 76, 64
10, 549120, Note_on_c, 8, 72, 92
10, 549120, Note_on_c, 8, 76, 92
10, 549600, Note_off_c, 8, 76, 64
10, 549600, Note_off_c, 8, 72, 64
10, 550080, Note_on_c, 8, 76, 96
10, 550080, Note_on_c, 8, 72, 96
10, 550560, Note_off_c, 8, 72, 64
10, 550560, Note_off_c, 8, 76, 64
10, 551040, Note_on_c, 8, 72, 92
10, 551040, Note_on_c, 8, 76, 92
10, 551520, Note_off_c, 8, 76, 64
10, 551520, Note_off_c, 8, 72, 64
10, 552000, Note_on_c, 8, 76, 96
10, 552000, Note_on_c, 8, 72, 96
10, 552480, Note_off_c, 8, 72, 64
10, 552480, Note_off_c, 8, 76, 64
10, 552960, Note_on_c, 8, 72, 80
10, 554400, Note_off_c, 8, 72, 64
10, 554400, Note_on_c, 8, 69, 80
10, 554688, Note_off_c, 8, 69, 64
10, 554880, Note_on_c, 8, 74, 80
10, 556320, Note_off_c, 8, 74, 64
10, 556320, Note_on_c, 8, 70, 80
10, 556608, Note_off_c, 8, 70, 64
10, 556800, Note_on_c, 8, 69, 80
10, 557952, Note_off_c, 8, 69, 64
10, 558240, Note_on_c, 8, 69, 80
10, 558528, Note_off_c, 8, 69, 64
10, 558720, Note_on_c, 8, 67, 80
10, 559008, Note_off_c, 8, 67, 64
10, 559200, Note_on_c, 8, 67, 80
10, 559488, Note_off_c, 8, 67, 64
10, 559680, Note_on_c, 8, 67, 80
10, 559800, Note_off_c, 8, 67, 64
10, 559800, Note_on_c, 8, 69, 80
10, 559920, Note_off_c, 8, 69, 64
10, 559920, Note_on_c, 8, 67, 80
10, 560040, Note_off_c, 8, 67, 64
10, 560040, Note_on_c, 8, 69, 80
10, 560160, Note_off_c, 8, 69, 64
10, 560160, Note_on_c, 8, 67, 80
10, 560280, Note_off_c, 8, 67, 64
10, 560280, Note_on_c, 8, 69, 80
10, 560400, Note_off_c, 8, 69, 64
10, 560400, Note_on_c, 8, 65, 80
10, 560520, Note_off_c, 8, 65, 64
10, 560520, Note_on_c, 8, 67, 80
10, 560640, Note_off_c, 8, 67, 64
10, 560640, Note_on_c, 8, 72, 80
10, 561120, Note_off_c, 8, 72, 64
10, 561120, Note_on_c, 8, 69, 80
10, 561360, Note_off_c, 8, 69, 64
10, 561600, Note_on_c, 8, 74, 80
10, 562080, Note_off_c, 8, 74, 64
10, 562080, Note_on_c, 8, 70, 80
10, 562320, Note_off_c, 8, 70, 64
10, 562560, Note_on_c, 8, 69, 80
10, 562848, Note_off_c, 8, 69, 64
10, 563040, Note_on_c, 8, 69, 80
10, 563328, Note_off_c, 8, 69, 64
10, 563520, Note_on_c, 8, 67, 80
10, 563640, Note_off_c, 8, 67, 64
10, 563640, Note_on_c, 8, 69, 80
10, 563760, Note_off_c, 8, 69, 64
10, 563760, Note_on_c, 8, 67, 80
10, 563880, Note_off_c, 8, 67, 64
10, 563880, Note_on_c, 8, 69, 80
10, 564000, Note_off_c, 8, 69, 64
10, 564000, Note_on_c, 8, 67, 80
10, 564120, Note_off_c, 8, 67, 64
10, 564120, Note_on_c, 8, 69, 80
10, 564240, Note_off_c, 8, 69, 64
10, 564240, Note_on_c, 8, 65, 80
10, 564360, Note_off_c, 8, 65, 64
10, 564360, Note_on_c, 8, 67, 80
10, 564480, Note_off_c, 8, 67, 64
10, 564480, Note_on_c, 8, 65, 56
10, 564864, Note_off_c, 8, 65, 64
10, 566400, Note_on_c, 8, 60, 32
10, 567840, Note_off_c, 8, 60, 64
10, 567840, Note_on_c, 8, 64, 32
10, 568320, Note_off_c, 8, 64, 64
10, 568320, Note_on_c, 8, 65, 32
10, 568800, Note_off_c, 8, 65, 64
10, 570240, Note_on_c, 8, 60, 32
10, 571680, Note_off_c, 8, 60, 64
10, 571680, Note_on_c, 8, 62, 32
10, 572160, Note_off_c, 8, 62, 64
10, 572160, Note_on_c, 8, 64, 32
10, 572640, Note_off_c, 8, 64, 64
10, 574080, Note_on_c, 8, 67, 32
10, 575520, Note_off_c, 8, 67, 64
10, 575520, Note_on_c, 8, 65, 32
10, 576000, Note_off_c, 8, 65, 64
10, 576000, Note_on_c, 8, 64, 32
10, 576480, Note_off_c, 8, 64, 64
10, 577920, Note_on_c, 8, 64, 32
10, 579360, Note_off_c, 8, 64, 64
10, 579360, Note_on_c, 8, 70, 104
10, 579552, Note_off_c, 8, 70, 64
10, 579600, Note_on_c, 8, 70, 104
10, 579792, Note_off_c, 8, 70, 64
10, 579840, Note_on_c, 8, 69, 104
10, 580032, Note_off_c, 8, 69, 64
10, 580080, Note_on_c, 8, 69, 104
10, 580272, Note_off_c, 8, 69, 64
10, 580320, Note_on_c, 8, 70, 104
10, 580512, Note_off_c, 8, 70, 64
10, 580560, Note_on_c, 8, 70, 104
10, 580752, Note_off_c, 8, 70, 64
10, 580800, Note_on_c, 8, 72, 104
10, 580992, Note_off_c, 8, 72, 64
10, 581040, Note_on_c, 8, 72, 104
10, 581232, Note_off_c, 8, 72, 64
10, 581280, Note_on_c, 8, 60, 104
10, 581472, Note_off_c, 8, 60, 64
10, 581520, Note_on_c, 8, 60, 104
10, 581712, Note_off_c, 8, 60, 64
10, 581760, Note_on_c, 8, 65, 104
10, 583142, Note_off_c, 8, 65, 64
10, 583200, Note_on_c, 8, 67, 104
10, 583392, Note_off_c, 8, 67, 64
10, 583440, Note_on_c, 8, 67, 104
10, 583632, Note_off_c, 8, 67, 64
10, 583680, Note_on_c, 8, 69, 104
10, 583872, Note_off_c, 8, 69, 64
10, 583920, Note_on_c, 8, 69, 104
10, 584112, Note_off_c, 8, 69, 64
10, 584160, Note_on_c, 8, 65, 104
10, 584352, Note_off_c, 8, 65, 64
10, 584400, Note_on_c, 8, 65, 104
10, 584592, Note_off_c, 8, 65, 64
10, 584640, Note_on_c, 8, 69, 104
10, 584832, Note_off_c, 8, 69, 64
10, 584880, Note_on_c, 8, 69, 104
10, 585072, Note_off_c, 8, 69, 64
10, 585120, Note_on_c, 8, 70, 104
10, 585312, Note_off_c, 8, 70, 64
10, 585360, Note_on_c, 8, 70, 104
10, 585552, Note_off_c, 8, 70, 64
10, 585600, Note_on_c, 8, 72, 104
10, 586982, Note_off_c, 8, 72, 64
10, 587040, Note_on_c, 8, 74, 104
10, 587232, Note_off_c, 8, 74, 64
10, 587280, Note_on_c, 8, 74, 104
10, 587472, Note_off_c, 8, 74, 64
10, 587520, Note_on_c, 8, 76, 104
10, 587712, Note_off_c, 8, 76, 64
10, 587760, Note_on_c, 8, 76, 104
10, 587952, Note_off_c, 8, 76, 64
10, 588000, Note_on_c, 8, 77, 104
10, 588192, Note_off_c, 8, 77, 64
10, 588240, Note_on_c, 8, 77, 104
10, 588432, Note_off_c, 8, 77, 64
10, 588480, Note_on_c, 8, 79, 104
10, 588672, Note_off_c, 8, 79, 64
10, 588720, Note_on_c, 8, 79, 104
10, 588912, Note_off_c, 8, 79, 64
10, 588960, Note_on_c, 8, 77, 104
10, 589152, Note_off_c, 8, 77, 64
10, 589200, Note_on_c, 8, 77, 104
10, 589392, Note_off_c, 8, 77, 64
10, 589440, Note_on_c, 8, 76, 104
10, 590822, Note_off_c, 8, 76, 64
10, 590880, Note_on_c, 8, 74, 104
10, 591072, Note_off_c, 8, 74, 64
10, 591120, Note_on_c, 8, 74, 104
10, 591312, Note_off_c, 8, 74, 64
10, 591360, Note_on_c, 8, 72, 104
10, 591552, Note_off_c, 8, 72, 64
10, 591600, Note_on_c, 8, 72, 104
10, 591792, Note_off_c, 8, 72, 64
10, 591840, Note_on_c, 8, 74, 104
10, 592032, Note_off_c, 8, 74, 64
10, 592080, Note_on_c, 8, 74, 104
10, 592272, Note_off_c, 8, 74, 64
10, 592320, Note_on_c, 8, 70, 104
10, 592512, Note_off_c, 8, 70, 64
10, 592560, Note_on_c, 8, 70, 104
10, 592752, Note_off_c, 8, 70, 64
10, 592800, Note_on_c, 8, 67, 104
10, 592992, Note_off_c, 8, 67, 64
10, 593040, Note_on_c, 8, 67, 104
10, 593232, Note_off_c, 8, 67, 64
10, 593280, Note_on_c, 8, 64, 104
10, 595200, Note_off_c, 8, 64, 64
10, 599040, Note_on_c, 8, 82, 40
10, 599232, Note_off_c, 8, 82, 64
10, 599280, Note_on_c, 8, 82, 40
10, 599472, Note_off_c, 8, 82, 64
10, 599520, Note_on_c, 8, 82, 40
10, 599712, Note_off_c, 8, 82, 64
10, 599760, Note_on_c, 8, 82, 40
10, 599952, Note_off_c, 8, 82, 64
10, 600000, Note_on_c, 8, 82, 40
10, 600192, Note_off_c, 8, 82, 64
10, 600240, Note_on_c, 8, 82, 40
10, 600432, Note_off_c, 8, 82, 64
10, 600480, Note_on_c, 8, 82, 40
10, 600672, Note_off_c, 8, 82, 64
10, 600720, Note_on_c, 8, 82, 40
10, 600912, Note_off_c, 8, 82, 64
10, 600960, Note_on_c, 8, 82, 40
10, 601152, Note_off_c, 8, 82, 64
10, 601200, Note_on_c, 8, 82, 40
10, 601392, Note_off_c, 8, 82, 64
10, 601440, Note_on_c, 8, 82, 40
10, 601632, Note_off_c, 8, 82, 64
10, 601680, Note_on_c, 8, 82, 40
10, 601872, Note_off_c, 8, 82, 64
10, 601920, Note_on_c, 8, 82, 40
10, 602112, Note_off_c, 8, 82, 64
10, 602160, Note_on_c, 8, 82, 40
10, 602352, Note_off_c, 8, 82, 64
10, 602400, Note_on_c, 8, 82, 40
10, 602592, Note_off_c, 8, 82, 64
10, 602640, Note_on_c, 8, 82, 40
10, 602832, Note_off_c, 8, 82, 64
10, 602880, Note_on_c, 8, 81, 127
10, 602880, Note_on_c, 8, 69, 127
10, 603120, Note_off_c, 8, 69, 64
10, 603120, Note_off_c, 8, 81, 64
10, 604320, Note_on_c, 8, 74, 127
10, 604320, Note_on_c, 8, 65, 127
10, 604560, Note_off_c, 8, 65, 64
10, 604560, Note_off_c, 8, 74, 64
10, 604800, Note_on_c, 8, 65, 127
10, 604800, Note_on_c, 8, 74, 127
10, 605040, Note_off_c, 8, 74, 64
10, 605040, Note_off_c, 8, 65, 64
10, 605760, Note_on_c, 8, 72, 127
10, 605760, Note_on_c, 8, 64, 127
10, 606000, Note_off_c, 8, 64, 64
10, 606000, Note_off_c, 8, 72, 64
10, 606720, Note_on_c, 8, 82, 40
10, 606912, Note_off_c, 8, 82, 64
10, 606960, Note_on_c, 8, 82, 40
10, 607152, Note_off_c, 8, 82, 64
10, 607200, Note_on_c, 8, 82, 40
10, 607392, Note_off_c, 8, 82, 64
10, 607440, Note_on_c, 8, 82, 40
10, 607632, Note_off_c, 8, 82, 64
10, 607680, Note_on_c, 8, 82, 40
10, 607872, Note_off_c, 8, 82, 64
10, 607920, Note_on_c, 8, 82, 40
10, 608112, Note_off_c, 8, 82, 64
10, 608160, Note_on_c, 8, 82, 40
10, 608352, Note_off_c, 8, 82, 64
10, 608400, Note_on_c, 8, 82, 40
10, 608592, Note_off_c, 8, 82, 64
10, 608640, Note_on_c, 8, 82, 40
10, 608832, Note_off_c, 8, 82, 64
10, 608880, Note_on_c, 8, 82, 40
10, 609072, Note_off_c, 8, 82, 64
10, 609120, Note_on_c, 8, 82, 40
10, 609312, Note_off_c, 8, 82, 64
10, 609360, Note_on_c, 8, 82, 40
10, 609552, Note_off_c, 8, 82, 64
10, 609600, Note_on_c, 8, 82, 40
10, 609792, Note_off_c, 8, 82, 64
10, 609840, Note_on_c, 8, 82, 40
10, 610032, Note_off_c, 8, 82, 64
10, 610080, Note_on_c, 8, 82, 40
10, 610272, Note_off_c, 8, 82, 64
10, 610320, Note_on_c, 8, 82, 40
10, 610512, Note_off_c, 8, 82, 64
10, 610560, Note_on_c, 8, 81, 127
10, 610560, Note_on_c, 8, 69, 127
10, 610800, Note_off_c, 8, 69, 64
10, 610800, Note_off_c, 8, 81, 64
10, 612000, Note_on_c, 8, 74, 127
10, 612000, Note_on_c, 8, 65, 127
10, 612240, Note_off_c, 8, 65, 64
10, 612240, Note_off_c, 8, 74, 64
10, 612480, Note_on_c, 8, 65, 127
10, 612480, Note_on_c, 8, 74, 127
10, 612720, Note_off_c, 8, 74, 64
10, 612720, Note_off_c, 8, 65, 64
10, 613440, Note_on_c, 8, 64, 127
10, 613440, Note_on_c, 8, 72, 127
10, 613680, Note_off_c, 8, 72, 64
10, 613680, Note_off_c, 8, 64, 64
10, 614400, Note_on_c, 8, 80, 32
10, 614592, Note_off_c, 8, 80, 64
10, 614640, Note_on_c, 8, 80, 33
10, 614832, Note_off_c, 8, 80, 64
10, 614880, Note_on_c, 8, 80, 35
10, 615072, Note_off_c, 8, 80, 64
10, 615120, Note_on_c, 8, 80, 36
10, 615312, Note_off_c, 8, 80, 64
10, 615360, Note_on_c, 8, 80, 38
10, 615552, Note_off_c, 8, 80, 64
10, 615600, Note_on_c, 8, 80, 39
10, 615792, Note_off_c, 8, 80, 64
10, 615840, Note_on_c, 8, 80, 41
10, 616032, Note_off_c, 8, 80, 64
10, 616080, Note_on_c, 8, 80, 42
10, 616272, Note_off_c, 8, 80, 64
10, 616320, Note_on_c, 8, 80, 43
10, 616512, Note_off_c, 8, 80, 64
10, 616560, Note_on_c, 8, 80, 45
10, 616752, Note_off_c, 8, 80, 64
10, 616800, Note_on_c, 8, 80, 46
10, 616992, Note_off_c, 8, 80, 64
10, 617040, Note_on_c, 8, 80, 48
10, 617232, Note_off_c, 8, 80, 64
10, 617280, Note_on_c, 8, 80, 49
10, 617472, Note_off_c, 8, 80, 64
10, 617520, Note_on_c, 8, 80, 50
10, 617712, Note_off_c, 8, 80, 64
10, 617760, Note_on_c, 8, 80, 52
10, 617952, Note_off_c, 8, 80, 64
10, 618000, Note_on_c, 8, 80, 53
10, 618192, Note_off_c, 8, 80, 64
10, 618240, Note_on_c, 8, 80, 75
10, 618432, Note_off_c, 8, 80, 64
10, 618480, Note_on_c, 8, 80, 56
10, 618672, Note_off_c, 8, 80, 64
10, 618720, Note_on_c, 8, 80, 58
10, 618912, Note_off_c, 8, 80, 64
10, 618960, Note_on_c, 8, 80, 59
10, 619152, Note_off_c, 8, 80, 64
10, 619200, Note_on_c, 8, 80, 60
10, 619392, Note_off_c, 8, 80, 64
10, 619440, Note_on_c, 8, 80, 62
10, 619632, Note_off_c, 8, 80, 64
10, 619680, Note_on_c, 8, 80, 63
10, 619872, Note_off_c, 8, 80, 64
10, 619920, Note_on_c, 8, 80, 65
10, 620112, Note_off_c, 8, 80, 64
10, 620160, Note_on_c, 8, 81, 86
10, 620160, Note_on_c, 8, 72, 66
10, 620352, Note_off_c, 8, 72, 64
10, 620352, Note_off_c, 8, 81, 64
10, 620400, Note_on_c, 8, 72, 67
10, 620400, Note_on_c, 8, 81, 67
10, 620592, Note_off_c, 8, 81, 64
10, 620592, Note_off_c, 8, 72, 64
10, 620640, Note_on_c, 8, 81, 69
10, 620640, Note_on_c, 8, 72, 69
10, 620832, Note_off_c, 8, 72, 64
10, 620832, Note_off_c, 8, 81, 64
10, 620880, Note_on_c, 8, 81, 70
10, 620880, Note_on_c, 8, 72, 70
10, 621072, Note_off_c, 8, 72, 64
10, 621072, Note_off_c, 8, 81, 64
10, 621120, Note_on_c, 8, 72, 72
10, 621120, Note_on_c, 8, 81, 72
10, 621312, Note_off_c, 8, 81, 64
10, 621312, Note_off_c, 8, 72, 64
10, 621360, Note_on_c, 8, 81, 73
10, 621360, Note_on_c, 8, 72, 73
10, 621552, Note_off_c, 8, 72, 64
10, 621552, Note_off_c, 8, 81, 64
10, 621600, Note_on_c, 8, 81, 75
10, 621600, Note_on_c, 8, 72, 75
10, 621792, Note_off_c, 8, 72, 64
10, 621792, Note_off_c, 8, 81, 64
10, 621840, Note_on_c, 8, 81, 76
10, 621840, Note_on_c, 8, 72, 76
10, 622032, Note_off_c, 8, 72, 64
10, 622032, Note_off_c, 8, 81, 64
10, 622080, Note_on_c, 8, 80, 97
10, 622080, Note_on_c, 8, 71, 77
10, 622272, Note_off_c, 8, 71, 64
10, 622272, Note_off_c, 8, 80, 64
10, 622320, Note_on_c, 8, 71, 79
10, 622320, Note_on_c, 8, 80, 79
10, 622512, Note_off_c, 8, 80, 64
10, 622512, Note_off_c, 8, 71, 64
10, 622560, Note_on_c, 8, 80, 80
10, 622560, Note_on_c, 8, 71, 80
10, 622752, Note_off_c, 8, 71, 64
10, 622752, Note_off_c, 8, 80, 64
10, 622800, Note_on_c, 8, 80, 82
10, 622800, Note_on_c, 8, 71, 82
10, 622992, Note_off_c, 8, 71, 64
10, 622992, Note_off_c, 8, 80, 64
10, 623040, Note_on_c, 8, 71, 83
10, 623040, Note_on_c, 8, 80, 83
10, 623232, Note_off_c, 8, 80, 64
10, 623232, Note_off_c, 8, 71, 64
10, 623280, Note_on_c, 8, 80, 84
10, 623280, Note_on_c, 8, 71, 84
10, 623472, Note_off_c, 8, 71, 64
10, 623472, Note_off_c, 8, 80, 64
10, 623520, Note_on_c, 8, 80, 86
10, 623520, Note_on_c, 8, 71, 86
10, 623712, Note_off_c, 8, 71, 64
10, 623712, Note_off_c, 8, 80, 64
10, 623760, Note_on_c, 8, 80, 87
10, 623760, Note_on_c, 8, 71, 87
10, 623952, Note_off_c, 8, 71, 64
10, 623952, Note_off_c, 8, 80, 64
10, 624000, Note_on_c, 8, 79, 109
10, 624000, Note_on_c, 8, 70, 89
10, 624192, Note_off_c, 8, 70, 64
10, 624192, Note_off_c, 8, 79, 64
10, 624240, Note_on_c, 8, 79, 90
10, 624240, Note_on_c, 8, 70, 90
10, 624432, Note_off_c, 8, 70, 64
10, 624432, Note_off_c, 8, 79, 64
10, 624480, Note_on_c, 8, 70, 92
10, 624480, Note_on_c, 8, 79, 92
10, 624672, Note_off_c, 8, 79, 64
10, 624672, Note_off_c, 8, 70, 64
10, 624720, Note_on_c, 8, 70, 93
10, 624720, Note_on_c, 8, 79, 93
10, 624912, Note_off_c, 8, 79, 64
10, 624912, Note_off_c, 8, 70, 64
10, 624960, Note_on_c, 8, 70, 94
10, 624960, Note_on_c, 8, 79, 94
10, 625152, Note_off_c, 8, 79, 64
10, 625152, Note_off_c, 8, 70, 64
10, 625200, Note_on_c, 8, 70, 96
10, 625200, Note_on_c, 8, 79, 96
10, 625392, Note_off_c, 8, 79, 64
10, 625392, Note_off_c, 8, 70, 64
10, 625440, Note_on_c, 8, 70, 97
10, 625440, Note_on_c, 8, 79, 97
10, 625632, Note_off_c, 8, 79, 64
10, 625632, Note_off_c, 8, 70, 64
10, 625680, Note_on_c, 8, 70, 99
10, 625680, Note_on_c, 8, 79, 99
10, 625872, Note_off_c, 8, 79, 64
10, 625872, Note_off_c, 8, 70, 64
10, 625920, Note_on_c, 8, 68, 127
10, 626112, Note_off_c, 8, 68, 64
10, 626160, Note_on_c, 8, 80, 127
10, 626352, Note_off_c, 8, 80, 64
10, 626400, Note_on_c, 8, 80, 127
10, 626592, Note_off_c, 8, 80, 64
10, 626640, Note_on_c, 8, 80, 127
10, 626832, Note_off_c, 8, 80, 64
10, 626880, Note_on_c, 8, 80, 127
10, 627072, Note_off_c, 8, 80, 64
10, 627120, Note_on_c, 8, 80, 127
10, 627312, Note_off_c, 8, 80, 64
10, 627360, Note_on_c, 8, 80, 127
10, 627552, Note_off_c, 8, 80, 64
10, 627600, Note_on_c, 8, 80, 127
10, 627792, Note_off_c, 8, 80, 64
10, 627840, Note_on_c, 8, 80, 127
10, 628032, Note_off_c, 8, 80, 64
10, 628080, Note_on_c, 8, 80, 127
10, 628272, Note_off_c, 8, 80, 64
10, 628320, Note_on_c, 8, 80, 127
10, 628512, Note_off_c, 8, 80, 64
10, 628560, Note_on_c, 8, 80, 127
10, 628752, Note_off_c, 8, 80, 64
10, 628800, Note_on_c, 8, 80, 127
10, 628992, Note_off_c, 8, 80, 64
10, 629040, Note_on_c, 8, 80, 127
10, 629232, Note_off_c, 8, 80, 64
10, 629280, Note_on_c, 8, 80, 127
10, 629472, Note_off_c, 8, 80, 64
10, 629520, Note_on_c, 8, 80, 127
10, 629712, Note_off_c, 8, 80, 64
10, 629760, Note_on_c, 8, 81, 127
10, 629952, Note_off_c, 8, 81, 64
10, 630000, Note_on_c, 8, 81, 127
10, 630192, Note_off_c, 8, 81, 64
10, 630240, Note_on_c, 8, 81, 127
10, 630432, Note_off_c, 8, 81, 64
10, 630480, Note_on_c, 8, 81, 127
10, 630672, Note_off_c, 8, 81, 64
10, 630720, Note_on_c, 8, 81, 127
10, 630912, Note_off_c, 8, 81, 64
10, 630960, Note_on_c, 8, 81, 127
10, 631152, Note_off_c, 8, 81, 64
10, 631200, Note_on_c, 8, 81, 127
10, 631392, Note_off_c, 8, 81, 64
10, 631440, Note_on_c, 8, 81, 127
10, 631632, Note_off_c, 8, 81, 64
10, 631680, Note_on_c, 8, 79, 127
10, 631872, Note_off_c, 8, 79, 64
10, 631920, Note_on_c, 8, 79, 127
10, 632112, Note_off_c, 8, 79, 64
10, 632160, Note_on_c, 8, 79, 127
10, 632352, Note_off_c, 8, 79, 64
10, 632400, Note_on_c, 8, 79, 127
10, 632592, Note_off_c, 8, 79, 64
10, 632640, Note_on_c, 8, 79, 127
10, 632832, Note_off_c, 8, 79, 64
10, 632880, Note_on_c, 8, 79, 127
10, 633072, Note_off_c, 8, 79, 64
10, 633120, Note_on_c, 8, 79, 127
10, 633312, Note_off_c, 8, 79, 64
10, 633360, Note_on_c, 8, 79, 127
10, 633552, Note_off_c, 8, 79, 64
10, 633600, Note_on_c, 8, 77, 127
10, 633984, Note_off_c, 8, 77, 64
10, 634080, Note_on_c, 8, 69, 112
10, 634992, Note_off_c, 8, 69, 64
10, 635040, Note_on_c, 8, 70, 112
10, 635976, Note_off_c, 8, 70, 64
10, 636000, Note_on_c, 8, 72, 112
10, 636912, Note_off_c, 8, 72, 64
10, 636960, Note_on_c, 8, 65, 112
10, 637896, Note_off_c, 8, 65, 64
10, 637920, Note_on_c, 8, 67, 112
10, 638832, Note_off_c, 8, 67, 64
10, 638880, Note_on_c, 8, 69, 112
10, 639816, Note_off_c, 8, 69, 64
10, 639840, Note_on_c, 8, 60, 112
10, 640752, Note_off_c, 8, 60, 64
10, 640800, Note_on_c, 8, 64, 112
10, 641040, Note_off_c, 8, 64, 64
10, 641280, Note_on_c, 8, 65, 112
10, 641520, Note_off_c, 8, 65, 64
10, 641760, Note_on_c, 8, 69, 112
10, 642672, Note_off_c, 8, 69, 64
10, 642720, Note_on_c, 8, 70, 112
10, 643656, Note_off_c, 8, 70, 64
10, 643680, Note_on_c, 8, 72, 112
10, 644592, Note_off_c, 8, 72, 64
10, 644640, Note_on_c, 8, 65, 112
10, 645576, Note_off_c, 8, 65, 64
10, 645600, Note_on_c, 8, 67, 112
10, 646512, Note_off_c, 8, 67, 64
10, 646560, Note_on_c, 8, 69, 112
10, 647496, Note_off_c, 8, 69, 64
10, 647520, Note_on_c, 8, 60, 112
10, 648432, Note_off_c, 8, 60, 64
10, 648480, Note_on_c, 8, 64, 112
10, 648720, Note_off_c, 8, 64, 64
10, 648960, Note_on_c, 8, 65, 112
10, 649200, Note_off_c, 8, 65, 64
10, 649440, Note_on_c, 8, 67, 112
10, 650340, Note_off_c, 8, 67, 64
10, 650400, Note_on_c, 8, 69, 112
10, 651312, Note_off_c, 8, 69, 64
10, 651360, Note_on_c, 8, 70, 112
10, 652260, Note_off_c, 8, 70, 64
10, 652320, Note_on_c, 8, 72, 112
10, 652992, Note_off_c, 8, 72, 64
10, 658560, Note_on_c, 8, 69, 67
10, 658752, Note_off_c, 8, 69, 64
10, 659040, Note_on_c, 8, 72, 67
10, 659232, Note_off_c, 8, 72, 64
10, 659520, Note_on_c, 8, 65, 67
10, 659712, Note_off_c, 8, 65, 64
10, 660000, Note_on_c, 8, 69, 67
10, 660192, Note_off_c, 8, 69, 64
10, 660480, Note_on_c, 8, 60, 67
10, 660672, Note_off_c, 8, 60, 64
10, 666240, Note_on_c, 8, 67, 67
10, 666432, Note_off_c, 8, 67, 64
10, 666720, Note_on_c, 8, 70, 67
10, 666912, Note_off_c, 8, 70, 64
10, 667200, Note_on_c, 8, 64, 67
10, 667392, Note_off_c, 8, 64, 64
10, 667680, Note_on_c, 8, 67, 67
10, 667872, Note_off_c, 8, 67, 64
10, 668160, Note_on_c, 8, 60, 67
10, 668352, Note_off_c, 8, 60, 64
10, 670080, Note_on_c, 8, 69, 67
10, 670272, Note_off_c, 8, 69, 64
10, 670560, Note_on_c, 8, 72, 67
10, 670752, Note_off_c, 8, 72, 64
10, 671040, Note_on_c, 8, 65, 67
10, 671232, Note_off_c, 8, 65, 64
10, 671520, Note_on_c, 8, 69, 67
10, 671712, Note_off_c, 8, 69, 64
10, 673920, Note_on_c, 8, 67, 67
10, 674112, Note_off_c, 8, 67, 64
10, 674400, Note_on_c, 8, 70, 67
10, 674592, Note_off_c, 8, 70, 64
10, 674880, Note_on_c, 8, 62, 67
10, 675072, Note_off_c, 8, 62, 64
10, 675360, Note_on_c, 8, 67, 67
10, 675552, Note_off_c, 8, 67, 64
10, 677760, Note_on_c, 8, 65, 67
10, 677952, Note_off_c, 8, 65, 64
10, 678240, Note_on_c, 8, 69, 67
10, 678432, Note_off_c, 8, 69, 64
10, 678720, Note_on_c, 8, 60, 67
10, 678912, Note_off_c, 8, 60, 64
10, 679200, Note_on_c, 8, 65, 67
10, 679392, Note_off_c, 8, 65, 64
10, 681600, Note_on_c, 8, 60, 61
10, 681792, Note_off_c, 8, 60, 64
10, 682080, Note_on_c, 8, 64, 56
10, 682272, Note_off_c, 8, 64, 64
10, 682560, Note_on_c, 8, 55, 51
10, 682752, Note_off_c, 8, 55, 64
10, 683040, Note_on_c, 8, 60, 46
10, 683232, Note_off_c, 8, 60, 64
10, 710640, Note_on_c, 8, 66, 32
10, 710832, Note_off_c, 8, 66, 64
10, 710880, Note_on_c, 8, 66, 32
10, 711072, Note_off_c, 8, 66, 64
10, 711120, Note_on_c, 8, 66, 32
10, 711312, Note_off_c, 8, 66, 64
10, 711360, Note_on_c, 8, 66, 32
10, 711552, Note_off_c, 8, 66, 64
10, 711600, Note_on_c, 8, 66, 32
10, 711792, Note_off_c, 8, 66, 64
10, 711840, Note_on_c, 8, 66, 32
10, 712032, Note_off_c, 8, 66, 64
10, 712080, Note_on_c, 8, 66, 32
10, 712272, Note_off_c, 8, 66, 64
10, 712320, Note_on_c, 8, 66, 32
10, 712512, Note_off_c, 8, 66, 64
10, 712560, Note_on_c, 8, 66, 32
10, 712752, Note_off_c, 8, 66, 64
10, 712800, Note_on_c, 8, 66, 32
10, 712992, Note_off_c, 8, 66, 64
10, 713040, Note_on_c, 8, 66, 32
10, 713232, Note_off_c, 8, 66, 64
10, 713280, Note_on_c, 8, 66, 32
10, 713472, Note_off_c, 8, 66, 64
10, 713520, Note_on_c, 8, 66, 32
10, 713712, Note_off_c, 8, 66, 64
10, 713760, Note_on_c, 8, 66, 32
10, 713952, Note_off_c, 8, 66, 64
10, 714000, Note_on_c, 8, 66, 32
10, 714192, Note_off_c, 8, 66, 64
10, 714240, Note_on_c, 8, 67, 32
10, 714432, Note_off_c, 8, 67, 64
10, 714480, Note_on_c, 8, 67, 32
10, 714672, Note_off_c, 8, 67, 64
10, 714720, Note_on_c, 8, 67, 32
10, 714912, Note_off_c, 8, 67, 64
10, 714960, Note_on_c, 8, 67, 32
10, 715152, Note_off_c, 8, 67, 64
10, 715200, Note_on_c, 8, 67, 32
10, 715392, Note_off_c, 8, 67, 64
10, 715440, Note_on_c, 8, 67, 32
10, 715632, Note_off_c, 8, 67, 64
10, 715680, Note_on_c, 8, 67, 32
10, 715872, Note_off_c, 8, 67, 64
10, 715920, Note_on_c, 8, 67, 32
10, 716112, Note_off_c, 8, 67, 64
10, 716160, Note_on_c, 8, 67, 32
10, 716160, Note_on_c, 8, 69, 32
10, 716352, Note_off_c, 8, 69, 64
10, 716352, Note_off_c, 8, 67, 64
10, 716400, Note_on_c, 8, 67, 32
10, 716400, Note_on_c, 8, 69, 32
10, 716592, Note_off_c, 8, 69, 64
10, 716592, Note_off_c, 8, 67, 64
10, 716640, Note_on_c, 8, 67, 32
10, 716640, Note_on_c, 8, 69, 32
10, 716832, Note_off_c, 8, 69, 64
10, 716832, Note_off_c, 8, 67, 64
10, 716880, Note_on_c, 8, 67, 32
10, 716880, Note_on_c, 8, 69, 32
10, 717072, Note_off_c, 8, 69, 64
10, 717072, Note_off_c, 8, 67, 64
10, 717120, Note_on_c, 8, 69, 32
10, 717120, Note_on_c, 8, 67, 32
10, 717312, Note_off_c, 8, 67, 64
10, 717312, Note_off_c, 8, 69, 64
10, 717360, Note_on_c, 8, 67, 32
10, 717360, Note_on_c, 8, 69, 32
10, 717552, Note_off_c, 8, 69, 64
10, 717552, Note_off_c, 8, 67, 64
10, 717600, Note_on_c, 8, 67, 32
10, 717600, Note_on_c, 8, 69, 32
10, 717792, Note_off_c, 8, 69, 64
10, 717792, Note_off_c, 8, 67, 64
10, 717840, Note_on_c, 8, 67, 32
10, 717840, Note_on_c, 8, 69, 32
10, 718032, Note_off_c, 8, 69, 64
10, 718032, Note_off_c, 8, 67, 64
10, 733440, Note_on_c, 8, 67, 38
10, 736320, Note_off_c, 8, 67, 64
10, 736320, Note_on_c, 8, 68, 34
10, 736800, Note_off_c, 8, 68, 64
10, 736800, Note_on_c, 8, 70, 38
10, 737280, Note_off_c, 8, 70, 64
10, 737280, Note_on_c, 8, 72, 38
10, 738240, Note_off_c, 8, 72, 64
10, 738240, Note_on_c, 8, 70, 34
10, 738720, Note_off_c, 8, 70, 64
10, 738720, Note_on_c, 8, 72, 38
10, 739200, Note_off_c, 8, 72, 64
10, 739200, Note_on_c, 8, 74, 38
10, 740160, Note_off_c, 8, 74, 64
10, 740160, Note_on_c, 8, 72, 34
10, 740640, Note_off_c, 8, 72, 64
10, 740640, Note_on_c, 8, 74, 38
10, 741120, Note_off_c, 8, 74, 64
10, 741120, Note_on_c, 8, 75, 32
10, 741600, Note_off_c, 8, 75, 64
10, 748800, Note_on_c, 8, 63, 38
10, 751680, Note_off_c, 8, 63, 64
10, 751680, Note_on_c, 8, 65, 39
10, 752160, Note_off_c, 8, 65, 64
10, 752160, Note_on_c, 8, 67, 44
10, 752640, Note_off_c, 8, 67, 64
10, 752640, Note_on_c, 8, 68, 51
10, 753600, Note_off_c, 8, 68, 64
10, 753600, Note_on_c, 8, 67, 52
10, 754080, Note_off_c, 8, 67, 64
10, 754080, Note_on_c, 8, 68, 59
10, 754560, Note_off_c, 8, 68, 64
10, 754560, Note_on_c, 8, 65, 68
10, 755520, Note_off_c, 8, 65, 64
10, 755520, Note_on_c, 8, 70, 69
10, 756000, Note_off_c, 8, 70, 64
10, 756240, Note_on_c, 8, 70, 127
10, 756320, Note_off_c, 8, 70, 64
10, 756320, Note_on_c, 8, 72, 127
10, 756400, Note_off_c, 8, 72, 64
10, 756400, Note_on_c, 8, 74, 127
10, 756480, Note_off_c, 8, 74, 64
10, 756480, Note_on_c, 8, 79, 112
10, 756480, Note_on_c, 8, 70, 112
10, 756672, Note_off_c, 8, 70, 64
10, 756672, Note_off_c, 8, 79, 64
10, 756720, Note_on_c, 8, 79, 112
10, 756720, Note_on_c, 8, 70, 112
10, 756912, Note_off_c, 8, 70, 64
10, 756912, Note_off_c, 8, 79, 64
10, 756960, Note_on_c, 8, 79, 112
10, 756960, Note_on_c, 8, 70, 112
10, 757152, Note_off_c, 8, 70, 64
10, 757152, Note_off_c, 8, 79, 64
10, 757200, Note_on_c, 8, 79, 112
10, 757200, Note_on_c, 8, 70, 112
10, 757392, Note_off_c, 8, 70, 64
10, 757392, Note_off_c, 8, 79, 64
10, 757440, Note_on_c, 8, 79, 112
10, 757440, Note_on_c, 8, 70, 112
10, 757632, Note_off_c, 8, 70, 64
10, 757632, Note_off_c, 8, 79, 64
10, 757680, Note_on_c, 8, 70, 112
10, 757680, Note_on_c, 8, 79, 112
10, 757872, Note_off_c, 8, 79, 64
10, 757872, Note_off_c, 8, 70, 64
10, 757920, Note_on_c, 8, 79, 112
10, 757920, Note_on_c, 8, 70, 112
10, 758112, Note_off_c, 8, 70, 64
10, 758112, Note_off_c, 8, 79, 64
10, 758160, Note_on_c, 8, 70, 112
10, 758160, Note_on_c, 8, 79, 112
10, 758352, Note_off_c, 8, 79, 64
10, 758352, Note_off_c, 8, 70, 64
10, 758400, Note_on_c, 8, 70, 112
10, 758400, Note_on_c, 8, 79, 112
10, 758592, Note_off_c, 8, 79, 64
10, 758592, Note_off_c, 8, 70, 64
10, 758640, Note_on_c, 8, 79, 112
10, 758640, Note_on_c, 8, 70, 112
10, 758832, Note_off_c, 8, 70, 64
10, 758832, Note_off_c, 8, 79, 64
10, 758880, Note_on_c, 8, 79, 112
10, 758880, Note_on_c, 8, 70, 112
10, 759072, Note_off_c, 8, 70, 64
10, 759072, Note_off_c, 8, 79, 64
10, 759120, Note_on_c, 8, 79, 112
10, 759120, Note_on_c, 8, 70, 112
10, 759312, Note_off_c, 8, 70, 64
10, 759312, Note_off_c, 8, 79, 64
10, 759360, Note_on_c, 8, 79, 112
10, 759360, Note_on_c, 8, 70, 112
10, 759552, Note_off_c, 8, 70, 64
10, 759552, Note_off_c, 8, 79, 64
10, 759600, Note_on_c, 8, 70, 112
10, 759600, Note_on_c, 8, 79, 112
10, 759792, Note_off_c, 8, 79, 64
10, 759792, Note_off_c, 8, 70, 64
10, 759840, Note_on_c, 8, 70, 112
10, 759840, Note_on_c, 8, 79, 112
10, 760032, Note_off_c, 8, 79, 64
10, 760032, Note_off_c, 8, 70, 64
10, 760080, Note_on_c, 8, 70, 112
10, 760080, Note_on_c, 8, 79, 112
10, 760272, Note_off_c, 8, 79, 64
10, 760272, Note_off_c, 8, 70, 64
10, 760320, Note_on_c, 8, 70, 112
10, 760320, Note_on_c, 8, 79, 112
10, 760512, Note_off_c, 8, 79, 64
10, 760512, Note_off_c, 8, 70, 64
10, 760560, Note_on_c, 8, 79, 112
10, 760560, Note_on_c, 8, 70, 112
10, 760752, Note_off_c, 8, 70, 64
10, 760752, Note_off_c, 8, 79, 64
10, 760800, Note_on_c, 8, 70, 112
10, 760800, Note_on_c, 8, 79, 112
10, 760992, Note_off_c, 8, 79, 64
10, 760992, Note_off_c, 8, 70, 64
10, 761040, Note_on_c, 8, 70, 112
10, 761040, Note_on_c, 8, 79, 112
10, 761232, Note_off_c, 8, 79, 64
10, 761232, Note_off_c, 8, 70, 64
10, 761280, Note_on_c, 8, 70, 112
10, 761280, Note_on_c, 8, 79, 112
10, 761472, Note_off_c, 8, 79, 64
10, 761472, Note_off_c, 8, 70, 64
10, 761520, Note_on_c, 8, 70, 112
10, 761520, Note_on_c, 8, 79, 112
10, 761712, Note_off_c, 8, 79, 64
10, 761712, Note_off_c, 8, 70, 64
10, 761760, Note_on_c, 8, 79, 112
10, 761760, Note_on_c, 8, 70, 112
10, 761952, Note_off_c, 8, 70, 64
10, 761952, Note_off_c, 8, 79, 64
10, 762000, Note_on_c, 8, 70, 112
10, 762000, Note_on_c, 8, 79, 112
10, 762192, Note_off_c, 8, 79, 64
10, 762192, Note_off_c, 8, 70, 64
10, 762240, Note_on_c, 8, 79, 112
10, 762240, Note_on_c, 8, 70, 112
10, 762432, Note_off_c, 8, 70, 64
10, 762432, Note_off_c, 8, 79, 64
10, 762480, Note_on_c, 8, 79, 112
10, 762480, Note_on_c, 8, 70, 112
10, 762672, Note_off_c, 8, 70, 64
10, 762672, Note_off_c, 8, 79, 64
10, 762720, Note_on_c, 8, 70, 112
10, 762720, Note_on_c, 8, 79, 112
10, 762912, Note_off_c, 8, 79, 64
10, 762912, Note_off_c, 8, 70, 64
10, 762960, Note_on_c, 8, 79, 112
10, 762960, Note_on_c, 8, 70, 112
10, 763152, Note_off_c, 8, 70, 64
10, 763152, Note_off_c, 8, 79, 64
10, 763200, Note_on_c, 8, 70, 112
10, 763200, Note_on_c, 8, 79, 112
10, 763392, Note_off_c, 8, 79, 64
10, 763392, Note_off_c, 8, 70, 64
10, 763440, Note_on_c, 8, 79, 112
10, 763440, Note_on_c, 8, 70, 112
10, 763632, Note_off_c, 8, 70, 64
10, 763632, Note_off_c, 8, 79, 64
10, 763680, Note_on_c, 8, 70, 112
10, 763680, Note_on_c, 8, 79, 112
10, 763872, Note_off_c, 8, 79, 64
10, 763872, Note_off_c, 8, 70, 64
10, 763920, Note_on_c, 8, 79, 112
10, 763920, Note_on_c, 8, 70, 112
10, 764112, Note_off_c, 8, 70, 64
10, 764112, Note_off_c, 8, 79, 64
10, 764160, Note_on_c, 8, 79, 112
10, 764160, Note_on_c, 8, 70, 112
10, 764352, Note_off_c, 8, 70, 64
10, 764352, Note_off_c, 8, 79, 64
10, 765600, Note_on_c, 8, 79, 48
10, 765792, Note_off_c, 8, 79, 64
10, 766080, Note_on_c, 8, 75, 48
10, 766272, Note_off_c, 8, 75, 64
10, 766560, Note_on_c, 8, 79, 48
10, 766752, Note_off_c, 8, 79, 64
10, 767520, Note_on_c, 8, 75, 48
10, 767712, Note_off_c, 8, 75, 64
10, 768000, Note_on_c, 8, 70, 48
10, 768192, Note_off_c, 8, 70, 64
10, 768480, Note_on_c, 8, 75, 48
10, 768672, Note_off_c, 8, 75, 64
10, 769440, Note_on_c, 8, 70, 48
10, 769632, Note_off_c, 8, 70, 64
10, 769920, Note_on_c, 8, 67, 48
10, 770112, Note_off_c, 8, 67, 64
10, 771840, Note_on_c, 8, 77, 112
10, 771840, Note_on_c, 8, 74, 112
10, 772032, Note_off_c, 8, 74, 64
10, 772032, Note_off_c, 8, 77, 64
10, 772080, Note_on_c, 8, 74, 112
10, 772080, Note_on_c, 8, 77, 112
10, 772272, Note_off_c, 8, 77, 64
10, 772272, Note_off_c, 8, 74, 64
10, 772320, Note_on_c, 8, 74, 112
10, 772320, Note_on_c, 8, 77, 112
10, 772512, Note_off_c, 8, 77, 64
10, 772512, Note_off_c, 8, 74, 64
10, 772560, Note_on_c, 8, 74, 112
10, 772560, Note_on_c, 8, 77, 112
10, 772752, Note_off_c, 8, 77, 64
10, 772752, Note_off_c, 8, 74, 64
10, 772800, Note_on_c, 8, 77, 112
10, 772800, Note_on_c, 8, 74, 112
10, 772992, Note_off_c, 8, 74, 64
10, 772992, Note_off_c, 8, 77, 64
10, 773040, Note_on_c, 8, 74, 112
10, 773040, Note_on_c, 8, 77, 112
10, 773232, Note_off_c, 8, 77, 64
10, 773232, Note_off_c, 8, 74, 64
10, 773280, Note_on_c, 8, 77, 112
10, 773280, Note_on_c, 8, 74, 112
10, 773472, Note_off_c, 8, 74, 64
10, 773472, Note_off_c, 8, 77, 64
10, 773520, Note_on_c, 8, 74, 112
10, 773520, Note_on_c, 8, 77, 112
10, 773712, Note_off_c, 8, 77, 64
10, 773712, Note_off_c, 8, 74, 64
10, 773760, Note_on_c, 8, 74, 112
10, 773760, Note_on_c, 8, 77, 112
10, 773952, Note_off_c, 8, 77, 64
10, 773952, Note_off_c, 8, 74, 64
10, 774000, Note_on_c, 8, 77, 112
10, 774000, Note_on_c, 8, 74, 112
10, 774192, Note_off_c, 8, 74, 64
10, 774192, Note_off_c, 8, 77, 64
10, 774240, Note_on_c, 8, 77, 112
10, 774240, Note_on_c, 8, 74, 112
10, 774432, Note_off_c, 8, 74, 64
10, 774432, Note_off_c, 8, 77, 64
10, 774480, Note_on_c, 8, 77, 112
10, 774480, Note_on_c, 8, 74, 112
10, 774672, Note_off_c, 8, 74, 64
10, 774672, Note_off_c, 8, 77, 64
10, 774720, Note_on_c, 8, 77, 112
10, 774720, Note_on_c, 8, 74, 112
10, 774912, Note_off_c, 8, 74, 64
10, 774912, Note_off_c, 8, 77, 64
10, 774960, Note_on_c, 8, 74, 112
10, 774960, Note_on_c, 8, 77, 112
10, 775152, Note_off_c, 8, 77, 64
10, 775152, Note_off_c, 8, 74, 64
10, 775200, Note_on_c, 8, 74, 112
10, 775200, Note_on_c, 8, 77, 112
10, 775392, Note_off_c, 8, 77, 64
10, 775392, Note_off_c, 8, 74, 64
10, 775440, Note_on_c, 8, 77, 112
10, 775440, Note_on_c, 8, 74, 112
10, 775632, Note_off_c, 8, 74, 64
10, 775632, Note_off_c, 8, 77, 64
10, 775680, Note_on_c, 8, 74, 112
10, 775680, Note_on_c, 8, 77, 112
10, 775872, Note_off_c, 8, 77, 64
10, 775872, Note_off_c, 8, 74, 64
10, 775920, Note_on_c, 8, 77, 112
10, 775920, Note_on_c, 8, 74, 112
10, 776112, Note_off_c, 8, 74, 64
10, 776112, Note_off_c, 8, 77, 64
10, 776160, Note_on_c, 8, 77, 112
10, 776160, Note_on_c, 8, 74, 112
10, 776352, Note_off_c, 8, 74, 64
10, 776352, Note_off_c, 8, 77, 64
10, 776400, Note_on_c, 8, 74, 112
10, 776400, Note_on_c, 8, 77, 112
10, 776592, Note_off_c, 8, 77, 64
10, 776592, Note_off_c, 8, 74, 64
10, 776640, Note_on_c, 8, 74, 112
10, 776640, Note_on_c, 8, 77, 112
10, 776832, Note_off_c, 8, 77, 64
10, 776832, Note_off_c, 8, 74, 64
10, 776880, Note_on_c, 8, 74, 112
10, 776880, Note_on_c, 8, 77, 112
10, 777072, Note_off_c, 8, 77, 64
10, 777072, Note_off_c, 8, 74, 64
10, 777120, Note_on_c, 8, 77, 112
10, 777120, Note_on_c, 8, 74, 112
10, 777312, Note_off_c, 8, 74, 64
10, 777312, Note_off_c, 8, 77, 64
10, 777360, Note_on_c, 8, 77, 112
10, 777360, Note_on_c, 8, 74, 112
10, 777552, Note_off_c, 8, 74, 64
10, 777552, Note_off_c, 8, 77, 64
10, 777600, Note_on_c, 8, 77, 112
10, 777600, Note_on_c, 8, 74, 112
10, 777792, Note_off_c, 8, 74, 64
10, 777792, Note_off_c, 8, 77, 64
10, 777840, Note_on_c, 8, 74, 112
10, 777840, Note_on_c, 8, 77, 112
10, 778032, Note_off_c, 8, 77, 64
10, 778032, Note_off_c, 8, 74, 64
10, 778080, Note_on_c, 8, 74, 112
10, 778080, Note_on_c, 8, 77, 112
10, 778272, Note_off_c, 8, 77, 64
10, 778272, Note_off_c, 8, 74, 64
10, 778320, Note_on_c, 8, 74, 112
10, 778320, Note_on_c, 8, 77, 112
10, 778512, Note_off_c, 8, 77, 64
10, 778512, Note_off_c, 8, 74, 64
10, 778560, Note_on_c, 8, 77, 112
10, 778560, Note_on_c, 8, 74, 112
10, 778752, Note_off_c, 8, 74, 64
10, 778752, Note_off_c, 8, 77, 64
10, 778800, Note_on_c, 8, 74, 112
10, 778800, Note_on_c, 8, 77, 112
10, 778992, Note_off_c, 8, 77, 64
10, 778992, Note_off_c, 8, 74, 64
10, 779040, Note_on_c, 8, 74, 112
10, 779040, Note_on_c, 8, 77, 112
10, 779232, Note_off_c, 8, 77, 64
10, 779232, Note_off_c, 8, 74, 64
10, 779280, Note_on_c, 8, 74, 112
10, 779280, Note_on_c, 8, 77, 112
10, 779472, Note_off_c, 8, 77, 64
10, 779472, Note_off_c, 8, 74, 64
10, 779520, Note_on_c, 8, 77, 112
10, 779520, Note_on_c, 8, 74, 112
10, 779712, Note_off_c, 8, 74, 64
10, 779712, Note_off_c, 8, 77, 64
10, 780960, Note_on_c, 8, 79, 48
10, 781152, Note_off_c, 8, 79, 64
10, 781440, Note_on_c, 8, 74, 48
10, 781632, Note_off_c, 8, 74, 64
10, 781920, Note_on_c, 8, 79, 48
10, 782112, Note_off_c, 8, 79, 64
10, 782880, Note_on_c, 8, 74, 48
10, 783072, Note_off_c, 8, 74, 64
10, 783360, Note_on_c, 8, 71, 48
10, 783552, Note_off_c, 8, 71, 64
10, 783840, Note_on_c, 8, 74, 48
10, 784032, Note_off_c, 8, 74, 64
10, 784800, Note_on_c, 8, 71, 48
10, 784992, Note_off_c, 8, 71, 64
10, 785280, Note_on_c, 8, 67, 48
10, 785472, Note_off_c, 8, 67, 64
10, 787200, Note_on_c, 8, 82, 127
10, 787200, Note_on_c, 8, 73, 127
10, 787392, Note_off_c, 8, 73, 64
10, 787392, Note_off_c, 8, 82, 64
10, 787440, Note_on_c, 8, 82, 127
10, 787440, Note_on_c, 8, 73, 127
10, 787632, Note_off_c, 8, 73, 64
10, 787632, Note_off_c, 8, 82, 64
10, 787680, Note_on_c, 8, 73, 127
10, 787680, Note_on_c, 8, 82, 127
10, 787872, Note_off_c, 8, 82, 64
10, 787872, Note_off_c, 8, 73, 64
10, 787920, Note_on_c, 8, 73, 127
10, 787920, Note_on_c, 8, 82, 127
10, 788112, Note_off_c, 8, 82, 64
10, 788112, Note_off_c, 8, 73, 64
10, 788160, Note_on_c, 8, 82, 127
10, 788160, Note_on_c, 8, 73, 127
10, 788352, Note_off_c, 8, 73, 64
10, 788352, Note_off_c, 8, 82, 64
10, 788400, Note_on_c, 8, 82, 127
10, 788400, Note_on_c, 8, 73, 127
10, 788592, Note_off_c, 8, 73, 64
10, 788592, Note_off_c, 8, 82, 64
10, 788640, Note_on_c, 8, 82, 127
10, 788640, Note_on_c, 8, 73, 127
10, 788832, Note_off_c, 8, 73, 64
10, 788832, Note_off_c, 8, 82, 64
10, 788880, Note_on_c, 8, 73, 127
10, 788880, Note_on_c, 8, 82, 127
10, 789072, Note_off_c, 8, 82, 64
10, 789072, Note_off_c, 8, 73, 64
10, 789120, Note_on_c, 8, 82, 127
10, 789120, Note_on_c, 8, 73, 127
10, 789312, Note_off_c, 8, 73, 64
10, 789312, Note_off_c, 8, 82, 64
10, 789360, Note_on_c, 8, 82, 127
10, 789360, Note_on_c, 8, 73, 127
10, 789552, Note_off_c, 8, 73, 64
10, 789552, Note_off_c, 8, 82, 64
10, 789600, Note_on_c, 8, 73, 127
10, 789600, Note_on_c, 8, 82, 127
10, 789792, Note_off_c, 8, 82, 64
10, 789792, Note_off_c, 8, 73, 64
10, 789840, Note_on_c, 8, 73, 127
10, 789840, Note_on_c, 8, 82, 127
10, 790032, Note_off_c, 8, 82, 64
10, 790032, Note_off_c, 8, 73, 64
10, 790080, Note_on_c, 8, 73, 127
10, 790080, Note_on_c, 8, 82, 127
10, 790272, Note_off_c, 8, 82, 64
10, 790272, Note_off_c, 8, 73, 64
10, 790320, Note_on_c, 8, 73, 127
10, 790320, Note_on_c, 8, 82, 127
10, 790512, Note_off_c, 8, 82, 64
10, 790512, Note_off_c, 8, 73, 64
10, 790560, Note_on_c, 8, 82, 127
10, 790560, Note_on_c, 8, 73, 127
10, 790752, Note_off_c, 8, 73, 64
10, 790752, Note_off_c, 8, 82, 64
10, 790800, Note_on_c, 8, 73, 127
10, 790800, Note_on_c, 8, 82, 127
10, 790992, Note_off_c, 8, 82, 64
10, 790992, Note_off_c, 8, 73, 64
10, 791040, Note_on_c, 8, 82, 127
10, 791040, Note_on_c, 8, 73, 127
10, 791232, Note_off_c, 8, 73, 64
10, 791232, Note_off_c, 8, 82, 64
10, 791280, Note_on_c, 8, 82, 127
10, 791280, Note_on_c, 8, 73, 127
10, 791472, Note_off_c, 8, 73, 64
10, 791472, Note_off_c, 8, 82, 64
10, 791520, Note_on_c, 8, 82, 127
10, 791520, Note_on_c, 8, 73, 127
10, 791712, Note_off_c, 8, 73, 64
10, 791712, Note_off_c, 8, 82, 64
10, 791760, Note_on_c, 8, 82, 127
10, 791760, Note_on_c, 8, 73, 127
10, 791952, Note_off_c, 8, 73, 64
10, 791952, Note_off_c, 8, 82, 64
10, 792000, Note_on_c, 8, 82, 127
10, 792000, Note_on_c, 8, 73, 127
10, 792192, Note_off_c, 8, 73, 64
10, 792192, Note_off_c, 8, 82, 64
10, 792240, Note_on_c, 8, 73, 127
10, 792240, Note_on_c, 8, 82, 127
10, 792432, Note_off_c, 8, 82, 64
10, 792432, Note_off_c, 8, 73, 64
10, 792480, Note_on_c, 8, 82, 127
10, 792480, Note_on_c, 8, 73, 127
10, 792672, Note_off_c, 8, 73, 64
10, 792672, Note_off_c, 8, 82, 64
10, 792720, Note_on_c, 8, 73, 127
10, 792720, Note_on_c, 8, 82, 127
10, 792912, Note_off_c, 8, 82, 64
10, 792912, Note_off_c, 8, 73, 64
10, 792960, Note_on_c, 8, 82, 127
10, 792960, Note_on_c, 8, 73, 127
10, 793152, Note_off_c, 8, 73, 64
10, 793152, Note_off_c, 8, 82, 64
10, 793200, Note_on_c, 8, 82, 127
10, 793200, Note_on_c, 8, 73, 127
10, 793392, Note_off_c, 8, 73, 64
10, 793392, Note_off_c, 8, 82, 64
10, 793440, Note_on_c, 8, 73, 127
10, 793440, Note_on_c, 8, 82, 127
10, 793632, Note_off_c, 8, 82, 64
10, 793632, Note_off_c, 8, 73, 64
10, 793680, Note_on_c, 8, 73, 127
10, 793680, Note_on_c, 8, 82, 127
10, 793872, Note_off_c, 8, 82, 64
10, 793872, Note_off_c, 8, 73, 64
10, 793920, Note_on_c, 8, 82, 127
10, 793920, Note_on_c, 8, 73, 127
10, 794112, Note_off_c, 8, 73, 64
10, 794112, Note_off_c, 8, 82, 64
10, 794160, Note_on_c, 8, 73, 127
10, 794160, Note_on_c, 8, 82, 127
10, 794352, Note_off_c, 8, 82, 64
10, 794352, Note_off_c, 8, 73, 64
10, 794400, Note_on_c, 8, 82, 127
10, 794400, Note_on_c, 8, 73, 127
10, 794592, Note_off_c, 8, 73, 64
10, 794592, Note_off_c, 8, 82, 64
10, 794640, Note_on_c, 8, 73, 127
10, 794640, Note_on_c, 8, 82, 127
10, 794832, Note_off_c, 8, 82, 64
10, 794832, Note_off_c, 8, 73, 64
10, 794880, Note_on_c, 8, 82, 127
10, 794880, Note_on_c, 8, 73, 127
10, 795072, Note_off_c, 8, 73, 64
10, 795072, Note_off_c, 8, 82, 64
10, 796320, Note_on_c, 8, 79, 48
10, 796512, Note_off_c, 8, 79, 64
10, 796800, Note_on_c, 8, 76, 120
10, 796992, Note_off_c, 8, 76, 64
10, 797280, Note_on_c, 8, 79, 118
10, 797472, Note_off_c, 8, 79, 64
10, 798240, Note_on_c, 8, 76, 113
10, 798432, Note_off_c, 8, 76, 64
10, 798720, Note_on_c, 8, 73, 110
10, 798912, Note_off_c, 8, 73, 64
10, 799200, Note_on_c, 8, 76, 107
10, 799392, Note_off_c, 8, 76, 64
10, 800160, Note_on_c, 8, 73, 102
10, 800352, Note_off_c, 8, 73, 64
10, 800640, Note_on_c, 8, 70, 100
10, 800832, Note_off_c, 8, 70, 64
10, 801120, Note_on_c, 8, 73, 97
10, 801312, Note_off_c, 8, 73, 64
10, 802080, Note_on_c, 8, 70, 92
10, 802272, Note_off_c, 8, 70, 64
10, 802560, Note_on_c, 8, 67, 89
10, 802752, Note_off_c, 8, 67, 64
10, 803040, Note_on_c, 8, 70, 87
10, 803232, Note_off_c, 8, 70, 64
10, 804000, Note_on_c, 8, 67, 81
10, 804192, Note_off_c, 8, 67, 64
10, 804480, Note_on_c, 8, 64, 79
10, 804672, Note_off_c, 8, 64, 64
10, 804960, Note_on_c, 8, 67, 76
10, 805152, Note_off_c, 8, 67, 64
10, 805920, Note_on_c, 8, 64, 71
10, 806112, Note_off_c, 8, 64, 64
10, 806400, Note_on_c, 8, 61, 54
10, 806592, Note_off_c, 8, 61, 64
10, 806880, Note_on_c, 8, 64, 53
10, 807072, Note_off_c, 8, 64, 64
10, 807840, Note_on_c, 8, 61, 49
10, 808032, Note_off_c, 8, 61, 64
10, 808320, Note_on_c, 8, 64, 46
10, 808512, Note_off_c, 8, 64, 64
10, 808800, Note_on_c, 8, 67, 44
10, 808992, Note_off_c, 8, 67, 64
10, 809760, Note_on_c, 8, 64, 40
10, 809952, Note_off_c, 8, 64, 64
10, 810240, Note_on_c, 8, 64, 32
10, 810432, Note_off_c, 8, 64, 64
10, 811680, Note_on_c, 8, 67, 28
10, 811872, Note_off_c, 8, 67, 64
10, 812160, Note_on_c, 8, 64, 32
10, 812352, Note_off_c, 8, 64, 64
10, 813600, Note_on_c, 8, 67, 28
10, 813792, Note_off_c, 8, 67, 64
10, 814080, Note_on_c, 8, 64, 32
10, 814272, Note_off_c, 8, 64, 64
10, 815520, Note_on_c, 8, 67, 28
10, 815712, Note_off_c, 8, 67, 64
10, 816000, Note_on_c, 8, 64, 32
10, 816192, Note_off_c, 8, 64, 64
10, 817440, Note_on_c, 8, 67, 28
10, 817632, Note_off_c, 8, 67, 64
10, 817920, Note_on_c, 8, 64, 32
10, 818112, Note_off_c, 8, 64, 64
10, 819360, Note_on_c, 8, 67, 28
10, 819840, Note_off_c, 8, 67, 64
10, 819840, Note_on_c, 8, 64, 32
10, 820320, Note_off_c, 8, 64, 64
10, 820320, Note_on_c, 8, 67, 24
10, 820704, Note_off_c, 8, 67, 64
10, 821280, Note_on_c, 8, 67, 28
10, 821760, Note_off_c, 8, 67, 64
10, 821760, Note_on_c, 8, 64, 32
10, 822240, Note_off_c, 8, 64, 64
10, 822240, Note_on_c, 8, 67, 24
10, 822624, Note_off_c, 8, 67, 64
10, 823200, Note_on_c, 8, 67, 28
10, 823680, Note_off_c, 8, 67, 64
10, 823680, Note_on_c, 8, 64, 32
10, 824160, Note_off_c, 8, 64, 64
10, 824160, Note_on_c, 8, 67, 24
10, 824544, Note_off_c, 8, 67, 64
10, 825120, Note_on_c, 8, 67, 28
10, 825600, Note_off_c, 8, 67, 64
10, 825600, Note_on_c, 8, 64, 32
10, 826080, Note_off_c, 8, 64, 64
10, 833280, Note_on_c, 8, 61, 10
10, 837360, Note_off_c, 8, 61, 64
10, 840960, Note_on_c, 8, 61, 10
10, 845040, Note_off_c, 8, 61, 64
10, 852480, Note_on_c, 8, 64, 10
10, 856560, Note_off_c, 8, 64, 64
10, 857760, Note_on_c, 8, 64, 13
10, 858000, Note_off_c, 8, 64, 64
10, 858240, Note_on_c, 8, 64, 13
10, 858480, Note_off_c, 8, 64, 64
10, 859680, Note_on_c, 8, 64, 13
10, 859920, Note_off_c, 8, 64, 64
10, 860160, Note_on_c, 8, 64, 13
10, 860400, Note_off_c, 8, 64, 64
10, 861600, Note_on_c, 8, 64, 13
10, 861840, Note_off_c, 8, 64, 64
10, 862080, Note_on_c, 8, 64, 13
10, 862320, Note_off_c, 8, 64, 64
10, 863520, Note_on_c, 8, 64, 13
10, 863760, Note_off_c, 8, 64, 64
10, 864000, Note_on_c, 8, 64, 10
10, 864240, Note_off_c, 8, 64, 64
10, 864480, Note_on_c, 8, 68, 22
10, 864960, Note_off_c, 8, 68, 64
10, 864960, Note_on_c, 8, 66, 22
10, 865440, Note_off_c, 8, 66, 64
10, 865440, Note_on_c, 8, 64, 22
10, 865920, Note_off_c, 8, 64, 64
10, 865920, Note_on_c, 8, 63, 22
10, 866400, Note_off_c, 8, 63, 64
10, 866400, Note_on_c, 8, 61, 22
10, 866880, Note_off_c, 8, 61, 64
10, 866880, Note_on_c, 8, 59, 22
10, 867360, Note_off_c, 8, 59, 64
10, 867360, Note_on_c, 8, 58, 22
10, 867840, Note_off_c, 8, 58, 64
10, 875040, Note_on_c, 8, 61, 22
10, 879300, Note_off_c, 8, 61, 64
10, 879360, Note_on_c, 8, 62, 10
10, 883920, Note_off_c, 8, 62, 64
10, 887040, Note_on_c, 8, 62, 10
10, 891120, Note_off_c, 8, 62, 64
10, 894480, Note_on_c, 8, 65, 25
10, 894560, Note_off_c, 8, 65, 64
10, 894560, Note_on_c, 8, 67, 25
10, 894640, Note_off_c, 8, 67, 64
10, 894640, Note_on_c, 8, 69, 25
10, 894720, Note_off_c, 8, 69, 64
10, 894720, Note_on_c, 8, 70, 25
10, 896640, Note_off_c, 8, 70, 64
10, 898320, Note_on_c, 8, 62, 25
10, 898440, Note_off_c, 8, 62, 64
10, 898440, Note_on_c, 8, 63, 25
10, 898560, Note_off_c, 8, 63, 64
10, 898560, Note_on_c, 8, 65, 25
10, 900480, Note_off_c, 8, 65, 64
10, 933120, Note_on_c, 8, 77, 120
10, 933312, Note_off_c, 8, 77, 64
10, 933360, Note_on_c, 8, 77, 120
10, 933552, Note_off_c, 8, 77, 64
10, 933600, Note_on_c, 8, 77, 120
10, 933792, Note_off_c, 8, 77, 64
10, 933840, Note_on_c, 8, 77, 120
10, 934032, Note_off_c, 8, 77, 64
10, 934080, Note_on_c, 8, 77, 120
10, 934272, Note_off_c, 8, 77, 64
10, 934320, Note_on_c, 8, 77, 120
10, 934512, Note_off_c, 8, 77, 64
10, 934560, Note_on_c, 8, 77, 120
10, 934752, Note_off_c, 8, 77, 64
10, 934800, Note_on_c, 8, 77, 120
10, 934992, Note_off_c, 8, 77, 64
10, 935040, Note_on_c, 8, 77, 120
10, 935232, Note_off_c, 8, 77, 64
10, 935280, Note_on_c, 8, 77, 120
10, 935472, Note_off_c, 8, 77, 64
10, 935520, Note_on_c, 8, 77, 120
10, 935712, Note_off_c, 8, 77, 64
10, 935760, Note_on_c, 8, 77, 120
10, 935952, Note_off_c, 8, 77, 64
10, 936000, Note_on_c, 8, 77, 120
10, 936192, Note_off_c, 8, 77, 64
10, 936240, Note_on_c, 8, 77, 120
10, 936432, Note_off_c, 8, 77, 64
10, 936480, Note_on_c, 8, 77, 120
10, 936672, Note_off_c, 8, 77, 64
10, 936720, Note_on_c, 8, 77, 120
10, 936912, Note_off_c, 8, 77, 64
10, 936960, Note_on_c, 8, 77, 120
10, 937152, Note_off_c, 8, 77, 64
10, 937200, Note_on_c, 8, 77, 120
10, 937392, Note_off_c, 8, 77, 64
10, 937440, Note_on_c, 8, 77, 120
10, 937632, Note_off_c, 8, 77, 64
10, 937680, Note_on_c, 8, 77, 120
10, 937872, Note_off_c, 8, 77, 64
10, 937920, Note_on_c, 8, 77, 120
10, 938112, Note_off_c, 8, 77, 64
10, 938160, Note_on_c, 8, 77, 120
10, 938352, Note_off_c, 8, 77, 64
10, 938400, Note_on_c, 8, 77, 120
10, 938592, Note_off_c, 8, 77, 64
10, 938640, Note_on_c, 8, 70, 120
10, 938760, Note_off_c, 8, 70, 64
10, 938760, Note_on_c, 8, 72, 120
10, 938880, Note_off_c, 8, 72, 64
10, 938880, Note_on_c, 8, 74, 120
10, 938880, Note_on_c, 8, 65, 120
10, 939120, Note_off_c, 8, 65, 64
10, 939120, Note_off_c, 8, 74, 64
10, 939840, Note_on_c, 8, 70, 120
10, 939960, Note_off_c, 8, 70, 64
10, 939960, Note_on_c, 8, 72, 120
10, 940080, Note_off_c, 8, 72, 64
10, 940080, Note_on_c, 8, 65, 120
10, 940080, Note_on_c, 8, 74, 127
10, 940320, Note_off_c, 8, 74, 64
10, 940320, Note_off_c, 8, 65, 64
10, 941040, Note_on_c, 8, 70, 120
10, 941160, Note_off_c, 8, 70, 64
10, 941160, Note_on_c, 8, 72, 120
10, 941280, Note_off_c, 8, 72, 64
10, 941280, Note_on_c, 8, 74, 127
10, 941280, Note_on_c, 8, 65, 120
10, 941520, Note_off_c, 8, 65, 64
10, 941520, Note_off_c, 8, 74, 64
10, 949200, Note_on_c, 8, 62, 48
10, 949200, Note_on_c, 8, 65, 48
10, 949392, Note_off_c, 8, 65, 64
10, 949392, Note_off_c, 8, 62, 64
10, 949440, Note_on_c, 8, 62, 48
10, 949440, Note_on_c, 8, 65, 48
10, 949632, Note_off_c, 8, 65, 64
10, 949632, Note_off_c, 8, 62, 64
10, 949680, Note_on_c, 8, 65, 48
10, 949680, Note_on_c, 8, 62, 48
10, 949872, Note_off_c, 8, 62, 64
10, 949872, Note_off_c, 8, 65, 64
10, 949920, Note_on_c, 8, 65, 48
10, 949920, Note_on_c, 8, 62, 48
10, 950112, Note_off_c, 8, 62, 64
10, 950112, Note_off_c, 8, 65, 64
10, 950160, Note_on_c, 8, 62, 48
10, 950160, Note_on_c, 8, 65, 48
10, 950352, Note_off_c, 8, 65, 64
10, 950352, Note_off_c, 8, 62, 64
10, 950400, Note_on_c, 8, 62, 48
10, 950400, Note_on_c, 8, 65, 48
10, 950592, Note_off_c, 8, 65, 64
10, 950592, Note_off_c, 8, 62, 64
10, 950640, Note_on_c, 8, 62, 48
10, 950640, Note_on_c, 8, 65, 48
10, 950832, Note_off_c, 8, 65, 64
10, 950832, Note_off_c, 8, 62, 64
10, 950880, Note_on_c, 8, 62, 48
10, 950880, Note_on_c, 8, 65, 48
10, 951072, Note_off_c, 8, 65, 64
10, 951072, Note_off_c, 8, 62, 64
10, 951120, Note_on_c, 8, 62, 48
10, 951120, Note_on_c, 8, 65, 48
10, 951312, Note_off_c, 8, 65, 64
10, 951312, Note_off_c, 8, 62, 64
10, 951360, Note_on_c, 8, 62, 48
10, 951360, Note_on_c, 8, 65, 48
10, 951552, Note_off_c, 8, 65, 64
10, 951552, Note_off_c, 8, 62, 64
10, 951600, Note_on_c, 8, 65, 48
10, 951600, Note_on_c, 8, 62, 48
10, 951792, Note_off_c, 8, 62, 64
10, 951792, Note_off_c, 8, 65, 64
10, 951840, Note_on_c, 8, 65, 48
10, 951840, Note_on_c, 8, 62, 48
10, 952032, Note_off_c, 8, 62, 64
10, 952032, Note_off_c, 8, 65, 64
10, 952080, Note_on_c, 8, 65, 48
10, 952080, Note_on_c, 8, 62, 48
10, 952272, Note_off_c, 8, 62, 64
10, 952272, Note_off_c, 8, 65, 64
10, 952320, Note_on_c, 8, 65, 48
10, 952320, Note_on_c, 8, 62, 48
10, 952512, Note_off_c, 8, 62, 64
10, 952512, Note_off_c, 8, 65, 64
10, 952560, Note_on_c, 8, 65, 48
10, 952560, Note_on_c, 8, 62, 48
10, 952752, Note_off_c, 8, 62, 64
10, 952752, Note_off_c, 8, 65, 64
10, 952800, Note_on_c, 8, 63, 48
10, 952800, Note_on_c, 8, 67, 48
10, 952992, Note_off_c, 8, 67, 64
10, 952992, Note_off_c, 8, 63, 64
10, 953040, Note_on_c, 8, 63, 48
10, 953040, Note_on_c, 8, 67, 48
10, 953232, Note_off_c, 8, 67, 64
10, 953232, Note_off_c, 8, 63, 64
10, 953280, Note_on_c, 8, 67, 48
10, 953280, Note_on_c, 8, 63, 48
10, 953472, Note_off_c, 8, 63, 64
10, 953472, Note_off_c, 8, 67, 64
10, 953520, Note_on_c, 8, 67, 48
10, 953520, Note_on_c, 8, 63, 48
10, 953712, Note_off_c, 8, 63, 64
10, 953712, Note_off_c, 8, 67, 64
10, 953760, Note_on_c, 8, 67, 48
10, 953760, Note_on_c, 8, 63, 48
10, 953952, Note_off_c, 8, 63, 64
10, 953952, Note_off_c, 8, 67, 64
10, 954000, Note_on_c, 8, 63, 48
10, 954000, Note_on_c, 8, 67, 48
10, 954192, Note_off_c, 8, 67, 64
10, 954192, Note_off_c, 8, 63, 64
10, 954240, Note_on_c, 8, 67, 48
10, 954240, Note_on_c, 8, 63, 48
10, 954432, Note_off_c, 8, 63, 64
10, 954432, Note_off_c, 8, 67, 64
10, 954480, Note_on_c, 8, 67, 48
10, 954480, Note_on_c, 8, 63, 48
10, 954672, Note_off_c, 8, 63, 64
10, 954672, Note_off_c, 8, 67, 64
10, 954720, Note_on_c, 8, 69, 48
10, 954720, Note_on_c, 8, 65, 48
10, 954912, Note_off_c, 8, 65, 64
10, 954912, Note_off_c, 8, 69, 64
10, 954960, Note_on_c, 8, 69, 48
10, 954960, Note_on_c, 8, 65, 48
10, 955152, Note_off_c, 8, 65, 64
10, 955152, Note_off_c, 8, 69, 64
10, 955200, Note_on_c, 8, 65, 48
10, 955200, Note_on_c, 8, 69, 48
10, 955392, Note_off_c, 8, 69, 64
10, 955392, Note_off_c, 8, 65, 64
10, 955440, Note_on_c, 8, 69, 48
10, 955440, Note_on_c, 8, 65, 48
10, 955632, Note_off_c, 8, 65, 64
10, 955632, Note_off_c, 8, 69, 64
10, 955680, Note_on_c, 8, 69, 48
10, 955680, Note_on_c, 8, 65, 48
10, 955872, Note_off_c, 8, 65, 64
10, 955872, Note_off_c, 8, 69, 64
10, 955920, Note_on_c, 8, 65, 48
10, 955920, Note_on_c, 8, 69, 48
10, 956112, Note_off_c, 8, 69, 64
10, 956112, Note_off_c, 8, 65, 64
10, 956160, Note_on_c, 8, 69, 48
10, 956160, Note_on_c, 8, 65, 48
10, 956352, Note_off_c, 8, 65, 64
10, 956352, Note_off_c, 8, 69, 64
10, 956400, Note_on_c, 8, 65, 48
10, 956400, Note_on_c, 8, 69, 48
10, 956592, Note_off_c, 8, 69, 64
10, 956592, Note_off_c, 8, 65, 64
10, 956640, Note_on_c, 8, 70, 48
10, 956640, Note_on_c, 8, 62, 48
10, 957024, Note_off_c, 8, 62, 64
10, 957024, Note_off_c, 8, 70, 64
10, 957120, Note_on_c, 8, 74, 40
10, 957600, Note_off_c, 8, 74, 64
10, 957600, Note_on_c, 8, 72, 40
10, 958080, Note_off_c, 8, 72, 64
10, 958080, Note_on_c, 8, 70, 40
10, 958560, Note_off_c, 8, 70, 64
10, 958560, Note_on_c, 8, 69, 40
10, 959040, Note_off_c, 8, 69, 64
10, 959040, Note_on_c, 8, 67, 40
10, 959520, Note_off_c, 8, 67, 64
10, 959520, Note_on_c, 8, 65, 40
10, 960000, Note_off_c, 8, 65, 64
10, 960000, Note_on_c, 8, 67, 40
10, 960480, Note_off_c, 8, 67, 64
10, 960480, Note_on_c, 8, 63, 40
10, 964800, Note_off_c, 8, 63, 64
10, 966720, Note_on_c, 8, 63, 68
10, 967488, Note_off_c, 8, 63, 64
10, 967680, Note_on_c, 8, 63, 80
10, 968064, Note_off_c, 8, 63, 64
10, 968160, Note_on_c, 8, 62, 80
10, 968544, Note_off_c, 8, 62, 64
10, 979680, Note_on_c, 8, 60, 127
10, 979920, Note_off_c, 8, 60, 64
10, 979920, Note_on_c, 8, 60, 127
10, 980160, Note_off_c, 8, 60, 64
10, 980160, Note_on_c, 8, 67, 127
10, 980400, Note_off_c, 8, 67, 64
10, 980400, Note_on_c, 8, 67, 127
10, 980640, Note_off_c, 8, 67, 64
10, 980640, Note_on_c, 8, 63, 127
10, 980880, Note_off_c, 8, 63, 64
10, 980880, Note_on_c, 8, 63, 127
10, 981120, Note_off_c, 8, 63, 64
10, 981120, Note_on_c, 8, 62, 127
10, 981360, Note_off_c, 8, 62, 64
10, 981360, Note_on_c, 8, 62, 127
10, 981600, Note_off_c, 8, 62, 64
10, 981600, Note_on_c, 8, 60, 127
10, 981840, Note_off_c, 8, 60, 64
10, 981840, Note_on_c, 8, 60, 127
10, 982080, Note_off_c, 8, 60, 64
10, 982080, Note_on_c, 8, 68, 127
10, 982320, Note_off_c, 8, 68, 64
10, 982320, Note_on_c, 8, 68, 127
10, 982560, Note_off_c, 8, 68, 64
10, 982560, Note_on_c, 8, 63, 127
10, 982800, Note_off_c, 8, 63, 64
10, 982800, Note_on_c, 8, 63, 127
10, 983040, Note_off_c, 8, 63, 64
10, 983040, Note_on_c, 8, 60, 127
10, 983280, Note_off_c, 8, 60, 64
10, 983280, Note_on_c, 8, 60, 127
10, 983520, Note_off_c, 8, 60, 64
10, 983520, Note_on_c, 8, 62, 127
10, 983760, Note_off_c, 8, 62, 64
10, 983760, Note_on_c, 8, 62, 127
10, 984000, Note_off_c, 8, 62, 64
10, 984000, Note_on_c, 8, 68, 127
10, 984240, Note_off_c, 8, 68, 64
10, 984240, Note_on_c, 8, 68, 127
10, 984480, Note_off_c, 8, 68, 64
10, 984480, Note_on_c, 8, 65, 127
10, 984720, Note_off_c, 8, 65, 64
10, 984720, Note_on_c, 8, 65, 127
10, 984960, Note_off_c, 8, 65, 64
10, 984960, Note_on_c, 8, 63, 127
10, 985200, Note_off_c, 8, 63, 64
10, 985200, Note_on_c, 8, 63, 127
10, 985440, Note_off_c, 8, 63, 64
10, 985440, Note_on_c, 8, 62, 127
10, 985680, Note_off_c, 8, 62, 64
10, 985680, Note_on_c, 8, 62, 127
10, 985920, Note_off_c, 8, 62, 64
10, 985920, Note_on_c, 8, 70, 127
10, 986160, Note_off_c, 8, 70, 64
10, 986160, Note_on_c, 8, 70, 127
10, 986400, Note_off_c, 8, 70, 64
10, 986400, Note_on_c, 8, 65, 127
10, 986640, Note_off_c, 8, 65, 64
10, 986640, Note_on_c, 8, 65, 127
10, 986880, Note_off_c, 8, 65, 64
10, 986880, Note_on_c, 8, 62, 127
10, 987120, Note_off_c, 8, 62, 64
10, 987120, Note_on_c, 8, 62, 127
10, 987360, Note_off_c, 8, 62, 64
10, 987360, Note_on_c, 8, 63, 127
10, 987600, Note_off_c, 8, 63, 64
10, 987600, Note_on_c, 8, 63, 127
10, 987840, Note_off_c, 8, 63, 64
10, 987840, Note_on_c, 8, 67, 127
10, 988080, Note_off_c, 8, 67, 64
10, 988080, Note_on_c, 8, 67, 127
10, 988320, Note_off_c, 8, 67, 64
10, 988320, Note_on_c, 8, 64, 127
10, 988560, Note_off_c, 8, 64, 64
10, 988560, Note_on_c, 8, 64, 127
10, 988800, Note_off_c, 8, 64, 64
10, 988800, Note_on_c, 8, 72, 127
10, 989040, Note_off_c, 8, 72, 64
10, 989040, Note_on_c, 8, 72, 127
10, 989280, Note_off_c, 8, 72, 64
10, 989280, Note_on_c, 8, 65, 127
10, 989520, Note_off_c, 8, 65, 64
10, 989520, Note_on_c, 8, 65, 127
10, 989760, Note_off_c, 8, 65, 64
10, 989760, Note_on_c, 8, 69, 127
10, 990000, Note_off_c, 8, 69, 64
10, 990000, Note_on_c, 8, 69, 127
10, 990240, Note_off_c, 8, 69, 64
10, 990240, Note_on_c, 8, 66, 127
10, 990480, Note_off_c, 8, 66, 64
10, 990480, Note_on_c, 8, 66, 127
10, 990720, Note_off_c, 8, 66, 64
10, 990720, Note_on_c, 8, 74, 127
10, 990960, Note_off_c, 8, 74, 64
10, 990960, Note_on_c, 8, 74, 127
10, 991200, Note_off_c, 8, 74, 64
10, 991200, Note_on_c, 8, 67, 127
10, 991440, Note_off_c, 8, 67, 64
10, 991440, Note_on_c, 8, 67, 127
10, 991680, Note_off_c, 8, 67, 64
10, 991680, Note_on_c, 8, 70, 127
10, 991920, Note_off_c, 8, 70, 64
10, 991920, Note_on_c, 8, 70, 127
10, 992160, Note_off_c, 8, 70, 64
10, 992160, Note_on_c, 8, 67, 127
10, 992400, Note_off_c, 8, 67, 64
10, 992400, Note_on_c, 8, 67, 127
10, 992640, Note_off_c, 8, 67, 64
10, 992640, Note_on_c, 8, 75, 127
10, 992880, Note_off_c, 8, 75, 64
10, 992880, Note_on_c, 8, 75, 127
10, 993120, Note_off_c, 8, 75, 64
10, 993120, Note_on_c, 8, 68, 127
10, 993360, Note_off_c, 8, 68, 64
10, 993360, Note_on_c, 8, 68, 127
10, 993600, Note_off_c, 8, 68, 64
10, 993600, Note_on_c, 8, 72, 127
10, 993840, Note_off_c, 8, 72, 64
10, 993840, Note_on_c, 8, 72, 127
10, 994080, Note_off_c, 8, 72, 64
10, 994080, Note_on_c, 8, 69, 127
10, 994320, Note_off_c, 8, 69, 64
10, 994320, Note_on_c, 8, 69, 127
10, 994560, Note_off_c, 8, 69, 64
10, 994560, Note_on_c, 8, 77, 127
10, 994800, Note_off_c, 8, 77, 64
10, 994800, Note_on_c, 8, 77, 127
10, 995040, Note_off_c, 8, 77, 64
10, 995040, Note_on_c, 8, 70, 120
10, 995232, Note_off_c, 8, 70, 64
10, 995280, Note_on_c, 8, 70, 120
10, 995472, Note_off_c, 8, 70, 64
10, 995520, Note_on_c, 8, 72, 120
10, 995712, Note_off_c, 8, 72, 64
10, 995760, Note_on_c, 8, 72, 120
10, 995952, Note_off_c, 8, 72, 64
10, 996000, Note_on_c, 8, 74, 120
10, 996192, Note_off_c, 8, 74, 64
10, 996240, Note_on_c, 8, 74, 120
10, 996432, Note_off_c, 8, 74, 64
10, 996480, Note_on_c, 8, 75, 120
10, 996672, Note_off_c, 8, 75, 64
10, 996720, Note_on_c, 8, 75, 120
10, 996912, Note_off_c, 8, 75, 64
10, 996960, Note_on_c, 8, 77, 120
10, 997152, Note_off_c, 8, 77, 64
10, 997200, Note_on_c, 8, 77, 120
10, 997392, Note_off_c, 8, 77, 64
10, 997440, Note_on_c, 8, 75, 120
10, 997632, Note_off_c, 8, 75, 64
10, 997680, Note_on_c, 8, 75, 120
10, 997872, Note_off_c, 8, 75, 64
10, 997920, Note_on_c, 8, 74, 120
10, 998112, Note_off_c, 8, 74, 64
10, 998160, Note_on_c, 8, 74, 120
10, 998352, Note_off_c, 8, 74, 64
10, 998400, Note_on_c, 8, 72, 120
10, 998592, Note_off_c, 8, 72, 64
10, 998640, Note_on_c, 8, 72, 120
10, 998832, Note_off_c, 8, 72, 64
10, 998880, Note_on_c, 8, 70, 120
10, 999072, Note_off_c, 8, 70, 64
10, 999120, Note_on_c, 8, 70, 120
10, 999312, Note_off_c, 8, 70, 64
10, 999360, Note_on_c, 8, 69, 120
10, 999552, Note_off_c, 8, 69, 64
10, 999600, Note_on_c, 8, 69, 120
10, 999792, Note_off_c, 8, 69, 64
10, 999840, Note_on_c, 8, 67, 120
10, 1000032, Note_off_c, 8, 67, 64
10, 1000080, Note_on_c, 8, 67, 120
10, 1000272, Note_off_c, 8, 67, 64
10, 1000320, Note_on_c, 8, 65, 120
10, 1000512, Note_off_c, 8, 65, 64
10, 1000560, Note_on_c, 8, 65, 120
10, 1000752, Note_off_c, 8, 65, 64
10, 1000800, Note_on_c, 8, 63, 120
10, 1000992, Note_off_c, 8, 63, 64
10, 1001040, Note_on_c, 8, 63, 120
10, 1001232, Note_off_c, 8, 63, 64
10, 1001280, Note_on_c, 8, 62, 120
10, 1001472, Note_off_c, 8, 62, 64
10, 1001520, Note_on_c, 8, 62, 120
10, 1001712, Note_off_c, 8, 62, 64
10, 1001760, Note_on_c, 8, 60, 120
10, 1001952, Note_off_c, 8, 60, 64
10, 1002000, Note_on_c, 8, 60, 120
10, 1002192, Note_off_c, 8, 60, 64
10, 1002240, Note_on_c, 8, 58, 120
10, 1002432, Note_off_c, 8, 58, 64
10, 1002480, Note_on_c, 8, 58, 120
10, 1002672, Note_off_c, 8, 58, 64
10, 1008960, Note_on_c, 8, 64, 125
10, 1009920, Note_off_c, 8, 64, 64
10, 1009920, Note_on_c, 8, 65, 96
10, 1010256, Note_off_c, 8, 65, 64
10, 1010400, Note_on_c, 8, 65, 127
10, 1010736, Note_off_c, 8, 65, 64
10, 1010880, Note_on_c, 8, 72, 96
10, 1011648, Note_off_c, 8, 72, 64
10, 1011840, Note_on_c, 8, 73, 96
10, 1012704, Note_off_c, 8, 73, 64
10, 1012800, Note_on_c, 8, 75, 96
10, 1013568, Note_off_c, 8, 75, 64
10, 1013760, Note_on_c, 8, 70, 96
10, 1014624, Note_off_c, 8, 70, 64
10, 1014720, Note_on_c, 8, 72, 96
10, 1015488, Note_off_c, 8, 72, 64
10, 1015680, Note_on_c, 8, 73, 96
10, 1016544, Note_off_c, 8, 73, 64
10, 1016640, Note_on_c, 8, 73, 125
10, 1017600, Note_off_c, 8, 73, 64
10, 1017600, Note_on_c, 8, 72, 96
10, 1017984, Note_off_c, 8, 72, 64
10, 1018080, Note_on_c, 8, 65, 80
10, 1024800, Note_off_c, 8, 65, 64
10, 1024800, Note_on_c, 8, 63, 45
10, 1025250, Note_off_c, 8, 63, 64
10, 1025280, Note_on_c, 8, 60, 45
10, 1025730, Note_off_c, 8, 60, 64
10, 1025760, Note_on_c, 8, 58, 34
10, 1037280, Note_off_c, 8, 58, 64
10, 1037280, Note_on_c, 8, 57, 42
10, 1037472, Note_off_c, 8, 57, 64
10, 1037760, Note_on_c, 8, 57, 42
10, 1037952, Note_off_c, 8, 57, 64
10, 1038240, Note_on_c, 8, 62, 42
10, 1038432, Note_off_c, 8, 62, 64
10, 1039680, Note_on_c, 8, 58, 42
10, 1039872, Note_off_c, 8, 58, 64
10, 1040160, Note_on_c, 8, 62, 42
10, 1040352, Note_off_c, 8, 62, 64
10, 1041600, Note_on_c, 8, 60, 42
10, 1041792, Note_off_c, 8, 60, 64
10, 1042080, Note_on_c, 8, 62, 42
10, 1042272, Note_off_c, 8, 62, 64
10, 1043520, Note_on_c, 8, 58, 42
10, 1043712, Note_off_c, 8, 58, 64
10, 1044000, Note_on_c, 8, 62, 42
10, 1044192, Note_off_c, 8, 62, 64
10, 1044960, Note_on_c, 8, 57, 37
10, 1046880, Note_off_c, 8, 57, 64
10, 1046880, Note_on_c, 8, 58, 37
10, 1048800, Note_off_c, 8, 58, 64
10, 1048800, Note_on_c, 8, 60, 37
10, 1050720, Note_off_c, 8, 60, 64
10, 1050720, Note_on_c, 8, 58, 37
10, 1052640, Note_off_c, 8, 58, 64
10, 1073760, Note_on_c, 8, 65, 92
10, 1074240, Note_off_c, 8, 65, 64
10, 1074720, Note_on_c, 8, 65, 96
10, 1074720, Note_on_c, 8, 72, 96
10, 1075200, Note_off_c, 8, 72, 64
10, 1075200, Note_off_c, 8, 65, 64
10, 1075680, Note_on_c, 8, 72, 92
10, 1075680, Note_on_c, 8, 65, 92
10, 1076160, Note_off_c, 8, 65, 64
10, 1076160, Note_off_c, 8, 72, 64
10, 1076640, Note_on_c, 8, 65, 96
10, 1076640, Note_on_c, 8, 72, 96
10, 1077120, Note_off_c, 8, 72, 64
10, 1077120, Note_off_c, 8, 65, 64
10, 1077600, Note_on_c, 8, 72, 92
10, 1077600, Note_on_c, 8, 65, 92
10, 1078080, Note_off_c, 8, 65, 64
10, 1078080, Note_off_c, 8, 72, 64
10, 1078560, Note_on_c, 8, 72, 96
10, 1078560, Note_on_c, 8, 65, 96
10, 1079040, Note_off_c, 8, 65, 64
10, 1079040, Note_off_c, 8, 72, 64
10, 1079520, Note_on_c, 8, 62, 80
10, 1079808, Note_off_c, 8, 62, 64
10, 1080000, Note_on_c, 8, 70, 80
10, 1080768, Note_off_c, 8, 70, 64
10, 1080960, Note_on_c, 8, 70, 80
10, 1081248, Note_off_c, 8, 70, 64
10, 1081440, Note_on_c, 8, 70, 80
10, 1081728, Note_off_c, 8, 70, 64
10, 1081920, Note_on_c, 8, 67, 80
10, 1082688, Note_off_c, 8, 67, 64
10, 1082880, Note_on_c, 8, 72, 80
10, 1083168, Note_off_c, 8, 72, 64
10, 1083360, Note_on_c, 8, 70, 80
10, 1083648, Note_off_c, 8, 70, 64
10, 1083840, Note_on_c, 8, 65, 80
10, 1084608, Note_off_c, 8, 65, 64
10, 1084800, Note_on_c, 8, 70, 80
10, 1084800, Note_on_c, 8, 65, 80
10, 1085088, Note_off_c, 8, 65, 64
10, 1085088, Note_off_c, 8, 70, 64
10, 1085280, Note_on_c, 8, 65, 80
10, 1085568, Note_off_c, 8, 65, 64
10, 1085760, Note_on_c, 8, 69, 80
10, 1085760, Note_on_c, 8, 65, 80
10, 1086048, Note_off_c, 8, 65, 64
10, 1086048, Note_off_c, 8, 69, 64
10, 1086240, Note_on_c, 8, 69, 80
10, 1086240, Note_on_c, 8, 65, 80
10, 1086528, Note_off_c, 8, 65, 64
10, 1086528, Note_off_c, 8, 69, 64
10, 1086720, Note_on_c, 8, 69, 80
10, 1086720, Note_on_c, 8, 65, 80
10, 1087008, Note_off_c, 8, 65, 64
10, 1087008, Note_off_c, 8, 69, 64
10, 1087200, Note_on_c, 8, 70, 80
10, 1087200, Note_on_c, 8, 65, 80
10, 1087680, Note_off_c, 8, 65, 64
10, 1087680, Note_off_c, 8, 70, 64
10, 1087680, Note_on_c, 8, 65, 80
10, 1087920, Note_off_c, 8, 65, 64
10, 1088160, Note_on_c, 8, 67, 80
10, 1088640, Note_off_c, 8, 67, 64
10, 1088640, Note_on_c, 8, 72, 80
10, 1088880, Note_off_c, 8, 72, 64
10, 1089120, Note_on_c, 8, 65, 80
10, 1089600, Note_off_c, 8, 65, 64
10, 1089600, Note_on_c, 8, 70, 80
10, 1089840, Note_off_c, 8, 70, 64
10, 1090080, Note_on_c, 8, 63, 80
10, 1090560, Note_off_c, 8, 63, 64
10, 1090560, Note_on_c, 8, 69, 80
10, 1090800, Note_off_c, 8, 69, 64
10, 1091040, Note_on_c, 8, 62, 56
10, 1091424, Note_off_c, 8, 62, 64
10, 1110240, Note_on_c, 8, 62, 104
10, 1110432, Note_off_c, 8, 62, 64
10, 1110480, Note_on_c, 8, 62, 104
10, 1110672, Note_off_c, 8, 62, 64
10, 1110720, Note_on_c, 8, 58, 104
10, 1110912, Note_off_c, 8, 58, 64
10, 1110960, Note_on_c, 8, 58, 104
10, 1111152, Note_off_c, 8, 58, 64
10, 1111200, Note_on_c, 8, 62, 104
10, 1111392, Note_off_c, 8, 62, 64
10, 1111440, Note_on_c, 8, 62, 104
10, 1111632, Note_off_c, 8, 62, 64
10, 1111680, Note_on_c, 8, 63, 104
10, 1111872, Note_off_c, 8, 63, 64
10, 1111920, Note_on_c, 8, 63, 104
10, 1112112, Note_off_c, 8, 63, 64
10, 1112160, Note_on_c, 8, 65, 104
10, 1113542, Note_off_c, 8, 65, 64
10, 1113600, Note_on_c, 8, 67, 104
10, 1113792, Note_off_c, 8, 67, 64
10, 1113840, Note_on_c, 8, 67, 104
10, 1114032, Note_off_c, 8, 67, 64
10, 1114080, Note_on_c, 8, 69, 104
10, 1114272, Note_off_c, 8, 69, 64
10, 1114320, Note_on_c, 8, 69, 104
10, 1114512, Note_off_c, 8, 69, 64
10, 1114560, Note_on_c, 8, 70, 104
10, 1114752, Note_off_c, 8, 70, 64
10, 1114800, Note_on_c, 8, 70, 104
10, 1114992, Note_off_c, 8, 70, 64
10, 1115040, Note_on_c, 8, 72, 104
10, 1115232, Note_off_c, 8, 72, 64
10, 1115280, Note_on_c, 8, 72, 104
10, 1115472, Note_off_c, 8, 72, 64
10, 1115520, Note_on_c, 8, 70, 104
10, 1115712, Note_off_c, 8, 70, 64
10, 1115760, Note_on_c, 8, 70, 104
10, 1115952, Note_off_c, 8, 70, 64
10, 1116000, Note_on_c, 8, 69, 104
10, 1117382, Note_off_c, 8, 69, 64
10, 1117440, Note_on_c, 8, 67, 104
10, 1117632, Note_off_c, 8, 67, 64
10, 1117680, Note_on_c, 8, 67, 104
10, 1117872, Note_off_c, 8, 67, 64
10, 1117920, Note_on_c, 8, 65, 104
10, 1118112, Note_off_c, 8, 65, 64
10, 1118160, Note_on_c, 8, 65, 104
10, 1118352, Note_off_c, 8, 65, 64
10, 1118400, Note_on_c, 8, 67, 104
10, 1118592, Note_off_c, 8, 67, 64
10, 1118640, Note_on_c, 8, 67, 104
10, 1118832, Note_off_c, 8, 67, 64
10, 1118880, Note_on_c, 8, 63, 104
10, 1119072, Note_off_c, 8, 63, 64
10, 1119120, Note_on_c, 8, 63, 104
10, 1119312, Note_off_c, 8, 63, 64
10, 1119360, Note_on_c, 8, 60, 104
10, 1119552, Note_off_c, 8, 60, 64
10, 1119600, Note_on_c, 8, 60, 104
10, 1119792, Note_off_c, 8, 60, 64
10, 1119840, Note_on_c, 8, 57, 104
10, 1121760, Note_off_c, 8, 57, 64
10, 1125600, Note_on_c, 8, 75, 40
10, 1125792, Note_off_c, 8, 75, 64
10, 1125840, Note_on_c, 8, 75, 40
10, 1126032, Note_off_c, 8, 75, 64
10, 1126080, Note_on_c, 8, 75, 40
10, 1126272, Note_off_c, 8, 75, 64
10, 1126320, Note_on_c, 8, 75, 40
10, 1126512, Note_off_c, 8, 75, 64
10, 1126560, Note_on_c, 8, 75, 40
10, 1126752, Note_off_c, 8, 75, 64
10, 1126800, Note_on_c, 8, 75, 40
10, 1126992, Note_off_c, 8, 75, 64
10, 1127040, Note_on_c, 8, 75, 40
10, 1127232, Note_off_c, 8, 75, 64
10, 1127280, Note_on_c, 8, 75, 40
10, 1127472, Note_off_c, 8, 75, 64
10, 1127520, Note_on_c, 8, 75, 40
10, 1127712, Note_off_c, 8, 75, 64
10, 1127760, Note_on_c, 8, 75, 40
10, 1127952, Note_off_c, 8, 75, 64
10, 1128000, Note_on_c, 8, 75, 40
10, 1128192, Note_off_c, 8, 75, 64
10, 1128240, Note_on_c, 8, 75, 40
10, 1128432, Note_off_c, 8, 75, 64
10, 1128480, Note_on_c, 8, 75, 40
10, 1128672, Note_off_c, 8, 75, 64
10, 1128720, Note_on_c, 8, 75, 40
10, 1128912, Note_off_c, 8, 75, 64
10, 1128960, Note_on_c, 8, 75, 40
10, 1129152, Note_off_c, 8, 75, 64
10, 1129200, Note_on_c, 8, 75, 40
10, 1129392, Note_off_c, 8, 75, 64
10, 1129440, Note_on_c, 8, 74, 127
10, 1129440, Note_on_c, 8, 62, 127
10, 1129680, Note_off_c, 8, 62, 64
10, 1129680, Note_off_c, 8, 74, 64
10, 1130880, Note_on_c, 8, 58, 127
10, 1130880, Note_on_c, 8, 67, 127
10, 1131120, Note_off_c, 8, 67, 64
10, 1131120, Note_off_c, 8, 58, 64
10, 1131360, Note_on_c, 8, 58, 127
10, 1131360, Note_on_c, 8, 67, 127
10, 1131600, Note_off_c, 8, 67, 64
10, 1131600, Note_off_c, 8, 58, 64
10, 1132320, Note_on_c, 8, 57, 127
10, 1132320, Note_on_c, 8, 65, 127
10, 1132560, Note_off_c, 8, 65, 64
10, 1132560, Note_off_c, 8, 57, 64
10, 1133280, Note_on_c, 8, 75, 40
10, 1133472, Note_off_c, 8, 75, 64
10, 1133520, Note_on_c, 8, 75, 40
10, 1133712, Note_off_c, 8, 75, 64
10, 1133760, Note_on_c, 8, 75, 40
10, 1133952, Note_off_c, 8, 75, 64
10, 1134000, Note_on_c, 8, 75, 40
10, 1134192, Note_off_c, 8, 75, 64
10, 1134240, Note_on_c, 8, 75, 40
10, 1134432, Note_off_c, 8, 75, 64
10, 1134480, Note_on_c, 8, 75, 40
10, 1134672, Note_off_c, 8, 75, 64
10, 1134720, Note_on_c, 8, 75, 40
10, 1134912, Note_off_c, 8, 75, 64
10, 1134960, Note_on_c, 8, 75, 40
10, 1135152, Note_off_c, 8, 75, 64
10, 1135200, Note_on_c, 8, 75, 40
10, 1135392, Note_off_c, 8, 75, 64
10, 1135440, Note_on_c, 8, 75, 40
10, 1135632, Note_off_c, 8, 75, 64
10, 1135680, Note_on_c, 8, 75, 40
10, 1135872, Note_off_c, 8, 75, 64
10, 1135920, Note_on_c, 8, 75, 40
10, 1136112, Note_off_c, 8, 75, 64
10, 1136160, Note_on_c, 8, 75, 40
10, 1136352, Note_off_c, 8, 75, 64
10, 1136400, Note_on_c, 8, 75, 40
10, 1136592, Note_off_c, 8, 75, 64
10, 1136640, Note_on_c, 8, 75, 40
10, 1136832, Note_off_c, 8, 75, 64
10, 1136880, Note_on_c, 8, 75, 40
10, 1137072, Note_off_c, 8, 75, 64
10, 1137120, Note_on_c, 8, 74, 127
10, 1137120, Note_on_c, 8, 62, 127
10, 1137360, Note_off_c, 8, 62, 64
10, 1137360, Note_off_c, 8, 74, 64
10, 1138560, Note_on_c, 8, 67, 127
10, 1138560, Note_on_c, 8, 58, 127
10, 1138800, Note_off_c, 8, 58, 64
10, 1138800, Note_off_c, 8, 67, 64
10, 1139040, Note_on_c, 8, 58, 127
10, 1139040, Note_on_c, 8, 67, 127
10, 1139280, Note_off_c, 8, 67, 64
10, 1139280, Note_off_c, 8, 58, 64
10, 1140000, Note_on_c, 8, 65, 127
10, 1140000, Note_on_c, 8, 57, 127
10, 1140240, Note_off_c, 8, 57, 64
10, 1140240, Note_off_c, 8, 65, 64
10, 1140960, Note_on_c, 8, 73, 32
10, 1141152, Note_off_c, 8, 73, 64
10, 1141200, Note_on_c, 8, 73, 33
10, 1141392, Note_off_c, 8, 73, 64
10, 1141440, Note_on_c, 8, 73, 35
10, 1141632, Note_off_c, 8, 73, 64
10, 1141680, Note_on_c, 8, 73, 36
10, 1141872, Note_off_c, 8, 73, 64
10, 1141920, Note_on_c, 8, 73, 38
10, 1142112, Note_off_c, 8, 73, 64
10, 1142160, Note_on_c, 8, 73, 39
10, 1142352, Note_off_c, 8, 73, 64
10, 1142400, Note_on_c, 8, 73, 41
10, 1142592, Note_off_c, 8, 73, 64
10, 1142640, Note_on_c, 8, 73, 42
10, 1142832, Note_off_c, 8, 73, 64
10, 1142880, Note_on_c, 8, 73, 43
10, 1143072, Note_off_c, 8, 73, 64
10, 1143120, Note_on_c, 8, 73, 45
10, 1143312, Note_off_c, 8, 73, 64
10, 1143360, Note_on_c, 8, 73, 46
10, 1143552, Note_off_c, 8, 73, 64
10, 1143600, Note_on_c, 8, 73, 48
10, 1143792, Note_off_c, 8, 73, 64
10, 1143840, Note_on_c, 8, 73, 49
10, 1144032, Note_off_c, 8, 73, 64
10, 1144080, Note_on_c, 8, 73, 50
10, 1144272, Note_off_c, 8, 73, 64
10, 1144320, Note_on_c, 8, 73, 52
10, 1144512, Note_off_c, 8, 73, 64
10, 1144560, Note_on_c, 8, 73, 53
10, 1144752, Note_off_c, 8, 73, 64
10, 1144800, Note_on_c, 8, 73, 75
10, 1144992, Note_off_c, 8, 73, 64
10, 1145040, Note_on_c, 8, 73, 56
10, 1145232, Note_off_c, 8, 73, 64
10, 1145280, Note_on_c, 8, 73, 58
10, 1145472, Note_off_c, 8, 73, 64
10, 1145520, Note_on_c, 8, 73, 59
10, 1145712, Note_off_c, 8, 73, 64
10, 1145760, Note_on_c, 8, 73, 60
10, 1145952, Note_off_c, 8, 73, 64
10, 1146000, Note_on_c, 8, 73, 62
10, 1146192, Note_off_c, 8, 73, 64
10, 1146240, Note_on_c, 8, 73, 63
10, 1146432, Note_off_c, 8, 73, 64
10, 1146480, Note_on_c, 8, 73, 65
10, 1146672, Note_off_c, 8, 73, 64
10, 1146720, Note_on_c, 8, 65, 66
10, 1146720, Note_on_c, 8, 74, 86
10, 1146912, Note_off_c, 8, 74, 64
10, 1146912, Note_off_c, 8, 65, 64
10, 1146960, Note_on_c, 8, 65, 67
10, 1146960, Note_on_c, 8, 74, 67
10, 1147152, Note_off_c, 8, 74, 64
10, 1147152, Note_off_c, 8, 65, 64
10, 1147200, Note_on_c, 8, 65, 69
10, 1147200, Note_on_c, 8, 74, 69
10, 1147392, Note_off_c, 8, 74, 64
10, 1147392, Note_off_c, 8, 65, 64
10, 1147440, Note_on_c, 8, 65, 70
10, 1147440, Note_on_c, 8, 74, 70
10, 1147632, Note_off_c, 8, 74, 64
10, 1147632, Note_off_c, 8, 65, 64
10, 1147680, Note_on_c, 8, 74, 72
10, 1147680, Note_on_c, 8, 65, 72
10, 1147872, Note_off_c, 8, 65, 64
10, 1147872, Note_off_c, 8, 74, 64
10, 1147920, Note_on_c, 8, 65, 73
10, 1147920, Note_on_c, 8, 74, 73
10, 1148112, Note_off_c, 8, 74, 64
10, 1148112, Note_off_c, 8, 65, 64
10, 1148160, Note_on_c, 8, 65, 75
10, 1148160, Note_on_c, 8, 74, 75
10, 1148352, Note_off_c, 8, 74, 64
10, 1148352, Note_off_c, 8, 65, 64
10, 1148400, Note_on_c, 8, 65, 76
10, 1148400, Note_on_c, 8, 74, 76
10, 1148592, Note_off_c, 8, 74, 64
10, 1148592, Note_off_c, 8, 65, 64
10, 1148640, Note_on_c, 8, 64, 77
10, 1148640, Note_on_c, 8, 73, 97
10, 1148832, Note_off_c, 8, 73, 64
10, 1148832, Note_off_c, 8, 64, 64
10, 1148880, Note_on_c, 8, 64, 79
10, 1148880, Note_on_c, 8, 73, 79
10, 1149072, Note_off_c, 8, 73, 64
10, 1149072, Note_off_c, 8, 64, 64
10, 1149120, Note_on_c, 8, 64, 80
10, 1149120, Note_on_c, 8, 73, 80
10, 1149312, Note_off_c, 8, 73, 64
10, 1149312, Note_off_c, 8, 64, 64
10, 1149360, Note_on_c, 8, 64, 82
10, 1149360, Note_on_c, 8, 73, 82
10, 1149552, Note_off_c, 8, 73, 64
10, 1149552, Note_off_c, 8, 64, 64
10, 1149600, Note_on_c, 8, 73, 83
10, 1149600, Note_on_c, 8, 64, 83
10, 1149792, Note_off_c, 8, 64, 64
10, 1149792, Note_off_c, 8, 73, 64
10, 1149840, Note_on_c, 8, 64, 84
10, 1149840, Note_on_c, 8, 73, 84
10, 1150032, Note_off_c, 8, 73, 64
10, 1150032, Note_off_c, 8, 64, 64
10, 1150080, Note_on_c, 8, 64, 86
10, 1150080, Note_on_c, 8, 73, 86
10, 1150272, Note_off_c, 8, 73, 64
10, 1150272, Note_off_c, 8, 64, 64
10, 1150320, Note_on_c, 8, 64, 87
10, 1150320, Note_on_c, 8, 73, 87
10, 1150512, Note_off_c, 8, 73, 64
10, 1150512, Note_off_c, 8, 64, 64
10, 1150560, Note_on_c, 8, 63, 89
10, 1150560, Note_on_c, 8, 72, 109
10, 1150752, Note_off_c, 8, 72, 64
10, 1150752, Note_off_c, 8, 63, 64
10, 1150800, Note_on_c, 8, 63, 90
10, 1150800, Note_on_c, 8, 72, 90
10, 1150992, Note_off_c, 8, 72, 64
10, 1150992, Note_off_c, 8, 63, 64
10, 1151040, Note_on_c, 8, 72, 92
10, 1151040, Note_on_c, 8, 63, 92
10, 1151232, Note_off_c, 8, 63, 64
10, 1151232, Note_off_c, 8, 72, 64
10, 1151280, Note_on_c, 8, 63, 93
10, 1151280, Note_on_c, 8, 72, 93
10, 1151472, Note_off_c, 8, 72, 64
10, 1151472, Note_off_c, 8, 63, 64
10, 1151520, Note_on_c, 8, 63, 94
10, 1151520, Note_on_c, 8, 72, 94
10, 1151712, Note_off_c, 8, 72, 64
10, 1151712, Note_off_c, 8, 63, 64
10, 1151760, Note_on_c, 8, 72, 96
10, 1151760, Note_on_c, 8, 63, 96
10, 1151952, Note_off_c, 8, 63, 64
10, 1151952, Note_off_c, 8, 72, 64
10, 1152000, Note_on_c, 8, 63, 97
10, 1152000, Note_on_c, 8, 72, 97
10, 1152192, Note_off_c, 8, 72, 64
10, 1152192, Note_off_c, 8, 63, 64
10, 1152240, Note_on_c, 8, 72, 99
10, 1152240, Note_on_c, 8, 63, 99
10, 1152432, Note_off_c, 8, 63, 64
10, 1152432, Note_off_c, 8, 72, 64
10, 1152480, Note_on_c, 8, 61, 127
10, 1152672, Note_off_c, 8, 61, 64
10, 1152720, Note_on_c, 8, 73, 127
10, 1152912, Note_off_c, 8, 73, 64
10, 1152960, Note_on_c, 8, 73, 127
10, 1153152, Note_off_c, 8, 73, 64
10, 1153200, Note_on_c, 8, 73, 127
10, 1153392, Note_off_c, 8, 73, 64
10, 1153440, Note_on_c, 8, 73, 127
10, 1153632, Note_off_c, 8, 73, 64
10, 1153680, Note_on_c, 8, 73, 127
10, 1153872, Note_off_c, 8, 73, 64
10, 1153920, Note_on_c, 8, 73, 127
10, 1154112, Note_off_c, 8, 73, 64
10, 1154160, Note_on_c, 8, 73, 127
10, 1154352, Note_off_c, 8, 73, 64
10, 1154400, Note_on_c, 8, 73, 127
10, 1154592, Note_off_c, 8, 73, 64
10, 1154640, Note_on_c, 8, 73, 127
10, 1154832, Note_off_c, 8, 73, 64
10, 1154880, Note_on_c, 8, 73, 127
10, 1155072, Note_off_c, 8, 73, 64
10, 1155120, Note_on_c, 8, 73, 127
10, 1155312, Note_off_c, 8, 73, 64
10, 1155360, Note_on_c, 8, 73, 127
10, 1155552, Note_off_c, 8, 73, 64
10, 1155600, Note_on_c, 8, 73, 127
10, 1155792, Note_off_c, 8, 73, 64
10, 1155840, Note_on_c, 8, 73, 127
10, 1156032, Note_off_c, 8, 73, 64
10, 1156080, Note_on_c, 8, 73, 127
10, 1156272, Note_off_c, 8, 73, 64
10, 1156320, Note_on_c, 8, 74, 127
10, 1156512, Note_off_c, 8, 74, 64
10, 1156560, Note_on_c, 8, 74, 127
10, 1156752, Note_off_c, 8, 74, 64
10, 1156800, Note_on_c, 8, 74, 127
10, 1156992, Note_off_c, 8, 74, 64
10, 1157040, Note_on_c, 8, 74, 127
10, 1157232, Note_off_c, 8, 74, 64
10, 1157280, Note_on_c, 8, 74, 127
10, 1157472, Note_off_c, 8, 74, 64
10, 1157520, Note_on_c, 8, 74, 127
10, 1157712, Note_off_c, 8, 74, 64
10, 1157760, Note_on_c, 8, 74, 127
10, 1157952, Note_off_c, 8, 74, 64
10, 1158000, Note_on_c, 8, 74, 127
10, 1158192, Note_off_c, 8, 74, 64
10, 1158240, Note_on_c, 8, 72, 127
10, 1158432, Note_off_c, 8, 72, 64
10, 1158480, Note_on_c, 8, 72, 127
10, 1158672, Note_off_c, 8, 72, 64
10, 1158720, Note_on_c, 8, 72, 127
10, 1158912, Note_off_c, 8, 72, 64
10, 1158960, Note_on_c, 8, 72, 127
10, 1159152, Note_off_c, 8, 72, 64
10, 1159200, Note_on_c, 8, 72, 127
10, 1159392, Note_off_c, 8, 72, 64
10, 1159440, Note_on_c, 8, 72, 127
10, 1159632, Note_off_c, 8, 72, 64
10, 1159680, Note_on_c, 8, 72, 127
10, 1159872, Note_off_c, 8, 72, 64
10, 1159920, Note_on_c, 8, 72, 127
10, 1160112, Note_off_c, 8, 72, 64
10, 1160160, Note_on_c, 8, 70, 127
10, 1160544, Note_off_c, 8, 70, 64
10, 1175040, Note_on_c, 8, 69, 112
10, 1175280, Note_off_c, 8, 69, 64
10, 1175520, Note_on_c, 8, 70, 112
10, 1175760, Note_off_c, 8, 70, 64
10, 1176000, Note_on_c, 8, 72, 112
10, 1176912, Note_off_c, 8, 72, 64
10, 1176960, Note_on_c, 8, 74, 112
10, 1177896, Note_off_c, 8, 74, 64
10, 1177920, Note_on_c, 8, 65, 112
10, 1178832, Note_off_c, 8, 65, 64
10, 1178880, Note_on_c, 8, 69, 112
10, 1179120, Note_off_c, 8, 69, 64
10, 1179360, Note_on_c, 8, 69, 112
10, 1182180, Note_off_c, 8, 69, 64
10, 1183200, Note_on_c, 8, 69, 127
10, 1183392, Note_off_c, 8, 69, 64
10, 1185120, Note_on_c, 8, 69, 127
10, 1185312, Note_off_c, 8, 69, 64
10, 1187040, Note_on_c, 8, 69, 127
10, 1187232, Note_off_c, 8, 69, 64
10, 1188000, Note_on_c, 8, 69, 127
10, 1188192, Note_off_c, 8, 69, 64
10, 1188960, Note_on_c, 8, 69, 127
10, 1189152, Note_off_c, 8, 69, 64
10, 1189920, Note_on_c, 8, 69, 127
10, 1190112, Note_off_c, 8, 69, 64
10, 1190880, Note_on_c, 8, 70, 127
10, 1191072, Note_off_c, 8, 70, 64
10, 1191360, Note_on_c, 8, 70, 80
10, 1191552, Note_off_c, 8, 70, 64
10, 1192320, Note_on_c, 8, 74, 80
10, 1192512, Note_off_c, 8, 74, 64
10, 1192800, Note_on_c, 8, 70, 100
10, 1192992, Note_off_c, 8, 70, 64
10, 1193280, Note_on_c, 8, 65, 80
10, 1193472, Note_off_c, 8, 65, 64
10, 1194240, Note_on_c, 8, 70, 80
10, 1194432, Note_off_c, 8, 70, 64
10, 1194720, Note_on_c, 8, 65, 100
10, 1194912, Note_off_c, 8, 65, 64
10, 1195200, Note_on_c, 8, 62, 80
10, 1195392, Note_off_c, 8, 62, 64
10, 1196160, Note_on_c, 8, 65, 80
10, 1196352, Note_off_c, 8, 65, 64
10, 1196640, Note_on_c, 8, 62, 100
10, 1196832, Note_off_c, 8, 62, 64
10, 1197120, Note_on_c, 8, 58, 80
10, 1197312, Note_off_c, 8, 58, 64
10, 1198320, Note_on_c, 8, 74, 80
10, 1198440, Note_off_c, 8, 74, 64
10, 1198440, Note_on_c, 8, 75, 80
10, 1198560, Note_off_c, 8, 75, 64
10, 1198560, Note_on_c, 8, 77, 100
10, 1198752, Note_off_c, 8, 77, 64
10, 1199040, Note_on_c, 8, 74, 80
10, 1199232, Note_off_c, 8, 74, 64
10, 1200000, Note_on_c, 8, 77, 80
10, 1200192, Note_off_c, 8, 77, 64
10, 1200480, Note_on_c, 8, 74, 100
10, 1200672, Note_off_c, 8, 74, 64
10, 1200960, Note_on_c, 8, 70, 80
10, 1201152, Note_off_c, 8, 70, 64
10, 1201920, Note_on_c, 8, 74, 80
10, 1202112, Note_off_c, 8, 74, 64
10, 1202400, Note_on_c, 8, 70, 100
10, 1202592, Note_off_c, 8, 70, 64
10, 1202880, Note_on_c, 8, 65, 80
10, 1203072, Note_off_c, 8, 65, 64
10, 1203840, Note_on_c, 8, 70, 80
10, 1204032, Note_off_c, 8, 70, 64
10, 1204320, Note_on_c, 8, 65, 100
10, 1204512, Note_off_c, 8, 65, 64
10, 1204800, Note_on_c, 8, 62, 80
10, 1204992, Note_off_c, 8, 62, 64
10, 1205760, Note_on_c, 8, 65, 80
10, 1205952, Note_off_c, 8, 65, 64
10, 1206240, Note_on_c, 8, 58, 80
10, 1206432, Note_off_c, 8, 58, 64
10, 1221600, Note_on_c, 8, 70, 70
10, 1221792, Note_off_c, 8, 70, 64
10, 1221840, Note_on_c, 8, 70, 71
10, 1222032, Note_off_c, 8, 70, 64
10, 1222080, Note_on_c, 8, 70, 72
10, 1222272, Note_off_c, 8, 70, 64
10, 1222320, Note_on_c, 8, 70, 72
10, 1222512, Note_off_c, 8, 70, 64
10, 1222560, Note_on_c, 8, 70, 73
10, 1222752, Note_off_c, 8, 70, 64
10, 1222800, Note_on_c, 8, 70, 74
10, 1222992, Note_off_c, 8, 70, 64
10, 1223040, Note_on_c, 8, 70, 75
10, 1223232, Note_off_c, 8, 70, 64
10, 1223280, Note_on_c, 8, 70, 75
10, 1223472, Note_off_c, 8, 70, 64
10, 1223520, Note_on_c, 8, 70, 76
10, 1223712, Note_off_c, 8, 70, 64
10, 1223760, Note_on_c, 8, 70, 77
10, 1223952, Note_off_c, 8, 70, 64
10, 1224000, Note_on_c, 8, 70, 78
10, 1224192, Note_off_c, 8, 70, 64
10, 1224240, Note_on_c, 8, 70, 79
10, 1224432, Note_off_c, 8, 70, 64
10, 1224480, Note_on_c, 8, 70, 79
10, 1224672, Note_off_c, 8, 70, 64
10, 1224720, Note_on_c, 8, 70, 80
10, 1224912, Note_off_c, 8, 70, 64
10, 1224960, Note_on_c, 8, 70, 81
10, 1225152, Note_off_c, 8, 70, 64
10, 1225200, Note_on_c, 8, 70, 82
10, 1225392, Note_off_c, 8, 70, 64
10, 1225440, Note_on_c, 8, 72, 83
10, 1225632, Note_off_c, 8, 72, 64
10, 1225680, Note_on_c, 8, 72, 83
10, 1225872, Note_off_c, 8, 72, 64
10, 1225920, Note_on_c, 8, 72, 84
10, 1226112, Note_off_c, 8, 72, 64
10, 1226160, Note_on_c, 8, 72, 85
10, 1226352, Note_off_c, 8, 72, 64
10, 1226400, Note_on_c, 8, 72, 86
10, 1226592, Note_off_c, 8, 72, 64
10, 1226640, Note_on_c, 8, 72, 86
10, 1226832, Note_off_c, 8, 72, 64
10, 1226880, Note_on_c, 8, 72, 87
10, 1227072, Note_off_c, 8, 72, 64
10, 1227120, Note_on_c, 8, 72, 88
10, 1227312, Note_off_c, 8, 72, 64
10, 1227360, Note_on_c, 8, 72, 89
10, 1227552, Note_off_c, 8, 72, 64
10, 1227600, Note_on_c, 8, 72, 90
10, 1227792, Note_off_c, 8, 72, 64
10, 1227840, Note_on_c, 8, 72, 90
10, 1228032, Note_off_c, 8, 72, 64
10, 1228080, Note_on_c, 8, 72, 91
10, 1228272, Note_off_c, 8, 72, 64
10, 1228320, Note_on_c, 8, 72, 92
10, 1228512, Note_off_c, 8, 72, 64
10, 1228560, Note_on_c, 8, 72, 93
10, 1228752, Note_off_c, 8, 72, 64
10, 1228800, Note_on_c, 8, 72, 93
10, 1228992, Note_off_c, 8, 72, 64
10, 1229040, Note_on_c, 8, 72, 94
10, 1229232, Note_off_c, 8, 72, 64
10, 1229280, Note_on_c, 8, 65, 95
10, 1229280, Note_on_c, 8, 74, 95
10, 1229472, Note_off_c, 8, 74, 64
10, 1229472, Note_off_c, 8, 65, 64
10, 1229520, Note_on_c, 8, 65, 96
10, 1229520, Note_on_c, 8, 74, 96
10, 1229712, Note_off_c, 8, 74, 64
10, 1229712, Note_off_c, 8, 65, 64
10, 1229760, Note_on_c, 8, 74, 97
10, 1229760, Note_on_c, 8, 65, 97
10, 1229952, Note_off_c, 8, 65, 64
10, 1229952, Note_off_c, 8, 74, 64
10, 1230000, Note_on_c, 8, 74, 97
10, 1230000, Note_on_c, 8, 65, 97
10, 1230192, Note_off_c, 8, 65, 64
10, 1230192, Note_off_c, 8, 74, 64
10, 1230240, Note_on_c, 8, 74, 98
10, 1230240, Note_on_c, 8, 65, 98
10, 1230432, Note_off_c, 8, 65, 64
10, 1230432, Note_off_c, 8, 74, 64
10, 1230480, Note_on_c, 8, 74, 99
10, 1230480, Note_on_c, 8, 65, 99
10, 1230672, Note_off_c, 8, 65, 64
10, 1230672, Note_off_c, 8, 74, 64
10, 1230720, Note_on_c, 8, 65, 100
10, 1230720, Note_on_c, 8, 74, 100
10, 1230912, Note_off_c, 8, 74, 64
10, 1230912, Note_off_c, 8, 65, 64
10, 1230960, Note_on_c, 8, 74, 100
10, 1230960, Note_on_c, 8, 65, 100
10, 1231152, Note_off_c, 8, 65, 64
10, 1231152, Note_off_c, 8, 74, 64
10, 1231200, Note_on_c, 8, 65, 101
10, 1231200, Note_on_c, 8, 74, 101
10, 1231392, Note_off_c, 8, 74, 64
10, 1231392, Note_off_c, 8, 65, 64
10, 1231440, Note_on_c, 8, 74, 102
10, 1231440, Note_on_c, 8, 65, 102
10, 1231632, Note_off_c, 8, 65, 64
10, 1231632, Note_off_c, 8, 74, 64
10, 1231680, Note_on_c, 8, 65, 103
10, 1231680, Note_on_c, 8, 74, 103
10, 1231872, Note_off_c, 8, 74, 64
10, 1231872, Note_off_c, 8, 65, 64
10, 1231920, Note_on_c, 8, 65, 104
10, 1231920, Note_on_c, 8, 74, 104
10, 1232112, Note_off_c, 8, 74, 64
10, 1232112, Note_off_c, 8, 65, 64
10, 1232160, Note_on_c, 8, 74, 104
10, 1232160, Note_on_c, 8, 65, 104
10, 1232352, Note_off_c, 8, 65, 64
10, 1232352, Note_off_c, 8, 74, 64
10, 1232400, Note_on_c, 8, 65, 105
10, 1232400, Note_on_c, 8, 74, 105
10, 1232592, Note_off_c, 8, 74, 64
10, 1232592, Note_off_c, 8, 65, 64
10, 1232640, Note_on_c, 8, 65, 106
10, 1232640, Note_on_c, 8, 74, 106
10, 1232832, Note_off_c, 8, 74, 64
10, 1232832, Note_off_c, 8, 65, 64
10, 1232880, Note_on_c, 8, 65, 107
10, 1232880, Note_on_c, 8, 74, 107
10, 1233072, Note_off_c, 8, 74, 64
10, 1233072, Note_off_c, 8, 65, 64
10, 1233120, Note_on_c, 8, 65, 108
10, 1233120, Note_on_c, 8, 72, 108
10, 1233312, Note_off_c, 8, 72, 64
10, 1233312, Note_off_c, 8, 65, 64
10, 1233360, Note_on_c, 8, 72, 108
10, 1233360, Note_on_c, 8, 65, 108
10, 1233552, Note_off_c, 8, 65, 64
10, 1233552, Note_off_c, 8, 72, 64
10, 1233600, Note_on_c, 8, 65, 109
10, 1233600, Note_on_c, 8, 72, 109
10, 1233792, Note_off_c, 8, 72, 64
10, 1233792, Note_off_c, 8, 65, 64
10, 1233840, Note_on_c, 8, 72, 110
10, 1233840, Note_on_c, 8, 65, 110
10, 1234032, Note_off_c, 8, 65, 64
10, 1234032, Note_off_c, 8, 72, 64
10, 1234080, Note_on_c, 8, 72, 111
10, 1234080, Note_on_c, 8, 65, 111
10, 1234272, Note_off_c, 8, 65, 64
10, 1234272, Note_off_c, 8, 72, 64
10, 1234320, Note_on_c, 8, 72, 111
10, 1234320, Note_on_c, 8, 65, 111
10, 1234512, Note_off_c, 8, 65, 64
10, 1234512, Note_off_c, 8, 72, 64
10, 1234560, Note_on_c, 8, 65, 112
10, 1234560, Note_on_c, 8, 72, 112
10, 1234752, Note_off_c, 8, 72, 64
10, 1234752, Note_off_c, 8, 65, 64
10, 1234800, Note_on_c, 8, 72, 113
10, 1234800, Note_on_c, 8, 65, 113
10, 1234992, Note_off_c, 8, 65, 64
10, 1234992, Note_off_c, 8, 72, 64
10, 1235040, Note_on_c, 8, 65, 114
10, 1235040, Note_on_c, 8, 72, 114
10, 1235232, Note_off_c, 8, 72, 64
10, 1235232, Note_off_c, 8, 65, 64
10, 1235280, Note_on_c, 8, 72, 115
10, 1235280, Note_on_c, 8, 65, 115
10, 1235472, Note_off_c, 8, 65, 64
10, 1235472, Note_off_c, 8, 72, 64
10, 1235520, Note_on_c, 8, 72, 115
10, 1235520, Note_on_c, 8, 65, 115
10, 1235712, Note_off_c, 8, 65, 64
10, 1235712, Note_off_c, 8, 72, 64
10, 1235760, Note_on_c, 8, 72, 116
10, 1235760, Note_on_c, 8, 65, 116
10, 1235952, Note_off_c, 8, 65, 64
10, 1235952, Note_off_c, 8, 72, 64
10, 1236000, Note_on_c, 8, 65, 117
10, 1236000, Note_on_c, 8, 72, 117
10, 1236192, Note_off_c, 8, 72, 64
10, 1236192, Note_off_c, 8, 65, 64
10, 1236240, Note_on_c, 8, 72, 118
10, 1236240, Note_on_c, 8, 65, 118
10, 1236432, Note_off_c, 8, 65, 64
10, 1236432, Note_off_c, 8, 72, 64
10, 1236480, Note_on_c, 8, 65, 118
10, 1236480, Note_on_c, 8, 72, 118
10, 1236672, Note_off_c, 8, 72, 64
10, 1236672, Note_off_c, 8, 65, 64
10, 1236720, Note_on_c, 8, 65, 119
10, 1236720, Note_on_c, 8, 72, 119
10, 1236912, Note_off_c, 8, 72, 64
10, 1236912, Note_off_c, 8, 65, 64
10, 1236960, Note_on_c, 8, 74, 127
10, 1237152, Note_off_c, 8, 74, 64
10, 1237200, Note_on_c, 8, 74, 127
10, 1237392, Note_off_c, 8, 74, 64
10, 1237440, Note_on_c, 8, 74, 127
10, 1237632, Note_off_c, 8, 74, 64
10, 1237680, Note_on_c, 8, 74, 127
10, 1237872, Note_off_c, 8, 74, 64
10, 1237920, Note_on_c, 8, 74, 127
10, 1238112, Note_off_c, 8, 74, 64
10, 1238160, Note_on_c, 8, 74, 127
10, 1238352, Note_off_c, 8, 74, 64
10, 1238400, Note_on_c, 8, 74, 127
10, 1238592, Note_off_c, 8, 74, 64
10, 1238640, Note_on_c, 8, 74, 127
10, 1238832, Note_off_c, 8, 74, 64
10, 1238880, Note_on_c, 8, 74, 127
10, 1239072, Note_off_c, 8, 74, 64
10, 1239120, Note_on_c, 8, 74, 127
10, 1239312, Note_off_c, 8, 74, 64
10, 1239360, Note_on_c, 8, 74, 127
10, 1239552, Note_off_c, 8, 74, 64
10, 1239600, Note_on_c, 8, 74, 127
10, 1239792, Note_off_c, 8, 74, 64
10, 1239840, Note_on_c, 8, 74, 127
10, 1240032, Note_off_c, 8, 74, 64
10, 1240080, Note_on_c, 8, 74, 127
10, 1240272, Note_off_c, 8, 74, 64
10, 1240320, Note_on_c, 8, 74, 127
10, 1240512, Note_off_c, 8, 74, 64
10, 1240560, Note_on_c, 8, 74, 127
10, 1240752, Note_off_c, 8, 74, 64
10, 1240800, Note_on_c, 8, 74, 127
10, 1240992, Note_off_c, 8, 74, 64
10, 1241040, Note_on_c, 8, 74, 127
10, 1241232, Note_off_c, 8, 74, 64
10, 1241280, Note_on_c, 8, 74, 127
10, 1241472, Note_off_c, 8, 74, 64
10, 1241520, Note_on_c, 8, 74, 127
10, 1241712, Note_off_c, 8, 74, 64
10, 1241760, Note_on_c, 8, 74, 127
10, 1241952, Note_off_c, 8, 74, 64
10, 1242000, Note_on_c, 8, 74, 127
10, 1242192, Note_off_c, 8, 74, 64
10, 1242240, Note_on_c, 8, 74, 127
10, 1242432, Note_off_c, 8, 74, 64
10, 1242480, Note_on_c, 8, 74, 127
10, 1242672, Note_off_c, 8, 74, 64
10, 1242720, Note_on_c, 8, 74, 127
10, 1242912, Note_off_c, 8, 74, 64
10, 1242960, Note_on_c, 8, 74, 127
10, 1243152, Note_off_c, 8, 74, 64
10, 1243200, Note_on_c, 8, 74, 127
10, 1243392, Note_off_c, 8, 74, 64
10, 1243440, Note_on_c, 8, 74, 127
10, 1243632, Note_off_c, 8, 74, 64
10, 1243680, Note_on_c, 8, 74, 127
10, 1243872, Note_off_c, 8, 74, 64
10, 1243920, Note_on_c, 8, 74, 127
10, 1244112, Note_off_c, 8, 74, 64
10, 1244160, Note_on_c, 8, 74, 127
10, 1244352, Note_off_c, 8, 74, 64
10, 1244400, Note_on_c, 8, 74, 127
10, 1244592, Note_off_c, 8, 74, 64
10, 1244640, Note_on_c, 8, 74, 127
10, 1244880, Note_off_c, 8, 74, 64
10, 1245600, Note_on_c, 8, 74, 127
10, 1245840, Note_off_c, 8, 74, 64
10, 1246560, Note_on_c, 8, 74, 127
10, 1246800, Note_off_c, 8, 74, 64
10, 1248480, Note_on_c, 8, 62, 127
10, 1248720, Note_off_c, 8, 62, 64
10, 1248720, End_track
11, 0, Start_track
11, 0, Title_t, "Viola"
11, 0, MIDI_port, 0
11, 0, Channel_prefix, 10
11, 0, Control_c, 10, 7, 89
11, 0, Control_c, 10, 10, 86
11, 0, Program_c, 10, 48
11, 480, Control_c, 10, 10, 70
11, 480, Control_c, 10, 93, 90
11, 480, Control_c, 10, 7, 90
11, 480, Control_c, 10, 91, 85
11, 480, Program_c, 10, 48
11, 5700, Control_c, 10, 7, 75
11, 13440, Note_on_c, 10, 54, 26
11, 15360, Note_off_c, 10, 54, 64
11, 15360, Note_on_c, 10, 53, 26
11, 15528, Note_off_c, 10, 53, 64
11, 18720, Note_on_c, 10, 64, 24
11, 19200, Note_off_c, 10, 64, 64
11, 19200, Note_on_c, 10, 65, 21
11, 19392, Note_off_c, 10, 65, 64
11, 22560, Note_on_c, 10, 52, 27
11, 23040, Note_off_c, 10, 52, 64
11, 23040, Note_on_c, 10, 53, 26
11, 23232, Note_off_c, 10, 53, 64
11, 36452, Control_c, 10, 7, 71
11, 36480, Control_c, 10, 7, 72
11, 36480, Note_on_c, 10, 54, 30
11, 36492, Control_c, 10, 7, 73
11, 36508, Control_c, 10, 7, 74
11, 36532, Control_c, 10, 7, 75
11, 36548, Control_c, 10, 7, 76
11, 36560, Control_c, 10, 7, 77
11, 36572, Control_c, 10, 7, 78
11, 36600, Control_c, 10, 7, 79
11, 36612, Control_c, 10, 7, 80
11, 36628, Control_c, 10, 7, 81
11, 36652, Control_c, 10, 7, 82
11, 36668, Control_c, 10, 7, 83
11, 36680, Control_c, 10, 7, 84
11, 36692, Control_c, 10, 7, 85
11, 36720, Control_c, 10, 7, 86
11, 36732, Control_c, 10, 7, 87
11, 36748, Control_c, 10, 7, 88
11, 36772, Control_c, 10, 7, 89
11, 36788, Control_c, 10, 7, 90
11, 36800, Control_c, 10, 7, 91
11, 36812, Control_c, 10, 7, 92
11, 36840, Control_c, 10, 7, 93
11, 36852, Control_c, 10, 7, 94
11, 36868, Control_c, 10, 7, 95
11, 36892, Control_c, 10, 7, 96
11, 36908, Control_c, 10, 7, 97
11, 36920, Control_c, 10, 7, 98
11, 36932, Control_c, 10, 7, 99
11, 36960, Control_c, 10, 7, 100
11, 36972, Control_c, 10, 7, 101
11, 36988, Control_c, 10, 7, 102
11, 37012, Control_c, 10, 7, 103
11, 37028, Control_c, 10, 7, 104
11, 37040, Control_c, 10, 7, 105
11, 37052, Control_c, 10, 7, 106
11, 37080, Control_c, 10, 7, 107
11, 37092, Control_c, 10, 7, 108
11, 37108, Control_c, 10, 7, 109
11, 37132, Control_c, 10, 7, 110
11, 37148, Control_c, 10, 7, 111
11, 37160, Control_c, 10, 7, 112
11, 37172, Control_c, 10, 7, 113
11, 37200, Control_c, 10, 7, 114
11, 37212, Control_c, 10, 7, 115
11, 37228, Control_c, 10, 7, 116
11, 37252, Control_c, 10, 7, 117
11, 37268, Control_c, 10, 7, 118
11, 37280, Control_c, 10, 7, 119
11, 37292, Control_c, 10, 7, 120
11, 37320, Control_c, 10, 7, 121
11, 37332, Control_c, 10, 7, 122
11, 37348, Control_c, 10, 7, 123
11, 37372, Control_c, 10, 7, 124
11, 37388, Control_c, 10, 7, 125
11, 37400, Control_c, 10, 7, 126
11, 37412, Control_c, 10, 7, 127
11, 37440, Control_c, 10, 7, 127
11, 37468, Control_c, 10, 7, 126
11, 37492, Control_c, 10, 7, 125
11, 37508, Control_c, 10, 7, 124
11, 37532, Control_c, 10, 7, 123
11, 37548, Control_c, 10, 7, 122
11, 37572, Control_c, 10, 7, 121
11, 37588, Control_c, 10, 7, 120
11, 37612, Control_c, 10, 7, 119
11, 37628, Control_c, 10, 7, 118
11, 37652, Control_c, 10, 7, 117
11, 37668, Control_c, 10, 7, 116
11, 37692, Control_c, 10, 7, 115
11, 37708, Control_c, 10, 7, 114
11, 37732, Control_c, 10, 7, 113
11, 37760, Control_c, 10, 7, 112
11, 37772, Control_c, 10, 7, 111
11, 37800, Control_c, 10, 7, 110
11, 37812, Control_c, 10, 7, 109
11, 37840, Control_c, 10, 7, 108
11, 37852, Control_c, 10, 7, 107
11, 37880, Control_c, 10, 7, 106
11, 37892, Control_c, 10, 7, 105
11, 37920, Control_c, 10, 7, 104
11, 37932, Control_c, 10, 7, 103
11, 37960, Control_c, 10, 7, 102
11, 37972, Control_c, 10, 7, 101
11, 38000, Control_c, 10, 7, 100
11, 38012, Control_c, 10, 7, 99
11, 38040, Control_c, 10, 7, 98
11, 38068, Control_c, 10, 7, 97
11, 38080, Control_c, 10, 7, 96
11, 38108, Control_c, 10, 7, 95
11, 38120, Control_c, 10, 7, 94
11, 38148, Control_c, 10, 7, 93
11, 38160, Control_c, 10, 7, 92
11, 38188, Control_c, 10, 7, 91
11, 38200, Control_c, 10, 7, 90
11, 38228, Control_c, 10, 7, 89
11, 38240, Control_c, 10, 7, 88
11, 38268, Control_c, 10, 7, 87
11, 38280, Control_c, 10, 7, 86
11, 38308, Control_c, 10, 7, 85
11, 38332, Control_c, 10, 7, 84
11, 38348, Control_c, 10, 7, 83
11, 38372, Control_c, 10, 7, 82
11, 38388, Control_c, 10, 7, 81
11, 38412, Control_c, 10, 7, 80
11, 38428, Control_c, 10, 7, 79
11, 38452, Control_c, 10, 7, 78
11, 38468, Control_c, 10, 7, 77
11, 38492, Control_c, 10, 7, 76
11, 38508, Control_c, 10, 7, 75
11, 38532, Control_c, 10, 7, 74
11, 38548, Control_c, 10, 7, 73
11, 38568, Note_off_c, 10, 54, 64
11, 38572, Control_c, 10, 7, 72
11, 38588, Control_c, 10, 7, 71
11, 41760, Note_on_c, 10, 65, 24
11, 42240, Note_off_c, 10, 65, 64
11, 42240, Note_on_c, 10, 66, 21
11, 42432, Note_off_c, 10, 66, 64
11, 45600, Note_on_c, 10, 53, 24
11, 46080, Note_off_c, 10, 53, 64
11, 46080, Note_on_c, 10, 54, 21
11, 46272, Note_off_c, 10, 54, 64
11, 48000, Program_c, 10, 45
11, 51360, Note_on_c, 10, 54, 32
11, 51744, Note_off_c, 10, 54, 64
11, 51840, Note_on_c, 10, 55, 64
11, 52224, Note_off_c, 10, 55, 64
11, 52320, Program_c, 10, 48
11, 54240, Note_on_c, 10, 59, 22
11, 54240, Note_on_c, 10, 62, 22
11, 54432, Note_off_c, 10, 62, 64
11, 54432, Note_off_c, 10, 59, 64
11, 54720, Note_on_c, 10, 62, 22
11, 54720, Note_on_c, 10, 59, 22
11, 54912, Note_off_c, 10, 59, 64
11, 54912, Note_off_c, 10, 62, 64
11, 56160, Note_on_c, 10, 60, 22
11, 56352, Note_off_c, 10, 60, 64
11, 56640, Note_on_c, 10, 60, 22
11, 56832, Note_off_c, 10, 60, 64
11, 58080, Note_on_c, 10, 61, 22
11, 58080, Note_on_c, 10, 64, 22
11, 58272, Note_off_c, 10, 64, 64
11, 58272, Note_off_c, 10, 61, 64
11, 58560, Note_on_c, 10, 61, 22
11, 58560, Note_on_c, 10, 64, 22
11, 58752, Note_off_c, 10, 64, 64
11, 58752, Note_off_c, 10, 61, 64
11, 60000, Note_on_c, 10, 62, 22
11, 60192, Note_off_c, 10, 62, 64
11, 60480, Note_on_c, 10, 62, 22
11, 60672, Note_off_c, 10, 62, 64
11, 60960, Note_on_c, 10, 58, 64
11, 61632, Note_off_c, 10, 58, 64
11, 62880, Note_on_c, 10, 53, 45
11, 63360, Note_off_c, 10, 53, 64
11, 63360, Note_on_c, 10, 52, 30
11, 63840, Note_off_c, 10, 52, 64
11, 63840, Note_on_c, 10, 52, 30
11, 63840, Note_on_c, 10, 59, 30
11, 64800, Note_off_c, 10, 59, 64
11, 64800, Note_off_c, 10, 52, 64
11, 64800, Note_on_c, 10, 52, 30
11, 65280, Note_off_c, 10, 52, 64
11, 65280, Note_on_c, 10, 52, 38
11, 65760, Note_off_c, 10, 52, 64
11, 65760, Note_on_c, 10, 55, 38
11, 66240, Note_off_c, 10, 55, 64
11, 66240, Note_on_c, 10, 53, 38
11, 66720, Note_off_c, 10, 53, 64
11, 66720, Note_on_c, 10, 52, 38
11, 66960, Note_off_c, 10, 52, 64
11, 66960, Note_on_c, 10, 50, 38
11, 67200, Note_off_c, 10, 50, 64
11, 67200, Note_on_c, 10, 49, 38
11, 67680, Note_off_c, 10, 49, 64
11, 67680, Note_on_c, 10, 55, 38
11, 68160, Note_off_c, 10, 55, 64
11, 68160, Note_on_c, 10, 53, 38
11, 68640, Note_off_c, 10, 53, 64
11, 68640, Note_on_c, 10, 55, 38
11, 68880, Note_off_c, 10, 55, 64
11, 68880, Note_on_c, 10, 53, 38
11, 69120, Note_off_c, 10, 53, 64
11, 69120, Note_on_c, 10, 52, 38
11, 69504, Note_off_c, 10, 52, 64
11, 72480, Control_c, 10, 7, 90
11, 72960, Note_on_c, 10, 60, 127
11, 72960, Note_on_c, 10, 63, 127
11, 74800, Note_off_c, 10, 63, 64
11, 74800, Note_off_c, 10, 60, 64
11, 74820, Note_on_c, 10, 63, 109
11, 74820, Note_on_c, 10, 60, 89
11, 74856, Note_off_c, 10, 60, 64
11, 74856, Note_off_c, 10, 63, 64
11, 74880, Note_on_c, 10, 60, 127
11, 74880, Note_on_c, 10, 63, 127
11, 74976, Note_off_c, 10, 63, 64
11, 74976, Note_off_c, 10, 60, 64
11, 76800, Note_on_c, 10, 57, 127
11, 76800, Note_on_c, 10, 53, 127
11, 78640, Note_off_c, 10, 53, 64
11, 78640, Note_off_c, 10, 57, 64
11, 78660, Note_on_c, 10, 53, 89
11, 78660, Note_on_c, 10, 57, 109
11, 78696, Note_off_c, 10, 57, 64
11, 78696, Note_off_c, 10, 53, 64
11, 78720, Note_on_c, 10, 53, 127
11, 78720, Note_on_c, 10, 57, 127
11, 78960, Note_off_c, 10, 57, 64
11, 78960, Note_off_c, 10, 53, 64
11, 80640, Note_on_c, 10, 57, 102
11, 80640, Note_on_c, 10, 53, 102
11, 80880, Note_off_c, 10, 53, 64
11, 80880, Note_off_c, 10, 57, 64
11, 82560, Note_on_c, 10, 53, 102
11, 82560, Note_on_c, 10, 57, 102
11, 82800, Note_off_c, 10, 57, 64
11, 82800, Note_off_c, 10, 53, 64
11, 83520, Note_on_c, 10, 57, 102
11, 83520, Note_on_c, 10, 53, 102
11, 83760, Note_off_c, 10, 53, 64
11, 83760, Note_off_c, 10, 57, 64
11, 84480, Note_on_c, 10, 53, 102
11, 84480, Note_on_c, 10, 57, 102
11, 84720, Note_off_c, 10, 57, 64
11, 84720, Note_off_c, 10, 53, 64
11, 85440, Note_on_c, 10, 57, 102
11, 85440, Note_on_c, 10, 53, 102
11, 85680, Note_off_c, 10, 53, 64
11, 85680, Note_off_c, 10, 57, 64
11, 86400, Note_on_c, 10, 58, 102
11, 86400, Note_on_c, 10, 53, 102
11, 86626, Note_off_c, 10, 53, 64
11, 86626, Note_off_c, 10, 58, 64
11, 86640, Note_on_c, 10, 58, 48
11, 86640, Note_on_c, 10, 65, 48
11, 86832, Note_off_c, 10, 65, 64
11, 86832, Note_off_c, 10, 58, 64
11, 86880, Note_on_c, 10, 58, 48
11, 86880, Note_on_c, 10, 65, 48
11, 87072, Note_off_c, 10, 65, 64
11, 87072, Note_off_c, 10, 58, 64
11, 87120, Note_on_c, 10, 65, 48
11, 87120, Note_on_c, 10, 58, 48
11, 87312, Note_off_c, 10, 58, 64
11, 87312, Note_off_c, 10, 65, 64
11, 87360, Note_on_c, 10, 65, 48
11, 87360, Note_on_c, 10, 58, 48
11, 87552, Note_off_c, 10, 58, 64
11, 87552, Note_off_c, 10, 65, 64
11, 87600, Note_on_c, 10, 58, 48
11, 87600, Note_on_c, 10, 65, 48
11, 87792, Note_off_c, 10, 65, 64
11, 87792, Note_off_c, 10, 58, 64
11, 87840, Note_on_c, 10, 58, 48
11, 87840, Note_on_c, 10, 65, 48
11, 88032, Note_off_c, 10, 65, 64
11, 88032, Note_off_c, 10, 58, 64
11, 88080, Note_on_c, 10, 65, 48
11, 88080, Note_on_c, 10, 58, 48
11, 88272, Note_off_c, 10, 58, 64
11, 88272, Note_off_c, 10, 65, 64
11, 88320, Note_on_c, 10, 58, 48
11, 88320, Note_on_c, 10, 65, 48
11, 88512, Note_off_c, 10, 65, 64
11, 88512, Note_off_c, 10, 58, 64
11, 88560, Note_on_c, 10, 58, 48
11, 88560, Note_on_c, 10, 65, 48
11, 88752, Note_off_c, 10, 65, 64
11, 88752, Note_off_c, 10, 58, 64
11, 88800, Note_on_c, 10, 58, 48
11, 88800, Note_on_c, 10, 65, 48
11, 88992, Note_off_c, 10, 65, 64
11, 88992, Note_off_c, 10, 58, 64
11, 89040, Note_on_c, 10, 58, 48
11, 89040, Note_on_c, 10, 65, 48
11, 89232, Note_off_c, 10, 65, 64
11, 89232, Note_off_c, 10, 58, 64
11, 89280, Note_on_c, 10, 65, 48
11, 89280, Note_on_c, 10, 58, 48
11, 89472, Note_off_c, 10, 58, 64
11, 89472, Note_off_c, 10, 65, 64
11, 89520, Note_on_c, 10, 65, 48
11, 89520, Note_on_c, 10, 58, 48
11, 89712, Note_off_c, 10, 58, 64
11, 89712, Note_off_c, 10, 65, 64
11, 89760, Note_on_c, 10, 65, 48
11, 89760, Note_on_c, 10, 58, 48
11, 89952, Note_off_c, 10, 58, 64
11, 89952, Note_off_c, 10, 65, 64
11, 90000, Note_on_c, 10, 58, 48
11, 90000, Note_on_c, 10, 65, 48
11, 90192, Note_off_c, 10, 65, 64
11, 90192, Note_off_c, 10, 58, 64
11, 90240, Note_on_c, 10, 63, 48
11, 90240, Note_on_c, 10, 58, 48
11, 90432, Note_off_c, 10, 58, 64
11, 90432, Note_off_c, 10, 63, 64
11, 90480, Note_on_c, 10, 63, 48
11, 90480, Note_on_c, 10, 58, 48
11, 90672, Note_off_c, 10, 58, 64
11, 90672, Note_off_c, 10, 63, 64
11, 90720, Note_on_c, 10, 58, 48
11, 90720, Note_on_c, 10, 63, 48
11, 90912, Note_off_c, 10, 63, 64
11, 90912, Note_off_c, 10, 58, 64
11, 90960, Note_on_c, 10, 58, 48
11, 90960, Note_on_c, 10, 63, 48
11, 91152, Note_off_c, 10, 63, 64
11, 91152, Note_off_c, 10, 58, 64
11, 91200, Note_on_c, 10, 63, 48
11, 91200, Note_on_c, 10, 58, 48
11, 91392, Note_off_c, 10, 58, 64
11, 91392, Note_off_c, 10, 63, 64
11, 91440, Note_on_c, 10, 58, 48
11, 91440, Note_on_c, 10, 63, 48
11, 91632, Note_off_c, 10, 63, 64
11, 91632, Note_off_c, 10, 58, 64
11, 91680, Note_on_c, 10, 63, 48
11, 91680, Note_on_c, 10, 58, 48
11, 91872, Note_off_c, 10, 58, 64
11, 91872, Note_off_c, 10, 63, 64
11, 91920, Note_on_c, 10, 58, 48
11, 91920, Note_on_c, 10, 63, 48
11, 92112, Note_off_c, 10, 63, 64
11, 92112, Note_off_c, 10, 58, 64
11, 92160, Note_on_c, 10, 63, 48
11, 92160, Note_on_c, 10, 60, 48
11, 92352, Note_off_c, 10, 60, 64
11, 92352, Note_off_c, 10, 63, 64
11, 92400, Note_on_c, 10, 63, 48
11, 92400, Note_on_c, 10, 60, 48
11, 92592, Note_off_c, 10, 60, 64
11, 92592, Note_off_c, 10, 63, 64
11, 92640, Note_on_c, 10, 60, 48
11, 92640, Note_on_c, 10, 63, 48
11, 92832, Note_off_c, 10, 63, 64
11, 92832, Note_off_c, 10, 60, 64
11, 92880, Note_on_c, 10, 63, 48
11, 92880, Note_on_c, 10, 60, 48
11, 93072, Note_off_c, 10, 60, 64
11, 93072, Note_off_c, 10, 63, 64
11, 93120, Note_on_c, 10, 63, 48
11, 93120, Note_on_c, 10, 60, 48
11, 93312, Note_off_c, 10, 60, 64
11, 93312, Note_off_c, 10, 63, 64
11, 93360, Note_on_c, 10, 63, 48
11, 93360, Note_on_c, 10, 60, 48
11, 93552, Note_off_c, 10, 60, 64
11, 93552, Note_off_c, 10, 63, 64
11, 93600, Note_on_c, 10, 60, 48
11, 93600, Note_on_c, 10, 63, 48
11, 93792, Note_off_c, 10, 63, 64
11, 93792, Note_off_c, 10, 60, 64
11, 93840, Note_on_c, 10, 63, 48
11, 93840, Note_on_c, 10, 60, 48
11, 94032, Note_off_c, 10, 60, 64
11, 94032, Note_off_c, 10, 63, 64
11, 94080, Note_on_c, 10, 62, 48
11, 94080, Note_on_c, 10, 58, 48
11, 94272, Note_off_c, 10, 58, 64
11, 94272, Note_off_c, 10, 62, 64
11, 101760, Note_on_c, 10, 53, 102
11, 101760, Note_on_c, 10, 57, 102
11, 102000, Note_off_c, 10, 57, 64
11, 102000, Note_off_c, 10, 53, 64
11, 103680, Note_on_c, 10, 53, 102
11, 103680, Note_on_c, 10, 57, 102
11, 103920, Note_off_c, 10, 57, 64
11, 103920, Note_off_c, 10, 53, 64
11, 104640, Note_on_c, 10, 57, 102
11, 104640, Note_on_c, 10, 53, 102
11, 104880, Note_off_c, 10, 53, 64
11, 104880, Note_off_c, 10, 57, 64
11, 105600, Note_on_c, 10, 70, 64
11, 105600, Note_on_c, 10, 58, 64
11, 105600, Note_on_c, 10, 65, 64
11, 105792, Note_off_c, 10, 65, 64
11, 105792, Note_off_c, 10, 58, 64
11, 105792, Note_off_c, 10, 70, 64
11, 105840, Note_on_c, 10, 50, 64
11, 105840, Note_on_c, 10, 53, 64
11, 106032, Note_off_c, 10, 53, 64
11, 106032, Note_off_c, 10, 50, 64
11, 106080, Note_on_c, 10, 50, 64
11, 106080, Note_on_c, 10, 53, 64
11, 106272, Note_off_c, 10, 53, 64
11, 106272, Note_off_c, 10, 50, 64
11, 106320, Note_on_c, 10, 50, 64
11, 106320, Note_on_c, 10, 53, 64
11, 106512, Note_off_c, 10, 53, 64
11, 106512, Note_off_c, 10, 50, 64
11, 106560, Note_on_c, 10, 53, 64
11, 106560, Note_on_c, 10, 50, 64
11, 106752, Note_off_c, 10, 50, 64
11, 106752, Note_off_c, 10, 53, 64
11, 106800, Note_on_c, 10, 50, 64
11, 106800, Note_on_c, 10, 53, 64
11, 106992, Note_off_c, 10, 53, 64
11, 106992, Note_off_c, 10, 50, 64
11, 107040, Note_on_c, 10, 50, 64
11, 107040, Note_on_c, 10, 53, 64
11, 107232, Note_off_c, 10, 53, 64
11, 107232, Note_off_c, 10, 50, 64
11, 107280, Note_on_c, 10, 50, 64
11, 107280, Note_on_c, 10, 53, 64
11, 107472, Note_off_c, 10, 53, 64
11, 107472, Note_off_c, 10, 50, 64
11, 107520, Note_on_c, 10, 50, 64
11, 107520, Note_on_c, 10, 53, 64
11, 107712, Note_off_c, 10, 53, 64
11, 107712, Note_off_c, 10, 50, 64
11, 107760, Note_on_c, 10, 53, 64
11, 107760, Note_on_c, 10, 50, 64
11, 107952, Note_off_c, 10, 50, 64
11, 107952, Note_off_c, 10, 53, 64
11, 108000, Note_on_c, 10, 53, 64
11, 108000, Note_on_c, 10, 50, 64
11, 108192, Note_off_c, 10, 50, 64
11, 108192, Note_off_c, 10, 53, 64
11, 108240, Note_on_c, 10, 53, 64
11, 108240, Note_on_c, 10, 50, 64
11, 108432, Note_off_c, 10, 50, 64
11, 108432, Note_off_c, 10, 53, 64
11, 108480, Note_on_c, 10, 50, 64
11, 108480, Note_on_c, 10, 53, 64
11, 108672, Note_off_c, 10, 53, 64
11, 108672, Note_off_c, 10, 50, 64
11, 108720, Note_on_c, 10, 50, 64
11, 108720, Note_on_c, 10, 53, 64
11, 108912, Note_off_c, 10, 53, 64
11, 108912, Note_off_c, 10, 50, 64
11, 108960, Note_on_c, 10, 53, 64
11, 108960, Note_on_c, 10, 50, 64
11, 109152, Note_off_c, 10, 50, 64
11, 109152, Note_off_c, 10, 53, 64
11, 109200, Note_on_c, 10, 50, 64
11, 109200, Note_on_c, 10, 53, 64
11, 109392, Note_off_c, 10, 53, 64
11, 109392, Note_off_c, 10, 50, 64
11, 109440, Note_on_c, 10, 51, 64
11, 109440, Note_on_c, 10, 55, 64
11, 109632, Note_off_c, 10, 55, 64
11, 109632, Note_off_c, 10, 51, 64
11, 109680, Note_on_c, 10, 55, 64
11, 109680, Note_on_c, 10, 51, 64
11, 109872, Note_off_c, 10, 51, 64
11, 109872, Note_off_c, 10, 55, 64
11, 109920, Note_on_c, 10, 55, 64
11, 109920, Note_on_c, 10, 51, 64
11, 110112, Note_off_c, 10, 51, 64
11, 110112, Note_off_c, 10, 55, 64
11, 110160, Note_on_c, 10, 55, 64
11, 110160, Note_on_c, 10, 51, 64
11, 110352, Note_off_c, 10, 51, 64
11, 110352, Note_off_c, 10, 55, 64
11, 110400, Note_on_c, 10, 51, 64
11, 110400, Note_on_c, 10, 55, 64
11, 110592, Note_off_c, 10, 55, 64
11, 110592, Note_off_c, 10, 51, 64
11, 110640, Note_on_c, 10, 51, 64
11, 110640, Note_on_c, 10, 55, 64
11, 110832, Note_off_c, 10, 55, 64
11, 110832, Note_off_c, 10, 51, 64
11, 110880, Note_on_c, 10, 55, 64
11, 110880, Note_on_c, 10, 51, 64
11, 111072, Note_off_c, 10, 51, 64
11, 111072, Note_off_c, 10, 55, 64
11, 111120, Note_on_c, 10, 51, 64
11, 111120, Note_on_c, 10, 55, 64
11, 111312, Note_off_c, 10, 55, 64
11, 111312, Note_off_c, 10, 51, 64
11, 111360, Note_on_c, 10, 53, 64
11, 111360, Note_on_c, 10, 57, 64
11, 111552, Note_off_c, 10, 57, 64
11, 111552, Note_off_c, 10, 53, 64
11, 111600, Note_on_c, 10, 57, 64
11, 111600, Note_on_c, 10, 53, 64
11, 111792, Note_off_c, 10, 53, 64
11, 111792, Note_off_c, 10, 57, 64
11, 111840, Note_on_c, 10, 57, 64
11, 111840, Note_on_c, 10, 53, 64
11, 112032, Note_off_c, 10, 53, 64
11, 112032, Note_off_c, 10, 57, 64
11, 112080, Note_on_c, 10, 57, 64
11, 112080, Note_on_c, 10, 53, 64
11, 112272, Note_off_c, 10, 53, 64
11, 112272, Note_off_c, 10, 57, 64
11, 112320, Note_on_c, 10, 53, 64
11, 112320, Note_on_c, 10, 57, 64
11, 112512, Note_off_c, 10, 57, 64
11, 112512, Note_off_c, 10, 53, 64
11, 112560, Note_on_c, 10, 53, 64
11, 112560, Note_on_c, 10, 57, 64
11, 112752, Note_off_c, 10, 57, 64
11, 112752, Note_off_c, 10, 53, 64
11, 112800, Note_on_c, 10, 57, 64
11, 112800, Note_on_c, 10, 53, 64
11, 112992, Note_off_c, 10, 53, 64
11, 112992, Note_off_c, 10, 57, 64
11, 113040, Note_on_c, 10, 53, 64
11, 113040, Note_on_c, 10, 57, 64
11, 113232, Note_off_c, 10, 57, 64
11, 113232, Note_off_c, 10, 53, 64
11, 113280, Note_on_c, 10, 50, 64
11, 113280, Note_on_c, 10, 58, 64
11, 113472, Note_off_c, 10, 58, 64
11, 113472, Note_off_c, 10, 50, 64
11, 113520, Note_on_c, 10, 50, 64
11, 113520, Note_on_c, 10, 58, 64
11, 113712, Note_off_c, 10, 58, 64
11, 113712, Note_off_c, 10, 50, 64
11, 113760, Note_on_c, 10, 58, 96
11, 113952, Note_off_c, 10, 58, 64
11, 114000, Note_on_c, 10, 58, 96
11, 114192, Note_off_c, 10, 58, 64
11, 114240, Note_on_c, 10, 57, 96
11, 114432, Note_off_c, 10, 57, 64
11, 114480, Note_on_c, 10, 57, 96
11, 114672, Note_off_c, 10, 57, 64
11, 114720, Note_on_c, 10, 55, 96
11, 114912, Note_off_c, 10, 55, 64
11, 114960, Note_on_c, 10, 55, 96
11, 115152, Note_off_c, 10, 55, 64
11, 115200, Note_on_c, 10, 53, 96
11, 115392, Note_off_c, 10, 53, 64
11, 115440, Note_on_c, 10, 53, 96
11, 115632, Note_off_c, 10, 53, 64
11, 115680, Note_on_c, 10, 51, 96
11, 115872, Note_off_c, 10, 51, 64
11, 115920, Note_on_c, 10, 51, 96
11, 116112, Note_off_c, 10, 51, 64
11, 116160, Note_on_c, 10, 50, 96
11, 116352, Note_off_c, 10, 50, 64
11, 116400, Note_on_c, 10, 50, 96
11, 116592, Note_off_c, 10, 50, 64
11, 116640, Note_on_c, 10, 51, 96
11, 116832, Note_off_c, 10, 51, 64
11, 116880, Note_on_c, 10, 51, 96
11, 117072, Note_off_c, 10, 51, 64
11, 117120, Note_on_c, 10, 60, 102
11, 117360, Note_off_c, 10, 60, 64
11, 117360, Note_on_c, 10, 59, 102
11, 117600, Note_off_c, 10, 59, 64
11, 117600, Note_on_c, 10, 60, 102
11, 117840, Note_off_c, 10, 60, 64
11, 117840, Note_on_c, 10, 59, 102
11, 118080, Note_off_c, 10, 59, 64
11, 118080, Note_on_c, 10, 60, 102
11, 118320, Note_off_c, 10, 60, 64
11, 118320, Note_on_c, 10, 59, 102
11, 118560, Note_off_c, 10, 59, 64
11, 118560, Note_on_c, 10, 60, 102
11, 118800, Note_off_c, 10, 60, 64
11, 118800, Note_on_c, 10, 59, 102
11, 119040, Note_off_c, 10, 59, 64
11, 119040, Note_on_c, 10, 60, 102
11, 119232, Note_off_c, 10, 60, 64
11, 119280, Note_on_c, 10, 60, 64
11, 119472, Note_off_c, 10, 60, 64
11, 119520, Note_on_c, 10, 60, 64
11, 119712, Note_off_c, 10, 60, 64
11, 119760, Note_on_c, 10, 60, 64
11, 119952, Note_off_c, 10, 60, 64
11, 120000, Note_on_c, 10, 60, 64
11, 120192, Note_off_c, 10, 60, 64
11, 120240, Note_on_c, 10, 60, 64
11, 120432, Note_off_c, 10, 60, 64
11, 120480, Note_on_c, 10, 60, 64
11, 120672, Note_off_c, 10, 60, 64
11, 120720, Note_on_c, 10, 60, 64
11, 120912, Note_off_c, 10, 60, 64
11, 120960, Note_on_c, 10, 60, 102
11, 121320, Note_off_c, 10, 60, 64
11, 122880, Note_on_c, 10, 58, 102
11, 123240, Note_off_c, 10, 58, 64
11, 124800, Note_on_c, 10, 60, 102
11, 124800, Note_on_c, 10, 63, 102
11, 125160, Note_off_c, 10, 63, 64
11, 125160, Note_off_c, 10, 60, 64
11, 126720, Note_on_c, 10, 53, 102
11, 127080, Note_off_c, 10, 53, 64
11, 128640, Note_on_c, 10, 50, 32
11, 128640, Note_on_c, 10, 53, 32
11, 128832, Note_off_c, 10, 53, 64
11, 128832, Note_off_c, 10, 50, 64
11, 128880, Note_on_c, 10, 50, 32
11, 128880, Note_on_c, 10, 53, 32
11, 129072, Note_off_c, 10, 53, 64
11, 129072, Note_off_c, 10, 50, 64
11, 129120, Note_on_c, 10, 53, 32
11, 129120, Note_on_c, 10, 50, 32
11, 129312, Note_off_c, 10, 50, 64
11, 129312, Note_off_c, 10, 53, 64
11, 129360, Note_on_c, 10, 50, 32
11, 129360, Note_on_c, 10, 53, 32
11, 129552, Note_off_c, 10, 53, 64
11, 129552, Note_off_c, 10, 50, 64
11, 129600, Note_on_c, 10, 50, 32
11, 129600, Note_on_c, 10, 53, 32
11, 129792, Note_off_c, 10, 53, 64
11, 129792, Note_off_c, 10, 50, 64
11, 129840, Note_on_c, 10, 53, 32
11, 129840, Note_on_c, 10, 50, 32
11, 130032, Note_off_c, 10, 50, 64
11, 130032, Note_off_c, 10, 53, 64
11, 130080, Note_on_c, 10, 50, 32
11, 130080, Note_on_c, 10, 53, 32
11, 130272, Note_off_c, 10, 53, 64
11, 130272, Note_off_c, 10, 50, 64
11, 130320, Note_on_c, 10, 50, 32
11, 130320, Note_on_c, 10, 53, 32
11, 130512, Note_off_c, 10, 53, 64
11, 130512, Note_off_c, 10, 50, 64
11, 130560, Note_on_c, 10, 50, 32
11, 130560, Note_on_c, 10, 53, 32
11, 130752, Note_off_c, 10, 53, 64
11, 130752, Note_off_c, 10, 50, 64
11, 130800, Note_on_c, 10, 50, 32
11, 130800, Note_on_c, 10, 53, 32
11, 130992, Note_off_c, 10, 53, 64
11, 130992, Note_off_c, 10, 50, 64
11, 131040, Note_on_c, 10, 50, 32
11, 131040, Note_on_c, 10, 53, 32
11, 131232, Note_off_c, 10, 53, 64
11, 131232, Note_off_c, 10, 50, 64
11, 131280, Note_on_c, 10, 53, 32
11, 131280, Note_on_c, 10, 50, 32
11, 131472, Note_off_c, 10, 50, 64
11, 131472, Note_off_c, 10, 53, 64
11, 131520, Note_on_c, 10, 53, 32
11, 131520, Note_on_c, 10, 50, 32
11, 131712, Note_off_c, 10, 50, 64
11, 131712, Note_off_c, 10, 53, 64
11, 131760, Note_on_c, 10, 50, 32
11, 131760, Note_on_c, 10, 53, 32
11, 131952, Note_off_c, 10, 53, 64
11, 131952, Note_off_c, 10, 50, 64
11, 132000, Note_on_c, 10, 50, 32
11, 132000, Note_on_c, 10, 53, 32
11, 132192, Note_off_c, 10, 53, 64
11, 132192, Note_off_c, 10, 50, 64
11, 132240, Note_on_c, 10, 50, 32
11, 132240, Note_on_c, 10, 53, 32
11, 132432, Note_off_c, 10, 53, 64
11, 132432, Note_off_c, 10, 50, 64
11, 132480, Note_on_c, 10, 53, 32
11, 132480, Note_on_c, 10, 50, 32
11, 132672, Note_off_c, 10, 50, 64
11, 132672, Note_off_c, 10, 53, 64
11, 132720, Note_on_c, 10, 50, 32
11, 132720, Note_on_c, 10, 53, 32
11, 132912, Note_off_c, 10, 53, 64
11, 132912, Note_off_c, 10, 50, 64
11, 132960, Note_on_c, 10, 50, 32
11, 132960, Note_on_c, 10, 53, 32
11, 133152, Note_off_c, 10, 53, 64
11, 133152, Note_off_c, 10, 50, 64
11, 133200, Note_on_c, 10, 50, 32
11, 133200, Note_on_c, 10, 53, 32
11, 133392, Note_off_c, 10, 53, 64
11, 133392, Note_off_c, 10, 50, 64
11, 133440, Note_on_c, 10, 50, 32
11, 133440, Note_on_c, 10, 53, 32
11, 133632, Note_off_c, 10, 53, 64
11, 133632, Note_off_c, 10, 50, 64
11, 133680, Note_on_c, 10, 50, 32
11, 133680, Note_on_c, 10, 53, 32
11, 133872, Note_off_c, 10, 53, 64
11, 133872, Note_off_c, 10, 50, 64
11, 133920, Note_on_c, 10, 50, 32
11, 133920, Note_on_c, 10, 53, 32
11, 134112, Note_off_c, 10, 53, 64
11, 134112, Note_off_c, 10, 50, 64
11, 134160, Note_on_c, 10, 53, 32
11, 134160, Note_on_c, 10, 50, 32
11, 134352, Note_off_c, 10, 50, 64
11, 134352, Note_off_c, 10, 53, 64
11, 134400, Note_on_c, 10, 53, 32
11, 134400, Note_on_c, 10, 50, 32
11, 134592, Note_off_c, 10, 50, 64
11, 134592, Note_off_c, 10, 53, 64
11, 134640, Note_on_c, 10, 50, 32
11, 134640, Note_on_c, 10, 53, 32
11, 134832, Note_off_c, 10, 53, 64
11, 134832, Note_off_c, 10, 50, 64
11, 134880, Note_on_c, 10, 50, 32
11, 134880, Note_on_c, 10, 53, 32
11, 135072, Note_off_c, 10, 53, 64
11, 135072, Note_off_c, 10, 50, 64
11, 135120, Note_on_c, 10, 50, 32
11, 135120, Note_on_c, 10, 53, 32
11, 135312, Note_off_c, 10, 53, 64
11, 135312, Note_off_c, 10, 50, 64
11, 135360, Note_on_c, 10, 50, 32
11, 135360, Note_on_c, 10, 53, 32
11, 135552, Note_off_c, 10, 53, 64
11, 135552, Note_off_c, 10, 50, 64
11, 135600, Note_on_c, 10, 50, 32
11, 135600, Note_on_c, 10, 53, 32
11, 135792, Note_off_c, 10, 53, 64
11, 135792, Note_off_c, 10, 50, 64
11, 135840, Note_on_c, 10, 50, 32
11, 135840, Note_on_c, 10, 53, 32
11, 136032, Note_off_c, 10, 53, 64
11, 136032, Note_off_c, 10, 50, 64
11, 136080, Note_on_c, 10, 53, 32
11, 136080, Note_on_c, 10, 50, 32
11, 136272, Note_off_c, 10, 50, 64
11, 136272, Note_off_c, 10, 53, 64
11, 136320, Note_on_c, 10, 54, 32
11, 136320, Note_on_c, 10, 51, 32
11, 136512, Note_off_c, 10, 51, 64
11, 136512, Note_off_c, 10, 54, 64
11, 136560, Note_on_c, 10, 51, 32
11, 136560, Note_on_c, 10, 54, 32
11, 136752, Note_off_c, 10, 54, 64
11, 136752, Note_off_c, 10, 51, 64
11, 136800, Note_on_c, 10, 54, 32
11, 136800, Note_on_c, 10, 51, 32
11, 136992, Note_off_c, 10, 51, 64
11, 136992, Note_off_c, 10, 54, 64
11, 137040, Note_on_c, 10, 51, 32
11, 137040, Note_on_c, 10, 54, 32
11, 137232, Note_off_c, 10, 54, 64
11, 137232, Note_off_c, 10, 51, 64
11, 137280, Note_on_c, 10, 54, 32
11, 137280, Note_on_c, 10, 51, 32
11, 137472, Note_off_c, 10, 51, 64
11, 137472, Note_off_c, 10, 54, 64
11, 137520, Note_on_c, 10, 51, 32
11, 137520, Note_on_c, 10, 54, 32
11, 137712, Note_off_c, 10, 54, 64
11, 137712, Note_off_c, 10, 51, 64
11, 137760, Note_on_c, 10, 51, 32
11, 137760, Note_on_c, 10, 54, 32
11, 137952, Note_off_c, 10, 54, 64
11, 137952, Note_off_c, 10, 51, 64
11, 138000, Note_on_c, 10, 51, 32
11, 138000, Note_on_c, 10, 54, 32
11, 138192, Note_off_c, 10, 54, 64
11, 138192, Note_off_c, 10, 51, 64
11, 138240, Note_on_c, 10, 51, 32
11, 138240, Note_on_c, 10, 54, 32
11, 138432, Note_off_c, 10, 54, 64
11, 138432, Note_off_c, 10, 51, 64
11, 138480, Note_on_c, 10, 54, 32
11, 138480, Note_on_c, 10, 51, 32
11, 138672, Note_off_c, 10, 51, 64
11, 138672, Note_off_c, 10, 54, 64
11, 138720, Note_on_c, 10, 51, 32
11, 138720, Note_on_c, 10, 54, 32
11, 138912, Note_off_c, 10, 54, 64
11, 138912, Note_off_c, 10, 51, 64
11, 138960, Note_on_c, 10, 54, 32
11, 138960, Note_on_c, 10, 51, 32
11, 139152, Note_off_c, 10, 51, 64
11, 139152, Note_off_c, 10, 54, 64
11, 139200, Note_on_c, 10, 54, 32
11, 139200, Note_on_c, 10, 51, 32
11, 139392, Note_off_c, 10, 51, 64
11, 139392, Note_off_c, 10, 54, 64
11, 139440, Note_on_c, 10, 54, 32
11, 139440, Note_on_c, 10, 51, 32
11, 139632, Note_off_c, 10, 51, 64
11, 139632, Note_off_c, 10, 54, 64
11, 139680, Note_on_c, 10, 51, 32
11, 139680, Note_on_c, 10, 54, 32
11, 139872, Note_off_c, 10, 54, 64
11, 139872, Note_off_c, 10, 51, 64
11, 139920, Note_on_c, 10, 51, 32
11, 139920, Note_on_c, 10, 54, 32
11, 140112, Note_off_c, 10, 54, 64
11, 140112, Note_off_c, 10, 51, 64
11, 140160, Note_on_c, 10, 51, 32
11, 140160, Note_on_c, 10, 54, 32
11, 140352, Note_off_c, 10, 54, 64
11, 140352, Note_off_c, 10, 51, 64
11, 140400, Note_on_c, 10, 54, 32
11, 140400, Note_on_c, 10, 51, 32
11, 140592, Note_off_c, 10, 51, 64
11, 140592, Note_off_c, 10, 54, 64
11, 140640, Note_on_c, 10, 54, 32
11, 140640, Note_on_c, 10, 51, 32
11, 140832, Note_off_c, 10, 51, 64
11, 140832, Note_off_c, 10, 54, 64
11, 140880, Note_on_c, 10, 54, 32
11, 140880, Note_on_c, 10, 51, 32
11, 141072, Note_off_c, 10, 51, 64
11, 141072, Note_off_c, 10, 54, 64
11, 141120, Note_on_c, 10, 54, 32
11, 141120, Note_on_c, 10, 51, 32
11, 141312, Note_off_c, 10, 51, 64
11, 141312, Note_off_c, 10, 54, 64
11, 141360, Note_on_c, 10, 54, 32
11, 141360, Note_on_c, 10, 51, 32
11, 141552, Note_off_c, 10, 51, 64
11, 141552, Note_off_c, 10, 54, 64
11, 141600, Note_on_c, 10, 51, 32
11, 141600, Note_on_c, 10, 54, 32
11, 141792, Note_off_c, 10, 54, 64
11, 141792, Note_off_c, 10, 51, 64
11, 141840, Note_on_c, 10, 51, 32
11, 141840, Note_on_c, 10, 54, 32
11, 142032, Note_off_c, 10, 54, 64
11, 142032, Note_off_c, 10, 51, 64
11, 142080, Note_on_c, 10, 51, 35
11, 142080, Note_on_c, 10, 54, 35
11, 142272, Note_off_c, 10, 54, 64
11, 142272, Note_off_c, 10, 51, 64
11, 142320, Note_on_c, 10, 54, 35
11, 142320, Note_on_c, 10, 51, 35
11, 142512, Note_off_c, 10, 51, 64
11, 142512, Note_off_c, 10, 54, 64
11, 142560, Note_on_c, 10, 54, 35
11, 142560, Note_on_c, 10, 51, 35
11, 142752, Note_off_c, 10, 51, 64
11, 142752, Note_off_c, 10, 54, 64
11, 142800, Note_on_c, 10, 54, 35
11, 142800, Note_on_c, 10, 51, 35
11, 142992, Note_off_c, 10, 51, 64
11, 142992, Note_off_c, 10, 54, 64
11, 143040, Note_on_c, 10, 54, 35
11, 143040, Note_on_c, 10, 51, 35
11, 143232, Note_off_c, 10, 51, 64
11, 143232, Note_off_c, 10, 54, 64
11, 143280, Note_on_c, 10, 54, 35
11, 143280, Note_on_c, 10, 51, 35
11, 143472, Note_off_c, 10, 51, 64
11, 143472, Note_off_c, 10, 54, 64
11, 143520, Note_on_c, 10, 51, 35
11, 143520, Note_on_c, 10, 54, 35
11, 143712, Note_off_c, 10, 54, 64
11, 143712, Note_off_c, 10, 51, 64
11, 143760, Note_on_c, 10, 51, 35
11, 143760, Note_on_c, 10, 54, 35
11, 143952, Note_off_c, 10, 54, 64
11, 143952, Note_off_c, 10, 51, 64
11, 144000, Note_on_c, 10, 56, 32
11, 144000, Note_on_c, 10, 53, 32
11, 144192, Note_off_c, 10, 53, 64
11, 144192, Note_off_c, 10, 56, 64
11, 144240, Note_on_c, 10, 53, 32
11, 144240, Note_on_c, 10, 56, 32
11, 144432, Note_off_c, 10, 56, 64
11, 144432, Note_off_c, 10, 53, 64
11, 144480, Note_on_c, 10, 53, 32
11, 144480, Note_on_c, 10, 56, 32
11, 144672, Note_off_c, 10, 56, 64
11, 144672, Note_off_c, 10, 53, 64
11, 144720, Note_on_c, 10, 53, 32
11, 144720, Note_on_c, 10, 56, 32
11, 144912, Note_off_c, 10, 56, 64
11, 144912, Note_off_c, 10, 53, 64
11, 144960, Note_on_c, 10, 56, 32
11, 144960, Note_on_c, 10, 53, 32
11, 145152, Note_off_c, 10, 53, 64
11, 145152, Note_off_c, 10, 56, 64
11, 145200, Note_on_c, 10, 53, 32
11, 145200, Note_on_c, 10, 56, 32
11, 145392, Note_off_c, 10, 56, 64
11, 145392, Note_off_c, 10, 53, 64
11, 145440, Note_on_c, 10, 56, 32
11, 145440, Note_on_c, 10, 53, 32
11, 145632, Note_off_c, 10, 53, 64
11, 145632, Note_off_c, 10, 56, 64
11, 145680, Note_on_c, 10, 53, 32
11, 145680, Note_on_c, 10, 56, 32
11, 145872, Note_off_c, 10, 56, 64
11, 145872, Note_off_c, 10, 53, 64
11, 145920, Note_on_c, 10, 56, 32
11, 145920, Note_on_c, 10, 53, 32
11, 146112, Note_off_c, 10, 53, 64
11, 146112, Note_off_c, 10, 56, 64
11, 146160, Note_on_c, 10, 53, 32
11, 146160, Note_on_c, 10, 56, 32
11, 146352, Note_off_c, 10, 56, 64
11, 146352, Note_off_c, 10, 53, 64
11, 146400, Note_on_c, 10, 56, 32
11, 146400, Note_on_c, 10, 53, 32
11, 146592, Note_off_c, 10, 53, 64
11, 146592, Note_off_c, 10, 56, 64
11, 146640, Note_on_c, 10, 56, 32
11, 146640, Note_on_c, 10, 53, 32
11, 146832, Note_off_c, 10, 53, 64
11, 146832, Note_off_c, 10, 56, 64
11, 146880, Note_on_c, 10, 56, 32
11, 146880, Note_on_c, 10, 53, 32
11, 147072, Note_off_c, 10, 53, 64
11, 147072, Note_off_c, 10, 56, 64
11, 147120, Note_on_c, 10, 53, 32
11, 147120, Note_on_c, 10, 56, 32
11, 147312, Note_off_c, 10, 56, 64
11, 147312, Note_off_c, 10, 53, 64
11, 147360, Note_on_c, 10, 56, 32
11, 147360, Note_on_c, 10, 53, 32
11, 147552, Note_off_c, 10, 53, 64
11, 147552, Note_off_c, 10, 56, 64
11, 147600, Note_on_c, 10, 56, 32
11, 147600, Note_on_c, 10, 53, 32
11, 147792, Note_off_c, 10, 53, 64
11, 147792, Note_off_c, 10, 56, 64
11, 147840, Note_on_c, 10, 55, 32
11, 147840, Note_on_c, 10, 58, 32
11, 148032, Note_off_c, 10, 58, 64
11, 148032, Note_off_c, 10, 55, 64
11, 148080, Note_on_c, 10, 55, 32
11, 148080, Note_on_c, 10, 58, 32
11, 148272, Note_off_c, 10, 58, 64
11, 148272, Note_off_c, 10, 55, 64
11, 148320, Note_on_c, 10, 55, 32
11, 148320, Note_on_c, 10, 58, 32
11, 148512, Note_off_c, 10, 58, 64
11, 148512, Note_off_c, 10, 55, 64
11, 148560, Note_on_c, 10, 55, 32
11, 148560, Note_on_c, 10, 58, 32
11, 148752, Note_off_c, 10, 58, 64
11, 148752, Note_off_c, 10, 55, 64
11, 148800, Note_on_c, 10, 55, 32
11, 148800, Note_on_c, 10, 58, 32
11, 148992, Note_off_c, 10, 58, 64
11, 148992, Note_off_c, 10, 55, 64
11, 149040, Note_on_c, 10, 55, 32
11, 149040, Note_on_c, 10, 58, 32
11, 149232, Note_off_c, 10, 58, 64
11, 149232, Note_off_c, 10, 55, 64
11, 149280, Note_on_c, 10, 55, 32
11, 149280, Note_on_c, 10, 58, 32
11, 149472, Note_off_c, 10, 58, 64
11, 149472, Note_off_c, 10, 55, 64
11, 149520, Note_on_c, 10, 55, 32
11, 149520, Note_on_c, 10, 58, 32
11, 149712, Note_off_c, 10, 58, 64
11, 149712, Note_off_c, 10, 55, 64
11, 149760, Note_on_c, 10, 55, 32
11, 149760, Note_on_c, 10, 58, 32
11, 149952, Note_off_c, 10, 58, 64
11, 149952, Note_off_c, 10, 55, 64
11, 150000, Note_on_c, 10, 55, 32
11, 150000, Note_on_c, 10, 58, 32
11, 150192, Note_off_c, 10, 58, 64
11, 150192, Note_off_c, 10, 55, 64
11, 150240, Note_on_c, 10, 58, 32
11, 150240, Note_on_c, 10, 55, 32
11, 150432, Note_off_c, 10, 55, 64
11, 150432, Note_off_c, 10, 58, 64
11, 150480, Note_on_c, 10, 58, 32
11, 150480, Note_on_c, 10, 55, 32
11, 150672, Note_off_c, 10, 55, 64
11, 150672, Note_off_c, 10, 58, 64
11, 150720, Note_on_c, 10, 58, 32
11, 150720, Note_on_c, 10, 55, 32
11, 150912, Note_off_c, 10, 55, 64
11, 150912, Note_off_c, 10, 58, 64
11, 150960, Note_on_c, 10, 58, 32
11, 150960, Note_on_c, 10, 55, 32
11, 151152, Note_off_c, 10, 55, 64
11, 151152, Note_off_c, 10, 58, 64
11, 151200, Note_on_c, 10, 58, 32
11, 151200, Note_on_c, 10, 55, 32
11, 151392, Note_off_c, 10, 55, 64
11, 151392, Note_off_c, 10, 58, 64
11, 151440, Note_on_c, 10, 58, 32
11, 151440, Note_on_c, 10, 55, 32
11, 151632, Note_off_c, 10, 55, 64
11, 151632, Note_off_c, 10, 58, 64
11, 151680, Note_on_c, 10, 60, 51
11, 151680, Note_on_c, 10, 63, 51
11, 151872, Note_off_c, 10, 63, 64
11, 151872, Note_off_c, 10, 60, 64
11, 151920, Note_on_c, 10, 60, 52
11, 151920, Note_on_c, 10, 63, 52
11, 152112, Note_off_c, 10, 63, 64
11, 152112, Note_off_c, 10, 60, 64
11, 152160, Note_on_c, 10, 60, 54
11, 152160, Note_on_c, 10, 63, 54
11, 152352, Note_off_c, 10, 63, 64
11, 152352, Note_off_c, 10, 60, 64
11, 152400, Note_on_c, 10, 63, 54
11, 152400, Note_on_c, 10, 60, 54
11, 152592, Note_off_c, 10, 60, 64
11, 152592, Note_off_c, 10, 63, 64
11, 152640, Note_on_c, 10, 60, 56
11, 152640, Note_on_c, 10, 63, 56
11, 152832, Note_off_c, 10, 63, 64
11, 152832, Note_off_c, 10, 60, 64
11, 152880, Note_on_c, 10, 63, 58
11, 152880, Note_on_c, 10, 60, 58
11, 153072, Note_off_c, 10, 60, 64
11, 153072, Note_off_c, 10, 63, 64
11, 153120, Note_on_c, 10, 60, 58
11, 153120, Note_on_c, 10, 63, 58
11, 153312, Note_off_c, 10, 63, 64
11, 153312, Note_off_c, 10, 60, 64
11, 153360, Note_on_c, 10, 60, 60
11, 153360, Note_on_c, 10, 63, 60
11, 153552, Note_off_c, 10, 63, 64
11, 153552, Note_off_c, 10, 60, 64
11, 153600, Note_on_c, 10, 60, 67
11, 153600, Note_on_c, 10, 63, 67
11, 153792, Note_off_c, 10, 63, 64
11, 153792, Note_off_c, 10, 60, 64
11, 153840, Note_on_c, 10, 63, 68
11, 153840, Note_on_c, 10, 60, 68
11, 154032, Note_off_c, 10, 60, 64
11, 154032, Note_off_c, 10, 63, 64
11, 154080, Note_on_c, 10, 63, 70
11, 154080, Note_on_c, 10, 60, 70
11, 154272, Note_off_c, 10, 60, 64
11, 154272, Note_off_c, 10, 63, 64
11, 154320, Note_on_c, 10, 63, 72
11, 154320, Note_on_c, 10, 60, 72
11, 154512, Note_off_c, 10, 60, 64
11, 154512, Note_off_c, 10, 63, 64
11, 154560, Note_on_c, 10, 60, 73
11, 154560, Note_on_c, 10, 63, 73
11, 154752, Note_off_c, 10, 63, 64
11, 154752, Note_off_c, 10, 60, 64
11, 154800, Note_on_c, 10, 63, 74
11, 154800, Note_on_c, 10, 60, 74
11, 154992, Note_off_c, 10, 60, 64
11, 154992, Note_off_c, 10, 63, 64
11, 155040, Note_on_c, 10, 63, 76
11, 155040, Note_on_c, 10, 60, 76
11, 155232, Note_off_c, 10, 60, 64
11, 155232, Note_off_c, 10, 63, 64
11, 155280, Note_on_c, 10, 60, 77
11, 155280, Note_on_c, 10, 63, 77
11, 155472, Note_off_c, 10, 63, 64
11, 155472, Note_off_c, 10, 60, 64
11, 155520, Note_on_c, 10, 60, 92
11, 155520, Note_on_c, 10, 63, 92
11, 155712, Note_off_c, 10, 63, 64
11, 155712, Note_off_c, 10, 60, 64
11, 155760, Note_on_c, 10, 63, 95
11, 155760, Note_on_c, 10, 60, 95
11, 155952, Note_off_c, 10, 60, 64
11, 155952, Note_off_c, 10, 63, 64
11, 156000, Note_on_c, 10, 60, 96
11, 156000, Note_on_c, 10, 63, 96
11, 156192, Note_off_c, 10, 63, 64
11, 156192, Note_off_c, 10, 60, 64
11, 156240, Note_on_c, 10, 63, 98
11, 156240, Note_on_c, 10, 60, 98
11, 156432, Note_off_c, 10, 60, 64
11, 156432, Note_off_c, 10, 63, 64
11, 156480, Note_on_c, 10, 60, 100
11, 156480, Note_on_c, 10, 63, 100
11, 156672, Note_off_c, 10, 63, 64
11, 156672, Note_off_c, 10, 60, 64
11, 156720, Note_on_c, 10, 63, 101
11, 156720, Note_on_c, 10, 60, 101
11, 156912, Note_off_c, 10, 60, 64
11, 156912, Note_off_c, 10, 63, 64
11, 156960, Note_on_c, 10, 63, 103
11, 156960, Note_on_c, 10, 60, 103
11, 157152, Note_off_c, 10, 60, 64
11, 157152, Note_off_c, 10, 63, 64
11, 157200, Note_on_c, 10, 60, 105
11, 157200, Note_on_c, 10, 63, 105
11, 157392, Note_off_c, 10, 63, 64
11, 157392, Note_off_c, 10, 60, 64
11, 157440, Note_on_c, 10, 63, 107
11, 157440, Note_on_c, 10, 60, 107
11, 157632, Note_off_c, 10, 60, 64
11, 157632, Note_off_c, 10, 63, 64
11, 157680, Note_on_c, 10, 60, 108
11, 157680, Note_on_c, 10, 63, 108
11, 157872, Note_off_c, 10, 63, 64
11, 157872, Note_off_c, 10, 60, 64
11, 157920, Note_on_c, 10, 63, 109
11, 157920, Note_on_c, 10, 60, 109
11, 158112, Note_off_c, 10, 60, 64
11, 158112, Note_off_c, 10, 63, 64
11, 158160, Note_on_c, 10, 60, 112
11, 158160, Note_on_c, 10, 63, 112
11, 158352, Note_off_c, 10, 63, 64
11, 158352, Note_off_c, 10, 60, 64
11, 158400, Note_on_c, 10, 60, 113
11, 158400, Note_on_c, 10, 63, 113
11, 158592, Note_off_c, 10, 63, 64
11, 158592, Note_off_c, 10, 60, 64
11, 158760, Note_on_c, 10, 65, 127
11, 158856, Note_off_c, 10, 65, 64
11, 158880, Note_on_c, 10, 67, 127
11, 158976, Note_off_c, 10, 67, 64
11, 159000, Note_on_c, 10, 69, 127
11, 159096, Note_off_c, 10, 69, 64
11, 159120, Note_on_c, 10, 70, 127
11, 159216, Note_off_c, 10, 70, 64
11, 159240, Note_on_c, 10, 72, 127
11, 159336, Note_off_c, 10, 72, 64
11, 159360, Note_on_c, 10, 74, 127
11, 159600, Note_off_c, 10, 74, 64
11, 159600, Note_on_c, 10, 74, 127
11, 159600, Note_on_c, 10, 74, 127
11, 159840, Note_off_c, 10, 74, 64
11, 159840, Note_off_c, 10, 74, 64
11, 159840, Note_on_c, 10, 70, 127
11, 160080, Note_off_c, 10, 70, 64
11, 160080, Note_on_c, 10, 70, 127
11, 160320, Note_off_c, 10, 70, 64
11, 160320, Note_on_c, 10, 65, 127
11, 160560, Note_off_c, 10, 65, 64
11, 160560, Note_on_c, 10, 65, 127
11, 160800, Note_off_c, 10, 65, 64
11, 160800, Note_on_c, 10, 70, 127
11, 161040, Note_off_c, 10, 70, 64
11, 161040, Note_on_c, 10, 70, 127
11, 161280, Note_off_c, 10, 70, 64
11, 161280, Note_on_c, 10, 62, 127
11, 161520, Note_off_c, 10, 62, 64
11, 161520, Note_on_c, 10, 62, 127
11, 161760, Note_off_c, 10, 62, 64
11, 161760, Note_on_c, 10, 65, 127
11, 162000, Note_off_c, 10, 65, 64
11, 162000, Note_on_c, 10, 65, 127
11, 162240, Note_off_c, 10, 65, 64
11, 162240, Note_on_c, 10, 58, 127
11, 162480, Note_off_c, 10, 58, 64
11, 162480, Note_on_c, 10, 58, 127
11, 162720, Note_off_c, 10, 58, 64
11, 162720, Note_on_c, 10, 62, 127
11, 162960, Note_off_c, 10, 62, 64
11, 162960, Note_on_c, 10, 62, 127
11, 163200, Note_off_c, 10, 62, 64
11, 163200, Note_on_c, 10, 55, 127
11, 163440, Note_off_c, 10, 55, 64
11, 163440, Note_on_c, 10, 55, 127
11, 163680, Note_off_c, 10, 55, 64
11, 163680, Note_on_c, 10, 63, 127
11, 163920, Note_off_c, 10, 63, 64
11, 163920, Note_on_c, 10, 63, 127
11, 164160, Note_off_c, 10, 63, 64
11, 164160, Note_on_c, 10, 60, 127
11, 164400, Note_off_c, 10, 60, 64
11, 164400, Note_on_c, 10, 60, 127
11, 164640, Note_off_c, 10, 60, 64
11, 164640, Note_on_c, 10, 58, 127
11, 164880, Note_off_c, 10, 58, 64
11, 164880, Note_on_c, 10, 58, 127
11, 165120, Note_off_c, 10, 58, 64
11, 165120, Note_on_c, 10, 57, 127
11, 165360, Note_off_c, 10, 57, 64
11, 165360, Note_on_c, 10, 57, 127
11, 165600, Note_off_c, 10, 57, 64
11, 165600, Note_on_c, 10, 65, 127
11, 165840, Note_off_c, 10, 65, 64
11, 165840, Note_on_c, 10, 65, 127
11, 166080, Note_off_c, 10, 65, 64
11, 166080, Note_on_c, 10, 63, 127
11, 166320, Note_off_c, 10, 63, 64
11, 166320, Note_on_c, 10, 63, 127
11, 166560, Note_off_c, 10, 63, 64
11, 166560, Note_on_c, 10, 60, 127
11, 166800, Note_off_c, 10, 60, 64
11, 166800, Note_on_c, 10, 60, 127
11, 167040, Note_off_c, 10, 60, 64
11, 167040, Note_on_c, 10, 58, 127
11, 170496, Note_off_c, 10, 58, 64
11, 170880, Note_on_c, 10, 63, 127
11, 172416, Note_off_c, 10, 63, 64
11, 172800, Note_on_c, 10, 65, 127
11, 174336, Note_off_c, 10, 65, 64
11, 174720, Note_on_c, 10, 58, 127
11, 176256, Note_off_c, 10, 58, 64
11, 176640, Note_on_c, 10, 57, 127
11, 178176, Note_off_c, 10, 57, 64
11, 178560, Note_on_c, 10, 62, 127
11, 180096, Note_off_c, 10, 62, 64
11, 180480, Note_on_c, 10, 60, 127
11, 182850, Note_off_c, 10, 60, 64
11, 186240, Note_on_c, 10, 48, 127
11, 186624, Note_off_c, 10, 48, 64
11, 192480, Note_on_c, 10, 53, 125
11, 193440, Note_off_c, 10, 53, 64
11, 193440, Note_on_c, 10, 48, 96
11, 193776, Note_off_c, 10, 48, 64
11, 193920, Note_on_c, 10, 48, 127
11, 194256, Note_off_c, 10, 48, 64
11, 194400, Note_on_c, 10, 60, 96
11, 194400, Note_on_c, 10, 48, 96
11, 195168, Note_off_c, 10, 48, 64
11, 195168, Note_off_c, 10, 60, 64
11, 195360, Note_on_c, 10, 48, 96
11, 195360, Note_on_c, 10, 60, 96
11, 196224, Note_off_c, 10, 60, 64
11, 196224, Note_off_c, 10, 48, 64
11, 196320, Note_on_c, 10, 48, 96
11, 196320, Note_on_c, 10, 60, 96
11, 197088, Note_off_c, 10, 60, 64
11, 197088, Note_off_c, 10, 48, 64
11, 197280, Note_on_c, 10, 48, 96
11, 197280, Note_on_c, 10, 60, 96
11, 198144, Note_off_c, 10, 60, 64
11, 198144, Note_off_c, 10, 48, 64
11, 198240, Note_on_c, 10, 48, 96
11, 198240, Note_on_c, 10, 60, 96
11, 199008, Note_off_c, 10, 60, 64
11, 199008, Note_off_c, 10, 48, 64
11, 199200, Note_on_c, 10, 48, 96
11, 199200, Note_on_c, 10, 60, 96
11, 200064, Note_off_c, 10, 60, 64
11, 200064, Note_off_c, 10, 48, 64
11, 200160, Note_on_c, 10, 48, 125
11, 200160, Note_on_c, 10, 60, 125
11, 201120, Note_off_c, 10, 60, 64
11, 201120, Note_off_c, 10, 48, 64
11, 201120, Note_on_c, 10, 48, 96
11, 201120, Note_on_c, 10, 60, 96
11, 201504, Note_off_c, 10, 60, 64
11, 201504, Note_off_c, 10, 48, 64
11, 201600, Note_on_c, 10, 60, 80
11, 203040, Note_off_c, 10, 60, 64
11, 203040, Note_on_c, 10, 62, 80
11, 203520, Note_off_c, 10, 62, 64
11, 203520, Note_on_c, 10, 55, 80
11, 204000, Note_off_c, 10, 55, 64
11, 204000, Note_on_c, 10, 57, 80
11, 204480, Note_off_c, 10, 57, 64
11, 204480, Note_on_c, 10, 58, 80
11, 204960, Note_off_c, 10, 58, 64
11, 204960, Note_on_c, 10, 52, 80
11, 205440, Note_off_c, 10, 52, 64
11, 205440, Note_on_c, 10, 53, 80
11, 205920, Note_off_c, 10, 53, 64
11, 205920, Note_on_c, 10, 55, 80
11, 206400, Note_off_c, 10, 55, 64
11, 206400, Note_on_c, 10, 48, 64
11, 206880, Note_off_c, 10, 48, 64
11, 206880, Note_on_c, 10, 50, 64
11, 206880, Note_on_c, 10, 62, 64
11, 207360, Note_off_c, 10, 62, 64
11, 207360, Note_off_c, 10, 50, 64
11, 207360, Note_on_c, 10, 58, 64
11, 207360, Note_on_c, 10, 46, 64
11, 207840, Note_off_c, 10, 46, 64
11, 207840, Note_off_c, 10, 58, 64
11, 207840, Note_on_c, 10, 57, 64
11, 207840, Note_on_c, 10, 45, 64
11, 208320, Note_off_c, 10, 45, 64
11, 208320, Note_off_c, 10, 57, 64
11, 208320, Note_on_c, 10, 55, 51
11, 208320, Note_on_c, 10, 43, 51
11, 208800, Note_off_c, 10, 43, 64
11, 208800, Note_off_c, 10, 55, 64
11, 208800, Note_on_c, 10, 60, 51
11, 208800, Note_on_c, 10, 48, 51
11, 209280, Note_off_c, 10, 48, 64
11, 209280, Note_off_c, 10, 60, 64
11, 209280, Note_on_c, 10, 53, 34
11, 213120, Note_off_c, 10, 53, 64
11, 213120, Note_on_c, 10, 60, 34
11, 216960, Note_off_c, 10, 60, 64
11, 216960, Note_on_c, 10, 57, 34
11, 220800, Note_off_c, 10, 57, 64
11, 220800, Note_on_c, 10, 57, 32
11, 220992, Note_off_c, 10, 57, 64
11, 222240, Note_on_c, 10, 57, 32
11, 222432, Note_off_c, 10, 57, 64
11, 222720, Note_on_c, 10, 57, 32
11, 222912, Note_off_c, 10, 57, 64
11, 224160, Note_on_c, 10, 57, 32
11, 224352, Note_off_c, 10, 57, 64
11, 224640, Note_on_c, 10, 57, 32
11, 224832, Note_off_c, 10, 57, 64
11, 226080, Note_on_c, 10, 57, 32
11, 226272, Note_off_c, 10, 57, 64
11, 226560, Note_on_c, 10, 57, 32
11, 226752, Note_off_c, 10, 57, 64
11, 228000, Note_on_c, 10, 57, 32
11, 228192, Note_off_c, 10, 57, 64
11, 228480, Note_on_c, 10, 57, 40
11, 228672, Note_off_c, 10, 57, 64
11, 228960, Note_on_c, 10, 52, 40
11, 228960, Note_on_c, 10, 49, 40
11, 229152, Note_off_c, 10, 49, 64
11, 229152, Note_off_c, 10, 52, 64
11, 229440, Note_on_c, 10, 57, 40
11, 229632, Note_off_c, 10, 57, 64
11, 230880, Note_on_c, 10, 53, 40
11, 230880, Note_on_c, 10, 50, 40
11, 231072, Note_off_c, 10, 50, 64
11, 231072, Note_off_c, 10, 53, 64
11, 231360, Note_on_c, 10, 53, 40
11, 231360, Note_on_c, 10, 57, 40
11, 231552, Note_off_c, 10, 57, 64
11, 231552, Note_off_c, 10, 53, 64
11, 232800, Note_on_c, 10, 55, 40
11, 232800, Note_on_c, 10, 52, 40
11, 232992, Note_off_c, 10, 52, 64
11, 232992, Note_off_c, 10, 55, 64
11, 233280, Note_on_c, 10, 57, 40
11, 233280, Note_on_c, 10, 55, 40
11, 233472, Note_off_c, 10, 55, 64
11, 233472, Note_off_c, 10, 57, 64
11, 234720, Note_on_c, 10, 53, 40
11, 234720, Note_on_c, 10, 50, 40
11, 234912, Note_off_c, 10, 50, 64
11, 234912, Note_off_c, 10, 53, 64
11, 235200, Note_on_c, 10, 50, 40
11, 235200, Note_on_c, 10, 53, 40
11, 235392, Note_off_c, 10, 53, 64
11, 235392, Note_off_c, 10, 50, 64
11, 235680, Note_on_c, 10, 50, 40
11, 235680, Note_on_c, 10, 53, 40
11, 235872, Note_off_c, 10, 53, 64
11, 235872, Note_off_c, 10, 50, 64
11, 257280, Note_on_c, 10, 60, 92
11, 257760, Note_off_c, 10, 60, 64
11, 258240, Note_on_c, 10, 70, 96
11, 258720, Note_off_c, 10, 70, 64
11, 259200, Note_on_c, 10, 67, 92
11, 259680, Note_off_c, 10, 67, 64
11, 260160, Note_on_c, 10, 64, 96
11, 260640, Note_off_c, 10, 64, 64
11, 261120, Note_on_c, 10, 60, 92
11, 261600, Note_off_c, 10, 60, 64
11, 262080, Note_on_c, 10, 58, 96
11, 262560, Note_off_c, 10, 58, 64
11, 263040, Note_on_c, 10, 57, 80
11, 263328, Note_off_c, 10, 57, 64
11, 263520, Note_on_c, 10, 65, 80
11, 264288, Note_off_c, 10, 65, 64
11, 264480, Note_on_c, 10, 65, 80
11, 264768, Note_off_c, 10, 65, 64
11, 264960, Note_on_c, 10, 65, 80
11, 265248, Note_off_c, 10, 65, 64
11, 265440, Note_on_c, 10, 62, 80
11, 266208, Note_off_c, 10, 62, 64
11, 266400, Note_on_c, 10, 67, 80
11, 266688, Note_off_c, 10, 67, 64
11, 266880, Note_on_c, 10, 65, 80
11, 267168, Note_off_c, 10, 65, 64
11, 267360, Note_on_c, 10, 60, 80
11, 268128, Note_off_c, 10, 60, 64
11, 268320, Note_on_c, 10, 60, 80
11, 268320, Note_on_c, 10, 65, 80
11, 268608, Note_off_c, 10, 65, 64
11, 268608, Note_off_c, 10, 60, 64
11, 268800, Note_on_c, 10, 60, 80
11, 268800, Note_on_c, 10, 64, 80
11, 269088, Note_off_c, 10, 64, 64
11, 269088, Note_off_c, 10, 60, 64
11, 269280, Note_on_c, 10, 60, 80
11, 269280, Note_on_c, 10, 64, 80
11, 269568, Note_off_c, 10, 64, 64
11, 269568, Note_off_c, 10, 60, 64
11, 269760, Note_on_c, 10, 64, 80
11, 269760, Note_on_c, 10, 60, 80
11, 270048, Note_off_c, 10, 60, 64
11, 270048, Note_off_c, 10, 64, 64
11, 270240, Note_on_c, 10, 60, 80
11, 270240, Note_on_c, 10, 64, 80
11, 270528, Note_off_c, 10, 64, 64
11, 270528, Note_off_c, 10, 60, 64
11, 270720, Note_on_c, 10, 60, 80
11, 270720, Note_on_c, 10, 65, 80
11, 271200, Note_off_c, 10, 65, 64
11, 271200, Note_off_c, 10, 60, 64
11, 271200, Note_on_c, 10, 60, 80
11, 271440, Note_off_c, 10, 60, 64
11, 271680, Note_on_c, 10, 62, 80
11, 272160, Note_off_c, 10, 62, 64
11, 272160, Note_on_c, 10, 67, 80
11, 272400, Note_off_c, 10, 67, 64
11, 272640, Note_on_c, 10, 60, 80
11, 273120, Note_off_c, 10, 60, 64
11, 273120, Note_on_c, 10, 65, 80
11, 273360, Note_off_c, 10, 65, 64
11, 273600, Note_on_c, 10, 58, 80
11, 274080, Note_off_c, 10, 58, 64
11, 274080, Note_on_c, 10, 64, 80
11, 274320, Note_off_c, 10, 64, 64
11, 274560, Note_on_c, 10, 57, 56
11, 274944, Note_off_c, 10, 57, 64
11, 276480, Note_on_c, 10, 57, 32
11, 277920, Note_off_c, 10, 57, 64
11, 277920, Note_on_c, 10, 60, 32
11, 278400, Note_off_c, 10, 60, 64
11, 278400, Note_on_c, 10, 60, 32
11, 278880, Note_off_c, 10, 60, 64
11, 280320, Note_on_c, 10, 57, 32
11, 281760, Note_off_c, 10, 57, 64
11, 281760, Note_on_c, 10, 58, 32
11, 282240, Note_off_c, 10, 58, 64
11, 282240, Note_on_c, 10, 58, 32
11, 282720, Note_off_c, 10, 58, 64
11, 284160, Note_on_c, 10, 58, 32
11, 285600, Note_off_c, 10, 58, 64
11, 285600, Note_on_c, 10, 58, 32
11, 286080, Note_off_c, 10, 58, 64
11, 286080, Note_on_c, 10, 58, 32
11, 286560, Note_off_c, 10, 58, 64
11, 288000, Note_on_c, 10, 55, 32
11, 289440, Note_off_c, 10, 55, 64
11, 289440, Note_on_c, 10, 64, 104
11, 289632, Note_off_c, 10, 64, 64
11, 289680, Note_on_c, 10, 64, 104
11, 289872, Note_off_c, 10, 64, 64
11, 289920, Note_on_c, 10, 65, 104
11, 290112, Note_off_c, 10, 65, 64
11, 291360, Note_on_c, 10, 60, 104
11, 291552, Note_off_c, 10, 60, 64
11, 291600, Note_on_c, 10, 60, 104
11, 291792, Note_off_c, 10, 60, 64
11, 291840, Note_on_c, 10, 57, 104
11, 292032, Note_off_c, 10, 57, 64
11, 292080, Note_on_c, 10, 57, 104
11, 292272, Note_off_c, 10, 57, 64
11, 292320, Note_on_c, 10, 58, 104
11, 292512, Note_off_c, 10, 58, 64
11, 292560, Note_on_c, 10, 58, 104
11, 292752, Note_off_c, 10, 58, 64
11, 292800, Note_on_c, 10, 60, 104
11, 292992, Note_off_c, 10, 60, 64
11, 293040, Note_on_c, 10, 60, 104
11, 293232, Note_off_c, 10, 60, 64
11, 293280, Note_on_c, 10, 48, 104
11, 293472, Note_off_c, 10, 48, 64
11, 293520, Note_on_c, 10, 48, 104
11, 293712, Note_off_c, 10, 48, 64
11, 293760, Note_on_c, 10, 53, 104
11, 294912, Note_off_c, 10, 53, 64
11, 295200, Note_on_c, 10, 55, 104
11, 295392, Note_off_c, 10, 55, 64
11, 295440, Note_on_c, 10, 55, 104
11, 295632, Note_off_c, 10, 55, 64
11, 295680, Note_on_c, 10, 57, 104
11, 295872, Note_off_c, 10, 57, 64
11, 295920, Note_on_c, 10, 57, 104
11, 296112, Note_off_c, 10, 57, 64
11, 296160, Note_on_c, 10, 53, 104
11, 296352, Note_off_c, 10, 53, 64
11, 296400, Note_on_c, 10, 53, 104
11, 296592, Note_off_c, 10, 53, 64
11, 296640, Note_on_c, 10, 57, 104
11, 296832, Note_off_c, 10, 57, 64
11, 296880, Note_on_c, 10, 57, 104
11, 297072, Note_off_c, 10, 57, 64
11, 297120, Note_on_c, 10, 58, 104
11, 297312, Note_off_c, 10, 58, 64
11, 297360, Note_on_c, 10, 58, 104
11, 297552, Note_off_c, 10, 58, 64
11, 297600, Note_on_c, 10, 60, 104
11, 298752, Note_off_c, 10, 60, 64
11, 299040, Note_on_c, 10, 62, 104
11, 299232, Note_off_c, 10, 62, 64
11, 299280, Note_on_c, 10, 62, 104
11, 299472, Note_off_c, 10, 62, 64
11, 299520, Note_on_c, 10, 64, 104
11, 299712, Note_off_c, 10, 64, 64
11, 299760, Note_on_c, 10, 64, 104
11, 299952, Note_off_c, 10, 64, 64
11, 300000, Note_on_c, 10, 65, 104
11, 300192, Note_off_c, 10, 65, 64
11, 300240, Note_on_c, 10, 65, 104
11, 300432, Note_off_c, 10, 65, 64
11, 300480, Note_on_c, 10, 67, 104
11, 300672, Note_off_c, 10, 67, 64
11, 300720, Note_on_c, 10, 67, 104
11, 300912, Note_off_c, 10, 67, 64
11, 300960, Note_on_c, 10, 65, 104
11, 301152, Note_off_c, 10, 65, 64
11, 301200, Note_on_c, 10, 65, 104
11, 301392, Note_off_c, 10, 65, 64
11, 301440, Note_on_c, 10, 64, 104
11, 302592, Note_off_c, 10, 64, 64
11, 302880, Note_on_c, 10, 62, 104
11, 303072, Note_off_c, 10, 62, 64
11, 303120, Note_on_c, 10, 62, 104
11, 303312, Note_off_c, 10, 62, 64
11, 303360, Note_on_c, 10, 60, 104
11, 303552, Note_off_c, 10, 60, 64
11, 303600, Note_on_c, 10, 60, 104
11, 303792, Note_off_c, 10, 60, 64
11, 303840, Note_on_c, 10, 62, 104
11, 304032, Note_off_c, 10, 62, 64
11, 304080, Note_on_c, 10, 62, 104
11, 304272, Note_off_c, 10, 62, 64
11, 304320, Note_on_c, 10, 58, 83
11, 304512, Note_off_c, 10, 58, 64
11, 304560, Note_on_c, 10, 58, 83
11, 304752, Note_off_c, 10, 58, 64
11, 304800, Note_on_c, 10, 55, 83
11, 304992, Note_off_c, 10, 55, 64
11, 305040, Note_on_c, 10, 55, 83
11, 305232, Note_off_c, 10, 55, 64
11, 305280, Note_on_c, 10, 52, 66
11, 305730, Note_off_c, 10, 52, 64
11, 307680, Note_on_c, 10, 74, 40
11, 308160, Note_off_c, 10, 74, 64
11, 308160, Note_on_c, 10, 70, 40
11, 308640, Note_off_c, 10, 70, 64
11, 308640, Note_on_c, 10, 67, 40
11, 309024, Note_off_c, 10, 67, 64
11, 309120, Note_on_c, 10, 64, 40
11, 309312, Note_off_c, 10, 64, 64
11, 309360, Note_on_c, 10, 64, 40
11, 309552, Note_off_c, 10, 64, 64
11, 309600, Note_on_c, 10, 64, 40
11, 309792, Note_off_c, 10, 64, 64
11, 309840, Note_on_c, 10, 64, 40
11, 310032, Note_off_c, 10, 64, 64
11, 310080, Note_on_c, 10, 64, 40
11, 310272, Note_off_c, 10, 64, 64
11, 310320, Note_on_c, 10, 64, 40
11, 310512, Note_off_c, 10, 64, 64
11, 310560, Note_on_c, 10, 64, 40
11, 310752, Note_off_c, 10, 64, 64
11, 310800, Note_on_c, 10, 64, 40
11, 310992, Note_off_c, 10, 64, 64
11, 311040, Note_on_c, 10, 64, 40
11, 311232, Note_off_c, 10, 64, 64
11, 311280, Note_on_c, 10, 64, 40
11, 311472, Note_off_c, 10, 64, 64
11, 311520, Note_on_c, 10, 64, 40
11, 311712, Note_off_c, 10, 64, 64
11, 311760, Note_on_c, 10, 64, 40
11, 311952, Note_off_c, 10, 64, 64
11, 312000, Note_on_c, 10, 64, 40
11, 312192, Note_off_c, 10, 64, 64
11, 312240, Note_on_c, 10, 64, 40
11, 312432, Note_off_c, 10, 64, 64
11, 312480, Note_on_c, 10, 64, 40
11, 312672, Note_off_c, 10, 64, 64
11, 312720, Note_on_c, 10, 64, 40
11, 312912, Note_off_c, 10, 64, 64
11, 312960, Note_on_c, 10, 65, 127
11, 313200, Note_off_c, 10, 65, 64
11, 314400, Note_on_c, 10, 62, 127
11, 314640, Note_off_c, 10, 62, 64
11, 314880, Note_on_c, 10, 58, 127
11, 315120, Note_off_c, 10, 58, 64
11, 315840, Note_on_c, 10, 60, 127
11, 315840, Note_on_c, 10, 48, 127
11, 316080, Note_off_c, 10, 48, 64
11, 316080, Note_off_c, 10, 60, 64
11, 316800, Note_on_c, 10, 64, 40
11, 316992, Note_off_c, 10, 64, 64
11, 317040, Note_on_c, 10, 64, 40
11, 317232, Note_off_c, 10, 64, 64
11, 317280, Note_on_c, 10, 64, 40
11, 317472, Note_off_c, 10, 64, 64
11, 317520, Note_on_c, 10, 64, 40
11, 317712, Note_off_c, 10, 64, 64
11, 317760, Note_on_c, 10, 64, 40
11, 317952, Note_off_c, 10, 64, 64
11, 318000, Note_on_c, 10, 64, 40
11, 318192, Note_off_c, 10, 64, 64
11, 318240, Note_on_c, 10, 64, 40
11, 318432, Note_off_c, 10, 64, 64
11, 318480, Note_on_c, 10, 64, 40
11, 318672, Note_off_c, 10, 64, 64
11, 318720, Note_on_c, 10, 64, 40
11, 318912, Note_off_c, 10, 64, 64
11, 318960, Note_on_c, 10, 64, 40
11, 319152, Note_off_c, 10, 64, 64
11, 319200, Note_on_c, 10, 64, 40
11, 319392, Note_off_c, 10, 64, 64
11, 319440, Note_on_c, 10, 64, 40
11, 319632, Note_off_c, 10, 64, 64
11, 319680, Note_on_c, 10, 64, 40
11, 319872, Note_off_c, 10, 64, 64
11, 319920, Note_on_c, 10, 64, 40
11, 320112, Note_off_c, 10, 64, 64
11, 320160, Note_on_c, 10, 64, 40
11, 320352, Note_off_c, 10, 64, 64
11, 320400, Note_on_c, 10, 64, 40
11, 320592, Note_off_c, 10, 64, 64
11, 320640, Note_on_c, 10, 65, 127
11, 320880, Note_off_c, 10, 65, 64
11, 322080, Note_on_c, 10, 62, 127
11, 322320, Note_off_c, 10, 62, 64
11, 322560, Note_on_c, 10, 58, 127
11, 322800, Note_off_c, 10, 58, 64
11, 323520, Note_on_c, 10, 48, 127
11, 323520, Note_on_c, 10, 60, 127
11, 323760, Note_off_c, 10, 60, 64
11, 323760, Note_off_c, 10, 48, 64
11, 324480, Note_on_c, 10, 59, 32
11, 324672, Note_off_c, 10, 59, 64
11, 324720, Note_on_c, 10, 59, 33
11, 324912, Note_off_c, 10, 59, 64
11, 324960, Note_on_c, 10, 59, 35
11, 325152, Note_off_c, 10, 59, 64
11, 325200, Note_on_c, 10, 59, 36
11, 325392, Note_off_c, 10, 59, 64
11, 325440, Note_on_c, 10, 59, 38
11, 325632, Note_off_c, 10, 59, 64
11, 325680, Note_on_c, 10, 59, 39
11, 325872, Note_off_c, 10, 59, 64
11, 325920, Note_on_c, 10, 59, 41
11, 326112, Note_off_c, 10, 59, 64
11, 326160, Note_on_c, 10, 59, 42
11, 326352, Note_off_c, 10, 59, 64
11, 326400, Note_on_c, 10, 59, 43
11, 326592, Note_off_c, 10, 59, 64
11, 326640, Note_on_c, 10, 59, 45
11, 326832, Note_off_c, 10, 59, 64
11, 326880, Note_on_c, 10, 59, 46
11, 327072, Note_off_c, 10, 59, 64
11, 327120, Note_on_c, 10, 59, 48
11, 327312, Note_off_c, 10, 59, 64
11, 327360, Note_on_c, 10, 59, 49
11, 327552, Note_off_c, 10, 59, 64
11, 327600, Note_on_c, 10, 59, 50
11, 327792, Note_off_c, 10, 59, 64
11, 327840, Note_on_c, 10, 59, 52
11, 328032, Note_off_c, 10, 59, 64
11, 328080, Note_on_c, 10, 59, 53
11, 328272, Note_off_c, 10, 59, 64
11, 328320, Note_on_c, 10, 59, 75
11, 328512, Note_off_c, 10, 59, 64
11, 328560, Note_on_c, 10, 59, 56
11, 328752, Note_off_c, 10, 59, 64
11, 328800, Note_on_c, 10, 59, 58
11, 328992, Note_off_c, 10, 59, 64
11, 329040, Note_on_c, 10, 59, 59
11, 329232, Note_off_c, 10, 59, 64
11, 329280, Note_on_c, 10, 59, 60
11, 329472, Note_off_c, 10, 59, 64
11, 329520, Note_on_c, 10, 59, 62
11, 329712, Note_off_c, 10, 59, 64
11, 329760, Note_on_c, 10, 59, 63
11, 329952, Note_off_c, 10, 59, 64
11, 330000, Note_on_c, 10, 59, 65
11, 330192, Note_off_c, 10, 59, 64
11, 330240, Note_on_c, 10, 60, 86
11, 330432, Note_off_c, 10, 60, 64
11, 330480, Note_on_c, 10, 60, 67
11, 330672, Note_off_c, 10, 60, 64
11, 330720, Note_on_c, 10, 60, 69
11, 330912, Note_off_c, 10, 60, 64
11, 330960, Note_on_c, 10, 60, 70
11, 331152, Note_off_c, 10, 60, 64
11, 331200, Note_on_c, 10, 60, 72
11, 331392, Note_off_c, 10, 60, 64
11, 331440, Note_on_c, 10, 60, 73
11, 331632, Note_off_c, 10, 60, 64
11, 331680, Note_on_c, 10, 60, 75
11, 331872, Note_off_c, 10, 60, 64
11, 331920, Note_on_c, 10, 60, 76
11, 332112, Note_off_c, 10, 60, 64
11, 332160, Note_on_c, 10, 62, 97
11, 332352, Note_off_c, 10, 62, 64
11, 332400, Note_on_c, 10, 62, 79
11, 332592, Note_off_c, 10, 62, 64
11, 332640, Note_on_c, 10, 62, 80
11, 332832, Note_off_c, 10, 62, 64
11, 332880, Note_on_c, 10, 62, 82
11, 333072, Note_off_c, 10, 62, 64
11, 333120, Note_on_c, 10, 62, 83
11, 333312, Note_off_c, 10, 62, 64
11, 333360, Note_on_c, 10, 62, 84
11, 333552, Note_off_c, 10, 62, 64
11, 333600, Note_on_c, 10, 62, 86
11, 333792, Note_off_c, 10, 62, 64
11, 333840, Note_on_c, 10, 62, 87
11, 334032, Note_off_c, 10, 62, 64
11, 334080, Note_on_c, 10, 64, 109
11, 334272, Note_off_c, 10, 64, 64
11, 334320, Note_on_c, 10, 64, 90
11, 334512, Note_off_c, 10, 64, 64
11, 334560, Note_on_c, 10, 64, 92
11, 334752, Note_off_c, 10, 64, 64
11, 334800, Note_on_c, 10, 64, 93
11, 334992, Note_off_c, 10, 64, 64
11, 335040, Note_on_c, 10, 64, 94
11, 335232, Note_off_c, 10, 64, 64
11, 335280, Note_on_c, 10, 64, 96
11, 335472, Note_off_c, 10, 64, 64
11, 335520, Note_on_c, 10, 64, 97
11, 335712, Note_off_c, 10, 64, 64
11, 335760, Note_on_c, 10, 64, 99
11, 335952, Note_off_c, 10, 64, 64
11, 336000, Note_on_c, 10, 65, 127
11, 336192, Note_off_c, 10, 65, 64
11, 336240, Note_on_c, 10, 61, 127
11, 336432, Note_off_c, 10, 61, 64
11, 336480, Note_on_c, 10, 61, 127
11, 336672, Note_off_c, 10, 61, 64
11, 336720, Note_on_c, 10, 61, 127
11, 336912, Note_off_c, 10, 61, 64
11, 336960, Note_on_c, 10, 61, 127
11, 337152, Note_off_c, 10, 61, 64
11, 337200, Note_on_c, 10, 61, 127
11, 337392, Note_off_c, 10, 61, 64
11, 337440, Note_on_c, 10, 61, 127
11, 337632, Note_off_c, 10, 61, 64
11, 337680, Note_on_c, 10, 61, 127
11, 337872, Note_off_c, 10, 61, 64
11, 337920, Note_on_c, 10, 61, 127
11, 338112, Note_off_c, 10, 61, 64
11, 338160, Note_on_c, 10, 61, 127
11, 338352, Note_off_c, 10, 61, 64
11, 338400, Note_on_c, 10, 61, 127
11, 338592, Note_off_c, 10, 61, 64
11, 338640, Note_on_c, 10, 61, 127
11, 338832, Note_off_c, 10, 61, 64
11, 338880, Note_on_c, 10, 61, 127
11, 339072, Note_off_c, 10, 61, 64
11, 339120, Note_on_c, 10, 61, 127
11, 339312, Note_off_c, 10, 61, 64
11, 339360, Note_on_c, 10, 61, 127
11, 339552, Note_off_c, 10, 61, 64
11, 339600, Note_on_c, 10, 61, 127
11, 339792, Note_off_c, 10, 61, 64
11, 339840, Note_on_c, 10, 60, 127
11, 340032, Note_off_c, 10, 60, 64
11, 340080, Note_on_c, 10, 60, 127
11, 340272, Note_off_c, 10, 60, 64
11, 340320, Note_on_c, 10, 60, 127
11, 340512, Note_off_c, 10, 60, 64
11, 340560, Note_on_c, 10, 60, 127
11, 340752, Note_off_c, 10, 60, 64
11, 340800, Note_on_c, 10, 60, 127
11, 340992, Note_off_c, 10, 60, 64
11, 341040, Note_on_c, 10, 60, 127
11, 341232, Note_off_c, 10, 60, 64
11, 341280, Note_on_c, 10, 60, 127
11, 341472, Note_off_c, 10, 60, 64
11, 341520, Note_on_c, 10, 60, 127
11, 341712, Note_off_c, 10, 60, 64
11, 341760, Note_on_c, 10, 58, 127
11, 341952, Note_off_c, 10, 58, 64
11, 342000, Note_on_c, 10, 58, 127
11, 342192, Note_off_c, 10, 58, 64
11, 342240, Note_on_c, 10, 58, 127
11, 342432, Note_off_c, 10, 58, 64
11, 342480, Note_on_c, 10, 58, 127
11, 342672, Note_off_c, 10, 58, 64
11, 342720, Note_on_c, 10, 58, 127
11, 342912, Note_off_c, 10, 58, 64
11, 342960, Note_on_c, 10, 58, 127
11, 343152, Note_off_c, 10, 58, 64
11, 343200, Note_on_c, 10, 58, 127
11, 343392, Note_off_c, 10, 58, 64
11, 343440, Note_on_c, 10, 58, 127
11, 343632, Note_off_c, 10, 58, 64
11, 343680, Note_on_c, 10, 57, 127
11, 343680, Note_on_c, 10, 53, 127
11, 343872, Note_off_c, 10, 53, 64
11, 343872, Note_off_c, 10, 57, 64
11, 343920, Note_on_c, 10, 60, 127
11, 343920, Note_on_c, 10, 57, 127
11, 344112, Note_off_c, 10, 57, 64
11, 344112, Note_off_c, 10, 60, 64
11, 344160, Note_on_c, 10, 60, 127
11, 344160, Note_on_c, 10, 57, 127
11, 344352, Note_off_c, 10, 57, 64
11, 344352, Note_off_c, 10, 60, 64
11, 344400, Note_on_c, 10, 57, 112
11, 344400, Note_on_c, 10, 60, 112
11, 344592, Note_off_c, 10, 60, 64
11, 344592, Note_off_c, 10, 57, 64
11, 344640, Note_on_c, 10, 57, 112
11, 344640, Note_on_c, 10, 53, 112
11, 344832, Note_off_c, 10, 53, 64
11, 344832, Note_off_c, 10, 57, 64
11, 344880, Note_on_c, 10, 60, 112
11, 344880, Note_on_c, 10, 57, 112
11, 345072, Note_off_c, 10, 57, 64
11, 345072, Note_off_c, 10, 60, 64
11, 345120, Note_on_c, 10, 60, 112
11, 345120, Note_on_c, 10, 57, 112
11, 345312, Note_off_c, 10, 57, 64
11, 345312, Note_off_c, 10, 60, 64
11, 345360, Note_on_c, 10, 57, 112
11, 345360, Note_on_c, 10, 60, 112
11, 345552, Note_off_c, 10, 60, 64
11, 345552, Note_off_c, 10, 57, 64
11, 345600, Note_on_c, 10, 53, 112
11, 345600, Note_on_c, 10, 57, 112
11, 345792, Note_off_c, 10, 57, 64
11, 345792, Note_off_c, 10, 53, 64
11, 345840, Note_on_c, 10, 57, 112
11, 345840, Note_on_c, 10, 60, 112
11, 346032, Note_off_c, 10, 60, 64
11, 346032, Note_off_c, 10, 57, 64
11, 346080, Note_on_c, 10, 57, 112
11, 346080, Note_on_c, 10, 60, 112
11, 346272, Note_off_c, 10, 60, 64
11, 346272, Note_off_c, 10, 57, 64
11, 346320, Note_on_c, 10, 60, 112
11, 346320, Note_on_c, 10, 57, 112
11, 346512, Note_off_c, 10, 57, 64
11, 346512, Note_off_c, 10, 60, 64
11, 346560, Note_on_c, 10, 53, 112
11, 346560, Note_on_c, 10, 57, 112
11, 346752, Note_off_c, 10, 57, 64
11, 346752, Note_off_c, 10, 53, 64
11, 346800, Note_on_c, 10, 60, 112
11, 346800, Note_on_c, 10, 57, 112
11, 346992, Note_off_c, 10, 57, 64
11, 346992, Note_off_c, 10, 60, 64
11, 347040, Note_on_c, 10, 60, 112
11, 347040, Note_on_c, 10, 57, 112
11, 347232, Note_off_c, 10, 57, 64
11, 347232, Note_off_c, 10, 60, 64
11, 347280, Note_on_c, 10, 57, 112
11, 347280, Note_on_c, 10, 60, 112
11, 347472, Note_off_c, 10, 60, 64
11, 347472, Note_off_c, 10, 57, 64
11, 347520, Note_on_c, 10, 53, 112
11, 347520, Note_on_c, 10, 57, 112
11, 347712, Note_off_c, 10, 57, 64
11, 347712, Note_off_c, 10, 53, 64
11, 347760, Note_on_c, 10, 57, 112
11, 347760, Note_on_c, 10, 60, 112
11, 347952, Note_off_c, 10, 60, 64
11, 347952, Note_off_c, 10, 57, 64
11, 348000, Note_on_c, 10, 57, 112
11, 348000, Note_on_c, 10, 60, 112
11, 348192, Note_off_c, 10, 60, 64
11, 348192, Note_off_c, 10, 57, 64
11, 348240, Note_on_c, 10, 60, 112
11, 348240, Note_on_c, 10, 57, 112
11, 348432, Note_off_c, 10, 57, 64
11, 348432, Note_off_c, 10, 60, 64
11, 348480, Note_on_c, 10, 53, 112
11, 348480, Note_on_c, 10, 57, 112
11, 348672, Note_off_c, 10, 57, 64
11, 348672, Note_off_c, 10, 53, 64
11, 348720, Note_on_c, 10, 60, 112
11, 348720, Note_on_c, 10, 57, 112
11, 348912, Note_off_c, 10, 57, 64
11, 348912, Note_off_c, 10, 60, 64
11, 348960, Note_on_c, 10, 60, 112
11, 348960, Note_on_c, 10, 57, 112
11, 349152, Note_off_c, 10, 57, 64
11, 349152, Note_off_c, 10, 60, 64
11, 349200, Note_on_c, 10, 57, 112
11, 349200, Note_on_c, 10, 60, 112
11, 349392, Note_off_c, 10, 60, 64
11, 349392, Note_off_c, 10, 57, 64
11, 349440, Note_on_c, 10, 53, 112
11, 349440, Note_on_c, 10, 57, 112
11, 349632, Note_off_c, 10, 57, 64
11, 349632, Note_off_c, 10, 53, 64
11, 349680, Note_on_c, 10, 57, 112
11, 349680, Note_on_c, 10, 53, 112
11, 349872, Note_off_c, 10, 53, 64
11, 349872, Note_off_c, 10, 57, 64
11, 349920, Note_on_c, 10, 57, 112
11, 349920, Note_on_c, 10, 60, 112
11, 350112, Note_off_c, 10, 60, 64
11, 350112, Note_off_c, 10, 57, 64
11, 350160, Note_on_c, 10, 57, 112
11, 350160, Note_on_c, 10, 60, 112
11, 350352, Note_off_c, 10, 60, 64
11, 350352, Note_off_c, 10, 57, 64
11, 350400, Note_on_c, 10, 52, 112
11, 350400, Note_on_c, 10, 55, 112
11, 350592, Note_off_c, 10, 55, 64
11, 350592, Note_off_c, 10, 52, 64
11, 350640, Note_on_c, 10, 52, 112
11, 350640, Note_on_c, 10, 55, 112
11, 350832, Note_off_c, 10, 55, 64
11, 350832, Note_off_c, 10, 52, 64
11, 350880, Note_on_c, 10, 58, 112
11, 350880, Note_on_c, 10, 55, 112
11, 351072, Note_off_c, 10, 55, 64
11, 351072, Note_off_c, 10, 58, 64
11, 351120, Note_on_c, 10, 58, 112
11, 351120, Note_on_c, 10, 55, 112
11, 351312, Note_off_c, 10, 55, 64
11, 351312, Note_off_c, 10, 58, 64
11, 351360, Note_on_c, 10, 53, 112
11, 351360, Note_on_c, 10, 57, 112
11, 351552, Note_off_c, 10, 57, 64
11, 351552, Note_off_c, 10, 53, 64
11, 351600, Note_on_c, 10, 60, 112
11, 351600, Note_on_c, 10, 57, 112
11, 351792, Note_off_c, 10, 57, 64
11, 351792, Note_off_c, 10, 60, 64
11, 351840, Note_on_c, 10, 57, 112
11, 351840, Note_on_c, 10, 60, 112
11, 352032, Note_off_c, 10, 60, 64
11, 352032, Note_off_c, 10, 57, 64
11, 352080, Note_on_c, 10, 57, 112
11, 352080, Note_on_c, 10, 60, 112
11, 352272, Note_off_c, 10, 60, 64
11, 352272, Note_off_c, 10, 57, 64
11, 352320, Note_on_c, 10, 57, 112
11, 352320, Note_on_c, 10, 53, 112
11, 352512, Note_off_c, 10, 53, 64
11, 352512, Note_off_c, 10, 57, 64
11, 352560, Note_on_c, 10, 60, 112
11, 352560, Note_on_c, 10, 57, 112
11, 352752, Note_off_c, 10, 57, 64
11, 352752, Note_off_c, 10, 60, 64
11, 352800, Note_on_c, 10, 60, 112
11, 352800, Note_on_c, 10, 57, 112
11, 352992, Note_off_c, 10, 57, 64
11, 352992, Note_off_c, 10, 60, 64
11, 353040, Note_on_c, 10, 60, 112
11, 353040, Note_on_c, 10, 57, 112
11, 353232, Note_off_c, 10, 57, 64
11, 353232, Note_off_c, 10, 60, 64
11, 353280, Note_on_c, 10, 53, 112
11, 353280, Note_on_c, 10, 57, 112
11, 353472, Note_off_c, 10, 57, 64
11, 353472, Note_off_c, 10, 53, 64
11, 353520, Note_on_c, 10, 57, 112
11, 353520, Note_on_c, 10, 60, 112
11, 353712, Note_off_c, 10, 60, 64
11, 353712, Note_off_c, 10, 57, 64
11, 353760, Note_on_c, 10, 60, 112
11, 353760, Note_on_c, 10, 57, 112
11, 353952, Note_off_c, 10, 57, 64
11, 353952, Note_off_c, 10, 60, 64
11, 354000, Note_on_c, 10, 60, 112
11, 354000, Note_on_c, 10, 57, 112
11, 354192, Note_off_c, 10, 57, 64
11, 354192, Note_off_c, 10, 60, 64
11, 354240, Note_on_c, 10, 53, 112
11, 354240, Note_on_c, 10, 57, 112
11, 354432, Note_off_c, 10, 57, 64
11, 354432, Note_off_c, 10, 53, 64
11, 354480, Note_on_c, 10, 57, 112
11, 354480, Note_on_c, 10, 60, 112
11, 354672, Note_off_c, 10, 60, 64
11, 354672, Note_off_c, 10, 57, 64
11, 354720, Note_on_c, 10, 60, 112
11, 354720, Note_on_c, 10, 57, 112
11, 354912, Note_off_c, 10, 57, 64
11, 354912, Note_off_c, 10, 60, 64
11, 354960, Note_on_c, 10, 57, 112
11, 354960, Note_on_c, 10, 60, 112
11, 355152, Note_off_c, 10, 60, 64
11, 355152, Note_off_c, 10, 57, 64
11, 355200, Note_on_c, 10, 53, 112
11, 355200, Note_on_c, 10, 57, 112
11, 355392, Note_off_c, 10, 57, 64
11, 355392, Note_off_c, 10, 53, 64
11, 355440, Note_on_c, 10, 57, 112
11, 355440, Note_on_c, 10, 60, 112
11, 355632, Note_off_c, 10, 60, 64
11, 355632, Note_off_c, 10, 57, 64
11, 355680, Note_on_c, 10, 60, 112
11, 355680, Note_on_c, 10, 57, 112
11, 355872, Note_off_c, 10, 57, 64
11, 355872, Note_off_c, 10, 60, 64
11, 355920, Note_on_c, 10, 60, 112
11, 355920, Note_on_c, 10, 57, 112
11, 356112, Note_off_c, 10, 57, 64
11, 356112, Note_off_c, 10, 60, 64
11, 356160, Note_on_c, 10, 53, 112
11, 356160, Note_on_c, 10, 57, 112
11, 356352, Note_off_c, 10, 57, 64
11, 356352, Note_off_c, 10, 53, 64
11, 356400, Note_on_c, 10, 57, 112
11, 356400, Note_on_c, 10, 60, 112
11, 356592, Note_off_c, 10, 60, 64
11, 356592, Note_off_c, 10, 57, 64
11, 356640, Note_on_c, 10, 60, 112
11, 356640, Note_on_c, 10, 57, 112
11, 356832, Note_off_c, 10, 57, 64
11, 356832, Note_off_c, 10, 60, 64
11, 356880, Note_on_c, 10, 57, 112
11, 356880, Note_on_c, 10, 60, 112
11, 357072, Note_off_c, 10, 60, 64
11, 357072, Note_off_c, 10, 57, 64
11, 357120, Note_on_c, 10, 53, 112
11, 357120, Note_on_c, 10, 57, 112
11, 357312, Note_off_c, 10, 57, 64
11, 357312, Note_off_c, 10, 53, 64
11, 357360, Note_on_c, 10, 57, 112
11, 357360, Note_on_c, 10, 53, 112
11, 357552, Note_off_c, 10, 53, 64
11, 357552, Note_off_c, 10, 57, 64
11, 357600, Note_on_c, 10, 57, 112
11, 357600, Note_on_c, 10, 60, 112
11, 357792, Note_off_c, 10, 60, 64
11, 357792, Note_off_c, 10, 57, 64
11, 357840, Note_on_c, 10, 57, 112
11, 357840, Note_on_c, 10, 60, 112
11, 358032, Note_off_c, 10, 60, 64
11, 358032, Note_off_c, 10, 57, 64
11, 358080, Note_on_c, 10, 52, 112
11, 358080, Note_on_c, 10, 55, 112
11, 358272, Note_off_c, 10, 55, 64
11, 358272, Note_off_c, 10, 52, 64
11, 358320, Note_on_c, 10, 55, 112
11, 358320, Note_on_c, 10, 52, 112
11, 358512, Note_off_c, 10, 52, 64
11, 358512, Note_off_c, 10, 55, 64
11, 358560, Note_on_c, 10, 58, 112
11, 358560, Note_on_c, 10, 55, 112
11, 358752, Note_off_c, 10, 55, 64
11, 358752, Note_off_c, 10, 58, 64
11, 358800, Note_on_c, 10, 55, 112
11, 358800, Note_on_c, 10, 58, 112
11, 358992, Note_off_c, 10, 58, 64
11, 358992, Note_off_c, 10, 55, 64
11, 359040, Note_on_c, 10, 53, 112
11, 359040, Note_on_c, 10, 57, 112
11, 359232, Note_off_c, 10, 57, 64
11, 359232, Note_off_c, 10, 53, 64
11, 359280, Note_on_c, 10, 57, 112
11, 359280, Note_on_c, 10, 60, 112
11, 359472, Note_off_c, 10, 60, 64
11, 359472, Note_off_c, 10, 57, 64
11, 359520, Note_on_c, 10, 57, 112
11, 359520, Note_on_c, 10, 60, 112
11, 359712, Note_off_c, 10, 60, 64
11, 359712, Note_off_c, 10, 57, 64
11, 359760, Note_on_c, 10, 57, 112
11, 359760, Note_on_c, 10, 60, 112
11, 359952, Note_off_c, 10, 60, 64
11, 359952, Note_off_c, 10, 57, 64
11, 360000, Note_on_c, 10, 57, 112
11, 360000, Note_on_c, 10, 53, 112
11, 360192, Note_off_c, 10, 53, 64
11, 360192, Note_off_c, 10, 57, 64
11, 360240, Note_on_c, 10, 60, 112
11, 360240, Note_on_c, 10, 57, 112
11, 360432, Note_off_c, 10, 57, 64
11, 360432, Note_off_c, 10, 60, 64
11, 360480, Note_on_c, 10, 57, 112
11, 360480, Note_on_c, 10, 60, 112
11, 360672, Note_off_c, 10, 60, 64
11, 360672, Note_off_c, 10, 57, 64
11, 360720, Note_on_c, 10, 57, 112
11, 360720, Note_on_c, 10, 60, 112
11, 360912, Note_off_c, 10, 60, 64
11, 360912, Note_off_c, 10, 57, 64
11, 360960, Note_on_c, 10, 57, 112
11, 360960, Note_on_c, 10, 53, 112
11, 361152, Note_off_c, 10, 53, 64
11, 361152, Note_off_c, 10, 57, 64
11, 361200, Note_on_c, 10, 53, 112
11, 361200, Note_on_c, 10, 57, 112
11, 361392, Note_off_c, 10, 57, 64
11, 361392, Note_off_c, 10, 53, 64
11, 361440, Note_on_c, 10, 57, 112
11, 361440, Note_on_c, 10, 60, 112
11, 361632, Note_off_c, 10, 60, 64
11, 361632, Note_off_c, 10, 57, 64
11, 361680, Note_on_c, 10, 60, 112
11, 361680, Note_on_c, 10, 57, 112
11, 361872, Note_off_c, 10, 57, 64
11, 361872, Note_off_c, 10, 60, 64
11, 361920, Note_on_c, 10, 52, 112
11, 361920, Note_on_c, 10, 55, 112
11, 362112, Note_off_c, 10, 55, 64
11, 362112, Note_off_c, 10, 52, 64
11, 362160, Note_on_c, 10, 52, 112
11, 362160, Note_on_c, 10, 55, 112
11, 362352, Note_off_c, 10, 55, 64
11, 362352, Note_off_c, 10, 52, 64
11, 362400, Note_on_c, 10, 58, 112
11, 362400, Note_on_c, 10, 55, 112
11, 362592, Note_off_c, 10, 55, 64
11, 362592, Note_off_c, 10, 58, 64
11, 362640, Note_on_c, 10, 58, 112
11, 362640, Note_on_c, 10, 55, 112
11, 362832, Note_off_c, 10, 55, 64
11, 362832, Note_off_c, 10, 58, 64
11, 362880, Note_on_c, 10, 57, 127
11, 362880, Note_on_c, 10, 60, 127
11, 364720, Note_off_c, 10, 60, 64
11, 364720, Note_off_c, 10, 57, 64
11, 364740, Note_on_c, 10, 57, 109
11, 364740, Note_on_c, 10, 60, 89
11, 364776, Note_off_c, 10, 60, 64
11, 364776, Note_off_c, 10, 57, 64
11, 364800, Note_on_c, 10, 57, 127
11, 364800, Note_on_c, 10, 60, 127
11, 364896, Note_off_c, 10, 60, 64
11, 364896, Note_off_c, 10, 57, 64
11, 366720, Note_on_c, 10, 60, 127
11, 366720, Note_on_c, 10, 63, 127
11, 368560, Note_off_c, 10, 63, 64
11, 368560, Note_off_c, 10, 60, 64
11, 368580, Note_on_c, 10, 63, 109
11, 368580, Note_on_c, 10, 60, 89
11, 368616, Note_off_c, 10, 60, 64
11, 368616, Note_off_c, 10, 63, 64
11, 368640, Note_on_c, 10, 63, 127
11, 368640, Note_on_c, 10, 60, 127
11, 368880, Note_off_c, 10, 60, 64
11, 368880, Note_off_c, 10, 63, 64
11, 370560, Note_on_c, 10, 60, 127
11, 370560, Note_on_c, 10, 63, 127
11, 370800, Note_off_c, 10, 63, 64
11, 370800, Note_off_c, 10, 60, 64
11, 372480, Note_on_c, 10, 53, 102
11, 372480, Note_on_c, 10, 57, 102
11, 372720, Note_off_c, 10, 57, 64
11, 372720, Note_off_c, 10, 53, 64
11, 373440, Note_on_c, 10, 57, 102
11, 373440, Note_on_c, 10, 53, 102
11, 373680, Note_off_c, 10, 53, 64
11, 373680, Note_off_c, 10, 57, 64
11, 374400, Note_on_c, 10, 53, 102
11, 374400, Note_on_c, 10, 57, 102
11, 374640, Note_off_c, 10, 57, 64
11, 374640, Note_off_c, 10, 53, 64
11, 375360, Note_on_c, 10, 57, 102
11, 375360, Note_on_c, 10, 53, 102
11, 375600, Note_off_c, 10, 53, 64
11, 375600, Note_off_c, 10, 57, 64
11, 376320, Note_on_c, 10, 58, 102
11, 376320, Note_on_c, 10, 53, 102
11, 376546, Note_off_c, 10, 53, 64
11, 376546, Note_off_c, 10, 58, 64
11, 376560, Note_on_c, 10, 58, 48
11, 376560, Note_on_c, 10, 65, 48
11, 376752, Note_off_c, 10, 65, 64
11, 376752, Note_off_c, 10, 58, 64
11, 376800, Note_on_c, 10, 58, 48
11, 376800, Note_on_c, 10, 65, 48
11, 376992, Note_off_c, 10, 65, 64
11, 376992, Note_off_c, 10, 58, 64
11, 377040, Note_on_c, 10, 65, 48
11, 377040, Note_on_c, 10, 58, 48
11, 377232, Note_off_c, 10, 58, 64
11, 377232, Note_off_c, 10, 65, 64
11, 377280, Note_on_c, 10, 65, 48
11, 377280, Note_on_c, 10, 58, 48
11, 377472, Note_off_c, 10, 58, 64
11, 377472, Note_off_c, 10, 65, 64
11, 377520, Note_on_c, 10, 58, 48
11, 377520, Note_on_c, 10, 65, 48
11, 377712, Note_off_c, 10, 65, 64
11, 377712, Note_off_c, 10, 58, 64
11, 377760, Note_on_c, 10, 58, 48
11, 377760, Note_on_c, 10, 65, 48
11, 377952, Note_off_c, 10, 65, 64
11, 377952, Note_off_c, 10, 58, 64
11, 378000, Note_on_c, 10, 65, 48
11, 378000, Note_on_c, 10, 58, 48
11, 378192, Note_off_c, 10, 58, 64
11, 378192, Note_off_c, 10, 65, 64
11, 378240, Note_on_c, 10, 58, 48
11, 378240, Note_on_c, 10, 65, 48
11, 378432, Note_off_c, 10, 65, 64
11, 378432, Note_off_c, 10, 58, 64
11, 378480, Note_on_c, 10, 58, 48
11, 378480, Note_on_c, 10, 65, 48
11, 378672, Note_off_c, 10, 65, 64
11, 378672, Note_off_c, 10, 58, 64
11, 378720, Note_on_c, 10, 58, 48
11, 378720, Note_on_c, 10, 65, 48
11, 378912, Note_off_c, 10, 65, 64
11, 378912, Note_off_c, 10, 58, 64
11, 378960, Note_on_c, 10, 58, 48
11, 378960, Note_on_c, 10, 65, 48
11, 379152, Note_off_c, 10, 65, 64
11, 379152, Note_off_c, 10, 58, 64
11, 379200, Note_on_c, 10, 65, 48
11, 379200, Note_on_c, 10, 58, 48
11, 379392, Note_off_c, 10, 58, 64
11, 379392, Note_off_c, 10, 65, 64
11, 379440, Note_on_c, 10, 65, 48
11, 379440, Note_on_c, 10, 58, 48
11, 379632, Note_off_c, 10, 58, 64
11, 379632, Note_off_c, 10, 65, 64
11, 379680, Note_on_c, 10, 65, 48
11, 379680, Note_on_c, 10, 58, 48
11, 379872, Note_off_c, 10, 58, 64
11, 379872, Note_off_c, 10, 65, 64
11, 379920, Note_on_c, 10, 58, 48
11, 379920, Note_on_c, 10, 65, 48
11, 380112, Note_off_c, 10, 65, 64
11, 380112, Note_off_c, 10, 58, 64
11, 380160, Note_on_c, 10, 63, 48
11, 380160, Note_on_c, 10, 58, 48
11, 380352, Note_off_c, 10, 58, 64
11, 380352, Note_off_c, 10, 63, 64
11, 380400, Note_on_c, 10, 63, 48
11, 380400, Note_on_c, 10, 58, 48
11, 380592, Note_off_c, 10, 58, 64
11, 380592, Note_off_c, 10, 63, 64
11, 380640, Note_on_c, 10, 58, 48
11, 380640, Note_on_c, 10, 63, 48
11, 380832, Note_off_c, 10, 63, 64
11, 380832, Note_off_c, 10, 58, 64
11, 380880, Note_on_c, 10, 58, 48
11, 380880, Note_on_c, 10, 63, 48
11, 381072, Note_off_c, 10, 63, 64
11, 381072, Note_off_c, 10, 58, 64
11, 381120, Note_on_c, 10, 63, 48
11, 381120, Note_on_c, 10, 58, 48
11, 381312, Note_off_c, 10, 58, 64
11, 381312, Note_off_c, 10, 63, 64
11, 381360, Note_on_c, 10, 58, 48
11, 381360, Note_on_c, 10, 63, 48
11, 381552, Note_off_c, 10, 63, 64
11, 381552, Note_off_c, 10, 58, 64
11, 381600, Note_on_c, 10, 63, 48
11, 381600, Note_on_c, 10, 58, 48
11, 381792, Note_off_c, 10, 58, 64
11, 381792, Note_off_c, 10, 63, 64
11, 381840, Note_on_c, 10, 58, 48
11, 381840, Note_on_c, 10, 63, 48
11, 382032, Note_off_c, 10, 63, 64
11, 382032, Note_off_c, 10, 58, 64
11, 382080, Note_on_c, 10, 63, 48
11, 382080, Note_on_c, 10, 60, 48
11, 382272, Note_off_c, 10, 60, 64
11, 382272, Note_off_c, 10, 63, 64
11, 382320, Note_on_c, 10, 63, 48
11, 382320, Note_on_c, 10, 60, 48
11, 382512, Note_off_c, 10, 60, 64
11, 382512, Note_off_c, 10, 63, 64
11, 382560, Note_on_c, 10, 60, 48
11, 382560, Note_on_c, 10, 63, 48
11, 382752, Note_off_c, 10, 63, 64
11, 382752, Note_off_c, 10, 60, 64
11, 382800, Note_on_c, 10, 63, 48
11, 382800, Note_on_c, 10, 60, 48
11, 382992, Note_off_c, 10, 60, 64
11, 382992, Note_off_c, 10, 63, 64
11, 383040, Note_on_c, 10, 63, 48
11, 383040, Note_on_c, 10, 60, 48
11, 383232, Note_off_c, 10, 60, 64
11, 383232, Note_off_c, 10, 63, 64
11, 383280, Note_on_c, 10, 63, 48
11, 383280, Note_on_c, 10, 60, 48
11, 383472, Note_off_c, 10, 60, 64
11, 383472, Note_off_c, 10, 63, 64
11, 383520, Note_on_c, 10, 60, 48
11, 383520, Note_on_c, 10, 63, 48
11, 383712, Note_off_c, 10, 63, 64
11, 383712, Note_off_c, 10, 60, 64
11, 383760, Note_on_c, 10, 63, 48
11, 383760, Note_on_c, 10, 60, 48
11, 383952, Note_off_c, 10, 60, 64
11, 383952, Note_off_c, 10, 63, 64
11, 384000, Note_on_c, 10, 62, 48
11, 384000, Note_on_c, 10, 58, 48
11, 384192, Note_off_c, 10, 58, 64
11, 384192, Note_off_c, 10, 62, 64
11, 391680, Note_on_c, 10, 53, 102
11, 391680, Note_on_c, 10, 57, 102
11, 391920, Note_off_c, 10, 57, 64
11, 391920, Note_off_c, 10, 53, 64
11, 393600, Note_on_c, 10, 53, 102
11, 393600, Note_on_c, 10, 57, 102
11, 393840, Note_off_c, 10, 57, 64
11, 393840, Note_off_c, 10, 53, 64
11, 394560, Note_on_c, 10, 57, 102
11, 394560, Note_on_c, 10, 53, 102
11, 394800, Note_off_c, 10, 53, 64
11, 394800, Note_off_c, 10, 57, 64
11, 395520, Note_on_c, 10, 70, 64
11, 395520, Note_on_c, 10, 58, 64
11, 395520, Note_on_c, 10, 65, 64
11, 395712, Note_off_c, 10, 65, 64
11, 395712, Note_off_c, 10, 58, 64
11, 395712, Note_off_c, 10, 70, 64
11, 395760, Note_on_c, 10, 50, 64
11, 395760, Note_on_c, 10, 53, 64
11, 395952, Note_off_c, 10, 53, 64
11, 395952, Note_off_c, 10, 50, 64
11, 396000, Note_on_c, 10, 50, 64
11, 396000, Note_on_c, 10, 53, 64
11, 396192, Note_off_c, 10, 53, 64
11, 396192, Note_off_c, 10, 50, 64
11, 396240, Note_on_c, 10, 50, 64
11, 396240, Note_on_c, 10, 53, 64
11, 396432, Note_off_c, 10, 53, 64
11, 396432, Note_off_c, 10, 50, 64
11, 396480, Note_on_c, 10, 53, 64
11, 396480, Note_on_c, 10, 50, 64
11, 396672, Note_off_c, 10, 50, 64
11, 396672, Note_off_c, 10, 53, 64
11, 396720, Note_on_c, 10, 50, 64
11, 396720, Note_on_c, 10, 53, 64
11, 396912, Note_off_c, 10, 53, 64
11, 396912, Note_off_c, 10, 50, 64
11, 396960, Note_on_c, 10, 50, 64
11, 396960, Note_on_c, 10, 53, 64
11, 397152, Note_off_c, 10, 53, 64
11, 397152, Note_off_c, 10, 50, 64
11, 397200, Note_on_c, 10, 50, 64
11, 397200, Note_on_c, 10, 53, 64
11, 397392, Note_off_c, 10, 53, 64
11, 397392, Note_off_c, 10, 50, 64
11, 397440, Note_on_c, 10, 50, 64
11, 397440, Note_on_c, 10, 53, 64
11, 397632, Note_off_c, 10, 53, 64
11, 397632, Note_off_c, 10, 50, 64
11, 397680, Note_on_c, 10, 53, 64
11, 397680, Note_on_c, 10, 50, 64
11, 397872, Note_off_c, 10, 50, 64
11, 397872, Note_off_c, 10, 53, 64
11, 397920, Note_on_c, 10, 53, 64
11, 397920, Note_on_c, 10, 50, 64
11, 398112, Note_off_c, 10, 50, 64
11, 398112, Note_off_c, 10, 53, 64
11, 398160, Note_on_c, 10, 53, 64
11, 398160, Note_on_c, 10, 50, 64
11, 398352, Note_off_c, 10, 50, 64
11, 398352, Note_off_c, 10, 53, 64
11, 398400, Note_on_c, 10, 50, 64
11, 398400, Note_on_c, 10, 53, 64
11, 398592, Note_off_c, 10, 53, 64
11, 398592, Note_off_c, 10, 50, 64
11, 398640, Note_on_c, 10, 50, 64
11, 398640, Note_on_c, 10, 53, 64
11, 398832, Note_off_c, 10, 53, 64
11, 398832, Note_off_c, 10, 50, 64
11, 398880, Note_on_c, 10, 53, 64
11, 398880, Note_on_c, 10, 50, 64
11, 399072, Note_off_c, 10, 50, 64
11, 399072, Note_off_c, 10, 53, 64
11, 399120, Note_on_c, 10, 50, 64
11, 399120, Note_on_c, 10, 53, 64
11, 399312, Note_off_c, 10, 53, 64
11, 399312, Note_off_c, 10, 50, 64
11, 399360, Note_on_c, 10, 51, 64
11, 399360, Note_on_c, 10, 55, 64
11, 399552, Note_off_c, 10, 55, 64
11, 399552, Note_off_c, 10, 51, 64
11, 399600, Note_on_c, 10, 55, 64
11, 399600, Note_on_c, 10, 51, 64
11, 399792, Note_off_c, 10, 51, 64
11, 399792, Note_off_c, 10, 55, 64
11, 399840, Note_on_c, 10, 55, 64
11, 399840, Note_on_c, 10, 51, 64
11, 400032, Note_off_c, 10, 51, 64
11, 400032, Note_off_c, 10, 55, 64
11, 400080, Note_on_c, 10, 55, 64
11, 400080, Note_on_c, 10, 51, 64
11, 400272, Note_off_c, 10, 51, 64
11, 400272, Note_off_c, 10, 55, 64
11, 400320, Note_on_c, 10, 51, 64
11, 400320, Note_on_c, 10, 55, 64
11, 400512, Note_off_c, 10, 55, 64
11, 400512, Note_off_c, 10, 51, 64
11, 400560, Note_on_c, 10, 51, 64
11, 400560, Note_on_c, 10, 55, 64
11, 400752, Note_off_c, 10, 55, 64
11, 400752, Note_off_c, 10, 51, 64
11, 400800, Note_on_c, 10, 55, 64
11, 400800, Note_on_c, 10, 51, 64
11, 400992, Note_off_c, 10, 51, 64
11, 400992, Note_off_c, 10, 55, 64
11, 401040, Note_on_c, 10, 51, 64
11, 401040, Note_on_c, 10, 55, 64
11, 401232, Note_off_c, 10, 55, 64
11, 401232, Note_off_c, 10, 51, 64
11, 401280, Note_on_c, 10, 53, 64
11, 401280, Note_on_c, 10, 57, 64
11, 401472, Note_off_c, 10, 57, 64
11, 401472, Note_off_c, 10, 53, 64
11, 401520, Note_on_c, 10, 57, 64
11, 401520, Note_on_c, 10, 53, 64
11, 401712, Note_off_c, 10, 53, 64
11, 401712, Note_off_c, 10, 57, 64
11, 401760, Note_on_c, 10, 57, 64
11, 401760, Note_on_c, 10, 53, 64
11, 401952, Note_off_c, 10, 53, 64
11, 401952, Note_off_c, 10, 57, 64
11, 402000, Note_on_c, 10, 57, 64
11, 402000, Note_on_c, 10, 53, 64
11, 402192, Note_off_c, 10, 53, 64
11, 402192, Note_off_c, 10, 57, 64
11, 402240, Note_on_c, 10, 53, 64
11, 402240, Note_on_c, 10, 57, 64
11, 402432, Note_off_c, 10, 57, 64
11, 402432, Note_off_c, 10, 53, 64
11, 402480, Note_on_c, 10, 53, 64
11, 402480, Note_on_c, 10, 57, 64
11, 402672, Note_off_c, 10, 57, 64
11, 402672, Note_off_c, 10, 53, 64
11, 402720, Note_on_c, 10, 57, 64
11, 402720, Note_on_c, 10, 53, 64
11, 402912, Note_off_c, 10, 53, 64
11, 402912, Note_off_c, 10, 57, 64
11, 402960, Note_on_c, 10, 53, 64
11, 402960, Note_on_c, 10, 57, 64
11, 403152, Note_off_c, 10, 57, 64
11, 403152, Note_off_c, 10, 53, 64
11, 403200, Note_on_c, 10, 50, 64
11, 403200, Note_on_c, 10, 58, 64
11, 403392, Note_off_c, 10, 58, 64
11, 403392, Note_off_c, 10, 50, 64
11, 403440, Note_on_c, 10, 50, 64
11, 403440, Note_on_c, 10, 58, 64
11, 403632, Note_off_c, 10, 58, 64
11, 403632, Note_off_c, 10, 50, 64
11, 403680, Note_on_c, 10, 58, 96
11, 403872, Note_off_c, 10, 58, 64
11, 403920, Note_on_c, 10, 58, 96
11, 404112, Note_off_c, 10, 58, 64
11, 404160, Note_on_c, 10, 57, 96
11, 404352, Note_off_c, 10, 57, 64
11, 404400, Note_on_c, 10, 57, 96
11, 404592, Note_off_c, 10, 57, 64
11, 404640, Note_on_c, 10, 55, 96
11, 404832, Note_off_c, 10, 55, 64
11, 404880, Note_on_c, 10, 55, 96
11, 405072, Note_off_c, 10, 55, 64
11, 405120, Note_on_c, 10, 53, 96
11, 405312, Note_off_c, 10, 53, 64
11, 405360, Note_on_c, 10, 53, 96
11, 405552, Note_off_c, 10, 53, 64
11, 405600, Note_on_c, 10, 51, 96
11, 405792, Note_off_c, 10, 51, 64
11, 405840, Note_on_c, 10, 51, 96
11, 406032, Note_off_c, 10, 51, 64
11, 406080, Note_on_c, 10, 50, 96
11, 406272, Note_off_c, 10, 50, 64
11, 406320, Note_on_c, 10, 50, 96
11, 406512, Note_off_c, 10, 50, 64
11, 406560, Note_on_c, 10, 51, 96
11, 406752, Note_off_c, 10, 51, 64
11, 406800, Note_on_c, 10, 51, 96
11, 406992, Note_off_c, 10, 51, 64
11, 407040, Note_on_c, 10, 60, 102
11, 407280, Note_off_c, 10, 60, 64
11, 407280, Note_on_c, 10, 59, 102
11, 407520, Note_off_c, 10, 59, 64
11, 407520, Note_on_c, 10, 60, 102
11, 407760, Note_off_c, 10, 60, 64
11, 407760, Note_on_c, 10, 59, 102
11, 408000, Note_off_c, 10, 59, 64
11, 408000, Note_on_c, 10, 60, 102
11, 408240, Note_off_c, 10, 60, 64
11, 408240, Note_on_c, 10, 59, 102
11, 408480, Note_off_c, 10, 59, 64
11, 408480, Note_on_c, 10, 60, 102
11, 408720, Note_off_c, 10, 60, 64
11, 408720, Note_on_c, 10, 59, 102
11, 408960, Note_off_c, 10, 59, 64
11, 408960, Note_on_c, 10, 60, 102
11, 409152, Note_off_c, 10, 60, 64
11, 409200, Note_on_c, 10, 60, 64
11, 409392, Note_off_c, 10, 60, 64
11, 409440, Note_on_c, 10, 60, 64
11, 409632, Note_off_c, 10, 60, 64
11, 409680, Note_on_c, 10, 60, 64
11, 409872, Note_off_c, 10, 60, 64
11, 409920, Note_on_c, 10, 60, 64
11, 410112, Note_off_c, 10, 60, 64
11, 410160, Note_on_c, 10, 60, 64
11, 410352, Note_off_c, 10, 60, 64
11, 410400, Note_on_c, 10, 60, 64
11, 410592, Note_off_c, 10, 60, 64
11, 410640, Note_on_c, 10, 60, 64
11, 410832, Note_off_c, 10, 60, 64
11, 410880, Note_on_c, 10, 60, 102
11, 411240, Note_off_c, 10, 60, 64
11, 412800, Note_on_c, 10, 58, 102
11, 413160, Note_off_c, 10, 58, 64
11, 414720, Note_on_c, 10, 60, 102
11, 414720, Note_on_c, 10, 63, 102
11, 415080, Note_off_c, 10, 63, 64
11, 415080, Note_off_c, 10, 60, 64
11, 416640, Note_on_c, 10, 53, 102
11, 417000, Note_off_c, 10, 53, 64
11, 418560, Note_on_c, 10, 50, 32
11, 418560, Note_on_c, 10, 53, 32
11, 418752, Note_off_c, 10, 53, 64
11, 418752, Note_off_c, 10, 50, 64
11, 418800, Note_on_c, 10, 50, 32
11, 418800, Note_on_c, 10, 53, 32
11, 418992, Note_off_c, 10, 53, 64
11, 418992, Note_off_c, 10, 50, 64
11, 419040, Note_on_c, 10, 53, 32
11, 419040, Note_on_c, 10, 50, 32
11, 419232, Note_off_c, 10, 50, 64
11, 419232, Note_off_c, 10, 53, 64
11, 419280, Note_on_c, 10, 50, 32
11, 419280, Note_on_c, 10, 53, 32
11, 419472, Note_off_c, 10, 53, 64
11, 419472, Note_off_c, 10, 50, 64
11, 419520, Note_on_c, 10, 50, 32
11, 419520, Note_on_c, 10, 53, 32
11, 419712, Note_off_c, 10, 53, 64
11, 419712, Note_off_c, 10, 50, 64
11, 419760, Note_on_c, 10, 53, 32
11, 419760, Note_on_c, 10, 50, 32
11, 419952, Note_off_c, 10, 50, 64
11, 419952, Note_off_c, 10, 53, 64
11, 420000, Note_on_c, 10, 50, 32
11, 420000, Note_on_c, 10, 53, 32
11, 420192, Note_off_c, 10, 53, 64
11, 420192, Note_off_c, 10, 50, 64
11, 420240, Note_on_c, 10, 50, 32
11, 420240, Note_on_c, 10, 53, 32
11, 420432, Note_off_c, 10, 53, 64
11, 420432, Note_off_c, 10, 50, 64
11, 420480, Note_on_c, 10, 50, 32
11, 420480, Note_on_c, 10, 53, 32
11, 420672, Note_off_c, 10, 53, 64
11, 420672, Note_off_c, 10, 50, 64
11, 420720, Note_on_c, 10, 50, 32
11, 420720, Note_on_c, 10, 53, 32
11, 420912, Note_off_c, 10, 53, 64
11, 420912, Note_off_c, 10, 50, 64
11, 420960, Note_on_c, 10, 50, 32
11, 420960, Note_on_c, 10, 53, 32
11, 421152, Note_off_c, 10, 53, 64
11, 421152, Note_off_c, 10, 50, 64
11, 421200, Note_on_c, 10, 53, 32
11, 421200, Note_on_c, 10, 50, 32
11, 421392, Note_off_c, 10, 50, 64
11, 421392, Note_off_c, 10, 53, 64
11, 421440, Note_on_c, 10, 53, 32
11, 421440, Note_on_c, 10, 50, 32
11, 421632, Note_off_c, 10, 50, 64
11, 421632, Note_off_c, 10, 53, 64
11, 421680, Note_on_c, 10, 50, 32
11, 421680, Note_on_c, 10, 53, 32
11, 421872, Note_off_c, 10, 53, 64
11, 421872, Note_off_c, 10, 50, 64
11, 421920, Note_on_c, 10, 50, 32
11, 421920, Note_on_c, 10, 53, 32
11, 422112, Note_off_c, 10, 53, 64
11, 422112, Note_off_c, 10, 50, 64
11, 422160, Note_on_c, 10, 50, 32
11, 422160, Note_on_c, 10, 53, 32
11, 422352, Note_off_c, 10, 53, 64
11, 422352, Note_off_c, 10, 50, 64
11, 422400, Note_on_c, 10, 53, 32
11, 422400, Note_on_c, 10, 50, 32
11, 422592, Note_off_c, 10, 50, 64
11, 422592, Note_off_c, 10, 53, 64
11, 422640, Note_on_c, 10, 50, 32
11, 422640, Note_on_c, 10, 53, 32
11, 422832, Note_off_c, 10, 53, 64
11, 422832, Note_off_c, 10, 50, 64
11, 422880, Note_on_c, 10, 50, 32
11, 422880, Note_on_c, 10, 53, 32
11, 423072, Note_off_c, 10, 53, 64
11, 423072, Note_off_c, 10, 50, 64
11, 423120, Note_on_c, 10, 50, 32
11, 423120, Note_on_c, 10, 53, 32
11, 423312, Note_off_c, 10, 53, 64
11, 423312, Note_off_c, 10, 50, 64
11, 423360, Note_on_c, 10, 50, 32
11, 423360, Note_on_c, 10, 53, 32
11, 423552, Note_off_c, 10, 53, 64
11, 423552, Note_off_c, 10, 50, 64
11, 423600, Note_on_c, 10, 50, 32
11, 423600, Note_on_c, 10, 53, 32
11, 423792, Note_off_c, 10, 53, 64
11, 423792, Note_off_c, 10, 50, 64
11, 423840, Note_on_c, 10, 50, 32
11, 423840, Note_on_c, 10, 53, 32
11, 424032, Note_off_c, 10, 53, 64
11, 424032, Note_off_c, 10, 50, 64
11, 424080, Note_on_c, 10, 53, 32
11, 424080, Note_on_c, 10, 50, 32
11, 424272, Note_off_c, 10, 50, 64
11, 424272, Note_off_c, 10, 53, 64
11, 424320, Note_on_c, 10, 53, 32
11, 424320, Note_on_c, 10, 50, 32
11, 424512, Note_off_c, 10, 50, 64
11, 424512, Note_off_c, 10, 53, 64
11, 424560, Note_on_c, 10, 50, 32
11, 424560, Note_on_c, 10, 53, 32
11, 424752, Note_off_c, 10, 53, 64
11, 424752, Note_off_c, 10, 50, 64
11, 424800, Note_on_c, 10, 50, 32
11, 424800, Note_on_c, 10, 53, 32
11, 424992, Note_off_c, 10, 53, 64
11, 424992, Note_off_c, 10, 50, 64
11, 425040, Note_on_c, 10, 50, 32
11, 425040, Note_on_c, 10, 53, 32
11, 425232, Note_off_c, 10, 53, 64
11, 425232, Note_off_c, 10, 50, 64
11, 425280, Note_on_c, 10, 50, 32
11, 425280, Note_on_c, 10, 53, 32
11, 425472, Note_off_c, 10, 53, 64
11, 425472, Note_off_c, 10, 50, 64
11, 425520, Note_on_c, 10, 50, 32
11, 425520, Note_on_c, 10, 53, 32
11, 425712, Note_off_c, 10, 53, 64
11, 425712, Note_off_c, 10, 50, 64
11, 425760, Note_on_c, 10, 50, 32
11, 425760, Note_on_c, 10, 53, 32
11, 425952, Note_off_c, 10, 53, 64
11, 425952, Note_off_c, 10, 50, 64
11, 426000, Note_on_c, 10, 53, 32
11, 426000, Note_on_c, 10, 50, 32
11, 426192, Note_off_c, 10, 50, 64
11, 426192, Note_off_c, 10, 53, 64
11, 426240, Note_on_c, 10, 54, 32
11, 426240, Note_on_c, 10, 51, 32
11, 426432, Note_off_c, 10, 51, 64
11, 426432, Note_off_c, 10, 54, 64
11, 426480, Note_on_c, 10, 51, 32
11, 426480, Note_on_c, 10, 54, 32
11, 426672, Note_off_c, 10, 54, 64
11, 426672, Note_off_c, 10, 51, 64
11, 426720, Note_on_c, 10, 54, 32
11, 426720, Note_on_c, 10, 51, 32
11, 426912, Note_off_c, 10, 51, 64
11, 426912, Note_off_c, 10, 54, 64
11, 426960, Note_on_c, 10, 51, 32
11, 426960, Note_on_c, 10, 54, 32
11, 427152, Note_off_c, 10, 54, 64
11, 427152, Note_off_c, 10, 51, 64
11, 427200, Note_on_c, 10, 54, 32
11, 427200, Note_on_c, 10, 51, 32
11, 427392, Note_off_c, 10, 51, 64
11, 427392, Note_off_c, 10, 54, 64
11, 427440, Note_on_c, 10, 51, 32
11, 427440, Note_on_c, 10, 54, 32
11, 427632, Note_off_c, 10, 54, 64
11, 427632, Note_off_c, 10, 51, 64
11, 427680, Note_on_c, 10, 51, 32
11, 427680, Note_on_c, 10, 54, 32
11, 427872, Note_off_c, 10, 54, 64
11, 427872, Note_off_c, 10, 51, 64
11, 427920, Note_on_c, 10, 51, 32
11, 427920, Note_on_c, 10, 54, 32
11, 428112, Note_off_c, 10, 54, 64
11, 428112, Note_off_c, 10, 51, 64
11, 428160, Note_on_c, 10, 51, 32
11, 428160, Note_on_c, 10, 54, 32
11, 428352, Note_off_c, 10, 54, 64
11, 428352, Note_off_c, 10, 51, 64
11, 428400, Note_on_c, 10, 54, 32
11, 428400, Note_on_c, 10, 51, 32
11, 428592, Note_off_c, 10, 51, 64
11, 428592, Note_off_c, 10, 54, 64
11, 428640, Note_on_c, 10, 51, 32
11, 428640, Note_on_c, 10, 54, 32
11, 428832, Note_off_c, 10, 54, 64
11, 428832, Note_off_c, 10, 51, 64
11, 428880, Note_on_c, 10, 54, 32
11, 428880, Note_on_c, 10, 51, 32
11, 429072, Note_off_c, 10, 51, 64
11, 429072, Note_off_c, 10, 54, 64
11, 429120, Note_on_c, 10, 54, 32
11, 429120, Note_on_c, 10, 51, 32
11, 429312, Note_off_c, 10, 51, 64
11, 429312, Note_off_c, 10, 54, 64
11, 429360, Note_on_c, 10, 54, 32
11, 429360, Note_on_c, 10, 51, 32
11, 429552, Note_off_c, 10, 51, 64
11, 429552, Note_off_c, 10, 54, 64
11, 429600, Note_on_c, 10, 51, 32
11, 429600, Note_on_c, 10, 54, 32
11, 429792, Note_off_c, 10, 54, 64
11, 429792, Note_off_c, 10, 51, 64
11, 429840, Note_on_c, 10, 51, 32
11, 429840, Note_on_c, 10, 54, 32
11, 430032, Note_off_c, 10, 54, 64
11, 430032, Note_off_c, 10, 51, 64
11, 430080, Note_on_c, 10, 51, 32
11, 430080, Note_on_c, 10, 54, 32
11, 430272, Note_off_c, 10, 54, 64
11, 430272, Note_off_c, 10, 51, 64
11, 430320, Note_on_c, 10, 54, 32
11, 430320, Note_on_c, 10, 51, 32
11, 430512, Note_off_c, 10, 51, 64
11, 430512, Note_off_c, 10, 54, 64
11, 430560, Note_on_c, 10, 54, 32
11, 430560, Note_on_c, 10, 51, 32
11, 430752, Note_off_c, 10, 51, 64
11, 430752, Note_off_c, 10, 54, 64
11, 430800, Note_on_c, 10, 54, 32
11, 430800, Note_on_c, 10, 51, 32
11, 430992, Note_off_c, 10, 51, 64
11, 430992, Note_off_c, 10, 54, 64
11, 431040, Note_on_c, 10, 54, 32
11, 431040, Note_on_c, 10, 51, 32
11, 431232, Note_off_c, 10, 51, 64
11, 431232, Note_off_c, 10, 54, 64
11, 431280, Note_on_c, 10, 54, 32
11, 431280, Note_on_c, 10, 51, 32
11, 431472, Note_off_c, 10, 51, 64
11, 431472, Note_off_c, 10, 54, 64
11, 431520, Note_on_c, 10, 51, 32
11, 431520, Note_on_c, 10, 54, 32
11, 431712, Note_off_c, 10, 54, 64
11, 431712, Note_off_c, 10, 51, 64
11, 431760, Note_on_c, 10, 51, 32
11, 431760, Note_on_c, 10, 54, 32
11, 431952, Note_off_c, 10, 54, 64
11, 431952, Note_off_c, 10, 51, 64
11, 432000, Note_on_c, 10, 51, 35
11, 432000, Note_on_c, 10, 54, 35
11, 432192, Note_off_c, 10, 54, 64
11, 432192, Note_off_c, 10, 51, 64
11, 432240, Note_on_c, 10, 54, 35
11, 432240, Note_on_c, 10, 51, 35
11, 432432, Note_off_c, 10, 51, 64
11, 432432, Note_off_c, 10, 54, 64
11, 432480, Note_on_c, 10, 54, 35
11, 432480, Note_on_c, 10, 51, 35
11, 432672, Note_off_c, 10, 51, 64
11, 432672, Note_off_c, 10, 54, 64
11, 432720, Note_on_c, 10, 54, 35
11, 432720, Note_on_c, 10, 51, 35
11, 432912, Note_off_c, 10, 51, 64
11, 432912, Note_off_c, 10, 54, 64
11, 432960, Note_on_c, 10, 54, 35
11, 432960, Note_on_c, 10, 51, 35
11, 433152, Note_off_c, 10, 51, 64
11, 433152, Note_off_c, 10, 54, 64
11, 433200, Note_on_c, 10, 54, 35
11, 433200, Note_on_c, 10, 51, 35
11, 433392, Note_off_c, 10, 51, 64
11, 433392, Note_off_c, 10, 54, 64
11, 433440, Note_on_c, 10, 51, 35
11, 433440, Note_on_c, 10, 54, 35
11, 433632, Note_off_c, 10, 54, 64
11, 433632, Note_off_c, 10, 51, 64
11, 433680, Note_on_c, 10, 51, 35
11, 433680, Note_on_c, 10, 54, 35
11, 433872, Note_off_c, 10, 54, 64
11, 433872, Note_off_c, 10, 51, 64
11, 433920, Note_on_c, 10, 56, 32
11, 433920, Note_on_c, 10, 53, 32
11, 434112, Note_off_c, 10, 53, 64
11, 434112, Note_off_c, 10, 56, 64
11, 434160, Note_on_c, 10, 53, 32
11, 434160, Note_on_c, 10, 56, 32
11, 434352, Note_off_c, 10, 56, 64
11, 434352, Note_off_c, 10, 53, 64
11, 434400, Note_on_c, 10, 53, 32
11, 434400, Note_on_c, 10, 56, 32
11, 434592, Note_off_c, 10, 56, 64
11, 434592, Note_off_c, 10, 53, 64
11, 434640, Note_on_c, 10, 53, 32
11, 434640, Note_on_c, 10, 56, 32
11, 434832, Note_off_c, 10, 56, 64
11, 434832, Note_off_c, 10, 53, 64
11, 434880, Note_on_c, 10, 56, 32
11, 434880, Note_on_c, 10, 53, 32
11, 435072, Note_off_c, 10, 53, 64
11, 435072, Note_off_c, 10, 56, 64
11, 435120, Note_on_c, 10, 53, 32
11, 435120, Note_on_c, 10, 56, 32
11, 435312, Note_off_c, 10, 56, 64
11, 435312, Note_off_c, 10, 53, 64
11, 435360, Note_on_c, 10, 56, 32
11, 435360, Note_on_c, 10, 53, 32
11, 435552, Note_off_c, 10, 53, 64
11, 435552, Note_off_c, 10, 56, 64
11, 435600, Note_on_c, 10, 53, 32
11, 435600, Note_on_c, 10, 56, 32
11, 435792, Note_off_c, 10, 56, 64
11, 435792, Note_off_c, 10, 53, 64
11, 435840, Note_on_c, 10, 56, 32
11, 435840, Note_on_c, 10, 53, 32
11, 436032, Note_off_c, 10, 53, 64
11, 436032, Note_off_c, 10, 56, 64
11, 436080, Note_on_c, 10, 53, 32
11, 436080, Note_on_c, 10, 56, 32
11, 436272, Note_off_c, 10, 56, 64
11, 436272, Note_off_c, 10, 53, 64
11, 436320, Note_on_c, 10, 56, 32
11, 436320, Note_on_c, 10, 53, 32
11, 436512, Note_off_c, 10, 53, 64
11, 436512, Note_off_c, 10, 56, 64
11, 436560, Note_on_c, 10, 56, 32
11, 436560, Note_on_c, 10, 53, 32
11, 436752, Note_off_c, 10, 53, 64
11, 436752, Note_off_c, 10, 56, 64
11, 436800, Note_on_c, 10, 56, 32
11, 436800, Note_on_c, 10, 53, 32
11, 436992, Note_off_c, 10, 53, 64
11, 436992, Note_off_c, 10, 56, 64
11, 437040, Note_on_c, 10, 53, 32
11, 437040, Note_on_c, 10, 56, 32
11, 437232, Note_off_c, 10, 56, 64
11, 437232, Note_off_c, 10, 53, 64
11, 437280, Note_on_c, 10, 56, 32
11, 437280, Note_on_c, 10, 53, 32
11, 437472, Note_off_c, 10, 53, 64
11, 437472, Note_off_c, 10, 56, 64
11, 437520, Note_on_c, 10, 56, 32
11, 437520, Note_on_c, 10, 53, 32
11, 437712, Note_off_c, 10, 53, 64
11, 437712, Note_off_c, 10, 56, 64
11, 437760, Note_on_c, 10, 55, 32
11, 437760, Note_on_c, 10, 58, 32
11, 437952, Note_off_c, 10, 58, 64
11, 437952, Note_off_c, 10, 55, 64
11, 438000, Note_on_c, 10, 55, 32
11, 438000, Note_on_c, 10, 58, 32
11, 438192, Note_off_c, 10, 58, 64
11, 438192, Note_off_c, 10, 55, 64
11, 438240, Note_on_c, 10, 55, 32
11, 438240, Note_on_c, 10, 58, 32
11, 438432, Note_off_c, 10, 58, 64
11, 438432, Note_off_c, 10, 55, 64
11, 438480, Note_on_c, 10, 55, 32
11, 438480, Note_on_c, 10, 58, 32
11, 438672, Note_off_c, 10, 58, 64
11, 438672, Note_off_c, 10, 55, 64
11, 438720, Note_on_c, 10, 55, 32
11, 438720, Note_on_c, 10, 58, 32
11, 438912, Note_off_c, 10, 58, 64
11, 438912, Note_off_c, 10, 55, 64
11, 438960, Note_on_c, 10, 55, 32
11, 438960, Note_on_c, 10, 58, 32
11, 439152, Note_off_c, 10, 58, 64
11, 439152, Note_off_c, 10, 55, 64
11, 439200, Note_on_c, 10, 55, 32
11, 439200, Note_on_c, 10, 58, 32
11, 439392, Note_off_c, 10, 58, 64
11, 439392, Note_off_c, 10, 55, 64
11, 439440, Note_on_c, 10, 55, 32
11, 439440, Note_on_c, 10, 58, 32
11, 439632, Note_off_c, 10, 58, 64
11, 439632, Note_off_c, 10, 55, 64
11, 439680, Note_on_c, 10, 55, 32
11, 439680, Note_on_c, 10, 58, 32
11, 439872, Note_off_c, 10, 58, 64
11, 439872, Note_off_c, 10, 55, 64
11, 439920, Note_on_c, 10, 55, 32
11, 439920, Note_on_c, 10, 58, 32
11, 440112, Note_off_c, 10, 58, 64
11, 440112, Note_off_c, 10, 55, 64
11, 440160, Note_on_c, 10, 58, 32
11, 440160, Note_on_c, 10, 55, 32
11, 440352, Note_off_c, 10, 55, 64
11, 440352, Note_off_c, 10, 58, 64
11, 440400, Note_on_c, 10, 58, 32
11, 440400, Note_on_c, 10, 55, 32
11, 440592, Note_off_c, 10, 55, 64
11, 440592, Note_off_c, 10, 58, 64
11, 440640, Note_on_c, 10, 58, 32
11, 440640, Note_on_c, 10, 55, 32
11, 440832, Note_off_c, 10, 55, 64
11, 440832, Note_off_c, 10, 58, 64
11, 440880, Note_on_c, 10, 58, 32
11, 440880, Note_on_c, 10, 55, 32
11, 441072, Note_off_c, 10, 55, 64
11, 441072, Note_off_c, 10, 58, 64
11, 441120, Note_on_c, 10, 58, 32
11, 441120, Note_on_c, 10, 55, 32
11, 441312, Note_off_c, 10, 55, 64
11, 441312, Note_off_c, 10, 58, 64
11, 441360, Note_on_c, 10, 58, 32
11, 441360, Note_on_c, 10, 55, 32
11, 441552, Note_off_c, 10, 55, 64
11, 441552, Note_off_c, 10, 58, 64
11, 441600, Note_on_c, 10, 60, 51
11, 441600, Note_on_c, 10, 63, 51
11, 441792, Note_off_c, 10, 63, 64
11, 441792, Note_off_c, 10, 60, 64
11, 441840, Note_on_c, 10, 60, 52
11, 441840, Note_on_c, 10, 63, 52
11, 442032, Note_off_c, 10, 63, 64
11, 442032, Note_off_c, 10, 60, 64
11, 442080, Note_on_c, 10, 60, 54
11, 442080, Note_on_c, 10, 63, 54
11, 442272, Note_off_c, 10, 63, 64
11, 442272, Note_off_c, 10, 60, 64
11, 442320, Note_on_c, 10, 63, 54
11, 442320, Note_on_c, 10, 60, 54
11, 442512, Note_off_c, 10, 60, 64
11, 442512, Note_off_c, 10, 63, 64
11, 442560, Note_on_c, 10, 60, 56
11, 442560, Note_on_c, 10, 63, 56
11, 442752, Note_off_c, 10, 63, 64
11, 442752, Note_off_c, 10, 60, 64
11, 442800, Note_on_c, 10, 63, 58
11, 442800, Note_on_c, 10, 60, 58
11, 442992, Note_off_c, 10, 60, 64
11, 442992, Note_off_c, 10, 63, 64
11, 443040, Note_on_c, 10, 60, 58
11, 443040, Note_on_c, 10, 63, 58
11, 443232, Note_off_c, 10, 63, 64
11, 443232, Note_off_c, 10, 60, 64
11, 443280, Note_on_c, 10, 60, 60
11, 443280, Note_on_c, 10, 63, 60
11, 443472, Note_off_c, 10, 63, 64
11, 443472, Note_off_c, 10, 60, 64
11, 443520, Note_on_c, 10, 60, 67
11, 443520, Note_on_c, 10, 63, 67
11, 443712, Note_off_c, 10, 63, 64
11, 443712, Note_off_c, 10, 60, 64
11, 443760, Note_on_c, 10, 63, 68
11, 443760, Note_on_c, 10, 60, 68
11, 443952, Note_off_c, 10, 60, 64
11, 443952, Note_off_c, 10, 63, 64
11, 444000, Note_on_c, 10, 63, 70
11, 444000, Note_on_c, 10, 60, 70
11, 444192, Note_off_c, 10, 60, 64
11, 444192, Note_off_c, 10, 63, 64
11, 444240, Note_on_c, 10, 63, 72
11, 444240, Note_on_c, 10, 60, 72
11, 444432, Note_off_c, 10, 60, 64
11, 444432, Note_off_c, 10, 63, 64
11, 444480, Note_on_c, 10, 60, 73
11, 444480, Note_on_c, 10, 63, 73
11, 444672, Note_off_c, 10, 63, 64
11, 444672, Note_off_c, 10, 60, 64
11, 444720, Note_on_c, 10, 63, 74
11, 444720, Note_on_c, 10, 60, 74
11, 444912, Note_off_c, 10, 60, 64
11, 444912, Note_off_c, 10, 63, 64
11, 444960, Note_on_c, 10, 63, 76
11, 444960, Note_on_c, 10, 60, 76
11, 445152, Note_off_c, 10, 60, 64
11, 445152, Note_off_c, 10, 63, 64
11, 445200, Note_on_c, 10, 60, 77
11, 445200, Note_on_c, 10, 63, 77
11, 445392, Note_off_c, 10, 63, 64
11, 445392, Note_off_c, 10, 60, 64
11, 445440, Note_on_c, 10, 60, 92
11, 445440, Note_on_c, 10, 63, 92
11, 445632, Note_off_c, 10, 63, 64
11, 445632, Note_off_c, 10, 60, 64
11, 445680, Note_on_c, 10, 63, 95
11, 445680, Note_on_c, 10, 60, 95
11, 445872, Note_off_c, 10, 60, 64
11, 445872, Note_off_c, 10, 63, 64
11, 445920, Note_on_c, 10, 60, 96
11, 445920, Note_on_c, 10, 63, 96
11, 446112, Note_off_c, 10, 63, 64
11, 446112, Note_off_c, 10, 60, 64
11, 446160, Note_on_c, 10, 63, 98
11, 446160, Note_on_c, 10, 60, 98
11, 446352, Note_off_c, 10, 60, 64
11, 446352, Note_off_c, 10, 63, 64
11, 446400, Note_on_c, 10, 60, 100
11, 446400, Note_on_c, 10, 63, 100
11, 446592, Note_off_c, 10, 63, 64
11, 446592, Note_off_c, 10, 60, 64
11, 446640, Note_on_c, 10, 63, 101
11, 446640, Note_on_c, 10, 60, 101
11, 446832, Note_off_c, 10, 60, 64
11, 446832, Note_off_c, 10, 63, 64
11, 446880, Note_on_c, 10, 63, 103
11, 446880, Note_on_c, 10, 60, 103
11, 447072, Note_off_c, 10, 60, 64
11, 447072, Note_off_c, 10, 63, 64
11, 447120, Note_on_c, 10, 60, 105
11, 447120, Note_on_c, 10, 63, 105
11, 447312, Note_off_c, 10, 63, 64
11, 447312, Note_off_c, 10, 60, 64
11, 447360, Note_on_c, 10, 63, 107
11, 447360, Note_on_c, 10, 60, 107
11, 447552, Note_off_c, 10, 60, 64
11, 447552, Note_off_c, 10, 63, 64
11, 447600, Note_on_c, 10, 60, 108
11, 447600, Note_on_c, 10, 63, 108
11, 447792, Note_off_c, 10, 63, 64
11, 447792, Note_off_c, 10, 60, 64
11, 447840, Note_on_c, 10, 63, 109
11, 447840, Note_on_c, 10, 60, 109
11, 448032, Note_off_c, 10, 60, 64
11, 448032, Note_off_c, 10, 63, 64
11, 448080, Note_on_c, 10, 60, 112
11, 448080, Note_on_c, 10, 63, 112
11, 448272, Note_off_c, 10, 63, 64
11, 448272, Note_off_c, 10, 60, 64
11, 448320, Note_on_c, 10, 60, 113
11, 448320, Note_on_c, 10, 63, 113
11, 448512, Note_off_c, 10, 63, 64
11, 448512, Note_off_c, 10, 60, 64
11, 448680, Note_on_c, 10, 65, 127
11, 448776, Note_off_c, 10, 65, 64
11, 448800, Note_on_c, 10, 67, 127
11, 448896, Note_off_c, 10, 67, 64
11, 448920, Note_on_c, 10, 69, 127
11, 449016, Note_off_c, 10, 69, 64
11, 449040, Note_on_c, 10, 70, 127
11, 449136, Note_off_c, 10, 70, 64
11, 449160, Note_on_c, 10, 72, 127
11, 449256, Note_off_c, 10, 72, 64
11, 449280, Note_on_c, 10, 74, 127
11, 449520, Note_off_c, 10, 74, 64
11, 449520, Note_on_c, 10, 74, 127
11, 449520, Note_on_c, 10, 74, 127
11, 449760, Note_off_c, 10, 74, 64
11, 449760, Note_off_c, 10, 74, 64
11, 449760, Note_on_c, 10, 70, 127
11, 450000, Note_off_c, 10, 70, 64
11, 450000, Note_on_c, 10, 70, 127
11, 450240, Note_off_c, 10, 70, 64
11, 450240, Note_on_c, 10, 65, 127
11, 450480, Note_off_c, 10, 65, 64
11, 450480, Note_on_c, 10, 65, 127
11, 450720, Note_off_c, 10, 65, 64
11, 450720, Note_on_c, 10, 70, 127
11, 450960, Note_off_c, 10, 70, 64
11, 450960, Note_on_c, 10, 70, 127
11, 451200, Note_off_c, 10, 70, 64
11, 451200, Note_on_c, 10, 62, 127
11, 451440, Note_off_c, 10, 62, 64
11, 451440, Note_on_c, 10, 62, 127
11, 451680, Note_off_c, 10, 62, 64
11, 451680, Note_on_c, 10, 65, 127
11, 451920, Note_off_c, 10, 65, 64
11, 451920, Note_on_c, 10, 65, 127
11, 452160, Note_off_c, 10, 65, 64
11, 452160, Note_on_c, 10, 58, 127
11, 452400, Note_off_c, 10, 58, 64
11, 452400, Note_on_c, 10, 58, 127
11, 452640, Note_off_c, 10, 58, 64
11, 452640, Note_on_c, 10, 62, 127
11, 452880, Note_off_c, 10, 62, 64
11, 452880, Note_on_c, 10, 62, 127
11, 453120, Note_off_c, 10, 62, 64
11, 453120, Note_on_c, 10, 55, 127
11, 453360, Note_off_c, 10, 55, 64
11, 453360, Note_on_c, 10, 55, 127
11, 453600, Note_off_c, 10, 55, 64
11, 453600, Note_on_c, 10, 63, 127
11, 453840, Note_off_c, 10, 63, 64
11, 453840, Note_on_c, 10, 63, 127
11, 454080, Note_off_c, 10, 63, 64
11, 454080, Note_on_c, 10, 60, 127
11, 454320, Note_off_c, 10, 60, 64
11, 454320, Note_on_c, 10, 60, 127
11, 454560, Note_off_c, 10, 60, 64
11, 454560, Note_on_c, 10, 58, 127
11, 454800, Note_off_c, 10, 58, 64
11, 454800, Note_on_c, 10, 58, 127
11, 455040, Note_off_c, 10, 58, 64
11, 455040, Note_on_c, 10, 57, 127
11, 455280, Note_off_c, 10, 57, 64
11, 455280, Note_on_c, 10, 57, 127
11, 455520, Note_off_c, 10, 57, 64
11, 455520, Note_on_c, 10, 65, 127
11, 455760, Note_off_c, 10, 65, 64
11, 455760, Note_on_c, 10, 65, 127
11, 456000, Note_off_c, 10, 65, 64
11, 456000, Note_on_c, 10, 63, 127
11, 456240, Note_off_c, 10, 63, 64
11, 456240, Note_on_c, 10, 63, 127
11, 456480, Note_off_c, 10, 63, 64
11, 456480, Note_on_c, 10, 60, 127
11, 456720, Note_off_c, 10, 60, 64
11, 456720, Note_on_c, 10, 60, 127
11, 456960, Note_off_c, 10, 60, 64
11, 456960, Note_on_c, 10, 58, 127
11, 460416, Note_off_c, 10, 58, 64
11, 460800, Note_on_c, 10, 63, 127
11, 462336, Note_off_c, 10, 63, 64
11, 462720, Note_on_c, 10, 65, 127
11, 464256, Note_off_c, 10, 65, 64
11, 464640, Note_on_c, 10, 58, 127
11, 466176, Note_off_c, 10, 58, 64
11, 466560, Note_on_c, 10, 57, 127
11, 468096, Note_off_c, 10, 57, 64
11, 468480, Note_on_c, 10, 62, 127
11, 470016, Note_off_c, 10, 62, 64
11, 470400, Note_on_c, 10, 60, 127
11, 472770, Note_off_c, 10, 60, 64
11, 476160, Note_on_c, 10, 48, 127
11, 476544, Note_off_c, 10, 48, 64
11, 482400, Note_on_c, 10, 53, 125
11, 483360, Note_off_c, 10, 53, 64
11, 483360, Note_on_c, 10, 48, 96
11, 483696, Note_off_c, 10, 48, 64
11, 483840, Note_on_c, 10, 48, 127
11, 484176, Note_off_c, 10, 48, 64
11, 484320, Note_on_c, 10, 60, 96
11, 484320, Note_on_c, 10, 48, 96
11, 485088, Note_off_c, 10, 48, 64
11, 485088, Note_off_c, 10, 60, 64
11, 485280, Note_on_c, 10, 48, 96
11, 485280, Note_on_c, 10, 60, 96
11, 486144, Note_off_c, 10, 60, 64
11, 486144, Note_off_c, 10, 48, 64
11, 486240, Note_on_c, 10, 48, 96
11, 486240, Note_on_c, 10, 60, 96
11, 487008, Note_off_c, 10, 60, 64
11, 487008, Note_off_c, 10, 48, 64
11, 487200, Note_on_c, 10, 48, 96
11, 487200, Note_on_c, 10, 60, 96
11, 488064, Note_off_c, 10, 60, 64
11, 488064, Note_off_c, 10, 48, 64
11, 488160, Note_on_c, 10, 48, 96
11, 488160, Note_on_c, 10, 60, 96
11, 488928, Note_off_c, 10, 60, 64
11, 488928, Note_off_c, 10, 48, 64
11, 489120, Note_on_c, 10, 48, 96
11, 489120, Note_on_c, 10, 60, 96
11, 489984, Note_off_c, 10, 60, 64
11, 489984, Note_off_c, 10, 48, 64
11, 490080, Note_on_c, 10, 48, 125
11, 490080, Note_on_c, 10, 60, 125
11, 491040, Note_off_c, 10, 60, 64
11, 491040, Note_off_c, 10, 48, 64
11, 491040, Note_on_c, 10, 48, 96
11, 491040, Note_on_c, 10, 60, 96
11, 491424, Note_off_c, 10, 60, 64
11, 491424, Note_off_c, 10, 48, 64
11, 491520, Note_on_c, 10, 60, 80
11, 492960, Note_off_c, 10, 60, 64
11, 492960, Note_on_c, 10, 62, 80
11, 493440, Note_off_c, 10, 62, 64
11, 493440, Note_on_c, 10, 55, 80
11, 493920, Note_off_c, 10, 55, 64
11, 493920, Note_on_c, 10, 57, 80
11, 494400, Note_off_c, 10, 57, 64
11, 494400, Note_on_c, 10, 58, 80
11, 494880, Note_off_c, 10, 58, 64
11, 494880, Note_on_c, 10, 52, 80
11, 495360, Note_off_c, 10, 52, 64
11, 495360, Note_on_c, 10, 53, 80
11, 495840, Note_off_c, 10, 53, 64
11, 495840, Note_on_c, 10, 55, 80
11, 496320, Note_off_c, 10, 55, 64
11, 496320, Note_on_c, 10, 48, 64
11, 496800, Note_off_c, 10, 48, 64
11, 496800, Note_on_c, 10, 50, 64
11, 496800, Note_on_c, 10, 62, 64
11, 497280, Note_off_c, 10, 62, 64
11, 497280, Note_off_c, 10, 50, 64
11, 497280, Note_on_c, 10, 58, 64
11, 497280, Note_on_c, 10, 46, 64
11, 497760, Note_off_c, 10, 46, 64
11, 497760, Note_off_c, 10, 58, 64
11, 497760, Note_on_c, 10, 57, 64
11, 497760, Note_on_c, 10, 45, 64
11, 498240, Note_off_c, 10, 45, 64
11, 498240, Note_off_c, 10, 57, 64
11, 498240, Note_on_c, 10, 55, 51
11, 498240, Note_on_c, 10, 43, 51
11, 498720, Note_off_c, 10, 43, 64
11, 498720, Note_off_c, 10, 55, 64
11, 498720, Note_on_c, 10, 60, 51
11, 498720, Note_on_c, 10, 48, 51
11, 499200, Note_off_c, 10, 48, 64
11, 499200, Note_off_c, 10, 60, 64
11, 499200, Note_on_c, 10, 53, 34
11, 503040, Note_off_c, 10, 53, 64
11, 503040, Note_on_c, 10, 60, 34
11, 506880, Note_off_c, 10, 60, 64
11, 506880, Note_on_c, 10, 57, 34
11, 510720, Note_off_c, 10, 57, 64
11, 510720, Note_on_c, 10, 57, 32
11, 510912, Note_off_c, 10, 57, 64
11, 512160, Note_on_c, 10, 57, 32
11, 512352, Note_off_c, 10, 57, 64
11, 512640, Note_on_c, 10, 57, 32
11, 512832, Note_off_c, 10, 57, 64
11, 514080, Note_on_c, 10, 57, 32
11, 514272, Note_off_c, 10, 57, 64
11, 514560, Note_on_c, 10, 57, 32
11, 514752, Note_off_c, 10, 57, 64
11, 516000, Note_on_c, 10, 57, 32
11, 516192, Note_off_c, 10, 57, 64
11, 516480, Note_on_c, 10, 57, 32
11, 516672, Note_off_c, 10, 57, 64
11, 517920, Note_on_c, 10, 57, 32
11, 518112, Note_off_c, 10, 57, 64
11, 518400, Note_on_c, 10, 57, 40
11, 518592, Note_off_c, 10, 57, 64
11, 518880, Note_on_c, 10, 52, 40
11, 518880, Note_on_c, 10, 49, 40
11, 519072, Note_off_c, 10, 49, 64
11, 519072, Note_off_c, 10, 52, 64
11, 519360, Note_on_c, 10, 57, 40
11, 519552, Note_off_c, 10, 57, 64
11, 520800, Note_on_c, 10, 53, 40
11, 520800, Note_on_c, 10, 50, 40
11, 520992, Note_off_c, 10, 50, 64
11, 520992, Note_off_c, 10, 53, 64
11, 521280, Note_on_c, 10, 53, 40
11, 521280, Note_on_c, 10, 57, 40
11, 521472, Note_off_c, 10, 57, 64
11, 521472, Note_off_c, 10, 53, 64
11, 522720, Note_on_c, 10, 55, 40
11, 522720, Note_on_c, 10, 52, 40
11, 522912, Note_off_c, 10, 52, 64
11, 522912, Note_off_c, 10, 55, 64
11, 523200, Note_on_c, 10, 57, 40
11, 523200, Note_on_c, 10, 55, 40
11, 523392, Note_off_c, 10, 55, 64
11, 523392, Note_off_c, 10, 57, 64
11, 524640, Note_on_c, 10, 53, 40
11, 524640, Note_on_c, 10, 50, 40
11, 524832, Note_off_c, 10, 50, 64
11, 524832, Note_off_c, 10, 53, 64
11, 525120, Note_on_c, 10, 50, 40
11, 525120, Note_on_c, 10, 53, 40
11, 525312, Note_off_c, 10, 53, 64
11, 525312, Note_off_c, 10, 50, 64
11, 525600, Note_on_c, 10, 50, 40
11, 525600, Note_on_c, 10, 53, 40
11, 525792, Note_off_c, 10, 53, 64
11, 525792, Note_off_c, 10, 50, 64
11, 547200, Note_on_c, 10, 60, 92
11, 547680, Note_off_c, 10, 60, 64
11, 548160, Note_on_c, 10, 70, 96
11, 548640, Note_off_c, 10, 70, 64
11, 549120, Note_on_c, 10, 67, 92
11, 549600, Note_off_c, 10, 67, 64
11, 550080, Note_on_c, 10, 64, 96
11, 550560, Note_off_c, 10, 64, 64
11, 551040, Note_on_c, 10, 60, 92
11, 551520, Note_off_c, 10, 60, 64
11, 552000, Note_on_c, 10, 58, 96
11, 552480, Note_off_c, 10, 58, 64
11, 552960, Note_on_c, 10, 57, 80
11, 553248, Note_off_c, 10, 57, 64
11, 553440, Note_on_c, 10, 65, 80
11, 554208, Note_off_c, 10, 65, 64
11, 554400, Note_on_c, 10, 65, 80
11, 554688, Note_off_c, 10, 65, 64
11, 554880, Note_on_c, 10, 65, 80
11, 555168, Note_off_c, 10, 65, 64
11, 555360, Note_on_c, 10, 62, 80
11, 556128, Note_off_c, 10, 62, 64
11, 556320, Note_on_c, 10, 67, 80
11, 556608, Note_off_c, 10, 67, 64
11, 556800, Note_on_c, 10, 65, 80
11, 557088, Note_off_c, 10, 65, 64
11, 557280, Note_on_c, 10, 60, 80
11, 558048, Note_off_c, 10, 60, 64
11, 558240, Note_on_c, 10, 60, 80
11, 558240, Note_on_c, 10, 65, 80
11, 558528, Note_off_c, 10, 65, 64
11, 558528, Note_off_c, 10, 60, 64
11, 558720, Note_on_c, 10, 60, 80
11, 558720, Note_on_c, 10, 64, 80
11, 559008, Note_off_c, 10, 64, 64
11, 559008, Note_off_c, 10, 60, 64
11, 559200, Note_on_c, 10, 60, 80
11, 559200, Note_on_c, 10, 64, 80
11, 559488, Note_off_c, 10, 64, 64
11, 559488, Note_off_c, 10, 60, 64
11, 559680, Note_on_c, 10, 64, 80
11, 559680, Note_on_c, 10, 60, 80
11, 559968, Note_off_c, 10, 60, 64
11, 559968, Note_off_c, 10, 64, 64
11, 560160, Note_on_c, 10, 60, 80
11, 560160, Note_on_c, 10, 64, 80
11, 560448, Note_off_c, 10, 64, 64
11, 560448, Note_off_c, 10, 60, 64
11, 560640, Note_on_c, 10, 60, 80
11, 560640, Note_on_c, 10, 65, 80
11, 561120, Note_off_c, 10, 65, 64
11, 561120, Note_off_c, 10, 60, 64
11, 561120, Note_on_c, 10, 60, 80
11, 561360, Note_off_c, 10, 60, 64
11, 561600, Note_on_c, 10, 62, 80
11, 562080, Note_off_c, 10, 62, 64
11, 562080, Note_on_c, 10, 67, 80
11, 562320, Note_off_c, 10, 67, 64
11, 562560, Note_on_c, 10, 60, 80
11, 563040, Note_off_c, 10, 60, 64
11, 563040, Note_on_c, 10, 65, 80
11, 563280, Note_off_c, 10, 65, 64
11, 563520, Note_on_c, 10, 58, 80
11, 564000, Note_off_c, 10, 58, 64
11, 564000, Note_on_c, 10, 64, 80
11, 564240, Note_off_c, 10, 64, 64
11, 564480, Note_on_c, 10, 57, 56
11, 564864, Note_off_c, 10, 57, 64
11, 566400, Note_on_c, 10, 57, 32
11, 567840, Note_off_c, 10, 57, 64
11, 567840, Note_on_c, 10, 60, 32
11, 568320, Note_off_c, 10, 60, 64
11, 568320, Note_on_c, 10, 60, 32
11, 568800, Note_off_c, 10, 60, 64
11, 570240, Note_on_c, 10, 57, 32
11, 571680, Note_off_c, 10, 57, 64
11, 571680, Note_on_c, 10, 58, 32
11, 572160, Note_off_c, 10, 58, 64
11, 572160, Note_on_c, 10, 58, 32
11, 572640, Note_off_c, 10, 58, 64
11, 574080, Note_on_c, 10, 58, 32
11, 575520, Note_off_c, 10, 58, 64
11, 575520, Note_on_c, 10, 58, 32
11, 576000, Note_off_c, 10, 58, 64
11, 576000, Note_on_c, 10, 58, 32
11, 576480, Note_off_c, 10, 58, 64
11, 577920, Note_on_c, 10, 55, 32
11, 579360, Note_off_c, 10, 55, 64
11, 579360, Note_on_c, 10, 64, 104
11, 579552, Note_off_c, 10, 64, 64
11, 579600, Note_on_c, 10, 64, 104
11, 579792, Note_off_c, 10, 64, 64
11, 579840, Note_on_c, 10, 65, 104
11, 580032, Note_off_c, 10, 65, 64
11, 581280, Note_on_c, 10, 60, 104
11, 581472, Note_off_c, 10, 60, 64
11, 581520, Note_on_c, 10, 60, 104
11, 581712, Note_off_c, 10, 60, 64
11, 581760, Note_on_c, 10, 57, 104
11, 581952, Note_off_c, 10, 57, 64
11, 582000, Note_on_c, 10, 57, 104
11, 582192, Note_off_c, 10, 57, 64
11, 582240, Note_on_c, 10, 58, 104
11, 582432, Note_off_c, 10, 58, 64
11, 582480, Note_on_c, 10, 58, 104
11, 582672, Note_off_c, 10, 58, 64
11, 582720, Note_on_c, 10, 60, 104
11, 582912, Note_off_c, 10, 60, 64
11, 582960, Note_on_c, 10, 60, 104
11, 583152, Note_off_c, 10, 60, 64
11, 583200, Note_on_c, 10, 48, 104
11, 583392, Note_off_c, 10, 48, 64
11, 583440, Note_on_c, 10, 48, 104
11, 583632, Note_off_c, 10, 48, 64
11, 583680, Note_on_c, 10, 53, 104
11, 584832, Note_off_c, 10, 53, 64
11, 585120, Note_on_c, 10, 55, 104
11, 585312, Note_off_c, 10, 55, 64
11, 585360, Note_on_c, 10, 55, 104
11, 585552, Note_off_c, 10, 55, 64
11, 585600, Note_on_c, 10, 57, 104
11, 585792, Note_off_c, 10, 57, 64
11, 585840, Note_on_c, 10, 57, 104
11, 586032, Note_off_c, 10, 57, 64
11, 586080, Note_on_c, 10, 53, 104
11, 586272, Note_off_c, 10, 53, 64
11, 586320, Note_on_c, 10, 53, 104
11, 586512, Note_off_c, 10, 53, 64
11, 586560, Note_on_c, 10, 57, 104
11, 586752, Note_off_c, 10, 57, 64
11, 586800, Note_on_c, 10, 57, 104
11, 586992, Note_off_c, 10, 57, 64
11, 587040, Note_on_c, 10, 58, 104
11, 587232, Note_off_c, 10, 58, 64
11, 587280, Note_on_c, 10, 58, 104
11, 587472, Note_off_c, 10, 58, 64
11, 587520, Note_on_c, 10, 60, 104
11, 588672, Note_off_c, 10, 60, 64
11, 588960, Note_on_c, 10, 62, 104
11, 589152, Note_off_c, 10, 62, 64
11, 589200, Note_on_c, 10, 62, 104
11, 589392, Note_off_c, 10, 62, 64
11, 589440, Note_on_c, 10, 64, 104
11, 589632, Note_off_c, 10, 64, 64
11, 589680, Note_on_c, 10, 64, 104
11, 589872, Note_off_c, 10, 64, 64
11, 589920, Note_on_c, 10, 65, 104
11, 590112, Note_off_c, 10, 65, 64
11, 590160, Note_on_c, 10, 65, 104
11, 590352, Note_off_c, 10, 65, 64
11, 590400, Note_on_c, 10, 67, 104
11, 590592, Note_off_c, 10, 67, 64
11, 590640, Note_on_c, 10, 67, 104
11, 590832, Note_off_c, 10, 67, 64
11, 590880, Note_on_c, 10, 65, 104
11, 591072, Note_off_c, 10, 65, 64
11, 591120, Note_on_c, 10, 65, 104
11, 591312, Note_off_c, 10, 65, 64
11, 591360, Note_on_c, 10, 64, 104
11, 592512, Note_off_c, 10, 64, 64
11, 592800, Note_on_c, 10, 62, 104
11, 592992, Note_off_c, 10, 62, 64
11, 593040, Note_on_c, 10, 62, 104
11, 593232, Note_off_c, 10, 62, 64
11, 593280, Note_on_c, 10, 60, 104
11, 593472, Note_off_c, 10, 60, 64
11, 593520, Note_on_c, 10, 60, 104
11, 593712, Note_off_c, 10, 60, 64
11, 593760, Note_on_c, 10, 62, 104
11, 593952, Note_off_c, 10, 62, 64
11, 594000, Note_on_c, 10, 62, 104
11, 594192, Note_off_c, 10, 62, 64
11, 594240, Note_on_c, 10, 58, 83
11, 594432, Note_off_c, 10, 58, 64
11, 594480, Note_on_c, 10, 58, 83
11, 594672, Note_off_c, 10, 58, 64
11, 594720, Note_on_c, 10, 55, 83
11, 594912, Note_off_c, 10, 55, 64
11, 594960, Note_on_c, 10, 55, 83
11, 595152, Note_off_c, 10, 55, 64
11, 595200, Note_on_c, 10, 52, 66
11, 595650, Note_off_c, 10, 52, 64
11, 597600, Note_on_c, 10, 74, 40
11, 598080, Note_off_c, 10, 74, 64
11, 598080, Note_on_c, 10, 70, 40
11, 598560, Note_off_c, 10, 70, 64
11, 598560, Note_on_c, 10, 67, 40
11, 598944, Note_off_c, 10, 67, 64
11, 599040, Note_on_c, 10, 64, 40
11, 599232, Note_off_c, 10, 64, 64
11, 599280, Note_on_c, 10, 64, 40
11, 599472, Note_off_c, 10, 64, 64
11, 599520, Note_on_c, 10, 64, 40
11, 599712, Note_off_c, 10, 64, 64
11, 599760, Note_on_c, 10, 64, 40
11, 599952, Note_off_c, 10, 64, 64
11, 600000, Note_on_c, 10, 64, 40
11, 600192, Note_off_c, 10, 64, 64
11, 600240, Note_on_c, 10, 64, 40
11, 600432, Note_off_c, 10, 64, 64
11, 600480, Note_on_c, 10, 64, 40
11, 600672, Note_off_c, 10, 64, 64
11, 600720, Note_on_c, 10, 64, 40
11, 600912, Note_off_c, 10, 64, 64
11, 600960, Note_on_c, 10, 64, 40
11, 601152, Note_off_c, 10, 64, 64
11, 601200, Note_on_c, 10, 64, 40
11, 601392, Note_off_c, 10, 64, 64
11, 601440, Note_on_c, 10, 64, 40
11, 601632, Note_off_c, 10, 64, 64
11, 601680, Note_on_c, 10, 64, 40
11, 601872, Note_off_c, 10, 64, 64
11, 601920, Note_on_c, 10, 64, 40
11, 602112, Note_off_c, 10, 64, 64
11, 602160, Note_on_c, 10, 64, 40
11, 602352, Note_off_c, 10, 64, 64
11, 602400, Note_on_c, 10, 64, 40
11, 602592, Note_off_c, 10, 64, 64
11, 602640, Note_on_c, 10, 64, 40
11, 602832, Note_off_c, 10, 64, 64
11, 602880, Note_on_c, 10, 65, 127
11, 603120, Note_off_c, 10, 65, 64
11, 604320, Note_on_c, 10, 62, 127
11, 604560, Note_off_c, 10, 62, 64
11, 604800, Note_on_c, 10, 58, 127
11, 605040, Note_off_c, 10, 58, 64
11, 605760, Note_on_c, 10, 60, 127
11, 605760, Note_on_c, 10, 48, 127
11, 606000, Note_off_c, 10, 48, 64
11, 606000, Note_off_c, 10, 60, 64
11, 606720, Note_on_c, 10, 64, 40
11, 606912, Note_off_c, 10, 64, 64
11, 606960, Note_on_c, 10, 64, 40
11, 607152, Note_off_c, 10, 64, 64
11, 607200, Note_on_c, 10, 64, 40
11, 607392, Note_off_c, 10, 64, 64
11, 607440, Note_on_c, 10, 64, 40
11, 607632, Note_off_c, 10, 64, 64
11, 607680, Note_on_c, 10, 64, 40
11, 607872, Note_off_c, 10, 64, 64
11, 607920, Note_on_c, 10, 64, 40
11, 608112, Note_off_c, 10, 64, 64
11, 608160, Note_on_c, 10, 64, 40
11, 608352, Note_off_c, 10, 64, 64
11, 608400, Note_on_c, 10, 64, 40
11, 608592, Note_off_c, 10, 64, 64
11, 608640, Note_on_c, 10, 64, 40
11, 608832, Note_off_c, 10, 64, 64
11, 608880, Note_on_c, 10, 64, 40
11, 609072, Note_off_c, 10, 64, 64
11, 609120, Note_on_c, 10, 64, 40
11, 609312, Note_off_c, 10, 64, 64
11, 609360, Note_on_c, 10, 64, 40
11, 609552, Note_off_c, 10, 64, 64
11, 609600, Note_on_c, 10, 64, 40
11, 609792, Note_off_c, 10, 64, 64
11, 609840, Note_on_c, 10, 64, 40
11, 610032, Note_off_c, 10, 64, 64
11, 610080, Note_on_c, 10, 64, 40
11, 610272, Note_off_c, 10, 64, 64
11, 610320, Note_on_c, 10, 64, 40
11, 610512, Note_off_c, 10, 64, 64
11, 610560, Note_on_c, 10, 65, 127
11, 610800, Note_off_c, 10, 65, 64
11, 612000, Note_on_c, 10, 62, 127
11, 612240, Note_off_c, 10, 62, 64
11, 612480, Note_on_c, 10, 58, 127
11, 612720, Note_off_c, 10, 58, 64
11, 613440, Note_on_c, 10, 48, 127
11, 613440, Note_on_c, 10, 60, 127
11, 613680, Note_off_c, 10, 60, 64
11, 613680, Note_off_c, 10, 48, 64
11, 614400, Note_on_c, 10, 59, 32
11, 614592, Note_off_c, 10, 59, 64
11, 614640, Note_on_c, 10, 59, 33
11, 614832, Note_off_c, 10, 59, 64
11, 614880, Note_on_c, 10, 59, 35
11, 615072, Note_off_c, 10, 59, 64
11, 615120, Note_on_c, 10, 59, 36
11, 615312, Note_off_c, 10, 59, 64
11, 615360, Note_on_c, 10, 59, 38
11, 615552, Note_off_c, 10, 59, 64
11, 615600, Note_on_c, 10, 59, 39
11, 615792, Note_off_c, 10, 59, 64
11, 615840, Note_on_c, 10, 59, 41
11, 616032, Note_off_c, 10, 59, 64
11, 616080, Note_on_c, 10, 59, 42
11, 616272, Note_off_c, 10, 59, 64
11, 616320, Note_on_c, 10, 59, 43
11, 616512, Note_off_c, 10, 59, 64
11, 616560, Note_on_c, 10, 59, 45
11, 616752, Note_off_c, 10, 59, 64
11, 616800, Note_on_c, 10, 59, 46
11, 616992, Note_off_c, 10, 59, 64
11, 617040, Note_on_c, 10, 59, 48
11, 617232, Note_off_c, 10, 59, 64
11, 617280, Note_on_c, 10, 59, 49
11, 617472, Note_off_c, 10, 59, 64
11, 617520, Note_on_c, 10, 59, 50
11, 617712, Note_off_c, 10, 59, 64
11, 617760, Note_on_c, 10, 59, 52
11, 617952, Note_off_c, 10, 59, 64
11, 618000, Note_on_c, 10, 59, 53
11, 618192, Note_off_c, 10, 59, 64
11, 618240, Note_on_c, 10, 59, 75
11, 618432, Note_off_c, 10, 59, 64
11, 618480, Note_on_c, 10, 59, 56
11, 618672, Note_off_c, 10, 59, 64
11, 618720, Note_on_c, 10, 59, 58
11, 618912, Note_off_c, 10, 59, 64
11, 618960, Note_on_c, 10, 59, 59
11, 619152, Note_off_c, 10, 59, 64
11, 619200, Note_on_c, 10, 59, 60
11, 619392, Note_off_c, 10, 59, 64
11, 619440, Note_on_c, 10, 59, 62
11, 619632, Note_off_c, 10, 59, 64
11, 619680, Note_on_c, 10, 59, 63
11, 619872, Note_off_c, 10, 59, 64
11, 619920, Note_on_c, 10, 59, 65
11, 620112, Note_off_c, 10, 59, 64
11, 620160, Note_on_c, 10, 60, 86
11, 620352, Note_off_c, 10, 60, 64
11, 620400, Note_on_c, 10, 60, 67
11, 620592, Note_off_c, 10, 60, 64
11, 620640, Note_on_c, 10, 60, 69
11, 620832, Note_off_c, 10, 60, 64
11, 620880, Note_on_c, 10, 60, 70
11, 621072, Note_off_c, 10, 60, 64
11, 621120, Note_on_c, 10, 60, 72
11, 621312, Note_off_c, 10, 60, 64
11, 621360, Note_on_c, 10, 60, 73
11, 621552, Note_off_c, 10, 60, 64
11, 621600, Note_on_c, 10, 60, 75
11, 621792, Note_off_c, 10, 60, 64
11, 621840, Note_on_c, 10, 60, 76
11, 622032, Note_off_c, 10, 60, 64
11, 622080, Note_on_c, 10, 62, 97
11, 622272, Note_off_c, 10, 62, 64
11, 622320, Note_on_c, 10, 62, 79
11, 622512, Note_off_c, 10, 62, 64
11, 622560, Note_on_c, 10, 62, 80
11, 622752, Note_off_c, 10, 62, 64
11, 622800, Note_on_c, 10, 62, 82
11, 622992, Note_off_c, 10, 62, 64
11, 623040, Note_on_c, 10, 62, 83
11, 623232, Note_off_c, 10, 62, 64
11, 623280, Note_on_c, 10, 62, 84
11, 623472, Note_off_c, 10, 62, 64
11, 623520, Note_on_c, 10, 62, 86
11, 623712, Note_off_c, 10, 62, 64
11, 623760, Note_on_c, 10, 62, 87
11, 623952, Note_off_c, 10, 62, 64
11, 624000, Note_on_c, 10, 64, 109
11, 624192, Note_off_c, 10, 64, 64
11, 624240, Note_on_c, 10, 64, 90
11, 624432, Note_off_c, 10, 64, 64
11, 624480, Note_on_c, 10, 64, 92
11, 624672, Note_off_c, 10, 64, 64
11, 624720, Note_on_c, 10, 64, 93
11, 624912, Note_off_c, 10, 64, 64
11, 624960, Note_on_c, 10, 64, 94
11, 625152, Note_off_c, 10, 64, 64
11, 625200, Note_on_c, 10, 64, 96
11, 625392, Note_off_c, 10, 64, 64
11, 625440, Note_on_c, 10, 64, 97
11, 625632, Note_off_c, 10, 64, 64
11, 625680, Note_on_c, 10, 64, 99
11, 625872, Note_off_c, 10, 64, 64
11, 625920, Note_on_c, 10, 65, 127
11, 626112, Note_off_c, 10, 65, 64
11, 626160, Note_on_c, 10, 61, 127
11, 626352, Note_off_c, 10, 61, 64
11, 626400, Note_on_c, 10, 61, 127
11, 626592, Note_off_c, 10, 61, 64
11, 626640, Note_on_c, 10, 61, 127
11, 626832, Note_off_c, 10, 61, 64
11, 626880, Note_on_c, 10, 61, 127
11, 627072, Note_off_c, 10, 61, 64
11, 627120, Note_on_c, 10, 61, 127
11, 627312, Note_off_c, 10, 61, 64
11, 627360, Note_on_c, 10, 61, 127
11, 627552, Note_off_c, 10, 61, 64
11, 627600, Note_on_c, 10, 61, 127
11, 627792, Note_off_c, 10, 61, 64
11, 627840, Note_on_c, 10, 61, 127
11, 628032, Note_off_c, 10, 61, 64
11, 628080, Note_on_c, 10, 61, 127
11, 628272, Note_off_c, 10, 61, 64
11, 628320, Note_on_c, 10, 61, 127
11, 628512, Note_off_c, 10, 61, 64
11, 628560, Note_on_c, 10, 61, 127
11, 628752, Note_off_c, 10, 61, 64
11, 628800, Note_on_c, 10, 61, 127
11, 628992, Note_off_c, 10, 61, 64
11, 629040, Note_on_c, 10, 61, 127
11, 629232, Note_off_c, 10, 61, 64
11, 629280, Note_on_c, 10, 61, 127
11, 629472, Note_off_c, 10, 61, 64
11, 629520, Note_on_c, 10, 61, 127
11, 629712, Note_off_c, 10, 61, 64
11, 629760, Note_on_c, 10, 60, 127
11, 629952, Note_off_c, 10, 60, 64
11, 630000, Note_on_c, 10, 60, 127
11, 630192, Note_off_c, 10, 60, 64
11, 630240, Note_on_c, 10, 60, 127
11, 630432, Note_off_c, 10, 60, 64
11, 630480, Note_on_c, 10, 60, 127
11, 630672, Note_off_c, 10, 60, 64
11, 630720, Note_on_c, 10, 60, 127
11, 630912, Note_off_c, 10, 60, 64
11, 630960, Note_on_c, 10, 60, 127
11, 631152, Note_off_c, 10, 60, 64
11, 631200, Note_on_c, 10, 60, 127
11, 631392, Note_off_c, 10, 60, 64
11, 631440, Note_on_c, 10, 60, 127
11, 631632, Note_off_c, 10, 60, 64
11, 631680, Note_on_c, 10, 58, 127
11, 631872, Note_off_c, 10, 58, 64
11, 631920, Note_on_c, 10, 58, 127
11, 632112, Note_off_c, 10, 58, 64
11, 632160, Note_on_c, 10, 58, 127
11, 632352, Note_off_c, 10, 58, 64
11, 632400, Note_on_c, 10, 58, 127
11, 632592, Note_off_c, 10, 58, 64
11, 632640, Note_on_c, 10, 58, 127
11, 632832, Note_off_c, 10, 58, 64
11, 632880, Note_on_c, 10, 58, 127
11, 633072, Note_off_c, 10, 58, 64
11, 633120, Note_on_c, 10, 58, 127
11, 633312, Note_off_c, 10, 58, 64
11, 633360, Note_on_c, 10, 58, 127
11, 633552, Note_off_c, 10, 58, 64
11, 633600, Note_on_c, 10, 57, 127
11, 633600, Note_on_c, 10, 53, 127
11, 633792, Note_off_c, 10, 53, 64
11, 633792, Note_off_c, 10, 57, 64
11, 633840, Note_on_c, 10, 60, 127
11, 633840, Note_on_c, 10, 57, 127
11, 634032, Note_off_c, 10, 57, 64
11, 634032, Note_off_c, 10, 60, 64
11, 634080, Note_on_c, 10, 60, 127
11, 634080, Note_on_c, 10, 57, 127
11, 634272, Note_off_c, 10, 57, 64
11, 634272, Note_off_c, 10, 60, 64
11, 634320, Note_on_c, 10, 57, 112
11, 634320, Note_on_c, 10, 60, 112
11, 634512, Note_off_c, 10, 60, 64
11, 634512, Note_off_c, 10, 57, 64
11, 634560, Note_on_c, 10, 57, 112
11, 634560, Note_on_c, 10, 53, 112
11, 634752, Note_off_c, 10, 53, 64
11, 634752, Note_off_c, 10, 57, 64
11, 634800, Note_on_c, 10, 60, 112
11, 634800, Note_on_c, 10, 57, 112
11, 634992, Note_off_c, 10, 57, 64
11, 634992, Note_off_c, 10, 60, 64
11, 635040, Note_on_c, 10, 60, 112
11, 635040, Note_on_c, 10, 57, 112
11, 635232, Note_off_c, 10, 57, 64
11, 635232, Note_off_c, 10, 60, 64
11, 635280, Note_on_c, 10, 57, 112
11, 635280, Note_on_c, 10, 60, 112
11, 635472, Note_off_c, 10, 60, 64
11, 635472, Note_off_c, 10, 57, 64
11, 635520, Note_on_c, 10, 53, 112
11, 635520, Note_on_c, 10, 57, 112
11, 635712, Note_off_c, 10, 57, 64
11, 635712, Note_off_c, 10, 53, 64
11, 635760, Note_on_c, 10, 57, 112
11, 635760, Note_on_c, 10, 60, 112
11, 635952, Note_off_c, 10, 60, 64
11, 635952, Note_off_c, 10, 57, 64
11, 636000, Note_on_c, 10, 57, 112
11, 636000, Note_on_c, 10, 60, 112
11, 636192, Note_off_c, 10, 60, 64
11, 636192, Note_off_c, 10, 57, 64
11, 636240, Note_on_c, 10, 60, 112
11, 636240, Note_on_c, 10, 57, 112
11, 636432, Note_off_c, 10, 57, 64
11, 636432, Note_off_c, 10, 60, 64
11, 636480, Note_on_c, 10, 53, 112
11, 636480, Note_on_c, 10, 57, 112
11, 636672, Note_off_c, 10, 57, 64
11, 636672, Note_off_c, 10, 53, 64
11, 636720, Note_on_c, 10, 60, 112
11, 636720, Note_on_c, 10, 57, 112
11, 636912, Note_off_c, 10, 57, 64
11, 636912, Note_off_c, 10, 60, 64
11, 636960, Note_on_c, 10, 60, 112
11, 636960, Note_on_c, 10, 57, 112
11, 637152, Note_off_c, 10, 57, 64
11, 637152, Note_off_c, 10, 60, 64
11, 637200, Note_on_c, 10, 57, 112
11, 637200, Note_on_c, 10, 60, 112
11, 637392, Note_off_c, 10, 60, 64
11, 637392, Note_off_c, 10, 57, 64
11, 637440, Note_on_c, 10, 53, 112
11, 637440, Note_on_c, 10, 57, 112
11, 637632, Note_off_c, 10, 57, 64
11, 637632, Note_off_c, 10, 53, 64
11, 637680, Note_on_c, 10, 57, 112
11, 637680, Note_on_c, 10, 60, 112
11, 637872, Note_off_c, 10, 60, 64
11, 637872, Note_off_c, 10, 57, 64
11, 637920, Note_on_c, 10, 57, 112
11, 637920, Note_on_c, 10, 60, 112
11, 638112, Note_off_c, 10, 60, 64
11, 638112, Note_off_c, 10, 57, 64
11, 638160, Note_on_c, 10, 60, 112
11, 638160, Note_on_c, 10, 57, 112
11, 638352, Note_off_c, 10, 57, 64
11, 638352, Note_off_c, 10, 60, 64
11, 638400, Note_on_c, 10, 53, 112
11, 638400, Note_on_c, 10, 57, 112
11, 638592, Note_off_c, 10, 57, 64
11, 638592, Note_off_c, 10, 53, 64
11, 638640, Note_on_c, 10, 60, 112
11, 638640, Note_on_c, 10, 57, 112
11, 638832, Note_off_c, 10, 57, 64
11, 638832, Note_off_c, 10, 60, 64
11, 638880, Note_on_c, 10, 60, 112
11, 638880, Note_on_c, 10, 57, 112
11, 639072, Note_off_c, 10, 57, 64
11, 639072, Note_off_c, 10, 60, 64
11, 639120, Note_on_c, 10, 57, 112
11, 639120, Note_on_c, 10, 60, 112
11, 639312, Note_off_c, 10, 60, 64
11, 639312, Note_off_c, 10, 57, 64
11, 639360, Note_on_c, 10, 53, 112
11, 639360, Note_on_c, 10, 57, 112
11, 639552, Note_off_c, 10, 57, 64
11, 639552, Note_off_c, 10, 53, 64
11, 639600, Note_on_c, 10, 57, 112
11, 639600, Note_on_c, 10, 53, 112
11, 639792, Note_off_c, 10, 53, 64
11, 639792, Note_off_c, 10, 57, 64
11, 639840, Note_on_c, 10, 57, 112
11, 639840, Note_on_c, 10, 60, 112
11, 640032, Note_off_c, 10, 60, 64
11, 640032, Note_off_c, 10, 57, 64
11, 640080, Note_on_c, 10, 57, 112
11, 640080, Note_on_c, 10, 60, 112
11, 640272, Note_off_c, 10, 60, 64
11, 640272, Note_off_c, 10, 57, 64
11, 640320, Note_on_c, 10, 52, 112
11, 640320, Note_on_c, 10, 55, 112
11, 640512, Note_off_c, 10, 55, 64
11, 640512, Note_off_c, 10, 52, 64
11, 640560, Note_on_c, 10, 52, 112
11, 640560, Note_on_c, 10, 55, 112
11, 640752, Note_off_c, 10, 55, 64
11, 640752, Note_off_c, 10, 52, 64
11, 640800, Note_on_c, 10, 58, 112
11, 640800, Note_on_c, 10, 55, 112
11, 640992, Note_off_c, 10, 55, 64
11, 640992, Note_off_c, 10, 58, 64
11, 641040, Note_on_c, 10, 58, 112
11, 641040, Note_on_c, 10, 55, 112
11, 641232, Note_off_c, 10, 55, 64
11, 641232, Note_off_c, 10, 58, 64
11, 641280, Note_on_c, 10, 53, 112
11, 641280, Note_on_c, 10, 57, 112
11, 641472, Note_off_c, 10, 57, 64
11, 641472, Note_off_c, 10, 53, 64
11, 641520, Note_on_c, 10, 60, 112
11, 641520, Note_on_c, 10, 57, 112
11, 641712, Note_off_c, 10, 57, 64
11, 641712, Note_off_c, 10, 60, 64
11, 641760, Note_on_c, 10, 57, 112
11, 641760, Note_on_c, 10, 60, 112
11, 641952, Note_off_c, 10, 60, 64
11, 641952, Note_off_c, 10, 57, 64
11, 642000, Note_on_c, 10, 57, 112
11, 642000, Note_on_c, 10, 60, 112
11, 642192, Note_off_c, 10, 60, 64
11, 642192, Note_off_c, 10, 57, 64
11, 642240, Note_on_c, 10, 57, 112
11, 642240, Note_on_c, 10, 53, 112
11, 642432, Note_off_c, 10, 53, 64
11, 642432, Note_off_c, 10, 57, 64
11, 642480, Note_on_c, 10, 60, 112
11, 642480, Note_on_c, 10, 57, 112
11, 642672, Note_off_c, 10, 57, 64
11, 642672, Note_off_c, 10, 60, 64
11, 642720, Note_on_c, 10, 60, 112
11, 642720, Note_on_c, 10, 57, 112
11, 642912, Note_off_c, 10, 57, 64
11, 642912, Note_off_c, 10, 60, 64
11, 642960, Note_on_c, 10, 60, 112
11, 642960, Note_on_c, 10, 57, 112
11, 643152, Note_off_c, 10, 57, 64
11, 643152, Note_off_c, 10, 60, 64
11, 643200, Note_on_c, 10, 53, 112
11, 643200, Note_on_c, 10, 57, 112
11, 643392, Note_off_c, 10, 57, 64
11, 643392, Note_off_c, 10, 53, 64
11, 643440, Note_on_c, 10, 57, 112
11, 643440, Note_on_c, 10, 60, 112
11, 643632, Note_off_c, 10, 60, 64
11, 643632, Note_off_c, 10, 57, 64
11, 643680, Note_on_c, 10, 60, 112
11, 643680, Note_on_c, 10, 57, 112
11, 643872, Note_off_c, 10, 57, 64
11, 643872, Note_off_c, 10, 60, 64
11, 643920, Note_on_c, 10, 60, 112
11, 643920, Note_on_c, 10, 57, 112
11, 644112, Note_off_c, 10, 57, 64
11, 644112, Note_off_c, 10, 60, 64
11, 644160, Note_on_c, 10, 53, 112
11, 644160, Note_on_c, 10, 57, 112
11, 644352, Note_off_c, 10, 57, 64
11, 644352, Note_off_c, 10, 53, 64
11, 644400, Note_on_c, 10, 57, 112
11, 644400, Note_on_c, 10, 60, 112
11, 644592, Note_off_c, 10, 60, 64
11, 644592, Note_off_c, 10, 57, 64
11, 644640, Note_on_c, 10, 60, 112
11, 644640, Note_on_c, 10, 57, 112
11, 644832, Note_off_c, 10, 57, 64
11, 644832, Note_off_c, 10, 60, 64
11, 644880, Note_on_c, 10, 57, 112
11, 644880, Note_on_c, 10, 60, 112
11, 645072, Note_off_c, 10, 60, 64
11, 645072, Note_off_c, 10, 57, 64
11, 645120, Note_on_c, 10, 53, 112
11, 645120, Note_on_c, 10, 57, 112
11, 645312, Note_off_c, 10, 57, 64
11, 645312, Note_off_c, 10, 53, 64
11, 645360, Note_on_c, 10, 57, 112
11, 645360, Note_on_c, 10, 60, 112
11, 645552, Note_off_c, 10, 60, 64
11, 645552, Note_off_c, 10, 57, 64
11, 645600, Note_on_c, 10, 60, 112
11, 645600, Note_on_c, 10, 57, 112
11, 645792, Note_off_c, 10, 57, 64
11, 645792, Note_off_c, 10, 60, 64
11, 645840, Note_on_c, 10, 60, 112
11, 645840, Note_on_c, 10, 57, 112
11, 646032, Note_off_c, 10, 57, 64
11, 646032, Note_off_c, 10, 60, 64
11, 646080, Note_on_c, 10, 53, 112
11, 646080, Note_on_c, 10, 57, 112
11, 646272, Note_off_c, 10, 57, 64
11, 646272, Note_off_c, 10, 53, 64
11, 646320, Note_on_c, 10, 57, 112
11, 646320, Note_on_c, 10, 60, 112
11, 646512, Note_off_c, 10, 60, 64
11, 646512, Note_off_c, 10, 57, 64
11, 646560, Note_on_c, 10, 60, 112
11, 646560, Note_on_c, 10, 57, 112
11, 646752, Note_off_c, 10, 57, 64
11, 646752, Note_off_c, 10, 60, 64
11, 646800, Note_on_c, 10, 57, 112
11, 646800, Note_on_c, 10, 60, 112
11, 646992, Note_off_c, 10, 60, 64
11, 646992, Note_off_c, 10, 57, 64
11, 647040, Note_on_c, 10, 53, 112
11, 647040, Note_on_c, 10, 57, 112
11, 647232, Note_off_c, 10, 57, 64
11, 647232, Note_off_c, 10, 53, 64
11, 647280, Note_on_c, 10, 57, 112
11, 647280, Note_on_c, 10, 53, 112
11, 647472, Note_off_c, 10, 53, 64
11, 647472, Note_off_c, 10, 57, 64
11, 647520, Note_on_c, 10, 57, 112
11, 647520, Note_on_c, 10, 60, 112
11, 647712, Note_off_c, 10, 60, 64
11, 647712, Note_off_c, 10, 57, 64
11, 647760, Note_on_c, 10, 57, 112
11, 647760, Note_on_c, 10, 60, 112
11, 647952, Note_off_c, 10, 60, 64
11, 647952, Note_off_c, 10, 57, 64
11, 648000, Note_on_c, 10, 52, 112
11, 648000, Note_on_c, 10, 55, 112
11, 648192, Note_off_c, 10, 55, 64
11, 648192, Note_off_c, 10, 52, 64
11, 648240, Note_on_c, 10, 55, 112
11, 648240, Note_on_c, 10, 52, 112
11, 648432, Note_off_c, 10, 52, 64
11, 648432, Note_off_c, 10, 55, 64
11, 648480, Note_on_c, 10, 58, 112
11, 648480, Note_on_c, 10, 55, 112
11, 648672, Note_off_c, 10, 55, 64
11, 648672, Note_off_c, 10, 58, 64
11, 648720, Note_on_c, 10, 55, 112
11, 648720, Note_on_c, 10, 58, 112
11, 648912, Note_off_c, 10, 58, 64
11, 648912, Note_off_c, 10, 55, 64
11, 648960, Note_on_c, 10, 57, 112
11, 649200, Note_off_c, 10, 57, 64
11, 649440, Note_on_c, 10, 52, 112
11, 650340, Note_off_c, 10, 52, 64
11, 650400, Note_on_c, 10, 53, 112
11, 651312, Note_off_c, 10, 53, 64
11, 651360, Note_on_c, 10, 55, 112
11, 652260, Note_off_c, 10, 55, 64
11, 652320, Note_on_c, 10, 57, 112
11, 653040, Note_off_c, 10, 57, 64
11, 658560, Note_on_c, 10, 57, 67
11, 658752, Note_off_c, 10, 57, 64
11, 659040, Note_on_c, 10, 60, 67
11, 659232, Note_off_c, 10, 60, 64
11, 659520, Note_on_c, 10, 53, 67
11, 659712, Note_off_c, 10, 53, 64
11, 660000, Note_on_c, 10, 57, 67
11, 660192, Note_off_c, 10, 57, 64
11, 660480, Note_on_c, 10, 60, 67
11, 660672, Note_off_c, 10, 60, 64
11, 666240, Note_on_c, 10, 55, 67
11, 666432, Note_off_c, 10, 55, 64
11, 666720, Note_on_c, 10, 58, 67
11, 666912, Note_off_c, 10, 58, 64
11, 667200, Note_on_c, 10, 52, 67
11, 667392, Note_off_c, 10, 52, 64
11, 667680, Note_on_c, 10, 55, 67
11, 667872, Note_off_c, 10, 55, 64
11, 668160, Note_on_c, 10, 60, 67
11, 668352, Note_off_c, 10, 60, 64
11, 670080, Note_on_c, 10, 57, 67
11, 670272, Note_off_c, 10, 57, 64
11, 670560, Note_on_c, 10, 60, 67
11, 670752, Note_off_c, 10, 60, 64
11, 671040, Note_on_c, 10, 53, 67
11, 671232, Note_off_c, 10, 53, 64
11, 671520, Note_on_c, 10, 57, 67
11, 671712, Note_off_c, 10, 57, 64
11, 673920, Note_on_c, 10, 55, 67
11, 674112, Note_off_c, 10, 55, 64
11, 674400, Note_on_c, 10, 58, 67
11, 674592, Note_off_c, 10, 58, 64
11, 674880, Note_on_c, 10, 50, 67
11, 675072, Note_off_c, 10, 50, 64
11, 675360, Note_on_c, 10, 55, 67
11, 675552, Note_off_c, 10, 55, 64
11, 677760, Note_on_c, 10, 53, 67
11, 677952, Note_off_c, 10, 53, 64
11, 678240, Note_on_c, 10, 57, 67
11, 678432, Note_off_c, 10, 57, 64
11, 678720, Note_on_c, 10, 48, 67
11, 678912, Note_off_c, 10, 48, 64
11, 679200, Note_on_c, 10, 53, 67
11, 679392, Note_off_c, 10, 53, 64
11, 681600, Note_on_c, 10, 48, 61
11, 681792, Note_off_c, 10, 48, 64
11, 682080, Note_on_c, 10, 52, 56
11, 682272, Note_off_c, 10, 52, 64
11, 682560, Note_on_c, 10, 55, 51
11, 682752, Note_off_c, 10, 55, 64
11, 683040, Note_on_c, 10, 60, 46
11, 683232, Note_off_c, 10, 60, 64
11, 710400, Note_on_c, 10, 50, 80
11, 710592, Note_off_c, 10, 50, 64
11, 710640, Note_on_c, 10, 62, 32
11, 710832, Note_off_c, 10, 62, 64
11, 710880, Note_on_c, 10, 62, 32
11, 711072, Note_off_c, 10, 62, 64
11, 711120, Note_on_c, 10, 62, 32
11, 711312, Note_off_c, 10, 62, 64
11, 711360, Note_on_c, 10, 62, 32
11, 711552, Note_off_c, 10, 62, 64
11, 711600, Note_on_c, 10, 62, 32
11, 711792, Note_off_c, 10, 62, 64
11, 711840, Note_on_c, 10, 62, 32
11, 712032, Note_off_c, 10, 62, 64
11, 712080, Note_on_c, 10, 62, 32
11, 712272, Note_off_c, 10, 62, 64
11, 712320, Note_on_c, 10, 62, 32
11, 712512, Note_off_c, 10, 62, 64
11, 712560, Note_on_c, 10, 62, 32
11, 712752, Note_off_c, 10, 62, 64
11, 712800, Note_on_c, 10, 62, 32
11, 712992, Note_off_c, 10, 62, 64
11, 713040, Note_on_c, 10, 62, 32
11, 713232, Note_off_c, 10, 62, 64
11, 713280, Note_on_c, 10, 62, 32
11, 713472, Note_off_c, 10, 62, 64
11, 713520, Note_on_c, 10, 62, 32
11, 713712, Note_off_c, 10, 62, 64
11, 713760, Note_on_c, 10, 62, 32
11, 713952, Note_off_c, 10, 62, 64
11, 714000, Note_on_c, 10, 62, 32
11, 714192, Note_off_c, 10, 62, 64
11, 714240, Note_on_c, 10, 62, 32
11, 714432, Note_off_c, 10, 62, 64
11, 714480, Note_on_c, 10, 62, 32
11, 714672, Note_off_c, 10, 62, 64
11, 714720, Note_on_c, 10, 62, 32
11, 714912, Note_off_c, 10, 62, 64
11, 714960, Note_on_c, 10, 62, 32
11, 715152, Note_off_c, 10, 62, 64
11, 715200, Note_on_c, 10, 62, 32
11, 715392, Note_off_c, 10, 62, 64
11, 715440, Note_on_c, 10, 62, 32
11, 715632, Note_off_c, 10, 62, 64
11, 715680, Note_on_c, 10, 62, 32
11, 715872, Note_off_c, 10, 62, 64
11, 715920, Note_on_c, 10, 62, 32
11, 716112, Note_off_c, 10, 62, 64
11, 716160, Note_on_c, 10, 64, 32
11, 716352, Note_off_c, 10, 64, 64
11, 716400, Note_on_c, 10, 64, 32
11, 716592, Note_off_c, 10, 64, 64
11, 716640, Note_on_c, 10, 64, 32
11, 716832, Note_off_c, 10, 64, 64
11, 716880, Note_on_c, 10, 64, 32
11, 717072, Note_off_c, 10, 64, 64
11, 717120, Note_on_c, 10, 64, 32
11, 717312, Note_off_c, 10, 64, 64
11, 717360, Note_on_c, 10, 64, 32
11, 717552, Note_off_c, 10, 64, 64
11, 717600, Note_on_c, 10, 64, 32
11, 717792, Note_off_c, 10, 64, 64
11, 717840, Note_on_c, 10, 64, 32
11, 718032, Note_off_c, 10, 64, 64
11, 756480, Note_on_c, 10, 75, 127
11, 756672, Note_off_c, 10, 75, 64
11, 756960, Note_on_c, 10, 70, 127
11, 757152, Note_off_c, 10, 70, 64
11, 757440, Note_on_c, 10, 67, 127
11, 757632, Note_off_c, 10, 67, 64
11, 757920, Note_on_c, 10, 70, 127
11, 758112, Note_off_c, 10, 70, 64
11, 758400, Note_on_c, 10, 70, 127
11, 758592, Note_off_c, 10, 70, 64
11, 758880, Note_on_c, 10, 67, 127
11, 759072, Note_off_c, 10, 67, 64
11, 759360, Note_on_c, 10, 63, 127
11, 759552, Note_off_c, 10, 63, 64
11, 759840, Note_on_c, 10, 67, 127
11, 760032, Note_off_c, 10, 67, 64
11, 760320, Note_on_c, 10, 67, 127
11, 760512, Note_off_c, 10, 67, 64
11, 760800, Note_on_c, 10, 63, 127
11, 760992, Note_off_c, 10, 63, 64
11, 761280, Note_on_c, 10, 58, 127
11, 761472, Note_off_c, 10, 58, 64
11, 761760, Note_on_c, 10, 63, 127
11, 761952, Note_off_c, 10, 63, 64
11, 762240, Note_on_c, 10, 63, 127
11, 762432, Note_off_c, 10, 63, 64
11, 762720, Note_on_c, 10, 58, 127
11, 762912, Note_off_c, 10, 58, 64
11, 763200, Note_on_c, 10, 55, 127
11, 763392, Note_off_c, 10, 55, 64
11, 763680, Note_on_c, 10, 58, 127
11, 763872, Note_off_c, 10, 58, 64
11, 764160, Note_on_c, 10, 51, 127
11, 764160, Note_on_c, 10, 55, 127
11, 764352, Note_off_c, 10, 55, 64
11, 764352, Note_off_c, 10, 51, 64
11, 771840, Note_on_c, 10, 79, 127
11, 772032, Note_off_c, 10, 79, 64
11, 772320, Note_on_c, 10, 74, 127
11, 772512, Note_off_c, 10, 74, 64
11, 772800, Note_on_c, 10, 71, 127
11, 772992, Note_off_c, 10, 71, 64
11, 773280, Note_on_c, 10, 74, 127
11, 773472, Note_off_c, 10, 74, 64
11, 773760, Note_on_c, 10, 74, 127
11, 773952, Note_off_c, 10, 74, 64
11, 774240, Note_on_c, 10, 71, 127
11, 774432, Note_off_c, 10, 71, 64
11, 774720, Note_on_c, 10, 67, 127
11, 774912, Note_off_c, 10, 67, 64
11, 775200, Note_on_c, 10, 71, 127
11, 775392, Note_off_c, 10, 71, 64
11, 775680, Note_on_c, 10, 71, 127
11, 775872, Note_off_c, 10, 71, 64
11, 776160, Note_on_c, 10, 67, 127
11, 776352, Note_off_c, 10, 67, 64
11, 776640, Note_on_c, 10, 62, 127
11, 776832, Note_off_c, 10, 62, 64
11, 777120, Note_on_c, 10, 67, 127
11, 777312, Note_off_c, 10, 67, 64
11, 777600, Note_on_c, 10, 67, 127
11, 777792, Note_off_c, 10, 67, 64
11, 778080, Note_on_c, 10, 62, 127
11, 778272, Note_off_c, 10, 62, 64
11, 778560, Note_on_c, 10, 59, 127
11, 778752, Note_off_c, 10, 59, 64
11, 779040, Note_on_c, 10, 62, 127
11, 779232, Note_off_c, 10, 62, 64
11, 779520, Note_on_c, 10, 55, 127
11, 779520, Note_on_c, 10, 59, 127
11, 779712, Note_off_c, 10, 59, 64
11, 779712, Note_off_c, 10, 55, 64
11, 787200, Note_on_c, 10, 79, 127
11, 787392, Note_off_c, 10, 79, 64
11, 787680, Note_on_c, 10, 76, 127
11, 787872, Note_off_c, 10, 76, 64
11, 788160, Note_on_c, 10, 73, 127
11, 788352, Note_off_c, 10, 73, 64
11, 788640, Note_on_c, 10, 76, 127
11, 788832, Note_off_c, 10, 76, 64
11, 789120, Note_on_c, 10, 76, 127
11, 789312, Note_off_c, 10, 76, 64
11, 789600, Note_on_c, 10, 73, 127
11, 789792, Note_off_c, 10, 73, 64
11, 790080, Note_on_c, 10, 70, 127
11, 790272, Note_off_c, 10, 70, 64
11, 790560, Note_on_c, 10, 73, 127
11, 790752, Note_off_c, 10, 73, 64
11, 791040, Note_on_c, 10, 73, 127
11, 791232, Note_off_c, 10, 73, 64
11, 791520, Note_on_c, 10, 70, 127
11, 791712, Note_off_c, 10, 70, 64
11, 792000, Note_on_c, 10, 67, 127
11, 792192, Note_off_c, 10, 67, 64
11, 792480, Note_on_c, 10, 70, 127
11, 792672, Note_off_c, 10, 70, 64
11, 792960, Note_on_c, 10, 67, 127
11, 793152, Note_off_c, 10, 67, 64
11, 793440, Note_on_c, 10, 64, 127
11, 793632, Note_off_c, 10, 64, 64
11, 793920, Note_on_c, 10, 61, 127
11, 794112, Note_off_c, 10, 61, 64
11, 794400, Note_on_c, 10, 58, 127
11, 794592, Note_off_c, 10, 58, 64
11, 794880, Note_on_c, 10, 55, 127
11, 794880, Note_on_c, 10, 61, 127
11, 795072, Note_off_c, 10, 61, 64
11, 795072, Note_off_c, 10, 55, 64
11, 796800, Note_on_c, 10, 55, 120
11, 796800, Note_on_c, 10, 58, 120
11, 796992, Note_off_c, 10, 58, 64
11, 796992, Note_off_c, 10, 55, 64
11, 798720, Note_on_c, 10, 55, 110
11, 798720, Note_on_c, 10, 58, 110
11, 798912, Note_off_c, 10, 58, 64
11, 798912, Note_off_c, 10, 55, 64
11, 800640, Note_on_c, 10, 55, 100
11, 800640, Note_on_c, 10, 58, 100
11, 800832, Note_off_c, 10, 58, 64
11, 800832, Note_off_c, 10, 55, 64
11, 802560, Note_on_c, 10, 55, 89
11, 802560, Note_on_c, 10, 58, 89
11, 802752, Note_off_c, 10, 58, 64
11, 802752, Note_off_c, 10, 55, 64
11, 806400, Note_on_c, 10, 55, 68
11, 806400, Note_on_c, 10, 58, 68
11, 806592, Note_off_c, 10, 58, 64
11, 806592, Note_off_c, 10, 55, 64
11, 810240, Note_on_c, 10, 55, 48
11, 810240, Note_on_c, 10, 58, 48
11, 810432, Note_off_c, 10, 58, 64
11, 810432, Note_off_c, 10, 55, 64
11, 833280, Note_on_c, 10, 58, 10
11, 837360, Note_off_c, 10, 58, 64
11, 840960, Note_on_c, 10, 58, 10
11, 845040, Note_off_c, 10, 58, 64
11, 852480, Note_on_c, 10, 61, 10
11, 856560, Note_off_c, 10, 61, 64
11, 857760, Note_on_c, 10, 61, 13
11, 858000, Note_off_c, 10, 61, 64
11, 858240, Note_on_c, 10, 61, 13
11, 858480, Note_off_c, 10, 61, 64
11, 859680, Note_on_c, 10, 61, 13
11, 859920, Note_off_c, 10, 61, 64
11, 860160, Note_on_c, 10, 61, 13
11, 860400, Note_off_c, 10, 61, 64
11, 861600, Note_on_c, 10, 61, 13
11, 861840, Note_off_c, 10, 61, 64
11, 862080, Note_on_c, 10, 61, 13
11, 862320, Note_off_c, 10, 61, 64
11, 863520, Note_on_c, 10, 61, 13
11, 863760, Note_off_c, 10, 61, 64
11, 864000, Note_on_c, 10, 61, 10
11, 864240, Note_off_c, 10, 61, 64
11, 874560, Note_on_c, 10, 58, 22
11, 879300, Note_off_c, 10, 58, 64
11, 879360, Note_on_c, 10, 58, 10
11, 883920, Note_off_c, 10, 58, 64
11, 887040, Note_on_c, 10, 58, 10
11, 891120, Note_off_c, 10, 58, 64
11, 902160, Note_on_c, 10, 58, 25
11, 902280, Note_off_c, 10, 58, 64
11, 902280, Note_on_c, 10, 60, 25
11, 902400, Note_off_c, 10, 60, 64
11, 902400, Note_on_c, 10, 62, 25
11, 904320, Note_off_c, 10, 62, 64
11, 928080, Note_on_c, 10, 62, 89
11, 928200, Note_off_c, 10, 62, 64
11, 928200, Note_on_c, 10, 63, 89
11, 928320, Note_off_c, 10, 63, 64
11, 928320, Note_on_c, 10, 65, 90
11, 928800, Note_off_c, 10, 65, 64
11, 929040, Note_on_c, 10, 65, 95
11, 929120, Note_off_c, 10, 65, 64
11, 929120, Note_on_c, 10, 67, 95
11, 929200, Note_off_c, 10, 67, 64
11, 929200, Note_on_c, 10, 69, 96
11, 929280, Note_off_c, 10, 69, 64
11, 929280, Note_on_c, 10, 70, 96
11, 929664, Note_off_c, 10, 70, 64
11, 930000, Note_on_c, 10, 58, 101
11, 930120, Note_off_c, 10, 58, 64
11, 930120, Note_on_c, 10, 60, 101
11, 930240, Note_off_c, 10, 60, 64
11, 930240, Note_on_c, 10, 62, 102
11, 930720, Note_off_c, 10, 62, 64
11, 930960, Note_on_c, 10, 62, 107
11, 931080, Note_off_c, 10, 62, 64
11, 931080, Note_on_c, 10, 63, 107
11, 931200, Note_off_c, 10, 63, 64
11, 931200, Note_on_c, 10, 65, 108
11, 931680, Note_off_c, 10, 65, 64
11, 931920, Note_on_c, 10, 65, 113
11, 932000, Note_off_c, 10, 65, 64
11, 932000, Note_on_c, 10, 67, 113
11, 932080, Note_off_c, 10, 67, 64
11, 932080, Note_on_c, 10, 69, 114
11, 932160, Note_off_c, 10, 69, 64
11, 932160, Note_on_c, 10, 70, 114
11, 932640, Note_off_c, 10, 70, 64
11, 932880, Note_on_c, 10, 69, 119
11, 932960, Note_off_c, 10, 69, 64
11, 932960, Note_on_c, 10, 70, 119
11, 933040, Note_off_c, 10, 70, 64
11, 933040, Note_on_c, 10, 72, 120
11, 933120, Note_off_c, 10, 72, 64
11, 933120, Note_on_c, 10, 65, 120
11, 933120, Note_on_c, 10, 74, 120
11, 933312, Note_off_c, 10, 74, 64
11, 933312, Note_off_c, 10, 65, 64
11, 933360, Note_on_c, 10, 74, 120
11, 933360, Note_on_c, 10, 65, 120
11, 933552, Note_off_c, 10, 65, 64
11, 933552, Note_off_c, 10, 74, 64
11, 933600, Note_on_c, 10, 65, 120
11, 933600, Note_on_c, 10, 74, 120
11, 933792, Note_off_c, 10, 74, 64
11, 933792, Note_off_c, 10, 65, 64
11, 933840, Note_on_c, 10, 74, 120
11, 933840, Note_on_c, 10, 65, 120
11, 934032, Note_off_c, 10, 65, 64
11, 934032, Note_off_c, 10, 74, 64
11, 934080, Note_on_c, 10, 65, 120
11, 934080, Note_on_c, 10, 74, 120
11, 934272, Note_off_c, 10, 74, 64
11, 934272, Note_off_c, 10, 65, 64
11, 934320, Note_on_c, 10, 74, 120
11, 934320, Note_on_c, 10, 65, 120
11, 934512, Note_off_c, 10, 65, 64
11, 934512, Note_off_c, 10, 74, 64
11, 934560, Note_on_c, 10, 65, 120
11, 934560, Note_on_c, 10, 74, 120
11, 934752, Note_off_c, 10, 74, 64
11, 934752, Note_off_c, 10, 65, 64
11, 934800, Note_on_c, 10, 74, 120
11, 934800, Note_on_c, 10, 65, 120
11, 934992, Note_off_c, 10, 65, 64
11, 934992, Note_off_c, 10, 74, 64
11, 935040, Note_on_c, 10, 65, 120
11, 935040, Note_on_c, 10, 74, 120
11, 935232, Note_off_c, 10, 74, 64
11, 935232, Note_off_c, 10, 65, 64
11, 935280, Note_on_c, 10, 65, 120
11, 935280, Note_on_c, 10, 74, 120
11, 935472, Note_off_c, 10, 74, 64
11, 935472, Note_off_c, 10, 65, 64
11, 935520, Note_on_c, 10, 74, 120
11, 935520, Note_on_c, 10, 65, 120
11, 935712, Note_off_c, 10, 65, 64
11, 935712, Note_off_c, 10, 74, 64
11, 935760, Note_on_c, 10, 74, 120
11, 935760, Note_on_c, 10, 65, 120
11, 935952, Note_off_c, 10, 65, 64
11, 935952, Note_off_c, 10, 74, 64
11, 936000, Note_on_c, 10, 65, 120
11, 936000, Note_on_c, 10, 74, 120
11, 936192, Note_off_c, 10, 74, 64
11, 936192, Note_off_c, 10, 65, 64
11, 936240, Note_on_c, 10, 74, 120
11, 936240, Note_on_c, 10, 65, 120
11, 936432, Note_off_c, 10, 65, 64
11, 936432, Note_off_c, 10, 74, 64
11, 936480, Note_on_c, 10, 74, 120
11, 936480, Note_on_c, 10, 65, 120
11, 936672, Note_off_c, 10, 65, 64
11, 936672, Note_off_c, 10, 74, 64
11, 936720, Note_on_c, 10, 74, 120
11, 936720, Note_on_c, 10, 65, 120
11, 936912, Note_off_c, 10, 65, 64
11, 936912, Note_off_c, 10, 74, 64
11, 936960, Note_on_c, 10, 65, 120
11, 936960, Note_on_c, 10, 74, 120
11, 937152, Note_off_c, 10, 74, 64
11, 937152, Note_off_c, 10, 65, 64
11, 937200, Note_on_c, 10, 74, 120
11, 937200, Note_on_c, 10, 65, 120
11, 937392, Note_off_c, 10, 65, 64
11, 937392, Note_off_c, 10, 74, 64
11, 937440, Note_on_c, 10, 65, 120
11, 937440, Note_on_c, 10, 74, 120
11, 937632, Note_off_c, 10, 74, 64
11, 937632, Note_off_c, 10, 65, 64
11, 937680, Note_on_c, 10, 74, 120
11, 937680, Note_on_c, 10, 65, 120
11, 937872, Note_off_c, 10, 65, 64
11, 937872, Note_off_c, 10, 74, 64
11, 937920, Note_on_c, 10, 65, 120
11, 937920, Note_on_c, 10, 74, 120
11, 938112, Note_off_c, 10, 74, 64
11, 938112, Note_off_c, 10, 65, 64
11, 938160, Note_on_c, 10, 74, 120
11, 938160, Note_on_c, 10, 65, 120
11, 938352, Note_off_c, 10, 65, 64
11, 938352, Note_off_c, 10, 74, 64
11, 938400, Note_on_c, 10, 65, 120
11, 938400, Note_on_c, 10, 74, 120
11, 938592, Note_off_c, 10, 74, 64
11, 938592, Note_off_c, 10, 65, 64
11, 941520, Note_on_c, 10, 50, 80
11, 941520, Note_on_c, 10, 53, 80
11, 941712, Note_off_c, 10, 53, 64
11, 941712, Note_off_c, 10, 50, 64
11, 941760, Note_on_c, 10, 50, 80
11, 941760, Note_on_c, 10, 53, 80
11, 941952, Note_off_c, 10, 53, 64
11, 941952, Note_off_c, 10, 50, 64
11, 942000, Note_on_c, 10, 50, 80
11, 942000, Note_on_c, 10, 53, 80
11, 942192, Note_off_c, 10, 53, 64
11, 942192, Note_off_c, 10, 50, 64
11, 942240, Note_on_c, 10, 50, 80
11, 942240, Note_on_c, 10, 53, 80
11, 942432, Note_off_c, 10, 53, 64
11, 942432, Note_off_c, 10, 50, 64
11, 942480, Note_on_c, 10, 53, 80
11, 942480, Note_on_c, 10, 50, 80
11, 942672, Note_off_c, 10, 50, 64
11, 942672, Note_off_c, 10, 53, 64
11, 942720, Note_on_c, 10, 50, 80
11, 942720, Note_on_c, 10, 53, 80
11, 942912, Note_off_c, 10, 53, 64
11, 942912, Note_off_c, 10, 50, 64
11, 942960, Note_on_c, 10, 53, 80
11, 942960, Note_on_c, 10, 50, 80
11, 943152, Note_off_c, 10, 50, 64
11, 943152, Note_off_c, 10, 53, 64
11, 943200, Note_on_c, 10, 53, 80
11, 943200, Note_on_c, 10, 50, 80
11, 943392, Note_off_c, 10, 50, 64
11, 943392, Note_off_c, 10, 53, 64
11, 943440, Note_on_c, 10, 50, 80
11, 943440, Note_on_c, 10, 53, 80
11, 943632, Note_off_c, 10, 53, 64
11, 943632, Note_off_c, 10, 50, 64
11, 943680, Note_on_c, 10, 53, 80
11, 943680, Note_on_c, 10, 50, 80
11, 943872, Note_off_c, 10, 50, 64
11, 943872, Note_off_c, 10, 53, 64
11, 943920, Note_on_c, 10, 50, 80
11, 943920, Note_on_c, 10, 53, 80
11, 944112, Note_off_c, 10, 53, 64
11, 944112, Note_off_c, 10, 50, 64
11, 944160, Note_on_c, 10, 53, 80
11, 944160, Note_on_c, 10, 50, 80
11, 944352, Note_off_c, 10, 50, 64
11, 944352, Note_off_c, 10, 53, 64
11, 944400, Note_on_c, 10, 50, 80
11, 944400, Note_on_c, 10, 53, 80
11, 944592, Note_off_c, 10, 53, 64
11, 944592, Note_off_c, 10, 50, 64
11, 944640, Note_on_c, 10, 50, 80
11, 944640, Note_on_c, 10, 53, 80
11, 944832, Note_off_c, 10, 53, 64
11, 944832, Note_off_c, 10, 50, 64
11, 944880, Note_on_c, 10, 53, 80
11, 944880, Note_on_c, 10, 50, 80
11, 945072, Note_off_c, 10, 50, 64
11, 945072, Note_off_c, 10, 53, 64
11, 945120, Note_on_c, 10, 55, 80
11, 945120, Note_on_c, 10, 51, 80
11, 945312, Note_off_c, 10, 51, 64
11, 945312, Note_off_c, 10, 55, 64
11, 945360, Note_on_c, 10, 51, 80
11, 945360, Note_on_c, 10, 55, 80
11, 945552, Note_off_c, 10, 55, 64
11, 945552, Note_off_c, 10, 51, 64
11, 945600, Note_on_c, 10, 55, 80
11, 945600, Note_on_c, 10, 51, 80
11, 945792, Note_off_c, 10, 51, 64
11, 945792, Note_off_c, 10, 55, 64
11, 945840, Note_on_c, 10, 51, 80
11, 945840, Note_on_c, 10, 55, 80
11, 946032, Note_off_c, 10, 55, 64
11, 946032, Note_off_c, 10, 51, 64
11, 946080, Note_on_c, 10, 55, 80
11, 946080, Note_on_c, 10, 51, 80
11, 946272, Note_off_c, 10, 51, 64
11, 946272, Note_off_c, 10, 55, 64
11, 946320, Note_on_c, 10, 51, 80
11, 946320, Note_on_c, 10, 55, 80
11, 946512, Note_off_c, 10, 55, 64
11, 946512, Note_off_c, 10, 51, 64
11, 946560, Note_on_c, 10, 51, 80
11, 946560, Note_on_c, 10, 55, 80
11, 946752, Note_off_c, 10, 55, 64
11, 946752, Note_off_c, 10, 51, 64
11, 946800, Note_on_c, 10, 55, 80
11, 946800, Note_on_c, 10, 51, 80
11, 946992, Note_off_c, 10, 51, 64
11, 946992, Note_off_c, 10, 55, 64
11, 947040, Note_on_c, 10, 57, 80
11, 947040, Note_on_c, 10, 53, 80
11, 947232, Note_off_c, 10, 53, 64
11, 947232, Note_off_c, 10, 57, 64
11, 947280, Note_on_c, 10, 53, 80
11, 947280, Note_on_c, 10, 57, 80
11, 947472, Note_off_c, 10, 57, 64
11, 947472, Note_off_c, 10, 53, 64
11, 947520, Note_on_c, 10, 57, 80
11, 947520, Note_on_c, 10, 53, 80
11, 947712, Note_off_c, 10, 53, 64
11, 947712, Note_off_c, 10, 57, 64
11, 947760, Note_on_c, 10, 53, 80
11, 947760, Note_on_c, 10, 57, 80
11, 947952, Note_off_c, 10, 57, 64
11, 947952, Note_off_c, 10, 53, 64
11, 948000, Note_on_c, 10, 53, 80
11, 948000, Note_on_c, 10, 57, 80
11, 948192, Note_off_c, 10, 57, 64
11, 948192, Note_off_c, 10, 53, 64
11, 948240, Note_on_c, 10, 57, 80
11, 948240, Note_on_c, 10, 53, 80
11, 948432, Note_off_c, 10, 53, 64
11, 948432, Note_off_c, 10, 57, 64
11, 948480, Note_on_c, 10, 57, 80
11, 948480, Note_on_c, 10, 53, 80
11, 948672, Note_off_c, 10, 53, 64
11, 948672, Note_off_c, 10, 57, 64
11, 948720, Note_on_c, 10, 53, 80
11, 948720, Note_on_c, 10, 57, 80
11, 948912, Note_off_c, 10, 57, 64
11, 948912, Note_off_c, 10, 53, 64
11, 948960, Note_on_c, 10, 58, 80
11, 949152, Note_off_c, 10, 58, 64
11, 949200, Note_on_c, 10, 58, 48
11, 949392, Note_off_c, 10, 58, 64
11, 949440, Note_on_c, 10, 58, 48
11, 949632, Note_off_c, 10, 58, 64
11, 949680, Note_on_c, 10, 58, 48
11, 949872, Note_off_c, 10, 58, 64
11, 949920, Note_on_c, 10, 58, 48
11, 950112, Note_off_c, 10, 58, 64
11, 950160, Note_on_c, 10, 58, 48
11, 950352, Note_off_c, 10, 58, 64
11, 950400, Note_on_c, 10, 58, 48
11, 950592, Note_off_c, 10, 58, 64
11, 950640, Note_on_c, 10, 58, 48
11, 950832, Note_off_c, 10, 58, 64
11, 950880, Note_on_c, 10, 58, 48
11, 951072, Note_off_c, 10, 58, 64
11, 951120, Note_on_c, 10, 58, 48
11, 951312, Note_off_c, 10, 58, 64
11, 951360, Note_on_c, 10, 58, 48
11, 951552, Note_off_c, 10, 58, 64
11, 951600, Note_on_c, 10, 58, 48
11, 951792, Note_off_c, 10, 58, 64
11, 951840, Note_on_c, 10, 58, 48
11, 952032, Note_off_c, 10, 58, 64
11, 952080, Note_on_c, 10, 58, 48
11, 952272, Note_off_c, 10, 58, 64
11, 952320, Note_on_c, 10, 58, 48
11, 952512, Note_off_c, 10, 58, 64
11, 952560, Note_on_c, 10, 58, 48
11, 952752, Note_off_c, 10, 58, 64
11, 952800, Note_on_c, 10, 58, 48
11, 952992, Note_off_c, 10, 58, 64
11, 953040, Note_on_c, 10, 58, 48
11, 953232, Note_off_c, 10, 58, 64
11, 953280, Note_on_c, 10, 58, 48
11, 953472, Note_off_c, 10, 58, 64
11, 953520, Note_on_c, 10, 58, 48
11, 953712, Note_off_c, 10, 58, 64
11, 953760, Note_on_c, 10, 58, 48
11, 953952, Note_off_c, 10, 58, 64
11, 954000, Note_on_c, 10, 58, 48
11, 954192, Note_off_c, 10, 58, 64
11, 954240, Note_on_c, 10, 58, 48
11, 954432, Note_off_c, 10, 58, 64
11, 954480, Note_on_c, 10, 58, 48
11, 954672, Note_off_c, 10, 58, 64
11, 954720, Note_on_c, 10, 58, 48
11, 954912, Note_off_c, 10, 58, 64
11, 954960, Note_on_c, 10, 58, 48
11, 955152, Note_off_c, 10, 58, 64
11, 955200, Note_on_c, 10, 58, 48
11, 955392, Note_off_c, 10, 58, 64
11, 955440, Note_on_c, 10, 58, 48
11, 955632, Note_off_c, 10, 58, 64
11, 955680, Note_on_c, 10, 58, 48
11, 955872, Note_off_c, 10, 58, 64
11, 955920, Note_on_c, 10, 58, 48
11, 956112, Note_off_c, 10, 58, 64
11, 956160, Note_on_c, 10, 58, 48
11, 956352, Note_off_c, 10, 58, 64
11, 956400, Note_on_c, 10, 58, 48
11, 956592, Note_off_c, 10, 58, 64
11, 956640, Note_on_c, 10, 58, 48
11, 957024, Note_off_c, 10, 58, 64
11, 957120, Note_on_c, 10, 70, 40
11, 957600, Note_off_c, 10, 70, 64
11, 957600, Note_on_c, 10, 69, 40
11, 958080, Note_off_c, 10, 69, 64
11, 958080, Note_on_c, 10, 67, 40
11, 958560, Note_off_c, 10, 67, 64
11, 958560, Note_on_c, 10, 65, 40
11, 959040, Note_off_c, 10, 65, 64
11, 959040, Note_on_c, 10, 63, 40
11, 959520, Note_off_c, 10, 63, 64
11, 959520, Note_on_c, 10, 62, 40
11, 960000, Note_off_c, 10, 62, 64
11, 960000, Note_on_c, 10, 63, 40
11, 960480, Note_off_c, 10, 63, 64
11, 960480, Note_on_c, 10, 60, 40
11, 964800, Note_off_c, 10, 60, 64
11, 966720, Note_on_c, 10, 60, 68
11, 967488, Note_off_c, 10, 60, 64
11, 967680, Note_on_c, 10, 60, 80
11, 968064, Note_off_c, 10, 60, 64
11, 968160, Note_on_c, 10, 62, 127
11, 968400, Note_off_c, 10, 62, 64
11, 968400, Note_on_c, 10, 62, 127
11, 968640, Note_off_c, 10, 62, 64
11, 968640, Note_on_c, 10, 70, 127
11, 968880, Note_off_c, 10, 70, 64
11, 968880, Note_on_c, 10, 70, 127
11, 969120, Note_off_c, 10, 70, 64
11, 969120, Note_on_c, 10, 65, 127
11, 969360, Note_off_c, 10, 65, 64
11, 969360, Note_on_c, 10, 65, 127
11, 969600, Note_off_c, 10, 65, 64
11, 969600, Note_on_c, 10, 70, 127
11, 969840, Note_off_c, 10, 70, 64
11, 969840, Note_on_c, 10, 70, 127
11, 970080, Note_off_c, 10, 70, 64
11, 970080, Note_on_c, 10, 62, 127
11, 970320, Note_off_c, 10, 62, 64
11, 970320, Note_on_c, 10, 62, 127
11, 970560, Note_off_c, 10, 62, 64
11, 970560, Note_on_c, 10, 65, 127
11, 970800, Note_off_c, 10, 65, 64
11, 970800, Note_on_c, 10, 65, 127
11, 971040, Note_off_c, 10, 65, 64
11, 971040, Note_on_c, 10, 58, 127
11, 971280, Note_off_c, 10, 58, 64
11, 971280, Note_on_c, 10, 58, 127
11, 971520, Note_off_c, 10, 58, 64
11, 971520, Note_on_c, 10, 62, 127
11, 971760, Note_off_c, 10, 62, 64
11, 971760, Note_on_c, 10, 62, 127
11, 972000, Note_off_c, 10, 62, 64
11, 972000, Note_on_c, 10, 55, 127
11, 972240, Note_off_c, 10, 55, 64
11, 972240, Note_on_c, 10, 55, 127
11, 972480, Note_off_c, 10, 55, 64
11, 972480, Note_on_c, 10, 63, 127
11, 972720, Note_off_c, 10, 63, 64
11, 972720, Note_on_c, 10, 63, 127
11, 972960, Note_off_c, 10, 63, 64
11, 972960, Note_on_c, 10, 60, 127
11, 973200, Note_off_c, 10, 60, 64
11, 973200, Note_on_c, 10, 60, 127
11, 973440, Note_off_c, 10, 60, 64
11, 973440, Note_on_c, 10, 58, 127
11, 973680, Note_off_c, 10, 58, 64
11, 973680, Note_on_c, 10, 58, 127
11, 973920, Note_off_c, 10, 58, 64
11, 973920, Note_on_c, 10, 57, 127
11, 974160, Note_off_c, 10, 57, 64
11, 974160, Note_on_c, 10, 57, 127
11, 974400, Note_off_c, 10, 57, 64
11, 974400, Note_on_c, 10, 65, 127
11, 974640, Note_off_c, 10, 65, 64
11, 974640, Note_on_c, 10, 65, 127
11, 974880, Note_off_c, 10, 65, 64
11, 974880, Note_on_c, 10, 63, 127
11, 975120, Note_off_c, 10, 63, 64
11, 975120, Note_on_c, 10, 63, 127
11, 975360, Note_off_c, 10, 63, 64
11, 975360, Note_on_c, 10, 60, 127
11, 975600, Note_off_c, 10, 60, 64
11, 975600, Note_on_c, 10, 60, 127
11, 975840, Note_off_c, 10, 60, 64
11, 975840, Note_on_c, 10, 58, 127
11, 976080, Note_off_c, 10, 58, 64
11, 976080, Note_on_c, 10, 58, 127
11, 976320, Note_off_c, 10, 58, 64
11, 976320, Note_on_c, 10, 65, 127
11, 976560, Note_off_c, 10, 65, 64
11, 976560, Note_on_c, 10, 65, 127
11, 976800, Note_off_c, 10, 65, 64
11, 976800, Note_on_c, 10, 62, 127
11, 977040, Note_off_c, 10, 62, 64
11, 977040, Note_on_c, 10, 62, 127
11, 977280, Note_off_c, 10, 62, 64
11, 977280, Note_on_c, 10, 60, 127
11, 977520, Note_off_c, 10, 60, 64
11, 977520, Note_on_c, 10, 60, 127
11, 977760, Note_off_c, 10, 60, 64
11, 977760, Note_on_c, 10, 59, 127
11, 978000, Note_off_c, 10, 59, 64
11, 978000, Note_on_c, 10, 59, 127
11, 978240, Note_off_c, 10, 59, 64
11, 978240, Note_on_c, 10, 67, 127
11, 978480, Note_off_c, 10, 67, 64
11, 978480, Note_on_c, 10, 67, 127
11, 978720, Note_off_c, 10, 67, 64
11, 978720, Note_on_c, 10, 62, 127
11, 978960, Note_off_c, 10, 62, 64
11, 978960, Note_on_c, 10, 62, 127
11, 979200, Note_off_c, 10, 62, 64
11, 979200, Note_on_c, 10, 59, 127
11, 979440, Note_off_c, 10, 59, 64
11, 979440, Note_on_c, 10, 59, 127
11, 979680, Note_off_c, 10, 59, 64
11, 979680, Note_on_c, 10, 60, 127
11, 979920, Note_off_c, 10, 60, 64
11, 979920, Note_on_c, 10, 60, 127
11, 980160, Note_off_c, 10, 60, 64
11, 980160, Note_on_c, 10, 55, 127
11, 980400, Note_off_c, 10, 55, 64
11, 980400, Note_on_c, 10, 55, 127
11, 980640, Note_off_c, 10, 55, 64
11, 980640, Note_on_c, 10, 51, 127
11, 980880, Note_off_c, 10, 51, 64
11, 980880, Note_on_c, 10, 51, 127
11, 981120, Note_off_c, 10, 51, 64
11, 981120, Note_on_c, 10, 50, 127
11, 981360, Note_off_c, 10, 50, 64
11, 981360, Note_on_c, 10, 50, 127
11, 981600, Note_off_c, 10, 50, 64
11, 981600, Note_on_c, 10, 60, 127
11, 981840, Note_off_c, 10, 60, 64
11, 981840, Note_on_c, 10, 60, 127
11, 982080, Note_off_c, 10, 60, 64
11, 982080, Note_on_c, 10, 56, 127
11, 982320, Note_off_c, 10, 56, 64
11, 982320, Note_on_c, 10, 56, 127
11, 982560, Note_off_c, 10, 56, 64
11, 982560, Note_on_c, 10, 51, 127
11, 982800, Note_off_c, 10, 51, 64
11, 982800, Note_on_c, 10, 51, 127
11, 983040, Note_off_c, 10, 51, 64
11, 983040, Note_on_c, 10, 48, 127
11, 983280, Note_off_c, 10, 48, 64
11, 983280, Note_on_c, 10, 48, 127
11, 983520, Note_off_c, 10, 48, 64
11, 983520, Note_on_c, 10, 62, 127
11, 983760, Note_off_c, 10, 62, 64
11, 983760, Note_on_c, 10, 62, 127
11, 984000, Note_off_c, 10, 62, 64
11, 984000, Note_on_c, 10, 56, 127
11, 984240, Note_off_c, 10, 56, 64
11, 984240, Note_on_c, 10, 56, 127
11, 984480, Note_off_c, 10, 56, 64
11, 984480, Note_on_c, 10, 53, 127
11, 984720, Note_off_c, 10, 53, 64
11, 984720, Note_on_c, 10, 53, 127
11, 984960, Note_off_c, 10, 53, 64
11, 984960, Note_on_c, 10, 51, 127
11, 985200, Note_off_c, 10, 51, 64
11, 985200, Note_on_c, 10, 51, 127
11, 985440, Note_off_c, 10, 51, 64
11, 985440, Note_on_c, 10, 62, 127
11, 985680, Note_off_c, 10, 62, 64
11, 985680, Note_on_c, 10, 62, 127
11, 985920, Note_off_c, 10, 62, 64
11, 985920, Note_on_c, 10, 58, 127
11, 986160, Note_off_c, 10, 58, 64
11, 986160, Note_on_c, 10, 58, 127
11, 986400, Note_off_c, 10, 58, 64
11, 986400, Note_on_c, 10, 53, 127
11, 986640, Note_off_c, 10, 53, 64
11, 986640, Note_on_c, 10, 53, 127
11, 986880, Note_off_c, 10, 53, 64
11, 986880, Note_on_c, 10, 50, 127
11, 987120, Note_off_c, 10, 50, 64
11, 987120, Note_on_c, 10, 50, 127
11, 987360, Note_off_c, 10, 50, 64
11, 987360, Note_on_c, 10, 51, 127
11, 987600, Note_off_c, 10, 51, 64
11, 987600, Note_on_c, 10, 51, 127
11, 987840, Note_off_c, 10, 51, 64
11, 987840, Note_on_c, 10, 55, 127
11, 988080, Note_off_c, 10, 55, 64
11, 988080, Note_on_c, 10, 55, 127
11, 988320, Note_off_c, 10, 55, 64
11, 988320, Note_on_c, 10, 52, 127
11, 988560, Note_off_c, 10, 52, 64
11, 988560, Note_on_c, 10, 52, 127
11, 988800, Note_off_c, 10, 52, 64
11, 988800, Note_on_c, 10, 60, 127
11, 989040, Note_off_c, 10, 60, 64
11, 989040, Note_on_c, 10, 60, 127
11, 989280, Note_off_c, 10, 60, 64
11, 989280, Note_on_c, 10, 53, 127
11, 989520, Note_off_c, 10, 53, 64
11, 989520, Note_on_c, 10, 53, 127
11, 989760, Note_off_c, 10, 53, 64
11, 989760, Note_on_c, 10, 57, 127
11, 990000, Note_off_c, 10, 57, 64
11, 990000, Note_on_c, 10, 57, 127
11, 990240, Note_off_c, 10, 57, 64
11, 990240, Note_on_c, 10, 54, 127
11, 990480, Note_off_c, 10, 54, 64
11, 990480, Note_on_c, 10, 54, 127
11, 990720, Note_off_c, 10, 54, 64
11, 990720, Note_on_c, 10, 62, 127
11, 990960, Note_off_c, 10, 62, 64
11, 990960, Note_on_c, 10, 62, 127
11, 991200, Note_off_c, 10, 62, 64
11, 991200, Note_on_c, 10, 55, 127
11, 991440, Note_off_c, 10, 55, 64
11, 991440, Note_on_c, 10, 55, 127
11, 991680, Note_off_c, 10, 55, 64
11, 991680, Note_on_c, 10, 58, 127
11, 991920, Note_off_c, 10, 58, 64
11, 991920, Note_on_c, 10, 58, 127
11, 992160, Note_off_c, 10, 58, 64
11, 992160, Note_on_c, 10, 55, 127
11, 992400, Note_off_c, 10, 55, 64
11, 992400, Note_on_c, 10, 55, 127
11, 992640, Note_off_c, 10, 55, 64
11, 992640, Note_on_c, 10, 63, 127
11, 992880, Note_off_c, 10, 63, 64
11, 992880, Note_on_c, 10, 63, 127
11, 993120, Note_off_c, 10, 63, 64
11, 993120, Note_on_c, 10, 56, 127
11, 993360, Note_off_c, 10, 56, 64
11, 993360, Note_on_c, 10, 56, 127
11, 993600, Note_off_c, 10, 56, 64
11, 993600, Note_on_c, 10, 60, 127
11, 993840, Note_off_c, 10, 60, 64
11, 993840, Note_on_c, 10, 60, 127
11, 994080, Note_off_c, 10, 60, 64
11, 994080, Note_on_c, 10, 57, 127
11, 994320, Note_off_c, 10, 57, 64
11, 994320, Note_on_c, 10, 57, 127
11, 994560, Note_off_c, 10, 57, 64
11, 994560, Note_on_c, 10, 65, 127
11, 994800, Note_off_c, 10, 65, 64
11, 994800, Note_on_c, 10, 65, 127
11, 995040, Note_off_c, 10, 65, 64
11, 995040, Note_on_c, 10, 58, 120
11, 995232, Note_off_c, 10, 58, 64
11, 995280, Note_on_c, 10, 58, 120
11, 995472, Note_off_c, 10, 58, 64
11, 995520, Note_on_c, 10, 60, 120
11, 995712, Note_off_c, 10, 60, 64
11, 995760, Note_on_c, 10, 60, 120
11, 995952, Note_off_c, 10, 60, 64
11, 996000, Note_on_c, 10, 62, 120
11, 996192, Note_off_c, 10, 62, 64
11, 996240, Note_on_c, 10, 62, 120
11, 996432, Note_off_c, 10, 62, 64
11, 996480, Note_on_c, 10, 63, 120
11, 996672, Note_off_c, 10, 63, 64
11, 996720, Note_on_c, 10, 63, 120
11, 996912, Note_off_c, 10, 63, 64
11, 996960, Note_on_c, 10, 65, 120
11, 997152, Note_off_c, 10, 65, 64
11, 997200, Note_on_c, 10, 65, 120
11, 997392, Note_off_c, 10, 65, 64
11, 997440, Note_on_c, 10, 63, 120
11, 997632, Note_off_c, 10, 63, 64
11, 997680, Note_on_c, 10, 63, 120
11, 997872, Note_off_c, 10, 63, 64
11, 997920, Note_on_c, 10, 62, 120
11, 998112, Note_off_c, 10, 62, 64
11, 998160, Note_on_c, 10, 62, 120
11, 998352, Note_off_c, 10, 62, 64
11, 998400, Note_on_c, 10, 60, 120
11, 998592, Note_off_c, 10, 60, 64
11, 998640, Note_on_c, 10, 60, 120
11, 998832, Note_off_c, 10, 60, 64
11, 998880, Note_on_c, 10, 58, 120
11, 999072, Note_off_c, 10, 58, 64
11, 999120, Note_on_c, 10, 58, 120
11, 999312, Note_off_c, 10, 58, 64
11, 999360, Note_on_c, 10, 57, 120
11, 999552, Note_off_c, 10, 57, 64
11, 999600, Note_on_c, 10, 57, 120
11, 999792, Note_off_c, 10, 57, 64
11, 999840, Note_on_c, 10, 55, 120
11, 1000032, Note_off_c, 10, 55, 64
11, 1000080, Note_on_c, 10, 55, 120
11, 1000272, Note_off_c, 10, 55, 64
11, 1000320, Note_on_c, 10, 53, 120
11, 1000512, Note_off_c, 10, 53, 64
11, 1000560, Note_on_c, 10, 53, 120
11, 1000752, Note_off_c, 10, 53, 64
11, 1000800, Note_on_c, 10, 51, 120
11, 1000992, Note_off_c, 10, 51, 64
11, 1001040, Note_on_c, 10, 51, 120
11, 1001232, Note_off_c, 10, 51, 64
11, 1001280, Note_on_c, 10, 50, 120
11, 1001472, Note_off_c, 10, 50, 64
11, 1001520, Note_on_c, 10, 50, 120
11, 1001712, Note_off_c, 10, 50, 64
11, 1001760, Note_on_c, 10, 48, 120
11, 1001952, Note_off_c, 10, 48, 64
11, 1002000, Note_on_c, 10, 48, 120
11, 1002192, Note_off_c, 10, 48, 64
11, 1002240, Note_on_c, 10, 58, 120
11, 1002432, Note_off_c, 10, 58, 64
11, 1002480, Note_on_c, 10, 58, 120
11, 1002672, Note_off_c, 10, 58, 64
11, 1002720, Note_on_c, 10, 53, 127
11, 1002912, Note_off_c, 10, 53, 64
11, 1008960, Note_on_c, 10, 46, 125
11, 1009920, Note_off_c, 10, 46, 64
11, 1009920, Note_on_c, 10, 41, 96
11, 1010256, Note_off_c, 10, 41, 64
11, 1010400, Note_on_c, 10, 41, 127
11, 1010736, Note_off_c, 10, 41, 64
11, 1010880, Note_on_c, 10, 65, 96
11, 1010880, Note_on_c, 10, 53, 96
11, 1011648, Note_off_c, 10, 53, 64
11, 1011648, Note_off_c, 10, 65, 64
11, 1011840, Note_on_c, 10, 53, 96
11, 1011840, Note_on_c, 10, 65, 96
11, 1012704, Note_off_c, 10, 65, 64
11, 1012704, Note_off_c, 10, 53, 64
11, 1012800, Note_on_c, 10, 53, 96
11, 1012800, Note_on_c, 10, 65, 96
11, 1013568, Note_off_c, 10, 65, 64
11, 1013568, Note_off_c, 10, 53, 64
11, 1013760, Note_on_c, 10, 53, 96
11, 1013760, Note_on_c, 10, 65, 96
11, 1014624, Note_off_c, 10, 65, 64
11, 1014624, Note_off_c, 10, 53, 64
11, 1014720, Note_on_c, 10, 53, 96
11, 1014720, Note_on_c, 10, 65, 96
11, 1015488, Note_off_c, 10, 65, 64
11, 1015488, Note_off_c, 10, 53, 64
11, 1015680, Note_on_c, 10, 53, 96
11, 1015680, Note_on_c, 10, 65, 96
11, 1016544, Note_off_c, 10, 65, 64
11, 1016544, Note_off_c, 10, 53, 64
11, 1016640, Note_on_c, 10, 41, 125
11, 1016640, Note_on_c, 10, 53, 125
11, 1017600, Note_off_c, 10, 53, 64
11, 1017600, Note_off_c, 10, 41, 64
11, 1017600, Note_on_c, 10, 53, 96
11, 1017600, Note_on_c, 10, 41, 96
11, 1017984, Note_off_c, 10, 41, 64
11, 1017984, Note_off_c, 10, 53, 64
11, 1018080, Note_on_c, 10, 65, 80
11, 1019520, Note_off_c, 10, 65, 64
11, 1019520, Note_on_c, 10, 67, 80
11, 1020000, Note_off_c, 10, 67, 64
11, 1020000, Note_on_c, 10, 60, 80
11, 1020480, Note_off_c, 10, 60, 64
11, 1020480, Note_on_c, 10, 62, 80
11, 1020960, Note_off_c, 10, 62, 64
11, 1020960, Note_on_c, 10, 63, 80
11, 1021440, Note_off_c, 10, 63, 64
11, 1021440, Note_on_c, 10, 57, 80
11, 1021920, Note_off_c, 10, 57, 64
11, 1021920, Note_on_c, 10, 58, 80
11, 1022400, Note_off_c, 10, 58, 64
11, 1022400, Note_on_c, 10, 60, 80
11, 1022880, Note_off_c, 10, 60, 64
11, 1022880, Note_on_c, 10, 53, 64
11, 1023360, Note_off_c, 10, 53, 64
11, 1023360, Note_on_c, 10, 55, 64
11, 1023840, Note_off_c, 10, 55, 64
11, 1023840, Note_on_c, 10, 51, 64
11, 1024320, Note_off_c, 10, 51, 64
11, 1024320, Note_on_c, 10, 50, 64
11, 1024800, Note_off_c, 10, 50, 64
11, 1024800, Note_on_c, 10, 48, 51
11, 1025280, Note_off_c, 10, 48, 64
11, 1025280, Note_on_c, 10, 53, 51
11, 1025760, Note_off_c, 10, 53, 64
11, 1025760, Note_on_c, 10, 50, 34
11, 1033440, Note_off_c, 10, 50, 64
11, 1033440, Note_on_c, 10, 55, 34
11, 1037280, Note_off_c, 10, 55, 64
11, 1037280, Note_on_c, 10, 54, 42
11, 1037472, Note_off_c, 10, 54, 64
11, 1037760, Note_on_c, 10, 54, 42
11, 1037952, Note_off_c, 10, 54, 64
11, 1038240, Note_on_c, 10, 57, 42
11, 1038432, Note_off_c, 10, 57, 64
11, 1039680, Note_on_c, 10, 55, 42
11, 1039872, Note_off_c, 10, 55, 64
11, 1040160, Note_on_c, 10, 58, 42
11, 1040352, Note_off_c, 10, 58, 64
11, 1041600, Note_on_c, 10, 57, 42
11, 1041792, Note_off_c, 10, 57, 64
11, 1042080, Note_on_c, 10, 60, 42
11, 1042272, Note_off_c, 10, 60, 64
11, 1043520, Note_on_c, 10, 55, 42
11, 1043712, Note_off_c, 10, 55, 64
11, 1044000, Note_on_c, 10, 58, 42
11, 1044192, Note_off_c, 10, 58, 64
11, 1044960, Note_on_c, 10, 54, 37
11, 1046880, Note_off_c, 10, 54, 64
11, 1046880, Note_on_c, 10, 55, 37
11, 1048800, Note_off_c, 10, 55, 64
11, 1048800, Note_on_c, 10, 57, 37
11, 1050720, Note_off_c, 10, 57, 64
11, 1050720, Note_on_c, 10, 55, 37
11, 1052640, Note_off_c, 10, 55, 64
11, 1073760, Note_on_c, 10, 65, 92
11, 1074240, Note_off_c, 10, 65, 64
11, 1074720, Note_on_c, 10, 75, 96
11, 1075200, Note_off_c, 10, 75, 64
11, 1075680, Note_on_c, 10, 72, 92
11, 1076160, Note_off_c, 10, 72, 64
11, 1076640, Note_on_c, 10, 69, 96
11, 1077120, Note_off_c, 10, 69, 64
11, 1077600, Note_on_c, 10, 65, 92
11, 1078080, Note_off_c, 10, 65, 64
11, 1078560, Note_on_c, 10, 63, 96
11, 1079040, Note_off_c, 10, 63, 64
11, 1079520, Note_on_c, 10, 50, 80
11, 1079808, Note_off_c, 10, 50, 64
11, 1080000, Note_on_c, 10, 58, 80
11, 1080768, Note_off_c, 10, 58, 64
11, 1080960, Note_on_c, 10, 58, 80
11, 1081248, Note_off_c, 10, 58, 64
11, 1081440, Note_on_c, 10, 58, 80
11, 1081728, Note_off_c, 10, 58, 64
11, 1081920, Note_on_c, 10, 55, 80
11, 1082688, Note_off_c, 10, 55, 64
11, 1082880, Note_on_c, 10, 60, 80
11, 1083168, Note_off_c, 10, 60, 64
11, 1083360, Note_on_c, 10, 58, 80
11, 1083648, Note_off_c, 10, 58, 64
11, 1083840, Note_on_c, 10, 53, 80
11, 1084608, Note_off_c, 10, 53, 64
11, 1084800, Note_on_c, 10, 58, 80
11, 1084800, Note_on_c, 10, 53, 80
11, 1085088, Note_off_c, 10, 53, 64
11, 1085088, Note_off_c, 10, 58, 64
11, 1085280, Note_on_c, 10, 57, 80
11, 1085568, Note_off_c, 10, 57, 64
11, 1085760, Note_on_c, 10, 57, 80
11, 1086048, Note_off_c, 10, 57, 64
11, 1086240, Note_on_c, 10, 57, 80
11, 1086528, Note_off_c, 10, 57, 64
11, 1086720, Note_on_c, 10, 57, 80
11, 1087008, Note_off_c, 10, 57, 64
11, 1087200, Note_on_c, 10, 58, 80
11, 1087680, Note_off_c, 10, 58, 64
11, 1087680, Note_on_c, 10, 53, 80
11, 1087920, Note_off_c, 10, 53, 64
11, 1088160, Note_on_c, 10, 55, 80
11, 1088640, Note_off_c, 10, 55, 64
11, 1088640, Note_on_c, 10, 60, 80
11, 1088880, Note_off_c, 10, 60, 64
11, 1089120, Note_on_c, 10, 53, 80
11, 1089600, Note_off_c, 10, 53, 64
11, 1089600, Note_on_c, 10, 58, 80
11, 1089840, Note_off_c, 10, 58, 64
11, 1090080, Note_on_c, 10, 51, 80
11, 1090560, Note_off_c, 10, 51, 64
11, 1090560, Note_on_c, 10, 57, 80
11, 1090800, Note_off_c, 10, 57, 64
11, 1091040, Note_on_c, 10, 50, 56
11, 1091424, Note_off_c, 10, 50, 64
11, 1107840, Note_on_c, 10, 65, 104
11, 1108032, Note_off_c, 10, 65, 64
11, 1108080, Note_on_c, 10, 65, 104
11, 1108272, Note_off_c, 10, 65, 64
11, 1108320, Note_on_c, 10, 62, 104
11, 1108512, Note_off_c, 10, 62, 64
11, 1108560, Note_on_c, 10, 62, 104
11, 1108752, Note_off_c, 10, 62, 64
11, 1108800, Note_on_c, 10, 63, 104
11, 1108992, Note_off_c, 10, 63, 64
11, 1109040, Note_on_c, 10, 63, 104
11, 1109232, Note_off_c, 10, 63, 64
11, 1109280, Note_on_c, 10, 65, 104
11, 1109472, Note_off_c, 10, 65, 64
11, 1109520, Note_on_c, 10, 65, 104
11, 1109712, Note_off_c, 10, 65, 64
11, 1109760, Note_on_c, 10, 53, 104
11, 1109952, Note_off_c, 10, 53, 64
11, 1110000, Note_on_c, 10, 53, 104
11, 1110192, Note_off_c, 10, 53, 64
11, 1110240, Note_on_c, 10, 46, 104
11, 1111392, Note_off_c, 10, 46, 64
11, 1111680, Note_on_c, 10, 48, 104
11, 1111872, Note_off_c, 10, 48, 64
11, 1111920, Note_on_c, 10, 48, 104
11, 1112112, Note_off_c, 10, 48, 64
11, 1112160, Note_on_c, 10, 50, 104
11, 1112352, Note_off_c, 10, 50, 64
11, 1112400, Note_on_c, 10, 50, 104
11, 1112592, Note_off_c, 10, 50, 64
11, 1112640, Note_on_c, 10, 46, 104
11, 1112832, Note_off_c, 10, 46, 64
11, 1112880, Note_on_c, 10, 46, 104
11, 1113072, Note_off_c, 10, 46, 64
11, 1113120, Note_on_c, 10, 50, 104
11, 1113312, Note_off_c, 10, 50, 64
11, 1113360, Note_on_c, 10, 50, 104
11, 1113552, Note_off_c, 10, 50, 64
11, 1113600, Note_on_c, 10, 51, 104
11, 1113792, Note_off_c, 10, 51, 64
11, 1113840, Note_on_c, 10, 51, 104
11, 1114032, Note_off_c, 10, 51, 64
11, 1114080, Note_on_c, 10, 53, 104
11, 1115232, Note_off_c, 10, 53, 64
11, 1115520, Note_on_c, 10, 55, 104
11, 1115712, Note_off_c, 10, 55, 64
11, 1115760, Note_on_c, 10, 55, 104
11, 1115952, Note_off_c, 10, 55, 64
11, 1116000, Note_on_c, 10, 57, 104
11, 1116192, Note_off_c, 10, 57, 64
11, 1116240, Note_on_c, 10, 57, 104
11, 1116432, Note_off_c, 10, 57, 64
11, 1116480, Note_on_c, 10, 58, 104
11, 1116672, Note_off_c, 10, 58, 64
11, 1116720, Note_on_c, 10, 58, 104
11, 1116912, Note_off_c, 10, 58, 64
11, 1116960, Note_on_c, 10, 60, 104
11, 1117152, Note_off_c, 10, 60, 64
11, 1117200, Note_on_c, 10, 60, 104
11, 1117392, Note_off_c, 10, 60, 64
11, 1117440, Note_on_c, 10, 58, 104
11, 1117632, Note_off_c, 10, 58, 64
11, 1117680, Note_on_c, 10, 58, 104
11, 1117872, Note_off_c, 10, 58, 64
11, 1117920, Note_on_c, 10, 57, 104
11, 1119072, Note_off_c, 10, 57, 64
11, 1119360, Note_on_c, 10, 55, 104
11, 1119552, Note_off_c, 10, 55, 64
11, 1119600, Note_on_c, 10, 55, 104
11, 1119792, Note_off_c, 10, 55, 64
11, 1119840, Note_on_c, 10, 53, 104
11, 1120032, Note_off_c, 10, 53, 64
11, 1120080, Note_on_c, 10, 53, 104
11, 1120272, Note_off_c, 10, 53, 64
11, 1120320, Note_on_c, 10, 55, 104
11, 1120512, Note_off_c, 10, 55, 64
11, 1120560, Note_on_c, 10, 55, 104
11, 1120752, Note_off_c, 10, 55, 64
11, 1120800, Note_on_c, 10, 51, 83
11, 1120992, Note_off_c, 10, 51, 64
11, 1121040, Note_on_c, 10, 51, 83
11, 1121232, Note_off_c, 10, 51, 64
11, 1121280, Note_on_c, 10, 48, 83
11, 1121472, Note_off_c, 10, 48, 64
11, 1121520, Note_on_c, 10, 48, 83
11, 1121712, Note_off_c, 10, 48, 64
11, 1121760, Note_on_c, 10, 45, 66
11, 1122210, Note_off_c, 10, 45, 64
11, 1124160, Note_on_c, 10, 67, 40
11, 1124640, Note_off_c, 10, 67, 64
11, 1124640, Note_on_c, 10, 63, 40
11, 1125120, Note_off_c, 10, 63, 64
11, 1125120, Note_on_c, 10, 60, 40
11, 1125504, Note_off_c, 10, 60, 64
11, 1125600, Note_on_c, 10, 57, 40
11, 1125792, Note_off_c, 10, 57, 64
11, 1125840, Note_on_c, 10, 57, 40
11, 1126032, Note_off_c, 10, 57, 64
11, 1126080, Note_on_c, 10, 57, 40
11, 1126272, Note_off_c, 10, 57, 64
11, 1126320, Note_on_c, 10, 57, 40
11, 1126512, Note_off_c, 10, 57, 64
11, 1126560, Note_on_c, 10, 57, 40
11, 1126752, Note_off_c, 10, 57, 64
11, 1126800, Note_on_c, 10, 57, 40
11, 1126992, Note_off_c, 10, 57, 64
11, 1127040, Note_on_c, 10, 57, 40
11, 1127232, Note_off_c, 10, 57, 64
11, 1127280, Note_on_c, 10, 57, 40
11, 1127472, Note_off_c, 10, 57, 64
11, 1127520, Note_on_c, 10, 57, 40
11, 1127712, Note_off_c, 10, 57, 64
11, 1127760, Note_on_c, 10, 57, 40
11, 1127952, Note_off_c, 10, 57, 64
11, 1128000, Note_on_c, 10, 57, 40
11, 1128192, Note_off_c, 10, 57, 64
11, 1128240, Note_on_c, 10, 57, 40
11, 1128432, Note_off_c, 10, 57, 64
11, 1128480, Note_on_c, 10, 57, 40
11, 1128672, Note_off_c, 10, 57, 64
11, 1128720, Note_on_c, 10, 57, 40
11, 1128912, Note_off_c, 10, 57, 64
11, 1128960, Note_on_c, 10, 57, 40
11, 1129152, Note_off_c, 10, 57, 64
11, 1129200, Note_on_c, 10, 57, 40
11, 1129392, Note_off_c, 10, 57, 64
11, 1129440, Note_on_c, 10, 58, 127
11, 1129680, Note_off_c, 10, 58, 64
11, 1130880, Note_on_c, 10, 55, 127
11, 1131120, Note_off_c, 10, 55, 64
11, 1131360, Note_on_c, 10, 51, 127
11, 1131600, Note_off_c, 10, 51, 64
11, 1132320, Note_on_c, 10, 53, 127
11, 1132320, Note_on_c, 10, 41, 127
11, 1132560, Note_off_c, 10, 41, 64
11, 1132560, Note_off_c, 10, 53, 64
11, 1133280, Note_on_c, 10, 57, 40
11, 1133472, Note_off_c, 10, 57, 64
11, 1133520, Note_on_c, 10, 57, 40
11, 1133712, Note_off_c, 10, 57, 64
11, 1133760, Note_on_c, 10, 57, 40
11, 1133952, Note_off_c, 10, 57, 64
11, 1134000, Note_on_c, 10, 57, 40
11, 1134192, Note_off_c, 10, 57, 64
11, 1134240, Note_on_c, 10, 57, 40
11, 1134432, Note_off_c, 10, 57, 64
11, 1134480, Note_on_c, 10, 57, 40
11, 1134672, Note_off_c, 10, 57, 64
11, 1134720, Note_on_c, 10, 57, 40
11, 1134912, Note_off_c, 10, 57, 64
11, 1134960, Note_on_c, 10, 57, 40
11, 1135152, Note_off_c, 10, 57, 64
11, 1135200, Note_on_c, 10, 57, 40
11, 1135392, Note_off_c, 10, 57, 64
11, 1135440, Note_on_c, 10, 57, 40
11, 1135632, Note_off_c, 10, 57, 64
11, 1135680, Note_on_c, 10, 57, 40
11, 1135872, Note_off_c, 10, 57, 64
11, 1135920, Note_on_c, 10, 57, 40
11, 1136112, Note_off_c, 10, 57, 64
11, 1136160, Note_on_c, 10, 57, 40
11, 1136352, Note_off_c, 10, 57, 64
11, 1136400, Note_on_c, 10, 57, 40
11, 1136592, Note_off_c, 10, 57, 64
11, 1136640, Note_on_c, 10, 57, 40
11, 1136832, Note_off_c, 10, 57, 64
11, 1136880, Note_on_c, 10, 57, 40
11, 1137072, Note_off_c, 10, 57, 64
11, 1137120, Note_on_c, 10, 58, 127
11, 1137360, Note_off_c, 10, 58, 64
11, 1138560, Note_on_c, 10, 55, 127
11, 1138800, Note_off_c, 10, 55, 64
11, 1139040, Note_on_c, 10, 51, 127
11, 1139280, Note_off_c, 10, 51, 64
11, 1140000, Note_on_c, 10, 41, 127
11, 1140000, Note_on_c, 10, 53, 127
11, 1140240, Note_off_c, 10, 53, 64
11, 1140240, Note_off_c, 10, 41, 64
11, 1140960, Note_on_c, 10, 52, 32
11, 1141152, Note_off_c, 10, 52, 64
11, 1141200, Note_on_c, 10, 52, 33
11, 1141392, Note_off_c, 10, 52, 64
11, 1141440, Note_on_c, 10, 52, 35
11, 1141632, Note_off_c, 10, 52, 64
11, 1141680, Note_on_c, 10, 52, 36
11, 1141872, Note_off_c, 10, 52, 64
11, 1141920, Note_on_c, 10, 52, 38
11, 1142112, Note_off_c, 10, 52, 64
11, 1142160, Note_on_c, 10, 52, 39
11, 1142352, Note_off_c, 10, 52, 64
11, 1142400, Note_on_c, 10, 52, 41
11, 1142592, Note_off_c, 10, 52, 64
11, 1142640, Note_on_c, 10, 52, 42
11, 1142832, Note_off_c, 10, 52, 64
11, 1142880, Note_on_c, 10, 52, 43
11, 1143072, Note_off_c, 10, 52, 64
11, 1143120, Note_on_c, 10, 52, 45
11, 1143312, Note_off_c, 10, 52, 64
11, 1143360, Note_on_c, 10, 52, 46
11, 1143552, Note_off_c, 10, 52, 64
11, 1143600, Note_on_c, 10, 52, 48
11, 1143792, Note_off_c, 10, 52, 64
11, 1143840, Note_on_c, 10, 52, 49
11, 1144032, Note_off_c, 10, 52, 64
11, 1144080, Note_on_c, 10, 52, 50
11, 1144272, Note_off_c, 10, 52, 64
11, 1144320, Note_on_c, 10, 52, 52
11, 1144512, Note_off_c, 10, 52, 64
11, 1144560, Note_on_c, 10, 52, 53
11, 1144752, Note_off_c, 10, 52, 64
11, 1144800, Note_on_c, 10, 52, 75
11, 1144992, Note_off_c, 10, 52, 64
11, 1145040, Note_on_c, 10, 52, 56
11, 1145232, Note_off_c, 10, 52, 64
11, 1145280, Note_on_c, 10, 52, 58
11, 1145472, Note_off_c, 10, 52, 64
11, 1145520, Note_on_c, 10, 52, 59
11, 1145712, Note_off_c, 10, 52, 64
11, 1145760, Note_on_c, 10, 52, 60
11, 1145952, Note_off_c, 10, 52, 64
11, 1146000, Note_on_c, 10, 52, 62
11, 1146192, Note_off_c, 10, 52, 64
11, 1146240, Note_on_c, 10, 52, 63
11, 1146432, Note_off_c, 10, 52, 64
11, 1146480, Note_on_c, 10, 52, 65
11, 1146672, Note_off_c, 10, 52, 64
11, 1146720, Note_on_c, 10, 53, 86
11, 1146912, Note_off_c, 10, 53, 64
11, 1146960, Note_on_c, 10, 53, 67
11, 1147152, Note_off_c, 10, 53, 64
11, 1147200, Note_on_c, 10, 53, 69
11, 1147392, Note_off_c, 10, 53, 64
11, 1147440, Note_on_c, 10, 53, 70
11, 1147632, Note_off_c, 10, 53, 64
11, 1147680, Note_on_c, 10, 53, 72
11, 1147872, Note_off_c, 10, 53, 64
11, 1147920, Note_on_c, 10, 53, 73
11, 1148112, Note_off_c, 10, 53, 64
11, 1148160, Note_on_c, 10, 53, 75
11, 1148352, Note_off_c, 10, 53, 64
11, 1148400, Note_on_c, 10, 53, 76
11, 1148592, Note_off_c, 10, 53, 64
11, 1148640, Note_on_c, 10, 55, 97
11, 1148832, Note_off_c, 10, 55, 64
11, 1148880, Note_on_c, 10, 55, 79
11, 1149072, Note_off_c, 10, 55, 64
11, 1149120, Note_on_c, 10, 55, 80
11, 1149312, Note_off_c, 10, 55, 64
11, 1149360, Note_on_c, 10, 55, 82
11, 1149552, Note_off_c, 10, 55, 64
11, 1149600, Note_on_c, 10, 55, 83
11, 1149792, Note_off_c, 10, 55, 64
11, 1149840, Note_on_c, 10, 55, 84
11, 1150032, Note_off_c, 10, 55, 64
11, 1150080, Note_on_c, 10, 55, 86
11, 1150272, Note_off_c, 10, 55, 64
11, 1150320, Note_on_c, 10, 55, 87
11, 1150512, Note_off_c, 10, 55, 64
11, 1150560, Note_on_c, 10, 57, 109
11, 1150752, Note_off_c, 10, 57, 64
11, 1150800, Note_on_c, 10, 57, 90
11, 1150992, Note_off_c, 10, 57, 64
11, 1151040, Note_on_c, 10, 57, 92
11, 1151232, Note_off_c, 10, 57, 64
11, 1151280, Note_on_c, 10, 57, 93
11, 1151472, Note_off_c, 10, 57, 64
11, 1151520, Note_on_c, 10, 57, 94
11, 1151712, Note_off_c, 10, 57, 64
11, 1151760, Note_on_c, 10, 57, 96
11, 1151952, Note_off_c, 10, 57, 64
11, 1152000, Note_on_c, 10, 57, 97
11, 1152192, Note_off_c, 10, 57, 64
11, 1152240, Note_on_c, 10, 57, 99
11, 1152432, Note_off_c, 10, 57, 64
11, 1152480, Note_on_c, 10, 58, 89
11, 1152672, Note_off_c, 10, 58, 64
11, 1152720, Note_on_c, 10, 54, 89
11, 1152912, Note_off_c, 10, 54, 64
11, 1152960, Note_on_c, 10, 54, 89
11, 1153152, Note_off_c, 10, 54, 64
11, 1153200, Note_on_c, 10, 54, 89
11, 1153392, Note_off_c, 10, 54, 64
11, 1153440, Note_on_c, 10, 54, 89
11, 1153632, Note_off_c, 10, 54, 64
11, 1153680, Note_on_c, 10, 54, 89
11, 1153872, Note_off_c, 10, 54, 64
11, 1153920, Note_on_c, 10, 54, 89
11, 1154112, Note_off_c, 10, 54, 64
11, 1154160, Note_on_c, 10, 54, 89
11, 1154352, Note_off_c, 10, 54, 64
11, 1154400, Note_on_c, 10, 54, 89
11, 1154592, Note_off_c, 10, 54, 64
11, 1154640, Note_on_c, 10, 54, 89
11, 1154832, Note_off_c, 10, 54, 64
11, 1154880, Note_on_c, 10, 54, 89
11, 1155072, Note_off_c, 10, 54, 64
11, 1155120, Note_on_c, 10, 54, 89
11, 1155312, Note_off_c, 10, 54, 64
11, 1155360, Note_on_c, 10, 54, 89
11, 1155552, Note_off_c, 10, 54, 64
11, 1155600, Note_on_c, 10, 54, 89
11, 1155792, Note_off_c, 10, 54, 64
11, 1155840, Note_on_c, 10, 54, 89
11, 1156032, Note_off_c, 10, 54, 64
11, 1156080, Note_on_c, 10, 54, 89
11, 1156272, Note_off_c, 10, 54, 64
11, 1156320, Note_on_c, 10, 53, 89
11, 1156512, Note_off_c, 10, 53, 64
11, 1156560, Note_on_c, 10, 53, 89
11, 1156752, Note_off_c, 10, 53, 64
11, 1156800, Note_on_c, 10, 53, 89
11, 1156992, Note_off_c, 10, 53, 64
11, 1157040, Note_on_c, 10, 53, 89
11, 1157232, Note_off_c, 10, 53, 64
11, 1157280, Note_on_c, 10, 53, 89
11, 1157472, Note_off_c, 10, 53, 64
11, 1157520, Note_on_c, 10, 53, 89
11, 1157712, Note_off_c, 10, 53, 64
11, 1157760, Note_on_c, 10, 53, 89
11, 1157952, Note_off_c, 10, 53, 64
11, 1158000, Note_on_c, 10, 53, 89
11, 1158192, Note_off_c, 10, 53, 64
11, 1158240, Note_on_c, 10, 51, 89
11, 1158432, Note_off_c, 10, 51, 64
11, 1158480, Note_on_c, 10, 51, 89
11, 1158672, Note_off_c, 10, 51, 64
11, 1158720, Note_on_c, 10, 51, 89
11, 1158912, Note_off_c, 10, 51, 64
11, 1158960, Note_on_c, 10, 51, 89
11, 1159152, Note_off_c, 10, 51, 64
11, 1159200, Note_on_c, 10, 51, 89
11, 1159392, Note_off_c, 10, 51, 64
11, 1159440, Note_on_c, 10, 51, 89
11, 1159632, Note_off_c, 10, 51, 64
11, 1159680, Note_on_c, 10, 51, 89
11, 1159872, Note_off_c, 10, 51, 64
11, 1159920, Note_on_c, 10, 51, 89
11, 1160112, Note_off_c, 10, 51, 64
11, 1160160, Note_on_c, 10, 62, 127
11, 1160160, Note_on_c, 10, 58, 127
11, 1160352, Note_off_c, 10, 58, 64
11, 1160352, Note_off_c, 10, 62, 64
11, 1160400, Note_on_c, 10, 62, 127
11, 1160400, Note_on_c, 10, 65, 127
11, 1160592, Note_off_c, 10, 65, 64
11, 1160592, Note_off_c, 10, 62, 64
11, 1160640, Note_on_c, 10, 65, 127
11, 1160640, Note_on_c, 10, 62, 127
11, 1160832, Note_off_c, 10, 62, 64
11, 1160832, Note_off_c, 10, 65, 64
11, 1160880, Note_on_c, 10, 65, 112
11, 1160880, Note_on_c, 10, 62, 112
11, 1161072, Note_off_c, 10, 62, 64
11, 1161072, Note_off_c, 10, 65, 64
11, 1161120, Note_on_c, 10, 58, 112
11, 1161120, Note_on_c, 10, 62, 112
11, 1161312, Note_off_c, 10, 62, 64
11, 1161312, Note_off_c, 10, 58, 64
11, 1161360, Note_on_c, 10, 65, 112
11, 1161360, Note_on_c, 10, 62, 112
11, 1161552, Note_off_c, 10, 62, 64
11, 1161552, Note_off_c, 10, 65, 64
11, 1161600, Note_on_c, 10, 65, 112
11, 1161600, Note_on_c, 10, 62, 112
11, 1161792, Note_off_c, 10, 62, 64
11, 1161792, Note_off_c, 10, 65, 64
11, 1161840, Note_on_c, 10, 62, 112
11, 1161840, Note_on_c, 10, 65, 112
11, 1162032, Note_off_c, 10, 65, 64
11, 1162032, Note_off_c, 10, 62, 64
11, 1162080, Note_on_c, 10, 58, 112
11, 1162080, Note_on_c, 10, 62, 112
11, 1162272, Note_off_c, 10, 62, 64
11, 1162272, Note_off_c, 10, 58, 64
11, 1162320, Note_on_c, 10, 65, 112
11, 1162320, Note_on_c, 10, 62, 112
11, 1162512, Note_off_c, 10, 62, 64
11, 1162512, Note_off_c, 10, 65, 64
11, 1162560, Note_on_c, 10, 65, 112
11, 1162560, Note_on_c, 10, 62, 112
11, 1162752, Note_off_c, 10, 62, 64
11, 1162752, Note_off_c, 10, 65, 64
11, 1162800, Note_on_c, 10, 62, 112
11, 1162800, Note_on_c, 10, 65, 112
11, 1162992, Note_off_c, 10, 65, 64
11, 1162992, Note_off_c, 10, 62, 64
11, 1163040, Note_on_c, 10, 58, 112
11, 1163040, Note_on_c, 10, 62, 112
11, 1163232, Note_off_c, 10, 62, 64
11, 1163232, Note_off_c, 10, 58, 64
11, 1163280, Note_on_c, 10, 62, 112
11, 1163280, Note_on_c, 10, 65, 112
11, 1163472, Note_off_c, 10, 65, 64
11, 1163472, Note_off_c, 10, 62, 64
11, 1163520, Note_on_c, 10, 65, 112
11, 1163520, Note_on_c, 10, 62, 112
11, 1163712, Note_off_c, 10, 62, 64
11, 1163712, Note_off_c, 10, 65, 64
11, 1163760, Note_on_c, 10, 65, 112
11, 1163760, Note_on_c, 10, 62, 112
11, 1163952, Note_off_c, 10, 62, 64
11, 1163952, Note_off_c, 10, 65, 64
11, 1164000, Note_on_c, 10, 58, 112
11, 1164000, Note_on_c, 10, 62, 112
11, 1164192, Note_off_c, 10, 62, 64
11, 1164192, Note_off_c, 10, 58, 64
11, 1164240, Note_on_c, 10, 65, 112
11, 1164240, Note_on_c, 10, 62, 112
11, 1164432, Note_off_c, 10, 62, 64
11, 1164432, Note_off_c, 10, 65, 64
11, 1164480, Note_on_c, 10, 65, 112
11, 1164480, Note_on_c, 10, 62, 112
11, 1164672, Note_off_c, 10, 62, 64
11, 1164672, Note_off_c, 10, 65, 64
11, 1164720, Note_on_c, 10, 62, 112
11, 1164720, Note_on_c, 10, 65, 112
11, 1164912, Note_off_c, 10, 65, 64
11, 1164912, Note_off_c, 10, 62, 64
11, 1164960, Note_on_c, 10, 58, 112
11, 1164960, Note_on_c, 10, 62, 112
11, 1165152, Note_off_c, 10, 62, 64
11, 1165152, Note_off_c, 10, 58, 64
11, 1165200, Note_on_c, 10, 62, 112
11, 1165200, Note_on_c, 10, 65, 112
11, 1165392, Note_off_c, 10, 65, 64
11, 1165392, Note_off_c, 10, 62, 64
11, 1165440, Note_on_c, 10, 65, 112
11, 1165440, Note_on_c, 10, 62, 112
11, 1165632, Note_off_c, 10, 62, 64
11, 1165632, Note_off_c, 10, 65, 64
11, 1165680, Note_on_c, 10, 65, 112
11, 1165680, Note_on_c, 10, 62, 112
11, 1165872, Note_off_c, 10, 62, 64
11, 1165872, Note_off_c, 10, 65, 64
11, 1165920, Note_on_c, 10, 58, 112
11, 1165920, Note_on_c, 10, 62, 112
11, 1166112, Note_off_c, 10, 62, 64
11, 1166112, Note_off_c, 10, 58, 64
11, 1166160, Note_on_c, 10, 58, 112
11, 1166160, Note_on_c, 10, 62, 112
11, 1166352, Note_off_c, 10, 62, 64
11, 1166352, Note_off_c, 10, 58, 64
11, 1166400, Note_on_c, 10, 65, 112
11, 1166400, Note_on_c, 10, 62, 112
11, 1166592, Note_off_c, 10, 62, 64
11, 1166592, Note_off_c, 10, 65, 64
11, 1166640, Note_on_c, 10, 62, 112
11, 1166640, Note_on_c, 10, 65, 112
11, 1166832, Note_off_c, 10, 65, 64
11, 1166832, Note_off_c, 10, 62, 64
11, 1166880, Note_on_c, 10, 57, 112
11, 1166880, Note_on_c, 10, 60, 112
11, 1167072, Note_off_c, 10, 60, 64
11, 1167072, Note_off_c, 10, 57, 64
11, 1167120, Note_on_c, 10, 60, 112
11, 1167120, Note_on_c, 10, 57, 112
11, 1167312, Note_off_c, 10, 57, 64
11, 1167312, Note_off_c, 10, 60, 64
11, 1167360, Note_on_c, 10, 60, 112
11, 1167360, Note_on_c, 10, 63, 112
11, 1167552, Note_off_c, 10, 63, 64
11, 1167552, Note_off_c, 10, 60, 64
11, 1167600, Note_on_c, 10, 63, 112
11, 1167600, Note_on_c, 10, 60, 112
11, 1167792, Note_off_c, 10, 60, 64
11, 1167792, Note_off_c, 10, 63, 64
11, 1167840, Note_on_c, 10, 58, 112
11, 1167840, Note_on_c, 10, 62, 112
11, 1168032, Note_off_c, 10, 62, 64
11, 1168032, Note_off_c, 10, 58, 64
11, 1168080, Note_on_c, 10, 62, 112
11, 1168080, Note_on_c, 10, 65, 112
11, 1168272, Note_off_c, 10, 65, 64
11, 1168272, Note_off_c, 10, 62, 64
11, 1168320, Note_on_c, 10, 62, 112
11, 1168320, Note_on_c, 10, 65, 112
11, 1168512, Note_off_c, 10, 65, 64
11, 1168512, Note_off_c, 10, 62, 64
11, 1168560, Note_on_c, 10, 65, 112
11, 1168560, Note_on_c, 10, 62, 112
11, 1168752, Note_off_c, 10, 62, 64
11, 1168752, Note_off_c, 10, 65, 64
11, 1168800, Note_on_c, 10, 58, 112
11, 1168800, Note_on_c, 10, 62, 112
11, 1168992, Note_off_c, 10, 62, 64
11, 1168992, Note_off_c, 10, 58, 64
11, 1169040, Note_on_c, 10, 65, 112
11, 1169040, Note_on_c, 10, 62, 112
11, 1169232, Note_off_c, 10, 62, 64
11, 1169232, Note_off_c, 10, 65, 64
11, 1169280, Note_on_c, 10, 65, 112
11, 1169280, Note_on_c, 10, 62, 112
11, 1169472, Note_off_c, 10, 62, 64
11, 1169472, Note_off_c, 10, 65, 64
11, 1169520, Note_on_c, 10, 65, 112
11, 1169520, Note_on_c, 10, 62, 112
11, 1169712, Note_off_c, 10, 62, 64
11, 1169712, Note_off_c, 10, 65, 64
11, 1169760, Note_on_c, 10, 58, 112
11, 1169760, Note_on_c, 10, 62, 112
11, 1169952, Note_off_c, 10, 62, 64
11, 1169952, Note_off_c, 10, 58, 64
11, 1170000, Note_on_c, 10, 65, 112
11, 1170000, Note_on_c, 10, 62, 112
11, 1170192, Note_off_c, 10, 62, 64
11, 1170192, Note_off_c, 10, 65, 64
11, 1170240, Note_on_c, 10, 65, 112
11, 1170240, Note_on_c, 10, 62, 112
11, 1170432, Note_off_c, 10, 62, 64
11, 1170432, Note_off_c, 10, 65, 64
11, 1170480, Note_on_c, 10, 62, 112
11, 1170480, Note_on_c, 10, 65, 112
11, 1170672, Note_off_c, 10, 65, 64
11, 1170672, Note_off_c, 10, 62, 64
11, 1170720, Note_on_c, 10, 58, 112
11, 1170720, Note_on_c, 10, 62, 112
11, 1170912, Note_off_c, 10, 62, 64
11, 1170912, Note_off_c, 10, 58, 64
11, 1170960, Note_on_c, 10, 65, 112
11, 1170960, Note_on_c, 10, 62, 112
11, 1171152, Note_off_c, 10, 62, 64
11, 1171152, Note_off_c, 10, 65, 64
11, 1171200, Note_on_c, 10, 65, 112
11, 1171200, Note_on_c, 10, 62, 112
11, 1171392, Note_off_c, 10, 62, 64
11, 1171392, Note_off_c, 10, 65, 64
11, 1171440, Note_on_c, 10, 65, 112
11, 1171440, Note_on_c, 10, 62, 112
11, 1171632, Note_off_c, 10, 62, 64
11, 1171632, Note_off_c, 10, 65, 64
11, 1171680, Note_on_c, 10, 58, 112
11, 1171680, Note_on_c, 10, 62, 112
11, 1171872, Note_off_c, 10, 62, 64
11, 1171872, Note_off_c, 10, 58, 64
11, 1171920, Note_on_c, 10, 65, 112
11, 1171920, Note_on_c, 10, 62, 112
11, 1172112, Note_off_c, 10, 62, 64
11, 1172112, Note_off_c, 10, 65, 64
11, 1172160, Note_on_c, 10, 65, 112
11, 1172160, Note_on_c, 10, 62, 112
11, 1172352, Note_off_c, 10, 62, 64
11, 1172352, Note_off_c, 10, 65, 64
11, 1172400, Note_on_c, 10, 62, 112
11, 1172400, Note_on_c, 10, 65, 112
11, 1172592, Note_off_c, 10, 65, 64
11, 1172592, Note_off_c, 10, 62, 64
11, 1172640, Note_on_c, 10, 58, 112
11, 1172640, Note_on_c, 10, 62, 112
11, 1172832, Note_off_c, 10, 62, 64
11, 1172832, Note_off_c, 10, 58, 64
11, 1172880, Note_on_c, 10, 65, 112
11, 1172880, Note_on_c, 10, 62, 112
11, 1173072, Note_off_c, 10, 62, 64
11, 1173072, Note_off_c, 10, 65, 64
11, 1173120, Note_on_c, 10, 65, 112
11, 1173120, Note_on_c, 10, 62, 112
11, 1173312, Note_off_c, 10, 62, 64
11, 1173312, Note_off_c, 10, 65, 64
11, 1173360, Note_on_c, 10, 65, 112
11, 1173360, Note_on_c, 10, 62, 112
11, 1173552, Note_off_c, 10, 62, 64
11, 1173552, Note_off_c, 10, 65, 64
11, 1173600, Note_on_c, 10, 58, 112
11, 1173600, Note_on_c, 10, 62, 112
11, 1173792, Note_off_c, 10, 62, 64
11, 1173792, Note_off_c, 10, 58, 64
11, 1173840, Note_on_c, 10, 62, 112
11, 1173840, Note_on_c, 10, 58, 112
11, 1174032, Note_off_c, 10, 58, 64
11, 1174032, Note_off_c, 10, 62, 64
11, 1174080, Note_on_c, 10, 65, 112
11, 1174080, Note_on_c, 10, 62, 112
11, 1174272, Note_off_c, 10, 62, 64
11, 1174272, Note_off_c, 10, 65, 64
11, 1174320, Note_on_c, 10, 62, 112
11, 1174320, Note_on_c, 10, 65, 112
11, 1174512, Note_off_c, 10, 65, 64
11, 1174512, Note_off_c, 10, 62, 64
11, 1174560, Note_on_c, 10, 57, 112
11, 1174560, Note_on_c, 10, 60, 112
11, 1174752, Note_off_c, 10, 60, 64
11, 1174752, Note_off_c, 10, 57, 64
11, 1174800, Note_on_c, 10, 57, 112
11, 1174800, Note_on_c, 10, 60, 112
11, 1174992, Note_off_c, 10, 60, 64
11, 1174992, Note_off_c, 10, 57, 64
11, 1175040, Note_on_c, 10, 60, 112
11, 1175040, Note_on_c, 10, 63, 112
11, 1175232, Note_off_c, 10, 63, 64
11, 1175232, Note_off_c, 10, 60, 64
11, 1175280, Note_on_c, 10, 60, 112
11, 1175280, Note_on_c, 10, 63, 112
11, 1175472, Note_off_c, 10, 63, 64
11, 1175472, Note_off_c, 10, 60, 64
11, 1175520, Note_on_c, 10, 58, 112
11, 1175520, Note_on_c, 10, 62, 112
11, 1175712, Note_off_c, 10, 62, 64
11, 1175712, Note_off_c, 10, 58, 64
11, 1175760, Note_on_c, 10, 65, 112
11, 1175760, Note_on_c, 10, 62, 112
11, 1175952, Note_off_c, 10, 62, 64
11, 1175952, Note_off_c, 10, 65, 64
11, 1176000, Note_on_c, 10, 62, 112
11, 1176000, Note_on_c, 10, 65, 112
11, 1176192, Note_off_c, 10, 65, 64
11, 1176192, Note_off_c, 10, 62, 64
11, 1176240, Note_on_c, 10, 62, 112
11, 1176240, Note_on_c, 10, 65, 112
11, 1176432, Note_off_c, 10, 65, 64
11, 1176432, Note_off_c, 10, 62, 64
11, 1176480, Note_on_c, 10, 58, 112
11, 1176480, Note_on_c, 10, 62, 112
11, 1176672, Note_off_c, 10, 62, 64
11, 1176672, Note_off_c, 10, 58, 64
11, 1176720, Note_on_c, 10, 65, 112
11, 1176720, Note_on_c, 10, 62, 112
11, 1176912, Note_off_c, 10, 62, 64
11, 1176912, Note_off_c, 10, 65, 64
11, 1176960, Note_on_c, 10, 65, 112
11, 1176960, Note_on_c, 10, 62, 112
11, 1177152, Note_off_c, 10, 62, 64
11, 1177152, Note_off_c, 10, 65, 64
11, 1177200, Note_on_c, 10, 62, 112
11, 1177200, Note_on_c, 10, 65, 112
11, 1177392, Note_off_c, 10, 65, 64
11, 1177392, Note_off_c, 10, 62, 64
11, 1177440, Note_on_c, 10, 62, 112
11, 1177440, Note_on_c, 10, 58, 112
11, 1177632, Note_off_c, 10, 58, 64
11, 1177632, Note_off_c, 10, 62, 64
11, 1177680, Note_on_c, 10, 62, 112
11, 1177680, Note_on_c, 10, 58, 112
11, 1177872, Note_off_c, 10, 58, 64
11, 1177872, Note_off_c, 10, 62, 64
11, 1177920, Note_on_c, 10, 62, 112
11, 1177920, Note_on_c, 10, 65, 112
11, 1178112, Note_off_c, 10, 65, 64
11, 1178112, Note_off_c, 10, 62, 64
11, 1178160, Note_on_c, 10, 62, 112
11, 1178160, Note_on_c, 10, 65, 112
11, 1178352, Note_off_c, 10, 65, 64
11, 1178352, Note_off_c, 10, 62, 64
11, 1178400, Note_on_c, 10, 60, 112
11, 1178400, Note_on_c, 10, 57, 112
11, 1178592, Note_off_c, 10, 57, 64
11, 1178592, Note_off_c, 10, 60, 64
11, 1178640, Note_on_c, 10, 60, 112
11, 1178640, Note_on_c, 10, 57, 112
11, 1178832, Note_off_c, 10, 57, 64
11, 1178832, Note_off_c, 10, 60, 64
11, 1178880, Note_on_c, 10, 60, 112
11, 1178880, Note_on_c, 10, 63, 112
11, 1179072, Note_off_c, 10, 63, 64
11, 1179072, Note_off_c, 10, 60, 64
11, 1179120, Note_on_c, 10, 60, 112
11, 1179120, Note_on_c, 10, 63, 112
11, 1179312, Note_off_c, 10, 63, 64
11, 1179312, Note_off_c, 10, 60, 64
11, 1179360, Note_on_c, 10, 63, 112
11, 1179360, Note_on_c, 10, 60, 112
11, 1182946, Note_off_c, 10, 60, 64
11, 1182946, Note_off_c, 10, 63, 64
11, 1183080, Note_on_c, 10, 60, 112
11, 1183080, Note_on_c, 10, 63, 112
11, 1183194, Note_off_c, 10, 63, 64
11, 1183194, Note_off_c, 10, 60, 64
11, 1183200, Note_on_c, 10, 63, 112
11, 1183200, Note_on_c, 10, 60, 112
11, 1183392, Note_off_c, 10, 60, 64
11, 1183392, Note_off_c, 10, 63, 64
11, 1185120, Note_on_c, 10, 60, 112
11, 1185120, Note_on_c, 10, 63, 112
11, 1185312, Note_off_c, 10, 63, 64
11, 1185312, Note_off_c, 10, 60, 64
11, 1187040, Note_on_c, 10, 60, 112
11, 1187040, Note_on_c, 10, 63, 112
11, 1187232, Note_off_c, 10, 63, 64
11, 1187232, Note_off_c, 10, 60, 64
11, 1188000, Note_on_c, 10, 63, 112
11, 1188000, Note_on_c, 10, 60, 112
11, 1188192, Note_off_c, 10, 60, 64
11, 1188192, Note_off_c, 10, 63, 64
11, 1188960, Note_on_c, 10, 60, 112
11, 1188960, Note_on_c, 10, 63, 112
11, 1189152, Note_off_c, 10, 63, 64
11, 1189152, Note_off_c, 10, 60, 64
11, 1189920, Note_on_c, 10, 63, 112
11, 1189920, Note_on_c, 10, 60, 112
11, 1190112, Note_off_c, 10, 60, 64
11, 1190112, Note_off_c, 10, 63, 64
11, 1190880, Note_on_c, 10, 58, 112
11, 1190880, Note_on_c, 10, 62, 112
11, 1191106, Note_off_c, 10, 62, 64
11, 1191106, Note_off_c, 10, 58, 64
11, 1191120, Note_on_c, 10, 62, 56
11, 1191120, Note_on_c, 10, 58, 56
11, 1191346, Note_off_c, 10, 58, 64
11, 1191346, Note_off_c, 10, 62, 64
11, 1191360, Note_on_c, 10, 62, 56
11, 1191360, Note_on_c, 10, 58, 56
11, 1191586, Note_off_c, 10, 58, 64
11, 1191586, Note_off_c, 10, 62, 64
11, 1191600, Note_on_c, 10, 58, 56
11, 1191600, Note_on_c, 10, 62, 56
11, 1191826, Note_off_c, 10, 62, 64
11, 1191826, Note_off_c, 10, 58, 64
11, 1191840, Note_on_c, 10, 62, 56
11, 1191840, Note_on_c, 10, 58, 56
11, 1192066, Note_off_c, 10, 58, 64
11, 1192066, Note_off_c, 10, 62, 64
11, 1192080, Note_on_c, 10, 62, 56
11, 1192080, Note_on_c, 10, 58, 56
11, 1192306, Note_off_c, 10, 58, 64
11, 1192306, Note_off_c, 10, 62, 64
11, 1192320, Note_on_c, 10, 58, 56
11, 1192320, Note_on_c, 10, 62, 56
11, 1192546, Note_off_c, 10, 62, 64
11, 1192546, Note_off_c, 10, 58, 64
11, 1192560, Note_on_c, 10, 58, 56
11, 1192560, Note_on_c, 10, 62, 56
11, 1192786, Note_off_c, 10, 62, 64
11, 1192786, Note_off_c, 10, 58, 64
11, 1192800, Note_on_c, 10, 58, 56
11, 1192800, Note_on_c, 10, 62, 56
11, 1193026, Note_off_c, 10, 62, 64
11, 1193026, Note_off_c, 10, 58, 64
11, 1193040, Note_on_c, 10, 58, 56
11, 1193040, Note_on_c, 10, 62, 56
11, 1193266, Note_off_c, 10, 62, 64
11, 1193266, Note_off_c, 10, 58, 64
11, 1193280, Note_on_c, 10, 62, 56
11, 1193280, Note_on_c, 10, 58, 56
11, 1193506, Note_off_c, 10, 58, 64
11, 1193506, Note_off_c, 10, 62, 64
11, 1193520, Note_on_c, 10, 62, 56
11, 1193520, Note_on_c, 10, 58, 56
11, 1193746, Note_off_c, 10, 58, 64
11, 1193746, Note_off_c, 10, 62, 64
11, 1193760, Note_on_c, 10, 58, 56
11, 1193760, Note_on_c, 10, 62, 56
11, 1193986, Note_off_c, 10, 62, 64
11, 1193986, Note_off_c, 10, 58, 64
11, 1194000, Note_on_c, 10, 58, 56
11, 1194000, Note_on_c, 10, 62, 56
11, 1194226, Note_off_c, 10, 62, 64
11, 1194226, Note_off_c, 10, 58, 64
11, 1194240, Note_on_c, 10, 58, 56
11, 1194240, Note_on_c, 10, 62, 56
11, 1194466, Note_off_c, 10, 62, 64
11, 1194466, Note_off_c, 10, 58, 64
11, 1194480, Note_on_c, 10, 62, 56
11, 1194480, Note_on_c, 10, 58, 56
11, 1194706, Note_off_c, 10, 58, 64
11, 1194706, Note_off_c, 10, 62, 64
11, 1194720, Note_on_c, 10, 62, 56
11, 1194720, Note_on_c, 10, 58, 56
11, 1194946, Note_off_c, 10, 58, 64
11, 1194946, Note_off_c, 10, 62, 64
11, 1194960, Note_on_c, 10, 58, 56
11, 1194960, Note_on_c, 10, 62, 56
11, 1195186, Note_off_c, 10, 62, 64
11, 1195186, Note_off_c, 10, 58, 64
11, 1195200, Note_on_c, 10, 62, 56
11, 1195200, Note_on_c, 10, 58, 56
11, 1195426, Note_off_c, 10, 58, 64
11, 1195426, Note_off_c, 10, 62, 64
11, 1195440, Note_on_c, 10, 62, 56
11, 1195440, Note_on_c, 10, 58, 56
11, 1195666, Note_off_c, 10, 58, 64
11, 1195666, Note_off_c, 10, 62, 64
11, 1195680, Note_on_c, 10, 58, 56
11, 1195680, Note_on_c, 10, 62, 56
11, 1195906, Note_off_c, 10, 62, 64
11, 1195906, Note_off_c, 10, 58, 64
11, 1195920, Note_on_c, 10, 58, 56
11, 1195920, Note_on_c, 10, 62, 56
11, 1196146, Note_off_c, 10, 62, 64
11, 1196146, Note_off_c, 10, 58, 64
11, 1196160, Note_on_c, 10, 58, 56
11, 1196160, Note_on_c, 10, 62, 56
11, 1196386, Note_off_c, 10, 62, 64
11, 1196386, Note_off_c, 10, 58, 64
11, 1196400, Note_on_c, 10, 62, 56
11, 1196400, Note_on_c, 10, 58, 56
11, 1196626, Note_off_c, 10, 58, 64
11, 1196626, Note_off_c, 10, 62, 64
11, 1196640, Note_on_c, 10, 58, 56
11, 1196640, Note_on_c, 10, 62, 56
11, 1196866, Note_off_c, 10, 62, 64
11, 1196866, Note_off_c, 10, 58, 64
11, 1196880, Note_on_c, 10, 62, 56
11, 1196880, Note_on_c, 10, 58, 56
11, 1197106, Note_off_c, 10, 58, 64
11, 1197106, Note_off_c, 10, 62, 64
11, 1197120, Note_on_c, 10, 62, 56
11, 1197120, Note_on_c, 10, 58, 56
11, 1197346, Note_off_c, 10, 58, 64
11, 1197346, Note_off_c, 10, 62, 64
11, 1197360, Note_on_c, 10, 62, 56
11, 1197360, Note_on_c, 10, 58, 56
11, 1197586, Note_off_c, 10, 58, 64
11, 1197586, Note_off_c, 10, 62, 64
11, 1197600, Note_on_c, 10, 62, 56
11, 1197600, Note_on_c, 10, 58, 56
11, 1197826, Note_off_c, 10, 58, 64
11, 1197826, Note_off_c, 10, 62, 64
11, 1197840, Note_on_c, 10, 58, 56
11, 1197840, Note_on_c, 10, 62, 56
11, 1198066, Note_off_c, 10, 62, 64
11, 1198066, Note_off_c, 10, 58, 64
11, 1198080, Note_on_c, 10, 62, 56
11, 1198080, Note_on_c, 10, 58, 56
11, 1198306, Note_off_c, 10, 58, 64
11, 1198306, Note_off_c, 10, 62, 64
11, 1198320, Note_on_c, 10, 62, 56
11, 1198320, Note_on_c, 10, 58, 56
11, 1198546, Note_off_c, 10, 58, 64
11, 1198546, Note_off_c, 10, 62, 64
11, 1198560, Note_on_c, 10, 58, 56
11, 1198560, Note_on_c, 10, 62, 56
11, 1198786, Note_off_c, 10, 62, 64
11, 1198786, Note_off_c, 10, 58, 64
11, 1198800, Note_on_c, 10, 62, 56
11, 1198800, Note_on_c, 10, 58, 56
11, 1199026, Note_off_c, 10, 58, 64
11, 1199026, Note_off_c, 10, 62, 64
11, 1199040, Note_on_c, 10, 58, 56
11, 1199040, Note_on_c, 10, 62, 56
11, 1199266, Note_off_c, 10, 62, 64
11, 1199266, Note_off_c, 10, 58, 64
11, 1199280, Note_on_c, 10, 58, 56
11, 1199280, Note_on_c, 10, 62, 56
11, 1199506, Note_off_c, 10, 62, 64
11, 1199506, Note_off_c, 10, 58, 64
11, 1199520, Note_on_c, 10, 58, 56
11, 1199520, Note_on_c, 10, 62, 56
11, 1199746, Note_off_c, 10, 62, 64
11, 1199746, Note_off_c, 10, 58, 64
11, 1199760, Note_on_c, 10, 62, 56
11, 1199760, Note_on_c, 10, 58, 56
11, 1199986, Note_off_c, 10, 58, 64
11, 1199986, Note_off_c, 10, 62, 64
11, 1200000, Note_on_c, 10, 62, 56
11, 1200000, Note_on_c, 10, 58, 56
11, 1200226, Note_off_c, 10, 58, 64
11, 1200226, Note_off_c, 10, 62, 64
11, 1200240, Note_on_c, 10, 58, 56
11, 1200240, Note_on_c, 10, 62, 56
11, 1200466, Note_off_c, 10, 62, 64
11, 1200466, Note_off_c, 10, 58, 64
11, 1200480, Note_on_c, 10, 58, 56
11, 1200480, Note_on_c, 10, 62, 56
11, 1200706, Note_off_c, 10, 62, 64
11, 1200706, Note_off_c, 10, 58, 64
11, 1200720, Note_on_c, 10, 62, 56
11, 1200720, Note_on_c, 10, 58, 56
11, 1200946, Note_off_c, 10, 58, 64
11, 1200946, Note_off_c, 10, 62, 64
11, 1200960, Note_on_c, 10, 58, 56
11, 1200960, Note_on_c, 10, 62, 56
11, 1201186, Note_off_c, 10, 62, 64
11, 1201186, Note_off_c, 10, 58, 64
11, 1201200, Note_on_c, 10, 58, 56
11, 1201200, Note_on_c, 10, 62, 56
11, 1201426, Note_off_c, 10, 62, 64
11, 1201426, Note_off_c, 10, 58, 64
11, 1201440, Note_on_c, 10, 58, 56
11, 1201440, Note_on_c, 10, 62, 56
11, 1201666, Note_off_c, 10, 62, 64
11, 1201666, Note_off_c, 10, 58, 64
11, 1201680, Note_on_c, 10, 62, 56
11, 1201680, Note_on_c, 10, 58, 56
11, 1201906, Note_off_c, 10, 58, 64
11, 1201906, Note_off_c, 10, 62, 64
11, 1201920, Note_on_c, 10, 62, 56
11, 1201920, Note_on_c, 10, 58, 56
11, 1202146, Note_off_c, 10, 58, 64
11, 1202146, Note_off_c, 10, 62, 64
11, 1202160, Note_on_c, 10, 58, 56
11, 1202160, Note_on_c, 10, 62, 56
11, 1202386, Note_off_c, 10, 62, 64
11, 1202386, Note_off_c, 10, 58, 64
11, 1202400, Note_on_c, 10, 58, 56
11, 1202400, Note_on_c, 10, 62, 56
11, 1202626, Note_off_c, 10, 62, 64
11, 1202626, Note_off_c, 10, 58, 64
11, 1202640, Note_on_c, 10, 62, 56
11, 1202640, Note_on_c, 10, 58, 56
11, 1202866, Note_off_c, 10, 58, 64
11, 1202866, Note_off_c, 10, 62, 64
11, 1202880, Note_on_c, 10, 58, 56
11, 1202880, Note_on_c, 10, 62, 56
11, 1203106, Note_off_c, 10, 62, 64
11, 1203106, Note_off_c, 10, 58, 64
11, 1203120, Note_on_c, 10, 58, 56
11, 1203120, Note_on_c, 10, 62, 56
11, 1203346, Note_off_c, 10, 62, 64
11, 1203346, Note_off_c, 10, 58, 64
11, 1203360, Note_on_c, 10, 58, 56
11, 1203360, Note_on_c, 10, 62, 56
11, 1203586, Note_off_c, 10, 62, 64
11, 1203586, Note_off_c, 10, 58, 64
11, 1203600, Note_on_c, 10, 62, 56
11, 1203600, Note_on_c, 10, 58, 56
11, 1203826, Note_off_c, 10, 58, 64
11, 1203826, Note_off_c, 10, 62, 64
11, 1203840, Note_on_c, 10, 62, 56
11, 1203840, Note_on_c, 10, 58, 56
11, 1204066, Note_off_c, 10, 58, 64
11, 1204066, Note_off_c, 10, 62, 64
11, 1204080, Note_on_c, 10, 58, 56
11, 1204080, Note_on_c, 10, 62, 56
11, 1204306, Note_off_c, 10, 62, 64
11, 1204306, Note_off_c, 10, 58, 64
11, 1204320, Note_on_c, 10, 58, 56
11, 1204320, Note_on_c, 10, 62, 56
11, 1204546, Note_off_c, 10, 62, 64
11, 1204546, Note_off_c, 10, 58, 64
11, 1204560, Note_on_c, 10, 62, 56
11, 1204560, Note_on_c, 10, 58, 56
11, 1204786, Note_off_c, 10, 58, 64
11, 1204786, Note_off_c, 10, 62, 64
11, 1204800, Note_on_c, 10, 58, 56
11, 1204800, Note_on_c, 10, 62, 56
11, 1205026, Note_off_c, 10, 62, 64
11, 1205026, Note_off_c, 10, 58, 64
11, 1205040, Note_on_c, 10, 58, 56
11, 1205040, Note_on_c, 10, 62, 56
11, 1205266, Note_off_c, 10, 62, 64
11, 1205266, Note_off_c, 10, 58, 64
11, 1205280, Note_on_c, 10, 58, 56
11, 1205280, Note_on_c, 10, 62, 56
11, 1205506, Note_off_c, 10, 62, 64
11, 1205506, Note_off_c, 10, 58, 64
11, 1205520, Note_on_c, 10, 62, 56
11, 1205520, Note_on_c, 10, 58, 56
11, 1205746, Note_off_c, 10, 58, 64
11, 1205746, Note_off_c, 10, 62, 64
11, 1205760, Note_on_c, 10, 62, 56
11, 1205760, Note_on_c, 10, 58, 56
11, 1205986, Note_off_c, 10, 58, 64
11, 1205986, Note_off_c, 10, 62, 64
11, 1206000, Note_on_c, 10, 58, 56
11, 1206000, Note_on_c, 10, 62, 56
11, 1206226, Note_off_c, 10, 62, 64
11, 1206226, Note_off_c, 10, 58, 64
11, 1206240, Note_on_c, 10, 62, 39
11, 1206240, Note_on_c, 10, 58, 39
11, 1206466, Note_off_c, 10, 58, 64
11, 1206466, Note_off_c, 10, 62, 64
11, 1206480, Note_on_c, 10, 58, 39
11, 1206480, Note_on_c, 10, 62, 39
11, 1206706, Note_off_c, 10, 62, 64
11, 1206706, Note_off_c, 10, 58, 64
11, 1206720, Note_on_c, 10, 62, 39
11, 1206720, Note_on_c, 10, 58, 39
11, 1206946, Note_off_c, 10, 58, 64
11, 1206946, Note_off_c, 10, 62, 64
11, 1206960, Note_on_c, 10, 58, 39
11, 1206960, Note_on_c, 10, 62, 39
11, 1207186, Note_off_c, 10, 62, 64
11, 1207186, Note_off_c, 10, 58, 64
11, 1207200, Note_on_c, 10, 60, 39
11, 1207200, Note_on_c, 10, 57, 39
11, 1207426, Note_off_c, 10, 57, 64
11, 1207426, Note_off_c, 10, 60, 64
11, 1207440, Note_on_c, 10, 57, 39
11, 1207440, Note_on_c, 10, 60, 39
11, 1207666, Note_off_c, 10, 60, 64
11, 1207666, Note_off_c, 10, 57, 64
11, 1207680, Note_on_c, 10, 55, 39
11, 1207680, Note_on_c, 10, 58, 39
11, 1207906, Note_off_c, 10, 58, 64
11, 1207906, Note_off_c, 10, 55, 64
11, 1207920, Note_on_c, 10, 55, 39
11, 1207920, Note_on_c, 10, 58, 39
11, 1208146, Note_off_c, 10, 58, 64
11, 1208146, Note_off_c, 10, 55, 64
11, 1208160, Note_on_c, 10, 57, 39
11, 1208160, Note_on_c, 10, 53, 39
11, 1208386, Note_off_c, 10, 53, 64
11, 1208386, Note_off_c, 10, 57, 64
11, 1208400, Note_on_c, 10, 53, 39
11, 1208400, Note_on_c, 10, 57, 39
11, 1208626, Note_off_c, 10, 57, 64
11, 1208626, Note_off_c, 10, 53, 64
11, 1208640, Note_on_c, 10, 51, 39
11, 1208640, Note_on_c, 10, 55, 39
11, 1208866, Note_off_c, 10, 55, 64
11, 1208866, Note_off_c, 10, 51, 64
11, 1208880, Note_on_c, 10, 55, 39
11, 1208880, Note_on_c, 10, 51, 39
11, 1209106, Note_off_c, 10, 51, 64
11, 1209106, Note_off_c, 10, 55, 64
11, 1209120, Note_on_c, 10, 50, 39
11, 1209120, Note_on_c, 10, 53, 39
11, 1209346, Note_off_c, 10, 53, 64
11, 1209346, Note_off_c, 10, 50, 64
11, 1209360, Note_on_c, 10, 53, 39
11, 1209360, Note_on_c, 10, 50, 39
11, 1209586, Note_off_c, 10, 50, 64
11, 1209586, Note_off_c, 10, 53, 64
11, 1209600, Note_on_c, 10, 51, 39
11, 1209600, Note_on_c, 10, 55, 39
11, 1209826, Note_off_c, 10, 55, 64
11, 1209826, Note_off_c, 10, 51, 64
11, 1209840, Note_on_c, 10, 51, 39
11, 1209840, Note_on_c, 10, 55, 39
11, 1210066, Note_off_c, 10, 55, 64
11, 1210066, Note_off_c, 10, 51, 64
11, 1210080, Note_on_c, 10, 48, 101
11, 1210080, Note_on_c, 10, 51, 101
11, 1210306, Note_off_c, 10, 51, 64
11, 1210306, Note_off_c, 10, 48, 64
11, 1210320, Note_on_c, 10, 51, 101
11, 1210320, Note_on_c, 10, 48, 101
11, 1210546, Note_off_c, 10, 48, 64
11, 1210546, Note_off_c, 10, 51, 64
11, 1210560, Note_on_c, 10, 51, 101
11, 1210560, Note_on_c, 10, 57, 101
11, 1210786, Note_off_c, 10, 57, 64
11, 1210786, Note_off_c, 10, 51, 64
11, 1210800, Note_on_c, 10, 57, 101
11, 1210800, Note_on_c, 10, 51, 101
11, 1211026, Note_off_c, 10, 51, 64
11, 1211026, Note_off_c, 10, 57, 64
11, 1211040, Note_on_c, 10, 57, 101
11, 1211040, Note_on_c, 10, 60, 101
11, 1211266, Note_off_c, 10, 60, 64
11, 1211266, Note_off_c, 10, 57, 64
11, 1211280, Note_on_c, 10, 60, 101
11, 1211280, Note_on_c, 10, 57, 101
11, 1211506, Note_off_c, 10, 57, 64
11, 1211506, Note_off_c, 10, 60, 64
11, 1211520, Note_on_c, 10, 60, 101
11, 1211520, Note_on_c, 10, 63, 101
11, 1211746, Note_off_c, 10, 63, 64
11, 1211746, Note_off_c, 10, 60, 64
11, 1211760, Note_on_c, 10, 63, 101
11, 1211760, Note_on_c, 10, 60, 101
11, 1211986, Note_off_c, 10, 60, 64
11, 1211986, Note_off_c, 10, 63, 64
11, 1212000, Note_on_c, 10, 51, 101
11, 1212000, Note_on_c, 10, 48, 101
11, 1212226, Note_off_c, 10, 48, 64
11, 1212226, Note_off_c, 10, 51, 64
11, 1212240, Note_on_c, 10, 48, 101
11, 1212240, Note_on_c, 10, 51, 101
11, 1212466, Note_off_c, 10, 51, 64
11, 1212466, Note_off_c, 10, 48, 64
11, 1212480, Note_on_c, 10, 57, 101
11, 1212480, Note_on_c, 10, 51, 101
11, 1212706, Note_off_c, 10, 51, 64
11, 1212706, Note_off_c, 10, 57, 64
11, 1212720, Note_on_c, 10, 51, 101
11, 1212720, Note_on_c, 10, 57, 101
11, 1212946, Note_off_c, 10, 57, 64
11, 1212946, Note_off_c, 10, 51, 64
11, 1212960, Note_on_c, 10, 60, 101
11, 1212960, Note_on_c, 10, 57, 101
11, 1213186, Note_off_c, 10, 57, 64
11, 1213186, Note_off_c, 10, 60, 64
11, 1213200, Note_on_c, 10, 57, 101
11, 1213200, Note_on_c, 10, 60, 101
11, 1213426, Note_off_c, 10, 60, 64
11, 1213426, Note_off_c, 10, 57, 64
11, 1213440, Note_on_c, 10, 60, 101
11, 1213440, Note_on_c, 10, 63, 101
11, 1213666, Note_off_c, 10, 63, 64
11, 1213666, Note_off_c, 10, 60, 64
11, 1213680, Note_on_c, 10, 60, 101
11, 1213680, Note_on_c, 10, 63, 101
11, 1213906, Note_off_c, 10, 63, 64
11, 1213906, Note_off_c, 10, 60, 64
11, 1213920, Note_on_c, 10, 58, 126
11, 1213920, Note_on_c, 10, 62, 126
11, 1214146, Note_off_c, 10, 62, 64
11, 1214146, Note_off_c, 10, 58, 64
11, 1214160, Note_on_c, 10, 62, 70
11, 1214160, Note_on_c, 10, 58, 70
11, 1214386, Note_off_c, 10, 58, 64
11, 1214386, Note_off_c, 10, 62, 64
11, 1214400, Note_on_c, 10, 62, 39
11, 1214400, Note_on_c, 10, 58, 39
11, 1214626, Note_off_c, 10, 58, 64
11, 1214626, Note_off_c, 10, 62, 64
11, 1214640, Note_on_c, 10, 62, 39
11, 1214640, Note_on_c, 10, 58, 39
11, 1214866, Note_off_c, 10, 58, 64
11, 1214866, Note_off_c, 10, 62, 64
11, 1214880, Note_on_c, 10, 60, 39
11, 1214880, Note_on_c, 10, 57, 39
11, 1215106, Note_off_c, 10, 57, 64
11, 1215106, Note_off_c, 10, 60, 64
11, 1215120, Note_on_c, 10, 57, 39
11, 1215120, Note_on_c, 10, 60, 39
11, 1215346, Note_off_c, 10, 60, 64
11, 1215346, Note_off_c, 10, 57, 64
11, 1215360, Note_on_c, 10, 58, 39
11, 1215360, Note_on_c, 10, 55, 39
11, 1215586, Note_off_c, 10, 55, 64
11, 1215586, Note_off_c, 10, 58, 64
11, 1215600, Note_on_c, 10, 58, 39
11, 1215600, Note_on_c, 10, 55, 39
11, 1215826, Note_off_c, 10, 55, 64
11, 1215826, Note_off_c, 10, 58, 64
11, 1215840, Note_on_c, 10, 53, 39
11, 1215840, Note_on_c, 10, 57, 39
11, 1216066, Note_off_c, 10, 57, 64
11, 1216066, Note_off_c, 10, 53, 64
11, 1216080, Note_on_c, 10, 53, 39
11, 1216080, Note_on_c, 10, 57, 39
11, 1216306, Note_off_c, 10, 57, 64
11, 1216306, Note_off_c, 10, 53, 64
11, 1216320, Note_on_c, 10, 55, 39
11, 1216320, Note_on_c, 10, 51, 39
11, 1216546, Note_off_c, 10, 51, 64
11, 1216546, Note_off_c, 10, 55, 64
11, 1216560, Note_on_c, 10, 55, 39
11, 1216560, Note_on_c, 10, 51, 39
11, 1216786, Note_off_c, 10, 51, 64
11, 1216786, Note_off_c, 10, 55, 64
11, 1216800, Note_on_c, 10, 50, 39
11, 1216800, Note_on_c, 10, 53, 39
11, 1217026, Note_off_c, 10, 53, 64
11, 1217026, Note_off_c, 10, 50, 64
11, 1217040, Note_on_c, 10, 50, 39
11, 1217040, Note_on_c, 10, 53, 39
11, 1217266, Note_off_c, 10, 53, 64
11, 1217266, Note_off_c, 10, 50, 64
11, 1217280, Note_on_c, 10, 51, 39
11, 1217280, Note_on_c, 10, 55, 39
11, 1217506, Note_off_c, 10, 55, 64
11, 1217506, Note_off_c, 10, 51, 64
11, 1217520, Note_on_c, 10, 55, 39
11, 1217520, Note_on_c, 10, 51, 39
11, 1217746, Note_off_c, 10, 51, 64
11, 1217746, Note_off_c, 10, 55, 64
11, 1217760, Note_on_c, 10, 48, 101
11, 1217760, Note_on_c, 10, 51, 101
11, 1217986, Note_off_c, 10, 51, 64
11, 1217986, Note_off_c, 10, 48, 64
11, 1218000, Note_on_c, 10, 51, 101
11, 1218000, Note_on_c, 10, 48, 101
11, 1218226, Note_off_c, 10, 48, 64
11, 1218226, Note_off_c, 10, 51, 64
11, 1218240, Note_on_c, 10, 57, 101
11, 1218240, Note_on_c, 10, 51, 101
11, 1218466, Note_off_c, 10, 51, 64
11, 1218466, Note_off_c, 10, 57, 64
11, 1218480, Note_on_c, 10, 51, 101
11, 1218480, Note_on_c, 10, 57, 101
11, 1218706, Note_off_c, 10, 57, 64
11, 1218706, Note_off_c, 10, 51, 64
11, 1218720, Note_on_c, 10, 60, 101
11, 1218720, Note_on_c, 10, 57, 101
11, 1218946, Note_off_c, 10, 57, 64
11, 1218946, Note_off_c, 10, 60, 64
11, 1218960, Note_on_c, 10, 57, 101
11, 1218960, Note_on_c, 10, 60, 101
11, 1219186, Note_off_c, 10, 60, 64
11, 1219186, Note_off_c, 10, 57, 64
11, 1219200, Note_on_c, 10, 60, 101
11, 1219200, Note_on_c, 10, 63, 101
11, 1219426, Note_off_c, 10, 63, 64
11, 1219426, Note_off_c, 10, 60, 64
11, 1219440, Note_on_c, 10, 60, 101
11, 1219440, Note_on_c, 10, 63, 101
11, 1219666, Note_off_c, 10, 63, 64
11, 1219666, Note_off_c, 10, 60, 64
11, 1219680, Note_on_c, 10, 48, 101
11, 1219680, Note_on_c, 10, 51, 101
11, 1219906, Note_off_c, 10, 51, 64
11, 1219906, Note_off_c, 10, 48, 64
11, 1219920, Note_on_c, 10, 48, 101
11, 1219920, Note_on_c, 10, 51, 101
11, 1220146, Note_off_c, 10, 51, 64
11, 1220146, Note_off_c, 10, 48, 64
11, 1220160, Note_on_c, 10, 57, 101
11, 1220160, Note_on_c, 10, 51, 101
11, 1220386, Note_off_c, 10, 51, 64
11, 1220386, Note_off_c, 10, 57, 64
11, 1220400, Note_on_c, 10, 57, 101
11, 1220400, Note_on_c, 10, 51, 101
11, 1220626, Note_off_c, 10, 51, 64
11, 1220626, Note_off_c, 10, 57, 64
11, 1220640, Note_on_c, 10, 57, 101
11, 1220640, Note_on_c, 10, 60, 101
11, 1220866, Note_off_c, 10, 60, 64
11, 1220866, Note_off_c, 10, 57, 64
11, 1220880, Note_on_c, 10, 60, 101
11, 1220880, Note_on_c, 10, 57, 101
11, 1221106, Note_off_c, 10, 57, 64
11, 1221106, Note_off_c, 10, 60, 64
11, 1221120, Note_on_c, 10, 60, 101
11, 1221120, Note_on_c, 10, 63, 101
11, 1221346, Note_off_c, 10, 63, 64
11, 1221346, Note_off_c, 10, 60, 64
11, 1221360, Note_on_c, 10, 60, 101
11, 1221360, Note_on_c, 10, 63, 101
11, 1221586, Note_off_c, 10, 63, 64
11, 1221586, Note_off_c, 10, 60, 64
11, 1221600, Note_on_c, 10, 58, 70
11, 1221600, Note_on_c, 10, 62, 70
11, 1221792, Note_off_c, 10, 62, 64
11, 1221792, Note_off_c, 10, 58, 64
11, 1221840, Note_on_c, 10, 62, 71
11, 1221840, Note_on_c, 10, 65, 71
11, 1222032, Note_off_c, 10, 65, 64
11, 1222032, Note_off_c, 10, 62, 64
11, 1222080, Note_on_c, 10, 65, 72
11, 1222080, Note_on_c, 10, 62, 72
11, 1222272, Note_off_c, 10, 62, 64
11, 1222272, Note_off_c, 10, 65, 64
11, 1222320, Note_on_c, 10, 62, 72
11, 1222320, Note_on_c, 10, 65, 72
11, 1222512, Note_off_c, 10, 65, 64
11, 1222512, Note_off_c, 10, 62, 64
11, 1222560, Note_on_c, 10, 65, 73
11, 1222560, Note_on_c, 10, 62, 73
11, 1222752, Note_off_c, 10, 62, 64
11, 1222752, Note_off_c, 10, 65, 64
11, 1222800, Note_on_c, 10, 62, 74
11, 1222800, Note_on_c, 10, 65, 74
11, 1222992, Note_off_c, 10, 65, 64
11, 1222992, Note_off_c, 10, 62, 64
11, 1223040, Note_on_c, 10, 62, 75
11, 1223040, Note_on_c, 10, 65, 75
11, 1223232, Note_off_c, 10, 65, 64
11, 1223232, Note_off_c, 10, 62, 64
11, 1223280, Note_on_c, 10, 62, 75
11, 1223280, Note_on_c, 10, 65, 75
11, 1223472, Note_off_c, 10, 65, 64
11, 1223472, Note_off_c, 10, 62, 64
11, 1223520, Note_on_c, 10, 65, 76
11, 1223520, Note_on_c, 10, 62, 76
11, 1223712, Note_off_c, 10, 62, 64
11, 1223712, Note_off_c, 10, 65, 64
11, 1223760, Note_on_c, 10, 62, 77
11, 1223760, Note_on_c, 10, 65, 77
11, 1223952, Note_off_c, 10, 65, 64
11, 1223952, Note_off_c, 10, 62, 64
11, 1224000, Note_on_c, 10, 65, 78
11, 1224000, Note_on_c, 10, 62, 78
11, 1224192, Note_off_c, 10, 62, 64
11, 1224192, Note_off_c, 10, 65, 64
11, 1224240, Note_on_c, 10, 65, 79
11, 1224240, Note_on_c, 10, 62, 79
11, 1224432, Note_off_c, 10, 62, 64
11, 1224432, Note_off_c, 10, 65, 64
11, 1224480, Note_on_c, 10, 65, 79
11, 1224480, Note_on_c, 10, 62, 79
11, 1224672, Note_off_c, 10, 62, 64
11, 1224672, Note_off_c, 10, 65, 64
11, 1224720, Note_on_c, 10, 62, 80
11, 1224720, Note_on_c, 10, 65, 80
11, 1224912, Note_off_c, 10, 65, 64
11, 1224912, Note_off_c, 10, 62, 64
11, 1224960, Note_on_c, 10, 62, 81
11, 1224960, Note_on_c, 10, 65, 81
11, 1225152, Note_off_c, 10, 65, 64
11, 1225152, Note_off_c, 10, 62, 64
11, 1225200, Note_on_c, 10, 62, 82
11, 1225200, Note_on_c, 10, 65, 82
11, 1225392, Note_off_c, 10, 65, 64
11, 1225392, Note_off_c, 10, 62, 64
11, 1225440, Note_on_c, 10, 69, 83
11, 1225440, Note_on_c, 10, 65, 83
11, 1225632, Note_off_c, 10, 65, 64
11, 1225632, Note_off_c, 10, 69, 64
11, 1225680, Note_on_c, 10, 65, 83
11, 1225680, Note_on_c, 10, 69, 83
11, 1225872, Note_off_c, 10, 69, 64
11, 1225872, Note_off_c, 10, 65, 64
11, 1225920, Note_on_c, 10, 65, 84
11, 1225920, Note_on_c, 10, 69, 84
11, 1226112, Note_off_c, 10, 69, 64
11, 1226112, Note_off_c, 10, 65, 64
11, 1226160, Note_on_c, 10, 69, 85
11, 1226160, Note_on_c, 10, 65, 85
11, 1226352, Note_off_c, 10, 65, 64
11, 1226352, Note_off_c, 10, 69, 64
11, 1226400, Note_on_c, 10, 69, 86
11, 1226400, Note_on_c, 10, 65, 86
11, 1226592, Note_off_c, 10, 65, 64
11, 1226592, Note_off_c, 10, 69, 64
11, 1226640, Note_on_c, 10, 65, 86
11, 1226640, Note_on_c, 10, 69, 86
11, 1226832, Note_off_c, 10, 69, 64
11, 1226832, Note_off_c, 10, 65, 64
11, 1226880, Note_on_c, 10, 65, 87
11, 1226880, Note_on_c, 10, 69, 87
11, 1227072, Note_off_c, 10, 69, 64
11, 1227072, Note_off_c, 10, 65, 64
11, 1227120, Note_on_c, 10, 65, 88
11, 1227120, Note_on_c, 10, 69, 88
11, 1227312, Note_off_c, 10, 69, 64
11, 1227312, Note_off_c, 10, 65, 64
11, 1227360, Note_on_c, 10, 69, 89
11, 1227360, Note_on_c, 10, 65, 89
11, 1227552, Note_off_c, 10, 65, 64
11, 1227552, Note_off_c, 10, 69, 64
11, 1227600, Note_on_c, 10, 65, 90
11, 1227600, Note_on_c, 10, 69, 90
11, 1227792, Note_off_c, 10, 69, 64
11, 1227792, Note_off_c, 10, 65, 64
11, 1227840, Note_on_c, 10, 69, 90
11, 1227840, Note_on_c, 10, 65, 90
11, 1228032, Note_off_c, 10, 65, 64
11, 1228032, Note_off_c, 10, 69, 64
11, 1228080, Note_on_c, 10, 69, 91
11, 1228080, Note_on_c, 10, 65, 91
11, 1228272, Note_off_c, 10, 65, 64
11, 1228272, Note_off_c, 10, 69, 64
11, 1228320, Note_on_c, 10, 69, 92
11, 1228320, Note_on_c, 10, 65, 92
11, 1228512, Note_off_c, 10, 65, 64
11, 1228512, Note_off_c, 10, 69, 64
11, 1228560, Note_on_c, 10, 65, 93
11, 1228560, Note_on_c, 10, 69, 93
11, 1228752, Note_off_c, 10, 69, 64
11, 1228752, Note_off_c, 10, 65, 64
11, 1228800, Note_on_c, 10, 65, 93
11, 1228800, Note_on_c, 10, 69, 93
11, 1228992, Note_off_c, 10, 69, 64
11, 1228992, Note_off_c, 10, 65, 64
11, 1229040, Note_on_c, 10, 65, 94
11, 1229040, Note_on_c, 10, 69, 94
11, 1229232, Note_off_c, 10, 69, 64
11, 1229232, Note_off_c, 10, 65, 64
11, 1229280, Note_on_c, 10, 70, 95
11, 1229472, Note_off_c, 10, 70, 64
11, 1229760, Note_on_c, 10, 65, 97
11, 1230240, Note_off_c, 10, 65, 64
11, 1230240, Note_on_c, 10, 63, 98
11, 1230720, Note_off_c, 10, 63, 64
11, 1230720, Note_on_c, 10, 62, 100
11, 1231200, Note_off_c, 10, 62, 64
11, 1231200, Note_on_c, 10, 60, 101
11, 1231680, Note_off_c, 10, 60, 64
11, 1231680, Note_on_c, 10, 58, 103
11, 1232160, Note_off_c, 10, 58, 64
11, 1232160, Note_on_c, 10, 57, 104
11, 1232640, Note_off_c, 10, 57, 64
11, 1232640, Note_on_c, 10, 58, 106
11, 1233120, Note_off_c, 10, 58, 64
11, 1233120, Note_on_c, 10, 53, 108
11, 1233360, Note_off_c, 10, 53, 64
11, 1233600, Note_on_c, 10, 60, 109
11, 1234080, Note_off_c, 10, 60, 64
11, 1234080, Note_on_c, 10, 58, 111
11, 1234560, Note_off_c, 10, 58, 64
11, 1234560, Note_on_c, 10, 57, 112
11, 1235040, Note_off_c, 10, 57, 64
11, 1235040, Note_on_c, 10, 55, 114
11, 1235520, Note_off_c, 10, 55, 64
11, 1235520, Note_on_c, 10, 53, 115
11, 1236000, Note_off_c, 10, 53, 64
11, 1236000, Note_on_c, 10, 52, 117
11, 1236480, Note_off_c, 10, 52, 64
11, 1236480, Note_on_c, 10, 53, 118
11, 1236960, Note_off_c, 10, 53, 64
11, 1236960, Note_on_c, 10, 65, 127
11, 1236960, Note_on_c, 10, 62, 127
11, 1237152, Note_off_c, 10, 62, 64
11, 1237152, Note_off_c, 10, 65, 64
11, 1237200, Note_on_c, 10, 65, 127
11, 1237200, Note_on_c, 10, 62, 127
11, 1237392, Note_off_c, 10, 62, 64
11, 1237392, Note_off_c, 10, 65, 64
11, 1237440, Note_on_c, 10, 62, 127
11, 1237440, Note_on_c, 10, 65, 127
11, 1237632, Note_off_c, 10, 65, 64
11, 1237632, Note_off_c, 10, 62, 64
11, 1237680, Note_on_c, 10, 62, 127
11, 1237680, Note_on_c, 10, 65, 127
11, 1237872, Note_off_c, 10, 65, 64
11, 1237872, Note_off_c, 10, 62, 64
11, 1237920, Note_on_c, 10, 62, 127
11, 1237920, Note_on_c, 10, 65, 127
11, 1238112, Note_off_c, 10, 65, 64
11, 1238112, Note_off_c, 10, 62, 64
11, 1238160, Note_on_c, 10, 65, 127
11, 1238160, Note_on_c, 10, 62, 127
11, 1238352, Note_off_c, 10, 62, 64
11, 1238352, Note_off_c, 10, 65, 64
11, 1238400, Note_on_c, 10, 65, 127
11, 1238400, Note_on_c, 10, 62, 127
11, 1238592, Note_off_c, 10, 62, 64
11, 1238592, Note_off_c, 10, 65, 64
11, 1238640, Note_on_c, 10, 62, 127
11, 1238640, Note_on_c, 10, 65, 127
11, 1238832, Note_off_c, 10, 65, 64
11, 1238832, Note_off_c, 10, 62, 64
11, 1238880, Note_on_c, 10, 62, 127
11, 1238880, Note_on_c, 10, 65, 127
11, 1239072, Note_off_c, 10, 65, 64
11, 1239072, Note_off_c, 10, 62, 64
11, 1239120, Note_on_c, 10, 62, 127
11, 1239120, Note_on_c, 10, 65, 127
11, 1239312, Note_off_c, 10, 65, 64
11, 1239312, Note_off_c, 10, 62, 64
11, 1239360, Note_on_c, 10, 62, 127
11, 1239360, Note_on_c, 10, 65, 127
11, 1239552, Note_off_c, 10, 65, 64
11, 1239552, Note_off_c, 10, 62, 64
11, 1239600, Note_on_c, 10, 65, 127
11, 1239600, Note_on_c, 10, 62, 127
11, 1239792, Note_off_c, 10, 62, 64
11, 1239792, Note_off_c, 10, 65, 64
11, 1239840, Note_on_c, 10, 62, 127
11, 1239840, Note_on_c, 10, 65, 127
11, 1240032, Note_off_c, 10, 65, 64
11, 1240032, Note_off_c, 10, 62, 64
11, 1240080, Note_on_c, 10, 65, 127
11, 1240080, Note_on_c, 10, 62, 127
11, 1240272, Note_off_c, 10, 62, 64
11, 1240272, Note_off_c, 10, 65, 64
11, 1240320, Note_on_c, 10, 65, 127
11, 1240320, Note_on_c, 10, 62, 127
11, 1240512, Note_off_c, 10, 62, 64
11, 1240512, Note_off_c, 10, 65, 64
11, 1240560, Note_on_c, 10, 65, 127
11, 1240560, Note_on_c, 10, 62, 127
11, 1240752, Note_off_c, 10, 62, 64
11, 1240752, Note_off_c, 10, 65, 64
11, 1240800, Note_on_c, 10, 62, 127
11, 1240800, Note_on_c, 10, 65, 127
11, 1240992, Note_off_c, 10, 65, 64
11, 1240992, Note_off_c, 10, 62, 64
11, 1241040, Note_on_c, 10, 62, 127
11, 1241040, Note_on_c, 10, 65, 127
11, 1241232, Note_off_c, 10, 65, 64
11, 1241232, Note_off_c, 10, 62, 64
11, 1241280, Note_on_c, 10, 62, 127
11, 1241280, Note_on_c, 10, 65, 127
11, 1241472, Note_off_c, 10, 65, 64
11, 1241472, Note_off_c, 10, 62, 64
11, 1241520, Note_on_c, 10, 65, 127
11, 1241520, Note_on_c, 10, 62, 127
11, 1241712, Note_off_c, 10, 62, 64
11, 1241712, Note_off_c, 10, 65, 64
11, 1241760, Note_on_c, 10, 62, 127
11, 1241760, Note_on_c, 10, 65, 127
11, 1241952, Note_off_c, 10, 65, 64
11, 1241952, Note_off_c, 10, 62, 64
11, 1242000, Note_on_c, 10, 65, 127
11, 1242000, Note_on_c, 10, 62, 127
11, 1242192, Note_off_c, 10, 62, 64
11, 1242192, Note_off_c, 10, 65, 64
11, 1242240, Note_on_c, 10, 65, 127
11, 1242240, Note_on_c, 10, 62, 127
11, 1242432, Note_off_c, 10, 62, 64
11, 1242432, Note_off_c, 10, 65, 64
11, 1242480, Note_on_c, 10, 65, 127
11, 1242480, Note_on_c, 10, 62, 127
11, 1242672, Note_off_c, 10, 62, 64
11, 1242672, Note_off_c, 10, 65, 64
11, 1242720, Note_on_c, 10, 65, 127
11, 1242720, Note_on_c, 10, 62, 127
11, 1242912, Note_off_c, 10, 62, 64
11, 1242912, Note_off_c, 10, 65, 64
11, 1242960, Note_on_c, 10, 65, 127
11, 1242960, Note_on_c, 10, 62, 127
11, 1243152, Note_off_c, 10, 62, 64
11, 1243152, Note_off_c, 10, 65, 64
11, 1243200, Note_on_c, 10, 62, 127
11, 1243200, Note_on_c, 10, 65, 127
11, 1243392, Note_off_c, 10, 65, 64
11, 1243392, Note_off_c, 10, 62, 64
11, 1243440, Note_on_c, 10, 62, 127
11, 1243440, Note_on_c, 10, 65, 127
11, 1243632, Note_off_c, 10, 65, 64
11, 1243632, Note_off_c, 10, 62, 64
11, 1243680, Note_on_c, 10, 62, 127
11, 1243680, Note_on_c, 10, 65, 127
11, 1243872, Note_off_c, 10, 65, 64
11, 1243872, Note_off_c, 10, 62, 64
11, 1243920, Note_on_c, 10, 62, 127
11, 1243920, Note_on_c, 10, 65, 127
11, 1244112, Note_off_c, 10, 65, 64
11, 1244112, Note_off_c, 10, 62, 64
11, 1244160, Note_on_c, 10, 62, 127
11, 1244160, Note_on_c, 10, 65, 127
11, 1244352, Note_off_c, 10, 65, 64
11, 1244352, Note_off_c, 10, 62, 64
11, 1244400, Note_on_c, 10, 65, 127
11, 1244480, Note_off_c, 10, 65, 64
11, 1244480, Note_on_c, 10, 67, 127
11, 1244560, Note_off_c, 10, 67, 64
11, 1244560, Note_on_c, 10, 69, 127
11, 1244640, Note_off_c, 10, 69, 64
11, 1244640, Note_on_c, 10, 70, 127
11, 1244880, Note_off_c, 10, 70, 64
11, 1245360, Note_on_c, 10, 65, 127
11, 1245440, Note_off_c, 10, 65, 64
11, 1245440, Note_on_c, 10, 67, 127
11, 1245520, Note_off_c, 10, 67, 64
11, 1245520, Note_on_c, 10, 69, 127
11, 1245600, Note_off_c, 10, 69, 64
11, 1245600, Note_on_c, 10, 70, 127
11, 1245840, Note_off_c, 10, 70, 64
11, 1246320, Note_on_c, 10, 65, 127
11, 1246400, Note_off_c, 10, 65, 64
11, 1246400, Note_on_c, 10, 67, 127
11, 1246480, Note_off_c, 10, 67, 64
11, 1246480, Note_on_c, 10, 69, 127
11, 1246560, Note_off_c, 10, 69, 64
11, 1246560, Note_on_c, 10, 70, 127
11, 1246560, Note_on_c, 10, 62, 127
11, 1246800, Note_off_c, 10, 62, 64
11, 1246800, Note_off_c, 10, 70, 64
11, 1248480, Note_on_c, 10, 58, 127
11, 1248480, Note_on_c, 10, 62, 127
11, 1248720, Note_off_c, 10, 62, 64
11, 1248720, Note_off_c, 10, 58, 64
11, 1250400, Note_on_c, 10, 58, 127
11, 1250640, Note_off_c, 10, 58, 64
11, 1250640, End_track
12, 0, Start_track
12, 0, Title_t, "Celli"
12, 0, MIDI_port, 0
12, 0, Channel_prefix, 11
12, 0, Control_c, 11, 7, 89
12, 0, Control_c, 11, 10, 86
12, 0, Program_c, 11, 48
12, 480, Program_c, 11, 48
12, 480, Control_c, 11, 91, 85
12, 480, Control_c, 11, 93, 90
12, 480, Control_c, 11, 10, 88
12, 1920, Control_c, 11, 7, 90
12, 5700, Control_c, 11, 7, 75
12, 7533, Control_c, 11, 7, 42
12, 7545, Control_c, 11, 7, 43
12, 7561, Control_c, 11, 7, 45
12, 7573, Control_c, 11, 7, 46
12, 7585, Control_c, 11, 7, 48
12, 7601, Control_c, 11, 7, 49
12, 7613, Control_c, 11, 7, 51
12, 7625, Control_c, 11, 7, 53
12, 7641, Control_c, 11, 7, 54
12, 7653, Control_c, 11, 7, 56
12, 7665, Control_c, 11, 7, 57
12, 7680, Note_on_c, 11, 54, 26
12, 7681, Control_c, 11, 7, 59
12, 7693, Control_c, 11, 7, 60
12, 7705, Control_c, 11, 7, 62
12, 7721, Control_c, 11, 7, 64
12, 7733, Control_c, 11, 7, 65
12, 7745, Control_c, 11, 7, 67
12, 7761, Control_c, 11, 7, 68
12, 7773, Control_c, 11, 7, 70
12, 7785, Control_c, 11, 7, 71
12, 7801, Control_c, 11, 7, 73
12, 7813, Control_c, 11, 7, 75
12, 8640, Note_off_c, 11, 54, 64
12, 8640, Note_on_c, 11, 51, 26
12, 9600, Note_off_c, 11, 51, 64
12, 9600, Note_on_c, 11, 53, 26
12, 10560, Note_off_c, 11, 53, 64
12, 10560, Note_on_c, 11, 49, 26
12, 11520, Note_off_c, 11, 49, 64
12, 11520, Note_on_c, 11, 51, 26
12, 12000, Note_off_c, 11, 51, 64
12, 12000, Note_on_c, 11, 48, 26
12, 12480, Note_off_c, 11, 48, 64
12, 12480, Note_on_c, 11, 49, 26
12, 12960, Note_off_c, 11, 49, 64
12, 12960, Note_on_c, 11, 46, 26
12, 13440, Note_off_c, 11, 46, 64
12, 13440, Note_on_c, 11, 42, 26
12, 13441, Control_c, 11, 7, 71
12, 13465, Control_c, 11, 7, 72
12, 13481, Control_c, 11, 7, 73
12, 13493, Control_c, 11, 7, 74
12, 13521, Control_c, 11, 7, 75
12, 13533, Control_c, 11, 7, 76
12, 13545, Control_c, 11, 7, 77
12, 13573, Control_c, 11, 7, 78
12, 13585, Control_c, 11, 7, 79
12, 13601, Control_c, 11, 7, 80
12, 13613, Control_c, 11, 7, 81
12, 13641, Control_c, 11, 7, 82
12, 13653, Control_c, 11, 7, 83
12, 13665, Control_c, 11, 7, 84
12, 13693, Control_c, 11, 7, 85
12, 13705, Control_c, 11, 7, 86
12, 13721, Control_c, 11, 7, 87
12, 13745, Control_c, 11, 7, 88
12, 13761, Control_c, 11, 7, 89
12, 13773, Control_c, 11, 7, 90
12, 13785, Control_c, 11, 7, 91
12, 13813, Control_c, 11, 7, 92
12, 13825, Control_c, 11, 7, 93
12, 13841, Control_c, 11, 7, 94
12, 13865, Control_c, 11, 7, 95
12, 13881, Control_c, 11, 7, 96
12, 13893, Control_c, 11, 7, 97
12, 13905, Control_c, 11, 7, 98
12, 13933, Control_c, 11, 7, 99
12, 13945, Control_c, 11, 7, 100
12, 13961, Control_c, 11, 7, 101
12, 13985, Control_c, 11, 7, 102
12, 14001, Control_c, 11, 7, 103
12, 14013, Control_c, 11, 7, 104
12, 14041, Control_c, 11, 7, 105
12, 14053, Control_c, 11, 7, 106
12, 14065, Control_c, 11, 7, 107
12, 14081, Control_c, 11, 7, 108
12, 14105, Control_c, 11, 7, 109
12, 14121, Control_c, 11, 7, 110
12, 14133, Control_c, 11, 7, 111
12, 14161, Control_c, 11, 7, 112
12, 14173, Control_c, 11, 7, 113
12, 14185, Control_c, 11, 7, 114
12, 14213, Control_c, 11, 7, 115
12, 14225, Control_c, 11, 7, 116
12, 14241, Control_c, 11, 7, 117
12, 14253, Control_c, 11, 7, 118
12, 14281, Control_c, 11, 7, 119
12, 14293, Control_c, 11, 7, 120
12, 14305, Control_c, 11, 7, 121
12, 14333, Control_c, 11, 7, 122
12, 14345, Control_c, 11, 7, 123
12, 14361, Control_c, 11, 7, 124
12, 14373, Control_c, 11, 7, 125
12, 14385, Control_c, 11, 7, 125
12, 14413, Control_c, 11, 7, 124
12, 14441, Control_c, 11, 7, 123
12, 14453, Control_c, 11, 7, 122
12, 14481, Control_c, 11, 7, 121
12, 14493, Control_c, 11, 7, 120
12, 14521, Control_c, 11, 7, 119
12, 14545, Control_c, 11, 7, 118
12, 14561, Control_c, 11, 7, 117
12, 14585, Control_c, 11, 7, 116
12, 14601, Control_c, 11, 7, 115
12, 14625, Control_c, 11, 7, 114
12, 14653, Control_c, 11, 7, 113
12, 14665, Control_c, 11, 7, 112
12, 14693, Control_c, 11, 7, 111
12, 14705, Control_c, 11, 7, 110
12, 14733, Control_c, 11, 7, 109
12, 14761, Control_c, 11, 7, 108
12, 14773, Control_c, 11, 7, 107
12, 14801, Control_c, 11, 7, 106
12, 14813, Control_c, 11, 7, 105
12, 14841, Control_c, 11, 7, 104
12, 14865, Control_c, 11, 7, 103
12, 14881, Control_c, 11, 7, 102
12, 14905, Control_c, 11, 7, 101
12, 14921, Control_c, 11, 7, 100
12, 14945, Control_c, 11, 7, 99
12, 14961, Control_c, 11, 7, 98
12, 14985, Control_c, 11, 7, 97
12, 15013, Control_c, 11, 7, 96
12, 15025, Control_c, 11, 7, 95
12, 15053, Control_c, 11, 7, 94
12, 15065, Control_c, 11, 7, 93
12, 15093, Control_c, 11, 7, 92
12, 15121, Control_c, 11, 7, 91
12, 15133, Control_c, 11, 7, 90
12, 15161, Control_c, 11, 7, 89
12, 15173, Control_c, 11, 7, 88
12, 15201, Control_c, 11, 7, 87
12, 15225, Control_c, 11, 7, 86
12, 15241, Control_c, 11, 7, 85
12, 15265, Control_c, 11, 7, 84
12, 15281, Control_c, 11, 7, 83
12, 15305, Control_c, 11, 7, 82
12, 15333, Control_c, 11, 7, 81
12, 15345, Control_c, 11, 7, 80
12, 15360, Note_off_c, 11, 42, 64
12, 15360, Note_on_c, 11, 41, 26
12, 15373, Control_c, 11, 7, 79
12, 15385, Control_c, 11, 7, 78
12, 15413, Control_c, 11, 7, 77
12, 15441, Control_c, 11, 7, 76
12, 15453, Control_c, 11, 7, 75
12, 15481, Control_c, 11, 7, 74
12, 15493, Control_c, 11, 7, 73
12, 15521, Control_c, 11, 7, 72
12, 15528, Note_off_c, 11, 41, 64
12, 15533, Control_c, 11, 7, 71
12, 28320, Program_c, 11, 48
12, 30573, Control_c, 11, 7, 32
12, 30585, Control_c, 11, 7, 34
12, 30601, Control_c, 11, 7, 36
12, 30613, Control_c, 11, 7, 38
12, 30625, Control_c, 11, 7, 40
12, 30641, Control_c, 11, 7, 42
12, 30653, Control_c, 11, 7, 45
12, 30665, Control_c, 11, 7, 47
12, 30681, Control_c, 11, 7, 49
12, 30693, Control_c, 11, 7, 51
12, 30705, Control_c, 11, 7, 53
12, 30720, Note_on_c, 11, 54, 30
12, 30721, Control_c, 11, 7, 56
12, 30733, Control_c, 11, 7, 58
12, 30745, Control_c, 11, 7, 60
12, 30761, Control_c, 11, 7, 62
12, 30773, Control_c, 11, 7, 64
12, 30785, Control_c, 11, 7, 67
12, 30801, Control_c, 11, 7, 69
12, 30813, Control_c, 11, 7, 71
12, 30825, Control_c, 11, 7, 73
12, 30841, Control_c, 11, 7, 75
12, 30853, Control_c, 11, 7, 78
12, 31680, Note_off_c, 11, 54, 64
12, 31680, Note_on_c, 11, 51, 30
12, 32640, Note_off_c, 11, 51, 64
12, 32640, Note_on_c, 11, 53, 30
12, 33600, Note_off_c, 11, 53, 64
12, 33600, Note_on_c, 11, 49, 30
12, 34560, Note_off_c, 11, 49, 64
12, 34560, Note_on_c, 11, 51, 30
12, 35040, Note_off_c, 11, 51, 64
12, 35040, Note_on_c, 11, 48, 30
12, 35520, Note_off_c, 11, 48, 64
12, 35520, Note_on_c, 11, 49, 30
12, 36000, Note_off_c, 11, 49, 64
12, 36000, Note_on_c, 11, 46, 30
12, 36480, Note_off_c, 11, 46, 64
12, 36480, Note_on_c, 11, 42, 30
12, 36481, Control_c, 11, 7, 72
12, 36505, Control_c, 11, 7, 73
12, 36521, Control_c, 11, 7, 74
12, 36533, Control_c, 11, 7, 75
12, 36561, Control_c, 11, 7, 76
12, 36573, Control_c, 11, 7, 77
12, 36585, Control_c, 11, 7, 78
12, 36613, Control_c, 11, 7, 79
12, 36625, Control_c, 11, 7, 80
12, 36641, Control_c, 11, 7, 81
12, 36653, Control_c, 11, 7, 82
12, 36681, Control_c, 11, 7, 83
12, 36693, Control_c, 11, 7, 84
12, 36705, Control_c, 11, 7, 85
12, 36733, Control_c, 11, 7, 86
12, 36745, Control_c, 11, 7, 87
12, 36761, Control_c, 11, 7, 88
12, 36773, Control_c, 11, 7, 89
12, 36801, Control_c, 11, 7, 90
12, 36813, Control_c, 11, 7, 91
12, 36825, Control_c, 11, 7, 92
12, 36853, Control_c, 11, 7, 93
12, 36865, Control_c, 11, 7, 94
12, 36881, Control_c, 11, 7, 95
12, 36893, Control_c, 11, 7, 96
12, 36921, Control_c, 11, 7, 97
12, 36933, Control_c, 11, 7, 98
12, 36945, Control_c, 11, 7, 99
12, 36973, Control_c, 11, 7, 100
12, 36985, Control_c, 11, 7, 101
12, 37001, Control_c, 11, 7, 102
12, 37025, Control_c, 11, 7, 103
12, 37041, Control_c, 11, 7, 104
12, 37053, Control_c, 11, 7, 105
12, 37065, Control_c, 11, 7, 106
12, 37093, Control_c, 11, 7, 107
12, 37105, Control_c, 11, 7, 108
12, 37121, Control_c, 11, 7, 109
12, 37145, Control_c, 11, 7, 110
12, 37161, Control_c, 11, 7, 111
12, 37173, Control_c, 11, 7, 112
12, 37185, Control_c, 11, 7, 113
12, 37213, Control_c, 11, 7, 114
12, 37225, Control_c, 11, 7, 115
12, 37241, Control_c, 11, 7, 116
12, 37265, Control_c, 11, 7, 117
12, 37281, Control_c, 11, 7, 118
12, 37293, Control_c, 11, 7, 119
12, 37305, Control_c, 11, 7, 120
12, 37333, Control_c, 11, 7, 121
12, 37345, Control_c, 11, 7, 122
12, 37361, Control_c, 11, 7, 123
12, 37385, Control_c, 11, 7, 124
12, 37401, Control_c, 11, 7, 125
12, 37413, Control_c, 11, 7, 126
12, 37425, Control_c, 11, 7, 127
12, 37453, Control_c, 11, 7, 126
12, 37481, Control_c, 11, 7, 125
12, 37493, Control_c, 11, 7, 124
12, 37521, Control_c, 11, 7, 123
12, 37533, Control_c, 11, 7, 122
12, 37561, Control_c, 11, 7, 121
12, 37573, Control_c, 11, 7, 120
12, 37601, Control_c, 11, 7, 119
12, 37613, Control_c, 11, 7, 118
12, 37641, Control_c, 11, 7, 117
12, 37665, Control_c, 11, 7, 116
12, 37681, Control_c, 11, 7, 115
12, 37705, Control_c, 11, 7, 114
12, 37721, Control_c, 11, 7, 113
12, 37745, Control_c, 11, 7, 112
12, 37761, Control_c, 11, 7, 111
12, 37785, Control_c, 11, 7, 110
12, 37801, Control_c, 11, 7, 109
12, 37825, Control_c, 11, 7, 108
12, 37853, Control_c, 11, 7, 107
12, 37865, Control_c, 11, 7, 106
12, 37893, Control_c, 11, 7, 105
12, 37905, Control_c, 11, 7, 104
12, 37933, Control_c, 11, 7, 103
12, 37945, Control_c, 11, 7, 102
12, 37973, Control_c, 11, 7, 101
12, 37985, Control_c, 11, 7, 100
12, 38013, Control_c, 11, 7, 99
12, 38041, Control_c, 11, 7, 98
12, 38053, Control_c, 11, 7, 97
12, 38081, Control_c, 11, 7, 96
12, 38093, Control_c, 11, 7, 95
12, 38121, Control_c, 11, 7, 94
12, 38133, Control_c, 11, 7, 93
12, 38161, Control_c, 11, 7, 92
12, 38173, Control_c, 11, 7, 91
12, 38201, Control_c, 11, 7, 90
12, 38225, Control_c, 11, 7, 89
12, 38241, Control_c, 11, 7, 88
12, 38265, Control_c, 11, 7, 87
12, 38281, Control_c, 11, 7, 86
12, 38305, Control_c, 11, 7, 85
12, 38321, Control_c, 11, 7, 84
12, 38345, Control_c, 11, 7, 83
12, 38361, Control_c, 11, 7, 82
12, 38385, Control_c, 11, 7, 81
12, 38413, Control_c, 11, 7, 80
12, 38425, Control_c, 11, 7, 79
12, 38453, Control_c, 11, 7, 78
12, 38465, Control_c, 11, 7, 77
12, 38493, Control_c, 11, 7, 76
12, 38505, Control_c, 11, 7, 75
12, 38533, Control_c, 11, 7, 74
12, 38545, Control_c, 11, 7, 73
12, 38568, Note_off_c, 11, 42, 64
12, 38573, Control_c, 11, 7, 72
12, 38585, Control_c, 11, 7, 71
12, 48000, Program_c, 11, 45
12, 51360, Note_on_c, 11, 42, 32
12, 51744, Note_off_c, 11, 42, 64
12, 51840, Note_on_c, 11, 43, 64
12, 52224, Note_off_c, 11, 43, 64
12, 52320, Note_on_c, 11, 62, 32
12, 52704, Note_off_c, 11, 62, 64
12, 52800, Note_on_c, 11, 59, 32
12, 53184, Note_off_c, 11, 59, 64
12, 53280, Note_on_c, 11, 55, 32
12, 53664, Note_off_c, 11, 55, 64
12, 53760, Note_on_c, 11, 53, 32
12, 54144, Note_off_c, 11, 53, 64
12, 54240, Note_on_c, 11, 50, 32
12, 54624, Note_off_c, 11, 50, 64
12, 54720, Note_on_c, 11, 47, 32
12, 55104, Note_off_c, 11, 47, 64
12, 55200, Note_on_c, 11, 43, 32
12, 55584, Note_off_c, 11, 43, 64
12, 55680, Note_on_c, 11, 48, 32
12, 56064, Note_off_c, 11, 48, 64
12, 56160, Note_on_c, 11, 55, 32
12, 56544, Note_off_c, 11, 55, 64
12, 56640, Note_on_c, 11, 52, 32
12, 57024, Note_off_c, 11, 52, 64
12, 57120, Note_on_c, 11, 48, 32
12, 57504, Note_off_c, 11, 48, 64
12, 58080, Note_on_c, 11, 55, 32
12, 58464, Note_off_c, 11, 55, 64
12, 58560, Note_on_c, 11, 52, 32
12, 58944, Note_off_c, 11, 52, 64
12, 59040, Note_on_c, 11, 45, 32
12, 59424, Note_off_c, 11, 45, 64
12, 60000, Note_on_c, 11, 57, 32
12, 60384, Note_off_c, 11, 57, 64
12, 60480, Note_on_c, 11, 53, 32
12, 60864, Note_off_c, 11, 53, 64
12, 60960, Note_on_c, 11, 50, 32
12, 61344, Note_off_c, 11, 50, 64
12, 61920, Note_on_c, 11, 58, 32
12, 62304, Note_off_c, 11, 58, 64
12, 62400, Note_on_c, 11, 53, 32
12, 62784, Note_off_c, 11, 53, 64
12, 62880, Note_on_c, 11, 50, 22
12, 63264, Note_off_c, 11, 50, 64
12, 63360, Note_on_c, 11, 52, 51
12, 63744, Note_off_c, 11, 52, 64
12, 63840, Note_on_c, 11, 47, 51
12, 64224, Note_off_c, 11, 47, 64
12, 64320, Note_on_c, 11, 40, 51
12, 64704, Note_off_c, 11, 40, 64
12, 64800, Note_on_c, 11, 52, 51
12, 65184, Note_off_c, 11, 52, 64
12, 65280, Program_c, 11, 48
12, 69120, Note_on_c, 11, 45, 23
12, 69504, Note_off_c, 11, 45, 64
12, 70080, Note_on_c, 11, 45, 23
12, 70320, Note_off_c, 11, 45, 64
12, 71040, Note_on_c, 11, 45, 18
12, 71280, Note_off_c, 11, 45, 64
12, 72480, Control_c, 11, 7, 90
12, 72960, Note_on_c, 11, 41, 127
12, 74800, Note_off_c, 11, 41, 64
12, 74820, Note_on_c, 11, 41, 109
12, 74856, Note_off_c, 11, 41, 64
12, 74880, Note_on_c, 11, 41, 127
12, 74976, Note_off_c, 11, 41, 64
12, 76800, Note_on_c, 11, 41, 127
12, 78640, Note_off_c, 11, 41, 64
12, 78660, Note_on_c, 11, 41, 109
12, 78696, Note_off_c, 11, 41, 64
12, 78720, Note_on_c, 11, 41, 127
12, 78960, Note_off_c, 11, 41, 64
12, 80640, Note_on_c, 11, 41, 102
12, 80880, Note_off_c, 11, 41, 64
12, 82560, Note_on_c, 11, 41, 102
12, 82800, Note_off_c, 11, 41, 64
12, 83520, Note_on_c, 11, 41, 102
12, 83760, Note_off_c, 11, 41, 64
12, 84480, Note_on_c, 11, 41, 102
12, 84720, Note_off_c, 11, 41, 64
12, 85440, Note_on_c, 11, 41, 102
12, 85680, Note_off_c, 11, 41, 64
12, 86400, Note_on_c, 11, 46, 102
12, 86626, Note_off_c, 11, 46, 64
12, 92160, Note_on_c, 11, 58, 48
12, 92352, Note_off_c, 11, 58, 64
12, 92400, Note_on_c, 11, 58, 48
12, 92592, Note_off_c, 11, 58, 64
12, 92640, Note_on_c, 11, 58, 48
12, 92832, Note_off_c, 11, 58, 64
12, 92880, Note_on_c, 11, 58, 48
12, 93072, Note_off_c, 11, 58, 64
12, 93120, Note_on_c, 11, 58, 48
12, 93312, Note_off_c, 11, 58, 64
12, 93360, Note_on_c, 11, 58, 48
12, 93552, Note_off_c, 11, 58, 64
12, 93600, Note_on_c, 11, 58, 48
12, 93792, Note_off_c, 11, 58, 64
12, 93840, Note_on_c, 11, 58, 48
12, 94032, Note_off_c, 11, 58, 64
12, 94080, Note_on_c, 11, 58, 48
12, 94272, Note_off_c, 11, 58, 64
12, 101760, Note_on_c, 11, 41, 102
12, 102000, Note_off_c, 11, 41, 64
12, 103680, Note_on_c, 11, 41, 102
12, 103920, Note_off_c, 11, 41, 64
12, 104640, Note_on_c, 11, 41, 102
12, 104880, Note_off_c, 11, 41, 64
12, 105600, Note_on_c, 11, 46, 100
12, 105984, Note_off_c, 11, 46, 64
12, 106080, Note_on_c, 11, 46, 100
12, 106464, Note_off_c, 11, 46, 64
12, 106560, Note_on_c, 11, 46, 100
12, 106944, Note_off_c, 11, 46, 64
12, 107040, Note_on_c, 11, 46, 100
12, 107424, Note_off_c, 11, 46, 64
12, 107520, Note_on_c, 11, 46, 100
12, 107904, Note_off_c, 11, 46, 64
12, 108000, Note_on_c, 11, 46, 100
12, 108384, Note_off_c, 11, 46, 64
12, 108480, Note_on_c, 11, 46, 100
12, 108864, Note_off_c, 11, 46, 64
12, 108960, Note_on_c, 11, 46, 100
12, 109344, Note_off_c, 11, 46, 64
12, 109440, Note_on_c, 11, 46, 100
12, 109824, Note_off_c, 11, 46, 64
12, 109920, Note_on_c, 11, 46, 100
12, 110304, Note_off_c, 11, 46, 64
12, 110400, Note_on_c, 11, 46, 100
12, 110784, Note_off_c, 11, 46, 64
12, 110880, Note_on_c, 11, 46, 100
12, 111264, Note_off_c, 11, 46, 64
12, 111360, Note_on_c, 11, 46, 100
12, 111744, Note_off_c, 11, 46, 64
12, 111840, Note_on_c, 11, 46, 100
12, 112224, Note_off_c, 11, 46, 64
12, 112320, Note_on_c, 11, 46, 100
12, 112704, Note_off_c, 11, 46, 64
12, 112800, Note_on_c, 11, 46, 100
12, 113184, Note_off_c, 11, 46, 64
12, 113280, Note_on_c, 11, 46, 100
12, 113664, Note_off_c, 11, 46, 64
12, 113760, Note_on_c, 11, 58, 96
12, 114240, Note_off_c, 11, 58, 64
12, 114240, Note_on_c, 11, 57, 96
12, 114720, Note_off_c, 11, 57, 64
12, 114720, Note_on_c, 11, 55, 96
12, 115200, Note_off_c, 11, 55, 64
12, 115200, Note_on_c, 11, 53, 96
12, 115680, Note_off_c, 11, 53, 64
12, 115680, Note_on_c, 11, 51, 96
12, 116160, Note_off_c, 11, 51, 64
12, 116160, Note_on_c, 11, 50, 96
12, 116640, Note_off_c, 11, 50, 64
12, 116640, Note_on_c, 11, 51, 96
12, 117120, Note_off_c, 11, 51, 64
12, 117120, Note_on_c, 11, 53, 96
12, 120576, Note_off_c, 11, 53, 64
12, 120960, Note_on_c, 11, 53, 102
12, 121320, Note_off_c, 11, 53, 64
12, 122880, Note_on_c, 11, 55, 102
12, 123240, Note_off_c, 11, 55, 64
12, 124800, Note_on_c, 11, 48, 102
12, 125160, Note_off_c, 11, 48, 64
12, 126720, Note_on_c, 11, 53, 102
12, 127080, Note_off_c, 11, 53, 64
12, 151680, Note_on_c, 11, 46, 51
12, 151872, Note_off_c, 11, 46, 64
12, 151920, Note_on_c, 11, 46, 52
12, 152112, Note_off_c, 11, 46, 64
12, 152160, Note_on_c, 11, 46, 54
12, 152352, Note_off_c, 11, 46, 64
12, 152400, Note_on_c, 11, 46, 54
12, 152592, Note_off_c, 11, 46, 64
12, 152640, Note_on_c, 11, 46, 56
12, 152832, Note_off_c, 11, 46, 64
12, 152880, Note_on_c, 11, 46, 58
12, 153072, Note_off_c, 11, 46, 64
12, 153120, Note_on_c, 11, 46, 58
12, 153312, Note_off_c, 11, 46, 64
12, 153360, Note_on_c, 11, 46, 60
12, 153552, Note_off_c, 11, 46, 64
12, 153600, Note_on_c, 11, 46, 67
12, 153792, Note_off_c, 11, 46, 64
12, 153840, Note_on_c, 11, 46, 68
12, 154032, Note_off_c, 11, 46, 64
12, 154080, Note_on_c, 11, 46, 70
12, 154272, Note_off_c, 11, 46, 64
12, 154320, Note_on_c, 11, 46, 72
12, 154512, Note_off_c, 11, 46, 64
12, 154560, Note_on_c, 11, 46, 73
12, 154752, Note_off_c, 11, 46, 64
12, 154800, Note_on_c, 11, 46, 74
12, 154992, Note_off_c, 11, 46, 64
12, 155040, Note_on_c, 11, 46, 76
12, 155232, Note_off_c, 11, 46, 64
12, 155280, Note_on_c, 11, 46, 77
12, 155472, Note_off_c, 11, 46, 64
12, 155520, Note_on_c, 11, 46, 92
12, 155712, Note_off_c, 11, 46, 64
12, 155760, Note_on_c, 11, 46, 95
12, 155952, Note_off_c, 11, 46, 64
12, 156000, Note_on_c, 11, 46, 96
12, 156192, Note_off_c, 11, 46, 64
12, 156240, Note_on_c, 11, 46, 98
12, 156432, Note_off_c, 11, 46, 64
12, 156480, Note_on_c, 11, 46, 100
12, 156672, Note_off_c, 11, 46, 64
12, 156720, Note_on_c, 11, 46, 101
12, 156912, Note_off_c, 11, 46, 64
12, 156960, Note_on_c, 11, 46, 103
12, 157152, Note_off_c, 11, 46, 64
12, 157200, Note_on_c, 11, 46, 105
12, 157392, Note_off_c, 11, 46, 64
12, 157440, Note_on_c, 11, 46, 107
12, 157632, Note_off_c, 11, 46, 64
12, 157680, Note_on_c, 11, 46, 108
12, 157872, Note_off_c, 11, 46, 64
12, 157920, Note_on_c, 11, 46, 109
12, 158112, Note_off_c, 11, 46, 64
12, 158160, Note_on_c, 11, 46, 112
12, 158352, Note_off_c, 11, 46, 64
12, 158400, Note_on_c, 11, 46, 113
12, 158592, Note_off_c, 11, 46, 64
12, 158760, Note_on_c, 11, 53, 127
12, 158856, Note_off_c, 11, 53, 64
12, 158880, Note_on_c, 11, 55, 127
12, 158976, Note_off_c, 11, 55, 64
12, 159000, Note_on_c, 11, 57, 127
12, 159096, Note_off_c, 11, 57, 64
12, 159120, Note_on_c, 11, 58, 127
12, 159216, Note_off_c, 11, 58, 64
12, 159240, Note_on_c, 11, 60, 127
12, 159336, Note_off_c, 11, 60, 64
12, 159360, Note_on_c, 11, 62, 127
12, 159552, Note_off_c, 11, 62, 64
12, 159840, Note_on_c, 11, 58, 127
12, 160032, Note_off_c, 11, 58, 64
12, 160320, Note_on_c, 11, 53, 127
12, 160512, Note_off_c, 11, 53, 64
12, 160800, Note_on_c, 11, 58, 127
12, 160992, Note_off_c, 11, 58, 64
12, 161280, Note_on_c, 11, 50, 127
12, 161472, Note_off_c, 11, 50, 64
12, 161760, Note_on_c, 11, 53, 127
12, 161952, Note_off_c, 11, 53, 64
12, 162240, Note_on_c, 11, 46, 127
12, 162432, Note_off_c, 11, 46, 64
12, 162720, Note_on_c, 11, 50, 127
12, 162912, Note_off_c, 11, 50, 64
12, 163200, Note_on_c, 11, 43, 127
12, 163392, Note_off_c, 11, 43, 64
12, 163680, Note_on_c, 11, 51, 127
12, 163872, Note_off_c, 11, 51, 64
12, 164160, Note_on_c, 11, 48, 127
12, 164352, Note_off_c, 11, 48, 64
12, 164640, Note_on_c, 11, 46, 127
12, 164832, Note_off_c, 11, 46, 64
12, 165120, Note_on_c, 11, 45, 127
12, 165312, Note_off_c, 11, 45, 64
12, 165600, Note_on_c, 11, 53, 127
12, 165792, Note_off_c, 11, 53, 64
12, 166080, Note_on_c, 11, 51, 127
12, 166272, Note_off_c, 11, 51, 64
12, 166560, Note_on_c, 11, 48, 127
12, 166752, Note_off_c, 11, 48, 64
12, 167040, Note_on_c, 11, 46, 127
12, 170496, Note_off_c, 11, 46, 64
12, 170880, Note_on_c, 11, 51, 127
12, 172416, Note_off_c, 11, 51, 64
12, 172800, Note_on_c, 11, 53, 127
12, 174336, Note_off_c, 11, 53, 64
12, 174720, Note_on_c, 11, 46, 127
12, 176256, Note_off_c, 11, 46, 64
12, 176640, Note_on_c, 11, 45, 127
12, 178176, Note_off_c, 11, 45, 64
12, 178560, Note_on_c, 11, 50, 127
12, 180096, Note_off_c, 11, 50, 64
12, 180480, Note_on_c, 11, 48, 127
12, 182850, Note_off_c, 11, 48, 64
12, 182880, Note_on_c, 11, 60, 127
12, 183072, Note_off_c, 11, 60, 64
12, 183360, Note_on_c, 11, 58, 127
12, 183552, Note_off_c, 11, 58, 64
12, 183840, Note_on_c, 11, 55, 127
12, 184032, Note_off_c, 11, 55, 64
12, 184320, Note_on_c, 11, 56, 127
12, 184512, Note_off_c, 11, 56, 64
12, 184800, Note_on_c, 11, 53, 127
12, 184992, Note_off_c, 11, 53, 64
12, 185280, Note_on_c, 11, 51, 127
12, 185472, Note_off_c, 11, 51, 64
12, 185760, Note_on_c, 11, 49, 127
12, 185952, Note_off_c, 11, 49, 64
12, 186240, Note_on_c, 11, 48, 127
12, 186624, Note_off_c, 11, 48, 64
12, 192480, Note_on_c, 11, 53, 125
12, 193440, Note_off_c, 11, 53, 64
12, 193440, Note_on_c, 11, 48, 96
12, 193776, Note_off_c, 11, 48, 64
12, 193920, Note_on_c, 11, 48, 127
12, 194256, Note_off_c, 11, 48, 64
12, 209280, Note_on_c, 11, 41, 34
12, 216960, Note_off_c, 11, 41, 64
12, 216960, Note_on_c, 11, 50, 34
12, 220800, Note_off_c, 11, 50, 64
12, 220800, Note_on_c, 11, 45, 32
12, 220992, Note_off_c, 11, 45, 64
12, 222240, Note_on_c, 11, 45, 32
12, 222432, Note_off_c, 11, 45, 64
12, 222720, Note_on_c, 11, 45, 32
12, 222912, Note_off_c, 11, 45, 64
12, 224160, Note_on_c, 11, 45, 32
12, 224352, Note_off_c, 11, 45, 64
12, 224640, Note_on_c, 11, 45, 32
12, 224832, Note_off_c, 11, 45, 64
12, 226080, Note_on_c, 11, 45, 32
12, 226272, Note_off_c, 11, 45, 64
12, 226560, Note_on_c, 11, 45, 32
12, 226752, Note_off_c, 11, 45, 64
12, 228000, Note_on_c, 11, 45, 32
12, 228192, Note_off_c, 11, 45, 64
12, 228480, Note_on_c, 11, 45, 39
12, 228864, Note_off_c, 11, 45, 64
12, 229920, Note_on_c, 11, 45, 39
12, 230304, Note_off_c, 11, 45, 64
12, 230400, Note_on_c, 11, 45, 39
12, 230784, Note_off_c, 11, 45, 64
12, 231840, Note_on_c, 11, 45, 39
12, 232224, Note_off_c, 11, 45, 64
12, 232320, Note_on_c, 11, 45, 39
12, 232704, Note_off_c, 11, 45, 64
12, 233760, Note_on_c, 11, 45, 39
12, 234144, Note_off_c, 11, 45, 64
12, 234240, Note_on_c, 11, 45, 39
12, 234624, Note_off_c, 11, 45, 64
12, 235680, Note_on_c, 11, 45, 39
12, 236064, Note_off_c, 11, 45, 64
12, 236160, Note_on_c, 11, 45, 31
12, 236640, Note_off_c, 11, 45, 64
12, 237120, Note_on_c, 11, 46, 32
12, 237600, Note_off_c, 11, 46, 64
12, 238080, Note_on_c, 11, 43, 32
12, 238560, Note_off_c, 11, 43, 64
12, 239040, Note_on_c, 11, 47, 32
12, 239520, Note_off_c, 11, 47, 64
12, 240000, Note_on_c, 11, 48, 32
12, 240480, Note_off_c, 11, 48, 64
12, 240960, Note_on_c, 11, 45, 32
12, 241440, Note_off_c, 11, 45, 64
12, 241920, Note_on_c, 11, 48, 31
12, 242400, Note_off_c, 11, 48, 64
12, 242880, Note_on_c, 11, 50, 36
12, 243360, Note_off_c, 11, 50, 64
12, 243840, Note_on_c, 11, 46, 40
12, 244320, Note_off_c, 11, 46, 64
12, 244800, Note_on_c, 11, 50, 44
12, 245280, Note_off_c, 11, 50, 64
12, 245760, Note_on_c, 11, 52, 49
12, 246240, Note_off_c, 11, 52, 64
12, 246720, Note_on_c, 11, 48, 53
12, 247200, Note_off_c, 11, 48, 64
12, 247680, Note_on_c, 11, 52, 57
12, 248160, Note_off_c, 11, 52, 64
12, 248640, Note_on_c, 11, 53, 61
12, 249120, Note_off_c, 11, 53, 64
12, 249600, Note_on_c, 11, 50, 66
12, 250080, Note_off_c, 11, 50, 64
12, 250560, Note_on_c, 11, 54, 70
12, 251040, Note_off_c, 11, 54, 64
12, 251520, Note_on_c, 11, 55, 74
12, 252000, Note_off_c, 11, 55, 64
12, 252480, Note_on_c, 11, 52, 79
12, 252960, Note_off_c, 11, 52, 64
12, 253440, Note_on_c, 11, 55, 83
12, 253920, Note_off_c, 11, 55, 64
12, 254400, Note_on_c, 11, 57, 87
12, 254880, Note_off_c, 11, 57, 64
12, 255360, Note_on_c, 11, 58, 92
12, 255840, Note_off_c, 11, 58, 64
12, 256320, Note_on_c, 11, 59, 96
12, 256800, Note_off_c, 11, 59, 64
12, 257280, Note_on_c, 11, 48, 92
12, 257760, Note_off_c, 11, 48, 64
12, 258240, Note_on_c, 11, 58, 96
12, 258720, Note_off_c, 11, 58, 64
12, 259200, Note_on_c, 11, 55, 92
12, 259680, Note_off_c, 11, 55, 64
12, 260160, Note_on_c, 11, 52, 96
12, 260640, Note_off_c, 11, 52, 64
12, 261120, Note_on_c, 11, 48, 92
12, 261600, Note_off_c, 11, 48, 64
12, 262080, Note_on_c, 11, 46, 96
12, 262560, Note_off_c, 11, 46, 64
12, 263040, Note_on_c, 11, 45, 80
12, 264192, Note_off_c, 11, 45, 64
12, 264480, Note_on_c, 11, 41, 80
12, 264768, Note_off_c, 11, 41, 64
12, 264960, Note_on_c, 11, 46, 80
12, 266112, Note_off_c, 11, 46, 64
12, 266400, Note_on_c, 11, 43, 80
12, 266688, Note_off_c, 11, 43, 64
12, 266880, Note_on_c, 11, 48, 80
12, 268032, Note_off_c, 11, 48, 64
12, 268320, Note_on_c, 11, 48, 80
12, 268608, Note_off_c, 11, 48, 64
12, 268800, Note_on_c, 11, 46, 80
12, 269088, Note_off_c, 11, 46, 64
12, 269280, Note_on_c, 11, 46, 80
12, 269568, Note_off_c, 11, 46, 64
12, 269760, Note_on_c, 11, 46, 80
12, 270048, Note_off_c, 11, 46, 64
12, 270240, Note_on_c, 11, 46, 80
12, 270528, Note_off_c, 11, 46, 64
12, 270720, Note_on_c, 11, 45, 80
12, 271200, Note_off_c, 11, 45, 64
12, 271200, Note_on_c, 11, 41, 80
12, 271440, Note_off_c, 11, 41, 64
12, 271680, Note_on_c, 11, 46, 80
12, 272160, Note_off_c, 11, 46, 64
12, 272160, Note_on_c, 11, 43, 80
12, 272400, Note_off_c, 11, 43, 64
12, 272640, Note_on_c, 11, 48, 80
12, 272928, Note_off_c, 11, 48, 64
12, 273120, Note_on_c, 11, 60, 80
12, 273408, Note_off_c, 11, 60, 64
12, 273600, Note_on_c, 11, 48, 80
12, 273888, Note_off_c, 11, 48, 64
12, 274080, Note_on_c, 11, 48, 80
12, 274368, Note_off_c, 11, 48, 64
12, 274560, Note_on_c, 11, 53, 56
12, 274944, Note_off_c, 11, 53, 64
12, 276480, Note_on_c, 11, 53, 32
12, 277920, Note_off_c, 11, 53, 64
12, 277920, Note_on_c, 11, 48, 32
12, 278400, Note_off_c, 11, 48, 64
12, 278400, Note_on_c, 11, 53, 32
12, 278880, Note_off_c, 11, 53, 64
12, 280320, Note_on_c, 11, 53, 32
12, 281760, Note_off_c, 11, 53, 64
12, 281760, Note_on_c, 11, 53, 32
12, 282240, Note_off_c, 11, 53, 64
12, 282240, Note_on_c, 11, 48, 32
12, 282720, Note_off_c, 11, 48, 64
12, 284160, Note_on_c, 11, 48, 32
12, 285600, Note_off_c, 11, 48, 64
12, 285600, Note_on_c, 11, 48, 32
12, 286080, Note_off_c, 11, 48, 64
12, 286080, Note_on_c, 11, 48, 32
12, 286560, Note_off_c, 11, 48, 64
12, 288000, Note_on_c, 11, 48, 32
12, 289440, Note_off_c, 11, 48, 64
12, 289440, Note_on_c, 11, 48, 80
12, 289824, Note_off_c, 11, 48, 64
12, 289920, Note_on_c, 11, 53, 80
12, 290304, Note_off_c, 11, 53, 64
12, 291360, Note_on_c, 11, 60, 80
12, 291600, Note_off_c, 11, 60, 64
12, 291840, Note_on_c, 11, 57, 80
12, 292320, Note_off_c, 11, 57, 64
12, 292320, Note_on_c, 11, 58, 80
12, 292560, Note_off_c, 11, 58, 64
12, 292800, Note_on_c, 11, 60, 80
12, 293040, Note_off_c, 11, 60, 64
12, 293280, Note_on_c, 11, 48, 80
12, 293520, Note_off_c, 11, 48, 64
12, 293760, Note_on_c, 11, 53, 80
12, 294912, Note_off_c, 11, 53, 64
12, 295200, Note_on_c, 11, 55, 80
12, 295440, Note_off_c, 11, 55, 64
12, 295680, Note_on_c, 11, 57, 80
12, 296160, Note_off_c, 11, 57, 64
12, 296160, Note_on_c, 11, 53, 80
12, 296400, Note_off_c, 11, 53, 64
12, 296640, Note_on_c, 11, 57, 80
12, 296880, Note_off_c, 11, 57, 64
12, 297120, Note_on_c, 11, 58, 80
12, 297360, Note_off_c, 11, 58, 64
12, 297600, Note_on_c, 11, 60, 80
12, 298752, Note_off_c, 11, 60, 64
12, 299040, Note_on_c, 11, 62, 80
12, 299280, Note_off_c, 11, 62, 64
12, 299520, Note_on_c, 11, 64, 80
12, 300000, Note_off_c, 11, 64, 64
12, 300000, Note_on_c, 11, 65, 80
12, 300240, Note_off_c, 11, 65, 64
12, 300480, Note_on_c, 11, 67, 80
12, 300720, Note_off_c, 11, 67, 64
12, 300960, Note_on_c, 11, 65, 80
12, 301200, Note_off_c, 11, 65, 64
12, 301440, Note_on_c, 11, 64, 80
12, 302592, Note_off_c, 11, 64, 64
12, 302880, Note_on_c, 11, 62, 80
12, 303120, Note_off_c, 11, 62, 64
12, 303360, Note_on_c, 11, 60, 80
12, 303840, Note_off_c, 11, 60, 64
12, 303840, Note_on_c, 11, 62, 80
12, 304080, Note_off_c, 11, 62, 64
12, 304320, Note_on_c, 11, 58, 64
12, 304560, Note_off_c, 11, 58, 64
12, 304800, Note_on_c, 11, 55, 64
12, 305040, Note_off_c, 11, 55, 64
12, 305280, Note_on_c, 11, 52, 51
12, 305730, Note_off_c, 11, 52, 64
12, 312960, Note_on_c, 11, 53, 127
12, 313200, Note_off_c, 11, 53, 64
12, 314400, Note_on_c, 11, 50, 127
12, 314640, Note_off_c, 11, 50, 64
12, 314880, Note_on_c, 11, 46, 127
12, 315120, Note_off_c, 11, 46, 64
12, 315840, Note_on_c, 11, 48, 127
12, 316080, Note_off_c, 11, 48, 64
12, 320640, Note_on_c, 11, 53, 127
12, 320880, Note_off_c, 11, 53, 64
12, 322080, Note_on_c, 11, 50, 127
12, 322320, Note_off_c, 11, 50, 64
12, 322560, Note_on_c, 11, 46, 127
12, 322800, Note_off_c, 11, 46, 64
12, 323520, Note_on_c, 11, 48, 127
12, 323760, Note_off_c, 11, 48, 64
12, 336000, Note_on_c, 11, 65, 127
12, 336192, Note_off_c, 11, 65, 64
12, 336240, Note_on_c, 11, 49, 127
12, 336432, Note_off_c, 11, 49, 64
12, 336480, Note_on_c, 11, 49, 127
12, 336672, Note_off_c, 11, 49, 64
12, 336720, Note_on_c, 11, 49, 127
12, 336912, Note_off_c, 11, 49, 64
12, 336960, Note_on_c, 11, 49, 127
12, 337152, Note_off_c, 11, 49, 64
12, 337200, Note_on_c, 11, 49, 127
12, 337392, Note_off_c, 11, 49, 64
12, 337440, Note_on_c, 11, 49, 127
12, 337632, Note_off_c, 11, 49, 64
12, 337680, Note_on_c, 11, 49, 127
12, 337872, Note_off_c, 11, 49, 64
12, 337920, Note_on_c, 11, 49, 127
12, 338112, Note_off_c, 11, 49, 64
12, 338160, Note_on_c, 11, 49, 127
12, 338352, Note_off_c, 11, 49, 64
12, 338400, Note_on_c, 11, 49, 127
12, 338592, Note_off_c, 11, 49, 64
12, 338640, Note_on_c, 11, 49, 127
12, 338832, Note_off_c, 11, 49, 64
12, 338880, Note_on_c, 11, 49, 127
12, 339072, Note_off_c, 11, 49, 64
12, 339120, Note_on_c, 11, 49, 127
12, 339312, Note_off_c, 11, 49, 64
12, 339360, Note_on_c, 11, 49, 127
12, 339552, Note_off_c, 11, 49, 64
12, 339600, Note_on_c, 11, 49, 127
12, 339792, Note_off_c, 11, 49, 64
12, 339840, Note_on_c, 11, 48, 127
12, 340032, Note_off_c, 11, 48, 64
12, 340080, Note_on_c, 11, 48, 127
12, 340272, Note_off_c, 11, 48, 64
12, 340320, Note_on_c, 11, 48, 127
12, 340512, Note_off_c, 11, 48, 64
12, 340560, Note_on_c, 11, 48, 127
12, 340752, Note_off_c, 11, 48, 64
12, 340800, Note_on_c, 11, 48, 127
12, 340992, Note_off_c, 11, 48, 64
12, 341040, Note_on_c, 11, 48, 127
12, 341232, Note_off_c, 11, 48, 64
12, 341280, Note_on_c, 11, 48, 127
12, 341472, Note_off_c, 11, 48, 64
12, 341520, Note_on_c, 11, 48, 127
12, 341712, Note_off_c, 11, 48, 64
12, 341760, Note_on_c, 11, 48, 127
12, 341952, Note_off_c, 11, 48, 64
12, 342000, Note_on_c, 11, 48, 127
12, 342192, Note_off_c, 11, 48, 64
12, 342240, Note_on_c, 11, 48, 127
12, 342432, Note_off_c, 11, 48, 64
12, 342480, Note_on_c, 11, 48, 127
12, 342672, Note_off_c, 11, 48, 64
12, 342720, Note_on_c, 11, 48, 127
12, 342912, Note_off_c, 11, 48, 64
12, 342960, Note_on_c, 11, 48, 127
12, 343152, Note_off_c, 11, 48, 64
12, 343200, Note_on_c, 11, 48, 127
12, 343392, Note_off_c, 11, 48, 64
12, 343440, Note_on_c, 11, 48, 127
12, 343632, Note_off_c, 11, 48, 64
12, 343680, Note_on_c, 11, 41, 127
12, 344064, Note_off_c, 11, 41, 64
12, 349920, Note_on_c, 11, 48, 112
12, 350688, Note_off_c, 11, 48, 64
12, 350880, Note_on_c, 11, 48, 112
12, 351120, Note_off_c, 11, 48, 64
12, 351360, Note_on_c, 11, 41, 112
12, 351600, Note_off_c, 11, 41, 64
12, 357600, Note_on_c, 11, 48, 112
12, 358368, Note_off_c, 11, 48, 64
12, 358560, Note_on_c, 11, 48, 112
12, 358800, Note_off_c, 11, 48, 64
12, 359040, Note_on_c, 11, 41, 112
12, 359280, Note_off_c, 11, 41, 64
12, 361440, Note_on_c, 11, 48, 112
12, 362208, Note_off_c, 11, 48, 64
12, 362400, Note_on_c, 11, 48, 112
12, 362640, Note_off_c, 11, 48, 64
12, 362880, Note_on_c, 11, 41, 127
12, 364720, Note_off_c, 11, 41, 64
12, 364740, Note_on_c, 11, 41, 109
12, 364776, Note_off_c, 11, 41, 64
12, 364800, Note_on_c, 11, 41, 127
12, 364896, Note_off_c, 11, 41, 64
12, 366720, Note_on_c, 11, 41, 127
12, 368560, Note_off_c, 11, 41, 64
12, 368580, Note_on_c, 11, 41, 109
12, 368616, Note_off_c, 11, 41, 64
12, 368640, Note_on_c, 11, 41, 127
12, 368880, Note_off_c, 11, 41, 64
12, 370560, Note_on_c, 11, 41, 127
12, 370800, Note_off_c, 11, 41, 64
12, 372480, Note_on_c, 11, 41, 102
12, 372720, Note_off_c, 11, 41, 64
12, 373440, Note_on_c, 11, 41, 102
12, 373680, Note_off_c, 11, 41, 64
12, 374400, Note_on_c, 11, 41, 102
12, 374640, Note_off_c, 11, 41, 64
12, 375360, Note_on_c, 11, 41, 102
12, 375600, Note_off_c, 11, 41, 64
12, 376320, Note_on_c, 11, 46, 102
12, 376546, Note_off_c, 11, 46, 64
12, 382080, Note_on_c, 11, 58, 48
12, 382272, Note_off_c, 11, 58, 64
12, 382320, Note_on_c, 11, 58, 48
12, 382512, Note_off_c, 11, 58, 64
12, 382560, Note_on_c, 11, 58, 48
12, 382752, Note_off_c, 11, 58, 64
12, 382800, Note_on_c, 11, 58, 48
12, 382992, Note_off_c, 11, 58, 64
12, 383040, Note_on_c, 11, 58, 48
12, 383232, Note_off_c, 11, 58, 64
12, 383280, Note_on_c, 11, 58, 48
12, 383472, Note_off_c, 11, 58, 64
12, 383520, Note_on_c, 11, 58, 48
12, 383712, Note_off_c, 11, 58, 64
12, 383760, Note_on_c, 11, 58, 48
12, 383952, Note_off_c, 11, 58, 64
12, 384000, Note_on_c, 11, 58, 48
12, 384192, Note_off_c, 11, 58, 64
12, 391680, Note_on_c, 11, 41, 102
12, 391920, Note_off_c, 11, 41, 64
12, 393600, Note_on_c, 11, 41, 102
12, 393840, Note_off_c, 11, 41, 64
12, 394560, Note_on_c, 11, 41, 102
12, 394800, Note_off_c, 11, 41, 64
12, 395520, Note_on_c, 11, 46, 100
12, 395904, Note_off_c, 11, 46, 64
12, 396000, Note_on_c, 11, 46, 100
12, 396384, Note_off_c, 11, 46, 64
12, 396480, Note_on_c, 11, 46, 100
12, 396864, Note_off_c, 11, 46, 64
12, 396960, Note_on_c, 11, 46, 100
12, 397344, Note_off_c, 11, 46, 64
12, 397440, Note_on_c, 11, 46, 100
12, 397824, Note_off_c, 11, 46, 64
12, 397920, Note_on_c, 11, 46, 100
12, 398304, Note_off_c, 11, 46, 64
12, 398400, Note_on_c, 11, 46, 100
12, 398784, Note_off_c, 11, 46, 64
12, 398880, Note_on_c, 11, 46, 100
12, 399264, Note_off_c, 11, 46, 64
12, 399360, Note_on_c, 11, 46, 100
12, 399744, Note_off_c, 11, 46, 64
12, 399840, Note_on_c, 11, 46, 100
12, 400224, Note_off_c, 11, 46, 64
12, 400320, Note_on_c, 11, 46, 100
12, 400704, Note_off_c, 11, 46, 64
12, 400800, Note_on_c, 11, 46, 100
12, 401184, Note_off_c, 11, 46, 64
12, 401280, Note_on_c, 11, 46, 100
12, 401664, Note_off_c, 11, 46, 64
12, 401760, Note_on_c, 11, 46, 100
12, 402144, Note_off_c, 11, 46, 64
12, 402240, Note_on_c, 11, 46, 100
12, 402624, Note_off_c, 11, 46, 64
12, 402720, Note_on_c, 11, 46, 100
12, 403104, Note_off_c, 11, 46, 64
12, 403200, Note_on_c, 11, 46, 100
12, 403584, Note_off_c, 11, 46, 64
12, 403680, Note_on_c, 11, 58, 96
12, 404160, Note_off_c, 11, 58, 64
12, 404160, Note_on_c, 11, 57, 96
12, 404640, Note_off_c, 11, 57, 64
12, 404640, Note_on_c, 11, 55, 96
12, 405120, Note_off_c, 11, 55, 64
12, 405120, Note_on_c, 11, 53, 96
12, 405600, Note_off_c, 11, 53, 64
12, 405600, Note_on_c, 11, 51, 96
12, 406080, Note_off_c, 11, 51, 64
12, 406080, Note_on_c, 11, 50, 96
12, 406560, Note_off_c, 11, 50, 64
12, 406560, Note_on_c, 11, 51, 96
12, 407040, Note_off_c, 11, 51, 64
12, 407040, Note_on_c, 11, 53, 96
12, 410496, Note_off_c, 11, 53, 64
12, 410880, Note_on_c, 11, 53, 102
12, 411240, Note_off_c, 11, 53, 64
12, 412800, Note_on_c, 11, 55, 102
12, 413160, Note_off_c, 11, 55, 64
12, 414720, Note_on_c, 11, 48, 102
12, 415080, Note_off_c, 11, 48, 64
12, 416640, Note_on_c, 11, 53, 102
12, 417000, Note_off_c, 11, 53, 64
12, 441600, Note_on_c, 11, 46, 51
12, 441792, Note_off_c, 11, 46, 64
12, 441840, Note_on_c, 11, 46, 52
12, 442032, Note_off_c, 11, 46, 64
12, 442080, Note_on_c, 11, 46, 54
12, 442272, Note_off_c, 11, 46, 64
12, 442320, Note_on_c, 11, 46, 54
12, 442512, Note_off_c, 11, 46, 64
12, 442560, Note_on_c, 11, 46, 56
12, 442752, Note_off_c, 11, 46, 64
12, 442800, Note_on_c, 11, 46, 58
12, 442992, Note_off_c, 11, 46, 64
12, 443040, Note_on_c, 11, 46, 58
12, 443232, Note_off_c, 11, 46, 64
12, 443280, Note_on_c, 11, 46, 60
12, 443472, Note_off_c, 11, 46, 64
12, 443520, Note_on_c, 11, 46, 67
12, 443712, Note_off_c, 11, 46, 64
12, 443760, Note_on_c, 11, 46, 68
12, 443952, Note_off_c, 11, 46, 64
12, 444000, Note_on_c, 11, 46, 70
12, 444192, Note_off_c, 11, 46, 64
12, 444240, Note_on_c, 11, 46, 72
12, 444432, Note_off_c, 11, 46, 64
12, 444480, Note_on_c, 11, 46, 73
12, 444672, Note_off_c, 11, 46, 64
12, 444720, Note_on_c, 11, 46, 74
12, 444912, Note_off_c, 11, 46, 64
12, 444960, Note_on_c, 11, 46, 76
12, 445152, Note_off_c, 11, 46, 64
12, 445200, Note_on_c, 11, 46, 77
12, 445392, Note_off_c, 11, 46, 64
12, 445440, Note_on_c, 11, 46, 92
12, 445632, Note_off_c, 11, 46, 64
12, 445680, Note_on_c, 11, 46, 95
12, 445872, Note_off_c, 11, 46, 64
12, 445920, Note_on_c, 11, 46, 96
12, 446112, Note_off_c, 11, 46, 64
12, 446160, Note_on_c, 11, 46, 98
12, 446352, Note_off_c, 11, 46, 64
12, 446400, Note_on_c, 11, 46, 100
12, 446592, Note_off_c, 11, 46, 64
12, 446640, Note_on_c, 11, 46, 101
12, 446832, Note_off_c, 11, 46, 64
12, 446880, Note_on_c, 11, 46, 103
12, 447072, Note_off_c, 11, 46, 64
12, 447120, Note_on_c, 11, 46, 105
12, 447312, Note_off_c, 11, 46, 64
12, 447360, Note_on_c, 11, 46, 107
12, 447552, Note_off_c, 11, 46, 64
12, 447600, Note_on_c, 11, 46, 108
12, 447792, Note_off_c, 11, 46, 64
12, 447840, Note_on_c, 11, 46, 109
12, 448032, Note_off_c, 11, 46, 64
12, 448080, Note_on_c, 11, 46, 112
12, 448272, Note_off_c, 11, 46, 64
12, 448320, Note_on_c, 11, 46, 113
12, 448512, Note_off_c, 11, 46, 64
12, 448680, Note_on_c, 11, 53, 127
12, 448776, Note_off_c, 11, 53, 64
12, 448800, Note_on_c, 11, 55, 127
12, 448896, Note_off_c, 11, 55, 64
12, 448920, Note_on_c, 11, 57, 127
12, 449016, Note_off_c, 11, 57, 64
12, 449040, Note_on_c, 11, 58, 127
12, 449136, Note_off_c, 11, 58, 64
12, 449160, Note_on_c, 11, 60, 127
12, 449256, Note_off_c, 11, 60, 64
12, 449280, Note_on_c, 11, 62, 127
12, 449472, Note_off_c, 11, 62, 64
12, 449760, Note_on_c, 11, 58, 127
12, 449952, Note_off_c, 11, 58, 64
12, 450240, Note_on_c, 11, 53, 127
12, 450432, Note_off_c, 11, 53, 64
12, 450720, Note_on_c, 11, 58, 127
12, 450912, Note_off_c, 11, 58, 64
12, 451200, Note_on_c, 11, 50, 127
12, 451392, Note_off_c, 11, 50, 64
12, 451680, Note_on_c, 11, 53, 127
12, 451872, Note_off_c, 11, 53, 64
12, 452160, Note_on_c, 11, 46, 127
12, 452352, Note_off_c, 11, 46, 64
12, 452640, Note_on_c, 11, 50, 127
12, 452832, Note_off_c, 11, 50, 64
12, 453120, Note_on_c, 11, 43, 127
12, 453312, Note_off_c, 11, 43, 64
12, 453600, Note_on_c, 11, 51, 127
12, 453792, Note_off_c, 11, 51, 64
12, 454080, Note_on_c, 11, 48, 127
12, 454272, Note_off_c, 11, 48, 64
12, 454560, Note_on_c, 11, 46, 127
12, 454752, Note_off_c, 11, 46, 64
12, 455040, Note_on_c, 11, 45, 127
12, 455232, Note_off_c, 11, 45, 64
12, 455520, Note_on_c, 11, 53, 127
12, 455712, Note_off_c, 11, 53, 64
12, 456000, Note_on_c, 11, 51, 127
12, 456192, Note_off_c, 11, 51, 64
12, 456480, Note_on_c, 11, 48, 127
12, 456672, Note_off_c, 11, 48, 64
12, 456960, Note_on_c, 11, 46, 127
12, 460416, Note_off_c, 11, 46, 64
12, 460800, Note_on_c, 11, 51, 127
12, 462336, Note_off_c, 11, 51, 64
12, 462720, Note_on_c, 11, 53, 127
12, 464256, Note_off_c, 11, 53, 64
12, 464640, Note_on_c, 11, 46, 127
12, 466176, Note_off_c, 11, 46, 64
12, 466560, Note_on_c, 11, 45, 127
12, 468096, Note_off_c, 11, 45, 64
12, 468480, Note_on_c, 11, 50, 127
12, 470016, Note_off_c, 11, 50, 64
12, 470400, Note_on_c, 11, 48, 127
12, 472770, Note_off_c, 11, 48, 64
12, 472800, Note_on_c, 11, 60, 127
12, 472992, Note_off_c, 11, 60, 64
12, 473280, Note_on_c, 11, 58, 127
12, 473472, Note_off_c, 11, 58, 64
12, 473760, Note_on_c, 11, 55, 127
12, 473952, Note_off_c, 11, 55, 64
12, 474240, Note_on_c, 11, 56, 127
12, 474432, Note_off_c, 11, 56, 64
12, 474720, Note_on_c, 11, 53, 127
12, 474912, Note_off_c, 11, 53, 64
12, 475200, Note_on_c, 11, 51, 127
12, 475392, Note_off_c, 11, 51, 64
12, 475680, Note_on_c, 11, 49, 127
12, 475872, Note_off_c, 11, 49, 64
12, 476160, Note_on_c, 11, 48, 127
12, 476544, Note_off_c, 11, 48, 64
12, 482400, Note_on_c, 11, 53, 125
12, 483360, Note_off_c, 11, 53, 64
12, 483360, Note_on_c, 11, 48, 96
12, 483696, Note_off_c, 11, 48, 64
12, 483840, Note_on_c, 11, 48, 127
12, 484176, Note_off_c, 11, 48, 64
12, 499200, Note_on_c, 11, 41, 34
12, 506880, Note_off_c, 11, 41, 64
12, 506880, Note_on_c, 11, 50, 34
12, 510720, Note_off_c, 11, 50, 64
12, 510720, Note_on_c, 11, 45, 32
12, 510912, Note_off_c, 11, 45, 64
12, 512160, Note_on_c, 11, 45, 32
12, 512352, Note_off_c, 11, 45, 64
12, 512640, Note_on_c, 11, 45, 32
12, 512832, Note_off_c, 11, 45, 64
12, 514080, Note_on_c, 11, 45, 32
12, 514272, Note_off_c, 11, 45, 64
12, 514560, Note_on_c, 11, 45, 32
12, 514752, Note_off_c, 11, 45, 64
12, 516000, Note_on_c, 11, 45, 32
12, 516192, Note_off_c, 11, 45, 64
12, 516480, Note_on_c, 11, 45, 32
12, 516672, Note_off_c, 11, 45, 64
12, 517920, Note_on_c, 11, 45, 32
12, 518112, Note_off_c, 11, 45, 64
12, 518400, Note_on_c, 11, 45, 39
12, 518784, Note_off_c, 11, 45, 64
12, 519840, Note_on_c, 11, 45, 39
12, 520224, Note_off_c, 11, 45, 64
12, 520320, Note_on_c, 11, 45, 39
12, 520704, Note_off_c, 11, 45, 64
12, 521760, Note_on_c, 11, 45, 39
12, 522144, Note_off_c, 11, 45, 64
12, 522240, Note_on_c, 11, 45, 39
12, 522624, Note_off_c, 11, 45, 64
12, 523680, Note_on_c, 11, 45, 39
12, 524064, Note_off_c, 11, 45, 64
12, 524160, Note_on_c, 11, 45, 39
12, 524544, Note_off_c, 11, 45, 64
12, 525600, Note_on_c, 11, 45, 39
12, 525984, Note_off_c, 11, 45, 64
12, 526080, Note_on_c, 11, 45, 31
12, 526560, Note_off_c, 11, 45, 64
12, 527040, Note_on_c, 11, 46, 32
12, 527520, Note_off_c, 11, 46, 64
12, 528000, Note_on_c, 11, 43, 32
12, 528480, Note_off_c, 11, 43, 64
12, 528960, Note_on_c, 11, 47, 32
12, 529440, Note_off_c, 11, 47, 64
12, 529920, Note_on_c, 11, 48, 32
12, 530400, Note_off_c, 11, 48, 64
12, 530880, Note_on_c, 11, 45, 32
12, 531360, Note_off_c, 11, 45, 64
12, 531840, Note_on_c, 11, 48, 31
12, 532320, Note_off_c, 11, 48, 64
12, 532800, Note_on_c, 11, 50, 36
12, 533280, Note_off_c, 11, 50, 64
12, 533760, Note_on_c, 11, 46, 40
12, 534240, Note_off_c, 11, 46, 64
12, 534720, Note_on_c, 11, 50, 44
12, 535200, Note_off_c, 11, 50, 64
12, 535680, Note_on_c, 11, 52, 49
12, 536160, Note_off_c, 11, 52, 64
12, 536640, Note_on_c, 11, 48, 53
12, 537120, Note_off_c, 11, 48, 64
12, 537600, Note_on_c, 11, 52, 57
12, 538080, Note_off_c, 11, 52, 64
12, 538560, Note_on_c, 11, 53, 61
12, 539040, Note_off_c, 11, 53, 64
12, 539520, Note_on_c, 11, 50, 66
12, 540000, Note_off_c, 11, 50, 64
12, 540480, Note_on_c, 11, 54, 70
12, 540960, Note_off_c, 11, 54, 64
12, 541440, Note_on_c, 11, 55, 74
12, 541920, Note_off_c, 11, 55, 64
12, 542400, Note_on_c, 11, 52, 79
12, 542880, Note_off_c, 11, 52, 64
12, 543360, Note_on_c, 11, 55, 83
12, 543840, Note_off_c, 11, 55, 64
12, 544320, Note_on_c, 11, 57, 87
12, 544800, Note_off_c, 11, 57, 64
12, 545280, Note_on_c, 11, 58, 92
12, 545760, Note_off_c, 11, 58, 64
12, 546240, Note_on_c, 11, 59, 96
12, 546720, Note_off_c, 11, 59, 64
12, 547200, Note_on_c, 11, 48, 92
12, 547680, Note_off_c, 11, 48, 64
12, 548160, Note_on_c, 11, 58, 96
12, 548640, Note_off_c, 11, 58, 64
12, 549120, Note_on_c, 11, 55, 92
12, 549600, Note_off_c, 11, 55, 64
12, 550080, Note_on_c, 11, 52, 96
12, 550560, Note_off_c, 11, 52, 64
12, 551040, Note_on_c, 11, 48, 92
12, 551520, Note_off_c, 11, 48, 64
12, 552000, Note_on_c, 11, 46, 96
12, 552480, Note_off_c, 11, 46, 64
12, 552960, Note_on_c, 11, 45, 80
12, 554112, Note_off_c, 11, 45, 64
12, 554400, Note_on_c, 11, 41, 80
12, 554688, Note_off_c, 11, 41, 64
12, 554880, Note_on_c, 11, 46, 80
12, 556032, Note_off_c, 11, 46, 64
12, 556320, Note_on_c, 11, 43, 80
12, 556608, Note_off_c, 11, 43, 64
12, 556800, Note_on_c, 11, 48, 80
12, 557952, Note_off_c, 11, 48, 64
12, 558240, Note_on_c, 11, 48, 80
12, 558528, Note_off_c, 11, 48, 64
12, 558720, Note_on_c, 11, 46, 80
12, 559008, Note_off_c, 11, 46, 64
12, 559200, Note_on_c, 11, 46, 80
12, 559488, Note_off_c, 11, 46, 64
12, 559680, Note_on_c, 11, 46, 80
12, 559968, Note_off_c, 11, 46, 64
12, 560160, Note_on_c, 11, 46, 80
12, 560448, Note_off_c, 11, 46, 64
12, 560640, Note_on_c, 11, 45, 80
12, 561120, Note_off_c, 11, 45, 64
12, 561120, Note_on_c, 11, 41, 80
12, 561360, Note_off_c, 11, 41, 64
12, 561600, Note_on_c, 11, 46, 80
12, 562080, Note_off_c, 11, 46, 64
12, 562080, Note_on_c, 11, 43, 80
12, 562320, Note_off_c, 11, 43, 64
12, 562560, Note_on_c, 11, 48, 80
12, 562848, Note_off_c, 11, 48, 64
12, 563040, Note_on_c, 11, 60, 80
12, 563328, Note_off_c, 11, 60, 64
12, 563520, Note_on_c, 11, 48, 80
12, 563808, Note_off_c, 11, 48, 64
12, 564000, Note_on_c, 11, 48, 80
12, 564288, Note_off_c, 11, 48, 64
12, 564480, Note_on_c, 11, 53, 56
12, 564864, Note_off_c, 11, 53, 64
12, 566400, Note_on_c, 11, 53, 32
12, 567840, Note_off_c, 11, 53, 64
12, 567840, Note_on_c, 11, 48, 32
12, 568320, Note_off_c, 11, 48, 64
12, 568320, Note_on_c, 11, 53, 32
12, 568800, Note_off_c, 11, 53, 64
12, 570240, Note_on_c, 11, 53, 32
12, 571680, Note_off_c, 11, 53, 64
12, 571680, Note_on_c, 11, 53, 32
12, 572160, Note_off_c, 11, 53, 64
12, 572160, Note_on_c, 11, 48, 32
12, 572640, Note_off_c, 11, 48, 64
12, 574080, Note_on_c, 11, 48, 32
12, 575520, Note_off_c, 11, 48, 64
12, 575520, Note_on_c, 11, 48, 32
12, 576000, Note_off_c, 11, 48, 64
12, 576000, Note_on_c, 11, 48, 32
12, 576480, Note_off_c, 11, 48, 64
12, 577920, Note_on_c, 11, 48, 32
12, 579360, Note_off_c, 11, 48, 64
12, 579360, Note_on_c, 11, 48, 80
12, 579744, Note_off_c, 11, 48, 64
12, 579840, Note_on_c, 11, 53, 80
12, 580224, Note_off_c, 11, 53, 64
12, 581280, Note_on_c, 11, 60, 80
12, 581520, Note_off_c, 11, 60, 64
12, 581760, Note_on_c, 11, 57, 80
12, 582240, Note_off_c, 11, 57, 64
12, 582240, Note_on_c, 11, 58, 80
12, 582480, Note_off_c, 11, 58, 64
12, 582720, Note_on_c, 11, 60, 80
12, 582960, Note_off_c, 11, 60, 64
12, 583200, Note_on_c, 11, 48, 80
12, 583440, Note_off_c, 11, 48, 64
12, 583680, Note_on_c, 11, 53, 80
12, 584832, Note_off_c, 11, 53, 64
12, 585120, Note_on_c, 11, 55, 80
12, 585360, Note_off_c, 11, 55, 64
12, 585600, Note_on_c, 11, 57, 80
12, 586080, Note_off_c, 11, 57, 64
12, 586080, Note_on_c, 11, 53, 80
12, 586320, Note_off_c, 11, 53, 64
12, 586560, Note_on_c, 11, 57, 80
12, 586800, Note_off_c, 11, 57, 64
12, 587040, Note_on_c, 11, 58, 80
12, 587280, Note_off_c, 11, 58, 64
12, 587520, Note_on_c, 11, 60, 80
12, 588672, Note_off_c, 11, 60, 64
12, 588960, Note_on_c, 11, 62, 80
12, 589200, Note_off_c, 11, 62, 64
12, 589440, Note_on_c, 11, 64, 80
12, 589920, Note_off_c, 11, 64, 64
12, 589920, Note_on_c, 11, 65, 80
12, 590160, Note_off_c, 11, 65, 64
12, 590400, Note_on_c, 11, 67, 80
12, 590640, Note_off_c, 11, 67, 64
12, 590880, Note_on_c, 11, 65, 80
12, 591120, Note_off_c, 11, 65, 64
12, 591360, Note_on_c, 11, 64, 80
12, 592512, Note_off_c, 11, 64, 64
12, 592800, Note_on_c, 11, 62, 80
12, 593040, Note_off_c, 11, 62, 64
12, 593280, Note_on_c, 11, 60, 80
12, 593760, Note_off_c, 11, 60, 64
12, 593760, Note_on_c, 11, 62, 80
12, 594000, Note_off_c, 11, 62, 64
12, 594240, Note_on_c, 11, 58, 64
12, 594480, Note_off_c, 11, 58, 64
12, 594720, Note_on_c, 11, 55, 64
12, 594960, Note_off_c, 11, 55, 64
12, 595200, Note_on_c, 11, 52, 51
12, 595650, Note_off_c, 11, 52, 64
12, 602880, Note_on_c, 11, 53, 127
12, 603120, Note_off_c, 11, 53, 64
12, 604320, Note_on_c, 11, 50, 127
12, 604560, Note_off_c, 11, 50, 64
12, 604800, Note_on_c, 11, 46, 127
12, 605040, Note_off_c, 11, 46, 64
12, 605760, Note_on_c, 11, 48, 127
12, 606000, Note_off_c, 11, 48, 64
12, 610560, Note_on_c, 11, 53, 127
12, 610800, Note_off_c, 11, 53, 64
12, 612000, Note_on_c, 11, 50, 127
12, 612240, Note_off_c, 11, 50, 64
12, 612480, Note_on_c, 11, 46, 127
12, 612720, Note_off_c, 11, 46, 64
12, 613440, Note_on_c, 11, 48, 127
12, 613680, Note_off_c, 11, 48, 64
12, 625920, Note_on_c, 11, 65, 127
12, 626112, Note_off_c, 11, 65, 64
12, 626160, Note_on_c, 11, 49, 127
12, 626352, Note_off_c, 11, 49, 64
12, 626400, Note_on_c, 11, 49, 127
12, 626592, Note_off_c, 11, 49, 64
12, 626640, Note_on_c, 11, 49, 127
12, 626832, Note_off_c, 11, 49, 64
12, 626880, Note_on_c, 11, 49, 127
12, 627072, Note_off_c, 11, 49, 64
12, 627120, Note_on_c, 11, 49, 127
12, 627312, Note_off_c, 11, 49, 64
12, 627360, Note_on_c, 11, 49, 127
12, 627552, Note_off_c, 11, 49, 64
12, 627600, Note_on_c, 11, 49, 127
12, 627792, Note_off_c, 11, 49, 64
12, 627840, Note_on_c, 11, 49, 127
12, 628032, Note_off_c, 11, 49, 64
12, 628080, Note_on_c, 11, 49, 127
12, 628272, Note_off_c, 11, 49, 64
12, 628320, Note_on_c, 11, 49, 127
12, 628512, Note_off_c, 11, 49, 64
12, 628560, Note_on_c, 11, 49, 127
12, 628752, Note_off_c, 11, 49, 64
12, 628800, Note_on_c, 11, 49, 127
12, 628992, Note_off_c, 11, 49, 64
12, 629040, Note_on_c, 11, 49, 127
12, 629232, Note_off_c, 11, 49, 64
12, 629280, Note_on_c, 11, 49, 127
12, 629472, Note_off_c, 11, 49, 64
12, 629520, Note_on_c, 11, 49, 127
12, 629712, Note_off_c, 11, 49, 64
12, 629760, Note_on_c, 11, 48, 127
12, 629952, Note_off_c, 11, 48, 64
12, 630000, Note_on_c, 11, 48, 127
12, 630192, Note_off_c, 11, 48, 64
12, 630240, Note_on_c, 11, 48, 127
12, 630432, Note_off_c, 11, 48, 64
12, 630480, Note_on_c, 11, 48, 127
12, 630672, Note_off_c, 11, 48, 64
12, 630720, Note_on_c, 11, 48, 127
12, 630912, Note_off_c, 11, 48, 64
12, 630960, Note_on_c, 11, 48, 127
12, 631152, Note_off_c, 11, 48, 64
12, 631200, Note_on_c, 11, 48, 127
12, 631392, Note_off_c, 11, 48, 64
12, 631440, Note_on_c, 11, 48, 127
12, 631632, Note_off_c, 11, 48, 64
12, 631680, Note_on_c, 11, 48, 127
12, 631872, Note_off_c, 11, 48, 64
12, 631920, Note_on_c, 11, 48, 127
12, 632112, Note_off_c, 11, 48, 64
12, 632160, Note_on_c, 11, 48, 127
12, 632352, Note_off_c, 11, 48, 64
12, 632400, Note_on_c, 11, 48, 127
12, 632592, Note_off_c, 11, 48, 64
12, 632640, Note_on_c, 11, 48, 127
12, 632832, Note_off_c, 11, 48, 64
12, 632880, Note_on_c, 11, 48, 127
12, 633072, Note_off_c, 11, 48, 64
12, 633120, Note_on_c, 11, 48, 127
12, 633312, Note_off_c, 11, 48, 64
12, 633360, Note_on_c, 11, 48, 127
12, 633552, Note_off_c, 11, 48, 64
12, 633600, Note_on_c, 11, 41, 127
12, 633984, Note_off_c, 11, 41, 64
12, 639840, Note_on_c, 11, 48, 112
12, 640608, Note_off_c, 11, 48, 64
12, 640800, Note_on_c, 11, 48, 112
12, 641040, Note_off_c, 11, 48, 64
12, 641280, Note_on_c, 11, 41, 112
12, 641520, Note_off_c, 11, 41, 64
12, 647520, Note_on_c, 11, 48, 112
12, 648288, Note_off_c, 11, 48, 64
12, 648480, Note_on_c, 11, 48, 112
12, 648720, Note_off_c, 11, 48, 64
12, 648960, Note_on_c, 11, 41, 112
12, 649200, Note_off_c, 11, 41, 64
12, 649920, Note_on_c, 11, 41, 112
12, 650160, Note_off_c, 11, 41, 64
12, 650880, Note_on_c, 11, 41, 112
12, 651120, Note_off_c, 11, 41, 64
12, 651840, Note_on_c, 11, 41, 112
12, 652080, Note_off_c, 11, 41, 64
12, 652800, Note_on_c, 11, 41, 112
12, 653040, Note_off_c, 11, 41, 64
12, 658560, Note_on_c, 11, 57, 67
12, 658752, Note_off_c, 11, 57, 64
12, 659040, Note_on_c, 11, 60, 67
12, 659232, Note_off_c, 11, 60, 64
12, 659520, Note_on_c, 11, 53, 67
12, 659712, Note_off_c, 11, 53, 64
12, 660000, Note_on_c, 11, 57, 67
12, 660192, Note_off_c, 11, 57, 64
12, 660480, Note_on_c, 11, 48, 67
12, 660672, Note_off_c, 11, 48, 64
12, 666240, Note_on_c, 11, 52, 67
12, 666432, Note_off_c, 11, 52, 64
12, 666720, Note_on_c, 11, 55, 67
12, 666912, Note_off_c, 11, 55, 64
12, 667200, Note_on_c, 11, 48, 67
12, 667392, Note_off_c, 11, 48, 64
12, 667680, Note_on_c, 11, 48, 67
12, 667872, Note_off_c, 11, 48, 64
12, 668160, Note_on_c, 11, 41, 67
12, 668352, Note_off_c, 11, 41, 64
12, 670080, Note_on_c, 11, 57, 67
12, 670272, Note_off_c, 11, 57, 64
12, 670560, Note_on_c, 11, 60, 67
12, 670752, Note_off_c, 11, 60, 64
12, 671040, Note_on_c, 11, 53, 67
12, 671232, Note_off_c, 11, 53, 64
12, 671520, Note_on_c, 11, 57, 67
12, 671712, Note_off_c, 11, 57, 64
12, 672000, Note_on_c, 11, 46, 67
12, 672192, Note_off_c, 11, 46, 64
12, 673920, Note_on_c, 11, 55, 67
12, 674112, Note_off_c, 11, 55, 64
12, 674400, Note_on_c, 11, 58, 67
12, 674592, Note_off_c, 11, 58, 64
12, 674880, Note_on_c, 11, 50, 67
12, 675072, Note_off_c, 11, 50, 64
12, 675360, Note_on_c, 11, 55, 67
12, 675552, Note_off_c, 11, 55, 64
12, 675840, Note_on_c, 11, 48, 67
12, 676032, Note_off_c, 11, 48, 64
12, 677760, Note_on_c, 11, 53, 67
12, 677952, Note_off_c, 11, 53, 64
12, 678240, Note_on_c, 11, 57, 67
12, 678432, Note_off_c, 11, 57, 64
12, 678720, Note_on_c, 11, 48, 67
12, 678912, Note_off_c, 11, 48, 64
12, 679200, Note_on_c, 11, 53, 67
12, 679392, Note_off_c, 11, 53, 64
12, 679680, Note_on_c, 11, 48, 67
12, 679872, Note_off_c, 11, 48, 64
12, 681600, Note_on_c, 11, 48, 61
12, 681792, Note_off_c, 11, 48, 64
12, 682080, Note_on_c, 11, 52, 56
12, 682272, Note_off_c, 11, 52, 64
12, 682560, Note_on_c, 11, 43, 51
12, 682752, Note_off_c, 11, 43, 64
12, 683040, Note_on_c, 11, 48, 46
12, 683232, Note_off_c, 11, 48, 64
12, 683520, Note_on_c, 11, 49, 42
12, 683712, Note_off_c, 11, 49, 64
12, 684000, Note_on_c, 11, 52, 42
12, 684192, Note_off_c, 11, 52, 64
12, 684480, Note_on_c, 11, 49, 42
12, 684672, Note_off_c, 11, 49, 64
12, 684960, Note_on_c, 11, 52, 42
12, 685152, Note_off_c, 11, 52, 64
12, 685440, Note_on_c, 11, 45, 34
12, 685632, Note_off_c, 11, 45, 64
12, 685920, Note_on_c, 11, 52, 34
12, 686112, Note_off_c, 11, 52, 64
12, 686400, Note_on_c, 11, 49, 34
12, 686592, Note_off_c, 11, 49, 64
12, 686880, Note_on_c, 11, 52, 34
12, 687072, Note_off_c, 11, 52, 64
12, 687360, Note_on_c, 11, 49, 29
12, 687552, Note_off_c, 11, 49, 64
12, 687840, Note_on_c, 11, 52, 29
12, 688032, Note_off_c, 11, 52, 64
12, 688320, Note_on_c, 11, 49, 29
12, 688512, Note_off_c, 11, 49, 64
12, 688800, Note_on_c, 11, 52, 29
12, 688992, Note_off_c, 11, 52, 64
12, 689280, Note_on_c, 11, 45, 29
12, 689472, Note_off_c, 11, 45, 64
12, 689760, Note_on_c, 11, 52, 29
12, 689952, Note_off_c, 11, 52, 64
12, 690240, Note_on_c, 11, 49, 29
12, 690432, Note_off_c, 11, 49, 64
12, 690720, Note_on_c, 11, 52, 29
12, 690912, Note_off_c, 11, 52, 64
12, 691680, Note_on_c, 11, 52, 29
12, 691872, Note_off_c, 11, 52, 64
12, 692160, Note_on_c, 11, 49, 29
12, 692352, Note_off_c, 11, 49, 64
12, 692640, Note_on_c, 11, 52, 29
12, 692832, Note_off_c, 11, 52, 64
12, 693600, Note_on_c, 11, 52, 29
12, 693792, Note_off_c, 11, 52, 64
12, 694080, Note_on_c, 11, 49, 29
12, 694272, Note_off_c, 11, 49, 64
12, 694560, Note_on_c, 11, 52, 29
12, 694752, Note_off_c, 11, 52, 64
12, 695520, Note_on_c, 11, 52, 29
12, 695712, Note_off_c, 11, 52, 64
12, 696000, Note_on_c, 11, 49, 29
12, 696192, Note_off_c, 11, 49, 64
12, 696480, Note_on_c, 11, 52, 29
12, 696672, Note_off_c, 11, 52, 64
12, 697440, Note_on_c, 11, 52, 29
12, 697632, Note_off_c, 11, 52, 64
12, 697920, Note_on_c, 11, 49, 29
12, 698112, Note_off_c, 11, 49, 64
12, 698400, Note_on_c, 11, 52, 29
12, 698592, Note_off_c, 11, 52, 64
12, 699360, Note_on_c, 11, 52, 29
12, 699552, Note_off_c, 11, 52, 64
12, 699840, Note_on_c, 11, 49, 29
12, 700032, Note_off_c, 11, 49, 64
12, 700320, Note_on_c, 11, 52, 29
12, 700512, Note_off_c, 11, 52, 64
12, 701280, Note_on_c, 11, 55, 29
12, 701472, Note_off_c, 11, 55, 64
12, 701760, Note_on_c, 11, 52, 29
12, 701952, Note_off_c, 11, 52, 64
12, 702240, Note_on_c, 11, 55, 29
12, 702432, Note_off_c, 11, 55, 64
12, 703200, Note_on_c, 11, 55, 29
12, 703392, Note_off_c, 11, 55, 64
12, 703680, Note_on_c, 11, 52, 29
12, 703872, Note_off_c, 11, 52, 64
12, 704160, Note_on_c, 11, 55, 29
12, 704352, Note_off_c, 11, 55, 64
12, 705120, Note_on_c, 11, 55, 29
12, 705312, Note_off_c, 11, 55, 64
12, 705600, Note_on_c, 11, 52, 29
12, 705792, Note_off_c, 11, 52, 64
12, 706080, Note_on_c, 11, 55, 29
12, 706272, Note_off_c, 11, 55, 64
12, 707040, Note_on_c, 11, 55, 30
12, 707232, Note_off_c, 11, 55, 64
12, 707520, Note_on_c, 11, 52, 37
12, 707712, Note_off_c, 11, 52, 64
12, 708000, Note_on_c, 11, 55, 44
12, 708192, Note_off_c, 11, 55, 64
12, 708480, Note_on_c, 11, 52, 52
12, 708672, Note_off_c, 11, 52, 64
12, 708960, Note_on_c, 11, 55, 59
12, 709152, Note_off_c, 11, 55, 64
12, 709440, Note_on_c, 11, 52, 67
12, 709632, Note_off_c, 11, 52, 64
12, 709920, Note_on_c, 11, 54, 74
12, 710112, Note_off_c, 11, 54, 64
12, 710400, Note_on_c, 11, 50, 32
12, 710568, Note_off_c, 11, 50, 64
12, 716160, Note_on_c, 11, 62, 32
12, 716352, Note_off_c, 11, 62, 64
12, 716400, Note_on_c, 11, 62, 32
12, 716592, Note_off_c, 11, 62, 64
12, 716640, Note_on_c, 11, 62, 32
12, 716832, Note_off_c, 11, 62, 64
12, 716880, Note_on_c, 11, 62, 32
12, 717072, Note_off_c, 11, 62, 64
12, 717120, Note_on_c, 11, 62, 32
12, 717312, Note_off_c, 11, 62, 64
12, 717360, Note_on_c, 11, 62, 32
12, 717552, Note_off_c, 11, 62, 64
12, 717600, Note_on_c, 11, 62, 32
12, 717792, Note_off_c, 11, 62, 64
12, 717840, Note_on_c, 11, 62, 32
12, 718032, Note_off_c, 11, 62, 64
12, 718080, Note_on_c, 11, 62, 38
12, 720960, Note_off_c, 11, 62, 64
12, 720960, Note_on_c, 11, 64, 38
12, 721440, Note_off_c, 11, 64, 64
12, 721440, Note_on_c, 11, 66, 38
12, 721800, Note_off_c, 11, 66, 64
12, 721800, Note_on_c, 11, 69, 38
12, 721920, Note_off_c, 11, 69, 64
12, 721920, Note_on_c, 11, 67, 38
12, 722880, Note_off_c, 11, 67, 64
12, 722880, Note_on_c, 11, 66, 38
12, 723360, Note_off_c, 11, 66, 64
12, 723360, Note_on_c, 11, 67, 38
12, 723840, Note_off_c, 11, 67, 64
12, 723840, Note_on_c, 11, 64, 38
12, 724800, Note_off_c, 11, 64, 64
12, 724800, Note_on_c, 11, 69, 38
12, 725760, Note_off_c, 11, 69, 64
12, 725760, Note_on_c, 11, 62, 32
12, 725928, Note_off_c, 11, 62, 64
12, 726240, Note_on_c, 11, 67, 32
12, 726408, Note_off_c, 11, 67, 64
12, 726720, Note_on_c, 11, 62, 32
12, 726888, Note_off_c, 11, 62, 64
12, 727200, Note_on_c, 11, 67, 32
12, 727368, Note_off_c, 11, 67, 64
12, 727680, Note_on_c, 11, 58, 32
12, 727848, Note_off_c, 11, 58, 64
12, 728160, Note_on_c, 11, 62, 32
12, 728328, Note_off_c, 11, 62, 64
12, 728640, Note_on_c, 11, 55, 32
12, 728808, Note_off_c, 11, 55, 64
12, 729120, Note_on_c, 11, 58, 32
12, 729288, Note_off_c, 11, 58, 64
12, 729600, Note_on_c, 11, 51, 32
12, 729768, Note_off_c, 11, 51, 64
12, 730080, Note_on_c, 11, 60, 32
12, 730248, Note_off_c, 11, 60, 64
12, 730560, Note_on_c, 11, 57, 32
12, 730728, Note_off_c, 11, 57, 64
12, 731040, Note_on_c, 11, 55, 32
12, 731208, Note_off_c, 11, 55, 64
12, 731520, Note_on_c, 11, 54, 32
12, 731688, Note_off_c, 11, 54, 64
12, 732000, Note_on_c, 11, 62, 32
12, 732168, Note_off_c, 11, 62, 64
12, 732480, Note_on_c, 11, 60, 32
12, 732648, Note_off_c, 11, 60, 64
12, 732960, Note_on_c, 11, 57, 32
12, 733128, Note_off_c, 11, 57, 64
12, 733440, Note_on_c, 11, 55, 32
12, 733608, Note_off_c, 11, 55, 64
12, 756480, Note_on_c, 11, 63, 127
12, 756672, Note_off_c, 11, 63, 64
12, 756960, Note_on_c, 11, 58, 127
12, 757152, Note_off_c, 11, 58, 64
12, 757440, Note_on_c, 11, 55, 127
12, 757632, Note_off_c, 11, 55, 64
12, 757920, Note_on_c, 11, 58, 127
12, 758112, Note_off_c, 11, 58, 64
12, 758400, Note_on_c, 11, 58, 127
12, 758592, Note_off_c, 11, 58, 64
12, 758880, Note_on_c, 11, 55, 127
12, 759072, Note_off_c, 11, 55, 64
12, 759360, Note_on_c, 11, 51, 127
12, 759552, Note_off_c, 11, 51, 64
12, 759840, Note_on_c, 11, 55, 127
12, 760032, Note_off_c, 11, 55, 64
12, 760320, Note_on_c, 11, 55, 127
12, 760512, Note_off_c, 11, 55, 64
12, 760800, Note_on_c, 11, 51, 127
12, 760992, Note_off_c, 11, 51, 64
12, 761280, Note_on_c, 11, 46, 127
12, 761472, Note_off_c, 11, 46, 64
12, 761760, Note_on_c, 11, 51, 127
12, 761952, Note_off_c, 11, 51, 64
12, 762240, Note_on_c, 11, 51, 127
12, 762432, Note_off_c, 11, 51, 64
12, 762720, Note_on_c, 11, 46, 127
12, 762912, Note_off_c, 11, 46, 64
12, 763200, Note_on_c, 11, 43, 127
12, 763392, Note_off_c, 11, 43, 64
12, 763680, Note_on_c, 11, 46, 127
12, 763872, Note_off_c, 11, 46, 64
12, 764160, Note_on_c, 11, 39, 127
12, 764352, Note_off_c, 11, 39, 64
12, 771840, Note_on_c, 11, 67, 127
12, 772032, Note_off_c, 11, 67, 64
12, 772320, Note_on_c, 11, 62, 127
12, 772512, Note_off_c, 11, 62, 64
12, 772800, Note_on_c, 11, 59, 127
12, 772992, Note_off_c, 11, 59, 64
12, 773280, Note_on_c, 11, 62, 127
12, 773472, Note_off_c, 11, 62, 64
12, 773760, Note_on_c, 11, 62, 127
12, 773952, Note_off_c, 11, 62, 64
12, 774240, Note_on_c, 11, 59, 127
12, 774432, Note_off_c, 11, 59, 64
12, 774720, Note_on_c, 11, 55, 127
12, 774912, Note_off_c, 11, 55, 64
12, 775200, Note_on_c, 11, 59, 127
12, 775392, Note_off_c, 11, 59, 64
12, 775680, Note_on_c, 11, 59, 127
12, 775872, Note_off_c, 11, 59, 64
12, 776160, Note_on_c, 11, 55, 127
12, 776352, Note_off_c, 11, 55, 64
12, 776640, Note_on_c, 11, 50, 127
12, 776832, Note_off_c, 11, 50, 64
12, 777120, Note_on_c, 11, 55, 127
12, 777312, Note_off_c, 11, 55, 64
12, 777600, Note_on_c, 11, 55, 127
12, 777792, Note_off_c, 11, 55, 64
12, 778080, Note_on_c, 11, 50, 127
12, 778272, Note_off_c, 11, 50, 64
12, 778560, Note_on_c, 11, 47, 127
12, 778752, Note_off_c, 11, 47, 64
12, 779040, Note_on_c, 11, 50, 127
12, 779232, Note_off_c, 11, 50, 64
12, 779520, Note_on_c, 11, 43, 127
12, 779712, Note_off_c, 11, 43, 64
12, 787200, Note_on_c, 11, 67, 127
12, 787392, Note_off_c, 11, 67, 64
12, 787680, Note_on_c, 11, 64, 127
12, 787872, Note_off_c, 11, 64, 64
12, 788160, Note_on_c, 11, 61, 127
12, 788352, Note_off_c, 11, 61, 64
12, 788640, Note_on_c, 11, 64, 127
12, 788832, Note_off_c, 11, 64, 64
12, 789120, Note_on_c, 11, 64, 127
12, 789312, Note_off_c, 11, 64, 64
12, 789600, Note_on_c, 11, 61, 127
12, 789792, Note_off_c, 11, 61, 64
12, 790080, Note_on_c, 11, 58, 127
12, 790272, Note_off_c, 11, 58, 64
12, 790560, Note_on_c, 11, 61, 127
12, 790752, Note_off_c, 11, 61, 64
12, 791040, Note_on_c, 11, 61, 127
12, 791232, Note_off_c, 11, 61, 64
12, 791520, Note_on_c, 11, 58, 127
12, 791712, Note_off_c, 11, 58, 64
12, 792000, Note_on_c, 11, 55, 127
12, 792192, Note_off_c, 11, 55, 64
12, 792480, Note_on_c, 11, 58, 127
12, 792672, Note_off_c, 11, 58, 64
12, 792960, Note_on_c, 11, 55, 127
12, 793152, Note_off_c, 11, 55, 64
12, 793440, Note_on_c, 11, 52, 127
12, 793632, Note_off_c, 11, 52, 64
12, 793920, Note_on_c, 11, 49, 127
12, 794112, Note_off_c, 11, 49, 64
12, 794400, Note_on_c, 11, 46, 127
12, 794592, Note_off_c, 11, 46, 64
12, 794880, Note_on_c, 11, 43, 127
12, 795072, Note_off_c, 11, 43, 64
12, 796800, Note_on_c, 11, 43, 120
12, 796992, Note_off_c, 11, 43, 64
12, 798720, Note_on_c, 11, 43, 110
12, 798912, Note_off_c, 11, 43, 64
12, 800640, Note_on_c, 11, 43, 100
12, 800832, Note_off_c, 11, 43, 64
12, 802560, Note_on_c, 11, 43, 89
12, 802752, Note_off_c, 11, 43, 64
12, 806400, Note_on_c, 11, 43, 68
12, 806592, Note_off_c, 11, 43, 64
12, 810240, Note_on_c, 11, 43, 48
12, 810432, Note_off_c, 11, 43, 64
12, 833280, Note_on_c, 11, 42, 10
12, 837360, Note_off_c, 11, 42, 64
12, 840960, Note_on_c, 11, 42, 10
12, 845040, Note_off_c, 11, 42, 64
12, 852480, Note_on_c, 11, 42, 10
12, 856560, Note_off_c, 11, 42, 64
12, 857760, Note_on_c, 11, 42, 13
12, 858000, Note_off_c, 11, 42, 64
12, 858240, Note_on_c, 11, 42, 13
12, 858480, Note_off_c, 11, 42, 64
12, 859680, Note_on_c, 11, 42, 13
12, 859920, Note_off_c, 11, 42, 64
12, 860160, Note_on_c, 11, 42, 13
12, 860400, Note_off_c, 11, 42, 64
12, 861600, Note_on_c, 11, 42, 13
12, 861840, Note_off_c, 11, 42, 64
12, 862080, Note_on_c, 11, 42, 13
12, 862320, Note_off_c, 11, 42, 64
12, 863520, Note_on_c, 11, 42, 13
12, 863760, Note_off_c, 11, 42, 64
12, 864000, Note_on_c, 11, 42, 10
12, 864240, Note_off_c, 11, 42, 64
12, 867840, Note_on_c, 11, 56, 22
12, 868320, Note_off_c, 11, 56, 64
12, 868320, Note_on_c, 11, 54, 22
12, 868800, Note_off_c, 11, 54, 64
12, 868800, Note_on_c, 11, 52, 22
12, 869280, Note_off_c, 11, 52, 64
12, 869280, Note_on_c, 11, 51, 22
12, 869760, Note_off_c, 11, 51, 64
12, 869760, Note_on_c, 11, 49, 22
12, 870240, Note_off_c, 11, 49, 64
12, 870240, Note_on_c, 11, 47, 22
12, 870720, Note_off_c, 11, 47, 64
12, 870720, Note_on_c, 11, 46, 22
12, 871200, Note_off_c, 11, 46, 64
12, 871200, Note_on_c, 11, 44, 22
12, 871680, Note_off_c, 11, 44, 64
12, 871680, Note_on_c, 11, 42, 22
12, 872160, Note_off_c, 11, 42, 64
12, 872160, Note_on_c, 11, 41, 22
12, 872640, Note_off_c, 11, 41, 64
12, 872640, Note_on_c, 11, 42, 22
12, 873120, Note_off_c, 11, 42, 64
12, 873120, Note_on_c, 11, 46, 22
12, 873600, Note_off_c, 11, 46, 64
12, 873600, Note_on_c, 11, 49, 22
12, 874080, Note_off_c, 11, 49, 64
12, 874080, Note_on_c, 11, 52, 22
12, 874560, Note_off_c, 11, 52, 64
12, 878880, Note_on_c, 11, 42, 20
12, 879360, Note_off_c, 11, 42, 64
12, 879360, Note_on_c, 11, 41, 10
12, 883920, Note_off_c, 11, 41, 64
12, 887040, Note_on_c, 11, 41, 10
12, 891120, Note_off_c, 11, 41, 64
12, 906000, Note_on_c, 11, 53, 30
12, 906080, Note_off_c, 11, 53, 64
12, 906080, Note_on_c, 11, 55, 25
12, 906160, Note_off_c, 11, 55, 64
12, 906160, Note_on_c, 11, 57, 25
12, 906224, Note_off_c, 11, 57, 64
12, 906240, Note_on_c, 11, 58, 25
12, 908160, Note_off_c, 11, 58, 64
12, 909840, Note_on_c, 11, 50, 25
12, 909960, Note_off_c, 11, 50, 64
12, 909960, Note_on_c, 11, 51, 25
12, 910080, Note_off_c, 11, 51, 64
12, 910080, Note_on_c, 11, 53, 25
12, 910980, Note_off_c, 11, 53, 64
12, 911760, Note_on_c, 11, 46, 25
12, 911880, Note_off_c, 11, 46, 64
12, 911880, Note_on_c, 11, 48, 25
12, 912000, Note_off_c, 11, 48, 64
12, 912000, Note_on_c, 11, 50, 25
12, 912900, Note_off_c, 11, 50, 64
12, 913680, Note_on_c, 11, 50, 25
12, 913800, Note_off_c, 11, 50, 64
12, 913800, Note_on_c, 11, 51, 25
12, 913920, Note_off_c, 11, 51, 64
12, 913920, Note_on_c, 11, 53, 25
12, 914820, Note_off_c, 11, 53, 64
12, 915600, Note_on_c, 11, 50, 25
12, 915720, Note_off_c, 11, 50, 64
12, 915720, Note_on_c, 11, 51, 25
12, 915840, Note_off_c, 11, 51, 64
12, 915840, Note_on_c, 11, 53, 25
12, 916740, Note_off_c, 11, 53, 64
12, 917520, Note_on_c, 11, 53, 25
12, 917600, Note_off_c, 11, 53, 64
12, 917600, Note_on_c, 11, 55, 25
12, 917680, Note_off_c, 11, 55, 64
12, 917680, Note_on_c, 11, 57, 25
12, 917760, Note_off_c, 11, 57, 64
12, 917760, Note_on_c, 11, 58, 24
12, 918210, Note_off_c, 11, 58, 64
12, 918480, Note_on_c, 11, 46, 29
12, 918600, Note_off_c, 11, 46, 64
12, 918600, Note_on_c, 11, 48, 29
12, 918720, Note_off_c, 11, 48, 64
12, 918720, Note_on_c, 11, 50, 30
12, 919200, Note_off_c, 11, 50, 64
12, 919440, Note_on_c, 11, 50, 35
12, 919560, Note_off_c, 11, 50, 64
12, 919560, Note_on_c, 11, 51, 35
12, 919680, Note_off_c, 11, 51, 64
12, 919680, Note_on_c, 11, 53, 36
12, 920160, Note_off_c, 11, 53, 64
12, 920400, Note_on_c, 11, 53, 41
12, 920480, Note_off_c, 11, 53, 64
12, 920480, Note_on_c, 11, 55, 41
12, 920560, Note_off_c, 11, 55, 64
12, 920560, Note_on_c, 11, 57, 42
12, 920640, Note_off_c, 11, 57, 64
12, 920640, Note_on_c, 11, 58, 42
12, 921120, Note_off_c, 11, 58, 64
12, 921360, Note_on_c, 11, 58, 47
12, 921480, Note_off_c, 11, 58, 64
12, 921480, Note_on_c, 11, 60, 47
12, 921600, Note_off_c, 11, 60, 64
12, 921600, Note_on_c, 11, 62, 48
12, 922080, Note_off_c, 11, 62, 64
12, 922320, Note_on_c, 11, 50, 53
12, 922440, Note_off_c, 11, 50, 64
12, 922440, Note_on_c, 11, 51, 53
12, 922560, Note_off_c, 11, 51, 64
12, 922560, Note_on_c, 11, 53, 54
12, 923040, Note_off_c, 11, 53, 64
12, 923280, Note_on_c, 11, 53, 59
12, 923360, Note_off_c, 11, 53, 64
12, 923360, Note_on_c, 11, 55, 59
12, 923440, Note_off_c, 11, 55, 64
12, 923440, Note_on_c, 11, 57, 60
12, 923520, Note_off_c, 11, 57, 64
12, 923520, Note_on_c, 11, 58, 60
12, 924000, Note_off_c, 11, 58, 64
12, 924240, Note_on_c, 11, 46, 65
12, 924360, Note_off_c, 11, 46, 64
12, 924360, Note_on_c, 11, 48, 65
12, 924480, Note_off_c, 11, 48, 64
12, 924480, Note_on_c, 11, 50, 66
12, 924960, Note_off_c, 11, 50, 64
12, 925200, Note_on_c, 11, 50, 71
12, 925320, Note_off_c, 11, 50, 64
12, 925320, Note_on_c, 11, 51, 71
12, 925440, Note_off_c, 11, 51, 64
12, 925440, Note_on_c, 11, 53, 72
12, 925920, Note_off_c, 11, 53, 64
12, 926160, Note_on_c, 11, 53, 77
12, 926240, Note_off_c, 11, 53, 64
12, 926240, Note_on_c, 11, 55, 77
12, 926320, Note_off_c, 11, 55, 64
12, 926320, Note_on_c, 11, 57, 78
12, 926400, Note_off_c, 11, 57, 64
12, 926400, Note_on_c, 11, 58, 78
12, 926880, Note_off_c, 11, 58, 64
12, 927120, Note_on_c, 11, 58, 83
12, 927240, Note_off_c, 11, 58, 64
12, 927240, Note_on_c, 11, 60, 83
12, 927360, Note_off_c, 11, 60, 64
12, 927360, Note_on_c, 11, 62, 84
12, 927840, Note_off_c, 11, 62, 64
12, 928080, Note_on_c, 11, 50, 89
12, 928200, Note_off_c, 11, 50, 64
12, 928200, Note_on_c, 11, 51, 89
12, 928320, Note_off_c, 11, 51, 64
12, 928320, Note_on_c, 11, 53, 90
12, 928800, Note_off_c, 11, 53, 64
12, 929040, Note_on_c, 11, 53, 95
12, 929120, Note_off_c, 11, 53, 64
12, 929120, Note_on_c, 11, 55, 95
12, 929200, Note_off_c, 11, 55, 64
12, 929200, Note_on_c, 11, 57, 96
12, 929280, Note_off_c, 11, 57, 64
12, 929280, Note_on_c, 11, 58, 96
12, 929760, Note_off_c, 11, 58, 64
12, 930000, Note_on_c, 11, 41, 101
12, 930080, Note_off_c, 11, 41, 64
12, 930080, Note_on_c, 11, 43, 101
12, 930160, Note_off_c, 11, 43, 64
12, 930160, Note_on_c, 11, 45, 102
12, 930240, Note_off_c, 11, 45, 64
12, 930240, Note_on_c, 11, 46, 102
12, 930720, Note_off_c, 11, 46, 64
12, 930960, Note_on_c, 11, 46, 107
12, 931080, Note_off_c, 11, 46, 64
12, 931080, Note_on_c, 11, 48, 107
12, 931200, Note_off_c, 11, 48, 64
12, 931200, Note_on_c, 11, 50, 108
12, 931680, Note_off_c, 11, 50, 64
12, 931920, Note_on_c, 11, 50, 113
12, 932040, Note_off_c, 11, 50, 64
12, 932040, Note_on_c, 11, 51, 113
12, 932160, Note_off_c, 11, 51, 64
12, 932160, Note_on_c, 11, 53, 114
12, 932640, Note_off_c, 11, 53, 64
12, 932880, Note_on_c, 11, 53, 119
12, 932960, Note_off_c, 11, 53, 64
12, 932960, Note_on_c, 11, 55, 119
12, 933040, Note_off_c, 11, 55, 64
12, 933040, Note_on_c, 11, 57, 120
12, 933120, Note_off_c, 11, 57, 64
12, 933120, Note_on_c, 11, 58, 120
12, 933312, Note_off_c, 11, 58, 64
12, 933360, Note_on_c, 11, 46, 120
12, 933552, Note_off_c, 11, 46, 64
12, 933600, Note_on_c, 11, 46, 120
12, 933792, Note_off_c, 11, 46, 64
12, 933840, Note_on_c, 11, 46, 120
12, 934032, Note_off_c, 11, 46, 64
12, 934080, Note_on_c, 11, 46, 120
12, 934272, Note_off_c, 11, 46, 64
12, 934320, Note_on_c, 11, 46, 120
12, 934512, Note_off_c, 11, 46, 64
12, 934560, Note_on_c, 11, 46, 120
12, 934752, Note_off_c, 11, 46, 64
12, 934800, Note_on_c, 11, 46, 120
12, 934992, Note_off_c, 11, 46, 64
12, 935040, Note_on_c, 11, 46, 120
12, 935232, Note_off_c, 11, 46, 64
12, 935280, Note_on_c, 11, 46, 120
12, 935472, Note_off_c, 11, 46, 64
12, 935520, Note_on_c, 11, 46, 120
12, 935712, Note_off_c, 11, 46, 64
12, 935760, Note_on_c, 11, 46, 120
12, 935952, Note_off_c, 11, 46, 64
12, 936000, Note_on_c, 11, 46, 120
12, 936192, Note_off_c, 11, 46, 64
12, 936240, Note_on_c, 11, 46, 120
12, 936432, Note_off_c, 11, 46, 64
12, 936480, Note_on_c, 11, 46, 120
12, 936672, Note_off_c, 11, 46, 64
12, 936720, Note_on_c, 11, 46, 120
12, 936912, Note_off_c, 11, 46, 64
12, 936960, Note_on_c, 11, 46, 120
12, 937152, Note_off_c, 11, 46, 64
12, 937200, Note_on_c, 11, 46, 120
12, 937392, Note_off_c, 11, 46, 64
12, 937440, Note_on_c, 11, 46, 120
12, 937632, Note_off_c, 11, 46, 64
12, 937680, Note_on_c, 11, 46, 120
12, 937872, Note_off_c, 11, 46, 64
12, 937920, Note_on_c, 11, 46, 120
12, 938112, Note_off_c, 11, 46, 64
12, 938160, Note_on_c, 11, 46, 120
12, 938352, Note_off_c, 11, 46, 64
12, 938400, Note_on_c, 11, 46, 120
12, 938592, Note_off_c, 11, 46, 64
12, 938640, Note_on_c, 11, 46, 120
12, 938832, Note_off_c, 11, 46, 64
12, 938880, Note_on_c, 11, 46, 127
12, 939264, Note_off_c, 11, 46, 64
12, 940080, Note_on_c, 11, 46, 127
12, 940464, Note_off_c, 11, 46, 64
12, 941280, Note_on_c, 11, 46, 127
12, 941472, Note_off_c, 11, 46, 64
12, 941760, Note_on_c, 11, 46, 120
12, 941952, Note_off_c, 11, 46, 64
12, 942240, Note_on_c, 11, 46, 120
12, 942432, Note_off_c, 11, 46, 64
12, 942720, Note_on_c, 11, 46, 120
12, 942912, Note_off_c, 11, 46, 64
12, 943200, Note_on_c, 11, 46, 120
12, 943392, Note_off_c, 11, 46, 64
12, 943680, Note_on_c, 11, 46, 120
12, 943872, Note_off_c, 11, 46, 64
12, 944160, Note_on_c, 11, 46, 120
12, 944352, Note_off_c, 11, 46, 64
12, 944640, Note_on_c, 11, 46, 120
12, 944832, Note_off_c, 11, 46, 64
12, 945120, Note_on_c, 11, 46, 120
12, 945312, Note_off_c, 11, 46, 64
12, 945600, Note_on_c, 11, 46, 120
12, 945792, Note_off_c, 11, 46, 64
12, 946080, Note_on_c, 11, 46, 120
12, 946272, Note_off_c, 11, 46, 64
12, 946560, Note_on_c, 11, 46, 120
12, 946752, Note_off_c, 11, 46, 64
12, 947040, Note_on_c, 11, 46, 120
12, 947232, Note_off_c, 11, 46, 64
12, 947520, Note_on_c, 11, 46, 120
12, 947712, Note_off_c, 11, 46, 64
12, 948000, Note_on_c, 11, 46, 120
12, 948192, Note_off_c, 11, 46, 64
12, 948480, Note_on_c, 11, 46, 120
12, 948672, Note_off_c, 11, 46, 64
12, 948960, Note_on_c, 11, 46, 127
12, 949152, Note_off_c, 11, 46, 64
12, 960000, Note_on_c, 11, 51, 40
12, 960480, Note_off_c, 11, 51, 64
12, 960480, Note_on_c, 11, 53, 40
12, 964800, Note_off_c, 11, 53, 64
12, 966720, Note_on_c, 11, 53, 68
12, 967488, Note_off_c, 11, 53, 64
12, 967680, Note_on_c, 11, 53, 91
12, 967776, Note_off_c, 11, 53, 64
12, 967776, Note_on_c, 11, 55, 97
12, 967872, Note_off_c, 11, 55, 64
12, 967872, Note_on_c, 11, 57, 103
12, 967968, Note_off_c, 11, 57, 64
12, 967968, Note_on_c, 11, 58, 109
12, 968064, Note_off_c, 11, 58, 64
12, 968064, Note_on_c, 11, 60, 115
12, 968160, Note_off_c, 11, 60, 64
12, 968160, Note_on_c, 11, 62, 127
12, 968352, Note_off_c, 11, 62, 64
12, 968640, Note_on_c, 11, 58, 127
12, 968832, Note_off_c, 11, 58, 64
12, 969120, Note_on_c, 11, 53, 127
12, 969312, Note_off_c, 11, 53, 64
12, 969600, Note_on_c, 11, 58, 127
12, 969792, Note_off_c, 11, 58, 64
12, 970080, Note_on_c, 11, 50, 127
12, 970272, Note_off_c, 11, 50, 64
12, 970560, Note_on_c, 11, 53, 127
12, 970752, Note_off_c, 11, 53, 64
12, 971040, Note_on_c, 11, 46, 127
12, 971232, Note_off_c, 11, 46, 64
12, 971520, Note_on_c, 11, 50, 127
12, 971712, Note_off_c, 11, 50, 64
12, 972000, Note_on_c, 11, 43, 127
12, 972192, Note_off_c, 11, 43, 64
12, 972480, Note_on_c, 11, 51, 127
12, 972672, Note_off_c, 11, 51, 64
12, 972960, Note_on_c, 11, 48, 127
12, 973152, Note_off_c, 11, 48, 64
12, 973440, Note_on_c, 11, 46, 127
12, 973632, Note_off_c, 11, 46, 64
12, 973920, Note_on_c, 11, 45, 127
12, 974112, Note_off_c, 11, 45, 64
12, 974400, Note_on_c, 11, 53, 127
12, 974592, Note_off_c, 11, 53, 64
12, 974880, Note_on_c, 11, 51, 127
12, 975072, Note_off_c, 11, 51, 64
12, 975360, Note_on_c, 11, 48, 127
12, 975552, Note_off_c, 11, 48, 64
12, 975840, Note_on_c, 11, 46, 127
12, 976032, Note_off_c, 11, 46, 64
12, 976320, Note_on_c, 11, 53, 127
12, 976512, Note_off_c, 11, 53, 64
12, 976800, Note_on_c, 11, 50, 127
12, 976992, Note_off_c, 11, 50, 64
12, 977280, Note_on_c, 11, 48, 127
12, 977472, Note_off_c, 11, 48, 64
12, 977760, Note_on_c, 11, 47, 127
12, 977952, Note_off_c, 11, 47, 64
12, 978240, Note_on_c, 11, 55, 127
12, 978432, Note_off_c, 11, 55, 64
12, 978720, Note_on_c, 11, 50, 127
12, 978912, Note_off_c, 11, 50, 64
12, 979200, Note_on_c, 11, 47, 127
12, 979392, Note_off_c, 11, 47, 64
12, 979680, Note_on_c, 11, 48, 127
12, 979872, Note_off_c, 11, 48, 64
12, 980160, Note_on_c, 11, 55, 127
12, 980352, Note_off_c, 11, 55, 64
12, 980640, Note_on_c, 11, 51, 127
12, 980832, Note_off_c, 11, 51, 64
12, 981120, Note_on_c, 11, 50, 127
12, 981312, Note_off_c, 11, 50, 64
12, 981600, Note_on_c, 11, 48, 127
12, 981792, Note_off_c, 11, 48, 64
12, 982080, Note_on_c, 11, 56, 127
12, 982272, Note_off_c, 11, 56, 64
12, 982560, Note_on_c, 11, 51, 127
12, 982752, Note_off_c, 11, 51, 64
12, 983040, Note_on_c, 11, 48, 127
12, 983232, Note_off_c, 11, 48, 64
12, 983520, Note_on_c, 11, 50, 127
12, 983712, Note_off_c, 11, 50, 64
12, 984000, Note_on_c, 11, 56, 127
12, 984192, Note_off_c, 11, 56, 64
12, 984480, Note_on_c, 11, 53, 127
12, 984672, Note_off_c, 11, 53, 64
12, 984960, Note_on_c, 11, 51, 127
12, 985152, Note_off_c, 11, 51, 64
12, 985440, Note_on_c, 11, 50, 127
12, 985632, Note_off_c, 11, 50, 64
12, 985920, Note_on_c, 11, 58, 127
12, 986112, Note_off_c, 11, 58, 64
12, 986400, Note_on_c, 11, 53, 127
12, 986592, Note_off_c, 11, 53, 64
12, 986880, Note_on_c, 11, 50, 127
12, 987072, Note_off_c, 11, 50, 64
12, 987360, Note_on_c, 11, 51, 127
12, 987552, Note_off_c, 11, 51, 64
12, 987840, Note_on_c, 11, 55, 127
12, 988032, Note_off_c, 11, 55, 64
12, 988320, Note_on_c, 11, 52, 127
12, 988512, Note_off_c, 11, 52, 64
12, 988800, Note_on_c, 11, 60, 127
12, 988992, Note_off_c, 11, 60, 64
12, 989280, Note_on_c, 11, 53, 127
12, 989472, Note_off_c, 11, 53, 64
12, 989760, Note_on_c, 11, 57, 127
12, 989952, Note_off_c, 11, 57, 64
12, 990240, Note_on_c, 11, 54, 127
12, 990432, Note_off_c, 11, 54, 64
12, 990720, Note_on_c, 11, 62, 127
12, 990912, Note_off_c, 11, 62, 64
12, 991200, Note_on_c, 11, 55, 127
12, 991392, Note_off_c, 11, 55, 64
12, 991680, Note_on_c, 11, 58, 127
12, 991872, Note_off_c, 11, 58, 64
12, 992160, Note_on_c, 11, 55, 127
12, 992352, Note_off_c, 11, 55, 64
12, 992640, Note_on_c, 11, 63, 127
12, 992832, Note_off_c, 11, 63, 64
12, 993120, Note_on_c, 11, 56, 127
12, 993312, Note_off_c, 11, 56, 64
12, 993600, Note_on_c, 11, 60, 127
12, 993792, Note_off_c, 11, 60, 64
12, 994080, Note_on_c, 11, 57, 127
12, 994272, Note_off_c, 11, 57, 64
12, 994560, Note_on_c, 11, 65, 127
12, 994752, Note_off_c, 11, 65, 64
12, 995040, Note_on_c, 11, 58, 120
12, 995232, Note_off_c, 11, 58, 64
12, 995520, Note_on_c, 11, 60, 120
12, 995712, Note_off_c, 11, 60, 64
12, 996000, Note_on_c, 11, 62, 120
12, 996192, Note_off_c, 11, 62, 64
12, 996480, Note_on_c, 11, 63, 120
12, 996672, Note_off_c, 11, 63, 64
12, 996960, Note_on_c, 11, 65, 120
12, 997152, Note_off_c, 11, 65, 64
12, 997440, Note_on_c, 11, 63, 120
12, 997632, Note_off_c, 11, 63, 64
12, 997920, Note_on_c, 11, 62, 120
12, 998112, Note_off_c, 11, 62, 64
12, 998400, Note_on_c, 11, 60, 120
12, 998592, Note_off_c, 11, 60, 64
12, 998880, Note_on_c, 11, 58, 120
12, 999072, Note_off_c, 11, 58, 64
12, 999360, Note_on_c, 11, 57, 120
12, 999552, Note_off_c, 11, 57, 64
12, 999840, Note_on_c, 11, 55, 120
12, 1000032, Note_off_c, 11, 55, 64
12, 1000320, Note_on_c, 11, 53, 120
12, 1000512, Note_off_c, 11, 53, 64
12, 1000800, Note_on_c, 11, 51, 120
12, 1000992, Note_off_c, 11, 51, 64
12, 1001280, Note_on_c, 11, 50, 120
12, 1001472, Note_off_c, 11, 50, 64
12, 1001760, Note_on_c, 11, 48, 120
12, 1001952, Note_off_c, 11, 48, 64
12, 1002240, Note_on_c, 11, 46, 120
12, 1002432, Note_off_c, 11, 46, 64
12, 1002720, Note_on_c, 11, 41, 127
12, 1002912, Note_off_c, 11, 41, 64
12, 1008960, Note_on_c, 11, 46, 125
12, 1009920, Note_off_c, 11, 46, 64
12, 1009920, Note_on_c, 11, 41, 96
12, 1010256, Note_off_c, 11, 41, 64
12, 1010400, Note_on_c, 11, 41, 127
12, 1010736, Note_off_c, 11, 41, 64
12, 1018080, Note_on_c, 11, 53, 80
12, 1019520, Note_off_c, 11, 53, 64
12, 1019520, Note_on_c, 11, 55, 80
12, 1020000, Note_off_c, 11, 55, 64
12, 1020000, Note_on_c, 11, 48, 80
12, 1020480, Note_off_c, 11, 48, 64
12, 1020480, Note_on_c, 11, 50, 80
12, 1020960, Note_off_c, 11, 50, 64
12, 1020960, Note_on_c, 11, 51, 80
12, 1021440, Note_off_c, 11, 51, 64
12, 1021440, Note_on_c, 11, 45, 80
12, 1021920, Note_off_c, 11, 45, 64
12, 1021920, Note_on_c, 11, 46, 80
12, 1022400, Note_off_c, 11, 46, 64
12, 1022400, Note_on_c, 11, 48, 80
12, 1022880, Note_off_c, 11, 48, 64
12, 1022880, Note_on_c, 11, 41, 64
12, 1023360, Note_off_c, 11, 41, 64
12, 1023360, Note_on_c, 11, 43, 64
12, 1023840, Note_off_c, 11, 43, 64
12, 1023840, Note_on_c, 11, 39, 64
12, 1024320, Note_off_c, 11, 39, 64
12, 1024320, Note_on_c, 11, 38, 64
12, 1024800, Note_off_c, 11, 38, 64
12, 1024800, Note_on_c, 11, 36, 51
12, 1025280, Note_off_c, 11, 36, 64
12, 1025280, Note_on_c, 11, 41, 51
12, 1025760, Note_off_c, 11, 41, 64
12, 1025760, Note_on_c, 11, 46, 34
12, 1033440, Note_off_c, 11, 46, 64
12, 1033440, Note_on_c, 11, 43, 34
12, 1037280, Note_off_c, 11, 43, 64
12, 1037280, Note_on_c, 11, 50, 32
12, 1037472, Note_off_c, 11, 50, 64
12, 1038720, Note_on_c, 11, 50, 32
12, 1038912, Note_off_c, 11, 50, 64
12, 1039200, Note_on_c, 11, 50, 32
12, 1039392, Note_off_c, 11, 50, 64
12, 1040640, Note_on_c, 11, 50, 32
12, 1040832, Note_off_c, 11, 50, 64
12, 1041120, Note_on_c, 11, 50, 32
12, 1041312, Note_off_c, 11, 50, 64
12, 1042560, Note_on_c, 11, 50, 32
12, 1042752, Note_off_c, 11, 50, 64
12, 1043040, Note_on_c, 11, 50, 32
12, 1043232, Note_off_c, 11, 50, 64
12, 1044480, Note_on_c, 11, 50, 32
12, 1044672, Note_off_c, 11, 50, 64
12, 1044960, Note_on_c, 11, 50, 39
12, 1045344, Note_off_c, 11, 50, 64
12, 1045440, Note_on_c, 11, 50, 39
12, 1045824, Note_off_c, 11, 50, 64
12, 1045920, Note_on_c, 11, 50, 39
12, 1046304, Note_off_c, 11, 50, 64
12, 1047360, Note_on_c, 11, 50, 39
12, 1047744, Note_off_c, 11, 50, 64
12, 1047840, Note_on_c, 11, 50, 39
12, 1048224, Note_off_c, 11, 50, 64
12, 1049280, Note_on_c, 11, 50, 39
12, 1049664, Note_off_c, 11, 50, 64
12, 1049760, Note_on_c, 11, 50, 39
12, 1050144, Note_off_c, 11, 50, 64
12, 1051200, Note_on_c, 11, 50, 39
12, 1051584, Note_off_c, 11, 50, 64
12, 1051680, Note_on_c, 11, 50, 39
12, 1052064, Note_off_c, 11, 50, 64
12, 1052640, Note_on_c, 11, 50, 31
12, 1053120, Note_off_c, 11, 50, 64
12, 1053600, Note_on_c, 11, 51, 32
12, 1054080, Note_off_c, 11, 51, 64
12, 1054560, Note_on_c, 11, 48, 32
12, 1055040, Note_off_c, 11, 48, 64
12, 1055520, Note_on_c, 11, 52, 32
12, 1056000, Note_off_c, 11, 52, 64
12, 1056480, Note_on_c, 11, 53, 32
12, 1056960, Note_off_c, 11, 53, 64
12, 1057440, Note_on_c, 11, 50, 32
12, 1057920, Note_off_c, 11, 50, 64
12, 1058400, Note_on_c, 11, 53, 31
12, 1058880, Note_off_c, 11, 53, 64
12, 1059360, Note_on_c, 11, 55, 36
12, 1059840, Note_off_c, 11, 55, 64
12, 1060320, Note_on_c, 11, 51, 40
12, 1060800, Note_off_c, 11, 51, 64
12, 1061280, Note_on_c, 11, 55, 44
12, 1061760, Note_off_c, 11, 55, 64
12, 1062240, Note_on_c, 11, 57, 49
12, 1062720, Note_off_c, 11, 57, 64
12, 1063200, Note_on_c, 11, 53, 53
12, 1063680, Note_off_c, 11, 53, 64
12, 1064160, Note_on_c, 11, 57, 57
12, 1064640, Note_off_c, 11, 57, 64
12, 1065120, Note_on_c, 11, 58, 61
12, 1065600, Note_off_c, 11, 58, 64
12, 1066080, Note_on_c, 11, 55, 66
12, 1066560, Note_off_c, 11, 55, 64
12, 1067040, Note_on_c, 11, 59, 70
12, 1067520, Note_off_c, 11, 59, 64
12, 1068000, Note_on_c, 11, 60, 74
12, 1068480, Note_off_c, 11, 60, 64
12, 1068960, Note_on_c, 11, 57, 79
12, 1069440, Note_off_c, 11, 57, 64
12, 1069920, Note_on_c, 11, 60, 83
12, 1070400, Note_off_c, 11, 60, 64
12, 1070880, Note_on_c, 11, 62, 87
12, 1071360, Note_off_c, 11, 62, 64
12, 1071840, Note_on_c, 11, 63, 92
12, 1072320, Note_off_c, 11, 63, 64
12, 1072800, Note_on_c, 11, 64, 96
12, 1073280, Note_off_c, 11, 64, 64
12, 1073760, Note_on_c, 11, 65, 92
12, 1074240, Note_off_c, 11, 65, 64
12, 1074720, Note_on_c, 11, 63, 96
12, 1075200, Note_off_c, 11, 63, 64
12, 1075680, Note_on_c, 11, 60, 92
12, 1076160, Note_off_c, 11, 60, 64
12, 1076640, Note_on_c, 11, 57, 96
12, 1077120, Note_off_c, 11, 57, 64
12, 1077600, Note_on_c, 11, 53, 92
12, 1078080, Note_off_c, 11, 53, 64
12, 1078560, Note_on_c, 11, 51, 96
12, 1079040, Note_off_c, 11, 51, 64
12, 1079520, Note_on_c, 11, 50, 80
12, 1080672, Note_off_c, 11, 50, 64
12, 1080960, Note_on_c, 11, 46, 80
12, 1081248, Note_off_c, 11, 46, 64
12, 1081440, Note_on_c, 11, 51, 80
12, 1082592, Note_off_c, 11, 51, 64
12, 1082880, Note_on_c, 11, 48, 80
12, 1083168, Note_off_c, 11, 48, 64
12, 1083360, Note_on_c, 11, 53, 80
12, 1084512, Note_off_c, 11, 53, 64
12, 1084800, Note_on_c, 11, 53, 80
12, 1085088, Note_off_c, 11, 53, 64
12, 1085280, Note_on_c, 11, 51, 80
12, 1085568, Note_off_c, 11, 51, 64
12, 1085760, Note_on_c, 11, 51, 80
12, 1086048, Note_off_c, 11, 51, 64
12, 1086240, Note_on_c, 11, 51, 80
12, 1086528, Note_off_c, 11, 51, 64
12, 1086720, Note_on_c, 11, 51, 80
12, 1087008, Note_off_c, 11, 51, 64
12, 1087200, Note_on_c, 11, 50, 80
12, 1087680, Note_off_c, 11, 50, 64
12, 1087680, Note_on_c, 11, 46, 80
12, 1087920, Note_off_c, 11, 46, 64
12, 1088160, Note_on_c, 11, 51, 80
12, 1088640, Note_off_c, 11, 51, 64
12, 1088640, Note_on_c, 11, 48, 80
12, 1088880, Note_off_c, 11, 48, 64
12, 1089120, Note_on_c, 11, 53, 80
12, 1089408, Note_off_c, 11, 53, 64
12, 1089600, Note_on_c, 11, 53, 80
12, 1089888, Note_off_c, 11, 53, 64
12, 1090080, Note_on_c, 11, 41, 80
12, 1090368, Note_off_c, 11, 41, 64
12, 1090560, Note_on_c, 11, 41, 80
12, 1090848, Note_off_c, 11, 41, 64
12, 1091040, Note_on_c, 11, 46, 56
12, 1091424, Note_off_c, 11, 46, 64
12, 1106400, Note_on_c, 11, 46, 80
12, 1107300, Note_off_c, 11, 46, 64
12, 1107360, Note_on_c, 11, 53, 80
12, 1107600, Note_off_c, 11, 53, 64
12, 1108320, Note_on_c, 11, 50, 80
12, 1108800, Note_off_c, 11, 50, 64
12, 1108800, Note_on_c, 11, 51, 80
12, 1109040, Note_off_c, 11, 51, 64
12, 1109280, Note_on_c, 11, 53, 80
12, 1109520, Note_off_c, 11, 53, 64
12, 1109760, Note_on_c, 11, 41, 80
12, 1110000, Note_off_c, 11, 41, 64
12, 1110240, Note_on_c, 11, 46, 80
12, 1111392, Note_off_c, 11, 46, 64
12, 1111680, Note_on_c, 11, 48, 80
12, 1111920, Note_off_c, 11, 48, 64
12, 1112160, Note_on_c, 11, 50, 80
12, 1112640, Note_off_c, 11, 50, 64
12, 1112640, Note_on_c, 11, 46, 80
12, 1112880, Note_off_c, 11, 46, 64
12, 1113120, Note_on_c, 11, 50, 80
12, 1113360, Note_off_c, 11, 50, 64
12, 1113600, Note_on_c, 11, 51, 80
12, 1113840, Note_off_c, 11, 51, 64
12, 1114080, Note_on_c, 11, 53, 80
12, 1115232, Note_off_c, 11, 53, 64
12, 1115520, Note_on_c, 11, 55, 80
12, 1115760, Note_off_c, 11, 55, 64
12, 1116000, Note_on_c, 11, 57, 80
12, 1116480, Note_off_c, 11, 57, 64
12, 1116480, Note_on_c, 11, 58, 80
12, 1116720, Note_off_c, 11, 58, 64
12, 1116960, Note_on_c, 11, 60, 80
12, 1117200, Note_off_c, 11, 60, 64
12, 1117440, Note_on_c, 11, 58, 80
12, 1117680, Note_off_c, 11, 58, 64
12, 1117920, Note_on_c, 11, 57, 80
12, 1119072, Note_off_c, 11, 57, 64
12, 1119360, Note_on_c, 11, 55, 80
12, 1119600, Note_off_c, 11, 55, 64
12, 1119840, Note_on_c, 11, 53, 80
12, 1120320, Note_off_c, 11, 53, 64
12, 1120320, Note_on_c, 11, 55, 80
12, 1120560, Note_off_c, 11, 55, 64
12, 1120800, Note_on_c, 11, 51, 64
12, 1121040, Note_off_c, 11, 51, 64
12, 1121280, Note_on_c, 11, 48, 64
12, 1121520, Note_off_c, 11, 48, 64
12, 1121760, Note_on_c, 11, 45, 51
12, 1122210, Note_off_c, 11, 45, 64
12, 1129440, Note_on_c, 11, 46, 127
12, 1129680, Note_off_c, 11, 46, 64
12, 1130880, Note_on_c, 11, 43, 127
12, 1131120, Note_off_c, 11, 43, 64
12, 1131360, Note_on_c, 11, 39, 127
12, 1131600, Note_off_c, 11, 39, 64
12, 1132320, Note_on_c, 11, 41, 127
12, 1132560, Note_off_c, 11, 41, 64
12, 1137120, Note_on_c, 11, 46, 127
12, 1137360, Note_off_c, 11, 46, 64
12, 1138560, Note_on_c, 11, 43, 127
12, 1138800, Note_off_c, 11, 43, 64
12, 1139040, Note_on_c, 11, 39, 127
12, 1139280, Note_off_c, 11, 39, 64
12, 1140000, Note_on_c, 11, 41, 127
12, 1140240, Note_off_c, 11, 41, 64
12, 1152480, Note_on_c, 11, 58, 127
12, 1152672, Note_off_c, 11, 58, 64
12, 1152720, Note_on_c, 11, 42, 127
12, 1152912, Note_off_c, 11, 42, 64
12, 1152960, Note_on_c, 11, 42, 127
12, 1153152, Note_off_c, 11, 42, 64
12, 1153200, Note_on_c, 11, 42, 127
12, 1153392, Note_off_c, 11, 42, 64
12, 1153440, Note_on_c, 11, 42, 127
12, 1153632, Note_off_c, 11, 42, 64
12, 1153680, Note_on_c, 11, 42, 127
12, 1153872, Note_off_c, 11, 42, 64
12, 1153920, Note_on_c, 11, 42, 127
12, 1154112, Note_off_c, 11, 42, 64
12, 1154160, Note_on_c, 11, 42, 127
12, 1154352, Note_off_c, 11, 42, 64
12, 1154400, Note_on_c, 11, 42, 127
12, 1154592, Note_off_c, 11, 42, 64
12, 1154640, Note_on_c, 11, 42, 127
12, 1154832, Note_off_c, 11, 42, 64
12, 1154880, Note_on_c, 11, 42, 127
12, 1155072, Note_off_c, 11, 42, 64
12, 1155120, Note_on_c, 11, 42, 127
12, 1155312, Note_off_c, 11, 42, 64
12, 1155360, Note_on_c, 11, 42, 127
12, 1155552, Note_off_c, 11, 42, 64
12, 1155600, Note_on_c, 11, 42, 127
12, 1155792, Note_off_c, 11, 42, 64
12, 1155840, Note_on_c, 11, 42, 127
12, 1156032, Note_off_c, 11, 42, 64
12, 1156080, Note_on_c, 11, 42, 127
12, 1156272, Note_off_c, 11, 42, 64
12, 1156320, Note_on_c, 11, 41, 127
12, 1156512, Note_off_c, 11, 41, 64
12, 1156560, Note_on_c, 11, 41, 127
12, 1156752, Note_off_c, 11, 41, 64
12, 1156800, Note_on_c, 11, 41, 127
12, 1156992, Note_off_c, 11, 41, 64
12, 1157040, Note_on_c, 11, 41, 127
12, 1157232, Note_off_c, 11, 41, 64
12, 1157280, Note_on_c, 11, 41, 127
12, 1157472, Note_off_c, 11, 41, 64
12, 1157520, Note_on_c, 11, 41, 127
12, 1157712, Note_off_c, 11, 41, 64
12, 1157760, Note_on_c, 11, 41, 127
12, 1157952, Note_off_c, 11, 41, 64
12, 1158000, Note_on_c, 11, 41, 127
12, 1158192, Note_off_c, 11, 41, 64
12, 1158240, Note_on_c, 11, 41, 127
12, 1158432, Note_off_c, 11, 41, 64
12, 1158480, Note_on_c, 11, 41, 127
12, 1158672, Note_off_c, 11, 41, 64
12, 1158720, Note_on_c, 11, 41, 127
12, 1158912, Note_off_c, 11, 41, 64
12, 1158960, Note_on_c, 11, 41, 127
12, 1159152, Note_off_c, 11, 41, 64
12, 1159200, Note_on_c, 11, 41, 127
12, 1159392, Note_off_c, 11, 41, 64
12, 1159440, Note_on_c, 11, 41, 127
12, 1159632, Note_off_c, 11, 41, 64
12, 1159680, Note_on_c, 11, 41, 127
12, 1159872, Note_off_c, 11, 41, 64
12, 1159920, Note_on_c, 11, 41, 127
12, 1160112, Note_off_c, 11, 41, 64
12, 1160160, Note_on_c, 11, 46, 127
12, 1160544, Note_off_c, 11, 46, 64
12, 1166400, Note_on_c, 11, 41, 112
12, 1167168, Note_off_c, 11, 41, 64
12, 1167360, Note_on_c, 11, 41, 112
12, 1167600, Note_off_c, 11, 41, 64
12, 1167840, Note_on_c, 11, 46, 112
12, 1168080, Note_off_c, 11, 46, 64
12, 1174080, Note_on_c, 11, 41, 112
12, 1174848, Note_off_c, 11, 41, 64
12, 1175040, Note_on_c, 11, 41, 112
12, 1175280, Note_off_c, 11, 41, 64
12, 1175520, Note_on_c, 11, 46, 112
12, 1175760, Note_off_c, 11, 46, 64
12, 1177920, Note_on_c, 11, 41, 112
12, 1178688, Note_off_c, 11, 41, 64
12, 1178880, Note_on_c, 11, 41, 112
12, 1179120, Note_off_c, 11, 41, 64
12, 1179360, Note_on_c, 11, 41, 112
12, 1182946, Note_off_c, 11, 41, 64
12, 1183080, Note_on_c, 11, 41, 112
12, 1183194, Note_off_c, 11, 41, 64
12, 1183200, Note_on_c, 11, 41, 112
12, 1183392, Note_off_c, 11, 41, 64
12, 1185120, Note_on_c, 11, 41, 112
12, 1185312, Note_off_c, 11, 41, 64
12, 1187040, Note_on_c, 11, 41, 112
12, 1187232, Note_off_c, 11, 41, 64
12, 1188000, Note_on_c, 11, 41, 112
12, 1188192, Note_off_c, 11, 41, 64
12, 1188960, Note_on_c, 11, 41, 112
12, 1189152, Note_off_c, 11, 41, 64
12, 1189920, Note_on_c, 11, 41, 112
12, 1190112, Note_off_c, 11, 41, 64
12, 1190880, Note_on_c, 11, 58, 112
12, 1190880, Note_on_c, 11, 46, 112
12, 1191072, Note_off_c, 11, 46, 64
12, 1191072, Note_off_c, 11, 58, 64
12, 1191360, Note_on_c, 11, 62, 90
12, 1191552, Note_off_c, 11, 62, 64
12, 1191840, Note_on_c, 11, 58, 90
12, 1192032, Note_off_c, 11, 58, 64
12, 1192320, Note_on_c, 11, 62, 90
12, 1192512, Note_off_c, 11, 62, 64
12, 1193280, Note_on_c, 11, 58, 90
12, 1193472, Note_off_c, 11, 58, 64
12, 1193760, Note_on_c, 11, 53, 90
12, 1193952, Note_off_c, 11, 53, 64
12, 1194240, Note_on_c, 11, 58, 90
12, 1194432, Note_off_c, 11, 58, 64
12, 1195200, Note_on_c, 11, 53, 90
12, 1195392, Note_off_c, 11, 53, 64
12, 1195680, Note_on_c, 11, 50, 90
12, 1195872, Note_off_c, 11, 50, 64
12, 1196160, Note_on_c, 11, 53, 90
12, 1196352, Note_off_c, 11, 53, 64
12, 1197120, Note_on_c, 11, 50, 90
12, 1197312, Note_off_c, 11, 50, 64
12, 1197600, Note_on_c, 11, 46, 90
12, 1197792, Note_off_c, 11, 46, 64
12, 1198080, Note_on_c, 11, 50, 90
12, 1198272, Note_off_c, 11, 50, 64
12, 1198560, Note_on_c, 11, 46, 90
12, 1198560, Note_on_c, 11, 58, 90
12, 1198752, Note_off_c, 11, 58, 64
12, 1198752, Note_off_c, 11, 46, 64
12, 1199040, Note_on_c, 11, 65, 90
12, 1199232, Note_off_c, 11, 65, 64
12, 1199520, Note_on_c, 11, 62, 90
12, 1199712, Note_off_c, 11, 62, 64
12, 1200000, Note_on_c, 11, 65, 90
12, 1200192, Note_off_c, 11, 65, 64
12, 1200960, Note_on_c, 11, 62, 90
12, 1201152, Note_off_c, 11, 62, 64
12, 1201440, Note_on_c, 11, 58, 90
12, 1201632, Note_off_c, 11, 58, 64
12, 1201920, Note_on_c, 11, 62, 90
12, 1202112, Note_off_c, 11, 62, 64
12, 1202880, Note_on_c, 11, 58, 90
12, 1203072, Note_off_c, 11, 58, 64
12, 1203360, Note_on_c, 11, 53, 90
12, 1203552, Note_off_c, 11, 53, 64
12, 1203840, Note_on_c, 11, 58, 90
12, 1204032, Note_off_c, 11, 58, 64
12, 1204800, Note_on_c, 11, 53, 90
12, 1204992, Note_off_c, 11, 53, 64
12, 1205280, Note_on_c, 11, 50, 90
12, 1205472, Note_off_c, 11, 50, 64
12, 1205760, Note_on_c, 11, 53, 90
12, 1205952, Note_off_c, 11, 53, 64
12, 1206240, Note_on_c, 11, 46, 64
12, 1206432, Note_off_c, 11, 46, 64
12, 1210080, Note_on_c, 11, 41, 122
12, 1211616, Note_off_c, 11, 41, 64
12, 1212000, Note_on_c, 11, 41, 122
12, 1213584, Note_off_c, 11, 41, 64
12, 1213800, Note_on_c, 11, 41, 122
12, 1213908, Note_off_c, 11, 41, 64
12, 1213920, Note_on_c, 11, 46, 127
12, 1214112, Note_off_c, 11, 46, 64
12, 1217760, Note_on_c, 11, 41, 122
12, 1219296, Note_off_c, 11, 41, 64
12, 1219680, Note_on_c, 11, 41, 122
12, 1221264, Note_off_c, 11, 41, 64
12, 1221480, Note_on_c, 11, 41, 122
12, 1221588, Note_off_c, 11, 41, 64
12, 1221600, Note_on_c, 11, 46, 127
12, 1221792, Note_off_c, 11, 46, 64
12, 1222080, Note_on_c, 11, 65, 72
12, 1222560, Note_off_c, 11, 65, 64
12, 1222560, Note_on_c, 11, 63, 73
12, 1223040, Note_off_c, 11, 63, 64
12, 1223040, Note_on_c, 11, 62, 75
12, 1223520, Note_off_c, 11, 62, 64
12, 1223520, Note_on_c, 11, 60, 76
12, 1224000, Note_off_c, 11, 60, 64
12, 1224000, Note_on_c, 11, 58, 78
12, 1224480, Note_off_c, 11, 58, 64
12, 1224480, Note_on_c, 11, 57, 79
12, 1224960, Note_off_c, 11, 57, 64
12, 1224960, Note_on_c, 11, 58, 81
12, 1225440, Note_off_c, 11, 58, 64
12, 1225440, Note_on_c, 11, 53, 83
12, 1225680, Note_off_c, 11, 53, 64
12, 1225920, Note_on_c, 11, 60, 84
12, 1226400, Note_off_c, 11, 60, 64
12, 1226400, Note_on_c, 11, 58, 86
12, 1226880, Note_off_c, 11, 58, 64
12, 1226880, Note_on_c, 11, 57, 87
12, 1227360, Note_off_c, 11, 57, 64
12, 1227360, Note_on_c, 11, 55, 89
12, 1227840, Note_off_c, 11, 55, 64
12, 1227840, Note_on_c, 11, 53, 90
12, 1228320, Note_off_c, 11, 53, 64
12, 1228320, Note_on_c, 11, 52, 92
12, 1228800, Note_off_c, 11, 52, 64
12, 1228800, Note_on_c, 11, 53, 93
12, 1229280, Note_off_c, 11, 53, 64
12, 1229280, Note_on_c, 11, 46, 95
12, 1229472, Note_off_c, 11, 46, 64
12, 1229760, Note_on_c, 11, 53, 97
12, 1230240, Note_off_c, 11, 53, 64
12, 1230240, Note_on_c, 11, 51, 98
12, 1230720, Note_off_c, 11, 51, 64
12, 1230720, Note_on_c, 11, 50, 100
12, 1231200, Note_off_c, 11, 50, 64
12, 1231200, Note_on_c, 11, 48, 101
12, 1231680, Note_off_c, 11, 48, 64
12, 1231680, Note_on_c, 11, 46, 103
12, 1232160, Note_off_c, 11, 46, 64
12, 1232160, Note_on_c, 11, 45, 104
12, 1232640, Note_off_c, 11, 45, 64
12, 1232640, Note_on_c, 11, 46, 106
12, 1233120, Note_off_c, 11, 46, 64
12, 1233120, Note_on_c, 11, 41, 108
12, 1233360, Note_off_c, 11, 41, 64
12, 1233600, Note_on_c, 11, 48, 109
12, 1234080, Note_off_c, 11, 48, 64
12, 1234080, Note_on_c, 11, 46, 111
12, 1234560, Note_off_c, 11, 46, 64
12, 1234560, Note_on_c, 11, 45, 112
12, 1235040, Note_off_c, 11, 45, 64
12, 1235040, Note_on_c, 11, 43, 114
12, 1235520, Note_off_c, 11, 43, 64
12, 1235520, Note_on_c, 11, 41, 115
12, 1236000, Note_off_c, 11, 41, 64
12, 1236000, Note_on_c, 11, 40, 117
12, 1236480, Note_off_c, 11, 40, 64
12, 1236480, Note_on_c, 11, 41, 118
12, 1236960, Note_off_c, 11, 41, 64
12, 1236960, Note_on_c, 11, 46, 127
12, 1237152, Note_off_c, 11, 46, 64
12, 1237200, Note_on_c, 11, 46, 127
12, 1237392, Note_off_c, 11, 46, 64
12, 1237440, Note_on_c, 11, 46, 127
12, 1237632, Note_off_c, 11, 46, 64
12, 1237680, Note_on_c, 11, 46, 127
12, 1237872, Note_off_c, 11, 46, 64
12, 1237920, Note_on_c, 11, 46, 127
12, 1238112, Note_off_c, 11, 46, 64
12, 1238160, Note_on_c, 11, 46, 127
12, 1238352, Note_off_c, 11, 46, 64
12, 1238400, Note_on_c, 11, 46, 127
12, 1238592, Note_off_c, 11, 46, 64
12, 1238640, Note_on_c, 11, 46, 127
12, 1238832, Note_off_c, 11, 46, 64
12, 1238880, Note_on_c, 11, 46, 127
12, 1239072, Note_off_c, 11, 46, 64
12, 1239120, Note_on_c, 11, 46, 127
12, 1239312, Note_off_c, 11, 46, 64
12, 1239360, Note_on_c, 11, 46, 127
12, 1239552, Note_off_c, 11, 46, 64
12, 1239600, Note_on_c, 11, 46, 127
12, 1239792, Note_off_c, 11, 46, 64
12, 1239840, Note_on_c, 11, 46, 127
12, 1240032, Note_off_c, 11, 46, 64
12, 1240080, Note_on_c, 11, 46, 127
12, 1240272, Note_off_c, 11, 46, 64
12, 1240320, Note_on_c, 11, 46, 127
12, 1240512, Note_off_c, 11, 46, 64
12, 1240560, Note_on_c, 11, 46, 127
12, 1240752, Note_off_c, 11, 46, 64
12, 1240800, Note_on_c, 11, 46, 127
12, 1240992, Note_off_c, 11, 46, 64
12, 1241040, Note_on_c, 11, 46, 127
12, 1241232, Note_off_c, 11, 46, 64
12, 1241280, Note_on_c, 11, 46, 127
12, 1241472, Note_off_c, 11, 46, 64
12, 1241520, Note_on_c, 11, 46, 127
12, 1241712, Note_off_c, 11, 46, 64
12, 1241760, Note_on_c, 11, 46, 127
12, 1241952, Note_off_c, 11, 46, 64
12, 1242000, Note_on_c, 11, 46, 127
12, 1242192, Note_off_c, 11, 46, 64
12, 1242240, Note_on_c, 11, 46, 127
12, 1242432, Note_off_c, 11, 46, 64
12, 1242480, Note_on_c, 11, 46, 127
12, 1242672, Note_off_c, 11, 46, 64
12, 1242720, Note_on_c, 11, 46, 127
12, 1242912, Note_off_c, 11, 46, 64
12, 1242960, Note_on_c, 11, 46, 127
12, 1243152, Note_off_c, 11, 46, 64
12, 1243200, Note_on_c, 11, 46, 127
12, 1243392, Note_off_c, 11, 46, 64
12, 1243440, Note_on_c, 11, 46, 127
12, 1243632, Note_off_c, 11, 46, 64
12, 1243680, Note_on_c, 11, 46, 127
12, 1243872, Note_off_c, 11, 46, 64
12, 1243920, Note_on_c, 11, 46, 127
12, 1244112, Note_off_c, 11, 46, 64
12, 1244160, Note_on_c, 11, 46, 127
12, 1244352, Note_off_c, 11, 46, 64
12, 1244400, Note_on_c, 11, 53, 127
12, 1244480, Note_off_c, 11, 53, 64
12, 1244480, Note_on_c, 11, 55, 127
12, 1244560, Note_off_c, 11, 55, 64
12, 1244560, Note_on_c, 11, 57, 127
12, 1244640, Note_off_c, 11, 57, 64
12, 1244640, Note_on_c, 11, 58, 127
12, 1244880, Note_off_c, 11, 58, 64
12, 1245360, Note_on_c, 11, 53, 127
12, 1245440, Note_off_c, 11, 53, 64
12, 1245440, Note_on_c, 11, 55, 127
12, 1245520, Note_off_c, 11, 55, 64
12, 1245520, Note_on_c, 11, 57, 127
12, 1245600, Note_off_c, 11, 57, 64
12, 1245600, Note_on_c, 11, 58, 127
12, 1245840, Note_off_c, 11, 58, 64
12, 1246320, Note_on_c, 11, 53, 127
12, 1246400, Note_off_c, 11, 53, 64
12, 1246400, Note_on_c, 11, 55, 127
12, 1246480, Note_off_c, 11, 55, 64
12, 1246480, Note_on_c, 11, 57, 127
12, 1246560, Note_off_c, 11, 57, 64
12, 1246560, Note_on_c, 11, 58, 127
12, 1246800, Note_off_c, 11, 58, 64
12, 1248480, Note_on_c, 11, 46, 127
12, 1248720, Note_off_c, 11, 46, 64
12, 1248960, Control_c, 11, 7, 127
12, 1250400, Note_on_c, 11, 46, 127
12, 1250640, Note_off_c, 11, 46, 64
12, 1250640, End_track
13, 0, Start_track
13, 0, Title_t, "Bass"
13, 0, MIDI_port, 0
13, 0, Channel_prefix, 12
13, 0, Control_c, 12, 7, 89
13, 0, Control_c, 12, 10, 102
13, 0, Program_c, 12, 48
13, 480, Program_c, 12, 48
13, 480, Control_c, 12, 91, 85
13, 480, Control_c, 12, 93, 90
13, 480, Control_c, 12, 10, 85
13, 540, Control_c, 12, 7, 90
13, 5700, Control_c, 12, 7, 75
13, 7545, Control_c, 12, 7, 32
13, 7561, Control_c, 12, 7, 33
13, 7573, Control_c, 12, 7, 34
13, 7585, Control_c, 12, 7, 36
13, 7601, Control_c, 12, 7, 37
13, 7613, Control_c, 12, 7, 39
13, 7625, Control_c, 12, 7, 40
13, 7641, Control_c, 12, 7, 41
13, 7653, Control_c, 12, 7, 43
13, 7665, Control_c, 12, 7, 44
13, 7680, Note_on_c, 12, 42, 26
13, 7681, Control_c, 12, 7, 46
13, 7693, Control_c, 12, 7, 47
13, 7705, Control_c, 12, 7, 49
13, 7721, Control_c, 12, 7, 50
13, 7733, Control_c, 12, 7, 51
13, 7745, Control_c, 12, 7, 53
13, 7761, Control_c, 12, 7, 54
13, 7773, Control_c, 12, 7, 56
13, 7785, Control_c, 12, 7, 57
13, 7801, Control_c, 12, 7, 59
13, 7813, Control_c, 12, 7, 60
13, 7825, Control_c, 12, 7, 61
13, 7841, Control_c, 12, 7, 63
13, 7853, Control_c, 12, 7, 64
13, 7865, Control_c, 12, 7, 66
13, 7881, Control_c, 12, 7, 67
13, 7893, Control_c, 12, 7, 69
13, 8640, Note_off_c, 12, 42, 64
13, 8640, Note_on_c, 12, 39, 26
13, 9600, Note_off_c, 12, 39, 64
13, 9600, Note_on_c, 12, 41, 26
13, 10560, Note_off_c, 12, 41, 64
13, 10560, Note_on_c, 12, 37, 26
13, 11520, Note_off_c, 12, 37, 64
13, 11520, Note_on_c, 12, 39, 26
13, 12000, Note_off_c, 12, 39, 64
13, 12000, Note_on_c, 12, 36, 26
13, 12480, Note_off_c, 12, 36, 64
13, 12480, Note_on_c, 12, 37, 26
13, 12960, Note_off_c, 12, 37, 64
13, 12960, Note_on_c, 12, 34, 26
13, 13440, Note_off_c, 12, 34, 64
13, 13440, Note_on_c, 12, 30, 26
13, 13441, Control_c, 12, 7, 74
13, 13465, Control_c, 12, 7, 75
13, 13481, Control_c, 12, 7, 76
13, 13505, Control_c, 12, 7, 77
13, 13521, Control_c, 12, 7, 78
13, 13533, Control_c, 12, 7, 79
13, 13561, Control_c, 12, 7, 80
13, 13573, Control_c, 12, 7, 81
13, 13585, Control_c, 12, 7, 82
13, 13613, Control_c, 12, 7, 83
13, 13625, Control_c, 12, 7, 84
13, 13653, Control_c, 12, 7, 85
13, 13665, Control_c, 12, 7, 86
13, 13681, Control_c, 12, 7, 87
13, 13705, Control_c, 12, 7, 88
13, 13721, Control_c, 12, 7, 89
13, 13733, Control_c, 12, 7, 90
13, 13761, Control_c, 12, 7, 91
13, 13773, Control_c, 12, 7, 92
13, 13785, Control_c, 12, 7, 93
13, 13813, Control_c, 12, 7, 94
13, 13825, Control_c, 12, 7, 95
13, 13853, Control_c, 12, 7, 96
13, 13865, Control_c, 12, 7, 97
13, 13881, Control_c, 12, 7, 98
13, 13905, Control_c, 12, 7, 99
13, 13921, Control_c, 12, 7, 100
13, 13933, Control_c, 12, 7, 101
13, 13961, Control_c, 12, 7, 102
13, 13973, Control_c, 12, 7, 103
13, 13985, Control_c, 12, 7, 104
13, 14013, Control_c, 12, 7, 105
13, 14025, Control_c, 12, 7, 106
13, 14053, Control_c, 12, 7, 107
13, 14065, Control_c, 12, 7, 108
13, 14081, Control_c, 12, 7, 109
13, 14105, Control_c, 12, 7, 110
13, 14121, Control_c, 12, 7, 111
13, 14133, Control_c, 12, 7, 112
13, 14161, Control_c, 12, 7, 113
13, 14173, Control_c, 12, 7, 114
13, 14185, Control_c, 12, 7, 115
13, 14213, Control_c, 12, 7, 116
13, 14225, Control_c, 12, 7, 117
13, 14253, Control_c, 12, 7, 118
13, 14265, Control_c, 12, 7, 119
13, 14281, Control_c, 12, 7, 120
13, 14305, Control_c, 12, 7, 121
13, 14321, Control_c, 12, 7, 122
13, 14333, Control_c, 12, 7, 123
13, 14361, Control_c, 12, 7, 124
13, 14373, Control_c, 12, 7, 125
13, 14385, Control_c, 12, 7, 126
13, 14413, Control_c, 12, 7, 125
13, 14441, Control_c, 12, 7, 124
13, 14453, Control_c, 12, 7, 123
13, 14481, Control_c, 12, 7, 122
13, 14505, Control_c, 12, 7, 121
13, 14521, Control_c, 12, 7, 120
13, 14545, Control_c, 12, 7, 119
13, 14561, Control_c, 12, 7, 118
13, 14585, Control_c, 12, 7, 117
13, 14613, Control_c, 12, 7, 116
13, 14625, Control_c, 12, 7, 115
13, 14653, Control_c, 12, 7, 114
13, 14665, Control_c, 12, 7, 113
13, 14693, Control_c, 12, 7, 112
13, 14721, Control_c, 12, 7, 111
13, 14733, Control_c, 12, 7, 110
13, 14761, Control_c, 12, 7, 109
13, 14773, Control_c, 12, 7, 108
13, 14801, Control_c, 12, 7, 107
13, 14825, Control_c, 12, 7, 106
13, 14841, Control_c, 12, 7, 105
13, 14865, Control_c, 12, 7, 104
13, 14881, Control_c, 12, 7, 103
13, 14905, Control_c, 12, 7, 102
13, 14933, Control_c, 12, 7, 101
13, 14945, Control_c, 12, 7, 100
13, 14973, Control_c, 12, 7, 99
13, 14985, Control_c, 12, 7, 98
13, 15013, Control_c, 12, 7, 97
13, 15041, Control_c, 12, 7, 96
13, 15053, Control_c, 12, 7, 95
13, 15081, Control_c, 12, 7, 94
13, 15093, Control_c, 12, 7, 93
13, 15121, Control_c, 12, 7, 92
13, 15145, Control_c, 12, 7, 91
13, 15161, Control_c, 12, 7, 90
13, 15185, Control_c, 12, 7, 89
13, 15201, Control_c, 12, 7, 88
13, 15225, Control_c, 12, 7, 87
13, 15253, Control_c, 12, 7, 86
13, 15265, Control_c, 12, 7, 85
13, 15293, Control_c, 12, 7, 84
13, 15305, Control_c, 12, 7, 83
13, 15333, Control_c, 12, 7, 82
13, 15360, Note_off_c, 12, 30, 64
13, 15360, Note_on_c, 12, 29, 26
13, 15361, Control_c, 12, 7, 81
13, 15373, Control_c, 12, 7, 80
13, 15401, Control_c, 12, 7, 79
13, 15413, Control_c, 12, 7, 78
13, 15441, Control_c, 12, 7, 77
13, 15465, Control_c, 12, 7, 76
13, 15481, Control_c, 12, 7, 75
13, 15505, Control_c, 12, 7, 74
13, 15521, Control_c, 12, 7, 73
13, 15528, Note_off_c, 12, 29, 64
13, 28320, Program_c, 12, 48
13, 30601, Control_c, 12, 7, 32
13, 30613, Control_c, 12, 7, 34
13, 30625, Control_c, 12, 7, 36
13, 30641, Control_c, 12, 7, 38
13, 30653, Control_c, 12, 7, 41
13, 30665, Control_c, 12, 7, 43
13, 30681, Control_c, 12, 7, 45
13, 30693, Control_c, 12, 7, 47
13, 30705, Control_c, 12, 7, 50
13, 30720, Note_on_c, 12, 42, 30
13, 30721, Control_c, 12, 7, 52
13, 30733, Control_c, 12, 7, 54
13, 30745, Control_c, 12, 7, 56
13, 30761, Control_c, 12, 7, 59
13, 30773, Control_c, 12, 7, 61
13, 30785, Control_c, 12, 7, 63
13, 30801, Control_c, 12, 7, 65
13, 30813, Control_c, 12, 7, 68
13, 30825, Control_c, 12, 7, 70
13, 30841, Control_c, 12, 7, 72
13, 30853, Control_c, 12, 7, 74
13, 30865, Control_c, 12, 7, 77
13, 31680, Note_off_c, 12, 42, 64
13, 31680, Note_on_c, 12, 39, 30
13, 32640, Note_off_c, 12, 39, 64
13, 32640, Note_on_c, 12, 41, 30
13, 33600, Note_off_c, 12, 41, 64
13, 33600, Note_on_c, 12, 37, 30
13, 34560, Note_off_c, 12, 37, 64
13, 34560, Note_on_c, 12, 39, 30
13, 35040, Note_off_c, 12, 39, 64
13, 35040, Note_on_c, 12, 36, 30
13, 35520, Note_off_c, 12, 36, 64
13, 35520, Note_on_c, 12, 37, 30
13, 36000, Note_off_c, 12, 37, 64
13, 36000, Note_on_c, 12, 34, 30
13, 36480, Note_off_c, 12, 34, 64
13, 36480, Note_on_c, 12, 30, 30
13, 36481, Control_c, 12, 7, 71
13, 36505, Control_c, 12, 7, 72
13, 36521, Control_c, 12, 7, 73
13, 36533, Control_c, 12, 7, 74
13, 36561, Control_c, 12, 7, 75
13, 36573, Control_c, 12, 7, 76
13, 36585, Control_c, 12, 7, 77
13, 36601, Control_c, 12, 7, 78
13, 36625, Control_c, 12, 7, 79
13, 36641, Control_c, 12, 7, 80
13, 36653, Control_c, 12, 7, 81
13, 36665, Control_c, 12, 7, 82
13, 36693, Control_c, 12, 7, 83
13, 36705, Control_c, 12, 7, 84
13, 36721, Control_c, 12, 7, 85
13, 36745, Control_c, 12, 7, 86
13, 36761, Control_c, 12, 7, 87
13, 36773, Control_c, 12, 7, 88
13, 36785, Control_c, 12, 7, 89
13, 36813, Control_c, 12, 7, 90
13, 36825, Control_c, 12, 7, 91
13, 36841, Control_c, 12, 7, 92
13, 36853, Control_c, 12, 7, 93
13, 36881, Control_c, 12, 7, 94
13, 36893, Control_c, 12, 7, 95
13, 36905, Control_c, 12, 7, 96
13, 36921, Control_c, 12, 7, 97
13, 36945, Control_c, 12, 7, 98
13, 36961, Control_c, 12, 7, 99
13, 36973, Control_c, 12, 7, 100
13, 37001, Control_c, 12, 7, 101
13, 37013, Control_c, 12, 7, 102
13, 37025, Control_c, 12, 7, 103
13, 37041, Control_c, 12, 7, 104
13, 37065, Control_c, 12, 7, 105
13, 37081, Control_c, 12, 7, 106
13, 37093, Control_c, 12, 7, 107
13, 37105, Control_c, 12, 7, 108
13, 37133, Control_c, 12, 7, 109
13, 37145, Control_c, 12, 7, 110
13, 37161, Control_c, 12, 7, 111
13, 37173, Control_c, 12, 7, 112
13, 37201, Control_c, 12, 7, 113
13, 37213, Control_c, 12, 7, 114
13, 37225, Control_c, 12, 7, 115
13, 37253, Control_c, 12, 7, 116
13, 37265, Control_c, 12, 7, 117
13, 37281, Control_c, 12, 7, 118
13, 37293, Control_c, 12, 7, 119
13, 37321, Control_c, 12, 7, 120
13, 37333, Control_c, 12, 7, 121
13, 37345, Control_c, 12, 7, 122
13, 37361, Control_c, 12, 7, 123
13, 37385, Control_c, 12, 7, 124
13, 37401, Control_c, 12, 7, 125
13, 37413, Control_c, 12, 7, 126
13, 37425, Control_c, 12, 7, 127
13, 37453, Control_c, 12, 7, 126
13, 37481, Control_c, 12, 7, 125
13, 37493, Control_c, 12, 7, 124
13, 37521, Control_c, 12, 7, 123
13, 37533, Control_c, 12, 7, 122
13, 37561, Control_c, 12, 7, 121
13, 37573, Control_c, 12, 7, 120
13, 37601, Control_c, 12, 7, 119
13, 37613, Control_c, 12, 7, 118
13, 37641, Control_c, 12, 7, 117
13, 37653, Control_c, 12, 7, 116
13, 37681, Control_c, 12, 7, 115
13, 37693, Control_c, 12, 7, 114
13, 37721, Control_c, 12, 7, 113
13, 37745, Control_c, 12, 7, 112
13, 37761, Control_c, 12, 7, 111
13, 37785, Control_c, 12, 7, 110
13, 37801, Control_c, 12, 7, 109
13, 37825, Control_c, 12, 7, 108
13, 37841, Control_c, 12, 7, 107
13, 37865, Control_c, 12, 7, 106
13, 37881, Control_c, 12, 7, 105
13, 37905, Control_c, 12, 7, 104
13, 37921, Control_c, 12, 7, 103
13, 37945, Control_c, 12, 7, 102
13, 37961, Control_c, 12, 7, 101
13, 37985, Control_c, 12, 7, 100
13, 38013, Control_c, 12, 7, 99
13, 38025, Control_c, 12, 7, 98
13, 38053, Control_c, 12, 7, 97
13, 38065, Control_c, 12, 7, 96
13, 38093, Control_c, 12, 7, 95
13, 38105, Control_c, 12, 7, 94
13, 38133, Control_c, 12, 7, 93
13, 38145, Control_c, 12, 7, 92
13, 38173, Control_c, 12, 7, 91
13, 38185, Control_c, 12, 7, 90
13, 38213, Control_c, 12, 7, 89
13, 38225, Control_c, 12, 7, 88
13, 38253, Control_c, 12, 7, 87
13, 38281, Control_c, 12, 7, 86
13, 38293, Control_c, 12, 7, 85
13, 38321, Control_c, 12, 7, 84
13, 38333, Control_c, 12, 7, 83
13, 38361, Control_c, 12, 7, 82
13, 38373, Control_c, 12, 7, 81
13, 38401, Control_c, 12, 7, 80
13, 38413, Control_c, 12, 7, 79
13, 38441, Control_c, 12, 7, 78
13, 38453, Control_c, 12, 7, 77
13, 38481, Control_c, 12, 7, 76
13, 38493, Control_c, 12, 7, 75
13, 38521, Control_c, 12, 7, 74
13, 38533, Control_c, 12, 7, 73
13, 38568, Note_off_c, 12, 30, 64
13, 48000, Program_c, 12, 45
13, 51360, Note_on_c, 12, 30, 32
13, 51744, Note_off_c, 12, 30, 64
13, 51840, Note_on_c, 12, 31, 64
13, 52224, Note_off_c, 12, 31, 64
13, 52320, Note_on_c, 12, 50, 32
13, 52704, Note_off_c, 12, 50, 64
13, 52800, Note_on_c, 12, 47, 32
13, 53184, Note_off_c, 12, 47, 64
13, 53280, Note_on_c, 12, 43, 32
13, 53664, Note_off_c, 12, 43, 64
13, 53760, Note_on_c, 12, 41, 32
13, 54144, Note_off_c, 12, 41, 64
13, 54240, Note_on_c, 12, 38, 32
13, 54624, Note_off_c, 12, 38, 64
13, 54720, Note_on_c, 12, 35, 32
13, 55104, Note_off_c, 12, 35, 64
13, 55200, Note_on_c, 12, 31, 32
13, 55584, Note_off_c, 12, 31, 64
13, 55680, Note_on_c, 12, 36, 32
13, 56064, Note_off_c, 12, 36, 64
13, 57120, Note_on_c, 12, 43, 32
13, 57504, Note_off_c, 12, 43, 64
13, 57600, Note_on_c, 12, 40, 32
13, 57984, Note_off_c, 12, 40, 64
13, 58080, Note_on_c, 12, 33, 32
13, 58464, Note_off_c, 12, 33, 64
13, 59040, Note_on_c, 12, 45, 32
13, 59424, Note_off_c, 12, 45, 64
13, 59520, Note_on_c, 12, 41, 32
13, 59904, Note_off_c, 12, 41, 64
13, 60000, Note_on_c, 12, 38, 32
13, 60384, Note_off_c, 12, 38, 64
13, 60960, Note_on_c, 12, 46, 32
13, 61344, Note_off_c, 12, 46, 64
13, 61440, Note_on_c, 12, 41, 32
13, 61824, Note_off_c, 12, 41, 64
13, 61920, Note_on_c, 12, 38, 32
13, 62304, Note_off_c, 12, 38, 64
13, 62880, Note_on_c, 12, 38, 22
13, 63264, Note_off_c, 12, 38, 64
13, 63360, Note_on_c, 12, 40, 51
13, 63744, Note_off_c, 12, 40, 64
13, 63840, Note_on_c, 12, 35, 51
13, 64224, Note_off_c, 12, 35, 64
13, 64320, Note_on_c, 12, 28, 51
13, 64704, Note_off_c, 12, 28, 64
13, 64800, Note_on_c, 12, 40, 51
13, 65184, Note_off_c, 12, 40, 64
13, 65280, Program_c, 12, 48
13, 69120, Note_on_c, 12, 33, 23
13, 69504, Note_off_c, 12, 33, 64
13, 70080, Note_on_c, 12, 33, 23
13, 70320, Note_off_c, 12, 33, 64
13, 71040, Note_on_c, 12, 33, 18
13, 71280, Note_off_c, 12, 33, 64
13, 72480, Control_c, 12, 7, 90
13, 72960, Note_on_c, 12, 29, 127
13, 74800, Note_off_c, 12, 29, 64
13, 74820, Note_on_c, 12, 29, 109
13, 74856, Note_off_c, 12, 29, 64
13, 74880, Note_on_c, 12, 29, 127
13, 74976, Note_off_c, 12, 29, 64
13, 76800, Note_on_c, 12, 29, 127
13, 78640, Note_off_c, 12, 29, 64
13, 78660, Note_on_c, 12, 29, 109
13, 78696, Note_off_c, 12, 29, 64
13, 78720, Note_on_c, 12, 29, 127
13, 78960, Note_off_c, 12, 29, 64
13, 80640, Note_on_c, 12, 29, 102
13, 80880, Note_off_c, 12, 29, 64
13, 82560, Note_on_c, 12, 29, 102
13, 82800, Note_off_c, 12, 29, 64
13, 83520, Note_on_c, 12, 29, 102
13, 83760, Note_off_c, 12, 29, 64
13, 84480, Note_on_c, 12, 29, 102
13, 84720, Note_off_c, 12, 29, 64
13, 85440, Note_on_c, 12, 29, 102
13, 85680, Note_off_c, 12, 29, 64
13, 86400, Note_on_c, 12, 34, 102
13, 86640, Note_off_c, 12, 34, 64
13, 101760, Note_on_c, 12, 29, 102
13, 102000, Note_off_c, 12, 29, 64
13, 103680, Note_on_c, 12, 29, 102
13, 103920, Note_off_c, 12, 29, 64
13, 104640, Note_on_c, 12, 29, 102
13, 104880, Note_off_c, 12, 29, 64
13, 105600, Note_on_c, 12, 34, 100
13, 105984, Note_off_c, 12, 34, 64
13, 106080, Note_on_c, 12, 34, 100
13, 106464, Note_off_c, 12, 34, 64
13, 106560, Note_on_c, 12, 34, 100
13, 106944, Note_off_c, 12, 34, 64
13, 107040, Note_on_c, 12, 34, 100
13, 107424, Note_off_c, 12, 34, 64
13, 107520, Note_on_c, 12, 34, 100
13, 107904, Note_off_c, 12, 34, 64
13, 108000, Note_on_c, 12, 34, 100
13, 108384, Note_off_c, 12, 34, 64
13, 108480, Note_on_c, 12, 34, 100
13, 108864, Note_off_c, 12, 34, 64
13, 108960, Note_on_c, 12, 34, 100
13, 109344, Note_off_c, 12, 34, 64
13, 109440, Note_on_c, 12, 34, 100
13, 109824, Note_off_c, 12, 34, 64
13, 109920, Note_on_c, 12, 34, 100
13, 110304, Note_off_c, 12, 34, 64
13, 110400, Note_on_c, 12, 34, 100
13, 110784, Note_off_c, 12, 34, 64
13, 110880, Note_on_c, 12, 34, 100
13, 111264, Note_off_c, 12, 34, 64
13, 111360, Note_on_c, 12, 34, 100
13, 111744, Note_off_c, 12, 34, 64
13, 111840, Note_on_c, 12, 34, 100
13, 112224, Note_off_c, 12, 34, 64
13, 112320, Note_on_c, 12, 34, 100
13, 112704, Note_off_c, 12, 34, 64
13, 112800, Note_on_c, 12, 34, 100
13, 113184, Note_off_c, 12, 34, 64
13, 113280, Note_on_c, 12, 34, 100
13, 113664, Note_off_c, 12, 34, 64
13, 113760, Note_on_c, 12, 46, 96
13, 114240, Note_off_c, 12, 46, 64
13, 114240, Note_on_c, 12, 45, 96
13, 114720, Note_off_c, 12, 45, 64
13, 114720, Note_on_c, 12, 43, 96
13, 115200, Note_off_c, 12, 43, 64
13, 115200, Note_on_c, 12, 41, 96
13, 115680, Note_off_c, 12, 41, 64
13, 115680, Note_on_c, 12, 39, 96
13, 116160, Note_off_c, 12, 39, 64
13, 116160, Note_on_c, 12, 38, 96
13, 116640, Note_off_c, 12, 38, 64
13, 116640, Note_on_c, 12, 39, 96
13, 117120, Note_off_c, 12, 39, 64
13, 117120, Note_on_c, 12, 41, 96
13, 120576, Note_off_c, 12, 41, 64
13, 120960, Note_on_c, 12, 41, 102
13, 121320, Note_off_c, 12, 41, 64
13, 122880, Note_on_c, 12, 43, 102
13, 123240, Note_off_c, 12, 43, 64
13, 124800, Note_on_c, 12, 36, 102
13, 125160, Note_off_c, 12, 36, 64
13, 126720, Note_on_c, 12, 41, 102
13, 127080, Note_off_c, 12, 41, 64
13, 151680, Note_on_c, 12, 34, 51
13, 151872, Note_off_c, 12, 34, 64
13, 151920, Note_on_c, 12, 34, 52
13, 152112, Note_off_c, 12, 34, 64
13, 152160, Note_on_c, 12, 34, 54
13, 152352, Note_off_c, 12, 34, 64
13, 152400, Note_on_c, 12, 34, 54
13, 152592, Note_off_c, 12, 34, 64
13, 152640, Note_on_c, 12, 34, 56
13, 152832, Note_off_c, 12, 34, 64
13, 152880, Note_on_c, 12, 34, 58
13, 153072, Note_off_c, 12, 34, 64
13, 153120, Note_on_c, 12, 34, 58
13, 153312, Note_off_c, 12, 34, 64
13, 153360, Note_on_c, 12, 34, 60
13, 153552, Note_off_c, 12, 34, 64
13, 153600, Note_on_c, 12, 34, 61
13, 153792, Note_off_c, 12, 34, 64
13, 153840, Note_on_c, 12, 34, 62
13, 154032, Note_off_c, 12, 34, 64
13, 154080, Note_on_c, 12, 34, 64
13, 154272, Note_off_c, 12, 34, 64
13, 154320, Note_on_c, 12, 34, 65
13, 154512, Note_off_c, 12, 34, 64
13, 154560, Note_on_c, 12, 34, 66
13, 154752, Note_off_c, 12, 34, 64
13, 154800, Note_on_c, 12, 34, 67
13, 154992, Note_off_c, 12, 34, 64
13, 155040, Note_on_c, 12, 34, 69
13, 155232, Note_off_c, 12, 34, 64
13, 155280, Note_on_c, 12, 34, 70
13, 155472, Note_off_c, 12, 34, 64
13, 155520, Note_on_c, 12, 34, 92
13, 155712, Note_off_c, 12, 34, 64
13, 155760, Note_on_c, 12, 34, 95
13, 155952, Note_off_c, 12, 34, 64
13, 156000, Note_on_c, 12, 34, 96
13, 156192, Note_off_c, 12, 34, 64
13, 156240, Note_on_c, 12, 34, 98
13, 156432, Note_off_c, 12, 34, 64
13, 156480, Note_on_c, 12, 34, 100
13, 156672, Note_off_c, 12, 34, 64
13, 156720, Note_on_c, 12, 34, 101
13, 156912, Note_off_c, 12, 34, 64
13, 156960, Note_on_c, 12, 34, 103
13, 157152, Note_off_c, 12, 34, 64
13, 157200, Note_on_c, 12, 34, 105
13, 157392, Note_off_c, 12, 34, 64
13, 157440, Note_on_c, 12, 34, 107
13, 157632, Note_off_c, 12, 34, 64
13, 157680, Note_on_c, 12, 34, 108
13, 157872, Note_off_c, 12, 34, 64
13, 157920, Note_on_c, 12, 34, 109
13, 158112, Note_off_c, 12, 34, 64
13, 158160, Note_on_c, 12, 34, 112
13, 158352, Note_off_c, 12, 34, 64
13, 158400, Note_on_c, 12, 34, 113
13, 158592, Note_off_c, 12, 34, 64
13, 158760, Note_on_c, 12, 41, 127
13, 158856, Note_off_c, 12, 41, 64
13, 158880, Note_on_c, 12, 43, 127
13, 158976, Note_off_c, 12, 43, 64
13, 159000, Note_on_c, 12, 45, 127
13, 159096, Note_off_c, 12, 45, 64
13, 159120, Note_on_c, 12, 46, 127
13, 159216, Note_off_c, 12, 46, 64
13, 159240, Note_on_c, 12, 48, 127
13, 159336, Note_off_c, 12, 48, 64
13, 159360, Note_on_c, 12, 50, 127
13, 159552, Note_off_c, 12, 50, 64
13, 159840, Note_on_c, 12, 46, 127
13, 160032, Note_off_c, 12, 46, 64
13, 160320, Note_on_c, 12, 41, 127
13, 160512, Note_off_c, 12, 41, 64
13, 160800, Note_on_c, 12, 46, 127
13, 160992, Note_off_c, 12, 46, 64
13, 161280, Note_on_c, 12, 38, 127
13, 161472, Note_off_c, 12, 38, 64
13, 161760, Note_on_c, 12, 41, 127
13, 161952, Note_off_c, 12, 41, 64
13, 162240, Note_on_c, 12, 34, 127
13, 162432, Note_off_c, 12, 34, 64
13, 162720, Note_on_c, 12, 38, 127
13, 162912, Note_off_c, 12, 38, 64
13, 163200, Note_on_c, 12, 31, 127
13, 163392, Note_off_c, 12, 31, 64
13, 163680, Note_on_c, 12, 39, 127
13, 163872, Note_off_c, 12, 39, 64
13, 164160, Note_on_c, 12, 36, 127
13, 164352, Note_off_c, 12, 36, 64
13, 164640, Note_on_c, 12, 34, 127
13, 164832, Note_off_c, 12, 34, 64
13, 165120, Note_on_c, 12, 33, 127
13, 165312, Note_off_c, 12, 33, 64
13, 165600, Note_on_c, 12, 41, 127
13, 165792, Note_off_c, 12, 41, 64
13, 166080, Note_on_c, 12, 39, 127
13, 166272, Note_off_c, 12, 39, 64
13, 166560, Note_on_c, 12, 36, 127
13, 166752, Note_off_c, 12, 36, 64
13, 167040, Note_on_c, 12, 34, 127
13, 170496, Note_off_c, 12, 34, 64
13, 170880, Note_on_c, 12, 39, 127
13, 172416, Note_off_c, 12, 39, 64
13, 172800, Note_on_c, 12, 41, 127
13, 174336, Note_off_c, 12, 41, 64
13, 174720, Note_on_c, 12, 34, 127
13, 176256, Note_off_c, 12, 34, 64
13, 176640, Note_on_c, 12, 33, 127
13, 178176, Note_off_c, 12, 33, 64
13, 178560, Note_on_c, 12, 38, 127
13, 180096, Note_off_c, 12, 38, 64
13, 180480, Note_on_c, 12, 36, 127
13, 182850, Note_off_c, 12, 36, 64
13, 182880, Note_on_c, 12, 48, 127
13, 183072, Note_off_c, 12, 48, 64
13, 183360, Note_on_c, 12, 46, 127
13, 183552, Note_off_c, 12, 46, 64
13, 183840, Note_on_c, 12, 43, 127
13, 184032, Note_off_c, 12, 43, 64
13, 184320, Note_on_c, 12, 44, 127
13, 184512, Note_off_c, 12, 44, 64
13, 184800, Note_on_c, 12, 41, 127
13, 184992, Note_off_c, 12, 41, 64
13, 185280, Note_on_c, 12, 39, 127
13, 185472, Note_off_c, 12, 39, 64
13, 185760, Note_on_c, 12, 37, 127
13, 185952, Note_off_c, 12, 37, 64
13, 186240, Note_on_c, 12, 36, 127
13, 186624, Note_off_c, 12, 36, 64
13, 192480, Note_on_c, 12, 41, 125
13, 193440, Note_off_c, 12, 41, 64
13, 193440, Note_on_c, 12, 36, 96
13, 193776, Note_off_c, 12, 36, 64
13, 193920, Note_on_c, 12, 36, 127
13, 194256, Note_off_c, 12, 36, 64
13, 194400, Note_on_c, 12, 34, 96
13, 194400, Note_on_c, 12, 46, 96
13, 195168, Note_off_c, 12, 46, 64
13, 195168, Note_off_c, 12, 34, 64
13, 195360, Note_on_c, 12, 32, 96
13, 195360, Note_on_c, 12, 44, 96
13, 196224, Note_off_c, 12, 44, 64
13, 196224, Note_off_c, 12, 32, 64
13, 196320, Note_on_c, 12, 31, 96
13, 196320, Note_on_c, 12, 43, 96
13, 197088, Note_off_c, 12, 43, 64
13, 197088, Note_off_c, 12, 31, 64
13, 197280, Note_on_c, 12, 32, 96
13, 197280, Note_on_c, 12, 44, 96
13, 198144, Note_off_c, 12, 44, 64
13, 198144, Note_off_c, 12, 32, 64
13, 198240, Note_on_c, 12, 31, 96
13, 198240, Note_on_c, 12, 43, 96
13, 199008, Note_off_c, 12, 43, 64
13, 199008, Note_off_c, 12, 31, 64
13, 199200, Note_on_c, 12, 29, 96
13, 199200, Note_on_c, 12, 41, 96
13, 200064, Note_off_c, 12, 41, 64
13, 200064, Note_off_c, 12, 29, 64
13, 200160, Note_on_c, 12, 29, 125
13, 200160, Note_on_c, 12, 41, 125
13, 201120, Note_off_c, 12, 41, 64
13, 201120, Note_off_c, 12, 29, 64
13, 201120, Note_on_c, 12, 24, 96
13, 201120, Note_on_c, 12, 36, 96
13, 201504, Note_off_c, 12, 36, 64
13, 201504, Note_off_c, 12, 24, 64
13, 201600, Note_on_c, 12, 36, 56
13, 208260, Note_off_c, 12, 36, 64
13, 208320, Note_on_c, 12, 36, 56
13, 209088, Note_off_c, 12, 36, 64
13, 209280, Note_on_c, 12, 29, 34
13, 216960, Note_off_c, 12, 29, 64
13, 216960, Note_on_c, 12, 38, 34
13, 220800, Note_off_c, 12, 38, 64
13, 220800, Note_on_c, 12, 33, 32
13, 220992, Note_off_c, 12, 33, 64
13, 222240, Note_on_c, 12, 33, 32
13, 222432, Note_off_c, 12, 33, 64
13, 222720, Note_on_c, 12, 33, 32
13, 222912, Note_off_c, 12, 33, 64
13, 224160, Note_on_c, 12, 33, 32
13, 224352, Note_off_c, 12, 33, 64
13, 224640, Note_on_c, 12, 33, 32
13, 224832, Note_off_c, 12, 33, 64
13, 226080, Note_on_c, 12, 33, 32
13, 226272, Note_off_c, 12, 33, 64
13, 226560, Note_on_c, 12, 33, 32
13, 226752, Note_off_c, 12, 33, 64
13, 228000, Note_on_c, 12, 33, 32
13, 228192, Note_off_c, 12, 33, 64
13, 228480, Note_on_c, 12, 33, 39
13, 228864, Note_off_c, 12, 33, 64
13, 229920, Note_on_c, 12, 33, 39
13, 230304, Note_off_c, 12, 33, 64
13, 230400, Note_on_c, 12, 33, 39
13, 230784, Note_off_c, 12, 33, 64
13, 231840, Note_on_c, 12, 33, 39
13, 232224, Note_off_c, 12, 33, 64
13, 232320, Note_on_c, 12, 33, 39
13, 232704, Note_off_c, 12, 33, 64
13, 233760, Note_on_c, 12, 33, 39
13, 234144, Note_off_c, 12, 33, 64
13, 234240, Note_on_c, 12, 33, 39
13, 234624, Note_off_c, 12, 33, 64
13, 235680, Note_on_c, 12, 33, 39
13, 236064, Note_off_c, 12, 33, 64
13, 236160, Note_on_c, 12, 33, 31
13, 236640, Note_off_c, 12, 33, 64
13, 237120, Note_on_c, 12, 34, 32
13, 237600, Note_off_c, 12, 34, 64
13, 238080, Note_on_c, 12, 31, 32
13, 238560, Note_off_c, 12, 31, 64
13, 239040, Note_on_c, 12, 35, 32
13, 239520, Note_off_c, 12, 35, 64
13, 240000, Note_on_c, 12, 36, 32
13, 240480, Note_off_c, 12, 36, 64
13, 240960, Note_on_c, 12, 33, 32
13, 241440, Note_off_c, 12, 33, 64
13, 241920, Note_on_c, 12, 36, 31
13, 242400, Note_off_c, 12, 36, 64
13, 242880, Note_on_c, 12, 38, 36
13, 243360, Note_off_c, 12, 38, 64
13, 243840, Note_on_c, 12, 34, 40
13, 244320, Note_off_c, 12, 34, 64
13, 244800, Note_on_c, 12, 38, 44
13, 245280, Note_off_c, 12, 38, 64
13, 245760, Note_on_c, 12, 40, 49
13, 246240, Note_off_c, 12, 40, 64
13, 246720, Note_on_c, 12, 36, 53
13, 247200, Note_off_c, 12, 36, 64
13, 247680, Note_on_c, 12, 40, 57
13, 248160, Note_off_c, 12, 40, 64
13, 248640, Note_on_c, 12, 41, 61
13, 249120, Note_off_c, 12, 41, 64
13, 249600, Note_on_c, 12, 38, 66
13, 250080, Note_off_c, 12, 38, 64
13, 250560, Note_on_c, 12, 42, 70
13, 251040, Note_off_c, 12, 42, 64
13, 251520, Note_on_c, 12, 43, 74
13, 252000, Note_off_c, 12, 43, 64
13, 252480, Note_on_c, 12, 40, 79
13, 252960, Note_off_c, 12, 40, 64
13, 253440, Note_on_c, 12, 43, 83
13, 253920, Note_off_c, 12, 43, 64
13, 254400, Note_on_c, 12, 45, 87
13, 254880, Note_off_c, 12, 45, 64
13, 255360, Note_on_c, 12, 46, 92
13, 255840, Note_off_c, 12, 46, 64
13, 256320, Note_on_c, 12, 47, 96
13, 256800, Note_off_c, 12, 47, 64
13, 257280, Note_on_c, 12, 36, 92
13, 257760, Note_off_c, 12, 36, 64
13, 258240, Note_on_c, 12, 46, 96
13, 258720, Note_off_c, 12, 46, 64
13, 259200, Note_on_c, 12, 43, 92
13, 259680, Note_off_c, 12, 43, 64
13, 260160, Note_on_c, 12, 40, 96
13, 260640, Note_off_c, 12, 40, 64
13, 261120, Note_on_c, 12, 36, 92
13, 261600, Note_off_c, 12, 36, 64
13, 262080, Note_on_c, 12, 34, 96
13, 262560, Note_off_c, 12, 34, 64
13, 263040, Note_on_c, 12, 33, 80
13, 264192, Note_off_c, 12, 33, 64
13, 264480, Note_on_c, 12, 29, 80
13, 264768, Note_off_c, 12, 29, 64
13, 264960, Note_on_c, 12, 34, 80
13, 266112, Note_off_c, 12, 34, 64
13, 266400, Note_on_c, 12, 31, 80
13, 266688, Note_off_c, 12, 31, 64
13, 266880, Note_on_c, 12, 36, 80
13, 268032, Note_off_c, 12, 36, 64
13, 268320, Note_on_c, 12, 36, 80
13, 268608, Note_off_c, 12, 36, 64
13, 268800, Note_on_c, 12, 34, 80
13, 269088, Note_off_c, 12, 34, 64
13, 269280, Note_on_c, 12, 34, 80
13, 269568, Note_off_c, 12, 34, 64
13, 269760, Note_on_c, 12, 34, 80
13, 270048, Note_off_c, 12, 34, 64
13, 270240, Note_on_c, 12, 34, 80
13, 270528, Note_off_c, 12, 34, 64
13, 270720, Note_on_c, 12, 33, 80
13, 271200, Note_off_c, 12, 33, 64
13, 271200, Note_on_c, 12, 29, 80
13, 271440, Note_off_c, 12, 29, 64
13, 271680, Note_on_c, 12, 34, 80
13, 272160, Note_off_c, 12, 34, 64
13, 272160, Note_on_c, 12, 31, 80
13, 272400, Note_off_c, 12, 31, 64
13, 272640, Note_on_c, 12, 36, 80
13, 272928, Note_off_c, 12, 36, 64
13, 273120, Note_on_c, 12, 48, 80
13, 273408, Note_off_c, 12, 48, 64
13, 273600, Note_on_c, 12, 36, 80
13, 273888, Note_off_c, 12, 36, 64
13, 274080, Note_on_c, 12, 36, 80
13, 274368, Note_off_c, 12, 36, 64
13, 274560, Note_on_c, 12, 41, 56
13, 274944, Note_off_c, 12, 41, 64
13, 276480, Note_on_c, 12, 41, 32
13, 277920, Note_off_c, 12, 41, 64
13, 277920, Note_on_c, 12, 36, 32
13, 278400, Note_off_c, 12, 36, 64
13, 278400, Note_on_c, 12, 41, 32
13, 278880, Note_off_c, 12, 41, 64
13, 280320, Note_on_c, 12, 41, 32
13, 281760, Note_off_c, 12, 41, 64
13, 281760, Note_on_c, 12, 41, 32
13, 282240, Note_off_c, 12, 41, 64
13, 282240, Note_on_c, 12, 36, 32
13, 282720, Note_off_c, 12, 36, 64
13, 284160, Note_on_c, 12, 36, 32
13, 285600, Note_off_c, 12, 36, 64
13, 285600, Note_on_c, 12, 36, 32
13, 286080, Note_off_c, 12, 36, 64
13, 286080, Note_on_c, 12, 36, 32
13, 286560, Note_off_c, 12, 36, 64
13, 288000, Note_on_c, 12, 36, 32
13, 289440, Note_off_c, 12, 36, 64
13, 289440, Note_on_c, 12, 36, 80
13, 289824, Note_off_c, 12, 36, 64
13, 289920, Note_on_c, 12, 41, 80
13, 290304, Note_off_c, 12, 41, 64
13, 291360, Note_on_c, 12, 48, 80
13, 291600, Note_off_c, 12, 48, 64
13, 291840, Note_on_c, 12, 45, 80
13, 292320, Note_off_c, 12, 45, 64
13, 292320, Note_on_c, 12, 46, 80
13, 292560, Note_off_c, 12, 46, 64
13, 292800, Note_on_c, 12, 48, 80
13, 293040, Note_off_c, 12, 48, 64
13, 293280, Note_on_c, 12, 36, 80
13, 293520, Note_off_c, 12, 36, 64
13, 293760, Note_on_c, 12, 41, 80
13, 294912, Note_off_c, 12, 41, 64
13, 295200, Note_on_c, 12, 43, 80
13, 295440, Note_off_c, 12, 43, 64
13, 295680, Note_on_c, 12, 45, 80
13, 296160, Note_off_c, 12, 45, 64
13, 296160, Note_on_c, 12, 41, 80
13, 296400, Note_off_c, 12, 41, 64
13, 296640, Note_on_c, 12, 45, 80
13, 296880, Note_off_c, 12, 45, 64
13, 297120, Note_on_c, 12, 46, 80
13, 297360, Note_off_c, 12, 46, 64
13, 297600, Note_on_c, 12, 48, 80
13, 298752, Note_off_c, 12, 48, 64
13, 299040, Note_on_c, 12, 50, 80
13, 299280, Note_off_c, 12, 50, 64
13, 299520, Note_on_c, 12, 52, 80
13, 300000, Note_off_c, 12, 52, 64
13, 300000, Note_on_c, 12, 53, 80
13, 300240, Note_off_c, 12, 53, 64
13, 300480, Note_on_c, 12, 55, 80
13, 300720, Note_off_c, 12, 55, 64
13, 300960, Note_on_c, 12, 53, 80
13, 301200, Note_off_c, 12, 53, 64
13, 301440, Note_on_c, 12, 52, 80
13, 302592, Note_off_c, 12, 52, 64
13, 302880, Note_on_c, 12, 50, 80
13, 303120, Note_off_c, 12, 50, 64
13, 303360, Note_on_c, 12, 48, 80
13, 303840, Note_off_c, 12, 48, 64
13, 303840, Note_on_c, 12, 50, 80
13, 304080, Note_off_c, 12, 50, 64
13, 304320, Note_on_c, 12, 46, 64
13, 304560, Note_off_c, 12, 46, 64
13, 304800, Note_on_c, 12, 43, 64
13, 305040, Note_off_c, 12, 43, 64
13, 305280, Note_on_c, 12, 40, 51
13, 305730, Note_off_c, 12, 40, 64
13, 312960, Note_on_c, 12, 41, 127
13, 313200, Note_off_c, 12, 41, 64
13, 314400, Note_on_c, 12, 38, 127
13, 314640, Note_off_c, 12, 38, 64
13, 314880, Note_on_c, 12, 34, 127
13, 315120, Note_off_c, 12, 34, 64
13, 315840, Note_on_c, 12, 36, 127
13, 316080, Note_off_c, 12, 36, 64
13, 320640, Note_on_c, 12, 41, 127
13, 320880, Note_off_c, 12, 41, 64
13, 322080, Note_on_c, 12, 38, 127
13, 322320, Note_off_c, 12, 38, 64
13, 322560, Note_on_c, 12, 34, 127
13, 322800, Note_off_c, 12, 34, 64
13, 323520, Note_on_c, 12, 36, 127
13, 323760, Note_off_c, 12, 36, 64
13, 328320, Note_on_c, 12, 29, 70
13, 329856, Note_off_c, 12, 29, 64
13, 330240, Note_on_c, 12, 29, 79
13, 331776, Note_off_c, 12, 29, 64
13, 332160, Note_on_c, 12, 29, 87
13, 333696, Note_off_c, 12, 29, 64
13, 334080, Note_on_c, 12, 29, 96
13, 335616, Note_off_c, 12, 29, 64
13, 336000, Note_on_c, 12, 29, 127
13, 336192, Note_off_c, 12, 29, 64
13, 336240, Note_on_c, 12, 37, 127
13, 336432, Note_off_c, 12, 37, 64
13, 336480, Note_on_c, 12, 37, 127
13, 336672, Note_off_c, 12, 37, 64
13, 336720, Note_on_c, 12, 37, 127
13, 336912, Note_off_c, 12, 37, 64
13, 336960, Note_on_c, 12, 37, 127
13, 337152, Note_off_c, 12, 37, 64
13, 337200, Note_on_c, 12, 37, 127
13, 337392, Note_off_c, 12, 37, 64
13, 337440, Note_on_c, 12, 37, 127
13, 337632, Note_off_c, 12, 37, 64
13, 337680, Note_on_c, 12, 37, 127
13, 337872, Note_off_c, 12, 37, 64
13, 337920, Note_on_c, 12, 37, 127
13, 338112, Note_off_c, 12, 37, 64
13, 338160, Note_on_c, 12, 37, 127
13, 338352, Note_off_c, 12, 37, 64
13, 338400, Note_on_c, 12, 37, 127
13, 338592, Note_off_c, 12, 37, 64
13, 338640, Note_on_c, 12, 37, 127
13, 338832, Note_off_c, 12, 37, 64
13, 338880, Note_on_c, 12, 37, 127
13, 339072, Note_off_c, 12, 37, 64
13, 339120, Note_on_c, 12, 37, 127
13, 339312, Note_off_c, 12, 37, 64
13, 339360, Note_on_c, 12, 37, 127
13, 339552, Note_off_c, 12, 37, 64
13, 339600, Note_on_c, 12, 37, 127
13, 339792, Note_off_c, 12, 37, 64
13, 339840, Note_on_c, 12, 36, 127
13, 340032, Note_off_c, 12, 36, 64
13, 340080, Note_on_c, 12, 36, 127
13, 340272, Note_off_c, 12, 36, 64
13, 340320, Note_on_c, 12, 36, 127
13, 340512, Note_off_c, 12, 36, 64
13, 340560, Note_on_c, 12, 36, 127
13, 340752, Note_off_c, 12, 36, 64
13, 340800, Note_on_c, 12, 36, 127
13, 340992, Note_off_c, 12, 36, 64
13, 341040, Note_on_c, 12, 36, 127
13, 341232, Note_off_c, 12, 36, 64
13, 341280, Note_on_c, 12, 36, 127
13, 341472, Note_off_c, 12, 36, 64
13, 341520, Note_on_c, 12, 36, 127
13, 341712, Note_off_c, 12, 36, 64
13, 341760, Note_on_c, 12, 36, 127
13, 341952, Note_off_c, 12, 36, 64
13, 342000, Note_on_c, 12, 36, 127
13, 342192, Note_off_c, 12, 36, 64
13, 342240, Note_on_c, 12, 36, 127
13, 342432, Note_off_c, 12, 36, 64
13, 342480, Note_on_c, 12, 36, 127
13, 342672, Note_off_c, 12, 36, 64
13, 342720, Note_on_c, 12, 36, 127
13, 342912, Note_off_c, 12, 36, 64
13, 342960, Note_on_c, 12, 36, 127
13, 343152, Note_off_c, 12, 36, 64
13, 343200, Note_on_c, 12, 36, 127
13, 343392, Note_off_c, 12, 36, 64
13, 343440, Note_on_c, 12, 36, 127
13, 343632, Note_off_c, 12, 36, 64
13, 343680, Note_on_c, 12, 29, 127
13, 344064, Note_off_c, 12, 29, 64
13, 349920, Note_on_c, 12, 36, 112
13, 350688, Note_off_c, 12, 36, 64
13, 350880, Note_on_c, 12, 36, 112
13, 351120, Note_off_c, 12, 36, 64
13, 351360, Note_on_c, 12, 29, 112
13, 351600, Note_off_c, 12, 29, 64
13, 357600, Note_on_c, 12, 36, 112
13, 358368, Note_off_c, 12, 36, 64
13, 358560, Note_on_c, 12, 36, 112
13, 358800, Note_off_c, 12, 36, 64
13, 359040, Note_on_c, 12, 29, 112
13, 359280, Note_off_c, 12, 29, 64
13, 361440, Note_on_c, 12, 36, 112
13, 362208, Note_off_c, 12, 36, 64
13, 362400, Note_on_c, 12, 36, 112
13, 362640, Note_off_c, 12, 36, 64
13, 362880, Note_on_c, 12, 29, 127
13, 364720, Note_off_c, 12, 29, 64
13, 364740, Note_on_c, 12, 29, 109
13, 364776, Note_off_c, 12, 29, 64
13, 364800, Note_on_c, 12, 29, 127
13, 364896, Note_off_c, 12, 29, 64
13, 366720, Note_on_c, 12, 29, 127
13, 368560, Note_off_c, 12, 29, 64
13, 368580, Note_on_c, 12, 29, 109
13, 368616, Note_off_c, 12, 29, 64
13, 368640, Note_on_c, 12, 29, 127
13, 368880, Note_off_c, 12, 29, 64
13, 370560, Note_on_c, 12, 29, 127
13, 370800, Note_off_c, 12, 29, 64
13, 372480, Note_on_c, 12, 29, 102
13, 372720, Note_off_c, 12, 29, 64
13, 373440, Note_on_c, 12, 29, 102
13, 373680, Note_off_c, 12, 29, 64
13, 374400, Note_on_c, 12, 29, 102
13, 374640, Note_off_c, 12, 29, 64
13, 375360, Note_on_c, 12, 29, 102
13, 375600, Note_off_c, 12, 29, 64
13, 376320, Note_on_c, 12, 34, 102
13, 376560, Note_off_c, 12, 34, 64
13, 391680, Note_on_c, 12, 29, 102
13, 391920, Note_off_c, 12, 29, 64
13, 393600, Note_on_c, 12, 29, 102
13, 393840, Note_off_c, 12, 29, 64
13, 394560, Note_on_c, 12, 29, 102
13, 394800, Note_off_c, 12, 29, 64
13, 395520, Note_on_c, 12, 34, 100
13, 395904, Note_off_c, 12, 34, 64
13, 396000, Note_on_c, 12, 34, 100
13, 396384, Note_off_c, 12, 34, 64
13, 396480, Note_on_c, 12, 34, 100
13, 396864, Note_off_c, 12, 34, 64
13, 396960, Note_on_c, 12, 34, 100
13, 397344, Note_off_c, 12, 34, 64
13, 397440, Note_on_c, 12, 34, 100
13, 397824, Note_off_c, 12, 34, 64
13, 397920, Note_on_c, 12, 34, 100
13, 398304, Note_off_c, 12, 34, 64
13, 398400, Note_on_c, 12, 34, 100
13, 398784, Note_off_c, 12, 34, 64
13, 398880, Note_on_c, 12, 34, 100
13, 399264, Note_off_c, 12, 34, 64
13, 399360, Note_on_c, 12, 34, 100
13, 399744, Note_off_c, 12, 34, 64
13, 399840, Note_on_c, 12, 34, 100
13, 400224, Note_off_c, 12, 34, 64
13, 400320, Note_on_c, 12, 34, 100
13, 400704, Note_off_c, 12, 34, 64
13, 400800, Note_on_c, 12, 34, 100
13, 401184, Note_off_c, 12, 34, 64
13, 401280, Note_on_c, 12, 34, 100
13, 401664, Note_off_c, 12, 34, 64
13, 401760, Note_on_c, 12, 34, 100
13, 402144, Note_off_c, 12, 34, 64
13, 402240, Note_on_c, 12, 34, 100
13, 402624, Note_off_c, 12, 34, 64
13, 402720, Note_on_c, 12, 34, 100
13, 403104, Note_off_c, 12, 34, 64
13, 403200, Note_on_c, 12, 34, 100
13, 403584, Note_off_c, 12, 34, 64
13, 403680, Note_on_c, 12, 46, 96
13, 404160, Note_off_c, 12, 46, 64
13, 404160, Note_on_c, 12, 45, 96
13, 404640, Note_off_c, 12, 45, 64
13, 404640, Note_on_c, 12, 43, 96
13, 405120, Note_off_c, 12, 43, 64
13, 405120, Note_on_c, 12, 41, 96
13, 405600, Note_off_c, 12, 41, 64
13, 405600, Note_on_c, 12, 39, 96
13, 406080, Note_off_c, 12, 39, 64
13, 406080, Note_on_c, 12, 38, 96
13, 406560, Note_off_c, 12, 38, 64
13, 406560, Note_on_c, 12, 39, 96
13, 407040, Note_off_c, 12, 39, 64
13, 407040, Note_on_c, 12, 41, 96
13, 410496, Note_off_c, 12, 41, 64
13, 410880, Note_on_c, 12, 41, 102
13, 411240, Note_off_c, 12, 41, 64
13, 412800, Note_on_c, 12, 43, 102
13, 413160, Note_off_c, 12, 43, 64
13, 414720, Note_on_c, 12, 36, 102
13, 415080, Note_off_c, 12, 36, 64
13, 416640, Note_on_c, 12, 41, 102
13, 417000, Note_off_c, 12, 41, 64
13, 441600, Note_on_c, 12, 34, 51
13, 441792, Note_off_c, 12, 34, 64
13, 441840, Note_on_c, 12, 34, 52
13, 442032, Note_off_c, 12, 34, 64
13, 442080, Note_on_c, 12, 34, 54
13, 442272, Note_off_c, 12, 34, 64
13, 442320, Note_on_c, 12, 34, 54
13, 442512, Note_off_c, 12, 34, 64
13, 442560, Note_on_c, 12, 34, 56
13, 442752, Note_off_c, 12, 34, 64
13, 442800, Note_on_c, 12, 34, 58
13, 442992, Note_off_c, 12, 34, 64
13, 443040, Note_on_c, 12, 34, 58
13, 443232, Note_off_c, 12, 34, 64
13, 443280, Note_on_c, 12, 34, 60
13, 443472, Note_off_c, 12, 34, 64
13, 443520, Note_on_c, 12, 34, 61
13, 443712, Note_off_c, 12, 34, 64
13, 443760, Note_on_c, 12, 34, 62
13, 443952, Note_off_c, 12, 34, 64
13, 444000, Note_on_c, 12, 34, 64
13, 444192, Note_off_c, 12, 34, 64
13, 444240, Note_on_c, 12, 34, 65
13, 444432, Note_off_c, 12, 34, 64
13, 444480, Note_on_c, 12, 34, 66
13, 444672, Note_off_c, 12, 34, 64
13, 444720, Note_on_c, 12, 34, 67
13, 444912, Note_off_c, 12, 34, 64
13, 444960, Note_on_c, 12, 34, 69
13, 445152, Note_off_c, 12, 34, 64
13, 445200, Note_on_c, 12, 34, 70
13, 445392, Note_off_c, 12, 34, 64
13, 445440, Note_on_c, 12, 34, 92
13, 445632, Note_off_c, 12, 34, 64
13, 445680, Note_on_c, 12, 34, 95
13, 445872, Note_off_c, 12, 34, 64
13, 445920, Note_on_c, 12, 34, 96
13, 446112, Note_off_c, 12, 34, 64
13, 446160, Note_on_c, 12, 34, 98
13, 446352, Note_off_c, 12, 34, 64
13, 446400, Note_on_c, 12, 34, 100
13, 446592, Note_off_c, 12, 34, 64
13, 446640, Note_on_c, 12, 34, 101
13, 446832, Note_off_c, 12, 34, 64
13, 446880, Note_on_c, 12, 34, 103
13, 447072, Note_off_c, 12, 34, 64
13, 447120, Note_on_c, 12, 34, 105
13, 447312, Note_off_c, 12, 34, 64
13, 447360, Note_on_c, 12, 34, 107
13, 447552, Note_off_c, 12, 34, 64
13, 447600, Note_on_c, 12, 34, 108
13, 447792, Note_off_c, 12, 34, 64
13, 447840, Note_on_c, 12, 34, 109
13, 448032, Note_off_c, 12, 34, 64
13, 448080, Note_on_c, 12, 34, 112
13, 448272, Note_off_c, 12, 34, 64
13, 448320, Note_on_c, 12, 34, 113
13, 448512, Note_off_c, 12, 34, 64
13, 448680, Note_on_c, 12, 41, 127
13, 448776, Note_off_c, 12, 41, 64
13, 448800, Note_on_c, 12, 43, 127
13, 448896, Note_off_c, 12, 43, 64
13, 448920, Note_on_c, 12, 45, 127
13, 449016, Note_off_c, 12, 45, 64
13, 449040, Note_on_c, 12, 46, 127
13, 449136, Note_off_c, 12, 46, 64
13, 449160, Note_on_c, 12, 48, 127
13, 449256, Note_off_c, 12, 48, 64
13, 449280, Note_on_c, 12, 50, 127
13, 449472, Note_off_c, 12, 50, 64
13, 449760, Note_on_c, 12, 46, 127
13, 449952, Note_off_c, 12, 46, 64
13, 450240, Note_on_c, 12, 41, 127
13, 450432, Note_off_c, 12, 41, 64
13, 450720, Note_on_c, 12, 46, 127
13, 450912, Note_off_c, 12, 46, 64
13, 451200, Note_on_c, 12, 38, 127
13, 451392, Note_off_c, 12, 38, 64
13, 451680, Note_on_c, 12, 41, 127
13, 451872, Note_off_c, 12, 41, 64
13, 452160, Note_on_c, 12, 34, 127
13, 452352, Note_off_c, 12, 34, 64
13, 452640, Note_on_c, 12, 38, 127
13, 452832, Note_off_c, 12, 38, 64
13, 453120, Note_on_c, 12, 31, 127
13, 453312, Note_off_c, 12, 31, 64
13, 453600, Note_on_c, 12, 39, 127
13, 453792, Note_off_c, 12, 39, 64
13, 454080, Note_on_c, 12, 36, 127
13, 454272, Note_off_c, 12, 36, 64
13, 454560, Note_on_c, 12, 34, 127
13, 454752, Note_off_c, 12, 34, 64
13, 455040, Note_on_c, 12, 33, 127
13, 455232, Note_off_c, 12, 33, 64
13, 455520, Note_on_c, 12, 41, 127
13, 455712, Note_off_c, 12, 41, 64
13, 456000, Note_on_c, 12, 39, 127
13, 456192, Note_off_c, 12, 39, 64
13, 456480, Note_on_c, 12, 36, 127
13, 456672, Note_off_c, 12, 36, 64
13, 456960, Note_on_c, 12, 34, 127
13, 460416, Note_off_c, 12, 34, 64
13, 460800, Note_on_c, 12, 39, 127
13, 462336, Note_off_c, 12, 39, 64
13, 462720, Note_on_c, 12, 41, 127
13, 464256, Note_off_c, 12, 41, 64
13, 464640, Note_on_c, 12, 34, 127
13, 466176, Note_off_c, 12, 34, 64
13, 466560, Note_on_c, 12, 33, 127
13, 468096, Note_off_c, 12, 33, 64
13, 468480, Note_on_c, 12, 38, 127
13, 470016, Note_off_c, 12, 38, 64
13, 470400, Note_on_c, 12, 36, 127
13, 472770, Note_off_c, 12, 36, 64
13, 472800, Note_on_c, 12, 48, 127
13, 472992, Note_off_c, 12, 48, 64
13, 473280, Note_on_c, 12, 46, 127
13, 473472, Note_off_c, 12, 46, 64
13, 473760, Note_on_c, 12, 43, 127
13, 473952, Note_off_c, 12, 43, 64
13, 474240, Note_on_c, 12, 44, 127
13, 474432, Note_off_c, 12, 44, 64
13, 474720, Note_on_c, 12, 41, 127
13, 474912, Note_off_c, 12, 41, 64
13, 475200, Note_on_c, 12, 39, 127
13, 475392, Note_off_c, 12, 39, 64
13, 475680, Note_on_c, 12, 37, 127
13, 475872, Note_off_c, 12, 37, 64
13, 476160, Note_on_c, 12, 36, 127
13, 476544, Note_off_c, 12, 36, 64
13, 482400, Note_on_c, 12, 41, 125
13, 483360, Note_off_c, 12, 41, 64
13, 483360, Note_on_c, 12, 36, 96
13, 483696, Note_off_c, 12, 36, 64
13, 483840, Note_on_c, 12, 36, 127
13, 484176, Note_off_c, 12, 36, 64
13, 484320, Note_on_c, 12, 34, 96
13, 484320, Note_on_c, 12, 46, 96
13, 485088, Note_off_c, 12, 46, 64
13, 485088, Note_off_c, 12, 34, 64
13, 485280, Note_on_c, 12, 32, 96
13, 485280, Note_on_c, 12, 44, 96
13, 486144, Note_off_c, 12, 44, 64
13, 486144, Note_off_c, 12, 32, 64
13, 486240, Note_on_c, 12, 31, 96
13, 486240, Note_on_c, 12, 43, 96
13, 487008, Note_off_c, 12, 43, 64
13, 487008, Note_off_c, 12, 31, 64
13, 487200, Note_on_c, 12, 32, 96
13, 487200, Note_on_c, 12, 44, 96
13, 488064, Note_off_c, 12, 44, 64
13, 488064, Note_off_c, 12, 32, 64
13, 488160, Note_on_c, 12, 31, 96
13, 488160, Note_on_c, 12, 43, 96
13, 488928, Note_off_c, 12, 43, 64
13, 488928, Note_off_c, 12, 31, 64
13, 489120, Note_on_c, 12, 29, 96
13, 489120, Note_on_c, 12, 41, 96
13, 489984, Note_off_c, 12, 41, 64
13, 489984, Note_off_c, 12, 29, 64
13, 490080, Note_on_c, 12, 29, 125
13, 490080, Note_on_c, 12, 41, 125
13, 491040, Note_off_c, 12, 41, 64
13, 491040, Note_off_c, 12, 29, 64
13, 491040, Note_on_c, 12, 24, 96
13, 491040, Note_on_c, 12, 36, 96
13, 491424, Note_off_c, 12, 36, 64
13, 491424, Note_off_c, 12, 24, 64
13, 491520, Note_on_c, 12, 36, 56
13, 498180, Note_off_c, 12, 36, 64
13, 498240, Note_on_c, 12, 36, 56
13, 499008, Note_off_c, 12, 36, 64
13, 499200, Note_on_c, 12, 29, 34
13, 506880, Note_off_c, 12, 29, 64
13, 506880, Note_on_c, 12, 38, 34
13, 510720, Note_off_c, 12, 38, 64
13, 510720, Note_on_c, 12, 33, 32
13, 510912, Note_off_c, 12, 33, 64
13, 512160, Note_on_c, 12, 33, 32
13, 512352, Note_off_c, 12, 33, 64
13, 512640, Note_on_c, 12, 33, 32
13, 512832, Note_off_c, 12, 33, 64
13, 514080, Note_on_c, 12, 33, 32
13, 514272, Note_off_c, 12, 33, 64
13, 514560, Note_on_c, 12, 33, 32
13, 514752, Note_off_c, 12, 33, 64
13, 516000, Note_on_c, 12, 33, 32
13, 516192, Note_off_c, 12, 33, 64
13, 516480, Note_on_c, 12, 33, 32
13, 516672, Note_off_c, 12, 33, 64
13, 517920, Note_on_c, 12, 33, 32
13, 518112, Note_off_c, 12, 33, 64
13, 518400, Note_on_c, 12, 33, 39
13, 518784, Note_off_c, 12, 33, 64
13, 519840, Note_on_c, 12, 33, 39
13, 520224, Note_off_c, 12, 33, 64
13, 520320, Note_on_c, 12, 33, 39
13, 520704, Note_off_c, 12, 33, 64
13, 521760, Note_on_c, 12, 33, 39
13, 522144, Note_off_c, 12, 33, 64
13, 522240, Note_on_c, 12, 33, 39
13, 522624, Note_off_c, 12, 33, 64
13, 523680, Note_on_c, 12, 33, 39
13, 524064, Note_off_c, 12, 33, 64
13, 524160, Note_on_c, 12, 33, 39
13, 524544, Note_off_c, 12, 33, 64
13, 525600, Note_on_c, 12, 33, 39
13, 525984, Note_off_c, 12, 33, 64
13, 526080, Note_on_c, 12, 33, 31
13, 526560, Note_off_c, 12, 33, 64
13, 527040, Note_on_c, 12, 34, 32
13, 527520, Note_off_c, 12, 34, 64
13, 528000, Note_on_c, 12, 31, 32
13, 528480, Note_off_c, 12, 31, 64
13, 528960, Note_on_c, 12, 35, 32
13, 529440, Note_off_c, 12, 35, 64
13, 529920, Note_on_c, 12, 36, 32
13, 530400, Note_off_c, 12, 36, 64
13, 530880, Note_on_c, 12, 33, 32
13, 531360, Note_off_c, 12, 33, 64
13, 531840, Note_on_c, 12, 36, 31
13, 532320, Note_off_c, 12, 36, 64
13, 532800, Note_on_c, 12, 38, 36
13, 533280, Note_off_c, 12, 38, 64
13, 533760, Note_on_c, 12, 34, 40
13, 534240, Note_off_c, 12, 34, 64
13, 534720, Note_on_c, 12, 38, 44
13, 535200, Note_off_c, 12, 38, 64
13, 535680, Note_on_c, 12, 40, 49
13, 536160, Note_off_c, 12, 40, 64
13, 536640, Note_on_c, 12, 36, 53
13, 537120, Note_off_c, 12, 36, 64
13, 537600, Note_on_c, 12, 40, 57
13, 538080, Note_off_c, 12, 40, 64
13, 538560, Note_on_c, 12, 41, 61
13, 539040, Note_off_c, 12, 41, 64
13, 539520, Note_on_c, 12, 38, 66
13, 540000, Note_off_c, 12, 38, 64
13, 540480, Note_on_c, 12, 42, 70
13, 540960, Note_off_c, 12, 42, 64
13, 541440, Note_on_c, 12, 43, 74
13, 541920, Note_off_c, 12, 43, 64
13, 542400, Note_on_c, 12, 40, 79
13, 542880, Note_off_c, 12, 40, 64
13, 543360, Note_on_c, 12, 43, 83
13, 543840, Note_off_c, 12, 43, 64
13, 544320, Note_on_c, 12, 45, 87
13, 544800, Note_off_c, 12, 45, 64
13, 545280, Note_on_c, 12, 46, 92
13, 545760, Note_off_c, 12, 46, 64
13, 546240, Note_on_c, 12, 47, 96
13, 546720, Note_off_c, 12, 47, 64
13, 547200, Note_on_c, 12, 36, 92
13, 547680, Note_off_c, 12, 36, 64
13, 548160, Note_on_c, 12, 46, 96
13, 548640, Note_off_c, 12, 46, 64
13, 549120, Note_on_c, 12, 43, 92
13, 549600, Note_off_c, 12, 43, 64
13, 550080, Note_on_c, 12, 40, 96
13, 550560, Note_off_c, 12, 40, 64
13, 551040, Note_on_c, 12, 36, 92
13, 551520, Note_off_c, 12, 36, 64
13, 552000, Note_on_c, 12, 34, 96
13, 552480, Note_off_c, 12, 34, 64
13, 552960, Note_on_c, 12, 33, 80
13, 554112, Note_off_c, 12, 33, 64
13, 554400, Note_on_c, 12, 29, 80
13, 554688, Note_off_c, 12, 29, 64
13, 554880, Note_on_c, 12, 34, 80
13, 556032, Note_off_c, 12, 34, 64
13, 556320, Note_on_c, 12, 31, 80
13, 556608, Note_off_c, 12, 31, 64
13, 556800, Note_on_c, 12, 36, 80
13, 557952, Note_off_c, 12, 36, 64
13, 558240, Note_on_c, 12, 36, 80
13, 558528, Note_off_c, 12, 36, 64
13, 558720, Note_on_c, 12, 34, 80
13, 559008, Note_off_c, 12, 34, 64
13, 559200, Note_on_c, 12, 34, 80
13, 559488, Note_off_c, 12, 34, 64
13, 559680, Note_on_c, 12, 34, 80
13, 559968, Note_off_c, 12, 34, 64
13, 560160, Note_on_c, 12, 34, 80
13, 560448, Note_off_c, 12, 34, 64
13, 560640, Note_on_c, 12, 33, 80
13, 561120, Note_off_c, 12, 33, 64
13, 561120, Note_on_c, 12, 29, 80
13, 561360, Note_off_c, 12, 29, 64
13, 561600, Note_on_c, 12, 34, 80
13, 562080, Note_off_c, 12, 34, 64
13, 562080, Note_on_c, 12, 31, 80
13, 562320, Note_off_c, 12, 31, 64
13, 562560, Note_on_c, 12, 36, 80
13, 562848, Note_off_c, 12, 36, 64
13, 563040, Note_on_c, 12, 48, 80
13, 563328, Note_off_c, 12, 48, 64
13, 563520, Note_on_c, 12, 36, 80
13, 563808, Note_off_c, 12, 36, 64
13, 564000, Note_on_c, 12, 36, 80
13, 564288, Note_off_c, 12, 36, 64
13, 564480, Note_on_c, 12, 41, 56
13, 564864, Note_off_c, 12, 41, 64
13, 566400, Note_on_c, 12, 41, 32
13, 567840, Note_off_c, 12, 41, 64
13, 567840, Note_on_c, 12, 36, 32
13, 568320, Note_off_c, 12, 36, 64
13, 568320, Note_on_c, 12, 41, 32
13, 568800, Note_off_c, 12, 41, 64
13, 570240, Note_on_c, 12, 41, 32
13, 571680, Note_off_c, 12, 41, 64
13, 571680, Note_on_c, 12, 41, 32
13, 572160, Note_off_c, 12, 41, 64
13, 572160, Note_on_c, 12, 36, 32
13, 572640, Note_off_c, 12, 36, 64
13, 574080, Note_on_c, 12, 36, 32
13, 575520, Note_off_c, 12, 36, 64
13, 575520, Note_on_c, 12, 36, 32
13, 576000, Note_off_c, 12, 36, 64
13, 576000, Note_on_c, 12, 36, 32
13, 576480, Note_off_c, 12, 36, 64
13, 577920, Note_on_c, 12, 36, 32
13, 579360, Note_off_c, 12, 36, 64
13, 579360, Note_on_c, 12, 36, 80
13, 579744, Note_off_c, 12, 36, 64
13, 579840, Note_on_c, 12, 41, 80
13, 580224, Note_off_c, 12, 41, 64
13, 581280, Note_on_c, 12, 48, 80
13, 581520, Note_off_c, 12, 48, 64
13, 581760, Note_on_c, 12, 45, 80
13, 582240, Note_off_c, 12, 45, 64
13, 582240, Note_on_c, 12, 46, 80
13, 582480, Note_off_c, 12, 46, 64
13, 582720, Note_on_c, 12, 48, 80
13, 582960, Note_off_c, 12, 48, 64
13, 583200, Note_on_c, 12, 36, 80
13, 583440, Note_off_c, 12, 36, 64
13, 583680, Note_on_c, 12, 41, 80
13, 584832, Note_off_c, 12, 41, 64
13, 585120, Note_on_c, 12, 43, 80
13, 585360, Note_off_c, 12, 43, 64
13, 585600, Note_on_c, 12, 45, 80
13, 586080, Note_off_c, 12, 45, 64
13, 586080, Note_on_c, 12, 41, 80
13, 586320, Note_off_c, 12, 41, 64
13, 586560, Note_on_c, 12, 45, 80
13, 586800, Note_off_c, 12, 45, 64
13, 587040, Note_on_c, 12, 46, 80
13, 587280, Note_off_c, 12, 46, 64
13, 587520, Note_on_c, 12, 48, 80
13, 588672, Note_off_c, 12, 48, 64
13, 588960, Note_on_c, 12, 50, 80
13, 589200, Note_off_c, 12, 50, 64
13, 589440, Note_on_c, 12, 52, 80
13, 589920, Note_off_c, 12, 52, 64
13, 589920, Note_on_c, 12, 53, 80
13, 590160, Note_off_c, 12, 53, 64
13, 590400, Note_on_c, 12, 55, 80
13, 590640, Note_off_c, 12, 55, 64
13, 590880, Note_on_c, 12, 53, 80
13, 591120, Note_off_c, 12, 53, 64
13, 591360, Note_on_c, 12, 52, 80
13, 592512, Note_off_c, 12, 52, 64
13, 592800, Note_on_c, 12, 50, 80
13, 593040, Note_off_c, 12, 50, 64
13, 593280, Note_on_c, 12, 48, 80
13, 593760, Note_off_c, 12, 48, 64
13, 593760, Note_on_c, 12, 50, 80
13, 594000, Note_off_c, 12, 50, 64
13, 594240, Note_on_c, 12, 46, 64
13, 594480, Note_off_c, 12, 46, 64
13, 594720, Note_on_c, 12, 43, 64
13, 594960, Note_off_c, 12, 43, 64
13, 595200, Note_on_c, 12, 40, 51
13, 595650, Note_off_c, 12, 40, 64
13, 602880, Note_on_c, 12, 41, 127
13, 603120, Note_off_c, 12, 41, 64
13, 604320, Note_on_c, 12, 38, 127
13, 604560, Note_off_c, 12, 38, 64
13, 604800, Note_on_c, 12, 34, 127
13, 605040, Note_off_c, 12, 34, 64
13, 605760, Note_on_c, 12, 36, 127
13, 606000, Note_off_c, 12, 36, 64
13, 610560, Note_on_c, 12, 41, 127
13, 610800, Note_off_c, 12, 41, 64
13, 612000, Note_on_c, 12, 38, 127
13, 612240, Note_off_c, 12, 38, 64
13, 612480, Note_on_c, 12, 34, 127
13, 612720, Note_off_c, 12, 34, 64
13, 613440, Note_on_c, 12, 36, 127
13, 613680, Note_off_c, 12, 36, 64
13, 618240, Note_on_c, 12, 29, 70
13, 619776, Note_off_c, 12, 29, 64
13, 620160, Note_on_c, 12, 29, 79
13, 621696, Note_off_c, 12, 29, 64
13, 622080, Note_on_c, 12, 29, 87
13, 623616, Note_off_c, 12, 29, 64
13, 624000, Note_on_c, 12, 29, 96
13, 625536, Note_off_c, 12, 29, 64
13, 625920, Note_on_c, 12, 29, 127
13, 626112, Note_off_c, 12, 29, 64
13, 626160, Note_on_c, 12, 37, 127
13, 626352, Note_off_c, 12, 37, 64
13, 626400, Note_on_c, 12, 37, 127
13, 626592, Note_off_c, 12, 37, 64
13, 626640, Note_on_c, 12, 37, 127
13, 626832, Note_off_c, 12, 37, 64
13, 626880, Note_on_c, 12, 37, 127
13, 627072, Note_off_c, 12, 37, 64
13, 627120, Note_on_c, 12, 37, 127
13, 627312, Note_off_c, 12, 37, 64
13, 627360, Note_on_c, 12, 37, 127
13, 627552, Note_off_c, 12, 37, 64
13, 627600, Note_on_c, 12, 37, 127
13, 627792, Note_off_c, 12, 37, 64
13, 627840, Note_on_c, 12, 37, 127
13, 628032, Note_off_c, 12, 37, 64
13, 628080, Note_on_c, 12, 37, 127
13, 628272, Note_off_c, 12, 37, 64
13, 628320, Note_on_c, 12, 37, 127
13, 628512, Note_off_c, 12, 37, 64
13, 628560, Note_on_c, 12, 37, 127
13, 628752, Note_off_c, 12, 37, 64
13, 628800, Note_on_c, 12, 37, 127
13, 628992, Note_off_c, 12, 37, 64
13, 629040, Note_on_c, 12, 37, 127
13, 629232, Note_off_c, 12, 37, 64
13, 629280, Note_on_c, 12, 37, 127
13, 629472, Note_off_c, 12, 37, 64
13, 629520, Note_on_c, 12, 37, 127
13, 629712, Note_off_c, 12, 37, 64
13, 629760, Note_on_c, 12, 36, 127
13, 629952, Note_off_c, 12, 36, 64
13, 630000, Note_on_c, 12, 36, 127
13, 630192, Note_off_c, 12, 36, 64
13, 630240, Note_on_c, 12, 36, 127
13, 630432, Note_off_c, 12, 36, 64
13, 630480, Note_on_c, 12, 36, 127
13, 630672, Note_off_c, 12, 36, 64
13, 630720, Note_on_c, 12, 36, 127
13, 630912, Note_off_c, 12, 36, 64
13, 630960, Note_on_c, 12, 36, 127
13, 631152, Note_off_c, 12, 36, 64
13, 631200, Note_on_c, 12, 36, 127
13, 631392, Note_off_c, 12, 36, 64
13, 631440, Note_on_c, 12, 36, 127
13, 631632, Note_off_c, 12, 36, 64
13, 631680, Note_on_c, 12, 36, 127
13, 631872, Note_off_c, 12, 36, 64
13, 631920, Note_on_c, 12, 36, 127
13, 632112, Note_off_c, 12, 36, 64
13, 632160, Note_on_c, 12, 36, 127
13, 632352, Note_off_c, 12, 36, 64
13, 632400, Note_on_c, 12, 36, 127
13, 632592, Note_off_c, 12, 36, 64
13, 632640, Note_on_c, 12, 36, 127
13, 632832, Note_off_c, 12, 36, 64
13, 632880, Note_on_c, 12, 36, 127
13, 633072, Note_off_c, 12, 36, 64
13, 633120, Note_on_c, 12, 36, 127
13, 633312, Note_off_c, 12, 36, 64
13, 633360, Note_on_c, 12, 36, 127
13, 633552, Note_off_c, 12, 36, 64
13, 633600, Note_on_c, 12, 29, 127
13, 633984, Note_off_c, 12, 29, 64
13, 639840, Note_on_c, 12, 36, 112
13, 640608, Note_off_c, 12, 36, 64
13, 640800, Note_on_c, 12, 36, 112
13, 641040, Note_off_c, 12, 36, 64
13, 641280, Note_on_c, 12, 29, 112
13, 641520, Note_off_c, 12, 29, 64
13, 647520, Note_on_c, 12, 36, 112
13, 648288, Note_off_c, 12, 36, 64
13, 648480, Note_on_c, 12, 36, 112
13, 648720, Note_off_c, 12, 36, 64
13, 648960, Note_on_c, 12, 29, 112
13, 649200, Note_off_c, 12, 29, 64
13, 649920, Note_on_c, 12, 29, 112
13, 650160, Note_off_c, 12, 29, 64
13, 650880, Note_on_c, 12, 29, 112
13, 651120, Note_off_c, 12, 29, 64
13, 651840, Note_on_c, 12, 29, 112
13, 652080, Note_off_c, 12, 29, 64
13, 652800, Note_on_c, 12, 29, 112
13, 653040, Note_off_c, 12, 29, 64
13, 658560, Note_on_c, 12, 45, 67
13, 658752, Note_off_c, 12, 45, 64
13, 659040, Note_on_c, 12, 48, 67
13, 659232, Note_off_c, 12, 48, 64
13, 659520, Note_on_c, 12, 41, 67
13, 659712, Note_off_c, 12, 41, 64
13, 660000, Note_on_c, 12, 45, 67
13, 660192, Note_off_c, 12, 45, 64
13, 660480, Note_on_c, 12, 36, 67
13, 660672, Note_off_c, 12, 36, 64
13, 666240, Note_on_c, 12, 40, 67
13, 666432, Note_off_c, 12, 40, 64
13, 666720, Note_on_c, 12, 43, 67
13, 666912, Note_off_c, 12, 43, 64
13, 667200, Note_on_c, 12, 36, 67
13, 667392, Note_off_c, 12, 36, 64
13, 667680, Note_on_c, 12, 36, 67
13, 667872, Note_off_c, 12, 36, 64
13, 668160, Note_on_c, 12, 29, 67
13, 668352, Note_off_c, 12, 29, 64
13, 672012, Note_on_c, 12, 34, 61
13, 672569, Note_off_c, 12, 34, 80
13, 675827, Note_on_c, 12, 36, 61
13, 676462, Note_off_c, 12, 36, 80
13, 679654, Note_on_c, 12, 36, 61
13, 680276, Note_off_c, 12, 36, 80
13, 683520, Note_on_c, 12, 37, 26
13, 686340, Note_off_c, 12, 37, 64
13, 710400, Note_on_c, 12, 38, 32
13, 710568, Note_off_c, 12, 38, 64
13, 756480, Note_on_c, 12, 51, 127
13, 756672, Note_off_c, 12, 51, 64
13, 756960, Note_on_c, 12, 46, 127
13, 757152, Note_off_c, 12, 46, 64
13, 757440, Note_on_c, 12, 43, 127
13, 757632, Note_off_c, 12, 43, 64
13, 757920, Note_on_c, 12, 46, 127
13, 758112, Note_off_c, 12, 46, 64
13, 758400, Note_on_c, 12, 46, 127
13, 758592, Note_off_c, 12, 46, 64
13, 758880, Note_on_c, 12, 43, 127
13, 759072, Note_off_c, 12, 43, 64
13, 759360, Note_on_c, 12, 39, 127
13, 759552, Note_off_c, 12, 39, 64
13, 759840, Note_on_c, 12, 43, 127
13, 760032, Note_off_c, 12, 43, 64
13, 760320, Note_on_c, 12, 43, 127
13, 760512, Note_off_c, 12, 43, 64
13, 760800, Note_on_c, 12, 39, 127
13, 760992, Note_off_c, 12, 39, 64
13, 761280, Note_on_c, 12, 34, 127
13, 761472, Note_off_c, 12, 34, 64
13, 761760, Note_on_c, 12, 39, 127
13, 761952, Note_off_c, 12, 39, 64
13, 762240, Note_on_c, 12, 39, 127
13, 762432, Note_off_c, 12, 39, 64
13, 762720, Note_on_c, 12, 34, 127
13, 762912, Note_off_c, 12, 34, 64
13, 763200, Note_on_c, 12, 31, 127
13, 763392, Note_off_c, 12, 31, 64
13, 763680, Note_on_c, 12, 34, 127
13, 763872, Note_off_c, 12, 34, 64
13, 764160, Note_on_c, 12, 27, 127
13, 764352, Note_off_c, 12, 27, 64
13, 771840, Note_on_c, 12, 55, 127
13, 772032, Note_off_c, 12, 55, 64
13, 772320, Note_on_c, 12, 50, 127
13, 772512, Note_off_c, 12, 50, 64
13, 772800, Note_on_c, 12, 47, 127
13, 772992, Note_off_c, 12, 47, 64
13, 773280, Note_on_c, 12, 50, 127
13, 773472, Note_off_c, 12, 50, 64
13, 773760, Note_on_c, 12, 50, 127
13, 773952, Note_off_c, 12, 50, 64
13, 774240, Note_on_c, 12, 47, 127
13, 774432, Note_off_c, 12, 47, 64
13, 774720, Note_on_c, 12, 43, 127
13, 774912, Note_off_c, 12, 43, 64
13, 775200, Note_on_c, 12, 47, 127
13, 775392, Note_off_c, 12, 47, 64
13, 775680, Note_on_c, 12, 47, 127
13, 775872, Note_off_c, 12, 47, 64
13, 776160, Note_on_c, 12, 43, 127
13, 776352, Note_off_c, 12, 43, 64
13, 776640, Note_on_c, 12, 38, 127
13, 776832, Note_off_c, 12, 38, 64
13, 777120, Note_on_c, 12, 43, 127
13, 777312, Note_off_c, 12, 43, 64
13, 777600, Note_on_c, 12, 43, 127
13, 777792, Note_off_c, 12, 43, 64
13, 778080, Note_on_c, 12, 38, 127
13, 778272, Note_off_c, 12, 38, 64
13, 778560, Note_on_c, 12, 35, 127
13, 778752, Note_off_c, 12, 35, 64
13, 779040, Note_on_c, 12, 38, 127
13, 779232, Note_off_c, 12, 38, 64
13, 779520, Note_on_c, 12, 31, 127
13, 779712, Note_off_c, 12, 31, 64
13, 787200, Note_on_c, 12, 55, 127
13, 787392, Note_off_c, 12, 55, 64
13, 787680, Note_on_c, 12, 52, 127
13, 787872, Note_off_c, 12, 52, 64
13, 788160, Note_on_c, 12, 49, 127
13, 788352, Note_off_c, 12, 49, 64
13, 788640, Note_on_c, 12, 52, 127
13, 788832, Note_off_c, 12, 52, 64
13, 789120, Note_on_c, 12, 52, 127
13, 789312, Note_off_c, 12, 52, 64
13, 789600, Note_on_c, 12, 49, 127
13, 789792, Note_off_c, 12, 49, 64
13, 790080, Note_on_c, 12, 46, 127
13, 790272, Note_off_c, 12, 46, 64
13, 790560, Note_on_c, 12, 49, 127
13, 790752, Note_off_c, 12, 49, 64
13, 791040, Note_on_c, 12, 49, 127
13, 791232, Note_off_c, 12, 49, 64
13, 791520, Note_on_c, 12, 46, 127
13, 791712, Note_off_c, 12, 46, 64
13, 792000, Note_on_c, 12, 43, 127
13, 792192, Note_off_c, 12, 43, 64
13, 792480, Note_on_c, 12, 46, 127
13, 792672, Note_off_c, 12, 46, 64
13, 792960, Note_on_c, 12, 43, 127
13, 793152, Note_off_c, 12, 43, 64
13, 793440, Note_on_c, 12, 40, 127
13, 793632, Note_off_c, 12, 40, 64
13, 793920, Note_on_c, 12, 37, 127
13, 794112, Note_off_c, 12, 37, 64
13, 794400, Note_on_c, 12, 34, 127
13, 794592, Note_off_c, 12, 34, 64
13, 794880, Note_on_c, 12, 31, 127
13, 795072, Note_off_c, 12, 31, 64
13, 796800, Note_on_c, 12, 31, 120
13, 796992, Note_off_c, 12, 31, 64
13, 798720, Note_on_c, 12, 31, 110
13, 798912, Note_off_c, 12, 31, 64
13, 800640, Note_on_c, 12, 31, 100
13, 800832, Note_off_c, 12, 31, 64
13, 802560, Note_on_c, 12, 31, 89
13, 802752, Note_off_c, 12, 31, 64
13, 806400, Note_on_c, 12, 31, 68
13, 806592, Note_off_c, 12, 31, 64
13, 810240, Note_on_c, 12, 31, 48
13, 810432, Note_off_c, 12, 31, 64
13, 833280, Note_on_c, 12, 30, 10
13, 837360, Note_off_c, 12, 30, 64
13, 840960, Note_on_c, 12, 30, 10
13, 845040, Note_off_c, 12, 30, 64
13, 852480, Note_on_c, 12, 30, 10
13, 856560, Note_off_c, 12, 30, 64
13, 857760, Note_on_c, 12, 30, 13
13, 858000, Note_off_c, 12, 30, 64
13, 858240, Note_on_c, 12, 30, 13
13, 858480, Note_off_c, 12, 30, 64
13, 859680, Note_on_c, 12, 30, 13
13, 859920, Note_off_c, 12, 30, 64
13, 860160, Note_on_c, 12, 30, 13
13, 860400, Note_off_c, 12, 30, 64
13, 861600, Note_on_c, 12, 30, 13
13, 861840, Note_off_c, 12, 30, 64
13, 862080, Note_on_c, 12, 30, 13
13, 862320, Note_off_c, 12, 30, 64
13, 863520, Note_on_c, 12, 30, 13
13, 863760, Note_off_c, 12, 30, 64
13, 864000, Note_on_c, 12, 30, 10
13, 864240, Note_off_c, 12, 30, 64
13, 878880, Note_on_c, 12, 30, 20
13, 879360, Note_off_c, 12, 30, 64
13, 879360, Note_on_c, 12, 29, 10
13, 883920, Note_off_c, 12, 29, 64
13, 887040, Note_on_c, 12, 29, 10
13, 891120, Note_off_c, 12, 29, 64
13, 930000, Note_on_c, 12, 29, 101
13, 930080, Note_off_c, 12, 29, 64
13, 930080, Note_on_c, 12, 31, 101
13, 930160, Note_off_c, 12, 31, 64
13, 930160, Note_on_c, 12, 33, 102
13, 930240, Note_off_c, 12, 33, 64
13, 930240, Note_on_c, 12, 34, 102
13, 930720, Note_off_c, 12, 34, 64
13, 930960, Note_on_c, 12, 34, 107
13, 931080, Note_off_c, 12, 34, 64
13, 931080, Note_on_c, 12, 36, 107
13, 931200, Note_off_c, 12, 36, 64
13, 931200, Note_on_c, 12, 38, 108
13, 931680, Note_off_c, 12, 38, 64
13, 931920, Note_on_c, 12, 38, 113
13, 932040, Note_off_c, 12, 38, 64
13, 932040, Note_on_c, 12, 39, 113
13, 932160, Note_off_c, 12, 39, 64
13, 932160, Note_on_c, 12, 41, 114
13, 932640, Note_off_c, 12, 41, 64
13, 932880, Note_on_c, 12, 41, 119
13, 932960, Note_off_c, 12, 41, 64
13, 932960, Note_on_c, 12, 43, 119
13, 933040, Note_off_c, 12, 43, 64
13, 933040, Note_on_c, 12, 45, 120
13, 933120, Note_off_c, 12, 45, 64
13, 933120, Note_on_c, 12, 46, 120
13, 933312, Note_off_c, 12, 46, 64
13, 933360, Note_on_c, 12, 34, 120
13, 933552, Note_off_c, 12, 34, 64
13, 933600, Note_on_c, 12, 34, 120
13, 933792, Note_off_c, 12, 34, 64
13, 933840, Note_on_c, 12, 34, 120
13, 934032, Note_off_c, 12, 34, 64
13, 934080, Note_on_c, 12, 34, 120
13, 934272, Note_off_c, 12, 34, 64
13, 934320, Note_on_c, 12, 34, 120
13, 934512, Note_off_c, 12, 34, 64
13, 934560, Note_on_c, 12, 34, 120
13, 934752, Note_off_c, 12, 34, 64
13, 934800, Note_on_c, 12, 34, 120
13, 934992, Note_off_c, 12, 34, 64
13, 935040, Note_on_c, 12, 34, 120
13, 935232, Note_off_c, 12, 34, 64
13, 935280, Note_on_c, 12, 34, 120
13, 935472, Note_off_c, 12, 34, 64
13, 935520, Note_on_c, 12, 34, 120
13, 935712, Note_off_c, 12, 34, 64
13, 935760, Note_on_c, 12, 34, 120
13, 935952, Note_off_c, 12, 34, 64
13, 936000, Note_on_c, 12, 34, 120
13, 936192, Note_off_c, 12, 34, 64
13, 936240, Note_on_c, 12, 34, 120
13, 936432, Note_off_c, 12, 34, 64
13, 936480, Note_on_c, 12, 34, 120
13, 936672, Note_off_c, 12, 34, 64
13, 936720, Note_on_c, 12, 34, 120
13, 936912, Note_off_c, 12, 34, 64
13, 936960, Note_on_c, 12, 34, 120
13, 937152, Note_off_c, 12, 34, 64
13, 937200, Note_on_c, 12, 34, 120
13, 937392, Note_off_c, 12, 34, 64
13, 937440, Note_on_c, 12, 34, 120
13, 937632, Note_off_c, 12, 34, 64
13, 937680, Note_on_c, 12, 34, 120
13, 937872, Note_off_c, 12, 34, 64
13, 937920, Note_on_c, 12, 34, 120
13, 938112, Note_off_c, 12, 34, 64
13, 938160, Note_on_c, 12, 34, 120
13, 938352, Note_off_c, 12, 34, 64
13, 938400, Note_on_c, 12, 34, 120
13, 938592, Note_off_c, 12, 34, 64
13, 938640, Note_on_c, 12, 34, 120
13, 938832, Note_off_c, 12, 34, 64
13, 938880, Note_on_c, 12, 34, 127
13, 939264, Note_off_c, 12, 34, 64
13, 940080, Note_on_c, 12, 34, 127
13, 940464, Note_off_c, 12, 34, 64
13, 941280, Note_on_c, 12, 34, 127
13, 941472, Note_off_c, 12, 34, 64
13, 941760, Note_on_c, 12, 34, 120
13, 941952, Note_off_c, 12, 34, 64
13, 942240, Note_on_c, 12, 34, 120
13, 942432, Note_off_c, 12, 34, 64
13, 942720, Note_on_c, 12, 34, 120
13, 942912, Note_off_c, 12, 34, 64
13, 943200, Note_on_c, 12, 34, 120
13, 943392, Note_off_c, 12, 34, 64
13, 943680, Note_on_c, 12, 34, 120
13, 943872, Note_off_c, 12, 34, 64
13, 944160, Note_on_c, 12, 34, 120
13, 944352, Note_off_c, 12, 34, 64
13, 944640, Note_on_c, 12, 34, 120
13, 944832, Note_off_c, 12, 34, 64
13, 945120, Note_on_c, 12, 34, 120
13, 945312, Note_off_c, 12, 34, 64
13, 945600, Note_on_c, 12, 34, 120
13, 945792, Note_off_c, 12, 34, 64
13, 946080, Note_on_c, 12, 34, 120
13, 946272, Note_off_c, 12, 34, 64
13, 946560, Note_on_c, 12, 34, 120
13, 946752, Note_off_c, 12, 34, 64
13, 947040, Note_on_c, 12, 34, 120
13, 947232, Note_off_c, 12, 34, 64
13, 947520, Note_on_c, 12, 34, 120
13, 947712, Note_off_c, 12, 34, 64
13, 948000, Note_on_c, 12, 34, 120
13, 948192, Note_off_c, 12, 34, 64
13, 948480, Note_on_c, 12, 34, 120
13, 948672, Note_off_c, 12, 34, 64
13, 948960, Note_on_c, 12, 34, 127
13, 949152, Note_off_c, 12, 34, 64
13, 966720, Note_on_c, 12, 41, 68
13, 967488, Note_off_c, 12, 41, 64
13, 967680, Note_on_c, 12, 41, 91
13, 967776, Note_off_c, 12, 41, 64
13, 967776, Note_on_c, 12, 43, 97
13, 967872, Note_off_c, 12, 43, 64
13, 967872, Note_on_c, 12, 45, 103
13, 967968, Note_off_c, 12, 45, 64
13, 967968, Note_on_c, 12, 46, 109
13, 968064, Note_off_c, 12, 46, 64
13, 968064, Note_on_c, 12, 48, 115
13, 968160, Note_off_c, 12, 48, 64
13, 968160, Note_on_c, 12, 50, 127
13, 968352, Note_off_c, 12, 50, 64
13, 968640, Note_on_c, 12, 46, 127
13, 968832, Note_off_c, 12, 46, 64
13, 969120, Note_on_c, 12, 41, 127
13, 969312, Note_off_c, 12, 41, 64
13, 969600, Note_on_c, 12, 46, 127
13, 969792, Note_off_c, 12, 46, 64
13, 970080, Note_on_c, 12, 38, 127
13, 970272, Note_off_c, 12, 38, 64
13, 970560, Note_on_c, 12, 41, 127
13, 970752, Note_off_c, 12, 41, 64
13, 971040, Note_on_c, 12, 34, 127
13, 971232, Note_off_c, 12, 34, 64
13, 971520, Note_on_c, 12, 38, 127
13, 971712, Note_off_c, 12, 38, 64
13, 972000, Note_on_c, 12, 31, 127
13, 972192, Note_off_c, 12, 31, 64
13, 972480, Note_on_c, 12, 39, 127
13, 972672, Note_off_c, 12, 39, 64
13, 972960, Note_on_c, 12, 36, 127
13, 973152, Note_off_c, 12, 36, 64
13, 973440, Note_on_c, 12, 34, 127
13, 973632, Note_off_c, 12, 34, 64
13, 973920, Note_on_c, 12, 33, 127
13, 974112, Note_off_c, 12, 33, 64
13, 974400, Note_on_c, 12, 41, 127
13, 974592, Note_off_c, 12, 41, 64
13, 974880, Note_on_c, 12, 39, 127
13, 975072, Note_off_c, 12, 39, 64
13, 975360, Note_on_c, 12, 36, 127
13, 975552, Note_off_c, 12, 36, 64
13, 975840, Note_on_c, 12, 34, 127
13, 976032, Note_off_c, 12, 34, 64
13, 976320, Note_on_c, 12, 41, 127
13, 976512, Note_off_c, 12, 41, 64
13, 976800, Note_on_c, 12, 38, 127
13, 976992, Note_off_c, 12, 38, 64
13, 977280, Note_on_c, 12, 36, 127
13, 977472, Note_off_c, 12, 36, 64
13, 977760, Note_on_c, 12, 35, 127
13, 977952, Note_off_c, 12, 35, 64
13, 978240, Note_on_c, 12, 43, 127
13, 978432, Note_off_c, 12, 43, 64
13, 978720, Note_on_c, 12, 38, 127
13, 978912, Note_off_c, 12, 38, 64
13, 979200, Note_on_c, 12, 35, 127
13, 979392, Note_off_c, 12, 35, 64
13, 979680, Note_on_c, 12, 36, 127
13, 979872, Note_off_c, 12, 36, 64
13, 980160, Note_on_c, 12, 43, 127
13, 980352, Note_off_c, 12, 43, 64
13, 980640, Note_on_c, 12, 39, 127
13, 980832, Note_off_c, 12, 39, 64
13, 981120, Note_on_c, 12, 38, 127
13, 981312, Note_off_c, 12, 38, 64
13, 981600, Note_on_c, 12, 36, 127
13, 981792, Note_off_c, 12, 36, 64
13, 982080, Note_on_c, 12, 44, 127
13, 982272, Note_off_c, 12, 44, 64
13, 982560, Note_on_c, 12, 39, 127
13, 982752, Note_off_c, 12, 39, 64
13, 983040, Note_on_c, 12, 36, 127
13, 983232, Note_off_c, 12, 36, 64
13, 983520, Note_on_c, 12, 38, 127
13, 983712, Note_off_c, 12, 38, 64
13, 984000, Note_on_c, 12, 44, 127
13, 984192, Note_off_c, 12, 44, 64
13, 984480, Note_on_c, 12, 41, 127
13, 984672, Note_off_c, 12, 41, 64
13, 984960, Note_on_c, 12, 39, 127
13, 985152, Note_off_c, 12, 39, 64
13, 985440, Note_on_c, 12, 38, 127
13, 985632, Note_off_c, 12, 38, 64
13, 985920, Note_on_c, 12, 46, 127
13, 986112, Note_off_c, 12, 46, 64
13, 986400, Note_on_c, 12, 41, 127
13, 986592, Note_off_c, 12, 41, 64
13, 986880, Note_on_c, 12, 38, 127
13, 987072, Note_off_c, 12, 38, 64
13, 987360, Note_on_c, 12, 39, 127
13, 987552, Note_off_c, 12, 39, 64
13, 987840, Note_on_c, 12, 43, 127
13, 988032, Note_off_c, 12, 43, 64
13, 988320, Note_on_c, 12, 40, 127
13, 988512, Note_off_c, 12, 40, 64
13, 988800, Note_on_c, 12, 48, 127
13, 988992, Note_off_c, 12, 48, 64
13, 989280, Note_on_c, 12, 41, 127
13, 989472, Note_off_c, 12, 41, 64
13, 989760, Note_on_c, 12, 45, 127
13, 989952, Note_off_c, 12, 45, 64
13, 990240, Note_on_c, 12, 42, 127
13, 990432, Note_off_c, 12, 42, 64
13, 990720, Note_on_c, 12, 50, 127
13, 990912, Note_off_c, 12, 50, 64
13, 991200, Note_on_c, 12, 43, 127
13, 991392, Note_off_c, 12, 43, 64
13, 991680, Note_on_c, 12, 46, 127
13, 991872, Note_off_c, 12, 46, 64
13, 992160, Note_on_c, 12, 43, 127
13, 992352, Note_off_c, 12, 43, 64
13, 992640, Note_on_c, 12, 51, 127
13, 992832, Note_off_c, 12, 51, 64
13, 993120, Note_on_c, 12, 44, 127
13, 993312, Note_off_c, 12, 44, 64
13, 993600, Note_on_c, 12, 48, 127
13, 993792, Note_off_c, 12, 48, 64
13, 994080, Note_on_c, 12, 45, 127
13, 994272, Note_off_c, 12, 45, 64
13, 994560, Note_on_c, 12, 53, 127
13, 994752, Note_off_c, 12, 53, 64
13, 995040, Note_on_c, 12, 46, 120
13, 995232, Note_off_c, 12, 46, 64
13, 995520, Note_on_c, 12, 48, 120
13, 995712, Note_off_c, 12, 48, 64
13, 996000, Note_on_c, 12, 50, 120
13, 996192, Note_off_c, 12, 50, 64
13, 996480, Note_on_c, 12, 51, 120
13, 996672, Note_off_c, 12, 51, 64
13, 996960, Note_on_c, 12, 53, 120
13, 997152, Note_off_c, 12, 53, 64
13, 997440, Note_on_c, 12, 51, 120
13, 997632, Note_off_c, 12, 51, 64
13, 997920, Note_on_c, 12, 50, 120
13, 998112, Note_off_c, 12, 50, 64
13, 998400, Note_on_c, 12, 48, 120
13, 998592, Note_off_c, 12, 48, 64
13, 998880, Note_on_c, 12, 46, 120
13, 999072, Note_off_c, 12, 46, 64
13, 999360, Note_on_c, 12, 45, 120
13, 999552, Note_off_c, 12, 45, 64
13, 999840, Note_on_c, 12, 43, 120
13, 1000032, Note_off_c, 12, 43, 64
13, 1000320, Note_on_c, 12, 41, 120
13, 1000512, Note_off_c, 12, 41, 64
13, 1000800, Note_on_c, 12, 39, 120
13, 1000992, Note_off_c, 12, 39, 64
13, 1001280, Note_on_c, 12, 38, 120
13, 1001472, Note_off_c, 12, 38, 64
13, 1001760, Note_on_c, 12, 36, 120
13, 1001952, Note_off_c, 12, 36, 64
13, 1002240, Note_on_c, 12, 34, 120
13, 1002432, Note_off_c, 12, 34, 64
13, 1002720, Note_on_c, 12, 29, 127
13, 1002912, Note_off_c, 12, 29, 64
13, 1008960, Note_on_c, 12, 34, 125
13, 1009920, Note_off_c, 12, 34, 64
13, 1009920, Note_on_c, 12, 29, 96
13, 1010256, Note_off_c, 12, 29, 64
13, 1010400, Note_on_c, 12, 29, 127
13, 1010736, Note_off_c, 12, 29, 64
13, 1010880, Note_on_c, 12, 39, 96
13, 1010880, Note_on_c, 12, 51, 96
13, 1011648, Note_off_c, 12, 51, 64
13, 1011648, Note_off_c, 12, 39, 64
13, 1011840, Note_on_c, 12, 37, 96
13, 1011840, Note_on_c, 12, 49, 96
13, 1012704, Note_off_c, 12, 49, 64
13, 1012704, Note_off_c, 12, 37, 64
13, 1012800, Note_on_c, 12, 36, 96
13, 1012800, Note_on_c, 12, 48, 96
13, 1013568, Note_off_c, 12, 48, 64
13, 1013568, Note_off_c, 12, 36, 64
13, 1013760, Note_on_c, 12, 37, 96
13, 1013760, Note_on_c, 12, 49, 96
13, 1014624, Note_off_c, 12, 49, 64
13, 1014624, Note_off_c, 12, 37, 64
13, 1014720, Note_on_c, 12, 36, 96
13, 1014720, Note_on_c, 12, 48, 96
13, 1015488, Note_off_c, 12, 48, 64
13, 1015488, Note_off_c, 12, 36, 64
13, 1015680, Note_on_c, 12, 34, 96
13, 1015680, Note_on_c, 12, 46, 96
13, 1016544, Note_off_c, 12, 46, 64
13, 1016544, Note_off_c, 12, 34, 64
13, 1016640, Note_on_c, 12, 34, 125
13, 1016640, Note_on_c, 12, 46, 125
13, 1017600, Note_off_c, 12, 46, 64
13, 1017600, Note_off_c, 12, 34, 64
13, 1017600, Note_on_c, 12, 29, 96
13, 1017600, Note_on_c, 12, 41, 96
13, 1017984, Note_off_c, 12, 41, 64
13, 1017984, Note_off_c, 12, 29, 64
13, 1018080, Note_on_c, 12, 29, 56
13, 1024740, Note_off_c, 12, 29, 64
13, 1024800, Note_on_c, 12, 29, 56
13, 1025568, Note_off_c, 12, 29, 64
13, 1025760, Note_on_c, 12, 34, 34
13, 1033440, Note_off_c, 12, 34, 64
13, 1033440, Note_on_c, 12, 31, 34
13, 1037280, Note_off_c, 12, 31, 64
13, 1037280, Note_on_c, 12, 38, 32
13, 1037472, Note_off_c, 12, 38, 64
13, 1038720, Note_on_c, 12, 38, 32
13, 1038912, Note_off_c, 12, 38, 64
13, 1039200, Note_on_c, 12, 38, 32
13, 1039392, Note_off_c, 12, 38, 64
13, 1040640, Note_on_c, 12, 38, 32
13, 1040832, Note_off_c, 12, 38, 64
13, 1041120, Note_on_c, 12, 38, 32
13, 1041312, Note_off_c, 12, 38, 64
13, 1042560, Note_on_c, 12, 38, 32
13, 1042752, Note_off_c, 12, 38, 64
13, 1043040, Note_on_c, 12, 38, 32
13, 1043232, Note_off_c, 12, 38, 64
13, 1044480, Note_on_c, 12, 38, 32
13, 1044672, Note_off_c, 12, 38, 64
13, 1044960, Note_on_c, 12, 38, 39
13, 1045344, Note_off_c, 12, 38, 64
13, 1045440, Note_on_c, 12, 38, 39
13, 1045824, Note_off_c, 12, 38, 64
13, 1045920, Note_on_c, 12, 38, 39
13, 1046304, Note_off_c, 12, 38, 64
13, 1047360, Note_on_c, 12, 38, 39
13, 1047744, Note_off_c, 12, 38, 64
13, 1047840, Note_on_c, 12, 38, 39
13, 1048224, Note_off_c, 12, 38, 64
13, 1049280, Note_on_c, 12, 38, 39
13, 1049664, Note_off_c, 12, 38, 64
13, 1049760, Note_on_c, 12, 38, 39
13, 1050144, Note_off_c, 12, 38, 64
13, 1051200, Note_on_c, 12, 38, 39
13, 1051584, Note_off_c, 12, 38, 64
13, 1051680, Note_on_c, 12, 38, 39
13, 1052064, Note_off_c, 12, 38, 64
13, 1052640, Note_on_c, 12, 38, 31
13, 1053120, Note_off_c, 12, 38, 64
13, 1053600, Note_on_c, 12, 39, 32
13, 1054080, Note_off_c, 12, 39, 64
13, 1054560, Note_on_c, 12, 36, 32
13, 1055040, Note_off_c, 12, 36, 64
13, 1055520, Note_on_c, 12, 40, 32
13, 1056000, Note_off_c, 12, 40, 64
13, 1056480, Note_on_c, 12, 41, 32
13, 1056960, Note_off_c, 12, 41, 64
13, 1057440, Note_on_c, 12, 38, 32
13, 1057920, Note_off_c, 12, 38, 64
13, 1058400, Note_on_c, 12, 41, 31
13, 1058880, Note_off_c, 12, 41, 64
13, 1059360, Note_on_c, 12, 43, 36
13, 1059840, Note_off_c, 12, 43, 64
13, 1060320, Note_on_c, 12, 39, 40
13, 1060800, Note_off_c, 12, 39, 64
13, 1061280, Note_on_c, 12, 43, 44
13, 1061760, Note_off_c, 12, 43, 64
13, 1062240, Note_on_c, 12, 45, 49
13, 1062720, Note_off_c, 12, 45, 64
13, 1063200, Note_on_c, 12, 41, 53
13, 1063680, Note_off_c, 12, 41, 64
13, 1064160, Note_on_c, 12, 45, 57
13, 1064640, Note_off_c, 12, 45, 64
13, 1065120, Note_on_c, 12, 46, 61
13, 1065600, Note_off_c, 12, 46, 64
13, 1066080, Note_on_c, 12, 43, 66
13, 1066560, Note_off_c, 12, 43, 64
13, 1067040, Note_on_c, 12, 47, 70
13, 1067520, Note_off_c, 12, 47, 64
13, 1068000, Note_on_c, 12, 48, 74
13, 1068480, Note_off_c, 12, 48, 64
13, 1068960, Note_on_c, 12, 45, 79
13, 1069440, Note_off_c, 12, 45, 64
13, 1069920, Note_on_c, 12, 48, 83
13, 1070400, Note_off_c, 12, 48, 64
13, 1070880, Note_on_c, 12, 50, 87
13, 1071360, Note_off_c, 12, 50, 64
13, 1071840, Note_on_c, 12, 51, 92
13, 1072320, Note_off_c, 12, 51, 64
13, 1072800, Note_on_c, 12, 52, 96
13, 1073280, Note_off_c, 12, 52, 64
13, 1073760, Note_on_c, 12, 53, 92
13, 1074240, Note_off_c, 12, 53, 64
13, 1074720, Note_on_c, 12, 51, 96
13, 1075200, Note_off_c, 12, 51, 64
13, 1075680, Note_on_c, 12, 48, 92
13, 1076160, Note_off_c, 12, 48, 64
13, 1076640, Note_on_c, 12, 45, 96
13, 1077120, Note_off_c, 12, 45, 64
13, 1077600, Note_on_c, 12, 41, 92
13, 1078080, Note_off_c, 12, 41, 64
13, 1078560, Note_on_c, 12, 39, 96
13, 1079040, Note_off_c, 12, 39, 64
13, 1079520, Note_on_c, 12, 38, 80
13, 1080672, Note_off_c, 12, 38, 64
13, 1080960, Note_on_c, 12, 34, 80
13, 1081248, Note_off_c, 12, 34, 64
13, 1081440, Note_on_c, 12, 39, 80
13, 1082592, Note_off_c, 12, 39, 64
13, 1082880, Note_on_c, 12, 36, 80
13, 1083168, Note_off_c, 12, 36, 64
13, 1083360, Note_on_c, 12, 41, 80
13, 1084512, Note_off_c, 12, 41, 64
13, 1084800, Note_on_c, 12, 41, 80
13, 1085088, Note_off_c, 12, 41, 64
13, 1085280, Note_on_c, 12, 39, 80
13, 1085568, Note_off_c, 12, 39, 64
13, 1085760, Note_on_c, 12, 39, 80
13, 1086048, Note_off_c, 12, 39, 64
13, 1086240, Note_on_c, 12, 39, 80
13, 1086528, Note_off_c, 12, 39, 64
13, 1086720, Note_on_c, 12, 39, 80
13, 1087008, Note_off_c, 12, 39, 64
13, 1087200, Note_on_c, 12, 38, 80
13, 1087680, Note_off_c, 12, 38, 64
13, 1087680, Note_on_c, 12, 34, 80
13, 1087920, Note_off_c, 12, 34, 64
13, 1088160, Note_on_c, 12, 39, 80
13, 1088640, Note_off_c, 12, 39, 64
13, 1088640, Note_on_c, 12, 36, 80
13, 1088880, Note_off_c, 12, 36, 64
13, 1089120, Note_on_c, 12, 41, 80
13, 1089408, Note_off_c, 12, 41, 64
13, 1089600, Note_on_c, 12, 41, 80
13, 1089888, Note_off_c, 12, 41, 64
13, 1090080, Note_on_c, 12, 29, 80
13, 1090368, Note_off_c, 12, 29, 64
13, 1090560, Note_on_c, 12, 29, 80
13, 1090848, Note_off_c, 12, 29, 64
13, 1091040, Note_on_c, 12, 34, 56
13, 1091424, Note_off_c, 12, 34, 64
13, 1106400, Note_on_c, 12, 34, 80
13, 1107300, Note_off_c, 12, 34, 64
13, 1107360, Note_on_c, 12, 41, 80
13, 1107600, Note_off_c, 12, 41, 64
13, 1108320, Note_on_c, 12, 38, 80
13, 1108800, Note_off_c, 12, 38, 64
13, 1108800, Note_on_c, 12, 39, 80
13, 1109040, Note_off_c, 12, 39, 64
13, 1109280, Note_on_c, 12, 41, 80
13, 1109520, Note_off_c, 12, 41, 64
13, 1109760, Note_on_c, 12, 29, 80
13, 1110000, Note_off_c, 12, 29, 64
13, 1110240, Note_on_c, 12, 34, 80
13, 1111392, Note_off_c, 12, 34, 64
13, 1111680, Note_on_c, 12, 36, 80
13, 1111920, Note_off_c, 12, 36, 64
13, 1112160, Note_on_c, 12, 38, 80
13, 1112640, Note_off_c, 12, 38, 64
13, 1112640, Note_on_c, 12, 34, 80
13, 1112880, Note_off_c, 12, 34, 64
13, 1113120, Note_on_c, 12, 38, 80
13, 1113360, Note_off_c, 12, 38, 64
13, 1113600, Note_on_c, 12, 39, 80
13, 1113840, Note_off_c, 12, 39, 64
13, 1114080, Note_on_c, 12, 41, 80
13, 1115232, Note_off_c, 12, 41, 64
13, 1115520, Note_on_c, 12, 43, 80
13, 1115760, Note_off_c, 12, 43, 64
13, 1116000, Note_on_c, 12, 45, 80
13, 1116480, Note_off_c, 12, 45, 64
13, 1116480, Note_on_c, 12, 46, 80
13, 1116720, Note_off_c, 12, 46, 64
13, 1116960, Note_on_c, 12, 48, 80
13, 1117200, Note_off_c, 12, 48, 64
13, 1117440, Note_on_c, 12, 46, 80
13, 1117680, Note_off_c, 12, 46, 64
13, 1117920, Note_on_c, 12, 45, 80
13, 1119072, Note_off_c, 12, 45, 64
13, 1119360, Note_on_c, 12, 43, 80
13, 1119600, Note_off_c, 12, 43, 64
13, 1119840, Note_on_c, 12, 41, 80
13, 1120320, Note_off_c, 12, 41, 64
13, 1120320, Note_on_c, 12, 43, 80
13, 1120560, Note_off_c, 12, 43, 64
13, 1120800, Note_on_c, 12, 39, 64
13, 1121040, Note_off_c, 12, 39, 64
13, 1121280, Note_on_c, 12, 36, 64
13, 1121520, Note_off_c, 12, 36, 64
13, 1121760, Note_on_c, 12, 33, 51
13, 1122210, Note_off_c, 12, 33, 64
13, 1129440, Note_on_c, 12, 34, 127
13, 1129680, Note_off_c, 12, 34, 64
13, 1130880, Note_on_c, 12, 31, 127
13, 1131120, Note_off_c, 12, 31, 64
13, 1131360, Note_on_c, 12, 27, 127
13, 1131600, Note_off_c, 12, 27, 64
13, 1132320, Note_on_c, 12, 29, 127
13, 1132560, Note_off_c, 12, 29, 64
13, 1137120, Note_on_c, 12, 34, 127
13, 1137360, Note_off_c, 12, 34, 64
13, 1138560, Note_on_c, 12, 31, 127
13, 1138800, Note_off_c, 12, 31, 64
13, 1139040, Note_on_c, 12, 27, 127
13, 1139280, Note_off_c, 12, 27, 64
13, 1140000, Note_on_c, 12, 29, 127
13, 1140240, Note_off_c, 12, 29, 64
13, 1144800, Note_on_c, 12, 34, 70
13, 1146336, Note_off_c, 12, 34, 64
13, 1146720, Note_on_c, 12, 34, 79
13, 1148256, Note_off_c, 12, 34, 64
13, 1148640, Note_on_c, 12, 34, 87
13, 1150176, Note_off_c, 12, 34, 64
13, 1150560, Note_on_c, 12, 34, 96
13, 1152096, Note_off_c, 12, 34, 64
13, 1152480, Note_on_c, 12, 22, 127
13, 1152672, Note_off_c, 12, 22, 64
13, 1152720, Note_on_c, 12, 30, 127
13, 1152912, Note_off_c, 12, 30, 64
13, 1152960, Note_on_c, 12, 30, 127
13, 1153152, Note_off_c, 12, 30, 64
13, 1153200, Note_on_c, 12, 30, 127
13, 1153392, Note_off_c, 12, 30, 64
13, 1153440, Note_on_c, 12, 30, 127
13, 1153632, Note_off_c, 12, 30, 64
13, 1153680, Note_on_c, 12, 30, 127
13, 1153872, Note_off_c, 12, 30, 64
13, 1153920, Note_on_c, 12, 30, 127
13, 1154112, Note_off_c, 12, 30, 64
13, 1154160, Note_on_c, 12, 30, 127
13, 1154352, Note_off_c, 12, 30, 64
13, 1154400, Note_on_c, 12, 30, 127
13, 1154592, Note_off_c, 12, 30, 64
13, 1154640, Note_on_c, 12, 30, 127
13, 1154832, Note_off_c, 12, 30, 64
13, 1154880, Note_on_c, 12, 30, 127
13, 1155072, Note_off_c, 12, 30, 64
13, 1155120, Note_on_c, 12, 30, 127
13, 1155312, Note_off_c, 12, 30, 64
13, 1155360, Note_on_c, 12, 30, 127
13, 1155552, Note_off_c, 12, 30, 64
13, 1155600, Note_on_c, 12, 30, 127
13, 1155792, Note_off_c, 12, 30, 64
13, 1155840, Note_on_c, 12, 30, 127
13, 1156032, Note_off_c, 12, 30, 64
13, 1156080, Note_on_c, 12, 30, 127
13, 1156272, Note_off_c, 12, 30, 64
13, 1156320, Note_on_c, 12, 29, 127
13, 1156512, Note_off_c, 12, 29, 64
13, 1156560, Note_on_c, 12, 29, 127
13, 1156752, Note_off_c, 12, 29, 64
13, 1156800, Note_on_c, 12, 29, 127
13, 1156992, Note_off_c, 12, 29, 64
13, 1157040, Note_on_c, 12, 29, 127
13, 1157232, Note_off_c, 12, 29, 64
13, 1157280, Note_on_c, 12, 29, 127
13, 1157472, Note_off_c, 12, 29, 64
13, 1157520, Note_on_c, 12, 29, 127
13, 1157712, Note_off_c, 12, 29, 64
13, 1157760, Note_on_c, 12, 29, 127
13, 1157952, Note_off_c, 12, 29, 64
13, 1158000, Note_on_c, 12, 29, 127
13, 1158192, Note_off_c, 12, 29, 64
13, 1158240, Note_on_c, 12, 29, 127
13, 1158432, Note_off_c, 12, 29, 64
13, 1158480, Note_on_c, 12, 29, 127
13, 1158672, Note_off_c, 12, 29, 64
13, 1158720, Note_on_c, 12, 29, 127
13, 1158912, Note_off_c, 12, 29, 64
13, 1158960, Note_on_c, 12, 29, 127
13, 1159152, Note_off_c, 12, 29, 64
13, 1159200, Note_on_c, 12, 29, 127
13, 1159392, Note_off_c, 12, 29, 64
13, 1159440, Note_on_c, 12, 29, 127
13, 1159632, Note_off_c, 12, 29, 64
13, 1159680, Note_on_c, 12, 29, 127
13, 1159872, Note_off_c, 12, 29, 64
13, 1159920, Note_on_c, 12, 29, 127
13, 1160112, Note_off_c, 12, 29, 64
13, 1160160, Note_on_c, 12, 34, 127
13, 1160544, Note_off_c, 12, 34, 64
13, 1166400, Note_on_c, 12, 29, 112
13, 1167168, Note_off_c, 12, 29, 64
13, 1167360, Note_on_c, 12, 29, 112
13, 1167600, Note_off_c, 12, 29, 64
13, 1167840, Note_on_c, 12, 34, 112
13, 1168080, Note_off_c, 12, 34, 64
13, 1174080, Note_on_c, 12, 29, 112
13, 1174848, Note_off_c, 12, 29, 64
13, 1175040, Note_on_c, 12, 29, 112
13, 1175280, Note_off_c, 12, 29, 64
13, 1175520, Note_on_c, 12, 34, 112
13, 1175760, Note_off_c, 12, 34, 64
13, 1177920, Note_on_c, 12, 29, 112
13, 1178688, Note_off_c, 12, 29, 64
13, 1178880, Note_on_c, 12, 29, 112
13, 1179120, Note_off_c, 12, 29, 64
13, 1179360, Note_on_c, 12, 29, 112
13, 1182946, Note_off_c, 12, 29, 64
13, 1183080, Note_on_c, 12, 29, 112
13, 1183194, Note_off_c, 12, 29, 64
13, 1183200, Note_on_c, 12, 29, 112
13, 1183392, Note_off_c, 12, 29, 64
13, 1185120, Note_on_c, 12, 29, 112
13, 1185312, Note_off_c, 12, 29, 64
13, 1187040, Note_on_c, 12, 29, 112
13, 1187232, Note_off_c, 12, 29, 64
13, 1188000, Note_on_c, 12, 29, 112
13, 1188192, Note_off_c, 12, 29, 64
13, 1188960, Note_on_c, 12, 29, 112
13, 1189152, Note_off_c, 12, 29, 64
13, 1189920, Note_on_c, 12, 29, 112
13, 1190112, Note_off_c, 12, 29, 64
13, 1190880, Note_on_c, 12, 46, 112
13, 1190880, Note_on_c, 12, 34, 112
13, 1191072, Note_off_c, 12, 34, 64
13, 1191072, Note_off_c, 12, 46, 64
13, 1191360, Note_on_c, 12, 50, 90
13, 1191552, Note_off_c, 12, 50, 64
13, 1191840, Note_on_c, 12, 46, 90
13, 1192032, Note_off_c, 12, 46, 64
13, 1192320, Note_on_c, 12, 50, 90
13, 1192512, Note_off_c, 12, 50, 64
13, 1193280, Note_on_c, 12, 46, 90
13, 1193472, Note_off_c, 12, 46, 64
13, 1193760, Note_on_c, 12, 41, 90
13, 1193952, Note_off_c, 12, 41, 64
13, 1194240, Note_on_c, 12, 46, 90
13, 1194432, Note_off_c, 12, 46, 64
13, 1195200, Note_on_c, 12, 41, 90
13, 1195392, Note_off_c, 12, 41, 64
13, 1195680, Note_on_c, 12, 38, 90
13, 1195872, Note_off_c, 12, 38, 64
13, 1196160, Note_on_c, 12, 41, 90
13, 1196352, Note_off_c, 12, 41, 64
13, 1197120, Note_on_c, 12, 38, 90
13, 1197312, Note_off_c, 12, 38, 64
13, 1197600, Note_on_c, 12, 34, 90
13, 1197792, Note_off_c, 12, 34, 64
13, 1198080, Note_on_c, 12, 38, 90
13, 1198272, Note_off_c, 12, 38, 64
13, 1198560, Note_on_c, 12, 34, 90
13, 1198560, Note_on_c, 12, 46, 90
13, 1198752, Note_off_c, 12, 46, 64
13, 1198752, Note_off_c, 12, 34, 64
13, 1199040, Note_on_c, 12, 53, 90
13, 1199232, Note_off_c, 12, 53, 64
13, 1199520, Note_on_c, 12, 50, 90
13, 1199712, Note_off_c, 12, 50, 64
13, 1200000, Note_on_c, 12, 53, 90
13, 1200192, Note_off_c, 12, 53, 64
13, 1200960, Note_on_c, 12, 50, 90
13, 1201152, Note_off_c, 12, 50, 64
13, 1201440, Note_on_c, 12, 46, 90
13, 1201632, Note_off_c, 12, 46, 64
13, 1201920, Note_on_c, 12, 50, 90
13, 1202112, Note_off_c, 12, 50, 64
13, 1202880, Note_on_c, 12, 46, 90
13, 1203072, Note_off_c, 12, 46, 64
13, 1203360, Note_on_c, 12, 41, 90
13, 1203552, Note_off_c, 12, 41, 64
13, 1203840, Note_on_c, 12, 46, 90
13, 1204032, Note_off_c, 12, 46, 64
13, 1204800, Note_on_c, 12, 41, 90
13, 1204992, Note_off_c, 12, 41, 64
13, 1205280, Note_on_c, 12, 38, 90
13, 1205472, Note_off_c, 12, 38, 64
13, 1205760, Note_on_c, 12, 41, 90
13, 1205952, Note_off_c, 12, 41, 64
13, 1206240, Note_on_c, 12, 34, 64
13, 1206432, Note_off_c, 12, 34, 64
13, 1210080, Note_on_c, 12, 29, 122
13, 1211616, Note_off_c, 12, 29, 64
13, 1212000, Note_on_c, 12, 29, 122
13, 1213584, Note_off_c, 12, 29, 64
13, 1213800, Note_on_c, 12, 29, 122
13, 1213908, Note_off_c, 12, 29, 64
13, 1213920, Note_on_c, 12, 34, 127
13, 1214112, Note_off_c, 12, 34, 64
13, 1217760, Note_on_c, 12, 29, 122
13, 1219296, Note_off_c, 12, 29, 64
13, 1219680, Note_on_c, 12, 29, 122
13, 1221264, Note_off_c, 12, 29, 64
13, 1221480, Note_on_c, 12, 29, 122
13, 1221588, Note_off_c, 12, 29, 64
13, 1221600, Note_on_c, 12, 34, 127
13, 1221792, Note_off_c, 12, 34, 64
13, 1222080, Note_on_c, 12, 53, 72
13, 1222560, Note_off_c, 12, 53, 64
13, 1222560, Note_on_c, 12, 51, 73
13, 1223040, Note_off_c, 12, 51, 64
13, 1223040, Note_on_c, 12, 50, 75
13, 1223520, Note_off_c, 12, 50, 64
13, 1223520, Note_on_c, 12, 48, 76
13, 1224000, Note_off_c, 12, 48, 64
13, 1224000, Note_on_c, 12, 46, 78
13, 1224480, Note_off_c, 12, 46, 64
13, 1224480, Note_on_c, 12, 45, 79
13, 1224960, Note_off_c, 12, 45, 64
13, 1224960, Note_on_c, 12, 46, 81
13, 1225440, Note_off_c, 12, 46, 64
13, 1225440, Note_on_c, 12, 41, 83
13, 1225680, Note_off_c, 12, 41, 64
13, 1225920, Note_on_c, 12, 48, 84
13, 1226400, Note_off_c, 12, 48, 64
13, 1226400, Note_on_c, 12, 46, 86
13, 1226880, Note_off_c, 12, 46, 64
13, 1226880, Note_on_c, 12, 45, 87
13, 1227360, Note_off_c, 12, 45, 64
13, 1227360, Note_on_c, 12, 43, 89
13, 1227840, Note_off_c, 12, 43, 64
13, 1227840, Note_on_c, 12, 41, 90
13, 1228320, Note_off_c, 12, 41, 64
13, 1228320, Note_on_c, 12, 40, 92
13, 1228800, Note_off_c, 12, 40, 64
13, 1228800, Note_on_c, 12, 41, 93
13, 1229280, Note_off_c, 12, 41, 64
13, 1229280, Note_on_c, 12, 34, 95
13, 1229472, Note_off_c, 12, 34, 64
13, 1229760, Note_on_c, 12, 41, 97
13, 1230240, Note_off_c, 12, 41, 64
13, 1230240, Note_on_c, 12, 39, 98
13, 1230720, Note_off_c, 12, 39, 64
13, 1230720, Note_on_c, 12, 38, 100
13, 1231200, Note_off_c, 12, 38, 64
13, 1231200, Note_on_c, 12, 36, 101
13, 1231680, Note_off_c, 12, 36, 64
13, 1231680, Note_on_c, 12, 34, 103
13, 1232160, Note_off_c, 12, 34, 64
13, 1232160, Note_on_c, 12, 33, 104
13, 1232640, Note_off_c, 12, 33, 64
13, 1232640, Note_on_c, 12, 34, 106
13, 1233120, Note_off_c, 12, 34, 64
13, 1233120, Note_on_c, 12, 29, 108
13, 1233360, Note_off_c, 12, 29, 64
13, 1233600, Note_on_c, 12, 36, 109
13, 1234080, Note_off_c, 12, 36, 64
13, 1234080, Note_on_c, 12, 34, 111
13, 1234560, Note_off_c, 12, 34, 64
13, 1234560, Note_on_c, 12, 33, 112
13, 1235040, Note_off_c, 12, 33, 64
13, 1235040, Note_on_c, 12, 31, 114
13, 1235520, Note_off_c, 12, 31, 64
13, 1235520, Note_on_c, 12, 29, 115
13, 1236000, Note_off_c, 12, 29, 64
13, 1236000, Note_on_c, 12, 28, 117
13, 1236480, Note_off_c, 12, 28, 64
13, 1236480, Note_on_c, 12, 29, 118
13, 1236960, Note_off_c, 12, 29, 64
13, 1236960, Note_on_c, 12, 34, 127
13, 1237152, Note_off_c, 12, 34, 64
13, 1237200, Note_on_c, 12, 34, 127
13, 1237392, Note_off_c, 12, 34, 64
13, 1237440, Note_on_c, 12, 34, 127
13, 1237632, Note_off_c, 12, 34, 64
13, 1237680, Note_on_c, 12, 34, 127
13, 1237872, Note_off_c, 12, 34, 64
13, 1237920, Note_on_c, 12, 34, 127
13, 1238112, Note_off_c, 12, 34, 64
13, 1238160, Note_on_c, 12, 34, 127
13, 1238352, Note_off_c, 12, 34, 64
13, 1238400, Note_on_c, 12, 34, 127
13, 1238592, Note_off_c, 12, 34, 64
13, 1238640, Note_on_c, 12, 34, 127
13, 1238832, Note_off_c, 12, 34, 64
13, 1238880, Note_on_c, 12, 34, 127
13, 1239072, Note_off_c, 12, 34, 64
13, 1239120, Note_on_c, 12, 34, 127
13, 1239312, Note_off_c, 12, 34, 64
13, 1239360, Note_on_c, 12, 34, 127
13, 1239552, Note_off_c, 12, 34, 64
13, 1239600, Note_on_c, 12, 34, 127
13, 1239792, Note_off_c, 12, 34, 64
13, 1239840, Note_on_c, 12, 34, 127
13, 1240032, Note_off_c, 12, 34, 64
13, 1240080, Note_on_c, 12, 34, 127
13, 1240272, Note_off_c, 12, 34, 64
13, 1240320, Note_on_c, 12, 34, 127
13, 1240512, Note_off_c, 12, 34, 64
13, 1240560, Note_on_c, 12, 34, 127
13, 1240752, Note_off_c, 12, 34, 64
13, 1240800, Note_on_c, 12, 34, 127
13, 1240992, Note_off_c, 12, 34, 64
13, 1241040, Note_on_c, 12, 34, 127
13, 1241232, Note_off_c, 12, 34, 64
13, 1241280, Note_on_c, 12, 34, 127
13, 1241472, Note_off_c, 12, 34, 64
13, 1241520, Note_on_c, 12, 34, 127
13, 1241712, Note_off_c, 12, 34, 64
13, 1241760, Note_on_c, 12, 34, 127
13, 1241952, Note_off_c, 12, 34, 64
13, 1242000, Note_on_c, 12, 34, 127
13, 1242192, Note_off_c, 12, 34, 64
13, 1242240, Note_on_c, 12, 34, 127
13, 1242432, Note_off_c, 12, 34, 64
13, 1242480, Note_on_c, 12, 34, 127
13, 1242672, Note_off_c, 12, 34, 64
13, 1242720, Note_on_c, 12, 34, 127
13, 1242912, Note_off_c, 12, 34, 64
13, 1242960, Note_on_c, 12, 34, 127
13, 1243152, Note_off_c, 12, 34, 64
13, 1243200, Note_on_c, 12, 34, 127
13, 1243392, Note_off_c, 12, 34, 64
13, 1243440, Note_on_c, 12, 34, 127
13, 1243632, Note_off_c, 12, 34, 64
13, 1243680, Note_on_c, 12, 34, 127
13, 1243872, Note_off_c, 12, 34, 64
13, 1243920, Note_on_c, 12, 34, 127
13, 1244112, Note_off_c, 12, 34, 64
13, 1244160, Note_on_c, 12, 34, 127
13, 1244352, Note_off_c, 12, 34, 64
13, 1244400, Note_on_c, 12, 41, 127
13, 1244480, Note_off_c, 12, 41, 64
13, 1244480, Note_on_c, 12, 43, 127
13, 1244560, Note_off_c, 12, 43, 64
13, 1244560, Note_on_c, 12, 45, 127
13, 1244640, Note_off_c, 12, 45, 64
13, 1244640, Note_on_c, 12, 46, 127
13, 1244880, Note_off_c, 12, 46, 64
13, 1245360, Note_on_c, 12, 41, 127
13, 1245440, Note_off_c, 12, 41, 64
13, 1245440, Note_on_c, 12, 43, 127
13, 1245520, Note_off_c, 12, 43, 64
13, 1245520, Note_on_c, 12, 45, 127
13, 1245600, Note_off_c, 12, 45, 64
13, 1245600, Note_on_c, 12, 46, 127
13, 1245840, Note_off_c, 12, 46, 64
13, 1246320, Note_on_c, 12, 41, 127
13, 1246400, Note_off_c, 12, 41, 64
13, 1246400, Note_on_c, 12, 43, 127
13, 1246480, Note_off_c, 12, 43, 64
13, 1246480, Note_on_c, 12, 45, 127
13, 1246560, Note_off_c, 12, 45, 64
13, 1246560, Note_on_c, 12, 46, 127
13, 1246800, Note_off_c, 12, 46, 64
13, 1248480, Note_on_c, 12, 34, 127
13, 1248720, Note_off_c, 12, 34, 64
13, 1248960, Control_c, 12, 7, 127
13, 1250400, Note_on_c, 12, 22, 127
13, 1250400, Note_on_c, 12, 34, 127
13, 1250640, Note_off_c, 12, 34, 64
13, 1250640, Note_off_c, 12, 22, 64
13, 1250640, End_track
14, 0, Start_track
14, 0, Title_t, "Pizz Violins"
14, 0, MIDI_port, 0
14, 0, Channel_prefix, 13
14, 0, Control_c, 13, 7, 89
14, 0, Control_c, 13, 10, 45
14, 0, Program_c, 13, 45
14, 480, Program_c, 13, 45
14, 480, Control_c, 13, 7, 90
14, 480, Control_c, 13, 91, 85
14, 480, Control_c, 13, 93, 90
14, 480, Control_c, 13, 10, 34
14, 5700, Control_c, 13, 7, 75
14, 5760, Note_on_c, 13, 58, 26
14, 6144, Note_off_c, 13, 58, 64
14, 11520, Program_c, 13, 49
14, 15840, Note_on_c, 13, 72, 76
14, 16008, Note_off_c, 13, 72, 64
14, 16320, Note_on_c, 13, 76, 76
14, 16488, Note_off_c, 13, 76, 64
14, 16800, Note_on_c, 13, 77, 76
14, 16968, Note_off_c, 13, 77, 64
14, 17280, Note_on_c, 13, 78, 76
14, 17448, Note_off_c, 13, 78, 64
14, 17760, Note_on_c, 13, 75, 76
14, 17928, Note_off_c, 13, 75, 64
14, 18240, Note_on_c, 13, 72, 76
14, 18408, Note_off_c, 13, 72, 64
14, 19680, Note_on_c, 13, 60, 76
14, 19848, Note_off_c, 13, 60, 64
14, 20160, Note_on_c, 13, 64, 76
14, 20328, Note_off_c, 13, 64, 64
14, 20640, Note_on_c, 13, 65, 76
14, 20808, Note_off_c, 13, 65, 64
14, 21120, Note_on_c, 13, 66, 76
14, 21288, Note_off_c, 13, 66, 64
14, 21600, Note_on_c, 13, 63, 76
14, 21768, Note_off_c, 13, 63, 64
14, 22080, Note_on_c, 13, 60, 76
14, 22248, Note_off_c, 13, 60, 64
14, 23520, Note_on_c, 13, 65, 76
14, 23688, Note_off_c, 13, 65, 64
14, 24000, Note_on_c, 13, 66, 76
14, 24168, Note_off_c, 13, 66, 64
14, 25440, Note_on_c, 13, 75, 76
14, 25608, Note_off_c, 13, 75, 64
14, 25920, Note_on_c, 13, 78, 76
14, 26088, Note_off_c, 13, 78, 64
14, 36480, Program_c, 13, 49
14, 38880, Note_on_c, 13, 73, 76
14, 39048, Note_off_c, 13, 73, 64
14, 39360, Note_on_c, 13, 77, 76
14, 39528, Note_off_c, 13, 77, 64
14, 39840, Note_on_c, 13, 78, 76
14, 40008, Note_off_c, 13, 78, 64
14, 40320, Note_on_c, 13, 79, 76
14, 40488, Note_off_c, 13, 79, 64
14, 40800, Note_on_c, 13, 76, 76
14, 40968, Note_off_c, 13, 76, 64
14, 41280, Note_on_c, 13, 73, 76
14, 41448, Note_off_c, 13, 73, 64
14, 42720, Note_on_c, 13, 61, 76
14, 42888, Note_off_c, 13, 61, 64
14, 43200, Note_on_c, 13, 65, 76
14, 43368, Note_off_c, 13, 65, 64
14, 43680, Note_on_c, 13, 66, 76
14, 43848, Note_off_c, 13, 66, 64
14, 44160, Note_on_c, 13, 67, 76
14, 44328, Note_off_c, 13, 67, 64
14, 44640, Note_on_c, 13, 64, 76
14, 44808, Note_off_c, 13, 64, 64
14, 45120, Note_on_c, 13, 61, 76
14, 45288, Note_off_c, 13, 61, 64
14, 46560, Note_on_c, 13, 66, 76
14, 46728, Note_off_c, 13, 66, 64
14, 47040, Note_on_c, 13, 67, 76
14, 47208, Note_off_c, 13, 67, 64
14, 48480, Note_on_c, 13, 76, 76
14, 48648, Note_off_c, 13, 76, 64
14, 48960, Note_on_c, 13, 79, 76
14, 49128, Note_off_c, 13, 79, 64
14, 54240, Note_on_c, 13, 71, 76
14, 54408, Note_off_c, 13, 71, 64
14, 54720, Note_on_c, 13, 74, 76
14, 54888, Note_off_c, 13, 74, 64
14, 56160, Note_on_c, 13, 72, 76
14, 56328, Note_off_c, 13, 72, 64
14, 56640, Note_on_c, 13, 76, 76
14, 56808, Note_off_c, 13, 76, 64
14, 58080, Note_on_c, 13, 73, 76
14, 58248, Note_off_c, 13, 73, 64
14, 58560, Note_on_c, 13, 76, 76
14, 58728, Note_off_c, 13, 76, 64
14, 60000, Note_on_c, 13, 74, 76
14, 60168, Note_off_c, 13, 74, 64
14, 60480, Note_on_c, 13, 77, 76
14, 60648, Note_off_c, 13, 77, 64
14, 61920, Note_on_c, 13, 62, 102
14, 61920, Note_on_c, 13, 74, 102
14, 62088, Note_off_c, 13, 74, 64
14, 62088, Note_off_c, 13, 62, 64
14, 62400, Note_on_c, 13, 77, 102
14, 62400, Note_on_c, 13, 65, 102
14, 62568, Note_off_c, 13, 65, 64
14, 62568, Note_off_c, 13, 77, 64
14, 69120, Program_c, 13, 49
14, 71520, Note_on_c, 13, 81, 98
14, 71520, Note_on_c, 13, 69, 98
14, 71760, Note_off_c, 13, 69, 64
14, 71760, Note_off_c, 13, 81, 64
14, 72000, Note_on_c, 13, 81, 123
14, 72000, Note_on_c, 13, 69, 123
14, 72240, Note_off_c, 13, 69, 64
14, 72240, Note_off_c, 13, 81, 64
14, 72480, Note_on_c, 13, 69, 127
14, 72480, Note_on_c, 13, 81, 127
14, 72732, Note_off_c, 13, 81, 64
14, 72732, Note_off_c, 13, 69, 64
14, 72960, Control_c, 13, 7, 90
14, 710400, Program_c, 13, 45
14, 712320, Control_c, 13, 10, 80
14, 718080, Note_on_c, 13, 62, 32
14, 718080, Note_on_c, 13, 66, 32
14, 718080, Note_on_c, 13, 69, 32
14, 718464, Note_off_c, 13, 69, 64
14, 718464, Note_off_c, 13, 66, 64
14, 718464, Note_off_c, 13, 62, 64
14, 720000, Note_on_c, 13, 62, 32
14, 720000, Note_on_c, 13, 66, 32
14, 720000, Note_on_c, 13, 57, 32
14, 720384, Note_off_c, 13, 57, 64
14, 720384, Note_off_c, 13, 66, 64
14, 720384, Note_off_c, 13, 62, 64
14, 721920, Note_on_c, 13, 62, 32
14, 721920, Note_on_c, 13, 64, 32
14, 721920, Note_on_c, 13, 67, 32
14, 721920, Note_on_c, 13, 59, 32
14, 722304, Note_off_c, 13, 59, 64
14, 722304, Note_off_c, 13, 67, 64
14, 722304, Note_off_c, 13, 64, 64
14, 722304, Note_off_c, 13, 62, 64
14, 723840, Note_on_c, 13, 61, 32
14, 723840, Note_on_c, 13, 67, 32
14, 723840, Note_on_c, 13, 57, 32
14, 723840, Note_on_c, 13, 64, 32
14, 724224, Note_off_c, 13, 64, 64
14, 724224, Note_off_c, 13, 57, 64
14, 724224, Note_off_c, 13, 67, 64
14, 724224, Note_off_c, 13, 61, 64
14, 725760, Note_on_c, 13, 66, 32
14, 725760, Note_on_c, 13, 57, 32
14, 725760, Note_on_c, 13, 62, 32
14, 726144, Note_off_c, 13, 62, 64
14, 726144, Note_off_c, 13, 57, 64
14, 726144, Note_off_c, 13, 66, 64
14, 727680, Note_on_c, 13, 62, 32
14, 727680, Note_on_c, 13, 67, 32
14, 727680, Note_on_c, 13, 58, 32
14, 728064, Note_off_c, 13, 58, 64
14, 728064, Note_off_c, 13, 67, 64
14, 728064, Note_off_c, 13, 62, 64
14, 729600, Note_on_c, 13, 63, 32
14, 729600, Note_on_c, 13, 60, 32
14, 729600, Note_on_c, 13, 67, 32
14, 729600, Note_on_c, 13, 57, 32
14, 729984, Note_off_c, 13, 57, 64
14, 729984, Note_off_c, 13, 67, 64
14, 729984, Note_off_c, 13, 60, 64
14, 729984, Note_off_c, 13, 63, 64
14, 731520, Note_on_c, 13, 57, 32
14, 731520, Note_on_c, 13, 62, 32
14, 731520, Note_on_c, 13, 66, 32
14, 731520, Note_on_c, 13, 60, 32
14, 731904, Note_off_c, 13, 60, 64
14, 731904, Note_off_c, 13, 66, 64
14, 731904, Note_off_c, 13, 62, 64
14, 731904, Note_off_c, 13, 57, 64
14, 733440, Note_on_c, 13, 62, 32
14, 733440, Note_on_c, 13, 58, 32
14, 733824, Note_off_c, 13, 58, 64
14, 733824, Note_off_c, 13, 62, 64
14, 735360, Note_on_c, 13, 63, 32
14, 735360, Note_on_c, 13, 58, 32
14, 735744, Note_off_c, 13, 58, 64
14, 735744, Note_off_c, 13, 63, 64
14, 737280, Note_on_c, 13, 63, 32
14, 737280, Note_on_c, 13, 56, 32
14, 737664, Note_off_c, 13, 56, 64
14, 737664, Note_off_c, 13, 63, 64
14, 739200, Note_on_c, 13, 65, 32
14, 739200, Note_on_c, 13, 56, 32
14, 739584, Note_off_c, 13, 56, 64
14, 739584, Note_off_c, 13, 65, 64
14, 741120, Note_on_c, 13, 67, 32
14, 741120, Note_on_c, 13, 55, 32
14, 741504, Note_off_c, 13, 55, 64
14, 741504, Note_off_c, 13, 67, 64
14, 743040, Note_on_c, 13, 67, 32
14, 743040, Note_on_c, 13, 75, 32
14, 743040, Note_on_c, 13, 63, 32
14, 743040, Note_on_c, 13, 55, 32
14, 743424, Note_off_c, 13, 55, 64
14, 743424, Note_off_c, 13, 63, 64
14, 743424, Note_off_c, 13, 75, 64
14, 743424, Note_off_c, 13, 67, 64
14, 744960, Note_on_c, 13, 68, 32
14, 744960, Note_on_c, 13, 65, 32
14, 744960, Note_on_c, 13, 56, 32
14, 744960, Note_on_c, 13, 63, 32
14, 744960, Note_on_c, 13, 75, 32
14, 745344, Note_off_c, 13, 75, 64
14, 745344, Note_off_c, 13, 63, 64
14, 745344, Note_off_c, 13, 56, 64
14, 745344, Note_off_c, 13, 65, 64
14, 745344, Note_off_c, 13, 68, 64
14, 746880, Note_on_c, 13, 65, 32
14, 746880, Note_on_c, 13, 74, 32
14, 746880, Note_on_c, 13, 68, 32
14, 746880, Note_on_c, 13, 55, 32
14, 747264, Note_off_c, 13, 55, 64
14, 747264, Note_off_c, 13, 68, 64
14, 747264, Note_off_c, 13, 74, 64
14, 747264, Note_off_c, 13, 65, 64
14, 748800, Note_on_c, 13, 55, 32
14, 748800, Note_on_c, 13, 63, 32
14, 749184, Note_off_c, 13, 63, 64
14, 749184, Note_off_c, 13, 55, 64
14, 750720, Note_on_c, 13, 60, 37
14, 750720, Note_on_c, 13, 63, 37
14, 751104, Note_off_c, 13, 63, 64
14, 751104, Note_off_c, 13, 60, 64
14, 752640, Note_on_c, 13, 60, 43
14, 752640, Note_on_c, 13, 63, 43
14, 753024, Note_off_c, 13, 63, 64
14, 753024, Note_off_c, 13, 60, 64
14, 754560, Note_on_c, 13, 56, 49
14, 754560, Note_on_c, 13, 62, 49
14, 754944, Note_off_c, 13, 62, 64
14, 754944, Note_off_c, 13, 56, 64
14, 754944, End_track
15, 0, Start_track
15, 0, Title_t, "Pizz Bass"
15, 0, MIDI_port, 0
15, 0, Channel_prefix, 14
15, 0, Control_c, 14, 7, 89
15, 0, Control_c, 14, 10, 90
15, 0, Program_c, 14, 45
15, 480, Control_c, 14, 10, 95
15, 480, Program_c, 14, 45
15, 480, Control_c, 14, 91, 85
15, 480, Control_c, 14, 93, 90
15, 480, Control_c, 14, 7, 90
15, 5520, Control_c, 14, 7, 75
15, 5640, Note_on_c, 14, 34, 48
15, 5700, Note_on_c, 14, 46, 48
15, 6144, Note_off_c, 14, 46, 64
15, 6144, Note_off_c, 14, 34, 64
15, 11520, Program_c, 14, 49
15, 21120, Note_on_c, 14, 30, 26
15, 21120, Note_on_c, 14, 42, 26
15, 22560, Note_off_c, 14, 42, 64
15, 22560, Note_off_c, 14, 30, 64
15, 22560, Note_on_c, 14, 28, 26
15, 22560, Note_on_c, 14, 40, 26
15, 23040, Note_off_c, 14, 40, 64
15, 23040, Note_off_c, 14, 28, 64
15, 23040, Note_on_c, 14, 29, 26
15, 23040, Note_on_c, 14, 41, 26
15, 23280, Note_off_c, 14, 41, 64
15, 23280, Note_off_c, 14, 29, 64
15, 24480, Note_on_c, 14, 57, 54
15, 24480, Note_on_c, 14, 53, 54
15, 24648, Note_off_c, 14, 53, 64
15, 24648, Note_off_c, 14, 57, 64
15, 24960, Note_on_c, 14, 57, 54
15, 24960, Note_on_c, 14, 53, 54
15, 25128, Note_off_c, 14, 53, 64
15, 25128, Note_off_c, 14, 57, 64
15, 26400, Note_on_c, 14, 57, 54
15, 26400, Note_on_c, 14, 53, 54
15, 26568, Note_off_c, 14, 53, 64
15, 26568, Note_off_c, 14, 57, 64
15, 26880, Note_on_c, 14, 57, 54
15, 26880, Note_on_c, 14, 53, 54
15, 27048, Note_off_c, 14, 53, 64
15, 27048, Note_off_c, 14, 57, 64
15, 27360, Note_on_c, 14, 53, 54
15, 27360, Note_on_c, 14, 57, 54
15, 27528, Note_off_c, 14, 57, 64
15, 27528, Note_off_c, 14, 53, 64
15, 27840, Note_on_c, 14, 57, 54
15, 27840, Note_on_c, 14, 53, 54
15, 28008, Note_off_c, 14, 53, 64
15, 28008, Note_off_c, 14, 57, 64
15, 36480, Program_c, 14, 49
15, 44160, Note_on_c, 14, 31, 26
15, 44160, Note_on_c, 14, 43, 26
15, 45600, Note_off_c, 14, 43, 64
15, 45600, Note_off_c, 14, 31, 64
15, 45600, Note_on_c, 14, 41, 26
15, 45600, Note_on_c, 14, 29, 26
15, 46080, Note_off_c, 14, 29, 64
15, 46080, Note_off_c, 14, 41, 64
15, 46080, Note_on_c, 14, 42, 26
15, 46080, Note_on_c, 14, 30, 26
15, 46320, Note_off_c, 14, 30, 64
15, 46320, Note_off_c, 14, 42, 64
15, 46320, Program_c, 14, 48
15, 47520, Note_on_c, 14, 58, 27
15, 47520, Note_on_c, 14, 54, 27
15, 47688, Note_off_c, 14, 54, 64
15, 47688, Note_off_c, 14, 58, 64
15, 48000, Note_on_c, 14, 54, 27
15, 48000, Note_on_c, 14, 58, 27
15, 48168, Note_off_c, 14, 58, 64
15, 48168, Note_off_c, 14, 54, 64
15, 49440, Note_on_c, 14, 54, 27
15, 49440, Note_on_c, 14, 58, 27
15, 49608, Note_off_c, 14, 58, 64
15, 49608, Note_off_c, 14, 54, 64
15, 49920, Note_on_c, 14, 58, 27
15, 49920, Note_on_c, 14, 54, 27
15, 50088, Note_off_c, 14, 54, 64
15, 50088, Note_off_c, 14, 58, 64
15, 50400, Note_on_c, 14, 58, 27
15, 50400, Note_on_c, 14, 54, 27
15, 50568, Note_off_c, 14, 54, 64
15, 50568, Note_off_c, 14, 58, 64
15, 50880, Note_on_c, 14, 54, 27
15, 50880, Note_on_c, 14, 58, 27
15, 51048, Note_off_c, 14, 58, 64
15, 51048, Note_off_c, 14, 54, 64
15, 61440, Program_c, 14, 48
15, 65280, Note_on_c, 14, 33, 38
15, 65280, Note_on_c, 14, 45, 38
15, 65760, Note_off_c, 14, 45, 64
15, 65760, Note_off_c, 14, 33, 64
15, 65760, Note_on_c, 14, 55, 38
15, 66240, Note_off_c, 14, 55, 64
15, 66240, Note_on_c, 14, 53, 38
15, 66720, Note_off_c, 14, 53, 64
15, 66720, Note_on_c, 14, 52, 38
15, 66960, Note_off_c, 14, 52, 64
15, 66960, Note_on_c, 14, 50, 38
15, 67200, Note_off_c, 14, 50, 64
15, 67200, Note_on_c, 14, 37, 38
15, 67200, Note_on_c, 14, 49, 38
15, 67680, Note_off_c, 14, 49, 64
15, 67680, Note_off_c, 14, 37, 64
15, 67680, Note_on_c, 14, 33, 38
15, 67680, Note_on_c, 14, 45, 38
15, 68160, Note_off_c, 14, 45, 64
15, 68160, Note_off_c, 14, 33, 64
15, 68160, Note_on_c, 14, 38, 38
15, 68160, Note_on_c, 14, 50, 38
15, 68640, Note_off_c, 14, 50, 64
15, 68640, Note_off_c, 14, 38, 64
15, 68640, Note_on_c, 14, 37, 38
15, 68640, Note_on_c, 14, 49, 38
15, 68880, Note_off_c, 14, 49, 64
15, 68880, Note_off_c, 14, 37, 64
15, 68880, Note_on_c, 14, 38, 38
15, 68880, Note_on_c, 14, 50, 38
15, 69120, Note_off_c, 14, 50, 64
15, 69120, Note_off_c, 14, 38, 64
15, 72960, Control_c, 14, 7, 90
15, 122880, Program_c, 14, 45
15, 128640, Note_on_c, 14, 34, 45
15, 128640, Note_on_c, 14, 46, 45
15, 129408, Note_off_c, 14, 46, 64
15, 129408, Note_off_c, 14, 34, 64
15, 132480, Note_on_c, 14, 46, 45
15, 132480, Note_on_c, 14, 34, 45
15, 133248, Note_off_c, 14, 34, 64
15, 133248, Note_off_c, 14, 46, 64
15, 134400, Note_on_c, 14, 46, 45
15, 134400, Note_on_c, 14, 34, 45
15, 135168, Note_off_c, 14, 34, 64
15, 135168, Note_off_c, 14, 46, 64
15, 136320, Note_on_c, 14, 34, 45
15, 136320, Note_on_c, 14, 46, 45
15, 137088, Note_off_c, 14, 46, 64
15, 137088, Note_off_c, 14, 34, 64
15, 140160, Note_on_c, 14, 46, 45
15, 140160, Note_on_c, 14, 34, 45
15, 140928, Note_off_c, 14, 34, 64
15, 140928, Note_off_c, 14, 46, 64
15, 142080, Note_on_c, 14, 46, 45
15, 142080, Note_on_c, 14, 34, 45
15, 142848, Note_off_c, 14, 34, 64
15, 142848, Note_off_c, 14, 46, 64
15, 144000, Note_on_c, 14, 34, 45
15, 144000, Note_on_c, 14, 46, 45
15, 144768, Note_off_c, 14, 46, 64
15, 144768, Note_off_c, 14, 34, 64
15, 147840, Note_on_c, 14, 34, 45
15, 147840, Note_on_c, 14, 46, 45
15, 148608, Note_off_c, 14, 46, 64
15, 148608, Note_off_c, 14, 34, 64
15, 412800, Program_c, 14, 45
15, 418560, Note_on_c, 14, 34, 45
15, 418560, Note_on_c, 14, 46, 45
15, 419328, Note_off_c, 14, 46, 64
15, 419328, Note_off_c, 14, 34, 64
15, 422400, Note_on_c, 14, 46, 45
15, 422400, Note_on_c, 14, 34, 45
15, 423168, Note_off_c, 14, 34, 64
15, 423168, Note_off_c, 14, 46, 64
15, 424320, Note_on_c, 14, 46, 45
15, 424320, Note_on_c, 14, 34, 45
15, 425088, Note_off_c, 14, 34, 64
15, 425088, Note_off_c, 14, 46, 64
15, 426240, Note_on_c, 14, 34, 45
15, 426240, Note_on_c, 14, 46, 45
15, 427008, Note_off_c, 14, 46, 64
15, 427008, Note_off_c, 14, 34, 64
15, 430080, Note_on_c, 14, 46, 45
15, 430080, Note_on_c, 14, 34, 45
15, 430848, Note_off_c, 14, 34, 64
15, 430848, Note_off_c, 14, 46, 64
15, 432000, Note_on_c, 14, 46, 45
15, 432000, Note_on_c, 14, 34, 45
15, 432768, Note_off_c, 14, 34, 64
15, 432768, Note_off_c, 14, 46, 64
15, 433920, Note_on_c, 14, 34, 45
15, 433920, Note_on_c, 14, 46, 45
15, 434688, Note_off_c, 14, 46, 64
15, 434688, Note_off_c, 14, 34, 64
15, 437760, Note_on_c, 14, 34, 45
15, 437760, Note_on_c, 14, 46, 45
15, 438528, Note_off_c, 14, 46, 64
15, 438528, Note_off_c, 14, 34, 64
15, 718080, Note_on_c, 14, 38, 37
15, 718464, Note_off_c, 14, 38, 64
15, 720000, Note_on_c, 14, 42, 37
15, 720384, Note_off_c, 14, 42, 64
15, 721920, Note_on_c, 14, 40, 37
15, 722304, Note_off_c, 14, 40, 64
15, 723840, Note_on_c, 14, 33, 37
15, 724224, Note_off_c, 14, 33, 64
15, 725760, Note_on_c, 14, 38, 37
15, 726144, Note_off_c, 14, 38, 64
15, 727680, Note_on_c, 14, 34, 37
15, 728064, Note_off_c, 14, 34, 64
15, 729600, Note_on_c, 14, 33, 37
15, 729984, Note_off_c, 14, 33, 64
15, 731520, Note_on_c, 14, 38, 37
15, 731904, Note_off_c, 14, 38, 64
15, 733440, Note_on_c, 14, 43, 37
15, 733824, Note_off_c, 14, 43, 64
15, 735360, Note_on_c, 14, 43, 37
15, 735360, Note_on_c, 14, 55, 37
15, 735744, Note_off_c, 14, 55, 64
15, 735744, Note_off_c, 14, 43, 64
15, 737280, Note_on_c, 14, 41, 37
15, 737280, Note_on_c, 14, 53, 37
15, 737664, Note_off_c, 14, 53, 64
15, 737664, Note_off_c, 14, 41, 64
15, 739200, Note_on_c, 14, 34, 37
15, 739200, Note_on_c, 14, 46, 37
15, 739584, Note_off_c, 14, 46, 64
15, 739584, Note_off_c, 14, 34, 64
15, 741120, Note_on_c, 14, 39, 37
15, 741120, Note_on_c, 14, 51, 37
15, 741504, Note_off_c, 14, 51, 64
15, 741504, Note_off_c, 14, 39, 64
15, 743040, Note_on_c, 14, 43, 37
15, 743040, Note_on_c, 14, 55, 37
15, 743424, Note_off_c, 14, 55, 64
15, 743424, Note_off_c, 14, 43, 64
15, 744960, Note_on_c, 14, 41, 37
15, 744960, Note_on_c, 14, 53, 37
15, 745344, Note_off_c, 14, 53, 64
15, 745344, Note_off_c, 14, 41, 64
15, 746880, Note_on_c, 14, 34, 37
15, 746880, Note_on_c, 14, 46, 37
15, 747264, Note_off_c, 14, 46, 64
15, 747264, Note_off_c, 14, 34, 64
15, 748800, Note_on_c, 14, 39, 37
15, 748800, Note_on_c, 14, 51, 37
15, 749184, Note_off_c, 14, 51, 64
15, 749184, Note_off_c, 14, 39, 64
15, 750720, Note_on_c, 14, 36, 43
15, 750720, Note_on_c, 14, 48, 43
15, 751104, Note_off_c, 14, 48, 64
15, 751104, Note_off_c, 14, 36, 64
15, 752640, Note_on_c, 14, 32, 49
15, 752640, Note_on_c, 14, 44, 49
15, 753024, Note_off_c, 14, 44, 64
15, 753024, Note_off_c, 14, 32, 64
15, 754560, Note_on_c, 14, 34, 56
15, 754560, Note_on_c, 14, 46, 56
15, 754944, Note_off_c, 14, 46, 64
15, 754944, Note_off_c, 14, 34, 64
15, 754944, End_track
16, 0, Start_track
16, 0, Title_t, "Michael A. Abelson"
16, 0, MIDI_port, 0
16, 0, Channel_prefix, 0
16, 0, Control_c, 0, 7, 89
16, 0, Control_c, 0, 10, 55
16, 0, Program_c, 0, 73
16, 0, End_track
17, 0, Start_track
17, 0, Title_t, "AWE-32 optimized"
17, 0, MIDI_port, 0
17, 0, End_track
18, 0, Start_track
18, 0, Title_t, "1/10/98"
18, 0, MIDI_port, 0
18, 0, End_track
19, 0, Start_track
19, 0, Title_t, "mabelson@telerama.lm.com"
19, 0, MIDI_port, 0
19, 0, End_track
0, 0, End_of_file