0, 0, Header, 1, 4, 120
1, 0, Start_track
1, 0, Title_t, "Bagatella WoO 56 1803/4"
1, 0, Copyright_t, "fiorellaearmando@panet.it"
1, 0, Text_t, "Bagatelle fur Klavier (C-dur) WoO 56\012"
1, 0, Text_t, "GA : NR 297 NR 2 = Serie 25 (supplement) nr 34 II\012"
1, 0, Text_t, "Il manoscritto originale si trova a Parigi, presso il conservatorio di Musica. (Conservatoire de Musique de Paris)\012"
1, 0, Text_t, "Data presunta di composizione:1803/1804.\012"
1, 0, Text_t, "Il manoscritto porta l' indicazione ""nr 5"" forse per una eventuale pubblicazione in una raccolta. \012"
1, 0, Text_t, "Nel ""Quaderno Eroica"" Nottebohm SK II, pagina 66, ne cita un piccolo abbozzo.\012"
1, 0, Sequencer_specific, 03, 00, 00, 41
1, 0, Time_signature, 3, 2, 24, 8
1, 0, Key_signature, 0, "major"
1, 0, Tempo, 461538
1, 29860, Tempo, 458015
1, 29880, Tempo, 461538
1, 29895, Tempo, 465116
1, 29915, Tempo, 468750
1, 29930, Tempo, 472441
1, 29950, Tempo, 476190
1, 29965, Tempo, 480000
1, 29985, Tempo, 483871
1, 30000, Tempo, 487805
1, 30015, Tempo, 491803
1, 30035, Tempo, 495868
1, 30050, Tempo, 500000
1, 30070, Tempo, 504202
1, 30085, Tempo, 508475
1, 30105, Tempo, 512821
1, 30120, Tempo, 517241
1, 30135, Tempo, 521739
1, 30155, Tempo, 526316
1, 30170, Tempo, 530973
1, 30190, Tempo, 535714
1, 30205, Tempo, 540541
1, 30225, Tempo, 545455
1, 30240, Tempo, 550459
1, 30260, Tempo, 555556
1, 30275, Tempo, 560748
1, 30290, Tempo, 566038
1, 30310, Tempo, 571429
1, 30325, Tempo, 576923
1, 30345, Tempo, 582524
1, 30360, Tempo, 588235
1, 30380, Tempo, 594059
1, 30395, Tempo, 600000
1, 30410, Tempo, 606061
1, 30430, Tempo, 612245
1, 30445, Tempo, 618557
1, 30465, Tempo, 625000
1, 30480, Tempo, 631579
1, 30500, Tempo, 638298
1, 30515, Tempo, 645161
1, 30535, Tempo, 652174
1, 30550, Tempo, 659341
1, 30565, Tempo, 666667
1, 30585, Tempo, 674157
1, 30600, Tempo, 681818
1, 30620, Tempo, 689655
1, 30635, Tempo, 697674
1, 30655, Tempo, 705882
1, 30670, Tempo, 714286
1, 30685, Tempo, 722892
1, 30705, Tempo, 731707
1, 30720, Tempo, 740741
1, 30740, Tempo, 750000
1, 30755, Tempo, 759494
1, 30775, Tempo, 769231
1, 30790, Tempo, 779221
1, 30805, Tempo, 789474
1, 30805, End_track
2, 0, Start_track
2, 0, MIDI_port, 0
2, 0, Control_c, 0, 0, 0
2, 0, Control_c, 0, 32, 0
2, 0, Program_c, 0, 0
2, 0, Control_c, 0, 7, 113
2, 1680, Note_on_c, 0, 79, 60
2, 1799, Note_on_c, 0, 79, 0
2, 1800, Note_on_c, 0, 77, 75
2, 1800, Note_on_c, 0, 77, 60
2, 2037, Note_on_c, 0, 77, 0
2, 2040, Note_on_c, 0, 81, 80
2, 2159, Note_on_c, 0, 81, 0
2, 2160, Note_on_c, 0, 77, 83
2, 2160, Note_on_c, 0, 85, 83
2, 2397, Note_on_c, 0, 85, 0
2, 2400, Note_on_c, 0, 86, 88
2, 2513, Note_on_c, 0, 77, 0
2, 2516, Note_on_c, 0, 77, 0
2, 2520, Note_on_c, 0, 76, 91
2, 2640, Note_on_c, 0, 84, 94
2, 2756, Note_on_c, 0, 86, 0
2, 2757, Note_on_c, 0, 76, 0
2, 2760, Note_on_c, 0, 74, 97
2, 2877, Note_on_c, 0, 84, 0
2, 2880, Note_on_c, 0, 83, 99
2, 2999, Note_on_c, 0, 83, 0
2, 3000, Note_on_c, 0, 84, 60
2, 3000, Note_on_c, 0, 72, 60
2, 3061, Note_on_c, 0, 72, 0
2, 3061, Note_on_c, 0, 84, 0
2, 3116, Note_on_c, 0, 74, 0
2, 4560, Note_on_c, 0, 79, 60
2, 4679, Note_on_c, 0, 79, 0
2, 4680, Note_on_c, 0, 77, 75
2, 4680, Note_on_c, 0, 77, 60
2, 4917, Note_on_c, 0, 77, 0
2, 4920, Note_on_c, 0, 81, 80
2, 5039, Note_on_c, 0, 81, 0
2, 5040, Note_on_c, 0, 77, 83
2, 5040, Note_on_c, 0, 85, 83
2, 5277, Note_on_c, 0, 85, 0
2, 5280, Note_on_c, 0, 86, 88
2, 5393, Note_on_c, 0, 77, 0
2, 5396, Note_on_c, 0, 77, 0
2, 5400, Note_on_c, 0, 76, 91
2, 5520, Note_on_c, 0, 84, 94
2, 5636, Note_on_c, 0, 86, 0
2, 5637, Note_on_c, 0, 76, 0
2, 5640, Note_on_c, 0, 74, 97
2, 5757, Note_on_c, 0, 84, 0
2, 5760, Note_on_c, 0, 83, 99
2, 5879, Note_on_c, 0, 83, 0
2, 5880, Note_on_c, 0, 84, 60
2, 5880, Note_on_c, 0, 72, 60
2, 5941, Note_on_c, 0, 72, 0
2, 5941, Note_on_c, 0, 84, 0
2, 5996, Note_on_c, 0, 74, 0
2, 6000, Note_on_c, 0, 81, 60
2, 6119, Note_on_c, 0, 81, 0
2, 6120, Note_on_c, 0, 74, 60
2, 6357, Note_on_c, 0, 74, 0
2, 6360, Note_on_c, 0, 77, 60
2, 6360, Note_on_c, 0, 74, 60
2, 6479, Note_on_c, 0, 77, 0
2, 6480, Note_on_c, 0, 74, 60
2, 6480, Note_on_c, 0, 81, 60
2, 6717, Note_on_c, 0, 81, 0
2, 6720, Note_on_c, 0, 82, 60
2, 6836, Note_on_c, 0, 74, 0
2, 6840, Note_on_c, 0, 73, 60
2, 6960, Note_on_c, 0, 81, 60
2, 7073, Note_on_c, 0, 74, 0
2, 7076, Note_on_c, 0, 82, 0
2, 7077, Note_on_c, 0, 73, 0
2, 7080, Note_on_c, 0, 72, 60
2, 7197, Note_on_c, 0, 81, 0
2, 7199, Note_on_c, 0, 72, 0
2, 7200, Note_on_c, 0, 71, 60
2, 7200, Note_on_c, 0, 80, 60
2, 7319, Note_on_c, 0, 80, 0
2, 7319, Note_on_c, 0, 71, 0
2, 7320, Note_on_c, 0, 72, 60
2, 7320, Note_on_c, 0, 81, 60
2, 7381, Note_on_c, 0, 81, 0
2, 7381, Note_on_c, 0, 72, 0
2, 7800, Note_on_c, 0, 89, 71
2, 7919, Note_on_c, 0, 89, 0
2, 7920, Note_on_c, 0, 89, 74
2, 7980, Note_on_c, 0, 88, 76
2, 7981, Note_on_c, 0, 89, 0
2, 8040, Note_on_c, 0, 86, 77
2, 8041, Note_on_c, 0, 88, 0
2, 8100, Note_on_c, 0, 84, 79
2, 8101, Note_on_c, 0, 86, 0
2, 8160, Note_on_c, 0, 83, 80
2, 8161, Note_on_c, 0, 84, 0
2, 8220, Note_on_c, 0, 81, 82
2, 8221, Note_on_c, 0, 83, 0
2, 8280, Note_on_c, 0, 79, 84
2, 8280, Note_on_c, 0, 72, 84
2, 8281, Note_on_c, 0, 81, 0
2, 8340, Note_on_c, 0, 84, 85
2, 8341, Note_on_c, 0, 79, 0
2, 8400, Note_on_c, 0, 86, 87
2, 8401, Note_on_c, 0, 84, 0
2, 8460, Note_on_c, 0, 88, 88
2, 8461, Note_on_c, 0, 86, 0
2, 8517, Note_on_c, 0, 72, 0
2, 8520, Note_on_c, 0, 89, 90
2, 8520, Note_on_c, 0, 77, 90
2, 8521, Note_on_c, 0, 88, 0
2, 8760, Note_on_c, 0, 88, 96
2, 8760, Note_on_c, 0, 76, 96
2, 8821, Note_on_c, 0, 76, 0
2, 8821, Note_on_c, 0, 88, 0
2, 8876, Note_on_c, 0, 77, 0
2, 8876, Note_on_c, 0, 89, 0
2, 8880, Note_on_c, 0, 81, 60
2, 8999, Note_on_c, 0, 81, 0
2, 9000, Note_on_c, 0, 74, 60
2, 9237, Note_on_c, 0, 74, 0
2, 9240, Note_on_c, 0, 77, 60
2, 9240, Note_on_c, 0, 74, 60
2, 9359, Note_on_c, 0, 77, 0
2, 9360, Note_on_c, 0, 74, 60
2, 9360, Note_on_c, 0, 81, 60
2, 9597, Note_on_c, 0, 81, 0
2, 9600, Note_on_c, 0, 82, 60
2, 9716, Note_on_c, 0, 74, 0
2, 9720, Note_on_c, 0, 73, 60
2, 9840, Note_on_c, 0, 81, 60
2, 9953, Note_on_c, 0, 74, 0
2, 9956, Note_on_c, 0, 82, 0
2, 9957, Note_on_c, 0, 73, 0
2, 9960, Note_on_c, 0, 72, 60
2, 10077, Note_on_c, 0, 81, 0
2, 10079, Note_on_c, 0, 72, 0
2, 10080, Note_on_c, 0, 71, 60
2, 10080, Note_on_c, 0, 80, 60
2, 10199, Note_on_c, 0, 80, 0
2, 10199, Note_on_c, 0, 71, 0
2, 10200, Note_on_c, 0, 72, 60
2, 10200, Note_on_c, 0, 81, 60
2, 10261, Note_on_c, 0, 81, 0
2, 10261, Note_on_c, 0, 72, 0
2, 10680, Note_on_c, 0, 89, 71
2, 10799, Note_on_c, 0, 89, 0
2, 10800, Note_on_c, 0, 89, 74
2, 10860, Note_on_c, 0, 88, 76
2, 10861, Note_on_c, 0, 89, 0
2, 10920, Note_on_c, 0, 86, 77
2, 10921, Note_on_c, 0, 88, 0
2, 10980, Note_on_c, 0, 84, 79
2, 10981, Note_on_c, 0, 86, 0
2, 11040, Note_on_c, 0, 83, 80
2, 11041, Note_on_c, 0, 84, 0
2, 11100, Note_on_c, 0, 81, 82
2, 11101, Note_on_c, 0, 83, 0
2, 11160, Note_on_c, 0, 79, 84
2, 11160, Note_on_c, 0, 72, 84
2, 11161, Note_on_c, 0, 81, 0
2, 11220, Note_on_c, 0, 84, 85
2, 11221, Note_on_c, 0, 79, 0
2, 11280, Note_on_c, 0, 86, 87
2, 11281, Note_on_c, 0, 84, 0
2, 11340, Note_on_c, 0, 88, 88
2, 11341, Note_on_c, 0, 86, 0
2, 11397, Note_on_c, 0, 72, 0
2, 11400, Note_on_c, 0, 89, 90
2, 11400, Note_on_c, 0, 77, 90
2, 11401, Note_on_c, 0, 88, 0
2, 11640, Note_on_c, 0, 88, 96
2, 11640, Note_on_c, 0, 76, 96
2, 11701, Note_on_c, 0, 76, 0
2, 11701, Note_on_c, 0, 88, 0
2, 11756, Note_on_c, 0, 77, 0
2, 11756, Note_on_c, 0, 89, 0
2, 11760, Note_on_c, 0, 64, 60
2, 11760, Note_on_c, 0, 67, 60
2, 11879, Note_on_c, 0, 67, 0
2, 11879, Note_on_c, 0, 64, 0
2, 11880, Note_on_c, 0, 64, 60
2, 11880, Note_on_c, 0, 72, 60
2, 12117, Note_on_c, 0, 72, 0
2, 12117, Note_on_c, 0, 64, 0
2, 12120, Note_on_c, 0, 69, 60
2, 12120, Note_on_c, 0, 74, 60
2, 12239, Note_on_c, 0, 74, 0
2, 12239, Note_on_c, 0, 69, 0
2, 12240, Note_on_c, 0, 68, 60
2, 12240, Note_on_c, 0, 76, 60
2, 12359, Note_on_c, 0, 76, 0
2, 12359, Note_on_c, 0, 68, 0
2, 12480, Note_on_c, 0, 76, 60
2, 12480, Note_on_c, 0, 73, 60
2, 12480, Note_on_c, 0, 67, 60
2, 12599, Note_on_c, 0, 67, 0
2, 12599, Note_on_c, 0, 73, 0
2, 12599, Note_on_c, 0, 76, 0
2, 12600, Note_on_c, 0, 65, 60
2, 12600, Note_on_c, 0, 74, 60
2, 12600, Note_on_c, 0, 77, 60
2, 12719, Note_on_c, 0, 77, 0
2, 12719, Note_on_c, 0, 74, 0
2, 12719, Note_on_c, 0, 65, 0
2, 12840, Note_on_c, 0, 65, 60
2, 12840, Note_on_c, 0, 71, 60
2, 12840, Note_on_c, 0, 74, 60
2, 12959, Note_on_c, 0, 74, 0
2, 12959, Note_on_c, 0, 71, 0
2, 12959, Note_on_c, 0, 65, 0
2, 12960, Note_on_c, 0, 64, 60
2, 12960, Note_on_c, 0, 72, 60
2, 12960, Note_on_c, 0, 76, 60
2, 13079, Note_on_c, 0, 76, 0
2, 13079, Note_on_c, 0, 72, 0
2, 13079, Note_on_c, 0, 64, 0
2, 13200, Note_on_c, 0, 67, 60
2, 13200, Note_on_c, 0, 76, 60
2, 13200, Note_on_c, 0, 79, 60
2, 13319, Note_on_c, 0, 79, 0
2, 13319, Note_on_c, 0, 76, 0
2, 13319, Note_on_c, 0, 67, 0
2, 13320, Note_on_c, 0, 72, 60
2, 13320, Note_on_c, 0, 76, 60
2, 13320, Note_on_c, 0, 84, 60
2, 13557, Note_on_c, 0, 84, 0
2, 13557, Note_on_c, 0, 76, 0
2, 13557, Note_on_c, 0, 72, 0
2, 13560, Note_on_c, 0, 74, 60
2, 13560, Note_on_c, 0, 86, 60
2, 13560, Note_on_c, 0, 81, 60
2, 13679, Note_on_c, 0, 81, 0
2, 13679, Note_on_c, 0, 86, 0
2, 13679, Note_on_c, 0, 74, 0
2, 13680, Note_on_c, 0, 88, 60
2, 13680, Note_on_c, 0, 80, 60
2, 13680, Note_on_c, 0, 76, 60
2, 13799, Note_on_c, 0, 76, 0
2, 13799, Note_on_c, 0, 80, 0
2, 13799, Note_on_c, 0, 88, 0
2, 13920, Note_on_c, 0, 88, 60
2, 13920, Note_on_c, 0, 85, 60
2, 13920, Note_on_c, 0, 79, 60
2, 13920, Note_on_c, 0, 76, 60
2, 14039, Note_on_c, 0, 76, 0
2, 14039, Note_on_c, 0, 88, 0
2, 14039, Note_on_c, 0, 85, 0
2, 14039, Note_on_c, 0, 79, 0
2, 14040, Note_on_c, 0, 89, 60
2, 14040, Note_on_c, 0, 86, 60
2, 14040, Note_on_c, 0, 77, 60
2, 14159, Note_on_c, 0, 77, 0
2, 14159, Note_on_c, 0, 86, 0
2, 14159, Note_on_c, 0, 89, 0
2, 14280, Note_on_c, 0, 86, 60
2, 14280, Note_on_c, 0, 83, 60
2, 14280, Note_on_c, 0, 77, 60
2, 14280, Note_on_c, 0, 74, 60
2, 14399, Note_on_c, 0, 74, 0
2, 14399, Note_on_c, 0, 86, 0
2, 14399, Note_on_c, 0, 83, 0
2, 14399, Note_on_c, 0, 77, 0
2, 14400, Note_on_c, 0, 84, 60
2, 14400, Note_on_c, 0, 76, 60
2, 14400, Note_on_c, 0, 72, 60
2, 14519, Note_on_c, 0, 72, 0
2, 14519, Note_on_c, 0, 76, 0
2, 14519, Note_on_c, 0, 84, 0
2, 14640, Note_on_c, 0, 64, 60
2, 14640, Note_on_c, 0, 67, 60
2, 14759, Note_on_c, 0, 67, 0
2, 14759, Note_on_c, 0, 64, 0
2, 14760, Note_on_c, 0, 64, 60
2, 14760, Note_on_c, 0, 72, 60
2, 14997, Note_on_c, 0, 72, 0
2, 14997, Note_on_c, 0, 64, 0
2, 15000, Note_on_c, 0, 69, 60
2, 15000, Note_on_c, 0, 74, 60
2, 15119, Note_on_c, 0, 74, 0
2, 15119, Note_on_c, 0, 69, 0
2, 15120, Note_on_c, 0, 68, 60
2, 15120, Note_on_c, 0, 76, 60
2, 15239, Note_on_c, 0, 76, 0
2, 15239, Note_on_c, 0, 68, 0
2, 15360, Note_on_c, 0, 76, 60
2, 15360, Note_on_c, 0, 73, 60
2, 15360, Note_on_c, 0, 67, 60
2, 15479, Note_on_c, 0, 67, 0
2, 15479, Note_on_c, 0, 73, 0
2, 15479, Note_on_c, 0, 76, 0
2, 15480, Note_on_c, 0, 65, 60
2, 15480, Note_on_c, 0, 74, 60
2, 15480, Note_on_c, 0, 77, 60
2, 15599, Note_on_c, 0, 77, 0
2, 15599, Note_on_c, 0, 74, 0
2, 15599, Note_on_c, 0, 65, 0
2, 15720, Note_on_c, 0, 65, 60
2, 15720, Note_on_c, 0, 71, 60
2, 15720, Note_on_c, 0, 74, 60
2, 15839, Note_on_c, 0, 74, 0
2, 15839, Note_on_c, 0, 71, 0
2, 15839, Note_on_c, 0, 65, 0
2, 15840, Note_on_c, 0, 64, 60
2, 15840, Note_on_c, 0, 72, 60
2, 15840, Note_on_c, 0, 76, 60
2, 15959, Note_on_c, 0, 76, 0
2, 15959, Note_on_c, 0, 72, 0
2, 15959, Note_on_c, 0, 64, 0
2, 16080, Note_on_c, 0, 67, 60
2, 16080, Note_on_c, 0, 76, 60
2, 16080, Note_on_c, 0, 79, 60
2, 16199, Note_on_c, 0, 79, 0
2, 16199, Note_on_c, 0, 76, 0
2, 16199, Note_on_c, 0, 67, 0
2, 16200, Note_on_c, 0, 72, 60
2, 16200, Note_on_c, 0, 76, 60
2, 16200, Note_on_c, 0, 84, 60
2, 16437, Note_on_c, 0, 84, 0
2, 16437, Note_on_c, 0, 76, 0
2, 16437, Note_on_c, 0, 72, 0
2, 16440, Note_on_c, 0, 74, 60
2, 16440, Note_on_c, 0, 86, 60
2, 16440, Note_on_c, 0, 81, 60
2, 16559, Note_on_c, 0, 81, 0
2, 16559, Note_on_c, 0, 86, 0
2, 16559, Note_on_c, 0, 74, 0
2, 16560, Note_on_c, 0, 88, 60
2, 16560, Note_on_c, 0, 80, 60
2, 16560, Note_on_c, 0, 76, 60
2, 16679, Note_on_c, 0, 76, 0
2, 16679, Note_on_c, 0, 80, 0
2, 16679, Note_on_c, 0, 88, 0
2, 16800, Note_on_c, 0, 88, 60
2, 16800, Note_on_c, 0, 85, 60
2, 16800, Note_on_c, 0, 79, 60
2, 16800, Note_on_c, 0, 76, 60
2, 16919, Note_on_c, 0, 76, 0
2, 16919, Note_on_c, 0, 88, 0
2, 16919, Note_on_c, 0, 85, 0
2, 16919, Note_on_c, 0, 79, 0
2, 16920, Note_on_c, 0, 89, 60
2, 16920, Note_on_c, 0, 86, 60
2, 16920, Note_on_c, 0, 77, 60
2, 17039, Note_on_c, 0, 77, 0
2, 17039, Note_on_c, 0, 86, 0
2, 17039, Note_on_c, 0, 89, 0
2, 17160, Note_on_c, 0, 86, 60
2, 17160, Note_on_c, 0, 83, 60
2, 17160, Note_on_c, 0, 77, 60
2, 17160, Note_on_c, 0, 74, 60
2, 17279, Note_on_c, 0, 74, 0
2, 17279, Note_on_c, 0, 86, 0
2, 17279, Note_on_c, 0, 83, 0
2, 17279, Note_on_c, 0, 77, 0
2, 17280, Note_on_c, 0, 84, 60
2, 17280, Note_on_c, 0, 76, 60
2, 17280, Note_on_c, 0, 72, 60
2, 17399, Note_on_c, 0, 72, 0
2, 17399, Note_on_c, 0, 76, 0
2, 17399, Note_on_c, 0, 84, 0
2, 17580, Note_on_c, 0, 55, 100
2, 17580, Note_on_c, 0, 67, 100
2, 17641, Note_on_c, 0, 67, 0
2, 17641, Note_on_c, 0, 55, 0
2, 17760, Note_on_c, 0, 67, 100
2, 17760, Note_on_c, 0, 79, 100
2, 17879, Note_on_c, 0, 79, 0
2, 17879, Note_on_c, 0, 67, 0
2, 17940, Note_on_c, 0, 57, 100
2, 17940, Note_on_c, 0, 69, 100
2, 18001, Note_on_c, 0, 69, 0
2, 18001, Note_on_c, 0, 57, 0
2, 18120, Note_on_c, 0, 69, 100
2, 18120, Note_on_c, 0, 81, 100
2, 18239, Note_on_c, 0, 81, 0
2, 18239, Note_on_c, 0, 69, 0
2, 18300, Note_on_c, 0, 59, 100
2, 18300, Note_on_c, 0, 71, 100
2, 18361, Note_on_c, 0, 71, 0
2, 18361, Note_on_c, 0, 59, 0
2, 18480, Note_on_c, 0, 71, 100
2, 18480, Note_on_c, 0, 83, 100
2, 18599, Note_on_c, 0, 83, 0
2, 18599, Note_on_c, 0, 71, 0
2, 18660, Note_on_c, 0, 60, 100
2, 18660, Note_on_c, 0, 72, 100
2, 18721, Note_on_c, 0, 72, 0
2, 18721, Note_on_c, 0, 60, 0
2, 18840, Note_on_c, 0, 72, 100
2, 18840, Note_on_c, 0, 84, 100
2, 18959, Note_on_c, 0, 84, 0
2, 18959, Note_on_c, 0, 72, 0
2, 18960, Note_on_c, 0, 64, 60
2, 18960, Note_on_c, 0, 67, 60
2, 19079, Note_on_c, 0, 67, 0
2, 19079, Note_on_c, 0, 64, 0
2, 19080, Note_on_c, 0, 64, 60
2, 19080, Note_on_c, 0, 72, 60
2, 19317, Note_on_c, 0, 72, 0
2, 19317, Note_on_c, 0, 64, 0
2, 19320, Note_on_c, 0, 69, 60
2, 19320, Note_on_c, 0, 74, 60
2, 19439, Note_on_c, 0, 74, 0
2, 19439, Note_on_c, 0, 69, 0
2, 19440, Note_on_c, 0, 68, 60
2, 19440, Note_on_c, 0, 76, 60
2, 19559, Note_on_c, 0, 76, 0
2, 19559, Note_on_c, 0, 68, 0
2, 19680, Note_on_c, 0, 76, 60
2, 19680, Note_on_c, 0, 73, 60
2, 19680, Note_on_c, 0, 67, 60
2, 19799, Note_on_c, 0, 67, 0
2, 19799, Note_on_c, 0, 73, 0
2, 19799, Note_on_c, 0, 76, 0
2, 19800, Note_on_c, 0, 65, 60
2, 19800, Note_on_c, 0, 74, 60
2, 19800, Note_on_c, 0, 77, 60
2, 19919, Note_on_c, 0, 77, 0
2, 19919, Note_on_c, 0, 74, 0
2, 19919, Note_on_c, 0, 65, 0
2, 20040, Note_on_c, 0, 65, 60
2, 20040, Note_on_c, 0, 71, 60
2, 20040, Note_on_c, 0, 74, 60
2, 20159, Note_on_c, 0, 74, 0
2, 20159, Note_on_c, 0, 71, 0
2, 20159, Note_on_c, 0, 65, 0
2, 20160, Note_on_c, 0, 64, 60
2, 20160, Note_on_c, 0, 72, 60
2, 20160, Note_on_c, 0, 76, 60
2, 20279, Note_on_c, 0, 76, 0
2, 20279, Note_on_c, 0, 72, 0
2, 20279, Note_on_c, 0, 64, 0
2, 20400, Note_on_c, 0, 67, 60
2, 20400, Note_on_c, 0, 76, 60
2, 20400, Note_on_c, 0, 79, 60
2, 20519, Note_on_c, 0, 79, 0
2, 20519, Note_on_c, 0, 76, 0
2, 20519, Note_on_c, 0, 67, 0
2, 20520, Note_on_c, 0, 72, 60
2, 20520, Note_on_c, 0, 76, 60
2, 20520, Note_on_c, 0, 84, 60
2, 20757, Note_on_c, 0, 84, 0
2, 20757, Note_on_c, 0, 76, 0
2, 20757, Note_on_c, 0, 72, 0
2, 20760, Note_on_c, 0, 74, 60
2, 20760, Note_on_c, 0, 86, 60
2, 20760, Note_on_c, 0, 81, 60
2, 20879, Note_on_c, 0, 81, 0
2, 20879, Note_on_c, 0, 86, 0
2, 20879, Note_on_c, 0, 74, 0
2, 20880, Note_on_c, 0, 88, 60
2, 20880, Note_on_c, 0, 80, 60
2, 20880, Note_on_c, 0, 76, 60
2, 20999, Note_on_c, 0, 76, 0
2, 20999, Note_on_c, 0, 80, 0
2, 20999, Note_on_c, 0, 88, 0
2, 21120, Note_on_c, 0, 88, 60
2, 21120, Note_on_c, 0, 85, 60
2, 21120, Note_on_c, 0, 79, 60
2, 21120, Note_on_c, 0, 76, 60
2, 21239, Note_on_c, 0, 76, 0
2, 21239, Note_on_c, 0, 88, 0
2, 21239, Note_on_c, 0, 85, 0
2, 21239, Note_on_c, 0, 79, 0
2, 21240, Note_on_c, 0, 89, 60
2, 21240, Note_on_c, 0, 86, 60
2, 21240, Note_on_c, 0, 77, 60
2, 21359, Note_on_c, 0, 77, 0
2, 21359, Note_on_c, 0, 86, 0
2, 21359, Note_on_c, 0, 89, 0
2, 21480, Note_on_c, 0, 86, 60
2, 21480, Note_on_c, 0, 83, 60
2, 21480, Note_on_c, 0, 77, 60
2, 21480, Note_on_c, 0, 74, 60
2, 21599, Note_on_c, 0, 74, 0
2, 21599, Note_on_c, 0, 86, 0
2, 21599, Note_on_c, 0, 83, 0
2, 21599, Note_on_c, 0, 77, 0
2, 21600, Note_on_c, 0, 84, 60
2, 21600, Note_on_c, 0, 76, 60
2, 21600, Note_on_c, 0, 72, 60
2, 21719, Note_on_c, 0, 72, 0
2, 21719, Note_on_c, 0, 76, 0
2, 21719, Note_on_c, 0, 84, 0
2, 21900, Note_on_c, 0, 55, 100
2, 21900, Note_on_c, 0, 67, 100
2, 21961, Note_on_c, 0, 67, 0
2, 21961, Note_on_c, 0, 55, 0
2, 22080, Note_on_c, 0, 67, 100
2, 22080, Note_on_c, 0, 79, 100
2, 22199, Note_on_c, 0, 79, 0
2, 22199, Note_on_c, 0, 67, 0
2, 22260, Note_on_c, 0, 57, 100
2, 22260, Note_on_c, 0, 69, 100
2, 22321, Note_on_c, 0, 69, 0
2, 22321, Note_on_c, 0, 57, 0
2, 22440, Note_on_c, 0, 69, 100
2, 22440, Note_on_c, 0, 81, 100
2, 22559, Note_on_c, 0, 81, 0
2, 22559, Note_on_c, 0, 69, 0
2, 22620, Note_on_c, 0, 59, 100
2, 22620, Note_on_c, 0, 71, 100
2, 22681, Note_on_c, 0, 71, 0
2, 22681, Note_on_c, 0, 59, 0
2, 22800, Note_on_c, 0, 71, 100
2, 22800, Note_on_c, 0, 83, 100
2, 22919, Note_on_c, 0, 83, 0
2, 22919, Note_on_c, 0, 71, 0
2, 22980, Note_on_c, 0, 60, 100
2, 22980, Note_on_c, 0, 72, 100
2, 23041, Note_on_c, 0, 72, 0
2, 23041, Note_on_c, 0, 60, 0
2, 23160, Note_on_c, 0, 72, 100
2, 23160, Note_on_c, 0, 84, 100
2, 23279, Note_on_c, 0, 84, 0
2, 23279, Note_on_c, 0, 72, 0
2, 23280, Note_on_c, 0, 64, 60
2, 23280, Note_on_c, 0, 67, 60
2, 23399, Note_on_c, 0, 67, 0
2, 23399, Note_on_c, 0, 64, 0
2, 23400, Note_on_c, 0, 64, 60
2, 23400, Note_on_c, 0, 72, 60
2, 23637, Note_on_c, 0, 72, 0
2, 23637, Note_on_c, 0, 64, 0
2, 23640, Note_on_c, 0, 69, 60
2, 23640, Note_on_c, 0, 74, 60
2, 23759, Note_on_c, 0, 74, 0
2, 23759, Note_on_c, 0, 69, 0
2, 23760, Note_on_c, 0, 68, 60
2, 23760, Note_on_c, 0, 76, 60
2, 23879, Note_on_c, 0, 76, 0
2, 23879, Note_on_c, 0, 68, 0
2, 24000, Note_on_c, 0, 76, 60
2, 24000, Note_on_c, 0, 73, 60
2, 24000, Note_on_c, 0, 67, 60
2, 24119, Note_on_c, 0, 67, 0
2, 24119, Note_on_c, 0, 73, 0
2, 24119, Note_on_c, 0, 76, 0
2, 24120, Note_on_c, 0, 65, 60
2, 24120, Note_on_c, 0, 74, 60
2, 24120, Note_on_c, 0, 77, 60
2, 24239, Note_on_c, 0, 77, 0
2, 24239, Note_on_c, 0, 74, 0
2, 24239, Note_on_c, 0, 65, 0
2, 24360, Note_on_c, 0, 65, 60
2, 24360, Note_on_c, 0, 71, 60
2, 24360, Note_on_c, 0, 74, 60
2, 24479, Note_on_c, 0, 74, 0
2, 24479, Note_on_c, 0, 71, 0
2, 24479, Note_on_c, 0, 65, 0
2, 24480, Note_on_c, 0, 64, 60
2, 24480, Note_on_c, 0, 72, 60
2, 24480, Note_on_c, 0, 76, 60
2, 24599, Note_on_c, 0, 76, 0
2, 24599, Note_on_c, 0, 72, 0
2, 24599, Note_on_c, 0, 64, 0
2, 24720, Note_on_c, 0, 67, 60
2, 24720, Note_on_c, 0, 76, 60
2, 24720, Note_on_c, 0, 79, 60
2, 24839, Note_on_c, 0, 79, 0
2, 24839, Note_on_c, 0, 76, 0
2, 24839, Note_on_c, 0, 67, 0
2, 24840, Note_on_c, 0, 72, 60
2, 24840, Note_on_c, 0, 76, 60
2, 24840, Note_on_c, 0, 84, 60
2, 25077, Note_on_c, 0, 84, 0
2, 25077, Note_on_c, 0, 76, 0
2, 25077, Note_on_c, 0, 72, 0
2, 25080, Note_on_c, 0, 74, 60
2, 25080, Note_on_c, 0, 86, 60
2, 25080, Note_on_c, 0, 81, 60
2, 25199, Note_on_c, 0, 81, 0
2, 25199, Note_on_c, 0, 86, 0
2, 25199, Note_on_c, 0, 74, 0
2, 25200, Note_on_c, 0, 88, 60
2, 25200, Note_on_c, 0, 80, 60
2, 25200, Note_on_c, 0, 76, 60
2, 25319, Note_on_c, 0, 76, 0
2, 25319, Note_on_c, 0, 80, 0
2, 25319, Note_on_c, 0, 88, 0
2, 25440, Note_on_c, 0, 88, 60
2, 25440, Note_on_c, 0, 85, 60
2, 25440, Note_on_c, 0, 79, 60
2, 25440, Note_on_c, 0, 76, 60
2, 25559, Note_on_c, 0, 76, 0
2, 25559, Note_on_c, 0, 88, 0
2, 25559, Note_on_c, 0, 85, 0
2, 25559, Note_on_c, 0, 79, 0
2, 25560, Note_on_c, 0, 89, 60
2, 25560, Note_on_c, 0, 86, 60
2, 25560, Note_on_c, 0, 77, 60
2, 25679, Note_on_c, 0, 77, 0
2, 25679, Note_on_c, 0, 86, 0
2, 25679, Note_on_c, 0, 89, 0
2, 25800, Note_on_c, 0, 86, 60
2, 25800, Note_on_c, 0, 83, 60
2, 25800, Note_on_c, 0, 77, 60
2, 25800, Note_on_c, 0, 74, 60
2, 25919, Note_on_c, 0, 74, 0
2, 25919, Note_on_c, 0, 86, 0
2, 25919, Note_on_c, 0, 83, 0
2, 25919, Note_on_c, 0, 77, 0
2, 25920, Note_on_c, 0, 84, 60
2, 25920, Note_on_c, 0, 76, 60
2, 25920, Note_on_c, 0, 72, 60
2, 26039, Note_on_c, 0, 72, 0
2, 26039, Note_on_c, 0, 76, 0
2, 26039, Note_on_c, 0, 84, 0
2, 26280, Note_on_c, 0, 89, 100
2, 26280, Note_on_c, 0, 86, 100
2, 26280, Note_on_c, 0, 77, 100
2, 26399, Note_on_c, 0, 77, 0
2, 26399, Note_on_c, 0, 86, 0
2, 26399, Note_on_c, 0, 89, 0
2, 26520, Note_on_c, 0, 71, 104
2, 26520, Note_on_c, 0, 74, 104
2, 26639, Note_on_c, 0, 74, 0
2, 26639, Note_on_c, 0, 71, 0
2, 26640, Note_on_c, 0, 74, 106
2, 26640, Note_on_c, 0, 77, 106
2, 26759, Note_on_c, 0, 77, 0
2, 26759, Note_on_c, 0, 74, 0
2, 26880, Note_on_c, 0, 59, 111
2, 26880, Note_on_c, 0, 62, 111
2, 26999, Note_on_c, 0, 62, 0
2, 26999, Note_on_c, 0, 59, 0
2, 27000, Note_on_c, 0, 62, 113
2, 27000, Note_on_c, 0, 65, 113
2, 27119, Note_on_c, 0, 65, 0
2, 27119, Note_on_c, 0, 62, 0
2, 27600, Note_on_c, 0, 84, 67
2, 27719, Note_on_c, 0, 84, 0
2, 27720, Note_on_c, 0, 77, 70
2, 27957, Note_on_c, 0, 77, 0
2, 27960, Note_on_c, 0, 81, 76
2, 28079, Note_on_c, 0, 81, 0
2, 28080, Note_on_c, 0, 85, 79
2, 28317, Note_on_c, 0, 85, 0
2, 28320, Note_on_c, 0, 86, 85
2, 28440, Note_on_c, 0, 76, 88
2, 28560, Note_on_c, 0, 84, 91
2, 28676, Note_on_c, 0, 86, 0
2, 28677, Note_on_c, 0, 76, 0
2, 28680, Note_on_c, 0, 74, 94
2, 28797, Note_on_c, 0, 84, 0
2, 28800, Note_on_c, 0, 83, 97
2, 28919, Note_on_c, 0, 83, 0
2, 28920, Note_on_c, 0, 84, 100
2, 28920, Note_on_c, 0, 72, 100
2, 28981, Note_on_c, 0, 72, 0
2, 28981, Note_on_c, 0, 84, 0
2, 29036, Note_on_c, 0, 74, 0
2, 29040, Note_on_c, 0, 62, 103
2, 29160, Note_on_c, 0, 71, 65
2, 29279, Note_on_c, 0, 71, 0
2, 29280, Note_on_c, 0, 60, 64
2, 29280, Note_on_c, 0, 72, 64
2, 29341, Note_on_c, 0, 72, 0
2, 29341, Note_on_c, 0, 60, 0
2, 29396, Note_on_c, 0, 62, 0
2, 30120, Note_on_c, 0, 71, 50
2, 30120, Note_on_c, 0, 62, 50
2, 30239, Note_on_c, 0, 62, 0
2, 30239, Note_on_c, 0, 71, 0
2, 30240, Note_on_c, 0, 64, 48
2, 30240, Note_on_c, 0, 72, 48
2, 30359, Note_on_c, 0, 72, 0
2, 30359, Note_on_c, 0, 64, 0
2, 30480, Note_on_c, 0, 67, 44
2, 30480, Note_on_c, 0, 74, 44
2, 30480, Note_on_c, 0, 83, 44
2, 30599, Note_on_c, 0, 83, 0
2, 30599, Note_on_c, 0, 74, 0
2, 30599, Note_on_c, 0, 67, 0
2, 30600, Note_on_c, 0, 60, 42
2, 30600, Note_on_c, 0, 84, 42
2, 30600, Note_on_c, 0, 76, 42
2, 30719, Note_on_c, 0, 76, 0
2, 30719, Note_on_c, 0, 84, 0
2, 30719, Note_on_c, 0, 60, 0
2, 30719, End_track
3, 0, Start_track
3, 0, MIDI_port, 0
3, 0, Control_c, 1, 0, 0
3, 0, Control_c, 1, 32, 0
3, 0, Program_c, 1, 0
3, 0, Control_c, 1, 7, 113
3, 240, Note_on_c, 1, 55, 60
3, 359, Note_on_c, 1, 55, 0
3, 360, Note_on_c, 1, 48, 60
3, 360, Note_on_c, 1, 36, 60
3, 597, Note_on_c, 1, 48, 0
3, 600, Note_on_c, 1, 52, 60
3, 719, Note_on_c, 1, 52, 0
3, 720, Note_on_c, 1, 56, 60
3, 957, Note_on_c, 1, 56, 0
3, 960, Note_on_c, 1, 57, 60
3, 1073, Note_on_c, 1, 36, 0
3, 1080, Note_on_c, 1, 35, 60
3, 1200, Note_on_c, 1, 55, 60
3, 1316, Note_on_c, 1, 57, 0
3, 1317, Note_on_c, 1, 35, 0
3, 1320, Note_on_c, 1, 45, 60
3, 1437, Note_on_c, 1, 55, 0
3, 1440, Note_on_c, 1, 54, 60
3, 1559, Note_on_c, 1, 54, 0
3, 1560, Note_on_c, 1, 43, 60
3, 1560, Note_on_c, 1, 55, 60
3, 1676, Note_on_c, 1, 45, 0
3, 2036, Note_on_c, 1, 55, 0
3, 2036, Note_on_c, 1, 43, 0
3, 2160, Note_on_c, 1, 43, 100
3, 2160, Note_on_c, 1, 55, 100
3, 2640, Note_on_c, 1, 43, 100
3, 2640, Note_on_c, 1, 55, 100
3, 2759, Note_on_c, 1, 55, 0
3, 2759, Note_on_c, 1, 43, 0
3, 2760, Note_on_c, 1, 55, 100
3, 2760, Note_on_c, 1, 43, 100
3, 2873, Note_on_c, 1, 43, 0
3, 2873, Note_on_c, 1, 55, 0
3, 2879, Note_on_c, 1, 55, 0
3, 2879, Note_on_c, 1, 43, 0
3, 2880, Note_on_c, 1, 65, 100
3, 2880, Note_on_c, 1, 55, 100
3, 2999, Note_on_c, 1, 55, 0
3, 2999, Note_on_c, 1, 65, 0
3, 3000, Note_on_c, 1, 64, 100
3, 3000, Note_on_c, 1, 60, 100
3, 3061, Note_on_c, 1, 60, 0
3, 3061, Note_on_c, 1, 64, 0
3, 3120, Note_on_c, 1, 55, 60
3, 3239, Note_on_c, 1, 55, 0
3, 3240, Note_on_c, 1, 48, 60
3, 3240, Note_on_c, 1, 36, 60
3, 3477, Note_on_c, 1, 48, 0
3, 3480, Note_on_c, 1, 52, 60
3, 3599, Note_on_c, 1, 52, 0
3, 3600, Note_on_c, 1, 56, 60
3, 3837, Note_on_c, 1, 56, 0
3, 3840, Note_on_c, 1, 57, 60
3, 3953, Note_on_c, 1, 36, 0
3, 3960, Note_on_c, 1, 35, 60
3, 4080, Note_on_c, 1, 55, 60
3, 4196, Note_on_c, 1, 57, 0
3, 4197, Note_on_c, 1, 35, 0
3, 4200, Note_on_c, 1, 45, 60
3, 4317, Note_on_c, 1, 55, 0
3, 4320, Note_on_c, 1, 54, 60
3, 4439, Note_on_c, 1, 54, 0
3, 4440, Note_on_c, 1, 55, 60
3, 4440, Note_on_c, 1, 43, 60
3, 4556, Note_on_c, 1, 45, 0
3, 4916, Note_on_c, 1, 43, 0
3, 4916, Note_on_c, 1, 55, 0
3, 5040, Note_on_c, 1, 43, 100
3, 5040, Note_on_c, 1, 55, 100
3, 5520, Note_on_c, 1, 55, 100
3, 5520, Note_on_c, 1, 43, 100
3, 5639, Note_on_c, 1, 55, 0
3, 5639, Note_on_c, 1, 43, 0
3, 5640, Note_on_c, 1, 55, 100
3, 5640, Note_on_c, 1, 43, 100
3, 5753, Note_on_c, 1, 55, 0
3, 5753, Note_on_c, 1, 43, 0
3, 5759, Note_on_c, 1, 55, 0
3, 5759, Note_on_c, 1, 43, 0
3, 5760, Note_on_c, 1, 65, 100
3, 5760, Note_on_c, 1, 55, 100
3, 5879, Note_on_c, 1, 55, 0
3, 5879, Note_on_c, 1, 65, 0
3, 5880, Note_on_c, 1, 64, 100
3, 5880, Note_on_c, 1, 60, 100
3, 5941, Note_on_c, 1, 60, 0
3, 5941, Note_on_c, 1, 64, 0
3, 6600, Note_on_c, 1, 65, 60
3, 6719, Note_on_c, 1, 65, 0
3, 6720, Note_on_c, 1, 62, 60
3, 6839, Note_on_c, 1, 62, 0
3, 6840, Note_on_c, 1, 64, 60
3, 6959, Note_on_c, 1, 64, 0
3, 6960, Note_on_c, 1, 57, 60
3, 7020, Note_on_c, 1, 59, 60
3, 7021, Note_on_c, 1, 57, 0
3, 7080, Note_on_c, 1, 60, 60
3, 7081, Note_on_c, 1, 59, 0
3, 7140, Note_on_c, 1, 62, 60
3, 7141, Note_on_c, 1, 60, 0
3, 7200, Note_on_c, 1, 64, 60
3, 7201, Note_on_c, 1, 62, 0
3, 7319, Note_on_c, 1, 64, 0
3, 7320, Note_on_c, 1, 57, 60
3, 7381, Note_on_c, 1, 57, 0
3, 7440, Note_on_c, 1, 48, 60
3, 7440, Note_on_c, 1, 60, 60
3, 7559, Note_on_c, 1, 60, 0
3, 7559, Note_on_c, 1, 48, 0
3, 7560, Note_on_c, 1, 53, 65
3, 7560, Note_on_c, 1, 41, 65
3, 7797, Note_on_c, 1, 53, 0
3, 7800, Note_on_c, 1, 57, 71
3, 7919, Note_on_c, 1, 57, 0
3, 7920, Note_on_c, 1, 61, 74
3, 8157, Note_on_c, 1, 61, 0
3, 8160, Note_on_c, 1, 62, 80
3, 8273, Note_on_c, 1, 41, 0
3, 8400, Note_on_c, 1, 60, 87
3, 8516, Note_on_c, 1, 62, 0
3, 8520, Note_on_c, 1, 50, 90
3, 8637, Note_on_c, 1, 60, 0
3, 8640, Note_on_c, 1, 59, 93
3, 8759, Note_on_c, 1, 59, 0
3, 8760, Note_on_c, 1, 48, 96
3, 8760, Note_on_c, 1, 60, 96
3, 8821, Note_on_c, 1, 60, 0
3, 8821, Note_on_c, 1, 48, 0
3, 8876, Note_on_c, 1, 50, 0
3, 9480, Note_on_c, 1, 65, 60
3, 9599, Note_on_c, 1, 65, 0
3, 9600, Note_on_c, 1, 62, 60
3, 9719, Note_on_c, 1, 62, 0
3, 9720, Note_on_c, 1, 64, 60
3, 9839, Note_on_c, 1, 64, 0
3, 9840, Note_on_c, 1, 57, 60
3, 9900, Note_on_c, 1, 59, 60
3, 9901, Note_on_c, 1, 57, 0
3, 9960, Note_on_c, 1, 60, 60
3, 9961, Note_on_c, 1, 59, 0
3, 10020, Note_on_c, 1, 62, 60
3, 10021, Note_on_c, 1, 60, 0
3, 10080, Note_on_c, 1, 64, 60
3, 10081, Note_on_c, 1, 62, 0
3, 10199, Note_on_c, 1, 64, 0
3, 10200, Note_on_c, 1, 57, 60
3, 10261, Note_on_c, 1, 57, 0
3, 10320, Note_on_c, 1, 48, 60
3, 10320, Note_on_c, 1, 60, 60
3, 10439, Note_on_c, 1, 60, 0
3, 10439, Note_on_c, 1, 48, 0
3, 10440, Note_on_c, 1, 41, 65
3, 10440, Note_on_c, 1, 53, 65
3, 10677, Note_on_c, 1, 53, 0
3, 10680, Note_on_c, 1, 57, 71
3, 10799, Note_on_c, 1, 57, 0
3, 10800, Note_on_c, 1, 61, 74
3, 11037, Note_on_c, 1, 61, 0
3, 11040, Note_on_c, 1, 62, 80
3, 11153, Note_on_c, 1, 41, 0
3, 11280, Note_on_c, 1, 60, 87
3, 11396, Note_on_c, 1, 62, 0
3, 11400, Note_on_c, 1, 50, 90
3, 11517, Note_on_c, 1, 60, 0
3, 11520, Note_on_c, 1, 59, 93
3, 11639, Note_on_c, 1, 59, 0
3, 11640, Note_on_c, 1, 60, 96
3, 11640, Note_on_c, 1, 48, 96
3, 11701, Note_on_c, 1, 48, 0
3, 11701, Note_on_c, 1, 60, 0
3, 11756, Note_on_c, 1, 50, 0
3, 11760, Note_on_c, 1, 60, 60
3, 11820, Note_on_c, 1, 59, 60
3, 11821, Note_on_c, 1, 60, 0
3, 11880, Note_on_c, 1, 57, 60
3, 11881, Note_on_c, 1, 59, 0
3, 11940, Note_on_c, 1, 60, 60
3, 11941, Note_on_c, 1, 57, 0
3, 12000, Note_on_c, 1, 59, 60
3, 12001, Note_on_c, 1, 60, 0
3, 12060, Note_on_c, 1, 57, 60
3, 12061, Note_on_c, 1, 59, 0
3, 12120, Note_on_c, 1, 55, 60
3, 12121, Note_on_c, 1, 57, 0
3, 12180, Note_on_c, 1, 53, 60
3, 12181, Note_on_c, 1, 55, 0
3, 12240, Note_on_c, 1, 52, 60
3, 12241, Note_on_c, 1, 53, 0
3, 12300, Note_on_c, 1, 51, 60
3, 12301, Note_on_c, 1, 52, 0
3, 12360, Note_on_c, 1, 52, 60
3, 12361, Note_on_c, 1, 51, 0
3, 12420, Note_on_c, 1, 57, 60
3, 12421, Note_on_c, 1, 52, 0
3, 12480, Note_on_c, 1, 56, 60
3, 12481, Note_on_c, 1, 57, 0
3, 12540, Note_on_c, 1, 57, 60
3, 12541, Note_on_c, 1, 56, 0
3, 12600, Note_on_c, 1, 50, 60
3, 12601, Note_on_c, 1, 57, 0
3, 12660, Note_on_c, 1, 49, 60
3, 12661, Note_on_c, 1, 50, 0
3, 12720, Note_on_c, 1, 50, 60
3, 12721, Note_on_c, 1, 49, 0
3, 12780, Note_on_c, 1, 55, 60
3, 12781, Note_on_c, 1, 50, 0
3, 12840, Note_on_c, 1, 54, 60
3, 12841, Note_on_c, 1, 55, 0
3, 12900, Note_on_c, 1, 55, 60
3, 12901, Note_on_c, 1, 54, 0
3, 12960, Note_on_c, 1, 48, 60
3, 12961, Note_on_c, 1, 55, 0
3, 13020, Note_on_c, 1, 50, 60
3, 13021, Note_on_c, 1, 48, 0
3, 13080, Note_on_c, 1, 52, 60
3, 13081, Note_on_c, 1, 50, 0
3, 13140, Note_on_c, 1, 50, 60
3, 13141, Note_on_c, 1, 52, 0
3, 13200, Note_on_c, 1, 48, 60
3, 13201, Note_on_c, 1, 50, 0
3, 13260, Note_on_c, 1, 47, 60
3, 13261, Note_on_c, 1, 48, 0
3, 13320, Note_on_c, 1, 45, 60
3, 13321, Note_on_c, 1, 47, 0
3, 13380, Note_on_c, 1, 47, 60
3, 13381, Note_on_c, 1, 45, 0
3, 13440, Note_on_c, 1, 47, 60
3, 13441, Note_on_c, 1, 47, 0
3, 13500, Note_on_c, 1, 45, 60
3, 13501, Note_on_c, 1, 47, 0
3, 13560, Note_on_c, 1, 43, 60
3, 13561, Note_on_c, 1, 45, 0
3, 13620, Note_on_c, 1, 41, 60
3, 13621, Note_on_c, 1, 43, 0
3, 13680, Note_on_c, 1, 40, 60
3, 13681, Note_on_c, 1, 41, 0
3, 13740, Note_on_c, 1, 39, 60
3, 13741, Note_on_c, 1, 40, 0
3, 13800, Note_on_c, 1, 40, 60
3, 13801, Note_on_c, 1, 39, 0
3, 13860, Note_on_c, 1, 45, 60
3, 13861, Note_on_c, 1, 40, 0
3, 13920, Note_on_c, 1, 44, 60
3, 13921, Note_on_c, 1, 45, 0
3, 13980, Note_on_c, 1, 45, 60
3, 13981, Note_on_c, 1, 44, 0
3, 14040, Note_on_c, 1, 38, 60
3, 14041, Note_on_c, 1, 45, 0
3, 14100, Note_on_c, 1, 37, 60
3, 14101, Note_on_c, 1, 38, 0
3, 14160, Note_on_c, 1, 38, 60
3, 14161, Note_on_c, 1, 37, 0
3, 14220, Note_on_c, 1, 43, 60
3, 14221, Note_on_c, 1, 38, 0
3, 14280, Note_on_c, 1, 42, 60
3, 14281, Note_on_c, 1, 43, 0
3, 14340, Note_on_c, 1, 43, 60
3, 14341, Note_on_c, 1, 42, 0
3, 14400, Note_on_c, 1, 48, 60
3, 14401, Note_on_c, 1, 43, 0
3, 14460, Note_on_c, 1, 47, 60
3, 14461, Note_on_c, 1, 48, 0
3, 14520, Note_on_c, 1, 48, 60
3, 14521, Note_on_c, 1, 47, 0
3, 14639, Note_on_c, 1, 48, 0
3, 14640, Note_on_c, 1, 60, 60
3, 14700, Note_on_c, 1, 59, 60
3, 14701, Note_on_c, 1, 60, 0
3, 14760, Note_on_c, 1, 57, 60
3, 14761, Note_on_c, 1, 59, 0
3, 14820, Note_on_c, 1, 60, 60
3, 14821, Note_on_c, 1, 57, 0
3, 14880, Note_on_c, 1, 59, 60
3, 14881, Note_on_c, 1, 60, 0
3, 14940, Note_on_c, 1, 57, 60
3, 14941, Note_on_c, 1, 59, 0
3, 15000, Note_on_c, 1, 55, 60
3, 15001, Note_on_c, 1, 57, 0
3, 15060, Note_on_c, 1, 53, 60
3, 15061, Note_on_c, 1, 55, 0
3, 15120, Note_on_c, 1, 52, 60
3, 15121, Note_on_c, 1, 53, 0
3, 15180, Note_on_c, 1, 51, 60
3, 15181, Note_on_c, 1, 52, 0
3, 15240, Note_on_c, 1, 52, 60
3, 15241, Note_on_c, 1, 51, 0
3, 15300, Note_on_c, 1, 57, 60
3, 15301, Note_on_c, 1, 52, 0
3, 15360, Note_on_c, 1, 56, 60
3, 15361, Note_on_c, 1, 57, 0
3, 15420, Note_on_c, 1, 57, 60
3, 15421, Note_on_c, 1, 56, 0
3, 15480, Note_on_c, 1, 50, 60
3, 15481, Note_on_c, 1, 57, 0
3, 15540, Note_on_c, 1, 49, 60
3, 15541, Note_on_c, 1, 50, 0
3, 15600, Note_on_c, 1, 50, 60
3, 15601, Note_on_c, 1, 49, 0
3, 15660, Note_on_c, 1, 55, 60
3, 15661, Note_on_c, 1, 50, 0
3, 15720, Note_on_c, 1, 54, 60
3, 15721, Note_on_c, 1, 55, 0
3, 15780, Note_on_c, 1, 55, 60
3, 15781, Note_on_c, 1, 54, 0
3, 15840, Note_on_c, 1, 48, 60
3, 15841, Note_on_c, 1, 55, 0
3, 15900, Note_on_c, 1, 50, 60
3, 15901, Note_on_c, 1, 48, 0
3, 15960, Note_on_c, 1, 52, 60
3, 15961, Note_on_c, 1, 50, 0
3, 16020, Note_on_c, 1, 50, 60
3, 16021, Note_on_c, 1, 52, 0
3, 16080, Note_on_c, 1, 48, 60
3, 16081, Note_on_c, 1, 50, 0
3, 16140, Note_on_c, 1, 47, 60
3, 16141, Note_on_c, 1, 48, 0
3, 16200, Note_on_c, 1, 45, 60
3, 16201, Note_on_c, 1, 47, 0
3, 16260, Note_on_c, 1, 47, 60
3, 16261, Note_on_c, 1, 45, 0
3, 16320, Note_on_c, 1, 47, 60
3, 16321, Note_on_c, 1, 47, 0
3, 16380, Note_on_c, 1, 45, 60
3, 16381, Note_on_c, 1, 47, 0
3, 16440, Note_on_c, 1, 43, 60
3, 16441, Note_on_c, 1, 45, 0
3, 16500, Note_on_c, 1, 41, 60
3, 16501, Note_on_c, 1, 43, 0
3, 16560, Note_on_c, 1, 40, 60
3, 16561, Note_on_c, 1, 41, 0
3, 16620, Note_on_c, 1, 39, 60
3, 16621, Note_on_c, 1, 40, 0
3, 16680, Note_on_c, 1, 40, 60
3, 16681, Note_on_c, 1, 39, 0
3, 16740, Note_on_c, 1, 45, 60
3, 16741, Note_on_c, 1, 40, 0
3, 16800, Note_on_c, 1, 44, 60
3, 16801, Note_on_c, 1, 45, 0
3, 16860, Note_on_c, 1, 45, 60
3, 16861, Note_on_c, 1, 44, 0
3, 16920, Note_on_c, 1, 38, 60
3, 16921, Note_on_c, 1, 45, 0
3, 16980, Note_on_c, 1, 37, 60
3, 16981, Note_on_c, 1, 38, 0
3, 17040, Note_on_c, 1, 38, 60
3, 17041, Note_on_c, 1, 37, 0
3, 17100, Note_on_c, 1, 43, 60
3, 17101, Note_on_c, 1, 38, 0
3, 17160, Note_on_c, 1, 42, 60
3, 17161, Note_on_c, 1, 43, 0
3, 17220, Note_on_c, 1, 43, 60
3, 17221, Note_on_c, 1, 42, 0
3, 17280, Note_on_c, 1, 48, 60
3, 17281, Note_on_c, 1, 43, 0
3, 17340, Note_on_c, 1, 47, 60
3, 17341, Note_on_c, 1, 48, 0
3, 17400, Note_on_c, 1, 48, 60
3, 17401, Note_on_c, 1, 47, 0
3, 17519, Note_on_c, 1, 48, 0
3, 17520, Note_on_c, 1, 43, 100
3, 17520, Note_on_c, 1, 31, 100
3, 17639, Note_on_c, 1, 31, 0
3, 17639, Note_on_c, 1, 43, 0
3, 17640, Note_on_c, 1, 55, 100
3, 17640, Note_on_c, 1, 43, 100
3, 17759, Note_on_c, 1, 43, 0
3, 17759, Note_on_c, 1, 55, 0
3, 17880, Note_on_c, 1, 45, 100
3, 17880, Note_on_c, 1, 33, 100
3, 17999, Note_on_c, 1, 33, 0
3, 17999, Note_on_c, 1, 45, 0
3, 18000, Note_on_c, 1, 45, 100
3, 18000, Note_on_c, 1, 57, 100
3, 18119, Note_on_c, 1, 57, 0
3, 18119, Note_on_c, 1, 45, 0
3, 18240, Note_on_c, 1, 35, 100
3, 18240, Note_on_c, 1, 47, 100
3, 18359, Note_on_c, 1, 47, 0
3, 18359, Note_on_c, 1, 35, 0
3, 18360, Note_on_c, 1, 47, 100
3, 18360, Note_on_c, 1, 59, 100
3, 18479, Note_on_c, 1, 59, 0
3, 18479, Note_on_c, 1, 47, 0
3, 18600, Note_on_c, 1, 36, 100
3, 18600, Note_on_c, 1, 48, 100
3, 18719, Note_on_c, 1, 48, 0
3, 18719, Note_on_c, 1, 36, 0
3, 18720, Note_on_c, 1, 48, 100
3, 18720, Note_on_c, 1, 60, 100
3, 18839, Note_on_c, 1, 60, 0
3, 18839, Note_on_c, 1, 48, 0
3, 18960, Note_on_c, 1, 60, 100
3, 19020, Note_on_c, 1, 59, 100
3, 19021, Note_on_c, 1, 60, 0
3, 19080, Note_on_c, 1, 57, 60
3, 19081, Note_on_c, 1, 59, 0
3, 19140, Note_on_c, 1, 60, 60
3, 19141, Note_on_c, 1, 57, 0
3, 19200, Note_on_c, 1, 59, 60
3, 19201, Note_on_c, 1, 60, 0
3, 19260, Note_on_c, 1, 57, 60
3, 19261, Note_on_c, 1, 59, 0
3, 19320, Note_on_c, 1, 55, 60
3, 19321, Note_on_c, 1, 57, 0
3, 19380, Note_on_c, 1, 53, 60
3, 19381, Note_on_c, 1, 55, 0
3, 19440, Note_on_c, 1, 52, 60
3, 19441, Note_on_c, 1, 53, 0
3, 19500, Note_on_c, 1, 51, 60
3, 19501, Note_on_c, 1, 52, 0
3, 19560, Note_on_c, 1, 52, 60
3, 19561, Note_on_c, 1, 51, 0
3, 19620, Note_on_c, 1, 57, 60
3, 19621, Note_on_c, 1, 52, 0
3, 19680, Note_on_c, 1, 56, 60
3, 19681, Note_on_c, 1, 57, 0
3, 19740, Note_on_c, 1, 57, 60
3, 19741, Note_on_c, 1, 56, 0
3, 19800, Note_on_c, 1, 50, 60
3, 19801, Note_on_c, 1, 57, 0
3, 19860, Note_on_c, 1, 49, 60
3, 19861, Note_on_c, 1, 50, 0
3, 19920, Note_on_c, 1, 50, 60
3, 19921, Note_on_c, 1, 49, 0
3, 19980, Note_on_c, 1, 55, 60
3, 19981, Note_on_c, 1, 50, 0
3, 20040, Note_on_c, 1, 54, 60
3, 20041, Note_on_c, 1, 55, 0
3, 20100, Note_on_c, 1, 55, 60
3, 20101, Note_on_c, 1, 54, 0
3, 20160, Note_on_c, 1, 48, 60
3, 20161, Note_on_c, 1, 55, 0
3, 20220, Note_on_c, 1, 50, 60
3, 20221, Note_on_c, 1, 48, 0
3, 20280, Note_on_c, 1, 52, 60
3, 20281, Note_on_c, 1, 50, 0
3, 20340, Note_on_c, 1, 50, 60
3, 20341, Note_on_c, 1, 52, 0
3, 20400, Note_on_c, 1, 48, 60
3, 20401, Note_on_c, 1, 50, 0
3, 20460, Note_on_c, 1, 47, 60
3, 20461, Note_on_c, 1, 48, 0
3, 20520, Note_on_c, 1, 45, 60
3, 20521, Note_on_c, 1, 47, 0
3, 20580, Note_on_c, 1, 47, 60
3, 20581, Note_on_c, 1, 45, 0
3, 20640, Note_on_c, 1, 47, 60
3, 20641, Note_on_c, 1, 47, 0
3, 20700, Note_on_c, 1, 45, 60
3, 20701, Note_on_c, 1, 47, 0
3, 20760, Note_on_c, 1, 43, 60
3, 20761, Note_on_c, 1, 45, 0
3, 20820, Note_on_c, 1, 41, 60
3, 20821, Note_on_c, 1, 43, 0
3, 20880, Note_on_c, 1, 40, 60
3, 20881, Note_on_c, 1, 41, 0
3, 20940, Note_on_c, 1, 39, 60
3, 20941, Note_on_c, 1, 40, 0
3, 21000, Note_on_c, 1, 40, 60
3, 21001, Note_on_c, 1, 39, 0
3, 21060, Note_on_c, 1, 45, 60
3, 21061, Note_on_c, 1, 40, 0
3, 21120, Note_on_c, 1, 44, 60
3, 21121, Note_on_c, 1, 45, 0
3, 21180, Note_on_c, 1, 45, 60
3, 21181, Note_on_c, 1, 44, 0
3, 21240, Note_on_c, 1, 38, 60
3, 21241, Note_on_c, 1, 45, 0
3, 21300, Note_on_c, 1, 37, 60
3, 21301, Note_on_c, 1, 38, 0
3, 21360, Note_on_c, 1, 38, 60
3, 21361, Note_on_c, 1, 37, 0
3, 21420, Note_on_c, 1, 43, 60
3, 21421, Note_on_c, 1, 38, 0
3, 21480, Note_on_c, 1, 42, 60
3, 21481, Note_on_c, 1, 43, 0
3, 21540, Note_on_c, 1, 43, 60
3, 21541, Note_on_c, 1, 42, 0
3, 21600, Note_on_c, 1, 48, 60
3, 21601, Note_on_c, 1, 43, 0
3, 21660, Note_on_c, 1, 47, 60
3, 21661, Note_on_c, 1, 48, 0
3, 21720, Note_on_c, 1, 48, 60
3, 21721, Note_on_c, 1, 47, 0
3, 21839, Note_on_c, 1, 48, 0
3, 21840, Note_on_c, 1, 31, 100
3, 21840, Note_on_c, 1, 43, 100
3, 21959, Note_on_c, 1, 43, 0
3, 21959, Note_on_c, 1, 31, 0
3, 21960, Note_on_c, 1, 43, 100
3, 21960, Note_on_c, 1, 55, 100
3, 22079, Note_on_c, 1, 55, 0
3, 22079, Note_on_c, 1, 43, 0
3, 22200, Note_on_c, 1, 33, 100
3, 22200, Note_on_c, 1, 45, 100
3, 22319, Note_on_c, 1, 45, 0
3, 22319, Note_on_c, 1, 33, 0
3, 22320, Note_on_c, 1, 45, 100
3, 22320, Note_on_c, 1, 57, 100
3, 22439, Note_on_c, 1, 57, 0
3, 22439, Note_on_c, 1, 45, 0
3, 22560, Note_on_c, 1, 47, 100
3, 22560, Note_on_c, 1, 35, 100
3, 22679, Note_on_c, 1, 35, 0
3, 22679, Note_on_c, 1, 47, 0
3, 22680, Note_on_c, 1, 47, 100
3, 22680, Note_on_c, 1, 59, 100
3, 22799, Note_on_c, 1, 59, 0
3, 22799, Note_on_c, 1, 47, 0
3, 22920, Note_on_c, 1, 48, 100
3, 22920, Note_on_c, 1, 36, 100
3, 23039, Note_on_c, 1, 36, 0
3, 23039, Note_on_c, 1, 48, 0
3, 23040, Note_on_c, 1, 60, 100
3, 23040, Note_on_c, 1, 48, 100
3, 23159, Note_on_c, 1, 48, 0
3, 23159, Note_on_c, 1, 60, 0
3, 23280, Note_on_c, 1, 60, 100
3, 23340, Note_on_c, 1, 59, 100
3, 23341, Note_on_c, 1, 60, 0
3, 23400, Note_on_c, 1, 57, 60
3, 23401, Note_on_c, 1, 59, 0
3, 23460, Note_on_c, 1, 60, 60
3, 23461, Note_on_c, 1, 57, 0
3, 23520, Note_on_c, 1, 59, 60
3, 23521, Note_on_c, 1, 60, 0
3, 23580, Note_on_c, 1, 57, 60
3, 23581, Note_on_c, 1, 59, 0
3, 23640, Note_on_c, 1, 55, 60
3, 23641, Note_on_c, 1, 57, 0
3, 23700, Note_on_c, 1, 53, 60
3, 23701, Note_on_c, 1, 55, 0
3, 23760, Note_on_c, 1, 52, 60
3, 23761, Note_on_c, 1, 53, 0
3, 23820, Note_on_c, 1, 51, 60
3, 23821, Note_on_c, 1, 52, 0
3, 23880, Note_on_c, 1, 52, 60
3, 23881, Note_on_c, 1, 51, 0
3, 23940, Note_on_c, 1, 57, 60
3, 23941, Note_on_c, 1, 52, 0
3, 24000, Note_on_c, 1, 56, 60
3, 24001, Note_on_c, 1, 57, 0
3, 24060, Note_on_c, 1, 57, 60
3, 24061, Note_on_c, 1, 56, 0
3, 24120, Note_on_c, 1, 50, 60
3, 24121, Note_on_c, 1, 57, 0
3, 24180, Note_on_c, 1, 49, 60
3, 24181, Note_on_c, 1, 50, 0
3, 24240, Note_on_c, 1, 50, 60
3, 24241, Note_on_c, 1, 49, 0
3, 24300, Note_on_c, 1, 55, 60
3, 24301, Note_on_c, 1, 50, 0
3, 24360, Note_on_c, 1, 54, 60
3, 24361, Note_on_c, 1, 55, 0
3, 24420, Note_on_c, 1, 55, 60
3, 24421, Note_on_c, 1, 54, 0
3, 24480, Note_on_c, 1, 48, 60
3, 24481, Note_on_c, 1, 55, 0
3, 24540, Note_on_c, 1, 50, 60
3, 24541, Note_on_c, 1, 48, 0
3, 24600, Note_on_c, 1, 52, 60
3, 24601, Note_on_c, 1, 50, 0
3, 24660, Note_on_c, 1, 50, 60
3, 24661, Note_on_c, 1, 52, 0
3, 24720, Note_on_c, 1, 48, 60
3, 24721, Note_on_c, 1, 50, 0
3, 24780, Note_on_c, 1, 47, 60
3, 24781, Note_on_c, 1, 48, 0
3, 24840, Note_on_c, 1, 45, 60
3, 24841, Note_on_c, 1, 47, 0
3, 24900, Note_on_c, 1, 47, 60
3, 24901, Note_on_c, 1, 45, 0
3, 24960, Note_on_c, 1, 47, 60
3, 24961, Note_on_c, 1, 47, 0
3, 25020, Note_on_c, 1, 45, 60
3, 25021, Note_on_c, 1, 47, 0
3, 25080, Note_on_c, 1, 43, 60
3, 25081, Note_on_c, 1, 45, 0
3, 25140, Note_on_c, 1, 41, 60
3, 25141, Note_on_c, 1, 43, 0
3, 25200, Note_on_c, 1, 40, 60
3, 25201, Note_on_c, 1, 41, 0
3, 25260, Note_on_c, 1, 39, 60
3, 25261, Note_on_c, 1, 40, 0
3, 25320, Note_on_c, 1, 40, 60
3, 25321, Note_on_c, 1, 39, 0
3, 25380, Note_on_c, 1, 45, 60
3, 25381, Note_on_c, 1, 40, 0
3, 25440, Note_on_c, 1, 44, 60
3, 25441, Note_on_c, 1, 45, 0
3, 25500, Note_on_c, 1, 45, 60
3, 25501, Note_on_c, 1, 44, 0
3, 25560, Note_on_c, 1, 38, 60
3, 25561, Note_on_c, 1, 45, 0
3, 25620, Note_on_c, 1, 37, 60
3, 25621, Note_on_c, 1, 38, 0
3, 25680, Note_on_c, 1, 38, 60
3, 25681, Note_on_c, 1, 37, 0
3, 25740, Note_on_c, 1, 43, 60
3, 25741, Note_on_c, 1, 38, 0
3, 25800, Note_on_c, 1, 42, 60
3, 25801, Note_on_c, 1, 43, 0
3, 25860, Note_on_c, 1, 43, 60
3, 25861, Note_on_c, 1, 42, 0
3, 25920, Note_on_c, 1, 48, 60
3, 25921, Note_on_c, 1, 43, 0
3, 25980, Note_on_c, 1, 47, 60
3, 25981, Note_on_c, 1, 48, 0
3, 26040, Note_on_c, 1, 48, 60
3, 26041, Note_on_c, 1, 47, 0
3, 26159, Note_on_c, 1, 48, 0
3, 26280, Note_on_c, 1, 44, 100
3, 26340, Note_on_c, 1, 45, 100
3, 26341, Note_on_c, 1, 44, 0
3, 26400, Note_on_c, 1, 31, 100
3, 26401, Note_on_c, 1, 45, 0
3, 26460, Note_on_c, 1, 44, 100
3, 26461, Note_on_c, 1, 31, 0
3, 26520, Note_on_c, 1, 41, 100
3, 26521, Note_on_c, 1, 44, 0
3, 26580, Note_on_c, 1, 44, 100
3, 26581, Note_on_c, 1, 41, 0
3, 26640, Note_on_c, 1, 31, 100
3, 26641, Note_on_c, 1, 44, 0
3, 26700, Note_on_c, 1, 43, 100
3, 26701, Note_on_c, 1, 31, 0
3, 26760, Note_on_c, 1, 42, 100
3, 26761, Note_on_c, 1, 43, 0
3, 26820, Note_on_c, 1, 43, 100
3, 26821, Note_on_c, 1, 42, 0
3, 26880, Note_on_c, 1, 31, 100
3, 26881, Note_on_c, 1, 43, 0
3, 26940, Note_on_c, 1, 43, 100
3, 26941, Note_on_c, 1, 31, 0
3, 27000, Note_on_c, 1, 41, 100
3, 27001, Note_on_c, 1, 43, 0
3, 27060, Note_on_c, 1, 43, 100
3, 27061, Note_on_c, 1, 41, 0
3, 27120, Note_on_c, 1, 35, 100
3, 27120, Note_on_c, 1, 38, 100
3, 27120, Note_on_c, 1, 31, 100
3, 27121, Note_on_c, 1, 43, 0
3, 27180, Note_on_c, 1, 43, 100
3, 27181, Note_on_c, 1, 31, 0
3, 27239, Note_on_c, 1, 35, 0
3, 27239, Note_on_c, 1, 38, 0
3, 27240, Note_on_c, 1, 31, 100
3, 27240, Note_on_c, 1, 38, 100
3, 27240, Note_on_c, 1, 35, 100
3, 27241, Note_on_c, 1, 43, 0
3, 27300, Note_on_c, 1, 43, 100
3, 27301, Note_on_c, 1, 31, 0
3, 27359, Note_on_c, 1, 35, 0
3, 27359, Note_on_c, 1, 38, 0
3, 27360, Note_on_c, 1, 53, 100
3, 27360, Note_on_c, 1, 35, 100
3, 27360, Note_on_c, 1, 43, 100
3, 27360, Note_on_c, 1, 50, 100
3, 27361, Note_on_c, 1, 43, 0
3, 27479, Note_on_c, 1, 43, 0
3, 27479, Note_on_c, 1, 53, 0
3, 27479, Note_on_c, 1, 35, 0
3, 27479, Note_on_c, 1, 50, 0
3, 27720, Note_on_c, 1, 45, 70
3, 27960, Note_on_c, 1, 65, 76
3, 28140, Note_on_c, 1, 64, 81
3, 28197, Note_on_c, 1, 65, 0
3, 28200, Note_on_c, 1, 62, 82
3, 28201, Note_on_c, 1, 64, 0
3, 28260, Note_on_c, 1, 60, 84
3, 28261, Note_on_c, 1, 62, 0
3, 28320, Note_on_c, 1, 59, 85
3, 28321, Note_on_c, 1, 60, 0
3, 28380, Note_on_c, 1, 57, 87
3, 28381, Note_on_c, 1, 59, 0
3, 28433, Note_on_c, 1, 45, 0
3, 28440, Note_on_c, 1, 55, 88
3, 28441, Note_on_c, 1, 57, 0
3, 28500, Note_on_c, 1, 60, 90
3, 28501, Note_on_c, 1, 55, 0
3, 28560, Note_on_c, 1, 62, 91
3, 28561, Note_on_c, 1, 60, 0
3, 28620, Note_on_c, 1, 64, 93
3, 28621, Note_on_c, 1, 62, 0
3, 28680, Note_on_c, 1, 65, 94
3, 28681, Note_on_c, 1, 64, 0
3, 28920, Note_on_c, 1, 64, 100
3, 28981, Note_on_c, 1, 64, 0
3, 29036, Note_on_c, 1, 65, 0
3, 29160, Note_on_c, 1, 53, 65
3, 29279, Note_on_c, 1, 53, 0
3, 29280, Note_on_c, 1, 52, 64
3, 29341, Note_on_c, 1, 52, 0
3, 29400, Note_on_c, 1, 50, 62
3, 29520, Note_on_c, 1, 43, 60
3, 29520, Note_on_c, 1, 60, 60
3, 29520, Note_on_c, 1, 31, 60
3, 29876, Note_on_c, 1, 31, 0
3, 29876, Note_on_c, 1, 60, 0
3, 29876, Note_on_c, 1, 43, 0
3, 29880, Note_on_c, 1, 60, 54
3, 29880, Note_on_c, 1, 52, 54
3, 29880, Note_on_c, 1, 36, 54
3, 29880, Note_on_c, 1, 48, 54
3, 29999, Note_on_c, 1, 48, 0
3, 29999, Note_on_c, 1, 52, 0
3, 29999, Note_on_c, 1, 36, 0
3, 29999, Note_on_c, 1, 60, 0
3, 30113, Note_on_c, 1, 50, 0
3, 30120, Note_on_c, 1, 55, 50
3, 30239, Note_on_c, 1, 55, 0
3, 30240, Note_on_c, 1, 48, 48
3, 30359, Note_on_c, 1, 48, 0
3, 30359, End_track
4, 0, Start_track
4, 0, MIDI_port, 0
4, 0, End_track
0, 0, End_of_file