0, 0, Header, 1, 4, 120
1, 0, Start_track
1, 0, Time_signature, 2, 2, 24, 8
1, 0, Key_signature, -3, "major"
1, 0, Tempo, 2500000
1, 4516, Tempo, 2307692
1, 4882, Tempo, 2608696
1, 5082, Tempo, 2608696
1, 5088, Tempo, 2727273
1, 5094, Tempo, 2857143
1, 5098, Tempo, 3000000
1, 5104, Tempo, 3157895
1, 5110, Tempo, 3333333
1, 5112, Tempo, 3333333
1, 5118, Tempo, 3157895
1, 5122, Tempo, 3000000
1, 5128, Tempo, 2857143
1, 5132, Tempo, 2727273
1, 5138, Tempo, 2608696
1, 5142, Tempo, 2500000
1, 8322, Tempo, 2307692
1, 8734, Tempo, 2608696
1, 8736, Tempo, 2500000
1, 8834, Tempo, 2400000
1, 8838, Tempo, 2500000
1, 8842, Tempo, 2608696
1, 8846, Tempo, 2727273
1, 8850, Tempo, 2857143
1, 8854, Tempo, 3000000
1, 8858, Tempo, 3157895
1, 8864, Tempo, 3000000
1, 8870, Tempo, 2857143
1, 8872, Tempo, 2608696
1, 8884, Tempo, 2500000
1, 10080, Time_signature, 3, 2, 24, 8
1, 10200, Tempo, 397351
1, 13830, Tempo, 434783
1, 16082, Tempo, 419580
1, 16916, Tempo, 402685
1, 16918, Tempo, 408163
1, 17786, Tempo, 405405
1, 17872, Tempo, 402685
1, 17956, Tempo, 400000
1, 18040, Tempo, 397351
1, 23312, Tempo, 394737
1, 23332, Tempo, 397351
1, 23350, Tempo, 400000
1, 23370, Tempo, 402685
1, 23388, Tempo, 405405
1, 23406, Tempo, 408163
1, 25964, Tempo, 408163
1, 25992, Tempo, 405405
1, 26020, Tempo, 402685
1, 26048, Tempo, 400000
1, 26076, Tempo, 397351
1, 39318, Tempo, 428571
1, 41630, Tempo, 419580
1, 42478, Tempo, 408163
1, 43488, Tempo, 405405
1, 43558, Tempo, 402685
1, 43628, Tempo, 400000
1, 43698, Tempo, 397351
1, 48676, Tempo, 397351
1, 48692, Tempo, 400000
1, 48708, Tempo, 402685
1, 48724, Tempo, 405405
1, 48740, Tempo, 408163
1, 48756, Tempo, 410959
1, 51504, Tempo, 410959
1, 51520, Tempo, 408163
1, 51536, Tempo, 405405
1, 51552, Tempo, 402685
1, 51568, Tempo, 400000
1, 64690, Tempo, 400000
1, 64694, Tempo, 402685
1, 64698, Tempo, 405405
1, 64716, Tempo, 408163
1, 64720, Tempo, 410959
1, 64724, Tempo, 413793
1, 65520, Tempo, 397351
1, 66302, Tempo, 402685
1, 66310, Tempo, 405405
1, 66312, Tempo, 410959
1, 69046, Tempo, 400000
1, 72944, Tempo, 402685
1, 72946, Tempo, 408163
1, 72948, Tempo, 410959
1, 72958, Tempo, 416667
1, 72960, Tempo, 410959
1, 72962, Tempo, 413793
1, 73064, Tempo, 413793
1, 73072, Tempo, 410959
1, 73080, Tempo, 408163
1, 73088, Tempo, 405405
1, 73096, Tempo, 402685
1, 73104, Tempo, 400000
1, 73110, Tempo, 397351
1, 74152, Tempo, 402685
1, 74156, Tempo, 408163
1, 74158, Tempo, 410959
1, 74166, Tempo, 413793
1, 74170, Tempo, 419580
1, 74172, Tempo, 422535
1, 74174, Tempo, 425532
1, 74176, Tempo, 428571
1, 74178, Tempo, 425532
1, 74186, Tempo, 422535
1, 74432, Tempo, 425532
1, 74438, Tempo, 422535
1, 74444, Tempo, 419580
1, 74448, Tempo, 416667
1, 74454, Tempo, 413793
1, 74458, Tempo, 410959
1, 74594, Tempo, 405405
1, 74604, Tempo, 402685
1, 74614, Tempo, 400000
1, 74706, Tempo, 400000
1, 74710, Tempo, 400000
1, 74714, Tempo, 397351
1, 74722, Tempo, 394737
1, 74778, Tempo, 397351
1, 74796, Tempo, 400000
1, 74802, Tempo, 402685
1, 74804, Tempo, 397351
1, 74828, Tempo, 397351
1, 77146, Tempo, 389610
1, 82218, Tempo, 392157
1, 82226, Tempo, 394737
1, 82234, Tempo, 397351
1, 82242, Tempo, 400000
1, 82250, Tempo, 402685
1, 82258, Tempo, 405405
1, 82266, Tempo, 408163
1, 85036, Tempo, 405405
1, 85058, Tempo, 402685
1, 85080, Tempo, 400000
1, 85100, Tempo, 397351
1, 98894, Tempo, 397351
1, 98896, Tempo, 400000
1, 98898, Tempo, 402685
1, 98900, Tempo, 405405
1, 98902, Tempo, 410959
1, 98904, Tempo, 413793
1, 98906, Tempo, 416667
1, 98908, Tempo, 422535
1, 98910, Tempo, 425532
1, 98912, Tempo, 428571
1, 98914, Tempo, 431655
1, 98916, Tempo, 437956
1, 98918, Tempo, 441176
1, 98920, Tempo, 444444
1, 98922, Tempo, 451128
1, 98924, Tempo, 454545
1, 98926, Tempo, 458015
1, 98928, Tempo, 461538
1, 98930, Tempo, 468750
1, 98932, Tempo, 472441
1, 98934, Tempo, 476190
1, 98936, Tempo, 483871
1, 98940, Tempo, 560748
1, 99506, Tempo, 560748
1, 99508, Tempo, 566038
1, 99510, Tempo, 571429
1, 99520, Tempo, 576923
1, 99524, Tempo, 582524
1, 99526, Tempo, 588235
1, 99532, Tempo, 582524
1, 99550, Tempo, 588235
1, 99554, Tempo, 594059
1, 100958, Tempo, 612245
1, 100968, Tempo, 618557
1, 100970, Tempo, 625000
1, 101252, Tempo, 638298
1, 101264, Tempo, 645161
1, 101268, Tempo, 652174
1, 101602, Tempo, 645161
1, 101606, Tempo, 652174
1, 101614, Tempo, 659341
1, 101620, Tempo, 666667
1, 101984, Tempo, 674157
1, 101990, Tempo, 681818
1, 101992, Tempo, 689655
1, 101996, Tempo, 697674
1, 102002, Tempo, 705882
1, 102220, Tempo, 714286
1, 102222, Tempo, 722892
1, 102228, Tempo, 731707
1, 102230, Tempo, 740741
1, 102254, Tempo, 759494
1, 102692, Tempo, 779221
1, 102694, Tempo, 789474
1, 102696, Tempo, 800000
1, 102700, Tempo, 810811
1, 102706, Tempo, 845070
1, 102714, Tempo, 857143
1, 102726, Tempo, 869565
1, 102730, Tempo, 882353
1, 102732, Tempo, 857143
1, 102972, Tempo, 882353
1, 102978, Tempo, 895522
1, 102982, Tempo, 909091
1, 102984, Tempo, 937500
1, 102988, Tempo, 952381
1, 103436, Tempo, 1000000
1, 103440, Tempo, 1016949
1, 103442, Tempo, 1034483
1, 103446, Tempo, 1071429
1, 103448, Tempo, 1090909
1, 103606, Tempo, 1111111
1, 103608, Tempo, 1132075
1, 103616, Tempo, 1333333
1, 103620, Tempo, 1395349
1, 103630, Tempo, 1363636
1, 103632, Tempo, 1304348
1, 103634, Tempo, 1276596
1, 103636, Tempo, 1250000
1, 103638, Tempo, 1276596
1, 103640, Tempo, 1250000
1, 103862, Tempo, 1304348
1, 104078, Tempo, 1276596
1, 104082, Tempo, 1304348
1, 104086, Tempo, 1333333
1, 104090, Tempo, 1363636
1, 104094, Tempo, 1395349
1, 104098, Tempo, 1428571
1, 104102, Tempo, 1463415
1, 104106, Tempo, 1500000
1, 104110, Tempo, 1538462
1, 104114, Tempo, 1578947
1, 104118, Tempo, 1621622
1, 104122, Tempo, 1666667
1, 104126, Tempo, 1714286
1, 104128, Tempo, 1714286
1, 104132, Tempo, 1764706
1, 104134, Tempo, 1764706
1, 104136, Tempo, 2068966
1, 104138, Tempo, 2608696
1, 104140, Tempo, 3333333
1, 104142, Tempo, 5000000
1, 104144, Tempo, 6000000
1, 104146, Tempo, 6000000
1, 104148, Tempo, 6000000
1, 104150, Tempo, 6000000
1, 104152, Tempo, 6000000
1, 104154, Tempo, 387097
1, 105808, Tempo, 387097
1, 105814, Tempo, 389610
1, 105820, Tempo, 392157
1, 105826, Tempo, 394737
1, 105832, Tempo, 397351
1, 105838, Tempo, 400000
1, 105844, Tempo, 402685
1, 105850, Tempo, 405405
1, 105856, Tempo, 408163
1, 105862, Tempo, 410959
1, 105868, Tempo, 413793
1, 105874, Tempo, 416667
1, 105880, Tempo, 419580
1, 105886, Tempo, 422535
1, 105890, Tempo, 425532
1, 105896, Tempo, 428571
1, 105902, Tempo, 431655
1, 105908, Tempo, 434783
1, 105914, Tempo, 437956
1, 105920, Tempo, 441176
1, 105926, Tempo, 444444
1, 105932, Tempo, 447761
1, 105938, Tempo, 451128
1, 105944, Tempo, 454545
1, 105950, Tempo, 458015
1, 105956, Tempo, 461538
1, 105962, Tempo, 465116
1, 105968, Tempo, 468750
1, 105972, Tempo, 472441
1, 105974, Tempo, 468750
1, 105982, Tempo, 472441
1, 105988, Tempo, 476190
1, 105996, Tempo, 480000
1, 106002, Tempo, 483871
1, 106002, End_track
2, 0, Start_track
2, 0, MIDI_port, 0
2, 0, Title_t, "Piano"
2, 0, Program_c, 0, 0
2, 120, Note_on_c, 0, 67, 64
2, 120, Note_on_c, 0, 48, 64
2, 120, Note_on_c, 0, 63, 64
2, 159, Note_on_c, 0, 67, 0
2, 165, Note_on_c, 0, 66, 64
2, 178, Note_on_c, 0, 66, 0
2, 180, Note_on_c, 0, 69, 64
2, 180, Note_on_c, 0, 54, 64
2, 232, Note_on_c, 0, 54, 0
2, 240, Note_on_c, 0, 57, 64
2, 292, Note_on_c, 0, 57, 0
2, 300, Note_on_c, 0, 54, 64
2, 345, Note_on_c, 0, 69, 0
2, 345, Note_on_c, 0, 48, 0
2, 345, Note_on_c, 0, 63, 0
2, 352, Note_on_c, 0, 54, 0
2, 360, Note_on_c, 0, 67, 64
2, 360, Note_on_c, 0, 48, 64
2, 360, Note_on_c, 0, 63, 64
2, 399, Note_on_c, 0, 67, 0
2, 405, Note_on_c, 0, 66, 64
2, 418, Note_on_c, 0, 66, 0
2, 420, Note_on_c, 0, 69, 64
2, 420, Note_on_c, 0, 54, 64
2, 472, Note_on_c, 0, 54, 0
2, 480, Note_on_c, 0, 57, 64
2, 525, Note_on_c, 0, 69, 0
2, 532, Note_on_c, 0, 57, 0
2, 540, Note_on_c, 0, 69, 64
2, 540, Note_on_c, 0, 54, 64
2, 579, Note_on_c, 0, 69, 0
2, 585, Note_on_c, 0, 48, 0
2, 585, Note_on_c, 0, 63, 0
2, 585, Note_on_c, 0, 75, 64
2, 592, Note_on_c, 0, 54, 0
2, 598, Note_on_c, 0, 75, 0
2, 600, Note_on_c, 0, 75, 64
2, 652, Note_on_c, 0, 75, 0
2, 660, Note_on_c, 0, 74, 64
2, 660, Note_on_c, 0, 62, 64
2, 660, Note_on_c, 0, 47, 64
2, 660, Note_on_c, 0, 55, 64
2, 699, Note_on_c, 0, 74, 0
2, 705, Note_on_c, 0, 67, 64
2, 712, Note_on_c, 0, 62, 0
2, 712, Note_on_c, 0, 55, 0
2, 712, Note_on_c, 0, 47, 0
2, 718, Note_on_c, 0, 67, 0
2, 720, Note_on_c, 0, 67, 64
2, 772, Note_on_c, 0, 67, 0
2, 780, Note_on_c, 0, 66, 64
2, 780, Note_on_c, 0, 60, 64
2, 780, Note_on_c, 0, 50, 64
2, 780, Note_on_c, 0, 57, 64
2, 819, Note_on_c, 0, 66, 0
2, 825, Note_on_c, 0, 69, 64
2, 832, Note_on_c, 0, 60, 0
2, 832, Note_on_c, 0, 57, 0
2, 832, Note_on_c, 0, 50, 0
2, 838, Note_on_c, 0, 69, 0
2, 840, Note_on_c, 0, 69, 64
2, 866, Note_on_c, 0, 69, 0
2, 870, Note_on_c, 0, 71, 64
2, 900, Note_on_c, 0, 59, 64
2, 900, Note_on_c, 0, 62, 64
2, 900, Note_on_c, 0, 43, 64
2, 900, Note_on_c, 0, 55, 64
2, 952, Note_on_c, 0, 55, 0
2, 952, Note_on_c, 0, 62, 0
2, 952, Note_on_c, 0, 43, 0
2, 952, Note_on_c, 0, 59, 0
2, 960, Note_on_c, 0, 59, 64
2, 960, Note_on_c, 0, 62, 64
2, 960, Note_on_c, 0, 43, 64
2, 960, Note_on_c, 0, 55, 64
2, 975, Note_on_c, 0, 72, 64
2, 988, Note_on_c, 0, 72, 0
2, 990, Note_on_c, 0, 71, 64
2, 1003, Note_on_c, 0, 71, 0
2, 1005, Note_on_c, 0, 69, 64
2, 1012, Note_on_c, 0, 55, 0
2, 1012, Note_on_c, 0, 43, 0
2, 1012, Note_on_c, 0, 62, 0
2, 1012, Note_on_c, 0, 71, 0
2, 1012, Note_on_c, 0, 59, 0
2, 1018, Note_on_c, 0, 69, 0
2, 1020, Note_on_c, 0, 71, 64
2, 1046, Note_on_c, 0, 71, 0
2, 1050, Note_on_c, 0, 72, 64
2, 1076, Note_on_c, 0, 72, 0
2, 1080, Note_on_c, 0, 75, 64
2, 1080, Note_on_c, 0, 53, 64
2, 1080, Note_on_c, 0, 68, 64
2, 1119, Note_on_c, 0, 75, 0
2, 1125, Note_on_c, 0, 74, 64
2, 1138, Note_on_c, 0, 74, 0
2, 1140, Note_on_c, 0, 77, 64
2, 1140, Note_on_c, 0, 59, 64
2, 1192, Note_on_c, 0, 59, 0
2, 1200, Note_on_c, 0, 62, 64
2, 1252, Note_on_c, 0, 62, 0
2, 1260, Note_on_c, 0, 59, 64
2, 1290, Note_on_c, 0, 75, 64
2, 1303, Note_on_c, 0, 75, 0
2, 1305, Note_on_c, 0, 53, 0
2, 1305, Note_on_c, 0, 77, 0
2, 1305, Note_on_c, 0, 68, 0
2, 1305, Note_on_c, 0, 77, 64
2, 1312, Note_on_c, 0, 59, 0
2, 1318, Note_on_c, 0, 77, 0
2, 1320, Note_on_c, 0, 75, 64
2, 1320, Note_on_c, 0, 53, 64
2, 1320, Note_on_c, 0, 68, 64
2, 1359, Note_on_c, 0, 75, 0
2, 1365, Note_on_c, 0, 74, 64
2, 1378, Note_on_c, 0, 74, 0
2, 1380, Note_on_c, 0, 77, 64
2, 1380, Note_on_c, 0, 59, 64
2, 1432, Note_on_c, 0, 59, 0
2, 1440, Note_on_c, 0, 62, 64
2, 1485, Note_on_c, 0, 77, 0
2, 1492, Note_on_c, 0, 62, 0
2, 1500, Note_on_c, 0, 74, 64
2, 1500, Note_on_c, 0, 59, 64
2, 1539, Note_on_c, 0, 74, 0
2, 1545, Note_on_c, 0, 53, 0
2, 1545, Note_on_c, 0, 68, 0
2, 1545, Note_on_c, 0, 80, 64
2, 1552, Note_on_c, 0, 59, 0
2, 1558, Note_on_c, 0, 80, 0
2, 1560, Note_on_c, 0, 80, 64
2, 1612, Note_on_c, 0, 80, 0
2, 1620, Note_on_c, 0, 79, 64
2, 1620, Note_on_c, 0, 67, 64
2, 1620, Note_on_c, 0, 51, 64
2, 1620, Note_on_c, 0, 60, 64
2, 1659, Note_on_c, 0, 79, 0
2, 1665, Note_on_c, 0, 72, 64
2, 1672, Note_on_c, 0, 67, 0
2, 1672, Note_on_c, 0, 60, 0
2, 1672, Note_on_c, 0, 51, 0
2, 1678, Note_on_c, 0, 72, 0
2, 1680, Note_on_c, 0, 72, 64
2, 1732, Note_on_c, 0, 72, 0
2, 1740, Note_on_c, 0, 71, 64
2, 1740, Note_on_c, 0, 65, 64
2, 1740, Note_on_c, 0, 55, 64
2, 1740, Note_on_c, 0, 62, 64
2, 1779, Note_on_c, 0, 71, 0
2, 1785, Note_on_c, 0, 74, 64
2, 1792, Note_on_c, 0, 65, 0
2, 1792, Note_on_c, 0, 62, 0
2, 1792, Note_on_c, 0, 55, 0
2, 1798, Note_on_c, 0, 74, 0
2, 1800, Note_on_c, 0, 74, 64
2, 1826, Note_on_c, 0, 74, 0
2, 1830, Note_on_c, 0, 75, 64
2, 1860, Note_on_c, 0, 63, 64
2, 1860, Note_on_c, 0, 48, 64
2, 1860, Note_on_c, 0, 60, 64
2, 1912, Note_on_c, 0, 60, 0
2, 1912, Note_on_c, 0, 48, 0
2, 1912, Note_on_c, 0, 63, 0
2, 1920, Note_on_c, 0, 63, 64
2, 1920, Note_on_c, 0, 48, 64
2, 1920, Note_on_c, 0, 60, 64
2, 1946, Note_on_c, 0, 60, 0
2, 1946, Note_on_c, 0, 75, 0
2, 1946, Note_on_c, 0, 63, 0
2, 1946, Note_on_c, 0, 48, 0
2, 1950, Note_on_c, 0, 68, 64
2, 1950, Note_on_c, 0, 60, 64
2, 1950, Note_on_c, 0, 63, 64
2, 1976, Note_on_c, 0, 63, 0
2, 1976, Note_on_c, 0, 60, 0
2, 1976, Note_on_c, 0, 68, 0
2, 1980, Note_on_c, 0, 67, 64
2, 1980, Note_on_c, 0, 58, 64
2, 1980, Note_on_c, 0, 61, 64
2, 1980, Note_on_c, 0, 63, 64
2, 2006, Note_on_c, 0, 63, 0
2, 2006, Note_on_c, 0, 67, 0
2, 2006, Note_on_c, 0, 58, 0
2, 2006, Note_on_c, 0, 61, 0
2, 2010, Note_on_c, 0, 68, 64
2, 2010, Note_on_c, 0, 56, 64
2, 2010, Note_on_c, 0, 60, 64
2, 2010, Note_on_c, 0, 63, 64
2, 2036, Note_on_c, 0, 63, 0
2, 2036, Note_on_c, 0, 68, 0
2, 2036, Note_on_c, 0, 56, 0
2, 2036, Note_on_c, 0, 60, 0
2, 2040, Note_on_c, 0, 72, 64
2, 2040, Note_on_c, 0, 70, 64
2, 2040, Note_on_c, 0, 55, 64
2, 2040, Note_on_c, 0, 58, 64
2, 2040, Note_on_c, 0, 63, 64
2, 2053, Note_on_c, 0, 70, 0
2, 2055, Note_on_c, 0, 72, 64
2, 2068, Note_on_c, 0, 72, 0
2, 2070, Note_on_c, 0, 70, 64
2, 2083, Note_on_c, 0, 70, 0
2, 2085, Note_on_c, 0, 69, 64
2, 2092, Note_on_c, 0, 58, 0
2, 2092, Note_on_c, 0, 63, 0
2, 2092, Note_on_c, 0, 72, 0
2, 2092, Note_on_c, 0, 55, 0
2, 2098, Note_on_c, 0, 69, 0
2, 2100, Note_on_c, 0, 70, 64
2, 2100, Note_on_c, 0, 55, 64
2, 2100, Note_on_c, 0, 58, 64
2, 2100, Note_on_c, 0, 64, 64
2, 2139, Note_on_c, 0, 70, 0
2, 2145, Note_on_c, 0, 72, 64
2, 2158, Note_on_c, 0, 72, 0
2, 2160, Note_on_c, 0, 73, 64
2, 2186, Note_on_c, 0, 64, 0
2, 2186, Note_on_c, 0, 55, 0
2, 2186, Note_on_c, 0, 58, 0
2, 2190, Note_on_c, 0, 53, 64
2, 2190, Note_on_c, 0, 56, 64
2, 2190, Note_on_c, 0, 61, 64
2, 2216, Note_on_c, 0, 61, 0
2, 2216, Note_on_c, 0, 56, 0
2, 2216, Note_on_c, 0, 53, 0
2, 2220, Note_on_c, 0, 52, 64
2, 2220, Note_on_c, 0, 55, 64
2, 2220, Note_on_c, 0, 60, 64
2, 2233, Note_on_c, 0, 73, 0
2, 2235, Note_on_c, 0, 72, 64
2, 2246, Note_on_c, 0, 52, 0
2, 2246, Note_on_c, 0, 60, 0
2, 2246, Note_on_c, 0, 55, 0
2, 2248, Note_on_c, 0, 72, 0
2, 2250, Note_on_c, 0, 82, 64
2, 2250, Note_on_c, 0, 52, 64
2, 2250, Note_on_c, 0, 55, 64
2, 2250, Note_on_c, 0, 60, 64
2, 2263, Note_on_c, 0, 82, 0
2, 2265, Note_on_c, 0, 79, 64
2, 2276, Note_on_c, 0, 52, 0
2, 2276, Note_on_c, 0, 60, 0
2, 2276, Note_on_c, 0, 55, 0
2, 2278, Note_on_c, 0, 79, 0
2, 2280, Note_on_c, 0, 79, 64
2, 2280, Note_on_c, 0, 52, 64
2, 2280, Note_on_c, 0, 55, 64
2, 2280, Note_on_c, 0, 60, 64
2, 2332, Note_on_c, 0, 60, 0
2, 2332, Note_on_c, 0, 55, 0
2, 2332, Note_on_c, 0, 52, 0
2, 2340, Note_on_c, 0, 53, 64
2, 2340, Note_on_c, 0, 56, 64
2, 2340, Note_on_c, 0, 60, 64
2, 2358, Note_on_c, 0, 79, 0
2, 2370, Note_on_c, 0, 82, 64
2, 2383, Note_on_c, 0, 82, 0
2, 2385, Note_on_c, 0, 80, 64
2, 2392, Note_on_c, 0, 60, 0
2, 2392, Note_on_c, 0, 53, 0
2, 2392, Note_on_c, 0, 56, 0
2, 2398, Note_on_c, 0, 80, 0
2, 2460, Note_on_c, 0, 68, 64
2, 2486, Note_on_c, 0, 68, 0
2, 2490, Note_on_c, 0, 67, 64
2, 2516, Note_on_c, 0, 67, 0
2, 2520, Note_on_c, 0, 67, 64
2, 2520, Note_on_c, 0, 57, 64
2, 2520, Note_on_c, 0, 60, 64
2, 2520, Note_on_c, 0, 38, 64
2, 2520, Note_on_c, 0, 51, 64
2, 2559, Note_on_c, 0, 67, 0
2, 2565, Note_on_c, 0, 66, 64
2, 2572, Note_on_c, 0, 51, 0
2, 2578, Note_on_c, 0, 66, 0
2, 2580, Note_on_c, 0, 69, 64
2, 2580, Note_on_c, 0, 42, 64
2, 2632, Note_on_c, 0, 42, 0
2, 2640, Note_on_c, 0, 45, 64
2, 2685, Note_on_c, 0, 57, 0
2, 2685, Note_on_c, 0, 69, 0
2, 2685, Note_on_c, 0, 38, 0
2, 2685, Note_on_c, 0, 60, 0
2, 2692, Note_on_c, 0, 45, 0
2, 2700, Note_on_c, 0, 69, 64
2, 2700, Note_on_c, 0, 62, 64
2, 2700, Note_on_c, 0, 46, 64
2, 2700, Note_on_c, 0, 50, 64
2, 2700, Note_on_c, 0, 58, 64
2, 2739, Note_on_c, 0, 69, 0
2, 2745, Note_on_c, 0, 67, 64
2, 2752, Note_on_c, 0, 50, 0
2, 2752, Note_on_c, 0, 58, 0
2, 2752, Note_on_c, 0, 62, 0
2, 2752, Note_on_c, 0, 46, 0
2, 2758, Note_on_c, 0, 67, 0
2, 2760, Note_on_c, 0, 67, 64
2, 2760, Note_on_c, 0, 60, 64
2, 2760, Note_on_c, 0, 62, 64
2, 2760, Note_on_c, 0, 45, 64
2, 2760, Note_on_c, 0, 50, 64
2, 2760, Note_on_c, 0, 57, 64
2, 2799, Note_on_c, 0, 67, 0
2, 2805, Note_on_c, 0, 66, 64
2, 2812, Note_on_c, 0, 62, 0
2, 2812, Note_on_c, 0, 50, 0
2, 2812, Note_on_c, 0, 45, 0
2, 2812, Note_on_c, 0, 60, 0
2, 2812, Note_on_c, 0, 57, 0
2, 2818, Note_on_c, 0, 66, 0
2, 2820, Note_on_c, 0, 69, 64
2, 2820, Note_on_c, 0, 58, 64
2, 2820, Note_on_c, 0, 62, 64
2, 2820, Note_on_c, 0, 43, 64
2, 2820, Note_on_c, 0, 50, 64
2, 2820, Note_on_c, 0, 55, 64
2, 2859, Note_on_c, 0, 69, 0
2, 2865, Note_on_c, 0, 67, 64
2, 2872, Note_on_c, 0, 62, 0
2, 2872, Note_on_c, 0, 50, 0
2, 2872, Note_on_c, 0, 43, 0
2, 2872, Note_on_c, 0, 58, 0
2, 2872, Note_on_c, 0, 55, 0
2, 2878, Note_on_c, 0, 67, 0
2, 2880, Note_on_c, 0, 70, 64
2, 2880, Note_on_c, 0, 57, 64
2, 2880, Note_on_c, 0, 62, 64
2, 2880, Note_on_c, 0, 42, 64
2, 2880, Note_on_c, 0, 50, 64
2, 2880, Note_on_c, 0, 54, 64
2, 2919, Note_on_c, 0, 70, 0
2, 2925, Note_on_c, 0, 69, 64
2, 2932, Note_on_c, 0, 62, 0
2, 2932, Note_on_c, 0, 50, 0
2, 2932, Note_on_c, 0, 42, 0
2, 2932, Note_on_c, 0, 57, 0
2, 2932, Note_on_c, 0, 54, 0
2, 2938, Note_on_c, 0, 69, 0
2, 2940, Note_on_c, 0, 66, 64
2, 2953, Note_on_c, 0, 66, 0
2, 2955, Note_on_c, 0, 69, 64
2, 2968, Note_on_c, 0, 69, 0
2, 2970, Note_on_c, 0, 72, 64
2, 2983, Note_on_c, 0, 72, 0
2, 2985, Note_on_c, 0, 75, 64
2, 2998, Note_on_c, 0, 75, 0
2, 3000, Note_on_c, 0, 74, 64
2, 3013, Note_on_c, 0, 74, 0
2, 3015, Note_on_c, 0, 72, 64
2, 3028, Note_on_c, 0, 72, 0
2, 3030, Note_on_c, 0, 70, 64
2, 3043, Note_on_c, 0, 70, 0
2, 3045, Note_on_c, 0, 69, 64
2, 3058, Note_on_c, 0, 69, 0
2, 3060, Note_on_c, 0, 72, 64
2, 3073, Note_on_c, 0, 72, 0
2, 3075, Note_on_c, 0, 78, 64
2, 3088, Note_on_c, 0, 78, 0
2, 3090, Note_on_c, 0, 81, 64
2, 3103, Note_on_c, 0, 81, 0
2, 3105, Note_on_c, 0, 84, 64
2, 3118, Note_on_c, 0, 84, 0
2, 3120, Note_on_c, 0, 82, 64
2, 3133, Note_on_c, 0, 82, 0
2, 3135, Note_on_c, 0, 81, 64
2, 3148, Note_on_c, 0, 81, 0
2, 3150, Note_on_c, 0, 79, 64
2, 3163, Note_on_c, 0, 79, 0
2, 3165, Note_on_c, 0, 78, 64
2, 3178, Note_on_c, 0, 78, 0
2, 3180, Note_on_c, 0, 81, 64
2, 3193, Note_on_c, 0, 81, 0
2, 3195, Note_on_c, 0, 84, 64
2, 3208, Note_on_c, 0, 84, 0
2, 3210, Note_on_c, 0, 86, 64
2, 3223, Note_on_c, 0, 86, 0
2, 3225, Note_on_c, 0, 87, 64
2, 3238, Note_on_c, 0, 87, 0
2, 3240, Note_on_c, 0, 86, 64
2, 3253, Note_on_c, 0, 86, 0
2, 3255, Note_on_c, 0, 84, 64
2, 3268, Note_on_c, 0, 84, 0
2, 3270, Note_on_c, 0, 82, 64
2, 3283, Note_on_c, 0, 82, 0
2, 3285, Note_on_c, 0, 81, 64
2, 3298, Note_on_c, 0, 81, 0
2, 3300, Note_on_c, 0, 84, 64
2, 3313, Note_on_c, 0, 84, 0
2, 3315, Note_on_c, 0, 81, 64
2, 3328, Note_on_c, 0, 81, 0
2, 3330, Note_on_c, 0, 79, 64
2, 3343, Note_on_c, 0, 79, 0
2, 3345, Note_on_c, 0, 78, 64
2, 3358, Note_on_c, 0, 78, 0
2, 3360, Note_on_c, 0, 84, 64
2, 3373, Note_on_c, 0, 84, 0
2, 3375, Note_on_c, 0, 81, 64
2, 3388, Note_on_c, 0, 81, 0
2, 3390, Note_on_c, 0, 79, 64
2, 3403, Note_on_c, 0, 79, 0
2, 3405, Note_on_c, 0, 78, 64
2, 3418, Note_on_c, 0, 78, 0
2, 3420, Note_on_c, 0, 81, 64
2, 3426, Note_on_c, 0, 81, 0
2, 3435, Note_on_c, 0, 78, 64
2, 3441, Note_on_c, 0, 78, 0
2, 3450, Note_on_c, 0, 75, 64
2, 3456, Note_on_c, 0, 75, 0
2, 3465, Note_on_c, 0, 74, 64
2, 3471, Note_on_c, 0, 74, 0
2, 3480, Note_on_c, 0, 74, 64
2, 3480, Note_on_c, 0, 54, 64
2, 3480, Note_on_c, 0, 57, 64
2, 3493, Note_on_c, 0, 57, 0
2, 3493, Note_on_c, 0, 54, 0
2, 3495, Note_on_c, 0, 62, 64
2, 3508, Note_on_c, 0, 62, 0
2, 3510, Note_on_c, 0, 54, 64
2, 3510, Note_on_c, 0, 57, 64
2, 3523, Note_on_c, 0, 57, 0
2, 3523, Note_on_c, 0, 54, 0
2, 3525, Note_on_c, 0, 62, 64
2, 3532, Note_on_c, 0, 74, 0
2, 3538, Note_on_c, 0, 62, 0
2, 3540, Note_on_c, 0, 69, 64
2, 3540, Note_on_c, 0, 54, 64
2, 3540, Note_on_c, 0, 57, 64
2, 3553, Note_on_c, 0, 57, 0
2, 3553, Note_on_c, 0, 54, 0
2, 3555, Note_on_c, 0, 62, 64
2, 3568, Note_on_c, 0, 62, 0
2, 3570, Note_on_c, 0, 54, 64
2, 3570, Note_on_c, 0, 57, 64
2, 3583, Note_on_c, 0, 57, 0
2, 3583, Note_on_c, 0, 54, 0
2, 3585, Note_on_c, 0, 62, 64
2, 3598, Note_on_c, 0, 62, 0
2, 3600, Note_on_c, 0, 54, 64
2, 3600, Note_on_c, 0, 57, 64
2, 3613, Note_on_c, 0, 57, 0
2, 3613, Note_on_c, 0, 54, 0
2, 3615, Note_on_c, 0, 62, 64
2, 3628, Note_on_c, 0, 62, 0
2, 3630, Note_on_c, 0, 54, 64
2, 3630, Note_on_c, 0, 57, 64
2, 3643, Note_on_c, 0, 57, 0
2, 3643, Note_on_c, 0, 54, 0
2, 3645, Note_on_c, 0, 62, 64
2, 3652, Note_on_c, 0, 69, 0
2, 3658, Note_on_c, 0, 62, 0
2, 3660, Note_on_c, 0, 71, 64
2, 3660, Note_on_c, 0, 55, 64
2, 3660, Note_on_c, 0, 59, 64
2, 3673, Note_on_c, 0, 59, 0
2, 3673, Note_on_c, 0, 55, 0
2, 3675, Note_on_c, 0, 62, 64
2, 3686, Note_on_c, 0, 71, 0
2, 3688, Note_on_c, 0, 62, 0
2, 3690, Note_on_c, 0, 67, 64
2, 3690, Note_on_c, 0, 55, 64
2, 3690, Note_on_c, 0, 59, 64
2, 3703, Note_on_c, 0, 59, 0
2, 3703, Note_on_c, 0, 55, 0
2, 3705, Note_on_c, 0, 62, 64
2, 3716, Note_on_c, 0, 67, 0
2, 3718, Note_on_c, 0, 62, 0
2, 3720, Note_on_c, 0, 67, 64
2, 3720, Note_on_c, 0, 66, 64
2, 3720, Note_on_c, 0, 57, 64
2, 3720, Note_on_c, 0, 60, 64
2, 3733, Note_on_c, 0, 60, 0
2, 3733, Note_on_c, 0, 57, 0
2, 3733, Note_on_c, 0, 66, 0
2, 3735, Note_on_c, 0, 67, 64
2, 3735, Note_on_c, 0, 62, 64
2, 3748, Note_on_c, 0, 62, 0
2, 3748, Note_on_c, 0, 67, 0
2, 3750, Note_on_c, 0, 66, 64
2, 3750, Note_on_c, 0, 57, 64
2, 3750, Note_on_c, 0, 60, 64
2, 3763, Note_on_c, 0, 60, 0
2, 3763, Note_on_c, 0, 57, 0
2, 3763, Note_on_c, 0, 66, 0
2, 3765, Note_on_c, 0, 64, 64
2, 3765, Note_on_c, 0, 62, 64
2, 3772, Note_on_c, 0, 67, 0
2, 3778, Note_on_c, 0, 62, 0
2, 3778, Note_on_c, 0, 64, 0
2, 3780, Note_on_c, 0, 66, 64
2, 3780, Note_on_c, 0, 57, 64
2, 3780, Note_on_c, 0, 60, 64
2, 3793, Note_on_c, 0, 60, 0
2, 3793, Note_on_c, 0, 57, 0
2, 3795, Note_on_c, 0, 62, 64
2, 3806, Note_on_c, 0, 66, 0
2, 3808, Note_on_c, 0, 62, 0
2, 3810, Note_on_c, 0, 67, 64
2, 3810, Note_on_c, 0, 57, 64
2, 3810, Note_on_c, 0, 60, 64
2, 3823, Note_on_c, 0, 60, 0
2, 3823, Note_on_c, 0, 57, 0
2, 3825, Note_on_c, 0, 62, 64
2, 3836, Note_on_c, 0, 67, 0
2, 3838, Note_on_c, 0, 62, 0
2, 3840, Note_on_c, 0, 69, 64
2, 3840, Note_on_c, 0, 57, 64
2, 3840, Note_on_c, 0, 60, 64
2, 3853, Note_on_c, 0, 60, 0
2, 3853, Note_on_c, 0, 57, 0
2, 3853, Note_on_c, 0, 69, 0
2, 3855, Note_on_c, 0, 62, 64
2, 3868, Note_on_c, 0, 62, 0
2, 3870, Note_on_c, 0, 71, 64
2, 3870, Note_on_c, 0, 55, 64
2, 3870, Note_on_c, 0, 59, 64
2, 3883, Note_on_c, 0, 59, 0
2, 3883, Note_on_c, 0, 55, 0
2, 3883, Note_on_c, 0, 71, 0
2, 3885, Note_on_c, 0, 62, 64
2, 3898, Note_on_c, 0, 62, 0
2, 3900, Note_on_c, 0, 72, 64
2, 3900, Note_on_c, 0, 54, 64
2, 3900, Note_on_c, 0, 57, 64
2, 3913, Note_on_c, 0, 57, 0
2, 3913, Note_on_c, 0, 54, 0
2, 3913, Note_on_c, 0, 72, 0
2, 3915, Note_on_c, 0, 73, 64
2, 3915, Note_on_c, 0, 62, 64
2, 3928, Note_on_c, 0, 62, 0
2, 3928, Note_on_c, 0, 73, 0
2, 3930, Note_on_c, 0, 73, 64
2, 3930, Note_on_c, 0, 54, 64
2, 3930, Note_on_c, 0, 57, 64
2, 3943, Note_on_c, 0, 57, 0
2, 3943, Note_on_c, 0, 54, 0
2, 3943, Note_on_c, 0, 73, 0
2, 3945, Note_on_c, 0, 74, 64
2, 3945, Note_on_c, 0, 62, 64
2, 3958, Note_on_c, 0, 62, 0
2, 3958, Note_on_c, 0, 74, 0
2, 3960, Note_on_c, 0, 73, 64
2, 3960, Note_on_c, 0, 54, 64
2, 3960, Note_on_c, 0, 57, 64
2, 3973, Note_on_c, 0, 57, 0
2, 3973, Note_on_c, 0, 54, 0
2, 3973, Note_on_c, 0, 73, 0
2, 3975, Note_on_c, 0, 74, 64
2, 3975, Note_on_c, 0, 62, 64
2, 3988, Note_on_c, 0, 62, 0
2, 3988, Note_on_c, 0, 74, 0
2, 3990, Note_on_c, 0, 76, 64
2, 3990, Note_on_c, 0, 54, 64
2, 3990, Note_on_c, 0, 57, 64
2, 4003, Note_on_c, 0, 57, 0
2, 4003, Note_on_c, 0, 54, 0
2, 4003, Note_on_c, 0, 76, 0
2, 4005, Note_on_c, 0, 74, 64
2, 4005, Note_on_c, 0, 62, 64
2, 4018, Note_on_c, 0, 62, 0
2, 4018, Note_on_c, 0, 74, 0
2, 4020, Note_on_c, 0, 69, 64
2, 4020, Note_on_c, 0, 54, 64
2, 4020, Note_on_c, 0, 57, 64
2, 4033, Note_on_c, 0, 57, 0
2, 4033, Note_on_c, 0, 54, 0
2, 4035, Note_on_c, 0, 62, 64
2, 4048, Note_on_c, 0, 62, 0
2, 4050, Note_on_c, 0, 54, 64
2, 4050, Note_on_c, 0, 57, 64
2, 4063, Note_on_c, 0, 57, 0
2, 4063, Note_on_c, 0, 54, 0
2, 4065, Note_on_c, 0, 62, 64
2, 4078, Note_on_c, 0, 62, 0
2, 4080, Note_on_c, 0, 54, 64
2, 4080, Note_on_c, 0, 57, 64
2, 4093, Note_on_c, 0, 57, 0
2, 4093, Note_on_c, 0, 54, 0
2, 4093, Note_on_c, 0, 69, 0
2, 4095, Note_on_c, 0, 71, 64
2, 4095, Note_on_c, 0, 62, 64
2, 4101, Note_on_c, 0, 71, 0
2, 4102, Note_on_c, 0, 69, 64
2, 4108, Note_on_c, 0, 62, 0
2, 4109, Note_on_c, 0, 69, 0
2, 4110, Note_on_c, 0, 71, 64
2, 4110, Note_on_c, 0, 54, 64
2, 4110, Note_on_c, 0, 57, 64
2, 4116, Note_on_c, 0, 71, 0
2, 4117, Note_on_c, 0, 69, 64
2, 4123, Note_on_c, 0, 57, 0
2, 4123, Note_on_c, 0, 54, 0
2, 4124, Note_on_c, 0, 69, 0
2, 4125, Note_on_c, 0, 72, 64
2, 4125, Note_on_c, 0, 62, 64
2, 4131, Note_on_c, 0, 72, 0
2, 4132, Note_on_c, 0, 71, 64
2, 4138, Note_on_c, 0, 62, 0
2, 4139, Note_on_c, 0, 71, 0
2, 4140, Note_on_c, 0, 72, 64
2, 4140, Note_on_c, 0, 55, 64
2, 4140, Note_on_c, 0, 59, 64
2, 4146, Note_on_c, 0, 72, 0
2, 4147, Note_on_c, 0, 71, 64
2, 4153, Note_on_c, 0, 59, 0
2, 4153, Note_on_c, 0, 55, 0
2, 4154, Note_on_c, 0, 71, 0
2, 4155, Note_on_c, 0, 74, 64
2, 4155, Note_on_c, 0, 62, 64
2, 4161, Note_on_c, 0, 74, 0
2, 4162, Note_on_c, 0, 73, 64
2, 4168, Note_on_c, 0, 62, 0
2, 4169, Note_on_c, 0, 73, 0
2, 4170, Note_on_c, 0, 74, 64
2, 4170, Note_on_c, 0, 55, 64
2, 4170, Note_on_c, 0, 59, 64
2, 4173, Note_on_c, 0, 74, 0
2, 4173, Note_on_c, 0, 73, 64
2, 4177, Note_on_c, 0, 73, 0
2, 4177, Note_on_c, 0, 76, 64
2, 4180, Note_on_c, 0, 76, 0
2, 4181, Note_on_c, 0, 74, 64
2, 4183, Note_on_c, 0, 59, 0
2, 4183, Note_on_c, 0, 55, 0
2, 4184, Note_on_c, 0, 74, 0
2, 4185, Note_on_c, 0, 67, 64
2, 4185, Note_on_c, 0, 62, 64
2, 4198, Note_on_c, 0, 62, 0
2, 4198, Note_on_c, 0, 67, 0
2, 4200, Note_on_c, 0, 67, 64
2, 4200, Note_on_c, 0, 57, 64
2, 4200, Note_on_c, 0, 60, 64
2, 4213, Note_on_c, 0, 60, 0
2, 4213, Note_on_c, 0, 57, 0
2, 4215, Note_on_c, 0, 62, 64
2, 4228, Note_on_c, 0, 62, 0
2, 4230, Note_on_c, 0, 57, 64
2, 4230, Note_on_c, 0, 60, 64
2, 4243, Note_on_c, 0, 60, 0
2, 4243, Note_on_c, 0, 57, 0
2, 4245, Note_on_c, 0, 62, 64
2, 4252, Note_on_c, 0, 67, 0
2, 4258, Note_on_c, 0, 62, 0
2, 4260, Note_on_c, 0, 67, 64
2, 4260, Note_on_c, 0, 57, 64
2, 4260, Note_on_c, 0, 60, 64
2, 4266, Note_on_c, 0, 67, 0
2, 4267, Note_on_c, 0, 66, 64
2, 4273, Note_on_c, 0, 60, 0
2, 4273, Note_on_c, 0, 57, 0
2, 4274, Note_on_c, 0, 66, 0
2, 4275, Note_on_c, 0, 67, 64
2, 4275, Note_on_c, 0, 62, 64
2, 4281, Note_on_c, 0, 67, 0
2, 4282, Note_on_c, 0, 66, 64
2, 4288, Note_on_c, 0, 62, 0
2, 4289, Note_on_c, 0, 66, 0
2, 4290, Note_on_c, 0, 64, 64
2, 4290, Note_on_c, 0, 57, 64
2, 4290, Note_on_c, 0, 60, 64
2, 4296, Note_on_c, 0, 64, 0
2, 4297, Note_on_c, 0, 66, 64
2, 4303, Note_on_c, 0, 60, 0
2, 4303, Note_on_c, 0, 57, 0
2, 4304, Note_on_c, 0, 66, 0
2, 4305, Note_on_c, 0, 67, 64
2, 4305, Note_on_c, 0, 62, 64
2, 4318, Note_on_c, 0, 62, 0
2, 4318, Note_on_c, 0, 67, 0
2, 4320, Note_on_c, 0, 69, 64
2, 4320, Note_on_c, 0, 57, 64
2, 4320, Note_on_c, 0, 60, 64
2, 4333, Note_on_c, 0, 60, 0
2, 4333, Note_on_c, 0, 57, 0
2, 4335, Note_on_c, 0, 62, 64
2, 4346, Note_on_c, 0, 69, 0
2, 4348, Note_on_c, 0, 62, 0
2, 4350, Note_on_c, 0, 70, 64
2, 4350, Note_on_c, 0, 55, 64
2, 4350, Note_on_c, 0, 59, 64
2, 4363, Note_on_c, 0, 59, 0
2, 4363, Note_on_c, 0, 55, 0
2, 4365, Note_on_c, 0, 62, 64
2, 4376, Note_on_c, 0, 70, 0
2, 4378, Note_on_c, 0, 62, 0
2, 4380, Note_on_c, 0, 72, 64
2, 4380, Note_on_c, 0, 54, 64
2, 4380, Note_on_c, 0, 57, 64
2, 4393, Note_on_c, 0, 57, 0
2, 4393, Note_on_c, 0, 54, 0
2, 4393, Note_on_c, 0, 72, 0
2, 4395, Note_on_c, 0, 73, 64
2, 4395, Note_on_c, 0, 62, 64
2, 4408, Note_on_c, 0, 62, 0
2, 4408, Note_on_c, 0, 73, 0
2, 4410, Note_on_c, 0, 73, 64
2, 4410, Note_on_c, 0, 54, 64
2, 4410, Note_on_c, 0, 57, 64
2, 4423, Note_on_c, 0, 57, 0
2, 4423, Note_on_c, 0, 54, 0
2, 4423, Note_on_c, 0, 73, 0
2, 4425, Note_on_c, 0, 74, 64
2, 4425, Note_on_c, 0, 62, 64
2, 4438, Note_on_c, 0, 62, 0
2, 4438, Note_on_c, 0, 74, 0
2, 4440, Note_on_c, 0, 74, 64
2, 4440, Note_on_c, 0, 55, 64
2, 4440, Note_on_c, 0, 58, 64
2, 4446, Note_on_c, 0, 58, 0
2, 4446, Note_on_c, 0, 55, 0
2, 4455, Note_on_c, 0, 62, 64
2, 4461, Note_on_c, 0, 62, 0
2, 4466, Note_on_c, 0, 74, 0
2, 4470, Note_on_c, 0, 74, 64
2, 4470, Note_on_c, 0, 82, 64
2, 4470, Note_on_c, 0, 66, 64
2, 4476, Note_on_c, 0, 66, 0
2, 4485, Note_on_c, 0, 67, 64
2, 4491, Note_on_c, 0, 67, 0
2, 4496, Note_on_c, 0, 82, 0
2, 4496, Note_on_c, 0, 74, 0
2, 4500, Note_on_c, 0, 62, 64
2, 4506, Note_on_c, 0, 62, 0
2, 4515, Note_on_c, 0, 58, 64
2, 4521, Note_on_c, 0, 58, 0
2, 4530, Note_on_c, 0, 74, 64
2, 4530, Note_on_c, 0, 82, 64
2, 4530, Note_on_c, 0, 57, 64
2, 4536, Note_on_c, 0, 57, 0
2, 4545, Note_on_c, 0, 55, 64
2, 4551, Note_on_c, 0, 55, 0
2, 4556, Note_on_c, 0, 82, 0
2, 4556, Note_on_c, 0, 74, 0
2, 4560, Note_on_c, 0, 50, 64
2, 4560, Note_on_c, 0, 54, 64
2, 4566, Note_on_c, 0, 54, 0
2, 4566, Note_on_c, 0, 50, 0
2, 4575, Note_on_c, 0, 57, 64
2, 4581, Note_on_c, 0, 57, 0
2, 4590, Note_on_c, 0, 72, 64
2, 4590, Note_on_c, 0, 81, 64
2, 4590, Note_on_c, 0, 60, 64
2, 4596, Note_on_c, 0, 60, 0
2, 4605, Note_on_c, 0, 50, 64
2, 4611, Note_on_c, 0, 50, 0
2, 4616, Note_on_c, 0, 81, 0
2, 4616, Note_on_c, 0, 72, 0
2, 4620, Note_on_c, 0, 51, 64
2, 4626, Note_on_c, 0, 51, 0
2, 4635, Note_on_c, 0, 55, 64
2, 4641, Note_on_c, 0, 55, 0
2, 4650, Note_on_c, 0, 70, 64
2, 4650, Note_on_c, 0, 79, 64
2, 4650, Note_on_c, 0, 58, 64
2, 4656, Note_on_c, 0, 58, 0
2, 4665, Note_on_c, 0, 51, 64
2, 4671, Note_on_c, 0, 51, 0
2, 4676, Note_on_c, 0, 79, 0
2, 4676, Note_on_c, 0, 70, 0
2, 4680, Note_on_c, 0, 51, 64
2, 4680, Note_on_c, 0, 55, 64
2, 4686, Note_on_c, 0, 55, 0
2, 4686, Note_on_c, 0, 51, 0
2, 4695, Note_on_c, 0, 58, 64
2, 4701, Note_on_c, 0, 58, 0
2, 4710, Note_on_c, 0, 67, 64
2, 4710, Note_on_c, 0, 70, 64
2, 4710, Note_on_c, 0, 79, 64
2, 4710, Note_on_c, 0, 62, 64
2, 4716, Note_on_c, 0, 62, 0
2, 4725, Note_on_c, 0, 63, 64
2, 4731, Note_on_c, 0, 63, 0
2, 4736, Note_on_c, 0, 79, 0
2, 4736, Note_on_c, 0, 70, 0
2, 4736, Note_on_c, 0, 67, 0
2, 4740, Note_on_c, 0, 58, 64
2, 4746, Note_on_c, 0, 58, 0
2, 4755, Note_on_c, 0, 55, 64
2, 4761, Note_on_c, 0, 55, 0
2, 4770, Note_on_c, 0, 67, 64
2, 4770, Note_on_c, 0, 75, 64
2, 4770, Note_on_c, 0, 79, 64
2, 4770, Note_on_c, 0, 53, 64
2, 4776, Note_on_c, 0, 53, 0
2, 4785, Note_on_c, 0, 51, 64
2, 4791, Note_on_c, 0, 51, 0
2, 4796, Note_on_c, 0, 79, 0
2, 4796, Note_on_c, 0, 75, 0
2, 4796, Note_on_c, 0, 67, 0
2, 4800, Note_on_c, 0, 43, 64
2, 4800, Note_on_c, 0, 47, 64
2, 4806, Note_on_c, 0, 47, 0
2, 4806, Note_on_c, 0, 43, 0
2, 4815, Note_on_c, 0, 50, 64
2, 4821, Note_on_c, 0, 50, 0
2, 4830, Note_on_c, 0, 67, 64
2, 4830, Note_on_c, 0, 74, 64
2, 4830, Note_on_c, 0, 77, 64
2, 4830, Note_on_c, 0, 55, 64
2, 4836, Note_on_c, 0, 55, 0
2, 4845, Note_on_c, 0, 47, 64
2, 4851, Note_on_c, 0, 47, 0
2, 4856, Note_on_c, 0, 77, 0
2, 4856, Note_on_c, 0, 74, 0
2, 4856, Note_on_c, 0, 67, 0
2, 4860, Note_on_c, 0, 48, 64
2, 4866, Note_on_c, 0, 48, 0
2, 4875, Note_on_c, 0, 51, 64
2, 4881, Note_on_c, 0, 51, 0
2, 4890, Note_on_c, 0, 67, 64
2, 4890, Note_on_c, 0, 72, 64
2, 4890, Note_on_c, 0, 75, 64
2, 4890, Note_on_c, 0, 55, 64
2, 4896, Note_on_c, 0, 55, 0
2, 4905, Note_on_c, 0, 48, 64
2, 4911, Note_on_c, 0, 48, 0
2, 4916, Note_on_c, 0, 75, 0
2, 4916, Note_on_c, 0, 72, 0
2, 4916, Note_on_c, 0, 67, 0
2, 4920, Note_on_c, 0, 77, 64
2, 4920, Note_on_c, 0, 67, 64
2, 4920, Note_on_c, 0, 70, 64
2, 4920, Note_on_c, 0, 73, 64
2, 4920, Note_on_c, 0, 46, 64
2, 4920, Note_on_c, 0, 61, 64
2, 4959, Note_on_c, 0, 77, 0
2, 4965, Note_on_c, 0, 76, 64
2, 4978, Note_on_c, 0, 76, 0
2, 4980, Note_on_c, 0, 79, 64
2, 4980, Note_on_c, 0, 52, 64
2, 5032, Note_on_c, 0, 52, 0
2, 5040, Note_on_c, 0, 55, 64
2, 5092, Note_on_c, 0, 55, 0
2, 5100, Note_on_c, 0, 52, 64
2, 5145, Note_on_c, 0, 79, 0
2, 5145, Note_on_c, 0, 46, 0
2, 5145, Note_on_c, 0, 70, 0
2, 5145, Note_on_c, 0, 73, 0
2, 5145, Note_on_c, 0, 67, 0
2, 5145, Note_on_c, 0, 61, 0
2, 5152, Note_on_c, 0, 52, 0
2, 5160, Note_on_c, 0, 77, 64
2, 5160, Note_on_c, 0, 67, 64
2, 5160, Note_on_c, 0, 70, 64
2, 5160, Note_on_c, 0, 73, 64
2, 5160, Note_on_c, 0, 46, 64
2, 5160, Note_on_c, 0, 61, 64
2, 5199, Note_on_c, 0, 77, 0
2, 5205, Note_on_c, 0, 76, 64
2, 5218, Note_on_c, 0, 76, 0
2, 5220, Note_on_c, 0, 79, 64
2, 5220, Note_on_c, 0, 52, 64
2, 5272, Note_on_c, 0, 52, 0
2, 5280, Note_on_c, 0, 55, 64
2, 5325, Note_on_c, 0, 70, 0
2, 5325, Note_on_c, 0, 67, 0
2, 5325, Note_on_c, 0, 46, 0
2, 5325, Note_on_c, 0, 73, 0
2, 5325, Note_on_c, 0, 79, 0
2, 5332, Note_on_c, 0, 55, 0
2, 5340, Note_on_c, 0, 79, 64
2, 5340, Note_on_c, 0, 73, 64
2, 5340, Note_on_c, 0, 52, 64
2, 5340, Note_on_c, 0, 46, 64
2, 5379, Note_on_c, 0, 79, 0
2, 5385, Note_on_c, 0, 85, 64
2, 5392, Note_on_c, 0, 52, 0
2, 5392, Note_on_c, 0, 46, 0
2, 5392, Note_on_c, 0, 61, 0
2, 5392, Note_on_c, 0, 73, 0
2, 5398, Note_on_c, 0, 85, 0
2, 5400, Note_on_c, 0, 85, 64
2, 5452, Note_on_c, 0, 85, 0
2, 5460, Note_on_c, 0, 84, 64
2, 5460, Note_on_c, 0, 72, 64
2, 5460, Note_on_c, 0, 44, 64
2, 5460, Note_on_c, 0, 48, 64
2, 5460, Note_on_c, 0, 53, 64
2, 5499, Note_on_c, 0, 84, 0
2, 5505, Note_on_c, 0, 77, 64
2, 5512, Note_on_c, 0, 48, 0
2, 5512, Note_on_c, 0, 53, 0
2, 5512, Note_on_c, 0, 72, 0
2, 5512, Note_on_c, 0, 44, 0
2, 5518, Note_on_c, 0, 77, 0
2, 5520, Note_on_c, 0, 77, 64
2, 5572, Note_on_c, 0, 77, 0
2, 5580, Note_on_c, 0, 76, 64
2, 5580, Note_on_c, 0, 70, 64
2, 5580, Note_on_c, 0, 48, 64
2, 5580, Note_on_c, 0, 55, 64
2, 5580, Note_on_c, 0, 64, 64
2, 5619, Note_on_c, 0, 76, 0
2, 5625, Note_on_c, 0, 79, 64
2, 5632, Note_on_c, 0, 55, 0
2, 5632, Note_on_c, 0, 64, 0
2, 5632, Note_on_c, 0, 70, 0
2, 5632, Note_on_c, 0, 48, 0
2, 5638, Note_on_c, 0, 79, 0
2, 5640, Note_on_c, 0, 79, 64
2, 5666, Note_on_c, 0, 79, 0
2, 5670, Note_on_c, 0, 80, 64
2, 5700, Note_on_c, 0, 68, 64
2, 5700, Note_on_c, 0, 53, 64
2, 5700, Note_on_c, 0, 65, 64
2, 5752, Note_on_c, 0, 65, 0
2, 5752, Note_on_c, 0, 53, 0
2, 5752, Note_on_c, 0, 68, 0
2, 5760, Note_on_c, 0, 68, 64
2, 5760, Note_on_c, 0, 53, 64
2, 5760, Note_on_c, 0, 65, 64
2, 5786, Note_on_c, 0, 65, 0
2, 5786, Note_on_c, 0, 80, 0
2, 5786, Note_on_c, 0, 68, 0
2, 5786, Note_on_c, 0, 53, 0
2, 5790, Note_on_c, 0, 73, 64
2, 5790, Note_on_c, 0, 65, 64
2, 5790, Note_on_c, 0, 68, 64
2, 5816, Note_on_c, 0, 68, 0
2, 5816, Note_on_c, 0, 65, 0
2, 5816, Note_on_c, 0, 73, 0
2, 5820, Note_on_c, 0, 72, 64
2, 5820, Note_on_c, 0, 63, 64
2, 5820, Note_on_c, 0, 66, 64
2, 5820, Note_on_c, 0, 68, 64
2, 5846, Note_on_c, 0, 68, 0
2, 5846, Note_on_c, 0, 72, 0
2, 5846, Note_on_c, 0, 63, 0
2, 5846, Note_on_c, 0, 66, 0
2, 5850, Note_on_c, 0, 73, 64
2, 5850, Note_on_c, 0, 61, 64
2, 5850, Note_on_c, 0, 65, 64
2, 5850, Note_on_c, 0, 68, 64
2, 5876, Note_on_c, 0, 68, 0
2, 5876, Note_on_c, 0, 73, 0
2, 5876, Note_on_c, 0, 61, 0
2, 5876, Note_on_c, 0, 65, 0
2, 5880, Note_on_c, 0, 67, 64
2, 5880, Note_on_c, 0, 77, 64
2, 5880, Note_on_c, 0, 75, 64
2, 5880, Note_on_c, 0, 60, 64
2, 5880, Note_on_c, 0, 63, 64
2, 5880, Note_on_c, 0, 68, 64
2, 5893, Note_on_c, 0, 75, 0
2, 5895, Note_on_c, 0, 77, 64
2, 5908, Note_on_c, 0, 77, 0
2, 5910, Note_on_c, 0, 75, 64
2, 5923, Note_on_c, 0, 75, 0
2, 5925, Note_on_c, 0, 74, 64
2, 5932, Note_on_c, 0, 77, 0
2, 5932, Note_on_c, 0, 63, 0
2, 5932, Note_on_c, 0, 60, 0
2, 5932, Note_on_c, 0, 67, 0
2, 5932, Note_on_c, 0, 68, 0
2, 5938, Note_on_c, 0, 74, 0
2, 5940, Note_on_c, 0, 75, 64
2, 5940, Note_on_c, 0, 60, 64
2, 5940, Note_on_c, 0, 63, 64
2, 5940, Note_on_c, 0, 69, 64
2, 5979, Note_on_c, 0, 75, 0
2, 5985, Note_on_c, 0, 77, 64
2, 5998, Note_on_c, 0, 77, 0
2, 6000, Note_on_c, 0, 78, 64
2, 6026, Note_on_c, 0, 69, 0
2, 6026, Note_on_c, 0, 60, 0
2, 6026, Note_on_c, 0, 63, 0
2, 6030, Note_on_c, 0, 58, 64
2, 6030, Note_on_c, 0, 61, 64
2, 6030, Note_on_c, 0, 66, 64
2, 6056, Note_on_c, 0, 66, 0
2, 6056, Note_on_c, 0, 61, 0
2, 6056, Note_on_c, 0, 58, 0
2, 6060, Note_on_c, 0, 57, 64
2, 6060, Note_on_c, 0, 60, 64
2, 6060, Note_on_c, 0, 65, 64
2, 6073, Note_on_c, 0, 78, 0
2, 6075, Note_on_c, 0, 77, 64
2, 6086, Note_on_c, 0, 57, 0
2, 6086, Note_on_c, 0, 65, 0
2, 6086, Note_on_c, 0, 60, 0
2, 6088, Note_on_c, 0, 77, 0
2, 6090, Note_on_c, 0, 87, 64
2, 6090, Note_on_c, 0, 57, 64
2, 6090, Note_on_c, 0, 60, 64
2, 6090, Note_on_c, 0, 65, 64
2, 6103, Note_on_c, 0, 87, 0
2, 6105, Note_on_c, 0, 84, 64
2, 6116, Note_on_c, 0, 57, 0
2, 6116, Note_on_c, 0, 65, 0
2, 6116, Note_on_c, 0, 60, 0
2, 6118, Note_on_c, 0, 84, 0
2, 6120, Note_on_c, 0, 84, 64
2, 6120, Note_on_c, 0, 57, 64
2, 6120, Note_on_c, 0, 60, 64
2, 6120, Note_on_c, 0, 65, 64
2, 6172, Note_on_c, 0, 65, 0
2, 6172, Note_on_c, 0, 60, 0
2, 6172, Note_on_c, 0, 57, 0
2, 6180, Note_on_c, 0, 58, 64
2, 6180, Note_on_c, 0, 61, 64
2, 6180, Note_on_c, 0, 65, 64
2, 6198, Note_on_c, 0, 84, 0
2, 6210, Note_on_c, 0, 87, 64
2, 6223, Note_on_c, 0, 87, 0
2, 6225, Note_on_c, 0, 85, 64
2, 6232, Note_on_c, 0, 65, 0
2, 6232, Note_on_c, 0, 58, 0
2, 6232, Note_on_c, 0, 61, 0
2, 6238, Note_on_c, 0, 85, 0
2, 6300, Note_on_c, 0, 66, 64
2, 6326, Note_on_c, 0, 66, 0
2, 6330, Note_on_c, 0, 65, 64
2, 6356, Note_on_c, 0, 65, 0
2, 6360, Note_on_c, 0, 65, 64
2, 6360, Note_on_c, 0, 55, 64
2, 6360, Note_on_c, 0, 58, 64
2, 6360, Note_on_c, 0, 61, 64
2, 6360, Note_on_c, 0, 49, 64
2, 6360, Note_on_c, 0, 36, 64
2, 6399, Note_on_c, 0, 65, 0
2, 6405, Note_on_c, 0, 64, 64
2, 6412, Note_on_c, 0, 49, 0
2, 6418, Note_on_c, 0, 64, 0
2, 6420, Note_on_c, 0, 67, 64
2, 6420, Note_on_c, 0, 40, 64
2, 6472, Note_on_c, 0, 40, 0
2, 6480, Note_on_c, 0, 43, 64
2, 6525, Note_on_c, 0, 36, 0
2, 6525, Note_on_c, 0, 61, 0
2, 6525, Note_on_c, 0, 58, 0
2, 6525, Note_on_c, 0, 55, 0
2, 6525, Note_on_c, 0, 67, 0
2, 6532, Note_on_c, 0, 43, 0
2, 6540, Note_on_c, 0, 67, 64
2, 6540, Note_on_c, 0, 56, 64
2, 6540, Note_on_c, 0, 60, 64
2, 6540, Note_on_c, 0, 32, 64
2, 6540, Note_on_c, 0, 36, 64
2, 6540, Note_on_c, 0, 44, 64
2, 6579, Note_on_c, 0, 67, 0
2, 6585, Note_on_c, 0, 65, 64
2, 6592, Note_on_c, 0, 60, 0
2, 6592, Note_on_c, 0, 36, 0
2, 6592, Note_on_c, 0, 32, 0
2, 6592, Note_on_c, 0, 56, 0
2, 6592, Note_on_c, 0, 44, 0
2, 6598, Note_on_c, 0, 65, 0
2, 6600, Note_on_c, 0, 65, 64
2, 6600, Note_on_c, 0, 31, 64
2, 6600, Note_on_c, 0, 36, 64
2, 6600, Note_on_c, 0, 43, 64
2, 6639, Note_on_c, 0, 65, 0
2, 6645, Note_on_c, 0, 64, 64
2, 6652, Note_on_c, 0, 31, 0
2, 6652, Note_on_c, 0, 43, 0
2, 6652, Note_on_c, 0, 36, 0
2, 6658, Note_on_c, 0, 64, 0
2, 6660, Note_on_c, 0, 67, 64
2, 6660, Note_on_c, 0, 29, 64
2, 6660, Note_on_c, 0, 36, 64
2, 6660, Note_on_c, 0, 41, 64
2, 6699, Note_on_c, 0, 67, 0
2, 6705, Note_on_c, 0, 65, 64
2, 6712, Note_on_c, 0, 29, 0
2, 6712, Note_on_c, 0, 41, 0
2, 6712, Note_on_c, 0, 36, 0
2, 6718, Note_on_c, 0, 65, 0
2, 6720, Note_on_c, 0, 68, 64
2, 6720, Note_on_c, 0, 28, 64
2, 6720, Note_on_c, 0, 36, 64
2, 6720, Note_on_c, 0, 40, 64
2, 6759, Note_on_c, 0, 68, 0
2, 6765, Note_on_c, 0, 67, 64
2, 6772, Note_on_c, 0, 28, 0
2, 6772, Note_on_c, 0, 40, 0
2, 6772, Note_on_c, 0, 36, 0
2, 6778, Note_on_c, 0, 67, 0
2, 6780, Note_on_c, 0, 64, 64
2, 6793, Note_on_c, 0, 64, 0
2, 6795, Note_on_c, 0, 67, 64
2, 6808, Note_on_c, 0, 67, 0
2, 6810, Note_on_c, 0, 70, 64
2, 6823, Note_on_c, 0, 70, 0
2, 6825, Note_on_c, 0, 73, 64
2, 6838, Note_on_c, 0, 73, 0
2, 6840, Note_on_c, 0, 72, 64
2, 6853, Note_on_c, 0, 72, 0
2, 6855, Note_on_c, 0, 70, 64
2, 6868, Note_on_c, 0, 70, 0
2, 6870, Note_on_c, 0, 68, 64
2, 6883, Note_on_c, 0, 68, 0
2, 6885, Note_on_c, 0, 67, 64
2, 6898, Note_on_c, 0, 67, 0
2, 6900, Note_on_c, 0, 70, 64
2, 6913, Note_on_c, 0, 70, 0
2, 6915, Note_on_c, 0, 76, 64
2, 6928, Note_on_c, 0, 76, 0
2, 6930, Note_on_c, 0, 79, 64
2, 6943, Note_on_c, 0, 79, 0
2, 6945, Note_on_c, 0, 82, 64
2, 6958, Note_on_c, 0, 82, 0
2, 6960, Note_on_c, 0, 80, 64
2, 6973, Note_on_c, 0, 80, 0
2, 6975, Note_on_c, 0, 79, 64
2, 6988, Note_on_c, 0, 79, 0
2, 6990, Note_on_c, 0, 77, 64
2, 7003, Note_on_c, 0, 77, 0
2, 7005, Note_on_c, 0, 76, 64
2, 7018, Note_on_c, 0, 76, 0
2, 7020, Note_on_c, 0, 79, 64
2, 7033, Note_on_c, 0, 79, 0
2, 7035, Note_on_c, 0, 82, 64
2, 7048, Note_on_c, 0, 82, 0
2, 7050, Note_on_c, 0, 84, 64
2, 7063, Note_on_c, 0, 84, 0
2, 7065, Note_on_c, 0, 85, 64
2, 7078, Note_on_c, 0, 85, 0
2, 7080, Note_on_c, 0, 84, 64
2, 7093, Note_on_c, 0, 84, 0
2, 7095, Note_on_c, 0, 82, 64
2, 7108, Note_on_c, 0, 82, 0
2, 7110, Note_on_c, 0, 80, 64
2, 7123, Note_on_c, 0, 80, 0
2, 7125, Note_on_c, 0, 79, 64
2, 7138, Note_on_c, 0, 79, 0
2, 7140, Note_on_c, 0, 82, 64
2, 7153, Note_on_c, 0, 82, 0
2, 7155, Note_on_c, 0, 79, 64
2, 7168, Note_on_c, 0, 79, 0
2, 7170, Note_on_c, 0, 77, 64
2, 7183, Note_on_c, 0, 77, 0
2, 7185, Note_on_c, 0, 76, 64
2, 7198, Note_on_c, 0, 76, 0
2, 7200, Note_on_c, 0, 82, 64
2, 7213, Note_on_c, 0, 82, 0
2, 7215, Note_on_c, 0, 79, 64
2, 7228, Note_on_c, 0, 79, 0
2, 7230, Note_on_c, 0, 77, 64
2, 7243, Note_on_c, 0, 77, 0
2, 7245, Note_on_c, 0, 76, 64
2, 7258, Note_on_c, 0, 76, 0
2, 7260, Note_on_c, 0, 79, 64
2, 7260, Note_on_c, 0, 91, 64
2, 7266, Note_on_c, 0, 91, 0
2, 7266, Note_on_c, 0, 79, 0
2, 7275, Note_on_c, 0, 76, 64
2, 7275, Note_on_c, 0, 88, 64
2, 7281, Note_on_c, 0, 88, 0
2, 7281, Note_on_c, 0, 76, 0
2, 7290, Note_on_c, 0, 73, 64
2, 7290, Note_on_c, 0, 85, 64
2, 7296, Note_on_c, 0, 85, 0
2, 7296, Note_on_c, 0, 73, 0
2, 7305, Note_on_c, 0, 72, 64
2, 7305, Note_on_c, 0, 84, 64
2, 7311, Note_on_c, 0, 84, 0
2, 7311, Note_on_c, 0, 72, 0
2, 7320, Note_on_c, 0, 72, 64
2, 7320, Note_on_c, 0, 84, 64
2, 7320, Note_on_c, 0, 52, 64
2, 7320, Note_on_c, 0, 55, 64
2, 7333, Note_on_c, 0, 55, 0
2, 7333, Note_on_c, 0, 52, 0
2, 7335, Note_on_c, 0, 60, 64
2, 7348, Note_on_c, 0, 60, 0
2, 7350, Note_on_c, 0, 52, 64
2, 7350, Note_on_c, 0, 55, 64
2, 7363, Note_on_c, 0, 55, 0
2, 7363, Note_on_c, 0, 52, 0
2, 7365, Note_on_c, 0, 60, 64
2, 7372, Note_on_c, 0, 72, 0
2, 7378, Note_on_c, 0, 60, 0
2, 7380, Note_on_c, 0, 84, 0
2, 7380, Note_on_c, 0, 67, 64
2, 7380, Note_on_c, 0, 79, 64
2, 7380, Note_on_c, 0, 52, 64
2, 7380, Note_on_c, 0, 55, 64
2, 7393, Note_on_c, 0, 55, 0
2, 7393, Note_on_c, 0, 52, 0
2, 7395, Note_on_c, 0, 60, 64
2, 7408, Note_on_c, 0, 60, 0
2, 7410, Note_on_c, 0, 52, 64
2, 7410, Note_on_c, 0, 55, 64
2, 7423, Note_on_c, 0, 55, 0
2, 7423, Note_on_c, 0, 52, 0
2, 7425, Note_on_c, 0, 60, 64
2, 7438, Note_on_c, 0, 60, 0
2, 7440, Note_on_c, 0, 52, 64
2, 7440, Note_on_c, 0, 55, 64
2, 7453, Note_on_c, 0, 55, 0
2, 7453, Note_on_c, 0, 52, 0
2, 7455, Note_on_c, 0, 60, 64
2, 7468, Note_on_c, 0, 60, 0
2, 7470, Note_on_c, 0, 52, 64
2, 7470, Note_on_c, 0, 55, 64
2, 7483, Note_on_c, 0, 55, 0
2, 7483, Note_on_c, 0, 52, 0
2, 7485, Note_on_c, 0, 60, 64
2, 7492, Note_on_c, 0, 79, 0
2, 7492, Note_on_c, 0, 67, 0
2, 7498, Note_on_c, 0, 60, 0
2, 7500, Note_on_c, 0, 69, 64
2, 7500, Note_on_c, 0, 81, 64
2, 7500, Note_on_c, 0, 53, 64
2, 7500, Note_on_c, 0, 57, 64
2, 7513, Note_on_c, 0, 57, 0
2, 7513, Note_on_c, 0, 53, 0
2, 7515, Note_on_c, 0, 60, 64
2, 7526, Note_on_c, 0, 69, 0
2, 7528, Note_on_c, 0, 60, 0
2, 7530, Note_on_c, 0, 81, 0
2, 7530, Note_on_c, 0, 65, 64
2, 7530, Note_on_c, 0, 77, 64
2, 7530, Note_on_c, 0, 53, 64
2, 7530, Note_on_c, 0, 57, 64
2, 7543, Note_on_c, 0, 57, 0
2, 7543, Note_on_c, 0, 53, 0
2, 7545, Note_on_c, 0, 60, 64
2, 7556, Note_on_c, 0, 77, 0
2, 7556, Note_on_c, 0, 65, 0
2, 7558, Note_on_c, 0, 60, 0
2, 7560, Note_on_c, 0, 67, 64
2, 7560, Note_on_c, 0, 77, 64
2, 7560, Note_on_c, 0, 76, 64
2, 7560, Note_on_c, 0, 55, 64
2, 7560, Note_on_c, 0, 58, 64
2, 7573, Note_on_c, 0, 58, 0
2, 7573, Note_on_c, 0, 76, 0
2, 7573, Note_on_c, 0, 55, 0
2, 7575, Note_on_c, 0, 77, 64
2, 7575, Note_on_c, 0, 60, 64
2, 7588, Note_on_c, 0, 60, 0
2, 7588, Note_on_c, 0, 77, 0
2, 7590, Note_on_c, 0, 76, 64
2, 7590, Note_on_c, 0, 55, 64
2, 7590, Note_on_c, 0, 58, 64
2, 7603, Note_on_c, 0, 58, 0
2, 7603, Note_on_c, 0, 76, 0
2, 7603, Note_on_c, 0, 55, 0
2, 7605, Note_on_c, 0, 74, 64
2, 7605, Note_on_c, 0, 60, 64
2, 7612, Note_on_c, 0, 77, 0
2, 7612, Note_on_c, 0, 67, 0
2, 7618, Note_on_c, 0, 74, 0
2, 7618, Note_on_c, 0, 60, 0
2, 7620, Note_on_c, 0, 76, 64
2, 7620, Note_on_c, 0, 64, 64
2, 7620, Note_on_c, 0, 55, 64
2, 7620, Note_on_c, 0, 58, 64
2, 7633, Note_on_c, 0, 58, 0
2, 7633, Note_on_c, 0, 55, 0
2, 7635, Note_on_c, 0, 60, 64
2, 7646, Note_on_c, 0, 64, 0
2, 7646, Note_on_c, 0, 76, 0
2, 7648, Note_on_c, 0, 60, 0
2, 7650, Note_on_c, 0, 65, 64
2, 7650, Note_on_c, 0, 77, 64
2, 7650, Note_on_c, 0, 55, 64
2, 7650, Note_on_c, 0, 58, 64
2, 7663, Note_on_c, 0, 58, 0
2, 7663, Note_on_c, 0, 55, 0
2, 7665, Note_on_c, 0, 60, 64
2, 7676, Note_on_c, 0, 77, 0
2, 7676, Note_on_c, 0, 65, 0
2, 7678, Note_on_c, 0, 60, 0
2, 7680, Note_on_c, 0, 67, 64
2, 7680, Note_on_c, 0, 79, 64
2, 7680, Note_on_c, 0, 55, 64
2, 7680, Note_on_c, 0, 58, 64
2, 7693, Note_on_c, 0, 58, 0
2, 7693, Note_on_c, 0, 55, 0
2, 7695, Note_on_c, 0, 79, 0
2, 7695, Note_on_c, 0, 67, 0
2, 7695, Note_on_c, 0, 60, 64
2, 7708, Note_on_c, 0, 60, 0
2, 7710, Note_on_c, 0, 69, 64
2, 7710, Note_on_c, 0, 81, 64
2, 7710, Note_on_c, 0, 53, 64
2, 7710, Note_on_c, 0, 57, 64
2, 7723, Note_on_c, 0, 57, 0
2, 7723, Note_on_c, 0, 69, 0
2, 7723, Note_on_c, 0, 81, 0
2, 7723, Note_on_c, 0, 53, 0
2, 7725, Note_on_c, 0, 60, 64
2, 7738, Note_on_c, 0, 60, 0
2, 7740, Note_on_c, 0, 70, 64
2, 7740, Note_on_c, 0, 82, 64
2, 7740, Note_on_c, 0, 52, 64
2, 7740, Note_on_c, 0, 55, 64
2, 7753, Note_on_c, 0, 55, 0
2, 7753, Note_on_c, 0, 52, 0
2, 7753, Note_on_c, 0, 70, 0
2, 7755, Note_on_c, 0, 82, 0
2, 7755, Note_on_c, 0, 71, 64
2, 7755, Note_on_c, 0, 83, 64
2, 7755, Note_on_c, 0, 60, 64
2, 7768, Note_on_c, 0, 60, 0
2, 7768, Note_on_c, 0, 83, 0
2, 7768, Note_on_c, 0, 71, 0
2, 7770, Note_on_c, 0, 71, 64
2, 7770, Note_on_c, 0, 83, 64
2, 7770, Note_on_c, 0, 52, 64
2, 7770, Note_on_c, 0, 55, 64
2, 7783, Note_on_c, 0, 55, 0
2, 7783, Note_on_c, 0, 52, 0
2, 7783, Note_on_c, 0, 71, 0
2, 7785, Note_on_c, 0, 83, 0
2, 7785, Note_on_c, 0, 72, 64
2, 7785, Note_on_c, 0, 84, 64
2, 7785, Note_on_c, 0, 60, 64
2, 7798, Note_on_c, 0, 60, 0
2, 7798, Note_on_c, 0, 84, 0
2, 7798, Note_on_c, 0, 72, 0
2, 7800, Note_on_c, 0, 83, 64
2, 7800, Note_on_c, 0, 52, 64
2, 7800, Note_on_c, 0, 55, 64
2, 7813, Note_on_c, 0, 55, 0
2, 7813, Note_on_c, 0, 52, 0
2, 7813, Note_on_c, 0, 83, 0
2, 7815, Note_on_c, 0, 84, 64
2, 7815, Note_on_c, 0, 60, 64
2, 7828, Note_on_c, 0, 60, 0
2, 7828, Note_on_c, 0, 84, 0
2, 7830, Note_on_c, 0, 86, 64
2, 7830, Note_on_c, 0, 52, 64
2, 7830, Note_on_c, 0, 55, 64
2, 7843, Note_on_c, 0, 55, 0
2, 7843, Note_on_c, 0, 52, 0
2, 7843, Note_on_c, 0, 86, 0
2, 7845, Note_on_c, 0, 84, 64
2, 7845, Note_on_c, 0, 60, 64
2, 7858, Note_on_c, 0, 60, 0
2, 7858, Note_on_c, 0, 84, 0
2, 7860, Note_on_c, 0, 79, 64
2, 7860, Note_on_c, 0, 52, 64
2, 7860, Note_on_c, 0, 55, 64
2, 7873, Note_on_c, 0, 55, 0
2, 7873, Note_on_c, 0, 52, 0
2, 7875, Note_on_c, 0, 60, 64
2, 7888, Note_on_c, 0, 60, 0
2, 7890, Note_on_c, 0, 52, 64
2, 7890, Note_on_c, 0, 55, 64
2, 7903, Note_on_c, 0, 55, 0
2, 7903, Note_on_c, 0, 52, 0
2, 7905, Note_on_c, 0, 60, 64
2, 7912, Note_on_c, 0, 79, 0
2, 7918, Note_on_c, 0, 60, 0
2, 7920, Note_on_c, 0, 79, 64
2, 7920, Note_on_c, 0, 52, 64
2, 7920, Note_on_c, 0, 55, 64
2, 7933, Note_on_c, 0, 55, 0
2, 7933, Note_on_c, 0, 52, 0
2, 7933, Note_on_c, 0, 79, 0
2, 7935, Note_on_c, 0, 81, 64
2, 7935, Note_on_c, 0, 60, 64
2, 7941, Note_on_c, 0, 81, 0
2, 7942, Note_on_c, 0, 79, 64
2, 7948, Note_on_c, 0, 60, 0
2, 7949, Note_on_c, 0, 79, 0
2, 7950, Note_on_c, 0, 81, 64
2, 7950, Note_on_c, 0, 52, 64
2, 7950, Note_on_c, 0, 55, 64
2, 7956, Note_on_c, 0, 81, 0
2, 7957, Note_on_c, 0, 79, 64
2, 7963, Note_on_c, 0, 55, 0
2, 7963, Note_on_c, 0, 52, 0
2, 7964, Note_on_c, 0, 79, 0
2, 7965, Note_on_c, 0, 82, 64
2, 7965, Note_on_c, 0, 60, 64
2, 7971, Note_on_c, 0, 82, 0
2, 7972, Note_on_c, 0, 81, 64
2, 7978, Note_on_c, 0, 60, 0
2, 7979, Note_on_c, 0, 81, 0
2, 7980, Note_on_c, 0, 82, 64
2, 7980, Note_on_c, 0, 53, 64
2, 7980, Note_on_c, 0, 57, 64
2, 7986, Note_on_c, 0, 82, 0
2, 7987, Note_on_c, 0, 81, 64
2, 7993, Note_on_c, 0, 57, 0
2, 7993, Note_on_c, 0, 53, 0
2, 7994, Note_on_c, 0, 81, 0
2, 7995, Note_on_c, 0, 84, 64
2, 7995, Note_on_c, 0, 60, 64
2, 8001, Note_on_c, 0, 84, 0
2, 8002, Note_on_c, 0, 83, 64
2, 8008, Note_on_c, 0, 60, 0
2, 8009, Note_on_c, 0, 83, 0
2, 8010, Note_on_c, 0, 84, 64
2, 8010, Note_on_c, 0, 53, 64
2, 8010, Note_on_c, 0, 57, 64
2, 8013, Note_on_c, 0, 84, 0
2, 8013, Note_on_c, 0, 83, 64
2, 8017, Note_on_c, 0, 83, 0
2, 8017, Note_on_c, 0, 86, 64
2, 8020, Note_on_c, 0, 86, 0
2, 8021, Note_on_c, 0, 84, 64
2, 8023, Note_on_c, 0, 57, 0
2, 8023, Note_on_c, 0, 53, 0
2, 8024, Note_on_c, 0, 84, 0
2, 8025, Note_on_c, 0, 89, 64
2, 8025, Note_on_c, 0, 60, 64
2, 8031, Note_on_c, 0, 89, 0
2, 8032, Note_on_c, 0, 77, 64
2, 8038, Note_on_c, 0, 60, 0
2, 8039, Note_on_c, 0, 77, 0
2, 8040, Note_on_c, 0, 67, 64
2, 8040, Note_on_c, 0, 77, 64
2, 8040, Note_on_c, 0, 76, 64
2, 8040, Note_on_c, 0, 55, 64
2, 8040, Note_on_c, 0, 58, 64
2, 8053, Note_on_c, 0, 58, 0
2, 8053, Note_on_c, 0, 76, 0
2, 8053, Note_on_c, 0, 55, 0
2, 8055, Note_on_c, 0, 77, 64
2, 8055, Note_on_c, 0, 60, 64
2, 8068, Note_on_c, 0, 60, 0
2, 8068, Note_on_c, 0, 77, 0
2, 8070, Note_on_c, 0, 76, 64
2, 8070, Note_on_c, 0, 55, 64
2, 8070, Note_on_c, 0, 58, 64
2, 8083, Note_on_c, 0, 58, 0
2, 8083, Note_on_c, 0, 76, 0
2, 8083, Note_on_c, 0, 55, 0
2, 8085, Note_on_c, 0, 74, 64
2, 8085, Note_on_c, 0, 60, 64
2, 8092, Note_on_c, 0, 77, 0
2, 8092, Note_on_c, 0, 67, 0
2, 8098, Note_on_c, 0, 74, 0
2, 8098, Note_on_c, 0, 60, 0
2, 8100, Note_on_c, 0, 76, 64
2, 8100, Note_on_c, 0, 64, 64
2, 8100, Note_on_c, 0, 55, 64
2, 8100, Note_on_c, 0, 58, 64
2, 8113, Note_on_c, 0, 58, 0
2, 8113, Note_on_c, 0, 55, 0
2, 8115, Note_on_c, 0, 60, 64
2, 8126, Note_on_c, 0, 64, 0
2, 8126, Note_on_c, 0, 76, 0
2, 8128, Note_on_c, 0, 60, 0
2, 8130, Note_on_c, 0, 65, 64
2, 8130, Note_on_c, 0, 77, 64
2, 8130, Note_on_c, 0, 55, 64
2, 8130, Note_on_c, 0, 58, 64
2, 8143, Note_on_c, 0, 58, 0
2, 8143, Note_on_c, 0, 55, 0
2, 8145, Note_on_c, 0, 60, 64
2, 8156, Note_on_c, 0, 77, 0
2, 8156, Note_on_c, 0, 65, 0
2, 8158, Note_on_c, 0, 60, 0
2, 8160, Note_on_c, 0, 67, 64
2, 8160, Note_on_c, 0, 79, 64
2, 8160, Note_on_c, 0, 55, 64
2, 8160, Note_on_c, 0, 58, 64
2, 8173, Note_on_c, 0, 58, 0
2, 8173, Note_on_c, 0, 55, 0
2, 8175, Note_on_c, 0, 79, 0
2, 8175, Note_on_c, 0, 67, 0
2, 8175, Note_on_c, 0, 60, 64
2, 8188, Note_on_c, 0, 60, 0
2, 8190, Note_on_c, 0, 68, 64
2, 8190, Note_on_c, 0, 80, 64
2, 8190, Note_on_c, 0, 53, 64
2, 8190, Note_on_c, 0, 57, 64
2, 8203, Note_on_c, 0, 57, 0
2, 8203, Note_on_c, 0, 68, 0
2, 8203, Note_on_c, 0, 80, 0
2, 8203, Note_on_c, 0, 53, 0
2, 8205, Note_on_c, 0, 60, 64
2, 8218, Note_on_c, 0, 60, 0
2, 8220, Note_on_c, 0, 70, 64
2, 8220, Note_on_c, 0, 82, 64
2, 8220, Note_on_c, 0, 52, 64
2, 8220, Note_on_c, 0, 55, 64
2, 8233, Note_on_c, 0, 55, 0
2, 8233, Note_on_c, 0, 52, 0
2, 8233, Note_on_c, 0, 70, 0
2, 8235, Note_on_c, 0, 82, 0
2, 8235, Note_on_c, 0, 71, 64
2, 8235, Note_on_c, 0, 83, 64
2, 8235, Note_on_c, 0, 60, 64
2, 8248, Note_on_c, 0, 60, 0
2, 8248, Note_on_c, 0, 83, 0
2, 8248, Note_on_c, 0, 71, 0
2, 8250, Note_on_c, 0, 71, 64
2, 8250, Note_on_c, 0, 83, 64
2, 8250, Note_on_c, 0, 52, 64
2, 8250, Note_on_c, 0, 55, 64
2, 8263, Note_on_c, 0, 55, 0
2, 8263, Note_on_c, 0, 52, 0
2, 8263, Note_on_c, 0, 71, 0
2, 8265, Note_on_c, 0, 83, 0
2, 8265, Note_on_c, 0, 72, 64
2, 8265, Note_on_c, 0, 84, 64
2, 8265, Note_on_c, 0, 60, 64
2, 8278, Note_on_c, 0, 60, 0
2, 8278, Note_on_c, 0, 84, 0
2, 8278, Note_on_c, 0, 72, 0
2, 8280, Note_on_c, 0, 72, 64
2, 8280, Note_on_c, 0, 80, 64
2, 8280, Note_on_c, 0, 84, 64
2, 8280, Note_on_c, 0, 53, 64
2, 8280, Note_on_c, 0, 56, 64
2, 8286, Note_on_c, 0, 56, 0
2, 8286, Note_on_c, 0, 53, 0
2, 8295, Note_on_c, 0, 60, 64
2, 8301, Note_on_c, 0, 60, 0
2, 8306, Note_on_c, 0, 84, 0
2, 8306, Note_on_c, 0, 80, 0
2, 8306, Note_on_c, 0, 72, 0
2, 8310, Note_on_c, 0, 80, 64
2, 8310, Note_on_c, 0, 84, 64
2, 8310, Note_on_c, 0, 92, 64
2, 8310, Note_on_c, 0, 64, 64
2, 8316, Note_on_c, 0, 64, 0
2, 8325, Note_on_c, 0, 65, 64
2, 8331, Note_on_c, 0, 65, 0
2, 8336, Note_on_c, 0, 92, 0
2, 8336, Note_on_c, 0, 84, 0
2, 8336, Note_on_c, 0, 80, 0
2, 8340, Note_on_c, 0, 60, 64
2, 8346, Note_on_c, 0, 60, 0
2, 8355, Note_on_c, 0, 56, 64
2, 8361, Note_on_c, 0, 56, 0
2, 8370, Note_on_c, 0, 72, 64
2, 8370, Note_on_c, 0, 80, 64
2, 8370, Note_on_c, 0, 55, 64
2, 8376, Note_on_c, 0, 55, 0
2, 8385, Note_on_c, 0, 53, 64
2, 8391, Note_on_c, 0, 53, 0
2, 8396, Note_on_c, 0, 80, 0
2, 8396, Note_on_c, 0, 72, 0
2, 8400, Note_on_c, 0, 48, 64
2, 8400, Note_on_c, 0, 52, 64
2, 8406, Note_on_c, 0, 52, 0
2, 8406, Note_on_c, 0, 48, 0
2, 8415, Note_on_c, 0, 55, 64
2, 8421, Note_on_c, 0, 55, 0
2, 8430, Note_on_c, 0, 70, 64
2, 8430, Note_on_c, 0, 79, 64
2, 8430, Note_on_c, 0, 58, 64
2, 8436, Note_on_c, 0, 58, 0
2, 8445, Note_on_c, 0, 48, 64
2, 8451, Note_on_c, 0, 48, 0
2, 8456, Note_on_c, 0, 79, 0
2, 8456, Note_on_c, 0, 70, 0
2, 8460, Note_on_c, 0, 49, 64
2, 8466, Note_on_c, 0, 49, 0
2, 8475, Note_on_c, 0, 53, 64
2, 8481, Note_on_c, 0, 53, 0
2, 8490, Note_on_c, 0, 68, 64
2, 8490, Note_on_c, 0, 77, 64
2, 8490, Note_on_c, 0, 56, 64
2, 8496, Note_on_c, 0, 56, 0
2, 8505, Note_on_c, 0, 49, 64
2, 8511, Note_on_c, 0, 49, 0
2, 8516, Note_on_c, 0, 77, 0
2, 8516, Note_on_c, 0, 68, 0
2, 8520, Note_on_c, 0, 68, 64
2, 8520, Note_on_c, 0, 77, 64
2, 8520, Note_on_c, 0, 49, 64
2, 8520, Note_on_c, 0, 53, 64
2, 8526, Note_on_c, 0, 53, 0
2, 8526, Note_on_c, 0, 49, 0
2, 8535, Note_on_c, 0, 56, 64
2, 8541, Note_on_c, 0, 56, 0
2, 8546, Note_on_c, 0, 77, 0
2, 8546, Note_on_c, 0, 68, 0
2, 8550, Note_on_c, 0, 77, 64
2, 8550, Note_on_c, 0, 80, 64
2, 8550, Note_on_c, 0, 89, 64
2, 8550, Note_on_c, 0, 60, 64
2, 8556, Note_on_c, 0, 60, 0
2, 8565, Note_on_c, 0, 61, 64
2, 8571, Note_on_c, 0, 61, 0
2, 8576, Note_on_c, 0, 89, 0
2, 8576, Note_on_c, 0, 80, 0
2, 8576, Note_on_c, 0, 77, 0
2, 8580, Note_on_c, 0, 56, 64
2, 8586, Note_on_c, 0, 56, 0
2, 8595, Note_on_c, 0, 53, 64
2, 8601, Note_on_c, 0, 53, 0
2, 8610, Note_on_c, 0, 65, 64
2, 8610, Note_on_c, 0, 68, 64
2, 8610, Note_on_c, 0, 77, 64
2, 8610, Note_on_c, 0, 51, 64
2, 8616, Note_on_c, 0, 51, 0
2, 8625, Note_on_c, 0, 49, 64
2, 8631, Note_on_c, 0, 49, 0
2, 8636, Note_on_c, 0, 77, 0
2, 8636, Note_on_c, 0, 68, 0
2, 8636, Note_on_c, 0, 65, 0
2, 8640, Note_on_c, 0, 41, 64
2, 8640, Note_on_c, 0, 45, 64
2, 8646, Note_on_c, 0, 45, 0
2, 8646, Note_on_c, 0, 41, 0
2, 8655, Note_on_c, 0, 47, 64
2, 8661, Note_on_c, 0, 47, 0
2, 8670, Note_on_c, 0, 65, 64
2, 8670, Note_on_c, 0, 72, 64
2, 8670, Note_on_c, 0, 75, 64
2, 8670, Note_on_c, 0, 53, 64
2, 8676, Note_on_c, 0, 53, 0
2, 8685, Note_on_c, 0, 45, 64
2, 8691, Note_on_c, 0, 45, 0
2, 8696, Note_on_c, 0, 75, 0
2, 8696, Note_on_c, 0, 72, 0
2, 8696, Note_on_c, 0, 65, 0
2, 8700, Note_on_c, 0, 46, 64
2, 8706, Note_on_c, 0, 46, 0
2, 8715, Note_on_c, 0, 49, 64
2, 8721, Note_on_c, 0, 49, 0
2, 8730, Note_on_c, 0, 65, 64
2, 8730, Note_on_c, 0, 70, 64
2, 8730, Note_on_c, 0, 73, 64
2, 8730, Note_on_c, 0, 53, 64
2, 8736, Note_on_c, 0, 53, 0
2, 8745, Note_on_c, 0, 46, 64
2, 8751, Note_on_c, 0, 46, 0
2, 8756, Note_on_c, 0, 73, 0
2, 8756, Note_on_c, 0, 70, 0
2, 8756, Note_on_c, 0, 65, 0
2, 8760, Note_on_c, 0, 62, 64
2, 8760, Note_on_c, 0, 65, 64
2, 8760, Note_on_c, 0, 68, 64
2, 8760, Note_on_c, 0, 72, 64
2, 8760, Note_on_c, 0, 56, 64
2, 8760, Note_on_c, 0, 43, 64
2, 8799, Note_on_c, 0, 72, 0
2, 8805, Note_on_c, 0, 71, 64
2, 8812, Note_on_c, 0, 56, 0
2, 8818, Note_on_c, 0, 71, 0
2, 8820, Note_on_c, 0, 74, 64
2, 8820, Note_on_c, 0, 47, 64
2, 8872, Note_on_c, 0, 47, 0
2, 8880, Note_on_c, 0, 50, 64
2, 8932, Note_on_c, 0, 50, 0
2, 8940, Note_on_c, 0, 47, 64
2, 8985, Note_on_c, 0, 74, 0
2, 8985, Note_on_c, 0, 68, 0
2, 8985, Note_on_c, 0, 65, 0
2, 8985, Note_on_c, 0, 62, 0
2, 8985, Note_on_c, 0, 43, 0
2, 8992, Note_on_c, 0, 47, 0
2, 9000, Note_on_c, 0, 74, 64
2, 9039, Note_on_c, 0, 74, 0
2, 9045, Note_on_c, 0, 71, 64
2, 9058, Note_on_c, 0, 71, 0
2, 9060, Note_on_c, 0, 74, 64
2, 9086, Note_on_c, 0, 74, 0
2, 9120, Note_on_c, 0, 74, 64
2, 9159, Note_on_c, 0, 74, 0
2, 9165, Note_on_c, 0, 72, 64
2, 9178, Note_on_c, 0, 72, 0
2, 9180, Note_on_c, 0, 75, 64
2, 9206, Note_on_c, 0, 75, 0
2, 9240, Note_on_c, 0, 75, 64
2, 9240, Note_on_c, 0, 65, 64
2, 9240, Note_on_c, 0, 68, 64
2, 9240, Note_on_c, 0, 47, 64
2, 9240, Note_on_c, 0, 62, 64
2, 9279, Note_on_c, 0, 75, 0
2, 9285, Note_on_c, 0, 74, 64
2, 9292, Note_on_c, 0, 62, 0
2, 9298, Note_on_c, 0, 74, 0
2, 9300, Note_on_c, 0, 77, 64
2, 9300, Note_on_c, 0, 53, 64
2, 9352, Note_on_c, 0, 53, 0
2, 9360, Note_on_c, 0, 56, 64
2, 9412, Note_on_c, 0, 56, 0
2, 9420, Note_on_c, 0, 53, 64
2, 9465, Note_on_c, 0, 77, 0
2, 9465, Note_on_c, 0, 65, 0
2, 9465, Note_on_c, 0, 47, 0
2, 9465, Note_on_c, 0, 68, 0
2, 9472, Note_on_c, 0, 53, 0
2, 9480, Note_on_c, 0, 75, 64
2, 9519, Note_on_c, 0, 75, 0
2, 9525, Note_on_c, 0, 74, 64
2, 9538, Note_on_c, 0, 74, 0
2, 9540, Note_on_c, 0, 77, 64
2, 9566, Note_on_c, 0, 77, 0
2, 9600, Note_on_c, 0, 77, 64
2, 9639, Note_on_c, 0, 77, 0
2, 9645, Note_on_c, 0, 75, 64
2, 9658, Note_on_c, 0, 75, 0
2, 9660, Note_on_c, 0, 79, 64
2, 9686, Note_on_c, 0, 79, 0
2, 9705, Note_on_c, 0, 46, 64
2, 9718, Note_on_c, 0, 46, 0
2, 9720, Note_on_c, 0, 68, 64
2, 9720, Note_on_c, 0, 74, 64
2, 9720, Note_on_c, 0, 79, 64
2, 9720, Note_on_c, 0, 62, 64
2, 9759, Note_on_c, 0, 74, 0
2, 9759, Note_on_c, 0, 68, 0
2, 9765, Note_on_c, 0, 79, 0
2, 9765, Note_on_c, 0, 77, 64
2, 9772, Note_on_c, 0, 62, 0
2, 9778, Note_on_c, 0, 77, 0
2, 9780, Note_on_c, 0, 80, 64
2, 9780, Note_on_c, 0, 53, 64
2, 9832, Note_on_c, 0, 53, 0
2, 9840, Note_on_c, 0, 62, 64
2, 9879, Note_on_c, 0, 80, 0
2, 9885, Note_on_c, 0, 77, 64
2, 9892, Note_on_c, 0, 62, 0
2, 9898, Note_on_c, 0, 77, 0
2, 9900, Note_on_c, 0, 86, 64
2, 9900, Note_on_c, 0, 53, 64
2, 9952, Note_on_c, 0, 53, 0
2, 9960, Note_on_c, 0, 65, 64
2, 9999, Note_on_c, 0, 86, 0
2, 10005, Note_on_c, 0, 80, 64
2, 10012, Note_on_c, 0, 65, 0
2, 10018, Note_on_c, 0, 80, 0
2, 10020, Note_on_c, 0, 89, 64
2, 10020, Note_on_c, 0, 62, 64
2, 10072, Note_on_c, 0, 62, 0
2, 10080, Note_on_c, 0, 68, 64
2, 10119, Note_on_c, 0, 89, 0
2, 10125, Note_on_c, 0, 86, 64
2, 10132, Note_on_c, 0, 68, 0
2, 10138, Note_on_c, 0, 86, 0
2, 10140, Note_on_c, 0, 92, 64
2, 10140, Note_on_c, 0, 65, 64
2, 10192, Note_on_c, 0, 65, 0
2, 10192, Note_on_c, 0, 92, 0
2, 10200, Note_on_c, 0, 80, 64
2, 10200, Note_on_c, 0, 86, 64
2, 10200, Note_on_c, 0, 89, 64
2, 10200, Note_on_c, 0, 92, 64
2, 10200, Note_on_c, 0, 58, 64
2, 10200, Note_on_c, 0, 62, 64
2, 10200, Note_on_c, 0, 65, 64
2, 10200, Note_on_c, 0, 68, 64
2, 10226, Note_on_c, 0, 68, 0
2, 10226, Note_on_c, 0, 80, 0
2, 10226, Note_on_c, 0, 58, 0
2, 10226, Note_on_c, 0, 86, 0
2, 10226, Note_on_c, 0, 89, 0
2, 10226, Note_on_c, 0, 92, 0
2, 10226, Note_on_c, 0, 62, 0
2, 10226, Note_on_c, 0, 65, 0
2, 10260, Note_on_c, 0, 58, 64
2, 10260, Note_on_c, 0, 46, 64
2, 10286, Note_on_c, 0, 46, 0
2, 10286, Note_on_c, 0, 58, 0
2, 10290, Note_on_c, 0, 57, 64
2, 10290, Note_on_c, 0, 50, 64
2, 10316, Note_on_c, 0, 50, 0
2, 10316, Note_on_c, 0, 57, 0
2, 10320, Note_on_c, 0, 58, 64
2, 10320, Note_on_c, 0, 46, 64
2, 10346, Note_on_c, 0, 46, 0
2, 10346, Note_on_c, 0, 58, 0
2, 10350, Note_on_c, 0, 62, 64
2, 10350, Note_on_c, 0, 50, 64
2, 10376, Note_on_c, 0, 50, 0
2, 10376, Note_on_c, 0, 62, 0
2, 10380, Note_on_c, 0, 65, 64
2, 10380, Note_on_c, 0, 50, 64
2, 10406, Note_on_c, 0, 50, 0
2, 10406, Note_on_c, 0, 65, 0
2, 10410, Note_on_c, 0, 62, 64
2, 10410, Note_on_c, 0, 53, 64
2, 10436, Note_on_c, 0, 53, 0
2, 10436, Note_on_c, 0, 62, 0
2, 10440, Note_on_c, 0, 65, 64
2, 10440, Note_on_c, 0, 50, 64
2, 10466, Note_on_c, 0, 50, 0
2, 10466, Note_on_c, 0, 65, 0
2, 10470, Note_on_c, 0, 68, 64
2, 10470, Note_on_c, 0, 53, 64
2, 10496, Note_on_c, 0, 53, 0
2, 10496, Note_on_c, 0, 68, 0
2, 10500, Note_on_c, 0, 65, 64
2, 10500, Note_on_c, 0, 50, 64
2, 10526, Note_on_c, 0, 50, 0
2, 10526, Note_on_c, 0, 65, 0
2, 10530, Note_on_c, 0, 62, 64
2, 10530, Note_on_c, 0, 53, 64
2, 10556, Note_on_c, 0, 53, 0
2, 10556, Note_on_c, 0, 62, 0
2, 10560, Note_on_c, 0, 68, 64
2, 10560, Note_on_c, 0, 53, 64
2, 10586, Note_on_c, 0, 53, 0
2, 10586, Note_on_c, 0, 68, 0
2, 10590, Note_on_c, 0, 65, 64
2, 10590, Note_on_c, 0, 56, 64
2, 10616, Note_on_c, 0, 56, 0
2, 10616, Note_on_c, 0, 65, 0
2, 10620, Note_on_c, 0, 68, 64
2, 10620, Note_on_c, 0, 53, 64
2, 10646, Note_on_c, 0, 53, 0
2, 10646, Note_on_c, 0, 68, 0
2, 10650, Note_on_c, 0, 70, 64
2, 10650, Note_on_c, 0, 56, 64
2, 10676, Note_on_c, 0, 56, 0
2, 10676, Note_on_c, 0, 70, 0
2, 10680, Note_on_c, 0, 68, 64
2, 10680, Note_on_c, 0, 53, 64
2, 10706, Note_on_c, 0, 53, 0
2, 10706, Note_on_c, 0, 68, 0
2, 10710, Note_on_c, 0, 65, 64
2, 10710, Note_on_c, 0, 56, 64
2, 10736, Note_on_c, 0, 56, 0
2, 10736, Note_on_c, 0, 65, 0
2, 10740, Note_on_c, 0, 70, 64
2, 10740, Note_on_c, 0, 58, 64
2, 10766, Note_on_c, 0, 58, 0
2, 10766, Note_on_c, 0, 70, 0
2, 10770, Note_on_c, 0, 68, 64
2, 10770, Note_on_c, 0, 62, 64
2, 10796, Note_on_c, 0, 62, 0
2, 10796, Note_on_c, 0, 68, 0
2, 10800, Note_on_c, 0, 70, 64
2, 10800, Note_on_c, 0, 58, 64
2, 10826, Note_on_c, 0, 58, 0
2, 10826, Note_on_c, 0, 70, 0
2, 10830, Note_on_c, 0, 74, 64
2, 10830, Note_on_c, 0, 62, 64
2, 10856, Note_on_c, 0, 62, 0
2, 10856, Note_on_c, 0, 74, 0
2, 10860, Note_on_c, 0, 70, 64
2, 10860, Note_on_c, 0, 58, 64
2, 10886, Note_on_c, 0, 58, 0
2, 10886, Note_on_c, 0, 70, 0
2, 10890, Note_on_c, 0, 68, 64
2, 10890, Note_on_c, 0, 62, 64
2, 10916, Note_on_c, 0, 62, 0
2, 10916, Note_on_c, 0, 68, 0
2, 10920, Note_on_c, 0, 77, 64
2, 10920, Note_on_c, 0, 62, 64
2, 10946, Note_on_c, 0, 62, 0
2, 10946, Note_on_c, 0, 77, 0
2, 10950, Note_on_c, 0, 74, 64
2, 10950, Note_on_c, 0, 65, 64
2, 10976, Note_on_c, 0, 65, 0
2, 10976, Note_on_c, 0, 74, 0
2, 10980, Note_on_c, 0, 77, 64
2, 10980, Note_on_c, 0, 62, 64
2, 11006, Note_on_c, 0, 62, 0
2, 11006, Note_on_c, 0, 77, 0
2, 11010, Note_on_c, 0, 80, 64
2, 11010, Note_on_c, 0, 65, 64
2, 11036, Note_on_c, 0, 65, 0
2, 11036, Note_on_c, 0, 80, 0
2, 11040, Note_on_c, 0, 77, 64
2, 11040, Note_on_c, 0, 62, 64
2, 11066, Note_on_c, 0, 62, 0
2, 11066, Note_on_c, 0, 77, 0
2, 11070, Note_on_c, 0, 74, 64
2, 11070, Note_on_c, 0, 65, 64
2, 11096, Note_on_c, 0, 65, 0
2, 11096, Note_on_c, 0, 74, 0
2, 11100, Note_on_c, 0, 80, 64
2, 11100, Note_on_c, 0, 65, 64
2, 11126, Note_on_c, 0, 65, 0
2, 11126, Note_on_c, 0, 80, 0
2, 11130, Note_on_c, 0, 77, 64
2, 11130, Note_on_c, 0, 68, 64
2, 11156, Note_on_c, 0, 68, 0
2, 11156, Note_on_c, 0, 77, 0
2, 11160, Note_on_c, 0, 80, 64
2, 11160, Note_on_c, 0, 65, 64
2, 11186, Note_on_c, 0, 65, 0
2, 11186, Note_on_c, 0, 80, 0
2, 11190, Note_on_c, 0, 82, 64
2, 11190, Note_on_c, 0, 68, 64
2, 11216, Note_on_c, 0, 68, 0
2, 11216, Note_on_c, 0, 82, 0
2, 11220, Note_on_c, 0, 80, 64
2, 11220, Note_on_c, 0, 65, 64
2, 11246, Note_on_c, 0, 65, 0
2, 11246, Note_on_c, 0, 80, 0
2, 11250, Note_on_c, 0, 77, 64
2, 11250, Note_on_c, 0, 68, 64
2, 11276, Note_on_c, 0, 68, 0
2, 11276, Note_on_c, 0, 77, 0
2, 11280, Note_on_c, 0, 82, 64
2, 11280, Note_on_c, 0, 74, 64
2, 11306, Note_on_c, 0, 74, 0
2, 11306, Note_on_c, 0, 82, 0
2, 11310, Note_on_c, 0, 80, 64
2, 11310, Note_on_c, 0, 77, 64
2, 11336, Note_on_c, 0, 77, 0
2, 11336, Note_on_c, 0, 80, 0
2, 11340, Note_on_c, 0, 82, 64
2, 11340, Note_on_c, 0, 74, 64
2, 11366, Note_on_c, 0, 74, 0
2, 11366, Note_on_c, 0, 82, 0
2, 11370, Note_on_c, 0, 86, 64
2, 11370, Note_on_c, 0, 77, 64
2, 11396, Note_on_c, 0, 77, 0
2, 11396, Note_on_c, 0, 86, 0
2, 11400, Note_on_c, 0, 82, 64
2, 11400, Note_on_c, 0, 74, 64
2, 11426, Note_on_c, 0, 74, 0
2, 11426, Note_on_c, 0, 82, 0
2, 11430, Note_on_c, 0, 80, 64
2, 11430, Note_on_c, 0, 77, 64
2, 11456, Note_on_c, 0, 77, 0
2, 11456, Note_on_c, 0, 80, 0
2, 11460, Note_on_c, 0, 86, 64
2, 11460, Note_on_c, 0, 77, 64
2, 11486, Note_on_c, 0, 77, 0
2, 11486, Note_on_c, 0, 86, 0
2, 11490, Note_on_c, 0, 82, 64
2, 11490, Note_on_c, 0, 80, 64
2, 11516, Note_on_c, 0, 80, 0
2, 11516, Note_on_c, 0, 82, 0
2, 11520, Note_on_c, 0, 86, 64
2, 11520, Note_on_c, 0, 77, 64
2, 11546, Note_on_c, 0, 77, 0
2, 11546, Note_on_c, 0, 86, 0
2, 11550, Note_on_c, 0, 89, 64
2, 11550, Note_on_c, 0, 80, 64
2, 11576, Note_on_c, 0, 80, 0
2, 11576, Note_on_c, 0, 89, 0
2, 11580, Note_on_c, 0, 86, 64
2, 11580, Note_on_c, 0, 77, 64
2, 11606, Note_on_c, 0, 77, 0
2, 11606, Note_on_c, 0, 86, 0
2, 11610, Note_on_c, 0, 82, 64
2, 11610, Note_on_c, 0, 80, 64
2, 11636, Note_on_c, 0, 80, 0
2, 11636, Note_on_c, 0, 82, 0
2, 11640, Note_on_c, 0, 89, 64
2, 11666, Note_on_c, 0, 89, 0
2, 11670, Note_on_c, 0, 86, 64
2, 11696, Note_on_c, 0, 86, 0
2, 11700, Note_on_c, 0, 89, 64
2, 11726, Note_on_c, 0, 89, 0
2, 11730, Note_on_c, 0, 92, 64
2, 11756, Note_on_c, 0, 92, 0
2, 11760, Note_on_c, 0, 89, 64
2, 11760, Note_on_c, 0, 77, 64
2, 11760, Note_on_c, 0, 80, 64
2, 11786, Note_on_c, 0, 89, 0
2, 11790, Note_on_c, 0, 86, 64
2, 11812, Note_on_c, 0, 80, 0
2, 11812, Note_on_c, 0, 77, 0
2, 11816, Note_on_c, 0, 86, 0
2, 11820, Note_on_c, 0, 82, 64
2, 11820, Note_on_c, 0, 74, 64
2, 11820, Note_on_c, 0, 77, 64
2, 11846, Note_on_c, 0, 82, 0
2, 11850, Note_on_c, 0, 81, 64
2, 11876, Note_on_c, 0, 81, 0
2, 11880, Note_on_c, 0, 82, 64
2, 11906, Note_on_c, 0, 82, 0
2, 11910, Note_on_c, 0, 86, 64
2, 11925, Note_on_c, 0, 77, 0
2, 11925, Note_on_c, 0, 74, 0
2, 11936, Note_on_c, 0, 86, 0
2, 11940, Note_on_c, 0, 89, 64
2, 11966, Note_on_c, 0, 89, 0
2, 11970, Note_on_c, 0, 86, 64
2, 11996, Note_on_c, 0, 86, 0
2, 12000, Note_on_c, 0, 89, 64
2, 12026, Note_on_c, 0, 89, 0
2, 12030, Note_on_c, 0, 86, 64
2, 12056, Note_on_c, 0, 86, 0
2, 12060, Note_on_c, 0, 89, 64
2, 12086, Note_on_c, 0, 89, 0
2, 12090, Note_on_c, 0, 92, 64
2, 12116, Note_on_c, 0, 92, 0
2, 12120, Note_on_c, 0, 89, 64
2, 12120, Note_on_c, 0, 77, 64
2, 12120, Note_on_c, 0, 80, 64
2, 12146, Note_on_c, 0, 89, 0
2, 12150, Note_on_c, 0, 86, 64
2, 12172, Note_on_c, 0, 80, 0
2, 12172, Note_on_c, 0, 77, 0
2, 12176, Note_on_c, 0, 86, 0
2, 12180, Note_on_c, 0, 82, 64
2, 12180, Note_on_c, 0, 74, 64
2, 12180, Note_on_c, 0, 77, 64
2, 12206, Note_on_c, 0, 82, 0
2, 12210, Note_on_c, 0, 81, 64
2, 12236, Note_on_c, 0, 81, 0
2, 12240, Note_on_c, 0, 82, 64
2, 12266, Note_on_c, 0, 82, 0
2, 12270, Note_on_c, 0, 86, 64
2, 12285, Note_on_c, 0, 77, 0
2, 12285, Note_on_c, 0, 74, 0
2, 12296, Note_on_c, 0, 86, 0
2, 12300, Note_on_c, 0, 89, 64
2, 12326, Note_on_c, 0, 89, 0
2, 12330, Note_on_c, 0, 86, 64
2, 12356, Note_on_c, 0, 86, 0
2, 12360, Note_on_c, 0, 77, 64
2, 12386, Note_on_c, 0, 77, 0
2, 12390, Note_on_c, 0, 74, 64
2, 12416, Note_on_c, 0, 74, 0
2, 12420, Note_on_c, 0, 77, 64
2, 12446, Note_on_c, 0, 77, 0
2, 12450, Note_on_c, 0, 80, 64
2, 12476, Note_on_c, 0, 80, 0
2, 12480, Note_on_c, 0, 77, 64
2, 12480, Note_on_c, 0, 65, 64
2, 12480, Note_on_c, 0, 68, 64
2, 12506, Note_on_c, 0, 77, 0
2, 12510, Note_on_c, 0, 74, 64
2, 12532, Note_on_c, 0, 68, 0
2, 12532, Note_on_c, 0, 65, 0
2, 12536, Note_on_c, 0, 74, 0
2, 12540, Note_on_c, 0, 70, 64
2, 12540, Note_on_c, 0, 62, 64
2, 12540, Note_on_c, 0, 65, 64
2, 12566, Note_on_c, 0, 70, 0
2, 12570, Note_on_c, 0, 69, 64
2, 12596, Note_on_c, 0, 69, 0
2, 12600, Note_on_c, 0, 70, 64
2, 12626, Note_on_c, 0, 70, 0
2, 12630, Note_on_c, 0, 74, 64
2, 12645, Note_on_c, 0, 65, 0
2, 12645, Note_on_c, 0, 62, 0
2, 12656, Note_on_c, 0, 74, 0
2, 12660, Note_on_c, 0, 77, 64
2, 12686, Note_on_c, 0, 77, 0
2, 12690, Note_on_c, 0, 74, 64
2, 12716, Note_on_c, 0, 74, 0
2, 12720, Note_on_c, 0, 77, 64
2, 12746, Note_on_c, 0, 77, 0
2, 12750, Note_on_c, 0, 74, 64
2, 12776, Note_on_c, 0, 74, 0
2, 12780, Note_on_c, 0, 77, 64
2, 12806, Note_on_c, 0, 77, 0
2, 12810, Note_on_c, 0, 80, 64
2, 12836, Note_on_c, 0, 80, 0
2, 12840, Note_on_c, 0, 77, 64
2, 12840, Note_on_c, 0, 65, 64
2, 12840, Note_on_c, 0, 68, 64
2, 12866, Note_on_c, 0, 77, 0
2, 12870, Note_on_c, 0, 74, 64
2, 12892, Note_on_c, 0, 68, 0
2, 12892, Note_on_c, 0, 65, 0
2, 12896, Note_on_c, 0, 74, 0
2, 12900, Note_on_c, 0, 70, 64
2, 12900, Note_on_c, 0, 62, 64
2, 12900, Note_on_c, 0, 65, 64
2, 12926, Note_on_c, 0, 70, 0
2, 12930, Note_on_c, 0, 69, 64
2, 12956, Note_on_c, 0, 69, 0
2, 12960, Note_on_c, 0, 70, 64
2, 12986, Note_on_c, 0, 70, 0
2, 12990, Note_on_c, 0, 74, 64
2, 13005, Note_on_c, 0, 65, 0
2, 13005, Note_on_c, 0, 62, 0
2, 13016, Note_on_c, 0, 74, 0
2, 13020, Note_on_c, 0, 77, 64
2, 13046, Note_on_c, 0, 77, 0
2, 13050, Note_on_c, 0, 74, 64
2, 13076, Note_on_c, 0, 74, 0
2, 13080, Note_on_c, 0, 68, 64
2, 13080, Note_on_c, 0, 74, 64
2, 13080, Note_on_c, 0, 77, 64
2, 13080, Note_on_c, 0, 80, 64
2, 13080, Note_on_c, 0, 46, 64
2, 13080, Note_on_c, 0, 50, 64
2, 13080, Note_on_c, 0, 53, 64
2, 13080, Note_on_c, 0, 58, 64
2, 13106, Note_on_c, 0, 58, 0
2, 13106, Note_on_c, 0, 68, 0
2, 13106, Note_on_c, 0, 46, 0
2, 13106, Note_on_c, 0, 74, 0
2, 13106, Note_on_c, 0, 77, 0
2, 13106, Note_on_c, 0, 80, 0
2, 13106, Note_on_c, 0, 50, 0
2, 13106, Note_on_c, 0, 53, 0
2, 13140, Note_on_c, 0, 58, 64
2, 13140, Note_on_c, 0, 46, 64
2, 13166, Note_on_c, 0, 46, 0
2, 13166, Note_on_c, 0, 58, 0
2, 13170, Note_on_c, 0, 57, 64
2, 13196, Note_on_c, 0, 57, 0
2, 13200, Note_on_c, 0, 58, 64
2, 13200, Note_on_c, 0, 46, 64
2, 13226, Note_on_c, 0, 46, 0
2, 13226, Note_on_c, 0, 58, 0
2, 13230, Note_on_c, 0, 57, 64
2, 13256, Note_on_c, 0, 57, 0
2, 13260, Note_on_c, 0, 60, 64
2, 13260, Note_on_c, 0, 50, 64
2, 13286, Note_on_c, 0, 50, 0
2, 13286, Note_on_c, 0, 60, 0
2, 13290, Note_on_c, 0, 58, 64
2, 13316, Note_on_c, 0, 58, 0
2, 13320, Note_on_c, 0, 63, 64
2, 13320, Note_on_c, 0, 53, 64
2, 13346, Note_on_c, 0, 53, 0
2, 13346, Note_on_c, 0, 63, 0
2, 13350, Note_on_c, 0, 62, 64
2, 13376, Note_on_c, 0, 62, 0
2, 13380, Note_on_c, 0, 67, 64
2, 13380, Note_on_c, 0, 58, 64
2, 13406, Note_on_c, 0, 58, 0
2, 13406, Note_on_c, 0, 67, 0
2, 13410, Note_on_c, 0, 65, 64
2, 13436, Note_on_c, 0, 65, 0
2, 13440, Note_on_c, 0, 70, 64
2, 13440, Note_on_c, 0, 62, 64
2, 13466, Note_on_c, 0, 62, 0
2, 13466, Note_on_c, 0, 70, 0
2, 13470, Note_on_c, 0, 69, 64
2, 13496, Note_on_c, 0, 69, 0
2, 13500, Note_on_c, 0, 72, 64
2, 13500, Note_on_c, 0, 65, 64
2, 13526, Note_on_c, 0, 65, 0
2, 13526, Note_on_c, 0, 72, 0
2, 13530, Note_on_c, 0, 70, 64
2, 13556, Note_on_c, 0, 70, 0
2, 13560, Note_on_c, 0, 75, 64
2, 13560, Note_on_c, 0, 68, 64
2, 13560, Note_on_c, 0, 70, 64
2, 13586, Note_on_c, 0, 70, 0
2, 13586, Note_on_c, 0, 68, 0
2, 13586, Note_on_c, 0, 75, 0
2, 13590, Note_on_c, 0, 74, 64
2, 13616, Note_on_c, 0, 74, 0
2, 13620, Note_on_c, 0, 79, 64
2, 13620, Note_on_c, 0, 68, 64
2, 13620, Note_on_c, 0, 70, 64
2, 13646, Note_on_c, 0, 70, 0
2, 13646, Note_on_c, 0, 68, 0
2, 13646, Note_on_c, 0, 79, 0
2, 13650, Note_on_c, 0, 77, 64
2, 13676, Note_on_c, 0, 77, 0
2, 13680, Note_on_c, 0, 82, 64
2, 13680, Note_on_c, 0, 68, 64
2, 13680, Note_on_c, 0, 70, 64
2, 13706, Note_on_c, 0, 70, 0
2, 13706, Note_on_c, 0, 68, 0
2, 13706, Note_on_c, 0, 82, 0
2, 13710, Note_on_c, 0, 81, 64
2, 13736, Note_on_c, 0, 81, 0
2, 13740, Note_on_c, 0, 84, 64
2, 13740, Note_on_c, 0, 68, 64
2, 13740, Note_on_c, 0, 70, 64
2, 13766, Note_on_c, 0, 70, 0
2, 13766, Note_on_c, 0, 68, 0
2, 13766, Note_on_c, 0, 84, 0
2, 13770, Note_on_c, 0, 82, 64
2, 13796, Note_on_c, 0, 82, 0
2, 13800, Note_on_c, 0, 82, 64
2, 13800, Note_on_c, 0, 63, 64
2, 13800, Note_on_c, 0, 67, 64
2, 13800, Note_on_c, 0, 70, 64
2, 13852, Note_on_c, 0, 82, 0
2, 13860, Note_on_c, 0, 79, 64
2, 13905, Note_on_c, 0, 63, 0
2, 13905, Note_on_c, 0, 70, 0
2, 13905, Note_on_c, 0, 67, 0
2, 13912, Note_on_c, 0, 79, 0
2, 13920, Note_on_c, 0, 75, 64
2, 13972, Note_on_c, 0, 75, 0
2, 13980, Note_on_c, 0, 74, 64
2, 13980, Note_on_c, 0, 58, 64
2, 13980, Note_on_c, 0, 65, 64
2, 13980, Note_on_c, 0, 68, 64
2, 13980, Note_on_c, 0, 70, 64
2, 14032, Note_on_c, 0, 74, 0
2, 14040, Note_on_c, 0, 77, 64
2, 14085, Note_on_c, 0, 68, 0
2, 14085, Note_on_c, 0, 70, 0
2, 14085, Note_on_c, 0, 58, 0
2, 14085, Note_on_c, 0, 65, 0
2, 14092, Note_on_c, 0, 77, 0
2, 14100, Note_on_c, 0, 82, 64
2, 14152, Note_on_c, 0, 82, 0
2, 14160, Note_on_c, 0, 82, 64
2, 14160, Note_on_c, 0, 63, 64
2, 14160, Note_on_c, 0, 67, 64
2, 14160, Note_on_c, 0, 70, 64
2, 14212, Note_on_c, 0, 82, 0
2, 14220, Note_on_c, 0, 79, 64
2, 14265, Note_on_c, 0, 63, 0
2, 14265, Note_on_c, 0, 70, 0
2, 14265, Note_on_c, 0, 67, 0
2, 14272, Note_on_c, 0, 79, 0
2, 14280, Note_on_c, 0, 75, 64
2, 14332, Note_on_c, 0, 75, 0
2, 14340, Note_on_c, 0, 75, 64
2, 14392, Note_on_c, 0, 75, 0
2, 14400, Note_on_c, 0, 79, 64
2, 14452, Note_on_c, 0, 79, 0
2, 14460, Note_on_c, 0, 84, 64
2, 14460, Note_on_c, 0, 64, 64
2, 14460, Note_on_c, 0, 67, 64
2, 14460, Note_on_c, 0, 70, 64
2, 14460, Note_on_c, 0, 72, 64
2, 14512, Note_on_c, 0, 72, 0
2, 14512, Note_on_c, 0, 67, 0
2, 14512, Note_on_c, 0, 84, 0
2, 14512, Note_on_c, 0, 64, 0
2, 14512, Note_on_c, 0, 70, 0
2, 14520, Note_on_c, 0, 84, 64
2, 14520, Note_on_c, 0, 65, 64
2, 14520, Note_on_c, 0, 68, 64
2, 14520, Note_on_c, 0, 72, 64
2, 14572, Note_on_c, 0, 84, 0
2, 14580, Note_on_c, 0, 80, 64
2, 14625, Note_on_c, 0, 65, 0
2, 14625, Note_on_c, 0, 72, 0
2, 14625, Note_on_c, 0, 68, 0
2, 14632, Note_on_c, 0, 80, 0
2, 14640, Note_on_c, 0, 77, 64
2, 14692, Note_on_c, 0, 77, 0
2, 14700, Note_on_c, 0, 76, 64
2, 14700, Note_on_c, 0, 60, 64
2, 14700, Note_on_c, 0, 67, 64
2, 14700, Note_on_c, 0, 70, 64
2, 14700, Note_on_c, 0, 72, 64
2, 14752, Note_on_c, 0, 76, 0
2, 14760, Note_on_c, 0, 79, 64
2, 14805, Note_on_c, 0, 70, 0
2, 14805, Note_on_c, 0, 72, 0
2, 14805, Note_on_c, 0, 60, 0
2, 14805, Note_on_c, 0, 67, 0
2, 14812, Note_on_c, 0, 79, 0
2, 14820, Note_on_c, 0, 84, 64
2, 14872, Note_on_c, 0, 84, 0
2, 14880, Note_on_c, 0, 84, 64
2, 14880, Note_on_c, 0, 65, 64
2, 14880, Note_on_c, 0, 68, 64
2, 14880, Note_on_c, 0, 72, 64
2, 14932, Note_on_c, 0, 84, 0
2, 14940, Note_on_c, 0, 80, 64
2, 14985, Note_on_c, 0, 65, 0
2, 14985, Note_on_c, 0, 72, 0
2, 14985, Note_on_c, 0, 68, 0
2, 14992, Note_on_c, 0, 80, 0
2, 15000, Note_on_c, 0, 77, 64
2, 15052, Note_on_c, 0, 77, 0
2, 15060, Note_on_c, 0, 74, 64
2, 15112, Note_on_c, 0, 74, 0
2, 15120, Note_on_c, 0, 77, 64
2, 15172, Note_on_c, 0, 77, 0
2, 15180, Note_on_c, 0, 82, 64
2, 15180, Note_on_c, 0, 62, 64
2, 15180, Note_on_c, 0, 65, 64
2, 15180, Note_on_c, 0, 68, 64
2, 15180, Note_on_c, 0, 70, 64
2, 15232, Note_on_c, 0, 70, 0
2, 15232, Note_on_c, 0, 65, 0
2, 15232, Note_on_c, 0, 82, 0
2, 15232, Note_on_c, 0, 62, 0
2, 15232, Note_on_c, 0, 68, 0
2, 15240, Note_on_c, 0, 82, 64
2, 15240, Note_on_c, 0, 63, 64
2, 15240, Note_on_c, 0, 67, 64
2, 15240, Note_on_c, 0, 70, 64
2, 15292, Note_on_c, 0, 82, 0
2, 15300, Note_on_c, 0, 79, 64
2, 15345, Note_on_c, 0, 63, 0
2, 15345, Note_on_c, 0, 70, 0
2, 15345, Note_on_c, 0, 67, 0
2, 15352, Note_on_c, 0, 79, 0
2, 15360, Note_on_c, 0, 75, 64
2, 15412, Note_on_c, 0, 75, 0
2, 15420, Note_on_c, 0, 72, 64
2, 15420, Note_on_c, 0, 56, 64
2, 15420, Note_on_c, 0, 60, 64
2, 15420, Note_on_c, 0, 65, 64
2, 15472, Note_on_c, 0, 72, 0
2, 15480, Note_on_c, 0, 77, 64
2, 15525, Note_on_c, 0, 56, 0
2, 15525, Note_on_c, 0, 65, 0
2, 15525, Note_on_c, 0, 60, 0
2, 15532, Note_on_c, 0, 77, 0
2, 15540, Note_on_c, 0, 80, 64
2, 15592, Note_on_c, 0, 80, 0
2, 15600, Note_on_c, 0, 70, 64
2, 15600, Note_on_c, 0, 58, 64
2, 15600, Note_on_c, 0, 63, 64
2, 15600, Note_on_c, 0, 67, 64
2, 15652, Note_on_c, 0, 70, 0
2, 15660, Note_on_c, 0, 75, 64
2, 15705, Note_on_c, 0, 58, 0
2, 15705, Note_on_c, 0, 67, 0
2, 15705, Note_on_c, 0, 63, 0
2, 15712, Note_on_c, 0, 75, 0
2, 15720, Note_on_c, 0, 79, 64
2, 15772, Note_on_c, 0, 79, 0
2, 15780, Note_on_c, 0, 68, 64
2, 15780, Note_on_c, 0, 58, 64
2, 15780, Note_on_c, 0, 62, 64
2, 15780, Note_on_c, 0, 65, 64
2, 15832, Note_on_c, 0, 68, 0
2, 15840, Note_on_c, 0, 74, 64
2, 15885, Note_on_c, 0, 58, 0
2, 15885, Note_on_c, 0, 65, 0
2, 15885, Note_on_c, 0, 62, 0
2, 15892, Note_on_c, 0, 74, 0
2, 15900, Note_on_c, 0, 68, 64
2, 15900, Note_on_c, 0, 77, 64
2, 15900, Note_on_c, 0, 58, 64
2, 15952, Note_on_c, 0, 58, 0
2, 15952, Note_on_c, 0, 77, 0
2, 15952, Note_on_c, 0, 68, 0
2, 15960, Note_on_c, 0, 67, 64
2, 15960, Note_on_c, 0, 75, 64
2, 15960, Note_on_c, 0, 58, 64
2, 16012, Note_on_c, 0, 58, 0
2, 16012, Note_on_c, 0, 75, 0
2, 16012, Note_on_c, 0, 67, 0
2, 16020, Note_on_c, 0, 55, 64
2, 16072, Note_on_c, 0, 55, 0
2, 16080, Note_on_c, 0, 79, 64
2, 16080, Note_on_c, 0, 51, 64
2, 16132, Note_on_c, 0, 51, 0
2, 16132, Note_on_c, 0, 79, 0
2, 16140, Note_on_c, 0, 80, 64
2, 16140, Note_on_c, 0, 50, 64
2, 16166, Note_on_c, 0, 80, 0
2, 16170, Note_on_c, 0, 79, 64
2, 16192, Note_on_c, 0, 50, 0
2, 16196, Note_on_c, 0, 79, 0
2, 16200, Note_on_c, 0, 80, 64
2, 16200, Note_on_c, 0, 53, 64
2, 16226, Note_on_c, 0, 80, 0
2, 16230, Note_on_c, 0, 77, 64
2, 16252, Note_on_c, 0, 53, 0
2, 16256, Note_on_c, 0, 77, 0
2, 16260, Note_on_c, 0, 82, 64
2, 16260, Note_on_c, 0, 58, 64
2, 16286, Note_on_c, 0, 82, 0
2, 16290, Note_on_c, 0, 80, 64
2, 16312, Note_on_c, 0, 58, 0
2, 16316, Note_on_c, 0, 80, 0
2, 16320, Note_on_c, 0, 79, 64
2, 16320, Note_on_c, 0, 58, 64
2, 16346, Note_on_c, 0, 79, 0
2, 16372, Note_on_c, 0, 58, 0
2, 16380, Note_on_c, 0, 94, 64
2, 16380, Note_on_c, 0, 55, 64
2, 16406, Note_on_c, 0, 94, 0
2, 16432, Note_on_c, 0, 55, 0
2, 16440, Note_on_c, 0, 51, 64
2, 16492, Note_on_c, 0, 51, 0
2, 16500, Note_on_c, 0, 51, 64
2, 16552, Note_on_c, 0, 51, 0
2, 16560, Note_on_c, 0, 55, 64
2, 16612, Note_on_c, 0, 55, 0
2, 16620, Note_on_c, 0, 67, 64
2, 16620, Note_on_c, 0, 52, 64
2, 16620, Note_on_c, 0, 60, 64
2, 16672, Note_on_c, 0, 60, 0
2, 16672, Note_on_c, 0, 52, 0
2, 16672, Note_on_c, 0, 67, 0
2, 16680, Note_on_c, 0, 53, 64
2, 16680, Note_on_c, 0, 60, 64
2, 16732, Note_on_c, 0, 60, 0
2, 16732, Note_on_c, 0, 53, 0
2, 16740, Note_on_c, 0, 56, 64
2, 16792, Note_on_c, 0, 56, 0
2, 16800, Note_on_c, 0, 68, 64
2, 16800, Note_on_c, 0, 53, 64
2, 16852, Note_on_c, 0, 53, 0
2, 16852, Note_on_c, 0, 68, 0
2, 16860, Note_on_c, 0, 70, 64
2, 16860, Note_on_c, 0, 52, 64
2, 16886, Note_on_c, 0, 70, 0
2, 16890, Note_on_c, 0, 68, 64
2, 16912, Note_on_c, 0, 52, 0
2, 16916, Note_on_c, 0, 68, 0
2, 16920, Note_on_c, 0, 70, 64
2, 16920, Note_on_c, 0, 55, 64
2, 16946, Note_on_c, 0, 70, 0
2, 16950, Note_on_c, 0, 67, 64
2, 16972, Note_on_c, 0, 55, 0
2, 16976, Note_on_c, 0, 67, 0
2, 16980, Note_on_c, 0, 72, 64
2, 16980, Note_on_c, 0, 60, 64
2, 17006, Note_on_c, 0, 72, 0
2, 17010, Note_on_c, 0, 70, 64
2, 17032, Note_on_c, 0, 60, 0
2, 17036, Note_on_c, 0, 70, 0
2, 17040, Note_on_c, 0, 68, 64
2, 17040, Note_on_c, 0, 60, 64
2, 17066, Note_on_c, 0, 68, 0
2, 17092, Note_on_c, 0, 60, 0
2, 17100, Note_on_c, 0, 84, 64
2, 17100, Note_on_c, 0, 56, 64
2, 17126, Note_on_c, 0, 84, 0
2, 17152, Note_on_c, 0, 56, 0
2, 17160, Note_on_c, 0, 53, 64
2, 17212, Note_on_c, 0, 53, 0
2, 17220, Note_on_c, 0, 50, 64
2, 17272, Note_on_c, 0, 50, 0
2, 17280, Note_on_c, 0, 53, 64
2, 17332, Note_on_c, 0, 53, 0
2, 17340, Note_on_c, 0, 77, 64
2, 17340, Note_on_c, 0, 50, 64
2, 17340, Note_on_c, 0, 58, 64
2, 17392, Note_on_c, 0, 58, 0
2, 17392, Note_on_c, 0, 50, 0
2, 17392, Note_on_c, 0, 77, 0
2, 17400, Note_on_c, 0, 51, 64
2, 17400, Note_on_c, 0, 58, 64
2, 17452, Note_on_c, 0, 58, 0
2, 17452, Note_on_c, 0, 51, 0
2, 17460, Note_on_c, 0, 55, 64
2, 17512, Note_on_c, 0, 55, 0
2, 17520, Note_on_c, 0, 79, 64
2, 17520, Note_on_c, 0, 51, 64
2, 17572, Note_on_c, 0, 51, 0
2, 17572, Note_on_c, 0, 79, 0
2, 17580, Note_on_c, 0, 80, 64
2, 17580, Note_on_c, 0, 44, 64
2, 17580, Note_on_c, 0, 48, 64
2, 17606, Note_on_c, 0, 80, 0
2, 17610, Note_on_c, 0, 79, 64
2, 17632, Note_on_c, 0, 48, 0
2, 17632, Note_on_c, 0, 44, 0
2, 17636, Note_on_c, 0, 79, 0
2, 17640, Note_on_c, 0, 80, 64
2, 17640, Note_on_c, 0, 53, 64
2, 17666, Note_on_c, 0, 80, 0
2, 17670, Note_on_c, 0, 77, 64
2, 17692, Note_on_c, 0, 53, 0
2, 17696, Note_on_c, 0, 77, 0
2, 17700, Note_on_c, 0, 92, 64
2, 17700, Note_on_c, 0, 56, 64
2, 17726, Note_on_c, 0, 92, 0
2, 17752, Note_on_c, 0, 56, 0
2, 17760, Note_on_c, 0, 46, 64
2, 17812, Note_on_c, 0, 46, 0
2, 17820, Note_on_c, 0, 51, 64
2, 17872, Note_on_c, 0, 51, 0
2, 17880, Note_on_c, 0, 75, 64
2, 17880, Note_on_c, 0, 55, 64
2, 17932, Note_on_c, 0, 55, 0
2, 17932, Note_on_c, 0, 75, 0
2, 17940, Note_on_c, 0, 77, 64
2, 17940, Note_on_c, 0, 46, 64
2, 17966, Note_on_c, 0, 77, 0
2, 17970, Note_on_c, 0, 75, 64
2, 17992, Note_on_c, 0, 46, 0
2, 17996, Note_on_c, 0, 75, 0
2, 18000, Note_on_c, 0, 77, 64
2, 18000, Note_on_c, 0, 50, 64
2, 18026, Note_on_c, 0, 77, 0
2, 18030, Note_on_c, 0, 74, 64
2, 18052, Note_on_c, 0, 50, 0
2, 18056, Note_on_c, 0, 74, 0
2, 18060, Note_on_c, 0, 89, 64
2, 18060, Note_on_c, 0, 46, 64
2, 18060, Note_on_c, 0, 58, 64
2, 18086, Note_on_c, 0, 58, 0
2, 18086, Note_on_c, 0, 46, 0
2, 18086, Note_on_c, 0, 89, 0
2, 18120, Note_on_c, 0, 67, 64
2, 18120, Note_on_c, 0, 46, 64
2, 18146, Note_on_c, 0, 67, 0
2, 18150, Note_on_c, 0, 79, 64
2, 18172, Note_on_c, 0, 46, 0
2, 18176, Note_on_c, 0, 79, 0
2, 18180, Note_on_c, 0, 67, 64
2, 18180, Note_on_c, 0, 43, 64
2, 18206, Note_on_c, 0, 67, 0
2, 18210, Note_on_c, 0, 79, 64
2, 18232, Note_on_c, 0, 43, 0
2, 18236, Note_on_c, 0, 79, 0
2, 18240, Note_on_c, 0, 70, 64
2, 18240, Note_on_c, 0, 39, 64
2, 18266, Note_on_c, 0, 70, 0
2, 18270, Note_on_c, 0, 82, 64
2, 18292, Note_on_c, 0, 39, 0
2, 18296, Note_on_c, 0, 82, 0
2, 18300, Note_on_c, 0, 70, 64
2, 18300, Note_on_c, 0, 38, 64
2, 18326, Note_on_c, 0, 70, 0
2, 18330, Note_on_c, 0, 82, 64
2, 18352, Note_on_c, 0, 38, 0
2, 18356, Note_on_c, 0, 82, 0
2, 18360, Note_on_c, 0, 70, 64
2, 18360, Note_on_c, 0, 41, 64
2, 18386, Note_on_c, 0, 70, 0
2, 18390, Note_on_c, 0, 82, 64
2, 18412, Note_on_c, 0, 41, 0
2, 18416, Note_on_c, 0, 82, 0
2, 18420, Note_on_c, 0, 68, 64
2, 18420, Note_on_c, 0, 46, 64
2, 18446, Note_on_c, 0, 68, 0
2, 18450, Note_on_c, 0, 80, 64
2, 18472, Note_on_c, 0, 46, 0
2, 18476, Note_on_c, 0, 80, 0
2, 18480, Note_on_c, 0, 67, 64
2, 18480, Note_on_c, 0, 46, 64
2, 18506, Note_on_c, 0, 67, 0
2, 18510, Note_on_c, 0, 79, 64
2, 18532, Note_on_c, 0, 46, 0
2, 18536, Note_on_c, 0, 79, 0
2, 18540, Note_on_c, 0, 67, 64
2, 18540, Note_on_c, 0, 43, 64
2, 18566, Note_on_c, 0, 67, 0
2, 18570, Note_on_c, 0, 79, 64
2, 18592, Note_on_c, 0, 43, 0
2, 18596, Note_on_c, 0, 79, 0
2, 18600, Note_on_c, 0, 70, 64
2, 18600, Note_on_c, 0, 39, 64
2, 18626, Note_on_c, 0, 70, 0
2, 18630, Note_on_c, 0, 82, 64
2, 18652, Note_on_c, 0, 39, 0
2, 18656, Note_on_c, 0, 82, 0
2, 18660, Note_on_c, 0, 70, 64
2, 18660, Note_on_c, 0, 39, 64
2, 18686, Note_on_c, 0, 70, 0
2, 18690, Note_on_c, 0, 82, 64
2, 18712, Note_on_c, 0, 39, 0
2, 18716, Note_on_c, 0, 82, 0
2, 18720, Note_on_c, 0, 70, 64
2, 18720, Note_on_c, 0, 43, 64
2, 18746, Note_on_c, 0, 70, 0
2, 18750, Note_on_c, 0, 82, 64
2, 18772, Note_on_c, 0, 43, 0
2, 18776, Note_on_c, 0, 82, 0
2, 18780, Note_on_c, 0, 67, 64
2, 18780, Note_on_c, 0, 40, 64
2, 18780, Note_on_c, 0, 48, 64
2, 18806, Note_on_c, 0, 67, 0
2, 18810, Note_on_c, 0, 79, 64
2, 18832, Note_on_c, 0, 48, 0
2, 18832, Note_on_c, 0, 40, 0
2, 18836, Note_on_c, 0, 79, 0
2, 18840, Note_on_c, 0, 68, 64
2, 18840, Note_on_c, 0, 41, 64
2, 18840, Note_on_c, 0, 48, 64
2, 18866, Note_on_c, 0, 68, 0
2, 18870, Note_on_c, 0, 80, 64
2, 18892, Note_on_c, 0, 48, 0
2, 18892, Note_on_c, 0, 41, 0
2, 18896, Note_on_c, 0, 80, 0
2, 18900, Note_on_c, 0, 68, 64
2, 18900, Note_on_c, 0, 44, 64
2, 18926, Note_on_c, 0, 68, 0
2, 18930, Note_on_c, 0, 80, 64
2, 18952, Note_on_c, 0, 44, 0
2, 18956, Note_on_c, 0, 80, 0
2, 18960, Note_on_c, 0, 72, 64
2, 18960, Note_on_c, 0, 41, 64
2, 18986, Note_on_c, 0, 72, 0
2, 18990, Note_on_c, 0, 84, 64
2, 19012, Note_on_c, 0, 41, 0
2, 19016, Note_on_c, 0, 84, 0
2, 19020, Note_on_c, 0, 72, 64
2, 19020, Note_on_c, 0, 39, 64
2, 19046, Note_on_c, 0, 72, 0
2, 19050, Note_on_c, 0, 84, 64
2, 19072, Note_on_c, 0, 39, 0
2, 19076, Note_on_c, 0, 84, 0
2, 19080, Note_on_c, 0, 72, 64
2, 19080, Note_on_c, 0, 43, 64
2, 19106, Note_on_c, 0, 72, 0
2, 19110, Note_on_c, 0, 84, 64
2, 19132, Note_on_c, 0, 43, 0
2, 19136, Note_on_c, 0, 84, 0
2, 19140, Note_on_c, 0, 70, 64
2, 19140, Note_on_c, 0, 48, 64
2, 19166, Note_on_c, 0, 70, 0
2, 19170, Note_on_c, 0, 82, 64
2, 19192, Note_on_c, 0, 48, 0
2, 19196, Note_on_c, 0, 82, 0
2, 19200, Note_on_c, 0, 68, 64
2, 19200, Note_on_c, 0, 48, 64
2, 19226, Note_on_c, 0, 68, 0
2, 19230, Note_on_c, 0, 80, 64
2, 19252, Note_on_c, 0, 48, 0
2, 19256, Note_on_c, 0, 80, 0
2, 19260, Note_on_c, 0, 70, 64
2, 19260, Note_on_c, 0, 44, 64
2, 19286, Note_on_c, 0, 70, 0
2, 19290, Note_on_c, 0, 80, 64
2, 19312, Note_on_c, 0, 44, 0
2, 19316, Note_on_c, 0, 80, 0
2, 19320, Note_on_c, 0, 72, 64
2, 19320, Note_on_c, 0, 41, 64
2, 19346, Note_on_c, 0, 72, 0
2, 19350, Note_on_c, 0, 84, 64
2, 19372, Note_on_c, 0, 41, 0
2, 19376, Note_on_c, 0, 84, 0
2, 19380, Note_on_c, 0, 72, 64
2, 19380, Note_on_c, 0, 38, 64
2, 19406, Note_on_c, 0, 72, 0
2, 19410, Note_on_c, 0, 84, 64
2, 19432, Note_on_c, 0, 38, 0
2, 19436, Note_on_c, 0, 84, 0
2, 19440, Note_on_c, 0, 70, 64
2, 19440, Note_on_c, 0, 41, 64
2, 19466, Note_on_c, 0, 70, 0
2, 19470, Note_on_c, 0, 82, 64
2, 19492, Note_on_c, 0, 41, 0
2, 19496, Note_on_c, 0, 82, 0
2, 19500, Note_on_c, 0, 68, 64
2, 19500, Note_on_c, 0, 38, 64
2, 19500, Note_on_c, 0, 46, 64
2, 19526, Note_on_c, 0, 68, 0
2, 19530, Note_on_c, 0, 80, 64
2, 19552, Note_on_c, 0, 46, 0
2, 19552, Note_on_c, 0, 38, 0
2, 19556, Note_on_c, 0, 80, 0
2, 19560, Note_on_c, 0, 67, 64
2, 19560, Note_on_c, 0, 39, 64
2, 19560, Note_on_c, 0, 46, 64
2, 19586, Note_on_c, 0, 67, 0
2, 19590, Note_on_c, 0, 79, 64
2, 19612, Note_on_c, 0, 46, 0
2, 19612, Note_on_c, 0, 39, 0
2, 19616, Note_on_c, 0, 79, 0
2, 19620, Note_on_c, 0, 70, 64
2, 19620, Note_on_c, 0, 43, 64
2, 19646, Note_on_c, 0, 70, 0
2, 19650, Note_on_c, 0, 82, 64
2, 19672, Note_on_c, 0, 43, 0
2, 19676, Note_on_c, 0, 82, 0
2, 19680, Note_on_c, 0, 75, 64
2, 19680, Note_on_c, 0, 39, 64
2, 19706, Note_on_c, 0, 75, 0
2, 19710, Note_on_c, 0, 87, 64
2, 19732, Note_on_c, 0, 39, 0
2, 19736, Note_on_c, 0, 87, 0
2, 19740, Note_on_c, 0, 75, 64
2, 19740, Note_on_c, 0, 32, 64
2, 19740, Note_on_c, 0, 36, 64
2, 19766, Note_on_c, 0, 75, 0
2, 19770, Note_on_c, 0, 87, 64
2, 19792, Note_on_c, 0, 36, 0
2, 19792, Note_on_c, 0, 32, 0
2, 19796, Note_on_c, 0, 87, 0
2, 19800, Note_on_c, 0, 72, 64
2, 19800, Note_on_c, 0, 41, 64
2, 19826, Note_on_c, 0, 72, 0
2, 19830, Note_on_c, 0, 84, 64
2, 19852, Note_on_c, 0, 41, 0
2, 19856, Note_on_c, 0, 84, 0
2, 19860, Note_on_c, 0, 68, 64
2, 19860, Note_on_c, 0, 44, 64
2, 19886, Note_on_c, 0, 68, 0
2, 19890, Note_on_c, 0, 80, 64
2, 19912, Note_on_c, 0, 44, 0
2, 19916, Note_on_c, 0, 80, 0
2, 19920, Note_on_c, 0, 75, 64
2, 19920, Note_on_c, 0, 34, 64
2, 19946, Note_on_c, 0, 75, 0
2, 19950, Note_on_c, 0, 87, 64
2, 19972, Note_on_c, 0, 34, 0
2, 19976, Note_on_c, 0, 87, 0
2, 19980, Note_on_c, 0, 70, 64
2, 19980, Note_on_c, 0, 39, 64
2, 20006, Note_on_c, 0, 70, 0
2, 20010, Note_on_c, 0, 82, 64
2, 20032, Note_on_c, 0, 39, 0
2, 20036, Note_on_c, 0, 82, 0
2, 20040, Note_on_c, 0, 67, 64
2, 20040, Note_on_c, 0, 43, 64
2, 20066, Note_on_c, 0, 67, 0
2, 20070, Note_on_c, 0, 79, 64
2, 20092, Note_on_c, 0, 43, 0
2, 20096, Note_on_c, 0, 79, 0
2, 20100, Note_on_c, 0, 70, 64
2, 20100, Note_on_c, 0, 34, 64
2, 20126, Note_on_c, 0, 70, 0
2, 20130, Note_on_c, 0, 82, 64
2, 20152, Note_on_c, 0, 34, 0
2, 20156, Note_on_c, 0, 82, 0
2, 20160, Note_on_c, 0, 68, 64
2, 20160, Note_on_c, 0, 41, 64
2, 20186, Note_on_c, 0, 68, 0
2, 20190, Note_on_c, 0, 80, 64
2, 20212, Note_on_c, 0, 41, 0
2, 20216, Note_on_c, 0, 80, 0
2, 20220, Note_on_c, 0, 65, 64
2, 20220, Note_on_c, 0, 46, 64
2, 20246, Note_on_c, 0, 65, 0
2, 20250, Note_on_c, 0, 77, 64
2, 20272, Note_on_c, 0, 46, 0
2, 20276, Note_on_c, 0, 77, 0
2, 20278, Control_c, 0, 64, 102
2, 20280, Note_on_c, 0, 55, 64
2, 20280, Note_on_c, 0, 39, 64
2, 20306, Note_on_c, 0, 55, 0
2, 20310, Note_on_c, 0, 63, 64
2, 20332, Note_on_c, 0, 39, 0
2, 20336, Note_on_c, 0, 63, 0
2, 20340, Note_on_c, 0, 58, 64
2, 20340, Note_on_c, 0, 51, 64
2, 20340, Note_on_c, 0, 55, 64
2, 20366, Note_on_c, 0, 58, 0
2, 20370, Note_on_c, 0, 67, 64
2, 20392, Note_on_c, 0, 55, 0
2, 20392, Note_on_c, 0, 51, 0
2, 20396, Note_on_c, 0, 67, 0
2, 20400, Note_on_c, 0, 63, 64
2, 20400, Note_on_c, 0, 51, 64
2, 20400, Note_on_c, 0, 55, 64
2, 20400, Note_on_c, 0, 58, 64
2, 20426, Note_on_c, 0, 63, 0
2, 20430, Note_on_c, 0, 70, 64
2, 20452, Note_on_c, 0, 51, 0
2, 20452, Note_on_c, 0, 58, 0
2, 20452, Note_on_c, 0, 55, 0
2, 20456, Note_on_c, 0, 70, 0
2, 20460, Note_on_c, 0, 67, 64
2, 20460, Note_on_c, 0, 51, 64
2, 20460, Note_on_c, 0, 55, 64
2, 20460, Note_on_c, 0, 58, 64
2, 20460, Note_on_c, 0, 63, 64
2, 20486, Note_on_c, 0, 67, 0
2, 20490, Note_on_c, 0, 75, 64
2, 20512, Note_on_c, 0, 58, 0
2, 20512, Note_on_c, 0, 63, 0
2, 20512, Note_on_c, 0, 51, 0
2, 20512, Note_on_c, 0, 55, 0
2, 20516, Note_on_c, 0, 75, 0
2, 20520, Note_on_c, 0, 70, 64
2, 20520, Note_on_c, 0, 51, 64
2, 20520, Note_on_c, 0, 55, 64
2, 20520, Note_on_c, 0, 58, 64
2, 20520, Note_on_c, 0, 63, 64
2, 20546, Note_on_c, 0, 70, 0
2, 20550, Note_on_c, 0, 79, 64
2, 20572, Note_on_c, 0, 58, 0
2, 20572, Note_on_c, 0, 63, 0
2, 20572, Note_on_c, 0, 51, 0
2, 20572, Note_on_c, 0, 55, 0
2, 20576, Note_on_c, 0, 79, 0
2, 20580, Note_on_c, 0, 75, 64
2, 20580, Note_on_c, 0, 51, 64
2, 20580, Note_on_c, 0, 55, 64
2, 20580, Note_on_c, 0, 58, 64
2, 20580, Note_on_c, 0, 63, 64
2, 20606, Note_on_c, 0, 75, 0
2, 20610, Note_on_c, 0, 82, 64
2, 20632, Note_on_c, 0, 58, 0
2, 20632, Note_on_c, 0, 63, 0
2, 20632, Note_on_c, 0, 51, 0
2, 20632, Note_on_c, 0, 55, 0
2, 20636, Note_on_c, 0, 82, 0
2, 20640, Note_on_c, 0, 79, 64
2, 20640, Note_on_c, 0, 51, 64
2, 20640, Note_on_c, 0, 55, 64
2, 20640, Note_on_c, 0, 58, 64
2, 20640, Note_on_c, 0, 63, 64
2, 20666, Note_on_c, 0, 79, 0
2, 20670, Note_on_c, 0, 87, 64
2, 20692, Note_on_c, 0, 58, 0
2, 20692, Note_on_c, 0, 63, 0
2, 20692, Note_on_c, 0, 51, 0
2, 20692, Note_on_c, 0, 55, 0
2, 20696, Note_on_c, 0, 87, 0
2, 20700, Note_on_c, 0, 82, 64
2, 20700, Note_on_c, 0, 51, 64
2, 20700, Note_on_c, 0, 55, 64
2, 20700, Note_on_c, 0, 58, 64
2, 20700, Note_on_c, 0, 63, 64
2, 20726, Note_on_c, 0, 82, 0
2, 20730, Note_on_c, 0, 91, 64
2, 20752, Note_on_c, 0, 58, 0
2, 20752, Note_on_c, 0, 63, 0
2, 20752, Note_on_c, 0, 51, 0
2, 20752, Note_on_c, 0, 55, 0
2, 20756, Note_on_c, 0, 91, 0
2, 20760, Note_on_c, 0, 87, 64
2, 20760, Note_on_c, 0, 51, 64
2, 20760, Note_on_c, 0, 55, 64
2, 20760, Note_on_c, 0, 58, 64
2, 20760, Note_on_c, 0, 63, 64
2, 20786, Note_on_c, 0, 87, 0
2, 20790, Note_on_c, 0, 94, 64
2, 20808, Control_c, 0, 64, 0
2, 20812, Note_on_c, 0, 58, 0
2, 20812, Note_on_c, 0, 63, 0
2, 20812, Note_on_c, 0, 51, 0
2, 20812, Note_on_c, 0, 55, 0
2, 20816, Note_on_c, 0, 94, 0
2, 20820, Note_on_c, 0, 93, 64
2, 20820, Note_on_c, 0, 51, 64
2, 20820, Note_on_c, 0, 53, 64
2, 20820, Note_on_c, 0, 56, 64
2, 20820, Note_on_c, 0, 58, 64
2, 20820, Note_on_c, 0, 62, 64
2, 20846, Note_on_c, 0, 93, 0
2, 20850, Note_on_c, 0, 94, 64
2, 20872, Note_on_c, 0, 53, 0
2, 20872, Note_on_c, 0, 58, 0
2, 20872, Note_on_c, 0, 56, 0
2, 20872, Note_on_c, 0, 51, 0
2, 20872, Note_on_c, 0, 62, 0
2, 20876, Note_on_c, 0, 94, 0
2, 20880, Note_on_c, 0, 93, 64
2, 20880, Note_on_c, 0, 51, 64
2, 20880, Note_on_c, 0, 53, 64
2, 20880, Note_on_c, 0, 56, 64
2, 20880, Note_on_c, 0, 58, 64
2, 20880, Note_on_c, 0, 62, 64
2, 20906, Note_on_c, 0, 93, 0
2, 20910, Note_on_c, 0, 94, 64
2, 20932, Note_on_c, 0, 53, 0
2, 20932, Note_on_c, 0, 58, 0
2, 20932, Note_on_c, 0, 56, 0
2, 20932, Note_on_c, 0, 51, 0
2, 20932, Note_on_c, 0, 62, 0
2, 20936, Note_on_c, 0, 94, 0
2, 20940, Note_on_c, 0, 93, 64
2, 20940, Note_on_c, 0, 51, 64
2, 20940, Note_on_c, 0, 53, 64
2, 20940, Note_on_c, 0, 56, 64
2, 20940, Note_on_c, 0, 58, 64
2, 20940, Note_on_c, 0, 62, 64
2, 20966, Note_on_c, 0, 93, 0
2, 20970, Note_on_c, 0, 94, 64
2, 20992, Note_on_c, 0, 53, 0
2, 20992, Note_on_c, 0, 58, 0
2, 20992, Note_on_c, 0, 56, 0
2, 20992, Note_on_c, 0, 51, 0
2, 20992, Note_on_c, 0, 62, 0
2, 20996, Note_on_c, 0, 94, 0
2, 21000, Note_on_c, 0, 96, 64
2, 21000, Note_on_c, 0, 51, 64
2, 21000, Note_on_c, 0, 55, 64
2, 21000, Note_on_c, 0, 58, 64
2, 21000, Note_on_c, 0, 63, 64
2, 21026, Note_on_c, 0, 96, 0
2, 21030, Note_on_c, 0, 94, 64
2, 21052, Note_on_c, 0, 58, 0
2, 21052, Note_on_c, 0, 63, 0
2, 21052, Note_on_c, 0, 51, 0
2, 21052, Note_on_c, 0, 55, 0
2, 21056, Note_on_c, 0, 94, 0
2, 21060, Note_on_c, 0, 92, 64
2, 21060, Note_on_c, 0, 51, 64
2, 21060, Note_on_c, 0, 55, 64
2, 21060, Note_on_c, 0, 58, 64
2, 21060, Note_on_c, 0, 63, 64
2, 21086, Note_on_c, 0, 92, 0
2, 21090, Note_on_c, 0, 91, 64
2, 21112, Note_on_c, 0, 58, 0
2, 21112, Note_on_c, 0, 63, 0
2, 21112, Note_on_c, 0, 51, 0
2, 21112, Note_on_c, 0, 55, 0
2, 21116, Note_on_c, 0, 91, 0
2, 21120, Note_on_c, 0, 89, 64
2, 21120, Note_on_c, 0, 51, 64
2, 21120, Note_on_c, 0, 55, 64
2, 21120, Note_on_c, 0, 58, 64
2, 21120, Note_on_c, 0, 63, 64
2, 21146, Note_on_c, 0, 89, 0
2, 21150, Note_on_c, 0, 87, 64
2, 21172, Note_on_c, 0, 58, 0
2, 21172, Note_on_c, 0, 63, 0
2, 21172, Note_on_c, 0, 51, 0
2, 21172, Note_on_c, 0, 55, 0
2, 21176, Note_on_c, 0, 87, 0
2, 21180, Note_on_c, 0, 86, 64
2, 21180, Note_on_c, 0, 51, 64
2, 21180, Note_on_c, 0, 55, 64
2, 21180, Note_on_c, 0, 58, 64
2, 21180, Note_on_c, 0, 63, 64
2, 21206, Note_on_c, 0, 86, 0
2, 21210, Note_on_c, 0, 84, 64
2, 21232, Note_on_c, 0, 58, 0
2, 21232, Note_on_c, 0, 63, 0
2, 21232, Note_on_c, 0, 51, 0
2, 21232, Note_on_c, 0, 55, 0
2, 21236, Note_on_c, 0, 84, 0
2, 21240, Note_on_c, 0, 82, 64
2, 21240, Note_on_c, 0, 51, 64
2, 21240, Note_on_c, 0, 55, 64
2, 21240, Note_on_c, 0, 58, 64
2, 21240, Note_on_c, 0, 63, 64
2, 21266, Note_on_c, 0, 82, 0
2, 21270, Note_on_c, 0, 80, 64
2, 21292, Note_on_c, 0, 58, 0
2, 21292, Note_on_c, 0, 63, 0
2, 21292, Note_on_c, 0, 51, 0
2, 21292, Note_on_c, 0, 55, 0
2, 21296, Note_on_c, 0, 80, 0
2, 21300, Note_on_c, 0, 79, 64
2, 21300, Note_on_c, 0, 51, 64
2, 21300, Note_on_c, 0, 55, 64
2, 21300, Note_on_c, 0, 58, 64
2, 21300, Note_on_c, 0, 63, 64
2, 21326, Note_on_c, 0, 79, 0
2, 21330, Note_on_c, 0, 77, 64
2, 21352, Note_on_c, 0, 58, 0
2, 21352, Note_on_c, 0, 63, 0
2, 21352, Note_on_c, 0, 51, 0
2, 21352, Note_on_c, 0, 55, 0
2, 21356, Note_on_c, 0, 77, 0
2, 21360, Note_on_c, 0, 75, 64
2, 21360, Note_on_c, 0, 51, 64
2, 21360, Note_on_c, 0, 55, 64
2, 21360, Note_on_c, 0, 58, 64
2, 21360, Note_on_c, 0, 63, 64
2, 21386, Note_on_c, 0, 75, 0
2, 21390, Note_on_c, 0, 74, 64
2, 21412, Note_on_c, 0, 58, 0
2, 21412, Note_on_c, 0, 63, 0
2, 21412, Note_on_c, 0, 51, 0
2, 21412, Note_on_c, 0, 55, 0
2, 21416, Note_on_c, 0, 74, 0
2, 21420, Note_on_c, 0, 72, 64
2, 21420, Note_on_c, 0, 51, 64
2, 21420, Note_on_c, 0, 55, 64
2, 21420, Note_on_c, 0, 58, 64
2, 21420, Note_on_c, 0, 63, 64
2, 21446, Note_on_c, 0, 72, 0
2, 21450, Note_on_c, 0, 70, 64
2, 21472, Note_on_c, 0, 58, 0
2, 21472, Note_on_c, 0, 63, 0
2, 21472, Note_on_c, 0, 51, 0
2, 21472, Note_on_c, 0, 55, 0
2, 21476, Note_on_c, 0, 70, 0
2, 21480, Note_on_c, 0, 68, 64
2, 21480, Note_on_c, 0, 51, 64
2, 21480, Note_on_c, 0, 55, 64
2, 21480, Note_on_c, 0, 58, 64
2, 21480, Note_on_c, 0, 63, 64
2, 21506, Note_on_c, 0, 68, 0
2, 21510, Note_on_c, 0, 67, 64
2, 21532, Note_on_c, 0, 58, 0
2, 21532, Note_on_c, 0, 63, 0
2, 21532, Note_on_c, 0, 51, 0
2, 21532, Note_on_c, 0, 55, 0
2, 21536, Note_on_c, 0, 67, 0
2, 21540, Note_on_c, 0, 65, 64
2, 21540, Note_on_c, 0, 51, 64
2, 21540, Note_on_c, 0, 53, 64
2, 21540, Note_on_c, 0, 56, 64
2, 21540, Note_on_c, 0, 58, 64
2, 21566, Note_on_c, 0, 65, 0
2, 21570, Note_on_c, 0, 63, 64
2, 21592, Note_on_c, 0, 56, 0
2, 21592, Note_on_c, 0, 58, 0
2, 21592, Note_on_c, 0, 51, 0
2, 21592, Note_on_c, 0, 53, 0
2, 21596, Note_on_c, 0, 63, 0
2, 21600, Note_on_c, 0, 62, 64
2, 21600, Note_on_c, 0, 51, 64
2, 21600, Note_on_c, 0, 53, 64
2, 21600, Note_on_c, 0, 56, 64
2, 21600, Note_on_c, 0, 58, 64
2, 21626, Note_on_c, 0, 62, 0
2, 21630, Note_on_c, 0, 65, 64
2, 21652, Note_on_c, 0, 56, 0
2, 21652, Note_on_c, 0, 58, 0
2, 21652, Note_on_c, 0, 51, 0
2, 21652, Note_on_c, 0, 53, 0
2, 21656, Note_on_c, 0, 65, 0
2, 21660, Note_on_c, 0, 68, 64
2, 21660, Note_on_c, 0, 51, 64
2, 21660, Note_on_c, 0, 53, 64
2, 21660, Note_on_c, 0, 56, 64
2, 21660, Note_on_c, 0, 58, 64
2, 21686, Note_on_c, 0, 68, 0
2, 21690, Note_on_c, 0, 62, 64
2, 21712, Note_on_c, 0, 56, 0
2, 21712, Note_on_c, 0, 58, 0
2, 21712, Note_on_c, 0, 51, 0
2, 21712, Note_on_c, 0, 53, 0
2, 21716, Note_on_c, 0, 62, 0
2, 21720, Note_on_c, 0, 55, 64
2, 21720, Note_on_c, 0, 39, 64
2, 21720, Control_c, 0, 64, 101
2, 21746, Note_on_c, 0, 55, 0
2, 21750, Note_on_c, 0, 63, 64
2, 21772, Note_on_c, 0, 39, 0
2, 21776, Note_on_c, 0, 63, 0
2, 21780, Note_on_c, 0, 58, 64
2, 21780, Note_on_c, 0, 51, 64
2, 21780, Note_on_c, 0, 55, 64
2, 21806, Note_on_c, 0, 58, 0
2, 21810, Note_on_c, 0, 67, 64
2, 21832, Note_on_c, 0, 55, 0
2, 21832, Note_on_c, 0, 51, 0
2, 21836, Note_on_c, 0, 67, 0
2, 21840, Note_on_c, 0, 63, 64
2, 21840, Note_on_c, 0, 51, 64
2, 21840, Note_on_c, 0, 55, 64
2, 21840, Note_on_c, 0, 58, 64
2, 21866, Note_on_c, 0, 63, 0
2, 21870, Note_on_c, 0, 70, 64
2, 21892, Note_on_c, 0, 51, 0
2, 21892, Note_on_c, 0, 58, 0
2, 21892, Note_on_c, 0, 55, 0
2, 21896, Note_on_c, 0, 70, 0
2, 21900, Note_on_c, 0, 67, 64
2, 21900, Note_on_c, 0, 51, 64
2, 21900, Note_on_c, 0, 55, 64
2, 21900, Note_on_c, 0, 58, 64
2, 21900, Note_on_c, 0, 63, 64
2, 21926, Note_on_c, 0, 67, 0
2, 21930, Note_on_c, 0, 75, 64
2, 21952, Note_on_c, 0, 58, 0
2, 21952, Note_on_c, 0, 63, 0
2, 21952, Note_on_c, 0, 51, 0
2, 21952, Note_on_c, 0, 55, 0
2, 21956, Note_on_c, 0, 75, 0
2, 21960, Note_on_c, 0, 70, 64
2, 21960, Note_on_c, 0, 51, 64
2, 21960, Note_on_c, 0, 55, 64
2, 21960, Note_on_c, 0, 58, 64
2, 21960, Note_on_c, 0, 63, 64
2, 21986, Note_on_c, 0, 70, 0
2, 21990, Note_on_c, 0, 79, 64
2, 22012, Note_on_c, 0, 58, 0
2, 22012, Note_on_c, 0, 63, 0
2, 22012, Note_on_c, 0, 51, 0
2, 22012, Note_on_c, 0, 55, 0
2, 22016, Note_on_c, 0, 79, 0
2, 22020, Note_on_c, 0, 75, 64
2, 22020, Note_on_c, 0, 51, 64
2, 22020, Note_on_c, 0, 55, 64
2, 22020, Note_on_c, 0, 58, 64
2, 22020, Note_on_c, 0, 63, 64
2, 22046, Note_on_c, 0, 75, 0
2, 22050, Note_on_c, 0, 82, 64
2, 22072, Note_on_c, 0, 58, 0
2, 22072, Note_on_c, 0, 63, 0
2, 22072, Note_on_c, 0, 51, 0
2, 22072, Note_on_c, 0, 55, 0
2, 22076, Note_on_c, 0, 82, 0
2, 22080, Note_on_c, 0, 79, 64
2, 22080, Note_on_c, 0, 51, 64
2, 22080, Note_on_c, 0, 55, 64
2, 22080, Note_on_c, 0, 58, 64
2, 22080, Note_on_c, 0, 63, 64
2, 22106, Note_on_c, 0, 79, 0
2, 22110, Note_on_c, 0, 87, 64
2, 22132, Note_on_c, 0, 58, 0
2, 22132, Note_on_c, 0, 63, 0
2, 22132, Note_on_c, 0, 51, 0
2, 22132, Note_on_c, 0, 55, 0
2, 22136, Note_on_c, 0, 87, 0
2, 22140, Note_on_c, 0, 82, 64
2, 22140, Note_on_c, 0, 51, 64
2, 22140, Note_on_c, 0, 55, 64
2, 22140, Note_on_c, 0, 58, 64
2, 22140, Note_on_c, 0, 63, 64
2, 22166, Note_on_c, 0, 82, 0
2, 22170, Note_on_c, 0, 91, 64
2, 22192, Note_on_c, 0, 58, 0
2, 22192, Note_on_c, 0, 63, 0
2, 22192, Note_on_c, 0, 51, 0
2, 22192, Note_on_c, 0, 55, 0
2, 22196, Note_on_c, 0, 91, 0
2, 22200, Note_on_c, 0, 87, 64
2, 22200, Note_on_c, 0, 51, 64
2, 22200, Note_on_c, 0, 55, 64
2, 22200, Note_on_c, 0, 58, 64
2, 22200, Note_on_c, 0, 63, 64
2, 22226, Note_on_c, 0, 87, 0
2, 22230, Note_on_c, 0, 94, 64
2, 22252, Note_on_c, 0, 58, 0
2, 22252, Note_on_c, 0, 63, 0
2, 22252, Note_on_c, 0, 51, 0
2, 22252, Note_on_c, 0, 55, 0
2, 22256, Note_on_c, 0, 94, 0
2, 22260, Note_on_c, 0, 93, 64
2, 22260, Note_on_c, 0, 51, 64
2, 22260, Note_on_c, 0, 53, 64
2, 22260, Note_on_c, 0, 56, 64
2, 22260, Note_on_c, 0, 58, 64
2, 22260, Note_on_c, 0, 62, 64
2, 22260, Control_c, 0, 64, 0
2, 22286, Note_on_c, 0, 93, 0
2, 22290, Note_on_c, 0, 94, 64
2, 22312, Note_on_c, 0, 53, 0
2, 22312, Note_on_c, 0, 58, 0
2, 22312, Note_on_c, 0, 56, 0
2, 22312, Note_on_c, 0, 51, 0
2, 22312, Note_on_c, 0, 62, 0
2, 22316, Note_on_c, 0, 94, 0
2, 22320, Note_on_c, 0, 93, 64
2, 22320, Note_on_c, 0, 51, 64
2, 22320, Note_on_c, 0, 53, 64
2, 22320, Note_on_c, 0, 56, 64
2, 22320, Note_on_c, 0, 58, 64
2, 22320, Note_on_c, 0, 62, 64
2, 22346, Note_on_c, 0, 93, 0
2, 22350, Note_on_c, 0, 94, 64
2, 22372, Note_on_c, 0, 53, 0
2, 22372, Note_on_c, 0, 58, 0
2, 22372, Note_on_c, 0, 56, 0
2, 22372, Note_on_c, 0, 51, 0
2, 22372, Note_on_c, 0, 62, 0
2, 22376, Note_on_c, 0, 94, 0
2, 22380, Note_on_c, 0, 93, 64
2, 22380, Note_on_c, 0, 51, 64
2, 22380, Note_on_c, 0, 53, 64
2, 22380, Note_on_c, 0, 56, 64
2, 22380, Note_on_c, 0, 58, 64
2, 22380, Note_on_c, 0, 62, 64
2, 22406, Note_on_c, 0, 93, 0
2, 22410, Note_on_c, 0, 94, 64
2, 22432, Note_on_c, 0, 53, 0
2, 22432, Note_on_c, 0, 58, 0
2, 22432, Note_on_c, 0, 56, 0
2, 22432, Note_on_c, 0, 51, 0
2, 22432, Note_on_c, 0, 62, 0
2, 22436, Note_on_c, 0, 94, 0
2, 22440, Note_on_c, 0, 96, 64
2, 22440, Note_on_c, 0, 51, 64
2, 22440, Note_on_c, 0, 55, 64
2, 22440, Note_on_c, 0, 58, 64
2, 22440, Note_on_c, 0, 63, 64
2, 22466, Note_on_c, 0, 96, 0
2, 22470, Note_on_c, 0, 94, 64
2, 22492, Note_on_c, 0, 58, 0
2, 22492, Note_on_c, 0, 63, 0
2, 22492, Note_on_c, 0, 51, 0
2, 22492, Note_on_c, 0, 55, 0
2, 22496, Note_on_c, 0, 94, 0
2, 22500, Note_on_c, 0, 92, 64
2, 22500, Note_on_c, 0, 51, 64
2, 22500, Note_on_c, 0, 55, 64
2, 22500, Note_on_c, 0, 58, 64
2, 22500, Note_on_c, 0, 63, 64
2, 22526, Note_on_c, 0, 92, 0
2, 22530, Note_on_c, 0, 91, 64
2, 22552, Note_on_c, 0, 58, 0
2, 22552, Note_on_c, 0, 63, 0
2, 22552, Note_on_c, 0, 51, 0
2, 22552, Note_on_c, 0, 55, 0
2, 22556, Note_on_c, 0, 91, 0
2, 22560, Note_on_c, 0, 89, 64
2, 22560, Note_on_c, 0, 51, 64
2, 22560, Note_on_c, 0, 55, 64
2, 22560, Note_on_c, 0, 58, 64
2, 22560, Note_on_c, 0, 63, 64
2, 22586, Note_on_c, 0, 89, 0
2, 22590, Note_on_c, 0, 87, 64
2, 22612, Note_on_c, 0, 58, 0
2, 22612, Note_on_c, 0, 63, 0
2, 22612, Note_on_c, 0, 51, 0
2, 22612, Note_on_c, 0, 55, 0
2, 22616, Note_on_c, 0, 87, 0
2, 22620, Note_on_c, 0, 86, 64
2, 22620, Note_on_c, 0, 51, 64
2, 22620, Note_on_c, 0, 55, 64
2, 22620, Note_on_c, 0, 58, 64
2, 22620, Note_on_c, 0, 63, 64
2, 22646, Note_on_c, 0, 86, 0
2, 22650, Note_on_c, 0, 84, 64
2, 22672, Note_on_c, 0, 58, 0
2, 22672, Note_on_c, 0, 63, 0
2, 22672, Note_on_c, 0, 51, 0
2, 22672, Note_on_c, 0, 55, 0
2, 22676, Note_on_c, 0, 84, 0
2, 22680, Note_on_c, 0, 82, 64
2, 22680, Note_on_c, 0, 51, 64
2, 22680, Note_on_c, 0, 55, 64
2, 22680, Note_on_c, 0, 58, 64
2, 22680, Note_on_c, 0, 63, 64
2, 22706, Note_on_c, 0, 82, 0
2, 22710, Note_on_c, 0, 80, 64
2, 22732, Note_on_c, 0, 58, 0
2, 22732, Note_on_c, 0, 63, 0
2, 22732, Note_on_c, 0, 51, 0
2, 22732, Note_on_c, 0, 55, 0
2, 22736, Note_on_c, 0, 80, 0
2, 22740, Note_on_c, 0, 79, 64
2, 22740, Note_on_c, 0, 51, 64
2, 22740, Note_on_c, 0, 55, 64
2, 22740, Note_on_c, 0, 58, 64
2, 22740, Note_on_c, 0, 63, 64
2, 22766, Note_on_c, 0, 79, 0
2, 22770, Note_on_c, 0, 77, 64
2, 22792, Note_on_c, 0, 58, 0
2, 22792, Note_on_c, 0, 63, 0
2, 22792, Note_on_c, 0, 51, 0
2, 22792, Note_on_c, 0, 55, 0
2, 22796, Note_on_c, 0, 77, 0
2, 22800, Note_on_c, 0, 75, 64
2, 22800, Note_on_c, 0, 51, 64
2, 22800, Note_on_c, 0, 55, 64
2, 22800, Note_on_c, 0, 58, 64
2, 22817, Note_on_c, 0, 75, 0
2, 22819, Note_on_c, 0, 74, 64
2, 22837, Note_on_c, 0, 74, 0
2, 22839, Note_on_c, 0, 72, 64
2, 22852, Note_on_c, 0, 58, 0
2, 22852, Note_on_c, 0, 51, 0
2, 22852, Note_on_c, 0, 55, 0
2, 22857, Note_on_c, 0, 72, 0
2, 22860, Note_on_c, 0, 70, 64
2, 22860, Note_on_c, 0, 51, 64
2, 22860, Note_on_c, 0, 55, 64
2, 22860, Note_on_c, 0, 58, 64
2, 22877, Note_on_c, 0, 70, 0
2, 22879, Note_on_c, 0, 68, 64
2, 22897, Note_on_c, 0, 68, 0
2, 22899, Note_on_c, 0, 67, 64
2, 22912, Note_on_c, 0, 58, 0
2, 22912, Note_on_c, 0, 51, 0
2, 22912, Note_on_c, 0, 55, 0
2, 22917, Note_on_c, 0, 67, 0
2, 22920, Note_on_c, 0, 65, 64
2, 22920, Note_on_c, 0, 51, 64
2, 22920, Note_on_c, 0, 55, 64
2, 22920, Note_on_c, 0, 58, 64
2, 22937, Note_on_c, 0, 65, 0
2, 22939, Note_on_c, 0, 63, 64
2, 22957, Note_on_c, 0, 63, 0
2, 22959, Note_on_c, 0, 62, 64
2, 22972, Note_on_c, 0, 58, 0
2, 22972, Note_on_c, 0, 51, 0
2, 22972, Note_on_c, 0, 55, 0
2, 22977, Note_on_c, 0, 62, 0
2, 22980, Note_on_c, 0, 60, 64
2, 22980, Note_on_c, 0, 51, 64
2, 22980, Note_on_c, 0, 53, 64
2, 23006, Note_on_c, 0, 60, 0
2, 23010, Note_on_c, 0, 58, 64
2, 23032, Note_on_c, 0, 53, 0
2, 23032, Note_on_c, 0, 51, 0
2, 23036, Note_on_c, 0, 58, 0
2, 23040, Note_on_c, 0, 57, 64
2, 23040, Note_on_c, 0, 41, 64
2, 23040, Note_on_c, 0, 51, 64
2, 23040, Note_on_c, 0, 53, 64
2, 23066, Note_on_c, 0, 57, 0
2, 23070, Note_on_c, 0, 60, 64
2, 23092, Note_on_c, 0, 41, 0
2, 23092, Note_on_c, 0, 53, 0
2, 23092, Note_on_c, 0, 51, 0
2, 23096, Note_on_c, 0, 60, 0
2, 23100, Note_on_c, 0, 63, 64
2, 23100, Note_on_c, 0, 41, 64
2, 23100, Note_on_c, 0, 51, 64
2, 23100, Note_on_c, 0, 53, 64
2, 23126, Note_on_c, 0, 63, 0
2, 23130, Note_on_c, 0, 57, 64
2, 23152, Note_on_c, 0, 41, 0
2, 23152, Note_on_c, 0, 53, 0
2, 23152, Note_on_c, 0, 51, 0
2, 23156, Note_on_c, 0, 57, 0
2, 23160, Note_on_c, 0, 58, 64
2, 23160, Note_on_c, 0, 34, 64
2, 23160, Note_on_c, 0, 46, 64
2, 23265, Note_on_c, 0, 46, 0
2, 23265, Note_on_c, 0, 34, 0
2, 23265, Note_on_c, 0, 58, 0
2, 23280, Control_c, 0, 64, 110
2, 23340, Note_on_c, 0, 70, 64
2, 23340, Note_on_c, 0, 58, 64
2, 23392, Note_on_c, 0, 58, 0
2, 23392, Note_on_c, 0, 70, 0
2, 23520, Note_on_c, 0, 73, 64
2, 23520, Note_on_c, 0, 61, 64
2, 23572, Note_on_c, 0, 61, 0
2, 23572, Note_on_c, 0, 73, 0
2, 23700, Note_on_c, 0, 78, 64
2, 23700, Note_on_c, 0, 66, 64
2, 23752, Note_on_c, 0, 66, 0
2, 23752, Note_on_c, 0, 78, 0
2, 23880, Note_on_c, 0, 73, 64
2, 23880, Note_on_c, 0, 61, 64
2, 23932, Note_on_c, 0, 61, 0
2, 23932, Note_on_c, 0, 73, 0
2, 24060, Note_on_c, 0, 70, 64
2, 24060, Note_on_c, 0, 58, 64
2, 24112, Note_on_c, 0, 58, 0
2, 24112, Note_on_c, 0, 70, 0
2, 24240, Note_on_c, 0, 66, 64
2, 24240, Note_on_c, 0, 54, 64
2, 24292, Note_on_c, 0, 54, 0
2, 24292, Note_on_c, 0, 66, 0
2, 24420, Note_on_c, 0, 61, 64
2, 24420, Note_on_c, 0, 49, 64
2, 24472, Note_on_c, 0, 49, 0
2, 24472, Note_on_c, 0, 61, 0
2, 24510, Control_c, 0, 64, 0
2, 24562, Control_c, 0, 64, 113
2, 24600, Note_on_c, 0, 57, 64
2, 24600, Note_on_c, 0, 33, 64
2, 24600, Note_on_c, 0, 45, 64
2, 24652, Note_on_c, 0, 45, 0
2, 24652, Note_on_c, 0, 33, 0
2, 24652, Note_on_c, 0, 57, 0
2, 24780, Note_on_c, 0, 69, 64
2, 24780, Note_on_c, 0, 57, 64
2, 24832, Note_on_c, 0, 57, 0
2, 24832, Note_on_c, 0, 69, 0
2, 24960, Note_on_c, 0, 72, 64
2, 24960, Note_on_c, 0, 60, 64
2, 25012, Note_on_c, 0, 60, 0
2, 25012, Note_on_c, 0, 72, 0
2, 25140, Note_on_c, 0, 77, 64
2, 25140, Note_on_c, 0, 65, 64
2, 25192, Note_on_c, 0, 65, 0
2, 25192, Note_on_c, 0, 77, 0
2, 25320, Note_on_c, 0, 72, 64
2, 25320, Note_on_c, 0, 60, 64
2, 25372, Note_on_c, 0, 60, 0
2, 25372, Note_on_c, 0, 72, 0
2, 25500, Note_on_c, 0, 69, 64
2, 25500, Note_on_c, 0, 57, 64
2, 25552, Note_on_c, 0, 57, 0
2, 25552, Note_on_c, 0, 69, 0
2, 25680, Note_on_c, 0, 65, 64
2, 25680, Note_on_c, 0, 53, 64
2, 25732, Note_on_c, 0, 53, 0
2, 25732, Note_on_c, 0, 65, 0
2, 25860, Note_on_c, 0, 60, 64
2, 25860, Note_on_c, 0, 48, 64
2, 25904, Control_c, 0, 64, 0
2, 25912, Note_on_c, 0, 48, 0
2, 25912, Note_on_c, 0, 60, 0
2, 26040, Note_on_c, 0, 73, 64
2, 26040, Note_on_c, 0, 58, 64
2, 26040, Note_on_c, 0, 61, 64
2, 26040, Note_on_c, 0, 66, 64
2, 26092, Note_on_c, 0, 66, 0
2, 26092, Note_on_c, 0, 73, 0
2, 26092, Note_on_c, 0, 58, 0
2, 26092, Note_on_c, 0, 61, 0
2, 26100, Note_on_c, 0, 58, 64
2, 26100, Note_on_c, 0, 61, 64
2, 26100, Note_on_c, 0, 66, 64
2, 26145, Note_on_c, 0, 84, 64
2, 26152, Note_on_c, 0, 66, 0
2, 26152, Note_on_c, 0, 58, 0
2, 26152, Note_on_c, 0, 61, 0
2, 26158, Note_on_c, 0, 84, 0
2, 26160, Note_on_c, 0, 82, 64
2, 26160, Note_on_c, 0, 58, 64
2, 26160, Note_on_c, 0, 61, 64
2, 26160, Note_on_c, 0, 66, 64
2, 26186, Note_on_c, 0, 82, 0
2, 26190, Note_on_c, 0, 81, 64
2, 26212, Note_on_c, 0, 58, 0
2, 26212, Note_on_c, 0, 66, 0
2, 26212, Note_on_c, 0, 61, 0
2, 26216, Note_on_c, 0, 81, 0
2, 26220, Note_on_c, 0, 82, 64
2, 26220, Note_on_c, 0, 58, 64
2, 26220, Note_on_c, 0, 61, 64
2, 26220, Note_on_c, 0, 66, 64
2, 26272, Note_on_c, 0, 66, 0
2, 26272, Note_on_c, 0, 82, 0
2, 26272, Note_on_c, 0, 58, 0
2, 26272, Note_on_c, 0, 61, 0
2, 26280, Note_on_c, 0, 58, 64
2, 26280, Note_on_c, 0, 61, 64
2, 26280, Note_on_c, 0, 66, 64
2, 26325, Note_on_c, 0, 87, 64
2, 26332, Note_on_c, 0, 66, 0
2, 26332, Note_on_c, 0, 58, 0
2, 26332, Note_on_c, 0, 61, 0
2, 26338, Note_on_c, 0, 87, 0
2, 26340, Note_on_c, 0, 85, 64
2, 26340, Note_on_c, 0, 58, 64
2, 26340, Note_on_c, 0, 61, 64
2, 26340, Note_on_c, 0, 66, 64
2, 26366, Note_on_c, 0, 85, 0
2, 26370, Note_on_c, 0, 84, 64
2, 26392, Note_on_c, 0, 58, 0
2, 26392, Note_on_c, 0, 66, 0
2, 26392, Note_on_c, 0, 61, 0
2, 26396, Note_on_c, 0, 84, 0
2, 26400, Note_on_c, 0, 85, 64
2, 26400, Note_on_c, 0, 58, 64
2, 26400, Note_on_c, 0, 61, 64
2, 26400, Note_on_c, 0, 66, 64
2, 26452, Note_on_c, 0, 66, 0
2, 26452, Note_on_c, 0, 85, 0
2, 26452, Note_on_c, 0, 58, 0
2, 26452, Note_on_c, 0, 61, 0
2, 26460, Note_on_c, 0, 58, 64
2, 26460, Note_on_c, 0, 61, 64
2, 26460, Note_on_c, 0, 66, 64
2, 26505, Note_on_c, 0, 92, 64
2, 26512, Note_on_c, 0, 66, 0
2, 26512, Note_on_c, 0, 58, 0
2, 26512, Note_on_c, 0, 61, 0
2, 26518, Note_on_c, 0, 92, 0
2, 26520, Note_on_c, 0, 90, 64
2, 26520, Note_on_c, 0, 58, 64
2, 26520, Note_on_c, 0, 61, 64
2, 26520, Note_on_c, 0, 66, 64
2, 26546, Note_on_c, 0, 90, 0
2, 26550, Note_on_c, 0, 89, 64
2, 26572, Note_on_c, 0, 58, 0
2, 26572, Note_on_c, 0, 66, 0
2, 26572, Note_on_c, 0, 61, 0
2, 26576, Note_on_c, 0, 89, 0
2, 26580, Note_on_c, 0, 90, 64
2, 26580, Note_on_c, 0, 58, 64
2, 26580, Note_on_c, 0, 61, 64
2, 26580, Note_on_c, 0, 66, 64
2, 26632, Note_on_c, 0, 66, 0
2, 26632, Note_on_c, 0, 90, 0
2, 26632, Note_on_c, 0, 58, 0
2, 26632, Note_on_c, 0, 61, 0
2, 26640, Note_on_c, 0, 58, 64
2, 26640, Note_on_c, 0, 61, 64
2, 26640, Note_on_c, 0, 66, 64
2, 26685, Note_on_c, 0, 87, 64
2, 26692, Note_on_c, 0, 66, 0
2, 26692, Note_on_c, 0, 58, 0
2, 26692, Note_on_c, 0, 61, 0
2, 26698, Note_on_c, 0, 87, 0
2, 26700, Note_on_c, 0, 85, 64
2, 26700, Note_on_c, 0, 58, 64
2, 26700, Note_on_c, 0, 61, 64
2, 26700, Note_on_c, 0, 66, 64
2, 26726, Note_on_c, 0, 85, 0
2, 26730, Note_on_c, 0, 84, 64
2, 26752, Note_on_c, 0, 58, 0
2, 26752, Note_on_c, 0, 66, 0
2, 26752, Note_on_c, 0, 61, 0
2, 26756, Note_on_c, 0, 84, 0
2, 26760, Note_on_c, 0, 85, 64
2, 26760, Note_on_c, 0, 58, 64
2, 26760, Note_on_c, 0, 61, 64
2, 26760, Note_on_c, 0, 66, 64
2, 26812, Note_on_c, 0, 66, 0
2, 26812, Note_on_c, 0, 85, 0
2, 26812, Note_on_c, 0, 58, 0
2, 26812, Note_on_c, 0, 61, 0
2, 26820, Note_on_c, 0, 58, 64
2, 26820, Note_on_c, 0, 61, 64
2, 26820, Note_on_c, 0, 66, 64
2, 26865, Note_on_c, 0, 84, 64
2, 26872, Note_on_c, 0, 66, 0
2, 26872, Note_on_c, 0, 58, 0
2, 26872, Note_on_c, 0, 61, 0
2, 26878, Note_on_c, 0, 84, 0
2, 26880, Note_on_c, 0, 82, 64
2, 26880, Note_on_c, 0, 58, 64
2, 26880, Note_on_c, 0, 61, 64
2, 26880, Note_on_c, 0, 66, 64
2, 26906, Note_on_c, 0, 82, 0
2, 26910, Note_on_c, 0, 81, 64
2, 26932, Note_on_c, 0, 58, 0
2, 26932, Note_on_c, 0, 66, 0
2, 26932, Note_on_c, 0, 61, 0
2, 26936, Note_on_c, 0, 81, 0
2, 26940, Note_on_c, 0, 82, 64
2, 26940, Note_on_c, 0, 58, 64
2, 26940, Note_on_c, 0, 61, 64
2, 26940, Note_on_c, 0, 66, 64
2, 26992, Note_on_c, 0, 66, 0
2, 26992, Note_on_c, 0, 82, 0
2, 26992, Note_on_c, 0, 58, 0
2, 26992, Note_on_c, 0, 61, 0
2, 27000, Note_on_c, 0, 58, 64
2, 27000, Note_on_c, 0, 61, 64
2, 27000, Note_on_c, 0, 66, 64
2, 27045, Note_on_c, 0, 80, 64
2, 27052, Note_on_c, 0, 66, 0
2, 27052, Note_on_c, 0, 58, 0
2, 27052, Note_on_c, 0, 61, 0
2, 27058, Note_on_c, 0, 80, 0
2, 27060, Note_on_c, 0, 78, 64
2, 27060, Note_on_c, 0, 58, 64
2, 27060, Note_on_c, 0, 61, 64
2, 27060, Note_on_c, 0, 66, 64
2, 27086, Note_on_c, 0, 78, 0
2, 27090, Note_on_c, 0, 77, 64
2, 27112, Note_on_c, 0, 58, 0
2, 27112, Note_on_c, 0, 66, 0
2, 27112, Note_on_c, 0, 61, 0
2, 27116, Note_on_c, 0, 77, 0
2, 27120, Note_on_c, 0, 78, 64
2, 27120, Note_on_c, 0, 58, 64
2, 27120, Note_on_c, 0, 61, 64
2, 27120, Note_on_c, 0, 66, 64
2, 27172, Note_on_c, 0, 66, 0
2, 27172, Note_on_c, 0, 78, 0
2, 27172, Note_on_c, 0, 58, 0
2, 27172, Note_on_c, 0, 61, 0
2, 27180, Note_on_c, 0, 58, 64
2, 27180, Note_on_c, 0, 61, 64
2, 27180, Note_on_c, 0, 66, 64
2, 27225, Note_on_c, 0, 75, 64
2, 27232, Note_on_c, 0, 66, 0
2, 27232, Note_on_c, 0, 58, 0
2, 27232, Note_on_c, 0, 61, 0
2, 27238, Note_on_c, 0, 75, 0
2, 27240, Note_on_c, 0, 73, 64
2, 27240, Note_on_c, 0, 58, 64
2, 27240, Note_on_c, 0, 61, 64
2, 27240, Note_on_c, 0, 66, 64
2, 27266, Note_on_c, 0, 73, 0
2, 27270, Note_on_c, 0, 72, 64
2, 27292, Note_on_c, 0, 58, 0
2, 27292, Note_on_c, 0, 66, 0
2, 27292, Note_on_c, 0, 61, 0
2, 27296, Note_on_c, 0, 72, 0
2, 27300, Note_on_c, 0, 73, 64
2, 27300, Note_on_c, 0, 58, 64
2, 27300, Note_on_c, 0, 61, 64
2, 27300, Note_on_c, 0, 66, 64
2, 27352, Note_on_c, 0, 66, 0
2, 27352, Note_on_c, 0, 61, 0
2, 27352, Note_on_c, 0, 58, 0
2, 27360, Note_on_c, 0, 58, 64
2, 27360, Note_on_c, 0, 61, 64
2, 27360, Note_on_c, 0, 66, 64
2, 27405, Note_on_c, 0, 73, 0
2, 27412, Note_on_c, 0, 58, 0
2, 27412, Note_on_c, 0, 61, 0
2, 27412, Note_on_c, 0, 66, 0
2, 27420, Note_on_c, 0, 58, 64
2, 27420, Note_on_c, 0, 61, 64
2, 27420, Note_on_c, 0, 64, 64
2, 27472, Note_on_c, 0, 64, 0
2, 27472, Note_on_c, 0, 61, 0
2, 27472, Note_on_c, 0, 58, 0
2, 27480, Note_on_c, 0, 72, 64
2, 27480, Note_on_c, 0, 57, 64
2, 27480, Note_on_c, 0, 60, 64
2, 27480, Note_on_c, 0, 65, 64
2, 27532, Note_on_c, 0, 65, 0
2, 27532, Note_on_c, 0, 72, 0
2, 27532, Note_on_c, 0, 57, 0
2, 27532, Note_on_c, 0, 60, 0
2, 27540, Note_on_c, 0, 57, 64
2, 27540, Note_on_c, 0, 60, 64
2, 27540, Note_on_c, 0, 65, 64
2, 27585, Note_on_c, 0, 82, 64
2, 27592, Note_on_c, 0, 65, 0
2, 27592, Note_on_c, 0, 57, 0
2, 27592, Note_on_c, 0, 60, 0
2, 27598, Note_on_c, 0, 82, 0
2, 27600, Note_on_c, 0, 81, 64
2, 27600, Note_on_c, 0, 57, 64
2, 27600, Note_on_c, 0, 60, 64
2, 27600, Note_on_c, 0, 65, 64
2, 27626, Note_on_c, 0, 81, 0
2, 27630, Note_on_c, 0, 79, 64
2, 27652, Note_on_c, 0, 57, 0
2, 27652, Note_on_c, 0, 65, 0
2, 27652, Note_on_c, 0, 60, 0
2, 27656, Note_on_c, 0, 79, 0
2, 27660, Note_on_c, 0, 81, 64
2, 27660, Note_on_c, 0, 57, 64
2, 27660, Note_on_c, 0, 60, 64
2, 27660, Note_on_c, 0, 65, 64
2, 27712, Note_on_c, 0, 65, 0
2, 27712, Note_on_c, 0, 81, 0
2, 27712, Note_on_c, 0, 57, 0
2, 27712, Note_on_c, 0, 60, 0
2, 27720, Note_on_c, 0, 57, 64
2, 27720, Note_on_c, 0, 60, 64
2, 27720, Note_on_c, 0, 65, 64
2, 27765, Note_on_c, 0, 85, 64
2, 27772, Note_on_c, 0, 65, 0
2, 27772, Note_on_c, 0, 57, 0
2, 27772, Note_on_c, 0, 60, 0
2, 27778, Note_on_c, 0, 85, 0
2, 27780, Note_on_c, 0, 84, 64
2, 27780, Note_on_c, 0, 57, 64
2, 27780, Note_on_c, 0, 60, 64
2, 27780, Note_on_c, 0, 65, 64
2, 27806, Note_on_c, 0, 84, 0
2, 27810, Note_on_c, 0, 83, 64
2, 27832, Note_on_c, 0, 57, 0
2, 27832, Note_on_c, 0, 65, 0
2, 27832, Note_on_c, 0, 60, 0
2, 27836, Note_on_c, 0, 83, 0
2, 27840, Note_on_c, 0, 84, 64
2, 27840, Note_on_c, 0, 57, 64
2, 27840, Note_on_c, 0, 60, 64
2, 27840, Note_on_c, 0, 65, 64
2, 27892, Note_on_c, 0, 65, 0
2, 27892, Note_on_c, 0, 84, 0
2, 27892, Note_on_c, 0, 57, 0
2, 27892, Note_on_c, 0, 60, 0
2, 27900, Note_on_c, 0, 57, 64
2, 27900, Note_on_c, 0, 60, 64
2, 27900, Note_on_c, 0, 65, 64
2, 27945, Note_on_c, 0, 90, 64
2, 27952, Note_on_c, 0, 65, 0
2, 27952, Note_on_c, 0, 57, 0
2, 27952, Note_on_c, 0, 60, 0
2, 27958, Note_on_c, 0, 90, 0
2, 27960, Note_on_c, 0, 89, 64
2, 27960, Note_on_c, 0, 57, 64
2, 27960, Note_on_c, 0, 60, 64
2, 27960, Note_on_c, 0, 65, 64
2, 27986, Note_on_c, 0, 89, 0
2, 27990, Note_on_c, 0, 88, 64
2, 28012, Note_on_c, 0, 57, 0
2, 28012, Note_on_c, 0, 65, 0
2, 28012, Note_on_c, 0, 60, 0
2, 28016, Note_on_c, 0, 88, 0
2, 28020, Note_on_c, 0, 89, 64
2, 28020, Note_on_c, 0, 57, 64
2, 28020, Note_on_c, 0, 60, 64
2, 28020, Note_on_c, 0, 65, 64
2, 28072, Note_on_c, 0, 65, 0
2, 28072, Note_on_c, 0, 89, 0
2, 28072, Note_on_c, 0, 57, 0
2, 28072, Note_on_c, 0, 60, 0
2, 28080, Note_on_c, 0, 57, 64
2, 28080, Note_on_c, 0, 60, 64
2, 28080, Note_on_c, 0, 65, 64
2, 28125, Note_on_c, 0, 85, 64
2, 28132, Note_on_c, 0, 65, 0
2, 28132, Note_on_c, 0, 57, 0
2, 28132, Note_on_c, 0, 60, 0
2, 28138, Note_on_c, 0, 85, 0
2, 28140, Note_on_c, 0, 84, 64
2, 28140, Note_on_c, 0, 57, 64
2, 28140, Note_on_c, 0, 60, 64
2, 28140, Note_on_c, 0, 65, 64
2, 28166, Note_on_c, 0, 84, 0
2, 28170, Note_on_c, 0, 83, 64
2, 28192, Note_on_c, 0, 57, 0
2, 28192, Note_on_c, 0, 65, 0
2, 28192, Note_on_c, 0, 60, 0
2, 28196, Note_on_c, 0, 83, 0
2, 28200, Note_on_c, 0, 84, 64
2, 28200, Note_on_c, 0, 57, 64
2, 28200, Note_on_c, 0, 60, 64
2, 28200, Note_on_c, 0, 65, 64
2, 28252, Note_on_c, 0, 65, 0
2, 28252, Note_on_c, 0, 84, 0
2, 28252, Note_on_c, 0, 57, 0
2, 28252, Note_on_c, 0, 60, 0
2, 28260, Note_on_c, 0, 57, 64
2, 28260, Note_on_c, 0, 60, 64
2, 28260, Note_on_c, 0, 65, 64
2, 28305, Note_on_c, 0, 82, 64
2, 28312, Note_on_c, 0, 65, 0
2, 28312, Note_on_c, 0, 57, 0
2, 28312, Note_on_c, 0, 60, 0
2, 28318, Note_on_c, 0, 82, 0
2, 28320, Note_on_c, 0, 81, 64
2, 28320, Note_on_c, 0, 57, 64
2, 28320, Note_on_c, 0, 60, 64
2, 28320, Note_on_c, 0, 65, 64
2, 28346, Note_on_c, 0, 81, 0
2, 28350, Note_on_c, 0, 79, 64
2, 28372, Note_on_c, 0, 57, 0
2, 28372, Note_on_c, 0, 65, 0
2, 28372, Note_on_c, 0, 60, 0
2, 28376, Note_on_c, 0, 79, 0
2, 28380, Note_on_c, 0, 81, 64
2, 28380, Note_on_c, 0, 57, 64
2, 28380, Note_on_c, 0, 60, 64
2, 28380, Note_on_c, 0, 65, 64
2, 28432, Note_on_c, 0, 65, 0
2, 28432, Note_on_c, 0, 81, 0
2, 28432, Note_on_c, 0, 57, 0
2, 28432, Note_on_c, 0, 60, 0
2, 28440, Note_on_c, 0, 57, 64
2, 28440, Note_on_c, 0, 60, 64
2, 28440, Note_on_c, 0, 65, 64
2, 28485, Note_on_c, 0, 78, 64
2, 28492, Note_on_c, 0, 65, 0
2, 28492, Note_on_c, 0, 57, 0
2, 28492, Note_on_c, 0, 60, 0
2, 28498, Note_on_c, 0, 78, 0
2, 28500, Note_on_c, 0, 77, 64
2, 28500, Note_on_c, 0, 57, 64
2, 28500, Note_on_c, 0, 60, 64
2, 28500, Note_on_c, 0, 65, 64
2, 28526, Note_on_c, 0, 77, 0
2, 28530, Note_on_c, 0, 76, 64
2, 28552, Note_on_c, 0, 57, 0
2, 28552, Note_on_c, 0, 65, 0
2, 28552, Note_on_c, 0, 60, 0
2, 28556, Note_on_c, 0, 76, 0
2, 28560, Note_on_c, 0, 77, 64
2, 28560, Note_on_c, 0, 57, 64
2, 28560, Note_on_c, 0, 60, 64
2, 28560, Note_on_c, 0, 65, 64
2, 28612, Note_on_c, 0, 65, 0
2, 28612, Note_on_c, 0, 77, 0
2, 28612, Note_on_c, 0, 57, 0
2, 28612, Note_on_c, 0, 60, 0
2, 28620, Note_on_c, 0, 57, 64
2, 28620, Note_on_c, 0, 60, 64
2, 28620, Note_on_c, 0, 65, 64
2, 28665, Note_on_c, 0, 73, 64
2, 28672, Note_on_c, 0, 65, 0
2, 28672, Note_on_c, 0, 57, 0
2, 28672, Note_on_c, 0, 60, 0
2, 28678, Note_on_c, 0, 73, 0
2, 28680, Note_on_c, 0, 72, 64
2, 28680, Note_on_c, 0, 57, 64
2, 28680, Note_on_c, 0, 60, 64
2, 28680, Note_on_c, 0, 65, 64
2, 28706, Note_on_c, 0, 72, 0
2, 28710, Note_on_c, 0, 71, 64
2, 28732, Note_on_c, 0, 57, 0
2, 28732, Note_on_c, 0, 65, 0
2, 28732, Note_on_c, 0, 60, 0
2, 28736, Note_on_c, 0, 71, 0
2, 28740, Note_on_c, 0, 72, 64
2, 28740, Note_on_c, 0, 57, 64
2, 28740, Note_on_c, 0, 60, 64
2, 28740, Note_on_c, 0, 65, 64
2, 28792, Note_on_c, 0, 65, 0
2, 28792, Note_on_c, 0, 72, 0
2, 28792, Note_on_c, 0, 57, 0
2, 28792, Note_on_c, 0, 60, 0
2, 28800, Note_on_c, 0, 53, 64
2, 28852, Note_on_c, 0, 53, 0
2, 28860, Note_on_c, 0, 73, 64
2, 28860, Note_on_c, 0, 51, 64
2, 28912, Note_on_c, 0, 51, 0
2, 28912, Note_on_c, 0, 73, 0
2, 28920, Note_on_c, 0, 65, 64
2, 28920, Note_on_c, 0, 74, 64
2, 28920, Note_on_c, 0, 46, 64
2, 28920, Note_on_c, 0, 50, 64
2, 28946, Note_on_c, 0, 65, 0
2, 28950, Note_on_c, 0, 67, 64
2, 28976, Note_on_c, 0, 67, 0
2, 28980, Note_on_c, 0, 65, 64
2, 29006, Note_on_c, 0, 65, 0
2, 29010, Note_on_c, 0, 67, 64
2, 29025, Note_on_c, 0, 50, 0
2, 29036, Note_on_c, 0, 67, 0
2, 29040, Note_on_c, 0, 65, 64
2, 29040, Note_on_c, 0, 55, 64
2, 29066, Note_on_c, 0, 65, 0
2, 29070, Note_on_c, 0, 67, 64
2, 29085, Note_on_c, 0, 74, 0
2, 29092, Note_on_c, 0, 55, 0
2, 29096, Note_on_c, 0, 67, 0
2, 29100, Note_on_c, 0, 65, 64
2, 29100, Note_on_c, 0, 70, 64
2, 29100, Note_on_c, 0, 53, 64
2, 29126, Note_on_c, 0, 65, 0
2, 29130, Note_on_c, 0, 67, 64
2, 29156, Note_on_c, 0, 67, 0
2, 29160, Note_on_c, 0, 65, 64
2, 29186, Note_on_c, 0, 65, 0
2, 29190, Note_on_c, 0, 67, 64
2, 29205, Note_on_c, 0, 53, 0
2, 29216, Note_on_c, 0, 67, 0
2, 29220, Note_on_c, 0, 65, 64
2, 29220, Note_on_c, 0, 50, 64
2, 29246, Note_on_c, 0, 65, 0
2, 29250, Note_on_c, 0, 67, 64
2, 29265, Note_on_c, 0, 46, 0
2, 29265, Note_on_c, 0, 70, 0
2, 29272, Note_on_c, 0, 50, 0
2, 29276, Note_on_c, 0, 67, 0
2, 29280, Note_on_c, 0, 65, 64
2, 29280, Note_on_c, 0, 69, 64
2, 29280, Note_on_c, 0, 41, 64
2, 29280, Note_on_c, 0, 48, 64
2, 29306, Note_on_c, 0, 65, 0
2, 29310, Note_on_c, 0, 67, 64
2, 29336, Note_on_c, 0, 67, 0
2, 29340, Note_on_c, 0, 65, 64
2, 29366, Note_on_c, 0, 65, 0
2, 29370, Note_on_c, 0, 67, 64
2, 29385, Note_on_c, 0, 48, 0
2, 29396, Note_on_c, 0, 67, 0
2, 29400, Note_on_c, 0, 65, 64
2, 29400, Note_on_c, 0, 55, 64
2, 29426, Note_on_c, 0, 65, 0
2, 29430, Note_on_c, 0, 67, 64
2, 29445, Note_on_c, 0, 69, 0
2, 29452, Note_on_c, 0, 55, 0
2, 29456, Note_on_c, 0, 67, 0
2, 29460, Note_on_c, 0, 65, 64
2, 29460, Note_on_c, 0, 75, 64
2, 29460, Note_on_c, 0, 53, 64
2, 29486, Note_on_c, 0, 65, 0
2, 29490, Note_on_c, 0, 67, 64
2, 29516, Note_on_c, 0, 67, 0
2, 29520, Note_on_c, 0, 65, 64
2, 29546, Note_on_c, 0, 65, 0
2, 29550, Note_on_c, 0, 67, 64
2, 29565, Note_on_c, 0, 53, 0
2, 29576, Note_on_c, 0, 67, 0
2, 29580, Note_on_c, 0, 65, 64
2, 29580, Note_on_c, 0, 48, 64
2, 29606, Note_on_c, 0, 65, 0
2, 29610, Note_on_c, 0, 67, 64
2, 29625, Note_on_c, 0, 41, 0
2, 29625, Note_on_c, 0, 75, 0
2, 29632, Note_on_c, 0, 48, 0
2, 29636, Note_on_c, 0, 67, 0
2, 29640, Note_on_c, 0, 65, 64
2, 29640, Note_on_c, 0, 74, 64
2, 29640, Note_on_c, 0, 46, 64
2, 29640, Note_on_c, 0, 50, 64
2, 29666, Note_on_c, 0, 65, 0
2, 29670, Note_on_c, 0, 67, 64
2, 29696, Note_on_c, 0, 67, 0
2, 29700, Note_on_c, 0, 65, 64
2, 29726, Note_on_c, 0, 65, 0
2, 29730, Note_on_c, 0, 67, 64
2, 29745, Note_on_c, 0, 50, 0
2, 29756, Note_on_c, 0, 67, 0
2, 29760, Note_on_c, 0, 65, 64
2, 29760, Note_on_c, 0, 55, 64
2, 29786, Note_on_c, 0, 65, 0
2, 29790, Note_on_c, 0, 67, 64
2, 29805, Note_on_c, 0, 74, 0
2, 29812, Note_on_c, 0, 55, 0
2, 29816, Note_on_c, 0, 67, 0
2, 29820, Note_on_c, 0, 65, 64
2, 29820, Note_on_c, 0, 70, 64
2, 29820, Note_on_c, 0, 53, 64
2, 29846, Note_on_c, 0, 65, 0
2, 29850, Note_on_c, 0, 67, 64
2, 29876, Note_on_c, 0, 67, 0
2, 29880, Note_on_c, 0, 65, 64
2, 29906, Note_on_c, 0, 65, 0
2, 29910, Note_on_c, 0, 67, 64
2, 29925, Note_on_c, 0, 53, 0
2, 29936, Note_on_c, 0, 67, 0
2, 29940, Note_on_c, 0, 65, 64
2, 29940, Note_on_c, 0, 50, 64
2, 29966, Note_on_c, 0, 65, 0
2, 29970, Note_on_c, 0, 67, 64
2, 29985, Note_on_c, 0, 46, 0
2, 29985, Note_on_c, 0, 70, 0
2, 29992, Note_on_c, 0, 50, 0
2, 29996, Note_on_c, 0, 67, 0
2, 30000, Note_on_c, 0, 65, 64
2, 30000, Note_on_c, 0, 69, 64
2, 30000, Note_on_c, 0, 41, 64
2, 30000, Note_on_c, 0, 48, 64
2, 30026, Note_on_c, 0, 65, 0
2, 30030, Note_on_c, 0, 67, 64
2, 30056, Note_on_c, 0, 67, 0
2, 30060, Note_on_c, 0, 65, 64
2, 30086, Note_on_c, 0, 65, 0
2, 30090, Note_on_c, 0, 67, 64
2, 30105, Note_on_c, 0, 48, 0
2, 30116, Note_on_c, 0, 67, 0
2, 30120, Note_on_c, 0, 65, 64
2, 30120, Note_on_c, 0, 55, 64
2, 30146, Note_on_c, 0, 65, 0
2, 30150, Note_on_c, 0, 67, 64
2, 30165, Note_on_c, 0, 69, 0
2, 30172, Note_on_c, 0, 55, 0
2, 30176, Note_on_c, 0, 67, 0
2, 30180, Note_on_c, 0, 65, 64
2, 30180, Note_on_c, 0, 75, 64
2, 30180, Note_on_c, 0, 53, 64
2, 30206, Note_on_c, 0, 65, 0
2, 30210, Note_on_c, 0, 67, 64
2, 30236, Note_on_c, 0, 67, 0
2, 30240, Note_on_c, 0, 65, 64
2, 30266, Note_on_c, 0, 65, 0
2, 30270, Note_on_c, 0, 67, 64
2, 30285, Note_on_c, 0, 53, 0
2, 30296, Note_on_c, 0, 67, 0
2, 30300, Note_on_c, 0, 65, 64
2, 30300, Note_on_c, 0, 48, 64
2, 30326, Note_on_c, 0, 65, 0
2, 30330, Note_on_c, 0, 67, 64
2, 30345, Note_on_c, 0, 41, 0
2, 30345, Note_on_c, 0, 75, 0
2, 30352, Note_on_c, 0, 48, 0
2, 30356, Note_on_c, 0, 67, 0
2, 30360, Note_on_c, 0, 74, 64
2, 30360, Note_on_c, 0, 46, 64
2, 30360, Note_on_c, 0, 50, 64
2, 30386, Note_on_c, 0, 74, 0
2, 30390, Note_on_c, 0, 77, 64
2, 30412, Note_on_c, 0, 50, 0
2, 30412, Note_on_c, 0, 46, 0
2, 30416, Note_on_c, 0, 77, 0
2, 30420, Note_on_c, 0, 79, 64
2, 30420, Note_on_c, 0, 50, 64
2, 30420, Note_on_c, 0, 53, 64
2, 30420, Note_on_c, 0, 58, 64
2, 30437, Note_on_c, 0, 79, 0
2, 30439, Note_on_c, 0, 81, 64
2, 30457, Note_on_c, 0, 81, 0
2, 30459, Note_on_c, 0, 82, 64
2, 30472, Note_on_c, 0, 58, 0
2, 30472, Note_on_c, 0, 50, 0
2, 30472, Note_on_c, 0, 53, 0
2, 30477, Note_on_c, 0, 82, 0
2, 30480, Note_on_c, 0, 84, 64
2, 30480, Note_on_c, 0, 50, 64
2, 30480, Note_on_c, 0, 53, 64
2, 30480, Note_on_c, 0, 58, 64
2, 30497, Note_on_c, 0, 84, 0
2, 30499, Note_on_c, 0, 86, 64
2, 30517, Note_on_c, 0, 86, 0
2, 30519, Note_on_c, 0, 87, 64
2, 30532, Note_on_c, 0, 58, 0
2, 30532, Note_on_c, 0, 50, 0
2, 30532, Note_on_c, 0, 53, 0
2, 30537, Note_on_c, 0, 87, 0
2, 30540, Note_on_c, 0, 89, 64
2, 30540, Note_on_c, 0, 50, 64
2, 30540, Note_on_c, 0, 53, 64
2, 30540, Note_on_c, 0, 58, 64
2, 30566, Note_on_c, 0, 89, 0
2, 30570, Note_on_c, 0, 87, 64
2, 30592, Note_on_c, 0, 50, 0
2, 30592, Note_on_c, 0, 58, 0
2, 30592, Note_on_c, 0, 53, 0
2, 30596, Note_on_c, 0, 87, 0
2, 30600, Note_on_c, 0, 86, 64
2, 30600, Note_on_c, 0, 50, 64
2, 30600, Note_on_c, 0, 53, 64
2, 30600, Note_on_c, 0, 58, 64
2, 30626, Note_on_c, 0, 86, 0
2, 30630, Note_on_c, 0, 84, 64
2, 30652, Note_on_c, 0, 50, 0
2, 30652, Note_on_c, 0, 58, 0
2, 30652, Note_on_c, 0, 53, 0
2, 30656, Note_on_c, 0, 84, 0
2, 30660, Note_on_c, 0, 82, 64
2, 30660, Note_on_c, 0, 50, 64
2, 30660, Note_on_c, 0, 53, 64
2, 30660, Note_on_c, 0, 58, 64
2, 30686, Note_on_c, 0, 82, 0
2, 30690, Note_on_c, 0, 81, 64
2, 30712, Note_on_c, 0, 50, 0
2, 30712, Note_on_c, 0, 58, 0
2, 30712, Note_on_c, 0, 53, 0
2, 30716, Note_on_c, 0, 81, 0
2, 30720, Note_on_c, 0, 79, 64
2, 30746, Note_on_c, 0, 79, 0
2, 30750, Note_on_c, 0, 81, 64
2, 30776, Note_on_c, 0, 81, 0
2, 30780, Note_on_c, 0, 82, 64
2, 30780, Note_on_c, 0, 51, 64
2, 30780, Note_on_c, 0, 55, 64
2, 30780, Note_on_c, 0, 58, 64
2, 30806, Note_on_c, 0, 82, 0
2, 30810, Note_on_c, 0, 84, 64
2, 30832, Note_on_c, 0, 51, 0
2, 30832, Note_on_c, 0, 58, 0
2, 30832, Note_on_c, 0, 55, 0
2, 30836, Note_on_c, 0, 84, 0
2, 30840, Note_on_c, 0, 86, 64
2, 30840, Note_on_c, 0, 51, 64
2, 30840, Note_on_c, 0, 55, 64
2, 30840, Note_on_c, 0, 58, 64
2, 30857, Note_on_c, 0, 86, 0
2, 30859, Note_on_c, 0, 87, 64
2, 30877, Note_on_c, 0, 87, 0
2, 30879, Note_on_c, 0, 89, 64
2, 30892, Note_on_c, 0, 58, 0
2, 30892, Note_on_c, 0, 51, 0
2, 30892, Note_on_c, 0, 55, 0
2, 30897, Note_on_c, 0, 89, 0
2, 30900, Note_on_c, 0, 91, 64
2, 30900, Note_on_c, 0, 51, 64
2, 30900, Note_on_c, 0, 55, 64
2, 30900, Note_on_c, 0, 58, 64
2, 30926, Note_on_c, 0, 91, 0
2, 30930, Note_on_c, 0, 89, 64
2, 30952, Note_on_c, 0, 51, 0
2, 30952, Note_on_c, 0, 58, 0
2, 30952, Note_on_c, 0, 55, 0
2, 30956, Note_on_c, 0, 89, 0
2, 30960, Note_on_c, 0, 87, 64
2, 30960, Note_on_c, 0, 51, 64
2, 30960, Note_on_c, 0, 55, 64
2, 30960, Note_on_c, 0, 58, 64
2, 30977, Note_on_c, 0, 87, 0
2, 30979, Note_on_c, 0, 86, 64
2, 30997, Note_on_c, 0, 86, 0
2, 30999, Note_on_c, 0, 84, 64
2, 31012, Note_on_c, 0, 58, 0
2, 31012, Note_on_c, 0, 51, 0
2, 31012, Note_on_c, 0, 55, 0
2, 31017, Note_on_c, 0, 84, 0
2, 31020, Note_on_c, 0, 82, 64
2, 31020, Note_on_c, 0, 51, 64
2, 31020, Note_on_c, 0, 55, 64
2, 31020, Note_on_c, 0, 60, 64
2, 31037, Note_on_c, 0, 82, 0
2, 31039, Note_on_c, 0, 81, 64
2, 31057, Note_on_c, 0, 81, 0
2, 31059, Note_on_c, 0, 79, 64
2, 31072, Note_on_c, 0, 60, 0
2, 31072, Note_on_c, 0, 51, 0
2, 31072, Note_on_c, 0, 55, 0
2, 31077, Note_on_c, 0, 79, 0
2, 31080, Note_on_c, 0, 77, 64
2, 31106, Note_on_c, 0, 77, 0
2, 31110, Note_on_c, 0, 86, 64
2, 31136, Note_on_c, 0, 86, 0
2, 31140, Note_on_c, 0, 82, 64
2, 31140, Note_on_c, 0, 53, 64
2, 31140, Note_on_c, 0, 58, 64
2, 31140, Note_on_c, 0, 62, 64
2, 31166, Note_on_c, 0, 82, 0
2, 31170, Note_on_c, 0, 89, 64
2, 31192, Note_on_c, 0, 53, 0
2, 31192, Note_on_c, 0, 62, 0
2, 31192, Note_on_c, 0, 58, 0
2, 31196, Note_on_c, 0, 89, 0
2, 31200, Note_on_c, 0, 86, 64
2, 31200, Note_on_c, 0, 53, 64
2, 31200, Note_on_c, 0, 58, 64
2, 31200, Note_on_c, 0, 62, 64
2, 31226, Note_on_c, 0, 86, 0
2, 31230, Note_on_c, 0, 94, 64
2, 31252, Note_on_c, 0, 53, 0
2, 31252, Note_on_c, 0, 62, 0
2, 31252, Note_on_c, 0, 58, 0
2, 31256, Note_on_c, 0, 94, 0
2, 31260, Note_on_c, 0, 89, 64
2, 31260, Note_on_c, 0, 53, 64
2, 31260, Note_on_c, 0, 58, 64
2, 31260, Note_on_c, 0, 62, 64
2, 31277, Note_on_c, 0, 89, 0
2, 31279, Note_on_c, 0, 98, 64
2, 31297, Note_on_c, 0, 98, 0
2, 31299, Note_on_c, 0, 94, 64
2, 31312, Note_on_c, 0, 62, 0
2, 31312, Note_on_c, 0, 53, 0
2, 31312, Note_on_c, 0, 58, 0
2, 31317, Note_on_c, 0, 94, 0
2, 31320, Note_on_c, 0, 101, 64
2, 31320, Note_on_c, 0, 53, 64
2, 31320, Note_on_c, 0, 58, 64
2, 31320, Note_on_c, 0, 62, 64
2, 31337, Note_on_c, 0, 101, 0
2, 31339, Note_on_c, 0, 98, 64
2, 31357, Note_on_c, 0, 98, 0
2, 31359, Note_on_c, 0, 94, 64
2, 31372, Note_on_c, 0, 62, 0
2, 31372, Note_on_c, 0, 53, 0
2, 31372, Note_on_c, 0, 58, 0
2, 31377, Note_on_c, 0, 94, 0
2, 31380, Note_on_c, 0, 89, 64
2, 31380, Note_on_c, 0, 53, 64
2, 31380, Note_on_c, 0, 58, 64
2, 31380, Note_on_c, 0, 62, 64
2, 31397, Note_on_c, 0, 89, 0
2, 31399, Note_on_c, 0, 86, 64
2, 31417, Note_on_c, 0, 86, 0
2, 31419, Note_on_c, 0, 82, 64
2, 31432, Note_on_c, 0, 62, 0
2, 31432, Note_on_c, 0, 53, 0
2, 31432, Note_on_c, 0, 58, 0
2, 31437, Note_on_c, 0, 82, 0
2, 31440, Note_on_c, 0, 77, 64
2, 31440, Note_on_c, 0, 53, 64
2, 31440, Note_on_c, 0, 58, 64
2, 31440, Note_on_c, 0, 62, 64
2, 31492, Note_on_c, 0, 62, 0
2, 31492, Note_on_c, 0, 58, 0
2, 31492, Note_on_c, 0, 53, 0
2, 31500, Note_on_c, 0, 53, 64
2, 31500, Note_on_c, 0, 58, 64
2, 31500, Note_on_c, 0, 62, 64
2, 31545, Note_on_c, 0, 77, 0
2, 31552, Note_on_c, 0, 53, 0
2, 31552, Note_on_c, 0, 58, 0
2, 31552, Note_on_c, 0, 62, 0
2, 31560, Note_on_c, 0, 53, 64
2, 31560, Note_on_c, 0, 58, 64
2, 31560, Note_on_c, 0, 62, 64
2, 31612, Note_on_c, 0, 62, 0
2, 31612, Note_on_c, 0, 58, 0
2, 31612, Note_on_c, 0, 53, 0
2, 31620, Note_on_c, 0, 86, 64
2, 31620, Note_on_c, 0, 53, 64
2, 31620, Note_on_c, 0, 56, 64
2, 31620, Note_on_c, 0, 63, 64
2, 31633, Note_on_c, 0, 86, 0
2, 31635, Note_on_c, 0, 84, 64
2, 31648, Note_on_c, 0, 84, 0
2, 31650, Note_on_c, 0, 86, 64
2, 31663, Note_on_c, 0, 86, 0
2, 31665, Note_on_c, 0, 84, 64
2, 31672, Note_on_c, 0, 53, 0
2, 31672, Note_on_c, 0, 63, 0
2, 31672, Note_on_c, 0, 56, 0
2, 31678, Note_on_c, 0, 84, 0
2, 31680, Note_on_c, 0, 86, 64
2, 31680, Note_on_c, 0, 53, 64
2, 31680, Note_on_c, 0, 56, 64
2, 31680, Note_on_c, 0, 63, 64
2, 31693, Note_on_c, 0, 86, 0
2, 31695, Note_on_c, 0, 84, 64
2, 31708, Note_on_c, 0, 84, 0
2, 31710, Note_on_c, 0, 86, 64
2, 31723, Note_on_c, 0, 86, 0
2, 31725, Note_on_c, 0, 84, 64
2, 31732, Note_on_c, 0, 53, 0
2, 31732, Note_on_c, 0, 63, 0
2, 31732, Note_on_c, 0, 56, 0
2, 31738, Note_on_c, 0, 84, 0
2, 31740, Note_on_c, 0, 86, 64
2, 31740, Note_on_c, 0, 53, 64
2, 31740, Note_on_c, 0, 56, 64
2, 31740, Note_on_c, 0, 63, 64
2, 31753, Note_on_c, 0, 86, 0
2, 31755, Note_on_c, 0, 84, 64
2, 31768, Note_on_c, 0, 84, 0
2, 31770, Note_on_c, 0, 86, 64
2, 31783, Note_on_c, 0, 86, 0
2, 31785, Note_on_c, 0, 84, 64
2, 31792, Note_on_c, 0, 53, 0
2, 31792, Note_on_c, 0, 63, 0
2, 31792, Note_on_c, 0, 56, 0
2, 31798, Note_on_c, 0, 84, 0
2, 31800, Note_on_c, 0, 86, 64
2, 31800, Note_on_c, 0, 77, 64
2, 31800, Note_on_c, 0, 62, 64
2, 31800, Note_on_c, 0, 58, 64
2, 31826, Note_on_c, 0, 77, 0
2, 31830, Note_on_c, 0, 79, 64
2, 31856, Note_on_c, 0, 79, 0
2, 31860, Note_on_c, 0, 77, 64
2, 31886, Note_on_c, 0, 77, 0
2, 31890, Note_on_c, 0, 79, 64
2, 31905, Note_on_c, 0, 62, 0
2, 31916, Note_on_c, 0, 79, 0
2, 31920, Note_on_c, 0, 77, 64
2, 31920, Note_on_c, 0, 67, 64
2, 31946, Note_on_c, 0, 77, 0
2, 31950, Note_on_c, 0, 79, 64
2, 31965, Note_on_c, 0, 86, 0
2, 31972, Note_on_c, 0, 67, 0
2, 31976, Note_on_c, 0, 79, 0
2, 31980, Note_on_c, 0, 82, 64
2, 31980, Note_on_c, 0, 77, 64
2, 31980, Note_on_c, 0, 65, 64
2, 32006, Note_on_c, 0, 77, 0
2, 32010, Note_on_c, 0, 79, 64
2, 32036, Note_on_c, 0, 79, 0
2, 32040, Note_on_c, 0, 77, 64
2, 32066, Note_on_c, 0, 77, 0
2, 32070, Note_on_c, 0, 79, 64
2, 32085, Note_on_c, 0, 65, 0
2, 32096, Note_on_c, 0, 79, 0
2, 32100, Note_on_c, 0, 77, 64
2, 32100, Note_on_c, 0, 62, 64
2, 32126, Note_on_c, 0, 77, 0
2, 32130, Note_on_c, 0, 79, 64
2, 32145, Note_on_c, 0, 58, 0
2, 32145, Note_on_c, 0, 82, 0
2, 32152, Note_on_c, 0, 62, 0
2, 32156, Note_on_c, 0, 79, 0
2, 32160, Note_on_c, 0, 81, 64
2, 32160, Note_on_c, 0, 77, 64
2, 32160, Note_on_c, 0, 60, 64
2, 32160, Note_on_c, 0, 53, 64
2, 32186, Note_on_c, 0, 77, 0
2, 32190, Note_on_c, 0, 79, 64
2, 32216, Note_on_c, 0, 79, 0
2, 32220, Note_on_c, 0, 77, 64
2, 32246, Note_on_c, 0, 77, 0
2, 32250, Note_on_c, 0, 79, 64
2, 32265, Note_on_c, 0, 60, 0
2, 32276, Note_on_c, 0, 79, 0
2, 32280, Note_on_c, 0, 77, 64
2, 32280, Note_on_c, 0, 67, 64
2, 32306, Note_on_c, 0, 77, 0
2, 32310, Note_on_c, 0, 79, 64
2, 32325, Note_on_c, 0, 81, 0
2, 32332, Note_on_c, 0, 67, 0
2, 32336, Note_on_c, 0, 79, 0
2, 32340, Note_on_c, 0, 87, 64
2, 32340, Note_on_c, 0, 77, 64
2, 32340, Note_on_c, 0, 65, 64
2, 32366, Note_on_c, 0, 77, 0
2, 32370, Note_on_c, 0, 79, 64
2, 32396, Note_on_c, 0, 79, 0
2, 32400, Note_on_c, 0, 77, 64
2, 32426, Note_on_c, 0, 77, 0
2, 32430, Note_on_c, 0, 79, 64
2, 32445, Note_on_c, 0, 65, 0
2, 32456, Note_on_c, 0, 79, 0
2, 32460, Note_on_c, 0, 77, 64
2, 32460, Note_on_c, 0, 60, 64
2, 32486, Note_on_c, 0, 77, 0
2, 32490, Note_on_c, 0, 79, 64
2, 32505, Note_on_c, 0, 53, 0
2, 32505, Note_on_c, 0, 87, 0
2, 32512, Note_on_c, 0, 60, 0
2, 32516, Note_on_c, 0, 79, 0
2, 32520, Note_on_c, 0, 86, 64
2, 32520, Note_on_c, 0, 77, 64
2, 32520, Note_on_c, 0, 62, 64
2, 32520, Note_on_c, 0, 58, 64
2, 32546, Note_on_c, 0, 77, 0
2, 32550, Note_on_c, 0, 79, 64
2, 32576, Note_on_c, 0, 79, 0
2, 32580, Note_on_c, 0, 77, 64
2, 32606, Note_on_c, 0, 77, 0
2, 32610, Note_on_c, 0, 79, 64
2, 32625, Note_on_c, 0, 62, 0
2, 32636, Note_on_c, 0, 79, 0
2, 32640, Note_on_c, 0, 77, 64
2, 32640, Note_on_c, 0, 67, 64
2, 32666, Note_on_c, 0, 77, 0
2, 32670, Note_on_c, 0, 79, 64
2, 32685, Note_on_c, 0, 86, 0
2, 32692, Note_on_c, 0, 67, 0
2, 32696, Note_on_c, 0, 79, 0
2, 32700, Note_on_c, 0, 82, 64
2, 32700, Note_on_c, 0, 77, 64
2, 32700, Note_on_c, 0, 65, 64
2, 32726, Note_on_c, 0, 77, 0
2, 32730, Note_on_c, 0, 79, 64
2, 32756, Note_on_c, 0, 79, 0
2, 32760, Note_on_c, 0, 77, 64
2, 32786, Note_on_c, 0, 77, 0
2, 32790, Note_on_c, 0, 79, 64
2, 32805, Note_on_c, 0, 65, 0
2, 32816, Note_on_c, 0, 79, 0
2, 32820, Note_on_c, 0, 77, 64
2, 32820, Note_on_c, 0, 62, 64
2, 32846, Note_on_c, 0, 77, 0
2, 32850, Note_on_c, 0, 79, 64
2, 32865, Note_on_c, 0, 58, 0
2, 32865, Note_on_c, 0, 82, 0
2, 32872, Note_on_c, 0, 62, 0
2, 32876, Note_on_c, 0, 79, 0
2, 32880, Note_on_c, 0, 81, 64
2, 32880, Note_on_c, 0, 77, 64
2, 32880, Note_on_c, 0, 60, 64
2, 32880, Note_on_c, 0, 53, 64
2, 32906, Note_on_c, 0, 77, 0
2, 32910, Note_on_c, 0, 79, 64
2, 32936, Note_on_c, 0, 79, 0
2, 32940, Note_on_c, 0, 77, 64
2, 32966, Note_on_c, 0, 77, 0
2, 32970, Note_on_c, 0, 79, 64
2, 32985, Note_on_c, 0, 60, 0
2, 32996, Note_on_c, 0, 79, 0
2, 33000, Note_on_c, 0, 77, 64
2, 33000, Note_on_c, 0, 67, 64
2, 33026, Note_on_c, 0, 77, 0
2, 33030, Note_on_c, 0, 79, 64
2, 33045, Note_on_c, 0, 81, 0
2, 33052, Note_on_c, 0, 67, 0
2, 33056, Note_on_c, 0, 79, 0
2, 33060, Note_on_c, 0, 87, 64
2, 33060, Note_on_c, 0, 77, 64
2, 33060, Note_on_c, 0, 65, 64
2, 33086, Note_on_c, 0, 77, 0
2, 33090, Note_on_c, 0, 79, 64
2, 33116, Note_on_c, 0, 79, 0
2, 33120, Note_on_c, 0, 77, 64
2, 33146, Note_on_c, 0, 77, 0
2, 33150, Note_on_c, 0, 79, 64
2, 33165, Note_on_c, 0, 65, 0
2, 33176, Note_on_c, 0, 79, 0
2, 33180, Note_on_c, 0, 77, 64
2, 33180, Note_on_c, 0, 60, 64
2, 33206, Note_on_c, 0, 77, 0
2, 33210, Note_on_c, 0, 79, 64
2, 33225, Note_on_c, 0, 53, 0
2, 33225, Note_on_c, 0, 87, 0
2, 33232, Note_on_c, 0, 60, 0
2, 33236, Note_on_c, 0, 79, 0
2, 33240, Note_on_c, 0, 62, 64
2, 33240, Note_on_c, 0, 65, 64
2, 33266, Note_on_c, 0, 65, 0
2, 33266, Note_on_c, 0, 62, 0
2, 33270, Note_on_c, 0, 67, 64
2, 33296, Note_on_c, 0, 67, 0
2, 33300, Note_on_c, 0, 82, 64
2, 33300, Note_on_c, 0, 86, 64
2, 33300, Note_on_c, 0, 69, 64
2, 33326, Note_on_c, 0, 69, 0
2, 33330, Note_on_c, 0, 70, 64
2, 33352, Note_on_c, 0, 86, 0
2, 33352, Note_on_c, 0, 82, 0
2, 33356, Note_on_c, 0, 70, 0
2, 33360, Note_on_c, 0, 82, 64
2, 33360, Note_on_c, 0, 86, 64
2, 33360, Note_on_c, 0, 72, 64
2, 33377, Note_on_c, 0, 72, 0
2, 33379, Note_on_c, 0, 74, 64
2, 33397, Note_on_c, 0, 74, 0
2, 33399, Note_on_c, 0, 75, 64
2, 33412, Note_on_c, 0, 86, 0
2, 33412, Note_on_c, 0, 82, 0
2, 33417, Note_on_c, 0, 75, 0
2, 33420, Note_on_c, 0, 82, 64
2, 33420, Note_on_c, 0, 86, 64
2, 33420, Note_on_c, 0, 77, 64
2, 33446, Note_on_c, 0, 77, 0
2, 33450, Note_on_c, 0, 75, 64
2, 33472, Note_on_c, 0, 86, 0
2, 33472, Note_on_c, 0, 82, 0
2, 33476, Note_on_c, 0, 75, 0
2, 33480, Note_on_c, 0, 82, 64
2, 33480, Note_on_c, 0, 86, 64
2, 33480, Note_on_c, 0, 74, 64
2, 33506, Note_on_c, 0, 74, 0
2, 33510, Note_on_c, 0, 72, 64
2, 33532, Note_on_c, 0, 86, 0
2, 33532, Note_on_c, 0, 82, 0
2, 33536, Note_on_c, 0, 72, 0
2, 33540, Note_on_c, 0, 82, 64
2, 33540, Note_on_c, 0, 86, 64
2, 33540, Note_on_c, 0, 70, 64
2, 33566, Note_on_c, 0, 70, 0
2, 33570, Note_on_c, 0, 69, 64
2, 33592, Note_on_c, 0, 86, 0
2, 33592, Note_on_c, 0, 82, 0
2, 33596, Note_on_c, 0, 69, 0
2, 33600, Note_on_c, 0, 63, 64
2, 33600, Note_on_c, 0, 67, 64
2, 33626, Note_on_c, 0, 67, 0
2, 33626, Note_on_c, 0, 63, 0
2, 33630, Note_on_c, 0, 69, 64
2, 33656, Note_on_c, 0, 69, 0
2, 33660, Note_on_c, 0, 82, 64
2, 33660, Note_on_c, 0, 84, 64
2, 33660, Note_on_c, 0, 70, 64
2, 33686, Note_on_c, 0, 70, 0
2, 33690, Note_on_c, 0, 72, 64
2, 33712, Note_on_c, 0, 84, 0
2, 33712, Note_on_c, 0, 82, 0
2, 33716, Note_on_c, 0, 72, 0
2, 33720, Note_on_c, 0, 82, 64
2, 33720, Note_on_c, 0, 84, 64
2, 33720, Note_on_c, 0, 74, 64
2, 33737, Note_on_c, 0, 74, 0
2, 33739, Note_on_c, 0, 75, 64
2, 33757, Note_on_c, 0, 75, 0
2, 33759, Note_on_c, 0, 77, 64
2, 33772, Note_on_c, 0, 84, 0
2, 33772, Note_on_c, 0, 82, 0
2, 33777, Note_on_c, 0, 77, 0
2, 33780, Note_on_c, 0, 82, 64
2, 33780, Note_on_c, 0, 84, 64
2, 33780, Note_on_c, 0, 79, 64
2, 33806, Note_on_c, 0, 79, 0
2, 33810, Note_on_c, 0, 77, 64
2, 33832, Note_on_c, 0, 84, 0
2, 33832, Note_on_c, 0, 82, 0
2, 33836, Note_on_c, 0, 77, 0
2, 33840, Note_on_c, 0, 82, 64
2, 33840, Note_on_c, 0, 84, 64
2, 33840, Note_on_c, 0, 75, 64
2, 33857, Note_on_c, 0, 75, 0
2, 33859, Note_on_c, 0, 74, 64
2, 33877, Note_on_c, 0, 74, 0
2, 33879, Note_on_c, 0, 72, 64
2, 33892, Note_on_c, 0, 84, 0
2, 33892, Note_on_c, 0, 82, 0
2, 33897, Note_on_c, 0, 72, 0
2, 33900, Note_on_c, 0, 82, 64
2, 33900, Note_on_c, 0, 84, 64
2, 33900, Note_on_c, 0, 70, 64
2, 33917, Note_on_c, 0, 70, 0
2, 33919, Note_on_c, 0, 69, 64
2, 33937, Note_on_c, 0, 69, 0
2, 33939, Note_on_c, 0, 67, 64
2, 33952, Note_on_c, 0, 84, 0
2, 33952, Note_on_c, 0, 82, 0
2, 33957, Note_on_c, 0, 67, 0
2, 33960, Note_on_c, 0, 65, 64
2, 33986, Note_on_c, 0, 65, 0
2, 33990, Note_on_c, 0, 53, 64
2, 34016, Note_on_c, 0, 53, 0
2, 34020, Note_on_c, 0, 82, 64
2, 34020, Note_on_c, 0, 86, 64
2, 34020, Note_on_c, 0, 58, 64
2, 34046, Note_on_c, 0, 58, 0
2, 34050, Note_on_c, 0, 62, 64
2, 34072, Note_on_c, 0, 86, 0
2, 34072, Note_on_c, 0, 82, 0
2, 34076, Note_on_c, 0, 62, 0
2, 34080, Note_on_c, 0, 82, 64
2, 34080, Note_on_c, 0, 86, 64
2, 34080, Note_on_c, 0, 65, 64
2, 34106, Note_on_c, 0, 65, 0
2, 34110, Note_on_c, 0, 70, 64
2, 34132, Note_on_c, 0, 86, 0
2, 34132, Note_on_c, 0, 82, 0
2, 34136, Note_on_c, 0, 70, 0
2, 34140, Note_on_c, 0, 82, 64
2, 34140, Note_on_c, 0, 86, 64
2, 34140, Note_on_c, 0, 74, 64
2, 34166, Note_on_c, 0, 74, 0
2, 34170, Note_on_c, 0, 70, 64
2, 34192, Note_on_c, 0, 86, 0
2, 34192, Note_on_c, 0, 82, 0
2, 34196, Note_on_c, 0, 70, 0
2, 34200, Note_on_c, 0, 82, 64
2, 34200, Note_on_c, 0, 86, 64
2, 34200, Note_on_c, 0, 77, 64
2, 34226, Note_on_c, 0, 77, 0
2, 34230, Note_on_c, 0, 74, 64
2, 34252, Note_on_c, 0, 86, 0
2, 34252, Note_on_c, 0, 82, 0
2, 34256, Note_on_c, 0, 74, 0
2, 34260, Note_on_c, 0, 82, 64
2, 34260, Note_on_c, 0, 86, 64
2, 34260, Note_on_c, 0, 89, 64
2, 34260, Note_on_c, 0, 70, 64
2, 34286, Note_on_c, 0, 70, 0
2, 34290, Note_on_c, 0, 74, 64
2, 34312, Note_on_c, 0, 82, 0
2, 34312, Note_on_c, 0, 89, 0
2, 34312, Note_on_c, 0, 86, 0
2, 34316, Note_on_c, 0, 74, 0
2, 34320, Note_on_c, 0, 81, 64
2, 34320, Note_on_c, 0, 87, 64
2, 34320, Note_on_c, 0, 89, 64
2, 34320, Note_on_c, 0, 74, 64
2, 34320, Note_on_c, 0, 65, 64
2, 34333, Note_on_c, 0, 74, 0
2, 34335, Note_on_c, 0, 72, 64
2, 34348, Note_on_c, 0, 72, 0
2, 34350, Note_on_c, 0, 74, 64
2, 34363, Note_on_c, 0, 74, 0
2, 34365, Note_on_c, 0, 72, 64
2, 34372, Note_on_c, 0, 89, 0
2, 34372, Note_on_c, 0, 81, 0
2, 34372, Note_on_c, 0, 87, 0
2, 34378, Note_on_c, 0, 72, 0
2, 34380, Note_on_c, 0, 81, 64
2, 34380, Note_on_c, 0, 87, 64
2, 34380, Note_on_c, 0, 89, 64
2, 34380, Note_on_c, 0, 74, 64
2, 34393, Note_on_c, 0, 74, 0
2, 34395, Note_on_c, 0, 72, 64
2, 34398, Note_on_c, 0, 65, 0
2, 34408, Note_on_c, 0, 72, 0
2, 34410, Note_on_c, 0, 74, 64
2, 34423, Note_on_c, 0, 74, 0
2, 34425, Note_on_c, 0, 72, 64
2, 34432, Note_on_c, 0, 89, 0
2, 34432, Note_on_c, 0, 81, 0
2, 34432, Note_on_c, 0, 87, 0
2, 34438, Note_on_c, 0, 72, 0
2, 34440, Note_on_c, 0, 81, 64
2, 34440, Note_on_c, 0, 87, 64
2, 34440, Note_on_c, 0, 89, 64
2, 34440, Note_on_c, 0, 74, 64
2, 34453, Note_on_c, 0, 74, 0
2, 34455, Note_on_c, 0, 72, 64
2, 34468, Note_on_c, 0, 72, 0
2, 34470, Note_on_c, 0, 74, 64
2, 34483, Note_on_c, 0, 74, 0
2, 34485, Note_on_c, 0, 72, 64
2, 34492, Note_on_c, 0, 81, 0
2, 34492, Note_on_c, 0, 89, 0
2, 34492, Note_on_c, 0, 87, 0
2, 34498, Note_on_c, 0, 72, 0
2, 34500, Note_on_c, 0, 81, 64
2, 34500, Note_on_c, 0, 87, 64
2, 34500, Note_on_c, 0, 89, 64
2, 34500, Note_on_c, 0, 74, 64
2, 34513, Note_on_c, 0, 74, 0
2, 34515, Note_on_c, 0, 72, 64
2, 34528, Note_on_c, 0, 72, 0
2, 34530, Note_on_c, 0, 74, 64
2, 34543, Note_on_c, 0, 74, 0
2, 34545, Note_on_c, 0, 72, 64
2, 34552, Note_on_c, 0, 81, 0
2, 34552, Note_on_c, 0, 89, 0
2, 34552, Note_on_c, 0, 87, 0
2, 34558, Note_on_c, 0, 72, 0
2, 34560, Note_on_c, 0, 81, 64
2, 34560, Note_on_c, 0, 87, 64
2, 34560, Note_on_c, 0, 89, 64
2, 34560, Note_on_c, 0, 74, 64
2, 34573, Note_on_c, 0, 74, 0
2, 34575, Note_on_c, 0, 72, 64
2, 34588, Note_on_c, 0, 72, 0
2, 34590, Note_on_c, 0, 74, 64
2, 34603, Note_on_c, 0, 74, 0
2, 34605, Note_on_c, 0, 72, 64
2, 34612, Note_on_c, 0, 81, 0
2, 34612, Note_on_c, 0, 89, 0
2, 34612, Note_on_c, 0, 87, 0
2, 34618, Note_on_c, 0, 72, 0
2, 34620, Note_on_c, 0, 81, 64
2, 34620, Note_on_c, 0, 87, 64
2, 34620, Note_on_c, 0, 89, 64
2, 34620, Note_on_c, 0, 74, 64
2, 34633, Note_on_c, 0, 74, 0
2, 34635, Note_on_c, 0, 72, 64
2, 34648, Note_on_c, 0, 72, 0
2, 34650, Note_on_c, 0, 74, 64
2, 34663, Note_on_c, 0, 74, 0
2, 34665, Note_on_c, 0, 72, 64
2, 34672, Note_on_c, 0, 81, 0
2, 34672, Note_on_c, 0, 89, 0
2, 34672, Note_on_c, 0, 87, 0
2, 34678, Note_on_c, 0, 72, 0
2, 34680, Note_on_c, 0, 65, 64
2, 34706, Note_on_c, 0, 65, 0
2, 34710, Note_on_c, 0, 71, 64
2, 34736, Note_on_c, 0, 71, 0
2, 34740, Note_on_c, 0, 72, 64
2, 34766, Note_on_c, 0, 72, 0
2, 34770, Note_on_c, 0, 74, 64
2, 34796, Note_on_c, 0, 74, 0
2, 34800, Note_on_c, 0, 80, 64
2, 34800, Note_on_c, 0, 92, 64
2, 34800, Note_on_c, 0, 72, 64
2, 34826, Note_on_c, 0, 72, 0
2, 34830, Note_on_c, 0, 71, 64
2, 34856, Note_on_c, 0, 71, 0
2, 34860, Note_on_c, 0, 63, 64
2, 34886, Note_on_c, 0, 63, 0
2, 34890, Note_on_c, 0, 72, 64
2, 34916, Note_on_c, 0, 72, 0
2, 34920, Note_on_c, 0, 74, 64
2, 34946, Note_on_c, 0, 74, 0
2, 34950, Note_on_c, 0, 75, 64
2, 34976, Note_on_c, 0, 75, 0
2, 34980, Note_on_c, 0, 92, 0
2, 34980, Note_on_c, 0, 80, 0
2, 34980, Note_on_c, 0, 79, 64
2, 34980, Note_on_c, 0, 91, 64
2, 34980, Note_on_c, 0, 74, 64
2, 35006, Note_on_c, 0, 74, 0
2, 35010, Note_on_c, 0, 72, 64
2, 35032, Note_on_c, 0, 91, 0
2, 35032, Note_on_c, 0, 79, 0
2, 35036, Note_on_c, 0, 72, 0
2, 35040, Note_on_c, 0, 63, 64
2, 35066, Note_on_c, 0, 63, 0
2, 35070, Note_on_c, 0, 69, 64
2, 35096, Note_on_c, 0, 69, 0
2, 35100, Note_on_c, 0, 70, 64
2, 35126, Note_on_c, 0, 70, 0
2, 35130, Note_on_c, 0, 72, 64
2, 35156, Note_on_c, 0, 72, 0
2, 35160, Note_on_c, 0, 78, 64
2, 35160, Note_on_c, 0, 90, 64
2, 35160, Note_on_c, 0, 70, 64
2, 35186, Note_on_c, 0, 70, 0
2, 35190, Note_on_c, 0, 69, 64
2, 35216, Note_on_c, 0, 69, 0
2, 35220, Note_on_c, 0, 62, 64
2, 35246, Note_on_c, 0, 62, 0
2, 35250, Note_on_c, 0, 70, 64
2, 35276, Note_on_c, 0, 70, 0
2, 35280, Note_on_c, 0, 72, 64
2, 35306, Note_on_c, 0, 72, 0
2, 35310, Note_on_c, 0, 74, 64
2, 35336, Note_on_c, 0, 74, 0
2, 35340, Note_on_c, 0, 90, 0
2, 35340, Note_on_c, 0, 78, 0
2, 35340, Note_on_c, 0, 77, 64
2, 35340, Note_on_c, 0, 89, 64
2, 35340, Note_on_c, 0, 72, 64
2, 35366, Note_on_c, 0, 72, 0
2, 35370, Note_on_c, 0, 70, 64
2, 35392, Note_on_c, 0, 89, 0
2, 35392, Note_on_c, 0, 77, 0
2, 35396, Note_on_c, 0, 70, 0
2, 35400, Note_on_c, 0, 53, 64
2, 35426, Note_on_c, 0, 53, 0
2, 35430, Note_on_c, 0, 59, 64
2, 35456, Note_on_c, 0, 59, 0
2, 35460, Note_on_c, 0, 60, 64
2, 35486, Note_on_c, 0, 60, 0
2, 35490, Note_on_c, 0, 62, 64
2, 35516, Note_on_c, 0, 62, 0
2, 35520, Note_on_c, 0, 68, 64
2, 35520, Note_on_c, 0, 80, 64
2, 35520, Note_on_c, 0, 60, 64
2, 35546, Note_on_c, 0, 60, 0
2, 35550, Note_on_c, 0, 59, 64
2, 35576, Note_on_c, 0, 59, 0
2, 35580, Note_on_c, 0, 51, 64
2, 35606, Note_on_c, 0, 51, 0
2, 35610, Note_on_c, 0, 60, 64
2, 35636, Note_on_c, 0, 60, 0
2, 35640, Note_on_c, 0, 62, 64
2, 35666, Note_on_c, 0, 62, 0
2, 35670, Note_on_c, 0, 63, 64
2, 35696, Note_on_c, 0, 63, 0
2, 35700, Note_on_c, 0, 80, 0
2, 35700, Note_on_c, 0, 68, 0
2, 35700, Note_on_c, 0, 67, 64
2, 35700, Note_on_c, 0, 79, 64
2, 35700, Note_on_c, 0, 62, 64
2, 35726, Note_on_c, 0, 62, 0
2, 35730, Note_on_c, 0, 60, 64
2, 35752, Note_on_c, 0, 79, 0
2, 35752, Note_on_c, 0, 67, 0
2, 35756, Note_on_c, 0, 60, 0
2, 35760, Note_on_c, 0, 51, 64
2, 35786, Note_on_c, 0, 51, 0
2, 35790, Note_on_c, 0, 57, 64
2, 35816, Note_on_c, 0, 57, 0
2, 35820, Note_on_c, 0, 58, 64
2, 35846, Note_on_c, 0, 58, 0
2, 35850, Note_on_c, 0, 60, 64
2, 35876, Note_on_c, 0, 60, 0
2, 35880, Note_on_c, 0, 66, 64
2, 35880, Note_on_c, 0, 78, 64
2, 35880, Note_on_c, 0, 58, 64
2, 35906, Note_on_c, 0, 58, 0
2, 35910, Note_on_c, 0, 57, 64
2, 35936, Note_on_c, 0, 57, 0
2, 35940, Note_on_c, 0, 50, 64
2, 35966, Note_on_c, 0, 50, 0
2, 35970, Note_on_c, 0, 58, 64
2, 35996, Note_on_c, 0, 58, 0
2, 36000, Note_on_c, 0, 60, 64
2, 36026, Note_on_c, 0, 60, 0
2, 36030, Note_on_c, 0, 62, 64
2, 36056, Note_on_c, 0, 62, 0
2, 36060, Note_on_c, 0, 78, 0
2, 36060, Note_on_c, 0, 66, 0
2, 36060, Note_on_c, 0, 65, 64
2, 36060, Note_on_c, 0, 77, 64
2, 36060, Note_on_c, 0, 60, 64
2, 36086, Note_on_c, 0, 60, 0
2, 36090, Note_on_c, 0, 58, 64
2, 36112, Note_on_c, 0, 77, 0
2, 36112, Note_on_c, 0, 65, 0
2, 36116, Note_on_c, 0, 58, 0
2, 36120, Note_on_c, 0, 50, 64
2, 36146, Note_on_c, 0, 50, 0
2, 36150, Note_on_c, 0, 53, 64
2, 36176, Note_on_c, 0, 53, 0
2, 36180, Note_on_c, 0, 65, 64
2, 36180, Note_on_c, 0, 70, 64
2, 36180, Note_on_c, 0, 77, 64
2, 36180, Note_on_c, 0, 58, 64
2, 36206, Note_on_c, 0, 58, 0
2, 36206, Note_on_c, 0, 65, 0
2, 36206, Note_on_c, 0, 70, 0
2, 36206, Note_on_c, 0, 77, 0
2, 36210, Note_on_c, 0, 62, 64
2, 36236, Note_on_c, 0, 62, 0
2, 36240, Note_on_c, 0, 65, 64
2, 36240, Note_on_c, 0, 70, 64
2, 36240, Note_on_c, 0, 77, 64
2, 36240, Note_on_c, 0, 58, 64
2, 36266, Note_on_c, 0, 58, 0
2, 36266, Note_on_c, 0, 65, 0
2, 36266, Note_on_c, 0, 70, 0
2, 36266, Note_on_c, 0, 77, 0
2, 36270, Note_on_c, 0, 53, 64
2, 36296, Note_on_c, 0, 53, 0
2, 36300, Note_on_c, 0, 43, 64
2, 36326, Note_on_c, 0, 43, 0
2, 36330, Note_on_c, 0, 46, 64
2, 36356, Note_on_c, 0, 46, 0
2, 36360, Note_on_c, 0, 67, 64
2, 36360, Note_on_c, 0, 70, 64
2, 36360, Note_on_c, 0, 75, 64
2, 36360, Note_on_c, 0, 50, 64
2, 36386, Note_on_c, 0, 50, 0
2, 36386, Note_on_c, 0, 67, 0
2, 36386, Note_on_c, 0, 70, 0
2, 36386, Note_on_c, 0, 75, 0
2, 36390, Note_on_c, 0, 55, 64
2, 36416, Note_on_c, 0, 55, 0
2, 36420, Note_on_c, 0, 67, 64
2, 36420, Note_on_c, 0, 70, 64
2, 36420, Note_on_c, 0, 74, 64
2, 36420, Note_on_c, 0, 50, 64
2, 36446, Note_on_c, 0, 50, 0
2, 36446, Note_on_c, 0, 67, 0
2, 36446, Note_on_c, 0, 70, 0
2, 36446, Note_on_c, 0, 74, 0
2, 36450, Note_on_c, 0, 46, 64
2, 36476, Note_on_c, 0, 46, 0
2, 36480, Note_on_c, 0, 39, 64
2, 36506, Note_on_c, 0, 39, 0
2, 36510, Note_on_c, 0, 43, 64
2, 36536, Note_on_c, 0, 43, 0
2, 36540, Note_on_c, 0, 63, 64
2, 36540, Note_on_c, 0, 67, 64
2, 36540, Note_on_c, 0, 74, 64
2, 36540, Note_on_c, 0, 48, 64
2, 36566, Note_on_c, 0, 48, 0
2, 36566, Note_on_c, 0, 63, 0
2, 36566, Note_on_c, 0, 67, 0
2, 36566, Note_on_c, 0, 74, 0
2, 36570, Note_on_c, 0, 51, 64
2, 36596, Note_on_c, 0, 51, 0
2, 36600, Note_on_c, 0, 63, 64
2, 36600, Note_on_c, 0, 67, 64
2, 36600, Note_on_c, 0, 72, 64
2, 36600, Note_on_c, 0, 48, 64
2, 36626, Note_on_c, 0, 48, 0
2, 36626, Note_on_c, 0, 63, 0
2, 36626, Note_on_c, 0, 67, 0
2, 36626, Note_on_c, 0, 72, 0
2, 36630, Note_on_c, 0, 43, 64
2, 36656, Note_on_c, 0, 43, 0
2, 36660, Note_on_c, 0, 41, 64
2, 36686, Note_on_c, 0, 41, 0
2, 36690, Note_on_c, 0, 48, 64
2, 36716, Note_on_c, 0, 48, 0
2, 36720, Note_on_c, 0, 60, 64
2, 36720, Note_on_c, 0, 63, 64
2, 36720, Note_on_c, 0, 70, 64
2, 36720, Note_on_c, 0, 51, 64
2, 36746, Note_on_c, 0, 51, 0
2, 36746, Note_on_c, 0, 60, 0
2, 36746, Note_on_c, 0, 63, 0
2, 36746, Note_on_c, 0, 70, 0
2, 36750, Note_on_c, 0, 53, 64
2, 36776, Note_on_c, 0, 53, 0
2, 36780, Note_on_c, 0, 60, 64
2, 36780, Note_on_c, 0, 63, 64
2, 36780, Note_on_c, 0, 69, 64
2, 36780, Note_on_c, 0, 51, 64
2, 36806, Note_on_c, 0, 51, 0
2, 36806, Note_on_c, 0, 60, 0
2, 36806, Note_on_c, 0, 63, 0
2, 36806, Note_on_c, 0, 69, 0
2, 36810, Note_on_c, 0, 48, 64
2, 36836, Note_on_c, 0, 48, 0
2, 36840, Note_on_c, 0, 38, 64
2, 36866, Note_on_c, 0, 38, 0
2, 36870, Note_on_c, 0, 41, 64
2, 36896, Note_on_c, 0, 41, 0
2, 36900, Note_on_c, 0, 58, 64
2, 36900, Note_on_c, 0, 65, 64
2, 36900, Note_on_c, 0, 70, 64
2, 36900, Note_on_c, 0, 46, 64
2, 36926, Note_on_c, 0, 46, 0
2, 36926, Note_on_c, 0, 58, 0
2, 36926, Note_on_c, 0, 65, 0
2, 36926, Note_on_c, 0, 70, 0
2, 36930, Note_on_c, 0, 50, 64
2, 36956, Note_on_c, 0, 50, 0
2, 36960, Note_on_c, 0, 58, 64
2, 36960, Note_on_c, 0, 62, 64
2, 36960, Note_on_c, 0, 65, 64
2, 36960, Note_on_c, 0, 46, 64
2, 36986, Note_on_c, 0, 46, 0
2, 36986, Note_on_c, 0, 58, 0
2, 36986, Note_on_c, 0, 62, 0
2, 36986, Note_on_c, 0, 65, 0
2, 36990, Note_on_c, 0, 41, 64
2, 37016, Note_on_c, 0, 41, 0
2, 37020, Note_on_c, 0, 31, 64
2, 37046, Note_on_c, 0, 31, 0
2, 37050, Note_on_c, 0, 34, 64
2, 37076, Note_on_c, 0, 34, 0
2, 37080, Note_on_c, 0, 55, 64
2, 37080, Note_on_c, 0, 58, 64
2, 37080, Note_on_c, 0, 63, 64
2, 37080, Note_on_c, 0, 38, 64
2, 37106, Note_on_c, 0, 38, 0
2, 37106, Note_on_c, 0, 55, 0
2, 37106, Note_on_c, 0, 58, 0
2, 37106, Note_on_c, 0, 63, 0
2, 37110, Note_on_c, 0, 43, 64
2, 37136, Note_on_c, 0, 43, 0
2, 37140, Note_on_c, 0, 55, 64
2, 37140, Note_on_c, 0, 58, 64
2, 37140, Note_on_c, 0, 62, 64
2, 37140, Note_on_c, 0, 38, 64
2, 37166, Note_on_c, 0, 38, 0
2, 37166, Note_on_c, 0, 55, 0
2, 37166, Note_on_c, 0, 58, 0
2, 37166, Note_on_c, 0, 62, 0
2, 37170, Note_on_c, 0, 34, 64
2, 37196, Note_on_c, 0, 34, 0
2, 37200, Note_on_c, 0, 39, 64
2, 37226, Note_on_c, 0, 39, 0
2, 37230, Note_on_c, 0, 43, 64
2, 37256, Note_on_c, 0, 43, 0
2, 37260, Note_on_c, 0, 51, 64
2, 37260, Note_on_c, 0, 55, 64
2, 37260, Note_on_c, 0, 62, 64
2, 37260, Note_on_c, 0, 48, 64
2, 37286, Note_on_c, 0, 48, 0
2, 37286, Note_on_c, 0, 51, 0
2, 37286, Note_on_c, 0, 55, 0
2, 37286, Note_on_c, 0, 62, 0
2, 37290, Note_on_c, 0, 43, 64
2, 37316, Note_on_c, 0, 43, 0
2, 37320, Note_on_c, 0, 51, 64
2, 37320, Note_on_c, 0, 55, 64
2, 37320, Note_on_c, 0, 60, 64
2, 37320, Note_on_c, 0, 39, 64
2, 37346, Note_on_c, 0, 60, 0
2, 37346, Note_on_c, 0, 51, 0
2, 37346, Note_on_c, 0, 55, 0
2, 37372, Note_on_c, 0, 39, 0
2, 37380, Note_on_c, 0, 29, 64
2, 37406, Note_on_c, 0, 29, 0
2, 37410, Note_on_c, 0, 36, 64
2, 37436, Note_on_c, 0, 36, 0
2, 37440, Note_on_c, 0, 48, 64
2, 37440, Note_on_c, 0, 51, 64
2, 37440, Note_on_c, 0, 58, 64
2, 37440, Note_on_c, 0, 39, 64
2, 37466, Note_on_c, 0, 39, 0
2, 37466, Note_on_c, 0, 48, 0
2, 37466, Note_on_c, 0, 51, 0
2, 37466, Note_on_c, 0, 58, 0
2, 37470, Note_on_c, 0, 41, 64
2, 37496, Note_on_c, 0, 41, 0
2, 37500, Note_on_c, 0, 48, 64
2, 37500, Note_on_c, 0, 51, 64
2, 37500, Note_on_c, 0, 57, 64
2, 37500, Note_on_c, 0, 29, 64
2, 37526, Note_on_c, 0, 29, 0
2, 37526, Note_on_c, 0, 48, 0
2, 37526, Note_on_c, 0, 51, 0
2, 37526, Note_on_c, 0, 57, 0
2, 37530, Note_on_c, 0, 41, 64
2, 37556, Note_on_c, 0, 41, 0
2, 37560, Note_on_c, 0, 46, 64
2, 37560, Note_on_c, 0, 34, 64
2, 37586, Note_on_c, 0, 46, 0
2, 37590, Note_on_c, 0, 48, 64
2, 37612, Note_on_c, 0, 34, 0
2, 37616, Note_on_c, 0, 48, 0
2, 37620, Note_on_c, 0, 50, 64
2, 37620, Note_on_c, 0, 46, 64
2, 37646, Note_on_c, 0, 50, 0
2, 37650, Note_on_c, 0, 51, 64
2, 37672, Note_on_c, 0, 46, 0
2, 37676, Note_on_c, 0, 51, 0
2, 37680, Note_on_c, 0, 53, 64
2, 37680, Note_on_c, 0, 46, 64
2, 37680, Note_on_c, 0, 50, 64
2, 37697, Note_on_c, 0, 53, 0
2, 37699, Note_on_c, 0, 55, 64
2, 37717, Note_on_c, 0, 55, 0
2, 37719, Note_on_c, 0, 57, 64
2, 37732, Note_on_c, 0, 50, 0
2, 37732, Note_on_c, 0, 46, 0
2, 37737, Note_on_c, 0, 57, 0
2, 37740, Note_on_c, 0, 58, 64
2, 37740, Note_on_c, 0, 46, 64
2, 37740, Note_on_c, 0, 50, 64
2, 37740, Note_on_c, 0, 53, 64
2, 37757, Note_on_c, 0, 58, 0
2, 37759, Note_on_c, 0, 60, 64
2, 37777, Note_on_c, 0, 60, 0
2, 37779, Note_on_c, 0, 62, 64
2, 37797, Note_on_c, 0, 62, 0
2, 37800, Note_on_c, 0, 63, 64
2, 37817, Note_on_c, 0, 63, 0
2, 37819, Note_on_c, 0, 65, 64
2, 37837, Note_on_c, 0, 65, 0
2, 37839, Note_on_c, 0, 67, 64
2, 37845, Note_on_c, 0, 46, 0
2, 37845, Note_on_c, 0, 53, 0
2, 37845, Note_on_c, 0, 50, 0
2, 37857, Note_on_c, 0, 67, 0
2, 37860, Note_on_c, 0, 69, 64
2, 37860, Note_on_c, 0, 41, 64
2, 37860, Note_on_c, 0, 48, 64
2, 37860, Note_on_c, 0, 53, 64
2, 37886, Note_on_c, 0, 69, 0
2, 37890, Note_on_c, 0, 57, 64
2, 37912, Note_on_c, 0, 41, 0
2, 37912, Note_on_c, 0, 53, 0
2, 37912, Note_on_c, 0, 48, 0
2, 37916, Note_on_c, 0, 57, 0
2, 37920, Note_on_c, 0, 58, 64
2, 37920, Note_on_c, 0, 46, 64
2, 37920, Note_on_c, 0, 50, 64
2, 37920, Note_on_c, 0, 53, 64
2, 37946, Note_on_c, 0, 58, 0
2, 37950, Note_on_c, 0, 60, 64
2, 37972, Note_on_c, 0, 46, 0
2, 37972, Note_on_c, 0, 53, 0
2, 37972, Note_on_c, 0, 50, 0
2, 37976, Note_on_c, 0, 60, 0
2, 37980, Note_on_c, 0, 62, 64
2, 37980, Note_on_c, 0, 46, 64
2, 37980, Note_on_c, 0, 50, 64
2, 37980, Note_on_c, 0, 53, 64
2, 38006, Note_on_c, 0, 62, 0
2, 38010, Note_on_c, 0, 63, 64
2, 38032, Note_on_c, 0, 46, 0
2, 38032, Note_on_c, 0, 53, 0
2, 38032, Note_on_c, 0, 50, 0
2, 38036, Note_on_c, 0, 63, 0
2, 38040, Note_on_c, 0, 65, 64
2, 38040, Note_on_c, 0, 46, 64
2, 38040, Note_on_c, 0, 50, 64
2, 38040, Note_on_c, 0, 53, 64
2, 38057, Note_on_c, 0, 65, 0
2, 38059, Note_on_c, 0, 67, 64
2, 38077, Note_on_c, 0, 67, 0
2, 38079, Note_on_c, 0, 69, 64
2, 38092, Note_on_c, 0, 53, 0
2, 38092, Note_on_c, 0, 46, 0
2, 38092, Note_on_c, 0, 50, 0
2, 38097, Note_on_c, 0, 69, 0
2, 38100, Note_on_c, 0, 70, 64
2, 38100, Note_on_c, 0, 46, 64
2, 38100, Note_on_c, 0, 50, 64
2, 38100, Note_on_c, 0, 53, 64
2, 38117, Note_on_c, 0, 70, 0
2, 38119, Note_on_c, 0, 72, 64
2, 38137, Note_on_c, 0, 72, 0
2, 38139, Note_on_c, 0, 74, 64
2, 38157, Note_on_c, 0, 74, 0
2, 38160, Note_on_c, 0, 75, 64
2, 38177, Note_on_c, 0, 75, 0
2, 38179, Note_on_c, 0, 77, 64
2, 38197, Note_on_c, 0, 77, 0
2, 38199, Note_on_c, 0, 79, 64
2, 38205, Note_on_c, 0, 46, 0
2, 38205, Note_on_c, 0, 53, 0
2, 38205, Note_on_c, 0, 50, 0
2, 38217, Note_on_c, 0, 79, 0
2, 38220, Note_on_c, 0, 81, 64
2, 38220, Note_on_c, 0, 41, 64
2, 38220, Note_on_c, 0, 48, 64
2, 38220, Note_on_c, 0, 53, 64
2, 38246, Note_on_c, 0, 81, 0
2, 38250, Note_on_c, 0, 69, 64
2, 38272, Note_on_c, 0, 41, 0
2, 38272, Note_on_c, 0, 53, 0
2, 38272, Note_on_c, 0, 48, 0
2, 38276, Note_on_c, 0, 69, 0
2, 38280, Note_on_c, 0, 70, 64
2, 38280, Note_on_c, 0, 46, 64
2, 38280, Note_on_c, 0, 50, 64
2, 38280, Note_on_c, 0, 53, 64
2, 38306, Note_on_c, 0, 70, 0
2, 38310, Note_on_c, 0, 72, 64
2, 38332, Note_on_c, 0, 46, 0
2, 38332, Note_on_c, 0, 53, 0
2, 38332, Note_on_c, 0, 50, 0
2, 38336, Note_on_c, 0, 72, 0
2, 38340, Note_on_c, 0, 74, 64
2, 38340, Note_on_c, 0, 46, 64
2, 38340, Note_on_c, 0, 50, 64
2, 38340, Note_on_c, 0, 53, 64
2, 38366, Note_on_c, 0, 74, 0
2, 38370, Note_on_c, 0, 75, 64
2, 38392, Note_on_c, 0, 46, 0
2, 38392, Note_on_c, 0, 53, 0
2, 38392, Note_on_c, 0, 50, 0
2, 38396, Note_on_c, 0, 75, 0
2, 38400, Note_on_c, 0, 77, 64
2, 38400, Note_on_c, 0, 46, 64
2, 38400, Note_on_c, 0, 50, 64
2, 38400, Note_on_c, 0, 53, 64
2, 38417, Note_on_c, 0, 77, 0
2, 38419, Note_on_c, 0, 79, 64
2, 38437, Note_on_c, 0, 79, 0
2, 38439, Note_on_c, 0, 81, 64
2, 38452, Note_on_c, 0, 53, 0
2, 38452, Note_on_c, 0, 46, 0
2, 38452, Note_on_c, 0, 50, 0
2, 38457, Note_on_c, 0, 81, 0
2, 38460, Note_on_c, 0, 82, 64
2, 38460, Note_on_c, 0, 46, 64
2, 38460, Note_on_c, 0, 50, 64
2, 38460, Note_on_c, 0, 53, 64
2, 38477, Note_on_c, 0, 82, 0
2, 38479, Note_on_c, 0, 84, 64
2, 38497, Note_on_c, 0, 84, 0
2, 38499, Note_on_c, 0, 86, 64
2, 38517, Note_on_c, 0, 86, 0
2, 38520, Note_on_c, 0, 87, 64
2, 38537, Note_on_c, 0, 87, 0
2, 38539, Note_on_c, 0, 89, 64
2, 38557, Note_on_c, 0, 89, 0
2, 38559, Note_on_c, 0, 91, 64
2, 38565, Note_on_c, 0, 46, 0
2, 38565, Note_on_c, 0, 53, 0
2, 38565, Note_on_c, 0, 50, 0
2, 38577, Note_on_c, 0, 91, 0
2, 38580, Note_on_c, 0, 93, 64
2, 38580, Note_on_c, 0, 41, 64
2, 38580, Note_on_c, 0, 48, 64
2, 38580, Note_on_c, 0, 53, 64
2, 38606, Note_on_c, 0, 93, 0
2, 38610, Note_on_c, 0, 81, 64
2, 38632, Note_on_c, 0, 41, 0
2, 38632, Note_on_c, 0, 53, 0
2, 38632, Note_on_c, 0, 48, 0
2, 38636, Note_on_c, 0, 81, 0
2, 38640, Note_on_c, 0, 82, 64
2, 38640, Note_on_c, 0, 94, 64
2, 38640, Note_on_c, 0, 46, 64
2, 38640, Note_on_c, 0, 50, 64
2, 38640, Note_on_c, 0, 53, 64
2, 38640, Note_on_c, 0, 58, 64
2, 38745, Note_on_c, 0, 58, 0
2, 38745, Note_on_c, 0, 94, 0
2, 38745, Note_on_c, 0, 46, 0
2, 38745, Note_on_c, 0, 82, 0
2, 38745, Note_on_c, 0, 53, 0
2, 38745, Note_on_c, 0, 50, 0
2, 38820, Note_on_c, 0, 74, 64
2, 38820, Note_on_c, 0, 77, 64
2, 38820, Note_on_c, 0, 82, 64
2, 38820, Note_on_c, 0, 46, 64
2, 38820, Note_on_c, 0, 50, 64
2, 38820, Note_on_c, 0, 53, 64
2, 38820, Note_on_c, 0, 58, 64
2, 38925, Note_on_c, 0, 58, 0
2, 38925, Note_on_c, 0, 50, 0
2, 38925, Note_on_c, 0, 77, 0
2, 38925, Note_on_c, 0, 82, 0
2, 38925, Note_on_c, 0, 74, 0
2, 38925, Note_on_c, 0, 53, 0
2, 38925, Note_on_c, 0, 46, 0
2, 39000, Note_on_c, 0, 62, 64
2, 39000, Note_on_c, 0, 65, 64
2, 39000, Note_on_c, 0, 70, 64
2, 39000, Note_on_c, 0, 46, 64
2, 39000, Note_on_c, 0, 50, 64
2, 39000, Note_on_c, 0, 53, 64
2, 39000, Note_on_c, 0, 58, 64
2, 39105, Note_on_c, 0, 58, 0
2, 39105, Note_on_c, 0, 50, 0
2, 39105, Note_on_c, 0, 65, 0
2, 39105, Note_on_c, 0, 70, 0
2, 39105, Note_on_c, 0, 62, 0
2, 39105, Note_on_c, 0, 53, 0
2, 39105, Note_on_c, 0, 46, 0
2, 39300, Note_on_c, 0, 82, 64
2, 39352, Note_on_c, 0, 82, 0
2, 39360, Note_on_c, 0, 82, 64
2, 39360, Note_on_c, 0, 63, 64
2, 39360, Note_on_c, 0, 67, 64
2, 39360, Note_on_c, 0, 70, 64
2, 39412, Note_on_c, 0, 82, 0
2, 39420, Note_on_c, 0, 79, 64
2, 39465, Note_on_c, 0, 63, 0
2, 39465, Note_on_c, 0, 70, 0
2, 39465, Note_on_c, 0, 67, 0
2, 39472, Note_on_c, 0, 79, 0
2, 39480, Note_on_c, 0, 75, 64
2, 39532, Note_on_c, 0, 75, 0
2, 39540, Note_on_c, 0, 74, 64
2, 39540, Note_on_c, 0, 58, 64
2, 39540, Note_on_c, 0, 65, 64
2, 39540, Note_on_c, 0, 68, 64
2, 39540, Note_on_c, 0, 70, 64
2, 39592, Note_on_c, 0, 74, 0
2, 39600, Note_on_c, 0, 77, 64
2, 39645, Note_on_c, 0, 68, 0
2, 39645, Note_on_c, 0, 70, 0
2, 39645, Note_on_c, 0, 58, 0
2, 39645, Note_on_c, 0, 65, 0
2, 39652, Note_on_c, 0, 77, 0
2, 39660, Note_on_c, 0, 82, 64
2, 39712, Note_on_c, 0, 82, 0
2, 39720, Note_on_c, 0, 82, 64
2, 39720, Note_on_c, 0, 63, 64
2, 39720, Note_on_c, 0, 67, 64
2, 39720, Note_on_c, 0, 70, 64
2, 39772, Note_on_c, 0, 82, 0
2, 39780, Note_on_c, 0, 79, 64
2, 39825, Note_on_c, 0, 63, 0
2, 39825, Note_on_c, 0, 70, 0
2, 39825, Note_on_c, 0, 67, 0
2, 39832, Note_on_c, 0, 79, 0
2, 39840, Note_on_c, 0, 75, 64
2, 39892, Note_on_c, 0, 75, 0
2, 39900, Note_on_c, 0, 75, 64
2, 39952, Note_on_c, 0, 75, 0
2, 39960, Note_on_c, 0, 79, 64
2, 40012, Note_on_c, 0, 79, 0
2, 40020, Note_on_c, 0, 84, 64
2, 40020, Note_on_c, 0, 64, 64
2, 40020, Note_on_c, 0, 67, 64
2, 40020, Note_on_c, 0, 70, 64
2, 40020, Note_on_c, 0, 72, 64
2, 40072, Note_on_c, 0, 72, 0
2, 40072, Note_on_c, 0, 67, 0
2, 40072, Note_on_c, 0, 84, 0
2, 40072, Note_on_c, 0, 64, 0
2, 40072, Note_on_c, 0, 70, 0
2, 40080, Note_on_c, 0, 84, 64
2, 40080, Note_on_c, 0, 65, 64
2, 40080, Note_on_c, 0, 68, 64
2, 40080, Note_on_c, 0, 72, 64
2, 40132, Note_on_c, 0, 84, 0
2, 40140, Note_on_c, 0, 80, 64
2, 40185, Note_on_c, 0, 65, 0
2, 40185, Note_on_c, 0, 72, 0
2, 40185, Note_on_c, 0, 68, 0
2, 40192, Note_on_c, 0, 80, 0
2, 40200, Note_on_c, 0, 77, 64
2, 40252, Note_on_c, 0, 77, 0
2, 40260, Note_on_c, 0, 76, 64
2, 40260, Note_on_c, 0, 60, 64
2, 40260, Note_on_c, 0, 67, 64
2, 40260, Note_on_c, 0, 70, 64
2, 40260, Note_on_c, 0, 72, 64
2, 40312, Note_on_c, 0, 76, 0
2, 40320, Note_on_c, 0, 79, 64
2, 40365, Note_on_c, 0, 70, 0
2, 40365, Note_on_c, 0, 72, 0
2, 40365, Note_on_c, 0, 60, 0
2, 40365, Note_on_c, 0, 67, 0
2, 40372, Note_on_c, 0, 79, 0
2, 40380, Note_on_c, 0, 84, 64
2, 40432, Note_on_c, 0, 84, 0
2, 40440, Note_on_c, 0, 84, 64
2, 40440, Note_on_c, 0, 65, 64
2, 40440, Note_on_c, 0, 68, 64
2, 40440, Note_on_c, 0, 72, 64
2, 40492, Note_on_c, 0, 84, 0
2, 40500, Note_on_c, 0, 80, 64
2, 40545, Note_on_c, 0, 65, 0
2, 40545, Note_on_c, 0, 72, 0
2, 40545, Note_on_c, 0, 68, 0
2, 40552, Note_on_c, 0, 80, 0
2, 40560, Note_on_c, 0, 77, 64
2, 40612, Note_on_c, 0, 77, 0
2, 40620, Note_on_c, 0, 74, 64
2, 40672, Note_on_c, 0, 74, 0
2, 40680, Note_on_c, 0, 77, 64
2, 40732, Note_on_c, 0, 77, 0
2, 40740, Note_on_c, 0, 82, 64
2, 40740, Note_on_c, 0, 62, 64
2, 40740, Note_on_c, 0, 65, 64
2, 40740, Note_on_c, 0, 68, 64
2, 40740, Note_on_c, 0, 70, 64
2, 40792, Note_on_c, 0, 70, 0
2, 40792, Note_on_c, 0, 65, 0
2, 40792, Note_on_c, 0, 82, 0
2, 40792, Note_on_c, 0, 62, 0
2, 40792, Note_on_c, 0, 68, 0
2, 40800, Note_on_c, 0, 82, 64
2, 40800, Note_on_c, 0, 63, 64
2, 40800, Note_on_c, 0, 67, 64
2, 40800, Note_on_c, 0, 70, 64
2, 40852, Note_on_c, 0, 82, 0
2, 40860, Note_on_c, 0, 79, 64
2, 40905, Note_on_c, 0, 63, 0
2, 40905, Note_on_c, 0, 70, 0
2, 40905, Note_on_c, 0, 67, 0
2, 40912, Note_on_c, 0, 79, 0
2, 40920, Note_on_c, 0, 75, 64
2, 40972, Note_on_c, 0, 75, 0
2, 40980, Note_on_c, 0, 72, 64
2, 40980, Note_on_c, 0, 56, 64
2, 40980, Note_on_c, 0, 60, 64
2, 40980, Note_on_c, 0, 65, 64
2, 41032, Note_on_c, 0, 72, 0
2, 41040, Note_on_c, 0, 77, 64
2, 41085, Note_on_c, 0, 56, 0
2, 41085, Note_on_c, 0, 65, 0
2, 41085, Note_on_c, 0, 60, 0
2, 41092, Note_on_c, 0, 77, 0
2, 41100, Note_on_c, 0, 80, 64
2, 41152, Note_on_c, 0, 80, 0
2, 41160, Note_on_c, 0, 70, 64
2, 41160, Note_on_c, 0, 58, 64
2, 41160, Note_on_c, 0, 63, 64
2, 41160, Note_on_c, 0, 67, 64
2, 41212, Note_on_c, 0, 70, 0
2, 41220, Note_on_c, 0, 75, 64
2, 41265, Note_on_c, 0, 58, 0
2, 41265, Note_on_c, 0, 67, 0
2, 41265, Note_on_c, 0, 63, 0
2, 41272, Note_on_c, 0, 75, 0
2, 41280, Note_on_c, 0, 79, 64
2, 41332, Note_on_c, 0, 79, 0
2, 41340, Note_on_c, 0, 68, 64
2, 41340, Note_on_c, 0, 58, 64
2, 41340, Note_on_c, 0, 62, 64
2, 41340, Note_on_c, 0, 65, 64
2, 41392, Note_on_c, 0, 68, 0
2, 41400, Note_on_c, 0, 74, 64
2, 41445, Note_on_c, 0, 58, 0
2, 41445, Note_on_c, 0, 65, 0
2, 41445, Note_on_c, 0, 62, 0
2, 41452, Note_on_c, 0, 74, 0
2, 41460, Note_on_c, 0, 68, 64
2, 41460, Note_on_c, 0, 77, 64
2, 41460, Note_on_c, 0, 58, 64
2, 41512, Note_on_c, 0, 58, 0
2, 41512, Note_on_c, 0, 77, 0
2, 41512, Note_on_c, 0, 68, 0
2, 41520, Note_on_c, 0, 67, 64
2, 41520, Note_on_c, 0, 75, 64
2, 41520, Note_on_c, 0, 58, 64
2, 41572, Note_on_c, 0, 58, 0
2, 41572, Note_on_c, 0, 75, 0
2, 41572, Note_on_c, 0, 67, 0
2, 41580, Note_on_c, 0, 55, 64
2, 41632, Note_on_c, 0, 55, 0
2, 41640, Note_on_c, 0, 79, 64
2, 41640, Note_on_c, 0, 51, 64
2, 41692, Note_on_c, 0, 51, 0
2, 41692, Note_on_c, 0, 79, 0
2, 41700, Note_on_c, 0, 80, 64
2, 41700, Note_on_c, 0, 50, 64
2, 41726, Note_on_c, 0, 80, 0
2, 41730, Note_on_c, 0, 79, 64
2, 41752, Note_on_c, 0, 50, 0
2, 41756, Note_on_c, 0, 79, 0
2, 41760, Note_on_c, 0, 80, 64
2, 41760, Note_on_c, 0, 53, 64
2, 41786, Note_on_c, 0, 80, 0
2, 41790, Note_on_c, 0, 77, 64
2, 41812, Note_on_c, 0, 53, 0
2, 41816, Note_on_c, 0, 77, 0
2, 41820, Note_on_c, 0, 82, 64
2, 41820, Note_on_c, 0, 58, 64
2, 41846, Note_on_c, 0, 82, 0
2, 41850, Note_on_c, 0, 80, 64
2, 41872, Note_on_c, 0, 58, 0
2, 41876, Note_on_c, 0, 80, 0
2, 41880, Note_on_c, 0, 79, 64
2, 41880, Note_on_c, 0, 58, 64
2, 41906, Note_on_c, 0, 79, 0
2, 41932, Note_on_c, 0, 58, 0
2, 41940, Note_on_c, 0, 94, 64
2, 41940, Note_on_c, 0, 55, 64
2, 41966, Note_on_c, 0, 94, 0
2, 41992, Note_on_c, 0, 55, 0
2, 42000, Note_on_c, 0, 51, 64
2, 42052, Note_on_c, 0, 51, 0
2, 42060, Note_on_c, 0, 51, 64
2, 42112, Note_on_c, 0, 51, 0
2, 42120, Note_on_c, 0, 55, 64
2, 42172, Note_on_c, 0, 55, 0
2, 42180, Note_on_c, 0, 67, 64
2, 42180, Note_on_c, 0, 52, 64
2, 42180, Note_on_c, 0, 60, 64
2, 42232, Note_on_c, 0, 60, 0
2, 42232, Note_on_c, 0, 52, 0
2, 42232, Note_on_c, 0, 67, 0
2, 42240, Note_on_c, 0, 53, 64
2, 42240, Note_on_c, 0, 60, 64
2, 42292, Note_on_c, 0, 60, 0
2, 42292, Note_on_c, 0, 53, 0
2, 42300, Note_on_c, 0, 56, 64
2, 42352, Note_on_c, 0, 56, 0
2, 42360, Note_on_c, 0, 68, 64
2, 42360, Note_on_c, 0, 53, 64
2, 42412, Note_on_c, 0, 53, 0
2, 42412, Note_on_c, 0, 68, 0
2, 42420, Note_on_c, 0, 70, 64
2, 42420, Note_on_c, 0, 52, 64
2, 42446, Note_on_c, 0, 70, 0
2, 42450, Note_on_c, 0, 68, 64
2, 42472, Note_on_c, 0, 52, 0
2, 42476, Note_on_c, 0, 68, 0
2, 42480, Note_on_c, 0, 70, 64
2, 42480, Note_on_c, 0, 55, 64
2, 42506, Note_on_c, 0, 70, 0
2, 42510, Note_on_c, 0, 67, 64
2, 42532, Note_on_c, 0, 55, 0
2, 42536, Note_on_c, 0, 67, 0
2, 42540, Note_on_c, 0, 72, 64
2, 42540, Note_on_c, 0, 60, 64
2, 42566, Note_on_c, 0, 72, 0
2, 42570, Note_on_c, 0, 70, 64
2, 42592, Note_on_c, 0, 60, 0
2, 42596, Note_on_c, 0, 70, 0
2, 42600, Note_on_c, 0, 68, 64
2, 42600, Note_on_c, 0, 60, 64
2, 42626, Note_on_c, 0, 68, 0
2, 42652, Note_on_c, 0, 60, 0
2, 42660, Note_on_c, 0, 84, 64
2, 42660, Note_on_c, 0, 56, 64
2, 42686, Note_on_c, 0, 84, 0
2, 42712, Note_on_c, 0, 56, 0
2, 42720, Note_on_c, 0, 53, 64
2, 42772, Note_on_c, 0, 53, 0
2, 42780, Note_on_c, 0, 50, 64
2, 42832, Note_on_c, 0, 50, 0
2, 42840, Note_on_c, 0, 53, 64
2, 42892, Note_on_c, 0, 53, 0
2, 42900, Note_on_c, 0, 77, 64
2, 42900, Note_on_c, 0, 50, 64
2, 42900, Note_on_c, 0, 58, 64
2, 42952, Note_on_c, 0, 58, 0
2, 42952, Note_on_c, 0, 50, 0
2, 42952, Note_on_c, 0, 77, 0
2, 42960, Note_on_c, 0, 51, 64
2, 42960, Note_on_c, 0, 58, 64
2, 43012, Note_on_c, 0, 58, 0
2, 43012, Note_on_c, 0, 51, 0
2, 43020, Note_on_c, 0, 55, 64
2, 43072, Note_on_c, 0, 55, 0
2, 43080, Note_on_c, 0, 79, 64
2, 43080, Note_on_c, 0, 51, 64
2, 43132, Note_on_c, 0, 51, 0
2, 43132, Note_on_c, 0, 79, 0
2, 43140, Note_on_c, 0, 80, 64
2, 43140, Note_on_c, 0, 44, 64
2, 43140, Note_on_c, 0, 48, 64
2, 43166, Note_on_c, 0, 80, 0
2, 43170, Note_on_c, 0, 79, 64
2, 43192, Note_on_c, 0, 48, 0
2, 43192, Note_on_c, 0, 44, 0
2, 43196, Note_on_c, 0, 79, 0
2, 43200, Note_on_c, 0, 80, 64
2, 43200, Note_on_c, 0, 53, 64
2, 43226, Note_on_c, 0, 80, 0
2, 43230, Note_on_c, 0, 77, 64
2, 43252, Note_on_c, 0, 53, 0
2, 43256, Note_on_c, 0, 77, 0
2, 43260, Note_on_c, 0, 92, 64
2, 43260, Note_on_c, 0, 56, 64
2, 43286, Note_on_c, 0, 92, 0
2, 43312, Note_on_c, 0, 56, 0
2, 43320, Note_on_c, 0, 46, 64
2, 43372, Note_on_c, 0, 46, 0
2, 43380, Note_on_c, 0, 51, 64
2, 43432, Note_on_c, 0, 51, 0
2, 43440, Note_on_c, 0, 75, 64
2, 43440, Note_on_c, 0, 55, 64
2, 43492, Note_on_c, 0, 55, 0
2, 43492, Note_on_c, 0, 75, 0
2, 43500, Note_on_c, 0, 77, 64
2, 43500, Note_on_c, 0, 46, 64
2, 43526, Note_on_c, 0, 77, 0
2, 43530, Note_on_c, 0, 75, 64
2, 43552, Note_on_c, 0, 46, 0
2, 43556, Note_on_c, 0, 75, 0
2, 43560, Note_on_c, 0, 77, 64
2, 43560, Note_on_c, 0, 50, 64
2, 43586, Note_on_c, 0, 77, 0
2, 43590, Note_on_c, 0, 74, 64
2, 43612, Note_on_c, 0, 50, 0
2, 43616, Note_on_c, 0, 74, 0
2, 43620, Note_on_c, 0, 89, 64
2, 43620, Note_on_c, 0, 46, 64
2, 43620, Note_on_c, 0, 58, 64
2, 43646, Note_on_c, 0, 58, 0
2, 43646, Note_on_c, 0, 46, 0
2, 43646, Note_on_c, 0, 89, 0
2, 43680, Note_on_c, 0, 67, 64
2, 43680, Note_on_c, 0, 46, 64
2, 43706, Note_on_c, 0, 67, 0
2, 43710, Note_on_c, 0, 79, 64
2, 43732, Note_on_c, 0, 46, 0
2, 43736, Note_on_c, 0, 79, 0
2, 43740, Note_on_c, 0, 67, 64
2, 43740, Note_on_c, 0, 43, 64
2, 43766, Note_on_c, 0, 67, 0
2, 43770, Note_on_c, 0, 79, 64
2, 43792, Note_on_c, 0, 43, 0
2, 43796, Note_on_c, 0, 79, 0
2, 43800, Note_on_c, 0, 70, 64
2, 43800, Note_on_c, 0, 39, 64
2, 43826, Note_on_c, 0, 70, 0
2, 43830, Note_on_c, 0, 82, 64
2, 43852, Note_on_c, 0, 39, 0
2, 43856, Note_on_c, 0, 82, 0
2, 43860, Note_on_c, 0, 70, 64
2, 43860, Note_on_c, 0, 38, 64
2, 43886, Note_on_c, 0, 70, 0
2, 43890, Note_on_c, 0, 82, 64
2, 43912, Note_on_c, 0, 38, 0
2, 43916, Note_on_c, 0, 82, 0
2, 43920, Note_on_c, 0, 70, 64
2, 43920, Note_on_c, 0, 41, 64
2, 43946, Note_on_c, 0, 70, 0
2, 43950, Note_on_c, 0, 82, 64
2, 43972, Note_on_c, 0, 41, 0
2, 43976, Note_on_c, 0, 82, 0
2, 43980, Note_on_c, 0, 68, 64
2, 43980, Note_on_c, 0, 46, 64
2, 44006, Note_on_c, 0, 68, 0
2, 44010, Note_on_c, 0, 80, 64
2, 44032, Note_on_c, 0, 46, 0
2, 44036, Note_on_c, 0, 80, 0
2, 44040, Note_on_c, 0, 67, 64
2, 44040, Note_on_c, 0, 46, 64
2, 44066, Note_on_c, 0, 67, 0
2, 44070, Note_on_c, 0, 79, 64
2, 44092, Note_on_c, 0, 46, 0
2, 44096, Note_on_c, 0, 79, 0
2, 44100, Note_on_c, 0, 67, 64
2, 44100, Note_on_c, 0, 43, 64
2, 44126, Note_on_c, 0, 67, 0
2, 44130, Note_on_c, 0, 79, 64
2, 44152, Note_on_c, 0, 43, 0
2, 44156, Note_on_c, 0, 79, 0
2, 44160, Note_on_c, 0, 70, 64
2, 44160, Note_on_c, 0, 39, 64
2, 44186, Note_on_c, 0, 70, 0
2, 44190, Note_on_c, 0, 82, 64
2, 44212, Note_on_c, 0, 39, 0
2, 44216, Note_on_c, 0, 82, 0
2, 44220, Note_on_c, 0, 70, 64
2, 44220, Note_on_c, 0, 39, 64
2, 44246, Note_on_c, 0, 70, 0
2, 44250, Note_on_c, 0, 82, 64
2, 44272, Note_on_c, 0, 39, 0
2, 44276, Note_on_c, 0, 82, 0
2, 44280, Note_on_c, 0, 70, 64
2, 44280, Note_on_c, 0, 43, 64
2, 44306, Note_on_c, 0, 70, 0
2, 44310, Note_on_c, 0, 82, 64
2, 44332, Note_on_c, 0, 43, 0
2, 44336, Note_on_c, 0, 82, 0
2, 44340, Note_on_c, 0, 67, 64
2, 44340, Note_on_c, 0, 40, 64
2, 44340, Note_on_c, 0, 48, 64
2, 44366, Note_on_c, 0, 67, 0
2, 44370, Note_on_c, 0, 79, 64
2, 44392, Note_on_c, 0, 48, 0
2, 44392, Note_on_c, 0, 40, 0
2, 44396, Note_on_c, 0, 79, 0
2, 44400, Note_on_c, 0, 68, 64
2, 44400, Note_on_c, 0, 41, 64
2, 44400, Note_on_c, 0, 48, 64
2, 44426, Note_on_c, 0, 68, 0
2, 44430, Note_on_c, 0, 80, 64
2, 44452, Note_on_c, 0, 48, 0
2, 44452, Note_on_c, 0, 41, 0
2, 44456, Note_on_c, 0, 80, 0
2, 44460, Note_on_c, 0, 68, 64
2, 44460, Note_on_c, 0, 44, 64
2, 44486, Note_on_c, 0, 68, 0
2, 44490, Note_on_c, 0, 80, 64
2, 44512, Note_on_c, 0, 44, 0
2, 44516, Note_on_c, 0, 80, 0
2, 44520, Note_on_c, 0, 72, 64
2, 44520, Note_on_c, 0, 41, 64
2, 44546, Note_on_c, 0, 72, 0
2, 44550, Note_on_c, 0, 84, 64
2, 44572, Note_on_c, 0, 41, 0
2, 44576, Note_on_c, 0, 84, 0
2, 44580, Note_on_c, 0, 72, 64
2, 44580, Note_on_c, 0, 39, 64
2, 44606, Note_on_c, 0, 72, 0
2, 44610, Note_on_c, 0, 84, 64
2, 44632, Note_on_c, 0, 39, 0
2, 44636, Note_on_c, 0, 84, 0
2, 44640, Note_on_c, 0, 72, 64
2, 44640, Note_on_c, 0, 43, 64
2, 44666, Note_on_c, 0, 72, 0
2, 44670, Note_on_c, 0, 84, 64
2, 44692, Note_on_c, 0, 43, 0
2, 44696, Note_on_c, 0, 84, 0
2, 44700, Note_on_c, 0, 70, 64
2, 44700, Note_on_c, 0, 48, 64
2, 44726, Note_on_c, 0, 70, 0
2, 44730, Note_on_c, 0, 82, 64
2, 44752, Note_on_c, 0, 48, 0
2, 44756, Note_on_c, 0, 82, 0
2, 44760, Note_on_c, 0, 68, 64
2, 44760, Note_on_c, 0, 48, 64
2, 44786, Note_on_c, 0, 68, 0
2, 44790, Note_on_c, 0, 80, 64
2, 44812, Note_on_c, 0, 48, 0
2, 44816, Note_on_c, 0, 80, 0
2, 44820, Note_on_c, 0, 70, 64
2, 44820, Note_on_c, 0, 44, 64
2, 44846, Note_on_c, 0, 70, 0
2, 44850, Note_on_c, 0, 80, 64
2, 44872, Note_on_c, 0, 44, 0
2, 44876, Note_on_c, 0, 80, 0
2, 44880, Note_on_c, 0, 72, 64
2, 44880, Note_on_c, 0, 41, 64
2, 44906, Note_on_c, 0, 72, 0
2, 44910, Note_on_c, 0, 84, 64
2, 44932, Note_on_c, 0, 41, 0
2, 44936, Note_on_c, 0, 84, 0
2, 44940, Note_on_c, 0, 72, 64
2, 44940, Note_on_c, 0, 38, 64
2, 44966, Note_on_c, 0, 72, 0
2, 44970, Note_on_c, 0, 84, 64
2, 44992, Note_on_c, 0, 38, 0
2, 44996, Note_on_c, 0, 84, 0
2, 45000, Note_on_c, 0, 70, 64
2, 45000, Note_on_c, 0, 41, 64
2, 45026, Note_on_c, 0, 70, 0
2, 45030, Note_on_c, 0, 82, 64
2, 45052, Note_on_c, 0, 41, 0
2, 45056, Note_on_c, 0, 82, 0
2, 45060, Note_on_c, 0, 68, 64
2, 45060, Note_on_c, 0, 38, 64
2, 45060, Note_on_c, 0, 46, 64
2, 45086, Note_on_c, 0, 68, 0
2, 45090, Note_on_c, 0, 80, 64
2, 45112, Note_on_c, 0, 46, 0
2, 45112, Note_on_c, 0, 38, 0
2, 45116, Note_on_c, 0, 80, 0
2, 45120, Note_on_c, 0, 67, 64
2, 45120, Note_on_c, 0, 39, 64
2, 45120, Note_on_c, 0, 46, 64
2, 45146, Note_on_c, 0, 67, 0
2, 45150, Note_on_c, 0, 79, 64
2, 45172, Note_on_c, 0, 46, 0
2, 45172, Note_on_c, 0, 39, 0
2, 45176, Note_on_c, 0, 79, 0
2, 45180, Note_on_c, 0, 70, 64
2, 45180, Note_on_c, 0, 43, 64
2, 45206, Note_on_c, 0, 70, 0
2, 45210, Note_on_c, 0, 82, 64
2, 45232, Note_on_c, 0, 43, 0
2, 45236, Note_on_c, 0, 82, 0
2, 45240, Note_on_c, 0, 75, 64
2, 45240, Note_on_c, 0, 39, 64
2, 45266, Note_on_c, 0, 75, 0
2, 45270, Note_on_c, 0, 87, 64
2, 45292, Note_on_c, 0, 39, 0
2, 45296, Note_on_c, 0, 87, 0
2, 45300, Note_on_c, 0, 75, 64
2, 45300, Note_on_c, 0, 32, 64
2, 45300, Note_on_c, 0, 36, 64
2, 45326, Note_on_c, 0, 75, 0
2, 45330, Note_on_c, 0, 87, 64
2, 45352, Note_on_c, 0, 36, 0
2, 45352, Note_on_c, 0, 32, 0
2, 45356, Note_on_c, 0, 87, 0
2, 45360, Note_on_c, 0, 72, 64
2, 45360, Note_on_c, 0, 41, 64
2, 45386, Note_on_c, 0, 72, 0
2, 45390, Note_on_c, 0, 84, 64
2, 45412, Note_on_c, 0, 41, 0
2, 45416, Note_on_c, 0, 84, 0
2, 45420, Note_on_c, 0, 68, 64
2, 45420, Note_on_c, 0, 44, 64
2, 45446, Note_on_c, 0, 68, 0
2, 45450, Note_on_c, 0, 80, 64
2, 45472, Note_on_c, 0, 44, 0
2, 45476, Note_on_c, 0, 80, 0
2, 45480, Note_on_c, 0, 75, 64
2, 45480, Note_on_c, 0, 34, 64
2, 45506, Note_on_c, 0, 75, 0
2, 45510, Note_on_c, 0, 87, 64
2, 45532, Note_on_c, 0, 34, 0
2, 45536, Note_on_c, 0, 87, 0
2, 45540, Note_on_c, 0, 70, 64
2, 45540, Note_on_c, 0, 39, 64
2, 45566, Note_on_c, 0, 70, 0
2, 45570, Note_on_c, 0, 82, 64
2, 45592, Note_on_c, 0, 39, 0
2, 45596, Note_on_c, 0, 82, 0
2, 45600, Note_on_c, 0, 67, 64
2, 45600, Note_on_c, 0, 43, 64
2, 45626, Note_on_c, 0, 67, 0
2, 45630, Note_on_c, 0, 79, 64
2, 45652, Note_on_c, 0, 43, 0
2, 45656, Note_on_c, 0, 79, 0
2, 45660, Note_on_c, 0, 70, 64
2, 45660, Note_on_c, 0, 34, 64
2, 45686, Note_on_c, 0, 70, 0
2, 45690, Note_on_c, 0, 82, 64
2, 45712, Note_on_c, 0, 34, 0
2, 45716, Note_on_c, 0, 82, 0
2, 45720, Note_on_c, 0, 68, 64
2, 45720, Note_on_c, 0, 41, 64
2, 45746, Note_on_c, 0, 68, 0
2, 45750, Note_on_c, 0, 80, 64
2, 45772, Note_on_c, 0, 41, 0
2, 45776, Note_on_c, 0, 80, 0
2, 45780, Note_on_c, 0, 65, 64
2, 45780, Note_on_c, 0, 46, 64
2, 45806, Note_on_c, 0, 65, 0
2, 45810, Note_on_c, 0, 77, 64
2, 45832, Note_on_c, 0, 46, 0
2, 45836, Note_on_c, 0, 77, 0
2, 45840, Note_on_c, 0, 55, 64
2, 45840, Note_on_c, 0, 39, 64
2, 45840, Control_c, 0, 64, 104
2, 45866, Note_on_c, 0, 55, 0
2, 45870, Note_on_c, 0, 63, 64
2, 45892, Note_on_c, 0, 39, 0
2, 45896, Note_on_c, 0, 63, 0
2, 45900, Note_on_c, 0, 58, 64
2, 45900, Note_on_c, 0, 51, 64
2, 45900, Note_on_c, 0, 55, 64
2, 45926, Note_on_c, 0, 58, 0
2, 45930, Note_on_c, 0, 67, 64
2, 45952, Note_on_c, 0, 55, 0
2, 45952, Note_on_c, 0, 51, 0
2, 45956, Note_on_c, 0, 67, 0
2, 45960, Note_on_c, 0, 63, 64
2, 45960, Note_on_c, 0, 51, 64
2, 45960, Note_on_c, 0, 55, 64
2, 45960, Note_on_c, 0, 58, 64
2, 45986, Note_on_c, 0, 63, 0
2, 45990, Note_on_c, 0, 70, 64
2, 46012, Note_on_c, 0, 51, 0
2, 46012, Note_on_c, 0, 58, 0
2, 46012, Note_on_c, 0, 55, 0
2, 46016, Note_on_c, 0, 70, 0
2, 46020, Note_on_c, 0, 67, 64
2, 46020, Note_on_c, 0, 51, 64
2, 46020, Note_on_c, 0, 55, 64
2, 46020, Note_on_c, 0, 58, 64
2, 46020, Note_on_c, 0, 63, 64
2, 46046, Note_on_c, 0, 67, 0
2, 46050, Note_on_c, 0, 75, 64
2, 46072, Note_on_c, 0, 58, 0
2, 46072, Note_on_c, 0, 63, 0
2, 46072, Note_on_c, 0, 51, 0
2, 46072, Note_on_c, 0, 55, 0
2, 46076, Note_on_c, 0, 75, 0
2, 46080, Note_on_c, 0, 70, 64
2, 46080, Note_on_c, 0, 51, 64
2, 46080, Note_on_c, 0, 55, 64
2, 46080, Note_on_c, 0, 58, 64
2, 46080, Note_on_c, 0, 63, 64
2, 46106, Note_on_c, 0, 70, 0
2, 46110, Note_on_c, 0, 79, 64
2, 46132, Note_on_c, 0, 58, 0
2, 46132, Note_on_c, 0, 63, 0
2, 46132, Note_on_c, 0, 51, 0
2, 46132, Note_on_c, 0, 55, 0
2, 46136, Note_on_c, 0, 79, 0
2, 46140, Note_on_c, 0, 75, 64
2, 46140, Note_on_c, 0, 51, 64
2, 46140, Note_on_c, 0, 55, 64
2, 46140, Note_on_c, 0, 58, 64
2, 46140, Note_on_c, 0, 63, 64
2, 46166, Note_on_c, 0, 75, 0
2, 46170, Note_on_c, 0, 82, 64
2, 46192, Note_on_c, 0, 58, 0
2, 46192, Note_on_c, 0, 63, 0
2, 46192, Note_on_c, 0, 51, 0
2, 46192, Note_on_c, 0, 55, 0
2, 46196, Note_on_c, 0, 82, 0
2, 46200, Note_on_c, 0, 79, 64
2, 46200, Note_on_c, 0, 51, 64
2, 46200, Note_on_c, 0, 55, 64
2, 46200, Note_on_c, 0, 58, 64
2, 46200, Note_on_c, 0, 63, 64
2, 46226, Note_on_c, 0, 79, 0
2, 46230, Note_on_c, 0, 87, 64
2, 46252, Note_on_c, 0, 58, 0
2, 46252, Note_on_c, 0, 63, 0
2, 46252, Note_on_c, 0, 51, 0
2, 46252, Note_on_c, 0, 55, 0
2, 46256, Note_on_c, 0, 87, 0
2, 46260, Note_on_c, 0, 82, 64
2, 46260, Note_on_c, 0, 51, 64
2, 46260, Note_on_c, 0, 55, 64
2, 46260, Note_on_c, 0, 58, 64
2, 46260, Note_on_c, 0, 63, 64
2, 46286, Note_on_c, 0, 82, 0
2, 46290, Note_on_c, 0, 91, 64
2, 46312, Note_on_c, 0, 58, 0
2, 46312, Note_on_c, 0, 63, 0
2, 46312, Note_on_c, 0, 51, 0
2, 46312, Note_on_c, 0, 55, 0
2, 46316, Note_on_c, 0, 91, 0
2, 46320, Note_on_c, 0, 87, 64
2, 46320, Note_on_c, 0, 51, 64
2, 46320, Note_on_c, 0, 55, 64
2, 46320, Note_on_c, 0, 58, 64
2, 46320, Note_on_c, 0, 63, 64
2, 46346, Note_on_c, 0, 87, 0
2, 46350, Note_on_c, 0, 94, 64
2, 46372, Note_on_c, 0, 58, 0
2, 46372, Note_on_c, 0, 63, 0
2, 46372, Note_on_c, 0, 51, 0
2, 46372, Note_on_c, 0, 55, 0
2, 46374, Control_c, 0, 64, 0
2, 46376, Note_on_c, 0, 94, 0
2, 46380, Note_on_c, 0, 93, 64
2, 46380, Note_on_c, 0, 51, 64
2, 46380, Note_on_c, 0, 53, 64
2, 46380, Note_on_c, 0, 56, 64
2, 46380, Note_on_c, 0, 58, 64
2, 46380, Note_on_c, 0, 62, 64
2, 46406, Note_on_c, 0, 93, 0
2, 46410, Note_on_c, 0, 94, 64
2, 46432, Note_on_c, 0, 53, 0
2, 46432, Note_on_c, 0, 58, 0
2, 46432, Note_on_c, 0, 56, 0
2, 46432, Note_on_c, 0, 51, 0
2, 46432, Note_on_c, 0, 62, 0
2, 46436, Note_on_c, 0, 94, 0
2, 46440, Note_on_c, 0, 93, 64
2, 46440, Note_on_c, 0, 51, 64
2, 46440, Note_on_c, 0, 53, 64
2, 46440, Note_on_c, 0, 56, 64
2, 46440, Note_on_c, 0, 58, 64
2, 46440, Note_on_c, 0, 62, 64
2, 46466, Note_on_c, 0, 93, 0
2, 46470, Note_on_c, 0, 94, 64
2, 46492, Note_on_c, 0, 53, 0
2, 46492, Note_on_c, 0, 58, 0
2, 46492, Note_on_c, 0, 56, 0
2, 46492, Note_on_c, 0, 51, 0
2, 46492, Note_on_c, 0, 62, 0
2, 46496, Note_on_c, 0, 94, 0
2, 46500, Note_on_c, 0, 93, 64
2, 46500, Note_on_c, 0, 51, 64
2, 46500, Note_on_c, 0, 53, 64
2, 46500, Note_on_c, 0, 56, 64
2, 46500, Note_on_c, 0, 58, 64
2, 46500, Note_on_c, 0, 62, 64
2, 46526, Note_on_c, 0, 93, 0
2, 46530, Note_on_c, 0, 94, 64
2, 46552, Note_on_c, 0, 53, 0
2, 46552, Note_on_c, 0, 58, 0
2, 46552, Note_on_c, 0, 56, 0
2, 46552, Note_on_c, 0, 51, 0
2, 46552, Note_on_c, 0, 62, 0
2, 46556, Note_on_c, 0, 94, 0
2, 46560, Note_on_c, 0, 96, 64
2, 46560, Note_on_c, 0, 51, 64
2, 46560, Note_on_c, 0, 55, 64
2, 46560, Note_on_c, 0, 58, 64
2, 46560, Note_on_c, 0, 63, 64
2, 46586, Note_on_c, 0, 96, 0
2, 46590, Note_on_c, 0, 94, 64
2, 46612, Note_on_c, 0, 58, 0
2, 46612, Note_on_c, 0, 63, 0
2, 46612, Note_on_c, 0, 51, 0
2, 46612, Note_on_c, 0, 55, 0
2, 46616, Note_on_c, 0, 94, 0
2, 46620, Note_on_c, 0, 92, 64
2, 46620, Note_on_c, 0, 51, 64
2, 46620, Note_on_c, 0, 55, 64
2, 46620, Note_on_c, 0, 58, 64
2, 46620, Note_on_c, 0, 63, 64
2, 46646, Note_on_c, 0, 92, 0
2, 46650, Note_on_c, 0, 91, 64
2, 46672, Note_on_c, 0, 58, 0
2, 46672, Note_on_c, 0, 63, 0
2, 46672, Note_on_c, 0, 51, 0
2, 46672, Note_on_c, 0, 55, 0
2, 46676, Note_on_c, 0, 91, 0
2, 46680, Note_on_c, 0, 89, 64
2, 46680, Note_on_c, 0, 51, 64
2, 46680, Note_on_c, 0, 55, 64
2, 46680, Note_on_c, 0, 58, 64
2, 46680, Note_on_c, 0, 63, 64
2, 46706, Note_on_c, 0, 89, 0
2, 46710, Note_on_c, 0, 87, 64
2, 46732, Note_on_c, 0, 58, 0
2, 46732, Note_on_c, 0, 63, 0
2, 46732, Note_on_c, 0, 51, 0
2, 46732, Note_on_c, 0, 55, 0
2, 46736, Note_on_c, 0, 87, 0
2, 46740, Note_on_c, 0, 86, 64
2, 46740, Note_on_c, 0, 51, 64
2, 46740, Note_on_c, 0, 55, 64
2, 46740, Note_on_c, 0, 58, 64
2, 46740, Note_on_c, 0, 63, 64
2, 46766, Note_on_c, 0, 86, 0
2, 46770, Note_on_c, 0, 84, 64
2, 46792, Note_on_c, 0, 58, 0
2, 46792, Note_on_c, 0, 63, 0
2, 46792, Note_on_c, 0, 51, 0
2, 46792, Note_on_c, 0, 55, 0
2, 46796, Note_on_c, 0, 84, 0
2, 46800, Note_on_c, 0, 82, 64
2, 46800, Note_on_c, 0, 51, 64
2, 46800, Note_on_c, 0, 55, 64
2, 46800, Note_on_c, 0, 58, 64
2, 46800, Note_on_c, 0, 63, 64
2, 46826, Note_on_c, 0, 82, 0
2, 46830, Note_on_c, 0, 80, 64
2, 46852, Note_on_c, 0, 58, 0
2, 46852, Note_on_c, 0, 63, 0
2, 46852, Note_on_c, 0, 51, 0
2, 46852, Note_on_c, 0, 55, 0
2, 46856, Note_on_c, 0, 80, 0
2, 46860, Note_on_c, 0, 79, 64
2, 46860, Note_on_c, 0, 51, 64
2, 46860, Note_on_c, 0, 55, 64
2, 46860, Note_on_c, 0, 58, 64
2, 46860, Note_on_c, 0, 63, 64
2, 46886, Note_on_c, 0, 79, 0
2, 46890, Note_on_c, 0, 77, 64
2, 46912, Note_on_c, 0, 58, 0
2, 46912, Note_on_c, 0, 63, 0
2, 46912, Note_on_c, 0, 51, 0
2, 46912, Note_on_c, 0, 55, 0
2, 46916, Note_on_c, 0, 77, 0
2, 46920, Note_on_c, 0, 75, 64
2, 46920, Note_on_c, 0, 51, 64
2, 46920, Note_on_c, 0, 55, 64
2, 46920, Note_on_c, 0, 58, 64
2, 46920, Note_on_c, 0, 63, 64
2, 46946, Note_on_c, 0, 75, 0
2, 46950, Note_on_c, 0, 74, 64
2, 46972, Note_on_c, 0, 58, 0
2, 46972, Note_on_c, 0, 63, 0
2, 46972, Note_on_c, 0, 51, 0
2, 46972, Note_on_c, 0, 55, 0
2, 46976, Note_on_c, 0, 74, 0
2, 46980, Note_on_c, 0, 72, 64
2, 46980, Note_on_c, 0, 51, 64
2, 46980, Note_on_c, 0, 55, 64
2, 46980, Note_on_c, 0, 58, 64
2, 46980, Note_on_c, 0, 63, 64
2, 47006, Note_on_c, 0, 72, 0
2, 47010, Note_on_c, 0, 70, 64
2, 47032, Note_on_c, 0, 58, 0
2, 47032, Note_on_c, 0, 63, 0
2, 47032, Note_on_c, 0, 51, 0
2, 47032, Note_on_c, 0, 55, 0
2, 47036, Note_on_c, 0, 70, 0
2, 47040, Note_on_c, 0, 68, 64
2, 47040, Note_on_c, 0, 51, 64
2, 47040, Note_on_c, 0, 55, 64
2, 47040, Note_on_c, 0, 58, 64
2, 47040, Note_on_c, 0, 63, 64
2, 47066, Note_on_c, 0, 68, 0
2, 47070, Note_on_c, 0, 67, 64
2, 47092, Note_on_c, 0, 58, 0
2, 47092, Note_on_c, 0, 63, 0
2, 47092, Note_on_c, 0, 51, 0
2, 47092, Note_on_c, 0, 55, 0
2, 47096, Note_on_c, 0, 67, 0
2, 47100, Note_on_c, 0, 65, 64
2, 47100, Note_on_c, 0, 51, 64
2, 47100, Note_on_c, 0, 53, 64
2, 47100, Note_on_c, 0, 56, 64
2, 47100, Note_on_c, 0, 58, 64
2, 47126, Note_on_c, 0, 65, 0
2, 47130, Note_on_c, 0, 63, 64
2, 47152, Note_on_c, 0, 56, 0
2, 47152, Note_on_c, 0, 58, 0
2, 47152, Note_on_c, 0, 51, 0
2, 47152, Note_on_c, 0, 53, 0
2, 47156, Note_on_c, 0, 63, 0
2, 47160, Note_on_c, 0, 62, 64
2, 47160, Note_on_c, 0, 51, 64
2, 47160, Note_on_c, 0, 53, 64
2, 47160, Note_on_c, 0, 56, 64
2, 47160, Note_on_c, 0, 58, 64
2, 47186, Note_on_c, 0, 62, 0
2, 47190, Note_on_c, 0, 65, 64
2, 47212, Note_on_c, 0, 56, 0
2, 47212, Note_on_c, 0, 58, 0
2, 47212, Note_on_c, 0, 51, 0
2, 47212, Note_on_c, 0, 53, 0
2, 47216, Note_on_c, 0, 65, 0
2, 47220, Note_on_c, 0, 68, 64
2, 47220, Note_on_c, 0, 51, 64
2, 47220, Note_on_c, 0, 53, 64
2, 47220, Note_on_c, 0, 56, 64
2, 47220, Note_on_c, 0, 58, 64
2, 47246, Note_on_c, 0, 68, 0
2, 47250, Note_on_c, 0, 62, 64
2, 47272, Note_on_c, 0, 56, 0
2, 47272, Note_on_c, 0, 58, 0
2, 47272, Note_on_c, 0, 51, 0
2, 47272, Note_on_c, 0, 53, 0
2, 47276, Note_on_c, 0, 62, 0
2, 47280, Note_on_c, 0, 55, 64
2, 47280, Note_on_c, 0, 39, 64
2, 47280, Control_c, 0, 64, 103
2, 47306, Note_on_c, 0, 55, 0
2, 47310, Note_on_c, 0, 63, 64
2, 47332, Note_on_c, 0, 39, 0
2, 47336, Note_on_c, 0, 63, 0
2, 47340, Note_on_c, 0, 58, 64
2, 47340, Note_on_c, 0, 51, 64
2, 47340, Note_on_c, 0, 55, 64
2, 47366, Note_on_c, 0, 58, 0
2, 47370, Note_on_c, 0, 67, 64
2, 47392, Note_on_c, 0, 55, 0
2, 47392, Note_on_c, 0, 51, 0
2, 47396, Note_on_c, 0, 67, 0
2, 47400, Note_on_c, 0, 63, 64
2, 47400, Note_on_c, 0, 51, 64
2, 47400, Note_on_c, 0, 55, 64
2, 47400, Note_on_c, 0, 58, 64
2, 47426, Note_on_c, 0, 63, 0
2, 47430, Note_on_c, 0, 70, 64
2, 47452, Note_on_c, 0, 51, 0
2, 47452, Note_on_c, 0, 58, 0
2, 47452, Note_on_c, 0, 55, 0
2, 47456, Note_on_c, 0, 70, 0
2, 47460, Note_on_c, 0, 67, 64
2, 47460, Note_on_c, 0, 51, 64
2, 47460, Note_on_c, 0, 55, 64
2, 47460, Note_on_c, 0, 58, 64
2, 47460, Note_on_c, 0, 63, 64
2, 47486, Note_on_c, 0, 67, 0
2, 47490, Note_on_c, 0, 75, 64
2, 47512, Note_on_c, 0, 58, 0
2, 47512, Note_on_c, 0, 63, 0
2, 47512, Note_on_c, 0, 51, 0
2, 47512, Note_on_c, 0, 55, 0
2, 47516, Note_on_c, 0, 75, 0
2, 47520, Note_on_c, 0, 70, 64
2, 47520, Note_on_c, 0, 51, 64
2, 47520, Note_on_c, 0, 55, 64
2, 47520, Note_on_c, 0, 58, 64
2, 47520, Note_on_c, 0, 63, 64
2, 47546, Note_on_c, 0, 70, 0
2, 47550, Note_on_c, 0, 79, 64
2, 47572, Note_on_c, 0, 58, 0
2, 47572, Note_on_c, 0, 63, 0
2, 47572, Note_on_c, 0, 51, 0
2, 47572, Note_on_c, 0, 55, 0
2, 47576, Note_on_c, 0, 79, 0
2, 47580, Note_on_c, 0, 75, 64
2, 47580, Note_on_c, 0, 51, 64
2, 47580, Note_on_c, 0, 55, 64
2, 47580, Note_on_c, 0, 58, 64
2, 47580, Note_on_c, 0, 63, 64
2, 47606, Note_on_c, 0, 75, 0
2, 47610, Note_on_c, 0, 82, 64
2, 47632, Note_on_c, 0, 58, 0
2, 47632, Note_on_c, 0, 63, 0
2, 47632, Note_on_c, 0, 51, 0
2, 47632, Note_on_c, 0, 55, 0
2, 47636, Note_on_c, 0, 82, 0
2, 47640, Note_on_c, 0, 79, 64
2, 47640, Note_on_c, 0, 51, 64
2, 47640, Note_on_c, 0, 55, 64
2, 47640, Note_on_c, 0, 58, 64
2, 47640, Note_on_c, 0, 63, 64
2, 47666, Note_on_c, 0, 79, 0
2, 47670, Note_on_c, 0, 87, 64
2, 47692, Note_on_c, 0, 58, 0
2, 47692, Note_on_c, 0, 63, 0
2, 47692, Note_on_c, 0, 51, 0
2, 47692, Note_on_c, 0, 55, 0
2, 47696, Note_on_c, 0, 87, 0
2, 47700, Note_on_c, 0, 82, 64
2, 47700, Note_on_c, 0, 51, 64
2, 47700, Note_on_c, 0, 55, 64
2, 47700, Note_on_c, 0, 58, 64
2, 47700, Note_on_c, 0, 63, 64
2, 47726, Note_on_c, 0, 82, 0
2, 47730, Note_on_c, 0, 91, 64
2, 47752, Note_on_c, 0, 58, 0
2, 47752, Note_on_c, 0, 63, 0
2, 47752, Note_on_c, 0, 51, 0
2, 47752, Note_on_c, 0, 55, 0
2, 47756, Note_on_c, 0, 91, 0
2, 47760, Note_on_c, 0, 87, 64
2, 47760, Note_on_c, 0, 51, 64
2, 47760, Note_on_c, 0, 55, 64
2, 47760, Note_on_c, 0, 58, 64
2, 47760, Note_on_c, 0, 63, 64
2, 47786, Note_on_c, 0, 87, 0
2, 47790, Note_on_c, 0, 94, 64
2, 47810, Control_c, 0, 64, 0
2, 47812, Note_on_c, 0, 58, 0
2, 47812, Note_on_c, 0, 63, 0
2, 47812, Note_on_c, 0, 51, 0
2, 47812, Note_on_c, 0, 55, 0
2, 47816, Note_on_c, 0, 94, 0
2, 47820, Note_on_c, 0, 93, 64
2, 47820, Note_on_c, 0, 51, 64
2, 47820, Note_on_c, 0, 53, 64
2, 47820, Note_on_c, 0, 56, 64
2, 47820, Note_on_c, 0, 58, 64
2, 47820, Note_on_c, 0, 62, 64
2, 47846, Note_on_c, 0, 93, 0
2, 47850, Note_on_c, 0, 94, 64
2, 47872, Note_on_c, 0, 53, 0
2, 47872, Note_on_c, 0, 58, 0
2, 47872, Note_on_c, 0, 56, 0
2, 47872, Note_on_c, 0, 51, 0
2, 47872, Note_on_c, 0, 62, 0
2, 47876, Note_on_c, 0, 94, 0
2, 47880, Note_on_c, 0, 93, 64
2, 47880, Note_on_c, 0, 51, 64
2, 47880, Note_on_c, 0, 53, 64
2, 47880, Note_on_c, 0, 56, 64
2, 47880, Note_on_c, 0, 58, 64
2, 47880, Note_on_c, 0, 62, 64
2, 47906, Note_on_c, 0, 93, 0
2, 47910, Note_on_c, 0, 94, 64
2, 47932, Note_on_c, 0, 53, 0
2, 47932, Note_on_c, 0, 58, 0
2, 47932, Note_on_c, 0, 56, 0
2, 47932, Note_on_c, 0, 51, 0
2, 47932, Note_on_c, 0, 62, 0
2, 47936, Note_on_c, 0, 94, 0
2, 47940, Note_on_c, 0, 93, 64
2, 47940, Note_on_c, 0, 51, 64
2, 47940, Note_on_c, 0, 53, 64
2, 47940, Note_on_c, 0, 56, 64
2, 47940, Note_on_c, 0, 58, 64
2, 47940, Note_on_c, 0, 62, 64
2, 47966, Note_on_c, 0, 93, 0
2, 47970, Note_on_c, 0, 94, 64
2, 47992, Note_on_c, 0, 53, 0
2, 47992, Note_on_c, 0, 58, 0
2, 47992, Note_on_c, 0, 56, 0
2, 47992, Note_on_c, 0, 51, 0
2, 47992, Note_on_c, 0, 62, 0
2, 47996, Note_on_c, 0, 94, 0
2, 48000, Note_on_c, 0, 96, 64
2, 48000, Note_on_c, 0, 51, 64
2, 48000, Note_on_c, 0, 55, 64
2, 48000, Note_on_c, 0, 58, 64
2, 48000, Note_on_c, 0, 63, 64
2, 48026, Note_on_c, 0, 96, 0
2, 48030, Note_on_c, 0, 94, 64
2, 48052, Note_on_c, 0, 58, 0
2, 48052, Note_on_c, 0, 63, 0
2, 48052, Note_on_c, 0, 51, 0
2, 48052, Note_on_c, 0, 55, 0
2, 48056, Note_on_c, 0, 94, 0
2, 48060, Note_on_c, 0, 92, 64
2, 48060, Note_on_c, 0, 51, 64
2, 48060, Note_on_c, 0, 55, 64
2, 48060, Note_on_c, 0, 58, 64
2, 48060, Note_on_c, 0, 63, 64
2, 48086, Note_on_c, 0, 92, 0
2, 48090, Note_on_c, 0, 91, 64
2, 48112, Note_on_c, 0, 58, 0
2, 48112, Note_on_c, 0, 63, 0
2, 48112, Note_on_c, 0, 51, 0
2, 48112, Note_on_c, 0, 55, 0
2, 48116, Note_on_c, 0, 91, 0
2, 48120, Note_on_c, 0, 89, 64
2, 48120, Note_on_c, 0, 51, 64
2, 48120, Note_on_c, 0, 55, 64
2, 48120, Note_on_c, 0, 58, 64
2, 48120, Note_on_c, 0, 63, 64
2, 48146, Note_on_c, 0, 89, 0
2, 48150, Note_on_c, 0, 87, 64
2, 48172, Note_on_c, 0, 58, 0
2, 48172, Note_on_c, 0, 63, 0
2, 48172, Note_on_c, 0, 51, 0
2, 48172, Note_on_c, 0, 55, 0
2, 48176, Note_on_c, 0, 87, 0
2, 48180, Note_on_c, 0, 86, 64
2, 48180, Note_on_c, 0, 51, 64
2, 48180, Note_on_c, 0, 55, 64
2, 48180, Note_on_c, 0, 58, 64
2, 48180, Note_on_c, 0, 63, 64
2, 48206, Note_on_c, 0, 86, 0
2, 48210, Note_on_c, 0, 84, 64
2, 48232, Note_on_c, 0, 58, 0
2, 48232, Note_on_c, 0, 63, 0
2, 48232, Note_on_c, 0, 51, 0
2, 48232, Note_on_c, 0, 55, 0
2, 48236, Note_on_c, 0, 84, 0
2, 48240, Note_on_c, 0, 82, 64
2, 48240, Note_on_c, 0, 51, 64
2, 48240, Note_on_c, 0, 55, 64
2, 48240, Note_on_c, 0, 58, 64
2, 48240, Note_on_c, 0, 63, 64
2, 48266, Note_on_c, 0, 82, 0
2, 48270, Note_on_c, 0, 80, 64
2, 48292, Note_on_c, 0, 58, 0
2, 48292, Note_on_c, 0, 63, 0
2, 48292, Note_on_c, 0, 51, 0
2, 48292, Note_on_c, 0, 55, 0
2, 48296, Note_on_c, 0, 80, 0
2, 48300, Note_on_c, 0, 79, 64
2, 48300, Note_on_c, 0, 51, 64
2, 48300, Note_on_c, 0, 55, 64
2, 48300, Note_on_c, 0, 58, 64
2, 48300, Note_on_c, 0, 63, 64
2, 48326, Note_on_c, 0, 79, 0
2, 48330, Note_on_c, 0, 77, 64
2, 48352, Note_on_c, 0, 58, 0
2, 48352, Note_on_c, 0, 63, 0
2, 48352, Note_on_c, 0, 51, 0
2, 48352, Note_on_c, 0, 55, 0
2, 48356, Note_on_c, 0, 77, 0
2, 48360, Note_on_c, 0, 75, 64
2, 48360, Note_on_c, 0, 51, 64
2, 48360, Note_on_c, 0, 55, 64
2, 48360, Note_on_c, 0, 58, 64
2, 48377, Note_on_c, 0, 75, 0
2, 48379, Note_on_c, 0, 74, 64
2, 48397, Note_on_c, 0, 74, 0
2, 48399, Note_on_c, 0, 72, 64
2, 48412, Note_on_c, 0, 58, 0
2, 48412, Note_on_c, 0, 51, 0
2, 48412, Note_on_c, 0, 55, 0
2, 48417, Note_on_c, 0, 72, 0
2, 48420, Note_on_c, 0, 70, 64
2, 48420, Note_on_c, 0, 51, 64
2, 48420, Note_on_c, 0, 55, 64
2, 48420, Note_on_c, 0, 58, 64
2, 48437, Note_on_c, 0, 70, 0
2, 48439, Note_on_c, 0, 68, 64
2, 48457, Note_on_c, 0, 68, 0
2, 48459, Note_on_c, 0, 67, 64
2, 48472, Note_on_c, 0, 58, 0
2, 48472, Note_on_c, 0, 51, 0
2, 48472, Note_on_c, 0, 55, 0
2, 48477, Note_on_c, 0, 67, 0
2, 48480, Note_on_c, 0, 65, 64
2, 48480, Note_on_c, 0, 51, 64
2, 48480, Note_on_c, 0, 55, 64
2, 48480, Note_on_c, 0, 58, 64
2, 48497, Note_on_c, 0, 65, 0
2, 48499, Note_on_c, 0, 63, 64
2, 48517, Note_on_c, 0, 63, 0
2, 48519, Note_on_c, 0, 62, 64
2, 48532, Note_on_c, 0, 58, 0
2, 48532, Note_on_c, 0, 51, 0
2, 48532, Note_on_c, 0, 55, 0
2, 48537, Note_on_c, 0, 62, 0
2, 48540, Note_on_c, 0, 60, 64
2, 48540, Note_on_c, 0, 51, 64
2, 48540, Note_on_c, 0, 53, 64
2, 48566, Note_on_c, 0, 60, 0
2, 48570, Note_on_c, 0, 58, 64
2, 48592, Note_on_c, 0, 53, 0
2, 48592, Note_on_c, 0, 51, 0
2, 48596, Note_on_c, 0, 58, 0
2, 48600, Note_on_c, 0, 57, 64
2, 48600, Note_on_c, 0, 41, 64
2, 48600, Note_on_c, 0, 51, 64
2, 48600, Note_on_c, 0, 53, 64
2, 48626, Note_on_c, 0, 57, 0
2, 48630, Note_on_c, 0, 60, 64
2, 48652, Note_on_c, 0, 41, 0
2, 48652, Note_on_c, 0, 53, 0
2, 48652, Note_on_c, 0, 51, 0
2, 48656, Note_on_c, 0, 60, 0
2, 48660, Note_on_c, 0, 63, 64
2, 48660, Note_on_c, 0, 41, 64
2, 48660, Note_on_c, 0, 51, 64
2, 48660, Note_on_c, 0, 53, 64
2, 48686, Note_on_c, 0, 63, 0
2, 48690, Note_on_c, 0, 57, 64
2, 48712, Note_on_c, 0, 41, 0
2, 48712, Note_on_c, 0, 53, 0
2, 48712, Note_on_c, 0, 51, 0
2, 48716, Note_on_c, 0, 57, 0
2, 48720, Note_on_c, 0, 58, 64
2, 48720, Note_on_c, 0, 34, 64
2, 48720, Note_on_c, 0, 46, 64
2, 48825, Note_on_c, 0, 46, 0
2, 48825, Note_on_c, 0, 34, 0
2, 48825, Note_on_c, 0, 58, 0
2, 48860, Control_c, 0, 64, 119
2, 48900, Note_on_c, 0, 70, 64
2, 48900, Note_on_c, 0, 58, 64
2, 48952, Note_on_c, 0, 58, 0
2, 48952, Note_on_c, 0, 70, 0
2, 49080, Note_on_c, 0, 73, 64
2, 49080, Note_on_c, 0, 61, 64
2, 49132, Note_on_c, 0, 61, 0
2, 49132, Note_on_c, 0, 73, 0
2, 49260, Note_on_c, 0, 78, 64
2, 49260, Note_on_c, 0, 66, 64
2, 49312, Note_on_c, 0, 66, 0
2, 49312, Note_on_c, 0, 78, 0
2, 49440, Note_on_c, 0, 73, 64
2, 49440, Note_on_c, 0, 61, 64
2, 49492, Note_on_c, 0, 61, 0
2, 49492, Note_on_c, 0, 73, 0
2, 49620, Note_on_c, 0, 70, 64
2, 49620, Note_on_c, 0, 58, 64
2, 49672, Note_on_c, 0, 58, 0
2, 49672, Note_on_c, 0, 70, 0
2, 49800, Note_on_c, 0, 66, 64
2, 49800, Note_on_c, 0, 54, 64
2, 49852, Note_on_c, 0, 54, 0
2, 49852, Note_on_c, 0, 66, 0
2, 49980, Note_on_c, 0, 61, 64
2, 49980, Note_on_c, 0, 49, 64
2, 50032, Note_on_c, 0, 49, 0
2, 50032, Note_on_c, 0, 61, 0
2, 50104, Control_c, 0, 64, 0
2, 50136, Control_c, 0, 64, 117
2, 50160, Note_on_c, 0, 57, 64
2, 50160, Note_on_c, 0, 33, 64
2, 50160, Note_on_c, 0, 45, 64
2, 50212, Note_on_c, 0, 45, 0
2, 50212, Note_on_c, 0, 33, 0
2, 50212, Note_on_c, 0, 57, 0
2, 50340, Note_on_c, 0, 69, 64
2, 50340, Note_on_c, 0, 57, 64
2, 50392, Note_on_c, 0, 57, 0
2, 50392, Note_on_c, 0, 69, 0
2, 50520, Note_on_c, 0, 72, 64
2, 50520, Note_on_c, 0, 60, 64
2, 50572, Note_on_c, 0, 60, 0
2, 50572, Note_on_c, 0, 72, 0
2, 50700, Note_on_c, 0, 77, 64
2, 50700, Note_on_c, 0, 65, 64
2, 50752, Note_on_c, 0, 65, 0
2, 50752, Note_on_c, 0, 77, 0
2, 50880, Note_on_c, 0, 72, 64
2, 50880, Note_on_c, 0, 60, 64
2, 50932, Note_on_c, 0, 60, 0
2, 50932, Note_on_c, 0, 72, 0
2, 51060, Note_on_c, 0, 69, 64
2, 51060, Note_on_c, 0, 57, 64
2, 51112, Note_on_c, 0, 57, 0
2, 51112, Note_on_c, 0, 69, 0
2, 51240, Note_on_c, 0, 65, 64
2, 51240, Note_on_c, 0, 53, 64
2, 51292, Note_on_c, 0, 53, 0
2, 51292, Note_on_c, 0, 65, 0
2, 51420, Note_on_c, 0, 60, 64
2, 51420, Note_on_c, 0, 48, 64
2, 51472, Note_on_c, 0, 48, 0
2, 51472, Note_on_c, 0, 60, 0
2, 51572, Control_c, 0, 64, 0
2, 51600, Note_on_c, 0, 73, 64
2, 51600, Note_on_c, 0, 58, 64
2, 51600, Note_on_c, 0, 61, 64
2, 51600, Note_on_c, 0, 66, 64
2, 51652, Note_on_c, 0, 66, 0
2, 51652, Note_on_c, 0, 73, 0
2, 51652, Note_on_c, 0, 58, 0
2, 51652, Note_on_c, 0, 61, 0
2, 51660, Note_on_c, 0, 58, 64
2, 51660, Note_on_c, 0, 61, 64
2, 51660, Note_on_c, 0, 66, 64
2, 51705, Note_on_c, 0, 84, 64
2, 51712, Note_on_c, 0, 66, 0
2, 51712, Note_on_c, 0, 58, 0
2, 51712, Note_on_c, 0, 61, 0
2, 51718, Note_on_c, 0, 84, 0
2, 51720, Note_on_c, 0, 82, 64
2, 51720, Note_on_c, 0, 58, 64
2, 51720, Note_on_c, 0, 61, 64
2, 51720, Note_on_c, 0, 66, 64
2, 51746, Note_on_c, 0, 82, 0
2, 51750, Note_on_c, 0, 81, 64
2, 51772, Note_on_c, 0, 58, 0
2, 51772, Note_on_c, 0, 66, 0
2, 51772, Note_on_c, 0, 61, 0
2, 51776, Note_on_c, 0, 81, 0
2, 51780, Note_on_c, 0, 82, 64
2, 51780, Note_on_c, 0, 58, 64
2, 51780, Note_on_c, 0, 61, 64
2, 51780, Note_on_c, 0, 66, 64
2, 51832, Note_on_c, 0, 66, 0
2, 51832, Note_on_c, 0, 82, 0
2, 51832, Note_on_c, 0, 58, 0
2, 51832, Note_on_c, 0, 61, 0
2, 51840, Note_on_c, 0, 58, 64
2, 51840, Note_on_c, 0, 61, 64
2, 51840, Note_on_c, 0, 66, 64
2, 51885, Note_on_c, 0, 87, 64
2, 51892, Note_on_c, 0, 66, 0
2, 51892, Note_on_c, 0, 58, 0
2, 51892, Note_on_c, 0, 61, 0
2, 51898, Note_on_c, 0, 87, 0
2, 51900, Note_on_c, 0, 85, 64
2, 51900, Note_on_c, 0, 58, 64
2, 51900, Note_on_c, 0, 61, 64
2, 51900, Note_on_c, 0, 66, 64
2, 51926, Note_on_c, 0, 85, 0
2, 51930, Note_on_c, 0, 84, 64
2, 51952, Note_on_c, 0, 58, 0
2, 51952, Note_on_c, 0, 66, 0
2, 51952, Note_on_c, 0, 61, 0
2, 51956, Note_on_c, 0, 84, 0
2, 51960, Note_on_c, 0, 85, 64
2, 51960, Note_on_c, 0, 58, 64
2, 51960, Note_on_c, 0, 61, 64
2, 51960, Note_on_c, 0, 66, 64
2, 52012, Note_on_c, 0, 66, 0
2, 52012, Note_on_c, 0, 85, 0
2, 52012, Note_on_c, 0, 58, 0
2, 52012, Note_on_c, 0, 61, 0
2, 52020, Note_on_c, 0, 58, 64
2, 52020, Note_on_c, 0, 61, 64
2, 52020, Note_on_c, 0, 66, 64
2, 52065, Note_on_c, 0, 92, 64
2, 52072, Note_on_c, 0, 66, 0
2, 52072, Note_on_c, 0, 58, 0
2, 52072, Note_on_c, 0, 61, 0
2, 52078, Note_on_c, 0, 92, 0
2, 52080, Note_on_c, 0, 90, 64
2, 52080, Note_on_c, 0, 58, 64
2, 52080, Note_on_c, 0, 61, 64
2, 52080, Note_on_c, 0, 66, 64
2, 52106, Note_on_c, 0, 90, 0
2, 52110, Note_on_c, 0, 89, 64
2, 52132, Note_on_c, 0, 58, 0
2, 52132, Note_on_c, 0, 66, 0
2, 52132, Note_on_c, 0, 61, 0
2, 52136, Note_on_c, 0, 89, 0
2, 52140, Note_on_c, 0, 90, 64
2, 52140, Note_on_c, 0, 58, 64
2, 52140, Note_on_c, 0, 61, 64
2, 52140, Note_on_c, 0, 66, 64
2, 52192, Note_on_c, 0, 66, 0
2, 52192, Note_on_c, 0, 90, 0
2, 52192, Note_on_c, 0, 58, 0
2, 52192, Note_on_c, 0, 61, 0
2, 52200, Note_on_c, 0, 58, 64
2, 52200, Note_on_c, 0, 61, 64
2, 52200, Note_on_c, 0, 66, 64
2, 52245, Note_on_c, 0, 87, 64
2, 52252, Note_on_c, 0, 66, 0
2, 52252, Note_on_c, 0, 58, 0
2, 52252, Note_on_c, 0, 61, 0
2, 52258, Note_on_c, 0, 87, 0
2, 52260, Note_on_c, 0, 85, 64
2, 52260, Note_on_c, 0, 58, 64
2, 52260, Note_on_c, 0, 61, 64
2, 52260, Note_on_c, 0, 66, 64
2, 52286, Note_on_c, 0, 85, 0
2, 52290, Note_on_c, 0, 84, 64
2, 52312, Note_on_c, 0, 58, 0
2, 52312, Note_on_c, 0, 66, 0
2, 52312, Note_on_c, 0, 61, 0
2, 52316, Note_on_c, 0, 84, 0
2, 52320, Note_on_c, 0, 85, 64
2, 52320, Note_on_c, 0, 58, 64
2, 52320, Note_on_c, 0, 61, 64
2, 52320, Note_on_c, 0, 66, 64
2, 52372, Note_on_c, 0, 66, 0
2, 52372, Note_on_c, 0, 85, 0
2, 52372, Note_on_c, 0, 58, 0
2, 52372, Note_on_c, 0, 61, 0
2, 52380, Note_on_c, 0, 58, 64
2, 52380, Note_on_c, 0, 61, 64
2, 52380, Note_on_c, 0, 66, 64
2, 52425, Note_on_c, 0, 84, 64
2, 52432, Note_on_c, 0, 66, 0
2, 52432, Note_on_c, 0, 58, 0
2, 52432, Note_on_c, 0, 61, 0
2, 52438, Note_on_c, 0, 84, 0
2, 52440, Note_on_c, 0, 82, 64
2, 52440, Note_on_c, 0, 58, 64
2, 52440, Note_on_c, 0, 61, 64
2, 52440, Note_on_c, 0, 66, 64
2, 52466, Note_on_c, 0, 82, 0
2, 52470, Note_on_c, 0, 81, 64
2, 52492, Note_on_c, 0, 58, 0
2, 52492, Note_on_c, 0, 66, 0
2, 52492, Note_on_c, 0, 61, 0
2, 52496, Note_on_c, 0, 81, 0
2, 52500, Note_on_c, 0, 82, 64
2, 52500, Note_on_c, 0, 58, 64
2, 52500, Note_on_c, 0, 61, 64
2, 52500, Note_on_c, 0, 66, 64
2, 52552, Note_on_c, 0, 66, 0
2, 52552, Note_on_c, 0, 82, 0
2, 52552, Note_on_c, 0, 58, 0
2, 52552, Note_on_c, 0, 61, 0
2, 52560, Note_on_c, 0, 58, 64
2, 52560, Note_on_c, 0, 61, 64
2, 52560, Note_on_c, 0, 66, 64
2, 52605, Note_on_c, 0, 80, 64
2, 52612, Note_on_c, 0, 66, 0
2, 52612, Note_on_c, 0, 58, 0
2, 52612, Note_on_c, 0, 61, 0
2, 52618, Note_on_c, 0, 80, 0
2, 52620, Note_on_c, 0, 78, 64
2, 52620, Note_on_c, 0, 58, 64
2, 52620, Note_on_c, 0, 61, 64
2, 52620, Note_on_c, 0, 66, 64
2, 52646, Note_on_c, 0, 78, 0
2, 52650, Note_on_c, 0, 77, 64
2, 52672, Note_on_c, 0, 58, 0
2, 52672, Note_on_c, 0, 66, 0
2, 52672, Note_on_c, 0, 61, 0
2, 52676, Note_on_c, 0, 77, 0
2, 52680, Note_on_c, 0, 78, 64
2, 52680, Note_on_c, 0, 58, 64
2, 52680, Note_on_c, 0, 61, 64
2, 52680, Note_on_c, 0, 66, 64
2, 52732, Note_on_c, 0, 66, 0
2, 52732, Note_on_c, 0, 78, 0
2, 52732, Note_on_c, 0, 58, 0
2, 52732, Note_on_c, 0, 61, 0
2, 52740, Note_on_c, 0, 58, 64
2, 52740, Note_on_c, 0, 61, 64
2, 52740, Note_on_c, 0, 66, 64
2, 52785, Note_on_c, 0, 75, 64
2, 52792, Note_on_c, 0, 66, 0
2, 52792, Note_on_c, 0, 58, 0
2, 52792, Note_on_c, 0, 61, 0
2, 52798, Note_on_c, 0, 75, 0
2, 52800, Note_on_c, 0, 73, 64
2, 52800, Note_on_c, 0, 58, 64
2, 52800, Note_on_c, 0, 61, 64
2, 52800, Note_on_c, 0, 66, 64
2, 52826, Note_on_c, 0, 73, 0
2, 52830, Note_on_c, 0, 72, 64
2, 52852, Note_on_c, 0, 58, 0
2, 52852, Note_on_c, 0, 66, 0
2, 52852, Note_on_c, 0, 61, 0
2, 52856, Note_on_c, 0, 72, 0
2, 52860, Note_on_c, 0, 73, 64
2, 52860, Note_on_c, 0, 58, 64
2, 52860, Note_on_c, 0, 61, 64
2, 52860, Note_on_c, 0, 66, 64
2, 52912, Note_on_c, 0, 66, 0
2, 52912, Note_on_c, 0, 61, 0
2, 52912, Note_on_c, 0, 58, 0
2, 52920, Note_on_c, 0, 58, 64
2, 52920, Note_on_c, 0, 61, 64
2, 52920, Note_on_c, 0, 66, 64
2, 52965, Note_on_c, 0, 73, 0
2, 52972, Note_on_c, 0, 58, 0
2, 52972, Note_on_c, 0, 61, 0
2, 52972, Note_on_c, 0, 66, 0
2, 52980, Note_on_c, 0, 58, 64
2, 52980, Note_on_c, 0, 61, 64
2, 52980, Note_on_c, 0, 64, 64
2, 53032, Note_on_c, 0, 64, 0
2, 53032, Note_on_c, 0, 61, 0
2, 53032, Note_on_c, 0, 58, 0
2, 53040, Note_on_c, 0, 72, 64
2, 53040, Note_on_c, 0, 57, 64
2, 53040, Note_on_c, 0, 60, 64
2, 53040, Note_on_c, 0, 65, 64
2, 53092, Note_on_c, 0, 65, 0
2, 53092, Note_on_c, 0, 72, 0
2, 53092, Note_on_c, 0, 57, 0
2, 53092, Note_on_c, 0, 60, 0
2, 53100, Note_on_c, 0, 57, 64
2, 53100, Note_on_c, 0, 60, 64
2, 53100, Note_on_c, 0, 65, 64
2, 53145, Note_on_c, 0, 82, 64
2, 53152, Note_on_c, 0, 65, 0
2, 53152, Note_on_c, 0, 57, 0
2, 53152, Note_on_c, 0, 60, 0
2, 53158, Note_on_c, 0, 82, 0
2, 53160, Note_on_c, 0, 81, 64
2, 53160, Note_on_c, 0, 57, 64
2, 53160, Note_on_c, 0, 60, 64
2, 53160, Note_on_c, 0, 65, 64
2, 53186, Note_on_c, 0, 81, 0
2, 53190, Note_on_c, 0, 79, 64
2, 53212, Note_on_c, 0, 57, 0
2, 53212, Note_on_c, 0, 65, 0
2, 53212, Note_on_c, 0, 60, 0
2, 53216, Note_on_c, 0, 79, 0
2, 53220, Note_on_c, 0, 81, 64
2, 53220, Note_on_c, 0, 57, 64
2, 53220, Note_on_c, 0, 60, 64
2, 53220, Note_on_c, 0, 65, 64
2, 53272, Note_on_c, 0, 65, 0
2, 53272, Note_on_c, 0, 81, 0
2, 53272, Note_on_c, 0, 57, 0
2, 53272, Note_on_c, 0, 60, 0
2, 53280, Note_on_c, 0, 57, 64
2, 53280, Note_on_c, 0, 60, 64
2, 53280, Note_on_c, 0, 65, 64
2, 53325, Note_on_c, 0, 85, 64
2, 53332, Note_on_c, 0, 65, 0
2, 53332, Note_on_c, 0, 57, 0
2, 53332, Note_on_c, 0, 60, 0
2, 53338, Note_on_c, 0, 85, 0
2, 53340, Note_on_c, 0, 84, 64
2, 53340, Note_on_c, 0, 57, 64
2, 53340, Note_on_c, 0, 60, 64
2, 53340, Note_on_c, 0, 65, 64
2, 53366, Note_on_c, 0, 84, 0
2, 53370, Note_on_c, 0, 83, 64
2, 53392, Note_on_c, 0, 57, 0
2, 53392, Note_on_c, 0, 65, 0
2, 53392, Note_on_c, 0, 60, 0
2, 53396, Note_on_c, 0, 83, 0
2, 53400, Note_on_c, 0, 84, 64
2, 53400, Note_on_c, 0, 57, 64
2, 53400, Note_on_c, 0, 60, 64
2, 53400, Note_on_c, 0, 65, 64
2, 53452, Note_on_c, 0, 65, 0
2, 53452, Note_on_c, 0, 84, 0
2, 53452, Note_on_c, 0, 57, 0
2, 53452, Note_on_c, 0, 60, 0
2, 53460, Note_on_c, 0, 57, 64
2, 53460, Note_on_c, 0, 60, 64
2, 53460, Note_on_c, 0, 65, 64
2, 53505, Note_on_c, 0, 90, 64
2, 53512, Note_on_c, 0, 65, 0
2, 53512, Note_on_c, 0, 57, 0
2, 53512, Note_on_c, 0, 60, 0
2, 53518, Note_on_c, 0, 90, 0
2, 53520, Note_on_c, 0, 89, 64
2, 53520, Note_on_c, 0, 57, 64
2, 53520, Note_on_c, 0, 60, 64
2, 53520, Note_on_c, 0, 65, 64
2, 53546, Note_on_c, 0, 89, 0
2, 53550, Note_on_c, 0, 88, 64
2, 53572, Note_on_c, 0, 57, 0
2, 53572, Note_on_c, 0, 65, 0
2, 53572, Note_on_c, 0, 60, 0
2, 53576, Note_on_c, 0, 88, 0
2, 53580, Note_on_c, 0, 89, 64
2, 53580, Note_on_c, 0, 57, 64
2, 53580, Note_on_c, 0, 60, 64
2, 53580, Note_on_c, 0, 65, 64
2, 53632, Note_on_c, 0, 65, 0
2, 53632, Note_on_c, 0, 89, 0
2, 53632, Note_on_c, 0, 57, 0
2, 53632, Note_on_c, 0, 60, 0
2, 53640, Note_on_c, 0, 57, 64
2, 53640, Note_on_c, 0, 60, 64
2, 53640, Note_on_c, 0, 65, 64
2, 53685, Note_on_c, 0, 85, 64
2, 53692, Note_on_c, 0, 65, 0
2, 53692, Note_on_c, 0, 57, 0
2, 53692, Note_on_c, 0, 60, 0
2, 53698, Note_on_c, 0, 85, 0
2, 53700, Note_on_c, 0, 84, 64
2, 53700, Note_on_c, 0, 57, 64
2, 53700, Note_on_c, 0, 60, 64
2, 53700, Note_on_c, 0, 65, 64
2, 53726, Note_on_c, 0, 84, 0
2, 53730, Note_on_c, 0, 83, 64
2, 53752, Note_on_c, 0, 57, 0
2, 53752, Note_on_c, 0, 65, 0
2, 53752, Note_on_c, 0, 60, 0
2, 53756, Note_on_c, 0, 83, 0
2, 53760, Note_on_c, 0, 84, 64
2, 53760, Note_on_c, 0, 57, 64
2, 53760, Note_on_c, 0, 60, 64
2, 53760, Note_on_c, 0, 65, 64
2, 53812, Note_on_c, 0, 65, 0
2, 53812, Note_on_c, 0, 84, 0
2, 53812, Note_on_c, 0, 57, 0
2, 53812, Note_on_c, 0, 60, 0
2, 53820, Note_on_c, 0, 57, 64
2, 53820, Note_on_c, 0, 60, 64
2, 53820, Note_on_c, 0, 65, 64
2, 53865, Note_on_c, 0, 82, 64
2, 53872, Note_on_c, 0, 65, 0
2, 53872, Note_on_c, 0, 57, 0
2, 53872, Note_on_c, 0, 60, 0
2, 53878, Note_on_c, 0, 82, 0
2, 53880, Note_on_c, 0, 81, 64
2, 53880, Note_on_c, 0, 57, 64
2, 53880, Note_on_c, 0, 60, 64
2, 53880, Note_on_c, 0, 65, 64
2, 53906, Note_on_c, 0, 81, 0
2, 53910, Note_on_c, 0, 79, 64
2, 53932, Note_on_c, 0, 57, 0
2, 53932, Note_on_c, 0, 65, 0
2, 53932, Note_on_c, 0, 60, 0
2, 53936, Note_on_c, 0, 79, 0
2, 53940, Note_on_c, 0, 81, 64
2, 53940, Note_on_c, 0, 57, 64
2, 53940, Note_on_c, 0, 60, 64
2, 53940, Note_on_c, 0, 65, 64
2, 53992, Note_on_c, 0, 65, 0
2, 53992, Note_on_c, 0, 81, 0
2, 53992, Note_on_c, 0, 57, 0
2, 53992, Note_on_c, 0, 60, 0
2, 54000, Note_on_c, 0, 57, 64
2, 54000, Note_on_c, 0, 60, 64
2, 54000, Note_on_c, 0, 65, 64
2, 54045, Note_on_c, 0, 78, 64
2, 54052, Note_on_c, 0, 65, 0
2, 54052, Note_on_c, 0, 57, 0
2, 54052, Note_on_c, 0, 60, 0
2, 54058, Note_on_c, 0, 78, 0
2, 54060, Note_on_c, 0, 77, 64
2, 54060, Note_on_c, 0, 57, 64
2, 54060, Note_on_c, 0, 60, 64
2, 54060, Note_on_c, 0, 65, 64
2, 54086, Note_on_c, 0, 77, 0
2, 54090, Note_on_c, 0, 76, 64
2, 54112, Note_on_c, 0, 57, 0
2, 54112, Note_on_c, 0, 65, 0
2, 54112, Note_on_c, 0, 60, 0
2, 54116, Note_on_c, 0, 76, 0
2, 54120, Note_on_c, 0, 77, 64
2, 54120, Note_on_c, 0, 57, 64
2, 54120, Note_on_c, 0, 60, 64
2, 54120, Note_on_c, 0, 65, 64
2, 54172, Note_on_c, 0, 65, 0
2, 54172, Note_on_c, 0, 77, 0
2, 54172, Note_on_c, 0, 57, 0
2, 54172, Note_on_c, 0, 60, 0
2, 54180, Note_on_c, 0, 57, 64
2, 54180, Note_on_c, 0, 60, 64
2, 54180, Note_on_c, 0, 65, 64
2, 54225, Note_on_c, 0, 73, 64
2, 54232, Note_on_c, 0, 65, 0
2, 54232, Note_on_c, 0, 57, 0
2, 54232, Note_on_c, 0, 60, 0
2, 54238, Note_on_c, 0, 73, 0
2, 54240, Note_on_c, 0, 72, 64
2, 54240, Note_on_c, 0, 57, 64
2, 54240, Note_on_c, 0, 60, 64
2, 54240, Note_on_c, 0, 65, 64
2, 54266, Note_on_c, 0, 72, 0
2, 54270, Note_on_c, 0, 71, 64
2, 54292, Note_on_c, 0, 57, 0
2, 54292, Note_on_c, 0, 65, 0
2, 54292, Note_on_c, 0, 60, 0
2, 54296, Note_on_c, 0, 71, 0
2, 54300, Note_on_c, 0, 72, 64
2, 54300, Note_on_c, 0, 57, 64
2, 54300, Note_on_c, 0, 60, 64
2, 54300, Note_on_c, 0, 65, 64
2, 54352, Note_on_c, 0, 65, 0
2, 54352, Note_on_c, 0, 72, 0
2, 54352, Note_on_c, 0, 57, 0
2, 54352, Note_on_c, 0, 60, 0
2, 54360, Note_on_c, 0, 53, 64
2, 54412, Note_on_c, 0, 53, 0
2, 54420, Note_on_c, 0, 73, 64
2, 54420, Note_on_c, 0, 51, 64
2, 54472, Note_on_c, 0, 51, 0
2, 54472, Note_on_c, 0, 73, 0
2, 54480, Note_on_c, 0, 65, 64
2, 54480, Note_on_c, 0, 74, 64
2, 54480, Note_on_c, 0, 46, 64
2, 54480, Note_on_c, 0, 50, 64
2, 54506, Note_on_c, 0, 65, 0
2, 54510, Note_on_c, 0, 67, 64
2, 54536, Note_on_c, 0, 67, 0
2, 54540, Note_on_c, 0, 65, 64
2, 54566, Note_on_c, 0, 65, 0
2, 54570, Note_on_c, 0, 67, 64
2, 54585, Note_on_c, 0, 50, 0
2, 54596, Note_on_c, 0, 67, 0
2, 54600, Note_on_c, 0, 65, 64
2, 54600, Note_on_c, 0, 55, 64
2, 54626, Note_on_c, 0, 65, 0
2, 54630, Note_on_c, 0, 67, 64
2, 54645, Note_on_c, 0, 74, 0
2, 54652, Note_on_c, 0, 55, 0
2, 54656, Note_on_c, 0, 67, 0
2, 54660, Note_on_c, 0, 65, 64
2, 54660, Note_on_c, 0, 70, 64
2, 54660, Note_on_c, 0, 53, 64
2, 54686, Note_on_c, 0, 65, 0
2, 54690, Note_on_c, 0, 67, 64
2, 54716, Note_on_c, 0, 67, 0
2, 54720, Note_on_c, 0, 65, 64
2, 54746, Note_on_c, 0, 65, 0
2, 54750, Note_on_c, 0, 67, 64
2, 54765, Note_on_c, 0, 53, 0
2, 54776, Note_on_c, 0, 67, 0
2, 54780, Note_on_c, 0, 65, 64
2, 54780, Note_on_c, 0, 50, 64
2, 54806, Note_on_c, 0, 65, 0
2, 54810, Note_on_c, 0, 67, 64
2, 54825, Note_on_c, 0, 46, 0
2, 54825, Note_on_c, 0, 70, 0
2, 54832, Note_on_c, 0, 50, 0
2, 54836, Note_on_c, 0, 67, 0
2, 54840, Note_on_c, 0, 65, 64
2, 54840, Note_on_c, 0, 69, 64
2, 54840, Note_on_c, 0, 41, 64
2, 54840, Note_on_c, 0, 48, 64
2, 54866, Note_on_c, 0, 65, 0
2, 54870, Note_on_c, 0, 67, 64
2, 54896, Note_on_c, 0, 67, 0
2, 54900, Note_on_c, 0, 65, 64
2, 54926, Note_on_c, 0, 65, 0
2, 54930, Note_on_c, 0, 67, 64
2, 54945, Note_on_c, 0, 48, 0
2, 54956, Note_on_c, 0, 67, 0
2, 54960, Note_on_c, 0, 65, 64
2, 54960, Note_on_c, 0, 55, 64
2, 54986, Note_on_c, 0, 65, 0
2, 54990, Note_on_c, 0, 67, 64
2, 55005, Note_on_c, 0, 69, 0
2, 55012, Note_on_c, 0, 55, 0
2, 55016, Note_on_c, 0, 67, 0
2, 55020, Note_on_c, 0, 65, 64
2, 55020, Note_on_c, 0, 75, 64
2, 55020, Note_on_c, 0, 53, 64
2, 55046, Note_on_c, 0, 65, 0
2, 55050, Note_on_c, 0, 67, 64
2, 55076, Note_on_c, 0, 67, 0
2, 55080, Note_on_c, 0, 65, 64
2, 55106, Note_on_c, 0, 65, 0
2, 55110, Note_on_c, 0, 67, 64
2, 55125, Note_on_c, 0, 53, 0
2, 55136, Note_on_c, 0, 67, 0
2, 55140, Note_on_c, 0, 65, 64
2, 55140, Note_on_c, 0, 48, 64
2, 55166, Note_on_c, 0, 65, 0
2, 55170, Note_on_c, 0, 67, 64
2, 55185, Note_on_c, 0, 41, 0
2, 55185, Note_on_c, 0, 75, 0
2, 55192, Note_on_c, 0, 48, 0
2, 55196, Note_on_c, 0, 67, 0
2, 55200, Note_on_c, 0, 65, 64
2, 55200, Note_on_c, 0, 74, 64
2, 55200, Note_on_c, 0, 46, 64
2, 55200, Note_on_c, 0, 50, 64
2, 55226, Note_on_c, 0, 65, 0
2, 55230, Note_on_c, 0, 67, 64
2, 55256, Note_on_c, 0, 67, 0
2, 55260, Note_on_c, 0, 65, 64
2, 55286, Note_on_c, 0, 65, 0
2, 55290, Note_on_c, 0, 67, 64
2, 55305, Note_on_c, 0, 50, 0
2, 55316, Note_on_c, 0, 67, 0
2, 55320, Note_on_c, 0, 65, 64
2, 55320, Note_on_c, 0, 55, 64
2, 55346, Note_on_c, 0, 65, 0
2, 55350, Note_on_c, 0, 67, 64
2, 55365, Note_on_c, 0, 74, 0
2, 55372, Note_on_c, 0, 55, 0
2, 55376, Note_on_c, 0, 67, 0
2, 55380, Note_on_c, 0, 65, 64
2, 55380, Note_on_c, 0, 70, 64
2, 55380, Note_on_c, 0, 53, 64
2, 55406, Note_on_c, 0, 65, 0
2, 55410, Note_on_c, 0, 67, 64
2, 55436, Note_on_c, 0, 67, 0
2, 55440, Note_on_c, 0, 65, 64
2, 55466, Note_on_c, 0, 65, 0
2, 55470, Note_on_c, 0, 67, 64
2, 55485, Note_on_c, 0, 53, 0
2, 55496, Note_on_c, 0, 67, 0
2, 55500, Note_on_c, 0, 65, 64
2, 55500, Note_on_c, 0, 50, 64
2, 55526, Note_on_c, 0, 65, 0
2, 55530, Note_on_c, 0, 67, 64
2, 55545, Note_on_c, 0, 46, 0
2, 55545, Note_on_c, 0, 70, 0
2, 55552, Note_on_c, 0, 50, 0
2, 55556, Note_on_c, 0, 67, 0
2, 55560, Note_on_c, 0, 65, 64
2, 55560, Note_on_c, 0, 69, 64
2, 55560, Note_on_c, 0, 41, 64
2, 55560, Note_on_c, 0, 48, 64
2, 55586, Note_on_c, 0, 65, 0
2, 55590, Note_on_c, 0, 67, 64
2, 55616, Note_on_c, 0, 67, 0
2, 55620, Note_on_c, 0, 65, 64
2, 55646, Note_on_c, 0, 65, 0
2, 55650, Note_on_c, 0, 67, 64
2, 55665, Note_on_c, 0, 48, 0
2, 55676, Note_on_c, 0, 67, 0
2, 55680, Note_on_c, 0, 65, 64
2, 55680, Note_on_c, 0, 55, 64
2, 55706, Note_on_c, 0, 65, 0
2, 55710, Note_on_c, 0, 67, 64
2, 55725, Note_on_c, 0, 69, 0
2, 55732, Note_on_c, 0, 55, 0
2, 55736, Note_on_c, 0, 67, 0
2, 55740, Note_on_c, 0, 65, 64
2, 55740, Note_on_c, 0, 75, 64
2, 55740, Note_on_c, 0, 53, 64
2, 55766, Note_on_c, 0, 65, 0
2, 55770, Note_on_c, 0, 67, 64
2, 55796, Note_on_c, 0, 67, 0
2, 55800, Note_on_c, 0, 65, 64
2, 55826, Note_on_c, 0, 65, 0
2, 55830, Note_on_c, 0, 67, 64
2, 55845, Note_on_c, 0, 53, 0
2, 55856, Note_on_c, 0, 67, 0
2, 55860, Note_on_c, 0, 65, 64
2, 55860, Note_on_c, 0, 48, 64
2, 55886, Note_on_c, 0, 65, 0
2, 55890, Note_on_c, 0, 67, 64
2, 55905, Note_on_c, 0, 41, 0
2, 55905, Note_on_c, 0, 75, 0
2, 55912, Note_on_c, 0, 48, 0
2, 55916, Note_on_c, 0, 67, 0
2, 55920, Note_on_c, 0, 74, 64
2, 55920, Note_on_c, 0, 46, 64
2, 55920, Note_on_c, 0, 50, 64
2, 55946, Note_on_c, 0, 74, 0
2, 55950, Note_on_c, 0, 77, 64
2, 55972, Note_on_c, 0, 50, 0
2, 55972, Note_on_c, 0, 46, 0
2, 55976, Note_on_c, 0, 77, 0
2, 55980, Note_on_c, 0, 79, 64
2, 55980, Note_on_c, 0, 50, 64
2, 55980, Note_on_c, 0, 53, 64
2, 55980, Note_on_c, 0, 58, 64
2, 55997, Note_on_c, 0, 79, 0
2, 55999, Note_on_c, 0, 81, 64
2, 56017, Note_on_c, 0, 81, 0
2, 56019, Note_on_c, 0, 82, 64
2, 56032, Note_on_c, 0, 58, 0
2, 56032, Note_on_c, 0, 50, 0
2, 56032, Note_on_c, 0, 53, 0
2, 56037, Note_on_c, 0, 82, 0
2, 56040, Note_on_c, 0, 84, 64
2, 56040, Note_on_c, 0, 50, 64
2, 56040, Note_on_c, 0, 53, 64
2, 56040, Note_on_c, 0, 58, 64
2, 56057, Note_on_c, 0, 84, 0
2, 56059, Note_on_c, 0, 86, 64
2, 56077, Note_on_c, 0, 86, 0
2, 56079, Note_on_c, 0, 87, 64
2, 56092, Note_on_c, 0, 58, 0
2, 56092, Note_on_c, 0, 50, 0
2, 56092, Note_on_c, 0, 53, 0
2, 56097, Note_on_c, 0, 87, 0
2, 56100, Note_on_c, 0, 89, 64
2, 56100, Note_on_c, 0, 50, 64
2, 56100, Note_on_c, 0, 53, 64
2, 56100, Note_on_c, 0, 58, 64
2, 56126, Note_on_c, 0, 89, 0
2, 56130, Note_on_c, 0, 87, 64
2, 56152, Note_on_c, 0, 50, 0
2, 56152, Note_on_c, 0, 58, 0
2, 56152, Note_on_c, 0, 53, 0
2, 56156, Note_on_c, 0, 87, 0
2, 56160, Note_on_c, 0, 86, 64
2, 56160, Note_on_c, 0, 50, 64
2, 56160, Note_on_c, 0, 53, 64
2, 56160, Note_on_c, 0, 58, 64
2, 56186, Note_on_c, 0, 86, 0
2, 56190, Note_on_c, 0, 84, 64
2, 56212, Note_on_c, 0, 50, 0
2, 56212, Note_on_c, 0, 58, 0
2, 56212, Note_on_c, 0, 53, 0
2, 56216, Note_on_c, 0, 84, 0
2, 56220, Note_on_c, 0, 82, 64
2, 56220, Note_on_c, 0, 50, 64
2, 56220, Note_on_c, 0, 53, 64
2, 56220, Note_on_c, 0, 58, 64
2, 56246, Note_on_c, 0, 82, 0
2, 56250, Note_on_c, 0, 81, 64
2, 56272, Note_on_c, 0, 50, 0
2, 56272, Note_on_c, 0, 58, 0
2, 56272, Note_on_c, 0, 53, 0
2, 56276, Note_on_c, 0, 81, 0
2, 56280, Note_on_c, 0, 79, 64
2, 56306, Note_on_c, 0, 79, 0
2, 56310, Note_on_c, 0, 81, 64
2, 56336, Note_on_c, 0, 81, 0
2, 56340, Note_on_c, 0, 82, 64
2, 56340, Note_on_c, 0, 51, 64
2, 56340, Note_on_c, 0, 55, 64
2, 56340, Note_on_c, 0, 58, 64
2, 56366, Note_on_c, 0, 82, 0
2, 56370, Note_on_c, 0, 84, 64
2, 56392, Note_on_c, 0, 51, 0
2, 56392, Note_on_c, 0, 58, 0
2, 56392, Note_on_c, 0, 55, 0
2, 56396, Note_on_c, 0, 84, 0
2, 56400, Note_on_c, 0, 86, 64
2, 56400, Note_on_c, 0, 51, 64
2, 56400, Note_on_c, 0, 55, 64
2, 56400, Note_on_c, 0, 58, 64
2, 56417, Note_on_c, 0, 86, 0
2, 56419, Note_on_c, 0, 87, 64
2, 56437, Note_on_c, 0, 87, 0
2, 56439, Note_on_c, 0, 89, 64
2, 56452, Note_on_c, 0, 58, 0
2, 56452, Note_on_c, 0, 51, 0
2, 56452, Note_on_c, 0, 55, 0
2, 56457, Note_on_c, 0, 89, 0
2, 56460, Note_on_c, 0, 91, 64
2, 56460, Note_on_c, 0, 51, 64
2, 56460, Note_on_c, 0, 55, 64
2, 56460, Note_on_c, 0, 58, 64
2, 56486, Note_on_c, 0, 91, 0
2, 56490, Note_on_c, 0, 89, 64
2, 56512, Note_on_c, 0, 51, 0
2, 56512, Note_on_c, 0, 58, 0
2, 56512, Note_on_c, 0, 55, 0
2, 56516, Note_on_c, 0, 89, 0
2, 56520, Note_on_c, 0, 87, 64
2, 56520, Note_on_c, 0, 51, 64
2, 56520, Note_on_c, 0, 55, 64
2, 56520, Note_on_c, 0, 58, 64
2, 56537, Note_on_c, 0, 87, 0
2, 56539, Note_on_c, 0, 86, 64
2, 56557, Note_on_c, 0, 86, 0
2, 56559, Note_on_c, 0, 84, 64
2, 56572, Note_on_c, 0, 58, 0
2, 56572, Note_on_c, 0, 51, 0
2, 56572, Note_on_c, 0, 55, 0
2, 56577, Note_on_c, 0, 84, 0
2, 56580, Note_on_c, 0, 82, 64
2, 56580, Note_on_c, 0, 51, 64
2, 56580, Note_on_c, 0, 55, 64
2, 56580, Note_on_c, 0, 60, 64
2, 56597, Note_on_c, 0, 82, 0
2, 56599, Note_on_c, 0, 81, 64
2, 56617, Note_on_c, 0, 81, 0
2, 56619, Note_on_c, 0, 79, 64
2, 56632, Note_on_c, 0, 60, 0
2, 56632, Note_on_c, 0, 51, 0
2, 56632, Note_on_c, 0, 55, 0
2, 56637, Note_on_c, 0, 79, 0
2, 56640, Note_on_c, 0, 77, 64
2, 56666, Note_on_c, 0, 77, 0
2, 56670, Note_on_c, 0, 86, 64
2, 56696, Note_on_c, 0, 86, 0
2, 56700, Note_on_c, 0, 82, 64
2, 56700, Note_on_c, 0, 53, 64
2, 56700, Note_on_c, 0, 58, 64
2, 56700, Note_on_c, 0, 62, 64
2, 56726, Note_on_c, 0, 82, 0
2, 56730, Note_on_c, 0, 89, 64
2, 56752, Note_on_c, 0, 53, 0
2, 56752, Note_on_c, 0, 62, 0
2, 56752, Note_on_c, 0, 58, 0
2, 56756, Note_on_c, 0, 89, 0
2, 56760, Note_on_c, 0, 86, 64
2, 56760, Note_on_c, 0, 53, 64
2, 56760, Note_on_c, 0, 58, 64
2, 56760, Note_on_c, 0, 62, 64
2, 56786, Note_on_c, 0, 86, 0
2, 56790, Note_on_c, 0, 94, 64
2, 56812, Note_on_c, 0, 53, 0
2, 56812, Note_on_c, 0, 62, 0
2, 56812, Note_on_c, 0, 58, 0
2, 56816, Note_on_c, 0, 94, 0
2, 56820, Note_on_c, 0, 89, 64
2, 56820, Note_on_c, 0, 53, 64
2, 56820, Note_on_c, 0, 58, 64
2, 56820, Note_on_c, 0, 62, 64
2, 56837, Note_on_c, 0, 89, 0
2, 56839, Note_on_c, 0, 98, 64
2, 56857, Note_on_c, 0, 98, 0
2, 56859, Note_on_c, 0, 94, 64
2, 56872, Note_on_c, 0, 62, 0
2, 56872, Note_on_c, 0, 53, 0
2, 56872, Note_on_c, 0, 58, 0
2, 56877, Note_on_c, 0, 94, 0
2, 56880, Note_on_c, 0, 101, 64
2, 56880, Note_on_c, 0, 53, 64
2, 56880, Note_on_c, 0, 58, 64
2, 56880, Note_on_c, 0, 62, 64
2, 56897, Note_on_c, 0, 101, 0
2, 56899, Note_on_c, 0, 98, 64
2, 56917, Note_on_c, 0, 98, 0
2, 56919, Note_on_c, 0, 94, 64
2, 56932, Note_on_c, 0, 62, 0
2, 56932, Note_on_c, 0, 53, 0
2, 56932, Note_on_c, 0, 58, 0
2, 56937, Note_on_c, 0, 94, 0
2, 56940, Note_on_c, 0, 89, 64
2, 56940, Note_on_c, 0, 53, 64
2, 56940, Note_on_c, 0, 58, 64
2, 56940, Note_on_c, 0, 62, 64
2, 56957, Note_on_c, 0, 89, 0
2, 56959, Note_on_c, 0, 86, 64
2, 56977, Note_on_c, 0, 86, 0
2, 56979, Note_on_c, 0, 82, 64
2, 56992, Note_on_c, 0, 62, 0
2, 56992, Note_on_c, 0, 53, 0
2, 56992, Note_on_c, 0, 58, 0
2, 56997, Note_on_c, 0, 82, 0
2, 57000, Note_on_c, 0, 77, 64
2, 57000, Note_on_c, 0, 53, 64
2, 57000, Note_on_c, 0, 58, 64
2, 57000, Note_on_c, 0, 62, 64
2, 57052, Note_on_c, 0, 62, 0
2, 57052, Note_on_c, 0, 58, 0
2, 57052, Note_on_c, 0, 53, 0
2, 57060, Note_on_c, 0, 53, 64
2, 57060, Note_on_c, 0, 58, 64
2, 57060, Note_on_c, 0, 62, 64
2, 57105, Note_on_c, 0, 77, 0
2, 57112, Note_on_c, 0, 53, 0
2, 57112, Note_on_c, 0, 58, 0
2, 57112, Note_on_c, 0, 62, 0
2, 57120, Note_on_c, 0, 53, 64
2, 57120, Note_on_c, 0, 58, 64
2, 57120, Note_on_c, 0, 62, 64
2, 57172, Note_on_c, 0, 62, 0
2, 57172, Note_on_c, 0, 58, 0
2, 57172, Note_on_c, 0, 53, 0
2, 57180, Note_on_c, 0, 86, 64
2, 57180, Note_on_c, 0, 53, 64
2, 57180, Note_on_c, 0, 56, 64
2, 57180, Note_on_c, 0, 63, 64
2, 57193, Note_on_c, 0, 86, 0
2, 57195, Note_on_c, 0, 84, 64
2, 57208, Note_on_c, 0, 84, 0
2, 57210, Note_on_c, 0, 86, 64
2, 57223, Note_on_c, 0, 86, 0
2, 57225, Note_on_c, 0, 84, 64
2, 57232, Note_on_c, 0, 53, 0
2, 57232, Note_on_c, 0, 63, 0
2, 57232, Note_on_c, 0, 56, 0
2, 57238, Note_on_c, 0, 84, 0
2, 57240, Note_on_c, 0, 86, 64
2, 57240, Note_on_c, 0, 53, 64
2, 57240, Note_on_c, 0, 56, 64
2, 57240, Note_on_c, 0, 63, 64
2, 57253, Note_on_c, 0, 86, 0
2, 57255, Note_on_c, 0, 84, 64
2, 57268, Note_on_c, 0, 84, 0
2, 57270, Note_on_c, 0, 86, 64
2, 57283, Note_on_c, 0, 86, 0
2, 57285, Note_on_c, 0, 84, 64
2, 57292, Note_on_c, 0, 53, 0
2, 57292, Note_on_c, 0, 63, 0
2, 57292, Note_on_c, 0, 56, 0
2, 57298, Note_on_c, 0, 84, 0
2, 57300, Note_on_c, 0, 86, 64
2, 57300, Note_on_c, 0, 53, 64
2, 57300, Note_on_c, 0, 56, 64
2, 57300, Note_on_c, 0, 63, 64
2, 57313, Note_on_c, 0, 86, 0
2, 57315, Note_on_c, 0, 84, 64
2, 57328, Note_on_c, 0, 84, 0
2, 57330, Note_on_c, 0, 86, 64
2, 57343, Note_on_c, 0, 86, 0
2, 57345, Note_on_c, 0, 84, 64
2, 57352, Note_on_c, 0, 53, 0
2, 57352, Note_on_c, 0, 63, 0
2, 57352, Note_on_c, 0, 56, 0
2, 57358, Note_on_c, 0, 84, 0
2, 57360, Note_on_c, 0, 86, 64
2, 57360, Note_on_c, 0, 77, 64
2, 57360, Note_on_c, 0, 62, 64
2, 57360, Note_on_c, 0, 58, 64
2, 57386, Note_on_c, 0, 77, 0
2, 57390, Note_on_c, 0, 79, 64
2, 57416, Note_on_c, 0, 79, 0
2, 57420, Note_on_c, 0, 77, 64
2, 57446, Note_on_c, 0, 77, 0
2, 57450, Note_on_c, 0, 79, 64
2, 57465, Note_on_c, 0, 62, 0
2, 57476, Note_on_c, 0, 79, 0
2, 57480, Note_on_c, 0, 77, 64
2, 57480, Note_on_c, 0, 67, 64
2, 57506, Note_on_c, 0, 77, 0
2, 57510, Note_on_c, 0, 79, 64
2, 57525, Note_on_c, 0, 86, 0
2, 57532, Note_on_c, 0, 67, 0
2, 57536, Note_on_c, 0, 79, 0
2, 57540, Note_on_c, 0, 82, 64
2, 57540, Note_on_c, 0, 77, 64
2, 57540, Note_on_c, 0, 65, 64
2, 57566, Note_on_c, 0, 77, 0
2, 57570, Note_on_c, 0, 79, 64
2, 57596, Note_on_c, 0, 79, 0
2, 57600, Note_on_c, 0, 77, 64
2, 57626, Note_on_c, 0, 77, 0
2, 57630, Note_on_c, 0, 79, 64
2, 57645, Note_on_c, 0, 65, 0
2, 57656, Note_on_c, 0, 79, 0
2, 57660, Note_on_c, 0, 77, 64
2, 57660, Note_on_c, 0, 62, 64
2, 57686, Note_on_c, 0, 77, 0
2, 57690, Note_on_c, 0, 79, 64
2, 57705, Note_on_c, 0, 58, 0
2, 57705, Note_on_c, 0, 82, 0
2, 57712, Note_on_c, 0, 62, 0
2, 57716, Note_on_c, 0, 79, 0
2, 57720, Note_on_c, 0, 81, 64
2, 57720, Note_on_c, 0, 77, 64
2, 57720, Note_on_c, 0, 60, 64
2, 57720, Note_on_c, 0, 53, 64
2, 57746, Note_on_c, 0, 77, 0
2, 57750, Note_on_c, 0, 79, 64
2, 57776, Note_on_c, 0, 79, 0
2, 57780, Note_on_c, 0, 77, 64
2, 57806, Note_on_c, 0, 77, 0
2, 57810, Note_on_c, 0, 79, 64
2, 57825, Note_on_c, 0, 60, 0
2, 57836, Note_on_c, 0, 79, 0
2, 57840, Note_on_c, 0, 77, 64
2, 57840, Note_on_c, 0, 67, 64
2, 57866, Note_on_c, 0, 77, 0
2, 57870, Note_on_c, 0, 79, 64
2, 57885, Note_on_c, 0, 81, 0
2, 57892, Note_on_c, 0, 67, 0
2, 57896, Note_on_c, 0, 79, 0
2, 57900, Note_on_c, 0, 87, 64
2, 57900, Note_on_c, 0, 77, 64
2, 57900, Note_on_c, 0, 65, 64
2, 57926, Note_on_c, 0, 77, 0
2, 57930, Note_on_c, 0, 79, 64
2, 57956, Note_on_c, 0, 79, 0
2, 57960, Note_on_c, 0, 77, 64
2, 57986, Note_on_c, 0, 77, 0
2, 57990, Note_on_c, 0, 79, 64
2, 58005, Note_on_c, 0, 65, 0
2, 58016, Note_on_c, 0, 79, 0
2, 58020, Note_on_c, 0, 77, 64
2, 58020, Note_on_c, 0, 60, 64
2, 58046, Note_on_c, 0, 77, 0
2, 58050, Note_on_c, 0, 79, 64
2, 58065, Note_on_c, 0, 53, 0
2, 58065, Note_on_c, 0, 87, 0
2, 58072, Note_on_c, 0, 60, 0
2, 58076, Note_on_c, 0, 79, 0
2, 58080, Note_on_c, 0, 86, 64
2, 58080, Note_on_c, 0, 77, 64
2, 58080, Note_on_c, 0, 62, 64
2, 58080, Note_on_c, 0, 58, 64
2, 58106, Note_on_c, 0, 77, 0
2, 58110, Note_on_c, 0, 79, 64
2, 58136, Note_on_c, 0, 79, 0
2, 58140, Note_on_c, 0, 77, 64
2, 58166, Note_on_c, 0, 77, 0
2, 58170, Note_on_c, 0, 79, 64
2, 58185, Note_on_c, 0, 62, 0
2, 58196, Note_on_c, 0, 79, 0
2, 58200, Note_on_c, 0, 77, 64
2, 58200, Note_on_c, 0, 67, 64
2, 58226, Note_on_c, 0, 77, 0
2, 58230, Note_on_c, 0, 79, 64
2, 58245, Note_on_c, 0, 86, 0
2, 58252, Note_on_c, 0, 67, 0
2, 58256, Note_on_c, 0, 79, 0
2, 58260, Note_on_c, 0, 82, 64
2, 58260, Note_on_c, 0, 77, 64
2, 58260, Note_on_c, 0, 65, 64
2, 58286, Note_on_c, 0, 77, 0
2, 58290, Note_on_c, 0, 79, 64
2, 58316, Note_on_c, 0, 79, 0
2, 58320, Note_on_c, 0, 77, 64
2, 58346, Note_on_c, 0, 77, 0
2, 58350, Note_on_c, 0, 79, 64
2, 58365, Note_on_c, 0, 65, 0
2, 58376, Note_on_c, 0, 79, 0
2, 58380, Note_on_c, 0, 77, 64
2, 58380, Note_on_c, 0, 62, 64
2, 58406, Note_on_c, 0, 77, 0
2, 58410, Note_on_c, 0, 79, 64
2, 58425, Note_on_c, 0, 58, 0
2, 58425, Note_on_c, 0, 82, 0
2, 58432, Note_on_c, 0, 62, 0
2, 58436, Note_on_c, 0, 79, 0
2, 58440, Note_on_c, 0, 81, 64
2, 58440, Note_on_c, 0, 77, 64
2, 58440, Note_on_c, 0, 60, 64
2, 58440, Note_on_c, 0, 53, 64
2, 58466, Note_on_c, 0, 77, 0
2, 58470, Note_on_c, 0, 79, 64
2, 58496, Note_on_c, 0, 79, 0
2, 58500, Note_on_c, 0, 77, 64
2, 58526, Note_on_c, 0, 77, 0
2, 58530, Note_on_c, 0, 79, 64
2, 58545, Note_on_c, 0, 60, 0
2, 58556, Note_on_c, 0, 79, 0
2, 58560, Note_on_c, 0, 77, 64
2, 58560, Note_on_c, 0, 67, 64
2, 58586, Note_on_c, 0, 77, 0
2, 58590, Note_on_c, 0, 79, 64
2, 58605, Note_on_c, 0, 81, 0
2, 58612, Note_on_c, 0, 67, 0
2, 58616, Note_on_c, 0, 79, 0
2, 58620, Note_on_c, 0, 87, 64
2, 58620, Note_on_c, 0, 77, 64
2, 58620, Note_on_c, 0, 65, 64
2, 58646, Note_on_c, 0, 77, 0
2, 58650, Note_on_c, 0, 79, 64
2, 58676, Note_on_c, 0, 79, 0
2, 58680, Note_on_c, 0, 77, 64
2, 58706, Note_on_c, 0, 77, 0
2, 58710, Note_on_c, 0, 79, 64
2, 58725, Note_on_c, 0, 65, 0
2, 58736, Note_on_c, 0, 79, 0
2, 58740, Note_on_c, 0, 77, 64
2, 58740, Note_on_c, 0, 60, 64
2, 58766, Note_on_c, 0, 77, 0
2, 58770, Note_on_c, 0, 79, 64
2, 58785, Note_on_c, 0, 53, 0
2, 58785, Note_on_c, 0, 87, 0
2, 58792, Note_on_c, 0, 60, 0
2, 58796, Note_on_c, 0, 79, 0
2, 58800, Note_on_c, 0, 62, 64
2, 58800, Note_on_c, 0, 65, 64
2, 58826, Note_on_c, 0, 65, 0
2, 58826, Note_on_c, 0, 62, 0
2, 58830, Note_on_c, 0, 67, 64
2, 58856, Note_on_c, 0, 67, 0
2, 58860, Note_on_c, 0, 82, 64
2, 58860, Note_on_c, 0, 86, 64
2, 58860, Note_on_c, 0, 69, 64
2, 58886, Note_on_c, 0, 69, 0
2, 58890, Note_on_c, 0, 70, 64
2, 58912, Note_on_c, 0, 86, 0
2, 58912, Note_on_c, 0, 82, 0
2, 58916, Note_on_c, 0, 70, 0
2, 58920, Note_on_c, 0, 82, 64
2, 58920, Note_on_c, 0, 86, 64
2, 58920, Note_on_c, 0, 72, 64
2, 58937, Note_on_c, 0, 72, 0
2, 58939, Note_on_c, 0, 74, 64
2, 58957, Note_on_c, 0, 74, 0
2, 58959, Note_on_c, 0, 75, 64
2, 58972, Note_on_c, 0, 86, 0
2, 58972, Note_on_c, 0, 82, 0
2, 58977, Note_on_c, 0, 75, 0
2, 58980, Note_on_c, 0, 82, 64
2, 58980, Note_on_c, 0, 86, 64
2, 58980, Note_on_c, 0, 77, 64
2, 59006, Note_on_c, 0, 77, 0
2, 59010, Note_on_c, 0, 75, 64
2, 59032, Note_on_c, 0, 86, 0
2, 59032, Note_on_c, 0, 82, 0
2, 59036, Note_on_c, 0, 75, 0
2, 59040, Note_on_c, 0, 82, 64
2, 59040, Note_on_c, 0, 86, 64
2, 59040, Note_on_c, 0, 74, 64
2, 59066, Note_on_c, 0, 74, 0
2, 59070, Note_on_c, 0, 72, 64
2, 59092, Note_on_c, 0, 86, 0
2, 59092, Note_on_c, 0, 82, 0
2, 59096, Note_on_c, 0, 72, 0
2, 59100, Note_on_c, 0, 82, 64
2, 59100, Note_on_c, 0, 86, 64
2, 59100, Note_on_c, 0, 70, 64
2, 59126, Note_on_c, 0, 70, 0
2, 59130, Note_on_c, 0, 69, 64
2, 59152, Note_on_c, 0, 86, 0
2, 59152, Note_on_c, 0, 82, 0
2, 59156, Note_on_c, 0, 69, 0
2, 59160, Note_on_c, 0, 63, 64
2, 59160, Note_on_c, 0, 67, 64
2, 59186, Note_on_c, 0, 67, 0
2, 59186, Note_on_c, 0, 63, 0
2, 59190, Note_on_c, 0, 69, 64
2, 59216, Note_on_c, 0, 69, 0
2, 59220, Note_on_c, 0, 82, 64
2, 59220, Note_on_c, 0, 84, 64
2, 59220, Note_on_c, 0, 70, 64
2, 59246, Note_on_c, 0, 70, 0
2, 59250, Note_on_c, 0, 72, 64
2, 59272, Note_on_c, 0, 84, 0
2, 59272, Note_on_c, 0, 82, 0
2, 59276, Note_on_c, 0, 72, 0
2, 59280, Note_on_c, 0, 82, 64
2, 59280, Note_on_c, 0, 84, 64
2, 59280, Note_on_c, 0, 74, 64
2, 59297, Note_on_c, 0, 74, 0
2, 59299, Note_on_c, 0, 75, 64
2, 59317, Note_on_c, 0, 75, 0
2, 59319, Note_on_c, 0, 77, 64
2, 59332, Note_on_c, 0, 84, 0
2, 59332, Note_on_c, 0, 82, 0
2, 59337, Note_on_c, 0, 77, 0
2, 59340, Note_on_c, 0, 82, 64
2, 59340, Note_on_c, 0, 84, 64
2, 59340, Note_on_c, 0, 79, 64
2, 59366, Note_on_c, 0, 79, 0
2, 59370, Note_on_c, 0, 77, 64
2, 59392, Note_on_c, 0, 84, 0
2, 59392, Note_on_c, 0, 82, 0
2, 59396, Note_on_c, 0, 77, 0
2, 59400, Note_on_c, 0, 82, 64
2, 59400, Note_on_c, 0, 84, 64
2, 59400, Note_on_c, 0, 75, 64
2, 59417, Note_on_c, 0, 75, 0
2, 59419, Note_on_c, 0, 74, 64
2, 59437, Note_on_c, 0, 74, 0
2, 59439, Note_on_c, 0, 72, 64
2, 59452, Note_on_c, 0, 84, 0
2, 59452, Note_on_c, 0, 82, 0
2, 59457, Note_on_c, 0, 72, 0
2, 59460, Note_on_c, 0, 82, 64
2, 59460, Note_on_c, 0, 84, 64
2, 59460, Note_on_c, 0, 70, 64
2, 59477, Note_on_c, 0, 70, 0
2, 59479, Note_on_c, 0, 69, 64
2, 59497, Note_on_c, 0, 69, 0
2, 59499, Note_on_c, 0, 67, 64
2, 59512, Note_on_c, 0, 84, 0
2, 59512, Note_on_c, 0, 82, 0
2, 59517, Note_on_c, 0, 67, 0
2, 59520, Note_on_c, 0, 65, 64
2, 59546, Note_on_c, 0, 65, 0
2, 59550, Note_on_c, 0, 53, 64
2, 59576, Note_on_c, 0, 53, 0
2, 59580, Note_on_c, 0, 82, 64
2, 59580, Note_on_c, 0, 86, 64
2, 59580, Note_on_c, 0, 58, 64
2, 59606, Note_on_c, 0, 58, 0
2, 59610, Note_on_c, 0, 62, 64
2, 59632, Note_on_c, 0, 86, 0
2, 59632, Note_on_c, 0, 82, 0
2, 59636, Note_on_c, 0, 62, 0
2, 59640, Note_on_c, 0, 82, 64
2, 59640, Note_on_c, 0, 86, 64
2, 59640, Note_on_c, 0, 65, 64
2, 59666, Note_on_c, 0, 65, 0
2, 59670, Note_on_c, 0, 70, 64
2, 59692, Note_on_c, 0, 86, 0
2, 59692, Note_on_c, 0, 82, 0
2, 59696, Note_on_c, 0, 70, 0
2, 59700, Note_on_c, 0, 82, 64
2, 59700, Note_on_c, 0, 86, 64
2, 59700, Note_on_c, 0, 74, 64
2, 59726, Note_on_c, 0, 74, 0
2, 59730, Note_on_c, 0, 70, 64
2, 59752, Note_on_c, 0, 86, 0
2, 59752, Note_on_c, 0, 82, 0
2, 59756, Note_on_c, 0, 70, 0
2, 59760, Note_on_c, 0, 82, 64
2, 59760, Note_on_c, 0, 86, 64
2, 59760, Note_on_c, 0, 77, 64
2, 59786, Note_on_c, 0, 77, 0
2, 59790, Note_on_c, 0, 74, 64
2, 59812, Note_on_c, 0, 86, 0
2, 59812, Note_on_c, 0, 82, 0
2, 59816, Note_on_c, 0, 74, 0
2, 59820, Note_on_c, 0, 82, 64
2, 59820, Note_on_c, 0, 86, 64
2, 59820, Note_on_c, 0, 89, 64
2, 59820, Note_on_c, 0, 70, 64
2, 59846, Note_on_c, 0, 70, 0
2, 59850, Note_on_c, 0, 74, 64
2, 59872, Note_on_c, 0, 82, 0
2, 59872, Note_on_c, 0, 89, 0
2, 59872, Note_on_c, 0, 86, 0
2, 59876, Note_on_c, 0, 74, 0
2, 59880, Note_on_c, 0, 81, 64
2, 59880, Note_on_c, 0, 87, 64
2, 59880, Note_on_c, 0, 89, 64
2, 59880, Note_on_c, 0, 74, 64
2, 59880, Note_on_c, 0, 65, 64
2, 59893, Note_on_c, 0, 74, 0
2, 59895, Note_on_c, 0, 72, 64
2, 59908, Note_on_c, 0, 72, 0
2, 59910, Note_on_c, 0, 74, 64
2, 59923, Note_on_c, 0, 74, 0
2, 59925, Note_on_c, 0, 72, 64
2, 59932, Note_on_c, 0, 89, 0
2, 59932, Note_on_c, 0, 81, 0
2, 59932, Note_on_c, 0, 87, 0
2, 59938, Note_on_c, 0, 72, 0
2, 59940, Note_on_c, 0, 81, 64
2, 59940, Note_on_c, 0, 87, 64
2, 59940, Note_on_c, 0, 89, 64
2, 59940, Note_on_c, 0, 74, 64
2, 59953, Note_on_c, 0, 74, 0
2, 59955, Note_on_c, 0, 72, 64
2, 59958, Note_on_c, 0, 65, 0
2, 59968, Note_on_c, 0, 72, 0
2, 59970, Note_on_c, 0, 74, 64
2, 59983, Note_on_c, 0, 74, 0
2, 59985, Note_on_c, 0, 72, 64
2, 59992, Note_on_c, 0, 89, 0
2, 59992, Note_on_c, 0, 81, 0
2, 59992, Note_on_c, 0, 87, 0
2, 59998, Note_on_c, 0, 72, 0
2, 60000, Note_on_c, 0, 81, 64
2, 60000, Note_on_c, 0, 87, 64
2, 60000, Note_on_c, 0, 89, 64
2, 60000, Note_on_c, 0, 74, 64
2, 60013, Note_on_c, 0, 74, 0
2, 60015, Note_on_c, 0, 72, 64
2, 60028, Note_on_c, 0, 72, 0
2, 60030, Note_on_c, 0, 74, 64
2, 60043, Note_on_c, 0, 74, 0
2, 60045, Note_on_c, 0, 72, 64
2, 60052, Note_on_c, 0, 81, 0
2, 60052, Note_on_c, 0, 89, 0
2, 60052, Note_on_c, 0, 87, 0
2, 60058, Note_on_c, 0, 72, 0
2, 60060, Note_on_c, 0, 81, 64
2, 60060, Note_on_c, 0, 87, 64
2, 60060, Note_on_c, 0, 89, 64
2, 60060, Note_on_c, 0, 74, 64
2, 60073, Note_on_c, 0, 74, 0
2, 60075, Note_on_c, 0, 72, 64
2, 60088, Note_on_c, 0, 72, 0
2, 60090, Note_on_c, 0, 74, 64
2, 60103, Note_on_c, 0, 74, 0
2, 60105, Note_on_c, 0, 72, 64
2, 60112, Note_on_c, 0, 81, 0
2, 60112, Note_on_c, 0, 89, 0
2, 60112, Note_on_c, 0, 87, 0
2, 60118, Note_on_c, 0, 72, 0
2, 60120, Note_on_c, 0, 81, 64
2, 60120, Note_on_c, 0, 87, 64
2, 60120, Note_on_c, 0, 89, 64
2, 60120, Note_on_c, 0, 74, 64
2, 60133, Note_on_c, 0, 74, 0
2, 60135, Note_on_c, 0, 72, 64
2, 60148, Note_on_c, 0, 72, 0
2, 60150, Note_on_c, 0, 74, 64
2, 60163, Note_on_c, 0, 74, 0
2, 60165, Note_on_c, 0, 72, 64
2, 60172, Note_on_c, 0, 81, 0
2, 60172, Note_on_c, 0, 89, 0
2, 60172, Note_on_c, 0, 87, 0
2, 60178, Note_on_c, 0, 72, 0
2, 60180, Note_on_c, 0, 81, 64
2, 60180, Note_on_c, 0, 87, 64
2, 60180, Note_on_c, 0, 89, 64
2, 60180, Note_on_c, 0, 74, 64
2, 60193, Note_on_c, 0, 74, 0
2, 60195, Note_on_c, 0, 72, 64
2, 60208, Note_on_c, 0, 72, 0
2, 60210, Note_on_c, 0, 74, 64
2, 60223, Note_on_c, 0, 74, 0
2, 60225, Note_on_c, 0, 72, 64
2, 60232, Note_on_c, 0, 81, 0
2, 60232, Note_on_c, 0, 89, 0
2, 60232, Note_on_c, 0, 87, 0
2, 60238, Note_on_c, 0, 72, 0
2, 60240, Note_on_c, 0, 65, 64
2, 60266, Note_on_c, 0, 65, 0
2, 60270, Note_on_c, 0, 71, 64
2, 60296, Note_on_c, 0, 71, 0
2, 60300, Note_on_c, 0, 72, 64
2, 60326, Note_on_c, 0, 72, 0
2, 60330, Note_on_c, 0, 74, 64
2, 60356, Note_on_c, 0, 74, 0
2, 60360, Note_on_c, 0, 80, 64
2, 60360, Note_on_c, 0, 92, 64
2, 60360, Note_on_c, 0, 72, 64
2, 60386, Note_on_c, 0, 72, 0
2, 60390, Note_on_c, 0, 71, 64
2, 60416, Note_on_c, 0, 71, 0
2, 60420, Note_on_c, 0, 63, 64
2, 60446, Note_on_c, 0, 63, 0
2, 60450, Note_on_c, 0, 72, 64
2, 60476, Note_on_c, 0, 72, 0
2, 60480, Note_on_c, 0, 74, 64
2, 60506, Note_on_c, 0, 74, 0
2, 60510, Note_on_c, 0, 75, 64
2, 60536, Note_on_c, 0, 75, 0
2, 60540, Note_on_c, 0, 92, 0
2, 60540, Note_on_c, 0, 80, 0
2, 60540, Note_on_c, 0, 79, 64
2, 60540, Note_on_c, 0, 91, 64
2, 60540, Note_on_c, 0, 74, 64
2, 60566, Note_on_c, 0, 74, 0
2, 60570, Note_on_c, 0, 72, 64
2, 60592, Note_on_c, 0, 91, 0
2, 60592, Note_on_c, 0, 79, 0
2, 60596, Note_on_c, 0, 72, 0
2, 60600, Note_on_c, 0, 63, 64
2, 60626, Note_on_c, 0, 63, 0
2, 60630, Note_on_c, 0, 69, 64
2, 60656, Note_on_c, 0, 69, 0
2, 60660, Note_on_c, 0, 70, 64
2, 60686, Note_on_c, 0, 70, 0
2, 60690, Note_on_c, 0, 72, 64
2, 60716, Note_on_c, 0, 72, 0
2, 60720, Note_on_c, 0, 78, 64
2, 60720, Note_on_c, 0, 90, 64
2, 60720, Note_on_c, 0, 70, 64
2, 60746, Note_on_c, 0, 70, 0
2, 60750, Note_on_c, 0, 69, 64
2, 60776, Note_on_c, 0, 69, 0
2, 60780, Note_on_c, 0, 62, 64
2, 60806, Note_on_c, 0, 62, 0
2, 60810, Note_on_c, 0, 70, 64
2, 60836, Note_on_c, 0, 70, 0
2, 60840, Note_on_c, 0, 72, 64
2, 60866, Note_on_c, 0, 72, 0
2, 60870, Note_on_c, 0, 74, 64
2, 60896, Note_on_c, 0, 74, 0
2, 60900, Note_on_c, 0, 90, 0
2, 60900, Note_on_c, 0, 78, 0
2, 60900, Note_on_c, 0, 77, 64
2, 60900, Note_on_c, 0, 89, 64
2, 60900, Note_on_c, 0, 72, 64
2, 60926, Note_on_c, 0, 72, 0
2, 60930, Note_on_c, 0, 70, 64
2, 60952, Note_on_c, 0, 89, 0
2, 60952, Note_on_c, 0, 77, 0
2, 60956, Note_on_c, 0, 70, 0
2, 60960, Note_on_c, 0, 53, 64
2, 60986, Note_on_c, 0, 53, 0
2, 60990, Note_on_c, 0, 59, 64
2, 61016, Note_on_c, 0, 59, 0
2, 61020, Note_on_c, 0, 60, 64
2, 61046, Note_on_c, 0, 60, 0
2, 61050, Note_on_c, 0, 62, 64
2, 61076, Note_on_c, 0, 62, 0
2, 61080, Note_on_c, 0, 68, 64
2, 61080, Note_on_c, 0, 80, 64
2, 61080, Note_on_c, 0, 60, 64
2, 61106, Note_on_c, 0, 60, 0
2, 61110, Note_on_c, 0, 59, 64
2, 61136, Note_on_c, 0, 59, 0
2, 61140, Note_on_c, 0, 51, 64
2, 61166, Note_on_c, 0, 51, 0
2, 61170, Note_on_c, 0, 60, 64
2, 61196, Note_on_c, 0, 60, 0
2, 61200, Note_on_c, 0, 62, 64
2, 61226, Note_on_c, 0, 62, 0
2, 61230, Note_on_c, 0, 63, 64
2, 61256, Note_on_c, 0, 63, 0
2, 61260, Note_on_c, 0, 80, 0
2, 61260, Note_on_c, 0, 68, 0
2, 61260, Note_on_c, 0, 67, 64
2, 61260, Note_on_c, 0, 79, 64
2, 61260, Note_on_c, 0, 62, 64
2, 61286, Note_on_c, 0, 62, 0
2, 61290, Note_on_c, 0, 60, 64
2, 61312, Note_on_c, 0, 79, 0
2, 61312, Note_on_c, 0, 67, 0
2, 61316, Note_on_c, 0, 60, 0
2, 61320, Note_on_c, 0, 51, 64
2, 61346, Note_on_c, 0, 51, 0
2, 61350, Note_on_c, 0, 57, 64
2, 61376, Note_on_c, 0, 57, 0
2, 61380, Note_on_c, 0, 58, 64
2, 61406, Note_on_c, 0, 58, 0
2, 61410, Note_on_c, 0, 60, 64
2, 61436, Note_on_c, 0, 60, 0
2, 61440, Note_on_c, 0, 66, 64
2, 61440, Note_on_c, 0, 78, 64
2, 61440, Note_on_c, 0, 58, 64
2, 61466, Note_on_c, 0, 58, 0
2, 61470, Note_on_c, 0, 57, 64
2, 61496, Note_on_c, 0, 57, 0
2, 61500, Note_on_c, 0, 50, 64
2, 61526, Note_on_c, 0, 50, 0
2, 61530, Note_on_c, 0, 58, 64
2, 61556, Note_on_c, 0, 58, 0
2, 61560, Note_on_c, 0, 60, 64
2, 61586, Note_on_c, 0, 60, 0
2, 61590, Note_on_c, 0, 62, 64
2, 61616, Note_on_c, 0, 62, 0
2, 61620, Note_on_c, 0, 78, 0
2, 61620, Note_on_c, 0, 66, 0
2, 61620, Note_on_c, 0, 65, 64
2, 61620, Note_on_c, 0, 77, 64
2, 61620, Note_on_c, 0, 60, 64
2, 61646, Note_on_c, 0, 60, 0
2, 61650, Note_on_c, 0, 58, 64
2, 61672, Note_on_c, 0, 77, 0
2, 61672, Note_on_c, 0, 65, 0
2, 61676, Note_on_c, 0, 58, 0
2, 61680, Note_on_c, 0, 50, 64
2, 61706, Note_on_c, 0, 50, 0
2, 61710, Note_on_c, 0, 53, 64
2, 61736, Note_on_c, 0, 53, 0
2, 61740, Note_on_c, 0, 65, 64
2, 61740, Note_on_c, 0, 70, 64
2, 61740, Note_on_c, 0, 77, 64
2, 61740, Note_on_c, 0, 58, 64
2, 61766, Note_on_c, 0, 58, 0
2, 61766, Note_on_c, 0, 65, 0
2, 61766, Note_on_c, 0, 70, 0
2, 61766, Note_on_c, 0, 77, 0
2, 61770, Note_on_c, 0, 62, 64
2, 61796, Note_on_c, 0, 62, 0
2, 61800, Note_on_c, 0, 65, 64
2, 61800, Note_on_c, 0, 70, 64
2, 61800, Note_on_c, 0, 77, 64
2, 61800, Note_on_c, 0, 58, 64
2, 61826, Note_on_c, 0, 58, 0
2, 61826, Note_on_c, 0, 65, 0
2, 61826, Note_on_c, 0, 70, 0
2, 61826, Note_on_c, 0, 77, 0
2, 61830, Note_on_c, 0, 53, 64
2, 61856, Note_on_c, 0, 53, 0
2, 61860, Note_on_c, 0, 43, 64
2, 61886, Note_on_c, 0, 43, 0
2, 61890, Note_on_c, 0, 46, 64
2, 61916, Note_on_c, 0, 46, 0
2, 61920, Note_on_c, 0, 67, 64
2, 61920, Note_on_c, 0, 70, 64
2, 61920, Note_on_c, 0, 75, 64
2, 61920, Note_on_c, 0, 50, 64
2, 61946, Note_on_c, 0, 50, 0
2, 61946, Note_on_c, 0, 67, 0
2, 61946, Note_on_c, 0, 70, 0
2, 61946, Note_on_c, 0, 75, 0
2, 61950, Note_on_c, 0, 55, 64
2, 61976, Note_on_c, 0, 55, 0
2, 61980, Note_on_c, 0, 67, 64
2, 61980, Note_on_c, 0, 70, 64
2, 61980, Note_on_c, 0, 74, 64
2, 61980, Note_on_c, 0, 50, 64
2, 62006, Note_on_c, 0, 50, 0
2, 62006, Note_on_c, 0, 67, 0
2, 62006, Note_on_c, 0, 70, 0
2, 62006, Note_on_c, 0, 74, 0
2, 62010, Note_on_c, 0, 46, 64
2, 62036, Note_on_c, 0, 46, 0
2, 62040, Note_on_c, 0, 39, 64
2, 62066, Note_on_c, 0, 39, 0
2, 62070, Note_on_c, 0, 43, 64
2, 62096, Note_on_c, 0, 43, 0
2, 62100, Note_on_c, 0, 63, 64
2, 62100, Note_on_c, 0, 67, 64
2, 62100, Note_on_c, 0, 74, 64
2, 62100, Note_on_c, 0, 48, 64
2, 62126, Note_on_c, 0, 48, 0
2, 62126, Note_on_c, 0, 63, 0
2, 62126, Note_on_c, 0, 67, 0
2, 62126, Note_on_c, 0, 74, 0
2, 62130, Note_on_c, 0, 51, 64
2, 62156, Note_on_c, 0, 51, 0
2, 62160, Note_on_c, 0, 63, 64
2, 62160, Note_on_c, 0, 67, 64
2, 62160, Note_on_c, 0, 72, 64
2, 62160, Note_on_c, 0, 48, 64
2, 62186, Note_on_c, 0, 48, 0
2, 62186, Note_on_c, 0, 63, 0
2, 62186, Note_on_c, 0, 67, 0
2, 62186, Note_on_c, 0, 72, 0
2, 62190, Note_on_c, 0, 43, 64
2, 62216, Note_on_c, 0, 43, 0
2, 62220, Note_on_c, 0, 41, 64
2, 62246, Note_on_c, 0, 41, 0
2, 62250, Note_on_c, 0, 48, 64
2, 62276, Note_on_c, 0, 48, 0
2, 62280, Note_on_c, 0, 60, 64
2, 62280, Note_on_c, 0, 63, 64
2, 62280, Note_on_c, 0, 70, 64
2, 62280, Note_on_c, 0, 51, 64
2, 62306, Note_on_c, 0, 51, 0
2, 62306, Note_on_c, 0, 60, 0
2, 62306, Note_on_c, 0, 63, 0
2, 62306, Note_on_c, 0, 70, 0
2, 62310, Note_on_c, 0, 53, 64
2, 62336, Note_on_c, 0, 53, 0
2, 62340, Note_on_c, 0, 60, 64
2, 62340, Note_on_c, 0, 63, 64
2, 62340, Note_on_c, 0, 69, 64
2, 62340, Note_on_c, 0, 51, 64
2, 62366, Note_on_c, 0, 51, 0
2, 62366, Note_on_c, 0, 60, 0
2, 62366, Note_on_c, 0, 63, 0
2, 62366, Note_on_c, 0, 69, 0
2, 62370, Note_on_c, 0, 48, 64
2, 62396, Note_on_c, 0, 48, 0
2, 62400, Note_on_c, 0, 38, 64
2, 62426, Note_on_c, 0, 38, 0
2, 62430, Note_on_c, 0, 41, 64
2, 62456, Note_on_c, 0, 41, 0
2, 62460, Note_on_c, 0, 58, 64
2, 62460, Note_on_c, 0, 65, 64
2, 62460, Note_on_c, 0, 70, 64
2, 62460, Note_on_c, 0, 46, 64
2, 62486, Note_on_c, 0, 46, 0
2, 62486, Note_on_c, 0, 58, 0
2, 62486, Note_on_c, 0, 65, 0
2, 62486, Note_on_c, 0, 70, 0
2, 62490, Note_on_c, 0, 50, 64
2, 62516, Note_on_c, 0, 50, 0
2, 62520, Note_on_c, 0, 58, 64
2, 62520, Note_on_c, 0, 62, 64
2, 62520, Note_on_c, 0, 65, 64
2, 62520, Note_on_c, 0, 46, 64
2, 62546, Note_on_c, 0, 46, 0
2, 62546, Note_on_c, 0, 58, 0
2, 62546, Note_on_c, 0, 62, 0
2, 62546, Note_on_c, 0, 65, 0
2, 62550, Note_on_c, 0, 41, 64
2, 62576, Note_on_c, 0, 41, 0
2, 62580, Note_on_c, 0, 31, 64
2, 62606, Note_on_c, 0, 31, 0
2, 62610, Note_on_c, 0, 34, 64
2, 62636, Note_on_c, 0, 34, 0
2, 62640, Note_on_c, 0, 55, 64
2, 62640, Note_on_c, 0, 58, 64
2, 62640, Note_on_c, 0, 63, 64
2, 62640, Note_on_c, 0, 38, 64
2, 62666, Note_on_c, 0, 38, 0
2, 62666, Note_on_c, 0, 55, 0
2, 62666, Note_on_c, 0, 58, 0
2, 62666, Note_on_c, 0, 63, 0
2, 62670, Note_on_c, 0, 43, 64
2, 62696, Note_on_c, 0, 43, 0
2, 62700, Note_on_c, 0, 55, 64
2, 62700, Note_on_c, 0, 58, 64
2, 62700, Note_on_c, 0, 62, 64
2, 62700, Note_on_c, 0, 38, 64
2, 62726, Note_on_c, 0, 38, 0
2, 62726, Note_on_c, 0, 55, 0
2, 62726, Note_on_c, 0, 58, 0
2, 62726, Note_on_c, 0, 62, 0
2, 62730, Note_on_c, 0, 34, 64
2, 62756, Note_on_c, 0, 34, 0
2, 62760, Note_on_c, 0, 39, 64
2, 62786, Note_on_c, 0, 39, 0
2, 62790, Note_on_c, 0, 43, 64
2, 62816, Note_on_c, 0, 43, 0
2, 62820, Note_on_c, 0, 51, 64
2, 62820, Note_on_c, 0, 55, 64
2, 62820, Note_on_c, 0, 62, 64
2, 62820, Note_on_c, 0, 48, 64
2, 62846, Note_on_c, 0, 48, 0
2, 62846, Note_on_c, 0, 51, 0
2, 62846, Note_on_c, 0, 55, 0
2, 62846, Note_on_c, 0, 62, 0
2, 62850, Note_on_c, 0, 43, 64
2, 62876, Note_on_c, 0, 43, 0
2, 62880, Note_on_c, 0, 51, 64
2, 62880, Note_on_c, 0, 55, 64
2, 62880, Note_on_c, 0, 60, 64
2, 62880, Note_on_c, 0, 39, 64
2, 62906, Note_on_c, 0, 60, 0
2, 62906, Note_on_c, 0, 51, 0
2, 62906, Note_on_c, 0, 55, 0
2, 62932, Note_on_c, 0, 39, 0
2, 62940, Note_on_c, 0, 29, 64
2, 62966, Note_on_c, 0, 29, 0
2, 62970, Note_on_c, 0, 36, 64
2, 62996, Note_on_c, 0, 36, 0
2, 63000, Note_on_c, 0, 48, 64
2, 63000, Note_on_c, 0, 51, 64
2, 63000, Note_on_c, 0, 58, 64
2, 63000, Note_on_c, 0, 39, 64
2, 63026, Note_on_c, 0, 39, 0
2, 63026, Note_on_c, 0, 48, 0
2, 63026, Note_on_c, 0, 51, 0
2, 63026, Note_on_c, 0, 58, 0
2, 63030, Note_on_c, 0, 41, 64
2, 63056, Note_on_c, 0, 41, 0
2, 63060, Note_on_c, 0, 48, 64
2, 63060, Note_on_c, 0, 51, 64
2, 63060, Note_on_c, 0, 57, 64
2, 63060, Note_on_c, 0, 29, 64
2, 63086, Note_on_c, 0, 29, 0
2, 63086, Note_on_c, 0, 48, 0
2, 63086, Note_on_c, 0, 51, 0
2, 63086, Note_on_c, 0, 57, 0
2, 63090, Note_on_c, 0, 41, 64
2, 63116, Note_on_c, 0, 41, 0
2, 63120, Note_on_c, 0, 46, 64
2, 63120, Note_on_c, 0, 34, 64
2, 63146, Note_on_c, 0, 46, 0
2, 63150, Note_on_c, 0, 48, 64
2, 63172, Note_on_c, 0, 34, 0
2, 63176, Note_on_c, 0, 48, 0
2, 63180, Note_on_c, 0, 50, 64
2, 63180, Note_on_c, 0, 46, 64
2, 63206, Note_on_c, 0, 50, 0
2, 63210, Note_on_c, 0, 51, 64
2, 63232, Note_on_c, 0, 46, 0
2, 63236, Note_on_c, 0, 51, 0
2, 63240, Note_on_c, 0, 53, 64
2, 63240, Note_on_c, 0, 46, 64
2, 63240, Note_on_c, 0, 50, 64
2, 63257, Note_on_c, 0, 53, 0
2, 63259, Note_on_c, 0, 55, 64
2, 63277, Note_on_c, 0, 55, 0
2, 63279, Note_on_c, 0, 57, 64
2, 63292, Note_on_c, 0, 50, 0
2, 63292, Note_on_c, 0, 46, 0
2, 63297, Note_on_c, 0, 57, 0
2, 63300, Note_on_c, 0, 58, 64
2, 63300, Note_on_c, 0, 46, 64
2, 63300, Note_on_c, 0, 50, 64
2, 63300, Note_on_c, 0, 53, 64
2, 63317, Note_on_c, 0, 58, 0
2, 63319, Note_on_c, 0, 60, 64
2, 63337, Note_on_c, 0, 60, 0
2, 63339, Note_on_c, 0, 62, 64
2, 63357, Note_on_c, 0, 62, 0
2, 63360, Note_on_c, 0, 63, 64
2, 63377, Note_on_c, 0, 63, 0
2, 63379, Note_on_c, 0, 65, 64
2, 63397, Note_on_c, 0, 65, 0
2, 63399, Note_on_c, 0, 67, 64
2, 63405, Note_on_c, 0, 46, 0
2, 63405, Note_on_c, 0, 53, 0
2, 63405, Note_on_c, 0, 50, 0
2, 63417, Note_on_c, 0, 67, 0
2, 63420, Note_on_c, 0, 69, 64
2, 63420, Note_on_c, 0, 41, 64
2, 63420, Note_on_c, 0, 48, 64
2, 63420, Note_on_c, 0, 53, 64
2, 63446, Note_on_c, 0, 69, 0
2, 63450, Note_on_c, 0, 57, 64
2, 63472, Note_on_c, 0, 41, 0
2, 63472, Note_on_c, 0, 53, 0
2, 63472, Note_on_c, 0, 48, 0
2, 63476, Note_on_c, 0, 57, 0
2, 63480, Note_on_c, 0, 58, 64
2, 63480, Note_on_c, 0, 46, 64
2, 63480, Note_on_c, 0, 50, 64
2, 63480, Note_on_c, 0, 53, 64
2, 63506, Note_on_c, 0, 58, 0
2, 63510, Note_on_c, 0, 60, 64
2, 63532, Note_on_c, 0, 46, 0
2, 63532, Note_on_c, 0, 53, 0
2, 63532, Note_on_c, 0, 50, 0
2, 63536, Note_on_c, 0, 60, 0
2, 63540, Note_on_c, 0, 62, 64
2, 63540, Note_on_c, 0, 46, 64
2, 63540, Note_on_c, 0, 50, 64
2, 63540, Note_on_c, 0, 53, 64
2, 63566, Note_on_c, 0, 62, 0
2, 63570, Note_on_c, 0, 63, 64
2, 63592, Note_on_c, 0, 46, 0
2, 63592, Note_on_c, 0, 53, 0
2, 63592, Note_on_c, 0, 50, 0
2, 63596, Note_on_c, 0, 63, 0
2, 63600, Note_on_c, 0, 65, 64
2, 63600, Note_on_c, 0, 46, 64
2, 63600, Note_on_c, 0, 50, 64
2, 63600, Note_on_c, 0, 53, 64
2, 63617, Note_on_c, 0, 65, 0
2, 63619, Note_on_c, 0, 67, 64
2, 63637, Note_on_c, 0, 67, 0
2, 63639, Note_on_c, 0, 69, 64
2, 63652, Note_on_c, 0, 53, 0
2, 63652, Note_on_c, 0, 46, 0
2, 63652, Note_on_c, 0, 50, 0
2, 63657, Note_on_c, 0, 69, 0
2, 63660, Note_on_c, 0, 70, 64
2, 63660, Note_on_c, 0, 46, 64
2, 63660, Note_on_c, 0, 50, 64
2, 63660, Note_on_c, 0, 53, 64
2, 63677, Note_on_c, 0, 70, 0
2, 63679, Note_on_c, 0, 72, 64
2, 63697, Note_on_c, 0, 72, 0
2, 63699, Note_on_c, 0, 74, 64
2, 63717, Note_on_c, 0, 74, 0
2, 63720, Note_on_c, 0, 75, 64
2, 63737, Note_on_c, 0, 75, 0
2, 63739, Note_on_c, 0, 77, 64
2, 63757, Note_on_c, 0, 77, 0
2, 63759, Note_on_c, 0, 79, 64
2, 63765, Note_on_c, 0, 46, 0
2, 63765, Note_on_c, 0, 53, 0
2, 63765, Note_on_c, 0, 50, 0
2, 63777, Note_on_c, 0, 79, 0
2, 63780, Note_on_c, 0, 81, 64
2, 63780, Note_on_c, 0, 41, 64
2, 63780, Note_on_c, 0, 48, 64
2, 63780, Note_on_c, 0, 53, 64
2, 63806, Note_on_c, 0, 81, 0
2, 63810, Note_on_c, 0, 69, 64
2, 63832, Note_on_c, 0, 41, 0
2, 63832, Note_on_c, 0, 53, 0
2, 63832, Note_on_c, 0, 48, 0
2, 63836, Note_on_c, 0, 69, 0
2, 63840, Note_on_c, 0, 70, 64
2, 63840, Note_on_c, 0, 46, 64
2, 63840, Note_on_c, 0, 50, 64
2, 63840, Note_on_c, 0, 53, 64
2, 63866, Note_on_c, 0, 70, 0
2, 63870, Note_on_c, 0, 72, 64
2, 63892, Note_on_c, 0, 46, 0
2, 63892, Note_on_c, 0, 53, 0
2, 63892, Note_on_c, 0, 50, 0
2, 63896, Note_on_c, 0, 72, 0
2, 63900, Note_on_c, 0, 74, 64
2, 63900, Note_on_c, 0, 46, 64
2, 63900, Note_on_c, 0, 50, 64
2, 63900, Note_on_c, 0, 53, 64
2, 63926, Note_on_c, 0, 74, 0
2, 63930, Note_on_c, 0, 75, 64
2, 63952, Note_on_c, 0, 46, 0
2, 63952, Note_on_c, 0, 53, 0
2, 63952, Note_on_c, 0, 50, 0
2, 63956, Note_on_c, 0, 75, 0
2, 63960, Note_on_c, 0, 77, 64
2, 63960, Note_on_c, 0, 46, 64
2, 63960, Note_on_c, 0, 50, 64
2, 63960, Note_on_c, 0, 53, 64
2, 63977, Note_on_c, 0, 77, 0
2, 63979, Note_on_c, 0, 79, 64
2, 63997, Note_on_c, 0, 79, 0
2, 63999, Note_on_c, 0, 81, 64
2, 64012, Note_on_c, 0, 53, 0
2, 64012, Note_on_c, 0, 46, 0
2, 64012, Note_on_c, 0, 50, 0
2, 64017, Note_on_c, 0, 81, 0
2, 64020, Note_on_c, 0, 82, 64
2, 64020, Note_on_c, 0, 46, 64
2, 64020, Note_on_c, 0, 50, 64
2, 64020, Note_on_c, 0, 53, 64
2, 64037, Note_on_c, 0, 82, 0
2, 64039, Note_on_c, 0, 84, 64
2, 64057, Note_on_c, 0, 84, 0
2, 64059, Note_on_c, 0, 86, 64
2, 64077, Note_on_c, 0, 86, 0
2, 64080, Note_on_c, 0, 87, 64
2, 64097, Note_on_c, 0, 87, 0
2, 64099, Note_on_c, 0, 89, 64
2, 64117, Note_on_c, 0, 89, 0
2, 64119, Note_on_c, 0, 91, 64
2, 64125, Note_on_c, 0, 46, 0
2, 64125, Note_on_c, 0, 53, 0
2, 64125, Note_on_c, 0, 50, 0
2, 64137, Note_on_c, 0, 91, 0
2, 64140, Note_on_c, 0, 93, 64
2, 64140, Note_on_c, 0, 41, 64
2, 64140, Note_on_c, 0, 48, 64
2, 64140, Note_on_c, 0, 53, 64
2, 64166, Note_on_c, 0, 93, 0
2, 64170, Note_on_c, 0, 81, 64
2, 64192, Note_on_c, 0, 41, 0
2, 64192, Note_on_c, 0, 53, 0
2, 64192, Note_on_c, 0, 48, 0
2, 64196, Note_on_c, 0, 81, 0
2, 64200, Note_on_c, 0, 82, 64
2, 64200, Note_on_c, 0, 94, 64
2, 64200, Note_on_c, 0, 46, 64
2, 64200, Note_on_c, 0, 50, 64
2, 64200, Note_on_c, 0, 53, 64
2, 64200, Note_on_c, 0, 58, 64
2, 64305, Note_on_c, 0, 58, 0
2, 64305, Note_on_c, 0, 94, 0
2, 64305, Note_on_c, 0, 46, 0
2, 64305, Note_on_c, 0, 82, 0
2, 64305, Note_on_c, 0, 53, 0
2, 64305, Note_on_c, 0, 50, 0
2, 64380, Note_on_c, 0, 74, 64
2, 64380, Note_on_c, 0, 77, 64
2, 64380, Note_on_c, 0, 82, 64
2, 64380, Note_on_c, 0, 46, 64
2, 64380, Note_on_c, 0, 50, 64
2, 64380, Note_on_c, 0, 53, 64
2, 64380, Note_on_c, 0, 58, 64
2, 64485, Note_on_c, 0, 58, 0
2, 64485, Note_on_c, 0, 50, 0
2, 64485, Note_on_c, 0, 77, 0
2, 64485, Note_on_c, 0, 82, 0
2, 64485, Note_on_c, 0, 74, 0
2, 64485, Note_on_c, 0, 53, 0
2, 64485, Note_on_c, 0, 46, 0
2, 64560, Note_on_c, 0, 62, 64
2, 64560, Note_on_c, 0, 65, 64
2, 64560, Note_on_c, 0, 70, 64
2, 64560, Note_on_c, 0, 46, 64
2, 64560, Note_on_c, 0, 50, 64
2, 64560, Note_on_c, 0, 53, 64
2, 64560, Note_on_c, 0, 58, 64
2, 64665, Note_on_c, 0, 58, 0
2, 64665, Note_on_c, 0, 50, 0
2, 64665, Note_on_c, 0, 65, 0
2, 64665, Note_on_c, 0, 70, 0
2, 64665, Note_on_c, 0, 62, 0
2, 64665, Note_on_c, 0, 53, 0
2, 64665, Note_on_c, 0, 46, 0
2, 64860, Note_on_c, 0, 70, 64
2, 64912, Note_on_c, 0, 70, 0
2, 64920, Note_on_c, 0, 70, 64
2, 64972, Note_on_c, 0, 70, 0
2, 64980, Note_on_c, 0, 66, 64
2, 65032, Note_on_c, 0, 66, 0
2, 65040, Note_on_c, 0, 63, 64
2, 65092, Note_on_c, 0, 63, 0
2, 65100, Note_on_c, 0, 58, 64
2, 65152, Note_on_c, 0, 58, 0
2, 65160, Note_on_c, 0, 54, 64
2, 65212, Note_on_c, 0, 54, 0
2, 65220, Note_on_c, 0, 51, 64
2, 65272, Note_on_c, 0, 51, 0
2, 65280, Note_on_c, 0, 46, 64
2, 65332, Note_on_c, 0, 46, 0
2, 65340, Note_on_c, 0, 42, 64
2, 65392, Note_on_c, 0, 42, 0
2, 65400, Note_on_c, 0, 39, 64
2, 65452, Note_on_c, 0, 39, 0
2, 65580, Note_on_c, 0, 70, 64
2, 65580, Note_on_c, 0, 82, 64
2, 65632, Note_on_c, 0, 82, 0
2, 65632, Note_on_c, 0, 70, 0
2, 65640, Note_on_c, 0, 70, 64
2, 65640, Note_on_c, 0, 82, 64
2, 65700, Note_on_c, 0, 63, 64
2, 65700, Note_on_c, 0, 66, 64
2, 65752, Note_on_c, 0, 66, 0
2, 65752, Note_on_c, 0, 63, 0
2, 65760, Note_on_c, 0, 63, 64
2, 65760, Note_on_c, 0, 66, 64
2, 65805, Note_on_c, 0, 82, 0
2, 65805, Note_on_c, 0, 70, 0
2, 65812, Note_on_c, 0, 63, 0
2, 65812, Note_on_c, 0, 66, 0
2, 65820, Note_on_c, 0, 71, 64
2, 65820, Note_on_c, 0, 83, 64
2, 65820, Note_on_c, 0, 63, 64
2, 65820, Note_on_c, 0, 66, 64
2, 65872, Note_on_c, 0, 66, 0
2, 65872, Note_on_c, 0, 63, 0
2, 65880, Note_on_c, 0, 63, 64
2, 65880, Note_on_c, 0, 66, 64
2, 65932, Note_on_c, 0, 66, 0
2, 65932, Note_on_c, 0, 63, 0
2, 65940, Note_on_c, 0, 63, 64
2, 65940, Note_on_c, 0, 66, 64
2, 65985, Note_on_c, 0, 83, 0
2, 65985, Note_on_c, 0, 71, 0
2, 65992, Note_on_c, 0, 63, 0
2, 65992, Note_on_c, 0, 66, 0
2, 66000, Note_on_c, 0, 72, 64
2, 66000, Note_on_c, 0, 84, 64
2, 66000, Note_on_c, 0, 63, 64
2, 66000, Note_on_c, 0, 66, 64
2, 66000, Note_on_c, 0, 68, 64
2, 66052, Note_on_c, 0, 68, 0
2, 66052, Note_on_c, 0, 63, 0
2, 66052, Note_on_c, 0, 66, 0
2, 66060, Note_on_c, 0, 63, 64
2, 66060, Note_on_c, 0, 66, 64
2, 66060, Note_on_c, 0, 68, 64
2, 66112, Note_on_c, 0, 68, 0
2, 66112, Note_on_c, 0, 63, 0
2, 66112, Note_on_c, 0, 66, 0
2, 66120, Note_on_c, 0, 63, 64
2, 66120, Note_on_c, 0, 66, 64
2, 66120, Note_on_c, 0, 68, 64
2, 66165, Note_on_c, 0, 84, 0
2, 66165, Note_on_c, 0, 72, 0
2, 66172, Note_on_c, 0, 66, 0
2, 66172, Note_on_c, 0, 63, 0
2, 66172, Note_on_c, 0, 68, 0
2, 66180, Note_on_c, 0, 73, 64
2, 66180, Note_on_c, 0, 85, 64
2, 66180, Note_on_c, 0, 61, 64
2, 66180, Note_on_c, 0, 65, 64
2, 66180, Note_on_c, 0, 68, 64
2, 66232, Note_on_c, 0, 68, 0
2, 66232, Note_on_c, 0, 61, 0
2, 66232, Note_on_c, 0, 65, 0
2, 66240, Note_on_c, 0, 61, 64
2, 66240, Note_on_c, 0, 65, 64
2, 66240, Note_on_c, 0, 68, 64
2, 66285, Note_on_c, 0, 85, 0
2, 66285, Note_on_c, 0, 73, 0
2, 66292, Note_on_c, 0, 65, 0
2, 66292, Note_on_c, 0, 61, 0
2, 66292, Note_on_c, 0, 68, 0
2, 66300, Note_on_c, 0, 73, 64
2, 66300, Note_on_c, 0, 61, 64
2, 66300, Note_on_c, 0, 65, 64
2, 66300, Note_on_c, 0, 68, 64
2, 66352, Note_on_c, 0, 68, 0
2, 66352, Note_on_c, 0, 73, 0
2, 66352, Note_on_c, 0, 61, 0
2, 66352, Note_on_c, 0, 65, 0
2, 66360, Note_on_c, 0, 73, 64
2, 66412, Note_on_c, 0, 73, 0
2, 66420, Note_on_c, 0, 70, 64
2, 66472, Note_on_c, 0, 70, 0
2, 66480, Note_on_c, 0, 66, 64
2, 66532, Note_on_c, 0, 66, 0
2, 66540, Note_on_c, 0, 61, 64
2, 66592, Note_on_c, 0, 61, 0
2, 66600, Note_on_c, 0, 58, 64
2, 66652, Note_on_c, 0, 58, 0
2, 66660, Note_on_c, 0, 54, 64
2, 66712, Note_on_c, 0, 54, 0
2, 66720, Note_on_c, 0, 49, 64
2, 66772, Note_on_c, 0, 49, 0
2, 66780, Note_on_c, 0, 46, 64
2, 66832, Note_on_c, 0, 46, 0
2, 66840, Note_on_c, 0, 42, 64
2, 66892, Note_on_c, 0, 42, 0
2, 67020, Note_on_c, 0, 73, 64
2, 67020, Note_on_c, 0, 85, 64
2, 67072, Note_on_c, 0, 85, 0
2, 67072, Note_on_c, 0, 73, 0
2, 67080, Note_on_c, 0, 73, 64
2, 67080, Note_on_c, 0, 85, 64
2, 67080, Note_on_c, 0, 66, 64
2, 67080, Note_on_c, 0, 70, 64
2, 67132, Note_on_c, 0, 70, 0
2, 67132, Note_on_c, 0, 66, 0
2, 67140, Note_on_c, 0, 66, 64
2, 67140, Note_on_c, 0, 70, 64
2, 67192, Note_on_c, 0, 70, 0
2, 67192, Note_on_c, 0, 66, 0
2, 67200, Note_on_c, 0, 66, 64
2, 67200, Note_on_c, 0, 70, 64
2, 67245, Note_on_c, 0, 85, 0
2, 67245, Note_on_c, 0, 73, 0
2, 67252, Note_on_c, 0, 66, 0
2, 67252, Note_on_c, 0, 70, 0
2, 67260, Note_on_c, 0, 75, 64
2, 67260, Note_on_c, 0, 87, 64
2, 67260, Note_on_c, 0, 66, 64
2, 67260, Note_on_c, 0, 71, 64
2, 67312, Note_on_c, 0, 71, 0
2, 67312, Note_on_c, 0, 66, 0
2, 67320, Note_on_c, 0, 66, 64
2, 67320, Note_on_c, 0, 71, 64
2, 67372, Note_on_c, 0, 71, 0
2, 67372, Note_on_c, 0, 66, 0
2, 67380, Note_on_c, 0, 66, 64
2, 67380, Note_on_c, 0, 71, 64
2, 67432, Note_on_c, 0, 71, 0
2, 67432, Note_on_c, 0, 66, 0
2, 67440, Note_on_c, 0, 66, 64
2, 67440, Note_on_c, 0, 72, 64
2, 67492, Note_on_c, 0, 72, 0
2, 67492, Note_on_c, 0, 66, 0
2, 67500, Note_on_c, 0, 66, 64
2, 67500, Note_on_c, 0, 72, 64
2, 67552, Note_on_c, 0, 72, 0
2, 67552, Note_on_c, 0, 66, 0
2, 67560, Note_on_c, 0, 66, 64
2, 67560, Note_on_c, 0, 72, 64
2, 67605, Note_on_c, 0, 87, 0
2, 67605, Note_on_c, 0, 75, 0
2, 67612, Note_on_c, 0, 66, 0
2, 67612, Note_on_c, 0, 72, 0
2, 67620, Note_on_c, 0, 76, 64
2, 67620, Note_on_c, 0, 88, 64
2, 67620, Note_on_c, 0, 66, 64
2, 67620, Note_on_c, 0, 73, 64
2, 67672, Note_on_c, 0, 73, 0
2, 67672, Note_on_c, 0, 66, 0
2, 67680, Note_on_c, 0, 66, 64
2, 67680, Note_on_c, 0, 73, 64
2, 67732, Note_on_c, 0, 73, 0
2, 67732, Note_on_c, 0, 66, 0
2, 67740, Note_on_c, 0, 66, 64
2, 67740, Note_on_c, 0, 73, 64
2, 67792, Note_on_c, 0, 73, 0
2, 67792, Note_on_c, 0, 66, 0
2, 67800, Note_on_c, 0, 66, 64
2, 67800, Note_on_c, 0, 73, 64
2, 67852, Note_on_c, 0, 73, 0
2, 67852, Note_on_c, 0, 66, 0
2, 67860, Note_on_c, 0, 66, 64
2, 67860, Note_on_c, 0, 73, 64
2, 67912, Note_on_c, 0, 73, 0
2, 67912, Note_on_c, 0, 66, 0
2, 67920, Note_on_c, 0, 66, 64
2, 67920, Note_on_c, 0, 73, 64
2, 67965, Note_on_c, 0, 88, 0
2, 67965, Note_on_c, 0, 76, 0
2, 67972, Note_on_c, 0, 66, 0
2, 67972, Note_on_c, 0, 73, 0
2, 67980, Note_on_c, 0, 78, 64
2, 67980, Note_on_c, 0, 90, 64
2, 67980, Note_on_c, 0, 66, 64
2, 67980, Note_on_c, 0, 75, 64
2, 68032, Note_on_c, 0, 75, 0
2, 68032, Note_on_c, 0, 66, 0
2, 68040, Note_on_c, 0, 66, 64
2, 68040, Note_on_c, 0, 75, 64
2, 68092, Note_on_c, 0, 75, 0
2, 68092, Note_on_c, 0, 66, 0
2, 68100, Note_on_c, 0, 66, 64
2, 68100, Note_on_c, 0, 75, 64
2, 68145, Note_on_c, 0, 90, 0
2, 68145, Note_on_c, 0, 78, 0
2, 68152, Note_on_c, 0, 66, 0
2, 68152, Note_on_c, 0, 75, 0
2, 68160, Note_on_c, 0, 79, 64
2, 68160, Note_on_c, 0, 91, 64
2, 68160, Note_on_c, 0, 66, 64
2, 68160, Note_on_c, 0, 76, 64
2, 68212, Note_on_c, 0, 76, 0
2, 68212, Note_on_c, 0, 66, 0
2, 68220, Note_on_c, 0, 66, 64
2, 68220, Note_on_c, 0, 76, 64
2, 68272, Note_on_c, 0, 76, 0
2, 68272, Note_on_c, 0, 66, 0
2, 68280, Note_on_c, 0, 66, 64
2, 68280, Note_on_c, 0, 76, 64
2, 68325, Note_on_c, 0, 91, 0
2, 68325, Note_on_c, 0, 79, 0
2, 68332, Note_on_c, 0, 66, 0
2, 68332, Note_on_c, 0, 76, 0
2, 68340, Note_on_c, 0, 80, 64
2, 68340, Note_on_c, 0, 92, 64
2, 68340, Note_on_c, 0, 66, 64
2, 68340, Note_on_c, 0, 76, 64
2, 68392, Note_on_c, 0, 76, 0
2, 68392, Note_on_c, 0, 66, 0
2, 68400, Note_on_c, 0, 66, 64
2, 68400, Note_on_c, 0, 76, 64
2, 68452, Note_on_c, 0, 76, 0
2, 68452, Note_on_c, 0, 66, 0
2, 68460, Note_on_c, 0, 66, 64
2, 68460, Note_on_c, 0, 76, 64
2, 68512, Note_on_c, 0, 76, 0
2, 68512, Note_on_c, 0, 66, 0
2, 68520, Note_on_c, 0, 66, 64
2, 68520, Note_on_c, 0, 76, 64
2, 68572, Note_on_c, 0, 76, 0
2, 68572, Note_on_c, 0, 66, 0
2, 68580, Note_on_c, 0, 66, 64
2, 68580, Note_on_c, 0, 76, 64
2, 68632, Note_on_c, 0, 76, 0
2, 68632, Note_on_c, 0, 66, 0
2, 68640, Note_on_c, 0, 66, 64
2, 68640, Note_on_c, 0, 76, 64
2, 68685, Note_on_c, 0, 92, 0
2, 68685, Note_on_c, 0, 80, 0
2, 68692, Note_on_c, 0, 66, 0
2, 68692, Note_on_c, 0, 76, 0
2, 68700, Note_on_c, 0, 78, 64
2, 68700, Note_on_c, 0, 90, 64
2, 68700, Note_on_c, 0, 66, 64
2, 68700, Note_on_c, 0, 75, 64
2, 68752, Note_on_c, 0, 75, 0
2, 68752, Note_on_c, 0, 66, 0
2, 68760, Note_on_c, 0, 66, 64
2, 68760, Note_on_c, 0, 75, 64
2, 68812, Note_on_c, 0, 75, 0
2, 68812, Note_on_c, 0, 66, 0
2, 68820, Note_on_c, 0, 66, 64
2, 68820, Note_on_c, 0, 75, 64
2, 68865, Note_on_c, 0, 90, 0
2, 68865, Note_on_c, 0, 78, 0
2, 68872, Note_on_c, 0, 66, 0
2, 68872, Note_on_c, 0, 75, 0
2, 68880, Note_on_c, 0, 76, 64
2, 68880, Note_on_c, 0, 88, 64
2, 68880, Note_on_c, 0, 66, 64
2, 68880, Note_on_c, 0, 73, 64
2, 68932, Note_on_c, 0, 73, 0
2, 68932, Note_on_c, 0, 66, 0
2, 68940, Note_on_c, 0, 66, 64
2, 68940, Note_on_c, 0, 73, 64
2, 68992, Note_on_c, 0, 73, 0
2, 68992, Note_on_c, 0, 66, 0
2, 69000, Note_on_c, 0, 66, 64
2, 69000, Note_on_c, 0, 73, 64
2, 69045, Note_on_c, 0, 88, 0
2, 69045, Note_on_c, 0, 76, 0
2, 69052, Note_on_c, 0, 66, 0
2, 69052, Note_on_c, 0, 73, 0
2, 69060, Note_on_c, 0, 73, 64
2, 69060, Note_on_c, 0, 85, 64
2, 69060, Note_on_c, 0, 64, 64
2, 69060, Note_on_c, 0, 66, 64
2, 69060, Note_on_c, 0, 70, 64
2, 69112, Note_on_c, 0, 70, 0
2, 69112, Note_on_c, 0, 64, 0
2, 69112, Note_on_c, 0, 66, 0
2, 69120, Note_on_c, 0, 64, 64
2, 69120, Note_on_c, 0, 66, 64
2, 69120, Note_on_c, 0, 70, 64
2, 69172, Note_on_c, 0, 70, 0
2, 69172, Note_on_c, 0, 64, 0
2, 69172, Note_on_c, 0, 66, 0
2, 69180, Note_on_c, 0, 64, 64
2, 69180, Note_on_c, 0, 66, 64
2, 69180, Note_on_c, 0, 70, 64
2, 69225, Note_on_c, 0, 85, 0
2, 69225, Note_on_c, 0, 73, 0
2, 69232, Note_on_c, 0, 66, 0
2, 69232, Note_on_c, 0, 64, 0
2, 69232, Note_on_c, 0, 70, 0
2, 69240, Note_on_c, 0, 75, 64
2, 69240, Note_on_c, 0, 87, 64
2, 69240, Note_on_c, 0, 63, 64
2, 69240, Note_on_c, 0, 66, 64
2, 69266, Note_on_c, 0, 66, 0
2, 69270, Note_on_c, 0, 68, 64
2, 69296, Note_on_c, 0, 68, 0
2, 69300, Note_on_c, 0, 66, 64
2, 69326, Note_on_c, 0, 66, 0
2, 69330, Note_on_c, 0, 68, 64
2, 69345, Note_on_c, 0, 75, 0
2, 69356, Note_on_c, 0, 68, 0
2, 69360, Note_on_c, 0, 80, 64
2, 69360, Note_on_c, 0, 66, 64
2, 69386, Note_on_c, 0, 66, 0
2, 69390, Note_on_c, 0, 68, 64
2, 69405, Note_on_c, 0, 63, 0
2, 69412, Note_on_c, 0, 80, 0
2, 69416, Note_on_c, 0, 68, 0
2, 69420, Note_on_c, 0, 78, 64
2, 69420, Note_on_c, 0, 59, 64
2, 69420, Note_on_c, 0, 66, 64
2, 69446, Note_on_c, 0, 66, 0
2, 69450, Note_on_c, 0, 68, 64
2, 69476, Note_on_c, 0, 68, 0
2, 69480, Note_on_c, 0, 66, 64
2, 69506, Note_on_c, 0, 66, 0
2, 69510, Note_on_c, 0, 68, 64
2, 69525, Note_on_c, 0, 78, 0
2, 69536, Note_on_c, 0, 68, 0
2, 69540, Note_on_c, 0, 75, 64
2, 69540, Note_on_c, 0, 66, 64
2, 69566, Note_on_c, 0, 66, 0
2, 69570, Note_on_c, 0, 68, 64
2, 69585, Note_on_c, 0, 87, 0
2, 69585, Note_on_c, 0, 59, 0
2, 69592, Note_on_c, 0, 75, 0
2, 69596, Note_on_c, 0, 68, 0
2, 69600, Note_on_c, 0, 73, 64
2, 69600, Note_on_c, 0, 85, 64
2, 69600, Note_on_c, 0, 58, 64
2, 69600, Note_on_c, 0, 66, 64
2, 69626, Note_on_c, 0, 66, 0
2, 69630, Note_on_c, 0, 68, 64
2, 69656, Note_on_c, 0, 68, 0
2, 69660, Note_on_c, 0, 66, 64
2, 69686, Note_on_c, 0, 66, 0
2, 69690, Note_on_c, 0, 68, 64
2, 69705, Note_on_c, 0, 73, 0
2, 69716, Note_on_c, 0, 68, 0
2, 69720, Note_on_c, 0, 80, 64
2, 69720, Note_on_c, 0, 66, 64
2, 69746, Note_on_c, 0, 66, 0
2, 69750, Note_on_c, 0, 68, 64
2, 69765, Note_on_c, 0, 58, 0
2, 69772, Note_on_c, 0, 80, 0
2, 69776, Note_on_c, 0, 68, 0
2, 69780, Note_on_c, 0, 78, 64
2, 69780, Note_on_c, 0, 64, 64
2, 69780, Note_on_c, 0, 66, 64
2, 69806, Note_on_c, 0, 66, 0
2, 69810, Note_on_c, 0, 68, 64
2, 69836, Note_on_c, 0, 68, 0
2, 69840, Note_on_c, 0, 66, 64
2, 69866, Note_on_c, 0, 66, 0
2, 69870, Note_on_c, 0, 68, 64
2, 69885, Note_on_c, 0, 78, 0
2, 69896, Note_on_c, 0, 68, 0
2, 69900, Note_on_c, 0, 73, 64
2, 69900, Note_on_c, 0, 66, 64
2, 69926, Note_on_c, 0, 66, 0
2, 69930, Note_on_c, 0, 68, 64
2, 69945, Note_on_c, 0, 85, 0
2, 69945, Note_on_c, 0, 64, 0
2, 69952, Note_on_c, 0, 73, 0
2, 69956, Note_on_c, 0, 68, 0
2, 69960, Note_on_c, 0, 87, 64
2, 69960, Note_on_c, 0, 78, 64
2, 69960, Note_on_c, 0, 63, 64
2, 69960, Note_on_c, 0, 59, 64
2, 69986, Note_on_c, 0, 78, 0
2, 69990, Note_on_c, 0, 80, 64
2, 70016, Note_on_c, 0, 80, 0
2, 70020, Note_on_c, 0, 78, 64
2, 70046, Note_on_c, 0, 78, 0
2, 70050, Note_on_c, 0, 80, 64
2, 70065, Note_on_c, 0, 63, 0
2, 70076, Note_on_c, 0, 80, 0
2, 70080, Note_on_c, 0, 78, 64
2, 70080, Note_on_c, 0, 68, 64
2, 70106, Note_on_c, 0, 78, 0
2, 70110, Note_on_c, 0, 80, 64
2, 70125, Note_on_c, 0, 87, 0
2, 70132, Note_on_c, 0, 68, 0
2, 70136, Note_on_c, 0, 80, 0
2, 70140, Note_on_c, 0, 83, 64
2, 70140, Note_on_c, 0, 78, 64
2, 70140, Note_on_c, 0, 66, 64
2, 70166, Note_on_c, 0, 78, 0
2, 70170, Note_on_c, 0, 80, 64
2, 70185, Note_on_c, 0, 59, 0
2, 70196, Note_on_c, 0, 80, 0
2, 70200, Note_on_c, 0, 78, 64
2, 70226, Note_on_c, 0, 78, 0
2, 70230, Note_on_c, 0, 80, 64
2, 70245, Note_on_c, 0, 66, 0
2, 70256, Note_on_c, 0, 80, 0
2, 70260, Note_on_c, 0, 78, 64
2, 70260, Note_on_c, 0, 63, 64
2, 70286, Note_on_c, 0, 78, 0
2, 70290, Note_on_c, 0, 80, 64
2, 70305, Note_on_c, 0, 83, 0
2, 70312, Note_on_c, 0, 63, 0
2, 70316, Note_on_c, 0, 80, 0
2, 70320, Note_on_c, 0, 82, 64
2, 70320, Note_on_c, 0, 78, 64
2, 70320, Note_on_c, 0, 61, 64
2, 70320, Note_on_c, 0, 54, 64
2, 70346, Note_on_c, 0, 78, 0
2, 70350, Note_on_c, 0, 80, 64
2, 70376, Note_on_c, 0, 80, 0
2, 70380, Note_on_c, 0, 78, 64
2, 70406, Note_on_c, 0, 78, 0
2, 70410, Note_on_c, 0, 80, 64
2, 70425, Note_on_c, 0, 61, 0
2, 70436, Note_on_c, 0, 80, 0
2, 70440, Note_on_c, 0, 78, 64
2, 70440, Note_on_c, 0, 68, 64
2, 70466, Note_on_c, 0, 78, 0
2, 70470, Note_on_c, 0, 80, 64
2, 70485, Note_on_c, 0, 54, 0
2, 70485, Note_on_c, 0, 82, 0
2, 70492, Note_on_c, 0, 68, 0
2, 70496, Note_on_c, 0, 80, 0
2, 70500, Note_on_c, 0, 90, 64
2, 70500, Note_on_c, 0, 78, 64
2, 70500, Note_on_c, 0, 66, 64
2, 70500, Note_on_c, 0, 52, 64
2, 70526, Note_on_c, 0, 78, 0
2, 70530, Note_on_c, 0, 80, 64
2, 70556, Note_on_c, 0, 80, 0
2, 70560, Note_on_c, 0, 78, 64
2, 70586, Note_on_c, 0, 78, 0
2, 70590, Note_on_c, 0, 80, 64
2, 70605, Note_on_c, 0, 66, 0
2, 70616, Note_on_c, 0, 80, 0
2, 70620, Note_on_c, 0, 78, 64
2, 70620, Note_on_c, 0, 61, 64
2, 70646, Note_on_c, 0, 78, 0
2, 70650, Note_on_c, 0, 80, 64
2, 70665, Note_on_c, 0, 52, 0
2, 70665, Note_on_c, 0, 90, 0
2, 70672, Note_on_c, 0, 61, 0
2, 70676, Note_on_c, 0, 80, 0
2, 70680, Note_on_c, 0, 78, 64
2, 70680, Note_on_c, 0, 90, 64
2, 70680, Note_on_c, 0, 51, 64
2, 70706, Note_on_c, 0, 51, 0
2, 70710, Note_on_c, 0, 59, 64
2, 70736, Note_on_c, 0, 59, 0
2, 70740, Note_on_c, 0, 51, 64
2, 70766, Note_on_c, 0, 51, 0
2, 70770, Note_on_c, 0, 59, 64
2, 70796, Note_on_c, 0, 59, 0
2, 70800, Note_on_c, 0, 51, 64
2, 70826, Note_on_c, 0, 51, 0
2, 70830, Note_on_c, 0, 59, 64
2, 70845, Note_on_c, 0, 90, 0
2, 70845, Note_on_c, 0, 78, 0
2, 70856, Note_on_c, 0, 59, 0
2, 70860, Note_on_c, 0, 66, 64
2, 70860, Note_on_c, 0, 78, 64
2, 70860, Note_on_c, 0, 50, 64
2, 70886, Note_on_c, 0, 50, 0
2, 70890, Note_on_c, 0, 60, 64
2, 70916, Note_on_c, 0, 60, 0
2, 70920, Note_on_c, 0, 50, 64
2, 70946, Note_on_c, 0, 50, 0
2, 70950, Note_on_c, 0, 60, 64
2, 70976, Note_on_c, 0, 60, 0
2, 70980, Note_on_c, 0, 50, 64
2, 71006, Note_on_c, 0, 50, 0
2, 71010, Note_on_c, 0, 60, 64
2, 71025, Note_on_c, 0, 78, 0
2, 71025, Note_on_c, 0, 66, 0
2, 71036, Note_on_c, 0, 60, 0
2, 71040, Note_on_c, 0, 66, 64
2, 71040, Note_on_c, 0, 74, 64
2, 71040, Note_on_c, 0, 78, 64
2, 71040, Note_on_c, 0, 48, 64
2, 71066, Note_on_c, 0, 48, 0
2, 71070, Note_on_c, 0, 57, 64
2, 71096, Note_on_c, 0, 57, 0
2, 71100, Note_on_c, 0, 48, 64
2, 71126, Note_on_c, 0, 48, 0
2, 71130, Note_on_c, 0, 57, 64
2, 71156, Note_on_c, 0, 57, 0
2, 71160, Note_on_c, 0, 48, 64
2, 71186, Note_on_c, 0, 48, 0
2, 71190, Note_on_c, 0, 57, 64
2, 71205, Note_on_c, 0, 66, 0
2, 71205, Note_on_c, 0, 78, 0
2, 71205, Note_on_c, 0, 74, 0
2, 71216, Note_on_c, 0, 57, 0
2, 71220, Note_on_c, 0, 67, 64
2, 71220, Note_on_c, 0, 74, 64
2, 71220, Note_on_c, 0, 79, 64
2, 71220, Note_on_c, 0, 47, 64
2, 71246, Note_on_c, 0, 47, 0
2, 71250, Note_on_c, 0, 55, 64
2, 71276, Note_on_c, 0, 55, 0
2, 71280, Note_on_c, 0, 47, 64
2, 71306, Note_on_c, 0, 47, 0
2, 71310, Note_on_c, 0, 55, 64
2, 71325, Note_on_c, 0, 67, 0
2, 71325, Note_on_c, 0, 79, 0
2, 71325, Note_on_c, 0, 74, 0
2, 71336, Note_on_c, 0, 55, 0
2, 71340, Note_on_c, 0, 69, 64
2, 71340, Note_on_c, 0, 74, 64
2, 71340, Note_on_c, 0, 81, 64
2, 71340, Note_on_c, 0, 45, 64
2, 71366, Note_on_c, 0, 45, 0
2, 71370, Note_on_c, 0, 54, 64
2, 71392, Note_on_c, 0, 69, 0
2, 71392, Note_on_c, 0, 81, 0
2, 71392, Note_on_c, 0, 74, 0
2, 71396, Note_on_c, 0, 54, 0
2, 71400, Note_on_c, 0, 71, 64
2, 71400, Note_on_c, 0, 74, 64
2, 71400, Note_on_c, 0, 83, 64
2, 71400, Note_on_c, 0, 43, 64
2, 71400, Note_on_c, 0, 55, 64
2, 71452, Note_on_c, 0, 55, 0
2, 71452, Note_on_c, 0, 43, 0
2, 71460, Note_on_c, 0, 55, 64
2, 71460, Note_on_c, 0, 59, 64
2, 71486, Note_on_c, 0, 59, 0
2, 71486, Note_on_c, 0, 55, 0
2, 71490, Note_on_c, 0, 62, 64
2, 71505, Note_on_c, 0, 83, 0
2, 71505, Note_on_c, 0, 71, 0
2, 71505, Note_on_c, 0, 74, 0
2, 71516, Note_on_c, 0, 62, 0
2, 71520, Note_on_c, 0, 76, 64
2, 71520, Note_on_c, 0, 88, 64
2, 71520, Note_on_c, 0, 55, 64
2, 71520, Note_on_c, 0, 59, 64
2, 71546, Note_on_c, 0, 59, 0
2, 71546, Note_on_c, 0, 55, 0
2, 71550, Note_on_c, 0, 62, 64
2, 71572, Note_on_c, 0, 88, 0
2, 71572, Note_on_c, 0, 76, 0
2, 71576, Note_on_c, 0, 62, 0
2, 71580, Note_on_c, 0, 74, 64
2, 71580, Note_on_c, 0, 86, 64
2, 71580, Note_on_c, 0, 55, 64
2, 71580, Note_on_c, 0, 59, 64
2, 71606, Note_on_c, 0, 59, 0
2, 71606, Note_on_c, 0, 55, 0
2, 71610, Note_on_c, 0, 62, 64
2, 71636, Note_on_c, 0, 62, 0
2, 71640, Note_on_c, 0, 55, 64
2, 71640, Note_on_c, 0, 59, 64
2, 71666, Note_on_c, 0, 59, 0
2, 71666, Note_on_c, 0, 55, 0
2, 71670, Note_on_c, 0, 62, 64
2, 71685, Note_on_c, 0, 86, 0
2, 71685, Note_on_c, 0, 74, 0
2, 71696, Note_on_c, 0, 62, 0
2, 71700, Note_on_c, 0, 71, 64
2, 71700, Note_on_c, 0, 83, 64
2, 71700, Note_on_c, 0, 55, 64
2, 71700, Note_on_c, 0, 59, 64
2, 71726, Note_on_c, 0, 59, 0
2, 71726, Note_on_c, 0, 55, 0
2, 71730, Note_on_c, 0, 62, 64
2, 71752, Note_on_c, 0, 83, 0
2, 71752, Note_on_c, 0, 71, 0
2, 71756, Note_on_c, 0, 62, 0
2, 71760, Note_on_c, 0, 69, 64
2, 71760, Note_on_c, 0, 81, 64
2, 71760, Note_on_c, 0, 54, 64
2, 71760, Note_on_c, 0, 60, 64
2, 71786, Note_on_c, 0, 60, 0
2, 71786, Note_on_c, 0, 54, 0
2, 71790, Note_on_c, 0, 62, 64
2, 71816, Note_on_c, 0, 62, 0
2, 71820, Note_on_c, 0, 54, 64
2, 71820, Note_on_c, 0, 60, 64
2, 71846, Note_on_c, 0, 60, 0
2, 71846, Note_on_c, 0, 54, 0
2, 71850, Note_on_c, 0, 62, 64
2, 71865, Note_on_c, 0, 81, 0
2, 71865, Note_on_c, 0, 69, 0
2, 71876, Note_on_c, 0, 62, 0
2, 71880, Note_on_c, 0, 76, 64
2, 71880, Note_on_c, 0, 88, 64
2, 71880, Note_on_c, 0, 54, 64
2, 71880, Note_on_c, 0, 60, 64
2, 71906, Note_on_c, 0, 60, 0
2, 71906, Note_on_c, 0, 54, 0
2, 71910, Note_on_c, 0, 62, 64
2, 71932, Note_on_c, 0, 88, 0
2, 71932, Note_on_c, 0, 76, 0
2, 71936, Note_on_c, 0, 62, 0
2, 71940, Note_on_c, 0, 74, 64
2, 71940, Note_on_c, 0, 86, 64
2, 71940, Note_on_c, 0, 54, 64
2, 71940, Note_on_c, 0, 60, 64
2, 71966, Note_on_c, 0, 60, 0
2, 71966, Note_on_c, 0, 54, 0
2, 71970, Note_on_c, 0, 62, 64
2, 71996, Note_on_c, 0, 62, 0
2, 72000, Note_on_c, 0, 54, 64
2, 72000, Note_on_c, 0, 60, 64
2, 72026, Note_on_c, 0, 60, 0
2, 72026, Note_on_c, 0, 54, 0
2, 72030, Note_on_c, 0, 62, 64
2, 72045, Note_on_c, 0, 86, 0
2, 72045, Note_on_c, 0, 74, 0
2, 72056, Note_on_c, 0, 62, 0
2, 72060, Note_on_c, 0, 69, 64
2, 72060, Note_on_c, 0, 81, 64
2, 72060, Note_on_c, 0, 54, 64
2, 72060, Note_on_c, 0, 60, 64
2, 72086, Note_on_c, 0, 60, 0
2, 72086, Note_on_c, 0, 54, 0
2, 72090, Note_on_c, 0, 62, 64
2, 72112, Note_on_c, 0, 81, 0
2, 72112, Note_on_c, 0, 69, 0
2, 72116, Note_on_c, 0, 62, 0
2, 72120, Note_on_c, 0, 74, 64
2, 72120, Note_on_c, 0, 83, 64
2, 72120, Note_on_c, 0, 59, 64
2, 72120, Note_on_c, 0, 55, 64
2, 72146, Note_on_c, 0, 74, 0
2, 72150, Note_on_c, 0, 76, 64
2, 72176, Note_on_c, 0, 76, 0
2, 72180, Note_on_c, 0, 74, 64
2, 72206, Note_on_c, 0, 74, 0
2, 72210, Note_on_c, 0, 76, 64
2, 72225, Note_on_c, 0, 59, 0
2, 72236, Note_on_c, 0, 76, 0
2, 72240, Note_on_c, 0, 74, 64
2, 72240, Note_on_c, 0, 64, 64
2, 72266, Note_on_c, 0, 74, 0
2, 72270, Note_on_c, 0, 76, 64
2, 72285, Note_on_c, 0, 83, 0
2, 72292, Note_on_c, 0, 64, 0
2, 72296, Note_on_c, 0, 76, 0
2, 72300, Note_on_c, 0, 74, 64
2, 72300, Note_on_c, 0, 79, 64
2, 72300, Note_on_c, 0, 62, 64
2, 72326, Note_on_c, 0, 74, 0
2, 72330, Note_on_c, 0, 76, 64
2, 72356, Note_on_c, 0, 76, 0
2, 72360, Note_on_c, 0, 74, 64
2, 72386, Note_on_c, 0, 74, 0
2, 72390, Note_on_c, 0, 76, 64
2, 72405, Note_on_c, 0, 62, 0
2, 72416, Note_on_c, 0, 76, 0
2, 72420, Note_on_c, 0, 74, 64
2, 72420, Note_on_c, 0, 59, 64
2, 72446, Note_on_c, 0, 74, 0
2, 72450, Note_on_c, 0, 76, 64
2, 72465, Note_on_c, 0, 55, 0
2, 72465, Note_on_c, 0, 79, 0
2, 72472, Note_on_c, 0, 59, 0
2, 72476, Note_on_c, 0, 76, 0
2, 72480, Note_on_c, 0, 74, 64
2, 72480, Note_on_c, 0, 78, 64
2, 72480, Note_on_c, 0, 57, 64
2, 72480, Note_on_c, 0, 50, 64
2, 72506, Note_on_c, 0, 74, 0
2, 72510, Note_on_c, 0, 76, 64
2, 72536, Note_on_c, 0, 76, 0
2, 72540, Note_on_c, 0, 74, 64
2, 72566, Note_on_c, 0, 74, 0
2, 72570, Note_on_c, 0, 76, 64
2, 72585, Note_on_c, 0, 57, 0
2, 72596, Note_on_c, 0, 76, 0
2, 72600, Note_on_c, 0, 74, 64
2, 72600, Note_on_c, 0, 64, 64
2, 72626, Note_on_c, 0, 74, 0
2, 72630, Note_on_c, 0, 76, 64
2, 72645, Note_on_c, 0, 78, 0
2, 72652, Note_on_c, 0, 64, 0
2, 72656, Note_on_c, 0, 76, 0
2, 72660, Note_on_c, 0, 74, 64
2, 72660, Note_on_c, 0, 84, 64
2, 72660, Note_on_c, 0, 62, 64
2, 72686, Note_on_c, 0, 74, 0
2, 72690, Note_on_c, 0, 76, 64
2, 72716, Note_on_c, 0, 76, 0
2, 72720, Note_on_c, 0, 74, 64
2, 72746, Note_on_c, 0, 74, 0
2, 72750, Note_on_c, 0, 76, 64
2, 72765, Note_on_c, 0, 62, 0
2, 72776, Note_on_c, 0, 76, 0
2, 72780, Note_on_c, 0, 74, 64
2, 72780, Note_on_c, 0, 57, 64
2, 72806, Note_on_c, 0, 74, 0
2, 72810, Note_on_c, 0, 76, 64
2, 72825, Note_on_c, 0, 50, 0
2, 72825, Note_on_c, 0, 84, 0
2, 72832, Note_on_c, 0, 57, 0
2, 72836, Note_on_c, 0, 76, 0
2, 72840, Note_on_c, 0, 74, 64
2, 72840, Note_on_c, 0, 83, 64
2, 72840, Note_on_c, 0, 55, 64
2, 72840, Note_on_c, 0, 59, 64
2, 72840, Note_on_c, 0, 62, 64
2, 72892, Note_on_c, 0, 83, 0
2, 72892, Note_on_c, 0, 74, 0
2, 72900, Note_on_c, 0, 71, 64
2, 72945, Note_on_c, 0, 59, 0
2, 72945, Note_on_c, 0, 62, 0
2, 72945, Note_on_c, 0, 55, 0
2, 72952, Note_on_c, 0, 71, 0
2, 72960, Note_on_c, 0, 86, 64
2, 72960, Note_on_c, 0, 67, 64
2, 73012, Note_on_c, 0, 67, 0
2, 73012, Note_on_c, 0, 86, 0
2, 73020, Note_on_c, 0, 86, 64
2, 73020, Note_on_c, 0, 66, 64
2, 73072, Note_on_c, 0, 66, 0
2, 73072, Note_on_c, 0, 86, 0
2, 73080, Note_on_c, 0, 83, 64
2, 73080, Note_on_c, 0, 67, 64
2, 73132, Note_on_c, 0, 67, 0
2, 73132, Note_on_c, 0, 83, 0
2, 73140, Note_on_c, 0, 71, 64
2, 73140, Note_on_c, 0, 79, 64
2, 73140, Note_on_c, 0, 62, 64
2, 73192, Note_on_c, 0, 62, 0
2, 73192, Note_on_c, 0, 79, 0
2, 73192, Note_on_c, 0, 71, 0
2, 73200, Note_on_c, 0, 62, 64
2, 73252, Note_on_c, 0, 62, 0
2, 73260, Note_on_c, 0, 71, 64
2, 73260, Note_on_c, 0, 59, 64
2, 73312, Note_on_c, 0, 59, 0
2, 73312, Note_on_c, 0, 71, 0
2, 73320, Note_on_c, 0, 74, 64
2, 73320, Note_on_c, 0, 55, 64
2, 73372, Note_on_c, 0, 55, 0
2, 73372, Note_on_c, 0, 74, 0
2, 73380, Note_on_c, 0, 79, 64
2, 73380, Note_on_c, 0, 53, 64
2, 73432, Note_on_c, 0, 53, 0
2, 73432, Note_on_c, 0, 79, 0
2, 73440, Note_on_c, 0, 83, 64
2, 73440, Note_on_c, 0, 50, 64
2, 73492, Note_on_c, 0, 50, 0
2, 73492, Note_on_c, 0, 83, 0
2, 73500, Note_on_c, 0, 79, 64
2, 73500, Note_on_c, 0, 86, 64
2, 73500, Note_on_c, 0, 47, 64
2, 73552, Note_on_c, 0, 47, 0
2, 73552, Note_on_c, 0, 86, 0
2, 73552, Note_on_c, 0, 79, 0
2, 73560, Note_on_c, 0, 79, 64
2, 73560, Note_on_c, 0, 88, 64
2, 73560, Note_on_c, 0, 48, 64
2, 73612, Note_on_c, 0, 88, 0
2, 73612, Note_on_c, 0, 79, 0
2, 73620, Note_on_c, 0, 76, 64
2, 73665, Note_on_c, 0, 48, 0
2, 73672, Note_on_c, 0, 76, 0
2, 73680, Note_on_c, 0, 72, 64
2, 73680, Note_on_c, 0, 67, 64
2, 73732, Note_on_c, 0, 67, 0
2, 73732, Note_on_c, 0, 72, 0
2, 73740, Note_on_c, 0, 71, 64
2, 73740, Note_on_c, 0, 67, 64
2, 73792, Note_on_c, 0, 67, 0
2, 73792, Note_on_c, 0, 71, 0
2, 73800, Note_on_c, 0, 72, 64
2, 73800, Note_on_c, 0, 64, 64
2, 73852, Note_on_c, 0, 64, 0
2, 73852, Note_on_c, 0, 72, 0
2, 73860, Note_on_c, 0, 76, 64
2, 73860, Note_on_c, 0, 55, 64
2, 73860, Note_on_c, 0, 60, 64
2, 73912, Note_on_c, 0, 60, 0
2, 73912, Note_on_c, 0, 55, 0
2, 73912, Note_on_c, 0, 76, 0
2, 73920, Note_on_c, 0, 55, 64
2, 73972, Note_on_c, 0, 55, 0
2, 73980, Note_on_c, 0, 79, 64
2, 73980, Note_on_c, 0, 52, 64
2, 74032, Note_on_c, 0, 52, 0
2, 74032, Note_on_c, 0, 79, 0
2, 74040, Note_on_c, 0, 84, 64
2, 74040, Note_on_c, 0, 48, 64
2, 74092, Note_on_c, 0, 48, 0
2, 74092, Note_on_c, 0, 84, 0
2, 74100, Note_on_c, 0, 76, 64
2, 74100, Note_on_c, 0, 88, 64
2, 74100, Note_on_c, 0, 43, 64
2, 74152, Note_on_c, 0, 43, 0
2, 74160, Note_on_c, 0, 36, 64
2, 74205, Note_on_c, 0, 88, 0
2, 74205, Note_on_c, 0, 76, 0
2, 74212, Note_on_c, 0, 36, 0
2, 74220, Note_on_c, 0, 75, 64
2, 74220, Note_on_c, 0, 87, 64
2, 74220, Note_on_c, 0, 48, 64
2, 74272, Note_on_c, 0, 48, 0
2, 74272, Note_on_c, 0, 87, 0
2, 74272, Note_on_c, 0, 75, 0
2, 74280, Note_on_c, 0, 87, 64
2, 74280, Note_on_c, 0, 48, 64
2, 74306, Note_on_c, 0, 48, 0
2, 74310, Note_on_c, 0, 51, 64
2, 74332, Note_on_c, 0, 87, 0
2, 74336, Note_on_c, 0, 51, 0
2, 74340, Note_on_c, 0, 84, 64
2, 74340, Note_on_c, 0, 56, 64
2, 74366, Note_on_c, 0, 56, 0
2, 74370, Note_on_c, 0, 51, 64
2, 74392, Note_on_c, 0, 84, 0
2, 74396, Note_on_c, 0, 51, 0
2, 74400, Note_on_c, 0, 80, 64
2, 74400, Note_on_c, 0, 56, 64
2, 74426, Note_on_c, 0, 56, 0
2, 74430, Note_on_c, 0, 51, 64
2, 74452, Note_on_c, 0, 80, 0
2, 74456, Note_on_c, 0, 51, 0
2, 74460, Note_on_c, 0, 79, 64
2, 74460, Note_on_c, 0, 49, 64
2, 74486, Note_on_c, 0, 49, 0
2, 74490, Note_on_c, 0, 51, 64
2, 74512, Note_on_c, 0, 79, 0
2, 74516, Note_on_c, 0, 51, 0
2, 74520, Note_on_c, 0, 82, 64
2, 74520, Note_on_c, 0, 55, 64
2, 74546, Note_on_c, 0, 55, 0
2, 74550, Note_on_c, 0, 58, 64
2, 74572, Note_on_c, 0, 82, 0
2, 74576, Note_on_c, 0, 58, 0
2, 74580, Note_on_c, 0, 87, 64
2, 74580, Note_on_c, 0, 75, 64
2, 74580, Note_on_c, 0, 61, 64
2, 74606, Note_on_c, 0, 61, 0
2, 74606, Note_on_c, 0, 75, 0
2, 74610, Note_on_c, 0, 55, 64
2, 74632, Note_on_c, 0, 87, 0
2, 74636, Note_on_c, 0, 55, 0
2, 74640, Note_on_c, 0, 75, 64
2, 74640, Note_on_c, 0, 56, 64
2, 74666, Note_on_c, 0, 56, 0
2, 74670, Note_on_c, 0, 60, 64
2, 74692, Note_on_c, 0, 75, 0
2, 74696, Note_on_c, 0, 60, 0
2, 74700, Note_on_c, 0, 72, 64
2, 74700, Note_on_c, 0, 63, 64
2, 74726, Note_on_c, 0, 63, 0
2, 74730, Note_on_c, 0, 60, 64
2, 74752, Note_on_c, 0, 72, 0
2, 74756, Note_on_c, 0, 60, 0
2, 74760, Note_on_c, 0, 68, 64
2, 74760, Note_on_c, 0, 63, 64
2, 74786, Note_on_c, 0, 63, 0
2, 74790, Note_on_c, 0, 60, 64
2, 74812, Note_on_c, 0, 68, 0
2, 74816, Note_on_c, 0, 60, 0
2, 74820, Note_on_c, 0, 75, 64
2, 74820, Note_on_c, 0, 55, 64
2, 74846, Note_on_c, 0, 55, 0
2, 74850, Note_on_c, 0, 58, 64
2, 74872, Note_on_c, 0, 75, 0
2, 74876, Note_on_c, 0, 58, 0
2, 74880, Note_on_c, 0, 70, 64
2, 74880, Note_on_c, 0, 63, 64
2, 74906, Note_on_c, 0, 63, 0
2, 74910, Note_on_c, 0, 58, 64
2, 74932, Note_on_c, 0, 70, 0
2, 74936, Note_on_c, 0, 58, 0
2, 74940, Note_on_c, 0, 70, 64
2, 74940, Note_on_c, 0, 82, 64
2, 74940, Note_on_c, 0, 55, 64
2, 74966, Note_on_c, 0, 55, 0
2, 74966, Note_on_c, 0, 82, 0
2, 74966, Note_on_c, 0, 70, 0
2, 74970, Note_on_c, 0, 58, 64
2, 74996, Note_on_c, 0, 58, 0
2, 75000, Note_on_c, 0, 70, 64
2, 75000, Note_on_c, 0, 82, 64
2, 75000, Note_on_c, 0, 51, 64
2, 75026, Note_on_c, 0, 51, 0
2, 75030, Note_on_c, 0, 55, 64
2, 75052, Note_on_c, 0, 82, 0
2, 75052, Note_on_c, 0, 70, 0
2, 75056, Note_on_c, 0, 55, 0
2, 75060, Note_on_c, 0, 67, 64
2, 75060, Note_on_c, 0, 79, 64
2, 75060, Note_on_c, 0, 58, 64
2, 75086, Note_on_c, 0, 58, 0
2, 75090, Note_on_c, 0, 55, 64
2, 75112, Note_on_c, 0, 79, 0
2, 75112, Note_on_c, 0, 67, 0
2, 75116, Note_on_c, 0, 55, 0
2, 75120, Note_on_c, 0, 63, 64
2, 75120, Note_on_c, 0, 75, 64
2, 75120, Note_on_c, 0, 58, 64
2, 75146, Note_on_c, 0, 58, 0
2, 75150, Note_on_c, 0, 55, 64
2, 75172, Note_on_c, 0, 75, 0
2, 75172, Note_on_c, 0, 63, 0
2, 75176, Note_on_c, 0, 55, 0
2, 75180, Note_on_c, 0, 62, 64
2, 75180, Note_on_c, 0, 74, 64
2, 75180, Note_on_c, 0, 46, 64
2, 75206, Note_on_c, 0, 46, 0
2, 75210, Note_on_c, 0, 56, 64
2, 75232, Note_on_c, 0, 74, 0
2, 75232, Note_on_c, 0, 62, 0
2, 75236, Note_on_c, 0, 56, 0
2, 75240, Note_on_c, 0, 65, 64
2, 75240, Note_on_c, 0, 77, 64
2, 75240, Note_on_c, 0, 58, 64
2, 75266, Note_on_c, 0, 58, 0
2, 75270, Note_on_c, 0, 56, 64
2, 75292, Note_on_c, 0, 77, 0
2, 75292, Note_on_c, 0, 65, 0
2, 75296, Note_on_c, 0, 56, 0
2, 75300, Note_on_c, 0, 70, 64
2, 75300, Note_on_c, 0, 82, 64
2, 75300, Note_on_c, 0, 58, 64
2, 75326, Note_on_c, 0, 58, 0
2, 75326, Note_on_c, 0, 82, 0
2, 75326, Note_on_c, 0, 70, 0
2, 75330, Note_on_c, 0, 56, 64
2, 75356, Note_on_c, 0, 56, 0
2, 75360, Note_on_c, 0, 70, 64
2, 75360, Note_on_c, 0, 82, 64
2, 75360, Note_on_c, 0, 51, 64
2, 75386, Note_on_c, 0, 51, 0
2, 75390, Note_on_c, 0, 55, 64
2, 75412, Note_on_c, 0, 82, 0
2, 75412, Note_on_c, 0, 70, 0
2, 75416, Note_on_c, 0, 55, 0
2, 75420, Note_on_c, 0, 67, 64
2, 75420, Note_on_c, 0, 79, 64
2, 75420, Note_on_c, 0, 58, 64
2, 75446, Note_on_c, 0, 58, 0
2, 75450, Note_on_c, 0, 55, 64
2, 75472, Note_on_c, 0, 79, 0
2, 75472, Note_on_c, 0, 67, 0
2, 75476, Note_on_c, 0, 55, 0
2, 75480, Note_on_c, 0, 63, 64
2, 75480, Note_on_c, 0, 75, 64
2, 75480, Note_on_c, 0, 58, 64
2, 75506, Note_on_c, 0, 58, 0
2, 75510, Note_on_c, 0, 55, 64
2, 75532, Note_on_c, 0, 75, 0
2, 75532, Note_on_c, 0, 63, 0
2, 75536, Note_on_c, 0, 55, 0
2, 75540, Note_on_c, 0, 63, 64
2, 75540, Note_on_c, 0, 75, 64
2, 75540, Note_on_c, 0, 58, 64
2, 75566, Note_on_c, 0, 58, 0
2, 75570, Note_on_c, 0, 55, 64
2, 75592, Note_on_c, 0, 75, 0
2, 75592, Note_on_c, 0, 63, 0
2, 75596, Note_on_c, 0, 55, 0
2, 75600, Note_on_c, 0, 67, 64
2, 75600, Note_on_c, 0, 79, 64
2, 75600, Note_on_c, 0, 58, 64
2, 75626, Note_on_c, 0, 58, 0
2, 75630, Note_on_c, 0, 55, 64
2, 75652, Note_on_c, 0, 79, 0
2, 75652, Note_on_c, 0, 67, 0
2, 75656, Note_on_c, 0, 55, 0
2, 75660, Note_on_c, 0, 72, 64
2, 75660, Note_on_c, 0, 84, 64
2, 75660, Note_on_c, 0, 52, 64
2, 75686, Note_on_c, 0, 52, 0
2, 75686, Note_on_c, 0, 84, 0
2, 75686, Note_on_c, 0, 72, 0
2, 75690, Note_on_c, 0, 55, 64
2, 75716, Note_on_c, 0, 55, 0
2, 75720, Note_on_c, 0, 72, 64
2, 75720, Note_on_c, 0, 84, 64
2, 75720, Note_on_c, 0, 53, 64
2, 75746, Note_on_c, 0, 53, 0
2, 75750, Note_on_c, 0, 56, 64
2, 75772, Note_on_c, 0, 84, 0
2, 75772, Note_on_c, 0, 72, 0
2, 75776, Note_on_c, 0, 56, 0
2, 75780, Note_on_c, 0, 68, 64
2, 75780, Note_on_c, 0, 80, 64
2, 75780, Note_on_c, 0, 60, 64
2, 75806, Note_on_c, 0, 60, 0
2, 75810, Note_on_c, 0, 56, 64
2, 75832, Note_on_c, 0, 80, 0
2, 75832, Note_on_c, 0, 68, 0
2, 75836, Note_on_c, 0, 56, 0
2, 75840, Note_on_c, 0, 65, 64
2, 75840, Note_on_c, 0, 77, 64
2, 75840, Note_on_c, 0, 60, 64
2, 75866, Note_on_c, 0, 60, 0
2, 75870, Note_on_c, 0, 56, 64
2, 75892, Note_on_c, 0, 77, 0
2, 75892, Note_on_c, 0, 65, 0
2, 75896, Note_on_c, 0, 56, 0
2, 75900, Note_on_c, 0, 64, 64
2, 75900, Note_on_c, 0, 76, 64
2, 75900, Note_on_c, 0, 48, 64
2, 75926, Note_on_c, 0, 48, 0
2, 75930, Note_on_c, 0, 58, 64
2, 75952, Note_on_c, 0, 76, 0
2, 75952, Note_on_c, 0, 64, 0
2, 75956, Note_on_c, 0, 58, 0
2, 75960, Note_on_c, 0, 67, 64
2, 75960, Note_on_c, 0, 79, 64
2, 75960, Note_on_c, 0, 60, 64
2, 75986, Note_on_c, 0, 60, 0
2, 75990, Note_on_c, 0, 58, 64
2, 76012, Note_on_c, 0, 79, 0
2, 76012, Note_on_c, 0, 67, 0
2, 76016, Note_on_c, 0, 58, 0
2, 76020, Note_on_c, 0, 72, 64
2, 76020, Note_on_c, 0, 84, 64
2, 76020, Note_on_c, 0, 60, 64
2, 76046, Note_on_c, 0, 60, 0
2, 76046, Note_on_c, 0, 84, 0
2, 76046, Note_on_c, 0, 72, 0
2, 76050, Note_on_c, 0, 58, 64
2, 76076, Note_on_c, 0, 58, 0
2, 76080, Note_on_c, 0, 72, 64
2, 76080, Note_on_c, 0, 84, 64
2, 76080, Note_on_c, 0, 53, 64
2, 76106, Note_on_c, 0, 53, 0
2, 76110, Note_on_c, 0, 56, 64
2, 76132, Note_on_c, 0, 84, 0
2, 76132, Note_on_c, 0, 72, 0
2, 76136, Note_on_c, 0, 56, 0
2, 76140, Note_on_c, 0, 68, 64
2, 76140, Note_on_c, 0, 80, 64
2, 76140, Note_on_c, 0, 60, 64
2, 76166, Note_on_c, 0, 60, 0
2, 76170, Note_on_c, 0, 56, 64
2, 76192, Note_on_c, 0, 80, 0
2, 76192, Note_on_c, 0, 68, 0
2, 76196, Note_on_c, 0, 56, 0
2, 76200, Note_on_c, 0, 65, 64
2, 76200, Note_on_c, 0, 77, 64
2, 76200, Note_on_c, 0, 60, 64
2, 76226, Note_on_c, 0, 60, 0
2, 76230, Note_on_c, 0, 56, 64
2, 76252, Note_on_c, 0, 77, 0
2, 76252, Note_on_c, 0, 65, 0
2, 76256, Note_on_c, 0, 56, 0
2, 76260, Note_on_c, 0, 62, 64
2, 76260, Note_on_c, 0, 74, 64
2, 76260, Note_on_c, 0, 58, 64
2, 76286, Note_on_c, 0, 58, 0
2, 76290, Note_on_c, 0, 56, 64
2, 76312, Note_on_c, 0, 74, 0
2, 76312, Note_on_c, 0, 62, 0
2, 76316, Note_on_c, 0, 56, 0
2, 76320, Note_on_c, 0, 63, 64
2, 76320, Note_on_c, 0, 75, 64
2, 76320, Note_on_c, 0, 58, 64
2, 76346, Note_on_c, 0, 58, 0
2, 76350, Note_on_c, 0, 56, 64
2, 76372, Note_on_c, 0, 75, 0
2, 76372, Note_on_c, 0, 63, 0
2, 76376, Note_on_c, 0, 56, 0
2, 76380, Note_on_c, 0, 70, 64
2, 76380, Note_on_c, 0, 82, 64
2, 76380, Note_on_c, 0, 50, 64
2, 76406, Note_on_c, 0, 50, 0
2, 76406, Note_on_c, 0, 82, 0
2, 76406, Note_on_c, 0, 70, 0
2, 76410, Note_on_c, 0, 56, 64
2, 76436, Note_on_c, 0, 56, 0
2, 76440, Note_on_c, 0, 70, 64
2, 76440, Note_on_c, 0, 82, 64
2, 76440, Note_on_c, 0, 51, 64
2, 76466, Note_on_c, 0, 51, 0
2, 76470, Note_on_c, 0, 55, 64
2, 76492, Note_on_c, 0, 82, 0
2, 76492, Note_on_c, 0, 70, 0
2, 76496, Note_on_c, 0, 55, 0
2, 76500, Note_on_c, 0, 67, 64
2, 76500, Note_on_c, 0, 79, 64
2, 76500, Note_on_c, 0, 58, 64
2, 76526, Note_on_c, 0, 58, 0
2, 76530, Note_on_c, 0, 55, 64
2, 76552, Note_on_c, 0, 79, 0
2, 76552, Note_on_c, 0, 67, 0
2, 76556, Note_on_c, 0, 55, 0
2, 76560, Note_on_c, 0, 63, 64
2, 76560, Note_on_c, 0, 75, 64
2, 76560, Note_on_c, 0, 58, 64
2, 76586, Note_on_c, 0, 58, 0
2, 76590, Note_on_c, 0, 55, 64
2, 76612, Note_on_c, 0, 75, 0
2, 76612, Note_on_c, 0, 63, 0
2, 76616, Note_on_c, 0, 55, 0
2, 76620, Note_on_c, 0, 60, 64
2, 76620, Note_on_c, 0, 72, 64
2, 76620, Note_on_c, 0, 44, 64
2, 76646, Note_on_c, 0, 44, 0
2, 76650, Note_on_c, 0, 53, 64
2, 76672, Note_on_c, 0, 72, 0
2, 76672, Note_on_c, 0, 60, 0
2, 76676, Note_on_c, 0, 53, 0
2, 76680, Note_on_c, 0, 65, 64
2, 76680, Note_on_c, 0, 77, 64
2, 76680, Note_on_c, 0, 56, 64
2, 76706, Note_on_c, 0, 56, 0
2, 76710, Note_on_c, 0, 53, 64
2, 76732, Note_on_c, 0, 77, 0
2, 76732, Note_on_c, 0, 65, 0
2, 76736, Note_on_c, 0, 53, 0
2, 76740, Note_on_c, 0, 68, 64
2, 76740, Note_on_c, 0, 80, 64
2, 76740, Note_on_c, 0, 56, 64
2, 76766, Note_on_c, 0, 56, 0
2, 76766, Note_on_c, 0, 80, 0
2, 76766, Note_on_c, 0, 68, 0
2, 76770, Note_on_c, 0, 53, 64
2, 76796, Note_on_c, 0, 53, 0
2, 76800, Note_on_c, 0, 58, 64
2, 76800, Note_on_c, 0, 70, 64
2, 76800, Note_on_c, 0, 46, 64
2, 76826, Note_on_c, 0, 46, 0
2, 76830, Note_on_c, 0, 51, 64
2, 76852, Note_on_c, 0, 70, 0
2, 76856, Note_on_c, 0, 51, 0
2, 76860, Note_on_c, 0, 58, 0
2, 76860, Note_on_c, 0, 63, 64
2, 76860, Note_on_c, 0, 75, 64
2, 76860, Note_on_c, 0, 55, 64
2, 76886, Note_on_c, 0, 55, 0
2, 76890, Note_on_c, 0, 51, 64
2, 76912, Note_on_c, 0, 75, 0
2, 76912, Note_on_c, 0, 63, 0
2, 76916, Note_on_c, 0, 51, 0
2, 76920, Note_on_c, 0, 67, 64
2, 76920, Note_on_c, 0, 79, 64
2, 76920, Note_on_c, 0, 55, 64
2, 76946, Note_on_c, 0, 55, 0
2, 76946, Note_on_c, 0, 79, 0
2, 76946, Note_on_c, 0, 67, 0
2, 76950, Note_on_c, 0, 51, 64
2, 76976, Note_on_c, 0, 51, 0
2, 76980, Note_on_c, 0, 58, 64
2, 76980, Note_on_c, 0, 70, 64
2, 76980, Note_on_c, 0, 46, 64
2, 77006, Note_on_c, 0, 46, 0
2, 77010, Note_on_c, 0, 50, 64
2, 77032, Note_on_c, 0, 70, 0
2, 77036, Note_on_c, 0, 50, 0
2, 77040, Note_on_c, 0, 58, 0
2, 77040, Note_on_c, 0, 62, 64
2, 77040, Note_on_c, 0, 74, 64
2, 77040, Note_on_c, 0, 53, 64
2, 77066, Note_on_c, 0, 53, 0
2, 77070, Note_on_c, 0, 50, 64
2, 77092, Note_on_c, 0, 74, 0
2, 77092, Note_on_c, 0, 62, 0
2, 77096, Note_on_c, 0, 50, 0
2, 77100, Note_on_c, 0, 70, 64
2, 77100, Note_on_c, 0, 46, 64
2, 77100, Note_on_c, 0, 58, 64
2, 77126, Note_on_c, 0, 58, 0
2, 77126, Note_on_c, 0, 46, 0
2, 77130, Note_on_c, 0, 70, 0
2, 77130, Note_on_c, 0, 77, 64
2, 77156, Note_on_c, 0, 77, 0
2, 77160, Note_on_c, 0, 46, 64
2, 77160, Note_on_c, 0, 58, 64
2, 77186, Note_on_c, 0, 58, 0
2, 77186, Note_on_c, 0, 46, 0
2, 77190, Note_on_c, 0, 79, 64
2, 77216, Note_on_c, 0, 79, 0
2, 77220, Note_on_c, 0, 82, 64
2, 77220, Note_on_c, 0, 43, 64
2, 77220, Note_on_c, 0, 55, 64
2, 77246, Note_on_c, 0, 55, 0
2, 77246, Note_on_c, 0, 43, 0
2, 77246, Note_on_c, 0, 82, 0
2, 77250, Note_on_c, 0, 87, 64
2, 77276, Note_on_c, 0, 87, 0
2, 77280, Note_on_c, 0, 91, 64
2, 77280, Note_on_c, 0, 39, 64
2, 77280, Note_on_c, 0, 51, 64
2, 77306, Note_on_c, 0, 51, 0
2, 77306, Note_on_c, 0, 39, 0
2, 77306, Note_on_c, 0, 91, 0
2, 77310, Note_on_c, 0, 79, 64
2, 77336, Note_on_c, 0, 79, 0
2, 77340, Note_on_c, 0, 38, 64
2, 77340, Note_on_c, 0, 50, 64
2, 77366, Note_on_c, 0, 50, 0
2, 77366, Note_on_c, 0, 38, 0
2, 77370, Note_on_c, 0, 80, 64
2, 77396, Note_on_c, 0, 80, 0
2, 77400, Note_on_c, 0, 82, 64
2, 77400, Note_on_c, 0, 41, 64
2, 77400, Note_on_c, 0, 53, 64
2, 77426, Note_on_c, 0, 53, 0
2, 77426, Note_on_c, 0, 41, 0
2, 77426, Note_on_c, 0, 82, 0
2, 77430, Note_on_c, 0, 89, 64
2, 77456, Note_on_c, 0, 89, 0
2, 77460, Note_on_c, 0, 92, 64
2, 77460, Note_on_c, 0, 46, 64
2, 77460, Note_on_c, 0, 58, 64
2, 77486, Note_on_c, 0, 58, 0
2, 77486, Note_on_c, 0, 46, 0
2, 77486, Note_on_c, 0, 92, 0
2, 77490, Note_on_c, 0, 80, 64
2, 77516, Note_on_c, 0, 80, 0
2, 77520, Note_on_c, 0, 46, 64
2, 77520, Note_on_c, 0, 58, 64
2, 77546, Note_on_c, 0, 58, 0
2, 77546, Note_on_c, 0, 46, 0
2, 77550, Note_on_c, 0, 79, 64
2, 77576, Note_on_c, 0, 79, 0
2, 77580, Note_on_c, 0, 82, 64
2, 77580, Note_on_c, 0, 43, 64
2, 77580, Note_on_c, 0, 55, 64
2, 77606, Note_on_c, 0, 55, 0
2, 77606, Note_on_c, 0, 43, 0
2, 77606, Note_on_c, 0, 82, 0
2, 77610, Note_on_c, 0, 87, 64
2, 77636, Note_on_c, 0, 87, 0
2, 77640, Note_on_c, 0, 91, 64
2, 77640, Note_on_c, 0, 39, 64
2, 77640, Note_on_c, 0, 51, 64
2, 77666, Note_on_c, 0, 51, 0
2, 77666, Note_on_c, 0, 39, 0
2, 77666, Note_on_c, 0, 91, 0
2, 77670, Note_on_c, 0, 79, 64
2, 77696, Note_on_c, 0, 79, 0
2, 77700, Note_on_c, 0, 39, 64
2, 77700, Note_on_c, 0, 51, 64
2, 77726, Note_on_c, 0, 51, 0
2, 77726, Note_on_c, 0, 39, 0
2, 77730, Note_on_c, 0, 79, 64
2, 77756, Note_on_c, 0, 79, 0
2, 77760, Note_on_c, 0, 82, 64
2, 77760, Note_on_c, 0, 43, 64
2, 77760, Note_on_c, 0, 55, 64
2, 77786, Note_on_c, 0, 55, 0
2, 77786, Note_on_c, 0, 43, 0
2, 77786, Note_on_c, 0, 82, 0
2, 77790, Note_on_c, 0, 87, 64
2, 77816, Note_on_c, 0, 87, 0
2, 77820, Note_on_c, 0, 91, 64
2, 77820, Note_on_c, 0, 48, 64
2, 77820, Note_on_c, 0, 60, 64
2, 77846, Note_on_c, 0, 60, 0
2, 77846, Note_on_c, 0, 48, 0
2, 77846, Note_on_c, 0, 91, 0
2, 77850, Note_on_c, 0, 88, 64
2, 77876, Note_on_c, 0, 88, 0
2, 77880, Note_on_c, 0, 48, 64
2, 77880, Note_on_c, 0, 60, 64
2, 77906, Note_on_c, 0, 60, 0
2, 77906, Note_on_c, 0, 48, 0
2, 77910, Note_on_c, 0, 80, 64
2, 77936, Note_on_c, 0, 80, 0
2, 77940, Note_on_c, 0, 84, 64
2, 77940, Note_on_c, 0, 44, 64
2, 77940, Note_on_c, 0, 56, 64
2, 77966, Note_on_c, 0, 56, 0
2, 77966, Note_on_c, 0, 44, 0
2, 77966, Note_on_c, 0, 84, 0
2, 77970, Note_on_c, 0, 89, 64
2, 77996, Note_on_c, 0, 89, 0
2, 78000, Note_on_c, 0, 92, 64
2, 78000, Note_on_c, 0, 41, 64
2, 78000, Note_on_c, 0, 53, 64
2, 78026, Note_on_c, 0, 53, 0
2, 78026, Note_on_c, 0, 41, 0
2, 78026, Note_on_c, 0, 92, 0
2, 78030, Note_on_c, 0, 80, 64
2, 78056, Note_on_c, 0, 80, 0
2, 78060, Note_on_c, 0, 40, 64
2, 78060, Note_on_c, 0, 52, 64
2, 78086, Note_on_c, 0, 52, 0
2, 78086, Note_on_c, 0, 40, 0
2, 78090, Note_on_c, 0, 82, 64
2, 78116, Note_on_c, 0, 82, 0
2, 78120, Note_on_c, 0, 84, 64
2, 78120, Note_on_c, 0, 43, 64
2, 78120, Note_on_c, 0, 55, 64
2, 78146, Note_on_c, 0, 55, 0
2, 78146, Note_on_c, 0, 43, 0
2, 78146, Note_on_c, 0, 84, 0
2, 78150, Note_on_c, 0, 91, 64
2, 78176, Note_on_c, 0, 91, 0
2, 78180, Note_on_c, 0, 94, 64
2, 78180, Note_on_c, 0, 48, 64
2, 78180, Note_on_c, 0, 60, 64
2, 78206, Note_on_c, 0, 60, 0
2, 78206, Note_on_c, 0, 48, 0
2, 78206, Note_on_c, 0, 94, 0
2, 78210, Note_on_c, 0, 82, 64
2, 78236, Note_on_c, 0, 82, 0
2, 78240, Note_on_c, 0, 48, 64
2, 78240, Note_on_c, 0, 60, 64
2, 78266, Note_on_c, 0, 60, 0
2, 78266, Note_on_c, 0, 48, 0
2, 78270, Note_on_c, 0, 80, 64
2, 78296, Note_on_c, 0, 80, 0
2, 78300, Note_on_c, 0, 84, 64
2, 78300, Note_on_c, 0, 44, 64
2, 78300, Note_on_c, 0, 56, 64
2, 78326, Note_on_c, 0, 56, 0
2, 78326, Note_on_c, 0, 44, 0
2, 78326, Note_on_c, 0, 84, 0
2, 78330, Note_on_c, 0, 89, 64
2, 78356, Note_on_c, 0, 89, 0
2, 78360, Note_on_c, 0, 92, 64
2, 78360, Note_on_c, 0, 41, 64
2, 78360, Note_on_c, 0, 53, 64
2, 78386, Note_on_c, 0, 53, 0
2, 78386, Note_on_c, 0, 41, 0
2, 78386, Note_on_c, 0, 92, 0
2, 78390, Note_on_c, 0, 80, 64
2, 78416, Note_on_c, 0, 80, 0
2, 78420, Note_on_c, 0, 38, 64
2, 78420, Note_on_c, 0, 50, 64
2, 78446, Note_on_c, 0, 50, 0
2, 78446, Note_on_c, 0, 38, 0
2, 78450, Note_on_c, 0, 80, 64
2, 78476, Note_on_c, 0, 80, 0
2, 78480, Note_on_c, 0, 82, 64
2, 78480, Note_on_c, 0, 41, 64
2, 78480, Note_on_c, 0, 53, 64
2, 78506, Note_on_c, 0, 53, 0
2, 78506, Note_on_c, 0, 41, 0
2, 78506, Note_on_c, 0, 82, 0
2, 78510, Note_on_c, 0, 89, 64
2, 78536, Note_on_c, 0, 89, 0
2, 78540, Note_on_c, 0, 92, 64
2, 78540, Note_on_c, 0, 46, 64
2, 78540, Note_on_c, 0, 58, 64
2, 78566, Note_on_c, 0, 58, 0
2, 78566, Note_on_c, 0, 46, 0
2, 78566, Note_on_c, 0, 92, 0
2, 78570, Note_on_c, 0, 80, 64
2, 78596, Note_on_c, 0, 80, 0
2, 78600, Note_on_c, 0, 46, 64
2, 78600, Note_on_c, 0, 58, 64
2, 78626, Note_on_c, 0, 58, 0
2, 78626, Note_on_c, 0, 46, 0
2, 78630, Note_on_c, 0, 79, 64
2, 78656, Note_on_c, 0, 79, 0
2, 78660, Note_on_c, 0, 82, 64
2, 78660, Note_on_c, 0, 43, 64
2, 78660, Note_on_c, 0, 55, 64
2, 78686, Note_on_c, 0, 55, 0
2, 78686, Note_on_c, 0, 43, 0
2, 78686, Note_on_c, 0, 82, 0
2, 78690, Note_on_c, 0, 87, 64
2, 78716, Note_on_c, 0, 87, 0
2, 78720, Note_on_c, 0, 91, 64
2, 78720, Note_on_c, 0, 39, 64
2, 78720, Note_on_c, 0, 51, 64
2, 78746, Note_on_c, 0, 51, 0
2, 78746, Note_on_c, 0, 39, 0
2, 78746, Note_on_c, 0, 91, 0
2, 78750, Note_on_c, 0, 79, 64
2, 78776, Note_on_c, 0, 79, 0
2, 78780, Note_on_c, 0, 36, 64
2, 78780, Note_on_c, 0, 48, 64
2, 78806, Note_on_c, 0, 48, 0
2, 78806, Note_on_c, 0, 36, 0
2, 78810, Note_on_c, 0, 92, 64
2, 78836, Note_on_c, 0, 92, 0
2, 78840, Note_on_c, 0, 89, 64
2, 78840, Note_on_c, 0, 41, 64
2, 78840, Note_on_c, 0, 53, 64
2, 78866, Note_on_c, 0, 53, 0
2, 78866, Note_on_c, 0, 41, 0
2, 78866, Note_on_c, 0, 89, 0
2, 78870, Note_on_c, 0, 87, 64
2, 78896, Note_on_c, 0, 87, 0
2, 78900, Note_on_c, 0, 80, 64
2, 78900, Note_on_c, 0, 44, 64
2, 78900, Note_on_c, 0, 56, 64
2, 78926, Note_on_c, 0, 56, 0
2, 78926, Note_on_c, 0, 44, 0
2, 78926, Note_on_c, 0, 80, 0
2, 78930, Note_on_c, 0, 92, 64
2, 78956, Note_on_c, 0, 92, 0
2, 78960, Note_on_c, 0, 34, 64
2, 78960, Note_on_c, 0, 46, 64
2, 78986, Note_on_c, 0, 46, 0
2, 78986, Note_on_c, 0, 34, 0
2, 78990, Note_on_c, 0, 94, 64
2, 79016, Note_on_c, 0, 94, 0
2, 79020, Note_on_c, 0, 91, 64
2, 79020, Note_on_c, 0, 39, 64
2, 79020, Note_on_c, 0, 51, 64
2, 79046, Note_on_c, 0, 51, 0
2, 79046, Note_on_c, 0, 39, 0
2, 79046, Note_on_c, 0, 91, 0
2, 79050, Note_on_c, 0, 87, 64
2, 79076, Note_on_c, 0, 87, 0
2, 79080, Note_on_c, 0, 82, 64
2, 79080, Note_on_c, 0, 43, 64
2, 79080, Note_on_c, 0, 55, 64
2, 79106, Note_on_c, 0, 55, 0
2, 79106, Note_on_c, 0, 43, 0
2, 79106, Note_on_c, 0, 82, 0
2, 79110, Note_on_c, 0, 94, 64
2, 79136, Note_on_c, 0, 94, 0
2, 79140, Note_on_c, 0, 34, 64
2, 79140, Note_on_c, 0, 46, 64
2, 79166, Note_on_c, 0, 46, 0
2, 79166, Note_on_c, 0, 34, 0
2, 79170, Note_on_c, 0, 94, 64
2, 79196, Note_on_c, 0, 94, 0
2, 79200, Note_on_c, 0, 89, 64
2, 79200, Note_on_c, 0, 41, 64
2, 79200, Note_on_c, 0, 53, 64
2, 79226, Note_on_c, 0, 53, 0
2, 79226, Note_on_c, 0, 41, 0
2, 79226, Note_on_c, 0, 89, 0
2, 79230, Note_on_c, 0, 86, 64
2, 79256, Note_on_c, 0, 86, 0
2, 79260, Note_on_c, 0, 82, 64
2, 79260, Note_on_c, 0, 46, 64
2, 79260, Note_on_c, 0, 58, 64
2, 79286, Note_on_c, 0, 58, 0
2, 79286, Note_on_c, 0, 46, 0
2, 79286, Note_on_c, 0, 82, 0
2, 79290, Note_on_c, 0, 94, 64
2, 79316, Note_on_c, 0, 94, 0
2, 79320, Note_on_c, 0, 55, 64
2, 79320, Note_on_c, 0, 39, 64
2, 79320, Control_c, 0, 64, 105
2, 79346, Note_on_c, 0, 55, 0
2, 79350, Note_on_c, 0, 63, 64
2, 79372, Note_on_c, 0, 39, 0
2, 79376, Note_on_c, 0, 63, 0
2, 79380, Note_on_c, 0, 58, 64
2, 79380, Note_on_c, 0, 51, 64
2, 79380, Note_on_c, 0, 55, 64
2, 79406, Note_on_c, 0, 58, 0
2, 79410, Note_on_c, 0, 67, 64
2, 79432, Note_on_c, 0, 55, 0
2, 79432, Note_on_c, 0, 51, 0
2, 79436, Note_on_c, 0, 67, 0
2, 79440, Note_on_c, 0, 63, 64
2, 79440, Note_on_c, 0, 51, 64
2, 79440, Note_on_c, 0, 55, 64
2, 79440, Note_on_c, 0, 58, 64
2, 79466, Note_on_c, 0, 63, 0
2, 79470, Note_on_c, 0, 70, 64
2, 79492, Note_on_c, 0, 51, 0
2, 79492, Note_on_c, 0, 58, 0
2, 79492, Note_on_c, 0, 55, 0
2, 79496, Note_on_c, 0, 70, 0
2, 79500, Note_on_c, 0, 67, 64
2, 79500, Note_on_c, 0, 51, 64
2, 79500, Note_on_c, 0, 55, 64
2, 79500, Note_on_c, 0, 58, 64
2, 79500, Note_on_c, 0, 63, 64
2, 79526, Note_on_c, 0, 67, 0
2, 79530, Note_on_c, 0, 75, 64
2, 79552, Note_on_c, 0, 58, 0
2, 79552, Note_on_c, 0, 63, 0
2, 79552, Note_on_c, 0, 51, 0
2, 79552, Note_on_c, 0, 55, 0
2, 79556, Note_on_c, 0, 75, 0
2, 79560, Note_on_c, 0, 70, 64
2, 79560, Note_on_c, 0, 51, 64
2, 79560, Note_on_c, 0, 55, 64
2, 79560, Note_on_c, 0, 58, 64
2, 79560, Note_on_c, 0, 63, 64
2, 79586, Note_on_c, 0, 70, 0
2, 79590, Note_on_c, 0, 79, 64
2, 79612, Note_on_c, 0, 58, 0
2, 79612, Note_on_c, 0, 63, 0
2, 79612, Note_on_c, 0, 51, 0
2, 79612, Note_on_c, 0, 55, 0
2, 79616, Note_on_c, 0, 79, 0
2, 79620, Note_on_c, 0, 75, 64
2, 79620, Note_on_c, 0, 51, 64
2, 79620, Note_on_c, 0, 55, 64
2, 79620, Note_on_c, 0, 58, 64
2, 79620, Note_on_c, 0, 63, 64
2, 79646, Note_on_c, 0, 75, 0
2, 79650, Note_on_c, 0, 82, 64
2, 79672, Note_on_c, 0, 58, 0
2, 79672, Note_on_c, 0, 63, 0
2, 79672, Note_on_c, 0, 51, 0
2, 79672, Note_on_c, 0, 55, 0
2, 79676, Note_on_c, 0, 82, 0
2, 79680, Note_on_c, 0, 79, 64
2, 79680, Note_on_c, 0, 51, 64
2, 79680, Note_on_c, 0, 55, 64
2, 79680, Note_on_c, 0, 58, 64
2, 79680, Note_on_c, 0, 63, 64
2, 79706, Note_on_c, 0, 79, 0
2, 79710, Note_on_c, 0, 87, 64
2, 79732, Note_on_c, 0, 58, 0
2, 79732, Note_on_c, 0, 63, 0
2, 79732, Note_on_c, 0, 51, 0
2, 79732, Note_on_c, 0, 55, 0
2, 79736, Note_on_c, 0, 87, 0
2, 79740, Note_on_c, 0, 82, 64
2, 79740, Note_on_c, 0, 51, 64
2, 79740, Note_on_c, 0, 55, 64
2, 79740, Note_on_c, 0, 58, 64
2, 79740, Note_on_c, 0, 63, 64
2, 79766, Note_on_c, 0, 82, 0
2, 79770, Note_on_c, 0, 91, 64
2, 79792, Note_on_c, 0, 58, 0
2, 79792, Note_on_c, 0, 63, 0
2, 79792, Note_on_c, 0, 51, 0
2, 79792, Note_on_c, 0, 55, 0
2, 79796, Note_on_c, 0, 91, 0
2, 79800, Note_on_c, 0, 87, 64
2, 79800, Note_on_c, 0, 51, 64
2, 79800, Note_on_c, 0, 55, 64
2, 79800, Note_on_c, 0, 58, 64
2, 79800, Note_on_c, 0, 63, 64
2, 79826, Note_on_c, 0, 87, 0
2, 79830, Note_on_c, 0, 94, 64
2, 79852, Note_on_c, 0, 58, 0
2, 79852, Note_on_c, 0, 63, 0
2, 79852, Note_on_c, 0, 51, 0
2, 79852, Note_on_c, 0, 55, 0
2, 79852, Control_c, 0, 64, 0
2, 79856, Note_on_c, 0, 94, 0
2, 79860, Note_on_c, 0, 93, 64
2, 79860, Note_on_c, 0, 51, 64
2, 79860, Note_on_c, 0, 53, 64
2, 79860, Note_on_c, 0, 56, 64
2, 79860, Note_on_c, 0, 58, 64
2, 79860, Note_on_c, 0, 62, 64
2, 79886, Note_on_c, 0, 93, 0
2, 79890, Note_on_c, 0, 94, 64
2, 79912, Note_on_c, 0, 53, 0
2, 79912, Note_on_c, 0, 58, 0
2, 79912, Note_on_c, 0, 56, 0
2, 79912, Note_on_c, 0, 51, 0
2, 79912, Note_on_c, 0, 62, 0
2, 79916, Note_on_c, 0, 94, 0
2, 79920, Note_on_c, 0, 93, 64
2, 79920, Note_on_c, 0, 51, 64
2, 79920, Note_on_c, 0, 53, 64
2, 79920, Note_on_c, 0, 56, 64
2, 79920, Note_on_c, 0, 58, 64
2, 79920, Note_on_c, 0, 62, 64
2, 79946, Note_on_c, 0, 93, 0
2, 79950, Note_on_c, 0, 94, 64
2, 79972, Note_on_c, 0, 53, 0
2, 79972, Note_on_c, 0, 58, 0
2, 79972, Note_on_c, 0, 56, 0
2, 79972, Note_on_c, 0, 51, 0
2, 79972, Note_on_c, 0, 62, 0
2, 79976, Note_on_c, 0, 94, 0
2, 79980, Note_on_c, 0, 93, 64
2, 79980, Note_on_c, 0, 51, 64
2, 79980, Note_on_c, 0, 53, 64
2, 79980, Note_on_c, 0, 56, 64
2, 79980, Note_on_c, 0, 58, 64
2, 79980, Note_on_c, 0, 62, 64
2, 80006, Note_on_c, 0, 93, 0
2, 80010, Note_on_c, 0, 94, 64
2, 80032, Note_on_c, 0, 53, 0
2, 80032, Note_on_c, 0, 58, 0
2, 80032, Note_on_c, 0, 56, 0
2, 80032, Note_on_c, 0, 51, 0
2, 80032, Note_on_c, 0, 62, 0
2, 80036, Note_on_c, 0, 94, 0
2, 80040, Note_on_c, 0, 96, 64
2, 80040, Note_on_c, 0, 51, 64
2, 80040, Note_on_c, 0, 55, 64
2, 80040, Note_on_c, 0, 58, 64
2, 80040, Note_on_c, 0, 63, 64
2, 80066, Note_on_c, 0, 96, 0
2, 80070, Note_on_c, 0, 94, 64
2, 80092, Note_on_c, 0, 58, 0
2, 80092, Note_on_c, 0, 63, 0
2, 80092, Note_on_c, 0, 51, 0
2, 80092, Note_on_c, 0, 55, 0
2, 80096, Note_on_c, 0, 94, 0
2, 80100, Note_on_c, 0, 92, 64
2, 80100, Note_on_c, 0, 51, 64
2, 80100, Note_on_c, 0, 55, 64
2, 80100, Note_on_c, 0, 58, 64
2, 80100, Note_on_c, 0, 63, 64
2, 80126, Note_on_c, 0, 92, 0
2, 80130, Note_on_c, 0, 91, 64
2, 80152, Note_on_c, 0, 58, 0
2, 80152, Note_on_c, 0, 63, 0
2, 80152, Note_on_c, 0, 51, 0
2, 80152, Note_on_c, 0, 55, 0
2, 80156, Note_on_c, 0, 91, 0
2, 80160, Note_on_c, 0, 89, 64
2, 80160, Note_on_c, 0, 51, 64
2, 80160, Note_on_c, 0, 55, 64
2, 80160, Note_on_c, 0, 58, 64
2, 80160, Note_on_c, 0, 63, 64
2, 80186, Note_on_c, 0, 89, 0
2, 80190, Note_on_c, 0, 87, 64
2, 80212, Note_on_c, 0, 58, 0
2, 80212, Note_on_c, 0, 63, 0
2, 80212, Note_on_c, 0, 51, 0
2, 80212, Note_on_c, 0, 55, 0
2, 80216, Note_on_c, 0, 87, 0
2, 80220, Note_on_c, 0, 86, 64
2, 80220, Note_on_c, 0, 51, 64
2, 80220, Note_on_c, 0, 55, 64
2, 80220, Note_on_c, 0, 58, 64
2, 80220, Note_on_c, 0, 63, 64
2, 80246, Note_on_c, 0, 86, 0
2, 80250, Note_on_c, 0, 84, 64
2, 80272, Note_on_c, 0, 58, 0
2, 80272, Note_on_c, 0, 63, 0
2, 80272, Note_on_c, 0, 51, 0
2, 80272, Note_on_c, 0, 55, 0
2, 80276, Note_on_c, 0, 84, 0
2, 80280, Note_on_c, 0, 82, 64
2, 80280, Note_on_c, 0, 51, 64
2, 80280, Note_on_c, 0, 55, 64
2, 80280, Note_on_c, 0, 58, 64
2, 80280, Note_on_c, 0, 63, 64
2, 80306, Note_on_c, 0, 82, 0
2, 80310, Note_on_c, 0, 80, 64
2, 80332, Note_on_c, 0, 58, 0
2, 80332, Note_on_c, 0, 63, 0
2, 80332, Note_on_c, 0, 51, 0
2, 80332, Note_on_c, 0, 55, 0
2, 80336, Note_on_c, 0, 80, 0
2, 80340, Note_on_c, 0, 79, 64
2, 80340, Note_on_c, 0, 51, 64
2, 80340, Note_on_c, 0, 55, 64
2, 80340, Note_on_c, 0, 58, 64
2, 80340, Note_on_c, 0, 63, 64
2, 80366, Note_on_c, 0, 79, 0
2, 80370, Note_on_c, 0, 77, 64
2, 80392, Note_on_c, 0, 58, 0
2, 80392, Note_on_c, 0, 63, 0
2, 80392, Note_on_c, 0, 51, 0
2, 80392, Note_on_c, 0, 55, 0
2, 80396, Note_on_c, 0, 77, 0
2, 80400, Note_on_c, 0, 75, 64
2, 80400, Note_on_c, 0, 51, 64
2, 80400, Note_on_c, 0, 55, 64
2, 80400, Note_on_c, 0, 58, 64
2, 80400, Note_on_c, 0, 63, 64
2, 80426, Note_on_c, 0, 75, 0
2, 80430, Note_on_c, 0, 74, 64
2, 80452, Note_on_c, 0, 58, 0
2, 80452, Note_on_c, 0, 63, 0
2, 80452, Note_on_c, 0, 51, 0
2, 80452, Note_on_c, 0, 55, 0
2, 80456, Note_on_c, 0, 74, 0
2, 80460, Note_on_c, 0, 72, 64
2, 80460, Note_on_c, 0, 51, 64
2, 80460, Note_on_c, 0, 55, 64
2, 80460, Note_on_c, 0, 58, 64
2, 80460, Note_on_c, 0, 63, 64
2, 80486, Note_on_c, 0, 72, 0
2, 80490, Note_on_c, 0, 70, 64
2, 80512, Note_on_c, 0, 58, 0
2, 80512, Note_on_c, 0, 63, 0
2, 80512, Note_on_c, 0, 51, 0
2, 80512, Note_on_c, 0, 55, 0
2, 80516, Note_on_c, 0, 70, 0
2, 80520, Note_on_c, 0, 68, 64
2, 80520, Note_on_c, 0, 51, 64
2, 80520, Note_on_c, 0, 55, 64
2, 80520, Note_on_c, 0, 58, 64
2, 80520, Note_on_c, 0, 63, 64
2, 80546, Note_on_c, 0, 68, 0
2, 80550, Note_on_c, 0, 67, 64
2, 80572, Note_on_c, 0, 58, 0
2, 80572, Note_on_c, 0, 63, 0
2, 80572, Note_on_c, 0, 51, 0
2, 80572, Note_on_c, 0, 55, 0
2, 80576, Note_on_c, 0, 67, 0
2, 80580, Note_on_c, 0, 65, 64
2, 80580, Note_on_c, 0, 51, 64
2, 80580, Note_on_c, 0, 53, 64
2, 80580, Note_on_c, 0, 56, 64
2, 80580, Note_on_c, 0, 58, 64
2, 80606, Note_on_c, 0, 65, 0
2, 80610, Note_on_c, 0, 63, 64
2, 80632, Note_on_c, 0, 56, 0
2, 80632, Note_on_c, 0, 58, 0
2, 80632, Note_on_c, 0, 51, 0
2, 80632, Note_on_c, 0, 53, 0
2, 80636, Note_on_c, 0, 63, 0
2, 80640, Note_on_c, 0, 62, 64
2, 80640, Note_on_c, 0, 51, 64
2, 80640, Note_on_c, 0, 53, 64
2, 80640, Note_on_c, 0, 56, 64
2, 80640, Note_on_c, 0, 58, 64
2, 80666, Note_on_c, 0, 62, 0
2, 80670, Note_on_c, 0, 65, 64
2, 80692, Note_on_c, 0, 56, 0
2, 80692, Note_on_c, 0, 58, 0
2, 80692, Note_on_c, 0, 51, 0
2, 80692, Note_on_c, 0, 53, 0
2, 80696, Note_on_c, 0, 65, 0
2, 80700, Note_on_c, 0, 68, 64
2, 80700, Note_on_c, 0, 51, 64
2, 80700, Note_on_c, 0, 53, 64
2, 80700, Note_on_c, 0, 56, 64
2, 80700, Note_on_c, 0, 58, 64
2, 80726, Note_on_c, 0, 68, 0
2, 80730, Note_on_c, 0, 62, 64
2, 80752, Note_on_c, 0, 56, 0
2, 80752, Note_on_c, 0, 58, 0
2, 80752, Note_on_c, 0, 51, 0
2, 80752, Note_on_c, 0, 53, 0
2, 80752, Control_c, 0, 64, 107
2, 80756, Note_on_c, 0, 62, 0
2, 80760, Note_on_c, 0, 55, 64
2, 80760, Note_on_c, 0, 39, 64
2, 80786, Note_on_c, 0, 55, 0
2, 80790, Note_on_c, 0, 63, 64
2, 80812, Note_on_c, 0, 39, 0
2, 80816, Note_on_c, 0, 63, 0
2, 80820, Note_on_c, 0, 58, 64
2, 80820, Note_on_c, 0, 51, 64
2, 80820, Note_on_c, 0, 55, 64
2, 80846, Note_on_c, 0, 58, 0
2, 80850, Note_on_c, 0, 67, 64
2, 80872, Note_on_c, 0, 55, 0
2, 80872, Note_on_c, 0, 51, 0
2, 80876, Note_on_c, 0, 67, 0
2, 80880, Note_on_c, 0, 63, 64
2, 80880, Note_on_c, 0, 51, 64
2, 80880, Note_on_c, 0, 55, 64
2, 80880, Note_on_c, 0, 58, 64
2, 80906, Note_on_c, 0, 63, 0
2, 80910, Note_on_c, 0, 70, 64
2, 80932, Note_on_c, 0, 51, 0
2, 80932, Note_on_c, 0, 58, 0
2, 80932, Note_on_c, 0, 55, 0
2, 80936, Note_on_c, 0, 70, 0
2, 80940, Note_on_c, 0, 67, 64
2, 80940, Note_on_c, 0, 51, 64
2, 80940, Note_on_c, 0, 55, 64
2, 80940, Note_on_c, 0, 58, 64
2, 80940, Note_on_c, 0, 63, 64
2, 80966, Note_on_c, 0, 67, 0
2, 80970, Note_on_c, 0, 75, 64
2, 80992, Note_on_c, 0, 58, 0
2, 80992, Note_on_c, 0, 63, 0
2, 80992, Note_on_c, 0, 51, 0
2, 80992, Note_on_c, 0, 55, 0
2, 80996, Note_on_c, 0, 75, 0
2, 81000, Note_on_c, 0, 70, 64
2, 81000, Note_on_c, 0, 51, 64
2, 81000, Note_on_c, 0, 55, 64
2, 81000, Note_on_c, 0, 58, 64
2, 81000, Note_on_c, 0, 63, 64
2, 81026, Note_on_c, 0, 70, 0
2, 81030, Note_on_c, 0, 79, 64
2, 81052, Note_on_c, 0, 58, 0
2, 81052, Note_on_c, 0, 63, 0
2, 81052, Note_on_c, 0, 51, 0
2, 81052, Note_on_c, 0, 55, 0
2, 81056, Note_on_c, 0, 79, 0
2, 81060, Note_on_c, 0, 75, 64
2, 81060, Note_on_c, 0, 51, 64
2, 81060, Note_on_c, 0, 55, 64
2, 81060, Note_on_c, 0, 58, 64
2, 81060, Note_on_c, 0, 63, 64
2, 81086, Note_on_c, 0, 75, 0
2, 81090, Note_on_c, 0, 82, 64
2, 81112, Note_on_c, 0, 58, 0
2, 81112, Note_on_c, 0, 63, 0
2, 81112, Note_on_c, 0, 51, 0
2, 81112, Note_on_c, 0, 55, 0
2, 81116, Note_on_c, 0, 82, 0
2, 81120, Note_on_c, 0, 79, 64
2, 81120, Note_on_c, 0, 51, 64
2, 81120, Note_on_c, 0, 55, 64
2, 81120, Note_on_c, 0, 58, 64
2, 81120, Note_on_c, 0, 63, 64
2, 81146, Note_on_c, 0, 79, 0
2, 81150, Note_on_c, 0, 87, 64
2, 81172, Note_on_c, 0, 58, 0
2, 81172, Note_on_c, 0, 63, 0
2, 81172, Note_on_c, 0, 51, 0
2, 81172, Note_on_c, 0, 55, 0
2, 81176, Note_on_c, 0, 87, 0
2, 81180, Note_on_c, 0, 82, 64
2, 81180, Note_on_c, 0, 51, 64
2, 81180, Note_on_c, 0, 55, 64
2, 81180, Note_on_c, 0, 58, 64
2, 81180, Note_on_c, 0, 63, 64
2, 81206, Note_on_c, 0, 82, 0
2, 81210, Note_on_c, 0, 91, 64
2, 81232, Note_on_c, 0, 58, 0
2, 81232, Note_on_c, 0, 63, 0
2, 81232, Note_on_c, 0, 51, 0
2, 81232, Note_on_c, 0, 55, 0
2, 81236, Note_on_c, 0, 91, 0
2, 81240, Note_on_c, 0, 87, 64
2, 81240, Note_on_c, 0, 51, 64
2, 81240, Note_on_c, 0, 55, 64
2, 81240, Note_on_c, 0, 58, 64
2, 81240, Note_on_c, 0, 63, 64
2, 81266, Note_on_c, 0, 87, 0
2, 81270, Note_on_c, 0, 94, 64
2, 81290, Control_c, 0, 64, 1
2, 81292, Note_on_c, 0, 58, 0
2, 81292, Note_on_c, 0, 63, 0
2, 81292, Note_on_c, 0, 51, 0
2, 81292, Note_on_c, 0, 55, 0
2, 81292, Control_c, 0, 64, 0
2, 81296, Note_on_c, 0, 94, 0
2, 81300, Note_on_c, 0, 93, 64
2, 81300, Note_on_c, 0, 51, 64
2, 81300, Note_on_c, 0, 55, 64
2, 81300, Note_on_c, 0, 58, 64
2, 81300, Note_on_c, 0, 61, 64
2, 81326, Note_on_c, 0, 93, 0
2, 81330, Note_on_c, 0, 94, 64
2, 81352, Note_on_c, 0, 58, 0
2, 81352, Note_on_c, 0, 61, 0
2, 81352, Note_on_c, 0, 51, 0
2, 81352, Note_on_c, 0, 55, 0
2, 81356, Note_on_c, 0, 94, 0
2, 81360, Note_on_c, 0, 93, 64
2, 81360, Note_on_c, 0, 51, 64
2, 81360, Note_on_c, 0, 55, 64
2, 81360, Note_on_c, 0, 58, 64
2, 81360, Note_on_c, 0, 61, 64
2, 81386, Note_on_c, 0, 93, 0
2, 81390, Note_on_c, 0, 94, 64
2, 81412, Note_on_c, 0, 58, 0
2, 81412, Note_on_c, 0, 61, 0
2, 81412, Note_on_c, 0, 51, 0
2, 81412, Note_on_c, 0, 55, 0
2, 81416, Note_on_c, 0, 94, 0
2, 81420, Note_on_c, 0, 93, 64
2, 81420, Note_on_c, 0, 51, 64
2, 81420, Note_on_c, 0, 55, 64
2, 81420, Note_on_c, 0, 58, 64
2, 81420, Note_on_c, 0, 61, 64
2, 81446, Note_on_c, 0, 93, 0
2, 81450, Note_on_c, 0, 94, 64
2, 81472, Note_on_c, 0, 58, 0
2, 81472, Note_on_c, 0, 61, 0
2, 81472, Note_on_c, 0, 51, 0
2, 81472, Note_on_c, 0, 55, 0
2, 81476, Note_on_c, 0, 94, 0
2, 81480, Note_on_c, 0, 96, 64
2, 81480, Note_on_c, 0, 51, 64
2, 81480, Note_on_c, 0, 55, 64
2, 81480, Note_on_c, 0, 58, 64
2, 81480, Note_on_c, 0, 61, 64
2, 81506, Note_on_c, 0, 96, 0
2, 81510, Note_on_c, 0, 94, 64
2, 81532, Note_on_c, 0, 58, 0
2, 81532, Note_on_c, 0, 61, 0
2, 81532, Note_on_c, 0, 51, 0
2, 81532, Note_on_c, 0, 55, 0
2, 81536, Note_on_c, 0, 94, 0
2, 81540, Note_on_c, 0, 92, 64
2, 81540, Note_on_c, 0, 51, 64
2, 81540, Note_on_c, 0, 55, 64
2, 81540, Note_on_c, 0, 58, 64
2, 81540, Note_on_c, 0, 61, 64
2, 81566, Note_on_c, 0, 92, 0
2, 81570, Note_on_c, 0, 91, 64
2, 81592, Note_on_c, 0, 58, 0
2, 81592, Note_on_c, 0, 61, 0
2, 81592, Note_on_c, 0, 51, 0
2, 81592, Note_on_c, 0, 55, 0
2, 81596, Note_on_c, 0, 91, 0
2, 81600, Note_on_c, 0, 89, 64
2, 81600, Note_on_c, 0, 51, 64
2, 81600, Note_on_c, 0, 55, 64
2, 81600, Note_on_c, 0, 58, 64
2, 81600, Note_on_c, 0, 61, 64
2, 81626, Note_on_c, 0, 89, 0
2, 81630, Note_on_c, 0, 87, 64
2, 81652, Note_on_c, 0, 58, 0
2, 81652, Note_on_c, 0, 61, 0
2, 81652, Note_on_c, 0, 51, 0
2, 81652, Note_on_c, 0, 55, 0
2, 81656, Note_on_c, 0, 87, 0
2, 81660, Note_on_c, 0, 85, 64
2, 81660, Note_on_c, 0, 51, 64
2, 81660, Note_on_c, 0, 55, 64
2, 81660, Note_on_c, 0, 58, 64
2, 81660, Note_on_c, 0, 61, 64
2, 81686, Note_on_c, 0, 85, 0
2, 81690, Note_on_c, 0, 84, 64
2, 81712, Note_on_c, 0, 58, 0
2, 81712, Note_on_c, 0, 61, 0
2, 81712, Note_on_c, 0, 51, 0
2, 81712, Note_on_c, 0, 55, 0
2, 81716, Note_on_c, 0, 84, 0
2, 81720, Note_on_c, 0, 82, 64
2, 81720, Note_on_c, 0, 51, 64
2, 81720, Note_on_c, 0, 55, 64
2, 81720, Note_on_c, 0, 58, 64
2, 81720, Note_on_c, 0, 61, 64
2, 81746, Note_on_c, 0, 82, 0
2, 81750, Note_on_c, 0, 80, 64
2, 81772, Note_on_c, 0, 58, 0
2, 81772, Note_on_c, 0, 61, 0
2, 81772, Note_on_c, 0, 51, 0
2, 81772, Note_on_c, 0, 55, 0
2, 81776, Note_on_c, 0, 80, 0
2, 81780, Note_on_c, 0, 79, 64
2, 81780, Note_on_c, 0, 51, 64
2, 81780, Note_on_c, 0, 55, 64
2, 81780, Note_on_c, 0, 58, 64
2, 81780, Note_on_c, 0, 61, 64
2, 81806, Note_on_c, 0, 79, 0
2, 81810, Note_on_c, 0, 77, 64
2, 81832, Note_on_c, 0, 58, 0
2, 81832, Note_on_c, 0, 61, 0
2, 81832, Note_on_c, 0, 51, 0
2, 81832, Note_on_c, 0, 55, 0
2, 81836, Note_on_c, 0, 77, 0
2, 81840, Note_on_c, 0, 75, 64
2, 81840, Note_on_c, 0, 51, 64
2, 81840, Note_on_c, 0, 55, 64
2, 81840, Note_on_c, 0, 58, 64
2, 81840, Note_on_c, 0, 61, 64
2, 81866, Note_on_c, 0, 75, 0
2, 81870, Note_on_c, 0, 73, 64
2, 81892, Note_on_c, 0, 58, 0
2, 81892, Note_on_c, 0, 61, 0
2, 81892, Note_on_c, 0, 51, 0
2, 81892, Note_on_c, 0, 55, 0
2, 81896, Note_on_c, 0, 73, 0
2, 81900, Note_on_c, 0, 72, 64
2, 81900, Note_on_c, 0, 51, 64
2, 81900, Note_on_c, 0, 55, 64
2, 81900, Note_on_c, 0, 58, 64
2, 81900, Note_on_c, 0, 61, 64
2, 81926, Note_on_c, 0, 72, 0
2, 81930, Note_on_c, 0, 70, 64
2, 81952, Note_on_c, 0, 58, 0
2, 81952, Note_on_c, 0, 61, 0
2, 81952, Note_on_c, 0, 51, 0
2, 81952, Note_on_c, 0, 55, 0
2, 81956, Note_on_c, 0, 70, 0
2, 81960, Note_on_c, 0, 68, 64
2, 81960, Note_on_c, 0, 51, 64
2, 81960, Note_on_c, 0, 56, 64
2, 81960, Note_on_c, 0, 60, 64
2, 81986, Note_on_c, 0, 68, 0
2, 81990, Note_on_c, 0, 67, 64
2, 82012, Note_on_c, 0, 51, 0
2, 82012, Note_on_c, 0, 60, 0
2, 82012, Note_on_c, 0, 56, 0
2, 82016, Note_on_c, 0, 67, 0
2, 82020, Note_on_c, 0, 65, 64
2, 82020, Note_on_c, 0, 51, 64
2, 82020, Note_on_c, 0, 53, 64
2, 82020, Note_on_c, 0, 56, 64
2, 82020, Note_on_c, 0, 59, 64
2, 82046, Note_on_c, 0, 65, 0
2, 82050, Note_on_c, 0, 63, 64
2, 82072, Note_on_c, 0, 56, 0
2, 82072, Note_on_c, 0, 59, 0
2, 82072, Note_on_c, 0, 51, 0
2, 82072, Note_on_c, 0, 53, 0
2, 82076, Note_on_c, 0, 63, 0
2, 82080, Note_on_c, 0, 62, 64
2, 82080, Note_on_c, 0, 51, 64
2, 82080, Note_on_c, 0, 53, 64
2, 82080, Note_on_c, 0, 56, 64
2, 82080, Note_on_c, 0, 59, 64
2, 82106, Note_on_c, 0, 62, 0
2, 82110, Note_on_c, 0, 65, 64
2, 82132, Note_on_c, 0, 56, 0
2, 82132, Note_on_c, 0, 59, 0
2, 82132, Note_on_c, 0, 51, 0
2, 82132, Note_on_c, 0, 53, 0
2, 82136, Note_on_c, 0, 65, 0
2, 82140, Note_on_c, 0, 68, 64
2, 82140, Note_on_c, 0, 51, 64
2, 82140, Note_on_c, 0, 53, 64
2, 82140, Note_on_c, 0, 56, 64
2, 82140, Note_on_c, 0, 58, 64
2, 82166, Note_on_c, 0, 68, 0
2, 82170, Note_on_c, 0, 62, 64
2, 82192, Note_on_c, 0, 56, 0
2, 82192, Note_on_c, 0, 58, 0
2, 82192, Note_on_c, 0, 51, 0
2, 82192, Note_on_c, 0, 53, 0
2, 82196, Note_on_c, 0, 62, 0
2, 82200, Note_on_c, 0, 63, 64
2, 82200, Note_on_c, 0, 39, 64
2, 82200, Note_on_c, 0, 51, 64
2, 82252, Note_on_c, 0, 51, 0
2, 82252, Note_on_c, 0, 39, 0
2, 82252, Note_on_c, 0, 63, 0
2, 82320, Control_c, 0, 64, 121
2, 82380, Note_on_c, 0, 75, 64
2, 82380, Note_on_c, 0, 63, 64
2, 82432, Note_on_c, 0, 63, 0
2, 82432, Note_on_c, 0, 75, 0
2, 82560, Note_on_c, 0, 78, 64
2, 82560, Note_on_c, 0, 66, 64
2, 82612, Note_on_c, 0, 66, 0
2, 82612, Note_on_c, 0, 78, 0
2, 82740, Note_on_c, 0, 83, 64
2, 82740, Note_on_c, 0, 71, 64
2, 82792, Note_on_c, 0, 71, 0
2, 82792, Note_on_c, 0, 83, 0
2, 82920, Note_on_c, 0, 78, 64
2, 82920, Note_on_c, 0, 66, 64
2, 82972, Note_on_c, 0, 66, 0
2, 82972, Note_on_c, 0, 78, 0
2, 83100, Note_on_c, 0, 75, 64
2, 83100, Note_on_c, 0, 63, 64
2, 83152, Note_on_c, 0, 63, 0
2, 83152, Note_on_c, 0, 75, 0
2, 83280, Note_on_c, 0, 71, 64
2, 83280, Note_on_c, 0, 59, 64
2, 83332, Note_on_c, 0, 59, 0
2, 83332, Note_on_c, 0, 71, 0
2, 83460, Note_on_c, 0, 66, 64
2, 83460, Note_on_c, 0, 54, 64
2, 83512, Note_on_c, 0, 54, 0
2, 83512, Note_on_c, 0, 66, 0
2, 83618, Control_c, 0, 64, 0
2, 83638, Control_c, 0, 64, 117
2, 83640, Note_on_c, 0, 62, 64
2, 83640, Note_on_c, 0, 38, 64
2, 83640, Note_on_c, 0, 50, 64
2, 83692, Note_on_c, 0, 50, 0
2, 83692, Note_on_c, 0, 38, 0
2, 83692, Note_on_c, 0, 62, 0
2, 83820, Note_on_c, 0, 74, 64
2, 83820, Note_on_c, 0, 62, 64
2, 83872, Note_on_c, 0, 62, 0
2, 83872, Note_on_c, 0, 74, 0
2, 84000, Note_on_c, 0, 77, 64
2, 84000, Note_on_c, 0, 65, 64
2, 84052, Note_on_c, 0, 65, 0
2, 84052, Note_on_c, 0, 77, 0
2, 84180, Note_on_c, 0, 82, 64
2, 84180, Note_on_c, 0, 70, 64
2, 84232, Note_on_c, 0, 70, 0
2, 84232, Note_on_c, 0, 82, 0
2, 84360, Note_on_c, 0, 77, 64
2, 84360, Note_on_c, 0, 65, 64
2, 84412, Note_on_c, 0, 65, 0
2, 84412, Note_on_c, 0, 77, 0
2, 84540, Note_on_c, 0, 74, 64
2, 84540, Note_on_c, 0, 62, 64
2, 84592, Note_on_c, 0, 62, 0
2, 84592, Note_on_c, 0, 74, 0
2, 84720, Note_on_c, 0, 70, 64
2, 84720, Note_on_c, 0, 58, 64
2, 84772, Note_on_c, 0, 58, 0
2, 84772, Note_on_c, 0, 70, 0
2, 84900, Note_on_c, 0, 65, 64
2, 84900, Note_on_c, 0, 53, 64
2, 84952, Note_on_c, 0, 53, 0
2, 84952, Note_on_c, 0, 65, 0
2, 85040, Control_c, 0, 64, 0
2, 85080, Note_on_c, 0, 78, 64
2, 85080, Note_on_c, 0, 63, 64
2, 85080, Note_on_c, 0, 66, 64
2, 85080, Note_on_c, 0, 71, 64
2, 85132, Note_on_c, 0, 71, 0
2, 85132, Note_on_c, 0, 78, 0
2, 85132, Note_on_c, 0, 63, 0
2, 85132, Note_on_c, 0, 66, 0
2, 85140, Note_on_c, 0, 63, 64
2, 85140, Note_on_c, 0, 66, 64
2, 85140, Note_on_c, 0, 71, 64
2, 85185, Note_on_c, 0, 89, 64
2, 85192, Note_on_c, 0, 71, 0
2, 85192, Note_on_c, 0, 63, 0
2, 85192, Note_on_c, 0, 66, 0
2, 85198, Note_on_c, 0, 89, 0
2, 85200, Note_on_c, 0, 87, 64
2, 85200, Note_on_c, 0, 63, 64
2, 85200, Note_on_c, 0, 66, 64
2, 85200, Note_on_c, 0, 71, 64
2, 85226, Note_on_c, 0, 87, 0
2, 85230, Note_on_c, 0, 86, 64
2, 85252, Note_on_c, 0, 63, 0
2, 85252, Note_on_c, 0, 71, 0
2, 85252, Note_on_c, 0, 66, 0
2, 85256, Note_on_c, 0, 86, 0
2, 85260, Note_on_c, 0, 87, 64
2, 85260, Note_on_c, 0, 63, 64
2, 85260, Note_on_c, 0, 66, 64
2, 85260, Note_on_c, 0, 71, 64
2, 85312, Note_on_c, 0, 71, 0
2, 85312, Note_on_c, 0, 87, 0
2, 85312, Note_on_c, 0, 63, 0
2, 85312, Note_on_c, 0, 66, 0
2, 85320, Note_on_c, 0, 63, 64
2, 85320, Note_on_c, 0, 66, 64
2, 85320, Note_on_c, 0, 71, 64
2, 85365, Note_on_c, 0, 92, 64
2, 85372, Note_on_c, 0, 71, 0
2, 85372, Note_on_c, 0, 63, 0
2, 85372, Note_on_c, 0, 66, 0
2, 85378, Note_on_c, 0, 92, 0
2, 85380, Note_on_c, 0, 90, 64
2, 85380, Note_on_c, 0, 63, 64
2, 85380, Note_on_c, 0, 66, 64
2, 85380, Note_on_c, 0, 71, 64
2, 85406, Note_on_c, 0, 90, 0
2, 85410, Note_on_c, 0, 89, 64
2, 85432, Note_on_c, 0, 63, 0
2, 85432, Note_on_c, 0, 71, 0
2, 85432, Note_on_c, 0, 66, 0
2, 85436, Note_on_c, 0, 89, 0
2, 85440, Note_on_c, 0, 90, 64
2, 85440, Note_on_c, 0, 63, 64
2, 85440, Note_on_c, 0, 66, 64
2, 85440, Note_on_c, 0, 71, 64
2, 85492, Note_on_c, 0, 71, 0
2, 85492, Note_on_c, 0, 90, 0
2, 85492, Note_on_c, 0, 63, 0
2, 85492, Note_on_c, 0, 66, 0
2, 85500, Note_on_c, 0, 63, 64
2, 85500, Note_on_c, 0, 66, 64
2, 85500, Note_on_c, 0, 71, 64
2, 85545, Note_on_c, 0, 97, 64
2, 85552, Note_on_c, 0, 71, 0
2, 85552, Note_on_c, 0, 63, 0
2, 85552, Note_on_c, 0, 66, 0
2, 85558, Note_on_c, 0, 97, 0
2, 85560, Note_on_c, 0, 95, 64
2, 85560, Note_on_c, 0, 63, 64
2, 85560, Note_on_c, 0, 66, 64
2, 85560, Note_on_c, 0, 71, 64
2, 85586, Note_on_c, 0, 95, 0
2, 85590, Note_on_c, 0, 94, 64
2, 85612, Note_on_c, 0, 63, 0
2, 85612, Note_on_c, 0, 71, 0
2, 85612, Note_on_c, 0, 66, 0
2, 85616, Note_on_c, 0, 94, 0
2, 85620, Note_on_c, 0, 95, 64
2, 85620, Note_on_c, 0, 63, 64
2, 85620, Note_on_c, 0, 66, 64
2, 85620, Note_on_c, 0, 71, 64
2, 85672, Note_on_c, 0, 71, 0
2, 85672, Note_on_c, 0, 95, 0
2, 85672, Note_on_c, 0, 63, 0
2, 85672, Note_on_c, 0, 66, 0
2, 85680, Note_on_c, 0, 63, 64
2, 85680, Note_on_c, 0, 66, 64
2, 85680, Note_on_c, 0, 71, 64
2, 85725, Note_on_c, 0, 92, 64
2, 85732, Note_on_c, 0, 71, 0
2, 85732, Note_on_c, 0, 63, 0
2, 85732, Note_on_c, 0, 66, 0
2, 85738, Note_on_c, 0, 92, 0
2, 85740, Note_on_c, 0, 90, 64
2, 85740, Note_on_c, 0, 63, 64
2, 85740, Note_on_c, 0, 66, 64
2, 85740, Note_on_c, 0, 71, 64
2, 85766, Note_on_c, 0, 90, 0
2, 85770, Note_on_c, 0, 89, 64
2, 85792, Note_on_c, 0, 63, 0
2, 85792, Note_on_c, 0, 71, 0
2, 85792, Note_on_c, 0, 66, 0
2, 85796, Note_on_c, 0, 89, 0
2, 85800, Note_on_c, 0, 90, 64
2, 85800, Note_on_c, 0, 63, 64
2, 85800, Note_on_c, 0, 66, 64
2, 85800, Note_on_c, 0, 71, 64
2, 85852, Note_on_c, 0, 71, 0
2, 85852, Note_on_c, 0, 90, 0
2, 85852, Note_on_c, 0, 63, 0
2, 85852, Note_on_c, 0, 66, 0
2, 85860, Note_on_c, 0, 63, 64
2, 85860, Note_on_c, 0, 66, 64
2, 85860, Note_on_c, 0, 71, 64
2, 85905, Note_on_c, 0, 89, 64
2, 85912, Note_on_c, 0, 71, 0
2, 85912, Note_on_c, 0, 63, 0
2, 85912, Note_on_c, 0, 66, 0
2, 85918, Note_on_c, 0, 89, 0
2, 85920, Note_on_c, 0, 87, 64
2, 85920, Note_on_c, 0, 63, 64
2, 85920, Note_on_c, 0, 66, 64
2, 85920, Note_on_c, 0, 71, 64
2, 85946, Note_on_c, 0, 87, 0
2, 85950, Note_on_c, 0, 86, 64
2, 85972, Note_on_c, 0, 63, 0
2, 85972, Note_on_c, 0, 71, 0
2, 85972, Note_on_c, 0, 66, 0
2, 85976, Note_on_c, 0, 86, 0
2, 85980, Note_on_c, 0, 87, 64
2, 85980, Note_on_c, 0, 63, 64
2, 85980, Note_on_c, 0, 66, 64
2, 85980, Note_on_c, 0, 71, 64
2, 86032, Note_on_c, 0, 71, 0
2, 86032, Note_on_c, 0, 87, 0
2, 86032, Note_on_c, 0, 63, 0
2, 86032, Note_on_c, 0, 66, 0
2, 86040, Note_on_c, 0, 63, 64
2, 86040, Note_on_c, 0, 66, 64
2, 86040, Note_on_c, 0, 71, 64
2, 86085, Note_on_c, 0, 85, 64
2, 86092, Note_on_c, 0, 71, 0
2, 86092, Note_on_c, 0, 63, 0
2, 86092, Note_on_c, 0, 66, 0
2, 86098, Note_on_c, 0, 85, 0
2, 86100, Note_on_c, 0, 83, 64
2, 86100, Note_on_c, 0, 63, 64
2, 86100, Note_on_c, 0, 66, 64
2, 86100, Note_on_c, 0, 71, 64
2, 86126, Note_on_c, 0, 83, 0
2, 86130, Note_on_c, 0, 82, 64
2, 86152, Note_on_c, 0, 63, 0
2, 86152, Note_on_c, 0, 71, 0
2, 86152, Note_on_c, 0, 66, 0
2, 86156, Note_on_c, 0, 82, 0
2, 86160, Note_on_c, 0, 83, 64
2, 86160, Note_on_c, 0, 63, 64
2, 86160, Note_on_c, 0, 66, 64
2, 86160, Note_on_c, 0, 71, 64
2, 86212, Note_on_c, 0, 71, 0
2, 86212, Note_on_c, 0, 83, 0
2, 86212, Note_on_c, 0, 63, 0
2, 86212, Note_on_c, 0, 66, 0
2, 86220, Note_on_c, 0, 63, 64
2, 86220, Note_on_c, 0, 66, 64
2, 86220, Note_on_c, 0, 71, 64
2, 86265, Note_on_c, 0, 80, 64
2, 86272, Note_on_c, 0, 71, 0
2, 86272, Note_on_c, 0, 63, 0
2, 86272, Note_on_c, 0, 66, 0
2, 86278, Note_on_c, 0, 80, 0
2, 86280, Note_on_c, 0, 78, 64
2, 86280, Note_on_c, 0, 63, 64
2, 86280, Note_on_c, 0, 66, 64
2, 86280, Note_on_c, 0, 71, 64
2, 86306, Note_on_c, 0, 78, 0
2, 86310, Note_on_c, 0, 77, 64
2, 86332, Note_on_c, 0, 63, 0
2, 86332, Note_on_c, 0, 71, 0
2, 86332, Note_on_c, 0, 66, 0
2, 86336, Note_on_c, 0, 77, 0
2, 86340, Note_on_c, 0, 78, 64
2, 86340, Note_on_c, 0, 63, 64
2, 86340, Note_on_c, 0, 66, 64
2, 86340, Note_on_c, 0, 71, 64
2, 86392, Note_on_c, 0, 71, 0
2, 86392, Note_on_c, 0, 66, 0
2, 86392, Note_on_c, 0, 63, 0
2, 86400, Note_on_c, 0, 63, 64
2, 86400, Note_on_c, 0, 66, 64
2, 86400, Note_on_c, 0, 71, 64
2, 86445, Note_on_c, 0, 78, 0
2, 86452, Note_on_c, 0, 63, 0
2, 86452, Note_on_c, 0, 66, 0
2, 86452, Note_on_c, 0, 71, 0
2, 86460, Note_on_c, 0, 63, 64
2, 86460, Note_on_c, 0, 66, 64
2, 86460, Note_on_c, 0, 69, 64
2, 86512, Note_on_c, 0, 69, 0
2, 86512, Note_on_c, 0, 66, 0
2, 86512, Note_on_c, 0, 63, 0
2, 86520, Note_on_c, 0, 77, 64
2, 86520, Note_on_c, 0, 62, 64
2, 86520, Note_on_c, 0, 65, 64
2, 86520, Note_on_c, 0, 70, 64
2, 86572, Note_on_c, 0, 70, 0
2, 86572, Note_on_c, 0, 77, 0
2, 86572, Note_on_c, 0, 62, 0
2, 86572, Note_on_c, 0, 65, 0
2, 86580, Note_on_c, 0, 62, 64
2, 86580, Note_on_c, 0, 65, 64
2, 86580, Note_on_c, 0, 70, 64
2, 86625, Note_on_c, 0, 87, 64
2, 86632, Note_on_c, 0, 70, 0
2, 86632, Note_on_c, 0, 62, 0
2, 86632, Note_on_c, 0, 65, 0
2, 86638, Note_on_c, 0, 87, 0
2, 86640, Note_on_c, 0, 86, 64
2, 86640, Note_on_c, 0, 62, 64
2, 86640, Note_on_c, 0, 65, 64
2, 86640, Note_on_c, 0, 70, 64
2, 86666, Note_on_c, 0, 86, 0
2, 86670, Note_on_c, 0, 84, 64
2, 86692, Note_on_c, 0, 62, 0
2, 86692, Note_on_c, 0, 70, 0
2, 86692, Note_on_c, 0, 65, 0
2, 86696, Note_on_c, 0, 84, 0
2, 86700, Note_on_c, 0, 86, 64
2, 86700, Note_on_c, 0, 62, 64
2, 86700, Note_on_c, 0, 65, 64
2, 86700, Note_on_c, 0, 70, 64
2, 86752, Note_on_c, 0, 70, 0
2, 86752, Note_on_c, 0, 86, 0
2, 86752, Note_on_c, 0, 62, 0
2, 86752, Note_on_c, 0, 65, 0
2, 86760, Note_on_c, 0, 62, 64
2, 86760, Note_on_c, 0, 65, 64
2, 86760, Note_on_c, 0, 70, 64
2, 86805, Note_on_c, 0, 90, 64
2, 86812, Note_on_c, 0, 70, 0
2, 86812, Note_on_c, 0, 62, 0
2, 86812, Note_on_c, 0, 65, 0
2, 86818, Note_on_c, 0, 90, 0
2, 86820, Note_on_c, 0, 89, 64
2, 86820, Note_on_c, 0, 62, 64
2, 86820, Note_on_c, 0, 65, 64
2, 86820, Note_on_c, 0, 70, 64
2, 86846, Note_on_c, 0, 89, 0
2, 86850, Note_on_c, 0, 88, 64
2, 86872, Note_on_c, 0, 62, 0
2, 86872, Note_on_c, 0, 70, 0
2, 86872, Note_on_c, 0, 65, 0
2, 86876, Note_on_c, 0, 88, 0
2, 86880, Note_on_c, 0, 89, 64
2, 86880, Note_on_c, 0, 62, 64
2, 86880, Note_on_c, 0, 65, 64
2, 86880, Note_on_c, 0, 70, 64
2, 86932, Note_on_c, 0, 70, 0
2, 86932, Note_on_c, 0, 89, 0
2, 86932, Note_on_c, 0, 62, 0
2, 86932, Note_on_c, 0, 65, 0
2, 86940, Note_on_c, 0, 62, 64
2, 86940, Note_on_c, 0, 65, 64
2, 86940, Note_on_c, 0, 70, 64
2, 86985, Note_on_c, 0, 95, 64
2, 86992, Note_on_c, 0, 70, 0
2, 86992, Note_on_c, 0, 62, 0
2, 86992, Note_on_c, 0, 65, 0
2, 86998, Note_on_c, 0, 95, 0
2, 87000, Note_on_c, 0, 94, 64
2, 87000, Note_on_c, 0, 62, 64
2, 87000, Note_on_c, 0, 65, 64
2, 87000, Note_on_c, 0, 70, 64
2, 87026, Note_on_c, 0, 94, 0
2, 87030, Note_on_c, 0, 93, 64
2, 87052, Note_on_c, 0, 62, 0
2, 87052, Note_on_c, 0, 70, 0
2, 87052, Note_on_c, 0, 65, 0
2, 87056, Note_on_c, 0, 93, 0
2, 87060, Note_on_c, 0, 94, 64
2, 87060, Note_on_c, 0, 62, 64
2, 87060, Note_on_c, 0, 65, 64
2, 87060, Note_on_c, 0, 70, 64
2, 87112, Note_on_c, 0, 70, 0
2, 87112, Note_on_c, 0, 94, 0
2, 87112, Note_on_c, 0, 62, 0
2, 87112, Note_on_c, 0, 65, 0
2, 87120, Note_on_c, 0, 62, 64
2, 87120, Note_on_c, 0, 65, 64
2, 87120, Note_on_c, 0, 70, 64
2, 87165, Note_on_c, 0, 90, 64
2, 87172, Note_on_c, 0, 70, 0
2, 87172, Note_on_c, 0, 62, 0
2, 87172, Note_on_c, 0, 65, 0
2, 87178, Note_on_c, 0, 90, 0
2, 87180, Note_on_c, 0, 89, 64
2, 87180, Note_on_c, 0, 62, 64
2, 87180, Note_on_c, 0, 65, 64
2, 87180, Note_on_c, 0, 70, 64
2, 87206, Note_on_c, 0, 89, 0
2, 87210, Note_on_c, 0, 88, 64
2, 87232, Note_on_c, 0, 62, 0
2, 87232, Note_on_c, 0, 70, 0
2, 87232, Note_on_c, 0, 65, 0
2, 87236, Note_on_c, 0, 88, 0
2, 87240, Note_on_c, 0, 89, 64
2, 87240, Note_on_c, 0, 62, 64
2, 87240, Note_on_c, 0, 65, 64
2, 87240, Note_on_c, 0, 70, 64
2, 87292, Note_on_c, 0, 70, 0
2, 87292, Note_on_c, 0, 89, 0
2, 87292, Note_on_c, 0, 62, 0
2, 87292, Note_on_c, 0, 65, 0
2, 87300, Note_on_c, 0, 62, 64
2, 87300, Note_on_c, 0, 65, 64
2, 87300, Note_on_c, 0, 70, 64
2, 87345, Note_on_c, 0, 87, 64
2, 87352, Note_on_c, 0, 70, 0
2, 87352, Note_on_c, 0, 62, 0
2, 87352, Note_on_c, 0, 65, 0
2, 87358, Note_on_c, 0, 87, 0
2, 87360, Note_on_c, 0, 86, 64
2, 87360, Note_on_c, 0, 62, 64
2, 87360, Note_on_c, 0, 65, 64
2, 87360, Note_on_c, 0, 70, 64
2, 87386, Note_on_c, 0, 86, 0
2, 87390, Note_on_c, 0, 84, 64
2, 87412, Note_on_c, 0, 62, 0
2, 87412, Note_on_c, 0, 70, 0
2, 87412, Note_on_c, 0, 65, 0
2, 87416, Note_on_c, 0, 84, 0
2, 87420, Note_on_c, 0, 86, 64
2, 87420, Note_on_c, 0, 62, 64
2, 87420, Note_on_c, 0, 65, 64
2, 87420, Note_on_c, 0, 70, 64
2, 87472, Note_on_c, 0, 70, 0
2, 87472, Note_on_c, 0, 86, 0
2, 87472, Note_on_c, 0, 62, 0
2, 87472, Note_on_c, 0, 65, 0
2, 87480, Note_on_c, 0, 62, 64
2, 87480, Note_on_c, 0, 65, 64
2, 87480, Note_on_c, 0, 70, 64
2, 87525, Note_on_c, 0, 83, 64
2, 87532, Note_on_c, 0, 70, 0
2, 87532, Note_on_c, 0, 62, 0
2, 87532, Note_on_c, 0, 65, 0
2, 87538, Note_on_c, 0, 83, 0
2, 87540, Note_on_c, 0, 82, 64
2, 87540, Note_on_c, 0, 62, 64
2, 87540, Note_on_c, 0, 65, 64
2, 87540, Note_on_c, 0, 70, 64
2, 87566, Note_on_c, 0, 82, 0
2, 87570, Note_on_c, 0, 81, 64
2, 87592, Note_on_c, 0, 62, 0
2, 87592, Note_on_c, 0, 70, 0
2, 87592, Note_on_c, 0, 65, 0
2, 87596, Note_on_c, 0, 81, 0
2, 87600, Note_on_c, 0, 82, 64
2, 87600, Note_on_c, 0, 62, 64
2, 87600, Note_on_c, 0, 65, 64
2, 87600, Note_on_c, 0, 70, 64
2, 87652, Note_on_c, 0, 70, 0
2, 87652, Note_on_c, 0, 82, 0
2, 87652, Note_on_c, 0, 62, 0
2, 87652, Note_on_c, 0, 65, 0
2, 87660, Note_on_c, 0, 62, 64
2, 87660, Note_on_c, 0, 65, 64
2, 87660, Note_on_c, 0, 70, 64
2, 87705, Note_on_c, 0, 78, 64
2, 87712, Note_on_c, 0, 70, 0
2, 87712, Note_on_c, 0, 62, 0
2, 87712, Note_on_c, 0, 65, 0
2, 87718, Note_on_c, 0, 78, 0
2, 87720, Note_on_c, 0, 77, 64
2, 87720, Note_on_c, 0, 62, 64
2, 87720, Note_on_c, 0, 65, 64
2, 87720, Note_on_c, 0, 70, 64
2, 87746, Note_on_c, 0, 77, 0
2, 87750, Note_on_c, 0, 76, 64
2, 87772, Note_on_c, 0, 62, 0
2, 87772, Note_on_c, 0, 70, 0
2, 87772, Note_on_c, 0, 65, 0
2, 87776, Note_on_c, 0, 76, 0
2, 87780, Note_on_c, 0, 77, 64
2, 87780, Note_on_c, 0, 62, 64
2, 87780, Note_on_c, 0, 65, 64
2, 87780, Note_on_c, 0, 70, 64
2, 87832, Note_on_c, 0, 70, 0
2, 87832, Note_on_c, 0, 77, 0
2, 87832, Note_on_c, 0, 62, 0
2, 87832, Note_on_c, 0, 65, 0
2, 87840, Note_on_c, 0, 58, 64
2, 87892, Note_on_c, 0, 58, 0
2, 87900, Note_on_c, 0, 78, 64
2, 87900, Note_on_c, 0, 56, 64
2, 87952, Note_on_c, 0, 56, 0
2, 87952, Note_on_c, 0, 78, 0
2, 87960, Note_on_c, 0, 70, 64
2, 87960, Note_on_c, 0, 79, 64
2, 87960, Note_on_c, 0, 55, 64
2, 87960, Note_on_c, 0, 51, 64
2, 87986, Note_on_c, 0, 70, 0
2, 87990, Note_on_c, 0, 72, 64
2, 88016, Note_on_c, 0, 72, 0
2, 88020, Note_on_c, 0, 70, 64
2, 88046, Note_on_c, 0, 70, 0
2, 88050, Note_on_c, 0, 72, 64
2, 88065, Note_on_c, 0, 55, 0
2, 88076, Note_on_c, 0, 72, 0
2, 88080, Note_on_c, 0, 70, 64
2, 88080, Note_on_c, 0, 60, 64
2, 88106, Note_on_c, 0, 70, 0
2, 88110, Note_on_c, 0, 72, 64
2, 88125, Note_on_c, 0, 79, 0
2, 88132, Note_on_c, 0, 60, 0
2, 88136, Note_on_c, 0, 72, 0
2, 88140, Note_on_c, 0, 70, 64
2, 88140, Note_on_c, 0, 75, 64
2, 88140, Note_on_c, 0, 58, 64
2, 88166, Note_on_c, 0, 70, 0
2, 88170, Note_on_c, 0, 72, 64
2, 88196, Note_on_c, 0, 72, 0
2, 88200, Note_on_c, 0, 70, 64
2, 88226, Note_on_c, 0, 70, 0
2, 88230, Note_on_c, 0, 72, 64
2, 88245, Note_on_c, 0, 58, 0
2, 88256, Note_on_c, 0, 72, 0
2, 88260, Note_on_c, 0, 70, 64
2, 88260, Note_on_c, 0, 55, 64
2, 88286, Note_on_c, 0, 70, 0
2, 88290, Note_on_c, 0, 72, 64
2, 88305, Note_on_c, 0, 51, 0
2, 88305, Note_on_c, 0, 75, 0
2, 88312, Note_on_c, 0, 55, 0
2, 88316, Note_on_c, 0, 72, 0
2, 88320, Note_on_c, 0, 70, 64
2, 88320, Note_on_c, 0, 74, 64
2, 88320, Note_on_c, 0, 53, 64
2, 88320, Note_on_c, 0, 46, 64
2, 88346, Note_on_c, 0, 70, 0
2, 88350, Note_on_c, 0, 72, 64
2, 88376, Note_on_c, 0, 72, 0
2, 88380, Note_on_c, 0, 70, 64
2, 88406, Note_on_c, 0, 70, 0
2, 88410, Note_on_c, 0, 72, 64
2, 88425, Note_on_c, 0, 53, 0
2, 88436, Note_on_c, 0, 72, 0
2, 88440, Note_on_c, 0, 70, 64
2, 88440, Note_on_c, 0, 60, 64
2, 88466, Note_on_c, 0, 70, 0
2, 88470, Note_on_c, 0, 72, 64
2, 88485, Note_on_c, 0, 74, 0
2, 88492, Note_on_c, 0, 60, 0
2, 88496, Note_on_c, 0, 72, 0
2, 88500, Note_on_c, 0, 70, 64
2, 88500, Note_on_c, 0, 80, 64
2, 88500, Note_on_c, 0, 58, 64
2, 88526, Note_on_c, 0, 70, 0
2, 88530, Note_on_c, 0, 72, 64
2, 88556, Note_on_c, 0, 72, 0
2, 88560, Note_on_c, 0, 70, 64
2, 88586, Note_on_c, 0, 70, 0
2, 88590, Note_on_c, 0, 72, 64
2, 88605, Note_on_c, 0, 58, 0
2, 88616, Note_on_c, 0, 72, 0
2, 88620, Note_on_c, 0, 70, 64
2, 88620, Note_on_c, 0, 53, 64
2, 88646, Note_on_c, 0, 70, 0
2, 88650, Note_on_c, 0, 72, 64
2, 88665, Note_on_c, 0, 46, 0
2, 88665, Note_on_c, 0, 80, 0
2, 88672, Note_on_c, 0, 53, 0
2, 88676, Note_on_c, 0, 72, 0
2, 88680, Note_on_c, 0, 70, 64
2, 88680, Note_on_c, 0, 79, 64
2, 88680, Note_on_c, 0, 55, 64
2, 88680, Note_on_c, 0, 51, 64
2, 88706, Note_on_c, 0, 70, 0
2, 88710, Note_on_c, 0, 72, 64
2, 88736, Note_on_c, 0, 72, 0
2, 88740, Note_on_c, 0, 70, 64
2, 88766, Note_on_c, 0, 70, 0
2, 88770, Note_on_c, 0, 72, 64
2, 88785, Note_on_c, 0, 55, 0
2, 88796, Note_on_c, 0, 72, 0
2, 88800, Note_on_c, 0, 70, 64
2, 88800, Note_on_c, 0, 60, 64
2, 88826, Note_on_c, 0, 70, 0
2, 88830, Note_on_c, 0, 72, 64
2, 88845, Note_on_c, 0, 79, 0
2, 88852, Note_on_c, 0, 60, 0
2, 88856, Note_on_c, 0, 72, 0
2, 88860, Note_on_c, 0, 70, 64
2, 88860, Note_on_c, 0, 75, 64
2, 88860, Note_on_c, 0, 58, 64
2, 88886, Note_on_c, 0, 70, 0
2, 88890, Note_on_c, 0, 72, 64
2, 88916, Note_on_c, 0, 72, 0
2, 88920, Note_on_c, 0, 70, 64
2, 88946, Note_on_c, 0, 70, 0
2, 88950, Note_on_c, 0, 72, 64
2, 88965, Note_on_c, 0, 58, 0
2, 88976, Note_on_c, 0, 72, 0
2, 88980, Note_on_c, 0, 70, 64
2, 88980, Note_on_c, 0, 55, 64
2, 89006, Note_on_c, 0, 70, 0
2, 89010, Note_on_c, 0, 72, 64
2, 89025, Note_on_c, 0, 51, 0
2, 89025, Note_on_c, 0, 75, 0
2, 89032, Note_on_c, 0, 55, 0
2, 89036, Note_on_c, 0, 72, 0
2, 89040, Note_on_c, 0, 70, 64
2, 89040, Note_on_c, 0, 74, 64
2, 89040, Note_on_c, 0, 53, 64
2, 89040, Note_on_c, 0, 46, 64
2, 89066, Note_on_c, 0, 70, 0
2, 89070, Note_on_c, 0, 72, 64
2, 89096, Note_on_c, 0, 72, 0
2, 89100, Note_on_c, 0, 70, 64
2, 89126, Note_on_c, 0, 70, 0
2, 89130, Note_on_c, 0, 72, 64
2, 89145, Note_on_c, 0, 53, 0
2, 89156, Note_on_c, 0, 72, 0
2, 89160, Note_on_c, 0, 70, 64
2, 89160, Note_on_c, 0, 60, 64
2, 89186, Note_on_c, 0, 70, 0
2, 89190, Note_on_c, 0, 72, 64
2, 89205, Note_on_c, 0, 74, 0
2, 89212, Note_on_c, 0, 60, 0
2, 89216, Note_on_c, 0, 72, 0
2, 89220, Note_on_c, 0, 70, 64
2, 89220, Note_on_c, 0, 80, 64
2, 89220, Note_on_c, 0, 58, 64
2, 89246, Note_on_c, 0, 70, 0
2, 89250, Note_on_c, 0, 72, 64
2, 89276, Note_on_c, 0, 72, 0
2, 89280, Note_on_c, 0, 70, 64
2, 89306, Note_on_c, 0, 70, 0
2, 89310, Note_on_c, 0, 72, 64
2, 89325, Note_on_c, 0, 58, 0
2, 89336, Note_on_c, 0, 72, 0
2, 89340, Note_on_c, 0, 70, 64
2, 89340, Note_on_c, 0, 53, 64
2, 89366, Note_on_c, 0, 70, 0
2, 89370, Note_on_c, 0, 72, 64
2, 89385, Note_on_c, 0, 46, 0
2, 89385, Note_on_c, 0, 80, 0
2, 89392, Note_on_c, 0, 53, 0
2, 89396, Note_on_c, 0, 72, 0
2, 89400, Note_on_c, 0, 70, 64
2, 89400, Note_on_c, 0, 79, 64
2, 89400, Note_on_c, 0, 51, 64
2, 89400, Note_on_c, 0, 58, 64
2, 89426, Note_on_c, 0, 79, 0
2, 89426, Note_on_c, 0, 70, 0
2, 89430, Note_on_c, 0, 72, 64
2, 89452, Note_on_c, 0, 51, 0
2, 89452, Note_on_c, 0, 58, 0
2, 89456, Note_on_c, 0, 72, 0
2, 89460, Note_on_c, 0, 74, 64
2, 89460, Note_on_c, 0, 55, 64
2, 89460, Note_on_c, 0, 58, 64
2, 89460, Note_on_c, 0, 63, 64
2, 89486, Note_on_c, 0, 74, 0
2, 89490, Note_on_c, 0, 75, 64
2, 89512, Note_on_c, 0, 55, 0
2, 89512, Note_on_c, 0, 63, 0
2, 89512, Note_on_c, 0, 58, 0
2, 89516, Note_on_c, 0, 75, 0
2, 89520, Note_on_c, 0, 77, 64
2, 89520, Note_on_c, 0, 55, 64
2, 89520, Note_on_c, 0, 58, 64
2, 89520, Note_on_c, 0, 63, 64
2, 89537, Note_on_c, 0, 77, 0
2, 89539, Note_on_c, 0, 79, 64
2, 89557, Note_on_c, 0, 79, 0
2, 89559, Note_on_c, 0, 80, 64
2, 89572, Note_on_c, 0, 63, 0
2, 89572, Note_on_c, 0, 55, 0
2, 89572, Note_on_c, 0, 58, 0
2, 89577, Note_on_c, 0, 80, 0
2, 89580, Note_on_c, 0, 82, 64
2, 89580, Note_on_c, 0, 55, 64
2, 89580, Note_on_c, 0, 58, 64
2, 89580, Note_on_c, 0, 63, 64
2, 89606, Note_on_c, 0, 82, 0
2, 89610, Note_on_c, 0, 80, 64
2, 89632, Note_on_c, 0, 55, 0
2, 89632, Note_on_c, 0, 63, 0
2, 89632, Note_on_c, 0, 58, 0
2, 89636, Note_on_c, 0, 80, 0
2, 89640, Note_on_c, 0, 79, 64
2, 89640, Note_on_c, 0, 55, 64
2, 89640, Note_on_c, 0, 58, 64
2, 89640, Note_on_c, 0, 63, 64
2, 89657, Note_on_c, 0, 79, 0
2, 89659, Note_on_c, 0, 77, 64
2, 89677, Note_on_c, 0, 77, 0
2, 89679, Note_on_c, 0, 75, 64
2, 89692, Note_on_c, 0, 63, 0
2, 89692, Note_on_c, 0, 55, 0
2, 89692, Note_on_c, 0, 58, 0
2, 89697, Note_on_c, 0, 75, 0
2, 89700, Note_on_c, 0, 74, 64
2, 89700, Note_on_c, 0, 55, 64
2, 89700, Note_on_c, 0, 59, 64
2, 89700, Note_on_c, 0, 63, 64
2, 89717, Note_on_c, 0, 74, 0
2, 89719, Note_on_c, 0, 72, 64
2, 89737, Note_on_c, 0, 72, 0
2, 89739, Note_on_c, 0, 71, 64
2, 89752, Note_on_c, 0, 63, 0
2, 89752, Note_on_c, 0, 55, 0
2, 89752, Note_on_c, 0, 59, 0
2, 89757, Note_on_c, 0, 71, 0
2, 89760, Note_on_c, 0, 72, 64
2, 89786, Note_on_c, 0, 72, 0
2, 89790, Note_on_c, 0, 75, 64
2, 89816, Note_on_c, 0, 75, 0
2, 89820, Note_on_c, 0, 77, 64
2, 89820, Note_on_c, 0, 56, 64
2, 89820, Note_on_c, 0, 60, 64
2, 89820, Note_on_c, 0, 63, 64
2, 89846, Note_on_c, 0, 77, 0
2, 89850, Note_on_c, 0, 79, 64
2, 89872, Note_on_c, 0, 56, 0
2, 89872, Note_on_c, 0, 63, 0
2, 89872, Note_on_c, 0, 60, 0
2, 89876, Note_on_c, 0, 79, 0
2, 89880, Note_on_c, 0, 80, 64
2, 89880, Note_on_c, 0, 56, 64
2, 89880, Note_on_c, 0, 60, 64
2, 89880, Note_on_c, 0, 63, 64
2, 89906, Note_on_c, 0, 80, 0
2, 89910, Note_on_c, 0, 82, 64
2, 89932, Note_on_c, 0, 56, 0
2, 89932, Note_on_c, 0, 63, 0
2, 89932, Note_on_c, 0, 60, 0
2, 89936, Note_on_c, 0, 82, 0
2, 89940, Note_on_c, 0, 84, 64
2, 89940, Note_on_c, 0, 56, 64
2, 89940, Note_on_c, 0, 60, 64
2, 89940, Note_on_c, 0, 63, 64
2, 89966, Note_on_c, 0, 84, 0
2, 89970, Note_on_c, 0, 82, 64
2, 89992, Note_on_c, 0, 56, 0
2, 89992, Note_on_c, 0, 63, 0
2, 89992, Note_on_c, 0, 60, 0
2, 89996, Note_on_c, 0, 82, 0
2, 90000, Note_on_c, 0, 80, 64
2, 90000, Note_on_c, 0, 56, 64
2, 90000, Note_on_c, 0, 60, 64
2, 90000, Note_on_c, 0, 63, 64
2, 90017, Note_on_c, 0, 80, 0
2, 90019, Note_on_c, 0, 79, 64
2, 90037, Note_on_c, 0, 79, 0
2, 90039, Note_on_c, 0, 77, 64
2, 90052, Note_on_c, 0, 63, 0
2, 90052, Note_on_c, 0, 56, 0
2, 90052, Note_on_c, 0, 60, 0
2, 90057, Note_on_c, 0, 77, 0
2, 90060, Note_on_c, 0, 75, 64
2, 90060, Note_on_c, 0, 57, 64
2, 90060, Note_on_c, 0, 63, 64
2, 90060, Note_on_c, 0, 65, 64
2, 90077, Note_on_c, 0, 75, 0
2, 90079, Note_on_c, 0, 74, 64
2, 90097, Note_on_c, 0, 74, 0
2, 90099, Note_on_c, 0, 72, 64
2, 90112, Note_on_c, 0, 65, 0
2, 90112, Note_on_c, 0, 57, 0
2, 90112, Note_on_c, 0, 63, 0
2, 90117, Note_on_c, 0, 72, 0
2, 90120, Note_on_c, 0, 70, 64
2, 90146, Note_on_c, 0, 70, 0
2, 90150, Note_on_c, 0, 79, 64
2, 90176, Note_on_c, 0, 79, 0
2, 90180, Note_on_c, 0, 75, 64
2, 90180, Note_on_c, 0, 58, 64
2, 90180, Note_on_c, 0, 63, 64
2, 90180, Note_on_c, 0, 67, 64
2, 90206, Note_on_c, 0, 75, 0
2, 90210, Note_on_c, 0, 82, 64
2, 90232, Note_on_c, 0, 58, 0
2, 90232, Note_on_c, 0, 67, 0
2, 90232, Note_on_c, 0, 63, 0
2, 90236, Note_on_c, 0, 82, 0
2, 90240, Note_on_c, 0, 79, 64
2, 90240, Note_on_c, 0, 58, 64
2, 90240, Note_on_c, 0, 63, 64
2, 90240, Note_on_c, 0, 67, 64
2, 90266, Note_on_c, 0, 79, 0
2, 90270, Note_on_c, 0, 87, 64
2, 90292, Note_on_c, 0, 58, 0
2, 90292, Note_on_c, 0, 67, 0
2, 90292, Note_on_c, 0, 63, 0
2, 90296, Note_on_c, 0, 87, 0
2, 90300, Note_on_c, 0, 82, 64
2, 90300, Note_on_c, 0, 58, 64
2, 90300, Note_on_c, 0, 63, 64
2, 90300, Note_on_c, 0, 67, 64
2, 90326, Note_on_c, 0, 82, 0
2, 90330, Note_on_c, 0, 91, 64
2, 90352, Note_on_c, 0, 58, 0
2, 90352, Note_on_c, 0, 67, 0
2, 90352, Note_on_c, 0, 63, 0
2, 90356, Note_on_c, 0, 91, 0
2, 90360, Note_on_c, 0, 87, 64
2, 90360, Note_on_c, 0, 58, 64
2, 90360, Note_on_c, 0, 63, 64
2, 90360, Note_on_c, 0, 67, 64
2, 90386, Note_on_c, 0, 87, 0
2, 90390, Note_on_c, 0, 94, 64
2, 90412, Note_on_c, 0, 58, 0
2, 90412, Note_on_c, 0, 67, 0
2, 90412, Note_on_c, 0, 63, 0
2, 90416, Note_on_c, 0, 94, 0
2, 90420, Note_on_c, 0, 91, 64
2, 90420, Note_on_c, 0, 58, 64
2, 90420, Note_on_c, 0, 63, 64
2, 90420, Note_on_c, 0, 67, 64
2, 90446, Note_on_c, 0, 91, 0
2, 90450, Note_on_c, 0, 87, 64
2, 90472, Note_on_c, 0, 58, 0
2, 90472, Note_on_c, 0, 67, 0
2, 90472, Note_on_c, 0, 63, 0
2, 90476, Note_on_c, 0, 87, 0
2, 90480, Note_on_c, 0, 82, 64
2, 90480, Note_on_c, 0, 58, 64
2, 90480, Note_on_c, 0, 63, 64
2, 90480, Note_on_c, 0, 67, 64
2, 90532, Note_on_c, 0, 67, 0
2, 90532, Note_on_c, 0, 63, 0
2, 90532, Note_on_c, 0, 58, 0
2, 90540, Note_on_c, 0, 58, 64
2, 90540, Note_on_c, 0, 63, 64
2, 90540, Note_on_c, 0, 67, 64
2, 90585, Note_on_c, 0, 82, 0
2, 90592, Note_on_c, 0, 58, 0
2, 90592, Note_on_c, 0, 63, 0
2, 90592, Note_on_c, 0, 67, 0
2, 90600, Note_on_c, 0, 58, 64
2, 90600, Note_on_c, 0, 63, 64
2, 90600, Note_on_c, 0, 67, 64
2, 90652, Note_on_c, 0, 67, 0
2, 90652, Note_on_c, 0, 63, 0
2, 90652, Note_on_c, 0, 58, 0
2, 90660, Note_on_c, 0, 91, 64
2, 90660, Note_on_c, 0, 58, 64
2, 90660, Note_on_c, 0, 62, 64
2, 90660, Note_on_c, 0, 68, 64
2, 90673, Note_on_c, 0, 91, 0
2, 90675, Note_on_c, 0, 89, 64
2, 90688, Note_on_c, 0, 89, 0
2, 90690, Note_on_c, 0, 91, 64
2, 90703, Note_on_c, 0, 91, 0
2, 90705, Note_on_c, 0, 89, 64
2, 90712, Note_on_c, 0, 58, 0
2, 90712, Note_on_c, 0, 68, 0
2, 90712, Note_on_c, 0, 62, 0
2, 90718, Note_on_c, 0, 89, 0
2, 90720, Note_on_c, 0, 91, 64
2, 90720, Note_on_c, 0, 58, 64
2, 90720, Note_on_c, 0, 62, 64
2, 90720, Note_on_c, 0, 68, 64
2, 90733, Note_on_c, 0, 91, 0
2, 90735, Note_on_c, 0, 89, 64
2, 90748, Note_on_c, 0, 89, 0
2, 90750, Note_on_c, 0, 91, 64
2, 90763, Note_on_c, 0, 91, 0
2, 90765, Note_on_c, 0, 89, 64
2, 90772, Note_on_c, 0, 58, 0
2, 90772, Note_on_c, 0, 68, 0
2, 90772, Note_on_c, 0, 62, 0
2, 90778, Note_on_c, 0, 89, 0
2, 90780, Note_on_c, 0, 91, 64
2, 90780, Note_on_c, 0, 58, 64
2, 90780, Note_on_c, 0, 62, 64
2, 90780, Note_on_c, 0, 68, 64
2, 90793, Note_on_c, 0, 91, 0
2, 90795, Note_on_c, 0, 89, 64
2, 90808, Note_on_c, 0, 89, 0
2, 90810, Note_on_c, 0, 91, 64
2, 90823, Note_on_c, 0, 91, 0
2, 90825, Note_on_c, 0, 89, 64
2, 90832, Note_on_c, 0, 58, 0
2, 90832, Note_on_c, 0, 68, 0
2, 90832, Note_on_c, 0, 62, 0
2, 90838, Note_on_c, 0, 89, 0
2, 90840, Note_on_c, 0, 91, 64
2, 90840, Note_on_c, 0, 82, 64
2, 90840, Note_on_c, 0, 63, 64
2, 90840, Note_on_c, 0, 67, 64
2, 90866, Note_on_c, 0, 82, 0
2, 90870, Note_on_c, 0, 84, 64
2, 90896, Note_on_c, 0, 84, 0
2, 90900, Note_on_c, 0, 82, 64
2, 90926, Note_on_c, 0, 82, 0
2, 90930, Note_on_c, 0, 84, 64
2, 90945, Note_on_c, 0, 67, 0
2, 90956, Note_on_c, 0, 84, 0
2, 90960, Note_on_c, 0, 82, 64
2, 90960, Note_on_c, 0, 72, 64
2, 90986, Note_on_c, 0, 82, 0
2, 90990, Note_on_c, 0, 84, 64
2, 91005, Note_on_c, 0, 91, 0
2, 91012, Note_on_c, 0, 72, 0
2, 91016, Note_on_c, 0, 84, 0
2, 91020, Note_on_c, 0, 87, 64
2, 91020, Note_on_c, 0, 82, 64
2, 91020, Note_on_c, 0, 70, 64
2, 91046, Note_on_c, 0, 82, 0
2, 91050, Note_on_c, 0, 84, 64
2, 91076, Note_on_c, 0, 84, 0
2, 91080, Note_on_c, 0, 82, 64
2, 91106, Note_on_c, 0, 82, 0
2, 91110, Note_on_c, 0, 84, 64
2, 91125, Note_on_c, 0, 70, 0
2, 91136, Note_on_c, 0, 84, 0
2, 91140, Note_on_c, 0, 82, 64
2, 91140, Note_on_c, 0, 67, 64
2, 91166, Note_on_c, 0, 82, 0
2, 91170, Note_on_c, 0, 84, 64
2, 91185, Note_on_c, 0, 63, 0
2, 91185, Note_on_c, 0, 87, 0
2, 91192, Note_on_c, 0, 67, 0
2, 91196, Note_on_c, 0, 84, 0
2, 91200, Note_on_c, 0, 86, 64
2, 91200, Note_on_c, 0, 82, 64
2, 91200, Note_on_c, 0, 58, 64
2, 91200, Note_on_c, 0, 65, 64
2, 91226, Note_on_c, 0, 82, 0
2, 91230, Note_on_c, 0, 84, 64
2, 91256, Note_on_c, 0, 84, 0
2, 91260, Note_on_c, 0, 82, 64
2, 91286, Note_on_c, 0, 82, 0
2, 91290, Note_on_c, 0, 84, 64
2, 91305, Note_on_c, 0, 65, 0
2, 91316, Note_on_c, 0, 84, 0
2, 91320, Note_on_c, 0, 82, 64
2, 91320, Note_on_c, 0, 72, 64
2, 91346, Note_on_c, 0, 82, 0
2, 91350, Note_on_c, 0, 84, 64
2, 91365, Note_on_c, 0, 86, 0
2, 91372, Note_on_c, 0, 72, 0
2, 91376, Note_on_c, 0, 84, 0
2, 91380, Note_on_c, 0, 92, 64
2, 91380, Note_on_c, 0, 82, 64
2, 91380, Note_on_c, 0, 70, 64
2, 91406, Note_on_c, 0, 82, 0
2, 91410, Note_on_c, 0, 84, 64
2, 91436, Note_on_c, 0, 84, 0
2, 91440, Note_on_c, 0, 82, 64
2, 91466, Note_on_c, 0, 82, 0
2, 91470, Note_on_c, 0, 84, 64
2, 91485, Note_on_c, 0, 70, 0
2, 91496, Note_on_c, 0, 84, 0
2, 91500, Note_on_c, 0, 82, 64
2, 91500, Note_on_c, 0, 65, 64
2, 91526, Note_on_c, 0, 82, 0
2, 91530, Note_on_c, 0, 84, 64
2, 91545, Note_on_c, 0, 58, 0
2, 91545, Note_on_c, 0, 92, 0
2, 91552, Note_on_c, 0, 65, 0
2, 91556, Note_on_c, 0, 84, 0
2, 91560, Note_on_c, 0, 91, 64
2, 91560, Note_on_c, 0, 82, 64
2, 91560, Note_on_c, 0, 63, 64
2, 91560, Note_on_c, 0, 67, 64
2, 91586, Note_on_c, 0, 82, 0
2, 91590, Note_on_c, 0, 84, 64
2, 91616, Note_on_c, 0, 84, 0
2, 91620, Note_on_c, 0, 82, 64
2, 91646, Note_on_c, 0, 82, 0
2, 91650, Note_on_c, 0, 84, 64
2, 91665, Note_on_c, 0, 67, 0
2, 91676, Note_on_c, 0, 84, 0
2, 91680, Note_on_c, 0, 82, 64
2, 91680, Note_on_c, 0, 72, 64
2, 91706, Note_on_c, 0, 82, 0
2, 91710, Note_on_c, 0, 84, 64
2, 91725, Note_on_c, 0, 91, 0
2, 91732, Note_on_c, 0, 72, 0
2, 91736, Note_on_c, 0, 84, 0
2, 91740, Note_on_c, 0, 87, 64
2, 91740, Note_on_c, 0, 82, 64
2, 91740, Note_on_c, 0, 70, 64
2, 91766, Note_on_c, 0, 82, 0
2, 91770, Note_on_c, 0, 84, 64
2, 91796, Note_on_c, 0, 84, 0
2, 91800, Note_on_c, 0, 82, 64
2, 91826, Note_on_c, 0, 82, 0
2, 91830, Note_on_c, 0, 84, 64
2, 91845, Note_on_c, 0, 70, 0
2, 91856, Note_on_c, 0, 84, 0
2, 91860, Note_on_c, 0, 82, 64
2, 91860, Note_on_c, 0, 67, 64
2, 91886, Note_on_c, 0, 82, 0
2, 91890, Note_on_c, 0, 84, 64
2, 91905, Note_on_c, 0, 63, 0
2, 91905, Note_on_c, 0, 87, 0
2, 91912, Note_on_c, 0, 67, 0
2, 91916, Note_on_c, 0, 84, 0
2, 91920, Note_on_c, 0, 86, 64
2, 91920, Note_on_c, 0, 82, 64
2, 91920, Note_on_c, 0, 58, 64
2, 91920, Note_on_c, 0, 65, 64
2, 91946, Note_on_c, 0, 82, 0
2, 91950, Note_on_c, 0, 84, 64
2, 91976, Note_on_c, 0, 84, 0
2, 91980, Note_on_c, 0, 82, 64
2, 92006, Note_on_c, 0, 82, 0
2, 92010, Note_on_c, 0, 84, 64
2, 92025, Note_on_c, 0, 65, 0
2, 92036, Note_on_c, 0, 84, 0
2, 92040, Note_on_c, 0, 82, 64
2, 92040, Note_on_c, 0, 72, 64
2, 92066, Note_on_c, 0, 82, 0
2, 92070, Note_on_c, 0, 84, 64
2, 92085, Note_on_c, 0, 86, 0
2, 92092, Note_on_c, 0, 72, 0
2, 92096, Note_on_c, 0, 84, 0
2, 92100, Note_on_c, 0, 92, 64
2, 92100, Note_on_c, 0, 82, 64
2, 92100, Note_on_c, 0, 70, 64
2, 92126, Note_on_c, 0, 82, 0
2, 92130, Note_on_c, 0, 84, 64
2, 92156, Note_on_c, 0, 84, 0
2, 92160, Note_on_c, 0, 82, 64
2, 92186, Note_on_c, 0, 82, 0
2, 92190, Note_on_c, 0, 84, 64
2, 92205, Note_on_c, 0, 70, 0
2, 92216, Note_on_c, 0, 84, 0
2, 92220, Note_on_c, 0, 82, 64
2, 92220, Note_on_c, 0, 65, 64
2, 92246, Note_on_c, 0, 82, 0
2, 92250, Note_on_c, 0, 84, 64
2, 92265, Note_on_c, 0, 58, 0
2, 92265, Note_on_c, 0, 92, 0
2, 92272, Note_on_c, 0, 65, 0
2, 92276, Note_on_c, 0, 84, 0
2, 92280, Note_on_c, 0, 63, 64
2, 92306, Note_on_c, 0, 63, 0
2, 92310, Note_on_c, 0, 67, 64
2, 92336, Note_on_c, 0, 67, 0
2, 92340, Note_on_c, 0, 87, 64
2, 92340, Note_on_c, 0, 91, 64
2, 92340, Note_on_c, 0, 68, 64
2, 92366, Note_on_c, 0, 68, 0
2, 92370, Note_on_c, 0, 70, 64
2, 92392, Note_on_c, 0, 91, 0
2, 92392, Note_on_c, 0, 87, 0
2, 92396, Note_on_c, 0, 70, 0
2, 92400, Note_on_c, 0, 87, 64
2, 92400, Note_on_c, 0, 91, 64
2, 92400, Note_on_c, 0, 72, 64
2, 92426, Note_on_c, 0, 72, 0
2, 92430, Note_on_c, 0, 74, 64
2, 92452, Note_on_c, 0, 91, 0
2, 92452, Note_on_c, 0, 87, 0
2, 92456, Note_on_c, 0, 74, 0
2, 92460, Note_on_c, 0, 87, 64
2, 92460, Note_on_c, 0, 91, 64
2, 92460, Note_on_c, 0, 75, 64
2, 92486, Note_on_c, 0, 75, 0
2, 92490, Note_on_c, 0, 74, 64
2, 92512, Note_on_c, 0, 91, 0
2, 92512, Note_on_c, 0, 87, 0
2, 92516, Note_on_c, 0, 74, 0
2, 92520, Note_on_c, 0, 87, 64
2, 92520, Note_on_c, 0, 91, 64
2, 92520, Note_on_c, 0, 72, 64
2, 92546, Note_on_c, 0, 72, 0
2, 92550, Note_on_c, 0, 70, 64
2, 92572, Note_on_c, 0, 91, 0
2, 92572, Note_on_c, 0, 87, 0
2, 92576, Note_on_c, 0, 70, 0
2, 92580, Note_on_c, 0, 87, 64
2, 92580, Note_on_c, 0, 91, 64
2, 92580, Note_on_c, 0, 68, 64
2, 92606, Note_on_c, 0, 68, 0
2, 92610, Note_on_c, 0, 67, 64
2, 92632, Note_on_c, 0, 91, 0
2, 92632, Note_on_c, 0, 87, 0
2, 92636, Note_on_c, 0, 67, 0
2, 92640, Note_on_c, 0, 68, 64
2, 92666, Note_on_c, 0, 68, 0
2, 92670, Note_on_c, 0, 72, 64
2, 92696, Note_on_c, 0, 72, 0
2, 92700, Note_on_c, 0, 87, 64
2, 92700, Note_on_c, 0, 89, 64
2, 92700, Note_on_c, 0, 74, 64
2, 92726, Note_on_c, 0, 74, 0
2, 92730, Note_on_c, 0, 75, 64
2, 92752, Note_on_c, 0, 89, 0
2, 92752, Note_on_c, 0, 87, 0
2, 92756, Note_on_c, 0, 75, 0
2, 92760, Note_on_c, 0, 87, 64
2, 92760, Note_on_c, 0, 89, 64
2, 92760, Note_on_c, 0, 77, 64
2, 92786, Note_on_c, 0, 77, 0
2, 92790, Note_on_c, 0, 79, 64
2, 92812, Note_on_c, 0, 89, 0
2, 92812, Note_on_c, 0, 87, 0
2, 92816, Note_on_c, 0, 79, 0
2, 92820, Note_on_c, 0, 87, 64
2, 92820, Note_on_c, 0, 89, 64
2, 92820, Note_on_c, 0, 80, 64
2, 92846, Note_on_c, 0, 80, 0
2, 92850, Note_on_c, 0, 79, 64
2, 92872, Note_on_c, 0, 89, 0
2, 92872, Note_on_c, 0, 87, 0
2, 92876, Note_on_c, 0, 79, 0
2, 92880, Note_on_c, 0, 87, 64
2, 92880, Note_on_c, 0, 89, 64
2, 92880, Note_on_c, 0, 77, 64
2, 92906, Note_on_c, 0, 77, 0
2, 92910, Note_on_c, 0, 75, 64
2, 92932, Note_on_c, 0, 89, 0
2, 92932, Note_on_c, 0, 87, 0
2, 92936, Note_on_c, 0, 75, 0
2, 92940, Note_on_c, 0, 87, 64
2, 92940, Note_on_c, 0, 89, 64
2, 92940, Note_on_c, 0, 74, 64
2, 92966, Note_on_c, 0, 74, 0
2, 92970, Note_on_c, 0, 72, 64
2, 92992, Note_on_c, 0, 89, 0
2, 92992, Note_on_c, 0, 87, 0
2, 92996, Note_on_c, 0, 72, 0
2, 93000, Note_on_c, 0, 70, 64
2, 93026, Note_on_c, 0, 70, 0
2, 93030, Note_on_c, 0, 58, 64
2, 93056, Note_on_c, 0, 58, 0
2, 93060, Note_on_c, 0, 87, 64
2, 93060, Note_on_c, 0, 91, 64
2, 93060, Note_on_c, 0, 63, 64
2, 93086, Note_on_c, 0, 63, 0
2, 93090, Note_on_c, 0, 67, 64
2, 93112, Note_on_c, 0, 91, 0
2, 93112, Note_on_c, 0, 87, 0
2, 93116, Note_on_c, 0, 67, 0
2, 93120, Note_on_c, 0, 87, 64
2, 93120, Note_on_c, 0, 91, 64
2, 93120, Note_on_c, 0, 70, 64
2, 93146, Note_on_c, 0, 70, 0
2, 93150, Note_on_c, 0, 75, 64
2, 93172, Note_on_c, 0, 91, 0
2, 93172, Note_on_c, 0, 87, 0
2, 93176, Note_on_c, 0, 75, 0
2, 93180, Note_on_c, 0, 87, 64
2, 93180, Note_on_c, 0, 91, 64
2, 93180, Note_on_c, 0, 79, 64
2, 93206, Note_on_c, 0, 79, 0
2, 93210, Note_on_c, 0, 75, 64
2, 93232, Note_on_c, 0, 91, 0
2, 93232, Note_on_c, 0, 87, 0
2, 93236, Note_on_c, 0, 75, 0
2, 93240, Note_on_c, 0, 87, 64
2, 93240, Note_on_c, 0, 91, 64
2, 93240, Note_on_c, 0, 82, 64
2, 93266, Note_on_c, 0, 82, 0
2, 93270, Note_on_c, 0, 79, 64
2, 93292, Note_on_c, 0, 91, 0
2, 93292, Note_on_c, 0, 87, 0
2, 93296, Note_on_c, 0, 79, 0
2, 93300, Note_on_c, 0, 87, 64
2, 93300, Note_on_c, 0, 91, 64
2, 93300, Note_on_c, 0, 75, 64
2, 93326, Note_on_c, 0, 75, 0
2, 93330, Note_on_c, 0, 70, 64
2, 93352, Note_on_c, 0, 91, 0
2, 93352, Note_on_c, 0, 87, 0
2, 93356, Note_on_c, 0, 70, 0
2, 93360, Note_on_c, 0, 86, 64
2, 93360, Note_on_c, 0, 89, 64
2, 93360, Note_on_c, 0, 79, 64
2, 93360, Note_on_c, 0, 70, 64
2, 93373, Note_on_c, 0, 79, 0
2, 93375, Note_on_c, 0, 77, 64
2, 93388, Note_on_c, 0, 77, 0
2, 93390, Note_on_c, 0, 79, 64
2, 93403, Note_on_c, 0, 79, 0
2, 93405, Note_on_c, 0, 77, 64
2, 93412, Note_on_c, 0, 86, 0
2, 93412, Note_on_c, 0, 89, 0
2, 93418, Note_on_c, 0, 77, 0
2, 93420, Note_on_c, 0, 86, 64
2, 93420, Note_on_c, 0, 89, 64
2, 93420, Note_on_c, 0, 79, 64
2, 93433, Note_on_c, 0, 79, 0
2, 93435, Note_on_c, 0, 77, 64
2, 93448, Note_on_c, 0, 77, 0
2, 93450, Note_on_c, 0, 79, 64
2, 93463, Note_on_c, 0, 79, 0
2, 93465, Note_on_c, 0, 70, 0
2, 93465, Note_on_c, 0, 77, 64
2, 93472, Note_on_c, 0, 89, 0
2, 93472, Note_on_c, 0, 86, 0
2, 93478, Note_on_c, 0, 77, 0
2, 93480, Note_on_c, 0, 86, 64
2, 93480, Note_on_c, 0, 89, 64
2, 93480, Note_on_c, 0, 79, 64
2, 93493, Note_on_c, 0, 79, 0
2, 93495, Note_on_c, 0, 77, 64
2, 93508, Note_on_c, 0, 77, 0
2, 93510, Note_on_c, 0, 79, 64
2, 93523, Note_on_c, 0, 79, 0
2, 93525, Note_on_c, 0, 77, 64
2, 93532, Note_on_c, 0, 89, 0
2, 93532, Note_on_c, 0, 86, 0
2, 93538, Note_on_c, 0, 77, 0
2, 93540, Note_on_c, 0, 86, 64
2, 93540, Note_on_c, 0, 89, 64
2, 93540, Note_on_c, 0, 79, 64
2, 93553, Note_on_c, 0, 79, 0
2, 93555, Note_on_c, 0, 77, 64
2, 93568, Note_on_c, 0, 77, 0
2, 93570, Note_on_c, 0, 79, 64
2, 93583, Note_on_c, 0, 79, 0
2, 93585, Note_on_c, 0, 77, 64
2, 93592, Note_on_c, 0, 89, 0
2, 93592, Note_on_c, 0, 86, 0
2, 93598, Note_on_c, 0, 77, 0
2, 93600, Note_on_c, 0, 86, 64
2, 93600, Note_on_c, 0, 89, 64
2, 93600, Note_on_c, 0, 79, 64
2, 93613, Note_on_c, 0, 79, 0
2, 93615, Note_on_c, 0, 77, 64
2, 93628, Note_on_c, 0, 77, 0
2, 93630, Note_on_c, 0, 79, 64
2, 93643, Note_on_c, 0, 79, 0
2, 93645, Note_on_c, 0, 77, 64
2, 93652, Note_on_c, 0, 89, 0
2, 93652, Note_on_c, 0, 86, 0
2, 93658, Note_on_c, 0, 77, 0
2, 93660, Note_on_c, 0, 86, 64
2, 93660, Note_on_c, 0, 89, 64
2, 93660, Note_on_c, 0, 79, 64
2, 93673, Note_on_c, 0, 79, 0
2, 93675, Note_on_c, 0, 77, 64
2, 93688, Note_on_c, 0, 77, 0
2, 93690, Note_on_c, 0, 79, 64
2, 93703, Note_on_c, 0, 79, 0
2, 93705, Note_on_c, 0, 77, 64
2, 93712, Note_on_c, 0, 89, 0
2, 93712, Note_on_c, 0, 86, 0
2, 93718, Note_on_c, 0, 77, 0
2, 93720, Note_on_c, 0, 70, 64
2, 93746, Note_on_c, 0, 70, 0
2, 93750, Note_on_c, 0, 76, 64
2, 93776, Note_on_c, 0, 76, 0
2, 93780, Note_on_c, 0, 77, 64
2, 93806, Note_on_c, 0, 77, 0
2, 93810, Note_on_c, 0, 79, 64
2, 93836, Note_on_c, 0, 79, 0
2, 93840, Note_on_c, 0, 85, 64
2, 93840, Note_on_c, 0, 97, 64
2, 93840, Note_on_c, 0, 77, 64
2, 93866, Note_on_c, 0, 77, 0
2, 93870, Note_on_c, 0, 76, 64
2, 93896, Note_on_c, 0, 76, 0
2, 93900, Note_on_c, 0, 68, 64
2, 93926, Note_on_c, 0, 68, 0
2, 93930, Note_on_c, 0, 77, 64
2, 93956, Note_on_c, 0, 77, 0
2, 93960, Note_on_c, 0, 79, 64
2, 93986, Note_on_c, 0, 79, 0
2, 93990, Note_on_c, 0, 80, 64
2, 94016, Note_on_c, 0, 80, 0
2, 94020, Note_on_c, 0, 97, 0
2, 94020, Note_on_c, 0, 85, 0
2, 94020, Note_on_c, 0, 84, 64
2, 94020, Note_on_c, 0, 96, 64
2, 94020, Note_on_c, 0, 79, 64
2, 94046, Note_on_c, 0, 79, 0
2, 94050, Note_on_c, 0, 77, 64
2, 94072, Note_on_c, 0, 96, 0
2, 94072, Note_on_c, 0, 84, 0
2, 94076, Note_on_c, 0, 77, 0
2, 94080, Note_on_c, 0, 56, 64
2, 94106, Note_on_c, 0, 56, 0
2, 94110, Note_on_c, 0, 62, 64
2, 94136, Note_on_c, 0, 62, 0
2, 94140, Note_on_c, 0, 63, 64
2, 94166, Note_on_c, 0, 63, 0
2, 94170, Note_on_c, 0, 65, 64
2, 94196, Note_on_c, 0, 65, 0
2, 94200, Note_on_c, 0, 71, 64
2, 94200, Note_on_c, 0, 83, 64
2, 94200, Note_on_c, 0, 63, 64
2, 94226, Note_on_c, 0, 63, 0
2, 94230, Note_on_c, 0, 62, 64
2, 94256, Note_on_c, 0, 62, 0
2, 94260, Note_on_c, 0, 55, 64
2, 94286, Note_on_c, 0, 55, 0
2, 94290, Note_on_c, 0, 63, 64
2, 94316, Note_on_c, 0, 63, 0
2, 94320, Note_on_c, 0, 65, 64
2, 94346, Note_on_c, 0, 65, 0
2, 94350, Note_on_c, 0, 67, 64
2, 94376, Note_on_c, 0, 67, 0
2, 94380, Note_on_c, 0, 83, 0
2, 94380, Note_on_c, 0, 71, 0
2, 94380, Note_on_c, 0, 70, 64
2, 94380, Note_on_c, 0, 82, 64
2, 94380, Note_on_c, 0, 65, 64
2, 94406, Note_on_c, 0, 65, 0
2, 94410, Note_on_c, 0, 63, 64
2, 94432, Note_on_c, 0, 82, 0
2, 94432, Note_on_c, 0, 70, 0
2, 94436, Note_on_c, 0, 63, 0
2, 94440, Note_on_c, 0, 46, 64
2, 94466, Note_on_c, 0, 46, 0
2, 94470, Note_on_c, 0, 52, 64
2, 94496, Note_on_c, 0, 52, 0
2, 94500, Note_on_c, 0, 53, 64
2, 94526, Note_on_c, 0, 53, 0
2, 94530, Note_on_c, 0, 55, 64
2, 94556, Note_on_c, 0, 55, 0
2, 94560, Note_on_c, 0, 61, 64
2, 94560, Note_on_c, 0, 73, 64
2, 94560, Note_on_c, 0, 53, 64
2, 94586, Note_on_c, 0, 53, 0
2, 94590, Note_on_c, 0, 52, 64
2, 94616, Note_on_c, 0, 52, 0
2, 94620, Note_on_c, 0, 44, 64
2, 94646, Note_on_c, 0, 44, 0
2, 94650, Note_on_c, 0, 53, 64
2, 94676, Note_on_c, 0, 53, 0
2, 94680, Note_on_c, 0, 55, 64
2, 94706, Note_on_c, 0, 55, 0
2, 94710, Note_on_c, 0, 56, 64
2, 94736, Note_on_c, 0, 56, 0
2, 94740, Note_on_c, 0, 73, 0
2, 94740, Note_on_c, 0, 61, 0
2, 94740, Note_on_c, 0, 60, 64
2, 94740, Note_on_c, 0, 72, 64
2, 94740, Note_on_c, 0, 55, 64
2, 94766, Note_on_c, 0, 55, 0
2, 94770, Note_on_c, 0, 53, 64
2, 94792, Note_on_c, 0, 72, 0
2, 94792, Note_on_c, 0, 60, 0
2, 94796, Note_on_c, 0, 53, 0
2, 94800, Note_on_c, 0, 32, 64
2, 94826, Note_on_c, 0, 32, 0
2, 94830, Note_on_c, 0, 38, 64
2, 94856, Note_on_c, 0, 38, 0
2, 94860, Note_on_c, 0, 39, 64
2, 94886, Note_on_c, 0, 39, 0
2, 94890, Note_on_c, 0, 41, 64
2, 94916, Note_on_c, 0, 41, 0
2, 94920, Note_on_c, 0, 47, 64
2, 94920, Note_on_c, 0, 59, 64
2, 94920, Note_on_c, 0, 39, 64
2, 94946, Note_on_c, 0, 39, 0
2, 94950, Note_on_c, 0, 38, 64
2, 94976, Note_on_c, 0, 38, 0
2, 94980, Note_on_c, 0, 31, 64
2, 95006, Note_on_c, 0, 31, 0
2, 95010, Note_on_c, 0, 39, 64
2, 95036, Note_on_c, 0, 39, 0
2, 95040, Note_on_c, 0, 41, 64
2, 95066, Note_on_c, 0, 41, 0
2, 95070, Note_on_c, 0, 43, 64
2, 95096, Note_on_c, 0, 43, 0
2, 95100, Note_on_c, 0, 59, 0
2, 95100, Note_on_c, 0, 47, 0
2, 95100, Note_on_c, 0, 46, 64
2, 95100, Note_on_c, 0, 58, 64
2, 95100, Note_on_c, 0, 41, 64
2, 95126, Note_on_c, 0, 41, 0
2, 95130, Note_on_c, 0, 39, 64
2, 95152, Note_on_c, 0, 58, 0
2, 95152, Note_on_c, 0, 46, 0
2, 95156, Note_on_c, 0, 39, 0
2, 95160, Note_on_c, 0, 31, 64
2, 95186, Note_on_c, 0, 31, 0
2, 95190, Note_on_c, 0, 34, 64
2, 95216, Note_on_c, 0, 34, 0
2, 95220, Note_on_c, 0, 58, 64
2, 95220, Note_on_c, 0, 70, 64
2, 95220, Note_on_c, 0, 39, 64
2, 95246, Note_on_c, 0, 39, 0
2, 95246, Note_on_c, 0, 70, 0
2, 95246, Note_on_c, 0, 58, 0
2, 95250, Note_on_c, 0, 43, 64
2, 95276, Note_on_c, 0, 43, 0
2, 95280, Note_on_c, 0, 58, 64
2, 95280, Note_on_c, 0, 70, 64
2, 95280, Note_on_c, 0, 39, 64
2, 95306, Note_on_c, 0, 39, 0
2, 95306, Note_on_c, 0, 70, 0
2, 95306, Note_on_c, 0, 58, 0
2, 95310, Note_on_c, 0, 34, 64
2, 95336, Note_on_c, 0, 34, 0
2, 95340, Note_on_c, 0, 36, 64
2, 95366, Note_on_c, 0, 36, 0
2, 95370, Note_on_c, 0, 39, 64
2, 95396, Note_on_c, 0, 39, 0
2, 95400, Note_on_c, 0, 56, 64
2, 95400, Note_on_c, 0, 68, 64
2, 95400, Note_on_c, 0, 43, 64
2, 95426, Note_on_c, 0, 43, 0
2, 95426, Note_on_c, 0, 68, 0
2, 95426, Note_on_c, 0, 56, 0
2, 95430, Note_on_c, 0, 48, 64
2, 95456, Note_on_c, 0, 48, 0
2, 95460, Note_on_c, 0, 55, 64
2, 95460, Note_on_c, 0, 67, 64
2, 95460, Note_on_c, 0, 43, 64
2, 95486, Note_on_c, 0, 43, 0
2, 95486, Note_on_c, 0, 67, 0
2, 95486, Note_on_c, 0, 55, 0
2, 95490, Note_on_c, 0, 39, 64
2, 95516, Note_on_c, 0, 39, 0
2, 95520, Note_on_c, 0, 32, 64
2, 95546, Note_on_c, 0, 32, 0
2, 95550, Note_on_c, 0, 36, 64
2, 95576, Note_on_c, 0, 36, 0
2, 95580, Note_on_c, 0, 55, 64
2, 95580, Note_on_c, 0, 67, 64
2, 95580, Note_on_c, 0, 41, 64
2, 95606, Note_on_c, 0, 41, 0
2, 95606, Note_on_c, 0, 67, 0
2, 95606, Note_on_c, 0, 55, 0
2, 95610, Note_on_c, 0, 44, 64
2, 95636, Note_on_c, 0, 44, 0
2, 95640, Note_on_c, 0, 53, 64
2, 95640, Note_on_c, 0, 65, 64
2, 95640, Note_on_c, 0, 41, 64
2, 95666, Note_on_c, 0, 41, 0
2, 95666, Note_on_c, 0, 65, 0
2, 95666, Note_on_c, 0, 53, 0
2, 95670, Note_on_c, 0, 36, 64
2, 95696, Note_on_c, 0, 36, 0
2, 95700, Note_on_c, 0, 34, 64
2, 95726, Note_on_c, 0, 34, 0
2, 95730, Note_on_c, 0, 41, 64
2, 95756, Note_on_c, 0, 41, 0
2, 95760, Note_on_c, 0, 51, 64
2, 95760, Note_on_c, 0, 63, 64
2, 95760, Note_on_c, 0, 44, 64
2, 95786, Note_on_c, 0, 44, 0
2, 95786, Note_on_c, 0, 63, 0
2, 95786, Note_on_c, 0, 51, 0
2, 95790, Note_on_c, 0, 46, 64
2, 95816, Note_on_c, 0, 46, 0
2, 95820, Note_on_c, 0, 50, 64
2, 95820, Note_on_c, 0, 62, 64
2, 95820, Note_on_c, 0, 44, 64
2, 95846, Note_on_c, 0, 44, 0
2, 95846, Note_on_c, 0, 62, 0
2, 95846, Note_on_c, 0, 50, 0
2, 95850, Note_on_c, 0, 41, 64
2, 95876, Note_on_c, 0, 41, 0
2, 95880, Note_on_c, 0, 43, 64
2, 95906, Note_on_c, 0, 43, 0
2, 95910, Note_on_c, 0, 46, 64
2, 95936, Note_on_c, 0, 46, 0
2, 95940, Note_on_c, 0, 70, 64
2, 95940, Note_on_c, 0, 82, 64
2, 95940, Note_on_c, 0, 51, 64
2, 95966, Note_on_c, 0, 51, 0
2, 95966, Note_on_c, 0, 82, 0
2, 95966, Note_on_c, 0, 70, 0
2, 95970, Note_on_c, 0, 55, 64
2, 95996, Note_on_c, 0, 55, 0
2, 96000, Note_on_c, 0, 70, 64
2, 96000, Note_on_c, 0, 82, 64
2, 96000, Note_on_c, 0, 51, 64
2, 96026, Note_on_c, 0, 51, 0
2, 96026, Note_on_c, 0, 82, 0
2, 96026, Note_on_c, 0, 70, 0
2, 96030, Note_on_c, 0, 46, 64
2, 96056, Note_on_c, 0, 46, 0
2, 96060, Note_on_c, 0, 48, 64
2, 96086, Note_on_c, 0, 48, 0
2, 96090, Note_on_c, 0, 51, 64
2, 96116, Note_on_c, 0, 51, 0
2, 96120, Note_on_c, 0, 68, 64
2, 96120, Note_on_c, 0, 80, 64
2, 96120, Note_on_c, 0, 55, 64
2, 96146, Note_on_c, 0, 55, 0
2, 96146, Note_on_c, 0, 80, 0
2, 96146, Note_on_c, 0, 68, 0
2, 96150, Note_on_c, 0, 60, 64
2, 96176, Note_on_c, 0, 60, 0
2, 96180, Note_on_c, 0, 67, 64
2, 96180, Note_on_c, 0, 79, 64
2, 96180, Note_on_c, 0, 55, 64
2, 96206, Note_on_c, 0, 55, 0
2, 96206, Note_on_c, 0, 79, 0
2, 96206, Note_on_c, 0, 67, 0
2, 96210, Note_on_c, 0, 51, 64
2, 96236, Note_on_c, 0, 51, 0
2, 96240, Note_on_c, 0, 44, 64
2, 96266, Note_on_c, 0, 44, 0
2, 96270, Note_on_c, 0, 48, 64
2, 96296, Note_on_c, 0, 48, 0
2, 96300, Note_on_c, 0, 67, 64
2, 96300, Note_on_c, 0, 79, 64
2, 96300, Note_on_c, 0, 53, 64
2, 96326, Note_on_c, 0, 53, 0
2, 96326, Note_on_c, 0, 79, 0
2, 96326, Note_on_c, 0, 67, 0
2, 96330, Note_on_c, 0, 56, 64
2, 96356, Note_on_c, 0, 56, 0
2, 96360, Note_on_c, 0, 65, 64
2, 96360, Note_on_c, 0, 77, 64
2, 96360, Note_on_c, 0, 53, 64
2, 96386, Note_on_c, 0, 53, 0
2, 96386, Note_on_c, 0, 77, 0
2, 96386, Note_on_c, 0, 65, 0
2, 96390, Note_on_c, 0, 48, 64
2, 96416, Note_on_c, 0, 48, 0
2, 96420, Note_on_c, 0, 34, 64
2, 96446, Note_on_c, 0, 34, 0
2, 96450, Note_on_c, 0, 39, 64
2, 96476, Note_on_c, 0, 39, 0
2, 96480, Note_on_c, 0, 65, 64
2, 96480, Note_on_c, 0, 75, 64
2, 96480, Note_on_c, 0, 43, 64
2, 96506, Note_on_c, 0, 43, 0
2, 96506, Note_on_c, 0, 75, 0
2, 96506, Note_on_c, 0, 65, 0
2, 96510, Note_on_c, 0, 48, 64
2, 96536, Note_on_c, 0, 48, 0
2, 96540, Note_on_c, 0, 62, 64
2, 96540, Note_on_c, 0, 74, 64
2, 96540, Note_on_c, 0, 43, 64
2, 96566, Note_on_c, 0, 43, 0
2, 96566, Note_on_c, 0, 74, 0
2, 96566, Note_on_c, 0, 62, 0
2, 96570, Note_on_c, 0, 39, 64
2, 96596, Note_on_c, 0, 39, 0
2, 96600, Note_on_c, 0, 31, 64
2, 96626, Note_on_c, 0, 31, 0
2, 96630, Note_on_c, 0, 34, 64
2, 96656, Note_on_c, 0, 34, 0
2, 96660, Note_on_c, 0, 63, 64
2, 96660, Note_on_c, 0, 67, 64
2, 96660, Note_on_c, 0, 75, 64
2, 96660, Note_on_c, 0, 39, 64
2, 96686, Note_on_c, 0, 39, 0
2, 96686, Note_on_c, 0, 63, 0
2, 96686, Note_on_c, 0, 67, 0
2, 96686, Note_on_c, 0, 75, 0
2, 96690, Note_on_c, 0, 43, 64
2, 96716, Note_on_c, 0, 43, 0
2, 96720, Note_on_c, 0, 63, 64
2, 96720, Note_on_c, 0, 67, 64
2, 96720, Note_on_c, 0, 70, 64
2, 96720, Note_on_c, 0, 39, 64
2, 96746, Note_on_c, 0, 39, 0
2, 96746, Note_on_c, 0, 63, 0
2, 96746, Note_on_c, 0, 67, 0
2, 96746, Note_on_c, 0, 70, 0
2, 96750, Note_on_c, 0, 34, 64
2, 96776, Note_on_c, 0, 34, 0
2, 96780, Note_on_c, 0, 36, 64
2, 96806, Note_on_c, 0, 36, 0
2, 96810, Note_on_c, 0, 39, 64
2, 96836, Note_on_c, 0, 39, 0
2, 96840, Note_on_c, 0, 60, 64
2, 96840, Note_on_c, 0, 63, 64
2, 96840, Note_on_c, 0, 68, 64
2, 96840, Note_on_c, 0, 43, 64
2, 96866, Note_on_c, 0, 43, 0
2, 96866, Note_on_c, 0, 60, 0
2, 96866, Note_on_c, 0, 63, 0
2, 96866, Note_on_c, 0, 68, 0
2, 96870, Note_on_c, 0, 48, 64
2, 96896, Note_on_c, 0, 48, 0
2, 96900, Note_on_c, 0, 60, 64
2, 96900, Note_on_c, 0, 63, 64
2, 96900, Note_on_c, 0, 67, 64
2, 96900, Note_on_c, 0, 43, 64
2, 96926, Note_on_c, 0, 43, 0
2, 96926, Note_on_c, 0, 60, 0
2, 96926, Note_on_c, 0, 63, 0
2, 96926, Note_on_c, 0, 67, 0
2, 96930, Note_on_c, 0, 39, 64
2, 96956, Note_on_c, 0, 39, 0
2, 96960, Note_on_c, 0, 32, 64
2, 96986, Note_on_c, 0, 32, 0
2, 96990, Note_on_c, 0, 36, 64
2, 97016, Note_on_c, 0, 36, 0
2, 97020, Note_on_c, 0, 56, 64
2, 97020, Note_on_c, 0, 60, 64
2, 97020, Note_on_c, 0, 67, 64
2, 97020, Note_on_c, 0, 41, 64
2, 97046, Note_on_c, 0, 41, 0
2, 97046, Note_on_c, 0, 56, 0
2, 97046, Note_on_c, 0, 60, 0
2, 97046, Note_on_c, 0, 67, 0
2, 97050, Note_on_c, 0, 44, 64
2, 97076, Note_on_c, 0, 44, 0
2, 97080, Note_on_c, 0, 56, 64
2, 97080, Note_on_c, 0, 60, 64
2, 97080, Note_on_c, 0, 65, 64
2, 97080, Note_on_c, 0, 41, 64
2, 97106, Note_on_c, 0, 41, 0
2, 97106, Note_on_c, 0, 56, 0
2, 97106, Note_on_c, 0, 60, 0
2, 97106, Note_on_c, 0, 65, 0
2, 97110, Note_on_c, 0, 36, 64
2, 97136, Note_on_c, 0, 36, 0
2, 97140, Note_on_c, 0, 34, 64
2, 97166, Note_on_c, 0, 34, 0
2, 97170, Note_on_c, 0, 41, 64
2, 97196, Note_on_c, 0, 41, 0
2, 97200, Note_on_c, 0, 53, 64
2, 97200, Note_on_c, 0, 56, 64
2, 97200, Note_on_c, 0, 63, 64
2, 97200, Note_on_c, 0, 44, 64
2, 97226, Note_on_c, 0, 44, 0
2, 97226, Note_on_c, 0, 53, 0
2, 97226, Note_on_c, 0, 56, 0
2, 97226, Note_on_c, 0, 63, 0
2, 97230, Note_on_c, 0, 46, 64
2, 97256, Note_on_c, 0, 46, 0
2, 97260, Note_on_c, 0, 53, 64
2, 97260, Note_on_c, 0, 56, 64
2, 97260, Note_on_c, 0, 62, 64
2, 97260, Note_on_c, 0, 34, 64
2, 97286, Note_on_c, 0, 34, 0
2, 97286, Note_on_c, 0, 53, 0
2, 97286, Note_on_c, 0, 56, 0
2, 97286, Note_on_c, 0, 62, 0
2, 97290, Note_on_c, 0, 46, 64
2, 97316, Note_on_c, 0, 46, 0
2, 97320, Note_on_c, 0, 51, 64
2, 97320, Note_on_c, 0, 39, 64
2, 97346, Note_on_c, 0, 51, 0
2, 97350, Note_on_c, 0, 53, 64
2, 97372, Note_on_c, 0, 39, 0
2, 97376, Note_on_c, 0, 53, 0
2, 97380, Note_on_c, 0, 55, 64
2, 97380, Note_on_c, 0, 51, 64
2, 97406, Note_on_c, 0, 55, 0
2, 97410, Note_on_c, 0, 56, 64
2, 97432, Note_on_c, 0, 51, 0
2, 97436, Note_on_c, 0, 56, 0
2, 97440, Note_on_c, 0, 58, 64
2, 97440, Note_on_c, 0, 51, 64
2, 97440, Note_on_c, 0, 55, 64
2, 97457, Note_on_c, 0, 58, 0
2, 97459, Note_on_c, 0, 60, 64
2, 97477, Note_on_c, 0, 60, 0
2, 97479, Note_on_c, 0, 62, 64
2, 97492, Note_on_c, 0, 55, 0
2, 97492, Note_on_c, 0, 51, 0
2, 97497, Note_on_c, 0, 62, 0
2, 97500, Note_on_c, 0, 63, 64
2, 97500, Note_on_c, 0, 51, 64
2, 97500, Note_on_c, 0, 55, 64
2, 97500, Note_on_c, 0, 58, 64
2, 97517, Note_on_c, 0, 63, 0
2, 97519, Note_on_c, 0, 65, 64
2, 97537, Note_on_c, 0, 65, 0
2, 97539, Note_on_c, 0, 67, 64
2, 97557, Note_on_c, 0, 67, 0
2, 97560, Note_on_c, 0, 68, 64
2, 97577, Note_on_c, 0, 68, 0
2, 97579, Note_on_c, 0, 70, 64
2, 97597, Note_on_c, 0, 70, 0
2, 97599, Note_on_c, 0, 72, 64
2, 97605, Note_on_c, 0, 51, 0
2, 97605, Note_on_c, 0, 58, 0
2, 97605, Note_on_c, 0, 55, 0
2, 97617, Note_on_c, 0, 72, 0
2, 97620, Note_on_c, 0, 74, 64
2, 97620, Note_on_c, 0, 46, 64
2, 97620, Note_on_c, 0, 53, 64
2, 97620, Note_on_c, 0, 58, 64
2, 97646, Note_on_c, 0, 74, 0
2, 97650, Note_on_c, 0, 62, 64
2, 97672, Note_on_c, 0, 46, 0
2, 97672, Note_on_c, 0, 58, 0
2, 97672, Note_on_c, 0, 53, 0
2, 97676, Note_on_c, 0, 62, 0
2, 97680, Note_on_c, 0, 63, 64
2, 97680, Note_on_c, 0, 51, 64
2, 97680, Note_on_c, 0, 55, 64
2, 97680, Note_on_c, 0, 58, 64
2, 97706, Note_on_c, 0, 63, 0
2, 97710, Note_on_c, 0, 65, 64
2, 97732, Note_on_c, 0, 51, 0
2, 97732, Note_on_c, 0, 58, 0
2, 97732, Note_on_c, 0, 55, 0
2, 97736, Note_on_c, 0, 65, 0
2, 97740, Note_on_c, 0, 67, 64
2, 97740, Note_on_c, 0, 51, 64
2, 97740, Note_on_c, 0, 55, 64
2, 97740, Note_on_c, 0, 58, 64
2, 97766, Note_on_c, 0, 67, 0
2, 97770, Note_on_c, 0, 68, 64
2, 97792, Note_on_c, 0, 51, 0
2, 97792, Note_on_c, 0, 58, 0
2, 97792, Note_on_c, 0, 55, 0
2, 97796, Note_on_c, 0, 68, 0
2, 97800, Note_on_c, 0, 70, 64
2, 97800, Note_on_c, 0, 51, 64
2, 97800, Note_on_c, 0, 55, 64
2, 97800, Note_on_c, 0, 58, 64
2, 97817, Note_on_c, 0, 70, 0
2, 97819, Note_on_c, 0, 72, 64
2, 97837, Note_on_c, 0, 72, 0
2, 97839, Note_on_c, 0, 74, 64
2, 97852, Note_on_c, 0, 58, 0
2, 97852, Note_on_c, 0, 51, 0
2, 97852, Note_on_c, 0, 55, 0
2, 97857, Note_on_c, 0, 74, 0
2, 97860, Note_on_c, 0, 75, 64
2, 97860, Note_on_c, 0, 51, 64
2, 97860, Note_on_c, 0, 55, 64
2, 97860, Note_on_c, 0, 58, 64
2, 97877, Note_on_c, 0, 75, 0
2, 97879, Note_on_c, 0, 77, 64
2, 97897, Note_on_c, 0, 77, 0
2, 97899, Note_on_c, 0, 79, 64
2, 97917, Note_on_c, 0, 79, 0
2, 97920, Note_on_c, 0, 80, 64
2, 97937, Note_on_c, 0, 80, 0
2, 97939, Note_on_c, 0, 82, 64
2, 97957, Note_on_c, 0, 82, 0
2, 97959, Note_on_c, 0, 84, 64
2, 97965, Note_on_c, 0, 51, 0
2, 97965, Note_on_c, 0, 58, 0
2, 97965, Note_on_c, 0, 55, 0
2, 97977, Note_on_c, 0, 84, 0
2, 97980, Note_on_c, 0, 86, 64
2, 97980, Note_on_c, 0, 46, 64
2, 97980, Note_on_c, 0, 53, 64
2, 97980, Note_on_c, 0, 58, 64
2, 98006, Note_on_c, 0, 86, 0
2, 98010, Note_on_c, 0, 74, 64
2, 98032, Note_on_c, 0, 46, 0
2, 98032, Note_on_c, 0, 58, 0
2, 98032, Note_on_c, 0, 53, 0
2, 98036, Note_on_c, 0, 74, 0
2, 98040, Note_on_c, 0, 75, 64
2, 98040, Note_on_c, 0, 51, 64
2, 98040, Note_on_c, 0, 55, 64
2, 98040, Note_on_c, 0, 58, 64
2, 98066, Note_on_c, 0, 75, 0
2, 98070, Note_on_c, 0, 77, 64
2, 98092, Note_on_c, 0, 51, 0
2, 98092, Note_on_c, 0, 58, 0
2, 98092, Note_on_c, 0, 55, 0
2, 98096, Note_on_c, 0, 77, 0
2, 98100, Note_on_c, 0, 79, 64
2, 98100, Note_on_c, 0, 51, 64
2, 98100, Note_on_c, 0, 55, 64
2, 98100, Note_on_c, 0, 58, 64
2, 98126, Note_on_c, 0, 79, 0
2, 98130, Note_on_c, 0, 80, 64
2, 98152, Note_on_c, 0, 51, 0
2, 98152, Note_on_c, 0, 58, 0
2, 98152, Note_on_c, 0, 55, 0
2, 98156, Note_on_c, 0, 80, 0
2, 98160, Note_on_c, 0, 82, 64
2, 98160, Note_on_c, 0, 51, 64
2, 98160, Note_on_c, 0, 55, 64
2, 98160, Note_on_c, 0, 58, 64
2, 98177, Note_on_c, 0, 82, 0
2, 98179, Note_on_c, 0, 84, 64
2, 98197, Note_on_c, 0, 84, 0
2, 98199, Note_on_c, 0, 86, 64
2, 98212, Note_on_c, 0, 58, 0
2, 98212, Note_on_c, 0, 51, 0
2, 98212, Note_on_c, 0, 55, 0
2, 98217, Note_on_c, 0, 86, 0
2, 98220, Note_on_c, 0, 87, 64
2, 98220, Note_on_c, 0, 51, 64
2, 98220, Note_on_c, 0, 55, 64
2, 98220, Note_on_c, 0, 58, 64
2, 98246, Note_on_c, 0, 87, 0
2, 98250, Note_on_c, 0, 89, 64
2, 98276, Note_on_c, 0, 89, 0
2, 98280, Note_on_c, 0, 91, 64
2, 98306, Note_on_c, 0, 91, 0
2, 98310, Note_on_c, 0, 92, 64
2, 98325, Note_on_c, 0, 51, 0
2, 98325, Note_on_c, 0, 58, 0
2, 98325, Note_on_c, 0, 55, 0
2, 98336, Note_on_c, 0, 92, 0
2, 98340, Note_on_c, 0, 94, 64
2, 98340, Note_on_c, 0, 46, 64
2, 98340, Note_on_c, 0, 53, 64
2, 98340, Note_on_c, 0, 58, 64
2, 98357, Note_on_c, 0, 94, 0
2, 98359, Note_on_c, 0, 96, 64
2, 98377, Note_on_c, 0, 96, 0
2, 98379, Note_on_c, 0, 98, 64
2, 98392, Note_on_c, 0, 58, 0
2, 98392, Note_on_c, 0, 46, 0
2, 98392, Note_on_c, 0, 53, 0
2, 98397, Note_on_c, 0, 98, 0
2, 98400, Note_on_c, 0, 99, 64
2, 98400, Note_on_c, 0, 51, 64
2, 98400, Note_on_c, 0, 55, 64
2, 98400, Note_on_c, 0, 58, 64
2, 98505, Note_on_c, 0, 58, 0
2, 98505, Note_on_c, 0, 99, 0
2, 98505, Note_on_c, 0, 51, 0
2, 98505, Note_on_c, 0, 55, 0
2, 98580, Note_on_c, 0, 67, 64
2, 98580, Note_on_c, 0, 70, 64
2, 98580, Note_on_c, 0, 75, 64
2, 98580, Note_on_c, 0, 39, 64
2, 98580, Note_on_c, 0, 51, 64
2, 98685, Note_on_c, 0, 51, 0
2, 98685, Note_on_c, 0, 75, 0
2, 98685, Note_on_c, 0, 67, 0
2, 98685, Note_on_c, 0, 70, 0
2, 98685, Note_on_c, 0, 39, 0
2, 98760, Note_on_c, 0, 55, 64
2, 98760, Note_on_c, 0, 58, 64
2, 98760, Note_on_c, 0, 63, 64
2, 98760, Note_on_c, 0, 39, 64
2, 98760, Note_on_c, 0, 51, 64
2, 98865, Note_on_c, 0, 51, 0
2, 98865, Note_on_c, 0, 63, 0
2, 98865, Note_on_c, 0, 55, 0
2, 98865, Note_on_c, 0, 58, 0
2, 98865, Note_on_c, 0, 39, 0
2, 98940, Note_on_c, 0, 70, 64
2, 99045, Note_on_c, 0, 70, 0
2, 99060, Note_on_c, 0, 70, 64
2, 99112, Note_on_c, 0, 70, 0
2, 99120, Note_on_c, 0, 70, 64
2, 99120, Note_on_c, 0, 51, 64
2, 99120, Note_on_c, 0, 55, 64
2, 99120, Note_on_c, 0, 58, 64
2, 99172, Note_on_c, 0, 58, 0
2, 99172, Note_on_c, 0, 70, 0
2, 99172, Note_on_c, 0, 51, 0
2, 99172, Note_on_c, 0, 55, 0
2, 99180, Note_on_c, 0, 67, 64
2, 99232, Note_on_c, 0, 67, 0
2, 99240, Note_on_c, 0, 63, 64
2, 99292, Note_on_c, 0, 63, 0
2, 99300, Note_on_c, 0, 62, 64
2, 99300, Note_on_c, 0, 46, 64
2, 99300, Note_on_c, 0, 53, 64
2, 99300, Note_on_c, 0, 56, 64
2, 99300, Note_on_c, 0, 58, 64
2, 99352, Note_on_c, 0, 58, 0
2, 99352, Note_on_c, 0, 53, 0
2, 99352, Note_on_c, 0, 62, 0
2, 99352, Note_on_c, 0, 46, 0
2, 99352, Note_on_c, 0, 56, 0
2, 99360, Note_on_c, 0, 65, 64
2, 99412, Note_on_c, 0, 65, 0
2, 99420, Note_on_c, 0, 70, 64
2, 99472, Note_on_c, 0, 70, 0
2, 99480, Note_on_c, 0, 70, 64
2, 99480, Note_on_c, 0, 51, 64
2, 99480, Note_on_c, 0, 55, 64
2, 99480, Note_on_c, 0, 58, 64
2, 99532, Note_on_c, 0, 58, 0
2, 99532, Note_on_c, 0, 70, 0
2, 99532, Note_on_c, 0, 51, 0
2, 99532, Note_on_c, 0, 55, 0
2, 99540, Note_on_c, 0, 67, 64
2, 99592, Note_on_c, 0, 67, 0
2, 99600, Note_on_c, 0, 63, 64
2, 99652, Note_on_c, 0, 63, 0
2, 99660, Note_on_c, 0, 64, 64
2, 99660, Note_on_c, 0, 48, 64
2, 99660, Note_on_c, 0, 55, 64
2, 99660, Note_on_c, 0, 60, 64
2, 99686, Note_on_c, 0, 60, 0
2, 99686, Note_on_c, 0, 55, 0
2, 99686, Note_on_c, 0, 48, 0
2, 99712, Note_on_c, 0, 64, 0
2, 99720, Note_on_c, 0, 67, 64
2, 99772, Note_on_c, 0, 67, 0
2, 99780, Note_on_c, 0, 72, 64
2, 99780, Note_on_c, 0, 52, 64
2, 99780, Note_on_c, 0, 55, 64
2, 99780, Note_on_c, 0, 58, 64
2, 99780, Note_on_c, 0, 60, 64
2, 99806, Note_on_c, 0, 60, 0
2, 99806, Note_on_c, 0, 55, 0
2, 99806, Note_on_c, 0, 58, 0
2, 99806, Note_on_c, 0, 52, 0
2, 99832, Note_on_c, 0, 72, 0
2, 99840, Note_on_c, 0, 72, 64
2, 99840, Note_on_c, 0, 53, 64
2, 99840, Note_on_c, 0, 56, 64
2, 99840, Note_on_c, 0, 60, 64
2, 99892, Note_on_c, 0, 60, 0
2, 99892, Note_on_c, 0, 72, 0
2, 99892, Note_on_c, 0, 53, 0
2, 99892, Note_on_c, 0, 56, 0
2, 99900, Note_on_c, 0, 68, 64
2, 99952, Note_on_c, 0, 68, 0
2, 99960, Note_on_c, 0, 65, 64
2, 100012, Note_on_c, 0, 65, 0
2, 100020, Note_on_c, 0, 66, 64
2, 100020, Note_on_c, 0, 50, 64
2, 100020, Note_on_c, 0, 57, 64
2, 100020, Note_on_c, 0, 62, 64
2, 100046, Note_on_c, 0, 62, 0
2, 100046, Note_on_c, 0, 57, 0
2, 100046, Note_on_c, 0, 50, 0
2, 100072, Note_on_c, 0, 66, 0
2, 100080, Note_on_c, 0, 69, 64
2, 100132, Note_on_c, 0, 69, 0
2, 100140, Note_on_c, 0, 74, 64
2, 100140, Note_on_c, 0, 54, 64
2, 100140, Note_on_c, 0, 57, 64
2, 100140, Note_on_c, 0, 62, 64
2, 100166, Note_on_c, 0, 62, 0
2, 100166, Note_on_c, 0, 57, 0
2, 100166, Note_on_c, 0, 54, 0
2, 100192, Note_on_c, 0, 74, 0
2, 100200, Note_on_c, 0, 74, 64
2, 100200, Note_on_c, 0, 55, 64
2, 100200, Note_on_c, 0, 58, 64
2, 100200, Note_on_c, 0, 62, 64
2, 100252, Note_on_c, 0, 62, 0
2, 100252, Note_on_c, 0, 74, 0
2, 100252, Note_on_c, 0, 55, 0
2, 100252, Note_on_c, 0, 58, 0
2, 100260, Note_on_c, 0, 70, 64
2, 100312, Note_on_c, 0, 70, 0
2, 100320, Note_on_c, 0, 67, 64
2, 100372, Note_on_c, 0, 67, 0
2, 100380, Note_on_c, 0, 68, 64
2, 100380, Note_on_c, 0, 53, 64
2, 100380, Note_on_c, 0, 56, 64
2, 100380, Note_on_c, 0, 58, 64
2, 100380, Note_on_c, 0, 62, 64
2, 100432, Note_on_c, 0, 62, 0
2, 100432, Note_on_c, 0, 56, 0
2, 100432, Note_on_c, 0, 68, 0
2, 100432, Note_on_c, 0, 53, 0
2, 100432, Note_on_c, 0, 58, 0
2, 100440, Note_on_c, 0, 70, 64
2, 100492, Note_on_c, 0, 70, 0
2, 100500, Note_on_c, 0, 74, 64
2, 100552, Note_on_c, 0, 74, 0
2, 100560, Note_on_c, 0, 75, 64
2, 100560, Note_on_c, 0, 51, 64
2, 100560, Note_on_c, 0, 55, 64
2, 100560, Note_on_c, 0, 58, 64
2, 100560, Note_on_c, 0, 63, 64
2, 100612, Note_on_c, 0, 75, 0
2, 100620, Note_on_c, 0, 70, 64
2, 100665, Note_on_c, 0, 58, 0
2, 100665, Note_on_c, 0, 63, 0
2, 100665, Note_on_c, 0, 51, 0
2, 100665, Note_on_c, 0, 55, 0
2, 100672, Note_on_c, 0, 70, 0
2, 100680, Note_on_c, 0, 67, 64
2, 100732, Note_on_c, 0, 67, 0
2, 100740, Note_on_c, 0, 67, 64
2, 100792, Note_on_c, 0, 67, 0
2, 100800, Note_on_c, 0, 70, 64
2, 100852, Note_on_c, 0, 70, 0
2, 100860, Note_on_c, 0, 75, 64
2, 100912, Note_on_c, 0, 75, 0
2, 100920, Note_on_c, 0, 79, 64
2, 100920, Note_on_c, 0, 63, 64
2, 100972, Note_on_c, 0, 63, 0
2, 100972, Note_on_c, 0, 79, 0
2, 100980, Note_on_c, 0, 75, 64
2, 100980, Note_on_c, 0, 58, 64
2, 101032, Note_on_c, 0, 58, 0
2, 101032, Note_on_c, 0, 75, 0
2, 101040, Note_on_c, 0, 70, 64
2, 101040, Note_on_c, 0, 55, 64
2, 101092, Note_on_c, 0, 55, 0
2, 101092, Note_on_c, 0, 70, 0
2, 101100, Note_on_c, 0, 70, 64
2, 101100, Note_on_c, 0, 55, 64
2, 101152, Note_on_c, 0, 55, 0
2, 101152, Note_on_c, 0, 70, 0
2, 101160, Note_on_c, 0, 75, 64
2, 101160, Note_on_c, 0, 58, 64
2, 101212, Note_on_c, 0, 58, 0
2, 101212, Note_on_c, 0, 75, 0
2, 101220, Note_on_c, 0, 79, 64
2, 101220, Note_on_c, 0, 63, 64
2, 101272, Note_on_c, 0, 63, 0
2, 101272, Note_on_c, 0, 79, 0
2, 101280, Note_on_c, 0, 79, 64
2, 101280, Note_on_c, 0, 82, 64
2, 101280, Note_on_c, 0, 39, 64
2, 101280, Note_on_c, 0, 43, 64
2, 101332, Note_on_c, 0, 43, 0
2, 101332, Note_on_c, 0, 79, 0
2, 101332, Note_on_c, 0, 82, 0
2, 101332, Note_on_c, 0, 39, 0
2, 101340, Note_on_c, 0, 75, 64
2, 101340, Note_on_c, 0, 79, 64
2, 101340, Note_on_c, 0, 43, 64
2, 101340, Note_on_c, 0, 46, 64
2, 101392, Note_on_c, 0, 46, 0
2, 101392, Note_on_c, 0, 75, 0
2, 101392, Note_on_c, 0, 79, 0
2, 101392, Note_on_c, 0, 43, 0
2, 101400, Note_on_c, 0, 70, 64
2, 101400, Note_on_c, 0, 75, 64
2, 101400, Note_on_c, 0, 46, 64
2, 101400, Note_on_c, 0, 51, 64
2, 101452, Note_on_c, 0, 51, 0
2, 101452, Note_on_c, 0, 70, 0
2, 101452, Note_on_c, 0, 75, 0
2, 101452, Note_on_c, 0, 46, 0
2, 101460, Note_on_c, 0, 75, 64
2, 101460, Note_on_c, 0, 79, 64
2, 101460, Note_on_c, 0, 43, 64
2, 101460, Note_on_c, 0, 46, 64
2, 101512, Note_on_c, 0, 46, 0
2, 101512, Note_on_c, 0, 75, 0
2, 101512, Note_on_c, 0, 79, 0
2, 101512, Note_on_c, 0, 43, 0
2, 101520, Note_on_c, 0, 70, 64
2, 101520, Note_on_c, 0, 75, 64
2, 101520, Note_on_c, 0, 46, 64
2, 101520, Note_on_c, 0, 51, 64
2, 101572, Note_on_c, 0, 51, 0
2, 101572, Note_on_c, 0, 70, 0
2, 101572, Note_on_c, 0, 75, 0
2, 101572, Note_on_c, 0, 46, 0
2, 101580, Note_on_c, 0, 67, 64
2, 101580, Note_on_c, 0, 70, 64
2, 101580, Note_on_c, 0, 51, 64
2, 101580, Note_on_c, 0, 55, 64
2, 101632, Note_on_c, 0, 55, 0
2, 101632, Note_on_c, 0, 67, 0
2, 101632, Note_on_c, 0, 70, 0
2, 101632, Note_on_c, 0, 51, 0
2, 101640, Note_on_c, 0, 70, 64
2, 101640, Note_on_c, 0, 75, 64
2, 101640, Note_on_c, 0, 46, 64
2, 101640, Note_on_c, 0, 51, 64
2, 101692, Note_on_c, 0, 51, 0
2, 101692, Note_on_c, 0, 70, 0
2, 101692, Note_on_c, 0, 75, 0
2, 101692, Note_on_c, 0, 46, 0
2, 101700, Note_on_c, 0, 67, 64
2, 101700, Note_on_c, 0, 70, 64
2, 101700, Note_on_c, 0, 51, 64
2, 101700, Note_on_c, 0, 55, 64
2, 101752, Note_on_c, 0, 55, 0
2, 101752, Note_on_c, 0, 67, 0
2, 101752, Note_on_c, 0, 70, 0
2, 101752, Note_on_c, 0, 51, 0
2, 101760, Note_on_c, 0, 63, 64
2, 101760, Note_on_c, 0, 67, 64
2, 101760, Note_on_c, 0, 55, 64
2, 101760, Note_on_c, 0, 58, 64
2, 101812, Note_on_c, 0, 58, 0
2, 101812, Note_on_c, 0, 63, 0
2, 101812, Note_on_c, 0, 67, 0
2, 101812, Note_on_c, 0, 55, 0
2, 101820, Note_on_c, 0, 70, 64
2, 101872, Note_on_c, 0, 70, 0
2, 101880, Note_on_c, 0, 60, 64
2, 101880, Note_on_c, 0, 68, 64
2, 101880, Note_on_c, 0, 46, 64
2, 101880, Note_on_c, 0, 53, 64
2, 101932, Note_on_c, 0, 53, 0
2, 101932, Note_on_c, 0, 60, 0
2, 101932, Note_on_c, 0, 68, 0
2, 101932, Note_on_c, 0, 46, 0
2, 101940, Note_on_c, 0, 62, 64
2, 101940, Note_on_c, 0, 65, 64
2, 101940, Note_on_c, 0, 46, 64
2, 101940, Note_on_c, 0, 58, 64
2, 101992, Note_on_c, 0, 58, 0
2, 101992, Note_on_c, 0, 62, 0
2, 101992, Note_on_c, 0, 65, 0
2, 101992, Note_on_c, 0, 46, 0
2, 102000, Note_on_c, 0, 67, 64
2, 102000, Note_on_c, 0, 75, 64
2, 102000, Note_on_c, 0, 51, 64
2, 102000, Note_on_c, 0, 55, 64
2, 102000, Note_on_c, 0, 58, 64
2, 102026, Note_on_c, 0, 75, 0
2, 102026, Note_on_c, 0, 67, 0
2, 102030, Note_on_c, 0, 74, 64
2, 102056, Note_on_c, 0, 74, 0
2, 102060, Note_on_c, 0, 75, 64
2, 102086, Note_on_c, 0, 75, 0
2, 102090, Note_on_c, 0, 70, 64
2, 102105, Note_on_c, 0, 55, 0
2, 102105, Note_on_c, 0, 58, 0
2, 102105, Note_on_c, 0, 51, 0
2, 102116, Note_on_c, 0, 70, 0
2, 102120, Note_on_c, 0, 67, 64
2, 102146, Note_on_c, 0, 67, 0
2, 102165, Note_on_c, 0, 68, 64
2, 102178, Note_on_c, 0, 68, 0
2, 102180, Note_on_c, 0, 67, 64
2, 102206, Note_on_c, 0, 67, 0
2, 102210, Note_on_c, 0, 66, 64
2, 102236, Note_on_c, 0, 66, 0
2, 102240, Note_on_c, 0, 67, 64
2, 102266, Note_on_c, 0, 67, 0
2, 102270, Note_on_c, 0, 70, 64
2, 102296, Note_on_c, 0, 70, 0
2, 102300, Note_on_c, 0, 75, 64
2, 102326, Note_on_c, 0, 75, 0
2, 102360, Note_on_c, 0, 67, 64
2, 102360, Note_on_c, 0, 79, 64
2, 102360, Note_on_c, 0, 51, 64
2, 102360, Note_on_c, 0, 63, 64
2, 102386, Note_on_c, 0, 63, 0
2, 102386, Note_on_c, 0, 79, 0
2, 102390, Note_on_c, 0, 78, 64
2, 102390, Note_on_c, 0, 62, 64
2, 102416, Note_on_c, 0, 62, 0
2, 102416, Note_on_c, 0, 78, 0
2, 102420, Note_on_c, 0, 79, 64
2, 102420, Note_on_c, 0, 63, 64
2, 102446, Note_on_c, 0, 63, 0
2, 102446, Note_on_c, 0, 79, 0
2, 102450, Note_on_c, 0, 75, 64
2, 102450, Note_on_c, 0, 58, 64
2, 102476, Note_on_c, 0, 58, 0
2, 102476, Note_on_c, 0, 75, 0
2, 102480, Note_on_c, 0, 70, 64
2, 102480, Note_on_c, 0, 55, 64
2, 102506, Note_on_c, 0, 55, 0
2, 102506, Note_on_c, 0, 70, 0
2, 102525, Note_on_c, 0, 51, 0
2, 102525, Note_on_c, 0, 67, 0
2, 102525, Note_on_c, 0, 72, 64
2, 102525, Note_on_c, 0, 56, 64
2, 102538, Note_on_c, 0, 56, 0
2, 102538, Note_on_c, 0, 72, 0
2, 102540, Note_on_c, 0, 70, 64
2, 102540, Note_on_c, 0, 55, 64
2, 102566, Note_on_c, 0, 55, 0
2, 102566, Note_on_c, 0, 70, 0
2, 102570, Note_on_c, 0, 69, 64
2, 102570, Note_on_c, 0, 54, 64
2, 102596, Note_on_c, 0, 54, 0
2, 102596, Note_on_c, 0, 69, 0
2, 102600, Note_on_c, 0, 70, 64
2, 102600, Note_on_c, 0, 55, 64
2, 102626, Note_on_c, 0, 55, 0
2, 102626, Note_on_c, 0, 70, 0
2, 102630, Note_on_c, 0, 75, 64
2, 102630, Note_on_c, 0, 58, 64
2, 102656, Note_on_c, 0, 58, 0
2, 102656, Note_on_c, 0, 75, 0
2, 102660, Note_on_c, 0, 79, 64
2, 102660, Note_on_c, 0, 63, 64
2, 102686, Note_on_c, 0, 63, 0
2, 102686, Note_on_c, 0, 79, 0
2, 102720, Note_on_c, 0, 79, 64
2, 102720, Note_on_c, 0, 82, 64
2, 102720, Note_on_c, 0, 39, 64
2, 102746, Note_on_c, 0, 39, 0
2, 102746, Note_on_c, 0, 82, 0
2, 102746, Note_on_c, 0, 79, 0
2, 102750, Note_on_c, 0, 80, 64
2, 102750, Note_on_c, 0, 84, 64
2, 102750, Note_on_c, 0, 38, 64
2, 102776, Note_on_c, 0, 38, 0
2, 102776, Note_on_c, 0, 84, 0
2, 102776, Note_on_c, 0, 80, 0
2, 102780, Note_on_c, 0, 79, 64
2, 102780, Note_on_c, 0, 82, 64
2, 102780, Note_on_c, 0, 39, 64
2, 102806, Note_on_c, 0, 39, 0
2, 102806, Note_on_c, 0, 82, 0
2, 102806, Note_on_c, 0, 79, 0
2, 102810, Note_on_c, 0, 75, 64
2, 102810, Note_on_c, 0, 79, 64
2, 102810, Note_on_c, 0, 43, 64
2, 102836, Note_on_c, 0, 43, 0
2, 102836, Note_on_c, 0, 79, 0
2, 102836, Note_on_c, 0, 75, 0
2, 102840, Note_on_c, 0, 67, 64
2, 102840, Note_on_c, 0, 75, 64
2, 102840, Note_on_c, 0, 46, 64
2, 102892, Note_on_c, 0, 46, 0
2, 102892, Note_on_c, 0, 75, 0
2, 102892, Note_on_c, 0, 67, 0
2, 102900, Note_on_c, 0, 75, 64
2, 102900, Note_on_c, 0, 79, 64
2, 102900, Note_on_c, 0, 43, 64
2, 102926, Note_on_c, 0, 43, 0
2, 102926, Note_on_c, 0, 79, 0
2, 102926, Note_on_c, 0, 75, 0
2, 102930, Note_on_c, 0, 80, 64
2, 102930, Note_on_c, 0, 41, 64
2, 102956, Note_on_c, 0, 41, 0
2, 102956, Note_on_c, 0, 80, 0
2, 102960, Note_on_c, 0, 75, 64
2, 102960, Note_on_c, 0, 79, 64
2, 102960, Note_on_c, 0, 43, 64
2, 102986, Note_on_c, 0, 43, 0
2, 102986, Note_on_c, 0, 79, 0
2, 102986, Note_on_c, 0, 75, 0
2, 102990, Note_on_c, 0, 70, 64
2, 102990, Note_on_c, 0, 75, 64
2, 102990, Note_on_c, 0, 46, 64
2, 103016, Note_on_c, 0, 46, 0
2, 103016, Note_on_c, 0, 75, 0
2, 103016, Note_on_c, 0, 70, 0
2, 103020, Note_on_c, 0, 67, 64
2, 103020, Note_on_c, 0, 70, 64
2, 103020, Note_on_c, 0, 51, 64
2, 103072, Note_on_c, 0, 51, 0
2, 103072, Note_on_c, 0, 70, 0
2, 103072, Note_on_c, 0, 67, 0
2, 103080, Note_on_c, 0, 67, 64
2, 103080, Note_on_c, 0, 75, 64
2, 103080, Note_on_c, 0, 46, 64
2, 103106, Note_on_c, 0, 46, 0
2, 103106, Note_on_c, 0, 75, 0
2, 103106, Note_on_c, 0, 67, 0
2, 103110, Note_on_c, 0, 77, 64
2, 103110, Note_on_c, 0, 44, 64
2, 103136, Note_on_c, 0, 44, 0
2, 103136, Note_on_c, 0, 77, 0
2, 103140, Note_on_c, 0, 67, 64
2, 103140, Note_on_c, 0, 75, 64
2, 103140, Note_on_c, 0, 46, 64
2, 103166, Note_on_c, 0, 46, 0
2, 103166, Note_on_c, 0, 75, 0
2, 103166, Note_on_c, 0, 67, 0
2, 103170, Note_on_c, 0, 67, 64
2, 103170, Note_on_c, 0, 70, 64
2, 103170, Note_on_c, 0, 51, 64
2, 103196, Note_on_c, 0, 51, 0
2, 103196, Note_on_c, 0, 70, 0
2, 103196, Note_on_c, 0, 67, 0
2, 103200, Note_on_c, 0, 63, 64
2, 103200, Note_on_c, 0, 67, 64
2, 103200, Note_on_c, 0, 55, 64
2, 103252, Note_on_c, 0, 55, 0
2, 103252, Note_on_c, 0, 67, 0
2, 103252, Note_on_c, 0, 63, 0
2, 103260, Note_on_c, 0, 70, 64
2, 103312, Note_on_c, 0, 70, 0
2, 103320, Note_on_c, 0, 60, 64
2, 103320, Note_on_c, 0, 68, 64
2, 103320, Note_on_c, 0, 46, 64
2, 103320, Note_on_c, 0, 53, 64
2, 103372, Note_on_c, 0, 53, 0
2, 103372, Note_on_c, 0, 60, 0
2, 103372, Note_on_c, 0, 68, 0
2, 103372, Note_on_c, 0, 46, 0
2, 103380, Note_on_c, 0, 62, 64
2, 103380, Note_on_c, 0, 65, 64
2, 103380, Note_on_c, 0, 46, 64
2, 103380, Note_on_c, 0, 58, 64
2, 103432, Note_on_c, 0, 58, 0
2, 103432, Note_on_c, 0, 62, 0
2, 103432, Note_on_c, 0, 65, 0
2, 103432, Note_on_c, 0, 46, 0
2, 103440, Note_on_c, 0, 39, 64
2, 103440, Note_on_c, 0, 43, 64
2, 103470, Note_on_c, 0, 79, 64
2, 103470, Note_on_c, 0, 82, 64
2, 103492, Note_on_c, 0, 43, 0
2, 103492, Note_on_c, 0, 39, 0
2, 103500, Note_on_c, 0, 43, 64
2, 103500, Note_on_c, 0, 46, 64
2, 103522, Note_on_c, 0, 79, 0
2, 103522, Note_on_c, 0, 82, 0
2, 103530, Note_on_c, 0, 75, 64
2, 103530, Note_on_c, 0, 79, 64
2, 103552, Note_on_c, 0, 43, 0
2, 103552, Note_on_c, 0, 46, 0
2, 103560, Note_on_c, 0, 46, 64
2, 103560, Note_on_c, 0, 51, 64
2, 103582, Note_on_c, 0, 75, 0
2, 103582, Note_on_c, 0, 79, 0
2, 103590, Note_on_c, 0, 70, 64
2, 103590, Note_on_c, 0, 75, 64
2, 103612, Note_on_c, 0, 46, 0
2, 103612, Note_on_c, 0, 51, 0
2, 103620, Note_on_c, 0, 43, 64
2, 103620, Note_on_c, 0, 46, 64
2, 103646, Note_on_c, 0, 70, 0
2, 103646, Note_on_c, 0, 75, 0
2, 103650, Note_on_c, 0, 75, 64
2, 103650, Note_on_c, 0, 79, 64
2, 103672, Note_on_c, 0, 43, 0
2, 103672, Note_on_c, 0, 46, 0
2, 103680, Note_on_c, 0, 46, 64
2, 103680, Note_on_c, 0, 51, 64
2, 103702, Note_on_c, 0, 75, 0
2, 103702, Note_on_c, 0, 79, 0
2, 103710, Note_on_c, 0, 70, 64
2, 103710, Note_on_c, 0, 75, 64
2, 103732, Note_on_c, 0, 46, 0
2, 103732, Note_on_c, 0, 51, 0
2, 103740, Note_on_c, 0, 51, 64
2, 103740, Note_on_c, 0, 55, 64
2, 103762, Note_on_c, 0, 70, 0
2, 103762, Note_on_c, 0, 75, 0
2, 103770, Note_on_c, 0, 67, 64
2, 103770, Note_on_c, 0, 70, 64
2, 103792, Note_on_c, 0, 51, 0
2, 103792, Note_on_c, 0, 55, 0
2, 103800, Note_on_c, 0, 46, 64
2, 103800, Note_on_c, 0, 51, 64
2, 103826, Note_on_c, 0, 67, 0
2, 103826, Note_on_c, 0, 70, 0
2, 103830, Note_on_c, 0, 70, 64
2, 103830, Note_on_c, 0, 75, 64
2, 103852, Note_on_c, 0, 46, 0
2, 103852, Note_on_c, 0, 51, 0
2, 103860, Note_on_c, 0, 51, 64
2, 103860, Note_on_c, 0, 55, 64
2, 103882, Note_on_c, 0, 70, 0
2, 103882, Note_on_c, 0, 75, 0
2, 103890, Note_on_c, 0, 67, 64
2, 103890, Note_on_c, 0, 70, 64
2, 103912, Note_on_c, 0, 51, 0
2, 103912, Note_on_c, 0, 55, 0
2, 103920, Note_on_c, 0, 46, 64
2, 103920, Note_on_c, 0, 51, 64
2, 103920, Note_on_c, 0, 58, 64
2, 103942, Note_on_c, 0, 67, 0
2, 103942, Note_on_c, 0, 70, 0
2, 103950, Note_on_c, 0, 67, 64
2, 103972, Note_on_c, 0, 51, 0
2, 103972, Note_on_c, 0, 58, 0
2, 103972, Note_on_c, 0, 46, 0
2, 103980, Note_on_c, 0, 46, 64
2, 103980, Note_on_c, 0, 53, 64
2, 103980, Note_on_c, 0, 58, 64
2, 104006, Note_on_c, 0, 67, 0
2, 104010, Note_on_c, 0, 62, 64
2, 104010, Note_on_c, 0, 70, 64
2, 104032, Note_on_c, 0, 46, 0
2, 104032, Note_on_c, 0, 58, 0
2, 104032, Note_on_c, 0, 53, 0
2, 104040, Note_on_c, 0, 46, 64
2, 104040, Note_on_c, 0, 53, 64
2, 104040, Note_on_c, 0, 58, 64
2, 104062, Note_on_c, 0, 62, 0
2, 104062, Note_on_c, 0, 70, 0
2, 104070, Note_on_c, 0, 62, 64
2, 104070, Note_on_c, 0, 68, 64
2, 104092, Note_on_c, 0, 53, 0
2, 104092, Note_on_c, 0, 58, 0
2, 104092, Note_on_c, 0, 46, 0
2, 104100, Note_on_c, 0, 46, 64
2, 104100, Note_on_c, 0, 56, 64
2, 104100, Note_on_c, 0, 58, 64
2, 104122, Note_on_c, 0, 62, 0
2, 104122, Note_on_c, 0, 68, 0
2, 104130, Note_on_c, 0, 62, 64
2, 104130, Note_on_c, 0, 65, 64
2, 104152, Note_on_c, 0, 56, 0
2, 104152, Note_on_c, 0, 58, 0
2, 104152, Note_on_c, 0, 46, 0
2, 104156, Note_on_c, 0, 62, 0
2, 104156, Note_on_c, 0, 65, 0
2, 104160, Note_on_c, 0, 82, 64
2, 104160, Note_on_c, 0, 70, 64
2, 104186, Note_on_c, 0, 82, 0
2, 104190, Note_on_c, 0, 94, 64
2, 104212, Note_on_c, 0, 70, 0
2, 104216, Note_on_c, 0, 94, 0
2, 104220, Note_on_c, 0, 79, 64
2, 104220, Note_on_c, 0, 67, 64
2, 104246, Note_on_c, 0, 79, 0
2, 104250, Note_on_c, 0, 91, 64
2, 104272, Note_on_c, 0, 67, 0
2, 104276, Note_on_c, 0, 91, 0
2, 104280, Note_on_c, 0, 75, 64
2, 104280, Note_on_c, 0, 63, 64
2, 104306, Note_on_c, 0, 75, 0
2, 104310, Note_on_c, 0, 87, 64
2, 104332, Note_on_c, 0, 63, 0
2, 104336, Note_on_c, 0, 87, 0
2, 104340, Note_on_c, 0, 79, 64
2, 104340, Note_on_c, 0, 67, 64
2, 104366, Note_on_c, 0, 79, 0
2, 104370, Note_on_c, 0, 91, 64
2, 104392, Note_on_c, 0, 67, 0
2, 104396, Note_on_c, 0, 91, 0
2, 104400, Note_on_c, 0, 75, 64
2, 104400, Note_on_c, 0, 63, 64
2, 104426, Note_on_c, 0, 75, 0
2, 104430, Note_on_c, 0, 87, 64
2, 104452, Note_on_c, 0, 63, 0
2, 104456, Note_on_c, 0, 87, 0
2, 104460, Note_on_c, 0, 70, 64
2, 104460, Note_on_c, 0, 58, 64
2, 104486, Note_on_c, 0, 70, 0
2, 104490, Note_on_c, 0, 82, 64
2, 104512, Note_on_c, 0, 58, 0
2, 104516, Note_on_c, 0, 82, 0
2, 104520, Note_on_c, 0, 75, 64
2, 104520, Note_on_c, 0, 63, 64
2, 104546, Note_on_c, 0, 75, 0
2, 104550, Note_on_c, 0, 87, 64
2, 104572, Note_on_c, 0, 63, 0
2, 104576, Note_on_c, 0, 87, 0
2, 104580, Note_on_c, 0, 70, 64
2, 104580, Note_on_c, 0, 58, 64
2, 104606, Note_on_c, 0, 70, 0
2, 104610, Note_on_c, 0, 82, 64
2, 104632, Note_on_c, 0, 58, 0
2, 104636, Note_on_c, 0, 82, 0
2, 104640, Note_on_c, 0, 67, 64
2, 104640, Note_on_c, 0, 55, 64
2, 104666, Note_on_c, 0, 67, 0
2, 104670, Note_on_c, 0, 79, 64
2, 104692, Note_on_c, 0, 55, 0
2, 104696, Note_on_c, 0, 79, 0
2, 104700, Note_on_c, 0, 70, 64
2, 104700, Note_on_c, 0, 58, 64
2, 104726, Note_on_c, 0, 70, 0
2, 104730, Note_on_c, 0, 82, 64
2, 104752, Note_on_c, 0, 58, 0
2, 104756, Note_on_c, 0, 82, 0
2, 104760, Note_on_c, 0, 68, 64
2, 104760, Note_on_c, 0, 56, 64
2, 104786, Note_on_c, 0, 68, 0
2, 104790, Note_on_c, 0, 80, 64
2, 104812, Note_on_c, 0, 56, 0
2, 104816, Note_on_c, 0, 80, 0
2, 104820, Note_on_c, 0, 63, 64
2, 104820, Note_on_c, 0, 46, 64
2, 104820, Note_on_c, 0, 53, 64
2, 104846, Note_on_c, 0, 63, 0
2, 104850, Note_on_c, 0, 77, 64
2, 104872, Note_on_c, 0, 53, 0
2, 104872, Note_on_c, 0, 46, 0
2, 104876, Note_on_c, 0, 77, 0
2, 104880, Note_on_c, 0, 63, 64
2, 104880, Note_on_c, 0, 39, 64
2, 104880, Note_on_c, 0, 51, 64
2, 104882, Control_c, 0, 64, 110
2, 104906, Note_on_c, 0, 63, 0
2, 104910, Note_on_c, 0, 75, 64
2, 104932, Note_on_c, 0, 51, 0
2, 104932, Note_on_c, 0, 39, 0
2, 104936, Note_on_c, 0, 75, 0
2, 104940, Note_on_c, 0, 67, 64
2, 104940, Note_on_c, 0, 51, 64
2, 104940, Note_on_c, 0, 55, 64
2, 104940, Note_on_c, 0, 58, 64
2, 104940, Note_on_c, 0, 63, 64
2, 104966, Note_on_c, 0, 67, 0
2, 104970, Note_on_c, 0, 79, 64
2, 104992, Note_on_c, 0, 58, 0
2, 104992, Note_on_c, 0, 63, 0
2, 104992, Note_on_c, 0, 51, 0
2, 104992, Note_on_c, 0, 55, 0
2, 104996, Note_on_c, 0, 79, 0
2, 105000, Note_on_c, 0, 67, 64
2, 105000, Note_on_c, 0, 51, 64
2, 105000, Note_on_c, 0, 55, 64
2, 105000, Note_on_c, 0, 58, 64
2, 105000, Note_on_c, 0, 63, 64
2, 105026, Note_on_c, 0, 67, 0
2, 105030, Note_on_c, 0, 79, 64
2, 105052, Note_on_c, 0, 58, 0
2, 105052, Note_on_c, 0, 63, 0
2, 105052, Note_on_c, 0, 51, 0
2, 105052, Note_on_c, 0, 55, 0
2, 105056, Note_on_c, 0, 79, 0
2, 105060, Note_on_c, 0, 67, 64
2, 105060, Note_on_c, 0, 51, 64
2, 105060, Note_on_c, 0, 55, 64
2, 105060, Note_on_c, 0, 58, 64
2, 105060, Note_on_c, 0, 63, 64
2, 105086, Note_on_c, 0, 67, 0
2, 105090, Note_on_c, 0, 79, 64
2, 105112, Note_on_c, 0, 58, 0
2, 105112, Note_on_c, 0, 63, 0
2, 105112, Note_on_c, 0, 51, 0
2, 105112, Note_on_c, 0, 55, 0
2, 105116, Note_on_c, 0, 79, 0
2, 105120, Note_on_c, 0, 70, 64
2, 105120, Note_on_c, 0, 51, 64
2, 105120, Note_on_c, 0, 55, 64
2, 105120, Note_on_c, 0, 58, 64
2, 105120, Note_on_c, 0, 63, 64
2, 105146, Note_on_c, 0, 70, 0
2, 105150, Note_on_c, 0, 82, 64
2, 105172, Note_on_c, 0, 58, 0
2, 105172, Note_on_c, 0, 63, 0
2, 105172, Note_on_c, 0, 51, 0
2, 105172, Note_on_c, 0, 55, 0
2, 105176, Note_on_c, 0, 82, 0
2, 105180, Note_on_c, 0, 70, 64
2, 105180, Note_on_c, 0, 51, 64
2, 105180, Note_on_c, 0, 55, 64
2, 105180, Note_on_c, 0, 58, 64
2, 105180, Note_on_c, 0, 63, 64
2, 105206, Note_on_c, 0, 70, 0
2, 105210, Note_on_c, 0, 82, 64
2, 105232, Note_on_c, 0, 58, 0
2, 105232, Note_on_c, 0, 63, 0
2, 105232, Note_on_c, 0, 51, 0
2, 105232, Note_on_c, 0, 55, 0
2, 105236, Note_on_c, 0, 82, 0
2, 105240, Note_on_c, 0, 70, 64
2, 105240, Note_on_c, 0, 51, 64
2, 105240, Note_on_c, 0, 55, 64
2, 105240, Note_on_c, 0, 58, 64
2, 105240, Note_on_c, 0, 63, 64
2, 105266, Note_on_c, 0, 70, 0
2, 105270, Note_on_c, 0, 82, 64
2, 105292, Note_on_c, 0, 58, 0
2, 105292, Note_on_c, 0, 63, 0
2, 105292, Note_on_c, 0, 51, 0
2, 105292, Note_on_c, 0, 55, 0
2, 105296, Note_on_c, 0, 82, 0
2, 105300, Note_on_c, 0, 75, 64
2, 105300, Note_on_c, 0, 51, 64
2, 105300, Note_on_c, 0, 55, 64
2, 105300, Note_on_c, 0, 58, 64
2, 105300, Note_on_c, 0, 63, 64
2, 105326, Note_on_c, 0, 75, 0
2, 105330, Note_on_c, 0, 87, 64
2, 105352, Note_on_c, 0, 58, 0
2, 105352, Note_on_c, 0, 63, 0
2, 105352, Note_on_c, 0, 51, 0
2, 105352, Note_on_c, 0, 55, 0
2, 105356, Note_on_c, 0, 87, 0
2, 105360, Note_on_c, 0, 75, 64
2, 105360, Note_on_c, 0, 51, 64
2, 105360, Note_on_c, 0, 55, 64
2, 105360, Note_on_c, 0, 58, 64
2, 105360, Note_on_c, 0, 63, 64
2, 105386, Note_on_c, 0, 75, 0
2, 105390, Note_on_c, 0, 87, 64
2, 105412, Note_on_c, 0, 58, 0
2, 105412, Note_on_c, 0, 63, 0
2, 105412, Note_on_c, 0, 51, 0
2, 105412, Note_on_c, 0, 55, 0
2, 105416, Note_on_c, 0, 87, 0
2, 105420, Note_on_c, 0, 75, 64
2, 105420, Note_on_c, 0, 51, 64
2, 105420, Note_on_c, 0, 55, 64
2, 105420, Note_on_c, 0, 58, 64
2, 105420, Note_on_c, 0, 63, 64
2, 105446, Note_on_c, 0, 75, 0
2, 105450, Note_on_c, 0, 87, 64
2, 105472, Note_on_c, 0, 58, 0
2, 105472, Note_on_c, 0, 63, 0
2, 105472, Note_on_c, 0, 51, 0
2, 105472, Note_on_c, 0, 55, 0
2, 105476, Note_on_c, 0, 87, 0
2, 105480, Note_on_c, 0, 79, 64
2, 105480, Note_on_c, 0, 51, 64
2, 105480, Note_on_c, 0, 55, 64
2, 105480, Note_on_c, 0, 58, 64
2, 105480, Note_on_c, 0, 63, 64
2, 105506, Note_on_c, 0, 79, 0
2, 105510, Note_on_c, 0, 91, 64
2, 105532, Note_on_c, 0, 58, 0
2, 105532, Note_on_c, 0, 63, 0
2, 105532, Note_on_c, 0, 51, 0
2, 105532, Note_on_c, 0, 55, 0
2, 105536, Note_on_c, 0, 91, 0
2, 105540, Note_on_c, 0, 82, 64
2, 105540, Note_on_c, 0, 51, 64
2, 105540, Note_on_c, 0, 55, 64
2, 105540, Note_on_c, 0, 58, 64
2, 105540, Note_on_c, 0, 63, 64
2, 105566, Note_on_c, 0, 82, 0
2, 105570, Note_on_c, 0, 94, 64
2, 105592, Note_on_c, 0, 58, 0
2, 105592, Note_on_c, 0, 63, 0
2, 105592, Note_on_c, 0, 51, 0
2, 105592, Note_on_c, 0, 55, 0
2, 105596, Note_on_c, 0, 94, 0
2, 105600, Note_on_c, 0, 87, 64
2, 105600, Note_on_c, 0, 99, 64
2, 105600, Note_on_c, 0, 51, 64
2, 105600, Note_on_c, 0, 55, 64
2, 105600, Note_on_c, 0, 58, 64
2, 105600, Note_on_c, 0, 63, 64
2, 105698, Control_c, 0, 64, 0
2, 105705, Note_on_c, 0, 63, 0
2, 105705, Note_on_c, 0, 99, 0
2, 105705, Note_on_c, 0, 51, 0
2, 105705, Note_on_c, 0, 87, 0
2, 105705, Note_on_c, 0, 58, 0
2, 105705, Note_on_c, 0, 55, 0
2, 105780, Note_on_c, 0, 65, 64
2, 105780, Note_on_c, 0, 68, 64
2, 105780, Note_on_c, 0, 70, 64
2, 105780, Note_on_c, 0, 74, 64
2, 105780, Note_on_c, 0, 46, 64
2, 105780, Note_on_c, 0, 58, 64
2, 105885, Note_on_c, 0, 58, 0
2, 105885, Note_on_c, 0, 68, 0
2, 105885, Note_on_c, 0, 70, 0
2, 105885, Note_on_c, 0, 65, 0
2, 105885, Note_on_c, 0, 46, 0
2, 105885, Note_on_c, 0, 74, 0
2, 105960, Note_on_c, 0, 67, 64
2, 105960, Note_on_c, 0, 70, 64
2, 105960, Note_on_c, 0, 75, 64
2, 105960, Note_on_c, 0, 39, 64
2, 105960, Note_on_c, 0, 51, 64
2, 106065, Note_on_c, 0, 51, 0
2, 106065, Note_on_c, 0, 75, 0
2, 106065, Note_on_c, 0, 67, 0
2, 106065, Note_on_c, 0, 70, 0
2, 106065, Note_on_c, 0, 39, 0
2, 106065, End_track
3, 0, Start_track
3, 0, MIDI_port, 0
3, 0, Title_t, "Sequenced by Tony Chavez"
3, 0, End_track
4, 0, Start_track
4, 0, MIDI_port, 0
4, 0, Title_t, "tonychu@chanchan.unitru.edu.pe"
4, 0, End_track
0, 0, End_of_file