0, 0, Header, 1, 20, 480
1, 0, Start_track
1, 0, Title_t, "untitled"
1, 0, Tempo, 240000
1, 0, Time_signature, 4, 2, 24, 8
1, 0, Key_signature, 0, "major"
1, 5760, Tempo, 1000000
1, 13440, Tempo, 909091
1, 74880, Tempo, 535714
1, 107520, Tempo, 909091
1, 109440, Tempo, 750000
1, 138240, Time_signature, 3, 2, 24, 8
1, 139672, Tempo, 975610
1, 139680, Time_signature, 1, 2, 24, 8
1, 139700, Tempo, 983607
1, 139724, Tempo, 991736
1, 139740, Tempo, 1000000
1, 139764, Tempo, 1008403
1, 139780, Tempo, 1016949
1, 139804, Tempo, 1025641
1, 139832, Tempo, 1034483
1, 139844, Tempo, 1043478
1, 139872, Tempo, 1052632
1, 139884, Tempo, 1061947
1, 139912, Tempo, 1071429
1, 139940, Tempo, 1081081
1, 139952, Tempo, 1090909
1, 139980, Tempo, 1100917
1, 139992, Tempo, 1111111
1, 140020, Tempo, 1121495
1, 140044, Tempo, 1132075
1, 140060, Tempo, 1142857
1, 140084, Tempo, 1153846
1, 140100, Tempo, 1165049
1, 140124, Tempo, 1176471
1, 140140, Tempo, 1188119
1, 140152, Tempo, 1176471
1, 140160, Time_signature, 4, 2, 24, 8
1, 140164, Tempo, 1165049
1, 140180, Tempo, 1153846
1, 140192, Tempo, 1142857
1, 140204, Tempo, 1132075
1, 140220, Tempo, 1121495
1, 140232, Tempo, 1100917
1, 140244, Tempo, 1090909
1, 140260, Tempo, 1081081
1, 140272, Tempo, 1071429
1, 140284, Tempo, 1061947
1, 140300, Tempo, 1052632
1, 140312, Tempo, 1034483
1, 140324, Tempo, 1025641
1, 140340, Tempo, 1016949
1, 140352, Tempo, 1008403
1, 140364, Tempo, 1000000
1, 140380, Tempo, 991736
1, 140392, Tempo, 975610
1, 140404, Tempo, 967742
1, 140420, Tempo, 960000
1, 140432, Tempo, 952381
1, 140444, Tempo, 944882
1, 140460, Tempo, 937500
1, 140472, Tempo, 923077
1, 140484, Tempo, 916031
1, 140500, Tempo, 909091
1, 140512, Tempo, 902256
1, 140524, Tempo, 895522
1, 140540, Tempo, 888889
1, 140552, Tempo, 875912
1, 140564, Tempo, 869565
1, 140580, Tempo, 863309
1, 140592, Tempo, 857143
1, 140604, Tempo, 851064
1, 140620, Tempo, 845070
1, 140632, Tempo, 833333
1, 147840, Tempo, 895522
1, 148320, Tempo, 909091
1, 148800, Tempo, 923077
1, 149280, Tempo, 937500
1, 149760, Tempo, 952381
1, 150240, Tempo, 967742
1, 150720, Tempo, 967742
1, 151200, Tempo, 983607
1, 151680, Tempo, 1000000
1, 152160, Tempo, 1016949
1, 152640, Tempo, 1034483
1, 153120, Tempo, 1052632
1, 153592, Tempo, 1142857
1, 153600, Time_signature, 4, 4, 6, 8
1, 153780, Tempo, 1153846
1, 153964, Tempo, 1165049
1, 153980, Tempo, 1163693
1, 154080, Time_signature, 5, 4, 6, 8
1, 154124, Tempo, 1161440
1, 154260, Tempo, 1159196
1, 154392, Tempo, 1156961
1, 154420, Tempo, 1142857
1, 154484, Tempo, 1132075
1, 154552, Tempo, 1121495
1, 154620, Tempo, 1111111
1, 154680, Time_signature, 9, 4, 6, 8
1, 154684, Tempo, 1200000
1, 155760, Tempo, 1111111
1, 155760, Time_signature, 4, 2, 24, 8
1, 163440, Tempo, 697674
1, 163440, Time_signature, 1, 2, 24, 8
1, 163920, Tempo, 681818
1, 164400, Tempo, 618557
1, 164880, Tempo, 600000
1, 165360, Tempo, 582524
1, 165840, Tempo, 560748
1, 166320, Tempo, 545455
1, 166800, Tempo, 530973
1, 167280, Tempo, 517241
1, 167760, Tempo, 500000
1, 168240, Tempo, 487805
1, 168720, Tempo, 476190
1, 169200, Tempo, 461538
1, 169680, Tempo, 451128
1, 170160, Tempo, 441176
1, 170640, Tempo, 447761
1, 171120, Tempo, 437956
1, 171600, Tempo, 428571
1, 172080, Tempo, 419580
1, 172560, Tempo, 408163
1, 173040, Tempo, 400000
1, 173040, Time_signature, 4, 2, 24, 8
1, 174960, Tempo, 416667
1, 194160, Tempo, 434783
1, 199920, Tempo, 416667
1, 203760, Tempo, 434783
1, 209520, Tempo, 416667
1, 215264, Tempo, 414565
1, 215372, Tempo, 416002
1, 215480, Tempo, 417449
1, 215584, Tempo, 418907
1, 215692, Tempo, 420374
1, 215800, Tempo, 421852
1, 215904, Tempo, 423340
1, 216012, Tempo, 424839
1, 216120, Tempo, 426348
1, 216224, Tempo, 427869
1, 216332, Tempo, 429400
1, 216440, Tempo, 430942
1, 216544, Tempo, 432495
1, 216652, Tempo, 434059
1, 216760, Tempo, 435635
1, 216864, Tempo, 437222
1, 216972, Tempo, 438821
1, 217080, Tempo, 440432
1, 217184, Tempo, 442054
1, 217200, Tempo, 444444
1, 217224, Tempo, 442804
1, 217252, Tempo, 441176
1, 217280, Tempo, 439560
1, 217304, Tempo, 437956
1, 217332, Tempo, 436364
1, 217360, Tempo, 434783
1, 217384, Tempo, 433213
1, 217412, Tempo, 431655
1, 217440, Tempo, 430108
1, 217464, Tempo, 428571
1, 217492, Tempo, 427046
1, 217520, Tempo, 425532
1, 217544, Tempo, 424028
1, 217572, Tempo, 422535
1, 217600, Tempo, 421053
1, 217624, Tempo, 419580
1, 217652, Tempo, 418118
1, 217680, Tempo, 416667
1, 217692, Tempo, 415225
1, 232560, Tempo, 434783
1, 238320, Tempo, 416667
1, 243112, Tempo, 416667
1, 243180, Tempo, 418118
1, 243244, Tempo, 419580
1, 243300, Tempo, 421053
1, 243364, Tempo, 422535
1, 243432, Tempo, 424028
1, 243484, Tempo, 425532
1, 243552, Tempo, 427046
1, 243604, Tempo, 428571
1, 243672, Tempo, 430108
1, 243740, Tempo, 431655
1, 243792, Tempo, 433213
1, 243860, Tempo, 434783
1, 243924, Tempo, 436364
1, 243980, Tempo, 437956
1, 244044, Tempo, 439560
1, 244100, Tempo, 441176
1, 295920, Tempo, 428571
1, 305520, Tempo, 444444
1, 305520, Time_signature, 9, 3, 12, 8
1, 306252, Tempo, 430108
1, 306744, Tempo, 430108
1, 307680, Tempo, 428571
1, 307680, Time_signature, 4, 2, 24, 8
1, 309600, Tempo, 441176
1, 323040, Tempo, 422535
1, 334560, Tempo, 483871
1, 336472, Tempo, 483871
1, 336500, Tempo, 485830
1, 336524, Tempo, 487805
1, 336540, Tempo, 489796
1, 336564, Tempo, 491803
1, 336580, Tempo, 493827
1, 336604, Tempo, 495868
1, 336620, Tempo, 497925
1, 336644, Tempo, 500000
1, 336660, Tempo, 502092
1, 336684, Tempo, 504202
1, 336700, Tempo, 506329
1, 336724, Tempo, 508475
1, 336740, Tempo, 510638
1, 336764, Tempo, 512821
1, 336780, Tempo, 515021
1, 336804, Tempo, 517241
1, 336820, Tempo, 519481
1, 336844, Tempo, 521739
1, 336860, Tempo, 524017
1, 336884, Tempo, 526316
1, 336900, Tempo, 528634
1, 336924, Tempo, 530973
1, 336940, Tempo, 533333
1, 336964, Tempo, 535714
1, 336992, Tempo, 538117
1, 337004, Tempo, 540541
1, 337032, Tempo, 542986
1, 337044, Tempo, 545455
1, 337072, Tempo, 547945
1, 337084, Tempo, 550459
1, 337112, Tempo, 552995
1, 337124, Tempo, 555556
1, 337152, Tempo, 558140
1, 337164, Tempo, 560748
1, 337192, Tempo, 563380
1, 337204, Tempo, 566038
1, 337232, Tempo, 568720
1, 337244, Tempo, 571429
1, 337272, Tempo, 574163
1, 337284, Tempo, 576923
1, 337312, Tempo, 579710
1, 337324, Tempo, 582524
1, 337352, Tempo, 585366
1, 337364, Tempo, 588235
1, 337392, Tempo, 591133
1, 337404, Tempo, 594059
1, 337432, Tempo, 597015
1, 337444, Tempo, 600000
1, 338404, Tempo, 487805
1, 342240, Tempo, 441176
1, 361440, Tempo, 434783
1, 363360, Tempo, 428571
1, 365280, Tempo, 422535
1, 384480, Tempo, 434783
1, 386400, Tempo, 441176
1, 388312, Tempo, 662983
1, 388320, Time_signature, 5, 2, 24, 8
1, 388792, Tempo, 666667
1, 388804, Tempo, 497925
1, 390720, Time_signature, 6, 2, 24, 8
1, 393600, Tempo, 441176
1, 393600, Time_signature, 5, 2, 24, 8
1, 396000, Time_signature, 6, 2, 24, 8
1, 398880, Tempo, 666667
1, 398880, Time_signature, 2, 2, 24, 8
1, 399840, Tempo, 800000
1, 400800, Tempo, 1000000
1, 402700, Tempo, 670391
1, 402720, Time_signature, 4, 2, 24, 8
1, 402724, Tempo, 500000
1, 402764, Tempo, 497925
1, 402792, Tempo, 495868
1, 402832, Tempo, 493827
1, 402860, Tempo, 491803
1, 402900, Tempo, 489796
1, 402924, Tempo, 487805
1, 402964, Tempo, 485830
1, 402992, Tempo, 483871
1, 403032, Tempo, 481928
1, 403060, Tempo, 480000
1, 403100, Tempo, 478088
1, 403124, Tempo, 476190
1, 403164, Tempo, 474308
1, 403192, Tempo, 472441
1, 403232, Tempo, 470588
1, 403260, Tempo, 468750
1, 403300, Tempo, 466926
1, 403324, Tempo, 465116
1, 403364, Tempo, 463320
1, 403392, Tempo, 461538
1, 403432, Tempo, 459770
1, 403460, Tempo, 458015
1, 403500, Tempo, 456274
1, 403524, Tempo, 454545
1, 403564, Tempo, 452830
1, 403592, Tempo, 451128
1, 403632, Tempo, 449438
1, 403660, Tempo, 447761
1, 403700, Tempo, 446097
1, 403724, Tempo, 444444
1, 403764, Tempo, 442804
1, 403792, Tempo, 441176
1, 403832, Tempo, 439560
1, 403860, Tempo, 437956
1, 403900, Tempo, 436364
1, 403924, Tempo, 434783
1, 403964, Tempo, 433213
1, 403992, Tempo, 431655
1, 404032, Tempo, 430108
1, 404060, Tempo, 428571
1, 404100, Tempo, 427046
1, 404124, Tempo, 425532
1, 404152, Tempo, 424028
1, 410380, Tempo, 422535
1, 410740, Tempo, 424028
1, 411084, Tempo, 425532
1, 411444, Tempo, 427046
1, 411792, Tempo, 428571
1, 412140, Tempo, 430108
1, 412500, Tempo, 431655
1, 412844, Tempo, 433213
1, 413192, Tempo, 434783
1, 413552, Tempo, 436364
1, 413900, Tempo, 437956
1, 414244, Tempo, 439560
1, 433440, Tempo, 419580
1, 450720, Tempo, 441176
1, 452640, Tempo, 419580
1, 554400, Tempo, 416667
1, 560160, Tempo, 454545
1, 560160, Time_signature, 9, 3, 12, 8
1, 562320, Tempo, 419580
1, 562320, Time_signature, 4, 2, 24, 8
1, 562320, End_track
2, 0, Start_track
2, 0, Title_t, "Flute"
2, 0, MIDI_port, 0
2, 0, Channel_prefix, 0
2, 0, Control_c, 0, 7, 89
2, 0, Control_c, 0, 10, 55
2, 0, Program_c, 0, 73
2, 60, Control_c, 0, 121, 127
2, 480, Program_c, 0, 73
2, 480, Control_c, 0, 7, 90
2, 480, Control_c, 0, 91, 85
2, 480, Control_c, 0, 10, 60
2, 5760, Note_on_c, 0, 84, 72
2, 5904, Note_off_c, 0, 84, 64
2, 7680, Note_on_c, 0, 91, 72
2, 7680, Note_on_c, 0, 86, 72
2, 7824, Note_off_c, 0, 86, 64
2, 7824, Note_off_c, 0, 91, 64
2, 9600, Note_on_c, 0, 84, 72
2, 9600, Note_on_c, 0, 88, 72
2, 9744, Note_off_c, 0, 88, 64
2, 9744, Note_off_c, 0, 84, 64
2, 10560, Note_on_c, 0, 93, 72
2, 10560, Note_on_c, 0, 84, 72
2, 10704, Note_off_c, 0, 84, 64
2, 10704, Note_off_c, 0, 93, 64
2, 11520, Note_on_c, 0, 83, 72
2, 11664, Note_off_c, 0, 83, 64
2, 12960, Note_on_c, 0, 67, 36
2, 13056, Note_off_c, 0, 67, 64
2, 13080, Note_on_c, 0, 69, 36
2, 13176, Note_off_c, 0, 69, 64
2, 13200, Note_on_c, 0, 71, 36
2, 13264, Note_off_c, 0, 71, 64
2, 13280, Note_on_c, 0, 72, 36
2, 13344, Note_off_c, 0, 72, 64
2, 13360, Note_on_c, 0, 74, 36
2, 13424, Note_off_c, 0, 74, 64
2, 13440, Note_on_c, 0, 76, 36
2, 14238, Note_off_c, 0, 76, 64
2, 14280, Note_on_c, 0, 74, 36
2, 14376, Note_off_c, 0, 74, 64
2, 14400, Note_on_c, 0, 72, 36
2, 14880, Note_off_c, 0, 72, 64
2, 14880, Note_on_c, 0, 74, 36
2, 15360, Note_off_c, 0, 74, 64
2, 15360, Note_on_c, 0, 76, 36
2, 15840, Note_off_c, 0, 76, 64
2, 15840, Note_on_c, 0, 77, 36
2, 16200, Note_off_c, 0, 77, 64
2, 16200, Note_on_c, 0, 76, 36
2, 16296, Note_off_c, 0, 76, 64
2, 16320, Note_on_c, 0, 76, 36
2, 16800, Note_off_c, 0, 76, 64
2, 16800, Note_on_c, 0, 74, 31
2, 17184, Note_off_c, 0, 74, 64
2, 17280, Note_on_c, 0, 77, 36
2, 18078, Note_off_c, 0, 77, 64
2, 18120, Note_on_c, 0, 76, 36
2, 18216, Note_off_c, 0, 76, 64
2, 18240, Note_on_c, 0, 74, 36
2, 18720, Note_off_c, 0, 74, 64
2, 18720, Note_on_c, 0, 76, 36
2, 19200, Note_off_c, 0, 76, 64
2, 19200, Note_on_c, 0, 79, 36
2, 19680, Note_off_c, 0, 79, 64
2, 19680, Note_on_c, 0, 77, 36
2, 20040, Note_off_c, 0, 77, 64
2, 20040, Note_on_c, 0, 76, 36
2, 20136, Note_off_c, 0, 76, 64
2, 20160, Note_on_c, 0, 76, 31
2, 20544, Note_off_c, 0, 76, 64
2, 21120, Note_on_c, 0, 79, 36
2, 22080, Note_off_c, 0, 79, 64
2, 22080, Note_on_c, 0, 81, 36
2, 23040, Note_off_c, 0, 81, 64
2, 23040, Note_on_c, 0, 83, 36
2, 24480, Note_off_c, 0, 83, 64
2, 24480, Note_on_c, 0, 84, 36
2, 25440, Note_off_c, 0, 84, 64
2, 25440, Note_on_c, 0, 79, 32
2, 25680, Note_off_c, 0, 79, 64
2, 25680, Note_on_c, 0, 81, 29
2, 25920, Note_off_c, 0, 81, 64
2, 25920, Note_on_c, 0, 83, 26
2, 26880, Note_off_c, 0, 83, 64
2, 26880, Note_on_c, 0, 76, 23
2, 27264, Note_off_c, 0, 76, 64
2, 28800, Note_on_c, 0, 79, 32
2, 29760, Note_off_c, 0, 79, 64
2, 29760, Note_on_c, 0, 81, 32
2, 30240, Note_off_c, 0, 81, 64
2, 30240, Note_on_c, 0, 79, 32
2, 30720, Note_off_c, 0, 79, 64
2, 30720, Note_on_c, 0, 77, 32
2, 31104, Note_off_c, 0, 77, 64
2, 31200, Note_on_c, 0, 76, 32
2, 31584, Note_off_c, 0, 76, 64
2, 31680, Note_on_c, 0, 77, 32
2, 32544, Note_off_c, 0, 77, 64
2, 32640, Note_on_c, 0, 77, 32
2, 33360, Note_off_c, 0, 77, 64
2, 33360, Note_on_c, 0, 79, 32
2, 33480, Note_off_c, 0, 79, 64
2, 33480, Note_on_c, 0, 81, 32
2, 33600, Note_off_c, 0, 81, 64
2, 33600, Note_on_c, 0, 79, 32
2, 33984, Note_off_c, 0, 79, 64
2, 34080, Note_on_c, 0, 77, 32
2, 34464, Note_off_c, 0, 77, 64
2, 34560, Note_on_c, 0, 76, 32
2, 34944, Note_off_c, 0, 76, 64
2, 35040, Note_on_c, 0, 74, 32
2, 35424, Note_off_c, 0, 74, 64
2, 35520, Note_on_c, 0, 76, 32
2, 36000, Note_off_c, 0, 76, 64
2, 36000, Note_on_c, 0, 77, 32
2, 36240, Note_off_c, 0, 77, 64
2, 36240, Note_on_c, 0, 79, 32
2, 36480, Note_off_c, 0, 79, 64
2, 36480, Note_on_c, 0, 81, 22
2, 37248, Note_off_c, 0, 81, 64
2, 37440, Note_on_c, 0, 83, 22
2, 38208, Note_off_c, 0, 83, 64
2, 38400, Note_on_c, 0, 84, 22
2, 39768, Note_off_c, 0, 84, 64
2, 39840, Note_on_c, 0, 72, 22
2, 40080, Note_off_c, 0, 72, 64
2, 40080, Note_on_c, 0, 74, 22
2, 40272, Note_off_c, 0, 74, 64
2, 40320, Note_on_c, 0, 76, 22
2, 41232, Note_off_c, 0, 76, 64
2, 41280, Note_on_c, 0, 74, 22
2, 42000, Note_off_c, 0, 74, 64
2, 42000, Note_on_c, 0, 72, 22
2, 42192, Note_off_c, 0, 72, 64
2, 42240, Note_on_c, 0, 72, 23
2, 42624, Note_off_c, 0, 72, 64
2, 43680, Note_on_c, 0, 79, 43
2, 43776, Note_off_c, 0, 79, 64
2, 43800, Note_on_c, 0, 81, 43
2, 43896, Note_off_c, 0, 81, 64
2, 43920, Note_on_c, 0, 83, 43
2, 43984, Note_off_c, 0, 83, 64
2, 44000, Note_on_c, 0, 84, 43
2, 44064, Note_off_c, 0, 84, 64
2, 44080, Note_on_c, 0, 86, 43
2, 44144, Note_off_c, 0, 86, 64
2, 44160, Note_on_c, 0, 88, 43
2, 44160, Note_on_c, 0, 84, 43
2, 44958, Note_off_c, 0, 84, 64
2, 44958, Note_off_c, 0, 88, 64
2, 45000, Note_on_c, 0, 83, 43
2, 45000, Note_on_c, 0, 86, 43
2, 45096, Note_off_c, 0, 86, 64
2, 45096, Note_off_c, 0, 83, 64
2, 45120, Note_on_c, 0, 81, 43
2, 45120, Note_on_c, 0, 84, 43
2, 45600, Note_off_c, 0, 84, 64
2, 45600, Note_off_c, 0, 81, 64
2, 45600, Note_on_c, 0, 83, 43
2, 45600, Note_on_c, 0, 86, 43
2, 46080, Note_off_c, 0, 86, 64
2, 46080, Note_off_c, 0, 83, 64
2, 46080, Note_on_c, 0, 84, 43
2, 46080, Note_on_c, 0, 88, 43
2, 46560, Note_off_c, 0, 88, 64
2, 46560, Note_off_c, 0, 84, 64
2, 46560, Note_on_c, 0, 86, 43
2, 46560, Note_on_c, 0, 89, 43
2, 46920, Note_off_c, 0, 89, 64
2, 46920, Note_off_c, 0, 86, 64
2, 46920, Note_on_c, 0, 88, 43
2, 46920, Note_on_c, 0, 84, 43
2, 47016, Note_off_c, 0, 84, 64
2, 47016, Note_off_c, 0, 88, 64
2, 47040, Note_on_c, 0, 88, 43
2, 47040, Note_on_c, 0, 84, 43
2, 47520, Note_off_c, 0, 84, 64
2, 47520, Note_off_c, 0, 88, 64
2, 47520, Note_on_c, 0, 86, 37
2, 47520, Note_on_c, 0, 83, 37
2, 47904, Note_off_c, 0, 83, 64
2, 47904, Note_off_c, 0, 86, 64
2, 48000, Note_on_c, 0, 81, 43
2, 48000, Note_on_c, 0, 89, 43
2, 48798, Note_off_c, 0, 89, 64
2, 48798, Note_off_c, 0, 81, 64
2, 48840, Note_on_c, 0, 88, 43
2, 48840, Note_on_c, 0, 84, 43
2, 48936, Note_off_c, 0, 84, 64
2, 48936, Note_off_c, 0, 88, 64
2, 48960, Note_on_c, 0, 83, 43
2, 48960, Note_on_c, 0, 86, 43
2, 49440, Note_off_c, 0, 86, 64
2, 49440, Note_off_c, 0, 83, 64
2, 49440, Note_on_c, 0, 88, 43
2, 49440, Note_on_c, 0, 84, 43
2, 49920, Note_off_c, 0, 84, 64
2, 49920, Note_off_c, 0, 88, 64
2, 49920, Note_on_c, 0, 91, 31
2, 50400, Note_off_c, 0, 91, 64
2, 50400, Note_on_c, 0, 89, 31
2, 50760, Note_off_c, 0, 89, 64
2, 50760, Note_on_c, 0, 88, 31
2, 50856, Note_off_c, 0, 88, 64
2, 50880, Note_on_c, 0, 88, 31
2, 51264, Note_off_c, 0, 88, 64
2, 51840, Note_on_c, 0, 79, 29
2, 52800, Note_off_c, 0, 79, 64
2, 52800, Note_on_c, 0, 81, 29
2, 53760, Note_off_c, 0, 81, 64
2, 53760, Note_on_c, 0, 83, 29
2, 55200, Note_off_c, 0, 83, 64
2, 55200, Note_on_c, 0, 84, 29
2, 56160, Note_off_c, 0, 84, 64
2, 56160, Note_on_c, 0, 79, 26
2, 56400, Note_off_c, 0, 79, 64
2, 56400, Note_on_c, 0, 81, 23
2, 56640, Note_off_c, 0, 81, 64
2, 56640, Note_on_c, 0, 83, 21
2, 57600, Note_off_c, 0, 83, 64
2, 57600, Note_on_c, 0, 76, 23
2, 57984, Note_off_c, 0, 76, 64
2, 59520, Note_on_c, 0, 91, 43
2, 60480, Note_off_c, 0, 91, 64
2, 60480, Note_on_c, 0, 84, 43
2, 60480, Note_on_c, 0, 93, 43
2, 60960, Note_off_c, 0, 93, 64
2, 60960, Note_off_c, 0, 84, 64
2, 60960, Note_on_c, 0, 91, 43
2, 60960, Note_on_c, 0, 84, 43
2, 61440, Note_off_c, 0, 84, 64
2, 61440, Note_off_c, 0, 91, 64
2, 61440, Note_on_c, 0, 89, 43
2, 61440, Note_on_c, 0, 84, 43
2, 61824, Note_off_c, 0, 84, 64
2, 61824, Note_off_c, 0, 89, 64
2, 61920, Note_on_c, 0, 84, 43
2, 61920, Note_on_c, 0, 88, 43
2, 62304, Note_off_c, 0, 88, 64
2, 62304, Note_off_c, 0, 84, 64
2, 62400, Note_on_c, 0, 81, 43
2, 62400, Note_on_c, 0, 89, 43
2, 62784, Note_off_c, 0, 81, 64
2, 62880, Note_on_c, 0, 86, 32
2, 63264, Note_off_c, 0, 89, 64
2, 63264, Note_off_c, 0, 86, 64
2, 63360, Note_on_c, 0, 86, 54
2, 63360, Note_on_c, 0, 89, 54
2, 64080, Note_off_c, 0, 89, 64
2, 64080, Note_off_c, 0, 86, 64
2, 64080, Note_on_c, 0, 88, 54
2, 64080, Note_on_c, 0, 91, 54
2, 64200, Note_off_c, 0, 91, 64
2, 64200, Note_off_c, 0, 88, 64
2, 64200, Note_on_c, 0, 93, 54
2, 64200, Note_on_c, 0, 89, 54
2, 64320, Note_off_c, 0, 89, 64
2, 64320, Note_off_c, 0, 93, 64
2, 64320, Note_on_c, 0, 88, 54
2, 64320, Note_on_c, 0, 91, 54
2, 64704, Note_off_c, 0, 91, 64
2, 64704, Note_off_c, 0, 88, 64
2, 64800, Note_on_c, 0, 89, 54
2, 64800, Note_on_c, 0, 86, 54
2, 65184, Note_off_c, 0, 86, 64
2, 65184, Note_off_c, 0, 89, 64
2, 65280, Note_on_c, 0, 88, 54
2, 65280, Note_on_c, 0, 84, 54
2, 65664, Note_off_c, 0, 84, 64
2, 65664, Note_off_c, 0, 88, 64
2, 65760, Note_on_c, 0, 86, 54
2, 65760, Note_on_c, 0, 83, 54
2, 66144, Note_off_c, 0, 83, 64
2, 66144, Note_off_c, 0, 86, 64
2, 66240, Note_on_c, 0, 84, 54
2, 66240, Note_on_c, 0, 88, 54
2, 66720, Note_off_c, 0, 88, 64
2, 66720, Note_off_c, 0, 84, 64
2, 66720, Note_on_c, 0, 89, 54
2, 66720, Note_on_c, 0, 86, 54
2, 66960, Note_off_c, 0, 86, 64
2, 66960, Note_off_c, 0, 89, 64
2, 66960, Note_on_c, 0, 88, 54
2, 66960, Note_on_c, 0, 91, 54
2, 67200, Note_off_c, 0, 91, 64
2, 67200, Note_off_c, 0, 88, 64
2, 67200, Note_on_c, 0, 84, 72
2, 67200, Note_on_c, 0, 93, 72
2, 67584, Note_off_c, 0, 84, 64
2, 67680, Note_on_c, 0, 89, 72
2, 68064, Note_off_c, 0, 93, 64
2, 68160, Note_on_c, 0, 95, 72
2, 68544, Note_off_c, 0, 89, 64
2, 68640, Note_on_c, 0, 86, 72
2, 69090, Note_off_c, 0, 95, 64
2, 69090, Note_off_c, 0, 86, 64
2, 69120, Note_on_c, 0, 84, 72
2, 69120, Note_on_c, 0, 96, 72
2, 70488, Note_off_c, 0, 96, 64
2, 70488, Note_off_c, 0, 84, 64
2, 70560, Note_on_c, 0, 84, 72
2, 70800, Note_off_c, 0, 84, 64
2, 70800, Note_on_c, 0, 86, 72
2, 70992, Note_off_c, 0, 86, 64
2, 71040, Note_on_c, 0, 88, 72
2, 71040, Note_on_c, 0, 84, 72
2, 71952, Note_off_c, 0, 84, 64
2, 71952, Note_off_c, 0, 88, 64
2, 72000, Note_on_c, 0, 86, 72
2, 72000, Note_on_c, 0, 83, 72
2, 72720, Note_off_c, 0, 83, 64
2, 72720, Note_off_c, 0, 86, 64
2, 72720, Note_on_c, 0, 84, 72
2, 72912, Note_off_c, 0, 84, 64
2, 72960, Note_on_c, 0, 84, 72
2, 73344, Note_off_c, 0, 84, 64
2, 74880, Note_on_c, 0, 84, 61
2, 75024, Note_off_c, 0, 84, 64
2, 76800, Note_on_c, 0, 88, 61
2, 76800, Note_on_c, 0, 84, 61
2, 76944, Note_off_c, 0, 84, 64
2, 76944, Note_off_c, 0, 88, 64
2, 78720, Note_on_c, 0, 84, 61
2, 78720, Note_on_c, 0, 88, 61
2, 78864, Note_off_c, 0, 88, 64
2, 78864, Note_off_c, 0, 84, 64
2, 79680, Note_on_c, 0, 88, 61
2, 79680, Note_on_c, 0, 84, 61
2, 79824, Note_off_c, 0, 84, 64
2, 79824, Note_off_c, 0, 88, 64
2, 80640, Note_on_c, 0, 89, 61
2, 80640, Note_on_c, 0, 86, 61
2, 80784, Note_off_c, 0, 86, 64
2, 80784, Note_off_c, 0, 89, 64
2, 81120, Note_on_c, 0, 88, 61
2, 81120, Note_on_c, 0, 84, 61
2, 81264, Note_off_c, 0, 84, 64
2, 81264, Note_off_c, 0, 88, 64
2, 81600, Note_on_c, 0, 83, 61
2, 81600, Note_on_c, 0, 86, 61
2, 81744, Note_off_c, 0, 86, 64
2, 81744, Note_off_c, 0, 83, 64
2, 82560, Note_on_c, 0, 84, 52
2, 82704, Note_off_c, 0, 84, 64
2, 84480, Note_on_c, 0, 84, 52
2, 84480, Note_on_c, 0, 88, 52
2, 84624, Note_off_c, 0, 88, 64
2, 84624, Note_off_c, 0, 84, 64
2, 86400, Note_on_c, 0, 88, 52
2, 86400, Note_on_c, 0, 84, 52
2, 86544, Note_off_c, 0, 84, 64
2, 86544, Note_off_c, 0, 88, 64
2, 87360, Note_on_c, 0, 88, 52
2, 87360, Note_on_c, 0, 84, 52
2, 87504, Note_off_c, 0, 84, 64
2, 87504, Note_off_c, 0, 88, 64
2, 88320, Note_on_c, 0, 86, 52
2, 88320, Note_on_c, 0, 89, 52
2, 88464, Note_off_c, 0, 89, 64
2, 88464, Note_off_c, 0, 86, 64
2, 88800, Note_on_c, 0, 88, 52
2, 88800, Note_on_c, 0, 84, 52
2, 88944, Note_off_c, 0, 84, 64
2, 88944, Note_off_c, 0, 88, 64
2, 89280, Note_on_c, 0, 83, 52
2, 89280, Note_on_c, 0, 86, 52
2, 89424, Note_off_c, 0, 86, 64
2, 89424, Note_off_c, 0, 83, 64
2, 90240, Note_on_c, 0, 83, 52
2, 90240, Note_on_c, 0, 86, 52
2, 90384, Note_off_c, 0, 86, 64
2, 90384, Note_off_c, 0, 83, 64
2, 92160, Note_on_c, 0, 84, 52
2, 92160, Note_on_c, 0, 88, 52
2, 92304, Note_off_c, 0, 88, 64
2, 92304, Note_off_c, 0, 84, 64
2, 94080, Note_on_c, 0, 88, 52
2, 94080, Note_on_c, 0, 84, 52
2, 94224, Note_off_c, 0, 84, 64
2, 94224, Note_off_c, 0, 88, 64
2, 95040, Note_on_c, 0, 76, 52
2, 95040, Note_on_c, 0, 84, 52
2, 95184, Note_off_c, 0, 84, 64
2, 95184, Note_off_c, 0, 76, 64
2, 96000, Note_on_c, 0, 86, 52
2, 96000, Note_on_c, 0, 83, 52
2, 96144, Note_off_c, 0, 83, 64
2, 96144, Note_off_c, 0, 86, 64
2, 96480, Note_on_c, 0, 86, 52
2, 96480, Note_on_c, 0, 83, 52
2, 96624, Note_off_c, 0, 83, 64
2, 96624, Note_off_c, 0, 86, 64
2, 96960, Note_on_c, 0, 76, 52
2, 96960, Note_on_c, 0, 84, 52
2, 97104, Note_off_c, 0, 84, 64
2, 97104, Note_off_c, 0, 76, 64
2, 97920, Note_on_c, 0, 86, 52
2, 97920, Note_on_c, 0, 83, 52
2, 98064, Note_off_c, 0, 83, 64
2, 98064, Note_off_c, 0, 86, 64
2, 99840, Note_on_c, 0, 88, 52
2, 99840, Note_on_c, 0, 84, 52
2, 99984, Note_off_c, 0, 84, 64
2, 99984, Note_off_c, 0, 88, 64
2, 101760, Note_on_c, 0, 88, 52
2, 101760, Note_on_c, 0, 84, 52
2, 101904, Note_off_c, 0, 84, 64
2, 101904, Note_off_c, 0, 88, 64
2, 102720, Note_on_c, 0, 76, 52
2, 102720, Note_on_c, 0, 84, 52
2, 102864, Note_off_c, 0, 84, 64
2, 102864, Note_off_c, 0, 76, 64
2, 103680, Note_on_c, 0, 83, 52
2, 103680, Note_on_c, 0, 86, 52
2, 103824, Note_off_c, 0, 86, 64
2, 103824, Note_off_c, 0, 83, 64
2, 104160, Note_on_c, 0, 86, 52
2, 104160, Note_on_c, 0, 83, 52
2, 104304, Note_off_c, 0, 83, 64
2, 104304, Note_off_c, 0, 86, 64
2, 104640, Note_on_c, 0, 76, 52
2, 104640, Note_on_c, 0, 84, 52
2, 104784, Note_off_c, 0, 84, 64
2, 104784, Note_off_c, 0, 76, 64
2, 121080, Note_on_c, 0, 86, 35
2, 121128, Note_off_c, 0, 86, 64
2, 121200, Note_on_c, 0, 84, 36
2, 121248, Note_off_c, 0, 84, 64
2, 121320, Note_on_c, 0, 83, 37
2, 121368, Note_off_c, 0, 83, 64
2, 121440, Note_on_c, 0, 81, 39
2, 121488, Note_off_c, 0, 81, 64
2, 121560, Note_on_c, 0, 79, 40
2, 121608, Note_off_c, 0, 79, 64
2, 121680, Note_on_c, 0, 78, 41
2, 121728, Note_off_c, 0, 78, 64
2, 121800, Note_on_c, 0, 79, 41
2, 121848, Note_off_c, 0, 79, 64
2, 121920, Note_on_c, 0, 81, 43
2, 121968, Note_off_c, 0, 81, 64
2, 122040, Note_on_c, 0, 79, 43
2, 122088, Note_off_c, 0, 79, 64
2, 122160, Note_on_c, 0, 78, 44
2, 122208, Note_off_c, 0, 78, 64
2, 122280, Note_on_c, 0, 76, 45
2, 122328, Note_off_c, 0, 76, 64
2, 122400, Note_on_c, 0, 74, 46
2, 122448, Note_off_c, 0, 74, 64
2, 122520, Note_on_c, 0, 86, 48
2, 122568, Note_off_c, 0, 86, 64
2, 122640, Note_on_c, 0, 88, 49
2, 122688, Note_off_c, 0, 88, 64
2, 122760, Note_on_c, 0, 90, 50
2, 122808, Note_off_c, 0, 90, 64
2, 122880, Note_on_c, 0, 79, 41
2, 122880, Note_on_c, 0, 91, 41
2, 122928, Note_off_c, 0, 91, 64
2, 122928, Note_off_c, 0, 79, 64
2, 123000, Note_on_c, 0, 79, 41
2, 123000, Note_on_c, 0, 91, 41
2, 123048, Note_off_c, 0, 91, 64
2, 123048, Note_off_c, 0, 79, 64
2, 123120, Note_on_c, 0, 79, 42
2, 123120, Note_on_c, 0, 91, 42
2, 123168, Note_off_c, 0, 91, 64
2, 123168, Note_off_c, 0, 79, 64
2, 123240, Note_on_c, 0, 79, 43
2, 123240, Note_on_c, 0, 91, 43
2, 123288, Note_off_c, 0, 91, 64
2, 123288, Note_off_c, 0, 79, 64
2, 123360, Note_on_c, 0, 91, 44
2, 123360, Note_on_c, 0, 79, 44
2, 123408, Note_off_c, 0, 79, 64
2, 123408, Note_off_c, 0, 91, 64
2, 123480, Note_on_c, 0, 79, 45
2, 123480, Note_on_c, 0, 91, 45
2, 123528, Note_off_c, 0, 91, 64
2, 123528, Note_off_c, 0, 79, 64
2, 123600, Note_on_c, 0, 79, 46
2, 123600, Note_on_c, 0, 91, 46
2, 123648, Note_off_c, 0, 91, 64
2, 123648, Note_off_c, 0, 79, 64
2, 123720, Note_on_c, 0, 79, 47
2, 123720, Note_on_c, 0, 91, 47
2, 123768, Note_off_c, 0, 91, 64
2, 123768, Note_off_c, 0, 79, 64
2, 123840, Note_on_c, 0, 91, 48
2, 123840, Note_on_c, 0, 79, 48
2, 123888, Note_off_c, 0, 79, 64
2, 123888, Note_off_c, 0, 91, 64
2, 123960, Note_on_c, 0, 91, 48
2, 123960, Note_on_c, 0, 79, 48
2, 124008, Note_off_c, 0, 79, 64
2, 124008, Note_off_c, 0, 91, 64
2, 124080, Note_on_c, 0, 91, 49
2, 124080, Note_on_c, 0, 79, 49
2, 124128, Note_off_c, 0, 79, 64
2, 124128, Note_off_c, 0, 91, 64
2, 124200, Note_on_c, 0, 79, 50
2, 124200, Note_on_c, 0, 91, 50
2, 124248, Note_off_c, 0, 91, 64
2, 124248, Note_off_c, 0, 79, 64
2, 124320, Note_on_c, 0, 91, 50
2, 124320, Note_on_c, 0, 79, 50
2, 124368, Note_off_c, 0, 79, 64
2, 124368, Note_off_c, 0, 91, 64
2, 124440, Note_on_c, 0, 79, 51
2, 124440, Note_on_c, 0, 91, 51
2, 124488, Note_off_c, 0, 91, 64
2, 124488, Note_off_c, 0, 79, 64
2, 124560, Note_on_c, 0, 79, 52
2, 124560, Note_on_c, 0, 91, 52
2, 124608, Note_off_c, 0, 91, 64
2, 124608, Note_off_c, 0, 79, 64
2, 124680, Note_on_c, 0, 91, 53
2, 124680, Note_on_c, 0, 79, 53
2, 124728, Note_off_c, 0, 79, 64
2, 124728, Note_off_c, 0, 91, 64
2, 124800, Note_on_c, 0, 79, 54
2, 124800, Note_on_c, 0, 91, 54
2, 124848, Note_off_c, 0, 91, 64
2, 124848, Note_off_c, 0, 79, 64
2, 124920, Note_on_c, 0, 91, 55
2, 124920, Note_on_c, 0, 79, 55
2, 124968, Note_off_c, 0, 79, 64
2, 124968, Note_off_c, 0, 91, 64
2, 125040, Note_on_c, 0, 79, 56
2, 125040, Note_on_c, 0, 91, 56
2, 125088, Note_off_c, 0, 91, 64
2, 125088, Note_off_c, 0, 79, 64
2, 125160, Note_on_c, 0, 91, 57
2, 125160, Note_on_c, 0, 79, 57
2, 125208, Note_off_c, 0, 79, 64
2, 125208, Note_off_c, 0, 91, 64
2, 125280, Note_on_c, 0, 91, 58
2, 125280, Note_on_c, 0, 79, 58
2, 125328, Note_off_c, 0, 79, 64
2, 125328, Note_off_c, 0, 91, 64
2, 125400, Note_on_c, 0, 91, 59
2, 125400, Note_on_c, 0, 79, 59
2, 125448, Note_off_c, 0, 79, 64
2, 125448, Note_off_c, 0, 91, 64
2, 125520, Note_on_c, 0, 79, 59
2, 125520, Note_on_c, 0, 91, 59
2, 125568, Note_off_c, 0, 91, 64
2, 125568, Note_off_c, 0, 79, 64
2, 125640, Note_on_c, 0, 91, 60
2, 125640, Note_on_c, 0, 79, 60
2, 125688, Note_off_c, 0, 79, 64
2, 125688, Note_off_c, 0, 91, 64
2, 125760, Note_on_c, 0, 91, 61
2, 125760, Note_on_c, 0, 79, 61
2, 125808, Note_off_c, 0, 79, 64
2, 125808, Note_off_c, 0, 91, 64
2, 125880, Note_on_c, 0, 91, 61
2, 125880, Note_on_c, 0, 79, 61
2, 125928, Note_off_c, 0, 79, 64
2, 125928, Note_off_c, 0, 91, 64
2, 126000, Note_on_c, 0, 91, 62
2, 126000, Note_on_c, 0, 79, 62
2, 126048, Note_off_c, 0, 79, 64
2, 126048, Note_off_c, 0, 91, 64
2, 126120, Note_on_c, 0, 91, 63
2, 126120, Note_on_c, 0, 79, 63
2, 126168, Note_off_c, 0, 79, 64
2, 126168, Note_off_c, 0, 91, 64
2, 126240, Note_on_c, 0, 79, 64
2, 126240, Note_on_c, 0, 91, 64
2, 126288, Note_off_c, 0, 91, 64
2, 126288, Note_off_c, 0, 79, 64
2, 126360, Note_on_c, 0, 91, 65
2, 126360, Note_on_c, 0, 79, 65
2, 126408, Note_off_c, 0, 79, 64
2, 126408, Note_off_c, 0, 91, 64
2, 126480, Note_on_c, 0, 91, 66
2, 126480, Note_on_c, 0, 79, 66
2, 126528, Note_off_c, 0, 79, 64
2, 126528, Note_off_c, 0, 91, 64
2, 126600, Note_on_c, 0, 79, 67
2, 126600, Note_on_c, 0, 91, 67
2, 126648, Note_off_c, 0, 91, 64
2, 126648, Note_off_c, 0, 79, 64
2, 126720, Note_on_c, 0, 79, 54
2, 126720, Note_on_c, 0, 91, 54
2, 126768, Note_off_c, 0, 91, 64
2, 126768, Note_off_c, 0, 79, 64
2, 126840, Note_on_c, 0, 91, 55
2, 126840, Note_on_c, 0, 79, 55
2, 126888, Note_off_c, 0, 79, 64
2, 126888, Note_off_c, 0, 91, 64
2, 126960, Note_on_c, 0, 79, 56
2, 126960, Note_on_c, 0, 91, 56
2, 127008, Note_off_c, 0, 91, 64
2, 127008, Note_off_c, 0, 79, 64
2, 127080, Note_on_c, 0, 79, 56
2, 127080, Note_on_c, 0, 91, 56
2, 127128, Note_off_c, 0, 91, 64
2, 127128, Note_off_c, 0, 79, 64
2, 127200, Note_on_c, 0, 79, 57
2, 127200, Note_on_c, 0, 91, 57
2, 127248, Note_off_c, 0, 91, 64
2, 127248, Note_off_c, 0, 79, 64
2, 127320, Note_on_c, 0, 91, 58
2, 127320, Note_on_c, 0, 79, 58
2, 127368, Note_off_c, 0, 79, 64
2, 127368, Note_off_c, 0, 91, 64
2, 127440, Note_on_c, 0, 79, 59
2, 127440, Note_on_c, 0, 91, 59
2, 127488, Note_off_c, 0, 91, 64
2, 127488, Note_off_c, 0, 79, 64
2, 127560, Note_on_c, 0, 91, 59
2, 127560, Note_on_c, 0, 79, 59
2, 127608, Note_off_c, 0, 79, 64
2, 127608, Note_off_c, 0, 91, 64
2, 127680, Note_on_c, 0, 79, 59
2, 127680, Note_on_c, 0, 91, 59
2, 127728, Note_off_c, 0, 91, 64
2, 127728, Note_off_c, 0, 79, 64
2, 127800, Note_on_c, 0, 91, 59
2, 127800, Note_on_c, 0, 79, 59
2, 127848, Note_off_c, 0, 79, 64
2, 127848, Note_off_c, 0, 91, 64
2, 127920, Note_on_c, 0, 79, 60
2, 127920, Note_on_c, 0, 91, 60
2, 127968, Note_off_c, 0, 91, 64
2, 127968, Note_off_c, 0, 79, 64
2, 128040, Note_on_c, 0, 79, 61
2, 128040, Note_on_c, 0, 91, 61
2, 128088, Note_off_c, 0, 91, 64
2, 128088, Note_off_c, 0, 79, 64
2, 128160, Note_on_c, 0, 93, 72
2, 128160, Note_on_c, 0, 89, 72
2, 130944, Note_off_c, 0, 89, 64
2, 130944, Note_off_c, 0, 93, 64
2, 131040, Note_on_c, 0, 88, 72
2, 131040, Note_on_c, 0, 91, 72
2, 132864, Note_off_c, 0, 91, 64
2, 132864, Note_off_c, 0, 88, 64
2, 132960, Note_on_c, 0, 89, 72
2, 132960, Note_on_c, 0, 86, 72
2, 134784, Note_off_c, 0, 86, 64
2, 134784, Note_off_c, 0, 89, 64
2, 134880, Note_on_c, 0, 88, 72
2, 134880, Note_on_c, 0, 84, 72
2, 135780, Note_off_c, 0, 84, 64
2, 135780, Note_off_c, 0, 88, 64
2, 135840, Note_on_c, 0, 88, 72
2, 135840, Note_on_c, 0, 79, 72
2, 136224, Note_off_c, 0, 79, 64
2, 136320, Note_on_c, 0, 77, 72
2, 136704, Note_off_c, 0, 88, 64
2, 136800, Note_on_c, 0, 86, 61
2, 137184, Note_off_c, 0, 77, 64
2, 137280, Note_on_c, 0, 76, 61
2, 137664, Note_off_c, 0, 86, 64
2, 137760, Note_on_c, 0, 84, 52
2, 138144, Note_off_c, 0, 76, 64
2, 138240, Note_on_c, 0, 74, 52
2, 138624, Note_off_c, 0, 84, 64
2, 138720, Note_on_c, 0, 83, 44
2, 139104, Note_off_c, 0, 74, 64
2, 139200, Note_on_c, 0, 72, 44
2, 139584, Note_off_c, 0, 83, 64
2, 139680, Note_on_c, 0, 81, 38
2, 140064, Note_off_c, 0, 72, 64
2, 140064, Note_off_c, 0, 81, 64
2, 140160, Note_on_c, 0, 71, 36
2, 140160, Note_on_c, 0, 79, 36
2, 140544, Note_off_c, 0, 79, 64
2, 140544, Note_off_c, 0, 71, 64
2, 157080, Note_on_c, 0, 67, 34
2, 157120, Note_off_c, 0, 67, 64
2, 157120, Note_on_c, 0, 69, 34
2, 157160, Note_off_c, 0, 69, 64
2, 157160, Note_on_c, 0, 71, 34
2, 157200, Note_off_c, 0, 71, 64
2, 157200, Note_on_c, 0, 72, 34
2, 157440, Note_off_c, 0, 72, 64
2, 158040, Note_on_c, 0, 72, 29
2, 158100, Note_off_c, 0, 72, 64
2, 158100, Note_on_c, 0, 71, 29
2, 158160, Note_off_c, 0, 71, 64
2, 158160, Note_on_c, 0, 69, 34
2, 158400, Note_off_c, 0, 69, 64
2, 159000, Note_on_c, 0, 69, 34
2, 159040, Note_off_c, 0, 69, 64
2, 159040, Note_on_c, 0, 71, 34
2, 159080, Note_off_c, 0, 71, 64
2, 159080, Note_on_c, 0, 72, 34
2, 159120, Note_off_c, 0, 72, 64
2, 159120, Note_on_c, 0, 74, 34
2, 159360, Note_off_c, 0, 74, 64
2, 159960, Note_on_c, 0, 74, 29
2, 160020, Note_off_c, 0, 74, 64
2, 160020, Note_on_c, 0, 72, 29
2, 160080, Note_off_c, 0, 72, 64
2, 160080, Note_on_c, 0, 71, 34
2, 160320, Note_off_c, 0, 71, 64
2, 160920, Note_on_c, 0, 72, 34
2, 160980, Note_off_c, 0, 72, 64
2, 160980, Note_on_c, 0, 74, 34
2, 161040, Note_off_c, 0, 74, 64
2, 161040, Note_on_c, 0, 76, 34
2, 161280, Note_off_c, 0, 76, 64
2, 161880, Note_on_c, 0, 76, 29
2, 161940, Note_off_c, 0, 76, 64
2, 161940, Note_on_c, 0, 74, 29
2, 162000, Note_off_c, 0, 74, 64
2, 162000, Note_on_c, 0, 72, 34
2, 162240, Note_off_c, 0, 72, 64
2, 162840, Note_on_c, 0, 72, 34
2, 162880, Note_off_c, 0, 72, 64
2, 162880, Note_on_c, 0, 74, 34
2, 162920, Note_off_c, 0, 74, 64
2, 162920, Note_on_c, 0, 76, 34
2, 162960, Note_off_c, 0, 76, 64
2, 162960, Note_on_c, 0, 77, 34
2, 163200, Note_off_c, 0, 77, 64
2, 174000, Note_on_c, 0, 79, 72
2, 174768, Note_off_c, 0, 79, 64
2, 174960, Note_on_c, 0, 76, 89
2, 175200, Note_off_c, 0, 76, 64
2, 175200, Note_on_c, 0, 77, 89
2, 175320, Note_off_c, 0, 77, 64
2, 175320, Note_on_c, 0, 79, 89
2, 175440, Note_off_c, 0, 79, 64
2, 175440, Note_on_c, 0, 81, 109
2, 175536, Note_off_c, 0, 81, 64
2, 175680, Note_on_c, 0, 81, 89
2, 175776, Note_off_c, 0, 81, 64
2, 175920, Note_on_c, 0, 74, 89
2, 176160, Note_off_c, 0, 74, 64
2, 176160, Note_on_c, 0, 76, 89
2, 176280, Note_off_c, 0, 76, 64
2, 176280, Note_on_c, 0, 77, 89
2, 176400, Note_off_c, 0, 77, 64
2, 176400, Note_on_c, 0, 79, 109
2, 176496, Note_off_c, 0, 79, 64
2, 176640, Note_on_c, 0, 67, 89
2, 176736, Note_off_c, 0, 67, 64
2, 176880, Note_on_c, 0, 72, 89
2, 177120, Note_off_c, 0, 72, 64
2, 177120, Note_on_c, 0, 74, 89
2, 177240, Note_off_c, 0, 74, 64
2, 177240, Note_on_c, 0, 76, 89
2, 177360, Note_off_c, 0, 76, 64
2, 177360, Note_on_c, 0, 77, 109
2, 177456, Note_off_c, 0, 77, 64
2, 177600, Note_on_c, 0, 77, 89
2, 177696, Note_off_c, 0, 77, 64
2, 177840, Note_on_c, 0, 71, 89
2, 178080, Note_off_c, 0, 71, 64
2, 178080, Note_on_c, 0, 72, 89
2, 178200, Note_off_c, 0, 72, 64
2, 178200, Note_on_c, 0, 74, 89
2, 178320, Note_off_c, 0, 74, 64
2, 178320, Note_on_c, 0, 76, 109
2, 178416, Note_off_c, 0, 76, 64
2, 178560, Note_on_c, 0, 64, 89
2, 178656, Note_off_c, 0, 64, 64
2, 178800, Note_on_c, 0, 69, 89
2, 179040, Note_off_c, 0, 69, 64
2, 179040, Note_on_c, 0, 71, 89
2, 179160, Note_off_c, 0, 71, 64
2, 179160, Note_on_c, 0, 72, 89
2, 179280, Note_off_c, 0, 72, 64
2, 179280, Note_on_c, 0, 74, 109
2, 179376, Note_off_c, 0, 74, 64
2, 179520, Note_on_c, 0, 74, 89
2, 179616, Note_off_c, 0, 74, 64
2, 179760, Note_on_c, 0, 67, 89
2, 180000, Note_off_c, 0, 67, 64
2, 180000, Note_on_c, 0, 69, 89
2, 180120, Note_off_c, 0, 69, 64
2, 180120, Note_on_c, 0, 71, 89
2, 180240, Note_off_c, 0, 71, 64
2, 180240, Note_on_c, 0, 72, 89
2, 180480, Note_off_c, 0, 72, 64
2, 180480, Note_on_c, 0, 74, 89
2, 180600, Note_off_c, 0, 74, 64
2, 180600, Note_on_c, 0, 76, 89
2, 180720, Note_off_c, 0, 76, 64
2, 180720, Note_on_c, 0, 77, 87
2, 180720, Note_on_c, 0, 74, 67
2, 180816, Note_off_c, 0, 74, 64
2, 180816, Note_off_c, 0, 77, 64
2, 180960, Note_on_c, 0, 77, 67
2, 180960, Note_on_c, 0, 74, 67
2, 181056, Note_off_c, 0, 74, 64
2, 181056, Note_off_c, 0, 77, 64
2, 181200, Note_on_c, 0, 74, 67
2, 181200, Note_on_c, 0, 77, 67
2, 181296, Note_off_c, 0, 77, 64
2, 181296, Note_off_c, 0, 74, 64
2, 181680, Note_on_c, 0, 76, 87
2, 181680, Note_on_c, 0, 72, 67
2, 181776, Note_off_c, 0, 72, 64
2, 181776, Note_off_c, 0, 76, 64
2, 181920, Note_on_c, 0, 72, 67
2, 181920, Note_on_c, 0, 76, 67
2, 182016, Note_off_c, 0, 76, 64
2, 182016, Note_off_c, 0, 72, 64
2, 182160, Note_on_c, 0, 72, 67
2, 182160, Note_on_c, 0, 76, 67
2, 182256, Note_off_c, 0, 76, 64
2, 182256, Note_off_c, 0, 72, 64
2, 182640, Note_on_c, 0, 77, 87
2, 182640, Note_on_c, 0, 74, 67
2, 182736, Note_off_c, 0, 74, 64
2, 182736, Note_off_c, 0, 77, 64
2, 182880, Note_on_c, 0, 77, 67
2, 182880, Note_on_c, 0, 74, 67
2, 182976, Note_off_c, 0, 74, 64
2, 182976, Note_off_c, 0, 77, 64
2, 183120, Note_on_c, 0, 74, 67
2, 183120, Note_on_c, 0, 77, 67
2, 183216, Note_off_c, 0, 77, 64
2, 183216, Note_off_c, 0, 74, 64
2, 183600, Note_on_c, 0, 76, 67
2, 183600, Note_on_c, 0, 72, 67
2, 183696, Note_off_c, 0, 72, 64
2, 183696, Note_off_c, 0, 76, 64
2, 190320, Note_on_c, 0, 86, 77
2, 190416, Note_off_c, 0, 86, 64
2, 190560, Note_on_c, 0, 86, 57
2, 190656, Note_off_c, 0, 86, 64
2, 190800, Note_on_c, 0, 86, 57
2, 190896, Note_off_c, 0, 86, 64
2, 191280, Note_on_c, 0, 86, 77
2, 191376, Note_off_c, 0, 86, 64
2, 191520, Note_on_c, 0, 86, 57
2, 191616, Note_off_c, 0, 86, 64
2, 191760, Note_on_c, 0, 86, 57
2, 191856, Note_off_c, 0, 86, 64
2, 192240, Note_on_c, 0, 86, 77
2, 192336, Note_off_c, 0, 86, 64
2, 192480, Note_on_c, 0, 86, 57
2, 192576, Note_off_c, 0, 86, 64
2, 192720, Note_on_c, 0, 86, 57
2, 192816, Note_off_c, 0, 86, 64
2, 193200, Note_on_c, 0, 86, 57
2, 193296, Note_off_c, 0, 86, 64
2, 194640, Note_on_c, 0, 84, 58
2, 195504, Note_off_c, 0, 84, 64
2, 195600, Note_on_c, 0, 83, 58
2, 196464, Note_off_c, 0, 83, 64
2, 196560, Note_on_c, 0, 93, 58
2, 197424, Note_off_c, 0, 93, 64
2, 197520, Note_on_c, 0, 91, 58
2, 198384, Note_off_c, 0, 91, 64
2, 198480, Note_on_c, 0, 89, 58
2, 199344, Note_off_c, 0, 89, 64
2, 199440, Note_on_c, 0, 88, 58
2, 199824, Note_off_c, 0, 88, 64
2, 199920, Note_on_c, 0, 86, 53
2, 199920, Note_on_c, 0, 89, 73
2, 200016, Note_off_c, 0, 89, 64
2, 200016, Note_off_c, 0, 86, 64
2, 200160, Note_on_c, 0, 91, 53
2, 200160, Note_on_c, 0, 86, 53
2, 200256, Note_off_c, 0, 86, 64
2, 200256, Note_off_c, 0, 91, 64
2, 200400, Note_on_c, 0, 86, 53
2, 200400, Note_on_c, 0, 91, 53
2, 200496, Note_off_c, 0, 91, 64
2, 200496, Note_off_c, 0, 86, 64
2, 200880, Note_on_c, 0, 91, 53
2, 200880, Note_on_c, 0, 88, 73
2, 200976, Note_off_c, 0, 88, 64
2, 200976, Note_off_c, 0, 91, 64
2, 201120, Note_on_c, 0, 91, 53
2, 201120, Note_on_c, 0, 88, 53
2, 201216, Note_off_c, 0, 88, 64
2, 201216, Note_off_c, 0, 91, 64
2, 201360, Note_on_c, 0, 91, 53
2, 201360, Note_on_c, 0, 88, 53
2, 201456, Note_off_c, 0, 88, 64
2, 201456, Note_off_c, 0, 91, 64
2, 201840, Note_on_c, 0, 86, 53
2, 201840, Note_on_c, 0, 91, 73
2, 201936, Note_off_c, 0, 91, 64
2, 201936, Note_off_c, 0, 86, 64
2, 202080, Note_on_c, 0, 91, 53
2, 202080, Note_on_c, 0, 86, 53
2, 202176, Note_off_c, 0, 86, 64
2, 202176, Note_off_c, 0, 91, 64
2, 202320, Note_on_c, 0, 86, 53
2, 202320, Note_on_c, 0, 91, 53
2, 202416, Note_off_c, 0, 91, 64
2, 202416, Note_off_c, 0, 86, 64
2, 203760, Note_on_c, 0, 83, 89
2, 204000, Note_off_c, 0, 83, 64
2, 204000, Note_on_c, 0, 84, 89
2, 204120, Note_off_c, 0, 84, 64
2, 204120, Note_on_c, 0, 86, 89
2, 204240, Note_off_c, 0, 86, 64
2, 204240, Note_on_c, 0, 88, 72
2, 205104, Note_off_c, 0, 88, 64
2, 205200, Note_on_c, 0, 86, 72
2, 206064, Note_off_c, 0, 86, 64
2, 206160, Note_on_c, 0, 84, 72
2, 207024, Note_off_c, 0, 84, 64
2, 207120, Note_on_c, 0, 83, 72
2, 207984, Note_off_c, 0, 83, 64
2, 208080, Note_on_c, 0, 81, 72
2, 208944, Note_off_c, 0, 81, 64
2, 209040, Note_on_c, 0, 79, 72
2, 209424, Note_off_c, 0, 79, 64
2, 209520, Note_on_c, 0, 86, 65
2, 209616, Note_off_c, 0, 86, 64
2, 209760, Note_on_c, 0, 86, 45
2, 209856, Note_off_c, 0, 86, 64
2, 210000, Note_on_c, 0, 86, 45
2, 210096, Note_off_c, 0, 86, 64
2, 210480, Note_on_c, 0, 86, 65
2, 210576, Note_off_c, 0, 86, 64
2, 210720, Note_on_c, 0, 86, 45
2, 210816, Note_off_c, 0, 86, 64
2, 210960, Note_on_c, 0, 86, 45
2, 211056, Note_off_c, 0, 86, 64
2, 211440, Note_on_c, 0, 86, 65
2, 211536, Note_off_c, 0, 86, 64
2, 211680, Note_on_c, 0, 86, 45
2, 211776, Note_off_c, 0, 86, 64
2, 211920, Note_on_c, 0, 86, 45
2, 212016, Note_off_c, 0, 86, 64
2, 212400, Note_on_c, 0, 83, 67
2, 212400, Note_on_c, 0, 86, 67
2, 212496, Note_off_c, 0, 86, 64
2, 212496, Note_off_c, 0, 83, 64
2, 212640, Note_on_c, 0, 79, 67
2, 212640, Note_on_c, 0, 83, 67
2, 212736, Note_off_c, 0, 83, 64
2, 212736, Note_off_c, 0, 79, 64
2, 212760, Note_on_c, 0, 81, 67
2, 212760, Note_on_c, 0, 84, 67
2, 212856, Note_off_c, 0, 84, 64
2, 212856, Note_off_c, 0, 81, 64
2, 212880, Note_on_c, 0, 83, 67
2, 212880, Note_on_c, 0, 86, 67
2, 212976, Note_off_c, 0, 86, 64
2, 212976, Note_off_c, 0, 83, 64
2, 213120, Note_on_c, 0, 83, 67
2, 213120, Note_on_c, 0, 86, 67
2, 213216, Note_off_c, 0, 86, 64
2, 213216, Note_off_c, 0, 83, 64
2, 213240, Note_on_c, 0, 84, 67
2, 213240, Note_on_c, 0, 88, 67
2, 213336, Note_off_c, 0, 88, 64
2, 213336, Note_off_c, 0, 84, 64
2, 213360, Note_on_c, 0, 89, 79
2, 213360, Note_on_c, 0, 86, 79
2, 213456, Note_off_c, 0, 86, 64
2, 213456, Note_off_c, 0, 89, 64
2, 213600, Note_on_c, 0, 88, 79
2, 213600, Note_on_c, 0, 84, 79
2, 213696, Note_off_c, 0, 84, 64
2, 213696, Note_off_c, 0, 88, 64
2, 213720, Note_on_c, 0, 89, 79
2, 213720, Note_on_c, 0, 86, 79
2, 213816, Note_off_c, 0, 86, 64
2, 213816, Note_off_c, 0, 89, 64
2, 213840, Note_on_c, 0, 91, 99
2, 213840, Note_on_c, 0, 88, 79
2, 213936, Note_off_c, 0, 88, 64
2, 213936, Note_off_c, 0, 91, 64
2, 214080, Note_on_c, 0, 86, 79
2, 214080, Note_on_c, 0, 89, 79
2, 214176, Note_off_c, 0, 89, 64
2, 214176, Note_off_c, 0, 86, 64
2, 214320, Note_on_c, 0, 84, 79
2, 214320, Note_on_c, 0, 88, 79
2, 214416, Note_off_c, 0, 88, 64
2, 214416, Note_off_c, 0, 84, 64
2, 214560, Note_on_c, 0, 83, 79
2, 214560, Note_on_c, 0, 86, 79
2, 214656, Note_off_c, 0, 86, 64
2, 214656, Note_off_c, 0, 83, 64
2, 214680, Note_on_c, 0, 84, 79
2, 214680, Note_on_c, 0, 88, 79
2, 214776, Note_off_c, 0, 88, 64
2, 214776, Note_off_c, 0, 84, 64
2, 214800, Note_on_c, 0, 89, 99
2, 214800, Note_on_c, 0, 86, 79
2, 214896, Note_off_c, 0, 86, 64
2, 214896, Note_off_c, 0, 89, 64
2, 215040, Note_on_c, 0, 84, 79
2, 215040, Note_on_c, 0, 88, 79
2, 215136, Note_off_c, 0, 88, 64
2, 215136, Note_off_c, 0, 84, 64
2, 215280, Note_on_c, 0, 91, 72
2, 215280, Note_on_c, 0, 79, 72
2, 217104, Note_off_c, 0, 79, 64
2, 217104, Note_off_c, 0, 91, 64
2, 217200, Note_on_c, 0, 88, 71
2, 217440, Note_off_c, 0, 88, 64
2, 217440, Note_on_c, 0, 89, 71
2, 217560, Note_off_c, 0, 89, 64
2, 217560, Note_on_c, 0, 91, 71
2, 217680, Note_off_c, 0, 91, 64
2, 217680, Note_on_c, 0, 93, 91
2, 217776, Note_off_c, 0, 93, 64
2, 217920, Note_on_c, 0, 93, 71
2, 218016, Note_off_c, 0, 93, 64
2, 218160, Note_on_c, 0, 86, 71
2, 218400, Note_off_c, 0, 86, 64
2, 218400, Note_on_c, 0, 88, 71
2, 218520, Note_off_c, 0, 88, 64
2, 218520, Note_on_c, 0, 89, 71
2, 218640, Note_off_c, 0, 89, 64
2, 218640, Note_on_c, 0, 91, 91
2, 218736, Note_off_c, 0, 91, 64
2, 218880, Note_on_c, 0, 79, 71
2, 218976, Note_off_c, 0, 79, 64
2, 219120, Note_on_c, 0, 84, 71
2, 219360, Note_off_c, 0, 84, 64
2, 219360, Note_on_c, 0, 86, 71
2, 219480, Note_off_c, 0, 86, 64
2, 219480, Note_on_c, 0, 88, 71
2, 219600, Note_off_c, 0, 88, 64
2, 219600, Note_on_c, 0, 89, 91
2, 219696, Note_off_c, 0, 89, 64
2, 219840, Note_on_c, 0, 89, 71
2, 219936, Note_off_c, 0, 89, 64
2, 220080, Note_on_c, 0, 83, 71
2, 220320, Note_off_c, 0, 83, 64
2, 220320, Note_on_c, 0, 84, 71
2, 220440, Note_off_c, 0, 84, 64
2, 220440, Note_on_c, 0, 86, 71
2, 220560, Note_off_c, 0, 86, 64
2, 220560, Note_on_c, 0, 88, 91
2, 220656, Note_off_c, 0, 88, 64
2, 220800, Note_on_c, 0, 76, 71
2, 220896, Note_off_c, 0, 76, 64
2, 221040, Note_on_c, 0, 81, 71
2, 221280, Note_off_c, 0, 81, 64
2, 221280, Note_on_c, 0, 83, 71
2, 221400, Note_off_c, 0, 83, 64
2, 221400, Note_on_c, 0, 84, 71
2, 221520, Note_off_c, 0, 84, 64
2, 221520, Note_on_c, 0, 86, 91
2, 221616, Note_off_c, 0, 86, 64
2, 221760, Note_on_c, 0, 86, 71
2, 221856, Note_off_c, 0, 86, 64
2, 222000, Note_on_c, 0, 79, 71
2, 222240, Note_off_c, 0, 79, 64
2, 222240, Note_on_c, 0, 81, 71
2, 222360, Note_off_c, 0, 81, 64
2, 222360, Note_on_c, 0, 83, 71
2, 222480, Note_off_c, 0, 83, 64
2, 222480, Note_on_c, 0, 84, 71
2, 222720, Note_off_c, 0, 84, 64
2, 222720, Note_on_c, 0, 86, 71
2, 222840, Note_off_c, 0, 86, 64
2, 222840, Note_on_c, 0, 88, 71
2, 222960, Note_off_c, 0, 88, 64
2, 222960, Note_on_c, 0, 89, 68
2, 223056, Note_off_c, 0, 89, 64
2, 223200, Note_on_c, 0, 88, 68
2, 223200, Note_on_c, 0, 84, 68
2, 223296, Note_off_c, 0, 84, 64
2, 223296, Note_off_c, 0, 88, 64
2, 223320, Note_on_c, 0, 89, 68
2, 223320, Note_on_c, 0, 86, 68
2, 223416, Note_off_c, 0, 86, 64
2, 223416, Note_off_c, 0, 89, 64
2, 223440, Note_on_c, 0, 88, 68
2, 223440, Note_on_c, 0, 91, 88
2, 223536, Note_off_c, 0, 91, 64
2, 223536, Note_off_c, 0, 88, 64
2, 223680, Note_on_c, 0, 89, 68
2, 223680, Note_on_c, 0, 86, 68
2, 223776, Note_off_c, 0, 86, 64
2, 223776, Note_off_c, 0, 89, 64
2, 223920, Note_on_c, 0, 88, 68
2, 223920, Note_on_c, 0, 84, 68
2, 224016, Note_off_c, 0, 84, 64
2, 224016, Note_off_c, 0, 88, 64
2, 224160, Note_on_c, 0, 86, 68
2, 224160, Note_on_c, 0, 83, 68
2, 224256, Note_off_c, 0, 83, 64
2, 224256, Note_off_c, 0, 86, 64
2, 224280, Note_on_c, 0, 88, 68
2, 224280, Note_on_c, 0, 84, 68
2, 224376, Note_off_c, 0, 84, 64
2, 224376, Note_off_c, 0, 88, 64
2, 224400, Note_on_c, 0, 86, 68
2, 224400, Note_on_c, 0, 89, 88
2, 224496, Note_off_c, 0, 89, 64
2, 224496, Note_off_c, 0, 86, 64
2, 224640, Note_on_c, 0, 88, 68
2, 224640, Note_on_c, 0, 84, 68
2, 224736, Note_off_c, 0, 84, 64
2, 224736, Note_off_c, 0, 88, 64
2, 224880, Note_on_c, 0, 89, 68
2, 224880, Note_on_c, 0, 83, 68
2, 224976, Note_off_c, 0, 83, 64
2, 224976, Note_off_c, 0, 89, 64
2, 225120, Note_on_c, 0, 84, 68
2, 225120, Note_on_c, 0, 88, 68
2, 225216, Note_off_c, 0, 88, 64
2, 225216, Note_off_c, 0, 84, 64
2, 225240, Note_on_c, 0, 86, 68
2, 225240, Note_on_c, 0, 89, 68
2, 225336, Note_off_c, 0, 89, 64
2, 225336, Note_off_c, 0, 86, 64
2, 225360, Note_on_c, 0, 88, 68
2, 225360, Note_on_c, 0, 91, 88
2, 225456, Note_off_c, 0, 91, 64
2, 225456, Note_off_c, 0, 88, 64
2, 225600, Note_on_c, 0, 89, 68
2, 225600, Note_on_c, 0, 86, 68
2, 225696, Note_off_c, 0, 86, 64
2, 225696, Note_off_c, 0, 89, 64
2, 225840, Note_on_c, 0, 84, 68
2, 225840, Note_on_c, 0, 88, 68
2, 225936, Note_off_c, 0, 88, 64
2, 225936, Note_off_c, 0, 84, 64
2, 226080, Note_on_c, 0, 83, 68
2, 226080, Note_on_c, 0, 86, 68
2, 226176, Note_off_c, 0, 86, 64
2, 226176, Note_off_c, 0, 83, 64
2, 226200, Note_on_c, 0, 84, 68
2, 226200, Note_on_c, 0, 88, 68
2, 226296, Note_off_c, 0, 88, 64
2, 226296, Note_off_c, 0, 84, 64
2, 226320, Note_on_c, 0, 86, 68
2, 226320, Note_on_c, 0, 89, 88
2, 226416, Note_off_c, 0, 89, 64
2, 226416, Note_off_c, 0, 86, 64
2, 226560, Note_on_c, 0, 88, 68
2, 226560, Note_on_c, 0, 84, 68
2, 226656, Note_off_c, 0, 84, 64
2, 226656, Note_off_c, 0, 88, 64
2, 226800, Note_on_c, 0, 84, 68
2, 226800, Note_on_c, 0, 88, 68
2, 226896, Note_off_c, 0, 88, 64
2, 226896, Note_off_c, 0, 84, 64
2, 227040, Note_on_c, 0, 86, 68
2, 227040, Note_on_c, 0, 83, 68
2, 227136, Note_off_c, 0, 83, 64
2, 227136, Note_off_c, 0, 86, 64
2, 227160, Note_on_c, 0, 88, 68
2, 227160, Note_on_c, 0, 84, 68
2, 227256, Note_off_c, 0, 84, 64
2, 227256, Note_off_c, 0, 88, 64
2, 227280, Note_on_c, 0, 89, 88
2, 227280, Note_on_c, 0, 86, 68
2, 227376, Note_off_c, 0, 86, 64
2, 227376, Note_off_c, 0, 89, 64
2, 227520, Note_on_c, 0, 88, 68
2, 227520, Note_on_c, 0, 84, 68
2, 227616, Note_off_c, 0, 84, 64
2, 227616, Note_off_c, 0, 88, 64
2, 227760, Note_on_c, 0, 88, 68
2, 227760, Note_on_c, 0, 84, 68
2, 227856, Note_off_c, 0, 84, 64
2, 227856, Note_off_c, 0, 88, 64
2, 228000, Note_on_c, 0, 86, 68
2, 228000, Note_on_c, 0, 83, 68
2, 228096, Note_off_c, 0, 83, 64
2, 228096, Note_off_c, 0, 86, 64
2, 228120, Note_on_c, 0, 84, 68
2, 228120, Note_on_c, 0, 88, 68
2, 228216, Note_off_c, 0, 88, 64
2, 228216, Note_off_c, 0, 84, 64
2, 228240, Note_on_c, 0, 86, 68
2, 228240, Note_on_c, 0, 89, 88
2, 228336, Note_off_c, 0, 89, 64
2, 228336, Note_off_c, 0, 86, 64
2, 228480, Note_on_c, 0, 84, 68
2, 228480, Note_on_c, 0, 88, 68
2, 228576, Note_off_c, 0, 88, 64
2, 228576, Note_off_c, 0, 84, 64
2, 228720, Note_on_c, 0, 86, 82
2, 228816, Note_off_c, 0, 86, 64
2, 228960, Note_on_c, 0, 85, 82
2, 229056, Note_off_c, 0, 85, 64
2, 229080, Note_on_c, 0, 86, 82
2, 229176, Note_off_c, 0, 86, 64
2, 229200, Note_on_c, 0, 88, 82
2, 229296, Note_off_c, 0, 88, 64
2, 229440, Note_on_c, 0, 86, 82
2, 229536, Note_off_c, 0, 86, 64
2, 229680, Note_on_c, 0, 86, 82
2, 229776, Note_off_c, 0, 86, 64
2, 229920, Note_on_c, 0, 85, 82
2, 230016, Note_off_c, 0, 85, 64
2, 230040, Note_on_c, 0, 86, 82
2, 230136, Note_off_c, 0, 86, 64
2, 230160, Note_on_c, 0, 88, 82
2, 230256, Note_off_c, 0, 88, 64
2, 230400, Note_on_c, 0, 86, 82
2, 230496, Note_off_c, 0, 86, 64
2, 230640, Note_on_c, 0, 84, 82
2, 230736, Note_off_c, 0, 84, 64
2, 230880, Note_on_c, 0, 83, 82
2, 230976, Note_off_c, 0, 83, 64
2, 231000, Note_on_c, 0, 84, 82
2, 231096, Note_off_c, 0, 84, 64
2, 231120, Note_on_c, 0, 86, 82
2, 231216, Note_off_c, 0, 86, 64
2, 231360, Note_on_c, 0, 84, 82
2, 231456, Note_off_c, 0, 84, 64
2, 231600, Note_on_c, 0, 84, 82
2, 231696, Note_off_c, 0, 84, 64
2, 231720, Note_on_c, 0, 83, 82
2, 231816, Note_off_c, 0, 83, 64
2, 231840, Note_on_c, 0, 81, 82
2, 231936, Note_off_c, 0, 81, 64
2, 231960, Note_on_c, 0, 83, 82
2, 232056, Note_off_c, 0, 83, 64
2, 232080, Note_on_c, 0, 84, 82
2, 232176, Note_off_c, 0, 84, 64
2, 232200, Note_on_c, 0, 81, 82
2, 232296, Note_off_c, 0, 81, 64
2, 232320, Note_on_c, 0, 83, 82
2, 232416, Note_off_c, 0, 83, 64
2, 232440, Note_on_c, 0, 84, 82
2, 232536, Note_off_c, 0, 84, 64
2, 232560, Note_on_c, 0, 86, 46
2, 232656, Note_off_c, 0, 86, 64
2, 232800, Note_on_c, 0, 79, 46
2, 232896, Note_off_c, 0, 79, 64
2, 233040, Note_on_c, 0, 91, 54
2, 233904, Note_off_c, 0, 91, 64
2, 234000, Note_on_c, 0, 90, 54
2, 234864, Note_off_c, 0, 90, 64
2, 234960, Note_on_c, 0, 88, 54
2, 235824, Note_off_c, 0, 88, 64
2, 235920, Note_on_c, 0, 86, 54
2, 236784, Note_off_c, 0, 86, 64
2, 236880, Note_on_c, 0, 84, 54
2, 237744, Note_off_c, 0, 84, 64
2, 237840, Note_on_c, 0, 83, 46
2, 238224, Note_off_c, 0, 83, 64
2, 238320, Note_on_c, 0, 81, 45
2, 238380, Note_off_c, 0, 81, 64
2, 238440, Note_on_c, 0, 74, 45
2, 238500, Note_off_c, 0, 74, 64
2, 238560, Note_on_c, 0, 81, 45
2, 238620, Note_off_c, 0, 81, 64
2, 238680, Note_on_c, 0, 79, 45
2, 238740, Note_off_c, 0, 79, 64
2, 238800, Note_on_c, 0, 78, 45
2, 238860, Note_off_c, 0, 78, 64
2, 238920, Note_on_c, 0, 74, 45
2, 238980, Note_off_c, 0, 74, 64
2, 239040, Note_on_c, 0, 76, 45
2, 239100, Note_off_c, 0, 76, 64
2, 239160, Note_on_c, 0, 78, 45
2, 239220, Note_off_c, 0, 78, 64
2, 239280, Note_on_c, 0, 79, 45
2, 239340, Note_off_c, 0, 79, 64
2, 239400, Note_on_c, 0, 86, 45
2, 239460, Note_off_c, 0, 86, 64
2, 239520, Note_on_c, 0, 84, 45
2, 239580, Note_off_c, 0, 84, 64
2, 239640, Note_on_c, 0, 83, 45
2, 239700, Note_off_c, 0, 83, 64
2, 239760, Note_on_c, 0, 81, 45
2, 239820, Note_off_c, 0, 81, 64
2, 239880, Note_on_c, 0, 79, 45
2, 239940, Note_off_c, 0, 79, 64
2, 240000, Note_on_c, 0, 78, 45
2, 240060, Note_off_c, 0, 78, 64
2, 240120, Note_on_c, 0, 79, 45
2, 240180, Note_off_c, 0, 79, 64
2, 240240, Note_on_c, 0, 86, 45
2, 240300, Note_off_c, 0, 86, 64
2, 240360, Note_on_c, 0, 79, 45
2, 240420, Note_off_c, 0, 79, 64
2, 240480, Note_on_c, 0, 86, 45
2, 240540, Note_off_c, 0, 86, 64
2, 240600, Note_on_c, 0, 84, 45
2, 240660, Note_off_c, 0, 84, 64
2, 240720, Note_on_c, 0, 83, 45
2, 240780, Note_off_c, 0, 83, 64
2, 240840, Note_on_c, 0, 79, 45
2, 240900, Note_off_c, 0, 79, 64
2, 240960, Note_on_c, 0, 81, 45
2, 241020, Note_off_c, 0, 81, 64
2, 241080, Note_on_c, 0, 83, 45
2, 241140, Note_off_c, 0, 83, 64
2, 241200, Note_on_c, 0, 84, 45
2, 241260, Note_off_c, 0, 84, 64
2, 241320, Note_on_c, 0, 91, 45
2, 241380, Note_off_c, 0, 91, 64
2, 241440, Note_on_c, 0, 89, 45
2, 241500, Note_off_c, 0, 89, 64
2, 241560, Note_on_c, 0, 88, 45
2, 241620, Note_off_c, 0, 88, 64
2, 241680, Note_on_c, 0, 86, 45
2, 241740, Note_off_c, 0, 86, 64
2, 241800, Note_on_c, 0, 84, 45
2, 241860, Note_off_c, 0, 84, 64
2, 241920, Note_on_c, 0, 83, 45
2, 241980, Note_off_c, 0, 83, 64
2, 242040, Note_on_c, 0, 84, 45
2, 242100, Note_off_c, 0, 84, 64
2, 242160, Note_on_c, 0, 86, 45
2, 242220, Note_off_c, 0, 86, 64
2, 242280, Note_on_c, 0, 79, 45
2, 242340, Note_off_c, 0, 79, 64
2, 242400, Note_on_c, 0, 86, 45
2, 242460, Note_off_c, 0, 86, 64
2, 242520, Note_on_c, 0, 84, 45
2, 242580, Note_off_c, 0, 84, 64
2, 242640, Note_on_c, 0, 83, 45
2, 242700, Note_off_c, 0, 83, 64
2, 242760, Note_on_c, 0, 79, 45
2, 242820, Note_off_c, 0, 79, 64
2, 242880, Note_on_c, 0, 81, 45
2, 242940, Note_off_c, 0, 81, 64
2, 243000, Note_on_c, 0, 83, 45
2, 243060, Note_off_c, 0, 83, 64
2, 243120, Note_on_c, 0, 84, 50
2, 243216, Note_off_c, 0, 84, 64
2, 243360, Note_on_c, 0, 84, 50
2, 243456, Note_off_c, 0, 84, 64
2, 243600, Note_on_c, 0, 84, 50
2, 243696, Note_off_c, 0, 84, 64
2, 243840, Note_on_c, 0, 86, 40
2, 243888, Note_off_c, 0, 86, 64
2, 243960, Note_on_c, 0, 88, 40
2, 244008, Note_off_c, 0, 88, 64
2, 244080, Note_on_c, 0, 89, 29
2, 244080, Note_on_c, 0, 84, 29
2, 244464, Note_off_c, 0, 84, 64
2, 244464, Note_off_c, 0, 89, 64
2, 256560, Note_on_c, 0, 89, 62
2, 256656, Note_off_c, 0, 89, 64
2, 256800, Note_on_c, 0, 88, 62
2, 256896, Note_off_c, 0, 88, 64
2, 256920, Note_on_c, 0, 89, 62
2, 257016, Note_off_c, 0, 89, 64
2, 257040, Note_on_c, 0, 91, 62
2, 257136, Note_off_c, 0, 91, 64
2, 257280, Note_on_c, 0, 89, 62
2, 257376, Note_off_c, 0, 89, 64
2, 257520, Note_on_c, 0, 88, 62
2, 257970, Note_off_c, 0, 88, 64
2, 258720, Note_on_c, 0, 88, 62
2, 258816, Note_off_c, 0, 88, 64
2, 258960, Note_on_c, 0, 89, 62
2, 259056, Note_off_c, 0, 89, 64
2, 259200, Note_on_c, 0, 88, 62
2, 259296, Note_off_c, 0, 88, 64
2, 259440, Note_on_c, 0, 89, 62
2, 259536, Note_off_c, 0, 89, 64
2, 259680, Note_on_c, 0, 88, 62
2, 259776, Note_off_c, 0, 88, 64
2, 259800, Note_on_c, 0, 89, 62
2, 259896, Note_off_c, 0, 89, 64
2, 259920, Note_on_c, 0, 91, 62
2, 260016, Note_off_c, 0, 91, 64
2, 260160, Note_on_c, 0, 89, 62
2, 260256, Note_off_c, 0, 89, 64
2, 260640, Note_on_c, 0, 88, 62
2, 260736, Note_off_c, 0, 88, 64
2, 260880, Note_on_c, 0, 89, 62
2, 260976, Note_off_c, 0, 89, 64
2, 261120, Note_on_c, 0, 88, 62
2, 261216, Note_off_c, 0, 88, 64
2, 261360, Note_on_c, 0, 89, 62
2, 261456, Note_off_c, 0, 89, 64
2, 261600, Note_on_c, 0, 88, 62
2, 261696, Note_off_c, 0, 88, 64
2, 261720, Note_on_c, 0, 89, 62
2, 261816, Note_off_c, 0, 89, 64
2, 261840, Note_on_c, 0, 91, 62
2, 261936, Note_off_c, 0, 91, 64
2, 262080, Note_on_c, 0, 89, 62
2, 262176, Note_off_c, 0, 89, 64
2, 262320, Note_on_c, 0, 89, 62
2, 262770, Note_off_c, 0, 89, 64
2, 263280, Note_on_c, 0, 84, 62
2, 263376, Note_off_c, 0, 84, 64
2, 263520, Note_on_c, 0, 83, 62
2, 263616, Note_off_c, 0, 83, 64
2, 263640, Note_on_c, 0, 84, 62
2, 263736, Note_off_c, 0, 84, 64
2, 263760, Note_on_c, 0, 86, 62
2, 263856, Note_off_c, 0, 86, 64
2, 264000, Note_on_c, 0, 84, 62
2, 264096, Note_off_c, 0, 84, 64
2, 264240, Note_on_c, 0, 83, 62
2, 264690, Note_off_c, 0, 83, 64
2, 264960, Note_on_c, 0, 84, 50
2, 265056, Note_off_c, 0, 84, 64
2, 265080, Note_on_c, 0, 86, 50
2, 265176, Note_off_c, 0, 86, 64
2, 265200, Note_on_c, 0, 88, 50
2, 265296, Note_off_c, 0, 88, 64
2, 265440, Note_on_c, 0, 86, 50
2, 265536, Note_off_c, 0, 86, 64
2, 265560, Note_on_c, 0, 88, 50
2, 265656, Note_off_c, 0, 88, 64
2, 265680, Note_on_c, 0, 89, 50
2, 265776, Note_off_c, 0, 89, 64
2, 265920, Note_on_c, 0, 88, 50
2, 266016, Note_off_c, 0, 88, 64
2, 266160, Note_on_c, 0, 88, 50
2, 266256, Note_off_c, 0, 88, 64
2, 266400, Note_on_c, 0, 86, 50
2, 266496, Note_off_c, 0, 86, 64
2, 266520, Note_on_c, 0, 88, 50
2, 266616, Note_off_c, 0, 88, 64
2, 266640, Note_on_c, 0, 89, 50
2, 266736, Note_off_c, 0, 89, 64
2, 266880, Note_on_c, 0, 88, 50
2, 266976, Note_off_c, 0, 88, 64
2, 267120, Note_on_c, 0, 86, 50
2, 267216, Note_off_c, 0, 86, 64
2, 267360, Note_on_c, 0, 84, 50
2, 267456, Note_off_c, 0, 84, 64
2, 267480, Note_on_c, 0, 86, 50
2, 267576, Note_off_c, 0, 86, 64
2, 267600, Note_on_c, 0, 88, 50
2, 267696, Note_off_c, 0, 88, 64
2, 267840, Note_on_c, 0, 86, 50
2, 267936, Note_off_c, 0, 86, 64
2, 268080, Note_on_c, 0, 84, 50
2, 268176, Note_off_c, 0, 84, 64
2, 268320, Note_on_c, 0, 83, 50
2, 268416, Note_off_c, 0, 83, 64
2, 268440, Note_on_c, 0, 84, 50
2, 268536, Note_off_c, 0, 84, 64
2, 268560, Note_on_c, 0, 86, 50
2, 268656, Note_off_c, 0, 86, 64
2, 268800, Note_on_c, 0, 84, 50
2, 268896, Note_off_c, 0, 84, 64
2, 269040, Note_on_c, 0, 83, 34
2, 269424, Note_off_c, 0, 83, 64
2, 269520, Note_on_c, 0, 76, 34
2, 269904, Note_off_c, 0, 76, 64
2, 273628, Control_c, 0, 7, 32
2, 273648, Control_c, 0, 7, 33
2, 273660, Control_c, 0, 7, 34
2, 273668, Control_c, 0, 7, 35
2, 273680, Control_c, 0, 7, 36
2, 273688, Control_c, 0, 7, 37
2, 273700, Control_c, 0, 7, 38
2, 273708, Control_c, 0, 7, 39
2, 273720, Control_c, 0, 7, 40
2, 273728, Control_c, 0, 7, 41
2, 273740, Control_c, 0, 7, 42
2, 273748, Control_c, 0, 7, 43
2, 273760, Control_c, 0, 7, 44
2, 273768, Control_c, 0, 7, 45
2, 273780, Control_c, 0, 7, 46
2, 273788, Control_c, 0, 7, 47
2, 273800, Control_c, 0, 7, 48
2, 273820, Control_c, 0, 7, 49
2, 273828, Control_c, 0, 7, 50
2, 273840, Control_c, 0, 7, 51
2, 273840, Note_on_c, 0, 81, 38
2, 273848, Control_c, 0, 7, 52
2, 273860, Control_c, 0, 7, 53
2, 273868, Control_c, 0, 7, 54
2, 273880, Control_c, 0, 7, 55
2, 273888, Control_c, 0, 7, 56
2, 273900, Control_c, 0, 7, 57
2, 273908, Control_c, 0, 7, 58
2, 273920, Control_c, 0, 7, 59
2, 273928, Control_c, 0, 7, 60
2, 273940, Control_c, 0, 7, 61
2, 273948, Control_c, 0, 7, 62
2, 273960, Control_c, 0, 7, 63
2, 273968, Control_c, 0, 7, 64
2, 273980, Control_c, 0, 7, 65
2, 274000, Control_c, 0, 7, 66
2, 274008, Control_c, 0, 7, 67
2, 274020, Control_c, 0, 7, 68
2, 274028, Control_c, 0, 7, 69
2, 274040, Control_c, 0, 7, 70
2, 274048, Control_c, 0, 7, 71
2, 274060, Control_c, 0, 7, 72
2, 274068, Control_c, 0, 7, 73
2, 274080, Control_c, 0, 7, 74
2, 274088, Control_c, 0, 7, 75
2, 274100, Control_c, 0, 7, 76
2, 274108, Control_c, 0, 7, 77
2, 274120, Control_c, 0, 7, 78
2, 274128, Control_c, 0, 7, 79
2, 274140, Control_c, 0, 7, 80
2, 274148, Control_c, 0, 7, 81
2, 274168, Control_c, 0, 7, 82
2, 274180, Control_c, 0, 7, 83
2, 274188, Control_c, 0, 7, 84
2, 274200, Control_c, 0, 7, 85
2, 274208, Control_c, 0, 7, 86
2, 274220, Control_c, 0, 7, 87
2, 274228, Control_c, 0, 7, 88
2, 274240, Control_c, 0, 7, 89
2, 274248, Control_c, 0, 7, 90
2, 274260, Control_c, 0, 7, 91
2, 274268, Control_c, 0, 7, 92
2, 274280, Control_c, 0, 7, 93
2, 274288, Control_c, 0, 7, 94
2, 274300, Control_c, 0, 7, 95
2, 274308, Control_c, 0, 7, 96
2, 274320, Control_c, 0, 7, 97
2, 274328, Control_c, 0, 7, 98
2, 274800, Note_off_c, 0, 81, 64
2, 274800, Note_on_c, 0, 86, 38
2, 275040, Note_off_c, 0, 86, 64
2, 275040, Note_on_c, 0, 84, 38
2, 275160, Note_off_c, 0, 84, 64
2, 275160, Note_on_c, 0, 83, 38
2, 275280, Note_off_c, 0, 83, 64
2, 275280, Note_on_c, 0, 83, 38
2, 275376, Note_off_c, 0, 83, 64
2, 275520, Note_on_c, 0, 83, 38
2, 275616, Note_off_c, 0, 83, 64
2, 275760, Note_on_c, 0, 83, 38
2, 276240, Note_off_c, 0, 83, 64
2, 276720, Note_on_c, 0, 88, 38
2, 276960, Note_off_c, 0, 88, 64
2, 276960, Note_on_c, 0, 84, 38
2, 277080, Note_off_c, 0, 84, 64
2, 277080, Note_on_c, 0, 83, 38
2, 277200, Note_off_c, 0, 83, 64
2, 277200, Note_on_c, 0, 81, 38
2, 277296, Note_off_c, 0, 81, 64
2, 277440, Note_on_c, 0, 81, 38
2, 277536, Note_off_c, 0, 81, 64
2, 277680, Note_on_c, 0, 81, 38
2, 278160, Note_off_c, 0, 81, 64
2, 280560, Note_on_c, 0, 86, 38
2, 280800, Note_off_c, 0, 86, 64
2, 280800, Note_on_c, 0, 84, 38
2, 280920, Note_off_c, 0, 84, 64
2, 280920, Note_on_c, 0, 83, 38
2, 281040, Note_off_c, 0, 83, 64
2, 281040, Note_on_c, 0, 81, 38
2, 281136, Note_off_c, 0, 81, 64
2, 281280, Note_on_c, 0, 81, 38
2, 281376, Note_off_c, 0, 81, 64
2, 281520, Note_on_c, 0, 83, 38
2, 282000, Note_off_c, 0, 83, 64
2, 284400, Note_on_c, 0, 83, 48
2, 284640, Note_off_c, 0, 83, 64
2, 284640, Note_on_c, 0, 84, 48
2, 284760, Note_off_c, 0, 84, 64
2, 284760, Note_on_c, 0, 86, 48
2, 284880, Note_off_c, 0, 86, 64
2, 284880, Note_on_c, 0, 88, 48
2, 284976, Note_off_c, 0, 88, 64
2, 285120, Note_on_c, 0, 88, 48
2, 285216, Note_off_c, 0, 88, 64
2, 285360, Note_on_c, 0, 88, 48
2, 285840, Note_off_c, 0, 88, 64
2, 293040, Note_on_c, 0, 83, 51
2, 293808, Note_off_c, 0, 83, 64
2, 294960, Note_on_c, 0, 83, 78
2, 296400, Note_on_c, 0, 88, 80
2, 296784, Note_off_c, 0, 83, 64
2, 296880, Note_on_c, 0, 81, 80
2, 297264, Note_off_c, 0, 88, 64
2, 297360, Note_on_c, 0, 86, 80
2, 297744, Note_off_c, 0, 81, 64
2, 297840, Note_on_c, 0, 79, 80
2, 298224, Note_off_c, 0, 86, 64
2, 298320, Note_on_c, 0, 84, 80
2, 298704, Note_off_c, 0, 79, 64
2, 298800, Note_on_c, 0, 78, 80
2, 299184, Note_off_c, 0, 84, 64
2, 299280, Note_on_c, 0, 83, 80
2, 299664, Note_off_c, 0, 78, 64
2, 299760, Note_on_c, 0, 76, 80
2, 300144, Note_off_c, 0, 83, 64
2, 300240, Note_on_c, 0, 81, 80
2, 300624, Note_off_c, 0, 76, 64
2, 300624, Note_off_c, 0, 81, 64
2, 300720, Control_c, 0, 7, 88
2, 300720, Note_on_c, 0, 93, 64
2, 300720, Note_on_c, 0, 90, 64
2, 300864, Note_off_c, 0, 90, 64
2, 300864, Note_off_c, 0, 93, 64
2, 301200, Note_on_c, 0, 91, 64
2, 301200, Note_on_c, 0, 88, 64
2, 301344, Note_off_c, 0, 88, 64
2, 301344, Note_off_c, 0, 91, 64
2, 301680, Note_on_c, 0, 90, 80
2, 301680, Note_on_c, 0, 93, 80
2, 301824, Note_off_c, 0, 93, 64
2, 301824, Note_off_c, 0, 90, 64
2, 302160, Note_on_c, 0, 88, 80
2, 302160, Note_on_c, 0, 91, 80
2, 302304, Note_off_c, 0, 91, 64
2, 302304, Note_off_c, 0, 88, 64
2, 302640, Note_on_c, 0, 90, 80
2, 302640, Note_on_c, 0, 93, 80
2, 302784, Note_off_c, 0, 93, 64
2, 302784, Note_off_c, 0, 90, 64
2, 303120, Note_on_c, 0, 88, 80
2, 303120, Note_on_c, 0, 91, 80
2, 303264, Note_off_c, 0, 91, 64
2, 303264, Note_off_c, 0, 88, 64
2, 303600, Note_on_c, 0, 87, 80
2, 303600, Note_on_c, 0, 90, 80
2, 303744, Note_off_c, 0, 90, 64
2, 303744, Note_off_c, 0, 87, 64
2, 304080, Note_on_c, 0, 88, 80
2, 304080, Note_on_c, 0, 91, 80
2, 304224, Note_off_c, 0, 91, 64
2, 304224, Note_off_c, 0, 88, 64
2, 304560, Note_on_c, 0, 83, 80
2, 304560, Note_on_c, 0, 93, 80
2, 304704, Note_off_c, 0, 93, 64
2, 304704, Note_off_c, 0, 83, 64
2, 305040, Note_on_c, 0, 83, 80
2, 305040, Note_on_c, 0, 91, 80
2, 305184, Note_off_c, 0, 91, 64
2, 305184, Note_off_c, 0, 83, 64
2, 305520, Note_on_c, 0, 83, 80
2, 305520, Note_on_c, 0, 90, 80
2, 305664, Note_off_c, 0, 90, 64
2, 305664, Note_off_c, 0, 83, 64
2, 306000, Note_on_c, 0, 88, 80
2, 306000, Note_on_c, 0, 83, 80
2, 306144, Note_off_c, 0, 83, 64
2, 306144, Note_off_c, 0, 88, 64
2, 306540, Note_on_c, 0, 88, 80
2, 306684, Note_off_c, 0, 88, 64
2, 307080, Note_on_c, 0, 88, 80
2, 307224, Note_off_c, 0, 88, 64
2, 307680, Note_on_c, 0, 88, 80
2, 309216, Note_off_c, 0, 88, 64
2, 309600, Note_on_c, 0, 88, 80
2, 311136, Note_off_c, 0, 88, 64
2, 311520, Note_on_c, 0, 88, 80
2, 313056, Note_off_c, 0, 88, 64
2, 313440, Note_on_c, 0, 88, 80
2, 313824, Note_off_c, 0, 88, 64
2, 313920, Note_on_c, 0, 88, 80
2, 314304, Note_off_c, 0, 88, 64
2, 314400, Note_on_c, 0, 88, 80
2, 314784, Note_off_c, 0, 88, 64
2, 314880, Note_on_c, 0, 88, 80
2, 315264, Note_off_c, 0, 88, 64
2, 315360, Note_on_c, 0, 88, 80
2, 316896, Note_off_c, 0, 88, 64
2, 317280, Note_on_c, 0, 88, 80
2, 318816, Note_off_c, 0, 88, 64
2, 319200, Note_on_c, 0, 88, 80
2, 320736, Note_off_c, 0, 88, 64
2, 321120, Note_on_c, 0, 88, 80
2, 321504, Note_off_c, 0, 88, 64
2, 321600, Note_on_c, 0, 88, 80
2, 321984, Note_off_c, 0, 88, 64
2, 322080, Note_on_c, 0, 88, 80
2, 322464, Note_off_c, 0, 88, 64
2, 322560, Note_on_c, 0, 87, 80
2, 322944, Note_off_c, 0, 87, 64
2, 323040, Note_on_c, 0, 88, 80
2, 323136, Note_off_c, 0, 88, 64
2, 323280, Note_on_c, 0, 83, 40
2, 323376, Note_off_c, 0, 83, 64
2, 323520, Note_on_c, 0, 83, 40
2, 323616, Note_off_c, 0, 83, 64
2, 324000, Note_on_c, 0, 83, 40
2, 324096, Note_off_c, 0, 83, 64
2, 324240, Note_on_c, 0, 83, 40
2, 324336, Note_off_c, 0, 83, 64
2, 324480, Note_on_c, 0, 83, 40
2, 324576, Note_off_c, 0, 83, 64
2, 324960, Note_on_c, 0, 83, 40
2, 325056, Note_off_c, 0, 83, 64
2, 325200, Note_on_c, 0, 83, 40
2, 325296, Note_off_c, 0, 83, 64
2, 325440, Note_on_c, 0, 83, 40
2, 325536, Note_off_c, 0, 83, 64
2, 325920, Note_on_c, 0, 83, 60
2, 326016, Note_off_c, 0, 83, 64
2, 326160, Note_on_c, 0, 82, 120
2, 326280, Note_off_c, 0, 82, 64
2, 326280, Note_on_c, 0, 83, 120
2, 326400, Note_off_c, 0, 83, 64
2, 326400, Note_on_c, 0, 84, 60
2, 326496, Note_off_c, 0, 84, 64
2, 326640, Note_on_c, 0, 83, 60
2, 326736, Note_off_c, 0, 83, 64
2, 326880, Note_on_c, 0, 88, 80
2, 326976, Note_off_c, 0, 88, 64
2, 327120, Note_on_c, 0, 83, 40
2, 327216, Note_off_c, 0, 83, 64
2, 327360, Note_on_c, 0, 83, 40
2, 327456, Note_off_c, 0, 83, 64
2, 327840, Note_on_c, 0, 83, 40
2, 327936, Note_off_c, 0, 83, 64
2, 328080, Note_on_c, 0, 83, 40
2, 328176, Note_off_c, 0, 83, 64
2, 328320, Note_on_c, 0, 83, 40
2, 328416, Note_off_c, 0, 83, 64
2, 328800, Note_on_c, 0, 83, 40
2, 328896, Note_off_c, 0, 83, 64
2, 329040, Note_on_c, 0, 83, 40
2, 329136, Note_off_c, 0, 83, 64
2, 329280, Note_on_c, 0, 83, 40
2, 329376, Note_off_c, 0, 83, 64
2, 329760, Note_on_c, 0, 83, 60
2, 329856, Note_off_c, 0, 83, 64
2, 330000, Note_on_c, 0, 82, 120
2, 330120, Note_off_c, 0, 82, 64
2, 330120, Note_on_c, 0, 83, 120
2, 330240, Note_off_c, 0, 83, 64
2, 330240, Note_on_c, 0, 84, 60
2, 330336, Note_off_c, 0, 84, 64
2, 330480, Note_on_c, 0, 83, 60
2, 330576, Note_off_c, 0, 83, 64
2, 330720, Note_on_c, 0, 83, 60
2, 330816, Note_off_c, 0, 83, 64
2, 330960, Note_on_c, 0, 82, 120
2, 331080, Note_off_c, 0, 82, 64
2, 331080, Note_on_c, 0, 83, 120
2, 331200, Note_off_c, 0, 83, 64
2, 331200, Note_on_c, 0, 84, 60
2, 331296, Note_off_c, 0, 84, 64
2, 331440, Note_on_c, 0, 83, 60
2, 331536, Note_off_c, 0, 83, 64
2, 331680, Note_on_c, 0, 83, 60
2, 331776, Note_off_c, 0, 83, 64
2, 331920, Note_on_c, 0, 82, 120
2, 332040, Note_off_c, 0, 82, 64
2, 332040, Note_on_c, 0, 83, 120
2, 332160, Note_off_c, 0, 83, 64
2, 332160, Note_on_c, 0, 84, 60
2, 332256, Note_off_c, 0, 84, 64
2, 332400, Note_on_c, 0, 83, 60
2, 332496, Note_off_c, 0, 83, 64
2, 332640, Note_on_c, 0, 83, 120
2, 332736, Note_off_c, 0, 83, 64
2, 332880, Note_on_c, 0, 83, 120
2, 332976, Note_off_c, 0, 83, 64
2, 333120, Note_on_c, 0, 87, 120
2, 333120, Note_on_c, 0, 83, 120
2, 333216, Note_off_c, 0, 83, 64
2, 333216, Note_off_c, 0, 87, 64
2, 333360, Note_on_c, 0, 83, 120
2, 333360, Note_on_c, 0, 87, 120
2, 333456, Note_off_c, 0, 87, 64
2, 333456, Note_off_c, 0, 83, 64
2, 333600, Note_on_c, 0, 88, 120
2, 333600, Note_on_c, 0, 83, 120
2, 333696, Note_off_c, 0, 83, 64
2, 333696, Note_off_c, 0, 88, 64
2, 333840, Note_on_c, 0, 83, 120
2, 333840, Note_on_c, 0, 88, 120
2, 333936, Note_off_c, 0, 88, 64
2, 333936, Note_off_c, 0, 83, 64
2, 334080, Note_on_c, 0, 83, 120
2, 334080, Note_on_c, 0, 87, 120
2, 334176, Note_off_c, 0, 87, 64
2, 334176, Note_off_c, 0, 83, 64
2, 334320, Note_on_c, 0, 87, 120
2, 334320, Note_on_c, 0, 83, 120
2, 334416, Note_off_c, 0, 83, 64
2, 334416, Note_off_c, 0, 87, 64
2, 334560, Note_on_c, 0, 88, 80
2, 334560, Note_on_c, 0, 83, 80
2, 334752, Note_off_c, 0, 83, 64
2, 334752, Note_off_c, 0, 88, 64
2, 335520, Note_on_c, 0, 88, 80
2, 335520, Note_on_c, 0, 76, 80
2, 335712, Note_off_c, 0, 76, 64
2, 335712, Note_off_c, 0, 88, 64
2, 336000, Note_on_c, 0, 88, 80
2, 336000, Note_on_c, 0, 76, 80
2, 336192, Note_off_c, 0, 76, 64
2, 336192, Note_off_c, 0, 88, 64
2, 336480, Note_on_c, 0, 76, 80
2, 336480, Note_on_c, 0, 88, 80
2, 336672, Note_off_c, 0, 88, 64
2, 336672, Note_off_c, 0, 76, 64
2, 337440, Note_on_c, 0, 76, 80
2, 337440, Note_on_c, 0, 88, 80
2, 337632, Note_off_c, 0, 88, 64
2, 337632, Note_off_c, 0, 76, 64
2, 338400, Note_on_c, 0, 88, 50
2, 343080, Note_off_c, 0, 88, 64
2, 348960, Note_on_c, 0, 86, 66
2, 349728, Note_off_c, 0, 86, 64
2, 349920, Note_on_c, 0, 83, 58
2, 350160, Note_off_c, 0, 83, 64
2, 350160, Note_on_c, 0, 84, 58
2, 350280, Note_off_c, 0, 84, 64
2, 350280, Note_on_c, 0, 86, 58
2, 350400, Note_off_c, 0, 86, 64
2, 350400, Note_on_c, 0, 88, 58
2, 350496, Note_off_c, 0, 88, 64
2, 350640, Note_on_c, 0, 88, 58
2, 350736, Note_off_c, 0, 88, 64
2, 350880, Note_on_c, 0, 81, 58
2, 351120, Note_off_c, 0, 81, 64
2, 351120, Note_on_c, 0, 83, 58
2, 351240, Note_off_c, 0, 83, 64
2, 351240, Note_on_c, 0, 84, 58
2, 351360, Note_off_c, 0, 84, 64
2, 351360, Note_on_c, 0, 86, 58
2, 351456, Note_off_c, 0, 86, 64
2, 351600, Note_on_c, 0, 86, 58
2, 351696, Note_off_c, 0, 86, 64
2, 351840, Note_on_c, 0, 79, 48
2, 351936, Note_off_c, 0, 79, 64
2, 352080, Note_on_c, 0, 84, 48
2, 352176, Note_off_c, 0, 84, 64
2, 352320, Note_on_c, 0, 84, 48
2, 352416, Note_off_c, 0, 84, 64
2, 352560, Note_on_c, 0, 83, 48
2, 352656, Note_off_c, 0, 83, 64
2, 352800, Note_on_c, 0, 84, 48
2, 353568, Note_off_c, 0, 84, 64
2, 353760, Note_on_c, 0, 84, 48
2, 354528, Note_off_c, 0, 84, 64
2, 354720, Note_on_c, 0, 84, 48
2, 355488, Note_off_c, 0, 84, 64
2, 355680, Note_on_c, 0, 84, 48
2, 355680, Note_on_c, 0, 89, 48
2, 356448, Note_off_c, 0, 89, 64
2, 356448, Note_off_c, 0, 84, 64
2, 356640, Note_on_c, 0, 79, 62
2, 356640, Note_on_c, 0, 86, 62
2, 356880, Note_off_c, 0, 86, 64
2, 356880, Note_off_c, 0, 79, 64
2, 356880, Note_on_c, 0, 79, 63
2, 356880, Note_on_c, 0, 88, 63
2, 357000, Note_off_c, 0, 88, 64
2, 357000, Note_off_c, 0, 79, 64
2, 357000, Note_on_c, 0, 89, 64
2, 357000, Note_on_c, 0, 79, 64
2, 357120, Note_off_c, 0, 79, 64
2, 357120, Note_off_c, 0, 89, 64
2, 357120, Note_on_c, 0, 91, 65
2, 357120, Note_on_c, 0, 79, 65
2, 357216, Note_off_c, 0, 79, 64
2, 357216, Note_off_c, 0, 91, 64
2, 357360, Note_on_c, 0, 79, 67
2, 357360, Note_on_c, 0, 91, 67
2, 357456, Note_off_c, 0, 91, 64
2, 357456, Note_off_c, 0, 79, 64
2, 357600, Note_on_c, 0, 88, 68
2, 357600, Note_on_c, 0, 79, 68
2, 357840, Note_off_c, 0, 79, 64
2, 357840, Note_off_c, 0, 88, 64
2, 357840, Note_on_c, 0, 79, 71
2, 357840, Note_on_c, 0, 89, 71
2, 357960, Note_off_c, 0, 89, 64
2, 357960, Note_off_c, 0, 79, 64
2, 357960, Note_on_c, 0, 79, 71
2, 357960, Note_on_c, 0, 91, 71
2, 358080, Note_off_c, 0, 91, 64
2, 358080, Note_off_c, 0, 79, 64
2, 358080, Note_on_c, 0, 93, 72
2, 358080, Note_on_c, 0, 81, 72
2, 358176, Note_off_c, 0, 81, 64
2, 358176, Note_off_c, 0, 93, 64
2, 358320, Note_on_c, 0, 74, 74
2, 358320, Note_on_c, 0, 83, 74
2, 358416, Note_off_c, 0, 83, 64
2, 358416, Note_off_c, 0, 74, 64
2, 358560, Note_on_c, 0, 76, 76
2, 358560, Note_on_c, 0, 84, 76
2, 358656, Note_off_c, 0, 84, 64
2, 358656, Note_off_c, 0, 76, 64
2, 358800, Note_on_c, 0, 77, 77
2, 358800, Note_on_c, 0, 86, 77
2, 358896, Note_off_c, 0, 86, 64
2, 358896, Note_off_c, 0, 77, 64
2, 359040, Note_on_c, 0, 79, 79
2, 359040, Note_on_c, 0, 88, 79
2, 359136, Note_off_c, 0, 88, 64
2, 359136, Note_off_c, 0, 79, 64
2, 359280, Note_on_c, 0, 81, 81
2, 359280, Note_on_c, 0, 90, 81
2, 359376, Note_off_c, 0, 90, 64
2, 359376, Note_off_c, 0, 81, 64
2, 359520, Note_on_c, 0, 79, 60
2, 359520, Note_on_c, 0, 91, 80
2, 359616, Note_off_c, 0, 91, 64
2, 359616, Note_off_c, 0, 79, 64
2, 359760, Note_on_c, 0, 91, 60
2, 359760, Note_on_c, 0, 79, 60
2, 359856, Note_off_c, 0, 79, 64
2, 359856, Note_off_c, 0, 91, 64
2, 360000, Note_on_c, 0, 91, 60
2, 360000, Note_on_c, 0, 79, 60
2, 360096, Note_off_c, 0, 79, 64
2, 360096, Note_off_c, 0, 91, 64
2, 360480, Note_on_c, 0, 88, 60
2, 360480, Note_on_c, 0, 91, 80
2, 360576, Note_off_c, 0, 91, 64
2, 360576, Note_off_c, 0, 88, 64
2, 360720, Note_on_c, 0, 91, 60
2, 360720, Note_on_c, 0, 88, 60
2, 360816, Note_off_c, 0, 88, 64
2, 360816, Note_off_c, 0, 91, 64
2, 360960, Note_on_c, 0, 91, 60
2, 360960, Note_on_c, 0, 88, 60
2, 361056, Note_off_c, 0, 88, 64
2, 361056, Note_off_c, 0, 91, 64
2, 361440, Note_on_c, 0, 91, 80
2, 361440, Note_on_c, 0, 88, 60
2, 361536, Note_off_c, 0, 88, 64
2, 361536, Note_off_c, 0, 91, 64
2, 361680, Note_on_c, 0, 89, 60
2, 361680, Note_on_c, 0, 86, 60
2, 361776, Note_off_c, 0, 86, 64
2, 361776, Note_off_c, 0, 89, 64
2, 361920, Note_on_c, 0, 86, 60
2, 361920, Note_on_c, 0, 89, 60
2, 362016, Note_off_c, 0, 89, 64
2, 362016, Note_off_c, 0, 86, 64
2, 362400, Note_on_c, 0, 89, 80
2, 362400, Note_on_c, 0, 86, 60
2, 362496, Note_off_c, 0, 86, 64
2, 362496, Note_off_c, 0, 89, 64
2, 362640, Note_on_c, 0, 86, 60
2, 362640, Note_on_c, 0, 89, 60
2, 362736, Note_off_c, 0, 89, 64
2, 362736, Note_off_c, 0, 86, 64
2, 362880, Note_on_c, 0, 86, 60
2, 362880, Note_on_c, 0, 89, 60
2, 362976, Note_off_c, 0, 89, 64
2, 362976, Note_off_c, 0, 86, 64
2, 363360, Note_on_c, 0, 89, 80
2, 363360, Note_on_c, 0, 86, 60
2, 363456, Note_off_c, 0, 86, 64
2, 363456, Note_off_c, 0, 89, 64
2, 363600, Note_on_c, 0, 84, 60
2, 363600, Note_on_c, 0, 88, 60
2, 363696, Note_off_c, 0, 88, 64
2, 363696, Note_off_c, 0, 84, 64
2, 363840, Note_on_c, 0, 88, 60
2, 363840, Note_on_c, 0, 84, 60
2, 363936, Note_off_c, 0, 84, 64
2, 363936, Note_off_c, 0, 88, 64
2, 364320, Note_on_c, 0, 79, 60
2, 364320, Note_on_c, 0, 88, 80
2, 364416, Note_off_c, 0, 88, 64
2, 364416, Note_off_c, 0, 79, 64
2, 364560, Note_on_c, 0, 79, 60
2, 364560, Note_on_c, 0, 88, 60
2, 364656, Note_off_c, 0, 88, 64
2, 364656, Note_off_c, 0, 79, 64
2, 364800, Note_on_c, 0, 79, 60
2, 364800, Note_on_c, 0, 88, 60
2, 364896, Note_off_c, 0, 88, 64
2, 364896, Note_off_c, 0, 79, 64
2, 365280, Note_on_c, 0, 79, 60
2, 365280, Note_on_c, 0, 88, 80
2, 365376, Note_off_c, 0, 88, 64
2, 365376, Note_off_c, 0, 79, 64
2, 365520, Note_on_c, 0, 79, 60
2, 365520, Note_on_c, 0, 86, 60
2, 365616, Note_off_c, 0, 86, 64
2, 365616, Note_off_c, 0, 79, 64
2, 365760, Note_on_c, 0, 79, 60
2, 365760, Note_on_c, 0, 86, 60
2, 365856, Note_off_c, 0, 86, 64
2, 365856, Note_off_c, 0, 79, 64
2, 366240, Note_on_c, 0, 79, 60
2, 366240, Note_on_c, 0, 86, 80
2, 366336, Note_off_c, 0, 86, 64
2, 366336, Note_off_c, 0, 79, 64
2, 366480, Note_on_c, 0, 86, 60
2, 366480, Note_on_c, 0, 79, 60
2, 366576, Note_off_c, 0, 79, 64
2, 366576, Note_off_c, 0, 86, 64
2, 366720, Note_on_c, 0, 79, 60
2, 366720, Note_on_c, 0, 86, 60
2, 366816, Note_off_c, 0, 86, 64
2, 366816, Note_off_c, 0, 79, 64
2, 367200, Note_on_c, 0, 88, 67
2, 367968, Note_off_c, 0, 88, 64
2, 368160, Note_on_c, 0, 85, 67
2, 368400, Note_off_c, 0, 85, 64
2, 368400, Note_on_c, 0, 86, 67
2, 368520, Note_off_c, 0, 86, 64
2, 368520, Note_on_c, 0, 88, 67
2, 368640, Note_off_c, 0, 88, 64
2, 368640, Note_on_c, 0, 89, 67
2, 368736, Note_off_c, 0, 89, 64
2, 368880, Note_on_c, 0, 89, 67
2, 368976, Note_off_c, 0, 89, 64
2, 369120, Note_on_c, 0, 86, 67
2, 369888, Note_off_c, 0, 86, 64
2, 370080, Note_on_c, 0, 83, 67
2, 370320, Note_off_c, 0, 83, 64
2, 370320, Note_on_c, 0, 84, 67
2, 370440, Note_off_c, 0, 84, 64
2, 370440, Note_on_c, 0, 86, 67
2, 370560, Note_off_c, 0, 86, 64
2, 370560, Note_on_c, 0, 88, 67
2, 370656, Note_off_c, 0, 88, 64
2, 370800, Note_on_c, 0, 88, 67
2, 370896, Note_off_c, 0, 88, 64
2, 371040, Note_on_c, 0, 84, 67
2, 371808, Note_off_c, 0, 84, 64
2, 372000, Note_on_c, 0, 81, 67
2, 372240, Note_off_c, 0, 81, 64
2, 372240, Note_on_c, 0, 83, 67
2, 372360, Note_off_c, 0, 83, 64
2, 372360, Note_on_c, 0, 84, 67
2, 372480, Note_off_c, 0, 84, 64
2, 372480, Note_on_c, 0, 86, 67
2, 372576, Note_off_c, 0, 86, 64
2, 372720, Note_on_c, 0, 86, 67
2, 372816, Note_off_c, 0, 86, 64
2, 372960, Note_on_c, 0, 91, 42
2, 372960, Note_on_c, 0, 79, 42
2, 373056, Note_off_c, 0, 79, 64
2, 373056, Note_off_c, 0, 91, 64
2, 373200, Note_on_c, 0, 79, 42
2, 373200, Note_on_c, 0, 91, 42
2, 373296, Note_off_c, 0, 91, 64
2, 373296, Note_off_c, 0, 79, 64
2, 373440, Note_on_c, 0, 79, 42
2, 373440, Note_on_c, 0, 91, 42
2, 373536, Note_off_c, 0, 91, 64
2, 373536, Note_off_c, 0, 79, 64
2, 373920, Note_on_c, 0, 79, 42
2, 373920, Note_on_c, 0, 91, 42
2, 374016, Note_off_c, 0, 91, 64
2, 374016, Note_off_c, 0, 79, 64
2, 374160, Note_on_c, 0, 79, 42
2, 374160, Note_on_c, 0, 91, 42
2, 374256, Note_off_c, 0, 91, 64
2, 374256, Note_off_c, 0, 79, 64
2, 374400, Note_on_c, 0, 79, 42
2, 374400, Note_on_c, 0, 91, 42
2, 374496, Note_off_c, 0, 91, 64
2, 374496, Note_off_c, 0, 79, 64
2, 374880, Note_on_c, 0, 91, 56
2, 374880, Note_on_c, 0, 79, 56
2, 374976, Note_off_c, 0, 79, 64
2, 374976, Note_off_c, 0, 91, 64
2, 375120, Note_on_c, 0, 91, 56
2, 375120, Note_on_c, 0, 79, 56
2, 375216, Note_off_c, 0, 79, 64
2, 375216, Note_off_c, 0, 91, 64
2, 375360, Note_on_c, 0, 79, 56
2, 375360, Note_on_c, 0, 91, 56
2, 375456, Note_off_c, 0, 91, 64
2, 375456, Note_off_c, 0, 79, 64
2, 375840, Note_on_c, 0, 79, 42
2, 375840, Note_on_c, 0, 91, 42
2, 375936, Note_off_c, 0, 91, 64
2, 375936, Note_off_c, 0, 79, 64
2, 376080, Note_on_c, 0, 91, 42
2, 376080, Note_on_c, 0, 79, 42
2, 376176, Note_off_c, 0, 79, 64
2, 376176, Note_off_c, 0, 91, 64
2, 376320, Note_on_c, 0, 79, 42
2, 376320, Note_on_c, 0, 91, 42
2, 376416, Note_off_c, 0, 91, 64
2, 376416, Note_off_c, 0, 79, 64
2, 376800, Note_on_c, 0, 79, 56
2, 376800, Note_on_c, 0, 91, 56
2, 376896, Note_off_c, 0, 91, 64
2, 376896, Note_off_c, 0, 79, 64
2, 377040, Note_on_c, 0, 79, 56
2, 377040, Note_on_c, 0, 91, 56
2, 377136, Note_off_c, 0, 91, 64
2, 377136, Note_off_c, 0, 79, 64
2, 377280, Note_on_c, 0, 91, 56
2, 377280, Note_on_c, 0, 79, 56
2, 377376, Note_off_c, 0, 79, 64
2, 377376, Note_off_c, 0, 91, 64
2, 377760, Note_on_c, 0, 84, 42
2, 377760, Note_on_c, 0, 88, 42
2, 377856, Note_off_c, 0, 88, 64
2, 377856, Note_off_c, 0, 84, 64
2, 378000, Note_on_c, 0, 88, 42
2, 378000, Note_on_c, 0, 84, 42
2, 378096, Note_off_c, 0, 84, 64
2, 378096, Note_off_c, 0, 88, 64
2, 378240, Note_on_c, 0, 84, 42
2, 378240, Note_on_c, 0, 88, 42
2, 378336, Note_off_c, 0, 88, 64
2, 378336, Note_off_c, 0, 84, 64
2, 378720, Note_on_c, 0, 86, 42
2, 378720, Note_on_c, 0, 84, 42
2, 378816, Note_off_c, 0, 84, 64
2, 378816, Note_off_c, 0, 86, 64
2, 378960, Note_on_c, 0, 86, 42
2, 378960, Note_on_c, 0, 84, 42
2, 379056, Note_off_c, 0, 84, 64
2, 379056, Note_off_c, 0, 86, 64
2, 379200, Note_on_c, 0, 84, 42
2, 379200, Note_on_c, 0, 86, 42
2, 379296, Note_off_c, 0, 86, 64
2, 379296, Note_off_c, 0, 84, 64
2, 379680, Note_on_c, 0, 86, 42
2, 379680, Note_on_c, 0, 83, 42
2, 379776, Note_off_c, 0, 83, 64
2, 379776, Note_off_c, 0, 86, 64
2, 379920, Note_on_c, 0, 83, 42
2, 379920, Note_on_c, 0, 86, 42
2, 380016, Note_off_c, 0, 86, 64
2, 380016, Note_off_c, 0, 83, 64
2, 380160, Note_on_c, 0, 86, 42
2, 380160, Note_on_c, 0, 83, 42
2, 380256, Note_off_c, 0, 83, 64
2, 380256, Note_off_c, 0, 86, 64
2, 380640, Note_on_c, 0, 91, 45
2, 380640, Note_on_c, 0, 79, 45
2, 380736, Note_off_c, 0, 79, 64
2, 380736, Note_off_c, 0, 91, 64
2, 380880, Note_on_c, 0, 79, 45
2, 380880, Note_on_c, 0, 91, 45
2, 380976, Note_off_c, 0, 91, 64
2, 380976, Note_off_c, 0, 79, 64
2, 381120, Note_on_c, 0, 79, 45
2, 381120, Note_on_c, 0, 91, 45
2, 381216, Note_off_c, 0, 91, 64
2, 381216, Note_off_c, 0, 79, 64
2, 381600, Note_on_c, 0, 91, 45
2, 381600, Note_on_c, 0, 79, 45
2, 381696, Note_off_c, 0, 79, 64
2, 381696, Note_off_c, 0, 91, 64
2, 381840, Note_on_c, 0, 79, 45
2, 381840, Note_on_c, 0, 91, 45
2, 381936, Note_off_c, 0, 91, 64
2, 381936, Note_off_c, 0, 79, 64
2, 382080, Note_on_c, 0, 79, 45
2, 382080, Note_on_c, 0, 91, 45
2, 382176, Note_off_c, 0, 91, 64
2, 382176, Note_off_c, 0, 79, 64
2, 382560, Note_on_c, 0, 91, 45
2, 382560, Note_on_c, 0, 79, 45
2, 382656, Note_off_c, 0, 79, 64
2, 382656, Note_off_c, 0, 91, 64
2, 382800, Note_on_c, 0, 79, 45
2, 382800, Note_on_c, 0, 91, 45
2, 382896, Note_off_c, 0, 91, 64
2, 382896, Note_off_c, 0, 79, 64
2, 383040, Note_on_c, 0, 79, 45
2, 383040, Note_on_c, 0, 91, 45
2, 383136, Note_off_c, 0, 91, 64
2, 383136, Note_off_c, 0, 79, 64
2, 383520, Note_on_c, 0, 91, 45
2, 383520, Note_on_c, 0, 79, 45
2, 383616, Note_off_c, 0, 79, 64
2, 383616, Note_off_c, 0, 91, 64
2, 383760, Note_on_c, 0, 77, 45
2, 383760, Note_on_c, 0, 89, 45
2, 383856, Note_off_c, 0, 89, 64
2, 383856, Note_off_c, 0, 77, 64
2, 384000, Note_on_c, 0, 93, 45
2, 384000, Note_on_c, 0, 81, 45
2, 384096, Note_off_c, 0, 81, 64
2, 384096, Note_off_c, 0, 93, 64
2, 384240, Note_on_c, 0, 91, 45
2, 384240, Note_on_c, 0, 79, 45
2, 384336, Note_off_c, 0, 79, 64
2, 384336, Note_off_c, 0, 91, 64
2, 384480, Note_on_c, 0, 91, 96
2, 384480, Note_on_c, 0, 79, 56
2, 384576, Note_off_c, 0, 79, 64
2, 384576, Note_off_c, 0, 91, 64
2, 384720, Note_on_c, 0, 89, 56
2, 384720, Note_on_c, 0, 77, 56
2, 384816, Note_off_c, 0, 77, 64
2, 384816, Note_off_c, 0, 89, 64
2, 384960, Note_on_c, 0, 89, 96
2, 384960, Note_on_c, 0, 77, 56
2, 385056, Note_off_c, 0, 77, 64
2, 385056, Note_off_c, 0, 89, 64
2, 385200, Note_on_c, 0, 76, 56
2, 385200, Note_on_c, 0, 88, 56
2, 385296, Note_off_c, 0, 88, 64
2, 385296, Note_off_c, 0, 76, 64
2, 385440, Note_on_c, 0, 76, 56
2, 385440, Note_on_c, 0, 88, 96
2, 385536, Note_off_c, 0, 88, 64
2, 385536, Note_off_c, 0, 76, 64
2, 385680, Note_on_c, 0, 74, 56
2, 385680, Note_on_c, 0, 86, 56
2, 385776, Note_off_c, 0, 86, 64
2, 385776, Note_off_c, 0, 74, 64
2, 385920, Note_on_c, 0, 74, 56
2, 385920, Note_on_c, 0, 86, 96
2, 386016, Note_off_c, 0, 86, 64
2, 386016, Note_off_c, 0, 74, 64
2, 386160, Note_on_c, 0, 84, 56
2, 386160, Note_on_c, 0, 72, 56
2, 386256, Note_off_c, 0, 72, 64
2, 386256, Note_off_c, 0, 84, 64
2, 386400, Note_on_c, 0, 84, 96
2, 386496, Note_off_c, 0, 84, 64
2, 386640, Note_on_c, 0, 83, 56
2, 386736, Note_off_c, 0, 83, 64
2, 386880, Note_on_c, 0, 83, 96
2, 386976, Note_off_c, 0, 83, 64
2, 387120, Note_on_c, 0, 81, 56
2, 387216, Note_off_c, 0, 81, 64
2, 387360, Note_on_c, 0, 81, 96
2, 387456, Note_off_c, 0, 81, 64
2, 387600, Note_on_c, 0, 79, 56
2, 387696, Note_off_c, 0, 79, 64
2, 387840, Note_on_c, 0, 79, 96
2, 387936, Note_off_c, 0, 79, 64
2, 388080, Note_on_c, 0, 77, 56
2, 388176, Note_off_c, 0, 77, 64
2, 388320, Note_on_c, 0, 77, 60
2, 388512, Note_off_c, 0, 77, 64
2, 388800, Note_on_c, 0, 83, 80
2, 392256, Note_off_c, 0, 83, 64
2, 393600, Note_on_c, 0, 84, 80
2, 397536, Note_off_c, 0, 84, 64
2, 398880, Note_on_c, 0, 89, 80
2, 398880, Note_on_c, 0, 86, 80
2, 399072, Note_off_c, 0, 86, 64
2, 399072, Note_off_c, 0, 89, 64
2, 399840, Note_on_c, 0, 84, 80
2, 399840, Note_on_c, 0, 88, 80
2, 400032, Note_off_c, 0, 88, 64
2, 400032, Note_off_c, 0, 84, 64
2, 400800, Note_on_c, 0, 83, 80
2, 400800, Note_on_c, 0, 86, 80
2, 400992, Note_off_c, 0, 86, 64
2, 400992, Note_off_c, 0, 83, 64
2, 411360, Note_on_c, 0, 84, 40
2, 411456, Note_off_c, 0, 84, 64
2, 411600, Note_on_c, 0, 84, 40
2, 411696, Note_off_c, 0, 84, 64
2, 411840, Note_on_c, 0, 84, 40
2, 411936, Note_off_c, 0, 84, 64
2, 413280, Note_on_c, 0, 84, 40
2, 413376, Note_off_c, 0, 84, 64
2, 413520, Note_on_c, 0, 89, 40
2, 413616, Note_off_c, 0, 89, 64
2, 413760, Note_on_c, 0, 89, 40
2, 413856, Note_off_c, 0, 89, 64
2, 414000, Note_on_c, 0, 89, 40
2, 414096, Note_off_c, 0, 89, 64
2, 414240, Note_on_c, 0, 89, 25
2, 414240, Note_on_c, 0, 86, 25
2, 416160, Note_off_c, 0, 86, 64
2, 416160, Note_off_c, 0, 89, 64
2, 416160, Note_on_c, 0, 87, 25
2, 416160, Note_on_c, 0, 84, 25
2, 418080, Note_off_c, 0, 84, 64
2, 418080, Note_off_c, 0, 87, 64
2, 418080, Note_on_c, 0, 90, 25
2, 418080, Note_on_c, 0, 87, 25
2, 420000, Note_off_c, 0, 87, 64
2, 420000, Note_off_c, 0, 90, 64
2, 420000, Note_on_c, 0, 89, 25
2, 420000, Note_on_c, 0, 85, 25
2, 421920, Note_off_c, 0, 85, 64
2, 421920, Note_off_c, 0, 89, 64
2, 421920, Note_on_c, 0, 80, 25
2, 421920, Note_on_c, 0, 77, 25
2, 423840, Note_off_c, 0, 77, 64
2, 423840, Note_off_c, 0, 80, 64
2, 423840, Note_on_c, 0, 78, 25
2, 423840, Note_on_c, 0, 75, 25
2, 425760, Note_off_c, 0, 75, 64
2, 425760, Note_off_c, 0, 78, 64
2, 425760, Note_on_c, 0, 82, 25
2, 425760, Note_on_c, 0, 78, 25
2, 427680, Note_off_c, 0, 78, 64
2, 427680, Note_off_c, 0, 82, 64
2, 427680, Note_on_c, 0, 80, 25
2, 427680, Note_on_c, 0, 77, 25
2, 428640, Note_off_c, 0, 77, 64
2, 428640, Note_off_c, 0, 80, 64
2, 428640, Note_on_c, 0, 85, 25
2, 428640, Note_on_c, 0, 89, 25
2, 430560, Note_off_c, 0, 85, 64
2, 430560, Note_on_c, 0, 86, 39
2, 432480, Note_off_c, 0, 89, 64
2, 432480, Note_off_c, 0, 86, 64
2, 432480, Note_on_c, 0, 89, 80
2, 432480, Note_on_c, 0, 86, 80
2, 432576, Note_off_c, 0, 86, 64
2, 432576, Note_off_c, 0, 89, 64
2, 432720, Note_on_c, 0, 84, 80
2, 432720, Note_on_c, 0, 88, 80
2, 432840, Note_off_c, 0, 88, 64
2, 432840, Note_off_c, 0, 84, 64
2, 432840, Note_on_c, 0, 89, 80
2, 432840, Note_on_c, 0, 86, 80
2, 432960, Note_off_c, 0, 86, 64
2, 432960, Note_off_c, 0, 89, 64
2, 432960, Note_on_c, 0, 88, 80
2, 432960, Note_on_c, 0, 91, 80
2, 433056, Note_off_c, 0, 91, 64
2, 433056, Note_off_c, 0, 88, 64
2, 433200, Note_on_c, 0, 89, 80
2, 433200, Note_on_c, 0, 86, 80
2, 433296, Note_off_c, 0, 86, 64
2, 433296, Note_off_c, 0, 89, 64
2, 433440, Note_on_c, 0, 84, 80
2, 433440, Note_on_c, 0, 88, 80
2, 433824, Note_off_c, 0, 88, 64
2, 433824, Note_off_c, 0, 84, 64
2, 434400, Note_on_c, 0, 86, 80
2, 434400, Note_on_c, 0, 89, 80
2, 434496, Note_off_c, 0, 89, 64
2, 434496, Note_off_c, 0, 86, 64
2, 434640, Note_on_c, 0, 88, 80
2, 434640, Note_on_c, 0, 84, 80
2, 434760, Note_off_c, 0, 84, 64
2, 434760, Note_off_c, 0, 88, 64
2, 434760, Note_on_c, 0, 86, 80
2, 434760, Note_on_c, 0, 89, 80
2, 434880, Note_off_c, 0, 89, 64
2, 434880, Note_off_c, 0, 86, 64
2, 434880, Note_on_c, 0, 88, 80
2, 434880, Note_on_c, 0, 91, 80
2, 434976, Note_off_c, 0, 91, 64
2, 434976, Note_off_c, 0, 88, 64
2, 435120, Note_on_c, 0, 86, 80
2, 435120, Note_on_c, 0, 89, 80
2, 435216, Note_off_c, 0, 89, 64
2, 435216, Note_off_c, 0, 86, 64
2, 435360, Note_on_c, 0, 84, 80
2, 435360, Note_on_c, 0, 88, 80
2, 435744, Note_off_c, 0, 88, 64
2, 435744, Note_off_c, 0, 84, 64
2, 436320, Note_on_c, 0, 89, 80
2, 436320, Note_on_c, 0, 86, 80
2, 436416, Note_off_c, 0, 86, 64
2, 436416, Note_off_c, 0, 89, 64
2, 436560, Note_on_c, 0, 88, 80
2, 436560, Note_on_c, 0, 84, 80
2, 436680, Note_off_c, 0, 84, 64
2, 436680, Note_off_c, 0, 88, 64
2, 436680, Note_on_c, 0, 89, 80
2, 436680, Note_on_c, 0, 86, 80
2, 436800, Note_off_c, 0, 86, 64
2, 436800, Note_off_c, 0, 89, 64
2, 436800, Note_on_c, 0, 91, 80
2, 436800, Note_on_c, 0, 88, 80
2, 436896, Note_off_c, 0, 88, 64
2, 436896, Note_off_c, 0, 91, 64
2, 437040, Note_on_c, 0, 89, 80
2, 437040, Note_on_c, 0, 86, 80
2, 437136, Note_off_c, 0, 86, 64
2, 437136, Note_off_c, 0, 89, 64
2, 437280, Note_on_c, 0, 88, 60
2, 437280, Note_on_c, 0, 84, 60
2, 437376, Note_off_c, 0, 84, 64
2, 437376, Note_off_c, 0, 88, 64
2, 437520, Note_on_c, 0, 86, 60
2, 437640, Note_off_c, 0, 86, 64
2, 437640, Note_on_c, 0, 88, 60
2, 437760, Note_off_c, 0, 88, 64
2, 437760, Note_on_c, 0, 89, 60
2, 437856, Note_off_c, 0, 89, 64
2, 438000, Note_on_c, 0, 88, 60
2, 438096, Note_off_c, 0, 88, 64
2, 438240, Note_on_c, 0, 86, 60
2, 438336, Note_off_c, 0, 86, 64
2, 438480, Note_on_c, 0, 84, 60
2, 438600, Note_off_c, 0, 84, 64
2, 438600, Note_on_c, 0, 86, 60
2, 438720, Note_off_c, 0, 86, 64
2, 438720, Note_on_c, 0, 88, 60
2, 438816, Note_off_c, 0, 88, 64
2, 438960, Note_on_c, 0, 86, 60
2, 439056, Note_off_c, 0, 86, 64
2, 439200, Note_on_c, 0, 84, 60
2, 439296, Note_off_c, 0, 84, 64
2, 439440, Note_on_c, 0, 83, 60
2, 439560, Note_off_c, 0, 83, 64
2, 439560, Note_on_c, 0, 84, 60
2, 439680, Note_off_c, 0, 84, 64
2, 439680, Note_on_c, 0, 86, 60
2, 439776, Note_off_c, 0, 86, 64
2, 439920, Note_on_c, 0, 84, 60
2, 440016, Note_off_c, 0, 84, 64
2, 440160, Note_on_c, 0, 83, 60
2, 440256, Note_off_c, 0, 83, 64
2, 440400, Note_on_c, 0, 81, 60
2, 440520, Note_off_c, 0, 81, 64
2, 440520, Note_on_c, 0, 83, 60
2, 440640, Note_off_c, 0, 83, 64
2, 440640, Note_on_c, 0, 84, 60
2, 440736, Note_off_c, 0, 84, 64
2, 440880, Note_on_c, 0, 83, 60
2, 440976, Note_off_c, 0, 83, 64
2, 441120, Note_on_c, 0, 81, 60
2, 441216, Note_off_c, 0, 81, 64
2, 441360, Note_on_c, 0, 79, 60
2, 441480, Note_off_c, 0, 79, 64
2, 441480, Note_on_c, 0, 81, 60
2, 441600, Note_off_c, 0, 81, 64
2, 441600, Note_on_c, 0, 83, 60
2, 441696, Note_off_c, 0, 83, 64
2, 441840, Note_on_c, 0, 81, 60
2, 441936, Note_off_c, 0, 81, 64
2, 442080, Note_on_c, 0, 79, 60
2, 442176, Note_off_c, 0, 79, 64
2, 442320, Note_on_c, 0, 89, 60
2, 442440, Note_off_c, 0, 89, 64
2, 442440, Note_on_c, 0, 91, 60
2, 442560, Note_off_c, 0, 91, 64
2, 442560, Note_on_c, 0, 93, 60
2, 442656, Note_off_c, 0, 93, 64
2, 442800, Note_on_c, 0, 91, 60
2, 442896, Note_off_c, 0, 91, 64
2, 443040, Note_on_c, 0, 77, 64
2, 443040, Note_on_c, 0, 89, 64
2, 443136, Note_off_c, 0, 89, 64
2, 443136, Note_off_c, 0, 77, 64
2, 443280, Note_on_c, 0, 91, 64
2, 443280, Note_on_c, 0, 86, 64
2, 443376, Note_off_c, 0, 86, 64
2, 443376, Note_off_c, 0, 91, 64
2, 443520, Note_on_c, 0, 84, 64
2, 443520, Note_on_c, 0, 88, 64
2, 443616, Note_off_c, 0, 88, 64
2, 443616, Note_off_c, 0, 84, 64
2, 443760, Note_on_c, 0, 76, 64
2, 443760, Note_on_c, 0, 84, 64
2, 443856, Note_off_c, 0, 84, 64
2, 443856, Note_off_c, 0, 76, 64
2, 444000, Note_on_c, 0, 76, 64
2, 444000, Note_on_c, 0, 84, 64
2, 444096, Note_off_c, 0, 84, 64
2, 444096, Note_off_c, 0, 76, 64
2, 444240, Note_on_c, 0, 83, 64
2, 444240, Note_on_c, 0, 74, 64
2, 444336, Note_off_c, 0, 74, 64
2, 444336, Note_off_c, 0, 83, 64
2, 444480, Note_on_c, 0, 84, 64
2, 444480, Note_on_c, 0, 76, 64
2, 444576, Note_off_c, 0, 76, 64
2, 444576, Note_off_c, 0, 84, 64
2, 444720, Note_on_c, 0, 76, 64
2, 444720, Note_on_c, 0, 84, 64
2, 444816, Note_off_c, 0, 84, 64
2, 444816, Note_off_c, 0, 76, 64
2, 444960, Note_on_c, 0, 86, 100
2, 445056, Note_off_c, 0, 86, 64
2, 445200, Note_on_c, 0, 84, 60
2, 445272, Note_off_c, 0, 84, 64
2, 445380, Note_on_c, 0, 88, 60
2, 445440, Note_off_c, 0, 88, 64
2, 445440, Note_on_c, 0, 86, 100
2, 445536, Note_off_c, 0, 86, 64
2, 445680, Note_on_c, 0, 84, 60
2, 445752, Note_off_c, 0, 84, 64
2, 445860, Note_on_c, 0, 88, 60
2, 445920, Note_off_c, 0, 88, 64
2, 445920, Note_on_c, 0, 86, 100
2, 446016, Note_off_c, 0, 86, 64
2, 446160, Note_on_c, 0, 84, 60
2, 446232, Note_off_c, 0, 84, 64
2, 446640, Note_on_c, 0, 86, 60
2, 446712, Note_off_c, 0, 86, 64
2, 446820, Note_on_c, 0, 89, 60
2, 446880, Note_off_c, 0, 89, 64
2, 446880, Note_on_c, 0, 88, 100
2, 446976, Note_off_c, 0, 88, 64
2, 447120, Note_on_c, 0, 86, 60
2, 447192, Note_off_c, 0, 86, 64
2, 447300, Note_on_c, 0, 89, 60
2, 447360, Note_off_c, 0, 89, 64
2, 447360, Note_on_c, 0, 88, 100
2, 447456, Note_off_c, 0, 88, 64
2, 447600, Note_on_c, 0, 86, 60
2, 447672, Note_off_c, 0, 86, 64
2, 447780, Note_on_c, 0, 89, 60
2, 447840, Note_off_c, 0, 89, 64
2, 447840, Note_on_c, 0, 88, 100
2, 447936, Note_off_c, 0, 88, 64
2, 448080, Note_on_c, 0, 86, 60
2, 448152, Note_off_c, 0, 86, 64
2, 448560, Note_on_c, 0, 88, 60
2, 448632, Note_off_c, 0, 88, 64
2, 448740, Note_on_c, 0, 91, 60
2, 448800, Note_off_c, 0, 91, 64
2, 448800, Note_on_c, 0, 89, 100
2, 448896, Note_off_c, 0, 89, 64
2, 449040, Note_on_c, 0, 88, 60
2, 449112, Note_off_c, 0, 88, 64
2, 449220, Note_on_c, 0, 91, 60
2, 449280, Note_off_c, 0, 91, 64
2, 449280, Note_on_c, 0, 89, 100
2, 449376, Note_off_c, 0, 89, 64
2, 449520, Note_on_c, 0, 88, 60
2, 449592, Note_off_c, 0, 88, 64
2, 449700, Note_on_c, 0, 91, 60
2, 449760, Note_off_c, 0, 91, 64
2, 449760, Note_on_c, 0, 89, 100
2, 449856, Note_off_c, 0, 89, 64
2, 450000, Note_on_c, 0, 88, 60
2, 450072, Note_off_c, 0, 88, 64
2, 450180, Note_on_c, 0, 91, 60
2, 450240, Note_off_c, 0, 91, 64
2, 450240, Note_on_c, 0, 89, 100
2, 450336, Note_off_c, 0, 89, 64
2, 450480, Note_on_c, 0, 90, 60
2, 450552, Note_off_c, 0, 90, 64
2, 450720, Note_on_c, 0, 84, 71
2, 450720, Note_on_c, 0, 88, 71
2, 450912, Note_off_c, 0, 88, 64
2, 450912, Note_off_c, 0, 84, 64
2, 451200, Note_on_c, 0, 89, 91
2, 451200, Note_on_c, 0, 83, 71
2, 451392, Note_off_c, 0, 83, 64
2, 451392, Note_off_c, 0, 89, 64
2, 451680, Note_on_c, 0, 84, 71
2, 451680, Note_on_c, 0, 86, 71
2, 451872, Note_off_c, 0, 86, 64
2, 451872, Note_off_c, 0, 84, 64
2, 452160, Note_on_c, 0, 91, 91
2, 452160, Note_on_c, 0, 83, 71
2, 452352, Note_off_c, 0, 83, 64
2, 452352, Note_off_c, 0, 91, 64
2, 464160, Note_on_c, 0, 83, 40
2, 464352, Note_off_c, 0, 83, 64
2, 464640, Note_on_c, 0, 86, 43
2, 464832, Note_off_c, 0, 86, 64
2, 465120, Note_on_c, 0, 88, 46
2, 465312, Note_off_c, 0, 88, 64
2, 465600, Note_on_c, 0, 84, 49
2, 465792, Note_off_c, 0, 84, 64
2, 466080, Note_on_c, 0, 83, 52
2, 466272, Note_off_c, 0, 83, 64
2, 466560, Note_on_c, 0, 86, 55
2, 466752, Note_off_c, 0, 86, 64
2, 467040, Note_on_c, 0, 88, 59
2, 467232, Note_off_c, 0, 88, 64
2, 467520, Note_on_c, 0, 84, 62
2, 467712, Note_off_c, 0, 84, 64
2, 468000, Note_on_c, 0, 86, 65
2, 468000, Note_on_c, 0, 83, 65
2, 468192, Note_off_c, 0, 83, 64
2, 468192, Note_off_c, 0, 86, 64
2, 468480, Note_on_c, 0, 89, 68
2, 468480, Note_on_c, 0, 86, 68
2, 468672, Note_off_c, 0, 86, 64
2, 468672, Note_off_c, 0, 89, 64
2, 468960, Note_on_c, 0, 91, 71
2, 468960, Note_on_c, 0, 88, 71
2, 469152, Note_off_c, 0, 88, 64
2, 469152, Note_off_c, 0, 91, 64
2, 469440, Note_on_c, 0, 88, 74
2, 469440, Note_on_c, 0, 84, 74
2, 469632, Note_off_c, 0, 84, 64
2, 469632, Note_off_c, 0, 88, 64
2, 469920, Note_on_c, 0, 86, 77
2, 469920, Note_on_c, 0, 83, 77
2, 470112, Note_off_c, 0, 83, 64
2, 470112, Note_off_c, 0, 86, 64
2, 470400, Note_on_c, 0, 86, 81
2, 470400, Note_on_c, 0, 89, 81
2, 470592, Note_off_c, 0, 89, 64
2, 470592, Note_off_c, 0, 86, 64
2, 470880, Note_on_c, 0, 91, 84
2, 470880, Note_on_c, 0, 88, 84
2, 471072, Note_off_c, 0, 88, 64
2, 471072, Note_off_c, 0, 91, 64
2, 471360, Note_on_c, 0, 89, 87
2, 471360, Note_on_c, 0, 93, 44
2, 472740, Note_off_c, 0, 93, 64
2, 472740, Note_off_c, 0, 89, 64
2, 472800, Note_on_c, 0, 77, 76
2, 472800, Note_on_c, 0, 89, 76
2, 473040, Note_off_c, 0, 89, 64
2, 473040, Note_off_c, 0, 77, 64
2, 473040, Note_on_c, 0, 91, 76
2, 473040, Note_on_c, 0, 79, 76
2, 473160, Note_off_c, 0, 79, 64
2, 473160, Note_off_c, 0, 91, 64
2, 473160, Note_on_c, 0, 93, 76
2, 473160, Note_on_c, 0, 81, 76
2, 473280, Note_off_c, 0, 81, 64
2, 473280, Note_off_c, 0, 93, 64
2, 473280, Note_on_c, 0, 74, 76
2, 473280, Note_on_c, 0, 86, 76
2, 473376, Note_off_c, 0, 86, 64
2, 473376, Note_off_c, 0, 74, 64
2, 473520, Note_on_c, 0, 74, 76
2, 473520, Note_on_c, 0, 86, 76
2, 473616, Note_off_c, 0, 86, 64
2, 473616, Note_off_c, 0, 74, 64
2, 473760, Note_on_c, 0, 88, 76
2, 473760, Note_on_c, 0, 76, 76
2, 474000, Note_off_c, 0, 76, 64
2, 474000, Note_off_c, 0, 88, 64
2, 474000, Note_on_c, 0, 77, 76
2, 474000, Note_on_c, 0, 89, 76
2, 474120, Note_off_c, 0, 89, 64
2, 474120, Note_off_c, 0, 77, 64
2, 474120, Note_on_c, 0, 91, 76
2, 474120, Note_on_c, 0, 79, 76
2, 474240, Note_off_c, 0, 79, 64
2, 474240, Note_off_c, 0, 91, 64
2, 474240, Note_on_c, 0, 76, 76
2, 474240, Note_on_c, 0, 88, 76
2, 474336, Note_off_c, 0, 88, 64
2, 474336, Note_off_c, 0, 76, 64
2, 474480, Note_on_c, 0, 76, 76
2, 474480, Note_on_c, 0, 64, 76
2, 474600, Note_off_c, 0, 64, 64
2, 474600, Note_off_c, 0, 76, 64
2, 474600, Note_on_c, 0, 65, 76
2, 474600, Note_on_c, 0, 77, 76
2, 474720, Note_off_c, 0, 77, 64
2, 474720, Note_off_c, 0, 65, 64
2, 474720, Note_on_c, 0, 79, 76
2, 474720, Note_on_c, 0, 67, 76
2, 474816, Note_off_c, 0, 67, 64
2, 474816, Note_off_c, 0, 79, 64
2, 474960, Note_on_c, 0, 67, 76
2, 474960, Note_on_c, 0, 79, 76
2, 475080, Note_off_c, 0, 79, 64
2, 475080, Note_off_c, 0, 67, 64
2, 475080, Note_on_c, 0, 81, 76
2, 475080, Note_on_c, 0, 69, 76
2, 475200, Note_off_c, 0, 69, 64
2, 475200, Note_off_c, 0, 81, 64
2, 475200, Note_on_c, 0, 70, 76
2, 475200, Note_on_c, 0, 83, 76
2, 475296, Note_off_c, 0, 83, 64
2, 475296, Note_off_c, 0, 70, 64
2, 475440, Note_on_c, 0, 89, 76
2, 475440, Note_on_c, 0, 77, 76
2, 475560, Note_off_c, 0, 77, 64
2, 475560, Note_off_c, 0, 89, 64
2, 475560, Note_on_c, 0, 79, 76
2, 475560, Note_on_c, 0, 91, 76
2, 475680, Note_off_c, 0, 91, 64
2, 475680, Note_off_c, 0, 79, 64
2, 475680, Note_on_c, 0, 93, 76
2, 475680, Note_on_c, 0, 81, 76
2, 476448, Note_off_c, 0, 81, 64
2, 476448, Note_off_c, 0, 93, 64
2, 476640, Note_on_c, 0, 89, 76
2, 476640, Note_on_c, 0, 77, 76
2, 476736, Note_off_c, 0, 77, 64
2, 476736, Note_off_c, 0, 89, 64
2, 476760, Note_on_c, 0, 79, 76
2, 476760, Note_on_c, 0, 91, 76
2, 476856, Note_off_c, 0, 91, 64
2, 476856, Note_off_c, 0, 79, 64
2, 476880, Note_on_c, 0, 93, 76
2, 476880, Note_on_c, 0, 81, 76
2, 476976, Note_off_c, 0, 81, 64
2, 476976, Note_off_c, 0, 93, 64
2, 477000, Note_on_c, 0, 77, 76
2, 477000, Note_on_c, 0, 89, 76
2, 477096, Note_off_c, 0, 89, 64
2, 477096, Note_off_c, 0, 77, 64
2, 477120, Note_on_c, 0, 74, 76
2, 477120, Note_on_c, 0, 86, 76
2, 477216, Note_off_c, 0, 86, 64
2, 477216, Note_off_c, 0, 74, 64
2, 477360, Note_on_c, 0, 74, 76
2, 477360, Note_on_c, 0, 86, 76
2, 477456, Note_off_c, 0, 86, 64
2, 477456, Note_off_c, 0, 74, 64
2, 477600, Note_on_c, 0, 91, 48
2, 477600, Note_on_c, 0, 79, 48
2, 477696, Note_off_c, 0, 79, 64
2, 477696, Note_off_c, 0, 91, 64
2, 477840, Note_on_c, 0, 88, 48
2, 477840, Note_on_c, 0, 76, 48
2, 477936, Note_off_c, 0, 76, 64
2, 477936, Note_off_c, 0, 88, 64
2, 478080, Note_on_c, 0, 88, 48
2, 478080, Note_on_c, 0, 76, 48
2, 478176, Note_off_c, 0, 76, 64
2, 478176, Note_off_c, 0, 88, 64
2, 478320, Note_on_c, 0, 77, 48
2, 478320, Note_on_c, 0, 89, 48
2, 478440, Note_off_c, 0, 89, 64
2, 478440, Note_off_c, 0, 77, 64
2, 478440, Note_on_c, 0, 79, 48
2, 478440, Note_on_c, 0, 91, 48
2, 478560, Note_off_c, 0, 91, 64
2, 478560, Note_off_c, 0, 79, 64
2, 478560, Note_on_c, 0, 81, 48
2, 478560, Note_on_c, 0, 93, 48
2, 478656, Note_off_c, 0, 93, 64
2, 478656, Note_off_c, 0, 81, 64
2, 478800, Note_on_c, 0, 77, 48
2, 478800, Note_on_c, 0, 89, 48
2, 478896, Note_off_c, 0, 89, 64
2, 478896, Note_off_c, 0, 77, 64
2, 479040, Note_on_c, 0, 86, 48
2, 479040, Note_on_c, 0, 74, 48
2, 479136, Note_off_c, 0, 74, 64
2, 479136, Note_off_c, 0, 86, 64
2, 479280, Note_on_c, 0, 84, 48
2, 479280, Note_on_c, 0, 72, 48
2, 479376, Note_off_c, 0, 72, 64
2, 479376, Note_off_c, 0, 84, 64
2, 479520, Note_on_c, 0, 71, 80
2, 479520, Note_on_c, 0, 83, 80
2, 479904, Note_off_c, 0, 83, 64
2, 479904, Note_off_c, 0, 71, 64
2, 480480, Note_on_c, 0, 91, 80
2, 481248, Note_off_c, 0, 91, 64
2, 481440, Note_on_c, 0, 88, 62
2, 481680, Note_off_c, 0, 88, 64
2, 481680, Note_on_c, 0, 89, 62
2, 481800, Note_off_c, 0, 89, 64
2, 481800, Note_on_c, 0, 91, 62
2, 481920, Note_off_c, 0, 91, 64
2, 481920, Note_on_c, 0, 93, 82
2, 482016, Note_off_c, 0, 93, 64
2, 482160, Note_on_c, 0, 93, 62
2, 482256, Note_off_c, 0, 93, 64
2, 482400, Note_on_c, 0, 86, 62
2, 482640, Note_off_c, 0, 86, 64
2, 482640, Note_on_c, 0, 88, 62
2, 482760, Note_off_c, 0, 88, 64
2, 482760, Note_on_c, 0, 89, 62
2, 482880, Note_off_c, 0, 89, 64
2, 482880, Note_on_c, 0, 91, 82
2, 482976, Note_off_c, 0, 91, 64
2, 483120, Note_on_c, 0, 79, 62
2, 483216, Note_off_c, 0, 79, 64
2, 483360, Note_on_c, 0, 84, 62
2, 483600, Note_off_c, 0, 84, 64
2, 483600, Note_on_c, 0, 86, 62
2, 483720, Note_off_c, 0, 86, 64
2, 483720, Note_on_c, 0, 88, 62
2, 483840, Note_off_c, 0, 88, 64
2, 483840, Note_on_c, 0, 89, 82
2, 483936, Note_off_c, 0, 89, 64
2, 484080, Note_on_c, 0, 89, 62
2, 484176, Note_off_c, 0, 89, 64
2, 484320, Note_on_c, 0, 83, 62
2, 484560, Note_off_c, 0, 83, 64
2, 484560, Note_on_c, 0, 84, 62
2, 484680, Note_off_c, 0, 84, 64
2, 484680, Note_on_c, 0, 86, 62
2, 484800, Note_off_c, 0, 86, 64
2, 484800, Note_on_c, 0, 88, 82
2, 484896, Note_off_c, 0, 88, 64
2, 485040, Note_on_c, 0, 76, 62
2, 485136, Note_off_c, 0, 76, 64
2, 485280, Note_on_c, 0, 81, 62
2, 485520, Note_off_c, 0, 81, 64
2, 485520, Note_on_c, 0, 83, 62
2, 485640, Note_off_c, 0, 83, 64
2, 485640, Note_on_c, 0, 84, 62
2, 485760, Note_off_c, 0, 84, 64
2, 485760, Note_on_c, 0, 86, 82
2, 485856, Note_off_c, 0, 86, 64
2, 486000, Note_on_c, 0, 86, 62
2, 486096, Note_off_c, 0, 86, 64
2, 486240, Note_on_c, 0, 79, 62
2, 486480, Note_off_c, 0, 79, 64
2, 486480, Note_on_c, 0, 81, 62
2, 486600, Note_off_c, 0, 81, 64
2, 486600, Note_on_c, 0, 83, 62
2, 486720, Note_off_c, 0, 83, 64
2, 486720, Note_on_c, 0, 84, 62
2, 486960, Note_off_c, 0, 84, 64
2, 486960, Note_on_c, 0, 86, 62
2, 487080, Note_off_c, 0, 86, 64
2, 487080, Note_on_c, 0, 88, 62
2, 487200, Note_off_c, 0, 88, 64
2, 487200, Note_on_c, 0, 89, 62
2, 487200, Note_on_c, 0, 86, 62
2, 487296, Note_off_c, 0, 86, 64
2, 487296, Note_off_c, 0, 89, 64
2, 487440, Note_on_c, 0, 84, 62
2, 487440, Note_on_c, 0, 88, 62
2, 487536, Note_off_c, 0, 88, 64
2, 487536, Note_off_c, 0, 84, 64
2, 487560, Note_on_c, 0, 86, 62
2, 487560, Note_on_c, 0, 89, 62
2, 487656, Note_off_c, 0, 89, 64
2, 487656, Note_off_c, 0, 86, 64
2, 487680, Note_on_c, 0, 88, 62
2, 487680, Note_on_c, 0, 91, 82
2, 487776, Note_off_c, 0, 91, 64
2, 487776, Note_off_c, 0, 88, 64
2, 487920, Note_on_c, 0, 89, 62
2, 487920, Note_on_c, 0, 86, 62
2, 488016, Note_off_c, 0, 86, 64
2, 488016, Note_off_c, 0, 89, 64
2, 488160, Note_on_c, 0, 84, 62
2, 488160, Note_on_c, 0, 88, 62
2, 488256, Note_off_c, 0, 88, 64
2, 488256, Note_off_c, 0, 84, 64
2, 489120, Note_on_c, 0, 89, 62
2, 489120, Note_on_c, 0, 86, 62
2, 489216, Note_off_c, 0, 86, 64
2, 489216, Note_off_c, 0, 89, 64
2, 489360, Note_on_c, 0, 84, 62
2, 489360, Note_on_c, 0, 88, 62
2, 489456, Note_off_c, 0, 88, 64
2, 489456, Note_off_c, 0, 84, 64
2, 489480, Note_on_c, 0, 86, 62
2, 489480, Note_on_c, 0, 89, 62
2, 489576, Note_off_c, 0, 89, 64
2, 489576, Note_off_c, 0, 86, 64
2, 489600, Note_on_c, 0, 91, 82
2, 489600, Note_on_c, 0, 88, 62
2, 489696, Note_off_c, 0, 88, 64
2, 489696, Note_off_c, 0, 91, 64
2, 489840, Note_on_c, 0, 89, 62
2, 489840, Note_on_c, 0, 86, 62
2, 489936, Note_off_c, 0, 86, 64
2, 489936, Note_off_c, 0, 89, 64
2, 490080, Note_on_c, 0, 84, 62
2, 490080, Note_on_c, 0, 88, 62
2, 490176, Note_off_c, 0, 88, 64
2, 490176, Note_off_c, 0, 84, 64
2, 491040, Note_on_c, 0, 89, 62
2, 491040, Note_on_c, 0, 86, 62
2, 491136, Note_off_c, 0, 86, 64
2, 491136, Note_off_c, 0, 89, 64
2, 491280, Note_on_c, 0, 88, 62
2, 491280, Note_on_c, 0, 84, 62
2, 491376, Note_off_c, 0, 84, 64
2, 491376, Note_off_c, 0, 88, 64
2, 491400, Note_on_c, 0, 89, 62
2, 491400, Note_on_c, 0, 86, 62
2, 491496, Note_off_c, 0, 86, 64
2, 491496, Note_off_c, 0, 89, 64
2, 491520, Note_on_c, 0, 88, 62
2, 491520, Note_on_c, 0, 91, 82
2, 491616, Note_off_c, 0, 91, 64
2, 491616, Note_off_c, 0, 88, 64
2, 491760, Note_on_c, 0, 89, 62
2, 491760, Note_on_c, 0, 86, 62
2, 491856, Note_off_c, 0, 86, 64
2, 491856, Note_off_c, 0, 89, 64
2, 492000, Note_on_c, 0, 84, 62
2, 492000, Note_on_c, 0, 88, 62
2, 492096, Note_off_c, 0, 88, 64
2, 492096, Note_off_c, 0, 84, 64
2, 492240, Note_on_c, 0, 83, 62
2, 492240, Note_on_c, 0, 86, 62
2, 492336, Note_off_c, 0, 86, 64
2, 492336, Note_off_c, 0, 83, 64
2, 492360, Note_on_c, 0, 84, 62
2, 492360, Note_on_c, 0, 88, 62
2, 492456, Note_off_c, 0, 88, 64
2, 492456, Note_off_c, 0, 84, 64
2, 492480, Note_on_c, 0, 86, 62
2, 492480, Note_on_c, 0, 89, 82
2, 492576, Note_off_c, 0, 89, 64
2, 492576, Note_off_c, 0, 86, 64
2, 492720, Note_on_c, 0, 88, 62
2, 492720, Note_on_c, 0, 84, 62
2, 492816, Note_off_c, 0, 84, 64
2, 492816, Note_off_c, 0, 88, 64
2, 492960, Note_on_c, 0, 86, 62
2, 492960, Note_on_c, 0, 89, 62
2, 493056, Note_off_c, 0, 89, 64
2, 493056, Note_off_c, 0, 86, 64
2, 493200, Note_on_c, 0, 88, 62
2, 493200, Note_on_c, 0, 84, 62
2, 493296, Note_off_c, 0, 84, 64
2, 493296, Note_off_c, 0, 88, 64
2, 493320, Note_on_c, 0, 89, 62
2, 493320, Note_on_c, 0, 86, 62
2, 493416, Note_off_c, 0, 86, 64
2, 493416, Note_off_c, 0, 89, 64
2, 493440, Note_on_c, 0, 91, 82
2, 493440, Note_on_c, 0, 88, 62
2, 493536, Note_off_c, 0, 88, 64
2, 493536, Note_off_c, 0, 91, 64
2, 493680, Note_on_c, 0, 86, 62
2, 493680, Note_on_c, 0, 89, 62
2, 493776, Note_off_c, 0, 89, 64
2, 493776, Note_off_c, 0, 86, 64
2, 493920, Note_on_c, 0, 84, 69
2, 493920, Note_on_c, 0, 88, 69
2, 494016, Note_off_c, 0, 88, 64
2, 494016, Note_off_c, 0, 84, 64
2, 494160, Note_on_c, 0, 88, 69
2, 494160, Note_on_c, 0, 91, 69
2, 494256, Note_off_c, 0, 91, 64
2, 494256, Note_off_c, 0, 88, 64
2, 494400, Note_on_c, 0, 91, 69
2, 494400, Note_on_c, 0, 88, 69
2, 494496, Note_off_c, 0, 88, 64
2, 494496, Note_off_c, 0, 91, 64
2, 494640, Note_on_c, 0, 89, 69
2, 494640, Note_on_c, 0, 86, 69
2, 494736, Note_off_c, 0, 86, 64
2, 494736, Note_off_c, 0, 89, 64
2, 494880, Note_on_c, 0, 84, 69
2, 494880, Note_on_c, 0, 88, 69
2, 494976, Note_off_c, 0, 88, 64
2, 494976, Note_off_c, 0, 84, 64
2, 495120, Note_on_c, 0, 91, 69
2, 495120, Note_on_c, 0, 88, 69
2, 495216, Note_off_c, 0, 88, 64
2, 495216, Note_off_c, 0, 91, 64
2, 495360, Note_on_c, 0, 91, 69
2, 495360, Note_on_c, 0, 88, 69
2, 495456, Note_off_c, 0, 88, 64
2, 495456, Note_off_c, 0, 91, 64
2, 495600, Note_on_c, 0, 89, 69
2, 495600, Note_on_c, 0, 86, 69
2, 495696, Note_off_c, 0, 86, 64
2, 495696, Note_off_c, 0, 89, 64
2, 495840, Note_on_c, 0, 88, 69
2, 495840, Note_on_c, 0, 84, 69
2, 495936, Note_off_c, 0, 84, 64
2, 495936, Note_off_c, 0, 88, 64
2, 496080, Note_on_c, 0, 91, 69
2, 496080, Note_on_c, 0, 88, 69
2, 496176, Note_off_c, 0, 88, 64
2, 496176, Note_off_c, 0, 91, 64
2, 496320, Note_on_c, 0, 91, 69
2, 496320, Note_on_c, 0, 88, 69
2, 496416, Note_off_c, 0, 88, 64
2, 496416, Note_off_c, 0, 91, 64
2, 496560, Note_on_c, 0, 86, 69
2, 496560, Note_on_c, 0, 89, 69
2, 496656, Note_off_c, 0, 89, 64
2, 496656, Note_off_c, 0, 86, 64
2, 496800, Note_on_c, 0, 84, 69
2, 496800, Note_on_c, 0, 88, 69
2, 496896, Note_off_c, 0, 88, 64
2, 496896, Note_off_c, 0, 84, 64
2, 497040, Note_on_c, 0, 91, 69
2, 497040, Note_on_c, 0, 88, 69
2, 497136, Note_off_c, 0, 88, 64
2, 497136, Note_off_c, 0, 91, 64
2, 497280, Note_on_c, 0, 91, 69
2, 497280, Note_on_c, 0, 88, 69
2, 497376, Note_off_c, 0, 88, 64
2, 497376, Note_off_c, 0, 91, 64
2, 497520, Note_on_c, 0, 89, 69
2, 497520, Note_on_c, 0, 86, 69
2, 497616, Note_off_c, 0, 86, 64
2, 497616, Note_off_c, 0, 89, 64
2, 497760, Note_on_c, 0, 84, 69
2, 497760, Note_on_c, 0, 88, 69
2, 497856, Note_off_c, 0, 88, 64
2, 497856, Note_off_c, 0, 84, 64
2, 498000, Note_on_c, 0, 88, 69
2, 498000, Note_on_c, 0, 91, 69
2, 498096, Note_off_c, 0, 91, 64
2, 498096, Note_off_c, 0, 88, 64
2, 498240, Note_on_c, 0, 88, 69
2, 498240, Note_on_c, 0, 91, 69
2, 498336, Note_off_c, 0, 91, 64
2, 498336, Note_off_c, 0, 88, 64
2, 498480, Note_on_c, 0, 86, 69
2, 498480, Note_on_c, 0, 89, 69
2, 498576, Note_off_c, 0, 89, 64
2, 498576, Note_off_c, 0, 86, 64
2, 498720, Note_on_c, 0, 88, 80
2, 498720, Note_on_c, 0, 84, 80
2, 498840, Note_off_c, 0, 84, 64
2, 498840, Note_off_c, 0, 88, 64
2, 498840, Note_on_c, 0, 72, 99
2, 498960, Note_off_c, 0, 72, 64
2, 498960, Note_on_c, 0, 74, 99
2, 499080, Note_off_c, 0, 74, 64
2, 499080, Note_on_c, 0, 76, 99
2, 499200, Note_off_c, 0, 76, 64
2, 499200, Note_on_c, 0, 77, 99
2, 499320, Note_off_c, 0, 77, 64
2, 499320, Note_on_c, 0, 79, 99
2, 499440, Note_off_c, 0, 79, 64
2, 499440, Note_on_c, 0, 81, 99
2, 499560, Note_off_c, 0, 81, 64
2, 499560, Note_on_c, 0, 83, 99
2, 499680, Note_off_c, 0, 83, 64
2, 499680, Note_on_c, 0, 84, 99
2, 500736, Note_off_c, 0, 84, 64
2, 500760, Note_on_c, 0, 76, 99
2, 500880, Note_off_c, 0, 76, 64
2, 500880, Note_on_c, 0, 77, 99
2, 501000, Note_off_c, 0, 77, 64
2, 501000, Note_on_c, 0, 79, 99
2, 501120, Note_off_c, 0, 79, 64
2, 501120, Note_on_c, 0, 81, 99
2, 501240, Note_off_c, 0, 81, 64
2, 501240, Note_on_c, 0, 83, 99
2, 501360, Note_off_c, 0, 83, 64
2, 501360, Note_on_c, 0, 84, 99
2, 501480, Note_off_c, 0, 84, 64
2, 501480, Note_on_c, 0, 86, 99
2, 501600, Note_off_c, 0, 86, 64
2, 501600, Note_on_c, 0, 88, 99
2, 501720, Note_off_c, 0, 88, 64
2, 501720, Note_on_c, 0, 79, 99
2, 501840, Note_off_c, 0, 79, 64
2, 501840, Note_on_c, 0, 81, 99
2, 501960, Note_off_c, 0, 81, 64
2, 501960, Note_on_c, 0, 83, 99
2, 502080, Note_off_c, 0, 83, 64
2, 502080, Note_on_c, 0, 84, 99
2, 502200, Note_off_c, 0, 84, 64
2, 502200, Note_on_c, 0, 86, 99
2, 502320, Note_off_c, 0, 86, 64
2, 502320, Note_on_c, 0, 88, 99
2, 502440, Note_off_c, 0, 88, 64
2, 502440, Note_on_c, 0, 89, 99
2, 502560, Note_off_c, 0, 89, 64
2, 502560, Note_on_c, 0, 91, 99
2, 502656, Note_off_c, 0, 91, 64
2, 502800, Note_on_c, 0, 88, 74
2, 502896, Note_off_c, 0, 88, 64
2, 503040, Note_on_c, 0, 91, 74
2, 503136, Note_off_c, 0, 91, 64
2, 503280, Note_on_c, 0, 83, 74
2, 503376, Note_off_c, 0, 83, 64
2, 503520, Note_on_c, 0, 84, 74
2, 503616, Note_off_c, 0, 84, 64
2, 503760, Note_on_c, 0, 88, 74
2, 503856, Note_off_c, 0, 88, 64
2, 504000, Note_on_c, 0, 78, 114
2, 504096, Note_off_c, 0, 78, 64
2, 504240, Note_on_c, 0, 79, 74
2, 504336, Note_off_c, 0, 79, 64
2, 504480, Note_on_c, 0, 84, 114
2, 504576, Note_off_c, 0, 84, 64
2, 504720, Note_on_c, 0, 75, 74
2, 504816, Note_off_c, 0, 75, 64
2, 504960, Note_on_c, 0, 76, 114
2, 505056, Note_off_c, 0, 76, 64
2, 505200, Note_on_c, 0, 79, 74
2, 505296, Note_off_c, 0, 79, 64
2, 505440, Note_on_c, 0, 72, 114
2, 505536, Note_off_c, 0, 72, 64
2, 505680, Note_on_c, 0, 76, 74
2, 505776, Note_off_c, 0, 76, 64
2, 505920, Note_on_c, 0, 71, 114
2, 506016, Note_off_c, 0, 71, 64
2, 506160, Note_on_c, 0, 72, 74
2, 506256, Note_off_c, 0, 72, 64
2, 506400, Note_on_c, 0, 84, 80
2, 508282, Note_off_c, 0, 84, 64
2, 508320, Note_on_c, 0, 88, 71
2, 508320, Note_on_c, 0, 84, 31
2, 508416, Note_off_c, 0, 84, 64
2, 508416, Note_off_c, 0, 88, 64
2, 508560, Note_on_c, 0, 86, 31
2, 508560, Note_on_c, 0, 83, 31
2, 508656, Note_off_c, 0, 83, 64
2, 508656, Note_off_c, 0, 86, 64
2, 508680, Note_on_c, 0, 84, 31
2, 508680, Note_on_c, 0, 88, 31
2, 508776, Note_off_c, 0, 88, 64
2, 508776, Note_off_c, 0, 84, 64
2, 508800, Note_on_c, 0, 89, 51
2, 508800, Note_on_c, 0, 86, 31
2, 508896, Note_off_c, 0, 86, 64
2, 508896, Note_off_c, 0, 89, 64
2, 509040, Note_on_c, 0, 88, 31
2, 509040, Note_on_c, 0, 84, 31
2, 509136, Note_off_c, 0, 84, 64
2, 509136, Note_off_c, 0, 88, 64
2, 509280, Note_on_c, 0, 84, 31
2, 509280, Note_on_c, 0, 88, 31
2, 509376, Note_off_c, 0, 88, 64
2, 509376, Note_off_c, 0, 84, 64
2, 509520, Note_on_c, 0, 83, 31
2, 509520, Note_on_c, 0, 86, 31
2, 509616, Note_off_c, 0, 86, 64
2, 509616, Note_off_c, 0, 83, 64
2, 509640, Note_on_c, 0, 84, 31
2, 509640, Note_on_c, 0, 88, 31
2, 509736, Note_off_c, 0, 88, 64
2, 509736, Note_off_c, 0, 84, 64
2, 509760, Note_on_c, 0, 86, 31
2, 509760, Note_on_c, 0, 89, 51
2, 509856, Note_off_c, 0, 89, 64
2, 509856, Note_off_c, 0, 86, 64
2, 510000, Note_on_c, 0, 88, 31
2, 510000, Note_on_c, 0, 84, 31
2, 510096, Note_off_c, 0, 84, 64
2, 510096, Note_off_c, 0, 88, 64
2, 510230, Control_c, 0, 7, 92
2, 510240, Note_on_c, 0, 84, 80
2, 510430, Control_c, 0, 7, 91
2, 510630, Control_c, 0, 7, 90
2, 510810, Control_c, 0, 7, 89
2, 511010, Control_c, 0, 7, 88
2, 511190, Control_c, 0, 7, 87
2, 511390, Control_c, 0, 7, 86
2, 511590, Control_c, 0, 7, 85
2, 511770, Control_c, 0, 7, 84
2, 511970, Control_c, 0, 7, 83
2, 512150, Control_c, 0, 7, 82
2, 512160, Note_off_c, 0, 84, 64
2, 512160, Note_on_c, 0, 82, 80
2, 512350, Control_c, 0, 7, 81
2, 512550, Control_c, 0, 7, 80
2, 512730, Control_c, 0, 7, 79
2, 512930, Control_c, 0, 7, 78
2, 513110, Control_c, 0, 7, 77
2, 513310, Control_c, 0, 7, 76
2, 513510, Control_c, 0, 7, 75
2, 513690, Control_c, 0, 7, 74
2, 513890, Control_c, 0, 7, 73
2, 514070, Control_c, 0, 7, 72
2, 514270, Control_c, 0, 7, 71
2, 514470, Control_c, 0, 7, 70
2, 514650, Control_c, 0, 7, 69
2, 514850, Control_c, 0, 7, 68
2, 515030, Control_c, 0, 7, 67
2, 515040, Note_off_c, 0, 82, 64
2, 515040, Note_on_c, 0, 79, 80
2, 515230, Control_c, 0, 7, 66
2, 515280, Note_off_c, 0, 79, 64
2, 515280, Note_on_c, 0, 80, 80
2, 515400, Note_off_c, 0, 80, 64
2, 515400, Note_on_c, 0, 82, 80
2, 515430, Control_c, 0, 7, 65
2, 515520, Note_off_c, 0, 82, 64
2, 515520, Note_on_c, 0, 84, 80
2, 515610, Control_c, 0, 7, 64
2, 515810, Control_c, 0, 7, 63
2, 515990, Control_c, 0, 7, 62
2, 516000, Note_off_c, 0, 84, 64
2, 516000, Control_c, 0, 7, 31
2, 516000, Note_on_c, 0, 84, 80
2, 516010, Control_c, 0, 7, 62
2, 516150, Control_c, 0, 7, 63
2, 516290, Control_c, 0, 7, 64
2, 516430, Control_c, 0, 7, 65
2, 516570, Control_c, 0, 7, 66
2, 516710, Control_c, 0, 7, 67
2, 516850, Control_c, 0, 7, 68
2, 516970, Control_c, 0, 7, 69
2, 517110, Control_c, 0, 7, 70
2, 517250, Control_c, 0, 7, 71
2, 517390, Control_c, 0, 7, 72
2, 517440, Note_off_c, 0, 84, 64
2, 517440, Note_on_c, 0, 84, 80
2, 517440, Note_on_c, 0, 89, 80
2, 517530, Control_c, 0, 7, 73
2, 517670, Control_c, 0, 7, 74
2, 517810, Control_c, 0, 7, 75
2, 517896, Note_off_c, 0, 89, 64
2, 517896, Note_off_c, 0, 84, 64
2, 517920, Note_on_c, 0, 89, 80
2, 517920, Note_on_c, 0, 86, 80
2, 517930, Control_c, 0, 7, 76
2, 518070, Control_c, 0, 7, 77
2, 518210, Control_c, 0, 7, 78
2, 518350, Control_c, 0, 7, 79
2, 518490, Control_c, 0, 7, 80
2, 518630, Control_c, 0, 7, 81
2, 518770, Control_c, 0, 7, 82
2, 518890, Control_c, 0, 7, 83
2, 519030, Control_c, 0, 7, 84
2, 519170, Control_c, 0, 7, 85
2, 519310, Control_c, 0, 7, 86
2, 519450, Control_c, 0, 7, 87
2, 519590, Control_c, 0, 7, 88
2, 519730, Control_c, 0, 7, 89
2, 519840, Note_off_c, 0, 86, 64
2, 519840, Note_off_c, 0, 89, 64
2, 519840, Note_on_c, 0, 89, 80
2, 519840, Note_on_c, 0, 86, 80
2, 519850, Control_c, 0, 7, 90
2, 519860, Control_c, 0, 7, 90
2, 520032, Note_off_c, 0, 86, 64
2, 520032, Note_off_c, 0, 89, 64
2, 520560, Note_on_c, 0, 86, 80
2, 520560, Note_on_c, 0, 89, 80
2, 520656, Note_off_c, 0, 89, 64
2, 520656, Note_off_c, 0, 86, 64
2, 520800, Note_on_c, 0, 88, 80
2, 520800, Note_on_c, 0, 84, 80
2, 520992, Note_off_c, 0, 84, 64
2, 520992, Note_off_c, 0, 88, 64
2, 521520, Note_on_c, 0, 88, 80
2, 521520, Note_on_c, 0, 84, 80
2, 521616, Note_off_c, 0, 84, 64
2, 521616, Note_off_c, 0, 88, 64
2, 521760, Note_on_c, 0, 86, 80
2, 521760, Note_on_c, 0, 83, 80
2, 521952, Note_off_c, 0, 83, 64
2, 521952, Note_off_c, 0, 86, 64
2, 522480, Note_on_c, 0, 83, 80
2, 522480, Note_on_c, 0, 86, 80
2, 522576, Note_off_c, 0, 86, 64
2, 522576, Note_off_c, 0, 83, 64
2, 522720, Note_on_c, 0, 88, 80
2, 522720, Note_on_c, 0, 84, 80
2, 522912, Note_off_c, 0, 84, 64
2, 522912, Note_off_c, 0, 88, 64
2, 523440, Note_on_c, 0, 84, 80
2, 523440, Note_on_c, 0, 88, 80
2, 523536, Note_off_c, 0, 88, 64
2, 523536, Note_off_c, 0, 84, 64
2, 523680, Note_on_c, 0, 89, 80
2, 523680, Note_on_c, 0, 86, 80
2, 523872, Note_off_c, 0, 86, 64
2, 523872, Note_off_c, 0, 89, 64
2, 524400, Note_on_c, 0, 89, 80
2, 524400, Note_on_c, 0, 86, 80
2, 524496, Note_off_c, 0, 86, 64
2, 524496, Note_off_c, 0, 89, 64
2, 524640, Note_on_c, 0, 88, 80
2, 524640, Note_on_c, 0, 84, 80
2, 524832, Note_off_c, 0, 84, 64
2, 524832, Note_off_c, 0, 88, 64
2, 525360, Note_on_c, 0, 84, 80
2, 525360, Note_on_c, 0, 88, 80
2, 525456, Note_off_c, 0, 88, 64
2, 525456, Note_off_c, 0, 84, 64
2, 525600, Note_on_c, 0, 86, 80
2, 525600, Note_on_c, 0, 83, 80
2, 525792, Note_off_c, 0, 83, 64
2, 525792, Note_off_c, 0, 86, 64
2, 526320, Note_on_c, 0, 83, 80
2, 526320, Note_on_c, 0, 86, 80
2, 526416, Note_off_c, 0, 86, 64
2, 526416, Note_off_c, 0, 83, 64
2, 526560, Note_on_c, 0, 84, 80
2, 526560, Note_on_c, 0, 88, 80
2, 526752, Note_off_c, 0, 88, 64
2, 526752, Note_off_c, 0, 84, 64
2, 527280, Note_on_c, 0, 88, 80
2, 527280, Note_on_c, 0, 84, 80
2, 527376, Note_off_c, 0, 84, 64
2, 527376, Note_off_c, 0, 88, 64
2, 527520, Note_on_c, 0, 89, 80
2, 527520, Note_on_c, 0, 86, 80
2, 527712, Note_off_c, 0, 86, 64
2, 527712, Note_off_c, 0, 89, 64
2, 528240, Note_on_c, 0, 89, 80
2, 528240, Note_on_c, 0, 86, 80
2, 528336, Note_off_c, 0, 86, 64
2, 528336, Note_off_c, 0, 89, 64
2, 528480, Note_on_c, 0, 88, 80
2, 528480, Note_on_c, 0, 84, 80
2, 528672, Note_off_c, 0, 84, 64
2, 528672, Note_off_c, 0, 88, 64
2, 529200, Note_on_c, 0, 84, 80
2, 529200, Note_on_c, 0, 88, 80
2, 529296, Note_off_c, 0, 88, 64
2, 529296, Note_off_c, 0, 84, 64
2, 529440, Note_on_c, 0, 86, 80
2, 529440, Note_on_c, 0, 83, 80
2, 529632, Note_off_c, 0, 83, 64
2, 529632, Note_off_c, 0, 86, 64
2, 530160, Note_on_c, 0, 83, 80
2, 530160, Note_on_c, 0, 86, 80
2, 530256, Note_off_c, 0, 86, 64
2, 530256, Note_off_c, 0, 83, 64
2, 530400, Note_on_c, 0, 84, 80
2, 530400, Note_on_c, 0, 88, 80
2, 530592, Note_off_c, 0, 88, 64
2, 530592, Note_off_c, 0, 84, 64
2, 531120, Note_on_c, 0, 88, 80
2, 531120, Note_on_c, 0, 84, 80
2, 531216, Note_off_c, 0, 84, 64
2, 531216, Note_off_c, 0, 88, 64
2, 531360, Note_on_c, 0, 89, 80
2, 531360, Note_on_c, 0, 86, 80
2, 531552, Note_off_c, 0, 86, 64
2, 531552, Note_off_c, 0, 89, 64
2, 532080, Note_on_c, 0, 89, 80
2, 532080, Note_on_c, 0, 86, 80
2, 532176, Note_off_c, 0, 86, 64
2, 532176, Note_off_c, 0, 89, 64
2, 532320, Note_on_c, 0, 88, 80
2, 532320, Note_on_c, 0, 84, 80
2, 532512, Note_off_c, 0, 84, 64
2, 532512, Note_off_c, 0, 88, 64
2, 533040, Note_on_c, 0, 84, 80
2, 533040, Note_on_c, 0, 88, 80
2, 533136, Note_off_c, 0, 88, 64
2, 533136, Note_off_c, 0, 84, 64
2, 533280, Note_on_c, 0, 84, 80
2, 533280, Note_on_c, 0, 88, 80
2, 533472, Note_off_c, 0, 88, 64
2, 533472, Note_off_c, 0, 84, 64
2, 534000, Note_on_c, 0, 88, 80
2, 534096, Note_off_c, 0, 88, 64
2, 534240, Note_on_c, 0, 88, 80
2, 534432, Note_off_c, 0, 88, 64
2, 534960, Note_on_c, 0, 91, 80
2, 535056, Note_off_c, 0, 91, 64
2, 535200, Note_on_c, 0, 91, 56
2, 535968, Note_off_c, 0, 91, 64
2, 536160, Note_on_c, 0, 88, 56
2, 536928, Note_off_c, 0, 88, 64
2, 537120, Note_on_c, 0, 84, 56
2, 537888, Note_off_c, 0, 84, 64
2, 538080, Note_on_c, 0, 79, 56
2, 538848, Note_off_c, 0, 79, 64
2, 539040, Note_on_c, 0, 76, 56
2, 539808, Note_off_c, 0, 76, 64
2, 540000, Note_on_c, 0, 72, 56
2, 540768, Note_off_c, 0, 72, 64
2, 540960, Note_on_c, 0, 76, 56
2, 541728, Note_off_c, 0, 76, 64
2, 541920, Note_on_c, 0, 79, 56
2, 542688, Note_off_c, 0, 79, 64
2, 542880, Note_on_c, 0, 84, 56
2, 543648, Note_off_c, 0, 84, 64
2, 543840, Note_on_c, 0, 88, 56
2, 544608, Note_off_c, 0, 88, 64
2, 544800, Note_on_c, 0, 79, 80
2, 544800, Note_on_c, 0, 91, 80
2, 546336, Note_off_c, 0, 91, 64
2, 546336, Note_off_c, 0, 79, 64
2, 546720, Note_on_c, 0, 79, 61
2, 546720, Note_on_c, 0, 88, 61
2, 546816, Note_off_c, 0, 88, 64
2, 546816, Note_off_c, 0, 79, 64
2, 546960, Note_on_c, 0, 83, 61
2, 546960, Note_on_c, 0, 86, 61
2, 547080, Note_off_c, 0, 86, 64
2, 547080, Note_off_c, 0, 83, 64
2, 547080, Note_on_c, 0, 84, 61
2, 547080, Note_on_c, 0, 88, 61
2, 547200, Note_off_c, 0, 88, 64
2, 547200, Note_off_c, 0, 84, 64
2, 547200, Note_on_c, 0, 86, 61
2, 547200, Note_on_c, 0, 89, 61
2, 547296, Note_off_c, 0, 89, 64
2, 547296, Note_off_c, 0, 86, 64
2, 547440, Note_on_c, 0, 84, 61
2, 547440, Note_on_c, 0, 88, 61
2, 547536, Note_off_c, 0, 88, 64
2, 547536, Note_off_c, 0, 84, 64
2, 547680, Note_on_c, 0, 88, 61
2, 547680, Note_on_c, 0, 84, 61
2, 547776, Note_off_c, 0, 84, 64
2, 547776, Note_off_c, 0, 88, 64
2, 547920, Note_on_c, 0, 83, 61
2, 547920, Note_on_c, 0, 86, 61
2, 548040, Note_off_c, 0, 86, 64
2, 548040, Note_off_c, 0, 83, 64
2, 548040, Note_on_c, 0, 84, 61
2, 548040, Note_on_c, 0, 88, 61
2, 548160, Note_off_c, 0, 88, 64
2, 548160, Note_off_c, 0, 84, 64
2, 548160, Note_on_c, 0, 89, 61
2, 548160, Note_on_c, 0, 86, 61
2, 548256, Note_off_c, 0, 86, 64
2, 548256, Note_off_c, 0, 89, 64
2, 548400, Note_on_c, 0, 84, 61
2, 548400, Note_on_c, 0, 88, 61
2, 548496, Note_off_c, 0, 88, 64
2, 548496, Note_off_c, 0, 84, 64
2, 548640, Note_on_c, 0, 79, 80
2, 548640, Note_on_c, 0, 91, 80
2, 550176, Note_off_c, 0, 91, 64
2, 550176, Note_off_c, 0, 79, 64
2, 550560, Note_on_c, 0, 79, 61
2, 550560, Note_on_c, 0, 88, 61
2, 550656, Note_off_c, 0, 88, 64
2, 550656, Note_off_c, 0, 79, 64
2, 550800, Note_on_c, 0, 83, 61
2, 550800, Note_on_c, 0, 86, 61
2, 550920, Note_off_c, 0, 86, 64
2, 550920, Note_off_c, 0, 83, 64
2, 550920, Note_on_c, 0, 84, 61
2, 550920, Note_on_c, 0, 88, 61
2, 551040, Note_off_c, 0, 88, 64
2, 551040, Note_off_c, 0, 84, 64
2, 551040, Note_on_c, 0, 86, 61
2, 551040, Note_on_c, 0, 89, 61
2, 551136, Note_off_c, 0, 89, 64
2, 551136, Note_off_c, 0, 86, 64
2, 551280, Note_on_c, 0, 84, 61
2, 551280, Note_on_c, 0, 88, 61
2, 551376, Note_off_c, 0, 88, 64
2, 551376, Note_off_c, 0, 84, 64
2, 551520, Note_on_c, 0, 88, 61
2, 551520, Note_on_c, 0, 84, 61
2, 551616, Note_off_c, 0, 84, 64
2, 551616, Note_off_c, 0, 88, 64
2, 551760, Note_on_c, 0, 83, 61
2, 551760, Note_on_c, 0, 86, 61
2, 551880, Note_off_c, 0, 86, 64
2, 551880, Note_off_c, 0, 83, 64
2, 551880, Note_on_c, 0, 84, 61
2, 551880, Note_on_c, 0, 88, 61
2, 552000, Note_off_c, 0, 88, 64
2, 552000, Note_off_c, 0, 84, 64
2, 552000, Note_on_c, 0, 89, 61
2, 552000, Note_on_c, 0, 86, 61
2, 552096, Note_off_c, 0, 86, 64
2, 552096, Note_off_c, 0, 89, 64
2, 552240, Note_on_c, 0, 84, 61
2, 552240, Note_on_c, 0, 88, 61
2, 552336, Note_off_c, 0, 88, 64
2, 552336, Note_off_c, 0, 84, 64
2, 552480, Note_on_c, 0, 79, 80
2, 552480, Note_on_c, 0, 91, 80
2, 554016, Note_off_c, 0, 91, 64
2, 554016, Note_off_c, 0, 79, 64
2, 554400, Note_on_c, 0, 88, 61
2, 554400, Note_on_c, 0, 79, 61
2, 554496, Note_off_c, 0, 79, 64
2, 554496, Note_off_c, 0, 88, 64
2, 554640, Note_on_c, 0, 86, 61
2, 554640, Note_on_c, 0, 83, 61
2, 554760, Note_off_c, 0, 83, 64
2, 554760, Note_off_c, 0, 86, 64
2, 554760, Note_on_c, 0, 88, 61
2, 554760, Note_on_c, 0, 84, 61
2, 554880, Note_off_c, 0, 84, 64
2, 554880, Note_off_c, 0, 88, 64
2, 554880, Note_on_c, 0, 86, 61
2, 554880, Note_on_c, 0, 89, 61
2, 554976, Note_off_c, 0, 89, 64
2, 554976, Note_off_c, 0, 86, 64
2, 555120, Note_on_c, 0, 84, 61
2, 555120, Note_on_c, 0, 88, 61
2, 555216, Note_off_c, 0, 88, 64
2, 555216, Note_off_c, 0, 84, 64
2, 555360, Note_on_c, 0, 88, 61
2, 555360, Note_on_c, 0, 84, 61
2, 555456, Note_off_c, 0, 84, 64
2, 555456, Note_off_c, 0, 88, 64
2, 555600, Note_on_c, 0, 86, 61
2, 555600, Note_on_c, 0, 83, 61
2, 555720, Note_off_c, 0, 83, 64
2, 555720, Note_off_c, 0, 86, 64
2, 555720, Note_on_c, 0, 84, 61
2, 555720, Note_on_c, 0, 88, 61
2, 555840, Note_off_c, 0, 88, 64
2, 555840, Note_off_c, 0, 84, 64
2, 555840, Note_on_c, 0, 89, 61
2, 555840, Note_on_c, 0, 86, 61
2, 555936, Note_off_c, 0, 86, 64
2, 555936, Note_off_c, 0, 89, 64
2, 556080, Note_on_c, 0, 88, 61
2, 556080, Note_on_c, 0, 84, 61
2, 556176, Note_off_c, 0, 84, 64
2, 556176, Note_off_c, 0, 88, 64
2, 556320, Note_on_c, 0, 91, 61
2, 556320, Note_on_c, 0, 88, 61
2, 556416, Note_off_c, 0, 88, 64
2, 556416, Note_off_c, 0, 91, 64
2, 556560, Note_on_c, 0, 86, 61
2, 556560, Note_on_c, 0, 89, 61
2, 556680, Note_off_c, 0, 89, 64
2, 556680, Note_off_c, 0, 86, 64
2, 556680, Note_on_c, 0, 91, 61
2, 556680, Note_on_c, 0, 88, 61
2, 556800, Note_off_c, 0, 88, 64
2, 556800, Note_off_c, 0, 91, 64
2, 556800, Note_on_c, 0, 89, 61
2, 556800, Note_on_c, 0, 93, 61
2, 556896, Note_off_c, 0, 93, 64
2, 556896, Note_off_c, 0, 89, 64
2, 557040, Note_on_c, 0, 91, 61
2, 557040, Note_on_c, 0, 88, 61
2, 557136, Note_off_c, 0, 88, 64
2, 557136, Note_off_c, 0, 91, 64
2, 557280, Note_on_c, 0, 91, 61
2, 557280, Note_on_c, 0, 88, 61
2, 557376, Note_off_c, 0, 88, 64
2, 557376, Note_off_c, 0, 91, 64
2, 557520, Note_on_c, 0, 86, 61
2, 557520, Note_on_c, 0, 89, 61
2, 557640, Note_off_c, 0, 89, 64
2, 557640, Note_off_c, 0, 86, 64
2, 557640, Note_on_c, 0, 88, 61
2, 557640, Note_on_c, 0, 91, 61
2, 557760, Note_off_c, 0, 91, 64
2, 557760, Note_off_c, 0, 88, 64
2, 557760, Note_on_c, 0, 93, 61
2, 557760, Note_on_c, 0, 89, 61
2, 557856, Note_off_c, 0, 89, 64
2, 557856, Note_off_c, 0, 93, 64
2, 558000, Note_on_c, 0, 91, 61
2, 558000, Note_on_c, 0, 88, 61
2, 558096, Note_off_c, 0, 88, 64
2, 558096, Note_off_c, 0, 91, 64
2, 558240, Note_on_c, 0, 84, 61
2, 558240, Note_on_c, 0, 88, 61
2, 558336, Note_off_c, 0, 88, 64
2, 558336, Note_off_c, 0, 84, 64
2, 558480, Note_on_c, 0, 86, 61
2, 558480, Note_on_c, 0, 83, 61
2, 558600, Note_off_c, 0, 83, 64
2, 558600, Note_off_c, 0, 86, 64
2, 558600, Note_on_c, 0, 88, 61
2, 558600, Note_on_c, 0, 84, 61
2, 558720, Note_off_c, 0, 84, 64
2, 558720, Note_off_c, 0, 88, 64
2, 558720, Note_on_c, 0, 86, 61
2, 558720, Note_on_c, 0, 89, 61
2, 558816, Note_off_c, 0, 89, 64
2, 558816, Note_off_c, 0, 86, 64
2, 558960, Note_on_c, 0, 84, 61
2, 558960, Note_on_c, 0, 88, 61
2, 559056, Note_off_c, 0, 88, 64
2, 559056, Note_off_c, 0, 84, 64
2, 559200, Note_on_c, 0, 84, 61
2, 559200, Note_on_c, 0, 88, 61
2, 559296, Note_off_c, 0, 88, 64
2, 559296, Note_off_c, 0, 84, 64
2, 559440, Note_on_c, 0, 86, 61
2, 559440, Note_on_c, 0, 83, 61
2, 559560, Note_off_c, 0, 83, 64
2, 559560, Note_off_c, 0, 86, 64
2, 559560, Note_on_c, 0, 88, 61
2, 559560, Note_on_c, 0, 84, 61
2, 559680, Note_off_c, 0, 84, 64
2, 559680, Note_off_c, 0, 88, 64
2, 559680, Note_on_c, 0, 89, 61
2, 559680, Note_on_c, 0, 86, 61
2, 559776, Note_off_c, 0, 86, 64
2, 559776, Note_off_c, 0, 89, 64
2, 559920, Note_on_c, 0, 88, 61
2, 559920, Note_on_c, 0, 84, 61
2, 560016, Note_off_c, 0, 84, 64
2, 560016, Note_off_c, 0, 88, 64
2, 560160, Note_on_c, 0, 96, 80
2, 560352, Note_off_c, 0, 96, 64
2, 561120, Note_on_c, 0, 96, 80
2, 561312, Note_off_c, 0, 96, 64
2, 562320, Note_on_c, 0, 84, 80
2, 566352, Note_off_c, 0, 84, 64
2, 570000, Control_c, 0, 121, 127
2, 570480, Control_c, 0, 123, 127
2, 570960, Note_on_c, 0, 60, 0
2, 570996, Note_off_c, 0, 60, 60
2, 570996, End_track
3, 0, Start_track
3, 0, Title_t, "Oboe"
3, 0, MIDI_port, 0
3, 0, Channel_prefix, 1
3, 0, Control_c, 1, 7, 74
3, 0, Control_c, 1, 10, 70
3, 0, Program_c, 1, 68
3, 480, Program_c, 1, 68
3, 480, Control_c, 1, 91, 85
3, 480, Control_c, 1, 7, 90
3, 480, Control_c, 1, 10, 71
3, 5760, Note_on_c, 1, 72, 72
3, 5760, Note_on_c, 1, 64, 72
3, 5904, Note_off_c, 1, 64, 64
3, 5904, Note_off_c, 1, 72, 64
3, 7680, Note_on_c, 1, 79, 72
3, 7680, Note_on_c, 1, 74, 72
3, 7824, Note_off_c, 1, 74, 64
3, 7824, Note_off_c, 1, 79, 64
3, 9600, Note_on_c, 1, 64, 72
3, 9600, Note_on_c, 1, 76, 72
3, 9744, Note_off_c, 1, 76, 64
3, 9744, Note_off_c, 1, 64, 64
3, 10560, Note_on_c, 1, 69, 72
3, 10560, Note_on_c, 1, 81, 72
3, 10704, Note_off_c, 1, 81, 64
3, 10704, Note_off_c, 1, 69, 64
3, 11520, Note_on_c, 1, 71, 72
3, 11664, Note_off_c, 1, 71, 64
3, 12960, Note_on_c, 1, 67, 36
3, 13056, Note_off_c, 1, 67, 64
3, 13080, Note_on_c, 1, 69, 36
3, 13176, Note_off_c, 1, 69, 64
3, 13200, Note_on_c, 1, 71, 36
3, 13264, Note_off_c, 1, 71, 64
3, 13280, Note_on_c, 1, 72, 36
3, 13344, Note_off_c, 1, 72, 64
3, 13360, Note_on_c, 1, 74, 36
3, 13424, Note_off_c, 1, 74, 64
3, 13440, Note_on_c, 1, 76, 45
3, 14238, Note_off_c, 1, 76, 64
3, 14280, Note_on_c, 1, 74, 45
3, 14376, Note_off_c, 1, 74, 64
3, 14400, Note_on_c, 1, 72, 45
3, 14880, Note_off_c, 1, 72, 64
3, 14880, Note_on_c, 1, 74, 45
3, 15360, Note_off_c, 1, 74, 64
3, 15360, Note_on_c, 1, 76, 45
3, 15840, Note_off_c, 1, 76, 64
3, 15840, Note_on_c, 1, 77, 45
3, 16200, Note_off_c, 1, 77, 64
3, 16200, Note_on_c, 1, 76, 45
3, 16296, Note_off_c, 1, 76, 64
3, 16320, Note_on_c, 1, 76, 45
3, 16800, Note_off_c, 1, 76, 64
3, 16800, Note_on_c, 1, 74, 38
3, 17184, Note_off_c, 1, 74, 64
3, 17280, Note_on_c, 1, 74, 45
3, 17280, Note_on_c, 1, 77, 45
3, 18078, Note_off_c, 1, 77, 64
3, 18078, Note_off_c, 1, 74, 64
3, 18120, Note_on_c, 1, 72, 45
3, 18120, Note_on_c, 1, 76, 45
3, 18216, Note_off_c, 1, 76, 64
3, 18216, Note_off_c, 1, 72, 64
3, 18240, Note_on_c, 1, 74, 45
3, 18240, Note_on_c, 1, 71, 45
3, 18720, Note_off_c, 1, 71, 64
3, 18720, Note_off_c, 1, 74, 64
3, 18720, Note_on_c, 1, 72, 45
3, 18720, Note_on_c, 1, 76, 45
3, 19200, Note_off_c, 1, 76, 64
3, 19200, Note_off_c, 1, 72, 64
3, 19200, Note_on_c, 1, 79, 45
3, 19200, Note_on_c, 1, 76, 45
3, 19680, Note_off_c, 1, 76, 64
3, 19680, Note_off_c, 1, 79, 64
3, 19680, Note_on_c, 1, 74, 45
3, 19680, Note_on_c, 1, 77, 45
3, 20040, Note_off_c, 1, 77, 64
3, 20040, Note_off_c, 1, 74, 64
3, 20040, Note_on_c, 1, 76, 45
3, 20040, Note_on_c, 1, 72, 45
3, 20136, Note_off_c, 1, 72, 64
3, 20136, Note_off_c, 1, 76, 64
3, 20160, Note_on_c, 1, 76, 38
3, 20160, Note_on_c, 1, 72, 38
3, 20544, Note_off_c, 1, 72, 64
3, 20544, Note_off_c, 1, 76, 64
3, 21120, Note_on_c, 1, 79, 36
3, 22080, Note_off_c, 1, 79, 64
3, 22080, Note_on_c, 1, 81, 36
3, 23040, Note_off_c, 1, 81, 64
3, 23040, Note_on_c, 1, 83, 36
3, 24480, Note_off_c, 1, 83, 64
3, 24480, Note_on_c, 1, 84, 36
3, 25440, Note_off_c, 1, 84, 64
3, 25440, Note_on_c, 1, 79, 32
3, 25680, Note_off_c, 1, 79, 64
3, 25680, Note_on_c, 1, 81, 29
3, 25920, Note_off_c, 1, 81, 64
3, 25920, Note_on_c, 1, 83, 26
3, 26880, Note_off_c, 1, 83, 64
3, 26880, Note_on_c, 1, 76, 23
3, 27264, Note_off_c, 1, 76, 64
3, 28080, Note_on_c, 1, 67, 54
3, 28160, Note_off_c, 1, 67, 64
3, 28160, Note_on_c, 1, 69, 54
3, 28240, Note_off_c, 1, 69, 64
3, 28240, Note_on_c, 1, 71, 54
3, 28320, Note_off_c, 1, 71, 64
3, 28320, Note_on_c, 1, 72, 54
3, 28416, Note_off_c, 1, 72, 64
3, 28440, Note_on_c, 1, 74, 54
3, 28536, Note_off_c, 1, 74, 64
3, 28560, Note_on_c, 1, 76, 54
3, 28656, Note_off_c, 1, 76, 64
3, 28680, Note_on_c, 1, 77, 54
3, 28776, Note_off_c, 1, 77, 64
3, 28800, Note_on_c, 1, 79, 41
3, 29760, Note_off_c, 1, 79, 64
3, 29760, Note_on_c, 1, 81, 41
3, 30240, Note_off_c, 1, 81, 64
3, 30240, Note_on_c, 1, 79, 41
3, 30720, Note_off_c, 1, 79, 64
3, 30720, Note_on_c, 1, 77, 41
3, 31104, Note_off_c, 1, 77, 64
3, 31200, Note_on_c, 1, 76, 41
3, 31584, Note_off_c, 1, 76, 64
3, 31680, Note_on_c, 1, 77, 41
3, 32160, Note_on_c, 1, 74, 26
3, 32544, Note_off_c, 1, 74, 64
3, 32544, Note_off_c, 1, 77, 64
3, 32640, Note_on_c, 1, 77, 41
3, 32640, Note_on_c, 1, 74, 41
3, 33360, Note_off_c, 1, 74, 64
3, 33360, Note_off_c, 1, 77, 64
3, 33360, Note_on_c, 1, 76, 41
3, 33360, Note_on_c, 1, 79, 41
3, 33480, Note_off_c, 1, 79, 64
3, 33480, Note_off_c, 1, 76, 64
3, 33480, Note_on_c, 1, 81, 41
3, 33480, Note_on_c, 1, 77, 41
3, 33600, Note_off_c, 1, 77, 64
3, 33600, Note_off_c, 1, 81, 64
3, 33600, Note_on_c, 1, 79, 41
3, 33600, Note_on_c, 1, 76, 41
3, 33984, Note_off_c, 1, 76, 64
3, 33984, Note_off_c, 1, 79, 64
3, 34080, Note_on_c, 1, 77, 41
3, 34080, Note_on_c, 1, 74, 41
3, 34464, Note_off_c, 1, 74, 64
3, 34464, Note_off_c, 1, 77, 64
3, 34560, Note_on_c, 1, 72, 41
3, 34560, Note_on_c, 1, 76, 41
3, 34944, Note_off_c, 1, 76, 64
3, 34944, Note_off_c, 1, 72, 64
3, 35040, Note_on_c, 1, 71, 41
3, 35040, Note_on_c, 1, 74, 41
3, 35424, Note_off_c, 1, 74, 64
3, 35424, Note_off_c, 1, 71, 64
3, 35520, Note_on_c, 1, 72, 41
3, 35520, Note_on_c, 1, 76, 41
3, 36000, Note_off_c, 1, 76, 64
3, 36000, Note_off_c, 1, 72, 64
3, 36000, Note_on_c, 1, 77, 41
3, 36000, Note_on_c, 1, 74, 41
3, 36240, Note_off_c, 1, 74, 64
3, 36240, Note_off_c, 1, 77, 64
3, 36240, Note_on_c, 1, 79, 41
3, 36240, Note_on_c, 1, 76, 41
3, 36480, Note_off_c, 1, 76, 64
3, 36480, Note_off_c, 1, 79, 64
3, 36480, Note_on_c, 1, 81, 44
3, 36480, Note_on_c, 1, 72, 44
3, 36864, Note_off_c, 1, 72, 64
3, 36960, Note_on_c, 1, 77, 44
3, 37344, Note_off_c, 1, 81, 64
3, 37440, Note_on_c, 1, 83, 44
3, 37824, Note_off_c, 1, 77, 64
3, 37920, Note_on_c, 1, 74, 44
3, 38370, Note_off_c, 1, 83, 64
3, 38370, Note_off_c, 1, 74, 64
3, 38400, Note_on_c, 1, 72, 44
3, 38400, Note_on_c, 1, 84, 44
3, 39768, Note_off_c, 1, 84, 64
3, 39768, Note_off_c, 1, 72, 64
3, 39840, Note_on_c, 1, 72, 44
3, 40080, Note_off_c, 1, 72, 64
3, 40080, Note_on_c, 1, 74, 44
3, 40272, Note_off_c, 1, 74, 64
3, 40320, Note_on_c, 1, 76, 44
3, 41232, Note_off_c, 1, 76, 64
3, 41280, Note_on_c, 1, 74, 44
3, 42000, Note_off_c, 1, 74, 64
3, 42000, Note_on_c, 1, 72, 44
3, 42192, Note_off_c, 1, 72, 64
3, 42240, Note_on_c, 1, 72, 46
3, 42624, Note_off_c, 1, 72, 64
3, 43680, Note_on_c, 1, 67, 43
3, 43776, Note_off_c, 1, 67, 64
3, 43800, Note_on_c, 1, 69, 43
3, 43896, Note_off_c, 1, 69, 64
3, 43920, Note_on_c, 1, 71, 43
3, 43984, Note_off_c, 1, 71, 64
3, 44000, Note_on_c, 1, 72, 43
3, 44064, Note_off_c, 1, 72, 64
3, 44080, Note_on_c, 1, 74, 43
3, 44144, Note_off_c, 1, 74, 64
3, 44160, Note_on_c, 1, 76, 54
3, 44160, Note_on_c, 1, 72, 54
3, 44958, Note_off_c, 1, 72, 64
3, 44958, Note_off_c, 1, 76, 64
3, 45000, Note_on_c, 1, 71, 54
3, 45000, Note_on_c, 1, 74, 54
3, 45096, Note_off_c, 1, 74, 64
3, 45096, Note_off_c, 1, 71, 64
3, 45120, Note_on_c, 1, 69, 54
3, 45120, Note_on_c, 1, 72, 54
3, 45600, Note_off_c, 1, 72, 64
3, 45600, Note_off_c, 1, 69, 64
3, 45600, Note_on_c, 1, 71, 54
3, 45600, Note_on_c, 1, 74, 54
3, 46080, Note_off_c, 1, 74, 64
3, 46080, Note_off_c, 1, 71, 64
3, 46080, Note_on_c, 1, 76, 54
3, 46080, Note_on_c, 1, 72, 54
3, 46560, Note_off_c, 1, 72, 64
3, 46560, Note_off_c, 1, 76, 64
3, 46560, Note_on_c, 1, 77, 54
3, 46560, Note_on_c, 1, 74, 54
3, 46920, Note_off_c, 1, 74, 64
3, 46920, Note_off_c, 1, 77, 64
3, 46920, Note_on_c, 1, 76, 54
3, 46920, Note_on_c, 1, 72, 54
3, 47016, Note_off_c, 1, 72, 64
3, 47016, Note_off_c, 1, 76, 64
3, 47040, Note_on_c, 1, 72, 54
3, 47040, Note_on_c, 1, 76, 54
3, 47520, Note_off_c, 1, 76, 64
3, 47520, Note_off_c, 1, 72, 64
3, 47520, Note_on_c, 1, 74, 46
3, 47520, Note_on_c, 1, 71, 46
3, 47904, Note_off_c, 1, 71, 64
3, 47904, Note_off_c, 1, 74, 64
3, 48000, Note_on_c, 1, 69, 54
3, 48000, Note_on_c, 1, 77, 54
3, 48798, Note_off_c, 1, 77, 64
3, 48798, Note_off_c, 1, 69, 64
3, 48840, Note_on_c, 1, 76, 54
3, 48840, Note_on_c, 1, 72, 54
3, 48936, Note_off_c, 1, 72, 64
3, 48936, Note_off_c, 1, 76, 64
3, 48960, Note_on_c, 1, 74, 54
3, 48960, Note_on_c, 1, 71, 54
3, 49440, Note_off_c, 1, 71, 64
3, 49440, Note_off_c, 1, 74, 64
3, 49440, Note_on_c, 1, 72, 54
3, 49440, Note_on_c, 1, 76, 54
3, 49920, Note_off_c, 1, 76, 64
3, 49920, Note_off_c, 1, 72, 64
3, 49920, Note_on_c, 1, 76, 38
3, 49920, Note_on_c, 1, 79, 38
3, 50400, Note_off_c, 1, 79, 64
3, 50400, Note_off_c, 1, 76, 64
3, 50400, Note_on_c, 1, 77, 38
3, 50400, Note_on_c, 1, 74, 38
3, 50760, Note_off_c, 1, 74, 64
3, 50760, Note_off_c, 1, 77, 64
3, 50760, Note_on_c, 1, 76, 38
3, 50760, Note_on_c, 1, 72, 38
3, 50856, Note_off_c, 1, 72, 64
3, 50856, Note_off_c, 1, 76, 64
3, 50880, Note_on_c, 1, 76, 38
3, 50880, Note_on_c, 1, 72, 38
3, 51264, Note_off_c, 1, 72, 64
3, 51264, Note_off_c, 1, 76, 64
3, 51840, Note_on_c, 1, 74, 58
3, 51840, Note_on_c, 1, 79, 29
3, 52800, Note_off_c, 1, 79, 64
3, 52800, Note_off_c, 1, 74, 64
3, 52800, Note_on_c, 1, 81, 29
3, 52800, Note_on_c, 1, 72, 58
3, 53280, Note_off_c, 1, 72, 64
3, 53280, Note_on_c, 1, 74, 58
3, 53760, Note_off_c, 1, 81, 64
3, 53760, Note_off_c, 1, 74, 64
3, 53760, Note_on_c, 1, 74, 58
3, 53760, Note_on_c, 1, 83, 29
3, 54240, Note_off_c, 1, 74, 64
3, 54240, Note_on_c, 1, 75, 58
3, 54720, Note_off_c, 1, 75, 64
3, 54720, Note_on_c, 1, 76, 58
3, 55200, Note_off_c, 1, 83, 64
3, 55200, Note_off_c, 1, 76, 64
3, 55200, Note_on_c, 1, 76, 58
3, 55200, Note_on_c, 1, 84, 29
3, 56160, Note_off_c, 1, 84, 64
3, 56160, Note_off_c, 1, 76, 64
3, 56160, Note_on_c, 1, 79, 26
3, 56160, Note_on_c, 1, 76, 58
3, 56400, Note_off_c, 1, 79, 64
3, 56400, Note_on_c, 1, 81, 23
3, 56640, Note_off_c, 1, 76, 64
3, 56640, Note_off_c, 1, 81, 64
3, 56640, Note_on_c, 1, 71, 58
3, 56640, Note_on_c, 1, 83, 21
3, 57600, Note_off_c, 1, 83, 64
3, 57600, Note_off_c, 1, 71, 64
3, 57600, Note_on_c, 1, 76, 23
3, 57600, Note_on_c, 1, 64, 72
3, 57984, Note_off_c, 1, 64, 64
3, 57984, Note_off_c, 1, 76, 64
3, 58800, Note_on_c, 1, 67, 54
3, 58880, Note_off_c, 1, 67, 64
3, 58880, Note_on_c, 1, 69, 54
3, 58960, Note_off_c, 1, 69, 64
3, 58960, Note_on_c, 1, 71, 54
3, 59040, Note_off_c, 1, 71, 64
3, 59040, Note_on_c, 1, 72, 54
3, 59136, Note_off_c, 1, 72, 64
3, 59160, Note_on_c, 1, 74, 54
3, 59256, Note_off_c, 1, 74, 64
3, 59280, Note_on_c, 1, 76, 54
3, 59376, Note_off_c, 1, 76, 64
3, 59400, Note_on_c, 1, 77, 54
3, 59496, Note_off_c, 1, 77, 64
3, 59520, Note_on_c, 1, 79, 54
3, 60480, Note_off_c, 1, 79, 64
3, 60480, Note_on_c, 1, 81, 54
3, 60480, Note_on_c, 1, 72, 54
3, 60960, Note_off_c, 1, 72, 64
3, 60960, Note_off_c, 1, 81, 64
3, 60960, Note_on_c, 1, 76, 54
3, 60960, Note_on_c, 1, 79, 54
3, 61440, Note_off_c, 1, 79, 64
3, 61440, Note_off_c, 1, 76, 64
3, 61440, Note_on_c, 1, 77, 54
3, 61440, Note_on_c, 1, 72, 54
3, 61824, Note_off_c, 1, 72, 64
3, 61824, Note_off_c, 1, 77, 64
3, 61920, Note_on_c, 1, 72, 54
3, 61920, Note_on_c, 1, 76, 54
3, 62304, Note_off_c, 1, 76, 64
3, 62304, Note_off_c, 1, 72, 64
3, 62400, Note_on_c, 1, 69, 54
3, 62400, Note_on_c, 1, 77, 54
3, 62880, Note_off_c, 1, 69, 64
3, 62880, Note_on_c, 1, 74, 41
3, 63264, Note_off_c, 1, 77, 64
3, 63264, Note_off_c, 1, 74, 64
3, 63360, Note_on_c, 1, 74, 54
3, 63360, Note_on_c, 1, 77, 54
3, 64080, Note_off_c, 1, 77, 64
3, 64080, Note_off_c, 1, 74, 64
3, 64080, Note_on_c, 1, 76, 54
3, 64080, Note_on_c, 1, 79, 54
3, 64200, Note_off_c, 1, 79, 64
3, 64200, Note_off_c, 1, 76, 64
3, 64200, Note_on_c, 1, 77, 54
3, 64200, Note_on_c, 1, 81, 54
3, 64320, Note_off_c, 1, 81, 64
3, 64320, Note_off_c, 1, 77, 64
3, 64320, Note_on_c, 1, 79, 54
3, 64320, Note_on_c, 1, 76, 54
3, 64704, Note_off_c, 1, 76, 64
3, 64704, Note_off_c, 1, 79, 64
3, 64800, Note_on_c, 1, 74, 54
3, 64800, Note_on_c, 1, 77, 54
3, 65184, Note_off_c, 1, 77, 64
3, 65184, Note_off_c, 1, 74, 64
3, 65280, Note_on_c, 1, 72, 54
3, 65280, Note_on_c, 1, 76, 54
3, 65664, Note_off_c, 1, 76, 64
3, 65664, Note_off_c, 1, 72, 64
3, 65760, Note_on_c, 1, 74, 54
3, 65760, Note_on_c, 1, 71, 54
3, 66144, Note_off_c, 1, 71, 64
3, 66144, Note_off_c, 1, 74, 64
3, 66240, Note_on_c, 1, 76, 54
3, 66240, Note_on_c, 1, 72, 54
3, 66720, Note_off_c, 1, 72, 64
3, 66720, Note_off_c, 1, 76, 64
3, 66720, Note_on_c, 1, 74, 54
3, 66720, Note_on_c, 1, 77, 54
3, 66960, Note_off_c, 1, 77, 64
3, 66960, Note_off_c, 1, 74, 64
3, 66960, Note_on_c, 1, 79, 54
3, 66960, Note_on_c, 1, 76, 54
3, 67200, Note_off_c, 1, 76, 64
3, 67200, Note_off_c, 1, 79, 64
3, 67200, Note_on_c, 1, 72, 72
3, 67200, Note_on_c, 1, 81, 72
3, 67584, Note_off_c, 1, 72, 64
3, 67680, Note_on_c, 1, 77, 72
3, 68064, Note_off_c, 1, 81, 64
3, 68160, Note_on_c, 1, 83, 72
3, 68544, Note_off_c, 1, 77, 64
3, 68640, Note_on_c, 1, 74, 72
3, 69090, Note_off_c, 1, 83, 64
3, 69090, Note_off_c, 1, 74, 64
3, 69120, Note_on_c, 1, 72, 72
3, 69120, Note_on_c, 1, 84, 72
3, 70488, Note_off_c, 1, 84, 64
3, 70488, Note_off_c, 1, 72, 64
3, 70560, Note_on_c, 1, 72, 72
3, 70800, Note_off_c, 1, 72, 64
3, 70800, Note_on_c, 1, 74, 72
3, 70992, Note_off_c, 1, 74, 64
3, 71040, Note_on_c, 1, 76, 72
3, 71040, Note_on_c, 1, 72, 72
3, 71952, Note_off_c, 1, 72, 64
3, 71952, Note_off_c, 1, 76, 64
3, 72000, Note_on_c, 1, 71, 72
3, 72000, Note_on_c, 1, 74, 72
3, 72720, Note_off_c, 1, 74, 64
3, 72720, Note_off_c, 1, 71, 64
3, 72720, Note_on_c, 1, 72, 72
3, 72912, Note_off_c, 1, 72, 64
3, 72960, Note_on_c, 1, 72, 72
3, 73344, Note_off_c, 1, 72, 64
3, 74880, Note_on_c, 1, 72, 61
3, 75024, Note_off_c, 1, 72, 64
3, 76800, Note_on_c, 1, 72, 61
3, 76800, Note_on_c, 1, 76, 61
3, 76944, Note_off_c, 1, 76, 64
3, 76944, Note_off_c, 1, 72, 64
3, 78720, Note_on_c, 1, 76, 61
3, 78720, Note_on_c, 1, 72, 61
3, 78864, Note_off_c, 1, 72, 64
3, 78864, Note_off_c, 1, 76, 64
3, 79680, Note_on_c, 1, 76, 61
3, 79680, Note_on_c, 1, 72, 61
3, 79824, Note_off_c, 1, 72, 64
3, 79824, Note_off_c, 1, 76, 64
3, 80640, Note_on_c, 1, 74, 61
3, 80640, Note_on_c, 1, 77, 61
3, 80784, Note_off_c, 1, 77, 64
3, 80784, Note_off_c, 1, 74, 64
3, 81120, Note_on_c, 1, 72, 61
3, 81120, Note_on_c, 1, 76, 61
3, 81264, Note_off_c, 1, 76, 64
3, 81264, Note_off_c, 1, 72, 64
3, 81600, Note_on_c, 1, 71, 61
3, 81600, Note_on_c, 1, 74, 61
3, 81744, Note_off_c, 1, 74, 64
3, 81744, Note_off_c, 1, 71, 64
3, 82560, Note_on_c, 1, 72, 52
3, 82704, Note_off_c, 1, 72, 64
3, 84480, Note_on_c, 1, 76, 52
3, 84480, Note_on_c, 1, 72, 52
3, 84624, Note_off_c, 1, 72, 64
3, 84624, Note_off_c, 1, 76, 64
3, 86400, Note_on_c, 1, 72, 52
3, 86400, Note_on_c, 1, 76, 52
3, 86544, Note_off_c, 1, 76, 64
3, 86544, Note_off_c, 1, 72, 64
3, 87360, Note_on_c, 1, 72, 52
3, 87360, Note_on_c, 1, 76, 52
3, 87504, Note_off_c, 1, 76, 64
3, 87504, Note_off_c, 1, 72, 64
3, 88320, Note_on_c, 1, 74, 52
3, 88320, Note_on_c, 1, 77, 52
3, 88464, Note_off_c, 1, 77, 64
3, 88464, Note_off_c, 1, 74, 64
3, 88800, Note_on_c, 1, 72, 52
3, 88800, Note_on_c, 1, 76, 52
3, 88944, Note_off_c, 1, 76, 64
3, 88944, Note_off_c, 1, 72, 64
3, 89280, Note_on_c, 1, 74, 52
3, 89280, Note_on_c, 1, 71, 52
3, 89424, Note_off_c, 1, 71, 64
3, 89424, Note_off_c, 1, 74, 64
3, 90240, Note_on_c, 1, 74, 52
3, 90240, Note_on_c, 1, 71, 52
3, 90384, Note_off_c, 1, 71, 64
3, 90384, Note_off_c, 1, 74, 64
3, 92160, Note_on_c, 1, 76, 52
3, 92160, Note_on_c, 1, 72, 52
3, 92304, Note_off_c, 1, 72, 64
3, 92304, Note_off_c, 1, 76, 64
3, 94080, Note_on_c, 1, 72, 52
3, 94080, Note_on_c, 1, 76, 52
3, 94224, Note_off_c, 1, 76, 64
3, 94224, Note_off_c, 1, 72, 64
3, 95040, Note_on_c, 1, 64, 52
3, 95040, Note_on_c, 1, 72, 52
3, 95184, Note_off_c, 1, 72, 64
3, 95184, Note_off_c, 1, 64, 64
3, 96000, Note_on_c, 1, 74, 52
3, 96000, Note_on_c, 1, 71, 52
3, 96144, Note_off_c, 1, 71, 64
3, 96144, Note_off_c, 1, 74, 64
3, 96480, Note_on_c, 1, 74, 52
3, 96480, Note_on_c, 1, 71, 52
3, 96624, Note_off_c, 1, 71, 64
3, 96624, Note_off_c, 1, 74, 64
3, 96960, Note_on_c, 1, 64, 52
3, 96960, Note_on_c, 1, 72, 52
3, 97104, Note_off_c, 1, 72, 64
3, 97104, Note_off_c, 1, 64, 64
3, 97920, Note_on_c, 1, 71, 52
3, 97920, Note_on_c, 1, 74, 52
3, 98064, Note_off_c, 1, 74, 64
3, 98064, Note_off_c, 1, 71, 64
3, 99840, Note_on_c, 1, 72, 52
3, 99840, Note_on_c, 1, 76, 52
3, 99984, Note_off_c, 1, 76, 64
3, 99984, Note_off_c, 1, 72, 64
3, 101760, Note_on_c, 1, 72, 52
3, 101760, Note_on_c, 1, 76, 52
3, 101904, Note_off_c, 1, 76, 64
3, 101904, Note_off_c, 1, 72, 64
3, 102720, Note_on_c, 1, 72, 52
3, 102720, Note_on_c, 1, 64, 52
3, 102864, Note_off_c, 1, 64, 64
3, 102864, Note_off_c, 1, 72, 64
3, 103680, Note_on_c, 1, 74, 52
3, 103680, Note_on_c, 1, 71, 52
3, 103824, Note_off_c, 1, 71, 64
3, 103824, Note_off_c, 1, 74, 64
3, 104160, Note_on_c, 1, 71, 52
3, 104160, Note_on_c, 1, 74, 52
3, 104304, Note_off_c, 1, 74, 64
3, 104304, Note_off_c, 1, 71, 64
3, 104640, Note_on_c, 1, 72, 52
3, 104640, Note_on_c, 1, 64, 52
3, 104784, Note_off_c, 1, 64, 64
3, 104784, Note_off_c, 1, 72, 64
3, 113280, Note_on_c, 1, 74, 45
3, 113328, Note_off_c, 1, 74, 64
3, 113400, Note_on_c, 1, 77, 45
3, 113448, Note_off_c, 1, 77, 64
3, 113520, Note_on_c, 1, 76, 45
3, 113568, Note_off_c, 1, 76, 64
3, 113640, Note_on_c, 1, 74, 45
3, 113688, Note_off_c, 1, 74, 64
3, 113760, Note_on_c, 1, 76, 45
3, 113808, Note_off_c, 1, 76, 64
3, 113880, Note_on_c, 1, 79, 45
3, 113928, Note_off_c, 1, 79, 64
3, 114000, Note_on_c, 1, 77, 45
3, 114048, Note_off_c, 1, 77, 64
3, 114120, Note_on_c, 1, 76, 45
3, 114168, Note_off_c, 1, 76, 64
3, 114240, Note_on_c, 1, 77, 45
3, 114288, Note_off_c, 1, 77, 64
3, 114360, Note_on_c, 1, 81, 45
3, 114408, Note_off_c, 1, 81, 64
3, 114480, Note_on_c, 1, 79, 45
3, 114528, Note_off_c, 1, 79, 64
3, 114600, Note_on_c, 1, 77, 45
3, 114648, Note_off_c, 1, 77, 64
3, 114720, Note_on_c, 1, 76, 45
3, 114768, Note_off_c, 1, 76, 64
3, 114840, Note_on_c, 1, 74, 45
3, 114888, Note_off_c, 1, 74, 64
3, 114960, Note_on_c, 1, 76, 45
3, 115008, Note_off_c, 1, 76, 64
3, 115080, Note_on_c, 1, 77, 45
3, 115128, Note_off_c, 1, 77, 64
3, 115200, Note_on_c, 1, 76, 45
3, 115248, Note_off_c, 1, 76, 64
3, 115320, Note_on_c, 1, 79, 45
3, 115368, Note_off_c, 1, 79, 64
3, 115440, Note_on_c, 1, 77, 45
3, 115488, Note_off_c, 1, 77, 64
3, 115560, Note_on_c, 1, 76, 45
3, 115608, Note_off_c, 1, 76, 64
3, 115680, Note_on_c, 1, 74, 45
3, 115728, Note_off_c, 1, 74, 64
3, 115800, Note_on_c, 1, 72, 45
3, 115848, Note_off_c, 1, 72, 64
3, 115920, Note_on_c, 1, 71, 45
3, 115968, Note_off_c, 1, 71, 64
3, 116040, Note_on_c, 1, 72, 45
3, 116088, Note_off_c, 1, 72, 64
3, 116160, Note_on_c, 1, 74, 45
3, 116208, Note_off_c, 1, 74, 64
3, 116280, Note_on_c, 1, 72, 45
3, 116328, Note_off_c, 1, 72, 64
3, 116400, Note_on_c, 1, 71, 45
3, 116448, Note_off_c, 1, 71, 64
3, 116520, Note_on_c, 1, 69, 45
3, 116568, Note_off_c, 1, 69, 64
3, 116640, Note_on_c, 1, 67, 45
3, 116688, Note_off_c, 1, 67, 64
3, 116760, Note_on_c, 1, 67, 45
3, 116808, Note_off_c, 1, 67, 64
3, 116880, Note_on_c, 1, 69, 45
3, 116928, Note_off_c, 1, 69, 64
3, 117000, Note_on_c, 1, 71, 45
3, 117048, Note_off_c, 1, 71, 64
3, 117120, Note_on_c, 1, 72, 45
3, 117168, Note_off_c, 1, 72, 64
3, 117240, Note_on_c, 1, 79, 45
3, 117288, Note_off_c, 1, 79, 64
3, 117360, Note_on_c, 1, 79, 45
3, 117408, Note_off_c, 1, 79, 64
3, 117480, Note_on_c, 1, 79, 45
3, 117528, Note_off_c, 1, 79, 64
3, 117600, Note_on_c, 1, 79, 45
3, 117648, Note_off_c, 1, 79, 64
3, 117720, Note_on_c, 1, 79, 45
3, 117768, Note_off_c, 1, 79, 64
3, 117840, Note_on_c, 1, 79, 45
3, 117888, Note_off_c, 1, 79, 64
3, 117960, Note_on_c, 1, 79, 45
3, 118008, Note_off_c, 1, 79, 64
3, 118080, Note_on_c, 1, 79, 45
3, 118128, Note_off_c, 1, 79, 64
3, 118200, Note_on_c, 1, 79, 45
3, 118248, Note_off_c, 1, 79, 64
3, 118320, Note_on_c, 1, 79, 45
3, 118368, Note_off_c, 1, 79, 64
3, 118440, Note_on_c, 1, 79, 45
3, 118488, Note_off_c, 1, 79, 64
3, 118560, Note_on_c, 1, 79, 45
3, 118608, Note_off_c, 1, 79, 64
3, 118680, Note_on_c, 1, 79, 45
3, 118728, Note_off_c, 1, 79, 64
3, 118800, Note_on_c, 1, 79, 45
3, 118848, Note_off_c, 1, 79, 64
3, 118920, Note_on_c, 1, 79, 45
3, 118968, Note_off_c, 1, 79, 64
3, 119040, Note_on_c, 1, 79, 45
3, 119088, Note_off_c, 1, 79, 64
3, 119160, Note_on_c, 1, 79, 45
3, 119208, Note_off_c, 1, 79, 64
3, 119280, Note_on_c, 1, 79, 45
3, 119328, Note_off_c, 1, 79, 64
3, 119400, Note_on_c, 1, 79, 45
3, 119448, Note_off_c, 1, 79, 64
3, 119520, Note_on_c, 1, 79, 45
3, 119568, Note_off_c, 1, 79, 64
3, 119640, Note_on_c, 1, 79, 45
3, 119688, Note_off_c, 1, 79, 64
3, 119760, Note_on_c, 1, 79, 45
3, 119808, Note_off_c, 1, 79, 64
3, 119880, Note_on_c, 1, 79, 45
3, 119928, Note_off_c, 1, 79, 64
3, 120000, Note_on_c, 1, 79, 45
3, 120048, Note_off_c, 1, 79, 64
3, 120120, Note_on_c, 1, 79, 45
3, 120168, Note_off_c, 1, 79, 64
3, 120240, Note_on_c, 1, 79, 45
3, 120288, Note_off_c, 1, 79, 64
3, 120360, Note_on_c, 1, 79, 45
3, 120408, Note_off_c, 1, 79, 64
3, 120480, Note_on_c, 1, 79, 45
3, 120528, Note_off_c, 1, 79, 64
3, 120600, Note_on_c, 1, 79, 45
3, 120648, Note_off_c, 1, 79, 64
3, 120720, Note_on_c, 1, 79, 45
3, 120768, Note_off_c, 1, 79, 64
3, 120840, Note_on_c, 1, 79, 45
3, 120888, Note_off_c, 1, 79, 64
3, 120960, Note_on_c, 1, 79, 34
3, 121008, Note_off_c, 1, 79, 64
3, 121080, Note_on_c, 1, 74, 35
3, 121128, Note_off_c, 1, 74, 64
3, 121200, Note_on_c, 1, 74, 36
3, 121248, Note_off_c, 1, 74, 64
3, 121320, Note_on_c, 1, 74, 37
3, 121368, Note_off_c, 1, 74, 64
3, 121440, Note_on_c, 1, 74, 39
3, 121488, Note_off_c, 1, 74, 64
3, 121560, Note_on_c, 1, 74, 40
3, 121608, Note_off_c, 1, 74, 64
3, 121680, Note_on_c, 1, 74, 41
3, 121728, Note_off_c, 1, 74, 64
3, 121800, Note_on_c, 1, 74, 41
3, 121848, Note_off_c, 1, 74, 64
3, 121920, Note_on_c, 1, 74, 43
3, 121968, Note_off_c, 1, 74, 64
3, 122040, Note_on_c, 1, 74, 43
3, 122088, Note_off_c, 1, 74, 64
3, 122160, Note_on_c, 1, 74, 44
3, 122208, Note_off_c, 1, 74, 64
3, 122280, Note_on_c, 1, 74, 45
3, 122328, Note_off_c, 1, 74, 64
3, 122400, Note_on_c, 1, 74, 46
3, 122448, Note_off_c, 1, 74, 64
3, 122520, Note_on_c, 1, 74, 48
3, 122568, Note_off_c, 1, 74, 64
3, 122640, Note_on_c, 1, 74, 49
3, 122688, Note_off_c, 1, 74, 64
3, 122760, Note_on_c, 1, 74, 50
3, 122808, Note_off_c, 1, 74, 64
3, 122880, Note_on_c, 1, 74, 41
3, 122928, Note_off_c, 1, 74, 64
3, 123000, Note_on_c, 1, 79, 41
3, 123000, Note_on_c, 1, 67, 41
3, 123048, Note_off_c, 1, 67, 64
3, 123048, Note_off_c, 1, 79, 64
3, 123120, Note_on_c, 1, 67, 42
3, 123120, Note_on_c, 1, 79, 42
3, 123168, Note_off_c, 1, 79, 64
3, 123168, Note_off_c, 1, 67, 64
3, 123240, Note_on_c, 1, 67, 43
3, 123240, Note_on_c, 1, 79, 43
3, 123288, Note_off_c, 1, 79, 64
3, 123288, Note_off_c, 1, 67, 64
3, 123360, Note_on_c, 1, 67, 44
3, 123360, Note_on_c, 1, 79, 44
3, 123408, Note_off_c, 1, 79, 64
3, 123408, Note_off_c, 1, 67, 64
3, 123480, Note_on_c, 1, 79, 45
3, 123480, Note_on_c, 1, 67, 45
3, 123528, Note_off_c, 1, 67, 64
3, 123528, Note_off_c, 1, 79, 64
3, 123600, Note_on_c, 1, 67, 46
3, 123600, Note_on_c, 1, 79, 46
3, 123648, Note_off_c, 1, 79, 64
3, 123648, Note_off_c, 1, 67, 64
3, 123720, Note_on_c, 1, 79, 47
3, 123720, Note_on_c, 1, 67, 47
3, 123768, Note_off_c, 1, 67, 64
3, 123768, Note_off_c, 1, 79, 64
3, 123840, Note_on_c, 1, 79, 48
3, 123840, Note_on_c, 1, 67, 48
3, 123888, Note_off_c, 1, 67, 64
3, 123888, Note_off_c, 1, 79, 64
3, 123960, Note_on_c, 1, 79, 48
3, 123960, Note_on_c, 1, 67, 48
3, 124008, Note_off_c, 1, 67, 64
3, 124008, Note_off_c, 1, 79, 64
3, 124080, Note_on_c, 1, 79, 49
3, 124080, Note_on_c, 1, 67, 49
3, 124128, Note_off_c, 1, 67, 64
3, 124128, Note_off_c, 1, 79, 64
3, 124200, Note_on_c, 1, 67, 50
3, 124200, Note_on_c, 1, 79, 50
3, 124248, Note_off_c, 1, 79, 64
3, 124248, Note_off_c, 1, 67, 64
3, 124320, Note_on_c, 1, 79, 50
3, 124320, Note_on_c, 1, 67, 50
3, 124368, Note_off_c, 1, 67, 64
3, 124368, Note_off_c, 1, 79, 64
3, 124440, Note_on_c, 1, 67, 51
3, 124440, Note_on_c, 1, 79, 51
3, 124488, Note_off_c, 1, 79, 64
3, 124488, Note_off_c, 1, 67, 64
3, 124560, Note_on_c, 1, 79, 52
3, 124560, Note_on_c, 1, 67, 52
3, 124608, Note_off_c, 1, 67, 64
3, 124608, Note_off_c, 1, 79, 64
3, 124680, Note_on_c, 1, 79, 53
3, 124680, Note_on_c, 1, 67, 53
3, 124728, Note_off_c, 1, 67, 64
3, 124728, Note_off_c, 1, 79, 64
3, 124800, Note_on_c, 1, 79, 54
3, 124800, Note_on_c, 1, 67, 54
3, 124848, Note_off_c, 1, 67, 64
3, 124848, Note_off_c, 1, 79, 64
3, 124920, Note_on_c, 1, 79, 55
3, 124920, Note_on_c, 1, 67, 55
3, 124968, Note_off_c, 1, 67, 64
3, 124968, Note_off_c, 1, 79, 64
3, 125040, Note_on_c, 1, 79, 56
3, 125040, Note_on_c, 1, 67, 56
3, 125088, Note_off_c, 1, 67, 64
3, 125088, Note_off_c, 1, 79, 64
3, 125160, Note_on_c, 1, 79, 57
3, 125160, Note_on_c, 1, 67, 57
3, 125208, Note_off_c, 1, 67, 64
3, 125208, Note_off_c, 1, 79, 64
3, 125280, Note_on_c, 1, 79, 58
3, 125280, Note_on_c, 1, 67, 58
3, 125328, Note_off_c, 1, 67, 64
3, 125328, Note_off_c, 1, 79, 64
3, 125400, Note_on_c, 1, 67, 59
3, 125400, Note_on_c, 1, 79, 59
3, 125448, Note_off_c, 1, 79, 64
3, 125448, Note_off_c, 1, 67, 64
3, 125520, Note_on_c, 1, 79, 59
3, 125520, Note_on_c, 1, 67, 59
3, 125568, Note_off_c, 1, 67, 64
3, 125568, Note_off_c, 1, 79, 64
3, 125640, Note_on_c, 1, 79, 60
3, 125640, Note_on_c, 1, 67, 60
3, 125688, Note_off_c, 1, 67, 64
3, 125688, Note_off_c, 1, 79, 64
3, 125760, Note_on_c, 1, 79, 61
3, 125760, Note_on_c, 1, 67, 61
3, 125808, Note_off_c, 1, 67, 64
3, 125808, Note_off_c, 1, 79, 64
3, 125880, Note_on_c, 1, 67, 61
3, 125880, Note_on_c, 1, 79, 61
3, 125928, Note_off_c, 1, 79, 64
3, 125928, Note_off_c, 1, 67, 64
3, 126000, Note_on_c, 1, 67, 62
3, 126000, Note_on_c, 1, 79, 62
3, 126048, Note_off_c, 1, 79, 64
3, 126048, Note_off_c, 1, 67, 64
3, 126120, Note_on_c, 1, 67, 63
3, 126120, Note_on_c, 1, 79, 63
3, 126168, Note_off_c, 1, 79, 64
3, 126168, Note_off_c, 1, 67, 64
3, 126240, Note_on_c, 1, 67, 64
3, 126240, Note_on_c, 1, 79, 64
3, 126288, Note_off_c, 1, 79, 64
3, 126288, Note_off_c, 1, 67, 64
3, 126360, Note_on_c, 1, 79, 65
3, 126360, Note_on_c, 1, 67, 65
3, 126408, Note_off_c, 1, 67, 64
3, 126408, Note_off_c, 1, 79, 64
3, 126480, Note_on_c, 1, 67, 66
3, 126480, Note_on_c, 1, 79, 66
3, 126528, Note_off_c, 1, 79, 64
3, 126528, Note_off_c, 1, 67, 64
3, 126600, Note_on_c, 1, 79, 67
3, 126600, Note_on_c, 1, 67, 67
3, 126648, Note_off_c, 1, 67, 64
3, 126648, Note_off_c, 1, 79, 64
3, 126720, Note_on_c, 1, 79, 54
3, 126720, Note_on_c, 1, 67, 54
3, 126768, Note_off_c, 1, 67, 64
3, 126768, Note_off_c, 1, 79, 64
3, 126840, Note_on_c, 1, 79, 55
3, 126840, Note_on_c, 1, 67, 55
3, 126888, Note_off_c, 1, 67, 64
3, 126888, Note_off_c, 1, 79, 64
3, 126960, Note_on_c, 1, 79, 56
3, 126960, Note_on_c, 1, 67, 56
3, 127008, Note_off_c, 1, 67, 64
3, 127008, Note_off_c, 1, 79, 64
3, 127080, Note_on_c, 1, 79, 56
3, 127080, Note_on_c, 1, 67, 56
3, 127128, Note_off_c, 1, 67, 64
3, 127128, Note_off_c, 1, 79, 64
3, 127200, Note_on_c, 1, 79, 57
3, 127200, Note_on_c, 1, 67, 57
3, 127248, Note_off_c, 1, 67, 64
3, 127248, Note_off_c, 1, 79, 64
3, 127320, Note_on_c, 1, 67, 58
3, 127320, Note_on_c, 1, 79, 58
3, 127368, Note_off_c, 1, 79, 64
3, 127368, Note_off_c, 1, 67, 64
3, 127440, Note_on_c, 1, 67, 59
3, 127440, Note_on_c, 1, 79, 59
3, 127488, Note_off_c, 1, 79, 64
3, 127488, Note_off_c, 1, 67, 64
3, 127560, Note_on_c, 1, 79, 59
3, 127560, Note_on_c, 1, 67, 59
3, 127608, Note_off_c, 1, 67, 64
3, 127608, Note_off_c, 1, 79, 64
3, 127680, Note_on_c, 1, 79, 59
3, 127680, Note_on_c, 1, 67, 59
3, 127728, Note_off_c, 1, 67, 64
3, 127728, Note_off_c, 1, 79, 64
3, 127800, Note_on_c, 1, 67, 59
3, 127800, Note_on_c, 1, 79, 59
3, 127848, Note_off_c, 1, 79, 64
3, 127848, Note_off_c, 1, 67, 64
3, 127920, Note_on_c, 1, 67, 60
3, 127920, Note_on_c, 1, 79, 60
3, 127968, Note_off_c, 1, 79, 64
3, 127968, Note_off_c, 1, 67, 64
3, 128040, Note_on_c, 1, 79, 61
3, 128040, Note_on_c, 1, 67, 61
3, 128088, Note_off_c, 1, 67, 64
3, 128088, Note_off_c, 1, 79, 64
3, 128160, Note_on_c, 1, 77, 72
3, 128160, Note_on_c, 1, 81, 72
3, 130944, Note_off_c, 1, 81, 64
3, 130944, Note_off_c, 1, 77, 64
3, 131040, Note_on_c, 1, 76, 72
3, 131040, Note_on_c, 1, 79, 72
3, 132864, Note_off_c, 1, 79, 64
3, 132864, Note_off_c, 1, 76, 64
3, 132960, Note_on_c, 1, 74, 72
3, 132960, Note_on_c, 1, 77, 72
3, 134784, Note_off_c, 1, 77, 64
3, 134784, Note_off_c, 1, 74, 64
3, 134880, Note_on_c, 1, 76, 72
3, 134880, Note_on_c, 1, 72, 72
3, 135780, Note_off_c, 1, 72, 64
3, 135780, Note_off_c, 1, 76, 64
3, 157080, Note_on_c, 1, 67, 29
3, 157120, Note_off_c, 1, 67, 64
3, 157120, Note_on_c, 1, 69, 29
3, 157160, Note_off_c, 1, 69, 64
3, 157160, Note_on_c, 1, 71, 29
3, 157200, Note_off_c, 1, 71, 64
3, 157200, Note_on_c, 1, 72, 29
3, 157440, Note_off_c, 1, 72, 64
3, 158040, Note_on_c, 1, 72, 24
3, 158100, Note_off_c, 1, 72, 64
3, 158100, Note_on_c, 1, 71, 24
3, 158160, Note_off_c, 1, 71, 64
3, 158160, Note_on_c, 1, 69, 29
3, 158400, Note_off_c, 1, 69, 64
3, 159000, Note_on_c, 1, 69, 29
3, 159040, Note_off_c, 1, 69, 64
3, 159040, Note_on_c, 1, 71, 29
3, 159080, Note_off_c, 1, 71, 64
3, 159080, Note_on_c, 1, 72, 29
3, 159120, Note_off_c, 1, 72, 64
3, 159120, Note_on_c, 1, 74, 29
3, 159360, Note_off_c, 1, 74, 64
3, 159960, Note_on_c, 1, 74, 24
3, 160020, Note_off_c, 1, 74, 64
3, 160020, Note_on_c, 1, 72, 24
3, 160080, Note_off_c, 1, 72, 64
3, 160080, Note_on_c, 1, 71, 29
3, 160320, Note_off_c, 1, 71, 64
3, 160920, Note_on_c, 1, 72, 29
3, 160980, Note_off_c, 1, 72, 64
3, 160980, Note_on_c, 1, 74, 29
3, 161040, Note_off_c, 1, 74, 64
3, 161040, Note_on_c, 1, 76, 29
3, 161280, Note_off_c, 1, 76, 64
3, 161880, Note_on_c, 1, 76, 24
3, 161940, Note_off_c, 1, 76, 64
3, 161940, Note_on_c, 1, 74, 24
3, 162000, Note_off_c, 1, 74, 64
3, 162000, Note_on_c, 1, 72, 29
3, 162240, Note_off_c, 1, 72, 64
3, 162840, Note_on_c, 1, 72, 29
3, 162880, Note_off_c, 1, 72, 64
3, 162880, Note_on_c, 1, 74, 29
3, 162920, Note_off_c, 1, 74, 64
3, 162920, Note_on_c, 1, 76, 29
3, 162960, Note_off_c, 1, 76, 64
3, 162960, Note_on_c, 1, 77, 29
3, 163200, Note_off_c, 1, 77, 64
3, 174000, Note_on_c, 1, 79, 72
3, 174768, Note_off_c, 1, 79, 64
3, 174960, Note_on_c, 1, 76, 76
3, 175200, Note_off_c, 1, 76, 64
3, 175200, Note_on_c, 1, 77, 76
3, 175320, Note_off_c, 1, 77, 64
3, 175320, Note_on_c, 1, 79, 76
3, 175440, Note_off_c, 1, 79, 64
3, 175440, Note_on_c, 1, 81, 96
3, 175536, Note_off_c, 1, 81, 64
3, 175680, Note_on_c, 1, 81, 76
3, 175776, Note_off_c, 1, 81, 64
3, 175920, Note_on_c, 1, 74, 76
3, 176160, Note_off_c, 1, 74, 64
3, 176160, Note_on_c, 1, 76, 76
3, 176280, Note_off_c, 1, 76, 64
3, 176280, Note_on_c, 1, 77, 76
3, 176400, Note_off_c, 1, 77, 64
3, 176400, Note_on_c, 1, 79, 96
3, 176496, Note_off_c, 1, 79, 64
3, 176640, Note_on_c, 1, 67, 76
3, 176736, Note_off_c, 1, 67, 64
3, 176880, Note_on_c, 1, 72, 76
3, 177120, Note_off_c, 1, 72, 64
3, 177120, Note_on_c, 1, 74, 76
3, 177240, Note_off_c, 1, 74, 64
3, 177240, Note_on_c, 1, 76, 76
3, 177360, Note_off_c, 1, 76, 64
3, 177360, Note_on_c, 1, 77, 96
3, 177456, Note_off_c, 1, 77, 64
3, 177600, Note_on_c, 1, 77, 76
3, 177696, Note_off_c, 1, 77, 64
3, 177840, Note_on_c, 1, 71, 76
3, 178080, Note_off_c, 1, 71, 64
3, 178080, Note_on_c, 1, 72, 76
3, 178200, Note_off_c, 1, 72, 64
3, 178200, Note_on_c, 1, 74, 76
3, 178320, Note_off_c, 1, 74, 64
3, 178320, Note_on_c, 1, 76, 96
3, 178416, Note_off_c, 1, 76, 64
3, 178560, Note_on_c, 1, 64, 76
3, 178656, Note_off_c, 1, 64, 64
3, 178800, Note_on_c, 1, 69, 76
3, 179040, Note_off_c, 1, 69, 64
3, 179040, Note_on_c, 1, 71, 76
3, 179160, Note_off_c, 1, 71, 64
3, 179160, Note_on_c, 1, 72, 76
3, 179280, Note_off_c, 1, 72, 64
3, 179280, Note_on_c, 1, 74, 96
3, 179376, Note_off_c, 1, 74, 64
3, 179520, Note_on_c, 1, 74, 76
3, 179616, Note_off_c, 1, 74, 64
3, 179760, Note_on_c, 1, 67, 76
3, 180000, Note_off_c, 1, 67, 64
3, 180000, Note_on_c, 1, 69, 76
3, 180120, Note_off_c, 1, 69, 64
3, 180120, Note_on_c, 1, 71, 76
3, 180240, Note_off_c, 1, 71, 64
3, 180240, Note_on_c, 1, 72, 76
3, 180480, Note_off_c, 1, 72, 64
3, 180480, Note_on_c, 1, 74, 76
3, 180600, Note_off_c, 1, 74, 64
3, 180600, Note_on_c, 1, 76, 76
3, 180720, Note_off_c, 1, 76, 64
3, 180720, Note_on_c, 1, 77, 87
3, 180720, Note_on_c, 1, 74, 67
3, 180816, Note_off_c, 1, 74, 64
3, 180816, Note_off_c, 1, 77, 64
3, 180960, Note_on_c, 1, 74, 67
3, 180960, Note_on_c, 1, 77, 67
3, 181056, Note_off_c, 1, 77, 64
3, 181056, Note_off_c, 1, 74, 64
3, 181200, Note_on_c, 1, 77, 67
3, 181200, Note_on_c, 1, 74, 67
3, 181296, Note_off_c, 1, 74, 64
3, 181296, Note_off_c, 1, 77, 64
3, 181680, Note_on_c, 1, 76, 87
3, 181680, Note_on_c, 1, 72, 67
3, 181776, Note_off_c, 1, 72, 64
3, 181776, Note_off_c, 1, 76, 64
3, 181920, Note_on_c, 1, 72, 67
3, 181920, Note_on_c, 1, 76, 67
3, 182016, Note_off_c, 1, 76, 64
3, 182016, Note_off_c, 1, 72, 64
3, 182160, Note_on_c, 1, 72, 67
3, 182160, Note_on_c, 1, 76, 67
3, 182256, Note_off_c, 1, 76, 64
3, 182256, Note_off_c, 1, 72, 64
3, 182640, Note_on_c, 1, 77, 87
3, 182640, Note_on_c, 1, 74, 67
3, 182736, Note_off_c, 1, 74, 64
3, 182736, Note_off_c, 1, 77, 64
3, 182880, Note_on_c, 1, 77, 67
3, 182880, Note_on_c, 1, 74, 67
3, 182976, Note_off_c, 1, 74, 64
3, 182976, Note_off_c, 1, 77, 64
3, 183120, Note_on_c, 1, 74, 67
3, 183120, Note_on_c, 1, 77, 67
3, 183216, Note_off_c, 1, 77, 64
3, 183216, Note_off_c, 1, 74, 64
3, 183600, Note_on_c, 1, 72, 67
3, 183600, Note_on_c, 1, 76, 67
3, 183696, Note_off_c, 1, 76, 64
3, 183696, Note_off_c, 1, 72, 64
3, 190320, Note_on_c, 1, 78, 57
3, 190320, Note_on_c, 1, 81, 77
3, 190416, Note_off_c, 1, 81, 64
3, 190416, Note_off_c, 1, 78, 64
3, 190560, Note_on_c, 1, 78, 57
3, 190560, Note_on_c, 1, 81, 57
3, 190656, Note_off_c, 1, 81, 64
3, 190656, Note_off_c, 1, 78, 64
3, 190800, Note_on_c, 1, 78, 57
3, 190800, Note_on_c, 1, 81, 57
3, 190896, Note_off_c, 1, 81, 64
3, 190896, Note_off_c, 1, 78, 64
3, 191280, Note_on_c, 1, 83, 77
3, 191280, Note_on_c, 1, 79, 57
3, 191376, Note_off_c, 1, 79, 64
3, 191376, Note_off_c, 1, 83, 64
3, 191520, Note_on_c, 1, 83, 57
3, 191520, Note_on_c, 1, 79, 57
3, 191616, Note_off_c, 1, 79, 64
3, 191616, Note_off_c, 1, 83, 64
3, 191760, Note_on_c, 1, 83, 57
3, 191760, Note_on_c, 1, 79, 57
3, 191856, Note_off_c, 1, 79, 64
3, 191856, Note_off_c, 1, 83, 64
3, 192240, Note_on_c, 1, 81, 77
3, 192240, Note_on_c, 1, 78, 57
3, 192336, Note_off_c, 1, 78, 64
3, 192336, Note_off_c, 1, 81, 64
3, 192480, Note_on_c, 1, 81, 57
3, 192480, Note_on_c, 1, 78, 57
3, 192576, Note_off_c, 1, 78, 64
3, 192576, Note_off_c, 1, 81, 64
3, 192720, Note_on_c, 1, 78, 57
3, 192720, Note_on_c, 1, 81, 57
3, 192816, Note_off_c, 1, 81, 64
3, 192816, Note_off_c, 1, 78, 64
3, 193200, Note_on_c, 1, 83, 57
3, 193200, Note_on_c, 1, 79, 57
3, 193296, Note_off_c, 1, 79, 64
3, 193296, Note_off_c, 1, 83, 64
3, 194640, Note_on_c, 1, 84, 58
3, 195504, Note_off_c, 1, 84, 64
3, 195600, Note_on_c, 1, 83, 58
3, 196464, Note_off_c, 1, 83, 64
3, 196560, Note_on_c, 1, 81, 58
3, 197424, Note_off_c, 1, 81, 64
3, 197520, Note_on_c, 1, 79, 58
3, 198384, Note_off_c, 1, 79, 64
3, 198480, Note_on_c, 1, 77, 58
3, 199344, Note_off_c, 1, 77, 64
3, 199440, Note_on_c, 1, 76, 58
3, 199824, Note_off_c, 1, 76, 64
3, 199920, Note_on_c, 1, 74, 53
3, 199920, Note_on_c, 1, 83, 73
3, 200016, Note_off_c, 1, 83, 64
3, 200016, Note_off_c, 1, 74, 64
3, 200160, Note_on_c, 1, 83, 53
3, 200160, Note_on_c, 1, 74, 53
3, 200256, Note_off_c, 1, 74, 64
3, 200256, Note_off_c, 1, 83, 64
3, 200400, Note_on_c, 1, 83, 53
3, 200400, Note_on_c, 1, 74, 53
3, 200496, Note_off_c, 1, 74, 64
3, 200496, Note_off_c, 1, 83, 64
3, 200880, Note_on_c, 1, 84, 53
3, 200880, Note_on_c, 1, 76, 73
3, 200976, Note_off_c, 1, 76, 64
3, 200976, Note_off_c, 1, 84, 64
3, 201120, Note_on_c, 1, 76, 53
3, 201120, Note_on_c, 1, 84, 53
3, 201216, Note_off_c, 1, 84, 64
3, 201216, Note_off_c, 1, 76, 64
3, 201360, Note_on_c, 1, 84, 53
3, 201360, Note_on_c, 1, 76, 53
3, 201456, Note_off_c, 1, 76, 64
3, 201456, Note_off_c, 1, 84, 64
3, 201840, Note_on_c, 1, 74, 53
3, 201840, Note_on_c, 1, 83, 73
3, 201936, Note_off_c, 1, 83, 64
3, 201936, Note_off_c, 1, 74, 64
3, 202080, Note_on_c, 1, 74, 53
3, 202080, Note_on_c, 1, 83, 53
3, 202176, Note_off_c, 1, 83, 64
3, 202176, Note_off_c, 1, 74, 64
3, 202320, Note_on_c, 1, 74, 53
3, 202320, Note_on_c, 1, 83, 53
3, 202416, Note_off_c, 1, 83, 64
3, 202416, Note_off_c, 1, 74, 64
3, 203760, Note_on_c, 1, 71, 89
3, 204000, Note_off_c, 1, 71, 64
3, 204000, Note_on_c, 1, 72, 89
3, 204120, Note_off_c, 1, 72, 64
3, 204120, Note_on_c, 1, 74, 89
3, 204240, Note_off_c, 1, 74, 64
3, 204240, Note_on_c, 1, 83, 72
3, 204624, Note_off_c, 1, 83, 64
3, 204720, Note_on_c, 1, 81, 72
3, 205488, Note_off_c, 1, 81, 64
3, 205680, Note_on_c, 1, 79, 72
3, 206448, Note_off_c, 1, 79, 64
3, 206640, Note_on_c, 1, 78, 72
3, 207408, Note_off_c, 1, 78, 64
3, 207600, Note_on_c, 1, 76, 72
3, 208368, Note_off_c, 1, 76, 64
3, 208560, Note_on_c, 1, 74, 72
3, 209328, Note_off_c, 1, 74, 64
3, 209520, Note_on_c, 1, 84, 45
3, 209520, Note_on_c, 1, 81, 65
3, 209616, Note_off_c, 1, 81, 64
3, 209616, Note_off_c, 1, 84, 64
3, 209760, Note_on_c, 1, 81, 45
3, 209760, Note_on_c, 1, 84, 45
3, 209856, Note_off_c, 1, 84, 64
3, 209856, Note_off_c, 1, 81, 64
3, 210000, Note_on_c, 1, 84, 45
3, 210000, Note_on_c, 1, 81, 45
3, 210096, Note_off_c, 1, 81, 64
3, 210096, Note_off_c, 1, 84, 64
3, 210480, Note_on_c, 1, 79, 45
3, 210480, Note_on_c, 1, 83, 65
3, 210576, Note_off_c, 1, 83, 64
3, 210576, Note_off_c, 1, 79, 64
3, 210720, Note_on_c, 1, 83, 45
3, 210720, Note_on_c, 1, 79, 45
3, 210816, Note_off_c, 1, 79, 64
3, 210816, Note_off_c, 1, 83, 64
3, 210960, Note_on_c, 1, 83, 45
3, 210960, Note_on_c, 1, 79, 45
3, 211056, Note_off_c, 1, 79, 64
3, 211056, Note_off_c, 1, 83, 64
3, 211440, Note_on_c, 1, 84, 45
3, 211440, Note_on_c, 1, 81, 65
3, 211536, Note_off_c, 1, 81, 64
3, 211536, Note_off_c, 1, 84, 64
3, 211680, Note_on_c, 1, 84, 45
3, 211680, Note_on_c, 1, 81, 45
3, 211776, Note_off_c, 1, 81, 64
3, 211776, Note_off_c, 1, 84, 64
3, 211920, Note_on_c, 1, 81, 45
3, 211920, Note_on_c, 1, 84, 45
3, 212016, Note_off_c, 1, 84, 64
3, 212016, Note_off_c, 1, 81, 64
3, 212400, Note_on_c, 1, 79, 67
3, 212400, Note_on_c, 1, 83, 67
3, 212496, Note_off_c, 1, 83, 64
3, 212496, Note_off_c, 1, 79, 64
3, 212640, Note_on_c, 1, 67, 67
3, 212640, Note_on_c, 1, 71, 67
3, 212736, Note_off_c, 1, 71, 64
3, 212736, Note_off_c, 1, 67, 64
3, 212760, Note_on_c, 1, 69, 67
3, 212760, Note_on_c, 1, 72, 67
3, 212856, Note_off_c, 1, 72, 64
3, 212856, Note_off_c, 1, 69, 64
3, 212880, Note_on_c, 1, 71, 67
3, 212880, Note_on_c, 1, 74, 67
3, 212976, Note_off_c, 1, 74, 64
3, 212976, Note_off_c, 1, 71, 64
3, 213120, Note_on_c, 1, 71, 67
3, 213120, Note_on_c, 1, 74, 67
3, 213216, Note_off_c, 1, 74, 64
3, 213216, Note_off_c, 1, 71, 64
3, 213240, Note_on_c, 1, 76, 67
3, 213240, Note_on_c, 1, 72, 67
3, 213336, Note_off_c, 1, 72, 64
3, 213336, Note_off_c, 1, 76, 64
3, 213360, Note_on_c, 1, 77, 79
3, 213360, Note_on_c, 1, 74, 79
3, 213456, Note_off_c, 1, 74, 64
3, 213456, Note_off_c, 1, 77, 64
3, 213600, Note_on_c, 1, 72, 79
3, 213600, Note_on_c, 1, 76, 79
3, 213696, Note_off_c, 1, 76, 64
3, 213696, Note_off_c, 1, 72, 64
3, 213720, Note_on_c, 1, 74, 79
3, 213720, Note_on_c, 1, 77, 79
3, 213816, Note_off_c, 1, 77, 64
3, 213816, Note_off_c, 1, 74, 64
3, 213840, Note_on_c, 1, 76, 79
3, 213840, Note_on_c, 1, 79, 99
3, 213936, Note_off_c, 1, 79, 64
3, 213936, Note_off_c, 1, 76, 64
3, 214080, Note_on_c, 1, 74, 79
3, 214080, Note_on_c, 1, 77, 79
3, 214176, Note_off_c, 1, 77, 64
3, 214176, Note_off_c, 1, 74, 64
3, 214320, Note_on_c, 1, 72, 79
3, 214320, Note_on_c, 1, 76, 79
3, 214416, Note_off_c, 1, 76, 64
3, 214416, Note_off_c, 1, 72, 64
3, 214560, Note_on_c, 1, 71, 79
3, 214560, Note_on_c, 1, 74, 79
3, 214656, Note_off_c, 1, 74, 64
3, 214656, Note_off_c, 1, 71, 64
3, 214680, Note_on_c, 1, 72, 79
3, 214680, Note_on_c, 1, 76, 79
3, 214776, Note_off_c, 1, 76, 64
3, 214776, Note_off_c, 1, 72, 64
3, 214800, Note_on_c, 1, 74, 79
3, 214800, Note_on_c, 1, 77, 99
3, 214896, Note_off_c, 1, 77, 64
3, 214896, Note_off_c, 1, 74, 64
3, 215040, Note_on_c, 1, 72, 79
3, 215040, Note_on_c, 1, 76, 79
3, 215136, Note_off_c, 1, 76, 64
3, 215136, Note_off_c, 1, 72, 64
3, 215280, Note_on_c, 1, 67, 90
3, 215280, Note_on_c, 1, 79, 90
3, 217104, Note_off_c, 1, 79, 64
3, 217104, Note_off_c, 1, 67, 64
3, 217200, Note_on_c, 1, 76, 71
3, 217440, Note_off_c, 1, 76, 64
3, 217440, Note_on_c, 1, 77, 71
3, 217560, Note_off_c, 1, 77, 64
3, 217560, Note_on_c, 1, 79, 71
3, 217680, Note_off_c, 1, 79, 64
3, 217680, Note_on_c, 1, 81, 91
3, 217776, Note_off_c, 1, 81, 64
3, 217920, Note_on_c, 1, 81, 71
3, 218016, Note_off_c, 1, 81, 64
3, 218160, Note_on_c, 1, 74, 71
3, 218400, Note_off_c, 1, 74, 64
3, 218400, Note_on_c, 1, 76, 71
3, 218520, Note_off_c, 1, 76, 64
3, 218520, Note_on_c, 1, 77, 71
3, 218640, Note_off_c, 1, 77, 64
3, 218640, Note_on_c, 1, 79, 91
3, 218736, Note_off_c, 1, 79, 64
3, 218880, Note_on_c, 1, 67, 71
3, 218976, Note_off_c, 1, 67, 64
3, 219120, Note_on_c, 1, 72, 71
3, 219360, Note_off_c, 1, 72, 64
3, 219360, Note_on_c, 1, 74, 71
3, 219480, Note_off_c, 1, 74, 64
3, 219480, Note_on_c, 1, 76, 71
3, 219600, Note_off_c, 1, 76, 64
3, 219600, Note_on_c, 1, 77, 91
3, 219696, Note_off_c, 1, 77, 64
3, 219840, Note_on_c, 1, 77, 71
3, 219936, Note_off_c, 1, 77, 64
3, 220080, Note_on_c, 1, 71, 71
3, 220320, Note_off_c, 1, 71, 64
3, 220320, Note_on_c, 1, 72, 71
3, 220440, Note_off_c, 1, 72, 64
3, 220440, Note_on_c, 1, 74, 71
3, 220560, Note_off_c, 1, 74, 64
3, 220560, Note_on_c, 1, 76, 91
3, 220656, Note_off_c, 1, 76, 64
3, 220800, Note_on_c, 1, 64, 71
3, 220896, Note_off_c, 1, 64, 64
3, 221040, Note_on_c, 1, 69, 71
3, 221280, Note_off_c, 1, 69, 64
3, 221280, Note_on_c, 1, 71, 71
3, 221400, Note_off_c, 1, 71, 64
3, 221400, Note_on_c, 1, 72, 71
3, 221520, Note_off_c, 1, 72, 64
3, 221520, Note_on_c, 1, 74, 91
3, 221616, Note_off_c, 1, 74, 64
3, 221760, Note_on_c, 1, 74, 71
3, 221856, Note_off_c, 1, 74, 64
3, 222000, Note_on_c, 1, 67, 71
3, 222240, Note_off_c, 1, 67, 64
3, 222240, Note_on_c, 1, 69, 71
3, 222360, Note_off_c, 1, 69, 64
3, 222360, Note_on_c, 1, 71, 71
3, 222480, Note_off_c, 1, 71, 64
3, 222480, Note_on_c, 1, 72, 71
3, 222720, Note_off_c, 1, 72, 64
3, 222720, Note_on_c, 1, 74, 71
3, 222840, Note_off_c, 1, 74, 64
3, 222840, Note_on_c, 1, 76, 71
3, 222960, Note_off_c, 1, 76, 64
3, 222960, Note_on_c, 1, 77, 68
3, 223056, Note_off_c, 1, 77, 64
3, 223200, Note_on_c, 1, 76, 68
3, 223200, Note_on_c, 1, 72, 68
3, 223296, Note_off_c, 1, 72, 64
3, 223296, Note_off_c, 1, 76, 64
3, 223320, Note_on_c, 1, 74, 68
3, 223320, Note_on_c, 1, 77, 68
3, 223416, Note_off_c, 1, 77, 64
3, 223416, Note_off_c, 1, 74, 64
3, 223440, Note_on_c, 1, 79, 88
3, 223440, Note_on_c, 1, 76, 68
3, 223536, Note_off_c, 1, 76, 64
3, 223536, Note_off_c, 1, 79, 64
3, 223680, Note_on_c, 1, 74, 68
3, 223680, Note_on_c, 1, 77, 68
3, 223776, Note_off_c, 1, 77, 64
3, 223776, Note_off_c, 1, 74, 64
3, 223920, Note_on_c, 1, 72, 68
3, 223920, Note_on_c, 1, 76, 68
3, 224016, Note_off_c, 1, 76, 64
3, 224016, Note_off_c, 1, 72, 64
3, 224160, Note_on_c, 1, 74, 68
3, 224160, Note_on_c, 1, 71, 68
3, 224256, Note_off_c, 1, 71, 64
3, 224256, Note_off_c, 1, 74, 64
3, 224280, Note_on_c, 1, 76, 68
3, 224280, Note_on_c, 1, 72, 68
3, 224376, Note_off_c, 1, 72, 64
3, 224376, Note_off_c, 1, 76, 64
3, 224400, Note_on_c, 1, 77, 88
3, 224400, Note_on_c, 1, 74, 68
3, 224496, Note_off_c, 1, 74, 64
3, 224496, Note_off_c, 1, 77, 64
3, 224640, Note_on_c, 1, 72, 68
3, 224640, Note_on_c, 1, 76, 68
3, 224736, Note_off_c, 1, 76, 64
3, 224736, Note_off_c, 1, 72, 64
3, 224880, Note_on_c, 1, 77, 68
3, 224880, Note_on_c, 1, 71, 68
3, 224976, Note_off_c, 1, 71, 64
3, 224976, Note_off_c, 1, 77, 64
3, 225120, Note_on_c, 1, 76, 68
3, 225120, Note_on_c, 1, 72, 68
3, 225216, Note_off_c, 1, 72, 64
3, 225216, Note_off_c, 1, 76, 64
3, 225240, Note_on_c, 1, 74, 68
3, 225240, Note_on_c, 1, 77, 68
3, 225336, Note_off_c, 1, 77, 64
3, 225336, Note_off_c, 1, 74, 64
3, 225360, Note_on_c, 1, 79, 88
3, 225360, Note_on_c, 1, 76, 68
3, 225456, Note_off_c, 1, 76, 64
3, 225456, Note_off_c, 1, 79, 64
3, 225600, Note_on_c, 1, 74, 68
3, 225600, Note_on_c, 1, 77, 68
3, 225696, Note_off_c, 1, 77, 64
3, 225696, Note_off_c, 1, 74, 64
3, 225840, Note_on_c, 1, 72, 68
3, 225840, Note_on_c, 1, 76, 68
3, 225936, Note_off_c, 1, 76, 64
3, 225936, Note_off_c, 1, 72, 64
3, 226080, Note_on_c, 1, 71, 68
3, 226080, Note_on_c, 1, 74, 68
3, 226176, Note_off_c, 1, 74, 64
3, 226176, Note_off_c, 1, 71, 64
3, 226200, Note_on_c, 1, 72, 68
3, 226200, Note_on_c, 1, 76, 68
3, 226296, Note_off_c, 1, 76, 64
3, 226296, Note_off_c, 1, 72, 64
3, 226320, Note_on_c, 1, 74, 68
3, 226320, Note_on_c, 1, 77, 88
3, 226416, Note_off_c, 1, 77, 64
3, 226416, Note_off_c, 1, 74, 64
3, 226560, Note_on_c, 1, 76, 68
3, 226560, Note_on_c, 1, 72, 68
3, 226656, Note_off_c, 1, 72, 64
3, 226656, Note_off_c, 1, 76, 64
3, 226800, Note_on_c, 1, 72, 68
3, 226800, Note_on_c, 1, 76, 68
3, 226896, Note_off_c, 1, 76, 64
3, 226896, Note_off_c, 1, 72, 64
3, 227040, Note_on_c, 1, 74, 68
3, 227040, Note_on_c, 1, 71, 68
3, 227136, Note_off_c, 1, 71, 64
3, 227136, Note_off_c, 1, 74, 64
3, 227160, Note_on_c, 1, 72, 68
3, 227160, Note_on_c, 1, 76, 68
3, 227256, Note_off_c, 1, 76, 64
3, 227256, Note_off_c, 1, 72, 64
3, 227280, Note_on_c, 1, 77, 88
3, 227280, Note_on_c, 1, 74, 68
3, 227376, Note_off_c, 1, 74, 64
3, 227376, Note_off_c, 1, 77, 64
3, 227520, Note_on_c, 1, 76, 68
3, 227520, Note_on_c, 1, 72, 68
3, 227616, Note_off_c, 1, 72, 64
3, 227616, Note_off_c, 1, 76, 64
3, 227760, Note_on_c, 1, 72, 68
3, 227760, Note_on_c, 1, 76, 68
3, 227856, Note_off_c, 1, 76, 64
3, 227856, Note_off_c, 1, 72, 64
3, 228000, Note_on_c, 1, 71, 68
3, 228000, Note_on_c, 1, 74, 68
3, 228096, Note_off_c, 1, 74, 64
3, 228096, Note_off_c, 1, 71, 64
3, 228120, Note_on_c, 1, 72, 68
3, 228120, Note_on_c, 1, 76, 68
3, 228216, Note_off_c, 1, 76, 64
3, 228216, Note_off_c, 1, 72, 64
3, 228240, Note_on_c, 1, 74, 68
3, 228240, Note_on_c, 1, 77, 88
3, 228336, Note_off_c, 1, 77, 64
3, 228336, Note_off_c, 1, 74, 64
3, 228480, Note_on_c, 1, 72, 68
3, 228480, Note_on_c, 1, 76, 68
3, 228576, Note_off_c, 1, 76, 64
3, 228576, Note_off_c, 1, 72, 64
3, 228720, Note_on_c, 1, 74, 82
3, 228816, Note_off_c, 1, 74, 64
3, 228960, Note_on_c, 1, 73, 82
3, 229056, Note_off_c, 1, 73, 64
3, 229080, Note_on_c, 1, 74, 82
3, 229176, Note_off_c, 1, 74, 64
3, 229200, Note_on_c, 1, 76, 82
3, 229296, Note_off_c, 1, 76, 64
3, 229440, Note_on_c, 1, 74, 82
3, 229536, Note_off_c, 1, 74, 64
3, 229680, Note_on_c, 1, 74, 82
3, 229776, Note_off_c, 1, 74, 64
3, 229920, Note_on_c, 1, 73, 82
3, 230016, Note_off_c, 1, 73, 64
3, 230040, Note_on_c, 1, 74, 82
3, 230136, Note_off_c, 1, 74, 64
3, 230160, Note_on_c, 1, 76, 82
3, 230256, Note_off_c, 1, 76, 64
3, 230400, Note_on_c, 1, 74, 82
3, 230496, Note_off_c, 1, 74, 64
3, 230640, Note_on_c, 1, 72, 82
3, 230736, Note_off_c, 1, 72, 64
3, 230880, Note_on_c, 1, 71, 82
3, 230976, Note_off_c, 1, 71, 64
3, 231000, Note_on_c, 1, 72, 82
3, 231096, Note_off_c, 1, 72, 64
3, 231120, Note_on_c, 1, 74, 82
3, 231216, Note_off_c, 1, 74, 64
3, 231360, Note_on_c, 1, 72, 82
3, 231456, Note_off_c, 1, 72, 64
3, 231600, Note_on_c, 1, 72, 82
3, 231696, Note_off_c, 1, 72, 64
3, 231720, Note_on_c, 1, 71, 82
3, 231816, Note_off_c, 1, 71, 64
3, 231840, Note_on_c, 1, 69, 82
3, 231936, Note_off_c, 1, 69, 64
3, 231960, Note_on_c, 1, 71, 82
3, 232056, Note_off_c, 1, 71, 64
3, 232080, Note_on_c, 1, 72, 82
3, 232176, Note_off_c, 1, 72, 64
3, 232200, Note_on_c, 1, 69, 82
3, 232296, Note_off_c, 1, 69, 64
3, 232320, Note_on_c, 1, 71, 82
3, 232416, Note_off_c, 1, 71, 64
3, 232440, Note_on_c, 1, 72, 82
3, 232536, Note_off_c, 1, 72, 64
3, 232560, Note_on_c, 1, 74, 46
3, 232656, Note_off_c, 1, 74, 64
3, 232800, Note_on_c, 1, 67, 46
3, 232896, Note_off_c, 1, 67, 64
3, 233040, Note_on_c, 1, 79, 54
3, 233904, Note_off_c, 1, 79, 64
3, 234000, Note_on_c, 1, 78, 54
3, 234864, Note_off_c, 1, 78, 64
3, 234960, Note_on_c, 1, 76, 54
3, 235824, Note_off_c, 1, 76, 64
3, 235920, Note_on_c, 1, 74, 54
3, 236784, Note_off_c, 1, 74, 64
3, 236880, Note_on_c, 1, 72, 54
3, 237744, Note_off_c, 1, 72, 64
3, 237840, Note_on_c, 1, 71, 46
3, 238224, Note_off_c, 1, 71, 64
3, 238320, Note_on_c, 1, 69, 45
3, 238380, Note_off_c, 1, 69, 64
3, 238440, Note_on_c, 1, 74, 45
3, 238500, Note_off_c, 1, 74, 64
3, 238560, Note_on_c, 1, 81, 45
3, 238620, Note_off_c, 1, 81, 64
3, 238680, Note_on_c, 1, 79, 45
3, 238740, Note_off_c, 1, 79, 64
3, 238800, Note_on_c, 1, 78, 45
3, 238860, Note_off_c, 1, 78, 64
3, 238920, Note_on_c, 1, 74, 45
3, 238980, Note_off_c, 1, 74, 64
3, 239040, Note_on_c, 1, 76, 45
3, 239100, Note_off_c, 1, 76, 64
3, 239160, Note_on_c, 1, 78, 45
3, 239220, Note_off_c, 1, 78, 64
3, 239280, Note_on_c, 1, 79, 45
3, 239340, Note_off_c, 1, 79, 64
3, 239400, Note_on_c, 1, 86, 45
3, 239460, Note_off_c, 1, 86, 64
3, 239520, Note_on_c, 1, 84, 45
3, 239580, Note_off_c, 1, 84, 64
3, 239640, Note_on_c, 1, 83, 45
3, 239700, Note_off_c, 1, 83, 64
3, 239760, Note_on_c, 1, 81, 45
3, 239820, Note_off_c, 1, 81, 64
3, 239880, Note_on_c, 1, 79, 45
3, 239940, Note_off_c, 1, 79, 64
3, 240000, Note_on_c, 1, 78, 45
3, 240060, Note_off_c, 1, 78, 64
3, 240120, Note_on_c, 1, 79, 45
3, 240180, Note_off_c, 1, 79, 64
3, 240240, Note_on_c, 1, 74, 45
3, 240300, Note_off_c, 1, 74, 64
3, 240360, Note_on_c, 1, 67, 45
3, 240420, Note_off_c, 1, 67, 64
3, 240480, Note_on_c, 1, 74, 45
3, 240540, Note_off_c, 1, 74, 64
3, 240600, Note_on_c, 1, 72, 45
3, 240660, Note_off_c, 1, 72, 64
3, 240720, Note_on_c, 1, 71, 45
3, 240780, Note_off_c, 1, 71, 64
3, 240840, Note_on_c, 1, 67, 45
3, 240900, Note_off_c, 1, 67, 64
3, 240960, Note_on_c, 1, 69, 45
3, 241020, Note_off_c, 1, 69, 64
3, 241080, Note_on_c, 1, 71, 45
3, 241140, Note_off_c, 1, 71, 64
3, 241200, Note_on_c, 1, 72, 45
3, 241260, Note_off_c, 1, 72, 64
3, 241320, Note_on_c, 1, 79, 45
3, 241380, Note_off_c, 1, 79, 64
3, 241440, Note_on_c, 1, 77, 45
3, 241500, Note_off_c, 1, 77, 64
3, 241560, Note_on_c, 1, 76, 45
3, 241620, Note_off_c, 1, 76, 64
3, 241680, Note_on_c, 1, 74, 45
3, 241740, Note_off_c, 1, 74, 64
3, 241800, Note_on_c, 1, 72, 45
3, 241860, Note_off_c, 1, 72, 64
3, 241920, Note_on_c, 1, 71, 45
3, 241980, Note_off_c, 1, 71, 64
3, 242040, Note_on_c, 1, 72, 45
3, 242100, Note_off_c, 1, 72, 64
3, 242160, Note_on_c, 1, 74, 45
3, 242220, Note_off_c, 1, 74, 64
3, 242280, Note_on_c, 1, 67, 45
3, 242340, Note_off_c, 1, 67, 64
3, 242400, Note_on_c, 1, 74, 45
3, 242460, Note_off_c, 1, 74, 64
3, 242520, Note_on_c, 1, 72, 45
3, 242580, Note_off_c, 1, 72, 64
3, 242640, Note_on_c, 1, 71, 45
3, 242700, Note_off_c, 1, 71, 64
3, 242760, Note_on_c, 1, 67, 45
3, 242820, Note_off_c, 1, 67, 64
3, 242880, Note_on_c, 1, 69, 45
3, 242940, Note_off_c, 1, 69, 64
3, 243000, Note_on_c, 1, 71, 45
3, 243060, Note_off_c, 1, 71, 64
3, 243120, Note_on_c, 1, 72, 50
3, 243216, Note_off_c, 1, 72, 64
3, 243360, Note_on_c, 1, 76, 50
3, 243360, Note_on_c, 1, 72, 50
3, 243456, Note_off_c, 1, 72, 64
3, 243456, Note_off_c, 1, 76, 64
3, 243600, Note_on_c, 1, 76, 50
3, 243600, Note_on_c, 1, 72, 50
3, 243696, Note_off_c, 1, 72, 64
3, 243696, Note_off_c, 1, 76, 64
3, 243840, Note_on_c, 1, 77, 40
3, 243840, Note_on_c, 1, 74, 40
3, 243888, Note_off_c, 1, 74, 64
3, 243888, Note_off_c, 1, 77, 64
3, 243960, Note_on_c, 1, 79, 40
3, 243960, Note_on_c, 1, 76, 40
3, 244008, Note_off_c, 1, 76, 64
3, 244008, Note_off_c, 1, 79, 64
3, 244080, Note_on_c, 1, 81, 29
3, 244080, Note_on_c, 1, 77, 29
3, 244464, Note_off_c, 1, 77, 64
3, 244464, Note_off_c, 1, 81, 64
3, 246240, Note_on_c, 1, 81, 36
3, 246240, Note_on_c, 1, 77, 36
3, 246336, Note_off_c, 1, 77, 64
3, 246336, Note_off_c, 1, 81, 64
3, 246480, Note_on_c, 1, 81, 36
3, 246480, Note_on_c, 1, 77, 36
3, 246576, Note_off_c, 1, 77, 64
3, 246576, Note_off_c, 1, 81, 64
3, 246720, Note_on_c, 1, 81, 36
3, 246720, Note_on_c, 1, 77, 36
3, 246816, Note_off_c, 1, 77, 64
3, 246816, Note_off_c, 1, 81, 64
3, 247200, Note_on_c, 1, 77, 36
3, 247200, Note_on_c, 1, 81, 36
3, 247296, Note_off_c, 1, 81, 64
3, 247296, Note_off_c, 1, 77, 64
3, 247440, Note_on_c, 1, 81, 36
3, 247440, Note_on_c, 1, 77, 36
3, 247536, Note_off_c, 1, 77, 64
3, 247536, Note_off_c, 1, 81, 64
3, 247680, Note_on_c, 1, 77, 36
3, 247680, Note_on_c, 1, 81, 36
3, 247776, Note_off_c, 1, 81, 64
3, 247776, Note_off_c, 1, 77, 64
3, 248160, Note_on_c, 1, 79, 36
3, 248160, Note_on_c, 1, 77, 36
3, 248256, Note_off_c, 1, 77, 64
3, 248256, Note_off_c, 1, 79, 64
3, 248400, Note_on_c, 1, 79, 36
3, 248400, Note_on_c, 1, 76, 36
3, 248496, Note_off_c, 1, 76, 64
3, 248496, Note_off_c, 1, 79, 64
3, 248640, Note_on_c, 1, 76, 36
3, 248640, Note_on_c, 1, 79, 36
3, 248736, Note_off_c, 1, 79, 64
3, 248736, Note_off_c, 1, 76, 64
3, 249120, Note_on_c, 1, 76, 36
3, 249120, Note_on_c, 1, 77, 36
3, 249216, Note_off_c, 1, 77, 64
3, 249216, Note_off_c, 1, 76, 64
3, 249360, Note_on_c, 1, 77, 36
3, 249360, Note_on_c, 1, 74, 36
3, 249456, Note_off_c, 1, 74, 64
3, 249456, Note_off_c, 1, 77, 64
3, 249600, Note_on_c, 1, 77, 36
3, 249600, Note_on_c, 1, 74, 36
3, 249696, Note_off_c, 1, 74, 64
3, 249696, Note_off_c, 1, 77, 64
3, 250080, Note_on_c, 1, 76, 36
3, 250080, Note_on_c, 1, 74, 36
3, 250176, Note_off_c, 1, 74, 64
3, 250176, Note_off_c, 1, 76, 64
3, 250320, Note_on_c, 1, 76, 36
3, 250320, Note_on_c, 1, 72, 36
3, 250416, Note_off_c, 1, 72, 64
3, 250416, Note_off_c, 1, 76, 64
3, 250560, Note_on_c, 1, 72, 36
3, 250560, Note_on_c, 1, 76, 36
3, 250656, Note_off_c, 1, 76, 64
3, 250656, Note_off_c, 1, 72, 64
3, 251040, Note_on_c, 1, 72, 36
3, 251040, Note_on_c, 1, 74, 36
3, 251136, Note_off_c, 1, 74, 64
3, 251136, Note_off_c, 1, 72, 64
3, 251280, Note_on_c, 1, 70, 36
3, 251280, Note_on_c, 1, 74, 36
3, 251376, Note_off_c, 1, 74, 64
3, 251376, Note_off_c, 1, 70, 64
3, 251520, Note_on_c, 1, 74, 36
3, 251520, Note_on_c, 1, 70, 36
3, 251616, Note_off_c, 1, 70, 64
3, 251616, Note_off_c, 1, 74, 64
3, 252000, Note_on_c, 1, 72, 36
3, 252000, Note_on_c, 1, 70, 36
3, 252096, Note_off_c, 1, 70, 64
3, 252096, Note_off_c, 1, 72, 64
3, 252240, Note_on_c, 1, 69, 36
3, 252240, Note_on_c, 1, 72, 36
3, 252336, Note_off_c, 1, 72, 64
3, 252336, Note_off_c, 1, 69, 64
3, 252480, Note_on_c, 1, 72, 36
3, 252480, Note_on_c, 1, 69, 36
3, 252576, Note_off_c, 1, 69, 64
3, 252576, Note_off_c, 1, 72, 64
3, 252960, Note_on_c, 1, 69, 36
3, 252960, Note_on_c, 1, 70, 36
3, 253056, Note_off_c, 1, 70, 64
3, 253056, Note_off_c, 1, 69, 64
3, 253200, Note_on_c, 1, 67, 36
3, 253200, Note_on_c, 1, 70, 36
3, 253296, Note_off_c, 1, 70, 64
3, 253296, Note_off_c, 1, 67, 64
3, 253440, Note_on_c, 1, 67, 36
3, 253440, Note_on_c, 1, 70, 36
3, 253536, Note_off_c, 1, 70, 64
3, 253536, Note_off_c, 1, 67, 64
3, 253680, Note_on_c, 1, 72, 50
3, 253776, Note_off_c, 1, 72, 64
3, 253920, Note_on_c, 1, 71, 50
3, 254016, Note_off_c, 1, 71, 64
3, 254040, Note_on_c, 1, 72, 50
3, 254136, Note_off_c, 1, 72, 64
3, 254160, Note_on_c, 1, 74, 50
3, 254256, Note_off_c, 1, 74, 64
3, 254400, Note_on_c, 1, 72, 50
3, 254496, Note_off_c, 1, 72, 64
3, 254640, Note_on_c, 1, 72, 50
3, 255090, Note_off_c, 1, 72, 64
3, 255600, Note_on_c, 1, 81, 40
3, 255696, Note_off_c, 1, 81, 64
3, 255840, Note_on_c, 1, 79, 40
3, 255936, Note_off_c, 1, 79, 64
3, 255960, Note_on_c, 1, 81, 40
3, 256056, Note_off_c, 1, 81, 64
3, 256080, Note_on_c, 1, 82, 40
3, 256176, Note_off_c, 1, 82, 64
3, 256320, Note_on_c, 1, 81, 40
3, 256416, Note_off_c, 1, 81, 64
3, 256560, Note_on_c, 1, 81, 40
3, 257010, Note_off_c, 1, 81, 64
3, 257520, Note_on_c, 1, 79, 40
3, 257616, Note_off_c, 1, 79, 64
3, 257760, Note_on_c, 1, 78, 40
3, 257856, Note_off_c, 1, 78, 64
3, 257880, Note_on_c, 1, 79, 40
3, 257976, Note_off_c, 1, 79, 64
3, 258000, Note_on_c, 1, 81, 40
3, 258096, Note_off_c, 1, 81, 64
3, 258240, Note_on_c, 1, 79, 40
3, 258336, Note_off_c, 1, 79, 64
3, 258480, Note_on_c, 1, 79, 40
3, 258930, Note_off_c, 1, 79, 64
3, 259440, Note_on_c, 1, 74, 45
3, 259488, Note_off_c, 1, 74, 64
3, 259560, Note_on_c, 1, 81, 45
3, 259608, Note_off_c, 1, 81, 64
3, 259680, Note_on_c, 1, 79, 45
3, 259728, Note_off_c, 1, 79, 64
3, 259800, Note_on_c, 1, 77, 45
3, 259848, Note_off_c, 1, 77, 64
3, 259920, Note_on_c, 1, 76, 45
3, 259968, Note_off_c, 1, 76, 64
3, 260040, Note_on_c, 1, 74, 45
3, 260088, Note_off_c, 1, 74, 64
3, 260160, Note_on_c, 1, 73, 45
3, 260208, Note_off_c, 1, 73, 64
3, 260280, Note_on_c, 1, 74, 45
3, 260328, Note_off_c, 1, 74, 64
3, 260400, Note_on_c, 1, 76, 45
3, 260496, Note_off_c, 1, 76, 64
3, 260640, Note_on_c, 1, 76, 45
3, 260736, Note_off_c, 1, 76, 64
3, 260880, Note_on_c, 1, 77, 45
3, 260976, Note_off_c, 1, 77, 64
3, 261120, Note_on_c, 1, 76, 45
3, 261216, Note_off_c, 1, 76, 64
3, 262320, Note_on_c, 1, 77, 50
3, 262416, Note_off_c, 1, 77, 64
3, 262560, Note_on_c, 1, 76, 50
3, 262656, Note_off_c, 1, 76, 64
3, 262680, Note_on_c, 1, 77, 50
3, 262776, Note_off_c, 1, 77, 64
3, 262800, Note_on_c, 1, 79, 50
3, 262896, Note_off_c, 1, 79, 64
3, 263040, Note_on_c, 1, 77, 50
3, 263136, Note_off_c, 1, 77, 64
3, 263280, Note_on_c, 1, 76, 50
3, 263730, Note_off_c, 1, 76, 64
3, 264240, Note_on_c, 1, 77, 50
3, 264336, Note_off_c, 1, 77, 64
3, 264480, Note_on_c, 1, 76, 50
3, 264576, Note_off_c, 1, 76, 64
3, 264600, Note_on_c, 1, 77, 50
3, 264696, Note_off_c, 1, 77, 64
3, 264720, Note_on_c, 1, 79, 50
3, 264816, Note_off_c, 1, 79, 64
3, 264960, Note_on_c, 1, 77, 50
3, 265056, Note_off_c, 1, 77, 64
3, 265200, Note_on_c, 1, 76, 42
3, 265296, Note_off_c, 1, 76, 64
3, 265440, Note_on_c, 1, 74, 42
3, 265536, Note_off_c, 1, 74, 64
3, 265560, Note_on_c, 1, 76, 42
3, 265656, Note_off_c, 1, 76, 64
3, 265680, Note_on_c, 1, 77, 42
3, 265776, Note_off_c, 1, 77, 64
3, 265920, Note_on_c, 1, 76, 42
3, 266016, Note_off_c, 1, 76, 64
3, 266160, Note_on_c, 1, 76, 42
3, 266256, Note_off_c, 1, 76, 64
3, 266400, Note_on_c, 1, 74, 42
3, 266496, Note_off_c, 1, 74, 64
3, 266520, Note_on_c, 1, 76, 42
3, 266616, Note_off_c, 1, 76, 64
3, 266640, Note_on_c, 1, 77, 42
3, 266736, Note_off_c, 1, 77, 64
3, 266880, Note_on_c, 1, 76, 42
3, 266976, Note_off_c, 1, 76, 64
3, 267120, Note_on_c, 1, 74, 42
3, 267216, Note_off_c, 1, 74, 64
3, 267360, Note_on_c, 1, 72, 42
3, 267456, Note_off_c, 1, 72, 64
3, 267480, Note_on_c, 1, 74, 42
3, 267576, Note_off_c, 1, 74, 64
3, 267600, Note_on_c, 1, 76, 42
3, 267696, Note_off_c, 1, 76, 64
3, 267840, Note_on_c, 1, 74, 42
3, 267936, Note_off_c, 1, 74, 64
3, 268080, Note_on_c, 1, 72, 42
3, 268176, Note_off_c, 1, 72, 64
3, 268320, Note_on_c, 1, 71, 42
3, 268416, Note_off_c, 1, 71, 64
3, 268440, Note_on_c, 1, 72, 42
3, 268536, Note_off_c, 1, 72, 64
3, 268560, Note_on_c, 1, 74, 42
3, 268656, Note_off_c, 1, 74, 64
3, 268800, Note_on_c, 1, 72, 42
3, 268896, Note_off_c, 1, 72, 64
3, 269040, Note_on_c, 1, 71, 29
3, 269424, Note_off_c, 1, 71, 64
3, 269520, Note_on_c, 1, 64, 29
3, 269904, Note_off_c, 1, 64, 64
3, 278640, Note_on_c, 1, 81, 38
3, 278880, Note_off_c, 1, 81, 64
3, 278880, Note_on_c, 1, 78, 38
3, 279000, Note_off_c, 1, 78, 64
3, 279000, Note_on_c, 1, 76, 38
3, 279120, Note_off_c, 1, 76, 64
3, 279120, Note_on_c, 1, 74, 38
3, 279216, Note_off_c, 1, 74, 64
3, 279360, Note_on_c, 1, 74, 38
3, 279456, Note_off_c, 1, 74, 64
3, 279600, Note_on_c, 1, 74, 38
3, 280080, Note_off_c, 1, 74, 64
3, 280560, Note_on_c, 1, 69, 38
3, 280800, Note_off_c, 1, 69, 64
3, 280800, Note_on_c, 1, 71, 38
3, 280920, Note_off_c, 1, 71, 64
3, 280920, Note_on_c, 1, 72, 38
3, 281040, Note_off_c, 1, 72, 64
3, 281040, Note_on_c, 1, 74, 38
3, 281136, Note_off_c, 1, 74, 64
3, 281280, Note_on_c, 1, 74, 38
3, 281376, Note_off_c, 1, 74, 64
3, 281520, Note_on_c, 1, 74, 38
3, 282000, Note_off_c, 1, 74, 64
3, 282480, Note_on_c, 1, 74, 48
3, 282720, Note_off_c, 1, 74, 64
3, 282720, Note_on_c, 1, 76, 48
3, 282840, Note_off_c, 1, 76, 64
3, 282840, Note_on_c, 1, 78, 48
3, 282960, Note_off_c, 1, 78, 64
3, 282960, Note_on_c, 1, 79, 48
3, 283056, Note_off_c, 1, 79, 64
3, 283200, Note_on_c, 1, 79, 48
3, 283296, Note_off_c, 1, 79, 64
3, 283440, Note_on_c, 1, 79, 48
3, 283920, Note_off_c, 1, 79, 64
3, 286320, Note_on_c, 1, 76, 48
3, 286560, Note_off_c, 1, 76, 64
3, 286560, Note_on_c, 1, 78, 48
3, 286680, Note_off_c, 1, 78, 64
3, 286680, Note_on_c, 1, 79, 48
3, 286800, Note_off_c, 1, 79, 64
3, 286800, Note_on_c, 1, 81, 48
3, 286896, Note_off_c, 1, 81, 64
3, 287040, Note_on_c, 1, 81, 48
3, 287136, Note_off_c, 1, 81, 64
3, 287280, Note_on_c, 1, 81, 48
3, 287760, Note_off_c, 1, 81, 64
3, 289200, Note_on_c, 1, 83, 38
3, 289968, Note_off_c, 1, 83, 64
3, 294960, Note_on_c, 1, 71, 78
3, 296400, Note_on_c, 1, 76, 80
3, 296784, Note_off_c, 1, 71, 64
3, 296880, Note_on_c, 1, 69, 80
3, 297264, Note_off_c, 1, 76, 64
3, 297360, Note_on_c, 1, 74, 80
3, 297744, Note_off_c, 1, 69, 64
3, 297840, Note_on_c, 1, 67, 80
3, 298224, Note_off_c, 1, 74, 64
3, 298320, Note_on_c, 1, 72, 80
3, 298704, Note_off_c, 1, 67, 64
3, 298800, Note_on_c, 1, 66, 80
3, 299184, Note_off_c, 1, 72, 64
3, 299280, Note_on_c, 1, 71, 80
3, 299664, Note_off_c, 1, 66, 64
3, 299760, Note_on_c, 1, 64, 80
3, 300144, Note_off_c, 1, 71, 64
3, 300240, Note_on_c, 1, 69, 80
3, 300624, Note_off_c, 1, 64, 64
3, 300624, Note_off_c, 1, 69, 64
3, 300720, Note_on_c, 1, 78, 64
3, 300720, Note_on_c, 1, 81, 64
3, 300864, Note_off_c, 1, 81, 64
3, 300864, Note_off_c, 1, 78, 64
3, 301200, Note_on_c, 1, 76, 64
3, 301200, Note_on_c, 1, 79, 64
3, 301344, Note_off_c, 1, 79, 64
3, 301344, Note_off_c, 1, 76, 64
3, 301680, Note_on_c, 1, 81, 80
3, 301680, Note_on_c, 1, 78, 80
3, 301824, Note_off_c, 1, 78, 64
3, 301824, Note_off_c, 1, 81, 64
3, 302160, Note_on_c, 1, 76, 80
3, 302160, Note_on_c, 1, 79, 80
3, 302304, Note_off_c, 1, 79, 64
3, 302304, Note_off_c, 1, 76, 64
3, 302640, Note_on_c, 1, 81, 80
3, 302640, Note_on_c, 1, 78, 80
3, 302784, Note_off_c, 1, 78, 64
3, 302784, Note_off_c, 1, 81, 64
3, 303120, Note_on_c, 1, 79, 80
3, 303120, Note_on_c, 1, 76, 80
3, 303264, Note_off_c, 1, 76, 64
3, 303264, Note_off_c, 1, 79, 64
3, 303600, Note_on_c, 1, 78, 80
3, 303600, Note_on_c, 1, 75, 80
3, 303744, Note_off_c, 1, 75, 64
3, 303744, Note_off_c, 1, 78, 64
3, 304080, Note_on_c, 1, 79, 80
3, 304080, Note_on_c, 1, 76, 80
3, 304224, Note_off_c, 1, 76, 64
3, 304224, Note_off_c, 1, 79, 64
3, 304560, Note_on_c, 1, 81, 80
3, 304560, Note_on_c, 1, 71, 80
3, 304704, Note_off_c, 1, 71, 64
3, 304704, Note_off_c, 1, 81, 64
3, 305040, Note_on_c, 1, 71, 80
3, 305040, Note_on_c, 1, 79, 80
3, 305184, Note_off_c, 1, 79, 64
3, 305184, Note_off_c, 1, 71, 64
3, 305520, Note_on_c, 1, 78, 80
3, 305520, Note_on_c, 1, 71, 80
3, 305664, Note_off_c, 1, 71, 64
3, 305664, Note_off_c, 1, 78, 64
3, 306000, Note_on_c, 1, 76, 80
3, 306000, Note_on_c, 1, 71, 80
3, 306144, Note_off_c, 1, 71, 64
3, 306144, Note_off_c, 1, 76, 64
3, 306540, Note_on_c, 1, 76, 80
3, 306684, Note_off_c, 1, 76, 64
3, 307080, Note_on_c, 1, 76, 80
3, 307224, Note_off_c, 1, 76, 64
3, 307680, Note_on_c, 1, 76, 80
3, 307680, Note_on_c, 1, 79, 80
3, 309216, Note_off_c, 1, 79, 64
3, 309216, Note_off_c, 1, 76, 64
3, 309600, Note_on_c, 1, 76, 80
3, 309600, Note_on_c, 1, 79, 80
3, 311136, Note_off_c, 1, 79, 64
3, 311136, Note_off_c, 1, 76, 64
3, 311520, Note_on_c, 1, 76, 80
3, 311520, Note_on_c, 1, 79, 80
3, 313056, Note_off_c, 1, 79, 64
3, 313056, Note_off_c, 1, 76, 64
3, 313440, Note_on_c, 1, 79, 80
3, 313440, Note_on_c, 1, 76, 80
3, 313824, Note_off_c, 1, 76, 64
3, 313824, Note_off_c, 1, 79, 64
3, 313920, Note_on_c, 1, 79, 80
3, 313920, Note_on_c, 1, 76, 80
3, 314304, Note_off_c, 1, 76, 64
3, 314304, Note_off_c, 1, 79, 64
3, 314400, Note_on_c, 1, 79, 80
3, 314400, Note_on_c, 1, 76, 80
3, 314784, Note_off_c, 1, 76, 64
3, 314784, Note_off_c, 1, 79, 64
3, 314880, Note_on_c, 1, 79, 80
3, 314880, Note_on_c, 1, 76, 80
3, 315264, Note_off_c, 1, 76, 64
3, 315264, Note_off_c, 1, 79, 64
3, 315360, Note_on_c, 1, 79, 80
3, 315360, Note_on_c, 1, 76, 80
3, 316896, Note_off_c, 1, 76, 64
3, 316896, Note_off_c, 1, 79, 64
3, 317280, Note_on_c, 1, 79, 80
3, 317280, Note_on_c, 1, 76, 80
3, 318816, Note_off_c, 1, 76, 64
3, 318816, Note_off_c, 1, 79, 64
3, 319200, Note_on_c, 1, 79, 80
3, 319200, Note_on_c, 1, 76, 80
3, 320736, Note_off_c, 1, 76, 64
3, 320736, Note_off_c, 1, 79, 64
3, 321120, Note_on_c, 1, 79, 80
3, 321120, Note_on_c, 1, 76, 80
3, 321504, Note_off_c, 1, 76, 64
3, 321504, Note_off_c, 1, 79, 64
3, 321600, Note_on_c, 1, 79, 80
3, 321600, Note_on_c, 1, 76, 80
3, 321984, Note_off_c, 1, 76, 64
3, 321984, Note_off_c, 1, 79, 64
3, 322080, Note_on_c, 1, 76, 80
3, 322080, Note_on_c, 1, 79, 80
3, 322464, Note_off_c, 1, 79, 64
3, 322464, Note_off_c, 1, 76, 64
3, 322560, Note_on_c, 1, 75, 80
3, 322560, Note_on_c, 1, 78, 80
3, 322944, Note_off_c, 1, 78, 64
3, 322944, Note_off_c, 1, 75, 64
3, 323040, Note_on_c, 1, 79, 92
3, 323040, Note_on_c, 1, 76, 52
3, 323136, Note_off_c, 1, 76, 64
3, 323136, Note_off_c, 1, 79, 64
3, 323280, Note_on_c, 1, 78, 52
3, 323400, Note_off_c, 1, 78, 64
3, 323400, Note_on_c, 1, 79, 52
3, 323520, Note_off_c, 1, 79, 64
3, 323520, Note_on_c, 1, 81, 52
3, 323616, Note_off_c, 1, 81, 64
3, 323760, Note_on_c, 1, 79, 52
3, 323856, Note_off_c, 1, 79, 64
3, 324000, Note_on_c, 1, 78, 52
3, 324096, Note_off_c, 1, 78, 64
3, 324240, Note_on_c, 1, 76, 52
3, 324360, Note_off_c, 1, 76, 64
3, 324360, Note_on_c, 1, 78, 52
3, 324480, Note_off_c, 1, 78, 64
3, 324480, Note_on_c, 1, 79, 52
3, 324576, Note_off_c, 1, 79, 64
3, 324720, Note_on_c, 1, 78, 52
3, 324816, Note_off_c, 1, 78, 64
3, 324960, Note_on_c, 1, 79, 52
3, 325056, Note_off_c, 1, 79, 64
3, 325200, Note_on_c, 1, 78, 52
3, 325320, Note_off_c, 1, 78, 64
3, 325320, Note_on_c, 1, 79, 52
3, 325440, Note_off_c, 1, 79, 64
3, 325440, Note_on_c, 1, 81, 52
3, 325536, Note_off_c, 1, 81, 64
3, 325680, Note_on_c, 1, 79, 52
3, 325776, Note_off_c, 1, 79, 64
3, 325920, Note_on_c, 1, 75, 60
3, 325920, Note_on_c, 1, 78, 60
3, 326016, Note_off_c, 1, 78, 64
3, 326016, Note_off_c, 1, 75, 64
3, 326160, Note_on_c, 1, 75, 60
3, 326160, Note_on_c, 1, 78, 60
3, 326256, Note_off_c, 1, 78, 64
3, 326256, Note_off_c, 1, 75, 64
3, 326400, Note_on_c, 1, 78, 60
3, 326400, Note_on_c, 1, 75, 60
3, 326496, Note_off_c, 1, 75, 64
3, 326496, Note_off_c, 1, 78, 64
3, 326640, Note_on_c, 1, 78, 60
3, 326640, Note_on_c, 1, 75, 60
3, 326736, Note_off_c, 1, 75, 64
3, 326736, Note_off_c, 1, 78, 64
3, 326880, Note_on_c, 1, 79, 92
3, 326880, Note_on_c, 1, 76, 52
3, 326976, Note_off_c, 1, 76, 64
3, 326976, Note_off_c, 1, 79, 64
3, 327120, Note_on_c, 1, 78, 52
3, 327240, Note_off_c, 1, 78, 64
3, 327240, Note_on_c, 1, 79, 52
3, 327360, Note_off_c, 1, 79, 64
3, 327360, Note_on_c, 1, 81, 52
3, 327456, Note_off_c, 1, 81, 64
3, 327600, Note_on_c, 1, 79, 52
3, 327696, Note_off_c, 1, 79, 64
3, 327840, Note_on_c, 1, 78, 52
3, 327936, Note_off_c, 1, 78, 64
3, 328080, Note_on_c, 1, 76, 52
3, 328200, Note_off_c, 1, 76, 64
3, 328200, Note_on_c, 1, 78, 52
3, 328320, Note_off_c, 1, 78, 64
3, 328320, Note_on_c, 1, 79, 52
3, 328416, Note_off_c, 1, 79, 64
3, 328560, Note_on_c, 1, 78, 52
3, 328656, Note_off_c, 1, 78, 64
3, 328800, Note_on_c, 1, 79, 52
3, 328896, Note_off_c, 1, 79, 64
3, 329040, Note_on_c, 1, 78, 52
3, 329160, Note_off_c, 1, 78, 64
3, 329160, Note_on_c, 1, 79, 52
3, 329280, Note_off_c, 1, 79, 64
3, 329280, Note_on_c, 1, 81, 52
3, 329376, Note_off_c, 1, 81, 64
3, 329520, Note_on_c, 1, 79, 52
3, 329616, Note_off_c, 1, 79, 64
3, 329760, Note_on_c, 1, 75, 60
3, 329760, Note_on_c, 1, 78, 60
3, 329856, Note_off_c, 1, 78, 64
3, 329856, Note_off_c, 1, 75, 64
3, 330000, Note_on_c, 1, 75, 60
3, 330000, Note_on_c, 1, 78, 60
3, 330096, Note_off_c, 1, 78, 64
3, 330096, Note_off_c, 1, 75, 64
3, 330240, Note_on_c, 1, 78, 60
3, 330240, Note_on_c, 1, 75, 60
3, 330336, Note_off_c, 1, 75, 64
3, 330336, Note_off_c, 1, 78, 64
3, 330480, Note_on_c, 1, 78, 60
3, 330480, Note_on_c, 1, 75, 60
3, 330576, Note_off_c, 1, 75, 64
3, 330576, Note_off_c, 1, 78, 64
3, 330720, Note_on_c, 1, 79, 60
3, 330720, Note_on_c, 1, 76, 60
3, 330816, Note_off_c, 1, 76, 64
3, 330816, Note_off_c, 1, 79, 64
3, 330960, Note_on_c, 1, 76, 60
3, 330960, Note_on_c, 1, 79, 60
3, 331056, Note_off_c, 1, 79, 64
3, 331056, Note_off_c, 1, 76, 64
3, 331200, Note_on_c, 1, 75, 60
3, 331200, Note_on_c, 1, 78, 60
3, 331296, Note_off_c, 1, 78, 64
3, 331296, Note_off_c, 1, 75, 64
3, 331440, Note_on_c, 1, 75, 60
3, 331440, Note_on_c, 1, 78, 60
3, 331536, Note_off_c, 1, 78, 64
3, 331536, Note_off_c, 1, 75, 64
3, 331680, Note_on_c, 1, 79, 60
3, 331680, Note_on_c, 1, 76, 60
3, 331776, Note_off_c, 1, 76, 64
3, 331776, Note_off_c, 1, 79, 64
3, 331920, Note_on_c, 1, 79, 60
3, 331920, Note_on_c, 1, 76, 60
3, 332016, Note_off_c, 1, 76, 64
3, 332016, Note_off_c, 1, 79, 64
3, 332160, Note_on_c, 1, 75, 60
3, 332160, Note_on_c, 1, 78, 60
3, 332256, Note_off_c, 1, 78, 64
3, 332256, Note_off_c, 1, 75, 64
3, 332400, Note_on_c, 1, 75, 60
3, 332400, Note_on_c, 1, 78, 60
3, 332496, Note_off_c, 1, 78, 64
3, 332496, Note_off_c, 1, 75, 64
3, 332640, Note_on_c, 1, 79, 60
3, 332640, Note_on_c, 1, 76, 60
3, 332736, Note_off_c, 1, 76, 64
3, 332736, Note_off_c, 1, 79, 64
3, 332880, Note_on_c, 1, 76, 60
3, 332880, Note_on_c, 1, 79, 60
3, 332976, Note_off_c, 1, 79, 64
3, 332976, Note_off_c, 1, 76, 64
3, 333120, Note_on_c, 1, 78, 60
3, 333120, Note_on_c, 1, 75, 60
3, 333216, Note_off_c, 1, 75, 64
3, 333216, Note_off_c, 1, 78, 64
3, 333360, Note_on_c, 1, 78, 60
3, 333360, Note_on_c, 1, 75, 60
3, 333456, Note_off_c, 1, 75, 64
3, 333456, Note_off_c, 1, 78, 64
3, 333600, Note_on_c, 1, 79, 60
3, 333600, Note_on_c, 1, 76, 60
3, 333696, Note_off_c, 1, 76, 64
3, 333696, Note_off_c, 1, 79, 64
3, 333840, Note_on_c, 1, 79, 60
3, 333840, Note_on_c, 1, 76, 60
3, 333936, Note_off_c, 1, 76, 64
3, 333936, Note_off_c, 1, 79, 64
3, 334080, Note_on_c, 1, 78, 60
3, 334080, Note_on_c, 1, 75, 60
3, 334176, Note_off_c, 1, 75, 64
3, 334176, Note_off_c, 1, 78, 64
3, 334320, Note_on_c, 1, 75, 60
3, 334320, Note_on_c, 1, 78, 60
3, 334416, Note_off_c, 1, 78, 64
3, 334416, Note_off_c, 1, 75, 64
3, 334560, Note_on_c, 1, 76, 80
3, 334560, Note_on_c, 1, 79, 80
3, 334752, Note_off_c, 1, 79, 64
3, 334752, Note_off_c, 1, 76, 64
3, 335520, Note_on_c, 1, 76, 80
3, 335520, Note_on_c, 1, 64, 80
3, 335712, Note_off_c, 1, 64, 64
3, 335712, Note_off_c, 1, 76, 64
3, 336000, Note_on_c, 1, 76, 80
3, 336000, Note_on_c, 1, 64, 80
3, 336192, Note_off_c, 1, 64, 64
3, 336192, Note_off_c, 1, 76, 64
3, 336480, Note_on_c, 1, 64, 80
3, 336480, Note_on_c, 1, 76, 80
3, 336672, Note_off_c, 1, 76, 64
3, 336672, Note_off_c, 1, 64, 64
3, 337440, Note_on_c, 1, 76, 80
3, 337440, Note_on_c, 1, 64, 80
3, 337632, Note_off_c, 1, 64, 64
3, 337632, Note_off_c, 1, 76, 64
3, 338400, Note_on_c, 1, 76, 28
3, 338400, Note_on_c, 1, 79, 28
3, 343080, Note_off_c, 1, 79, 64
3, 343080, Note_off_c, 1, 76, 64
3, 352800, Note_on_c, 1, 72, 30
3, 353568, Note_off_c, 1, 72, 64
3, 353760, Note_on_c, 1, 72, 38
3, 354528, Note_off_c, 1, 72, 64
3, 354720, Note_on_c, 1, 72, 48
3, 355488, Note_off_c, 1, 72, 64
3, 355680, Note_on_c, 1, 84, 48
3, 355680, Note_on_c, 1, 72, 48
3, 356448, Note_off_c, 1, 72, 64
3, 356448, Note_off_c, 1, 84, 64
3, 356640, Note_on_c, 1, 67, 62
3, 356640, Note_on_c, 1, 74, 62
3, 356880, Note_off_c, 1, 74, 64
3, 356880, Note_off_c, 1, 67, 64
3, 356880, Note_on_c, 1, 76, 63
3, 356880, Note_on_c, 1, 67, 63
3, 357000, Note_off_c, 1, 67, 64
3, 357000, Note_off_c, 1, 76, 64
3, 357000, Note_on_c, 1, 77, 64
3, 357000, Note_on_c, 1, 67, 64
3, 357120, Note_off_c, 1, 67, 64
3, 357120, Note_off_c, 1, 77, 64
3, 357120, Note_on_c, 1, 79, 65
3, 357120, Note_on_c, 1, 67, 65
3, 357216, Note_off_c, 1, 67, 64
3, 357216, Note_off_c, 1, 79, 64
3, 357360, Note_on_c, 1, 67, 67
3, 357360, Note_on_c, 1, 79, 67
3, 357456, Note_off_c, 1, 79, 64
3, 357456, Note_off_c, 1, 67, 64
3, 357600, Note_on_c, 1, 76, 68
3, 357600, Note_on_c, 1, 67, 68
3, 357840, Note_off_c, 1, 67, 64
3, 357840, Note_off_c, 1, 76, 64
3, 357840, Note_on_c, 1, 67, 71
3, 357840, Note_on_c, 1, 77, 71
3, 357960, Note_off_c, 1, 77, 64
3, 357960, Note_off_c, 1, 67, 64
3, 357960, Note_on_c, 1, 79, 71
3, 357960, Note_on_c, 1, 67, 71
3, 358080, Note_off_c, 1, 67, 64
3, 358080, Note_off_c, 1, 79, 64
3, 358080, Note_on_c, 1, 81, 72
3, 358080, Note_on_c, 1, 69, 72
3, 358176, Note_off_c, 1, 69, 64
3, 358176, Note_off_c, 1, 81, 64
3, 358320, Note_on_c, 1, 71, 74
3, 358320, Note_on_c, 1, 62, 74
3, 358416, Note_off_c, 1, 62, 64
3, 358416, Note_off_c, 1, 71, 64
3, 358560, Note_on_c, 1, 64, 76
3, 358560, Note_on_c, 1, 72, 76
3, 358656, Note_off_c, 1, 72, 64
3, 358656, Note_off_c, 1, 64, 64
3, 358800, Note_on_c, 1, 65, 77
3, 358800, Note_on_c, 1, 74, 77
3, 358896, Note_off_c, 1, 74, 64
3, 358896, Note_off_c, 1, 65, 64
3, 359040, Note_on_c, 1, 76, 79
3, 359040, Note_on_c, 1, 67, 79
3, 359136, Note_off_c, 1, 67, 64
3, 359136, Note_off_c, 1, 76, 64
3, 359280, Note_on_c, 1, 69, 81
3, 359280, Note_on_c, 1, 78, 81
3, 359376, Note_off_c, 1, 78, 64
3, 359376, Note_off_c, 1, 69, 64
3, 359520, Note_on_c, 1, 67, 60
3, 359520, Note_on_c, 1, 79, 80
3, 359616, Note_off_c, 1, 79, 64
3, 359616, Note_off_c, 1, 67, 64
3, 359760, Note_on_c, 1, 67, 60
3, 359760, Note_on_c, 1, 79, 60
3, 359856, Note_off_c, 1, 79, 64
3, 359856, Note_off_c, 1, 67, 64
3, 360000, Note_on_c, 1, 67, 60
3, 360000, Note_on_c, 1, 79, 60
3, 360096, Note_off_c, 1, 79, 64
3, 360096, Note_off_c, 1, 67, 64
3, 360480, Note_on_c, 1, 79, 80
3, 360480, Note_on_c, 1, 76, 60
3, 360576, Note_off_c, 1, 76, 64
3, 360576, Note_off_c, 1, 79, 64
3, 360720, Note_on_c, 1, 76, 60
3, 360720, Note_on_c, 1, 79, 60
3, 360816, Note_off_c, 1, 79, 64
3, 360816, Note_off_c, 1, 76, 64
3, 360960, Note_on_c, 1, 79, 60
3, 360960, Note_on_c, 1, 76, 60
3, 361056, Note_off_c, 1, 76, 64
3, 361056, Note_off_c, 1, 79, 64
3, 361440, Note_on_c, 1, 79, 80
3, 361440, Note_on_c, 1, 76, 60
3, 361536, Note_off_c, 1, 76, 64
3, 361536, Note_off_c, 1, 79, 64
3, 361680, Note_on_c, 1, 77, 60
3, 361680, Note_on_c, 1, 74, 60
3, 361776, Note_off_c, 1, 74, 64
3, 361776, Note_off_c, 1, 77, 64
3, 361920, Note_on_c, 1, 77, 60
3, 361920, Note_on_c, 1, 74, 60
3, 362016, Note_off_c, 1, 74, 64
3, 362016, Note_off_c, 1, 77, 64
3, 362400, Note_on_c, 1, 74, 60
3, 362400, Note_on_c, 1, 77, 80
3, 362496, Note_off_c, 1, 77, 64
3, 362496, Note_off_c, 1, 74, 64
3, 362640, Note_on_c, 1, 77, 60
3, 362640, Note_on_c, 1, 74, 60
3, 362736, Note_off_c, 1, 74, 64
3, 362736, Note_off_c, 1, 77, 64
3, 362880, Note_on_c, 1, 74, 60
3, 362880, Note_on_c, 1, 77, 60
3, 362976, Note_off_c, 1, 77, 64
3, 362976, Note_off_c, 1, 74, 64
3, 363360, Note_on_c, 1, 77, 80
3, 363360, Note_on_c, 1, 74, 60
3, 363456, Note_off_c, 1, 74, 64
3, 363456, Note_off_c, 1, 77, 64
3, 363600, Note_on_c, 1, 72, 60
3, 363600, Note_on_c, 1, 76, 60
3, 363696, Note_off_c, 1, 76, 64
3, 363696, Note_off_c, 1, 72, 64
3, 363840, Note_on_c, 1, 72, 60
3, 363840, Note_on_c, 1, 76, 60
3, 363936, Note_off_c, 1, 76, 64
3, 363936, Note_off_c, 1, 72, 64
3, 364320, Note_on_c, 1, 76, 80
3, 364320, Note_on_c, 1, 67, 60
3, 364416, Note_off_c, 1, 67, 64
3, 364416, Note_off_c, 1, 76, 64
3, 364560, Note_on_c, 1, 67, 60
3, 364560, Note_on_c, 1, 76, 60
3, 364656, Note_off_c, 1, 76, 64
3, 364656, Note_off_c, 1, 67, 64
3, 364800, Note_on_c, 1, 76, 60
3, 364800, Note_on_c, 1, 67, 60
3, 364896, Note_off_c, 1, 67, 64
3, 364896, Note_off_c, 1, 76, 64
3, 365280, Note_on_c, 1, 67, 60
3, 365280, Note_on_c, 1, 76, 80
3, 365376, Note_off_c, 1, 76, 64
3, 365376, Note_off_c, 1, 67, 64
3, 365520, Note_on_c, 1, 67, 60
3, 365520, Note_on_c, 1, 74, 60
3, 365616, Note_off_c, 1, 74, 64
3, 365616, Note_off_c, 1, 67, 64
3, 365760, Note_on_c, 1, 74, 60
3, 365760, Note_on_c, 1, 67, 60
3, 365856, Note_off_c, 1, 67, 64
3, 365856, Note_off_c, 1, 74, 64
3, 366240, Note_on_c, 1, 67, 60
3, 366240, Note_on_c, 1, 74, 80
3, 366336, Note_off_c, 1, 74, 64
3, 366336, Note_off_c, 1, 67, 64
3, 366480, Note_on_c, 1, 67, 60
3, 366480, Note_on_c, 1, 74, 60
3, 366576, Note_off_c, 1, 74, 64
3, 366576, Note_off_c, 1, 67, 64
3, 366720, Note_on_c, 1, 74, 60
3, 366720, Note_on_c, 1, 67, 60
3, 366816, Note_off_c, 1, 67, 64
3, 366816, Note_off_c, 1, 74, 64
3, 367200, Note_on_c, 1, 79, 67
3, 367968, Note_off_c, 1, 79, 64
3, 368160, Note_on_c, 1, 76, 67
3, 368400, Note_off_c, 1, 76, 64
3, 368400, Note_on_c, 1, 77, 67
3, 368520, Note_off_c, 1, 77, 64
3, 368520, Note_on_c, 1, 79, 67
3, 368640, Note_off_c, 1, 79, 64
3, 368640, Note_on_c, 1, 81, 67
3, 368736, Note_off_c, 1, 81, 64
3, 368880, Note_on_c, 1, 81, 67
3, 368976, Note_off_c, 1, 81, 64
3, 369120, Note_on_c, 1, 77, 67
3, 369888, Note_off_c, 1, 77, 64
3, 370080, Note_on_c, 1, 74, 67
3, 370320, Note_off_c, 1, 74, 64
3, 370320, Note_on_c, 1, 76, 67
3, 370440, Note_off_c, 1, 76, 64
3, 370440, Note_on_c, 1, 77, 67
3, 370560, Note_off_c, 1, 77, 64
3, 370560, Note_on_c, 1, 79, 67
3, 370656, Note_off_c, 1, 79, 64
3, 370800, Note_on_c, 1, 79, 67
3, 370896, Note_off_c, 1, 79, 64
3, 371040, Note_on_c, 1, 76, 67
3, 371808, Note_off_c, 1, 76, 64
3, 372000, Note_on_c, 1, 72, 67
3, 372240, Note_off_c, 1, 72, 64
3, 372240, Note_on_c, 1, 74, 67
3, 372360, Note_off_c, 1, 74, 64
3, 372360, Note_on_c, 1, 76, 67
3, 372480, Note_off_c, 1, 76, 64
3, 372480, Note_on_c, 1, 77, 67
3, 372576, Note_off_c, 1, 77, 64
3, 372720, Note_on_c, 1, 77, 67
3, 372816, Note_off_c, 1, 77, 64
3, 372960, Note_on_c, 1, 71, 63
3, 373200, Note_off_c, 1, 71, 64
3, 373200, Note_on_c, 1, 72, 63
3, 373320, Note_off_c, 1, 72, 64
3, 373320, Note_on_c, 1, 74, 63
3, 373440, Note_off_c, 1, 74, 64
3, 373440, Note_on_c, 1, 76, 63
3, 373680, Note_off_c, 1, 76, 64
3, 373680, Note_on_c, 1, 77, 63
3, 373800, Note_off_c, 1, 77, 64
3, 373800, Note_on_c, 1, 79, 63
3, 373920, Note_off_c, 1, 79, 64
3, 373920, Note_on_c, 1, 74, 63
3, 374016, Note_off_c, 1, 74, 64
3, 374160, Note_on_c, 1, 72, 63
3, 374280, Note_off_c, 1, 72, 64
3, 374280, Note_on_c, 1, 74, 63
3, 374400, Note_off_c, 1, 74, 64
3, 374400, Note_on_c, 1, 76, 103
3, 374496, Note_off_c, 1, 76, 64
3, 374640, Note_on_c, 1, 74, 63
3, 374736, Note_off_c, 1, 74, 64
3, 374880, Note_on_c, 1, 76, 105
3, 374880, Note_on_c, 1, 72, 105
3, 374976, Note_off_c, 1, 72, 64
3, 374976, Note_off_c, 1, 76, 64
3, 375120, Note_on_c, 1, 74, 105
3, 375120, Note_on_c, 1, 71, 105
3, 375240, Note_off_c, 1, 71, 64
3, 375240, Note_off_c, 1, 74, 64
3, 375240, Note_on_c, 1, 72, 105
3, 375240, Note_on_c, 1, 76, 105
3, 375360, Note_off_c, 1, 76, 64
3, 375360, Note_off_c, 1, 72, 64
3, 375360, Note_on_c, 1, 74, 105
3, 375360, Note_on_c, 1, 77, 127
3, 375456, Note_off_c, 1, 77, 64
3, 375456, Note_off_c, 1, 74, 64
3, 375600, Note_on_c, 1, 76, 105
3, 375600, Note_on_c, 1, 72, 105
3, 375696, Note_off_c, 1, 72, 64
3, 375696, Note_off_c, 1, 76, 64
3, 375840, Note_on_c, 1, 74, 63
3, 375840, Note_on_c, 1, 71, 63
3, 375936, Note_off_c, 1, 71, 64
3, 375936, Note_off_c, 1, 74, 64
3, 376080, Note_on_c, 1, 72, 63
3, 376080, Note_on_c, 1, 69, 63
3, 376200, Note_off_c, 1, 69, 64
3, 376200, Note_off_c, 1, 72, 64
3, 376200, Note_on_c, 1, 71, 63
3, 376200, Note_on_c, 1, 74, 63
3, 376320, Note_off_c, 1, 74, 64
3, 376320, Note_off_c, 1, 71, 64
3, 376320, Note_on_c, 1, 76, 103
3, 376320, Note_on_c, 1, 72, 63
3, 376416, Note_off_c, 1, 72, 64
3, 376416, Note_off_c, 1, 76, 64
3, 376560, Note_on_c, 1, 74, 63
3, 376560, Note_on_c, 1, 71, 63
3, 376656, Note_off_c, 1, 71, 64
3, 376656, Note_off_c, 1, 74, 64
3, 376800, Note_on_c, 1, 72, 105
3, 376800, Note_on_c, 1, 76, 105
3, 376896, Note_off_c, 1, 76, 64
3, 376896, Note_off_c, 1, 72, 64
3, 377040, Note_on_c, 1, 71, 105
3, 377040, Note_on_c, 1, 74, 105
3, 377160, Note_off_c, 1, 74, 64
3, 377160, Note_off_c, 1, 71, 64
3, 377160, Note_on_c, 1, 72, 105
3, 377160, Note_on_c, 1, 76, 105
3, 377280, Note_off_c, 1, 76, 64
3, 377280, Note_off_c, 1, 72, 64
3, 377280, Note_on_c, 1, 77, 127
3, 377280, Note_on_c, 1, 74, 105
3, 377376, Note_off_c, 1, 74, 64
3, 377376, Note_off_c, 1, 77, 64
3, 377520, Note_on_c, 1, 72, 105
3, 377520, Note_on_c, 1, 76, 105
3, 377616, Note_off_c, 1, 76, 64
3, 377616, Note_off_c, 1, 72, 64
3, 377760, Note_on_c, 1, 74, 103
3, 377760, Note_on_c, 1, 71, 63
3, 377856, Note_off_c, 1, 71, 64
3, 377856, Note_off_c, 1, 74, 64
3, 378000, Note_on_c, 1, 74, 63
3, 378000, Note_on_c, 1, 71, 63
3, 378096, Note_off_c, 1, 71, 64
3, 378096, Note_off_c, 1, 74, 64
3, 378240, Note_on_c, 1, 71, 63
3, 378240, Note_on_c, 1, 74, 63
3, 378336, Note_off_c, 1, 74, 64
3, 378336, Note_off_c, 1, 71, 64
3, 378720, Note_on_c, 1, 74, 103
3, 378720, Note_on_c, 1, 72, 63
3, 378816, Note_off_c, 1, 72, 64
3, 378816, Note_off_c, 1, 74, 64
3, 378960, Note_on_c, 1, 74, 63
3, 378960, Note_on_c, 1, 72, 63
3, 379056, Note_off_c, 1, 72, 64
3, 379056, Note_off_c, 1, 74, 64
3, 379200, Note_on_c, 1, 72, 63
3, 379200, Note_on_c, 1, 74, 63
3, 379296, Note_off_c, 1, 74, 64
3, 379296, Note_off_c, 1, 72, 64
3, 379680, Note_on_c, 1, 74, 103
3, 379680, Note_on_c, 1, 71, 63
3, 379776, Note_off_c, 1, 71, 64
3, 379776, Note_off_c, 1, 74, 64
3, 379920, Note_on_c, 1, 71, 63
3, 379920, Note_on_c, 1, 74, 63
3, 380016, Note_off_c, 1, 74, 64
3, 380016, Note_off_c, 1, 71, 64
3, 380160, Note_on_c, 1, 74, 63
3, 380160, Note_on_c, 1, 71, 63
3, 380256, Note_off_c, 1, 71, 64
3, 380256, Note_off_c, 1, 74, 64
3, 380640, Note_on_c, 1, 79, 56
3, 380640, Note_on_c, 1, 67, 56
3, 380736, Note_off_c, 1, 67, 64
3, 380736, Note_off_c, 1, 79, 64
3, 380880, Note_on_c, 1, 84, 56
3, 380880, Note_on_c, 1, 76, 56
3, 380976, Note_off_c, 1, 76, 64
3, 380976, Note_off_c, 1, 84, 64
3, 381120, Note_on_c, 1, 77, 56
3, 381120, Note_on_c, 1, 86, 96
3, 381216, Note_off_c, 1, 86, 64
3, 381216, Note_off_c, 1, 77, 64
3, 381360, Note_on_c, 1, 76, 56
3, 381360, Note_on_c, 1, 84, 56
3, 381456, Note_off_c, 1, 84, 64
3, 381456, Note_off_c, 1, 76, 64
3, 381600, Note_on_c, 1, 83, 56
3, 381600, Note_on_c, 1, 74, 56
3, 381696, Note_off_c, 1, 74, 64
3, 381696, Note_off_c, 1, 83, 64
3, 381840, Note_on_c, 1, 83, 56
3, 381840, Note_on_c, 1, 74, 56
3, 381936, Note_off_c, 1, 74, 64
3, 381936, Note_off_c, 1, 83, 64
3, 382080, Note_on_c, 1, 84, 96
3, 382080, Note_on_c, 1, 76, 56
3, 382176, Note_off_c, 1, 76, 64
3, 382176, Note_off_c, 1, 84, 64
3, 382320, Note_on_c, 1, 83, 56
3, 382320, Note_on_c, 1, 74, 56
3, 382416, Note_off_c, 1, 74, 64
3, 382416, Note_off_c, 1, 83, 64
3, 382560, Note_on_c, 1, 81, 56
3, 382560, Note_on_c, 1, 72, 56
3, 382656, Note_off_c, 1, 72, 64
3, 382656, Note_off_c, 1, 81, 64
3, 382800, Note_on_c, 1, 81, 56
3, 382896, Note_off_c, 1, 81, 64
3, 383040, Note_on_c, 1, 83, 96
3, 383136, Note_off_c, 1, 83, 64
3, 383280, Note_on_c, 1, 81, 56
3, 383376, Note_off_c, 1, 81, 64
3, 383520, Note_on_c, 1, 79, 56
3, 383616, Note_off_c, 1, 79, 64
3, 383760, Note_on_c, 1, 79, 56
3, 383856, Note_off_c, 1, 79, 64
3, 384000, Note_on_c, 1, 81, 96
3, 384096, Note_off_c, 1, 81, 64
3, 384240, Note_on_c, 1, 79, 56
3, 384336, Note_off_c, 1, 79, 64
3, 384480, Note_on_c, 1, 79, 96
3, 384576, Note_off_c, 1, 79, 64
3, 384720, Note_on_c, 1, 77, 56
3, 384816, Note_off_c, 1, 77, 64
3, 384960, Note_on_c, 1, 77, 96
3, 385056, Note_off_c, 1, 77, 64
3, 385200, Note_on_c, 1, 76, 56
3, 385296, Note_off_c, 1, 76, 64
3, 385440, Note_on_c, 1, 76, 96
3, 385536, Note_off_c, 1, 76, 64
3, 385680, Note_on_c, 1, 74, 56
3, 385776, Note_off_c, 1, 74, 64
3, 385920, Note_on_c, 1, 74, 96
3, 386016, Note_off_c, 1, 74, 64
3, 386160, Note_on_c, 1, 72, 56
3, 386256, Note_off_c, 1, 72, 64
3, 386400, Note_on_c, 1, 72, 96
3, 386496, Note_off_c, 1, 72, 64
3, 386640, Note_on_c, 1, 71, 56
3, 386736, Note_off_c, 1, 71, 64
3, 386880, Note_on_c, 1, 71, 96
3, 386976, Note_off_c, 1, 71, 64
3, 387120, Note_on_c, 1, 69, 56
3, 387216, Note_off_c, 1, 69, 64
3, 387360, Note_on_c, 1, 69, 96
3, 387456, Note_off_c, 1, 69, 64
3, 387600, Note_on_c, 1, 67, 56
3, 387696, Note_off_c, 1, 67, 64
3, 387840, Note_on_c, 1, 67, 96
3, 387936, Note_off_c, 1, 67, 64
3, 388080, Note_on_c, 1, 65, 56
3, 388176, Note_off_c, 1, 65, 64
3, 388320, Note_on_c, 1, 77, 60
3, 388320, Note_on_c, 1, 65, 60
3, 388512, Note_off_c, 1, 65, 64
3, 388512, Note_off_c, 1, 77, 64
3, 388800, Note_on_c, 1, 74, 80
3, 388800, Note_on_c, 1, 83, 80
3, 392256, Note_off_c, 1, 83, 64
3, 392256, Note_off_c, 1, 74, 64
3, 393600, Note_on_c, 1, 74, 80
3, 393600, Note_on_c, 1, 84, 80
3, 397536, Note_off_c, 1, 84, 64
3, 397536, Note_off_c, 1, 74, 64
3, 398880, Note_on_c, 1, 77, 80
3, 398880, Note_on_c, 1, 86, 80
3, 399072, Note_off_c, 1, 86, 64
3, 399072, Note_off_c, 1, 77, 64
3, 399840, Note_on_c, 1, 84, 80
3, 399840, Note_on_c, 1, 76, 80
3, 400032, Note_off_c, 1, 76, 64
3, 400032, Note_off_c, 1, 84, 64
3, 400800, Note_on_c, 1, 83, 80
3, 400800, Note_on_c, 1, 74, 80
3, 400992, Note_off_c, 1, 74, 64
3, 400992, Note_off_c, 1, 83, 64
3, 403920, Note_on_c, 1, 81, 40
3, 404016, Note_off_c, 1, 81, 64
3, 404160, Note_on_c, 1, 79, 40
3, 404256, Note_off_c, 1, 79, 64
3, 404400, Note_on_c, 1, 77, 40
3, 404496, Note_off_c, 1, 77, 64
3, 404640, Note_on_c, 1, 76, 40
3, 404736, Note_off_c, 1, 76, 64
3, 405840, Note_on_c, 1, 81, 40
3, 405936, Note_off_c, 1, 81, 64
3, 406080, Note_on_c, 1, 79, 40
3, 406176, Note_off_c, 1, 79, 64
3, 406320, Note_on_c, 1, 77, 40
3, 406416, Note_off_c, 1, 77, 64
3, 406560, Note_on_c, 1, 77, 38
3, 406560, Note_on_c, 1, 74, 38
3, 406656, Note_off_c, 1, 74, 64
3, 406656, Note_off_c, 1, 77, 64
3, 406800, Note_on_c, 1, 74, 38
3, 406800, Note_on_c, 1, 77, 38
3, 406896, Note_off_c, 1, 77, 64
3, 406896, Note_off_c, 1, 74, 64
3, 407040, Note_on_c, 1, 74, 38
3, 407040, Note_on_c, 1, 77, 38
3, 407136, Note_off_c, 1, 77, 64
3, 407136, Note_off_c, 1, 74, 64
3, 407520, Note_on_c, 1, 72, 38
3, 407520, Note_on_c, 1, 76, 38
3, 407616, Note_off_c, 1, 76, 64
3, 407616, Note_off_c, 1, 72, 64
3, 407760, Note_on_c, 1, 72, 38
3, 407760, Note_on_c, 1, 76, 38
3, 407856, Note_off_c, 1, 76, 64
3, 407856, Note_off_c, 1, 72, 64
3, 408000, Note_on_c, 1, 76, 38
3, 408000, Note_on_c, 1, 72, 38
3, 408096, Note_off_c, 1, 72, 64
3, 408096, Note_off_c, 1, 76, 64
3, 408480, Note_on_c, 1, 71, 38
3, 408480, Note_on_c, 1, 74, 38
3, 408576, Note_off_c, 1, 74, 64
3, 408576, Note_off_c, 1, 71, 64
3, 408720, Note_on_c, 1, 71, 38
3, 408720, Note_on_c, 1, 74, 38
3, 408816, Note_off_c, 1, 74, 64
3, 408816, Note_off_c, 1, 71, 64
3, 408960, Note_on_c, 1, 71, 38
3, 408960, Note_on_c, 1, 74, 38
3, 409056, Note_off_c, 1, 74, 64
3, 409056, Note_off_c, 1, 71, 64
3, 410400, Note_on_c, 1, 82, 40
3, 410640, Note_off_c, 1, 82, 64
3, 410640, Note_on_c, 1, 81, 40
3, 410760, Note_off_c, 1, 81, 64
3, 410760, Note_on_c, 1, 82, 40
3, 410880, Note_off_c, 1, 82, 64
3, 410880, Note_on_c, 1, 84, 40
3, 410976, Note_off_c, 1, 84, 64
3, 411120, Note_on_c, 1, 82, 40
3, 411216, Note_off_c, 1, 82, 64
3, 411360, Note_on_c, 1, 81, 40
3, 411744, Note_off_c, 1, 81, 64
3, 412320, Note_on_c, 1, 82, 40
3, 412560, Note_off_c, 1, 82, 64
3, 412560, Note_on_c, 1, 81, 40
3, 412680, Note_off_c, 1, 81, 64
3, 412680, Note_on_c, 1, 82, 40
3, 412800, Note_off_c, 1, 82, 64
3, 412800, Note_on_c, 1, 84, 40
3, 412896, Note_off_c, 1, 84, 64
3, 413040, Note_on_c, 1, 82, 40
3, 413136, Note_off_c, 1, 82, 64
3, 413280, Note_on_c, 1, 81, 40
3, 413376, Note_off_c, 1, 81, 64
3, 413520, Note_on_c, 1, 77, 40
3, 413616, Note_off_c, 1, 77, 64
3, 413760, Note_on_c, 1, 77, 40
3, 413856, Note_off_c, 1, 77, 64
3, 414000, Note_on_c, 1, 77, 40
3, 414096, Note_off_c, 1, 77, 64
3, 414240, Note_on_c, 1, 77, 25
3, 414240, Note_on_c, 1, 74, 25
3, 416160, Note_off_c, 1, 74, 64
3, 416160, Note_off_c, 1, 77, 64
3, 416160, Note_on_c, 1, 72, 25
3, 416160, Note_on_c, 1, 75, 25
3, 418080, Note_off_c, 1, 75, 64
3, 418080, Note_off_c, 1, 72, 64
3, 418080, Note_on_c, 1, 78, 25
3, 418080, Note_on_c, 1, 75, 25
3, 420000, Note_off_c, 1, 75, 64
3, 420000, Note_off_c, 1, 78, 64
3, 420000, Note_on_c, 1, 77, 25
3, 420000, Note_on_c, 1, 73, 25
3, 421920, Note_off_c, 1, 73, 64
3, 421920, Note_off_c, 1, 77, 64
3, 429600, Note_on_c, 1, 73, 39
3, 429600, Note_on_c, 1, 77, 39
3, 430560, Note_off_c, 1, 73, 64
3, 430560, Note_on_c, 1, 74, 39
3, 432480, Note_off_c, 1, 77, 64
3, 432480, Note_off_c, 1, 74, 64
3, 432480, Note_on_c, 1, 74, 80
3, 432480, Note_on_c, 1, 77, 80
3, 432576, Note_off_c, 1, 77, 64
3, 432576, Note_off_c, 1, 74, 64
3, 432720, Note_on_c, 1, 72, 80
3, 432720, Note_on_c, 1, 76, 80
3, 432840, Note_off_c, 1, 76, 64
3, 432840, Note_off_c, 1, 72, 64
3, 432840, Note_on_c, 1, 77, 80
3, 432840, Note_on_c, 1, 74, 80
3, 432960, Note_off_c, 1, 74, 64
3, 432960, Note_off_c, 1, 77, 64
3, 432960, Note_on_c, 1, 76, 80
3, 432960, Note_on_c, 1, 79, 80
3, 433056, Note_off_c, 1, 79, 64
3, 433056, Note_off_c, 1, 76, 64
3, 433200, Note_on_c, 1, 74, 80
3, 433200, Note_on_c, 1, 77, 80
3, 433296, Note_off_c, 1, 77, 64
3, 433296, Note_off_c, 1, 74, 64
3, 433440, Note_on_c, 1, 76, 80
3, 433440, Note_on_c, 1, 72, 80
3, 433824, Note_off_c, 1, 72, 64
3, 433824, Note_off_c, 1, 76, 64
3, 434400, Note_on_c, 1, 77, 80
3, 434400, Note_on_c, 1, 74, 80
3, 434496, Note_off_c, 1, 74, 64
3, 434496, Note_off_c, 1, 77, 64
3, 434640, Note_on_c, 1, 76, 80
3, 434640, Note_on_c, 1, 72, 80
3, 434760, Note_off_c, 1, 72, 64
3, 434760, Note_off_c, 1, 76, 64
3, 434760, Note_on_c, 1, 74, 80
3, 434760, Note_on_c, 1, 77, 80
3, 434880, Note_off_c, 1, 77, 64
3, 434880, Note_off_c, 1, 74, 64
3, 434880, Note_on_c, 1, 76, 80
3, 434880, Note_on_c, 1, 79, 80
3, 434976, Note_off_c, 1, 79, 64
3, 434976, Note_off_c, 1, 76, 64
3, 435120, Note_on_c, 1, 77, 80
3, 435120, Note_on_c, 1, 74, 80
3, 435216, Note_off_c, 1, 74, 64
3, 435216, Note_off_c, 1, 77, 64
3, 435360, Note_on_c, 1, 72, 80
3, 435360, Note_on_c, 1, 76, 80
3, 435744, Note_off_c, 1, 76, 64
3, 435744, Note_off_c, 1, 72, 64
3, 436320, Note_on_c, 1, 77, 80
3, 436320, Note_on_c, 1, 74, 80
3, 436416, Note_off_c, 1, 74, 64
3, 436416, Note_off_c, 1, 77, 64
3, 436560, Note_on_c, 1, 76, 80
3, 436560, Note_on_c, 1, 72, 80
3, 436680, Note_off_c, 1, 72, 64
3, 436680, Note_off_c, 1, 76, 64
3, 436680, Note_on_c, 1, 77, 80
3, 436680, Note_on_c, 1, 74, 80
3, 436800, Note_off_c, 1, 74, 64
3, 436800, Note_off_c, 1, 77, 64
3, 436800, Note_on_c, 1, 79, 80
3, 436800, Note_on_c, 1, 76, 80
3, 436896, Note_off_c, 1, 76, 64
3, 436896, Note_off_c, 1, 79, 64
3, 437040, Note_on_c, 1, 77, 80
3, 437040, Note_on_c, 1, 74, 80
3, 437136, Note_off_c, 1, 74, 64
3, 437136, Note_off_c, 1, 77, 64
3, 437280, Note_on_c, 1, 72, 60
3, 437280, Note_on_c, 1, 76, 60
3, 437376, Note_off_c, 1, 76, 64
3, 437376, Note_off_c, 1, 72, 64
3, 437520, Note_on_c, 1, 74, 60
3, 437640, Note_off_c, 1, 74, 64
3, 437640, Note_on_c, 1, 76, 60
3, 437760, Note_off_c, 1, 76, 64
3, 437760, Note_on_c, 1, 77, 100
3, 437856, Note_off_c, 1, 77, 64
3, 438000, Note_on_c, 1, 76, 60
3, 438096, Note_off_c, 1, 76, 64
3, 438240, Note_on_c, 1, 74, 60
3, 438336, Note_off_c, 1, 74, 64
3, 438480, Note_on_c, 1, 72, 60
3, 438600, Note_off_c, 1, 72, 64
3, 438600, Note_on_c, 1, 74, 60
3, 438720, Note_off_c, 1, 74, 64
3, 438720, Note_on_c, 1, 76, 100
3, 438816, Note_off_c, 1, 76, 64
3, 438960, Note_on_c, 1, 74, 60
3, 439056, Note_off_c, 1, 74, 64
3, 439200, Note_on_c, 1, 72, 60
3, 439296, Note_off_c, 1, 72, 64
3, 439440, Note_on_c, 1, 71, 60
3, 439560, Note_off_c, 1, 71, 64
3, 439560, Note_on_c, 1, 72, 60
3, 439680, Note_off_c, 1, 72, 64
3, 439680, Note_on_c, 1, 74, 100
3, 439776, Note_off_c, 1, 74, 64
3, 439920, Note_on_c, 1, 72, 60
3, 440016, Note_off_c, 1, 72, 64
3, 440160, Note_on_c, 1, 71, 60
3, 440256, Note_off_c, 1, 71, 64
3, 440400, Note_on_c, 1, 69, 60
3, 440520, Note_off_c, 1, 69, 64
3, 440520, Note_on_c, 1, 71, 60
3, 440640, Note_off_c, 1, 71, 64
3, 440640, Note_on_c, 1, 72, 100
3, 440736, Note_off_c, 1, 72, 64
3, 440880, Note_on_c, 1, 71, 60
3, 440976, Note_off_c, 1, 71, 64
3, 441120, Note_on_c, 1, 69, 60
3, 441216, Note_off_c, 1, 69, 64
3, 441360, Note_on_c, 1, 67, 60
3, 441480, Note_off_c, 1, 67, 64
3, 441480, Note_on_c, 1, 69, 60
3, 441600, Note_off_c, 1, 69, 64
3, 441600, Note_on_c, 1, 71, 100
3, 441696, Note_off_c, 1, 71, 64
3, 441840, Note_on_c, 1, 69, 60
3, 441936, Note_off_c, 1, 69, 64
3, 442080, Note_on_c, 1, 67, 60
3, 442176, Note_off_c, 1, 67, 64
3, 442320, Note_on_c, 1, 77, 60
3, 442440, Note_off_c, 1, 77, 64
3, 442440, Note_on_c, 1, 79, 60
3, 442560, Note_off_c, 1, 79, 64
3, 442560, Note_on_c, 1, 81, 100
3, 442656, Note_off_c, 1, 81, 64
3, 442800, Note_on_c, 1, 79, 60
3, 442896, Note_off_c, 1, 79, 64
3, 443040, Note_on_c, 1, 65, 64
3, 443040, Note_on_c, 1, 77, 64
3, 443136, Note_off_c, 1, 77, 64
3, 443136, Note_off_c, 1, 65, 64
3, 443280, Note_on_c, 1, 79, 64
3, 443280, Note_on_c, 1, 74, 64
3, 443376, Note_off_c, 1, 74, 64
3, 443376, Note_off_c, 1, 79, 64
3, 443520, Note_on_c, 1, 76, 64
3, 443520, Note_on_c, 1, 72, 64
3, 443616, Note_off_c, 1, 72, 64
3, 443616, Note_off_c, 1, 76, 64
3, 443760, Note_on_c, 1, 84, 64
3, 443760, Note_on_c, 1, 76, 64
3, 443856, Note_off_c, 1, 76, 64
3, 443856, Note_off_c, 1, 84, 64
3, 444000, Note_on_c, 1, 76, 64
3, 444000, Note_on_c, 1, 84, 64
3, 444096, Note_off_c, 1, 84, 64
3, 444096, Note_off_c, 1, 76, 64
3, 444240, Note_on_c, 1, 83, 64
3, 444240, Note_on_c, 1, 74, 64
3, 444336, Note_off_c, 1, 74, 64
3, 444336, Note_off_c, 1, 83, 64
3, 444480, Note_on_c, 1, 84, 64
3, 444480, Note_on_c, 1, 76, 64
3, 444576, Note_off_c, 1, 76, 64
3, 444576, Note_off_c, 1, 84, 64
3, 444720, Note_on_c, 1, 76, 64
3, 444720, Note_on_c, 1, 84, 64
3, 444816, Note_off_c, 1, 84, 64
3, 444816, Note_off_c, 1, 76, 64
3, 444960, Note_on_c, 1, 84, 60
3, 444960, Note_on_c, 1, 72, 60
3, 445152, Note_off_c, 1, 72, 64
3, 445152, Note_off_c, 1, 84, 64
3, 445440, Note_on_c, 1, 84, 60
3, 445440, Note_on_c, 1, 72, 60
3, 445632, Note_off_c, 1, 72, 64
3, 445632, Note_off_c, 1, 84, 64
3, 445920, Note_on_c, 1, 84, 60
3, 445920, Note_on_c, 1, 72, 60
3, 446112, Note_off_c, 1, 72, 64
3, 446112, Note_off_c, 1, 84, 64
3, 446640, Note_on_c, 1, 84, 60
3, 446640, Note_on_c, 1, 72, 60
3, 446736, Note_off_c, 1, 72, 64
3, 446736, Note_off_c, 1, 84, 64
3, 446880, Note_on_c, 1, 84, 60
3, 446880, Note_on_c, 1, 72, 60
3, 447072, Note_off_c, 1, 72, 64
3, 447072, Note_off_c, 1, 84, 64
3, 447360, Note_on_c, 1, 84, 60
3, 447360, Note_on_c, 1, 72, 60
3, 447552, Note_off_c, 1, 72, 64
3, 447552, Note_off_c, 1, 84, 64
3, 447840, Note_on_c, 1, 84, 60
3, 447840, Note_on_c, 1, 72, 60
3, 448032, Note_off_c, 1, 72, 64
3, 448032, Note_off_c, 1, 84, 64
3, 448560, Note_on_c, 1, 72, 60
3, 448560, Note_on_c, 1, 84, 60
3, 448656, Note_off_c, 1, 84, 64
3, 448656, Note_off_c, 1, 72, 64
3, 448800, Note_on_c, 1, 84, 60
3, 448800, Note_on_c, 1, 72, 60
3, 448992, Note_off_c, 1, 72, 64
3, 448992, Note_off_c, 1, 84, 64
3, 449280, Note_on_c, 1, 72, 60
3, 449280, Note_on_c, 1, 84, 60
3, 449472, Note_off_c, 1, 84, 64
3, 449472, Note_off_c, 1, 72, 64
3, 449760, Note_on_c, 1, 84, 60
3, 449760, Note_on_c, 1, 72, 60
3, 449952, Note_off_c, 1, 72, 64
3, 449952, Note_off_c, 1, 84, 64
3, 450240, Note_on_c, 1, 84, 60
3, 450240, Note_on_c, 1, 72, 60
3, 450336, Note_off_c, 1, 72, 64
3, 450336, Note_off_c, 1, 84, 64
3, 450480, Note_on_c, 1, 72, 60
3, 450480, Note_on_c, 1, 84, 60
3, 450576, Note_off_c, 1, 84, 64
3, 450576, Note_off_c, 1, 72, 64
3, 450720, Note_on_c, 1, 76, 71
3, 450720, Note_on_c, 1, 84, 71
3, 450912, Note_off_c, 1, 84, 64
3, 450912, Note_off_c, 1, 76, 64
3, 451200, Note_on_c, 1, 74, 71
3, 451200, Note_on_c, 1, 84, 91
3, 451392, Note_off_c, 1, 84, 64
3, 451392, Note_off_c, 1, 74, 64
3, 451680, Note_on_c, 1, 84, 71
3, 451680, Note_on_c, 1, 74, 71
3, 451872, Note_off_c, 1, 74, 64
3, 451872, Note_off_c, 1, 84, 64
3, 452160, Note_on_c, 1, 83, 91
3, 452160, Note_on_c, 1, 74, 71
3, 452352, Note_off_c, 1, 74, 64
3, 452352, Note_off_c, 1, 83, 64
3, 456960, Note_on_c, 1, 72, 34
3, 457248, Note_off_c, 1, 72, 64
3, 457920, Note_on_c, 1, 77, 34
3, 457920, Note_on_c, 1, 71, 34
3, 458208, Note_off_c, 1, 71, 64
3, 458208, Note_off_c, 1, 77, 64
3, 458880, Note_on_c, 1, 76, 34
3, 458880, Note_on_c, 1, 72, 34
3, 459168, Note_off_c, 1, 72, 64
3, 459168, Note_off_c, 1, 76, 64
3, 459840, Note_on_c, 1, 81, 34
3, 459840, Note_on_c, 1, 72, 34
3, 460128, Note_off_c, 1, 72, 64
3, 460128, Note_off_c, 1, 81, 64
3, 460320, Note_on_c, 1, 79, 44
3, 460320, Note_on_c, 1, 72, 44
3, 460512, Note_off_c, 1, 72, 64
3, 460512, Note_off_c, 1, 79, 64
3, 460800, Note_on_c, 1, 83, 44
3, 460800, Note_on_c, 1, 74, 44
3, 460992, Note_off_c, 1, 74, 64
3, 460992, Note_off_c, 1, 83, 64
3, 461280, Note_on_c, 1, 72, 44
3, 461280, Note_on_c, 1, 84, 44
3, 461472, Note_off_c, 1, 84, 64
3, 461472, Note_off_c, 1, 72, 64
3, 461760, Note_on_c, 1, 81, 44
3, 461760, Note_on_c, 1, 77, 44
3, 461952, Note_off_c, 1, 77, 64
3, 461952, Note_off_c, 1, 81, 64
3, 462240, Note_on_c, 1, 79, 44
3, 462240, Note_on_c, 1, 76, 44
3, 462432, Note_off_c, 1, 76, 64
3, 462432, Note_off_c, 1, 79, 64
3, 462720, Note_on_c, 1, 83, 44
3, 462720, Note_on_c, 1, 74, 44
3, 462912, Note_off_c, 1, 74, 64
3, 462912, Note_off_c, 1, 83, 64
3, 463200, Note_on_c, 1, 72, 44
3, 463200, Note_on_c, 1, 84, 44
3, 463392, Note_off_c, 1, 84, 64
3, 463392, Note_off_c, 1, 72, 64
3, 463680, Note_on_c, 1, 81, 44
3, 463680, Note_on_c, 1, 77, 44
3, 463872, Note_off_c, 1, 77, 64
3, 463872, Note_off_c, 1, 81, 64
3, 464160, Note_on_c, 1, 74, 40
3, 464160, Note_on_c, 1, 77, 40
3, 464352, Note_off_c, 1, 77, 64
3, 464352, Note_off_c, 1, 74, 64
3, 464640, Note_on_c, 1, 74, 43
3, 464640, Note_on_c, 1, 77, 43
3, 464832, Note_off_c, 1, 77, 64
3, 464832, Note_off_c, 1, 74, 64
3, 465120, Note_on_c, 1, 76, 46
3, 465120, Note_on_c, 1, 79, 46
3, 465312, Note_off_c, 1, 79, 64
3, 465312, Note_off_c, 1, 76, 64
3, 465600, Note_on_c, 1, 76, 49
3, 465600, Note_on_c, 1, 72, 49
3, 465792, Note_off_c, 1, 72, 64
3, 465792, Note_off_c, 1, 76, 64
3, 466080, Note_on_c, 1, 74, 52
3, 466080, Note_on_c, 1, 77, 52
3, 466272, Note_off_c, 1, 77, 64
3, 466272, Note_off_c, 1, 74, 64
3, 466560, Note_on_c, 1, 77, 55
3, 466560, Note_on_c, 1, 74, 55
3, 466752, Note_off_c, 1, 74, 64
3, 466752, Note_off_c, 1, 77, 64
3, 467040, Note_on_c, 1, 76, 59
3, 467040, Note_on_c, 1, 79, 59
3, 467232, Note_off_c, 1, 79, 64
3, 467232, Note_off_c, 1, 76, 64
3, 467520, Note_on_c, 1, 76, 62
3, 467520, Note_on_c, 1, 72, 62
3, 467712, Note_off_c, 1, 72, 64
3, 467712, Note_off_c, 1, 76, 64
3, 468000, Note_on_c, 1, 74, 65
3, 468000, Note_on_c, 1, 71, 65
3, 468192, Note_off_c, 1, 71, 64
3, 468192, Note_off_c, 1, 74, 64
3, 468480, Note_on_c, 1, 74, 68
3, 468480, Note_on_c, 1, 77, 68
3, 468672, Note_off_c, 1, 77, 64
3, 468672, Note_off_c, 1, 74, 64
3, 468960, Note_on_c, 1, 76, 71
3, 468960, Note_on_c, 1, 79, 71
3, 469152, Note_off_c, 1, 79, 64
3, 469152, Note_off_c, 1, 76, 64
3, 469440, Note_on_c, 1, 72, 74
3, 469440, Note_on_c, 1, 76, 74
3, 469632, Note_off_c, 1, 76, 64
3, 469632, Note_off_c, 1, 72, 64
3, 469920, Note_on_c, 1, 71, 77
3, 469920, Note_on_c, 1, 74, 77
3, 470112, Note_off_c, 1, 74, 64
3, 470112, Note_off_c, 1, 71, 64
3, 470400, Note_on_c, 1, 77, 81
3, 470400, Note_on_c, 1, 74, 81
3, 470592, Note_off_c, 1, 74, 64
3, 470592, Note_off_c, 1, 77, 64
3, 470880, Note_on_c, 1, 79, 84
3, 470880, Note_on_c, 1, 76, 84
3, 471072, Note_off_c, 1, 76, 64
3, 471072, Note_off_c, 1, 79, 64
3, 471360, Note_on_c, 1, 81, 87
3, 471360, Note_on_c, 1, 77, 87
3, 472740, Note_off_c, 1, 77, 64
3, 472740, Note_off_c, 1, 81, 64
3, 473280, Note_on_c, 1, 82, 80
3, 473280, Note_on_c, 1, 77, 80
3, 473664, Note_off_c, 1, 77, 64
3, 473664, Note_off_c, 1, 82, 64
3, 473760, Note_on_c, 1, 79, 80
3, 473760, Note_on_c, 1, 82, 80
3, 474144, Note_off_c, 1, 82, 64
3, 474144, Note_off_c, 1, 79, 64
3, 474240, Note_on_c, 1, 79, 80
3, 474240, Note_on_c, 1, 82, 80
3, 474624, Note_off_c, 1, 82, 64
3, 474624, Note_off_c, 1, 79, 64
3, 474720, Note_on_c, 1, 82, 80
3, 474720, Note_on_c, 1, 79, 80
3, 475104, Note_off_c, 1, 79, 64
3, 475104, Note_off_c, 1, 82, 64
3, 475200, Note_on_c, 1, 82, 80
3, 475200, Note_on_c, 1, 79, 80
3, 475584, Note_off_c, 1, 79, 64
3, 475584, Note_off_c, 1, 82, 64
3, 475680, Note_on_c, 1, 77, 80
3, 475680, Note_on_c, 1, 81, 80
3, 476832, Note_off_c, 1, 81, 64
3, 476832, Note_off_c, 1, 77, 64
3, 477120, Note_on_c, 1, 77, 80
3, 477120, Note_on_c, 1, 82, 80
3, 477504, Note_off_c, 1, 82, 64
3, 477504, Note_off_c, 1, 77, 64
3, 477600, Note_on_c, 1, 79, 80
3, 477600, Note_on_c, 1, 82, 80
3, 477984, Note_off_c, 1, 82, 64
3, 477984, Note_off_c, 1, 79, 64
3, 478080, Note_on_c, 1, 82, 80
3, 478080, Note_on_c, 1, 79, 80
3, 478464, Note_off_c, 1, 79, 64
3, 478464, Note_off_c, 1, 82, 64
3, 478560, Note_on_c, 1, 81, 80
3, 478560, Note_on_c, 1, 77, 80
3, 478656, Note_off_c, 1, 77, 64
3, 478656, Note_off_c, 1, 81, 64
3, 478800, Note_on_c, 1, 77, 80
3, 478800, Note_on_c, 1, 69, 80
3, 478896, Note_off_c, 1, 69, 64
3, 478896, Note_off_c, 1, 77, 64
3, 479040, Note_on_c, 1, 69, 80
3, 479040, Note_on_c, 1, 74, 80
3, 479136, Note_off_c, 1, 74, 64
3, 479136, Note_off_c, 1, 69, 64
3, 479280, Note_on_c, 1, 72, 80
3, 479280, Note_on_c, 1, 69, 80
3, 479376, Note_off_c, 1, 69, 64
3, 479376, Note_off_c, 1, 72, 64
3, 479520, Note_on_c, 1, 67, 80
3, 479520, Note_on_c, 1, 71, 80
3, 479904, Note_off_c, 1, 71, 64
3, 479904, Note_off_c, 1, 67, 64
3, 480480, Note_on_c, 1, 79, 80
3, 481248, Note_off_c, 1, 79, 64
3, 481440, Note_on_c, 1, 76, 62
3, 481680, Note_off_c, 1, 76, 64
3, 481680, Note_on_c, 1, 77, 62
3, 481800, Note_off_c, 1, 77, 64
3, 481800, Note_on_c, 1, 79, 62
3, 481920, Note_off_c, 1, 79, 64
3, 481920, Note_on_c, 1, 81, 82
3, 482016, Note_off_c, 1, 81, 64
3, 482160, Note_on_c, 1, 81, 62
3, 482256, Note_off_c, 1, 81, 64
3, 482400, Note_on_c, 1, 74, 62
3, 482640, Note_off_c, 1, 74, 64
3, 482640, Note_on_c, 1, 76, 62
3, 482760, Note_off_c, 1, 76, 64
3, 482760, Note_on_c, 1, 77, 62
3, 482880, Note_off_c, 1, 77, 64
3, 482880, Note_on_c, 1, 79, 82
3, 482976, Note_off_c, 1, 79, 64
3, 483120, Note_on_c, 1, 67, 62
3, 483216, Note_off_c, 1, 67, 64
3, 483360, Note_on_c, 1, 72, 62
3, 483600, Note_off_c, 1, 72, 64
3, 483600, Note_on_c, 1, 74, 62
3, 483720, Note_off_c, 1, 74, 64
3, 483720, Note_on_c, 1, 76, 62
3, 483840, Note_off_c, 1, 76, 64
3, 483840, Note_on_c, 1, 77, 82
3, 483936, Note_off_c, 1, 77, 64
3, 484080, Note_on_c, 1, 77, 62
3, 484176, Note_off_c, 1, 77, 64
3, 484320, Note_on_c, 1, 71, 62
3, 484560, Note_off_c, 1, 71, 64
3, 484560, Note_on_c, 1, 72, 62
3, 484680, Note_off_c, 1, 72, 64
3, 484680, Note_on_c, 1, 74, 62
3, 484800, Note_off_c, 1, 74, 64
3, 484800, Note_on_c, 1, 76, 82
3, 484896, Note_off_c, 1, 76, 64
3, 485040, Note_on_c, 1, 64, 62
3, 485136, Note_off_c, 1, 64, 64
3, 485280, Note_on_c, 1, 69, 62
3, 485520, Note_off_c, 1, 69, 64
3, 485520, Note_on_c, 1, 71, 62
3, 485640, Note_off_c, 1, 71, 64
3, 485640, Note_on_c, 1, 72, 62
3, 485760, Note_off_c, 1, 72, 64
3, 485760, Note_on_c, 1, 74, 82
3, 485856, Note_off_c, 1, 74, 64
3, 486000, Note_on_c, 1, 74, 62
3, 486096, Note_off_c, 1, 74, 64
3, 486240, Note_on_c, 1, 67, 62
3, 486480, Note_off_c, 1, 67, 64
3, 486480, Note_on_c, 1, 69, 62
3, 486600, Note_off_c, 1, 69, 64
3, 486600, Note_on_c, 1, 71, 62
3, 486720, Note_off_c, 1, 71, 64
3, 486720, Note_on_c, 1, 72, 62
3, 486960, Note_off_c, 1, 72, 64
3, 486960, Note_on_c, 1, 74, 62
3, 487080, Note_off_c, 1, 74, 64
3, 487080, Note_on_c, 1, 76, 62
3, 487200, Note_off_c, 1, 76, 64
3, 487200, Note_on_c, 1, 74, 62
3, 487200, Note_on_c, 1, 77, 62
3, 487296, Note_off_c, 1, 77, 64
3, 487296, Note_off_c, 1, 74, 64
3, 487440, Note_on_c, 1, 76, 62
3, 487440, Note_on_c, 1, 72, 62
3, 487536, Note_off_c, 1, 72, 64
3, 487536, Note_off_c, 1, 76, 64
3, 487560, Note_on_c, 1, 74, 62
3, 487560, Note_on_c, 1, 77, 62
3, 487656, Note_off_c, 1, 77, 64
3, 487656, Note_off_c, 1, 74, 64
3, 487680, Note_on_c, 1, 79, 82
3, 487680, Note_on_c, 1, 76, 62
3, 487776, Note_off_c, 1, 76, 64
3, 487776, Note_off_c, 1, 79, 64
3, 487920, Note_on_c, 1, 74, 62
3, 487920, Note_on_c, 1, 77, 62
3, 488016, Note_off_c, 1, 77, 64
3, 488016, Note_off_c, 1, 74, 64
3, 488160, Note_on_c, 1, 76, 62
3, 488160, Note_on_c, 1, 72, 62
3, 488256, Note_off_c, 1, 72, 64
3, 488256, Note_off_c, 1, 76, 64
3, 489120, Note_on_c, 1, 74, 62
3, 489120, Note_on_c, 1, 77, 62
3, 489216, Note_off_c, 1, 77, 64
3, 489216, Note_off_c, 1, 74, 64
3, 489360, Note_on_c, 1, 76, 62
3, 489360, Note_on_c, 1, 72, 62
3, 489456, Note_off_c, 1, 72, 64
3, 489456, Note_off_c, 1, 76, 64
3, 489480, Note_on_c, 1, 77, 62
3, 489480, Note_on_c, 1, 74, 62
3, 489576, Note_off_c, 1, 74, 64
3, 489576, Note_off_c, 1, 77, 64
3, 489600, Note_on_c, 1, 79, 82
3, 489600, Note_on_c, 1, 76, 62
3, 489696, Note_off_c, 1, 76, 64
3, 489696, Note_off_c, 1, 79, 64
3, 489840, Note_on_c, 1, 74, 62
3, 489840, Note_on_c, 1, 77, 62
3, 489936, Note_off_c, 1, 77, 64
3, 489936, Note_off_c, 1, 74, 64
3, 490080, Note_on_c, 1, 72, 62
3, 490080, Note_on_c, 1, 76, 62
3, 490176, Note_off_c, 1, 76, 64
3, 490176, Note_off_c, 1, 72, 64
3, 491040, Note_on_c, 1, 74, 62
3, 491040, Note_on_c, 1, 77, 62
3, 491136, Note_off_c, 1, 77, 64
3, 491136, Note_off_c, 1, 74, 64
3, 491280, Note_on_c, 1, 76, 62
3, 491280, Note_on_c, 1, 72, 62
3, 491376, Note_off_c, 1, 72, 64
3, 491376, Note_off_c, 1, 76, 64
3, 491400, Note_on_c, 1, 77, 62
3, 491400, Note_on_c, 1, 74, 62
3, 491496, Note_off_c, 1, 74, 64
3, 491496, Note_off_c, 1, 77, 64
3, 491520, Note_on_c, 1, 76, 62
3, 491520, Note_on_c, 1, 79, 82
3, 491616, Note_off_c, 1, 79, 64
3, 491616, Note_off_c, 1, 76, 64
3, 491760, Note_on_c, 1, 74, 62
3, 491760, Note_on_c, 1, 77, 62
3, 491856, Note_off_c, 1, 77, 64
3, 491856, Note_off_c, 1, 74, 64
3, 492000, Note_on_c, 1, 76, 62
3, 492000, Note_on_c, 1, 72, 62
3, 492096, Note_off_c, 1, 72, 64
3, 492096, Note_off_c, 1, 76, 64
3, 492240, Note_on_c, 1, 71, 62
3, 492240, Note_on_c, 1, 74, 62
3, 492336, Note_off_c, 1, 74, 64
3, 492336, Note_off_c, 1, 71, 64
3, 492360, Note_on_c, 1, 76, 62
3, 492360, Note_on_c, 1, 72, 62
3, 492456, Note_off_c, 1, 72, 64
3, 492456, Note_off_c, 1, 76, 64
3, 492480, Note_on_c, 1, 77, 82
3, 492480, Note_on_c, 1, 74, 62
3, 492576, Note_off_c, 1, 74, 64
3, 492576, Note_off_c, 1, 77, 64
3, 492720, Note_on_c, 1, 72, 62
3, 492720, Note_on_c, 1, 76, 62
3, 492816, Note_off_c, 1, 76, 64
3, 492816, Note_off_c, 1, 72, 64
3, 492960, Note_on_c, 1, 74, 62
3, 492960, Note_on_c, 1, 77, 62
3, 493056, Note_off_c, 1, 77, 64
3, 493056, Note_off_c, 1, 74, 64
3, 493200, Note_on_c, 1, 76, 62
3, 493200, Note_on_c, 1, 72, 62
3, 493296, Note_off_c, 1, 72, 64
3, 493296, Note_off_c, 1, 76, 64
3, 493320, Note_on_c, 1, 77, 62
3, 493320, Note_on_c, 1, 74, 62
3, 493416, Note_off_c, 1, 74, 64
3, 493416, Note_off_c, 1, 77, 64
3, 493440, Note_on_c, 1, 79, 82
3, 493440, Note_on_c, 1, 76, 62
3, 493536, Note_off_c, 1, 76, 64
3, 493536, Note_off_c, 1, 79, 64
3, 493680, Note_on_c, 1, 77, 62
3, 493680, Note_on_c, 1, 74, 62
3, 493776, Note_off_c, 1, 74, 64
3, 493776, Note_off_c, 1, 77, 64
3, 493920, Note_on_c, 1, 76, 69
3, 493920, Note_on_c, 1, 72, 69
3, 494016, Note_off_c, 1, 72, 64
3, 494016, Note_off_c, 1, 76, 64
3, 494160, Note_on_c, 1, 76, 69
3, 494160, Note_on_c, 1, 79, 69
3, 494256, Note_off_c, 1, 79, 64
3, 494256, Note_off_c, 1, 76, 64
3, 494400, Note_on_c, 1, 79, 69
3, 494400, Note_on_c, 1, 76, 69
3, 494496, Note_off_c, 1, 76, 64
3, 494496, Note_off_c, 1, 79, 64
3, 494640, Note_on_c, 1, 77, 69
3, 494640, Note_on_c, 1, 74, 69
3, 494736, Note_off_c, 1, 74, 64
3, 494736, Note_off_c, 1, 77, 64
3, 494880, Note_on_c, 1, 72, 69
3, 494880, Note_on_c, 1, 76, 69
3, 494976, Note_off_c, 1, 76, 64
3, 494976, Note_off_c, 1, 72, 64
3, 495120, Note_on_c, 1, 76, 69
3, 495120, Note_on_c, 1, 79, 69
3, 495216, Note_off_c, 1, 79, 64
3, 495216, Note_off_c, 1, 76, 64
3, 495360, Note_on_c, 1, 76, 69
3, 495360, Note_on_c, 1, 79, 69
3, 495456, Note_off_c, 1, 79, 64
3, 495456, Note_off_c, 1, 76, 64
3, 495600, Note_on_c, 1, 77, 69
3, 495600, Note_on_c, 1, 74, 69
3, 495696, Note_off_c, 1, 74, 64
3, 495696, Note_off_c, 1, 77, 64
3, 495840, Note_on_c, 1, 76, 69
3, 495840, Note_on_c, 1, 72, 69
3, 495936, Note_off_c, 1, 72, 64
3, 495936, Note_off_c, 1, 76, 64
3, 496080, Note_on_c, 1, 79, 69
3, 496080, Note_on_c, 1, 76, 69
3, 496176, Note_off_c, 1, 76, 64
3, 496176, Note_off_c, 1, 79, 64
3, 496320, Note_on_c, 1, 79, 69
3, 496320, Note_on_c, 1, 76, 69
3, 496416, Note_off_c, 1, 76, 64
3, 496416, Note_off_c, 1, 79, 64
3, 496560, Note_on_c, 1, 74, 69
3, 496560, Note_on_c, 1, 77, 69
3, 496656, Note_off_c, 1, 77, 64
3, 496656, Note_off_c, 1, 74, 64
3, 496800, Note_on_c, 1, 76, 69
3, 496800, Note_on_c, 1, 72, 69
3, 496896, Note_off_c, 1, 72, 64
3, 496896, Note_off_c, 1, 76, 64
3, 497040, Note_on_c, 1, 79, 69
3, 497040, Note_on_c, 1, 76, 69
3, 497136, Note_off_c, 1, 76, 64
3, 497136, Note_off_c, 1, 79, 64
3, 497280, Note_on_c, 1, 76, 69
3, 497280, Note_on_c, 1, 79, 69
3, 497376, Note_off_c, 1, 79, 64
3, 497376, Note_off_c, 1, 76, 64
3, 497520, Note_on_c, 1, 77, 69
3, 497520, Note_on_c, 1, 74, 69
3, 497616, Note_off_c, 1, 74, 64
3, 497616, Note_off_c, 1, 77, 64
3, 497760, Note_on_c, 1, 76, 69
3, 497760, Note_on_c, 1, 72, 69
3, 497856, Note_off_c, 1, 72, 64
3, 497856, Note_off_c, 1, 76, 64
3, 498000, Note_on_c, 1, 79, 69
3, 498000, Note_on_c, 1, 76, 69
3, 498096, Note_off_c, 1, 76, 64
3, 498096, Note_off_c, 1, 79, 64
3, 498240, Note_on_c, 1, 79, 69
3, 498240, Note_on_c, 1, 76, 69
3, 498336, Note_off_c, 1, 76, 64
3, 498336, Note_off_c, 1, 79, 64
3, 498480, Note_on_c, 1, 77, 69
3, 498480, Note_on_c, 1, 74, 69
3, 498576, Note_off_c, 1, 74, 64
3, 498576, Note_off_c, 1, 77, 64
3, 498720, Note_on_c, 1, 72, 80
3, 498720, Note_on_c, 1, 76, 80
3, 498840, Note_off_c, 1, 76, 64
3, 498840, Note_off_c, 1, 72, 64
3, 498840, Note_on_c, 1, 60, 99
3, 498960, Note_off_c, 1, 60, 64
3, 498960, Note_on_c, 1, 62, 99
3, 499080, Note_off_c, 1, 62, 64
3, 499080, Note_on_c, 1, 64, 99
3, 499200, Note_off_c, 1, 64, 64
3, 499200, Note_on_c, 1, 65, 99
3, 499320, Note_off_c, 1, 65, 64
3, 499320, Note_on_c, 1, 67, 99
3, 499440, Note_off_c, 1, 67, 64
3, 499440, Note_on_c, 1, 69, 99
3, 499560, Note_off_c, 1, 69, 64
3, 499560, Note_on_c, 1, 71, 99
3, 499680, Note_off_c, 1, 71, 64
3, 499680, Note_on_c, 1, 72, 99
3, 500736, Note_off_c, 1, 72, 64
3, 500760, Note_on_c, 1, 64, 99
3, 500880, Note_off_c, 1, 64, 64
3, 500880, Note_on_c, 1, 65, 99
3, 501000, Note_off_c, 1, 65, 64
3, 501000, Note_on_c, 1, 67, 99
3, 501120, Note_off_c, 1, 67, 64
3, 501120, Note_on_c, 1, 69, 99
3, 501240, Note_off_c, 1, 69, 64
3, 501240, Note_on_c, 1, 71, 99
3, 501360, Note_off_c, 1, 71, 64
3, 501360, Note_on_c, 1, 72, 99
3, 501480, Note_off_c, 1, 72, 64
3, 501480, Note_on_c, 1, 74, 99
3, 501600, Note_off_c, 1, 74, 64
3, 501600, Note_on_c, 1, 76, 99
3, 501720, Note_off_c, 1, 76, 64
3, 501720, Note_on_c, 1, 67, 99
3, 501840, Note_off_c, 1, 67, 64
3, 501840, Note_on_c, 1, 69, 99
3, 501960, Note_off_c, 1, 69, 64
3, 501960, Note_on_c, 1, 71, 99
3, 502080, Note_off_c, 1, 71, 64
3, 502080, Note_on_c, 1, 72, 99
3, 502200, Note_off_c, 1, 72, 64
3, 502200, Note_on_c, 1, 74, 99
3, 502320, Note_off_c, 1, 74, 64
3, 502320, Note_on_c, 1, 76, 99
3, 502440, Note_off_c, 1, 76, 64
3, 502440, Note_on_c, 1, 77, 99
3, 502560, Note_off_c, 1, 77, 64
3, 502560, Note_on_c, 1, 79, 99
3, 502656, Note_off_c, 1, 79, 64
3, 502800, Note_on_c, 1, 76, 74
3, 502896, Note_off_c, 1, 76, 64
3, 503040, Note_on_c, 1, 79, 114
3, 503136, Note_off_c, 1, 79, 64
3, 503280, Note_on_c, 1, 71, 74
3, 503376, Note_off_c, 1, 71, 64
3, 503520, Note_on_c, 1, 72, 114
3, 503616, Note_off_c, 1, 72, 64
3, 503760, Note_on_c, 1, 76, 74
3, 503856, Note_off_c, 1, 76, 64
3, 504000, Note_on_c, 1, 66, 114
3, 504096, Note_off_c, 1, 66, 64
3, 504240, Note_on_c, 1, 67, 74
3, 504336, Note_off_c, 1, 67, 64
3, 504480, Note_on_c, 1, 84, 114
3, 504576, Note_off_c, 1, 84, 64
3, 504720, Note_on_c, 1, 75, 74
3, 504816, Note_off_c, 1, 75, 64
3, 504960, Note_on_c, 1, 76, 114
3, 505056, Note_off_c, 1, 76, 64
3, 505200, Note_on_c, 1, 79, 74
3, 505296, Note_off_c, 1, 79, 64
3, 505440, Note_on_c, 1, 72, 114
3, 505536, Note_off_c, 1, 72, 64
3, 505680, Note_on_c, 1, 76, 74
3, 505776, Note_off_c, 1, 76, 64
3, 505920, Note_on_c, 1, 71, 114
3, 506016, Note_off_c, 1, 71, 64
3, 506160, Note_on_c, 1, 72, 74
3, 506256, Note_off_c, 1, 72, 64
3, 506400, Note_on_c, 1, 72, 80
3, 506400, Note_on_c, 1, 84, 80
3, 508282, Note_off_c, 1, 84, 64
3, 508282, Note_off_c, 1, 72, 64
3, 508320, Note_on_c, 1, 76, 71
3, 508320, Note_on_c, 1, 72, 31
3, 508416, Note_off_c, 1, 72, 64
3, 508416, Note_off_c, 1, 76, 64
3, 508560, Note_on_c, 1, 71, 31
3, 508560, Note_on_c, 1, 74, 31
3, 508656, Note_off_c, 1, 74, 64
3, 508656, Note_off_c, 1, 71, 64
3, 508680, Note_on_c, 1, 76, 31
3, 508680, Note_on_c, 1, 72, 31
3, 508776, Note_off_c, 1, 72, 64
3, 508776, Note_off_c, 1, 76, 64
3, 508800, Note_on_c, 1, 74, 31
3, 508800, Note_on_c, 1, 77, 51
3, 508896, Note_off_c, 1, 77, 64
3, 508896, Note_off_c, 1, 74, 64
3, 509040, Note_on_c, 1, 76, 31
3, 509040, Note_on_c, 1, 72, 31
3, 509136, Note_off_c, 1, 72, 64
3, 509136, Note_off_c, 1, 76, 64
3, 509280, Note_on_c, 1, 72, 31
3, 509280, Note_on_c, 1, 76, 31
3, 509376, Note_off_c, 1, 76, 64
3, 509376, Note_off_c, 1, 72, 64
3, 509520, Note_on_c, 1, 74, 31
3, 509520, Note_on_c, 1, 71, 31
3, 509616, Note_off_c, 1, 71, 64
3, 509616, Note_off_c, 1, 74, 64
3, 509640, Note_on_c, 1, 76, 31
3, 509640, Note_on_c, 1, 72, 31
3, 509736, Note_off_c, 1, 72, 64
3, 509736, Note_off_c, 1, 76, 64
3, 509760, Note_on_c, 1, 77, 51
3, 509760, Note_on_c, 1, 74, 31
3, 509856, Note_off_c, 1, 74, 64
3, 509856, Note_off_c, 1, 77, 64
3, 510000, Note_on_c, 1, 72, 31
3, 510000, Note_on_c, 1, 76, 31
3, 510096, Note_off_c, 1, 76, 64
3, 510096, Note_off_c, 1, 72, 64
3, 510232, Control_c, 1, 7, 90
3, 510240, Note_on_c, 1, 72, 80
3, 510332, Control_c, 1, 7, 89
3, 510432, Control_c, 1, 7, 88
3, 510532, Control_c, 1, 7, 87
3, 510632, Control_c, 1, 7, 86
3, 510732, Control_c, 1, 7, 85
3, 510832, Control_c, 1, 7, 84
3, 510932, Control_c, 1, 7, 83
3, 511032, Control_c, 1, 7, 82
3, 511112, Control_c, 1, 7, 81
3, 511200, Note_off_c, 1, 72, 64
3, 511200, Note_on_c, 1, 77, 64
3, 511200, Note_on_c, 1, 72, 64
3, 511212, Control_c, 1, 7, 80
3, 511312, Control_c, 1, 7, 79
3, 511412, Control_c, 1, 7, 78
3, 511512, Control_c, 1, 7, 77
3, 511612, Control_c, 1, 7, 76
3, 511712, Control_c, 1, 7, 75
3, 511812, Control_c, 1, 7, 74
3, 511892, Control_c, 1, 7, 73
3, 511992, Control_c, 1, 7, 72
3, 512092, Control_c, 1, 7, 71
3, 512160, Note_off_c, 1, 72, 64
3, 512160, Note_off_c, 1, 77, 64
3, 512160, Note_on_c, 1, 74, 64
3, 512160, Note_on_c, 1, 77, 64
3, 512192, Control_c, 1, 7, 70
3, 512292, Control_c, 1, 7, 69
3, 512392, Control_c, 1, 7, 68
3, 512492, Control_c, 1, 7, 67
3, 512592, Control_c, 1, 7, 66
3, 512692, Control_c, 1, 7, 65
3, 512772, Control_c, 1, 7, 64
3, 512872, Control_c, 1, 7, 63
3, 512972, Control_c, 1, 7, 62
3, 513072, Control_c, 1, 7, 61
3, 513172, Control_c, 1, 7, 60
3, 513272, Control_c, 1, 7, 59
3, 513372, Control_c, 1, 7, 58
3, 513472, Control_c, 1, 7, 57
3, 513552, Control_c, 1, 7, 56
3, 513652, Control_c, 1, 7, 55
3, 513752, Control_c, 1, 7, 54
3, 513852, Control_c, 1, 7, 53
3, 513952, Control_c, 1, 7, 52
3, 514052, Control_c, 1, 7, 51
3, 514080, Note_off_c, 1, 77, 64
3, 514080, Note_off_c, 1, 74, 64
3, 514080, Note_on_c, 1, 75, 64
3, 514080, Note_on_c, 1, 79, 64
3, 514152, Control_c, 1, 7, 50
3, 514252, Control_c, 1, 7, 49
3, 514352, Control_c, 1, 7, 48
3, 514432, Control_c, 1, 7, 47
3, 514532, Control_c, 1, 7, 46
3, 514632, Control_c, 1, 7, 45
3, 514732, Control_c, 1, 7, 44
3, 514832, Control_c, 1, 7, 43
3, 514932, Control_c, 1, 7, 42
3, 515032, Control_c, 1, 7, 41
3, 515132, Control_c, 1, 7, 40
3, 515212, Control_c, 1, 7, 39
3, 515312, Control_c, 1, 7, 38
3, 515412, Control_c, 1, 7, 37
3, 515512, Control_c, 1, 7, 36
3, 515520, Note_off_c, 1, 79, 64
3, 515520, Note_off_c, 1, 75, 64
3, 515520, Note_on_c, 1, 77, 64
3, 515520, Note_on_c, 1, 72, 64
3, 515612, Control_c, 1, 7, 35
3, 515712, Control_c, 1, 7, 34
3, 515812, Control_c, 1, 7, 33
3, 515912, Control_c, 1, 7, 32
3, 515992, Control_c, 1, 7, 31
3, 516000, Note_off_c, 1, 72, 64
3, 516000, Note_off_c, 1, 77, 64
3, 516000, Note_on_c, 1, 78, 64
3, 516000, Note_on_c, 1, 72, 64
3, 516012, Control_c, 1, 7, 31
3, 516092, Control_c, 1, 7, 32
3, 516152, Control_c, 1, 7, 33
3, 516212, Control_c, 1, 7, 34
3, 516292, Control_c, 1, 7, 35
3, 516352, Control_c, 1, 7, 36
3, 516412, Control_c, 1, 7, 37
3, 516472, Control_c, 1, 7, 38
3, 516552, Control_c, 1, 7, 39
3, 516612, Control_c, 1, 7, 40
3, 516672, Control_c, 1, 7, 41
3, 516752, Control_c, 1, 7, 42
3, 516812, Control_c, 1, 7, 43
3, 516872, Control_c, 1, 7, 44
3, 516932, Control_c, 1, 7, 45
3, 517012, Control_c, 1, 7, 46
3, 517072, Control_c, 1, 7, 47
3, 517132, Control_c, 1, 7, 48
3, 517192, Control_c, 1, 7, 49
3, 517272, Control_c, 1, 7, 50
3, 517332, Control_c, 1, 7, 51
3, 517392, Control_c, 1, 7, 52
3, 517440, Note_off_c, 1, 72, 64
3, 517440, Note_off_c, 1, 78, 64
3, 517440, Note_on_c, 1, 72, 64
3, 517440, Note_on_c, 1, 77, 64
3, 517472, Control_c, 1, 7, 53
3, 517532, Control_c, 1, 7, 54
3, 517592, Control_c, 1, 7, 55
3, 517652, Control_c, 1, 7, 56
3, 517732, Control_c, 1, 7, 57
3, 517792, Control_c, 1, 7, 58
3, 517852, Control_c, 1, 7, 59
3, 517896, Note_off_c, 1, 77, 64
3, 517896, Note_off_c, 1, 72, 64
3, 517912, Control_c, 1, 7, 60
3, 517920, Note_on_c, 1, 77, 64
3, 517920, Note_on_c, 1, 74, 64
3, 517992, Control_c, 1, 7, 61
3, 518052, Control_c, 1, 7, 62
3, 518112, Control_c, 1, 7, 63
3, 518192, Control_c, 1, 7, 64
3, 518252, Control_c, 1, 7, 65
3, 518312, Control_c, 1, 7, 66
3, 518372, Control_c, 1, 7, 67
3, 518452, Control_c, 1, 7, 68
3, 518512, Control_c, 1, 7, 69
3, 518572, Control_c, 1, 7, 70
3, 518652, Control_c, 1, 7, 71
3, 518712, Control_c, 1, 7, 72
3, 518772, Control_c, 1, 7, 73
3, 518832, Control_c, 1, 7, 74
3, 518912, Control_c, 1, 7, 75
3, 518972, Control_c, 1, 7, 76
3, 519032, Control_c, 1, 7, 77
3, 519092, Control_c, 1, 7, 78
3, 519172, Control_c, 1, 7, 79
3, 519232, Control_c, 1, 7, 80
3, 519292, Control_c, 1, 7, 81
3, 519372, Control_c, 1, 7, 82
3, 519432, Control_c, 1, 7, 83
3, 519492, Control_c, 1, 7, 84
3, 519552, Control_c, 1, 7, 85
3, 519632, Control_c, 1, 7, 86
3, 519692, Control_c, 1, 7, 87
3, 519752, Control_c, 1, 7, 88
3, 519812, Control_c, 1, 7, 89
3, 519840, Note_off_c, 1, 74, 64
3, 519840, Note_off_c, 1, 77, 64
3, 519840, Note_on_c, 1, 74, 80
3, 519840, Note_on_c, 1, 77, 80
3, 520032, Note_off_c, 1, 77, 64
3, 520032, Note_off_c, 1, 74, 64
3, 520560, Note_on_c, 1, 74, 80
3, 520560, Note_on_c, 1, 77, 80
3, 520656, Note_off_c, 1, 77, 64
3, 520656, Note_off_c, 1, 74, 64
3, 520800, Note_on_c, 1, 72, 80
3, 520800, Note_on_c, 1, 76, 80
3, 520992, Note_off_c, 1, 76, 64
3, 520992, Note_off_c, 1, 72, 64
3, 521520, Note_on_c, 1, 76, 80
3, 521520, Note_on_c, 1, 72, 80
3, 521616, Note_off_c, 1, 72, 64
3, 521616, Note_off_c, 1, 76, 64
3, 521760, Note_on_c, 1, 71, 80
3, 521760, Note_on_c, 1, 74, 80
3, 521952, Note_off_c, 1, 74, 64
3, 521952, Note_off_c, 1, 71, 64
3, 522480, Note_on_c, 1, 74, 80
3, 522480, Note_on_c, 1, 71, 80
3, 522576, Note_off_c, 1, 71, 64
3, 522576, Note_off_c, 1, 74, 64
3, 522720, Note_on_c, 1, 72, 80
3, 522720, Note_on_c, 1, 76, 80
3, 522912, Note_off_c, 1, 76, 64
3, 522912, Note_off_c, 1, 72, 64
3, 523440, Note_on_c, 1, 76, 80
3, 523440, Note_on_c, 1, 72, 80
3, 523536, Note_off_c, 1, 72, 64
3, 523536, Note_off_c, 1, 76, 64
3, 523680, Note_on_c, 1, 77, 80
3, 523680, Note_on_c, 1, 74, 80
3, 523872, Note_off_c, 1, 74, 64
3, 523872, Note_off_c, 1, 77, 64
3, 524400, Note_on_c, 1, 77, 80
3, 524400, Note_on_c, 1, 74, 80
3, 524496, Note_off_c, 1, 74, 64
3, 524496, Note_off_c, 1, 77, 64
3, 524640, Note_on_c, 1, 76, 80
3, 524640, Note_on_c, 1, 72, 80
3, 524832, Note_off_c, 1, 72, 64
3, 524832, Note_off_c, 1, 76, 64
3, 525360, Note_on_c, 1, 76, 80
3, 525360, Note_on_c, 1, 72, 80
3, 525456, Note_off_c, 1, 72, 64
3, 525456, Note_off_c, 1, 76, 64
3, 525600, Note_on_c, 1, 71, 80
3, 525600, Note_on_c, 1, 74, 80
3, 525792, Note_off_c, 1, 74, 64
3, 525792, Note_off_c, 1, 71, 64
3, 526320, Note_on_c, 1, 71, 80
3, 526320, Note_on_c, 1, 74, 80
3, 526416, Note_off_c, 1, 74, 64
3, 526416, Note_off_c, 1, 71, 64
3, 526560, Note_on_c, 1, 76, 80
3, 526560, Note_on_c, 1, 72, 80
3, 526752, Note_off_c, 1, 72, 64
3, 526752, Note_off_c, 1, 76, 64
3, 527280, Note_on_c, 1, 72, 80
3, 527280, Note_on_c, 1, 76, 80
3, 527376, Note_off_c, 1, 76, 64
3, 527376, Note_off_c, 1, 72, 64
3, 527520, Note_on_c, 1, 77, 80
3, 527520, Note_on_c, 1, 74, 80
3, 527712, Note_off_c, 1, 74, 64
3, 527712, Note_off_c, 1, 77, 64
3, 528240, Note_on_c, 1, 77, 80
3, 528240, Note_on_c, 1, 74, 80
3, 528336, Note_off_c, 1, 74, 64
3, 528336, Note_off_c, 1, 77, 64
3, 528480, Note_on_c, 1, 76, 80
3, 528480, Note_on_c, 1, 72, 80
3, 528672, Note_off_c, 1, 72, 64
3, 528672, Note_off_c, 1, 76, 64
3, 529200, Note_on_c, 1, 76, 80
3, 529200, Note_on_c, 1, 72, 80
3, 529296, Note_off_c, 1, 72, 64
3, 529296, Note_off_c, 1, 76, 64
3, 529440, Note_on_c, 1, 71, 80
3, 529440, Note_on_c, 1, 74, 80
3, 529632, Note_off_c, 1, 74, 64
3, 529632, Note_off_c, 1, 71, 64
3, 530160, Note_on_c, 1, 71, 80
3, 530160, Note_on_c, 1, 74, 80
3, 530256, Note_off_c, 1, 74, 64
3, 530256, Note_off_c, 1, 71, 64
3, 530400, Note_on_c, 1, 76, 80
3, 530400, Note_on_c, 1, 72, 80
3, 530592, Note_off_c, 1, 72, 64
3, 530592, Note_off_c, 1, 76, 64
3, 531120, Note_on_c, 1, 72, 80
3, 531120, Note_on_c, 1, 76, 80
3, 531216, Note_off_c, 1, 76, 64
3, 531216, Note_off_c, 1, 72, 64
3, 531360, Note_on_c, 1, 77, 80
3, 531360, Note_on_c, 1, 74, 80
3, 531552, Note_off_c, 1, 74, 64
3, 531552, Note_off_c, 1, 77, 64
3, 532080, Note_on_c, 1, 77, 80
3, 532080, Note_on_c, 1, 74, 80
3, 532176, Note_off_c, 1, 74, 64
3, 532176, Note_off_c, 1, 77, 64
3, 532320, Note_on_c, 1, 76, 80
3, 532320, Note_on_c, 1, 72, 80
3, 532512, Note_off_c, 1, 72, 64
3, 532512, Note_off_c, 1, 76, 64
3, 533040, Note_on_c, 1, 76, 80
3, 533040, Note_on_c, 1, 72, 80
3, 533136, Note_off_c, 1, 72, 64
3, 533136, Note_off_c, 1, 76, 64
3, 533280, Note_on_c, 1, 76, 80
3, 533280, Note_on_c, 1, 72, 80
3, 533472, Note_off_c, 1, 72, 64
3, 533472, Note_off_c, 1, 76, 64
3, 534000, Note_on_c, 1, 76, 80
3, 534096, Note_off_c, 1, 76, 64
3, 534240, Note_on_c, 1, 76, 80
3, 534432, Note_off_c, 1, 76, 64
3, 534960, Note_on_c, 1, 79, 80
3, 535056, Note_off_c, 1, 79, 64
3, 535200, Note_on_c, 1, 79, 56
3, 535968, Note_off_c, 1, 79, 64
3, 536160, Note_on_c, 1, 76, 56
3, 536928, Note_off_c, 1, 76, 64
3, 537120, Note_on_c, 1, 72, 56
3, 537888, Note_off_c, 1, 72, 64
3, 538080, Note_on_c, 1, 67, 56
3, 538848, Note_off_c, 1, 67, 64
3, 539040, Note_on_c, 1, 64, 56
3, 539040, Note_on_c, 1, 76, 56
3, 539808, Note_off_c, 1, 76, 64
3, 539808, Note_off_c, 1, 64, 64
3, 540000, Note_on_c, 1, 60, 56
3, 540000, Note_on_c, 1, 72, 56
3, 540768, Note_off_c, 1, 72, 64
3, 540768, Note_off_c, 1, 60, 64
3, 540960, Note_on_c, 1, 64, 56
3, 540960, Note_on_c, 1, 76, 56
3, 541728, Note_off_c, 1, 76, 64
3, 541728, Note_off_c, 1, 64, 64
3, 541920, Note_on_c, 1, 79, 56
3, 541920, Note_on_c, 1, 67, 56
3, 542688, Note_off_c, 1, 67, 64
3, 542688, Note_off_c, 1, 79, 64
3, 542880, Note_on_c, 1, 84, 56
3, 542880, Note_on_c, 1, 72, 56
3, 543648, Note_off_c, 1, 72, 64
3, 543648, Note_off_c, 1, 84, 64
3, 543840, Note_on_c, 1, 76, 56
3, 543840, Note_on_c, 1, 64, 56
3, 544608, Note_off_c, 1, 64, 64
3, 544608, Note_off_c, 1, 76, 64
3, 544800, Note_on_c, 1, 74, 80
3, 544800, Note_on_c, 1, 77, 80
3, 546336, Note_off_c, 1, 77, 64
3, 546336, Note_off_c, 1, 74, 64
3, 546720, Note_on_c, 1, 72, 80
3, 546720, Note_on_c, 1, 76, 80
3, 546816, Note_off_c, 1, 76, 64
3, 546816, Note_off_c, 1, 72, 64
3, 546960, Note_on_c, 1, 74, 80
3, 546960, Note_on_c, 1, 71, 80
3, 547080, Note_off_c, 1, 71, 64
3, 547080, Note_off_c, 1, 74, 64
3, 547080, Note_on_c, 1, 76, 80
3, 547080, Note_on_c, 1, 72, 80
3, 547200, Note_off_c, 1, 72, 64
3, 547200, Note_off_c, 1, 76, 64
3, 547200, Note_on_c, 1, 74, 80
3, 547200, Note_on_c, 1, 77, 80
3, 547296, Note_off_c, 1, 77, 64
3, 547296, Note_off_c, 1, 74, 64
3, 547440, Note_on_c, 1, 72, 80
3, 547440, Note_on_c, 1, 76, 80
3, 547536, Note_off_c, 1, 76, 64
3, 547536, Note_off_c, 1, 72, 64
3, 547680, Note_on_c, 1, 72, 80
3, 547680, Note_on_c, 1, 76, 80
3, 547776, Note_off_c, 1, 76, 64
3, 547776, Note_off_c, 1, 72, 64
3, 547920, Note_on_c, 1, 74, 80
3, 547920, Note_on_c, 1, 71, 80
3, 548040, Note_off_c, 1, 71, 64
3, 548040, Note_off_c, 1, 74, 64
3, 548040, Note_on_c, 1, 72, 80
3, 548040, Note_on_c, 1, 76, 80
3, 548160, Note_off_c, 1, 76, 64
3, 548160, Note_off_c, 1, 72, 64
3, 548160, Note_on_c, 1, 77, 80
3, 548160, Note_on_c, 1, 74, 80
3, 548256, Note_off_c, 1, 74, 64
3, 548256, Note_off_c, 1, 77, 64
3, 548400, Note_on_c, 1, 72, 80
3, 548400, Note_on_c, 1, 76, 80
3, 548496, Note_off_c, 1, 76, 64
3, 548496, Note_off_c, 1, 72, 64
3, 548640, Note_on_c, 1, 74, 80
3, 548640, Note_on_c, 1, 77, 80
3, 550176, Note_off_c, 1, 77, 64
3, 550176, Note_off_c, 1, 74, 64
3, 550560, Note_on_c, 1, 72, 80
3, 550560, Note_on_c, 1, 76, 80
3, 550656, Note_off_c, 1, 76, 64
3, 550656, Note_off_c, 1, 72, 64
3, 550800, Note_on_c, 1, 74, 80
3, 550800, Note_on_c, 1, 71, 80
3, 550920, Note_off_c, 1, 71, 64
3, 550920, Note_off_c, 1, 74, 64
3, 550920, Note_on_c, 1, 76, 80
3, 550920, Note_on_c, 1, 72, 80
3, 551040, Note_off_c, 1, 72, 64
3, 551040, Note_off_c, 1, 76, 64
3, 551040, Note_on_c, 1, 74, 80
3, 551040, Note_on_c, 1, 77, 80
3, 551136, Note_off_c, 1, 77, 64
3, 551136, Note_off_c, 1, 74, 64
3, 551280, Note_on_c, 1, 72, 80
3, 551280, Note_on_c, 1, 76, 80
3, 551376, Note_off_c, 1, 76, 64
3, 551376, Note_off_c, 1, 72, 64
3, 551520, Note_on_c, 1, 72, 80
3, 551520, Note_on_c, 1, 76, 80
3, 551616, Note_off_c, 1, 76, 64
3, 551616, Note_off_c, 1, 72, 64
3, 551760, Note_on_c, 1, 74, 80
3, 551760, Note_on_c, 1, 71, 80
3, 551880, Note_off_c, 1, 71, 64
3, 551880, Note_off_c, 1, 74, 64
3, 551880, Note_on_c, 1, 72, 80
3, 551880, Note_on_c, 1, 76, 80
3, 552000, Note_off_c, 1, 76, 64
3, 552000, Note_off_c, 1, 72, 64
3, 552000, Note_on_c, 1, 77, 80
3, 552000, Note_on_c, 1, 74, 80
3, 552096, Note_off_c, 1, 74, 64
3, 552096, Note_off_c, 1, 77, 64
3, 552240, Note_on_c, 1, 72, 80
3, 552240, Note_on_c, 1, 76, 80
3, 552336, Note_off_c, 1, 76, 64
3, 552336, Note_off_c, 1, 72, 64
3, 552480, Note_on_c, 1, 74, 80
3, 552480, Note_on_c, 1, 77, 80
3, 554016, Note_off_c, 1, 77, 64
3, 554016, Note_off_c, 1, 74, 64
3, 554400, Note_on_c, 1, 76, 80
3, 554400, Note_on_c, 1, 72, 80
3, 554496, Note_off_c, 1, 72, 64
3, 554496, Note_off_c, 1, 76, 64
3, 554640, Note_on_c, 1, 71, 80
3, 554640, Note_on_c, 1, 74, 80
3, 554760, Note_off_c, 1, 74, 64
3, 554760, Note_off_c, 1, 71, 64
3, 554760, Note_on_c, 1, 72, 80
3, 554760, Note_on_c, 1, 76, 80
3, 554880, Note_off_c, 1, 76, 64
3, 554880, Note_off_c, 1, 72, 64
3, 554880, Note_on_c, 1, 77, 80
3, 554880, Note_on_c, 1, 74, 80
3, 554976, Note_off_c, 1, 74, 64
3, 554976, Note_off_c, 1, 77, 64
3, 555120, Note_on_c, 1, 76, 80
3, 555120, Note_on_c, 1, 72, 80
3, 555216, Note_off_c, 1, 72, 64
3, 555216, Note_off_c, 1, 76, 64
3, 555360, Note_on_c, 1, 76, 80
3, 555360, Note_on_c, 1, 72, 80
3, 555456, Note_off_c, 1, 72, 64
3, 555456, Note_off_c, 1, 76, 64
3, 555600, Note_on_c, 1, 74, 80
3, 555600, Note_on_c, 1, 71, 80
3, 555720, Note_off_c, 1, 71, 64
3, 555720, Note_off_c, 1, 74, 64
3, 555720, Note_on_c, 1, 72, 80
3, 555720, Note_on_c, 1, 76, 80
3, 555840, Note_off_c, 1, 76, 64
3, 555840, Note_off_c, 1, 72, 64
3, 555840, Note_on_c, 1, 74, 80
3, 555840, Note_on_c, 1, 77, 80
3, 555936, Note_off_c, 1, 77, 64
3, 555936, Note_off_c, 1, 74, 64
3, 556080, Note_on_c, 1, 76, 80
3, 556080, Note_on_c, 1, 72, 80
3, 556176, Note_off_c, 1, 72, 64
3, 556176, Note_off_c, 1, 76, 64
3, 556320, Note_on_c, 1, 79, 80
3, 556320, Note_on_c, 1, 76, 80
3, 556416, Note_off_c, 1, 76, 64
3, 556416, Note_off_c, 1, 79, 64
3, 556560, Note_on_c, 1, 77, 80
3, 556560, Note_on_c, 1, 74, 80
3, 556680, Note_off_c, 1, 74, 64
3, 556680, Note_off_c, 1, 77, 64
3, 556680, Note_on_c, 1, 79, 80
3, 556680, Note_on_c, 1, 76, 80
3, 556800, Note_off_c, 1, 76, 64
3, 556800, Note_off_c, 1, 79, 64
3, 556800, Note_on_c, 1, 81, 80
3, 556800, Note_on_c, 1, 77, 80
3, 556896, Note_off_c, 1, 77, 64
3, 556896, Note_off_c, 1, 81, 64
3, 557040, Note_on_c, 1, 76, 80
3, 557040, Note_on_c, 1, 79, 80
3, 557136, Note_off_c, 1, 79, 64
3, 557136, Note_off_c, 1, 76, 64
3, 557280, Note_on_c, 1, 79, 80
3, 557280, Note_on_c, 1, 76, 80
3, 557376, Note_off_c, 1, 76, 64
3, 557376, Note_off_c, 1, 79, 64
3, 557520, Note_on_c, 1, 77, 80
3, 557520, Note_on_c, 1, 74, 80
3, 557640, Note_off_c, 1, 74, 64
3, 557640, Note_off_c, 1, 77, 64
3, 557640, Note_on_c, 1, 76, 80
3, 557640, Note_on_c, 1, 79, 80
3, 557760, Note_off_c, 1, 79, 64
3, 557760, Note_off_c, 1, 76, 64
3, 557760, Note_on_c, 1, 81, 80
3, 557760, Note_on_c, 1, 77, 80
3, 557856, Note_off_c, 1, 77, 64
3, 557856, Note_off_c, 1, 81, 64
3, 558000, Note_on_c, 1, 79, 80
3, 558000, Note_on_c, 1, 76, 80
3, 558096, Note_off_c, 1, 76, 64
3, 558096, Note_off_c, 1, 79, 64
3, 558240, Note_on_c, 1, 72, 80
3, 558240, Note_on_c, 1, 76, 80
3, 558336, Note_off_c, 1, 76, 64
3, 558336, Note_off_c, 1, 72, 64
3, 558480, Note_on_c, 1, 71, 80
3, 558480, Note_on_c, 1, 74, 80
3, 558600, Note_off_c, 1, 74, 64
3, 558600, Note_off_c, 1, 71, 64
3, 558600, Note_on_c, 1, 76, 80
3, 558600, Note_on_c, 1, 72, 80
3, 558720, Note_off_c, 1, 72, 64
3, 558720, Note_off_c, 1, 76, 64
3, 558720, Note_on_c, 1, 77, 80
3, 558720, Note_on_c, 1, 74, 80
3, 558816, Note_off_c, 1, 74, 64
3, 558816, Note_off_c, 1, 77, 64
3, 558960, Note_on_c, 1, 72, 80
3, 558960, Note_on_c, 1, 76, 80
3, 559056, Note_off_c, 1, 76, 64
3, 559056, Note_off_c, 1, 72, 64
3, 559200, Note_on_c, 1, 76, 80
3, 559200, Note_on_c, 1, 72, 80
3, 559296, Note_off_c, 1, 72, 64
3, 559296, Note_off_c, 1, 76, 64
3, 559440, Note_on_c, 1, 71, 80
3, 559440, Note_on_c, 1, 74, 80
3, 559560, Note_off_c, 1, 74, 64
3, 559560, Note_off_c, 1, 71, 64
3, 559560, Note_on_c, 1, 76, 80
3, 559560, Note_on_c, 1, 72, 80
3, 559680, Note_off_c, 1, 72, 64
3, 559680, Note_off_c, 1, 76, 64
3, 559680, Note_on_c, 1, 77, 80
3, 559680, Note_on_c, 1, 74, 80
3, 559776, Note_off_c, 1, 74, 64
3, 559776, Note_off_c, 1, 77, 64
3, 559920, Note_on_c, 1, 76, 80
3, 559920, Note_on_c, 1, 72, 80
3, 560016, Note_off_c, 1, 72, 64
3, 560016, Note_off_c, 1, 76, 64
3, 560160, Note_on_c, 1, 72, 80
3, 560160, Note_on_c, 1, 84, 80
3, 560352, Note_off_c, 1, 84, 64
3, 560352, Note_off_c, 1, 72, 64
3, 561120, Note_on_c, 1, 72, 80
3, 561120, Note_on_c, 1, 84, 80
3, 561312, Note_off_c, 1, 84, 64
3, 561312, Note_off_c, 1, 72, 64
3, 562320, Note_on_c, 1, 72, 80
3, 562320, Note_on_c, 1, 84, 80
3, 566352, Note_off_c, 1, 84, 64
3, 566352, Note_off_c, 1, 72, 64
3, 566352, End_track
4, 0, Start_track
4, 0, Title_t, "Clarinet"
4, 0, MIDI_port, 0
4, 0, Channel_prefix, 2
4, 0, Control_c, 2, 7, 74
4, 0, Control_c, 2, 10, 55
4, 0, Program_c, 2, 71
4, 480, Program_c, 2, 71
4, 480, Control_c, 2, 91, 85
4, 480, Control_c, 2, 7, 90
4, 480, Control_c, 2, 10, 60
4, 5760, Note_on_c, 2, 72, 72
4, 5760, Note_on_c, 2, 64, 72
4, 5904, Note_off_c, 2, 64, 64
4, 5904, Note_off_c, 2, 72, 64
4, 7680, Note_on_c, 2, 79, 72
4, 7680, Note_on_c, 2, 74, 72
4, 7824, Note_off_c, 2, 74, 64
4, 7824, Note_off_c, 2, 79, 64
4, 9600, Note_on_c, 2, 72, 72
4, 9600, Note_on_c, 2, 76, 72
4, 9744, Note_off_c, 2, 76, 64
4, 9744, Note_off_c, 2, 72, 64
4, 10560, Note_on_c, 2, 77, 72
4, 10560, Note_on_c, 2, 69, 72
4, 10704, Note_off_c, 2, 69, 64
4, 10704, Note_off_c, 2, 77, 64
4, 11520, Note_on_c, 2, 71, 72
4, 11520, Note_on_c, 2, 62, 72
4, 11664, Note_off_c, 2, 62, 64
4, 11664, Note_off_c, 2, 71, 64
4, 12360, Note_on_c, 2, 59, 36
4, 12360, Note_on_c, 2, 55, 36
4, 12420, Note_off_c, 2, 55, 64
4, 12420, Note_off_c, 2, 59, 64
4, 12480, Note_on_c, 2, 57, 36
4, 12480, Note_on_c, 2, 60, 36
4, 12840, Note_off_c, 2, 60, 64
4, 12840, Note_off_c, 2, 57, 64
4, 12960, Note_on_c, 2, 59, 36
4, 12960, Note_on_c, 2, 62, 36
4, 13320, Note_off_c, 2, 62, 64
4, 13320, Note_off_c, 2, 59, 64
4, 13440, Note_on_c, 2, 64, 32
4, 13440, Note_on_c, 2, 67, 32
4, 14112, Note_off_c, 2, 67, 64
4, 14112, Note_off_c, 2, 64, 64
4, 14280, Note_on_c, 2, 62, 36
4, 14280, Note_on_c, 2, 65, 36
4, 14376, Note_off_c, 2, 65, 64
4, 14376, Note_off_c, 2, 62, 64
4, 14400, Note_on_c, 2, 60, 36
4, 14400, Note_on_c, 2, 64, 36
4, 14880, Note_off_c, 2, 64, 64
4, 14880, Note_off_c, 2, 60, 64
4, 14880, Note_on_c, 2, 71, 36
4, 14880, Note_on_c, 2, 62, 36
4, 15360, Note_off_c, 2, 62, 64
4, 15360, Note_off_c, 2, 71, 64
4, 15360, Note_on_c, 2, 72, 36
4, 15360, Note_on_c, 2, 64, 36
4, 15840, Note_off_c, 2, 64, 64
4, 15840, Note_off_c, 2, 72, 64
4, 15840, Note_on_c, 2, 65, 36
4, 15840, Note_on_c, 2, 74, 36
4, 16200, Note_off_c, 2, 74, 64
4, 16200, Note_off_c, 2, 65, 64
4, 16200, Note_on_c, 2, 72, 36
4, 16200, Note_on_c, 2, 64, 36
4, 16296, Note_off_c, 2, 64, 64
4, 16296, Note_off_c, 2, 72, 64
4, 16320, Note_on_c, 2, 64, 36
4, 16320, Note_on_c, 2, 72, 36
4, 16800, Note_off_c, 2, 72, 64
4, 16800, Note_off_c, 2, 64, 64
4, 16800, Note_on_c, 2, 62, 31
4, 16800, Note_on_c, 2, 71, 31
4, 17184, Note_off_c, 2, 71, 64
4, 17184, Note_off_c, 2, 62, 64
4, 17280, Note_on_c, 2, 65, 36
4, 17280, Note_on_c, 2, 62, 36
4, 18078, Note_off_c, 2, 62, 64
4, 18078, Note_off_c, 2, 65, 64
4, 18120, Note_on_c, 2, 60, 36
4, 18120, Note_on_c, 2, 64, 36
4, 18216, Note_off_c, 2, 64, 64
4, 18216, Note_off_c, 2, 60, 64
4, 18240, Note_on_c, 2, 59, 36
4, 18240, Note_on_c, 2, 62, 36
4, 18720, Note_off_c, 2, 62, 64
4, 18720, Note_off_c, 2, 59, 64
4, 18720, Note_on_c, 2, 60, 36
4, 18720, Note_on_c, 2, 64, 36
4, 19200, Note_off_c, 2, 64, 64
4, 19200, Note_off_c, 2, 60, 64
4, 19200, Note_on_c, 2, 64, 36
4, 19200, Note_on_c, 2, 67, 36
4, 19680, Note_off_c, 2, 67, 64
4, 19680, Note_off_c, 2, 64, 64
4, 19680, Note_on_c, 2, 62, 36
4, 19680, Note_on_c, 2, 65, 36
4, 20040, Note_off_c, 2, 65, 64
4, 20040, Note_off_c, 2, 62, 64
4, 20040, Note_on_c, 2, 64, 36
4, 20040, Note_on_c, 2, 60, 36
4, 20136, Note_off_c, 2, 60, 64
4, 20136, Note_off_c, 2, 64, 64
4, 20160, Note_on_c, 2, 67, 25
4, 20160, Note_on_c, 2, 48, 25
4, 20160, Note_on_c, 2, 55, 25
4, 20544, Note_off_c, 2, 55, 64
4, 20544, Note_off_c, 2, 48, 64
4, 20544, Note_off_c, 2, 67, 64
4, 20640, Note_on_c, 2, 65, 25
4, 20640, Note_on_c, 2, 55, 25
4, 20640, Note_on_c, 2, 48, 25
4, 20928, Note_off_c, 2, 48, 64
4, 20928, Note_off_c, 2, 55, 64
4, 20928, Note_off_c, 2, 65, 64
4, 21000, Note_on_c, 2, 55, 25
4, 21000, Note_on_c, 2, 64, 25
4, 21000, Note_on_c, 2, 48, 25
4, 21096, Note_off_c, 2, 48, 64
4, 21096, Note_off_c, 2, 64, 64
4, 21096, Note_off_c, 2, 55, 64
4, 21120, Note_on_c, 2, 62, 36
4, 21120, Note_on_c, 2, 74, 36
4, 22080, Note_off_c, 2, 74, 64
4, 22080, Note_off_c, 2, 62, 64
4, 22080, Note_on_c, 2, 64, 36
4, 22080, Note_on_c, 2, 72, 36
4, 22560, Note_off_c, 2, 64, 64
4, 22560, Note_on_c, 2, 66, 36
4, 23040, Note_off_c, 2, 72, 64
4, 23040, Note_off_c, 2, 66, 64
4, 23040, Note_on_c, 2, 67, 36
4, 23040, Note_on_c, 2, 71, 36
4, 23760, Note_off_c, 2, 67, 64
4, 23760, Note_on_c, 2, 69, 36
4, 24000, Note_off_c, 2, 69, 64
4, 24000, Note_on_c, 2, 67, 36
4, 24480, Note_off_c, 2, 71, 64
4, 24480, Note_off_c, 2, 67, 64
4, 24480, Note_on_c, 2, 64, 36
4, 24480, Note_on_c, 2, 72, 36
4, 25440, Note_off_c, 2, 72, 64
4, 25440, Note_on_c, 2, 67, 32
4, 25680, Note_off_c, 2, 67, 64
4, 25680, Note_on_c, 2, 69, 29
4, 25920, Note_off_c, 2, 64, 64
4, 25920, Note_off_c, 2, 69, 64
4, 25920, Note_on_c, 2, 71, 26
4, 26880, Note_off_c, 2, 71, 64
4, 26880, Note_on_c, 2, 64, 23
4, 27264, Note_off_c, 2, 64, 64
4, 27360, Note_on_c, 2, 55, 29
4, 27360, Note_on_c, 2, 52, 29
4, 27648, Note_off_c, 2, 52, 64
4, 27648, Note_off_c, 2, 55, 64
4, 27720, Note_on_c, 2, 55, 29
4, 27720, Note_on_c, 2, 52, 29
4, 27816, Note_off_c, 2, 52, 64
4, 27816, Note_off_c, 2, 55, 64
4, 27840, Note_on_c, 2, 52, 29
4, 27840, Note_on_c, 2, 55, 29
4, 28032, Note_off_c, 2, 55, 64
4, 28032, Note_off_c, 2, 52, 64
4, 28320, Note_on_c, 2, 52, 29
4, 28320, Note_on_c, 2, 55, 29
4, 28512, Note_off_c, 2, 55, 64
4, 28512, Note_off_c, 2, 52, 64
4, 28800, Note_on_c, 2, 67, 32
4, 28800, Note_on_c, 2, 64, 32
4, 29760, Note_off_c, 2, 64, 64
4, 29760, Note_off_c, 2, 67, 64
4, 29760, Note_on_c, 2, 65, 32
4, 29760, Note_on_c, 2, 69, 32
4, 30240, Note_off_c, 2, 69, 64
4, 30240, Note_off_c, 2, 65, 64
4, 30240, Note_on_c, 2, 64, 32
4, 30240, Note_on_c, 2, 67, 32
4, 30720, Note_off_c, 2, 67, 64
4, 30720, Note_off_c, 2, 64, 64
4, 30720, Note_on_c, 2, 60, 32
4, 30720, Note_on_c, 2, 65, 32
4, 31104, Note_off_c, 2, 65, 64
4, 31104, Note_off_c, 2, 60, 64
4, 31200, Note_on_c, 2, 64, 32
4, 31200, Note_on_c, 2, 60, 32
4, 31584, Note_off_c, 2, 60, 64
4, 31584, Note_off_c, 2, 64, 64
4, 31680, Note_on_c, 2, 65, 32
4, 31680, Note_on_c, 2, 57, 32
4, 32160, Note_off_c, 2, 57, 64
4, 32160, Note_on_c, 2, 62, 20
4, 32544, Note_off_c, 2, 65, 64
4, 32544, Note_off_c, 2, 62, 64
4, 32640, Note_on_c, 2, 62, 32
4, 32640, Note_on_c, 2, 65, 32
4, 33360, Note_off_c, 2, 65, 64
4, 33360, Note_off_c, 2, 62, 64
4, 33360, Note_on_c, 2, 64, 32
4, 33360, Note_on_c, 2, 67, 32
4, 33480, Note_off_c, 2, 67, 64
4, 33480, Note_off_c, 2, 64, 64
4, 33480, Note_on_c, 2, 69, 32
4, 33480, Note_on_c, 2, 65, 32
4, 33600, Note_off_c, 2, 65, 64
4, 33600, Note_off_c, 2, 69, 64
4, 33600, Note_on_c, 2, 67, 32
4, 33600, Note_on_c, 2, 64, 32
4, 33984, Note_off_c, 2, 64, 64
4, 33984, Note_off_c, 2, 67, 64
4, 34080, Note_on_c, 2, 65, 32
4, 34080, Note_on_c, 2, 62, 32
4, 34464, Note_off_c, 2, 62, 64
4, 34464, Note_off_c, 2, 65, 64
4, 34560, Note_on_c, 2, 60, 32
4, 34560, Note_on_c, 2, 64, 32
4, 34944, Note_off_c, 2, 64, 64
4, 34944, Note_off_c, 2, 60, 64
4, 35040, Note_on_c, 2, 59, 32
4, 35040, Note_on_c, 2, 62, 32
4, 35424, Note_off_c, 2, 62, 64
4, 35424, Note_off_c, 2, 59, 64
4, 35520, Note_on_c, 2, 64, 32
4, 35520, Note_on_c, 2, 60, 32
4, 35760, Note_off_c, 2, 60, 64
4, 35760, Note_off_c, 2, 64, 64
4, 35760, Note_on_c, 2, 72, 32
4, 35760, Note_on_c, 2, 60, 32
4, 36240, Note_off_c, 2, 60, 64
4, 36240, Note_off_c, 2, 72, 64
4, 36240, Note_on_c, 2, 70, 32
4, 36240, Note_on_c, 2, 58, 32
4, 36480, Note_off_c, 2, 58, 64
4, 36480, Note_off_c, 2, 70, 64
4, 36480, Note_on_c, 2, 69, 22
4, 36480, Note_on_c, 2, 57, 22
4, 36864, Note_off_c, 2, 57, 64
4, 36960, Note_on_c, 2, 65, 22
4, 37344, Note_off_c, 2, 69, 64
4, 37440, Note_on_c, 2, 71, 22
4, 37824, Note_off_c, 2, 65, 64
4, 37920, Note_on_c, 2, 62, 22
4, 38370, Note_off_c, 2, 71, 64
4, 38370, Note_off_c, 2, 62, 64
4, 38400, Note_on_c, 2, 66, 22
4, 38400, Note_on_c, 2, 72, 22
4, 40224, Note_off_c, 2, 72, 64
4, 40224, Note_off_c, 2, 66, 64
4, 40320, Note_on_c, 2, 67, 22
4, 40320, Note_on_c, 2, 72, 22
4, 41232, Note_off_c, 2, 72, 64
4, 41232, Note_off_c, 2, 67, 64
4, 41280, Note_on_c, 2, 65, 22
4, 41280, Note_on_c, 2, 71, 22
4, 42000, Note_off_c, 2, 71, 64
4, 42000, Note_off_c, 2, 65, 64
4, 42000, Note_on_c, 2, 64, 22
4, 42000, Note_on_c, 2, 72, 22
4, 42192, Note_off_c, 2, 72, 64
4, 42192, Note_off_c, 2, 64, 64
4, 42240, Note_on_c, 2, 64, 23
4, 42240, Note_on_c, 2, 72, 23
4, 42624, Note_off_c, 2, 72, 64
4, 42624, Note_off_c, 2, 64, 64
4, 42720, Note_on_c, 2, 43, 33
4, 42720, Note_on_c, 2, 60, 33
4, 42720, Note_on_c, 2, 64, 33
4, 43104, Note_off_c, 2, 64, 64
4, 43104, Note_off_c, 2, 60, 64
4, 43104, Note_off_c, 2, 43, 64
4, 43200, Note_on_c, 2, 43, 33
4, 43200, Note_on_c, 2, 59, 33
4, 43200, Note_on_c, 2, 62, 33
4, 43776, Note_off_c, 2, 62, 64
4, 43776, Note_off_c, 2, 59, 64
4, 43776, Note_off_c, 2, 43, 64
4, 43920, Note_on_c, 2, 60, 33
4, 43920, Note_on_c, 2, 43, 33
4, 44112, Note_off_c, 2, 43, 64
4, 44112, Note_off_c, 2, 60, 64
4, 44160, Note_on_c, 2, 60, 38
4, 44160, Note_on_c, 2, 64, 38
4, 44958, Note_off_c, 2, 64, 64
4, 44958, Note_off_c, 2, 60, 64
4, 45000, Note_on_c, 2, 62, 38
4, 45000, Note_on_c, 2, 59, 38
4, 45096, Note_off_c, 2, 59, 64
4, 45096, Note_off_c, 2, 62, 64
4, 45120, Note_on_c, 2, 60, 38
4, 45120, Note_on_c, 2, 57, 38
4, 45600, Note_off_c, 2, 57, 64
4, 45600, Note_off_c, 2, 60, 64
4, 45600, Note_on_c, 2, 62, 38
4, 45600, Note_on_c, 2, 59, 38
4, 46080, Note_off_c, 2, 59, 64
4, 46080, Note_off_c, 2, 62, 64
4, 46080, Note_on_c, 2, 60, 38
4, 46080, Note_on_c, 2, 64, 38
4, 46560, Note_off_c, 2, 64, 64
4, 46560, Note_off_c, 2, 60, 64
4, 46560, Note_on_c, 2, 62, 38
4, 46560, Note_on_c, 2, 65, 38
4, 46920, Note_off_c, 2, 65, 64
4, 46920, Note_off_c, 2, 62, 64
4, 46920, Note_on_c, 2, 64, 38
4, 46920, Note_on_c, 2, 60, 38
4, 47016, Note_off_c, 2, 60, 64
4, 47016, Note_off_c, 2, 64, 64
4, 47040, Note_on_c, 2, 64, 38
4, 47040, Note_on_c, 2, 60, 38
4, 47520, Note_off_c, 2, 60, 64
4, 47520, Note_off_c, 2, 64, 64
4, 47520, Note_on_c, 2, 62, 32
4, 47520, Note_on_c, 2, 59, 32
4, 47904, Note_off_c, 2, 59, 64
4, 47904, Note_off_c, 2, 62, 64
4, 48000, Note_on_c, 2, 57, 54
4, 48000, Note_on_c, 2, 65, 54
4, 48798, Note_off_c, 2, 65, 64
4, 48798, Note_off_c, 2, 57, 64
4, 48840, Note_on_c, 2, 64, 54
4, 48840, Note_on_c, 2, 60, 54
4, 48936, Note_off_c, 2, 60, 64
4, 48936, Note_off_c, 2, 64, 64
4, 48960, Note_on_c, 2, 62, 54
4, 48960, Note_on_c, 2, 59, 54
4, 49440, Note_off_c, 2, 59, 64
4, 49440, Note_off_c, 2, 62, 64
4, 49440, Note_on_c, 2, 64, 54
4, 49440, Note_on_c, 2, 60, 54
4, 49920, Note_off_c, 2, 60, 64
4, 49920, Note_off_c, 2, 64, 64
4, 49920, Note_on_c, 2, 67, 38
4, 49920, Note_on_c, 2, 64, 38
4, 50400, Note_off_c, 2, 64, 64
4, 50400, Note_off_c, 2, 67, 64
4, 50400, Note_on_c, 2, 65, 38
4, 50400, Note_on_c, 2, 62, 38
4, 50760, Note_off_c, 2, 62, 64
4, 50760, Note_off_c, 2, 65, 64
4, 50760, Note_on_c, 2, 64, 38
4, 50760, Note_on_c, 2, 60, 38
4, 50856, Note_off_c, 2, 60, 64
4, 50856, Note_off_c, 2, 64, 64
4, 50880, Note_on_c, 2, 64, 38
4, 50880, Note_on_c, 2, 60, 38
4, 51264, Note_off_c, 2, 60, 64
4, 51264, Note_off_c, 2, 64, 64
4, 51840, Note_on_c, 2, 62, 58
4, 51840, Note_on_c, 2, 67, 29
4, 52800, Note_off_c, 2, 67, 64
4, 52800, Note_off_c, 2, 62, 64
4, 52800, Note_on_c, 2, 69, 29
4, 52800, Note_on_c, 2, 60, 58
4, 53280, Note_off_c, 2, 60, 64
4, 53280, Note_on_c, 2, 62, 58
4, 53760, Note_off_c, 2, 69, 64
4, 53760, Note_off_c, 2, 62, 64
4, 53760, Note_on_c, 2, 71, 29
4, 53760, Note_on_c, 2, 62, 58
4, 54240, Note_off_c, 2, 62, 64
4, 54240, Note_on_c, 2, 63, 58
4, 54720, Note_off_c, 2, 63, 64
4, 54720, Note_on_c, 2, 64, 58
4, 55200, Note_off_c, 2, 71, 64
4, 55200, Note_off_c, 2, 64, 64
4, 55200, Note_on_c, 2, 72, 29
4, 55200, Note_on_c, 2, 64, 58
4, 56160, Note_off_c, 2, 72, 64
4, 56160, Note_on_c, 2, 67, 26
4, 56400, Note_off_c, 2, 67, 64
4, 56400, Note_on_c, 2, 69, 23
4, 56640, Note_off_c, 2, 64, 64
4, 56640, Note_off_c, 2, 69, 64
4, 56640, Note_on_c, 2, 71, 21
4, 56640, Note_on_c, 2, 59, 58
4, 57600, Note_off_c, 2, 59, 64
4, 57600, Note_off_c, 2, 71, 64
4, 57600, Note_on_c, 2, 52, 22
4, 57984, Note_off_c, 2, 52, 64
4, 58080, Note_on_c, 2, 67, 45
4, 58080, Note_on_c, 2, 64, 45
4, 58368, Note_off_c, 2, 64, 64
4, 58368, Note_off_c, 2, 67, 64
4, 58440, Note_on_c, 2, 67, 45
4, 58440, Note_on_c, 2, 64, 45
4, 58536, Note_off_c, 2, 64, 64
4, 58536, Note_off_c, 2, 67, 64
4, 58560, Note_on_c, 2, 67, 45
4, 58560, Note_on_c, 2, 64, 45
4, 58944, Note_off_c, 2, 64, 64
4, 58944, Note_off_c, 2, 67, 64
4, 59040, Note_on_c, 2, 67, 45
4, 59040, Note_on_c, 2, 64, 45
4, 59400, Note_off_c, 2, 64, 64
4, 59424, Note_off_c, 2, 67, 64
4, 59520, Note_on_c, 2, 64, 54
4, 59520, Note_on_c, 2, 67, 54
4, 60480, Note_off_c, 2, 67, 64
4, 60480, Note_off_c, 2, 64, 64
4, 60480, Note_on_c, 2, 65, 54
4, 60480, Note_on_c, 2, 69, 54
4, 60960, Note_off_c, 2, 69, 64
4, 60960, Note_off_c, 2, 65, 64
4, 60960, Note_on_c, 2, 64, 54
4, 60960, Note_on_c, 2, 67, 54
4, 61440, Note_off_c, 2, 67, 64
4, 61440, Note_off_c, 2, 64, 64
4, 61440, Note_on_c, 2, 60, 54
4, 61440, Note_on_c, 2, 65, 54
4, 61824, Note_off_c, 2, 65, 64
4, 61824, Note_off_c, 2, 60, 64
4, 61920, Note_on_c, 2, 60, 54
4, 61920, Note_on_c, 2, 64, 54
4, 62304, Note_off_c, 2, 64, 64
4, 62304, Note_off_c, 2, 60, 64
4, 62400, Note_on_c, 2, 65, 54
4, 62400, Note_on_c, 2, 57, 54
4, 62880, Note_off_c, 2, 57, 64
4, 62880, Note_on_c, 2, 62, 41
4, 63264, Note_off_c, 2, 65, 64
4, 63264, Note_off_c, 2, 62, 64
4, 63360, Note_on_c, 2, 62, 54
4, 63360, Note_on_c, 2, 65, 54
4, 64080, Note_off_c, 2, 65, 64
4, 64080, Note_off_c, 2, 62, 64
4, 64080, Note_on_c, 2, 67, 54
4, 64080, Note_on_c, 2, 64, 54
4, 64200, Note_off_c, 2, 64, 64
4, 64200, Note_off_c, 2, 67, 64
4, 64200, Note_on_c, 2, 69, 54
4, 64200, Note_on_c, 2, 65, 54
4, 64320, Note_off_c, 2, 65, 64
4, 64320, Note_off_c, 2, 69, 64
4, 64320, Note_on_c, 2, 64, 54
4, 64320, Note_on_c, 2, 67, 54
4, 64680, Note_off_c, 2, 64, 64
4, 64704, Note_off_c, 2, 67, 64
4, 64800, Note_on_c, 2, 65, 54
4, 64800, Note_on_c, 2, 62, 54
4, 65184, Note_off_c, 2, 62, 64
4, 65184, Note_off_c, 2, 65, 64
4, 65280, Note_on_c, 2, 60, 54
4, 65280, Note_on_c, 2, 64, 54
4, 65664, Note_off_c, 2, 64, 64
4, 65664, Note_off_c, 2, 60, 64
4, 65760, Note_on_c, 2, 62, 54
4, 65760, Note_on_c, 2, 59, 54
4, 66144, Note_off_c, 2, 59, 64
4, 66144, Note_off_c, 2, 62, 64
4, 66240, Note_on_c, 2, 60, 54
4, 66240, Note_on_c, 2, 64, 54
4, 66720, Note_off_c, 2, 64, 64
4, 66720, Note_off_c, 2, 60, 64
4, 66720, Note_on_c, 2, 65, 54
4, 66720, Note_on_c, 2, 62, 54
4, 66960, Note_off_c, 2, 62, 64
4, 66960, Note_off_c, 2, 65, 64
4, 66960, Note_on_c, 2, 67, 54
4, 66960, Note_on_c, 2, 64, 54
4, 67200, Note_off_c, 2, 64, 64
4, 67200, Note_off_c, 2, 67, 64
4, 67200, Note_on_c, 2, 60, 72
4, 67200, Note_on_c, 2, 69, 72
4, 67584, Note_off_c, 2, 60, 64
4, 67680, Note_on_c, 2, 65, 72
4, 68064, Note_off_c, 2, 69, 64
4, 68160, Note_on_c, 2, 71, 72
4, 68544, Note_off_c, 2, 65, 64
4, 68640, Note_on_c, 2, 62, 72
4, 69090, Note_off_c, 2, 71, 64
4, 69090, Note_off_c, 2, 62, 64
4, 69120, Note_on_c, 2, 60, 72
4, 69120, Note_on_c, 2, 72, 72
4, 70488, Note_off_c, 2, 72, 64
4, 70488, Note_off_c, 2, 60, 64
4, 70560, Note_on_c, 2, 60, 72
4, 70800, Note_off_c, 2, 60, 64
4, 70800, Note_on_c, 2, 62, 72
4, 70992, Note_off_c, 2, 62, 64
4, 71040, Note_on_c, 2, 60, 72
4, 71040, Note_on_c, 2, 64, 72
4, 71952, Note_off_c, 2, 64, 64
4, 71952, Note_off_c, 2, 60, 64
4, 72000, Note_on_c, 2, 62, 72
4, 72000, Note_on_c, 2, 59, 72
4, 72720, Note_off_c, 2, 59, 64
4, 72720, Note_off_c, 2, 62, 64
4, 72720, Note_on_c, 2, 60, 72
4, 72912, Note_off_c, 2, 60, 64
4, 72960, Note_on_c, 2, 60, 72
4, 73344, Note_off_c, 2, 60, 64
4, 74880, Note_on_c, 2, 72, 61
4, 75024, Note_off_c, 2, 72, 64
4, 76800, Note_on_c, 2, 76, 61
4, 76800, Note_on_c, 2, 72, 61
4, 76944, Note_off_c, 2, 72, 64
4, 76944, Note_off_c, 2, 76, 64
4, 78720, Note_on_c, 2, 76, 61
4, 78720, Note_on_c, 2, 72, 61
4, 78864, Note_off_c, 2, 72, 64
4, 78864, Note_off_c, 2, 76, 64
4, 79680, Note_on_c, 2, 76, 61
4, 79680, Note_on_c, 2, 72, 61
4, 79824, Note_off_c, 2, 72, 64
4, 79824, Note_off_c, 2, 76, 64
4, 80640, Note_on_c, 2, 77, 61
4, 80640, Note_on_c, 2, 74, 61
4, 80784, Note_off_c, 2, 74, 64
4, 80784, Note_off_c, 2, 77, 64
4, 81120, Note_on_c, 2, 72, 61
4, 81120, Note_on_c, 2, 76, 61
4, 81264, Note_off_c, 2, 76, 64
4, 81264, Note_off_c, 2, 72, 64
4, 81600, Note_on_c, 2, 71, 61
4, 81600, Note_on_c, 2, 74, 61
4, 81744, Note_off_c, 2, 74, 64
4, 81744, Note_off_c, 2, 71, 64
4, 82560, Note_on_c, 2, 72, 52
4, 82704, Note_off_c, 2, 72, 64
4, 84480, Note_on_c, 2, 72, 52
4, 84480, Note_on_c, 2, 76, 52
4, 84624, Note_off_c, 2, 76, 64
4, 84624, Note_off_c, 2, 72, 64
4, 86400, Note_on_c, 2, 76, 52
4, 86400, Note_on_c, 2, 72, 52
4, 86544, Note_off_c, 2, 72, 64
4, 86544, Note_off_c, 2, 76, 64
4, 87360, Note_on_c, 2, 72, 52
4, 87360, Note_on_c, 2, 76, 52
4, 87504, Note_off_c, 2, 76, 64
4, 87504, Note_off_c, 2, 72, 64
4, 88320, Note_on_c, 2, 77, 52
4, 88320, Note_on_c, 2, 74, 52
4, 88464, Note_off_c, 2, 74, 64
4, 88464, Note_off_c, 2, 77, 64
4, 88800, Note_on_c, 2, 76, 52
4, 88800, Note_on_c, 2, 72, 52
4, 88944, Note_off_c, 2, 72, 64
4, 88944, Note_off_c, 2, 76, 64
4, 89280, Note_on_c, 2, 74, 52
4, 89280, Note_on_c, 2, 71, 52
4, 89424, Note_off_c, 2, 71, 64
4, 89424, Note_off_c, 2, 74, 64
4, 90240, Note_on_c, 2, 71, 52
4, 90240, Note_on_c, 2, 74, 52
4, 90384, Note_off_c, 2, 74, 64
4, 90384, Note_off_c, 2, 71, 64
4, 92160, Note_on_c, 2, 76, 52
4, 92160, Note_on_c, 2, 72, 52
4, 92304, Note_off_c, 2, 72, 64
4, 92304, Note_off_c, 2, 76, 64
4, 94080, Note_on_c, 2, 72, 52
4, 94080, Note_on_c, 2, 76, 52
4, 94224, Note_off_c, 2, 76, 64
4, 94224, Note_off_c, 2, 72, 64
4, 95040, Note_on_c, 2, 72, 52
4, 95040, Note_on_c, 2, 64, 52
4, 95160, Note_off_c, 2, 64, 64
4, 95184, Note_off_c, 2, 72, 64
4, 96000, Note_on_c, 2, 74, 52
4, 96000, Note_on_c, 2, 71, 52
4, 96144, Note_off_c, 2, 71, 64
4, 96144, Note_off_c, 2, 74, 64
4, 96480, Note_on_c, 2, 71, 52
4, 96480, Note_on_c, 2, 74, 52
4, 96624, Note_off_c, 2, 74, 64
4, 96624, Note_off_c, 2, 71, 64
4, 96960, Note_on_c, 2, 72, 52
4, 97104, Note_off_c, 2, 72, 64
4, 97920, Note_on_c, 2, 71, 52
4, 97920, Note_on_c, 2, 74, 52
4, 98064, Note_off_c, 2, 74, 64
4, 98064, Note_off_c, 2, 71, 64
4, 99840, Note_on_c, 2, 72, 52
4, 99840, Note_on_c, 2, 76, 52
4, 99984, Note_off_c, 2, 76, 64
4, 99984, Note_off_c, 2, 72, 64
4, 101760, Note_on_c, 2, 76, 52
4, 101760, Note_on_c, 2, 72, 52
4, 101904, Note_off_c, 2, 72, 64
4, 101904, Note_off_c, 2, 76, 64
4, 102720, Note_on_c, 2, 72, 52
4, 102720, Note_on_c, 2, 64, 52
4, 102840, Note_off_c, 2, 64, 64
4, 102864, Note_off_c, 2, 72, 64
4, 103680, Note_on_c, 2, 74, 52
4, 103680, Note_on_c, 2, 71, 52
4, 103824, Note_off_c, 2, 71, 64
4, 103824, Note_off_c, 2, 74, 64
4, 104160, Note_on_c, 2, 74, 52
4, 104160, Note_on_c, 2, 71, 52
4, 104304, Note_off_c, 2, 71, 64
4, 104304, Note_off_c, 2, 74, 64
4, 104640, Note_on_c, 2, 64, 52
4, 104640, Note_on_c, 2, 72, 52
4, 104784, Note_off_c, 2, 72, 64
4, 104784, Note_off_c, 2, 64, 64
4, 121080, Note_on_c, 2, 74, 35
4, 121128, Note_off_c, 2, 74, 64
4, 121200, Note_on_c, 2, 72, 36
4, 121248, Note_off_c, 2, 72, 64
4, 121320, Note_on_c, 2, 71, 37
4, 121368, Note_off_c, 2, 71, 64
4, 121440, Note_on_c, 2, 69, 39
4, 121488, Note_off_c, 2, 69, 64
4, 121560, Note_on_c, 2, 67, 40
4, 121608, Note_off_c, 2, 67, 64
4, 121680, Note_on_c, 2, 66, 41
4, 121728, Note_off_c, 2, 66, 64
4, 121800, Note_on_c, 2, 67, 41
4, 121848, Note_off_c, 2, 67, 64
4, 121920, Note_on_c, 2, 69, 43
4, 121968, Note_off_c, 2, 69, 64
4, 122040, Note_on_c, 2, 67, 43
4, 122088, Note_off_c, 2, 67, 64
4, 122160, Note_on_c, 2, 66, 44
4, 122208, Note_off_c, 2, 66, 64
4, 122280, Note_on_c, 2, 64, 44
4, 122328, Note_off_c, 2, 64, 64
4, 122400, Note_on_c, 2, 62, 46
4, 122448, Note_off_c, 2, 62, 64
4, 122520, Note_on_c, 2, 62, 48
4, 122568, Note_off_c, 2, 62, 64
4, 122640, Note_on_c, 2, 64, 50
4, 122688, Note_off_c, 2, 64, 64
4, 122760, Note_on_c, 2, 66, 50
4, 122808, Note_off_c, 2, 66, 64
4, 122880, Note_on_c, 2, 67, 41
4, 122880, Note_on_c, 2, 55, 41
4, 122928, Note_off_c, 2, 55, 64
4, 122928, Note_off_c, 2, 67, 64
4, 123000, Note_on_c, 2, 55, 41
4, 123000, Note_on_c, 2, 67, 41
4, 123048, Note_off_c, 2, 67, 64
4, 123048, Note_off_c, 2, 55, 64
4, 123120, Note_on_c, 2, 55, 42
4, 123120, Note_on_c, 2, 67, 42
4, 123168, Note_off_c, 2, 67, 64
4, 123168, Note_off_c, 2, 55, 64
4, 123240, Note_on_c, 2, 67, 43
4, 123240, Note_on_c, 2, 55, 43
4, 123288, Note_off_c, 2, 55, 64
4, 123288, Note_off_c, 2, 67, 64
4, 123360, Note_on_c, 2, 55, 44
4, 123360, Note_on_c, 2, 67, 44
4, 123408, Note_off_c, 2, 67, 64
4, 123408, Note_off_c, 2, 55, 64
4, 123480, Note_on_c, 2, 67, 45
4, 123480, Note_on_c, 2, 55, 45
4, 123528, Note_off_c, 2, 55, 64
4, 123528, Note_off_c, 2, 67, 64
4, 123600, Note_on_c, 2, 67, 46
4, 123600, Note_on_c, 2, 55, 46
4, 123648, Note_off_c, 2, 55, 64
4, 123648, Note_off_c, 2, 67, 64
4, 123720, Note_on_c, 2, 55, 47
4, 123720, Note_on_c, 2, 67, 47
4, 123768, Note_off_c, 2, 67, 64
4, 123768, Note_off_c, 2, 55, 64
4, 123840, Note_on_c, 2, 67, 48
4, 123840, Note_on_c, 2, 55, 48
4, 123888, Note_off_c, 2, 55, 64
4, 123888, Note_off_c, 2, 67, 64
4, 123960, Note_on_c, 2, 67, 48
4, 123960, Note_on_c, 2, 55, 48
4, 124008, Note_off_c, 2, 55, 64
4, 124008, Note_off_c, 2, 67, 64
4, 124080, Note_on_c, 2, 67, 49
4, 124080, Note_on_c, 2, 55, 49
4, 124128, Note_off_c, 2, 55, 64
4, 124128, Note_off_c, 2, 67, 64
4, 124200, Note_on_c, 2, 67, 50
4, 124200, Note_on_c, 2, 55, 50
4, 124248, Note_off_c, 2, 55, 64
4, 124248, Note_off_c, 2, 67, 64
4, 124320, Note_on_c, 2, 67, 50
4, 124320, Note_on_c, 2, 55, 50
4, 124368, Note_off_c, 2, 55, 64
4, 124368, Note_off_c, 2, 67, 64
4, 124440, Note_on_c, 2, 55, 51
4, 124440, Note_on_c, 2, 67, 51
4, 124488, Note_off_c, 2, 67, 64
4, 124488, Note_off_c, 2, 55, 64
4, 124560, Note_on_c, 2, 67, 52
4, 124560, Note_on_c, 2, 55, 52
4, 124608, Note_off_c, 2, 55, 64
4, 124608, Note_off_c, 2, 67, 64
4, 124680, Note_on_c, 2, 67, 53
4, 124680, Note_on_c, 2, 55, 53
4, 124728, Note_off_c, 2, 55, 64
4, 124728, Note_off_c, 2, 67, 64
4, 124800, Note_on_c, 2, 55, 54
4, 124800, Note_on_c, 2, 67, 54
4, 124848, Note_off_c, 2, 67, 64
4, 124848, Note_off_c, 2, 55, 64
4, 124920, Note_on_c, 2, 55, 55
4, 124920, Note_on_c, 2, 67, 55
4, 124968, Note_off_c, 2, 67, 64
4, 124968, Note_off_c, 2, 55, 64
4, 125040, Note_on_c, 2, 55, 56
4, 125040, Note_on_c, 2, 67, 56
4, 125088, Note_off_c, 2, 67, 64
4, 125088, Note_off_c, 2, 55, 64
4, 125160, Note_on_c, 2, 67, 57
4, 125160, Note_on_c, 2, 55, 57
4, 125208, Note_off_c, 2, 55, 64
4, 125208, Note_off_c, 2, 67, 64
4, 125280, Note_on_c, 2, 67, 58
4, 125280, Note_on_c, 2, 55, 58
4, 125328, Note_off_c, 2, 55, 64
4, 125328, Note_off_c, 2, 67, 64
4, 125400, Note_on_c, 2, 67, 59
4, 125400, Note_on_c, 2, 55, 59
4, 125448, Note_off_c, 2, 55, 64
4, 125448, Note_off_c, 2, 67, 64
4, 125520, Note_on_c, 2, 55, 59
4, 125520, Note_on_c, 2, 67, 59
4, 125568, Note_off_c, 2, 67, 64
4, 125568, Note_off_c, 2, 55, 64
4, 125640, Note_on_c, 2, 55, 60
4, 125640, Note_on_c, 2, 67, 60
4, 125688, Note_off_c, 2, 67, 64
4, 125688, Note_off_c, 2, 55, 64
4, 125760, Note_on_c, 2, 67, 61
4, 125760, Note_on_c, 2, 55, 61
4, 125808, Note_off_c, 2, 55, 64
4, 125808, Note_off_c, 2, 67, 64
4, 125880, Note_on_c, 2, 67, 61
4, 125880, Note_on_c, 2, 55, 61
4, 125928, Note_off_c, 2, 55, 64
4, 125928, Note_off_c, 2, 67, 64
4, 126000, Note_on_c, 2, 67, 62
4, 126000, Note_on_c, 2, 55, 62
4, 126048, Note_off_c, 2, 55, 64
4, 126048, Note_off_c, 2, 67, 64
4, 126120, Note_on_c, 2, 67, 63
4, 126120, Note_on_c, 2, 55, 63
4, 126168, Note_off_c, 2, 55, 64
4, 126168, Note_off_c, 2, 67, 64
4, 126240, Note_on_c, 2, 55, 64
4, 126240, Note_on_c, 2, 67, 64
4, 126288, Note_off_c, 2, 67, 64
4, 126288, Note_off_c, 2, 55, 64
4, 126360, Note_on_c, 2, 67, 65
4, 126360, Note_on_c, 2, 55, 65
4, 126408, Note_off_c, 2, 55, 64
4, 126408, Note_off_c, 2, 67, 64
4, 126480, Note_on_c, 2, 55, 66
4, 126480, Note_on_c, 2, 67, 66
4, 126528, Note_off_c, 2, 67, 64
4, 126528, Note_off_c, 2, 55, 64
4, 126600, Note_on_c, 2, 55, 67
4, 126600, Note_on_c, 2, 67, 67
4, 126648, Note_off_c, 2, 67, 64
4, 126648, Note_off_c, 2, 55, 64
4, 126720, Note_on_c, 2, 67, 54
4, 126720, Note_on_c, 2, 55, 54
4, 126768, Note_off_c, 2, 55, 64
4, 126768, Note_off_c, 2, 67, 64
4, 126840, Note_on_c, 2, 55, 55
4, 126840, Note_on_c, 2, 67, 55
4, 126888, Note_off_c, 2, 67, 64
4, 126888, Note_off_c, 2, 55, 64
4, 126960, Note_on_c, 2, 67, 56
4, 126960, Note_on_c, 2, 55, 56
4, 127008, Note_off_c, 2, 55, 64
4, 127008, Note_off_c, 2, 67, 64
4, 127080, Note_on_c, 2, 55, 56
4, 127080, Note_on_c, 2, 67, 56
4, 127128, Note_off_c, 2, 67, 64
4, 127128, Note_off_c, 2, 55, 64
4, 127200, Note_on_c, 2, 67, 57
4, 127200, Note_on_c, 2, 55, 57
4, 127248, Note_off_c, 2, 55, 64
4, 127248, Note_off_c, 2, 67, 64
4, 127320, Note_on_c, 2, 55, 58
4, 127320, Note_on_c, 2, 67, 58
4, 127368, Note_off_c, 2, 67, 64
4, 127368, Note_off_c, 2, 55, 64
4, 127440, Note_on_c, 2, 55, 59
4, 127440, Note_on_c, 2, 67, 59
4, 127488, Note_off_c, 2, 67, 64
4, 127488, Note_off_c, 2, 55, 64
4, 127560, Note_on_c, 2, 67, 59
4, 127560, Note_on_c, 2, 55, 59
4, 127608, Note_off_c, 2, 55, 64
4, 127608, Note_off_c, 2, 67, 64
4, 127680, Note_on_c, 2, 67, 59
4, 127680, Note_on_c, 2, 55, 59
4, 127728, Note_off_c, 2, 55, 64
4, 127728, Note_off_c, 2, 67, 64
4, 127800, Note_on_c, 2, 67, 59
4, 127800, Note_on_c, 2, 55, 59
4, 127848, Note_off_c, 2, 55, 64
4, 127848, Note_off_c, 2, 67, 64
4, 127920, Note_on_c, 2, 67, 60
4, 127920, Note_on_c, 2, 55, 60
4, 127968, Note_off_c, 2, 55, 64
4, 127968, Note_off_c, 2, 67, 64
4, 128040, Note_on_c, 2, 55, 61
4, 128040, Note_on_c, 2, 67, 61
4, 128088, Note_off_c, 2, 67, 64
4, 128088, Note_off_c, 2, 55, 64
4, 128160, Note_on_c, 2, 65, 72
4, 128160, Note_on_c, 2, 69, 72
4, 130944, Note_off_c, 2, 69, 64
4, 130944, Note_off_c, 2, 65, 64
4, 131040, Note_on_c, 2, 64, 72
4, 131040, Note_on_c, 2, 67, 72
4, 132864, Note_off_c, 2, 67, 64
4, 132864, Note_off_c, 2, 64, 64
4, 132960, Note_on_c, 2, 62, 72
4, 132960, Note_on_c, 2, 65, 72
4, 134784, Note_off_c, 2, 65, 64
4, 134784, Note_off_c, 2, 62, 64
4, 134880, Note_on_c, 2, 64, 72
4, 134880, Note_on_c, 2, 60, 72
4, 135780, Note_off_c, 2, 60, 64
4, 135840, Note_off_c, 2, 64, 64
4, 135840, Note_on_c, 2, 67, 72
4, 135840, Note_on_c, 2, 76, 72
4, 136224, Note_off_c, 2, 67, 64
4, 136320, Note_on_c, 2, 65, 72
4, 136704, Note_off_c, 2, 76, 64
4, 136800, Note_on_c, 2, 74, 61
4, 137184, Note_off_c, 2, 65, 64
4, 137280, Note_on_c, 2, 64, 72
4, 137664, Note_off_c, 2, 74, 64
4, 137760, Note_on_c, 2, 72, 52
4, 138120, Note_off_c, 2, 64, 64
4, 138240, Note_on_c, 2, 62, 52
4, 138624, Note_off_c, 2, 72, 64
4, 138720, Note_on_c, 2, 71, 44
4, 139104, Note_off_c, 2, 62, 64
4, 139200, Note_on_c, 2, 60, 44
4, 139584, Note_off_c, 2, 71, 64
4, 139680, Note_on_c, 2, 69, 38
4, 140064, Note_off_c, 2, 60, 64
4, 140064, Note_off_c, 2, 69, 64
4, 140160, Note_on_c, 2, 59, 36
4, 140160, Note_on_c, 2, 67, 36
4, 140544, Note_off_c, 2, 67, 64
4, 140544, Note_off_c, 2, 59, 64
4, 175440, Note_on_c, 2, 72, 61
4, 176304, Note_off_c, 2, 72, 64
4, 176400, Note_on_c, 2, 71, 61
4, 177264, Note_off_c, 2, 71, 64
4, 177360, Note_on_c, 2, 69, 61
4, 178224, Note_off_c, 2, 69, 64
4, 178320, Note_on_c, 2, 67, 61
4, 179184, Note_off_c, 2, 67, 64
4, 179280, Note_on_c, 2, 65, 61
4, 180144, Note_off_c, 2, 65, 64
4, 180720, Note_on_c, 2, 65, 87
4, 180720, Note_on_c, 2, 62, 67
4, 180816, Note_off_c, 2, 62, 64
4, 180816, Note_off_c, 2, 65, 64
4, 180960, Note_on_c, 2, 62, 67
4, 180960, Note_on_c, 2, 65, 67
4, 181056, Note_off_c, 2, 65, 64
4, 181056, Note_off_c, 2, 62, 64
4, 181200, Note_on_c, 2, 65, 67
4, 181200, Note_on_c, 2, 62, 67
4, 181296, Note_off_c, 2, 62, 64
4, 181296, Note_off_c, 2, 65, 64
4, 181680, Note_on_c, 2, 60, 67
4, 181680, Note_on_c, 2, 64, 67
4, 181776, Note_off_c, 2, 64, 64
4, 181776, Note_off_c, 2, 60, 64
4, 181920, Note_on_c, 2, 64, 67
4, 181920, Note_on_c, 2, 60, 67
4, 182016, Note_off_c, 2, 60, 64
4, 182016, Note_off_c, 2, 64, 64
4, 182160, Note_on_c, 2, 64, 67
4, 182160, Note_on_c, 2, 60, 67
4, 182256, Note_off_c, 2, 60, 64
4, 182256, Note_off_c, 2, 64, 64
4, 182640, Note_on_c, 2, 65, 87
4, 182640, Note_on_c, 2, 62, 67
4, 182736, Note_off_c, 2, 62, 64
4, 182736, Note_off_c, 2, 65, 64
4, 182880, Note_on_c, 2, 65, 67
4, 182880, Note_on_c, 2, 62, 67
4, 182976, Note_off_c, 2, 62, 64
4, 182976, Note_off_c, 2, 65, 64
4, 183120, Note_on_c, 2, 65, 67
4, 183120, Note_on_c, 2, 62, 67
4, 183216, Note_off_c, 2, 62, 64
4, 183216, Note_off_c, 2, 65, 64
4, 183600, Note_on_c, 2, 60, 67
4, 183600, Note_on_c, 2, 64, 67
4, 183696, Note_off_c, 2, 64, 64
4, 183696, Note_off_c, 2, 60, 64
4, 185040, Note_on_c, 2, 67, 72
4, 185904, Note_off_c, 2, 67, 64
4, 186000, Note_on_c, 2, 66, 72
4, 186864, Note_off_c, 2, 66, 64
4, 186960, Note_on_c, 2, 64, 72
4, 187824, Note_off_c, 2, 64, 64
4, 187920, Note_on_c, 2, 62, 72
4, 188784, Note_off_c, 2, 62, 64
4, 188880, Note_on_c, 2, 60, 72
4, 189744, Note_off_c, 2, 60, 64
4, 189840, Note_on_c, 2, 59, 72
4, 190224, Note_off_c, 2, 59, 64
4, 190320, Note_on_c, 2, 66, 67
4, 190320, Note_on_c, 2, 69, 87
4, 190416, Note_off_c, 2, 69, 64
4, 190416, Note_off_c, 2, 66, 64
4, 190560, Note_on_c, 2, 69, 67
4, 190560, Note_on_c, 2, 66, 67
4, 190656, Note_off_c, 2, 66, 64
4, 190656, Note_off_c, 2, 69, 64
4, 190800, Note_on_c, 2, 69, 67
4, 190800, Note_on_c, 2, 66, 67
4, 190896, Note_off_c, 2, 66, 64
4, 190896, Note_off_c, 2, 69, 64
4, 191280, Note_on_c, 2, 71, 87
4, 191280, Note_on_c, 2, 67, 67
4, 191376, Note_off_c, 2, 67, 64
4, 191376, Note_off_c, 2, 71, 64
4, 191520, Note_on_c, 2, 71, 67
4, 191520, Note_on_c, 2, 67, 67
4, 191616, Note_off_c, 2, 67, 64
4, 191616, Note_off_c, 2, 71, 64
4, 191760, Note_on_c, 2, 71, 67
4, 191760, Note_on_c, 2, 67, 67
4, 191856, Note_off_c, 2, 67, 64
4, 191856, Note_off_c, 2, 71, 64
4, 192240, Note_on_c, 2, 66, 67
4, 192240, Note_on_c, 2, 69, 87
4, 192336, Note_off_c, 2, 69, 64
4, 192336, Note_off_c, 2, 66, 64
4, 192480, Note_on_c, 2, 66, 67
4, 192480, Note_on_c, 2, 69, 67
4, 192576, Note_off_c, 2, 69, 64
4, 192576, Note_off_c, 2, 66, 64
4, 192720, Note_on_c, 2, 66, 67
4, 192720, Note_on_c, 2, 69, 67
4, 192816, Note_off_c, 2, 69, 64
4, 192816, Note_off_c, 2, 66, 64
4, 193200, Note_on_c, 2, 71, 67
4, 193200, Note_on_c, 2, 67, 67
4, 193296, Note_off_c, 2, 67, 64
4, 193296, Note_off_c, 2, 71, 64
4, 194640, Note_on_c, 2, 72, 72
4, 195024, Note_off_c, 2, 72, 64
4, 195120, Note_on_c, 2, 77, 72
4, 195504, Note_off_c, 2, 77, 64
4, 195600, Note_on_c, 2, 71, 72
4, 195984, Note_off_c, 2, 71, 64
4, 196080, Note_on_c, 2, 76, 72
4, 196464, Note_off_c, 2, 76, 64
4, 196560, Note_on_c, 2, 69, 72
4, 196944, Note_off_c, 2, 69, 64
4, 197040, Note_on_c, 2, 74, 72
4, 197424, Note_off_c, 2, 74, 64
4, 197520, Note_on_c, 2, 67, 72
4, 197904, Note_off_c, 2, 67, 64
4, 198000, Note_on_c, 2, 72, 72
4, 198384, Note_off_c, 2, 72, 64
4, 198480, Note_on_c, 2, 65, 72
4, 198864, Note_off_c, 2, 65, 64
4, 198960, Note_on_c, 2, 71, 72
4, 199344, Note_off_c, 2, 71, 64
4, 199440, Note_on_c, 2, 64, 72
4, 199824, Note_off_c, 2, 64, 64
4, 199920, Note_on_c, 2, 74, 53
4, 199920, Note_on_c, 2, 71, 73
4, 200016, Note_off_c, 2, 71, 64
4, 200016, Note_off_c, 2, 74, 64
4, 200160, Note_on_c, 2, 74, 53
4, 200160, Note_on_c, 2, 71, 53
4, 200256, Note_off_c, 2, 71, 64
4, 200256, Note_off_c, 2, 74, 64
4, 200400, Note_on_c, 2, 71, 53
4, 200400, Note_on_c, 2, 74, 53
4, 200496, Note_off_c, 2, 74, 64
4, 200496, Note_off_c, 2, 71, 64
4, 200880, Note_on_c, 2, 76, 73
4, 200880, Note_on_c, 2, 72, 53
4, 200976, Note_off_c, 2, 72, 64
4, 200976, Note_off_c, 2, 76, 64
4, 201120, Note_on_c, 2, 76, 53
4, 201120, Note_on_c, 2, 72, 53
4, 201216, Note_off_c, 2, 72, 64
4, 201216, Note_off_c, 2, 76, 64
4, 201360, Note_on_c, 2, 72, 53
4, 201360, Note_on_c, 2, 76, 53
4, 201456, Note_off_c, 2, 76, 64
4, 201456, Note_off_c, 2, 72, 64
4, 201840, Note_on_c, 2, 71, 73
4, 201840, Note_on_c, 2, 74, 53
4, 201936, Note_off_c, 2, 74, 64
4, 201936, Note_off_c, 2, 71, 64
4, 202080, Note_on_c, 2, 74, 53
4, 202080, Note_on_c, 2, 71, 53
4, 202176, Note_off_c, 2, 71, 64
4, 202176, Note_off_c, 2, 74, 64
4, 202320, Note_on_c, 2, 74, 53
4, 202320, Note_on_c, 2, 71, 53
4, 202416, Note_off_c, 2, 71, 64
4, 202416, Note_off_c, 2, 74, 64
4, 203760, Note_on_c, 2, 71, 89
4, 204000, Note_off_c, 2, 71, 64
4, 204000, Note_on_c, 2, 72, 89
4, 204120, Note_off_c, 2, 72, 64
4, 204120, Note_on_c, 2, 74, 89
4, 204240, Note_off_c, 2, 74, 64
4, 204240, Note_on_c, 2, 71, 72
4, 204624, Note_off_c, 2, 71, 64
4, 204720, Note_on_c, 2, 69, 72
4, 205488, Note_off_c, 2, 69, 64
4, 205680, Note_on_c, 2, 67, 72
4, 206448, Note_off_c, 2, 67, 64
4, 206640, Note_on_c, 2, 66, 72
4, 207408, Note_off_c, 2, 66, 64
4, 207600, Note_on_c, 2, 64, 72
4, 208368, Note_off_c, 2, 64, 64
4, 208560, Note_on_c, 2, 62, 72
4, 209328, Note_off_c, 2, 62, 64
4, 209520, Note_on_c, 2, 72, 67
4, 209520, Note_on_c, 2, 69, 87
4, 209616, Note_off_c, 2, 69, 64
4, 209616, Note_off_c, 2, 72, 64
4, 209760, Note_on_c, 2, 69, 67
4, 209760, Note_on_c, 2, 72, 67
4, 209856, Note_off_c, 2, 72, 64
4, 209856, Note_off_c, 2, 69, 64
4, 210000, Note_on_c, 2, 72, 67
4, 210000, Note_on_c, 2, 69, 67
4, 210096, Note_off_c, 2, 69, 64
4, 210096, Note_off_c, 2, 72, 64
4, 210480, Note_on_c, 2, 71, 87
4, 210480, Note_on_c, 2, 67, 67
4, 210576, Note_off_c, 2, 67, 64
4, 210576, Note_off_c, 2, 71, 64
4, 210720, Note_on_c, 2, 71, 67
4, 210720, Note_on_c, 2, 67, 67
4, 210816, Note_off_c, 2, 67, 64
4, 210816, Note_off_c, 2, 71, 64
4, 210960, Note_on_c, 2, 71, 67
4, 210960, Note_on_c, 2, 67, 67
4, 211056, Note_off_c, 2, 67, 64
4, 211056, Note_off_c, 2, 71, 64
4, 211440, Note_on_c, 2, 69, 87
4, 211440, Note_on_c, 2, 72, 67
4, 211536, Note_off_c, 2, 72, 64
4, 211536, Note_off_c, 2, 69, 64
4, 211680, Note_on_c, 2, 72, 67
4, 211680, Note_on_c, 2, 69, 67
4, 211776, Note_off_c, 2, 69, 64
4, 211776, Note_off_c, 2, 72, 64
4, 211920, Note_on_c, 2, 69, 67
4, 211920, Note_on_c, 2, 72, 67
4, 212016, Note_off_c, 2, 72, 64
4, 212016, Note_off_c, 2, 69, 64
4, 212400, Note_on_c, 2, 67, 67
4, 212400, Note_on_c, 2, 71, 67
4, 212496, Note_off_c, 2, 71, 64
4, 212496, Note_off_c, 2, 67, 64
4, 212640, Note_on_c, 2, 67, 67
4, 212640, Note_on_c, 2, 71, 67
4, 212736, Note_off_c, 2, 71, 64
4, 212736, Note_off_c, 2, 67, 64
4, 212760, Note_on_c, 2, 72, 67
4, 212760, Note_on_c, 2, 69, 67
4, 212856, Note_off_c, 2, 69, 64
4, 212856, Note_off_c, 2, 72, 64
4, 212880, Note_on_c, 2, 71, 67
4, 212880, Note_on_c, 2, 74, 67
4, 212976, Note_off_c, 2, 74, 64
4, 212976, Note_off_c, 2, 71, 64
4, 213120, Note_on_c, 2, 71, 67
4, 213120, Note_on_c, 2, 74, 67
4, 213216, Note_off_c, 2, 74, 64
4, 213216, Note_off_c, 2, 71, 64
4, 213240, Note_on_c, 2, 76, 67
4, 213240, Note_on_c, 2, 72, 67
4, 213336, Note_off_c, 2, 72, 64
4, 213336, Note_off_c, 2, 76, 64
4, 213360, Note_on_c, 2, 74, 79
4, 213360, Note_on_c, 2, 77, 79
4, 213456, Note_off_c, 2, 77, 64
4, 213456, Note_off_c, 2, 74, 64
4, 213600, Note_on_c, 2, 72, 79
4, 213600, Note_on_c, 2, 76, 79
4, 213696, Note_off_c, 2, 76, 64
4, 213696, Note_off_c, 2, 72, 64
4, 213720, Note_on_c, 2, 74, 79
4, 213720, Note_on_c, 2, 77, 79
4, 213816, Note_off_c, 2, 77, 64
4, 213816, Note_off_c, 2, 74, 64
4, 213840, Note_on_c, 2, 76, 79
4, 213840, Note_on_c, 2, 79, 99
4, 213936, Note_off_c, 2, 79, 64
4, 213936, Note_off_c, 2, 76, 64
4, 214080, Note_on_c, 2, 74, 79
4, 214080, Note_on_c, 2, 77, 79
4, 214176, Note_off_c, 2, 77, 64
4, 214176, Note_off_c, 2, 74, 64
4, 214320, Note_on_c, 2, 76, 79
4, 214320, Note_on_c, 2, 72, 79
4, 214416, Note_off_c, 2, 72, 64
4, 214416, Note_off_c, 2, 76, 64
4, 214560, Note_on_c, 2, 71, 79
4, 214560, Note_on_c, 2, 74, 79
4, 214656, Note_off_c, 2, 74, 64
4, 214656, Note_off_c, 2, 71, 64
4, 214680, Note_on_c, 2, 72, 79
4, 214680, Note_on_c, 2, 76, 79
4, 214776, Note_off_c, 2, 76, 64
4, 214776, Note_off_c, 2, 72, 64
4, 214800, Note_on_c, 2, 74, 79
4, 214800, Note_on_c, 2, 77, 99
4, 214896, Note_off_c, 2, 77, 64
4, 214896, Note_off_c, 2, 74, 64
4, 215040, Note_on_c, 2, 72, 79
4, 215040, Note_on_c, 2, 76, 79
4, 215136, Note_off_c, 2, 76, 64
4, 215136, Note_off_c, 2, 72, 64
4, 215280, Note_on_c, 2, 67, 90
4, 215280, Note_on_c, 2, 79, 90
4, 217104, Note_off_c, 2, 79, 64
4, 217104, Note_off_c, 2, 67, 64
4, 217200, Note_on_c, 2, 76, 71
4, 217440, Note_off_c, 2, 76, 64
4, 217440, Note_on_c, 2, 77, 71
4, 217560, Note_off_c, 2, 77, 64
4, 217560, Note_on_c, 2, 79, 71
4, 217680, Note_off_c, 2, 79, 64
4, 217680, Note_on_c, 2, 81, 91
4, 217776, Note_off_c, 2, 81, 64
4, 217920, Note_on_c, 2, 81, 71
4, 218016, Note_off_c, 2, 81, 64
4, 218160, Note_on_c, 2, 74, 71
4, 218400, Note_off_c, 2, 74, 64
4, 218400, Note_on_c, 2, 76, 71
4, 218520, Note_off_c, 2, 76, 64
4, 218520, Note_on_c, 2, 77, 71
4, 218640, Note_off_c, 2, 77, 64
4, 218640, Note_on_c, 2, 79, 91
4, 218736, Note_off_c, 2, 79, 64
4, 218880, Note_on_c, 2, 67, 71
4, 218976, Note_off_c, 2, 67, 64
4, 219120, Note_on_c, 2, 72, 71
4, 219360, Note_off_c, 2, 72, 64
4, 219360, Note_on_c, 2, 74, 71
4, 219480, Note_off_c, 2, 74, 64
4, 219480, Note_on_c, 2, 76, 71
4, 219600, Note_off_c, 2, 76, 64
4, 219600, Note_on_c, 2, 77, 91
4, 219696, Note_off_c, 2, 77, 64
4, 219840, Note_on_c, 2, 77, 71
4, 219936, Note_off_c, 2, 77, 64
4, 220080, Note_on_c, 2, 71, 71
4, 220320, Note_off_c, 2, 71, 64
4, 220320, Note_on_c, 2, 72, 71
4, 220440, Note_off_c, 2, 72, 64
4, 220440, Note_on_c, 2, 74, 71
4, 220560, Note_off_c, 2, 74, 64
4, 220560, Note_on_c, 2, 76, 91
4, 220656, Note_off_c, 2, 76, 64
4, 220800, Note_on_c, 2, 64, 71
4, 220920, Note_off_c, 2, 64, 64
4, 221040, Note_on_c, 2, 69, 71
4, 221280, Note_off_c, 2, 69, 64
4, 221280, Note_on_c, 2, 71, 71
4, 221400, Note_off_c, 2, 71, 64
4, 221400, Note_on_c, 2, 72, 71
4, 221520, Note_off_c, 2, 72, 64
4, 221520, Note_on_c, 2, 74, 91
4, 221616, Note_off_c, 2, 74, 64
4, 221760, Note_on_c, 2, 74, 71
4, 221856, Note_off_c, 2, 74, 64
4, 222000, Note_on_c, 2, 67, 71
4, 222240, Note_off_c, 2, 67, 64
4, 222240, Note_on_c, 2, 69, 71
4, 222360, Note_off_c, 2, 69, 64
4, 222360, Note_on_c, 2, 71, 71
4, 222480, Note_off_c, 2, 71, 64
4, 222480, Note_on_c, 2, 72, 71
4, 222720, Note_off_c, 2, 72, 64
4, 222720, Note_on_c, 2, 74, 71
4, 222840, Note_off_c, 2, 74, 64
4, 222840, Note_on_c, 2, 76, 71
4, 222960, Note_off_c, 2, 76, 64
4, 222960, Note_on_c, 2, 77, 57
4, 223056, Note_off_c, 2, 77, 64
4, 223200, Note_on_c, 2, 76, 57
4, 223200, Note_on_c, 2, 72, 57
4, 223296, Note_off_c, 2, 72, 64
4, 223296, Note_off_c, 2, 76, 64
4, 223320, Note_on_c, 2, 74, 57
4, 223320, Note_on_c, 2, 77, 57
4, 223416, Note_off_c, 2, 77, 64
4, 223416, Note_off_c, 2, 74, 64
4, 223440, Note_on_c, 2, 79, 77
4, 223440, Note_on_c, 2, 76, 57
4, 223536, Note_off_c, 2, 76, 64
4, 223536, Note_off_c, 2, 79, 64
4, 223680, Note_on_c, 2, 77, 57
4, 223680, Note_on_c, 2, 74, 57
4, 223776, Note_off_c, 2, 74, 64
4, 223776, Note_off_c, 2, 77, 64
4, 223920, Note_on_c, 2, 72, 57
4, 223920, Note_on_c, 2, 76, 57
4, 224016, Note_off_c, 2, 76, 64
4, 224016, Note_off_c, 2, 72, 64
4, 224160, Note_on_c, 2, 71, 57
4, 224160, Note_on_c, 2, 74, 57
4, 224256, Note_off_c, 2, 74, 64
4, 224256, Note_off_c, 2, 71, 64
4, 224280, Note_on_c, 2, 72, 57
4, 224280, Note_on_c, 2, 76, 57
4, 224376, Note_off_c, 2, 76, 64
4, 224376, Note_off_c, 2, 72, 64
4, 224400, Note_on_c, 2, 74, 57
4, 224400, Note_on_c, 2, 77, 77
4, 224496, Note_off_c, 2, 77, 64
4, 224496, Note_off_c, 2, 74, 64
4, 224640, Note_on_c, 2, 76, 57
4, 224640, Note_on_c, 2, 72, 57
4, 224736, Note_off_c, 2, 72, 64
4, 224736, Note_off_c, 2, 76, 64
4, 224880, Note_on_c, 2, 77, 57
4, 224880, Note_on_c, 2, 71, 57
4, 224976, Note_off_c, 2, 71, 64
4, 224976, Note_off_c, 2, 77, 64
4, 225120, Note_on_c, 2, 72, 57
4, 225120, Note_on_c, 2, 76, 57
4, 225216, Note_off_c, 2, 76, 64
4, 225216, Note_off_c, 2, 72, 64
4, 225240, Note_on_c, 2, 74, 57
4, 225240, Note_on_c, 2, 77, 57
4, 225336, Note_off_c, 2, 77, 64
4, 225336, Note_off_c, 2, 74, 64
4, 225360, Note_on_c, 2, 79, 77
4, 225360, Note_on_c, 2, 76, 57
4, 225456, Note_off_c, 2, 76, 64
4, 225456, Note_off_c, 2, 79, 64
4, 225600, Note_on_c, 2, 77, 57
4, 225600, Note_on_c, 2, 74, 57
4, 225696, Note_off_c, 2, 74, 64
4, 225696, Note_off_c, 2, 77, 64
4, 225840, Note_on_c, 2, 76, 57
4, 225840, Note_on_c, 2, 72, 57
4, 225936, Note_off_c, 2, 72, 64
4, 225936, Note_off_c, 2, 76, 64
4, 226080, Note_on_c, 2, 74, 57
4, 226080, Note_on_c, 2, 71, 57
4, 226176, Note_off_c, 2, 71, 64
4, 226176, Note_off_c, 2, 74, 64
4, 226200, Note_on_c, 2, 72, 57
4, 226200, Note_on_c, 2, 76, 57
4, 226296, Note_off_c, 2, 76, 64
4, 226296, Note_off_c, 2, 72, 64
4, 226320, Note_on_c, 2, 74, 57
4, 226320, Note_on_c, 2, 77, 77
4, 226416, Note_off_c, 2, 77, 64
4, 226416, Note_off_c, 2, 74, 64
4, 226560, Note_on_c, 2, 72, 57
4, 226560, Note_on_c, 2, 76, 57
4, 226656, Note_off_c, 2, 76, 64
4, 226656, Note_off_c, 2, 72, 64
4, 226800, Note_on_c, 2, 76, 57
4, 226800, Note_on_c, 2, 72, 57
4, 226896, Note_off_c, 2, 72, 64
4, 226896, Note_off_c, 2, 76, 64
4, 227040, Note_on_c, 2, 74, 57
4, 227040, Note_on_c, 2, 71, 57
4, 227136, Note_off_c, 2, 71, 64
4, 227136, Note_off_c, 2, 74, 64
4, 227160, Note_on_c, 2, 72, 57
4, 227160, Note_on_c, 2, 76, 57
4, 227256, Note_off_c, 2, 76, 64
4, 227256, Note_off_c, 2, 72, 64
4, 227280, Note_on_c, 2, 74, 57
4, 227280, Note_on_c, 2, 77, 77
4, 227376, Note_off_c, 2, 77, 64
4, 227376, Note_off_c, 2, 74, 64
4, 227520, Note_on_c, 2, 76, 57
4, 227520, Note_on_c, 2, 72, 57
4, 227616, Note_off_c, 2, 72, 64
4, 227616, Note_off_c, 2, 76, 64
4, 227760, Note_on_c, 2, 76, 57
4, 227760, Note_on_c, 2, 72, 57
4, 227856, Note_off_c, 2, 72, 64
4, 227856, Note_off_c, 2, 76, 64
4, 228000, Note_on_c, 2, 71, 57
4, 228000, Note_on_c, 2, 74, 57
4, 228096, Note_off_c, 2, 74, 64
4, 228096, Note_off_c, 2, 71, 64
4, 228120, Note_on_c, 2, 72, 57
4, 228120, Note_on_c, 2, 76, 57
4, 228216, Note_off_c, 2, 76, 64
4, 228216, Note_off_c, 2, 72, 64
4, 228240, Note_on_c, 2, 77, 77
4, 228240, Note_on_c, 2, 74, 57
4, 228336, Note_off_c, 2, 74, 64
4, 228336, Note_off_c, 2, 77, 64
4, 228480, Note_on_c, 2, 72, 57
4, 228480, Note_on_c, 2, 76, 57
4, 228576, Note_off_c, 2, 76, 64
4, 228576, Note_off_c, 2, 72, 64
4, 228720, Note_on_c, 2, 74, 68
4, 228816, Note_off_c, 2, 74, 64
4, 228960, Note_on_c, 2, 73, 68
4, 229056, Note_off_c, 2, 73, 64
4, 229080, Note_on_c, 2, 74, 68
4, 229176, Note_off_c, 2, 74, 64
4, 229200, Note_on_c, 2, 76, 68
4, 229296, Note_off_c, 2, 76, 64
4, 229440, Note_on_c, 2, 74, 68
4, 229536, Note_off_c, 2, 74, 64
4, 229680, Note_on_c, 2, 74, 68
4, 229776, Note_off_c, 2, 74, 64
4, 229920, Note_on_c, 2, 73, 68
4, 230016, Note_off_c, 2, 73, 64
4, 230040, Note_on_c, 2, 74, 68
4, 230136, Note_off_c, 2, 74, 64
4, 230160, Note_on_c, 2, 76, 68
4, 230256, Note_off_c, 2, 76, 64
4, 230400, Note_on_c, 2, 74, 68
4, 230496, Note_off_c, 2, 74, 64
4, 230640, Note_on_c, 2, 72, 68
4, 230736, Note_off_c, 2, 72, 64
4, 230880, Note_on_c, 2, 71, 68
4, 230976, Note_off_c, 2, 71, 64
4, 231000, Note_on_c, 2, 72, 68
4, 231096, Note_off_c, 2, 72, 64
4, 231120, Note_on_c, 2, 74, 68
4, 231216, Note_off_c, 2, 74, 64
4, 231360, Note_on_c, 2, 72, 68
4, 231456, Note_off_c, 2, 72, 64
4, 231600, Note_on_c, 2, 72, 68
4, 231696, Note_off_c, 2, 72, 64
4, 231720, Note_on_c, 2, 71, 68
4, 231816, Note_off_c, 2, 71, 64
4, 231840, Note_on_c, 2, 69, 68
4, 231936, Note_off_c, 2, 69, 64
4, 231960, Note_on_c, 2, 71, 68
4, 232056, Note_off_c, 2, 71, 64
4, 232080, Note_on_c, 2, 72, 68
4, 232176, Note_off_c, 2, 72, 64
4, 232200, Note_on_c, 2, 69, 68
4, 232296, Note_off_c, 2, 69, 64
4, 232320, Note_on_c, 2, 71, 68
4, 232416, Note_off_c, 2, 71, 64
4, 232440, Note_on_c, 2, 72, 68
4, 232536, Note_off_c, 2, 72, 64
4, 232560, Note_on_c, 2, 59, 56
4, 232560, Note_on_c, 2, 74, 46
4, 232656, Note_off_c, 2, 74, 64
4, 232800, Note_off_c, 2, 59, 64
4, 232800, Note_on_c, 2, 60, 56
4, 232800, Note_on_c, 2, 67, 46
4, 232896, Note_off_c, 2, 67, 64
4, 232920, Note_off_c, 2, 60, 64
4, 232920, Note_on_c, 2, 62, 56
4, 233040, Note_off_c, 2, 62, 64
4, 233040, Note_on_c, 2, 79, 54
4, 233040, Note_on_c, 2, 64, 76
4, 233376, Note_off_c, 2, 64, 64
4, 233520, Note_on_c, 2, 57, 56
4, 233760, Note_off_c, 2, 57, 64
4, 233760, Note_on_c, 2, 59, 56
4, 233880, Note_off_c, 2, 59, 64
4, 233880, Note_on_c, 2, 60, 56
4, 233904, Note_off_c, 2, 79, 64
4, 234000, Note_off_c, 2, 60, 64
4, 234000, Note_on_c, 2, 62, 76
4, 234000, Note_on_c, 2, 78, 54
4, 234096, Note_off_c, 2, 62, 64
4, 234240, Note_on_c, 2, 50, 56
4, 234336, Note_off_c, 2, 50, 64
4, 234480, Note_on_c, 2, 55, 56
4, 234720, Note_off_c, 2, 55, 64
4, 234720, Note_on_c, 2, 57, 56
4, 234840, Note_off_c, 2, 57, 64
4, 234840, Note_on_c, 2, 59, 56
4, 234864, Note_off_c, 2, 78, 64
4, 234960, Note_off_c, 2, 59, 64
4, 234960, Note_on_c, 2, 60, 76
4, 234960, Note_on_c, 2, 76, 54
4, 235056, Note_off_c, 2, 60, 64
4, 235200, Note_on_c, 2, 60, 56
4, 235296, Note_off_c, 2, 60, 64
4, 235440, Note_on_c, 2, 54, 56
4, 235680, Note_off_c, 2, 54, 64
4, 235680, Note_on_c, 2, 55, 56
4, 235800, Note_off_c, 2, 55, 64
4, 235800, Note_on_c, 2, 57, 56
4, 235824, Note_off_c, 2, 76, 64
4, 235920, Note_off_c, 2, 57, 64
4, 235920, Note_on_c, 2, 59, 76
4, 235920, Note_on_c, 2, 74, 54
4, 236016, Note_off_c, 2, 59, 64
4, 236160, Note_on_c, 2, 47, 56
4, 236256, Note_off_c, 2, 47, 64
4, 236400, Note_on_c, 2, 64, 56
4, 236640, Note_off_c, 2, 64, 64
4, 236640, Note_on_c, 2, 66, 56
4, 236760, Note_off_c, 2, 66, 64
4, 236760, Note_on_c, 2, 67, 56
4, 236784, Note_off_c, 2, 74, 64
4, 236880, Note_off_c, 2, 67, 64
4, 236880, Note_on_c, 2, 69, 76
4, 236880, Note_on_c, 2, 72, 54
4, 236976, Note_off_c, 2, 69, 64
4, 237120, Note_on_c, 2, 69, 56
4, 237216, Note_off_c, 2, 69, 64
4, 237360, Note_on_c, 2, 62, 56
4, 237600, Note_off_c, 2, 62, 64
4, 237600, Note_on_c, 2, 64, 56
4, 237600, Note_on_c, 2, 64, 45
4, 237720, Note_off_c, 2, 64, 64
4, 237720, Note_off_c, 2, 64, 64
4, 237720, Note_on_c, 2, 66, 56
4, 237744, Note_off_c, 2, 72, 64
4, 237840, Note_off_c, 2, 66, 64
4, 237840, Note_on_c, 2, 71, 46
4, 237840, Note_on_c, 2, 67, 56
4, 237954, Note_off_c, 2, 67, 64
4, 237960, Note_on_c, 2, 55, 56
4, 238080, Note_off_c, 2, 55, 64
4, 238080, Note_on_c, 2, 57, 56
4, 238200, Note_off_c, 2, 57, 64
4, 238200, Note_on_c, 2, 59, 56
4, 238224, Note_off_c, 2, 71, 64
4, 238320, Note_off_c, 2, 59, 64
4, 238320, Note_on_c, 2, 60, 96
4, 238320, Note_on_c, 2, 69, 45
4, 238380, Note_off_c, 2, 69, 64
4, 238416, Note_off_c, 2, 60, 64
4, 238440, Note_on_c, 2, 62, 45
4, 238500, Note_off_c, 2, 62, 64
4, 238560, Note_on_c, 2, 69, 45
4, 238560, Note_on_c, 2, 59, 56
4, 238620, Note_off_c, 2, 69, 64
4, 238656, Note_off_c, 2, 59, 64
4, 238680, Note_on_c, 2, 67, 45
4, 238680, Note_on_c, 2, 60, 96
4, 238740, Note_off_c, 2, 67, 64
4, 238776, Note_off_c, 2, 60, 64
4, 238800, Note_on_c, 2, 66, 45
4, 238800, Note_on_c, 2, 62, 76
4, 238860, Note_off_c, 2, 66, 64
4, 238896, Note_off_c, 2, 62, 64
4, 238920, Note_on_c, 2, 62, 45
4, 238980, Note_off_c, 2, 62, 64
4, 239040, Note_on_c, 2, 60, 56
4, 239136, Note_off_c, 2, 60, 64
4, 239160, Note_on_c, 2, 66, 45
4, 239220, Note_off_c, 2, 66, 64
4, 239280, Note_on_c, 2, 67, 45
4, 239280, Note_on_c, 2, 59, 56
4, 239340, Note_off_c, 2, 67, 64
4, 239376, Note_off_c, 2, 59, 64
4, 239400, Note_on_c, 2, 74, 45
4, 239460, Note_off_c, 2, 74, 64
4, 239520, Note_on_c, 2, 57, 56
4, 239520, Note_on_c, 2, 72, 45
4, 239580, Note_off_c, 2, 72, 64
4, 239616, Note_off_c, 2, 57, 64
4, 239640, Note_on_c, 2, 71, 45
4, 239640, Note_on_c, 2, 59, 56
4, 239700, Note_off_c, 2, 71, 64
4, 239736, Note_off_c, 2, 59, 64
4, 239760, Note_on_c, 2, 69, 45
4, 239760, Note_on_c, 2, 60, 76
4, 239820, Note_off_c, 2, 69, 64
4, 239856, Note_off_c, 2, 60, 64
4, 239880, Note_on_c, 2, 67, 45
4, 239940, Note_off_c, 2, 67, 64
4, 240000, Note_on_c, 2, 66, 45
4, 240000, Note_on_c, 2, 59, 56
4, 240060, Note_off_c, 2, 66, 64
4, 240096, Note_off_c, 2, 59, 64
4, 240120, Note_on_c, 2, 67, 45
4, 240180, Note_off_c, 2, 67, 64
4, 240240, Note_on_c, 2, 74, 45
4, 240240, Note_on_c, 2, 65, 96
4, 240300, Note_off_c, 2, 74, 64
4, 240336, Note_off_c, 2, 65, 64
4, 240360, Note_on_c, 2, 67, 45
4, 240420, Note_off_c, 2, 67, 64
4, 240480, Note_on_c, 2, 74, 45
4, 240480, Note_on_c, 2, 64, 56
4, 240540, Note_off_c, 2, 74, 64
4, 240576, Note_off_c, 2, 64, 64
4, 240600, Note_on_c, 2, 72, 45
4, 240600, Note_on_c, 2, 65, 56
4, 240660, Note_off_c, 2, 72, 64
4, 240696, Note_off_c, 2, 65, 64
4, 240720, Note_on_c, 2, 71, 45
4, 240720, Note_on_c, 2, 67, 76
4, 240780, Note_off_c, 2, 71, 64
4, 240816, Note_off_c, 2, 67, 64
4, 240840, Note_on_c, 2, 67, 45
4, 240900, Note_off_c, 2, 67, 64
4, 240960, Note_on_c, 2, 65, 56
4, 240960, Note_on_c, 2, 69, 45
4, 241020, Note_off_c, 2, 69, 64
4, 241056, Note_off_c, 2, 65, 64
4, 241080, Note_on_c, 2, 71, 45
4, 241140, Note_off_c, 2, 71, 64
4, 241200, Note_on_c, 2, 72, 45
4, 241200, Note_on_c, 2, 64, 56
4, 241260, Note_off_c, 2, 72, 64
4, 241296, Note_off_c, 2, 64, 64
4, 241320, Note_on_c, 2, 79, 45
4, 241380, Note_off_c, 2, 79, 64
4, 241440, Note_on_c, 2, 62, 56
4, 241440, Note_on_c, 2, 77, 45
4, 241500, Note_off_c, 2, 77, 64
4, 241536, Note_off_c, 2, 62, 64
4, 241560, Note_on_c, 2, 64, 56
4, 241560, Note_on_c, 2, 76, 45
4, 241620, Note_off_c, 2, 76, 64
4, 241656, Note_off_c, 2, 64, 64
4, 241680, Note_on_c, 2, 74, 45
4, 241680, Note_on_c, 2, 65, 76
4, 241740, Note_off_c, 2, 74, 64
4, 241776, Note_off_c, 2, 65, 64
4, 241800, Note_on_c, 2, 72, 45
4, 241860, Note_off_c, 2, 72, 64
4, 241920, Note_on_c, 2, 64, 56
4, 241920, Note_on_c, 2, 71, 45
4, 241980, Note_off_c, 2, 71, 64
4, 242016, Note_off_c, 2, 64, 64
4, 242040, Note_on_c, 2, 72, 45
4, 242100, Note_off_c, 2, 72, 64
4, 242160, Note_on_c, 2, 74, 45
4, 242220, Note_off_c, 2, 74, 64
4, 242280, Note_on_c, 2, 67, 45
4, 242340, Note_off_c, 2, 67, 64
4, 242400, Note_on_c, 2, 74, 45
4, 242460, Note_off_c, 2, 74, 64
4, 242520, Note_on_c, 2, 72, 45
4, 242580, Note_off_c, 2, 72, 64
4, 242640, Note_on_c, 2, 71, 45
4, 242700, Note_off_c, 2, 71, 64
4, 242760, Note_on_c, 2, 67, 45
4, 242820, Note_off_c, 2, 67, 64
4, 242880, Note_on_c, 2, 69, 45
4, 242940, Note_off_c, 2, 69, 64
4, 243000, Note_on_c, 2, 71, 45
4, 243060, Note_off_c, 2, 71, 64
4, 243120, Note_on_c, 2, 72, 50
4, 243888, Note_off_c, 2, 72, 64
4, 244080, Note_on_c, 2, 69, 29
4, 244464, Note_off_c, 2, 69, 64
4, 246240, Note_on_c, 2, 69, 22
4, 246240, Note_on_c, 2, 65, 22
4, 246336, Note_off_c, 2, 65, 64
4, 246336, Note_off_c, 2, 69, 64
4, 246480, Note_on_c, 2, 69, 22
4, 246480, Note_on_c, 2, 65, 22
4, 246576, Note_off_c, 2, 65, 64
4, 246576, Note_off_c, 2, 69, 64
4, 246720, Note_on_c, 2, 69, 22
4, 246720, Note_on_c, 2, 65, 22
4, 246816, Note_off_c, 2, 65, 64
4, 246816, Note_off_c, 2, 69, 64
4, 247200, Note_on_c, 2, 65, 22
4, 247200, Note_on_c, 2, 69, 22
4, 247296, Note_off_c, 2, 69, 64
4, 247296, Note_off_c, 2, 65, 64
4, 247440, Note_on_c, 2, 65, 22
4, 247440, Note_on_c, 2, 69, 22
4, 247536, Note_off_c, 2, 69, 64
4, 247536, Note_off_c, 2, 65, 64
4, 247680, Note_on_c, 2, 65, 22
4, 247680, Note_on_c, 2, 69, 22
4, 247776, Note_off_c, 2, 69, 64
4, 247776, Note_off_c, 2, 65, 64
4, 248160, Note_on_c, 2, 67, 22
4, 248160, Note_on_c, 2, 65, 22
4, 248256, Note_off_c, 2, 65, 64
4, 248256, Note_off_c, 2, 67, 64
4, 248400, Note_on_c, 2, 67, 22
4, 248400, Note_on_c, 2, 64, 22
4, 248496, Note_off_c, 2, 67, 64
4, 248520, Note_off_c, 2, 64, 64
4, 248640, Note_on_c, 2, 67, 22
4, 248640, Note_on_c, 2, 64, 22
4, 248736, Note_off_c, 2, 64, 64
4, 248736, Note_off_c, 2, 67, 64
4, 249120, Note_on_c, 2, 65, 22
4, 249120, Note_on_c, 2, 64, 22
4, 249216, Note_off_c, 2, 65, 64
4, 249240, Note_off_c, 2, 64, 64
4, 249360, Note_on_c, 2, 65, 22
4, 249360, Note_on_c, 2, 62, 22
4, 249456, Note_off_c, 2, 62, 64
4, 249456, Note_off_c, 2, 65, 64
4, 249600, Note_on_c, 2, 65, 22
4, 249600, Note_on_c, 2, 62, 22
4, 249696, Note_off_c, 2, 62, 64
4, 249696, Note_off_c, 2, 65, 64
4, 250080, Note_on_c, 2, 62, 22
4, 250080, Note_on_c, 2, 64, 22
4, 250176, Note_off_c, 2, 64, 64
4, 250176, Note_off_c, 2, 62, 64
4, 250320, Note_on_c, 2, 64, 22
4, 250320, Note_on_c, 2, 60, 22
4, 250416, Note_off_c, 2, 60, 64
4, 250416, Note_off_c, 2, 64, 64
4, 250560, Note_on_c, 2, 60, 22
4, 250560, Note_on_c, 2, 64, 22
4, 250656, Note_off_c, 2, 64, 64
4, 250656, Note_off_c, 2, 60, 64
4, 251040, Note_on_c, 2, 60, 22
4, 251040, Note_on_c, 2, 62, 22
4, 251136, Note_off_c, 2, 62, 64
4, 251136, Note_off_c, 2, 60, 64
4, 251280, Note_on_c, 2, 62, 22
4, 251280, Note_on_c, 2, 58, 22
4, 251376, Note_off_c, 2, 58, 64
4, 251376, Note_off_c, 2, 62, 64
4, 251520, Note_on_c, 2, 58, 22
4, 251520, Note_on_c, 2, 62, 22
4, 251616, Note_off_c, 2, 62, 64
4, 251616, Note_off_c, 2, 58, 64
4, 252000, Note_on_c, 2, 58, 22
4, 252000, Note_on_c, 2, 60, 22
4, 252096, Note_off_c, 2, 60, 64
4, 252096, Note_off_c, 2, 58, 64
4, 252240, Note_on_c, 2, 60, 22
4, 252240, Note_on_c, 2, 57, 22
4, 252336, Note_off_c, 2, 57, 64
4, 252336, Note_off_c, 2, 60, 64
4, 252480, Note_on_c, 2, 57, 22
4, 252480, Note_on_c, 2, 60, 22
4, 252576, Note_off_c, 2, 60, 64
4, 252576, Note_off_c, 2, 57, 64
4, 252960, Note_on_c, 2, 57, 22
4, 252960, Note_on_c, 2, 58, 22
4, 253056, Note_off_c, 2, 58, 64
4, 253056, Note_off_c, 2, 57, 64
4, 253200, Note_on_c, 2, 55, 22
4, 253200, Note_on_c, 2, 58, 22
4, 253296, Note_off_c, 2, 58, 64
4, 253296, Note_off_c, 2, 55, 64
4, 253440, Note_on_c, 2, 55, 22
4, 253440, Note_on_c, 2, 58, 22
4, 253536, Note_off_c, 2, 58, 64
4, 253536, Note_off_c, 2, 55, 64
4, 254640, Note_on_c, 2, 67, 40
4, 254736, Note_off_c, 2, 67, 64
4, 254880, Note_on_c, 2, 65, 40
4, 254976, Note_off_c, 2, 65, 64
4, 255000, Note_on_c, 2, 67, 40
4, 255096, Note_off_c, 2, 67, 64
4, 255120, Note_on_c, 2, 69, 40
4, 255216, Note_off_c, 2, 69, 64
4, 255360, Note_on_c, 2, 67, 40
4, 255456, Note_off_c, 2, 67, 64
4, 255600, Note_on_c, 2, 65, 40
4, 256050, Note_off_c, 2, 65, 64
4, 266160, Note_on_c, 2, 72, 36
4, 266256, Note_off_c, 2, 72, 64
4, 266400, Note_on_c, 2, 71, 36
4, 266496, Note_off_c, 2, 71, 64
4, 266520, Note_on_c, 2, 72, 36
4, 266616, Note_off_c, 2, 72, 64
4, 266640, Note_on_c, 2, 74, 36
4, 266736, Note_off_c, 2, 74, 64
4, 266880, Note_on_c, 2, 72, 36
4, 266976, Note_off_c, 2, 72, 64
4, 267120, Note_on_c, 2, 71, 36
4, 267216, Note_off_c, 2, 71, 64
4, 267360, Note_on_c, 2, 69, 36
4, 267456, Note_off_c, 2, 69, 64
4, 267480, Note_on_c, 2, 71, 36
4, 267576, Note_off_c, 2, 71, 64
4, 267600, Note_on_c, 2, 72, 36
4, 267696, Note_off_c, 2, 72, 64
4, 267840, Note_on_c, 2, 71, 36
4, 267936, Note_off_c, 2, 71, 64
4, 268080, Note_on_c, 2, 69, 36
4, 268176, Note_off_c, 2, 69, 64
4, 268320, Note_on_c, 2, 68, 36
4, 268416, Note_off_c, 2, 68, 64
4, 268440, Note_on_c, 2, 69, 36
4, 268536, Note_off_c, 2, 69, 64
4, 268560, Note_on_c, 2, 71, 36
4, 268656, Note_off_c, 2, 71, 64
4, 268800, Note_on_c, 2, 69, 36
4, 268896, Note_off_c, 2, 69, 64
4, 269040, Note_on_c, 2, 68, 24
4, 269424, Note_off_c, 2, 68, 64
4, 269520, Note_on_c, 2, 64, 24
4, 269904, Note_off_c, 2, 64, 64
4, 277680, Note_on_c, 2, 69, 32
4, 279600, Note_off_c, 2, 69, 64
4, 279600, Note_on_c, 2, 66, 32
4, 280560, Note_off_c, 2, 66, 64
4, 281520, Note_on_c, 2, 71, 32
4, 283440, Note_off_c, 2, 71, 64
4, 283440, Note_on_c, 2, 67, 32
4, 284400, Note_off_c, 2, 67, 64
4, 285360, Note_on_c, 2, 76, 32
4, 287280, Note_off_c, 2, 76, 64
4, 287280, Note_on_c, 2, 72, 32
4, 288240, Note_off_c, 2, 72, 64
4, 288240, Note_on_c, 2, 66, 30
4, 288240, Note_on_c, 2, 69, 30
4, 288432, Note_off_c, 2, 69, 64
4, 288432, Note_off_c, 2, 66, 64
4, 289200, Note_on_c, 2, 67, 38
4, 289200, Note_on_c, 2, 64, 38
4, 289392, Note_off_c, 2, 64, 64
4, 289392, Note_off_c, 2, 67, 64
4, 290160, Note_on_c, 2, 66, 45
4, 290160, Note_on_c, 2, 69, 45
4, 290352, Note_off_c, 2, 69, 64
4, 290352, Note_off_c, 2, 66, 64
4, 291120, Note_on_c, 2, 69, 53
4, 291120, Note_on_c, 2, 66, 53
4, 291216, Note_off_c, 2, 66, 64
4, 291216, Note_off_c, 2, 69, 64
4, 291600, Note_on_c, 2, 66, 56
4, 291600, Note_on_c, 2, 63, 56
4, 291696, Note_off_c, 2, 63, 64
4, 291696, Note_off_c, 2, 66, 64
4, 292080, Note_on_c, 2, 64, 45
4, 292080, Note_on_c, 2, 67, 45
4, 293040, Note_off_c, 2, 67, 64
4, 293040, Note_on_c, 2, 66, 51
4, 293520, Note_off_c, 2, 64, 64
4, 293520, Note_on_c, 2, 63, 53
4, 294000, Note_off_c, 2, 66, 64
4, 294000, Note_off_c, 2, 63, 64
4, 294000, Note_on_c, 2, 67, 70
4, 294000, Note_on_c, 2, 64, 70
4, 294960, Note_off_c, 2, 67, 64
4, 294960, Note_on_c, 2, 66, 78
4, 295440, Note_off_c, 2, 64, 64
4, 295440, Note_on_c, 2, 63, 81
4, 295920, Note_off_c, 2, 66, 64
4, 295920, Note_off_c, 2, 63, 64
4, 295920, Note_on_c, 2, 71, 80
4, 296400, Note_on_c, 2, 76, 80
4, 296784, Note_off_c, 2, 71, 64
4, 296880, Note_on_c, 2, 69, 80
4, 297264, Note_off_c, 2, 76, 64
4, 297360, Note_on_c, 2, 74, 80
4, 297744, Note_off_c, 2, 69, 64
4, 297840, Note_on_c, 2, 67, 80
4, 298224, Note_off_c, 2, 74, 64
4, 298320, Note_on_c, 2, 72, 80
4, 298704, Note_off_c, 2, 67, 64
4, 298800, Note_on_c, 2, 66, 80
4, 299184, Note_off_c, 2, 72, 64
4, 299280, Note_on_c, 2, 71, 80
4, 299664, Note_off_c, 2, 66, 64
4, 299760, Note_on_c, 2, 64, 80
4, 300144, Note_off_c, 2, 71, 64
4, 300240, Note_on_c, 2, 69, 80
4, 300600, Note_off_c, 2, 64, 64
4, 300624, Note_off_c, 2, 69, 64
4, 300720, Note_on_c, 2, 78, 64
4, 300720, Note_on_c, 2, 81, 64
4, 300864, Note_off_c, 2, 81, 64
4, 300864, Note_off_c, 2, 78, 64
4, 301200, Note_on_c, 2, 76, 64
4, 301200, Note_on_c, 2, 79, 64
4, 301344, Note_off_c, 2, 79, 64
4, 301344, Note_off_c, 2, 76, 64
4, 301680, Note_on_c, 2, 83, 80
4, 301680, Note_on_c, 2, 71, 80
4, 301824, Note_off_c, 2, 71, 64
4, 301824, Note_off_c, 2, 83, 64
4, 302160, Note_on_c, 2, 83, 80
4, 302160, Note_on_c, 2, 71, 80
4, 302304, Note_off_c, 2, 71, 64
4, 302304, Note_off_c, 2, 83, 64
4, 302640, Note_on_c, 2, 83, 80
4, 302640, Note_on_c, 2, 71, 80
4, 302784, Note_off_c, 2, 71, 64
4, 302784, Note_off_c, 2, 83, 64
4, 303120, Note_on_c, 2, 71, 80
4, 303120, Note_on_c, 2, 83, 80
4, 303264, Note_off_c, 2, 83, 64
4, 303264, Note_off_c, 2, 71, 64
4, 303600, Note_on_c, 2, 83, 80
4, 303600, Note_on_c, 2, 71, 80
4, 303744, Note_off_c, 2, 71, 64
4, 303744, Note_off_c, 2, 83, 64
4, 304080, Note_on_c, 2, 83, 80
4, 304080, Note_on_c, 2, 71, 80
4, 304224, Note_off_c, 2, 71, 64
4, 304224, Note_off_c, 2, 83, 64
4, 304560, Note_on_c, 2, 83, 80
4, 304560, Note_on_c, 2, 71, 80
4, 304704, Note_off_c, 2, 71, 64
4, 304704, Note_off_c, 2, 83, 64
4, 305040, Note_on_c, 2, 71, 80
4, 305040, Note_on_c, 2, 83, 80
4, 305184, Note_off_c, 2, 83, 64
4, 305184, Note_off_c, 2, 71, 64
4, 305520, Note_on_c, 2, 71, 80
4, 305520, Note_on_c, 2, 83, 80
4, 305664, Note_off_c, 2, 83, 64
4, 305664, Note_off_c, 2, 71, 64
4, 306000, Note_on_c, 2, 71, 80
4, 306000, Note_on_c, 2, 83, 80
4, 306144, Note_off_c, 2, 83, 64
4, 306144, Note_off_c, 2, 71, 64
4, 306540, Note_on_c, 2, 83, 80
4, 306540, Note_on_c, 2, 71, 80
4, 306684, Note_off_c, 2, 71, 64
4, 306684, Note_off_c, 2, 83, 64
4, 307080, Note_on_c, 2, 71, 80
4, 307080, Note_on_c, 2, 83, 80
4, 307224, Note_off_c, 2, 83, 64
4, 307224, Note_off_c, 2, 71, 64
4, 307680, Note_on_c, 2, 72, 99
4, 307680, Note_on_c, 2, 76, 99
4, 308064, Note_off_c, 2, 76, 64
4, 308064, Note_off_c, 2, 72, 64
4, 308640, Note_on_c, 2, 67, 99
4, 308880, Note_off_c, 2, 67, 64
4, 308880, Note_on_c, 2, 69, 99
4, 309000, Note_off_c, 2, 69, 64
4, 309000, Note_on_c, 2, 71, 99
4, 309120, Note_off_c, 2, 71, 64
4, 309120, Note_on_c, 2, 72, 99
4, 309216, Note_off_c, 2, 72, 64
4, 309360, Note_on_c, 2, 72, 99
4, 309456, Note_off_c, 2, 72, 64
4, 309600, Note_on_c, 2, 72, 99
4, 309600, Note_on_c, 2, 76, 99
4, 309984, Note_off_c, 2, 76, 64
4, 309984, Note_off_c, 2, 72, 64
4, 310560, Note_on_c, 2, 67, 99
4, 310800, Note_off_c, 2, 67, 64
4, 310800, Note_on_c, 2, 69, 99
4, 310920, Note_off_c, 2, 69, 64
4, 310920, Note_on_c, 2, 71, 99
4, 311040, Note_off_c, 2, 71, 64
4, 311040, Note_on_c, 2, 72, 99
4, 311136, Note_off_c, 2, 72, 64
4, 311280, Note_on_c, 2, 72, 99
4, 311376, Note_off_c, 2, 72, 64
4, 311520, Note_on_c, 2, 76, 99
4, 311520, Note_on_c, 2, 72, 99
4, 311904, Note_off_c, 2, 72, 64
4, 311904, Note_off_c, 2, 76, 64
4, 312480, Note_on_c, 2, 67, 99
4, 312720, Note_off_c, 2, 67, 64
4, 312720, Note_on_c, 2, 69, 99
4, 312840, Note_off_c, 2, 69, 64
4, 312840, Note_on_c, 2, 71, 99
4, 312960, Note_off_c, 2, 71, 64
4, 312960, Note_on_c, 2, 72, 99
4, 313056, Note_off_c, 2, 72, 64
4, 313200, Note_on_c, 2, 72, 99
4, 313296, Note_off_c, 2, 72, 64
4, 313440, Note_on_c, 2, 72, 127
4, 313824, Note_off_c, 2, 72, 64
4, 313920, Note_on_c, 2, 72, 127
4, 314304, Note_off_c, 2, 72, 64
4, 314400, Note_on_c, 2, 71, 127
4, 314784, Note_off_c, 2, 71, 64
4, 314880, Note_on_c, 2, 71, 127
4, 315264, Note_off_c, 2, 71, 64
4, 315360, Note_on_c, 2, 72, 99
4, 315360, Note_on_c, 2, 76, 99
4, 315744, Note_off_c, 2, 76, 64
4, 315744, Note_off_c, 2, 72, 64
4, 316320, Note_on_c, 2, 67, 99
4, 316560, Note_off_c, 2, 67, 64
4, 316560, Note_on_c, 2, 69, 99
4, 316680, Note_off_c, 2, 69, 64
4, 316680, Note_on_c, 2, 71, 99
4, 316800, Note_off_c, 2, 71, 64
4, 316800, Note_on_c, 2, 72, 99
4, 316896, Note_off_c, 2, 72, 64
4, 317040, Note_on_c, 2, 72, 99
4, 317136, Note_off_c, 2, 72, 64
4, 317280, Note_on_c, 2, 76, 99
4, 317280, Note_on_c, 2, 72, 99
4, 317664, Note_off_c, 2, 72, 64
4, 317664, Note_off_c, 2, 76, 64
4, 318240, Note_on_c, 2, 67, 99
4, 318480, Note_off_c, 2, 67, 64
4, 318480, Note_on_c, 2, 69, 99
4, 318600, Note_off_c, 2, 69, 64
4, 318600, Note_on_c, 2, 71, 99
4, 318720, Note_off_c, 2, 71, 64
4, 318720, Note_on_c, 2, 72, 99
4, 318816, Note_off_c, 2, 72, 64
4, 318960, Note_on_c, 2, 72, 99
4, 319056, Note_off_c, 2, 72, 64
4, 319200, Note_on_c, 2, 72, 99
4, 319200, Note_on_c, 2, 76, 99
4, 319584, Note_off_c, 2, 76, 64
4, 319584, Note_off_c, 2, 72, 64
4, 320160, Note_on_c, 2, 67, 99
4, 320400, Note_off_c, 2, 67, 64
4, 320400, Note_on_c, 2, 69, 99
4, 320520, Note_off_c, 2, 69, 64
4, 320520, Note_on_c, 2, 71, 99
4, 320640, Note_off_c, 2, 71, 64
4, 320640, Note_on_c, 2, 72, 99
4, 320736, Note_off_c, 2, 72, 64
4, 320880, Note_on_c, 2, 72, 99
4, 320976, Note_off_c, 2, 72, 64
4, 321120, Note_on_c, 2, 72, 127
4, 321504, Note_off_c, 2, 72, 64
4, 321600, Note_on_c, 2, 72, 127
4, 321984, Note_off_c, 2, 72, 64
4, 322080, Note_on_c, 2, 71, 127
4, 322464, Note_off_c, 2, 71, 64
4, 322560, Note_on_c, 2, 59, 127
4, 322560, Note_on_c, 2, 71, 127
4, 322944, Note_off_c, 2, 71, 64
4, 322944, Note_off_c, 2, 59, 64
4, 323040, Note_on_c, 2, 67, 80
4, 323040, Note_on_c, 2, 59, 40
4, 323136, Note_off_c, 2, 59, 64
4, 323136, Note_off_c, 2, 67, 64
4, 323280, Note_on_c, 2, 59, 40
4, 323280, Note_on_c, 2, 67, 40
4, 323376, Note_off_c, 2, 67, 64
4, 323376, Note_off_c, 2, 59, 64
4, 323520, Note_on_c, 2, 59, 40
4, 323520, Note_on_c, 2, 67, 40
4, 323616, Note_off_c, 2, 67, 64
4, 323616, Note_off_c, 2, 59, 64
4, 324000, Note_on_c, 2, 66, 40
4, 324000, Note_on_c, 2, 59, 40
4, 324096, Note_off_c, 2, 59, 64
4, 324096, Note_off_c, 2, 66, 64
4, 324240, Note_on_c, 2, 66, 40
4, 324240, Note_on_c, 2, 59, 40
4, 324336, Note_off_c, 2, 59, 64
4, 324336, Note_off_c, 2, 66, 64
4, 324480, Note_on_c, 2, 59, 40
4, 324480, Note_on_c, 2, 66, 40
4, 324576, Note_off_c, 2, 66, 64
4, 324576, Note_off_c, 2, 59, 64
4, 324960, Note_on_c, 2, 59, 40
4, 324960, Note_on_c, 2, 67, 40
4, 325056, Note_off_c, 2, 67, 64
4, 325056, Note_off_c, 2, 59, 64
4, 325200, Note_on_c, 2, 59, 40
4, 325200, Note_on_c, 2, 67, 40
4, 325296, Note_off_c, 2, 67, 64
4, 325296, Note_off_c, 2, 59, 64
4, 325440, Note_on_c, 2, 67, 40
4, 325440, Note_on_c, 2, 59, 40
4, 325536, Note_off_c, 2, 59, 64
4, 325536, Note_off_c, 2, 67, 64
4, 325920, Note_on_c, 2, 59, 60
4, 325920, Note_on_c, 2, 66, 60
4, 326016, Note_off_c, 2, 66, 64
4, 326016, Note_off_c, 2, 59, 64
4, 326160, Note_on_c, 2, 66, 60
4, 326160, Note_on_c, 2, 59, 60
4, 326256, Note_off_c, 2, 59, 64
4, 326256, Note_off_c, 2, 66, 64
4, 326400, Note_on_c, 2, 59, 60
4, 326400, Note_on_c, 2, 66, 60
4, 326496, Note_off_c, 2, 66, 64
4, 326496, Note_off_c, 2, 59, 64
4, 326640, Note_on_c, 2, 66, 60
4, 326640, Note_on_c, 2, 59, 60
4, 326736, Note_off_c, 2, 59, 64
4, 326736, Note_off_c, 2, 66, 64
4, 326880, Note_on_c, 2, 59, 40
4, 326880, Note_on_c, 2, 67, 80
4, 326976, Note_off_c, 2, 67, 64
4, 326976, Note_off_c, 2, 59, 64
4, 327120, Note_on_c, 2, 59, 40
4, 327120, Note_on_c, 2, 67, 40
4, 327216, Note_off_c, 2, 67, 64
4, 327216, Note_off_c, 2, 59, 64
4, 327360, Note_on_c, 2, 67, 40
4, 327360, Note_on_c, 2, 59, 40
4, 327456, Note_off_c, 2, 59, 64
4, 327456, Note_off_c, 2, 67, 64
4, 327840, Note_on_c, 2, 66, 40
4, 327840, Note_on_c, 2, 59, 40
4, 327936, Note_off_c, 2, 59, 64
4, 327936, Note_off_c, 2, 66, 64
4, 328080, Note_on_c, 2, 59, 40
4, 328080, Note_on_c, 2, 66, 40
4, 328176, Note_off_c, 2, 66, 64
4, 328176, Note_off_c, 2, 59, 64
4, 328320, Note_on_c, 2, 59, 40
4, 328320, Note_on_c, 2, 66, 40
4, 328416, Note_off_c, 2, 66, 64
4, 328416, Note_off_c, 2, 59, 64
4, 328800, Note_on_c, 2, 59, 40
4, 328800, Note_on_c, 2, 67, 40
4, 328896, Note_off_c, 2, 67, 64
4, 328896, Note_off_c, 2, 59, 64
4, 329040, Note_on_c, 2, 59, 40
4, 329040, Note_on_c, 2, 67, 40
4, 329136, Note_off_c, 2, 67, 64
4, 329136, Note_off_c, 2, 59, 64
4, 329280, Note_on_c, 2, 59, 40
4, 329280, Note_on_c, 2, 67, 40
4, 329376, Note_off_c, 2, 67, 64
4, 329376, Note_off_c, 2, 59, 64
4, 329760, Note_on_c, 2, 59, 60
4, 329760, Note_on_c, 2, 66, 60
4, 329856, Note_off_c, 2, 66, 64
4, 329856, Note_off_c, 2, 59, 64
4, 330000, Note_on_c, 2, 59, 60
4, 330000, Note_on_c, 2, 66, 60
4, 330096, Note_off_c, 2, 66, 64
4, 330096, Note_off_c, 2, 59, 64
4, 330240, Note_on_c, 2, 66, 60
4, 330240, Note_on_c, 2, 59, 60
4, 330336, Note_off_c, 2, 59, 64
4, 330336, Note_off_c, 2, 66, 64
4, 330480, Note_on_c, 2, 66, 60
4, 330480, Note_on_c, 2, 59, 60
4, 330576, Note_off_c, 2, 59, 64
4, 330576, Note_off_c, 2, 66, 64
4, 330720, Note_on_c, 2, 67, 60
4, 330720, Note_on_c, 2, 59, 60
4, 330816, Note_off_c, 2, 59, 64
4, 330816, Note_off_c, 2, 67, 64
4, 330960, Note_on_c, 2, 67, 60
4, 330960, Note_on_c, 2, 59, 60
4, 331056, Note_off_c, 2, 59, 64
4, 331056, Note_off_c, 2, 67, 64
4, 331200, Note_on_c, 2, 59, 60
4, 331200, Note_on_c, 2, 66, 60
4, 331296, Note_off_c, 2, 66, 64
4, 331296, Note_off_c, 2, 59, 64
4, 331440, Note_on_c, 2, 66, 60
4, 331440, Note_on_c, 2, 59, 60
4, 331536, Note_off_c, 2, 59, 64
4, 331536, Note_off_c, 2, 66, 64
4, 331680, Note_on_c, 2, 67, 60
4, 331680, Note_on_c, 2, 59, 60
4, 331776, Note_off_c, 2, 59, 64
4, 331776, Note_off_c, 2, 67, 64
4, 331920, Note_on_c, 2, 59, 60
4, 331920, Note_on_c, 2, 67, 60
4, 332016, Note_off_c, 2, 67, 64
4, 332016, Note_off_c, 2, 59, 64
4, 332160, Note_on_c, 2, 66, 60
4, 332160, Note_on_c, 2, 59, 60
4, 332256, Note_off_c, 2, 59, 64
4, 332256, Note_off_c, 2, 66, 64
4, 332400, Note_on_c, 2, 59, 60
4, 332400, Note_on_c, 2, 66, 60
4, 332496, Note_off_c, 2, 66, 64
4, 332496, Note_off_c, 2, 59, 64
4, 332640, Note_on_c, 2, 59, 60
4, 332640, Note_on_c, 2, 67, 60
4, 332736, Note_off_c, 2, 67, 64
4, 332736, Note_off_c, 2, 59, 64
4, 332880, Note_on_c, 2, 67, 60
4, 332880, Note_on_c, 2, 59, 60
4, 332976, Note_off_c, 2, 59, 64
4, 332976, Note_off_c, 2, 67, 64
4, 333120, Note_on_c, 2, 66, 60
4, 333120, Note_on_c, 2, 59, 60
4, 333216, Note_off_c, 2, 59, 64
4, 333216, Note_off_c, 2, 66, 64
4, 333360, Note_on_c, 2, 59, 60
4, 333360, Note_on_c, 2, 66, 60
4, 333456, Note_off_c, 2, 66, 64
4, 333456, Note_off_c, 2, 59, 64
4, 333600, Note_on_c, 2, 59, 60
4, 333600, Note_on_c, 2, 67, 60
4, 333696, Note_off_c, 2, 67, 64
4, 333696, Note_off_c, 2, 59, 64
4, 333840, Note_on_c, 2, 67, 60
4, 333840, Note_on_c, 2, 59, 60
4, 333936, Note_off_c, 2, 59, 64
4, 333936, Note_off_c, 2, 67, 64
4, 334080, Note_on_c, 2, 66, 60
4, 334080, Note_on_c, 2, 59, 60
4, 334176, Note_off_c, 2, 59, 64
4, 334176, Note_off_c, 2, 66, 64
4, 334320, Note_on_c, 2, 59, 60
4, 334320, Note_on_c, 2, 66, 60
4, 334416, Note_off_c, 2, 66, 64
4, 334416, Note_off_c, 2, 59, 64
4, 334560, Note_on_c, 2, 59, 80
4, 334560, Note_on_c, 2, 67, 80
4, 334752, Note_off_c, 2, 67, 64
4, 334752, Note_off_c, 2, 59, 64
4, 335520, Note_on_c, 2, 76, 80
4, 335520, Note_on_c, 2, 64, 80
4, 335712, Note_off_c, 2, 76, 64
4, 335760, Note_off_c, 2, 64, 64
4, 336000, Note_on_c, 2, 76, 80
4, 336000, Note_on_c, 2, 64, 80
4, 336192, Note_off_c, 2, 64, 64
4, 336192, Note_off_c, 2, 76, 64
4, 336480, Note_on_c, 2, 76, 80
4, 336480, Note_on_c, 2, 64, 80
4, 336672, Note_off_c, 2, 64, 64
4, 336672, Note_off_c, 2, 76, 64
4, 337440, Note_on_c, 2, 76, 80
4, 337440, Note_on_c, 2, 64, 80
4, 337632, Note_off_c, 2, 64, 64
4, 337632, Note_off_c, 2, 76, 64
4, 338400, Note_on_c, 2, 76, 29
4, 338400, Note_on_c, 2, 64, 29
4, 339360, Note_off_c, 2, 64, 64
4, 339360, Note_off_c, 2, 76, 64
4, 339360, Note_on_c, 2, 59, 29
4, 339360, Note_on_c, 2, 71, 29
4, 342240, Note_off_c, 2, 71, 64
4, 342240, Note_off_c, 2, 59, 64
4, 342240, Note_on_c, 2, 60, 23
4, 342240, Note_on_c, 2, 72, 23
4, 343080, Note_off_c, 2, 72, 64
4, 343080, Note_off_c, 2, 60, 64
4, 352800, Note_on_c, 2, 60, 30
4, 352800, Note_on_c, 2, 72, 30
4, 353568, Note_off_c, 2, 72, 64
4, 353568, Note_off_c, 2, 60, 64
4, 353760, Note_on_c, 2, 72, 38
4, 353760, Note_on_c, 2, 60, 38
4, 354528, Note_off_c, 2, 60, 64
4, 354528, Note_off_c, 2, 72, 64
4, 354720, Note_on_c, 2, 72, 48
4, 354720, Note_on_c, 2, 60, 48
4, 355488, Note_off_c, 2, 60, 64
4, 355488, Note_off_c, 2, 72, 64
4, 355680, Note_on_c, 2, 72, 48
4, 355680, Note_on_c, 2, 60, 48
4, 356448, Note_off_c, 2, 60, 64
4, 356448, Note_off_c, 2, 72, 64
4, 356640, Note_on_c, 2, 65, 62
4, 356640, Note_on_c, 2, 62, 62
4, 357120, Note_off_c, 2, 62, 64
4, 357120, Note_off_c, 2, 65, 64
4, 357120, Note_on_c, 2, 67, 65
4, 357216, Note_off_c, 2, 67, 64
4, 357360, Note_on_c, 2, 67, 67
4, 357456, Note_off_c, 2, 67, 64
4, 357600, Note_on_c, 2, 67, 68
4, 357600, Note_on_c, 2, 64, 68
4, 357720, Note_off_c, 2, 64, 64
4, 357720, Note_off_c, 2, 67, 64
4, 357840, Note_on_c, 2, 72, 72
4, 357840, Note_on_c, 2, 60, 72
4, 357936, Note_off_c, 2, 60, 64
4, 357936, Note_off_c, 2, 72, 64
4, 358080, Note_on_c, 2, 69, 72
4, 358080, Note_on_c, 2, 60, 72
4, 358176, Note_off_c, 2, 60, 64
4, 358176, Note_off_c, 2, 69, 64
4, 358320, Note_on_c, 2, 71, 74
4, 358320, Note_on_c, 2, 62, 74
4, 358416, Note_off_c, 2, 62, 64
4, 358416, Note_off_c, 2, 71, 64
4, 358560, Note_on_c, 2, 64, 76
4, 358560, Note_on_c, 2, 72, 76
4, 358656, Note_off_c, 2, 72, 64
4, 358656, Note_off_c, 2, 64, 64
4, 358800, Note_on_c, 2, 71, 77
4, 358800, Note_on_c, 2, 74, 77
4, 358896, Note_off_c, 2, 74, 64
4, 358896, Note_off_c, 2, 71, 64
4, 359040, Note_on_c, 2, 76, 79
4, 359040, Note_on_c, 2, 72, 79
4, 359136, Note_off_c, 2, 72, 64
4, 359136, Note_off_c, 2, 76, 64
4, 359280, Note_on_c, 2, 69, 81
4, 359280, Note_on_c, 2, 78, 81
4, 359376, Note_off_c, 2, 78, 64
4, 359376, Note_off_c, 2, 69, 64
4, 359520, Note_on_c, 2, 79, 80
4, 359520, Note_on_c, 2, 71, 60
4, 359616, Note_off_c, 2, 71, 64
4, 359616, Note_off_c, 2, 79, 64
4, 359760, Note_on_c, 2, 79, 60
4, 359760, Note_on_c, 2, 67, 60
4, 359856, Note_off_c, 2, 67, 64
4, 359856, Note_off_c, 2, 79, 64
4, 360000, Note_on_c, 2, 79, 60
4, 360000, Note_on_c, 2, 67, 60
4, 360096, Note_off_c, 2, 67, 64
4, 360096, Note_off_c, 2, 79, 64
4, 360480, Note_on_c, 2, 76, 60
4, 360480, Note_on_c, 2, 79, 80
4, 360576, Note_off_c, 2, 79, 64
4, 360576, Note_off_c, 2, 76, 64
4, 360720, Note_on_c, 2, 76, 60
4, 360720, Note_on_c, 2, 79, 60
4, 360816, Note_off_c, 2, 79, 64
4, 360816, Note_off_c, 2, 76, 64
4, 360960, Note_on_c, 2, 76, 60
4, 360960, Note_on_c, 2, 79, 60
4, 361056, Note_off_c, 2, 79, 64
4, 361056, Note_off_c, 2, 76, 64
4, 361440, Note_on_c, 2, 64, 80
4, 361440, Note_on_c, 2, 67, 80
4, 361536, Note_off_c, 2, 67, 64
4, 361536, Note_off_c, 2, 64, 64
4, 361680, Note_on_c, 2, 62, 60
4, 361680, Note_on_c, 2, 65, 60
4, 361776, Note_off_c, 2, 65, 64
4, 361776, Note_off_c, 2, 62, 64
4, 361920, Note_on_c, 2, 65, 60
4, 361920, Note_on_c, 2, 62, 60
4, 362016, Note_off_c, 2, 62, 64
4, 362016, Note_off_c, 2, 65, 64
4, 362400, Note_on_c, 2, 62, 60
4, 362400, Note_on_c, 2, 65, 80
4, 362496, Note_off_c, 2, 65, 64
4, 362496, Note_off_c, 2, 62, 64
4, 362640, Note_on_c, 2, 65, 60
4, 362640, Note_on_c, 2, 62, 60
4, 362736, Note_off_c, 2, 62, 64
4, 362736, Note_off_c, 2, 65, 64
4, 362880, Note_on_c, 2, 65, 60
4, 362880, Note_on_c, 2, 62, 60
4, 362976, Note_off_c, 2, 62, 64
4, 362976, Note_off_c, 2, 65, 64
4, 363360, Note_on_c, 2, 65, 80
4, 363360, Note_on_c, 2, 62, 60
4, 363456, Note_off_c, 2, 62, 64
4, 363456, Note_off_c, 2, 65, 64
4, 363600, Note_on_c, 2, 60, 60
4, 363600, Note_on_c, 2, 64, 60
4, 363696, Note_off_c, 2, 60, 64
4, 363720, Note_off_c, 2, 64, 64
4, 363840, Note_on_c, 2, 64, 60
4, 363840, Note_on_c, 2, 60, 60
4, 363936, Note_off_c, 2, 60, 64
4, 363936, Note_off_c, 2, 64, 64
4, 364320, Note_on_c, 2, 76, 80
4, 364320, Note_on_c, 2, 67, 60
4, 364416, Note_off_c, 2, 67, 64
4, 364416, Note_off_c, 2, 76, 64
4, 364560, Note_on_c, 2, 67, 60
4, 364560, Note_on_c, 2, 76, 60
4, 364656, Note_off_c, 2, 76, 64
4, 364656, Note_off_c, 2, 67, 64
4, 364800, Note_on_c, 2, 67, 60
4, 364800, Note_on_c, 2, 76, 60
4, 364896, Note_off_c, 2, 76, 64
4, 364896, Note_off_c, 2, 67, 64
4, 365280, Note_on_c, 2, 76, 80
4, 365280, Note_on_c, 2, 67, 60
4, 365376, Note_off_c, 2, 67, 64
4, 365376, Note_off_c, 2, 76, 64
4, 365520, Note_on_c, 2, 67, 60
4, 365520, Note_on_c, 2, 74, 60
4, 365616, Note_off_c, 2, 74, 64
4, 365616, Note_off_c, 2, 67, 64
4, 365760, Note_on_c, 2, 74, 60
4, 365760, Note_on_c, 2, 67, 60
4, 365856, Note_off_c, 2, 67, 64
4, 365856, Note_off_c, 2, 74, 64
4, 366240, Note_on_c, 2, 67, 60
4, 366240, Note_on_c, 2, 74, 80
4, 366336, Note_off_c, 2, 74, 64
4, 366336, Note_off_c, 2, 67, 64
4, 366480, Note_on_c, 2, 74, 60
4, 366480, Note_on_c, 2, 67, 60
4, 366576, Note_off_c, 2, 67, 64
4, 366576, Note_off_c, 2, 74, 64
4, 366720, Note_on_c, 2, 74, 60
4, 366720, Note_on_c, 2, 67, 60
4, 366816, Note_off_c, 2, 67, 64
4, 366816, Note_off_c, 2, 74, 64
4, 367200, Note_on_c, 2, 76, 67
4, 367968, Note_off_c, 2, 76, 64
4, 368160, Note_on_c, 2, 73, 67
4, 368400, Note_off_c, 2, 73, 64
4, 368400, Note_on_c, 2, 74, 67
4, 368520, Note_off_c, 2, 74, 64
4, 368520, Note_on_c, 2, 76, 67
4, 368640, Note_off_c, 2, 76, 64
4, 368640, Note_on_c, 2, 77, 67
4, 368736, Note_off_c, 2, 77, 64
4, 368880, Note_on_c, 2, 77, 67
4, 368976, Note_off_c, 2, 77, 64
4, 369120, Note_on_c, 2, 74, 67
4, 369888, Note_off_c, 2, 74, 64
4, 370080, Note_on_c, 2, 71, 67
4, 370320, Note_off_c, 2, 71, 64
4, 370320, Note_on_c, 2, 72, 67
4, 370440, Note_off_c, 2, 72, 64
4, 370440, Note_on_c, 2, 74, 67
4, 370560, Note_off_c, 2, 74, 64
4, 370560, Note_on_c, 2, 76, 67
4, 370656, Note_off_c, 2, 76, 64
4, 370800, Note_on_c, 2, 76, 67
4, 370896, Note_off_c, 2, 76, 64
4, 371040, Note_on_c, 2, 72, 67
4, 371808, Note_off_c, 2, 72, 64
4, 372000, Note_on_c, 2, 69, 67
4, 372240, Note_off_c, 2, 69, 64
4, 372240, Note_on_c, 2, 71, 67
4, 372360, Note_off_c, 2, 71, 64
4, 372360, Note_on_c, 2, 72, 67
4, 372480, Note_off_c, 2, 72, 64
4, 372480, Note_on_c, 2, 74, 67
4, 372576, Note_off_c, 2, 74, 64
4, 372720, Note_on_c, 2, 74, 67
4, 372816, Note_off_c, 2, 74, 64
4, 372960, Note_on_c, 2, 65, 42
4, 372960, Note_on_c, 2, 74, 42
4, 373056, Note_off_c, 2, 74, 64
4, 373056, Note_off_c, 2, 65, 64
4, 373200, Note_on_c, 2, 67, 42
4, 373200, Note_on_c, 2, 79, 42
4, 373296, Note_off_c, 2, 79, 64
4, 373296, Note_off_c, 2, 67, 64
4, 373440, Note_on_c, 2, 67, 42
4, 373440, Note_on_c, 2, 79, 42
4, 373536, Note_off_c, 2, 79, 64
4, 373536, Note_off_c, 2, 67, 64
4, 373920, Note_on_c, 2, 79, 42
4, 373920, Note_on_c, 2, 67, 42
4, 374016, Note_off_c, 2, 67, 64
4, 374016, Note_off_c, 2, 79, 64
4, 374160, Note_on_c, 2, 67, 42
4, 374160, Note_on_c, 2, 79, 42
4, 374256, Note_off_c, 2, 79, 64
4, 374256, Note_off_c, 2, 67, 64
4, 374400, Note_on_c, 2, 79, 42
4, 374400, Note_on_c, 2, 67, 42
4, 374496, Note_off_c, 2, 67, 64
4, 374496, Note_off_c, 2, 79, 64
4, 374880, Note_on_c, 2, 67, 56
4, 374880, Note_on_c, 2, 79, 56
4, 374976, Note_off_c, 2, 79, 64
4, 374976, Note_off_c, 2, 67, 64
4, 375120, Note_on_c, 2, 67, 56
4, 375120, Note_on_c, 2, 79, 56
4, 375216, Note_off_c, 2, 79, 64
4, 375216, Note_off_c, 2, 67, 64
4, 375360, Note_on_c, 2, 67, 56
4, 375360, Note_on_c, 2, 79, 56
4, 375456, Note_off_c, 2, 79, 64
4, 375456, Note_off_c, 2, 67, 64
4, 375840, Note_on_c, 2, 79, 42
4, 375840, Note_on_c, 2, 67, 42
4, 375936, Note_off_c, 2, 67, 64
4, 375936, Note_off_c, 2, 79, 64
4, 376080, Note_on_c, 2, 67, 42
4, 376080, Note_on_c, 2, 79, 42
4, 376176, Note_off_c, 2, 79, 64
4, 376176, Note_off_c, 2, 67, 64
4, 376320, Note_on_c, 2, 67, 42
4, 376320, Note_on_c, 2, 79, 42
4, 376416, Note_off_c, 2, 79, 64
4, 376416, Note_off_c, 2, 67, 64
4, 376800, Note_on_c, 2, 67, 56
4, 376800, Note_on_c, 2, 79, 56
4, 376896, Note_off_c, 2, 79, 64
4, 376896, Note_off_c, 2, 67, 64
4, 377040, Note_on_c, 2, 67, 56
4, 377040, Note_on_c, 2, 79, 56
4, 377136, Note_off_c, 2, 79, 64
4, 377136, Note_off_c, 2, 67, 64
4, 377280, Note_on_c, 2, 67, 56
4, 377280, Note_on_c, 2, 79, 56
4, 377376, Note_off_c, 2, 79, 64
4, 377376, Note_off_c, 2, 67, 64
4, 377760, Note_on_c, 2, 67, 105
4, 377856, Note_off_c, 2, 67, 64
4, 378000, Note_on_c, 2, 66, 105
4, 378120, Note_off_c, 2, 66, 64
4, 378120, Note_on_c, 2, 67, 105
4, 378240, Note_off_c, 2, 67, 64
4, 378240, Note_on_c, 2, 69, 127
4, 378336, Note_off_c, 2, 69, 64
4, 378480, Note_on_c, 2, 67, 105
4, 378576, Note_off_c, 2, 67, 64
4, 378720, Note_on_c, 2, 66, 105
4, 378816, Note_off_c, 2, 66, 64
4, 378960, Note_on_c, 2, 62, 105
4, 379080, Note_off_c, 2, 62, 64
4, 379080, Note_on_c, 2, 64, 105
4, 379200, Note_off_c, 2, 64, 64
4, 379200, Note_on_c, 2, 66, 127
4, 379296, Note_off_c, 2, 66, 64
4, 379440, Note_on_c, 2, 66, 105
4, 379536, Note_off_c, 2, 66, 64
4, 379680, Note_on_c, 2, 65, 105
4, 379776, Note_off_c, 2, 65, 64
4, 379920, Note_on_c, 2, 64, 105
4, 380040, Note_off_c, 2, 64, 64
4, 380040, Note_on_c, 2, 65, 105
4, 380160, Note_off_c, 2, 65, 64
4, 380160, Note_on_c, 2, 67, 127
4, 380256, Note_off_c, 2, 67, 64
4, 380400, Note_on_c, 2, 65, 105
4, 380496, Note_off_c, 2, 65, 64
4, 380640, Note_on_c, 2, 64, 56
4, 380736, Note_off_c, 2, 64, 64
4, 380880, Note_on_c, 2, 79, 56
4, 380880, Note_on_c, 2, 76, 56
4, 380976, Note_off_c, 2, 76, 64
4, 380976, Note_off_c, 2, 79, 64
4, 381120, Note_on_c, 2, 77, 56
4, 381120, Note_on_c, 2, 81, 96
4, 381216, Note_off_c, 2, 81, 64
4, 381216, Note_off_c, 2, 77, 64
4, 381360, Note_on_c, 2, 76, 56
4, 381360, Note_on_c, 2, 79, 56
4, 381456, Note_off_c, 2, 79, 64
4, 381456, Note_off_c, 2, 76, 64
4, 381600, Note_on_c, 2, 77, 56
4, 381600, Note_on_c, 2, 74, 56
4, 381696, Note_off_c, 2, 74, 64
4, 381696, Note_off_c, 2, 77, 64
4, 381840, Note_on_c, 2, 77, 56
4, 381840, Note_on_c, 2, 74, 56
4, 381936, Note_off_c, 2, 74, 64
4, 381936, Note_off_c, 2, 77, 64
4, 382080, Note_on_c, 2, 79, 96
4, 382080, Note_on_c, 2, 76, 56
4, 382176, Note_off_c, 2, 76, 64
4, 382176, Note_off_c, 2, 79, 64
4, 382320, Note_on_c, 2, 74, 56
4, 382320, Note_on_c, 2, 77, 56
4, 382416, Note_off_c, 2, 77, 64
4, 382416, Note_off_c, 2, 74, 64
4, 382560, Note_on_c, 2, 72, 56
4, 382560, Note_on_c, 2, 76, 56
4, 382656, Note_off_c, 2, 76, 64
4, 382656, Note_off_c, 2, 72, 64
4, 382800, Note_on_c, 2, 72, 56
4, 382800, Note_on_c, 2, 76, 56
4, 382896, Note_off_c, 2, 76, 64
4, 382896, Note_off_c, 2, 72, 64
4, 383040, Note_on_c, 2, 77, 96
4, 383040, Note_on_c, 2, 74, 56
4, 383136, Note_off_c, 2, 74, 64
4, 383136, Note_off_c, 2, 77, 64
4, 383280, Note_on_c, 2, 72, 56
4, 383280, Note_on_c, 2, 76, 56
4, 383376, Note_off_c, 2, 76, 64
4, 383376, Note_off_c, 2, 72, 64
4, 383520, Note_on_c, 2, 74, 56
4, 383520, Note_on_c, 2, 71, 56
4, 383616, Note_off_c, 2, 71, 64
4, 383616, Note_off_c, 2, 74, 64
4, 383760, Note_on_c, 2, 74, 56
4, 383760, Note_on_c, 2, 71, 56
4, 383856, Note_off_c, 2, 71, 64
4, 383856, Note_off_c, 2, 74, 64
4, 384000, Note_on_c, 2, 72, 56
4, 384000, Note_on_c, 2, 76, 96
4, 384096, Note_off_c, 2, 76, 64
4, 384096, Note_off_c, 2, 72, 64
4, 384240, Note_on_c, 2, 74, 56
4, 384240, Note_on_c, 2, 71, 56
4, 384336, Note_off_c, 2, 71, 64
4, 384336, Note_off_c, 2, 74, 64
4, 384480, Note_on_c, 2, 69, 56
4, 384480, Note_on_c, 2, 72, 96
4, 384576, Note_off_c, 2, 72, 64
4, 384576, Note_off_c, 2, 69, 64
4, 384720, Note_on_c, 2, 74, 56
4, 384720, Note_on_c, 2, 71, 56
4, 384816, Note_off_c, 2, 71, 64
4, 384816, Note_off_c, 2, 74, 64
4, 384960, Note_on_c, 2, 71, 96
4, 384960, Note_on_c, 2, 67, 56
4, 385056, Note_off_c, 2, 67, 64
4, 385056, Note_off_c, 2, 71, 64
4, 385200, Note_on_c, 2, 69, 56
4, 385200, Note_on_c, 2, 72, 56
4, 385296, Note_off_c, 2, 72, 64
4, 385296, Note_off_c, 2, 69, 64
4, 385440, Note_on_c, 2, 69, 96
4, 385440, Note_on_c, 2, 65, 56
4, 385536, Note_off_c, 2, 65, 64
4, 385536, Note_off_c, 2, 69, 64
4, 385680, Note_on_c, 2, 71, 56
4, 385680, Note_on_c, 2, 67, 56
4, 385776, Note_off_c, 2, 67, 64
4, 385776, Note_off_c, 2, 71, 64
4, 385920, Note_on_c, 2, 67, 96
4, 385920, Note_on_c, 2, 64, 56
4, 386000, Note_off_c, 2, 64, 64
4, 386016, Note_off_c, 2, 67, 64
4, 386160, Note_on_c, 2, 65, 56
4, 386160, Note_on_c, 2, 69, 56
4, 386256, Note_off_c, 2, 69, 64
4, 386256, Note_off_c, 2, 65, 64
4, 386400, Note_on_c, 2, 65, 96
4, 386400, Note_on_c, 2, 62, 56
4, 386496, Note_off_c, 2, 62, 64
4, 386496, Note_off_c, 2, 65, 64
4, 386640, Note_on_c, 2, 64, 56
4, 386640, Note_on_c, 2, 67, 56
4, 386720, Note_off_c, 2, 64, 64
4, 386736, Note_off_c, 2, 67, 64
4, 386880, Note_on_c, 2, 64, 96
4, 386880, Note_on_c, 2, 60, 56
4, 386960, Note_off_c, 2, 64, 64
4, 386976, Note_off_c, 2, 60, 64
4, 387120, Note_on_c, 2, 65, 56
4, 387120, Note_on_c, 2, 62, 56
4, 387216, Note_off_c, 2, 62, 64
4, 387216, Note_off_c, 2, 65, 64
4, 387360, Note_on_c, 2, 59, 56
4, 387360, Note_on_c, 2, 62, 96
4, 387456, Note_off_c, 2, 62, 64
4, 387456, Note_off_c, 2, 59, 64
4, 387600, Note_on_c, 2, 64, 56
4, 387600, Note_on_c, 2, 60, 56
4, 387680, Note_off_c, 2, 64, 64
4, 387696, Note_off_c, 2, 60, 64
4, 387840, Note_on_c, 2, 60, 96
4, 387840, Note_on_c, 2, 57, 56
4, 387936, Note_off_c, 2, 57, 64
4, 387936, Note_off_c, 2, 60, 64
4, 388080, Note_on_c, 2, 62, 56
4, 388080, Note_on_c, 2, 59, 56
4, 388176, Note_off_c, 2, 59, 64
4, 388176, Note_off_c, 2, 62, 64
4, 388320, Note_on_c, 2, 59, 60
4, 388320, Note_on_c, 2, 62, 60
4, 388512, Note_off_c, 2, 62, 64
4, 388512, Note_off_c, 2, 59, 64
4, 388800, Note_on_c, 2, 77, 80
4, 388800, Note_on_c, 2, 74, 80
4, 392256, Note_off_c, 2, 74, 64
4, 392256, Note_off_c, 2, 77, 64
4, 393600, Note_on_c, 2, 78, 80
4, 393600, Note_on_c, 2, 72, 80
4, 397536, Note_off_c, 2, 72, 64
4, 397536, Note_off_c, 2, 78, 64
4, 398880, Note_on_c, 2, 77, 80
4, 398880, Note_on_c, 2, 74, 80
4, 399072, Note_off_c, 2, 74, 64
4, 399072, Note_off_c, 2, 77, 64
4, 399840, Note_on_c, 2, 76, 80
4, 399840, Note_on_c, 2, 72, 80
4, 400032, Note_off_c, 2, 72, 64
4, 400032, Note_off_c, 2, 76, 64
4, 400800, Note_on_c, 2, 71, 80
4, 400800, Note_on_c, 2, 74, 80
4, 400992, Note_off_c, 2, 74, 64
4, 400992, Note_off_c, 2, 71, 64
4, 409440, Note_on_c, 2, 60, 32
4, 409440, Note_on_c, 2, 72, 32
4, 413472, Note_off_c, 2, 72, 64
4, 413472, Note_off_c, 2, 60, 64
4, 430560, Note_on_c, 2, 62, 39
4, 430560, Note_on_c, 2, 65, 39
4, 432480, Note_off_c, 2, 65, 64
4, 432480, Note_off_c, 2, 62, 64
4, 432480, Note_on_c, 2, 65, 80
4, 432480, Note_on_c, 2, 62, 80
4, 432576, Note_off_c, 2, 62, 64
4, 432576, Note_off_c, 2, 65, 64
4, 432720, Note_on_c, 2, 60, 80
4, 432720, Note_on_c, 2, 64, 80
4, 432840, Note_off_c, 2, 64, 64
4, 432840, Note_off_c, 2, 60, 64
4, 432840, Note_on_c, 2, 65, 80
4, 432840, Note_on_c, 2, 62, 80
4, 432960, Note_off_c, 2, 62, 64
4, 432960, Note_off_c, 2, 65, 64
4, 432960, Note_on_c, 2, 67, 80
4, 432960, Note_on_c, 2, 64, 80
4, 433056, Note_off_c, 2, 67, 64
4, 433080, Note_off_c, 2, 64, 64
4, 433200, Note_on_c, 2, 65, 80
4, 433200, Note_on_c, 2, 62, 80
4, 433296, Note_off_c, 2, 62, 64
4, 433296, Note_off_c, 2, 65, 64
4, 433440, Note_on_c, 2, 60, 80
4, 433440, Note_on_c, 2, 64, 80
4, 433800, Note_off_c, 2, 64, 64
4, 433824, Note_off_c, 2, 60, 64
4, 434400, Note_on_c, 2, 65, 80
4, 434400, Note_on_c, 2, 62, 80
4, 434496, Note_off_c, 2, 62, 64
4, 434496, Note_off_c, 2, 65, 64
4, 434640, Note_on_c, 2, 60, 80
4, 434640, Note_on_c, 2, 64, 80
4, 434736, Note_off_c, 2, 64, 64
4, 434760, Note_off_c, 2, 60, 64
4, 434760, Note_on_c, 2, 62, 80
4, 434760, Note_on_c, 2, 65, 80
4, 434880, Note_off_c, 2, 65, 64
4, 434880, Note_off_c, 2, 62, 64
4, 434880, Note_on_c, 2, 67, 80
4, 434880, Note_on_c, 2, 64, 80
4, 434976, Note_off_c, 2, 64, 64
4, 434976, Note_off_c, 2, 67, 64
4, 435120, Note_on_c, 2, 65, 80
4, 435120, Note_on_c, 2, 62, 80
4, 435216, Note_off_c, 2, 62, 64
4, 435216, Note_off_c, 2, 65, 64
4, 435360, Note_on_c, 2, 64, 80
4, 435360, Note_on_c, 2, 60, 80
4, 435744, Note_off_c, 2, 60, 64
4, 435744, Note_off_c, 2, 64, 64
4, 436320, Note_on_c, 2, 65, 80
4, 436320, Note_on_c, 2, 62, 80
4, 436416, Note_off_c, 2, 62, 64
4, 436416, Note_off_c, 2, 65, 64
4, 436560, Note_on_c, 2, 60, 80
4, 436560, Note_on_c, 2, 64, 80
4, 436656, Note_off_c, 2, 64, 64
4, 436680, Note_off_c, 2, 60, 64
4, 436680, Note_on_c, 2, 62, 80
4, 436680, Note_on_c, 2, 65, 80
4, 436800, Note_off_c, 2, 65, 64
4, 436800, Note_off_c, 2, 62, 64
4, 436800, Note_on_c, 2, 67, 80
4, 436800, Note_on_c, 2, 64, 80
4, 436896, Note_off_c, 2, 64, 64
4, 436896, Note_off_c, 2, 67, 64
4, 437040, Note_on_c, 2, 62, 80
4, 437040, Note_on_c, 2, 65, 80
4, 437136, Note_off_c, 2, 65, 64
4, 437136, Note_off_c, 2, 62, 64
4, 437280, Note_on_c, 2, 76, 60
4, 437280, Note_on_c, 2, 72, 60
4, 437376, Note_off_c, 2, 72, 64
4, 437376, Note_off_c, 2, 76, 64
4, 437520, Note_on_c, 2, 62, 60
4, 437520, Note_on_c, 2, 74, 60
4, 437640, Note_off_c, 2, 74, 64
4, 437640, Note_off_c, 2, 62, 64
4, 437640, Note_on_c, 2, 64, 60
4, 437640, Note_on_c, 2, 76, 60
4, 437760, Note_off_c, 2, 76, 64
4, 437760, Note_off_c, 2, 64, 64
4, 437760, Note_on_c, 2, 77, 100
4, 437760, Note_on_c, 2, 65, 60
4, 437856, Note_off_c, 2, 65, 64
4, 437856, Note_off_c, 2, 77, 64
4, 438000, Note_on_c, 2, 76, 60
4, 438000, Note_on_c, 2, 64, 60
4, 438096, Note_off_c, 2, 76, 64
4, 438120, Note_off_c, 2, 64, 64
4, 438240, Note_on_c, 2, 62, 60
4, 438240, Note_on_c, 2, 74, 60
4, 438336, Note_off_c, 2, 74, 64
4, 438336, Note_off_c, 2, 62, 64
4, 438480, Note_on_c, 2, 72, 60
4, 438600, Note_off_c, 2, 72, 64
4, 438600, Note_on_c, 2, 74, 60
4, 438720, Note_off_c, 2, 74, 64
4, 438720, Note_on_c, 2, 76, 100
4, 438816, Note_off_c, 2, 76, 64
4, 438960, Note_on_c, 2, 74, 60
4, 439056, Note_off_c, 2, 74, 64
4, 439200, Note_on_c, 2, 72, 60
4, 439296, Note_off_c, 2, 72, 64
4, 439440, Note_on_c, 2, 71, 60
4, 439560, Note_off_c, 2, 71, 64
4, 439560, Note_on_c, 2, 72, 60
4, 439680, Note_off_c, 2, 72, 64
4, 439680, Note_on_c, 2, 74, 100
4, 439776, Note_off_c, 2, 74, 64
4, 439920, Note_on_c, 2, 72, 60
4, 440016, Note_off_c, 2, 72, 64
4, 440160, Note_on_c, 2, 71, 60
4, 440256, Note_off_c, 2, 71, 64
4, 440400, Note_on_c, 2, 69, 60
4, 440520, Note_off_c, 2, 69, 64
4, 440520, Note_on_c, 2, 71, 60
4, 440640, Note_off_c, 2, 71, 64
4, 440640, Note_on_c, 2, 72, 100
4, 440736, Note_off_c, 2, 72, 64
4, 440880, Note_on_c, 2, 71, 60
4, 440976, Note_off_c, 2, 71, 64
4, 441120, Note_on_c, 2, 69, 60
4, 441216, Note_off_c, 2, 69, 64
4, 441360, Note_on_c, 2, 67, 60
4, 441480, Note_off_c, 2, 67, 64
4, 441480, Note_on_c, 2, 69, 60
4, 441600, Note_off_c, 2, 69, 64
4, 441600, Note_on_c, 2, 71, 100
4, 441696, Note_off_c, 2, 71, 64
4, 441840, Note_on_c, 2, 69, 60
4, 441936, Note_off_c, 2, 69, 64
4, 442080, Note_on_c, 2, 67, 60
4, 442176, Note_off_c, 2, 67, 64
4, 442320, Note_on_c, 2, 77, 60
4, 442440, Note_off_c, 2, 77, 64
4, 442440, Note_on_c, 2, 79, 60
4, 442560, Note_off_c, 2, 79, 64
4, 442560, Note_on_c, 2, 81, 100
4, 442656, Note_off_c, 2, 81, 64
4, 442800, Note_on_c, 2, 79, 60
4, 442896, Note_off_c, 2, 79, 64
4, 443040, Note_on_c, 2, 77, 64
4, 443040, Note_on_c, 2, 65, 64
4, 443136, Note_off_c, 2, 65, 64
4, 443136, Note_off_c, 2, 77, 64
4, 443280, Note_on_c, 2, 79, 64
4, 443280, Note_on_c, 2, 74, 64
4, 443376, Note_off_c, 2, 74, 64
4, 443376, Note_off_c, 2, 79, 64
4, 443520, Note_on_c, 2, 72, 64
4, 443520, Note_on_c, 2, 76, 64
4, 443616, Note_off_c, 2, 76, 64
4, 443616, Note_off_c, 2, 72, 64
4, 443760, Note_on_c, 2, 72, 64
4, 443760, Note_on_c, 2, 64, 64
4, 443856, Note_off_c, 2, 64, 64
4, 443856, Note_off_c, 2, 72, 64
4, 444000, Note_on_c, 2, 72, 64
4, 444000, Note_on_c, 2, 64, 64
4, 444096, Note_off_c, 2, 64, 64
4, 444096, Note_off_c, 2, 72, 64
4, 444240, Note_on_c, 2, 62, 64
4, 444240, Note_on_c, 2, 71, 64
4, 444336, Note_off_c, 2, 71, 64
4, 444336, Note_off_c, 2, 62, 64
4, 444480, Note_on_c, 2, 72, 64
4, 444480, Note_on_c, 2, 64, 64
4, 444576, Note_off_c, 2, 64, 64
4, 444576, Note_off_c, 2, 72, 64
4, 444720, Note_on_c, 2, 64, 64
4, 444720, Note_on_c, 2, 72, 64
4, 444816, Note_off_c, 2, 72, 64
4, 444816, Note_off_c, 2, 64, 64
4, 444960, Note_on_c, 2, 74, 67
4, 445056, Note_off_c, 2, 74, 64
4, 445200, Note_on_c, 2, 72, 27
4, 445272, Note_off_c, 2, 72, 64
4, 445380, Note_on_c, 2, 76, 27
4, 445440, Note_off_c, 2, 76, 64
4, 445440, Note_on_c, 2, 74, 67
4, 445536, Note_off_c, 2, 74, 64
4, 445680, Note_on_c, 2, 72, 27
4, 445752, Note_off_c, 2, 72, 64
4, 445860, Note_on_c, 2, 76, 27
4, 445920, Note_off_c, 2, 76, 64
4, 445920, Note_on_c, 2, 74, 67
4, 446016, Note_off_c, 2, 74, 64
4, 446160, Note_on_c, 2, 72, 27
4, 446232, Note_off_c, 2, 72, 64
4, 446640, Note_on_c, 2, 74, 27
4, 446712, Note_off_c, 2, 74, 64
4, 446820, Note_on_c, 2, 77, 27
4, 446880, Note_off_c, 2, 77, 64
4, 446880, Note_on_c, 2, 76, 67
4, 446976, Note_off_c, 2, 76, 64
4, 447120, Note_on_c, 2, 74, 27
4, 447192, Note_off_c, 2, 74, 64
4, 447300, Note_on_c, 2, 77, 27
4, 447360, Note_off_c, 2, 77, 64
4, 447360, Note_on_c, 2, 76, 67
4, 447456, Note_off_c, 2, 76, 64
4, 447600, Note_on_c, 2, 74, 27
4, 447672, Note_off_c, 2, 74, 64
4, 447780, Note_on_c, 2, 77, 27
4, 447840, Note_off_c, 2, 77, 64
4, 447840, Note_on_c, 2, 76, 67
4, 447936, Note_off_c, 2, 76, 64
4, 448080, Note_on_c, 2, 74, 27
4, 448152, Note_off_c, 2, 74, 64
4, 448560, Note_on_c, 2, 76, 27
4, 448632, Note_off_c, 2, 76, 64
4, 448740, Note_on_c, 2, 79, 27
4, 448800, Note_off_c, 2, 79, 64
4, 448800, Note_on_c, 2, 77, 67
4, 448896, Note_off_c, 2, 77, 64
4, 449040, Note_on_c, 2, 76, 27
4, 449112, Note_off_c, 2, 76, 64
4, 449220, Note_on_c, 2, 79, 27
4, 449280, Note_off_c, 2, 79, 64
4, 449280, Note_on_c, 2, 77, 67
4, 449376, Note_off_c, 2, 77, 64
4, 449520, Note_on_c, 2, 76, 27
4, 449592, Note_off_c, 2, 76, 64
4, 449700, Note_on_c, 2, 79, 27
4, 449760, Note_off_c, 2, 79, 64
4, 449760, Note_on_c, 2, 77, 67
4, 449856, Note_off_c, 2, 77, 64
4, 450000, Note_on_c, 2, 76, 27
4, 450072, Note_off_c, 2, 76, 64
4, 450180, Note_on_c, 2, 79, 27
4, 450240, Note_off_c, 2, 79, 64
4, 450240, Note_on_c, 2, 77, 67
4, 450336, Note_off_c, 2, 77, 64
4, 450480, Note_on_c, 2, 78, 27
4, 450552, Note_off_c, 2, 78, 64
4, 450720, Note_on_c, 2, 64, 71
4, 450720, Note_on_c, 2, 79, 71
4, 450840, Note_off_c, 2, 64, 64
4, 450912, Note_off_c, 2, 79, 64
4, 451200, Note_on_c, 2, 69, 71
4, 451200, Note_on_c, 2, 84, 91
4, 451392, Note_off_c, 2, 84, 64
4, 451392, Note_off_c, 2, 69, 64
4, 451680, Note_on_c, 2, 74, 71
4, 451872, Note_off_c, 2, 74, 64
4, 452160, Note_on_c, 2, 79, 91
4, 452160, Note_on_c, 2, 67, 71
4, 452352, Note_off_c, 2, 67, 64
4, 452352, Note_off_c, 2, 79, 64
4, 453120, Note_on_c, 2, 60, 30
4, 453408, Note_off_c, 2, 60, 64
4, 454080, Note_on_c, 2, 65, 30
4, 454080, Note_on_c, 2, 59, 30
4, 454368, Note_off_c, 2, 59, 64
4, 454368, Note_off_c, 2, 65, 64
4, 455040, Note_on_c, 2, 64, 30
4, 455040, Note_on_c, 2, 60, 30
4, 455280, Note_off_c, 2, 64, 64
4, 455328, Note_off_c, 2, 60, 64
4, 456000, Note_on_c, 2, 60, 30
4, 456000, Note_on_c, 2, 69, 30
4, 456288, Note_off_c, 2, 69, 64
4, 456288, Note_off_c, 2, 60, 64
4, 456960, Note_on_c, 2, 60, 30
4, 456960, Note_on_c, 2, 67, 30
4, 457248, Note_off_c, 2, 67, 64
4, 457248, Note_off_c, 2, 60, 64
4, 457920, Note_on_c, 2, 59, 30
4, 457920, Note_on_c, 2, 67, 30
4, 458208, Note_off_c, 2, 67, 64
4, 458208, Note_off_c, 2, 59, 64
4, 458880, Note_on_c, 2, 60, 30
4, 458880, Note_on_c, 2, 67, 30
4, 459168, Note_off_c, 2, 67, 64
4, 459168, Note_off_c, 2, 60, 64
4, 459840, Note_on_c, 2, 69, 30
4, 459840, Note_on_c, 2, 60, 30
4, 460128, Note_off_c, 2, 60, 64
4, 460128, Note_off_c, 2, 69, 64
4, 460320, Note_on_c, 2, 67, 44
4, 460320, Note_on_c, 2, 60, 44
4, 460512, Note_off_c, 2, 60, 64
4, 460512, Note_off_c, 2, 67, 64
4, 460800, Note_on_c, 2, 65, 44
4, 460992, Note_off_c, 2, 65, 64
4, 461280, Note_on_c, 2, 64, 44
4, 461440, Note_off_c, 2, 64, 64
4, 461760, Note_on_c, 2, 71, 44
4, 461952, Note_off_c, 2, 71, 64
4, 462240, Note_on_c, 2, 72, 44
4, 462432, Note_off_c, 2, 72, 64
4, 462720, Note_on_c, 2, 65, 44
4, 462912, Note_off_c, 2, 65, 64
4, 463200, Note_on_c, 2, 64, 44
4, 463392, Note_off_c, 2, 64, 64
4, 463680, Note_on_c, 2, 72, 44
4, 463872, Note_off_c, 2, 72, 64
4, 471360, Note_on_c, 2, 69, 87
4, 471360, Note_on_c, 2, 72, 87
4, 472740, Note_off_c, 2, 72, 64
4, 472740, Note_off_c, 2, 69, 64
4, 473280, Note_on_c, 2, 70, 80
4, 473280, Note_on_c, 2, 74, 80
4, 473664, Note_off_c, 2, 74, 64
4, 473664, Note_off_c, 2, 70, 64
4, 473760, Note_on_c, 2, 76, 80
4, 473760, Note_on_c, 2, 70, 80
4, 474144, Note_off_c, 2, 70, 64
4, 474144, Note_off_c, 2, 76, 64
4, 474240, Note_on_c, 2, 70, 80
4, 474240, Note_on_c, 2, 76, 80
4, 474624, Note_off_c, 2, 76, 64
4, 474624, Note_off_c, 2, 70, 64
4, 474720, Note_on_c, 2, 70, 80
4, 474720, Note_on_c, 2, 76, 80
4, 475104, Note_off_c, 2, 76, 64
4, 475104, Note_off_c, 2, 70, 64
4, 475200, Note_on_c, 2, 70, 80
4, 475200, Note_on_c, 2, 76, 80
4, 475584, Note_off_c, 2, 76, 64
4, 475584, Note_off_c, 2, 70, 64
4, 475680, Note_on_c, 2, 69, 80
4, 475680, Note_on_c, 2, 72, 80
4, 476832, Note_off_c, 2, 72, 64
4, 476832, Note_off_c, 2, 69, 64
4, 477120, Note_on_c, 2, 74, 80
4, 477120, Note_on_c, 2, 70, 80
4, 477504, Note_off_c, 2, 70, 64
4, 477504, Note_off_c, 2, 74, 64
4, 477600, Note_on_c, 2, 76, 80
4, 477600, Note_on_c, 2, 70, 80
4, 477984, Note_off_c, 2, 70, 64
4, 477984, Note_off_c, 2, 76, 64
4, 478080, Note_on_c, 2, 70, 80
4, 478080, Note_on_c, 2, 76, 80
4, 478464, Note_off_c, 2, 76, 64
4, 478464, Note_off_c, 2, 70, 64
4, 478560, Note_on_c, 2, 69, 80
4, 478560, Note_on_c, 2, 72, 80
4, 478656, Note_off_c, 2, 72, 64
4, 478656, Note_off_c, 2, 69, 64
4, 478800, Note_on_c, 2, 69, 80
4, 478800, Note_on_c, 2, 72, 80
4, 478896, Note_off_c, 2, 72, 64
4, 478896, Note_off_c, 2, 69, 64
4, 479040, Note_on_c, 2, 69, 80
4, 479040, Note_on_c, 2, 74, 80
4, 479136, Note_off_c, 2, 74, 64
4, 479136, Note_off_c, 2, 69, 64
4, 479280, Note_on_c, 2, 72, 80
4, 479280, Note_on_c, 2, 69, 80
4, 479376, Note_off_c, 2, 69, 64
4, 479376, Note_off_c, 2, 72, 64
4, 479520, Note_on_c, 2, 67, 80
4, 479520, Note_on_c, 2, 71, 80
4, 479904, Note_off_c, 2, 71, 64
4, 479904, Note_off_c, 2, 67, 64
4, 480480, Note_on_c, 2, 67, 80
4, 480480, Note_on_c, 2, 79, 80
4, 481248, Note_off_c, 2, 79, 64
4, 481248, Note_off_c, 2, 67, 64
4, 481440, Note_on_c, 2, 76, 62
4, 481680, Note_off_c, 2, 76, 64
4, 481680, Note_on_c, 2, 77, 62
4, 481800, Note_off_c, 2, 77, 64
4, 481800, Note_on_c, 2, 79, 62
4, 481920, Note_off_c, 2, 79, 64
4, 481920, Note_on_c, 2, 81, 82
4, 482016, Note_off_c, 2, 81, 64
4, 482160, Note_on_c, 2, 81, 62
4, 482256, Note_off_c, 2, 81, 64
4, 482400, Note_on_c, 2, 74, 62
4, 482640, Note_off_c, 2, 74, 64
4, 482640, Note_on_c, 2, 76, 62
4, 482760, Note_off_c, 2, 76, 64
4, 482760, Note_on_c, 2, 77, 62
4, 482880, Note_off_c, 2, 77, 64
4, 482880, Note_on_c, 2, 79, 82
4, 482976, Note_off_c, 2, 79, 64
4, 483120, Note_on_c, 2, 67, 62
4, 483216, Note_off_c, 2, 67, 64
4, 483360, Note_on_c, 2, 72, 62
4, 483600, Note_off_c, 2, 72, 64
4, 483600, Note_on_c, 2, 74, 62
4, 483720, Note_off_c, 2, 74, 64
4, 483720, Note_on_c, 2, 76, 62
4, 483840, Note_off_c, 2, 76, 64
4, 483840, Note_on_c, 2, 77, 82
4, 483936, Note_off_c, 2, 77, 64
4, 484080, Note_on_c, 2, 77, 62
4, 484176, Note_off_c, 2, 77, 64
4, 484320, Note_on_c, 2, 71, 62
4, 484560, Note_off_c, 2, 71, 64
4, 484560, Note_on_c, 2, 72, 62
4, 484680, Note_off_c, 2, 72, 64
4, 484680, Note_on_c, 2, 74, 62
4, 484800, Note_off_c, 2, 74, 64
4, 484800, Note_on_c, 2, 76, 82
4, 484896, Note_off_c, 2, 76, 64
4, 485040, Note_on_c, 2, 64, 62
4, 485160, Note_off_c, 2, 64, 64
4, 485280, Note_on_c, 2, 69, 62
4, 485520, Note_off_c, 2, 69, 64
4, 485520, Note_on_c, 2, 71, 62
4, 485640, Note_off_c, 2, 71, 64
4, 485640, Note_on_c, 2, 72, 62
4, 485760, Note_off_c, 2, 72, 64
4, 485760, Note_on_c, 2, 74, 82
4, 485856, Note_off_c, 2, 74, 64
4, 486000, Note_on_c, 2, 74, 62
4, 486096, Note_off_c, 2, 74, 64
4, 486240, Note_on_c, 2, 67, 62
4, 486480, Note_off_c, 2, 67, 64
4, 486480, Note_on_c, 2, 69, 62
4, 486600, Note_off_c, 2, 69, 64
4, 486600, Note_on_c, 2, 71, 62
4, 486720, Note_off_c, 2, 71, 64
4, 486720, Note_on_c, 2, 72, 62
4, 486960, Note_off_c, 2, 72, 64
4, 486960, Note_on_c, 2, 74, 62
4, 487080, Note_off_c, 2, 74, 64
4, 487080, Note_on_c, 2, 76, 62
4, 487200, Note_off_c, 2, 76, 64
4, 487200, Note_on_c, 2, 77, 62
4, 487200, Note_on_c, 2, 74, 62
4, 487296, Note_off_c, 2, 74, 64
4, 487296, Note_off_c, 2, 77, 64
4, 487440, Note_on_c, 2, 76, 62
4, 487440, Note_on_c, 2, 72, 62
4, 487536, Note_off_c, 2, 72, 64
4, 487536, Note_off_c, 2, 76, 64
4, 487560, Note_on_c, 2, 74, 62
4, 487560, Note_on_c, 2, 77, 62
4, 487656, Note_off_c, 2, 77, 64
4, 487656, Note_off_c, 2, 74, 64
4, 487680, Note_on_c, 2, 76, 62
4, 487680, Note_on_c, 2, 79, 82
4, 487776, Note_off_c, 2, 79, 64
4, 487776, Note_off_c, 2, 76, 64
4, 487920, Note_on_c, 2, 74, 62
4, 487920, Note_on_c, 2, 77, 62
4, 488016, Note_off_c, 2, 77, 64
4, 488016, Note_off_c, 2, 74, 64
4, 488160, Note_on_c, 2, 76, 62
4, 488160, Note_on_c, 2, 72, 62
4, 488256, Note_off_c, 2, 72, 64
4, 488256, Note_off_c, 2, 76, 64
4, 489120, Note_on_c, 2, 77, 62
4, 489120, Note_on_c, 2, 74, 62
4, 489216, Note_off_c, 2, 74, 64
4, 489216, Note_off_c, 2, 77, 64
4, 489360, Note_on_c, 2, 72, 62
4, 489360, Note_on_c, 2, 76, 62
4, 489456, Note_off_c, 2, 76, 64
4, 489456, Note_off_c, 2, 72, 64
4, 489480, Note_on_c, 2, 77, 62
4, 489480, Note_on_c, 2, 74, 62
4, 489576, Note_off_c, 2, 74, 64
4, 489576, Note_off_c, 2, 77, 64
4, 489600, Note_on_c, 2, 76, 62
4, 489600, Note_on_c, 2, 79, 82
4, 489696, Note_off_c, 2, 79, 64
4, 489696, Note_off_c, 2, 76, 64
4, 489840, Note_on_c, 2, 77, 62
4, 489840, Note_on_c, 2, 74, 62
4, 489936, Note_off_c, 2, 74, 64
4, 489936, Note_off_c, 2, 77, 64
4, 490080, Note_on_c, 2, 72, 62
4, 490080, Note_on_c, 2, 76, 62
4, 490176, Note_off_c, 2, 76, 64
4, 490176, Note_off_c, 2, 72, 64
4, 491040, Note_on_c, 2, 77, 62
4, 491040, Note_on_c, 2, 74, 62
4, 491136, Note_off_c, 2, 74, 64
4, 491136, Note_off_c, 2, 77, 64
4, 491280, Note_on_c, 2, 76, 62
4, 491280, Note_on_c, 2, 72, 62
4, 491376, Note_off_c, 2, 72, 64
4, 491376, Note_off_c, 2, 76, 64
4, 491400, Note_on_c, 2, 74, 62
4, 491400, Note_on_c, 2, 77, 62
4, 491496, Note_off_c, 2, 77, 64
4, 491496, Note_off_c, 2, 74, 64
4, 491520, Note_on_c, 2, 79, 82
4, 491520, Note_on_c, 2, 76, 62
4, 491616, Note_off_c, 2, 76, 64
4, 491616, Note_off_c, 2, 79, 64
4, 491760, Note_on_c, 2, 77, 62
4, 491760, Note_on_c, 2, 74, 62
4, 491856, Note_off_c, 2, 74, 64
4, 491856, Note_off_c, 2, 77, 64
4, 492000, Note_on_c, 2, 76, 62
4, 492000, Note_on_c, 2, 72, 62
4, 492096, Note_off_c, 2, 72, 64
4, 492096, Note_off_c, 2, 76, 64
4, 492240, Note_on_c, 2, 74, 62
4, 492240, Note_on_c, 2, 71, 62
4, 492336, Note_off_c, 2, 71, 64
4, 492336, Note_off_c, 2, 74, 64
4, 492360, Note_on_c, 2, 72, 62
4, 492360, Note_on_c, 2, 76, 62
4, 492456, Note_off_c, 2, 76, 64
4, 492456, Note_off_c, 2, 72, 64
4, 492480, Note_on_c, 2, 77, 82
4, 492480, Note_on_c, 2, 74, 62
4, 492576, Note_off_c, 2, 74, 64
4, 492576, Note_off_c, 2, 77, 64
4, 492720, Note_on_c, 2, 76, 62
4, 492720, Note_on_c, 2, 72, 62
4, 492816, Note_off_c, 2, 72, 64
4, 492816, Note_off_c, 2, 76, 64
4, 492960, Note_on_c, 2, 74, 62
4, 492960, Note_on_c, 2, 77, 62
4, 493056, Note_off_c, 2, 77, 64
4, 493056, Note_off_c, 2, 74, 64
4, 493200, Note_on_c, 2, 72, 62
4, 493200, Note_on_c, 2, 76, 62
4, 493296, Note_off_c, 2, 76, 64
4, 493296, Note_off_c, 2, 72, 64
4, 493320, Note_on_c, 2, 74, 62
4, 493320, Note_on_c, 2, 77, 62
4, 493416, Note_off_c, 2, 77, 64
4, 493416, Note_off_c, 2, 74, 64
4, 493440, Note_on_c, 2, 76, 62
4, 493440, Note_on_c, 2, 79, 82
4, 493536, Note_off_c, 2, 79, 64
4, 493536, Note_off_c, 2, 76, 64
4, 493680, Note_on_c, 2, 77, 62
4, 493680, Note_on_c, 2, 74, 62
4, 493776, Note_off_c, 2, 74, 64
4, 493776, Note_off_c, 2, 77, 64
4, 493920, Note_on_c, 2, 76, 69
4, 493920, Note_on_c, 2, 72, 69
4, 494016, Note_off_c, 2, 72, 64
4, 494016, Note_off_c, 2, 76, 64
4, 494160, Note_on_c, 2, 64, 69
4, 494160, Note_on_c, 2, 67, 69
4, 494256, Note_off_c, 2, 67, 64
4, 494256, Note_off_c, 2, 64, 64
4, 494400, Note_on_c, 2, 67, 69
4, 494400, Note_on_c, 2, 64, 69
4, 494496, Note_off_c, 2, 64, 64
4, 494496, Note_off_c, 2, 67, 64
4, 494640, Note_on_c, 2, 65, 69
4, 494640, Note_on_c, 2, 62, 69
4, 494736, Note_off_c, 2, 62, 64
4, 494736, Note_off_c, 2, 65, 64
4, 494880, Note_on_c, 2, 64, 69
4, 494880, Note_on_c, 2, 60, 69
4, 494976, Note_off_c, 2, 60, 64
4, 494976, Note_off_c, 2, 64, 64
4, 495120, Note_on_c, 2, 67, 69
4, 495120, Note_on_c, 2, 64, 69
4, 495216, Note_off_c, 2, 64, 64
4, 495216, Note_off_c, 2, 67, 64
4, 495360, Note_on_c, 2, 67, 69
4, 495360, Note_on_c, 2, 64, 69
4, 495456, Note_off_c, 2, 64, 64
4, 495456, Note_off_c, 2, 67, 64
4, 495600, Note_on_c, 2, 65, 69
4, 495600, Note_on_c, 2, 62, 69
4, 495696, Note_off_c, 2, 62, 64
4, 495696, Note_off_c, 2, 65, 64
4, 495840, Note_on_c, 2, 64, 69
4, 495840, Note_on_c, 2, 60, 69
4, 495936, Note_off_c, 2, 60, 64
4, 495936, Note_off_c, 2, 64, 64
4, 496080, Note_on_c, 2, 67, 69
4, 496080, Note_on_c, 2, 64, 69
4, 496176, Note_off_c, 2, 64, 64
4, 496176, Note_off_c, 2, 67, 64
4, 496320, Note_on_c, 2, 64, 69
4, 496320, Note_on_c, 2, 67, 69
4, 496416, Note_off_c, 2, 67, 64
4, 496416, Note_off_c, 2, 64, 64
4, 496560, Note_on_c, 2, 62, 69
4, 496560, Note_on_c, 2, 65, 69
4, 496656, Note_off_c, 2, 65, 64
4, 496656, Note_off_c, 2, 62, 64
4, 496800, Note_on_c, 2, 64, 69
4, 496800, Note_on_c, 2, 60, 69
4, 496896, Note_off_c, 2, 60, 64
4, 496896, Note_off_c, 2, 64, 64
4, 497040, Note_on_c, 2, 67, 69
4, 497040, Note_on_c, 2, 64, 69
4, 497136, Note_off_c, 2, 64, 64
4, 497136, Note_off_c, 2, 67, 64
4, 497280, Note_on_c, 2, 67, 69
4, 497280, Note_on_c, 2, 64, 69
4, 497376, Note_off_c, 2, 64, 64
4, 497376, Note_off_c, 2, 67, 64
4, 497520, Note_on_c, 2, 65, 69
4, 497520, Note_on_c, 2, 62, 69
4, 497616, Note_off_c, 2, 62, 64
4, 497616, Note_off_c, 2, 65, 64
4, 497760, Note_on_c, 2, 64, 69
4, 497760, Note_on_c, 2, 60, 69
4, 497856, Note_off_c, 2, 60, 64
4, 497856, Note_off_c, 2, 64, 64
4, 498000, Note_on_c, 2, 64, 69
4, 498000, Note_on_c, 2, 67, 69
4, 498096, Note_off_c, 2, 67, 64
4, 498096, Note_off_c, 2, 64, 64
4, 498240, Note_on_c, 2, 67, 69
4, 498240, Note_on_c, 2, 64, 69
4, 498336, Note_off_c, 2, 64, 64
4, 498336, Note_off_c, 2, 67, 64
4, 498480, Note_on_c, 2, 65, 69
4, 498480, Note_on_c, 2, 62, 69
4, 498576, Note_off_c, 2, 62, 64
4, 498576, Note_off_c, 2, 65, 64
4, 498720, Note_on_c, 2, 60, 80
4, 498720, Note_on_c, 2, 64, 80
4, 498816, Note_off_c, 2, 64, 64
4, 498840, Note_off_c, 2, 60, 64
4, 498840, Note_on_c, 2, 60, 99
4, 498960, Note_off_c, 2, 60, 64
4, 498960, Note_on_c, 2, 62, 99
4, 499080, Note_off_c, 2, 62, 64
4, 499080, Note_on_c, 2, 64, 99
4, 499200, Note_off_c, 2, 64, 64
4, 499200, Note_on_c, 2, 65, 99
4, 499320, Note_off_c, 2, 65, 64
4, 499320, Note_on_c, 2, 67, 99
4, 499440, Note_off_c, 2, 67, 64
4, 499440, Note_on_c, 2, 69, 99
4, 499560, Note_off_c, 2, 69, 64
4, 499560, Note_on_c, 2, 71, 99
4, 499680, Note_off_c, 2, 71, 64
4, 499680, Note_on_c, 2, 72, 99
4, 500736, Note_off_c, 2, 72, 64
4, 500760, Note_on_c, 2, 64, 99
4, 500880, Note_off_c, 2, 64, 64
4, 500880, Note_on_c, 2, 65, 99
4, 501000, Note_off_c, 2, 65, 64
4, 501000, Note_on_c, 2, 67, 99
4, 501120, Note_off_c, 2, 67, 64
4, 501120, Note_on_c, 2, 69, 99
4, 501240, Note_off_c, 2, 69, 64
4, 501240, Note_on_c, 2, 71, 99
4, 501360, Note_off_c, 2, 71, 64
4, 501360, Note_on_c, 2, 72, 99
4, 501480, Note_off_c, 2, 72, 64
4, 501480, Note_on_c, 2, 74, 99
4, 501600, Note_off_c, 2, 74, 64
4, 501600, Note_on_c, 2, 76, 99
4, 501720, Note_off_c, 2, 76, 64
4, 501720, Note_on_c, 2, 67, 99
4, 501840, Note_off_c, 2, 67, 64
4, 501840, Note_on_c, 2, 69, 99
4, 501960, Note_off_c, 2, 69, 64
4, 501960, Note_on_c, 2, 71, 99
4, 502080, Note_off_c, 2, 71, 64
4, 502080, Note_on_c, 2, 72, 99
4, 502200, Note_off_c, 2, 72, 64
4, 502200, Note_on_c, 2, 74, 99
4, 502320, Note_off_c, 2, 74, 64
4, 502320, Note_on_c, 2, 76, 99
4, 502440, Note_off_c, 2, 76, 64
4, 502440, Note_on_c, 2, 77, 99
4, 502560, Note_off_c, 2, 77, 64
4, 502560, Note_on_c, 2, 79, 127
4, 502656, Note_off_c, 2, 79, 64
4, 502800, Note_on_c, 2, 76, 74
4, 502896, Note_off_c, 2, 76, 64
4, 503040, Note_on_c, 2, 79, 114
4, 503136, Note_off_c, 2, 79, 64
4, 503280, Note_on_c, 2, 71, 74
4, 503376, Note_off_c, 2, 71, 64
4, 503520, Note_on_c, 2, 72, 114
4, 503616, Note_off_c, 2, 72, 64
4, 503760, Note_on_c, 2, 76, 74
4, 503856, Note_off_c, 2, 76, 64
4, 504000, Note_on_c, 2, 66, 114
4, 504096, Note_off_c, 2, 66, 64
4, 504240, Note_on_c, 2, 67, 74
4, 504336, Note_off_c, 2, 67, 64
4, 504480, Note_on_c, 2, 72, 114
4, 504576, Note_off_c, 2, 72, 64
4, 504720, Note_on_c, 2, 63, 74
4, 504816, Note_off_c, 2, 63, 64
4, 504960, Note_on_c, 2, 64, 114
4, 505056, Note_off_c, 2, 64, 64
4, 505200, Note_on_c, 2, 67, 74
4, 505296, Note_off_c, 2, 67, 64
4, 505440, Note_on_c, 2, 60, 114
4, 505536, Note_off_c, 2, 60, 64
4, 505680, Note_on_c, 2, 64, 74
4, 505776, Note_off_c, 2, 64, 64
4, 505920, Note_on_c, 2, 59, 114
4, 506016, Note_off_c, 2, 59, 64
4, 506160, Note_on_c, 2, 60, 74
4, 506256, Note_off_c, 2, 60, 64
4, 506400, Note_on_c, 2, 72, 80
4, 506400, Note_on_c, 2, 60, 80
4, 508282, Note_off_c, 2, 60, 64
4, 508282, Note_off_c, 2, 72, 64
4, 508320, Note_on_c, 2, 72, 31
4, 508320, Note_on_c, 2, 76, 71
4, 508416, Note_off_c, 2, 76, 64
4, 508416, Note_off_c, 2, 72, 64
4, 508560, Note_on_c, 2, 71, 31
4, 508560, Note_on_c, 2, 74, 31
4, 508656, Note_off_c, 2, 74, 64
4, 508656, Note_off_c, 2, 71, 64
4, 508680, Note_on_c, 2, 76, 31
4, 508680, Note_on_c, 2, 72, 31
4, 508776, Note_off_c, 2, 72, 64
4, 508776, Note_off_c, 2, 76, 64
4, 508800, Note_on_c, 2, 77, 51
4, 508800, Note_on_c, 2, 74, 31
4, 508896, Note_off_c, 2, 74, 64
4, 508896, Note_off_c, 2, 77, 64
4, 509040, Note_on_c, 2, 72, 31
4, 509040, Note_on_c, 2, 76, 31
4, 509136, Note_off_c, 2, 76, 64
4, 509136, Note_off_c, 2, 72, 64
4, 509280, Note_on_c, 2, 72, 31
4, 509280, Note_on_c, 2, 76, 31
4, 509376, Note_off_c, 2, 76, 64
4, 509376, Note_off_c, 2, 72, 64
4, 509520, Note_on_c, 2, 74, 31
4, 509520, Note_on_c, 2, 71, 31
4, 509616, Note_off_c, 2, 71, 64
4, 509616, Note_off_c, 2, 74, 64
4, 509640, Note_on_c, 2, 72, 31
4, 509640, Note_on_c, 2, 76, 31
4, 509736, Note_off_c, 2, 76, 64
4, 509736, Note_off_c, 2, 72, 64
4, 509760, Note_on_c, 2, 77, 51
4, 509760, Note_on_c, 2, 74, 31
4, 509856, Note_off_c, 2, 74, 64
4, 509856, Note_off_c, 2, 77, 64
4, 510000, Note_on_c, 2, 76, 31
4, 510000, Note_on_c, 2, 72, 31
4, 510096, Note_off_c, 2, 72, 64
4, 510096, Note_off_c, 2, 76, 64
4, 510240, Note_on_c, 2, 60, 80
4, 510244, Control_c, 2, 7, 91
4, 510344, Control_c, 2, 7, 90
4, 510444, Control_c, 2, 7, 89
4, 510544, Control_c, 2, 7, 88
4, 510644, Control_c, 2, 7, 87
4, 510724, Control_c, 2, 7, 86
4, 510824, Control_c, 2, 7, 85
4, 510924, Control_c, 2, 7, 84
4, 511024, Control_c, 2, 7, 83
4, 511124, Control_c, 2, 7, 82
4, 511200, Note_off_c, 2, 60, 64
4, 511200, Note_on_c, 2, 60, 64
4, 511200, Note_on_c, 2, 65, 64
4, 511204, Control_c, 2, 7, 81
4, 511304, Control_c, 2, 7, 80
4, 511404, Control_c, 2, 7, 79
4, 511504, Control_c, 2, 7, 78
4, 511584, Control_c, 2, 7, 77
4, 511684, Control_c, 2, 7, 76
4, 511784, Control_c, 2, 7, 75
4, 511884, Control_c, 2, 7, 74
4, 511984, Control_c, 2, 7, 73
4, 512064, Control_c, 2, 7, 72
4, 512160, Note_off_c, 2, 65, 64
4, 512160, Note_off_c, 2, 60, 64
4, 512160, Note_on_c, 2, 62, 64
4, 512160, Note_on_c, 2, 65, 64
4, 512164, Control_c, 2, 7, 71
4, 512264, Control_c, 2, 7, 70
4, 512364, Control_c, 2, 7, 69
4, 512464, Control_c, 2, 7, 68
4, 512544, Control_c, 2, 7, 67
4, 512644, Control_c, 2, 7, 66
4, 512744, Control_c, 2, 7, 65
4, 512844, Control_c, 2, 7, 64
4, 512924, Control_c, 2, 7, 63
4, 513024, Control_c, 2, 7, 62
4, 513124, Control_c, 2, 7, 61
4, 513224, Control_c, 2, 7, 60
4, 513324, Control_c, 2, 7, 59
4, 513404, Control_c, 2, 7, 58
4, 513504, Control_c, 2, 7, 57
4, 513604, Control_c, 2, 7, 56
4, 513704, Control_c, 2, 7, 55
4, 513784, Control_c, 2, 7, 54
4, 513884, Control_c, 2, 7, 53
4, 513984, Control_c, 2, 7, 52
4, 514080, Note_off_c, 2, 65, 64
4, 514080, Note_off_c, 2, 62, 64
4, 514080, Note_on_c, 2, 63, 64
4, 514080, Note_on_c, 2, 67, 64
4, 514084, Control_c, 2, 7, 51
4, 514184, Control_c, 2, 7, 50
4, 514264, Control_c, 2, 7, 49
4, 514364, Control_c, 2, 7, 48
4, 514464, Control_c, 2, 7, 47
4, 514564, Control_c, 2, 7, 46
4, 514664, Control_c, 2, 7, 45
4, 514744, Control_c, 2, 7, 44
4, 514844, Control_c, 2, 7, 43
4, 514944, Control_c, 2, 7, 42
4, 515044, Control_c, 2, 7, 41
4, 515124, Control_c, 2, 7, 40
4, 515224, Control_c, 2, 7, 39
4, 515324, Control_c, 2, 7, 38
4, 515424, Control_c, 2, 7, 37
4, 515520, Note_off_c, 2, 67, 64
4, 515520, Note_off_c, 2, 63, 64
4, 515520, Note_on_c, 2, 65, 64
4, 515520, Note_on_c, 2, 60, 64
4, 515524, Control_c, 2, 7, 36
4, 515604, Control_c, 2, 7, 35
4, 515704, Control_c, 2, 7, 34
4, 515804, Control_c, 2, 7, 33
4, 515904, Control_c, 2, 7, 32
4, 515984, Control_c, 2, 7, 31
4, 516000, Note_off_c, 2, 60, 64
4, 516000, Note_off_c, 2, 65, 64
4, 516000, Note_on_c, 2, 66, 64
4, 516000, Note_on_c, 2, 60, 64
4, 516064, Control_c, 2, 7, 32
4, 516124, Control_c, 2, 7, 33
4, 516184, Control_c, 2, 7, 34
4, 516264, Control_c, 2, 7, 35
4, 516324, Control_c, 2, 7, 36
4, 516384, Control_c, 2, 7, 37
4, 516444, Control_c, 2, 7, 38
4, 516524, Control_c, 2, 7, 39
4, 516584, Control_c, 2, 7, 40
4, 516644, Control_c, 2, 7, 41
4, 516704, Control_c, 2, 7, 42
4, 516784, Control_c, 2, 7, 43
4, 516844, Control_c, 2, 7, 44
4, 516904, Control_c, 2, 7, 45
4, 516984, Control_c, 2, 7, 46
4, 517044, Control_c, 2, 7, 47
4, 517104, Control_c, 2, 7, 48
4, 517164, Control_c, 2, 7, 49
4, 517244, Control_c, 2, 7, 50
4, 517304, Control_c, 2, 7, 51
4, 517364, Control_c, 2, 7, 52
4, 517424, Control_c, 2, 7, 53
4, 517440, Note_off_c, 2, 60, 64
4, 517440, Note_off_c, 2, 66, 64
4, 517440, Note_on_c, 2, 60, 64
4, 517440, Note_on_c, 2, 65, 64
4, 517504, Control_c, 2, 7, 54
4, 517564, Control_c, 2, 7, 55
4, 517624, Control_c, 2, 7, 56
4, 517704, Control_c, 2, 7, 57
4, 517764, Control_c, 2, 7, 58
4, 517824, Control_c, 2, 7, 59
4, 517884, Control_c, 2, 7, 60
4, 517896, Note_off_c, 2, 65, 64
4, 517896, Note_off_c, 2, 60, 64
4, 517920, Note_on_c, 2, 65, 64
4, 517920, Note_on_c, 2, 62, 64
4, 517964, Control_c, 2, 7, 61
4, 518024, Control_c, 2, 7, 62
4, 518084, Control_c, 2, 7, 63
4, 518144, Control_c, 2, 7, 64
4, 518224, Control_c, 2, 7, 65
4, 518284, Control_c, 2, 7, 66
4, 518344, Control_c, 2, 7, 67
4, 518424, Control_c, 2, 7, 68
4, 518484, Control_c, 2, 7, 69
4, 518544, Control_c, 2, 7, 70
4, 518604, Control_c, 2, 7, 71
4, 518684, Control_c, 2, 7, 72
4, 518744, Control_c, 2, 7, 73
4, 518804, Control_c, 2, 7, 74
4, 518864, Control_c, 2, 7, 75
4, 518944, Control_c, 2, 7, 76
4, 519004, Control_c, 2, 7, 77
4, 519064, Control_c, 2, 7, 78
4, 519144, Control_c, 2, 7, 79
4, 519204, Control_c, 2, 7, 80
4, 519264, Control_c, 2, 7, 81
4, 519324, Control_c, 2, 7, 82
4, 519404, Control_c, 2, 7, 83
4, 519464, Control_c, 2, 7, 84
4, 519524, Control_c, 2, 7, 85
4, 519584, Control_c, 2, 7, 86
4, 519664, Control_c, 2, 7, 87
4, 519724, Control_c, 2, 7, 88
4, 519784, Control_c, 2, 7, 89
4, 519840, Note_off_c, 2, 62, 64
4, 519840, Note_off_c, 2, 65, 64
4, 519840, Note_on_c, 2, 62, 80
4, 519840, Note_on_c, 2, 65, 80
4, 519844, Control_c, 2, 7, 90
4, 520032, Note_off_c, 2, 65, 64
4, 520032, Note_off_c, 2, 62, 64
4, 520560, Note_on_c, 2, 62, 80
4, 520560, Note_on_c, 2, 65, 80
4, 520656, Note_off_c, 2, 65, 64
4, 520656, Note_off_c, 2, 62, 64
4, 520800, Note_on_c, 2, 60, 80
4, 520800, Note_on_c, 2, 64, 80
4, 520960, Note_off_c, 2, 64, 64
4, 520992, Note_off_c, 2, 60, 64
4, 521520, Note_on_c, 2, 60, 80
4, 521520, Note_on_c, 2, 64, 80
4, 521616, Note_off_c, 2, 64, 64
4, 521616, Note_off_c, 2, 60, 64
4, 521760, Note_on_c, 2, 62, 80
4, 521760, Note_on_c, 2, 59, 80
4, 521952, Note_off_c, 2, 59, 64
4, 521952, Note_off_c, 2, 62, 64
4, 522480, Note_on_c, 2, 59, 80
4, 522480, Note_on_c, 2, 62, 80
4, 522576, Note_off_c, 2, 62, 64
4, 522576, Note_off_c, 2, 59, 64
4, 522720, Note_on_c, 2, 60, 80
4, 522720, Note_on_c, 2, 64, 80
4, 522840, Note_off_c, 2, 64, 64
4, 522912, Note_off_c, 2, 60, 64
4, 523440, Note_on_c, 2, 60, 80
4, 523440, Note_on_c, 2, 64, 80
4, 523536, Note_off_c, 2, 64, 64
4, 523536, Note_off_c, 2, 60, 64
4, 523680, Note_on_c, 2, 62, 80
4, 523680, Note_on_c, 2, 65, 80
4, 523872, Note_off_c, 2, 65, 64
4, 523872, Note_off_c, 2, 62, 64
4, 524400, Note_on_c, 2, 65, 80
4, 524400, Note_on_c, 2, 62, 80
4, 524496, Note_off_c, 2, 62, 64
4, 524496, Note_off_c, 2, 65, 64
4, 524640, Note_on_c, 2, 60, 80
4, 524640, Note_on_c, 2, 64, 80
4, 524832, Note_off_c, 2, 64, 64
4, 524832, Note_off_c, 2, 60, 64
4, 525360, Note_on_c, 2, 64, 80
4, 525360, Note_on_c, 2, 60, 80
4, 525456, Note_off_c, 2, 60, 64
4, 525456, Note_off_c, 2, 64, 64
4, 525600, Note_on_c, 2, 62, 80
4, 525600, Note_on_c, 2, 59, 80
4, 525792, Note_off_c, 2, 59, 64
4, 525792, Note_off_c, 2, 62, 64
4, 526320, Note_on_c, 2, 62, 80
4, 526320, Note_on_c, 2, 59, 80
4, 526416, Note_off_c, 2, 59, 64
4, 526416, Note_off_c, 2, 62, 64
4, 526560, Note_on_c, 2, 64, 80
4, 526560, Note_on_c, 2, 60, 80
4, 526752, Note_off_c, 2, 60, 64
4, 526752, Note_off_c, 2, 64, 64
4, 527280, Note_on_c, 2, 64, 80
4, 527280, Note_on_c, 2, 60, 80
4, 527376, Note_off_c, 2, 60, 64
4, 527376, Note_off_c, 2, 64, 64
4, 527520, Note_on_c, 2, 62, 80
4, 527520, Note_on_c, 2, 65, 80
4, 527712, Note_off_c, 2, 65, 64
4, 527712, Note_off_c, 2, 62, 64
4, 528240, Note_on_c, 2, 65, 80
4, 528240, Note_on_c, 2, 62, 80
4, 528336, Note_off_c, 2, 62, 64
4, 528336, Note_off_c, 2, 65, 64
4, 528480, Note_on_c, 2, 60, 80
4, 528480, Note_on_c, 2, 64, 80
4, 528672, Note_off_c, 2, 64, 64
4, 528672, Note_off_c, 2, 60, 64
4, 529200, Note_on_c, 2, 64, 80
4, 529200, Note_on_c, 2, 60, 80
4, 529296, Note_off_c, 2, 60, 64
4, 529296, Note_off_c, 2, 64, 64
4, 529440, Note_on_c, 2, 62, 80
4, 529440, Note_on_c, 2, 59, 80
4, 529632, Note_off_c, 2, 59, 64
4, 529632, Note_off_c, 2, 62, 64
4, 530160, Note_on_c, 2, 62, 80
4, 530160, Note_on_c, 2, 59, 80
4, 530256, Note_off_c, 2, 59, 64
4, 530256, Note_off_c, 2, 62, 64
4, 530400, Note_on_c, 2, 60, 80
4, 530400, Note_on_c, 2, 64, 80
4, 530592, Note_off_c, 2, 64, 64
4, 530592, Note_off_c, 2, 60, 64
4, 531120, Note_on_c, 2, 60, 80
4, 531120, Note_on_c, 2, 64, 80
4, 531216, Note_off_c, 2, 64, 64
4, 531216, Note_off_c, 2, 60, 64
4, 531360, Note_on_c, 2, 62, 80
4, 531360, Note_on_c, 2, 65, 80
4, 531552, Note_off_c, 2, 65, 64
4, 531552, Note_off_c, 2, 62, 64
4, 532080, Note_on_c, 2, 62, 80
4, 532080, Note_on_c, 2, 65, 80
4, 532176, Note_off_c, 2, 65, 64
4, 532176, Note_off_c, 2, 62, 64
4, 532320, Note_on_c, 2, 60, 80
4, 532320, Note_on_c, 2, 64, 80
4, 532512, Note_off_c, 2, 64, 64
4, 532512, Note_off_c, 2, 60, 64
4, 533040, Note_on_c, 2, 64, 80
4, 533040, Note_on_c, 2, 60, 80
4, 533136, Note_off_c, 2, 60, 64
4, 533136, Note_off_c, 2, 64, 64
4, 533280, Note_on_c, 2, 64, 80
4, 533280, Note_on_c, 2, 60, 80
4, 533472, Note_off_c, 2, 60, 64
4, 533472, Note_off_c, 2, 64, 64
4, 534000, Note_on_c, 2, 64, 80
4, 534096, Note_off_c, 2, 64, 64
4, 534240, Note_on_c, 2, 64, 80
4, 534432, Note_off_c, 2, 64, 64
4, 534960, Note_on_c, 2, 67, 80
4, 534960, Note_on_c, 2, 79, 80
4, 535056, Note_off_c, 2, 79, 64
4, 535056, Note_off_c, 2, 67, 64
4, 535200, Note_on_c, 2, 67, 56
4, 535200, Note_on_c, 2, 79, 56
4, 535968, Note_off_c, 2, 79, 64
4, 535968, Note_off_c, 2, 67, 64
4, 536160, Note_on_c, 2, 64, 56
4, 536160, Note_on_c, 2, 76, 56
4, 536928, Note_off_c, 2, 76, 64
4, 536928, Note_off_c, 2, 64, 64
4, 537120, Note_on_c, 2, 72, 56
4, 537120, Note_on_c, 2, 60, 56
4, 537888, Note_off_c, 2, 60, 64
4, 537888, Note_off_c, 2, 72, 64
4, 538080, Note_on_c, 2, 55, 56
4, 538080, Note_on_c, 2, 67, 56
4, 538848, Note_off_c, 2, 67, 64
4, 538848, Note_off_c, 2, 55, 64
4, 539040, Note_on_c, 2, 76, 56
4, 539040, Note_on_c, 2, 64, 56
4, 539808, Note_off_c, 2, 64, 64
4, 539808, Note_off_c, 2, 76, 64
4, 540000, Note_on_c, 2, 72, 56
4, 540000, Note_on_c, 2, 60, 56
4, 540768, Note_off_c, 2, 60, 64
4, 540768, Note_off_c, 2, 72, 64
4, 540960, Note_on_c, 2, 76, 56
4, 540960, Note_on_c, 2, 64, 56
4, 541728, Note_off_c, 2, 64, 64
4, 541728, Note_off_c, 2, 76, 64
4, 541920, Note_on_c, 2, 67, 56
4, 541920, Note_on_c, 2, 79, 56
4, 542688, Note_off_c, 2, 79, 64
4, 542688, Note_off_c, 2, 67, 64
4, 542880, Note_on_c, 2, 84, 56
4, 542880, Note_on_c, 2, 72, 56
4, 543648, Note_off_c, 2, 72, 64
4, 543648, Note_off_c, 2, 84, 64
4, 543840, Note_on_c, 2, 76, 56
4, 543840, Note_on_c, 2, 64, 56
4, 544608, Note_off_c, 2, 64, 64
4, 544608, Note_off_c, 2, 76, 64
4, 544800, Note_on_c, 2, 62, 80
4, 544800, Note_on_c, 2, 65, 80
4, 546336, Note_off_c, 2, 65, 64
4, 546336, Note_off_c, 2, 62, 64
4, 546720, Note_on_c, 2, 60, 61
4, 546720, Note_on_c, 2, 64, 61
4, 546816, Note_off_c, 2, 64, 64
4, 546816, Note_off_c, 2, 60, 64
4, 546960, Note_on_c, 2, 59, 61
4, 546960, Note_on_c, 2, 62, 61
4, 547080, Note_off_c, 2, 62, 64
4, 547080, Note_off_c, 2, 59, 64
4, 547080, Note_on_c, 2, 60, 61
4, 547080, Note_on_c, 2, 64, 61
4, 547176, Note_off_c, 2, 64, 64
4, 547200, Note_off_c, 2, 60, 64
4, 547200, Note_on_c, 2, 65, 61
4, 547200, Note_on_c, 2, 62, 61
4, 547296, Note_off_c, 2, 62, 64
4, 547296, Note_off_c, 2, 65, 64
4, 547440, Note_on_c, 2, 60, 61
4, 547440, Note_on_c, 2, 64, 61
4, 547536, Note_off_c, 2, 64, 64
4, 547536, Note_off_c, 2, 60, 64
4, 547680, Note_on_c, 2, 60, 61
4, 547680, Note_on_c, 2, 64, 61
4, 547776, Note_off_c, 2, 64, 64
4, 547776, Note_off_c, 2, 60, 64
4, 547920, Note_on_c, 2, 62, 61
4, 547920, Note_on_c, 2, 59, 61
4, 548040, Note_off_c, 2, 59, 64
4, 548040, Note_off_c, 2, 62, 64
4, 548040, Note_on_c, 2, 60, 61
4, 548040, Note_on_c, 2, 64, 61
4, 548136, Note_off_c, 2, 64, 64
4, 548160, Note_off_c, 2, 60, 64
4, 548160, Note_on_c, 2, 65, 61
4, 548160, Note_on_c, 2, 62, 61
4, 548256, Note_off_c, 2, 62, 64
4, 548256, Note_off_c, 2, 65, 64
4, 548400, Note_on_c, 2, 60, 61
4, 548400, Note_on_c, 2, 64, 61
4, 548496, Note_off_c, 2, 64, 64
4, 548496, Note_off_c, 2, 60, 64
4, 548640, Note_on_c, 2, 65, 80
4, 548640, Note_on_c, 2, 62, 80
4, 550176, Note_off_c, 2, 62, 64
4, 550176, Note_off_c, 2, 65, 64
4, 550560, Note_on_c, 2, 60, 61
4, 550560, Note_on_c, 2, 64, 61
4, 550656, Note_off_c, 2, 64, 64
4, 550656, Note_off_c, 2, 60, 64
4, 550800, Note_on_c, 2, 62, 61
4, 550800, Note_on_c, 2, 59, 61
4, 550920, Note_off_c, 2, 59, 64
4, 550920, Note_off_c, 2, 62, 64
4, 550920, Note_on_c, 2, 60, 61
4, 550920, Note_on_c, 2, 64, 61
4, 551016, Note_off_c, 2, 64, 64
4, 551040, Note_off_c, 2, 60, 64
4, 551040, Note_on_c, 2, 65, 61
4, 551040, Note_on_c, 2, 62, 61
4, 551136, Note_off_c, 2, 62, 64
4, 551136, Note_off_c, 2, 65, 64
4, 551280, Note_on_c, 2, 60, 61
4, 551280, Note_on_c, 2, 64, 61
4, 551376, Note_off_c, 2, 64, 64
4, 551376, Note_off_c, 2, 60, 64
4, 551520, Note_on_c, 2, 60, 61
4, 551520, Note_on_c, 2, 64, 61
4, 551616, Note_off_c, 2, 64, 64
4, 551616, Note_off_c, 2, 60, 64
4, 551760, Note_on_c, 2, 62, 61
4, 551760, Note_on_c, 2, 59, 61
4, 551880, Note_off_c, 2, 59, 64
4, 551880, Note_off_c, 2, 62, 64
4, 551880, Note_on_c, 2, 60, 61
4, 551880, Note_on_c, 2, 64, 61
4, 551976, Note_off_c, 2, 64, 64
4, 552000, Note_off_c, 2, 60, 64
4, 552000, Note_on_c, 2, 65, 61
4, 552000, Note_on_c, 2, 62, 61
4, 552096, Note_off_c, 2, 62, 64
4, 552096, Note_off_c, 2, 65, 64
4, 552240, Note_on_c, 2, 60, 61
4, 552240, Note_on_c, 2, 64, 61
4, 552336, Note_off_c, 2, 64, 64
4, 552336, Note_off_c, 2, 60, 64
4, 552480, Note_on_c, 2, 65, 80
4, 552480, Note_on_c, 2, 62, 80
4, 554016, Note_off_c, 2, 62, 64
4, 554016, Note_off_c, 2, 65, 64
4, 554400, Note_on_c, 2, 64, 61
4, 554400, Note_on_c, 2, 60, 61
4, 554496, Note_off_c, 2, 60, 64
4, 554496, Note_off_c, 2, 64, 64
4, 554640, Note_on_c, 2, 59, 61
4, 554640, Note_on_c, 2, 62, 61
4, 554760, Note_off_c, 2, 62, 64
4, 554760, Note_off_c, 2, 59, 64
4, 554760, Note_on_c, 2, 64, 61
4, 554760, Note_on_c, 2, 60, 61
4, 554856, Note_off_c, 2, 64, 64
4, 554880, Note_off_c, 2, 60, 64
4, 554880, Note_on_c, 2, 62, 61
4, 554880, Note_on_c, 2, 65, 61
4, 554976, Note_off_c, 2, 65, 64
4, 554976, Note_off_c, 2, 62, 64
4, 555120, Note_on_c, 2, 64, 61
4, 555120, Note_on_c, 2, 60, 61
4, 555216, Note_off_c, 2, 60, 64
4, 555216, Note_off_c, 2, 64, 64
4, 555360, Note_on_c, 2, 64, 61
4, 555360, Note_on_c, 2, 60, 61
4, 555456, Note_off_c, 2, 60, 64
4, 555456, Note_off_c, 2, 64, 64
4, 555600, Note_on_c, 2, 62, 61
4, 555600, Note_on_c, 2, 59, 61
4, 555720, Note_off_c, 2, 59, 64
4, 555720, Note_off_c, 2, 62, 64
4, 555720, Note_on_c, 2, 60, 61
4, 555720, Note_on_c, 2, 64, 61
4, 555816, Note_off_c, 2, 64, 64
4, 555840, Note_off_c, 2, 60, 64
4, 555840, Note_on_c, 2, 62, 61
4, 555840, Note_on_c, 2, 65, 61
4, 555936, Note_off_c, 2, 65, 64
4, 555936, Note_off_c, 2, 62, 64
4, 556080, Note_on_c, 2, 64, 61
4, 556080, Note_on_c, 2, 60, 61
4, 556176, Note_off_c, 2, 60, 64
4, 556176, Note_off_c, 2, 64, 64
4, 556320, Note_on_c, 2, 64, 61
4, 556320, Note_on_c, 2, 67, 61
4, 556416, Note_off_c, 2, 67, 64
4, 556416, Note_off_c, 2, 64, 64
4, 556560, Note_on_c, 2, 62, 61
4, 556560, Note_on_c, 2, 65, 61
4, 556680, Note_off_c, 2, 65, 64
4, 556680, Note_off_c, 2, 62, 64
4, 556680, Note_on_c, 2, 67, 61
4, 556680, Note_on_c, 2, 64, 61
4, 556776, Note_off_c, 2, 64, 64
4, 556800, Note_off_c, 2, 67, 64
4, 556800, Note_on_c, 2, 65, 61
4, 556800, Note_on_c, 2, 69, 61
4, 556896, Note_off_c, 2, 69, 64
4, 556896, Note_off_c, 2, 65, 64
4, 557040, Note_on_c, 2, 64, 61
4, 557040, Note_on_c, 2, 67, 61
4, 557136, Note_off_c, 2, 67, 64
4, 557136, Note_off_c, 2, 64, 64
4, 557280, Note_on_c, 2, 67, 61
4, 557280, Note_on_c, 2, 64, 61
4, 557376, Note_off_c, 2, 64, 64
4, 557376, Note_off_c, 2, 67, 64
4, 557520, Note_on_c, 2, 62, 61
4, 557520, Note_on_c, 2, 65, 61
4, 557640, Note_off_c, 2, 65, 64
4, 557640, Note_off_c, 2, 62, 64
4, 557640, Note_on_c, 2, 67, 61
4, 557640, Note_on_c, 2, 64, 61
4, 557736, Note_off_c, 2, 64, 64
4, 557760, Note_off_c, 2, 67, 64
4, 557760, Note_on_c, 2, 65, 61
4, 557760, Note_on_c, 2, 69, 61
4, 557856, Note_off_c, 2, 69, 64
4, 557856, Note_off_c, 2, 65, 64
4, 558000, Note_on_c, 2, 64, 61
4, 558000, Note_on_c, 2, 67, 61
4, 558096, Note_off_c, 2, 67, 64
4, 558096, Note_off_c, 2, 64, 64
4, 558240, Note_on_c, 2, 60, 61
4, 558240, Note_on_c, 2, 64, 61
4, 558336, Note_off_c, 2, 64, 64
4, 558336, Note_off_c, 2, 60, 64
4, 558480, Note_on_c, 2, 62, 61
4, 558480, Note_on_c, 2, 59, 61
4, 558600, Note_off_c, 2, 59, 64
4, 558600, Note_off_c, 2, 62, 64
4, 558600, Note_on_c, 2, 60, 61
4, 558600, Note_on_c, 2, 64, 61
4, 558696, Note_off_c, 2, 64, 64
4, 558720, Note_off_c, 2, 60, 64
4, 558720, Note_on_c, 2, 65, 61
4, 558720, Note_on_c, 2, 62, 61
4, 558816, Note_off_c, 2, 62, 64
4, 558816, Note_off_c, 2, 65, 64
4, 558960, Note_on_c, 2, 64, 61
4, 558960, Note_on_c, 2, 60, 61
4, 559056, Note_off_c, 2, 60, 64
4, 559056, Note_off_c, 2, 64, 64
4, 559200, Note_on_c, 2, 60, 61
4, 559200, Note_on_c, 2, 64, 61
4, 559296, Note_off_c, 2, 64, 64
4, 559296, Note_off_c, 2, 60, 64
4, 559440, Note_on_c, 2, 59, 61
4, 559440, Note_on_c, 2, 62, 61
4, 559560, Note_off_c, 2, 62, 64
4, 559560, Note_off_c, 2, 59, 64
4, 559560, Note_on_c, 2, 64, 61
4, 559560, Note_on_c, 2, 60, 61
4, 559656, Note_off_c, 2, 64, 64
4, 559680, Note_off_c, 2, 60, 64
4, 559680, Note_on_c, 2, 62, 61
4, 559680, Note_on_c, 2, 65, 61
4, 559776, Note_off_c, 2, 65, 64
4, 559776, Note_off_c, 2, 62, 64
4, 559920, Note_on_c, 2, 64, 61
4, 559920, Note_on_c, 2, 60, 61
4, 560016, Note_off_c, 2, 60, 64
4, 560016, Note_off_c, 2, 64, 64
4, 560160, Note_on_c, 2, 72, 80
4, 560160, Note_on_c, 2, 60, 80
4, 560352, Note_off_c, 2, 60, 64
4, 560352, Note_off_c, 2, 72, 64
4, 561120, Note_on_c, 2, 72, 80
4, 561120, Note_on_c, 2, 60, 80
4, 561312, Note_off_c, 2, 60, 64
4, 561312, Note_off_c, 2, 72, 64
4, 562320, Note_on_c, 2, 60, 80
4, 562320, Note_on_c, 2, 72, 80
4, 566352, Note_off_c, 2, 72, 64
4, 566352, Note_off_c, 2, 60, 64
4, 566352, End_track
5, 0, Start_track
5, 0, Title_t, "Bassoon"
5, 0, MIDI_port, 0
5, 0, Channel_prefix, 3
5, 0, Control_c, 3, 7, 74
5, 0, Control_c, 3, 10, 70
5, 0, Program_c, 3, 70
5, 480, Program_c, 3, 70
5, 480, Control_c, 3, 91, 85
5, 480, Control_c, 3, 7, 90
5, 480, Control_c, 3, 10, 71
5, 5760, Note_on_c, 3, 60, 72
5, 5760, Note_on_c, 3, 64, 72
5, 5904, Note_off_c, 3, 64, 64
5, 5904, Note_off_c, 3, 60, 64
5, 7680, Note_on_c, 3, 62, 72
5, 7680, Note_on_c, 3, 59, 72
5, 7824, Note_off_c, 3, 59, 64
5, 7824, Note_off_c, 3, 62, 64
5, 9600, Note_on_c, 3, 60, 72
5, 9600, Note_on_c, 3, 64, 72
5, 9744, Note_off_c, 3, 64, 64
5, 9744, Note_off_c, 3, 60, 64
5, 10560, Note_on_c, 3, 65, 72
5, 10560, Note_on_c, 3, 53, 72
5, 10704, Note_off_c, 3, 53, 64
5, 10704, Note_off_c, 3, 65, 64
5, 11520, Note_on_c, 3, 55, 72
5, 11520, Note_on_c, 3, 67, 72
5, 11664, Note_off_c, 3, 67, 64
5, 11664, Note_off_c, 3, 55, 64
5, 12960, Note_on_c, 3, 55, 36
5, 13056, Note_off_c, 3, 55, 64
5, 13080, Note_on_c, 3, 57, 36
5, 13176, Note_off_c, 3, 57, 64
5, 13200, Note_on_c, 3, 59, 36
5, 13264, Note_off_c, 3, 59, 64
5, 13280, Note_on_c, 3, 60, 36
5, 13344, Note_off_c, 3, 60, 64
5, 13360, Note_on_c, 3, 62, 36
5, 13424, Note_off_c, 3, 62, 64
5, 13440, Note_on_c, 3, 64, 36
5, 13440, Note_on_c, 3, 55, 36
5, 14238, Note_off_c, 3, 55, 64
5, 14238, Note_off_c, 3, 64, 64
5, 14280, Note_on_c, 3, 62, 36
5, 14280, Note_on_c, 3, 53, 36
5, 14376, Note_off_c, 3, 53, 64
5, 14376, Note_off_c, 3, 62, 64
5, 14400, Note_on_c, 3, 60, 36
5, 14400, Note_on_c, 3, 52, 36
5, 14880, Note_off_c, 3, 52, 64
5, 14880, Note_off_c, 3, 60, 64
5, 14880, Note_on_c, 3, 59, 36
5, 14880, Note_on_c, 3, 62, 36
5, 15360, Note_off_c, 3, 62, 64
5, 15360, Note_off_c, 3, 59, 64
5, 15360, Note_on_c, 3, 60, 36
5, 15360, Note_on_c, 3, 64, 36
5, 15840, Note_off_c, 3, 64, 64
5, 15840, Note_off_c, 3, 60, 64
5, 15840, Note_on_c, 3, 65, 36
5, 15840, Note_on_c, 3, 62, 36
5, 16200, Note_off_c, 3, 62, 64
5, 16200, Note_off_c, 3, 65, 64
5, 16200, Note_on_c, 3, 64, 36
5, 16200, Note_on_c, 3, 60, 36
5, 16296, Note_off_c, 3, 60, 64
5, 16296, Note_off_c, 3, 64, 64
5, 16320, Note_on_c, 3, 64, 36
5, 16320, Note_on_c, 3, 60, 36
5, 16800, Note_off_c, 3, 60, 64
5, 16800, Note_off_c, 3, 64, 64
5, 16800, Note_on_c, 3, 62, 31
5, 16800, Note_on_c, 3, 59, 31
5, 17184, Note_off_c, 3, 59, 64
5, 17184, Note_off_c, 3, 62, 64
5, 17280, Note_on_c, 3, 65, 36
5, 17280, Note_on_c, 3, 62, 36
5, 18078, Note_off_c, 3, 62, 64
5, 18078, Note_off_c, 3, 65, 64
5, 18120, Note_on_c, 3, 60, 36
5, 18120, Note_on_c, 3, 64, 36
5, 18216, Note_off_c, 3, 64, 64
5, 18216, Note_off_c, 3, 60, 64
5, 18240, Note_on_c, 3, 62, 36
5, 18240, Note_on_c, 3, 59, 36
5, 18720, Note_off_c, 3, 59, 64
5, 18720, Note_off_c, 3, 62, 64
5, 18720, Note_on_c, 3, 60, 36
5, 18720, Note_on_c, 3, 64, 36
5, 19200, Note_off_c, 3, 64, 64
5, 19200, Note_off_c, 3, 60, 64
5, 19200, Note_on_c, 3, 67, 36
5, 19200, Note_on_c, 3, 64, 36
5, 19680, Note_off_c, 3, 64, 64
5, 19680, Note_off_c, 3, 67, 64
5, 19680, Note_on_c, 3, 65, 36
5, 19680, Note_on_c, 3, 62, 36
5, 20040, Note_off_c, 3, 62, 64
5, 20040, Note_off_c, 3, 65, 64
5, 20040, Note_on_c, 3, 60, 36
5, 20040, Note_on_c, 3, 64, 36
5, 20136, Note_off_c, 3, 64, 64
5, 20136, Note_off_c, 3, 60, 64
5, 20160, Note_on_c, 3, 64, 31
5, 20160, Note_on_c, 3, 60, 31
5, 20544, Note_off_c, 3, 60, 64
5, 20544, Note_off_c, 3, 64, 64
5, 21120, Note_on_c, 3, 47, 36
5, 21120, Note_on_c, 3, 59, 36
5, 22080, Note_off_c, 3, 59, 64
5, 22080, Note_off_c, 3, 47, 64
5, 22080, Note_on_c, 3, 45, 36
5, 22080, Note_on_c, 3, 57, 36
5, 23040, Note_off_c, 3, 57, 64
5, 23040, Note_off_c, 3, 45, 64
5, 23040, Note_on_c, 3, 55, 36
5, 23040, Note_on_c, 3, 43, 36
5, 23520, Note_off_c, 3, 43, 64
5, 23520, Note_off_c, 3, 55, 64
5, 23520, Note_on_c, 3, 59, 36
5, 23520, Note_on_c, 3, 55, 36
5, 23760, Note_off_c, 3, 55, 64
5, 23760, Note_off_c, 3, 59, 64
5, 23760, Note_on_c, 3, 57, 36
5, 23760, Note_on_c, 3, 54, 36
5, 24000, Note_off_c, 3, 54, 64
5, 24000, Note_off_c, 3, 57, 64
5, 24000, Note_on_c, 3, 52, 36
5, 24000, Note_on_c, 3, 55, 36
5, 24480, Note_off_c, 3, 55, 64
5, 24480, Note_off_c, 3, 52, 64
5, 24480, Note_on_c, 3, 45, 36
5, 24480, Note_on_c, 3, 57, 36
5, 25440, Note_off_c, 3, 57, 64
5, 25440, Note_off_c, 3, 45, 64
5, 25440, Note_on_c, 3, 47, 32
5, 25440, Note_on_c, 3, 59, 32
5, 25920, Note_off_c, 3, 59, 64
5, 25920, Note_off_c, 3, 47, 64
5, 25920, Note_on_c, 3, 59, 26
5, 25920, Note_on_c, 3, 47, 26
5, 26880, Note_off_c, 3, 47, 64
5, 26880, Note_off_c, 3, 59, 64
5, 26880, Note_on_c, 3, 52, 23
5, 27264, Note_off_c, 3, 52, 64
5, 28800, Note_on_c, 3, 52, 32
5, 28800, Note_on_c, 3, 55, 32
5, 29760, Note_off_c, 3, 55, 64
5, 29760, Note_off_c, 3, 52, 64
5, 29760, Note_on_c, 3, 57, 32
5, 29760, Note_on_c, 3, 53, 32
5, 30240, Note_off_c, 3, 53, 64
5, 30240, Note_off_c, 3, 57, 64
5, 30240, Note_on_c, 3, 55, 32
5, 30240, Note_on_c, 3, 52, 32
5, 30720, Note_off_c, 3, 52, 64
5, 30720, Note_off_c, 3, 55, 64
5, 30720, Note_on_c, 3, 53, 32
5, 30720, Note_on_c, 3, 50, 32
5, 31104, Note_off_c, 3, 50, 64
5, 31104, Note_off_c, 3, 53, 64
5, 31200, Note_on_c, 3, 52, 32
5, 31200, Note_on_c, 3, 48, 32
5, 31584, Note_off_c, 3, 48, 64
5, 31584, Note_off_c, 3, 52, 64
5, 31680, Note_on_c, 3, 53, 32
5, 32544, Note_off_c, 3, 53, 64
5, 32640, Note_on_c, 3, 50, 32
5, 32640, Note_on_c, 3, 53, 32
5, 33360, Note_off_c, 3, 53, 64
5, 33360, Note_off_c, 3, 50, 64
5, 33360, Note_on_c, 3, 52, 32
5, 33360, Note_on_c, 3, 55, 32
5, 33480, Note_off_c, 3, 55, 64
5, 33480, Note_off_c, 3, 52, 64
5, 33480, Note_on_c, 3, 57, 32
5, 33480, Note_on_c, 3, 53, 32
5, 33600, Note_off_c, 3, 53, 64
5, 33600, Note_off_c, 3, 57, 64
5, 33600, Note_on_c, 3, 55, 32
5, 33600, Note_on_c, 3, 52, 32
5, 33984, Note_off_c, 3, 52, 64
5, 33984, Note_off_c, 3, 55, 64
5, 34080, Note_on_c, 3, 50, 32
5, 34080, Note_on_c, 3, 53, 32
5, 34464, Note_off_c, 3, 53, 64
5, 34464, Note_off_c, 3, 50, 64
5, 34560, Note_on_c, 3, 52, 32
5, 34560, Note_on_c, 3, 48, 32
5, 34944, Note_off_c, 3, 48, 64
5, 34944, Note_off_c, 3, 52, 64
5, 35040, Note_on_c, 3, 50, 32
5, 35040, Note_on_c, 3, 47, 32
5, 35424, Note_off_c, 3, 47, 64
5, 35424, Note_off_c, 3, 50, 64
5, 35520, Note_on_c, 3, 48, 32
5, 35520, Note_on_c, 3, 52, 32
5, 35760, Note_off_c, 3, 52, 64
5, 35760, Note_off_c, 3, 48, 64
5, 35760, Note_on_c, 3, 46, 32
5, 35760, Note_on_c, 3, 58, 32
5, 36000, Note_off_c, 3, 58, 64
5, 36000, Note_off_c, 3, 46, 64
5, 36000, Note_on_c, 3, 45, 32
5, 36000, Note_on_c, 3, 57, 32
5, 36240, Note_off_c, 3, 57, 64
5, 36240, Note_off_c, 3, 45, 64
5, 36240, Note_on_c, 3, 43, 32
5, 36240, Note_on_c, 3, 55, 32
5, 36480, Note_off_c, 3, 55, 64
5, 36480, Note_off_c, 3, 43, 64
5, 36480, Note_on_c, 3, 53, 22
5, 36480, Note_on_c, 3, 41, 22
5, 36960, Note_off_c, 3, 41, 64
5, 36960, Note_off_c, 3, 53, 64
5, 36960, Note_on_c, 3, 53, 22
5, 36960, Note_on_c, 3, 65, 22
5, 37440, Note_off_c, 3, 65, 64
5, 37440, Note_off_c, 3, 53, 64
5, 37440, Note_on_c, 3, 50, 22
5, 37440, Note_on_c, 3, 62, 22
5, 37920, Note_off_c, 3, 62, 64
5, 37920, Note_off_c, 3, 50, 64
5, 37920, Note_on_c, 3, 67, 22
5, 37920, Note_on_c, 3, 55, 22
5, 38400, Note_off_c, 3, 55, 64
5, 38400, Note_off_c, 3, 67, 64
5, 38400, Note_on_c, 3, 57, 22
5, 38400, Note_on_c, 3, 45, 22
5, 40224, Note_off_c, 3, 45, 64
5, 40224, Note_off_c, 3, 57, 64
5, 40320, Note_on_c, 3, 43, 22
5, 40320, Note_on_c, 3, 55, 22
5, 41232, Note_off_c, 3, 55, 64
5, 41232, Note_off_c, 3, 43, 64
5, 41280, Note_on_c, 3, 55, 22
5, 41280, Note_on_c, 3, 43, 22
5, 42048, Note_off_c, 3, 43, 64
5, 42048, Note_off_c, 3, 55, 64
5, 42240, Note_on_c, 3, 52, 23
5, 42240, Note_on_c, 3, 48, 23
5, 42624, Note_off_c, 3, 48, 64
5, 42624, Note_off_c, 3, 52, 64
5, 44160, Note_on_c, 3, 55, 54
5, 44160, Note_on_c, 3, 48, 54
5, 44958, Note_off_c, 3, 48, 64
5, 44958, Note_off_c, 3, 55, 64
5, 45000, Note_on_c, 3, 43, 54
5, 45000, Note_on_c, 3, 55, 54
5, 45096, Note_off_c, 3, 55, 64
5, 45096, Note_off_c, 3, 43, 64
5, 45120, Note_on_c, 3, 45, 54
5, 45120, Note_on_c, 3, 57, 54
5, 45600, Note_off_c, 3, 57, 64
5, 45600, Note_off_c, 3, 45, 64
5, 45600, Note_on_c, 3, 55, 54
5, 45600, Note_on_c, 3, 43, 54
5, 46080, Note_off_c, 3, 43, 64
5, 46080, Note_off_c, 3, 55, 64
5, 46080, Note_on_c, 3, 60, 61
5, 46320, Note_off_c, 3, 60, 64
5, 46320, Note_on_c, 3, 55, 61
5, 46560, Note_off_c, 3, 55, 64
5, 46560, Note_on_c, 3, 59, 61
5, 46800, Note_off_c, 3, 59, 64
5, 46800, Note_on_c, 3, 60, 61
5, 47040, Note_off_c, 3, 60, 64
5, 47040, Note_on_c, 3, 64, 61
5, 47280, Note_off_c, 3, 64, 64
5, 47280, Note_on_c, 3, 60, 61
5, 47520, Note_off_c, 3, 60, 64
5, 47520, Note_on_c, 3, 67, 52
5, 47760, Note_off_c, 3, 67, 64
5, 47760, Note_on_c, 3, 55, 52
5, 48000, Note_off_c, 3, 55, 64
5, 48000, Note_on_c, 3, 53, 61
5, 48240, Note_off_c, 3, 53, 64
5, 48240, Note_on_c, 3, 65, 61
5, 48480, Note_off_c, 3, 65, 64
5, 48480, Note_on_c, 3, 60, 61
5, 48720, Note_off_c, 3, 60, 64
5, 48720, Note_on_c, 3, 57, 61
5, 48960, Note_off_c, 3, 57, 64
5, 48960, Note_on_c, 3, 59, 61
5, 49200, Note_off_c, 3, 59, 64
5, 49200, Note_on_c, 3, 59, 61
5, 49200, Note_on_c, 3, 62, 61
5, 49440, Note_off_c, 3, 62, 64
5, 49440, Note_off_c, 3, 59, 64
5, 49440, Note_on_c, 3, 55, 61
5, 49440, Note_on_c, 3, 60, 61
5, 49680, Note_off_c, 3, 60, 64
5, 49680, Note_off_c, 3, 55, 64
5, 49680, Note_on_c, 3, 64, 61
5, 49680, Note_on_c, 3, 60, 61
5, 49920, Note_off_c, 3, 60, 64
5, 49920, Note_off_c, 3, 64, 64
5, 49920, Note_on_c, 3, 67, 80
5, 49920, Note_on_c, 3, 64, 80
5, 50112, Note_off_c, 3, 64, 64
5, 50112, Note_off_c, 3, 67, 64
5, 50160, Note_on_c, 3, 64, 80
5, 50160, Note_on_c, 3, 60, 80
5, 50352, Note_off_c, 3, 60, 64
5, 50352, Note_off_c, 3, 64, 64
5, 50400, Note_on_c, 3, 65, 80
5, 50400, Note_on_c, 3, 62, 80
5, 50688, Note_off_c, 3, 62, 64
5, 50688, Note_off_c, 3, 65, 64
5, 50760, Note_on_c, 3, 64, 80
5, 50760, Note_on_c, 3, 60, 80
5, 50856, Note_off_c, 3, 60, 64
5, 50856, Note_off_c, 3, 64, 64
5, 50880, Note_on_c, 3, 64, 80
5, 50880, Note_on_c, 3, 60, 80
5, 51264, Note_off_c, 3, 60, 64
5, 51264, Note_off_c, 3, 64, 64
5, 51840, Note_on_c, 3, 62, 99
5, 52080, Note_off_c, 3, 62, 64
5, 52080, Note_on_c, 3, 59, 99
5, 52320, Note_off_c, 3, 59, 64
5, 52320, Note_on_c, 3, 55, 99
5, 52560, Note_off_c, 3, 55, 64
5, 52560, Note_on_c, 3, 50, 99
5, 52800, Note_off_c, 3, 50, 64
5, 52800, Note_on_c, 3, 48, 99
5, 53040, Note_off_c, 3, 48, 64
5, 53040, Note_on_c, 3, 60, 99
5, 53280, Note_off_c, 3, 60, 64
5, 53280, Note_on_c, 3, 57, 99
5, 53520, Note_off_c, 3, 57, 64
5, 53520, Note_on_c, 3, 60, 99
5, 53760, Note_off_c, 3, 60, 64
5, 53760, Note_on_c, 3, 59, 99
5, 54000, Note_off_c, 3, 59, 64
5, 54000, Note_on_c, 3, 55, 99
5, 54240, Note_off_c, 3, 55, 64
5, 54240, Note_on_c, 3, 59, 99
5, 54480, Note_off_c, 3, 59, 64
5, 54480, Note_on_c, 3, 54, 99
5, 54720, Note_off_c, 3, 54, 64
5, 54720, Note_on_c, 3, 59, 99
5, 54960, Note_off_c, 3, 59, 64
5, 54960, Note_on_c, 3, 52, 99
5, 55200, Note_off_c, 3, 52, 64
5, 55200, Note_on_c, 3, 57, 99
5, 55440, Note_off_c, 3, 57, 64
5, 55440, Note_on_c, 3, 45, 99
5, 55680, Note_off_c, 3, 45, 64
5, 55680, Note_on_c, 3, 57, 99
5, 55920, Note_off_c, 3, 57, 64
5, 55920, Note_on_c, 3, 45, 99
5, 56160, Note_off_c, 3, 45, 64
5, 56160, Note_on_c, 3, 59, 99
5, 56400, Note_off_c, 3, 59, 64
5, 56400, Note_on_c, 3, 47, 99
5, 56640, Note_off_c, 3, 47, 64
5, 56640, Note_on_c, 3, 59, 69
5, 56880, Note_off_c, 3, 59, 64
5, 56880, Note_on_c, 3, 47, 69
5, 57120, Note_off_c, 3, 47, 64
5, 57120, Note_on_c, 3, 59, 69
5, 57360, Note_off_c, 3, 59, 64
5, 57360, Note_on_c, 3, 47, 69
5, 57600, Note_off_c, 3, 47, 64
5, 57600, Note_on_c, 3, 52, 69
5, 57600, Note_on_c, 3, 40, 69
5, 57984, Note_off_c, 3, 40, 64
5, 57984, Note_off_c, 3, 52, 64
5, 59520, Note_on_c, 3, 52, 54
5, 59520, Note_on_c, 3, 55, 54
5, 60480, Note_off_c, 3, 55, 64
5, 60480, Note_off_c, 3, 52, 64
5, 60480, Note_on_c, 3, 53, 54
5, 60480, Note_on_c, 3, 57, 54
5, 60960, Note_off_c, 3, 57, 64
5, 60960, Note_off_c, 3, 53, 64
5, 60960, Note_on_c, 3, 55, 54
5, 60960, Note_on_c, 3, 52, 54
5, 61440, Note_off_c, 3, 52, 64
5, 61440, Note_off_c, 3, 55, 64
5, 61440, Note_on_c, 3, 53, 54
5, 61440, Note_on_c, 3, 48, 54
5, 61824, Note_off_c, 3, 48, 64
5, 61824, Note_off_c, 3, 53, 64
5, 61920, Note_on_c, 3, 52, 54
5, 61920, Note_on_c, 3, 48, 54
5, 62304, Note_off_c, 3, 48, 64
5, 62304, Note_off_c, 3, 52, 64
5, 62400, Note_on_c, 3, 53, 54
5, 62400, Note_on_c, 3, 50, 54
5, 62880, Note_off_c, 3, 50, 64
5, 62880, Note_on_c, 3, 50, 41
5, 63264, Note_off_c, 3, 53, 64
5, 63264, Note_off_c, 3, 50, 64
5, 63360, Note_on_c, 3, 62, 72
5, 63744, Note_off_c, 3, 62, 64
5, 63840, Note_on_c, 3, 60, 72
5, 64224, Note_off_c, 3, 60, 64
5, 64320, Note_on_c, 3, 62, 72
5, 64350, Note_off_c, 3, 62, 64
5, 64350, Note_on_c, 3, 64, 72
5, 64380, Note_off_c, 3, 64, 64
5, 64380, Note_on_c, 3, 62, 72
5, 64410, Note_off_c, 3, 62, 64
5, 64410, Note_on_c, 3, 64, 72
5, 64440, Note_off_c, 3, 64, 64
5, 64440, Note_on_c, 3, 62, 72
5, 64470, Note_off_c, 3, 62, 64
5, 64470, Note_on_c, 3, 64, 72
5, 64500, Note_off_c, 3, 64, 64
5, 64500, Note_on_c, 3, 62, 72
5, 64530, Note_off_c, 3, 62, 64
5, 64530, Note_on_c, 3, 64, 72
5, 64560, Note_off_c, 3, 64, 64
5, 64560, Note_on_c, 3, 62, 72
5, 64590, Note_off_c, 3, 62, 64
5, 64590, Note_on_c, 3, 64, 72
5, 64620, Note_off_c, 3, 64, 64
5, 64620, Note_on_c, 3, 62, 72
5, 64650, Note_off_c, 3, 62, 64
5, 64650, Note_on_c, 3, 64, 72
5, 64680, Note_off_c, 3, 64, 64
5, 64680, Note_on_c, 3, 62, 72
5, 64710, Note_off_c, 3, 62, 64
5, 64710, Note_on_c, 3, 64, 72
5, 64740, Note_off_c, 3, 64, 64
5, 64740, Note_on_c, 3, 62, 72
5, 64770, Note_off_c, 3, 62, 64
5, 64770, Note_on_c, 3, 64, 72
5, 64800, Note_off_c, 3, 64, 64
5, 64800, Note_on_c, 3, 62, 72
5, 64830, Note_off_c, 3, 62, 64
5, 64830, Note_on_c, 3, 64, 72
5, 64860, Note_off_c, 3, 64, 64
5, 64860, Note_on_c, 3, 62, 72
5, 64890, Note_off_c, 3, 62, 64
5, 64890, Note_on_c, 3, 64, 72
5, 64920, Note_off_c, 3, 64, 64
5, 64920, Note_on_c, 3, 62, 72
5, 64950, Note_off_c, 3, 62, 64
5, 64950, Note_on_c, 3, 64, 72
5, 64980, Note_off_c, 3, 64, 64
5, 64980, Note_on_c, 3, 62, 72
5, 65010, Note_off_c, 3, 62, 64
5, 65010, Note_on_c, 3, 64, 72
5, 65040, Note_off_c, 3, 64, 64
5, 65040, Note_on_c, 3, 62, 72
5, 65070, Note_off_c, 3, 62, 64
5, 65070, Note_on_c, 3, 64, 72
5, 65100, Note_off_c, 3, 64, 64
5, 65100, Note_on_c, 3, 62, 72
5, 65130, Note_off_c, 3, 62, 64
5, 65130, Note_on_c, 3, 64, 72
5, 65160, Note_off_c, 3, 64, 64
5, 65160, Note_on_c, 3, 62, 72
5, 65190, Note_off_c, 3, 62, 64
5, 65190, Note_on_c, 3, 64, 72
5, 65220, Note_off_c, 3, 64, 64
5, 65220, Note_on_c, 3, 60, 72
5, 65250, Note_off_c, 3, 60, 64
5, 65250, Note_on_c, 3, 62, 72
5, 65280, Note_off_c, 3, 62, 64
5, 65280, Note_on_c, 3, 64, 76
5, 65664, Note_off_c, 3, 64, 64
5, 65760, Note_on_c, 3, 65, 76
5, 66144, Note_off_c, 3, 65, 64
5, 66240, Note_on_c, 3, 64, 76
5, 66480, Note_off_c, 3, 64, 64
5, 66480, Note_on_c, 3, 67, 76
5, 66720, Note_off_c, 3, 67, 64
5, 66720, Note_on_c, 3, 65, 76
5, 66960, Note_off_c, 3, 65, 64
5, 66960, Note_on_c, 3, 64, 76
5, 67200, Note_off_c, 3, 64, 64
5, 67200, Note_on_c, 3, 65, 101
5, 68064, Note_off_c, 3, 65, 64
5, 68160, Note_on_c, 3, 65, 101
5, 68544, Note_off_c, 3, 65, 64
5, 68640, Note_on_c, 3, 62, 101
5, 69090, Note_off_c, 3, 62, 64
5, 69120, Note_on_c, 3, 60, 101
5, 69120, Note_on_c, 3, 62, 101
5, 70488, Note_off_c, 3, 62, 64
5, 70488, Note_off_c, 3, 60, 64
5, 70560, Note_on_c, 3, 62, 101
5, 70560, Note_on_c, 3, 60, 101
5, 71010, Note_off_c, 3, 60, 64
5, 71010, Note_off_c, 3, 62, 64
5, 71040, Note_on_c, 3, 60, 72
5, 71280, Note_off_c, 3, 60, 64
5, 71280, Note_on_c, 3, 55, 72
5, 71520, Note_off_c, 3, 55, 64
5, 71520, Note_on_c, 3, 60, 72
5, 71760, Note_off_c, 3, 60, 64
5, 71760, Note_on_c, 3, 64, 72
5, 72000, Note_off_c, 3, 64, 64
5, 72000, Note_on_c, 3, 65, 72
5, 72720, Note_off_c, 3, 65, 64
5, 72720, Note_on_c, 3, 64, 72
5, 72912, Note_off_c, 3, 64, 64
5, 72960, Note_on_c, 3, 64, 72
5, 73344, Note_off_c, 3, 64, 64
5, 74880, Note_on_c, 3, 48, 61
5, 75024, Note_off_c, 3, 48, 64
5, 76800, Note_on_c, 3, 48, 61
5, 76944, Note_off_c, 3, 48, 64
5, 78720, Note_on_c, 3, 48, 61
5, 78864, Note_off_c, 3, 48, 64
5, 79680, Note_on_c, 3, 48, 61
5, 79824, Note_off_c, 3, 48, 64
5, 80640, Note_on_c, 3, 47, 61
5, 80784, Note_off_c, 3, 47, 64
5, 81120, Note_on_c, 3, 48, 61
5, 81264, Note_off_c, 3, 48, 64
5, 81600, Note_on_c, 3, 43, 61
5, 81744, Note_off_c, 3, 43, 64
5, 82680, Note_on_c, 3, 60, 72
5, 82740, Note_off_c, 3, 60, 64
5, 82800, Note_on_c, 3, 59, 72
5, 82860, Note_off_c, 3, 59, 64
5, 82920, Note_on_c, 3, 57, 72
5, 82980, Note_off_c, 3, 57, 64
5, 83040, Note_on_c, 3, 55, 72
5, 83100, Note_off_c, 3, 55, 64
5, 83160, Note_on_c, 3, 53, 72
5, 83220, Note_off_c, 3, 53, 64
5, 83280, Note_on_c, 3, 52, 72
5, 83340, Note_off_c, 3, 52, 64
5, 83400, Note_on_c, 3, 50, 72
5, 83460, Note_off_c, 3, 50, 64
5, 83520, Note_on_c, 3, 48, 72
5, 83580, Note_off_c, 3, 48, 64
5, 83640, Note_on_c, 3, 50, 72
5, 83700, Note_off_c, 3, 50, 64
5, 83760, Note_on_c, 3, 52, 72
5, 83820, Note_off_c, 3, 52, 64
5, 83880, Note_on_c, 3, 53, 72
5, 83940, Note_off_c, 3, 53, 64
5, 84000, Note_on_c, 3, 55, 72
5, 84060, Note_off_c, 3, 55, 64
5, 84120, Note_on_c, 3, 57, 72
5, 84180, Note_off_c, 3, 57, 64
5, 84240, Note_on_c, 3, 59, 72
5, 84300, Note_off_c, 3, 59, 64
5, 84360, Note_on_c, 3, 60, 72
5, 84420, Note_off_c, 3, 60, 64
5, 84480, Note_on_c, 3, 48, 72
5, 84480, Note_on_c, 3, 52, 72
5, 84600, Note_off_c, 3, 52, 64
5, 84600, Note_off_c, 3, 48, 64
5, 84600, Note_on_c, 3, 60, 72
5, 84600, Note_on_c, 3, 64, 72
5, 84660, Note_off_c, 3, 64, 64
5, 84660, Note_off_c, 3, 60, 64
5, 84720, Note_on_c, 3, 62, 72
5, 84720, Note_on_c, 3, 59, 72
5, 84780, Note_off_c, 3, 59, 64
5, 84780, Note_off_c, 3, 62, 64
5, 84840, Note_on_c, 3, 60, 72
5, 84840, Note_on_c, 3, 57, 72
5, 84900, Note_off_c, 3, 57, 64
5, 84900, Note_off_c, 3, 60, 64
5, 84960, Note_on_c, 3, 59, 72
5, 84960, Note_on_c, 3, 55, 72
5, 85020, Note_off_c, 3, 55, 64
5, 85020, Note_off_c, 3, 59, 64
5, 85080, Note_on_c, 3, 53, 72
5, 85080, Note_on_c, 3, 57, 72
5, 85140, Note_off_c, 3, 57, 64
5, 85140, Note_off_c, 3, 53, 64
5, 85200, Note_on_c, 3, 52, 72
5, 85200, Note_on_c, 3, 55, 72
5, 85260, Note_off_c, 3, 55, 64
5, 85260, Note_off_c, 3, 52, 64
5, 85320, Note_on_c, 3, 53, 72
5, 85320, Note_on_c, 3, 50, 72
5, 85380, Note_off_c, 3, 50, 64
5, 85380, Note_off_c, 3, 53, 64
5, 85440, Note_on_c, 3, 48, 72
5, 85440, Note_on_c, 3, 52, 72
5, 85500, Note_off_c, 3, 52, 64
5, 85500, Note_off_c, 3, 48, 64
5, 85560, Note_on_c, 3, 50, 72
5, 85560, Note_on_c, 3, 53, 72
5, 85620, Note_off_c, 3, 53, 64
5, 85620, Note_off_c, 3, 50, 64
5, 85680, Note_on_c, 3, 52, 72
5, 85680, Note_on_c, 3, 55, 72
5, 85740, Note_off_c, 3, 55, 64
5, 85740, Note_off_c, 3, 52, 64
5, 85800, Note_on_c, 3, 57, 72
5, 85800, Note_on_c, 3, 53, 72
5, 85860, Note_off_c, 3, 53, 64
5, 85860, Note_off_c, 3, 57, 64
5, 85920, Note_on_c, 3, 59, 72
5, 85920, Note_on_c, 3, 55, 72
5, 85980, Note_off_c, 3, 55, 64
5, 85980, Note_off_c, 3, 59, 64
5, 86040, Note_on_c, 3, 60, 72
5, 86040, Note_on_c, 3, 57, 72
5, 86100, Note_off_c, 3, 57, 64
5, 86100, Note_off_c, 3, 60, 64
5, 86160, Note_on_c, 3, 62, 72
5, 86160, Note_on_c, 3, 59, 72
5, 86220, Note_off_c, 3, 59, 64
5, 86220, Note_off_c, 3, 62, 64
5, 86280, Note_on_c, 3, 64, 72
5, 86280, Note_on_c, 3, 60, 72
5, 86340, Note_off_c, 3, 60, 64
5, 86340, Note_off_c, 3, 64, 64
5, 86400, Note_on_c, 3, 60, 72
5, 86460, Note_off_c, 3, 60, 64
5, 86520, Note_on_c, 3, 67, 72
5, 86580, Note_off_c, 3, 67, 64
5, 86640, Note_on_c, 3, 65, 72
5, 86700, Note_off_c, 3, 65, 64
5, 86760, Note_on_c, 3, 64, 72
5, 86820, Note_off_c, 3, 64, 64
5, 86880, Note_on_c, 3, 62, 72
5, 86940, Note_off_c, 3, 62, 64
5, 87000, Note_on_c, 3, 60, 72
5, 87060, Note_off_c, 3, 60, 64
5, 87120, Note_on_c, 3, 59, 72
5, 87180, Note_off_c, 3, 59, 64
5, 87240, Note_on_c, 3, 57, 72
5, 87300, Note_off_c, 3, 57, 64
5, 87360, Note_on_c, 3, 55, 72
5, 87420, Note_off_c, 3, 55, 64
5, 87480, Note_on_c, 3, 53, 72
5, 87540, Note_off_c, 3, 53, 64
5, 87600, Note_on_c, 3, 52, 72
5, 87660, Note_off_c, 3, 52, 64
5, 87720, Note_on_c, 3, 50, 72
5, 87780, Note_off_c, 3, 50, 64
5, 87840, Note_on_c, 3, 48, 72
5, 87900, Note_off_c, 3, 48, 64
5, 87960, Note_on_c, 3, 50, 72
5, 88020, Note_off_c, 3, 50, 64
5, 88080, Note_on_c, 3, 52, 72
5, 88140, Note_off_c, 3, 52, 64
5, 88200, Note_on_c, 3, 48, 72
5, 88260, Note_off_c, 3, 48, 64
5, 88320, Note_on_c, 3, 47, 72
5, 88380, Note_off_c, 3, 47, 64
5, 88440, Note_on_c, 3, 43, 72
5, 88500, Note_off_c, 3, 43, 64
5, 88560, Note_on_c, 3, 45, 72
5, 88620, Note_off_c, 3, 45, 64
5, 88680, Note_on_c, 3, 47, 72
5, 88740, Note_off_c, 3, 47, 64
5, 88800, Note_on_c, 3, 48, 72
5, 88860, Note_off_c, 3, 48, 64
5, 88920, Note_on_c, 3, 50, 72
5, 88980, Note_off_c, 3, 50, 64
5, 89040, Note_on_c, 3, 52, 72
5, 89100, Note_off_c, 3, 52, 64
5, 89160, Note_on_c, 3, 53, 72
5, 89220, Note_off_c, 3, 53, 64
5, 89280, Note_on_c, 3, 55, 72
5, 89340, Note_off_c, 3, 55, 64
5, 89400, Note_on_c, 3, 57, 72
5, 89460, Note_off_c, 3, 57, 64
5, 89520, Note_on_c, 3, 59, 72
5, 89580, Note_off_c, 3, 59, 64
5, 89640, Note_on_c, 3, 60, 72
5, 89700, Note_off_c, 3, 60, 64
5, 89760, Note_on_c, 3, 62, 72
5, 89820, Note_off_c, 3, 62, 64
5, 89880, Note_on_c, 3, 60, 72
5, 89940, Note_off_c, 3, 60, 64
5, 90000, Note_on_c, 3, 59, 72
5, 90060, Note_off_c, 3, 59, 64
5, 90120, Note_on_c, 3, 57, 72
5, 90180, Note_off_c, 3, 57, 64
5, 90240, Note_on_c, 3, 55, 89
5, 90288, Note_off_c, 3, 55, 64
5, 90360, Note_on_c, 3, 57, 89
5, 90408, Note_off_c, 3, 57, 64
5, 90480, Note_on_c, 3, 59, 89
5, 90528, Note_off_c, 3, 59, 64
5, 90600, Note_on_c, 3, 60, 89
5, 90648, Note_off_c, 3, 60, 64
5, 90720, Note_on_c, 3, 62, 89
5, 90768, Note_off_c, 3, 62, 64
5, 90840, Note_on_c, 3, 60, 89
5, 90888, Note_off_c, 3, 60, 64
5, 90960, Note_on_c, 3, 59, 89
5, 91008, Note_off_c, 3, 59, 64
5, 91080, Note_on_c, 3, 57, 89
5, 91128, Note_off_c, 3, 57, 64
5, 91200, Note_on_c, 3, 55, 89
5, 91248, Note_off_c, 3, 55, 64
5, 91320, Note_on_c, 3, 53, 89
5, 91368, Note_off_c, 3, 53, 64
5, 91440, Note_on_c, 3, 52, 89
5, 91488, Note_off_c, 3, 52, 64
5, 91560, Note_on_c, 3, 50, 89
5, 91608, Note_off_c, 3, 50, 64
5, 91680, Note_on_c, 3, 48, 89
5, 91728, Note_off_c, 3, 48, 64
5, 91800, Note_on_c, 3, 47, 89
5, 91848, Note_off_c, 3, 47, 64
5, 91920, Note_on_c, 3, 45, 89
5, 91968, Note_off_c, 3, 45, 64
5, 92040, Note_on_c, 3, 43, 89
5, 92088, Note_off_c, 3, 43, 64
5, 92160, Note_on_c, 3, 48, 89
5, 92208, Note_off_c, 3, 48, 64
5, 92280, Note_on_c, 3, 50, 89
5, 92328, Note_off_c, 3, 50, 64
5, 92400, Note_on_c, 3, 52, 89
5, 92448, Note_off_c, 3, 52, 64
5, 92520, Note_on_c, 3, 53, 89
5, 92568, Note_off_c, 3, 53, 64
5, 92640, Note_on_c, 3, 55, 89
5, 92688, Note_off_c, 3, 55, 64
5, 92760, Note_on_c, 3, 53, 89
5, 92808, Note_off_c, 3, 53, 64
5, 92880, Note_on_c, 3, 52, 89
5, 92928, Note_off_c, 3, 52, 64
5, 93000, Note_on_c, 3, 50, 89
5, 93048, Note_off_c, 3, 50, 64
5, 93120, Note_on_c, 3, 48, 89
5, 93168, Note_off_c, 3, 48, 64
5, 93240, Note_on_c, 3, 50, 89
5, 93288, Note_off_c, 3, 50, 64
5, 93360, Note_on_c, 3, 52, 89
5, 93408, Note_off_c, 3, 52, 64
5, 93480, Note_on_c, 3, 53, 89
5, 93528, Note_off_c, 3, 53, 64
5, 93600, Note_on_c, 3, 55, 89
5, 93648, Note_off_c, 3, 55, 64
5, 93720, Note_on_c, 3, 57, 89
5, 93768, Note_off_c, 3, 57, 64
5, 93840, Note_on_c, 3, 59, 89
5, 93888, Note_off_c, 3, 59, 64
5, 93960, Note_on_c, 3, 60, 89
5, 94008, Note_off_c, 3, 60, 64
5, 94080, Note_on_c, 3, 48, 89
5, 94128, Note_off_c, 3, 48, 64
5, 94200, Note_on_c, 3, 60, 89
5, 94248, Note_off_c, 3, 60, 64
5, 94320, Note_on_c, 3, 59, 89
5, 94368, Note_off_c, 3, 59, 64
5, 94440, Note_on_c, 3, 57, 89
5, 94488, Note_off_c, 3, 57, 64
5, 94560, Note_on_c, 3, 55, 89
5, 94608, Note_off_c, 3, 55, 64
5, 94680, Note_on_c, 3, 60, 89
5, 94728, Note_off_c, 3, 60, 64
5, 94800, Note_on_c, 3, 59, 89
5, 94848, Note_off_c, 3, 59, 64
5, 94920, Note_on_c, 3, 57, 89
5, 94968, Note_off_c, 3, 57, 64
5, 95040, Note_on_c, 3, 55, 89
5, 95088, Note_off_c, 3, 55, 64
5, 95160, Note_on_c, 3, 57, 89
5, 95208, Note_off_c, 3, 57, 64
5, 95280, Note_on_c, 3, 59, 89
5, 95328, Note_off_c, 3, 59, 64
5, 95400, Note_on_c, 3, 60, 89
5, 95448, Note_off_c, 3, 60, 64
5, 95520, Note_on_c, 3, 62, 89
5, 95568, Note_off_c, 3, 62, 64
5, 95640, Note_on_c, 3, 64, 89
5, 95688, Note_off_c, 3, 64, 64
5, 95760, Note_on_c, 3, 62, 89
5, 95808, Note_off_c, 3, 62, 64
5, 95880, Note_on_c, 3, 60, 89
5, 95928, Note_off_c, 3, 60, 64
5, 96000, Note_on_c, 3, 59, 89
5, 96048, Note_off_c, 3, 59, 64
5, 96120, Note_on_c, 3, 60, 89
5, 96168, Note_off_c, 3, 60, 64
5, 96240, Note_on_c, 3, 62, 89
5, 96288, Note_off_c, 3, 62, 64
5, 96360, Note_on_c, 3, 64, 89
5, 96408, Note_off_c, 3, 64, 64
5, 96480, Note_on_c, 3, 65, 89
5, 96528, Note_off_c, 3, 65, 64
5, 96600, Note_on_c, 3, 55, 89
5, 96648, Note_off_c, 3, 55, 64
5, 96720, Note_on_c, 3, 57, 89
5, 96768, Note_off_c, 3, 57, 64
5, 96840, Note_on_c, 3, 59, 89
5, 96888, Note_off_c, 3, 59, 64
5, 96960, Note_on_c, 3, 60, 89
5, 97008, Note_off_c, 3, 60, 64
5, 97080, Note_on_c, 3, 59, 89
5, 97128, Note_off_c, 3, 59, 64
5, 97200, Note_on_c, 3, 57, 89
5, 97248, Note_off_c, 3, 57, 64
5, 97320, Note_on_c, 3, 55, 89
5, 97368, Note_off_c, 3, 55, 64
5, 97440, Note_on_c, 3, 53, 89
5, 97488, Note_off_c, 3, 53, 64
5, 97560, Note_on_c, 3, 52, 89
5, 97608, Note_off_c, 3, 52, 64
5, 97680, Note_on_c, 3, 50, 89
5, 97728, Note_off_c, 3, 50, 64
5, 97800, Note_on_c, 3, 48, 89
5, 97848, Note_off_c, 3, 48, 64
5, 97920, Note_on_c, 3, 43, 89
5, 97968, Note_off_c, 3, 43, 64
5, 98040, Note_on_c, 3, 55, 89
5, 98088, Note_off_c, 3, 55, 64
5, 98160, Note_on_c, 3, 53, 89
5, 98208, Note_off_c, 3, 53, 64
5, 98280, Note_on_c, 3, 52, 89
5, 98328, Note_off_c, 3, 52, 64
5, 98400, Note_on_c, 3, 50, 89
5, 98448, Note_off_c, 3, 50, 64
5, 98520, Note_on_c, 3, 48, 89
5, 98568, Note_off_c, 3, 48, 64
5, 98640, Note_on_c, 3, 47, 89
5, 98688, Note_off_c, 3, 47, 64
5, 98760, Note_on_c, 3, 45, 89
5, 98808, Note_off_c, 3, 45, 64
5, 98880, Note_on_c, 3, 43, 89
5, 98928, Note_off_c, 3, 43, 64
5, 99000, Note_on_c, 3, 45, 89
5, 99048, Note_off_c, 3, 45, 64
5, 99120, Note_on_c, 3, 47, 89
5, 99168, Note_off_c, 3, 47, 64
5, 99240, Note_on_c, 3, 48, 89
5, 99288, Note_off_c, 3, 48, 64
5, 99360, Note_on_c, 3, 50, 89
5, 99408, Note_off_c, 3, 50, 64
5, 99480, Note_on_c, 3, 52, 89
5, 99528, Note_off_c, 3, 52, 64
5, 99600, Note_on_c, 3, 53, 89
5, 99648, Note_off_c, 3, 53, 64
5, 99720, Note_on_c, 3, 55, 89
5, 99768, Note_off_c, 3, 55, 64
5, 99840, Note_on_c, 3, 48, 89
5, 99888, Note_off_c, 3, 48, 64
5, 99960, Note_on_c, 3, 60, 89
5, 100008, Note_off_c, 3, 60, 64
5, 100080, Note_on_c, 3, 59, 89
5, 100128, Note_off_c, 3, 59, 64
5, 100200, Note_on_c, 3, 57, 89
5, 100248, Note_off_c, 3, 57, 64
5, 100320, Note_on_c, 3, 55, 89
5, 100368, Note_off_c, 3, 55, 64
5, 100440, Note_on_c, 3, 53, 89
5, 100488, Note_off_c, 3, 53, 64
5, 100560, Note_on_c, 3, 52, 89
5, 100608, Note_off_c, 3, 52, 64
5, 100680, Note_on_c, 3, 50, 89
5, 100728, Note_off_c, 3, 50, 64
5, 100800, Note_on_c, 3, 48, 89
5, 100848, Note_off_c, 3, 48, 64
5, 100920, Note_on_c, 3, 50, 89
5, 100968, Note_off_c, 3, 50, 64
5, 101040, Note_on_c, 3, 52, 89
5, 101088, Note_off_c, 3, 52, 64
5, 101160, Note_on_c, 3, 53, 89
5, 101208, Note_off_c, 3, 53, 64
5, 101280, Note_on_c, 3, 55, 89
5, 101328, Note_off_c, 3, 55, 64
5, 101400, Note_on_c, 3, 57, 89
5, 101448, Note_off_c, 3, 57, 64
5, 101520, Note_on_c, 3, 59, 89
5, 101568, Note_off_c, 3, 59, 64
5, 101640, Note_on_c, 3, 60, 89
5, 101688, Note_off_c, 3, 60, 64
5, 101760, Note_on_c, 3, 55, 89
5, 101808, Note_off_c, 3, 55, 64
5, 101880, Note_on_c, 3, 60, 89
5, 101928, Note_off_c, 3, 60, 64
5, 102000, Note_on_c, 3, 59, 89
5, 102048, Note_off_c, 3, 59, 64
5, 102120, Note_on_c, 3, 57, 89
5, 102168, Note_off_c, 3, 57, 64
5, 102240, Note_on_c, 3, 55, 89
5, 102288, Note_off_c, 3, 55, 64
5, 102360, Note_on_c, 3, 60, 89
5, 102408, Note_off_c, 3, 60, 64
5, 102480, Note_on_c, 3, 59, 89
5, 102528, Note_off_c, 3, 59, 64
5, 102600, Note_on_c, 3, 57, 89
5, 102648, Note_off_c, 3, 57, 64
5, 102720, Note_on_c, 3, 55, 89
5, 102768, Note_off_c, 3, 55, 64
5, 102840, Note_on_c, 3, 57, 89
5, 102888, Note_off_c, 3, 57, 64
5, 102960, Note_on_c, 3, 59, 89
5, 103008, Note_off_c, 3, 59, 64
5, 103080, Note_on_c, 3, 60, 89
5, 103128, Note_off_c, 3, 60, 64
5, 103200, Note_on_c, 3, 62, 89
5, 103248, Note_off_c, 3, 62, 64
5, 103320, Note_on_c, 3, 64, 89
5, 103368, Note_off_c, 3, 64, 64
5, 103440, Note_on_c, 3, 62, 89
5, 103488, Note_off_c, 3, 62, 64
5, 103560, Note_on_c, 3, 60, 89
5, 103608, Note_off_c, 3, 60, 64
5, 103680, Note_on_c, 3, 59, 89
5, 103728, Note_off_c, 3, 59, 64
5, 103800, Note_on_c, 3, 60, 89
5, 103848, Note_off_c, 3, 60, 64
5, 103920, Note_on_c, 3, 62, 89
5, 103968, Note_off_c, 3, 62, 64
5, 104040, Note_on_c, 3, 64, 89
5, 104088, Note_off_c, 3, 64, 64
5, 104160, Note_on_c, 3, 65, 89
5, 104208, Note_off_c, 3, 65, 64
5, 104280, Note_on_c, 3, 55, 89
5, 104328, Note_off_c, 3, 55, 64
5, 104400, Note_on_c, 3, 57, 89
5, 104448, Note_off_c, 3, 57, 64
5, 104520, Note_on_c, 3, 59, 89
5, 104568, Note_off_c, 3, 59, 64
5, 104640, Note_on_c, 3, 60, 89
5, 104688, Note_off_c, 3, 60, 64
5, 104760, Note_on_c, 3, 55, 89
5, 104808, Note_off_c, 3, 55, 64
5, 104880, Note_on_c, 3, 57, 89
5, 104928, Note_off_c, 3, 57, 64
5, 105000, Note_on_c, 3, 59, 89
5, 105048, Note_off_c, 3, 59, 64
5, 105120, Note_on_c, 3, 60, 89
5, 105168, Note_off_c, 3, 60, 64
5, 105240, Note_on_c, 3, 62, 89
5, 105288, Note_off_c, 3, 62, 64
5, 105360, Note_on_c, 3, 64, 89
5, 105408, Note_off_c, 3, 64, 64
5, 105480, Note_on_c, 3, 60, 89
5, 105528, Note_off_c, 3, 60, 64
5, 105600, Note_on_c, 3, 59, 53
5, 105648, Note_off_c, 3, 59, 64
5, 105720, Note_on_c, 3, 60, 53
5, 105768, Note_off_c, 3, 60, 64
5, 105840, Note_on_c, 3, 62, 53
5, 105888, Note_off_c, 3, 62, 64
5, 105960, Note_on_c, 3, 64, 53
5, 106008, Note_off_c, 3, 64, 64
5, 106080, Note_on_c, 3, 65, 53
5, 106128, Note_off_c, 3, 65, 64
5, 106200, Note_on_c, 3, 55, 53
5, 106248, Note_off_c, 3, 55, 64
5, 106320, Note_on_c, 3, 57, 53
5, 106368, Note_off_c, 3, 57, 64
5, 106440, Note_on_c, 3, 59, 53
5, 106488, Note_off_c, 3, 59, 64
5, 106560, Note_on_c, 3, 60, 53
5, 106608, Note_off_c, 3, 60, 64
5, 106680, Note_on_c, 3, 59, 53
5, 106728, Note_off_c, 3, 59, 64
5, 106800, Note_on_c, 3, 57, 53
5, 106848, Note_off_c, 3, 57, 64
5, 106920, Note_on_c, 3, 55, 53
5, 106968, Note_off_c, 3, 55, 64
5, 107040, Note_on_c, 3, 53, 53
5, 107088, Note_off_c, 3, 53, 64
5, 107160, Note_on_c, 3, 52, 53
5, 107208, Note_off_c, 3, 52, 64
5, 107280, Note_on_c, 3, 50, 53
5, 107328, Note_off_c, 3, 50, 64
5, 107400, Note_on_c, 3, 48, 53
5, 107448, Note_off_c, 3, 48, 64
5, 107520, Note_on_c, 3, 43, 36
5, 107904, Note_off_c, 3, 43, 64
5, 115200, Note_on_c, 3, 60, 71
5, 115728, Note_off_c, 3, 60, 64
5, 115800, Note_on_c, 3, 64, 57
5, 115848, Note_off_c, 3, 64, 64
5, 115920, Note_on_c, 3, 62, 57
5, 115968, Note_off_c, 3, 62, 64
5, 116040, Note_on_c, 3, 60, 57
5, 116088, Note_off_c, 3, 60, 64
5, 116160, Note_on_c, 3, 59, 57
5, 116208, Note_off_c, 3, 59, 64
5, 116280, Note_on_c, 3, 60, 57
5, 116328, Note_off_c, 3, 60, 64
5, 116400, Note_on_c, 3, 62, 57
5, 116448, Note_off_c, 3, 62, 64
5, 116520, Note_on_c, 3, 64, 57
5, 116568, Note_off_c, 3, 64, 64
5, 116640, Note_on_c, 3, 67, 57
5, 116688, Note_off_c, 3, 67, 64
5, 116760, Note_on_c, 3, 65, 57
5, 116808, Note_off_c, 3, 65, 64
5, 116880, Note_on_c, 3, 62, 57
5, 116928, Note_off_c, 3, 62, 64
5, 117000, Note_on_c, 3, 67, 57
5, 117048, Note_off_c, 3, 67, 64
5, 117120, Note_on_c, 3, 67, 57
5, 117168, Note_off_c, 3, 67, 64
5, 117240, Note_on_c, 3, 67, 57
5, 117288, Note_off_c, 3, 67, 64
5, 117360, Note_on_c, 3, 65, 57
5, 117408, Note_off_c, 3, 65, 64
5, 117480, Note_on_c, 3, 64, 57
5, 117528, Note_off_c, 3, 64, 64
5, 117600, Note_on_c, 3, 62, 57
5, 117648, Note_off_c, 3, 62, 64
5, 117720, Note_on_c, 3, 60, 57
5, 117768, Note_off_c, 3, 60, 64
5, 117840, Note_on_c, 3, 59, 57
5, 117888, Note_off_c, 3, 59, 64
5, 117960, Note_on_c, 3, 60, 57
5, 118008, Note_off_c, 3, 60, 64
5, 118080, Note_on_c, 3, 62, 57
5, 118128, Note_off_c, 3, 62, 64
5, 118200, Note_on_c, 3, 60, 57
5, 118248, Note_off_c, 3, 60, 64
5, 118320, Note_on_c, 3, 59, 57
5, 118368, Note_off_c, 3, 59, 64
5, 118440, Note_on_c, 3, 57, 57
5, 118488, Note_off_c, 3, 57, 64
5, 118560, Note_on_c, 3, 55, 57
5, 118608, Note_off_c, 3, 55, 64
5, 118680, Note_on_c, 3, 55, 57
5, 118728, Note_off_c, 3, 55, 64
5, 118800, Note_on_c, 3, 57, 57
5, 118848, Note_off_c, 3, 57, 64
5, 118920, Note_on_c, 3, 59, 57
5, 118968, Note_off_c, 3, 59, 64
5, 119040, Note_on_c, 3, 60, 57
5, 119040, Note_on_c, 3, 55, 57
5, 119088, Note_off_c, 3, 55, 64
5, 119088, Note_off_c, 3, 60, 64
5, 119160, Note_on_c, 3, 55, 57
5, 119160, Note_on_c, 3, 64, 57
5, 119208, Note_off_c, 3, 64, 64
5, 119208, Note_off_c, 3, 55, 64
5, 119280, Note_on_c, 3, 55, 57
5, 119280, Note_on_c, 3, 62, 57
5, 119328, Note_off_c, 3, 62, 64
5, 119328, Note_off_c, 3, 55, 64
5, 119400, Note_on_c, 3, 60, 57
5, 119400, Note_on_c, 3, 55, 57
5, 119448, Note_off_c, 3, 55, 64
5, 119448, Note_off_c, 3, 60, 64
5, 119520, Note_on_c, 3, 55, 57
5, 119520, Note_on_c, 3, 62, 57
5, 119568, Note_off_c, 3, 62, 64
5, 119568, Note_off_c, 3, 55, 64
5, 119640, Note_on_c, 3, 55, 57
5, 119640, Note_on_c, 3, 65, 57
5, 119688, Note_off_c, 3, 65, 64
5, 119688, Note_off_c, 3, 55, 64
5, 119760, Note_on_c, 3, 64, 57
5, 119760, Note_on_c, 3, 55, 57
5, 119808, Note_off_c, 3, 55, 64
5, 119808, Note_off_c, 3, 64, 64
5, 119880, Note_on_c, 3, 55, 57
5, 119880, Note_on_c, 3, 62, 57
5, 119928, Note_off_c, 3, 62, 64
5, 119928, Note_off_c, 3, 55, 64
5, 120000, Note_on_c, 3, 55, 57
5, 120000, Note_on_c, 3, 64, 57
5, 120048, Note_off_c, 3, 64, 64
5, 120048, Note_off_c, 3, 55, 64
5, 120120, Note_on_c, 3, 55, 57
5, 120120, Note_on_c, 3, 67, 57
5, 120168, Note_off_c, 3, 67, 64
5, 120168, Note_off_c, 3, 55, 64
5, 120240, Note_on_c, 3, 65, 57
5, 120240, Note_on_c, 3, 55, 57
5, 120288, Note_off_c, 3, 55, 64
5, 120288, Note_off_c, 3, 65, 64
5, 120360, Note_on_c, 3, 64, 57
5, 120360, Note_on_c, 3, 55, 57
5, 120408, Note_off_c, 3, 55, 64
5, 120408, Note_off_c, 3, 64, 64
5, 120480, Note_on_c, 3, 57, 57
5, 120480, Note_on_c, 3, 62, 57
5, 120528, Note_off_c, 3, 62, 64
5, 120528, Note_off_c, 3, 57, 64
5, 120600, Note_on_c, 3, 60, 57
5, 120600, Note_on_c, 3, 55, 57
5, 120648, Note_off_c, 3, 55, 64
5, 120648, Note_off_c, 3, 60, 64
5, 120720, Note_on_c, 3, 53, 57
5, 120720, Note_on_c, 3, 59, 57
5, 120768, Note_off_c, 3, 59, 64
5, 120768, Note_off_c, 3, 53, 64
5, 120840, Note_on_c, 3, 52, 57
5, 120840, Note_on_c, 3, 60, 57
5, 120888, Note_off_c, 3, 60, 64
5, 120888, Note_off_c, 3, 52, 64
5, 120960, Note_on_c, 3, 62, 34
5, 120960, Note_on_c, 3, 59, 34
5, 121008, Note_off_c, 3, 59, 64
5, 121008, Note_off_c, 3, 62, 64
5, 121080, Note_on_c, 3, 62, 35
5, 121128, Note_off_c, 3, 62, 64
5, 121200, Note_on_c, 3, 60, 36
5, 121248, Note_off_c, 3, 60, 64
5, 121320, Note_on_c, 3, 59, 37
5, 121368, Note_off_c, 3, 59, 64
5, 121440, Note_on_c, 3, 57, 39
5, 121488, Note_off_c, 3, 57, 64
5, 121560, Note_on_c, 3, 55, 40
5, 121608, Note_off_c, 3, 55, 64
5, 121680, Note_on_c, 3, 54, 41
5, 121728, Note_off_c, 3, 54, 64
5, 121800, Note_on_c, 3, 55, 41
5, 121848, Note_off_c, 3, 55, 64
5, 121920, Note_on_c, 3, 57, 43
5, 121968, Note_off_c, 3, 57, 64
5, 122040, Note_on_c, 3, 55, 43
5, 122088, Note_off_c, 3, 55, 64
5, 122160, Note_on_c, 3, 54, 44
5, 122208, Note_off_c, 3, 54, 64
5, 122280, Note_on_c, 3, 52, 45
5, 122328, Note_off_c, 3, 52, 64
5, 122400, Note_on_c, 3, 50, 46
5, 122448, Note_off_c, 3, 50, 64
5, 122520, Note_on_c, 3, 62, 48
5, 122568, Note_off_c, 3, 62, 64
5, 122640, Note_on_c, 3, 64, 49
5, 122688, Note_off_c, 3, 64, 64
5, 122760, Note_on_c, 3, 66, 50
5, 122808, Note_off_c, 3, 66, 64
5, 122880, Note_on_c, 3, 59, 41
5, 122880, Note_on_c, 3, 67, 41
5, 122928, Note_off_c, 3, 67, 64
5, 122928, Note_off_c, 3, 59, 64
5, 123000, Note_on_c, 3, 52, 41
5, 123048, Note_off_c, 3, 52, 64
5, 123120, Note_on_c, 3, 50, 42
5, 123168, Note_off_c, 3, 50, 64
5, 123240, Note_on_c, 3, 47, 43
5, 123288, Note_off_c, 3, 47, 64
5, 123360, Note_on_c, 3, 53, 44
5, 123408, Note_off_c, 3, 53, 64
5, 123480, Note_on_c, 3, 52, 45
5, 123528, Note_off_c, 3, 52, 64
5, 123600, Note_on_c, 3, 48, 46
5, 123648, Note_off_c, 3, 48, 64
5, 123720, Note_on_c, 3, 53, 47
5, 123768, Note_off_c, 3, 53, 64
5, 123840, Note_on_c, 3, 50, 48
5, 123888, Note_off_c, 3, 50, 64
5, 123960, Note_on_c, 3, 55, 48
5, 124008, Note_off_c, 3, 55, 64
5, 124080, Note_on_c, 3, 53, 49
5, 124128, Note_off_c, 3, 53, 64
5, 124200, Note_on_c, 3, 50, 50
5, 124248, Note_off_c, 3, 50, 64
5, 124320, Note_on_c, 3, 57, 50
5, 124368, Note_off_c, 3, 57, 64
5, 124440, Note_on_c, 3, 55, 51
5, 124488, Note_off_c, 3, 55, 64
5, 124560, Note_on_c, 3, 52, 52
5, 124608, Note_off_c, 3, 52, 64
5, 124680, Note_on_c, 3, 57, 53
5, 124728, Note_off_c, 3, 57, 64
5, 124800, Note_on_c, 3, 53, 54
5, 124848, Note_off_c, 3, 53, 64
5, 124920, Note_on_c, 3, 59, 55
5, 124968, Note_off_c, 3, 59, 64
5, 125040, Note_on_c, 3, 57, 56
5, 125088, Note_off_c, 3, 57, 64
5, 125160, Note_on_c, 3, 53, 57
5, 125208, Note_off_c, 3, 53, 64
5, 125280, Note_on_c, 3, 60, 58
5, 125328, Note_off_c, 3, 60, 64
5, 125400, Note_on_c, 3, 59, 59
5, 125448, Note_off_c, 3, 59, 64
5, 125520, Note_on_c, 3, 55, 59
5, 125568, Note_off_c, 3, 55, 64
5, 125640, Note_on_c, 3, 60, 60
5, 125688, Note_off_c, 3, 60, 64
5, 125760, Note_on_c, 3, 57, 61
5, 125808, Note_off_c, 3, 57, 64
5, 125880, Note_on_c, 3, 62, 61
5, 125928, Note_off_c, 3, 62, 64
5, 126000, Note_on_c, 3, 60, 62
5, 126048, Note_off_c, 3, 60, 64
5, 126120, Note_on_c, 3, 57, 63
5, 126168, Note_off_c, 3, 57, 64
5, 126240, Note_on_c, 3, 64, 64
5, 126288, Note_off_c, 3, 64, 64
5, 126360, Note_on_c, 3, 62, 65
5, 126408, Note_off_c, 3, 62, 64
5, 126480, Note_on_c, 3, 59, 66
5, 126528, Note_off_c, 3, 59, 64
5, 126600, Note_on_c, 3, 64, 67
5, 126648, Note_off_c, 3, 64, 64
5, 126720, Note_on_c, 3, 60, 54
5, 126768, Note_off_c, 3, 60, 64
5, 126840, Note_on_c, 3, 65, 55
5, 126888, Note_off_c, 3, 65, 64
5, 126960, Note_on_c, 3, 64, 56
5, 127008, Note_off_c, 3, 64, 64
5, 127080, Note_on_c, 3, 60, 56
5, 127128, Note_off_c, 3, 60, 64
5, 127200, Note_on_c, 3, 67, 57
5, 127248, Note_off_c, 3, 67, 64
5, 127320, Note_on_c, 3, 65, 58
5, 127368, Note_off_c, 3, 65, 64
5, 127440, Note_on_c, 3, 62, 59
5, 127488, Note_off_c, 3, 62, 64
5, 127560, Note_on_c, 3, 67, 59
5, 127608, Note_off_c, 3, 67, 64
5, 127680, Note_on_c, 3, 64, 59
5, 127728, Note_off_c, 3, 64, 64
5, 127800, Note_on_c, 3, 69, 59
5, 127848, Note_off_c, 3, 69, 64
5, 127920, Note_on_c, 3, 67, 60
5, 127968, Note_off_c, 3, 67, 64
5, 128040, Note_on_c, 3, 64, 61
5, 128088, Note_off_c, 3, 64, 64
5, 128160, Note_on_c, 3, 53, 72
5, 128160, Note_on_c, 3, 57, 72
5, 128700, Note_off_c, 3, 57, 64
5, 128700, Note_off_c, 3, 53, 64
5, 128760, Note_on_c, 3, 47, 108
5, 128820, Note_off_c, 3, 47, 64
5, 128880, Note_on_c, 3, 48, 108
5, 128940, Note_off_c, 3, 48, 64
5, 129000, Note_on_c, 3, 50, 108
5, 129060, Note_off_c, 3, 50, 64
5, 129240, Note_on_c, 3, 50, 108
5, 129300, Note_off_c, 3, 50, 64
5, 129360, Note_on_c, 3, 52, 108
5, 129420, Note_off_c, 3, 52, 64
5, 129480, Note_on_c, 3, 53, 108
5, 129540, Note_off_c, 3, 53, 64
5, 129720, Note_on_c, 3, 53, 108
5, 129780, Note_off_c, 3, 53, 64
5, 129840, Note_on_c, 3, 55, 108
5, 129900, Note_off_c, 3, 55, 64
5, 129960, Note_on_c, 3, 57, 108
5, 130020, Note_off_c, 3, 57, 64
5, 130200, Note_on_c, 3, 59, 108
5, 130260, Note_off_c, 3, 59, 64
5, 130320, Note_on_c, 3, 60, 108
5, 130380, Note_off_c, 3, 60, 64
5, 130440, Note_on_c, 3, 62, 108
5, 130500, Note_off_c, 3, 62, 64
5, 130680, Note_on_c, 3, 47, 108
5, 130740, Note_off_c, 3, 47, 64
5, 130800, Note_on_c, 3, 48, 108
5, 130860, Note_off_c, 3, 48, 64
5, 130920, Note_on_c, 3, 50, 108
5, 130980, Note_off_c, 3, 50, 64
5, 131160, Note_on_c, 3, 52, 108
5, 131220, Note_off_c, 3, 52, 64
5, 131280, Note_on_c, 3, 53, 108
5, 131340, Note_off_c, 3, 53, 64
5, 131400, Note_on_c, 3, 55, 108
5, 131460, Note_off_c, 3, 55, 64
5, 131640, Note_on_c, 3, 55, 108
5, 131700, Note_off_c, 3, 55, 64
5, 131760, Note_on_c, 3, 57, 108
5, 131820, Note_off_c, 3, 57, 64
5, 131880, Note_on_c, 3, 59, 108
5, 131940, Note_off_c, 3, 59, 64
5, 132120, Note_on_c, 3, 60, 108
5, 132180, Note_off_c, 3, 60, 64
5, 132240, Note_on_c, 3, 62, 108
5, 132300, Note_off_c, 3, 62, 64
5, 132360, Note_on_c, 3, 64, 108
5, 132420, Note_off_c, 3, 64, 64
5, 132600, Note_on_c, 3, 49, 108
5, 132660, Note_off_c, 3, 49, 64
5, 132720, Note_on_c, 3, 50, 108
5, 132780, Note_off_c, 3, 50, 64
5, 132840, Note_on_c, 3, 52, 108
5, 132900, Note_off_c, 3, 52, 64
5, 133080, Note_on_c, 3, 53, 108
5, 133140, Note_off_c, 3, 53, 64
5, 133200, Note_on_c, 3, 55, 108
5, 133260, Note_off_c, 3, 55, 64
5, 133320, Note_on_c, 3, 57, 108
5, 133380, Note_off_c, 3, 57, 64
5, 133560, Note_on_c, 3, 59, 108
5, 133620, Note_off_c, 3, 59, 64
5, 133680, Note_on_c, 3, 60, 108
5, 133740, Note_off_c, 3, 60, 64
5, 133800, Note_on_c, 3, 62, 108
5, 133860, Note_off_c, 3, 62, 64
5, 134040, Note_on_c, 3, 62, 108
5, 134100, Note_off_c, 3, 62, 64
5, 134160, Note_on_c, 3, 64, 108
5, 134220, Note_off_c, 3, 64, 64
5, 134280, Note_on_c, 3, 65, 108
5, 134340, Note_off_c, 3, 65, 64
5, 134520, Note_on_c, 3, 47, 108
5, 134580, Note_off_c, 3, 47, 64
5, 134640, Note_on_c, 3, 48, 108
5, 134700, Note_off_c, 3, 48, 64
5, 134760, Note_on_c, 3, 50, 108
5, 134820, Note_off_c, 3, 50, 64
5, 135000, Note_on_c, 3, 52, 108
5, 135060, Note_off_c, 3, 52, 64
5, 135120, Note_on_c, 3, 53, 108
5, 135180, Note_off_c, 3, 53, 64
5, 135240, Note_on_c, 3, 55, 108
5, 135300, Note_off_c, 3, 55, 64
5, 135480, Note_on_c, 3, 55, 108
5, 135540, Note_off_c, 3, 55, 64
5, 135600, Note_on_c, 3, 57, 108
5, 135660, Note_off_c, 3, 57, 64
5, 135720, Note_on_c, 3, 59, 108
5, 135780, Note_off_c, 3, 59, 64
5, 135960, Note_on_c, 3, 60, 108
5, 136020, Note_off_c, 3, 60, 64
5, 136080, Note_on_c, 3, 62, 108
5, 136140, Note_off_c, 3, 62, 64
5, 136200, Note_on_c, 3, 64, 108
5, 136260, Note_off_c, 3, 64, 64
5, 136440, Note_on_c, 3, 53, 106
5, 136536, Note_off_c, 3, 53, 64
5, 136560, Note_on_c, 3, 64, 104
5, 136656, Note_off_c, 3, 64, 64
5, 136680, Note_on_c, 3, 62, 102
5, 136776, Note_off_c, 3, 62, 64
5, 136800, Note_on_c, 3, 61, 100
5, 136896, Note_off_c, 3, 61, 64
5, 136920, Note_on_c, 3, 62, 98
5, 137016, Note_off_c, 3, 62, 64
5, 137040, Note_on_c, 3, 53, 96
5, 137136, Note_off_c, 3, 53, 64
5, 137160, Note_on_c, 3, 62, 80
5, 137256, Note_off_c, 3, 62, 64
5, 137400, Note_on_c, 3, 52, 90
5, 137496, Note_off_c, 3, 52, 64
5, 137520, Note_on_c, 3, 62, 88
5, 137616, Note_off_c, 3, 62, 64
5, 137640, Note_on_c, 3, 60, 86
5, 137736, Note_off_c, 3, 60, 64
5, 137760, Note_on_c, 3, 59, 85
5, 137856, Note_off_c, 3, 59, 64
5, 137880, Note_on_c, 3, 60, 83
5, 137976, Note_off_c, 3, 60, 64
5, 138000, Note_on_c, 3, 52, 80
5, 138096, Note_off_c, 3, 52, 64
5, 138120, Note_on_c, 3, 60, 67
5, 138216, Note_off_c, 3, 60, 64
5, 138360, Note_on_c, 3, 50, 75
5, 138456, Note_off_c, 3, 50, 64
5, 138480, Note_on_c, 3, 60, 73
5, 138576, Note_off_c, 3, 60, 64
5, 138600, Note_on_c, 3, 59, 70
5, 138696, Note_off_c, 3, 59, 64
5, 138720, Note_on_c, 3, 58, 68
5, 138816, Note_off_c, 3, 58, 64
5, 138840, Note_on_c, 3, 59, 67
5, 138936, Note_off_c, 3, 59, 64
5, 138960, Note_on_c, 3, 50, 65
5, 139056, Note_off_c, 3, 50, 64
5, 139080, Note_on_c, 3, 59, 54
5, 139176, Note_off_c, 3, 59, 64
5, 139320, Note_on_c, 3, 48, 59
5, 139416, Note_off_c, 3, 48, 64
5, 139440, Note_on_c, 3, 59, 57
5, 139536, Note_off_c, 3, 59, 64
5, 139560, Note_on_c, 3, 57, 55
5, 139656, Note_off_c, 3, 57, 64
5, 139680, Note_on_c, 3, 54, 53
5, 139776, Note_off_c, 3, 54, 64
5, 139800, Note_on_c, 3, 50, 51
5, 139896, Note_off_c, 3, 50, 64
5, 139920, Note_on_c, 3, 48, 49
5, 140016, Note_off_c, 3, 48, 64
5, 140040, Note_on_c, 3, 45, 47
5, 140136, Note_off_c, 3, 45, 64
5, 140160, Note_on_c, 3, 55, 36
5, 140544, Note_off_c, 3, 55, 64
5, 157080, Note_on_c, 3, 55, 29
5, 157120, Note_off_c, 3, 55, 64
5, 157120, Note_on_c, 3, 57, 29
5, 157160, Note_off_c, 3, 57, 64
5, 157160, Note_on_c, 3, 59, 29
5, 157200, Note_off_c, 3, 59, 64
5, 157200, Note_on_c, 3, 60, 29
5, 157440, Note_off_c, 3, 60, 64
5, 158040, Note_on_c, 3, 60, 29
5, 158100, Note_off_c, 3, 60, 64
5, 158100, Note_on_c, 3, 59, 24
5, 158160, Note_off_c, 3, 59, 64
5, 158160, Note_on_c, 3, 57, 29
5, 158400, Note_off_c, 3, 57, 64
5, 159000, Note_on_c, 3, 57, 29
5, 159040, Note_off_c, 3, 57, 64
5, 159040, Note_on_c, 3, 59, 29
5, 159080, Note_off_c, 3, 59, 64
5, 159080, Note_on_c, 3, 60, 29
5, 159120, Note_off_c, 3, 60, 64
5, 159120, Note_on_c, 3, 62, 29
5, 159360, Note_off_c, 3, 62, 64
5, 159960, Note_on_c, 3, 62, 29
5, 160020, Note_off_c, 3, 62, 64
5, 160020, Note_on_c, 3, 60, 24
5, 160080, Note_off_c, 3, 60, 64
5, 160080, Note_on_c, 3, 59, 29
5, 160320, Note_off_c, 3, 59, 64
5, 160920, Note_on_c, 3, 60, 29
5, 160980, Note_off_c, 3, 60, 64
5, 160980, Note_on_c, 3, 62, 29
5, 161040, Note_off_c, 3, 62, 64
5, 161040, Note_on_c, 3, 64, 29
5, 161280, Note_off_c, 3, 64, 64
5, 161880, Note_on_c, 3, 64, 24
5, 161940, Note_off_c, 3, 64, 64
5, 161940, Note_on_c, 3, 62, 24
5, 162000, Note_off_c, 3, 62, 64
5, 162000, Note_on_c, 3, 60, 29
5, 162240, Note_off_c, 3, 60, 64
5, 162840, Note_on_c, 3, 60, 29
5, 162880, Note_off_c, 3, 60, 64
5, 162880, Note_on_c, 3, 62, 29
5, 162920, Note_off_c, 3, 62, 64
5, 162920, Note_on_c, 3, 64, 29
5, 162960, Note_off_c, 3, 64, 64
5, 162960, Note_on_c, 3, 65, 29
5, 163200, Note_off_c, 3, 65, 64
5, 180720, Note_on_c, 3, 62, 87
5, 180720, Note_on_c, 3, 59, 67
5, 180816, Note_off_c, 3, 59, 64
5, 180816, Note_off_c, 3, 62, 64
5, 180960, Note_on_c, 3, 59, 67
5, 180960, Note_on_c, 3, 62, 67
5, 181056, Note_off_c, 3, 62, 64
5, 181056, Note_off_c, 3, 59, 64
5, 181200, Note_on_c, 3, 62, 67
5, 181200, Note_on_c, 3, 59, 67
5, 181296, Note_off_c, 3, 59, 64
5, 181296, Note_off_c, 3, 62, 64
5, 181680, Note_on_c, 3, 64, 87
5, 181680, Note_on_c, 3, 60, 67
5, 181776, Note_off_c, 3, 60, 64
5, 181776, Note_off_c, 3, 64, 64
5, 181920, Note_on_c, 3, 64, 67
5, 181920, Note_on_c, 3, 60, 67
5, 182016, Note_off_c, 3, 60, 64
5, 182016, Note_off_c, 3, 64, 64
5, 182160, Note_on_c, 3, 60, 67
5, 182160, Note_on_c, 3, 64, 67
5, 182256, Note_off_c, 3, 64, 64
5, 182256, Note_off_c, 3, 60, 64
5, 182640, Note_on_c, 3, 62, 87
5, 182640, Note_on_c, 3, 59, 67
5, 182736, Note_off_c, 3, 59, 64
5, 182736, Note_off_c, 3, 62, 64
5, 182880, Note_on_c, 3, 62, 67
5, 182880, Note_on_c, 3, 59, 67
5, 182976, Note_off_c, 3, 59, 64
5, 182976, Note_off_c, 3, 62, 64
5, 183120, Note_on_c, 3, 59, 67
5, 183120, Note_on_c, 3, 62, 67
5, 183216, Note_off_c, 3, 62, 64
5, 183216, Note_off_c, 3, 59, 64
5, 183600, Note_on_c, 3, 60, 108
5, 184368, Note_off_c, 3, 60, 64
5, 184560, Note_on_c, 3, 59, 89
5, 184800, Note_off_c, 3, 59, 64
5, 184800, Note_on_c, 3, 60, 89
5, 184920, Note_off_c, 3, 60, 64
5, 184920, Note_on_c, 3, 62, 89
5, 185040, Note_off_c, 3, 62, 64
5, 185040, Note_on_c, 3, 64, 109
5, 185136, Note_off_c, 3, 64, 64
5, 185280, Note_on_c, 3, 64, 89
5, 185376, Note_off_c, 3, 64, 64
5, 185520, Note_on_c, 3, 57, 89
5, 185760, Note_off_c, 3, 57, 64
5, 185760, Note_on_c, 3, 59, 89
5, 185880, Note_off_c, 3, 59, 64
5, 185880, Note_on_c, 3, 60, 89
5, 186000, Note_off_c, 3, 60, 64
5, 186000, Note_on_c, 3, 62, 109
5, 186096, Note_off_c, 3, 62, 64
5, 186240, Note_on_c, 3, 50, 89
5, 186336, Note_off_c, 3, 50, 64
5, 186480, Note_on_c, 3, 55, 89
5, 186720, Note_off_c, 3, 55, 64
5, 186720, Note_on_c, 3, 57, 89
5, 186840, Note_off_c, 3, 57, 64
5, 186840, Note_on_c, 3, 59, 89
5, 186960, Note_off_c, 3, 59, 64
5, 186960, Note_on_c, 3, 60, 109
5, 187056, Note_off_c, 3, 60, 64
5, 187200, Note_on_c, 3, 60, 89
5, 187296, Note_off_c, 3, 60, 64
5, 187440, Note_on_c, 3, 54, 89
5, 187680, Note_off_c, 3, 54, 64
5, 187680, Note_on_c, 3, 55, 89
5, 187800, Note_off_c, 3, 55, 64
5, 187800, Note_on_c, 3, 57, 89
5, 187920, Note_off_c, 3, 57, 64
5, 187920, Note_on_c, 3, 59, 109
5, 188016, Note_off_c, 3, 59, 64
5, 188160, Note_on_c, 3, 47, 89
5, 188256, Note_off_c, 3, 47, 64
5, 188400, Note_on_c, 3, 52, 89
5, 188640, Note_off_c, 3, 52, 64
5, 188640, Note_on_c, 3, 54, 89
5, 188760, Note_off_c, 3, 54, 64
5, 188760, Note_on_c, 3, 55, 89
5, 188880, Note_off_c, 3, 55, 64
5, 188880, Note_on_c, 3, 57, 109
5, 188976, Note_off_c, 3, 57, 64
5, 189120, Note_on_c, 3, 57, 89
5, 189216, Note_off_c, 3, 57, 64
5, 189360, Note_on_c, 3, 50, 89
5, 189600, Note_off_c, 3, 50, 64
5, 189600, Note_on_c, 3, 52, 89
5, 189720, Note_off_c, 3, 52, 64
5, 189720, Note_on_c, 3, 54, 89
5, 189840, Note_off_c, 3, 54, 64
5, 189840, Note_on_c, 3, 55, 89
5, 190080, Note_off_c, 3, 55, 64
5, 190080, Note_on_c, 3, 57, 89
5, 190200, Note_off_c, 3, 57, 64
5, 190200, Note_on_c, 3, 59, 89
5, 190320, Note_off_c, 3, 59, 64
5, 190320, Note_on_c, 3, 60, 89
5, 190416, Note_off_c, 3, 60, 64
5, 190560, Note_on_c, 3, 59, 89
5, 190656, Note_off_c, 3, 59, 64
5, 190680, Note_on_c, 3, 60, 89
5, 190776, Note_off_c, 3, 60, 64
5, 190800, Note_on_c, 3, 62, 109
5, 190896, Note_off_c, 3, 62, 64
5, 191040, Note_on_c, 3, 60, 89
5, 191136, Note_off_c, 3, 60, 64
5, 191280, Note_on_c, 3, 59, 89
5, 191376, Note_off_c, 3, 59, 64
5, 191520, Note_on_c, 3, 57, 89
5, 191616, Note_off_c, 3, 57, 64
5, 191640, Note_on_c, 3, 59, 89
5, 191736, Note_off_c, 3, 59, 64
5, 191760, Note_on_c, 3, 60, 109
5, 191856, Note_off_c, 3, 60, 64
5, 192000, Note_on_c, 3, 59, 89
5, 192096, Note_off_c, 3, 59, 64
5, 192240, Note_on_c, 3, 60, 89
5, 192336, Note_off_c, 3, 60, 64
5, 192480, Note_on_c, 3, 59, 89
5, 192576, Note_off_c, 3, 59, 64
5, 192600, Note_on_c, 3, 60, 89
5, 192696, Note_off_c, 3, 60, 64
5, 192720, Note_on_c, 3, 62, 109
5, 192816, Note_off_c, 3, 62, 64
5, 192960, Note_on_c, 3, 60, 89
5, 193056, Note_off_c, 3, 60, 64
5, 193200, Note_on_c, 3, 59, 72
5, 193584, Note_off_c, 3, 59, 64
5, 193680, Note_on_c, 3, 55, 72
5, 194064, Note_off_c, 3, 55, 64
5, 194160, Note_on_c, 3, 52, 111
5, 194400, Note_off_c, 3, 52, 64
5, 194400, Note_on_c, 3, 53, 111
5, 194520, Note_off_c, 3, 53, 64
5, 194520, Note_on_c, 3, 55, 111
5, 194640, Note_off_c, 3, 55, 64
5, 194640, Note_on_c, 3, 57, 127
5, 194736, Note_off_c, 3, 57, 64
5, 194880, Note_on_c, 3, 57, 111
5, 194976, Note_off_c, 3, 57, 64
5, 195120, Note_on_c, 3, 65, 72
5, 195120, Note_on_c, 3, 50, 111
5, 195360, Note_off_c, 3, 50, 64
5, 195360, Note_on_c, 3, 52, 111
5, 195480, Note_off_c, 3, 52, 64
5, 195480, Note_on_c, 3, 53, 111
5, 195600, Note_off_c, 3, 53, 64
5, 195600, Note_on_c, 3, 55, 127
5, 195696, Note_off_c, 3, 55, 64
5, 195840, Note_on_c, 3, 43, 111
5, 195888, Note_off_c, 3, 65, 64
5, 195936, Note_off_c, 3, 43, 64
5, 196080, Note_on_c, 3, 64, 72
5, 196080, Note_on_c, 3, 48, 111
5, 196320, Note_off_c, 3, 48, 64
5, 196320, Note_on_c, 3, 50, 111
5, 196440, Note_off_c, 3, 50, 64
5, 196440, Note_on_c, 3, 52, 111
5, 196560, Note_off_c, 3, 52, 64
5, 196560, Note_on_c, 3, 53, 127
5, 196656, Note_off_c, 3, 53, 64
5, 196800, Note_on_c, 3, 53, 111
5, 196848, Note_off_c, 3, 64, 64
5, 196896, Note_off_c, 3, 53, 64
5, 197040, Note_on_c, 3, 62, 72
5, 197040, Note_on_c, 3, 47, 111
5, 197280, Note_off_c, 3, 47, 64
5, 197280, Note_on_c, 3, 48, 111
5, 197400, Note_off_c, 3, 48, 64
5, 197400, Note_on_c, 3, 50, 111
5, 197520, Note_off_c, 3, 50, 64
5, 197520, Note_on_c, 3, 52, 127
5, 197616, Note_off_c, 3, 52, 64
5, 197760, Note_on_c, 3, 40, 111
5, 197808, Note_off_c, 3, 62, 64
5, 197856, Note_off_c, 3, 40, 64
5, 198000, Note_on_c, 3, 60, 72
5, 198000, Note_on_c, 3, 45, 111
5, 198240, Note_off_c, 3, 45, 64
5, 198240, Note_on_c, 3, 47, 111
5, 198360, Note_off_c, 3, 47, 64
5, 198360, Note_on_c, 3, 48, 111
5, 198480, Note_off_c, 3, 48, 64
5, 198480, Note_on_c, 3, 50, 127
5, 198576, Note_off_c, 3, 50, 64
5, 198720, Note_on_c, 3, 50, 111
5, 198768, Note_off_c, 3, 60, 64
5, 198816, Note_off_c, 3, 50, 64
5, 198960, Note_on_c, 3, 59, 89
5, 198960, Note_on_c, 3, 43, 111
5, 199200, Note_off_c, 3, 43, 64
5, 199200, Note_off_c, 3, 59, 64
5, 199200, Note_on_c, 3, 45, 111
5, 199200, Note_on_c, 3, 60, 89
5, 199320, Note_off_c, 3, 60, 64
5, 199320, Note_off_c, 3, 45, 64
5, 199320, Note_on_c, 3, 62, 89
5, 199320, Note_on_c, 3, 47, 111
5, 199440, Note_off_c, 3, 47, 64
5, 199440, Note_off_c, 3, 62, 64
5, 199440, Note_on_c, 3, 48, 111
5, 199440, Note_on_c, 3, 64, 89
5, 199680, Note_off_c, 3, 64, 64
5, 199680, Note_off_c, 3, 48, 64
5, 199680, Note_on_c, 3, 50, 111
5, 199680, Note_on_c, 3, 65, 89
5, 199800, Note_off_c, 3, 65, 64
5, 199800, Note_off_c, 3, 50, 64
5, 199800, Note_on_c, 3, 67, 89
5, 199800, Note_on_c, 3, 52, 111
5, 199920, Note_off_c, 3, 52, 64
5, 199920, Note_off_c, 3, 67, 64
5, 199920, Note_on_c, 3, 53, 89
5, 200016, Note_off_c, 3, 53, 64
5, 200160, Note_on_c, 3, 52, 89
5, 200256, Note_off_c, 3, 52, 64
5, 200280, Note_on_c, 3, 53, 89
5, 200376, Note_off_c, 3, 53, 64
5, 200400, Note_on_c, 3, 55, 109
5, 200496, Note_off_c, 3, 55, 64
5, 200640, Note_on_c, 3, 53, 89
5, 200736, Note_off_c, 3, 53, 64
5, 200880, Note_on_c, 3, 52, 89
5, 200976, Note_off_c, 3, 52, 64
5, 201120, Note_on_c, 3, 50, 89
5, 201216, Note_off_c, 3, 50, 64
5, 201240, Note_on_c, 3, 52, 89
5, 201336, Note_off_c, 3, 52, 64
5, 201360, Note_on_c, 3, 53, 109
5, 201456, Note_off_c, 3, 53, 64
5, 201600, Note_on_c, 3, 52, 89
5, 201696, Note_off_c, 3, 52, 64
5, 201840, Note_on_c, 3, 53, 89
5, 201936, Note_off_c, 3, 53, 64
5, 202080, Note_on_c, 3, 52, 89
5, 202176, Note_off_c, 3, 52, 64
5, 202200, Note_on_c, 3, 53, 89
5, 202296, Note_off_c, 3, 53, 64
5, 202320, Note_on_c, 3, 55, 109
5, 202416, Note_off_c, 3, 55, 64
5, 202560, Note_on_c, 3, 53, 89
5, 202656, Note_off_c, 3, 53, 64
5, 202800, Note_on_c, 3, 52, 89
5, 202896, Note_off_c, 3, 52, 64
5, 203040, Note_on_c, 3, 59, 89
5, 203136, Note_off_c, 3, 59, 64
5, 203160, Note_on_c, 3, 60, 89
5, 203256, Note_off_c, 3, 60, 64
5, 203280, Note_on_c, 3, 62, 109
5, 203376, Note_off_c, 3, 62, 64
5, 203520, Note_on_c, 3, 62, 89
5, 203616, Note_off_c, 3, 62, 64
5, 203760, Note_on_c, 3, 55, 72
5, 203760, Note_on_c, 3, 59, 72
5, 204240, Note_off_c, 3, 59, 64
5, 204240, Note_off_c, 3, 55, 64
5, 204240, Note_on_c, 3, 67, 72
5, 205104, Note_off_c, 3, 67, 64
5, 205200, Note_on_c, 3, 66, 72
5, 206064, Note_off_c, 3, 66, 64
5, 206160, Note_on_c, 3, 64, 72
5, 207024, Note_off_c, 3, 64, 64
5, 207120, Note_on_c, 3, 62, 72
5, 207984, Note_off_c, 3, 62, 64
5, 208080, Note_on_c, 3, 60, 72
5, 208944, Note_off_c, 3, 60, 64
5, 209040, Note_on_c, 3, 59, 72
5, 209424, Note_off_c, 3, 59, 64
5, 209520, Note_on_c, 3, 60, 67
5, 209520, Note_on_c, 3, 57, 87
5, 209616, Note_off_c, 3, 57, 64
5, 209616, Note_off_c, 3, 60, 64
5, 209760, Note_on_c, 3, 60, 67
5, 209760, Note_on_c, 3, 57, 67
5, 209856, Note_off_c, 3, 57, 64
5, 209856, Note_off_c, 3, 60, 64
5, 210000, Note_on_c, 3, 60, 67
5, 210000, Note_on_c, 3, 57, 67
5, 210096, Note_off_c, 3, 57, 64
5, 210096, Note_off_c, 3, 60, 64
5, 210480, Note_on_c, 3, 59, 87
5, 210480, Note_on_c, 3, 55, 67
5, 210576, Note_off_c, 3, 55, 64
5, 210576, Note_off_c, 3, 59, 64
5, 210720, Note_on_c, 3, 59, 67
5, 210720, Note_on_c, 3, 55, 67
5, 210816, Note_off_c, 3, 55, 64
5, 210816, Note_off_c, 3, 59, 64
5, 210960, Note_on_c, 3, 55, 67
5, 210960, Note_on_c, 3, 59, 67
5, 211056, Note_off_c, 3, 59, 64
5, 211056, Note_off_c, 3, 55, 64
5, 211440, Note_on_c, 3, 57, 87
5, 211440, Note_on_c, 3, 60, 67
5, 211536, Note_off_c, 3, 60, 64
5, 211536, Note_off_c, 3, 57, 64
5, 211680, Note_on_c, 3, 57, 67
5, 211680, Note_on_c, 3, 60, 67
5, 211776, Note_off_c, 3, 60, 64
5, 211776, Note_off_c, 3, 57, 64
5, 211920, Note_on_c, 3, 60, 67
5, 211920, Note_on_c, 3, 57, 67
5, 212016, Note_off_c, 3, 57, 64
5, 212016, Note_off_c, 3, 60, 64
5, 212400, Note_on_c, 3, 55, 67
5, 212400, Note_on_c, 3, 59, 67
5, 212496, Note_off_c, 3, 59, 64
5, 212496, Note_off_c, 3, 55, 64
5, 212640, Note_on_c, 3, 59, 67
5, 212640, Note_on_c, 3, 55, 67
5, 212736, Note_off_c, 3, 55, 64
5, 212736, Note_off_c, 3, 59, 64
5, 212760, Note_on_c, 3, 57, 67
5, 212760, Note_on_c, 3, 60, 67
5, 212856, Note_off_c, 3, 60, 64
5, 212856, Note_off_c, 3, 57, 64
5, 212880, Note_on_c, 3, 62, 67
5, 212880, Note_on_c, 3, 59, 67
5, 212976, Note_off_c, 3, 59, 64
5, 212976, Note_off_c, 3, 62, 64
5, 213120, Note_on_c, 3, 62, 67
5, 213120, Note_on_c, 3, 59, 67
5, 213216, Note_off_c, 3, 59, 64
5, 213216, Note_off_c, 3, 62, 64
5, 213240, Note_on_c, 3, 64, 67
5, 213240, Note_on_c, 3, 60, 67
5, 213336, Note_off_c, 3, 60, 64
5, 213336, Note_off_c, 3, 64, 64
5, 213360, Note_on_c, 3, 65, 63
5, 213360, Note_on_c, 3, 62, 63
5, 213456, Note_off_c, 3, 62, 64
5, 213456, Note_off_c, 3, 65, 64
5, 213600, Note_on_c, 3, 64, 63
5, 213600, Note_on_c, 3, 60, 63
5, 213696, Note_off_c, 3, 60, 64
5, 213696, Note_off_c, 3, 64, 64
5, 213720, Note_on_c, 3, 65, 63
5, 213720, Note_on_c, 3, 62, 63
5, 213816, Note_off_c, 3, 62, 64
5, 213816, Note_off_c, 3, 65, 64
5, 213840, Note_on_c, 3, 67, 83
5, 213840, Note_on_c, 3, 64, 63
5, 213936, Note_off_c, 3, 64, 64
5, 213936, Note_off_c, 3, 67, 64
5, 214080, Note_on_c, 3, 62, 63
5, 214080, Note_on_c, 3, 65, 63
5, 214176, Note_off_c, 3, 65, 64
5, 214176, Note_off_c, 3, 62, 64
5, 214320, Note_on_c, 3, 60, 63
5, 214320, Note_on_c, 3, 64, 63
5, 214416, Note_off_c, 3, 64, 64
5, 214416, Note_off_c, 3, 60, 64
5, 214560, Note_on_c, 3, 62, 63
5, 214560, Note_on_c, 3, 59, 63
5, 214656, Note_off_c, 3, 59, 64
5, 214656, Note_off_c, 3, 62, 64
5, 214680, Note_on_c, 3, 60, 63
5, 214680, Note_on_c, 3, 64, 63
5, 214776, Note_off_c, 3, 64, 64
5, 214776, Note_off_c, 3, 60, 64
5, 214800, Note_on_c, 3, 65, 83
5, 214800, Note_on_c, 3, 62, 63
5, 214896, Note_off_c, 3, 62, 64
5, 214896, Note_off_c, 3, 65, 64
5, 215040, Note_on_c, 3, 64, 63
5, 215040, Note_on_c, 3, 60, 63
5, 215136, Note_off_c, 3, 60, 64
5, 215136, Note_off_c, 3, 64, 64
5, 215280, Note_on_c, 3, 67, 114
5, 215280, Note_on_c, 3, 55, 114
5, 217104, Note_off_c, 3, 55, 64
5, 217104, Note_off_c, 3, 67, 64
5, 217200, Note_on_c, 3, 52, 89
5, 217200, Note_on_c, 3, 64, 89
5, 217440, Note_off_c, 3, 64, 64
5, 217440, Note_off_c, 3, 52, 64
5, 217440, Note_on_c, 3, 65, 89
5, 217440, Note_on_c, 3, 53, 89
5, 217560, Note_off_c, 3, 53, 64
5, 217560, Note_off_c, 3, 65, 64
5, 217560, Note_on_c, 3, 67, 89
5, 217560, Note_on_c, 3, 55, 89
5, 217680, Note_off_c, 3, 55, 64
5, 217680, Note_off_c, 3, 67, 64
5, 217680, Note_on_c, 3, 69, 109
5, 217680, Note_on_c, 3, 57, 89
5, 217776, Note_off_c, 3, 57, 64
5, 217776, Note_off_c, 3, 69, 64
5, 217920, Note_on_c, 3, 57, 89
5, 217920, Note_on_c, 3, 69, 89
5, 218016, Note_off_c, 3, 69, 64
5, 218016, Note_off_c, 3, 57, 64
5, 218160, Note_on_c, 3, 62, 89
5, 218400, Note_off_c, 3, 62, 64
5, 218400, Note_on_c, 3, 64, 89
5, 218520, Note_off_c, 3, 64, 64
5, 218520, Note_on_c, 3, 65, 89
5, 218640, Note_off_c, 3, 65, 64
5, 218640, Note_on_c, 3, 67, 109
5, 218736, Note_off_c, 3, 67, 64
5, 218880, Note_on_c, 3, 55, 89
5, 218976, Note_off_c, 3, 55, 64
5, 219120, Note_on_c, 3, 60, 89
5, 219360, Note_off_c, 3, 60, 64
5, 219360, Note_on_c, 3, 62, 89
5, 219480, Note_off_c, 3, 62, 64
5, 219480, Note_on_c, 3, 64, 89
5, 219600, Note_off_c, 3, 64, 64
5, 219600, Note_on_c, 3, 65, 109
5, 219696, Note_off_c, 3, 65, 64
5, 219840, Note_on_c, 3, 65, 89
5, 219936, Note_off_c, 3, 65, 64
5, 220080, Note_on_c, 3, 59, 89
5, 220320, Note_off_c, 3, 59, 64
5, 220320, Note_on_c, 3, 60, 89
5, 220440, Note_off_c, 3, 60, 64
5, 220440, Note_on_c, 3, 62, 89
5, 220560, Note_off_c, 3, 62, 64
5, 220560, Note_on_c, 3, 64, 109
5, 220656, Note_off_c, 3, 64, 64
5, 220800, Note_on_c, 3, 52, 89
5, 220896, Note_off_c, 3, 52, 64
5, 221040, Note_on_c, 3, 57, 89
5, 221280, Note_off_c, 3, 57, 64
5, 221280, Note_on_c, 3, 59, 89
5, 221400, Note_off_c, 3, 59, 64
5, 221400, Note_on_c, 3, 60, 89
5, 221520, Note_off_c, 3, 60, 64
5, 221520, Note_on_c, 3, 62, 109
5, 221616, Note_off_c, 3, 62, 64
5, 221760, Note_on_c, 3, 62, 89
5, 221856, Note_off_c, 3, 62, 64
5, 222000, Note_on_c, 3, 55, 89
5, 222240, Note_off_c, 3, 55, 64
5, 222240, Note_on_c, 3, 57, 89
5, 222360, Note_off_c, 3, 57, 64
5, 222360, Note_on_c, 3, 59, 89
5, 222480, Note_off_c, 3, 59, 64
5, 222480, Note_on_c, 3, 60, 89
5, 222720, Note_off_c, 3, 60, 64
5, 222720, Note_on_c, 3, 62, 89
5, 222840, Note_off_c, 3, 62, 64
5, 222840, Note_on_c, 3, 64, 89
5, 222960, Note_off_c, 3, 64, 64
5, 222960, Note_on_c, 3, 65, 57
5, 223056, Note_off_c, 3, 65, 64
5, 223200, Note_on_c, 3, 60, 57
5, 223200, Note_on_c, 3, 64, 57
5, 223296, Note_off_c, 3, 64, 64
5, 223296, Note_off_c, 3, 60, 64
5, 223320, Note_on_c, 3, 62, 57
5, 223320, Note_on_c, 3, 65, 57
5, 223416, Note_off_c, 3, 65, 64
5, 223416, Note_off_c, 3, 62, 64
5, 223440, Note_on_c, 3, 67, 77
5, 223440, Note_on_c, 3, 64, 57
5, 223536, Note_off_c, 3, 64, 64
5, 223536, Note_off_c, 3, 67, 64
5, 223680, Note_on_c, 3, 62, 57
5, 223680, Note_on_c, 3, 65, 57
5, 223776, Note_off_c, 3, 65, 64
5, 223776, Note_off_c, 3, 62, 64
5, 223920, Note_on_c, 3, 64, 57
5, 223920, Note_on_c, 3, 60, 57
5, 224016, Note_off_c, 3, 60, 64
5, 224016, Note_off_c, 3, 64, 64
5, 224160, Note_on_c, 3, 59, 57
5, 224160, Note_on_c, 3, 62, 57
5, 224256, Note_off_c, 3, 62, 64
5, 224256, Note_off_c, 3, 59, 64
5, 224280, Note_on_c, 3, 60, 57
5, 224280, Note_on_c, 3, 64, 57
5, 224376, Note_off_c, 3, 64, 64
5, 224376, Note_off_c, 3, 60, 64
5, 224400, Note_on_c, 3, 65, 77
5, 224400, Note_on_c, 3, 62, 57
5, 224496, Note_off_c, 3, 62, 64
5, 224496, Note_off_c, 3, 65, 64
5, 224640, Note_on_c, 3, 64, 57
5, 224640, Note_on_c, 3, 60, 57
5, 224736, Note_off_c, 3, 60, 64
5, 224736, Note_off_c, 3, 64, 64
5, 224880, Note_on_c, 3, 65, 57
5, 224880, Note_on_c, 3, 59, 57
5, 224976, Note_off_c, 3, 59, 64
5, 224976, Note_off_c, 3, 65, 64
5, 225120, Note_on_c, 3, 60, 57
5, 225120, Note_on_c, 3, 64, 57
5, 225216, Note_off_c, 3, 64, 64
5, 225216, Note_off_c, 3, 60, 64
5, 225240, Note_on_c, 3, 65, 57
5, 225240, Note_on_c, 3, 62, 57
5, 225336, Note_off_c, 3, 62, 64
5, 225336, Note_off_c, 3, 65, 64
5, 225360, Note_on_c, 3, 67, 77
5, 225360, Note_on_c, 3, 64, 57
5, 225456, Note_off_c, 3, 64, 64
5, 225456, Note_off_c, 3, 67, 64
5, 225600, Note_on_c, 3, 62, 57
5, 225600, Note_on_c, 3, 65, 57
5, 225696, Note_off_c, 3, 65, 64
5, 225696, Note_off_c, 3, 62, 64
5, 225840, Note_on_c, 3, 60, 57
5, 225840, Note_on_c, 3, 64, 57
5, 225936, Note_off_c, 3, 64, 64
5, 225936, Note_off_c, 3, 60, 64
5, 226080, Note_on_c, 3, 59, 57
5, 226080, Note_on_c, 3, 62, 57
5, 226176, Note_off_c, 3, 62, 64
5, 226176, Note_off_c, 3, 59, 64
5, 226200, Note_on_c, 3, 60, 57
5, 226200, Note_on_c, 3, 64, 57
5, 226296, Note_off_c, 3, 64, 64
5, 226296, Note_off_c, 3, 60, 64
5, 226320, Note_on_c, 3, 62, 57
5, 226320, Note_on_c, 3, 65, 77
5, 226416, Note_off_c, 3, 65, 64
5, 226416, Note_off_c, 3, 62, 64
5, 226560, Note_on_c, 3, 64, 57
5, 226560, Note_on_c, 3, 60, 57
5, 226656, Note_off_c, 3, 60, 64
5, 226656, Note_off_c, 3, 64, 64
5, 226800, Note_on_c, 3, 64, 57
5, 226800, Note_on_c, 3, 60, 57
5, 226896, Note_off_c, 3, 60, 64
5, 226896, Note_off_c, 3, 64, 64
5, 227040, Note_on_c, 3, 62, 57
5, 227040, Note_on_c, 3, 59, 57
5, 227136, Note_off_c, 3, 59, 64
5, 227136, Note_off_c, 3, 62, 64
5, 227160, Note_on_c, 3, 64, 57
5, 227160, Note_on_c, 3, 60, 57
5, 227256, Note_off_c, 3, 60, 64
5, 227256, Note_off_c, 3, 64, 64
5, 227280, Note_on_c, 3, 62, 57
5, 227280, Note_on_c, 3, 65, 77
5, 227376, Note_off_c, 3, 65, 64
5, 227376, Note_off_c, 3, 62, 64
5, 227520, Note_on_c, 3, 60, 57
5, 227520, Note_on_c, 3, 64, 57
5, 227616, Note_off_c, 3, 64, 64
5, 227616, Note_off_c, 3, 60, 64
5, 227760, Note_on_c, 3, 64, 57
5, 227760, Note_on_c, 3, 60, 57
5, 227856, Note_off_c, 3, 60, 64
5, 227856, Note_off_c, 3, 64, 64
5, 228000, Note_on_c, 3, 62, 57
5, 228000, Note_on_c, 3, 59, 57
5, 228096, Note_off_c, 3, 59, 64
5, 228096, Note_off_c, 3, 62, 64
5, 228120, Note_on_c, 3, 64, 57
5, 228120, Note_on_c, 3, 60, 57
5, 228216, Note_off_c, 3, 60, 64
5, 228216, Note_off_c, 3, 64, 64
5, 228240, Note_on_c, 3, 62, 57
5, 228240, Note_on_c, 3, 65, 77
5, 228336, Note_off_c, 3, 65, 64
5, 228336, Note_off_c, 3, 62, 64
5, 228480, Note_on_c, 3, 64, 57
5, 228480, Note_on_c, 3, 60, 57
5, 228576, Note_off_c, 3, 60, 64
5, 228576, Note_off_c, 3, 64, 64
5, 228720, Note_on_c, 3, 62, 68
5, 228816, Note_off_c, 3, 62, 64
5, 228960, Note_on_c, 3, 61, 68
5, 229056, Note_off_c, 3, 61, 64
5, 229080, Note_on_c, 3, 62, 68
5, 229176, Note_off_c, 3, 62, 64
5, 229200, Note_on_c, 3, 64, 68
5, 229296, Note_off_c, 3, 64, 64
5, 229440, Note_on_c, 3, 62, 68
5, 229536, Note_off_c, 3, 62, 64
5, 229680, Note_on_c, 3, 62, 68
5, 229776, Note_off_c, 3, 62, 64
5, 229920, Note_on_c, 3, 61, 68
5, 230016, Note_off_c, 3, 61, 64
5, 230040, Note_on_c, 3, 62, 68
5, 230136, Note_off_c, 3, 62, 64
5, 230160, Note_on_c, 3, 64, 68
5, 230256, Note_off_c, 3, 64, 64
5, 230400, Note_on_c, 3, 62, 68
5, 230496, Note_off_c, 3, 62, 64
5, 230640, Note_on_c, 3, 60, 68
5, 230736, Note_off_c, 3, 60, 64
5, 230880, Note_on_c, 3, 59, 68
5, 230976, Note_off_c, 3, 59, 64
5, 231000, Note_on_c, 3, 60, 68
5, 231096, Note_off_c, 3, 60, 64
5, 231120, Note_on_c, 3, 62, 68
5, 231216, Note_off_c, 3, 62, 64
5, 231360, Note_on_c, 3, 60, 68
5, 231456, Note_off_c, 3, 60, 64
5, 231600, Note_on_c, 3, 60, 107
5, 231696, Note_off_c, 3, 60, 64
5, 231720, Note_on_c, 3, 59, 68
5, 231816, Note_off_c, 3, 59, 64
5, 231840, Note_on_c, 3, 57, 68
5, 231936, Note_off_c, 3, 57, 64
5, 231960, Note_on_c, 3, 59, 68
5, 232056, Note_off_c, 3, 59, 64
5, 232080, Note_on_c, 3, 60, 68
5, 232176, Note_off_c, 3, 60, 64
5, 232200, Note_on_c, 3, 57, 68
5, 232296, Note_off_c, 3, 57, 64
5, 232320, Note_on_c, 3, 59, 68
5, 232416, Note_off_c, 3, 59, 64
5, 232440, Note_on_c, 3, 60, 68
5, 232536, Note_off_c, 3, 60, 64
5, 232560, Note_on_c, 3, 62, 46
5, 232560, Note_on_c, 3, 59, 56
5, 232656, Note_off_c, 3, 62, 64
5, 232800, Note_off_c, 3, 59, 64
5, 232800, Note_on_c, 3, 55, 46
5, 232800, Note_on_c, 3, 60, 56
5, 232896, Note_off_c, 3, 55, 64
5, 232920, Note_off_c, 3, 60, 64
5, 232920, Note_on_c, 3, 62, 56
5, 233040, Note_off_c, 3, 62, 64
5, 233040, Note_on_c, 3, 67, 54
5, 233040, Note_on_c, 3, 64, 76
5, 233136, Note_off_c, 3, 64, 64
5, 233280, Note_on_c, 3, 64, 56
5, 233376, Note_off_c, 3, 64, 64
5, 233520, Note_on_c, 3, 57, 56
5, 233760, Note_off_c, 3, 57, 64
5, 233760, Note_on_c, 3, 59, 56
5, 233880, Note_off_c, 3, 59, 64
5, 233880, Note_on_c, 3, 60, 56
5, 233904, Note_off_c, 3, 67, 64
5, 234000, Note_off_c, 3, 60, 64
5, 234000, Note_on_c, 3, 66, 54
5, 234000, Note_on_c, 3, 62, 76
5, 234096, Note_off_c, 3, 62, 64
5, 234240, Note_on_c, 3, 50, 56
5, 234336, Note_off_c, 3, 50, 64
5, 234480, Note_on_c, 3, 55, 56
5, 234720, Note_off_c, 3, 55, 64
5, 234720, Note_on_c, 3, 57, 56
5, 234840, Note_off_c, 3, 57, 64
5, 234840, Note_on_c, 3, 59, 56
5, 234864, Note_off_c, 3, 66, 64
5, 234960, Note_off_c, 3, 59, 64
5, 234960, Note_on_c, 3, 64, 54
5, 234960, Note_on_c, 3, 60, 76
5, 235056, Note_off_c, 3, 60, 64
5, 235200, Note_on_c, 3, 60, 56
5, 235296, Note_off_c, 3, 60, 64
5, 235440, Note_on_c, 3, 54, 56
5, 235680, Note_off_c, 3, 54, 64
5, 235680, Note_on_c, 3, 55, 56
5, 235800, Note_off_c, 3, 55, 64
5, 235800, Note_on_c, 3, 57, 56
5, 235824, Note_off_c, 3, 64, 64
5, 235920, Note_off_c, 3, 57, 64
5, 235920, Note_on_c, 3, 62, 54
5, 235920, Note_on_c, 3, 59, 76
5, 236016, Note_off_c, 3, 59, 64
5, 236160, Note_on_c, 3, 47, 56
5, 236256, Note_off_c, 3, 47, 64
5, 236400, Note_on_c, 3, 64, 56
5, 236640, Note_off_c, 3, 64, 64
5, 236640, Note_on_c, 3, 66, 56
5, 236760, Note_off_c, 3, 66, 64
5, 236760, Note_on_c, 3, 67, 56
5, 236784, Note_off_c, 3, 62, 64
5, 236880, Note_off_c, 3, 67, 64
5, 236880, Note_on_c, 3, 60, 54
5, 236880, Note_on_c, 3, 69, 76
5, 236976, Note_off_c, 3, 69, 64
5, 237120, Note_on_c, 3, 69, 56
5, 237216, Note_off_c, 3, 69, 64
5, 237360, Note_on_c, 3, 62, 56
5, 237600, Note_off_c, 3, 62, 64
5, 237600, Note_on_c, 3, 64, 56
5, 237720, Note_off_c, 3, 64, 64
5, 237720, Note_on_c, 3, 66, 56
5, 237744, Note_off_c, 3, 60, 64
5, 237840, Note_off_c, 3, 66, 64
5, 237840, Note_on_c, 3, 59, 46
5, 237840, Note_on_c, 3, 67, 56
5, 237954, Note_off_c, 3, 67, 64
5, 237960, Note_on_c, 3, 55, 56
5, 238080, Note_off_c, 3, 55, 64
5, 238080, Note_on_c, 3, 57, 56
5, 238200, Note_off_c, 3, 57, 64
5, 238200, Note_on_c, 3, 59, 56
5, 238224, Note_off_c, 3, 59, 64
5, 238320, Note_off_c, 3, 59, 64
5, 238320, Note_on_c, 3, 57, 45
5, 238320, Note_on_c, 3, 60, 96
5, 238380, Note_off_c, 3, 57, 64
5, 238416, Note_off_c, 3, 60, 64
5, 238440, Note_on_c, 3, 50, 45
5, 238500, Note_off_c, 3, 50, 64
5, 238560, Note_on_c, 3, 57, 45
5, 238560, Note_on_c, 3, 59, 56
5, 238620, Note_off_c, 3, 57, 64
5, 238656, Note_off_c, 3, 59, 64
5, 238680, Note_on_c, 3, 55, 45
5, 238680, Note_on_c, 3, 60, 96
5, 238740, Note_off_c, 3, 55, 64
5, 238776, Note_off_c, 3, 60, 64
5, 238800, Note_on_c, 3, 54, 45
5, 238800, Note_on_c, 3, 62, 76
5, 238860, Note_off_c, 3, 54, 64
5, 238896, Note_off_c, 3, 62, 64
5, 238920, Note_on_c, 3, 50, 45
5, 238980, Note_off_c, 3, 50, 64
5, 239040, Note_on_c, 3, 52, 45
5, 239040, Note_on_c, 3, 60, 56
5, 239100, Note_off_c, 3, 52, 64
5, 239136, Note_off_c, 3, 60, 64
5, 239160, Note_on_c, 3, 54, 45
5, 239220, Note_off_c, 3, 54, 64
5, 239280, Note_on_c, 3, 55, 45
5, 239280, Note_on_c, 3, 59, 56
5, 239340, Note_off_c, 3, 55, 64
5, 239376, Note_off_c, 3, 59, 64
5, 239400, Note_on_c, 3, 62, 45
5, 239460, Note_off_c, 3, 62, 64
5, 239520, Note_on_c, 3, 60, 45
5, 239520, Note_on_c, 3, 57, 56
5, 239580, Note_off_c, 3, 60, 64
5, 239616, Note_off_c, 3, 57, 64
5, 239640, Note_on_c, 3, 59, 45
5, 239640, Note_on_c, 3, 59, 56
5, 239700, Note_off_c, 3, 59, 64
5, 239736, Note_off_c, 3, 59, 64
5, 239760, Note_on_c, 3, 57, 45
5, 239760, Note_on_c, 3, 60, 76
5, 239820, Note_off_c, 3, 57, 64
5, 239856, Note_off_c, 3, 60, 64
5, 239880, Note_on_c, 3, 55, 45
5, 239940, Note_off_c, 3, 55, 64
5, 240000, Note_on_c, 3, 59, 56
5, 240000, Note_on_c, 3, 54, 45
5, 240060, Note_off_c, 3, 54, 64
5, 240096, Note_off_c, 3, 59, 64
5, 240120, Note_on_c, 3, 55, 45
5, 240180, Note_off_c, 3, 55, 64
5, 240240, Note_on_c, 3, 62, 45
5, 240240, Note_on_c, 3, 65, 96
5, 240300, Note_off_c, 3, 62, 64
5, 240336, Note_off_c, 3, 65, 64
5, 240360, Note_on_c, 3, 55, 45
5, 240420, Note_off_c, 3, 55, 64
5, 240480, Note_on_c, 3, 62, 45
5, 240480, Note_on_c, 3, 64, 56
5, 240540, Note_off_c, 3, 62, 64
5, 240576, Note_off_c, 3, 64, 64
5, 240600, Note_on_c, 3, 60, 45
5, 240600, Note_on_c, 3, 65, 56
5, 240660, Note_off_c, 3, 60, 64
5, 240696, Note_off_c, 3, 65, 64
5, 240720, Note_on_c, 3, 59, 45
5, 240720, Note_on_c, 3, 67, 76
5, 240780, Note_off_c, 3, 59, 64
5, 240816, Note_off_c, 3, 67, 64
5, 240840, Note_on_c, 3, 55, 45
5, 240900, Note_off_c, 3, 55, 64
5, 240960, Note_on_c, 3, 57, 45
5, 240960, Note_on_c, 3, 65, 56
5, 241020, Note_off_c, 3, 57, 64
5, 241056, Note_off_c, 3, 65, 64
5, 241080, Note_on_c, 3, 59, 45
5, 241140, Note_off_c, 3, 59, 64
5, 241200, Note_on_c, 3, 60, 45
5, 241200, Note_on_c, 3, 64, 56
5, 241260, Note_off_c, 3, 60, 64
5, 241296, Note_off_c, 3, 64, 64
5, 241320, Note_on_c, 3, 67, 45
5, 241380, Note_off_c, 3, 67, 64
5, 241440, Note_on_c, 3, 65, 45
5, 241440, Note_on_c, 3, 62, 56
5, 241500, Note_off_c, 3, 65, 64
5, 241536, Note_off_c, 3, 62, 64
5, 241560, Note_on_c, 3, 64, 45
5, 241560, Note_on_c, 3, 64, 56
5, 241620, Note_off_c, 3, 64, 64
5, 241656, Note_off_c, 3, 64, 64
5, 241680, Note_on_c, 3, 62, 45
5, 241680, Note_on_c, 3, 65, 76
5, 241740, Note_off_c, 3, 62, 64
5, 241776, Note_off_c, 3, 65, 64
5, 241800, Note_on_c, 3, 60, 45
5, 241860, Note_off_c, 3, 60, 64
5, 241920, Note_on_c, 3, 59, 45
5, 241920, Note_on_c, 3, 64, 56
5, 241980, Note_off_c, 3, 59, 64
5, 242016, Note_off_c, 3, 64, 64
5, 242040, Note_on_c, 3, 60, 45
5, 242100, Note_off_c, 3, 60, 64
5, 242160, Note_on_c, 3, 62, 45
5, 242220, Note_off_c, 3, 62, 64
5, 242280, Note_on_c, 3, 55, 45
5, 242340, Note_off_c, 3, 55, 64
5, 242400, Note_on_c, 3, 62, 45
5, 242460, Note_off_c, 3, 62, 64
5, 242520, Note_on_c, 3, 60, 45
5, 242580, Note_off_c, 3, 60, 64
5, 242640, Note_on_c, 3, 59, 45
5, 242700, Note_off_c, 3, 59, 64
5, 242760, Note_on_c, 3, 55, 45
5, 242820, Note_off_c, 3, 55, 64
5, 242880, Note_on_c, 3, 57, 45
5, 242940, Note_off_c, 3, 57, 64
5, 243000, Note_on_c, 3, 59, 45
5, 243060, Note_off_c, 3, 59, 64
5, 243120, Note_on_c, 3, 60, 50
5, 243216, Note_off_c, 3, 60, 64
5, 243360, Note_on_c, 3, 60, 50
5, 243456, Note_off_c, 3, 60, 64
5, 243600, Note_on_c, 3, 60, 50
5, 243696, Note_off_c, 3, 60, 64
5, 243720, Note_on_c, 3, 58, 50
5, 243816, Note_off_c, 3, 58, 64
5, 243840, Note_on_c, 3, 57, 40
5, 243936, Note_off_c, 3, 57, 64
5, 243960, Note_on_c, 3, 55, 40
5, 244056, Note_off_c, 3, 55, 64
5, 244080, Note_on_c, 3, 53, 29
5, 244464, Note_off_c, 3, 53, 64
5, 256560, Note_on_c, 3, 65, 43
5, 256560, Note_on_c, 3, 62, 43
5, 256656, Note_off_c, 3, 62, 64
5, 256656, Note_off_c, 3, 65, 64
5, 256800, Note_on_c, 3, 62, 43
5, 256800, Note_on_c, 3, 65, 43
5, 256896, Note_off_c, 3, 65, 64
5, 256896, Note_off_c, 3, 62, 64
5, 257040, Note_on_c, 3, 65, 43
5, 257040, Note_on_c, 3, 62, 43
5, 257136, Note_off_c, 3, 62, 64
5, 257136, Note_off_c, 3, 65, 64
5, 257520, Note_on_c, 3, 64, 43
5, 257520, Note_on_c, 3, 62, 43
5, 257616, Note_off_c, 3, 62, 64
5, 257616, Note_off_c, 3, 64, 64
5, 257760, Note_on_c, 3, 62, 43
5, 257760, Note_on_c, 3, 64, 43
5, 257856, Note_off_c, 3, 64, 64
5, 257856, Note_off_c, 3, 62, 64
5, 258000, Note_on_c, 3, 64, 43
5, 258000, Note_on_c, 3, 62, 43
5, 258096, Note_off_c, 3, 62, 64
5, 258096, Note_off_c, 3, 64, 64
5, 258480, Note_on_c, 3, 61, 43
5, 258480, Note_on_c, 3, 64, 43
5, 258576, Note_off_c, 3, 64, 64
5, 258576, Note_off_c, 3, 61, 64
5, 258720, Note_on_c, 3, 64, 43
5, 258720, Note_on_c, 3, 61, 43
5, 258816, Note_off_c, 3, 61, 64
5, 258816, Note_off_c, 3, 64, 64
5, 258960, Note_on_c, 3, 61, 43
5, 258960, Note_on_c, 3, 64, 43
5, 259056, Note_off_c, 3, 64, 64
5, 259056, Note_off_c, 3, 61, 64
5, 259440, Note_on_c, 3, 65, 43
5, 259440, Note_on_c, 3, 62, 43
5, 259536, Note_off_c, 3, 62, 64
5, 259536, Note_off_c, 3, 65, 64
5, 259680, Note_on_c, 3, 62, 43
5, 259680, Note_on_c, 3, 65, 43
5, 259776, Note_off_c, 3, 65, 64
5, 259776, Note_off_c, 3, 62, 64
5, 259920, Note_on_c, 3, 62, 43
5, 259920, Note_on_c, 3, 65, 43
5, 260016, Note_off_c, 3, 65, 64
5, 260016, Note_off_c, 3, 62, 64
5, 260400, Note_on_c, 3, 64, 43
5, 260400, Note_on_c, 3, 62, 43
5, 260496, Note_off_c, 3, 62, 64
5, 260496, Note_off_c, 3, 64, 64
5, 260640, Note_on_c, 3, 62, 43
5, 260640, Note_on_c, 3, 64, 43
5, 260736, Note_off_c, 3, 64, 64
5, 260736, Note_off_c, 3, 62, 64
5, 260880, Note_on_c, 3, 64, 43
5, 260880, Note_on_c, 3, 61, 43
5, 260976, Note_off_c, 3, 61, 64
5, 260976, Note_off_c, 3, 64, 64
5, 269040, Note_on_c, 3, 64, 36
5, 269808, Note_off_c, 3, 64, 64
5, 270000, Note_on_c, 3, 61, 32
5, 270192, Note_off_c, 3, 61, 64
5, 270240, Note_on_c, 3, 62, 32
5, 270336, Note_off_c, 3, 62, 64
5, 270360, Note_on_c, 3, 64, 32
5, 270456, Note_off_c, 3, 64, 64
5, 270480, Note_on_c, 3, 66, 32
5, 270576, Note_off_c, 3, 66, 64
5, 270720, Note_on_c, 3, 66, 32
5, 270816, Note_off_c, 3, 66, 64
5, 270960, Note_on_c, 3, 59, 32
5, 271920, Note_off_c, 3, 59, 64
5, 271920, Note_on_c, 3, 64, 32
5, 272880, Note_off_c, 3, 64, 64
5, 275760, Note_on_c, 3, 64, 32
5, 277680, Note_off_c, 3, 64, 64
5, 277680, Note_on_c, 3, 60, 32
5, 278640, Note_off_c, 3, 60, 64
5, 279600, Note_on_c, 3, 66, 32
5, 281520, Note_off_c, 3, 66, 64
5, 281520, Note_on_c, 3, 62, 32
5, 282480, Note_off_c, 3, 62, 64
5, 283440, Note_on_c, 3, 67, 32
5, 285360, Note_off_c, 3, 67, 64
5, 285360, Note_on_c, 3, 64, 32
5, 286320, Note_off_c, 3, 64, 64
5, 287280, Note_on_c, 3, 69, 32
5, 288240, Note_off_c, 3, 69, 64
5, 288240, Note_on_c, 3, 59, 30
5, 288432, Note_off_c, 3, 59, 64
5, 291120, Note_on_c, 3, 47, 53
5, 291120, Note_on_c, 3, 59, 53
5, 291888, Note_off_c, 3, 59, 64
5, 291888, Note_off_c, 3, 47, 64
5, 293040, Note_on_c, 3, 47, 51
5, 293040, Note_on_c, 3, 59, 51
5, 293808, Note_off_c, 3, 59, 64
5, 293808, Note_off_c, 3, 47, 64
5, 294960, Note_on_c, 3, 59, 78
5, 294960, Note_on_c, 3, 47, 78
5, 295728, Note_off_c, 3, 47, 64
5, 295728, Note_off_c, 3, 59, 64
5, 295920, Note_on_c, 3, 55, 127
5, 296160, Note_off_c, 3, 55, 64
5, 296160, Note_on_c, 3, 57, 127
5, 296280, Note_off_c, 3, 57, 64
5, 296280, Note_on_c, 3, 59, 127
5, 296400, Note_off_c, 3, 59, 64
5, 296400, Note_on_c, 3, 60, 127
5, 296496, Note_off_c, 3, 60, 64
5, 296640, Note_on_c, 3, 60, 127
5, 296736, Note_off_c, 3, 60, 64
5, 296880, Note_on_c, 3, 54, 127
5, 297120, Note_off_c, 3, 54, 64
5, 297120, Note_on_c, 3, 55, 127
5, 297240, Note_off_c, 3, 55, 64
5, 297240, Note_on_c, 3, 57, 127
5, 297360, Note_off_c, 3, 57, 64
5, 297360, Note_on_c, 3, 59, 127
5, 297456, Note_off_c, 3, 59, 64
5, 297600, Note_on_c, 3, 47, 127
5, 297696, Note_off_c, 3, 47, 64
5, 297840, Note_on_c, 3, 52, 127
5, 298080, Note_off_c, 3, 52, 64
5, 298080, Note_on_c, 3, 54, 127
5, 298200, Note_off_c, 3, 54, 64
5, 298200, Note_on_c, 3, 55, 127
5, 298320, Note_off_c, 3, 55, 64
5, 298320, Note_on_c, 3, 57, 127
5, 298416, Note_off_c, 3, 57, 64
5, 298560, Note_on_c, 3, 57, 127
5, 298656, Note_off_c, 3, 57, 64
5, 298800, Note_on_c, 3, 50, 127
5, 299040, Note_off_c, 3, 50, 64
5, 299040, Note_on_c, 3, 52, 127
5, 299160, Note_off_c, 3, 52, 64
5, 299160, Note_on_c, 3, 54, 127
5, 299280, Note_off_c, 3, 54, 64
5, 299280, Note_on_c, 3, 55, 127
5, 299376, Note_off_c, 3, 55, 64
5, 299520, Note_on_c, 3, 43, 127
5, 299616, Note_off_c, 3, 43, 64
5, 299760, Note_on_c, 3, 48, 127
5, 300000, Note_off_c, 3, 48, 64
5, 300000, Note_on_c, 3, 50, 127
5, 300120, Note_off_c, 3, 50, 64
5, 300120, Note_on_c, 3, 52, 127
5, 300240, Note_off_c, 3, 52, 64
5, 300240, Note_on_c, 3, 54, 127
5, 300336, Note_off_c, 3, 54, 64
5, 300480, Note_on_c, 3, 42, 127
5, 300576, Note_off_c, 3, 42, 64
5, 300720, Note_on_c, 3, 47, 112
5, 300816, Note_off_c, 3, 47, 64
5, 300840, Note_on_c, 3, 59, 112
5, 300936, Note_off_c, 3, 59, 64
5, 300960, Note_on_c, 3, 61, 112
5, 301056, Note_off_c, 3, 61, 64
5, 301080, Note_on_c, 3, 63, 112
5, 301176, Note_off_c, 3, 63, 64
5, 301200, Note_on_c, 3, 64, 112
5, 301440, Note_off_c, 3, 64, 64
5, 301440, Note_on_c, 3, 66, 112
5, 301560, Note_off_c, 3, 66, 64
5, 301560, Note_on_c, 3, 67, 112
5, 301680, Note_off_c, 3, 67, 64
5, 301680, Note_on_c, 3, 69, 102
5, 302064, Note_off_c, 3, 69, 64
5, 302160, Note_on_c, 3, 67, 102
5, 302544, Note_off_c, 3, 67, 64
5, 302640, Note_on_c, 3, 59, 127
5, 302736, Note_off_c, 3, 59, 64
5, 302760, Note_on_c, 3, 47, 127
5, 302856, Note_off_c, 3, 47, 64
5, 302880, Note_on_c, 3, 49, 127
5, 302976, Note_off_c, 3, 49, 64
5, 303000, Note_on_c, 3, 51, 127
5, 303096, Note_off_c, 3, 51, 64
5, 303120, Note_on_c, 3, 52, 127
5, 303216, Note_off_c, 3, 52, 64
5, 303240, Note_on_c, 3, 52, 127
5, 303336, Note_off_c, 3, 52, 64
5, 303360, Note_on_c, 3, 54, 127
5, 303456, Note_off_c, 3, 54, 64
5, 303480, Note_on_c, 3, 55, 127
5, 303576, Note_off_c, 3, 55, 64
5, 303600, Note_on_c, 3, 57, 127
5, 303984, Note_off_c, 3, 57, 64
5, 304080, Note_on_c, 3, 55, 127
5, 304464, Note_off_c, 3, 55, 64
5, 304560, Note_on_c, 3, 54, 127
5, 304944, Note_off_c, 3, 54, 64
5, 305040, Note_on_c, 3, 52, 127
5, 305424, Note_off_c, 3, 52, 64
5, 305520, Note_on_c, 3, 51, 127
5, 305904, Note_off_c, 3, 51, 64
5, 306000, Note_on_c, 3, 52, 127
5, 306488, Note_off_c, 3, 52, 64
5, 306540, Note_on_c, 3, 59, 102
5, 307028, Note_off_c, 3, 59, 64
5, 307080, Note_on_c, 3, 47, 102
5, 307572, Note_off_c, 3, 47, 64
5, 307680, Note_on_c, 3, 48, 127
5, 308064, Note_off_c, 3, 48, 64
5, 308640, Note_on_c, 3, 43, 127
5, 308880, Note_off_c, 3, 43, 64
5, 308880, Note_on_c, 3, 45, 127
5, 309000, Note_off_c, 3, 45, 64
5, 309000, Note_on_c, 3, 47, 127
5, 309120, Note_off_c, 3, 47, 64
5, 309120, Note_on_c, 3, 48, 127
5, 309216, Note_off_c, 3, 48, 64
5, 309360, Note_on_c, 3, 48, 127
5, 309456, Note_off_c, 3, 48, 64
5, 309600, Note_on_c, 3, 48, 127
5, 309984, Note_off_c, 3, 48, 64
5, 310560, Note_on_c, 3, 43, 127
5, 310800, Note_off_c, 3, 43, 64
5, 310800, Note_on_c, 3, 45, 127
5, 310920, Note_off_c, 3, 45, 64
5, 310920, Note_on_c, 3, 47, 127
5, 311040, Note_off_c, 3, 47, 64
5, 311040, Note_on_c, 3, 48, 127
5, 311136, Note_off_c, 3, 48, 64
5, 311280, Note_on_c, 3, 48, 127
5, 311376, Note_off_c, 3, 48, 64
5, 311520, Note_on_c, 3, 48, 127
5, 311904, Note_off_c, 3, 48, 64
5, 312480, Note_on_c, 3, 43, 127
5, 312720, Note_off_c, 3, 43, 64
5, 312720, Note_on_c, 3, 45, 127
5, 312840, Note_off_c, 3, 45, 64
5, 312840, Note_on_c, 3, 47, 127
5, 312960, Note_off_c, 3, 47, 64
5, 312960, Note_on_c, 3, 48, 127
5, 313056, Note_off_c, 3, 48, 64
5, 313200, Note_on_c, 3, 48, 127
5, 313296, Note_off_c, 3, 48, 64
5, 313440, Note_on_c, 3, 48, 127
5, 313824, Note_off_c, 3, 48, 64
5, 313920, Note_on_c, 3, 48, 127
5, 314304, Note_off_c, 3, 48, 64
5, 314400, Note_on_c, 3, 47, 127
5, 314784, Note_off_c, 3, 47, 64
5, 314880, Note_on_c, 3, 47, 127
5, 315264, Note_off_c, 3, 47, 64
5, 315360, Note_on_c, 3, 48, 127
5, 315744, Note_off_c, 3, 48, 64
5, 316320, Note_on_c, 3, 43, 127
5, 316560, Note_off_c, 3, 43, 64
5, 316560, Note_on_c, 3, 45, 127
5, 316680, Note_off_c, 3, 45, 64
5, 316680, Note_on_c, 3, 47, 127
5, 316800, Note_off_c, 3, 47, 64
5, 316800, Note_on_c, 3, 48, 127
5, 316896, Note_off_c, 3, 48, 64
5, 317040, Note_on_c, 3, 48, 127
5, 317136, Note_off_c, 3, 48, 64
5, 317280, Note_on_c, 3, 48, 127
5, 317664, Note_off_c, 3, 48, 64
5, 318240, Note_on_c, 3, 43, 127
5, 318480, Note_off_c, 3, 43, 64
5, 318480, Note_on_c, 3, 45, 127
5, 318600, Note_off_c, 3, 45, 64
5, 318600, Note_on_c, 3, 47, 127
5, 318720, Note_off_c, 3, 47, 64
5, 318720, Note_on_c, 3, 48, 127
5, 318816, Note_off_c, 3, 48, 64
5, 318960, Note_on_c, 3, 48, 127
5, 319056, Note_off_c, 3, 48, 64
5, 319200, Note_on_c, 3, 48, 127
5, 319584, Note_off_c, 3, 48, 64
5, 320160, Note_on_c, 3, 43, 127
5, 320400, Note_off_c, 3, 43, 64
5, 320400, Note_on_c, 3, 45, 127
5, 320520, Note_off_c, 3, 45, 64
5, 320520, Note_on_c, 3, 47, 127
5, 320640, Note_off_c, 3, 47, 64
5, 320640, Note_on_c, 3, 48, 127
5, 320736, Note_off_c, 3, 48, 64
5, 320880, Note_on_c, 3, 48, 127
5, 320976, Note_off_c, 3, 48, 64
5, 321120, Note_on_c, 3, 48, 127
5, 321504, Note_off_c, 3, 48, 64
5, 321600, Note_on_c, 3, 48, 127
5, 321984, Note_off_c, 3, 48, 64
5, 322080, Note_on_c, 3, 47, 127
5, 322464, Note_off_c, 3, 47, 64
5, 322560, Note_on_c, 3, 47, 127
5, 322560, Note_on_c, 3, 35, 127
5, 322944, Note_off_c, 3, 35, 64
5, 322944, Note_off_c, 3, 47, 64
5, 323040, Note_on_c, 3, 64, 80
5, 323040, Note_on_c, 3, 52, 40
5, 323136, Note_off_c, 3, 52, 64
5, 323136, Note_off_c, 3, 64, 64
5, 323280, Note_on_c, 3, 64, 40
5, 323280, Note_on_c, 3, 52, 40
5, 323376, Note_off_c, 3, 52, 64
5, 323376, Note_off_c, 3, 64, 64
5, 323520, Note_on_c, 3, 64, 40
5, 323520, Note_on_c, 3, 52, 40
5, 323616, Note_off_c, 3, 52, 64
5, 323616, Note_off_c, 3, 64, 64
5, 324000, Note_on_c, 3, 63, 40
5, 324000, Note_on_c, 3, 47, 40
5, 324096, Note_off_c, 3, 47, 64
5, 324096, Note_off_c, 3, 63, 64
5, 324240, Note_on_c, 3, 63, 40
5, 324240, Note_on_c, 3, 47, 40
5, 324336, Note_off_c, 3, 47, 64
5, 324336, Note_off_c, 3, 63, 64
5, 324480, Note_on_c, 3, 47, 40
5, 324480, Note_on_c, 3, 63, 40
5, 324576, Note_off_c, 3, 63, 64
5, 324576, Note_off_c, 3, 47, 64
5, 324960, Note_on_c, 3, 64, 40
5, 324960, Note_on_c, 3, 52, 40
5, 325056, Note_off_c, 3, 52, 64
5, 325056, Note_off_c, 3, 64, 64
5, 325200, Note_on_c, 3, 64, 40
5, 325200, Note_on_c, 3, 52, 40
5, 325296, Note_off_c, 3, 52, 64
5, 325296, Note_off_c, 3, 64, 64
5, 325440, Note_on_c, 3, 64, 40
5, 325440, Note_on_c, 3, 52, 40
5, 325536, Note_off_c, 3, 52, 64
5, 325536, Note_off_c, 3, 64, 64
5, 325920, Note_on_c, 3, 63, 60
5, 325920, Note_on_c, 3, 47, 60
5, 326016, Note_off_c, 3, 47, 64
5, 326016, Note_off_c, 3, 63, 64
5, 326160, Note_on_c, 3, 47, 60
5, 326160, Note_on_c, 3, 63, 60
5, 326256, Note_off_c, 3, 63, 64
5, 326256, Note_off_c, 3, 47, 64
5, 326400, Note_on_c, 3, 63, 60
5, 326400, Note_on_c, 3, 47, 60
5, 326496, Note_off_c, 3, 47, 64
5, 326496, Note_off_c, 3, 63, 64
5, 326640, Note_on_c, 3, 47, 60
5, 326640, Note_on_c, 3, 63, 60
5, 326736, Note_off_c, 3, 63, 64
5, 326736, Note_off_c, 3, 47, 64
5, 326880, Note_on_c, 3, 52, 40
5, 326880, Note_on_c, 3, 64, 80
5, 326976, Note_off_c, 3, 64, 64
5, 326976, Note_off_c, 3, 52, 64
5, 327120, Note_on_c, 3, 64, 40
5, 327120, Note_on_c, 3, 52, 40
5, 327216, Note_off_c, 3, 52, 64
5, 327216, Note_off_c, 3, 64, 64
5, 327360, Note_on_c, 3, 52, 40
5, 327360, Note_on_c, 3, 64, 40
5, 327456, Note_off_c, 3, 64, 64
5, 327456, Note_off_c, 3, 52, 64
5, 327840, Note_on_c, 3, 47, 40
5, 327840, Note_on_c, 3, 63, 40
5, 327936, Note_off_c, 3, 63, 64
5, 327936, Note_off_c, 3, 47, 64
5, 328080, Note_on_c, 3, 63, 40
5, 328080, Note_on_c, 3, 47, 40
5, 328176, Note_off_c, 3, 47, 64
5, 328176, Note_off_c, 3, 63, 64
5, 328320, Note_on_c, 3, 47, 40
5, 328320, Note_on_c, 3, 63, 40
5, 328416, Note_off_c, 3, 63, 64
5, 328416, Note_off_c, 3, 47, 64
5, 328800, Note_on_c, 3, 64, 40
5, 328800, Note_on_c, 3, 52, 40
5, 328896, Note_off_c, 3, 52, 64
5, 328896, Note_off_c, 3, 64, 64
5, 329040, Note_on_c, 3, 52, 40
5, 329040, Note_on_c, 3, 64, 40
5, 329136, Note_off_c, 3, 64, 64
5, 329136, Note_off_c, 3, 52, 64
5, 329280, Note_on_c, 3, 64, 40
5, 329280, Note_on_c, 3, 52, 40
5, 329376, Note_off_c, 3, 52, 64
5, 329376, Note_off_c, 3, 64, 64
5, 329760, Note_on_c, 3, 63, 60
5, 329760, Note_on_c, 3, 47, 60
5, 329856, Note_off_c, 3, 47, 64
5, 329856, Note_off_c, 3, 63, 64
5, 330000, Note_on_c, 3, 63, 60
5, 330000, Note_on_c, 3, 47, 60
5, 330096, Note_off_c, 3, 47, 64
5, 330096, Note_off_c, 3, 63, 64
5, 330240, Note_on_c, 3, 63, 60
5, 330240, Note_on_c, 3, 47, 60
5, 330336, Note_off_c, 3, 47, 64
5, 330336, Note_off_c, 3, 63, 64
5, 330480, Note_on_c, 3, 47, 60
5, 330480, Note_on_c, 3, 63, 60
5, 330576, Note_off_c, 3, 63, 64
5, 330576, Note_off_c, 3, 47, 64
5, 330720, Note_on_c, 3, 64, 60
5, 330720, Note_on_c, 3, 52, 60
5, 330816, Note_off_c, 3, 52, 64
5, 330816, Note_off_c, 3, 64, 64
5, 330960, Note_on_c, 3, 64, 60
5, 330960, Note_on_c, 3, 52, 60
5, 331056, Note_off_c, 3, 52, 64
5, 331056, Note_off_c, 3, 64, 64
5, 331200, Note_on_c, 3, 63, 60
5, 331200, Note_on_c, 3, 47, 60
5, 331296, Note_off_c, 3, 47, 64
5, 331296, Note_off_c, 3, 63, 64
5, 331440, Note_on_c, 3, 47, 60
5, 331440, Note_on_c, 3, 63, 60
5, 331536, Note_off_c, 3, 63, 64
5, 331536, Note_off_c, 3, 47, 64
5, 331680, Note_on_c, 3, 64, 60
5, 331680, Note_on_c, 3, 52, 60
5, 331776, Note_off_c, 3, 52, 64
5, 331776, Note_off_c, 3, 64, 64
5, 331920, Note_on_c, 3, 52, 60
5, 331920, Note_on_c, 3, 64, 60
5, 332016, Note_off_c, 3, 64, 64
5, 332016, Note_off_c, 3, 52, 64
5, 332160, Note_on_c, 3, 47, 60
5, 332160, Note_on_c, 3, 63, 60
5, 332256, Note_off_c, 3, 63, 64
5, 332256, Note_off_c, 3, 47, 64
5, 332400, Note_on_c, 3, 47, 60
5, 332400, Note_on_c, 3, 63, 60
5, 332496, Note_off_c, 3, 63, 64
5, 332496, Note_off_c, 3, 47, 64
5, 332640, Note_on_c, 3, 52, 60
5, 332640, Note_on_c, 3, 64, 60
5, 332736, Note_off_c, 3, 64, 64
5, 332736, Note_off_c, 3, 52, 64
5, 332880, Note_on_c, 3, 52, 60
5, 332880, Note_on_c, 3, 64, 60
5, 332976, Note_off_c, 3, 64, 64
5, 332976, Note_off_c, 3, 52, 64
5, 333120, Note_on_c, 3, 47, 60
5, 333120, Note_on_c, 3, 63, 60
5, 333216, Note_off_c, 3, 63, 64
5, 333216, Note_off_c, 3, 47, 64
5, 333360, Note_on_c, 3, 63, 60
5, 333360, Note_on_c, 3, 47, 60
5, 333456, Note_off_c, 3, 47, 64
5, 333456, Note_off_c, 3, 63, 64
5, 333600, Note_on_c, 3, 52, 60
5, 333600, Note_on_c, 3, 64, 60
5, 333696, Note_off_c, 3, 64, 64
5, 333696, Note_off_c, 3, 52, 64
5, 333840, Note_on_c, 3, 52, 60
5, 333840, Note_on_c, 3, 64, 60
5, 333936, Note_off_c, 3, 64, 64
5, 333936, Note_off_c, 3, 52, 64
5, 334080, Note_on_c, 3, 47, 60
5, 334080, Note_on_c, 3, 63, 60
5, 334176, Note_off_c, 3, 63, 64
5, 334176, Note_off_c, 3, 47, 64
5, 334320, Note_on_c, 3, 63, 60
5, 334320, Note_on_c, 3, 47, 60
5, 334416, Note_off_c, 3, 47, 64
5, 334416, Note_off_c, 3, 63, 64
5, 334560, Note_on_c, 3, 52, 80
5, 334560, Note_on_c, 3, 64, 80
5, 334752, Note_off_c, 3, 64, 64
5, 334752, Note_off_c, 3, 52, 64
5, 335520, Note_on_c, 3, 64, 80
5, 335520, Note_on_c, 3, 52, 80
5, 335712, Note_off_c, 3, 52, 64
5, 335712, Note_off_c, 3, 64, 64
5, 336000, Note_on_c, 3, 52, 80
5, 336000, Note_on_c, 3, 64, 80
5, 336192, Note_off_c, 3, 64, 64
5, 336192, Note_off_c, 3, 52, 64
5, 336480, Note_on_c, 3, 52, 80
5, 336480, Note_on_c, 3, 64, 80
5, 336672, Note_off_c, 3, 64, 64
5, 336672, Note_off_c, 3, 52, 64
5, 337440, Note_on_c, 3, 52, 80
5, 337440, Note_on_c, 3, 64, 80
5, 337632, Note_off_c, 3, 64, 64
5, 337632, Note_off_c, 3, 52, 64
5, 351840, Note_on_c, 3, 55, 35
5, 352608, Note_off_c, 3, 55, 64
5, 352800, Note_on_c, 3, 52, 44
5, 353040, Note_off_c, 3, 52, 64
5, 353040, Note_on_c, 3, 53, 47
5, 353160, Note_off_c, 3, 53, 64
5, 353160, Note_on_c, 3, 55, 48
5, 353280, Note_off_c, 3, 55, 64
5, 353280, Note_on_c, 3, 57, 49
5, 353376, Note_off_c, 3, 57, 64
5, 353520, Note_on_c, 3, 57, 51
5, 353616, Note_off_c, 3, 57, 64
5, 353760, Note_on_c, 3, 53, 54
5, 354000, Note_off_c, 3, 53, 64
5, 354000, Note_on_c, 3, 55, 56
5, 354120, Note_off_c, 3, 55, 64
5, 354120, Note_on_c, 3, 57, 57
5, 354240, Note_off_c, 3, 57, 64
5, 354240, Note_on_c, 3, 59, 58
5, 354336, Note_off_c, 3, 59, 64
5, 354480, Note_on_c, 3, 59, 61
5, 354576, Note_off_c, 3, 59, 64
5, 354720, Note_on_c, 3, 55, 63
5, 354960, Note_off_c, 3, 55, 64
5, 354960, Note_on_c, 3, 57, 65
5, 355080, Note_off_c, 3, 57, 64
5, 355080, Note_on_c, 3, 59, 67
5, 355200, Note_off_c, 3, 59, 64
5, 355200, Note_on_c, 3, 60, 68
5, 355296, Note_off_c, 3, 60, 64
5, 355440, Note_on_c, 3, 60, 70
5, 355536, Note_off_c, 3, 60, 64
5, 355680, Note_on_c, 3, 57, 73
5, 355920, Note_off_c, 3, 57, 64
5, 355920, Note_on_c, 3, 59, 75
5, 356040, Note_off_c, 3, 59, 64
5, 356040, Note_on_c, 3, 60, 76
5, 356160, Note_off_c, 3, 60, 64
5, 356160, Note_on_c, 3, 62, 77
5, 356256, Note_off_c, 3, 62, 64
5, 356400, Note_on_c, 3, 62, 80
5, 356496, Note_off_c, 3, 62, 64
5, 356640, Note_on_c, 3, 59, 82
5, 356880, Note_off_c, 3, 59, 64
5, 356880, Note_on_c, 3, 60, 84
5, 357000, Note_off_c, 3, 60, 64
5, 357000, Note_on_c, 3, 62, 85
5, 357120, Note_off_c, 3, 62, 64
5, 357120, Note_on_c, 3, 64, 87
5, 357216, Note_off_c, 3, 64, 64
5, 357360, Note_on_c, 3, 64, 89
5, 357456, Note_off_c, 3, 64, 64
5, 357600, Note_on_c, 3, 60, 91
5, 357840, Note_off_c, 3, 60, 64
5, 357840, Note_on_c, 3, 62, 94
5, 357960, Note_off_c, 3, 62, 64
5, 357960, Note_on_c, 3, 64, 95
5, 358080, Note_off_c, 3, 64, 64
5, 358080, Note_on_c, 3, 65, 96
5, 358176, Note_off_c, 3, 65, 64
5, 358320, Note_on_c, 3, 55, 98
5, 358416, Note_off_c, 3, 55, 64
5, 358560, Note_on_c, 3, 55, 101
5, 358656, Note_off_c, 3, 55, 64
5, 358800, Note_on_c, 3, 55, 103
5, 358896, Note_off_c, 3, 55, 64
5, 359040, Note_on_c, 3, 55, 105
5, 359136, Note_off_c, 3, 55, 64
5, 359280, Note_on_c, 3, 55, 108
5, 359376, Note_off_c, 3, 55, 64
5, 359520, Note_on_c, 3, 43, 90
5, 359520, Note_on_c, 3, 67, 68
5, 359616, Note_off_c, 3, 43, 64
5, 359760, Note_on_c, 3, 55, 90
5, 359856, Note_off_c, 3, 55, 64
5, 360000, Note_on_c, 3, 55, 90
5, 360096, Note_off_c, 3, 55, 64
5, 360240, Note_on_c, 3, 43, 90
5, 360288, Note_off_c, 3, 67, 64
5, 360336, Note_off_c, 3, 43, 64
5, 360480, Note_on_c, 3, 43, 90
5, 360480, Note_on_c, 3, 64, 68
5, 360576, Note_off_c, 3, 43, 64
5, 360720, Note_off_c, 3, 64, 64
5, 360720, Note_on_c, 3, 65, 68
5, 360720, Note_on_c, 3, 55, 90
5, 360816, Note_off_c, 3, 55, 64
5, 360840, Note_off_c, 3, 65, 64
5, 360840, Note_on_c, 3, 67, 68
5, 360960, Note_off_c, 3, 67, 64
5, 360960, Note_on_c, 3, 55, 90
5, 360960, Note_on_c, 3, 69, 68
5, 361056, Note_off_c, 3, 69, 64
5, 361056, Note_off_c, 3, 55, 64
5, 361200, Note_on_c, 3, 43, 90
5, 361200, Note_on_c, 3, 69, 68
5, 361296, Note_off_c, 3, 69, 64
5, 361296, Note_off_c, 3, 43, 64
5, 361440, Note_on_c, 3, 65, 68
5, 361440, Note_on_c, 3, 43, 90
5, 361536, Note_off_c, 3, 43, 64
5, 361680, Note_on_c, 3, 55, 90
5, 361776, Note_off_c, 3, 55, 64
5, 361920, Note_on_c, 3, 55, 90
5, 362016, Note_off_c, 3, 55, 64
5, 362160, Note_on_c, 3, 43, 90
5, 362208, Note_off_c, 3, 65, 64
5, 362256, Note_off_c, 3, 43, 64
5, 362400, Note_on_c, 3, 62, 68
5, 362400, Note_on_c, 3, 43, 90
5, 362496, Note_off_c, 3, 43, 64
5, 362640, Note_off_c, 3, 62, 64
5, 362640, Note_on_c, 3, 64, 68
5, 362640, Note_on_c, 3, 55, 90
5, 362736, Note_off_c, 3, 55, 64
5, 362760, Note_off_c, 3, 64, 64
5, 362760, Note_on_c, 3, 65, 68
5, 362880, Note_off_c, 3, 65, 64
5, 362880, Note_on_c, 3, 55, 90
5, 362880, Note_on_c, 3, 67, 68
5, 362976, Note_off_c, 3, 67, 64
5, 362976, Note_off_c, 3, 55, 64
5, 363120, Note_on_c, 3, 43, 90
5, 363120, Note_on_c, 3, 67, 68
5, 363216, Note_off_c, 3, 67, 64
5, 363216, Note_off_c, 3, 43, 64
5, 363360, Note_on_c, 3, 43, 90
5, 363456, Note_off_c, 3, 43, 64
5, 363600, Note_on_c, 3, 55, 90
5, 363696, Note_off_c, 3, 55, 64
5, 363840, Note_on_c, 3, 55, 90
5, 363936, Note_off_c, 3, 55, 64
5, 364080, Note_on_c, 3, 43, 90
5, 364176, Note_off_c, 3, 43, 64
5, 364320, Note_on_c, 3, 43, 90
5, 364416, Note_off_c, 3, 43, 64
5, 364560, Note_on_c, 3, 55, 90
5, 364656, Note_off_c, 3, 55, 64
5, 364800, Note_on_c, 3, 55, 90
5, 364896, Note_off_c, 3, 55, 64
5, 365040, Note_on_c, 3, 43, 90
5, 365136, Note_off_c, 3, 43, 64
5, 365280, Note_on_c, 3, 43, 90
5, 365376, Note_off_c, 3, 43, 64
5, 365520, Note_on_c, 3, 55, 90
5, 365616, Note_off_c, 3, 55, 64
5, 365760, Note_on_c, 3, 55, 90
5, 365856, Note_off_c, 3, 55, 64
5, 366000, Note_on_c, 3, 43, 90
5, 366096, Note_off_c, 3, 43, 64
5, 366240, Note_on_c, 3, 43, 90
5, 366336, Note_off_c, 3, 43, 64
5, 366480, Note_on_c, 3, 55, 90
5, 366576, Note_off_c, 3, 55, 64
5, 366720, Note_on_c, 3, 55, 90
5, 366816, Note_off_c, 3, 55, 64
5, 366960, Note_on_c, 3, 43, 90
5, 367056, Note_off_c, 3, 43, 64
5, 367200, Note_on_c, 3, 43, 90
5, 367296, Note_off_c, 3, 43, 64
5, 367440, Note_on_c, 3, 55, 90
5, 367536, Note_off_c, 3, 55, 64
5, 367680, Note_on_c, 3, 55, 90
5, 367776, Note_off_c, 3, 55, 64
5, 367920, Note_on_c, 3, 43, 90
5, 368016, Note_off_c, 3, 43, 64
5, 368160, Note_on_c, 3, 43, 90
5, 368256, Note_off_c, 3, 43, 64
5, 368400, Note_on_c, 3, 55, 90
5, 368496, Note_off_c, 3, 55, 64
5, 368640, Note_on_c, 3, 55, 90
5, 368736, Note_off_c, 3, 55, 64
5, 368880, Note_on_c, 3, 43, 90
5, 368976, Note_off_c, 3, 43, 64
5, 369120, Note_on_c, 3, 43, 90
5, 369216, Note_off_c, 3, 43, 64
5, 369360, Note_on_c, 3, 55, 90
5, 369456, Note_off_c, 3, 55, 64
5, 369600, Note_on_c, 3, 43, 90
5, 369696, Note_off_c, 3, 43, 64
5, 369840, Note_on_c, 3, 43, 90
5, 369936, Note_off_c, 3, 43, 64
5, 370080, Note_on_c, 3, 43, 90
5, 370176, Note_off_c, 3, 43, 64
5, 370320, Note_on_c, 3, 55, 90
5, 370416, Note_off_c, 3, 55, 64
5, 370560, Note_on_c, 3, 43, 90
5, 370656, Note_off_c, 3, 43, 64
5, 370800, Note_on_c, 3, 43, 90
5, 370896, Note_off_c, 3, 43, 64
5, 371040, Note_on_c, 3, 43, 90
5, 371136, Note_off_c, 3, 43, 64
5, 371280, Note_on_c, 3, 55, 90
5, 371376, Note_off_c, 3, 55, 64
5, 371520, Note_on_c, 3, 43, 90
5, 371616, Note_off_c, 3, 43, 64
5, 371760, Note_on_c, 3, 43, 90
5, 371856, Note_off_c, 3, 43, 64
5, 372000, Note_on_c, 3, 43, 90
5, 372096, Note_off_c, 3, 43, 64
5, 372240, Note_on_c, 3, 55, 90
5, 372336, Note_off_c, 3, 55, 64
5, 372480, Note_on_c, 3, 43, 90
5, 372576, Note_off_c, 3, 43, 64
5, 372720, Note_on_c, 3, 43, 90
5, 372816, Note_off_c, 3, 43, 64
5, 372960, Note_on_c, 3, 43, 90
5, 372960, Note_on_c, 3, 62, 63
5, 372960, Note_on_c, 3, 65, 63
5, 373056, Note_off_c, 3, 43, 64
5, 373200, Note_off_c, 3, 62, 64
5, 373200, Note_off_c, 3, 65, 64
5, 373200, Note_on_c, 3, 55, 90
5, 373200, Note_on_c, 3, 64, 63
5, 373200, Note_on_c, 3, 67, 63
5, 373296, Note_off_c, 3, 55, 64
5, 373320, Note_off_c, 3, 64, 64
5, 373320, Note_off_c, 3, 67, 64
5, 373320, Note_on_c, 3, 65, 63
5, 373320, Note_on_c, 3, 62, 63
5, 373440, Note_off_c, 3, 62, 64
5, 373440, Note_off_c, 3, 65, 64
5, 373440, Note_on_c, 3, 43, 90
5, 373440, Note_on_c, 3, 64, 63
5, 373440, Note_on_c, 3, 60, 63
5, 373536, Note_off_c, 3, 43, 64
5, 373680, Note_off_c, 3, 64, 64
5, 373680, Note_off_c, 3, 60, 64
5, 373680, Note_on_c, 3, 62, 63
5, 373680, Note_on_c, 3, 65, 63
5, 373680, Note_on_c, 3, 43, 90
5, 373776, Note_off_c, 3, 43, 64
5, 373800, Note_off_c, 3, 65, 64
5, 373800, Note_off_c, 3, 62, 64
5, 373800, Note_on_c, 3, 60, 63
5, 373800, Note_on_c, 3, 64, 63
5, 373920, Note_off_c, 3, 64, 64
5, 373920, Note_off_c, 3, 60, 64
5, 373920, Note_on_c, 3, 62, 63
5, 373920, Note_on_c, 3, 59, 63
5, 373920, Note_on_c, 3, 43, 90
5, 374016, Note_off_c, 3, 43, 64
5, 374016, Note_off_c, 3, 59, 64
5, 374016, Note_off_c, 3, 62, 64
5, 374160, Note_on_c, 3, 55, 90
5, 374160, Note_on_c, 3, 64, 63
5, 374160, Note_on_c, 3, 60, 63
5, 374256, Note_off_c, 3, 55, 64
5, 374280, Note_off_c, 3, 64, 64
5, 374280, Note_off_c, 3, 60, 64
5, 374280, Note_on_c, 3, 62, 63
5, 374280, Note_on_c, 3, 59, 63
5, 374400, Note_off_c, 3, 59, 64
5, 374400, Note_off_c, 3, 62, 64
5, 374400, Note_on_c, 3, 43, 90
5, 374400, Note_on_c, 3, 60, 103
5, 374400, Note_on_c, 3, 57, 63
5, 374496, Note_off_c, 3, 57, 64
5, 374496, Note_off_c, 3, 60, 64
5, 374496, Note_off_c, 3, 43, 64
5, 374640, Note_on_c, 3, 43, 90
5, 374640, Note_on_c, 3, 62, 63
5, 374640, Note_on_c, 3, 59, 63
5, 374736, Note_off_c, 3, 59, 64
5, 374736, Note_off_c, 3, 62, 64
5, 374736, Note_off_c, 3, 43, 64
5, 374880, Note_on_c, 3, 43, 120
5, 374880, Note_on_c, 3, 64, 105
5, 374880, Note_on_c, 3, 60, 105
5, 374976, Note_off_c, 3, 60, 64
5, 374976, Note_off_c, 3, 64, 64
5, 374976, Note_off_c, 3, 43, 64
5, 375120, Note_on_c, 3, 59, 105
5, 375120, Note_on_c, 3, 62, 105
5, 375120, Note_on_c, 3, 55, 127
5, 375216, Note_off_c, 3, 55, 64
5, 375240, Note_off_c, 3, 62, 64
5, 375240, Note_off_c, 3, 59, 64
5, 375240, Note_on_c, 3, 64, 105
5, 375240, Note_on_c, 3, 60, 105
5, 375360, Note_off_c, 3, 60, 64
5, 375360, Note_off_c, 3, 64, 64
5, 375360, Note_on_c, 3, 43, 120
5, 375360, Note_on_c, 3, 62, 105
5, 375360, Note_on_c, 3, 65, 127
5, 375456, Note_off_c, 3, 65, 64
5, 375456, Note_off_c, 3, 62, 64
5, 375456, Note_off_c, 3, 43, 64
5, 375600, Note_on_c, 3, 43, 120
5, 375600, Note_on_c, 3, 64, 105
5, 375600, Note_on_c, 3, 60, 105
5, 375696, Note_off_c, 3, 60, 64
5, 375696, Note_off_c, 3, 64, 64
5, 375696, Note_off_c, 3, 43, 64
5, 375840, Note_on_c, 3, 62, 63
5, 375840, Note_on_c, 3, 59, 63
5, 375840, Note_on_c, 3, 43, 90
5, 375936, Note_off_c, 3, 43, 64
5, 375936, Note_off_c, 3, 59, 64
5, 375936, Note_off_c, 3, 62, 64
5, 376080, Note_on_c, 3, 60, 63
5, 376080, Note_on_c, 3, 64, 63
5, 376080, Note_on_c, 3, 55, 90
5, 376176, Note_off_c, 3, 55, 64
5, 376200, Note_off_c, 3, 64, 64
5, 376200, Note_off_c, 3, 60, 64
5, 376200, Note_on_c, 3, 62, 63
5, 376200, Note_on_c, 3, 59, 63
5, 376320, Note_off_c, 3, 59, 64
5, 376320, Note_off_c, 3, 62, 64
5, 376320, Note_on_c, 3, 60, 63
5, 376320, Note_on_c, 3, 57, 103
5, 376320, Note_on_c, 3, 43, 90
5, 376416, Note_off_c, 3, 43, 64
5, 376416, Note_off_c, 3, 57, 64
5, 376416, Note_off_c, 3, 60, 64
5, 376560, Note_on_c, 3, 59, 63
5, 376560, Note_on_c, 3, 62, 63
5, 376560, Note_on_c, 3, 43, 90
5, 376656, Note_off_c, 3, 43, 64
5, 376656, Note_off_c, 3, 62, 64
5, 376656, Note_off_c, 3, 59, 64
5, 376800, Note_on_c, 3, 43, 120
5, 376800, Note_on_c, 3, 60, 105
5, 376800, Note_on_c, 3, 64, 105
5, 376896, Note_off_c, 3, 64, 64
5, 376896, Note_off_c, 3, 60, 64
5, 376896, Note_off_c, 3, 43, 64
5, 377040, Note_on_c, 3, 62, 105
5, 377040, Note_on_c, 3, 65, 105
5, 377040, Note_on_c, 3, 55, 120
5, 377136, Note_off_c, 3, 55, 64
5, 377160, Note_off_c, 3, 65, 64
5, 377160, Note_off_c, 3, 62, 64
5, 377160, Note_on_c, 3, 64, 105
5, 377160, Note_on_c, 3, 60, 105
5, 377280, Note_off_c, 3, 60, 64
5, 377280, Note_off_c, 3, 64, 64
5, 377280, Note_on_c, 3, 43, 120
5, 377280, Note_on_c, 3, 59, 127
5, 377280, Note_on_c, 3, 62, 105
5, 377376, Note_off_c, 3, 62, 64
5, 377376, Note_off_c, 3, 59, 64
5, 377376, Note_off_c, 3, 43, 64
5, 377520, Note_on_c, 3, 43, 120
5, 377520, Note_on_c, 3, 60, 105
5, 377520, Note_on_c, 3, 64, 105
5, 377616, Note_off_c, 3, 64, 64
5, 377616, Note_off_c, 3, 60, 64
5, 377616, Note_off_c, 3, 43, 64
5, 377760, Note_on_c, 3, 67, 105
5, 377760, Note_on_c, 3, 43, 120
5, 377856, Note_off_c, 3, 43, 64
5, 377856, Note_off_c, 3, 67, 64
5, 378000, Note_on_c, 3, 66, 105
5, 378000, Note_on_c, 3, 55, 120
5, 378096, Note_off_c, 3, 55, 64
5, 378120, Note_off_c, 3, 66, 64
5, 378120, Note_on_c, 3, 67, 105
5, 378240, Note_off_c, 3, 67, 64
5, 378240, Note_on_c, 3, 69, 127
5, 378240, Note_on_c, 3, 43, 120
5, 378336, Note_off_c, 3, 43, 64
5, 378336, Note_off_c, 3, 69, 64
5, 378480, Note_on_c, 3, 67, 105
5, 378480, Note_on_c, 3, 43, 120
5, 378576, Note_off_c, 3, 43, 64
5, 378576, Note_off_c, 3, 67, 64
5, 378720, Note_on_c, 3, 43, 120
5, 378720, Note_on_c, 3, 66, 105
5, 378816, Note_off_c, 3, 66, 64
5, 378816, Note_off_c, 3, 43, 64
5, 378960, Note_on_c, 3, 55, 120
5, 378960, Note_on_c, 3, 62, 105
5, 379056, Note_off_c, 3, 55, 64
5, 379080, Note_off_c, 3, 62, 64
5, 379080, Note_on_c, 3, 64, 105
5, 379200, Note_off_c, 3, 64, 64
5, 379200, Note_on_c, 3, 43, 120
5, 379200, Note_on_c, 3, 66, 127
5, 379296, Note_off_c, 3, 66, 64
5, 379296, Note_off_c, 3, 43, 64
5, 379440, Note_on_c, 3, 66, 105
5, 379440, Note_on_c, 3, 43, 120
5, 379536, Note_off_c, 3, 43, 64
5, 379536, Note_off_c, 3, 66, 64
5, 379680, Note_on_c, 3, 43, 120
5, 379680, Note_on_c, 3, 65, 105
5, 379776, Note_off_c, 3, 65, 64
5, 379776, Note_off_c, 3, 43, 64
5, 379920, Note_on_c, 3, 55, 120
5, 379920, Note_on_c, 3, 64, 105
5, 380016, Note_off_c, 3, 55, 64
5, 380040, Note_off_c, 3, 64, 64
5, 380040, Note_on_c, 3, 65, 105
5, 380160, Note_off_c, 3, 65, 64
5, 380160, Note_on_c, 3, 43, 120
5, 380160, Note_on_c, 3, 67, 127
5, 380256, Note_off_c, 3, 67, 64
5, 380256, Note_off_c, 3, 43, 64
5, 380400, Note_on_c, 3, 43, 120
5, 380400, Note_on_c, 3, 65, 105
5, 380496, Note_off_c, 3, 65, 64
5, 380496, Note_off_c, 3, 43, 64
5, 380640, Note_on_c, 3, 52, 56
5, 380640, Note_on_c, 3, 43, 68
5, 380736, Note_off_c, 3, 43, 64
5, 380736, Note_off_c, 3, 52, 64
5, 380880, Note_on_c, 3, 55, 68
5, 380880, Note_on_c, 3, 64, 56
5, 380880, Note_on_c, 3, 67, 56
5, 380976, Note_off_c, 3, 67, 64
5, 380976, Note_off_c, 3, 64, 64
5, 380976, Note_off_c, 3, 55, 64
5, 381120, Note_on_c, 3, 43, 68
5, 381120, Note_on_c, 3, 69, 96
5, 381120, Note_on_c, 3, 65, 56
5, 381216, Note_off_c, 3, 65, 64
5, 381216, Note_off_c, 3, 69, 64
5, 381216, Note_off_c, 3, 43, 64
5, 381360, Note_on_c, 3, 67, 56
5, 381360, Note_on_c, 3, 43, 68
5, 381360, Note_on_c, 3, 64, 56
5, 381456, Note_off_c, 3, 64, 64
5, 381456, Note_off_c, 3, 43, 64
5, 381456, Note_off_c, 3, 67, 64
5, 381600, Note_on_c, 3, 62, 56
5, 381600, Note_on_c, 3, 65, 56
5, 381600, Note_on_c, 3, 43, 68
5, 381696, Note_off_c, 3, 43, 64
5, 381696, Note_off_c, 3, 65, 64
5, 381696, Note_off_c, 3, 62, 64
5, 381840, Note_on_c, 3, 65, 56
5, 381840, Note_on_c, 3, 62, 56
5, 381840, Note_on_c, 3, 55, 68
5, 381936, Note_off_c, 3, 55, 64
5, 381936, Note_off_c, 3, 62, 64
5, 381936, Note_off_c, 3, 65, 64
5, 382080, Note_on_c, 3, 43, 68
5, 382080, Note_on_c, 3, 67, 96
5, 382080, Note_on_c, 3, 64, 56
5, 382176, Note_off_c, 3, 64, 64
5, 382176, Note_off_c, 3, 67, 64
5, 382176, Note_off_c, 3, 43, 64
5, 382320, Note_on_c, 3, 62, 56
5, 382320, Note_on_c, 3, 65, 56
5, 382320, Note_on_c, 3, 43, 68
5, 382416, Note_off_c, 3, 43, 64
5, 382416, Note_off_c, 3, 65, 64
5, 382416, Note_off_c, 3, 62, 64
5, 382560, Note_on_c, 3, 60, 56
5, 382560, Note_on_c, 3, 64, 56
5, 382560, Note_on_c, 3, 43, 68
5, 382656, Note_off_c, 3, 43, 64
5, 382656, Note_off_c, 3, 64, 64
5, 382656, Note_off_c, 3, 60, 64
5, 382800, Note_on_c, 3, 55, 68
5, 382800, Note_on_c, 3, 64, 56
5, 382800, Note_on_c, 3, 60, 56
5, 382896, Note_off_c, 3, 60, 64
5, 382896, Note_off_c, 3, 64, 64
5, 382896, Note_off_c, 3, 55, 64
5, 383040, Note_on_c, 3, 62, 56
5, 383040, Note_on_c, 3, 65, 96
5, 383040, Note_on_c, 3, 43, 68
5, 383136, Note_off_c, 3, 43, 64
5, 383136, Note_off_c, 3, 65, 64
5, 383136, Note_off_c, 3, 62, 64
5, 383280, Note_on_c, 3, 60, 56
5, 383280, Note_on_c, 3, 64, 56
5, 383280, Note_on_c, 3, 43, 68
5, 383376, Note_off_c, 3, 43, 64
5, 383376, Note_off_c, 3, 64, 64
5, 383376, Note_off_c, 3, 60, 64
5, 383520, Note_on_c, 3, 59, 56
5, 383520, Note_on_c, 3, 62, 56
5, 383520, Note_on_c, 3, 43, 68
5, 383616, Note_off_c, 3, 43, 64
5, 383616, Note_off_c, 3, 62, 64
5, 383616, Note_off_c, 3, 59, 64
5, 383760, Note_on_c, 3, 55, 68
5, 383760, Note_on_c, 3, 59, 56
5, 383760, Note_on_c, 3, 62, 56
5, 383856, Note_off_c, 3, 62, 64
5, 383856, Note_off_c, 3, 59, 64
5, 383856, Note_off_c, 3, 55, 64
5, 384000, Note_on_c, 3, 64, 96
5, 384000, Note_on_c, 3, 60, 56
5, 384000, Note_on_c, 3, 43, 68
5, 384096, Note_off_c, 3, 43, 64
5, 384096, Note_off_c, 3, 60, 64
5, 384096, Note_off_c, 3, 64, 64
5, 384240, Note_on_c, 3, 59, 56
5, 384240, Note_on_c, 3, 62, 56
5, 384240, Note_on_c, 3, 43, 68
5, 384336, Note_off_c, 3, 43, 64
5, 384336, Note_off_c, 3, 62, 64
5, 384336, Note_off_c, 3, 59, 64
5, 384480, Note_on_c, 3, 43, 68
5, 384480, Note_on_c, 3, 60, 96
5, 384480, Note_on_c, 3, 57, 56
5, 384576, Note_off_c, 3, 57, 64
5, 384576, Note_off_c, 3, 60, 64
5, 384576, Note_off_c, 3, 43, 64
5, 384720, Note_on_c, 3, 55, 68
5, 384720, Note_on_c, 3, 59, 56
5, 384720, Note_on_c, 3, 62, 56
5, 384816, Note_off_c, 3, 62, 64
5, 384816, Note_off_c, 3, 59, 64
5, 384816, Note_off_c, 3, 55, 64
5, 384960, Note_on_c, 3, 43, 68
5, 384960, Note_on_c, 3, 55, 56
5, 384960, Note_on_c, 3, 59, 96
5, 385056, Note_off_c, 3, 59, 64
5, 385056, Note_off_c, 3, 55, 64
5, 385056, Note_off_c, 3, 43, 64
5, 385200, Note_on_c, 3, 43, 68
5, 385200, Note_on_c, 3, 57, 56
5, 385200, Note_on_c, 3, 60, 56
5, 385296, Note_off_c, 3, 60, 64
5, 385296, Note_off_c, 3, 57, 64
5, 385296, Note_off_c, 3, 43, 64
5, 385440, Note_on_c, 3, 43, 68
5, 385440, Note_on_c, 3, 53, 56
5, 385440, Note_on_c, 3, 57, 96
5, 385536, Note_off_c, 3, 57, 64
5, 385536, Note_off_c, 3, 53, 64
5, 385536, Note_off_c, 3, 43, 64
5, 385680, Note_on_c, 3, 55, 56
5, 385680, Note_on_c, 3, 59, 56
5, 385680, Note_on_c, 3, 55, 68
5, 385776, Note_off_c, 3, 55, 64
5, 385776, Note_off_c, 3, 59, 64
5, 385776, Note_off_c, 3, 55, 64
5, 385920, Note_on_c, 3, 43, 68
5, 385920, Note_on_c, 3, 52, 56
5, 385920, Note_on_c, 3, 55, 96
5, 386016, Note_off_c, 3, 55, 64
5, 386016, Note_off_c, 3, 52, 64
5, 386016, Note_off_c, 3, 43, 64
5, 386160, Note_on_c, 3, 53, 56
5, 386160, Note_on_c, 3, 43, 68
5, 386160, Note_on_c, 3, 57, 56
5, 386256, Note_off_c, 3, 57, 64
5, 386256, Note_off_c, 3, 43, 64
5, 386256, Note_off_c, 3, 53, 64
5, 386400, Note_on_c, 3, 43, 68
5, 386400, Note_on_c, 3, 53, 96
5, 386400, Note_on_c, 3, 50, 56
5, 386496, Note_off_c, 3, 50, 64
5, 386496, Note_off_c, 3, 53, 64
5, 386496, Note_off_c, 3, 43, 64
5, 386640, Note_on_c, 3, 55, 68
5, 386640, Note_on_c, 3, 55, 56
5, 386640, Note_on_c, 3, 52, 56
5, 386736, Note_off_c, 3, 52, 64
5, 386736, Note_off_c, 3, 55, 64
5, 386736, Note_off_c, 3, 55, 64
5, 386880, Note_on_c, 3, 43, 68
5, 386880, Note_on_c, 3, 48, 56
5, 386880, Note_on_c, 3, 52, 96
5, 386976, Note_off_c, 3, 52, 64
5, 386976, Note_off_c, 3, 48, 64
5, 386976, Note_off_c, 3, 43, 64
5, 387120, Note_on_c, 3, 43, 68
5, 387120, Note_on_c, 3, 53, 56
5, 387120, Note_on_c, 3, 50, 56
5, 387216, Note_off_c, 3, 50, 64
5, 387216, Note_off_c, 3, 53, 64
5, 387216, Note_off_c, 3, 43, 64
5, 387360, Note_on_c, 3, 43, 68
5, 387360, Note_on_c, 3, 47, 56
5, 387360, Note_on_c, 3, 50, 96
5, 387456, Note_off_c, 3, 50, 64
5, 387456, Note_off_c, 3, 47, 64
5, 387456, Note_off_c, 3, 43, 64
5, 387600, Note_on_c, 3, 52, 56
5, 387600, Note_on_c, 3, 48, 56
5, 387600, Note_on_c, 3, 55, 68
5, 387696, Note_off_c, 3, 55, 64
5, 387696, Note_off_c, 3, 48, 64
5, 387696, Note_off_c, 3, 52, 64
5, 387840, Note_on_c, 3, 43, 68
5, 387840, Note_on_c, 3, 45, 56
5, 387840, Note_on_c, 3, 48, 96
5, 387936, Note_off_c, 3, 48, 64
5, 387936, Note_off_c, 3, 45, 64
5, 387936, Note_off_c, 3, 43, 64
5, 388080, Note_on_c, 3, 50, 56
5, 388080, Note_on_c, 3, 43, 68
5, 388080, Note_on_c, 3, 47, 56
5, 388176, Note_off_c, 3, 47, 64
5, 388176, Note_off_c, 3, 43, 64
5, 388176, Note_off_c, 3, 50, 64
5, 388320, Note_on_c, 3, 47, 60
5, 388320, Note_on_c, 3, 43, 60
5, 388512, Note_off_c, 3, 43, 64
5, 388512, Note_off_c, 3, 47, 64
5, 388800, Note_on_c, 3, 59, 80
5, 388800, Note_on_c, 3, 55, 80
5, 392256, Note_off_c, 3, 55, 64
5, 392256, Note_off_c, 3, 59, 64
5, 393600, Note_on_c, 3, 57, 80
5, 393600, Note_on_c, 3, 45, 80
5, 397536, Note_off_c, 3, 45, 64
5, 397536, Note_off_c, 3, 57, 64
5, 398880, Note_on_c, 3, 59, 80
5, 398880, Note_on_c, 3, 47, 80
5, 399072, Note_off_c, 3, 47, 64
5, 399072, Note_off_c, 3, 59, 64
5, 399840, Note_on_c, 3, 60, 80
5, 399840, Note_on_c, 3, 48, 80
5, 400032, Note_off_c, 3, 48, 64
5, 400032, Note_off_c, 3, 60, 64
5, 400800, Note_on_c, 3, 55, 80
5, 400800, Note_on_c, 3, 43, 80
5, 400992, Note_off_c, 3, 43, 64
5, 400992, Note_off_c, 3, 55, 64
5, 402960, Note_on_c, 3, 60, 40
5, 403056, Note_off_c, 3, 60, 64
5, 403200, Note_on_c, 3, 62, 40
5, 403296, Note_off_c, 3, 62, 64
5, 403440, Note_on_c, 3, 64, 40
5, 403536, Note_off_c, 3, 64, 64
5, 403680, Note_on_c, 3, 65, 40
5, 403776, Note_off_c, 3, 65, 64
5, 404880, Note_on_c, 3, 60, 40
5, 404976, Note_off_c, 3, 60, 64
5, 405120, Note_on_c, 3, 62, 40
5, 405216, Note_off_c, 3, 62, 64
5, 405360, Note_on_c, 3, 64, 40
5, 405456, Note_off_c, 3, 64, 64
5, 405600, Note_on_c, 3, 65, 40
5, 405696, Note_off_c, 3, 65, 64
5, 411360, Note_on_c, 3, 65, 48
5, 411600, Note_off_c, 3, 65, 64
5, 411600, Note_on_c, 3, 64, 48
5, 411720, Note_off_c, 3, 64, 64
5, 411720, Note_on_c, 3, 65, 48
5, 411840, Note_off_c, 3, 65, 64
5, 411840, Note_on_c, 3, 67, 48
5, 411936, Note_off_c, 3, 67, 64
5, 412080, Note_on_c, 3, 65, 48
5, 412176, Note_off_c, 3, 65, 64
5, 412320, Note_on_c, 3, 64, 40
5, 412416, Note_off_c, 3, 64, 64
5, 412560, Note_on_c, 3, 64, 40
5, 413040, Note_off_c, 3, 64, 64
5, 413040, Note_on_c, 3, 65, 40
5, 413160, Note_off_c, 3, 65, 64
5, 413160, Note_on_c, 3, 67, 40
5, 413280, Note_off_c, 3, 67, 64
5, 413280, Note_on_c, 3, 53, 40
5, 413376, Note_off_c, 3, 53, 64
5, 413520, Note_on_c, 3, 65, 40
5, 413616, Note_off_c, 3, 65, 64
5, 413760, Note_on_c, 3, 65, 40
5, 413856, Note_off_c, 3, 65, 64
5, 414000, Note_on_c, 3, 65, 40
5, 414096, Note_off_c, 3, 65, 64
5, 414240, Note_on_c, 3, 65, 25
5, 414240, Note_on_c, 3, 62, 25
5, 415200, Note_off_c, 3, 62, 64
5, 415200, Note_off_c, 3, 65, 64
5, 415200, Note_on_c, 3, 50, 25
5, 415200, Note_on_c, 3, 53, 25
5, 416160, Note_off_c, 3, 53, 64
5, 416160, Note_off_c, 3, 50, 64
5, 416160, Note_on_c, 3, 51, 25
5, 416160, Note_on_c, 3, 48, 25
5, 418080, Note_off_c, 3, 48, 64
5, 418080, Note_off_c, 3, 51, 64
5, 418080, Note_on_c, 3, 51, 25
5, 418080, Note_on_c, 3, 54, 25
5, 420000, Note_off_c, 3, 54, 64
5, 420000, Note_off_c, 3, 51, 64
5, 420000, Note_on_c, 3, 53, 25
5, 420000, Note_on_c, 3, 49, 25
5, 421920, Note_off_c, 3, 49, 64
5, 421920, Note_off_c, 3, 53, 64
5, 421920, Note_on_c, 3, 56, 25
5, 421920, Note_on_c, 3, 53, 25
5, 423840, Note_off_c, 3, 53, 64
5, 423840, Note_off_c, 3, 56, 64
5, 423840, Note_on_c, 3, 54, 25
5, 423840, Note_on_c, 3, 51, 25
5, 425760, Note_off_c, 3, 51, 64
5, 425760, Note_off_c, 3, 54, 64
5, 425760, Note_on_c, 3, 58, 25
5, 425760, Note_on_c, 3, 54, 25
5, 427680, Note_off_c, 3, 54, 64
5, 427680, Note_off_c, 3, 58, 64
5, 427680, Note_on_c, 3, 53, 25
5, 427680, Note_on_c, 3, 56, 25
5, 428640, Note_off_c, 3, 56, 64
5, 428640, Note_off_c, 3, 53, 64
5, 428640, Note_on_c, 3, 49, 25
5, 428640, Note_on_c, 3, 53, 25
5, 430560, Note_off_c, 3, 49, 64
5, 430560, Note_on_c, 3, 50, 39
5, 432480, Note_off_c, 3, 53, 64
5, 432480, Note_off_c, 3, 50, 64
5, 432480, Note_on_c, 3, 50, 80
5, 432480, Note_on_c, 3, 59, 80
5, 432576, Note_off_c, 3, 59, 64
5, 432576, Note_off_c, 3, 50, 64
5, 432720, Note_on_c, 3, 60, 80
5, 432720, Note_on_c, 3, 52, 80
5, 432840, Note_off_c, 3, 52, 64
5, 432840, Note_off_c, 3, 60, 64
5, 432840, Note_on_c, 3, 50, 80
5, 432840, Note_on_c, 3, 59, 80
5, 432960, Note_off_c, 3, 59, 64
5, 432960, Note_off_c, 3, 50, 64
5, 432960, Note_on_c, 3, 48, 80
5, 432960, Note_on_c, 3, 57, 80
5, 433056, Note_off_c, 3, 57, 64
5, 433056, Note_off_c, 3, 48, 64
5, 433200, Note_on_c, 3, 59, 80
5, 433200, Note_on_c, 3, 50, 80
5, 433296, Note_off_c, 3, 50, 64
5, 433296, Note_off_c, 3, 59, 64
5, 433440, Note_on_c, 3, 60, 80
5, 433440, Note_on_c, 3, 52, 80
5, 433536, Note_off_c, 3, 52, 64
5, 433536, Note_off_c, 3, 60, 64
5, 433680, Note_on_c, 3, 53, 80
5, 433680, Note_on_c, 3, 62, 80
5, 433800, Note_off_c, 3, 62, 64
5, 433800, Note_off_c, 3, 53, 64
5, 433800, Note_on_c, 3, 52, 80
5, 433800, Note_on_c, 3, 60, 80
5, 433920, Note_off_c, 3, 60, 64
5, 433920, Note_off_c, 3, 52, 64
5, 433920, Note_on_c, 3, 59, 80
5, 433920, Note_on_c, 3, 50, 80
5, 434016, Note_off_c, 3, 50, 64
5, 434016, Note_off_c, 3, 59, 64
5, 434160, Note_on_c, 3, 52, 80
5, 434160, Note_on_c, 3, 60, 80
5, 434256, Note_off_c, 3, 60, 64
5, 434256, Note_off_c, 3, 52, 64
5, 434400, Note_on_c, 3, 50, 80
5, 434400, Note_on_c, 3, 59, 80
5, 434496, Note_off_c, 3, 59, 64
5, 434496, Note_off_c, 3, 50, 64
5, 434640, Note_on_c, 3, 60, 80
5, 434640, Note_on_c, 3, 52, 80
5, 434760, Note_off_c, 3, 52, 64
5, 434760, Note_off_c, 3, 60, 64
5, 434760, Note_on_c, 3, 59, 80
5, 434760, Note_on_c, 3, 50, 80
5, 434880, Note_off_c, 3, 50, 64
5, 434880, Note_off_c, 3, 59, 64
5, 434880, Note_on_c, 3, 48, 80
5, 434880, Note_on_c, 3, 57, 80
5, 434976, Note_off_c, 3, 57, 64
5, 434976, Note_off_c, 3, 48, 64
5, 435120, Note_on_c, 3, 50, 80
5, 435120, Note_on_c, 3, 59, 80
5, 435216, Note_off_c, 3, 59, 64
5, 435216, Note_off_c, 3, 50, 64
5, 435360, Note_on_c, 3, 60, 80
5, 435360, Note_on_c, 3, 52, 80
5, 435456, Note_off_c, 3, 52, 64
5, 435456, Note_off_c, 3, 60, 64
5, 435600, Note_on_c, 3, 62, 80
5, 435600, Note_on_c, 3, 53, 80
5, 435720, Note_off_c, 3, 53, 64
5, 435720, Note_off_c, 3, 62, 64
5, 435720, Note_on_c, 3, 60, 80
5, 435720, Note_on_c, 3, 52, 80
5, 435840, Note_off_c, 3, 52, 64
5, 435840, Note_off_c, 3, 60, 64
5, 435840, Note_on_c, 3, 50, 80
5, 435840, Note_on_c, 3, 59, 80
5, 435936, Note_off_c, 3, 59, 64
5, 435936, Note_off_c, 3, 50, 64
5, 436080, Note_on_c, 3, 52, 80
5, 436080, Note_on_c, 3, 60, 80
5, 436176, Note_off_c, 3, 60, 64
5, 436176, Note_off_c, 3, 52, 64
5, 436320, Note_on_c, 3, 50, 80
5, 436320, Note_on_c, 3, 59, 80
5, 436416, Note_off_c, 3, 59, 64
5, 436416, Note_off_c, 3, 50, 64
5, 436560, Note_on_c, 3, 60, 80
5, 436560, Note_on_c, 3, 52, 80
5, 436680, Note_off_c, 3, 52, 64
5, 436680, Note_off_c, 3, 60, 64
5, 436680, Note_on_c, 3, 50, 80
5, 436680, Note_on_c, 3, 59, 80
5, 436800, Note_off_c, 3, 59, 64
5, 436800, Note_off_c, 3, 50, 64
5, 436800, Note_on_c, 3, 48, 80
5, 436800, Note_on_c, 3, 57, 80
5, 436896, Note_off_c, 3, 57, 64
5, 436896, Note_off_c, 3, 48, 64
5, 437040, Note_on_c, 3, 59, 80
5, 437040, Note_on_c, 3, 50, 80
5, 437136, Note_off_c, 3, 50, 64
5, 437136, Note_off_c, 3, 59, 64
5, 437280, Note_on_c, 3, 60, 60
5, 437376, Note_off_c, 3, 60, 64
5, 437520, Note_on_c, 3, 59, 60
5, 437640, Note_off_c, 3, 59, 64
5, 437640, Note_on_c, 3, 60, 60
5, 437760, Note_off_c, 3, 60, 64
5, 437760, Note_on_c, 3, 62, 100
5, 437856, Note_off_c, 3, 62, 64
5, 438000, Note_on_c, 3, 60, 60
5, 438096, Note_off_c, 3, 60, 64
5, 438240, Note_on_c, 3, 59, 60
5, 438336, Note_off_c, 3, 59, 64
5, 438480, Note_on_c, 3, 57, 60
5, 438600, Note_off_c, 3, 57, 64
5, 438600, Note_on_c, 3, 59, 60
5, 438720, Note_off_c, 3, 59, 64
5, 438720, Note_on_c, 3, 60, 100
5, 438816, Note_off_c, 3, 60, 64
5, 438960, Note_on_c, 3, 59, 60
5, 439056, Note_off_c, 3, 59, 64
5, 439200, Note_on_c, 3, 57, 60
5, 439296, Note_off_c, 3, 57, 64
5, 439440, Note_on_c, 3, 55, 60
5, 439560, Note_off_c, 3, 55, 64
5, 439560, Note_on_c, 3, 57, 60
5, 439680, Note_off_c, 3, 57, 64
5, 439680, Note_on_c, 3, 59, 100
5, 439776, Note_off_c, 3, 59, 64
5, 439920, Note_on_c, 3, 57, 60
5, 440016, Note_off_c, 3, 57, 64
5, 440160, Note_on_c, 3, 55, 60
5, 440256, Note_off_c, 3, 55, 64
5, 440400, Note_on_c, 3, 53, 60
5, 440520, Note_off_c, 3, 53, 64
5, 440520, Note_on_c, 3, 55, 60
5, 440640, Note_off_c, 3, 55, 64
5, 440640, Note_on_c, 3, 57, 100
5, 440736, Note_off_c, 3, 57, 64
5, 440880, Note_on_c, 3, 55, 60
5, 440976, Note_off_c, 3, 55, 64
5, 441120, Note_on_c, 3, 53, 60
5, 441216, Note_off_c, 3, 53, 64
5, 441360, Note_on_c, 3, 52, 60
5, 441480, Note_off_c, 3, 52, 64
5, 441480, Note_on_c, 3, 53, 60
5, 441600, Note_off_c, 3, 53, 64
5, 441600, Note_on_c, 3, 55, 100
5, 441696, Note_off_c, 3, 55, 64
5, 441840, Note_on_c, 3, 53, 60
5, 441936, Note_off_c, 3, 53, 64
5, 442080, Note_on_c, 3, 52, 60
5, 442176, Note_off_c, 3, 52, 64
5, 442320, Note_on_c, 3, 62, 60
5, 442320, Note_on_c, 3, 50, 60
5, 442440, Note_off_c, 3, 50, 64
5, 442440, Note_off_c, 3, 62, 64
5, 442440, Note_on_c, 3, 52, 60
5, 442440, Note_on_c, 3, 64, 60
5, 442560, Note_off_c, 3, 64, 64
5, 442560, Note_off_c, 3, 52, 64
5, 442560, Note_on_c, 3, 65, 100
5, 442560, Note_on_c, 3, 53, 60
5, 442656, Note_off_c, 3, 53, 64
5, 442656, Note_off_c, 3, 65, 64
5, 442800, Note_on_c, 3, 64, 60
5, 442800, Note_on_c, 3, 52, 60
5, 442896, Note_off_c, 3, 52, 64
5, 442896, Note_off_c, 3, 64, 64
5, 443040, Note_on_c, 3, 62, 80
5, 443040, Note_on_c, 3, 65, 80
5, 443136, Note_off_c, 3, 65, 64
5, 443136, Note_off_c, 3, 62, 64
5, 443280, Note_on_c, 3, 62, 80
5, 443280, Note_on_c, 3, 59, 80
5, 443376, Note_off_c, 3, 59, 64
5, 443376, Note_off_c, 3, 62, 64
5, 443520, Note_on_c, 3, 60, 80
5, 443520, Note_on_c, 3, 64, 80
5, 443616, Note_off_c, 3, 64, 64
5, 443616, Note_off_c, 3, 60, 64
5, 443760, Note_on_c, 3, 48, 80
5, 443760, Note_on_c, 3, 60, 80
5, 443856, Note_off_c, 3, 60, 64
5, 443856, Note_off_c, 3, 48, 64
5, 444000, Note_on_c, 3, 55, 80
5, 444096, Note_off_c, 3, 55, 64
5, 444240, Note_on_c, 3, 43, 80
5, 444336, Note_off_c, 3, 43, 64
5, 444480, Note_on_c, 3, 48, 80
5, 444576, Note_off_c, 3, 48, 64
5, 444720, Note_on_c, 3, 48, 80
5, 444816, Note_off_c, 3, 48, 64
5, 444960, Note_on_c, 3, 53, 80
5, 445056, Note_off_c, 3, 53, 64
5, 445200, Note_on_c, 3, 52, 80
5, 445296, Note_off_c, 3, 52, 64
5, 445440, Note_on_c, 3, 53, 80
5, 445536, Note_off_c, 3, 53, 64
5, 445680, Note_on_c, 3, 52, 80
5, 445776, Note_off_c, 3, 52, 64
5, 445920, Note_on_c, 3, 53, 80
5, 446016, Note_off_c, 3, 53, 64
5, 446160, Note_on_c, 3, 52, 80
5, 446256, Note_off_c, 3, 52, 64
5, 446640, Note_on_c, 3, 53, 80
5, 446736, Note_off_c, 3, 53, 64
5, 446880, Note_on_c, 3, 55, 80
5, 446976, Note_off_c, 3, 55, 64
5, 447120, Note_on_c, 3, 53, 80
5, 447216, Note_off_c, 3, 53, 64
5, 447360, Note_on_c, 3, 55, 80
5, 447456, Note_off_c, 3, 55, 64
5, 447600, Note_on_c, 3, 53, 80
5, 447696, Note_off_c, 3, 53, 64
5, 447840, Note_on_c, 3, 55, 80
5, 447936, Note_off_c, 3, 55, 64
5, 448080, Note_on_c, 3, 53, 80
5, 448176, Note_off_c, 3, 53, 64
5, 448560, Note_on_c, 3, 55, 80
5, 448656, Note_off_c, 3, 55, 64
5, 448800, Note_on_c, 3, 57, 80
5, 448896, Note_off_c, 3, 57, 64
5, 449040, Note_on_c, 3, 55, 80
5, 449136, Note_off_c, 3, 55, 64
5, 449280, Note_on_c, 3, 57, 80
5, 449376, Note_off_c, 3, 57, 64
5, 449520, Note_on_c, 3, 55, 80
5, 449616, Note_off_c, 3, 55, 64
5, 449760, Note_on_c, 3, 57, 80
5, 449856, Note_off_c, 3, 57, 64
5, 450000, Note_on_c, 3, 55, 80
5, 450096, Note_off_c, 3, 55, 64
5, 450240, Note_on_c, 3, 57, 80
5, 450336, Note_off_c, 3, 57, 64
5, 450480, Note_on_c, 3, 56, 80
5, 450576, Note_off_c, 3, 56, 64
5, 450720, Note_on_c, 3, 55, 102
5, 450912, Note_off_c, 3, 55, 64
5, 451200, Note_on_c, 3, 54, 122
5, 451392, Note_off_c, 3, 54, 64
5, 451680, Note_on_c, 3, 55, 102
5, 451872, Note_off_c, 3, 55, 64
5, 452160, Note_on_c, 3, 43, 122
5, 452352, Note_off_c, 3, 43, 64
5, 453120, Note_on_c, 3, 48, 30
5, 453408, Note_off_c, 3, 48, 64
5, 454080, Note_on_c, 3, 50, 30
5, 454368, Note_off_c, 3, 50, 64
5, 455040, Note_on_c, 3, 48, 30
5, 455328, Note_off_c, 3, 48, 64
5, 456000, Note_on_c, 3, 53, 30
5, 456288, Note_off_c, 3, 53, 64
5, 456960, Note_on_c, 3, 52, 30
5, 457248, Note_off_c, 3, 52, 64
5, 457920, Note_on_c, 3, 62, 30
5, 458208, Note_off_c, 3, 62, 64
5, 458880, Note_on_c, 3, 60, 30
5, 459168, Note_off_c, 3, 60, 64
5, 459840, Note_on_c, 3, 65, 30
5, 460128, Note_off_c, 3, 65, 64
5, 460320, Note_on_c, 3, 64, 44
5, 460416, Note_off_c, 3, 64, 64
5, 460560, Note_on_c, 3, 60, 44
5, 460656, Note_off_c, 3, 60, 64
5, 460800, Note_on_c, 3, 48, 44
5, 460896, Note_off_c, 3, 48, 64
5, 461040, Note_on_c, 3, 60, 44
5, 461136, Note_off_c, 3, 60, 64
5, 461280, Note_on_c, 3, 48, 44
5, 461376, Note_off_c, 3, 48, 64
5, 461520, Note_on_c, 3, 60, 44
5, 461616, Note_off_c, 3, 60, 64
5, 461760, Note_on_c, 3, 48, 44
5, 461856, Note_off_c, 3, 48, 64
5, 462000, Note_on_c, 3, 60, 44
5, 462096, Note_off_c, 3, 60, 64
5, 462240, Note_on_c, 3, 48, 44
5, 462336, Note_off_c, 3, 48, 64
5, 462480, Note_on_c, 3, 60, 44
5, 462576, Note_off_c, 3, 60, 64
5, 462720, Note_on_c, 3, 48, 44
5, 462816, Note_off_c, 3, 48, 64
5, 462960, Note_on_c, 3, 60, 44
5, 463056, Note_off_c, 3, 60, 64
5, 463200, Note_on_c, 3, 48, 44
5, 463296, Note_off_c, 3, 48, 64
5, 463440, Note_on_c, 3, 60, 44
5, 463536, Note_off_c, 3, 60, 64
5, 463680, Note_on_c, 3, 48, 44
5, 463776, Note_off_c, 3, 48, 64
5, 463920, Note_on_c, 3, 60, 44
5, 464016, Note_off_c, 3, 60, 64
5, 464160, Note_on_c, 3, 48, 40
5, 464256, Note_off_c, 3, 48, 64
5, 464400, Note_on_c, 3, 60, 41
5, 464496, Note_off_c, 3, 60, 64
5, 464640, Note_on_c, 3, 48, 43
5, 464736, Note_off_c, 3, 48, 64
5, 464880, Note_on_c, 3, 60, 45
5, 464976, Note_off_c, 3, 60, 64
5, 465120, Note_on_c, 3, 48, 46
5, 465216, Note_off_c, 3, 48, 64
5, 465360, Note_on_c, 3, 60, 48
5, 465456, Note_off_c, 3, 60, 64
5, 465600, Note_on_c, 3, 48, 49
5, 465696, Note_off_c, 3, 48, 64
5, 465840, Note_on_c, 3, 60, 51
5, 465936, Note_off_c, 3, 60, 64
5, 466080, Note_on_c, 3, 48, 52
5, 466176, Note_off_c, 3, 48, 64
5, 466320, Note_on_c, 3, 60, 54
5, 466416, Note_off_c, 3, 60, 64
5, 466560, Note_on_c, 3, 48, 56
5, 466656, Note_off_c, 3, 48, 64
5, 466800, Note_on_c, 3, 60, 57
5, 466896, Note_off_c, 3, 60, 64
5, 467040, Note_on_c, 3, 48, 59
5, 467136, Note_off_c, 3, 48, 64
5, 467280, Note_on_c, 3, 60, 60
5, 467376, Note_off_c, 3, 60, 64
5, 467520, Note_on_c, 3, 48, 62
5, 467616, Note_off_c, 3, 48, 64
5, 467760, Note_on_c, 3, 60, 63
5, 467856, Note_off_c, 3, 60, 64
5, 468000, Note_on_c, 3, 48, 65
5, 468096, Note_off_c, 3, 48, 64
5, 468240, Note_on_c, 3, 60, 67
5, 468336, Note_off_c, 3, 60, 64
5, 468480, Note_on_c, 3, 48, 68
5, 468576, Note_off_c, 3, 48, 64
5, 468720, Note_on_c, 3, 60, 70
5, 468816, Note_off_c, 3, 60, 64
5, 468960, Note_on_c, 3, 48, 71
5, 469056, Note_off_c, 3, 48, 64
5, 469200, Note_on_c, 3, 60, 73
5, 469296, Note_off_c, 3, 60, 64
5, 469440, Note_on_c, 3, 48, 75
5, 469536, Note_off_c, 3, 48, 64
5, 469680, Note_on_c, 3, 60, 76
5, 469776, Note_off_c, 3, 60, 64
5, 469920, Note_on_c, 3, 48, 78
5, 470016, Note_off_c, 3, 48, 64
5, 470160, Note_on_c, 3, 60, 79
5, 470256, Note_off_c, 3, 60, 64
5, 470400, Note_on_c, 3, 48, 81
5, 470496, Note_off_c, 3, 48, 64
5, 470640, Note_on_c, 3, 60, 82
5, 470736, Note_off_c, 3, 60, 64
5, 470880, Note_on_c, 3, 48, 84
5, 470976, Note_off_c, 3, 48, 64
5, 471120, Note_on_c, 3, 60, 86
5, 471216, Note_off_c, 3, 60, 64
5, 471360, Note_on_c, 3, 60, 80
5, 471360, Note_on_c, 3, 57, 80
5, 472992, Note_off_c, 3, 57, 64
5, 472992, Note_off_c, 3, 60, 64
5, 473280, Note_on_c, 3, 62, 80
5, 473280, Note_on_c, 3, 58, 80
5, 473664, Note_off_c, 3, 58, 64
5, 473664, Note_off_c, 3, 62, 64
5, 473760, Note_on_c, 3, 62, 80
5, 473760, Note_on_c, 3, 58, 80
5, 474144, Note_off_c, 3, 58, 64
5, 474144, Note_off_c, 3, 62, 64
5, 474240, Note_on_c, 3, 58, 80
5, 474240, Note_on_c, 3, 62, 80
5, 474624, Note_off_c, 3, 62, 64
5, 474624, Note_off_c, 3, 58, 64
5, 474720, Note_on_c, 3, 58, 80
5, 474720, Note_on_c, 3, 62, 80
5, 475104, Note_off_c, 3, 62, 64
5, 475104, Note_off_c, 3, 58, 64
5, 475200, Note_on_c, 3, 62, 80
5, 475200, Note_on_c, 3, 58, 80
5, 475584, Note_off_c, 3, 58, 64
5, 475584, Note_off_c, 3, 62, 64
5, 475680, Note_on_c, 3, 57, 80
5, 475680, Note_on_c, 3, 60, 80
5, 476832, Note_off_c, 3, 60, 64
5, 476832, Note_off_c, 3, 57, 64
5, 477120, Note_on_c, 3, 58, 80
5, 477120, Note_on_c, 3, 62, 80
5, 477504, Note_off_c, 3, 62, 64
5, 477504, Note_off_c, 3, 58, 64
5, 477600, Note_on_c, 3, 62, 80
5, 477600, Note_on_c, 3, 58, 80
5, 477984, Note_off_c, 3, 58, 64
5, 477984, Note_off_c, 3, 62, 64
5, 478080, Note_on_c, 3, 62, 80
5, 478080, Note_on_c, 3, 58, 80
5, 478464, Note_off_c, 3, 58, 64
5, 478464, Note_off_c, 3, 62, 64
5, 478560, Note_on_c, 3, 53, 80
5, 478560, Note_on_c, 3, 57, 80
5, 478656, Note_off_c, 3, 57, 64
5, 478656, Note_off_c, 3, 53, 64
5, 478800, Note_on_c, 3, 53, 80
5, 478800, Note_on_c, 3, 57, 80
5, 478896, Note_off_c, 3, 57, 64
5, 478896, Note_off_c, 3, 53, 64
5, 479040, Note_on_c, 3, 57, 80
5, 479040, Note_on_c, 3, 53, 80
5, 479136, Note_off_c, 3, 53, 64
5, 479136, Note_off_c, 3, 57, 64
5, 479280, Note_on_c, 3, 57, 80
5, 479280, Note_on_c, 3, 54, 80
5, 479376, Note_off_c, 3, 54, 64
5, 479376, Note_off_c, 3, 57, 64
5, 479520, Note_on_c, 3, 59, 80
5, 479520, Note_on_c, 3, 55, 80
5, 479904, Note_off_c, 3, 55, 64
5, 479904, Note_off_c, 3, 59, 64
5, 480480, Note_on_c, 3, 67, 80
5, 480480, Note_on_c, 3, 55, 80
5, 481248, Note_off_c, 3, 55, 64
5, 481248, Note_off_c, 3, 67, 64
5, 481440, Note_on_c, 3, 64, 62
5, 481680, Note_off_c, 3, 64, 64
5, 481680, Note_on_c, 3, 65, 62
5, 481800, Note_off_c, 3, 65, 64
5, 481800, Note_on_c, 3, 67, 62
5, 481920, Note_off_c, 3, 67, 64
5, 481920, Note_on_c, 3, 69, 82
5, 482016, Note_off_c, 3, 69, 64
5, 482160, Note_on_c, 3, 69, 62
5, 482256, Note_off_c, 3, 69, 64
5, 482400, Note_on_c, 3, 62, 62
5, 482640, Note_off_c, 3, 62, 64
5, 482640, Note_on_c, 3, 64, 62
5, 482760, Note_off_c, 3, 64, 64
5, 482760, Note_on_c, 3, 65, 62
5, 482880, Note_off_c, 3, 65, 64
5, 482880, Note_on_c, 3, 67, 82
5, 482976, Note_off_c, 3, 67, 64
5, 483120, Note_on_c, 3, 55, 62
5, 483216, Note_off_c, 3, 55, 64
5, 483360, Note_on_c, 3, 60, 62
5, 483600, Note_off_c, 3, 60, 64
5, 483600, Note_on_c, 3, 62, 62
5, 483720, Note_off_c, 3, 62, 64
5, 483720, Note_on_c, 3, 64, 62
5, 483840, Note_off_c, 3, 64, 64
5, 483840, Note_on_c, 3, 65, 82
5, 483936, Note_off_c, 3, 65, 64
5, 484080, Note_on_c, 3, 65, 62
5, 484176, Note_off_c, 3, 65, 64
5, 484320, Note_on_c, 3, 59, 62
5, 484560, Note_off_c, 3, 59, 64
5, 484560, Note_on_c, 3, 60, 62
5, 484680, Note_off_c, 3, 60, 64
5, 484680, Note_on_c, 3, 62, 62
5, 484800, Note_off_c, 3, 62, 64
5, 484800, Note_on_c, 3, 64, 82
5, 484896, Note_off_c, 3, 64, 64
5, 485040, Note_on_c, 3, 52, 62
5, 485136, Note_off_c, 3, 52, 64
5, 485280, Note_on_c, 3, 57, 62
5, 485520, Note_off_c, 3, 57, 64
5, 485520, Note_on_c, 3, 59, 62
5, 485640, Note_off_c, 3, 59, 64
5, 485640, Note_on_c, 3, 60, 62
5, 485760, Note_off_c, 3, 60, 64
5, 485760, Note_on_c, 3, 62, 82
5, 485856, Note_off_c, 3, 62, 64
5, 486000, Note_on_c, 3, 62, 62
5, 486096, Note_off_c, 3, 62, 64
5, 486240, Note_on_c, 3, 55, 62
5, 486480, Note_off_c, 3, 55, 64
5, 486480, Note_on_c, 3, 57, 62
5, 486600, Note_off_c, 3, 57, 64
5, 486600, Note_on_c, 3, 59, 62
5, 486720, Note_off_c, 3, 59, 64
5, 486720, Note_on_c, 3, 60, 62
5, 486960, Note_off_c, 3, 60, 64
5, 486960, Note_on_c, 3, 62, 62
5, 487080, Note_off_c, 3, 62, 64
5, 487080, Note_on_c, 3, 64, 62
5, 487200, Note_off_c, 3, 64, 64
5, 487200, Note_on_c, 3, 65, 62
5, 487200, Note_on_c, 3, 62, 62
5, 487296, Note_off_c, 3, 62, 64
5, 487296, Note_off_c, 3, 65, 64
5, 487440, Note_on_c, 3, 60, 62
5, 487440, Note_on_c, 3, 64, 62
5, 487536, Note_off_c, 3, 64, 64
5, 487536, Note_off_c, 3, 60, 64
5, 487560, Note_on_c, 3, 62, 62
5, 487560, Note_on_c, 3, 65, 62
5, 487656, Note_off_c, 3, 65, 64
5, 487656, Note_off_c, 3, 62, 64
5, 487680, Note_on_c, 3, 64, 62
5, 487680, Note_on_c, 3, 67, 82
5, 487776, Note_off_c, 3, 67, 64
5, 487776, Note_off_c, 3, 64, 64
5, 487920, Note_on_c, 3, 62, 62
5, 487920, Note_on_c, 3, 65, 62
5, 488016, Note_off_c, 3, 65, 64
5, 488016, Note_off_c, 3, 62, 64
5, 488160, Note_on_c, 3, 60, 62
5, 488160, Note_on_c, 3, 64, 62
5, 488256, Note_off_c, 3, 64, 64
5, 488256, Note_off_c, 3, 60, 64
5, 489120, Note_on_c, 3, 62, 62
5, 489120, Note_on_c, 3, 65, 62
5, 489216, Note_off_c, 3, 65, 64
5, 489216, Note_off_c, 3, 62, 64
5, 489360, Note_on_c, 3, 64, 62
5, 489360, Note_on_c, 3, 60, 62
5, 489456, Note_off_c, 3, 60, 64
5, 489456, Note_off_c, 3, 64, 64
5, 489480, Note_on_c, 3, 65, 62
5, 489480, Note_on_c, 3, 62, 62
5, 489576, Note_off_c, 3, 62, 64
5, 489576, Note_off_c, 3, 65, 64
5, 489600, Note_on_c, 3, 64, 62
5, 489600, Note_on_c, 3, 67, 82
5, 489696, Note_off_c, 3, 67, 64
5, 489696, Note_off_c, 3, 64, 64
5, 489840, Note_on_c, 3, 65, 62
5, 489840, Note_on_c, 3, 62, 62
5, 489936, Note_off_c, 3, 62, 64
5, 489936, Note_off_c, 3, 65, 64
5, 490080, Note_on_c, 3, 60, 62
5, 490080, Note_on_c, 3, 64, 62
5, 490176, Note_off_c, 3, 64, 64
5, 490176, Note_off_c, 3, 60, 64
5, 491040, Note_on_c, 3, 62, 62
5, 491040, Note_on_c, 3, 65, 62
5, 491136, Note_off_c, 3, 65, 64
5, 491136, Note_off_c, 3, 62, 64
5, 491280, Note_on_c, 3, 60, 62
5, 491280, Note_on_c, 3, 64, 62
5, 491376, Note_off_c, 3, 64, 64
5, 491376, Note_off_c, 3, 60, 64
5, 491400, Note_on_c, 3, 65, 62
5, 491400, Note_on_c, 3, 62, 62
5, 491496, Note_off_c, 3, 62, 64
5, 491496, Note_off_c, 3, 65, 64
5, 491520, Note_on_c, 3, 67, 82
5, 491520, Note_on_c, 3, 64, 62
5, 491616, Note_off_c, 3, 64, 64
5, 491616, Note_off_c, 3, 67, 64
5, 491760, Note_on_c, 3, 65, 62
5, 491760, Note_on_c, 3, 62, 62
5, 491856, Note_off_c, 3, 62, 64
5, 491856, Note_off_c, 3, 65, 64
5, 492000, Note_on_c, 3, 60, 62
5, 492000, Note_on_c, 3, 64, 62
5, 492096, Note_off_c, 3, 64, 64
5, 492096, Note_off_c, 3, 60, 64
5, 492240, Note_on_c, 3, 59, 62
5, 492240, Note_on_c, 3, 62, 62
5, 492336, Note_off_c, 3, 62, 64
5, 492336, Note_off_c, 3, 59, 64
5, 492360, Note_on_c, 3, 60, 62
5, 492360, Note_on_c, 3, 64, 62
5, 492456, Note_off_c, 3, 64, 64
5, 492456, Note_off_c, 3, 60, 64
5, 492480, Note_on_c, 3, 65, 82
5, 492480, Note_on_c, 3, 62, 62
5, 492576, Note_off_c, 3, 62, 64
5, 492576, Note_off_c, 3, 65, 64
5, 492720, Note_on_c, 3, 60, 62
5, 492720, Note_on_c, 3, 64, 62
5, 492816, Note_off_c, 3, 64, 64
5, 492816, Note_off_c, 3, 60, 64
5, 492960, Note_on_c, 3, 65, 62
5, 492960, Note_on_c, 3, 62, 62
5, 493056, Note_off_c, 3, 62, 64
5, 493056, Note_off_c, 3, 65, 64
5, 493200, Note_on_c, 3, 60, 62
5, 493200, Note_on_c, 3, 64, 62
5, 493296, Note_off_c, 3, 64, 64
5, 493296, Note_off_c, 3, 60, 64
5, 493320, Note_on_c, 3, 65, 62
5, 493320, Note_on_c, 3, 62, 62
5, 493416, Note_off_c, 3, 62, 64
5, 493416, Note_off_c, 3, 65, 64
5, 493440, Note_on_c, 3, 67, 82
5, 493440, Note_on_c, 3, 64, 62
5, 493536, Note_off_c, 3, 64, 64
5, 493536, Note_off_c, 3, 67, 64
5, 493680, Note_on_c, 3, 65, 62
5, 493680, Note_on_c, 3, 62, 62
5, 493776, Note_off_c, 3, 62, 64
5, 493776, Note_off_c, 3, 65, 64
5, 493920, Note_on_c, 3, 64, 69
5, 493920, Note_on_c, 3, 60, 69
5, 494016, Note_off_c, 3, 60, 64
5, 494016, Note_off_c, 3, 64, 64
5, 494160, Note_on_c, 3, 55, 69
5, 494160, Note_on_c, 3, 52, 69
5, 494256, Note_off_c, 3, 52, 64
5, 494256, Note_off_c, 3, 55, 64
5, 494400, Note_on_c, 3, 52, 69
5, 494400, Note_on_c, 3, 55, 69
5, 494496, Note_off_c, 3, 55, 64
5, 494496, Note_off_c, 3, 52, 64
5, 494640, Note_on_c, 3, 50, 69
5, 494640, Note_on_c, 3, 53, 69
5, 494736, Note_off_c, 3, 53, 64
5, 494736, Note_off_c, 3, 50, 64
5, 494880, Note_on_c, 3, 48, 69
5, 494880, Note_on_c, 3, 52, 69
5, 494976, Note_off_c, 3, 52, 64
5, 494976, Note_off_c, 3, 48, 64
5, 495120, Note_on_c, 3, 52, 69
5, 495120, Note_on_c, 3, 55, 69
5, 495216, Note_off_c, 3, 55, 64
5, 495216, Note_off_c, 3, 52, 64
5, 495360, Note_on_c, 3, 52, 69
5, 495360, Note_on_c, 3, 55, 69
5, 495456, Note_off_c, 3, 55, 64
5, 495456, Note_off_c, 3, 52, 64
5, 495600, Note_on_c, 3, 53, 69
5, 495600, Note_on_c, 3, 50, 69
5, 495696, Note_off_c, 3, 50, 64
5, 495696, Note_off_c, 3, 53, 64
5, 495840, Note_on_c, 3, 48, 69
5, 495840, Note_on_c, 3, 52, 69
5, 495936, Note_off_c, 3, 52, 64
5, 495936, Note_off_c, 3, 48, 64
5, 496080, Note_on_c, 3, 55, 69
5, 496080, Note_on_c, 3, 52, 69
5, 496176, Note_off_c, 3, 52, 64
5, 496176, Note_off_c, 3, 55, 64
5, 496320, Note_on_c, 3, 55, 69
5, 496320, Note_on_c, 3, 52, 69
5, 496416, Note_off_c, 3, 52, 64
5, 496416, Note_off_c, 3, 55, 64
5, 496560, Note_on_c, 3, 50, 69
5, 496560, Note_on_c, 3, 53, 69
5, 496656, Note_off_c, 3, 53, 64
5, 496656, Note_off_c, 3, 50, 64
5, 496800, Note_on_c, 3, 52, 69
5, 496800, Note_on_c, 3, 48, 69
5, 496896, Note_off_c, 3, 48, 64
5, 496896, Note_off_c, 3, 52, 64
5, 497040, Note_on_c, 3, 52, 69
5, 497040, Note_on_c, 3, 55, 69
5, 497136, Note_off_c, 3, 55, 64
5, 497136, Note_off_c, 3, 52, 64
5, 497280, Note_on_c, 3, 55, 69
5, 497280, Note_on_c, 3, 52, 69
5, 497376, Note_off_c, 3, 52, 64
5, 497376, Note_off_c, 3, 55, 64
5, 497520, Note_on_c, 3, 50, 69
5, 497520, Note_on_c, 3, 53, 69
5, 497616, Note_off_c, 3, 53, 64
5, 497616, Note_off_c, 3, 50, 64
5, 497760, Note_on_c, 3, 52, 69
5, 497760, Note_on_c, 3, 48, 69
5, 497856, Note_off_c, 3, 48, 64
5, 497856, Note_off_c, 3, 52, 64
5, 498000, Note_on_c, 3, 52, 69
5, 498000, Note_on_c, 3, 55, 69
5, 498096, Note_off_c, 3, 55, 64
5, 498096, Note_off_c, 3, 52, 64
5, 498240, Note_on_c, 3, 55, 69
5, 498240, Note_on_c, 3, 52, 69
5, 498336, Note_off_c, 3, 52, 64
5, 498336, Note_off_c, 3, 55, 64
5, 498480, Note_on_c, 3, 53, 69
5, 498480, Note_on_c, 3, 50, 69
5, 498576, Note_off_c, 3, 50, 64
5, 498576, Note_off_c, 3, 53, 64
5, 498720, Note_on_c, 3, 52, 80
5, 498720, Note_on_c, 3, 48, 80
5, 498840, Note_off_c, 3, 48, 64
5, 498840, Note_off_c, 3, 52, 64
5, 498840, Note_on_c, 3, 48, 99
5, 498960, Note_off_c, 3, 48, 64
5, 498960, Note_on_c, 3, 50, 99
5, 499080, Note_off_c, 3, 50, 64
5, 499080, Note_on_c, 3, 52, 99
5, 499200, Note_off_c, 3, 52, 64
5, 499200, Note_on_c, 3, 53, 99
5, 499320, Note_off_c, 3, 53, 64
5, 499320, Note_on_c, 3, 55, 99
5, 499440, Note_off_c, 3, 55, 64
5, 499440, Note_on_c, 3, 57, 99
5, 499560, Note_off_c, 3, 57, 64
5, 499560, Note_on_c, 3, 59, 99
5, 499680, Note_off_c, 3, 59, 64
5, 499680, Note_on_c, 3, 60, 99
5, 500736, Note_off_c, 3, 60, 64
5, 500760, Note_on_c, 3, 52, 99
5, 500880, Note_off_c, 3, 52, 64
5, 500880, Note_on_c, 3, 53, 99
5, 501000, Note_off_c, 3, 53, 64
5, 501000, Note_on_c, 3, 55, 99
5, 501120, Note_off_c, 3, 55, 64
5, 501120, Note_on_c, 3, 57, 99
5, 501240, Note_off_c, 3, 57, 64
5, 501240, Note_on_c, 3, 59, 99
5, 501360, Note_off_c, 3, 59, 64
5, 501360, Note_on_c, 3, 60, 99
5, 501480, Note_off_c, 3, 60, 64
5, 501480, Note_on_c, 3, 62, 99
5, 501600, Note_off_c, 3, 62, 64
5, 501600, Note_on_c, 3, 64, 99
5, 501720, Note_off_c, 3, 64, 64
5, 501720, Note_on_c, 3, 55, 99
5, 501840, Note_off_c, 3, 55, 64
5, 501840, Note_on_c, 3, 57, 99
5, 501960, Note_off_c, 3, 57, 64
5, 501960, Note_on_c, 3, 59, 99
5, 502080, Note_off_c, 3, 59, 64
5, 502080, Note_on_c, 3, 60, 99
5, 502200, Note_off_c, 3, 60, 64
5, 502200, Note_on_c, 3, 62, 99
5, 502320, Note_off_c, 3, 62, 64
5, 502320, Note_on_c, 3, 64, 99
5, 502440, Note_off_c, 3, 64, 64
5, 502440, Note_on_c, 3, 65, 99
5, 502560, Note_off_c, 3, 65, 64
5, 502560, Note_on_c, 3, 67, 127
5, 502656, Note_off_c, 3, 67, 64
5, 502800, Note_on_c, 3, 64, 74
5, 502896, Note_off_c, 3, 64, 64
5, 503040, Note_on_c, 3, 67, 114
5, 503136, Note_off_c, 3, 67, 64
5, 503280, Note_on_c, 3, 59, 74
5, 503376, Note_off_c, 3, 59, 64
5, 503520, Note_on_c, 3, 60, 114
5, 503616, Note_off_c, 3, 60, 64
5, 503760, Note_on_c, 3, 64, 74
5, 503856, Note_off_c, 3, 64, 64
5, 504000, Note_on_c, 3, 54, 114
5, 504096, Note_off_c, 3, 54, 64
5, 504240, Note_on_c, 3, 55, 74
5, 504336, Note_off_c, 3, 55, 64
5, 504480, Note_on_c, 3, 60, 114
5, 504576, Note_off_c, 3, 60, 64
5, 504720, Note_on_c, 3, 51, 74
5, 504816, Note_off_c, 3, 51, 64
5, 504960, Note_on_c, 3, 52, 114
5, 505056, Note_off_c, 3, 52, 64
5, 505200, Note_on_c, 3, 55, 74
5, 505296, Note_off_c, 3, 55, 64
5, 505440, Note_on_c, 3, 48, 114
5, 505536, Note_off_c, 3, 48, 64
5, 505680, Note_on_c, 3, 52, 74
5, 505776, Note_off_c, 3, 52, 64
5, 505920, Note_on_c, 3, 47, 114
5, 506016, Note_off_c, 3, 47, 64
5, 506160, Note_on_c, 3, 48, 74
5, 506256, Note_off_c, 3, 48, 64
5, 506400, Note_on_c, 3, 44, 80
5, 508282, Note_off_c, 3, 44, 64
5, 508320, Note_on_c, 3, 43, 80
5, 508512, Note_off_c, 3, 43, 64
5, 510240, Note_on_c, 3, 44, 80
5, 510256, Control_c, 3, 7, 89
5, 510376, Control_c, 3, 7, 88
5, 510476, Control_c, 3, 7, 87
5, 510576, Control_c, 3, 7, 86
5, 510676, Control_c, 3, 7, 85
5, 510776, Control_c, 3, 7, 84
5, 510876, Control_c, 3, 7, 83
5, 510976, Control_c, 3, 7, 82
5, 511076, Control_c, 3, 7, 81
5, 511176, Control_c, 3, 7, 80
5, 511276, Control_c, 3, 7, 79
5, 511376, Control_c, 3, 7, 78
5, 511476, Control_c, 3, 7, 77
5, 511576, Control_c, 3, 7, 76
5, 511676, Control_c, 3, 7, 75
5, 511776, Control_c, 3, 7, 74
5, 511876, Control_c, 3, 7, 73
5, 511976, Control_c, 3, 7, 72
5, 512076, Control_c, 3, 7, 71
5, 512160, Note_off_c, 3, 44, 64
5, 512160, Note_on_c, 3, 44, 64
5, 512176, Control_c, 3, 7, 70
5, 512296, Control_c, 3, 7, 69
5, 512396, Control_c, 3, 7, 68
5, 512496, Control_c, 3, 7, 67
5, 512596, Control_c, 3, 7, 66
5, 512696, Control_c, 3, 7, 65
5, 512796, Control_c, 3, 7, 64
5, 512896, Control_c, 3, 7, 63
5, 512996, Control_c, 3, 7, 62
5, 513096, Control_c, 3, 7, 61
5, 513196, Control_c, 3, 7, 60
5, 513296, Control_c, 3, 7, 59
5, 513396, Control_c, 3, 7, 58
5, 513496, Control_c, 3, 7, 57
5, 513596, Control_c, 3, 7, 56
5, 513696, Control_c, 3, 7, 55
5, 513796, Control_c, 3, 7, 54
5, 513896, Control_c, 3, 7, 53
5, 513996, Control_c, 3, 7, 52
5, 514080, Note_off_c, 3, 44, 64
5, 514080, Note_on_c, 3, 43, 64
5, 514096, Control_c, 3, 7, 51
5, 514216, Control_c, 3, 7, 50
5, 514316, Control_c, 3, 7, 49
5, 514416, Control_c, 3, 7, 48
5, 514516, Control_c, 3, 7, 47
5, 514616, Control_c, 3, 7, 46
5, 514716, Control_c, 3, 7, 45
5, 514816, Control_c, 3, 7, 44
5, 514916, Control_c, 3, 7, 43
5, 515016, Control_c, 3, 7, 42
5, 515116, Control_c, 3, 7, 41
5, 515216, Control_c, 3, 7, 40
5, 515316, Control_c, 3, 7, 39
5, 515416, Control_c, 3, 7, 38
5, 515516, Control_c, 3, 7, 37
5, 515520, Note_off_c, 3, 43, 64
5, 515520, Note_on_c, 3, 44, 64
5, 515616, Control_c, 3, 7, 36
5, 515716, Control_c, 3, 7, 35
5, 515816, Control_c, 3, 7, 34
5, 515916, Control_c, 3, 7, 33
5, 515996, Control_c, 3, 7, 33
5, 516000, Note_off_c, 3, 44, 64
5, 516000, Note_on_c, 3, 45, 64
5, 516076, Control_c, 3, 7, 34
5, 516136, Control_c, 3, 7, 35
5, 516216, Control_c, 3, 7, 36
5, 516276, Control_c, 3, 7, 37
5, 516356, Control_c, 3, 7, 38
5, 516416, Control_c, 3, 7, 39
5, 516496, Control_c, 3, 7, 40
5, 516556, Control_c, 3, 7, 41
5, 516636, Control_c, 3, 7, 42
5, 516696, Control_c, 3, 7, 43
5, 516776, Control_c, 3, 7, 44
5, 516836, Control_c, 3, 7, 45
5, 516916, Control_c, 3, 7, 46
5, 516976, Control_c, 3, 7, 47
5, 517056, Control_c, 3, 7, 48
5, 517116, Control_c, 3, 7, 49
5, 517196, Control_c, 3, 7, 50
5, 517256, Control_c, 3, 7, 51
5, 517336, Control_c, 3, 7, 52
5, 517396, Control_c, 3, 7, 53
5, 517476, Control_c, 3, 7, 54
5, 517536, Control_c, 3, 7, 55
5, 517616, Control_c, 3, 7, 56
5, 517676, Control_c, 3, 7, 57
5, 517756, Control_c, 3, 7, 58
5, 517816, Control_c, 3, 7, 59
5, 517896, Control_c, 3, 7, 60
5, 517920, Note_off_c, 3, 45, 64
5, 517920, Note_on_c, 3, 47, 64
5, 517956, Control_c, 3, 7, 61
5, 518036, Control_c, 3, 7, 62
5, 518096, Control_c, 3, 7, 63
5, 518176, Control_c, 3, 7, 64
5, 518236, Control_c, 3, 7, 65
5, 518316, Control_c, 3, 7, 66
5, 518376, Control_c, 3, 7, 67
5, 518456, Control_c, 3, 7, 68
5, 518516, Control_c, 3, 7, 69
5, 518596, Control_c, 3, 7, 70
5, 518656, Control_c, 3, 7, 71
5, 518736, Control_c, 3, 7, 72
5, 518796, Control_c, 3, 7, 73
5, 518876, Control_c, 3, 7, 74
5, 518936, Control_c, 3, 7, 75
5, 519016, Control_c, 3, 7, 76
5, 519076, Control_c, 3, 7, 77
5, 519156, Control_c, 3, 7, 78
5, 519216, Control_c, 3, 7, 79
5, 519296, Control_c, 3, 7, 80
5, 519356, Control_c, 3, 7, 81
5, 519436, Control_c, 3, 7, 82
5, 519496, Control_c, 3, 7, 83
5, 519576, Control_c, 3, 7, 84
5, 519636, Control_c, 3, 7, 85
5, 519716, Control_c, 3, 7, 86
5, 519776, Control_c, 3, 7, 87
5, 519836, Control_c, 3, 7, 88
5, 519840, Note_off_c, 3, 47, 64
5, 520080, Note_on_c, 3, 55, 80
5, 520272, Note_off_c, 3, 55, 64
5, 520320, Note_on_c, 3, 67, 80
5, 520512, Note_off_c, 3, 67, 64
5, 521040, Note_on_c, 3, 55, 80
5, 521232, Note_off_c, 3, 55, 64
5, 521280, Note_on_c, 3, 67, 80
5, 521472, Note_off_c, 3, 67, 64
5, 522000, Note_on_c, 3, 55, 80
5, 522192, Note_off_c, 3, 55, 64
5, 522240, Note_on_c, 3, 67, 80
5, 522432, Note_off_c, 3, 67, 64
5, 522960, Note_on_c, 3, 55, 80
5, 523152, Note_off_c, 3, 55, 64
5, 523200, Note_on_c, 3, 67, 80
5, 523392, Note_off_c, 3, 67, 64
5, 523920, Note_on_c, 3, 55, 80
5, 524112, Note_off_c, 3, 55, 64
5, 524160, Note_on_c, 3, 67, 80
5, 524352, Note_off_c, 3, 67, 64
5, 524880, Note_on_c, 3, 55, 80
5, 525072, Note_off_c, 3, 55, 64
5, 525120, Note_on_c, 3, 67, 80
5, 525312, Note_off_c, 3, 67, 64
5, 525840, Note_on_c, 3, 55, 80
5, 526032, Note_off_c, 3, 55, 64
5, 526080, Note_on_c, 3, 67, 80
5, 526272, Note_off_c, 3, 67, 64
5, 526800, Note_on_c, 3, 55, 80
5, 526992, Note_off_c, 3, 55, 64
5, 527040, Note_on_c, 3, 67, 80
5, 527232, Note_off_c, 3, 67, 64
5, 527760, Note_on_c, 3, 55, 80
5, 527952, Note_off_c, 3, 55, 64
5, 528000, Note_on_c, 3, 67, 80
5, 528192, Note_off_c, 3, 67, 64
5, 528720, Note_on_c, 3, 55, 80
5, 528912, Note_off_c, 3, 55, 64
5, 528960, Note_on_c, 3, 67, 80
5, 529152, Note_off_c, 3, 67, 64
5, 529680, Note_on_c, 3, 55, 80
5, 529872, Note_off_c, 3, 55, 64
5, 529920, Note_on_c, 3, 67, 80
5, 530112, Note_off_c, 3, 67, 64
5, 530640, Note_on_c, 3, 55, 80
5, 530832, Note_off_c, 3, 55, 64
5, 530880, Note_on_c, 3, 67, 80
5, 531072, Note_off_c, 3, 67, 64
5, 531600, Note_on_c, 3, 55, 80
5, 531792, Note_off_c, 3, 55, 64
5, 531840, Note_on_c, 3, 67, 80
5, 532032, Note_off_c, 3, 67, 64
5, 532560, Note_on_c, 3, 55, 80
5, 532752, Note_off_c, 3, 55, 64
5, 532800, Note_on_c, 3, 67, 80
5, 532992, Note_off_c, 3, 67, 64
5, 533520, Note_on_c, 3, 48, 80
5, 533712, Note_off_c, 3, 48, 64
5, 533760, Note_on_c, 3, 60, 80
5, 533952, Note_off_c, 3, 60, 64
5, 534000, Note_on_c, 3, 52, 80
5, 534240, Note_off_c, 3, 52, 64
5, 534240, Note_on_c, 3, 64, 80
5, 534480, Note_off_c, 3, 64, 64
5, 534480, Note_on_c, 3, 55, 80
5, 534672, Note_off_c, 3, 55, 64
5, 534720, Note_on_c, 3, 67, 80
5, 534912, Note_off_c, 3, 67, 64
5, 534960, Note_on_c, 3, 67, 80
5, 535200, Note_off_c, 3, 67, 64
5, 535200, Note_on_c, 3, 55, 56
5, 535200, Note_on_c, 3, 67, 56
5, 535968, Note_off_c, 3, 67, 64
5, 535968, Note_off_c, 3, 55, 64
5, 536160, Note_on_c, 3, 64, 56
5, 536160, Note_on_c, 3, 52, 56
5, 536928, Note_off_c, 3, 52, 64
5, 536928, Note_off_c, 3, 64, 64
5, 537120, Note_on_c, 3, 48, 56
5, 537120, Note_on_c, 3, 60, 56
5, 537888, Note_off_c, 3, 60, 64
5, 537888, Note_off_c, 3, 48, 64
5, 538080, Note_on_c, 3, 55, 56
5, 538080, Note_on_c, 3, 43, 56
5, 538848, Note_off_c, 3, 43, 64
5, 538848, Note_off_c, 3, 55, 64
5, 539040, Note_on_c, 3, 52, 56
5, 539040, Note_on_c, 3, 40, 56
5, 539808, Note_off_c, 3, 40, 64
5, 539808, Note_off_c, 3, 52, 64
5, 540000, Note_on_c, 3, 36, 56
5, 540000, Note_on_c, 3, 48, 56
5, 540768, Note_off_c, 3, 48, 64
5, 540768, Note_off_c, 3, 36, 64
5, 540960, Note_on_c, 3, 52, 56
5, 540960, Note_on_c, 3, 40, 56
5, 541728, Note_off_c, 3, 40, 64
5, 541728, Note_off_c, 3, 52, 64
5, 541920, Note_on_c, 3, 43, 56
5, 541920, Note_on_c, 3, 55, 56
5, 542688, Note_off_c, 3, 55, 64
5, 542688, Note_off_c, 3, 43, 64
5, 542880, Note_on_c, 3, 60, 56
5, 542880, Note_on_c, 3, 48, 56
5, 543648, Note_off_c, 3, 48, 64
5, 543648, Note_off_c, 3, 60, 64
5, 543840, Note_on_c, 3, 64, 56
5, 543840, Note_on_c, 3, 52, 56
5, 544608, Note_off_c, 3, 52, 64
5, 544608, Note_off_c, 3, 64, 64
5, 544800, Note_on_c, 3, 62, 80
5, 544800, Note_on_c, 3, 65, 80
5, 546336, Note_off_c, 3, 65, 64
5, 546336, Note_off_c, 3, 62, 64
5, 546720, Note_on_c, 3, 64, 61
5, 546720, Note_on_c, 3, 60, 61
5, 546816, Note_off_c, 3, 60, 64
5, 546816, Note_off_c, 3, 64, 64
5, 546960, Note_on_c, 3, 62, 61
5, 546960, Note_on_c, 3, 59, 61
5, 547080, Note_off_c, 3, 59, 64
5, 547080, Note_off_c, 3, 62, 64
5, 547080, Note_on_c, 3, 60, 61
5, 547080, Note_on_c, 3, 64, 61
5, 547200, Note_off_c, 3, 64, 64
5, 547200, Note_off_c, 3, 60, 64
5, 547200, Note_on_c, 3, 62, 61
5, 547200, Note_on_c, 3, 65, 61
5, 547296, Note_off_c, 3, 65, 64
5, 547296, Note_off_c, 3, 62, 64
5, 547440, Note_on_c, 3, 64, 61
5, 547440, Note_on_c, 3, 60, 61
5, 547536, Note_off_c, 3, 60, 64
5, 547536, Note_off_c, 3, 64, 64
5, 547680, Note_on_c, 3, 60, 61
5, 547680, Note_on_c, 3, 64, 61
5, 547776, Note_off_c, 3, 64, 64
5, 547776, Note_off_c, 3, 60, 64
5, 547920, Note_on_c, 3, 59, 61
5, 547920, Note_on_c, 3, 62, 61
5, 548040, Note_off_c, 3, 62, 64
5, 548040, Note_off_c, 3, 59, 64
5, 548040, Note_on_c, 3, 60, 61
5, 548040, Note_on_c, 3, 64, 61
5, 548160, Note_off_c, 3, 64, 64
5, 548160, Note_off_c, 3, 60, 64
5, 548160, Note_on_c, 3, 65, 61
5, 548160, Note_on_c, 3, 62, 61
5, 548256, Note_off_c, 3, 62, 64
5, 548256, Note_off_c, 3, 65, 64
5, 548400, Note_on_c, 3, 64, 61
5, 548400, Note_on_c, 3, 60, 61
5, 548496, Note_off_c, 3, 60, 64
5, 548496, Note_off_c, 3, 64, 64
5, 548640, Note_on_c, 3, 65, 80
5, 548640, Note_on_c, 3, 62, 80
5, 550176, Note_off_c, 3, 62, 64
5, 550176, Note_off_c, 3, 65, 64
5, 550560, Note_on_c, 3, 64, 61
5, 550560, Note_on_c, 3, 60, 61
5, 550656, Note_off_c, 3, 60, 64
5, 550656, Note_off_c, 3, 64, 64
5, 550800, Note_on_c, 3, 62, 61
5, 550800, Note_on_c, 3, 59, 61
5, 550920, Note_off_c, 3, 59, 64
5, 550920, Note_off_c, 3, 62, 64
5, 550920, Note_on_c, 3, 60, 61
5, 550920, Note_on_c, 3, 64, 61
5, 551040, Note_off_c, 3, 64, 64
5, 551040, Note_off_c, 3, 60, 64
5, 551040, Note_on_c, 3, 62, 61
5, 551040, Note_on_c, 3, 65, 61
5, 551136, Note_off_c, 3, 65, 64
5, 551136, Note_off_c, 3, 62, 64
5, 551280, Note_on_c, 3, 64, 61
5, 551280, Note_on_c, 3, 60, 61
5, 551376, Note_off_c, 3, 60, 64
5, 551376, Note_off_c, 3, 64, 64
5, 551520, Note_on_c, 3, 60, 61
5, 551520, Note_on_c, 3, 64, 61
5, 551616, Note_off_c, 3, 64, 64
5, 551616, Note_off_c, 3, 60, 64
5, 551760, Note_on_c, 3, 59, 61
5, 551760, Note_on_c, 3, 62, 61
5, 551880, Note_off_c, 3, 62, 64
5, 551880, Note_off_c, 3, 59, 64
5, 551880, Note_on_c, 3, 60, 61
5, 551880, Note_on_c, 3, 64, 61
5, 552000, Note_off_c, 3, 64, 64
5, 552000, Note_off_c, 3, 60, 64
5, 552000, Note_on_c, 3, 65, 61
5, 552000, Note_on_c, 3, 62, 61
5, 552096, Note_off_c, 3, 62, 64
5, 552096, Note_off_c, 3, 65, 64
5, 552240, Note_on_c, 3, 64, 61
5, 552240, Note_on_c, 3, 60, 61
5, 552336, Note_off_c, 3, 60, 64
5, 552336, Note_off_c, 3, 64, 64
5, 552480, Note_on_c, 3, 65, 80
5, 552480, Note_on_c, 3, 62, 80
5, 554016, Note_off_c, 3, 62, 64
5, 554016, Note_off_c, 3, 65, 64
5, 554400, Note_on_c, 3, 60, 61
5, 554400, Note_on_c, 3, 64, 61
5, 554496, Note_off_c, 3, 64, 64
5, 554496, Note_off_c, 3, 60, 64
5, 554640, Note_on_c, 3, 59, 61
5, 554640, Note_on_c, 3, 62, 61
5, 554760, Note_off_c, 3, 62, 64
5, 554760, Note_off_c, 3, 59, 64
5, 554760, Note_on_c, 3, 64, 61
5, 554760, Note_on_c, 3, 60, 61
5, 554880, Note_off_c, 3, 60, 64
5, 554880, Note_off_c, 3, 64, 64
5, 554880, Note_on_c, 3, 65, 61
5, 554880, Note_on_c, 3, 62, 61
5, 554976, Note_off_c, 3, 62, 64
5, 554976, Note_off_c, 3, 65, 64
5, 555120, Note_on_c, 3, 60, 61
5, 555120, Note_on_c, 3, 64, 61
5, 555216, Note_off_c, 3, 64, 64
5, 555216, Note_off_c, 3, 60, 64
5, 555360, Note_on_c, 3, 60, 61
5, 555360, Note_on_c, 3, 64, 61
5, 555456, Note_off_c, 3, 64, 64
5, 555456, Note_off_c, 3, 60, 64
5, 555600, Note_on_c, 3, 59, 61
5, 555600, Note_on_c, 3, 62, 61
5, 555720, Note_off_c, 3, 62, 64
5, 555720, Note_off_c, 3, 59, 64
5, 555720, Note_on_c, 3, 60, 61
5, 555720, Note_on_c, 3, 64, 61
5, 555840, Note_off_c, 3, 64, 64
5, 555840, Note_off_c, 3, 60, 64
5, 555840, Note_on_c, 3, 62, 61
5, 555840, Note_on_c, 3, 65, 61
5, 555936, Note_off_c, 3, 65, 64
5, 555936, Note_off_c, 3, 62, 64
5, 556080, Note_on_c, 3, 60, 61
5, 556080, Note_on_c, 3, 64, 61
5, 556176, Note_off_c, 3, 64, 64
5, 556176, Note_off_c, 3, 60, 64
5, 556320, Note_on_c, 3, 67, 61
5, 556320, Note_on_c, 3, 64, 61
5, 556416, Note_off_c, 3, 64, 64
5, 556416, Note_off_c, 3, 67, 64
5, 556560, Note_on_c, 3, 65, 61
5, 556560, Note_on_c, 3, 62, 61
5, 556680, Note_off_c, 3, 62, 64
5, 556680, Note_off_c, 3, 65, 64
5, 556680, Note_on_c, 3, 64, 61
5, 556680, Note_on_c, 3, 67, 61
5, 556800, Note_off_c, 3, 67, 64
5, 556800, Note_off_c, 3, 64, 64
5, 556800, Note_on_c, 3, 65, 61
5, 556800, Note_on_c, 3, 69, 61
5, 556896, Note_off_c, 3, 69, 64
5, 556896, Note_off_c, 3, 65, 64
5, 557040, Note_on_c, 3, 67, 61
5, 557040, Note_on_c, 3, 64, 61
5, 557136, Note_off_c, 3, 64, 64
5, 557136, Note_off_c, 3, 67, 64
5, 557280, Note_on_c, 3, 67, 61
5, 557280, Note_on_c, 3, 64, 61
5, 557376, Note_off_c, 3, 64, 64
5, 557376, Note_off_c, 3, 67, 64
5, 557520, Note_on_c, 3, 62, 61
5, 557520, Note_on_c, 3, 65, 61
5, 557640, Note_off_c, 3, 65, 64
5, 557640, Note_off_c, 3, 62, 64
5, 557640, Note_on_c, 3, 67, 61
5, 557640, Note_on_c, 3, 64, 61
5, 557760, Note_off_c, 3, 64, 64
5, 557760, Note_off_c, 3, 67, 64
5, 557760, Note_on_c, 3, 69, 61
5, 557760, Note_on_c, 3, 65, 61
5, 557856, Note_off_c, 3, 65, 64
5, 557856, Note_off_c, 3, 69, 64
5, 558000, Note_on_c, 3, 64, 61
5, 558000, Note_on_c, 3, 67, 61
5, 558096, Note_off_c, 3, 67, 64
5, 558096, Note_off_c, 3, 64, 64
5, 558240, Note_on_c, 3, 60, 61
5, 558240, Note_on_c, 3, 64, 61
5, 558336, Note_off_c, 3, 64, 64
5, 558336, Note_off_c, 3, 60, 64
5, 558480, Note_on_c, 3, 59, 61
5, 558480, Note_on_c, 3, 62, 61
5, 558600, Note_off_c, 3, 62, 64
5, 558600, Note_off_c, 3, 59, 64
5, 558600, Note_on_c, 3, 60, 61
5, 558600, Note_on_c, 3, 64, 61
5, 558720, Note_off_c, 3, 64, 64
5, 558720, Note_off_c, 3, 60, 64
5, 558720, Note_on_c, 3, 62, 61
5, 558720, Note_on_c, 3, 65, 61
5, 558816, Note_off_c, 3, 65, 64
5, 558816, Note_off_c, 3, 62, 64
5, 558960, Note_on_c, 3, 60, 61
5, 558960, Note_on_c, 3, 64, 61
5, 559056, Note_off_c, 3, 64, 64
5, 559056, Note_off_c, 3, 60, 64
5, 559200, Note_on_c, 3, 60, 61
5, 559200, Note_on_c, 3, 64, 61
5, 559296, Note_off_c, 3, 64, 64
5, 559296, Note_off_c, 3, 60, 64
5, 559440, Note_on_c, 3, 62, 61
5, 559440, Note_on_c, 3, 59, 61
5, 559560, Note_off_c, 3, 59, 64
5, 559560, Note_off_c, 3, 62, 64
5, 559560, Note_on_c, 3, 60, 61
5, 559560, Note_on_c, 3, 64, 61
5, 559680, Note_off_c, 3, 64, 64
5, 559680, Note_off_c, 3, 60, 64
5, 559680, Note_on_c, 3, 65, 61
5, 559680, Note_on_c, 3, 62, 61
5, 559776, Note_off_c, 3, 62, 64
5, 559776, Note_off_c, 3, 65, 64
5, 559920, Note_on_c, 3, 60, 61
5, 559920, Note_on_c, 3, 64, 61
5, 560016, Note_off_c, 3, 64, 64
5, 560016, Note_off_c, 3, 60, 64
5, 560160, Note_on_c, 3, 60, 80
5, 560160, Note_on_c, 3, 48, 80
5, 560352, Note_off_c, 3, 48, 64
5, 560352, Note_off_c, 3, 60, 64
5, 561120, Note_on_c, 3, 48, 80
5, 561120, Note_on_c, 3, 36, 80
5, 561312, Note_off_c, 3, 36, 64
5, 561312, Note_off_c, 3, 48, 64
5, 562320, Note_on_c, 3, 36, 80
5, 562320, Note_on_c, 3, 48, 80
5, 566352, Note_off_c, 3, 48, 64
5, 566352, Note_off_c, 3, 36, 64
5, 566352, End_track
6, 0, Start_track
6, 0, Title_t, "Horns 1,2"
6, 0, MIDI_port, 0
6, 0, Channel_prefix, 4
6, 0, Control_c, 4, 7, 89
6, 0, Control_c, 4, 10, 35
6, 0, Program_c, 4, 60
6, 480, Program_c, 4, 60
6, 480, Control_c, 4, 91, 85
6, 480, Control_c, 4, 93, 85
6, 480, Control_c, 4, 7, 90
6, 480, Control_c, 4, 10, 36
6, 5760, Note_on_c, 4, 60, 72
6, 5760, Note_on_c, 4, 48, 72
6, 5760, Note_on_c, 4, 52, 72
6, 5904, Note_off_c, 4, 52, 64
6, 5904, Note_off_c, 4, 48, 64
6, 5904, Note_off_c, 4, 60, 64
6, 7680, Note_on_c, 4, 67, 72
6, 7680, Note_on_c, 4, 55, 72
6, 7680, Note_on_c, 4, 62, 72
6, 7824, Note_off_c, 4, 62, 64
6, 7824, Note_off_c, 4, 55, 64
6, 7824, Note_off_c, 4, 67, 64
6, 9600, Note_on_c, 4, 52, 72
6, 9600, Note_on_c, 4, 64, 72
6, 9744, Note_off_c, 4, 64, 64
6, 9744, Note_off_c, 4, 52, 64
6, 10560, Note_on_c, 4, 48, 72
6, 10560, Note_on_c, 4, 60, 72
6, 10704, Note_off_c, 4, 60, 64
6, 10704, Note_off_c, 4, 48, 64
6, 11520, Note_on_c, 4, 55, 72
6, 11520, Note_on_c, 4, 43, 72
6, 11664, Note_off_c, 4, 43, 64
6, 11664, Note_off_c, 4, 55, 64
6, 13440, Note_on_c, 4, 64, 36
6, 13440, Note_on_c, 4, 60, 36
6, 14238, Note_off_c, 4, 60, 64
6, 14238, Note_off_c, 4, 64, 64
6, 14280, Note_on_c, 4, 62, 36
6, 14280, Note_on_c, 4, 55, 36
6, 14376, Note_off_c, 4, 55, 64
6, 14376, Note_off_c, 4, 62, 64
6, 14400, Note_on_c, 4, 60, 36
6, 14400, Note_on_c, 4, 52, 36
6, 14880, Note_off_c, 4, 52, 64
6, 14880, Note_off_c, 4, 60, 64
6, 14880, Note_on_c, 4, 62, 36
6, 14880, Note_on_c, 4, 55, 36
6, 15360, Note_off_c, 4, 55, 64
6, 15360, Note_off_c, 4, 62, 64
6, 15360, Note_on_c, 4, 64, 36
6, 15360, Note_on_c, 4, 60, 36
6, 15840, Note_off_c, 4, 60, 64
6, 15840, Note_off_c, 4, 64, 64
6, 15840, Note_on_c, 4, 65, 36
6, 15840, Note_on_c, 4, 62, 36
6, 16200, Note_off_c, 4, 62, 64
6, 16200, Note_off_c, 4, 65, 64
6, 16200, Note_on_c, 4, 60, 36
6, 16200, Note_on_c, 4, 64, 36
6, 16296, Note_off_c, 4, 64, 64
6, 16296, Note_off_c, 4, 60, 64
6, 16320, Note_on_c, 4, 60, 36
6, 16320, Note_on_c, 4, 64, 36
6, 16800, Note_off_c, 4, 64, 64
6, 16800, Note_off_c, 4, 60, 64
6, 16800, Note_on_c, 4, 62, 31
6, 16800, Note_on_c, 4, 55, 31
6, 17184, Note_off_c, 4, 55, 64
6, 17184, Note_off_c, 4, 62, 64
6, 17280, Note_on_c, 4, 65, 36
6, 17280, Note_on_c, 4, 62, 36
6, 18078, Note_off_c, 4, 62, 64
6, 18078, Note_off_c, 4, 65, 64
6, 18120, Note_on_c, 4, 64, 36
6, 18120, Note_on_c, 4, 60, 36
6, 18216, Note_off_c, 4, 60, 64
6, 18216, Note_off_c, 4, 64, 64
6, 18240, Note_on_c, 4, 62, 36
6, 18240, Note_on_c, 4, 55, 36
6, 18720, Note_off_c, 4, 55, 64
6, 18720, Note_off_c, 4, 62, 64
6, 18720, Note_on_c, 4, 64, 36
6, 18720, Note_on_c, 4, 60, 36
6, 19200, Note_off_c, 4, 60, 64
6, 19200, Note_off_c, 4, 64, 64
6, 19200, Note_on_c, 4, 67, 36
6, 19200, Note_on_c, 4, 64, 36
6, 19680, Note_off_c, 4, 64, 64
6, 19680, Note_off_c, 4, 67, 64
6, 19680, Note_on_c, 4, 65, 36
6, 19680, Note_on_c, 4, 62, 36
6, 20040, Note_off_c, 4, 62, 64
6, 20040, Note_off_c, 4, 65, 64
6, 20040, Note_on_c, 4, 60, 36
6, 20040, Note_on_c, 4, 64, 36
6, 20136, Note_off_c, 4, 64, 64
6, 20136, Note_off_c, 4, 60, 64
6, 20160, Note_on_c, 4, 60, 31
6, 20160, Note_on_c, 4, 64, 31
6, 20544, Note_off_c, 4, 64, 64
6, 20544, Note_off_c, 4, 60, 64
6, 32640, Note_on_c, 4, 62, 32
6, 32640, Note_on_c, 4, 55, 32
6, 33408, Note_off_c, 4, 55, 64
6, 33408, Note_off_c, 4, 62, 64
6, 33600, Note_on_c, 4, 55, 32
6, 33600, Note_on_c, 4, 64, 32
6, 33984, Note_off_c, 4, 64, 64
6, 33984, Note_off_c, 4, 55, 64
6, 34080, Note_on_c, 4, 55, 32
6, 34080, Note_on_c, 4, 62, 32
6, 34464, Note_off_c, 4, 62, 64
6, 34464, Note_off_c, 4, 55, 64
6, 34560, Note_on_c, 4, 60, 32
6, 34560, Note_on_c, 4, 64, 32
6, 34944, Note_off_c, 4, 64, 64
6, 34944, Note_off_c, 4, 60, 64
6, 35040, Note_on_c, 4, 62, 32
6, 35040, Note_on_c, 4, 55, 32
6, 35424, Note_off_c, 4, 55, 64
6, 35424, Note_off_c, 4, 62, 64
6, 35520, Note_on_c, 4, 64, 32
6, 35520, Note_on_c, 4, 60, 32
6, 35746, Note_off_c, 4, 60, 64
6, 35746, Note_off_c, 4, 64, 64
6, 35760, Note_on_c, 4, 48, 32
6, 35760, Note_on_c, 4, 60, 32
6, 35986, Note_off_c, 4, 60, 64
6, 35986, Note_off_c, 4, 48, 64
6, 36000, Note_on_c, 4, 48, 32
6, 36000, Note_on_c, 4, 60, 32
6, 36226, Note_off_c, 4, 60, 64
6, 36226, Note_off_c, 4, 48, 64
6, 36240, Note_on_c, 4, 60, 32
6, 36240, Note_on_c, 4, 48, 32
6, 36466, Note_off_c, 4, 48, 64
6, 36466, Note_off_c, 4, 60, 64
6, 36480, Note_on_c, 4, 48, 35
6, 36480, Note_on_c, 4, 60, 35
6, 36864, Note_off_c, 4, 60, 64
6, 36864, Note_off_c, 4, 48, 64
6, 36960, Note_on_c, 4, 65, 35
6, 37344, Note_off_c, 4, 65, 64
6, 37440, Note_on_c, 4, 62, 35
6, 37440, Note_on_c, 4, 55, 35
6, 38208, Note_off_c, 4, 55, 64
6, 38208, Note_off_c, 4, 62, 64
6, 38400, Note_on_c, 4, 60, 27
6, 38400, Note_on_c, 4, 48, 27
6, 39768, Note_off_c, 4, 48, 64
6, 39768, Note_off_c, 4, 60, 64
6, 39840, Note_on_c, 4, 48, 27
6, 39840, Note_on_c, 4, 60, 27
6, 40224, Note_off_c, 4, 60, 64
6, 40224, Note_off_c, 4, 48, 64
6, 40320, Note_on_c, 4, 60, 27
6, 40320, Note_on_c, 4, 64, 27
6, 41232, Note_off_c, 4, 64, 64
6, 41232, Note_off_c, 4, 60, 64
6, 41280, Note_on_c, 4, 62, 27
6, 41280, Note_on_c, 4, 55, 27
6, 42000, Note_off_c, 4, 55, 64
6, 42000, Note_off_c, 4, 62, 64
6, 42000, Note_on_c, 4, 52, 27
6, 42000, Note_on_c, 4, 60, 27
6, 42192, Note_off_c, 4, 60, 64
6, 42192, Note_off_c, 4, 52, 64
6, 42240, Note_on_c, 4, 52, 23
6, 42240, Note_on_c, 4, 60, 23
6, 42624, Note_off_c, 4, 60, 64
6, 42624, Note_off_c, 4, 52, 64
6, 44160, Note_on_c, 4, 64, 38
6, 44160, Note_on_c, 4, 60, 38
6, 44958, Note_off_c, 4, 60, 64
6, 44958, Note_off_c, 4, 64, 64
6, 45000, Note_on_c, 4, 62, 38
6, 45000, Note_on_c, 4, 55, 38
6, 45096, Note_off_c, 4, 55, 64
6, 45096, Note_off_c, 4, 62, 64
6, 45120, Note_on_c, 4, 52, 38
6, 45120, Note_on_c, 4, 60, 38
6, 45600, Note_off_c, 4, 60, 64
6, 45600, Note_off_c, 4, 52, 64
6, 45600, Note_on_c, 4, 55, 38
6, 45600, Note_on_c, 4, 62, 38
6, 46080, Note_off_c, 4, 62, 64
6, 46080, Note_off_c, 4, 55, 64
6, 46080, Note_on_c, 4, 60, 38
6, 46080, Note_on_c, 4, 64, 38
6, 46560, Note_off_c, 4, 64, 64
6, 46560, Note_off_c, 4, 60, 64
6, 46560, Note_on_c, 4, 62, 38
6, 46560, Note_on_c, 4, 65, 38
6, 46920, Note_off_c, 4, 65, 64
6, 46920, Note_off_c, 4, 62, 64
6, 46920, Note_on_c, 4, 64, 38
6, 46920, Note_on_c, 4, 60, 38
6, 47016, Note_off_c, 4, 60, 64
6, 47016, Note_off_c, 4, 64, 64
6, 47040, Note_on_c, 4, 60, 38
6, 47040, Note_on_c, 4, 64, 38
6, 47520, Note_off_c, 4, 64, 64
6, 47520, Note_off_c, 4, 60, 64
6, 47520, Note_on_c, 4, 62, 32
6, 47520, Note_on_c, 4, 55, 32
6, 47904, Note_off_c, 4, 55, 64
6, 47904, Note_off_c, 4, 62, 64
6, 48000, Note_on_c, 4, 65, 54
6, 48000, Note_on_c, 4, 60, 54
6, 48798, Note_off_c, 4, 60, 64
6, 48798, Note_off_c, 4, 65, 64
6, 48840, Note_on_c, 4, 60, 54
6, 48840, Note_on_c, 4, 64, 54
6, 48936, Note_off_c, 4, 64, 64
6, 48936, Note_off_c, 4, 60, 64
6, 48960, Note_on_c, 4, 62, 54
6, 48960, Note_on_c, 4, 55, 54
6, 49440, Note_off_c, 4, 55, 64
6, 49440, Note_off_c, 4, 62, 64
6, 49440, Note_on_c, 4, 60, 54
6, 49440, Note_on_c, 4, 64, 54
6, 49920, Note_off_c, 4, 64, 64
6, 49920, Note_off_c, 4, 60, 64
6, 49920, Note_on_c, 4, 64, 38
6, 49920, Note_on_c, 4, 67, 38
6, 50400, Note_off_c, 4, 67, 64
6, 50400, Note_off_c, 4, 64, 64
6, 50400, Note_on_c, 4, 62, 38
6, 50400, Note_on_c, 4, 65, 38
6, 50760, Note_off_c, 4, 65, 64
6, 50760, Note_off_c, 4, 62, 64
6, 50760, Note_on_c, 4, 60, 38
6, 50760, Note_on_c, 4, 64, 38
6, 50856, Note_off_c, 4, 64, 64
6, 50856, Note_off_c, 4, 60, 64
6, 50880, Note_on_c, 4, 64, 38
6, 50880, Note_on_c, 4, 60, 38
6, 51264, Note_off_c, 4, 60, 64
6, 51264, Note_off_c, 4, 64, 64
6, 51840, Note_on_c, 4, 62, 80
6, 51840, Note_on_c, 4, 67, 80
6, 52224, Note_off_c, 4, 67, 64
6, 52224, Note_off_c, 4, 62, 64
6, 52320, Note_on_c, 4, 62, 80
6, 52320, Note_on_c, 4, 67, 80
6, 52704, Note_off_c, 4, 67, 64
6, 52704, Note_off_c, 4, 62, 64
6, 53280, Note_on_c, 4, 62, 80
6, 53664, Note_off_c, 4, 62, 64
6, 53760, Note_on_c, 4, 55, 80
6, 53760, Note_on_c, 4, 67, 80
6, 54144, Note_off_c, 4, 67, 64
6, 54144, Note_off_c, 4, 55, 64
6, 54720, Note_on_c, 4, 52, 80
6, 55104, Note_off_c, 4, 52, 64
6, 55200, Note_on_c, 4, 64, 80
6, 55200, Note_on_c, 4, 52, 80
6, 55584, Note_off_c, 4, 52, 64
6, 55584, Note_off_c, 4, 64, 64
6, 55680, Note_on_c, 4, 52, 56
6, 55680, Note_on_c, 4, 64, 56
6, 56064, Note_off_c, 4, 64, 64
6, 56064, Note_off_c, 4, 52, 64
6, 56160, Note_on_c, 4, 52, 56
6, 56160, Note_on_c, 4, 64, 56
6, 56544, Note_off_c, 4, 64, 64
6, 56544, Note_off_c, 4, 52, 64
6, 57600, Note_on_c, 4, 64, 80
6, 57600, Note_on_c, 4, 52, 80
6, 57984, Note_off_c, 4, 52, 64
6, 57984, Note_off_c, 4, 64, 64
6, 59520, Note_on_c, 4, 48, 54
6, 59520, Note_on_c, 4, 67, 54
6, 60480, Note_off_c, 4, 67, 64
6, 60480, Note_off_c, 4, 48, 64
6, 60480, Note_on_c, 4, 60, 54
6, 60480, Note_on_c, 4, 69, 54
6, 60960, Note_off_c, 4, 69, 64
6, 60960, Note_off_c, 4, 60, 64
6, 60960, Note_on_c, 4, 60, 54
6, 60960, Note_on_c, 4, 67, 54
6, 60960, Note_on_c, 4, 64, 54
6, 61440, Note_off_c, 4, 64, 64
6, 61440, Note_off_c, 4, 67, 64
6, 61440, Note_off_c, 4, 60, 64
6, 61440, Note_on_c, 4, 65, 54
6, 61440, Note_on_c, 4, 60, 54
6, 61824, Note_off_c, 4, 60, 64
6, 61824, Note_off_c, 4, 65, 64
6, 61920, Note_on_c, 4, 60, 54
6, 61920, Note_on_c, 4, 64, 54
6, 62304, Note_off_c, 4, 64, 64
6, 62304, Note_off_c, 4, 60, 64
6, 62400, Note_on_c, 4, 65, 54
6, 62400, Note_on_c, 4, 57, 54
6, 62880, Note_off_c, 4, 57, 64
6, 62880, Note_on_c, 4, 62, 41
6, 63264, Note_off_c, 4, 65, 64
6, 63264, Note_off_c, 4, 62, 64
6, 63360, Note_on_c, 4, 55, 80
6, 63360, Note_on_c, 4, 65, 80
6, 63360, Note_on_c, 4, 62, 80
6, 64128, Note_off_c, 4, 62, 64
6, 64128, Note_off_c, 4, 65, 64
6, 64128, Note_off_c, 4, 55, 64
6, 64320, Note_on_c, 4, 55, 80
6, 64320, Note_on_c, 4, 62, 80
6, 64320, Note_on_c, 4, 67, 80
6, 64704, Note_off_c, 4, 67, 64
6, 64704, Note_off_c, 4, 62, 64
6, 64704, Note_off_c, 4, 55, 64
6, 64800, Note_on_c, 4, 62, 80
6, 64800, Note_on_c, 4, 55, 80
6, 64800, Note_on_c, 4, 65, 80
6, 65184, Note_off_c, 4, 65, 64
6, 65184, Note_off_c, 4, 55, 64
6, 65184, Note_off_c, 4, 62, 64
6, 65280, Note_on_c, 4, 64, 80
6, 65280, Note_on_c, 4, 60, 80
6, 65280, Note_on_c, 4, 55, 80
6, 65664, Note_off_c, 4, 60, 64
6, 65664, Note_off_c, 4, 64, 64
6, 65760, Note_on_c, 4, 65, 80
6, 65760, Note_on_c, 4, 62, 80
6, 66144, Note_off_c, 4, 62, 64
6, 66144, Note_off_c, 4, 65, 64
6, 66240, Note_on_c, 4, 64, 80
6, 66240, Note_on_c, 4, 60, 80
6, 66480, Note_on_c, 4, 48, 80
6, 66672, Note_off_c, 4, 55, 64
6, 66672, Note_off_c, 4, 64, 64
6, 66720, Note_on_c, 4, 65, 80
6, 66912, Note_off_c, 4, 65, 64
6, 66960, Note_on_c, 4, 67, 80
6, 67152, Note_off_c, 4, 60, 64
6, 67152, Note_off_c, 4, 48, 64
6, 67152, Note_off_c, 4, 67, 64
6, 67200, Note_on_c, 4, 65, 80
6, 67200, Note_on_c, 4, 60, 80
6, 67968, Note_off_c, 4, 60, 64
6, 67968, Note_off_c, 4, 65, 64
6, 68160, Note_on_c, 4, 65, 80
6, 68160, Note_on_c, 4, 62, 80
6, 68544, Note_off_c, 4, 62, 64
6, 68544, Note_off_c, 4, 65, 64
6, 68640, Note_on_c, 4, 55, 80
6, 68640, Note_on_c, 4, 62, 80
6, 69024, Note_off_c, 4, 62, 64
6, 69024, Note_off_c, 4, 55, 64
6, 69120, Note_on_c, 4, 48, 80
6, 69120, Note_on_c, 4, 60, 80
6, 69600, Note_on_c, 4, 62, 80
6, 70368, Note_off_c, 4, 62, 64
6, 70368, Note_off_c, 4, 60, 64
6, 70368, Note_off_c, 4, 48, 64
6, 70560, Note_on_c, 4, 62, 80
6, 70560, Note_on_c, 4, 48, 80
6, 70560, Note_on_c, 4, 60, 80
6, 70944, Note_off_c, 4, 60, 64
6, 70944, Note_off_c, 4, 48, 64
6, 70944, Note_off_c, 4, 62, 64
6, 71040, Note_on_c, 4, 60, 72
6, 71040, Note_on_c, 4, 64, 72
6, 71952, Note_off_c, 4, 64, 64
6, 71952, Note_off_c, 4, 60, 64
6, 72000, Note_on_c, 4, 62, 72
6, 72000, Note_on_c, 4, 55, 72
6, 72720, Note_off_c, 4, 55, 64
6, 72720, Note_off_c, 4, 62, 64
6, 72720, Note_on_c, 4, 52, 72
6, 72720, Note_on_c, 4, 60, 72
6, 72912, Note_off_c, 4, 60, 64
6, 72912, Note_off_c, 4, 52, 64
6, 72960, Note_on_c, 4, 52, 72
6, 72960, Note_on_c, 4, 60, 72
6, 73344, Note_off_c, 4, 60, 64
6, 73344, Note_off_c, 4, 52, 64
6, 74880, Note_on_c, 4, 60, 61
6, 74880, Note_on_c, 4, 48, 61
6, 75024, Note_off_c, 4, 48, 64
6, 75024, Note_off_c, 4, 60, 64
6, 76800, Note_on_c, 4, 64, 61
6, 76800, Note_on_c, 4, 48, 61
6, 76800, Note_on_c, 4, 60, 61
6, 76944, Note_off_c, 4, 60, 64
6, 76944, Note_off_c, 4, 48, 64
6, 76944, Note_off_c, 4, 64, 64
6, 78720, Note_on_c, 4, 48, 61
6, 78720, Note_on_c, 4, 60, 61
6, 78720, Note_on_c, 4, 64, 61
6, 78864, Note_off_c, 4, 64, 64
6, 78864, Note_off_c, 4, 60, 64
6, 78864, Note_off_c, 4, 48, 64
6, 79680, Note_on_c, 4, 64, 61
6, 79680, Note_on_c, 4, 60, 61
6, 79680, Note_on_c, 4, 48, 61
6, 79824, Note_off_c, 4, 48, 64
6, 79824, Note_off_c, 4, 60, 64
6, 79824, Note_off_c, 4, 64, 64
6, 80640, Note_on_c, 4, 62, 61
6, 80640, Note_on_c, 4, 43, 61
6, 80640, Note_on_c, 4, 65, 61
6, 80784, Note_off_c, 4, 65, 64
6, 80784, Note_off_c, 4, 43, 64
6, 80784, Note_off_c, 4, 62, 64
6, 81120, Note_on_c, 4, 48, 61
6, 81120, Note_on_c, 4, 64, 61
6, 81120, Note_on_c, 4, 60, 61
6, 81264, Note_off_c, 4, 60, 64
6, 81264, Note_off_c, 4, 64, 64
6, 81264, Note_off_c, 4, 48, 64
6, 81600, Note_on_c, 4, 62, 61
6, 81600, Note_on_c, 4, 43, 61
6, 81600, Note_on_c, 4, 55, 61
6, 81744, Note_off_c, 4, 55, 64
6, 81744, Note_off_c, 4, 43, 64
6, 81744, Note_off_c, 4, 62, 64
6, 82560, Note_on_c, 4, 60, 52
6, 82560, Note_on_c, 4, 48, 52
6, 82704, Note_off_c, 4, 48, 64
6, 82704, Note_off_c, 4, 60, 64
6, 84480, Note_on_c, 4, 48, 52
6, 84480, Note_on_c, 4, 60, 52
6, 84480, Note_on_c, 4, 64, 52
6, 84624, Note_off_c, 4, 64, 64
6, 84624, Note_off_c, 4, 60, 64
6, 84624, Note_off_c, 4, 48, 64
6, 86400, Note_on_c, 4, 60, 52
6, 86400, Note_on_c, 4, 48, 52
6, 86400, Note_on_c, 4, 64, 52
6, 86544, Note_off_c, 4, 64, 64
6, 86544, Note_off_c, 4, 48, 64
6, 86544, Note_off_c, 4, 60, 64
6, 87360, Note_on_c, 4, 64, 52
6, 87360, Note_on_c, 4, 48, 52
6, 87360, Note_on_c, 4, 60, 52
6, 87504, Note_off_c, 4, 60, 64
6, 87504, Note_off_c, 4, 48, 64
6, 87504, Note_off_c, 4, 64, 64
6, 88320, Note_on_c, 4, 43, 52
6, 88320, Note_on_c, 4, 62, 52
6, 88320, Note_on_c, 4, 65, 52
6, 88464, Note_off_c, 4, 65, 64
6, 88464, Note_off_c, 4, 62, 64
6, 88464, Note_off_c, 4, 43, 64
6, 88800, Note_on_c, 4, 64, 52
6, 88800, Note_on_c, 4, 60, 52
6, 88800, Note_on_c, 4, 48, 52
6, 88944, Note_off_c, 4, 48, 64
6, 88944, Note_off_c, 4, 60, 64
6, 88944, Note_off_c, 4, 64, 64
6, 89280, Note_on_c, 4, 55, 52
6, 89280, Note_on_c, 4, 43, 52
6, 89280, Note_on_c, 4, 62, 52
6, 89424, Note_off_c, 4, 62, 64
6, 89424, Note_off_c, 4, 43, 64
6, 89424, Note_off_c, 4, 55, 64
6, 90240, Note_on_c, 4, 55, 52
6, 90240, Note_on_c, 4, 62, 52
6, 90384, Note_off_c, 4, 62, 64
6, 90384, Note_off_c, 4, 55, 64
6, 92160, Note_on_c, 4, 60, 52
6, 92160, Note_on_c, 4, 64, 52
6, 92304, Note_off_c, 4, 64, 64
6, 92304, Note_off_c, 4, 60, 64
6, 94080, Note_on_c, 4, 64, 52
6, 94080, Note_on_c, 4, 60, 52
6, 94224, Note_off_c, 4, 60, 64
6, 94224, Note_off_c, 4, 64, 64
6, 95040, Note_on_c, 4, 60, 52
6, 95040, Note_on_c, 4, 52, 52
6, 95184, Note_off_c, 4, 52, 64
6, 95184, Note_off_c, 4, 60, 64
6, 96000, Note_on_c, 4, 62, 52
6, 96000, Note_on_c, 4, 55, 52
6, 96144, Note_off_c, 4, 55, 64
6, 96144, Note_off_c, 4, 62, 64
6, 96480, Note_on_c, 4, 62, 52
6, 96480, Note_on_c, 4, 55, 52
6, 96624, Note_off_c, 4, 55, 64
6, 96624, Note_off_c, 4, 62, 64
6, 96960, Note_on_c, 4, 52, 52
6, 96960, Note_on_c, 4, 60, 52
6, 97104, Note_off_c, 4, 60, 64
6, 97104, Note_off_c, 4, 52, 64
6, 97920, Note_on_c, 4, 62, 52
6, 97920, Note_on_c, 4, 55, 52
6, 98064, Note_off_c, 4, 55, 64
6, 98064, Note_off_c, 4, 62, 64
6, 99840, Note_on_c, 4, 64, 52
6, 99840, Note_on_c, 4, 60, 52
6, 99984, Note_off_c, 4, 60, 64
6, 99984, Note_off_c, 4, 64, 64
6, 101760, Note_on_c, 4, 60, 52
6, 101760, Note_on_c, 4, 64, 52
6, 101904, Note_off_c, 4, 64, 64
6, 101904, Note_off_c, 4, 60, 64
6, 102720, Note_on_c, 4, 52, 52
6, 102720, Note_on_c, 4, 60, 52
6, 102864, Note_off_c, 4, 60, 64
6, 102864, Note_off_c, 4, 52, 64
6, 103680, Note_on_c, 4, 55, 52
6, 103680, Note_on_c, 4, 62, 52
6, 103824, Note_off_c, 4, 62, 64
6, 103824, Note_off_c, 4, 55, 64
6, 104160, Note_on_c, 4, 55, 52
6, 104160, Note_on_c, 4, 62, 52
6, 104304, Note_off_c, 4, 62, 64
6, 104304, Note_off_c, 4, 55, 64
6, 104640, Note_on_c, 4, 52, 52
6, 104640, Note_on_c, 4, 60, 52
6, 104784, Note_off_c, 4, 60, 64
6, 104784, Note_off_c, 4, 52, 64
6, 105600, Note_on_c, 4, 55, 32
6, 105600, Note_on_c, 4, 62, 32
6, 105744, Note_off_c, 4, 62, 64
6, 105744, Note_off_c, 4, 55, 64
6, 106080, Note_on_c, 4, 55, 32
6, 106080, Note_on_c, 4, 62, 32
6, 106224, Note_off_c, 4, 62, 64
6, 106224, Note_off_c, 4, 55, 64
6, 106560, Note_on_c, 4, 52, 32
6, 106560, Note_on_c, 4, 60, 32
6, 106704, Note_off_c, 4, 60, 64
6, 106704, Note_off_c, 4, 52, 64
6, 107520, Note_on_c, 4, 55, 32
6, 107520, Note_on_c, 4, 62, 32
6, 107904, Note_off_c, 4, 62, 64
6, 107904, Note_off_c, 4, 55, 64
6, 108000, Note_on_c, 4, 55, 32
6, 108000, Note_on_c, 4, 62, 32
6, 108288, Note_off_c, 4, 62, 64
6, 108288, Note_off_c, 4, 55, 64
6, 108360, Note_on_c, 4, 62, 32
6, 108360, Note_on_c, 4, 55, 32
6, 108408, Note_off_c, 4, 55, 64
6, 108408, Note_off_c, 4, 62, 64
6, 108480, Note_on_c, 4, 55, 32
6, 108480, Note_on_c, 4, 62, 32
6, 108864, Note_off_c, 4, 62, 64
6, 108864, Note_off_c, 4, 55, 64
6, 108960, Note_on_c, 4, 62, 32
6, 108960, Note_on_c, 4, 55, 32
6, 109344, Note_off_c, 4, 55, 64
6, 109344, Note_off_c, 4, 62, 64
6, 109440, Note_on_c, 4, 62, 32
6, 109440, Note_on_c, 4, 55, 32
6, 113664, Note_off_c, 4, 62, 64
6, 113760, Note_on_c, 4, 64, 36
6, 114144, Note_off_c, 4, 64, 64
6, 114240, Note_on_c, 4, 65, 36
6, 114624, Note_off_c, 4, 55, 64
6, 114624, Note_off_c, 4, 65, 64
6, 114720, Note_on_c, 4, 67, 36
6, 114720, Note_on_c, 4, 55, 36
6, 115104, Note_off_c, 4, 55, 64
6, 115104, Note_off_c, 4, 67, 64
6, 115200, Note_on_c, 4, 60, 27
6, 115200, Note_on_c, 4, 64, 27
6, 116160, Note_off_c, 4, 64, 64
6, 116160, Note_off_c, 4, 60, 64
6, 116160, Note_on_c, 4, 65, 27
6, 116160, Note_on_c, 4, 62, 27
6, 116928, Note_off_c, 4, 62, 64
6, 116928, Note_off_c, 4, 65, 64
6, 117120, Note_on_c, 4, 60, 27
6, 117120, Note_on_c, 4, 64, 27
6, 118080, Note_off_c, 4, 64, 64
6, 118080, Note_off_c, 4, 60, 64
6, 118080, Note_on_c, 4, 55, 27
6, 118080, Note_on_c, 4, 62, 27
6, 118848, Note_off_c, 4, 62, 64
6, 118848, Note_off_c, 4, 55, 64
6, 119040, Note_on_c, 4, 55, 36
6, 119040, Note_on_c, 4, 67, 36
6, 121008, Note_off_c, 4, 67, 64
6, 121008, Note_off_c, 4, 55, 64
6, 121080, Note_on_c, 4, 62, 35
6, 121128, Note_off_c, 4, 62, 64
6, 121200, Note_on_c, 4, 62, 36
6, 121248, Note_off_c, 4, 62, 64
6, 121320, Note_on_c, 4, 62, 37
6, 121368, Note_off_c, 4, 62, 64
6, 121440, Note_on_c, 4, 62, 39
6, 121488, Note_off_c, 4, 62, 64
6, 121560, Note_on_c, 4, 62, 40
6, 121608, Note_off_c, 4, 62, 64
6, 121680, Note_on_c, 4, 62, 41
6, 121728, Note_off_c, 4, 62, 64
6, 121800, Note_on_c, 4, 62, 41
6, 121848, Note_off_c, 4, 62, 64
6, 121920, Note_on_c, 4, 62, 43
6, 121968, Note_off_c, 4, 62, 64
6, 122040, Note_on_c, 4, 62, 43
6, 122088, Note_off_c, 4, 62, 64
6, 122160, Note_on_c, 4, 62, 44
6, 122208, Note_off_c, 4, 62, 64
6, 122280, Note_on_c, 4, 62, 45
6, 122328, Note_off_c, 4, 62, 64
6, 122400, Note_on_c, 4, 62, 46
6, 122448, Note_off_c, 4, 62, 64
6, 122520, Note_on_c, 4, 62, 48
6, 122568, Note_off_c, 4, 62, 64
6, 122640, Note_on_c, 4, 62, 49
6, 122688, Note_off_c, 4, 62, 64
6, 122760, Note_on_c, 4, 62, 50
6, 122808, Note_off_c, 4, 62, 64
6, 122880, Note_on_c, 4, 62, 41
6, 122928, Note_off_c, 4, 62, 64
6, 123000, Note_on_c, 4, 67, 41
6, 123000, Note_on_c, 4, 55, 41
6, 123048, Note_off_c, 4, 55, 64
6, 123048, Note_off_c, 4, 67, 64
6, 123120, Note_on_c, 4, 55, 42
6, 123120, Note_on_c, 4, 67, 42
6, 123168, Note_off_c, 4, 67, 64
6, 123168, Note_off_c, 4, 55, 64
6, 123240, Note_on_c, 4, 67, 43
6, 123240, Note_on_c, 4, 55, 43
6, 123288, Note_off_c, 4, 55, 64
6, 123288, Note_off_c, 4, 67, 64
6, 123360, Note_on_c, 4, 55, 44
6, 123360, Note_on_c, 4, 67, 44
6, 123408, Note_off_c, 4, 67, 64
6, 123408, Note_off_c, 4, 55, 64
6, 123480, Note_on_c, 4, 55, 45
6, 123480, Note_on_c, 4, 67, 45
6, 123528, Note_off_c, 4, 67, 64
6, 123528, Note_off_c, 4, 55, 64
6, 123600, Note_on_c, 4, 55, 46
6, 123600, Note_on_c, 4, 67, 46
6, 123648, Note_off_c, 4, 67, 64
6, 123648, Note_off_c, 4, 55, 64
6, 123720, Note_on_c, 4, 67, 47
6, 123720, Note_on_c, 4, 55, 47
6, 123768, Note_off_c, 4, 55, 64
6, 123768, Note_off_c, 4, 67, 64
6, 123840, Note_on_c, 4, 67, 48
6, 123840, Note_on_c, 4, 55, 48
6, 123888, Note_off_c, 4, 55, 64
6, 123888, Note_off_c, 4, 67, 64
6, 123960, Note_on_c, 4, 55, 48
6, 123960, Note_on_c, 4, 67, 48
6, 124008, Note_off_c, 4, 67, 64
6, 124008, Note_off_c, 4, 55, 64
6, 124080, Note_on_c, 4, 67, 49
6, 124080, Note_on_c, 4, 55, 49
6, 124128, Note_off_c, 4, 55, 64
6, 124128, Note_off_c, 4, 67, 64
6, 124200, Note_on_c, 4, 55, 50
6, 124200, Note_on_c, 4, 67, 50
6, 124200, Note_on_c, 4, 55, 50
6, 124248, Note_off_c, 4, 55, 64
6, 124248, Note_off_c, 4, 67, 64
6, 124248, Note_off_c, 4, 55, 64
6, 124320, Note_on_c, 4, 55, 50
6, 124320, Note_on_c, 4, 67, 50
6, 124368, Note_off_c, 4, 67, 64
6, 124368, Note_off_c, 4, 55, 64
6, 124440, Note_on_c, 4, 55, 51
6, 124440, Note_on_c, 4, 55, 51
6, 124440, Note_on_c, 4, 67, 51
6, 124488, Note_off_c, 4, 67, 64
6, 124488, Note_off_c, 4, 55, 64
6, 124488, Note_off_c, 4, 55, 64
6, 124560, Note_on_c, 4, 55, 52
6, 124560, Note_on_c, 4, 67, 52
6, 124608, Note_off_c, 4, 67, 64
6, 124608, Note_off_c, 4, 55, 64
6, 124680, Note_on_c, 4, 67, 53
6, 124680, Note_on_c, 4, 55, 53
6, 124728, Note_off_c, 4, 55, 64
6, 124728, Note_off_c, 4, 67, 64
6, 124800, Note_on_c, 4, 55, 54
6, 124800, Note_on_c, 4, 67, 54
6, 124848, Note_off_c, 4, 67, 64
6, 124848, Note_off_c, 4, 55, 64
6, 124920, Note_on_c, 4, 67, 55
6, 124920, Note_on_c, 4, 55, 55
6, 124968, Note_off_c, 4, 55, 64
6, 124968, Note_off_c, 4, 67, 64
6, 125040, Note_on_c, 4, 55, 56
6, 125040, Note_on_c, 4, 67, 56
6, 125088, Note_off_c, 4, 67, 64
6, 125088, Note_off_c, 4, 55, 64
6, 125160, Note_on_c, 4, 55, 57
6, 125160, Note_on_c, 4, 67, 57
6, 125208, Note_off_c, 4, 67, 64
6, 125208, Note_off_c, 4, 55, 64
6, 125280, Note_on_c, 4, 67, 58
6, 125280, Note_on_c, 4, 55, 58
6, 125328, Note_off_c, 4, 55, 64
6, 125328, Note_off_c, 4, 67, 64
6, 125400, Note_on_c, 4, 55, 59
6, 125400, Note_on_c, 4, 67, 59
6, 125448, Note_off_c, 4, 67, 64
6, 125448, Note_off_c, 4, 55, 64
6, 125520, Note_on_c, 4, 67, 59
6, 125520, Note_on_c, 4, 55, 59
6, 125568, Note_off_c, 4, 55, 64
6, 125568, Note_off_c, 4, 67, 64
6, 125640, Note_on_c, 4, 67, 60
6, 125640, Note_on_c, 4, 55, 60
6, 125688, Note_off_c, 4, 55, 64
6, 125688, Note_off_c, 4, 67, 64
6, 125760, Note_on_c, 4, 67, 61
6, 125760, Note_on_c, 4, 55, 61
6, 125808, Note_off_c, 4, 55, 64
6, 125808, Note_off_c, 4, 67, 64
6, 125880, Note_on_c, 4, 67, 61
6, 125880, Note_on_c, 4, 55, 61
6, 125928, Note_off_c, 4, 55, 64
6, 125928, Note_off_c, 4, 67, 64
6, 126000, Note_on_c, 4, 67, 62
6, 126000, Note_on_c, 4, 55, 62
6, 126048, Note_off_c, 4, 55, 64
6, 126048, Note_off_c, 4, 67, 64
6, 126120, Note_on_c, 4, 55, 63
6, 126120, Note_on_c, 4, 67, 63
6, 126168, Note_off_c, 4, 67, 64
6, 126168, Note_off_c, 4, 55, 64
6, 126240, Note_on_c, 4, 55, 64
6, 126240, Note_on_c, 4, 67, 64
6, 126288, Note_off_c, 4, 67, 64
6, 126288, Note_off_c, 4, 55, 64
6, 126360, Note_on_c, 4, 55, 65
6, 126360, Note_on_c, 4, 67, 65
6, 126408, Note_off_c, 4, 67, 64
6, 126408, Note_off_c, 4, 55, 64
6, 126480, Note_on_c, 4, 67, 66
6, 126480, Note_on_c, 4, 55, 66
6, 126528, Note_off_c, 4, 55, 64
6, 126528, Note_off_c, 4, 67, 64
6, 126600, Note_on_c, 4, 55, 67
6, 126600, Note_on_c, 4, 67, 67
6, 126648, Note_off_c, 4, 67, 64
6, 126648, Note_off_c, 4, 55, 64
6, 126720, Note_on_c, 4, 67, 68
6, 126720, Note_on_c, 4, 55, 68
6, 126768, Note_off_c, 4, 55, 64
6, 126768, Note_off_c, 4, 67, 64
6, 126840, Note_on_c, 4, 67, 69
6, 126840, Note_on_c, 4, 55, 69
6, 126888, Note_off_c, 4, 55, 64
6, 126888, Note_off_c, 4, 67, 64
6, 126960, Note_on_c, 4, 67, 70
6, 126960, Note_on_c, 4, 55, 70
6, 127008, Note_off_c, 4, 55, 64
6, 127008, Note_off_c, 4, 67, 64
6, 127080, Note_on_c, 4, 55, 56
6, 127080, Note_on_c, 4, 67, 56
6, 127128, Note_off_c, 4, 67, 64
6, 127128, Note_off_c, 4, 55, 64
6, 127200, Note_on_c, 4, 55, 57
6, 127200, Note_on_c, 4, 67, 57
6, 127248, Note_off_c, 4, 67, 64
6, 127248, Note_off_c, 4, 55, 64
6, 127320, Note_on_c, 4, 55, 58
6, 127320, Note_on_c, 4, 67, 58
6, 127368, Note_off_c, 4, 67, 64
6, 127368, Note_off_c, 4, 55, 64
6, 127440, Note_on_c, 4, 67, 59
6, 127440, Note_on_c, 4, 55, 59
6, 127488, Note_off_c, 4, 55, 64
6, 127488, Note_off_c, 4, 67, 64
6, 127560, Note_on_c, 4, 67, 59
6, 127560, Note_on_c, 4, 55, 59
6, 127608, Note_off_c, 4, 55, 64
6, 127608, Note_off_c, 4, 67, 64
6, 127680, Note_on_c, 4, 55, 59
6, 127680, Note_on_c, 4, 67, 59
6, 127728, Note_off_c, 4, 67, 64
6, 127728, Note_off_c, 4, 55, 64
6, 127800, Note_on_c, 4, 55, 59
6, 127800, Note_on_c, 4, 67, 59
6, 127848, Note_off_c, 4, 67, 64
6, 127848, Note_off_c, 4, 55, 64
6, 127920, Note_on_c, 4, 55, 60
6, 127920, Note_on_c, 4, 67, 60
6, 127968, Note_off_c, 4, 67, 64
6, 127968, Note_off_c, 4, 55, 64
6, 128040, Note_on_c, 4, 55, 61
6, 128040, Note_on_c, 4, 67, 61
6, 128088, Note_off_c, 4, 67, 64
6, 128088, Note_off_c, 4, 55, 64
6, 128160, Note_on_c, 4, 55, 108
6, 128160, Note_on_c, 4, 65, 108
6, 128160, Note_on_c, 4, 43, 108
6, 130176, Note_off_c, 4, 65, 64
6, 130176, Note_off_c, 4, 55, 64
6, 130560, Note_on_c, 4, 65, 72
6, 130560, Note_on_c, 4, 55, 72
6, 130944, Note_off_c, 4, 55, 64
6, 130944, Note_off_c, 4, 43, 64
6, 130944, Note_off_c, 4, 65, 64
6, 131040, Note_on_c, 4, 43, 72
6, 131040, Note_on_c, 4, 55, 72
6, 131040, Note_on_c, 4, 64, 72
6, 132864, Note_off_c, 4, 64, 64
6, 132960, Note_on_c, 4, 62, 72
6, 134784, Note_off_c, 4, 55, 64
6, 134784, Note_off_c, 4, 43, 64
6, 134784, Note_off_c, 4, 62, 64
6, 134880, Note_on_c, 4, 55, 72
6, 134880, Note_on_c, 4, 43, 72
6, 134880, Note_on_c, 4, 60, 72
6, 135780, Note_off_c, 4, 60, 64
6, 135780, Note_off_c, 4, 43, 64
6, 135780, Note_off_c, 4, 55, 64
6, 135840, Note_on_c, 4, 55, 72
6, 135840, Note_on_c, 4, 43, 72
6, 136704, Note_off_c, 4, 43, 64
6, 136704, Note_off_c, 4, 55, 64
6, 136800, Note_on_c, 4, 55, 61
6, 136800, Note_on_c, 4, 43, 61
6, 137568, Note_off_c, 4, 43, 64
6, 137568, Note_off_c, 4, 55, 64
6, 137760, Note_on_c, 4, 43, 52
6, 137760, Note_on_c, 4, 55, 52
6, 138624, Note_off_c, 4, 55, 64
6, 138624, Note_off_c, 4, 43, 64
6, 138720, Note_on_c, 4, 43, 44
6, 138720, Note_on_c, 4, 55, 44
6, 139488, Note_off_c, 4, 55, 64
6, 139488, Note_off_c, 4, 43, 64
6, 139680, Note_on_c, 4, 55, 38
6, 139680, Note_on_c, 4, 43, 38
6, 140064, Note_off_c, 4, 43, 64
6, 140064, Note_off_c, 4, 55, 64
6, 140160, Note_on_c, 4, 43, 36
6, 140160, Note_on_c, 4, 55, 36
6, 140544, Note_off_c, 4, 55, 64
6, 140544, Note_off_c, 4, 43, 64
6, 185040, Note_on_c, 4, 67, 72
6, 185904, Note_off_c, 4, 67, 64
6, 186000, Note_on_c, 4, 66, 72
6, 186864, Note_off_c, 4, 66, 64
6, 186960, Note_on_c, 4, 64, 72
6, 187824, Note_off_c, 4, 64, 64
6, 187920, Note_on_c, 4, 62, 72
6, 188784, Note_off_c, 4, 62, 64
6, 188880, Note_on_c, 4, 60, 72
6, 189360, Note_on_c, 4, 62, 72
6, 189744, Note_off_c, 4, 62, 64
6, 189744, Note_off_c, 4, 60, 64
6, 189840, Note_on_c, 4, 59, 72
6, 189840, Note_on_c, 4, 62, 72
6, 190224, Note_off_c, 4, 62, 64
6, 190224, Note_off_c, 4, 59, 64
6, 190320, Note_on_c, 4, 62, 101
6, 190416, Note_off_c, 4, 62, 64
6, 190560, Note_on_c, 4, 62, 101
6, 190656, Note_off_c, 4, 62, 64
6, 190800, Note_on_c, 4, 62, 101
6, 190896, Note_off_c, 4, 62, 64
6, 191280, Note_on_c, 4, 62, 101
6, 191376, Note_off_c, 4, 62, 64
6, 191520, Note_on_c, 4, 62, 101
6, 191616, Note_off_c, 4, 62, 64
6, 191760, Note_on_c, 4, 62, 101
6, 191856, Note_off_c, 4, 62, 64
6, 192240, Note_on_c, 4, 62, 101
6, 192336, Note_off_c, 4, 62, 64
6, 192480, Note_on_c, 4, 62, 101
6, 192576, Note_off_c, 4, 62, 64
6, 192720, Note_on_c, 4, 62, 101
6, 192816, Note_off_c, 4, 62, 64
6, 193200, Note_on_c, 4, 55, 101
6, 193200, Note_on_c, 4, 62, 101
6, 193296, Note_off_c, 4, 62, 64
6, 193440, Note_on_c, 4, 62, 101
6, 193536, Note_off_c, 4, 62, 64
6, 193680, Note_on_c, 4, 62, 101
6, 193776, Note_off_c, 4, 62, 64
6, 194112, Note_off_c, 4, 55, 64
6, 194160, Note_on_c, 4, 60, 101
6, 194160, Note_on_c, 4, 52, 101
6, 194544, Note_off_c, 4, 52, 64
6, 195120, Note_on_c, 4, 65, 101
6, 195504, Note_off_c, 4, 60, 64
6, 195600, Note_on_c, 4, 55, 101
6, 195984, Note_off_c, 4, 65, 64
6, 195984, Note_off_c, 4, 55, 64
6, 196080, Note_on_c, 4, 64, 101
6, 196080, Note_on_c, 4, 60, 101
6, 196464, Note_off_c, 4, 60, 64
6, 196560, Note_on_c, 4, 48, 101
6, 196944, Note_off_c, 4, 64, 64
6, 196944, Note_off_c, 4, 48, 64
6, 197040, Note_on_c, 4, 62, 101
6, 197808, Note_off_c, 4, 62, 64
6, 198000, Note_on_c, 4, 60, 72
6, 198384, Note_off_c, 4, 60, 64
6, 198480, Note_on_c, 4, 65, 72
6, 198480, Note_on_c, 4, 60, 72
6, 198480, Note_on_c, 4, 48, 72
6, 198864, Note_off_c, 4, 48, 64
6, 198864, Note_off_c, 4, 60, 64
6, 198864, Note_off_c, 4, 65, 64
6, 198960, Note_on_c, 4, 62, 72
6, 198960, Note_on_c, 4, 55, 72
6, 199344, Note_off_c, 4, 55, 64
6, 199344, Note_off_c, 4, 62, 64
6, 199440, Note_on_c, 4, 60, 72
6, 199440, Note_on_c, 4, 64, 72
6, 199824, Note_off_c, 4, 64, 64
6, 199824, Note_off_c, 4, 60, 64
6, 203760, Note_on_c, 4, 62, 72
6, 203760, Note_on_c, 4, 55, 72
6, 204144, Note_off_c, 4, 55, 64
6, 204144, Note_off_c, 4, 62, 64
6, 204240, Note_on_c, 4, 67, 72
6, 204240, Note_on_c, 4, 55, 72
6, 204624, Note_off_c, 4, 55, 64
6, 204624, Note_off_c, 4, 67, 64
6, 206160, Note_on_c, 4, 64, 72
6, 207024, Note_off_c, 4, 64, 64
6, 207120, Note_on_c, 4, 62, 72
6, 207984, Note_off_c, 4, 62, 64
6, 208080, Note_on_c, 4, 48, 72
6, 208080, Note_on_c, 4, 60, 72
6, 208944, Note_off_c, 4, 60, 64
6, 208944, Note_off_c, 4, 48, 64
6, 209040, Note_on_c, 4, 55, 72
6, 209424, Note_off_c, 4, 55, 64
6, 209520, Note_on_c, 4, 62, 101
6, 209616, Note_off_c, 4, 62, 64
6, 209760, Note_on_c, 4, 62, 101
6, 209856, Note_off_c, 4, 62, 64
6, 210000, Note_on_c, 4, 62, 101
6, 210096, Note_off_c, 4, 62, 64
6, 210480, Note_on_c, 4, 62, 101
6, 210576, Note_off_c, 4, 62, 64
6, 210720, Note_on_c, 4, 62, 101
6, 210816, Note_off_c, 4, 62, 64
6, 210960, Note_on_c, 4, 62, 101
6, 211056, Note_off_c, 4, 62, 64
6, 211440, Note_on_c, 4, 62, 101
6, 211536, Note_off_c, 4, 62, 64
6, 211680, Note_on_c, 4, 62, 101
6, 211776, Note_off_c, 4, 62, 64
6, 211920, Note_on_c, 4, 62, 101
6, 212016, Note_off_c, 4, 62, 64
6, 212400, Note_on_c, 4, 55, 101
6, 212400, Note_on_c, 4, 62, 101
6, 212496, Note_off_c, 4, 62, 64
6, 212496, Note_off_c, 4, 55, 64
6, 212640, Note_on_c, 4, 55, 101
6, 212640, Note_on_c, 4, 62, 101
6, 212736, Note_off_c, 4, 62, 64
6, 212736, Note_off_c, 4, 55, 64
6, 212880, Note_on_c, 4, 55, 101
6, 212880, Note_on_c, 4, 62, 101
6, 212976, Note_off_c, 4, 62, 64
6, 212976, Note_off_c, 4, 55, 64
6, 213120, Note_on_c, 4, 62, 101
6, 213120, Note_on_c, 4, 55, 101
6, 213216, Note_off_c, 4, 55, 64
6, 213216, Note_off_c, 4, 62, 64
6, 213360, Note_on_c, 4, 62, 101
6, 213360, Note_on_c, 4, 55, 101
6, 213456, Note_off_c, 4, 55, 64
6, 213456, Note_off_c, 4, 62, 64
6, 213600, Note_on_c, 4, 55, 101
6, 213600, Note_on_c, 4, 62, 101
6, 213696, Note_off_c, 4, 62, 64
6, 213696, Note_off_c, 4, 55, 64
6, 213840, Note_on_c, 4, 62, 101
6, 213840, Note_on_c, 4, 55, 101
6, 213936, Note_off_c, 4, 55, 64
6, 213936, Note_off_c, 4, 62, 64
6, 214320, Note_on_c, 4, 60, 101
6, 214320, Note_on_c, 4, 64, 101
6, 214416, Note_off_c, 4, 64, 64
6, 214416, Note_off_c, 4, 60, 64
6, 214560, Note_on_c, 4, 60, 101
6, 214560, Note_on_c, 4, 64, 101
6, 214656, Note_off_c, 4, 64, 64
6, 214656, Note_off_c, 4, 60, 64
6, 214800, Note_on_c, 4, 64, 101
6, 214800, Note_on_c, 4, 60, 101
6, 214896, Note_off_c, 4, 60, 64
6, 214896, Note_off_c, 4, 64, 64
6, 215280, Note_on_c, 4, 55, 114
6, 215280, Note_on_c, 4, 67, 114
6, 217104, Note_off_c, 4, 67, 64
6, 217104, Note_off_c, 4, 55, 64
6, 217200, Note_on_c, 4, 52, 101
6, 217200, Note_on_c, 4, 64, 101
6, 217392, Note_off_c, 4, 64, 64
6, 217392, Note_off_c, 4, 52, 64
6, 217680, Note_on_c, 4, 64, 101
6, 218448, Note_off_c, 4, 64, 64
6, 218640, Note_on_c, 4, 62, 101
6, 218832, Note_off_c, 4, 62, 64
6, 219120, Note_on_c, 4, 48, 101
6, 219120, Note_on_c, 4, 60, 101
6, 219312, Note_off_c, 4, 60, 64
6, 219312, Note_off_c, 4, 48, 64
6, 219600, Note_on_c, 4, 48, 101
6, 219600, Note_on_c, 4, 60, 101
6, 219792, Note_off_c, 4, 60, 64
6, 219792, Note_off_c, 4, 48, 64
6, 220560, Note_on_c, 4, 67, 101
6, 220560, Note_on_c, 4, 55, 101
6, 220752, Note_off_c, 4, 55, 64
6, 220752, Note_off_c, 4, 67, 64
6, 221520, Note_on_c, 4, 48, 101
6, 221520, Note_on_c, 4, 60, 101
6, 222288, Note_off_c, 4, 60, 64
6, 222288, Note_off_c, 4, 48, 64
6, 222480, Note_on_c, 4, 60, 101
6, 222480, Note_on_c, 4, 48, 101
6, 222672, Note_off_c, 4, 48, 64
6, 222672, Note_off_c, 4, 60, 64
6, 222960, Note_on_c, 4, 62, 101
6, 222960, Note_on_c, 4, 65, 101
6, 223056, Note_off_c, 4, 65, 64
6, 223056, Note_off_c, 4, 62, 64
6, 223200, Note_on_c, 4, 64, 101
6, 223200, Note_on_c, 4, 60, 101
6, 223296, Note_off_c, 4, 60, 64
6, 223296, Note_off_c, 4, 64, 64
6, 223440, Note_on_c, 4, 67, 101
6, 223440, Note_on_c, 4, 64, 101
6, 223536, Note_off_c, 4, 64, 64
6, 223536, Note_off_c, 4, 67, 64
6, 223680, Note_on_c, 4, 62, 101
6, 223680, Note_on_c, 4, 65, 101
6, 223776, Note_off_c, 4, 65, 64
6, 223776, Note_off_c, 4, 62, 64
6, 223920, Note_on_c, 4, 64, 101
6, 223920, Note_on_c, 4, 60, 101
6, 224016, Note_off_c, 4, 60, 64
6, 224016, Note_off_c, 4, 64, 64
6, 224160, Note_on_c, 4, 55, 101
6, 224160, Note_on_c, 4, 62, 101
6, 224256, Note_off_c, 4, 62, 64
6, 224256, Note_off_c, 4, 55, 64
6, 224400, Note_on_c, 4, 65, 101
6, 224400, Note_on_c, 4, 62, 101
6, 224496, Note_off_c, 4, 62, 64
6, 224496, Note_off_c, 4, 65, 64
6, 224640, Note_on_c, 4, 64, 101
6, 224640, Note_on_c, 4, 60, 101
6, 224736, Note_off_c, 4, 60, 64
6, 224736, Note_off_c, 4, 64, 64
6, 224880, Note_on_c, 4, 62, 101
6, 224880, Note_on_c, 4, 65, 101
6, 224976, Note_off_c, 4, 65, 64
6, 224976, Note_off_c, 4, 62, 64
6, 225120, Note_on_c, 4, 60, 101
6, 225120, Note_on_c, 4, 64, 101
6, 225216, Note_off_c, 4, 64, 64
6, 225216, Note_off_c, 4, 60, 64
6, 225360, Note_on_c, 4, 67, 101
6, 225360, Note_on_c, 4, 64, 101
6, 225456, Note_off_c, 4, 64, 64
6, 225456, Note_off_c, 4, 67, 64
6, 225600, Note_on_c, 4, 65, 101
6, 225600, Note_on_c, 4, 62, 101
6, 225696, Note_off_c, 4, 62, 64
6, 225696, Note_off_c, 4, 65, 64
6, 225840, Note_on_c, 4, 60, 101
6, 225840, Note_on_c, 4, 64, 101
6, 225936, Note_off_c, 4, 64, 64
6, 225936, Note_off_c, 4, 60, 64
6, 226080, Note_on_c, 4, 55, 101
6, 226080, Note_on_c, 4, 62, 101
6, 226176, Note_off_c, 4, 62, 64
6, 226176, Note_off_c, 4, 55, 64
6, 226320, Note_on_c, 4, 65, 101
6, 226320, Note_on_c, 4, 62, 101
6, 226416, Note_off_c, 4, 62, 64
6, 226416, Note_off_c, 4, 65, 64
6, 226560, Note_on_c, 4, 64, 101
6, 226560, Note_on_c, 4, 60, 101
6, 226656, Note_off_c, 4, 60, 64
6, 226656, Note_off_c, 4, 64, 64
6, 226800, Note_on_c, 4, 64, 86
6, 226800, Note_on_c, 4, 60, 86
6, 226896, Note_off_c, 4, 60, 64
6, 226896, Note_off_c, 4, 64, 64
6, 227040, Note_on_c, 4, 64, 86
6, 227040, Note_on_c, 4, 60, 86
6, 227136, Note_off_c, 4, 60, 64
6, 227136, Note_off_c, 4, 64, 64
6, 227280, Note_on_c, 4, 60, 86
6, 227280, Note_on_c, 4, 64, 86
6, 227376, Note_off_c, 4, 64, 64
6, 227376, Note_off_c, 4, 60, 64
6, 227760, Note_on_c, 4, 60, 86
6, 227760, Note_on_c, 4, 64, 86
6, 227856, Note_off_c, 4, 64, 64
6, 227856, Note_off_c, 4, 60, 64
6, 228000, Note_on_c, 4, 60, 86
6, 228000, Note_on_c, 4, 64, 86
6, 228096, Note_off_c, 4, 64, 64
6, 228096, Note_off_c, 4, 60, 64
6, 228240, Note_on_c, 4, 64, 86
6, 228240, Note_on_c, 4, 60, 86
6, 228336, Note_off_c, 4, 60, 64
6, 228336, Note_off_c, 4, 64, 64
6, 228720, Note_on_c, 4, 62, 65
6, 228816, Note_off_c, 4, 62, 64
6, 228960, Note_on_c, 4, 62, 65
6, 229056, Note_off_c, 4, 62, 64
6, 229200, Note_on_c, 4, 62, 65
6, 229296, Note_off_c, 4, 62, 64
6, 229680, Note_on_c, 4, 62, 65
6, 229680, Note_on_c, 4, 55, 65
6, 229776, Note_off_c, 4, 55, 64
6, 229776, Note_off_c, 4, 62, 64
6, 229920, Note_on_c, 4, 62, 65
6, 229920, Note_on_c, 4, 55, 65
6, 230016, Note_off_c, 4, 55, 64
6, 230016, Note_off_c, 4, 62, 64
6, 230160, Note_on_c, 4, 62, 65
6, 230160, Note_on_c, 4, 55, 65
6, 230256, Note_off_c, 4, 55, 64
6, 230256, Note_off_c, 4, 62, 64
6, 230640, Note_on_c, 4, 60, 65
6, 230736, Note_off_c, 4, 60, 64
6, 230880, Note_on_c, 4, 60, 65
6, 230976, Note_off_c, 4, 60, 64
6, 231120, Note_on_c, 4, 60, 65
6, 231216, Note_off_c, 4, 60, 64
6, 231600, Note_on_c, 4, 62, 108
6, 232368, Note_off_c, 4, 62, 64
6, 232560, Note_on_c, 4, 62, 72
6, 232560, Note_on_c, 4, 55, 72
6, 232944, Note_off_c, 4, 55, 64
6, 232944, Note_off_c, 4, 62, 64
6, 238320, Note_on_c, 4, 62, 57
6, 238320, Note_on_c, 4, 60, 57
6, 238416, Note_off_c, 4, 60, 64
6, 238416, Note_off_c, 4, 62, 64
6, 238560, Note_on_c, 4, 60, 57
6, 238560, Note_on_c, 4, 62, 57
6, 238656, Note_off_c, 4, 62, 64
6, 238656, Note_off_c, 4, 60, 64
6, 238800, Note_on_c, 4, 60, 57
6, 238800, Note_on_c, 4, 62, 57
6, 238896, Note_off_c, 4, 62, 64
6, 238896, Note_off_c, 4, 60, 64
6, 239280, Note_on_c, 4, 62, 57
6, 239376, Note_off_c, 4, 62, 64
6, 239520, Note_on_c, 4, 62, 57
6, 239616, Note_off_c, 4, 62, 64
6, 239760, Note_on_c, 4, 62, 57
6, 239856, Note_off_c, 4, 62, 64
6, 240240, Note_on_c, 4, 67, 57
6, 240336, Note_off_c, 4, 67, 64
6, 240480, Note_on_c, 4, 67, 57
6, 240576, Note_off_c, 4, 67, 64
6, 240720, Note_on_c, 4, 67, 57
6, 240816, Note_off_c, 4, 67, 64
6, 241200, Note_on_c, 4, 67, 57
6, 241296, Note_off_c, 4, 67, 64
6, 241440, Note_on_c, 4, 67, 57
6, 241536, Note_off_c, 4, 67, 64
6, 241680, Note_on_c, 4, 67, 57
6, 241776, Note_off_c, 4, 67, 64
6, 242160, Note_on_c, 4, 67, 40
6, 242160, Note_on_c, 4, 65, 40
6, 242256, Note_off_c, 4, 65, 64
6, 242256, Note_off_c, 4, 67, 64
6, 242400, Note_on_c, 4, 67, 40
6, 242400, Note_on_c, 4, 65, 40
6, 242496, Note_off_c, 4, 65, 64
6, 242496, Note_off_c, 4, 67, 64
6, 242640, Note_on_c, 4, 67, 40
6, 242640, Note_on_c, 4, 65, 40
6, 242736, Note_off_c, 4, 65, 64
6, 242736, Note_off_c, 4, 67, 64
6, 243120, Note_on_c, 4, 60, 29
6, 243216, Note_off_c, 4, 60, 64
6, 243360, Note_on_c, 4, 60, 29
6, 243456, Note_off_c, 4, 60, 64
6, 243600, Note_on_c, 4, 60, 29
6, 243696, Note_off_c, 4, 60, 64
6, 243840, Note_on_c, 4, 60, 29
6, 243936, Note_off_c, 4, 60, 64
6, 244080, Note_on_c, 4, 60, 29
6, 246000, Note_on_c, 4, 48, 29
6, 251856, Note_off_c, 4, 48, 64
6, 251856, Note_off_c, 4, 60, 64
6, 252000, Note_on_c, 4, 60, 29
6, 252000, Note_on_c, 4, 48, 29
6, 252096, Note_off_c, 4, 48, 64
6, 252096, Note_off_c, 4, 60, 64
6, 252240, Note_on_c, 4, 60, 29
6, 252240, Note_on_c, 4, 48, 29
6, 252336, Note_off_c, 4, 48, 64
6, 252336, Note_off_c, 4, 60, 64
6, 252480, Note_on_c, 4, 48, 29
6, 252480, Note_on_c, 4, 60, 29
6, 252576, Note_off_c, 4, 60, 64
6, 252576, Note_off_c, 4, 48, 64
6, 252720, Note_on_c, 4, 48, 29
6, 252720, Note_on_c, 4, 60, 29
6, 252816, Note_off_c, 4, 60, 64
6, 252816, Note_off_c, 4, 48, 64
6, 252960, Note_on_c, 4, 48, 29
6, 252960, Note_on_c, 4, 60, 29
6, 253056, Note_off_c, 4, 60, 64
6, 253056, Note_off_c, 4, 48, 64
6, 253200, Note_on_c, 4, 48, 29
6, 253200, Note_on_c, 4, 60, 29
6, 253296, Note_off_c, 4, 60, 64
6, 253296, Note_off_c, 4, 48, 64
6, 253680, Note_on_c, 4, 60, 29
6, 253680, Note_on_c, 4, 48, 29
6, 253776, Note_off_c, 4, 48, 64
6, 253776, Note_off_c, 4, 60, 64
6, 253920, Note_on_c, 4, 60, 29
6, 253920, Note_on_c, 4, 48, 29
6, 254016, Note_off_c, 4, 48, 64
6, 254016, Note_off_c, 4, 60, 64
6, 254160, Note_on_c, 4, 60, 29
6, 254160, Note_on_c, 4, 48, 29
6, 254256, Note_off_c, 4, 48, 64
6, 254256, Note_off_c, 4, 60, 64
6, 254640, Note_on_c, 4, 60, 29
6, 254640, Note_on_c, 4, 48, 29
6, 254736, Note_off_c, 4, 48, 64
6, 254736, Note_off_c, 4, 60, 64
6, 254880, Note_on_c, 4, 48, 29
6, 254880, Note_on_c, 4, 60, 29
6, 254976, Note_off_c, 4, 60, 64
6, 254976, Note_off_c, 4, 48, 64
6, 255120, Note_on_c, 4, 60, 29
6, 255120, Note_on_c, 4, 48, 29
6, 255216, Note_off_c, 4, 48, 64
6, 255216, Note_off_c, 4, 60, 64
6, 255600, Note_on_c, 4, 60, 29
6, 255600, Note_on_c, 4, 48, 29
6, 255696, Note_off_c, 4, 48, 64
6, 255696, Note_off_c, 4, 60, 64
6, 255840, Note_on_c, 4, 48, 29
6, 255840, Note_on_c, 4, 60, 29
6, 255936, Note_off_c, 4, 60, 64
6, 255936, Note_off_c, 4, 48, 64
6, 256080, Note_on_c, 4, 60, 29
6, 256080, Note_on_c, 4, 48, 29
6, 256176, Note_off_c, 4, 48, 64
6, 256176, Note_off_c, 4, 60, 64
6, 269040, Note_on_c, 4, 52, 24
6, 269040, Note_on_c, 4, 64, 24
6, 274416, Note_off_c, 4, 64, 64
6, 274416, Note_off_c, 4, 52, 64
6, 274800, Note_on_c, 4, 52, 24
6, 274800, Note_on_c, 4, 64, 24
6, 276336, Note_off_c, 4, 64, 64
6, 276336, Note_off_c, 4, 52, 64
6, 276720, Note_on_c, 4, 64, 24
6, 276720, Note_on_c, 4, 52, 24
6, 278256, Note_off_c, 4, 52, 64
6, 278256, Note_off_c, 4, 64, 64
6, 280560, Note_on_c, 4, 62, 32
6, 282480, Note_off_c, 4, 62, 64
6, 282480, Note_on_c, 4, 67, 32
6, 282480, Note_on_c, 4, 55, 32
6, 284016, Note_off_c, 4, 55, 64
6, 284016, Note_off_c, 4, 67, 64
6, 284400, Note_on_c, 4, 52, 32
6, 284400, Note_on_c, 4, 64, 32
6, 285936, Note_off_c, 4, 64, 64
6, 285936, Note_off_c, 4, 52, 64
6, 296400, Note_on_c, 4, 52, 80
6, 296400, Note_on_c, 4, 64, 80
6, 296784, Note_off_c, 4, 64, 64
6, 296784, Note_off_c, 4, 52, 64
6, 297360, Note_on_c, 4, 62, 80
6, 297744, Note_off_c, 4, 62, 64
6, 297840, Note_on_c, 4, 52, 80
6, 297840, Note_on_c, 4, 64, 80
6, 298224, Note_off_c, 4, 64, 64
6, 298224, Note_off_c, 4, 52, 64
6, 298800, Note_on_c, 4, 62, 80
6, 299184, Note_off_c, 4, 62, 64
6, 299280, Note_on_c, 4, 67, 80
6, 299280, Note_on_c, 4, 55, 80
6, 299664, Note_off_c, 4, 55, 64
6, 299664, Note_off_c, 4, 67, 64
6, 299760, Note_on_c, 4, 48, 80
6, 299760, Note_on_c, 4, 60, 80
6, 300144, Note_off_c, 4, 60, 64
6, 300144, Note_off_c, 4, 48, 64
6, 301200, Note_on_c, 4, 64, 80
6, 301200, Note_on_c, 4, 52, 80
6, 301584, Note_off_c, 4, 52, 64
6, 301584, Note_off_c, 4, 64, 64
6, 302160, Note_on_c, 4, 64, 80
6, 302160, Note_on_c, 4, 52, 80
6, 302544, Note_off_c, 4, 52, 64
6, 302544, Note_off_c, 4, 64, 64
6, 303120, Note_on_c, 4, 52, 80
6, 303120, Note_on_c, 4, 64, 80
6, 303504, Note_off_c, 4, 64, 64
6, 303504, Note_off_c, 4, 52, 64
6, 304080, Note_on_c, 4, 64, 80
6, 304080, Note_on_c, 4, 52, 80
6, 304464, Note_off_c, 4, 52, 64
6, 304464, Note_off_c, 4, 64, 64
6, 305040, Note_on_c, 4, 52, 80
6, 305040, Note_on_c, 4, 64, 80
6, 305424, Note_off_c, 4, 64, 64
6, 305424, Note_off_c, 4, 52, 64
6, 306000, Note_on_c, 4, 64, 80
6, 306000, Note_on_c, 4, 52, 80
6, 306384, Note_off_c, 4, 52, 64
6, 306384, Note_off_c, 4, 64, 64
6, 306540, Note_on_c, 4, 52, 80
6, 306540, Note_on_c, 4, 64, 80
6, 306924, Note_off_c, 4, 64, 64
6, 306924, Note_off_c, 4, 52, 64
6, 307080, Note_on_c, 4, 52, 80
6, 307080, Note_on_c, 4, 64, 80
6, 307464, Note_off_c, 4, 64, 64
6, 307464, Note_off_c, 4, 52, 64
6, 307680, Note_on_c, 4, 55, 120
6, 307680, Note_on_c, 4, 52, 120
6, 307680, Note_on_c, 4, 67, 120
6, 307680, Note_on_c, 4, 64, 120
6, 309216, Note_off_c, 4, 64, 64
6, 309216, Note_off_c, 4, 67, 64
6, 309216, Note_off_c, 4, 52, 64
6, 309216, Note_off_c, 4, 55, 64
6, 309600, Note_on_c, 4, 64, 120
6, 309600, Note_on_c, 4, 52, 120
6, 309600, Note_on_c, 4, 55, 120
6, 309600, Note_on_c, 4, 67, 120
6, 311136, Note_off_c, 4, 67, 64
6, 311136, Note_off_c, 4, 55, 64
6, 311136, Note_off_c, 4, 52, 64
6, 311136, Note_off_c, 4, 64, 64
6, 311520, Note_on_c, 4, 52, 120
6, 311520, Note_on_c, 4, 55, 120
6, 311520, Note_on_c, 4, 64, 120
6, 311520, Note_on_c, 4, 67, 120
6, 313056, Note_off_c, 4, 67, 64
6, 313056, Note_off_c, 4, 64, 64
6, 313056, Note_off_c, 4, 55, 64
6, 313056, Note_off_c, 4, 52, 64
6, 313440, Note_on_c, 4, 52, 120
6, 313440, Note_on_c, 4, 55, 120
6, 313440, Note_on_c, 4, 64, 120
6, 313440, Note_on_c, 4, 67, 120
6, 313824, Note_off_c, 4, 67, 64
6, 313824, Note_off_c, 4, 64, 64
6, 313824, Note_off_c, 4, 55, 64
6, 313824, Note_off_c, 4, 52, 64
6, 313920, Note_on_c, 4, 52, 120
6, 313920, Note_on_c, 4, 67, 120
6, 313920, Note_on_c, 4, 64, 120
6, 313920, Note_on_c, 4, 55, 120
6, 314304, Note_off_c, 4, 55, 64
6, 314304, Note_off_c, 4, 64, 64
6, 314304, Note_off_c, 4, 67, 64
6, 314304, Note_off_c, 4, 52, 64
6, 314400, Note_on_c, 4, 52, 120
6, 314400, Note_on_c, 4, 55, 120
6, 314400, Note_on_c, 4, 64, 120
6, 314400, Note_on_c, 4, 67, 120
6, 314784, Note_off_c, 4, 67, 64
6, 314784, Note_off_c, 4, 64, 64
6, 314784, Note_off_c, 4, 55, 64
6, 314784, Note_off_c, 4, 52, 64
6, 314880, Note_on_c, 4, 67, 120
6, 314880, Note_on_c, 4, 52, 120
6, 314880, Note_on_c, 4, 64, 120
6, 314880, Note_on_c, 4, 55, 120
6, 315264, Note_off_c, 4, 55, 64
6, 315264, Note_off_c, 4, 64, 64
6, 315264, Note_off_c, 4, 52, 64
6, 315264, Note_off_c, 4, 67, 64
6, 315360, Note_on_c, 4, 67, 120
6, 315360, Note_on_c, 4, 52, 120
6, 315360, Note_on_c, 4, 55, 120
6, 315360, Note_on_c, 4, 64, 120
6, 316896, Note_off_c, 4, 64, 64
6, 316896, Note_off_c, 4, 55, 64
6, 316896, Note_off_c, 4, 52, 64
6, 316896, Note_off_c, 4, 67, 64
6, 317280, Note_on_c, 4, 67, 120
6, 317280, Note_on_c, 4, 55, 120
6, 317280, Note_on_c, 4, 52, 120
6, 317280, Note_on_c, 4, 64, 120
6, 318816, Note_off_c, 4, 64, 64
6, 318816, Note_off_c, 4, 52, 64
6, 318816, Note_off_c, 4, 55, 64
6, 318816, Note_off_c, 4, 67, 64
6, 319200, Note_on_c, 4, 67, 120
6, 319200, Note_on_c, 4, 64, 120
6, 319200, Note_on_c, 4, 52, 120
6, 319200, Note_on_c, 4, 55, 120
6, 320736, Note_off_c, 4, 55, 64
6, 320736, Note_off_c, 4, 52, 64
6, 320736, Note_off_c, 4, 64, 64
6, 320736, Note_off_c, 4, 67, 64
6, 321120, Note_on_c, 4, 52, 120
6, 321120, Note_on_c, 4, 55, 120
6, 321120, Note_on_c, 4, 64, 120
6, 321120, Note_on_c, 4, 67, 120
6, 321504, Note_off_c, 4, 67, 64
6, 321504, Note_off_c, 4, 64, 64
6, 321504, Note_off_c, 4, 55, 64
6, 321504, Note_off_c, 4, 52, 64
6, 321600, Note_on_c, 4, 52, 120
6, 321600, Note_on_c, 4, 67, 120
6, 321600, Note_on_c, 4, 64, 120
6, 321600, Note_on_c, 4, 55, 120
6, 321984, Note_off_c, 4, 55, 64
6, 321984, Note_off_c, 4, 64, 64
6, 321984, Note_off_c, 4, 67, 64
6, 321984, Note_off_c, 4, 52, 64
6, 322080, Note_on_c, 4, 52, 120
6, 322080, Note_on_c, 4, 55, 120
6, 322080, Note_on_c, 4, 64, 120
6, 322080, Note_on_c, 4, 67, 120
6, 322464, Note_off_c, 4, 67, 64
6, 322464, Note_off_c, 4, 64, 64
6, 322464, Note_off_c, 4, 55, 64
6, 322464, Note_off_c, 4, 52, 64
6, 322560, Note_on_c, 4, 59, 120
6, 322560, Note_on_c, 4, 47, 120
6, 322944, Note_off_c, 4, 47, 64
6, 322944, Note_off_c, 4, 59, 64
6, 323040, Note_on_c, 4, 64, 120
6, 323040, Note_on_c, 4, 52, 120
6, 323266, Note_off_c, 4, 52, 64
6, 323266, Note_off_c, 4, 64, 64
6, 326880, Note_on_c, 4, 52, 120
6, 326880, Note_on_c, 4, 64, 120
6, 327106, Note_off_c, 4, 64, 64
6, 327106, Note_off_c, 4, 52, 64
6, 330720, Note_on_c, 4, 64, 72
6, 330720, Note_on_c, 4, 52, 72
6, 330946, Note_off_c, 4, 52, 64
6, 330946, Note_off_c, 4, 64, 64
6, 331680, Note_on_c, 4, 64, 72
6, 331680, Note_on_c, 4, 52, 72
6, 331906, Note_off_c, 4, 52, 64
6, 331906, Note_off_c, 4, 64, 64
6, 332640, Note_on_c, 4, 64, 96
6, 332640, Note_on_c, 4, 52, 96
6, 332866, Note_off_c, 4, 52, 64
6, 332866, Note_off_c, 4, 64, 64
6, 333600, Note_on_c, 4, 64, 96
6, 333600, Note_on_c, 4, 52, 96
6, 333826, Note_off_c, 4, 52, 64
6, 333826, Note_off_c, 4, 64, 64
6, 334560, Note_on_c, 4, 64, 80
6, 334560, Note_on_c, 4, 52, 80
6, 334752, Note_off_c, 4, 52, 64
6, 334752, Note_off_c, 4, 64, 64
6, 335520, Note_on_c, 4, 64, 80
6, 335520, Note_on_c, 4, 52, 80
6, 335712, Note_off_c, 4, 52, 64
6, 335712, Note_off_c, 4, 64, 64
6, 336000, Note_on_c, 4, 52, 80
6, 336000, Note_on_c, 4, 64, 80
6, 336192, Note_off_c, 4, 64, 64
6, 336192, Note_off_c, 4, 52, 64
6, 336480, Note_on_c, 4, 52, 80
6, 336480, Note_on_c, 4, 64, 80
6, 336672, Note_off_c, 4, 64, 64
6, 336672, Note_off_c, 4, 52, 64
6, 337440, Note_on_c, 4, 52, 80
6, 337440, Note_on_c, 4, 64, 80
6, 337632, Note_off_c, 4, 64, 64
6, 337632, Note_off_c, 4, 52, 64
6, 340320, Note_on_c, 4, 55, 23
6, 340320, Note_on_c, 4, 67, 23
6, 341280, Note_off_c, 4, 67, 64
6, 341280, Note_off_c, 4, 55, 64
6, 341280, Note_on_c, 4, 52, 23
6, 341280, Note_on_c, 4, 64, 23
6, 342240, Note_off_c, 4, 64, 64
6, 342240, Note_off_c, 4, 52, 64
6, 342240, Note_on_c, 4, 48, 23
6, 342240, Note_on_c, 4, 60, 23
6, 343080, Note_off_c, 4, 60, 64
6, 343080, Note_off_c, 4, 48, 64
6, 352800, Note_on_c, 4, 48, 28
6, 352800, Note_on_c, 4, 60, 28
6, 353568, Note_off_c, 4, 60, 64
6, 353568, Note_off_c, 4, 48, 64
6, 353760, Note_on_c, 4, 48, 43
6, 353760, Note_on_c, 4, 60, 43
6, 354528, Note_off_c, 4, 60, 64
6, 354528, Note_off_c, 4, 48, 64
6, 354720, Note_on_c, 4, 48, 63
6, 354720, Note_on_c, 4, 60, 63
6, 355488, Note_off_c, 4, 60, 64
6, 355488, Note_off_c, 4, 48, 64
6, 355680, Note_on_c, 4, 60, 72
6, 355680, Note_on_c, 4, 65, 72
6, 355680, Note_on_c, 4, 48, 72
6, 356448, Note_off_c, 4, 48, 64
6, 356448, Note_off_c, 4, 65, 64
6, 356448, Note_off_c, 4, 60, 64
6, 356640, Note_on_c, 4, 62, 82
6, 356640, Note_on_c, 4, 55, 82
6, 357024, Note_off_c, 4, 55, 64
6, 357024, Note_off_c, 4, 62, 64
6, 357120, Note_on_c, 4, 55, 86
6, 357120, Note_on_c, 4, 60, 86
6, 357120, Note_on_c, 4, 67, 86
6, 357120, Note_on_c, 4, 48, 86
6, 357216, Note_off_c, 4, 48, 64
6, 357216, Note_off_c, 4, 67, 64
6, 357216, Note_off_c, 4, 60, 64
6, 357216, Note_off_c, 4, 55, 64
6, 357360, Note_on_c, 4, 60, 89
6, 357360, Note_on_c, 4, 55, 89
6, 357360, Note_on_c, 4, 67, 89
6, 357360, Note_on_c, 4, 48, 89
6, 357456, Note_off_c, 4, 48, 64
6, 357456, Note_off_c, 4, 67, 64
6, 357456, Note_off_c, 4, 55, 64
6, 357456, Note_off_c, 4, 60, 64
6, 357600, Note_on_c, 4, 48, 91
6, 357600, Note_on_c, 4, 60, 91
6, 357792, Note_off_c, 4, 60, 64
6, 357792, Note_off_c, 4, 48, 64
6, 358080, Note_on_c, 4, 60, 96
6, 358080, Note_on_c, 4, 65, 96
6, 358176, Note_off_c, 4, 65, 64
6, 358176, Note_off_c, 4, 60, 64
6, 358320, Note_on_c, 4, 55, 98
6, 358320, Note_on_c, 4, 62, 98
6, 358416, Note_off_c, 4, 62, 64
6, 358416, Note_off_c, 4, 55, 64
6, 358560, Note_on_c, 4, 64, 101
6, 358560, Note_on_c, 4, 60, 101
6, 358656, Note_off_c, 4, 60, 64
6, 358656, Note_off_c, 4, 64, 64
6, 358800, Note_on_c, 4, 55, 103
6, 358800, Note_on_c, 4, 62, 103
6, 358896, Note_off_c, 4, 62, 64
6, 358896, Note_off_c, 4, 55, 64
6, 359040, Note_on_c, 4, 60, 105
6, 359136, Note_off_c, 4, 60, 64
6, 359280, Note_on_c, 4, 60, 108
6, 359280, Note_on_c, 4, 62, 108
6, 359376, Note_off_c, 4, 62, 64
6, 359376, Note_off_c, 4, 60, 64
6, 359520, Note_on_c, 4, 62, 80
6, 359520, Note_on_c, 4, 55, 60
6, 359616, Note_off_c, 4, 55, 64
6, 359616, Note_off_c, 4, 62, 64
6, 359760, Note_on_c, 4, 55, 60
6, 359760, Note_on_c, 4, 67, 60
6, 359856, Note_off_c, 4, 67, 64
6, 359856, Note_off_c, 4, 55, 64
6, 360000, Note_on_c, 4, 55, 60
6, 360000, Note_on_c, 4, 67, 60
6, 360096, Note_off_c, 4, 67, 64
6, 360096, Note_off_c, 4, 55, 64
6, 360480, Note_on_c, 4, 64, 60
6, 360480, Note_on_c, 4, 43, 60
6, 360480, Note_on_c, 4, 55, 60
6, 360480, Note_on_c, 4, 67, 80
6, 360576, Note_off_c, 4, 67, 64
6, 360576, Note_off_c, 4, 55, 64
6, 360576, Note_off_c, 4, 43, 64
6, 360576, Note_off_c, 4, 64, 64
6, 360720, Note_on_c, 4, 64, 60
6, 360720, Note_on_c, 4, 55, 60
6, 360720, Note_on_c, 4, 43, 60
6, 360720, Note_on_c, 4, 67, 60
6, 360816, Note_off_c, 4, 67, 64
6, 360816, Note_off_c, 4, 43, 64
6, 360816, Note_off_c, 4, 55, 64
6, 360816, Note_off_c, 4, 64, 64
6, 360960, Note_on_c, 4, 55, 60
6, 360960, Note_on_c, 4, 67, 60
6, 360960, Note_on_c, 4, 64, 60
6, 360960, Note_on_c, 4, 43, 60
6, 361056, Note_off_c, 4, 43, 64
6, 361056, Note_off_c, 4, 64, 64
6, 361056, Note_off_c, 4, 67, 64
6, 361056, Note_off_c, 4, 55, 64
6, 361440, Note_on_c, 4, 55, 60
6, 361440, Note_on_c, 4, 67, 80
6, 361440, Note_on_c, 4, 64, 60
6, 361536, Note_off_c, 4, 64, 64
6, 361536, Note_off_c, 4, 67, 64
6, 361536, Note_off_c, 4, 55, 64
6, 361680, Note_on_c, 4, 55, 60
6, 361680, Note_on_c, 4, 65, 60
6, 361680, Note_on_c, 4, 62, 60
6, 361776, Note_off_c, 4, 62, 64
6, 361776, Note_off_c, 4, 65, 64
6, 361776, Note_off_c, 4, 55, 64
6, 361920, Note_on_c, 4, 62, 60
6, 361920, Note_on_c, 4, 65, 60
6, 361920, Note_on_c, 4, 55, 60
6, 362016, Note_off_c, 4, 55, 64
6, 362016, Note_off_c, 4, 65, 64
6, 362016, Note_off_c, 4, 62, 64
6, 362400, Note_on_c, 4, 65, 80
6, 362400, Note_on_c, 4, 55, 60
6, 362400, Note_on_c, 4, 62, 60
6, 362496, Note_off_c, 4, 62, 64
6, 362496, Note_off_c, 4, 55, 64
6, 362496, Note_off_c, 4, 65, 64
6, 362640, Note_on_c, 4, 62, 60
6, 362640, Note_on_c, 4, 55, 60
6, 362640, Note_on_c, 4, 65, 60
6, 362736, Note_off_c, 4, 65, 64
6, 362736, Note_off_c, 4, 55, 64
6, 362736, Note_off_c, 4, 62, 64
6, 362880, Note_on_c, 4, 55, 60
6, 362880, Note_on_c, 4, 65, 60
6, 362880, Note_on_c, 4, 62, 60
6, 362976, Note_off_c, 4, 62, 64
6, 362976, Note_off_c, 4, 65, 64
6, 362976, Note_off_c, 4, 55, 64
6, 363360, Note_on_c, 4, 62, 60
6, 363360, Note_on_c, 4, 55, 60
6, 363360, Note_on_c, 4, 65, 80
6, 363456, Note_off_c, 4, 65, 64
6, 363456, Note_off_c, 4, 55, 64
6, 363456, Note_off_c, 4, 62, 64
6, 363600, Note_on_c, 4, 60, 60
6, 363600, Note_on_c, 4, 64, 60
6, 363600, Note_on_c, 4, 55, 60
6, 363696, Note_off_c, 4, 55, 64
6, 363696, Note_off_c, 4, 64, 64
6, 363696, Note_off_c, 4, 60, 64
6, 363840, Note_on_c, 4, 64, 60
6, 363840, Note_on_c, 4, 60, 60
6, 363840, Note_on_c, 4, 55, 60
6, 363936, Note_off_c, 4, 55, 64
6, 363936, Note_off_c, 4, 60, 64
6, 363936, Note_off_c, 4, 64, 64
6, 364320, Note_on_c, 4, 55, 60
6, 364320, Note_on_c, 4, 64, 80
6, 364416, Note_off_c, 4, 64, 64
6, 364416, Note_off_c, 4, 55, 64
6, 364560, Note_on_c, 4, 64, 60
6, 364560, Note_on_c, 4, 55, 60
6, 364656, Note_off_c, 4, 55, 64
6, 364656, Note_off_c, 4, 64, 64
6, 364800, Note_on_c, 4, 55, 60
6, 364800, Note_on_c, 4, 64, 60
6, 364896, Note_off_c, 4, 64, 64
6, 364896, Note_off_c, 4, 55, 64
6, 365280, Note_on_c, 4, 64, 80
6, 365280, Note_on_c, 4, 55, 60
6, 365376, Note_off_c, 4, 55, 64
6, 365376, Note_off_c, 4, 64, 64
6, 365520, Note_on_c, 4, 55, 60
6, 365520, Note_on_c, 4, 62, 60
6, 365616, Note_off_c, 4, 62, 64
6, 365616, Note_off_c, 4, 55, 64
6, 365760, Note_on_c, 4, 62, 60
6, 365760, Note_on_c, 4, 55, 60
6, 365856, Note_off_c, 4, 55, 64
6, 365856, Note_off_c, 4, 62, 64
6, 366240, Note_on_c, 4, 62, 80
6, 366240, Note_on_c, 4, 55, 60
6, 366336, Note_off_c, 4, 55, 64
6, 366336, Note_off_c, 4, 62, 64
6, 366480, Note_on_c, 4, 55, 60
6, 366480, Note_on_c, 4, 62, 60
6, 366576, Note_off_c, 4, 62, 64
6, 366576, Note_off_c, 4, 55, 64
6, 366720, Note_on_c, 4, 62, 60
6, 366720, Note_on_c, 4, 55, 60
6, 366816, Note_off_c, 4, 55, 64
6, 366816, Note_off_c, 4, 62, 64
6, 367200, Note_on_c, 4, 55, 90
6, 367200, Note_on_c, 4, 67, 90
6, 368736, Note_off_c, 4, 67, 64
6, 368736, Note_off_c, 4, 55, 64
6, 369120, Note_on_c, 4, 55, 90
6, 369120, Note_on_c, 4, 67, 90
6, 370656, Note_off_c, 4, 67, 64
6, 370656, Note_off_c, 4, 55, 64
6, 371040, Note_on_c, 4, 43, 90
6, 371040, Note_on_c, 4, 55, 90
6, 371040, Note_on_c, 4, 67, 90
6, 372576, Note_off_c, 4, 67, 64
6, 372576, Note_off_c, 4, 55, 64
6, 372576, Note_off_c, 4, 43, 64
6, 372960, Note_on_c, 4, 43, 90
6, 372960, Note_on_c, 4, 67, 90
6, 372960, Note_on_c, 4, 55, 90
6, 374496, Note_off_c, 4, 55, 64
6, 374496, Note_off_c, 4, 67, 64
6, 374496, Note_off_c, 4, 43, 64
6, 374880, Note_on_c, 4, 43, 120
6, 374880, Note_on_c, 4, 55, 120
6, 374880, Note_on_c, 4, 67, 120
6, 374880, Note_on_c, 4, 64, 105
6, 374880, Note_on_c, 4, 60, 105
6, 374976, Note_off_c, 4, 60, 64
6, 374976, Note_off_c, 4, 64, 64
6, 375120, Note_on_c, 4, 55, 105
6, 375120, Note_on_c, 4, 62, 105
6, 375240, Note_off_c, 4, 62, 64
6, 375240, Note_off_c, 4, 55, 64
6, 375240, Note_on_c, 4, 64, 105
6, 375240, Note_on_c, 4, 60, 105
6, 375360, Note_off_c, 4, 60, 64
6, 375360, Note_off_c, 4, 64, 64
6, 375360, Note_on_c, 4, 62, 105
6, 375360, Note_on_c, 4, 65, 127
6, 375456, Note_off_c, 4, 65, 64
6, 375456, Note_off_c, 4, 62, 64
6, 375600, Note_on_c, 4, 64, 105
6, 375600, Note_on_c, 4, 60, 105
6, 375696, Note_off_c, 4, 60, 64
6, 375696, Note_off_c, 4, 64, 64
6, 376416, Note_off_c, 4, 43, 64
6, 376416, Note_off_c, 4, 67, 64
6, 376416, Note_off_c, 4, 55, 64
6, 376800, Note_on_c, 4, 55, 120
6, 376800, Note_on_c, 4, 43, 120
6, 376800, Note_on_c, 4, 67, 120
6, 376800, Note_on_c, 4, 64, 105
6, 376800, Note_on_c, 4, 60, 105
6, 376896, Note_off_c, 4, 60, 64
6, 376896, Note_off_c, 4, 64, 64
6, 377040, Note_on_c, 4, 55, 105
6, 377040, Note_on_c, 4, 62, 105
6, 377160, Note_off_c, 4, 62, 64
6, 377160, Note_off_c, 4, 55, 64
6, 377160, Note_on_c, 4, 64, 105
6, 377160, Note_on_c, 4, 60, 105
6, 377280, Note_off_c, 4, 60, 64
6, 377280, Note_off_c, 4, 64, 64
6, 377280, Note_on_c, 4, 62, 105
6, 377280, Note_on_c, 4, 65, 127
6, 377376, Note_off_c, 4, 65, 64
6, 377376, Note_off_c, 4, 62, 64
6, 377520, Note_on_c, 4, 64, 105
6, 377520, Note_on_c, 4, 60, 105
6, 377616, Note_off_c, 4, 60, 64
6, 377616, Note_off_c, 4, 64, 64
6, 380256, Note_off_c, 4, 43, 64
6, 380256, Note_off_c, 4, 67, 64
6, 380256, Note_off_c, 4, 55, 64
6, 380640, Note_on_c, 4, 43, 60
6, 380640, Note_on_c, 4, 67, 60
6, 380640, Note_on_c, 4, 55, 60
6, 381408, Note_off_c, 4, 55, 64
6, 381408, Note_off_c, 4, 67, 64
6, 381408, Note_off_c, 4, 43, 64
6, 381600, Note_on_c, 4, 43, 60
6, 381600, Note_on_c, 4, 55, 60
6, 381600, Note_on_c, 4, 67, 60
6, 382368, Note_off_c, 4, 67, 64
6, 382368, Note_off_c, 4, 55, 64
6, 382368, Note_off_c, 4, 43, 64
6, 382560, Note_on_c, 4, 67, 60
6, 382560, Note_on_c, 4, 43, 60
6, 382560, Note_on_c, 4, 55, 60
6, 383328, Note_off_c, 4, 55, 64
6, 383328, Note_off_c, 4, 43, 64
6, 383328, Note_off_c, 4, 67, 64
6, 383520, Note_on_c, 4, 67, 60
6, 383520, Note_on_c, 4, 55, 60
6, 383520, Note_on_c, 4, 43, 60
6, 384288, Note_off_c, 4, 43, 64
6, 384288, Note_off_c, 4, 55, 64
6, 384288, Note_off_c, 4, 67, 64
6, 384480, Note_on_c, 4, 67, 60
6, 384480, Note_on_c, 4, 55, 60
6, 384480, Note_on_c, 4, 43, 60
6, 384576, Note_off_c, 4, 43, 64
6, 384576, Note_off_c, 4, 55, 64
6, 384576, Note_off_c, 4, 67, 64
6, 384720, Note_on_c, 4, 67, 60
6, 384720, Note_on_c, 4, 43, 60
6, 384720, Note_on_c, 4, 55, 60
6, 384816, Note_off_c, 4, 55, 64
6, 384816, Note_off_c, 4, 43, 64
6, 384816, Note_off_c, 4, 67, 64
6, 384960, Note_on_c, 4, 67, 60
6, 384960, Note_on_c, 4, 43, 60
6, 384960, Note_on_c, 4, 55, 60
6, 385056, Note_off_c, 4, 55, 64
6, 385056, Note_off_c, 4, 43, 64
6, 385056, Note_off_c, 4, 67, 64
6, 385200, Note_on_c, 4, 43, 60
6, 385200, Note_on_c, 4, 55, 60
6, 385200, Note_on_c, 4, 67, 60
6, 385296, Note_off_c, 4, 67, 64
6, 385296, Note_off_c, 4, 55, 64
6, 385296, Note_off_c, 4, 43, 64
6, 385440, Note_on_c, 4, 67, 60
6, 385440, Note_on_c, 4, 55, 60
6, 385440, Note_on_c, 4, 43, 60
6, 385536, Note_off_c, 4, 43, 64
6, 385536, Note_off_c, 4, 55, 64
6, 385536, Note_off_c, 4, 67, 64
6, 385680, Note_on_c, 4, 55, 60
6, 385680, Note_on_c, 4, 67, 60
6, 385680, Note_on_c, 4, 43, 60
6, 385776, Note_off_c, 4, 43, 64
6, 385776, Note_off_c, 4, 67, 64
6, 385776, Note_off_c, 4, 55, 64
6, 385920, Note_on_c, 4, 55, 60
6, 385920, Note_on_c, 4, 43, 60
6, 385920, Note_on_c, 4, 67, 60
6, 386016, Note_off_c, 4, 67, 64
6, 386016, Note_off_c, 4, 43, 64
6, 386016, Note_off_c, 4, 55, 64
6, 386160, Note_on_c, 4, 67, 60
6, 386160, Note_on_c, 4, 55, 60
6, 386160, Note_on_c, 4, 43, 60
6, 386256, Note_off_c, 4, 43, 64
6, 386256, Note_off_c, 4, 55, 64
6, 386256, Note_off_c, 4, 67, 64
6, 386400, Note_on_c, 4, 55, 60
6, 386400, Note_on_c, 4, 67, 60
6, 386400, Note_on_c, 4, 43, 60
6, 386496, Note_off_c, 4, 43, 64
6, 386496, Note_off_c, 4, 67, 64
6, 386496, Note_off_c, 4, 55, 64
6, 386640, Note_on_c, 4, 55, 60
6, 386640, Note_on_c, 4, 43, 60
6, 386640, Note_on_c, 4, 67, 60
6, 386736, Note_off_c, 4, 67, 64
6, 386736, Note_off_c, 4, 43, 64
6, 386736, Note_off_c, 4, 55, 64
6, 386880, Note_on_c, 4, 67, 60
6, 386880, Note_on_c, 4, 43, 60
6, 386880, Note_on_c, 4, 55, 60
6, 386976, Note_off_c, 4, 55, 64
6, 386976, Note_off_c, 4, 43, 64
6, 386976, Note_off_c, 4, 67, 64
6, 387120, Note_on_c, 4, 67, 60
6, 387120, Note_on_c, 4, 55, 60
6, 387120, Note_on_c, 4, 43, 60
6, 387216, Note_off_c, 4, 43, 64
6, 387216, Note_off_c, 4, 55, 64
6, 387216, Note_off_c, 4, 67, 64
6, 387360, Note_on_c, 4, 55, 60
6, 387360, Note_on_c, 4, 67, 60
6, 387360, Note_on_c, 4, 43, 60
6, 387456, Note_off_c, 4, 43, 64
6, 387456, Note_off_c, 4, 67, 64
6, 387456, Note_off_c, 4, 55, 64
6, 387600, Note_on_c, 4, 43, 60
6, 387600, Note_on_c, 4, 55, 60
6, 387600, Note_on_c, 4, 67, 60
6, 387696, Note_off_c, 4, 67, 64
6, 387696, Note_off_c, 4, 55, 64
6, 387696, Note_off_c, 4, 43, 64
6, 387840, Note_on_c, 4, 67, 60
6, 387840, Note_on_c, 4, 55, 60
6, 387840, Note_on_c, 4, 43, 60
6, 387936, Note_off_c, 4, 43, 64
6, 387936, Note_off_c, 4, 55, 64
6, 387936, Note_off_c, 4, 67, 64
6, 388080, Note_on_c, 4, 55, 60
6, 388080, Note_on_c, 4, 43, 60
6, 388080, Note_on_c, 4, 67, 60
6, 388176, Note_off_c, 4, 67, 64
6, 388176, Note_off_c, 4, 43, 64
6, 388176, Note_off_c, 4, 55, 64
6, 388320, Note_on_c, 4, 67, 60
6, 388320, Note_on_c, 4, 55, 60
6, 388320, Note_on_c, 4, 43, 60
6, 388512, Note_off_c, 4, 43, 64
6, 388512, Note_off_c, 4, 55, 64
6, 388512, Note_off_c, 4, 67, 64
6, 388800, Note_on_c, 4, 62, 80
6, 388800, Note_on_c, 4, 55, 80
6, 392256, Note_off_c, 4, 55, 64
6, 392256, Note_off_c, 4, 62, 64
6, 393600, Note_on_c, 4, 48, 80
6, 393600, Note_on_c, 4, 60, 80
6, 397536, Note_off_c, 4, 60, 64
6, 397536, Note_off_c, 4, 48, 64
6, 398880, Note_on_c, 4, 55, 80
6, 398880, Note_on_c, 4, 62, 80
6, 399072, Note_off_c, 4, 62, 64
6, 399072, Note_off_c, 4, 55, 64
6, 399840, Note_on_c, 4, 60, 80
6, 399840, Note_on_c, 4, 64, 80
6, 400032, Note_off_c, 4, 64, 64
6, 400032, Note_off_c, 4, 60, 64
6, 400800, Note_on_c, 4, 55, 80
6, 400800, Note_on_c, 4, 62, 80
6, 400992, Note_off_c, 4, 62, 64
6, 400992, Note_off_c, 4, 55, 64
6, 402720, Note_on_c, 4, 60, 32
6, 402720, Note_on_c, 4, 48, 32
6, 406176, Note_off_c, 4, 48, 64
6, 406176, Note_off_c, 4, 60, 64
6, 406560, Note_on_c, 4, 62, 32
6, 406560, Note_on_c, 4, 55, 32
6, 406656, Note_off_c, 4, 55, 64
6, 406656, Note_off_c, 4, 62, 64
6, 406800, Note_on_c, 4, 62, 32
6, 406800, Note_on_c, 4, 55, 32
6, 406896, Note_off_c, 4, 55, 64
6, 406896, Note_off_c, 4, 62, 64
6, 407040, Note_on_c, 4, 62, 32
6, 407040, Note_on_c, 4, 55, 32
6, 407136, Note_off_c, 4, 55, 64
6, 407136, Note_off_c, 4, 62, 64
6, 407520, Note_on_c, 4, 60, 32
6, 407520, Note_on_c, 4, 64, 32
6, 407616, Note_off_c, 4, 64, 64
6, 407616, Note_off_c, 4, 60, 64
6, 407760, Note_on_c, 4, 60, 32
6, 407760, Note_on_c, 4, 64, 32
6, 407856, Note_off_c, 4, 64, 64
6, 407856, Note_off_c, 4, 60, 64
6, 408000, Note_on_c, 4, 64, 32
6, 408000, Note_on_c, 4, 60, 32
6, 408096, Note_off_c, 4, 60, 64
6, 408096, Note_off_c, 4, 64, 64
6, 408480, Note_on_c, 4, 62, 32
6, 408480, Note_on_c, 4, 55, 32
6, 408576, Note_off_c, 4, 55, 64
6, 408576, Note_off_c, 4, 62, 64
6, 408720, Note_on_c, 4, 55, 32
6, 408720, Note_on_c, 4, 62, 32
6, 408816, Note_off_c, 4, 62, 64
6, 408816, Note_off_c, 4, 55, 64
6, 408960, Note_on_c, 4, 62, 32
6, 408960, Note_on_c, 4, 55, 32
6, 409056, Note_off_c, 4, 55, 64
6, 409056, Note_off_c, 4, 62, 64
6, 409440, Note_on_c, 4, 48, 27
6, 409440, Note_on_c, 4, 60, 27
6, 413472, Note_off_c, 4, 60, 64
6, 413472, Note_off_c, 4, 48, 64
6, 432480, Note_on_c, 4, 55, 80
6, 432480, Note_on_c, 4, 62, 80
6, 433248, Note_off_c, 4, 62, 64
6, 433248, Note_off_c, 4, 55, 64
6, 433440, Note_on_c, 4, 64, 80
6, 433440, Note_on_c, 4, 60, 80
6, 433536, Note_off_c, 4, 60, 64
6, 433536, Note_off_c, 4, 64, 64
6, 433680, Note_on_c, 4, 64, 80
6, 433680, Note_on_c, 4, 60, 80
6, 433776, Note_off_c, 4, 60, 64
6, 433776, Note_off_c, 4, 64, 64
6, 433920, Note_on_c, 4, 60, 80
6, 433920, Note_on_c, 4, 64, 80
6, 434016, Note_off_c, 4, 64, 64
6, 434016, Note_off_c, 4, 60, 64
6, 434400, Note_on_c, 4, 62, 80
6, 434400, Note_on_c, 4, 55, 80
6, 434400, Note_on_c, 4, 65, 80
6, 434496, Note_off_c, 4, 65, 64
6, 434496, Note_off_c, 4, 55, 64
6, 434496, Note_off_c, 4, 62, 64
6, 434640, Note_on_c, 4, 65, 80
6, 434640, Note_on_c, 4, 55, 80
6, 434640, Note_on_c, 4, 62, 80
6, 434736, Note_off_c, 4, 62, 64
6, 434736, Note_off_c, 4, 55, 64
6, 434736, Note_off_c, 4, 65, 64
6, 434880, Note_on_c, 4, 62, 80
6, 434880, Note_on_c, 4, 55, 80
6, 434880, Note_on_c, 4, 65, 80
6, 434976, Note_off_c, 4, 65, 64
6, 434976, Note_off_c, 4, 55, 64
6, 434976, Note_off_c, 4, 62, 64
6, 435360, Note_on_c, 4, 64, 80
6, 435360, Note_on_c, 4, 60, 80
6, 435456, Note_off_c, 4, 60, 64
6, 435456, Note_off_c, 4, 64, 64
6, 435600, Note_on_c, 4, 64, 80
6, 435600, Note_on_c, 4, 60, 80
6, 435696, Note_off_c, 4, 60, 64
6, 435696, Note_off_c, 4, 64, 64
6, 435840, Note_on_c, 4, 64, 80
6, 435840, Note_on_c, 4, 60, 80
6, 435936, Note_off_c, 4, 60, 64
6, 435936, Note_off_c, 4, 64, 64
6, 436320, Note_on_c, 4, 62, 80
6, 436320, Note_on_c, 4, 55, 80
6, 436320, Note_on_c, 4, 65, 80
6, 436416, Note_off_c, 4, 65, 64
6, 436416, Note_off_c, 4, 55, 64
6, 436416, Note_off_c, 4, 62, 64
6, 436560, Note_on_c, 4, 62, 80
6, 436560, Note_on_c, 4, 55, 80
6, 436560, Note_on_c, 4, 65, 80
6, 436656, Note_off_c, 4, 65, 64
6, 436656, Note_off_c, 4, 55, 64
6, 436656, Note_off_c, 4, 62, 64
6, 436800, Note_on_c, 4, 65, 80
6, 436800, Note_on_c, 4, 55, 80
6, 436800, Note_on_c, 4, 62, 80
6, 436896, Note_off_c, 4, 62, 64
6, 436896, Note_off_c, 4, 55, 64
6, 436896, Note_off_c, 4, 65, 64
6, 437280, Note_on_c, 4, 60, 60
6, 437280, Note_on_c, 4, 52, 60
6, 437376, Note_off_c, 4, 52, 64
6, 437376, Note_off_c, 4, 60, 64
6, 437520, Note_on_c, 4, 52, 60
6, 437520, Note_on_c, 4, 60, 60
6, 437616, Note_off_c, 4, 60, 64
6, 437616, Note_off_c, 4, 52, 64
6, 437760, Note_on_c, 4, 48, 60
6, 437760, Note_on_c, 4, 60, 60
6, 437856, Note_off_c, 4, 60, 64
6, 437856, Note_off_c, 4, 48, 64
6, 438240, Note_on_c, 4, 64, 60
6, 438240, Note_on_c, 4, 52, 60
6, 438336, Note_off_c, 4, 52, 64
6, 438336, Note_off_c, 4, 64, 64
6, 438480, Note_on_c, 4, 52, 60
6, 438480, Note_on_c, 4, 64, 60
6, 438576, Note_off_c, 4, 64, 64
6, 438576, Note_off_c, 4, 52, 64
6, 438720, Note_on_c, 4, 64, 60
6, 438720, Note_on_c, 4, 52, 60
6, 438816, Note_off_c, 4, 52, 64
6, 438816, Note_off_c, 4, 64, 64
6, 439200, Note_on_c, 4, 48, 60
6, 439200, Note_on_c, 4, 60, 60
6, 439296, Note_off_c, 4, 60, 64
6, 439296, Note_off_c, 4, 48, 64
6, 439440, Note_on_c, 4, 48, 60
6, 439440, Note_on_c, 4, 60, 60
6, 439536, Note_off_c, 4, 60, 64
6, 439536, Note_off_c, 4, 48, 64
6, 439680, Note_on_c, 4, 60, 60
6, 439680, Note_on_c, 4, 48, 60
6, 439776, Note_off_c, 4, 48, 64
6, 439776, Note_off_c, 4, 60, 64
6, 440160, Note_on_c, 4, 67, 60
6, 440160, Note_on_c, 4, 55, 60
6, 440256, Note_off_c, 4, 55, 64
6, 440256, Note_off_c, 4, 67, 64
6, 440400, Note_on_c, 4, 55, 60
6, 440400, Note_on_c, 4, 67, 60
6, 440496, Note_off_c, 4, 67, 64
6, 440496, Note_off_c, 4, 55, 64
6, 440640, Note_on_c, 4, 67, 60
6, 440640, Note_on_c, 4, 64, 60
6, 440736, Note_off_c, 4, 64, 64
6, 440736, Note_off_c, 4, 67, 64
6, 441120, Note_on_c, 4, 65, 60
6, 441216, Note_off_c, 4, 65, 64
6, 441360, Note_on_c, 4, 65, 60
6, 441456, Note_off_c, 4, 65, 64
6, 441600, Note_on_c, 4, 65, 60
6, 441600, Note_on_c, 4, 62, 60
6, 441696, Note_off_c, 4, 62, 64
6, 441696, Note_off_c, 4, 65, 64
6, 442080, Note_on_c, 4, 67, 60
6, 442080, Note_on_c, 4, 64, 60
6, 442176, Note_off_c, 4, 64, 64
6, 442176, Note_off_c, 4, 67, 64
6, 442320, Note_on_c, 4, 67, 60
6, 442320, Note_on_c, 4, 64, 60
6, 442416, Note_off_c, 4, 64, 64
6, 442416, Note_off_c, 4, 67, 64
6, 442560, Note_on_c, 4, 52, 60
6, 442560, Note_on_c, 4, 64, 60
6, 442656, Note_off_c, 4, 64, 64
6, 442656, Note_off_c, 4, 52, 64
6, 443040, Note_on_c, 4, 65, 80
6, 443040, Note_on_c, 4, 62, 80
6, 443136, Note_off_c, 4, 62, 64
6, 443136, Note_off_c, 4, 65, 64
6, 443280, Note_on_c, 4, 67, 80
6, 443280, Note_on_c, 4, 55, 80
6, 443376, Note_off_c, 4, 55, 64
6, 443376, Note_off_c, 4, 67, 64
6, 443520, Note_on_c, 4, 64, 80
6, 443520, Note_on_c, 4, 60, 80
6, 443616, Note_off_c, 4, 60, 64
6, 443616, Note_off_c, 4, 64, 64
6, 443760, Note_on_c, 4, 60, 80
6, 443760, Note_on_c, 4, 64, 80
6, 443856, Note_off_c, 4, 64, 64
6, 443856, Note_off_c, 4, 60, 64
6, 444000, Note_on_c, 4, 64, 80
6, 444000, Note_on_c, 4, 60, 80
6, 444096, Note_off_c, 4, 60, 64
6, 444096, Note_off_c, 4, 64, 64
6, 444240, Note_on_c, 4, 62, 80
6, 444240, Note_on_c, 4, 55, 80
6, 444336, Note_off_c, 4, 55, 64
6, 444336, Note_off_c, 4, 62, 64
6, 444480, Note_on_c, 4, 64, 80
6, 444480, Note_on_c, 4, 60, 80
6, 444576, Note_off_c, 4, 60, 64
6, 444576, Note_off_c, 4, 64, 64
6, 444720, Note_on_c, 4, 64, 80
6, 444720, Note_on_c, 4, 60, 80
6, 444816, Note_off_c, 4, 60, 64
6, 444816, Note_off_c, 4, 64, 64
6, 444960, Note_on_c, 4, 48, 75
6, 444960, Note_on_c, 4, 60, 75
6, 445152, Note_off_c, 4, 60, 64
6, 445152, Note_off_c, 4, 48, 64
6, 445440, Note_on_c, 4, 60, 75
6, 445440, Note_on_c, 4, 48, 75
6, 445632, Note_off_c, 4, 48, 64
6, 445632, Note_off_c, 4, 60, 64
6, 445920, Note_on_c, 4, 48, 75
6, 445920, Note_on_c, 4, 60, 75
6, 446112, Note_off_c, 4, 60, 64
6, 446112, Note_off_c, 4, 48, 64
6, 446640, Note_on_c, 4, 48, 75
6, 446640, Note_on_c, 4, 60, 75
6, 446736, Note_off_c, 4, 60, 64
6, 446736, Note_off_c, 4, 48, 64
6, 446880, Note_on_c, 4, 60, 75
6, 446880, Note_on_c, 4, 48, 75
6, 447072, Note_off_c, 4, 48, 64
6, 447072, Note_off_c, 4, 60, 64
6, 447360, Note_on_c, 4, 48, 75
6, 447360, Note_on_c, 4, 60, 75
6, 447552, Note_off_c, 4, 60, 64
6, 447552, Note_off_c, 4, 48, 64
6, 447840, Note_on_c, 4, 48, 75
6, 447840, Note_on_c, 4, 60, 75
6, 448032, Note_off_c, 4, 60, 64
6, 448032, Note_off_c, 4, 48, 64
6, 448560, Note_on_c, 4, 48, 75
6, 448560, Note_on_c, 4, 60, 75
6, 448656, Note_off_c, 4, 60, 64
6, 448656, Note_off_c, 4, 48, 64
6, 448800, Note_on_c, 4, 60, 75
6, 448800, Note_on_c, 4, 48, 75
6, 448992, Note_off_c, 4, 48, 64
6, 448992, Note_off_c, 4, 60, 64
6, 449280, Note_on_c, 4, 48, 75
6, 449280, Note_on_c, 4, 60, 75
6, 449472, Note_off_c, 4, 60, 64
6, 449472, Note_off_c, 4, 48, 64
6, 449760, Note_on_c, 4, 48, 75
6, 449760, Note_on_c, 4, 60, 75
6, 449952, Note_off_c, 4, 60, 64
6, 449952, Note_off_c, 4, 48, 64
6, 450240, Note_on_c, 4, 60, 75
6, 450240, Note_on_c, 4, 48, 75
6, 450336, Note_off_c, 4, 48, 64
6, 450336, Note_off_c, 4, 60, 64
6, 450480, Note_on_c, 4, 60, 75
6, 450480, Note_on_c, 4, 48, 75
6, 450576, Note_off_c, 4, 48, 64
6, 450576, Note_off_c, 4, 60, 64
6, 450720, Note_on_c, 4, 60, 80
6, 450720, Note_on_c, 4, 48, 80
6, 450720, Note_on_c, 4, 64, 80
6, 450912, Note_off_c, 4, 64, 64
6, 450912, Note_off_c, 4, 48, 64
6, 450912, Note_off_c, 4, 60, 64
6, 451200, Note_on_c, 4, 62, 120
6, 451200, Note_on_c, 4, 60, 80
6, 451392, Note_off_c, 4, 60, 64
6, 451392, Note_off_c, 4, 62, 64
6, 451680, Note_on_c, 4, 55, 80
6, 451680, Note_on_c, 4, 62, 80
6, 451872, Note_off_c, 4, 62, 64
6, 451872, Note_off_c, 4, 55, 64
6, 452160, Note_on_c, 4, 62, 80
6, 452160, Note_on_c, 4, 55, 120
6, 452352, Note_off_c, 4, 55, 64
6, 452352, Note_off_c, 4, 62, 64
6, 452640, Note_on_c, 4, 60, 24
6, 452640, Note_on_c, 4, 48, 24
6, 460770, Note_off_c, 4, 48, 64
6, 460770, Note_off_c, 4, 60, 64
6, 460800, Note_on_c, 4, 48, 33
6, 460800, Note_on_c, 4, 60, 33
6, 461700, Note_off_c, 4, 60, 64
6, 461700, Note_off_c, 4, 48, 64
6, 461760, Note_on_c, 4, 48, 38
6, 461760, Note_on_c, 4, 60, 38
6, 462690, Note_off_c, 4, 60, 64
6, 462690, Note_off_c, 4, 48, 64
6, 462720, Note_on_c, 4, 48, 43
6, 462720, Note_on_c, 4, 60, 43
6, 463620, Note_off_c, 4, 60, 64
6, 463620, Note_off_c, 4, 48, 64
6, 463680, Note_on_c, 4, 60, 48
6, 463680, Note_on_c, 4, 48, 48
6, 464610, Note_off_c, 4, 48, 64
6, 464610, Note_off_c, 4, 60, 64
6, 464640, Note_on_c, 4, 60, 53
6, 464640, Note_on_c, 4, 48, 53
6, 465540, Note_off_c, 4, 48, 64
6, 465540, Note_off_c, 4, 60, 64
6, 465600, Note_on_c, 4, 60, 58
6, 465600, Note_on_c, 4, 48, 58
6, 466530, Note_off_c, 4, 48, 64
6, 466530, Note_off_c, 4, 60, 64
6, 466560, Note_on_c, 4, 48, 63
6, 466560, Note_on_c, 4, 60, 63
6, 467460, Note_off_c, 4, 60, 64
6, 467460, Note_off_c, 4, 48, 64
6, 467520, Note_on_c, 4, 48, 68
6, 467520, Note_on_c, 4, 60, 68
6, 468450, Note_off_c, 4, 60, 64
6, 468450, Note_off_c, 4, 48, 64
6, 468480, Note_on_c, 4, 60, 73
6, 468480, Note_on_c, 4, 48, 73
6, 469380, Note_off_c, 4, 48, 64
6, 469380, Note_off_c, 4, 60, 64
6, 469440, Note_on_c, 4, 48, 78
6, 469440, Note_on_c, 4, 60, 78
6, 470370, Note_off_c, 4, 60, 64
6, 470370, Note_off_c, 4, 48, 64
6, 470400, Note_on_c, 4, 60, 83
6, 470400, Note_on_c, 4, 48, 83
6, 471300, Note_off_c, 4, 48, 64
6, 471300, Note_off_c, 4, 60, 64
6, 471360, Note_on_c, 4, 65, 88
6, 472992, Note_off_c, 4, 65, 64
6, 473280, Note_on_c, 4, 65, 80
6, 473664, Note_off_c, 4, 65, 64
6, 473760, Note_on_c, 4, 67, 80
6, 473760, Note_on_c, 4, 60, 80
6, 474144, Note_off_c, 4, 60, 64
6, 474144, Note_off_c, 4, 67, 64
6, 474240, Note_on_c, 4, 60, 80
6, 474240, Note_on_c, 4, 67, 80
6, 474624, Note_off_c, 4, 67, 64
6, 474624, Note_off_c, 4, 60, 64
6, 474720, Note_on_c, 4, 60, 80
6, 474720, Note_on_c, 4, 67, 80
6, 475104, Note_off_c, 4, 67, 64
6, 475104, Note_off_c, 4, 60, 64
6, 475200, Note_on_c, 4, 67, 80
6, 475200, Note_on_c, 4, 60, 80
6, 475584, Note_off_c, 4, 60, 64
6, 475584, Note_off_c, 4, 67, 64
6, 475680, Note_on_c, 4, 65, 80
6, 476832, Note_off_c, 4, 65, 64
6, 477120, Note_on_c, 4, 65, 80
6, 477504, Note_off_c, 4, 65, 64
6, 477600, Note_on_c, 4, 67, 80
6, 477600, Note_on_c, 4, 60, 80
6, 477984, Note_off_c, 4, 60, 64
6, 477984, Note_off_c, 4, 67, 64
6, 478080, Note_on_c, 4, 67, 80
6, 478080, Note_on_c, 4, 60, 80
6, 478464, Note_off_c, 4, 60, 64
6, 478464, Note_off_c, 4, 67, 64
6, 478560, Note_on_c, 4, 65, 80
6, 478656, Note_off_c, 4, 65, 64
6, 478800, Note_on_c, 4, 65, 80
6, 478896, Note_off_c, 4, 65, 64
6, 479040, Note_on_c, 4, 62, 80
6, 479136, Note_off_c, 4, 62, 64
6, 479280, Note_on_c, 4, 62, 80
6, 479376, Note_off_c, 4, 62, 64
6, 479520, Note_on_c, 4, 55, 80
6, 479520, Note_on_c, 4, 62, 80
6, 479904, Note_off_c, 4, 62, 64
6, 479904, Note_off_c, 4, 55, 64
6, 480480, Note_on_c, 4, 67, 80
6, 480480, Note_on_c, 4, 55, 80
6, 481248, Note_off_c, 4, 55, 64
6, 481248, Note_off_c, 4, 67, 64
6, 485280, Note_on_c, 4, 48, 80
6, 485280, Note_on_c, 4, 60, 80
6, 485664, Note_off_c, 4, 60, 64
6, 485664, Note_off_c, 4, 48, 64
6, 485760, Note_on_c, 4, 62, 80
6, 486144, Note_off_c, 4, 62, 64
6, 486240, Note_on_c, 4, 55, 80
6, 486240, Note_on_c, 4, 62, 80
6, 486624, Note_off_c, 4, 62, 64
6, 486624, Note_off_c, 4, 55, 64
6, 486720, Note_on_c, 4, 60, 80
6, 486720, Note_on_c, 4, 64, 80
6, 487104, Note_off_c, 4, 64, 64
6, 487104, Note_off_c, 4, 60, 64
6, 487200, Note_on_c, 4, 55, 80
6, 487200, Note_on_c, 4, 62, 80
6, 487296, Note_off_c, 4, 62, 64
6, 487296, Note_off_c, 4, 55, 64
6, 487440, Note_on_c, 4, 62, 80
6, 487440, Note_on_c, 4, 55, 80
6, 487536, Note_off_c, 4, 55, 64
6, 487536, Note_off_c, 4, 62, 64
6, 487680, Note_on_c, 4, 62, 80
6, 487680, Note_on_c, 4, 55, 80
6, 487776, Note_off_c, 4, 55, 64
6, 487776, Note_off_c, 4, 62, 64
6, 488160, Note_on_c, 4, 60, 80
6, 488160, Note_on_c, 4, 64, 80
6, 488352, Note_off_c, 4, 64, 64
6, 488352, Note_off_c, 4, 60, 64
6, 489120, Note_on_c, 4, 62, 80
6, 489120, Note_on_c, 4, 55, 80
6, 489216, Note_off_c, 4, 55, 64
6, 489216, Note_off_c, 4, 62, 64
6, 489360, Note_on_c, 4, 62, 80
6, 489360, Note_on_c, 4, 55, 80
6, 489456, Note_off_c, 4, 55, 64
6, 489456, Note_off_c, 4, 62, 64
6, 489600, Note_on_c, 4, 62, 80
6, 489600, Note_on_c, 4, 55, 80
6, 489696, Note_off_c, 4, 55, 64
6, 489696, Note_off_c, 4, 62, 64
6, 490080, Note_on_c, 4, 60, 80
6, 490080, Note_on_c, 4, 64, 80
6, 490272, Note_off_c, 4, 64, 64
6, 490272, Note_off_c, 4, 60, 64
6, 491040, Note_on_c, 4, 62, 80
6, 491040, Note_on_c, 4, 55, 80
6, 491040, Note_on_c, 4, 65, 80
6, 491136, Note_off_c, 4, 65, 64
6, 491136, Note_off_c, 4, 55, 64
6, 491136, Note_off_c, 4, 62, 64
6, 491280, Note_on_c, 4, 55, 80
6, 491280, Note_on_c, 4, 65, 80
6, 491280, Note_on_c, 4, 62, 80
6, 491376, Note_off_c, 4, 62, 64
6, 491376, Note_off_c, 4, 65, 64
6, 491376, Note_off_c, 4, 55, 64
6, 491520, Note_on_c, 4, 62, 80
6, 491520, Note_on_c, 4, 55, 80
6, 491520, Note_on_c, 4, 65, 80
6, 491616, Note_off_c, 4, 65, 64
6, 491616, Note_off_c, 4, 55, 64
6, 491616, Note_off_c, 4, 62, 64
6, 492000, Note_on_c, 4, 55, 80
6, 492000, Note_on_c, 4, 60, 80
6, 492000, Note_on_c, 4, 64, 80
6, 492096, Note_off_c, 4, 64, 64
6, 492096, Note_off_c, 4, 60, 64
6, 492096, Note_off_c, 4, 55, 64
6, 492240, Note_on_c, 4, 64, 80
6, 492240, Note_on_c, 4, 60, 80
6, 492240, Note_on_c, 4, 55, 80
6, 492336, Note_off_c, 4, 55, 64
6, 492336, Note_off_c, 4, 60, 64
6, 492336, Note_off_c, 4, 64, 64
6, 492480, Note_on_c, 4, 55, 80
6, 492480, Note_on_c, 4, 64, 80
6, 492480, Note_on_c, 4, 60, 80
6, 492576, Note_off_c, 4, 60, 64
6, 492576, Note_off_c, 4, 64, 64
6, 492576, Note_off_c, 4, 55, 64
6, 492960, Note_on_c, 4, 62, 80
6, 492960, Note_on_c, 4, 55, 80
6, 492960, Note_on_c, 4, 65, 80
6, 493056, Note_off_c, 4, 65, 64
6, 493056, Note_off_c, 4, 55, 64
6, 493056, Note_off_c, 4, 62, 64
6, 493200, Note_on_c, 4, 55, 80
6, 493200, Note_on_c, 4, 62, 80
6, 493200, Note_on_c, 4, 65, 80
6, 493296, Note_off_c, 4, 65, 64
6, 493296, Note_off_c, 4, 62, 64
6, 493296, Note_off_c, 4, 55, 64
6, 493440, Note_on_c, 4, 55, 80
6, 493440, Note_on_c, 4, 65, 80
6, 493440, Note_on_c, 4, 62, 80
6, 493536, Note_off_c, 4, 62, 64
6, 493536, Note_off_c, 4, 65, 64
6, 493536, Note_off_c, 4, 55, 64
6, 493920, Note_on_c, 4, 60, 80
6, 493920, Note_on_c, 4, 64, 80
6, 494112, Note_off_c, 4, 64, 64
6, 494112, Note_off_c, 4, 60, 64
6, 494640, Note_on_c, 4, 65, 80
6, 494640, Note_on_c, 4, 55, 80
6, 494640, Note_on_c, 4, 62, 80
6, 494736, Note_off_c, 4, 62, 64
6, 494736, Note_off_c, 4, 55, 64
6, 494736, Note_off_c, 4, 65, 64
6, 494880, Note_on_c, 4, 64, 80
6, 494880, Note_on_c, 4, 60, 80
6, 495072, Note_off_c, 4, 60, 64
6, 495072, Note_off_c, 4, 64, 64
6, 495600, Note_on_c, 4, 62, 80
6, 495600, Note_on_c, 4, 65, 80
6, 495600, Note_on_c, 4, 55, 80
6, 495696, Note_off_c, 4, 55, 64
6, 495696, Note_off_c, 4, 65, 64
6, 495696, Note_off_c, 4, 62, 64
6, 495840, Note_on_c, 4, 64, 80
6, 495840, Note_on_c, 4, 60, 80
6, 496032, Note_off_c, 4, 60, 64
6, 496032, Note_off_c, 4, 64, 64
6, 496560, Note_on_c, 4, 65, 80
6, 496560, Note_on_c, 4, 55, 80
6, 496560, Note_on_c, 4, 62, 80
6, 496656, Note_off_c, 4, 62, 64
6, 496656, Note_off_c, 4, 55, 64
6, 496656, Note_off_c, 4, 65, 64
6, 496800, Note_on_c, 4, 60, 80
6, 496800, Note_on_c, 4, 64, 80
6, 496992, Note_off_c, 4, 64, 64
6, 496992, Note_off_c, 4, 60, 64
6, 497520, Note_on_c, 4, 62, 80
6, 497520, Note_on_c, 4, 65, 80
6, 497520, Note_on_c, 4, 55, 80
6, 497616, Note_off_c, 4, 55, 64
6, 497616, Note_off_c, 4, 65, 64
6, 497616, Note_off_c, 4, 62, 64
6, 497760, Note_on_c, 4, 64, 80
6, 497760, Note_on_c, 4, 60, 80
6, 497952, Note_off_c, 4, 60, 64
6, 497952, Note_off_c, 4, 64, 64
6, 498480, Note_on_c, 4, 65, 80
6, 498480, Note_on_c, 4, 62, 80
6, 498480, Note_on_c, 4, 55, 80
6, 498576, Note_off_c, 4, 55, 64
6, 498576, Note_off_c, 4, 62, 64
6, 498576, Note_off_c, 4, 65, 64
6, 498720, Note_on_c, 4, 48, 80
6, 498720, Note_on_c, 4, 60, 80
6, 500256, Note_off_c, 4, 60, 64
6, 500256, Note_off_c, 4, 48, 64
6, 500640, Note_on_c, 4, 52, 80
6, 500640, Note_on_c, 4, 64, 80
6, 502176, Note_off_c, 4, 64, 64
6, 502176, Note_off_c, 4, 52, 64
6, 502560, Note_on_c, 4, 67, 80
6, 502560, Note_on_c, 4, 55, 80
6, 502752, Note_off_c, 4, 55, 64
6, 502752, Note_off_c, 4, 67, 64
6, 503040, Note_on_c, 4, 48, 80
6, 503040, Note_on_c, 4, 60, 80
6, 503232, Note_off_c, 4, 60, 64
6, 503232, Note_off_c, 4, 48, 64
6, 503520, Note_on_c, 4, 48, 80
6, 503520, Note_on_c, 4, 60, 80
6, 503712, Note_off_c, 4, 60, 64
6, 503712, Note_off_c, 4, 48, 64
6, 504000, Note_on_c, 4, 60, 80
6, 504000, Note_on_c, 4, 48, 80
6, 504192, Note_off_c, 4, 48, 64
6, 504192, Note_off_c, 4, 60, 64
6, 504480, Note_on_c, 4, 48, 80
6, 504480, Note_on_c, 4, 60, 80
6, 504672, Note_off_c, 4, 60, 64
6, 504672, Note_off_c, 4, 48, 64
6, 504960, Note_on_c, 4, 48, 80
6, 504960, Note_on_c, 4, 60, 80
6, 505152, Note_off_c, 4, 60, 64
6, 505152, Note_off_c, 4, 48, 64
6, 505440, Note_on_c, 4, 48, 80
6, 505440, Note_on_c, 4, 60, 80
6, 505632, Note_off_c, 4, 60, 64
6, 505632, Note_off_c, 4, 48, 64
6, 505920, Note_on_c, 4, 48, 80
6, 505920, Note_on_c, 4, 60, 80
6, 506112, Note_off_c, 4, 60, 64
6, 506112, Note_off_c, 4, 48, 64
6, 506400, Note_on_c, 4, 48, 80
6, 506400, Note_on_c, 4, 60, 80
6, 508282, Note_off_c, 4, 60, 64
6, 508282, Note_off_c, 4, 48, 64
6, 508320, Note_on_c, 4, 55, 56
6, 508320, Note_on_c, 4, 43, 56
6, 508512, Note_off_c, 4, 43, 64
6, 508512, Note_off_c, 4, 55, 64
6, 510240, Control_c, 4, 7, 91
6, 510240, Note_on_c, 4, 60, 80
6, 510240, Note_on_c, 4, 48, 80
6, 510360, Control_c, 4, 7, 90
6, 510440, Control_c, 4, 7, 89
6, 510560, Control_c, 4, 7, 88
6, 510640, Control_c, 4, 7, 87
6, 510760, Control_c, 4, 7, 86
6, 510840, Control_c, 4, 7, 85
6, 510960, Control_c, 4, 7, 84
6, 511040, Control_c, 4, 7, 83
6, 511120, Control_c, 4, 7, 82
6, 511240, Control_c, 4, 7, 81
6, 511320, Control_c, 4, 7, 80
6, 511440, Control_c, 4, 7, 79
6, 511520, Control_c, 4, 7, 78
6, 511640, Control_c, 4, 7, 77
6, 511720, Control_c, 4, 7, 76
6, 511840, Control_c, 4, 7, 75
6, 511920, Control_c, 4, 7, 74
6, 512000, Control_c, 4, 7, 73
6, 512040, Note_off_c, 4, 48, 64
6, 512040, Note_off_c, 4, 60, 64
6, 512120, Control_c, 4, 7, 72
6, 512200, Control_c, 4, 7, 71
6, 512320, Control_c, 4, 7, 70
6, 512400, Control_c, 4, 7, 69
6, 512520, Control_c, 4, 7, 68
6, 512600, Control_c, 4, 7, 67
6, 512720, Control_c, 4, 7, 66
6, 512800, Control_c, 4, 7, 65
6, 512880, Control_c, 4, 7, 64
6, 513000, Control_c, 4, 7, 63
6, 513080, Control_c, 4, 7, 62
6, 513200, Control_c, 4, 7, 61
6, 513280, Control_c, 4, 7, 60
6, 513400, Control_c, 4, 7, 59
6, 513480, Control_c, 4, 7, 58
6, 513560, Control_c, 4, 7, 57
6, 513680, Control_c, 4, 7, 56
6, 513760, Control_c, 4, 7, 55
6, 513880, Control_c, 4, 7, 54
6, 513960, Control_c, 4, 7, 53
6, 514080, Control_c, 4, 7, 52
6, 514160, Control_c, 4, 7, 51
6, 514280, Control_c, 4, 7, 50
6, 514360, Control_c, 4, 7, 49
6, 514440, Control_c, 4, 7, 48
6, 514560, Control_c, 4, 7, 47
6, 514640, Control_c, 4, 7, 46
6, 514760, Control_c, 4, 7, 45
6, 514840, Control_c, 4, 7, 44
6, 514960, Control_c, 4, 7, 43
6, 515040, Control_c, 4, 7, 42
6, 515160, Control_c, 4, 7, 41
6, 515240, Control_c, 4, 7, 40
6, 515320, Control_c, 4, 7, 39
6, 515440, Control_c, 4, 7, 38
6, 515520, Control_c, 4, 7, 37
6, 515640, Control_c, 4, 7, 36
6, 515720, Control_c, 4, 7, 35
6, 515840, Control_c, 4, 7, 34
6, 515920, Control_c, 4, 7, 33
6, 516000, Control_c, 4, 7, 32
6, 516000, Note_on_c, 4, 60, 64
6, 516000, Note_on_c, 4, 48, 64
6, 516080, Control_c, 4, 7, 33
6, 516160, Control_c, 4, 7, 34
6, 516240, Control_c, 4, 7, 35
6, 516280, Control_c, 4, 7, 36
6, 516360, Control_c, 4, 7, 37
6, 516440, Control_c, 4, 7, 38
6, 516480, Control_c, 4, 7, 39
6, 516560, Control_c, 4, 7, 40
6, 516640, Control_c, 4, 7, 41
6, 516680, Control_c, 4, 7, 42
6, 516760, Control_c, 4, 7, 43
6, 516840, Control_c, 4, 7, 44
6, 516880, Control_c, 4, 7, 45
6, 516960, Control_c, 4, 7, 46
6, 517040, Control_c, 4, 7, 47
6, 517080, Control_c, 4, 7, 48
6, 517160, Control_c, 4, 7, 49
6, 517240, Control_c, 4, 7, 50
6, 517280, Control_c, 4, 7, 51
6, 517360, Control_c, 4, 7, 52
6, 517440, Control_c, 4, 7, 53
6, 517520, Control_c, 4, 7, 54
6, 517536, Note_off_c, 4, 48, 64
6, 517536, Note_off_c, 4, 60, 64
6, 517560, Control_c, 4, 7, 55
6, 517640, Control_c, 4, 7, 56
6, 517720, Control_c, 4, 7, 57
6, 517760, Control_c, 4, 7, 58
6, 517840, Control_c, 4, 7, 59
6, 517920, Control_c, 4, 7, 60
6, 517920, Note_on_c, 4, 55, 64
6, 517920, Note_on_c, 4, 62, 64
6, 517960, Control_c, 4, 7, 61
6, 518040, Control_c, 4, 7, 62
6, 518120, Control_c, 4, 7, 63
6, 518160, Control_c, 4, 7, 64
6, 518240, Control_c, 4, 7, 65
6, 518320, Control_c, 4, 7, 66
6, 518360, Control_c, 4, 7, 67
6, 518440, Control_c, 4, 7, 68
6, 518520, Control_c, 4, 7, 69
6, 518560, Control_c, 4, 7, 70
6, 518640, Control_c, 4, 7, 71
6, 518720, Control_c, 4, 7, 72
6, 518800, Control_c, 4, 7, 73
6, 518840, Control_c, 4, 7, 74
6, 518920, Control_c, 4, 7, 75
6, 519000, Control_c, 4, 7, 76
6, 519040, Control_c, 4, 7, 77
6, 519120, Control_c, 4, 7, 78
6, 519200, Control_c, 4, 7, 79
6, 519240, Control_c, 4, 7, 80
6, 519320, Control_c, 4, 7, 81
6, 519400, Control_c, 4, 7, 82
6, 519440, Control_c, 4, 7, 83
6, 519456, Note_off_c, 4, 62, 64
6, 519456, Note_off_c, 4, 55, 64
6, 519520, Control_c, 4, 7, 84
6, 519600, Control_c, 4, 7, 85
6, 519640, Control_c, 4, 7, 86
6, 519720, Control_c, 4, 7, 87
6, 519800, Control_c, 4, 7, 88
6, 519840, Control_c, 4, 7, 89
6, 519840, Note_on_c, 4, 55, 80
6, 519840, Note_on_c, 4, 67, 80
6, 519936, Note_off_c, 4, 67, 64
6, 519936, Note_off_c, 4, 55, 64
6, 520080, Note_on_c, 4, 62, 80
6, 520080, Note_on_c, 4, 55, 80
6, 520176, Note_off_c, 4, 55, 64
6, 520176, Note_off_c, 4, 62, 64
6, 520320, Note_on_c, 4, 62, 80
6, 520320, Note_on_c, 4, 55, 80
6, 520416, Note_off_c, 4, 55, 64
6, 520416, Note_off_c, 4, 62, 64
6, 520560, Note_on_c, 4, 55, 80
6, 520560, Note_on_c, 4, 67, 80
6, 520656, Note_off_c, 4, 67, 64
6, 520656, Note_off_c, 4, 55, 64
6, 520800, Note_on_c, 4, 67, 80
6, 520800, Note_on_c, 4, 55, 80
6, 520896, Note_off_c, 4, 55, 64
6, 520896, Note_off_c, 4, 67, 64
6, 521040, Note_on_c, 4, 60, 80
6, 521040, Note_on_c, 4, 52, 80
6, 521136, Note_off_c, 4, 52, 64
6, 521136, Note_off_c, 4, 60, 64
6, 521280, Note_on_c, 4, 60, 80
6, 521280, Note_on_c, 4, 64, 80
6, 521376, Note_off_c, 4, 64, 64
6, 521376, Note_off_c, 4, 60, 64
6, 521520, Note_on_c, 4, 55, 80
6, 521520, Note_on_c, 4, 67, 80
6, 521616, Note_off_c, 4, 67, 64
6, 521616, Note_off_c, 4, 55, 64
6, 521760, Note_on_c, 4, 67, 80
6, 521760, Note_on_c, 4, 55, 80
6, 521856, Note_off_c, 4, 55, 64
6, 521856, Note_off_c, 4, 67, 64
6, 522000, Note_on_c, 4, 62, 80
6, 522000, Note_on_c, 4, 55, 80
6, 522096, Note_off_c, 4, 55, 64
6, 522096, Note_off_c, 4, 62, 64
6, 522240, Note_on_c, 4, 65, 80
6, 522240, Note_on_c, 4, 62, 80
6, 522336, Note_off_c, 4, 62, 64
6, 522336, Note_off_c, 4, 65, 64
6, 522480, Note_on_c, 4, 55, 80
6, 522480, Note_on_c, 4, 67, 80
6, 522576, Note_off_c, 4, 67, 64
6, 522576, Note_off_c, 4, 55, 64
6, 522720, Note_on_c, 4, 67, 80
6, 522720, Note_on_c, 4, 55, 80
6, 522816, Note_off_c, 4, 55, 64
6, 522816, Note_off_c, 4, 67, 64
6, 522960, Note_on_c, 4, 60, 80
6, 522960, Note_on_c, 4, 52, 80
6, 523056, Note_off_c, 4, 52, 64
6, 523056, Note_off_c, 4, 60, 64
6, 523200, Note_on_c, 4, 60, 80
6, 523200, Note_on_c, 4, 64, 80
6, 523296, Note_off_c, 4, 64, 64
6, 523296, Note_off_c, 4, 60, 64
6, 523440, Note_on_c, 4, 55, 80
6, 523440, Note_on_c, 4, 67, 80
6, 523536, Note_off_c, 4, 67, 64
6, 523536, Note_off_c, 4, 55, 64
6, 523680, Note_on_c, 4, 67, 80
6, 523680, Note_on_c, 4, 55, 80
6, 523776, Note_off_c, 4, 55, 64
6, 523776, Note_off_c, 4, 67, 64
6, 523920, Note_on_c, 4, 62, 80
6, 523920, Note_on_c, 4, 55, 80
6, 524016, Note_off_c, 4, 55, 64
6, 524016, Note_off_c, 4, 62, 64
6, 524160, Note_on_c, 4, 55, 80
6, 524160, Note_on_c, 4, 62, 80
6, 524256, Note_off_c, 4, 62, 64
6, 524256, Note_off_c, 4, 55, 64
6, 524400, Note_on_c, 4, 67, 80
6, 524400, Note_on_c, 4, 55, 80
6, 524496, Note_off_c, 4, 55, 64
6, 524496, Note_off_c, 4, 67, 64
6, 524640, Note_on_c, 4, 67, 80
6, 524640, Note_on_c, 4, 55, 80
6, 524736, Note_off_c, 4, 55, 64
6, 524736, Note_off_c, 4, 67, 64
6, 524880, Note_on_c, 4, 60, 80
6, 524880, Note_on_c, 4, 52, 80
6, 524976, Note_off_c, 4, 52, 64
6, 524976, Note_off_c, 4, 60, 64
6, 525120, Note_on_c, 4, 60, 80
6, 525120, Note_on_c, 4, 64, 80
6, 525216, Note_off_c, 4, 64, 64
6, 525216, Note_off_c, 4, 60, 64
6, 525360, Note_on_c, 4, 67, 80
6, 525360, Note_on_c, 4, 55, 80
6, 525456, Note_off_c, 4, 55, 64
6, 525456, Note_off_c, 4, 67, 64
6, 525600, Note_on_c, 4, 55, 80
6, 525600, Note_on_c, 4, 67, 80
6, 525696, Note_off_c, 4, 67, 64
6, 525696, Note_off_c, 4, 55, 64
6, 525840, Note_on_c, 4, 62, 80
6, 525840, Note_on_c, 4, 55, 80
6, 525936, Note_off_c, 4, 55, 64
6, 525936, Note_off_c, 4, 62, 64
6, 526080, Note_on_c, 4, 62, 80
6, 526080, Note_on_c, 4, 65, 80
6, 526176, Note_off_c, 4, 65, 64
6, 526176, Note_off_c, 4, 62, 64
6, 526320, Note_on_c, 4, 67, 80
6, 526320, Note_on_c, 4, 55, 80
6, 526416, Note_off_c, 4, 55, 64
6, 526416, Note_off_c, 4, 67, 64
6, 526560, Note_on_c, 4, 67, 80
6, 526560, Note_on_c, 4, 55, 80
6, 526656, Note_off_c, 4, 55, 64
6, 526656, Note_off_c, 4, 67, 64
6, 526800, Note_on_c, 4, 60, 80
6, 526800, Note_on_c, 4, 52, 80
6, 526896, Note_off_c, 4, 52, 64
6, 526896, Note_off_c, 4, 60, 64
6, 527040, Note_on_c, 4, 60, 80
6, 527040, Note_on_c, 4, 64, 80
6, 527136, Note_off_c, 4, 64, 64
6, 527136, Note_off_c, 4, 60, 64
6, 527280, Note_on_c, 4, 67, 80
6, 527280, Note_on_c, 4, 55, 80
6, 527376, Note_off_c, 4, 55, 64
6, 527376, Note_off_c, 4, 67, 64
6, 527520, Note_on_c, 4, 67, 80
6, 527520, Note_on_c, 4, 55, 80
6, 527616, Note_off_c, 4, 55, 64
6, 527616, Note_off_c, 4, 67, 64
6, 527760, Note_on_c, 4, 62, 80
6, 527760, Note_on_c, 4, 55, 80
6, 527856, Note_off_c, 4, 55, 64
6, 527856, Note_off_c, 4, 62, 64
6, 528000, Note_on_c, 4, 55, 80
6, 528000, Note_on_c, 4, 62, 80
6, 528096, Note_off_c, 4, 62, 64
6, 528096, Note_off_c, 4, 55, 64
6, 528240, Note_on_c, 4, 67, 80
6, 528240, Note_on_c, 4, 55, 80
6, 528336, Note_off_c, 4, 55, 64
6, 528336, Note_off_c, 4, 67, 64
6, 528480, Note_on_c, 4, 67, 80
6, 528480, Note_on_c, 4, 55, 80
6, 528576, Note_off_c, 4, 55, 64
6, 528576, Note_off_c, 4, 67, 64
6, 528720, Note_on_c, 4, 60, 80
6, 528720, Note_on_c, 4, 52, 80
6, 528816, Note_off_c, 4, 52, 64
6, 528816, Note_off_c, 4, 60, 64
6, 528960, Note_on_c, 4, 60, 80
6, 528960, Note_on_c, 4, 64, 80
6, 529056, Note_off_c, 4, 64, 64
6, 529056, Note_off_c, 4, 60, 64
6, 529200, Note_on_c, 4, 67, 80
6, 529200, Note_on_c, 4, 55, 80
6, 529296, Note_off_c, 4, 55, 64
6, 529296, Note_off_c, 4, 67, 64
6, 529440, Note_on_c, 4, 55, 80
6, 529440, Note_on_c, 4, 67, 80
6, 529536, Note_off_c, 4, 67, 64
6, 529536, Note_off_c, 4, 55, 64
6, 529680, Note_on_c, 4, 62, 80
6, 529680, Note_on_c, 4, 55, 80
6, 529776, Note_off_c, 4, 55, 64
6, 529776, Note_off_c, 4, 62, 64
6, 529920, Note_on_c, 4, 62, 80
6, 529920, Note_on_c, 4, 65, 80
6, 530016, Note_off_c, 4, 65, 64
6, 530016, Note_off_c, 4, 62, 64
6, 530160, Note_on_c, 4, 67, 80
6, 530160, Note_on_c, 4, 55, 80
6, 530256, Note_off_c, 4, 55, 64
6, 530256, Note_off_c, 4, 67, 64
6, 530400, Note_on_c, 4, 67, 80
6, 530400, Note_on_c, 4, 55, 80
6, 530496, Note_off_c, 4, 55, 64
6, 530496, Note_off_c, 4, 67, 64
6, 530640, Note_on_c, 4, 60, 80
6, 530640, Note_on_c, 4, 52, 80
6, 530736, Note_off_c, 4, 52, 64
6, 530736, Note_off_c, 4, 60, 64
6, 530880, Note_on_c, 4, 60, 80
6, 530880, Note_on_c, 4, 64, 80
6, 530976, Note_off_c, 4, 64, 64
6, 530976, Note_off_c, 4, 60, 64
6, 531120, Note_on_c, 4, 67, 80
6, 531120, Note_on_c, 4, 55, 80
6, 531216, Note_off_c, 4, 55, 64
6, 531216, Note_off_c, 4, 67, 64
6, 531360, Note_on_c, 4, 67, 80
6, 531360, Note_on_c, 4, 55, 80
6, 531456, Note_off_c, 4, 55, 64
6, 531456, Note_off_c, 4, 67, 64
6, 531600, Note_on_c, 4, 62, 80
6, 531600, Note_on_c, 4, 55, 80
6, 531696, Note_off_c, 4, 55, 64
6, 531696, Note_off_c, 4, 62, 64
6, 531840, Note_on_c, 4, 55, 80
6, 531840, Note_on_c, 4, 62, 80
6, 531936, Note_off_c, 4, 62, 64
6, 531936, Note_off_c, 4, 55, 64
6, 532080, Note_on_c, 4, 67, 80
6, 532080, Note_on_c, 4, 55, 80
6, 532176, Note_off_c, 4, 55, 64
6, 532176, Note_off_c, 4, 67, 64
6, 532320, Note_on_c, 4, 67, 80
6, 532320, Note_on_c, 4, 55, 80
6, 532416, Note_off_c, 4, 55, 64
6, 532416, Note_off_c, 4, 67, 64
6, 532560, Note_on_c, 4, 60, 80
6, 532560, Note_on_c, 4, 52, 80
6, 532656, Note_off_c, 4, 52, 64
6, 532656, Note_off_c, 4, 60, 64
6, 532800, Note_on_c, 4, 60, 80
6, 532800, Note_on_c, 4, 64, 80
6, 532896, Note_off_c, 4, 64, 64
6, 532896, Note_off_c, 4, 60, 64
6, 533040, Note_on_c, 4, 67, 80
6, 533040, Note_on_c, 4, 55, 80
6, 533136, Note_off_c, 4, 55, 64
6, 533136, Note_off_c, 4, 67, 64
6, 533520, Note_on_c, 4, 52, 80
6, 533520, Note_on_c, 4, 64, 80
6, 533616, Note_off_c, 4, 64, 64
6, 533616, Note_off_c, 4, 52, 64
6, 533760, Note_on_c, 4, 64, 80
6, 533760, Note_on_c, 4, 52, 80
6, 533856, Note_off_c, 4, 52, 64
6, 533856, Note_off_c, 4, 64, 64
6, 534480, Note_on_c, 4, 52, 80
6, 534480, Note_on_c, 4, 64, 80
6, 534720, Note_off_c, 4, 64, 64
6, 534720, Note_off_c, 4, 52, 64
6, 534720, Note_on_c, 4, 55, 80
6, 534720, Note_on_c, 4, 67, 80
6, 534816, Note_off_c, 4, 67, 64
6, 534816, Note_off_c, 4, 55, 64
6, 534960, Note_on_c, 4, 55, 80
6, 534960, Note_on_c, 4, 67, 80
6, 535056, Note_off_c, 4, 67, 64
6, 535056, Note_off_c, 4, 55, 64
6, 535200, Note_on_c, 4, 55, 56
6, 535200, Note_on_c, 4, 67, 56
6, 535968, Note_off_c, 4, 67, 64
6, 535968, Note_off_c, 4, 55, 64
6, 536160, Note_on_c, 4, 64, 56
6, 536160, Note_on_c, 4, 52, 56
6, 536928, Note_off_c, 4, 52, 64
6, 536928, Note_off_c, 4, 64, 64
6, 537120, Note_on_c, 4, 48, 56
6, 537120, Note_on_c, 4, 60, 56
6, 537888, Note_off_c, 4, 60, 64
6, 537888, Note_off_c, 4, 48, 64
6, 538080, Note_on_c, 4, 55, 56
6, 538080, Note_on_c, 4, 43, 56
6, 538848, Note_off_c, 4, 43, 64
6, 538848, Note_off_c, 4, 55, 64
6, 539040, Note_on_c, 4, 52, 56
6, 539040, Note_on_c, 4, 64, 56
6, 539808, Note_off_c, 4, 64, 64
6, 539808, Note_off_c, 4, 52, 64
6, 540000, Note_on_c, 4, 48, 56
6, 540000, Note_on_c, 4, 60, 56
6, 540768, Note_off_c, 4, 60, 64
6, 540768, Note_off_c, 4, 48, 64
6, 540960, Note_on_c, 4, 52, 56
6, 540960, Note_on_c, 4, 64, 56
6, 541728, Note_off_c, 4, 64, 64
6, 541728, Note_off_c, 4, 52, 64
6, 541920, Note_on_c, 4, 67, 56
6, 541920, Note_on_c, 4, 55, 56
6, 542688, Note_off_c, 4, 55, 64
6, 542688, Note_off_c, 4, 67, 64
6, 542880, Note_on_c, 4, 60, 56
6, 542880, Note_on_c, 4, 72, 56
6, 543648, Note_off_c, 4, 72, 64
6, 543648, Note_off_c, 4, 60, 64
6, 543840, Note_on_c, 4, 64, 56
6, 543840, Note_on_c, 4, 52, 56
6, 544608, Note_off_c, 4, 52, 64
6, 544608, Note_off_c, 4, 64, 64
6, 544800, Note_on_c, 4, 55, 80
6, 544800, Note_on_c, 4, 67, 80
6, 546336, Note_off_c, 4, 67, 64
6, 546336, Note_off_c, 4, 55, 64
6, 546720, Note_on_c, 4, 64, 80
6, 546720, Note_on_c, 4, 60, 80
6, 546912, Note_off_c, 4, 60, 64
6, 546912, Note_off_c, 4, 64, 64
6, 547200, Note_on_c, 4, 55, 80
6, 547200, Note_on_c, 4, 62, 80
6, 547296, Note_off_c, 4, 62, 64
6, 547296, Note_off_c, 4, 55, 64
6, 547440, Note_on_c, 4, 60, 80
6, 547440, Note_on_c, 4, 64, 80
6, 547536, Note_off_c, 4, 64, 64
6, 547536, Note_off_c, 4, 60, 64
6, 547680, Note_on_c, 4, 64, 80
6, 547680, Note_on_c, 4, 60, 80
6, 547872, Note_off_c, 4, 60, 64
6, 547872, Note_off_c, 4, 64, 64
6, 548160, Note_on_c, 4, 55, 80
6, 548160, Note_on_c, 4, 62, 80
6, 548256, Note_off_c, 4, 62, 64
6, 548256, Note_off_c, 4, 55, 64
6, 548400, Note_on_c, 4, 64, 80
6, 548400, Note_on_c, 4, 60, 80
6, 548496, Note_off_c, 4, 60, 64
6, 548496, Note_off_c, 4, 64, 64
6, 548640, Note_on_c, 4, 67, 80
6, 548640, Note_on_c, 4, 55, 80
6, 550176, Note_off_c, 4, 55, 64
6, 550176, Note_off_c, 4, 67, 64
6, 550560, Note_on_c, 4, 64, 80
6, 550560, Note_on_c, 4, 60, 80
6, 550752, Note_off_c, 4, 60, 64
6, 550752, Note_off_c, 4, 64, 64
6, 551040, Note_on_c, 4, 55, 80
6, 551040, Note_on_c, 4, 62, 80
6, 551136, Note_off_c, 4, 62, 64
6, 551136, Note_off_c, 4, 55, 64
6, 551280, Note_on_c, 4, 60, 80
6, 551280, Note_on_c, 4, 64, 80
6, 551376, Note_off_c, 4, 64, 64
6, 551376, Note_off_c, 4, 60, 64
6, 551520, Note_on_c, 4, 64, 80
6, 551520, Note_on_c, 4, 60, 80
6, 551712, Note_off_c, 4, 60, 64
6, 551712, Note_off_c, 4, 64, 64
6, 552000, Note_on_c, 4, 55, 80
6, 552000, Note_on_c, 4, 62, 80
6, 552096, Note_off_c, 4, 62, 64
6, 552096, Note_off_c, 4, 55, 64
6, 552240, Note_on_c, 4, 64, 80
6, 552240, Note_on_c, 4, 60, 80
6, 552336, Note_off_c, 4, 60, 64
6, 552336, Note_off_c, 4, 64, 64
6, 552480, Note_on_c, 4, 67, 80
6, 552480, Note_on_c, 4, 55, 80
6, 554016, Note_off_c, 4, 55, 64
6, 554016, Note_off_c, 4, 67, 64
6, 554400, Note_on_c, 4, 60, 80
6, 554400, Note_on_c, 4, 64, 80
6, 554592, Note_off_c, 4, 64, 64
6, 554592, Note_off_c, 4, 60, 64
6, 554880, Note_on_c, 4, 62, 80
6, 554880, Note_on_c, 4, 55, 80
6, 554976, Note_off_c, 4, 55, 64
6, 554976, Note_off_c, 4, 62, 64
6, 555120, Note_on_c, 4, 60, 80
6, 555120, Note_on_c, 4, 64, 80
6, 555216, Note_off_c, 4, 64, 64
6, 555216, Note_off_c, 4, 60, 64
6, 555360, Note_on_c, 4, 64, 80
6, 555360, Note_on_c, 4, 60, 80
6, 555552, Note_off_c, 4, 60, 64
6, 555552, Note_off_c, 4, 64, 64
6, 555840, Note_on_c, 4, 55, 80
6, 555840, Note_on_c, 4, 62, 80
6, 555936, Note_off_c, 4, 62, 64
6, 555936, Note_off_c, 4, 55, 64
6, 556080, Note_on_c, 4, 60, 80
6, 556080, Note_on_c, 4, 64, 80
6, 556176, Note_off_c, 4, 64, 64
6, 556176, Note_off_c, 4, 60, 64
6, 556320, Note_on_c, 4, 48, 80
6, 556320, Note_on_c, 4, 60, 80
6, 556512, Note_off_c, 4, 60, 64
6, 556512, Note_off_c, 4, 48, 64
6, 556800, Note_on_c, 4, 48, 80
6, 556800, Note_on_c, 4, 60, 80
6, 556896, Note_off_c, 4, 60, 64
6, 556896, Note_off_c, 4, 48, 64
6, 557040, Note_on_c, 4, 48, 80
6, 557040, Note_on_c, 4, 60, 80
6, 557136, Note_off_c, 4, 60, 64
6, 557136, Note_off_c, 4, 48, 64
6, 557280, Note_on_c, 4, 48, 80
6, 557280, Note_on_c, 4, 60, 80
6, 557472, Note_off_c, 4, 60, 64
6, 557472, Note_off_c, 4, 48, 64
6, 557760, Note_on_c, 4, 60, 80
6, 557760, Note_on_c, 4, 48, 80
6, 557856, Note_off_c, 4, 48, 64
6, 557856, Note_off_c, 4, 60, 64
6, 558000, Note_on_c, 4, 60, 80
6, 558000, Note_on_c, 4, 48, 80
6, 558096, Note_off_c, 4, 48, 64
6, 558096, Note_off_c, 4, 60, 64
6, 558240, Note_on_c, 4, 60, 80
6, 558240, Note_on_c, 4, 48, 80
6, 558432, Note_off_c, 4, 48, 64
6, 558432, Note_off_c, 4, 60, 64
6, 558720, Note_on_c, 4, 60, 80
6, 558720, Note_on_c, 4, 48, 80
6, 558816, Note_off_c, 4, 48, 64
6, 558816, Note_off_c, 4, 60, 64
6, 558960, Note_on_c, 4, 60, 80
6, 558960, Note_on_c, 4, 48, 80
6, 559056, Note_off_c, 4, 48, 64
6, 559056, Note_off_c, 4, 60, 64
6, 559200, Note_on_c, 4, 48, 80
6, 559200, Note_on_c, 4, 60, 80
6, 559392, Note_off_c, 4, 60, 64
6, 559392, Note_off_c, 4, 48, 64
6, 559680, Note_on_c, 4, 60, 80
6, 559680, Note_on_c, 4, 48, 80
6, 559776, Note_off_c, 4, 48, 64
6, 559776, Note_off_c, 4, 60, 64
6, 559920, Note_on_c, 4, 48, 80
6, 559920, Note_on_c, 4, 60, 80
6, 560016, Note_off_c, 4, 60, 64
6, 560016, Note_off_c, 4, 48, 64
6, 560160, Note_on_c, 4, 60, 80
6, 560160, Note_on_c, 4, 48, 80
6, 560352, Note_off_c, 4, 48, 64
6, 560352, Note_off_c, 4, 60, 64
6, 561120, Note_on_c, 4, 60, 80
6, 561120, Note_on_c, 4, 48, 80
6, 561312, Note_off_c, 4, 48, 64
6, 561312, Note_off_c, 4, 60, 64
6, 562320, Note_on_c, 4, 48, 80
6, 562320, Note_on_c, 4, 60, 80
6, 566352, Note_off_c, 4, 60, 64
6, 566352, Note_off_c, 4, 48, 64
6, 566352, End_track
7, 0, Start_track
7, 0, Title_t, "Trumpets"
7, 0, MIDI_port, 0
7, 0, Channel_prefix, 5
7, 0, Control_c, 5, 7, 88
7, 0, Control_c, 5, 10, 110
7, 0, Program_c, 5, 61
7, 480, Program_c, 5, 61
7, 480, Control_c, 5, 7, 90
7, 480, Control_c, 5, 10, 91
7, 480, Control_c, 5, 93, 85
7, 480, Control_c, 5, 91, 85
7, 5760, Note_on_c, 5, 72, 72
7, 5760, Note_on_c, 5, 60, 72
7, 5904, Note_off_c, 5, 60, 64
7, 5904, Note_off_c, 5, 72, 64
7, 7680, Note_on_c, 5, 67, 72
7, 7680, Note_on_c, 5, 55, 72
7, 7824, Note_off_c, 5, 55, 64
7, 7824, Note_off_c, 5, 67, 64
7, 9600, Note_on_c, 5, 60, 72
7, 9600, Note_on_c, 5, 72, 72
7, 9744, Note_off_c, 5, 72, 64
7, 9744, Note_off_c, 5, 60, 64
7, 10560, Note_on_c, 5, 72, 72
7, 10560, Note_on_c, 5, 60, 72
7, 10704, Note_off_c, 5, 60, 64
7, 10704, Note_off_c, 5, 72, 64
7, 11520, Note_on_c, 5, 55, 72
7, 11520, Note_on_c, 5, 67, 72
7, 11664, Note_off_c, 5, 67, 64
7, 11664, Note_off_c, 5, 55, 64
7, 12360, Note_on_c, 5, 55, 36
7, 12360, Note_on_c, 5, 67, 36
7, 12420, Note_off_c, 5, 67, 64
7, 12420, Note_off_c, 5, 55, 64
7, 12480, Note_on_c, 5, 55, 36
7, 12480, Note_on_c, 5, 67, 36
7, 12840, Note_off_c, 5, 67, 64
7, 12840, Note_off_c, 5, 55, 64
7, 12960, Note_on_c, 5, 67, 36
7, 12960, Note_on_c, 5, 55, 36
7, 13320, Note_off_c, 5, 55, 64
7, 13320, Note_off_c, 5, 67, 64
7, 13440, Note_on_c, 5, 55, 36
7, 13440, Note_on_c, 5, 64, 36
7, 13824, Note_off_c, 5, 64, 64
7, 13824, Note_off_c, 5, 55, 64
7, 14280, Note_on_c, 5, 60, 36
7, 14376, Note_off_c, 5, 60, 64
7, 14400, Note_on_c, 5, 60, 36
7, 14592, Note_off_c, 5, 60, 64
7, 14880, Note_on_c, 5, 55, 36
7, 15072, Note_off_c, 5, 55, 64
7, 15360, Note_on_c, 5, 55, 36
7, 15552, Note_off_c, 5, 55, 64
7, 15840, Note_on_c, 5, 55, 36
7, 16020, Note_off_c, 5, 55, 64
7, 16200, Note_on_c, 5, 55, 36
7, 16296, Note_off_c, 5, 55, 64
7, 16320, Note_on_c, 5, 55, 36
7, 16512, Note_off_c, 5, 55, 64
7, 16800, Note_on_c, 5, 55, 31
7, 16992, Note_off_c, 5, 55, 64
7, 17280, Note_on_c, 5, 67, 29
7, 17280, Note_on_c, 5, 55, 29
7, 17664, Note_off_c, 5, 55, 64
7, 17664, Note_off_c, 5, 67, 64
7, 18120, Note_on_c, 5, 67, 29
7, 18120, Note_on_c, 5, 55, 29
7, 18216, Note_off_c, 5, 55, 64
7, 18216, Note_off_c, 5, 67, 64
7, 18240, Note_on_c, 5, 55, 29
7, 18240, Note_on_c, 5, 67, 29
7, 18432, Note_off_c, 5, 67, 64
7, 18432, Note_off_c, 5, 55, 64
7, 18720, Note_on_c, 5, 67, 29
7, 18720, Note_on_c, 5, 55, 29
7, 18912, Note_off_c, 5, 55, 64
7, 18912, Note_off_c, 5, 67, 64
7, 19200, Note_on_c, 5, 67, 29
7, 19200, Note_on_c, 5, 55, 29
7, 19392, Note_off_c, 5, 55, 64
7, 19392, Note_off_c, 5, 67, 64
7, 19680, Note_on_c, 5, 55, 29
7, 19680, Note_on_c, 5, 67, 29
7, 19860, Note_off_c, 5, 67, 64
7, 19860, Note_off_c, 5, 55, 64
7, 20040, Note_on_c, 5, 67, 29
7, 20040, Note_on_c, 5, 55, 29
7, 20136, Note_off_c, 5, 55, 64
7, 20136, Note_off_c, 5, 67, 64
7, 20160, Note_on_c, 5, 67, 25
7, 20160, Note_on_c, 5, 55, 25
7, 20352, Note_off_c, 5, 55, 64
7, 20352, Note_off_c, 5, 67, 64
7, 20640, Note_on_c, 5, 55, 29
7, 20640, Note_on_c, 5, 67, 29
7, 20820, Note_off_c, 5, 67, 64
7, 20820, Note_off_c, 5, 55, 64
7, 21000, Note_on_c, 5, 67, 29
7, 21000, Note_on_c, 5, 55, 29
7, 21096, Note_off_c, 5, 55, 64
7, 21096, Note_off_c, 5, 67, 64
7, 21120, Note_on_c, 5, 67, 29
7, 21120, Note_on_c, 5, 55, 29
7, 21312, Note_off_c, 5, 55, 64
7, 21312, Note_off_c, 5, 67, 64
7, 21600, Note_on_c, 5, 55, 29
7, 21600, Note_on_c, 5, 67, 29
7, 21792, Note_off_c, 5, 67, 64
7, 21792, Note_off_c, 5, 55, 64
7, 22560, Note_on_c, 5, 72, 29
7, 22560, Note_on_c, 5, 60, 29
7, 22752, Note_off_c, 5, 60, 64
7, 22752, Note_off_c, 5, 72, 64
7, 23520, Note_on_c, 5, 55, 29
7, 23520, Note_on_c, 5, 67, 29
7, 23712, Note_off_c, 5, 67, 64
7, 23712, Note_off_c, 5, 55, 64
7, 24480, Note_on_c, 5, 60, 29
7, 24480, Note_on_c, 5, 72, 29
7, 24672, Note_off_c, 5, 72, 64
7, 24672, Note_off_c, 5, 60, 64
7, 27360, Note_on_c, 5, 67, 29
7, 27360, Note_on_c, 5, 64, 29
7, 27648, Note_off_c, 5, 64, 64
7, 27648, Note_off_c, 5, 67, 64
7, 27720, Note_on_c, 5, 64, 29
7, 27720, Note_on_c, 5, 67, 29
7, 27816, Note_off_c, 5, 67, 64
7, 27816, Note_off_c, 5, 64, 64
7, 27840, Note_on_c, 5, 67, 29
7, 27840, Note_on_c, 5, 64, 29
7, 28032, Note_off_c, 5, 64, 64
7, 28032, Note_off_c, 5, 67, 64
7, 28320, Note_on_c, 5, 64, 29
7, 28320, Note_on_c, 5, 67, 29
7, 28512, Note_off_c, 5, 67, 64
7, 28512, Note_off_c, 5, 64, 64
7, 28800, Note_on_c, 5, 64, 29
7, 28800, Note_on_c, 5, 67, 29
7, 28992, Note_off_c, 5, 67, 64
7, 28992, Note_off_c, 5, 64, 64
7, 29280, Note_on_c, 5, 60, 29
7, 29568, Note_off_c, 5, 60, 64
7, 29640, Note_on_c, 5, 60, 29
7, 29736, Note_off_c, 5, 60, 64
7, 29760, Note_on_c, 5, 60, 29
7, 29952, Note_off_c, 5, 60, 64
7, 30240, Note_on_c, 5, 60, 29
7, 30432, Note_off_c, 5, 60, 64
7, 30720, Note_on_c, 5, 60, 29
7, 30912, Note_off_c, 5, 60, 64
7, 31200, Note_on_c, 5, 60, 29
7, 31392, Note_off_c, 5, 60, 64
7, 32640, Note_on_c, 5, 67, 29
7, 32640, Note_on_c, 5, 55, 29
7, 32832, Note_off_c, 5, 55, 64
7, 32832, Note_off_c, 5, 67, 64
7, 33120, Note_on_c, 5, 55, 29
7, 33120, Note_on_c, 5, 67, 29
7, 33408, Note_off_c, 5, 67, 64
7, 33408, Note_off_c, 5, 55, 64
7, 33480, Note_on_c, 5, 55, 29
7, 33480, Note_on_c, 5, 67, 29
7, 33576, Note_off_c, 5, 67, 64
7, 33576, Note_off_c, 5, 55, 64
7, 33600, Note_on_c, 5, 55, 29
7, 33600, Note_on_c, 5, 67, 29
7, 33792, Note_off_c, 5, 67, 64
7, 33792, Note_off_c, 5, 55, 64
7, 34080, Note_on_c, 5, 55, 29
7, 34080, Note_on_c, 5, 67, 29
7, 34272, Note_off_c, 5, 67, 64
7, 34272, Note_off_c, 5, 55, 64
7, 34560, Note_on_c, 5, 60, 29
7, 34560, Note_on_c, 5, 67, 29
7, 34752, Note_off_c, 5, 67, 64
7, 34752, Note_off_c, 5, 60, 64
7, 35040, Note_on_c, 5, 55, 29
7, 35040, Note_on_c, 5, 67, 29
7, 35232, Note_off_c, 5, 67, 64
7, 35232, Note_off_c, 5, 55, 64
7, 35520, Note_on_c, 5, 60, 29
7, 35520, Note_on_c, 5, 67, 29
7, 35712, Note_off_c, 5, 67, 64
7, 35712, Note_off_c, 5, 60, 64
7, 36000, Note_on_c, 5, 60, 29
7, 36192, Note_off_c, 5, 60, 64
7, 36240, Note_on_c, 5, 60, 29
7, 36432, Note_off_c, 5, 60, 64
7, 36480, Note_on_c, 5, 60, 41
7, 36864, Note_off_c, 5, 60, 64
7, 36960, Note_on_c, 5, 60, 41
7, 37344, Note_off_c, 5, 60, 64
7, 37920, Note_on_c, 5, 55, 33
7, 37920, Note_on_c, 5, 67, 33
7, 38304, Note_off_c, 5, 67, 64
7, 38304, Note_off_c, 5, 55, 64
7, 38400, Note_on_c, 5, 72, 35
7, 38400, Note_on_c, 5, 60, 35
7, 38784, Note_off_c, 5, 60, 64
7, 38784, Note_off_c, 5, 72, 64
7, 38880, Note_on_c, 5, 72, 35
7, 38880, Note_on_c, 5, 60, 35
7, 39168, Note_off_c, 5, 60, 64
7, 39168, Note_off_c, 5, 72, 64
7, 39240, Note_on_c, 5, 60, 35
7, 39240, Note_on_c, 5, 72, 35
7, 39336, Note_off_c, 5, 72, 64
7, 39336, Note_off_c, 5, 60, 64
7, 39360, Note_on_c, 5, 72, 35
7, 39360, Note_on_c, 5, 60, 35
7, 39744, Note_off_c, 5, 60, 64
7, 39744, Note_off_c, 5, 72, 64
7, 39840, Note_on_c, 5, 60, 35
7, 39840, Note_on_c, 5, 72, 35
7, 40224, Note_off_c, 5, 72, 64
7, 40224, Note_off_c, 5, 60, 64
7, 40320, Note_on_c, 5, 67, 29
7, 40320, Note_on_c, 5, 55, 29
7, 40704, Note_off_c, 5, 55, 64
7, 40704, Note_off_c, 5, 67, 64
7, 40800, Note_on_c, 5, 67, 29
7, 40800, Note_on_c, 5, 55, 29
7, 41088, Note_off_c, 5, 55, 64
7, 41088, Note_off_c, 5, 67, 64
7, 41160, Note_on_c, 5, 55, 29
7, 41160, Note_on_c, 5, 67, 29
7, 41256, Note_off_c, 5, 67, 64
7, 41256, Note_off_c, 5, 55, 64
7, 41280, Note_on_c, 5, 55, 29
7, 41280, Note_on_c, 5, 67, 29
7, 41664, Note_off_c, 5, 67, 64
7, 41664, Note_off_c, 5, 55, 64
7, 41760, Note_on_c, 5, 67, 29
7, 41760, Note_on_c, 5, 55, 29
7, 42144, Note_off_c, 5, 55, 64
7, 42144, Note_off_c, 5, 67, 64
7, 42240, Note_on_c, 5, 60, 30
7, 42624, Note_off_c, 5, 60, 64
7, 44160, Note_on_c, 5, 72, 61
7, 44160, Note_on_c, 5, 60, 61
7, 44400, Note_off_c, 5, 60, 64
7, 44400, Note_off_c, 5, 72, 64
7, 45000, Note_on_c, 5, 55, 61
7, 45000, Note_on_c, 5, 67, 61
7, 45060, Note_off_c, 5, 67, 64
7, 45060, Note_off_c, 5, 55, 64
7, 45120, Note_on_c, 5, 60, 61
7, 45120, Note_on_c, 5, 72, 61
7, 45240, Note_off_c, 5, 72, 64
7, 45240, Note_off_c, 5, 60, 64
7, 45600, Note_on_c, 5, 55, 61
7, 45600, Note_on_c, 5, 67, 61
7, 45720, Note_off_c, 5, 67, 64
7, 45720, Note_off_c, 5, 55, 64
7, 46080, Note_on_c, 5, 67, 61
7, 46080, Note_on_c, 5, 55, 61
7, 46200, Note_off_c, 5, 55, 64
7, 46200, Note_off_c, 5, 67, 64
7, 46560, Note_on_c, 5, 60, 61
7, 46560, Note_on_c, 5, 72, 61
7, 46680, Note_off_c, 5, 72, 64
7, 46680, Note_off_c, 5, 60, 64
7, 47040, Note_on_c, 5, 67, 61
7, 47040, Note_on_c, 5, 55, 61
7, 47160, Note_off_c, 5, 55, 64
7, 47160, Note_off_c, 5, 67, 64
7, 47520, Note_on_c, 5, 67, 52
7, 47520, Note_on_c, 5, 55, 52
7, 47640, Note_off_c, 5, 55, 64
7, 47640, Note_off_c, 5, 67, 64
7, 48000, Note_on_c, 5, 60, 61
7, 48000, Note_on_c, 5, 72, 61
7, 48120, Note_off_c, 5, 72, 64
7, 48120, Note_off_c, 5, 60, 64
7, 48960, Note_on_c, 5, 55, 61
7, 48960, Note_on_c, 5, 67, 61
7, 49080, Note_off_c, 5, 67, 64
7, 49080, Note_off_c, 5, 55, 64
7, 49440, Note_on_c, 5, 72, 61
7, 49440, Note_on_c, 5, 60, 61
7, 49560, Note_off_c, 5, 60, 64
7, 49560, Note_off_c, 5, 72, 64
7, 49920, Note_on_c, 5, 67, 48
7, 49920, Note_on_c, 5, 55, 48
7, 50160, Note_off_c, 5, 55, 64
7, 50160, Note_off_c, 5, 67, 64
7, 50400, Note_on_c, 5, 55, 48
7, 50400, Note_on_c, 5, 67, 48
7, 50580, Note_off_c, 5, 67, 64
7, 50580, Note_off_c, 5, 55, 64
7, 50760, Note_on_c, 5, 67, 48
7, 50760, Note_on_c, 5, 55, 48
7, 50820, Note_off_c, 5, 55, 64
7, 50820, Note_off_c, 5, 67, 64
7, 50880, Note_on_c, 5, 55, 48
7, 50880, Note_on_c, 5, 67, 48
7, 51120, Note_off_c, 5, 67, 64
7, 51120, Note_off_c, 5, 55, 64
7, 51360, Note_on_c, 5, 67, 48
7, 51360, Note_on_c, 5, 55, 48
7, 51540, Note_off_c, 5, 55, 64
7, 51540, Note_off_c, 5, 67, 64
7, 51720, Note_on_c, 5, 55, 48
7, 51720, Note_on_c, 5, 67, 48
7, 51780, Note_off_c, 5, 67, 64
7, 51780, Note_off_c, 5, 55, 64
7, 51840, Note_on_c, 5, 55, 80
7, 51840, Note_on_c, 5, 67, 80
7, 52224, Note_off_c, 5, 67, 64
7, 52224, Note_off_c, 5, 55, 64
7, 52320, Note_on_c, 5, 55, 80
7, 52320, Note_on_c, 5, 67, 80
7, 52704, Note_off_c, 5, 67, 64
7, 52704, Note_off_c, 5, 55, 64
7, 53280, Note_on_c, 5, 60, 80
7, 53280, Note_on_c, 5, 72, 80
7, 53664, Note_off_c, 5, 72, 64
7, 53664, Note_off_c, 5, 60, 64
7, 53760, Note_on_c, 5, 67, 80
7, 53760, Note_on_c, 5, 55, 80
7, 54144, Note_off_c, 5, 55, 64
7, 54144, Note_off_c, 5, 67, 64
7, 54720, Note_on_c, 5, 67, 80
7, 54720, Note_on_c, 5, 55, 80
7, 55104, Note_off_c, 5, 55, 64
7, 55104, Note_off_c, 5, 67, 64
7, 55200, Note_on_c, 5, 60, 80
7, 55200, Note_on_c, 5, 72, 80
7, 55584, Note_off_c, 5, 72, 64
7, 55584, Note_off_c, 5, 60, 64
7, 56160, Note_on_c, 5, 55, 80
7, 56160, Note_on_c, 5, 67, 80
7, 56544, Note_off_c, 5, 67, 64
7, 56544, Note_off_c, 5, 55, 64
7, 58080, Note_on_c, 5, 67, 32
7, 58080, Note_on_c, 5, 64, 32
7, 58368, Note_off_c, 5, 64, 64
7, 58368, Note_off_c, 5, 67, 64
7, 58440, Note_on_c, 5, 67, 32
7, 58440, Note_on_c, 5, 64, 32
7, 58536, Note_off_c, 5, 64, 64
7, 58536, Note_off_c, 5, 67, 64
7, 58560, Note_on_c, 5, 67, 32
7, 58560, Note_on_c, 5, 64, 32
7, 58944, Note_off_c, 5, 64, 64
7, 58944, Note_off_c, 5, 67, 64
7, 59040, Note_on_c, 5, 67, 32
7, 59040, Note_on_c, 5, 64, 32
7, 59424, Note_off_c, 5, 64, 64
7, 59424, Note_off_c, 5, 67, 64
7, 59520, Note_on_c, 5, 64, 80
7, 59520, Note_on_c, 5, 67, 80
7, 59712, Note_off_c, 5, 67, 64
7, 59712, Note_off_c, 5, 64, 64
7, 60480, Note_on_c, 5, 60, 80
7, 60480, Note_on_c, 5, 72, 80
7, 60672, Note_off_c, 5, 72, 64
7, 60672, Note_off_c, 5, 60, 64
7, 61440, Note_on_c, 5, 60, 80
7, 61440, Note_on_c, 5, 72, 80
7, 61632, Note_off_c, 5, 72, 64
7, 61632, Note_off_c, 5, 60, 64
7, 61920, Note_on_c, 5, 60, 80
7, 61920, Note_on_c, 5, 72, 80
7, 62112, Note_off_c, 5, 72, 64
7, 62112, Note_off_c, 5, 60, 64
7, 62880, Note_on_c, 5, 60, 80
7, 62880, Note_on_c, 5, 72, 80
7, 63072, Note_off_c, 5, 72, 64
7, 63072, Note_off_c, 5, 60, 64
7, 63840, Note_on_c, 5, 60, 80
7, 63840, Note_on_c, 5, 72, 80
7, 64032, Note_off_c, 5, 72, 64
7, 64032, Note_off_c, 5, 60, 64
7, 64320, Note_on_c, 5, 55, 80
7, 64320, Note_on_c, 5, 67, 80
7, 64512, Note_off_c, 5, 67, 64
7, 64512, Note_off_c, 5, 55, 64
7, 64800, Note_on_c, 5, 67, 80
7, 64800, Note_on_c, 5, 55, 80
7, 64992, Note_off_c, 5, 55, 64
7, 64992, Note_off_c, 5, 67, 64
7, 65280, Note_on_c, 5, 60, 80
7, 65280, Note_on_c, 5, 72, 80
7, 65472, Note_off_c, 5, 72, 64
7, 65472, Note_off_c, 5, 60, 64
7, 65760, Note_on_c, 5, 55, 80
7, 65760, Note_on_c, 5, 67, 80
7, 65952, Note_off_c, 5, 67, 64
7, 65952, Note_off_c, 5, 55, 64
7, 66240, Note_on_c, 5, 60, 80
7, 66240, Note_on_c, 5, 72, 80
7, 66336, Note_off_c, 5, 72, 64
7, 66336, Note_off_c, 5, 60, 64
7, 66480, Note_on_c, 5, 72, 80
7, 66480, Note_on_c, 5, 60, 80
7, 66528, Note_off_c, 5, 60, 64
7, 66528, Note_off_c, 5, 72, 64
7, 66600, Note_on_c, 5, 72, 80
7, 66600, Note_on_c, 5, 60, 80
7, 66648, Note_off_c, 5, 60, 64
7, 66648, Note_off_c, 5, 72, 64
7, 66720, Note_on_c, 5, 60, 80
7, 66720, Note_on_c, 5, 72, 80
7, 66816, Note_off_c, 5, 72, 64
7, 66816, Note_off_c, 5, 60, 64
7, 66960, Note_on_c, 5, 60, 80
7, 66960, Note_on_c, 5, 72, 80
7, 67056, Note_off_c, 5, 72, 64
7, 67056, Note_off_c, 5, 60, 64
7, 67200, Note_on_c, 5, 60, 80
7, 67200, Note_on_c, 5, 72, 80
7, 67392, Note_off_c, 5, 72, 64
7, 67392, Note_off_c, 5, 60, 64
7, 67680, Note_on_c, 5, 60, 80
7, 67680, Note_on_c, 5, 72, 80
7, 67872, Note_off_c, 5, 72, 64
7, 67872, Note_off_c, 5, 60, 64
7, 68640, Note_on_c, 5, 55, 80
7, 68640, Note_on_c, 5, 67, 80
7, 68832, Note_off_c, 5, 67, 64
7, 68832, Note_off_c, 5, 55, 64
7, 69120, Note_on_c, 5, 60, 112
7, 69120, Note_on_c, 5, 72, 112
7, 69312, Note_off_c, 5, 72, 64
7, 69312, Note_off_c, 5, 60, 64
7, 69600, Note_on_c, 5, 72, 112
7, 69600, Note_on_c, 5, 60, 112
7, 69744, Note_off_c, 5, 60, 64
7, 69744, Note_off_c, 5, 72, 64
7, 69960, Note_on_c, 5, 60, 112
7, 69960, Note_on_c, 5, 72, 112
7, 70008, Note_off_c, 5, 72, 64
7, 70008, Note_off_c, 5, 60, 64
7, 70080, Note_on_c, 5, 60, 112
7, 70080, Note_on_c, 5, 72, 112
7, 70176, Note_off_c, 5, 72, 64
7, 70176, Note_off_c, 5, 60, 64
7, 70320, Note_on_c, 5, 72, 112
7, 70320, Note_on_c, 5, 60, 112
7, 70368, Note_off_c, 5, 60, 64
7, 70368, Note_off_c, 5, 72, 64
7, 70440, Note_on_c, 5, 60, 112
7, 70440, Note_on_c, 5, 72, 112
7, 70488, Note_off_c, 5, 72, 64
7, 70488, Note_off_c, 5, 60, 64
7, 70560, Note_on_c, 5, 60, 112
7, 70560, Note_on_c, 5, 72, 112
7, 70656, Note_off_c, 5, 72, 64
7, 70656, Note_off_c, 5, 60, 64
7, 70800, Note_on_c, 5, 60, 112
7, 70800, Note_on_c, 5, 72, 112
7, 70896, Note_off_c, 5, 72, 64
7, 70896, Note_off_c, 5, 60, 64
7, 71040, Note_on_c, 5, 55, 112
7, 71040, Note_on_c, 5, 67, 112
7, 71136, Note_off_c, 5, 67, 64
7, 71136, Note_off_c, 5, 55, 64
7, 71280, Note_on_c, 5, 55, 112
7, 71280, Note_on_c, 5, 67, 112
7, 71328, Note_off_c, 5, 67, 64
7, 71328, Note_off_c, 5, 55, 64
7, 71400, Note_on_c, 5, 55, 112
7, 71400, Note_on_c, 5, 67, 112
7, 71448, Note_off_c, 5, 67, 64
7, 71448, Note_off_c, 5, 55, 64
7, 71520, Note_on_c, 5, 55, 112
7, 71520, Note_on_c, 5, 67, 112
7, 71616, Note_off_c, 5, 67, 64
7, 71616, Note_off_c, 5, 55, 64
7, 71760, Note_on_c, 5, 55, 112
7, 71760, Note_on_c, 5, 67, 112
7, 71856, Note_off_c, 5, 67, 64
7, 71856, Note_off_c, 5, 55, 64
7, 72000, Note_on_c, 5, 55, 112
7, 72000, Note_on_c, 5, 67, 112
7, 72096, Note_off_c, 5, 67, 64
7, 72096, Note_off_c, 5, 55, 64
7, 72240, Note_on_c, 5, 55, 112
7, 72240, Note_on_c, 5, 67, 112
7, 72288, Note_off_c, 5, 67, 64
7, 72288, Note_off_c, 5, 55, 64
7, 72360, Note_on_c, 5, 55, 112
7, 72360, Note_on_c, 5, 67, 112
7, 72408, Note_off_c, 5, 67, 64
7, 72408, Note_off_c, 5, 55, 64
7, 72480, Note_on_c, 5, 55, 112
7, 72480, Note_on_c, 5, 67, 112
7, 72576, Note_off_c, 5, 67, 64
7, 72576, Note_off_c, 5, 55, 64
7, 72720, Note_on_c, 5, 55, 112
7, 72720, Note_on_c, 5, 67, 112
7, 72816, Note_off_c, 5, 67, 64
7, 72816, Note_off_c, 5, 55, 64
7, 72960, Note_on_c, 5, 60, 80
7, 72960, Note_on_c, 5, 64, 80
7, 73344, Note_off_c, 5, 64, 64
7, 73344, Note_off_c, 5, 60, 64
7, 73440, Note_on_c, 5, 55, 80
7, 73440, Note_on_c, 5, 67, 80
7, 73728, Note_off_c, 5, 67, 64
7, 73728, Note_off_c, 5, 55, 64
7, 73800, Note_on_c, 5, 67, 80
7, 73800, Note_on_c, 5, 55, 80
7, 73896, Note_off_c, 5, 55, 64
7, 73896, Note_off_c, 5, 67, 64
7, 73920, Note_on_c, 5, 55, 80
7, 73920, Note_on_c, 5, 67, 80
7, 74304, Note_off_c, 5, 67, 64
7, 74304, Note_off_c, 5, 55, 64
7, 74400, Note_on_c, 5, 55, 80
7, 74400, Note_on_c, 5, 67, 80
7, 74784, Note_off_c, 5, 67, 64
7, 74784, Note_off_c, 5, 55, 64
7, 74880, Note_on_c, 5, 60, 72
7, 74976, Note_off_c, 5, 60, 64
7, 75120, Note_on_c, 5, 67, 72
7, 75168, Note_off_c, 5, 67, 64
7, 75240, Note_on_c, 5, 67, 72
7, 75288, Note_off_c, 5, 67, 64
7, 75360, Note_on_c, 5, 72, 72
7, 75456, Note_off_c, 5, 72, 64
7, 75600, Note_on_c, 5, 67, 72
7, 75696, Note_off_c, 5, 67, 64
7, 75840, Note_on_c, 5, 72, 72
7, 75936, Note_off_c, 5, 72, 64
7, 76080, Note_on_c, 5, 67, 72
7, 76176, Note_off_c, 5, 67, 64
7, 76320, Note_on_c, 5, 64, 72
7, 76416, Note_off_c, 5, 64, 64
7, 76560, Note_on_c, 5, 67, 72
7, 76656, Note_off_c, 5, 67, 64
7, 76800, Note_on_c, 5, 60, 72
7, 76896, Note_off_c, 5, 60, 64
7, 77040, Note_on_c, 5, 67, 72
7, 77040, Note_on_c, 5, 72, 72
7, 77088, Note_off_c, 5, 72, 64
7, 77088, Note_off_c, 5, 67, 64
7, 77160, Note_on_c, 5, 67, 72
7, 77160, Note_on_c, 5, 72, 72
7, 77208, Note_off_c, 5, 72, 64
7, 77208, Note_off_c, 5, 67, 64
7, 77280, Note_on_c, 5, 76, 72
7, 77280, Note_on_c, 5, 72, 72
7, 77376, Note_off_c, 5, 72, 64
7, 77376, Note_off_c, 5, 76, 64
7, 77520, Note_on_c, 5, 67, 72
7, 77520, Note_on_c, 5, 72, 72
7, 77616, Note_off_c, 5, 72, 64
7, 77616, Note_off_c, 5, 67, 64
7, 77760, Note_on_c, 5, 76, 72
7, 77760, Note_on_c, 5, 72, 72
7, 77856, Note_off_c, 5, 72, 64
7, 77856, Note_off_c, 5, 76, 64
7, 78000, Note_on_c, 5, 67, 72
7, 78000, Note_on_c, 5, 72, 72
7, 78096, Note_off_c, 5, 72, 64
7, 78096, Note_off_c, 5, 67, 64
7, 78240, Note_on_c, 5, 64, 72
7, 78240, Note_on_c, 5, 67, 72
7, 78336, Note_off_c, 5, 67, 64
7, 78336, Note_off_c, 5, 64, 64
7, 78480, Note_on_c, 5, 67, 72
7, 78480, Note_on_c, 5, 72, 72
7, 78576, Note_off_c, 5, 72, 64
7, 78576, Note_off_c, 5, 67, 64
7, 78960, Note_on_c, 5, 72, 72
7, 78960, Note_on_c, 5, 76, 72
7, 79008, Note_off_c, 5, 76, 64
7, 79008, Note_off_c, 5, 72, 64
7, 79080, Note_on_c, 5, 72, 72
7, 79080, Note_on_c, 5, 76, 72
7, 79128, Note_off_c, 5, 76, 64
7, 79128, Note_off_c, 5, 72, 64
7, 79200, Note_on_c, 5, 72, 72
7, 79200, Note_on_c, 5, 76, 72
7, 79296, Note_off_c, 5, 76, 64
7, 79296, Note_off_c, 5, 72, 64
7, 79440, Note_on_c, 5, 76, 72
7, 79440, Note_on_c, 5, 72, 72
7, 79536, Note_off_c, 5, 72, 64
7, 79536, Note_off_c, 5, 76, 64
7, 79680, Note_on_c, 5, 72, 72
7, 79680, Note_on_c, 5, 76, 72
7, 79776, Note_off_c, 5, 76, 64
7, 79776, Note_off_c, 5, 72, 64
7, 79920, Note_on_c, 5, 79, 72
7, 79920, Note_on_c, 5, 76, 72
7, 79968, Note_off_c, 5, 76, 64
7, 79968, Note_off_c, 5, 79, 64
7, 80040, Note_on_c, 5, 76, 72
7, 80040, Note_on_c, 5, 79, 72
7, 80088, Note_off_c, 5, 79, 64
7, 80088, Note_off_c, 5, 76, 64
7, 80160, Note_on_c, 5, 76, 72
7, 80160, Note_on_c, 5, 79, 72
7, 80256, Note_off_c, 5, 79, 64
7, 80256, Note_off_c, 5, 76, 64
7, 80400, Note_on_c, 5, 79, 72
7, 80400, Note_on_c, 5, 76, 72
7, 80496, Note_off_c, 5, 76, 64
7, 80496, Note_off_c, 5, 79, 64
7, 80640, Note_on_c, 5, 74, 72
7, 80640, Note_on_c, 5, 79, 72
7, 80736, Note_off_c, 5, 79, 64
7, 80736, Note_off_c, 5, 74, 64
7, 80880, Note_on_c, 5, 77, 72
7, 80880, Note_on_c, 5, 74, 72
7, 80976, Note_off_c, 5, 74, 64
7, 80976, Note_off_c, 5, 77, 64
7, 81120, Note_on_c, 5, 77, 72
7, 81120, Note_on_c, 5, 74, 72
7, 81216, Note_off_c, 5, 74, 64
7, 81216, Note_off_c, 5, 77, 64
7, 81360, Note_on_c, 5, 76, 72
7, 81360, Note_on_c, 5, 72, 72
7, 81456, Note_off_c, 5, 72, 64
7, 81456, Note_off_c, 5, 76, 64
7, 81600, Note_on_c, 5, 67, 72
7, 81600, Note_on_c, 5, 74, 72
7, 82176, Note_off_c, 5, 74, 64
7, 82176, Note_off_c, 5, 67, 64
7, 90480, Note_on_c, 5, 74, 72
7, 90480, Note_on_c, 5, 67, 72
7, 90528, Note_off_c, 5, 67, 64
7, 90528, Note_off_c, 5, 74, 64
7, 90600, Note_on_c, 5, 67, 72
7, 90600, Note_on_c, 5, 74, 72
7, 90648, Note_off_c, 5, 74, 64
7, 90648, Note_off_c, 5, 67, 64
7, 90720, Note_on_c, 5, 74, 72
7, 90720, Note_on_c, 5, 67, 72
7, 90816, Note_off_c, 5, 67, 64
7, 90816, Note_off_c, 5, 74, 64
7, 90960, Note_on_c, 5, 72, 72
7, 90960, Note_on_c, 5, 76, 72
7, 91056, Note_off_c, 5, 76, 64
7, 91056, Note_off_c, 5, 72, 64
7, 91200, Note_on_c, 5, 77, 72
7, 91200, Note_on_c, 5, 74, 72
7, 91776, Note_off_c, 5, 74, 64
7, 91776, Note_off_c, 5, 77, 64
7, 92400, Note_on_c, 5, 76, 72
7, 92400, Note_on_c, 5, 72, 72
7, 92448, Note_off_c, 5, 72, 64
7, 92448, Note_off_c, 5, 76, 64
7, 92520, Note_on_c, 5, 76, 72
7, 92520, Note_on_c, 5, 72, 72
7, 92568, Note_off_c, 5, 72, 64
7, 92568, Note_off_c, 5, 76, 64
7, 92640, Note_on_c, 5, 72, 72
7, 92640, Note_on_c, 5, 76, 72
7, 92736, Note_off_c, 5, 76, 64
7, 92736, Note_off_c, 5, 72, 64
7, 92880, Note_on_c, 5, 77, 72
7, 92880, Note_on_c, 5, 74, 72
7, 92976, Note_off_c, 5, 74, 64
7, 92976, Note_off_c, 5, 77, 64
7, 93120, Note_on_c, 5, 79, 72
7, 93120, Note_on_c, 5, 76, 72
7, 93696, Note_off_c, 5, 76, 64
7, 93696, Note_off_c, 5, 79, 64
7, 94080, Note_on_c, 5, 79, 92
7, 94080, Note_on_c, 5, 76, 72
7, 94176, Note_off_c, 5, 76, 64
7, 94176, Note_off_c, 5, 79, 64
7, 94320, Note_on_c, 5, 72, 72
7, 94320, Note_on_c, 5, 76, 72
7, 94368, Note_off_c, 5, 76, 64
7, 94368, Note_off_c, 5, 72, 64
7, 94440, Note_on_c, 5, 76, 72
7, 94440, Note_on_c, 5, 72, 72
7, 94488, Note_off_c, 5, 72, 64
7, 94488, Note_off_c, 5, 76, 64
7, 94560, Note_on_c, 5, 76, 72
7, 94560, Note_on_c, 5, 72, 72
7, 94656, Note_off_c, 5, 72, 64
7, 94656, Note_off_c, 5, 76, 64
7, 94800, Note_on_c, 5, 76, 72
7, 94800, Note_on_c, 5, 72, 72
7, 94896, Note_off_c, 5, 72, 64
7, 94896, Note_off_c, 5, 76, 64
7, 95040, Note_on_c, 5, 72, 72
7, 95040, Note_on_c, 5, 76, 92
7, 95136, Note_off_c, 5, 76, 64
7, 95136, Note_off_c, 5, 72, 64
7, 95280, Note_on_c, 5, 72, 72
7, 95280, Note_on_c, 5, 64, 72
7, 95328, Note_off_c, 5, 64, 64
7, 95328, Note_off_c, 5, 72, 64
7, 95400, Note_on_c, 5, 64, 72
7, 95400, Note_on_c, 5, 72, 72
7, 95448, Note_off_c, 5, 72, 64
7, 95448, Note_off_c, 5, 64, 64
7, 95520, Note_on_c, 5, 64, 72
7, 95520, Note_on_c, 5, 72, 72
7, 95616, Note_off_c, 5, 72, 64
7, 95616, Note_off_c, 5, 64, 64
7, 95760, Note_on_c, 5, 72, 72
7, 95760, Note_on_c, 5, 64, 72
7, 95856, Note_off_c, 5, 64, 64
7, 95856, Note_off_c, 5, 72, 64
7, 96000, Note_on_c, 5, 67, 72
7, 96000, Note_on_c, 5, 74, 72
7, 96384, Note_off_c, 5, 74, 64
7, 96384, Note_off_c, 5, 67, 64
7, 96480, Note_on_c, 5, 74, 72
7, 96480, Note_on_c, 5, 67, 72
7, 96624, Note_off_c, 5, 67, 64
7, 96624, Note_off_c, 5, 74, 64
7, 96840, Note_on_c, 5, 74, 72
7, 96840, Note_on_c, 5, 67, 72
7, 96888, Note_off_c, 5, 67, 64
7, 96888, Note_off_c, 5, 74, 64
7, 96960, Note_on_c, 5, 64, 72
7, 96960, Note_on_c, 5, 72, 72
7, 97536, Note_off_c, 5, 72, 64
7, 97536, Note_off_c, 5, 64, 64
7, 105600, Note_on_c, 5, 67, 32
7, 105600, Note_on_c, 5, 74, 32
7, 105984, Note_off_c, 5, 74, 64
7, 105984, Note_off_c, 5, 67, 64
7, 106080, Note_on_c, 5, 67, 32
7, 106080, Note_on_c, 5, 74, 32
7, 106224, Note_off_c, 5, 74, 64
7, 106224, Note_off_c, 5, 67, 64
7, 106440, Note_on_c, 5, 74, 32
7, 106440, Note_on_c, 5, 67, 32
7, 106488, Note_off_c, 5, 67, 64
7, 106488, Note_off_c, 5, 74, 64
7, 106560, Note_on_c, 5, 64, 32
7, 106560, Note_on_c, 5, 72, 32
7, 107136, Note_off_c, 5, 72, 64
7, 107136, Note_off_c, 5, 64, 64
7, 115200, Note_on_c, 5, 60, 27
7, 115200, Note_on_c, 5, 72, 27
7, 116160, Note_off_c, 5, 72, 64
7, 116160, Note_off_c, 5, 60, 64
7, 116160, Note_on_c, 5, 67, 27
7, 116160, Note_on_c, 5, 55, 27
7, 116928, Note_off_c, 5, 55, 64
7, 116928, Note_off_c, 5, 67, 64
7, 117120, Note_on_c, 5, 55, 27
7, 117120, Note_on_c, 5, 67, 27
7, 121152, Note_off_c, 5, 67, 64
7, 121152, Note_off_c, 5, 55, 64
7, 122880, Note_on_c, 5, 74, 41
7, 122928, Note_off_c, 5, 74, 64
7, 123000, Note_on_c, 5, 55, 41
7, 123000, Note_on_c, 5, 67, 41
7, 123048, Note_off_c, 5, 67, 64
7, 123048, Note_off_c, 5, 55, 64
7, 123120, Note_on_c, 5, 67, 42
7, 123120, Note_on_c, 5, 55, 42
7, 123168, Note_off_c, 5, 55, 64
7, 123168, Note_off_c, 5, 67, 64
7, 123240, Note_on_c, 5, 55, 43
7, 123240, Note_on_c, 5, 67, 43
7, 123288, Note_off_c, 5, 67, 64
7, 123288, Note_off_c, 5, 55, 64
7, 123360, Note_on_c, 5, 55, 44
7, 123360, Note_on_c, 5, 67, 44
7, 123408, Note_off_c, 5, 67, 64
7, 123408, Note_off_c, 5, 55, 64
7, 123480, Note_on_c, 5, 55, 45
7, 123480, Note_on_c, 5, 67, 45
7, 123528, Note_off_c, 5, 67, 64
7, 123528, Note_off_c, 5, 55, 64
7, 123600, Note_on_c, 5, 67, 46
7, 123600, Note_on_c, 5, 55, 46
7, 123648, Note_off_c, 5, 55, 64
7, 123648, Note_off_c, 5, 67, 64
7, 123720, Note_on_c, 5, 67, 47
7, 123720, Note_on_c, 5, 55, 47
7, 123768, Note_off_c, 5, 55, 64
7, 123768, Note_off_c, 5, 67, 64
7, 123840, Note_on_c, 5, 55, 48
7, 123840, Note_on_c, 5, 67, 48
7, 123888, Note_off_c, 5, 67, 64
7, 123888, Note_off_c, 5, 55, 64
7, 123960, Note_on_c, 5, 67, 48
7, 123960, Note_on_c, 5, 55, 48
7, 124008, Note_off_c, 5, 55, 64
7, 124008, Note_off_c, 5, 67, 64
7, 124080, Note_on_c, 5, 67, 49
7, 124080, Note_on_c, 5, 55, 49
7, 124128, Note_off_c, 5, 55, 64
7, 124128, Note_off_c, 5, 67, 64
7, 124200, Note_on_c, 5, 55, 50
7, 124200, Note_on_c, 5, 67, 50
7, 124248, Note_off_c, 5, 67, 64
7, 124248, Note_off_c, 5, 55, 64
7, 124320, Note_on_c, 5, 67, 50
7, 124320, Note_on_c, 5, 55, 50
7, 124368, Note_off_c, 5, 55, 64
7, 124368, Note_off_c, 5, 67, 64
7, 124440, Note_on_c, 5, 55, 51
7, 124440, Note_on_c, 5, 67, 51
7, 124488, Note_off_c, 5, 67, 64
7, 124488, Note_off_c, 5, 55, 64
7, 124560, Note_on_c, 5, 55, 52
7, 124560, Note_on_c, 5, 67, 52
7, 124608, Note_off_c, 5, 67, 64
7, 124608, Note_off_c, 5, 55, 64
7, 124680, Note_on_c, 5, 67, 53
7, 124680, Note_on_c, 5, 55, 53
7, 124728, Note_off_c, 5, 55, 64
7, 124728, Note_off_c, 5, 67, 64
7, 124800, Note_on_c, 5, 67, 54
7, 124800, Note_on_c, 5, 55, 54
7, 124848, Note_off_c, 5, 55, 64
7, 124848, Note_off_c, 5, 67, 64
7, 124920, Note_on_c, 5, 55, 55
7, 124920, Note_on_c, 5, 67, 55
7, 124968, Note_off_c, 5, 67, 64
7, 124968, Note_off_c, 5, 55, 64
7, 125040, Note_on_c, 5, 67, 56
7, 125040, Note_on_c, 5, 55, 56
7, 125088, Note_off_c, 5, 55, 64
7, 125088, Note_off_c, 5, 67, 64
7, 125160, Note_on_c, 5, 55, 57
7, 125160, Note_on_c, 5, 67, 57
7, 125208, Note_off_c, 5, 67, 64
7, 125208, Note_off_c, 5, 55, 64
7, 125280, Note_on_c, 5, 55, 58
7, 125280, Note_on_c, 5, 67, 58
7, 125328, Note_off_c, 5, 67, 64
7, 125328, Note_off_c, 5, 55, 64
7, 125400, Note_on_c, 5, 67, 59
7, 125400, Note_on_c, 5, 55, 59
7, 125448, Note_off_c, 5, 55, 64
7, 125448, Note_off_c, 5, 67, 64
7, 125520, Note_on_c, 5, 55, 59
7, 125520, Note_on_c, 5, 67, 59
7, 125568, Note_off_c, 5, 67, 64
7, 125568, Note_off_c, 5, 55, 64
7, 125640, Note_on_c, 5, 67, 60
7, 125640, Note_on_c, 5, 55, 60
7, 125688, Note_off_c, 5, 55, 64
7, 125688, Note_off_c, 5, 67, 64
7, 125760, Note_on_c, 5, 55, 61
7, 125760, Note_on_c, 5, 67, 61
7, 125808, Note_off_c, 5, 67, 64
7, 125808, Note_off_c, 5, 55, 64
7, 125880, Note_on_c, 5, 55, 61
7, 125880, Note_on_c, 5, 67, 61
7, 125928, Note_off_c, 5, 67, 64
7, 125928, Note_off_c, 5, 55, 64
7, 126000, Note_on_c, 5, 55, 62
7, 126000, Note_on_c, 5, 67, 62
7, 126048, Note_off_c, 5, 67, 64
7, 126048, Note_off_c, 5, 55, 64
7, 126120, Note_on_c, 5, 55, 63
7, 126120, Note_on_c, 5, 67, 63
7, 126168, Note_off_c, 5, 67, 64
7, 126168, Note_off_c, 5, 55, 64
7, 126240, Note_on_c, 5, 55, 64
7, 126240, Note_on_c, 5, 67, 64
7, 126288, Note_off_c, 5, 67, 64
7, 126288, Note_off_c, 5, 55, 64
7, 126360, Note_on_c, 5, 67, 65
7, 126360, Note_on_c, 5, 55, 65
7, 126408, Note_off_c, 5, 55, 64
7, 126408, Note_off_c, 5, 67, 64
7, 126480, Note_on_c, 5, 55, 66
7, 126480, Note_on_c, 5, 67, 66
7, 126528, Note_off_c, 5, 67, 64
7, 126528, Note_off_c, 5, 55, 64
7, 126600, Note_on_c, 5, 67, 67
7, 126600, Note_on_c, 5, 55, 67
7, 126648, Note_off_c, 5, 55, 64
7, 126648, Note_off_c, 5, 67, 64
7, 126720, Note_on_c, 5, 67, 68
7, 126720, Note_on_c, 5, 55, 68
7, 126768, Note_off_c, 5, 55, 64
7, 126768, Note_off_c, 5, 67, 64
7, 126840, Note_on_c, 5, 55, 69
7, 126840, Note_on_c, 5, 67, 69
7, 126888, Note_off_c, 5, 67, 64
7, 126888, Note_off_c, 5, 55, 64
7, 126960, Note_on_c, 5, 67, 70
7, 126960, Note_on_c, 5, 55, 70
7, 127008, Note_off_c, 5, 55, 64
7, 127008, Note_off_c, 5, 67, 64
7, 127080, Note_on_c, 5, 55, 70
7, 127080, Note_on_c, 5, 67, 70
7, 127128, Note_off_c, 5, 67, 64
7, 127128, Note_off_c, 5, 55, 64
7, 127200, Note_on_c, 5, 55, 71
7, 127200, Note_on_c, 5, 67, 71
7, 127248, Note_off_c, 5, 67, 64
7, 127248, Note_off_c, 5, 55, 64
7, 127320, Note_on_c, 5, 55, 58
7, 127320, Note_on_c, 5, 67, 58
7, 127368, Note_off_c, 5, 67, 64
7, 127368, Note_off_c, 5, 55, 64
7, 127440, Note_on_c, 5, 67, 59
7, 127440, Note_on_c, 5, 55, 59
7, 127488, Note_off_c, 5, 55, 64
7, 127488, Note_off_c, 5, 67, 64
7, 127560, Note_on_c, 5, 67, 59
7, 127560, Note_on_c, 5, 55, 59
7, 127608, Note_off_c, 5, 55, 64
7, 127608, Note_off_c, 5, 67, 64
7, 127680, Note_on_c, 5, 55, 59
7, 127680, Note_on_c, 5, 67, 59
7, 127728, Note_off_c, 5, 67, 64
7, 127728, Note_off_c, 5, 55, 64
7, 127800, Note_on_c, 5, 55, 59
7, 127800, Note_on_c, 5, 67, 59
7, 127848, Note_off_c, 5, 67, 64
7, 127848, Note_off_c, 5, 55, 64
7, 127920, Note_on_c, 5, 55, 60
7, 127920, Note_on_c, 5, 67, 60
7, 127968, Note_off_c, 5, 67, 64
7, 127968, Note_off_c, 5, 55, 64
7, 128040, Note_on_c, 5, 67, 61
7, 128040, Note_on_c, 5, 55, 61
7, 128088, Note_off_c, 5, 55, 64
7, 128088, Note_off_c, 5, 67, 64
7, 128160, Note_on_c, 5, 55, 114
7, 128160, Note_on_c, 5, 67, 114
7, 128832, Note_off_c, 5, 67, 64
7, 128832, Note_off_c, 5, 55, 64
7, 129120, Note_on_c, 5, 67, 72
7, 129120, Note_on_c, 5, 55, 72
7, 129300, Note_off_c, 5, 55, 64
7, 129300, Note_off_c, 5, 67, 64
7, 129480, Note_on_c, 5, 55, 72
7, 129480, Note_on_c, 5, 67, 72
7, 129540, Note_off_c, 5, 67, 64
7, 129540, Note_off_c, 5, 55, 64
7, 129600, Note_on_c, 5, 55, 72
7, 129600, Note_on_c, 5, 67, 72
7, 129720, Note_off_c, 5, 67, 64
7, 129720, Note_off_c, 5, 55, 64
7, 130080, Note_on_c, 5, 55, 72
7, 130080, Note_on_c, 5, 67, 72
7, 130200, Note_off_c, 5, 67, 64
7, 130200, Note_off_c, 5, 55, 64
7, 131040, Note_on_c, 5, 55, 72
7, 131040, Note_on_c, 5, 67, 72
7, 131220, Note_off_c, 5, 67, 64
7, 131220, Note_off_c, 5, 55, 64
7, 131400, Note_on_c, 5, 55, 72
7, 131400, Note_on_c, 5, 67, 72
7, 131460, Note_off_c, 5, 67, 64
7, 131460, Note_off_c, 5, 55, 64
7, 131520, Note_on_c, 5, 67, 72
7, 131520, Note_on_c, 5, 55, 72
7, 131640, Note_off_c, 5, 55, 64
7, 131640, Note_off_c, 5, 67, 64
7, 132000, Note_on_c, 5, 55, 72
7, 132000, Note_on_c, 5, 67, 72
7, 132120, Note_off_c, 5, 67, 64
7, 132120, Note_off_c, 5, 55, 64
7, 132960, Note_on_c, 5, 67, 72
7, 132960, Note_on_c, 5, 55, 72
7, 133140, Note_off_c, 5, 55, 64
7, 133140, Note_off_c, 5, 67, 64
7, 133320, Note_on_c, 5, 55, 72
7, 133320, Note_on_c, 5, 67, 72
7, 133380, Note_off_c, 5, 67, 64
7, 133380, Note_off_c, 5, 55, 64
7, 133440, Note_on_c, 5, 67, 72
7, 133440, Note_on_c, 5, 55, 72
7, 133560, Note_off_c, 5, 55, 64
7, 133560, Note_off_c, 5, 67, 64
7, 133920, Note_on_c, 5, 67, 72
7, 133920, Note_on_c, 5, 55, 72
7, 134040, Note_off_c, 5, 55, 64
7, 134040, Note_off_c, 5, 67, 64
7, 134880, Note_on_c, 5, 67, 72
7, 134880, Note_on_c, 5, 55, 72
7, 135060, Note_off_c, 5, 55, 64
7, 135060, Note_off_c, 5, 67, 64
7, 135240, Note_on_c, 5, 55, 72
7, 135240, Note_on_c, 5, 67, 72
7, 135300, Note_off_c, 5, 67, 64
7, 135300, Note_off_c, 5, 55, 64
7, 135360, Note_on_c, 5, 67, 72
7, 135360, Note_on_c, 5, 55, 72
7, 135480, Note_off_c, 5, 55, 64
7, 135480, Note_off_c, 5, 67, 64
7, 135840, Note_on_c, 5, 55, 72
7, 135840, Note_on_c, 5, 67, 72
7, 135960, Note_off_c, 5, 67, 64
7, 135960, Note_off_c, 5, 55, 64
7, 136740, Note_on_c, 5, 55, 61
7, 136740, Note_on_c, 5, 67, 61
7, 136770, Note_off_c, 5, 67, 64
7, 136770, Note_off_c, 5, 55, 64
7, 136800, Note_on_c, 5, 67, 61
7, 136800, Note_on_c, 5, 55, 61
7, 136920, Note_off_c, 5, 55, 64
7, 136920, Note_off_c, 5, 67, 64
7, 137700, Note_on_c, 5, 67, 52
7, 137700, Note_on_c, 5, 55, 52
7, 137730, Note_off_c, 5, 55, 64
7, 137730, Note_off_c, 5, 67, 64
7, 137760, Note_on_c, 5, 67, 52
7, 137760, Note_on_c, 5, 55, 52
7, 137880, Note_off_c, 5, 55, 64
7, 137880, Note_off_c, 5, 67, 64
7, 138660, Note_on_c, 5, 67, 44
7, 138660, Note_on_c, 5, 55, 44
7, 138690, Note_off_c, 5, 55, 64
7, 138690, Note_off_c, 5, 67, 64
7, 138720, Note_on_c, 5, 55, 44
7, 138720, Note_on_c, 5, 67, 44
7, 138840, Note_off_c, 5, 67, 64
7, 138840, Note_off_c, 5, 55, 64
7, 139620, Note_on_c, 5, 55, 38
7, 139620, Note_on_c, 5, 67, 38
7, 139650, Note_off_c, 5, 67, 64
7, 139650, Note_off_c, 5, 55, 64
7, 139680, Note_on_c, 5, 55, 38
7, 139680, Note_on_c, 5, 67, 38
7, 139800, Note_off_c, 5, 67, 64
7, 139800, Note_off_c, 5, 55, 64
7, 139920, Note_on_c, 5, 67, 38
7, 139920, Note_on_c, 5, 55, 38
7, 140040, Note_off_c, 5, 55, 64
7, 140040, Note_off_c, 5, 67, 64
7, 140160, Note_on_c, 5, 55, 36
7, 140160, Note_on_c, 5, 67, 36
7, 140352, Note_off_c, 5, 67, 64
7, 140352, Note_off_c, 5, 55, 64
7, 180720, Note_on_c, 5, 67, 87
7, 180720, Note_on_c, 5, 55, 67
7, 180816, Note_off_c, 5, 55, 64
7, 180816, Note_off_c, 5, 67, 64
7, 180960, Note_on_c, 5, 55, 67
7, 180960, Note_on_c, 5, 67, 67
7, 181056, Note_off_c, 5, 67, 64
7, 181056, Note_off_c, 5, 55, 64
7, 181200, Note_on_c, 5, 67, 67
7, 181200, Note_on_c, 5, 55, 67
7, 181296, Note_off_c, 5, 55, 64
7, 181296, Note_off_c, 5, 67, 64
7, 181680, Note_on_c, 5, 67, 87
7, 181680, Note_on_c, 5, 60, 67
7, 181776, Note_off_c, 5, 60, 64
7, 181776, Note_off_c, 5, 67, 64
7, 181920, Note_on_c, 5, 67, 67
7, 181920, Note_on_c, 5, 60, 67
7, 182016, Note_off_c, 5, 60, 64
7, 182016, Note_off_c, 5, 67, 64
7, 182160, Note_on_c, 5, 60, 67
7, 182160, Note_on_c, 5, 67, 67
7, 182256, Note_off_c, 5, 67, 64
7, 182256, Note_off_c, 5, 60, 64
7, 182640, Note_on_c, 5, 67, 87
7, 182640, Note_on_c, 5, 55, 67
7, 182736, Note_off_c, 5, 55, 64
7, 182736, Note_off_c, 5, 67, 64
7, 182880, Note_on_c, 5, 67, 67
7, 182880, Note_on_c, 5, 55, 67
7, 182976, Note_off_c, 5, 55, 64
7, 182976, Note_off_c, 5, 67, 64
7, 183120, Note_on_c, 5, 55, 67
7, 183120, Note_on_c, 5, 67, 67
7, 183216, Note_off_c, 5, 67, 64
7, 183216, Note_off_c, 5, 55, 64
7, 183600, Note_on_c, 5, 60, 67
7, 183600, Note_on_c, 5, 67, 67
7, 183696, Note_off_c, 5, 67, 64
7, 183696, Note_off_c, 5, 60, 64
7, 191280, Note_on_c, 5, 55, 81
7, 191280, Note_on_c, 5, 67, 81
7, 191376, Note_off_c, 5, 67, 64
7, 191376, Note_off_c, 5, 55, 64
7, 191520, Note_on_c, 5, 55, 81
7, 191520, Note_on_c, 5, 67, 81
7, 191616, Note_off_c, 5, 67, 64
7, 191616, Note_off_c, 5, 55, 64
7, 191760, Note_on_c, 5, 67, 81
7, 191760, Note_on_c, 5, 55, 81
7, 191856, Note_off_c, 5, 55, 64
7, 191856, Note_off_c, 5, 67, 64
7, 193200, Note_on_c, 5, 55, 72
7, 193200, Note_on_c, 5, 67, 72
7, 193392, Note_off_c, 5, 67, 64
7, 193392, Note_off_c, 5, 55, 64
7, 194160, Note_on_c, 5, 72, 72
7, 194160, Note_on_c, 5, 60, 72
7, 194352, Note_off_c, 5, 60, 64
7, 194352, Note_off_c, 5, 72, 64
7, 194640, Note_on_c, 5, 72, 72
7, 194640, Note_on_c, 5, 60, 72
7, 194832, Note_off_c, 5, 60, 64
7, 194832, Note_off_c, 5, 72, 64
7, 195600, Note_on_c, 5, 67, 72
7, 195600, Note_on_c, 5, 55, 72
7, 195792, Note_off_c, 5, 55, 64
7, 195792, Note_off_c, 5, 67, 64
7, 196080, Note_on_c, 5, 72, 72
7, 196080, Note_on_c, 5, 60, 72
7, 196272, Note_off_c, 5, 60, 64
7, 196272, Note_off_c, 5, 72, 64
7, 196560, Note_on_c, 5, 72, 72
7, 196560, Note_on_c, 5, 60, 72
7, 196752, Note_off_c, 5, 60, 64
7, 196752, Note_off_c, 5, 72, 64
7, 197520, Note_on_c, 5, 67, 72
7, 197520, Note_on_c, 5, 55, 72
7, 197712, Note_off_c, 5, 55, 64
7, 197712, Note_off_c, 5, 67, 64
7, 198000, Note_on_c, 5, 72, 72
7, 198000, Note_on_c, 5, 60, 72
7, 198192, Note_off_c, 5, 60, 64
7, 198192, Note_off_c, 5, 72, 64
7, 198480, Note_on_c, 5, 72, 72
7, 198480, Note_on_c, 5, 60, 72
7, 198672, Note_off_c, 5, 60, 64
7, 198672, Note_off_c, 5, 72, 64
7, 198960, Note_on_c, 5, 55, 72
7, 198960, Note_on_c, 5, 67, 72
7, 199152, Note_off_c, 5, 67, 64
7, 199152, Note_off_c, 5, 55, 64
7, 199440, Note_on_c, 5, 60, 72
7, 199440, Note_on_c, 5, 72, 72
7, 199632, Note_off_c, 5, 72, 64
7, 199632, Note_off_c, 5, 60, 64
7, 199920, Note_on_c, 5, 67, 87
7, 199920, Note_on_c, 5, 74, 67
7, 200016, Note_off_c, 5, 74, 64
7, 200016, Note_off_c, 5, 67, 64
7, 200160, Note_on_c, 5, 67, 67
7, 200160, Note_on_c, 5, 74, 67
7, 200256, Note_off_c, 5, 74, 64
7, 200256, Note_off_c, 5, 67, 64
7, 200400, Note_on_c, 5, 74, 67
7, 200400, Note_on_c, 5, 67, 67
7, 200496, Note_off_c, 5, 67, 64
7, 200496, Note_off_c, 5, 74, 64
7, 200880, Note_on_c, 5, 72, 87
7, 200880, Note_on_c, 5, 60, 67
7, 200976, Note_off_c, 5, 60, 64
7, 200976, Note_off_c, 5, 72, 64
7, 201120, Note_on_c, 5, 72, 67
7, 201120, Note_on_c, 5, 60, 67
7, 201216, Note_off_c, 5, 60, 64
7, 201216, Note_off_c, 5, 72, 64
7, 201360, Note_on_c, 5, 60, 67
7, 201360, Note_on_c, 5, 72, 67
7, 201456, Note_off_c, 5, 72, 64
7, 201456, Note_off_c, 5, 60, 64
7, 201840, Note_on_c, 5, 67, 87
7, 201840, Note_on_c, 5, 74, 67
7, 201936, Note_off_c, 5, 74, 64
7, 201936, Note_off_c, 5, 67, 64
7, 202080, Note_on_c, 5, 74, 67
7, 202080, Note_on_c, 5, 67, 67
7, 202176, Note_off_c, 5, 67, 64
7, 202176, Note_off_c, 5, 74, 64
7, 202320, Note_on_c, 5, 74, 67
7, 202320, Note_on_c, 5, 67, 67
7, 202416, Note_off_c, 5, 67, 64
7, 202416, Note_off_c, 5, 74, 64
7, 202800, Note_on_c, 5, 60, 67
7, 202800, Note_on_c, 5, 72, 67
7, 202896, Note_off_c, 5, 72, 64
7, 202896, Note_off_c, 5, 60, 64
7, 203760, Note_on_c, 5, 67, 72
7, 203760, Note_on_c, 5, 55, 72
7, 204144, Note_off_c, 5, 55, 64
7, 204144, Note_off_c, 5, 67, 64
7, 204240, Note_on_c, 5, 55, 72
7, 204240, Note_on_c, 5, 67, 72
7, 204624, Note_off_c, 5, 67, 64
7, 204624, Note_off_c, 5, 55, 64
7, 206160, Note_on_c, 5, 55, 72
7, 206160, Note_on_c, 5, 67, 72
7, 206544, Note_off_c, 5, 67, 64
7, 206544, Note_off_c, 5, 55, 64
7, 208080, Note_on_c, 5, 72, 72
7, 208080, Note_on_c, 5, 60, 72
7, 208464, Note_off_c, 5, 60, 64
7, 208464, Note_off_c, 5, 72, 64
7, 209040, Note_on_c, 5, 55, 72
7, 209040, Note_on_c, 5, 67, 72
7, 209424, Note_off_c, 5, 67, 64
7, 209424, Note_off_c, 5, 55, 64
7, 210000, Note_on_c, 5, 72, 72
7, 210000, Note_on_c, 5, 60, 72
7, 210384, Note_off_c, 5, 60, 64
7, 210384, Note_off_c, 5, 72, 64
7, 210960, Note_on_c, 5, 55, 72
7, 210960, Note_on_c, 5, 67, 72
7, 211344, Note_off_c, 5, 67, 64
7, 211344, Note_off_c, 5, 55, 64
7, 211920, Note_on_c, 5, 60, 72
7, 211920, Note_on_c, 5, 72, 72
7, 212304, Note_off_c, 5, 72, 64
7, 212304, Note_off_c, 5, 60, 64
7, 212640, Note_on_c, 5, 67, 72
7, 212640, Note_on_c, 5, 55, 72
7, 212866, Note_off_c, 5, 55, 64
7, 212866, Note_off_c, 5, 67, 64
7, 212880, Note_on_c, 5, 55, 72
7, 212880, Note_on_c, 5, 67, 72
7, 213106, Note_off_c, 5, 67, 64
7, 213106, Note_off_c, 5, 55, 64
7, 213120, Note_on_c, 5, 55, 72
7, 213120, Note_on_c, 5, 67, 72
7, 213346, Note_off_c, 5, 67, 64
7, 213346, Note_off_c, 5, 55, 64
7, 213360, Note_on_c, 5, 55, 101
7, 213360, Note_on_c, 5, 67, 101
7, 213456, Note_off_c, 5, 67, 64
7, 213456, Note_off_c, 5, 55, 64
7, 213600, Note_on_c, 5, 67, 101
7, 213600, Note_on_c, 5, 55, 101
7, 213696, Note_off_c, 5, 55, 64
7, 213696, Note_off_c, 5, 67, 64
7, 213840, Note_on_c, 5, 55, 101
7, 213840, Note_on_c, 5, 67, 101
7, 213936, Note_off_c, 5, 67, 64
7, 213936, Note_off_c, 5, 55, 64
7, 214320, Note_on_c, 5, 72, 101
7, 214320, Note_on_c, 5, 60, 101
7, 214416, Note_off_c, 5, 60, 64
7, 214416, Note_off_c, 5, 72, 64
7, 214560, Note_on_c, 5, 72, 101
7, 214560, Note_on_c, 5, 60, 101
7, 214656, Note_off_c, 5, 60, 64
7, 214656, Note_off_c, 5, 72, 64
7, 214800, Note_on_c, 5, 60, 101
7, 214800, Note_on_c, 5, 72, 101
7, 214896, Note_off_c, 5, 72, 64
7, 214896, Note_off_c, 5, 60, 64
7, 215280, Note_on_c, 5, 79, 114
7, 215280, Note_on_c, 5, 67, 114
7, 217104, Note_off_c, 5, 67, 64
7, 217104, Note_off_c, 5, 79, 64
7, 217200, Note_on_c, 5, 64, 101
7, 217200, Note_on_c, 5, 76, 101
7, 217392, Note_off_c, 5, 76, 64
7, 217392, Note_off_c, 5, 64, 64
7, 217680, Note_on_c, 5, 64, 101
7, 217680, Note_on_c, 5, 76, 101
7, 217872, Note_off_c, 5, 76, 64
7, 217872, Note_off_c, 5, 64, 64
7, 218640, Note_on_c, 5, 74, 101
7, 218640, Note_on_c, 5, 67, 101
7, 218832, Note_off_c, 5, 67, 64
7, 218832, Note_off_c, 5, 74, 64
7, 219120, Note_on_c, 5, 60, 101
7, 219120, Note_on_c, 5, 72, 101
7, 219312, Note_off_c, 5, 72, 64
7, 219312, Note_off_c, 5, 60, 64
7, 219600, Note_on_c, 5, 60, 101
7, 219600, Note_on_c, 5, 72, 101
7, 219792, Note_off_c, 5, 72, 64
7, 219792, Note_off_c, 5, 60, 64
7, 220560, Note_on_c, 5, 72, 101
7, 220560, Note_on_c, 5, 60, 101
7, 220752, Note_off_c, 5, 60, 64
7, 220752, Note_off_c, 5, 72, 64
7, 221040, Note_on_c, 5, 60, 101
7, 221040, Note_on_c, 5, 72, 101
7, 221232, Note_off_c, 5, 72, 64
7, 221232, Note_off_c, 5, 60, 64
7, 221520, Note_on_c, 5, 60, 101
7, 221520, Note_on_c, 5, 72, 101
7, 221712, Note_off_c, 5, 72, 64
7, 221712, Note_off_c, 5, 60, 64
7, 222480, Note_on_c, 5, 72, 101
7, 222480, Note_on_c, 5, 60, 101
7, 222672, Note_off_c, 5, 60, 64
7, 222672, Note_off_c, 5, 72, 64
7, 222960, Note_on_c, 5, 55, 81
7, 222960, Note_on_c, 5, 67, 81
7, 223056, Note_off_c, 5, 67, 64
7, 223056, Note_off_c, 5, 55, 64
7, 223200, Note_on_c, 5, 55, 81
7, 223200, Note_on_c, 5, 67, 81
7, 223296, Note_off_c, 5, 67, 64
7, 223296, Note_off_c, 5, 55, 64
7, 223440, Note_on_c, 5, 55, 81
7, 223440, Note_on_c, 5, 67, 81
7, 223536, Note_off_c, 5, 67, 64
7, 223536, Note_off_c, 5, 55, 64
7, 223920, Note_on_c, 5, 67, 81
7, 223920, Note_on_c, 5, 60, 81
7, 224016, Note_off_c, 5, 60, 64
7, 224016, Note_off_c, 5, 67, 64
7, 224160, Note_on_c, 5, 67, 81
7, 224160, Note_on_c, 5, 60, 81
7, 224256, Note_off_c, 5, 60, 64
7, 224256, Note_off_c, 5, 67, 64
7, 224400, Note_on_c, 5, 67, 81
7, 224400, Note_on_c, 5, 60, 81
7, 224496, Note_off_c, 5, 60, 64
7, 224496, Note_off_c, 5, 67, 64
7, 224880, Note_on_c, 5, 67, 81
7, 224880, Note_on_c, 5, 55, 81
7, 224976, Note_off_c, 5, 55, 64
7, 224976, Note_off_c, 5, 67, 64
7, 225120, Note_on_c, 5, 67, 81
7, 225120, Note_on_c, 5, 55, 81
7, 225216, Note_off_c, 5, 55, 64
7, 225216, Note_off_c, 5, 67, 64
7, 225360, Note_on_c, 5, 67, 81
7, 225360, Note_on_c, 5, 55, 81
7, 225456, Note_off_c, 5, 55, 64
7, 225456, Note_off_c, 5, 67, 64
7, 225840, Note_on_c, 5, 76, 81
7, 225840, Note_on_c, 5, 64, 81
7, 225936, Note_off_c, 5, 64, 64
7, 225936, Note_off_c, 5, 76, 64
7, 226080, Note_on_c, 5, 64, 81
7, 226080, Note_on_c, 5, 76, 81
7, 226176, Note_off_c, 5, 76, 64
7, 226176, Note_off_c, 5, 64, 64
7, 226320, Note_on_c, 5, 64, 81
7, 226320, Note_on_c, 5, 76, 81
7, 226416, Note_off_c, 5, 76, 64
7, 226416, Note_off_c, 5, 64, 64
7, 226800, Note_on_c, 5, 76, 69
7, 226800, Note_on_c, 5, 64, 69
7, 226896, Note_off_c, 5, 64, 64
7, 226896, Note_off_c, 5, 76, 64
7, 227040, Note_on_c, 5, 64, 69
7, 227040, Note_on_c, 5, 76, 69
7, 227136, Note_off_c, 5, 76, 64
7, 227136, Note_off_c, 5, 64, 64
7, 227280, Note_on_c, 5, 64, 69
7, 227280, Note_on_c, 5, 76, 69
7, 227376, Note_off_c, 5, 76, 64
7, 227376, Note_off_c, 5, 64, 64
7, 227760, Note_on_c, 5, 76, 69
7, 227760, Note_on_c, 5, 64, 69
7, 227856, Note_off_c, 5, 64, 64
7, 227856, Note_off_c, 5, 76, 64
7, 228000, Note_on_c, 5, 64, 69
7, 228000, Note_on_c, 5, 76, 69
7, 228096, Note_off_c, 5, 76, 64
7, 228096, Note_off_c, 5, 64, 64
7, 228240, Note_on_c, 5, 76, 69
7, 228240, Note_on_c, 5, 64, 69
7, 228336, Note_off_c, 5, 64, 64
7, 228336, Note_off_c, 5, 76, 64
7, 228720, Note_on_c, 5, 74, 52
7, 228816, Note_off_c, 5, 74, 64
7, 228960, Note_on_c, 5, 74, 52
7, 229056, Note_off_c, 5, 74, 64
7, 229200, Note_on_c, 5, 74, 52
7, 229296, Note_off_c, 5, 74, 64
7, 229680, Note_on_c, 5, 74, 52
7, 229680, Note_on_c, 5, 67, 52
7, 229776, Note_off_c, 5, 67, 64
7, 229776, Note_off_c, 5, 74, 64
7, 229920, Note_on_c, 5, 67, 52
7, 229920, Note_on_c, 5, 74, 52
7, 230016, Note_off_c, 5, 74, 64
7, 230016, Note_off_c, 5, 67, 64
7, 230160, Note_on_c, 5, 74, 52
7, 230160, Note_on_c, 5, 67, 52
7, 230256, Note_off_c, 5, 67, 64
7, 230256, Note_off_c, 5, 74, 64
7, 230640, Note_on_c, 5, 72, 52
7, 230736, Note_off_c, 5, 72, 64
7, 230880, Note_on_c, 5, 72, 52
7, 230976, Note_off_c, 5, 72, 64
7, 231120, Note_on_c, 5, 72, 52
7, 231216, Note_off_c, 5, 72, 64
7, 232560, Note_on_c, 5, 67, 72
7, 232560, Note_on_c, 5, 55, 72
7, 232944, Note_off_c, 5, 55, 64
7, 232944, Note_off_c, 5, 67, 64
7, 295920, Note_on_c, 5, 55, 80
7, 295920, Note_on_c, 5, 67, 80
7, 296304, Note_off_c, 5, 67, 64
7, 296304, Note_off_c, 5, 55, 64
7, 296400, Note_on_c, 5, 60, 80
7, 296400, Note_on_c, 5, 72, 80
7, 296784, Note_off_c, 5, 72, 64
7, 296784, Note_off_c, 5, 60, 64
7, 297840, Note_on_c, 5, 55, 80
7, 297840, Note_on_c, 5, 67, 80
7, 298224, Note_off_c, 5, 67, 64
7, 298224, Note_off_c, 5, 55, 64
7, 298320, Note_on_c, 5, 60, 80
7, 298320, Note_on_c, 5, 72, 80
7, 298704, Note_off_c, 5, 72, 64
7, 298704, Note_off_c, 5, 60, 64
7, 299280, Note_on_c, 5, 67, 80
7, 299280, Note_on_c, 5, 55, 80
7, 299664, Note_off_c, 5, 55, 64
7, 299664, Note_off_c, 5, 67, 64
7, 300240, Note_on_c, 5, 60, 80
7, 300240, Note_on_c, 5, 72, 80
7, 300624, Note_off_c, 5, 72, 64
7, 300624, Note_off_c, 5, 60, 64
7, 302160, Note_on_c, 5, 79, 80
7, 302160, Note_on_c, 5, 67, 80
7, 302544, Note_off_c, 5, 67, 64
7, 302544, Note_off_c, 5, 79, 64
7, 303120, Note_on_c, 5, 67, 80
7, 303120, Note_on_c, 5, 79, 80
7, 303504, Note_off_c, 5, 79, 64
7, 303504, Note_off_c, 5, 67, 64
7, 304080, Note_on_c, 5, 79, 80
7, 304080, Note_on_c, 5, 67, 80
7, 304464, Note_off_c, 5, 67, 64
7, 304464, Note_off_c, 5, 79, 64
7, 305040, Note_on_c, 5, 79, 80
7, 305040, Note_on_c, 5, 67, 80
7, 305424, Note_off_c, 5, 67, 64
7, 305424, Note_off_c, 5, 79, 64
7, 306000, Note_on_c, 5, 79, 80
7, 306000, Note_on_c, 5, 67, 80
7, 306384, Note_off_c, 5, 67, 64
7, 306384, Note_off_c, 5, 79, 64
7, 306540, Note_on_c, 5, 67, 80
7, 306540, Note_on_c, 5, 79, 80
7, 306924, Note_off_c, 5, 79, 64
7, 306924, Note_off_c, 5, 67, 64
7, 307080, Note_on_c, 5, 79, 80
7, 307080, Note_on_c, 5, 67, 80
7, 307464, Note_off_c, 5, 67, 64
7, 307464, Note_off_c, 5, 79, 64
7, 307680, Note_on_c, 5, 64, 120
7, 307680, Note_on_c, 5, 76, 120
7, 308448, Note_off_c, 5, 76, 64
7, 308448, Note_off_c, 5, 64, 64
7, 308640, Note_on_c, 5, 55, 120
7, 308640, Note_on_c, 5, 67, 120
7, 309024, Note_off_c, 5, 67, 64
7, 309024, Note_off_c, 5, 55, 64
7, 309120, Note_on_c, 5, 60, 120
7, 309120, Note_on_c, 5, 72, 120
7, 309216, Note_off_c, 5, 72, 64
7, 309216, Note_off_c, 5, 60, 64
7, 309360, Note_on_c, 5, 72, 120
7, 309360, Note_on_c, 5, 60, 120
7, 309456, Note_off_c, 5, 60, 64
7, 309456, Note_off_c, 5, 72, 64
7, 309600, Note_on_c, 5, 72, 120
7, 309600, Note_on_c, 5, 60, 120
7, 309984, Note_off_c, 5, 60, 64
7, 309984, Note_off_c, 5, 72, 64
7, 310560, Note_on_c, 5, 55, 120
7, 310560, Note_on_c, 5, 67, 120
7, 310944, Note_off_c, 5, 67, 64
7, 310944, Note_off_c, 5, 55, 64
7, 311040, Note_on_c, 5, 72, 120
7, 311040, Note_on_c, 5, 60, 120
7, 311136, Note_off_c, 5, 60, 64
7, 311136, Note_off_c, 5, 72, 64
7, 311280, Note_on_c, 5, 72, 120
7, 311280, Note_on_c, 5, 60, 120
7, 311376, Note_off_c, 5, 60, 64
7, 311376, Note_off_c, 5, 72, 64
7, 311520, Note_on_c, 5, 60, 120
7, 311520, Note_on_c, 5, 72, 120
7, 311904, Note_off_c, 5, 72, 64
7, 311904, Note_off_c, 5, 60, 64
7, 312480, Note_on_c, 5, 55, 120
7, 312480, Note_on_c, 5, 67, 120
7, 312864, Note_off_c, 5, 67, 64
7, 312864, Note_off_c, 5, 55, 64
7, 312960, Note_on_c, 5, 72, 120
7, 312960, Note_on_c, 5, 60, 120
7, 313056, Note_off_c, 5, 60, 64
7, 313056, Note_off_c, 5, 72, 64
7, 313200, Note_on_c, 5, 72, 120
7, 313200, Note_on_c, 5, 60, 120
7, 313296, Note_off_c, 5, 60, 64
7, 313296, Note_off_c, 5, 72, 64
7, 313440, Note_on_c, 5, 60, 120
7, 313440, Note_on_c, 5, 72, 120
7, 313824, Note_off_c, 5, 72, 64
7, 313824, Note_off_c, 5, 60, 64
7, 313920, Note_on_c, 5, 60, 120
7, 313920, Note_on_c, 5, 72, 120
7, 314304, Note_off_c, 5, 72, 64
7, 314304, Note_off_c, 5, 60, 64
7, 314400, Note_on_c, 5, 67, 120
7, 314400, Note_on_c, 5, 55, 120
7, 314784, Note_off_c, 5, 55, 64
7, 314784, Note_off_c, 5, 67, 64
7, 314880, Note_on_c, 5, 55, 120
7, 314880, Note_on_c, 5, 67, 120
7, 315264, Note_off_c, 5, 67, 64
7, 315264, Note_off_c, 5, 55, 64
7, 315360, Note_on_c, 5, 76, 120
7, 315360, Note_on_c, 5, 64, 120
7, 316128, Note_off_c, 5, 64, 64
7, 316128, Note_off_c, 5, 76, 64
7, 316320, Note_on_c, 5, 55, 120
7, 316320, Note_on_c, 5, 67, 120
7, 316704, Note_off_c, 5, 67, 64
7, 316704, Note_off_c, 5, 55, 64
7, 316800, Note_on_c, 5, 60, 120
7, 316800, Note_on_c, 5, 72, 120
7, 316896, Note_off_c, 5, 72, 64
7, 316896, Note_off_c, 5, 60, 64
7, 317040, Note_on_c, 5, 72, 120
7, 317040, Note_on_c, 5, 60, 120
7, 317136, Note_off_c, 5, 60, 64
7, 317136, Note_off_c, 5, 72, 64
7, 317280, Note_on_c, 5, 60, 120
7, 317280, Note_on_c, 5, 72, 120
7, 317664, Note_off_c, 5, 72, 64
7, 317664, Note_off_c, 5, 60, 64
7, 318240, Note_on_c, 5, 55, 120
7, 318240, Note_on_c, 5, 67, 120
7, 318624, Note_off_c, 5, 67, 64
7, 318624, Note_off_c, 5, 55, 64
7, 318720, Note_on_c, 5, 72, 120
7, 318720, Note_on_c, 5, 60, 120
7, 318816, Note_off_c, 5, 60, 64
7, 318816, Note_off_c, 5, 72, 64
7, 318960, Note_on_c, 5, 72, 120
7, 318960, Note_on_c, 5, 60, 120
7, 319056, Note_off_c, 5, 60, 64
7, 319056, Note_off_c, 5, 72, 64
7, 319200, Note_on_c, 5, 72, 120
7, 319200, Note_on_c, 5, 60, 120
7, 319584, Note_off_c, 5, 60, 64
7, 319584, Note_off_c, 5, 72, 64
7, 320160, Note_on_c, 5, 55, 120
7, 320160, Note_on_c, 5, 67, 120
7, 320544, Note_off_c, 5, 67, 64
7, 320544, Note_off_c, 5, 55, 64
7, 320640, Note_on_c, 5, 72, 120
7, 320640, Note_on_c, 5, 60, 120
7, 320736, Note_off_c, 5, 60, 64
7, 320736, Note_off_c, 5, 72, 64
7, 320880, Note_on_c, 5, 72, 120
7, 320880, Note_on_c, 5, 60, 120
7, 320976, Note_off_c, 5, 60, 64
7, 320976, Note_off_c, 5, 72, 64
7, 321120, Note_on_c, 5, 72, 120
7, 321120, Note_on_c, 5, 60, 120
7, 321504, Note_off_c, 5, 60, 64
7, 321504, Note_off_c, 5, 72, 64
7, 321600, Note_on_c, 5, 72, 120
7, 321600, Note_on_c, 5, 60, 120
7, 321984, Note_off_c, 5, 60, 64
7, 321984, Note_off_c, 5, 72, 64
7, 322080, Note_on_c, 5, 55, 120
7, 322080, Note_on_c, 5, 67, 120
7, 322464, Note_off_c, 5, 67, 64
7, 322464, Note_off_c, 5, 55, 64
7, 322560, Note_on_c, 5, 59, 120
7, 322560, Note_on_c, 5, 71, 120
7, 322944, Note_off_c, 5, 71, 64
7, 322944, Note_off_c, 5, 59, 64
7, 323040, Note_on_c, 5, 64, 120
7, 323040, Note_on_c, 5, 76, 120
7, 323266, Note_off_c, 5, 76, 64
7, 323266, Note_off_c, 5, 64, 64
7, 326880, Note_on_c, 5, 76, 120
7, 326880, Note_on_c, 5, 64, 120
7, 327106, Note_off_c, 5, 64, 64
7, 327106, Note_off_c, 5, 76, 64
7, 330720, Note_on_c, 5, 76, 72
7, 330720, Note_on_c, 5, 64, 72
7, 330946, Note_off_c, 5, 64, 64
7, 330946, Note_off_c, 5, 76, 64
7, 331680, Note_on_c, 5, 76, 72
7, 331680, Note_on_c, 5, 64, 72
7, 331906, Note_off_c, 5, 64, 64
7, 331906, Note_off_c, 5, 76, 64
7, 332640, Note_on_c, 5, 76, 96
7, 332640, Note_on_c, 5, 64, 96
7, 332866, Note_off_c, 5, 64, 64
7, 332866, Note_off_c, 5, 76, 64
7, 333600, Note_on_c, 5, 76, 96
7, 333600, Note_on_c, 5, 64, 96
7, 333826, Note_off_c, 5, 64, 64
7, 333826, Note_off_c, 5, 76, 64
7, 334560, Note_on_c, 5, 76, 80
7, 334560, Note_on_c, 5, 64, 80
7, 334752, Note_off_c, 5, 64, 64
7, 334752, Note_off_c, 5, 76, 64
7, 335520, Note_on_c, 5, 76, 80
7, 335520, Note_on_c, 5, 64, 80
7, 335712, Note_off_c, 5, 64, 64
7, 335712, Note_off_c, 5, 76, 64
7, 336000, Note_on_c, 5, 64, 80
7, 336000, Note_on_c, 5, 76, 80
7, 336192, Note_off_c, 5, 76, 64
7, 336192, Note_off_c, 5, 64, 64
7, 336480, Note_on_c, 5, 64, 80
7, 336480, Note_on_c, 5, 76, 80
7, 336672, Note_off_c, 5, 76, 64
7, 336672, Note_off_c, 5, 64, 64
7, 337440, Note_on_c, 5, 64, 80
7, 337440, Note_on_c, 5, 76, 80
7, 337632, Note_off_c, 5, 76, 64
7, 337632, Note_off_c, 5, 64, 64
7, 340320, Note_on_c, 5, 79, 26
7, 340320, Note_on_c, 5, 67, 26
7, 342240, Note_off_c, 5, 67, 64
7, 342240, Note_off_c, 5, 79, 64
7, 342240, Note_on_c, 5, 64, 16
7, 342240, Note_on_c, 5, 76, 16
7, 343080, Note_off_c, 5, 76, 64
7, 343080, Note_off_c, 5, 64, 64
7, 355680, Note_on_c, 5, 72, 72
7, 355680, Note_on_c, 5, 60, 72
7, 356064, Note_off_c, 5, 60, 64
7, 356064, Note_off_c, 5, 72, 64
7, 356640, Note_on_c, 5, 55, 82
7, 356640, Note_on_c, 5, 67, 82
7, 357024, Note_off_c, 5, 67, 64
7, 357024, Note_off_c, 5, 55, 64
7, 357120, Note_on_c, 5, 55, 86
7, 357120, Note_on_c, 5, 67, 86
7, 357216, Note_off_c, 5, 67, 64
7, 357216, Note_off_c, 5, 55, 64
7, 357360, Note_on_c, 5, 55, 89
7, 357360, Note_on_c, 5, 67, 89
7, 357456, Note_off_c, 5, 67, 64
7, 357456, Note_off_c, 5, 55, 64
7, 357600, Note_on_c, 5, 60, 91
7, 357600, Note_on_c, 5, 72, 91
7, 357696, Note_off_c, 5, 72, 64
7, 357696, Note_off_c, 5, 60, 64
7, 357840, Note_on_c, 5, 55, 94
7, 357840, Note_on_c, 5, 67, 94
7, 357936, Note_off_c, 5, 67, 64
7, 357936, Note_off_c, 5, 55, 64
7, 358080, Note_on_c, 5, 55, 96
7, 358080, Note_on_c, 5, 67, 96
7, 358176, Note_off_c, 5, 67, 64
7, 358176, Note_off_c, 5, 55, 64
7, 358320, Note_on_c, 5, 67, 98
7, 358320, Note_on_c, 5, 55, 98
7, 358416, Note_off_c, 5, 55, 64
7, 358416, Note_off_c, 5, 67, 64
7, 358560, Note_on_c, 5, 67, 101
7, 358560, Note_on_c, 5, 55, 101
7, 358656, Note_off_c, 5, 55, 64
7, 358656, Note_off_c, 5, 67, 64
7, 358800, Note_on_c, 5, 55, 103
7, 358800, Note_on_c, 5, 67, 103
7, 358896, Note_off_c, 5, 67, 64
7, 358896, Note_off_c, 5, 55, 64
7, 359040, Note_on_c, 5, 55, 105
7, 359040, Note_on_c, 5, 67, 105
7, 359136, Note_off_c, 5, 67, 64
7, 359136, Note_off_c, 5, 55, 64
7, 359280, Note_on_c, 5, 55, 108
7, 359280, Note_on_c, 5, 67, 108
7, 359376, Note_off_c, 5, 67, 64
7, 359376, Note_off_c, 5, 55, 64
7, 359520, Note_on_c, 5, 67, 80
7, 359520, Note_on_c, 5, 55, 60
7, 359616, Note_off_c, 5, 55, 64
7, 359616, Note_off_c, 5, 67, 64
7, 359760, Note_on_c, 5, 67, 60
7, 359760, Note_on_c, 5, 55, 60
7, 359856, Note_off_c, 5, 55, 64
7, 359856, Note_off_c, 5, 67, 64
7, 360000, Note_on_c, 5, 67, 60
7, 360000, Note_on_c, 5, 55, 60
7, 360096, Note_off_c, 5, 55, 64
7, 360096, Note_off_c, 5, 67, 64
7, 360480, Note_on_c, 5, 67, 80
7, 360480, Note_on_c, 5, 55, 60
7, 360576, Note_off_c, 5, 55, 64
7, 360576, Note_off_c, 5, 67, 64
7, 360720, Note_on_c, 5, 55, 60
7, 360720, Note_on_c, 5, 67, 60
7, 360816, Note_off_c, 5, 67, 64
7, 360816, Note_off_c, 5, 55, 64
7, 360960, Note_on_c, 5, 55, 60
7, 360960, Note_on_c, 5, 67, 60
7, 361056, Note_off_c, 5, 67, 64
7, 361056, Note_off_c, 5, 55, 64
7, 361440, Note_on_c, 5, 55, 60
7, 361440, Note_on_c, 5, 67, 80
7, 361536, Note_off_c, 5, 67, 64
7, 361536, Note_off_c, 5, 55, 64
7, 361680, Note_on_c, 5, 67, 60
7, 361680, Note_on_c, 5, 55, 60
7, 361776, Note_off_c, 5, 55, 64
7, 361776, Note_off_c, 5, 67, 64
7, 361920, Note_on_c, 5, 55, 60
7, 361920, Note_on_c, 5, 67, 60
7, 362016, Note_off_c, 5, 67, 64
7, 362016, Note_off_c, 5, 55, 64
7, 362400, Note_on_c, 5, 67, 80
7, 362400, Note_on_c, 5, 55, 60
7, 362496, Note_off_c, 5, 55, 64
7, 362496, Note_off_c, 5, 67, 64
7, 362640, Note_on_c, 5, 55, 60
7, 362640, Note_on_c, 5, 67, 60
7, 362736, Note_off_c, 5, 67, 64
7, 362736, Note_off_c, 5, 55, 64
7, 362880, Note_on_c, 5, 67, 60
7, 362880, Note_on_c, 5, 55, 60
7, 362976, Note_off_c, 5, 55, 64
7, 362976, Note_off_c, 5, 67, 64
7, 363360, Note_on_c, 5, 67, 80
7, 363360, Note_on_c, 5, 55, 60
7, 363456, Note_off_c, 5, 55, 64
7, 363456, Note_off_c, 5, 67, 64
7, 363600, Note_on_c, 5, 55, 60
7, 363600, Note_on_c, 5, 67, 60
7, 363696, Note_off_c, 5, 67, 64
7, 363696, Note_off_c, 5, 55, 64
7, 363840, Note_on_c, 5, 67, 60
7, 363840, Note_on_c, 5, 55, 60
7, 363936, Note_off_c, 5, 55, 64
7, 363936, Note_off_c, 5, 67, 64
7, 364320, Note_on_c, 5, 55, 60
7, 364320, Note_on_c, 5, 67, 80
7, 364416, Note_off_c, 5, 67, 64
7, 364416, Note_off_c, 5, 55, 64
7, 364560, Note_on_c, 5, 55, 60
7, 364560, Note_on_c, 5, 67, 60
7, 364656, Note_off_c, 5, 67, 64
7, 364656, Note_off_c, 5, 55, 64
7, 364800, Note_on_c, 5, 55, 60
7, 364800, Note_on_c, 5, 67, 60
7, 364896, Note_off_c, 5, 67, 64
7, 364896, Note_off_c, 5, 55, 64
7, 365280, Note_on_c, 5, 55, 60
7, 365280, Note_on_c, 5, 67, 80
7, 365376, Note_off_c, 5, 67, 64
7, 365376, Note_off_c, 5, 55, 64
7, 365520, Note_on_c, 5, 67, 60
7, 365520, Note_on_c, 5, 55, 60
7, 365616, Note_off_c, 5, 55, 64
7, 365616, Note_off_c, 5, 67, 64
7, 365760, Note_on_c, 5, 55, 60
7, 365760, Note_on_c, 5, 67, 60
7, 365856, Note_off_c, 5, 67, 64
7, 365856, Note_off_c, 5, 55, 64
7, 366240, Note_on_c, 5, 67, 80
7, 366240, Note_on_c, 5, 55, 60
7, 366336, Note_off_c, 5, 55, 64
7, 366336, Note_off_c, 5, 67, 64
7, 366480, Note_on_c, 5, 55, 60
7, 366480, Note_on_c, 5, 67, 60
7, 366576, Note_off_c, 5, 67, 64
7, 366576, Note_off_c, 5, 55, 64
7, 366720, Note_on_c, 5, 67, 60
7, 366720, Note_on_c, 5, 55, 60
7, 366816, Note_off_c, 5, 55, 64
7, 366816, Note_off_c, 5, 67, 64
7, 367200, Note_on_c, 5, 55, 60
7, 367200, Note_on_c, 5, 67, 80
7, 367296, Note_off_c, 5, 67, 64
7, 367296, Note_off_c, 5, 55, 64
7, 367440, Note_on_c, 5, 55, 60
7, 367440, Note_on_c, 5, 67, 60
7, 367536, Note_off_c, 5, 67, 64
7, 367536, Note_off_c, 5, 55, 64
7, 367680, Note_on_c, 5, 67, 60
7, 367680, Note_on_c, 5, 55, 60
7, 367776, Note_off_c, 5, 55, 64
7, 367776, Note_off_c, 5, 67, 64
7, 368160, Note_on_c, 5, 55, 60
7, 368160, Note_on_c, 5, 67, 80
7, 368256, Note_off_c, 5, 67, 64
7, 368256, Note_off_c, 5, 55, 64
7, 368400, Note_on_c, 5, 67, 60
7, 368400, Note_on_c, 5, 55, 60
7, 368496, Note_off_c, 5, 55, 64
7, 368496, Note_off_c, 5, 67, 64
7, 368640, Note_on_c, 5, 55, 60
7, 368640, Note_on_c, 5, 67, 60
7, 368736, Note_off_c, 5, 67, 64
7, 368736, Note_off_c, 5, 55, 64
7, 369120, Note_on_c, 5, 55, 60
7, 369120, Note_on_c, 5, 67, 80
7, 369216, Note_off_c, 5, 67, 64
7, 369216, Note_off_c, 5, 55, 64
7, 369360, Note_on_c, 5, 67, 60
7, 369360, Note_on_c, 5, 55, 60
7, 369456, Note_off_c, 5, 55, 64
7, 369456, Note_off_c, 5, 67, 64
7, 369600, Note_on_c, 5, 67, 60
7, 369600, Note_on_c, 5, 55, 60
7, 369696, Note_off_c, 5, 55, 64
7, 369696, Note_off_c, 5, 67, 64
7, 370080, Note_on_c, 5, 67, 80
7, 370080, Note_on_c, 5, 55, 60
7, 370176, Note_off_c, 5, 55, 64
7, 370176, Note_off_c, 5, 67, 64
7, 370320, Note_on_c, 5, 67, 60
7, 370320, Note_on_c, 5, 55, 60
7, 370416, Note_off_c, 5, 55, 64
7, 370416, Note_off_c, 5, 67, 64
7, 370560, Note_on_c, 5, 67, 60
7, 370560, Note_on_c, 5, 55, 60
7, 370656, Note_off_c, 5, 55, 64
7, 370656, Note_off_c, 5, 67, 64
7, 371040, Note_on_c, 5, 55, 60
7, 371040, Note_on_c, 5, 67, 80
7, 371136, Note_off_c, 5, 67, 64
7, 371136, Note_off_c, 5, 55, 64
7, 371280, Note_on_c, 5, 55, 60
7, 371280, Note_on_c, 5, 67, 60
7, 371376, Note_off_c, 5, 67, 64
7, 371376, Note_off_c, 5, 55, 64
7, 371520, Note_on_c, 5, 55, 60
7, 371520, Note_on_c, 5, 67, 60
7, 371616, Note_off_c, 5, 67, 64
7, 371616, Note_off_c, 5, 55, 64
7, 372000, Note_on_c, 5, 67, 80
7, 372000, Note_on_c, 5, 55, 60
7, 372096, Note_off_c, 5, 55, 64
7, 372096, Note_off_c, 5, 67, 64
7, 372240, Note_on_c, 5, 67, 60
7, 372240, Note_on_c, 5, 55, 60
7, 372336, Note_off_c, 5, 55, 64
7, 372336, Note_off_c, 5, 67, 64
7, 372480, Note_on_c, 5, 67, 60
7, 372480, Note_on_c, 5, 55, 60
7, 372576, Note_off_c, 5, 55, 64
7, 372576, Note_off_c, 5, 67, 64
7, 372960, Note_on_c, 5, 67, 80
7, 372960, Note_on_c, 5, 55, 60
7, 373056, Note_off_c, 5, 55, 64
7, 373056, Note_off_c, 5, 67, 64
7, 373200, Note_on_c, 5, 55, 60
7, 373200, Note_on_c, 5, 67, 60
7, 373296, Note_off_c, 5, 67, 64
7, 373296, Note_off_c, 5, 55, 64
7, 373440, Note_on_c, 5, 55, 60
7, 373440, Note_on_c, 5, 67, 60
7, 373536, Note_off_c, 5, 67, 64
7, 373536, Note_off_c, 5, 55, 64
7, 373920, Note_on_c, 5, 67, 80
7, 373920, Note_on_c, 5, 55, 60
7, 374016, Note_off_c, 5, 55, 64
7, 374016, Note_off_c, 5, 67, 64
7, 374160, Note_on_c, 5, 55, 60
7, 374160, Note_on_c, 5, 67, 60
7, 374256, Note_off_c, 5, 67, 64
7, 374256, Note_off_c, 5, 55, 64
7, 374400, Note_on_c, 5, 55, 60
7, 374400, Note_on_c, 5, 67, 60
7, 374496, Note_off_c, 5, 67, 64
7, 374496, Note_off_c, 5, 55, 64
7, 374880, Note_on_c, 5, 55, 60
7, 374880, Note_on_c, 5, 67, 80
7, 374976, Note_off_c, 5, 67, 64
7, 374976, Note_off_c, 5, 55, 64
7, 375120, Note_on_c, 5, 67, 60
7, 375120, Note_on_c, 5, 55, 60
7, 375216, Note_off_c, 5, 55, 64
7, 375216, Note_off_c, 5, 67, 64
7, 375360, Note_on_c, 5, 67, 60
7, 375360, Note_on_c, 5, 55, 60
7, 375456, Note_off_c, 5, 55, 64
7, 375456, Note_off_c, 5, 67, 64
7, 375840, Note_on_c, 5, 55, 60
7, 375840, Note_on_c, 5, 67, 80
7, 375936, Note_off_c, 5, 67, 64
7, 375936, Note_off_c, 5, 55, 64
7, 376080, Note_on_c, 5, 55, 60
7, 376080, Note_on_c, 5, 67, 60
7, 376176, Note_off_c, 5, 67, 64
7, 376176, Note_off_c, 5, 55, 64
7, 376320, Note_on_c, 5, 55, 60
7, 376320, Note_on_c, 5, 67, 60
7, 376416, Note_off_c, 5, 67, 64
7, 376416, Note_off_c, 5, 55, 64
7, 376800, Note_on_c, 5, 67, 80
7, 376800, Note_on_c, 5, 55, 60
7, 376896, Note_off_c, 5, 55, 64
7, 376896, Note_off_c, 5, 67, 64
7, 377040, Note_on_c, 5, 67, 60
7, 377040, Note_on_c, 5, 55, 60
7, 377136, Note_off_c, 5, 55, 64
7, 377136, Note_off_c, 5, 67, 64
7, 377280, Note_on_c, 5, 67, 60
7, 377280, Note_on_c, 5, 55, 60
7, 377376, Note_off_c, 5, 55, 64
7, 377376, Note_off_c, 5, 67, 64
7, 377760, Note_on_c, 5, 67, 80
7, 377760, Note_on_c, 5, 55, 60
7, 377856, Note_off_c, 5, 55, 64
7, 377856, Note_off_c, 5, 67, 64
7, 378000, Note_on_c, 5, 55, 60
7, 378000, Note_on_c, 5, 67, 60
7, 378096, Note_off_c, 5, 67, 64
7, 378096, Note_off_c, 5, 55, 64
7, 378240, Note_on_c, 5, 55, 60
7, 378240, Note_on_c, 5, 67, 60
7, 378336, Note_off_c, 5, 67, 64
7, 378336, Note_off_c, 5, 55, 64
7, 378720, Note_on_c, 5, 67, 80
7, 378720, Note_on_c, 5, 55, 60
7, 378816, Note_off_c, 5, 55, 64
7, 378816, Note_off_c, 5, 67, 64
7, 378960, Note_on_c, 5, 67, 60
7, 378960, Note_on_c, 5, 55, 60
7, 379056, Note_off_c, 5, 55, 64
7, 379056, Note_off_c, 5, 67, 64
7, 379200, Note_on_c, 5, 55, 60
7, 379200, Note_on_c, 5, 67, 60
7, 379296, Note_off_c, 5, 67, 64
7, 379296, Note_off_c, 5, 55, 64
7, 379680, Note_on_c, 5, 55, 60
7, 379680, Note_on_c, 5, 67, 80
7, 379776, Note_off_c, 5, 67, 64
7, 379776, Note_off_c, 5, 55, 64
7, 379920, Note_on_c, 5, 67, 60
7, 379920, Note_on_c, 5, 55, 60
7, 380016, Note_off_c, 5, 55, 64
7, 380016, Note_off_c, 5, 67, 64
7, 380160, Note_on_c, 5, 67, 60
7, 380160, Note_on_c, 5, 55, 60
7, 380256, Note_off_c, 5, 55, 64
7, 380256, Note_off_c, 5, 67, 64
7, 380640, Note_on_c, 5, 67, 80
7, 380640, Note_on_c, 5, 55, 60
7, 380736, Note_off_c, 5, 55, 64
7, 380736, Note_off_c, 5, 67, 64
7, 380880, Note_on_c, 5, 67, 60
7, 380880, Note_on_c, 5, 55, 60
7, 380976, Note_off_c, 5, 55, 64
7, 380976, Note_off_c, 5, 67, 64
7, 381120, Note_on_c, 5, 67, 60
7, 381120, Note_on_c, 5, 55, 60
7, 381216, Note_off_c, 5, 55, 64
7, 381216, Note_off_c, 5, 67, 64
7, 381600, Note_on_c, 5, 67, 80
7, 381600, Note_on_c, 5, 55, 60
7, 381696, Note_off_c, 5, 55, 64
7, 381696, Note_off_c, 5, 67, 64
7, 381840, Note_on_c, 5, 55, 60
7, 381840, Note_on_c, 5, 67, 60
7, 381936, Note_off_c, 5, 67, 64
7, 381936, Note_off_c, 5, 55, 64
7, 382080, Note_on_c, 5, 67, 60
7, 382080, Note_on_c, 5, 55, 60
7, 382176, Note_off_c, 5, 55, 64
7, 382176, Note_off_c, 5, 67, 64
7, 382560, Note_on_c, 5, 67, 80
7, 382560, Note_on_c, 5, 55, 60
7, 382656, Note_off_c, 5, 55, 64
7, 382656, Note_off_c, 5, 67, 64
7, 382800, Note_on_c, 5, 55, 60
7, 382800, Note_on_c, 5, 67, 60
7, 382896, Note_off_c, 5, 67, 64
7, 382896, Note_off_c, 5, 55, 64
7, 383040, Note_on_c, 5, 67, 60
7, 383040, Note_on_c, 5, 55, 60
7, 383136, Note_off_c, 5, 55, 64
7, 383136, Note_off_c, 5, 67, 64
7, 383520, Note_on_c, 5, 67, 80
7, 383520, Note_on_c, 5, 55, 60
7, 383616, Note_off_c, 5, 55, 64
7, 383616, Note_off_c, 5, 67, 64
7, 383760, Note_on_c, 5, 67, 60
7, 383760, Note_on_c, 5, 55, 60
7, 383856, Note_off_c, 5, 55, 64
7, 383856, Note_off_c, 5, 67, 64
7, 384000, Note_on_c, 5, 67, 60
7, 384000, Note_on_c, 5, 55, 60
7, 384096, Note_off_c, 5, 55, 64
7, 384096, Note_off_c, 5, 67, 64
7, 384480, Note_on_c, 5, 67, 80
7, 384480, Note_on_c, 5, 55, 60
7, 384576, Note_off_c, 5, 55, 64
7, 384576, Note_off_c, 5, 67, 64
7, 384720, Note_on_c, 5, 67, 60
7, 384720, Note_on_c, 5, 55, 60
7, 384816, Note_off_c, 5, 55, 64
7, 384816, Note_off_c, 5, 67, 64
7, 384960, Note_on_c, 5, 55, 60
7, 384960, Note_on_c, 5, 67, 60
7, 385056, Note_off_c, 5, 67, 64
7, 385056, Note_off_c, 5, 55, 64
7, 385440, Note_on_c, 5, 55, 60
7, 385440, Note_on_c, 5, 67, 80
7, 385536, Note_off_c, 5, 67, 64
7, 385536, Note_off_c, 5, 55, 64
7, 385680, Note_on_c, 5, 55, 60
7, 385680, Note_on_c, 5, 67, 60
7, 385776, Note_off_c, 5, 67, 64
7, 385776, Note_off_c, 5, 55, 64
7, 385920, Note_on_c, 5, 55, 60
7, 385920, Note_on_c, 5, 67, 60
7, 386016, Note_off_c, 5, 67, 64
7, 386016, Note_off_c, 5, 55, 64
7, 386400, Note_on_c, 5, 67, 80
7, 386400, Note_on_c, 5, 55, 60
7, 386496, Note_off_c, 5, 55, 64
7, 386496, Note_off_c, 5, 67, 64
7, 386640, Note_on_c, 5, 55, 60
7, 386640, Note_on_c, 5, 67, 60
7, 386736, Note_off_c, 5, 67, 64
7, 386736, Note_off_c, 5, 55, 64
7, 386880, Note_on_c, 5, 67, 60
7, 386880, Note_on_c, 5, 55, 60
7, 386976, Note_off_c, 5, 55, 64
7, 386976, Note_off_c, 5, 67, 64
7, 387360, Note_on_c, 5, 55, 60
7, 387360, Note_on_c, 5, 67, 80
7, 387456, Note_off_c, 5, 67, 64
7, 387456, Note_off_c, 5, 55, 64
7, 387600, Note_on_c, 5, 67, 60
7, 387600, Note_on_c, 5, 55, 60
7, 387696, Note_off_c, 5, 55, 64
7, 387696, Note_off_c, 5, 67, 64
7, 387840, Note_on_c, 5, 55, 60
7, 387840, Note_on_c, 5, 67, 60
7, 387936, Note_off_c, 5, 67, 64
7, 387936, Note_off_c, 5, 55, 64
7, 388320, Note_on_c, 5, 67, 60
7, 388320, Note_on_c, 5, 55, 60
7, 388512, Note_off_c, 5, 55, 64
7, 388512, Note_off_c, 5, 67, 64
7, 388800, Note_on_c, 5, 74, 80
7, 388800, Note_on_c, 5, 67, 80
7, 392256, Note_off_c, 5, 67, 64
7, 392256, Note_off_c, 5, 74, 64
7, 393600, Note_on_c, 5, 60, 80
7, 393600, Note_on_c, 5, 72, 80
7, 397536, Note_off_c, 5, 72, 64
7, 397536, Note_off_c, 5, 60, 64
7, 398880, Note_on_c, 5, 67, 80
7, 398880, Note_on_c, 5, 74, 80
7, 399072, Note_off_c, 5, 74, 64
7, 399072, Note_off_c, 5, 67, 64
7, 399840, Note_on_c, 5, 72, 80
7, 399840, Note_on_c, 5, 76, 80
7, 400032, Note_off_c, 5, 76, 64
7, 400032, Note_off_c, 5, 72, 64
7, 400800, Note_on_c, 5, 67, 80
7, 400800, Note_on_c, 5, 74, 80
7, 400992, Note_off_c, 5, 74, 64
7, 400992, Note_off_c, 5, 67, 64
7, 406560, Note_on_c, 5, 67, 32
7, 406560, Note_on_c, 5, 55, 32
7, 406752, Note_off_c, 5, 55, 64
7, 406752, Note_off_c, 5, 67, 64
7, 406800, Note_on_c, 5, 67, 32
7, 406800, Note_on_c, 5, 55, 32
7, 406992, Note_off_c, 5, 55, 64
7, 406992, Note_off_c, 5, 67, 64
7, 407040, Note_on_c, 5, 55, 32
7, 407040, Note_on_c, 5, 67, 32
7, 407232, Note_off_c, 5, 67, 64
7, 407232, Note_off_c, 5, 55, 64
7, 407520, Note_on_c, 5, 67, 32
7, 407520, Note_on_c, 5, 55, 32
7, 407712, Note_off_c, 5, 55, 64
7, 407712, Note_off_c, 5, 67, 64
7, 407760, Note_on_c, 5, 55, 32
7, 407760, Note_on_c, 5, 67, 32
7, 407952, Note_off_c, 5, 67, 64
7, 407952, Note_off_c, 5, 55, 64
7, 408000, Note_on_c, 5, 55, 32
7, 408000, Note_on_c, 5, 67, 32
7, 408192, Note_off_c, 5, 67, 64
7, 408192, Note_off_c, 5, 55, 64
7, 408480, Note_on_c, 5, 67, 32
7, 408480, Note_on_c, 5, 55, 32
7, 408672, Note_off_c, 5, 55, 64
7, 408672, Note_off_c, 5, 67, 64
7, 408720, Note_on_c, 5, 55, 32
7, 408720, Note_on_c, 5, 67, 32
7, 408912, Note_off_c, 5, 67, 64
7, 408912, Note_off_c, 5, 55, 64
7, 408960, Note_on_c, 5, 67, 32
7, 408960, Note_on_c, 5, 55, 32
7, 409152, Note_off_c, 5, 55, 64
7, 409152, Note_off_c, 5, 67, 64
7, 409440, Note_on_c, 5, 60, 32
7, 409632, Note_off_c, 5, 60, 64
7, 415200, Note_on_c, 5, 55, 20
7, 415200, Note_on_c, 5, 67, 20
7, 415584, Note_off_c, 5, 67, 64
7, 415584, Note_off_c, 5, 55, 64
7, 417120, Note_on_c, 5, 60, 20
7, 417504, Note_off_c, 5, 60, 64
7, 419040, Note_on_c, 5, 60, 20
7, 419424, Note_off_c, 5, 60, 64
7, 432480, Note_on_c, 5, 55, 80
7, 432480, Note_on_c, 5, 67, 80
7, 432576, Note_off_c, 5, 67, 64
7, 432576, Note_off_c, 5, 55, 64
7, 432720, Note_on_c, 5, 55, 80
7, 432720, Note_on_c, 5, 67, 80
7, 432816, Note_off_c, 5, 67, 64
7, 432816, Note_off_c, 5, 55, 64
7, 432960, Note_on_c, 5, 67, 80
7, 432960, Note_on_c, 5, 55, 80
7, 433056, Note_off_c, 5, 55, 64
7, 433056, Note_off_c, 5, 67, 64
7, 433440, Note_on_c, 5, 60, 80
7, 433440, Note_on_c, 5, 67, 80
7, 433536, Note_off_c, 5, 67, 64
7, 433536, Note_off_c, 5, 60, 64
7, 433680, Note_on_c, 5, 67, 80
7, 433680, Note_on_c, 5, 60, 80
7, 433776, Note_off_c, 5, 60, 64
7, 433776, Note_off_c, 5, 67, 64
7, 433920, Note_on_c, 5, 60, 80
7, 433920, Note_on_c, 5, 67, 80
7, 434016, Note_off_c, 5, 67, 64
7, 434016, Note_off_c, 5, 60, 64
7, 434400, Note_on_c, 5, 55, 80
7, 434400, Note_on_c, 5, 67, 80
7, 434496, Note_off_c, 5, 67, 64
7, 434496, Note_off_c, 5, 55, 64
7, 434640, Note_on_c, 5, 67, 80
7, 434640, Note_on_c, 5, 55, 80
7, 434736, Note_off_c, 5, 55, 64
7, 434736, Note_off_c, 5, 67, 64
7, 434880, Note_on_c, 5, 67, 80
7, 434880, Note_on_c, 5, 55, 80
7, 434976, Note_off_c, 5, 55, 64
7, 434976, Note_off_c, 5, 67, 64
7, 435360, Note_on_c, 5, 67, 80
7, 435360, Note_on_c, 5, 60, 80
7, 435456, Note_off_c, 5, 60, 64
7, 435456, Note_off_c, 5, 67, 64
7, 435600, Note_on_c, 5, 67, 80
7, 435600, Note_on_c, 5, 60, 80
7, 435696, Note_off_c, 5, 60, 64
7, 435696, Note_off_c, 5, 67, 64
7, 435840, Note_on_c, 5, 67, 80
7, 435840, Note_on_c, 5, 60, 80
7, 435936, Note_off_c, 5, 60, 64
7, 435936, Note_off_c, 5, 67, 64
7, 436320, Note_on_c, 5, 55, 80
7, 436320, Note_on_c, 5, 67, 80
7, 436416, Note_off_c, 5, 67, 64
7, 436416, Note_off_c, 5, 55, 64
7, 436560, Note_on_c, 5, 55, 80
7, 436560, Note_on_c, 5, 67, 80
7, 436656, Note_off_c, 5, 67, 64
7, 436656, Note_off_c, 5, 55, 64
7, 436800, Note_on_c, 5, 67, 80
7, 436800, Note_on_c, 5, 55, 80
7, 436896, Note_off_c, 5, 55, 64
7, 436896, Note_off_c, 5, 67, 64
7, 437280, Note_on_c, 5, 72, 60
7, 437280, Note_on_c, 5, 60, 60
7, 437376, Note_off_c, 5, 60, 64
7, 437376, Note_off_c, 5, 72, 64
7, 437520, Note_on_c, 5, 72, 60
7, 437520, Note_on_c, 5, 60, 60
7, 437616, Note_off_c, 5, 60, 64
7, 437616, Note_off_c, 5, 72, 64
7, 437760, Note_on_c, 5, 72, 60
7, 437760, Note_on_c, 5, 60, 60
7, 437856, Note_off_c, 5, 60, 64
7, 437856, Note_off_c, 5, 72, 64
7, 438240, Note_on_c, 5, 64, 60
7, 438240, Note_on_c, 5, 76, 60
7, 438336, Note_off_c, 5, 76, 64
7, 438336, Note_off_c, 5, 64, 64
7, 438480, Note_on_c, 5, 76, 60
7, 438480, Note_on_c, 5, 64, 60
7, 438576, Note_off_c, 5, 64, 64
7, 438576, Note_off_c, 5, 76, 64
7, 438720, Note_on_c, 5, 76, 60
7, 438720, Note_on_c, 5, 64, 60
7, 438816, Note_off_c, 5, 64, 64
7, 438816, Note_off_c, 5, 76, 64
7, 439200, Note_on_c, 5, 72, 60
7, 439200, Note_on_c, 5, 60, 60
7, 439296, Note_off_c, 5, 60, 64
7, 439296, Note_off_c, 5, 72, 64
7, 439440, Note_on_c, 5, 72, 60
7, 439440, Note_on_c, 5, 60, 60
7, 439536, Note_off_c, 5, 60, 64
7, 439536, Note_off_c, 5, 72, 64
7, 439680, Note_on_c, 5, 60, 60
7, 439680, Note_on_c, 5, 72, 60
7, 439776, Note_off_c, 5, 72, 64
7, 439776, Note_off_c, 5, 60, 64
7, 440160, Note_on_c, 5, 55, 60
7, 440160, Note_on_c, 5, 67, 60
7, 440256, Note_off_c, 5, 67, 64
7, 440256, Note_off_c, 5, 55, 64
7, 440400, Note_on_c, 5, 55, 60
7, 440400, Note_on_c, 5, 67, 60
7, 440496, Note_off_c, 5, 67, 64
7, 440496, Note_off_c, 5, 55, 64
7, 440640, Note_on_c, 5, 55, 60
7, 440640, Note_on_c, 5, 67, 60
7, 440736, Note_off_c, 5, 67, 64
7, 440736, Note_off_c, 5, 55, 64
7, 442080, Note_on_c, 5, 67, 60
7, 442080, Note_on_c, 5, 55, 60
7, 442176, Note_off_c, 5, 55, 64
7, 442176, Note_off_c, 5, 67, 64
7, 442320, Note_on_c, 5, 67, 60
7, 442320, Note_on_c, 5, 55, 60
7, 442416, Note_off_c, 5, 55, 64
7, 442416, Note_off_c, 5, 67, 64
7, 442560, Note_on_c, 5, 55, 60
7, 442560, Note_on_c, 5, 67, 60
7, 442656, Note_off_c, 5, 67, 64
7, 442656, Note_off_c, 5, 55, 64
7, 443040, Note_on_c, 5, 55, 80
7, 443040, Note_on_c, 5, 67, 80
7, 443136, Note_off_c, 5, 67, 64
7, 443136, Note_off_c, 5, 55, 64
7, 443280, Note_on_c, 5, 67, 80
7, 443280, Note_on_c, 5, 55, 80
7, 443376, Note_off_c, 5, 55, 64
7, 443376, Note_off_c, 5, 67, 64
7, 443520, Note_on_c, 5, 60, 80
7, 443520, Note_on_c, 5, 72, 80
7, 443616, Note_off_c, 5, 72, 64
7, 443616, Note_off_c, 5, 60, 64
7, 443760, Note_on_c, 5, 72, 80
7, 443760, Note_on_c, 5, 60, 80
7, 443856, Note_off_c, 5, 60, 64
7, 443856, Note_off_c, 5, 72, 64
7, 444000, Note_on_c, 5, 67, 80
7, 444000, Note_on_c, 5, 55, 80
7, 444096, Note_off_c, 5, 55, 64
7, 444096, Note_off_c, 5, 67, 64
7, 444240, Note_on_c, 5, 67, 80
7, 444240, Note_on_c, 5, 55, 80
7, 444336, Note_off_c, 5, 55, 64
7, 444336, Note_off_c, 5, 67, 64
7, 444480, Note_on_c, 5, 72, 80
7, 444480, Note_on_c, 5, 60, 80
7, 444576, Note_off_c, 5, 60, 64
7, 444576, Note_off_c, 5, 72, 64
7, 444720, Note_on_c, 5, 72, 80
7, 444720, Note_on_c, 5, 60, 80
7, 444816, Note_off_c, 5, 60, 64
7, 444816, Note_off_c, 5, 72, 64
7, 444960, Note_on_c, 5, 60, 75
7, 444960, Note_on_c, 5, 72, 75
7, 445152, Note_off_c, 5, 72, 64
7, 445152, Note_off_c, 5, 60, 64
7, 445440, Note_on_c, 5, 60, 75
7, 445440, Note_on_c, 5, 72, 75
7, 445632, Note_off_c, 5, 72, 64
7, 445632, Note_off_c, 5, 60, 64
7, 445920, Note_on_c, 5, 60, 75
7, 445920, Note_on_c, 5, 72, 75
7, 446112, Note_off_c, 5, 72, 64
7, 446112, Note_off_c, 5, 60, 64
7, 446640, Note_on_c, 5, 72, 75
7, 446640, Note_on_c, 5, 60, 75
7, 446736, Note_off_c, 5, 60, 64
7, 446736, Note_off_c, 5, 72, 64
7, 446880, Note_on_c, 5, 72, 75
7, 446880, Note_on_c, 5, 60, 75
7, 447072, Note_off_c, 5, 60, 64
7, 447072, Note_off_c, 5, 72, 64
7, 447360, Note_on_c, 5, 60, 75
7, 447360, Note_on_c, 5, 72, 75
7, 447552, Note_off_c, 5, 72, 64
7, 447552, Note_off_c, 5, 60, 64
7, 447840, Note_on_c, 5, 60, 75
7, 447840, Note_on_c, 5, 72, 75
7, 448032, Note_off_c, 5, 72, 64
7, 448032, Note_off_c, 5, 60, 64
7, 448560, Note_on_c, 5, 60, 75
7, 448560, Note_on_c, 5, 72, 75
7, 448656, Note_off_c, 5, 72, 64
7, 448656, Note_off_c, 5, 60, 64
7, 448800, Note_on_c, 5, 60, 75
7, 448800, Note_on_c, 5, 72, 75
7, 448992, Note_off_c, 5, 72, 64
7, 448992, Note_off_c, 5, 60, 64
7, 449280, Note_on_c, 5, 60, 75
7, 449280, Note_on_c, 5, 72, 75
7, 449472, Note_off_c, 5, 72, 64
7, 449472, Note_off_c, 5, 60, 64
7, 449760, Note_on_c, 5, 60, 75
7, 449760, Note_on_c, 5, 72, 75
7, 449952, Note_off_c, 5, 72, 64
7, 449952, Note_off_c, 5, 60, 64
7, 450240, Note_on_c, 5, 72, 75
7, 450240, Note_on_c, 5, 60, 75
7, 450336, Note_off_c, 5, 60, 64
7, 450336, Note_off_c, 5, 72, 64
7, 450480, Note_on_c, 5, 60, 75
7, 450480, Note_on_c, 5, 72, 75
7, 450576, Note_off_c, 5, 72, 64
7, 450576, Note_off_c, 5, 60, 64
7, 450720, Note_on_c, 5, 72, 80
7, 450720, Note_on_c, 5, 60, 80
7, 450912, Note_off_c, 5, 60, 64
7, 450912, Note_off_c, 5, 72, 64
7, 451200, Note_on_c, 5, 72, 120
7, 451200, Note_on_c, 5, 60, 80
7, 451392, Note_off_c, 5, 60, 64
7, 451392, Note_off_c, 5, 72, 64
7, 451680, Note_on_c, 5, 60, 80
7, 451680, Note_on_c, 5, 72, 80
7, 451872, Note_off_c, 5, 72, 64
7, 451872, Note_off_c, 5, 60, 64
7, 452160, Note_on_c, 5, 67, 120
7, 452160, Note_on_c, 5, 55, 80
7, 452352, Note_off_c, 5, 67, 64
7, 452544, Note_off_c, 5, 55, 64
7, 468000, Note_on_c, 5, 60, 80
7, 468000, Note_on_c, 5, 72, 80
7, 468192, Note_off_c, 5, 72, 64
7, 468192, Note_off_c, 5, 60, 64
7, 468480, Note_on_c, 5, 60, 80
7, 468480, Note_on_c, 5, 72, 80
7, 468672, Note_off_c, 5, 72, 64
7, 468672, Note_off_c, 5, 60, 64
7, 468960, Note_on_c, 5, 60, 80
7, 468960, Note_on_c, 5, 72, 80
7, 469344, Note_off_c, 5, 72, 64
7, 469344, Note_off_c, 5, 60, 64
7, 469440, Note_on_c, 5, 72, 80
7, 469440, Note_on_c, 5, 60, 80
7, 469824, Note_off_c, 5, 60, 64
7, 469824, Note_off_c, 5, 72, 64
7, 469920, Note_on_c, 5, 72, 80
7, 469920, Note_on_c, 5, 60, 80
7, 470304, Note_off_c, 5, 60, 64
7, 470304, Note_off_c, 5, 72, 64
7, 470400, Note_on_c, 5, 72, 80
7, 470400, Note_on_c, 5, 60, 80
7, 470784, Note_off_c, 5, 60, 64
7, 470784, Note_off_c, 5, 72, 64
7, 470880, Note_on_c, 5, 60, 80
7, 470880, Note_on_c, 5, 72, 80
7, 471264, Note_off_c, 5, 72, 64
7, 471264, Note_off_c, 5, 60, 64
7, 471360, Note_on_c, 5, 60, 80
7, 471360, Note_on_c, 5, 72, 80
7, 472608, Note_off_c, 5, 72, 64
7, 472608, Note_off_c, 5, 60, 64
7, 472800, Note_on_c, 5, 77, 80
7, 473568, Note_off_c, 5, 77, 64
7, 473760, Note_on_c, 5, 72, 80
7, 473760, Note_on_c, 5, 76, 80
7, 474144, Note_off_c, 5, 76, 64
7, 474144, Note_off_c, 5, 72, 64
7, 474240, Note_on_c, 5, 72, 80
7, 474240, Note_on_c, 5, 60, 80
7, 474624, Note_off_c, 5, 60, 64
7, 474624, Note_off_c, 5, 72, 64
7, 474720, Note_on_c, 5, 72, 80
7, 474720, Note_on_c, 5, 60, 80
7, 475104, Note_off_c, 5, 60, 64
7, 475104, Note_off_c, 5, 72, 64
7, 475200, Note_on_c, 5, 72, 80
7, 475200, Note_on_c, 5, 60, 80
7, 475584, Note_off_c, 5, 60, 64
7, 475584, Note_off_c, 5, 72, 64
7, 475680, Note_on_c, 5, 60, 80
7, 475680, Note_on_c, 5, 72, 80
7, 476448, Note_off_c, 5, 72, 64
7, 476448, Note_off_c, 5, 60, 64
7, 476640, Note_on_c, 5, 77, 80
7, 477408, Note_off_c, 5, 77, 64
7, 477600, Note_on_c, 5, 72, 80
7, 477600, Note_on_c, 5, 76, 80
7, 477984, Note_off_c, 5, 76, 64
7, 477984, Note_off_c, 5, 72, 64
7, 478080, Note_on_c, 5, 72, 80
7, 478080, Note_on_c, 5, 60, 80
7, 478464, Note_off_c, 5, 60, 64
7, 478464, Note_off_c, 5, 72, 64
7, 478560, Note_on_c, 5, 60, 80
7, 478560, Note_on_c, 5, 72, 80
7, 478944, Note_off_c, 5, 72, 64
7, 478944, Note_off_c, 5, 60, 64
7, 479040, Note_on_c, 5, 72, 80
7, 479040, Note_on_c, 5, 60, 80
7, 479424, Note_off_c, 5, 60, 64
7, 479424, Note_off_c, 5, 72, 64
7, 479520, Note_on_c, 5, 55, 80
7, 479520, Note_on_c, 5, 67, 80
7, 479904, Note_off_c, 5, 67, 64
7, 479904, Note_off_c, 5, 55, 64
7, 480480, Note_on_c, 5, 55, 80
7, 480480, Note_on_c, 5, 67, 80
7, 480864, Note_off_c, 5, 67, 64
7, 480864, Note_off_c, 5, 55, 64
7, 485280, Note_on_c, 5, 72, 80
7, 485280, Note_on_c, 5, 60, 80
7, 485664, Note_off_c, 5, 60, 64
7, 485664, Note_off_c, 5, 72, 64
7, 485760, Note_on_c, 5, 72, 80
7, 485760, Note_on_c, 5, 60, 80
7, 486144, Note_off_c, 5, 60, 64
7, 486144, Note_off_c, 5, 72, 64
7, 486240, Note_on_c, 5, 55, 80
7, 486240, Note_on_c, 5, 67, 80
7, 486624, Note_off_c, 5, 67, 64
7, 486624, Note_off_c, 5, 55, 64
7, 486720, Note_on_c, 5, 55, 80
7, 486720, Note_on_c, 5, 67, 80
7, 487104, Note_off_c, 5, 67, 64
7, 487104, Note_off_c, 5, 55, 64
7, 487200, Note_on_c, 5, 55, 80
7, 487200, Note_on_c, 5, 67, 80
7, 487296, Note_off_c, 5, 67, 64
7, 487296, Note_off_c, 5, 55, 64
7, 487440, Note_on_c, 5, 55, 80
7, 487440, Note_on_c, 5, 67, 80
7, 487536, Note_off_c, 5, 67, 64
7, 487536, Note_off_c, 5, 55, 64
7, 487680, Note_on_c, 5, 55, 80
7, 487680, Note_on_c, 5, 67, 80
7, 487776, Note_off_c, 5, 67, 64
7, 487776, Note_off_c, 5, 55, 64
7, 488160, Note_on_c, 5, 67, 80
7, 488160, Note_on_c, 5, 60, 80
7, 488352, Note_off_c, 5, 60, 64
7, 488352, Note_off_c, 5, 67, 64
7, 489120, Note_on_c, 5, 55, 80
7, 489120, Note_on_c, 5, 67, 80
7, 489216, Note_off_c, 5, 67, 64
7, 489216, Note_off_c, 5, 55, 64
7, 489360, Note_on_c, 5, 67, 80
7, 489360, Note_on_c, 5, 55, 80
7, 489456, Note_off_c, 5, 55, 64
7, 489456, Note_off_c, 5, 67, 64
7, 489600, Note_on_c, 5, 67, 80
7, 489600, Note_on_c, 5, 55, 80
7, 489696, Note_off_c, 5, 55, 64
7, 489696, Note_off_c, 5, 67, 64
7, 490080, Note_on_c, 5, 67, 80
7, 490080, Note_on_c, 5, 60, 80
7, 490272, Note_off_c, 5, 60, 64
7, 490272, Note_off_c, 5, 67, 64
7, 491040, Note_on_c, 5, 55, 80
7, 491040, Note_on_c, 5, 67, 80
7, 491136, Note_off_c, 5, 67, 64
7, 491136, Note_off_c, 5, 55, 64
7, 491280, Note_on_c, 5, 67, 80
7, 491280, Note_on_c, 5, 55, 80
7, 491376, Note_off_c, 5, 55, 64
7, 491376, Note_off_c, 5, 67, 64
7, 491520, Note_on_c, 5, 55, 80
7, 491520, Note_on_c, 5, 67, 80
7, 491616, Note_off_c, 5, 67, 64
7, 491616, Note_off_c, 5, 55, 64
7, 492000, Note_on_c, 5, 60, 80
7, 492000, Note_on_c, 5, 67, 80
7, 492096, Note_off_c, 5, 67, 64
7, 492096, Note_off_c, 5, 60, 64
7, 492240, Note_on_c, 5, 67, 80
7, 492240, Note_on_c, 5, 60, 80
7, 492336, Note_off_c, 5, 60, 64
7, 492336, Note_off_c, 5, 67, 64
7, 492480, Note_on_c, 5, 60, 80
7, 492480, Note_on_c, 5, 67, 80
7, 492576, Note_off_c, 5, 67, 64
7, 492576, Note_off_c, 5, 60, 64
7, 492960, Note_on_c, 5, 67, 80
7, 492960, Note_on_c, 5, 55, 80
7, 493056, Note_off_c, 5, 55, 64
7, 493056, Note_off_c, 5, 67, 64
7, 493200, Note_on_c, 5, 67, 80
7, 493200, Note_on_c, 5, 55, 80
7, 493296, Note_off_c, 5, 55, 64
7, 493296, Note_off_c, 5, 67, 64
7, 493440, Note_on_c, 5, 55, 80
7, 493440, Note_on_c, 5, 67, 80
7, 493536, Note_off_c, 5, 67, 64
7, 493536, Note_off_c, 5, 55, 64
7, 493920, Note_on_c, 5, 67, 80
7, 493920, Note_on_c, 5, 60, 80
7, 494112, Note_off_c, 5, 60, 64
7, 494112, Note_off_c, 5, 67, 64
7, 494640, Note_on_c, 5, 67, 80
7, 494640, Note_on_c, 5, 55, 80
7, 494736, Note_off_c, 5, 55, 64
7, 494736, Note_off_c, 5, 67, 64
7, 494880, Note_on_c, 5, 67, 80
7, 494880, Note_on_c, 5, 60, 80
7, 495072, Note_off_c, 5, 60, 64
7, 495072, Note_off_c, 5, 67, 64
7, 495600, Note_on_c, 5, 55, 80
7, 495600, Note_on_c, 5, 67, 80
7, 495696, Note_off_c, 5, 67, 64
7, 495696, Note_off_c, 5, 55, 64
7, 495840, Note_on_c, 5, 60, 80
7, 495840, Note_on_c, 5, 67, 80
7, 496032, Note_off_c, 5, 67, 64
7, 496032, Note_off_c, 5, 60, 64
7, 496560, Note_on_c, 5, 67, 80
7, 496560, Note_on_c, 5, 55, 80
7, 496656, Note_off_c, 5, 55, 64
7, 496656, Note_off_c, 5, 67, 64
7, 496800, Note_on_c, 5, 60, 80
7, 496800, Note_on_c, 5, 67, 80
7, 496992, Note_off_c, 5, 67, 64
7, 496992, Note_off_c, 5, 60, 64
7, 497520, Note_on_c, 5, 67, 80
7, 497520, Note_on_c, 5, 55, 80
7, 497616, Note_off_c, 5, 55, 64
7, 497616, Note_off_c, 5, 67, 64
7, 497760, Note_on_c, 5, 60, 80
7, 497760, Note_on_c, 5, 67, 80
7, 497952, Note_off_c, 5, 67, 64
7, 497952, Note_off_c, 5, 60, 64
7, 498480, Note_on_c, 5, 67, 80
7, 498480, Note_on_c, 5, 55, 80
7, 498576, Note_off_c, 5, 55, 64
7, 498576, Note_off_c, 5, 67, 64
7, 498720, Note_on_c, 5, 60, 80
7, 498720, Note_on_c, 5, 72, 80
7, 500256, Note_off_c, 5, 72, 64
7, 500256, Note_off_c, 5, 60, 64
7, 500640, Note_on_c, 5, 64, 80
7, 500640, Note_on_c, 5, 76, 80
7, 502176, Note_off_c, 5, 76, 64
7, 502176, Note_off_c, 5, 64, 64
7, 502560, Note_on_c, 5, 67, 80
7, 502560, Note_on_c, 5, 79, 80
7, 502752, Note_off_c, 5, 79, 64
7, 502752, Note_off_c, 5, 67, 64
7, 503040, Note_on_c, 5, 60, 80
7, 503040, Note_on_c, 5, 72, 80
7, 503232, Note_off_c, 5, 72, 64
7, 503232, Note_off_c, 5, 60, 64
7, 503520, Note_on_c, 5, 60, 80
7, 503520, Note_on_c, 5, 72, 80
7, 503712, Note_off_c, 5, 72, 64
7, 503712, Note_off_c, 5, 60, 64
7, 504000, Note_on_c, 5, 60, 80
7, 504000, Note_on_c, 5, 72, 80
7, 504192, Note_off_c, 5, 72, 64
7, 504192, Note_off_c, 5, 60, 64
7, 504480, Note_on_c, 5, 60, 80
7, 504480, Note_on_c, 5, 72, 80
7, 504672, Note_off_c, 5, 72, 64
7, 504672, Note_off_c, 5, 60, 64
7, 504960, Note_on_c, 5, 60, 80
7, 504960, Note_on_c, 5, 72, 80
7, 505152, Note_off_c, 5, 72, 64
7, 505152, Note_off_c, 5, 60, 64
7, 505440, Note_on_c, 5, 60, 80
7, 505440, Note_on_c, 5, 72, 80
7, 505632, Note_off_c, 5, 72, 64
7, 505632, Note_off_c, 5, 60, 64
7, 505920, Note_on_c, 5, 72, 80
7, 505920, Note_on_c, 5, 60, 80
7, 506112, Note_off_c, 5, 60, 64
7, 506112, Note_off_c, 5, 72, 64
7, 506400, Note_on_c, 5, 60, 80
7, 506400, Note_on_c, 5, 72, 80
7, 508282, Note_off_c, 5, 72, 64
7, 508282, Note_off_c, 5, 60, 64
7, 508320, Note_on_c, 5, 67, 56
7, 508320, Note_on_c, 5, 55, 56
7, 508512, Note_off_c, 5, 55, 64
7, 508512, Note_off_c, 5, 67, 64
7, 510240, Note_on_c, 5, 60, 80
7, 510240, Note_on_c, 5, 72, 80
7, 510244, Control_c, 5, 7, 90
7, 510344, Control_c, 5, 7, 89
7, 510444, Control_c, 5, 7, 88
7, 510544, Control_c, 5, 7, 87
7, 510644, Control_c, 5, 7, 86
7, 510744, Control_c, 5, 7, 85
7, 510844, Control_c, 5, 7, 84
7, 510944, Control_c, 5, 7, 83
7, 511044, Control_c, 5, 7, 82
7, 511144, Control_c, 5, 7, 81
7, 511236, Control_c, 5, 7, 80
7, 511336, Control_c, 5, 7, 79
7, 511436, Control_c, 5, 7, 78
7, 511536, Control_c, 5, 7, 77
7, 511636, Control_c, 5, 7, 76
7, 511736, Control_c, 5, 7, 75
7, 511836, Control_c, 5, 7, 74
7, 511936, Control_c, 5, 7, 73
7, 512036, Control_c, 5, 7, 72
7, 512040, Note_off_c, 5, 72, 64
7, 512040, Note_off_c, 5, 60, 64
7, 512136, Control_c, 5, 7, 71
7, 512224, Control_c, 5, 7, 70
7, 512324, Control_c, 5, 7, 69
7, 512424, Control_c, 5, 7, 68
7, 512524, Control_c, 5, 7, 67
7, 512624, Control_c, 5, 7, 66
7, 512724, Control_c, 5, 7, 65
7, 512824, Control_c, 5, 7, 64
7, 512924, Control_c, 5, 7, 63
7, 513024, Control_c, 5, 7, 62
7, 513116, Control_c, 5, 7, 61
7, 513216, Control_c, 5, 7, 60
7, 513316, Control_c, 5, 7, 59
7, 513416, Control_c, 5, 7, 58
7, 513516, Control_c, 5, 7, 57
7, 513616, Control_c, 5, 7, 56
7, 513716, Control_c, 5, 7, 55
7, 513816, Control_c, 5, 7, 54
7, 513916, Control_c, 5, 7, 53
7, 514016, Control_c, 5, 7, 52
7, 514104, Control_c, 5, 7, 51
7, 514204, Control_c, 5, 7, 50
7, 514304, Control_c, 5, 7, 49
7, 514404, Control_c, 5, 7, 48
7, 514504, Control_c, 5, 7, 47
7, 514604, Control_c, 5, 7, 46
7, 514704, Control_c, 5, 7, 45
7, 514804, Control_c, 5, 7, 44
7, 514904, Control_c, 5, 7, 43
7, 515004, Control_c, 5, 7, 42
7, 515096, Control_c, 5, 7, 41
7, 515196, Control_c, 5, 7, 40
7, 515296, Control_c, 5, 7, 39
7, 515396, Control_c, 5, 7, 38
7, 515496, Control_c, 5, 7, 37
7, 515596, Control_c, 5, 7, 36
7, 515696, Control_c, 5, 7, 35
7, 515796, Control_c, 5, 7, 34
7, 515896, Control_c, 5, 7, 33
7, 515984, Control_c, 5, 7, 32
7, 516000, Note_on_c, 5, 72, 64
7, 516000, Note_on_c, 5, 60, 64
7, 516004, Control_c, 5, 7, 32
7, 516076, Control_c, 5, 7, 33
7, 516144, Control_c, 5, 7, 34
7, 516204, Control_c, 5, 7, 35
7, 516276, Control_c, 5, 7, 36
7, 516336, Control_c, 5, 7, 37
7, 516404, Control_c, 5, 7, 38
7, 516464, Control_c, 5, 7, 39
7, 516536, Control_c, 5, 7, 40
7, 516596, Control_c, 5, 7, 41
7, 516664, Control_c, 5, 7, 42
7, 516724, Control_c, 5, 7, 43
7, 516796, Control_c, 5, 7, 44
7, 516856, Control_c, 5, 7, 45
7, 516924, Control_c, 5, 7, 46
7, 516984, Control_c, 5, 7, 47
7, 517056, Control_c, 5, 7, 48
7, 517116, Control_c, 5, 7, 49
7, 517184, Control_c, 5, 7, 50
7, 517244, Control_c, 5, 7, 51
7, 517316, Control_c, 5, 7, 52
7, 517376, Control_c, 5, 7, 53
7, 517444, Control_c, 5, 7, 54
7, 517504, Control_c, 5, 7, 55
7, 517536, Note_off_c, 5, 60, 64
7, 517536, Note_off_c, 5, 72, 64
7, 517576, Control_c, 5, 7, 56
7, 517636, Control_c, 5, 7, 57
7, 517704, Control_c, 5, 7, 58
7, 517764, Control_c, 5, 7, 59
7, 517836, Control_c, 5, 7, 60
7, 517896, Control_c, 5, 7, 61
7, 517920, Note_on_c, 5, 67, 64
7, 517920, Note_on_c, 5, 74, 64
7, 517964, Control_c, 5, 7, 62
7, 518024, Control_c, 5, 7, 63
7, 518096, Control_c, 5, 7, 64
7, 518156, Control_c, 5, 7, 65
7, 518224, Control_c, 5, 7, 66
7, 518284, Control_c, 5, 7, 67
7, 518356, Control_c, 5, 7, 68
7, 518416, Control_c, 5, 7, 69
7, 518484, Control_c, 5, 7, 70
7, 518544, Control_c, 5, 7, 71
7, 518616, Control_c, 5, 7, 72
7, 518676, Control_c, 5, 7, 73
7, 518744, Control_c, 5, 7, 74
7, 518804, Control_c, 5, 7, 75
7, 518876, Control_c, 5, 7, 76
7, 518936, Control_c, 5, 7, 77
7, 519004, Control_c, 5, 7, 78
7, 519064, Control_c, 5, 7, 79
7, 519136, Control_c, 5, 7, 80
7, 519196, Control_c, 5, 7, 81
7, 519264, Control_c, 5, 7, 82
7, 519324, Control_c, 5, 7, 83
7, 519396, Control_c, 5, 7, 84
7, 519456, Note_off_c, 5, 74, 64
7, 519456, Note_off_c, 5, 67, 64
7, 519456, Control_c, 5, 7, 85
7, 519524, Control_c, 5, 7, 86
7, 519584, Control_c, 5, 7, 87
7, 519656, Control_c, 5, 7, 88
7, 519716, Control_c, 5, 7, 89
7, 519784, Control_c, 5, 7, 90
7, 519840, Note_on_c, 5, 79, 80
7, 519840, Note_on_c, 5, 67, 80
7, 519844, Control_c, 5, 7, 91
7, 520032, Note_off_c, 5, 67, 64
7, 520032, Note_off_c, 5, 79, 64
7, 520560, Note_on_c, 5, 67, 80
7, 520560, Note_on_c, 5, 79, 80
7, 520656, Note_off_c, 5, 79, 64
7, 520656, Note_off_c, 5, 67, 64
7, 520800, Note_on_c, 5, 67, 80
7, 520800, Note_on_c, 5, 79, 80
7, 520992, Note_off_c, 5, 79, 64
7, 520992, Note_off_c, 5, 67, 64
7, 521520, Note_on_c, 5, 79, 80
7, 521520, Note_on_c, 5, 67, 80
7, 521616, Note_off_c, 5, 67, 64
7, 521616, Note_off_c, 5, 79, 64
7, 521760, Note_on_c, 5, 67, 80
7, 521760, Note_on_c, 5, 79, 80
7, 521952, Note_off_c, 5, 79, 64
7, 521952, Note_off_c, 5, 67, 64
7, 522480, Note_on_c, 5, 67, 80
7, 522480, Note_on_c, 5, 79, 80
7, 522576, Note_off_c, 5, 79, 64
7, 522576, Note_off_c, 5, 67, 64
7, 522720, Note_on_c, 5, 79, 80
7, 522720, Note_on_c, 5, 67, 80
7, 522912, Note_off_c, 5, 67, 64
7, 522912, Note_off_c, 5, 79, 64
7, 523440, Note_on_c, 5, 79, 80
7, 523440, Note_on_c, 5, 67, 80
7, 523536, Note_off_c, 5, 67, 64
7, 523536, Note_off_c, 5, 79, 64
7, 523680, Note_on_c, 5, 67, 80
7, 523680, Note_on_c, 5, 79, 80
7, 523872, Note_off_c, 5, 79, 64
7, 523872, Note_off_c, 5, 67, 64
7, 524400, Note_on_c, 5, 79, 80
7, 524400, Note_on_c, 5, 67, 80
7, 524496, Note_off_c, 5, 67, 64
7, 524496, Note_off_c, 5, 79, 64
7, 524640, Note_on_c, 5, 79, 80
7, 524640, Note_on_c, 5, 67, 80
7, 524832, Note_off_c, 5, 67, 64
7, 524832, Note_off_c, 5, 79, 64
7, 525360, Note_on_c, 5, 67, 80
7, 525360, Note_on_c, 5, 79, 80
7, 525456, Note_off_c, 5, 79, 64
7, 525456, Note_off_c, 5, 67, 64
7, 525600, Note_on_c, 5, 79, 80
7, 525600, Note_on_c, 5, 67, 80
7, 525792, Note_off_c, 5, 67, 64
7, 525792, Note_off_c, 5, 79, 64
7, 526320, Note_on_c, 5, 67, 80
7, 526320, Note_on_c, 5, 79, 80
7, 526416, Note_off_c, 5, 79, 64
7, 526416, Note_off_c, 5, 67, 64
7, 526560, Note_on_c, 5, 79, 80
7, 526560, Note_on_c, 5, 67, 80
7, 526752, Note_off_c, 5, 67, 64
7, 526752, Note_off_c, 5, 79, 64
7, 527280, Note_on_c, 5, 67, 80
7, 527280, Note_on_c, 5, 79, 80
7, 527376, Note_off_c, 5, 79, 64
7, 527376, Note_off_c, 5, 67, 64
7, 527520, Note_on_c, 5, 67, 80
7, 527520, Note_on_c, 5, 79, 80
7, 527712, Note_off_c, 5, 79, 64
7, 527712, Note_off_c, 5, 67, 64
7, 528240, Note_on_c, 5, 79, 80
7, 528240, Note_on_c, 5, 67, 80
7, 528336, Note_off_c, 5, 67, 64
7, 528336, Note_off_c, 5, 79, 64
7, 528480, Note_on_c, 5, 79, 80
7, 528480, Note_on_c, 5, 67, 80
7, 528672, Note_off_c, 5, 67, 64
7, 528672, Note_off_c, 5, 79, 64
7, 529200, Note_on_c, 5, 67, 80
7, 529200, Note_on_c, 5, 79, 80
7, 529296, Note_off_c, 5, 79, 64
7, 529296, Note_off_c, 5, 67, 64
7, 529440, Note_on_c, 5, 79, 80
7, 529440, Note_on_c, 5, 67, 80
7, 529632, Note_off_c, 5, 67, 64
7, 529632, Note_off_c, 5, 79, 64
7, 530160, Note_on_c, 5, 67, 80
7, 530160, Note_on_c, 5, 79, 80
7, 530256, Note_off_c, 5, 79, 64
7, 530256, Note_off_c, 5, 67, 64
7, 530400, Note_on_c, 5, 79, 80
7, 530400, Note_on_c, 5, 67, 80
7, 530592, Note_off_c, 5, 67, 64
7, 530592, Note_off_c, 5, 79, 64
7, 531120, Note_on_c, 5, 67, 80
7, 531120, Note_on_c, 5, 79, 80
7, 531216, Note_off_c, 5, 79, 64
7, 531216, Note_off_c, 5, 67, 64
7, 531360, Note_on_c, 5, 67, 80
7, 531360, Note_on_c, 5, 79, 80
7, 531552, Note_off_c, 5, 79, 64
7, 531552, Note_off_c, 5, 67, 64
7, 532080, Note_on_c, 5, 79, 80
7, 532080, Note_on_c, 5, 67, 80
7, 532176, Note_off_c, 5, 67, 64
7, 532176, Note_off_c, 5, 79, 64
7, 532320, Note_on_c, 5, 79, 80
7, 532320, Note_on_c, 5, 67, 80
7, 532512, Note_off_c, 5, 67, 64
7, 532512, Note_off_c, 5, 79, 64
7, 533040, Note_on_c, 5, 67, 80
7, 533040, Note_on_c, 5, 79, 80
7, 533136, Note_off_c, 5, 79, 64
7, 533136, Note_off_c, 5, 67, 64
7, 533280, Note_on_c, 5, 60, 80
7, 533280, Note_on_c, 5, 72, 80
7, 533472, Note_off_c, 5, 72, 64
7, 533472, Note_off_c, 5, 60, 64
7, 534000, Note_on_c, 5, 76, 80
7, 534000, Note_on_c, 5, 64, 80
7, 534096, Note_off_c, 5, 64, 64
7, 534096, Note_off_c, 5, 76, 64
7, 534240, Note_on_c, 5, 64, 80
7, 534240, Note_on_c, 5, 76, 80
7, 534432, Note_off_c, 5, 76, 64
7, 534432, Note_off_c, 5, 64, 64
7, 534960, Note_on_c, 5, 79, 80
7, 534960, Note_on_c, 5, 67, 80
7, 535056, Note_off_c, 5, 67, 64
7, 535056, Note_off_c, 5, 79, 64
7, 535200, Note_on_c, 5, 67, 56
7, 535200, Note_on_c, 5, 79, 56
7, 535968, Note_off_c, 5, 79, 64
7, 535968, Note_off_c, 5, 67, 64
7, 536160, Note_on_c, 5, 76, 56
7, 536160, Note_on_c, 5, 64, 56
7, 536928, Note_off_c, 5, 64, 64
7, 536928, Note_off_c, 5, 76, 64
7, 537120, Note_on_c, 5, 60, 56
7, 537120, Note_on_c, 5, 72, 56
7, 537888, Note_off_c, 5, 72, 64
7, 537888, Note_off_c, 5, 60, 64
7, 538080, Note_on_c, 5, 67, 56
7, 538080, Note_on_c, 5, 55, 56
7, 538848, Note_off_c, 5, 55, 64
7, 538848, Note_off_c, 5, 67, 64
7, 539040, Note_on_c, 5, 64, 56
7, 539808, Note_off_c, 5, 64, 64
7, 540000, Note_on_c, 5, 60, 56
7, 540768, Note_off_c, 5, 60, 64
7, 540960, Note_on_c, 5, 64, 56
7, 541728, Note_off_c, 5, 64, 64
7, 541920, Note_on_c, 5, 55, 56
7, 541920, Note_on_c, 5, 67, 56
7, 542688, Note_off_c, 5, 67, 64
7, 542688, Note_off_c, 5, 55, 64
7, 542880, Note_on_c, 5, 60, 56
7, 542880, Note_on_c, 5, 72, 56
7, 543648, Note_off_c, 5, 72, 64
7, 543648, Note_off_c, 5, 60, 64
7, 543840, Note_on_c, 5, 76, 56
7, 543840, Note_on_c, 5, 64, 56
7, 544608, Note_off_c, 5, 64, 64
7, 544608, Note_off_c, 5, 76, 64
7, 544800, Note_on_c, 5, 67, 80
7, 544800, Note_on_c, 5, 79, 80
7, 546336, Note_off_c, 5, 79, 64
7, 546336, Note_off_c, 5, 67, 64
7, 546720, Note_on_c, 5, 72, 80
7, 546720, Note_on_c, 5, 60, 80
7, 546912, Note_off_c, 5, 60, 64
7, 546912, Note_off_c, 5, 72, 64
7, 547200, Note_on_c, 5, 67, 80
7, 547200, Note_on_c, 5, 55, 80
7, 547296, Note_off_c, 5, 55, 64
7, 547296, Note_off_c, 5, 67, 64
7, 547440, Note_on_c, 5, 72, 80
7, 547440, Note_on_c, 5, 60, 80
7, 547536, Note_off_c, 5, 60, 64
7, 547536, Note_off_c, 5, 72, 64
7, 547680, Note_on_c, 5, 60, 80
7, 547680, Note_on_c, 5, 72, 80
7, 547872, Note_off_c, 5, 72, 64
7, 547872, Note_off_c, 5, 60, 64
7, 548160, Note_on_c, 5, 67, 80
7, 548160, Note_on_c, 5, 55, 80
7, 548256, Note_off_c, 5, 55, 64
7, 548256, Note_off_c, 5, 67, 64
7, 548400, Note_on_c, 5, 60, 80
7, 548400, Note_on_c, 5, 72, 80
7, 548496, Note_off_c, 5, 72, 64
7, 548496, Note_off_c, 5, 60, 64
7, 548640, Note_on_c, 5, 79, 80
7, 548640, Note_on_c, 5, 67, 80
7, 550176, Note_off_c, 5, 67, 64
7, 550176, Note_off_c, 5, 79, 64
7, 550560, Note_on_c, 5, 72, 80
7, 550560, Note_on_c, 5, 60, 80
7, 550752, Note_off_c, 5, 60, 64
7, 550752, Note_off_c, 5, 72, 64
7, 551040, Note_on_c, 5, 67, 80
7, 551040, Note_on_c, 5, 55, 80
7, 551136, Note_off_c, 5, 55, 64
7, 551136, Note_off_c, 5, 67, 64
7, 551280, Note_on_c, 5, 72, 80
7, 551280, Note_on_c, 5, 60, 80
7, 551376, Note_off_c, 5, 60, 64
7, 551376, Note_off_c, 5, 72, 64
7, 551520, Note_on_c, 5, 60, 80
7, 551520, Note_on_c, 5, 72, 80
7, 551712, Note_off_c, 5, 72, 64
7, 551712, Note_off_c, 5, 60, 64
7, 552000, Note_on_c, 5, 67, 80
7, 552000, Note_on_c, 5, 55, 80
7, 552096, Note_off_c, 5, 55, 64
7, 552096, Note_off_c, 5, 67, 64
7, 552240, Note_on_c, 5, 60, 80
7, 552240, Note_on_c, 5, 72, 80
7, 552336, Note_off_c, 5, 72, 64
7, 552336, Note_off_c, 5, 60, 64
7, 552480, Note_on_c, 5, 79, 80
7, 552480, Note_on_c, 5, 67, 80
7, 554016, Note_off_c, 5, 67, 64
7, 554016, Note_off_c, 5, 79, 64
7, 554400, Note_on_c, 5, 60, 80
7, 554400, Note_on_c, 5, 72, 80
7, 554592, Note_off_c, 5, 72, 64
7, 554592, Note_off_c, 5, 60, 64
7, 554880, Note_on_c, 5, 55, 80
7, 554880, Note_on_c, 5, 67, 80
7, 554976, Note_off_c, 5, 67, 64
7, 554976, Note_off_c, 5, 55, 64
7, 555120, Note_on_c, 5, 60, 80
7, 555120, Note_on_c, 5, 72, 80
7, 555216, Note_off_c, 5, 72, 64
7, 555216, Note_off_c, 5, 60, 64
7, 555360, Note_on_c, 5, 60, 80
7, 555360, Note_on_c, 5, 72, 80
7, 555552, Note_off_c, 5, 72, 64
7, 555552, Note_off_c, 5, 60, 64
7, 555840, Note_on_c, 5, 67, 80
7, 555840, Note_on_c, 5, 55, 80
7, 555936, Note_off_c, 5, 55, 64
7, 555936, Note_off_c, 5, 67, 64
7, 556080, Note_on_c, 5, 72, 80
7, 556080, Note_on_c, 5, 60, 80
7, 556176, Note_off_c, 5, 60, 64
7, 556176, Note_off_c, 5, 72, 64
7, 556320, Note_on_c, 5, 72, 80
7, 556320, Note_on_c, 5, 60, 80
7, 556512, Note_off_c, 5, 60, 64
7, 556512, Note_off_c, 5, 72, 64
7, 556800, Note_on_c, 5, 72, 80
7, 556800, Note_on_c, 5, 60, 80
7, 556896, Note_off_c, 5, 60, 64
7, 556896, Note_off_c, 5, 72, 64
7, 557040, Note_on_c, 5, 72, 80
7, 557040, Note_on_c, 5, 60, 80
7, 557136, Note_off_c, 5, 60, 64
7, 557136, Note_off_c, 5, 72, 64
7, 557280, Note_on_c, 5, 72, 80
7, 557280, Note_on_c, 5, 60, 80
7, 557472, Note_off_c, 5, 60, 64
7, 557472, Note_off_c, 5, 72, 64
7, 557760, Note_on_c, 5, 72, 80
7, 557760, Note_on_c, 5, 60, 80
7, 557856, Note_off_c, 5, 60, 64
7, 557856, Note_off_c, 5, 72, 64
7, 558000, Note_on_c, 5, 60, 80
7, 558000, Note_on_c, 5, 72, 80
7, 558096, Note_off_c, 5, 72, 64
7, 558096, Note_off_c, 5, 60, 64
7, 558240, Note_on_c, 5, 60, 80
7, 558240, Note_on_c, 5, 72, 80
7, 558432, Note_off_c, 5, 72, 64
7, 558432, Note_off_c, 5, 60, 64
7, 558720, Note_on_c, 5, 60, 80
7, 558720, Note_on_c, 5, 72, 80
7, 558816, Note_off_c, 5, 72, 64
7, 558816, Note_off_c, 5, 60, 64
7, 558960, Note_on_c, 5, 60, 80
7, 558960, Note_on_c, 5, 72, 80
7, 559056, Note_off_c, 5, 72, 64
7, 559056, Note_off_c, 5, 60, 64
7, 559200, Note_on_c, 5, 60, 80
7, 559200, Note_on_c, 5, 72, 80
7, 559392, Note_off_c, 5, 72, 64
7, 559392, Note_off_c, 5, 60, 64
7, 559680, Note_on_c, 5, 72, 80
7, 559680, Note_on_c, 5, 60, 80
7, 559776, Note_off_c, 5, 60, 64
7, 559776, Note_off_c, 5, 72, 64
7, 559920, Note_on_c, 5, 72, 80
7, 559920, Note_on_c, 5, 60, 80
7, 560016, Note_off_c, 5, 60, 64
7, 560016, Note_off_c, 5, 72, 64
7, 560160, Note_on_c, 5, 72, 80
7, 560160, Note_on_c, 5, 60, 80
7, 560352, Note_off_c, 5, 60, 64
7, 560352, Note_off_c, 5, 72, 64
7, 561120, Note_on_c, 5, 72, 80
7, 561120, Note_on_c, 5, 60, 80
7, 561312, Note_off_c, 5, 60, 64
7, 561312, Note_off_c, 5, 72, 64
7, 562320, Note_on_c, 5, 60, 80
7, 562320, Note_on_c, 5, 72, 80
7, 566352, Note_off_c, 5, 72, 64
7, 566352, Note_off_c, 5, 60, 64
7, 566352, End_track
8, 0, Start_track
8, 0, Title_t, "Timpani"
8, 0, MIDI_port, 0
8, 0, Channel_prefix, 6
8, 0, Control_c, 6, 7, 89
8, 0, Control_c, 6, 10, 25
8, 0, Program_c, 6, 47
8, 480, Control_c, 6, 7, 90
8, 480, Program_c, 6, 47
8, 480, Control_c, 6, 10, 30
8, 480, Control_c, 6, 93, 85
8, 480, Control_c, 6, 91, 85
8, 5760, Note_on_c, 6, 48, 114
8, 6144, Note_off_c, 6, 48, 64
8, 7680, Note_on_c, 6, 43, 114
8, 8064, Note_off_c, 6, 43, 64
8, 9600, Note_on_c, 6, 48, 114
8, 9984, Note_off_c, 6, 48, 64
8, 10560, Note_on_c, 6, 48, 114
8, 10944, Note_off_c, 6, 48, 64
8, 11520, Note_on_c, 6, 43, 114
8, 11904, Note_off_c, 6, 43, 64
8, 12360, Note_on_c, 6, 43, 36
8, 12456, Note_off_c, 6, 43, 64
8, 12480, Note_on_c, 6, 43, 36
8, 12864, Note_off_c, 6, 43, 64
8, 12960, Note_on_c, 6, 43, 36
8, 13344, Note_off_c, 6, 43, 64
8, 13440, Note_on_c, 6, 48, 36
8, 13824, Note_off_c, 6, 48, 64
8, 14280, Note_on_c, 6, 48, 36
8, 14376, Note_off_c, 6, 48, 64
8, 14400, Note_on_c, 6, 48, 36
8, 14592, Note_off_c, 6, 48, 64
8, 14880, Note_on_c, 6, 43, 36
8, 15072, Note_off_c, 6, 43, 64
8, 15360, Note_on_c, 6, 43, 36
8, 15552, Note_off_c, 6, 43, 64
8, 15840, Note_on_c, 6, 43, 36
8, 16128, Note_off_c, 6, 43, 64
8, 16200, Note_on_c, 6, 43, 36
8, 16296, Note_off_c, 6, 43, 64
8, 16320, Note_on_c, 6, 43, 36
8, 16512, Note_off_c, 6, 43, 64
8, 16800, Note_on_c, 6, 43, 31
8, 16992, Note_off_c, 6, 43, 64
8, 17280, Note_on_c, 6, 43, 36
8, 17664, Note_off_c, 6, 43, 64
8, 18120, Note_on_c, 6, 43, 36
8, 18216, Note_off_c, 6, 43, 64
8, 18240, Note_on_c, 6, 43, 36
8, 18432, Note_off_c, 6, 43, 64
8, 18720, Note_on_c, 6, 48, 36
8, 18912, Note_off_c, 6, 48, 64
8, 19200, Note_on_c, 6, 43, 36
8, 19392, Note_off_c, 6, 43, 64
8, 19680, Note_on_c, 6, 43, 36
8, 19968, Note_off_c, 6, 43, 64
8, 20040, Note_on_c, 6, 43, 36
8, 20136, Note_off_c, 6, 43, 64
8, 20160, Note_on_c, 6, 48, 31
8, 20352, Note_off_c, 6, 48, 64
8, 29280, Note_on_c, 6, 48, 29
8, 29568, Note_off_c, 6, 48, 64
8, 29640, Note_on_c, 6, 48, 29
8, 29736, Note_off_c, 6, 48, 64
8, 29760, Note_on_c, 6, 48, 29
8, 29952, Note_off_c, 6, 48, 64
8, 30240, Note_on_c, 6, 48, 29
8, 30432, Note_off_c, 6, 48, 64
8, 30720, Note_on_c, 6, 48, 29
8, 30912, Note_off_c, 6, 48, 64
8, 31200, Note_on_c, 6, 48, 29
8, 31392, Note_off_c, 6, 48, 64
8, 32640, Note_on_c, 6, 43, 29
8, 32832, Note_off_c, 6, 43, 64
8, 33120, Note_on_c, 6, 43, 29
8, 33408, Note_off_c, 6, 43, 64
8, 33480, Note_on_c, 6, 43, 29
8, 33576, Note_off_c, 6, 43, 64
8, 33600, Note_on_c, 6, 43, 29
8, 33792, Note_off_c, 6, 43, 64
8, 34080, Note_on_c, 6, 43, 29
8, 34272, Note_off_c, 6, 43, 64
8, 34560, Note_on_c, 6, 48, 29
8, 34752, Note_off_c, 6, 48, 64
8, 35040, Note_on_c, 6, 43, 29
8, 35232, Note_off_c, 6, 43, 64
8, 35520, Note_on_c, 6, 48, 29
8, 35712, Note_off_c, 6, 48, 64
8, 36000, Note_on_c, 6, 48, 29
8, 36192, Note_off_c, 6, 48, 64
8, 36240, Note_on_c, 6, 48, 29
8, 36432, Note_off_c, 6, 48, 64
8, 38400, Note_on_c, 6, 48, 47
8, 38784, Note_off_c, 6, 48, 64
8, 38880, Note_on_c, 6, 48, 47
8, 39106, Note_off_c, 6, 48, 64
8, 39240, Note_on_c, 6, 48, 47
8, 39336, Note_off_c, 6, 48, 64
8, 39360, Note_on_c, 6, 48, 47
8, 39744, Note_off_c, 6, 48, 64
8, 39840, Note_on_c, 6, 48, 47
8, 40224, Note_off_c, 6, 48, 64
8, 40320, Note_on_c, 6, 43, 47
8, 40704, Note_off_c, 6, 43, 64
8, 40800, Note_on_c, 6, 43, 47
8, 41088, Note_off_c, 6, 43, 64
8, 41160, Note_on_c, 6, 43, 47
8, 41256, Note_off_c, 6, 43, 64
8, 41280, Note_on_c, 6, 43, 47
8, 41664, Note_off_c, 6, 43, 64
8, 41760, Note_on_c, 6, 43, 47
8, 42144, Note_off_c, 6, 43, 64
8, 42240, Note_on_c, 6, 48, 47
8, 42624, Note_off_c, 6, 48, 64
8, 44160, Note_on_c, 6, 48, 72
8, 44400, Note_off_c, 6, 48, 64
8, 45000, Note_on_c, 6, 43, 72
8, 45060, Note_off_c, 6, 43, 64
8, 45120, Note_on_c, 6, 48, 72
8, 45240, Note_off_c, 6, 48, 64
8, 45600, Note_on_c, 6, 43, 72
8, 45720, Note_off_c, 6, 43, 64
8, 46080, Note_on_c, 6, 43, 72
8, 46200, Note_off_c, 6, 43, 64
8, 46560, Note_on_c, 6, 48, 72
8, 46680, Note_off_c, 6, 48, 64
8, 47040, Note_on_c, 6, 43, 72
8, 47160, Note_off_c, 6, 43, 64
8, 47520, Note_on_c, 6, 43, 61
8, 47640, Note_off_c, 6, 43, 64
8, 48000, Note_on_c, 6, 48, 72
8, 48120, Note_off_c, 6, 48, 64
8, 48960, Note_on_c, 6, 43, 72
8, 49080, Note_off_c, 6, 43, 64
8, 49440, Note_on_c, 6, 48, 72
8, 49560, Note_off_c, 6, 48, 64
8, 49920, Note_on_c, 6, 43, 80
8, 50304, Note_off_c, 6, 43, 64
8, 50400, Note_on_c, 6, 43, 80
8, 50688, Note_off_c, 6, 43, 64
8, 50760, Note_on_c, 6, 43, 80
8, 50856, Note_off_c, 6, 43, 64
8, 50880, Note_on_c, 6, 48, 80
8, 51264, Note_off_c, 6, 48, 64
8, 51360, Note_on_c, 6, 48, 80
8, 51648, Note_off_c, 6, 48, 64
8, 51720, Note_on_c, 6, 48, 80
8, 51816, Note_off_c, 6, 48, 64
8, 51840, Note_on_c, 6, 43, 80
8, 52224, Note_off_c, 6, 43, 64
8, 52320, Note_on_c, 6, 43, 80
8, 52704, Note_off_c, 6, 43, 64
8, 53280, Note_on_c, 6, 48, 80
8, 53664, Note_off_c, 6, 48, 64
8, 53760, Note_on_c, 6, 43, 80
8, 54144, Note_off_c, 6, 43, 64
8, 54720, Note_on_c, 6, 43, 80
8, 55104, Note_off_c, 6, 43, 64
8, 55200, Note_on_c, 6, 48, 80
8, 55584, Note_off_c, 6, 48, 64
8, 56160, Note_on_c, 6, 43, 80
8, 56544, Note_off_c, 6, 43, 64
8, 59520, Note_on_c, 6, 48, 80
8, 59904, Note_off_c, 6, 48, 64
8, 60480, Note_on_c, 6, 48, 80
8, 60864, Note_off_c, 6, 48, 64
8, 61440, Note_on_c, 6, 48, 80
8, 61824, Note_off_c, 6, 48, 64
8, 61920, Note_on_c, 6, 48, 80
8, 62304, Note_off_c, 6, 48, 64
8, 62880, Note_on_c, 6, 48, 80
8, 63264, Note_off_c, 6, 48, 64
8, 63840, Note_on_c, 6, 48, 80
8, 64224, Note_off_c, 6, 48, 64
8, 64320, Note_on_c, 6, 43, 80
8, 64704, Note_off_c, 6, 43, 64
8, 64800, Note_on_c, 6, 43, 80
8, 65184, Note_off_c, 6, 43, 64
8, 65280, Note_on_c, 6, 48, 80
8, 65664, Note_off_c, 6, 48, 64
8, 65760, Note_on_c, 6, 43, 80
8, 66144, Note_off_c, 6, 43, 64
8, 66240, Note_on_c, 6, 48, 80
8, 66432, Note_off_c, 6, 48, 64
8, 66480, Note_on_c, 6, 48, 80
8, 66576, Note_off_c, 6, 48, 64
8, 66600, Note_on_c, 6, 48, 80
8, 66696, Note_off_c, 6, 48, 64
8, 66720, Note_on_c, 6, 48, 80
8, 66912, Note_off_c, 6, 48, 64
8, 66960, Note_on_c, 6, 48, 80
8, 67152, Note_off_c, 6, 48, 64
8, 67200, Note_on_c, 6, 48, 80
8, 67584, Note_off_c, 6, 48, 64
8, 67680, Note_on_c, 6, 48, 80
8, 68064, Note_off_c, 6, 48, 64
8, 68640, Note_on_c, 6, 43, 80
8, 69024, Note_off_c, 6, 43, 64
8, 69120, Note_on_c, 6, 48, 112
8, 69504, Note_off_c, 6, 48, 64
8, 69600, Note_on_c, 6, 48, 112
8, 69888, Note_off_c, 6, 48, 64
8, 69960, Note_on_c, 6, 48, 112
8, 70056, Note_off_c, 6, 48, 64
8, 70080, Note_on_c, 6, 48, 112
8, 70272, Note_off_c, 6, 48, 64
8, 70320, Note_on_c, 6, 48, 112
8, 70416, Note_off_c, 6, 48, 64
8, 70440, Note_on_c, 6, 48, 112
8, 70536, Note_off_c, 6, 48, 64
8, 70560, Note_on_c, 6, 48, 112
8, 70752, Note_off_c, 6, 48, 64
8, 70800, Note_on_c, 6, 48, 112
8, 70992, Note_off_c, 6, 48, 64
8, 71040, Note_on_c, 6, 43, 112
8, 71232, Note_off_c, 6, 43, 64
8, 71280, Note_on_c, 6, 43, 112
8, 71376, Note_off_c, 6, 43, 64
8, 71400, Note_on_c, 6, 43, 112
8, 71496, Note_off_c, 6, 43, 64
8, 71520, Note_on_c, 6, 43, 112
8, 71712, Note_off_c, 6, 43, 64
8, 71760, Note_on_c, 6, 43, 112
8, 71952, Note_off_c, 6, 43, 64
8, 72000, Note_on_c, 6, 43, 112
8, 72192, Note_off_c, 6, 43, 64
8, 72240, Note_on_c, 6, 43, 112
8, 72336, Note_off_c, 6, 43, 64
8, 72360, Note_on_c, 6, 43, 112
8, 72456, Note_off_c, 6, 43, 64
8, 72480, Note_on_c, 6, 43, 112
8, 72672, Note_off_c, 6, 43, 64
8, 72720, Note_on_c, 6, 43, 112
8, 72912, Note_off_c, 6, 43, 64
8, 72960, Note_on_c, 6, 48, 80
8, 73344, Note_off_c, 6, 48, 64
8, 73440, Note_on_c, 6, 43, 80
8, 73728, Note_off_c, 6, 43, 64
8, 73800, Note_on_c, 6, 43, 80
8, 73896, Note_off_c, 6, 43, 64
8, 73920, Note_on_c, 6, 43, 80
8, 74304, Note_off_c, 6, 43, 64
8, 74400, Note_on_c, 6, 43, 80
8, 74784, Note_off_c, 6, 43, 64
8, 74880, Note_on_c, 6, 48, 72
8, 75264, Note_off_c, 6, 48, 64
8, 82560, Note_on_c, 6, 48, 72
8, 82944, Note_off_c, 6, 48, 64
8, 83760, Note_on_c, 6, 48, 72
8, 83856, Note_off_c, 6, 48, 64
8, 83880, Note_on_c, 6, 48, 72
8, 83976, Note_off_c, 6, 48, 64
8, 84000, Note_on_c, 6, 48, 72
8, 84192, Note_off_c, 6, 48, 64
8, 84240, Note_on_c, 6, 48, 72
8, 84432, Note_off_c, 6, 48, 64
8, 84480, Note_on_c, 6, 48, 72
8, 84864, Note_off_c, 6, 48, 64
8, 85680, Note_on_c, 6, 48, 72
8, 85776, Note_off_c, 6, 48, 64
8, 85800, Note_on_c, 6, 48, 72
8, 85896, Note_off_c, 6, 48, 64
8, 85920, Note_on_c, 6, 48, 72
8, 86112, Note_off_c, 6, 48, 64
8, 86160, Note_on_c, 6, 48, 72
8, 86352, Note_off_c, 6, 48, 64
8, 86400, Note_on_c, 6, 48, 72
8, 86784, Note_off_c, 6, 48, 64
8, 87120, Note_on_c, 6, 48, 72
8, 87216, Note_off_c, 6, 48, 64
8, 87240, Note_on_c, 6, 48, 72
8, 87336, Note_off_c, 6, 48, 64
8, 87360, Note_on_c, 6, 48, 72
8, 87744, Note_off_c, 6, 48, 64
8, 88080, Note_on_c, 6, 48, 72
8, 88176, Note_off_c, 6, 48, 64
8, 88200, Note_on_c, 6, 48, 72
8, 88296, Note_off_c, 6, 48, 64
8, 88320, Note_on_c, 6, 43, 72
8, 88704, Note_off_c, 6, 43, 64
8, 88800, Note_on_c, 6, 48, 72
8, 89184, Note_off_c, 6, 48, 64
8, 89280, Note_on_c, 6, 43, 72
8, 89472, Note_off_c, 6, 43, 64
8, 89520, Note_on_c, 6, 43, 72
8, 89616, Note_off_c, 6, 43, 64
8, 89640, Note_on_c, 6, 43, 72
8, 89736, Note_off_c, 6, 43, 64
8, 89760, Note_on_c, 6, 43, 72
8, 89952, Note_off_c, 6, 43, 64
8, 90000, Note_on_c, 6, 43, 72
8, 90192, Note_off_c, 6, 43, 64
8, 90240, Note_on_c, 6, 43, 72
8, 90624, Note_off_c, 6, 43, 64
8, 97920, Note_on_c, 6, 43, 72
8, 98304, Note_off_c, 6, 43, 64
8, 99120, Note_on_c, 6, 43, 72
8, 99216, Note_off_c, 6, 43, 64
8, 99240, Note_on_c, 6, 43, 72
8, 99336, Note_off_c, 6, 43, 64
8, 99360, Note_on_c, 6, 43, 72
8, 99552, Note_off_c, 6, 43, 64
8, 99600, Note_on_c, 6, 43, 72
8, 99792, Note_off_c, 6, 43, 64
8, 99840, Note_on_c, 6, 48, 72
8, 100224, Note_off_c, 6, 48, 64
8, 101040, Note_on_c, 6, 48, 72
8, 101136, Note_off_c, 6, 48, 64
8, 101160, Note_on_c, 6, 48, 72
8, 101256, Note_off_c, 6, 48, 64
8, 101280, Note_on_c, 6, 48, 72
8, 101472, Note_off_c, 6, 48, 64
8, 101520, Note_on_c, 6, 48, 72
8, 101712, Note_off_c, 6, 48, 64
8, 101760, Note_on_c, 6, 48, 72
8, 102144, Note_off_c, 6, 48, 64
8, 102480, Note_on_c, 6, 48, 72
8, 102576, Note_off_c, 6, 48, 64
8, 102600, Note_on_c, 6, 48, 72
8, 102696, Note_off_c, 6, 48, 64
8, 102720, Note_on_c, 6, 48, 72
8, 103104, Note_off_c, 6, 48, 64
8, 103440, Note_on_c, 6, 48, 72
8, 103536, Note_off_c, 6, 48, 64
8, 103560, Note_on_c, 6, 48, 72
8, 103656, Note_off_c, 6, 48, 64
8, 103680, Note_on_c, 6, 43, 72
8, 104064, Note_off_c, 6, 43, 64
8, 104160, Note_on_c, 6, 43, 72
8, 104448, Note_off_c, 6, 43, 64
8, 104520, Note_on_c, 6, 43, 72
8, 104616, Note_off_c, 6, 43, 64
8, 104640, Note_on_c, 6, 48, 72
8, 104832, Note_off_c, 6, 48, 64
8, 128160, Note_on_c, 6, 43, 1
8, 128184, Note_off_c, 6, 43, 64
8, 128190, Note_on_c, 6, 43, 71
8, 128214, Note_off_c, 6, 43, 64
8, 128220, Note_on_c, 6, 43, 73
8, 128244, Note_off_c, 6, 43, 64
8, 128250, Note_on_c, 6, 43, 75
8, 128274, Note_off_c, 6, 43, 64
8, 128280, Note_on_c, 6, 43, 77
8, 128304, Note_off_c, 6, 43, 64
8, 128310, Note_on_c, 6, 43, 77
8, 128334, Note_off_c, 6, 43, 64
8, 128340, Note_on_c, 6, 43, 79
8, 128364, Note_off_c, 6, 43, 64
8, 128370, Note_on_c, 6, 43, 81
8, 128394, Note_off_c, 6, 43, 64
8, 128400, Note_on_c, 6, 43, 83
8, 128424, Note_off_c, 6, 43, 64
8, 128430, Note_on_c, 6, 43, 85
8, 128454, Note_off_c, 6, 43, 64
8, 128460, Note_on_c, 6, 43, 86
8, 128484, Note_off_c, 6, 43, 64
8, 128490, Note_on_c, 6, 43, 88
8, 128514, Note_off_c, 6, 43, 64
8, 128520, Note_on_c, 6, 43, 90
8, 128544, Note_off_c, 6, 43, 64
8, 128550, Note_on_c, 6, 43, 91
8, 128574, Note_off_c, 6, 43, 64
8, 128580, Note_on_c, 6, 43, 93
8, 128604, Note_off_c, 6, 43, 64
8, 128610, Note_on_c, 6, 43, 95
8, 128610, Note_on_c, 6, 43, 95
8, 128634, Note_off_c, 6, 43, 64
8, 128634, Note_off_c, 6, 43, 64
8, 128640, Note_on_c, 6, 43, 96
8, 129024, Note_off_c, 6, 43, 64
8, 129120, Note_on_c, 6, 43, 108
8, 129408, Note_off_c, 6, 43, 64
8, 129480, Note_on_c, 6, 43, 108
8, 129576, Note_off_c, 6, 43, 64
8, 129600, Note_on_c, 6, 43, 108
8, 129984, Note_off_c, 6, 43, 64
8, 130080, Note_on_c, 6, 43, 108
8, 130464, Note_off_c, 6, 43, 64
8, 131040, Note_on_c, 6, 43, 108
8, 131328, Note_off_c, 6, 43, 64
8, 131400, Note_on_c, 6, 43, 108
8, 131496, Note_off_c, 6, 43, 64
8, 131520, Note_on_c, 6, 43, 108
8, 131904, Note_off_c, 6, 43, 64
8, 132000, Note_on_c, 6, 43, 108
8, 132384, Note_off_c, 6, 43, 64
8, 132960, Note_on_c, 6, 43, 108
8, 133248, Note_off_c, 6, 43, 64
8, 133320, Note_on_c, 6, 43, 108
8, 133416, Note_off_c, 6, 43, 64
8, 133440, Note_on_c, 6, 43, 108
8, 133824, Note_off_c, 6, 43, 64
8, 133920, Note_on_c, 6, 43, 108
8, 134304, Note_off_c, 6, 43, 64
8, 134880, Note_on_c, 6, 43, 108
8, 135168, Note_off_c, 6, 43, 64
8, 135240, Note_on_c, 6, 43, 108
8, 135336, Note_off_c, 6, 43, 64
8, 135360, Note_on_c, 6, 43, 108
8, 135744, Note_off_c, 6, 43, 64
8, 135840, Note_on_c, 6, 43, 108
8, 136224, Note_off_c, 6, 43, 64
8, 136800, Note_on_c, 6, 43, 92
8, 137088, Note_off_c, 6, 43, 64
8, 137160, Note_on_c, 6, 43, 92
8, 137256, Note_off_c, 6, 43, 64
8, 137280, Note_on_c, 6, 43, 92
8, 137664, Note_off_c, 6, 43, 64
8, 137760, Note_on_c, 6, 43, 78
8, 138144, Note_off_c, 6, 43, 64
8, 138720, Note_on_c, 6, 43, 67
8, 139008, Note_off_c, 6, 43, 64
8, 139080, Note_on_c, 6, 43, 67
8, 139176, Note_off_c, 6, 43, 64
8, 139200, Note_on_c, 6, 43, 67
8, 139584, Note_off_c, 6, 43, 64
8, 139680, Note_on_c, 6, 43, 57
8, 139906, Note_off_c, 6, 43, 64
8, 139920, Note_on_c, 6, 43, 38
8, 140112, Note_off_c, 6, 43, 64
8, 140160, Note_on_c, 6, 43, 36
8, 140352, Note_off_c, 6, 43, 64
8, 180720, Note_on_c, 6, 43, 92
8, 180912, Note_off_c, 6, 43, 64
8, 180960, Note_on_c, 6, 43, 72
8, 181152, Note_off_c, 6, 43, 64
8, 181200, Note_on_c, 6, 43, 72
8, 181392, Note_off_c, 6, 43, 64
8, 181680, Note_on_c, 6, 48, 92
8, 181872, Note_off_c, 6, 48, 64
8, 181920, Note_on_c, 6, 48, 72
8, 182112, Note_off_c, 6, 48, 64
8, 182160, Note_on_c, 6, 48, 72
8, 182352, Note_off_c, 6, 48, 64
8, 182640, Note_on_c, 6, 43, 92
8, 182832, Note_off_c, 6, 43, 64
8, 182880, Note_on_c, 6, 43, 72
8, 183072, Note_off_c, 6, 43, 64
8, 183120, Note_on_c, 6, 43, 72
8, 183312, Note_off_c, 6, 43, 64
8, 183600, Note_on_c, 6, 48, 72
8, 183792, Note_off_c, 6, 48, 64
8, 191280, Note_on_c, 6, 43, 72
8, 191472, Note_off_c, 6, 43, 64
8, 191520, Note_on_c, 6, 43, 72
8, 191712, Note_off_c, 6, 43, 64
8, 191760, Note_on_c, 6, 43, 72
8, 191952, Note_off_c, 6, 43, 64
8, 193200, Note_on_c, 6, 43, 72
8, 193584, Note_off_c, 6, 43, 64
8, 194160, Note_on_c, 6, 48, 72
8, 194544, Note_off_c, 6, 48, 64
8, 194640, Note_on_c, 6, 48, 72
8, 195024, Note_off_c, 6, 48, 64
8, 195600, Note_on_c, 6, 43, 72
8, 195984, Note_off_c, 6, 43, 64
8, 196080, Note_on_c, 6, 48, 72
8, 196464, Note_off_c, 6, 48, 64
8, 196560, Note_on_c, 6, 48, 72
8, 196944, Note_off_c, 6, 48, 64
8, 197520, Note_on_c, 6, 43, 72
8, 197904, Note_off_c, 6, 43, 64
8, 198000, Note_on_c, 6, 48, 72
8, 198384, Note_off_c, 6, 48, 64
8, 198480, Note_on_c, 6, 48, 72
8, 198864, Note_off_c, 6, 48, 64
8, 198960, Note_on_c, 6, 43, 72
8, 199344, Note_off_c, 6, 43, 64
8, 199440, Note_on_c, 6, 48, 72
8, 199824, Note_off_c, 6, 48, 64
8, 199920, Note_on_c, 6, 43, 92
8, 200112, Note_off_c, 6, 43, 64
8, 200160, Note_on_c, 6, 43, 72
8, 200352, Note_off_c, 6, 43, 64
8, 200400, Note_on_c, 6, 43, 72
8, 200592, Note_off_c, 6, 43, 64
8, 200880, Note_on_c, 6, 48, 92
8, 201072, Note_off_c, 6, 48, 64
8, 201120, Note_on_c, 6, 48, 72
8, 201312, Note_off_c, 6, 48, 64
8, 201360, Note_on_c, 6, 48, 72
8, 201552, Note_off_c, 6, 48, 64
8, 201840, Note_on_c, 6, 43, 92
8, 202032, Note_off_c, 6, 43, 64
8, 202080, Note_on_c, 6, 43, 72
8, 202272, Note_off_c, 6, 43, 64
8, 202320, Note_on_c, 6, 43, 72
8, 202512, Note_off_c, 6, 43, 64
8, 202800, Note_on_c, 6, 48, 72
8, 202992, Note_off_c, 6, 48, 64
8, 203760, Note_on_c, 6, 43, 72
8, 204144, Note_off_c, 6, 43, 64
8, 204240, Note_on_c, 6, 43, 72
8, 204624, Note_off_c, 6, 43, 64
8, 206160, Note_on_c, 6, 43, 72
8, 206544, Note_off_c, 6, 43, 64
8, 208080, Note_on_c, 6, 48, 72
8, 208464, Note_off_c, 6, 48, 64
8, 209040, Note_on_c, 6, 43, 72
8, 209424, Note_off_c, 6, 43, 64
8, 210000, Note_on_c, 6, 48, 72
8, 210384, Note_off_c, 6, 48, 64
8, 210960, Note_on_c, 6, 43, 72
8, 211344, Note_off_c, 6, 43, 64
8, 211920, Note_on_c, 6, 48, 72
8, 212304, Note_off_c, 6, 48, 64
8, 212640, Note_on_c, 6, 43, 72
8, 212866, Note_off_c, 6, 43, 64
8, 212880, Note_on_c, 6, 43, 72
8, 213106, Note_off_c, 6, 43, 64
8, 213120, Note_on_c, 6, 43, 72
8, 213346, Note_off_c, 6, 43, 64
8, 213360, Note_on_c, 6, 43, 72
8, 213552, Note_off_c, 6, 43, 64
8, 213600, Note_on_c, 6, 43, 72
8, 213792, Note_off_c, 6, 43, 64
8, 213840, Note_on_c, 6, 43, 72
8, 214032, Note_off_c, 6, 43, 64
8, 214320, Note_on_c, 6, 48, 72
8, 214512, Note_off_c, 6, 48, 64
8, 214560, Note_on_c, 6, 48, 72
8, 214752, Note_off_c, 6, 48, 64
8, 214800, Note_on_c, 6, 48, 72
8, 214992, Note_off_c, 6, 48, 64
8, 215280, Note_on_c, 6, 43, 114
8, 215376, Note_off_c, 6, 43, 64
8, 215400, Note_on_c, 6, 43, 114
8, 215496, Note_off_c, 6, 43, 64
8, 215520, Note_on_c, 6, 43, 114
8, 215616, Note_off_c, 6, 43, 64
8, 215640, Note_on_c, 6, 43, 114
8, 215736, Note_off_c, 6, 43, 64
8, 215760, Note_on_c, 6, 43, 114
8, 215856, Note_off_c, 6, 43, 64
8, 215880, Note_on_c, 6, 43, 114
8, 215976, Note_off_c, 6, 43, 64
8, 216000, Note_on_c, 6, 43, 114
8, 216096, Note_off_c, 6, 43, 64
8, 216120, Note_on_c, 6, 43, 114
8, 216216, Note_off_c, 6, 43, 64
8, 216240, Note_on_c, 6, 43, 114
8, 216336, Note_off_c, 6, 43, 64
8, 216360, Note_on_c, 6, 43, 114
8, 216456, Note_off_c, 6, 43, 64
8, 216480, Note_on_c, 6, 43, 114
8, 216576, Note_off_c, 6, 43, 64
8, 216600, Note_on_c, 6, 43, 114
8, 216696, Note_off_c, 6, 43, 64
8, 216720, Note_on_c, 6, 43, 114
8, 216816, Note_off_c, 6, 43, 64
8, 216840, Note_on_c, 6, 43, 114
8, 216936, Note_off_c, 6, 43, 64
8, 216960, Note_on_c, 6, 43, 114
8, 217056, Note_off_c, 6, 43, 64
8, 217080, Note_on_c, 6, 43, 114
8, 217176, Note_off_c, 6, 43, 64
8, 217200, Note_on_c, 6, 48, 101
8, 217584, Note_off_c, 6, 48, 64
8, 217680, Note_on_c, 6, 48, 101
8, 218064, Note_off_c, 6, 48, 64
8, 218640, Note_on_c, 6, 43, 101
8, 219024, Note_off_c, 6, 43, 64
8, 219120, Note_on_c, 6, 48, 101
8, 219504, Note_off_c, 6, 48, 64
8, 219600, Note_on_c, 6, 48, 101
8, 219984, Note_off_c, 6, 48, 64
8, 220560, Note_on_c, 6, 48, 101
8, 220944, Note_off_c, 6, 48, 64
8, 221040, Note_on_c, 6, 48, 101
8, 221424, Note_off_c, 6, 48, 64
8, 221520, Note_on_c, 6, 48, 101
8, 221904, Note_off_c, 6, 48, 64
8, 222480, Note_on_c, 6, 48, 101
8, 222864, Note_off_c, 6, 48, 64
8, 222960, Note_on_c, 6, 43, 72
8, 223152, Note_off_c, 6, 43, 64
8, 223200, Note_on_c, 6, 43, 72
8, 223392, Note_off_c, 6, 43, 64
8, 223440, Note_on_c, 6, 43, 72
8, 223632, Note_off_c, 6, 43, 64
8, 223920, Note_on_c, 6, 48, 72
8, 224112, Note_off_c, 6, 48, 64
8, 224160, Note_on_c, 6, 48, 72
8, 224352, Note_off_c, 6, 48, 64
8, 224400, Note_on_c, 6, 48, 72
8, 224592, Note_off_c, 6, 48, 64
8, 224880, Note_on_c, 6, 43, 72
8, 225072, Note_off_c, 6, 43, 64
8, 225120, Note_on_c, 6, 43, 72
8, 225312, Note_off_c, 6, 43, 64
8, 225360, Note_on_c, 6, 43, 72
8, 225552, Note_off_c, 6, 43, 64
8, 225840, Note_on_c, 6, 48, 72
8, 226032, Note_off_c, 6, 48, 64
8, 226080, Note_on_c, 6, 48, 72
8, 226272, Note_off_c, 6, 48, 64
8, 226320, Note_on_c, 6, 48, 72
8, 226512, Note_off_c, 6, 48, 64
8, 226800, Note_on_c, 6, 48, 72
8, 226992, Note_off_c, 6, 48, 64
8, 227040, Note_on_c, 6, 48, 72
8, 227232, Note_off_c, 6, 48, 64
8, 227280, Note_on_c, 6, 48, 72
8, 227472, Note_off_c, 6, 48, 64
8, 227760, Note_on_c, 6, 48, 72
8, 227952, Note_off_c, 6, 48, 64
8, 228000, Note_on_c, 6, 48, 72
8, 228192, Note_off_c, 6, 48, 64
8, 228240, Note_on_c, 6, 48, 72
8, 228432, Note_off_c, 6, 48, 64
8, 228720, Note_on_c, 6, 48, 58
8, 228912, Note_off_c, 6, 48, 64
8, 228960, Note_on_c, 6, 48, 58
8, 229152, Note_off_c, 6, 48, 64
8, 229200, Note_on_c, 6, 48, 58
8, 229392, Note_off_c, 6, 48, 64
8, 229680, Note_on_c, 6, 43, 58
8, 229872, Note_off_c, 6, 43, 64
8, 229920, Note_on_c, 6, 43, 58
8, 230112, Note_off_c, 6, 43, 64
8, 230160, Note_on_c, 6, 43, 58
8, 230352, Note_off_c, 6, 43, 64
8, 230640, Note_on_c, 6, 48, 58
8, 230832, Note_off_c, 6, 48, 64
8, 230880, Note_on_c, 6, 48, 58
8, 231072, Note_off_c, 6, 48, 64
8, 231120, Note_on_c, 6, 48, 58
8, 231312, Note_off_c, 6, 48, 64
8, 232560, Note_on_c, 6, 43, 114
8, 232944, Note_off_c, 6, 43, 64
8, 295920, Note_on_c, 6, 43, 80
8, 296304, Note_off_c, 6, 43, 64
8, 296400, Note_on_c, 6, 48, 80
8, 296784, Note_off_c, 6, 48, 64
8, 297840, Note_on_c, 6, 43, 80
8, 298224, Note_off_c, 6, 43, 64
8, 298320, Note_on_c, 6, 48, 80
8, 298704, Note_off_c, 6, 48, 64
8, 299280, Note_on_c, 6, 43, 80
8, 299664, Note_off_c, 6, 43, 64
8, 300240, Note_on_c, 6, 48, 80
8, 300624, Note_off_c, 6, 48, 64
8, 302160, Note_on_c, 6, 43, 80
8, 302544, Note_off_c, 6, 43, 64
8, 303120, Note_on_c, 6, 43, 80
8, 303504, Note_off_c, 6, 43, 64
8, 304080, Note_on_c, 6, 43, 80
8, 304464, Note_off_c, 6, 43, 64
8, 305040, Note_on_c, 6, 43, 80
8, 305424, Note_off_c, 6, 43, 64
8, 306000, Note_on_c, 6, 43, 80
8, 306384, Note_off_c, 6, 43, 64
8, 306540, Note_on_c, 6, 43, 80
8, 306924, Note_off_c, 6, 43, 64
8, 307080, Note_on_c, 6, 43, 80
8, 307464, Note_off_c, 6, 43, 64
8, 307680, Note_on_c, 6, 48, 120
8, 308448, Note_off_c, 6, 48, 64
8, 308640, Note_on_c, 6, 43, 120
8, 309024, Note_off_c, 6, 43, 64
8, 309120, Note_on_c, 6, 48, 120
8, 309312, Note_off_c, 6, 48, 64
8, 309360, Note_on_c, 6, 48, 120
8, 309552, Note_off_c, 6, 48, 64
8, 309600, Note_on_c, 6, 48, 120
8, 310368, Note_off_c, 6, 48, 64
8, 310560, Note_on_c, 6, 43, 120
8, 310944, Note_off_c, 6, 43, 64
8, 311040, Note_on_c, 6, 48, 120
8, 311232, Note_off_c, 6, 48, 64
8, 311280, Note_on_c, 6, 48, 120
8, 311472, Note_off_c, 6, 48, 64
8, 311520, Note_on_c, 6, 48, 120
8, 312288, Note_off_c, 6, 48, 64
8, 312480, Note_on_c, 6, 43, 120
8, 312864, Note_off_c, 6, 43, 64
8, 312960, Note_on_c, 6, 48, 120
8, 313152, Note_off_c, 6, 48, 64
8, 313200, Note_on_c, 6, 48, 120
8, 313392, Note_off_c, 6, 48, 64
8, 313440, Note_on_c, 6, 48, 120
8, 313824, Note_off_c, 6, 48, 64
8, 313920, Note_on_c, 6, 48, 120
8, 314304, Note_off_c, 6, 48, 64
8, 314400, Note_on_c, 6, 43, 120
8, 314784, Note_off_c, 6, 43, 64
8, 314880, Note_on_c, 6, 43, 120
8, 315264, Note_off_c, 6, 43, 64
8, 315360, Note_on_c, 6, 48, 120
8, 316128, Note_off_c, 6, 48, 64
8, 316320, Note_on_c, 6, 43, 120
8, 316704, Note_off_c, 6, 43, 64
8, 316800, Note_on_c, 6, 48, 120
8, 316992, Note_off_c, 6, 48, 64
8, 317040, Note_on_c, 6, 48, 120
8, 317232, Note_off_c, 6, 48, 64
8, 317280, Note_on_c, 6, 48, 120
8, 318048, Note_off_c, 6, 48, 64
8, 318240, Note_on_c, 6, 43, 120
8, 318624, Note_off_c, 6, 43, 64
8, 318720, Note_on_c, 6, 48, 120
8, 318912, Note_off_c, 6, 48, 64
8, 318960, Note_on_c, 6, 48, 120
8, 319152, Note_off_c, 6, 48, 64
8, 319200, Note_on_c, 6, 48, 120
8, 319968, Note_off_c, 6, 48, 64
8, 320160, Note_on_c, 6, 43, 120
8, 320544, Note_off_c, 6, 43, 64
8, 320640, Note_on_c, 6, 48, 120
8, 320832, Note_off_c, 6, 48, 64
8, 320880, Note_on_c, 6, 48, 120
8, 321072, Note_off_c, 6, 48, 64
8, 321120, Note_on_c, 6, 48, 120
8, 321504, Note_off_c, 6, 48, 64
8, 321600, Note_on_c, 6, 48, 120
8, 321984, Note_off_c, 6, 48, 64
8, 322080, Note_on_c, 6, 43, 120
8, 322464, Note_off_c, 6, 43, 64
8, 322560, Note_on_c, 6, 47, 120
8, 322944, Note_off_c, 6, 47, 64
8, 323040, Note_on_c, 6, 52, 120
8, 323266, Note_off_c, 6, 52, 64
8, 326880, Note_on_c, 6, 52, 120
8, 327106, Note_off_c, 6, 52, 64
8, 330720, Note_on_c, 6, 52, 72
8, 330946, Note_off_c, 6, 52, 64
8, 331680, Note_on_c, 6, 52, 72
8, 331906, Note_off_c, 6, 52, 64
8, 332640, Note_on_c, 6, 52, 96
8, 332866, Note_off_c, 6, 52, 64
8, 333600, Note_on_c, 6, 52, 96
8, 333826, Note_off_c, 6, 52, 64
8, 334560, Note_on_c, 6, 52, 80
8, 334944, Note_off_c, 6, 52, 64
8, 335520, Note_on_c, 6, 52, 80
8, 335904, Note_off_c, 6, 52, 64
8, 336000, Note_on_c, 6, 52, 80
8, 336384, Note_off_c, 6, 52, 64
8, 336480, Note_on_c, 6, 52, 80
8, 336864, Note_off_c, 6, 52, 64
8, 337440, Note_on_c, 6, 52, 80
8, 337824, Note_off_c, 6, 52, 64
8, 355680, Note_on_c, 6, 48, 72
8, 356064, Note_off_c, 6, 48, 64
8, 356640, Note_on_c, 6, 43, 82
8, 357024, Note_off_c, 6, 43, 64
8, 357120, Note_on_c, 6, 43, 86
8, 357312, Note_off_c, 6, 43, 64
8, 357360, Note_on_c, 6, 43, 89
8, 357552, Note_off_c, 6, 43, 64
8, 357600, Note_on_c, 6, 48, 91
8, 357792, Note_off_c, 6, 48, 64
8, 357840, Note_on_c, 6, 43, 94
8, 358032, Note_off_c, 6, 43, 64
8, 358080, Note_on_c, 6, 43, 96
8, 358272, Note_off_c, 6, 43, 64
8, 358320, Note_on_c, 6, 43, 98
8, 358512, Note_off_c, 6, 43, 64
8, 358560, Note_on_c, 6, 43, 101
8, 358752, Note_off_c, 6, 43, 64
8, 358800, Note_on_c, 6, 43, 103
8, 358992, Note_off_c, 6, 43, 64
8, 359040, Note_on_c, 6, 43, 105
8, 359232, Note_off_c, 6, 43, 64
8, 359280, Note_on_c, 6, 43, 108
8, 359472, Note_off_c, 6, 43, 64
8, 359520, Note_on_c, 6, 43, 80
8, 359712, Note_off_c, 6, 43, 64
8, 359760, Note_on_c, 6, 43, 60
8, 359952, Note_off_c, 6, 43, 64
8, 360000, Note_on_c, 6, 43, 60
8, 360192, Note_off_c, 6, 43, 64
8, 360480, Note_on_c, 6, 43, 80
8, 360672, Note_off_c, 6, 43, 64
8, 360720, Note_on_c, 6, 43, 60
8, 360912, Note_off_c, 6, 43, 64
8, 360960, Note_on_c, 6, 43, 60
8, 361152, Note_off_c, 6, 43, 64
8, 361440, Note_on_c, 6, 43, 80
8, 361632, Note_off_c, 6, 43, 64
8, 361680, Note_on_c, 6, 43, 60
8, 361872, Note_off_c, 6, 43, 64
8, 361920, Note_on_c, 6, 43, 60
8, 362112, Note_off_c, 6, 43, 64
8, 362400, Note_on_c, 6, 43, 80
8, 362592, Note_off_c, 6, 43, 64
8, 362640, Note_on_c, 6, 43, 60
8, 362832, Note_off_c, 6, 43, 64
8, 362880, Note_on_c, 6, 43, 60
8, 363072, Note_off_c, 6, 43, 64
8, 363360, Note_on_c, 6, 43, 80
8, 363552, Note_off_c, 6, 43, 64
8, 363600, Note_on_c, 6, 43, 60
8, 363792, Note_off_c, 6, 43, 64
8, 363840, Note_on_c, 6, 43, 60
8, 364032, Note_off_c, 6, 43, 64
8, 364320, Note_on_c, 6, 43, 80
8, 364512, Note_off_c, 6, 43, 64
8, 364560, Note_on_c, 6, 43, 60
8, 364752, Note_off_c, 6, 43, 64
8, 364800, Note_on_c, 6, 43, 60
8, 364992, Note_off_c, 6, 43, 64
8, 365280, Note_on_c, 6, 43, 80
8, 365472, Note_off_c, 6, 43, 64
8, 365520, Note_on_c, 6, 43, 60
8, 365712, Note_off_c, 6, 43, 64
8, 365760, Note_on_c, 6, 43, 60
8, 365952, Note_off_c, 6, 43, 64
8, 366240, Note_on_c, 6, 43, 80
8, 366432, Note_off_c, 6, 43, 64
8, 366480, Note_on_c, 6, 43, 60
8, 366672, Note_off_c, 6, 43, 64
8, 366720, Note_on_c, 6, 43, 60
8, 366912, Note_off_c, 6, 43, 64
8, 367200, Note_on_c, 6, 43, 80
8, 367392, Note_off_c, 6, 43, 64
8, 367440, Note_on_c, 6, 43, 60
8, 367632, Note_off_c, 6, 43, 64
8, 367680, Note_on_c, 6, 43, 60
8, 367872, Note_off_c, 6, 43, 64
8, 368160, Note_on_c, 6, 43, 80
8, 368352, Note_off_c, 6, 43, 64
8, 368400, Note_on_c, 6, 43, 60
8, 368592, Note_off_c, 6, 43, 64
8, 368640, Note_on_c, 6, 43, 60
8, 368832, Note_off_c, 6, 43, 64
8, 369120, Note_on_c, 6, 43, 80
8, 369312, Note_off_c, 6, 43, 64
8, 369360, Note_on_c, 6, 43, 60
8, 369552, Note_off_c, 6, 43, 64
8, 369600, Note_on_c, 6, 43, 60
8, 369792, Note_off_c, 6, 43, 64
8, 370080, Note_on_c, 6, 43, 80
8, 370272, Note_off_c, 6, 43, 64
8, 370320, Note_on_c, 6, 43, 60
8, 370512, Note_off_c, 6, 43, 64
8, 370560, Note_on_c, 6, 43, 60
8, 370752, Note_off_c, 6, 43, 64
8, 371040, Note_on_c, 6, 43, 80
8, 371232, Note_off_c, 6, 43, 64
8, 371280, Note_on_c, 6, 43, 60
8, 371472, Note_off_c, 6, 43, 64
8, 371520, Note_on_c, 6, 43, 60
8, 371712, Note_off_c, 6, 43, 64
8, 372000, Note_on_c, 6, 43, 80
8, 372192, Note_off_c, 6, 43, 64
8, 372240, Note_on_c, 6, 43, 60
8, 372432, Note_off_c, 6, 43, 64
8, 372480, Note_on_c, 6, 43, 60
8, 372672, Note_off_c, 6, 43, 64
8, 372960, Note_on_c, 6, 43, 80
8, 373152, Note_off_c, 6, 43, 64
8, 373200, Note_on_c, 6, 43, 60
8, 373392, Note_off_c, 6, 43, 64
8, 373440, Note_on_c, 6, 43, 60
8, 373632, Note_off_c, 6, 43, 64
8, 373920, Note_on_c, 6, 43, 80
8, 374112, Note_off_c, 6, 43, 64
8, 374160, Note_on_c, 6, 43, 60
8, 374352, Note_off_c, 6, 43, 64
8, 374400, Note_on_c, 6, 43, 60
8, 374592, Note_off_c, 6, 43, 64
8, 374880, Note_on_c, 6, 43, 80
8, 375072, Note_off_c, 6, 43, 64
8, 375120, Note_on_c, 6, 43, 60
8, 375312, Note_off_c, 6, 43, 64
8, 375360, Note_on_c, 6, 43, 60
8, 375552, Note_off_c, 6, 43, 64
8, 375840, Note_on_c, 6, 43, 80
8, 376032, Note_off_c, 6, 43, 64
8, 376080, Note_on_c, 6, 43, 60
8, 376272, Note_off_c, 6, 43, 64
8, 376320, Note_on_c, 6, 43, 60
8, 376512, Note_off_c, 6, 43, 64
8, 376800, Note_on_c, 6, 43, 80
8, 376992, Note_off_c, 6, 43, 64
8, 377040, Note_on_c, 6, 43, 60
8, 377232, Note_off_c, 6, 43, 64
8, 377280, Note_on_c, 6, 43, 60
8, 377472, Note_off_c, 6, 43, 64
8, 377760, Note_on_c, 6, 43, 80
8, 377952, Note_off_c, 6, 43, 64
8, 378000, Note_on_c, 6, 43, 60
8, 378192, Note_off_c, 6, 43, 64
8, 378240, Note_on_c, 6, 43, 60
8, 378432, Note_off_c, 6, 43, 64
8, 378720, Note_on_c, 6, 43, 80
8, 378912, Note_off_c, 6, 43, 64
8, 378960, Note_on_c, 6, 43, 60
8, 379152, Note_off_c, 6, 43, 64
8, 379200, Note_on_c, 6, 43, 60
8, 379392, Note_off_c, 6, 43, 64
8, 379680, Note_on_c, 6, 43, 80
8, 379872, Note_off_c, 6, 43, 64
8, 379920, Note_on_c, 6, 43, 60
8, 380112, Note_off_c, 6, 43, 64
8, 380160, Note_on_c, 6, 43, 60
8, 380352, Note_off_c, 6, 43, 64
8, 380640, Note_on_c, 6, 43, 80
8, 380832, Note_off_c, 6, 43, 64
8, 380880, Note_on_c, 6, 43, 60
8, 381072, Note_off_c, 6, 43, 64
8, 381120, Note_on_c, 6, 43, 60
8, 381312, Note_off_c, 6, 43, 64
8, 381600, Note_on_c, 6, 43, 80
8, 381792, Note_off_c, 6, 43, 64
8, 381840, Note_on_c, 6, 43, 60
8, 382032, Note_off_c, 6, 43, 64
8, 382080, Note_on_c, 6, 43, 60
8, 382272, Note_off_c, 6, 43, 64
8, 382560, Note_on_c, 6, 43, 80
8, 382752, Note_off_c, 6, 43, 64
8, 382800, Note_on_c, 6, 43, 60
8, 382992, Note_off_c, 6, 43, 64
8, 383040, Note_on_c, 6, 43, 60
8, 383232, Note_off_c, 6, 43, 64
8, 383520, Note_on_c, 6, 43, 80
8, 383712, Note_off_c, 6, 43, 64
8, 383760, Note_on_c, 6, 43, 60
8, 383952, Note_off_c, 6, 43, 64
8, 384000, Note_on_c, 6, 43, 60
8, 384192, Note_off_c, 6, 43, 64
8, 384480, Note_on_c, 6, 43, 80
8, 384672, Note_off_c, 6, 43, 64
8, 384720, Note_on_c, 6, 43, 60
8, 384912, Note_off_c, 6, 43, 64
8, 384960, Note_on_c, 6, 43, 60
8, 385152, Note_off_c, 6, 43, 64
8, 385440, Note_on_c, 6, 43, 80
8, 385632, Note_off_c, 6, 43, 64
8, 385680, Note_on_c, 6, 43, 60
8, 385872, Note_off_c, 6, 43, 64
8, 385920, Note_on_c, 6, 43, 60
8, 386112, Note_off_c, 6, 43, 64
8, 386400, Note_on_c, 6, 43, 80
8, 386592, Note_off_c, 6, 43, 64
8, 386640, Note_on_c, 6, 43, 60
8, 386832, Note_off_c, 6, 43, 64
8, 386880, Note_on_c, 6, 43, 60
8, 387072, Note_off_c, 6, 43, 64
8, 387360, Note_on_c, 6, 43, 80
8, 387552, Note_off_c, 6, 43, 64
8, 387600, Note_on_c, 6, 43, 60
8, 387792, Note_off_c, 6, 43, 64
8, 387840, Note_on_c, 6, 43, 60
8, 388032, Note_off_c, 6, 43, 64
8, 388320, Note_on_c, 6, 43, 127
8, 388704, Note_off_c, 6, 43, 64
8, 388920, Note_on_c, 6, 43, 127
8, 388968, Note_off_c, 6, 43, 64
8, 388980, Note_on_c, 6, 43, 120
8, 389028, Note_off_c, 6, 43, 64
8, 389040, Note_on_c, 6, 43, 120
8, 389088, Note_off_c, 6, 43, 64
8, 389100, Note_on_c, 6, 43, 120
8, 389148, Note_off_c, 6, 43, 64
8, 389160, Note_on_c, 6, 43, 120
8, 389208, Note_off_c, 6, 43, 64
8, 389220, Note_on_c, 6, 43, 120
8, 389268, Note_off_c, 6, 43, 64
8, 389280, Note_on_c, 6, 43, 120
8, 389328, Note_off_c, 6, 43, 64
8, 389340, Note_on_c, 6, 43, 120
8, 389388, Note_off_c, 6, 43, 64
8, 389400, Note_on_c, 6, 43, 120
8, 389448, Note_off_c, 6, 43, 64
8, 389460, Note_on_c, 6, 43, 120
8, 389508, Note_off_c, 6, 43, 64
8, 389520, Note_on_c, 6, 43, 120
8, 389568, Note_off_c, 6, 43, 64
8, 389580, Note_on_c, 6, 43, 120
8, 389628, Note_off_c, 6, 43, 64
8, 389640, Note_on_c, 6, 43, 120
8, 389688, Note_off_c, 6, 43, 64
8, 389700, Note_on_c, 6, 43, 120
8, 389748, Note_off_c, 6, 43, 64
8, 389760, Note_on_c, 6, 43, 120
8, 389808, Note_off_c, 6, 43, 64
8, 389820, Note_on_c, 6, 43, 120
8, 389868, Note_off_c, 6, 43, 64
8, 389880, Note_on_c, 6, 43, 120
8, 389928, Note_off_c, 6, 43, 64
8, 389940, Note_on_c, 6, 43, 120
8, 389988, Note_off_c, 6, 43, 64
8, 390000, Note_on_c, 6, 43, 120
8, 390048, Note_off_c, 6, 43, 64
8, 390060, Note_on_c, 6, 43, 120
8, 390108, Note_off_c, 6, 43, 64
8, 390120, Note_on_c, 6, 43, 120
8, 390168, Note_off_c, 6, 43, 64
8, 390180, Note_on_c, 6, 43, 120
8, 390228, Note_off_c, 6, 43, 64
8, 390240, Note_on_c, 6, 43, 120
8, 390288, Note_off_c, 6, 43, 64
8, 390300, Note_on_c, 6, 43, 120
8, 390348, Note_off_c, 6, 43, 64
8, 390360, Note_on_c, 6, 43, 120
8, 390408, Note_off_c, 6, 43, 64
8, 390420, Note_on_c, 6, 43, 120
8, 390468, Note_off_c, 6, 43, 64
8, 390480, Note_on_c, 6, 43, 120
8, 390528, Note_off_c, 6, 43, 64
8, 390540, Note_on_c, 6, 43, 120
8, 390588, Note_off_c, 6, 43, 64
8, 390600, Note_on_c, 6, 43, 120
8, 390648, Note_off_c, 6, 43, 64
8, 390660, Note_on_c, 6, 43, 120
8, 390708, Note_off_c, 6, 43, 64
8, 390720, Note_on_c, 6, 43, 120
8, 390768, Note_off_c, 6, 43, 64
8, 390780, Note_on_c, 6, 43, 120
8, 390828, Note_off_c, 6, 43, 64
8, 390840, Note_on_c, 6, 43, 120
8, 390888, Note_off_c, 6, 43, 64
8, 390900, Note_on_c, 6, 43, 120
8, 390948, Note_off_c, 6, 43, 64
8, 390960, Note_on_c, 6, 43, 120
8, 391008, Note_off_c, 6, 43, 64
8, 391020, Note_on_c, 6, 43, 120
8, 391068, Note_off_c, 6, 43, 64
8, 391080, Note_on_c, 6, 43, 120
8, 391128, Note_off_c, 6, 43, 64
8, 391140, Note_on_c, 6, 43, 120
8, 391188, Note_off_c, 6, 43, 64
8, 391200, Note_on_c, 6, 43, 120
8, 391248, Note_off_c, 6, 43, 64
8, 391260, Note_on_c, 6, 43, 120
8, 391260, Note_on_c, 6, 43, 120
8, 391308, Note_off_c, 6, 43, 64
8, 391308, Note_off_c, 6, 43, 64
8, 391320, Note_on_c, 6, 43, 120
8, 391368, Note_off_c, 6, 43, 64
8, 391380, Note_on_c, 6, 43, 120
8, 391428, Note_off_c, 6, 43, 64
8, 391440, Note_on_c, 6, 43, 120
8, 391488, Note_off_c, 6, 43, 64
8, 391500, Note_on_c, 6, 43, 120
8, 391548, Note_off_c, 6, 43, 64
8, 391560, Note_on_c, 6, 43, 120
8, 391608, Note_off_c, 6, 43, 64
8, 391620, Note_on_c, 6, 43, 120
8, 391668, Note_off_c, 6, 43, 64
8, 391680, Note_on_c, 6, 43, 120
8, 391728, Note_off_c, 6, 43, 64
8, 391740, Note_on_c, 6, 43, 120
8, 391788, Note_off_c, 6, 43, 64
8, 391800, Note_on_c, 6, 43, 120
8, 391848, Note_off_c, 6, 43, 64
8, 391860, Note_on_c, 6, 43, 120
8, 391908, Note_off_c, 6, 43, 64
8, 391920, Note_on_c, 6, 43, 120
8, 391968, Note_off_c, 6, 43, 64
8, 391980, Note_on_c, 6, 43, 120
8, 392028, Note_off_c, 6, 43, 64
8, 392040, Note_on_c, 6, 43, 120
8, 392088, Note_off_c, 6, 43, 64
8, 392100, Note_on_c, 6, 43, 120
8, 392148, Note_off_c, 6, 43, 64
8, 392160, Note_on_c, 6, 43, 127
8, 392544, Note_off_c, 6, 43, 64
8, 393600, Note_on_c, 6, 48, 127
8, 393648, Note_off_c, 6, 48, 64
8, 393660, Note_on_c, 6, 48, 120
8, 393708, Note_off_c, 6, 48, 64
8, 393720, Note_on_c, 6, 48, 120
8, 393768, Note_off_c, 6, 48, 64
8, 393780, Note_on_c, 6, 48, 120
8, 393828, Note_off_c, 6, 48, 64
8, 393840, Note_on_c, 6, 48, 120
8, 393888, Note_off_c, 6, 48, 64
8, 393900, Note_on_c, 6, 48, 120
8, 393948, Note_off_c, 6, 48, 64
8, 393960, Note_on_c, 6, 48, 120
8, 394008, Note_off_c, 6, 48, 64
8, 394020, Note_on_c, 6, 48, 120
8, 394068, Note_off_c, 6, 48, 64
8, 394080, Note_on_c, 6, 48, 120
8, 394128, Note_off_c, 6, 48, 64
8, 394140, Note_on_c, 6, 48, 120
8, 394188, Note_off_c, 6, 48, 64
8, 394200, Note_on_c, 6, 48, 120
8, 394248, Note_off_c, 6, 48, 64
8, 394260, Note_on_c, 6, 48, 120
8, 394308, Note_off_c, 6, 48, 64
8, 394320, Note_on_c, 6, 48, 120
8, 394368, Note_off_c, 6, 48, 64
8, 394380, Note_on_c, 6, 48, 120
8, 394428, Note_off_c, 6, 48, 64
8, 394440, Note_on_c, 6, 48, 120
8, 394488, Note_off_c, 6, 48, 64
8, 394500, Note_on_c, 6, 48, 120
8, 394548, Note_off_c, 6, 48, 64
8, 394560, Note_on_c, 6, 48, 120
8, 394608, Note_off_c, 6, 48, 64
8, 394620, Note_on_c, 6, 48, 120
8, 394668, Note_off_c, 6, 48, 64
8, 394680, Note_on_c, 6, 48, 120
8, 394728, Note_off_c, 6, 48, 64
8, 394740, Note_on_c, 6, 48, 120
8, 394788, Note_off_c, 6, 48, 64
8, 394800, Note_on_c, 6, 48, 120
8, 394848, Note_off_c, 6, 48, 64
8, 394860, Note_on_c, 6, 48, 120
8, 394908, Note_off_c, 6, 48, 64
8, 394920, Note_on_c, 6, 48, 120
8, 394968, Note_off_c, 6, 48, 64
8, 394980, Note_on_c, 6, 48, 120
8, 395028, Note_off_c, 6, 48, 64
8, 395040, Note_on_c, 6, 48, 120
8, 395088, Note_off_c, 6, 48, 64
8, 395100, Note_on_c, 6, 48, 120
8, 395148, Note_off_c, 6, 48, 64
8, 395160, Note_on_c, 6, 48, 120
8, 395208, Note_off_c, 6, 48, 64
8, 395220, Note_on_c, 6, 48, 120
8, 395268, Note_off_c, 6, 48, 64
8, 395280, Note_on_c, 6, 48, 120
8, 395328, Note_off_c, 6, 48, 64
8, 395340, Note_on_c, 6, 48, 120
8, 395388, Note_off_c, 6, 48, 64
8, 395400, Note_on_c, 6, 48, 120
8, 395448, Note_off_c, 6, 48, 64
8, 395460, Note_on_c, 6, 48, 120
8, 395508, Note_off_c, 6, 48, 64
8, 395520, Note_on_c, 6, 48, 120
8, 395568, Note_off_c, 6, 48, 64
8, 395580, Note_on_c, 6, 48, 120
8, 395628, Note_off_c, 6, 48, 64
8, 395640, Note_on_c, 6, 48, 120
8, 395688, Note_off_c, 6, 48, 64
8, 395700, Note_on_c, 6, 48, 120
8, 395748, Note_off_c, 6, 48, 64
8, 395760, Note_on_c, 6, 48, 120
8, 395808, Note_off_c, 6, 48, 64
8, 395820, Note_on_c, 6, 48, 120
8, 395868, Note_off_c, 6, 48, 64
8, 395880, Note_on_c, 6, 48, 120
8, 395928, Note_off_c, 6, 48, 64
8, 395940, Note_on_c, 6, 48, 120
8, 395988, Note_off_c, 6, 48, 64
8, 396000, Note_on_c, 6, 48, 120
8, 396048, Note_off_c, 6, 48, 64
8, 396060, Note_on_c, 6, 48, 120
8, 396108, Note_off_c, 6, 48, 64
8, 396120, Note_on_c, 6, 48, 120
8, 396168, Note_off_c, 6, 48, 64
8, 396180, Note_on_c, 6, 48, 120
8, 396228, Note_off_c, 6, 48, 64
8, 396240, Note_on_c, 6, 48, 120
8, 396288, Note_off_c, 6, 48, 64
8, 396300, Note_on_c, 6, 48, 120
8, 396348, Note_off_c, 6, 48, 64
8, 396360, Note_on_c, 6, 48, 120
8, 396408, Note_off_c, 6, 48, 64
8, 396420, Note_on_c, 6, 48, 120
8, 396468, Note_off_c, 6, 48, 64
8, 396480, Note_on_c, 6, 48, 120
8, 396528, Note_off_c, 6, 48, 64
8, 396540, Note_on_c, 6, 48, 120
8, 396588, Note_off_c, 6, 48, 64
8, 396600, Note_on_c, 6, 48, 120
8, 396648, Note_off_c, 6, 48, 64
8, 396660, Note_on_c, 6, 48, 120
8, 396708, Note_off_c, 6, 48, 64
8, 396720, Note_on_c, 6, 48, 120
8, 396768, Note_off_c, 6, 48, 64
8, 396780, Note_on_c, 6, 48, 120
8, 396828, Note_off_c, 6, 48, 64
8, 396840, Note_on_c, 6, 48, 120
8, 396888, Note_off_c, 6, 48, 64
8, 396900, Note_on_c, 6, 48, 120
8, 396948, Note_off_c, 6, 48, 64
8, 396960, Note_on_c, 6, 48, 120
8, 397008, Note_off_c, 6, 48, 64
8, 397020, Note_on_c, 6, 48, 120
8, 397068, Note_off_c, 6, 48, 64
8, 397080, Note_on_c, 6, 48, 120
8, 397128, Note_off_c, 6, 48, 64
8, 397140, Note_on_c, 6, 48, 120
8, 397188, Note_off_c, 6, 48, 64
8, 397200, Note_on_c, 6, 48, 120
8, 397248, Note_off_c, 6, 48, 64
8, 397260, Note_on_c, 6, 48, 120
8, 397308, Note_off_c, 6, 48, 64
8, 397320, Note_on_c, 6, 48, 120
8, 397368, Note_off_c, 6, 48, 64
8, 397380, Note_on_c, 6, 48, 120
8, 397428, Note_off_c, 6, 48, 64
8, 397440, Note_on_c, 6, 48, 127
8, 397824, Note_off_c, 6, 48, 64
8, 398880, Note_on_c, 6, 43, 80
8, 399072, Note_off_c, 6, 43, 64
8, 399840, Note_on_c, 6, 48, 80
8, 400032, Note_off_c, 6, 48, 64
8, 400800, Note_on_c, 6, 43, 80
8, 400992, Note_off_c, 6, 43, 64
8, 406560, Note_on_c, 6, 43, 32
8, 406752, Note_off_c, 6, 43, 64
8, 406800, Note_on_c, 6, 43, 32
8, 406992, Note_off_c, 6, 43, 64
8, 407040, Note_on_c, 6, 43, 32
8, 407232, Note_off_c, 6, 43, 64
8, 407520, Note_on_c, 6, 48, 32
8, 407712, Note_off_c, 6, 48, 64
8, 407760, Note_on_c, 6, 48, 32
8, 407952, Note_off_c, 6, 48, 64
8, 408000, Note_on_c, 6, 48, 32
8, 408192, Note_off_c, 6, 48, 64
8, 408480, Note_on_c, 6, 43, 32
8, 408672, Note_off_c, 6, 43, 64
8, 408720, Note_on_c, 6, 43, 32
8, 408912, Note_off_c, 6, 43, 64
8, 408960, Note_on_c, 6, 43, 32
8, 409152, Note_off_c, 6, 43, 64
8, 409440, Note_on_c, 6, 48, 32
8, 409536, Note_off_c, 6, 48, 64
8, 409560, Note_on_c, 6, 48, 32
8, 409656, Note_off_c, 6, 48, 64
8, 409680, Note_on_c, 6, 48, 32
8, 409776, Note_off_c, 6, 48, 64
8, 409800, Note_on_c, 6, 48, 32
8, 409896, Note_off_c, 6, 48, 64
8, 409920, Note_on_c, 6, 48, 32
8, 410016, Note_off_c, 6, 48, 64
8, 410040, Note_on_c, 6, 48, 32
8, 410136, Note_off_c, 6, 48, 64
8, 410160, Note_on_c, 6, 48, 32
8, 410256, Note_off_c, 6, 48, 64
8, 410280, Note_on_c, 6, 48, 32
8, 410376, Note_off_c, 6, 48, 64
8, 410400, Note_on_c, 6, 48, 32
8, 410592, Note_off_c, 6, 48, 64
8, 410640, Note_on_c, 6, 48, 32
8, 410832, Note_off_c, 6, 48, 64
8, 410880, Note_on_c, 6, 48, 32
8, 411072, Note_off_c, 6, 48, 64
8, 411120, Note_on_c, 6, 48, 32
8, 411312, Note_off_c, 6, 48, 64
8, 411360, Note_on_c, 6, 48, 32
8, 411744, Note_off_c, 6, 48, 64
8, 415200, Note_on_c, 6, 43, 20
8, 415584, Note_off_c, 6, 43, 64
8, 417120, Note_on_c, 6, 48, 20
8, 417504, Note_off_c, 6, 48, 64
8, 419040, Note_on_c, 6, 48, 20
8, 419424, Note_off_c, 6, 48, 64
8, 432480, Note_on_c, 6, 43, 80
8, 432672, Note_off_c, 6, 43, 64
8, 432720, Note_on_c, 6, 43, 80
8, 432912, Note_off_c, 6, 43, 64
8, 432960, Note_on_c, 6, 43, 80
8, 433152, Note_off_c, 6, 43, 64
8, 433440, Note_on_c, 6, 48, 80
8, 433632, Note_off_c, 6, 48, 64
8, 433680, Note_on_c, 6, 48, 80
8, 433872, Note_off_c, 6, 48, 64
8, 433920, Note_on_c, 6, 48, 80
8, 434112, Note_off_c, 6, 48, 64
8, 434400, Note_on_c, 6, 43, 80
8, 434592, Note_off_c, 6, 43, 64
8, 434640, Note_on_c, 6, 43, 80
8, 434832, Note_off_c, 6, 43, 64
8, 434880, Note_on_c, 6, 43, 80
8, 435072, Note_off_c, 6, 43, 64
8, 435360, Note_on_c, 6, 48, 80
8, 435552, Note_off_c, 6, 48, 64
8, 435600, Note_on_c, 6, 48, 80
8, 435792, Note_off_c, 6, 48, 64
8, 435840, Note_on_c, 6, 48, 80
8, 436032, Note_off_c, 6, 48, 64
8, 436320, Note_on_c, 6, 43, 80
8, 436512, Note_off_c, 6, 43, 64
8, 436560, Note_on_c, 6, 43, 80
8, 436752, Note_off_c, 6, 43, 64
8, 436800, Note_on_c, 6, 43, 80
8, 436992, Note_off_c, 6, 43, 64
8, 437280, Note_on_c, 6, 48, 60
8, 437472, Note_off_c, 6, 48, 64
8, 437520, Note_on_c, 6, 48, 60
8, 437712, Note_off_c, 6, 48, 64
8, 437760, Note_on_c, 6, 48, 60
8, 437952, Note_off_c, 6, 48, 64
8, 439200, Note_on_c, 6, 48, 60
8, 439392, Note_off_c, 6, 48, 64
8, 439440, Note_on_c, 6, 48, 60
8, 439632, Note_off_c, 6, 48, 64
8, 439680, Note_on_c, 6, 48, 60
8, 439872, Note_off_c, 6, 48, 64
8, 440160, Note_on_c, 6, 43, 60
8, 440352, Note_off_c, 6, 43, 64
8, 440400, Note_on_c, 6, 43, 60
8, 440592, Note_off_c, 6, 43, 64
8, 440640, Note_on_c, 6, 43, 60
8, 440832, Note_off_c, 6, 43, 64
8, 442080, Note_on_c, 6, 43, 60
8, 442272, Note_off_c, 6, 43, 64
8, 442320, Note_on_c, 6, 43, 60
8, 442512, Note_off_c, 6, 43, 64
8, 442560, Note_on_c, 6, 43, 60
8, 442752, Note_off_c, 6, 43, 64
8, 443040, Note_on_c, 6, 43, 80
8, 443232, Note_off_c, 6, 43, 64
8, 443280, Note_on_c, 6, 43, 80
8, 443472, Note_off_c, 6, 43, 64
8, 443520, Note_on_c, 6, 48, 80
8, 443712, Note_off_c, 6, 48, 64
8, 443760, Note_on_c, 6, 48, 80
8, 443952, Note_off_c, 6, 48, 64
8, 444000, Note_on_c, 6, 43, 80
8, 444192, Note_off_c, 6, 43, 64
8, 444240, Note_on_c, 6, 43, 80
8, 444432, Note_off_c, 6, 43, 64
8, 444480, Note_on_c, 6, 48, 80
8, 444672, Note_off_c, 6, 48, 64
8, 444720, Note_on_c, 6, 48, 80
8, 444912, Note_off_c, 6, 48, 64
8, 444960, Note_on_c, 6, 48, 75
8, 445152, Note_off_c, 6, 48, 64
8, 445440, Note_on_c, 6, 48, 75
8, 445632, Note_off_c, 6, 48, 64
8, 445920, Note_on_c, 6, 48, 75
8, 446112, Note_off_c, 6, 48, 64
8, 446640, Note_on_c, 6, 48, 75
8, 446736, Note_off_c, 6, 48, 64
8, 446880, Note_on_c, 6, 48, 75
8, 447072, Note_off_c, 6, 48, 64
8, 447360, Note_on_c, 6, 48, 75
8, 447552, Note_off_c, 6, 48, 64
8, 447840, Note_on_c, 6, 48, 75
8, 448032, Note_off_c, 6, 48, 64
8, 448560, Note_on_c, 6, 48, 75
8, 448656, Note_off_c, 6, 48, 64
8, 448800, Note_on_c, 6, 48, 75
8, 448992, Note_off_c, 6, 48, 64
8, 449280, Note_on_c, 6, 48, 75
8, 449472, Note_off_c, 6, 48, 64
8, 449760, Note_on_c, 6, 48, 75
8, 449952, Note_off_c, 6, 48, 64
8, 450240, Note_on_c, 6, 48, 75
8, 450336, Note_off_c, 6, 48, 64
8, 450480, Note_on_c, 6, 48, 75
8, 450576, Note_off_c, 6, 48, 64
8, 450720, Note_on_c, 6, 48, 80
8, 451104, Note_off_c, 6, 48, 64
8, 451200, Note_on_c, 6, 48, 120
8, 451584, Note_off_c, 6, 48, 64
8, 451680, Note_on_c, 6, 48, 80
8, 452064, Note_off_c, 6, 48, 64
8, 452160, Note_on_c, 6, 43, 120
8, 452544, Note_off_c, 6, 43, 64
8, 452640, Note_on_c, 6, 48, 20
8, 452736, Note_off_c, 6, 48, 64
8, 452760, Note_on_c, 6, 48, 20
8, 452856, Note_off_c, 6, 48, 64
8, 452880, Note_on_c, 6, 48, 20
8, 452976, Note_off_c, 6, 48, 64
8, 453000, Note_on_c, 6, 48, 20
8, 453096, Note_off_c, 6, 48, 64
8, 453120, Note_on_c, 6, 48, 20
8, 453216, Note_off_c, 6, 48, 64
8, 453240, Note_on_c, 6, 48, 20
8, 453336, Note_off_c, 6, 48, 64
8, 453360, Note_on_c, 6, 48, 20
8, 453456, Note_off_c, 6, 48, 64
8, 453480, Note_on_c, 6, 48, 20
8, 453576, Note_off_c, 6, 48, 64
8, 453600, Note_on_c, 6, 48, 20
8, 453696, Note_off_c, 6, 48, 64
8, 453720, Note_on_c, 6, 48, 20
8, 453816, Note_off_c, 6, 48, 64
8, 453840, Note_on_c, 6, 48, 20
8, 453936, Note_off_c, 6, 48, 64
8, 453960, Note_on_c, 6, 48, 20
8, 454056, Note_off_c, 6, 48, 64
8, 454080, Note_on_c, 6, 48, 20
8, 454176, Note_off_c, 6, 48, 64
8, 454200, Note_on_c, 6, 48, 20
8, 454296, Note_off_c, 6, 48, 64
8, 454320, Note_on_c, 6, 48, 20
8, 454416, Note_off_c, 6, 48, 64
8, 454440, Note_on_c, 6, 48, 20
8, 454536, Note_off_c, 6, 48, 64
8, 454560, Note_on_c, 6, 48, 20
8, 454656, Note_off_c, 6, 48, 64
8, 454680, Note_on_c, 6, 48, 20
8, 454776, Note_off_c, 6, 48, 64
8, 454800, Note_on_c, 6, 48, 20
8, 454896, Note_off_c, 6, 48, 64
8, 454920, Note_on_c, 6, 48, 20
8, 455016, Note_off_c, 6, 48, 64
8, 455040, Note_on_c, 6, 48, 20
8, 455136, Note_off_c, 6, 48, 64
8, 455160, Note_on_c, 6, 48, 20
8, 455256, Note_off_c, 6, 48, 64
8, 455280, Note_on_c, 6, 48, 20
8, 455376, Note_off_c, 6, 48, 64
8, 455400, Note_on_c, 6, 48, 20
8, 455496, Note_off_c, 6, 48, 64
8, 455520, Note_on_c, 6, 48, 20
8, 455616, Note_off_c, 6, 48, 64
8, 455640, Note_on_c, 6, 48, 20
8, 455736, Note_off_c, 6, 48, 64
8, 455760, Note_on_c, 6, 48, 20
8, 455856, Note_off_c, 6, 48, 64
8, 455880, Note_on_c, 6, 48, 20
8, 455976, Note_off_c, 6, 48, 64
8, 456000, Note_on_c, 6, 48, 20
8, 456096, Note_off_c, 6, 48, 64
8, 456120, Note_on_c, 6, 48, 20
8, 456216, Note_off_c, 6, 48, 64
8, 456240, Note_on_c, 6, 48, 20
8, 456336, Note_off_c, 6, 48, 64
8, 456360, Note_on_c, 6, 48, 20
8, 456456, Note_off_c, 6, 48, 64
8, 456480, Note_on_c, 6, 48, 20
8, 456576, Note_off_c, 6, 48, 64
8, 456600, Note_on_c, 6, 48, 20
8, 456696, Note_off_c, 6, 48, 64
8, 456720, Note_on_c, 6, 48, 20
8, 456816, Note_off_c, 6, 48, 64
8, 456840, Note_on_c, 6, 48, 20
8, 456936, Note_off_c, 6, 48, 64
8, 456960, Note_on_c, 6, 48, 20
8, 457056, Note_off_c, 6, 48, 64
8, 457080, Note_on_c, 6, 48, 20
8, 457176, Note_off_c, 6, 48, 64
8, 457200, Note_on_c, 6, 48, 20
8, 457296, Note_off_c, 6, 48, 64
8, 457320, Note_on_c, 6, 48, 20
8, 457416, Note_off_c, 6, 48, 64
8, 457440, Note_on_c, 6, 48, 20
8, 457536, Note_off_c, 6, 48, 64
8, 457560, Note_on_c, 6, 48, 20
8, 457656, Note_off_c, 6, 48, 64
8, 457680, Note_on_c, 6, 48, 20
8, 457776, Note_off_c, 6, 48, 64
8, 457800, Note_on_c, 6, 48, 20
8, 457896, Note_off_c, 6, 48, 64
8, 457920, Note_on_c, 6, 48, 20
8, 458016, Note_off_c, 6, 48, 64
8, 458040, Note_on_c, 6, 48, 20
8, 458136, Note_off_c, 6, 48, 64
8, 458160, Note_on_c, 6, 48, 20
8, 458256, Note_off_c, 6, 48, 64
8, 458280, Note_on_c, 6, 48, 20
8, 458376, Note_off_c, 6, 48, 64
8, 458400, Note_on_c, 6, 48, 20
8, 458496, Note_off_c, 6, 48, 64
8, 458520, Note_on_c, 6, 48, 20
8, 458616, Note_off_c, 6, 48, 64
8, 458640, Note_on_c, 6, 48, 20
8, 458736, Note_off_c, 6, 48, 64
8, 458760, Note_on_c, 6, 48, 20
8, 458856, Note_off_c, 6, 48, 64
8, 458880, Note_on_c, 6, 48, 20
8, 458976, Note_off_c, 6, 48, 64
8, 459000, Note_on_c, 6, 48, 20
8, 459096, Note_off_c, 6, 48, 64
8, 459120, Note_on_c, 6, 48, 20
8, 459216, Note_off_c, 6, 48, 64
8, 459240, Note_on_c, 6, 48, 20
8, 459336, Note_off_c, 6, 48, 64
8, 459360, Note_on_c, 6, 48, 20
8, 459456, Note_off_c, 6, 48, 64
8, 459480, Note_on_c, 6, 48, 20
8, 459576, Note_off_c, 6, 48, 64
8, 459600, Note_on_c, 6, 48, 20
8, 459696, Note_off_c, 6, 48, 64
8, 459720, Note_on_c, 6, 48, 20
8, 459816, Note_off_c, 6, 48, 64
8, 459840, Note_on_c, 6, 48, 20
8, 459936, Note_off_c, 6, 48, 64
8, 459960, Note_on_c, 6, 48, 20
8, 460056, Note_off_c, 6, 48, 64
8, 460080, Note_on_c, 6, 48, 20
8, 460176, Note_off_c, 6, 48, 64
8, 460200, Note_on_c, 6, 48, 20
8, 460296, Note_off_c, 6, 48, 64
8, 460320, Note_on_c, 6, 48, 30
8, 460416, Note_off_c, 6, 48, 64
8, 460440, Note_on_c, 6, 48, 31
8, 460536, Note_off_c, 6, 48, 64
8, 460560, Note_on_c, 6, 48, 31
8, 460656, Note_off_c, 6, 48, 64
8, 460680, Note_on_c, 6, 48, 32
8, 460776, Note_off_c, 6, 48, 64
8, 460800, Note_on_c, 6, 48, 33
8, 460896, Note_off_c, 6, 48, 64
8, 460920, Note_on_c, 6, 48, 33
8, 461016, Note_off_c, 6, 48, 64
8, 461040, Note_on_c, 6, 48, 34
8, 461136, Note_off_c, 6, 48, 64
8, 461160, Note_on_c, 6, 48, 34
8, 461256, Note_off_c, 6, 48, 64
8, 461280, Note_on_c, 6, 48, 35
8, 461376, Note_off_c, 6, 48, 64
8, 461400, Note_on_c, 6, 48, 36
8, 461496, Note_off_c, 6, 48, 64
8, 461520, Note_on_c, 6, 48, 36
8, 461616, Note_off_c, 6, 48, 64
8, 461640, Note_on_c, 6, 48, 37
8, 461736, Note_off_c, 6, 48, 64
8, 461760, Note_on_c, 6, 48, 38
8, 461856, Note_off_c, 6, 48, 64
8, 461880, Note_on_c, 6, 48, 38
8, 461976, Note_off_c, 6, 48, 64
8, 462000, Note_on_c, 6, 48, 39
8, 462096, Note_off_c, 6, 48, 64
8, 462120, Note_on_c, 6, 48, 39
8, 462216, Note_off_c, 6, 48, 64
8, 462240, Note_on_c, 6, 48, 40
8, 462336, Note_off_c, 6, 48, 64
8, 462360, Note_on_c, 6, 48, 41
8, 462456, Note_off_c, 6, 48, 64
8, 462480, Note_on_c, 6, 48, 41
8, 462576, Note_off_c, 6, 48, 64
8, 462600, Note_on_c, 6, 48, 42
8, 462696, Note_off_c, 6, 48, 64
8, 462720, Note_on_c, 6, 48, 43
8, 462816, Note_off_c, 6, 48, 64
8, 462840, Note_on_c, 6, 48, 43
8, 462936, Note_off_c, 6, 48, 64
8, 462960, Note_on_c, 6, 48, 44
8, 463056, Note_off_c, 6, 48, 64
8, 463080, Note_on_c, 6, 48, 44
8, 463176, Note_off_c, 6, 48, 64
8, 463200, Note_on_c, 6, 48, 45
8, 463296, Note_off_c, 6, 48, 64
8, 463320, Note_on_c, 6, 48, 46
8, 463416, Note_off_c, 6, 48, 64
8, 463440, Note_on_c, 6, 48, 46
8, 463536, Note_off_c, 6, 48, 64
8, 463560, Note_on_c, 6, 48, 47
8, 463656, Note_off_c, 6, 48, 64
8, 463680, Note_on_c, 6, 48, 48
8, 463776, Note_off_c, 6, 48, 64
8, 463800, Note_on_c, 6, 48, 48
8, 463896, Note_off_c, 6, 48, 64
8, 463920, Note_on_c, 6, 48, 49
8, 464016, Note_off_c, 6, 48, 64
8, 464040, Note_on_c, 6, 48, 49
8, 464136, Note_off_c, 6, 48, 64
8, 464160, Note_on_c, 6, 48, 50
8, 464256, Note_off_c, 6, 48, 64
8, 464280, Note_on_c, 6, 48, 51
8, 464376, Note_off_c, 6, 48, 64
8, 464400, Note_on_c, 6, 48, 51
8, 464496, Note_off_c, 6, 48, 64
8, 464520, Note_on_c, 6, 48, 52
8, 464616, Note_off_c, 6, 48, 64
8, 464640, Note_on_c, 6, 48, 53
8, 464736, Note_off_c, 6, 48, 64
8, 464760, Note_on_c, 6, 48, 53
8, 464856, Note_off_c, 6, 48, 64
8, 464880, Note_on_c, 6, 48, 54
8, 464976, Note_off_c, 6, 48, 64
8, 465000, Note_on_c, 6, 48, 54
8, 465096, Note_off_c, 6, 48, 64
8, 465120, Note_on_c, 6, 48, 55
8, 465216, Note_off_c, 6, 48, 64
8, 465240, Note_on_c, 6, 48, 56
8, 465336, Note_off_c, 6, 48, 64
8, 465360, Note_on_c, 6, 48, 56
8, 465456, Note_off_c, 6, 48, 64
8, 465480, Note_on_c, 6, 48, 57
8, 465576, Note_off_c, 6, 48, 64
8, 465600, Note_on_c, 6, 48, 58
8, 465696, Note_off_c, 6, 48, 64
8, 465720, Note_on_c, 6, 48, 58
8, 465816, Note_off_c, 6, 48, 64
8, 465840, Note_on_c, 6, 48, 59
8, 465936, Note_off_c, 6, 48, 64
8, 465960, Note_on_c, 6, 48, 59
8, 466056, Note_off_c, 6, 48, 64
8, 466080, Note_on_c, 6, 48, 60
8, 466176, Note_off_c, 6, 48, 64
8, 466200, Note_on_c, 6, 48, 61
8, 466296, Note_off_c, 6, 48, 64
8, 466320, Note_on_c, 6, 48, 61
8, 466416, Note_off_c, 6, 48, 64
8, 466440, Note_on_c, 6, 48, 62
8, 466536, Note_off_c, 6, 48, 64
8, 466560, Note_on_c, 6, 48, 63
8, 466656, Note_off_c, 6, 48, 64
8, 466680, Note_on_c, 6, 48, 63
8, 466776, Note_off_c, 6, 48, 64
8, 466800, Note_on_c, 6, 48, 64
8, 466896, Note_off_c, 6, 48, 64
8, 466920, Note_on_c, 6, 48, 64
8, 467016, Note_off_c, 6, 48, 64
8, 467040, Note_on_c, 6, 48, 65
8, 467136, Note_off_c, 6, 48, 64
8, 467160, Note_on_c, 6, 48, 66
8, 467256, Note_off_c, 6, 48, 64
8, 467280, Note_on_c, 6, 48, 66
8, 467376, Note_off_c, 6, 48, 64
8, 467400, Note_on_c, 6, 48, 67
8, 467496, Note_off_c, 6, 48, 64
8, 467520, Note_on_c, 6, 48, 68
8, 467616, Note_off_c, 6, 48, 64
8, 467640, Note_on_c, 6, 48, 68
8, 467736, Note_off_c, 6, 48, 64
8, 467760, Note_on_c, 6, 48, 69
8, 467856, Note_off_c, 6, 48, 64
8, 467880, Note_on_c, 6, 48, 69
8, 467976, Note_off_c, 6, 48, 64
8, 468000, Note_on_c, 6, 48, 70
8, 468096, Note_off_c, 6, 48, 64
8, 468120, Note_on_c, 6, 48, 71
8, 468216, Note_off_c, 6, 48, 64
8, 468240, Note_on_c, 6, 48, 71
8, 468336, Note_off_c, 6, 48, 64
8, 468360, Note_on_c, 6, 48, 72
8, 468456, Note_off_c, 6, 48, 64
8, 468480, Note_on_c, 6, 48, 73
8, 468576, Note_off_c, 6, 48, 64
8, 468600, Note_on_c, 6, 48, 73
8, 468696, Note_off_c, 6, 48, 64
8, 468720, Note_on_c, 6, 48, 74
8, 468816, Note_off_c, 6, 48, 64
8, 468840, Note_on_c, 6, 48, 74
8, 468936, Note_off_c, 6, 48, 64
8, 468960, Note_on_c, 6, 48, 75
8, 469056, Note_off_c, 6, 48, 64
8, 469080, Note_on_c, 6, 48, 76
8, 469176, Note_off_c, 6, 48, 64
8, 469200, Note_on_c, 6, 48, 76
8, 469296, Note_off_c, 6, 48, 64
8, 469320, Note_on_c, 6, 48, 77
8, 469416, Note_off_c, 6, 48, 64
8, 469440, Note_on_c, 6, 48, 78
8, 469536, Note_off_c, 6, 48, 64
8, 469560, Note_on_c, 6, 48, 78
8, 469656, Note_off_c, 6, 48, 64
8, 469680, Note_on_c, 6, 48, 79
8, 469776, Note_off_c, 6, 48, 64
8, 469800, Note_on_c, 6, 48, 79
8, 469896, Note_off_c, 6, 48, 64
8, 469920, Note_on_c, 6, 48, 80
8, 470016, Note_off_c, 6, 48, 64
8, 470040, Note_on_c, 6, 48, 81
8, 470136, Note_off_c, 6, 48, 64
8, 470160, Note_on_c, 6, 48, 81
8, 470256, Note_off_c, 6, 48, 64
8, 470280, Note_on_c, 6, 48, 82
8, 470376, Note_off_c, 6, 48, 64
8, 470400, Note_on_c, 6, 48, 83
8, 470496, Note_off_c, 6, 48, 64
8, 470520, Note_on_c, 6, 48, 83
8, 470616, Note_off_c, 6, 48, 64
8, 470640, Note_on_c, 6, 48, 84
8, 470736, Note_off_c, 6, 48, 64
8, 470760, Note_on_c, 6, 48, 84
8, 470856, Note_off_c, 6, 48, 64
8, 470880, Note_on_c, 6, 48, 85
8, 470976, Note_off_c, 6, 48, 64
8, 471000, Note_on_c, 6, 48, 86
8, 471096, Note_off_c, 6, 48, 64
8, 471120, Note_on_c, 6, 48, 86
8, 471216, Note_off_c, 6, 48, 64
8, 471240, Note_on_c, 6, 48, 87
8, 471336, Note_off_c, 6, 48, 64
8, 471360, Note_on_c, 6, 48, 127
8, 471408, Note_off_c, 6, 48, 64
8, 471420, Note_on_c, 6, 48, 127
8, 471468, Note_off_c, 6, 48, 64
8, 471480, Note_on_c, 6, 48, 127
8, 471528, Note_off_c, 6, 48, 64
8, 471540, Note_on_c, 6, 48, 127
8, 471588, Note_off_c, 6, 48, 64
8, 471600, Note_on_c, 6, 48, 127
8, 471648, Note_off_c, 6, 48, 64
8, 471660, Note_on_c, 6, 48, 127
8, 471708, Note_off_c, 6, 48, 64
8, 471720, Note_on_c, 6, 48, 127
8, 471768, Note_off_c, 6, 48, 64
8, 471780, Note_on_c, 6, 48, 127
8, 471828, Note_off_c, 6, 48, 64
8, 471840, Note_on_c, 6, 48, 127
8, 471888, Note_off_c, 6, 48, 64
8, 471900, Note_on_c, 6, 48, 127
8, 471948, Note_off_c, 6, 48, 64
8, 471960, Note_on_c, 6, 48, 127
8, 472008, Note_off_c, 6, 48, 64
8, 472020, Note_on_c, 6, 48, 127
8, 472068, Note_off_c, 6, 48, 64
8, 472080, Note_on_c, 6, 48, 127
8, 472128, Note_off_c, 6, 48, 64
8, 472140, Note_on_c, 6, 48, 127
8, 472188, Note_off_c, 6, 48, 64
8, 472200, Note_on_c, 6, 48, 127
8, 472248, Note_off_c, 6, 48, 64
8, 472260, Note_on_c, 6, 48, 127
8, 472308, Note_off_c, 6, 48, 64
8, 472320, Note_on_c, 6, 48, 127
8, 472368, Note_off_c, 6, 48, 64
8, 472380, Note_on_c, 6, 48, 127
8, 472428, Note_off_c, 6, 48, 64
8, 472440, Note_on_c, 6, 48, 127
8, 472488, Note_off_c, 6, 48, 64
8, 472500, Note_on_c, 6, 48, 127
8, 472548, Note_off_c, 6, 48, 64
8, 472560, Note_on_c, 6, 48, 127
8, 472608, Note_off_c, 6, 48, 64
8, 472620, Note_on_c, 6, 48, 127
8, 472668, Note_off_c, 6, 48, 64
8, 472680, Note_on_c, 6, 48, 127
8, 472728, Note_off_c, 6, 48, 64
8, 472740, Note_on_c, 6, 48, 127
8, 472788, Note_off_c, 6, 48, 64
8, 472800, Note_on_c, 6, 48, 127
8, 472848, Note_off_c, 6, 48, 64
8, 472860, Note_on_c, 6, 48, 127
8, 472908, Note_off_c, 6, 48, 64
8, 472920, Note_on_c, 6, 48, 127
8, 472968, Note_off_c, 6, 48, 64
8, 472980, Note_on_c, 6, 48, 127
8, 473028, Note_off_c, 6, 48, 64
8, 473040, Note_on_c, 6, 48, 127
8, 473088, Note_off_c, 6, 48, 64
8, 473100, Note_on_c, 6, 48, 127
8, 473148, Note_off_c, 6, 48, 64
8, 473160, Note_on_c, 6, 48, 127
8, 473208, Note_off_c, 6, 48, 64
8, 473220, Note_on_c, 6, 48, 127
8, 473268, Note_off_c, 6, 48, 64
8, 473280, Note_on_c, 6, 48, 127
8, 473328, Note_off_c, 6, 48, 64
8, 473340, Note_on_c, 6, 48, 127
8, 473388, Note_off_c, 6, 48, 64
8, 473400, Note_on_c, 6, 48, 127
8, 473448, Note_off_c, 6, 48, 64
8, 473460, Note_on_c, 6, 48, 127
8, 473508, Note_off_c, 6, 48, 64
8, 473520, Note_on_c, 6, 48, 127
8, 473568, Note_off_c, 6, 48, 64
8, 473580, Note_on_c, 6, 48, 127
8, 473628, Note_off_c, 6, 48, 64
8, 473640, Note_on_c, 6, 48, 127
8, 473688, Note_off_c, 6, 48, 64
8, 473700, Note_on_c, 6, 48, 127
8, 473748, Note_off_c, 6, 48, 64
8, 473760, Note_on_c, 6, 48, 127
8, 473808, Note_off_c, 6, 48, 64
8, 473820, Note_on_c, 6, 48, 127
8, 473868, Note_off_c, 6, 48, 64
8, 473880, Note_on_c, 6, 48, 127
8, 473928, Note_off_c, 6, 48, 64
8, 473940, Note_on_c, 6, 48, 127
8, 473988, Note_off_c, 6, 48, 64
8, 474000, Note_on_c, 6, 48, 127
8, 474048, Note_off_c, 6, 48, 64
8, 474060, Note_on_c, 6, 48, 127
8, 474108, Note_off_c, 6, 48, 64
8, 474120, Note_on_c, 6, 48, 127
8, 474168, Note_off_c, 6, 48, 64
8, 474180, Note_on_c, 6, 48, 127
8, 474228, Note_off_c, 6, 48, 64
8, 474240, Note_on_c, 6, 48, 127
8, 474288, Note_off_c, 6, 48, 64
8, 474300, Note_on_c, 6, 48, 127
8, 474348, Note_off_c, 6, 48, 64
8, 474360, Note_on_c, 6, 48, 127
8, 474408, Note_off_c, 6, 48, 64
8, 474420, Note_on_c, 6, 48, 127
8, 474468, Note_off_c, 6, 48, 64
8, 474480, Note_on_c, 6, 48, 127
8, 474528, Note_off_c, 6, 48, 64
8, 474540, Note_on_c, 6, 48, 127
8, 474588, Note_off_c, 6, 48, 64
8, 474600, Note_on_c, 6, 48, 127
8, 474648, Note_off_c, 6, 48, 64
8, 474660, Note_on_c, 6, 48, 127
8, 474708, Note_off_c, 6, 48, 64
8, 474720, Note_on_c, 6, 48, 127
8, 474768, Note_off_c, 6, 48, 64
8, 474780, Note_on_c, 6, 48, 127
8, 474828, Note_off_c, 6, 48, 64
8, 474840, Note_on_c, 6, 48, 127
8, 474888, Note_off_c, 6, 48, 64
8, 474900, Note_on_c, 6, 48, 127
8, 474948, Note_off_c, 6, 48, 64
8, 474960, Note_on_c, 6, 48, 127
8, 475008, Note_off_c, 6, 48, 64
8, 475020, Note_on_c, 6, 48, 127
8, 475068, Note_off_c, 6, 48, 64
8, 475080, Note_on_c, 6, 48, 127
8, 475128, Note_off_c, 6, 48, 64
8, 475140, Note_on_c, 6, 48, 127
8, 475188, Note_off_c, 6, 48, 64
8, 475200, Note_on_c, 6, 48, 127
8, 475248, Note_off_c, 6, 48, 64
8, 475260, Note_on_c, 6, 48, 127
8, 475308, Note_off_c, 6, 48, 64
8, 475320, Note_on_c, 6, 48, 127
8, 475368, Note_off_c, 6, 48, 64
8, 475380, Note_on_c, 6, 48, 127
8, 475428, Note_off_c, 6, 48, 64
8, 475440, Note_on_c, 6, 48, 127
8, 475488, Note_off_c, 6, 48, 64
8, 475500, Note_on_c, 6, 48, 127
8, 475548, Note_off_c, 6, 48, 64
8, 475560, Note_on_c, 6, 48, 127
8, 475608, Note_off_c, 6, 48, 64
8, 475620, Note_on_c, 6, 48, 127
8, 475668, Note_off_c, 6, 48, 64
8, 475680, Note_on_c, 6, 48, 127
8, 475728, Note_off_c, 6, 48, 64
8, 475740, Note_on_c, 6, 48, 127
8, 475788, Note_off_c, 6, 48, 64
8, 475800, Note_on_c, 6, 48, 127
8, 475848, Note_off_c, 6, 48, 64
8, 475860, Note_on_c, 6, 48, 127
8, 475908, Note_off_c, 6, 48, 64
8, 475920, Note_on_c, 6, 48, 127
8, 475968, Note_off_c, 6, 48, 64
8, 475980, Note_on_c, 6, 48, 127
8, 476028, Note_off_c, 6, 48, 64
8, 476040, Note_on_c, 6, 48, 127
8, 476088, Note_off_c, 6, 48, 64
8, 476100, Note_on_c, 6, 48, 127
8, 476148, Note_off_c, 6, 48, 64
8, 476160, Note_on_c, 6, 48, 127
8, 476208, Note_off_c, 6, 48, 64
8, 476220, Note_on_c, 6, 48, 127
8, 476268, Note_off_c, 6, 48, 64
8, 476280, Note_on_c, 6, 48, 127
8, 476328, Note_off_c, 6, 48, 64
8, 476340, Note_on_c, 6, 48, 127
8, 476388, Note_off_c, 6, 48, 64
8, 476400, Note_on_c, 6, 48, 127
8, 476448, Note_off_c, 6, 48, 64
8, 476460, Note_on_c, 6, 48, 127
8, 476508, Note_off_c, 6, 48, 64
8, 476520, Note_on_c, 6, 48, 127
8, 476568, Note_off_c, 6, 48, 64
8, 476580, Note_on_c, 6, 48, 127
8, 476628, Note_off_c, 6, 48, 64
8, 476640, Note_on_c, 6, 48, 127
8, 476688, Note_off_c, 6, 48, 64
8, 476700, Note_on_c, 6, 48, 127
8, 476748, Note_off_c, 6, 48, 64
8, 476760, Note_on_c, 6, 48, 127
8, 476808, Note_off_c, 6, 48, 64
8, 476820, Note_on_c, 6, 48, 127
8, 476868, Note_off_c, 6, 48, 64
8, 476880, Note_on_c, 6, 48, 127
8, 476928, Note_off_c, 6, 48, 64
8, 476940, Note_on_c, 6, 48, 127
8, 476988, Note_off_c, 6, 48, 64
8, 477000, Note_on_c, 6, 48, 127
8, 477048, Note_off_c, 6, 48, 64
8, 477060, Note_on_c, 6, 48, 127
8, 477108, Note_off_c, 6, 48, 64
8, 477120, Note_on_c, 6, 48, 127
8, 477168, Note_off_c, 6, 48, 64
8, 477180, Note_on_c, 6, 48, 127
8, 477228, Note_off_c, 6, 48, 64
8, 477240, Note_on_c, 6, 48, 127
8, 477288, Note_off_c, 6, 48, 64
8, 477300, Note_on_c, 6, 48, 127
8, 477348, Note_off_c, 6, 48, 64
8, 477360, Note_on_c, 6, 48, 127
8, 477408, Note_off_c, 6, 48, 64
8, 477420, Note_on_c, 6, 48, 127
8, 477468, Note_off_c, 6, 48, 64
8, 477480, Note_on_c, 6, 48, 127
8, 477528, Note_off_c, 6, 48, 64
8, 477540, Note_on_c, 6, 48, 127
8, 477588, Note_off_c, 6, 48, 64
8, 477600, Note_on_c, 6, 48, 127
8, 477648, Note_off_c, 6, 48, 64
8, 477660, Note_on_c, 6, 48, 127
8, 477708, Note_off_c, 6, 48, 64
8, 477720, Note_on_c, 6, 48, 127
8, 477768, Note_off_c, 6, 48, 64
8, 477780, Note_on_c, 6, 48, 127
8, 477828, Note_off_c, 6, 48, 64
8, 477840, Note_on_c, 6, 48, 127
8, 477888, Note_off_c, 6, 48, 64
8, 477900, Note_on_c, 6, 48, 127
8, 477948, Note_off_c, 6, 48, 64
8, 477960, Note_on_c, 6, 48, 127
8, 478008, Note_off_c, 6, 48, 64
8, 478020, Note_on_c, 6, 48, 127
8, 478068, Note_off_c, 6, 48, 64
8, 478080, Note_on_c, 6, 48, 127
8, 478128, Note_off_c, 6, 48, 64
8, 478140, Note_on_c, 6, 48, 127
8, 478188, Note_off_c, 6, 48, 64
8, 478200, Note_on_c, 6, 48, 127
8, 478248, Note_off_c, 6, 48, 64
8, 478260, Note_on_c, 6, 48, 127
8, 478308, Note_off_c, 6, 48, 64
8, 478320, Note_on_c, 6, 48, 127
8, 478368, Note_off_c, 6, 48, 64
8, 478380, Note_on_c, 6, 48, 127
8, 478428, Note_off_c, 6, 48, 64
8, 478440, Note_on_c, 6, 48, 127
8, 478488, Note_off_c, 6, 48, 64
8, 478500, Note_on_c, 6, 48, 127
8, 478548, Note_off_c, 6, 48, 64
8, 478560, Note_on_c, 6, 48, 127
8, 478608, Note_off_c, 6, 48, 64
8, 478620, Note_on_c, 6, 48, 127
8, 478668, Note_off_c, 6, 48, 64
8, 478680, Note_on_c, 6, 48, 127
8, 478728, Note_off_c, 6, 48, 64
8, 478740, Note_on_c, 6, 48, 127
8, 478788, Note_off_c, 6, 48, 64
8, 478800, Note_on_c, 6, 48, 127
8, 478848, Note_off_c, 6, 48, 64
8, 478860, Note_on_c, 6, 48, 127
8, 478908, Note_off_c, 6, 48, 64
8, 478920, Note_on_c, 6, 48, 127
8, 478968, Note_off_c, 6, 48, 64
8, 478980, Note_on_c, 6, 48, 127
8, 479028, Note_off_c, 6, 48, 64
8, 479040, Note_on_c, 6, 48, 127
8, 479088, Note_off_c, 6, 48, 64
8, 479100, Note_on_c, 6, 48, 127
8, 479148, Note_off_c, 6, 48, 64
8, 479160, Note_on_c, 6, 48, 127
8, 479208, Note_off_c, 6, 48, 64
8, 479220, Note_on_c, 6, 48, 127
8, 479268, Note_off_c, 6, 48, 64
8, 479280, Note_on_c, 6, 48, 127
8, 479328, Note_off_c, 6, 48, 64
8, 479340, Note_on_c, 6, 48, 127
8, 479388, Note_off_c, 6, 48, 64
8, 479400, Note_on_c, 6, 48, 127
8, 479448, Note_off_c, 6, 48, 64
8, 479460, Note_on_c, 6, 48, 127
8, 479508, Note_off_c, 6, 48, 64
8, 479520, Note_on_c, 6, 43, 80
8, 479904, Note_off_c, 6, 43, 64
8, 480480, Note_on_c, 6, 43, 120
8, 480864, Note_off_c, 6, 43, 64
8, 481440, Note_on_c, 6, 48, 80
8, 481824, Note_off_c, 6, 48, 64
8, 481920, Note_on_c, 6, 48, 80
8, 482304, Note_off_c, 6, 48, 64
8, 482400, Note_on_c, 6, 43, 80
8, 482784, Note_off_c, 6, 43, 64
8, 482880, Note_on_c, 6, 43, 80
8, 483264, Note_off_c, 6, 43, 64
8, 483360, Note_on_c, 6, 48, 80
8, 483744, Note_off_c, 6, 48, 64
8, 483840, Note_on_c, 6, 48, 80
8, 484032, Note_off_c, 6, 48, 64
8, 484080, Note_on_c, 6, 48, 80
8, 484272, Note_off_c, 6, 48, 64
8, 484320, Note_on_c, 6, 43, 80
8, 484704, Note_off_c, 6, 43, 64
8, 484800, Note_on_c, 6, 43, 80
8, 484992, Note_off_c, 6, 43, 64
8, 485040, Note_on_c, 6, 43, 80
8, 485232, Note_off_c, 6, 43, 64
8, 485280, Note_on_c, 6, 48, 80
8, 485664, Note_off_c, 6, 48, 64
8, 485760, Note_on_c, 6, 48, 80
8, 486144, Note_off_c, 6, 48, 64
8, 486240, Note_on_c, 6, 43, 80
8, 486624, Note_off_c, 6, 43, 64
8, 486720, Note_on_c, 6, 43, 80
8, 487104, Note_off_c, 6, 43, 64
8, 487200, Note_on_c, 6, 43, 80
8, 487392, Note_off_c, 6, 43, 64
8, 487440, Note_on_c, 6, 43, 80
8, 487632, Note_off_c, 6, 43, 64
8, 487680, Note_on_c, 6, 43, 80
8, 487872, Note_off_c, 6, 43, 64
8, 488160, Note_on_c, 6, 48, 80
8, 488544, Note_off_c, 6, 48, 64
8, 489120, Note_on_c, 6, 43, 80
8, 489312, Note_off_c, 6, 43, 64
8, 489360, Note_on_c, 6, 43, 80
8, 489552, Note_off_c, 6, 43, 64
8, 489600, Note_on_c, 6, 43, 80
8, 489792, Note_off_c, 6, 43, 64
8, 490080, Note_on_c, 6, 48, 80
8, 490464, Note_off_c, 6, 48, 64
8, 491040, Note_on_c, 6, 43, 80
8, 491232, Note_off_c, 6, 43, 64
8, 491280, Note_on_c, 6, 43, 80
8, 491472, Note_off_c, 6, 43, 64
8, 491520, Note_on_c, 6, 43, 80
8, 491712, Note_off_c, 6, 43, 64
8, 492000, Note_on_c, 6, 48, 80
8, 492192, Note_off_c, 6, 48, 64
8, 492240, Note_on_c, 6, 48, 80
8, 492432, Note_off_c, 6, 48, 64
8, 492480, Note_on_c, 6, 48, 80
8, 492672, Note_off_c, 6, 48, 64
8, 492960, Note_on_c, 6, 43, 80
8, 493152, Note_off_c, 6, 43, 64
8, 493200, Note_on_c, 6, 43, 80
8, 493392, Note_off_c, 6, 43, 64
8, 493440, Note_on_c, 6, 43, 80
8, 493632, Note_off_c, 6, 43, 64
8, 493920, Note_on_c, 6, 48, 80
8, 494304, Note_off_c, 6, 48, 64
8, 494640, Note_on_c, 6, 43, 80
8, 494832, Note_off_c, 6, 43, 64
8, 494880, Note_on_c, 6, 48, 80
8, 495264, Note_off_c, 6, 48, 64
8, 495600, Note_on_c, 6, 43, 80
8, 495792, Note_off_c, 6, 43, 64
8, 495840, Note_on_c, 6, 48, 80
8, 496224, Note_off_c, 6, 48, 64
8, 496560, Note_on_c, 6, 43, 80
8, 496752, Note_off_c, 6, 43, 64
8, 496800, Note_on_c, 6, 48, 80
8, 497184, Note_off_c, 6, 48, 64
8, 497520, Note_on_c, 6, 43, 80
8, 497712, Note_off_c, 6, 43, 64
8, 497760, Note_on_c, 6, 48, 80
8, 498144, Note_off_c, 6, 48, 64
8, 498480, Note_on_c, 6, 43, 80
8, 498672, Note_off_c, 6, 43, 64
8, 498720, Note_on_c, 6, 48, 80
8, 498784, Note_off_c, 6, 48, 64
8, 498800, Note_on_c, 6, 48, 80
8, 498864, Note_off_c, 6, 48, 64
8, 498880, Note_on_c, 6, 48, 80
8, 498944, Note_off_c, 6, 48, 64
8, 498960, Note_on_c, 6, 48, 80
8, 499024, Note_off_c, 6, 48, 64
8, 499040, Note_on_c, 6, 48, 80
8, 499104, Note_off_c, 6, 48, 64
8, 499120, Note_on_c, 6, 48, 80
8, 499184, Note_off_c, 6, 48, 64
8, 499200, Note_on_c, 6, 48, 80
8, 499264, Note_off_c, 6, 48, 64
8, 499280, Note_on_c, 6, 48, 80
8, 499344, Note_off_c, 6, 48, 64
8, 499360, Note_on_c, 6, 48, 80
8, 499424, Note_off_c, 6, 48, 64
8, 499440, Note_on_c, 6, 48, 80
8, 499504, Note_off_c, 6, 48, 64
8, 499520, Note_on_c, 6, 48, 80
8, 499584, Note_off_c, 6, 48, 64
8, 499600, Note_on_c, 6, 48, 80
8, 499664, Note_off_c, 6, 48, 64
8, 499680, Note_on_c, 6, 48, 80
8, 499744, Note_off_c, 6, 48, 64
8, 499760, Note_on_c, 6, 48, 80
8, 499824, Note_off_c, 6, 48, 64
8, 499840, Note_on_c, 6, 48, 80
8, 499904, Note_off_c, 6, 48, 64
8, 499920, Note_on_c, 6, 48, 80
8, 499984, Note_off_c, 6, 48, 64
8, 500000, Note_on_c, 6, 48, 80
8, 500064, Note_off_c, 6, 48, 64
8, 500080, Note_on_c, 6, 48, 80
8, 500144, Note_off_c, 6, 48, 64
8, 500160, Note_on_c, 6, 48, 80
8, 500224, Note_off_c, 6, 48, 64
8, 500240, Note_on_c, 6, 48, 80
8, 500304, Note_off_c, 6, 48, 64
8, 500320, Note_on_c, 6, 48, 80
8, 500384, Note_off_c, 6, 48, 64
8, 500400, Note_on_c, 6, 48, 80
8, 500464, Note_off_c, 6, 48, 64
8, 500480, Note_on_c, 6, 48, 80
8, 500544, Note_off_c, 6, 48, 64
8, 500560, Note_on_c, 6, 48, 80
8, 500624, Note_off_c, 6, 48, 64
8, 500640, Note_on_c, 6, 48, 80
8, 500704, Note_off_c, 6, 48, 64
8, 500720, Note_on_c, 6, 48, 80
8, 500784, Note_off_c, 6, 48, 64
8, 500800, Note_on_c, 6, 48, 80
8, 500864, Note_off_c, 6, 48, 64
8, 500880, Note_on_c, 6, 48, 80
8, 500944, Note_off_c, 6, 48, 64
8, 500960, Note_on_c, 6, 48, 80
8, 501024, Note_off_c, 6, 48, 64
8, 501040, Note_on_c, 6, 48, 80
8, 501104, Note_off_c, 6, 48, 64
8, 501120, Note_on_c, 6, 48, 80
8, 501184, Note_off_c, 6, 48, 64
8, 501200, Note_on_c, 6, 48, 80
8, 501264, Note_off_c, 6, 48, 64
8, 501280, Note_on_c, 6, 48, 80
8, 501344, Note_off_c, 6, 48, 64
8, 501360, Note_on_c, 6, 48, 80
8, 501424, Note_off_c, 6, 48, 64
8, 501440, Note_on_c, 6, 48, 80
8, 501504, Note_off_c, 6, 48, 64
8, 501520, Note_on_c, 6, 48, 80
8, 501584, Note_off_c, 6, 48, 64
8, 501600, Note_on_c, 6, 48, 80
8, 501664, Note_off_c, 6, 48, 64
8, 501680, Note_on_c, 6, 48, 80
8, 501744, Note_off_c, 6, 48, 64
8, 501760, Note_on_c, 6, 48, 80
8, 501824, Note_off_c, 6, 48, 64
8, 501840, Note_on_c, 6, 48, 80
8, 501904, Note_off_c, 6, 48, 64
8, 501920, Note_on_c, 6, 48, 80
8, 501984, Note_off_c, 6, 48, 64
8, 502000, Note_on_c, 6, 48, 80
8, 502064, Note_off_c, 6, 48, 64
8, 502080, Note_on_c, 6, 48, 80
8, 502144, Note_off_c, 6, 48, 64
8, 502160, Note_on_c, 6, 48, 80
8, 502224, Note_off_c, 6, 48, 64
8, 502240, Note_on_c, 6, 48, 80
8, 502304, Note_off_c, 6, 48, 64
8, 502320, Note_on_c, 6, 48, 80
8, 502384, Note_off_c, 6, 48, 64
8, 502400, Note_on_c, 6, 48, 80
8, 502464, Note_off_c, 6, 48, 64
8, 502480, Note_on_c, 6, 48, 80
8, 502544, Note_off_c, 6, 48, 64
8, 502560, Note_on_c, 6, 48, 80
8, 502944, Note_off_c, 6, 48, 64
8, 503040, Note_on_c, 6, 48, 80
8, 503424, Note_off_c, 6, 48, 64
8, 503520, Note_on_c, 6, 48, 80
8, 503904, Note_off_c, 6, 48, 64
8, 504000, Note_on_c, 6, 48, 80
8, 504384, Note_off_c, 6, 48, 64
8, 504480, Note_on_c, 6, 48, 80
8, 504864, Note_off_c, 6, 48, 64
8, 504960, Note_on_c, 6, 48, 80
8, 505344, Note_off_c, 6, 48, 64
8, 505440, Note_on_c, 6, 48, 80
8, 505824, Note_off_c, 6, 48, 64
8, 505920, Note_on_c, 6, 48, 80
8, 506304, Note_off_c, 6, 48, 64
8, 506400, Note_on_c, 6, 48, 120
8, 506496, Note_off_c, 6, 48, 64
8, 506520, Note_on_c, 6, 48, 120
8, 506616, Note_off_c, 6, 48, 64
8, 506640, Note_on_c, 6, 48, 120
8, 506736, Note_off_c, 6, 48, 64
8, 506760, Note_on_c, 6, 48, 120
8, 506856, Note_off_c, 6, 48, 64
8, 506880, Note_on_c, 6, 48, 120
8, 506976, Note_off_c, 6, 48, 64
8, 507000, Note_on_c, 6, 48, 120
8, 507096, Note_off_c, 6, 48, 64
8, 507120, Note_on_c, 6, 48, 120
8, 507216, Note_off_c, 6, 48, 64
8, 507240, Note_on_c, 6, 48, 120
8, 507336, Note_off_c, 6, 48, 64
8, 507360, Note_on_c, 6, 48, 120
8, 507456, Note_off_c, 6, 48, 64
8, 507480, Note_on_c, 6, 48, 120
8, 507576, Note_off_c, 6, 48, 64
8, 507600, Note_on_c, 6, 48, 120
8, 507696, Note_off_c, 6, 48, 64
8, 507720, Note_on_c, 6, 48, 120
8, 507816, Note_off_c, 6, 48, 64
8, 507840, Note_on_c, 6, 48, 120
8, 507936, Note_off_c, 6, 48, 64
8, 507960, Note_on_c, 6, 48, 120
8, 508056, Note_off_c, 6, 48, 64
8, 508080, Note_on_c, 6, 48, 120
8, 508176, Note_off_c, 6, 48, 64
8, 508200, Note_on_c, 6, 48, 120
8, 508296, Note_off_c, 6, 48, 64
8, 508320, Note_on_c, 6, 43, 56
8, 508512, Note_off_c, 6, 43, 64
8, 510240, Note_on_c, 6, 48, 120
8, 510336, Note_off_c, 6, 48, 64
8, 510360, Note_on_c, 6, 48, 114
8, 510456, Note_off_c, 6, 48, 64
8, 510480, Note_on_c, 6, 48, 109
8, 510576, Note_off_c, 6, 48, 64
8, 510600, Note_on_c, 6, 48, 103
8, 510696, Note_off_c, 6, 48, 64
8, 510720, Note_on_c, 6, 48, 97
8, 510816, Note_off_c, 6, 48, 64
8, 510840, Note_on_c, 6, 48, 92
8, 510936, Note_off_c, 6, 48, 64
8, 510960, Note_on_c, 6, 48, 86
8, 511056, Note_off_c, 6, 48, 64
8, 511080, Note_on_c, 6, 48, 81
8, 511176, Note_off_c, 6, 48, 64
8, 511200, Note_on_c, 6, 48, 75
8, 511296, Note_off_c, 6, 48, 64
8, 511320, Note_on_c, 6, 48, 69
8, 511416, Note_off_c, 6, 48, 64
8, 511440, Note_on_c, 6, 48, 47
8, 511536, Note_off_c, 6, 48, 64
8, 511560, Note_on_c, 6, 48, 41
8, 511656, Note_off_c, 6, 48, 64
8, 511680, Note_on_c, 6, 48, 36
8, 511776, Note_off_c, 6, 48, 64
8, 516000, Note_on_c, 6, 48, 30
8, 516064, Note_off_c, 6, 48, 64
8, 516080, Note_on_c, 6, 48, 31
8, 516144, Note_off_c, 6, 48, 64
8, 516160, Note_on_c, 6, 48, 32
8, 516224, Note_off_c, 6, 48, 64
8, 516240, Note_on_c, 6, 48, 33
8, 516304, Note_off_c, 6, 48, 64
8, 516320, Note_on_c, 6, 48, 34
8, 516384, Note_off_c, 6, 48, 64
8, 516400, Note_on_c, 6, 48, 35
8, 516464, Note_off_c, 6, 48, 64
8, 516480, Note_on_c, 6, 48, 36
8, 516544, Note_off_c, 6, 48, 64
8, 516560, Note_on_c, 6, 48, 37
8, 516624, Note_off_c, 6, 48, 64
8, 516640, Note_on_c, 6, 48, 38
8, 516704, Note_off_c, 6, 48, 64
8, 516720, Note_on_c, 6, 48, 39
8, 516784, Note_off_c, 6, 48, 64
8, 516800, Note_on_c, 6, 48, 40
8, 516864, Note_off_c, 6, 48, 64
8, 516880, Note_on_c, 6, 48, 41
8, 516944, Note_off_c, 6, 48, 64
8, 516960, Note_on_c, 6, 48, 43
8, 517024, Note_off_c, 6, 48, 64
8, 517040, Note_on_c, 6, 48, 44
8, 517104, Note_off_c, 6, 48, 64
8, 517120, Note_on_c, 6, 48, 45
8, 517184, Note_off_c, 6, 48, 64
8, 517200, Note_on_c, 6, 48, 46
8, 517264, Note_off_c, 6, 48, 64
8, 517280, Note_on_c, 6, 48, 47
8, 517344, Note_off_c, 6, 48, 64
8, 517360, Note_on_c, 6, 48, 48
8, 517424, Note_off_c, 6, 48, 64
8, 517440, Note_on_c, 6, 48, 49
8, 517504, Note_off_c, 6, 48, 64
8, 517520, Note_on_c, 6, 48, 50
8, 517584, Note_off_c, 6, 48, 64
8, 517600, Note_on_c, 6, 48, 51
8, 517664, Note_off_c, 6, 48, 64
8, 517680, Note_on_c, 6, 48, 52
8, 517744, Note_off_c, 6, 48, 64
8, 517760, Note_on_c, 6, 48, 53
8, 517824, Note_off_c, 6, 48, 64
8, 517840, Note_on_c, 6, 48, 54
8, 517904, Note_off_c, 6, 48, 64
8, 517920, Note_on_c, 6, 43, 55
8, 517984, Note_off_c, 6, 43, 64
8, 518000, Note_on_c, 6, 43, 56
8, 518064, Note_off_c, 6, 43, 64
8, 518080, Note_on_c, 6, 43, 57
8, 518144, Note_off_c, 6, 43, 64
8, 518160, Note_on_c, 6, 43, 58
8, 518224, Note_off_c, 6, 43, 64
8, 518240, Note_on_c, 6, 43, 59
8, 518304, Note_off_c, 6, 43, 64
8, 518320, Note_on_c, 6, 43, 60
8, 518384, Note_off_c, 6, 43, 64
8, 518400, Note_on_c, 6, 43, 61
8, 518464, Note_off_c, 6, 43, 64
8, 518480, Note_on_c, 6, 43, 62
8, 518544, Note_off_c, 6, 43, 64
8, 518560, Note_on_c, 6, 43, 63
8, 518624, Note_off_c, 6, 43, 64
8, 518640, Note_on_c, 6, 43, 64
8, 518704, Note_off_c, 6, 43, 64
8, 518720, Note_on_c, 6, 43, 65
8, 518784, Note_off_c, 6, 43, 64
8, 518800, Note_on_c, 6, 43, 66
8, 518864, Note_off_c, 6, 43, 64
8, 518880, Note_on_c, 6, 43, 68
8, 518944, Note_off_c, 6, 43, 64
8, 518960, Note_on_c, 6, 43, 69
8, 519024, Note_off_c, 6, 43, 64
8, 519040, Note_on_c, 6, 43, 70
8, 519104, Note_off_c, 6, 43, 64
8, 519120, Note_on_c, 6, 43, 71
8, 519184, Note_off_c, 6, 43, 64
8, 519200, Note_on_c, 6, 43, 72
8, 519264, Note_off_c, 6, 43, 64
8, 519280, Note_on_c, 6, 43, 73
8, 519344, Note_off_c, 6, 43, 64
8, 519360, Note_on_c, 6, 43, 74
8, 519424, Note_off_c, 6, 43, 64
8, 519440, Note_on_c, 6, 43, 75
8, 519504, Note_off_c, 6, 43, 64
8, 519520, Note_on_c, 6, 43, 76
8, 519584, Note_off_c, 6, 43, 64
8, 519600, Note_on_c, 6, 43, 77
8, 519664, Note_off_c, 6, 43, 64
8, 519680, Note_on_c, 6, 43, 78
8, 519744, Note_off_c, 6, 43, 64
8, 519760, Note_on_c, 6, 43, 79
8, 519824, Note_off_c, 6, 43, 64
8, 519840, Note_on_c, 6, 43, 80
8, 520224, Note_off_c, 6, 43, 64
8, 520560, Note_on_c, 6, 43, 80
8, 520752, Note_off_c, 6, 43, 64
8, 520800, Note_on_c, 6, 48, 80
8, 521184, Note_off_c, 6, 48, 64
8, 521520, Note_on_c, 6, 48, 80
8, 521712, Note_off_c, 6, 48, 64
8, 521760, Note_on_c, 6, 43, 80
8, 522144, Note_off_c, 6, 43, 64
8, 522480, Note_on_c, 6, 43, 80
8, 522672, Note_off_c, 6, 43, 64
8, 522720, Note_on_c, 6, 48, 80
8, 523104, Note_off_c, 6, 48, 64
8, 523440, Note_on_c, 6, 48, 80
8, 523632, Note_off_c, 6, 48, 64
8, 523680, Note_on_c, 6, 43, 80
8, 524064, Note_off_c, 6, 43, 64
8, 524400, Note_on_c, 6, 43, 80
8, 524592, Note_off_c, 6, 43, 64
8, 524640, Note_on_c, 6, 48, 80
8, 525024, Note_off_c, 6, 48, 64
8, 525360, Note_on_c, 6, 48, 80
8, 525552, Note_off_c, 6, 48, 64
8, 525600, Note_on_c, 6, 43, 80
8, 525984, Note_off_c, 6, 43, 64
8, 526320, Note_on_c, 6, 43, 80
8, 526512, Note_off_c, 6, 43, 64
8, 526560, Note_on_c, 6, 48, 80
8, 526944, Note_off_c, 6, 48, 64
8, 527280, Note_on_c, 6, 48, 80
8, 527472, Note_off_c, 6, 48, 64
8, 527520, Note_on_c, 6, 43, 80
8, 527904, Note_off_c, 6, 43, 64
8, 528240, Note_on_c, 6, 43, 80
8, 528432, Note_off_c, 6, 43, 64
8, 528480, Note_on_c, 6, 48, 80
8, 528864, Note_off_c, 6, 48, 64
8, 529200, Note_on_c, 6, 48, 80
8, 529392, Note_off_c, 6, 48, 64
8, 529440, Note_on_c, 6, 43, 80
8, 529824, Note_off_c, 6, 43, 64
8, 530160, Note_on_c, 6, 43, 80
8, 530352, Note_off_c, 6, 43, 64
8, 530400, Note_on_c, 6, 48, 80
8, 530784, Note_off_c, 6, 48, 64
8, 531120, Note_on_c, 6, 48, 80
8, 531312, Note_off_c, 6, 48, 64
8, 531360, Note_on_c, 6, 43, 80
8, 531744, Note_off_c, 6, 43, 64
8, 532080, Note_on_c, 6, 43, 80
8, 532272, Note_off_c, 6, 43, 64
8, 532320, Note_on_c, 6, 48, 80
8, 532704, Note_off_c, 6, 48, 64
8, 533040, Note_on_c, 6, 48, 80
8, 533232, Note_off_c, 6, 48, 64
8, 533280, Note_on_c, 6, 48, 80
8, 533664, Note_off_c, 6, 48, 64
8, 534000, Note_on_c, 6, 48, 80
8, 534192, Note_off_c, 6, 48, 64
8, 534240, Note_on_c, 6, 48, 80
8, 534624, Note_off_c, 6, 48, 64
8, 534960, Note_on_c, 6, 43, 80
8, 535152, Note_off_c, 6, 43, 64
8, 535200, Note_on_c, 6, 43, 80
8, 535584, Note_off_c, 6, 43, 64
8, 535680, Note_on_c, 6, 43, 80
8, 536064, Note_off_c, 6, 43, 64
8, 536640, Note_on_c, 6, 48, 80
8, 537024, Note_off_c, 6, 48, 64
8, 537600, Note_on_c, 6, 48, 80
8, 537984, Note_off_c, 6, 48, 64
8, 538560, Note_on_c, 6, 48, 80
8, 538944, Note_off_c, 6, 48, 64
8, 539520, Note_on_c, 6, 48, 80
8, 539904, Note_off_c, 6, 48, 64
8, 540480, Note_on_c, 6, 48, 80
8, 540864, Note_off_c, 6, 48, 64
8, 541440, Note_on_c, 6, 48, 80
8, 541824, Note_off_c, 6, 48, 64
8, 542400, Note_on_c, 6, 48, 80
8, 542784, Note_off_c, 6, 48, 64
8, 543360, Note_on_c, 6, 48, 80
8, 543744, Note_off_c, 6, 48, 64
8, 544320, Note_on_c, 6, 48, 80
8, 544704, Note_off_c, 6, 48, 64
8, 544800, Note_on_c, 6, 43, 80
8, 544864, Note_off_c, 6, 43, 64
8, 544880, Note_on_c, 6, 43, 80
8, 544944, Note_off_c, 6, 43, 64
8, 544960, Note_on_c, 6, 43, 80
8, 545024, Note_off_c, 6, 43, 64
8, 545040, Note_on_c, 6, 43, 80
8, 545104, Note_off_c, 6, 43, 64
8, 545120, Note_on_c, 6, 43, 80
8, 545184, Note_off_c, 6, 43, 64
8, 545200, Note_on_c, 6, 43, 80
8, 545264, Note_off_c, 6, 43, 64
8, 545280, Note_on_c, 6, 43, 80
8, 545344, Note_off_c, 6, 43, 64
8, 545360, Note_on_c, 6, 43, 80
8, 545424, Note_off_c, 6, 43, 64
8, 545440, Note_on_c, 6, 43, 80
8, 545504, Note_off_c, 6, 43, 64
8, 545520, Note_on_c, 6, 43, 80
8, 545584, Note_off_c, 6, 43, 64
8, 545600, Note_on_c, 6, 43, 80
8, 545664, Note_off_c, 6, 43, 64
8, 545680, Note_on_c, 6, 43, 80
8, 545744, Note_off_c, 6, 43, 64
8, 545760, Note_on_c, 6, 43, 80
8, 545824, Note_off_c, 6, 43, 64
8, 545840, Note_on_c, 6, 43, 80
8, 545904, Note_off_c, 6, 43, 64
8, 545920, Note_on_c, 6, 43, 80
8, 545984, Note_off_c, 6, 43, 64
8, 546000, Note_on_c, 6, 43, 80
8, 546064, Note_off_c, 6, 43, 64
8, 546080, Note_on_c, 6, 43, 80
8, 546144, Note_off_c, 6, 43, 64
8, 546160, Note_on_c, 6, 43, 80
8, 546224, Note_off_c, 6, 43, 64
8, 546240, Note_on_c, 6, 43, 80
8, 546304, Note_off_c, 6, 43, 64
8, 546320, Note_on_c, 6, 43, 80
8, 546384, Note_off_c, 6, 43, 64
8, 546400, Note_on_c, 6, 43, 80
8, 546464, Note_off_c, 6, 43, 64
8, 546480, Note_on_c, 6, 43, 80
8, 546544, Note_off_c, 6, 43, 64
8, 546560, Note_on_c, 6, 43, 80
8, 546624, Note_off_c, 6, 43, 64
8, 546640, Note_on_c, 6, 43, 80
8, 546704, Note_off_c, 6, 43, 64
8, 546720, Note_on_c, 6, 48, 80
8, 547104, Note_off_c, 6, 48, 64
8, 547200, Note_on_c, 6, 43, 80
8, 547392, Note_off_c, 6, 43, 64
8, 547440, Note_on_c, 6, 48, 80
8, 547632, Note_off_c, 6, 48, 64
8, 547680, Note_on_c, 6, 48, 80
8, 548064, Note_off_c, 6, 48, 64
8, 548160, Note_on_c, 6, 43, 80
8, 548352, Note_off_c, 6, 43, 64
8, 548400, Note_on_c, 6, 48, 80
8, 548592, Note_off_c, 6, 48, 64
8, 548640, Note_on_c, 6, 43, 80
8, 548704, Note_off_c, 6, 43, 64
8, 548720, Note_on_c, 6, 43, 80
8, 548784, Note_off_c, 6, 43, 64
8, 548800, Note_on_c, 6, 43, 80
8, 548864, Note_off_c, 6, 43, 64
8, 548880, Note_on_c, 6, 43, 80
8, 548944, Note_off_c, 6, 43, 64
8, 548960, Note_on_c, 6, 43, 80
8, 549024, Note_off_c, 6, 43, 64
8, 549040, Note_on_c, 6, 43, 80
8, 549104, Note_off_c, 6, 43, 64
8, 549120, Note_on_c, 6, 43, 80
8, 549184, Note_off_c, 6, 43, 64
8, 549200, Note_on_c, 6, 43, 80
8, 549264, Note_off_c, 6, 43, 64
8, 549280, Note_on_c, 6, 43, 80
8, 549344, Note_off_c, 6, 43, 64
8, 549360, Note_on_c, 6, 43, 80
8, 549424, Note_off_c, 6, 43, 64
8, 549440, Note_on_c, 6, 43, 80
8, 549504, Note_off_c, 6, 43, 64
8, 549520, Note_on_c, 6, 43, 80
8, 549584, Note_off_c, 6, 43, 64
8, 549600, Note_on_c, 6, 43, 80
8, 549664, Note_off_c, 6, 43, 64
8, 549680, Note_on_c, 6, 43, 80
8, 549744, Note_off_c, 6, 43, 64
8, 549760, Note_on_c, 6, 43, 80
8, 549824, Note_off_c, 6, 43, 64
8, 549840, Note_on_c, 6, 43, 80
8, 549904, Note_off_c, 6, 43, 64
8, 549920, Note_on_c, 6, 43, 80
8, 549984, Note_off_c, 6, 43, 64
8, 550000, Note_on_c, 6, 43, 80
8, 550064, Note_off_c, 6, 43, 64
8, 550080, Note_on_c, 6, 43, 80
8, 550144, Note_off_c, 6, 43, 64
8, 550160, Note_on_c, 6, 43, 80
8, 550224, Note_off_c, 6, 43, 64
8, 550240, Note_on_c, 6, 43, 80
8, 550304, Note_off_c, 6, 43, 64
8, 550320, Note_on_c, 6, 43, 80
8, 550384, Note_off_c, 6, 43, 64
8, 550400, Note_on_c, 6, 43, 80
8, 550464, Note_off_c, 6, 43, 64
8, 550480, Note_on_c, 6, 43, 80
8, 550544, Note_off_c, 6, 43, 64
8, 550560, Note_on_c, 6, 48, 80
8, 550944, Note_off_c, 6, 48, 64
8, 551040, Note_on_c, 6, 43, 80
8, 551232, Note_off_c, 6, 43, 64
8, 551280, Note_on_c, 6, 48, 80
8, 551472, Note_off_c, 6, 48, 64
8, 551520, Note_on_c, 6, 48, 80
8, 551904, Note_off_c, 6, 48, 64
8, 552000, Note_on_c, 6, 43, 80
8, 552192, Note_off_c, 6, 43, 64
8, 552240, Note_on_c, 6, 48, 80
8, 552432, Note_off_c, 6, 48, 64
8, 552480, Note_on_c, 6, 43, 80
8, 552544, Note_off_c, 6, 43, 64
8, 552560, Note_on_c, 6, 43, 80
8, 552624, Note_off_c, 6, 43, 64
8, 552640, Note_on_c, 6, 43, 80
8, 552704, Note_off_c, 6, 43, 64
8, 552720, Note_on_c, 6, 43, 80
8, 552784, Note_off_c, 6, 43, 64
8, 552800, Note_on_c, 6, 43, 80
8, 552864, Note_off_c, 6, 43, 64
8, 552880, Note_on_c, 6, 43, 80
8, 552944, Note_off_c, 6, 43, 64
8, 552960, Note_on_c, 6, 43, 80
8, 553024, Note_off_c, 6, 43, 64
8, 553040, Note_on_c, 6, 43, 80
8, 553104, Note_off_c, 6, 43, 64
8, 553120, Note_on_c, 6, 43, 80
8, 553184, Note_off_c, 6, 43, 64
8, 553200, Note_on_c, 6, 43, 80
8, 553264, Note_off_c, 6, 43, 64
8, 553280, Note_on_c, 6, 43, 80
8, 553344, Note_off_c, 6, 43, 64
8, 553360, Note_on_c, 6, 43, 80
8, 553424, Note_off_c, 6, 43, 64
8, 553440, Note_on_c, 6, 43, 80
8, 553504, Note_off_c, 6, 43, 64
8, 553520, Note_on_c, 6, 43, 80
8, 553584, Note_off_c, 6, 43, 64
8, 553600, Note_on_c, 6, 43, 80
8, 553664, Note_off_c, 6, 43, 64
8, 553680, Note_on_c, 6, 43, 80
8, 553744, Note_off_c, 6, 43, 64
8, 553760, Note_on_c, 6, 43, 80
8, 553824, Note_off_c, 6, 43, 64
8, 553840, Note_on_c, 6, 43, 80
8, 553904, Note_off_c, 6, 43, 64
8, 553920, Note_on_c, 6, 43, 80
8, 553984, Note_off_c, 6, 43, 64
8, 554000, Note_on_c, 6, 43, 80
8, 554064, Note_off_c, 6, 43, 64
8, 554080, Note_on_c, 6, 43, 80
8, 554144, Note_off_c, 6, 43, 64
8, 554160, Note_on_c, 6, 43, 80
8, 554224, Note_off_c, 6, 43, 64
8, 554240, Note_on_c, 6, 43, 80
8, 554304, Note_off_c, 6, 43, 64
8, 554320, Note_on_c, 6, 43, 80
8, 554384, Note_off_c, 6, 43, 64
8, 554400, Note_on_c, 6, 48, 80
8, 554784, Note_off_c, 6, 48, 64
8, 554880, Note_on_c, 6, 43, 80
8, 555072, Note_off_c, 6, 43, 64
8, 555120, Note_on_c, 6, 48, 80
8, 555312, Note_off_c, 6, 48, 64
8, 555360, Note_on_c, 6, 48, 80
8, 555744, Note_off_c, 6, 48, 64
8, 555840, Note_on_c, 6, 43, 80
8, 556032, Note_off_c, 6, 43, 64
8, 556080, Note_on_c, 6, 48, 80
8, 556272, Note_off_c, 6, 48, 64
8, 556320, Note_on_c, 6, 48, 80
8, 556704, Note_off_c, 6, 48, 64
8, 556800, Note_on_c, 6, 48, 80
8, 556992, Note_off_c, 6, 48, 64
8, 557040, Note_on_c, 6, 48, 80
8, 557232, Note_off_c, 6, 48, 64
8, 557280, Note_on_c, 6, 48, 80
8, 557664, Note_off_c, 6, 48, 64
8, 557760, Note_on_c, 6, 48, 80
8, 557952, Note_off_c, 6, 48, 64
8, 558000, Note_on_c, 6, 48, 80
8, 558192, Note_off_c, 6, 48, 64
8, 558240, Note_on_c, 6, 48, 80
8, 558624, Note_off_c, 6, 48, 64
8, 558720, Note_on_c, 6, 48, 80
8, 558912, Note_off_c, 6, 48, 64
8, 558960, Note_on_c, 6, 48, 80
8, 559152, Note_off_c, 6, 48, 64
8, 559200, Note_on_c, 6, 48, 80
8, 559584, Note_off_c, 6, 48, 64
8, 559680, Note_on_c, 6, 48, 80
8, 559872, Note_off_c, 6, 48, 64
8, 559920, Note_on_c, 6, 48, 80
8, 560112, Note_off_c, 6, 48, 64
8, 560160, Note_on_c, 6, 48, 80
8, 560544, Note_off_c, 6, 48, 64
8, 561120, Note_on_c, 6, 48, 80
8, 561504, Note_off_c, 6, 48, 64
8, 561600, Control_c, 6, 7, 127
8, 562320, Note_on_c, 6, 48, 127
8, 562384, Note_off_c, 6, 48, 64
8, 562400, Note_on_c, 6, 48, 124
8, 562464, Note_off_c, 6, 48, 64
8, 562480, Note_on_c, 6, 48, 121
8, 562544, Note_off_c, 6, 48, 64
8, 562560, Note_on_c, 6, 48, 117
8, 562624, Note_off_c, 6, 48, 64
8, 562640, Note_on_c, 6, 48, 114
8, 562704, Note_off_c, 6, 48, 64
8, 562720, Note_on_c, 6, 48, 111
8, 562784, Note_off_c, 6, 48, 64
8, 562800, Note_on_c, 6, 48, 108
8, 562864, Note_off_c, 6, 48, 64
8, 562880, Note_on_c, 6, 48, 105
8, 562944, Note_off_c, 6, 48, 64
8, 562960, Note_on_c, 6, 48, 101
8, 563024, Note_off_c, 6, 48, 64
8, 563040, Note_on_c, 6, 48, 98
8, 563104, Note_off_c, 6, 48, 64
8, 563120, Note_on_c, 6, 48, 95
8, 563184, Note_off_c, 6, 48, 64
8, 563200, Note_on_c, 6, 48, 92
8, 563264, Note_off_c, 6, 48, 64
8, 563280, Note_on_c, 6, 48, 88
8, 563344, Note_off_c, 6, 48, 64
8, 563360, Note_on_c, 6, 48, 85
8, 563424, Note_off_c, 6, 48, 64
8, 563440, Note_on_c, 6, 48, 82
8, 563504, Note_off_c, 6, 48, 64
8, 563520, Note_on_c, 6, 48, 79
8, 563584, Note_off_c, 6, 48, 64
8, 563600, Note_on_c, 6, 48, 76
8, 563664, Note_off_c, 6, 48, 64
8, 563680, Note_on_c, 6, 48, 72
8, 563744, Note_off_c, 6, 48, 64
8, 563760, Note_on_c, 6, 48, 69
8, 563824, Note_off_c, 6, 48, 64
8, 563840, Note_on_c, 6, 48, 66
8, 563904, Note_off_c, 6, 48, 64
8, 563920, Note_on_c, 6, 48, 63
8, 563984, Note_off_c, 6, 48, 64
8, 564000, Note_on_c, 6, 48, 60
8, 564064, Note_off_c, 6, 48, 64
8, 564080, Note_on_c, 6, 48, 56
8, 564144, Note_off_c, 6, 48, 64
8, 564160, Note_on_c, 6, 48, 53
8, 564224, Note_off_c, 6, 48, 64
8, 564240, Note_on_c, 6, 48, 50
8, 564304, Note_off_c, 6, 48, 64
8, 564320, Note_on_c, 6, 48, 52
8, 564384, Note_off_c, 6, 48, 64
8, 564400, Note_on_c, 6, 48, 54
8, 564464, Note_off_c, 6, 48, 64
8, 564480, Note_on_c, 6, 48, 56
8, 564544, Note_off_c, 6, 48, 64
8, 564560, Note_on_c, 6, 48, 58
8, 564624, Note_off_c, 6, 48, 64
8, 564640, Note_on_c, 6, 48, 60
8, 564704, Note_off_c, 6, 48, 64
8, 564720, Note_on_c, 6, 48, 63
8, 564784, Note_off_c, 6, 48, 64
8, 564800, Note_on_c, 6, 48, 65
8, 564864, Note_off_c, 6, 48, 64
8, 564880, Note_on_c, 6, 48, 67
8, 564944, Note_off_c, 6, 48, 64
8, 564960, Note_on_c, 6, 48, 69
8, 565024, Note_off_c, 6, 48, 64
8, 565040, Note_on_c, 6, 48, 71
8, 565104, Note_off_c, 6, 48, 64
8, 565120, Note_on_c, 6, 48, 73
8, 565184, Note_off_c, 6, 48, 64
8, 565200, Note_on_c, 6, 48, 75
8, 565264, Note_off_c, 6, 48, 64
8, 565280, Note_on_c, 6, 48, 77
8, 565344, Note_off_c, 6, 48, 64
8, 565360, Note_on_c, 6, 48, 79
8, 565424, Note_off_c, 6, 48, 64
8, 565440, Note_on_c, 6, 48, 81
8, 565504, Note_off_c, 6, 48, 64
8, 565520, Note_on_c, 6, 48, 83
8, 565584, Note_off_c, 6, 48, 64
8, 565600, Note_on_c, 6, 48, 85
8, 565664, Note_off_c, 6, 48, 64
8, 565680, Note_on_c, 6, 48, 88
8, 565744, Note_off_c, 6, 48, 64
8, 565760, Note_on_c, 6, 48, 90
8, 565824, Note_off_c, 6, 48, 64
8, 565840, Note_on_c, 6, 48, 92
8, 565904, Note_off_c, 6, 48, 64
8, 565920, Note_on_c, 6, 48, 94
8, 565984, Note_off_c, 6, 48, 64
8, 566000, Note_on_c, 6, 48, 96
8, 566064, Note_off_c, 6, 48, 64
8, 566080, Note_on_c, 6, 48, 98
8, 566144, Note_off_c, 6, 48, 64
8, 566160, Note_on_c, 6, 48, 127
8, 566544, Note_off_c, 6, 48, 64
8, 566544, End_track
9, 0, Start_track
9, 0, Title_t, "Violin 1"
9, 0, MIDI_port, 0
9, 0, Channel_prefix, 7
9, 0, Control_c, 7, 7, 99
9, 0, Control_c, 7, 10, 45
9, 0, Program_c, 7, 48
9, 480, Program_c, 7, 48
9, 480, Control_c, 7, 91, 85
9, 480, Control_c, 7, 7, 105
9, 480, Control_c, 7, 93, 90
9, 480, Control_c, 7, 10, 34
9, 5760, Note_on_c, 7, 72, 114
9, 5760, Note_on_c, 7, 64, 114
9, 5904, Note_off_c, 7, 64, 64
9, 5904, Note_off_c, 7, 72, 64
9, 7680, Note_on_c, 7, 79, 114
9, 7680, Note_on_c, 7, 74, 114
9, 7680, Note_on_c, 7, 67, 114
9, 7824, Note_off_c, 7, 67, 64
9, 7824, Note_off_c, 7, 74, 64
9, 7824, Note_off_c, 7, 79, 64
9, 9600, Note_on_c, 7, 72, 114
9, 9600, Note_on_c, 7, 64, 114
9, 9600, Note_on_c, 7, 76, 114
9, 9744, Note_off_c, 7, 76, 64
9, 9744, Note_off_c, 7, 64, 64
9, 9744, Note_off_c, 7, 72, 64
9, 10560, Note_on_c, 7, 69, 114
9, 10560, Note_on_c, 7, 81, 114
9, 10704, Note_off_c, 7, 81, 64
9, 10704, Note_off_c, 7, 69, 64
9, 11520, Note_on_c, 7, 71, 114
9, 11520, Note_on_c, 7, 62, 114
9, 11664, Note_off_c, 7, 62, 64
9, 11664, Note_off_c, 7, 71, 64
9, 36960, Note_on_c, 7, 69, 43
9, 37344, Note_off_c, 7, 69, 64
9, 37920, Note_on_c, 7, 71, 43
9, 38304, Note_off_c, 7, 71, 64
9, 38880, Note_on_c, 7, 62, 43
9, 38880, Note_on_c, 7, 72, 43
9, 39264, Note_off_c, 7, 72, 64
9, 39264, Note_off_c, 7, 62, 64
9, 39840, Note_on_c, 7, 62, 43
9, 39840, Note_on_c, 7, 72, 43
9, 40224, Note_off_c, 7, 72, 64
9, 40224, Note_off_c, 7, 62, 64
9, 40800, Note_on_c, 7, 64, 43
9, 41184, Note_off_c, 7, 64, 64
9, 41760, Note_on_c, 7, 62, 43
9, 42144, Note_off_c, 7, 62, 64
9, 42720, Note_on_c, 7, 60, 43
9, 43104, Note_off_c, 7, 60, 64
9, 43680, Note_on_c, 7, 67, 88
9, 43776, Note_off_c, 7, 67, 64
9, 43800, Note_on_c, 7, 69, 88
9, 43896, Note_off_c, 7, 69, 64
9, 43920, Note_on_c, 7, 71, 88
9, 43984, Note_off_c, 7, 71, 64
9, 44000, Note_on_c, 7, 72, 88
9, 44064, Note_off_c, 7, 72, 64
9, 44080, Note_on_c, 7, 74, 88
9, 44144, Note_off_c, 7, 74, 64
9, 44160, Note_on_c, 7, 76, 79
9, 44958, Note_off_c, 7, 76, 64
9, 45000, Note_on_c, 7, 74, 79
9, 45096, Note_off_c, 7, 74, 64
9, 45120, Note_on_c, 7, 72, 79
9, 45600, Note_off_c, 7, 72, 64
9, 45600, Note_on_c, 7, 74, 79
9, 46080, Note_off_c, 7, 74, 64
9, 46080, Note_on_c, 7, 76, 79
9, 46560, Note_off_c, 7, 76, 64
9, 46560, Note_on_c, 7, 77, 79
9, 46920, Note_off_c, 7, 77, 64
9, 46920, Note_on_c, 7, 76, 79
9, 47016, Note_off_c, 7, 76, 64
9, 47040, Note_on_c, 7, 76, 79
9, 47520, Note_off_c, 7, 76, 64
9, 47520, Note_on_c, 7, 74, 67
9, 47904, Note_off_c, 7, 74, 64
9, 48000, Note_on_c, 7, 77, 79
9, 48798, Note_off_c, 7, 77, 64
9, 48840, Note_on_c, 7, 76, 79
9, 48936, Note_off_c, 7, 76, 64
9, 48960, Note_on_c, 7, 74, 79
9, 49440, Note_off_c, 7, 74, 64
9, 49440, Note_on_c, 7, 76, 79
9, 49920, Note_off_c, 7, 76, 64
9, 49920, Note_on_c, 7, 79, 79
9, 50400, Note_off_c, 7, 79, 64
9, 50400, Note_on_c, 7, 77, 79
9, 50760, Note_off_c, 7, 77, 64
9, 50760, Note_on_c, 7, 76, 79
9, 50856, Note_off_c, 7, 76, 64
9, 50880, Note_on_c, 7, 76, 79
9, 51600, Note_off_c, 7, 76, 64
9, 51840, Note_on_c, 7, 79, 88
9, 52800, Note_off_c, 7, 79, 64
9, 52800, Note_on_c, 7, 81, 88
9, 53760, Note_off_c, 7, 81, 64
9, 53760, Note_on_c, 7, 83, 88
9, 55200, Note_off_c, 7, 83, 64
9, 55200, Note_on_c, 7, 84, 88
9, 56160, Note_off_c, 7, 84, 64
9, 56160, Note_on_c, 7, 79, 79
9, 56400, Note_off_c, 7, 79, 64
9, 56400, Note_on_c, 7, 81, 71
9, 56640, Note_off_c, 7, 81, 64
9, 56640, Note_on_c, 7, 83, 64
9, 57600, Note_off_c, 7, 83, 64
9, 57600, Note_on_c, 7, 76, 45
9, 57984, Note_off_c, 7, 76, 64
9, 58800, Note_on_c, 7, 67, 76
9, 58880, Note_off_c, 7, 67, 64
9, 58880, Note_on_c, 7, 69, 76
9, 58960, Note_off_c, 7, 69, 64
9, 58960, Note_on_c, 7, 71, 76
9, 59040, Note_off_c, 7, 71, 64
9, 59040, Note_on_c, 7, 72, 76
9, 59136, Note_off_c, 7, 72, 64
9, 59160, Note_on_c, 7, 74, 76
9, 59256, Note_off_c, 7, 74, 64
9, 59280, Note_on_c, 7, 76, 76
9, 59376, Note_off_c, 7, 76, 64
9, 59400, Note_on_c, 7, 77, 76
9, 59496, Note_off_c, 7, 77, 64
9, 59520, Note_on_c, 7, 79, 76
9, 60480, Note_off_c, 7, 79, 64
9, 60480, Note_on_c, 7, 81, 76
9, 60960, Note_off_c, 7, 81, 64
9, 60960, Note_on_c, 7, 79, 76
9, 61440, Note_off_c, 7, 79, 64
9, 61440, Note_on_c, 7, 77, 76
9, 61824, Note_off_c, 7, 77, 64
9, 61920, Note_on_c, 7, 76, 76
9, 62304, Note_off_c, 7, 76, 64
9, 62400, Note_on_c, 7, 77, 76
9, 63264, Note_off_c, 7, 77, 64
9, 63360, Note_on_c, 7, 77, 101
9, 63390, Note_off_c, 7, 77, 64
9, 63390, Note_on_c, 7, 79, 101
9, 63420, Note_off_c, 7, 79, 64
9, 63420, Note_on_c, 7, 77, 101
9, 63450, Note_off_c, 7, 77, 64
9, 63450, Note_on_c, 7, 79, 101
9, 63480, Note_off_c, 7, 79, 64
9, 63480, Note_on_c, 7, 77, 101
9, 63510, Note_off_c, 7, 77, 64
9, 63510, Note_on_c, 7, 79, 101
9, 63540, Note_off_c, 7, 79, 64
9, 63540, Note_on_c, 7, 77, 101
9, 63570, Note_off_c, 7, 77, 64
9, 63570, Note_on_c, 7, 79, 101
9, 63600, Note_off_c, 7, 79, 64
9, 63600, Note_on_c, 7, 77, 101
9, 63630, Note_off_c, 7, 77, 64
9, 63630, Note_on_c, 7, 79, 101
9, 63660, Note_off_c, 7, 79, 64
9, 63660, Note_on_c, 7, 77, 101
9, 63690, Note_off_c, 7, 77, 64
9, 63690, Note_on_c, 7, 79, 101
9, 63720, Note_off_c, 7, 79, 64
9, 63720, Note_on_c, 7, 77, 101
9, 63750, Note_off_c, 7, 77, 64
9, 63750, Note_on_c, 7, 79, 101
9, 63780, Note_off_c, 7, 79, 64
9, 63780, Note_on_c, 7, 77, 101
9, 63810, Note_off_c, 7, 77, 64
9, 63810, Note_on_c, 7, 79, 101
9, 63840, Note_off_c, 7, 79, 64
9, 63840, Note_on_c, 7, 77, 101
9, 64080, Note_off_c, 7, 77, 64
9, 64080, Note_on_c, 7, 79, 76
9, 64200, Note_off_c, 7, 79, 64
9, 64200, Note_on_c, 7, 81, 76
9, 64320, Note_off_c, 7, 81, 64
9, 64320, Note_on_c, 7, 79, 76
9, 64704, Note_off_c, 7, 79, 64
9, 64800, Note_on_c, 7, 77, 76
9, 65184, Note_off_c, 7, 77, 64
9, 65280, Note_on_c, 7, 76, 76
9, 65664, Note_off_c, 7, 76, 64
9, 65760, Note_on_c, 7, 74, 76
9, 66144, Note_off_c, 7, 74, 64
9, 66240, Note_on_c, 7, 76, 76
9, 66720, Note_off_c, 7, 76, 64
9, 66720, Note_on_c, 7, 77, 76
9, 66960, Note_off_c, 7, 77, 64
9, 66960, Note_on_c, 7, 79, 76
9, 67200, Note_off_c, 7, 79, 64
9, 67200, Note_on_c, 7, 81, 101
9, 67200, Note_on_c, 7, 72, 101
9, 67584, Note_off_c, 7, 72, 64
9, 67680, Note_on_c, 7, 77, 101
9, 68064, Note_off_c, 7, 81, 64
9, 68160, Note_on_c, 7, 83, 101
9, 68544, Note_off_c, 7, 77, 64
9, 68640, Note_on_c, 7, 74, 101
9, 69090, Note_off_c, 7, 83, 64
9, 69090, Note_off_c, 7, 74, 64
9, 69120, Note_on_c, 7, 72, 101
9, 69120, Note_on_c, 7, 84, 101
9, 70488, Note_off_c, 7, 84, 64
9, 70488, Note_off_c, 7, 72, 64
9, 70560, Note_on_c, 7, 72, 101
9, 70800, Note_off_c, 7, 72, 64
9, 70800, Note_on_c, 7, 74, 101
9, 70992, Note_off_c, 7, 74, 64
9, 71040, Note_on_c, 7, 76, 101
9, 71952, Note_off_c, 7, 76, 64
9, 72000, Note_on_c, 7, 74, 101
9, 72720, Note_off_c, 7, 74, 64
9, 72720, Note_on_c, 7, 72, 101
9, 72912, Note_off_c, 7, 72, 64
9, 72960, Note_on_c, 7, 72, 101
9, 73344, Note_off_c, 7, 72, 64
9, 74880, Note_on_c, 7, 64, 90
9, 74880, Note_on_c, 7, 72, 90
9, 75024, Note_off_c, 7, 72, 64
9, 75024, Note_off_c, 7, 64, 64
9, 76800, Note_on_c, 7, 76, 90
9, 76800, Note_on_c, 7, 64, 90
9, 76800, Note_on_c, 7, 72, 90
9, 76944, Note_off_c, 7, 72, 64
9, 76944, Note_off_c, 7, 64, 64
9, 76944, Note_off_c, 7, 76, 64
9, 78720, Note_on_c, 7, 76, 90
9, 78720, Note_on_c, 7, 64, 90
9, 78720, Note_on_c, 7, 72, 90
9, 78864, Note_off_c, 7, 72, 64
9, 78864, Note_off_c, 7, 64, 64
9, 78864, Note_off_c, 7, 76, 64
9, 79680, Note_on_c, 7, 84, 90
9, 79680, Note_on_c, 7, 76, 90
9, 79680, Note_on_c, 7, 64, 90
9, 79824, Note_off_c, 7, 64, 64
9, 79824, Note_off_c, 7, 76, 64
9, 79824, Note_off_c, 7, 84, 64
9, 80640, Note_on_c, 7, 86, 90
9, 80640, Note_on_c, 7, 77, 90
9, 80784, Note_off_c, 7, 77, 64
9, 80784, Note_off_c, 7, 86, 64
9, 81120, Note_on_c, 7, 84, 90
9, 81120, Note_on_c, 7, 76, 90
9, 81264, Note_off_c, 7, 76, 64
9, 81264, Note_off_c, 7, 84, 64
9, 81600, Note_on_c, 7, 83, 90
9, 81600, Note_on_c, 7, 74, 90
9, 81744, Note_off_c, 7, 74, 64
9, 81744, Note_off_c, 7, 83, 64
9, 82560, Note_on_c, 7, 64, 72
9, 82560, Note_on_c, 7, 72, 72
9, 82704, Note_off_c, 7, 72, 64
9, 82704, Note_off_c, 7, 64, 64
9, 84480, Note_on_c, 7, 72, 72
9, 84480, Note_on_c, 7, 76, 72
9, 84480, Note_on_c, 7, 64, 72
9, 84624, Note_off_c, 7, 64, 64
9, 84624, Note_off_c, 7, 76, 64
9, 84624, Note_off_c, 7, 72, 64
9, 86400, Note_on_c, 7, 76, 72
9, 86400, Note_on_c, 7, 64, 72
9, 86400, Note_on_c, 7, 72, 72
9, 86544, Note_off_c, 7, 72, 64
9, 86544, Note_off_c, 7, 64, 64
9, 86544, Note_off_c, 7, 76, 64
9, 87360, Note_on_c, 7, 76, 72
9, 87360, Note_on_c, 7, 84, 72
9, 87360, Note_on_c, 7, 64, 72
9, 87504, Note_off_c, 7, 64, 64
9, 87504, Note_off_c, 7, 84, 64
9, 87504, Note_off_c, 7, 76, 64
9, 88320, Note_on_c, 7, 77, 72
9, 88320, Note_on_c, 7, 86, 72
9, 88464, Note_off_c, 7, 86, 64
9, 88464, Note_off_c, 7, 77, 64
9, 88800, Note_on_c, 7, 76, 72
9, 88800, Note_on_c, 7, 84, 72
9, 88944, Note_off_c, 7, 84, 64
9, 88944, Note_off_c, 7, 76, 64
9, 89280, Note_on_c, 7, 74, 72
9, 89280, Note_on_c, 7, 83, 72
9, 89424, Note_off_c, 7, 83, 64
9, 89424, Note_off_c, 7, 74, 64
9, 90240, Note_on_c, 7, 74, 72
9, 90240, Note_on_c, 7, 83, 72
9, 90384, Note_off_c, 7, 83, 64
9, 90384, Note_off_c, 7, 74, 64
9, 92160, Note_on_c, 7, 76, 72
9, 92160, Note_on_c, 7, 84, 72
9, 92304, Note_off_c, 7, 84, 64
9, 92304, Note_off_c, 7, 76, 64
9, 94080, Note_on_c, 7, 84, 72
9, 94080, Note_on_c, 7, 76, 72
9, 94224, Note_off_c, 7, 76, 64
9, 94224, Note_off_c, 7, 84, 64
9, 95040, Note_on_c, 7, 76, 72
9, 95040, Note_on_c, 7, 84, 72
9, 95184, Note_off_c, 7, 84, 64
9, 95184, Note_off_c, 7, 76, 64
9, 96000, Note_on_c, 7, 86, 72
9, 96000, Note_on_c, 7, 77, 72
9, 96144, Note_off_c, 7, 77, 64
9, 96144, Note_off_c, 7, 86, 64
9, 96480, Note_on_c, 7, 77, 72
9, 96480, Note_on_c, 7, 86, 72
9, 96624, Note_off_c, 7, 86, 64
9, 96624, Note_off_c, 7, 77, 64
9, 96960, Note_on_c, 7, 76, 72
9, 96960, Note_on_c, 7, 84, 72
9, 97104, Note_off_c, 7, 84, 64
9, 97104, Note_off_c, 7, 76, 64
9, 97920, Note_on_c, 7, 74, 72
9, 97920, Note_on_c, 7, 83, 72
9, 98064, Note_off_c, 7, 83, 64
9, 98064, Note_off_c, 7, 74, 64
9, 99840, Note_on_c, 7, 76, 72
9, 99840, Note_on_c, 7, 84, 72
9, 99984, Note_off_c, 7, 84, 64
9, 99984, Note_off_c, 7, 76, 64
9, 101760, Note_on_c, 7, 84, 72
9, 101760, Note_on_c, 7, 76, 72
9, 101904, Note_off_c, 7, 76, 64
9, 101904, Note_off_c, 7, 84, 64
9, 102720, Note_on_c, 7, 76, 72
9, 102720, Note_on_c, 7, 84, 72
9, 102864, Note_off_c, 7, 84, 64
9, 102864, Note_off_c, 7, 76, 64
9, 103680, Note_on_c, 7, 77, 72
9, 103680, Note_on_c, 7, 86, 72
9, 103824, Note_off_c, 7, 86, 64
9, 103824, Note_off_c, 7, 77, 64
9, 104160, Note_on_c, 7, 86, 72
9, 104160, Note_on_c, 7, 77, 72
9, 104304, Note_off_c, 7, 77, 64
9, 104304, Note_off_c, 7, 86, 64
9, 104640, Note_on_c, 7, 84, 72
9, 104640, Note_on_c, 7, 76, 72
9, 104784, Note_off_c, 7, 76, 64
9, 104784, Note_off_c, 7, 84, 64
9, 105600, Note_on_c, 7, 65, 36
9, 105984, Note_off_c, 7, 65, 64
9, 106080, Note_on_c, 7, 65, 36
9, 106224, Note_off_c, 7, 65, 64
9, 106440, Note_on_c, 7, 65, 36
9, 106488, Note_off_c, 7, 65, 64
9, 106560, Note_on_c, 7, 64, 36
9, 107136, Note_off_c, 7, 64, 64
9, 109440, Note_on_c, 7, 79, 45
9, 109980, Note_off_c, 7, 79, 64
9, 110040, Note_on_c, 7, 83, 45
9, 110100, Note_off_c, 7, 83, 64
9, 110160, Note_on_c, 7, 81, 45
9, 110220, Note_off_c, 7, 81, 64
9, 110280, Note_on_c, 7, 79, 45
9, 110340, Note_off_c, 7, 79, 64
9, 110400, Note_on_c, 7, 78, 45
9, 110460, Note_off_c, 7, 78, 64
9, 110520, Note_on_c, 7, 79, 45
9, 110580, Note_off_c, 7, 79, 64
9, 110640, Note_on_c, 7, 81, 45
9, 110700, Note_off_c, 7, 81, 64
9, 110760, Note_on_c, 7, 83, 45
9, 110820, Note_off_c, 7, 83, 64
9, 110880, Note_on_c, 7, 86, 45
9, 110940, Note_off_c, 7, 86, 64
9, 111000, Note_on_c, 7, 84, 45
9, 111060, Note_off_c, 7, 84, 64
9, 111120, Note_on_c, 7, 81, 45
9, 111180, Note_off_c, 7, 81, 64
9, 111240, Note_on_c, 7, 86, 45
9, 111300, Note_off_c, 7, 86, 64
9, 111360, Note_on_c, 7, 86, 45
9, 111420, Note_off_c, 7, 86, 64
9, 111480, Note_on_c, 7, 86, 45
9, 111540, Note_off_c, 7, 86, 64
9, 111600, Note_on_c, 7, 84, 45
9, 111660, Note_off_c, 7, 84, 64
9, 111720, Note_on_c, 7, 83, 45
9, 111780, Note_off_c, 7, 83, 64
9, 111840, Note_on_c, 7, 81, 45
9, 111900, Note_off_c, 7, 81, 64
9, 111960, Note_on_c, 7, 79, 45
9, 112020, Note_off_c, 7, 79, 64
9, 112080, Note_on_c, 7, 78, 45
9, 112140, Note_off_c, 7, 78, 64
9, 112200, Note_on_c, 7, 79, 45
9, 112260, Note_off_c, 7, 79, 64
9, 112320, Note_on_c, 7, 81, 45
9, 112380, Note_off_c, 7, 81, 64
9, 112440, Note_on_c, 7, 79, 45
9, 112500, Note_off_c, 7, 79, 64
9, 112560, Note_on_c, 7, 78, 45
9, 112620, Note_off_c, 7, 78, 64
9, 112680, Note_on_c, 7, 76, 45
9, 112740, Note_off_c, 7, 76, 64
9, 112800, Note_on_c, 7, 74, 45
9, 112860, Note_off_c, 7, 74, 64
9, 112920, Note_on_c, 7, 74, 45
9, 112980, Note_off_c, 7, 74, 64
9, 113040, Note_on_c, 7, 76, 45
9, 113100, Note_off_c, 7, 76, 64
9, 113160, Note_on_c, 7, 78, 45
9, 113220, Note_off_c, 7, 78, 64
9, 113280, Note_on_c, 7, 79, 45
9, 113340, Note_off_c, 7, 79, 64
9, 113400, Note_on_c, 7, 83, 45
9, 113460, Note_off_c, 7, 83, 64
9, 113520, Note_on_c, 7, 81, 45
9, 113580, Note_off_c, 7, 81, 64
9, 113640, Note_on_c, 7, 79, 45
9, 113700, Note_off_c, 7, 79, 64
9, 113760, Note_on_c, 7, 81, 45
9, 113820, Note_off_c, 7, 81, 64
9, 113880, Note_on_c, 7, 84, 45
9, 113940, Note_off_c, 7, 84, 64
9, 114000, Note_on_c, 7, 83, 45
9, 114060, Note_off_c, 7, 83, 64
9, 114120, Note_on_c, 7, 81, 45
9, 114180, Note_off_c, 7, 81, 64
9, 114240, Note_on_c, 7, 83, 45
9, 114300, Note_off_c, 7, 83, 64
9, 114360, Note_on_c, 7, 86, 45
9, 114420, Note_off_c, 7, 86, 64
9, 114480, Note_on_c, 7, 84, 45
9, 114540, Note_off_c, 7, 84, 64
9, 114600, Note_on_c, 7, 83, 45
9, 114660, Note_off_c, 7, 83, 64
9, 114720, Note_on_c, 7, 81, 45
9, 114780, Note_off_c, 7, 81, 64
9, 114840, Note_on_c, 7, 79, 45
9, 114900, Note_off_c, 7, 79, 64
9, 114960, Note_on_c, 7, 81, 45
9, 115020, Note_off_c, 7, 81, 64
9, 115080, Note_on_c, 7, 83, 45
9, 115140, Note_off_c, 7, 83, 64
9, 115200, Note_on_c, 7, 84, 50
9, 115272, Note_off_c, 7, 84, 64
9, 115440, Note_on_c, 7, 64, 25
9, 115512, Note_off_c, 7, 64, 64
9, 115680, Note_on_c, 7, 64, 25
9, 115752, Note_off_c, 7, 64, 64
9, 115920, Note_on_c, 7, 64, 25
9, 115992, Note_off_c, 7, 64, 64
9, 116160, Note_on_c, 7, 62, 25
9, 116160, Note_on_c, 7, 65, 25
9, 116232, Note_off_c, 7, 65, 64
9, 116232, Note_off_c, 7, 62, 64
9, 116400, Note_on_c, 7, 62, 25
9, 116400, Note_on_c, 7, 65, 25
9, 116472, Note_off_c, 7, 65, 64
9, 116472, Note_off_c, 7, 62, 64
9, 116640, Note_on_c, 7, 65, 25
9, 116640, Note_on_c, 7, 62, 25
9, 116712, Note_off_c, 7, 62, 64
9, 116712, Note_off_c, 7, 65, 64
9, 116880, Note_on_c, 7, 62, 25
9, 116880, Note_on_c, 7, 65, 25
9, 116952, Note_off_c, 7, 65, 64
9, 116952, Note_off_c, 7, 62, 64
9, 117120, Note_on_c, 7, 64, 43
9, 117192, Note_off_c, 7, 64, 64
9, 117360, Note_on_c, 7, 67, 43
9, 117432, Note_off_c, 7, 67, 64
9, 117600, Note_on_c, 7, 67, 43
9, 117672, Note_off_c, 7, 67, 64
9, 117840, Note_on_c, 7, 67, 43
9, 117912, Note_off_c, 7, 67, 64
9, 118080, Note_on_c, 7, 67, 43
9, 118152, Note_off_c, 7, 67, 64
9, 118320, Note_on_c, 7, 67, 43
9, 118392, Note_off_c, 7, 67, 64
9, 118560, Note_on_c, 7, 67, 43
9, 118632, Note_off_c, 7, 67, 64
9, 118800, Note_on_c, 7, 67, 43
9, 118872, Note_off_c, 7, 67, 64
9, 119040, Note_on_c, 7, 67, 43
9, 119112, Note_off_c, 7, 67, 64
9, 119280, Note_on_c, 7, 67, 43
9, 119352, Note_off_c, 7, 67, 64
9, 119520, Note_on_c, 7, 67, 43
9, 119592, Note_off_c, 7, 67, 64
9, 119760, Note_on_c, 7, 67, 43
9, 119832, Note_off_c, 7, 67, 64
9, 120000, Note_on_c, 7, 67, 43
9, 120072, Note_off_c, 7, 67, 64
9, 120240, Note_on_c, 7, 67, 43
9, 120312, Note_off_c, 7, 67, 64
9, 120480, Note_on_c, 7, 67, 43
9, 120552, Note_off_c, 7, 67, 64
9, 120720, Note_on_c, 7, 67, 43
9, 120792, Note_off_c, 7, 67, 64
9, 120960, Note_on_c, 7, 67, 56
9, 121488, Note_off_c, 7, 67, 64
9, 121560, Note_on_c, 7, 71, 41
9, 121608, Note_off_c, 7, 71, 64
9, 121680, Note_on_c, 7, 69, 42
9, 121728, Note_off_c, 7, 69, 64
9, 121800, Note_on_c, 7, 67, 43
9, 121848, Note_off_c, 7, 67, 64
9, 121920, Note_on_c, 7, 66, 44
9, 121968, Note_off_c, 7, 66, 64
9, 122040, Note_on_c, 7, 67, 45
9, 122088, Note_off_c, 7, 67, 64
9, 122160, Note_on_c, 7, 69, 46
9, 122208, Note_off_c, 7, 69, 64
9, 122280, Note_on_c, 7, 71, 47
9, 122328, Note_off_c, 7, 71, 64
9, 122400, Note_on_c, 7, 74, 48
9, 122448, Note_off_c, 7, 74, 64
9, 122520, Note_on_c, 7, 72, 49
9, 122568, Note_off_c, 7, 72, 64
9, 122640, Note_on_c, 7, 69, 50
9, 122688, Note_off_c, 7, 69, 64
9, 122760, Note_on_c, 7, 74, 50
9, 122808, Note_off_c, 7, 74, 64
9, 122880, Note_on_c, 7, 71, 52
9, 122928, Note_off_c, 7, 71, 64
9, 123000, Note_on_c, 7, 76, 53
9, 123048, Note_off_c, 7, 76, 64
9, 123120, Note_on_c, 7, 74, 54
9, 123168, Note_off_c, 7, 74, 64
9, 123240, Note_on_c, 7, 71, 55
9, 123288, Note_off_c, 7, 71, 64
9, 123360, Note_on_c, 7, 77, 56
9, 123408, Note_off_c, 7, 77, 64
9, 123480, Note_on_c, 7, 76, 57
9, 123528, Note_off_c, 7, 76, 64
9, 123600, Note_on_c, 7, 72, 58
9, 123648, Note_off_c, 7, 72, 64
9, 123720, Note_on_c, 7, 77, 59
9, 123768, Note_off_c, 7, 77, 64
9, 123840, Note_on_c, 7, 74, 59
9, 123888, Note_off_c, 7, 74, 64
9, 123960, Note_on_c, 7, 79, 60
9, 124008, Note_off_c, 7, 79, 64
9, 124080, Note_on_c, 7, 77, 61
9, 124128, Note_off_c, 7, 77, 64
9, 124200, Note_on_c, 7, 74, 63
9, 124248, Note_off_c, 7, 74, 64
9, 124320, Note_on_c, 7, 81, 64
9, 124368, Note_off_c, 7, 81, 64
9, 124440, Note_on_c, 7, 79, 65
9, 124488, Note_off_c, 7, 79, 64
9, 124560, Note_on_c, 7, 76, 66
9, 124608, Note_off_c, 7, 76, 64
9, 124680, Note_on_c, 7, 81, 67
9, 124728, Note_off_c, 7, 81, 64
9, 124800, Note_on_c, 7, 77, 68
9, 124848, Note_off_c, 7, 77, 64
9, 124920, Note_on_c, 7, 83, 68
9, 124968, Note_off_c, 7, 83, 64
9, 125040, Note_on_c, 7, 81, 69
9, 125088, Note_off_c, 7, 81, 64
9, 125160, Note_on_c, 7, 77, 70
9, 125208, Note_off_c, 7, 77, 64
9, 125280, Note_on_c, 7, 84, 71
9, 125328, Note_off_c, 7, 84, 64
9, 125400, Note_on_c, 7, 83, 72
9, 125448, Note_off_c, 7, 83, 64
9, 125520, Note_on_c, 7, 79, 74
9, 125568, Note_off_c, 7, 79, 64
9, 125640, Note_on_c, 7, 84, 75
9, 125688, Note_off_c, 7, 84, 64
9, 125760, Note_on_c, 7, 69, 76
9, 125808, Note_off_c, 7, 69, 64
9, 125880, Note_on_c, 7, 74, 77
9, 125928, Note_off_c, 7, 74, 64
9, 126000, Note_on_c, 7, 72, 77
9, 126048, Note_off_c, 7, 72, 64
9, 126120, Note_on_c, 7, 69, 78
9, 126168, Note_off_c, 7, 69, 64
9, 126240, Note_on_c, 7, 76, 79
9, 126288, Note_off_c, 7, 76, 64
9, 126360, Note_on_c, 7, 74, 80
9, 126408, Note_off_c, 7, 74, 64
9, 126480, Note_on_c, 7, 71, 81
9, 126528, Note_off_c, 7, 71, 64
9, 126600, Note_on_c, 7, 76, 82
9, 126648, Note_off_c, 7, 76, 64
9, 126720, Note_on_c, 7, 72, 84
9, 126768, Note_off_c, 7, 72, 64
9, 126840, Note_on_c, 7, 77, 85
9, 126888, Note_off_c, 7, 77, 64
9, 126960, Note_on_c, 7, 76, 86
9, 127008, Note_off_c, 7, 76, 64
9, 127080, Note_on_c, 7, 72, 86
9, 127128, Note_off_c, 7, 72, 64
9, 127200, Note_on_c, 7, 79, 87
9, 127248, Note_off_c, 7, 79, 64
9, 127320, Note_on_c, 7, 77, 88
9, 127368, Note_off_c, 7, 77, 64
9, 127440, Note_on_c, 7, 74, 89
9, 127488, Note_off_c, 7, 74, 64
9, 127560, Note_on_c, 7, 79, 90
9, 127608, Note_off_c, 7, 79, 64
9, 127680, Note_on_c, 7, 76, 91
9, 127728, Note_off_c, 7, 76, 64
9, 127800, Note_on_c, 7, 81, 92
9, 127848, Note_off_c, 7, 81, 64
9, 127920, Note_on_c, 7, 79, 93
9, 127968, Note_off_c, 7, 79, 64
9, 128040, Note_on_c, 7, 76, 95
9, 128088, Note_off_c, 7, 76, 64
9, 128160, Note_on_c, 7, 81, 72
9, 128208, Note_off_c, 7, 81, 64
9, 128220, Note_on_c, 7, 81, 72
9, 128268, Note_off_c, 7, 81, 64
9, 128280, Note_on_c, 7, 81, 72
9, 128328, Note_off_c, 7, 81, 64
9, 128340, Note_on_c, 7, 81, 72
9, 128388, Note_off_c, 7, 81, 64
9, 128400, Note_on_c, 7, 81, 72
9, 128448, Note_off_c, 7, 81, 64
9, 128460, Note_on_c, 7, 81, 72
9, 128508, Note_off_c, 7, 81, 64
9, 128520, Note_on_c, 7, 81, 72
9, 128568, Note_off_c, 7, 81, 64
9, 128580, Note_on_c, 7, 81, 72
9, 128628, Note_off_c, 7, 81, 64
9, 128640, Note_on_c, 7, 81, 108
9, 128700, Note_off_c, 7, 81, 64
9, 128760, Note_on_c, 7, 71, 108
9, 128820, Note_off_c, 7, 71, 64
9, 128880, Note_on_c, 7, 72, 108
9, 128940, Note_off_c, 7, 72, 64
9, 129000, Note_on_c, 7, 74, 108
9, 129060, Note_off_c, 7, 74, 64
9, 129240, Note_on_c, 7, 74, 108
9, 129300, Note_off_c, 7, 74, 64
9, 129360, Note_on_c, 7, 76, 108
9, 129420, Note_off_c, 7, 76, 64
9, 129480, Note_on_c, 7, 77, 108
9, 129540, Note_off_c, 7, 77, 64
9, 129720, Note_on_c, 7, 77, 108
9, 129780, Note_off_c, 7, 77, 64
9, 129840, Note_on_c, 7, 79, 108
9, 129900, Note_off_c, 7, 79, 64
9, 129960, Note_on_c, 7, 81, 108
9, 130020, Note_off_c, 7, 81, 64
9, 130200, Note_on_c, 7, 83, 108
9, 130260, Note_off_c, 7, 83, 64
9, 130320, Note_on_c, 7, 84, 108
9, 130380, Note_off_c, 7, 84, 64
9, 130440, Note_on_c, 7, 86, 108
9, 130500, Note_off_c, 7, 86, 64
9, 130680, Note_on_c, 7, 71, 108
9, 130740, Note_off_c, 7, 71, 64
9, 130800, Note_on_c, 7, 72, 108
9, 130860, Note_off_c, 7, 72, 64
9, 130920, Note_on_c, 7, 74, 108
9, 130980, Note_off_c, 7, 74, 64
9, 131160, Note_on_c, 7, 76, 108
9, 131220, Note_off_c, 7, 76, 64
9, 131280, Note_on_c, 7, 77, 108
9, 131340, Note_off_c, 7, 77, 64
9, 131400, Note_on_c, 7, 79, 108
9, 131460, Note_off_c, 7, 79, 64
9, 131640, Note_on_c, 7, 79, 108
9, 131700, Note_off_c, 7, 79, 64
9, 131760, Note_on_c, 7, 81, 108
9, 131820, Note_off_c, 7, 81, 64
9, 131880, Note_on_c, 7, 83, 108
9, 131940, Note_off_c, 7, 83, 64
9, 132120, Note_on_c, 7, 84, 108
9, 132180, Note_off_c, 7, 84, 64
9, 132240, Note_on_c, 7, 86, 108
9, 132300, Note_off_c, 7, 86, 64
9, 132360, Note_on_c, 7, 88, 108
9, 132420, Note_off_c, 7, 88, 64
9, 132600, Note_on_c, 7, 73, 108
9, 132660, Note_off_c, 7, 73, 64
9, 132720, Note_on_c, 7, 74, 108
9, 132780, Note_off_c, 7, 74, 64
9, 132840, Note_on_c, 7, 76, 108
9, 132900, Note_off_c, 7, 76, 64
9, 133080, Note_on_c, 7, 77, 108
9, 133140, Note_off_c, 7, 77, 64
9, 133200, Note_on_c, 7, 79, 108
9, 133260, Note_off_c, 7, 79, 64
9, 133320, Note_on_c, 7, 81, 108
9, 133380, Note_off_c, 7, 81, 64
9, 133560, Note_on_c, 7, 83, 108
9, 133620, Note_off_c, 7, 83, 64
9, 133680, Note_on_c, 7, 84, 108
9, 133740, Note_off_c, 7, 84, 64
9, 133800, Note_on_c, 7, 86, 108
9, 133860, Note_off_c, 7, 86, 64
9, 134040, Note_on_c, 7, 86, 108
9, 134100, Note_off_c, 7, 86, 64
9, 134160, Note_on_c, 7, 88, 108
9, 134220, Note_off_c, 7, 88, 64
9, 134280, Note_on_c, 7, 89, 108
9, 134340, Note_off_c, 7, 89, 64
9, 134520, Note_on_c, 7, 71, 108
9, 134580, Note_off_c, 7, 71, 64
9, 134640, Note_on_c, 7, 72, 108
9, 134700, Note_off_c, 7, 72, 64
9, 134760, Note_on_c, 7, 74, 108
9, 134820, Note_off_c, 7, 74, 64
9, 135000, Note_on_c, 7, 76, 108
9, 135060, Note_off_c, 7, 76, 64
9, 135120, Note_on_c, 7, 77, 108
9, 135180, Note_off_c, 7, 77, 64
9, 135240, Note_on_c, 7, 79, 108
9, 135300, Note_off_c, 7, 79, 64
9, 135480, Note_on_c, 7, 79, 108
9, 135540, Note_off_c, 7, 79, 64
9, 135600, Note_on_c, 7, 81, 108
9, 135660, Note_off_c, 7, 81, 64
9, 135720, Note_on_c, 7, 83, 108
9, 135780, Note_off_c, 7, 83, 64
9, 135960, Note_on_c, 7, 84, 108
9, 136020, Note_off_c, 7, 84, 64
9, 136080, Note_on_c, 7, 86, 108
9, 136140, Note_off_c, 7, 86, 64
9, 136200, Note_on_c, 7, 88, 108
9, 136260, Note_off_c, 7, 88, 64
9, 136440, Note_on_c, 7, 77, 106
9, 136536, Note_off_c, 7, 77, 64
9, 136560, Note_on_c, 7, 88, 104
9, 136656, Note_off_c, 7, 88, 64
9, 136680, Note_on_c, 7, 86, 102
9, 136776, Note_off_c, 7, 86, 64
9, 136800, Note_on_c, 7, 85, 100
9, 136896, Note_off_c, 7, 85, 64
9, 136920, Note_on_c, 7, 86, 98
9, 137016, Note_off_c, 7, 86, 64
9, 137040, Note_on_c, 7, 77, 96
9, 137136, Note_off_c, 7, 77, 64
9, 137160, Note_on_c, 7, 86, 80
9, 137256, Note_off_c, 7, 86, 64
9, 137400, Note_on_c, 7, 76, 90
9, 137496, Note_off_c, 7, 76, 64
9, 137520, Note_on_c, 7, 86, 88
9, 137616, Note_off_c, 7, 86, 64
9, 137640, Note_on_c, 7, 84, 86
9, 137736, Note_off_c, 7, 84, 64
9, 137760, Note_on_c, 7, 83, 85
9, 137856, Note_off_c, 7, 83, 64
9, 137880, Note_on_c, 7, 84, 83
9, 137976, Note_off_c, 7, 84, 64
9, 138000, Note_on_c, 7, 76, 80
9, 138096, Note_off_c, 7, 76, 64
9, 138120, Note_on_c, 7, 84, 67
9, 138216, Note_off_c, 7, 84, 64
9, 138360, Note_on_c, 7, 74, 75
9, 138456, Note_off_c, 7, 74, 64
9, 138480, Note_on_c, 7, 84, 73
9, 138576, Note_off_c, 7, 84, 64
9, 138600, Note_on_c, 7, 83, 70
9, 138696, Note_off_c, 7, 83, 64
9, 138720, Note_on_c, 7, 82, 68
9, 138816, Note_off_c, 7, 82, 64
9, 138840, Note_on_c, 7, 83, 67
9, 138936, Note_off_c, 7, 83, 64
9, 138960, Note_on_c, 7, 74, 65
9, 139056, Note_off_c, 7, 74, 64
9, 139080, Note_on_c, 7, 83, 54
9, 139176, Note_off_c, 7, 83, 64
9, 139320, Note_on_c, 7, 72, 59
9, 139416, Note_off_c, 7, 72, 64
9, 139440, Note_on_c, 7, 83, 57
9, 139536, Note_off_c, 7, 83, 64
9, 139560, Note_on_c, 7, 81, 55
9, 139656, Note_off_c, 7, 81, 64
9, 139680, Note_on_c, 7, 78, 53
9, 139776, Note_off_c, 7, 78, 64
9, 139800, Note_on_c, 7, 74, 51
9, 139896, Note_off_c, 7, 74, 64
9, 139920, Note_on_c, 7, 72, 49
9, 140016, Note_off_c, 7, 72, 64
9, 140040, Note_on_c, 7, 69, 47
9, 140136, Note_off_c, 7, 69, 64
9, 140160, Note_on_c, 7, 67, 36
9, 141600, Note_off_c, 7, 67, 64
9, 141600, Note_on_c, 7, 69, 36
9, 142080, Note_off_c, 7, 69, 64
9, 142080, Note_on_c, 7, 67, 36
9, 143520, Note_off_c, 7, 67, 64
9, 143520, Note_on_c, 7, 71, 36
9, 143760, Note_off_c, 7, 71, 64
9, 143760, Note_on_c, 7, 69, 36
9, 144000, Note_off_c, 7, 69, 64
9, 144000, Note_on_c, 7, 67, 36
9, 145200, Note_off_c, 7, 67, 64
9, 145200, Note_on_c, 7, 76, 36
9, 145440, Note_off_c, 7, 76, 64
9, 145440, Note_on_c, 7, 74, 36
9, 145560, Note_off_c, 7, 74, 64
9, 145560, Note_on_c, 7, 72, 36
9, 145680, Note_off_c, 7, 72, 64
9, 145680, Note_on_c, 7, 71, 36
9, 145800, Note_off_c, 7, 71, 64
9, 145800, Note_on_c, 7, 69, 36
9, 145920, Note_off_c, 7, 69, 64
9, 145920, Note_on_c, 7, 67, 36
9, 147120, Note_off_c, 7, 67, 64
9, 147120, Note_on_c, 7, 79, 36
9, 147240, Note_off_c, 7, 79, 64
9, 147240, Note_on_c, 7, 76, 36
9, 147360, Note_off_c, 7, 76, 64
9, 147360, Note_on_c, 7, 74, 36
9, 147480, Note_off_c, 7, 74, 64
9, 147480, Note_on_c, 7, 72, 36
9, 147600, Note_off_c, 7, 72, 64
9, 147600, Note_on_c, 7, 71, 36
9, 147720, Note_off_c, 7, 71, 64
9, 147720, Note_on_c, 7, 69, 36
9, 147840, Note_off_c, 7, 69, 64
9, 147840, Note_on_c, 7, 69, 36
9, 148320, Note_off_c, 7, 69, 64
9, 148320, Note_on_c, 7, 67, 31
9, 148800, Note_off_c, 7, 67, 64
9, 148800, Note_on_c, 7, 74, 29
9, 150240, Note_off_c, 7, 74, 64
9, 150240, Note_on_c, 7, 76, 24
9, 150720, Note_off_c, 7, 76, 64
9, 150720, Note_on_c, 7, 72, 29
9, 152160, Note_off_c, 7, 72, 64
9, 152160, Note_on_c, 7, 74, 24
9, 152640, Note_off_c, 7, 74, 64
9, 152640, Note_on_c, 7, 71, 26
9, 153720, Note_off_c, 7, 71, 64
9, 153720, Note_on_c, 7, 69, 23
9, 153840, Note_off_c, 7, 69, 64
9, 153840, Note_on_c, 7, 68, 27
9, 153960, Note_off_c, 7, 68, 64
9, 153960, Note_on_c, 7, 69, 27
9, 154080, Note_off_c, 7, 69, 64
9, 154080, Note_on_c, 7, 71, 27
9, 154200, Note_off_c, 7, 71, 64
9, 154200, Note_on_c, 7, 69, 27
9, 154320, Note_off_c, 7, 69, 64
9, 154320, Note_on_c, 7, 72, 27
9, 154500, Note_off_c, 7, 72, 64
9, 154500, Note_on_c, 7, 64, 27
9, 154680, Note_off_c, 7, 64, 64
9, 154680, Note_on_c, 7, 67, 27
9, 155220, Note_off_c, 7, 67, 64
9, 155220, Note_on_c, 7, 66, 23
9, 155700, Note_off_c, 7, 66, 64
9, 156600, Note_on_c, 7, 55, 29
9, 156640, Note_off_c, 7, 55, 64
9, 156640, Note_on_c, 7, 57, 29
9, 156680, Note_off_c, 7, 57, 64
9, 156680, Note_on_c, 7, 59, 29
9, 156720, Note_off_c, 7, 59, 64
9, 156720, Note_on_c, 7, 60, 29
9, 157200, Note_off_c, 7, 60, 64
9, 157560, Note_on_c, 7, 60, 29
9, 157620, Note_off_c, 7, 60, 64
9, 157620, Note_on_c, 7, 59, 29
9, 157680, Note_off_c, 7, 59, 64
9, 157680, Note_on_c, 7, 57, 29
9, 158160, Note_off_c, 7, 57, 64
9, 158520, Note_on_c, 7, 57, 29
9, 158560, Note_off_c, 7, 57, 64
9, 158560, Note_on_c, 7, 59, 29
9, 158600, Note_off_c, 7, 59, 64
9, 158600, Note_on_c, 7, 60, 29
9, 158640, Note_off_c, 7, 60, 64
9, 158640, Note_on_c, 7, 62, 29
9, 159120, Note_off_c, 7, 62, 64
9, 159480, Note_on_c, 7, 62, 29
9, 159540, Note_off_c, 7, 62, 64
9, 159540, Note_on_c, 7, 60, 29
9, 159600, Note_off_c, 7, 60, 64
9, 159600, Note_on_c, 7, 59, 29
9, 160080, Note_off_c, 7, 59, 64
9, 160440, Note_on_c, 7, 60, 29
9, 160500, Note_off_c, 7, 60, 64
9, 160500, Note_on_c, 7, 62, 29
9, 160560, Note_off_c, 7, 62, 64
9, 160560, Note_on_c, 7, 64, 29
9, 161040, Note_off_c, 7, 64, 64
9, 161400, Note_on_c, 7, 64, 29
9, 161460, Note_off_c, 7, 64, 64
9, 161460, Note_on_c, 7, 62, 29
9, 161520, Note_off_c, 7, 62, 64
9, 161520, Note_on_c, 7, 60, 29
9, 162000, Note_off_c, 7, 60, 64
9, 162360, Note_on_c, 7, 60, 29
9, 162400, Note_off_c, 7, 60, 64
9, 162400, Note_on_c, 7, 62, 29
9, 162440, Note_off_c, 7, 62, 64
9, 162440, Note_on_c, 7, 64, 29
9, 162480, Note_off_c, 7, 64, 64
9, 162480, Note_on_c, 7, 65, 29
9, 162960, Note_off_c, 7, 65, 64
9, 163320, Note_on_c, 7, 65, 29
9, 163380, Note_off_c, 7, 65, 64
9, 163380, Note_on_c, 7, 64, 29
9, 163440, Note_off_c, 7, 64, 64
9, 163440, Note_on_c, 7, 62, 32
9, 163680, Note_off_c, 7, 62, 64
9, 163680, Note_on_c, 7, 64, 33
9, 163800, Note_off_c, 7, 64, 64
9, 163800, Note_on_c, 7, 65, 33
9, 163920, Note_off_c, 7, 65, 64
9, 163920, Note_on_c, 7, 67, 34
9, 164016, Note_off_c, 7, 67, 64
9, 164160, Note_on_c, 7, 65, 36
9, 164256, Note_off_c, 7, 65, 64
9, 164400, Note_on_c, 7, 64, 38
9, 164640, Note_off_c, 7, 64, 64
9, 164640, Note_on_c, 7, 65, 39
9, 164760, Note_off_c, 7, 65, 64
9, 164760, Note_on_c, 7, 67, 40
9, 164880, Note_off_c, 7, 67, 64
9, 164880, Note_on_c, 7, 69, 41
9, 164976, Note_off_c, 7, 69, 64
9, 165120, Note_on_c, 7, 67, 41
9, 165216, Note_off_c, 7, 67, 64
9, 165360, Note_on_c, 7, 65, 43
9, 165600, Note_off_c, 7, 65, 64
9, 165600, Note_on_c, 7, 67, 45
9, 165720, Note_off_c, 7, 67, 64
9, 165720, Note_on_c, 7, 69, 45
9, 165840, Note_off_c, 7, 69, 64
9, 165840, Note_on_c, 7, 71, 46
9, 165936, Note_off_c, 7, 71, 64
9, 166080, Note_on_c, 7, 69, 48
9, 166176, Note_off_c, 7, 69, 64
9, 166320, Note_on_c, 7, 67, 50
9, 166560, Note_off_c, 7, 67, 64
9, 166560, Note_on_c, 7, 69, 50
9, 166680, Note_off_c, 7, 69, 64
9, 166680, Note_on_c, 7, 71, 51
9, 166800, Note_off_c, 7, 71, 64
9, 166800, Note_on_c, 7, 72, 52
9, 166896, Note_off_c, 7, 72, 64
9, 167040, Note_on_c, 7, 71, 53
9, 167136, Note_off_c, 7, 71, 64
9, 167280, Note_on_c, 7, 69, 55
9, 167520, Note_off_c, 7, 69, 64
9, 167520, Note_on_c, 7, 71, 57
9, 167640, Note_off_c, 7, 71, 64
9, 167640, Note_on_c, 7, 72, 57
9, 167760, Note_off_c, 7, 72, 64
9, 167760, Note_on_c, 7, 74, 58
9, 167856, Note_off_c, 7, 74, 64
9, 168000, Note_on_c, 7, 72, 59
9, 168096, Note_off_c, 7, 72, 64
9, 168240, Note_on_c, 7, 71, 61
9, 168480, Note_off_c, 7, 71, 64
9, 168480, Note_on_c, 7, 72, 62
9, 168600, Note_off_c, 7, 72, 64
9, 168600, Note_on_c, 7, 74, 63
9, 168720, Note_off_c, 7, 74, 64
9, 168720, Note_on_c, 7, 76, 64
9, 168816, Note_off_c, 7, 76, 64
9, 168960, Note_on_c, 7, 74, 65
9, 169056, Note_off_c, 7, 74, 64
9, 169200, Note_on_c, 7, 72, 67
9, 169440, Note_off_c, 7, 72, 64
9, 169440, Note_on_c, 7, 74, 68
9, 169560, Note_off_c, 7, 74, 64
9, 169560, Note_on_c, 7, 76, 68
9, 169680, Note_off_c, 7, 76, 64
9, 169680, Note_on_c, 7, 77, 69
9, 169776, Note_off_c, 7, 77, 64
9, 169920, Note_on_c, 7, 76, 71
9, 170016, Note_off_c, 7, 76, 64
9, 170160, Note_on_c, 7, 74, 73
9, 170400, Note_off_c, 7, 74, 64
9, 170400, Note_on_c, 7, 76, 74
9, 170520, Note_off_c, 7, 76, 64
9, 170520, Note_on_c, 7, 77, 75
9, 170640, Note_off_c, 7, 77, 64
9, 170640, Note_on_c, 7, 79, 76
9, 170736, Note_off_c, 7, 79, 64
9, 170880, Note_on_c, 7, 76, 77
9, 171000, Note_off_c, 7, 76, 64
9, 171000, Note_on_c, 7, 77, 77
9, 171120, Note_off_c, 7, 77, 64
9, 171120, Note_on_c, 7, 79, 78
9, 171216, Note_off_c, 7, 79, 64
9, 171360, Note_on_c, 7, 76, 80
9, 171480, Note_off_c, 7, 76, 64
9, 171480, Note_on_c, 7, 77, 80
9, 171600, Note_off_c, 7, 77, 64
9, 171600, Note_on_c, 7, 79, 81
9, 171696, Note_off_c, 7, 79, 64
9, 171840, Note_on_c, 7, 76, 93
9, 171960, Note_off_c, 7, 76, 64
9, 171960, Note_on_c, 7, 77, 94
9, 172080, Note_off_c, 7, 77, 64
9, 172080, Note_on_c, 7, 79, 95
9, 172176, Note_off_c, 7, 79, 64
9, 172320, Note_on_c, 7, 76, 107
9, 172440, Note_off_c, 7, 76, 64
9, 172440, Note_on_c, 7, 77, 109
9, 172560, Note_off_c, 7, 77, 64
9, 172560, Note_on_c, 7, 79, 95
9, 172656, Note_off_c, 7, 79, 64
9, 172800, Note_on_c, 7, 76, 107
9, 172920, Note_off_c, 7, 76, 64
9, 172920, Note_on_c, 7, 77, 109
9, 173040, Note_off_c, 7, 77, 64
9, 173040, Note_on_c, 7, 79, 108
9, 173136, Note_off_c, 7, 79, 64
9, 173280, Note_on_c, 7, 76, 108
9, 173400, Note_off_c, 7, 76, 64
9, 173400, Note_on_c, 7, 77, 108
9, 173520, Note_off_c, 7, 77, 64
9, 173520, Note_on_c, 7, 79, 108
9, 173616, Note_off_c, 7, 79, 64
9, 173760, Note_on_c, 7, 76, 108
9, 173880, Note_off_c, 7, 76, 64
9, 173880, Note_on_c, 7, 77, 108
9, 174000, Note_off_c, 7, 77, 64
9, 174000, Note_on_c, 7, 79, 108
9, 174864, Note_off_c, 7, 79, 64
9, 174960, Note_on_c, 7, 76, 89
9, 175200, Note_off_c, 7, 76, 64
9, 175200, Note_on_c, 7, 77, 89
9, 175320, Note_off_c, 7, 77, 64
9, 175320, Note_on_c, 7, 79, 89
9, 175440, Note_off_c, 7, 79, 64
9, 175440, Note_on_c, 7, 81, 109
9, 175536, Note_off_c, 7, 81, 64
9, 175680, Note_on_c, 7, 81, 89
9, 175776, Note_off_c, 7, 81, 64
9, 175920, Note_on_c, 7, 74, 89
9, 176160, Note_off_c, 7, 74, 64
9, 176160, Note_on_c, 7, 76, 89
9, 176280, Note_off_c, 7, 76, 64
9, 176280, Note_on_c, 7, 77, 89
9, 176400, Note_off_c, 7, 77, 64
9, 176400, Note_on_c, 7, 79, 109
9, 176496, Note_off_c, 7, 79, 64
9, 176640, Note_on_c, 7, 67, 89
9, 176736, Note_off_c, 7, 67, 64
9, 176880, Note_on_c, 7, 72, 89
9, 177120, Note_off_c, 7, 72, 64
9, 177120, Note_on_c, 7, 74, 89
9, 177240, Note_off_c, 7, 74, 64
9, 177240, Note_on_c, 7, 76, 89
9, 177360, Note_off_c, 7, 76, 64
9, 177360, Note_on_c, 7, 77, 109
9, 177456, Note_off_c, 7, 77, 64
9, 177600, Note_on_c, 7, 77, 89
9, 177696, Note_off_c, 7, 77, 64
9, 177840, Note_on_c, 7, 71, 89
9, 178080, Note_off_c, 7, 71, 64
9, 178080, Note_on_c, 7, 72, 89
9, 178200, Note_off_c, 7, 72, 64
9, 178200, Note_on_c, 7, 74, 89
9, 178320, Note_off_c, 7, 74, 64
9, 178320, Note_on_c, 7, 76, 109
9, 178416, Note_off_c, 7, 76, 64
9, 178560, Note_on_c, 7, 64, 89
9, 178656, Note_off_c, 7, 64, 64
9, 178800, Note_on_c, 7, 69, 89
9, 179040, Note_off_c, 7, 69, 64
9, 179040, Note_on_c, 7, 71, 89
9, 179160, Note_off_c, 7, 71, 64
9, 179160, Note_on_c, 7, 72, 89
9, 179280, Note_off_c, 7, 72, 64
9, 179280, Note_on_c, 7, 74, 109
9, 179376, Note_off_c, 7, 74, 64
9, 179520, Note_on_c, 7, 74, 89
9, 179616, Note_off_c, 7, 74, 64
9, 179760, Note_on_c, 7, 67, 89
9, 180000, Note_off_c, 7, 67, 64
9, 180000, Note_on_c, 7, 69, 89
9, 180120, Note_off_c, 7, 69, 64
9, 180120, Note_on_c, 7, 71, 89
9, 180240, Note_off_c, 7, 71, 64
9, 180240, Note_on_c, 7, 72, 89
9, 180480, Note_off_c, 7, 72, 64
9, 180480, Note_on_c, 7, 74, 89
9, 180600, Note_off_c, 7, 74, 64
9, 180600, Note_on_c, 7, 76, 89
9, 180720, Note_off_c, 7, 76, 64
9, 180720, Note_on_c, 7, 77, 89
9, 180816, Note_off_c, 7, 77, 64
9, 180960, Note_on_c, 7, 76, 89
9, 181056, Note_off_c, 7, 76, 64
9, 181080, Note_on_c, 7, 77, 89
9, 181176, Note_off_c, 7, 77, 64
9, 181200, Note_on_c, 7, 79, 109
9, 181296, Note_off_c, 7, 79, 64
9, 181440, Note_on_c, 7, 77, 89
9, 181536, Note_off_c, 7, 77, 64
9, 181680, Note_on_c, 7, 76, 89
9, 181776, Note_off_c, 7, 76, 64
9, 181920, Note_on_c, 7, 74, 89
9, 182016, Note_off_c, 7, 74, 64
9, 182040, Note_on_c, 7, 76, 89
9, 182136, Note_off_c, 7, 76, 64
9, 182160, Note_on_c, 7, 77, 109
9, 182256, Note_off_c, 7, 77, 64
9, 182400, Note_on_c, 7, 76, 89
9, 182496, Note_off_c, 7, 76, 64
9, 182640, Note_on_c, 7, 77, 89
9, 182736, Note_off_c, 7, 77, 64
9, 182880, Note_on_c, 7, 76, 89
9, 182976, Note_off_c, 7, 76, 64
9, 183000, Note_on_c, 7, 77, 89
9, 183096, Note_off_c, 7, 77, 64
9, 183120, Note_on_c, 7, 79, 109
9, 183216, Note_off_c, 7, 79, 64
9, 183360, Note_on_c, 7, 77, 89
9, 183456, Note_off_c, 7, 77, 64
9, 183600, Note_on_c, 7, 77, 89
9, 183696, Note_off_c, 7, 77, 64
9, 183720, Note_on_c, 7, 76, 89
9, 183816, Note_off_c, 7, 76, 64
9, 183840, Note_on_c, 7, 74, 89
9, 183936, Note_off_c, 7, 74, 64
9, 183960, Note_on_c, 7, 72, 89
9, 184056, Note_off_c, 7, 72, 64
9, 184080, Note_on_c, 7, 74, 89
9, 184176, Note_off_c, 7, 74, 64
9, 184200, Note_on_c, 7, 72, 89
9, 184296, Note_off_c, 7, 72, 64
9, 184320, Note_on_c, 7, 71, 89
9, 184416, Note_off_c, 7, 71, 64
9, 184440, Note_on_c, 7, 69, 89
9, 184536, Note_off_c, 7, 69, 64
9, 184560, Note_on_c, 7, 76, 89
9, 184656, Note_off_c, 7, 76, 64
9, 184680, Note_on_c, 7, 74, 89
9, 184776, Note_off_c, 7, 74, 64
9, 184800, Note_on_c, 7, 72, 89
9, 184896, Note_off_c, 7, 72, 64
9, 184920, Note_on_c, 7, 71, 89
9, 185016, Note_off_c, 7, 71, 64
9, 185040, Note_on_c, 7, 72, 89
9, 185136, Note_off_c, 7, 72, 64
9, 185160, Note_on_c, 7, 71, 89
9, 185256, Note_off_c, 7, 71, 64
9, 185280, Note_on_c, 7, 69, 89
9, 185376, Note_off_c, 7, 69, 64
9, 185400, Note_on_c, 7, 67, 89
9, 185496, Note_off_c, 7, 67, 64
9, 185520, Note_on_c, 7, 72, 89
9, 185616, Note_off_c, 7, 72, 64
9, 185640, Note_on_c, 7, 84, 89
9, 185736, Note_off_c, 7, 84, 64
9, 185760, Note_on_c, 7, 83, 89
9, 185856, Note_off_c, 7, 83, 64
9, 185880, Note_on_c, 7, 81, 89
9, 185976, Note_off_c, 7, 81, 64
9, 186000, Note_on_c, 7, 83, 89
9, 186096, Note_off_c, 7, 83, 64
9, 186120, Note_on_c, 7, 81, 89
9, 186216, Note_off_c, 7, 81, 64
9, 186240, Note_on_c, 7, 79, 89
9, 186336, Note_off_c, 7, 79, 64
9, 186360, Note_on_c, 7, 78, 89
9, 186456, Note_off_c, 7, 78, 64
9, 186480, Note_on_c, 7, 83, 89
9, 186576, Note_off_c, 7, 83, 64
9, 186600, Note_on_c, 7, 83, 89
9, 186696, Note_off_c, 7, 83, 64
9, 186720, Note_on_c, 7, 81, 89
9, 186816, Note_off_c, 7, 81, 64
9, 186840, Note_on_c, 7, 79, 89
9, 186936, Note_off_c, 7, 79, 64
9, 186960, Note_on_c, 7, 81, 89
9, 187056, Note_off_c, 7, 81, 64
9, 187080, Note_on_c, 7, 79, 89
9, 187176, Note_off_c, 7, 79, 64
9, 187200, Note_on_c, 7, 78, 89
9, 187296, Note_off_c, 7, 78, 64
9, 187320, Note_on_c, 7, 76, 89
9, 187416, Note_off_c, 7, 76, 64
9, 187440, Note_on_c, 7, 81, 89
9, 187536, Note_off_c, 7, 81, 64
9, 187560, Note_on_c, 7, 81, 89
9, 187656, Note_off_c, 7, 81, 64
9, 187680, Note_on_c, 7, 79, 89
9, 187776, Note_off_c, 7, 79, 64
9, 187800, Note_on_c, 7, 78, 89
9, 187896, Note_off_c, 7, 78, 64
9, 187920, Note_on_c, 7, 79, 89
9, 188016, Note_off_c, 7, 79, 64
9, 188040, Note_on_c, 7, 78, 89
9, 188136, Note_off_c, 7, 78, 64
9, 188160, Note_on_c, 7, 76, 89
9, 188256, Note_off_c, 7, 76, 64
9, 188280, Note_on_c, 7, 74, 89
9, 188376, Note_off_c, 7, 74, 64
9, 188400, Note_on_c, 7, 72, 89
9, 188496, Note_off_c, 7, 72, 64
9, 188520, Note_on_c, 7, 84, 89
9, 188616, Note_off_c, 7, 84, 64
9, 188640, Note_on_c, 7, 84, 89
9, 188736, Note_off_c, 7, 84, 64
9, 188760, Note_on_c, 7, 84, 89
9, 188856, Note_off_c, 7, 84, 64
9, 188880, Note_on_c, 7, 84, 89
9, 188976, Note_off_c, 7, 84, 64
9, 189000, Note_on_c, 7, 84, 89
9, 189096, Note_off_c, 7, 84, 64
9, 189120, Note_on_c, 7, 84, 89
9, 189216, Note_off_c, 7, 84, 64
9, 189240, Note_on_c, 7, 84, 89
9, 189336, Note_off_c, 7, 84, 64
9, 189360, Note_on_c, 7, 84, 89
9, 189456, Note_off_c, 7, 84, 64
9, 189480, Note_on_c, 7, 78, 89
9, 189576, Note_off_c, 7, 78, 64
9, 189600, Note_on_c, 7, 79, 89
9, 189696, Note_off_c, 7, 79, 64
9, 189720, Note_on_c, 7, 81, 89
9, 189816, Note_off_c, 7, 81, 64
9, 189840, Note_on_c, 7, 83, 89
9, 189936, Note_off_c, 7, 83, 64
9, 189960, Note_on_c, 7, 83, 89
9, 190056, Note_off_c, 7, 83, 64
9, 190080, Note_on_c, 7, 84, 89
9, 190176, Note_off_c, 7, 84, 64
9, 190200, Note_on_c, 7, 86, 89
9, 190296, Note_off_c, 7, 86, 64
9, 190320, Note_on_c, 7, 86, 89
9, 190416, Note_off_c, 7, 86, 64
9, 190440, Note_on_c, 7, 86, 89
9, 190536, Note_off_c, 7, 86, 64
9, 190560, Note_on_c, 7, 86, 89
9, 190656, Note_off_c, 7, 86, 64
9, 190680, Note_on_c, 7, 86, 89
9, 190776, Note_off_c, 7, 86, 64
9, 190800, Note_on_c, 7, 86, 89
9, 190896, Note_off_c, 7, 86, 64
9, 190920, Note_on_c, 7, 86, 89
9, 191016, Note_off_c, 7, 86, 64
9, 191040, Note_on_c, 7, 86, 89
9, 191136, Note_off_c, 7, 86, 64
9, 191160, Note_on_c, 7, 86, 89
9, 191256, Note_off_c, 7, 86, 64
9, 191280, Note_on_c, 7, 86, 89
9, 191376, Note_off_c, 7, 86, 64
9, 191400, Note_on_c, 7, 86, 89
9, 191496, Note_off_c, 7, 86, 64
9, 191520, Note_on_c, 7, 86, 89
9, 191616, Note_off_c, 7, 86, 64
9, 191640, Note_on_c, 7, 86, 89
9, 191736, Note_off_c, 7, 86, 64
9, 191760, Note_on_c, 7, 86, 89
9, 191856, Note_off_c, 7, 86, 64
9, 191880, Note_on_c, 7, 86, 89
9, 191976, Note_off_c, 7, 86, 64
9, 192000, Note_on_c, 7, 86, 89
9, 192096, Note_off_c, 7, 86, 64
9, 192120, Note_on_c, 7, 86, 89
9, 192216, Note_off_c, 7, 86, 64
9, 192240, Note_on_c, 7, 86, 89
9, 192336, Note_off_c, 7, 86, 64
9, 192360, Note_on_c, 7, 86, 89
9, 192456, Note_off_c, 7, 86, 64
9, 192480, Note_on_c, 7, 86, 89
9, 192576, Note_off_c, 7, 86, 64
9, 192600, Note_on_c, 7, 86, 89
9, 192696, Note_off_c, 7, 86, 64
9, 192720, Note_on_c, 7, 86, 89
9, 192816, Note_off_c, 7, 86, 64
9, 192840, Note_on_c, 7, 86, 89
9, 192936, Note_off_c, 7, 86, 64
9, 192960, Note_on_c, 7, 86, 89
9, 193056, Note_off_c, 7, 86, 64
9, 193080, Note_on_c, 7, 86, 89
9, 193176, Note_off_c, 7, 86, 64
9, 193200, Note_on_c, 7, 86, 89
9, 193296, Note_off_c, 7, 86, 64
9, 193320, Note_on_c, 7, 83, 89
9, 193416, Note_off_c, 7, 83, 64
9, 193440, Note_on_c, 7, 86, 89
9, 193536, Note_off_c, 7, 86, 64
9, 193560, Note_on_c, 7, 84, 89
9, 193656, Note_off_c, 7, 84, 64
9, 193680, Note_on_c, 7, 83, 89
9, 193776, Note_off_c, 7, 83, 64
9, 193800, Note_on_c, 7, 79, 89
9, 193896, Note_off_c, 7, 79, 64
9, 193920, Note_on_c, 7, 81, 89
9, 194016, Note_off_c, 7, 81, 64
9, 194040, Note_on_c, 7, 83, 89
9, 194136, Note_off_c, 7, 83, 64
9, 194160, Note_on_c, 7, 72, 72
9, 194640, Note_off_c, 7, 72, 64
9, 194640, Note_on_c, 7, 84, 72
9, 195504, Note_off_c, 7, 84, 64
9, 195600, Note_on_c, 7, 83, 72
9, 196464, Note_off_c, 7, 83, 64
9, 196560, Note_on_c, 7, 81, 72
9, 197424, Note_off_c, 7, 81, 64
9, 197520, Note_on_c, 7, 79, 72
9, 198384, Note_off_c, 7, 79, 64
9, 198480, Note_on_c, 7, 77, 72
9, 199344, Note_off_c, 7, 77, 64
9, 199440, Note_on_c, 7, 76, 72
9, 199824, Note_off_c, 7, 76, 64
9, 199920, Note_on_c, 7, 74, 89
9, 200016, Note_off_c, 7, 74, 64
9, 200040, Note_on_c, 7, 67, 89
9, 200136, Note_off_c, 7, 67, 64
9, 200160, Note_on_c, 7, 74, 89
9, 200256, Note_off_c, 7, 74, 64
9, 200280, Note_on_c, 7, 72, 89
9, 200376, Note_off_c, 7, 72, 64
9, 200400, Note_on_c, 7, 71, 89
9, 200496, Note_off_c, 7, 71, 64
9, 200520, Note_on_c, 7, 67, 89
9, 200616, Note_off_c, 7, 67, 64
9, 200640, Note_on_c, 7, 69, 89
9, 200736, Note_off_c, 7, 69, 64
9, 200760, Note_on_c, 7, 71, 89
9, 200856, Note_off_c, 7, 71, 64
9, 200880, Note_on_c, 7, 72, 89
9, 200976, Note_off_c, 7, 72, 64
9, 201000, Note_on_c, 7, 79, 89
9, 201096, Note_off_c, 7, 79, 64
9, 201120, Note_on_c, 7, 77, 89
9, 201216, Note_off_c, 7, 77, 64
9, 201240, Note_on_c, 7, 76, 89
9, 201336, Note_off_c, 7, 76, 64
9, 201360, Note_on_c, 7, 74, 89
9, 201456, Note_off_c, 7, 74, 64
9, 201480, Note_on_c, 7, 72, 89
9, 201576, Note_off_c, 7, 72, 64
9, 201600, Note_on_c, 7, 71, 89
9, 201696, Note_off_c, 7, 71, 64
9, 201720, Note_on_c, 7, 72, 89
9, 201816, Note_off_c, 7, 72, 64
9, 201840, Note_on_c, 7, 74, 89
9, 201936, Note_off_c, 7, 74, 64
9, 201960, Note_on_c, 7, 79, 89
9, 202056, Note_off_c, 7, 79, 64
9, 202080, Note_on_c, 7, 86, 89
9, 202176, Note_off_c, 7, 86, 64
9, 202200, Note_on_c, 7, 84, 89
9, 202296, Note_off_c, 7, 84, 64
9, 202320, Note_on_c, 7, 83, 89
9, 202416, Note_off_c, 7, 83, 64
9, 202440, Note_on_c, 7, 79, 89
9, 202536, Note_off_c, 7, 79, 64
9, 202560, Note_on_c, 7, 81, 89
9, 202656, Note_off_c, 7, 81, 64
9, 202680, Note_on_c, 7, 83, 89
9, 202776, Note_off_c, 7, 83, 64
9, 202800, Note_on_c, 7, 84, 89
9, 202896, Note_off_c, 7, 84, 64
9, 202920, Note_on_c, 7, 84, 89
9, 203016, Note_off_c, 7, 84, 64
9, 203040, Note_on_c, 7, 83, 89
9, 203136, Note_off_c, 7, 83, 64
9, 203160, Note_on_c, 7, 84, 89
9, 203256, Note_off_c, 7, 84, 64
9, 203280, Note_on_c, 7, 86, 109
9, 203730, Note_off_c, 7, 86, 64
9, 203760, Note_on_c, 7, 83, 89
9, 204000, Note_off_c, 7, 83, 64
9, 204000, Note_on_c, 7, 84, 89
9, 204120, Note_off_c, 7, 84, 64
9, 204120, Note_on_c, 7, 86, 89
9, 204240, Note_off_c, 7, 86, 64
9, 204240, Note_on_c, 7, 88, 109
9, 204336, Note_off_c, 7, 88, 64
9, 204480, Note_on_c, 7, 88, 89
9, 204576, Note_off_c, 7, 88, 64
9, 204720, Note_on_c, 7, 81, 89
9, 204960, Note_off_c, 7, 81, 64
9, 204960, Note_on_c, 7, 83, 89
9, 205080, Note_off_c, 7, 83, 64
9, 205080, Note_on_c, 7, 84, 89
9, 205200, Note_off_c, 7, 84, 64
9, 205200, Note_on_c, 7, 86, 109
9, 205296, Note_off_c, 7, 86, 64
9, 205440, Note_on_c, 7, 74, 89
9, 205536, Note_off_c, 7, 74, 64
9, 205680, Note_on_c, 7, 79, 89
9, 205920, Note_off_c, 7, 79, 64
9, 205920, Note_on_c, 7, 81, 89
9, 206040, Note_off_c, 7, 81, 64
9, 206040, Note_on_c, 7, 83, 89
9, 206160, Note_off_c, 7, 83, 64
9, 206160, Note_on_c, 7, 84, 109
9, 206256, Note_off_c, 7, 84, 64
9, 206400, Note_on_c, 7, 84, 89
9, 206496, Note_off_c, 7, 84, 64
9, 206640, Note_on_c, 7, 78, 89
9, 206880, Note_off_c, 7, 78, 64
9, 206880, Note_on_c, 7, 79, 89
9, 207000, Note_off_c, 7, 79, 64
9, 207000, Note_on_c, 7, 81, 89
9, 207120, Note_off_c, 7, 81, 64
9, 207120, Note_on_c, 7, 83, 109
9, 207216, Note_off_c, 7, 83, 64
9, 207360, Note_on_c, 7, 71, 89
9, 207456, Note_off_c, 7, 71, 64
9, 207600, Note_on_c, 7, 76, 89
9, 207840, Note_off_c, 7, 76, 64
9, 207840, Note_on_c, 7, 78, 89
9, 207960, Note_off_c, 7, 78, 64
9, 207960, Note_on_c, 7, 79, 89
9, 208080, Note_off_c, 7, 79, 64
9, 208080, Note_on_c, 7, 81, 109
9, 208176, Note_off_c, 7, 81, 64
9, 208320, Note_on_c, 7, 81, 89
9, 208416, Note_off_c, 7, 81, 64
9, 208560, Note_on_c, 7, 74, 89
9, 208800, Note_off_c, 7, 74, 64
9, 208800, Note_on_c, 7, 76, 89
9, 208920, Note_off_c, 7, 76, 64
9, 208920, Note_on_c, 7, 78, 89
9, 209040, Note_off_c, 7, 78, 64
9, 209040, Note_on_c, 7, 79, 89
9, 209280, Note_off_c, 7, 79, 64
9, 209280, Note_on_c, 7, 81, 89
9, 209400, Note_off_c, 7, 81, 64
9, 209400, Note_on_c, 7, 83, 89
9, 209520, Note_off_c, 7, 83, 64
9, 209520, Note_on_c, 7, 84, 89
9, 209616, Note_off_c, 7, 84, 64
9, 209760, Note_on_c, 7, 83, 89
9, 209856, Note_off_c, 7, 83, 64
9, 209880, Note_on_c, 7, 84, 89
9, 209976, Note_off_c, 7, 84, 64
9, 210000, Note_on_c, 7, 86, 109
9, 210096, Note_off_c, 7, 86, 64
9, 210240, Note_on_c, 7, 84, 89
9, 210336, Note_off_c, 7, 84, 64
9, 210480, Note_on_c, 7, 83, 89
9, 210576, Note_off_c, 7, 83, 64
9, 210720, Note_on_c, 7, 81, 89
9, 210816, Note_off_c, 7, 81, 64
9, 210840, Note_on_c, 7, 83, 89
9, 210936, Note_off_c, 7, 83, 64
9, 210960, Note_on_c, 7, 84, 109
9, 211056, Note_off_c, 7, 84, 64
9, 211200, Note_on_c, 7, 83, 89
9, 211296, Note_off_c, 7, 83, 64
9, 211440, Note_on_c, 7, 84, 89
9, 211536, Note_off_c, 7, 84, 64
9, 211680, Note_on_c, 7, 83, 89
9, 211776, Note_off_c, 7, 83, 64
9, 211800, Note_on_c, 7, 84, 89
9, 211896, Note_off_c, 7, 84, 64
9, 211920, Note_on_c, 7, 86, 109
9, 212016, Note_off_c, 7, 86, 64
9, 212160, Note_on_c, 7, 84, 89
9, 212256, Note_off_c, 7, 84, 64
9, 212400, Note_on_c, 7, 83, 89
9, 212496, Note_off_c, 7, 83, 64
9, 212640, Note_on_c, 7, 83, 89
9, 212736, Note_off_c, 7, 83, 64
9, 212760, Note_on_c, 7, 84, 89
9, 212856, Note_off_c, 7, 84, 64
9, 212880, Note_on_c, 7, 86, 89
9, 212976, Note_off_c, 7, 86, 64
9, 213120, Note_on_c, 7, 86, 89
9, 213216, Note_off_c, 7, 86, 64
9, 213240, Note_on_c, 7, 88, 89
9, 213336, Note_off_c, 7, 88, 64
9, 213360, Note_on_c, 7, 89, 89
9, 213456, Note_off_c, 7, 89, 64
9, 213480, Note_on_c, 7, 77, 89
9, 213576, Note_off_c, 7, 77, 64
9, 213600, Note_on_c, 7, 76, 89
9, 213696, Note_off_c, 7, 76, 64
9, 213720, Note_on_c, 7, 77, 89
9, 213816, Note_off_c, 7, 77, 64
9, 213840, Note_on_c, 7, 76, 89
9, 213936, Note_off_c, 7, 76, 64
9, 213960, Note_on_c, 7, 77, 89
9, 214056, Note_off_c, 7, 77, 64
9, 214080, Note_on_c, 7, 79, 89
9, 214176, Note_off_c, 7, 79, 64
9, 214200, Note_on_c, 7, 77, 89
9, 214296, Note_off_c, 7, 77, 64
9, 214320, Note_on_c, 7, 76, 89
9, 214416, Note_off_c, 7, 76, 64
9, 214440, Note_on_c, 7, 76, 89
9, 214536, Note_off_c, 7, 76, 64
9, 214560, Note_on_c, 7, 74, 89
9, 214656, Note_off_c, 7, 74, 64
9, 214680, Note_on_c, 7, 76, 89
9, 214776, Note_off_c, 7, 76, 64
9, 214800, Note_on_c, 7, 74, 89
9, 214896, Note_off_c, 7, 74, 64
9, 214920, Note_on_c, 7, 76, 89
9, 215016, Note_off_c, 7, 76, 64
9, 215040, Note_on_c, 7, 77, 89
9, 215136, Note_off_c, 7, 77, 64
9, 215160, Note_on_c, 7, 76, 89
9, 215256, Note_off_c, 7, 76, 64
9, 215280, Note_on_c, 7, 77, 114
9, 215376, Note_off_c, 7, 77, 64
9, 215400, Note_on_c, 7, 77, 114
9, 215496, Note_off_c, 7, 77, 64
9, 215520, Note_on_c, 7, 76, 114
9, 215616, Note_off_c, 7, 76, 64
9, 215640, Note_on_c, 7, 77, 114
9, 215736, Note_off_c, 7, 77, 64
9, 215760, Note_on_c, 7, 76, 114
9, 215856, Note_off_c, 7, 76, 64
9, 215880, Note_on_c, 7, 77, 114
9, 215976, Note_off_c, 7, 77, 64
9, 216000, Note_on_c, 7, 79, 114
9, 216096, Note_off_c, 7, 79, 64
9, 216120, Note_on_c, 7, 77, 114
9, 216216, Note_off_c, 7, 77, 64
9, 216240, Note_on_c, 7, 76, 114
9, 216336, Note_off_c, 7, 76, 64
9, 216360, Note_on_c, 7, 76, 114
9, 216456, Note_off_c, 7, 76, 64
9, 216480, Note_on_c, 7, 74, 114
9, 216576, Note_off_c, 7, 74, 64
9, 216600, Note_on_c, 7, 72, 114
9, 216696, Note_off_c, 7, 72, 64
9, 216720, Note_on_c, 7, 71, 114
9, 216816, Note_off_c, 7, 71, 64
9, 216840, Note_on_c, 7, 69, 114
9, 216936, Note_off_c, 7, 69, 64
9, 216960, Note_on_c, 7, 67, 114
9, 217056, Note_off_c, 7, 67, 64
9, 217080, Note_on_c, 7, 65, 114
9, 217176, Note_off_c, 7, 65, 64
9, 217200, Note_on_c, 7, 76, 114
9, 217296, Note_off_c, 7, 76, 64
9, 217320, Note_on_c, 7, 76, 114
9, 217416, Note_off_c, 7, 76, 64
9, 217440, Note_on_c, 7, 77, 114
9, 217536, Note_off_c, 7, 77, 64
9, 217560, Note_on_c, 7, 79, 114
9, 217656, Note_off_c, 7, 79, 64
9, 217680, Note_on_c, 7, 81, 114
9, 217776, Note_off_c, 7, 81, 64
9, 217800, Note_on_c, 7, 79, 114
9, 217896, Note_off_c, 7, 79, 64
9, 217920, Note_on_c, 7, 77, 114
9, 218016, Note_off_c, 7, 77, 64
9, 218040, Note_on_c, 7, 76, 114
9, 218136, Note_off_c, 7, 76, 64
9, 218160, Note_on_c, 7, 74, 114
9, 218256, Note_off_c, 7, 74, 64
9, 218280, Note_on_c, 7, 74, 114
9, 218376, Note_off_c, 7, 74, 64
9, 218400, Note_on_c, 7, 76, 114
9, 218496, Note_off_c, 7, 76, 64
9, 218520, Note_on_c, 7, 77, 114
9, 218616, Note_off_c, 7, 77, 64
9, 218640, Note_on_c, 7, 79, 114
9, 218736, Note_off_c, 7, 79, 64
9, 218760, Note_on_c, 7, 77, 114
9, 218856, Note_off_c, 7, 77, 64
9, 218880, Note_on_c, 7, 79, 114
9, 218976, Note_off_c, 7, 79, 64
9, 219000, Note_on_c, 7, 67, 114
9, 219096, Note_off_c, 7, 67, 64
9, 219120, Note_on_c, 7, 72, 114
9, 219216, Note_off_c, 7, 72, 64
9, 219240, Note_on_c, 7, 72, 114
9, 219336, Note_off_c, 7, 72, 64
9, 219360, Note_on_c, 7, 74, 114
9, 219456, Note_off_c, 7, 74, 64
9, 219480, Note_on_c, 7, 76, 114
9, 219576, Note_off_c, 7, 76, 64
9, 219600, Note_on_c, 7, 77, 114
9, 219696, Note_off_c, 7, 77, 64
9, 219720, Note_on_c, 7, 76, 114
9, 219816, Note_off_c, 7, 76, 64
9, 219840, Note_on_c, 7, 74, 114
9, 219936, Note_off_c, 7, 74, 64
9, 219960, Note_on_c, 7, 72, 114
9, 220056, Note_off_c, 7, 72, 64
9, 220080, Note_on_c, 7, 71, 114
9, 220176, Note_off_c, 7, 71, 64
9, 220200, Note_on_c, 7, 71, 114
9, 220296, Note_off_c, 7, 71, 64
9, 220320, Note_on_c, 7, 72, 114
9, 220416, Note_off_c, 7, 72, 64
9, 220440, Note_on_c, 7, 74, 114
9, 220536, Note_off_c, 7, 74, 64
9, 220560, Note_on_c, 7, 76, 114
9, 220656, Note_off_c, 7, 76, 64
9, 220680, Note_on_c, 7, 74, 114
9, 220776, Note_off_c, 7, 74, 64
9, 220800, Note_on_c, 7, 76, 114
9, 220896, Note_off_c, 7, 76, 64
9, 220920, Note_on_c, 7, 64, 114
9, 221016, Note_off_c, 7, 64, 64
9, 221040, Note_on_c, 7, 69, 114
9, 221136, Note_off_c, 7, 69, 64
9, 221160, Note_on_c, 7, 81, 114
9, 221256, Note_off_c, 7, 81, 64
9, 221280, Note_on_c, 7, 83, 114
9, 221376, Note_off_c, 7, 83, 64
9, 221400, Note_on_c, 7, 84, 114
9, 221496, Note_off_c, 7, 84, 64
9, 221520, Note_on_c, 7, 86, 114
9, 221616, Note_off_c, 7, 86, 64
9, 221640, Note_on_c, 7, 84, 114
9, 221736, Note_off_c, 7, 84, 64
9, 221760, Note_on_c, 7, 83, 114
9, 221856, Note_off_c, 7, 83, 64
9, 221880, Note_on_c, 7, 81, 114
9, 221976, Note_off_c, 7, 81, 64
9, 222000, Note_on_c, 7, 79, 114
9, 222096, Note_off_c, 7, 79, 64
9, 222120, Note_on_c, 7, 79, 114
9, 222216, Note_off_c, 7, 79, 64
9, 222240, Note_on_c, 7, 81, 114
9, 222336, Note_off_c, 7, 81, 64
9, 222360, Note_on_c, 7, 83, 114
9, 222456, Note_off_c, 7, 83, 64
9, 222480, Note_on_c, 7, 84, 114
9, 222576, Note_off_c, 7, 84, 64
9, 222600, Note_on_c, 7, 84, 114
9, 222696, Note_off_c, 7, 84, 64
9, 222720, Note_on_c, 7, 86, 114
9, 222816, Note_off_c, 7, 86, 64
9, 222840, Note_on_c, 7, 88, 114
9, 222936, Note_off_c, 7, 88, 64
9, 222960, Note_on_c, 7, 89, 89
9, 223056, Note_off_c, 7, 89, 64
9, 223080, Note_on_c, 7, 77, 89
9, 223176, Note_off_c, 7, 77, 64
9, 223200, Note_on_c, 7, 77, 89
9, 223296, Note_off_c, 7, 77, 64
9, 223320, Note_on_c, 7, 77, 89
9, 223416, Note_off_c, 7, 77, 64
9, 223440, Note_on_c, 7, 77, 89
9, 223536, Note_off_c, 7, 77, 64
9, 223560, Note_on_c, 7, 77, 89
9, 223656, Note_off_c, 7, 77, 64
9, 223680, Note_on_c, 7, 77, 89
9, 223776, Note_off_c, 7, 77, 64
9, 223800, Note_on_c, 7, 77, 89
9, 223896, Note_off_c, 7, 77, 64
9, 223920, Note_on_c, 7, 76, 89
9, 224016, Note_off_c, 7, 76, 64
9, 224040, Note_on_c, 7, 76, 89
9, 224136, Note_off_c, 7, 76, 64
9, 224160, Note_on_c, 7, 76, 89
9, 224256, Note_off_c, 7, 76, 64
9, 224280, Note_on_c, 7, 76, 89
9, 224376, Note_off_c, 7, 76, 64
9, 224400, Note_on_c, 7, 76, 89
9, 224496, Note_off_c, 7, 76, 64
9, 224520, Note_on_c, 7, 76, 89
9, 224616, Note_off_c, 7, 76, 64
9, 224640, Note_on_c, 7, 76, 89
9, 224736, Note_off_c, 7, 76, 64
9, 224760, Note_on_c, 7, 76, 89
9, 224856, Note_off_c, 7, 76, 64
9, 224880, Note_on_c, 7, 77, 89
9, 224976, Note_off_c, 7, 77, 64
9, 225000, Note_on_c, 7, 77, 89
9, 225096, Note_off_c, 7, 77, 64
9, 225120, Note_on_c, 7, 77, 89
9, 225216, Note_off_c, 7, 77, 64
9, 225240, Note_on_c, 7, 77, 89
9, 225336, Note_off_c, 7, 77, 64
9, 225360, Note_on_c, 7, 77, 89
9, 225456, Note_off_c, 7, 77, 64
9, 225480, Note_on_c, 7, 77, 89
9, 225576, Note_off_c, 7, 77, 64
9, 225600, Note_on_c, 7, 77, 89
9, 225696, Note_off_c, 7, 77, 64
9, 225720, Note_on_c, 7, 77, 89
9, 225816, Note_off_c, 7, 77, 64
9, 225840, Note_on_c, 7, 76, 89
9, 225936, Note_off_c, 7, 76, 64
9, 225960, Note_on_c, 7, 76, 89
9, 226056, Note_off_c, 7, 76, 64
9, 226080, Note_on_c, 7, 76, 89
9, 226176, Note_off_c, 7, 76, 64
9, 226200, Note_on_c, 7, 76, 89
9, 226296, Note_off_c, 7, 76, 64
9, 226320, Note_on_c, 7, 76, 89
9, 226416, Note_off_c, 7, 76, 64
9, 226440, Note_on_c, 7, 76, 89
9, 226536, Note_off_c, 7, 76, 64
9, 226560, Note_on_c, 7, 76, 89
9, 226656, Note_off_c, 7, 76, 64
9, 226680, Note_on_c, 7, 76, 89
9, 226776, Note_off_c, 7, 76, 64
9, 226800, Note_on_c, 7, 76, 127
9, 226896, Note_off_c, 7, 76, 64
9, 226920, Note_on_c, 7, 88, 89
9, 227016, Note_off_c, 7, 88, 64
9, 227040, Note_on_c, 7, 88, 89
9, 227136, Note_off_c, 7, 88, 64
9, 227160, Note_on_c, 7, 88, 89
9, 227256, Note_off_c, 7, 88, 64
9, 227280, Note_on_c, 7, 88, 89
9, 227376, Note_off_c, 7, 88, 64
9, 227400, Note_on_c, 7, 88, 89
9, 227496, Note_off_c, 7, 88, 64
9, 227520, Note_on_c, 7, 88, 89
9, 227616, Note_off_c, 7, 88, 64
9, 227640, Note_on_c, 7, 88, 89
9, 227736, Note_off_c, 7, 88, 64
9, 227760, Note_on_c, 7, 88, 127
9, 227856, Note_off_c, 7, 88, 64
9, 227880, Note_on_c, 7, 88, 89
9, 227976, Note_off_c, 7, 88, 64
9, 228000, Note_on_c, 7, 88, 89
9, 228096, Note_off_c, 7, 88, 64
9, 228120, Note_on_c, 7, 88, 89
9, 228216, Note_off_c, 7, 88, 64
9, 228240, Note_on_c, 7, 88, 89
9, 228336, Note_off_c, 7, 88, 64
9, 228360, Note_on_c, 7, 88, 89
9, 228456, Note_off_c, 7, 88, 64
9, 228480, Note_on_c, 7, 88, 89
9, 228576, Note_off_c, 7, 88, 64
9, 228600, Note_on_c, 7, 88, 89
9, 228696, Note_off_c, 7, 88, 64
9, 228720, Note_on_c, 7, 86, 127
9, 228816, Note_off_c, 7, 86, 64
9, 228840, Note_on_c, 7, 86, 89
9, 228936, Note_off_c, 7, 86, 64
9, 228960, Note_on_c, 7, 86, 89
9, 229056, Note_off_c, 7, 86, 64
9, 229080, Note_on_c, 7, 86, 89
9, 229176, Note_off_c, 7, 86, 64
9, 229200, Note_on_c, 7, 86, 89
9, 229296, Note_off_c, 7, 86, 64
9, 229320, Note_on_c, 7, 86, 89
9, 229416, Note_off_c, 7, 86, 64
9, 229440, Note_on_c, 7, 86, 89
9, 229536, Note_off_c, 7, 86, 64
9, 229560, Note_on_c, 7, 86, 89
9, 229656, Note_off_c, 7, 86, 64
9, 229680, Note_on_c, 7, 86, 127
9, 229776, Note_off_c, 7, 86, 64
9, 229800, Note_on_c, 7, 86, 89
9, 229896, Note_off_c, 7, 86, 64
9, 229920, Note_on_c, 7, 86, 89
9, 230016, Note_off_c, 7, 86, 64
9, 230040, Note_on_c, 7, 86, 89
9, 230136, Note_off_c, 7, 86, 64
9, 230160, Note_on_c, 7, 86, 89
9, 230256, Note_off_c, 7, 86, 64
9, 230280, Note_on_c, 7, 86, 89
9, 230376, Note_off_c, 7, 86, 64
9, 230400, Note_on_c, 7, 86, 89
9, 230496, Note_off_c, 7, 86, 64
9, 230520, Note_on_c, 7, 86, 89
9, 230616, Note_off_c, 7, 86, 64
9, 230640, Note_on_c, 7, 84, 127
9, 230736, Note_off_c, 7, 84, 64
9, 230760, Note_on_c, 7, 84, 89
9, 230856, Note_off_c, 7, 84, 64
9, 230880, Note_on_c, 7, 84, 89
9, 230976, Note_off_c, 7, 84, 64
9, 231000, Note_on_c, 7, 84, 89
9, 231096, Note_off_c, 7, 84, 64
9, 231120, Note_on_c, 7, 84, 89
9, 231216, Note_off_c, 7, 84, 64
9, 231240, Note_on_c, 7, 84, 89
9, 231336, Note_off_c, 7, 84, 64
9, 231360, Note_on_c, 7, 84, 89
9, 231456, Note_off_c, 7, 84, 64
9, 231480, Note_on_c, 7, 84, 89
9, 231576, Note_off_c, 7, 84, 64
9, 231600, Note_on_c, 7, 84, 89
9, 231696, Note_off_c, 7, 84, 64
9, 231720, Note_on_c, 7, 83, 89
9, 231816, Note_off_c, 7, 83, 64
9, 231840, Note_on_c, 7, 81, 89
9, 231936, Note_off_c, 7, 81, 64
9, 231960, Note_on_c, 7, 79, 89
9, 232056, Note_off_c, 7, 79, 64
9, 232080, Note_on_c, 7, 78, 89
9, 232176, Note_off_c, 7, 78, 64
9, 232200, Note_on_c, 7, 78, 89
9, 232296, Note_off_c, 7, 78, 64
9, 232320, Note_on_c, 7, 79, 89
9, 232416, Note_off_c, 7, 79, 64
9, 232440, Note_on_c, 7, 81, 89
9, 232536, Note_off_c, 7, 81, 64
9, 232560, Note_on_c, 7, 83, 54
9, 232944, Note_off_c, 7, 83, 64
9, 233640, Note_on_c, 7, 84, 54
9, 233736, Note_off_c, 7, 84, 64
9, 233760, Note_on_c, 7, 83, 54
9, 233856, Note_off_c, 7, 83, 64
9, 233880, Note_on_c, 7, 81, 54
9, 233976, Note_off_c, 7, 81, 64
9, 234000, Note_on_c, 7, 83, 54
9, 234096, Note_off_c, 7, 83, 64
9, 234120, Note_on_c, 7, 81, 54
9, 234216, Note_off_c, 7, 81, 64
9, 234240, Note_on_c, 7, 79, 54
9, 234336, Note_off_c, 7, 79, 64
9, 234360, Note_on_c, 7, 78, 54
9, 234456, Note_off_c, 7, 78, 64
9, 234480, Note_on_c, 7, 83, 54
9, 234864, Note_off_c, 7, 83, 64
9, 235560, Note_on_c, 7, 81, 54
9, 235656, Note_off_c, 7, 81, 64
9, 235680, Note_on_c, 7, 79, 54
9, 235776, Note_off_c, 7, 79, 64
9, 235800, Note_on_c, 7, 78, 54
9, 235896, Note_off_c, 7, 78, 64
9, 235920, Note_on_c, 7, 79, 54
9, 236016, Note_off_c, 7, 79, 64
9, 236040, Note_on_c, 7, 78, 54
9, 236136, Note_off_c, 7, 78, 64
9, 236160, Note_on_c, 7, 76, 54
9, 236256, Note_off_c, 7, 76, 64
9, 236280, Note_on_c, 7, 74, 54
9, 236376, Note_off_c, 7, 74, 64
9, 236400, Note_on_c, 7, 79, 54
9, 236784, Note_off_c, 7, 79, 64
9, 237480, Note_on_c, 7, 84, 54
9, 237576, Note_off_c, 7, 84, 64
9, 237600, Note_on_c, 7, 83, 54
9, 237696, Note_off_c, 7, 83, 64
9, 237720, Note_on_c, 7, 81, 54
9, 237816, Note_off_c, 7, 81, 64
9, 237840, Note_on_c, 7, 83, 54
9, 237936, Note_off_c, 7, 83, 64
9, 237960, Note_on_c, 7, 74, 54
9, 238056, Note_off_c, 7, 74, 64
9, 238080, Note_on_c, 7, 74, 54
9, 238176, Note_off_c, 7, 74, 64
9, 238200, Note_on_c, 7, 74, 54
9, 238296, Note_off_c, 7, 74, 64
9, 238320, Note_on_c, 7, 74, 50
9, 238416, Note_off_c, 7, 74, 64
9, 238440, Note_on_c, 7, 74, 50
9, 238536, Note_off_c, 7, 74, 64
9, 238560, Note_on_c, 7, 74, 50
9, 238656, Note_off_c, 7, 74, 64
9, 238680, Note_on_c, 7, 74, 50
9, 238776, Note_off_c, 7, 74, 64
9, 238800, Note_on_c, 7, 74, 50
9, 238896, Note_off_c, 7, 74, 64
9, 238920, Note_on_c, 7, 74, 50
9, 239016, Note_off_c, 7, 74, 64
9, 239040, Note_on_c, 7, 74, 50
9, 239136, Note_off_c, 7, 74, 64
9, 239160, Note_on_c, 7, 74, 50
9, 239256, Note_off_c, 7, 74, 64
9, 239280, Note_on_c, 7, 74, 50
9, 239376, Note_off_c, 7, 74, 64
9, 239400, Note_on_c, 7, 74, 50
9, 239496, Note_off_c, 7, 74, 64
9, 239520, Note_on_c, 7, 74, 50
9, 239616, Note_off_c, 7, 74, 64
9, 239640, Note_on_c, 7, 74, 50
9, 239736, Note_off_c, 7, 74, 64
9, 239760, Note_on_c, 7, 74, 50
9, 239856, Note_off_c, 7, 74, 64
9, 239880, Note_on_c, 7, 74, 50
9, 239976, Note_off_c, 7, 74, 64
9, 240000, Note_on_c, 7, 74, 50
9, 240096, Note_off_c, 7, 74, 64
9, 240120, Note_on_c, 7, 74, 50
9, 240216, Note_off_c, 7, 74, 64
9, 240240, Note_on_c, 7, 74, 50
9, 240336, Note_off_c, 7, 74, 64
9, 240360, Note_on_c, 7, 79, 50
9, 240456, Note_off_c, 7, 79, 64
9, 240480, Note_on_c, 7, 79, 50
9, 240576, Note_off_c, 7, 79, 64
9, 240600, Note_on_c, 7, 79, 50
9, 240696, Note_off_c, 7, 79, 64
9, 240720, Note_on_c, 7, 79, 50
9, 240816, Note_off_c, 7, 79, 64
9, 240840, Note_on_c, 7, 79, 50
9, 240936, Note_off_c, 7, 79, 64
9, 240960, Note_on_c, 7, 79, 50
9, 241056, Note_off_c, 7, 79, 64
9, 241080, Note_on_c, 7, 79, 50
9, 241176, Note_off_c, 7, 79, 64
9, 241200, Note_on_c, 7, 79, 50
9, 241296, Note_off_c, 7, 79, 64
9, 241320, Note_on_c, 7, 79, 50
9, 241416, Note_off_c, 7, 79, 64
9, 241440, Note_on_c, 7, 79, 50
9, 241536, Note_off_c, 7, 79, 64
9, 241560, Note_on_c, 7, 79, 50
9, 241656, Note_off_c, 7, 79, 64
9, 241680, Note_on_c, 7, 79, 50
9, 241776, Note_off_c, 7, 79, 64
9, 241800, Note_on_c, 7, 79, 50
9, 241896, Note_off_c, 7, 79, 64
9, 241920, Note_on_c, 7, 79, 50
9, 242016, Note_off_c, 7, 79, 64
9, 242040, Note_on_c, 7, 79, 50
9, 242136, Note_off_c, 7, 79, 64
9, 242160, Note_on_c, 7, 79, 50
9, 242256, Note_off_c, 7, 79, 64
9, 242280, Note_on_c, 7, 79, 50
9, 242376, Note_off_c, 7, 79, 64
9, 242400, Note_on_c, 7, 79, 50
9, 242496, Note_off_c, 7, 79, 64
9, 242520, Note_on_c, 7, 79, 50
9, 242616, Note_off_c, 7, 79, 64
9, 242640, Note_on_c, 7, 79, 50
9, 242736, Note_off_c, 7, 79, 64
9, 242760, Note_on_c, 7, 79, 50
9, 242856, Note_off_c, 7, 79, 64
9, 242880, Note_on_c, 7, 79, 50
9, 242976, Note_off_c, 7, 79, 64
9, 243000, Note_on_c, 7, 79, 50
9, 243096, Note_off_c, 7, 79, 64
9, 243120, Note_on_c, 7, 79, 50
9, 243192, Note_off_c, 7, 79, 64
9, 243240, Note_on_c, 7, 81, 50
9, 243312, Note_off_c, 7, 81, 64
9, 243360, Note_on_c, 7, 79, 50
9, 243432, Note_off_c, 7, 79, 64
9, 243480, Note_on_c, 7, 77, 50
9, 243552, Note_off_c, 7, 77, 64
9, 243600, Note_on_c, 7, 76, 50
9, 243672, Note_off_c, 7, 76, 64
9, 243720, Note_on_c, 7, 74, 50
9, 243792, Note_off_c, 7, 74, 64
9, 243840, Note_on_c, 7, 72, 50
9, 243912, Note_off_c, 7, 72, 64
9, 243960, Note_on_c, 7, 70, 50
9, 244032, Note_off_c, 7, 70, 64
9, 244080, Note_on_c, 7, 69, 29
9, 244464, Note_off_c, 7, 69, 64
9, 245528, Control_c, 7, 7, 33
9, 245548, Control_c, 7, 7, 34
9, 245568, Control_c, 7, 7, 35
9, 245588, Control_c, 7, 7, 36
9, 245600, Control_c, 7, 7, 37
9, 245620, Control_c, 7, 7, 38
9, 245640, Control_c, 7, 7, 39
9, 245648, Control_c, 7, 7, 40
9, 245668, Control_c, 7, 7, 41
9, 245688, Control_c, 7, 7, 42
9, 245700, Control_c, 7, 7, 43
9, 245720, Control_c, 7, 7, 44
9, 245740, Control_c, 7, 7, 45
9, 245748, Control_c, 7, 7, 46
9, 245768, Control_c, 7, 7, 47
9, 245788, Control_c, 7, 7, 48
9, 245800, Control_c, 7, 7, 49
9, 245820, Control_c, 7, 7, 50
9, 245840, Control_c, 7, 7, 51
9, 245848, Control_c, 7, 7, 52
9, 245868, Control_c, 7, 7, 53
9, 245888, Control_c, 7, 7, 54
9, 245908, Control_c, 7, 7, 55
9, 245920, Control_c, 7, 7, 56
9, 245940, Control_c, 7, 7, 57
9, 245960, Control_c, 7, 7, 58
9, 245968, Control_c, 7, 7, 59
9, 245988, Control_c, 7, 7, 60
9, 246000, Note_on_c, 7, 84, 36
9, 246008, Control_c, 7, 7, 61
9, 246020, Control_c, 7, 7, 62
9, 246040, Control_c, 7, 7, 63
9, 246060, Control_c, 7, 7, 64
9, 246068, Control_c, 7, 7, 65
9, 246088, Control_c, 7, 7, 66
9, 246108, Control_c, 7, 7, 67
9, 246120, Control_c, 7, 7, 68
9, 246140, Control_c, 7, 7, 69
9, 246160, Control_c, 7, 7, 70
9, 246168, Control_c, 7, 7, 71
9, 246188, Control_c, 7, 7, 72
9, 246208, Control_c, 7, 7, 73
9, 246228, Control_c, 7, 7, 74
9, 246240, Control_c, 7, 7, 75
9, 246260, Control_c, 7, 7, 76
9, 246280, Control_c, 7, 7, 77
9, 246288, Control_c, 7, 7, 78
9, 246308, Control_c, 7, 7, 79
9, 246328, Control_c, 7, 7, 80
9, 246340, Control_c, 7, 7, 81
9, 246360, Control_c, 7, 7, 82
9, 246380, Control_c, 7, 7, 83
9, 246388, Control_c, 7, 7, 84
9, 246408, Control_c, 7, 7, 85
9, 246428, Control_c, 7, 7, 86
9, 246440, Control_c, 7, 7, 87
9, 246460, Control_c, 7, 7, 88
9, 246480, Control_c, 7, 7, 89
9, 246488, Control_c, 7, 7, 90
9, 246912, Note_off_c, 7, 84, 64
9, 246960, Note_on_c, 7, 81, 45
9, 247200, Note_off_c, 7, 81, 64
9, 247200, Note_on_c, 7, 82, 45
9, 247320, Note_off_c, 7, 82, 64
9, 247320, Note_on_c, 7, 84, 45
9, 247440, Note_off_c, 7, 84, 64
9, 247440, Note_on_c, 7, 86, 45
9, 247536, Note_off_c, 7, 86, 64
9, 247680, Note_on_c, 7, 86, 45
9, 247776, Note_off_c, 7, 86, 64
9, 247920, Note_on_c, 7, 79, 45
9, 248160, Note_off_c, 7, 79, 64
9, 248160, Note_on_c, 7, 81, 45
9, 248280, Note_off_c, 7, 81, 64
9, 248280, Note_on_c, 7, 82, 45
9, 248400, Note_off_c, 7, 82, 64
9, 248400, Note_on_c, 7, 84, 45
9, 248496, Note_off_c, 7, 84, 64
9, 248640, Note_on_c, 7, 72, 45
9, 248736, Note_off_c, 7, 72, 64
9, 248880, Note_on_c, 7, 77, 45
9, 249120, Note_off_c, 7, 77, 64
9, 249120, Note_on_c, 7, 79, 45
9, 249240, Note_off_c, 7, 79, 64
9, 249240, Note_on_c, 7, 81, 45
9, 249360, Note_off_c, 7, 81, 64
9, 249360, Note_on_c, 7, 82, 45
9, 249456, Note_off_c, 7, 82, 64
9, 249600, Note_on_c, 7, 82, 45
9, 249696, Note_off_c, 7, 82, 64
9, 249840, Note_on_c, 7, 76, 45
9, 250080, Note_off_c, 7, 76, 64
9, 250080, Note_on_c, 7, 77, 45
9, 250200, Note_off_c, 7, 77, 64
9, 250200, Note_on_c, 7, 79, 45
9, 250320, Note_off_c, 7, 79, 64
9, 250320, Note_on_c, 7, 81, 45
9, 250416, Note_off_c, 7, 81, 64
9, 250560, Note_on_c, 7, 69, 45
9, 250656, Note_off_c, 7, 69, 64
9, 250800, Note_on_c, 7, 74, 45
9, 251040, Note_off_c, 7, 74, 64
9, 251040, Note_on_c, 7, 76, 45
9, 251160, Note_off_c, 7, 76, 64
9, 251160, Note_on_c, 7, 77, 45
9, 251280, Note_off_c, 7, 77, 64
9, 251280, Note_on_c, 7, 79, 45
9, 251376, Note_off_c, 7, 79, 64
9, 251520, Note_on_c, 7, 79, 45
9, 251616, Note_off_c, 7, 79, 64
9, 251760, Note_on_c, 7, 72, 34
9, 252000, Note_off_c, 7, 72, 64
9, 252000, Note_on_c, 7, 74, 34
9, 252120, Note_off_c, 7, 74, 64
9, 252120, Note_on_c, 7, 76, 34
9, 252240, Note_off_c, 7, 76, 64
9, 252240, Note_on_c, 7, 77, 34
9, 252480, Note_off_c, 7, 77, 64
9, 252480, Note_on_c, 7, 79, 34
9, 252600, Note_off_c, 7, 79, 64
9, 252600, Note_on_c, 7, 81, 34
9, 252720, Note_off_c, 7, 81, 64
9, 252720, Note_on_c, 7, 82, 34
9, 252816, Note_off_c, 7, 82, 64
9, 252960, Note_on_c, 7, 81, 34
9, 253056, Note_off_c, 7, 81, 64
9, 253080, Note_on_c, 7, 82, 34
9, 253176, Note_off_c, 7, 82, 64
9, 253200, Note_on_c, 7, 84, 34
9, 253296, Note_off_c, 7, 84, 64
9, 253440, Note_on_c, 7, 82, 34
9, 253536, Note_off_c, 7, 82, 64
9, 253680, Note_on_c, 7, 81, 34
9, 254130, Note_off_c, 7, 81, 64
9, 254640, Note_on_c, 7, 82, 34
9, 254736, Note_off_c, 7, 82, 64
9, 254880, Note_on_c, 7, 81, 34
9, 254976, Note_off_c, 7, 81, 64
9, 255000, Note_on_c, 7, 82, 34
9, 255096, Note_off_c, 7, 82, 64
9, 255120, Note_on_c, 7, 84, 34
9, 255216, Note_off_c, 7, 84, 64
9, 255360, Note_on_c, 7, 82, 34
9, 255456, Note_off_c, 7, 82, 64
9, 255600, Note_on_c, 7, 81, 34
9, 256050, Note_off_c, 7, 81, 64
9, 256560, Note_on_c, 7, 81, 34
9, 256656, Note_off_c, 7, 81, 64
9, 256800, Note_on_c, 7, 79, 34
9, 256896, Note_off_c, 7, 79, 64
9, 256920, Note_on_c, 7, 81, 34
9, 257016, Note_off_c, 7, 81, 64
9, 257040, Note_on_c, 7, 82, 34
9, 257136, Note_off_c, 7, 82, 64
9, 257280, Note_on_c, 7, 81, 34
9, 257376, Note_off_c, 7, 81, 64
9, 257520, Note_on_c, 7, 79, 34
9, 257970, Note_off_c, 7, 79, 64
9, 258480, Note_on_c, 7, 79, 34
9, 258576, Note_off_c, 7, 79, 64
9, 258720, Note_on_c, 7, 78, 34
9, 258816, Note_off_c, 7, 78, 64
9, 258840, Note_on_c, 7, 79, 34
9, 258936, Note_off_c, 7, 79, 64
9, 258960, Note_on_c, 7, 81, 34
9, 259056, Note_off_c, 7, 81, 64
9, 259200, Note_on_c, 7, 79, 34
9, 259296, Note_off_c, 7, 79, 64
9, 259440, Note_on_c, 7, 77, 34
9, 259890, Note_off_c, 7, 77, 64
9, 260400, Note_on_c, 7, 79, 34
9, 260496, Note_off_c, 7, 79, 64
9, 260640, Note_on_c, 7, 78, 34
9, 260736, Note_off_c, 7, 78, 64
9, 260760, Note_on_c, 7, 79, 34
9, 260856, Note_off_c, 7, 79, 64
9, 260880, Note_on_c, 7, 81, 34
9, 260976, Note_off_c, 7, 81, 64
9, 261120, Note_on_c, 7, 79, 34
9, 261216, Note_off_c, 7, 79, 64
9, 261360, Note_on_c, 7, 77, 34
9, 261810, Note_off_c, 7, 77, 64
9, 262320, Note_on_c, 7, 77, 39
9, 262368, Note_off_c, 7, 77, 64
9, 262440, Note_on_c, 7, 86, 39
9, 262488, Note_off_c, 7, 86, 64
9, 262560, Note_on_c, 7, 84, 39
9, 262608, Note_off_c, 7, 84, 64
9, 262680, Note_on_c, 7, 83, 39
9, 262728, Note_off_c, 7, 83, 64
9, 262800, Note_on_c, 7, 81, 39
9, 262848, Note_off_c, 7, 81, 64
9, 262920, Note_on_c, 7, 79, 39
9, 262968, Note_off_c, 7, 79, 64
9, 263040, Note_on_c, 7, 81, 39
9, 263088, Note_off_c, 7, 81, 64
9, 263160, Note_on_c, 7, 83, 39
9, 263208, Note_off_c, 7, 83, 64
9, 263280, Note_on_c, 7, 84, 29
9, 263730, Note_off_c, 7, 84, 64
9, 264240, Note_on_c, 7, 86, 39
9, 264288, Note_off_c, 7, 86, 64
9, 264360, Note_on_c, 7, 86, 39
9, 264408, Note_off_c, 7, 86, 64
9, 264480, Note_on_c, 7, 84, 39
9, 264528, Note_off_c, 7, 84, 64
9, 264600, Note_on_c, 7, 83, 39
9, 264648, Note_off_c, 7, 83, 64
9, 264720, Note_on_c, 7, 81, 39
9, 264768, Note_off_c, 7, 81, 64
9, 264840, Note_on_c, 7, 79, 39
9, 264888, Note_off_c, 7, 79, 64
9, 264960, Note_on_c, 7, 81, 39
9, 265008, Note_off_c, 7, 81, 64
9, 265080, Note_on_c, 7, 83, 39
9, 265128, Note_off_c, 7, 83, 64
9, 265200, Note_on_c, 7, 84, 25
9, 265296, Note_off_c, 7, 84, 64
9, 265320, Note_on_c, 7, 76, 25
9, 265416, Note_off_c, 7, 76, 64
9, 265440, Note_on_c, 7, 76, 25
9, 265536, Note_off_c, 7, 76, 64
9, 265560, Note_on_c, 7, 76, 25
9, 265656, Note_off_c, 7, 76, 64
9, 265680, Note_on_c, 7, 76, 25
9, 265776, Note_off_c, 7, 76, 64
9, 265800, Note_on_c, 7, 76, 25
9, 265896, Note_off_c, 7, 76, 64
9, 265920, Note_on_c, 7, 76, 25
9, 266016, Note_off_c, 7, 76, 64
9, 266040, Note_on_c, 7, 76, 25
9, 266136, Note_off_c, 7, 76, 64
9, 266160, Note_on_c, 7, 76, 25
9, 266256, Note_off_c, 7, 76, 64
9, 266280, Note_on_c, 7, 76, 25
9, 266376, Note_off_c, 7, 76, 64
9, 266400, Note_on_c, 7, 76, 25
9, 266496, Note_off_c, 7, 76, 64
9, 266520, Note_on_c, 7, 76, 25
9, 266616, Note_off_c, 7, 76, 64
9, 266640, Note_on_c, 7, 76, 25
9, 266736, Note_off_c, 7, 76, 64
9, 266760, Note_on_c, 7, 76, 25
9, 266856, Note_off_c, 7, 76, 64
9, 266880, Note_on_c, 7, 76, 25
9, 266976, Note_off_c, 7, 76, 64
9, 267000, Note_on_c, 7, 76, 25
9, 267096, Note_off_c, 7, 76, 64
9, 267120, Note_on_c, 7, 74, 25
9, 267216, Note_off_c, 7, 74, 64
9, 267240, Note_on_c, 7, 74, 25
9, 267336, Note_off_c, 7, 74, 64
9, 267360, Note_on_c, 7, 74, 25
9, 267456, Note_off_c, 7, 74, 64
9, 267480, Note_on_c, 7, 74, 25
9, 267576, Note_off_c, 7, 74, 64
9, 267600, Note_on_c, 7, 74, 25
9, 267696, Note_off_c, 7, 74, 64
9, 267720, Note_on_c, 7, 74, 25
9, 267816, Note_off_c, 7, 74, 64
9, 267840, Note_on_c, 7, 74, 25
9, 267936, Note_off_c, 7, 74, 64
9, 267960, Note_on_c, 7, 74, 25
9, 268056, Note_off_c, 7, 74, 64
9, 268080, Note_on_c, 7, 72, 22
9, 268176, Note_off_c, 7, 72, 64
9, 268200, Note_on_c, 7, 72, 22
9, 268296, Note_off_c, 7, 72, 64
9, 268320, Note_on_c, 7, 72, 22
9, 268416, Note_off_c, 7, 72, 64
9, 268440, Note_on_c, 7, 72, 22
9, 268536, Note_off_c, 7, 72, 64
9, 268560, Note_on_c, 7, 72, 22
9, 268656, Note_off_c, 7, 72, 64
9, 268680, Note_on_c, 7, 72, 22
9, 268776, Note_off_c, 7, 72, 64
9, 268800, Note_on_c, 7, 72, 22
9, 268896, Note_off_c, 7, 72, 64
9, 268920, Note_on_c, 7, 72, 22
9, 269016, Note_off_c, 7, 72, 64
9, 269040, Note_on_c, 7, 71, 18
9, 269424, Note_off_c, 7, 71, 64
9, 271440, Control_c, 7, 7, 33
9, 271468, Control_c, 7, 7, 34
9, 271488, Control_c, 7, 7, 35
9, 271520, Control_c, 7, 7, 36
9, 271540, Control_c, 7, 7, 37
9, 271560, Control_c, 7, 7, 38
9, 271588, Control_c, 7, 7, 39
9, 271608, Control_c, 7, 7, 40
9, 271640, Control_c, 7, 7, 41
9, 271660, Control_c, 7, 7, 42
9, 271680, Control_c, 7, 7, 43
9, 271708, Control_c, 7, 7, 44
9, 271728, Control_c, 7, 7, 45
9, 271760, Control_c, 7, 7, 46
9, 271780, Control_c, 7, 7, 47
9, 271800, Control_c, 7, 7, 48
9, 271828, Control_c, 7, 7, 49
9, 271848, Control_c, 7, 7, 50
9, 271880, Control_c, 7, 7, 51
9, 271900, Control_c, 7, 7, 52
9, 271920, Control_c, 7, 7, 53
9, 271920, Note_on_c, 7, 76, 36
9, 271948, Control_c, 7, 7, 54
9, 271968, Control_c, 7, 7, 55
9, 272000, Control_c, 7, 7, 56
9, 272020, Control_c, 7, 7, 57
9, 272040, Control_c, 7, 7, 58
9, 272068, Control_c, 7, 7, 59
9, 272088, Control_c, 7, 7, 60
9, 272120, Control_c, 7, 7, 61
9, 272140, Control_c, 7, 7, 62
9, 272160, Control_c, 7, 7, 63
9, 272188, Control_c, 7, 7, 64
9, 272208, Control_c, 7, 7, 65
9, 272240, Control_c, 7, 7, 66
9, 272260, Control_c, 7, 7, 67
9, 272280, Control_c, 7, 7, 68
9, 272308, Control_c, 7, 7, 69
9, 272328, Control_c, 7, 7, 70
9, 272360, Control_c, 7, 7, 71
9, 272380, Control_c, 7, 7, 72
9, 272400, Control_c, 7, 7, 73
9, 272428, Control_c, 7, 7, 74
9, 272448, Control_c, 7, 7, 75
9, 272480, Control_c, 7, 7, 76
9, 272500, Control_c, 7, 7, 77
9, 272520, Control_c, 7, 7, 78
9, 272548, Control_c, 7, 7, 79
9, 272568, Control_c, 7, 7, 80
9, 272600, Control_c, 7, 7, 81
9, 272620, Control_c, 7, 7, 82
9, 272640, Control_c, 7, 7, 83
9, 272668, Control_c, 7, 7, 84
9, 272688, Control_c, 7, 7, 85
9, 272720, Control_c, 7, 7, 86
9, 272740, Control_c, 7, 7, 87
9, 272760, Control_c, 7, 7, 88
9, 272788, Control_c, 7, 7, 89
9, 272808, Control_c, 7, 7, 90
9, 272840, Control_c, 7, 7, 91
9, 272860, Control_c, 7, 7, 92
9, 272880, Control_c, 7, 7, 93
9, 273840, Note_off_c, 7, 76, 64
9, 273840, Note_on_c, 7, 72, 32
9, 274080, Note_off_c, 7, 72, 64
9, 274080, Note_on_c, 7, 74, 32
9, 274200, Note_off_c, 7, 74, 64
9, 274200, Note_on_c, 7, 76, 32
9, 274320, Note_off_c, 7, 76, 64
9, 274320, Note_on_c, 7, 77, 32
9, 274416, Note_off_c, 7, 77, 64
9, 274560, Note_on_c, 7, 77, 32
9, 274656, Note_off_c, 7, 77, 64
9, 274800, Note_on_c, 7, 74, 32
9, 275760, Note_off_c, 7, 74, 64
9, 275760, Note_on_c, 7, 71, 32
9, 276000, Note_off_c, 7, 71, 64
9, 276000, Note_on_c, 7, 72, 32
9, 276120, Note_off_c, 7, 72, 64
9, 276120, Note_on_c, 7, 74, 32
9, 276240, Note_off_c, 7, 74, 64
9, 276240, Note_on_c, 7, 76, 32
9, 276336, Note_off_c, 7, 76, 64
9, 276480, Note_on_c, 7, 76, 32
9, 276576, Note_off_c, 7, 76, 64
9, 276720, Note_on_c, 7, 76, 40
9, 277920, Note_off_c, 7, 76, 64
9, 277920, Note_on_c, 7, 78, 40
9, 278040, Note_off_c, 7, 78, 64
9, 278040, Note_on_c, 7, 79, 40
9, 278160, Note_off_c, 7, 79, 64
9, 278160, Note_on_c, 7, 81, 40
9, 278256, Note_off_c, 7, 81, 64
9, 278400, Note_on_c, 7, 81, 40
9, 278496, Note_off_c, 7, 81, 64
9, 278640, Note_on_c, 7, 81, 40
9, 279120, Note_off_c, 7, 81, 64
9, 279600, Note_on_c, 7, 81, 40
9, 279840, Note_off_c, 7, 81, 64
9, 279840, Note_on_c, 7, 78, 40
9, 279960, Note_off_c, 7, 78, 64
9, 279960, Note_on_c, 7, 76, 40
9, 280080, Note_off_c, 7, 76, 64
9, 280080, Note_on_c, 7, 74, 40
9, 280176, Note_off_c, 7, 74, 64
9, 280320, Note_on_c, 7, 74, 40
9, 280416, Note_off_c, 7, 74, 64
9, 280560, Note_on_c, 7, 74, 40
9, 281040, Note_off_c, 7, 74, 64
9, 281520, Note_on_c, 7, 86, 40
9, 281760, Note_off_c, 7, 86, 64
9, 281760, Note_on_c, 7, 83, 40
9, 281880, Note_off_c, 7, 83, 64
9, 281880, Note_on_c, 7, 81, 40
9, 282000, Note_off_c, 7, 81, 64
9, 282000, Note_on_c, 7, 79, 40
9, 282096, Note_off_c, 7, 79, 64
9, 282240, Note_on_c, 7, 79, 40
9, 282336, Note_off_c, 7, 79, 64
9, 282480, Note_on_c, 7, 79, 40
9, 282960, Note_off_c, 7, 79, 64
9, 283440, Note_on_c, 7, 74, 40
9, 283680, Note_off_c, 7, 74, 64
9, 283680, Note_on_c, 7, 76, 40
9, 283800, Note_off_c, 7, 76, 64
9, 283800, Note_on_c, 7, 78, 40
9, 283920, Note_off_c, 7, 78, 64
9, 283920, Note_on_c, 7, 79, 40
9, 284016, Note_off_c, 7, 79, 64
9, 284160, Note_on_c, 7, 79, 40
9, 284256, Note_off_c, 7, 79, 64
9, 284400, Note_on_c, 7, 79, 40
9, 284880, Note_off_c, 7, 79, 64
9, 285360, Note_on_c, 7, 83, 40
9, 285600, Note_off_c, 7, 83, 64
9, 285600, Note_on_c, 7, 84, 40
9, 285720, Note_off_c, 7, 84, 64
9, 285720, Note_on_c, 7, 86, 40
9, 285840, Note_off_c, 7, 86, 64
9, 285840, Note_on_c, 7, 88, 40
9, 285936, Note_off_c, 7, 88, 64
9, 286080, Note_on_c, 7, 88, 40
9, 286176, Note_off_c, 7, 88, 64
9, 286320, Note_on_c, 7, 84, 40
9, 286800, Note_off_c, 7, 84, 64
9, 287280, Note_on_c, 7, 76, 51
9, 287520, Note_off_c, 7, 76, 64
9, 287520, Note_on_c, 7, 78, 51
9, 287640, Note_off_c, 7, 78, 64
9, 287640, Note_on_c, 7, 79, 51
9, 287760, Note_off_c, 7, 79, 64
9, 287760, Note_on_c, 7, 81, 51
9, 287856, Note_off_c, 7, 81, 64
9, 288000, Note_on_c, 7, 81, 51
9, 288096, Note_off_c, 7, 81, 64
9, 288240, Note_on_c, 7, 81, 30
9, 288480, Note_off_c, 7, 81, 64
9, 288480, Note_on_c, 7, 78, 32
9, 288600, Note_off_c, 7, 78, 64
9, 288600, Note_on_c, 7, 79, 33
9, 288720, Note_off_c, 7, 79, 64
9, 288720, Note_on_c, 7, 81, 34
9, 288816, Note_off_c, 7, 81, 64
9, 288960, Note_on_c, 7, 81, 36
9, 289056, Note_off_c, 7, 81, 64
9, 289200, Note_on_c, 7, 79, 38
9, 289440, Note_off_c, 7, 79, 64
9, 289440, Note_on_c, 7, 76, 39
9, 289560, Note_off_c, 7, 76, 64
9, 289560, Note_on_c, 7, 78, 40
9, 289680, Note_off_c, 7, 78, 64
9, 289680, Note_on_c, 7, 79, 41
9, 289776, Note_off_c, 7, 79, 64
9, 289920, Note_on_c, 7, 79, 43
9, 290016, Note_off_c, 7, 79, 64
9, 290160, Note_on_c, 7, 81, 45
9, 290400, Note_off_c, 7, 81, 64
9, 290400, Note_on_c, 7, 78, 47
9, 290520, Note_off_c, 7, 78, 64
9, 290520, Note_on_c, 7, 79, 48
9, 290640, Note_off_c, 7, 79, 64
9, 290640, Note_on_c, 7, 81, 49
9, 290736, Note_off_c, 7, 81, 64
9, 290880, Note_on_c, 7, 81, 51
9, 290976, Note_off_c, 7, 81, 64
9, 291120, Note_on_c, 7, 81, 53
9, 291360, Note_off_c, 7, 81, 64
9, 291360, Note_on_c, 7, 78, 54
9, 291480, Note_off_c, 7, 78, 64
9, 291480, Note_on_c, 7, 79, 55
9, 291600, Note_off_c, 7, 79, 64
9, 291600, Note_on_c, 7, 81, 56
9, 291696, Note_off_c, 7, 81, 64
9, 291840, Note_on_c, 7, 81, 58
9, 291936, Note_off_c, 7, 81, 64
9, 292080, Note_on_c, 7, 79, 60
9, 292464, Note_off_c, 7, 79, 64
9, 293040, Note_on_c, 7, 83, 68
9, 293808, Note_off_c, 7, 83, 64
9, 294000, Note_on_c, 7, 79, 94
9, 294240, Note_off_c, 7, 79, 64
9, 294240, Note_on_c, 7, 81, 96
9, 294360, Note_off_c, 7, 81, 64
9, 294360, Note_on_c, 7, 83, 98
9, 294480, Note_off_c, 7, 83, 64
9, 294480, Note_on_c, 7, 84, 99
9, 294576, Note_off_c, 7, 84, 64
9, 294720, Note_on_c, 7, 84, 101
9, 294816, Note_off_c, 7, 84, 64
9, 294960, Note_on_c, 7, 78, 104
9, 295200, Note_off_c, 7, 78, 64
9, 295200, Note_on_c, 7, 79, 105
9, 295320, Note_off_c, 7, 79, 64
9, 295320, Note_on_c, 7, 81, 106
9, 295440, Note_off_c, 7, 81, 64
9, 295440, Note_on_c, 7, 83, 108
9, 295536, Note_off_c, 7, 83, 64
9, 295680, Note_on_c, 7, 71, 110
9, 295776, Note_off_c, 7, 71, 64
9, 295920, Note_on_c, 7, 76, 127
9, 296016, Note_off_c, 7, 76, 64
9, 296040, Note_on_c, 7, 88, 127
9, 296136, Note_off_c, 7, 88, 64
9, 296160, Note_on_c, 7, 88, 127
9, 296256, Note_off_c, 7, 88, 64
9, 296280, Note_on_c, 7, 88, 127
9, 296376, Note_off_c, 7, 88, 64
9, 296400, Note_on_c, 7, 88, 127
9, 296496, Note_off_c, 7, 88, 64
9, 296520, Note_on_c, 7, 88, 127
9, 296616, Note_off_c, 7, 88, 64
9, 296640, Note_on_c, 7, 88, 127
9, 296736, Note_off_c, 7, 88, 64
9, 296760, Note_on_c, 7, 88, 127
9, 296856, Note_off_c, 7, 88, 64
9, 296880, Note_on_c, 7, 88, 127
9, 296976, Note_off_c, 7, 88, 64
9, 297000, Note_on_c, 7, 81, 127
9, 297096, Note_off_c, 7, 81, 64
9, 297120, Note_on_c, 7, 83, 127
9, 297216, Note_off_c, 7, 83, 64
9, 297240, Note_on_c, 7, 84, 127
9, 297336, Note_off_c, 7, 84, 64
9, 297360, Note_on_c, 7, 86, 127
9, 297456, Note_off_c, 7, 86, 64
9, 297480, Note_on_c, 7, 84, 127
9, 297576, Note_off_c, 7, 84, 64
9, 297600, Note_on_c, 7, 86, 127
9, 297696, Note_off_c, 7, 86, 64
9, 297720, Note_on_c, 7, 74, 127
9, 297816, Note_off_c, 7, 74, 64
9, 297840, Note_on_c, 7, 86, 127
9, 297936, Note_off_c, 7, 86, 64
9, 297960, Note_on_c, 7, 79, 127
9, 298056, Note_off_c, 7, 79, 64
9, 298080, Note_on_c, 7, 81, 127
9, 298176, Note_off_c, 7, 81, 64
9, 298200, Note_on_c, 7, 83, 127
9, 298296, Note_off_c, 7, 83, 64
9, 298320, Note_on_c, 7, 84, 127
9, 298416, Note_off_c, 7, 84, 64
9, 298440, Note_on_c, 7, 83, 127
9, 298536, Note_off_c, 7, 83, 64
9, 298560, Note_on_c, 7, 84, 127
9, 298656, Note_off_c, 7, 84, 64
9, 298680, Note_on_c, 7, 72, 127
9, 298776, Note_off_c, 7, 72, 64
9, 298800, Note_on_c, 7, 78, 127
9, 298896, Note_off_c, 7, 78, 64
9, 298920, Note_on_c, 7, 78, 127
9, 299016, Note_off_c, 7, 78, 64
9, 299040, Note_on_c, 7, 79, 127
9, 299136, Note_off_c, 7, 79, 64
9, 299160, Note_on_c, 7, 81, 127
9, 299256, Note_off_c, 7, 81, 64
9, 299280, Note_on_c, 7, 83, 127
9, 299376, Note_off_c, 7, 83, 64
9, 299400, Note_on_c, 7, 81, 127
9, 299496, Note_off_c, 7, 81, 64
9, 299520, Note_on_c, 7, 83, 127
9, 299616, Note_off_c, 7, 83, 64
9, 299640, Note_on_c, 7, 71, 127
9, 299736, Note_off_c, 7, 71, 64
9, 299760, Note_on_c, 7, 76, 127
9, 299856, Note_off_c, 7, 76, 64
9, 299880, Note_on_c, 7, 76, 127
9, 299976, Note_off_c, 7, 76, 64
9, 300000, Note_on_c, 7, 78, 127
9, 300096, Note_off_c, 7, 78, 64
9, 300120, Note_on_c, 7, 79, 127
9, 300216, Note_off_c, 7, 79, 64
9, 300240, Note_on_c, 7, 81, 127
9, 300336, Note_off_c, 7, 81, 64
9, 300360, Note_on_c, 7, 79, 127
9, 300456, Note_off_c, 7, 79, 64
9, 300480, Note_on_c, 7, 81, 127
9, 300576, Note_off_c, 7, 81, 64
9, 300600, Note_on_c, 7, 69, 127
9, 300696, Note_off_c, 7, 69, 64
9, 300720, Note_on_c, 7, 81, 127
9, 300816, Note_off_c, 7, 81, 64
9, 300840, Note_on_c, 7, 81, 127
9, 300936, Note_off_c, 7, 81, 64
9, 300960, Note_on_c, 7, 81, 127
9, 301056, Note_off_c, 7, 81, 64
9, 301080, Note_on_c, 7, 81, 127
9, 301176, Note_off_c, 7, 81, 64
9, 301200, Note_on_c, 7, 79, 127
9, 301296, Note_off_c, 7, 79, 64
9, 301320, Note_on_c, 7, 79, 127
9, 301416, Note_off_c, 7, 79, 64
9, 301440, Note_on_c, 7, 78, 127
9, 301536, Note_off_c, 7, 78, 64
9, 301560, Note_on_c, 7, 76, 127
9, 301656, Note_off_c, 7, 76, 64
9, 301680, Note_on_c, 7, 75, 99
9, 301776, Note_off_c, 7, 75, 64
9, 301800, Note_on_c, 7, 83, 99
9, 301896, Note_off_c, 7, 83, 64
9, 301920, Note_on_c, 7, 83, 99
9, 302016, Note_off_c, 7, 83, 64
9, 302040, Note_on_c, 7, 83, 99
9, 302136, Note_off_c, 7, 83, 64
9, 302160, Note_on_c, 7, 83, 99
9, 302256, Note_off_c, 7, 83, 64
9, 302280, Note_on_c, 7, 83, 99
9, 302376, Note_off_c, 7, 83, 64
9, 302400, Note_on_c, 7, 83, 99
9, 302496, Note_off_c, 7, 83, 64
9, 302520, Note_on_c, 7, 83, 99
9, 302616, Note_off_c, 7, 83, 64
9, 302640, Note_on_c, 7, 83, 99
9, 302736, Note_off_c, 7, 83, 64
9, 302760, Note_on_c, 7, 83, 99
9, 302856, Note_off_c, 7, 83, 64
9, 302880, Note_on_c, 7, 83, 99
9, 302976, Note_off_c, 7, 83, 64
9, 303000, Note_on_c, 7, 83, 99
9, 303096, Note_off_c, 7, 83, 64
9, 303120, Note_on_c, 7, 83, 99
9, 303216, Note_off_c, 7, 83, 64
9, 303240, Note_on_c, 7, 83, 99
9, 303336, Note_off_c, 7, 83, 64
9, 303360, Note_on_c, 7, 83, 99
9, 303456, Note_off_c, 7, 83, 64
9, 303480, Note_on_c, 7, 83, 99
9, 303576, Note_off_c, 7, 83, 64
9, 303600, Note_on_c, 7, 83, 100
9, 303696, Note_off_c, 7, 83, 64
9, 303720, Note_on_c, 7, 83, 102
9, 303816, Note_off_c, 7, 83, 64
9, 303840, Note_on_c, 7, 85, 104
9, 303936, Note_off_c, 7, 85, 64
9, 303960, Note_on_c, 7, 87, 106
9, 304056, Note_off_c, 7, 87, 64
9, 304080, Note_on_c, 7, 88, 108
9, 304176, Note_off_c, 7, 88, 64
9, 304200, Note_on_c, 7, 88, 110
9, 304296, Note_off_c, 7, 88, 64
9, 304320, Note_on_c, 7, 90, 112
9, 304416, Note_off_c, 7, 90, 64
9, 304440, Note_on_c, 7, 91, 114
9, 304536, Note_off_c, 7, 91, 64
9, 304560, Note_on_c, 7, 93, 122
9, 304656, Note_off_c, 7, 93, 64
9, 304680, Note_on_c, 7, 93, 120
9, 304776, Note_off_c, 7, 93, 64
9, 304800, Note_on_c, 7, 93, 119
9, 304896, Note_off_c, 7, 93, 64
9, 304920, Note_on_c, 7, 93, 117
9, 305016, Note_off_c, 7, 93, 64
9, 305040, Note_on_c, 7, 91, 115
9, 305136, Note_off_c, 7, 91, 64
9, 305160, Note_on_c, 7, 91, 113
9, 305256, Note_off_c, 7, 91, 64
9, 305280, Note_on_c, 7, 91, 111
9, 305376, Note_off_c, 7, 91, 64
9, 305400, Note_on_c, 7, 91, 110
9, 305496, Note_off_c, 7, 91, 64
9, 305520, Note_on_c, 7, 90, 108
9, 305616, Note_off_c, 7, 90, 64
9, 305640, Note_on_c, 7, 90, 106
9, 305736, Note_off_c, 7, 90, 64
9, 305760, Note_on_c, 7, 90, 104
9, 305856, Note_off_c, 7, 90, 64
9, 305880, Note_on_c, 7, 90, 102
9, 305976, Note_off_c, 7, 90, 64
9, 306000, Note_on_c, 7, 88, 99
9, 306096, Note_off_c, 7, 88, 64
9, 306120, Note_on_c, 7, 88, 99
9, 306216, Note_off_c, 7, 88, 64
9, 306240, Note_on_c, 7, 88, 99
9, 306336, Note_off_c, 7, 88, 64
9, 306360, Note_on_c, 7, 88, 99
9, 306456, Note_off_c, 7, 88, 64
9, 306480, Note_on_c, 7, 88, 99
9, 306576, Note_off_c, 7, 88, 64
9, 306600, Note_on_c, 7, 88, 99
9, 306696, Note_off_c, 7, 88, 64
9, 306720, Note_on_c, 7, 88, 99
9, 306816, Note_off_c, 7, 88, 64
9, 306840, Note_on_c, 7, 88, 99
9, 306936, Note_off_c, 7, 88, 64
9, 306960, Note_on_c, 7, 88, 99
9, 307056, Note_off_c, 7, 88, 64
9, 307080, Note_on_c, 7, 88, 99
9, 307176, Note_off_c, 7, 88, 64
9, 307200, Note_on_c, 7, 88, 99
9, 307296, Note_off_c, 7, 88, 64
9, 307320, Note_on_c, 7, 88, 99
9, 307416, Note_off_c, 7, 88, 64
9, 307440, Note_on_c, 7, 88, 80
9, 307536, Note_off_c, 7, 88, 64
9, 307560, Note_on_c, 7, 88, 80
9, 307656, Note_off_c, 7, 88, 64
9, 307680, Note_on_c, 7, 88, 127
9, 307776, Note_off_c, 7, 88, 64
9, 307800, Note_on_c, 7, 88, 99
9, 307896, Note_off_c, 7, 88, 64
9, 307920, Note_on_c, 7, 88, 99
9, 308016, Note_off_c, 7, 88, 64
9, 308040, Note_on_c, 7, 88, 99
9, 308136, Note_off_c, 7, 88, 64
9, 308160, Note_on_c, 7, 88, 99
9, 308256, Note_off_c, 7, 88, 64
9, 308280, Note_on_c, 7, 88, 99
9, 308376, Note_off_c, 7, 88, 64
9, 308400, Note_on_c, 7, 88, 99
9, 308496, Note_off_c, 7, 88, 64
9, 308520, Note_on_c, 7, 88, 99
9, 308616, Note_off_c, 7, 88, 64
9, 308640, Note_on_c, 7, 88, 99
9, 308736, Note_off_c, 7, 88, 64
9, 308760, Note_on_c, 7, 88, 99
9, 308856, Note_off_c, 7, 88, 64
9, 308880, Note_on_c, 7, 88, 99
9, 308976, Note_off_c, 7, 88, 64
9, 309000, Note_on_c, 7, 88, 99
9, 309096, Note_off_c, 7, 88, 64
9, 309120, Note_on_c, 7, 88, 99
9, 309216, Note_off_c, 7, 88, 64
9, 309240, Note_on_c, 7, 88, 99
9, 309336, Note_off_c, 7, 88, 64
9, 309360, Note_on_c, 7, 88, 99
9, 309456, Note_off_c, 7, 88, 64
9, 309480, Note_on_c, 7, 88, 99
9, 309576, Note_off_c, 7, 88, 64
9, 309600, Note_on_c, 7, 88, 127
9, 309696, Note_off_c, 7, 88, 64
9, 309720, Note_on_c, 7, 88, 99
9, 309816, Note_off_c, 7, 88, 64
9, 309840, Note_on_c, 7, 88, 99
9, 309936, Note_off_c, 7, 88, 64
9, 309960, Note_on_c, 7, 88, 99
9, 310056, Note_off_c, 7, 88, 64
9, 310080, Note_on_c, 7, 88, 99
9, 310176, Note_off_c, 7, 88, 64
9, 310200, Note_on_c, 7, 88, 99
9, 310296, Note_off_c, 7, 88, 64
9, 310320, Note_on_c, 7, 88, 99
9, 310416, Note_off_c, 7, 88, 64
9, 310440, Note_on_c, 7, 88, 99
9, 310536, Note_off_c, 7, 88, 64
9, 310560, Note_on_c, 7, 88, 99
9, 310656, Note_off_c, 7, 88, 64
9, 310680, Note_on_c, 7, 88, 99
9, 310776, Note_off_c, 7, 88, 64
9, 310800, Note_on_c, 7, 88, 99
9, 310896, Note_off_c, 7, 88, 64
9, 310920, Note_on_c, 7, 88, 99
9, 311016, Note_off_c, 7, 88, 64
9, 311040, Note_on_c, 7, 88, 99
9, 311136, Note_off_c, 7, 88, 64
9, 311160, Note_on_c, 7, 88, 99
9, 311256, Note_off_c, 7, 88, 64
9, 311280, Note_on_c, 7, 88, 99
9, 311376, Note_off_c, 7, 88, 64
9, 311400, Note_on_c, 7, 88, 99
9, 311496, Note_off_c, 7, 88, 64
9, 311520, Note_on_c, 7, 88, 127
9, 311616, Note_off_c, 7, 88, 64
9, 311640, Note_on_c, 7, 88, 99
9, 311736, Note_off_c, 7, 88, 64
9, 311760, Note_on_c, 7, 88, 99
9, 311856, Note_off_c, 7, 88, 64
9, 311880, Note_on_c, 7, 88, 99
9, 311976, Note_off_c, 7, 88, 64
9, 312000, Note_on_c, 7, 88, 99
9, 312096, Note_off_c, 7, 88, 64
9, 312120, Note_on_c, 7, 88, 99
9, 312216, Note_off_c, 7, 88, 64
9, 312240, Note_on_c, 7, 88, 99
9, 312336, Note_off_c, 7, 88, 64
9, 312360, Note_on_c, 7, 88, 99
9, 312456, Note_off_c, 7, 88, 64
9, 312480, Note_on_c, 7, 88, 99
9, 312576, Note_off_c, 7, 88, 64
9, 312600, Note_on_c, 7, 88, 99
9, 312696, Note_off_c, 7, 88, 64
9, 312720, Note_on_c, 7, 88, 99
9, 312816, Note_off_c, 7, 88, 64
9, 312840, Note_on_c, 7, 88, 99
9, 312936, Note_off_c, 7, 88, 64
9, 312960, Note_on_c, 7, 88, 99
9, 313056, Note_off_c, 7, 88, 64
9, 313080, Note_on_c, 7, 88, 99
9, 313176, Note_off_c, 7, 88, 64
9, 313200, Note_on_c, 7, 88, 99
9, 313296, Note_off_c, 7, 88, 64
9, 313320, Note_on_c, 7, 88, 99
9, 313416, Note_off_c, 7, 88, 64
9, 313440, Note_on_c, 7, 88, 127
9, 313536, Note_off_c, 7, 88, 64
9, 313560, Note_on_c, 7, 88, 99
9, 313656, Note_off_c, 7, 88, 64
9, 313680, Note_on_c, 7, 88, 99
9, 313776, Note_off_c, 7, 88, 64
9, 313800, Note_on_c, 7, 88, 99
9, 313896, Note_off_c, 7, 88, 64
9, 313920, Note_on_c, 7, 88, 99
9, 314016, Note_off_c, 7, 88, 64
9, 314040, Note_on_c, 7, 88, 99
9, 314136, Note_off_c, 7, 88, 64
9, 314160, Note_on_c, 7, 88, 99
9, 314256, Note_off_c, 7, 88, 64
9, 314280, Note_on_c, 7, 88, 99
9, 314376, Note_off_c, 7, 88, 64
9, 314400, Note_on_c, 7, 88, 99
9, 314496, Note_off_c, 7, 88, 64
9, 314520, Note_on_c, 7, 88, 99
9, 314616, Note_off_c, 7, 88, 64
9, 314640, Note_on_c, 7, 88, 99
9, 314736, Note_off_c, 7, 88, 64
9, 314760, Note_on_c, 7, 88, 99
9, 314856, Note_off_c, 7, 88, 64
9, 314880, Note_on_c, 7, 88, 99
9, 314976, Note_off_c, 7, 88, 64
9, 315000, Note_on_c, 7, 88, 99
9, 315096, Note_off_c, 7, 88, 64
9, 315120, Note_on_c, 7, 88, 99
9, 315216, Note_off_c, 7, 88, 64
9, 315240, Note_on_c, 7, 88, 99
9, 315336, Note_off_c, 7, 88, 64
9, 315360, Note_on_c, 7, 88, 127
9, 315456, Note_off_c, 7, 88, 64
9, 315480, Note_on_c, 7, 88, 99
9, 315576, Note_off_c, 7, 88, 64
9, 315600, Note_on_c, 7, 88, 99
9, 315696, Note_off_c, 7, 88, 64
9, 315720, Note_on_c, 7, 88, 99
9, 315816, Note_off_c, 7, 88, 64
9, 315840, Note_on_c, 7, 88, 99
9, 315936, Note_off_c, 7, 88, 64
9, 315960, Note_on_c, 7, 88, 99
9, 316056, Note_off_c, 7, 88, 64
9, 316080, Note_on_c, 7, 88, 99
9, 316176, Note_off_c, 7, 88, 64
9, 316200, Note_on_c, 7, 88, 99
9, 316296, Note_off_c, 7, 88, 64
9, 316320, Note_on_c, 7, 88, 99
9, 316416, Note_off_c, 7, 88, 64
9, 316440, Note_on_c, 7, 88, 99
9, 316536, Note_off_c, 7, 88, 64
9, 316560, Note_on_c, 7, 88, 99
9, 316656, Note_off_c, 7, 88, 64
9, 316680, Note_on_c, 7, 88, 99
9, 316776, Note_off_c, 7, 88, 64
9, 316800, Note_on_c, 7, 88, 99
9, 316896, Note_off_c, 7, 88, 64
9, 316920, Note_on_c, 7, 88, 99
9, 317016, Note_off_c, 7, 88, 64
9, 317040, Note_on_c, 7, 88, 99
9, 317136, Note_off_c, 7, 88, 64
9, 317160, Note_on_c, 7, 88, 99
9, 317256, Note_off_c, 7, 88, 64
9, 317280, Note_on_c, 7, 88, 127
9, 317376, Note_off_c, 7, 88, 64
9, 317400, Note_on_c, 7, 88, 99
9, 317496, Note_off_c, 7, 88, 64
9, 317520, Note_on_c, 7, 88, 99
9, 317616, Note_off_c, 7, 88, 64
9, 317640, Note_on_c, 7, 88, 99
9, 317736, Note_off_c, 7, 88, 64
9, 317760, Note_on_c, 7, 88, 99
9, 317856, Note_off_c, 7, 88, 64
9, 317880, Note_on_c, 7, 88, 99
9, 317976, Note_off_c, 7, 88, 64
9, 318000, Note_on_c, 7, 88, 99
9, 318096, Note_off_c, 7, 88, 64
9, 318120, Note_on_c, 7, 88, 99
9, 318216, Note_off_c, 7, 88, 64
9, 318240, Note_on_c, 7, 88, 99
9, 318336, Note_off_c, 7, 88, 64
9, 318360, Note_on_c, 7, 88, 99
9, 318456, Note_off_c, 7, 88, 64
9, 318480, Note_on_c, 7, 88, 99
9, 318576, Note_off_c, 7, 88, 64
9, 318600, Note_on_c, 7, 88, 99
9, 318696, Note_off_c, 7, 88, 64
9, 318720, Note_on_c, 7, 88, 99
9, 318816, Note_off_c, 7, 88, 64
9, 318840, Note_on_c, 7, 88, 99
9, 318936, Note_off_c, 7, 88, 64
9, 318960, Note_on_c, 7, 88, 99
9, 319056, Note_off_c, 7, 88, 64
9, 319080, Note_on_c, 7, 88, 99
9, 319176, Note_off_c, 7, 88, 64
9, 319200, Note_on_c, 7, 88, 127
9, 319296, Note_off_c, 7, 88, 64
9, 319320, Note_on_c, 7, 88, 99
9, 319416, Note_off_c, 7, 88, 64
9, 319440, Note_on_c, 7, 88, 99
9, 319536, Note_off_c, 7, 88, 64
9, 319560, Note_on_c, 7, 88, 99
9, 319656, Note_off_c, 7, 88, 64
9, 319680, Note_on_c, 7, 88, 99
9, 319776, Note_off_c, 7, 88, 64
9, 319800, Note_on_c, 7, 88, 99
9, 319896, Note_off_c, 7, 88, 64
9, 319920, Note_on_c, 7, 88, 99
9, 320016, Note_off_c, 7, 88, 64
9, 320040, Note_on_c, 7, 88, 99
9, 320136, Note_off_c, 7, 88, 64
9, 320160, Note_on_c, 7, 88, 99
9, 320256, Note_off_c, 7, 88, 64
9, 320280, Note_on_c, 7, 88, 99
9, 320376, Note_off_c, 7, 88, 64
9, 320400, Note_on_c, 7, 88, 99
9, 320496, Note_off_c, 7, 88, 64
9, 320520, Note_on_c, 7, 88, 99
9, 320616, Note_off_c, 7, 88, 64
9, 320640, Note_on_c, 7, 88, 99
9, 320736, Note_off_c, 7, 88, 64
9, 320760, Note_on_c, 7, 88, 99
9, 320856, Note_off_c, 7, 88, 64
9, 320880, Note_on_c, 7, 88, 99
9, 320976, Note_off_c, 7, 88, 64
9, 321000, Note_on_c, 7, 88, 99
9, 321096, Note_off_c, 7, 88, 64
9, 321120, Note_on_c, 7, 88, 127
9, 321216, Note_off_c, 7, 88, 64
9, 321240, Note_on_c, 7, 88, 99
9, 321336, Note_off_c, 7, 88, 64
9, 321360, Note_on_c, 7, 88, 99
9, 321456, Note_off_c, 7, 88, 64
9, 321480, Note_on_c, 7, 88, 99
9, 321576, Note_off_c, 7, 88, 64
9, 321600, Note_on_c, 7, 88, 99
9, 321696, Note_off_c, 7, 88, 64
9, 321720, Note_on_c, 7, 88, 99
9, 321816, Note_off_c, 7, 88, 64
9, 321840, Note_on_c, 7, 88, 99
9, 321936, Note_off_c, 7, 88, 64
9, 321960, Note_on_c, 7, 88, 99
9, 322056, Note_off_c, 7, 88, 64
9, 322080, Note_on_c, 7, 88, 99
9, 322176, Note_off_c, 7, 88, 64
9, 322200, Note_on_c, 7, 88, 99
9, 322296, Note_off_c, 7, 88, 64
9, 322320, Note_on_c, 7, 88, 99
9, 322416, Note_off_c, 7, 88, 64
9, 322440, Note_on_c, 7, 88, 99
9, 322536, Note_off_c, 7, 88, 64
9, 322560, Note_on_c, 7, 87, 99
9, 322656, Note_off_c, 7, 87, 64
9, 322680, Note_on_c, 7, 87, 99
9, 322776, Note_off_c, 7, 87, 64
9, 322800, Note_on_c, 7, 87, 99
9, 322896, Note_off_c, 7, 87, 64
9, 322920, Note_on_c, 7, 87, 99
9, 323016, Note_off_c, 7, 87, 64
9, 323040, Note_on_c, 7, 88, 127
9, 323136, Note_off_c, 7, 88, 64
9, 323160, Note_on_c, 7, 83, 40
9, 323256, Note_off_c, 7, 83, 64
9, 323280, Note_on_c, 7, 83, 40
9, 323376, Note_off_c, 7, 83, 64
9, 323400, Note_on_c, 7, 83, 40
9, 323496, Note_off_c, 7, 83, 64
9, 323520, Note_on_c, 7, 83, 40
9, 323616, Note_off_c, 7, 83, 64
9, 323640, Note_on_c, 7, 83, 40
9, 323736, Note_off_c, 7, 83, 64
9, 323760, Note_on_c, 7, 83, 40
9, 323856, Note_off_c, 7, 83, 64
9, 323880, Note_on_c, 7, 83, 40
9, 323976, Note_off_c, 7, 83, 64
9, 324000, Note_on_c, 7, 83, 40
9, 324096, Note_off_c, 7, 83, 64
9, 324120, Note_on_c, 7, 83, 40
9, 324216, Note_off_c, 7, 83, 64
9, 324240, Note_on_c, 7, 83, 40
9, 324336, Note_off_c, 7, 83, 64
9, 324360, Note_on_c, 7, 83, 40
9, 324456, Note_off_c, 7, 83, 64
9, 324480, Note_on_c, 7, 83, 40
9, 324576, Note_off_c, 7, 83, 64
9, 324600, Note_on_c, 7, 83, 40
9, 324696, Note_off_c, 7, 83, 64
9, 324720, Note_on_c, 7, 83, 40
9, 324816, Note_off_c, 7, 83, 64
9, 324840, Note_on_c, 7, 83, 40
9, 324936, Note_off_c, 7, 83, 64
9, 324960, Note_on_c, 7, 83, 40
9, 325056, Note_off_c, 7, 83, 64
9, 325080, Note_on_c, 7, 83, 40
9, 325176, Note_off_c, 7, 83, 64
9, 325200, Note_on_c, 7, 83, 40
9, 325296, Note_off_c, 7, 83, 64
9, 325320, Note_on_c, 7, 83, 40
9, 325416, Note_off_c, 7, 83, 64
9, 325440, Note_on_c, 7, 83, 40
9, 325536, Note_off_c, 7, 83, 64
9, 325560, Note_on_c, 7, 83, 40
9, 325656, Note_off_c, 7, 83, 64
9, 325680, Note_on_c, 7, 83, 40
9, 325776, Note_off_c, 7, 83, 64
9, 325800, Note_on_c, 7, 83, 40
9, 325896, Note_off_c, 7, 83, 64
9, 325920, Note_on_c, 7, 83, 102
9, 326016, Note_off_c, 7, 83, 64
9, 326040, Note_on_c, 7, 83, 102
9, 326136, Note_off_c, 7, 83, 64
9, 326160, Note_on_c, 7, 83, 102
9, 326256, Note_off_c, 7, 83, 64
9, 326280, Note_on_c, 7, 83, 102
9, 326376, Note_off_c, 7, 83, 64
9, 326400, Note_on_c, 7, 83, 102
9, 326496, Note_off_c, 7, 83, 64
9, 326520, Note_on_c, 7, 83, 102
9, 326616, Note_off_c, 7, 83, 64
9, 326640, Note_on_c, 7, 83, 102
9, 326736, Note_off_c, 7, 83, 64
9, 326760, Note_on_c, 7, 83, 102
9, 326856, Note_off_c, 7, 83, 64
9, 326880, Note_on_c, 7, 83, 127
9, 326976, Note_off_c, 7, 83, 64
9, 327000, Note_on_c, 7, 83, 40
9, 327096, Note_off_c, 7, 83, 64
9, 327120, Note_on_c, 7, 83, 40
9, 327216, Note_off_c, 7, 83, 64
9, 327240, Note_on_c, 7, 83, 40
9, 327336, Note_off_c, 7, 83, 64
9, 327360, Note_on_c, 7, 83, 40
9, 327456, Note_off_c, 7, 83, 64
9, 327480, Note_on_c, 7, 83, 40
9, 327576, Note_off_c, 7, 83, 64
9, 327600, Note_on_c, 7, 83, 40
9, 327696, Note_off_c, 7, 83, 64
9, 327720, Note_on_c, 7, 83, 40
9, 327816, Note_off_c, 7, 83, 64
9, 327840, Note_on_c, 7, 83, 35
9, 327936, Note_off_c, 7, 83, 64
9, 327960, Note_on_c, 7, 83, 35
9, 328056, Note_off_c, 7, 83, 64
9, 328080, Note_on_c, 7, 83, 35
9, 328176, Note_off_c, 7, 83, 64
9, 328200, Note_on_c, 7, 83, 35
9, 328296, Note_off_c, 7, 83, 64
9, 328320, Note_on_c, 7, 83, 35
9, 328416, Note_off_c, 7, 83, 64
9, 328440, Note_on_c, 7, 83, 35
9, 328536, Note_off_c, 7, 83, 64
9, 328560, Note_on_c, 7, 83, 35
9, 328656, Note_off_c, 7, 83, 64
9, 328680, Note_on_c, 7, 83, 35
9, 328776, Note_off_c, 7, 83, 64
9, 328800, Note_on_c, 7, 83, 29
9, 328896, Note_off_c, 7, 83, 64
9, 328920, Note_on_c, 7, 83, 40
9, 329016, Note_off_c, 7, 83, 64
9, 329040, Note_on_c, 7, 83, 40
9, 329136, Note_off_c, 7, 83, 64
9, 329160, Note_on_c, 7, 83, 40
9, 329256, Note_off_c, 7, 83, 64
9, 329280, Note_on_c, 7, 83, 40
9, 329376, Note_off_c, 7, 83, 64
9, 329400, Note_on_c, 7, 83, 40
9, 329496, Note_off_c, 7, 83, 64
9, 329520, Note_on_c, 7, 83, 40
9, 329616, Note_off_c, 7, 83, 64
9, 329640, Note_on_c, 7, 83, 40
9, 329736, Note_off_c, 7, 83, 64
9, 329760, Note_on_c, 7, 83, 112
9, 329856, Note_off_c, 7, 83, 64
9, 329880, Note_on_c, 7, 83, 112
9, 329976, Note_off_c, 7, 83, 64
9, 330000, Note_on_c, 7, 83, 112
9, 330096, Note_off_c, 7, 83, 64
9, 330120, Note_on_c, 7, 83, 112
9, 330216, Note_off_c, 7, 83, 64
9, 330240, Note_on_c, 7, 83, 112
9, 330336, Note_off_c, 7, 83, 64
9, 330360, Note_on_c, 7, 83, 112
9, 330456, Note_off_c, 7, 83, 64
9, 330480, Note_on_c, 7, 83, 112
9, 330576, Note_off_c, 7, 83, 64
9, 330600, Note_on_c, 7, 83, 112
9, 330696, Note_off_c, 7, 83, 64
9, 330720, Note_on_c, 7, 83, 74
9, 330816, Note_off_c, 7, 83, 64
9, 330840, Note_on_c, 7, 83, 74
9, 330936, Note_off_c, 7, 83, 64
9, 330960, Note_on_c, 7, 83, 74
9, 331056, Note_off_c, 7, 83, 64
9, 331080, Note_on_c, 7, 83, 74
9, 331176, Note_off_c, 7, 83, 64
9, 331200, Note_on_c, 7, 83, 74
9, 331296, Note_off_c, 7, 83, 64
9, 331320, Note_on_c, 7, 83, 74
9, 331416, Note_off_c, 7, 83, 64
9, 331440, Note_on_c, 7, 83, 74
9, 331536, Note_off_c, 7, 83, 64
9, 331560, Note_on_c, 7, 83, 74
9, 331656, Note_off_c, 7, 83, 64
9, 331680, Note_on_c, 7, 83, 74
9, 331776, Note_off_c, 7, 83, 64
9, 331800, Note_on_c, 7, 83, 74
9, 331896, Note_off_c, 7, 83, 64
9, 331920, Note_on_c, 7, 83, 74
9, 332016, Note_off_c, 7, 83, 64
9, 332040, Note_on_c, 7, 83, 74
9, 332136, Note_off_c, 7, 83, 64
9, 332160, Note_on_c, 7, 83, 74
9, 332256, Note_off_c, 7, 83, 64
9, 332280, Note_on_c, 7, 83, 74
9, 332376, Note_off_c, 7, 83, 64
9, 332400, Note_on_c, 7, 83, 74
9, 332496, Note_off_c, 7, 83, 64
9, 332520, Note_on_c, 7, 83, 74
9, 332616, Note_off_c, 7, 83, 64
9, 332640, Note_on_c, 7, 83, 99
9, 332736, Note_off_c, 7, 83, 64
9, 332760, Note_on_c, 7, 83, 99
9, 332856, Note_off_c, 7, 83, 64
9, 332880, Note_on_c, 7, 83, 99
9, 332976, Note_off_c, 7, 83, 64
9, 333000, Note_on_c, 7, 83, 99
9, 333096, Note_off_c, 7, 83, 64
9, 333120, Note_on_c, 7, 87, 99
9, 333216, Note_off_c, 7, 87, 64
9, 333240, Note_on_c, 7, 87, 99
9, 333336, Note_off_c, 7, 87, 64
9, 333360, Note_on_c, 7, 87, 99
9, 333456, Note_off_c, 7, 87, 64
9, 333480, Note_on_c, 7, 87, 99
9, 333576, Note_off_c, 7, 87, 64
9, 333600, Note_on_c, 7, 88, 99
9, 333696, Note_off_c, 7, 88, 64
9, 333720, Note_on_c, 7, 88, 99
9, 333816, Note_off_c, 7, 88, 64
9, 333840, Note_on_c, 7, 88, 99
9, 333936, Note_off_c, 7, 88, 64
9, 333960, Note_on_c, 7, 88, 99
9, 334056, Note_off_c, 7, 88, 64
9, 334080, Note_on_c, 7, 87, 99
9, 334176, Note_off_c, 7, 87, 64
9, 334200, Note_on_c, 7, 87, 99
9, 334296, Note_off_c, 7, 87, 64
9, 334320, Note_on_c, 7, 87, 99
9, 334416, Note_off_c, 7, 87, 64
9, 334440, Note_on_c, 7, 87, 99
9, 334536, Note_off_c, 7, 87, 64
9, 334560, Note_on_c, 7, 88, 120
9, 334752, Note_off_c, 7, 88, 64
9, 335520, Note_on_c, 7, 76, 120
9, 335712, Note_off_c, 7, 76, 64
9, 336000, Note_on_c, 7, 76, 120
9, 336192, Note_off_c, 7, 76, 64
9, 336480, Note_on_c, 7, 76, 120
9, 336672, Note_off_c, 7, 76, 64
9, 337440, Note_on_c, 7, 76, 120
9, 337632, Note_off_c, 7, 76, 64
9, 342240, Note_on_c, 7, 79, 42
9, 343008, Note_off_c, 7, 79, 64
9, 343200, Note_on_c, 7, 76, 37
9, 343440, Note_off_c, 7, 76, 64
9, 343440, Note_on_c, 7, 77, 37
9, 343560, Note_off_c, 7, 77, 64
9, 343560, Note_on_c, 7, 79, 37
9, 343680, Note_off_c, 7, 79, 64
9, 343680, Note_on_c, 7, 81, 37
9, 343776, Note_off_c, 7, 81, 64
9, 343920, Note_on_c, 7, 81, 37
9, 344016, Note_off_c, 7, 81, 64
9, 344160, Note_on_c, 7, 74, 37
9, 344400, Note_off_c, 7, 74, 64
9, 344400, Note_on_c, 7, 76, 37
9, 344520, Note_off_c, 7, 76, 64
9, 344520, Note_on_c, 7, 77, 37
9, 344640, Note_off_c, 7, 77, 64
9, 344640, Note_on_c, 7, 79, 37
9, 344736, Note_off_c, 7, 79, 64
9, 344880, Note_on_c, 7, 67, 37
9, 344976, Note_off_c, 7, 67, 64
9, 345120, Note_on_c, 7, 72, 37
9, 345360, Note_off_c, 7, 72, 64
9, 345360, Note_on_c, 7, 74, 37
9, 345480, Note_off_c, 7, 74, 64
9, 345480, Note_on_c, 7, 76, 37
9, 345600, Note_off_c, 7, 76, 64
9, 345600, Note_on_c, 7, 77, 37
9, 345696, Note_off_c, 7, 77, 64
9, 345840, Note_on_c, 7, 77, 37
9, 345936, Note_off_c, 7, 77, 64
9, 346080, Note_on_c, 7, 71, 37
9, 346320, Note_off_c, 7, 71, 64
9, 346320, Note_on_c, 7, 72, 37
9, 346440, Note_off_c, 7, 72, 64
9, 346440, Note_on_c, 7, 74, 37
9, 346560, Note_off_c, 7, 74, 64
9, 346560, Note_on_c, 7, 76, 37
9, 346656, Note_off_c, 7, 76, 64
9, 346800, Note_on_c, 7, 64, 37
9, 346896, Note_off_c, 7, 64, 64
9, 347040, Note_on_c, 7, 69, 37
9, 347280, Note_off_c, 7, 69, 64
9, 347280, Note_on_c, 7, 71, 37
9, 347400, Note_off_c, 7, 71, 64
9, 347400, Note_on_c, 7, 72, 37
9, 347520, Note_off_c, 7, 72, 64
9, 347520, Note_on_c, 7, 74, 37
9, 347616, Note_off_c, 7, 74, 64
9, 347760, Note_on_c, 7, 74, 37
9, 347856, Note_off_c, 7, 74, 64
9, 348000, Note_on_c, 7, 67, 40
9, 348096, Note_off_c, 7, 67, 64
9, 348120, Note_on_c, 7, 79, 40
9, 348216, Note_off_c, 7, 79, 64
9, 348240, Note_on_c, 7, 79, 40
9, 348336, Note_off_c, 7, 79, 64
9, 348360, Note_on_c, 7, 79, 40
9, 348456, Note_off_c, 7, 79, 64
9, 348480, Note_on_c, 7, 79, 40
9, 348576, Note_off_c, 7, 79, 64
9, 348600, Note_on_c, 7, 77, 40
9, 348696, Note_off_c, 7, 77, 64
9, 348720, Note_on_c, 7, 76, 40
9, 348816, Note_off_c, 7, 76, 64
9, 348840, Note_on_c, 7, 74, 40
9, 348936, Note_off_c, 7, 74, 64
9, 348960, Note_on_c, 7, 72, 40
9, 349056, Note_off_c, 7, 72, 64
9, 349080, Note_on_c, 7, 84, 40
9, 349176, Note_off_c, 7, 84, 64
9, 349200, Note_on_c, 7, 84, 40
9, 349296, Note_off_c, 7, 84, 64
9, 349320, Note_on_c, 7, 84, 40
9, 349416, Note_off_c, 7, 84, 64
9, 349440, Note_on_c, 7, 83, 40
9, 349536, Note_off_c, 7, 83, 64
9, 349560, Note_on_c, 7, 81, 40
9, 349656, Note_off_c, 7, 81, 64
9, 349680, Note_on_c, 7, 79, 40
9, 349776, Note_off_c, 7, 79, 64
9, 349800, Note_on_c, 7, 78, 32
9, 349896, Note_off_c, 7, 78, 64
9, 349920, Note_on_c, 7, 83, 40
9, 350016, Note_off_c, 7, 83, 64
9, 350040, Note_on_c, 7, 83, 40
9, 350136, Note_off_c, 7, 83, 64
9, 350160, Note_on_c, 7, 83, 40
9, 350256, Note_off_c, 7, 83, 64
9, 350280, Note_on_c, 7, 83, 40
9, 350376, Note_off_c, 7, 83, 64
9, 350400, Note_on_c, 7, 81, 40
9, 350496, Note_off_c, 7, 81, 64
9, 350520, Note_on_c, 7, 81, 40
9, 350616, Note_off_c, 7, 81, 64
9, 350640, Note_on_c, 7, 81, 40
9, 350736, Note_off_c, 7, 81, 64
9, 350760, Note_on_c, 7, 81, 40
9, 350856, Note_off_c, 7, 81, 64
9, 350880, Note_on_c, 7, 81, 40
9, 350976, Note_off_c, 7, 81, 64
9, 351000, Note_on_c, 7, 81, 40
9, 351096, Note_off_c, 7, 81, 64
9, 351120, Note_on_c, 7, 81, 40
9, 351216, Note_off_c, 7, 81, 64
9, 351240, Note_on_c, 7, 81, 40
9, 351336, Note_off_c, 7, 81, 64
9, 351360, Note_on_c, 7, 81, 40
9, 351456, Note_off_c, 7, 81, 64
9, 351480, Note_on_c, 7, 81, 40
9, 351576, Note_off_c, 7, 81, 64
9, 351600, Note_on_c, 7, 81, 40
9, 351696, Note_off_c, 7, 81, 64
9, 351720, Note_on_c, 7, 81, 40
9, 351816, Note_off_c, 7, 81, 64
9, 351840, Note_on_c, 7, 79, 35
9, 351936, Note_off_c, 7, 79, 64
9, 351960, Note_on_c, 7, 79, 36
9, 352056, Note_off_c, 7, 79, 64
9, 352080, Note_on_c, 7, 84, 37
9, 352176, Note_off_c, 7, 84, 64
9, 352200, Note_on_c, 7, 84, 39
9, 352296, Note_off_c, 7, 84, 64
9, 352320, Note_on_c, 7, 84, 40
9, 352416, Note_off_c, 7, 84, 64
9, 352440, Note_on_c, 7, 84, 41
9, 352536, Note_off_c, 7, 84, 64
9, 352560, Note_on_c, 7, 83, 42
9, 352656, Note_off_c, 7, 83, 64
9, 352680, Note_on_c, 7, 83, 43
9, 352776, Note_off_c, 7, 83, 64
9, 352800, Note_on_c, 7, 84, 44
9, 352896, Note_off_c, 7, 84, 64
9, 352920, Note_on_c, 7, 84, 46
9, 353016, Note_off_c, 7, 84, 64
9, 353040, Note_on_c, 7, 84, 47
9, 353136, Note_off_c, 7, 84, 64
9, 353160, Note_on_c, 7, 84, 48
9, 353256, Note_off_c, 7, 84, 64
9, 353280, Note_on_c, 7, 84, 49
9, 353376, Note_off_c, 7, 84, 64
9, 353400, Note_on_c, 7, 84, 50
9, 353496, Note_off_c, 7, 84, 64
9, 353520, Note_on_c, 7, 84, 51
9, 353616, Note_off_c, 7, 84, 64
9, 353640, Note_on_c, 7, 84, 53
9, 353736, Note_off_c, 7, 84, 64
9, 353760, Note_on_c, 7, 84, 54
9, 353856, Note_off_c, 7, 84, 64
9, 353880, Note_on_c, 7, 84, 55
9, 353976, Note_off_c, 7, 84, 64
9, 354000, Note_on_c, 7, 84, 56
9, 354096, Note_off_c, 7, 84, 64
9, 354120, Note_on_c, 7, 84, 57
9, 354216, Note_off_c, 7, 84, 64
9, 354240, Note_on_c, 7, 84, 58
9, 354336, Note_off_c, 7, 84, 64
9, 354360, Note_on_c, 7, 84, 60
9, 354456, Note_off_c, 7, 84, 64
9, 354480, Note_on_c, 7, 84, 61
9, 354576, Note_off_c, 7, 84, 64
9, 354600, Note_on_c, 7, 84, 62
9, 354696, Note_off_c, 7, 84, 64
9, 354720, Note_on_c, 7, 84, 63
9, 354816, Note_off_c, 7, 84, 64
9, 354840, Note_on_c, 7, 84, 64
9, 354936, Note_off_c, 7, 84, 64
9, 354960, Note_on_c, 7, 84, 65
9, 355056, Note_off_c, 7, 84, 64
9, 355080, Note_on_c, 7, 84, 67
9, 355176, Note_off_c, 7, 84, 64
9, 355200, Note_on_c, 7, 84, 68
9, 355296, Note_off_c, 7, 84, 64
9, 355320, Note_on_c, 7, 84, 69
9, 355416, Note_off_c, 7, 84, 64
9, 355440, Note_on_c, 7, 84, 70
9, 355536, Note_off_c, 7, 84, 64
9, 355560, Note_on_c, 7, 84, 71
9, 355656, Note_off_c, 7, 84, 64
9, 355680, Note_on_c, 7, 77, 73
9, 356448, Note_off_c, 7, 77, 64
9, 356640, Note_on_c, 7, 74, 82
9, 356880, Note_off_c, 7, 74, 64
9, 356880, Note_on_c, 7, 76, 84
9, 357000, Note_off_c, 7, 76, 64
9, 357000, Note_on_c, 7, 77, 85
9, 357120, Note_off_c, 7, 77, 64
9, 357120, Note_on_c, 7, 79, 87
9, 357216, Note_off_c, 7, 79, 64
9, 357360, Note_on_c, 7, 79, 89
9, 357456, Note_off_c, 7, 79, 64
9, 357600, Note_on_c, 7, 76, 91
9, 357840, Note_off_c, 7, 76, 64
9, 357840, Note_on_c, 7, 77, 94
9, 357960, Note_off_c, 7, 77, 64
9, 357960, Note_on_c, 7, 79, 95
9, 358080, Note_off_c, 7, 79, 64
9, 358080, Note_on_c, 7, 81, 96
9, 358176, Note_off_c, 7, 81, 64
9, 358320, Note_on_c, 7, 83, 98
9, 358416, Note_off_c, 7, 83, 64
9, 358560, Note_on_c, 7, 84, 101
9, 358656, Note_off_c, 7, 84, 64
9, 358800, Note_on_c, 7, 86, 103
9, 358896, Note_off_c, 7, 86, 64
9, 359040, Note_on_c, 7, 88, 105
9, 359136, Note_off_c, 7, 88, 64
9, 359280, Note_on_c, 7, 90, 108
9, 359376, Note_off_c, 7, 90, 64
9, 359520, Note_on_c, 7, 83, 127
9, 359520, Note_on_c, 7, 91, 127
9, 359712, Note_off_c, 7, 91, 64
9, 359712, Note_off_c, 7, 83, 64
9, 359760, Note_on_c, 7, 76, 99
9, 359856, Note_off_c, 7, 76, 64
9, 359880, Note_on_c, 7, 77, 99
9, 359976, Note_off_c, 7, 77, 64
9, 360000, Note_on_c, 7, 79, 99
9, 360096, Note_off_c, 7, 79, 64
9, 360120, Note_on_c, 7, 77, 99
9, 360216, Note_off_c, 7, 77, 64
9, 360240, Note_on_c, 7, 76, 99
9, 360336, Note_off_c, 7, 76, 64
9, 360360, Note_on_c, 7, 74, 99
9, 360456, Note_off_c, 7, 74, 64
9, 360480, Note_on_c, 7, 73, 99
9, 360576, Note_off_c, 7, 73, 64
9, 360600, Note_on_c, 7, 76, 99
9, 360696, Note_off_c, 7, 76, 64
9, 360720, Note_on_c, 7, 81, 99
9, 360816, Note_off_c, 7, 81, 64
9, 360840, Note_on_c, 7, 79, 99
9, 360936, Note_off_c, 7, 79, 64
9, 360960, Note_on_c, 7, 77, 99
9, 361056, Note_off_c, 7, 77, 64
9, 361080, Note_on_c, 7, 76, 99
9, 361176, Note_off_c, 7, 76, 64
9, 361200, Note_on_c, 7, 74, 99
9, 361296, Note_off_c, 7, 74, 64
9, 361320, Note_on_c, 7, 73, 99
9, 361416, Note_off_c, 7, 73, 64
9, 361440, Note_on_c, 7, 74, 99
9, 361536, Note_off_c, 7, 74, 64
9, 361560, Note_on_c, 7, 76, 99
9, 361656, Note_off_c, 7, 76, 64
9, 361680, Note_on_c, 7, 77, 99
9, 361776, Note_off_c, 7, 77, 64
9, 361800, Note_on_c, 7, 76, 99
9, 361896, Note_off_c, 7, 76, 64
9, 361920, Note_on_c, 7, 74, 99
9, 362016, Note_off_c, 7, 74, 64
9, 362040, Note_on_c, 7, 76, 99
9, 362136, Note_off_c, 7, 76, 64
9, 362160, Note_on_c, 7, 74, 99
9, 362256, Note_off_c, 7, 74, 64
9, 362280, Note_on_c, 7, 72, 99
9, 362376, Note_off_c, 7, 72, 64
9, 362400, Note_on_c, 7, 71, 99
9, 362496, Note_off_c, 7, 71, 64
9, 362520, Note_on_c, 7, 74, 99
9, 362616, Note_off_c, 7, 74, 64
9, 362640, Note_on_c, 7, 79, 99
9, 362736, Note_off_c, 7, 79, 64
9, 362760, Note_on_c, 7, 77, 99
9, 362856, Note_off_c, 7, 77, 64
9, 362880, Note_on_c, 7, 76, 99
9, 362976, Note_off_c, 7, 76, 64
9, 363000, Note_on_c, 7, 74, 99
9, 363096, Note_off_c, 7, 74, 64
9, 363120, Note_on_c, 7, 72, 99
9, 363216, Note_off_c, 7, 72, 64
9, 363240, Note_on_c, 7, 71, 99
9, 363336, Note_off_c, 7, 71, 64
9, 363360, Note_on_c, 7, 79, 127
9, 364128, Note_off_c, 7, 79, 64
9, 364320, Note_on_c, 7, 76, 127
9, 364560, Note_off_c, 7, 76, 64
9, 364560, Note_on_c, 7, 77, 127
9, 364680, Note_off_c, 7, 77, 64
9, 364680, Note_on_c, 7, 79, 127
9, 364800, Note_off_c, 7, 79, 64
9, 364800, Note_on_c, 7, 81, 127
9, 364896, Note_off_c, 7, 81, 64
9, 365040, Note_on_c, 7, 81, 127
9, 365136, Note_off_c, 7, 81, 64
9, 365280, Note_on_c, 7, 77, 127
9, 366048, Note_off_c, 7, 77, 64
9, 366240, Note_on_c, 7, 74, 127
9, 366480, Note_off_c, 7, 74, 64
9, 366480, Note_on_c, 7, 76, 127
9, 366600, Note_off_c, 7, 76, 64
9, 366600, Note_on_c, 7, 77, 127
9, 366720, Note_off_c, 7, 77, 64
9, 366720, Note_on_c, 7, 79, 127
9, 366816, Note_off_c, 7, 79, 64
9, 366960, Note_on_c, 7, 79, 127
9, 367056, Note_off_c, 7, 79, 64
9, 367200, Note_on_c, 7, 88, 127
9, 367968, Note_off_c, 7, 88, 64
9, 368160, Note_on_c, 7, 85, 127
9, 368400, Note_off_c, 7, 85, 64
9, 368400, Note_on_c, 7, 86, 127
9, 368520, Note_off_c, 7, 86, 64
9, 368520, Note_on_c, 7, 88, 127
9, 368640, Note_off_c, 7, 88, 64
9, 368640, Note_on_c, 7, 89, 127
9, 368736, Note_off_c, 7, 89, 64
9, 368880, Note_on_c, 7, 89, 127
9, 368976, Note_off_c, 7, 89, 64
9, 369120, Note_on_c, 7, 86, 127
9, 369888, Note_off_c, 7, 86, 64
9, 370080, Note_on_c, 7, 83, 127
9, 370320, Note_off_c, 7, 83, 64
9, 370320, Note_on_c, 7, 84, 127
9, 370440, Note_off_c, 7, 84, 64
9, 370440, Note_on_c, 7, 86, 127
9, 370560, Note_off_c, 7, 86, 64
9, 370560, Note_on_c, 7, 88, 127
9, 370656, Note_off_c, 7, 88, 64
9, 370800, Note_on_c, 7, 88, 127
9, 370896, Note_off_c, 7, 88, 64
9, 371040, Note_on_c, 7, 84, 127
9, 371808, Note_off_c, 7, 84, 64
9, 372000, Note_on_c, 7, 81, 127
9, 372240, Note_off_c, 7, 81, 64
9, 372240, Note_on_c, 7, 83, 127
9, 372360, Note_off_c, 7, 83, 64
9, 372360, Note_on_c, 7, 84, 127
9, 372480, Note_off_c, 7, 84, 64
9, 372480, Note_on_c, 7, 86, 127
9, 372576, Note_off_c, 7, 86, 64
9, 372720, Note_on_c, 7, 86, 127
9, 372816, Note_off_c, 7, 86, 64
9, 372960, Note_on_c, 7, 79, 120
9, 373200, Note_off_c, 7, 79, 64
9, 373200, Note_on_c, 7, 81, 120
9, 373320, Note_off_c, 7, 81, 64
9, 373320, Note_on_c, 7, 83, 120
9, 373440, Note_off_c, 7, 83, 64
9, 373440, Note_on_c, 7, 84, 120
9, 373680, Note_off_c, 7, 84, 64
9, 373680, Note_on_c, 7, 86, 120
9, 373800, Note_off_c, 7, 86, 64
9, 373800, Note_on_c, 7, 88, 120
9, 373920, Note_off_c, 7, 88, 64
9, 373920, Note_on_c, 7, 89, 120
9, 374016, Note_off_c, 7, 89, 64
9, 374160, Note_on_c, 7, 88, 120
9, 374280, Note_off_c, 7, 88, 64
9, 374280, Note_on_c, 7, 89, 120
9, 374400, Note_off_c, 7, 89, 64
9, 374400, Note_on_c, 7, 91, 127
9, 374496, Note_off_c, 7, 91, 64
9, 374640, Note_on_c, 7, 89, 120
9, 374736, Note_off_c, 7, 89, 64
9, 374880, Note_on_c, 7, 88, 120
9, 375360, Note_off_c, 7, 88, 64
9, 375840, Note_on_c, 7, 89, 120
9, 375936, Note_off_c, 7, 89, 64
9, 376080, Note_on_c, 7, 88, 120
9, 376200, Note_off_c, 7, 88, 64
9, 376200, Note_on_c, 7, 89, 120
9, 376320, Note_off_c, 7, 89, 64
9, 376320, Note_on_c, 7, 91, 127
9, 376416, Note_off_c, 7, 91, 64
9, 376560, Note_on_c, 7, 89, 120
9, 376656, Note_off_c, 7, 89, 64
9, 376800, Note_on_c, 7, 88, 120
9, 377280, Note_off_c, 7, 88, 64
9, 377760, Note_on_c, 7, 88, 120
9, 377856, Note_off_c, 7, 88, 64
9, 378000, Note_on_c, 7, 86, 120
9, 378120, Note_off_c, 7, 86, 64
9, 378120, Note_on_c, 7, 88, 120
9, 378240, Note_off_c, 7, 88, 64
9, 378240, Note_on_c, 7, 89, 127
9, 378336, Note_off_c, 7, 89, 64
9, 378480, Note_on_c, 7, 88, 120
9, 378576, Note_off_c, 7, 88, 64
9, 378720, Note_on_c, 7, 86, 120
9, 379200, Note_off_c, 7, 86, 64
9, 379680, Note_on_c, 7, 86, 120
9, 379776, Note_off_c, 7, 86, 64
9, 379920, Note_on_c, 7, 84, 120
9, 380040, Note_off_c, 7, 84, 64
9, 380040, Note_on_c, 7, 86, 120
9, 380160, Note_off_c, 7, 86, 64
9, 380160, Note_on_c, 7, 88, 127
9, 380256, Note_off_c, 7, 88, 64
9, 380400, Note_on_c, 7, 86, 120
9, 380496, Note_off_c, 7, 86, 64
9, 380640, Note_on_c, 7, 84, 120
9, 380736, Note_off_c, 7, 84, 64
9, 380880, Note_on_c, 7, 83, 120
9, 381000, Note_off_c, 7, 83, 64
9, 381000, Note_on_c, 7, 84, 120
9, 381120, Note_off_c, 7, 84, 64
9, 381120, Note_on_c, 7, 86, 127
9, 381216, Note_off_c, 7, 86, 64
9, 381360, Note_on_c, 7, 84, 120
9, 381456, Note_off_c, 7, 84, 64
9, 381600, Note_on_c, 7, 83, 120
9, 381696, Note_off_c, 7, 83, 64
9, 381840, Note_on_c, 7, 81, 120
9, 381960, Note_off_c, 7, 81, 64
9, 381960, Note_on_c, 7, 83, 120
9, 382080, Note_off_c, 7, 83, 64
9, 382080, Note_on_c, 7, 84, 127
9, 382176, Note_off_c, 7, 84, 64
9, 382320, Note_on_c, 7, 83, 120
9, 382416, Note_off_c, 7, 83, 64
9, 382560, Note_on_c, 7, 81, 120
9, 382656, Note_off_c, 7, 81, 64
9, 382800, Note_on_c, 7, 79, 120
9, 382920, Note_off_c, 7, 79, 64
9, 382920, Note_on_c, 7, 81, 120
9, 383040, Note_off_c, 7, 81, 64
9, 383040, Note_on_c, 7, 83, 127
9, 383136, Note_off_c, 7, 83, 64
9, 383280, Note_on_c, 7, 81, 120
9, 383376, Note_off_c, 7, 81, 64
9, 383520, Note_on_c, 7, 79, 120
9, 383616, Note_off_c, 7, 79, 64
9, 383760, Note_on_c, 7, 77, 120
9, 383880, Note_off_c, 7, 77, 64
9, 383880, Note_on_c, 7, 79, 120
9, 384000, Note_off_c, 7, 79, 64
9, 384000, Note_on_c, 7, 81, 127
9, 384096, Note_off_c, 7, 81, 64
9, 384240, Note_on_c, 7, 79, 120
9, 384336, Note_off_c, 7, 79, 64
9, 384480, Note_on_c, 7, 79, 127
9, 384576, Note_off_c, 7, 79, 64
9, 384720, Note_on_c, 7, 77, 99
9, 384816, Note_off_c, 7, 77, 64
9, 384960, Note_on_c, 7, 77, 127
9, 385056, Note_off_c, 7, 77, 64
9, 385200, Note_on_c, 7, 76, 99
9, 385296, Note_off_c, 7, 76, 64
9, 385440, Note_on_c, 7, 76, 127
9, 385536, Note_off_c, 7, 76, 64
9, 385680, Note_on_c, 7, 74, 99
9, 385776, Note_off_c, 7, 74, 64
9, 385920, Note_on_c, 7, 74, 127
9, 386016, Note_off_c, 7, 74, 64
9, 386160, Note_on_c, 7, 72, 99
9, 386256, Note_off_c, 7, 72, 64
9, 386400, Note_on_c, 7, 72, 127
9, 386496, Note_off_c, 7, 72, 64
9, 386640, Note_on_c, 7, 71, 99
9, 386736, Note_off_c, 7, 71, 64
9, 386880, Note_on_c, 7, 71, 127
9, 386976, Note_off_c, 7, 71, 64
9, 387120, Note_on_c, 7, 69, 99
9, 387216, Note_off_c, 7, 69, 64
9, 387360, Note_on_c, 7, 69, 127
9, 387456, Note_off_c, 7, 69, 64
9, 387600, Note_on_c, 7, 67, 99
9, 387696, Note_off_c, 7, 67, 64
9, 387840, Note_on_c, 7, 67, 127
9, 387936, Note_off_c, 7, 67, 64
9, 388080, Note_on_c, 7, 65, 99
9, 388176, Note_off_c, 7, 65, 64
9, 388320, Note_on_c, 7, 65, 127
9, 388320, Note_on_c, 7, 55, 127
9, 388512, Note_off_c, 7, 55, 64
9, 388512, Note_off_c, 7, 65, 64
9, 388800, Note_on_c, 7, 83, 127
9, 388800, Note_on_c, 7, 71, 127
9, 388800, Note_on_c, 7, 62, 127
9, 388896, Note_off_c, 7, 62, 64
9, 388896, Note_off_c, 7, 71, 64
9, 392256, Note_off_c, 7, 83, 64
9, 393600, Note_on_c, 7, 84, 127
9, 393600, Note_on_c, 7, 74, 127
9, 397536, Note_off_c, 7, 74, 64
9, 397536, Note_off_c, 7, 84, 64
9, 398880, Note_on_c, 7, 77, 127
9, 399072, Note_off_c, 7, 77, 64
9, 399840, Note_on_c, 7, 76, 127
9, 400032, Note_off_c, 7, 76, 64
9, 400800, Note_on_c, 7, 74, 127
9, 400830, Note_off_c, 7, 74, 64
9, 400830, Note_on_c, 7, 76, 109
9, 400860, Note_off_c, 7, 76, 64
9, 400860, Note_on_c, 7, 74, 108
9, 400890, Note_off_c, 7, 74, 64
9, 400890, Note_on_c, 7, 76, 106
9, 400920, Note_off_c, 7, 76, 64
9, 400920, Note_on_c, 7, 74, 105
9, 400950, Note_off_c, 7, 74, 64
9, 400950, Note_on_c, 7, 76, 104
9, 400980, Note_off_c, 7, 76, 64
9, 400980, Note_on_c, 7, 74, 103
9, 401010, Note_off_c, 7, 74, 64
9, 401010, Note_on_c, 7, 76, 101
9, 401040, Note_off_c, 7, 76, 64
9, 401040, Note_on_c, 7, 74, 100
9, 401070, Note_off_c, 7, 74, 64
9, 401070, Note_on_c, 7, 76, 99
9, 401100, Note_off_c, 7, 76, 64
9, 401100, Note_on_c, 7, 74, 98
9, 401130, Note_off_c, 7, 74, 64
9, 401130, Note_on_c, 7, 76, 96
9, 401160, Note_off_c, 7, 76, 64
9, 401160, Note_on_c, 7, 74, 95
9, 401190, Note_off_c, 7, 74, 64
9, 401190, Note_on_c, 7, 76, 94
9, 401220, Note_off_c, 7, 76, 64
9, 401220, Note_on_c, 7, 74, 93
9, 401250, Note_off_c, 7, 74, 64
9, 401250, Note_on_c, 7, 76, 91
9, 401280, Note_off_c, 7, 76, 64
9, 401280, Note_on_c, 7, 74, 90
9, 401310, Note_off_c, 7, 74, 64
9, 401310, Note_on_c, 7, 76, 89
9, 401340, Note_off_c, 7, 76, 64
9, 401340, Note_on_c, 7, 74, 88
9, 401370, Note_off_c, 7, 74, 64
9, 401370, Note_on_c, 7, 76, 86
9, 401400, Note_off_c, 7, 76, 64
9, 401400, Note_on_c, 7, 74, 85
9, 401430, Note_off_c, 7, 74, 64
9, 401430, Note_on_c, 7, 76, 84
9, 401460, Note_off_c, 7, 76, 64
9, 401460, Note_on_c, 7, 74, 83
9, 401490, Note_off_c, 7, 74, 64
9, 401490, Note_on_c, 7, 76, 81
9, 401520, Note_off_c, 7, 76, 64
9, 401520, Note_on_c, 7, 74, 80
9, 401550, Note_off_c, 7, 74, 64
9, 401550, Note_on_c, 7, 76, 79
9, 401580, Note_off_c, 7, 76, 64
9, 401580, Note_on_c, 7, 74, 78
9, 401610, Note_off_c, 7, 74, 64
9, 401610, Note_on_c, 7, 76, 76
9, 401640, Note_off_c, 7, 76, 64
9, 401640, Note_on_c, 7, 74, 75
9, 401670, Note_off_c, 7, 74, 64
9, 401670, Note_on_c, 7, 76, 74
9, 401700, Note_off_c, 7, 76, 64
9, 401700, Note_on_c, 7, 74, 73
9, 401730, Note_off_c, 7, 74, 64
9, 401730, Note_on_c, 7, 76, 71
9, 401760, Note_off_c, 7, 76, 64
9, 401760, Note_on_c, 7, 74, 70
9, 401790, Note_off_c, 7, 74, 64
9, 401790, Note_on_c, 7, 76, 69
9, 401820, Note_off_c, 7, 76, 64
9, 401820, Note_on_c, 7, 74, 67
9, 401850, Note_off_c, 7, 74, 64
9, 401850, Note_on_c, 7, 76, 66
9, 401880, Note_off_c, 7, 76, 64
9, 401880, Note_on_c, 7, 74, 65
9, 401910, Note_off_c, 7, 74, 64
9, 401910, Note_on_c, 7, 76, 64
9, 401940, Note_off_c, 7, 76, 64
9, 401940, Note_on_c, 7, 74, 62
9, 401970, Note_off_c, 7, 74, 64
9, 401970, Note_on_c, 7, 76, 61
9, 402000, Note_off_c, 7, 76, 64
9, 402000, Note_on_c, 7, 74, 60
9, 402030, Note_off_c, 7, 74, 64
9, 402030, Note_on_c, 7, 76, 59
9, 402060, Note_off_c, 7, 76, 64
9, 402060, Note_on_c, 7, 74, 57
9, 402090, Note_off_c, 7, 74, 64
9, 402090, Note_on_c, 7, 76, 56
9, 402120, Note_off_c, 7, 76, 64
9, 402120, Note_on_c, 7, 74, 55
9, 402150, Note_off_c, 7, 74, 64
9, 402150, Note_on_c, 7, 76, 54
9, 402180, Note_off_c, 7, 76, 64
9, 402180, Note_on_c, 7, 74, 52
9, 402210, Note_off_c, 7, 74, 64
9, 402210, Note_on_c, 7, 76, 51
9, 402240, Note_off_c, 7, 76, 64
9, 402240, Note_on_c, 7, 74, 50
9, 402270, Note_off_c, 7, 74, 64
9, 402270, Note_on_c, 7, 76, 49
9, 402300, Note_off_c, 7, 76, 64
9, 402300, Note_on_c, 7, 74, 47
9, 402330, Note_off_c, 7, 74, 64
9, 402330, Note_on_c, 7, 76, 46
9, 402360, Note_off_c, 7, 76, 64
9, 402360, Note_on_c, 7, 74, 45
9, 402390, Note_off_c, 7, 74, 64
9, 402390, Note_on_c, 7, 76, 44
9, 402420, Note_off_c, 7, 76, 64
9, 402420, Note_on_c, 7, 74, 42
9, 402450, Note_off_c, 7, 74, 64
9, 402450, Note_on_c, 7, 76, 41
9, 402480, Note_off_c, 7, 76, 64
9, 402480, Note_on_c, 7, 74, 40
9, 402510, Note_off_c, 7, 74, 64
9, 402510, Note_on_c, 7, 76, 39
9, 402540, Note_off_c, 7, 76, 64
9, 402540, Note_on_c, 7, 74, 37
9, 402570, Note_off_c, 7, 74, 64
9, 402570, Note_on_c, 7, 76, 36
9, 402600, Note_off_c, 7, 76, 64
9, 402600, Note_on_c, 7, 74, 35
9, 402630, Note_off_c, 7, 74, 64
9, 402630, Note_on_c, 7, 76, 34
9, 402660, Note_off_c, 7, 76, 64
9, 402660, Note_on_c, 7, 72, 32
9, 402690, Note_off_c, 7, 72, 64
9, 402690, Note_on_c, 7, 74, 31
9, 402720, Note_off_c, 7, 74, 64
9, 402720, Note_on_c, 7, 72, 40
9, 403104, Note_off_c, 7, 72, 64
9, 403680, Note_on_c, 7, 77, 40
9, 403920, Note_off_c, 7, 77, 64
9, 403920, Note_on_c, 7, 76, 40
9, 404040, Note_off_c, 7, 76, 64
9, 404040, Note_on_c, 7, 77, 40
9, 404160, Note_off_c, 7, 77, 64
9, 404160, Note_on_c, 7, 79, 40
9, 404256, Note_off_c, 7, 79, 64
9, 404400, Note_on_c, 7, 77, 40
9, 404496, Note_off_c, 7, 77, 64
9, 404640, Note_on_c, 7, 76, 40
9, 405024, Note_off_c, 7, 76, 64
9, 405600, Note_on_c, 7, 77, 40
9, 405840, Note_off_c, 7, 77, 64
9, 405840, Note_on_c, 7, 76, 40
9, 405960, Note_off_c, 7, 76, 64
9, 405960, Note_on_c, 7, 77, 40
9, 406080, Note_off_c, 7, 77, 64
9, 406080, Note_on_c, 7, 79, 40
9, 406176, Note_off_c, 7, 79, 64
9, 406320, Note_on_c, 7, 77, 40
9, 406416, Note_off_c, 7, 77, 64
9, 406560, Note_on_c, 7, 77, 40
9, 406800, Note_off_c, 7, 77, 64
9, 406800, Note_on_c, 7, 79, 40
9, 406920, Note_off_c, 7, 79, 64
9, 406920, Note_on_c, 7, 81, 40
9, 407040, Note_off_c, 7, 81, 64
9, 407040, Note_on_c, 7, 79, 40
9, 407136, Note_off_c, 7, 79, 64
9, 407280, Note_on_c, 7, 77, 40
9, 407376, Note_off_c, 7, 77, 64
9, 407520, Note_on_c, 7, 76, 40
9, 407760, Note_off_c, 7, 76, 64
9, 407760, Note_on_c, 7, 77, 40
9, 407880, Note_off_c, 7, 77, 64
9, 407880, Note_on_c, 7, 79, 40
9, 408000, Note_off_c, 7, 79, 64
9, 408000, Note_on_c, 7, 77, 40
9, 408096, Note_off_c, 7, 77, 64
9, 408240, Note_on_c, 7, 76, 40
9, 408336, Note_off_c, 7, 76, 64
9, 408480, Note_on_c, 7, 74, 40
9, 408720, Note_off_c, 7, 74, 64
9, 408720, Note_on_c, 7, 76, 40
9, 408840, Note_off_c, 7, 76, 64
9, 408840, Note_on_c, 7, 77, 40
9, 408960, Note_off_c, 7, 77, 64
9, 408960, Note_on_c, 7, 76, 40
9, 409056, Note_off_c, 7, 76, 64
9, 409200, Note_on_c, 7, 74, 40
9, 409296, Note_off_c, 7, 74, 64
9, 409440, Note_on_c, 7, 72, 27
9, 409536, Note_off_c, 7, 72, 64
9, 409560, Note_on_c, 7, 84, 27
9, 409656, Note_off_c, 7, 84, 64
9, 409680, Note_on_c, 7, 84, 27
9, 409776, Note_off_c, 7, 84, 64
9, 409800, Note_on_c, 7, 84, 27
9, 409896, Note_off_c, 7, 84, 64
9, 409920, Note_on_c, 7, 84, 27
9, 410016, Note_off_c, 7, 84, 64
9, 410040, Note_on_c, 7, 84, 27
9, 410136, Note_off_c, 7, 84, 64
9, 410160, Note_on_c, 7, 84, 27
9, 410256, Note_off_c, 7, 84, 64
9, 410280, Note_on_c, 7, 84, 27
9, 410376, Note_off_c, 7, 84, 64
9, 410400, Note_on_c, 7, 84, 27
9, 410496, Note_off_c, 7, 84, 64
9, 410520, Note_on_c, 7, 84, 27
9, 410616, Note_off_c, 7, 84, 64
9, 410640, Note_on_c, 7, 84, 27
9, 410736, Note_off_c, 7, 84, 64
9, 410760, Note_on_c, 7, 84, 27
9, 410856, Note_off_c, 7, 84, 64
9, 410880, Note_on_c, 7, 84, 27
9, 410976, Note_off_c, 7, 84, 64
9, 411000, Note_on_c, 7, 84, 27
9, 411096, Note_off_c, 7, 84, 64
9, 411120, Note_on_c, 7, 84, 27
9, 411216, Note_off_c, 7, 84, 64
9, 411240, Note_on_c, 7, 84, 27
9, 411336, Note_off_c, 7, 84, 64
9, 411360, Note_on_c, 7, 84, 27
9, 411456, Note_off_c, 7, 84, 64
9, 411480, Note_on_c, 7, 84, 27
9, 411576, Note_off_c, 7, 84, 64
9, 411600, Note_on_c, 7, 84, 27
9, 411696, Note_off_c, 7, 84, 64
9, 411720, Note_on_c, 7, 84, 27
9, 411816, Note_off_c, 7, 84, 64
9, 411840, Note_on_c, 7, 84, 27
9, 411936, Note_off_c, 7, 84, 64
9, 411960, Note_on_c, 7, 84, 27
9, 412056, Note_off_c, 7, 84, 64
9, 412080, Note_on_c, 7, 84, 27
9, 412176, Note_off_c, 7, 84, 64
9, 412200, Note_on_c, 7, 84, 27
9, 412296, Note_off_c, 7, 84, 64
9, 412320, Note_on_c, 7, 84, 27
9, 412416, Note_off_c, 7, 84, 64
9, 412440, Note_on_c, 7, 84, 27
9, 412536, Note_off_c, 7, 84, 64
9, 412560, Note_on_c, 7, 84, 27
9, 412656, Note_off_c, 7, 84, 64
9, 412680, Note_on_c, 7, 84, 27
9, 412776, Note_off_c, 7, 84, 64
9, 412800, Note_on_c, 7, 84, 27
9, 412896, Note_off_c, 7, 84, 64
9, 412920, Note_on_c, 7, 84, 27
9, 413016, Note_off_c, 7, 84, 64
9, 413040, Note_on_c, 7, 84, 27
9, 413136, Note_off_c, 7, 84, 64
9, 413160, Note_on_c, 7, 84, 27
9, 413256, Note_off_c, 7, 84, 64
9, 413280, Note_on_c, 7, 84, 27
9, 413376, Note_off_c, 7, 84, 64
9, 413400, Note_on_c, 7, 77, 27
9, 413496, Note_off_c, 7, 77, 64
9, 413520, Note_on_c, 7, 77, 27
9, 413616, Note_off_c, 7, 77, 64
9, 413640, Note_on_c, 7, 77, 27
9, 413736, Note_off_c, 7, 77, 64
9, 413760, Note_on_c, 7, 77, 27
9, 413856, Note_off_c, 7, 77, 64
9, 413880, Note_on_c, 7, 77, 27
9, 413976, Note_off_c, 7, 77, 64
9, 414000, Note_on_c, 7, 77, 27
9, 414096, Note_off_c, 7, 77, 64
9, 414120, Note_on_c, 7, 77, 27
9, 414216, Note_off_c, 7, 77, 64
9, 414240, Note_on_c, 7, 77, 30
9, 414336, Note_off_c, 7, 77, 64
9, 414360, Note_on_c, 7, 77, 30
9, 414456, Note_off_c, 7, 77, 64
9, 414480, Note_on_c, 7, 77, 30
9, 414576, Note_off_c, 7, 77, 64
9, 414600, Note_on_c, 7, 77, 30
9, 414696, Note_off_c, 7, 77, 64
9, 414720, Note_on_c, 7, 77, 30
9, 414816, Note_off_c, 7, 77, 64
9, 414840, Note_on_c, 7, 77, 30
9, 414936, Note_off_c, 7, 77, 64
9, 414960, Note_on_c, 7, 77, 30
9, 415056, Note_off_c, 7, 77, 64
9, 415080, Note_on_c, 7, 77, 30
9, 415176, Note_off_c, 7, 77, 64
9, 415200, Note_on_c, 7, 77, 30
9, 415296, Note_off_c, 7, 77, 64
9, 415320, Note_on_c, 7, 77, 30
9, 415416, Note_off_c, 7, 77, 64
9, 415440, Note_on_c, 7, 77, 30
9, 415536, Note_off_c, 7, 77, 64
9, 415560, Note_on_c, 7, 77, 30
9, 415656, Note_off_c, 7, 77, 64
9, 415680, Note_on_c, 7, 77, 30
9, 415776, Note_off_c, 7, 77, 64
9, 415800, Note_on_c, 7, 77, 30
9, 415896, Note_off_c, 7, 77, 64
9, 415920, Note_on_c, 7, 77, 30
9, 416016, Note_off_c, 7, 77, 64
9, 416040, Note_on_c, 7, 77, 30
9, 416136, Note_off_c, 7, 77, 64
9, 416160, Note_on_c, 7, 75, 30
9, 416256, Note_off_c, 7, 75, 64
9, 416280, Note_on_c, 7, 75, 30
9, 416376, Note_off_c, 7, 75, 64
9, 416400, Note_on_c, 7, 75, 30
9, 416496, Note_off_c, 7, 75, 64
9, 416520, Note_on_c, 7, 75, 30
9, 416616, Note_off_c, 7, 75, 64
9, 416640, Note_on_c, 7, 75, 30
9, 416736, Note_off_c, 7, 75, 64
9, 416760, Note_on_c, 7, 75, 30
9, 416856, Note_off_c, 7, 75, 64
9, 416880, Note_on_c, 7, 75, 30
9, 416976, Note_off_c, 7, 75, 64
9, 417000, Note_on_c, 7, 75, 30
9, 417096, Note_off_c, 7, 75, 64
9, 417120, Note_on_c, 7, 75, 30
9, 417216, Note_off_c, 7, 75, 64
9, 417240, Note_on_c, 7, 75, 30
9, 417336, Note_off_c, 7, 75, 64
9, 417360, Note_on_c, 7, 75, 30
9, 417456, Note_off_c, 7, 75, 64
9, 417480, Note_on_c, 7, 75, 30
9, 417576, Note_off_c, 7, 75, 64
9, 417600, Note_on_c, 7, 75, 30
9, 417696, Note_off_c, 7, 75, 64
9, 417720, Note_on_c, 7, 75, 30
9, 417816, Note_off_c, 7, 75, 64
9, 417840, Note_on_c, 7, 75, 30
9, 417936, Note_off_c, 7, 75, 64
9, 417960, Note_on_c, 7, 75, 30
9, 418056, Note_off_c, 7, 75, 64
9, 418080, Note_on_c, 7, 78, 30
9, 418176, Note_off_c, 7, 78, 64
9, 418200, Note_on_c, 7, 78, 30
9, 418296, Note_off_c, 7, 78, 64
9, 418320, Note_on_c, 7, 78, 30
9, 418416, Note_off_c, 7, 78, 64
9, 418440, Note_on_c, 7, 78, 30
9, 418536, Note_off_c, 7, 78, 64
9, 418560, Note_on_c, 7, 78, 30
9, 418656, Note_off_c, 7, 78, 64
9, 418680, Note_on_c, 7, 78, 30
9, 418776, Note_off_c, 7, 78, 64
9, 418800, Note_on_c, 7, 78, 30
9, 418896, Note_off_c, 7, 78, 64
9, 418920, Note_on_c, 7, 78, 30
9, 419016, Note_off_c, 7, 78, 64
9, 419040, Note_on_c, 7, 78, 30
9, 419136, Note_off_c, 7, 78, 64
9, 419160, Note_on_c, 7, 78, 30
9, 419256, Note_off_c, 7, 78, 64
9, 419280, Note_on_c, 7, 78, 30
9, 419376, Note_off_c, 7, 78, 64
9, 419400, Note_on_c, 7, 78, 30
9, 419496, Note_off_c, 7, 78, 64
9, 419520, Note_on_c, 7, 78, 30
9, 419616, Note_off_c, 7, 78, 64
9, 419640, Note_on_c, 7, 78, 30
9, 419736, Note_off_c, 7, 78, 64
9, 419760, Note_on_c, 7, 78, 30
9, 419856, Note_off_c, 7, 78, 64
9, 419880, Note_on_c, 7, 78, 30
9, 419976, Note_off_c, 7, 78, 64
9, 420000, Note_on_c, 7, 77, 30
9, 420096, Note_off_c, 7, 77, 64
9, 420120, Note_on_c, 7, 77, 30
9, 420216, Note_off_c, 7, 77, 64
9, 420240, Note_on_c, 7, 77, 30
9, 420336, Note_off_c, 7, 77, 64
9, 420360, Note_on_c, 7, 77, 30
9, 420456, Note_off_c, 7, 77, 64
9, 420480, Note_on_c, 7, 77, 30
9, 420576, Note_off_c, 7, 77, 64
9, 420600, Note_on_c, 7, 77, 30
9, 420696, Note_off_c, 7, 77, 64
9, 420720, Note_on_c, 7, 77, 30
9, 420816, Note_off_c, 7, 77, 64
9, 420840, Note_on_c, 7, 77, 30
9, 420936, Note_off_c, 7, 77, 64
9, 420960, Note_on_c, 7, 77, 30
9, 421056, Note_off_c, 7, 77, 64
9, 421080, Note_on_c, 7, 77, 30
9, 421176, Note_off_c, 7, 77, 64
9, 421200, Note_on_c, 7, 77, 30
9, 421296, Note_off_c, 7, 77, 64
9, 421320, Note_on_c, 7, 77, 30
9, 421416, Note_off_c, 7, 77, 64
9, 421440, Note_on_c, 7, 77, 30
9, 421536, Note_off_c, 7, 77, 64
9, 421560, Note_on_c, 7, 77, 30
9, 421656, Note_off_c, 7, 77, 64
9, 421680, Note_on_c, 7, 77, 30
9, 421776, Note_off_c, 7, 77, 64
9, 421800, Note_on_c, 7, 77, 30
9, 421896, Note_off_c, 7, 77, 64
9, 421920, Note_on_c, 7, 80, 30
9, 422016, Note_off_c, 7, 80, 64
9, 422040, Note_on_c, 7, 80, 30
9, 422136, Note_off_c, 7, 80, 64
9, 422160, Note_on_c, 7, 80, 30
9, 422256, Note_off_c, 7, 80, 64
9, 422280, Note_on_c, 7, 80, 30
9, 422376, Note_off_c, 7, 80, 64
9, 422400, Note_on_c, 7, 80, 30
9, 422496, Note_off_c, 7, 80, 64
9, 422520, Note_on_c, 7, 80, 30
9, 422616, Note_off_c, 7, 80, 64
9, 422640, Note_on_c, 7, 80, 30
9, 422736, Note_off_c, 7, 80, 64
9, 422760, Note_on_c, 7, 80, 30
9, 422856, Note_off_c, 7, 80, 64
9, 422880, Note_on_c, 7, 80, 30
9, 422976, Note_off_c, 7, 80, 64
9, 423000, Note_on_c, 7, 80, 30
9, 423096, Note_off_c, 7, 80, 64
9, 423120, Note_on_c, 7, 80, 30
9, 423216, Note_off_c, 7, 80, 64
9, 423240, Note_on_c, 7, 80, 30
9, 423336, Note_off_c, 7, 80, 64
9, 423360, Note_on_c, 7, 80, 30
9, 423456, Note_off_c, 7, 80, 64
9, 423480, Note_on_c, 7, 80, 30
9, 423576, Note_off_c, 7, 80, 64
9, 423600, Note_on_c, 7, 80, 30
9, 423696, Note_off_c, 7, 80, 64
9, 423720, Note_on_c, 7, 80, 30
9, 423816, Note_off_c, 7, 80, 64
9, 423840, Note_on_c, 7, 78, 30
9, 423936, Note_off_c, 7, 78, 64
9, 423960, Note_on_c, 7, 78, 30
9, 424056, Note_off_c, 7, 78, 64
9, 424080, Note_on_c, 7, 78, 30
9, 424176, Note_off_c, 7, 78, 64
9, 424200, Note_on_c, 7, 78, 30
9, 424296, Note_off_c, 7, 78, 64
9, 424320, Note_on_c, 7, 78, 30
9, 424416, Note_off_c, 7, 78, 64
9, 424440, Note_on_c, 7, 78, 30
9, 424536, Note_off_c, 7, 78, 64
9, 424560, Note_on_c, 7, 78, 30
9, 424656, Note_off_c, 7, 78, 64
9, 424680, Note_on_c, 7, 78, 30
9, 424776, Note_off_c, 7, 78, 64
9, 424800, Note_on_c, 7, 78, 30
9, 424896, Note_off_c, 7, 78, 64
9, 424920, Note_on_c, 7, 78, 30
9, 425016, Note_off_c, 7, 78, 64
9, 425040, Note_on_c, 7, 78, 30
9, 425136, Note_off_c, 7, 78, 64
9, 425160, Note_on_c, 7, 78, 30
9, 425256, Note_off_c, 7, 78, 64
9, 425280, Note_on_c, 7, 78, 30
9, 425376, Note_off_c, 7, 78, 64
9, 425400, Note_on_c, 7, 78, 30
9, 425496, Note_off_c, 7, 78, 64
9, 425520, Note_on_c, 7, 78, 30
9, 425616, Note_off_c, 7, 78, 64
9, 425640, Note_on_c, 7, 78, 30
9, 425736, Note_off_c, 7, 78, 64
9, 425760, Note_on_c, 7, 82, 30
9, 425856, Note_off_c, 7, 82, 64
9, 425880, Note_on_c, 7, 82, 30
9, 425976, Note_off_c, 7, 82, 64
9, 426000, Note_on_c, 7, 82, 30
9, 426096, Note_off_c, 7, 82, 64
9, 426120, Note_on_c, 7, 82, 30
9, 426216, Note_off_c, 7, 82, 64
9, 426240, Note_on_c, 7, 82, 30
9, 426336, Note_off_c, 7, 82, 64
9, 426360, Note_on_c, 7, 82, 30
9, 426456, Note_off_c, 7, 82, 64
9, 426480, Note_on_c, 7, 82, 30
9, 426576, Note_off_c, 7, 82, 64
9, 426600, Note_on_c, 7, 82, 30
9, 426696, Note_off_c, 7, 82, 64
9, 426720, Note_on_c, 7, 82, 30
9, 426816, Note_off_c, 7, 82, 64
9, 426840, Note_on_c, 7, 82, 30
9, 426936, Note_off_c, 7, 82, 64
9, 426960, Note_on_c, 7, 82, 30
9, 427056, Note_off_c, 7, 82, 64
9, 427080, Note_on_c, 7, 82, 30
9, 427176, Note_off_c, 7, 82, 64
9, 427200, Note_on_c, 7, 82, 30
9, 427296, Note_off_c, 7, 82, 64
9, 427320, Note_on_c, 7, 82, 30
9, 427416, Note_off_c, 7, 82, 64
9, 427440, Note_on_c, 7, 82, 30
9, 427536, Note_off_c, 7, 82, 64
9, 427560, Note_on_c, 7, 82, 30
9, 427656, Note_off_c, 7, 82, 64
9, 427680, Note_on_c, 7, 80, 30
9, 427776, Note_off_c, 7, 80, 64
9, 427800, Note_on_c, 7, 80, 30
9, 427896, Note_off_c, 7, 80, 64
9, 427920, Note_on_c, 7, 80, 30
9, 428016, Note_off_c, 7, 80, 64
9, 428040, Note_on_c, 7, 80, 30
9, 428136, Note_off_c, 7, 80, 64
9, 428160, Note_on_c, 7, 80, 30
9, 428256, Note_off_c, 7, 80, 64
9, 428280, Note_on_c, 7, 80, 30
9, 428376, Note_off_c, 7, 80, 64
9, 428400, Note_on_c, 7, 80, 30
9, 428496, Note_off_c, 7, 80, 64
9, 428520, Note_on_c, 7, 80, 30
9, 428616, Note_off_c, 7, 80, 64
9, 428640, Note_on_c, 7, 77, 34
9, 428736, Note_off_c, 7, 77, 64
9, 428760, Note_on_c, 7, 77, 35
9, 428856, Note_off_c, 7, 77, 64
9, 428880, Note_on_c, 7, 77, 36
9, 428976, Note_off_c, 7, 77, 64
9, 429000, Note_on_c, 7, 77, 38
9, 429096, Note_off_c, 7, 77, 64
9, 429120, Note_on_c, 7, 77, 39
9, 429216, Note_off_c, 7, 77, 64
9, 429240, Note_on_c, 7, 77, 40
9, 429336, Note_off_c, 7, 77, 64
9, 429360, Note_on_c, 7, 77, 42
9, 429456, Note_off_c, 7, 77, 64
9, 429480, Note_on_c, 7, 77, 43
9, 429576, Note_off_c, 7, 77, 64
9, 429600, Note_on_c, 7, 77, 45
9, 429696, Note_off_c, 7, 77, 64
9, 429720, Note_on_c, 7, 77, 46
9, 429816, Note_off_c, 7, 77, 64
9, 429840, Note_on_c, 7, 77, 47
9, 429936, Note_off_c, 7, 77, 64
9, 429960, Note_on_c, 7, 77, 49
9, 430056, Note_off_c, 7, 77, 64
9, 430080, Note_on_c, 7, 77, 50
9, 430176, Note_off_c, 7, 77, 64
9, 430200, Note_on_c, 7, 77, 51
9, 430296, Note_off_c, 7, 77, 64
9, 430320, Note_on_c, 7, 77, 53
9, 430416, Note_off_c, 7, 77, 64
9, 430440, Note_on_c, 7, 77, 54
9, 430536, Note_off_c, 7, 77, 64
9, 430560, Note_on_c, 7, 77, 55
9, 430656, Note_off_c, 7, 77, 64
9, 430680, Note_on_c, 7, 77, 57
9, 430776, Note_off_c, 7, 77, 64
9, 430800, Note_on_c, 7, 77, 58
9, 430896, Note_off_c, 7, 77, 64
9, 430920, Note_on_c, 7, 77, 60
9, 431016, Note_off_c, 7, 77, 64
9, 431040, Note_on_c, 7, 77, 61
9, 431136, Note_off_c, 7, 77, 64
9, 431160, Note_on_c, 7, 77, 62
9, 431256, Note_off_c, 7, 77, 64
9, 431280, Note_on_c, 7, 77, 64
9, 431376, Note_off_c, 7, 77, 64
9, 431400, Note_on_c, 7, 77, 65
9, 431496, Note_off_c, 7, 77, 64
9, 431520, Note_on_c, 7, 77, 66
9, 431616, Note_off_c, 7, 77, 64
9, 431640, Note_on_c, 7, 77, 68
9, 431736, Note_off_c, 7, 77, 64
9, 431760, Note_on_c, 7, 77, 69
9, 431856, Note_off_c, 7, 77, 64
9, 431880, Note_on_c, 7, 77, 70
9, 431976, Note_off_c, 7, 77, 64
9, 432000, Note_on_c, 7, 77, 72
9, 432096, Note_off_c, 7, 77, 64
9, 432120, Note_on_c, 7, 77, 73
9, 432216, Note_off_c, 7, 77, 64
9, 432240, Note_on_c, 7, 77, 75
9, 432336, Note_off_c, 7, 77, 64
9, 432360, Note_on_c, 7, 77, 76
9, 432456, Note_off_c, 7, 77, 64
9, 432480, Note_on_c, 7, 83, 77
9, 432576, Note_off_c, 7, 83, 64
9, 432600, Note_on_c, 7, 83, 79
9, 432696, Note_off_c, 7, 83, 64
9, 432720, Note_on_c, 7, 83, 80
9, 432816, Note_off_c, 7, 83, 64
9, 432840, Note_on_c, 7, 83, 81
9, 432936, Note_off_c, 7, 83, 64
9, 432960, Note_on_c, 7, 83, 83
9, 433056, Note_off_c, 7, 83, 64
9, 433080, Note_on_c, 7, 83, 84
9, 433176, Note_off_c, 7, 83, 64
9, 433200, Note_on_c, 7, 83, 85
9, 433296, Note_off_c, 7, 83, 64
9, 433320, Note_on_c, 7, 83, 87
9, 433416, Note_off_c, 7, 83, 64
9, 433440, Note_on_c, 7, 84, 127
9, 433536, Note_off_c, 7, 84, 64
9, 433560, Note_on_c, 7, 84, 90
9, 433656, Note_off_c, 7, 84, 64
9, 433680, Note_on_c, 7, 84, 90
9, 433776, Note_off_c, 7, 84, 64
9, 433800, Note_on_c, 7, 84, 90
9, 433896, Note_off_c, 7, 84, 64
9, 433920, Note_on_c, 7, 84, 90
9, 434016, Note_off_c, 7, 84, 64
9, 434040, Note_on_c, 7, 84, 90
9, 434136, Note_off_c, 7, 84, 64
9, 434160, Note_on_c, 7, 84, 90
9, 434256, Note_off_c, 7, 84, 64
9, 434280, Note_on_c, 7, 84, 90
9, 434376, Note_off_c, 7, 84, 64
9, 434400, Note_on_c, 7, 83, 127
9, 434496, Note_off_c, 7, 83, 64
9, 434520, Note_on_c, 7, 83, 90
9, 434616, Note_off_c, 7, 83, 64
9, 434640, Note_on_c, 7, 83, 90
9, 434736, Note_off_c, 7, 83, 64
9, 434760, Note_on_c, 7, 83, 90
9, 434856, Note_off_c, 7, 83, 64
9, 434880, Note_on_c, 7, 83, 90
9, 434976, Note_off_c, 7, 83, 64
9, 435000, Note_on_c, 7, 83, 90
9, 435096, Note_off_c, 7, 83, 64
9, 435120, Note_on_c, 7, 83, 90
9, 435216, Note_off_c, 7, 83, 64
9, 435240, Note_on_c, 7, 83, 90
9, 435336, Note_off_c, 7, 83, 64
9, 435360, Note_on_c, 7, 84, 127
9, 435456, Note_off_c, 7, 84, 64
9, 435480, Note_on_c, 7, 84, 90
9, 435576, Note_off_c, 7, 84, 64
9, 435600, Note_on_c, 7, 84, 90
9, 435696, Note_off_c, 7, 84, 64
9, 435720, Note_on_c, 7, 84, 90
9, 435816, Note_off_c, 7, 84, 64
9, 435840, Note_on_c, 7, 84, 90
9, 435936, Note_off_c, 7, 84, 64
9, 435960, Note_on_c, 7, 84, 90
9, 436056, Note_off_c, 7, 84, 64
9, 436080, Note_on_c, 7, 84, 90
9, 436176, Note_off_c, 7, 84, 64
9, 436200, Note_on_c, 7, 84, 90
9, 436296, Note_off_c, 7, 84, 64
9, 436320, Note_on_c, 7, 83, 127
9, 436416, Note_off_c, 7, 83, 64
9, 436440, Note_on_c, 7, 83, 90
9, 436536, Note_off_c, 7, 83, 64
9, 436560, Note_on_c, 7, 83, 90
9, 436656, Note_off_c, 7, 83, 64
9, 436680, Note_on_c, 7, 83, 90
9, 436776, Note_off_c, 7, 83, 64
9, 436800, Note_on_c, 7, 83, 90
9, 436896, Note_off_c, 7, 83, 64
9, 436920, Note_on_c, 7, 83, 90
9, 437016, Note_off_c, 7, 83, 64
9, 437040, Note_on_c, 7, 83, 90
9, 437136, Note_off_c, 7, 83, 64
9, 437160, Note_on_c, 7, 83, 90
9, 437256, Note_off_c, 7, 83, 64
9, 437280, Note_on_c, 7, 84, 99
9, 437376, Note_off_c, 7, 84, 64
9, 437400, Note_on_c, 7, 88, 99
9, 437496, Note_off_c, 7, 88, 64
9, 437520, Note_on_c, 7, 88, 99
9, 437616, Note_off_c, 7, 88, 64
9, 437640, Note_on_c, 7, 88, 99
9, 437736, Note_off_c, 7, 88, 64
9, 437760, Note_on_c, 7, 89, 99
9, 437856, Note_off_c, 7, 89, 64
9, 437880, Note_on_c, 7, 89, 99
9, 437976, Note_off_c, 7, 89, 64
9, 438000, Note_on_c, 7, 88, 99
9, 438096, Note_off_c, 7, 88, 64
9, 438120, Note_on_c, 7, 88, 99
9, 438216, Note_off_c, 7, 88, 64
9, 438240, Note_on_c, 7, 86, 99
9, 438336, Note_off_c, 7, 86, 64
9, 438360, Note_on_c, 7, 86, 99
9, 438456, Note_off_c, 7, 86, 64
9, 438480, Note_on_c, 7, 84, 99
9, 438576, Note_off_c, 7, 84, 64
9, 438600, Note_on_c, 7, 86, 99
9, 438696, Note_off_c, 7, 86, 64
9, 438720, Note_on_c, 7, 88, 99
9, 438816, Note_off_c, 7, 88, 64
9, 438840, Note_on_c, 7, 88, 99
9, 438936, Note_off_c, 7, 88, 64
9, 438960, Note_on_c, 7, 86, 99
9, 439056, Note_off_c, 7, 86, 64
9, 439080, Note_on_c, 7, 86, 99
9, 439176, Note_off_c, 7, 86, 64
9, 439200, Note_on_c, 7, 84, 99
9, 439296, Note_off_c, 7, 84, 64
9, 439320, Note_on_c, 7, 84, 99
9, 439416, Note_off_c, 7, 84, 64
9, 439440, Note_on_c, 7, 83, 99
9, 439536, Note_off_c, 7, 83, 64
9, 439560, Note_on_c, 7, 84, 99
9, 439656, Note_off_c, 7, 84, 64
9, 439680, Note_on_c, 7, 86, 99
9, 439776, Note_off_c, 7, 86, 64
9, 439800, Note_on_c, 7, 86, 99
9, 439896, Note_off_c, 7, 86, 64
9, 439920, Note_on_c, 7, 84, 99
9, 440016, Note_off_c, 7, 84, 64
9, 440040, Note_on_c, 7, 84, 99
9, 440136, Note_off_c, 7, 84, 64
9, 440160, Note_on_c, 7, 83, 99
9, 440256, Note_off_c, 7, 83, 64
9, 440280, Note_on_c, 7, 83, 99
9, 440376, Note_off_c, 7, 83, 64
9, 440400, Note_on_c, 7, 81, 99
9, 440496, Note_off_c, 7, 81, 64
9, 440520, Note_on_c, 7, 83, 99
9, 440616, Note_off_c, 7, 83, 64
9, 440640, Note_on_c, 7, 84, 99
9, 440736, Note_off_c, 7, 84, 64
9, 440760, Note_on_c, 7, 84, 99
9, 440856, Note_off_c, 7, 84, 64
9, 440880, Note_on_c, 7, 83, 99
9, 440976, Note_off_c, 7, 83, 64
9, 441000, Note_on_c, 7, 83, 99
9, 441096, Note_off_c, 7, 83, 64
9, 441120, Note_on_c, 7, 81, 99
9, 441216, Note_off_c, 7, 81, 64
9, 441240, Note_on_c, 7, 81, 99
9, 441336, Note_off_c, 7, 81, 64
9, 441360, Note_on_c, 7, 79, 99
9, 441456, Note_off_c, 7, 79, 64
9, 441480, Note_on_c, 7, 81, 99
9, 441576, Note_off_c, 7, 81, 64
9, 441600, Note_on_c, 7, 83, 99
9, 441696, Note_off_c, 7, 83, 64
9, 441720, Note_on_c, 7, 83, 99
9, 441816, Note_off_c, 7, 83, 64
9, 441840, Note_on_c, 7, 81, 99
9, 441936, Note_off_c, 7, 81, 64
9, 441960, Note_on_c, 7, 81, 99
9, 442056, Note_off_c, 7, 81, 64
9, 442080, Note_on_c, 7, 79, 99
9, 442176, Note_off_c, 7, 79, 64
9, 442200, Note_on_c, 7, 79, 99
9, 442296, Note_off_c, 7, 79, 64
9, 442320, Note_on_c, 7, 77, 99
9, 442416, Note_off_c, 7, 77, 64
9, 442440, Note_on_c, 7, 79, 99
9, 442536, Note_off_c, 7, 79, 64
9, 442560, Note_on_c, 7, 81, 99
9, 442656, Note_off_c, 7, 81, 64
9, 442680, Note_on_c, 7, 81, 99
9, 442776, Note_off_c, 7, 81, 64
9, 442800, Note_on_c, 7, 79, 99
9, 442896, Note_off_c, 7, 79, 64
9, 442920, Note_on_c, 7, 79, 99
9, 443016, Note_off_c, 7, 79, 64
9, 443040, Note_on_c, 7, 77, 99
9, 443136, Note_off_c, 7, 77, 64
9, 443160, Note_on_c, 7, 77, 99
9, 443256, Note_off_c, 7, 77, 64
9, 443280, Note_on_c, 7, 77, 99
9, 443376, Note_off_c, 7, 77, 64
9, 443400, Note_on_c, 7, 77, 99
9, 443496, Note_off_c, 7, 77, 64
9, 443520, Note_on_c, 7, 76, 99
9, 443616, Note_off_c, 7, 76, 64
9, 443640, Note_on_c, 7, 76, 99
9, 443736, Note_off_c, 7, 76, 64
9, 443760, Note_on_c, 7, 84, 99
9, 443856, Note_off_c, 7, 84, 64
9, 443880, Note_on_c, 7, 84, 99
9, 443976, Note_off_c, 7, 84, 64
9, 444000, Note_on_c, 7, 84, 99
9, 444096, Note_off_c, 7, 84, 64
9, 444120, Note_on_c, 7, 84, 99
9, 444216, Note_off_c, 7, 84, 64
9, 444240, Note_on_c, 7, 83, 99
9, 444336, Note_off_c, 7, 83, 64
9, 444360, Note_on_c, 7, 83, 99
9, 444456, Note_off_c, 7, 83, 64
9, 444480, Note_on_c, 7, 84, 99
9, 444672, Note_off_c, 7, 84, 64
9, 444720, Note_on_c, 7, 84, 99
9, 444834, Note_off_c, 7, 84, 64
9, 444900, Note_on_c, 7, 88, 80
9, 444948, Note_off_c, 7, 88, 64
9, 444960, Note_on_c, 7, 86, 120
9, 445056, Note_off_c, 7, 86, 64
9, 445200, Note_on_c, 7, 84, 80
9, 445272, Note_off_c, 7, 84, 64
9, 445380, Note_on_c, 7, 88, 80
9, 445440, Note_off_c, 7, 88, 64
9, 445440, Note_on_c, 7, 86, 120
9, 445536, Note_off_c, 7, 86, 64
9, 445680, Note_on_c, 7, 84, 80
9, 445752, Note_off_c, 7, 84, 64
9, 445860, Note_on_c, 7, 88, 80
9, 445920, Note_off_c, 7, 88, 64
9, 445920, Note_on_c, 7, 86, 120
9, 446016, Note_off_c, 7, 86, 64
9, 446160, Note_on_c, 7, 84, 80
9, 446232, Note_off_c, 7, 84, 64
9, 446640, Note_on_c, 7, 86, 80
9, 446712, Note_off_c, 7, 86, 64
9, 446820, Note_on_c, 7, 89, 80
9, 446880, Note_off_c, 7, 89, 64
9, 446880, Note_on_c, 7, 88, 120
9, 446976, Note_off_c, 7, 88, 64
9, 447120, Note_on_c, 7, 86, 80
9, 447192, Note_off_c, 7, 86, 64
9, 447300, Note_on_c, 7, 89, 80
9, 447360, Note_off_c, 7, 89, 64
9, 447360, Note_on_c, 7, 88, 120
9, 447456, Note_off_c, 7, 88, 64
9, 447600, Note_on_c, 7, 86, 80
9, 447672, Note_off_c, 7, 86, 64
9, 447780, Note_on_c, 7, 89, 80
9, 447840, Note_off_c, 7, 89, 64
9, 447840, Note_on_c, 7, 88, 120
9, 447936, Note_off_c, 7, 88, 64
9, 448080, Note_on_c, 7, 86, 80
9, 448152, Note_off_c, 7, 86, 64
9, 448560, Note_on_c, 7, 76, 100
9, 448632, Note_off_c, 7, 76, 64
9, 448740, Note_on_c, 7, 79, 100
9, 448800, Note_off_c, 7, 79, 64
9, 448800, Note_on_c, 7, 77, 127
9, 448896, Note_off_c, 7, 77, 64
9, 449040, Note_on_c, 7, 76, 100
9, 449112, Note_off_c, 7, 76, 64
9, 449220, Note_on_c, 7, 79, 100
9, 449280, Note_off_c, 7, 79, 64
9, 449280, Note_on_c, 7, 77, 127
9, 449376, Note_off_c, 7, 77, 64
9, 449520, Note_on_c, 7, 76, 100
9, 449592, Note_off_c, 7, 76, 64
9, 449700, Note_on_c, 7, 79, 100
9, 449760, Note_off_c, 7, 79, 64
9, 449760, Note_on_c, 7, 77, 127
9, 449856, Note_off_c, 7, 77, 64
9, 450000, Note_on_c, 7, 76, 100
9, 450072, Note_off_c, 7, 76, 64
9, 450180, Note_on_c, 7, 79, 100
9, 450240, Note_off_c, 7, 79, 64
9, 450240, Note_on_c, 7, 77, 127
9, 450336, Note_off_c, 7, 77, 64
9, 450480, Note_on_c, 7, 78, 100
9, 450552, Note_off_c, 7, 78, 64
9, 450720, Note_on_c, 7, 64, 102
9, 450720, Note_on_c, 7, 79, 102
9, 450912, Note_off_c, 7, 79, 64
9, 450912, Note_off_c, 7, 64, 64
9, 451200, Note_on_c, 7, 69, 102
9, 451200, Note_on_c, 7, 84, 122
9, 451392, Note_off_c, 7, 84, 64
9, 451392, Note_off_c, 7, 69, 64
9, 451680, Note_on_c, 7, 74, 102
9, 451872, Note_off_c, 7, 74, 64
9, 452160, Note_on_c, 7, 79, 122
9, 452160, Note_on_c, 7, 62, 102
9, 452160, Note_on_c, 7, 71, 102
9, 452352, Note_off_c, 7, 71, 64
9, 452352, Note_off_c, 7, 62, 64
9, 452352, Note_off_c, 7, 79, 64
9, 453600, Note_on_c, 7, 65, 28
9, 453696, Note_off_c, 7, 65, 64
9, 453840, Note_on_c, 7, 64, 28
9, 453960, Note_off_c, 7, 64, 64
9, 453960, Note_on_c, 7, 65, 28
9, 454080, Note_off_c, 7, 65, 64
9, 454080, Note_on_c, 7, 67, 28
9, 454176, Note_off_c, 7, 67, 64
9, 454320, Note_on_c, 7, 65, 28
9, 454416, Note_off_c, 7, 65, 64
9, 454560, Note_on_c, 7, 64, 28
9, 454944, Note_off_c, 7, 64, 64
9, 455520, Note_on_c, 7, 69, 28
9, 455616, Note_off_c, 7, 69, 64
9, 455760, Note_on_c, 7, 67, 28
9, 455880, Note_off_c, 7, 67, 64
9, 455880, Note_on_c, 7, 69, 28
9, 456000, Note_off_c, 7, 69, 64
9, 456000, Note_on_c, 7, 71, 28
9, 456096, Note_off_c, 7, 71, 64
9, 456240, Note_on_c, 7, 69, 28
9, 456336, Note_off_c, 7, 69, 64
9, 456480, Note_on_c, 7, 67, 28
9, 456864, Note_off_c, 7, 67, 64
9, 457440, Note_on_c, 7, 77, 34
9, 457536, Note_off_c, 7, 77, 64
9, 457680, Note_on_c, 7, 76, 34
9, 457800, Note_off_c, 7, 76, 64
9, 457800, Note_on_c, 7, 77, 34
9, 457920, Note_off_c, 7, 77, 64
9, 457920, Note_on_c, 7, 79, 34
9, 458016, Note_off_c, 7, 79, 64
9, 458160, Note_on_c, 7, 77, 34
9, 458256, Note_off_c, 7, 77, 64
9, 458400, Note_on_c, 7, 76, 41
9, 458496, Note_off_c, 7, 76, 64
9, 458640, Note_on_c, 7, 74, 41
9, 458760, Note_off_c, 7, 74, 64
9, 458760, Note_on_c, 7, 76, 41
9, 458880, Note_off_c, 7, 76, 64
9, 458880, Note_on_c, 7, 77, 41
9, 458976, Note_off_c, 7, 77, 64
9, 459120, Note_on_c, 7, 76, 41
9, 459216, Note_off_c, 7, 76, 64
9, 459360, Note_on_c, 7, 81, 49
9, 459456, Note_off_c, 7, 81, 64
9, 459600, Note_on_c, 7, 79, 49
9, 459720, Note_off_c, 7, 79, 64
9, 459720, Note_on_c, 7, 81, 49
9, 459840, Note_off_c, 7, 81, 64
9, 459840, Note_on_c, 7, 83, 49
9, 459936, Note_off_c, 7, 83, 64
9, 460080, Note_on_c, 7, 81, 49
9, 460176, Note_off_c, 7, 81, 64
9, 460320, Note_on_c, 7, 79, 60
9, 460416, Note_off_c, 7, 79, 64
9, 460560, Note_on_c, 7, 84, 60
9, 460656, Note_off_c, 7, 84, 64
9, 460800, Note_on_c, 7, 83, 60
9, 461040, Note_off_c, 7, 83, 64
9, 461040, Note_on_c, 7, 81, 60
9, 461160, Note_off_c, 7, 81, 64
9, 461160, Note_on_c, 7, 83, 60
9, 461280, Note_off_c, 7, 83, 64
9, 461280, Note_on_c, 7, 84, 60
9, 461376, Note_off_c, 7, 84, 64
9, 461520, Note_on_c, 7, 79, 60
9, 461616, Note_off_c, 7, 79, 64
9, 461760, Note_on_c, 7, 81, 60
9, 462000, Note_off_c, 7, 81, 64
9, 462000, Note_on_c, 7, 83, 60
9, 462120, Note_off_c, 7, 83, 64
9, 462120, Note_on_c, 7, 81, 60
9, 462240, Note_off_c, 7, 81, 64
9, 462240, Note_on_c, 7, 79, 50
9, 462336, Note_off_c, 7, 79, 64
9, 462480, Note_on_c, 7, 84, 53
9, 462576, Note_off_c, 7, 84, 64
9, 462720, Note_on_c, 7, 83, 54
9, 462960, Note_off_c, 7, 83, 64
9, 462960, Note_on_c, 7, 81, 56
9, 463080, Note_off_c, 7, 81, 64
9, 463080, Note_on_c, 7, 83, 58
9, 463200, Note_off_c, 7, 83, 64
9, 463200, Note_on_c, 7, 84, 59
9, 463296, Note_off_c, 7, 84, 64
9, 463440, Note_on_c, 7, 79, 61
9, 463536, Note_off_c, 7, 79, 64
9, 463680, Note_on_c, 7, 81, 63
9, 463920, Note_off_c, 7, 81, 64
9, 463920, Note_on_c, 7, 83, 65
9, 464040, Note_off_c, 7, 83, 64
9, 464040, Note_on_c, 7, 81, 66
9, 464160, Note_off_c, 7, 81, 64
9, 464160, Note_on_c, 7, 83, 65
9, 464256, Note_off_c, 7, 83, 64
9, 464400, Note_on_c, 7, 88, 67
9, 464496, Note_off_c, 7, 88, 64
9, 464640, Note_on_c, 7, 86, 68
9, 464880, Note_off_c, 7, 86, 64
9, 464880, Note_on_c, 7, 88, 71
9, 465000, Note_off_c, 7, 88, 64
9, 465000, Note_on_c, 7, 86, 72
9, 465120, Note_off_c, 7, 86, 64
9, 465120, Note_on_c, 7, 88, 73
9, 465216, Note_off_c, 7, 88, 64
9, 465360, Note_on_c, 7, 84, 76
9, 465456, Note_off_c, 7, 84, 64
9, 465600, Note_on_c, 7, 84, 77
9, 465840, Note_off_c, 7, 84, 64
9, 465840, Note_on_c, 7, 86, 79
9, 465960, Note_off_c, 7, 86, 64
9, 465960, Note_on_c, 7, 84, 80
9, 466080, Note_off_c, 7, 84, 64
9, 466080, Note_on_c, 7, 83, 82
9, 466176, Note_off_c, 7, 83, 64
9, 466320, Note_on_c, 7, 88, 84
9, 466416, Note_off_c, 7, 88, 64
9, 466560, Note_on_c, 7, 86, 85
9, 466800, Note_off_c, 7, 86, 64
9, 466800, Note_on_c, 7, 88, 88
9, 466920, Note_off_c, 7, 88, 64
9, 466920, Note_on_c, 7, 86, 89
9, 467040, Note_off_c, 7, 86, 64
9, 467040, Note_on_c, 7, 88, 90
9, 467136, Note_off_c, 7, 88, 64
9, 467280, Note_on_c, 7, 84, 92
9, 467376, Note_off_c, 7, 84, 64
9, 467520, Note_on_c, 7, 84, 94
9, 467760, Note_off_c, 7, 84, 64
9, 467760, Note_on_c, 7, 86, 96
9, 467880, Note_off_c, 7, 86, 64
9, 467880, Note_on_c, 7, 84, 97
9, 468000, Note_off_c, 7, 84, 64
9, 468000, Note_on_c, 7, 74, 118
9, 468096, Note_off_c, 7, 74, 64
9, 468240, Note_on_c, 7, 79, 121
9, 468336, Note_off_c, 7, 79, 64
9, 468480, Note_on_c, 7, 77, 122
9, 468720, Note_off_c, 7, 77, 64
9, 468720, Note_on_c, 7, 79, 125
9, 468840, Note_off_c, 7, 79, 64
9, 468840, Note_on_c, 7, 77, 127
9, 468960, Note_off_c, 7, 77, 64
9, 468960, Note_on_c, 7, 79, 127
9, 469056, Note_off_c, 7, 79, 64
9, 469200, Note_on_c, 7, 76, 127
9, 469296, Note_off_c, 7, 76, 64
9, 469440, Note_on_c, 7, 76, 127
9, 469680, Note_off_c, 7, 76, 64
9, 469680, Note_on_c, 7, 77, 127
9, 469800, Note_off_c, 7, 77, 64
9, 469800, Note_on_c, 7, 76, 127
9, 469920, Note_off_c, 7, 76, 64
9, 469920, Note_on_c, 7, 74, 115
9, 470016, Note_off_c, 7, 74, 64
9, 470160, Note_on_c, 7, 79, 118
9, 470256, Note_off_c, 7, 79, 64
9, 470400, Note_on_c, 7, 77, 119
9, 470640, Note_off_c, 7, 77, 64
9, 470640, Note_on_c, 7, 79, 121
9, 470760, Note_off_c, 7, 79, 64
9, 470760, Note_on_c, 7, 77, 122
9, 470880, Note_off_c, 7, 77, 64
9, 470880, Note_on_c, 7, 79, 124
9, 470994, Note_off_c, 7, 79, 64
9, 471360, Note_on_c, 7, 84, 106
9, 472608, Note_off_c, 7, 84, 64
9, 472800, Note_on_c, 7, 81, 127
9, 473040, Note_off_c, 7, 81, 64
9, 473040, Note_on_c, 7, 82, 127
9, 473160, Note_off_c, 7, 82, 64
9, 473160, Note_on_c, 7, 84, 127
9, 473280, Note_off_c, 7, 84, 64
9, 473280, Note_on_c, 7, 86, 127
9, 473376, Note_off_c, 7, 86, 64
9, 473520, Note_on_c, 7, 86, 127
9, 473616, Note_off_c, 7, 86, 64
9, 473760, Note_on_c, 7, 79, 127
9, 474000, Note_off_c, 7, 79, 64
9, 474000, Note_on_c, 7, 81, 127
9, 474120, Note_off_c, 7, 81, 64
9, 474120, Note_on_c, 7, 82, 127
9, 474240, Note_off_c, 7, 82, 64
9, 474240, Note_on_c, 7, 84, 127
9, 474336, Note_off_c, 7, 84, 64
9, 474480, Note_on_c, 7, 72, 127
9, 474600, Note_off_c, 7, 72, 64
9, 474600, Note_on_c, 7, 74, 127
9, 474720, Note_off_c, 7, 74, 64
9, 474720, Note_on_c, 7, 76, 127
9, 474816, Note_off_c, 7, 76, 64
9, 474960, Note_on_c, 7, 76, 127
9, 475080, Note_off_c, 7, 76, 64
9, 475080, Note_on_c, 7, 77, 127
9, 475200, Note_off_c, 7, 77, 64
9, 475200, Note_on_c, 7, 79, 127
9, 475296, Note_off_c, 7, 79, 64
9, 475440, Note_on_c, 7, 81, 127
9, 475560, Note_off_c, 7, 81, 64
9, 475560, Note_on_c, 7, 82, 127
9, 475680, Note_off_c, 7, 82, 64
9, 475680, Note_on_c, 7, 84, 127
9, 476448, Note_off_c, 7, 84, 64
9, 476640, Note_on_c, 7, 81, 127
9, 476736, Note_off_c, 7, 81, 64
9, 476760, Note_on_c, 7, 82, 127
9, 476856, Note_off_c, 7, 82, 64
9, 476880, Note_on_c, 7, 84, 127
9, 476976, Note_off_c, 7, 84, 64
9, 477000, Note_on_c, 7, 81, 127
9, 477096, Note_off_c, 7, 81, 64
9, 477120, Note_on_c, 7, 86, 127
9, 477216, Note_off_c, 7, 86, 64
9, 477240, Note_on_c, 7, 86, 127
9, 477336, Note_off_c, 7, 86, 64
9, 477360, Note_on_c, 7, 86, 127
9, 477456, Note_off_c, 7, 86, 64
9, 477480, Note_on_c, 7, 86, 127
9, 477576, Note_off_c, 7, 86, 64
9, 477600, Note_on_c, 7, 79, 127
9, 477600, Note_on_c, 7, 79, 99
9, 477696, Note_off_c, 7, 79, 64
9, 477696, Note_off_c, 7, 79, 64
9, 477720, Note_on_c, 7, 81, 127
9, 477816, Note_off_c, 7, 81, 64
9, 477840, Note_on_c, 7, 82, 127
9, 477936, Note_off_c, 7, 82, 64
9, 477960, Note_on_c, 7, 81, 127
9, 478056, Note_off_c, 7, 81, 64
9, 478080, Note_on_c, 7, 79, 127
9, 478176, Note_off_c, 7, 79, 64
9, 478200, Note_on_c, 7, 76, 127
9, 478296, Note_off_c, 7, 76, 64
9, 478320, Note_on_c, 7, 77, 127
9, 478416, Note_off_c, 7, 77, 64
9, 478440, Note_on_c, 7, 79, 127
9, 478536, Note_off_c, 7, 79, 64
9, 478560, Note_on_c, 7, 81, 127
9, 478656, Note_off_c, 7, 81, 64
9, 478680, Note_on_c, 7, 82, 127
9, 478776, Note_off_c, 7, 82, 64
9, 478800, Note_on_c, 7, 81, 127
9, 478896, Note_off_c, 7, 81, 64
9, 478920, Note_on_c, 7, 79, 127
9, 479016, Note_off_c, 7, 79, 64
9, 479040, Note_on_c, 7, 77, 127
9, 479136, Note_off_c, 7, 77, 64
9, 479160, Note_on_c, 7, 76, 127
9, 479256, Note_off_c, 7, 76, 64
9, 479280, Note_on_c, 7, 74, 127
9, 479376, Note_off_c, 7, 74, 64
9, 479400, Note_on_c, 7, 72, 127
9, 479496, Note_off_c, 7, 72, 64
9, 479520, Note_on_c, 7, 71, 127
9, 479616, Note_off_c, 7, 71, 64
9, 479640, Note_on_c, 7, 79, 99
9, 479736, Note_off_c, 7, 79, 64
9, 479760, Note_on_c, 7, 79, 99
9, 479856, Note_off_c, 7, 79, 64
9, 479880, Note_on_c, 7, 79, 99
9, 479976, Note_off_c, 7, 79, 64
9, 480000, Note_on_c, 7, 79, 99
9, 480096, Note_off_c, 7, 79, 64
9, 480120, Note_on_c, 7, 79, 99
9, 480216, Note_off_c, 7, 79, 64
9, 480240, Note_on_c, 7, 79, 99
9, 480336, Note_off_c, 7, 79, 64
9, 480360, Note_on_c, 7, 79, 99
9, 480456, Note_off_c, 7, 79, 64
9, 480480, Note_on_c, 7, 79, 99
9, 480576, Note_off_c, 7, 79, 64
9, 480600, Note_on_c, 7, 79, 99
9, 480696, Note_off_c, 7, 79, 64
9, 480720, Note_on_c, 7, 79, 99
9, 480816, Note_off_c, 7, 79, 64
9, 480840, Note_on_c, 7, 79, 99
9, 480936, Note_off_c, 7, 79, 64
9, 480960, Note_on_c, 7, 79, 99
9, 481056, Note_off_c, 7, 79, 64
9, 481080, Note_on_c, 7, 79, 99
9, 481176, Note_off_c, 7, 79, 64
9, 481200, Note_on_c, 7, 79, 99
9, 481296, Note_off_c, 7, 79, 64
9, 481320, Note_on_c, 7, 79, 99
9, 481416, Note_off_c, 7, 79, 64
9, 481440, Note_on_c, 7, 79, 99
9, 481536, Note_off_c, 7, 79, 64
9, 481560, Note_on_c, 7, 76, 99
9, 481656, Note_off_c, 7, 76, 64
9, 481680, Note_on_c, 7, 77, 99
9, 481776, Note_off_c, 7, 77, 64
9, 481800, Note_on_c, 7, 79, 99
9, 481896, Note_off_c, 7, 79, 64
9, 481920, Note_on_c, 7, 81, 127
9, 482016, Note_off_c, 7, 81, 64
9, 482040, Note_on_c, 7, 79, 99
9, 482136, Note_off_c, 7, 79, 64
9, 482160, Note_on_c, 7, 77, 99
9, 482256, Note_off_c, 7, 77, 64
9, 482280, Note_on_c, 7, 76, 99
9, 482376, Note_off_c, 7, 76, 64
9, 482400, Note_on_c, 7, 74, 99
9, 482496, Note_off_c, 7, 74, 64
9, 482520, Note_on_c, 7, 74, 99
9, 482616, Note_off_c, 7, 74, 64
9, 482640, Note_on_c, 7, 76, 99
9, 482736, Note_off_c, 7, 76, 64
9, 482760, Note_on_c, 7, 77, 99
9, 482856, Note_off_c, 7, 77, 64
9, 482880, Note_on_c, 7, 79, 127
9, 482976, Note_off_c, 7, 79, 64
9, 483000, Note_on_c, 7, 77, 99
9, 483096, Note_off_c, 7, 77, 64
9, 483120, Note_on_c, 7, 79, 99
9, 483216, Note_off_c, 7, 79, 64
9, 483240, Note_on_c, 7, 67, 99
9, 483336, Note_off_c, 7, 67, 64
9, 483360, Note_on_c, 7, 72, 99
9, 483456, Note_off_c, 7, 72, 64
9, 483480, Note_on_c, 7, 72, 99
9, 483576, Note_off_c, 7, 72, 64
9, 483600, Note_on_c, 7, 74, 99
9, 483696, Note_off_c, 7, 74, 64
9, 483720, Note_on_c, 7, 76, 99
9, 483816, Note_off_c, 7, 76, 64
9, 483840, Note_on_c, 7, 77, 127
9, 483936, Note_off_c, 7, 77, 64
9, 483960, Note_on_c, 7, 76, 99
9, 484056, Note_off_c, 7, 76, 64
9, 484080, Note_on_c, 7, 74, 99
9, 484176, Note_off_c, 7, 74, 64
9, 484200, Note_on_c, 7, 72, 99
9, 484296, Note_off_c, 7, 72, 64
9, 484320, Note_on_c, 7, 71, 99
9, 484416, Note_off_c, 7, 71, 64
9, 484440, Note_on_c, 7, 83, 99
9, 484536, Note_off_c, 7, 83, 64
9, 484560, Note_on_c, 7, 84, 99
9, 484656, Note_off_c, 7, 84, 64
9, 484680, Note_on_c, 7, 86, 99
9, 484776, Note_off_c, 7, 86, 64
9, 484800, Note_on_c, 7, 88, 127
9, 484896, Note_off_c, 7, 88, 64
9, 484920, Note_on_c, 7, 86, 99
9, 485016, Note_off_c, 7, 86, 64
9, 485040, Note_on_c, 7, 88, 99
9, 485136, Note_off_c, 7, 88, 64
9, 485160, Note_on_c, 7, 76, 99
9, 485256, Note_off_c, 7, 76, 64
9, 485280, Note_on_c, 7, 81, 99
9, 485376, Note_off_c, 7, 81, 64
9, 485400, Note_on_c, 7, 81, 99
9, 485496, Note_off_c, 7, 81, 64
9, 485520, Note_on_c, 7, 83, 99
9, 485616, Note_off_c, 7, 83, 64
9, 485640, Note_on_c, 7, 84, 99
9, 485736, Note_off_c, 7, 84, 64
9, 485760, Note_on_c, 7, 86, 127
9, 485856, Note_off_c, 7, 86, 64
9, 485880, Note_on_c, 7, 84, 99
9, 485976, Note_off_c, 7, 84, 64
9, 486000, Note_on_c, 7, 83, 99
9, 486096, Note_off_c, 7, 83, 64
9, 486120, Note_on_c, 7, 81, 99
9, 486216, Note_off_c, 7, 81, 64
9, 486240, Note_on_c, 7, 79, 99
9, 486336, Note_off_c, 7, 79, 64
9, 486360, Note_on_c, 7, 79, 99
9, 486456, Note_off_c, 7, 79, 64
9, 486480, Note_on_c, 7, 81, 99
9, 486576, Note_off_c, 7, 81, 64
9, 486600, Note_on_c, 7, 83, 99
9, 486696, Note_off_c, 7, 83, 64
9, 486720, Note_on_c, 7, 84, 99
9, 486816, Note_off_c, 7, 84, 64
9, 486840, Note_on_c, 7, 84, 99
9, 486936, Note_off_c, 7, 84, 64
9, 486960, Note_on_c, 7, 86, 99
9, 487056, Note_off_c, 7, 86, 64
9, 487080, Note_on_c, 7, 88, 99
9, 487176, Note_off_c, 7, 88, 64
9, 487200, Note_on_c, 7, 89, 99
9, 487296, Note_off_c, 7, 89, 64
9, 487320, Note_on_c, 7, 89, 99
9, 487416, Note_off_c, 7, 89, 64
9, 487440, Note_on_c, 7, 88, 99
9, 487536, Note_off_c, 7, 88, 64
9, 487560, Note_on_c, 7, 89, 99
9, 487656, Note_off_c, 7, 89, 64
9, 487680, Note_on_c, 7, 91, 127
9, 487776, Note_off_c, 7, 91, 64
9, 487800, Note_on_c, 7, 91, 99
9, 487896, Note_off_c, 7, 91, 64
9, 487920, Note_on_c, 7, 89, 99
9, 488016, Note_off_c, 7, 89, 64
9, 488040, Note_on_c, 7, 89, 99
9, 488136, Note_off_c, 7, 89, 64
9, 488160, Note_on_c, 7, 88, 99
9, 488256, Note_off_c, 7, 88, 64
9, 488280, Note_on_c, 7, 88, 99
9, 488376, Note_off_c, 7, 88, 64
9, 488400, Note_on_c, 7, 86, 99
9, 488496, Note_off_c, 7, 86, 64
9, 488520, Note_on_c, 7, 88, 99
9, 488616, Note_off_c, 7, 88, 64
9, 488640, Note_on_c, 7, 89, 127
9, 488736, Note_off_c, 7, 89, 64
9, 488760, Note_on_c, 7, 89, 99
9, 488856, Note_off_c, 7, 89, 64
9, 488880, Note_on_c, 7, 88, 99
9, 488976, Note_off_c, 7, 88, 64
9, 489000, Note_on_c, 7, 88, 99
9, 489096, Note_off_c, 7, 88, 64
9, 489120, Note_on_c, 7, 89, 99
9, 489216, Note_off_c, 7, 89, 64
9, 489240, Note_on_c, 7, 89, 99
9, 489336, Note_off_c, 7, 89, 64
9, 489360, Note_on_c, 7, 88, 99
9, 489456, Note_off_c, 7, 88, 64
9, 489480, Note_on_c, 7, 89, 99
9, 489576, Note_off_c, 7, 89, 64
9, 489600, Note_on_c, 7, 91, 127
9, 489696, Note_off_c, 7, 91, 64
9, 489720, Note_on_c, 7, 91, 99
9, 489816, Note_off_c, 7, 91, 64
9, 489840, Note_on_c, 7, 89, 99
9, 489936, Note_off_c, 7, 89, 64
9, 489960, Note_on_c, 7, 89, 99
9, 490056, Note_off_c, 7, 89, 64
9, 490080, Note_on_c, 7, 88, 99
9, 490176, Note_off_c, 7, 88, 64
9, 490200, Note_on_c, 7, 88, 99
9, 490296, Note_off_c, 7, 88, 64
9, 490320, Note_on_c, 7, 86, 99
9, 490416, Note_off_c, 7, 86, 64
9, 490440, Note_on_c, 7, 88, 99
9, 490536, Note_off_c, 7, 88, 64
9, 490560, Note_on_c, 7, 89, 127
9, 490656, Note_off_c, 7, 89, 64
9, 490680, Note_on_c, 7, 89, 99
9, 490776, Note_off_c, 7, 89, 64
9, 490800, Note_on_c, 7, 88, 99
9, 490896, Note_off_c, 7, 88, 64
9, 490920, Note_on_c, 7, 88, 99
9, 491016, Note_off_c, 7, 88, 64
9, 491040, Note_on_c, 7, 89, 99
9, 491136, Note_off_c, 7, 89, 64
9, 491160, Note_on_c, 7, 89, 99
9, 491256, Note_off_c, 7, 89, 64
9, 491280, Note_on_c, 7, 88, 99
9, 491376, Note_off_c, 7, 88, 64
9, 491400, Note_on_c, 7, 89, 99
9, 491496, Note_off_c, 7, 89, 64
9, 491520, Note_on_c, 7, 91, 127
9, 491616, Note_off_c, 7, 91, 64
9, 491640, Note_on_c, 7, 91, 99
9, 491736, Note_off_c, 7, 91, 64
9, 491760, Note_on_c, 7, 89, 99
9, 491856, Note_off_c, 7, 89, 64
9, 491880, Note_on_c, 7, 89, 99
9, 491976, Note_off_c, 7, 89, 64
9, 492000, Note_on_c, 7, 88, 99
9, 492096, Note_off_c, 7, 88, 64
9, 492120, Note_on_c, 7, 88, 99
9, 492216, Note_off_c, 7, 88, 64
9, 492240, Note_on_c, 7, 86, 99
9, 492336, Note_off_c, 7, 86, 64
9, 492360, Note_on_c, 7, 88, 99
9, 492456, Note_off_c, 7, 88, 64
9, 492480, Note_on_c, 7, 89, 127
9, 492576, Note_off_c, 7, 89, 64
9, 492600, Note_on_c, 7, 89, 99
9, 492696, Note_off_c, 7, 89, 64
9, 492720, Note_on_c, 7, 88, 99
9, 492816, Note_off_c, 7, 88, 64
9, 492840, Note_on_c, 7, 88, 99
9, 492936, Note_off_c, 7, 88, 64
9, 492960, Note_on_c, 7, 89, 99
9, 493056, Note_off_c, 7, 89, 64
9, 493080, Note_on_c, 7, 89, 99
9, 493176, Note_off_c, 7, 89, 64
9, 493200, Note_on_c, 7, 88, 99
9, 493296, Note_off_c, 7, 88, 64
9, 493320, Note_on_c, 7, 89, 99
9, 493416, Note_off_c, 7, 89, 64
9, 493440, Note_on_c, 7, 91, 127
9, 493536, Note_off_c, 7, 91, 64
9, 493560, Note_on_c, 7, 91, 99
9, 493656, Note_off_c, 7, 91, 64
9, 493680, Note_on_c, 7, 89, 99
9, 493776, Note_off_c, 7, 89, 64
9, 493800, Note_on_c, 7, 89, 99
9, 493896, Note_off_c, 7, 89, 64
9, 493920, Note_on_c, 7, 88, 127
9, 494016, Note_off_c, 7, 88, 64
9, 494040, Note_on_c, 7, 88, 99
9, 494136, Note_off_c, 7, 88, 64
9, 494160, Note_on_c, 7, 91, 99
9, 494256, Note_off_c, 7, 91, 64
9, 494280, Note_on_c, 7, 91, 99
9, 494376, Note_off_c, 7, 91, 64
9, 494400, Note_on_c, 7, 91, 99
9, 494496, Note_off_c, 7, 91, 64
9, 494520, Note_on_c, 7, 91, 99
9, 494616, Note_off_c, 7, 91, 64
9, 494640, Note_on_c, 7, 89, 99
9, 494736, Note_off_c, 7, 89, 64
9, 494760, Note_on_c, 7, 89, 99
9, 494856, Note_off_c, 7, 89, 64
9, 494880, Note_on_c, 7, 88, 127
9, 494976, Note_off_c, 7, 88, 64
9, 495000, Note_on_c, 7, 88, 99
9, 495096, Note_off_c, 7, 88, 64
9, 495120, Note_on_c, 7, 91, 99
9, 495216, Note_off_c, 7, 91, 64
9, 495240, Note_on_c, 7, 91, 99
9, 495336, Note_off_c, 7, 91, 64
9, 495360, Note_on_c, 7, 91, 99
9, 495456, Note_off_c, 7, 91, 64
9, 495480, Note_on_c, 7, 91, 99
9, 495576, Note_off_c, 7, 91, 64
9, 495600, Note_on_c, 7, 89, 99
9, 495696, Note_off_c, 7, 89, 64
9, 495720, Note_on_c, 7, 89, 99
9, 495816, Note_off_c, 7, 89, 64
9, 495840, Note_on_c, 7, 88, 127
9, 495936, Note_off_c, 7, 88, 64
9, 495960, Note_on_c, 7, 88, 99
9, 496056, Note_off_c, 7, 88, 64
9, 496080, Note_on_c, 7, 91, 99
9, 496176, Note_off_c, 7, 91, 64
9, 496200, Note_on_c, 7, 91, 99
9, 496296, Note_off_c, 7, 91, 64
9, 496320, Note_on_c, 7, 91, 99
9, 496416, Note_off_c, 7, 91, 64
9, 496440, Note_on_c, 7, 91, 99
9, 496536, Note_off_c, 7, 91, 64
9, 496560, Note_on_c, 7, 89, 99
9, 496656, Note_off_c, 7, 89, 64
9, 496680, Note_on_c, 7, 89, 99
9, 496776, Note_off_c, 7, 89, 64
9, 496800, Note_on_c, 7, 88, 127
9, 496896, Note_off_c, 7, 88, 64
9, 496920, Note_on_c, 7, 88, 99
9, 497016, Note_off_c, 7, 88, 64
9, 497040, Note_on_c, 7, 91, 99
9, 497136, Note_off_c, 7, 91, 64
9, 497160, Note_on_c, 7, 91, 99
9, 497256, Note_off_c, 7, 91, 64
9, 497280, Note_on_c, 7, 91, 99
9, 497376, Note_off_c, 7, 91, 64
9, 497400, Note_on_c, 7, 91, 99
9, 497496, Note_off_c, 7, 91, 64
9, 497520, Note_on_c, 7, 89, 99
9, 497616, Note_off_c, 7, 89, 64
9, 497640, Note_on_c, 7, 89, 99
9, 497736, Note_off_c, 7, 89, 64
9, 497760, Note_on_c, 7, 88, 127
9, 497856, Note_off_c, 7, 88, 64
9, 497880, Note_on_c, 7, 72, 99
9, 497976, Note_off_c, 7, 72, 64
9, 498000, Note_on_c, 7, 74, 99
9, 498096, Note_off_c, 7, 74, 64
9, 498120, Note_on_c, 7, 76, 99
9, 498216, Note_off_c, 7, 76, 64
9, 498240, Note_on_c, 7, 77, 99
9, 498336, Note_off_c, 7, 77, 64
9, 498360, Note_on_c, 7, 79, 99
9, 498456, Note_off_c, 7, 79, 64
9, 498480, Note_on_c, 7, 81, 99
9, 498576, Note_off_c, 7, 81, 64
9, 498600, Note_on_c, 7, 83, 99
9, 498696, Note_off_c, 7, 83, 64
9, 498720, Note_on_c, 7, 84, 120
9, 499776, Note_off_c, 7, 84, 64
9, 499800, Note_on_c, 7, 76, 120
9, 499896, Note_off_c, 7, 76, 64
9, 499920, Note_on_c, 7, 77, 120
9, 500016, Note_off_c, 7, 77, 64
9, 500040, Note_on_c, 7, 79, 120
9, 500136, Note_off_c, 7, 79, 64
9, 500160, Note_on_c, 7, 81, 120
9, 500256, Note_off_c, 7, 81, 64
9, 500280, Note_on_c, 7, 83, 120
9, 500376, Note_off_c, 7, 83, 64
9, 500400, Note_on_c, 7, 84, 120
9, 500496, Note_off_c, 7, 84, 64
9, 500520, Note_on_c, 7, 86, 120
9, 500616, Note_off_c, 7, 86, 64
9, 500640, Note_on_c, 7, 88, 120
9, 501696, Note_off_c, 7, 88, 64
9, 501720, Note_on_c, 7, 79, 120
9, 501816, Note_off_c, 7, 79, 64
9, 501840, Note_on_c, 7, 81, 120
9, 501936, Note_off_c, 7, 81, 64
9, 501960, Note_on_c, 7, 83, 120
9, 502056, Note_off_c, 7, 83, 64
9, 502080, Note_on_c, 7, 84, 120
9, 502176, Note_off_c, 7, 84, 64
9, 502200, Note_on_c, 7, 86, 120
9, 502296, Note_off_c, 7, 86, 64
9, 502320, Note_on_c, 7, 88, 120
9, 502416, Note_off_c, 7, 88, 64
9, 502440, Note_on_c, 7, 89, 120
9, 502536, Note_off_c, 7, 89, 64
9, 502560, Note_on_c, 7, 91, 127
9, 502656, Note_off_c, 7, 91, 64
9, 502800, Note_on_c, 7, 76, 99
9, 502896, Note_off_c, 7, 76, 64
9, 503040, Note_on_c, 7, 79, 127
9, 503136, Note_off_c, 7, 79, 64
9, 503280, Note_on_c, 7, 71, 99
9, 503376, Note_off_c, 7, 71, 64
9, 503520, Note_on_c, 7, 72, 127
9, 503616, Note_off_c, 7, 72, 64
9, 503760, Note_on_c, 7, 76, 99
9, 503856, Note_off_c, 7, 76, 64
9, 504000, Note_on_c, 7, 66, 127
9, 504096, Note_off_c, 7, 66, 64
9, 504240, Note_on_c, 7, 67, 99
9, 504336, Note_off_c, 7, 67, 64
9, 504480, Note_on_c, 7, 72, 127
9, 504576, Note_off_c, 7, 72, 64
9, 504720, Note_on_c, 7, 63, 99
9, 504816, Note_off_c, 7, 63, 64
9, 504960, Note_on_c, 7, 64, 127
9, 505056, Note_off_c, 7, 64, 64
9, 505200, Note_on_c, 7, 67, 99
9, 505296, Note_off_c, 7, 67, 64
9, 505440, Note_on_c, 7, 60, 127
9, 505536, Note_off_c, 7, 60, 64
9, 505680, Note_on_c, 7, 64, 99
9, 505776, Note_off_c, 7, 64, 64
9, 505920, Note_on_c, 7, 59, 127
9, 506016, Note_off_c, 7, 59, 64
9, 506160, Note_on_c, 7, 60, 99
9, 506256, Note_off_c, 7, 60, 64
9, 506400, Note_on_c, 7, 56, 99
9, 506496, Note_off_c, 7, 56, 64
9, 506520, Note_on_c, 7, 56, 99
9, 506616, Note_off_c, 7, 56, 64
9, 506640, Note_on_c, 7, 56, 99
9, 506736, Note_off_c, 7, 56, 64
9, 506760, Note_on_c, 7, 56, 99
9, 506856, Note_off_c, 7, 56, 64
9, 506880, Note_on_c, 7, 56, 99
9, 506976, Note_off_c, 7, 56, 64
9, 507000, Note_on_c, 7, 56, 99
9, 507096, Note_off_c, 7, 56, 64
9, 507120, Note_on_c, 7, 56, 99
9, 507216, Note_off_c, 7, 56, 64
9, 507240, Note_on_c, 7, 56, 99
9, 507336, Note_off_c, 7, 56, 64
9, 507360, Note_on_c, 7, 56, 99
9, 507456, Note_off_c, 7, 56, 64
9, 507480, Note_on_c, 7, 56, 99
9, 507576, Note_off_c, 7, 56, 64
9, 507600, Note_on_c, 7, 56, 99
9, 507696, Note_off_c, 7, 56, 64
9, 507720, Note_on_c, 7, 56, 99
9, 507816, Note_off_c, 7, 56, 64
9, 507840, Note_on_c, 7, 56, 99
9, 507936, Note_off_c, 7, 56, 64
9, 507960, Note_on_c, 7, 56, 99
9, 508056, Note_off_c, 7, 56, 64
9, 508080, Note_on_c, 7, 56, 99
9, 508176, Note_off_c, 7, 56, 64
9, 508200, Note_on_c, 7, 56, 99
9, 508296, Note_off_c, 7, 56, 64
9, 508320, Note_on_c, 7, 55, 48
9, 508704, Note_off_c, 7, 55, 64
9, 510240, Note_on_c, 7, 56, 120
9, 510336, Note_off_c, 7, 56, 64
9, 510360, Note_on_c, 7, 56, 114
9, 510456, Note_off_c, 7, 56, 64
9, 510480, Note_on_c, 7, 56, 109
9, 510576, Note_off_c, 7, 56, 64
9, 510600, Note_on_c, 7, 56, 103
9, 510696, Note_off_c, 7, 56, 64
9, 510720, Note_on_c, 7, 56, 97
9, 510816, Note_off_c, 7, 56, 64
9, 510840, Note_on_c, 7, 56, 92
9, 510936, Note_off_c, 7, 56, 64
9, 510960, Note_on_c, 7, 56, 86
9, 511056, Note_off_c, 7, 56, 64
9, 511080, Note_on_c, 7, 56, 81
9, 511176, Note_off_c, 7, 56, 64
9, 511200, Note_on_c, 7, 56, 75
9, 511296, Note_off_c, 7, 56, 64
9, 511320, Note_on_c, 7, 56, 69
9, 511416, Note_off_c, 7, 56, 64
9, 511440, Note_on_c, 7, 56, 64
9, 511536, Note_off_c, 7, 56, 64
9, 511560, Note_on_c, 7, 56, 58
9, 511656, Note_off_c, 7, 56, 64
9, 511680, Note_on_c, 7, 56, 52
9, 511776, Note_off_c, 7, 56, 64
9, 511800, Note_on_c, 7, 56, 47
9, 511896, Note_off_c, 7, 56, 64
9, 511920, Note_on_c, 7, 56, 41
9, 512016, Note_off_c, 7, 56, 64
9, 512040, Note_on_c, 7, 56, 36
9, 512136, Note_off_c, 7, 56, 64
9, 512160, Note_on_c, 7, 56, 30
9, 512256, Note_off_c, 7, 56, 64
9, 512280, Note_on_c, 7, 56, 30
9, 512376, Note_off_c, 7, 56, 64
9, 512400, Note_on_c, 7, 56, 30
9, 512496, Note_off_c, 7, 56, 64
9, 512520, Note_on_c, 7, 56, 30
9, 512616, Note_off_c, 7, 56, 64
9, 512640, Note_on_c, 7, 56, 30
9, 512736, Note_off_c, 7, 56, 64
9, 512760, Note_on_c, 7, 56, 30
9, 512856, Note_off_c, 7, 56, 64
9, 512880, Note_on_c, 7, 56, 30
9, 512976, Note_off_c, 7, 56, 64
9, 513000, Note_on_c, 7, 56, 30
9, 513096, Note_off_c, 7, 56, 64
9, 513120, Note_on_c, 7, 56, 30
9, 513216, Note_off_c, 7, 56, 64
9, 513240, Note_on_c, 7, 56, 30
9, 513336, Note_off_c, 7, 56, 64
9, 513360, Note_on_c, 7, 56, 30
9, 513456, Note_off_c, 7, 56, 64
9, 513480, Note_on_c, 7, 56, 30
9, 513576, Note_off_c, 7, 56, 64
9, 513600, Note_on_c, 7, 56, 30
9, 513696, Note_off_c, 7, 56, 64
9, 513720, Note_on_c, 7, 56, 30
9, 513816, Note_off_c, 7, 56, 64
9, 513840, Note_on_c, 7, 56, 30
9, 513936, Note_off_c, 7, 56, 64
9, 513960, Note_on_c, 7, 56, 30
9, 514056, Note_off_c, 7, 56, 64
9, 514080, Note_on_c, 7, 55, 30
9, 514176, Note_off_c, 7, 55, 64
9, 514200, Note_on_c, 7, 55, 30
9, 514296, Note_off_c, 7, 55, 64
9, 514320, Note_on_c, 7, 55, 30
9, 514416, Note_off_c, 7, 55, 64
9, 514440, Note_on_c, 7, 55, 30
9, 514536, Note_off_c, 7, 55, 64
9, 514560, Note_on_c, 7, 55, 30
9, 514656, Note_off_c, 7, 55, 64
9, 514680, Note_on_c, 7, 55, 30
9, 514776, Note_off_c, 7, 55, 64
9, 514800, Note_on_c, 7, 55, 30
9, 514896, Note_off_c, 7, 55, 64
9, 514920, Note_on_c, 7, 55, 30
9, 515016, Note_off_c, 7, 55, 64
9, 515040, Note_on_c, 7, 55, 30
9, 515136, Note_off_c, 7, 55, 64
9, 515160, Note_on_c, 7, 55, 30
9, 515256, Note_off_c, 7, 55, 64
9, 515280, Note_on_c, 7, 55, 30
9, 515376, Note_off_c, 7, 55, 64
9, 515400, Note_on_c, 7, 55, 30
9, 515496, Note_off_c, 7, 55, 64
9, 515520, Note_on_c, 7, 56, 30
9, 515616, Note_off_c, 7, 56, 64
9, 515640, Note_on_c, 7, 56, 30
9, 515736, Note_off_c, 7, 56, 64
9, 515760, Note_on_c, 7, 56, 30
9, 515856, Note_off_c, 7, 56, 64
9, 515880, Note_on_c, 7, 56, 30
9, 515976, Note_off_c, 7, 56, 64
9, 516000, Note_on_c, 7, 57, 30
9, 516096, Note_off_c, 7, 57, 64
9, 516120, Note_on_c, 7, 57, 31
9, 516216, Note_off_c, 7, 57, 64
9, 516240, Note_on_c, 7, 57, 33
9, 516336, Note_off_c, 7, 57, 64
9, 516360, Note_on_c, 7, 57, 35
9, 516456, Note_off_c, 7, 57, 64
9, 516480, Note_on_c, 7, 57, 36
9, 516576, Note_off_c, 7, 57, 64
9, 516600, Note_on_c, 7, 57, 38
9, 516696, Note_off_c, 7, 57, 64
9, 516720, Note_on_c, 7, 57, 39
9, 516816, Note_off_c, 7, 57, 64
9, 516840, Note_on_c, 7, 57, 41
9, 516936, Note_off_c, 7, 57, 64
9, 516960, Note_on_c, 7, 57, 42
9, 517056, Note_off_c, 7, 57, 64
9, 517080, Note_on_c, 7, 57, 44
9, 517176, Note_off_c, 7, 57, 64
9, 517200, Note_on_c, 7, 57, 46
9, 517296, Note_off_c, 7, 57, 64
9, 517320, Note_on_c, 7, 57, 47
9, 517416, Note_off_c, 7, 57, 64
9, 517440, Note_on_c, 7, 57, 49
9, 517536, Note_off_c, 7, 57, 64
9, 517560, Note_on_c, 7, 57, 50
9, 517656, Note_off_c, 7, 57, 64
9, 517680, Note_on_c, 7, 57, 52
9, 517776, Note_off_c, 7, 57, 64
9, 517800, Note_on_c, 7, 57, 53
9, 517896, Note_off_c, 7, 57, 64
9, 517920, Note_on_c, 7, 59, 55
9, 518016, Note_off_c, 7, 59, 64
9, 518040, Note_on_c, 7, 59, 57
9, 518136, Note_off_c, 7, 59, 64
9, 518160, Note_on_c, 7, 59, 58
9, 518256, Note_off_c, 7, 59, 64
9, 518280, Note_on_c, 7, 59, 60
9, 518376, Note_off_c, 7, 59, 64
9, 518400, Note_on_c, 7, 59, 61
9, 518496, Note_off_c, 7, 59, 64
9, 518520, Note_on_c, 7, 59, 63
9, 518616, Note_off_c, 7, 59, 64
9, 518640, Note_on_c, 7, 59, 64
9, 518736, Note_off_c, 7, 59, 64
9, 518760, Note_on_c, 7, 59, 66
9, 518856, Note_off_c, 7, 59, 64
9, 518880, Note_on_c, 7, 59, 68
9, 518976, Note_off_c, 7, 59, 64
9, 519000, Note_on_c, 7, 59, 69
9, 519096, Note_off_c, 7, 59, 64
9, 519120, Note_on_c, 7, 59, 71
9, 519216, Note_off_c, 7, 59, 64
9, 519240, Note_on_c, 7, 59, 72
9, 519336, Note_off_c, 7, 59, 64
9, 519360, Note_on_c, 7, 59, 74
9, 519456, Note_off_c, 7, 59, 64
9, 519480, Note_on_c, 7, 59, 75
9, 519576, Note_off_c, 7, 59, 64
9, 519600, Note_on_c, 7, 59, 77
9, 519696, Note_off_c, 7, 59, 64
9, 519720, Note_on_c, 7, 59, 79
9, 519816, Note_off_c, 7, 59, 64
9, 519840, Note_on_c, 7, 77, 99
9, 519936, Note_off_c, 7, 77, 64
9, 519960, Note_on_c, 7, 77, 99
9, 520056, Note_off_c, 7, 77, 64
9, 520080, Note_on_c, 7, 76, 99
9, 520176, Note_off_c, 7, 76, 64
9, 520200, Note_on_c, 7, 76, 99
9, 520296, Note_off_c, 7, 76, 64
9, 520320, Note_on_c, 7, 79, 99
9, 520416, Note_off_c, 7, 79, 64
9, 520440, Note_on_c, 7, 79, 99
9, 520536, Note_off_c, 7, 79, 64
9, 520560, Note_on_c, 7, 77, 99
9, 520656, Note_off_c, 7, 77, 64
9, 520680, Note_on_c, 7, 77, 99
9, 520776, Note_off_c, 7, 77, 64
9, 520800, Note_on_c, 7, 76, 99
9, 520896, Note_off_c, 7, 76, 64
9, 520920, Note_on_c, 7, 76, 99
9, 521016, Note_off_c, 7, 76, 64
9, 521040, Note_on_c, 7, 74, 99
9, 521136, Note_off_c, 7, 74, 64
9, 521160, Note_on_c, 7, 74, 99
9, 521256, Note_off_c, 7, 74, 64
9, 521280, Note_on_c, 7, 77, 99
9, 521376, Note_off_c, 7, 77, 64
9, 521400, Note_on_c, 7, 77, 99
9, 521496, Note_off_c, 7, 77, 64
9, 521520, Note_on_c, 7, 76, 99
9, 521616, Note_off_c, 7, 76, 64
9, 521640, Note_on_c, 7, 76, 99
9, 521736, Note_off_c, 7, 76, 64
9, 521760, Note_on_c, 7, 74, 99
9, 521856, Note_off_c, 7, 74, 64
9, 521880, Note_on_c, 7, 74, 99
9, 521976, Note_off_c, 7, 74, 64
9, 522000, Note_on_c, 7, 72, 99
9, 522096, Note_off_c, 7, 72, 64
9, 522120, Note_on_c, 7, 72, 99
9, 522216, Note_off_c, 7, 72, 64
9, 522240, Note_on_c, 7, 76, 99
9, 522336, Note_off_c, 7, 76, 64
9, 522360, Note_on_c, 7, 76, 99
9, 522456, Note_off_c, 7, 76, 64
9, 522480, Note_on_c, 7, 74, 99
9, 522576, Note_off_c, 7, 74, 64
9, 522600, Note_on_c, 7, 74, 99
9, 522696, Note_off_c, 7, 74, 64
9, 522720, Note_on_c, 7, 76, 99
9, 522816, Note_off_c, 7, 76, 64
9, 522840, Note_on_c, 7, 76, 99
9, 522936, Note_off_c, 7, 76, 64
9, 522960, Note_on_c, 7, 74, 99
9, 523056, Note_off_c, 7, 74, 64
9, 523080, Note_on_c, 7, 74, 99
9, 523176, Note_off_c, 7, 74, 64
9, 523200, Note_on_c, 7, 77, 99
9, 523296, Note_off_c, 7, 77, 64
9, 523320, Note_on_c, 7, 77, 99
9, 523416, Note_off_c, 7, 77, 64
9, 523440, Note_on_c, 7, 76, 99
9, 523536, Note_off_c, 7, 76, 64
9, 523560, Note_on_c, 7, 76, 99
9, 523656, Note_off_c, 7, 76, 64
9, 523680, Note_on_c, 7, 77, 99
9, 523776, Note_off_c, 7, 77, 64
9, 523800, Note_on_c, 7, 77, 99
9, 523896, Note_off_c, 7, 77, 64
9, 523920, Note_on_c, 7, 76, 99
9, 524016, Note_off_c, 7, 76, 64
9, 524040, Note_on_c, 7, 76, 99
9, 524136, Note_off_c, 7, 76, 64
9, 524160, Note_on_c, 7, 79, 99
9, 524256, Note_off_c, 7, 79, 64
9, 524280, Note_on_c, 7, 79, 99
9, 524376, Note_off_c, 7, 79, 64
9, 524400, Note_on_c, 7, 77, 99
9, 524496, Note_off_c, 7, 77, 64
9, 524520, Note_on_c, 7, 77, 99
9, 524616, Note_off_c, 7, 77, 64
9, 524640, Note_on_c, 7, 76, 99
9, 524736, Note_off_c, 7, 76, 64
9, 524760, Note_on_c, 7, 76, 99
9, 524856, Note_off_c, 7, 76, 64
9, 524880, Note_on_c, 7, 74, 99
9, 524976, Note_off_c, 7, 74, 64
9, 525000, Note_on_c, 7, 74, 99
9, 525096, Note_off_c, 7, 74, 64
9, 525120, Note_on_c, 7, 77, 99
9, 525216, Note_off_c, 7, 77, 64
9, 525240, Note_on_c, 7, 77, 99
9, 525336, Note_off_c, 7, 77, 64
9, 525360, Note_on_c, 7, 76, 99
9, 525456, Note_off_c, 7, 76, 64
9, 525480, Note_on_c, 7, 76, 99
9, 525576, Note_off_c, 7, 76, 64
9, 525600, Note_on_c, 7, 74, 99
9, 525696, Note_off_c, 7, 74, 64
9, 525720, Note_on_c, 7, 74, 99
9, 525816, Note_off_c, 7, 74, 64
9, 525840, Note_on_c, 7, 72, 99
9, 525936, Note_off_c, 7, 72, 64
9, 525960, Note_on_c, 7, 72, 99
9, 526056, Note_off_c, 7, 72, 64
9, 526080, Note_on_c, 7, 76, 99
9, 526176, Note_off_c, 7, 76, 64
9, 526200, Note_on_c, 7, 76, 99
9, 526296, Note_off_c, 7, 76, 64
9, 526320, Note_on_c, 7, 74, 99
9, 526416, Note_off_c, 7, 74, 64
9, 526440, Note_on_c, 7, 74, 99
9, 526536, Note_off_c, 7, 74, 64
9, 526560, Note_on_c, 7, 76, 99
9, 526656, Note_off_c, 7, 76, 64
9, 526680, Note_on_c, 7, 76, 99
9, 526776, Note_off_c, 7, 76, 64
9, 526800, Note_on_c, 7, 74, 99
9, 526896, Note_off_c, 7, 74, 64
9, 526920, Note_on_c, 7, 74, 99
9, 527016, Note_off_c, 7, 74, 64
9, 527040, Note_on_c, 7, 77, 99
9, 527136, Note_off_c, 7, 77, 64
9, 527160, Note_on_c, 7, 77, 99
9, 527256, Note_off_c, 7, 77, 64
9, 527280, Note_on_c, 7, 76, 99
9, 527376, Note_off_c, 7, 76, 64
9, 527400, Note_on_c, 7, 76, 99
9, 527496, Note_off_c, 7, 76, 64
9, 527520, Note_on_c, 7, 79, 99
9, 527616, Note_off_c, 7, 79, 64
9, 527640, Note_on_c, 7, 79, 99
9, 527736, Note_off_c, 7, 79, 64
9, 527760, Note_on_c, 7, 77, 99
9, 527856, Note_off_c, 7, 77, 64
9, 527880, Note_on_c, 7, 77, 99
9, 527976, Note_off_c, 7, 77, 64
9, 528000, Note_on_c, 7, 86, 99
9, 528096, Note_off_c, 7, 86, 64
9, 528120, Note_on_c, 7, 86, 99
9, 528216, Note_off_c, 7, 86, 64
9, 528240, Note_on_c, 7, 77, 99
9, 528336, Note_off_c, 7, 77, 64
9, 528360, Note_on_c, 7, 77, 99
9, 528456, Note_off_c, 7, 77, 64
9, 528480, Note_on_c, 7, 77, 99
9, 528576, Note_off_c, 7, 77, 64
9, 528600, Note_on_c, 7, 77, 99
9, 528696, Note_off_c, 7, 77, 64
9, 528720, Note_on_c, 7, 76, 99
9, 528816, Note_off_c, 7, 76, 64
9, 528840, Note_on_c, 7, 76, 99
9, 528936, Note_off_c, 7, 76, 64
9, 528960, Note_on_c, 7, 84, 99
9, 529056, Note_off_c, 7, 84, 64
9, 529080, Note_on_c, 7, 84, 99
9, 529176, Note_off_c, 7, 84, 64
9, 529200, Note_on_c, 7, 76, 99
9, 529296, Note_off_c, 7, 76, 64
9, 529320, Note_on_c, 7, 76, 99
9, 529416, Note_off_c, 7, 76, 64
9, 529440, Note_on_c, 7, 76, 99
9, 529536, Note_off_c, 7, 76, 64
9, 529560, Note_on_c, 7, 76, 99
9, 529656, Note_off_c, 7, 76, 64
9, 529680, Note_on_c, 7, 74, 99
9, 529776, Note_off_c, 7, 74, 64
9, 529800, Note_on_c, 7, 74, 99
9, 529896, Note_off_c, 7, 74, 64
9, 529920, Note_on_c, 7, 83, 99
9, 530016, Note_off_c, 7, 83, 64
9, 530040, Note_on_c, 7, 83, 99
9, 530136, Note_off_c, 7, 83, 64
9, 530160, Note_on_c, 7, 74, 99
9, 530256, Note_off_c, 7, 74, 64
9, 530280, Note_on_c, 7, 74, 99
9, 530376, Note_off_c, 7, 74, 64
9, 530400, Note_on_c, 7, 77, 99
9, 530496, Note_off_c, 7, 77, 64
9, 530520, Note_on_c, 7, 77, 99
9, 530616, Note_off_c, 7, 77, 64
9, 530640, Note_on_c, 7, 76, 99
9, 530736, Note_off_c, 7, 76, 64
9, 530760, Note_on_c, 7, 76, 99
9, 530856, Note_off_c, 7, 76, 64
9, 530880, Note_on_c, 7, 84, 99
9, 530976, Note_off_c, 7, 84, 64
9, 531000, Note_on_c, 7, 84, 99
9, 531096, Note_off_c, 7, 84, 64
9, 531120, Note_on_c, 7, 76, 99
9, 531216, Note_off_c, 7, 76, 64
9, 531240, Note_on_c, 7, 76, 99
9, 531336, Note_off_c, 7, 76, 64
9, 531360, Note_on_c, 7, 79, 99
9, 531456, Note_off_c, 7, 79, 64
9, 531480, Note_on_c, 7, 79, 99
9, 531576, Note_off_c, 7, 79, 64
9, 531600, Note_on_c, 7, 77, 99
9, 531696, Note_off_c, 7, 77, 64
9, 531720, Note_on_c, 7, 77, 99
9, 531816, Note_off_c, 7, 77, 64
9, 531840, Note_on_c, 7, 86, 99
9, 531936, Note_off_c, 7, 86, 64
9, 531960, Note_on_c, 7, 86, 99
9, 532056, Note_off_c, 7, 86, 64
9, 532080, Note_on_c, 7, 77, 99
9, 532176, Note_off_c, 7, 77, 64
9, 532200, Note_on_c, 7, 77, 99
9, 532296, Note_off_c, 7, 77, 64
9, 532320, Note_on_c, 7, 77, 99
9, 532416, Note_off_c, 7, 77, 64
9, 532440, Note_on_c, 7, 77, 99
9, 532536, Note_off_c, 7, 77, 64
9, 532560, Note_on_c, 7, 76, 99
9, 532656, Note_off_c, 7, 76, 64
9, 532680, Note_on_c, 7, 76, 99
9, 532776, Note_off_c, 7, 76, 64
9, 532800, Note_on_c, 7, 84, 99
9, 532896, Note_off_c, 7, 84, 64
9, 532920, Note_on_c, 7, 84, 99
9, 533016, Note_off_c, 7, 84, 64
9, 533040, Note_on_c, 7, 76, 99
9, 533136, Note_off_c, 7, 76, 64
9, 533160, Note_on_c, 7, 76, 99
9, 533256, Note_off_c, 7, 76, 64
9, 533280, Note_on_c, 7, 84, 99
9, 533376, Note_off_c, 7, 84, 64
9, 533400, Note_on_c, 7, 84, 99
9, 533496, Note_off_c, 7, 84, 64
9, 533520, Note_on_c, 7, 76, 99
9, 533616, Note_off_c, 7, 76, 64
9, 533640, Note_on_c, 7, 76, 99
9, 533736, Note_off_c, 7, 76, 64
9, 533760, Note_on_c, 7, 88, 99
9, 533856, Note_off_c, 7, 88, 64
9, 533880, Note_on_c, 7, 88, 99
9, 533976, Note_off_c, 7, 88, 64
9, 534000, Note_on_c, 7, 88, 99
9, 534096, Note_off_c, 7, 88, 64
9, 534120, Note_on_c, 7, 88, 99
9, 534216, Note_off_c, 7, 88, 64
9, 534240, Note_on_c, 7, 88, 99
9, 534336, Note_off_c, 7, 88, 64
9, 534360, Note_on_c, 7, 88, 99
9, 534456, Note_off_c, 7, 88, 64
9, 534480, Note_on_c, 7, 76, 99
9, 534576, Note_off_c, 7, 76, 64
9, 534600, Note_on_c, 7, 76, 99
9, 534696, Note_off_c, 7, 76, 64
9, 534720, Note_on_c, 7, 91, 99
9, 534816, Note_off_c, 7, 91, 64
9, 534840, Note_on_c, 7, 91, 99
9, 534936, Note_off_c, 7, 91, 64
9, 534960, Note_on_c, 7, 91, 99
9, 535056, Note_off_c, 7, 91, 64
9, 535080, Note_on_c, 7, 91, 99
9, 535176, Note_off_c, 7, 91, 64
9, 535200, Note_on_c, 7, 91, 124
9, 535296, Note_off_c, 7, 91, 64
9, 535320, Note_on_c, 7, 91, 84
9, 535416, Note_off_c, 7, 91, 64
9, 535440, Note_on_c, 7, 91, 84
9, 535536, Note_off_c, 7, 91, 64
9, 535560, Note_on_c, 7, 91, 84
9, 535656, Note_off_c, 7, 91, 64
9, 535680, Note_on_c, 7, 91, 84
9, 535776, Note_off_c, 7, 91, 64
9, 535800, Note_on_c, 7, 91, 84
9, 535896, Note_off_c, 7, 91, 64
9, 535920, Note_on_c, 7, 91, 84
9, 536016, Note_off_c, 7, 91, 64
9, 536040, Note_on_c, 7, 91, 84
9, 536136, Note_off_c, 7, 91, 64
9, 536160, Note_on_c, 7, 88, 124
9, 536256, Note_off_c, 7, 88, 64
9, 536280, Note_on_c, 7, 88, 84
9, 536376, Note_off_c, 7, 88, 64
9, 536400, Note_on_c, 7, 88, 84
9, 536496, Note_off_c, 7, 88, 64
9, 536520, Note_on_c, 7, 88, 84
9, 536616, Note_off_c, 7, 88, 64
9, 536640, Note_on_c, 7, 88, 84
9, 536736, Note_off_c, 7, 88, 64
9, 536760, Note_on_c, 7, 88, 84
9, 536856, Note_off_c, 7, 88, 64
9, 536880, Note_on_c, 7, 88, 84
9, 536976, Note_off_c, 7, 88, 64
9, 537000, Note_on_c, 7, 88, 84
9, 537096, Note_off_c, 7, 88, 64
9, 537120, Note_on_c, 7, 84, 124
9, 537216, Note_off_c, 7, 84, 64
9, 537240, Note_on_c, 7, 84, 84
9, 537336, Note_off_c, 7, 84, 64
9, 537360, Note_on_c, 7, 84, 84
9, 537456, Note_off_c, 7, 84, 64
9, 537480, Note_on_c, 7, 84, 84
9, 537576, Note_off_c, 7, 84, 64
9, 537600, Note_on_c, 7, 84, 84
9, 537696, Note_off_c, 7, 84, 64
9, 537720, Note_on_c, 7, 84, 84
9, 537816, Note_off_c, 7, 84, 64
9, 537840, Note_on_c, 7, 84, 84
9, 537936, Note_off_c, 7, 84, 64
9, 537960, Note_on_c, 7, 84, 84
9, 538056, Note_off_c, 7, 84, 64
9, 538080, Note_on_c, 7, 79, 124
9, 538176, Note_off_c, 7, 79, 64
9, 538200, Note_on_c, 7, 79, 84
9, 538296, Note_off_c, 7, 79, 64
9, 538320, Note_on_c, 7, 79, 84
9, 538416, Note_off_c, 7, 79, 64
9, 538440, Note_on_c, 7, 79, 84
9, 538536, Note_off_c, 7, 79, 64
9, 538560, Note_on_c, 7, 79, 84
9, 538656, Note_off_c, 7, 79, 64
9, 538680, Note_on_c, 7, 79, 84
9, 538776, Note_off_c, 7, 79, 64
9, 538800, Note_on_c, 7, 79, 84
9, 538896, Note_off_c, 7, 79, 64
9, 538920, Note_on_c, 7, 79, 84
9, 539016, Note_off_c, 7, 79, 64
9, 539040, Note_on_c, 7, 76, 124
9, 539136, Note_off_c, 7, 76, 64
9, 539160, Note_on_c, 7, 76, 84
9, 539256, Note_off_c, 7, 76, 64
9, 539280, Note_on_c, 7, 76, 84
9, 539376, Note_off_c, 7, 76, 64
9, 539400, Note_on_c, 7, 76, 84
9, 539496, Note_off_c, 7, 76, 64
9, 539520, Note_on_c, 7, 76, 84
9, 539616, Note_off_c, 7, 76, 64
9, 539640, Note_on_c, 7, 76, 84
9, 539736, Note_off_c, 7, 76, 64
9, 539760, Note_on_c, 7, 76, 84
9, 539856, Note_off_c, 7, 76, 64
9, 539880, Note_on_c, 7, 76, 84
9, 539976, Note_off_c, 7, 76, 64
9, 540000, Note_on_c, 7, 72, 124
9, 540096, Note_off_c, 7, 72, 64
9, 540120, Note_on_c, 7, 72, 84
9, 540216, Note_off_c, 7, 72, 64
9, 540240, Note_on_c, 7, 72, 84
9, 540336, Note_off_c, 7, 72, 64
9, 540360, Note_on_c, 7, 72, 84
9, 540456, Note_off_c, 7, 72, 64
9, 540480, Note_on_c, 7, 72, 84
9, 540576, Note_off_c, 7, 72, 64
9, 540600, Note_on_c, 7, 72, 84
9, 540696, Note_off_c, 7, 72, 64
9, 540720, Note_on_c, 7, 72, 84
9, 540816, Note_off_c, 7, 72, 64
9, 540840, Note_on_c, 7, 72, 84
9, 540936, Note_off_c, 7, 72, 64
9, 540960, Note_on_c, 7, 76, 124
9, 541056, Note_off_c, 7, 76, 64
9, 541080, Note_on_c, 7, 76, 84
9, 541176, Note_off_c, 7, 76, 64
9, 541200, Note_on_c, 7, 76, 84
9, 541296, Note_off_c, 7, 76, 64
9, 541320, Note_on_c, 7, 76, 84
9, 541416, Note_off_c, 7, 76, 64
9, 541440, Note_on_c, 7, 76, 84
9, 541536, Note_off_c, 7, 76, 64
9, 541560, Note_on_c, 7, 76, 84
9, 541656, Note_off_c, 7, 76, 64
9, 541680, Note_on_c, 7, 76, 84
9, 541776, Note_off_c, 7, 76, 64
9, 541800, Note_on_c, 7, 76, 84
9, 541896, Note_off_c, 7, 76, 64
9, 541920, Note_on_c, 7, 79, 124
9, 542016, Note_off_c, 7, 79, 64
9, 542040, Note_on_c, 7, 79, 84
9, 542136, Note_off_c, 7, 79, 64
9, 542160, Note_on_c, 7, 79, 84
9, 542256, Note_off_c, 7, 79, 64
9, 542280, Note_on_c, 7, 79, 84
9, 542376, Note_off_c, 7, 79, 64
9, 542400, Note_on_c, 7, 79, 84
9, 542496, Note_off_c, 7, 79, 64
9, 542520, Note_on_c, 7, 79, 84
9, 542616, Note_off_c, 7, 79, 64
9, 542640, Note_on_c, 7, 79, 84
9, 542736, Note_off_c, 7, 79, 64
9, 542760, Note_on_c, 7, 79, 84
9, 542856, Note_off_c, 7, 79, 64
9, 542880, Note_on_c, 7, 84, 124
9, 542976, Note_off_c, 7, 84, 64
9, 543000, Note_on_c, 7, 84, 84
9, 543096, Note_off_c, 7, 84, 64
9, 543120, Note_on_c, 7, 84, 84
9, 543216, Note_off_c, 7, 84, 64
9, 543240, Note_on_c, 7, 84, 84
9, 543336, Note_off_c, 7, 84, 64
9, 543360, Note_on_c, 7, 84, 84
9, 543456, Note_off_c, 7, 84, 64
9, 543480, Note_on_c, 7, 84, 84
9, 543576, Note_off_c, 7, 84, 64
9, 543600, Note_on_c, 7, 84, 84
9, 543696, Note_off_c, 7, 84, 64
9, 543720, Note_on_c, 7, 84, 84
9, 543816, Note_off_c, 7, 84, 64
9, 543840, Note_on_c, 7, 88, 124
9, 543936, Note_off_c, 7, 88, 64
9, 543960, Note_on_c, 7, 88, 84
9, 544056, Note_off_c, 7, 88, 64
9, 544080, Note_on_c, 7, 88, 84
9, 544176, Note_off_c, 7, 88, 64
9, 544200, Note_on_c, 7, 88, 84
9, 544296, Note_off_c, 7, 88, 64
9, 544320, Note_on_c, 7, 88, 84
9, 544416, Note_off_c, 7, 88, 64
9, 544440, Note_on_c, 7, 88, 84
9, 544536, Note_off_c, 7, 88, 64
9, 544560, Note_on_c, 7, 88, 84
9, 544656, Note_off_c, 7, 88, 64
9, 544680, Note_on_c, 7, 88, 84
9, 544776, Note_off_c, 7, 88, 64
9, 544800, Note_on_c, 7, 91, 127
9, 544896, Note_off_c, 7, 91, 64
9, 544920, Note_on_c, 7, 91, 127
9, 545016, Note_off_c, 7, 91, 64
9, 545040, Note_on_c, 7, 91, 127
9, 545136, Note_off_c, 7, 91, 64
9, 545160, Note_on_c, 7, 91, 127
9, 545256, Note_off_c, 7, 91, 64
9, 545280, Note_on_c, 7, 91, 127
9, 545376, Note_off_c, 7, 91, 64
9, 545400, Note_on_c, 7, 91, 127
9, 545496, Note_off_c, 7, 91, 64
9, 545520, Note_on_c, 7, 91, 127
9, 545616, Note_off_c, 7, 91, 64
9, 545640, Note_on_c, 7, 91, 127
9, 545736, Note_off_c, 7, 91, 64
9, 545760, Note_on_c, 7, 91, 127
9, 545856, Note_off_c, 7, 91, 64
9, 545880, Note_on_c, 7, 91, 127
9, 545976, Note_off_c, 7, 91, 64
9, 546000, Note_on_c, 7, 91, 127
9, 546096, Note_off_c, 7, 91, 64
9, 546120, Note_on_c, 7, 91, 127
9, 546216, Note_off_c, 7, 91, 64
9, 546240, Note_on_c, 7, 91, 127
9, 546336, Note_off_c, 7, 91, 64
9, 546360, Note_on_c, 7, 91, 127
9, 546456, Note_off_c, 7, 91, 64
9, 546480, Note_on_c, 7, 91, 127
9, 546576, Note_off_c, 7, 91, 64
9, 546600, Note_on_c, 7, 91, 127
9, 546696, Note_off_c, 7, 91, 64
9, 546720, Note_on_c, 7, 88, 127
9, 546912, Note_off_c, 7, 88, 64
9, 548640, Note_on_c, 7, 91, 127
9, 548736, Note_off_c, 7, 91, 64
9, 548760, Note_on_c, 7, 91, 127
9, 548856, Note_off_c, 7, 91, 64
9, 548880, Note_on_c, 7, 91, 127
9, 548976, Note_off_c, 7, 91, 64
9, 549000, Note_on_c, 7, 91, 127
9, 549096, Note_off_c, 7, 91, 64
9, 549120, Note_on_c, 7, 91, 127
9, 549216, Note_off_c, 7, 91, 64
9, 549240, Note_on_c, 7, 91, 127
9, 549336, Note_off_c, 7, 91, 64
9, 549360, Note_on_c, 7, 91, 127
9, 549456, Note_off_c, 7, 91, 64
9, 549480, Note_on_c, 7, 91, 127
9, 549576, Note_off_c, 7, 91, 64
9, 549600, Note_on_c, 7, 91, 127
9, 549696, Note_off_c, 7, 91, 64
9, 549720, Note_on_c, 7, 91, 127
9, 549816, Note_off_c, 7, 91, 64
9, 549840, Note_on_c, 7, 91, 127
9, 549936, Note_off_c, 7, 91, 64
9, 549960, Note_on_c, 7, 91, 127
9, 550056, Note_off_c, 7, 91, 64
9, 550080, Note_on_c, 7, 91, 127
9, 550176, Note_off_c, 7, 91, 64
9, 550200, Note_on_c, 7, 91, 127
9, 550296, Note_off_c, 7, 91, 64
9, 550320, Note_on_c, 7, 91, 127
9, 550416, Note_off_c, 7, 91, 64
9, 550440, Note_on_c, 7, 91, 127
9, 550536, Note_off_c, 7, 91, 64
9, 550560, Note_on_c, 7, 88, 127
9, 550752, Note_off_c, 7, 88, 64
9, 552480, Note_on_c, 7, 91, 127
9, 552576, Note_off_c, 7, 91, 64
9, 552600, Note_on_c, 7, 91, 127
9, 552696, Note_off_c, 7, 91, 64
9, 552720, Note_on_c, 7, 91, 127
9, 552816, Note_off_c, 7, 91, 64
9, 552840, Note_on_c, 7, 91, 127
9, 552936, Note_off_c, 7, 91, 64
9, 552960, Note_on_c, 7, 91, 127
9, 553056, Note_off_c, 7, 91, 64
9, 553080, Note_on_c, 7, 91, 127
9, 553176, Note_off_c, 7, 91, 64
9, 553200, Note_on_c, 7, 91, 127
9, 553296, Note_off_c, 7, 91, 64
9, 553320, Note_on_c, 7, 91, 127
9, 553416, Note_off_c, 7, 91, 64
9, 553440, Note_on_c, 7, 91, 127
9, 553536, Note_off_c, 7, 91, 64
9, 553560, Note_on_c, 7, 91, 127
9, 553656, Note_off_c, 7, 91, 64
9, 553680, Note_on_c, 7, 91, 127
9, 553776, Note_off_c, 7, 91, 64
9, 553800, Note_on_c, 7, 91, 127
9, 553896, Note_off_c, 7, 91, 64
9, 553920, Note_on_c, 7, 91, 127
9, 554016, Note_off_c, 7, 91, 64
9, 554040, Note_on_c, 7, 91, 127
9, 554136, Note_off_c, 7, 91, 64
9, 554160, Note_on_c, 7, 91, 127
9, 554256, Note_off_c, 7, 91, 64
9, 554280, Note_on_c, 7, 91, 127
9, 554376, Note_off_c, 7, 91, 64
9, 554400, Note_on_c, 7, 88, 127
9, 554400, Note_on_c, 7, 84, 127
9, 554592, Note_off_c, 7, 84, 64
9, 554592, Note_off_c, 7, 88, 64
9, 556320, Note_on_c, 7, 76, 127
9, 556320, Note_on_c, 7, 84, 127
9, 556512, Note_off_c, 7, 84, 64
9, 556512, Note_off_c, 7, 76, 64
9, 558240, Note_on_c, 7, 84, 127
9, 558240, Note_on_c, 7, 76, 127
9, 558432, Note_off_c, 7, 76, 64
9, 558432, Note_off_c, 7, 84, 64
9, 560160, Note_on_c, 7, 60, 127
9, 560352, Note_off_c, 7, 60, 64
9, 561120, Note_on_c, 7, 60, 127
9, 561312, Note_off_c, 7, 60, 64
9, 562320, Note_on_c, 7, 60, 127
9, 566386, Note_off_c, 7, 60, 64
9, 566386, End_track
10, 0, Start_track
10, 0, Title_t, "Violin 2"
10, 0, MIDI_port, 0
10, 0, Channel_prefix, 8
10, 0, Control_c, 8, 7, 99
10, 0, Control_c, 8, 10, 45
10, 0, Program_c, 8, 48
10, 480, Program_c, 8, 48
10, 480, Control_c, 8, 91, 85
10, 480, Control_c, 8, 7, 90
10, 480, Control_c, 8, 93, 90
10, 480, Control_c, 8, 10, 94
10, 5760, Note_on_c, 8, 55, 114
10, 5904, Note_off_c, 8, 55, 64
10, 7680, Note_on_c, 8, 55, 114
10, 7824, Note_off_c, 8, 55, 64
10, 9600, Note_on_c, 8, 55, 114
10, 9744, Note_off_c, 8, 55, 64
10, 10560, Note_on_c, 8, 65, 114
10, 10704, Note_off_c, 8, 65, 64
10, 11520, Note_on_c, 8, 55, 114
10, 11664, Note_off_c, 8, 55, 64
10, 36960, Note_on_c, 8, 60, 43
10, 37344, Note_off_c, 8, 60, 64
10, 37920, Note_on_c, 8, 59, 43
10, 38304, Note_off_c, 8, 59, 64
10, 38880, Note_on_c, 8, 60, 43
10, 38880, Note_on_c, 8, 62, 43
10, 39264, Note_off_c, 8, 62, 64
10, 39264, Note_off_c, 8, 60, 64
10, 39840, Note_on_c, 8, 62, 43
10, 39840, Note_on_c, 8, 60, 43
10, 40224, Note_off_c, 8, 60, 64
10, 40224, Note_off_c, 8, 62, 64
10, 40800, Note_on_c, 8, 60, 43
10, 41184, Note_off_c, 8, 60, 64
10, 41760, Note_on_c, 8, 59, 43
10, 42144, Note_off_c, 8, 59, 64
10, 42720, Note_on_c, 8, 60, 43
10, 43104, Note_off_c, 8, 60, 64
10, 44160, Note_on_c, 8, 55, 79
10, 44160, Note_on_c, 8, 64, 79
10, 44160, Note_on_c, 8, 67, 79
10, 44274, Note_off_c, 8, 64, 64
10, 44274, Note_off_c, 8, 55, 64
10, 44856, Note_off_c, 8, 67, 64
10, 45000, Note_on_c, 8, 65, 79
10, 45096, Note_off_c, 8, 65, 64
10, 45120, Note_on_c, 8, 64, 79
10, 45600, Note_off_c, 8, 64, 64
10, 45600, Note_on_c, 8, 71, 79
10, 46080, Note_off_c, 8, 71, 64
10, 46080, Note_on_c, 8, 72, 79
10, 46560, Note_off_c, 8, 72, 64
10, 46560, Note_on_c, 8, 74, 79
10, 46920, Note_off_c, 8, 74, 64
10, 46920, Note_on_c, 8, 72, 79
10, 47016, Note_off_c, 8, 72, 64
10, 47040, Note_on_c, 8, 72, 79
10, 47520, Note_off_c, 8, 72, 64
10, 47520, Note_on_c, 8, 71, 67
10, 47904, Note_off_c, 8, 71, 64
10, 48000, Note_on_c, 8, 69, 79
10, 48798, Note_off_c, 8, 69, 64
10, 48840, Note_on_c, 8, 72, 79
10, 48936, Note_off_c, 8, 72, 64
10, 48960, Note_on_c, 8, 71, 79
10, 49440, Note_off_c, 8, 71, 64
10, 49440, Note_on_c, 8, 72, 79
10, 49920, Note_off_c, 8, 72, 64
10, 49920, Note_on_c, 8, 76, 79
10, 50400, Note_off_c, 8, 76, 64
10, 50400, Note_on_c, 8, 74, 79
10, 50760, Note_off_c, 8, 74, 64
10, 50760, Note_on_c, 8, 72, 79
10, 50856, Note_off_c, 8, 72, 64
10, 50880, Note_on_c, 8, 72, 79
10, 51600, Note_off_c, 8, 72, 64
10, 51840, Note_on_c, 8, 67, 90
10, 52762, Note_off_c, 8, 67, 64
10, 52800, Note_on_c, 8, 72, 90
10, 53722, Note_off_c, 8, 72, 64
10, 53760, Note_on_c, 8, 71, 90
10, 54452, Note_off_c, 8, 71, 64
10, 54480, Note_on_c, 8, 69, 90
10, 54710, Note_off_c, 8, 69, 64
10, 54720, Note_on_c, 8, 67, 90
10, 55180, Note_off_c, 8, 67, 64
10, 55200, Note_on_c, 8, 64, 90
10, 56140, Note_off_c, 8, 64, 64
10, 56160, Note_on_c, 8, 64, 90
10, 56620, Note_off_c, 8, 64, 64
10, 56640, Note_on_c, 8, 59, 90
10, 57562, Note_off_c, 8, 59, 64
10, 57600, Note_on_c, 8, 64, 72
10, 57984, Note_off_c, 8, 64, 64
10, 59520, Note_on_c, 8, 72, 72
10, 60288, Note_off_c, 8, 72, 64
10, 60480, Note_on_c, 8, 72, 72
10, 61248, Note_off_c, 8, 72, 64
10, 61440, Note_on_c, 8, 72, 72
10, 61824, Note_off_c, 8, 72, 64
10, 61920, Note_on_c, 8, 72, 72
10, 62304, Note_off_c, 8, 72, 64
10, 62400, Note_on_c, 8, 69, 72
10, 63360, Note_off_c, 8, 69, 64
10, 63360, Note_on_c, 8, 67, 72
10, 64128, Note_off_c, 8, 67, 64
10, 64320, Note_on_c, 8, 62, 72
10, 64704, Note_off_c, 8, 62, 64
10, 64800, Note_on_c, 8, 74, 72
10, 65184, Note_off_c, 8, 74, 64
10, 65280, Note_on_c, 8, 67, 76
10, 65664, Note_off_c, 8, 67, 64
10, 65760, Note_on_c, 8, 71, 76
10, 66144, Note_off_c, 8, 71, 64
10, 66240, Note_on_c, 8, 67, 76
10, 66480, Note_off_c, 8, 67, 64
10, 66480, Note_on_c, 8, 72, 76
10, 66720, Note_off_c, 8, 72, 64
10, 66720, Note_on_c, 8, 74, 76
10, 66960, Note_off_c, 8, 74, 64
10, 66960, Note_on_c, 8, 76, 76
10, 67200, Note_off_c, 8, 76, 64
10, 67200, Note_on_c, 8, 72, 101
10, 68064, Note_off_c, 8, 72, 64
10, 68160, Note_on_c, 8, 74, 101
10, 68544, Note_off_c, 8, 74, 64
10, 68640, Note_on_c, 8, 65, 101
10, 69090, Note_off_c, 8, 65, 64
10, 69120, Note_on_c, 8, 66, 101
10, 70488, Note_off_c, 8, 66, 64
10, 70560, Note_on_c, 8, 66, 101
10, 71010, Note_off_c, 8, 66, 64
10, 71040, Note_on_c, 8, 67, 101
10, 71760, Note_off_c, 8, 67, 64
10, 71760, Note_on_c, 8, 60, 101
10, 71952, Note_off_c, 8, 60, 64
10, 72000, Note_on_c, 8, 59, 72
10, 72576, Note_off_c, 8, 59, 64
10, 72720, Note_on_c, 8, 60, 72
10, 72912, Note_off_c, 8, 60, 64
10, 72960, Note_on_c, 8, 60, 101
10, 73344, Note_off_c, 8, 60, 64
10, 74880, Note_on_c, 8, 55, 90
10, 74880, Note_on_c, 8, 60, 90
10, 75024, Note_off_c, 8, 60, 64
10, 75024, Note_off_c, 8, 55, 64
10, 76800, Note_on_c, 8, 60, 90
10, 76800, Note_on_c, 8, 55, 90
10, 76944, Note_off_c, 8, 55, 64
10, 76944, Note_off_c, 8, 60, 64
10, 78720, Note_on_c, 8, 60, 90
10, 78720, Note_on_c, 8, 55, 90
10, 78864, Note_off_c, 8, 55, 64
10, 78864, Note_off_c, 8, 60, 64
10, 79680, Note_on_c, 8, 55, 90
10, 79680, Note_on_c, 8, 67, 90
10, 79824, Note_off_c, 8, 67, 64
10, 79824, Note_off_c, 8, 55, 64
10, 80640, Note_on_c, 8, 55, 90
10, 80640, Note_on_c, 8, 67, 90
10, 80784, Note_off_c, 8, 67, 64
10, 80784, Note_off_c, 8, 55, 64
10, 81120, Note_on_c, 8, 67, 90
10, 81120, Note_on_c, 8, 55, 90
10, 81264, Note_off_c, 8, 55, 64
10, 81264, Note_off_c, 8, 67, 64
10, 81600, Note_on_c, 8, 55, 90
10, 81600, Note_on_c, 8, 67, 90
10, 81744, Note_off_c, 8, 67, 64
10, 81744, Note_off_c, 8, 55, 64
10, 82560, Note_on_c, 8, 55, 72
10, 82560, Note_on_c, 8, 60, 72
10, 82704, Note_off_c, 8, 60, 64
10, 82704, Note_off_c, 8, 55, 64
10, 84480, Note_on_c, 8, 60, 72
10, 84480, Note_on_c, 8, 55, 72
10, 84624, Note_off_c, 8, 55, 64
10, 84624, Note_off_c, 8, 60, 64
10, 86400, Note_on_c, 8, 55, 72
10, 86400, Note_on_c, 8, 60, 72
10, 86544, Note_off_c, 8, 60, 64
10, 86544, Note_off_c, 8, 55, 64
10, 87360, Note_on_c, 8, 55, 72
10, 87360, Note_on_c, 8, 67, 72
10, 87504, Note_off_c, 8, 67, 64
10, 87504, Note_off_c, 8, 55, 64
10, 88320, Note_on_c, 8, 67, 72
10, 88320, Note_on_c, 8, 55, 72
10, 88464, Note_off_c, 8, 55, 64
10, 88464, Note_off_c, 8, 67, 64
10, 88800, Note_on_c, 8, 67, 72
10, 88800, Note_on_c, 8, 55, 72
10, 88944, Note_off_c, 8, 55, 64
10, 88944, Note_off_c, 8, 67, 64
10, 89280, Note_on_c, 8, 55, 72
10, 89280, Note_on_c, 8, 67, 72
10, 89424, Note_off_c, 8, 67, 64
10, 89424, Note_off_c, 8, 55, 64
10, 90240, Note_on_c, 8, 67, 72
10, 90240, Note_on_c, 8, 55, 72
10, 90384, Note_off_c, 8, 55, 64
10, 90384, Note_off_c, 8, 67, 64
10, 92160, Note_on_c, 8, 67, 72
10, 92160, Note_on_c, 8, 55, 72
10, 92304, Note_off_c, 8, 55, 64
10, 92304, Note_off_c, 8, 67, 64
10, 94080, Note_on_c, 8, 67, 72
10, 94080, Note_on_c, 8, 55, 72
10, 94224, Note_off_c, 8, 55, 64
10, 94224, Note_off_c, 8, 67, 64
10, 95040, Note_on_c, 8, 67, 72
10, 95040, Note_on_c, 8, 55, 72
10, 95184, Note_off_c, 8, 55, 64
10, 95184, Note_off_c, 8, 67, 64
10, 96000, Note_on_c, 8, 55, 72
10, 96000, Note_on_c, 8, 67, 72
10, 96144, Note_off_c, 8, 67, 64
10, 96144, Note_off_c, 8, 55, 64
10, 96480, Note_on_c, 8, 55, 72
10, 96480, Note_on_c, 8, 67, 72
10, 96624, Note_off_c, 8, 67, 64
10, 96624, Note_off_c, 8, 55, 64
10, 96960, Note_on_c, 8, 67, 72
10, 96960, Note_on_c, 8, 55, 72
10, 97104, Note_off_c, 8, 55, 64
10, 97104, Note_off_c, 8, 67, 64
10, 97920, Note_on_c, 8, 67, 72
10, 97920, Note_on_c, 8, 55, 72
10, 98064, Note_off_c, 8, 55, 64
10, 98064, Note_off_c, 8, 67, 64
10, 99840, Note_on_c, 8, 67, 72
10, 99840, Note_on_c, 8, 55, 72
10, 99984, Note_off_c, 8, 55, 64
10, 99984, Note_off_c, 8, 67, 64
10, 101760, Note_on_c, 8, 67, 72
10, 101760, Note_on_c, 8, 55, 72
10, 101904, Note_off_c, 8, 55, 64
10, 101904, Note_off_c, 8, 67, 64
10, 102720, Note_on_c, 8, 55, 72
10, 102720, Note_on_c, 8, 67, 72
10, 102864, Note_off_c, 8, 67, 64
10, 102864, Note_off_c, 8, 55, 64
10, 103680, Note_on_c, 8, 55, 72
10, 103680, Note_on_c, 8, 67, 72
10, 103824, Note_off_c, 8, 67, 64
10, 103824, Note_off_c, 8, 55, 64
10, 104160, Note_on_c, 8, 55, 72
10, 104160, Note_on_c, 8, 67, 72
10, 104304, Note_off_c, 8, 67, 64
10, 104304, Note_off_c, 8, 55, 64
10, 104640, Note_on_c, 8, 55, 72
10, 104640, Note_on_c, 8, 67, 72
10, 104784, Note_off_c, 8, 67, 64
10, 104784, Note_off_c, 8, 55, 64
10, 105600, Note_on_c, 8, 74, 36
10, 105984, Note_off_c, 8, 74, 64
10, 106080, Note_on_c, 8, 74, 36
10, 106224, Note_off_c, 8, 74, 64
10, 106440, Note_on_c, 8, 74, 36
10, 106488, Note_off_c, 8, 74, 64
10, 106560, Note_on_c, 8, 72, 36
10, 107136, Note_off_c, 8, 72, 64
10, 111360, Note_on_c, 8, 67, 56
10, 111900, Note_off_c, 8, 67, 64
10, 111960, Note_on_c, 8, 71, 45
10, 112020, Note_off_c, 8, 71, 64
10, 112080, Note_on_c, 8, 69, 45
10, 112140, Note_off_c, 8, 69, 64
10, 112200, Note_on_c, 8, 67, 45
10, 112260, Note_off_c, 8, 67, 64
10, 112320, Note_on_c, 8, 66, 45
10, 112380, Note_off_c, 8, 66, 64
10, 112440, Note_on_c, 8, 67, 45
10, 112500, Note_off_c, 8, 67, 64
10, 112560, Note_on_c, 8, 69, 45
10, 112620, Note_off_c, 8, 69, 64
10, 112680, Note_on_c, 8, 71, 45
10, 112740, Note_off_c, 8, 71, 64
10, 112920, Note_on_c, 8, 72, 45
10, 112980, Note_off_c, 8, 72, 64
10, 113040, Note_on_c, 8, 69, 45
10, 113100, Note_off_c, 8, 69, 64
10, 113160, Note_on_c, 8, 74, 45
10, 113220, Note_off_c, 8, 74, 64
10, 113280, Note_on_c, 8, 71, 45
10, 113340, Note_off_c, 8, 71, 64
10, 113400, Note_on_c, 8, 74, 45
10, 113460, Note_off_c, 8, 74, 64
10, 113520, Note_on_c, 8, 72, 45
10, 113580, Note_off_c, 8, 72, 64
10, 113640, Note_on_c, 8, 71, 45
10, 113700, Note_off_c, 8, 71, 64
10, 113760, Note_on_c, 8, 72, 45
10, 113820, Note_off_c, 8, 72, 64
10, 113880, Note_on_c, 8, 76, 45
10, 113940, Note_off_c, 8, 76, 64
10, 114000, Note_on_c, 8, 74, 45
10, 114060, Note_off_c, 8, 74, 64
10, 114120, Note_on_c, 8, 72, 45
10, 114180, Note_off_c, 8, 72, 64
10, 114240, Note_on_c, 8, 74, 45
10, 114300, Note_off_c, 8, 74, 64
10, 114360, Note_on_c, 8, 77, 45
10, 114420, Note_off_c, 8, 77, 64
10, 114480, Note_on_c, 8, 76, 45
10, 114540, Note_off_c, 8, 76, 64
10, 114600, Note_on_c, 8, 74, 45
10, 114660, Note_off_c, 8, 74, 64
10, 114720, Note_on_c, 8, 72, 45
10, 114780, Note_off_c, 8, 72, 64
10, 114840, Note_on_c, 8, 71, 45
10, 114900, Note_off_c, 8, 71, 64
10, 114960, Note_on_c, 8, 72, 45
10, 115020, Note_off_c, 8, 72, 64
10, 115080, Note_on_c, 8, 74, 45
10, 115140, Note_off_c, 8, 74, 64
10, 115200, Note_on_c, 8, 76, 50
10, 115272, Note_off_c, 8, 76, 64
10, 115440, Note_on_c, 8, 60, 25
10, 115512, Note_off_c, 8, 60, 64
10, 115680, Note_on_c, 8, 60, 25
10, 115752, Note_off_c, 8, 60, 64
10, 115920, Note_on_c, 8, 60, 25
10, 115992, Note_off_c, 8, 60, 64
10, 116160, Note_on_c, 8, 59, 25
10, 116232, Note_off_c, 8, 59, 64
10, 116400, Note_on_c, 8, 59, 25
10, 116472, Note_off_c, 8, 59, 64
10, 116640, Note_on_c, 8, 59, 25
10, 116712, Note_off_c, 8, 59, 64
10, 116880, Note_on_c, 8, 59, 25
10, 116952, Note_off_c, 8, 59, 64
10, 117120, Note_on_c, 8, 60, 43
10, 117192, Note_off_c, 8, 60, 64
10, 117360, Note_on_c, 8, 55, 43
10, 117432, Note_off_c, 8, 55, 64
10, 117600, Note_on_c, 8, 55, 43
10, 117672, Note_off_c, 8, 55, 64
10, 117840, Note_on_c, 8, 55, 43
10, 117912, Note_off_c, 8, 55, 64
10, 118080, Note_on_c, 8, 55, 43
10, 118152, Note_off_c, 8, 55, 64
10, 118320, Note_on_c, 8, 55, 43
10, 118392, Note_off_c, 8, 55, 64
10, 118560, Note_on_c, 8, 55, 43
10, 118632, Note_off_c, 8, 55, 64
10, 118800, Note_on_c, 8, 55, 43
10, 118872, Note_off_c, 8, 55, 64
10, 119040, Note_on_c, 8, 55, 43
10, 119112, Note_off_c, 8, 55, 64
10, 119280, Note_on_c, 8, 55, 43
10, 119352, Note_off_c, 8, 55, 64
10, 119520, Note_on_c, 8, 55, 43
10, 119592, Note_off_c, 8, 55, 64
10, 119760, Note_on_c, 8, 55, 43
10, 119832, Note_off_c, 8, 55, 64
10, 120000, Note_on_c, 8, 55, 43
10, 120072, Note_off_c, 8, 55, 64
10, 120240, Note_on_c, 8, 55, 43
10, 120312, Note_off_c, 8, 55, 64
10, 120480, Note_on_c, 8, 55, 43
10, 120552, Note_off_c, 8, 55, 64
10, 120720, Note_on_c, 8, 55, 43
10, 120792, Note_off_c, 8, 55, 64
10, 120960, Note_on_c, 8, 55, 56
10, 121488, Note_off_c, 8, 55, 64
10, 121560, Note_on_c, 8, 59, 41
10, 121608, Note_off_c, 8, 59, 64
10, 121680, Note_on_c, 8, 57, 42
10, 121728, Note_off_c, 8, 57, 64
10, 121800, Note_on_c, 8, 55, 43
10, 121848, Note_off_c, 8, 55, 64
10, 121920, Note_on_c, 8, 54, 44
10, 121968, Note_off_c, 8, 54, 64
10, 122040, Note_on_c, 8, 55, 45
10, 122088, Note_off_c, 8, 55, 64
10, 122160, Note_on_c, 8, 57, 46
10, 122208, Note_off_c, 8, 57, 64
10, 122280, Note_on_c, 8, 59, 47
10, 122328, Note_off_c, 8, 59, 64
10, 122400, Note_on_c, 8, 62, 48
10, 122448, Note_off_c, 8, 62, 64
10, 122520, Note_on_c, 8, 60, 49
10, 122568, Note_off_c, 8, 60, 64
10, 122640, Note_on_c, 8, 57, 50
10, 122688, Note_off_c, 8, 57, 64
10, 122760, Note_on_c, 8, 62, 50
10, 122808, Note_off_c, 8, 62, 64
10, 122880, Note_on_c, 8, 59, 52
10, 122928, Note_off_c, 8, 59, 64
10, 123000, Note_on_c, 8, 64, 53
10, 123048, Note_off_c, 8, 64, 64
10, 123120, Note_on_c, 8, 62, 54
10, 123168, Note_off_c, 8, 62, 64
10, 123240, Note_on_c, 8, 59, 55
10, 123288, Note_off_c, 8, 59, 64
10, 123360, Note_on_c, 8, 65, 56
10, 123408, Note_off_c, 8, 65, 64
10, 123480, Note_on_c, 8, 64, 57
10, 123528, Note_off_c, 8, 64, 64
10, 123600, Note_on_c, 8, 60, 58
10, 123648, Note_off_c, 8, 60, 64
10, 123720, Note_on_c, 8, 65, 59
10, 123768, Note_off_c, 8, 65, 64
10, 123840, Note_on_c, 8, 62, 59
10, 123888, Note_off_c, 8, 62, 64
10, 123960, Note_on_c, 8, 67, 60
10, 124008, Note_off_c, 8, 67, 64
10, 124080, Note_on_c, 8, 65, 61
10, 124128, Note_off_c, 8, 65, 64
10, 124200, Note_on_c, 8, 62, 63
10, 124248, Note_off_c, 8, 62, 64
10, 124320, Note_on_c, 8, 69, 64
10, 124368, Note_off_c, 8, 69, 64
10, 124440, Note_on_c, 8, 67, 65
10, 124488, Note_off_c, 8, 67, 64
10, 124560, Note_on_c, 8, 64, 66
10, 124608, Note_off_c, 8, 64, 64
10, 124680, Note_on_c, 8, 69, 67
10, 124728, Note_off_c, 8, 69, 64
10, 124800, Note_on_c, 8, 65, 68
10, 124848, Note_off_c, 8, 65, 64
10, 124920, Note_on_c, 8, 71, 68
10, 124968, Note_off_c, 8, 71, 64
10, 125040, Note_on_c, 8, 69, 69
10, 125088, Note_off_c, 8, 69, 64
10, 125160, Note_on_c, 8, 65, 70
10, 125208, Note_off_c, 8, 65, 64
10, 125280, Note_on_c, 8, 72, 71
10, 125328, Note_off_c, 8, 72, 64
10, 125400, Note_on_c, 8, 71, 72
10, 125448, Note_off_c, 8, 71, 64
10, 125520, Note_on_c, 8, 67, 74
10, 125568, Note_off_c, 8, 67, 64
10, 125640, Note_on_c, 8, 72, 75
10, 125688, Note_off_c, 8, 72, 64
10, 125760, Note_on_c, 8, 57, 76
10, 125808, Note_off_c, 8, 57, 64
10, 125880, Note_on_c, 8, 62, 77
10, 125928, Note_off_c, 8, 62, 64
10, 126000, Note_on_c, 8, 60, 77
10, 126048, Note_off_c, 8, 60, 64
10, 126120, Note_on_c, 8, 57, 78
10, 126168, Note_off_c, 8, 57, 64
10, 126240, Note_on_c, 8, 64, 79
10, 126288, Note_off_c, 8, 64, 64
10, 126360, Note_on_c, 8, 62, 80
10, 126408, Note_off_c, 8, 62, 64
10, 126480, Note_on_c, 8, 59, 81
10, 126528, Note_off_c, 8, 59, 64
10, 126600, Note_on_c, 8, 64, 82
10, 126648, Note_off_c, 8, 64, 64
10, 126720, Note_on_c, 8, 60, 84
10, 126768, Note_off_c, 8, 60, 64
10, 126840, Note_on_c, 8, 65, 85
10, 126888, Note_off_c, 8, 65, 64
10, 126960, Note_on_c, 8, 64, 86
10, 127008, Note_off_c, 8, 64, 64
10, 127080, Note_on_c, 8, 60, 86
10, 127128, Note_off_c, 8, 60, 64
10, 127200, Note_on_c, 8, 67, 87
10, 127248, Note_off_c, 8, 67, 64
10, 127320, Note_on_c, 8, 65, 88
10, 127368, Note_off_c, 8, 65, 64
10, 127440, Note_on_c, 8, 62, 89
10, 127488, Note_off_c, 8, 62, 64
10, 127560, Note_on_c, 8, 67, 90
10, 127608, Note_off_c, 8, 67, 64
10, 127680, Note_on_c, 8, 64, 91
10, 127728, Note_off_c, 8, 64, 64
10, 127800, Note_on_c, 8, 69, 92
10, 127848, Note_off_c, 8, 69, 64
10, 127920, Note_on_c, 8, 67, 93
10, 127968, Note_off_c, 8, 67, 64
10, 128040, Note_on_c, 8, 64, 95
10, 128088, Note_off_c, 8, 64, 64
10, 128160, Note_on_c, 8, 69, 72
10, 128160, Note_on_c, 8, 65, 72
10, 128208, Note_off_c, 8, 65, 64
10, 128208, Note_off_c, 8, 69, 64
10, 128220, Note_on_c, 8, 69, 72
10, 128220, Note_on_c, 8, 65, 72
10, 128268, Note_off_c, 8, 65, 64
10, 128268, Note_off_c, 8, 69, 64
10, 128280, Note_on_c, 8, 69, 72
10, 128280, Note_on_c, 8, 65, 72
10, 128328, Note_off_c, 8, 65, 64
10, 128328, Note_off_c, 8, 69, 64
10, 128340, Note_on_c, 8, 65, 72
10, 128340, Note_on_c, 8, 69, 72
10, 128388, Note_off_c, 8, 69, 64
10, 128388, Note_off_c, 8, 65, 64
10, 128400, Note_on_c, 8, 65, 72
10, 128400, Note_on_c, 8, 69, 72
10, 128448, Note_off_c, 8, 69, 64
10, 128448, Note_off_c, 8, 65, 64
10, 128460, Note_on_c, 8, 65, 72
10, 128460, Note_on_c, 8, 69, 72
10, 128508, Note_off_c, 8, 69, 64
10, 128508, Note_off_c, 8, 65, 64
10, 128520, Note_on_c, 8, 69, 72
10, 128520, Note_on_c, 8, 65, 72
10, 128568, Note_off_c, 8, 65, 64
10, 128568, Note_off_c, 8, 69, 64
10, 128580, Note_on_c, 8, 65, 72
10, 128580, Note_on_c, 8, 69, 72
10, 128628, Note_off_c, 8, 69, 64
10, 128628, Note_off_c, 8, 65, 64
10, 128640, Note_on_c, 8, 65, 72
10, 128640, Note_on_c, 8, 69, 72
10, 128688, Note_off_c, 8, 69, 64
10, 128688, Note_off_c, 8, 65, 64
10, 128700, Note_on_c, 8, 69, 72
10, 128700, Note_on_c, 8, 65, 72
10, 128748, Note_off_c, 8, 65, 64
10, 128748, Note_off_c, 8, 69, 64
10, 128760, Note_on_c, 8, 65, 72
10, 128760, Note_on_c, 8, 69, 72
10, 128808, Note_off_c, 8, 69, 64
10, 128808, Note_off_c, 8, 65, 64
10, 128820, Note_on_c, 8, 69, 72
10, 128820, Note_on_c, 8, 65, 72
10, 128868, Note_off_c, 8, 65, 64
10, 128868, Note_off_c, 8, 69, 64
10, 128880, Note_on_c, 8, 69, 72
10, 128880, Note_on_c, 8, 65, 72
10, 128928, Note_off_c, 8, 65, 64
10, 128928, Note_off_c, 8, 69, 64
10, 128940, Note_on_c, 8, 69, 72
10, 128940, Note_on_c, 8, 65, 72
10, 128988, Note_off_c, 8, 65, 64
10, 128988, Note_off_c, 8, 69, 64
10, 129000, Note_on_c, 8, 65, 72
10, 129000, Note_on_c, 8, 69, 72
10, 129048, Note_off_c, 8, 69, 64
10, 129048, Note_off_c, 8, 65, 64
10, 129060, Note_on_c, 8, 65, 72
10, 129060, Note_on_c, 8, 69, 72
10, 129108, Note_off_c, 8, 69, 64
10, 129108, Note_off_c, 8, 65, 64
10, 129120, Note_on_c, 8, 69, 72
10, 129120, Note_on_c, 8, 65, 72
10, 129168, Note_off_c, 8, 65, 64
10, 129168, Note_off_c, 8, 69, 64
10, 129180, Note_on_c, 8, 65, 72
10, 129180, Note_on_c, 8, 69, 72
10, 129228, Note_off_c, 8, 69, 64
10, 129228, Note_off_c, 8, 65, 64
10, 129240, Note_on_c, 8, 69, 72
10, 129240, Note_on_c, 8, 65, 72
10, 129288, Note_off_c, 8, 65, 64
10, 129288, Note_off_c, 8, 69, 64
10, 129300, Note_on_c, 8, 65, 72
10, 129300, Note_on_c, 8, 69, 72
10, 129348, Note_off_c, 8, 69, 64
10, 129348, Note_off_c, 8, 65, 64
10, 129360, Note_on_c, 8, 65, 72
10, 129360, Note_on_c, 8, 69, 72
10, 129408, Note_off_c, 8, 69, 64
10, 129408, Note_off_c, 8, 65, 64
10, 129420, Note_on_c, 8, 69, 72
10, 129420, Note_on_c, 8, 65, 72
10, 129468, Note_off_c, 8, 65, 64
10, 129468, Note_off_c, 8, 69, 64
10, 129480, Note_on_c, 8, 69, 72
10, 129480, Note_on_c, 8, 65, 72
10, 129528, Note_off_c, 8, 65, 64
10, 129528, Note_off_c, 8, 69, 64
10, 129540, Note_on_c, 8, 65, 72
10, 129540, Note_on_c, 8, 69, 72
10, 129588, Note_off_c, 8, 69, 64
10, 129588, Note_off_c, 8, 65, 64
10, 129600, Note_on_c, 8, 69, 72
10, 129600, Note_on_c, 8, 65, 72
10, 129648, Note_off_c, 8, 65, 64
10, 129648, Note_off_c, 8, 69, 64
10, 129660, Note_on_c, 8, 65, 72
10, 129660, Note_on_c, 8, 69, 72
10, 129708, Note_off_c, 8, 69, 64
10, 129708, Note_off_c, 8, 65, 64
10, 129720, Note_on_c, 8, 65, 72
10, 129720, Note_on_c, 8, 69, 72
10, 129768, Note_off_c, 8, 69, 64
10, 129768, Note_off_c, 8, 65, 64
10, 129780, Note_on_c, 8, 69, 72
10, 129780, Note_on_c, 8, 65, 72
10, 129828, Note_off_c, 8, 65, 64
10, 129828, Note_off_c, 8, 69, 64
10, 129840, Note_on_c, 8, 69, 72
10, 129840, Note_on_c, 8, 65, 72
10, 129888, Note_off_c, 8, 65, 64
10, 129888, Note_off_c, 8, 69, 64
10, 129900, Note_on_c, 8, 65, 72
10, 129900, Note_on_c, 8, 69, 72
10, 129948, Note_off_c, 8, 69, 64
10, 129948, Note_off_c, 8, 65, 64
10, 129960, Note_on_c, 8, 69, 72
10, 129960, Note_on_c, 8, 65, 72
10, 130008, Note_off_c, 8, 65, 64
10, 130008, Note_off_c, 8, 69, 64
10, 130020, Note_on_c, 8, 69, 72
10, 130020, Note_on_c, 8, 65, 72
10, 130068, Note_off_c, 8, 65, 64
10, 130068, Note_off_c, 8, 69, 64
10, 130080, Note_on_c, 8, 65, 72
10, 130080, Note_on_c, 8, 69, 72
10, 130128, Note_off_c, 8, 69, 64
10, 130128, Note_off_c, 8, 65, 64
10, 130140, Note_on_c, 8, 69, 72
10, 130140, Note_on_c, 8, 65, 72
10, 130188, Note_off_c, 8, 65, 64
10, 130188, Note_off_c, 8, 69, 64
10, 130200, Note_on_c, 8, 65, 72
10, 130200, Note_on_c, 8, 69, 72
10, 130248, Note_off_c, 8, 69, 64
10, 130248, Note_off_c, 8, 65, 64
10, 130260, Note_on_c, 8, 69, 72
10, 130260, Note_on_c, 8, 65, 72
10, 130308, Note_off_c, 8, 65, 64
10, 130308, Note_off_c, 8, 69, 64
10, 130320, Note_on_c, 8, 65, 72
10, 130320, Note_on_c, 8, 69, 72
10, 130368, Note_off_c, 8, 69, 64
10, 130368, Note_off_c, 8, 65, 64
10, 130380, Note_on_c, 8, 69, 72
10, 130380, Note_on_c, 8, 65, 72
10, 130428, Note_off_c, 8, 65, 64
10, 130428, Note_off_c, 8, 69, 64
10, 130440, Note_on_c, 8, 69, 72
10, 130440, Note_on_c, 8, 65, 72
10, 130488, Note_off_c, 8, 65, 64
10, 130488, Note_off_c, 8, 69, 64
10, 130500, Note_on_c, 8, 69, 72
10, 130500, Note_on_c, 8, 65, 72
10, 130548, Note_off_c, 8, 65, 64
10, 130548, Note_off_c, 8, 69, 64
10, 130560, Note_on_c, 8, 65, 72
10, 130560, Note_on_c, 8, 69, 72
10, 130608, Note_off_c, 8, 69, 64
10, 130608, Note_off_c, 8, 65, 64
10, 130620, Note_on_c, 8, 65, 72
10, 130620, Note_on_c, 8, 69, 72
10, 130668, Note_off_c, 8, 69, 64
10, 130668, Note_off_c, 8, 65, 64
10, 130680, Note_on_c, 8, 69, 72
10, 130680, Note_on_c, 8, 65, 72
10, 130728, Note_off_c, 8, 65, 64
10, 130728, Note_off_c, 8, 69, 64
10, 130740, Note_on_c, 8, 69, 72
10, 130740, Note_on_c, 8, 65, 72
10, 130788, Note_off_c, 8, 65, 64
10, 130788, Note_off_c, 8, 69, 64
10, 130800, Note_on_c, 8, 69, 72
10, 130800, Note_on_c, 8, 65, 72
10, 130848, Note_off_c, 8, 65, 64
10, 130848, Note_off_c, 8, 69, 64
10, 130860, Note_on_c, 8, 65, 72
10, 130860, Note_on_c, 8, 69, 72
10, 130908, Note_off_c, 8, 69, 64
10, 130908, Note_off_c, 8, 65, 64
10, 130920, Note_on_c, 8, 65, 72
10, 130920, Note_on_c, 8, 69, 72
10, 130968, Note_off_c, 8, 69, 64
10, 130968, Note_off_c, 8, 65, 64
10, 130980, Note_on_c, 8, 69, 72
10, 130980, Note_on_c, 8, 65, 72
10, 131028, Note_off_c, 8, 65, 64
10, 131028, Note_off_c, 8, 69, 64
10, 131040, Note_on_c, 8, 67, 72
10, 131040, Note_on_c, 8, 64, 72
10, 131088, Note_off_c, 8, 64, 64
10, 131088, Note_off_c, 8, 67, 64
10, 131100, Note_on_c, 8, 67, 72
10, 131100, Note_on_c, 8, 64, 72
10, 131148, Note_off_c, 8, 64, 64
10, 131148, Note_off_c, 8, 67, 64
10, 131160, Note_on_c, 8, 64, 72
10, 131160, Note_on_c, 8, 67, 72
10, 131208, Note_off_c, 8, 67, 64
10, 131208, Note_off_c, 8, 64, 64
10, 131220, Note_on_c, 8, 67, 72
10, 131220, Note_on_c, 8, 64, 72
10, 131268, Note_off_c, 8, 64, 64
10, 131268, Note_off_c, 8, 67, 64
10, 131280, Note_on_c, 8, 64, 72
10, 131280, Note_on_c, 8, 67, 72
10, 131328, Note_off_c, 8, 67, 64
10, 131328, Note_off_c, 8, 64, 64
10, 131340, Note_on_c, 8, 64, 72
10, 131340, Note_on_c, 8, 67, 72
10, 131388, Note_off_c, 8, 67, 64
10, 131388, Note_off_c, 8, 64, 64
10, 131400, Note_on_c, 8, 64, 72
10, 131400, Note_on_c, 8, 67, 72
10, 131448, Note_off_c, 8, 67, 64
10, 131448, Note_off_c, 8, 64, 64
10, 131460, Note_on_c, 8, 67, 72
10, 131460, Note_on_c, 8, 64, 72
10, 131508, Note_off_c, 8, 64, 64
10, 131508, Note_off_c, 8, 67, 64
10, 131520, Note_on_c, 8, 67, 72
10, 131520, Note_on_c, 8, 64, 72
10, 131568, Note_off_c, 8, 64, 64
10, 131568, Note_off_c, 8, 67, 64
10, 131580, Note_on_c, 8, 64, 72
10, 131580, Note_on_c, 8, 67, 72
10, 131628, Note_off_c, 8, 67, 64
10, 131628, Note_off_c, 8, 64, 64
10, 131640, Note_on_c, 8, 67, 72
10, 131640, Note_on_c, 8, 64, 72
10, 131688, Note_off_c, 8, 64, 64
10, 131688, Note_off_c, 8, 67, 64
10, 131700, Note_on_c, 8, 64, 72
10, 131700, Note_on_c, 8, 67, 72
10, 131748, Note_off_c, 8, 67, 64
10, 131748, Note_off_c, 8, 64, 64
10, 131760, Note_on_c, 8, 64, 72
10, 131760, Note_on_c, 8, 67, 72
10, 131808, Note_off_c, 8, 67, 64
10, 131808, Note_off_c, 8, 64, 64
10, 131820, Note_on_c, 8, 67, 72
10, 131820, Note_on_c, 8, 64, 72
10, 131868, Note_off_c, 8, 64, 64
10, 131868, Note_off_c, 8, 67, 64
10, 131880, Note_on_c, 8, 64, 72
10, 131880, Note_on_c, 8, 67, 72
10, 131928, Note_off_c, 8, 67, 64
10, 131928, Note_off_c, 8, 64, 64
10, 131940, Note_on_c, 8, 64, 72
10, 131940, Note_on_c, 8, 67, 72
10, 131988, Note_off_c, 8, 67, 64
10, 131988, Note_off_c, 8, 64, 64
10, 132000, Note_on_c, 8, 64, 72
10, 132000, Note_on_c, 8, 67, 72
10, 132048, Note_off_c, 8, 67, 64
10, 132048, Note_off_c, 8, 64, 64
10, 132060, Note_on_c, 8, 67, 72
10, 132060, Note_on_c, 8, 64, 72
10, 132108, Note_off_c, 8, 64, 64
10, 132108, Note_off_c, 8, 67, 64
10, 132120, Note_on_c, 8, 67, 72
10, 132120, Note_on_c, 8, 64, 72
10, 132168, Note_off_c, 8, 64, 64
10, 132168, Note_off_c, 8, 67, 64
10, 132180, Note_on_c, 8, 64, 72
10, 132180, Note_on_c, 8, 67, 72
10, 132228, Note_off_c, 8, 67, 64
10, 132228, Note_off_c, 8, 64, 64
10, 132240, Note_on_c, 8, 64, 72
10, 132240, Note_on_c, 8, 67, 72
10, 132288, Note_off_c, 8, 67, 64
10, 132288, Note_off_c, 8, 64, 64
10, 132300, Note_on_c, 8, 67, 72
10, 132300, Note_on_c, 8, 64, 72
10, 132348, Note_off_c, 8, 64, 64
10, 132348, Note_off_c, 8, 67, 64
10, 132360, Note_on_c, 8, 64, 72
10, 132360, Note_on_c, 8, 67, 72
10, 132408, Note_off_c, 8, 67, 64
10, 132408, Note_off_c, 8, 64, 64
10, 132420, Note_on_c, 8, 64, 72
10, 132420, Note_on_c, 8, 67, 72
10, 132468, Note_off_c, 8, 67, 64
10, 132468, Note_off_c, 8, 64, 64
10, 132480, Note_on_c, 8, 64, 72
10, 132480, Note_on_c, 8, 67, 72
10, 132528, Note_off_c, 8, 67, 64
10, 132528, Note_off_c, 8, 64, 64
10, 132540, Note_on_c, 8, 64, 72
10, 132540, Note_on_c, 8, 67, 72
10, 132588, Note_off_c, 8, 67, 64
10, 132588, Note_off_c, 8, 64, 64
10, 132600, Note_on_c, 8, 64, 72
10, 132600, Note_on_c, 8, 67, 72
10, 132648, Note_off_c, 8, 67, 64
10, 132648, Note_off_c, 8, 64, 64
10, 132660, Note_on_c, 8, 67, 72
10, 132660, Note_on_c, 8, 64, 72
10, 132708, Note_off_c, 8, 64, 64
10, 132708, Note_off_c, 8, 67, 64
10, 132720, Note_on_c, 8, 67, 72
10, 132720, Note_on_c, 8, 64, 72
10, 132768, Note_off_c, 8, 64, 64
10, 132768, Note_off_c, 8, 67, 64
10, 132780, Note_on_c, 8, 67, 72
10, 132780, Note_on_c, 8, 64, 72
10, 132828, Note_off_c, 8, 64, 64
10, 132828, Note_off_c, 8, 67, 64
10, 132840, Note_on_c, 8, 64, 72
10, 132840, Note_on_c, 8, 67, 72
10, 132888, Note_off_c, 8, 67, 64
10, 132888, Note_off_c, 8, 64, 64
10, 132900, Note_on_c, 8, 64, 72
10, 132900, Note_on_c, 8, 67, 72
10, 132948, Note_off_c, 8, 67, 64
10, 132948, Note_off_c, 8, 64, 64
10, 132960, Note_on_c, 8, 65, 72
10, 132960, Note_on_c, 8, 62, 72
10, 133008, Note_off_c, 8, 62, 64
10, 133008, Note_off_c, 8, 65, 64
10, 133020, Note_on_c, 8, 62, 72
10, 133020, Note_on_c, 8, 65, 72
10, 133068, Note_off_c, 8, 65, 64
10, 133068, Note_off_c, 8, 62, 64
10, 133080, Note_on_c, 8, 65, 72
10, 133080, Note_on_c, 8, 62, 72
10, 133128, Note_off_c, 8, 62, 64
10, 133128, Note_off_c, 8, 65, 64
10, 133140, Note_on_c, 8, 65, 72
10, 133140, Note_on_c, 8, 62, 72
10, 133188, Note_off_c, 8, 62, 64
10, 133188, Note_off_c, 8, 65, 64
10, 133200, Note_on_c, 8, 62, 72
10, 133200, Note_on_c, 8, 65, 72
10, 133248, Note_off_c, 8, 65, 64
10, 133248, Note_off_c, 8, 62, 64
10, 133260, Note_on_c, 8, 62, 72
10, 133260, Note_on_c, 8, 65, 72
10, 133308, Note_off_c, 8, 65, 64
10, 133308, Note_off_c, 8, 62, 64
10, 133320, Note_on_c, 8, 65, 72
10, 133320, Note_on_c, 8, 62, 72
10, 133368, Note_off_c, 8, 62, 64
10, 133368, Note_off_c, 8, 65, 64
10, 133380, Note_on_c, 8, 65, 72
10, 133380, Note_on_c, 8, 62, 72
10, 133428, Note_off_c, 8, 62, 64
10, 133428, Note_off_c, 8, 65, 64
10, 133440, Note_on_c, 8, 65, 72
10, 133440, Note_on_c, 8, 62, 72
10, 133488, Note_off_c, 8, 62, 64
10, 133488, Note_off_c, 8, 65, 64
10, 133500, Note_on_c, 8, 65, 72
10, 133500, Note_on_c, 8, 62, 72
10, 133548, Note_off_c, 8, 62, 64
10, 133548, Note_off_c, 8, 65, 64
10, 133560, Note_on_c, 8, 65, 72
10, 133560, Note_on_c, 8, 62, 72
10, 133608, Note_off_c, 8, 62, 64
10, 133608, Note_off_c, 8, 65, 64
10, 133620, Note_on_c, 8, 62, 72
10, 133620, Note_on_c, 8, 65, 72
10, 133668, Note_off_c, 8, 65, 64
10, 133668, Note_off_c, 8, 62, 64
10, 133680, Note_on_c, 8, 62, 72
10, 133680, Note_on_c, 8, 65, 72
10, 133728, Note_off_c, 8, 65, 64
10, 133728, Note_off_c, 8, 62, 64
10, 133740, Note_on_c, 8, 65, 72
10, 133740, Note_on_c, 8, 62, 72
10, 133788, Note_off_c, 8, 62, 64
10, 133788, Note_off_c, 8, 65, 64
10, 133800, Note_on_c, 8, 65, 72
10, 133800, Note_on_c, 8, 62, 72
10, 133848, Note_off_c, 8, 62, 64
10, 133848, Note_off_c, 8, 65, 64
10, 133860, Note_on_c, 8, 62, 72
10, 133860, Note_on_c, 8, 65, 72
10, 133908, Note_off_c, 8, 65, 64
10, 133908, Note_off_c, 8, 62, 64
10, 133920, Note_on_c, 8, 65, 72
10, 133920, Note_on_c, 8, 62, 72
10, 133968, Note_off_c, 8, 62, 64
10, 133968, Note_off_c, 8, 65, 64
10, 133980, Note_on_c, 8, 65, 72
10, 133980, Note_on_c, 8, 62, 72
10, 134028, Note_off_c, 8, 62, 64
10, 134028, Note_off_c, 8, 65, 64
10, 134040, Note_on_c, 8, 65, 72
10, 134040, Note_on_c, 8, 62, 72
10, 134088, Note_off_c, 8, 62, 64
10, 134088, Note_off_c, 8, 65, 64
10, 134100, Note_on_c, 8, 62, 72
10, 134100, Note_on_c, 8, 65, 72
10, 134148, Note_off_c, 8, 65, 64
10, 134148, Note_off_c, 8, 62, 64
10, 134160, Note_on_c, 8, 62, 72
10, 134160, Note_on_c, 8, 65, 72
10, 134208, Note_off_c, 8, 65, 64
10, 134208, Note_off_c, 8, 62, 64
10, 134220, Note_on_c, 8, 62, 72
10, 134220, Note_on_c, 8, 65, 72
10, 134268, Note_off_c, 8, 65, 64
10, 134268, Note_off_c, 8, 62, 64
10, 134280, Note_on_c, 8, 65, 72
10, 134280, Note_on_c, 8, 62, 72
10, 134328, Note_off_c, 8, 62, 64
10, 134328, Note_off_c, 8, 65, 64
10, 134340, Note_on_c, 8, 65, 72
10, 134340, Note_on_c, 8, 62, 72
10, 134388, Note_off_c, 8, 62, 64
10, 134388, Note_off_c, 8, 65, 64
10, 134400, Note_on_c, 8, 65, 72
10, 134400, Note_on_c, 8, 62, 72
10, 134448, Note_off_c, 8, 62, 64
10, 134448, Note_off_c, 8, 65, 64
10, 134460, Note_on_c, 8, 62, 72
10, 134460, Note_on_c, 8, 65, 72
10, 134508, Note_off_c, 8, 65, 64
10, 134508, Note_off_c, 8, 62, 64
10, 134520, Note_on_c, 8, 65, 72
10, 134520, Note_on_c, 8, 62, 72
10, 134568, Note_off_c, 8, 62, 64
10, 134568, Note_off_c, 8, 65, 64
10, 134580, Note_on_c, 8, 62, 72
10, 134580, Note_on_c, 8, 65, 72
10, 134628, Note_off_c, 8, 65, 64
10, 134628, Note_off_c, 8, 62, 64
10, 134640, Note_on_c, 8, 62, 72
10, 134640, Note_on_c, 8, 65, 72
10, 134688, Note_off_c, 8, 65, 64
10, 134688, Note_off_c, 8, 62, 64
10, 134700, Note_on_c, 8, 62, 72
10, 134700, Note_on_c, 8, 65, 72
10, 134748, Note_off_c, 8, 65, 64
10, 134748, Note_off_c, 8, 62, 64
10, 134760, Note_on_c, 8, 62, 72
10, 134760, Note_on_c, 8, 65, 72
10, 134808, Note_off_c, 8, 65, 64
10, 134808, Note_off_c, 8, 62, 64
10, 134820, Note_on_c, 8, 62, 72
10, 134820, Note_on_c, 8, 65, 72
10, 134868, Note_off_c, 8, 65, 64
10, 134868, Note_off_c, 8, 62, 64
10, 134880, Note_on_c, 8, 64, 72
10, 134880, Note_on_c, 8, 60, 72
10, 134928, Note_off_c, 8, 60, 64
10, 134928, Note_off_c, 8, 64, 64
10, 134940, Note_on_c, 8, 60, 72
10, 134940, Note_on_c, 8, 64, 72
10, 134988, Note_off_c, 8, 64, 64
10, 134988, Note_off_c, 8, 60, 64
10, 135000, Note_on_c, 8, 64, 72
10, 135000, Note_on_c, 8, 60, 72
10, 135048, Note_off_c, 8, 60, 64
10, 135048, Note_off_c, 8, 64, 64
10, 135060, Note_on_c, 8, 64, 72
10, 135060, Note_on_c, 8, 60, 72
10, 135108, Note_off_c, 8, 60, 64
10, 135108, Note_off_c, 8, 64, 64
10, 135120, Note_on_c, 8, 64, 72
10, 135120, Note_on_c, 8, 60, 72
10, 135168, Note_off_c, 8, 60, 64
10, 135168, Note_off_c, 8, 64, 64
10, 135180, Note_on_c, 8, 64, 72
10, 135180, Note_on_c, 8, 60, 72
10, 135228, Note_off_c, 8, 60, 64
10, 135228, Note_off_c, 8, 64, 64
10, 135240, Note_on_c, 8, 60, 72
10, 135240, Note_on_c, 8, 64, 72
10, 135288, Note_off_c, 8, 64, 64
10, 135288, Note_off_c, 8, 60, 64
10, 135300, Note_on_c, 8, 64, 72
10, 135300, Note_on_c, 8, 60, 72
10, 135348, Note_off_c, 8, 60, 64
10, 135348, Note_off_c, 8, 64, 64
10, 135360, Note_on_c, 8, 64, 72
10, 135360, Note_on_c, 8, 60, 72
10, 135456, Note_off_c, 8, 60, 64
10, 135456, Note_off_c, 8, 64, 64
10, 135480, Note_on_c, 8, 67, 108
10, 135540, Note_off_c, 8, 67, 64
10, 135600, Note_on_c, 8, 69, 108
10, 135660, Note_off_c, 8, 69, 64
10, 135720, Note_on_c, 8, 71, 108
10, 135780, Note_off_c, 8, 71, 64
10, 135960, Note_on_c, 8, 72, 108
10, 136020, Note_off_c, 8, 72, 64
10, 136080, Note_on_c, 8, 74, 108
10, 136140, Note_off_c, 8, 74, 64
10, 136200, Note_on_c, 8, 76, 108
10, 136260, Note_off_c, 8, 76, 64
10, 136440, Note_on_c, 8, 65, 106
10, 136536, Note_off_c, 8, 65, 64
10, 136560, Note_on_c, 8, 76, 104
10, 136656, Note_off_c, 8, 76, 64
10, 136680, Note_on_c, 8, 74, 102
10, 136776, Note_off_c, 8, 74, 64
10, 136800, Note_on_c, 8, 73, 100
10, 136896, Note_off_c, 8, 73, 64
10, 136920, Note_on_c, 8, 74, 98
10, 137016, Note_off_c, 8, 74, 64
10, 137040, Note_on_c, 8, 65, 96
10, 137136, Note_off_c, 8, 65, 64
10, 137160, Note_on_c, 8, 74, 80
10, 137256, Note_off_c, 8, 74, 64
10, 137400, Note_on_c, 8, 64, 90
10, 137496, Note_off_c, 8, 64, 64
10, 137520, Note_on_c, 8, 74, 88
10, 137616, Note_off_c, 8, 74, 64
10, 137640, Note_on_c, 8, 72, 86
10, 137736, Note_off_c, 8, 72, 64
10, 137760, Note_on_c, 8, 71, 85
10, 137856, Note_off_c, 8, 71, 64
10, 137880, Note_on_c, 8, 72, 83
10, 137976, Note_off_c, 8, 72, 64
10, 138000, Note_on_c, 8, 64, 80
10, 138096, Note_off_c, 8, 64, 64
10, 138120, Note_on_c, 8, 72, 67
10, 138216, Note_off_c, 8, 72, 64
10, 138360, Note_on_c, 8, 62, 75
10, 138456, Note_off_c, 8, 62, 64
10, 138480, Note_on_c, 8, 72, 73
10, 138576, Note_off_c, 8, 72, 64
10, 138600, Note_on_c, 8, 71, 70
10, 138696, Note_off_c, 8, 71, 64
10, 138720, Note_on_c, 8, 70, 68
10, 138816, Note_off_c, 8, 70, 64
10, 138840, Note_on_c, 8, 71, 67
10, 138936, Note_off_c, 8, 71, 64
10, 138960, Note_on_c, 8, 62, 65
10, 139056, Note_off_c, 8, 62, 64
10, 139080, Note_on_c, 8, 71, 54
10, 139176, Note_off_c, 8, 71, 64
10, 139320, Note_on_c, 8, 60, 59
10, 139416, Note_off_c, 8, 60, 64
10, 139440, Note_on_c, 8, 71, 57
10, 139536, Note_off_c, 8, 71, 64
10, 139560, Note_on_c, 8, 69, 55
10, 139656, Note_off_c, 8, 69, 64
10, 139680, Note_on_c, 8, 66, 53
10, 139776, Note_off_c, 8, 66, 64
10, 139800, Note_on_c, 8, 62, 51
10, 139896, Note_off_c, 8, 62, 64
10, 139920, Note_on_c, 8, 60, 49
10, 140016, Note_off_c, 8, 60, 64
10, 140040, Note_on_c, 8, 57, 47
10, 140136, Note_off_c, 8, 57, 64
10, 140160, Note_on_c, 8, 59, 29
10, 140160, Note_on_c, 8, 62, 29
10, 141120, Note_off_c, 8, 62, 64
10, 141120, Note_off_c, 8, 59, 64
10, 141120, Note_on_c, 8, 60, 29
10, 141120, Note_on_c, 8, 64, 29
10, 142080, Note_off_c, 8, 64, 64
10, 142080, Note_off_c, 8, 60, 64
10, 142080, Note_on_c, 8, 62, 29
10, 142080, Note_on_c, 8, 59, 29
10, 143040, Note_off_c, 8, 59, 64
10, 143040, Note_off_c, 8, 62, 64
10, 143040, Note_on_c, 8, 60, 29
10, 143040, Note_on_c, 8, 64, 29
10, 144480, Note_off_c, 8, 64, 64
10, 144480, Note_off_c, 8, 60, 64
10, 144480, Note_on_c, 8, 62, 29
10, 144480, Note_on_c, 8, 59, 29
10, 144960, Note_off_c, 8, 59, 64
10, 144960, Note_off_c, 8, 62, 64
10, 144960, Note_on_c, 8, 64, 29
10, 144960, Note_on_c, 8, 60, 29
10, 146400, Note_off_c, 8, 60, 64
10, 146400, Note_off_c, 8, 64, 64
10, 146400, Note_on_c, 8, 62, 29
10, 146400, Note_on_c, 8, 59, 29
10, 146880, Note_off_c, 8, 59, 64
10, 146880, Note_off_c, 8, 62, 64
10, 146880, Note_on_c, 8, 60, 29
10, 146880, Note_on_c, 8, 64, 29
10, 148320, Note_off_c, 8, 64, 64
10, 148320, Note_off_c, 8, 60, 64
10, 148320, Note_on_c, 8, 62, 20
10, 148320, Note_on_c, 8, 59, 20
10, 149760, Note_off_c, 8, 59, 64
10, 149760, Note_off_c, 8, 62, 64
10, 149760, Note_on_c, 8, 60, 23
10, 149760, Note_on_c, 8, 64, 23
10, 151680, Note_off_c, 8, 64, 64
10, 151680, Note_off_c, 8, 60, 64
10, 151680, Note_on_c, 8, 66, 23
10, 152640, Note_off_c, 8, 66, 64
10, 152640, Note_on_c, 8, 67, 23
10, 153600, Note_off_c, 8, 67, 64
10, 153600, Note_on_c, 8, 64, 20
10, 154680, Note_off_c, 8, 64, 64
10, 154680, Note_on_c, 8, 62, 16
10, 155700, Note_off_c, 8, 62, 64
10, 175440, Note_on_c, 8, 72, 72
10, 176304, Note_off_c, 8, 72, 64
10, 176400, Note_on_c, 8, 71, 72
10, 177264, Note_off_c, 8, 71, 64
10, 177360, Note_on_c, 8, 69, 72
10, 178224, Note_off_c, 8, 69, 64
10, 178320, Note_on_c, 8, 67, 72
10, 179184, Note_off_c, 8, 67, 64
10, 179280, Note_on_c, 8, 65, 72
10, 180144, Note_off_c, 8, 65, 64
10, 180240, Note_on_c, 8, 64, 72
10, 180624, Note_off_c, 8, 64, 64
10, 180720, Note_on_c, 8, 62, 89
10, 180816, Note_off_c, 8, 62, 64
10, 180840, Note_on_c, 8, 55, 89
10, 180936, Note_off_c, 8, 55, 64
10, 180960, Note_on_c, 8, 62, 89
10, 181056, Note_off_c, 8, 62, 64
10, 181080, Note_on_c, 8, 60, 89
10, 181176, Note_off_c, 8, 60, 64
10, 181200, Note_on_c, 8, 59, 89
10, 181296, Note_off_c, 8, 59, 64
10, 181320, Note_on_c, 8, 55, 89
10, 181416, Note_off_c, 8, 55, 64
10, 181440, Note_on_c, 8, 57, 89
10, 181536, Note_off_c, 8, 57, 64
10, 181560, Note_on_c, 8, 59, 89
10, 181656, Note_off_c, 8, 59, 64
10, 181680, Note_on_c, 8, 60, 89
10, 181776, Note_off_c, 8, 60, 64
10, 181800, Note_on_c, 8, 67, 89
10, 181896, Note_off_c, 8, 67, 64
10, 181920, Note_on_c, 8, 65, 89
10, 182016, Note_off_c, 8, 65, 64
10, 182040, Note_on_c, 8, 64, 89
10, 182136, Note_off_c, 8, 64, 64
10, 182160, Note_on_c, 8, 62, 89
10, 182256, Note_off_c, 8, 62, 64
10, 182280, Note_on_c, 8, 60, 89
10, 182376, Note_off_c, 8, 60, 64
10, 182400, Note_on_c, 8, 59, 89
10, 182496, Note_off_c, 8, 59, 64
10, 182520, Note_on_c, 8, 60, 89
10, 182616, Note_off_c, 8, 60, 64
10, 182640, Note_on_c, 8, 62, 89
10, 182736, Note_off_c, 8, 62, 64
10, 182760, Note_on_c, 8, 55, 89
10, 182856, Note_off_c, 8, 55, 64
10, 182880, Note_on_c, 8, 62, 89
10, 182976, Note_off_c, 8, 62, 64
10, 183000, Note_on_c, 8, 60, 89
10, 183096, Note_off_c, 8, 60, 64
10, 183120, Note_on_c, 8, 59, 89
10, 183216, Note_off_c, 8, 59, 64
10, 183240, Note_on_c, 8, 55, 89
10, 183336, Note_off_c, 8, 55, 64
10, 183360, Note_on_c, 8, 57, 89
10, 183456, Note_off_c, 8, 57, 64
10, 183480, Note_on_c, 8, 59, 89
10, 183576, Note_off_c, 8, 59, 64
10, 183600, Note_on_c, 8, 55, 89
10, 183696, Note_off_c, 8, 55, 64
10, 183720, Note_on_c, 8, 64, 89
10, 183816, Note_off_c, 8, 64, 64
10, 183840, Note_on_c, 8, 64, 89
10, 183936, Note_off_c, 8, 64, 64
10, 183960, Note_on_c, 8, 64, 89
10, 184056, Note_off_c, 8, 64, 64
10, 184080, Note_on_c, 8, 64, 89
10, 184176, Note_off_c, 8, 64, 64
10, 184200, Note_on_c, 8, 64, 89
10, 184296, Note_off_c, 8, 64, 64
10, 184320, Note_on_c, 8, 64, 89
10, 184416, Note_off_c, 8, 64, 64
10, 184440, Note_on_c, 8, 64, 89
10, 184536, Note_off_c, 8, 64, 64
10, 184560, Note_on_c, 8, 62, 89
10, 184656, Note_off_c, 8, 62, 64
10, 184680, Note_on_c, 8, 62, 89
10, 184776, Note_off_c, 8, 62, 64
10, 184800, Note_on_c, 8, 64, 89
10, 184896, Note_off_c, 8, 64, 64
10, 184920, Note_on_c, 8, 66, 89
10, 185016, Note_off_c, 8, 66, 64
10, 185040, Note_on_c, 8, 67, 89
10, 185136, Note_off_c, 8, 67, 64
10, 185160, Note_on_c, 8, 67, 89
10, 185256, Note_off_c, 8, 67, 64
10, 185280, Note_on_c, 8, 69, 89
10, 185376, Note_off_c, 8, 69, 64
10, 185400, Note_on_c, 8, 71, 89
10, 185496, Note_off_c, 8, 71, 64
10, 185520, Note_on_c, 8, 60, 89
10, 185616, Note_off_c, 8, 60, 64
10, 185640, Note_on_c, 8, 60, 89
10, 185736, Note_off_c, 8, 60, 64
10, 185760, Note_on_c, 8, 62, 89
10, 185856, Note_off_c, 8, 62, 64
10, 185880, Note_on_c, 8, 64, 89
10, 185976, Note_off_c, 8, 64, 64
10, 186000, Note_on_c, 8, 66, 89
10, 186096, Note_off_c, 8, 66, 64
10, 186120, Note_on_c, 8, 66, 89
10, 186216, Note_off_c, 8, 66, 64
10, 186240, Note_on_c, 8, 67, 89
10, 186336, Note_off_c, 8, 67, 64
10, 186360, Note_on_c, 8, 69, 89
10, 186456, Note_off_c, 8, 69, 64
10, 186480, Note_on_c, 8, 59, 89
10, 186576, Note_off_c, 8, 59, 64
10, 186600, Note_on_c, 8, 59, 89
10, 186696, Note_off_c, 8, 59, 64
10, 186720, Note_on_c, 8, 60, 89
10, 186816, Note_off_c, 8, 60, 64
10, 186840, Note_on_c, 8, 62, 89
10, 186936, Note_off_c, 8, 62, 64
10, 186960, Note_on_c, 8, 64, 89
10, 187056, Note_off_c, 8, 64, 64
10, 187080, Note_on_c, 8, 64, 89
10, 187176, Note_off_c, 8, 64, 64
10, 187200, Note_on_c, 8, 66, 89
10, 187296, Note_off_c, 8, 66, 64
10, 187320, Note_on_c, 8, 67, 89
10, 187416, Note_off_c, 8, 67, 64
10, 187440, Note_on_c, 8, 57, 89
10, 187536, Note_off_c, 8, 57, 64
10, 187560, Note_on_c, 8, 57, 89
10, 187656, Note_off_c, 8, 57, 64
10, 187680, Note_on_c, 8, 59, 89
10, 187776, Note_off_c, 8, 59, 64
10, 187800, Note_on_c, 8, 60, 89
10, 187896, Note_off_c, 8, 60, 64
10, 187920, Note_on_c, 8, 62, 89
10, 188016, Note_off_c, 8, 62, 64
10, 188040, Note_on_c, 8, 64, 89
10, 188136, Note_off_c, 8, 64, 64
10, 188160, Note_on_c, 8, 66, 89
10, 188256, Note_off_c, 8, 66, 64
10, 188280, Note_on_c, 8, 67, 89
10, 188376, Note_off_c, 8, 67, 64
10, 188400, Note_on_c, 8, 67, 89
10, 188496, Note_off_c, 8, 67, 64
10, 188520, Note_on_c, 8, 67, 89
10, 188616, Note_off_c, 8, 67, 64
10, 188640, Note_on_c, 8, 69, 89
10, 188736, Note_off_c, 8, 69, 64
10, 188760, Note_on_c, 8, 71, 89
10, 188856, Note_off_c, 8, 71, 64
10, 188880, Note_on_c, 8, 72, 89
10, 188976, Note_off_c, 8, 72, 64
10, 189000, Note_on_c, 8, 72, 89
10, 189096, Note_off_c, 8, 72, 64
10, 189120, Note_on_c, 8, 60, 89
10, 189216, Note_off_c, 8, 60, 64
10, 189240, Note_on_c, 8, 60, 89
10, 189336, Note_off_c, 8, 60, 64
10, 189360, Note_on_c, 8, 60, 89
10, 189456, Note_off_c, 8, 60, 64
10, 189480, Note_on_c, 8, 62, 89
10, 189576, Note_off_c, 8, 62, 64
10, 189600, Note_on_c, 8, 62, 89
10, 189696, Note_off_c, 8, 62, 64
10, 189720, Note_on_c, 8, 62, 89
10, 189816, Note_off_c, 8, 62, 64
10, 189840, Note_on_c, 8, 62, 89
10, 189936, Note_off_c, 8, 62, 64
10, 189960, Note_on_c, 8, 62, 89
10, 190056, Note_off_c, 8, 62, 64
10, 190080, Note_on_c, 8, 62, 89
10, 190176, Note_off_c, 8, 62, 64
10, 190200, Note_on_c, 8, 62, 89
10, 190296, Note_off_c, 8, 62, 64
10, 190320, Note_on_c, 8, 62, 89
10, 190416, Note_off_c, 8, 62, 64
10, 190440, Note_on_c, 8, 74, 89
10, 190536, Note_off_c, 8, 74, 64
10, 190560, Note_on_c, 8, 74, 89
10, 190656, Note_off_c, 8, 74, 64
10, 190680, Note_on_c, 8, 74, 89
10, 190776, Note_off_c, 8, 74, 64
10, 190800, Note_on_c, 8, 74, 89
10, 190896, Note_off_c, 8, 74, 64
10, 190920, Note_on_c, 8, 74, 89
10, 191016, Note_off_c, 8, 74, 64
10, 191040, Note_on_c, 8, 74, 89
10, 191136, Note_off_c, 8, 74, 64
10, 191160, Note_on_c, 8, 74, 89
10, 191256, Note_off_c, 8, 74, 64
10, 191280, Note_on_c, 8, 74, 89
10, 191376, Note_off_c, 8, 74, 64
10, 191400, Note_on_c, 8, 74, 89
10, 191496, Note_off_c, 8, 74, 64
10, 191520, Note_on_c, 8, 74, 89
10, 191616, Note_off_c, 8, 74, 64
10, 191640, Note_on_c, 8, 74, 89
10, 191736, Note_off_c, 8, 74, 64
10, 191760, Note_on_c, 8, 74, 89
10, 191856, Note_off_c, 8, 74, 64
10, 191880, Note_on_c, 8, 74, 89
10, 191976, Note_off_c, 8, 74, 64
10, 192000, Note_on_c, 8, 74, 89
10, 192096, Note_off_c, 8, 74, 64
10, 192120, Note_on_c, 8, 74, 89
10, 192216, Note_off_c, 8, 74, 64
10, 192240, Note_on_c, 8, 74, 89
10, 192336, Note_off_c, 8, 74, 64
10, 192360, Note_on_c, 8, 74, 89
10, 192456, Note_off_c, 8, 74, 64
10, 192480, Note_on_c, 8, 74, 89
10, 192576, Note_off_c, 8, 74, 64
10, 192600, Note_on_c, 8, 74, 89
10, 192696, Note_off_c, 8, 74, 64
10, 192720, Note_on_c, 8, 74, 89
10, 192816, Note_off_c, 8, 74, 64
10, 192840, Note_on_c, 8, 74, 89
10, 192936, Note_off_c, 8, 74, 64
10, 192960, Note_on_c, 8, 74, 89
10, 193056, Note_off_c, 8, 74, 64
10, 193080, Note_on_c, 8, 74, 89
10, 193176, Note_off_c, 8, 74, 64
10, 193200, Note_on_c, 8, 74, 89
10, 193296, Note_off_c, 8, 74, 64
10, 193320, Note_on_c, 8, 71, 89
10, 193416, Note_off_c, 8, 71, 64
10, 193440, Note_on_c, 8, 74, 89
10, 193536, Note_off_c, 8, 74, 64
10, 193560, Note_on_c, 8, 72, 89
10, 193656, Note_off_c, 8, 72, 64
10, 193680, Note_on_c, 8, 71, 89
10, 193776, Note_off_c, 8, 71, 64
10, 193800, Note_on_c, 8, 67, 89
10, 193896, Note_off_c, 8, 67, 64
10, 193920, Note_on_c, 8, 69, 89
10, 194016, Note_off_c, 8, 69, 64
10, 194040, Note_on_c, 8, 71, 89
10, 194136, Note_off_c, 8, 71, 64
10, 194160, Note_on_c, 8, 60, 72
10, 194544, Note_off_c, 8, 60, 64
10, 197640, Note_on_c, 8, 77, 72
10, 197736, Note_off_c, 8, 77, 64
10, 197760, Note_on_c, 8, 76, 72
10, 197856, Note_off_c, 8, 76, 64
10, 197880, Note_on_c, 8, 74, 72
10, 197976, Note_off_c, 8, 74, 64
10, 198000, Note_on_c, 8, 72, 72
10, 198384, Note_off_c, 8, 72, 64
10, 198480, Note_on_c, 8, 77, 89
10, 198576, Note_off_c, 8, 77, 64
10, 198600, Note_on_c, 8, 76, 89
10, 198696, Note_off_c, 8, 76, 64
10, 198720, Note_on_c, 8, 74, 89
10, 198816, Note_off_c, 8, 74, 64
10, 198840, Note_on_c, 8, 72, 89
10, 198936, Note_off_c, 8, 72, 64
10, 198960, Note_on_c, 8, 71, 89
10, 199056, Note_off_c, 8, 71, 64
10, 199080, Note_on_c, 8, 74, 89
10, 199176, Note_off_c, 8, 74, 64
10, 199200, Note_on_c, 8, 72, 89
10, 199296, Note_off_c, 8, 72, 64
10, 199320, Note_on_c, 8, 71, 89
10, 199416, Note_off_c, 8, 71, 64
10, 199440, Note_on_c, 8, 64, 89
10, 199536, Note_off_c, 8, 64, 64
10, 199560, Note_on_c, 8, 67, 89
10, 199656, Note_off_c, 8, 67, 64
10, 199680, Note_on_c, 8, 65, 89
10, 199776, Note_off_c, 8, 65, 64
10, 199800, Note_on_c, 8, 64, 89
10, 199896, Note_off_c, 8, 64, 64
10, 199920, Note_on_c, 8, 62, 89
10, 200016, Note_off_c, 8, 62, 64
10, 200040, Note_on_c, 8, 67, 89
10, 200136, Note_off_c, 8, 67, 64
10, 200160, Note_on_c, 8, 67, 89
10, 200256, Note_off_c, 8, 67, 64
10, 200280, Note_on_c, 8, 67, 89
10, 200376, Note_off_c, 8, 67, 64
10, 200400, Note_on_c, 8, 67, 89
10, 200496, Note_off_c, 8, 67, 64
10, 200520, Note_on_c, 8, 67, 89
10, 200616, Note_off_c, 8, 67, 64
10, 200640, Note_on_c, 8, 67, 89
10, 200736, Note_off_c, 8, 67, 64
10, 200760, Note_on_c, 8, 67, 89
10, 200856, Note_off_c, 8, 67, 64
10, 200880, Note_on_c, 8, 67, 89
10, 200976, Note_off_c, 8, 67, 64
10, 201000, Note_on_c, 8, 67, 89
10, 201096, Note_off_c, 8, 67, 64
10, 201120, Note_on_c, 8, 67, 89
10, 201216, Note_off_c, 8, 67, 64
10, 201240, Note_on_c, 8, 67, 89
10, 201336, Note_off_c, 8, 67, 64
10, 201360, Note_on_c, 8, 67, 89
10, 201456, Note_off_c, 8, 67, 64
10, 201480, Note_on_c, 8, 67, 89
10, 201576, Note_off_c, 8, 67, 64
10, 201600, Note_on_c, 8, 67, 89
10, 201696, Note_off_c, 8, 67, 64
10, 201720, Note_on_c, 8, 67, 89
10, 201816, Note_off_c, 8, 67, 64
10, 201840, Note_on_c, 8, 67, 89
10, 201936, Note_off_c, 8, 67, 64
10, 201960, Note_on_c, 8, 67, 89
10, 202056, Note_off_c, 8, 67, 64
10, 202080, Note_on_c, 8, 74, 89
10, 202176, Note_off_c, 8, 74, 64
10, 202200, Note_on_c, 8, 72, 89
10, 202296, Note_off_c, 8, 72, 64
10, 202320, Note_on_c, 8, 71, 89
10, 202416, Note_off_c, 8, 71, 64
10, 202440, Note_on_c, 8, 67, 89
10, 202536, Note_off_c, 8, 67, 64
10, 202560, Note_on_c, 8, 69, 89
10, 202656, Note_off_c, 8, 69, 64
10, 202680, Note_on_c, 8, 71, 89
10, 202776, Note_off_c, 8, 71, 64
10, 202800, Note_on_c, 8, 72, 89
10, 202896, Note_off_c, 8, 72, 64
10, 202920, Note_on_c, 8, 72, 89
10, 203016, Note_off_c, 8, 72, 64
10, 203040, Note_on_c, 8, 71, 89
10, 203136, Note_off_c, 8, 71, 64
10, 203160, Note_on_c, 8, 72, 89
10, 203256, Note_off_c, 8, 72, 64
10, 203280, Note_on_c, 8, 74, 89
10, 203376, Note_off_c, 8, 74, 64
10, 203400, Note_on_c, 8, 74, 89
10, 203496, Note_off_c, 8, 74, 64
10, 203520, Note_on_c, 8, 76, 89
10, 203616, Note_off_c, 8, 76, 64
10, 203640, Note_on_c, 8, 78, 89
10, 203736, Note_off_c, 8, 78, 64
10, 203760, Note_on_c, 8, 79, 72
10, 203856, Note_off_c, 8, 79, 64
10, 204240, Note_on_c, 8, 83, 72
10, 204240, Note_on_c, 8, 71, 72
10, 204336, Note_off_c, 8, 71, 64
10, 204336, Note_off_c, 8, 83, 64
10, 205200, Note_on_c, 8, 74, 72
10, 205200, Note_on_c, 8, 62, 72
10, 205296, Note_off_c, 8, 62, 64
10, 205296, Note_off_c, 8, 74, 64
10, 206160, Note_on_c, 8, 79, 72
10, 206256, Note_off_c, 8, 79, 64
10, 207120, Note_on_c, 8, 71, 72
10, 207216, Note_off_c, 8, 71, 64
10, 208080, Note_on_c, 8, 76, 72
10, 208080, Note_on_c, 8, 64, 72
10, 208176, Note_off_c, 8, 64, 64
10, 208176, Note_off_c, 8, 76, 64
10, 209040, Note_on_c, 8, 67, 72
10, 209040, Note_on_c, 8, 55, 72
10, 209136, Note_off_c, 8, 55, 64
10, 209136, Note_off_c, 8, 67, 64
10, 209520, Note_on_c, 8, 72, 89
10, 209616, Note_off_c, 8, 72, 64
10, 209640, Note_on_c, 8, 66, 89
10, 209736, Note_off_c, 8, 66, 64
10, 209760, Note_on_c, 8, 72, 89
10, 209856, Note_off_c, 8, 72, 64
10, 209880, Note_on_c, 8, 71, 89
10, 209976, Note_off_c, 8, 71, 64
10, 210000, Note_on_c, 8, 69, 89
10, 210096, Note_off_c, 8, 69, 64
10, 210120, Note_on_c, 8, 66, 89
10, 210216, Note_off_c, 8, 66, 64
10, 210240, Note_on_c, 8, 67, 89
10, 210336, Note_off_c, 8, 67, 64
10, 210360, Note_on_c, 8, 69, 89
10, 210456, Note_off_c, 8, 69, 64
10, 210480, Note_on_c, 8, 71, 89
10, 210576, Note_off_c, 8, 71, 64
10, 210600, Note_on_c, 8, 71, 89
10, 210696, Note_off_c, 8, 71, 64
10, 210720, Note_on_c, 8, 69, 89
10, 210816, Note_off_c, 8, 69, 64
10, 210840, Note_on_c, 8, 67, 89
10, 210936, Note_off_c, 8, 67, 64
10, 210960, Note_on_c, 8, 66, 89
10, 211056, Note_off_c, 8, 66, 64
10, 211080, Note_on_c, 8, 67, 89
10, 211176, Note_off_c, 8, 67, 64
10, 211200, Note_on_c, 8, 69, 89
10, 211296, Note_off_c, 8, 69, 64
10, 211320, Note_on_c, 8, 67, 89
10, 211416, Note_off_c, 8, 67, 64
10, 211440, Note_on_c, 8, 72, 89
10, 211536, Note_off_c, 8, 72, 64
10, 211560, Note_on_c, 8, 66, 89
10, 211656, Note_off_c, 8, 66, 64
10, 211680, Note_on_c, 8, 72, 89
10, 211776, Note_off_c, 8, 72, 64
10, 211800, Note_on_c, 8, 71, 89
10, 211896, Note_off_c, 8, 71, 64
10, 211920, Note_on_c, 8, 69, 89
10, 212016, Note_off_c, 8, 69, 64
10, 212040, Note_on_c, 8, 66, 89
10, 212136, Note_off_c, 8, 66, 64
10, 212160, Note_on_c, 8, 67, 89
10, 212256, Note_off_c, 8, 67, 64
10, 212280, Note_on_c, 8, 69, 89
10, 212376, Note_off_c, 8, 69, 64
10, 212400, Note_on_c, 8, 71, 89
10, 212496, Note_off_c, 8, 71, 64
10, 212520, Note_on_c, 8, 79, 89
10, 212616, Note_off_c, 8, 79, 64
10, 212640, Note_on_c, 8, 79, 89
10, 212736, Note_off_c, 8, 79, 64
10, 212760, Note_on_c, 8, 81, 89
10, 212856, Note_off_c, 8, 81, 64
10, 212880, Note_on_c, 8, 83, 89
10, 212976, Note_off_c, 8, 83, 64
10, 213000, Note_on_c, 8, 81, 89
10, 213096, Note_off_c, 8, 81, 64
10, 213120, Note_on_c, 8, 83, 89
10, 213216, Note_off_c, 8, 83, 64
10, 213240, Note_on_c, 8, 84, 89
10, 213336, Note_off_c, 8, 84, 64
10, 213360, Note_on_c, 8, 86, 89
10, 213456, Note_off_c, 8, 86, 64
10, 213480, Note_on_c, 8, 74, 89
10, 213576, Note_off_c, 8, 74, 64
10, 213600, Note_on_c, 8, 72, 89
10, 213696, Note_off_c, 8, 72, 64
10, 213720, Note_on_c, 8, 74, 89
10, 213816, Note_off_c, 8, 74, 64
10, 213840, Note_on_c, 8, 72, 89
10, 213936, Note_off_c, 8, 72, 64
10, 213960, Note_on_c, 8, 74, 89
10, 214056, Note_off_c, 8, 74, 64
10, 214080, Note_on_c, 8, 76, 89
10, 214176, Note_off_c, 8, 76, 64
10, 214200, Note_on_c, 8, 74, 89
10, 214296, Note_off_c, 8, 74, 64
10, 214320, Note_on_c, 8, 72, 89
10, 214416, Note_off_c, 8, 72, 64
10, 214440, Note_on_c, 8, 72, 89
10, 214536, Note_off_c, 8, 72, 64
10, 214560, Note_on_c, 8, 71, 89
10, 214656, Note_off_c, 8, 71, 64
10, 214680, Note_on_c, 8, 72, 89
10, 214776, Note_off_c, 8, 72, 64
10, 214800, Note_on_c, 8, 71, 89
10, 214896, Note_off_c, 8, 71, 64
10, 214920, Note_on_c, 8, 72, 89
10, 215016, Note_off_c, 8, 72, 64
10, 215040, Note_on_c, 8, 74, 89
10, 215136, Note_off_c, 8, 74, 64
10, 215160, Note_on_c, 8, 72, 89
10, 215256, Note_off_c, 8, 72, 64
10, 215280, Note_on_c, 8, 74, 114
10, 215376, Note_off_c, 8, 74, 64
10, 215400, Note_on_c, 8, 62, 114
10, 215496, Note_off_c, 8, 62, 64
10, 215520, Note_on_c, 8, 60, 114
10, 215616, Note_off_c, 8, 60, 64
10, 215640, Note_on_c, 8, 62, 114
10, 215736, Note_off_c, 8, 62, 64
10, 215760, Note_on_c, 8, 60, 114
10, 215856, Note_off_c, 8, 60, 64
10, 215880, Note_on_c, 8, 62, 114
10, 215976, Note_off_c, 8, 62, 64
10, 216000, Note_on_c, 8, 64, 114
10, 216096, Note_off_c, 8, 64, 64
10, 216120, Note_on_c, 8, 62, 114
10, 216216, Note_off_c, 8, 62, 64
10, 216240, Note_on_c, 8, 60, 114
10, 216336, Note_off_c, 8, 60, 64
10, 216360, Note_on_c, 8, 76, 114
10, 216456, Note_off_c, 8, 76, 64
10, 216480, Note_on_c, 8, 74, 114
10, 216576, Note_off_c, 8, 74, 64
10, 216600, Note_on_c, 8, 72, 114
10, 216696, Note_off_c, 8, 72, 64
10, 216720, Note_on_c, 8, 71, 114
10, 216816, Note_off_c, 8, 71, 64
10, 216840, Note_on_c, 8, 69, 114
10, 216936, Note_off_c, 8, 69, 64
10, 216960, Note_on_c, 8, 67, 114
10, 217056, Note_off_c, 8, 67, 64
10, 217080, Note_on_c, 8, 65, 114
10, 217176, Note_off_c, 8, 65, 64
10, 217200, Note_on_c, 8, 64, 114
10, 217296, Note_off_c, 8, 64, 64
10, 217320, Note_on_c, 8, 76, 114
10, 217416, Note_off_c, 8, 76, 64
10, 217440, Note_on_c, 8, 76, 114
10, 217536, Note_off_c, 8, 76, 64
10, 217560, Note_on_c, 8, 76, 114
10, 217656, Note_off_c, 8, 76, 64
10, 217680, Note_on_c, 8, 76, 114
10, 217776, Note_off_c, 8, 76, 64
10, 217800, Note_on_c, 8, 76, 114
10, 217896, Note_off_c, 8, 76, 64
10, 217920, Note_on_c, 8, 76, 114
10, 218016, Note_off_c, 8, 76, 64
10, 218040, Note_on_c, 8, 76, 114
10, 218136, Note_off_c, 8, 76, 64
10, 218160, Note_on_c, 8, 74, 114
10, 218256, Note_off_c, 8, 74, 64
10, 218280, Note_on_c, 8, 74, 114
10, 218376, Note_off_c, 8, 74, 64
10, 218400, Note_on_c, 8, 74, 114
10, 218496, Note_off_c, 8, 74, 64
10, 218520, Note_on_c, 8, 74, 114
10, 218616, Note_off_c, 8, 74, 64
10, 218640, Note_on_c, 8, 74, 114
10, 218736, Note_off_c, 8, 74, 64
10, 218760, Note_on_c, 8, 74, 114
10, 218856, Note_off_c, 8, 74, 64
10, 218880, Note_on_c, 8, 74, 114
10, 218976, Note_off_c, 8, 74, 64
10, 219000, Note_on_c, 8, 74, 114
10, 219096, Note_off_c, 8, 74, 64
10, 219120, Note_on_c, 8, 72, 114
10, 219216, Note_off_c, 8, 72, 64
10, 219240, Note_on_c, 8, 72, 114
10, 219336, Note_off_c, 8, 72, 64
10, 219360, Note_on_c, 8, 72, 114
10, 219456, Note_off_c, 8, 72, 64
10, 219480, Note_on_c, 8, 72, 114
10, 219576, Note_off_c, 8, 72, 64
10, 219600, Note_on_c, 8, 72, 114
10, 219696, Note_off_c, 8, 72, 64
10, 219720, Note_on_c, 8, 72, 114
10, 219816, Note_off_c, 8, 72, 64
10, 219840, Note_on_c, 8, 72, 114
10, 219936, Note_off_c, 8, 72, 64
10, 219960, Note_on_c, 8, 72, 114
10, 220056, Note_off_c, 8, 72, 64
10, 220080, Note_on_c, 8, 71, 114
10, 220176, Note_off_c, 8, 71, 64
10, 220200, Note_on_c, 8, 71, 114
10, 220296, Note_off_c, 8, 71, 64
10, 220320, Note_on_c, 8, 71, 114
10, 220416, Note_off_c, 8, 71, 64
10, 220440, Note_on_c, 8, 71, 114
10, 220536, Note_off_c, 8, 71, 64
10, 220560, Note_on_c, 8, 71, 114
10, 220656, Note_off_c, 8, 71, 64
10, 220680, Note_on_c, 8, 71, 114
10, 220776, Note_off_c, 8, 71, 64
10, 220800, Note_on_c, 8, 71, 114
10, 220896, Note_off_c, 8, 71, 64
10, 220920, Note_on_c, 8, 71, 114
10, 221016, Note_off_c, 8, 71, 64
10, 221040, Note_on_c, 8, 69, 114
10, 221136, Note_off_c, 8, 69, 64
10, 221160, Note_on_c, 8, 69, 114
10, 221256, Note_off_c, 8, 69, 64
10, 221280, Note_on_c, 8, 69, 114
10, 221376, Note_off_c, 8, 69, 64
10, 221400, Note_on_c, 8, 69, 114
10, 221496, Note_off_c, 8, 69, 64
10, 221520, Note_on_c, 8, 69, 114
10, 221616, Note_off_c, 8, 69, 64
10, 221640, Note_on_c, 8, 69, 114
10, 221736, Note_off_c, 8, 69, 64
10, 221760, Note_on_c, 8, 69, 114
10, 221856, Note_off_c, 8, 69, 64
10, 221880, Note_on_c, 8, 69, 114
10, 221976, Note_off_c, 8, 69, 64
10, 222000, Note_on_c, 8, 67, 114
10, 222096, Note_off_c, 8, 67, 64
10, 222120, Note_on_c, 8, 67, 114
10, 222216, Note_off_c, 8, 67, 64
10, 222240, Note_on_c, 8, 67, 114
10, 222336, Note_off_c, 8, 67, 64
10, 222360, Note_on_c, 8, 67, 114
10, 222456, Note_off_c, 8, 67, 64
10, 222480, Note_on_c, 8, 67, 114
10, 222576, Note_off_c, 8, 67, 64
10, 222600, Note_on_c, 8, 67, 114
10, 222696, Note_off_c, 8, 67, 64
10, 222720, Note_on_c, 8, 67, 114
10, 222816, Note_off_c, 8, 67, 64
10, 222840, Note_on_c, 8, 67, 114
10, 222936, Note_off_c, 8, 67, 64
10, 222960, Note_on_c, 8, 67, 89
10, 223056, Note_off_c, 8, 67, 64
10, 223080, Note_on_c, 8, 67, 89
10, 223176, Note_off_c, 8, 67, 64
10, 223200, Note_on_c, 8, 67, 89
10, 223296, Note_off_c, 8, 67, 64
10, 223320, Note_on_c, 8, 67, 89
10, 223416, Note_off_c, 8, 67, 64
10, 223440, Note_on_c, 8, 67, 89
10, 223536, Note_off_c, 8, 67, 64
10, 223560, Note_on_c, 8, 67, 89
10, 223656, Note_off_c, 8, 67, 64
10, 223680, Note_on_c, 8, 67, 89
10, 223776, Note_off_c, 8, 67, 64
10, 223800, Note_on_c, 8, 67, 89
10, 223896, Note_off_c, 8, 67, 64
10, 223920, Note_on_c, 8, 67, 89
10, 224016, Note_off_c, 8, 67, 64
10, 224040, Note_on_c, 8, 67, 89
10, 224136, Note_off_c, 8, 67, 64
10, 224160, Note_on_c, 8, 67, 89
10, 224256, Note_off_c, 8, 67, 64
10, 224280, Note_on_c, 8, 67, 89
10, 224376, Note_off_c, 8, 67, 64
10, 224400, Note_on_c, 8, 67, 89
10, 224496, Note_off_c, 8, 67, 64
10, 224520, Note_on_c, 8, 67, 89
10, 224616, Note_off_c, 8, 67, 64
10, 224640, Note_on_c, 8, 67, 89
10, 224736, Note_off_c, 8, 67, 64
10, 224760, Note_on_c, 8, 67, 89
10, 224856, Note_off_c, 8, 67, 64
10, 224880, Note_on_c, 8, 67, 89
10, 224976, Note_off_c, 8, 67, 64
10, 225000, Note_on_c, 8, 74, 89
10, 225096, Note_off_c, 8, 74, 64
10, 225120, Note_on_c, 8, 74, 89
10, 225216, Note_off_c, 8, 74, 64
10, 225240, Note_on_c, 8, 74, 89
10, 225336, Note_off_c, 8, 74, 64
10, 225360, Note_on_c, 8, 74, 89
10, 225456, Note_off_c, 8, 74, 64
10, 225480, Note_on_c, 8, 74, 89
10, 225576, Note_off_c, 8, 74, 64
10, 225600, Note_on_c, 8, 74, 89
10, 225696, Note_off_c, 8, 74, 64
10, 225720, Note_on_c, 8, 74, 89
10, 225816, Note_off_c, 8, 74, 64
10, 225840, Note_on_c, 8, 72, 89
10, 225936, Note_off_c, 8, 72, 64
10, 225960, Note_on_c, 8, 72, 89
10, 226056, Note_off_c, 8, 72, 64
10, 226080, Note_on_c, 8, 72, 89
10, 226176, Note_off_c, 8, 72, 64
10, 226200, Note_on_c, 8, 72, 89
10, 226296, Note_off_c, 8, 72, 64
10, 226320, Note_on_c, 8, 72, 89
10, 226416, Note_off_c, 8, 72, 64
10, 226440, Note_on_c, 8, 72, 89
10, 226536, Note_off_c, 8, 72, 64
10, 226560, Note_on_c, 8, 72, 89
10, 226656, Note_off_c, 8, 72, 64
10, 226680, Note_on_c, 8, 72, 89
10, 226776, Note_off_c, 8, 72, 64
10, 226800, Note_on_c, 8, 72, 127
10, 226896, Note_off_c, 8, 72, 64
10, 226920, Note_on_c, 8, 84, 89
10, 227016, Note_off_c, 8, 84, 64
10, 227040, Note_on_c, 8, 84, 89
10, 227136, Note_off_c, 8, 84, 64
10, 227160, Note_on_c, 8, 84, 89
10, 227256, Note_off_c, 8, 84, 64
10, 227280, Note_on_c, 8, 84, 89
10, 227376, Note_off_c, 8, 84, 64
10, 227400, Note_on_c, 8, 84, 89
10, 227496, Note_off_c, 8, 84, 64
10, 227520, Note_on_c, 8, 84, 89
10, 227616, Note_off_c, 8, 84, 64
10, 227640, Note_on_c, 8, 84, 89
10, 227736, Note_off_c, 8, 84, 64
10, 227760, Note_on_c, 8, 84, 127
10, 227856, Note_off_c, 8, 84, 64
10, 227880, Note_on_c, 8, 84, 89
10, 227976, Note_off_c, 8, 84, 64
10, 228000, Note_on_c, 8, 84, 89
10, 228096, Note_off_c, 8, 84, 64
10, 228120, Note_on_c, 8, 84, 89
10, 228216, Note_off_c, 8, 84, 64
10, 228240, Note_on_c, 8, 84, 89
10, 228336, Note_off_c, 8, 84, 64
10, 228360, Note_on_c, 8, 84, 89
10, 228456, Note_off_c, 8, 84, 64
10, 228480, Note_on_c, 8, 84, 89
10, 228576, Note_off_c, 8, 84, 64
10, 228600, Note_on_c, 8, 84, 89
10, 228696, Note_off_c, 8, 84, 64
10, 228720, Note_on_c, 8, 81, 127
10, 228720, Note_on_c, 8, 72, 89
10, 228816, Note_off_c, 8, 72, 64
10, 228816, Note_off_c, 8, 81, 64
10, 228840, Note_on_c, 8, 72, 89
10, 228840, Note_on_c, 8, 81, 89
10, 228936, Note_off_c, 8, 81, 64
10, 228936, Note_off_c, 8, 72, 64
10, 228960, Note_on_c, 8, 72, 89
10, 228960, Note_on_c, 8, 81, 89
10, 229056, Note_off_c, 8, 81, 64
10, 229056, Note_off_c, 8, 72, 64
10, 229080, Note_on_c, 8, 72, 89
10, 229080, Note_on_c, 8, 81, 89
10, 229176, Note_off_c, 8, 81, 64
10, 229176, Note_off_c, 8, 72, 64
10, 229200, Note_on_c, 8, 81, 89
10, 229200, Note_on_c, 8, 72, 89
10, 229296, Note_off_c, 8, 72, 64
10, 229296, Note_off_c, 8, 81, 64
10, 229320, Note_on_c, 8, 72, 89
10, 229320, Note_on_c, 8, 81, 89
10, 229416, Note_off_c, 8, 81, 64
10, 229416, Note_off_c, 8, 72, 64
10, 229440, Note_on_c, 8, 72, 89
10, 229440, Note_on_c, 8, 81, 89
10, 229536, Note_off_c, 8, 81, 64
10, 229536, Note_off_c, 8, 72, 64
10, 229560, Note_on_c, 8, 72, 89
10, 229560, Note_on_c, 8, 81, 89
10, 229656, Note_off_c, 8, 81, 64
10, 229656, Note_off_c, 8, 72, 64
10, 229680, Note_on_c, 8, 79, 127
10, 229680, Note_on_c, 8, 71, 89
10, 229776, Note_off_c, 8, 71, 64
10, 229776, Note_off_c, 8, 79, 64
10, 229800, Note_on_c, 8, 79, 89
10, 229800, Note_on_c, 8, 71, 89
10, 229896, Note_off_c, 8, 71, 64
10, 229896, Note_off_c, 8, 79, 64
10, 229920, Note_on_c, 8, 79, 89
10, 229920, Note_on_c, 8, 71, 89
10, 230016, Note_off_c, 8, 71, 64
10, 230016, Note_off_c, 8, 79, 64
10, 230040, Note_on_c, 8, 79, 89
10, 230040, Note_on_c, 8, 71, 89
10, 230136, Note_off_c, 8, 71, 64
10, 230136, Note_off_c, 8, 79, 64
10, 230160, Note_on_c, 8, 71, 89
10, 230160, Note_on_c, 8, 79, 89
10, 230256, Note_off_c, 8, 79, 64
10, 230256, Note_off_c, 8, 71, 64
10, 230280, Note_on_c, 8, 71, 89
10, 230280, Note_on_c, 8, 79, 89
10, 230376, Note_off_c, 8, 79, 64
10, 230376, Note_off_c, 8, 71, 64
10, 230400, Note_on_c, 8, 71, 89
10, 230400, Note_on_c, 8, 79, 89
10, 230496, Note_off_c, 8, 79, 64
10, 230496, Note_off_c, 8, 71, 64
10, 230520, Note_on_c, 8, 79, 89
10, 230520, Note_on_c, 8, 71, 89
10, 230616, Note_off_c, 8, 71, 64
10, 230616, Note_off_c, 8, 79, 64
10, 230640, Note_on_c, 8, 79, 127
10, 230640, Note_on_c, 8, 71, 89
10, 230736, Note_off_c, 8, 71, 64
10, 230736, Note_off_c, 8, 79, 64
10, 230760, Note_on_c, 8, 71, 89
10, 230760, Note_on_c, 8, 79, 89
10, 230856, Note_off_c, 8, 79, 64
10, 230856, Note_off_c, 8, 71, 64
10, 230880, Note_on_c, 8, 71, 89
10, 230880, Note_on_c, 8, 79, 89
10, 230976, Note_off_c, 8, 79, 64
10, 230976, Note_off_c, 8, 71, 64
10, 231000, Note_on_c, 8, 79, 89
10, 231000, Note_on_c, 8, 71, 89
10, 231096, Note_off_c, 8, 71, 64
10, 231096, Note_off_c, 8, 79, 64
10, 231120, Note_on_c, 8, 71, 89
10, 231120, Note_on_c, 8, 79, 89
10, 231216, Note_off_c, 8, 79, 64
10, 231216, Note_off_c, 8, 71, 64
10, 231240, Note_on_c, 8, 71, 89
10, 231240, Note_on_c, 8, 79, 89
10, 231336, Note_off_c, 8, 79, 64
10, 231336, Note_off_c, 8, 71, 64
10, 231360, Note_on_c, 8, 79, 89
10, 231360, Note_on_c, 8, 71, 89
10, 231456, Note_off_c, 8, 71, 64
10, 231456, Note_off_c, 8, 79, 64
10, 231480, Note_on_c, 8, 79, 89
10, 231480, Note_on_c, 8, 71, 89
10, 231576, Note_off_c, 8, 71, 64
10, 231576, Note_off_c, 8, 79, 64
10, 231600, Note_on_c, 8, 69, 89
10, 231696, Note_off_c, 8, 69, 64
10, 231720, Note_on_c, 8, 71, 89
10, 231816, Note_off_c, 8, 71, 64
10, 231840, Note_on_c, 8, 69, 89
10, 231936, Note_off_c, 8, 69, 64
10, 231960, Note_on_c, 8, 67, 89
10, 232056, Note_off_c, 8, 67, 64
10, 232080, Note_on_c, 8, 66, 89
10, 232176, Note_off_c, 8, 66, 64
10, 232200, Note_on_c, 8, 64, 89
10, 232296, Note_off_c, 8, 64, 64
10, 232320, Note_on_c, 8, 62, 89
10, 232416, Note_off_c, 8, 62, 64
10, 232440, Note_on_c, 8, 60, 89
10, 232536, Note_off_c, 8, 60, 64
10, 232560, Note_on_c, 8, 59, 67
10, 232656, Note_off_c, 8, 59, 64
10, 232680, Note_on_c, 8, 74, 67
10, 232776, Note_off_c, 8, 74, 64
10, 232800, Note_on_c, 8, 72, 67
10, 232896, Note_off_c, 8, 72, 64
10, 232920, Note_on_c, 8, 71, 67
10, 233016, Note_off_c, 8, 71, 64
10, 233040, Note_on_c, 8, 72, 67
10, 233136, Note_off_c, 8, 72, 64
10, 233160, Note_on_c, 8, 71, 67
10, 233256, Note_off_c, 8, 71, 64
10, 233280, Note_on_c, 8, 69, 67
10, 233376, Note_off_c, 8, 69, 64
10, 233400, Note_on_c, 8, 67, 67
10, 233496, Note_off_c, 8, 67, 64
10, 233520, Note_on_c, 8, 72, 67
10, 233904, Note_off_c, 8, 72, 64
10, 234600, Note_on_c, 8, 71, 67
10, 234696, Note_off_c, 8, 71, 64
10, 234720, Note_on_c, 8, 69, 67
10, 234816, Note_off_c, 8, 69, 64
10, 234840, Note_on_c, 8, 67, 67
10, 234936, Note_off_c, 8, 67, 64
10, 234960, Note_on_c, 8, 69, 67
10, 235056, Note_off_c, 8, 69, 64
10, 235080, Note_on_c, 8, 67, 67
10, 235176, Note_off_c, 8, 67, 64
10, 235200, Note_on_c, 8, 66, 67
10, 235296, Note_off_c, 8, 66, 64
10, 235320, Note_on_c, 8, 64, 67
10, 235416, Note_off_c, 8, 64, 64
10, 235440, Note_on_c, 8, 69, 67
10, 235824, Note_off_c, 8, 69, 64
10, 236520, Note_on_c, 8, 74, 67
10, 236616, Note_off_c, 8, 74, 64
10, 236640, Note_on_c, 8, 72, 67
10, 236736, Note_off_c, 8, 72, 64
10, 236760, Note_on_c, 8, 71, 67
10, 236856, Note_off_c, 8, 71, 64
10, 236880, Note_on_c, 8, 72, 67
10, 236976, Note_off_c, 8, 72, 64
10, 237000, Note_on_c, 8, 71, 67
10, 237096, Note_off_c, 8, 71, 64
10, 237120, Note_on_c, 8, 69, 67
10, 237216, Note_off_c, 8, 69, 64
10, 237240, Note_on_c, 8, 67, 67
10, 237336, Note_off_c, 8, 67, 64
10, 237360, Note_on_c, 8, 66, 67
10, 237552, Note_off_c, 8, 66, 64
10, 237600, Note_on_c, 8, 67, 67
10, 237696, Note_off_c, 8, 67, 64
10, 237720, Note_on_c, 8, 69, 67
10, 237816, Note_off_c, 8, 69, 64
10, 237840, Note_on_c, 8, 62, 50
10, 237936, Note_off_c, 8, 62, 64
10, 237960, Note_on_c, 8, 62, 50
10, 238056, Note_off_c, 8, 62, 64
10, 238080, Note_on_c, 8, 62, 50
10, 238176, Note_off_c, 8, 62, 64
10, 238200, Note_on_c, 8, 62, 50
10, 238296, Note_off_c, 8, 62, 64
10, 238320, Note_on_c, 8, 62, 50
10, 238416, Note_off_c, 8, 62, 64
10, 238440, Note_on_c, 8, 62, 50
10, 238536, Note_off_c, 8, 62, 64
10, 238560, Note_on_c, 8, 62, 50
10, 238656, Note_off_c, 8, 62, 64
10, 238680, Note_on_c, 8, 62, 50
10, 238776, Note_off_c, 8, 62, 64
10, 238800, Note_on_c, 8, 62, 50
10, 238896, Note_off_c, 8, 62, 64
10, 238920, Note_on_c, 8, 62, 50
10, 239016, Note_off_c, 8, 62, 64
10, 239040, Note_on_c, 8, 62, 50
10, 239136, Note_off_c, 8, 62, 64
10, 239160, Note_on_c, 8, 62, 50
10, 239256, Note_off_c, 8, 62, 64
10, 239280, Note_on_c, 8, 62, 50
10, 239376, Note_off_c, 8, 62, 64
10, 239400, Note_on_c, 8, 62, 50
10, 239496, Note_off_c, 8, 62, 64
10, 239520, Note_on_c, 8, 62, 50
10, 239616, Note_off_c, 8, 62, 64
10, 239640, Note_on_c, 8, 62, 50
10, 239736, Note_off_c, 8, 62, 64
10, 239760, Note_on_c, 8, 62, 50
10, 239856, Note_off_c, 8, 62, 64
10, 239880, Note_on_c, 8, 62, 50
10, 239976, Note_off_c, 8, 62, 64
10, 240000, Note_on_c, 8, 62, 50
10, 240096, Note_off_c, 8, 62, 64
10, 240120, Note_on_c, 8, 62, 50
10, 240216, Note_off_c, 8, 62, 64
10, 240240, Note_on_c, 8, 62, 50
10, 240336, Note_off_c, 8, 62, 64
10, 240360, Note_on_c, 8, 67, 50
10, 240456, Note_off_c, 8, 67, 64
10, 240480, Note_on_c, 8, 67, 50
10, 240576, Note_off_c, 8, 67, 64
10, 240600, Note_on_c, 8, 67, 50
10, 240696, Note_off_c, 8, 67, 64
10, 240720, Note_on_c, 8, 67, 50
10, 240816, Note_off_c, 8, 67, 64
10, 240840, Note_on_c, 8, 67, 50
10, 240936, Note_off_c, 8, 67, 64
10, 240960, Note_on_c, 8, 67, 50
10, 241056, Note_off_c, 8, 67, 64
10, 241080, Note_on_c, 8, 67, 50
10, 241176, Note_off_c, 8, 67, 64
10, 241200, Note_on_c, 8, 67, 50
10, 241296, Note_off_c, 8, 67, 64
10, 241320, Note_on_c, 8, 67, 50
10, 241416, Note_off_c, 8, 67, 64
10, 241440, Note_on_c, 8, 67, 50
10, 241536, Note_off_c, 8, 67, 64
10, 241560, Note_on_c, 8, 67, 50
10, 241656, Note_off_c, 8, 67, 64
10, 241680, Note_on_c, 8, 67, 50
10, 241776, Note_off_c, 8, 67, 64
10, 241800, Note_on_c, 8, 67, 50
10, 241896, Note_off_c, 8, 67, 64
10, 241920, Note_on_c, 8, 67, 50
10, 242016, Note_off_c, 8, 67, 64
10, 242040, Note_on_c, 8, 67, 50
10, 242136, Note_off_c, 8, 67, 64
10, 242160, Note_on_c, 8, 67, 50
10, 242256, Note_off_c, 8, 67, 64
10, 242280, Note_on_c, 8, 67, 50
10, 242376, Note_off_c, 8, 67, 64
10, 242400, Note_on_c, 8, 67, 50
10, 242496, Note_off_c, 8, 67, 64
10, 242520, Note_on_c, 8, 67, 50
10, 242616, Note_off_c, 8, 67, 64
10, 242640, Note_on_c, 8, 67, 50
10, 242736, Note_off_c, 8, 67, 64
10, 242760, Note_on_c, 8, 67, 50
10, 242856, Note_off_c, 8, 67, 64
10, 242880, Note_on_c, 8, 67, 50
10, 242976, Note_off_c, 8, 67, 64
10, 243000, Note_on_c, 8, 67, 50
10, 243096, Note_off_c, 8, 67, 64
10, 243120, Note_on_c, 8, 72, 50
10, 244020, Note_off_c, 8, 72, 64
10, 244080, Note_on_c, 8, 69, 45
10, 244320, Note_off_c, 8, 69, 64
10, 244320, Note_on_c, 8, 70, 45
10, 244440, Note_off_c, 8, 70, 64
10, 244440, Note_on_c, 8, 72, 45
10, 244560, Note_off_c, 8, 72, 64
10, 244560, Note_on_c, 8, 74, 45
10, 244656, Note_off_c, 8, 74, 64
10, 244800, Note_on_c, 8, 74, 45
10, 244896, Note_off_c, 8, 74, 64
10, 245040, Note_on_c, 8, 67, 45
10, 245280, Note_off_c, 8, 67, 64
10, 245280, Note_on_c, 8, 69, 45
10, 245400, Note_off_c, 8, 69, 64
10, 245400, Note_on_c, 8, 70, 45
10, 245520, Note_off_c, 8, 70, 64
10, 245520, Note_on_c, 8, 72, 45
10, 245616, Note_off_c, 8, 72, 64
10, 245760, Note_on_c, 8, 70, 45
10, 245856, Note_off_c, 8, 70, 64
10, 246000, Note_on_c, 8, 69, 36
10, 246072, Note_off_c, 8, 69, 64
10, 246120, Note_on_c, 8, 70, 36
10, 246192, Note_off_c, 8, 70, 64
10, 246240, Note_on_c, 8, 72, 36
10, 246312, Note_off_c, 8, 72, 64
10, 246360, Note_on_c, 8, 74, 36
10, 246432, Note_off_c, 8, 74, 64
10, 246480, Note_on_c, 8, 76, 36
10, 246552, Note_off_c, 8, 76, 64
10, 246600, Note_on_c, 8, 77, 36
10, 246672, Note_off_c, 8, 77, 64
10, 246720, Note_on_c, 8, 79, 36
10, 246792, Note_off_c, 8, 79, 64
10, 246840, Note_on_c, 8, 81, 36
10, 246912, Note_off_c, 8, 81, 64
10, 246960, Note_on_c, 8, 69, 36
10, 247032, Note_off_c, 8, 69, 64
10, 247080, Note_on_c, 8, 81, 36
10, 247152, Note_off_c, 8, 81, 64
10, 247200, Note_on_c, 8, 69, 36
10, 247272, Note_off_c, 8, 69, 64
10, 247320, Note_on_c, 8, 69, 36
10, 247392, Note_off_c, 8, 69, 64
10, 247440, Note_on_c, 8, 69, 36
10, 247512, Note_off_c, 8, 69, 64
10, 247560, Note_on_c, 8, 69, 36
10, 247632, Note_off_c, 8, 69, 64
10, 247680, Note_on_c, 8, 69, 36
10, 247752, Note_off_c, 8, 69, 64
10, 247800, Note_on_c, 8, 69, 36
10, 247872, Note_off_c, 8, 69, 64
10, 247920, Note_on_c, 8, 67, 36
10, 247992, Note_off_c, 8, 67, 64
10, 248040, Note_on_c, 8, 79, 36
10, 248112, Note_off_c, 8, 79, 64
10, 248160, Note_on_c, 8, 67, 36
10, 248232, Note_off_c, 8, 67, 64
10, 248280, Note_on_c, 8, 67, 36
10, 248352, Note_off_c, 8, 67, 64
10, 248400, Note_on_c, 8, 67, 36
10, 248472, Note_off_c, 8, 67, 64
10, 248520, Note_on_c, 8, 67, 36
10, 248592, Note_off_c, 8, 67, 64
10, 248640, Note_on_c, 8, 67, 36
10, 248712, Note_off_c, 8, 67, 64
10, 248760, Note_on_c, 8, 67, 36
10, 248832, Note_off_c, 8, 67, 64
10, 248880, Note_on_c, 8, 65, 36
10, 248952, Note_off_c, 8, 65, 64
10, 249000, Note_on_c, 8, 77, 36
10, 249072, Note_off_c, 8, 77, 64
10, 249120, Note_on_c, 8, 65, 36
10, 249192, Note_off_c, 8, 65, 64
10, 249240, Note_on_c, 8, 65, 36
10, 249312, Note_off_c, 8, 65, 64
10, 249360, Note_on_c, 8, 65, 36
10, 249432, Note_off_c, 8, 65, 64
10, 249480, Note_on_c, 8, 65, 36
10, 249552, Note_off_c, 8, 65, 64
10, 249600, Note_on_c, 8, 65, 36
10, 249672, Note_off_c, 8, 65, 64
10, 249720, Note_on_c, 8, 65, 36
10, 249792, Note_off_c, 8, 65, 64
10, 249840, Note_on_c, 8, 64, 36
10, 249912, Note_off_c, 8, 64, 64
10, 249960, Note_on_c, 8, 76, 36
10, 250032, Note_off_c, 8, 76, 64
10, 250080, Note_on_c, 8, 64, 36
10, 250152, Note_off_c, 8, 64, 64
10, 250200, Note_on_c, 8, 64, 36
10, 250272, Note_off_c, 8, 64, 64
10, 250320, Note_on_c, 8, 64, 36
10, 250392, Note_off_c, 8, 64, 64
10, 250440, Note_on_c, 8, 64, 36
10, 250512, Note_off_c, 8, 64, 64
10, 250560, Note_on_c, 8, 64, 36
10, 250632, Note_off_c, 8, 64, 64
10, 250680, Note_on_c, 8, 64, 36
10, 250752, Note_off_c, 8, 64, 64
10, 250800, Note_on_c, 8, 65, 36
10, 250872, Note_off_c, 8, 65, 64
10, 250920, Note_on_c, 8, 65, 36
10, 250992, Note_off_c, 8, 65, 64
10, 251040, Note_on_c, 8, 67, 36
10, 251112, Note_off_c, 8, 67, 64
10, 251160, Note_on_c, 8, 69, 36
10, 251232, Note_off_c, 8, 69, 64
10, 251280, Note_on_c, 8, 70, 36
10, 251352, Note_off_c, 8, 70, 64
10, 251400, Note_on_c, 8, 70, 36
10, 251472, Note_off_c, 8, 70, 64
10, 251520, Note_on_c, 8, 72, 36
10, 251592, Note_off_c, 8, 72, 64
10, 251640, Note_on_c, 8, 74, 36
10, 251712, Note_off_c, 8, 74, 64
10, 251760, Note_on_c, 8, 64, 39
10, 251808, Note_off_c, 8, 64, 64
10, 251880, Note_on_c, 8, 64, 39
10, 251928, Note_off_c, 8, 64, 64
10, 252000, Note_on_c, 8, 65, 39
10, 252048, Note_off_c, 8, 65, 64
10, 252120, Note_on_c, 8, 67, 39
10, 252168, Note_off_c, 8, 67, 64
10, 252240, Note_on_c, 8, 69, 39
10, 252288, Note_off_c, 8, 69, 64
10, 252360, Note_on_c, 8, 69, 39
10, 252408, Note_off_c, 8, 69, 64
10, 252480, Note_on_c, 8, 70, 39
10, 252528, Note_off_c, 8, 70, 64
10, 252600, Note_on_c, 8, 72, 39
10, 252648, Note_off_c, 8, 72, 64
10, 252720, Note_on_c, 8, 60, 39
10, 252768, Note_off_c, 8, 60, 64
10, 252840, Note_on_c, 8, 67, 39
10, 252888, Note_off_c, 8, 67, 64
10, 252960, Note_on_c, 8, 65, 39
10, 253008, Note_off_c, 8, 65, 64
10, 253080, Note_on_c, 8, 64, 39
10, 253128, Note_off_c, 8, 64, 64
10, 253200, Note_on_c, 8, 62, 39
10, 253248, Note_off_c, 8, 62, 64
10, 253320, Note_on_c, 8, 60, 39
10, 253368, Note_off_c, 8, 60, 64
10, 253440, Note_on_c, 8, 62, 39
10, 253488, Note_off_c, 8, 62, 64
10, 253560, Note_on_c, 8, 64, 39
10, 253608, Note_off_c, 8, 64, 64
10, 253680, Note_on_c, 8, 65, 39
10, 253728, Note_off_c, 8, 65, 64
10, 253800, Note_on_c, 8, 72, 39
10, 253848, Note_off_c, 8, 72, 64
10, 253920, Note_on_c, 8, 70, 39
10, 253968, Note_off_c, 8, 70, 64
10, 254040, Note_on_c, 8, 69, 39
10, 254088, Note_off_c, 8, 69, 64
10, 254160, Note_on_c, 8, 67, 39
10, 254208, Note_off_c, 8, 67, 64
10, 254280, Note_on_c, 8, 65, 39
10, 254328, Note_off_c, 8, 65, 64
10, 254400, Note_on_c, 8, 64, 39
10, 254448, Note_off_c, 8, 64, 64
10, 254520, Note_on_c, 8, 65, 39
10, 254568, Note_off_c, 8, 65, 64
10, 254640, Note_on_c, 8, 60, 39
10, 254688, Note_off_c, 8, 60, 64
10, 254760, Note_on_c, 8, 67, 39
10, 254808, Note_off_c, 8, 67, 64
10, 254880, Note_on_c, 8, 65, 39
10, 254928, Note_off_c, 8, 65, 64
10, 255000, Note_on_c, 8, 64, 39
10, 255048, Note_off_c, 8, 64, 64
10, 255120, Note_on_c, 8, 62, 39
10, 255168, Note_off_c, 8, 62, 64
10, 255240, Note_on_c, 8, 60, 39
10, 255288, Note_off_c, 8, 60, 64
10, 255360, Note_on_c, 8, 62, 39
10, 255408, Note_off_c, 8, 62, 64
10, 255480, Note_on_c, 8, 64, 39
10, 255528, Note_off_c, 8, 64, 64
10, 255600, Note_on_c, 8, 65, 39
10, 255648, Note_off_c, 8, 65, 64
10, 255720, Note_on_c, 8, 72, 39
10, 255768, Note_off_c, 8, 72, 64
10, 255840, Note_on_c, 8, 70, 39
10, 255888, Note_off_c, 8, 70, 64
10, 255960, Note_on_c, 8, 69, 39
10, 256008, Note_off_c, 8, 69, 64
10, 256080, Note_on_c, 8, 67, 39
10, 256128, Note_off_c, 8, 67, 64
10, 256200, Note_on_c, 8, 65, 39
10, 256248, Note_off_c, 8, 65, 64
10, 256320, Note_on_c, 8, 64, 39
10, 256368, Note_off_c, 8, 64, 64
10, 256440, Note_on_c, 8, 65, 39
10, 256488, Note_off_c, 8, 65, 64
10, 256560, Note_on_c, 8, 65, 39
10, 256608, Note_off_c, 8, 65, 64
10, 256680, Note_on_c, 8, 65, 39
10, 256728, Note_off_c, 8, 65, 64
10, 256800, Note_on_c, 8, 65, 39
10, 256848, Note_off_c, 8, 65, 64
10, 256920, Note_on_c, 8, 65, 39
10, 256968, Note_off_c, 8, 65, 64
10, 257040, Note_on_c, 8, 65, 39
10, 257088, Note_off_c, 8, 65, 64
10, 257160, Note_on_c, 8, 65, 39
10, 257208, Note_off_c, 8, 65, 64
10, 257280, Note_on_c, 8, 65, 39
10, 257328, Note_off_c, 8, 65, 64
10, 257400, Note_on_c, 8, 65, 39
10, 257448, Note_off_c, 8, 65, 64
10, 257520, Note_on_c, 8, 64, 39
10, 257568, Note_off_c, 8, 64, 64
10, 257640, Note_on_c, 8, 64, 39
10, 257688, Note_off_c, 8, 64, 64
10, 257760, Note_on_c, 8, 64, 39
10, 257808, Note_off_c, 8, 64, 64
10, 257880, Note_on_c, 8, 64, 39
10, 257928, Note_off_c, 8, 64, 64
10, 258000, Note_on_c, 8, 64, 39
10, 258048, Note_off_c, 8, 64, 64
10, 258120, Note_on_c, 8, 64, 39
10, 258168, Note_off_c, 8, 64, 64
10, 258240, Note_on_c, 8, 64, 39
10, 258288, Note_off_c, 8, 64, 64
10, 258360, Note_on_c, 8, 64, 39
10, 258408, Note_off_c, 8, 64, 64
10, 258480, Note_on_c, 8, 64, 39
10, 258528, Note_off_c, 8, 64, 64
10, 258600, Note_on_c, 8, 64, 39
10, 258648, Note_off_c, 8, 64, 64
10, 258720, Note_on_c, 8, 64, 39
10, 258768, Note_off_c, 8, 64, 64
10, 258840, Note_on_c, 8, 64, 39
10, 258888, Note_off_c, 8, 64, 64
10, 258960, Note_on_c, 8, 64, 39
10, 259008, Note_off_c, 8, 64, 64
10, 259080, Note_on_c, 8, 64, 39
10, 259128, Note_off_c, 8, 64, 64
10, 259200, Note_on_c, 8, 64, 39
10, 259248, Note_off_c, 8, 64, 64
10, 259320, Note_on_c, 8, 64, 39
10, 259368, Note_off_c, 8, 64, 64
10, 259440, Note_on_c, 8, 65, 39
10, 259488, Note_off_c, 8, 65, 64
10, 259560, Note_on_c, 8, 65, 39
10, 259608, Note_off_c, 8, 65, 64
10, 259680, Note_on_c, 8, 65, 39
10, 259728, Note_off_c, 8, 65, 64
10, 259800, Note_on_c, 8, 65, 39
10, 259848, Note_off_c, 8, 65, 64
10, 259920, Note_on_c, 8, 65, 39
10, 259968, Note_off_c, 8, 65, 64
10, 260040, Note_on_c, 8, 65, 39
10, 260088, Note_off_c, 8, 65, 64
10, 260160, Note_on_c, 8, 65, 39
10, 260208, Note_off_c, 8, 65, 64
10, 260280, Note_on_c, 8, 65, 39
10, 260328, Note_off_c, 8, 65, 64
10, 260400, Note_on_c, 8, 64, 39
10, 260448, Note_off_c, 8, 64, 64
10, 260520, Note_on_c, 8, 64, 39
10, 260568, Note_off_c, 8, 64, 64
10, 260640, Note_on_c, 8, 64, 39
10, 260688, Note_off_c, 8, 64, 64
10, 260760, Note_on_c, 8, 64, 39
10, 260808, Note_off_c, 8, 64, 64
10, 260880, Note_on_c, 8, 64, 39
10, 260928, Note_off_c, 8, 64, 64
10, 261000, Note_on_c, 8, 64, 39
10, 261048, Note_off_c, 8, 64, 64
10, 261120, Note_on_c, 8, 64, 39
10, 261168, Note_off_c, 8, 64, 64
10, 261240, Note_on_c, 8, 64, 39
10, 261288, Note_off_c, 8, 64, 64
10, 261360, Note_on_c, 8, 57, 39
10, 261360, Note_on_c, 8, 65, 39
10, 261408, Note_off_c, 8, 65, 64
10, 261408, Note_off_c, 8, 57, 64
10, 261480, Note_on_c, 8, 65, 39
10, 261480, Note_on_c, 8, 57, 39
10, 261528, Note_off_c, 8, 57, 64
10, 261528, Note_off_c, 8, 65, 64
10, 261600, Note_on_c, 8, 57, 39
10, 261600, Note_on_c, 8, 65, 39
10, 261648, Note_off_c, 8, 65, 64
10, 261648, Note_off_c, 8, 57, 64
10, 261720, Note_on_c, 8, 65, 39
10, 261720, Note_on_c, 8, 57, 39
10, 261768, Note_off_c, 8, 57, 64
10, 261768, Note_off_c, 8, 65, 64
10, 261840, Note_on_c, 8, 57, 39
10, 261840, Note_on_c, 8, 65, 39
10, 261888, Note_off_c, 8, 65, 64
10, 261888, Note_off_c, 8, 57, 64
10, 261960, Note_on_c, 8, 65, 39
10, 261960, Note_on_c, 8, 57, 39
10, 262008, Note_off_c, 8, 57, 64
10, 262008, Note_off_c, 8, 65, 64
10, 262080, Note_on_c, 8, 65, 39
10, 262080, Note_on_c, 8, 57, 39
10, 262128, Note_off_c, 8, 57, 64
10, 262128, Note_off_c, 8, 65, 64
10, 262200, Note_on_c, 8, 65, 39
10, 262200, Note_on_c, 8, 55, 39
10, 262248, Note_off_c, 8, 55, 64
10, 262248, Note_off_c, 8, 65, 64
10, 262320, Note_on_c, 8, 55, 39
10, 262320, Note_on_c, 8, 65, 39
10, 262368, Note_off_c, 8, 65, 64
10, 262368, Note_off_c, 8, 55, 64
10, 262440, Note_on_c, 8, 55, 39
10, 262440, Note_on_c, 8, 65, 39
10, 262488, Note_off_c, 8, 65, 64
10, 262488, Note_off_c, 8, 55, 64
10, 262560, Note_on_c, 8, 55, 39
10, 262560, Note_on_c, 8, 65, 39
10, 262608, Note_off_c, 8, 65, 64
10, 262608, Note_off_c, 8, 55, 64
10, 262680, Note_on_c, 8, 65, 39
10, 262680, Note_on_c, 8, 55, 39
10, 262728, Note_off_c, 8, 55, 64
10, 262728, Note_off_c, 8, 65, 64
10, 262800, Note_on_c, 8, 55, 39
10, 262800, Note_on_c, 8, 65, 39
10, 262848, Note_off_c, 8, 65, 64
10, 262848, Note_off_c, 8, 55, 64
10, 262920, Note_on_c, 8, 55, 39
10, 262920, Note_on_c, 8, 65, 39
10, 262968, Note_off_c, 8, 65, 64
10, 262968, Note_off_c, 8, 55, 64
10, 263040, Note_on_c, 8, 65, 39
10, 263040, Note_on_c, 8, 55, 39
10, 263088, Note_off_c, 8, 55, 64
10, 263088, Note_off_c, 8, 65, 64
10, 263160, Note_on_c, 8, 55, 39
10, 263160, Note_on_c, 8, 65, 39
10, 263208, Note_off_c, 8, 65, 64
10, 263208, Note_off_c, 8, 55, 64
10, 263280, Note_on_c, 8, 64, 39
10, 263280, Note_on_c, 8, 55, 39
10, 263328, Note_off_c, 8, 55, 64
10, 263328, Note_off_c, 8, 64, 64
10, 263400, Note_on_c, 8, 64, 39
10, 263400, Note_on_c, 8, 55, 39
10, 263448, Note_off_c, 8, 55, 64
10, 263448, Note_off_c, 8, 64, 64
10, 263520, Note_on_c, 8, 64, 39
10, 263520, Note_on_c, 8, 55, 39
10, 263568, Note_off_c, 8, 55, 64
10, 263568, Note_off_c, 8, 64, 64
10, 263640, Note_on_c, 8, 55, 39
10, 263640, Note_on_c, 8, 64, 39
10, 263688, Note_off_c, 8, 64, 64
10, 263688, Note_off_c, 8, 55, 64
10, 263760, Note_on_c, 8, 64, 39
10, 263760, Note_on_c, 8, 55, 39
10, 263808, Note_off_c, 8, 55, 64
10, 263808, Note_off_c, 8, 64, 64
10, 263880, Note_on_c, 8, 64, 39
10, 263880, Note_on_c, 8, 55, 39
10, 263928, Note_off_c, 8, 55, 64
10, 263928, Note_off_c, 8, 64, 64
10, 264000, Note_on_c, 8, 64, 39
10, 264000, Note_on_c, 8, 55, 39
10, 264048, Note_off_c, 8, 55, 64
10, 264048, Note_off_c, 8, 64, 64
10, 264120, Note_on_c, 8, 55, 39
10, 264120, Note_on_c, 8, 64, 39
10, 264168, Note_off_c, 8, 64, 64
10, 264168, Note_off_c, 8, 55, 64
10, 264240, Note_on_c, 8, 65, 39
10, 264240, Note_on_c, 8, 55, 39
10, 264288, Note_off_c, 8, 55, 64
10, 264288, Note_off_c, 8, 65, 64
10, 264360, Note_on_c, 8, 65, 39
10, 264360, Note_on_c, 8, 55, 39
10, 264408, Note_off_c, 8, 55, 64
10, 264408, Note_off_c, 8, 65, 64
10, 264480, Note_on_c, 8, 55, 39
10, 264480, Note_on_c, 8, 65, 39
10, 264528, Note_off_c, 8, 65, 64
10, 264528, Note_off_c, 8, 55, 64
10, 264600, Note_on_c, 8, 55, 39
10, 264600, Note_on_c, 8, 65, 39
10, 264648, Note_off_c, 8, 65, 64
10, 264648, Note_off_c, 8, 55, 64
10, 264720, Note_on_c, 8, 55, 39
10, 264720, Note_on_c, 8, 65, 39
10, 264768, Note_off_c, 8, 65, 64
10, 264768, Note_off_c, 8, 55, 64
10, 264840, Note_on_c, 8, 65, 39
10, 264840, Note_on_c, 8, 55, 39
10, 264888, Note_off_c, 8, 55, 64
10, 264888, Note_off_c, 8, 65, 64
10, 264960, Note_on_c, 8, 55, 39
10, 264960, Note_on_c, 8, 65, 39
10, 265008, Note_off_c, 8, 65, 64
10, 265008, Note_off_c, 8, 55, 64
10, 265080, Note_on_c, 8, 65, 39
10, 265080, Note_on_c, 8, 55, 39
10, 265128, Note_off_c, 8, 55, 64
10, 265128, Note_off_c, 8, 65, 64
10, 265200, Note_on_c, 8, 64, 25
10, 265200, Note_on_c, 8, 55, 25
10, 265296, Note_off_c, 8, 55, 64
10, 265296, Note_off_c, 8, 64, 64
10, 265320, Note_on_c, 8, 72, 25
10, 265416, Note_off_c, 8, 72, 64
10, 265440, Note_on_c, 8, 72, 25
10, 265536, Note_off_c, 8, 72, 64
10, 265560, Note_on_c, 8, 72, 25
10, 265656, Note_off_c, 8, 72, 64
10, 265680, Note_on_c, 8, 72, 25
10, 265776, Note_off_c, 8, 72, 64
10, 265800, Note_on_c, 8, 72, 25
10, 265896, Note_off_c, 8, 72, 64
10, 265920, Note_on_c, 8, 72, 25
10, 266016, Note_off_c, 8, 72, 64
10, 266040, Note_on_c, 8, 72, 25
10, 266136, Note_off_c, 8, 72, 64
10, 266160, Note_on_c, 8, 72, 25
10, 266256, Note_off_c, 8, 72, 64
10, 266280, Note_on_c, 8, 72, 25
10, 266376, Note_off_c, 8, 72, 64
10, 266400, Note_on_c, 8, 72, 25
10, 266496, Note_off_c, 8, 72, 64
10, 266520, Note_on_c, 8, 72, 25
10, 266616, Note_off_c, 8, 72, 64
10, 266640, Note_on_c, 8, 72, 25
10, 266736, Note_off_c, 8, 72, 64
10, 266760, Note_on_c, 8, 72, 25
10, 266856, Note_off_c, 8, 72, 64
10, 266880, Note_on_c, 8, 72, 25
10, 266976, Note_off_c, 8, 72, 64
10, 267000, Note_on_c, 8, 72, 25
10, 267096, Note_off_c, 8, 72, 64
10, 267120, Note_on_c, 8, 71, 25
10, 267216, Note_off_c, 8, 71, 64
10, 267240, Note_on_c, 8, 71, 25
10, 267336, Note_off_c, 8, 71, 64
10, 267360, Note_on_c, 8, 71, 25
10, 267456, Note_off_c, 8, 71, 64
10, 267480, Note_on_c, 8, 71, 25
10, 267576, Note_off_c, 8, 71, 64
10, 267600, Note_on_c, 8, 71, 25
10, 267696, Note_off_c, 8, 71, 64
10, 267720, Note_on_c, 8, 71, 25
10, 267816, Note_off_c, 8, 71, 64
10, 267840, Note_on_c, 8, 71, 25
10, 267936, Note_off_c, 8, 71, 64
10, 267960, Note_on_c, 8, 71, 25
10, 268056, Note_off_c, 8, 71, 64
10, 268080, Note_on_c, 8, 69, 22
10, 268176, Note_off_c, 8, 69, 64
10, 268200, Note_on_c, 8, 69, 22
10, 268296, Note_off_c, 8, 69, 64
10, 268320, Note_on_c, 8, 69, 22
10, 268416, Note_off_c, 8, 69, 64
10, 268440, Note_on_c, 8, 69, 22
10, 268536, Note_off_c, 8, 69, 64
10, 268560, Note_on_c, 8, 69, 22
10, 268656, Note_off_c, 8, 69, 64
10, 268680, Note_on_c, 8, 69, 22
10, 268776, Note_off_c, 8, 69, 64
10, 268800, Note_on_c, 8, 69, 22
10, 268896, Note_off_c, 8, 69, 64
10, 268920, Note_on_c, 8, 69, 22
10, 269016, Note_off_c, 8, 69, 64
10, 269040, Note_on_c, 8, 68, 18
10, 269424, Note_off_c, 8, 68, 64
10, 270464, Control_c, 8, 7, 31
10, 270484, Control_c, 8, 7, 32
10, 270504, Control_c, 8, 7, 33
10, 270516, Control_c, 8, 7, 34
10, 270536, Control_c, 8, 7, 35
10, 270556, Control_c, 8, 7, 36
10, 270564, Control_c, 8, 7, 37
10, 270584, Control_c, 8, 7, 38
10, 270604, Control_c, 8, 7, 39
10, 270616, Control_c, 8, 7, 40
10, 270636, Control_c, 8, 7, 41
10, 270656, Control_c, 8, 7, 42
10, 270664, Control_c, 8, 7, 43
10, 270684, Control_c, 8, 7, 44
10, 270704, Control_c, 8, 7, 45
10, 270716, Control_c, 8, 7, 46
10, 270736, Control_c, 8, 7, 47
10, 270756, Control_c, 8, 7, 48
10, 270764, Control_c, 8, 7, 49
10, 270784, Control_c, 8, 7, 50
10, 270796, Control_c, 8, 7, 51
10, 270816, Control_c, 8, 7, 52
10, 270836, Control_c, 8, 7, 53
10, 270844, Control_c, 8, 7, 54
10, 270864, Control_c, 8, 7, 55
10, 270884, Control_c, 8, 7, 56
10, 270896, Control_c, 8, 7, 57
10, 270916, Control_c, 8, 7, 58
10, 270936, Control_c, 8, 7, 59
10, 270944, Control_c, 8, 7, 60
10, 270960, Note_on_c, 8, 74, 36
10, 270964, Control_c, 8, 7, 61
10, 270984, Control_c, 8, 7, 62
10, 270996, Control_c, 8, 7, 63
10, 271016, Control_c, 8, 7, 64
10, 271036, Control_c, 8, 7, 65
10, 271044, Control_c, 8, 7, 66
10, 271064, Control_c, 8, 7, 67
10, 271084, Control_c, 8, 7, 68
10, 271096, Control_c, 8, 7, 69
10, 271116, Control_c, 8, 7, 70
10, 271124, Control_c, 8, 7, 71
10, 271144, Control_c, 8, 7, 72
10, 271164, Control_c, 8, 7, 73
10, 271176, Control_c, 8, 7, 74
10, 271196, Control_c, 8, 7, 75
10, 271216, Control_c, 8, 7, 76
10, 271224, Control_c, 8, 7, 77
10, 271244, Control_c, 8, 7, 78
10, 271264, Control_c, 8, 7, 79
10, 271276, Control_c, 8, 7, 80
10, 271296, Control_c, 8, 7, 81
10, 271316, Control_c, 8, 7, 82
10, 271324, Control_c, 8, 7, 83
10, 271344, Control_c, 8, 7, 84
10, 271364, Control_c, 8, 7, 85
10, 271376, Control_c, 8, 7, 86
10, 271396, Control_c, 8, 7, 87
10, 271416, Control_c, 8, 7, 88
10, 271424, Control_c, 8, 7, 89
10, 271444, Control_c, 8, 7, 90
10, 271456, Control_c, 8, 7, 91
10, 271920, Note_off_c, 8, 74, 64
10, 271920, Note_on_c, 8, 71, 40
10, 272112, Note_off_c, 8, 71, 64
10, 272160, Note_on_c, 8, 73, 40
10, 272256, Note_off_c, 8, 73, 64
10, 272280, Note_on_c, 8, 74, 40
10, 272376, Note_off_c, 8, 74, 64
10, 272400, Note_on_c, 8, 76, 40
10, 272496, Note_off_c, 8, 76, 64
10, 272640, Note_on_c, 8, 71, 40
10, 272736, Note_off_c, 8, 71, 64
10, 272880, Note_on_c, 8, 72, 24
10, 272976, Note_off_c, 8, 72, 64
10, 273000, Note_on_c, 8, 72, 24
10, 273096, Note_off_c, 8, 72, 64
10, 273120, Note_on_c, 8, 72, 24
10, 273216, Note_off_c, 8, 72, 64
10, 273240, Note_on_c, 8, 72, 24
10, 273336, Note_off_c, 8, 72, 64
10, 273360, Note_on_c, 8, 72, 24
10, 273456, Note_off_c, 8, 72, 64
10, 273480, Note_on_c, 8, 72, 24
10, 273576, Note_off_c, 8, 72, 64
10, 273600, Note_on_c, 8, 72, 24
10, 273696, Note_off_c, 8, 72, 64
10, 273720, Note_on_c, 8, 72, 24
10, 273816, Note_off_c, 8, 72, 64
10, 273840, Note_on_c, 8, 72, 24
10, 273936, Note_off_c, 8, 72, 64
10, 273960, Note_on_c, 8, 72, 24
10, 274056, Note_off_c, 8, 72, 64
10, 274080, Note_on_c, 8, 72, 24
10, 274176, Note_off_c, 8, 72, 64
10, 274200, Note_on_c, 8, 72, 24
10, 274296, Note_off_c, 8, 72, 64
10, 274320, Note_on_c, 8, 72, 24
10, 274416, Note_off_c, 8, 72, 64
10, 274440, Note_on_c, 8, 72, 24
10, 274536, Note_off_c, 8, 72, 64
10, 274560, Note_on_c, 8, 72, 24
10, 274656, Note_off_c, 8, 72, 64
10, 274680, Note_on_c, 8, 72, 24
10, 274776, Note_off_c, 8, 72, 64
10, 274800, Note_on_c, 8, 71, 24
10, 274896, Note_off_c, 8, 71, 64
10, 274920, Note_on_c, 8, 71, 24
10, 275016, Note_off_c, 8, 71, 64
10, 275040, Note_on_c, 8, 71, 24
10, 275136, Note_off_c, 8, 71, 64
10, 275160, Note_on_c, 8, 71, 24
10, 275256, Note_off_c, 8, 71, 64
10, 275280, Note_on_c, 8, 71, 24
10, 275376, Note_off_c, 8, 71, 64
10, 275400, Note_on_c, 8, 71, 24
10, 275496, Note_off_c, 8, 71, 64
10, 275520, Note_on_c, 8, 71, 24
10, 275616, Note_off_c, 8, 71, 64
10, 275640, Note_on_c, 8, 71, 24
10, 275736, Note_off_c, 8, 71, 64
10, 275760, Note_on_c, 8, 71, 24
10, 275856, Note_off_c, 8, 71, 64
10, 275880, Note_on_c, 8, 71, 24
10, 275976, Note_off_c, 8, 71, 64
10, 276000, Note_on_c, 8, 71, 24
10, 276096, Note_off_c, 8, 71, 64
10, 276120, Note_on_c, 8, 71, 24
10, 276216, Note_off_c, 8, 71, 64
10, 276240, Note_on_c, 8, 71, 24
10, 276336, Note_off_c, 8, 71, 64
10, 276360, Note_on_c, 8, 71, 24
10, 276456, Note_off_c, 8, 71, 64
10, 276480, Note_on_c, 8, 71, 24
10, 276576, Note_off_c, 8, 71, 64
10, 276600, Note_on_c, 8, 71, 24
10, 276696, Note_off_c, 8, 71, 64
10, 276720, Note_on_c, 8, 72, 24
10, 276720, Note_on_c, 8, 64, 24
10, 276816, Note_off_c, 8, 64, 64
10, 276816, Note_off_c, 8, 72, 64
10, 276840, Note_on_c, 8, 64, 24
10, 276840, Note_on_c, 8, 72, 24
10, 276936, Note_off_c, 8, 72, 64
10, 276936, Note_off_c, 8, 64, 64
10, 276960, Note_on_c, 8, 72, 24
10, 276960, Note_on_c, 8, 64, 24
10, 277056, Note_off_c, 8, 64, 64
10, 277056, Note_off_c, 8, 72, 64
10, 277080, Note_on_c, 8, 64, 24
10, 277080, Note_on_c, 8, 72, 24
10, 277176, Note_off_c, 8, 72, 64
10, 277176, Note_off_c, 8, 64, 64
10, 277200, Note_on_c, 8, 72, 24
10, 277200, Note_on_c, 8, 64, 24
10, 277296, Note_off_c, 8, 64, 64
10, 277296, Note_off_c, 8, 72, 64
10, 277320, Note_on_c, 8, 64, 24
10, 277320, Note_on_c, 8, 72, 24
10, 277416, Note_off_c, 8, 72, 64
10, 277416, Note_off_c, 8, 64, 64
10, 277440, Note_on_c, 8, 72, 24
10, 277440, Note_on_c, 8, 64, 24
10, 277536, Note_off_c, 8, 64, 64
10, 277536, Note_off_c, 8, 72, 64
10, 277560, Note_on_c, 8, 72, 24
10, 277560, Note_on_c, 8, 64, 24
10, 277656, Note_off_c, 8, 64, 64
10, 277656, Note_off_c, 8, 72, 64
10, 277680, Note_on_c, 8, 64, 24
10, 277680, Note_on_c, 8, 72, 24
10, 277776, Note_off_c, 8, 72, 64
10, 277776, Note_off_c, 8, 64, 64
10, 277800, Note_on_c, 8, 72, 24
10, 277800, Note_on_c, 8, 64, 24
10, 277896, Note_off_c, 8, 64, 64
10, 277896, Note_off_c, 8, 72, 64
10, 277920, Note_on_c, 8, 64, 24
10, 277920, Note_on_c, 8, 72, 24
10, 278016, Note_off_c, 8, 72, 64
10, 278016, Note_off_c, 8, 64, 64
10, 278040, Note_on_c, 8, 64, 24
10, 278040, Note_on_c, 8, 72, 24
10, 278040, Note_on_c, 8, 64, 24
10, 278136, Note_off_c, 8, 64, 64
10, 278136, Note_off_c, 8, 72, 64
10, 278136, Note_off_c, 8, 64, 64
10, 278160, Note_on_c, 8, 64, 24
10, 278160, Note_on_c, 8, 72, 24
10, 278256, Note_off_c, 8, 72, 64
10, 278256, Note_off_c, 8, 64, 64
10, 278280, Note_on_c, 8, 64, 24
10, 278280, Note_on_c, 8, 72, 24
10, 278376, Note_off_c, 8, 72, 64
10, 278376, Note_off_c, 8, 64, 64
10, 278400, Note_on_c, 8, 72, 24
10, 278400, Note_on_c, 8, 64, 24
10, 278496, Note_off_c, 8, 64, 64
10, 278496, Note_off_c, 8, 72, 64
10, 278520, Note_on_c, 8, 64, 24
10, 278520, Note_on_c, 8, 72, 24
10, 278616, Note_off_c, 8, 72, 64
10, 278616, Note_off_c, 8, 64, 64
10, 278640, Note_on_c, 8, 66, 24
10, 278640, Note_on_c, 8, 72, 24
10, 278736, Note_off_c, 8, 72, 64
10, 278736, Note_off_c, 8, 66, 64
10, 278760, Note_on_c, 8, 66, 24
10, 278760, Note_on_c, 8, 72, 24
10, 278856, Note_off_c, 8, 72, 64
10, 278856, Note_off_c, 8, 66, 64
10, 278880, Note_on_c, 8, 66, 24
10, 278880, Note_on_c, 8, 72, 24
10, 278976, Note_off_c, 8, 72, 64
10, 278976, Note_off_c, 8, 66, 64
10, 279000, Note_on_c, 8, 66, 24
10, 279000, Note_on_c, 8, 72, 24
10, 279096, Note_off_c, 8, 72, 64
10, 279096, Note_off_c, 8, 66, 64
10, 279120, Note_on_c, 8, 66, 24
10, 279120, Note_on_c, 8, 72, 24
10, 279216, Note_off_c, 8, 72, 64
10, 279216, Note_off_c, 8, 66, 64
10, 279240, Note_on_c, 8, 72, 24
10, 279240, Note_on_c, 8, 66, 24
10, 279336, Note_off_c, 8, 66, 64
10, 279336, Note_off_c, 8, 72, 64
10, 279360, Note_on_c, 8, 72, 24
10, 279360, Note_on_c, 8, 66, 24
10, 279456, Note_off_c, 8, 66, 64
10, 279456, Note_off_c, 8, 72, 64
10, 279480, Note_on_c, 8, 66, 24
10, 279480, Note_on_c, 8, 72, 24
10, 279576, Note_off_c, 8, 72, 64
10, 279576, Note_off_c, 8, 66, 64
10, 279600, Note_on_c, 8, 74, 24
10, 279600, Note_on_c, 8, 66, 24
10, 279696, Note_off_c, 8, 66, 64
10, 279696, Note_off_c, 8, 74, 64
10, 279720, Note_on_c, 8, 74, 24
10, 279720, Note_on_c, 8, 66, 24
10, 279816, Note_off_c, 8, 66, 64
10, 279816, Note_off_c, 8, 74, 64
10, 279840, Note_on_c, 8, 66, 24
10, 279840, Note_on_c, 8, 74, 24
10, 279936, Note_off_c, 8, 74, 64
10, 279936, Note_off_c, 8, 66, 64
10, 279960, Note_on_c, 8, 66, 24
10, 279960, Note_on_c, 8, 74, 24
10, 280056, Note_off_c, 8, 74, 64
10, 280056, Note_off_c, 8, 66, 64
10, 280080, Note_on_c, 8, 74, 24
10, 280080, Note_on_c, 8, 66, 24
10, 280176, Note_off_c, 8, 66, 64
10, 280176, Note_off_c, 8, 74, 64
10, 280200, Note_on_c, 8, 74, 24
10, 280200, Note_on_c, 8, 66, 24
10, 280296, Note_off_c, 8, 66, 64
10, 280296, Note_off_c, 8, 74, 64
10, 280320, Note_on_c, 8, 66, 24
10, 280320, Note_on_c, 8, 74, 24
10, 280416, Note_off_c, 8, 74, 64
10, 280416, Note_off_c, 8, 66, 64
10, 280440, Note_on_c, 8, 74, 24
10, 280440, Note_on_c, 8, 66, 24
10, 280536, Note_off_c, 8, 66, 64
10, 280536, Note_off_c, 8, 74, 64
10, 280560, Note_on_c, 8, 66, 24
10, 280560, Note_on_c, 8, 74, 24
10, 280656, Note_off_c, 8, 74, 64
10, 280656, Note_off_c, 8, 66, 64
10, 280680, Note_on_c, 8, 74, 24
10, 280680, Note_on_c, 8, 66, 24
10, 280776, Note_off_c, 8, 66, 64
10, 280776, Note_off_c, 8, 74, 64
10, 280800, Note_on_c, 8, 66, 24
10, 280800, Note_on_c, 8, 74, 24
10, 280896, Note_off_c, 8, 74, 64
10, 280896, Note_off_c, 8, 66, 64
10, 280920, Note_on_c, 8, 74, 24
10, 280920, Note_on_c, 8, 66, 24
10, 281016, Note_off_c, 8, 66, 64
10, 281016, Note_off_c, 8, 74, 64
10, 281040, Note_on_c, 8, 74, 24
10, 281040, Note_on_c, 8, 66, 24
10, 281136, Note_off_c, 8, 66, 64
10, 281136, Note_off_c, 8, 74, 64
10, 281160, Note_on_c, 8, 66, 24
10, 281160, Note_on_c, 8, 74, 24
10, 281256, Note_off_c, 8, 74, 64
10, 281256, Note_off_c, 8, 66, 64
10, 281280, Note_on_c, 8, 74, 24
10, 281280, Note_on_c, 8, 66, 24
10, 281376, Note_off_c, 8, 66, 64
10, 281376, Note_off_c, 8, 74, 64
10, 281400, Note_on_c, 8, 66, 24
10, 281400, Note_on_c, 8, 74, 24
10, 281496, Note_off_c, 8, 74, 64
10, 281496, Note_off_c, 8, 66, 64
10, 281520, Note_on_c, 8, 74, 24
10, 281520, Note_on_c, 8, 67, 24
10, 281616, Note_off_c, 8, 67, 64
10, 281616, Note_off_c, 8, 74, 64
10, 281640, Note_on_c, 8, 74, 24
10, 281640, Note_on_c, 8, 67, 24
10, 281736, Note_off_c, 8, 67, 64
10, 281736, Note_off_c, 8, 74, 64
10, 281760, Note_on_c, 8, 67, 24
10, 281760, Note_on_c, 8, 74, 24
10, 281856, Note_off_c, 8, 74, 64
10, 281856, Note_off_c, 8, 67, 64
10, 281880, Note_on_c, 8, 74, 24
10, 281880, Note_on_c, 8, 67, 24
10, 281976, Note_off_c, 8, 67, 64
10, 281976, Note_off_c, 8, 74, 64
10, 282000, Note_on_c, 8, 74, 24
10, 282000, Note_on_c, 8, 67, 24
10, 282096, Note_off_c, 8, 67, 64
10, 282096, Note_off_c, 8, 74, 64
10, 282120, Note_on_c, 8, 67, 24
10, 282120, Note_on_c, 8, 74, 24
10, 282216, Note_off_c, 8, 74, 64
10, 282216, Note_off_c, 8, 67, 64
10, 282240, Note_on_c, 8, 74, 24
10, 282240, Note_on_c, 8, 67, 24
10, 282336, Note_off_c, 8, 67, 64
10, 282336, Note_off_c, 8, 74, 64
10, 282360, Note_on_c, 8, 67, 24
10, 282360, Note_on_c, 8, 74, 24
10, 282456, Note_off_c, 8, 74, 64
10, 282456, Note_off_c, 8, 67, 64
10, 282480, Note_on_c, 8, 74, 40
10, 282480, Note_on_c, 8, 67, 40
10, 282576, Note_off_c, 8, 67, 64
10, 282576, Note_off_c, 8, 74, 64
10, 282600, Note_on_c, 8, 67, 40
10, 282600, Note_on_c, 8, 74, 40
10, 282696, Note_off_c, 8, 74, 64
10, 282696, Note_off_c, 8, 67, 64
10, 282720, Note_on_c, 8, 67, 40
10, 282720, Note_on_c, 8, 74, 40
10, 282816, Note_off_c, 8, 74, 64
10, 282816, Note_off_c, 8, 67, 64
10, 282840, Note_on_c, 8, 74, 40
10, 282840, Note_on_c, 8, 67, 40
10, 282936, Note_off_c, 8, 67, 64
10, 282936, Note_off_c, 8, 74, 64
10, 282960, Note_on_c, 8, 74, 40
10, 282960, Note_on_c, 8, 67, 40
10, 283056, Note_off_c, 8, 67, 64
10, 283056, Note_off_c, 8, 74, 64
10, 283080, Note_on_c, 8, 67, 40
10, 283080, Note_on_c, 8, 74, 40
10, 283176, Note_off_c, 8, 74, 64
10, 283176, Note_off_c, 8, 67, 64
10, 283200, Note_on_c, 8, 67, 40
10, 283200, Note_on_c, 8, 74, 40
10, 283296, Note_off_c, 8, 74, 64
10, 283296, Note_off_c, 8, 67, 64
10, 283320, Note_on_c, 8, 67, 40
10, 283320, Note_on_c, 8, 74, 40
10, 283416, Note_off_c, 8, 74, 64
10, 283416, Note_off_c, 8, 67, 64
10, 283440, Note_on_c, 8, 74, 40
10, 283440, Note_on_c, 8, 67, 40
10, 283536, Note_off_c, 8, 67, 64
10, 283536, Note_off_c, 8, 74, 64
10, 283560, Note_on_c, 8, 67, 40
10, 283560, Note_on_c, 8, 74, 40
10, 283656, Note_off_c, 8, 74, 64
10, 283656, Note_off_c, 8, 67, 64
10, 283680, Note_on_c, 8, 67, 40
10, 283680, Note_on_c, 8, 74, 40
10, 283776, Note_off_c, 8, 74, 64
10, 283776, Note_off_c, 8, 67, 64
10, 283800, Note_on_c, 8, 67, 40
10, 283800, Note_on_c, 8, 74, 40
10, 283896, Note_off_c, 8, 74, 64
10, 283896, Note_off_c, 8, 67, 64
10, 283920, Note_on_c, 8, 74, 40
10, 283920, Note_on_c, 8, 67, 40
10, 284016, Note_off_c, 8, 67, 64
10, 284016, Note_off_c, 8, 74, 64
10, 284040, Note_on_c, 8, 74, 40
10, 284040, Note_on_c, 8, 67, 40
10, 284136, Note_off_c, 8, 67, 64
10, 284136, Note_off_c, 8, 74, 64
10, 284160, Note_on_c, 8, 67, 40
10, 284160, Note_on_c, 8, 74, 40
10, 284256, Note_off_c, 8, 74, 64
10, 284256, Note_off_c, 8, 67, 64
10, 284280, Note_on_c, 8, 67, 40
10, 284280, Note_on_c, 8, 74, 40
10, 284376, Note_off_c, 8, 74, 64
10, 284376, Note_off_c, 8, 67, 64
10, 284400, Note_on_c, 8, 76, 40
10, 284400, Note_on_c, 8, 67, 40
10, 284496, Note_off_c, 8, 67, 64
10, 284496, Note_off_c, 8, 76, 64
10, 284520, Note_on_c, 8, 76, 40
10, 284520, Note_on_c, 8, 67, 40
10, 284616, Note_off_c, 8, 67, 64
10, 284616, Note_off_c, 8, 76, 64
10, 284640, Note_on_c, 8, 76, 40
10, 284640, Note_on_c, 8, 67, 40
10, 284736, Note_off_c, 8, 67, 64
10, 284736, Note_off_c, 8, 76, 64
10, 284760, Note_on_c, 8, 67, 40
10, 284760, Note_on_c, 8, 76, 40
10, 284856, Note_off_c, 8, 76, 64
10, 284856, Note_off_c, 8, 67, 64
10, 284880, Note_on_c, 8, 67, 40
10, 284880, Note_on_c, 8, 76, 40
10, 284976, Note_off_c, 8, 76, 64
10, 284976, Note_off_c, 8, 67, 64
10, 285000, Note_on_c, 8, 76, 40
10, 285000, Note_on_c, 8, 67, 40
10, 285096, Note_off_c, 8, 67, 64
10, 285096, Note_off_c, 8, 76, 64
10, 285120, Note_on_c, 8, 76, 40
10, 285120, Note_on_c, 8, 67, 40
10, 285216, Note_off_c, 8, 67, 64
10, 285216, Note_off_c, 8, 76, 64
10, 285240, Note_on_c, 8, 76, 40
10, 285240, Note_on_c, 8, 67, 40
10, 285336, Note_off_c, 8, 67, 64
10, 285336, Note_off_c, 8, 76, 64
10, 285360, Note_on_c, 8, 76, 40
10, 285360, Note_on_c, 8, 67, 40
10, 285456, Note_off_c, 8, 67, 64
10, 285456, Note_off_c, 8, 76, 64
10, 285480, Note_on_c, 8, 76, 40
10, 285480, Note_on_c, 8, 67, 40
10, 285576, Note_off_c, 8, 67, 64
10, 285576, Note_off_c, 8, 76, 64
10, 285600, Note_on_c, 8, 67, 40
10, 285600, Note_on_c, 8, 76, 40
10, 285696, Note_off_c, 8, 76, 64
10, 285696, Note_off_c, 8, 67, 64
10, 285720, Note_on_c, 8, 76, 40
10, 285720, Note_on_c, 8, 67, 40
10, 285816, Note_off_c, 8, 67, 64
10, 285816, Note_off_c, 8, 76, 64
10, 285840, Note_on_c, 8, 67, 40
10, 285840, Note_on_c, 8, 76, 40
10, 285936, Note_off_c, 8, 76, 64
10, 285936, Note_off_c, 8, 67, 64
10, 285960, Note_on_c, 8, 67, 40
10, 285960, Note_on_c, 8, 76, 40
10, 286056, Note_off_c, 8, 76, 64
10, 286056, Note_off_c, 8, 67, 64
10, 286080, Note_on_c, 8, 67, 40
10, 286080, Note_on_c, 8, 76, 40
10, 286176, Note_off_c, 8, 76, 64
10, 286176, Note_off_c, 8, 67, 64
10, 286200, Note_on_c, 8, 67, 40
10, 286200, Note_on_c, 8, 76, 40
10, 286296, Note_off_c, 8, 76, 64
10, 286296, Note_off_c, 8, 67, 64
10, 286320, Note_on_c, 8, 76, 40
10, 286320, Note_on_c, 8, 69, 40
10, 286416, Note_off_c, 8, 69, 64
10, 286416, Note_off_c, 8, 76, 64
10, 286440, Note_on_c, 8, 76, 40
10, 286440, Note_on_c, 8, 69, 40
10, 286536, Note_off_c, 8, 69, 64
10, 286536, Note_off_c, 8, 76, 64
10, 286560, Note_on_c, 8, 76, 40
10, 286560, Note_on_c, 8, 69, 40
10, 286656, Note_off_c, 8, 69, 64
10, 286656, Note_off_c, 8, 76, 64
10, 286680, Note_on_c, 8, 69, 40
10, 286680, Note_on_c, 8, 76, 40
10, 286776, Note_off_c, 8, 76, 64
10, 286776, Note_off_c, 8, 69, 64
10, 286800, Note_on_c, 8, 76, 40
10, 286800, Note_on_c, 8, 69, 40
10, 286896, Note_off_c, 8, 69, 64
10, 286896, Note_off_c, 8, 76, 64
10, 286920, Note_on_c, 8, 76, 40
10, 286920, Note_on_c, 8, 69, 40
10, 287016, Note_off_c, 8, 69, 64
10, 287016, Note_off_c, 8, 76, 64
10, 287040, Note_on_c, 8, 76, 40
10, 287040, Note_on_c, 8, 69, 40
10, 287136, Note_off_c, 8, 69, 64
10, 287136, Note_off_c, 8, 76, 64
10, 287160, Note_on_c, 8, 76, 40
10, 287160, Note_on_c, 8, 69, 40
10, 287256, Note_off_c, 8, 69, 64
10, 287256, Note_off_c, 8, 76, 64
10, 287280, Note_on_c, 8, 76, 40
10, 287280, Note_on_c, 8, 69, 40
10, 287376, Note_off_c, 8, 69, 64
10, 287376, Note_off_c, 8, 76, 64
10, 287400, Note_on_c, 8, 76, 40
10, 287400, Note_on_c, 8, 69, 40
10, 287496, Note_off_c, 8, 69, 64
10, 287496, Note_off_c, 8, 76, 64
10, 287520, Note_on_c, 8, 69, 40
10, 287520, Note_on_c, 8, 76, 40
10, 287616, Note_off_c, 8, 76, 64
10, 287616, Note_off_c, 8, 69, 64
10, 287640, Note_on_c, 8, 76, 40
10, 287640, Note_on_c, 8, 69, 40
10, 287736, Note_off_c, 8, 69, 64
10, 287736, Note_off_c, 8, 76, 64
10, 287760, Note_on_c, 8, 69, 40
10, 287760, Note_on_c, 8, 76, 40
10, 287856, Note_off_c, 8, 76, 64
10, 287856, Note_off_c, 8, 69, 64
10, 287880, Note_on_c, 8, 69, 40
10, 287880, Note_on_c, 8, 76, 40
10, 287976, Note_off_c, 8, 76, 64
10, 287976, Note_off_c, 8, 69, 64
10, 288000, Note_on_c, 8, 69, 40
10, 288000, Note_on_c, 8, 76, 40
10, 288096, Note_off_c, 8, 76, 64
10, 288096, Note_off_c, 8, 69, 64
10, 288120, Note_on_c, 8, 69, 40
10, 288120, Note_on_c, 8, 76, 40
10, 288216, Note_off_c, 8, 76, 64
10, 288216, Note_off_c, 8, 69, 64
10, 288240, Note_on_c, 8, 75, 30
10, 288336, Note_off_c, 8, 75, 64
10, 288360, Note_on_c, 8, 75, 31
10, 288456, Note_off_c, 8, 75, 64
10, 288480, Note_on_c, 8, 78, 32
10, 288576, Note_off_c, 8, 78, 64
10, 288600, Note_on_c, 8, 76, 33
10, 288696, Note_off_c, 8, 76, 64
10, 288720, Note_on_c, 8, 75, 34
10, 288816, Note_off_c, 8, 75, 64
10, 288840, Note_on_c, 8, 75, 35
10, 288936, Note_off_c, 8, 75, 64
10, 288960, Note_on_c, 8, 75, 36
10, 289056, Note_off_c, 8, 75, 64
10, 289080, Note_on_c, 8, 75, 37
10, 289176, Note_off_c, 8, 75, 64
10, 289200, Note_on_c, 8, 76, 38
10, 289296, Note_off_c, 8, 76, 64
10, 289320, Note_on_c, 8, 76, 38
10, 289416, Note_off_c, 8, 76, 64
10, 289440, Note_on_c, 8, 76, 39
10, 289536, Note_off_c, 8, 76, 64
10, 289560, Note_on_c, 8, 75, 40
10, 289656, Note_off_c, 8, 75, 64
10, 289680, Note_on_c, 8, 76, 41
10, 289776, Note_off_c, 8, 76, 64
10, 289800, Note_on_c, 8, 76, 42
10, 289896, Note_off_c, 8, 76, 64
10, 289920, Note_on_c, 8, 76, 43
10, 290016, Note_off_c, 8, 76, 64
10, 290040, Note_on_c, 8, 76, 44
10, 290136, Note_off_c, 8, 76, 64
10, 290160, Note_on_c, 8, 75, 45
10, 290256, Note_off_c, 8, 75, 64
10, 290280, Note_on_c, 8, 75, 46
10, 290376, Note_off_c, 8, 75, 64
10, 290400, Note_on_c, 8, 75, 47
10, 290496, Note_off_c, 8, 75, 64
10, 290520, Note_on_c, 8, 76, 48
10, 290616, Note_off_c, 8, 76, 64
10, 290640, Note_on_c, 8, 75, 49
10, 290736, Note_off_c, 8, 75, 64
10, 290760, Note_on_c, 8, 75, 50
10, 290856, Note_off_c, 8, 75, 64
10, 290880, Note_on_c, 8, 75, 51
10, 290976, Note_off_c, 8, 75, 64
10, 291000, Note_on_c, 8, 75, 52
10, 291096, Note_off_c, 8, 75, 64
10, 291120, Note_on_c, 8, 71, 53
10, 291888, Note_off_c, 8, 71, 64
10, 292080, Note_on_c, 8, 67, 84
10, 292320, Note_off_c, 8, 67, 64
10, 292320, Note_on_c, 8, 69, 87
10, 292440, Note_off_c, 8, 69, 64
10, 292440, Note_on_c, 8, 71, 88
10, 292560, Note_off_c, 8, 71, 64
10, 292560, Note_on_c, 8, 72, 90
10, 292656, Note_off_c, 8, 72, 64
10, 292800, Note_on_c, 8, 72, 92
10, 292896, Note_off_c, 8, 72, 64
10, 293040, Note_on_c, 8, 66, 95
10, 293280, Note_off_c, 8, 66, 64
10, 293280, Note_on_c, 8, 67, 97
10, 293400, Note_off_c, 8, 67, 64
10, 293400, Note_on_c, 8, 69, 98
10, 293520, Note_off_c, 8, 69, 64
10, 293520, Note_on_c, 8, 71, 99
10, 293616, Note_off_c, 8, 71, 64
10, 293760, Note_on_c, 8, 71, 102
10, 293856, Note_off_c, 8, 71, 64
10, 294000, Note_on_c, 8, 67, 94
10, 294096, Note_off_c, 8, 67, 64
10, 294120, Note_on_c, 8, 64, 95
10, 294216, Note_off_c, 8, 64, 64
10, 294240, Note_on_c, 8, 64, 96
10, 294336, Note_off_c, 8, 64, 64
10, 294360, Note_on_c, 8, 64, 98
10, 294456, Note_off_c, 8, 64, 64
10, 294480, Note_on_c, 8, 64, 99
10, 294576, Note_off_c, 8, 64, 64
10, 294600, Note_on_c, 8, 64, 100
10, 294696, Note_off_c, 8, 64, 64
10, 294720, Note_on_c, 8, 64, 101
10, 294816, Note_off_c, 8, 64, 64
10, 294840, Note_on_c, 8, 64, 103
10, 294936, Note_off_c, 8, 64, 64
10, 294960, Note_on_c, 8, 64, 104
10, 295056, Note_off_c, 8, 64, 64
10, 295080, Note_on_c, 8, 76, 104
10, 295176, Note_off_c, 8, 76, 64
10, 295200, Note_on_c, 8, 76, 105
10, 295296, Note_off_c, 8, 76, 64
10, 295320, Note_on_c, 8, 76, 106
10, 295416, Note_off_c, 8, 76, 64
10, 295440, Note_on_c, 8, 75, 108
10, 295536, Note_off_c, 8, 75, 64
10, 295560, Note_on_c, 8, 75, 109
10, 295656, Note_off_c, 8, 75, 64
10, 295680, Note_on_c, 8, 75, 110
10, 295776, Note_off_c, 8, 75, 64
10, 295800, Note_on_c, 8, 75, 111
10, 295896, Note_off_c, 8, 75, 64
10, 295920, Note_on_c, 8, 76, 127
10, 296016, Note_off_c, 8, 76, 64
10, 296040, Note_on_c, 8, 76, 127
10, 296136, Note_off_c, 8, 76, 64
10, 296160, Note_on_c, 8, 76, 127
10, 296256, Note_off_c, 8, 76, 64
10, 296280, Note_on_c, 8, 76, 127
10, 296376, Note_off_c, 8, 76, 64
10, 296400, Note_on_c, 8, 76, 127
10, 296496, Note_off_c, 8, 76, 64
10, 296520, Note_on_c, 8, 76, 127
10, 296616, Note_off_c, 8, 76, 64
10, 296640, Note_on_c, 8, 76, 127
10, 296736, Note_off_c, 8, 76, 64
10, 296760, Note_on_c, 8, 76, 127
10, 296856, Note_off_c, 8, 76, 64
10, 296880, Note_on_c, 8, 76, 127
10, 296976, Note_off_c, 8, 76, 64
10, 297000, Note_on_c, 8, 76, 127
10, 297096, Note_off_c, 8, 76, 64
10, 297120, Note_on_c, 8, 76, 127
10, 297216, Note_off_c, 8, 76, 64
10, 297240, Note_on_c, 8, 76, 127
10, 297336, Note_off_c, 8, 76, 64
10, 297360, Note_on_c, 8, 74, 127
10, 297456, Note_off_c, 8, 74, 64
10, 297480, Note_on_c, 8, 74, 127
10, 297576, Note_off_c, 8, 74, 64
10, 297600, Note_on_c, 8, 74, 127
10, 297696, Note_off_c, 8, 74, 64
10, 297720, Note_on_c, 8, 74, 127
10, 297816, Note_off_c, 8, 74, 64
10, 297840, Note_on_c, 8, 74, 127
10, 297936, Note_off_c, 8, 74, 64
10, 297960, Note_on_c, 8, 74, 127
10, 298056, Note_off_c, 8, 74, 64
10, 298080, Note_on_c, 8, 74, 127
10, 298176, Note_off_c, 8, 74, 64
10, 298200, Note_on_c, 8, 74, 127
10, 298296, Note_off_c, 8, 74, 64
10, 298320, Note_on_c, 8, 72, 127
10, 298416, Note_off_c, 8, 72, 64
10, 298440, Note_on_c, 8, 72, 127
10, 298536, Note_off_c, 8, 72, 64
10, 298560, Note_on_c, 8, 72, 127
10, 298656, Note_off_c, 8, 72, 64
10, 298680, Note_on_c, 8, 72, 127
10, 298776, Note_off_c, 8, 72, 64
10, 298800, Note_on_c, 8, 72, 127
10, 298896, Note_off_c, 8, 72, 64
10, 298920, Note_on_c, 8, 72, 127
10, 299016, Note_off_c, 8, 72, 64
10, 299040, Note_on_c, 8, 72, 127
10, 299136, Note_off_c, 8, 72, 64
10, 299160, Note_on_c, 8, 72, 127
10, 299256, Note_off_c, 8, 72, 64
10, 299280, Note_on_c, 8, 71, 127
10, 299376, Note_off_c, 8, 71, 64
10, 299400, Note_on_c, 8, 71, 127
10, 299496, Note_off_c, 8, 71, 64
10, 299520, Note_on_c, 8, 71, 127
10, 299616, Note_off_c, 8, 71, 64
10, 299640, Note_on_c, 8, 71, 127
10, 299736, Note_off_c, 8, 71, 64
10, 299760, Note_on_c, 8, 71, 127
10, 299856, Note_off_c, 8, 71, 64
10, 299880, Note_on_c, 8, 71, 127
10, 299976, Note_off_c, 8, 71, 64
10, 300000, Note_on_c, 8, 71, 127
10, 300096, Note_off_c, 8, 71, 64
10, 300120, Note_on_c, 8, 71, 127
10, 300216, Note_off_c, 8, 71, 64
10, 300240, Note_on_c, 8, 69, 127
10, 300336, Note_off_c, 8, 69, 64
10, 300360, Note_on_c, 8, 69, 127
10, 300456, Note_off_c, 8, 69, 64
10, 300480, Note_on_c, 8, 69, 127
10, 300576, Note_off_c, 8, 69, 64
10, 300600, Note_on_c, 8, 69, 127
10, 300696, Note_off_c, 8, 69, 64
10, 300720, Note_on_c, 8, 69, 127
10, 300816, Note_off_c, 8, 69, 64
10, 300840, Note_on_c, 8, 63, 127
10, 300936, Note_off_c, 8, 63, 64
10, 300960, Note_on_c, 8, 64, 127
10, 301056, Note_off_c, 8, 64, 64
10, 301080, Note_on_c, 8, 66, 127
10, 301176, Note_off_c, 8, 66, 64
10, 301200, Note_on_c, 8, 67, 127
10, 301296, Note_off_c, 8, 67, 64
10, 301320, Note_on_c, 8, 67, 127
10, 301416, Note_off_c, 8, 67, 64
10, 301440, Note_on_c, 8, 69, 127
10, 301536, Note_off_c, 8, 69, 64
10, 301560, Note_on_c, 8, 71, 127
10, 301656, Note_off_c, 8, 71, 64
10, 301680, Note_on_c, 8, 71, 99
10, 301776, Note_off_c, 8, 71, 64
10, 301800, Note_on_c, 8, 71, 99
10, 301896, Note_off_c, 8, 71, 64
10, 301920, Note_on_c, 8, 73, 99
10, 302016, Note_off_c, 8, 73, 64
10, 302040, Note_on_c, 8, 75, 99
10, 302136, Note_off_c, 8, 75, 64
10, 302160, Note_on_c, 8, 76, 99
10, 302256, Note_off_c, 8, 76, 64
10, 302280, Note_on_c, 8, 76, 99
10, 302376, Note_off_c, 8, 76, 64
10, 302400, Note_on_c, 8, 78, 99
10, 302496, Note_off_c, 8, 78, 64
10, 302520, Note_on_c, 8, 79, 99
10, 302616, Note_off_c, 8, 79, 64
10, 302640, Note_on_c, 8, 81, 99
10, 302736, Note_off_c, 8, 81, 64
10, 302760, Note_on_c, 8, 81, 99
10, 302856, Note_off_c, 8, 81, 64
10, 302880, Note_on_c, 8, 81, 99
10, 302976, Note_off_c, 8, 81, 64
10, 303000, Note_on_c, 8, 81, 99
10, 303096, Note_off_c, 8, 81, 64
10, 303120, Note_on_c, 8, 79, 99
10, 303216, Note_off_c, 8, 79, 64
10, 303240, Note_on_c, 8, 79, 99
10, 303336, Note_off_c, 8, 79, 64
10, 303360, Note_on_c, 8, 79, 99
10, 303456, Note_off_c, 8, 79, 64
10, 303480, Note_on_c, 8, 79, 99
10, 303576, Note_off_c, 8, 79, 64
10, 303600, Note_on_c, 8, 78, 99
10, 303696, Note_off_c, 8, 78, 64
10, 303720, Note_on_c, 8, 78, 99
10, 303816, Note_off_c, 8, 78, 64
10, 303840, Note_on_c, 8, 78, 99
10, 303936, Note_off_c, 8, 78, 64
10, 303960, Note_on_c, 8, 78, 99
10, 304056, Note_off_c, 8, 78, 64
10, 304080, Note_on_c, 8, 76, 99
10, 304176, Note_off_c, 8, 76, 64
10, 304200, Note_on_c, 8, 76, 99
10, 304296, Note_off_c, 8, 76, 64
10, 304320, Note_on_c, 8, 76, 99
10, 304416, Note_off_c, 8, 76, 64
10, 304440, Note_on_c, 8, 76, 99
10, 304536, Note_off_c, 8, 76, 64
10, 304560, Note_on_c, 8, 71, 99
10, 304656, Note_off_c, 8, 71, 64
10, 304680, Note_on_c, 8, 71, 99
10, 304776, Note_off_c, 8, 71, 64
10, 304800, Note_on_c, 8, 73, 99
10, 304896, Note_off_c, 8, 73, 64
10, 304920, Note_on_c, 8, 75, 99
10, 305016, Note_off_c, 8, 75, 64
10, 305040, Note_on_c, 8, 76, 99
10, 305136, Note_off_c, 8, 76, 64
10, 305160, Note_on_c, 8, 76, 99
10, 305256, Note_off_c, 8, 76, 64
10, 305280, Note_on_c, 8, 78, 99
10, 305376, Note_off_c, 8, 78, 64
10, 305400, Note_on_c, 8, 79, 99
10, 305496, Note_off_c, 8, 79, 64
10, 305520, Note_on_c, 8, 81, 99
10, 305616, Note_off_c, 8, 81, 64
10, 305640, Note_on_c, 8, 81, 99
10, 305736, Note_off_c, 8, 81, 64
10, 305760, Note_on_c, 8, 81, 99
10, 305856, Note_off_c, 8, 81, 64
10, 305880, Note_on_c, 8, 81, 99
10, 305976, Note_off_c, 8, 81, 64
10, 306000, Note_on_c, 8, 79, 99
10, 306096, Note_off_c, 8, 79, 64
10, 306120, Note_on_c, 8, 79, 99
10, 306216, Note_off_c, 8, 79, 64
10, 306240, Note_on_c, 8, 79, 99
10, 306336, Note_off_c, 8, 79, 64
10, 306360, Note_on_c, 8, 79, 99
10, 306456, Note_off_c, 8, 79, 64
10, 306480, Note_on_c, 8, 79, 99
10, 306576, Note_off_c, 8, 79, 64
10, 306600, Note_on_c, 8, 79, 99
10, 306696, Note_off_c, 8, 79, 64
10, 306720, Note_on_c, 8, 79, 99
10, 306816, Note_off_c, 8, 79, 64
10, 306840, Note_on_c, 8, 79, 99
10, 306936, Note_off_c, 8, 79, 64
10, 306960, Note_on_c, 8, 79, 99
10, 307056, Note_off_c, 8, 79, 64
10, 307080, Note_on_c, 8, 79, 99
10, 307176, Note_off_c, 8, 79, 64
10, 307200, Note_on_c, 8, 79, 99
10, 307296, Note_off_c, 8, 79, 64
10, 307320, Note_on_c, 8, 79, 99
10, 307416, Note_off_c, 8, 79, 64
10, 307440, Note_on_c, 8, 79, 80
10, 307536, Note_off_c, 8, 79, 64
10, 307560, Note_on_c, 8, 79, 80
10, 307656, Note_off_c, 8, 79, 64
10, 307680, Note_on_c, 8, 79, 127
10, 307680, Note_on_c, 8, 76, 99
10, 307776, Note_off_c, 8, 76, 64
10, 307776, Note_off_c, 8, 79, 64
10, 307800, Note_on_c, 8, 76, 99
10, 307800, Note_on_c, 8, 79, 99
10, 307896, Note_off_c, 8, 79, 64
10, 307896, Note_off_c, 8, 76, 64
10, 307920, Note_on_c, 8, 76, 99
10, 307920, Note_on_c, 8, 79, 99
10, 308016, Note_off_c, 8, 79, 64
10, 308016, Note_off_c, 8, 76, 64
10, 308040, Note_on_c, 8, 76, 99
10, 308040, Note_on_c, 8, 79, 99
10, 308136, Note_off_c, 8, 79, 64
10, 308136, Note_off_c, 8, 76, 64
10, 308160, Note_on_c, 8, 76, 99
10, 308160, Note_on_c, 8, 79, 99
10, 308256, Note_off_c, 8, 79, 64
10, 308256, Note_off_c, 8, 76, 64
10, 308280, Note_on_c, 8, 79, 99
10, 308280, Note_on_c, 8, 76, 99
10, 308376, Note_off_c, 8, 76, 64
10, 308376, Note_off_c, 8, 79, 64
10, 308400, Note_on_c, 8, 76, 99
10, 308400, Note_on_c, 8, 79, 99
10, 308496, Note_off_c, 8, 79, 64
10, 308496, Note_off_c, 8, 76, 64
10, 308520, Note_on_c, 8, 79, 99
10, 308520, Note_on_c, 8, 76, 99
10, 308616, Note_off_c, 8, 76, 64
10, 308616, Note_off_c, 8, 79, 64
10, 308640, Note_on_c, 8, 79, 99
10, 308640, Note_on_c, 8, 76, 99
10, 308736, Note_off_c, 8, 76, 64
10, 308736, Note_off_c, 8, 79, 64
10, 308760, Note_on_c, 8, 76, 99
10, 308760, Note_on_c, 8, 79, 99
10, 308856, Note_off_c, 8, 79, 64
10, 308856, Note_off_c, 8, 76, 64
10, 308880, Note_on_c, 8, 76, 99
10, 308880, Note_on_c, 8, 79, 99
10, 308976, Note_off_c, 8, 79, 64
10, 308976, Note_off_c, 8, 76, 64
10, 309000, Note_on_c, 8, 76, 99
10, 309000, Note_on_c, 8, 79, 99
10, 309096, Note_off_c, 8, 79, 64
10, 309096, Note_off_c, 8, 76, 64
10, 309120, Note_on_c, 8, 76, 99
10, 309120, Note_on_c, 8, 79, 99
10, 309216, Note_off_c, 8, 79, 64
10, 309216, Note_off_c, 8, 76, 64
10, 309240, Note_on_c, 8, 76, 99
10, 309240, Note_on_c, 8, 79, 99
10, 309336, Note_off_c, 8, 79, 64
10, 309336, Note_off_c, 8, 76, 64
10, 309360, Note_on_c, 8, 79, 99
10, 309360, Note_on_c, 8, 76, 99
10, 309456, Note_off_c, 8, 76, 64
10, 309456, Note_off_c, 8, 79, 64
10, 309480, Note_on_c, 8, 76, 99
10, 309480, Note_on_c, 8, 79, 99
10, 309576, Note_off_c, 8, 79, 64
10, 309576, Note_off_c, 8, 76, 64
10, 309600, Note_on_c, 8, 79, 127
10, 309600, Note_on_c, 8, 76, 99
10, 309696, Note_off_c, 8, 76, 64
10, 309696, Note_off_c, 8, 79, 64
10, 309720, Note_on_c, 8, 79, 99
10, 309720, Note_on_c, 8, 76, 99
10, 309816, Note_off_c, 8, 76, 64
10, 309816, Note_off_c, 8, 79, 64
10, 309840, Note_on_c, 8, 79, 99
10, 309840, Note_on_c, 8, 76, 99
10, 309936, Note_off_c, 8, 76, 64
10, 309936, Note_off_c, 8, 79, 64
10, 309960, Note_on_c, 8, 76, 99
10, 309960, Note_on_c, 8, 79, 99
10, 310056, Note_off_c, 8, 79, 64
10, 310056, Note_off_c, 8, 76, 64
10, 310080, Note_on_c, 8, 79, 99
10, 310080, Note_on_c, 8, 76, 99
10, 310176, Note_off_c, 8, 76, 64
10, 310176, Note_off_c, 8, 79, 64
10, 310200, Note_on_c, 8, 76, 99
10, 310200, Note_on_c, 8, 79, 99
10, 310296, Note_off_c, 8, 79, 64
10, 310296, Note_off_c, 8, 76, 64
10, 310320, Note_on_c, 8, 79, 99
10, 310320, Note_on_c, 8, 76, 99
10, 310416, Note_off_c, 8, 76, 64
10, 310416, Note_off_c, 8, 79, 64
10, 310440, Note_on_c, 8, 76, 99
10, 310440, Note_on_c, 8, 79, 99
10, 310536, Note_off_c, 8, 79, 64
10, 310536, Note_off_c, 8, 76, 64
10, 310560, Note_on_c, 8, 79, 99
10, 310560, Note_on_c, 8, 76, 99
10, 310656, Note_off_c, 8, 76, 64
10, 310656, Note_off_c, 8, 79, 64
10, 310680, Note_on_c, 8, 79, 99
10, 310680, Note_on_c, 8, 76, 99
10, 310776, Note_off_c, 8, 76, 64
10, 310776, Note_off_c, 8, 79, 64
10, 310800, Note_on_c, 8, 76, 99
10, 310800, Note_on_c, 8, 79, 99
10, 310896, Note_off_c, 8, 79, 64
10, 310896, Note_off_c, 8, 76, 64
10, 310920, Note_on_c, 8, 79, 99
10, 310920, Note_on_c, 8, 76, 99
10, 311016, Note_off_c, 8, 76, 64
10, 311016, Note_off_c, 8, 79, 64
10, 311040, Note_on_c, 8, 76, 99
10, 311040, Note_on_c, 8, 79, 99
10, 311136, Note_off_c, 8, 79, 64
10, 311136, Note_off_c, 8, 76, 64
10, 311160, Note_on_c, 8, 76, 99
10, 311160, Note_on_c, 8, 79, 99
10, 311256, Note_off_c, 8, 79, 64
10, 311256, Note_off_c, 8, 76, 64
10, 311280, Note_on_c, 8, 79, 99
10, 311280, Note_on_c, 8, 76, 99
10, 311376, Note_off_c, 8, 76, 64
10, 311376, Note_off_c, 8, 79, 64
10, 311400, Note_on_c, 8, 76, 99
10, 311400, Note_on_c, 8, 79, 99
10, 311496, Note_off_c, 8, 79, 64
10, 311496, Note_off_c, 8, 76, 64
10, 311520, Note_on_c, 8, 79, 127
10, 311520, Note_on_c, 8, 76, 99
10, 311616, Note_off_c, 8, 76, 64
10, 311616, Note_off_c, 8, 79, 64
10, 311640, Note_on_c, 8, 79, 99
10, 311640, Note_on_c, 8, 76, 99
10, 311736, Note_off_c, 8, 76, 64
10, 311736, Note_off_c, 8, 79, 64
10, 311760, Note_on_c, 8, 79, 99
10, 311760, Note_on_c, 8, 76, 99
10, 311856, Note_off_c, 8, 76, 64
10, 311856, Note_off_c, 8, 79, 64
10, 311880, Note_on_c, 8, 76, 99
10, 311880, Note_on_c, 8, 79, 99
10, 311976, Note_off_c, 8, 79, 64
10, 311976, Note_off_c, 8, 76, 64
10, 312000, Note_on_c, 8, 79, 99
10, 312000, Note_on_c, 8, 76, 99
10, 312096, Note_off_c, 8, 76, 64
10, 312096, Note_off_c, 8, 79, 64
10, 312120, Note_on_c, 8, 76, 99
10, 312120, Note_on_c, 8, 79, 99
10, 312216, Note_off_c, 8, 79, 64
10, 312216, Note_off_c, 8, 76, 64
10, 312240, Note_on_c, 8, 79, 99
10, 312240, Note_on_c, 8, 76, 99
10, 312336, Note_off_c, 8, 76, 64
10, 312336, Note_off_c, 8, 79, 64
10, 312360, Note_on_c, 8, 76, 99
10, 312360, Note_on_c, 8, 79, 99
10, 312456, Note_off_c, 8, 79, 64
10, 312456, Note_off_c, 8, 76, 64
10, 312480, Note_on_c, 8, 79, 99
10, 312480, Note_on_c, 8, 76, 99
10, 312576, Note_off_c, 8, 76, 64
10, 312576, Note_off_c, 8, 79, 64
10, 312600, Note_on_c, 8, 79, 99
10, 312600, Note_on_c, 8, 76, 99
10, 312696, Note_off_c, 8, 76, 64
10, 312696, Note_off_c, 8, 79, 64
10, 312720, Note_on_c, 8, 76, 99
10, 312720, Note_on_c, 8, 79, 99
10, 312816, Note_off_c, 8, 79, 64
10, 312816, Note_off_c, 8, 76, 64
10, 312840, Note_on_c, 8, 79, 99
10, 312840, Note_on_c, 8, 76, 99
10, 312936, Note_off_c, 8, 76, 64
10, 312936, Note_off_c, 8, 79, 64
10, 312960, Note_on_c, 8, 76, 99
10, 312960, Note_on_c, 8, 79, 99
10, 313056, Note_off_c, 8, 79, 64
10, 313056, Note_off_c, 8, 76, 64
10, 313080, Note_on_c, 8, 76, 99
10, 313080, Note_on_c, 8, 79, 99
10, 313176, Note_off_c, 8, 79, 64
10, 313176, Note_off_c, 8, 76, 64
10, 313200, Note_on_c, 8, 79, 99
10, 313200, Note_on_c, 8, 76, 99
10, 313296, Note_off_c, 8, 76, 64
10, 313296, Note_off_c, 8, 79, 64
10, 313320, Note_on_c, 8, 76, 99
10, 313320, Note_on_c, 8, 79, 99
10, 313416, Note_off_c, 8, 79, 64
10, 313416, Note_off_c, 8, 76, 64
10, 313440, Note_on_c, 8, 79, 127
10, 313440, Note_on_c, 8, 76, 99
10, 313536, Note_off_c, 8, 76, 64
10, 313536, Note_off_c, 8, 79, 64
10, 313560, Note_on_c, 8, 79, 99
10, 313560, Note_on_c, 8, 76, 99
10, 313656, Note_off_c, 8, 76, 64
10, 313656, Note_off_c, 8, 79, 64
10, 313680, Note_on_c, 8, 79, 99
10, 313680, Note_on_c, 8, 76, 99
10, 313776, Note_off_c, 8, 76, 64
10, 313776, Note_off_c, 8, 79, 64
10, 313800, Note_on_c, 8, 76, 99
10, 313800, Note_on_c, 8, 79, 99
10, 313896, Note_off_c, 8, 79, 64
10, 313896, Note_off_c, 8, 76, 64
10, 313920, Note_on_c, 8, 79, 99
10, 313920, Note_on_c, 8, 76, 99
10, 314016, Note_off_c, 8, 76, 64
10, 314016, Note_off_c, 8, 79, 64
10, 314040, Note_on_c, 8, 79, 99
10, 314040, Note_on_c, 8, 76, 99
10, 314136, Note_off_c, 8, 76, 64
10, 314136, Note_off_c, 8, 79, 64
10, 314160, Note_on_c, 8, 76, 99
10, 314160, Note_on_c, 8, 79, 99
10, 314256, Note_off_c, 8, 79, 64
10, 314256, Note_off_c, 8, 76, 64
10, 314280, Note_on_c, 8, 76, 99
10, 314280, Note_on_c, 8, 79, 99
10, 314376, Note_off_c, 8, 79, 64
10, 314376, Note_off_c, 8, 76, 64
10, 314400, Note_on_c, 8, 79, 99
10, 314400, Note_on_c, 8, 76, 99
10, 314496, Note_off_c, 8, 76, 64
10, 314496, Note_off_c, 8, 79, 64
10, 314520, Note_on_c, 8, 79, 99
10, 314520, Note_on_c, 8, 76, 99
10, 314616, Note_off_c, 8, 76, 64
10, 314616, Note_off_c, 8, 79, 64
10, 314640, Note_on_c, 8, 76, 99
10, 314640, Note_on_c, 8, 79, 99
10, 314736, Note_off_c, 8, 79, 64
10, 314736, Note_off_c, 8, 76, 64
10, 314760, Note_on_c, 8, 76, 99
10, 314760, Note_on_c, 8, 79, 99
10, 314856, Note_off_c, 8, 79, 64
10, 314856, Note_off_c, 8, 76, 64
10, 314880, Note_on_c, 8, 79, 99
10, 314880, Note_on_c, 8, 76, 99
10, 314976, Note_off_c, 8, 76, 64
10, 314976, Note_off_c, 8, 79, 64
10, 315000, Note_on_c, 8, 76, 99
10, 315000, Note_on_c, 8, 79, 99
10, 315096, Note_off_c, 8, 79, 64
10, 315096, Note_off_c, 8, 76, 64
10, 315120, Note_on_c, 8, 76, 99
10, 315120, Note_on_c, 8, 79, 99
10, 315216, Note_off_c, 8, 79, 64
10, 315216, Note_off_c, 8, 76, 64
10, 315240, Note_on_c, 8, 79, 99
10, 315240, Note_on_c, 8, 76, 99
10, 315336, Note_off_c, 8, 76, 64
10, 315336, Note_off_c, 8, 79, 64
10, 315360, Note_on_c, 8, 76, 99
10, 315360, Note_on_c, 8, 79, 127
10, 315456, Note_off_c, 8, 79, 64
10, 315456, Note_off_c, 8, 76, 64
10, 315480, Note_on_c, 8, 76, 99
10, 315480, Note_on_c, 8, 79, 99
10, 315576, Note_off_c, 8, 79, 64
10, 315576, Note_off_c, 8, 76, 64
10, 315600, Note_on_c, 8, 76, 99
10, 315600, Note_on_c, 8, 79, 99
10, 315696, Note_off_c, 8, 79, 64
10, 315696, Note_off_c, 8, 76, 64
10, 315720, Note_on_c, 8, 76, 99
10, 315720, Note_on_c, 8, 79, 99
10, 315816, Note_off_c, 8, 79, 64
10, 315816, Note_off_c, 8, 76, 64
10, 315840, Note_on_c, 8, 76, 99
10, 315840, Note_on_c, 8, 79, 99
10, 315936, Note_off_c, 8, 79, 64
10, 315936, Note_off_c, 8, 76, 64
10, 315960, Note_on_c, 8, 79, 99
10, 315960, Note_on_c, 8, 76, 99
10, 316056, Note_off_c, 8, 76, 64
10, 316056, Note_off_c, 8, 79, 64
10, 316080, Note_on_c, 8, 76, 99
10, 316080, Note_on_c, 8, 79, 99
10, 316176, Note_off_c, 8, 79, 64
10, 316176, Note_off_c, 8, 76, 64
10, 316200, Note_on_c, 8, 76, 99
10, 316200, Note_on_c, 8, 79, 99
10, 316296, Note_off_c, 8, 79, 64
10, 316296, Note_off_c, 8, 76, 64
10, 316320, Note_on_c, 8, 76, 99
10, 316320, Note_on_c, 8, 79, 99
10, 316416, Note_off_c, 8, 79, 64
10, 316416, Note_off_c, 8, 76, 64
10, 316440, Note_on_c, 8, 79, 99
10, 316440, Note_on_c, 8, 76, 99
10, 316536, Note_off_c, 8, 76, 64
10, 316536, Note_off_c, 8, 79, 64
10, 316560, Note_on_c, 8, 79, 99
10, 316560, Note_on_c, 8, 76, 99
10, 316656, Note_off_c, 8, 76, 64
10, 316656, Note_off_c, 8, 79, 64
10, 316680, Note_on_c, 8, 79, 99
10, 316680, Note_on_c, 8, 76, 99
10, 316776, Note_off_c, 8, 76, 64
10, 316776, Note_off_c, 8, 79, 64
10, 316800, Note_on_c, 8, 76, 99
10, 316800, Note_on_c, 8, 79, 99
10, 316896, Note_off_c, 8, 79, 64
10, 316896, Note_off_c, 8, 76, 64
10, 316920, Note_on_c, 8, 76, 99
10, 316920, Note_on_c, 8, 79, 99
10, 317016, Note_off_c, 8, 79, 64
10, 317016, Note_off_c, 8, 76, 64
10, 317040, Note_on_c, 8, 79, 99
10, 317040, Note_on_c, 8, 76, 99
10, 317136, Note_off_c, 8, 76, 64
10, 317136, Note_off_c, 8, 79, 64
10, 317160, Note_on_c, 8, 76, 99
10, 317160, Note_on_c, 8, 79, 99
10, 317256, Note_off_c, 8, 79, 64
10, 317256, Note_off_c, 8, 76, 64
10, 317280, Note_on_c, 8, 76, 99
10, 317280, Note_on_c, 8, 79, 127
10, 317376, Note_off_c, 8, 79, 64
10, 317376, Note_off_c, 8, 76, 64
10, 317400, Note_on_c, 8, 79, 99
10, 317400, Note_on_c, 8, 76, 99
10, 317496, Note_off_c, 8, 76, 64
10, 317496, Note_off_c, 8, 79, 64
10, 317520, Note_on_c, 8, 79, 99
10, 317520, Note_on_c, 8, 76, 99
10, 317616, Note_off_c, 8, 76, 64
10, 317616, Note_off_c, 8, 79, 64
10, 317640, Note_on_c, 8, 76, 99
10, 317640, Note_on_c, 8, 79, 99
10, 317736, Note_off_c, 8, 79, 64
10, 317736, Note_off_c, 8, 76, 64
10, 317760, Note_on_c, 8, 79, 99
10, 317760, Note_on_c, 8, 76, 99
10, 317856, Note_off_c, 8, 76, 64
10, 317856, Note_off_c, 8, 79, 64
10, 317880, Note_on_c, 8, 76, 99
10, 317880, Note_on_c, 8, 79, 99
10, 317976, Note_off_c, 8, 79, 64
10, 317976, Note_off_c, 8, 76, 64
10, 318000, Note_on_c, 8, 79, 99
10, 318000, Note_on_c, 8, 76, 99
10, 318096, Note_off_c, 8, 76, 64
10, 318096, Note_off_c, 8, 79, 64
10, 318120, Note_on_c, 8, 79, 99
10, 318120, Note_on_c, 8, 76, 99
10, 318216, Note_off_c, 8, 76, 64
10, 318216, Note_off_c, 8, 79, 64
10, 318240, Note_on_c, 8, 79, 99
10, 318240, Note_on_c, 8, 76, 99
10, 318336, Note_off_c, 8, 76, 64
10, 318336, Note_off_c, 8, 79, 64
10, 318360, Note_on_c, 8, 76, 99
10, 318360, Note_on_c, 8, 79, 99
10, 318456, Note_off_c, 8, 79, 64
10, 318456, Note_off_c, 8, 76, 64
10, 318480, Note_on_c, 8, 76, 99
10, 318480, Note_on_c, 8, 79, 99
10, 318576, Note_off_c, 8, 79, 64
10, 318576, Note_off_c, 8, 76, 64
10, 318600, Note_on_c, 8, 76, 99
10, 318600, Note_on_c, 8, 79, 99
10, 318696, Note_off_c, 8, 79, 64
10, 318696, Note_off_c, 8, 76, 64
10, 318720, Note_on_c, 8, 76, 99
10, 318720, Note_on_c, 8, 79, 99
10, 318816, Note_off_c, 8, 79, 64
10, 318816, Note_off_c, 8, 76, 64
10, 318840, Note_on_c, 8, 76, 99
10, 318840, Note_on_c, 8, 79, 99
10, 318936, Note_off_c, 8, 79, 64
10, 318936, Note_off_c, 8, 76, 64
10, 318960, Note_on_c, 8, 79, 99
10, 318960, Note_on_c, 8, 76, 99
10, 319056, Note_off_c, 8, 76, 64
10, 319056, Note_off_c, 8, 79, 64
10, 319080, Note_on_c, 8, 76, 99
10, 319080, Note_on_c, 8, 79, 99
10, 319176, Note_off_c, 8, 79, 64
10, 319176, Note_off_c, 8, 76, 64
10, 319200, Note_on_c, 8, 76, 99
10, 319200, Note_on_c, 8, 79, 127
10, 319296, Note_off_c, 8, 79, 64
10, 319296, Note_off_c, 8, 76, 64
10, 319320, Note_on_c, 8, 79, 99
10, 319320, Note_on_c, 8, 76, 99
10, 319416, Note_off_c, 8, 76, 64
10, 319416, Note_off_c, 8, 79, 64
10, 319440, Note_on_c, 8, 79, 99
10, 319440, Note_on_c, 8, 76, 99
10, 319536, Note_off_c, 8, 76, 64
10, 319536, Note_off_c, 8, 79, 64
10, 319560, Note_on_c, 8, 76, 99
10, 319560, Note_on_c, 8, 79, 99
10, 319656, Note_off_c, 8, 79, 64
10, 319656, Note_off_c, 8, 76, 64
10, 319680, Note_on_c, 8, 79, 99
10, 319680, Note_on_c, 8, 76, 99
10, 319776, Note_off_c, 8, 76, 64
10, 319776, Note_off_c, 8, 79, 64
10, 319800, Note_on_c, 8, 76, 99
10, 319800, Note_on_c, 8, 79, 99
10, 319896, Note_off_c, 8, 79, 64
10, 319896, Note_off_c, 8, 76, 64
10, 319920, Note_on_c, 8, 79, 99
10, 319920, Note_on_c, 8, 76, 99
10, 320016, Note_off_c, 8, 76, 64
10, 320016, Note_off_c, 8, 79, 64
10, 320040, Note_on_c, 8, 79, 99
10, 320040, Note_on_c, 8, 76, 99
10, 320136, Note_off_c, 8, 76, 64
10, 320136, Note_off_c, 8, 79, 64
10, 320160, Note_on_c, 8, 79, 99
10, 320160, Note_on_c, 8, 76, 99
10, 320256, Note_off_c, 8, 76, 64
10, 320256, Note_off_c, 8, 79, 64
10, 320280, Note_on_c, 8, 76, 99
10, 320280, Note_on_c, 8, 79, 99
10, 320376, Note_off_c, 8, 79, 64
10, 320376, Note_off_c, 8, 76, 64
10, 320400, Note_on_c, 8, 76, 99
10, 320400, Note_on_c, 8, 79, 99
10, 320496, Note_off_c, 8, 79, 64
10, 320496, Note_off_c, 8, 76, 64
10, 320520, Note_on_c, 8, 76, 99
10, 320520, Note_on_c, 8, 79, 99
10, 320616, Note_off_c, 8, 79, 64
10, 320616, Note_off_c, 8, 76, 64
10, 320640, Note_on_c, 8, 76, 99
10, 320640, Note_on_c, 8, 79, 99
10, 320736, Note_off_c, 8, 79, 64
10, 320736, Note_off_c, 8, 76, 64
10, 320760, Note_on_c, 8, 76, 99
10, 320760, Note_on_c, 8, 79, 99
10, 320856, Note_off_c, 8, 79, 64
10, 320856, Note_off_c, 8, 76, 64
10, 320880, Note_on_c, 8, 79, 99
10, 320880, Note_on_c, 8, 76, 99
10, 320976, Note_off_c, 8, 76, 64
10, 320976, Note_off_c, 8, 79, 64
10, 321000, Note_on_c, 8, 76, 99
10, 321000, Note_on_c, 8, 79, 99
10, 321096, Note_off_c, 8, 79, 64
10, 321096, Note_off_c, 8, 76, 64
10, 321120, Note_on_c, 8, 79, 127
10, 321120, Note_on_c, 8, 76, 99
10, 321216, Note_off_c, 8, 76, 64
10, 321216, Note_off_c, 8, 79, 64
10, 321240, Note_on_c, 8, 79, 99
10, 321240, Note_on_c, 8, 76, 99
10, 321336, Note_off_c, 8, 76, 64
10, 321336, Note_off_c, 8, 79, 64
10, 321360, Note_on_c, 8, 79, 99
10, 321360, Note_on_c, 8, 76, 99
10, 321456, Note_off_c, 8, 76, 64
10, 321456, Note_off_c, 8, 79, 64
10, 321480, Note_on_c, 8, 79, 99
10, 321480, Note_on_c, 8, 76, 99
10, 321576, Note_off_c, 8, 76, 64
10, 321576, Note_off_c, 8, 79, 64
10, 321600, Note_on_c, 8, 76, 99
10, 321600, Note_on_c, 8, 79, 99
10, 321696, Note_off_c, 8, 79, 64
10, 321696, Note_off_c, 8, 76, 64
10, 321720, Note_on_c, 8, 79, 99
10, 321720, Note_on_c, 8, 76, 99
10, 321816, Note_off_c, 8, 76, 64
10, 321816, Note_off_c, 8, 79, 64
10, 321840, Note_on_c, 8, 76, 99
10, 321840, Note_on_c, 8, 79, 99
10, 321936, Note_off_c, 8, 79, 64
10, 321936, Note_off_c, 8, 76, 64
10, 321960, Note_on_c, 8, 76, 99
10, 321960, Note_on_c, 8, 79, 99
10, 322056, Note_off_c, 8, 79, 64
10, 322056, Note_off_c, 8, 76, 64
10, 322080, Note_on_c, 8, 76, 99
10, 322080, Note_on_c, 8, 79, 99
10, 322176, Note_off_c, 8, 79, 64
10, 322176, Note_off_c, 8, 76, 64
10, 322200, Note_on_c, 8, 76, 99
10, 322200, Note_on_c, 8, 79, 99
10, 322296, Note_off_c, 8, 79, 64
10, 322296, Note_off_c, 8, 76, 64
10, 322320, Note_on_c, 8, 79, 99
10, 322320, Note_on_c, 8, 76, 99
10, 322416, Note_off_c, 8, 76, 64
10, 322416, Note_off_c, 8, 79, 64
10, 322440, Note_on_c, 8, 76, 99
10, 322440, Note_on_c, 8, 79, 99
10, 322536, Note_off_c, 8, 79, 64
10, 322536, Note_off_c, 8, 76, 64
10, 322560, Note_on_c, 8, 78, 99
10, 322560, Note_on_c, 8, 75, 99
10, 322656, Note_off_c, 8, 75, 64
10, 322656, Note_off_c, 8, 78, 64
10, 322680, Note_on_c, 8, 78, 99
10, 322680, Note_on_c, 8, 75, 99
10, 322776, Note_off_c, 8, 75, 64
10, 322776, Note_off_c, 8, 78, 64
10, 322800, Note_on_c, 8, 75, 99
10, 322800, Note_on_c, 8, 78, 99
10, 322896, Note_off_c, 8, 78, 64
10, 322896, Note_off_c, 8, 75, 64
10, 322920, Note_on_c, 8, 78, 99
10, 322920, Note_on_c, 8, 75, 99
10, 323016, Note_off_c, 8, 75, 64
10, 323016, Note_off_c, 8, 78, 64
10, 323040, Note_on_c, 8, 79, 127
10, 323136, Note_off_c, 8, 79, 64
10, 323160, Note_on_c, 8, 79, 40
10, 323256, Note_off_c, 8, 79, 64
10, 323280, Note_on_c, 8, 78, 40
10, 323376, Note_off_c, 8, 78, 64
10, 323400, Note_on_c, 8, 79, 40
10, 323496, Note_off_c, 8, 79, 64
10, 323520, Note_on_c, 8, 78, 40
10, 323616, Note_off_c, 8, 78, 64
10, 323640, Note_on_c, 8, 79, 40
10, 323736, Note_off_c, 8, 79, 64
10, 323760, Note_on_c, 8, 81, 40
10, 323856, Note_off_c, 8, 81, 64
10, 323880, Note_on_c, 8, 79, 40
10, 323976, Note_off_c, 8, 79, 64
10, 324000, Note_on_c, 8, 78, 40
10, 324096, Note_off_c, 8, 78, 64
10, 324120, Note_on_c, 8, 78, 40
10, 324216, Note_off_c, 8, 78, 64
10, 324240, Note_on_c, 8, 78, 40
10, 324336, Note_off_c, 8, 78, 64
10, 324360, Note_on_c, 8, 78, 40
10, 324456, Note_off_c, 8, 78, 64
10, 324480, Note_on_c, 8, 78, 40
10, 324576, Note_off_c, 8, 78, 64
10, 324600, Note_on_c, 8, 78, 40
10, 324696, Note_off_c, 8, 78, 64
10, 324720, Note_on_c, 8, 78, 40
10, 324816, Note_off_c, 8, 78, 64
10, 324840, Note_on_c, 8, 78, 40
10, 324936, Note_off_c, 8, 78, 64
10, 324960, Note_on_c, 8, 79, 40
10, 325056, Note_off_c, 8, 79, 64
10, 325080, Note_on_c, 8, 79, 40
10, 325176, Note_off_c, 8, 79, 64
10, 325200, Note_on_c, 8, 78, 40
10, 325296, Note_off_c, 8, 78, 64
10, 325320, Note_on_c, 8, 79, 40
10, 325416, Note_off_c, 8, 79, 64
10, 325440, Note_on_c, 8, 78, 40
10, 325536, Note_off_c, 8, 78, 64
10, 325560, Note_on_c, 8, 79, 40
10, 325656, Note_off_c, 8, 79, 64
10, 325680, Note_on_c, 8, 81, 40
10, 325776, Note_off_c, 8, 81, 64
10, 325800, Note_on_c, 8, 79, 40
10, 325896, Note_off_c, 8, 79, 64
10, 325920, Note_on_c, 8, 78, 102
10, 326016, Note_off_c, 8, 78, 64
10, 326040, Note_on_c, 8, 78, 102
10, 326136, Note_off_c, 8, 78, 64
10, 326160, Note_on_c, 8, 78, 102
10, 326256, Note_off_c, 8, 78, 64
10, 326280, Note_on_c, 8, 78, 102
10, 326376, Note_off_c, 8, 78, 64
10, 326400, Note_on_c, 8, 78, 102
10, 326496, Note_off_c, 8, 78, 64
10, 326520, Note_on_c, 8, 78, 102
10, 326616, Note_off_c, 8, 78, 64
10, 326640, Note_on_c, 8, 78, 102
10, 326736, Note_off_c, 8, 78, 64
10, 326760, Note_on_c, 8, 78, 102
10, 326856, Note_off_c, 8, 78, 64
10, 326880, Note_on_c, 8, 79, 127
10, 326976, Note_off_c, 8, 79, 64
10, 327000, Note_on_c, 8, 79, 40
10, 327096, Note_off_c, 8, 79, 64
10, 327120, Note_on_c, 8, 78, 40
10, 327216, Note_off_c, 8, 78, 64
10, 327240, Note_on_c, 8, 79, 40
10, 327336, Note_off_c, 8, 79, 64
10, 327360, Note_on_c, 8, 78, 40
10, 327456, Note_off_c, 8, 78, 64
10, 327480, Note_on_c, 8, 79, 40
10, 327576, Note_off_c, 8, 79, 64
10, 327600, Note_on_c, 8, 81, 40
10, 327696, Note_off_c, 8, 81, 64
10, 327720, Note_on_c, 8, 79, 40
10, 327816, Note_off_c, 8, 79, 64
10, 327840, Note_on_c, 8, 78, 35
10, 327936, Note_off_c, 8, 78, 64
10, 327960, Note_on_c, 8, 78, 35
10, 328056, Note_off_c, 8, 78, 64
10, 328080, Note_on_c, 8, 78, 35
10, 328176, Note_off_c, 8, 78, 64
10, 328200, Note_on_c, 8, 78, 35
10, 328296, Note_off_c, 8, 78, 64
10, 328320, Note_on_c, 8, 78, 35
10, 328416, Note_off_c, 8, 78, 64
10, 328440, Note_on_c, 8, 78, 35
10, 328536, Note_off_c, 8, 78, 64
10, 328560, Note_on_c, 8, 78, 35
10, 328656, Note_off_c, 8, 78, 64
10, 328680, Note_on_c, 8, 78, 35
10, 328776, Note_off_c, 8, 78, 64
10, 328800, Note_on_c, 8, 79, 29
10, 328896, Note_off_c, 8, 79, 64
10, 328920, Note_on_c, 8, 79, 40
10, 329016, Note_off_c, 8, 79, 64
10, 329040, Note_on_c, 8, 78, 40
10, 329136, Note_off_c, 8, 78, 64
10, 329160, Note_on_c, 8, 79, 40
10, 329256, Note_off_c, 8, 79, 64
10, 329280, Note_on_c, 8, 78, 40
10, 329376, Note_off_c, 8, 78, 64
10, 329400, Note_on_c, 8, 79, 40
10, 329496, Note_off_c, 8, 79, 64
10, 329520, Note_on_c, 8, 81, 40
10, 329616, Note_off_c, 8, 81, 64
10, 329640, Note_on_c, 8, 79, 40
10, 329736, Note_off_c, 8, 79, 64
10, 329760, Note_on_c, 8, 78, 112
10, 329856, Note_off_c, 8, 78, 64
10, 329880, Note_on_c, 8, 78, 112
10, 329976, Note_off_c, 8, 78, 64
10, 330000, Note_on_c, 8, 78, 112
10, 330096, Note_off_c, 8, 78, 64
10, 330120, Note_on_c, 8, 78, 112
10, 330216, Note_off_c, 8, 78, 64
10, 330240, Note_on_c, 8, 78, 112
10, 330336, Note_off_c, 8, 78, 64
10, 330360, Note_on_c, 8, 78, 112
10, 330456, Note_off_c, 8, 78, 64
10, 330480, Note_on_c, 8, 78, 112
10, 330576, Note_off_c, 8, 78, 64
10, 330600, Note_on_c, 8, 78, 112
10, 330696, Note_off_c, 8, 78, 64
10, 330720, Note_on_c, 8, 79, 74
10, 330816, Note_off_c, 8, 79, 64
10, 330840, Note_on_c, 8, 79, 74
10, 330936, Note_off_c, 8, 79, 64
10, 330960, Note_on_c, 8, 79, 74
10, 331056, Note_off_c, 8, 79, 64
10, 331080, Note_on_c, 8, 79, 74
10, 331176, Note_off_c, 8, 79, 64
10, 331200, Note_on_c, 8, 78, 74
10, 331296, Note_off_c, 8, 78, 64
10, 331320, Note_on_c, 8, 78, 74
10, 331416, Note_off_c, 8, 78, 64
10, 331440, Note_on_c, 8, 78, 74
10, 331536, Note_off_c, 8, 78, 64
10, 331560, Note_on_c, 8, 78, 74
10, 331656, Note_off_c, 8, 78, 64
10, 331680, Note_on_c, 8, 79, 74
10, 331776, Note_off_c, 8, 79, 64
10, 331800, Note_on_c, 8, 79, 74
10, 331896, Note_off_c, 8, 79, 64
10, 331920, Note_on_c, 8, 79, 74
10, 332016, Note_off_c, 8, 79, 64
10, 332040, Note_on_c, 8, 79, 74
10, 332136, Note_off_c, 8, 79, 64
10, 332160, Note_on_c, 8, 78, 74
10, 332256, Note_off_c, 8, 78, 64
10, 332280, Note_on_c, 8, 78, 74
10, 332376, Note_off_c, 8, 78, 64
10, 332400, Note_on_c, 8, 78, 74
10, 332496, Note_off_c, 8, 78, 64
10, 332520, Note_on_c, 8, 78, 74
10, 332616, Note_off_c, 8, 78, 64
10, 332640, Note_on_c, 8, 79, 99
10, 332736, Note_off_c, 8, 79, 64
10, 332760, Note_on_c, 8, 79, 99
10, 332856, Note_off_c, 8, 79, 64
10, 332880, Note_on_c, 8, 79, 99
10, 332976, Note_off_c, 8, 79, 64
10, 333000, Note_on_c, 8, 79, 99
10, 333096, Note_off_c, 8, 79, 64
10, 333120, Note_on_c, 8, 78, 99
10, 333216, Note_off_c, 8, 78, 64
10, 333240, Note_on_c, 8, 78, 99
10, 333336, Note_off_c, 8, 78, 64
10, 333360, Note_on_c, 8, 78, 99
10, 333456, Note_off_c, 8, 78, 64
10, 333480, Note_on_c, 8, 78, 99
10, 333576, Note_off_c, 8, 78, 64
10, 333600, Note_on_c, 8, 79, 99
10, 333696, Note_off_c, 8, 79, 64
10, 333720, Note_on_c, 8, 79, 99
10, 333816, Note_off_c, 8, 79, 64
10, 333840, Note_on_c, 8, 79, 99
10, 333936, Note_off_c, 8, 79, 64
10, 333960, Note_on_c, 8, 79, 99
10, 334056, Note_off_c, 8, 79, 64
10, 334080, Note_on_c, 8, 78, 99
10, 334176, Note_off_c, 8, 78, 64
10, 334200, Note_on_c, 8, 78, 99
10, 334296, Note_off_c, 8, 78, 64
10, 334320, Note_on_c, 8, 78, 99
10, 334416, Note_off_c, 8, 78, 64
10, 334440, Note_on_c, 8, 78, 99
10, 334536, Note_off_c, 8, 78, 64
10, 334560, Note_on_c, 8, 79, 120
10, 334560, Note_on_c, 8, 76, 120
10, 334752, Note_off_c, 8, 76, 64
10, 334752, Note_off_c, 8, 79, 64
10, 335520, Note_on_c, 8, 64, 120
10, 335712, Note_off_c, 8, 64, 64
10, 336000, Note_on_c, 8, 64, 120
10, 336192, Note_off_c, 8, 64, 64
10, 336480, Note_on_c, 8, 64, 120
10, 336672, Note_off_c, 8, 64, 64
10, 337440, Note_on_c, 8, 64, 120
10, 337632, Note_off_c, 8, 64, 64
10, 342240, Note_on_c, 8, 64, 35
10, 342336, Note_off_c, 8, 64, 64
10, 342360, Note_on_c, 8, 65, 35
10, 342456, Note_off_c, 8, 65, 64
10, 342480, Note_on_c, 8, 67, 35
10, 342576, Note_off_c, 8, 67, 64
10, 342600, Note_on_c, 8, 69, 35
10, 342696, Note_off_c, 8, 69, 64
10, 342720, Note_on_c, 8, 71, 35
10, 342816, Note_off_c, 8, 71, 64
10, 342840, Note_on_c, 8, 72, 35
10, 342936, Note_off_c, 8, 72, 64
10, 342960, Note_on_c, 8, 74, 35
10, 343056, Note_off_c, 8, 74, 64
10, 343080, Note_on_c, 8, 76, 35
10, 343176, Note_off_c, 8, 76, 64
10, 343200, Note_on_c, 8, 76, 35
10, 343296, Note_off_c, 8, 76, 64
10, 343320, Note_on_c, 8, 77, 35
10, 343416, Note_off_c, 8, 77, 64
10, 343440, Note_on_c, 8, 76, 35
10, 343536, Note_off_c, 8, 76, 64
10, 343560, Note_on_c, 8, 74, 35
10, 343656, Note_off_c, 8, 74, 64
10, 343680, Note_on_c, 8, 76, 35
10, 343776, Note_off_c, 8, 76, 64
10, 343800, Note_on_c, 8, 79, 35
10, 343896, Note_off_c, 8, 79, 64
10, 343920, Note_on_c, 8, 77, 35
10, 344016, Note_off_c, 8, 77, 64
10, 344040, Note_on_c, 8, 76, 35
10, 344136, Note_off_c, 8, 76, 64
10, 344160, Note_on_c, 8, 74, 35
10, 344256, Note_off_c, 8, 74, 64
10, 344280, Note_on_c, 8, 76, 35
10, 344376, Note_off_c, 8, 76, 64
10, 344400, Note_on_c, 8, 74, 35
10, 344496, Note_off_c, 8, 74, 64
10, 344520, Note_on_c, 8, 72, 35
10, 344616, Note_off_c, 8, 72, 64
10, 344640, Note_on_c, 8, 74, 35
10, 344736, Note_off_c, 8, 74, 64
10, 344760, Note_on_c, 8, 77, 35
10, 344856, Note_off_c, 8, 77, 64
10, 344880, Note_on_c, 8, 76, 35
10, 344976, Note_off_c, 8, 76, 64
10, 345000, Note_on_c, 8, 74, 35
10, 345096, Note_off_c, 8, 74, 64
10, 345120, Note_on_c, 8, 72, 35
10, 345216, Note_off_c, 8, 72, 64
10, 345240, Note_on_c, 8, 74, 35
10, 345336, Note_off_c, 8, 74, 64
10, 345360, Note_on_c, 8, 72, 35
10, 345456, Note_off_c, 8, 72, 64
10, 345480, Note_on_c, 8, 71, 35
10, 345576, Note_off_c, 8, 71, 64
10, 345600, Note_on_c, 8, 72, 35
10, 345696, Note_off_c, 8, 72, 64
10, 345720, Note_on_c, 8, 76, 35
10, 345816, Note_off_c, 8, 76, 64
10, 345840, Note_on_c, 8, 74, 35
10, 345936, Note_off_c, 8, 74, 64
10, 345960, Note_on_c, 8, 72, 35
10, 346056, Note_off_c, 8, 72, 64
10, 346080, Note_on_c, 8, 71, 35
10, 346176, Note_off_c, 8, 71, 64
10, 346200, Note_on_c, 8, 72, 35
10, 346296, Note_off_c, 8, 72, 64
10, 346320, Note_on_c, 8, 71, 35
10, 346416, Note_off_c, 8, 71, 64
10, 346440, Note_on_c, 8, 69, 35
10, 346536, Note_off_c, 8, 69, 64
10, 346560, Note_on_c, 8, 71, 35
10, 346656, Note_off_c, 8, 71, 64
10, 346680, Note_on_c, 8, 74, 35
10, 346776, Note_off_c, 8, 74, 64
10, 346800, Note_on_c, 8, 72, 35
10, 346896, Note_off_c, 8, 72, 64
10, 346920, Note_on_c, 8, 71, 35
10, 347016, Note_off_c, 8, 71, 64
10, 347040, Note_on_c, 8, 69, 35
10, 347136, Note_off_c, 8, 69, 64
10, 347160, Note_on_c, 8, 69, 35
10, 347256, Note_off_c, 8, 69, 64
10, 347280, Note_on_c, 8, 69, 35
10, 347376, Note_off_c, 8, 69, 64
10, 347400, Note_on_c, 8, 69, 35
10, 347496, Note_off_c, 8, 69, 64
10, 347520, Note_on_c, 8, 69, 35
10, 347616, Note_off_c, 8, 69, 64
10, 347640, Note_on_c, 8, 69, 35
10, 347736, Note_off_c, 8, 69, 64
10, 347760, Note_on_c, 8, 69, 35
10, 347856, Note_off_c, 8, 69, 64
10, 347880, Note_on_c, 8, 69, 35
10, 347976, Note_off_c, 8, 69, 64
10, 348000, Note_on_c, 8, 67, 40
10, 348096, Note_off_c, 8, 67, 64
10, 348120, Note_on_c, 8, 67, 40
10, 348216, Note_off_c, 8, 67, 64
10, 348240, Note_on_c, 8, 67, 40
10, 348336, Note_off_c, 8, 67, 64
10, 348360, Note_on_c, 8, 67, 40
10, 348456, Note_off_c, 8, 67, 64
10, 348480, Note_on_c, 8, 67, 40
10, 348576, Note_off_c, 8, 67, 64
10, 348600, Note_on_c, 8, 67, 40
10, 348696, Note_off_c, 8, 67, 64
10, 348720, Note_on_c, 8, 69, 40
10, 348816, Note_off_c, 8, 69, 64
10, 348840, Note_on_c, 8, 71, 40
10, 348936, Note_off_c, 8, 71, 64
10, 348960, Note_on_c, 8, 72, 40
10, 349056, Note_off_c, 8, 72, 64
10, 349080, Note_on_c, 8, 76, 40
10, 349176, Note_off_c, 8, 76, 64
10, 349200, Note_on_c, 8, 76, 40
10, 349296, Note_off_c, 8, 76, 64
10, 349320, Note_on_c, 8, 76, 40
10, 349416, Note_off_c, 8, 76, 64
10, 349440, Note_on_c, 8, 74, 40
10, 349536, Note_off_c, 8, 74, 64
10, 349560, Note_on_c, 8, 72, 40
10, 349656, Note_off_c, 8, 72, 64
10, 349680, Note_on_c, 8, 71, 40
10, 349776, Note_off_c, 8, 71, 64
10, 349800, Note_on_c, 8, 69, 40
10, 349896, Note_off_c, 8, 69, 64
10, 349920, Note_on_c, 8, 71, 40
10, 350016, Note_off_c, 8, 71, 64
10, 350040, Note_on_c, 8, 79, 40
10, 350136, Note_off_c, 8, 79, 64
10, 350160, Note_on_c, 8, 79, 40
10, 350256, Note_off_c, 8, 79, 64
10, 350280, Note_on_c, 8, 79, 40
10, 350376, Note_off_c, 8, 79, 64
10, 350400, Note_on_c, 8, 79, 40
10, 350496, Note_off_c, 8, 79, 64
10, 350520, Note_on_c, 8, 79, 40
10, 350616, Note_off_c, 8, 79, 64
10, 350640, Note_on_c, 8, 79, 40
10, 350736, Note_off_c, 8, 79, 64
10, 350760, Note_on_c, 8, 79, 40
10, 350856, Note_off_c, 8, 79, 64
10, 350880, Note_on_c, 8, 79, 40
10, 350976, Note_off_c, 8, 79, 64
10, 351000, Note_on_c, 8, 79, 40
10, 351096, Note_off_c, 8, 79, 64
10, 351120, Note_on_c, 8, 79, 40
10, 351216, Note_off_c, 8, 79, 64
10, 351240, Note_on_c, 8, 79, 40
10, 351336, Note_off_c, 8, 79, 64
10, 351360, Note_on_c, 8, 77, 40
10, 351456, Note_off_c, 8, 77, 64
10, 351480, Note_on_c, 8, 77, 40
10, 351576, Note_off_c, 8, 77, 64
10, 351600, Note_on_c, 8, 77, 40
10, 351696, Note_off_c, 8, 77, 64
10, 351720, Note_on_c, 8, 77, 40
10, 351816, Note_off_c, 8, 77, 64
10, 351840, Note_on_c, 8, 77, 35
10, 351936, Note_off_c, 8, 77, 64
10, 351960, Note_on_c, 8, 77, 36
10, 352056, Note_off_c, 8, 77, 64
10, 352080, Note_on_c, 8, 76, 37
10, 352176, Note_off_c, 8, 76, 64
10, 352200, Note_on_c, 8, 76, 39
10, 352296, Note_off_c, 8, 76, 64
10, 352320, Note_on_c, 8, 74, 40
10, 352416, Note_off_c, 8, 74, 64
10, 352440, Note_on_c, 8, 74, 41
10, 352536, Note_off_c, 8, 74, 64
10, 352560, Note_on_c, 8, 74, 42
10, 352656, Note_off_c, 8, 74, 64
10, 352680, Note_on_c, 8, 74, 43
10, 352776, Note_off_c, 8, 74, 64
10, 352800, Note_on_c, 8, 72, 44
10, 352896, Note_off_c, 8, 72, 64
10, 352920, Note_on_c, 8, 67, 46
10, 353016, Note_off_c, 8, 67, 64
10, 353040, Note_on_c, 8, 69, 47
10, 353136, Note_off_c, 8, 69, 64
10, 353160, Note_on_c, 8, 70, 48
10, 353256, Note_off_c, 8, 70, 64
10, 353280, Note_on_c, 8, 72, 49
10, 353472, Note_off_c, 8, 72, 64
10, 353520, Note_on_c, 8, 72, 51
10, 353712, Note_off_c, 8, 72, 64
10, 353760, Note_on_c, 8, 77, 54
10, 354528, Note_off_c, 8, 77, 64
10, 354720, Note_on_c, 8, 76, 63
10, 354960, Note_off_c, 8, 76, 64
10, 354960, Note_on_c, 8, 77, 65
10, 355080, Note_off_c, 8, 77, 64
10, 355080, Note_on_c, 8, 79, 67
10, 355200, Note_off_c, 8, 79, 64
10, 355200, Note_on_c, 8, 81, 68
10, 355296, Note_off_c, 8, 81, 64
10, 355440, Note_on_c, 8, 81, 70
10, 355536, Note_off_c, 8, 81, 64
10, 355680, Note_on_c, 8, 65, 73
10, 355776, Note_off_c, 8, 65, 64
10, 355800, Note_on_c, 8, 60, 74
10, 355896, Note_off_c, 8, 60, 64
10, 355920, Note_on_c, 8, 62, 75
10, 356016, Note_off_c, 8, 62, 64
10, 356040, Note_on_c, 8, 64, 76
10, 356136, Note_off_c, 8, 64, 64
10, 356160, Note_on_c, 8, 65, 77
10, 356256, Note_off_c, 8, 65, 64
10, 356280, Note_on_c, 8, 65, 78
10, 356376, Note_off_c, 8, 65, 64
10, 356400, Note_on_c, 8, 65, 80
10, 356496, Note_off_c, 8, 65, 64
10, 356520, Note_on_c, 8, 65, 81
10, 356616, Note_off_c, 8, 65, 64
10, 356640, Note_on_c, 8, 74, 82
10, 356736, Note_off_c, 8, 74, 64
10, 356760, Note_on_c, 8, 74, 83
10, 356856, Note_off_c, 8, 74, 64
10, 356880, Note_on_c, 8, 72, 84
10, 356976, Note_off_c, 8, 72, 64
10, 357000, Note_on_c, 8, 71, 85
10, 357096, Note_off_c, 8, 71, 64
10, 357120, Note_on_c, 8, 72, 87
10, 357216, Note_off_c, 8, 72, 64
10, 357240, Note_on_c, 8, 72, 88
10, 357336, Note_off_c, 8, 72, 64
10, 357360, Note_on_c, 8, 72, 89
10, 357456, Note_off_c, 8, 72, 64
10, 357480, Note_on_c, 8, 72, 90
10, 357576, Note_off_c, 8, 72, 64
10, 357600, Note_on_c, 8, 72, 91
10, 357696, Note_off_c, 8, 72, 64
10, 357720, Note_on_c, 8, 72, 92
10, 357816, Note_off_c, 8, 72, 64
10, 357840, Note_on_c, 8, 72, 94
10, 357936, Note_off_c, 8, 72, 64
10, 357960, Note_on_c, 8, 72, 95
10, 358056, Note_off_c, 8, 72, 64
10, 358080, Note_on_c, 8, 72, 96
10, 358176, Note_off_c, 8, 72, 64
10, 358200, Note_on_c, 8, 72, 97
10, 358296, Note_off_c, 8, 72, 64
10, 358320, Note_on_c, 8, 77, 98
10, 358416, Note_off_c, 8, 77, 64
10, 358440, Note_on_c, 8, 77, 99
10, 358536, Note_off_c, 8, 77, 64
10, 358560, Note_on_c, 8, 76, 101
10, 358656, Note_off_c, 8, 76, 64
10, 358680, Note_on_c, 8, 76, 102
10, 358776, Note_off_c, 8, 76, 64
10, 358800, Note_on_c, 8, 79, 103
10, 358896, Note_off_c, 8, 79, 64
10, 358920, Note_on_c, 8, 79, 104
10, 359016, Note_off_c, 8, 79, 64
10, 359040, Note_on_c, 8, 79, 105
10, 359136, Note_off_c, 8, 79, 64
10, 359160, Note_on_c, 8, 79, 106
10, 359256, Note_off_c, 8, 79, 64
10, 359280, Note_on_c, 8, 81, 108
10, 359280, Note_on_c, 8, 69, 108
10, 359376, Note_off_c, 8, 69, 64
10, 359376, Note_off_c, 8, 81, 64
10, 359400, Note_on_c, 8, 81, 109
10, 359400, Note_on_c, 8, 69, 109
10, 359496, Note_off_c, 8, 69, 64
10, 359496, Note_off_c, 8, 81, 64
10, 359520, Note_on_c, 8, 71, 127
10, 359520, Note_on_c, 8, 79, 127
10, 359712, Note_off_c, 8, 79, 64
10, 359712, Note_off_c, 8, 71, 64
10, 364320, Note_on_c, 8, 64, 99
10, 364416, Note_off_c, 8, 64, 64
10, 364440, Note_on_c, 8, 64, 99
10, 364536, Note_off_c, 8, 64, 64
10, 364560, Note_on_c, 8, 65, 99
10, 364656, Note_off_c, 8, 65, 64
10, 364680, Note_on_c, 8, 67, 99
10, 364776, Note_off_c, 8, 67, 64
10, 364800, Note_on_c, 8, 69, 99
10, 364896, Note_off_c, 8, 69, 64
10, 364920, Note_on_c, 8, 67, 99
10, 365016, Note_off_c, 8, 67, 64
10, 365040, Note_on_c, 8, 65, 99
10, 365136, Note_off_c, 8, 65, 64
10, 365160, Note_on_c, 8, 64, 99
10, 365256, Note_off_c, 8, 64, 64
10, 365280, Note_on_c, 8, 65, 99
10, 365664, Note_off_c, 8, 65, 64
10, 366240, Note_on_c, 8, 62, 99
10, 366336, Note_off_c, 8, 62, 64
10, 366360, Note_on_c, 8, 62, 99
10, 366456, Note_off_c, 8, 62, 64
10, 366480, Note_on_c, 8, 64, 99
10, 366576, Note_off_c, 8, 64, 64
10, 366600, Note_on_c, 8, 65, 99
10, 366696, Note_off_c, 8, 65, 64
10, 366720, Note_on_c, 8, 67, 99
10, 366816, Note_off_c, 8, 67, 64
10, 366840, Note_on_c, 8, 65, 99
10, 366936, Note_off_c, 8, 65, 64
10, 366960, Note_on_c, 8, 64, 99
10, 367056, Note_off_c, 8, 64, 64
10, 367080, Note_on_c, 8, 62, 99
10, 367176, Note_off_c, 8, 62, 64
10, 367200, Note_on_c, 8, 79, 127
10, 367968, Note_off_c, 8, 79, 64
10, 368160, Note_on_c, 8, 76, 127
10, 368400, Note_off_c, 8, 76, 64
10, 368400, Note_on_c, 8, 77, 127
10, 368520, Note_off_c, 8, 77, 64
10, 368520, Note_on_c, 8, 79, 127
10, 368640, Note_off_c, 8, 79, 64
10, 368640, Note_on_c, 8, 81, 127
10, 368736, Note_off_c, 8, 81, 64
10, 368880, Note_on_c, 8, 81, 127
10, 368976, Note_off_c, 8, 81, 64
10, 369120, Note_on_c, 8, 81, 99
10, 369216, Note_off_c, 8, 81, 64
10, 369240, Note_on_c, 8, 83, 99
10, 369336, Note_off_c, 8, 83, 64
10, 369360, Note_on_c, 8, 81, 99
10, 369456, Note_off_c, 8, 81, 64
10, 369480, Note_on_c, 8, 79, 99
10, 369576, Note_off_c, 8, 79, 64
10, 369600, Note_on_c, 8, 77, 99
10, 369696, Note_off_c, 8, 77, 64
10, 369720, Note_on_c, 8, 79, 99
10, 369816, Note_off_c, 8, 79, 64
10, 369840, Note_on_c, 8, 81, 99
10, 369936, Note_off_c, 8, 81, 64
10, 369960, Note_on_c, 8, 77, 99
10, 370056, Note_off_c, 8, 77, 64
10, 370080, Note_on_c, 8, 74, 127
10, 370320, Note_off_c, 8, 74, 64
10, 370320, Note_on_c, 8, 76, 127
10, 370440, Note_off_c, 8, 76, 64
10, 370440, Note_on_c, 8, 77, 127
10, 370560, Note_off_c, 8, 77, 64
10, 370560, Note_on_c, 8, 79, 127
10, 370656, Note_off_c, 8, 79, 64
10, 370800, Note_on_c, 8, 79, 127
10, 370896, Note_off_c, 8, 79, 64
10, 371040, Note_on_c, 8, 79, 99
10, 371136, Note_off_c, 8, 79, 64
10, 371160, Note_on_c, 8, 81, 99
10, 371256, Note_off_c, 8, 81, 64
10, 371280, Note_on_c, 8, 79, 99
10, 371376, Note_off_c, 8, 79, 64
10, 371400, Note_on_c, 8, 77, 99
10, 371496, Note_off_c, 8, 77, 64
10, 371520, Note_on_c, 8, 76, 99
10, 371616, Note_off_c, 8, 76, 64
10, 371640, Note_on_c, 8, 77, 99
10, 371736, Note_off_c, 8, 77, 64
10, 371760, Note_on_c, 8, 79, 99
10, 371856, Note_off_c, 8, 79, 64
10, 371880, Note_on_c, 8, 76, 99
10, 371976, Note_off_c, 8, 76, 64
10, 372000, Note_on_c, 8, 81, 99
10, 372096, Note_off_c, 8, 81, 64
10, 372120, Note_on_c, 8, 71, 99
10, 372216, Note_off_c, 8, 71, 64
10, 372240, Note_on_c, 8, 69, 99
10, 372336, Note_off_c, 8, 69, 64
10, 372360, Note_on_c, 8, 67, 99
10, 372456, Note_off_c, 8, 67, 64
10, 372480, Note_on_c, 8, 65, 99
10, 372576, Note_off_c, 8, 65, 64
10, 372600, Note_on_c, 8, 67, 99
10, 372696, Note_off_c, 8, 67, 64
10, 372720, Note_on_c, 8, 65, 99
10, 372816, Note_off_c, 8, 65, 64
10, 372840, Note_on_c, 8, 64, 99
10, 372936, Note_off_c, 8, 64, 64
10, 372960, Note_on_c, 8, 62, 99
10, 373056, Note_off_c, 8, 62, 64
10, 373080, Note_on_c, 8, 65, 99
10, 373176, Note_off_c, 8, 65, 64
10, 373200, Note_on_c, 8, 65, 99
10, 373296, Note_off_c, 8, 65, 64
10, 373320, Note_on_c, 8, 65, 99
10, 373416, Note_off_c, 8, 65, 64
10, 373440, Note_on_c, 8, 64, 99
10, 373536, Note_off_c, 8, 64, 64
10, 373560, Note_on_c, 8, 64, 99
10, 373656, Note_off_c, 8, 64, 64
10, 373680, Note_on_c, 8, 64, 99
10, 373776, Note_off_c, 8, 64, 64
10, 373800, Note_on_c, 8, 64, 99
10, 373896, Note_off_c, 8, 64, 64
10, 373920, Note_on_c, 8, 62, 99
10, 374016, Note_off_c, 8, 62, 64
10, 374040, Note_on_c, 8, 62, 99
10, 374136, Note_off_c, 8, 62, 64
10, 374160, Note_on_c, 8, 62, 99
10, 374256, Note_off_c, 8, 62, 64
10, 374280, Note_on_c, 8, 62, 99
10, 374376, Note_off_c, 8, 62, 64
10, 374400, Note_on_c, 8, 60, 127
10, 374496, Note_off_c, 8, 60, 64
10, 374520, Note_on_c, 8, 60, 99
10, 374616, Note_off_c, 8, 60, 64
10, 374640, Note_on_c, 8, 62, 99
10, 374736, Note_off_c, 8, 62, 64
10, 374760, Note_on_c, 8, 62, 99
10, 374856, Note_off_c, 8, 62, 64
10, 374880, Note_on_c, 8, 64, 99
10, 374976, Note_off_c, 8, 64, 64
10, 375000, Note_on_c, 8, 64, 99
10, 375096, Note_off_c, 8, 64, 64
10, 375120, Note_on_c, 8, 64, 99
10, 375216, Note_off_c, 8, 64, 64
10, 375240, Note_on_c, 8, 64, 99
10, 375336, Note_off_c, 8, 64, 64
10, 375360, Note_on_c, 8, 65, 127
10, 375456, Note_off_c, 8, 65, 64
10, 375480, Note_on_c, 8, 65, 99
10, 375576, Note_off_c, 8, 65, 64
10, 375600, Note_on_c, 8, 64, 99
10, 375696, Note_off_c, 8, 64, 64
10, 375720, Note_on_c, 8, 64, 99
10, 375816, Note_off_c, 8, 64, 64
10, 375840, Note_on_c, 8, 62, 99
10, 375936, Note_off_c, 8, 62, 64
10, 375960, Note_on_c, 8, 62, 99
10, 376056, Note_off_c, 8, 62, 64
10, 376080, Note_on_c, 8, 62, 99
10, 376176, Note_off_c, 8, 62, 64
10, 376200, Note_on_c, 8, 62, 99
10, 376296, Note_off_c, 8, 62, 64
10, 376320, Note_on_c, 8, 60, 127
10, 376416, Note_off_c, 8, 60, 64
10, 376440, Note_on_c, 8, 60, 99
10, 376536, Note_off_c, 8, 60, 64
10, 376560, Note_on_c, 8, 62, 99
10, 376656, Note_off_c, 8, 62, 64
10, 376680, Note_on_c, 8, 62, 99
10, 376776, Note_off_c, 8, 62, 64
10, 376800, Note_on_c, 8, 64, 99
10, 376896, Note_off_c, 8, 64, 64
10, 376920, Note_on_c, 8, 72, 99
10, 377016, Note_off_c, 8, 72, 64
10, 377040, Note_on_c, 8, 72, 99
10, 377136, Note_off_c, 8, 72, 64
10, 377160, Note_on_c, 8, 72, 99
10, 377256, Note_off_c, 8, 72, 64
10, 377280, Note_on_c, 8, 72, 99
10, 377376, Note_off_c, 8, 72, 64
10, 377400, Note_on_c, 8, 72, 99
10, 377496, Note_off_c, 8, 72, 64
10, 377520, Note_on_c, 8, 72, 99
10, 377616, Note_off_c, 8, 72, 64
10, 377640, Note_on_c, 8, 72, 99
10, 377736, Note_off_c, 8, 72, 64
10, 377760, Note_on_c, 8, 72, 99
10, 377856, Note_off_c, 8, 72, 64
10, 377880, Note_on_c, 8, 72, 99
10, 377976, Note_off_c, 8, 72, 64
10, 378000, Note_on_c, 8, 72, 99
10, 378096, Note_off_c, 8, 72, 64
10, 378120, Note_on_c, 8, 72, 99
10, 378216, Note_off_c, 8, 72, 64
10, 378240, Note_on_c, 8, 72, 99
10, 378336, Note_off_c, 8, 72, 64
10, 378360, Note_on_c, 8, 72, 99
10, 378456, Note_off_c, 8, 72, 64
10, 378480, Note_on_c, 8, 72, 99
10, 378576, Note_off_c, 8, 72, 64
10, 378600, Note_on_c, 8, 72, 99
10, 378696, Note_off_c, 8, 72, 64
10, 378720, Note_on_c, 8, 72, 99
10, 378720, Note_on_c, 8, 69, 99
10, 378816, Note_off_c, 8, 69, 64
10, 378816, Note_off_c, 8, 72, 64
10, 378840, Note_on_c, 8, 69, 99
10, 378840, Note_on_c, 8, 72, 99
10, 378936, Note_off_c, 8, 72, 64
10, 378936, Note_off_c, 8, 69, 64
10, 378960, Note_on_c, 8, 69, 99
10, 378960, Note_on_c, 8, 72, 99
10, 379056, Note_off_c, 8, 72, 64
10, 379056, Note_off_c, 8, 69, 64
10, 379080, Note_on_c, 8, 69, 99
10, 379080, Note_on_c, 8, 72, 99
10, 379176, Note_off_c, 8, 72, 64
10, 379176, Note_off_c, 8, 69, 64
10, 379200, Note_on_c, 8, 72, 99
10, 379200, Note_on_c, 8, 69, 99
10, 379296, Note_off_c, 8, 69, 64
10, 379296, Note_off_c, 8, 72, 64
10, 379320, Note_on_c, 8, 69, 99
10, 379320, Note_on_c, 8, 72, 99
10, 379416, Note_off_c, 8, 72, 64
10, 379416, Note_off_c, 8, 69, 64
10, 379440, Note_on_c, 8, 69, 99
10, 379440, Note_on_c, 8, 72, 99
10, 379536, Note_off_c, 8, 72, 64
10, 379536, Note_off_c, 8, 69, 64
10, 379560, Note_on_c, 8, 72, 99
10, 379560, Note_on_c, 8, 69, 99
10, 379656, Note_off_c, 8, 69, 64
10, 379656, Note_off_c, 8, 72, 64
10, 379680, Note_on_c, 8, 71, 99
10, 379680, Note_on_c, 8, 67, 99
10, 379776, Note_off_c, 8, 67, 64
10, 379776, Note_off_c, 8, 71, 64
10, 379800, Note_on_c, 8, 67, 99
10, 379800, Note_on_c, 8, 71, 99
10, 379896, Note_off_c, 8, 71, 64
10, 379896, Note_off_c, 8, 67, 64
10, 379920, Note_on_c, 8, 67, 99
10, 379920, Note_on_c, 8, 71, 99
10, 380016, Note_off_c, 8, 71, 64
10, 380016, Note_off_c, 8, 67, 64
10, 380040, Note_on_c, 8, 71, 99
10, 380040, Note_on_c, 8, 67, 99
10, 380136, Note_off_c, 8, 67, 64
10, 380136, Note_off_c, 8, 71, 64
10, 380160, Note_on_c, 8, 67, 99
10, 380160, Note_on_c, 8, 71, 99
10, 380256, Note_off_c, 8, 71, 64
10, 380256, Note_off_c, 8, 67, 64
10, 380280, Note_on_c, 8, 71, 99
10, 380280, Note_on_c, 8, 67, 99
10, 380376, Note_off_c, 8, 67, 64
10, 380376, Note_off_c, 8, 71, 64
10, 380400, Note_on_c, 8, 67, 99
10, 380400, Note_on_c, 8, 71, 99
10, 380496, Note_off_c, 8, 71, 64
10, 380496, Note_off_c, 8, 67, 64
10, 380520, Note_on_c, 8, 71, 99
10, 380520, Note_on_c, 8, 67, 99
10, 380616, Note_off_c, 8, 67, 64
10, 380616, Note_off_c, 8, 71, 64
10, 388320, Note_on_c, 8, 62, 127
10, 388512, Note_off_c, 8, 62, 64
10, 388800, Note_on_c, 8, 74, 127
10, 388800, Note_on_c, 8, 77, 127
10, 392256, Note_off_c, 8, 77, 64
10, 392256, Note_off_c, 8, 74, 64
10, 393600, Note_on_c, 8, 78, 127
10, 393600, Note_on_c, 8, 62, 127
10, 393600, Note_on_c, 8, 72, 127
10, 393696, Note_off_c, 8, 72, 64
10, 393696, Note_off_c, 8, 62, 64
10, 397536, Note_off_c, 8, 78, 64
10, 398880, Note_on_c, 8, 62, 127
10, 398880, Note_on_c, 8, 74, 127
10, 399072, Note_off_c, 8, 74, 64
10, 399072, Note_off_c, 8, 62, 64
10, 399840, Note_on_c, 8, 64, 127
10, 399840, Note_on_c, 8, 72, 127
10, 400032, Note_off_c, 8, 72, 64
10, 400032, Note_off_c, 8, 64, 64
10, 400800, Note_on_c, 8, 71, 127
10, 400830, Note_off_c, 8, 71, 64
10, 400830, Note_on_c, 8, 72, 109
10, 400860, Note_off_c, 8, 72, 64
10, 400860, Note_on_c, 8, 71, 108
10, 400890, Note_off_c, 8, 71, 64
10, 400890, Note_on_c, 8, 72, 106
10, 400920, Note_off_c, 8, 72, 64
10, 400920, Note_on_c, 8, 71, 105
10, 400950, Note_off_c, 8, 71, 64
10, 400950, Note_on_c, 8, 72, 104
10, 400980, Note_off_c, 8, 72, 64
10, 400980, Note_on_c, 8, 71, 103
10, 401010, Note_off_c, 8, 71, 64
10, 401010, Note_on_c, 8, 72, 101
10, 401040, Note_off_c, 8, 72, 64
10, 401040, Note_on_c, 8, 71, 100
10, 401070, Note_off_c, 8, 71, 64
10, 401070, Note_on_c, 8, 72, 99
10, 401100, Note_off_c, 8, 72, 64
10, 401100, Note_on_c, 8, 71, 98
10, 401130, Note_off_c, 8, 71, 64
10, 401130, Note_on_c, 8, 72, 96
10, 401160, Note_off_c, 8, 72, 64
10, 401160, Note_on_c, 8, 71, 95
10, 401190, Note_off_c, 8, 71, 64
10, 401190, Note_on_c, 8, 72, 94
10, 401220, Note_off_c, 8, 72, 64
10, 401220, Note_on_c, 8, 71, 93
10, 401250, Note_off_c, 8, 71, 64
10, 401250, Note_on_c, 8, 72, 91
10, 401280, Note_off_c, 8, 72, 64
10, 401280, Note_on_c, 8, 71, 90
10, 401310, Note_off_c, 8, 71, 64
10, 401310, Note_on_c, 8, 72, 89
10, 401340, Note_off_c, 8, 72, 64
10, 401340, Note_on_c, 8, 71, 88
10, 401370, Note_off_c, 8, 71, 64
10, 401370, Note_on_c, 8, 72, 86
10, 401400, Note_off_c, 8, 72, 64
10, 401400, Note_on_c, 8, 71, 85
10, 401430, Note_off_c, 8, 71, 64
10, 401430, Note_on_c, 8, 72, 84
10, 401460, Note_off_c, 8, 72, 64
10, 401460, Note_on_c, 8, 71, 83
10, 401490, Note_off_c, 8, 71, 64
10, 401490, Note_on_c, 8, 72, 81
10, 401520, Note_off_c, 8, 72, 64
10, 401520, Note_on_c, 8, 71, 80
10, 401550, Note_off_c, 8, 71, 64
10, 401550, Note_on_c, 8, 72, 79
10, 401580, Note_off_c, 8, 72, 64
10, 401580, Note_on_c, 8, 71, 78
10, 401610, Note_off_c, 8, 71, 64
10, 401610, Note_on_c, 8, 72, 76
10, 401640, Note_off_c, 8, 72, 64
10, 401640, Note_on_c, 8, 71, 75
10, 401670, Note_off_c, 8, 71, 64
10, 401670, Note_on_c, 8, 72, 74
10, 401700, Note_off_c, 8, 72, 64
10, 401700, Note_on_c, 8, 71, 73
10, 401730, Note_off_c, 8, 71, 64
10, 401730, Note_on_c, 8, 72, 71
10, 401760, Note_off_c, 8, 72, 64
10, 401760, Note_on_c, 8, 71, 70
10, 401790, Note_off_c, 8, 71, 64
10, 401790, Note_on_c, 8, 72, 69
10, 401820, Note_off_c, 8, 72, 64
10, 401820, Note_on_c, 8, 71, 67
10, 401850, Note_off_c, 8, 71, 64
10, 401850, Note_on_c, 8, 72, 66
10, 401880, Note_off_c, 8, 72, 64
10, 401880, Note_on_c, 8, 71, 65
10, 401910, Note_off_c, 8, 71, 64
10, 401910, Note_on_c, 8, 72, 64
10, 401940, Note_off_c, 8, 72, 64
10, 401940, Note_on_c, 8, 71, 62
10, 401970, Note_off_c, 8, 71, 64
10, 401970, Note_on_c, 8, 72, 61
10, 402000, Note_off_c, 8, 72, 64
10, 402000, Note_on_c, 8, 71, 60
10, 402030, Note_off_c, 8, 71, 64
10, 402030, Note_on_c, 8, 72, 59
10, 402060, Note_off_c, 8, 72, 64
10, 402060, Note_on_c, 8, 71, 57
10, 402090, Note_off_c, 8, 71, 64
10, 402090, Note_on_c, 8, 72, 56
10, 402120, Note_off_c, 8, 72, 64
10, 402120, Note_on_c, 8, 71, 55
10, 402150, Note_off_c, 8, 71, 64
10, 402150, Note_on_c, 8, 72, 54
10, 402180, Note_off_c, 8, 72, 64
10, 402180, Note_on_c, 8, 71, 52
10, 402210, Note_off_c, 8, 71, 64
10, 402210, Note_on_c, 8, 72, 51
10, 402240, Note_off_c, 8, 72, 64
10, 402240, Note_on_c, 8, 71, 50
10, 402270, Note_off_c, 8, 71, 64
10, 402270, Note_on_c, 8, 72, 49
10, 402300, Note_off_c, 8, 72, 64
10, 402300, Note_on_c, 8, 71, 47
10, 402330, Note_off_c, 8, 71, 64
10, 402330, Note_on_c, 8, 72, 46
10, 402360, Note_off_c, 8, 72, 64
10, 402360, Note_on_c, 8, 71, 45
10, 402390, Note_off_c, 8, 71, 64
10, 402390, Note_on_c, 8, 72, 44
10, 402420, Note_off_c, 8, 72, 64
10, 402420, Note_on_c, 8, 71, 42
10, 402450, Note_off_c, 8, 71, 64
10, 402450, Note_on_c, 8, 72, 41
10, 402480, Note_off_c, 8, 72, 64
10, 402480, Note_on_c, 8, 71, 40
10, 402510, Note_off_c, 8, 71, 64
10, 402510, Note_on_c, 8, 72, 39
10, 402540, Note_off_c, 8, 72, 64
10, 402540, Note_on_c, 8, 71, 37
10, 402570, Note_off_c, 8, 71, 64
10, 402570, Note_on_c, 8, 72, 36
10, 402600, Note_off_c, 8, 72, 64
10, 402600, Note_on_c, 8, 71, 35
10, 402630, Note_off_c, 8, 71, 64
10, 402630, Note_on_c, 8, 72, 34
10, 402660, Note_off_c, 8, 72, 64
10, 402660, Note_on_c, 8, 69, 32
10, 402690, Note_off_c, 8, 69, 64
10, 402690, Note_on_c, 8, 71, 31
10, 402720, Note_off_c, 8, 71, 64
10, 402720, Note_on_c, 8, 64, 40
10, 402960, Note_off_c, 8, 64, 64
10, 402960, Note_on_c, 8, 65, 40
10, 403080, Note_off_c, 8, 65, 64
10, 403080, Note_on_c, 8, 67, 40
10, 403200, Note_off_c, 8, 67, 64
10, 403200, Note_on_c, 8, 69, 40
10, 403296, Note_off_c, 8, 69, 64
10, 403440, Note_on_c, 8, 67, 40
10, 403536, Note_off_c, 8, 67, 64
10, 403680, Note_on_c, 8, 65, 40
10, 403920, Note_off_c, 8, 65, 64
10, 403920, Note_on_c, 8, 67, 40
10, 404040, Note_off_c, 8, 67, 64
10, 404040, Note_on_c, 8, 69, 40
10, 404160, Note_off_c, 8, 69, 64
10, 404160, Note_on_c, 8, 70, 40
10, 404256, Note_off_c, 8, 70, 64
10, 404400, Note_on_c, 8, 69, 40
10, 404496, Note_off_c, 8, 69, 64
10, 404640, Note_on_c, 8, 64, 40
10, 404880, Note_off_c, 8, 64, 64
10, 404880, Note_on_c, 8, 65, 40
10, 405000, Note_off_c, 8, 65, 64
10, 405000, Note_on_c, 8, 67, 40
10, 405120, Note_off_c, 8, 67, 64
10, 405120, Note_on_c, 8, 69, 40
10, 405216, Note_off_c, 8, 69, 64
10, 405360, Note_on_c, 8, 67, 40
10, 405456, Note_off_c, 8, 67, 64
10, 405600, Note_on_c, 8, 65, 40
10, 405840, Note_off_c, 8, 65, 64
10, 405840, Note_on_c, 8, 67, 40
10, 405960, Note_off_c, 8, 67, 64
10, 405960, Note_on_c, 8, 69, 40
10, 406080, Note_off_c, 8, 69, 64
10, 406080, Note_on_c, 8, 70, 40
10, 406176, Note_off_c, 8, 70, 64
10, 406320, Note_on_c, 8, 69, 40
10, 406416, Note_off_c, 8, 69, 64
10, 406560, Note_on_c, 8, 71, 40
10, 406656, Note_off_c, 8, 71, 64
10, 406680, Note_on_c, 8, 62, 40
10, 406776, Note_off_c, 8, 62, 64
10, 406800, Note_on_c, 8, 62, 40
10, 406896, Note_off_c, 8, 62, 64
10, 406920, Note_on_c, 8, 62, 40
10, 407016, Note_off_c, 8, 62, 64
10, 407040, Note_on_c, 8, 62, 40
10, 407136, Note_off_c, 8, 62, 64
10, 407160, Note_on_c, 8, 62, 40
10, 407256, Note_off_c, 8, 62, 64
10, 407280, Note_on_c, 8, 62, 40
10, 407376, Note_off_c, 8, 62, 64
10, 407400, Note_on_c, 8, 62, 40
10, 407496, Note_off_c, 8, 62, 64
10, 407520, Note_on_c, 8, 64, 40
10, 407616, Note_off_c, 8, 64, 64
10, 407640, Note_on_c, 8, 64, 40
10, 407736, Note_off_c, 8, 64, 64
10, 407760, Note_on_c, 8, 64, 40
10, 407856, Note_off_c, 8, 64, 64
10, 407880, Note_on_c, 8, 64, 40
10, 407976, Note_off_c, 8, 64, 64
10, 408000, Note_on_c, 8, 64, 40
10, 408096, Note_off_c, 8, 64, 64
10, 408120, Note_on_c, 8, 64, 40
10, 408216, Note_off_c, 8, 64, 64
10, 408240, Note_on_c, 8, 64, 40
10, 408336, Note_off_c, 8, 64, 64
10, 408360, Note_on_c, 8, 64, 40
10, 408456, Note_off_c, 8, 64, 64
10, 408480, Note_on_c, 8, 62, 40
10, 408576, Note_off_c, 8, 62, 64
10, 408600, Note_on_c, 8, 62, 40
10, 408696, Note_off_c, 8, 62, 64
10, 408720, Note_on_c, 8, 62, 40
10, 408816, Note_off_c, 8, 62, 64
10, 408840, Note_on_c, 8, 62, 40
10, 408936, Note_off_c, 8, 62, 64
10, 408960, Note_on_c, 8, 62, 40
10, 409056, Note_off_c, 8, 62, 64
10, 409080, Note_on_c, 8, 62, 40
10, 409176, Note_off_c, 8, 62, 64
10, 409200, Note_on_c, 8, 62, 40
10, 409296, Note_off_c, 8, 62, 64
10, 409320, Note_on_c, 8, 62, 40
10, 409416, Note_off_c, 8, 62, 64
10, 409440, Note_on_c, 8, 60, 34
10, 409536, Note_off_c, 8, 60, 64
10, 409560, Note_on_c, 8, 72, 34
10, 409656, Note_off_c, 8, 72, 64
10, 409680, Note_on_c, 8, 72, 34
10, 409776, Note_off_c, 8, 72, 64
10, 409800, Note_on_c, 8, 72, 34
10, 409896, Note_off_c, 8, 72, 64
10, 409920, Note_on_c, 8, 72, 34
10, 410016, Note_off_c, 8, 72, 64
10, 410040, Note_on_c, 8, 72, 34
10, 410136, Note_off_c, 8, 72, 64
10, 410160, Note_on_c, 8, 72, 34
10, 410256, Note_off_c, 8, 72, 64
10, 410280, Note_on_c, 8, 72, 34
10, 410376, Note_off_c, 8, 72, 64
10, 410400, Note_on_c, 8, 72, 34
10, 410496, Note_off_c, 8, 72, 64
10, 410520, Note_on_c, 8, 72, 34
10, 410616, Note_off_c, 8, 72, 64
10, 410640, Note_on_c, 8, 72, 34
10, 410736, Note_off_c, 8, 72, 64
10, 410760, Note_on_c, 8, 72, 34
10, 410856, Note_off_c, 8, 72, 64
10, 410880, Note_on_c, 8, 72, 34
10, 410976, Note_off_c, 8, 72, 64
10, 411000, Note_on_c, 8, 72, 34
10, 411096, Note_off_c, 8, 72, 64
10, 411120, Note_on_c, 8, 72, 34
10, 411216, Note_off_c, 8, 72, 64
10, 411240, Note_on_c, 8, 72, 34
10, 411336, Note_off_c, 8, 72, 64
10, 411360, Note_on_c, 8, 72, 34
10, 411456, Note_off_c, 8, 72, 64
10, 411480, Note_on_c, 8, 72, 34
10, 411576, Note_off_c, 8, 72, 64
10, 411600, Note_on_c, 8, 72, 34
10, 411696, Note_off_c, 8, 72, 64
10, 411720, Note_on_c, 8, 72, 34
10, 411816, Note_off_c, 8, 72, 64
10, 411840, Note_on_c, 8, 72, 34
10, 411936, Note_off_c, 8, 72, 64
10, 411960, Note_on_c, 8, 72, 34
10, 412056, Note_off_c, 8, 72, 64
10, 412080, Note_on_c, 8, 72, 34
10, 412176, Note_off_c, 8, 72, 64
10, 412200, Note_on_c, 8, 72, 34
10, 412296, Note_off_c, 8, 72, 64
10, 412320, Note_on_c, 8, 72, 34
10, 412416, Note_off_c, 8, 72, 64
10, 412440, Note_on_c, 8, 72, 34
10, 412536, Note_off_c, 8, 72, 64
10, 412560, Note_on_c, 8, 72, 34
10, 412656, Note_off_c, 8, 72, 64
10, 412680, Note_on_c, 8, 72, 34
10, 412776, Note_off_c, 8, 72, 64
10, 412800, Note_on_c, 8, 72, 34
10, 412896, Note_off_c, 8, 72, 64
10, 412920, Note_on_c, 8, 72, 34
10, 413016, Note_off_c, 8, 72, 64
10, 413040, Note_on_c, 8, 72, 34
10, 413136, Note_off_c, 8, 72, 64
10, 413160, Note_on_c, 8, 72, 34
10, 413256, Note_off_c, 8, 72, 64
10, 413280, Note_on_c, 8, 72, 34
10, 413376, Note_off_c, 8, 72, 64
10, 414240, Note_on_c, 8, 74, 30
10, 414336, Note_off_c, 8, 74, 64
10, 414360, Note_on_c, 8, 74, 30
10, 414456, Note_off_c, 8, 74, 64
10, 414480, Note_on_c, 8, 74, 30
10, 414576, Note_off_c, 8, 74, 64
10, 414600, Note_on_c, 8, 74, 30
10, 414696, Note_off_c, 8, 74, 64
10, 414720, Note_on_c, 8, 74, 30
10, 414816, Note_off_c, 8, 74, 64
10, 414840, Note_on_c, 8, 74, 30
10, 414936, Note_off_c, 8, 74, 64
10, 414960, Note_on_c, 8, 74, 30
10, 415056, Note_off_c, 8, 74, 64
10, 415080, Note_on_c, 8, 74, 30
10, 415176, Note_off_c, 8, 74, 64
10, 415200, Note_on_c, 8, 74, 30
10, 415296, Note_off_c, 8, 74, 64
10, 415320, Note_on_c, 8, 74, 30
10, 415416, Note_off_c, 8, 74, 64
10, 415440, Note_on_c, 8, 74, 30
10, 415536, Note_off_c, 8, 74, 64
10, 415560, Note_on_c, 8, 74, 30
10, 415656, Note_off_c, 8, 74, 64
10, 415680, Note_on_c, 8, 74, 30
10, 415776, Note_off_c, 8, 74, 64
10, 415800, Note_on_c, 8, 74, 30
10, 415896, Note_off_c, 8, 74, 64
10, 415920, Note_on_c, 8, 74, 30
10, 416016, Note_off_c, 8, 74, 64
10, 416040, Note_on_c, 8, 74, 30
10, 416136, Note_off_c, 8, 74, 64
10, 416160, Note_on_c, 8, 72, 30
10, 416256, Note_off_c, 8, 72, 64
10, 416280, Note_on_c, 8, 72, 30
10, 416376, Note_off_c, 8, 72, 64
10, 416400, Note_on_c, 8, 72, 30
10, 416496, Note_off_c, 8, 72, 64
10, 416520, Note_on_c, 8, 72, 30
10, 416616, Note_off_c, 8, 72, 64
10, 416640, Note_on_c, 8, 72, 30
10, 416736, Note_off_c, 8, 72, 64
10, 416760, Note_on_c, 8, 72, 30
10, 416856, Note_off_c, 8, 72, 64
10, 416880, Note_on_c, 8, 72, 30
10, 416976, Note_off_c, 8, 72, 64
10, 417000, Note_on_c, 8, 72, 30
10, 417096, Note_off_c, 8, 72, 64
10, 417120, Note_on_c, 8, 72, 30
10, 417216, Note_off_c, 8, 72, 64
10, 417240, Note_on_c, 8, 72, 30
10, 417336, Note_off_c, 8, 72, 64
10, 417360, Note_on_c, 8, 72, 30
10, 417456, Note_off_c, 8, 72, 64
10, 417480, Note_on_c, 8, 72, 30
10, 417576, Note_off_c, 8, 72, 64
10, 417600, Note_on_c, 8, 72, 30
10, 417696, Note_off_c, 8, 72, 64
10, 417720, Note_on_c, 8, 72, 30
10, 417816, Note_off_c, 8, 72, 64
10, 417840, Note_on_c, 8, 72, 30
10, 417936, Note_off_c, 8, 72, 64
10, 417960, Note_on_c, 8, 72, 30
10, 418056, Note_off_c, 8, 72, 64
10, 418080, Note_on_c, 8, 75, 30
10, 418176, Note_off_c, 8, 75, 64
10, 418200, Note_on_c, 8, 75, 30
10, 418296, Note_off_c, 8, 75, 64
10, 418320, Note_on_c, 8, 75, 30
10, 418416, Note_off_c, 8, 75, 64
10, 418440, Note_on_c, 8, 75, 30
10, 418536, Note_off_c, 8, 75, 64
10, 418560, Note_on_c, 8, 75, 30
10, 418656, Note_off_c, 8, 75, 64
10, 418680, Note_on_c, 8, 75, 30
10, 418776, Note_off_c, 8, 75, 64
10, 418800, Note_on_c, 8, 75, 30
10, 418896, Note_off_c, 8, 75, 64
10, 418920, Note_on_c, 8, 75, 30
10, 419016, Note_off_c, 8, 75, 64
10, 419040, Note_on_c, 8, 75, 30
10, 419136, Note_off_c, 8, 75, 64
10, 419160, Note_on_c, 8, 75, 30
10, 419256, Note_off_c, 8, 75, 64
10, 419280, Note_on_c, 8, 75, 30
10, 419376, Note_off_c, 8, 75, 64
10, 419400, Note_on_c, 8, 75, 30
10, 419496, Note_off_c, 8, 75, 64
10, 419520, Note_on_c, 8, 75, 30
10, 419616, Note_off_c, 8, 75, 64
10, 419640, Note_on_c, 8, 75, 30
10, 419736, Note_off_c, 8, 75, 64
10, 419760, Note_on_c, 8, 75, 30
10, 419856, Note_off_c, 8, 75, 64
10, 419880, Note_on_c, 8, 75, 30
10, 419976, Note_off_c, 8, 75, 64
10, 420000, Note_on_c, 8, 73, 30
10, 420096, Note_off_c, 8, 73, 64
10, 420120, Note_on_c, 8, 73, 30
10, 420216, Note_off_c, 8, 73, 64
10, 420240, Note_on_c, 8, 73, 30
10, 420336, Note_off_c, 8, 73, 64
10, 420360, Note_on_c, 8, 73, 30
10, 420456, Note_off_c, 8, 73, 64
10, 420480, Note_on_c, 8, 73, 30
10, 420576, Note_off_c, 8, 73, 64
10, 420600, Note_on_c, 8, 73, 30
10, 420696, Note_off_c, 8, 73, 64
10, 420720, Note_on_c, 8, 73, 30
10, 420816, Note_off_c, 8, 73, 64
10, 420840, Note_on_c, 8, 73, 30
10, 420936, Note_off_c, 8, 73, 64
10, 420960, Note_on_c, 8, 73, 30
10, 421056, Note_off_c, 8, 73, 64
10, 421080, Note_on_c, 8, 73, 30
10, 421176, Note_off_c, 8, 73, 64
10, 421200, Note_on_c, 8, 73, 30
10, 421296, Note_off_c, 8, 73, 64
10, 421320, Note_on_c, 8, 73, 30
10, 421416, Note_off_c, 8, 73, 64
10, 421440, Note_on_c, 8, 73, 30
10, 421536, Note_off_c, 8, 73, 64
10, 421560, Note_on_c, 8, 73, 30
10, 421656, Note_off_c, 8, 73, 64
10, 421680, Note_on_c, 8, 73, 30
10, 421776, Note_off_c, 8, 73, 64
10, 421800, Note_on_c, 8, 73, 30
10, 421896, Note_off_c, 8, 73, 64
10, 421920, Note_on_c, 8, 77, 30
10, 422016, Note_off_c, 8, 77, 64
10, 422040, Note_on_c, 8, 77, 30
10, 422136, Note_off_c, 8, 77, 64
10, 422160, Note_on_c, 8, 77, 30
10, 422256, Note_off_c, 8, 77, 64
10, 422280, Note_on_c, 8, 77, 30
10, 422376, Note_off_c, 8, 77, 64
10, 422400, Note_on_c, 8, 77, 30
10, 422496, Note_off_c, 8, 77, 64
10, 422520, Note_on_c, 8, 77, 30
10, 422616, Note_off_c, 8, 77, 64
10, 422640, Note_on_c, 8, 77, 30
10, 422736, Note_off_c, 8, 77, 64
10, 422760, Note_on_c, 8, 77, 30
10, 422856, Note_off_c, 8, 77, 64
10, 422880, Note_on_c, 8, 77, 30
10, 422976, Note_off_c, 8, 77, 64
10, 423000, Note_on_c, 8, 77, 30
10, 423096, Note_off_c, 8, 77, 64
10, 423120, Note_on_c, 8, 77, 30
10, 423216, Note_off_c, 8, 77, 64
10, 423240, Note_on_c, 8, 77, 30
10, 423336, Note_off_c, 8, 77, 64
10, 423360, Note_on_c, 8, 77, 30
10, 423456, Note_off_c, 8, 77, 64
10, 423480, Note_on_c, 8, 77, 30
10, 423576, Note_off_c, 8, 77, 64
10, 423600, Note_on_c, 8, 77, 30
10, 423696, Note_off_c, 8, 77, 64
10, 423720, Note_on_c, 8, 77, 30
10, 423816, Note_off_c, 8, 77, 64
10, 423840, Note_on_c, 8, 75, 30
10, 423936, Note_off_c, 8, 75, 64
10, 423960, Note_on_c, 8, 75, 30
10, 424056, Note_off_c, 8, 75, 64
10, 424080, Note_on_c, 8, 75, 30
10, 424176, Note_off_c, 8, 75, 64
10, 424200, Note_on_c, 8, 75, 30
10, 424296, Note_off_c, 8, 75, 64
10, 424320, Note_on_c, 8, 75, 30
10, 424416, Note_off_c, 8, 75, 64
10, 424440, Note_on_c, 8, 75, 30
10, 424536, Note_off_c, 8, 75, 64
10, 424560, Note_on_c, 8, 75, 30
10, 424656, Note_off_c, 8, 75, 64
10, 424680, Note_on_c, 8, 75, 30
10, 424776, Note_off_c, 8, 75, 64
10, 424800, Note_on_c, 8, 75, 30
10, 424896, Note_off_c, 8, 75, 64
10, 424920, Note_on_c, 8, 75, 30
10, 425016, Note_off_c, 8, 75, 64
10, 425040, Note_on_c, 8, 75, 30
10, 425136, Note_off_c, 8, 75, 64
10, 425160, Note_on_c, 8, 75, 30
10, 425256, Note_off_c, 8, 75, 64
10, 425280, Note_on_c, 8, 75, 30
10, 425376, Note_off_c, 8, 75, 64
10, 425400, Note_on_c, 8, 75, 30
10, 425496, Note_off_c, 8, 75, 64
10, 425520, Note_on_c, 8, 75, 30
10, 425616, Note_off_c, 8, 75, 64
10, 425640, Note_on_c, 8, 75, 30
10, 425736, Note_off_c, 8, 75, 64
10, 425760, Note_on_c, 8, 78, 30
10, 425856, Note_off_c, 8, 78, 64
10, 425880, Note_on_c, 8, 78, 30
10, 425976, Note_off_c, 8, 78, 64
10, 426000, Note_on_c, 8, 78, 30
10, 426096, Note_off_c, 8, 78, 64
10, 426120, Note_on_c, 8, 78, 30
10, 426216, Note_off_c, 8, 78, 64
10, 426240, Note_on_c, 8, 78, 30
10, 426336, Note_off_c, 8, 78, 64
10, 426360, Note_on_c, 8, 78, 30
10, 426456, Note_off_c, 8, 78, 64
10, 426480, Note_on_c, 8, 78, 30
10, 426576, Note_off_c, 8, 78, 64
10, 426600, Note_on_c, 8, 78, 30
10, 426696, Note_off_c, 8, 78, 64
10, 426720, Note_on_c, 8, 78, 30
10, 426816, Note_off_c, 8, 78, 64
10, 426840, Note_on_c, 8, 78, 30
10, 426936, Note_off_c, 8, 78, 64
10, 426960, Note_on_c, 8, 78, 30
10, 427056, Note_off_c, 8, 78, 64
10, 427080, Note_on_c, 8, 78, 30
10, 427176, Note_off_c, 8, 78, 64
10, 427200, Note_on_c, 8, 78, 30
10, 427296, Note_off_c, 8, 78, 64
10, 427320, Note_on_c, 8, 78, 30
10, 427416, Note_off_c, 8, 78, 64
10, 427440, Note_on_c, 8, 78, 30
10, 427536, Note_off_c, 8, 78, 64
10, 427560, Note_on_c, 8, 78, 30
10, 427656, Note_off_c, 8, 78, 64
10, 427680, Note_on_c, 8, 77, 30
10, 427776, Note_off_c, 8, 77, 64
10, 427800, Note_on_c, 8, 77, 30
10, 427896, Note_off_c, 8, 77, 64
10, 427920, Note_on_c, 8, 77, 30
10, 428016, Note_off_c, 8, 77, 64
10, 428040, Note_on_c, 8, 77, 30
10, 428136, Note_off_c, 8, 77, 64
10, 428160, Note_on_c, 8, 77, 30
10, 428256, Note_off_c, 8, 77, 64
10, 428280, Note_on_c, 8, 77, 30
10, 428376, Note_off_c, 8, 77, 64
10, 428400, Note_on_c, 8, 77, 30
10, 428496, Note_off_c, 8, 77, 64
10, 428520, Note_on_c, 8, 77, 30
10, 428616, Note_off_c, 8, 77, 64
10, 428640, Note_on_c, 8, 73, 34
10, 428736, Note_off_c, 8, 73, 64
10, 428760, Note_on_c, 8, 73, 35
10, 428856, Note_off_c, 8, 73, 64
10, 428880, Note_on_c, 8, 73, 36
10, 428976, Note_off_c, 8, 73, 64
10, 429000, Note_on_c, 8, 73, 38
10, 429096, Note_off_c, 8, 73, 64
10, 429120, Note_on_c, 8, 73, 39
10, 429216, Note_off_c, 8, 73, 64
10, 429240, Note_on_c, 8, 73, 40
10, 429336, Note_off_c, 8, 73, 64
10, 429360, Note_on_c, 8, 73, 42
10, 429456, Note_off_c, 8, 73, 64
10, 429480, Note_on_c, 8, 73, 43
10, 429576, Note_off_c, 8, 73, 64
10, 429600, Note_on_c, 8, 73, 45
10, 429696, Note_off_c, 8, 73, 64
10, 429720, Note_on_c, 8, 73, 46
10, 429816, Note_off_c, 8, 73, 64
10, 429840, Note_on_c, 8, 73, 47
10, 429936, Note_off_c, 8, 73, 64
10, 429960, Note_on_c, 8, 73, 49
10, 430056, Note_off_c, 8, 73, 64
10, 430080, Note_on_c, 8, 73, 50
10, 430176, Note_off_c, 8, 73, 64
10, 430200, Note_on_c, 8, 73, 51
10, 430296, Note_off_c, 8, 73, 64
10, 430320, Note_on_c, 8, 73, 53
10, 430416, Note_off_c, 8, 73, 64
10, 430440, Note_on_c, 8, 73, 54
10, 430536, Note_off_c, 8, 73, 64
10, 430560, Note_on_c, 8, 74, 55
10, 430656, Note_off_c, 8, 74, 64
10, 430680, Note_on_c, 8, 74, 57
10, 430776, Note_off_c, 8, 74, 64
10, 430800, Note_on_c, 8, 74, 58
10, 430896, Note_off_c, 8, 74, 64
10, 430920, Note_on_c, 8, 74, 60
10, 431016, Note_off_c, 8, 74, 64
10, 431040, Note_on_c, 8, 74, 61
10, 431136, Note_off_c, 8, 74, 64
10, 431160, Note_on_c, 8, 74, 62
10, 431256, Note_off_c, 8, 74, 64
10, 431280, Note_on_c, 8, 74, 64
10, 431376, Note_off_c, 8, 74, 64
10, 431400, Note_on_c, 8, 74, 65
10, 431496, Note_off_c, 8, 74, 64
10, 431520, Note_on_c, 8, 74, 66
10, 431616, Note_off_c, 8, 74, 64
10, 431640, Note_on_c, 8, 74, 68
10, 431736, Note_off_c, 8, 74, 64
10, 431760, Note_on_c, 8, 74, 69
10, 431856, Note_off_c, 8, 74, 64
10, 431880, Note_on_c, 8, 74, 70
10, 431976, Note_off_c, 8, 74, 64
10, 432000, Note_on_c, 8, 74, 72
10, 432096, Note_off_c, 8, 74, 64
10, 432120, Note_on_c, 8, 74, 73
10, 432216, Note_off_c, 8, 74, 64
10, 432240, Note_on_c, 8, 74, 75
10, 432336, Note_off_c, 8, 74, 64
10, 432360, Note_on_c, 8, 74, 76
10, 432456, Note_off_c, 8, 74, 64
10, 432480, Note_on_c, 8, 74, 77
10, 432576, Note_off_c, 8, 74, 64
10, 432600, Note_on_c, 8, 74, 79
10, 432696, Note_off_c, 8, 74, 64
10, 432720, Note_on_c, 8, 74, 80
10, 432816, Note_off_c, 8, 74, 64
10, 432840, Note_on_c, 8, 74, 81
10, 432936, Note_off_c, 8, 74, 64
10, 432960, Note_on_c, 8, 74, 83
10, 433056, Note_off_c, 8, 74, 64
10, 433080, Note_on_c, 8, 74, 84
10, 433176, Note_off_c, 8, 74, 64
10, 433200, Note_on_c, 8, 74, 85
10, 433296, Note_off_c, 8, 74, 64
10, 433320, Note_on_c, 8, 74, 87
10, 433416, Note_off_c, 8, 74, 64
10, 433440, Note_on_c, 8, 76, 127
10, 433536, Note_off_c, 8, 76, 64
10, 433560, Note_on_c, 8, 76, 90
10, 433656, Note_off_c, 8, 76, 64
10, 433680, Note_on_c, 8, 76, 90
10, 433776, Note_off_c, 8, 76, 64
10, 433800, Note_on_c, 8, 76, 90
10, 433896, Note_off_c, 8, 76, 64
10, 433920, Note_on_c, 8, 76, 90
10, 434016, Note_off_c, 8, 76, 64
10, 434040, Note_on_c, 8, 76, 90
10, 434136, Note_off_c, 8, 76, 64
10, 434160, Note_on_c, 8, 76, 90
10, 434256, Note_off_c, 8, 76, 64
10, 434280, Note_on_c, 8, 76, 90
10, 434376, Note_off_c, 8, 76, 64
10, 434400, Note_on_c, 8, 74, 127
10, 434496, Note_off_c, 8, 74, 64
10, 434520, Note_on_c, 8, 74, 90
10, 434616, Note_off_c, 8, 74, 64
10, 434640, Note_on_c, 8, 74, 90
10, 434736, Note_off_c, 8, 74, 64
10, 434760, Note_on_c, 8, 74, 90
10, 434856, Note_off_c, 8, 74, 64
10, 434880, Note_on_c, 8, 74, 90
10, 434976, Note_off_c, 8, 74, 64
10, 435000, Note_on_c, 8, 74, 90
10, 435096, Note_off_c, 8, 74, 64
10, 435120, Note_on_c, 8, 74, 90
10, 435216, Note_off_c, 8, 74, 64
10, 435240, Note_on_c, 8, 74, 90
10, 435336, Note_off_c, 8, 74, 64
10, 435360, Note_on_c, 8, 76, 127
10, 435456, Note_off_c, 8, 76, 64
10, 435480, Note_on_c, 8, 76, 90
10, 435576, Note_off_c, 8, 76, 64
10, 435600, Note_on_c, 8, 76, 90
10, 435696, Note_off_c, 8, 76, 64
10, 435720, Note_on_c, 8, 76, 90
10, 435816, Note_off_c, 8, 76, 64
10, 435840, Note_on_c, 8, 76, 90
10, 435936, Note_off_c, 8, 76, 64
10, 435960, Note_on_c, 8, 76, 90
10, 436056, Note_off_c, 8, 76, 64
10, 436080, Note_on_c, 8, 76, 90
10, 436176, Note_off_c, 8, 76, 64
10, 436200, Note_on_c, 8, 76, 90
10, 436296, Note_off_c, 8, 76, 64
10, 436320, Note_on_c, 8, 74, 127
10, 436416, Note_off_c, 8, 74, 64
10, 436440, Note_on_c, 8, 74, 90
10, 436536, Note_off_c, 8, 74, 64
10, 436560, Note_on_c, 8, 74, 90
10, 436656, Note_off_c, 8, 74, 64
10, 436680, Note_on_c, 8, 74, 90
10, 436776, Note_off_c, 8, 74, 64
10, 436800, Note_on_c, 8, 74, 90
10, 436896, Note_off_c, 8, 74, 64
10, 436920, Note_on_c, 8, 74, 90
10, 437016, Note_off_c, 8, 74, 64
10, 437040, Note_on_c, 8, 74, 90
10, 437136, Note_off_c, 8, 74, 64
10, 437160, Note_on_c, 8, 74, 90
10, 437256, Note_off_c, 8, 74, 64
10, 437280, Note_on_c, 8, 76, 99
10, 437376, Note_off_c, 8, 76, 64
10, 437400, Note_on_c, 8, 76, 99
10, 437496, Note_off_c, 8, 76, 64
10, 437520, Note_on_c, 8, 76, 99
10, 437616, Note_off_c, 8, 76, 64
10, 437640, Note_on_c, 8, 76, 99
10, 437736, Note_off_c, 8, 76, 64
10, 437760, Note_on_c, 8, 72, 99
10, 437856, Note_off_c, 8, 72, 64
10, 437880, Note_on_c, 8, 72, 99
10, 437976, Note_off_c, 8, 72, 64
10, 438000, Note_on_c, 8, 72, 99
10, 438096, Note_off_c, 8, 72, 64
10, 438120, Note_on_c, 8, 72, 99
10, 438216, Note_off_c, 8, 72, 64
10, 438240, Note_on_c, 8, 74, 99
10, 438336, Note_off_c, 8, 74, 64
10, 438360, Note_on_c, 8, 74, 99
10, 438456, Note_off_c, 8, 74, 64
10, 438480, Note_on_c, 8, 74, 99
10, 438576, Note_off_c, 8, 74, 64
10, 438600, Note_on_c, 8, 74, 99
10, 438696, Note_off_c, 8, 74, 64
10, 438720, Note_on_c, 8, 71, 99
10, 438816, Note_off_c, 8, 71, 64
10, 438840, Note_on_c, 8, 71, 99
10, 438936, Note_off_c, 8, 71, 64
10, 438960, Note_on_c, 8, 71, 99
10, 439056, Note_off_c, 8, 71, 64
10, 439080, Note_on_c, 8, 71, 99
10, 439176, Note_off_c, 8, 71, 64
10, 439200, Note_on_c, 8, 72, 99
10, 439296, Note_off_c, 8, 72, 64
10, 439320, Note_on_c, 8, 72, 99
10, 439416, Note_off_c, 8, 72, 64
10, 439440, Note_on_c, 8, 72, 99
10, 439536, Note_off_c, 8, 72, 64
10, 439560, Note_on_c, 8, 72, 99
10, 439656, Note_off_c, 8, 72, 64
10, 439680, Note_on_c, 8, 69, 99
10, 439776, Note_off_c, 8, 69, 64
10, 439800, Note_on_c, 8, 69, 99
10, 439896, Note_off_c, 8, 69, 64
10, 439920, Note_on_c, 8, 69, 99
10, 440016, Note_off_c, 8, 69, 64
10, 440040, Note_on_c, 8, 69, 99
10, 440136, Note_off_c, 8, 69, 64
10, 440160, Note_on_c, 8, 71, 99
10, 440256, Note_off_c, 8, 71, 64
10, 440280, Note_on_c, 8, 71, 99
10, 440376, Note_off_c, 8, 71, 64
10, 440400, Note_on_c, 8, 71, 99
10, 440496, Note_off_c, 8, 71, 64
10, 440520, Note_on_c, 8, 71, 99
10, 440616, Note_off_c, 8, 71, 64
10, 440640, Note_on_c, 8, 67, 99
10, 440736, Note_off_c, 8, 67, 64
10, 440760, Note_on_c, 8, 67, 99
10, 440856, Note_off_c, 8, 67, 64
10, 440880, Note_on_c, 8, 67, 99
10, 440976, Note_off_c, 8, 67, 64
10, 441000, Note_on_c, 8, 67, 99
10, 441096, Note_off_c, 8, 67, 64
10, 441120, Note_on_c, 8, 69, 99
10, 441216, Note_off_c, 8, 69, 64
10, 441240, Note_on_c, 8, 69, 99
10, 441336, Note_off_c, 8, 69, 64
10, 441360, Note_on_c, 8, 69, 99
10, 441456, Note_off_c, 8, 69, 64
10, 441480, Note_on_c, 8, 69, 99
10, 441576, Note_off_c, 8, 69, 64
10, 441600, Note_on_c, 8, 65, 99
10, 441696, Note_off_c, 8, 65, 64
10, 441720, Note_on_c, 8, 65, 99
10, 441816, Note_off_c, 8, 65, 64
10, 441840, Note_on_c, 8, 65, 99
10, 441936, Note_off_c, 8, 65, 64
10, 441960, Note_on_c, 8, 65, 99
10, 442056, Note_off_c, 8, 65, 64
10, 442080, Note_on_c, 8, 67, 99
10, 442176, Note_off_c, 8, 67, 64
10, 442200, Note_on_c, 8, 67, 99
10, 442296, Note_off_c, 8, 67, 64
10, 442320, Note_on_c, 8, 67, 99
10, 442416, Note_off_c, 8, 67, 64
10, 442440, Note_on_c, 8, 67, 99
10, 442536, Note_off_c, 8, 67, 64
10, 442560, Note_on_c, 8, 64, 99
10, 442656, Note_off_c, 8, 64, 64
10, 442680, Note_on_c, 8, 64, 99
10, 442776, Note_off_c, 8, 64, 64
10, 442800, Note_on_c, 8, 64, 99
10, 442896, Note_off_c, 8, 64, 64
10, 442920, Note_on_c, 8, 64, 99
10, 443016, Note_off_c, 8, 64, 64
10, 443040, Note_on_c, 8, 65, 99
10, 443136, Note_off_c, 8, 65, 64
10, 443160, Note_on_c, 8, 65, 99
10, 443256, Note_off_c, 8, 65, 64
10, 443280, Note_on_c, 8, 65, 99
10, 443376, Note_off_c, 8, 65, 64
10, 443400, Note_on_c, 8, 65, 99
10, 443496, Note_off_c, 8, 65, 64
10, 443520, Note_on_c, 8, 64, 99
10, 443616, Note_off_c, 8, 64, 64
10, 443640, Note_on_c, 8, 64, 99
10, 443736, Note_off_c, 8, 64, 64
10, 443760, Note_on_c, 8, 72, 99
10, 443856, Note_off_c, 8, 72, 64
10, 443880, Note_on_c, 8, 72, 99
10, 443976, Note_off_c, 8, 72, 64
10, 444000, Note_on_c, 8, 72, 99
10, 444096, Note_off_c, 8, 72, 64
10, 444120, Note_on_c, 8, 72, 99
10, 444216, Note_off_c, 8, 72, 64
10, 444240, Note_on_c, 8, 71, 99
10, 444336, Note_off_c, 8, 71, 64
10, 444360, Note_on_c, 8, 71, 99
10, 444456, Note_off_c, 8, 71, 64
10, 444480, Note_on_c, 8, 72, 99
10, 444576, Note_off_c, 8, 72, 64
10, 444600, Note_on_c, 8, 72, 99
10, 444696, Note_off_c, 8, 72, 64
10, 444720, Note_on_c, 8, 72, 99
10, 444816, Note_off_c, 8, 72, 64
10, 444840, Note_on_c, 8, 72, 99
10, 444936, Note_off_c, 8, 72, 64
10, 444960, Note_on_c, 8, 72, 99
10, 445056, Note_off_c, 8, 72, 64
10, 445080, Note_on_c, 8, 72, 99
10, 445176, Note_off_c, 8, 72, 64
10, 445200, Note_on_c, 8, 72, 99
10, 445296, Note_off_c, 8, 72, 64
10, 445320, Note_on_c, 8, 72, 99
10, 445416, Note_off_c, 8, 72, 64
10, 445440, Note_on_c, 8, 72, 99
10, 445536, Note_off_c, 8, 72, 64
10, 445560, Note_on_c, 8, 72, 99
10, 445656, Note_off_c, 8, 72, 64
10, 445680, Note_on_c, 8, 72, 99
10, 445776, Note_off_c, 8, 72, 64
10, 445800, Note_on_c, 8, 72, 99
10, 445896, Note_off_c, 8, 72, 64
10, 445920, Note_on_c, 8, 72, 99
10, 446016, Note_off_c, 8, 72, 64
10, 446040, Note_on_c, 8, 72, 99
10, 446136, Note_off_c, 8, 72, 64
10, 446160, Note_on_c, 8, 72, 99
10, 446256, Note_off_c, 8, 72, 64
10, 446280, Note_on_c, 8, 72, 99
10, 446376, Note_off_c, 8, 72, 64
10, 446400, Note_on_c, 8, 72, 99
10, 446496, Note_off_c, 8, 72, 64
10, 446520, Note_on_c, 8, 72, 99
10, 446616, Note_off_c, 8, 72, 64
10, 446640, Note_on_c, 8, 72, 99
10, 446736, Note_off_c, 8, 72, 64
10, 446760, Note_on_c, 8, 72, 99
10, 446856, Note_off_c, 8, 72, 64
10, 446880, Note_on_c, 8, 72, 99
10, 446976, Note_off_c, 8, 72, 64
10, 447000, Note_on_c, 8, 72, 99
10, 447096, Note_off_c, 8, 72, 64
10, 447120, Note_on_c, 8, 72, 99
10, 447216, Note_off_c, 8, 72, 64
10, 447240, Note_on_c, 8, 72, 99
10, 447336, Note_off_c, 8, 72, 64
10, 447360, Note_on_c, 8, 72, 99
10, 447456, Note_off_c, 8, 72, 64
10, 447480, Note_on_c, 8, 72, 99
10, 447576, Note_off_c, 8, 72, 64
10, 447600, Note_on_c, 8, 72, 99
10, 447696, Note_off_c, 8, 72, 64
10, 447720, Note_on_c, 8, 72, 99
10, 447816, Note_off_c, 8, 72, 64
10, 447840, Note_on_c, 8, 72, 99
10, 447936, Note_off_c, 8, 72, 64
10, 447960, Note_on_c, 8, 72, 99
10, 448056, Note_off_c, 8, 72, 64
10, 448080, Note_on_c, 8, 72, 99
10, 448176, Note_off_c, 8, 72, 64
10, 448200, Note_on_c, 8, 72, 99
10, 448296, Note_off_c, 8, 72, 64
10, 448320, Note_on_c, 8, 72, 99
10, 448416, Note_off_c, 8, 72, 64
10, 448440, Note_on_c, 8, 72, 99
10, 448536, Note_off_c, 8, 72, 64
10, 448560, Note_on_c, 8, 72, 99
10, 448656, Note_off_c, 8, 72, 64
10, 448680, Note_on_c, 8, 72, 99
10, 448776, Note_off_c, 8, 72, 64
10, 448800, Note_on_c, 8, 72, 99
10, 448896, Note_off_c, 8, 72, 64
10, 448920, Note_on_c, 8, 72, 99
10, 449016, Note_off_c, 8, 72, 64
10, 449040, Note_on_c, 8, 72, 99
10, 449136, Note_off_c, 8, 72, 64
10, 449160, Note_on_c, 8, 72, 99
10, 449256, Note_off_c, 8, 72, 64
10, 449280, Note_on_c, 8, 72, 99
10, 449376, Note_off_c, 8, 72, 64
10, 449400, Note_on_c, 8, 72, 99
10, 449496, Note_off_c, 8, 72, 64
10, 449520, Note_on_c, 8, 72, 99
10, 449616, Note_off_c, 8, 72, 64
10, 449640, Note_on_c, 8, 72, 99
10, 449736, Note_off_c, 8, 72, 64
10, 449760, Note_on_c, 8, 72, 99
10, 449856, Note_off_c, 8, 72, 64
10, 449880, Note_on_c, 8, 72, 99
10, 449976, Note_off_c, 8, 72, 64
10, 450000, Note_on_c, 8, 72, 99
10, 450096, Note_off_c, 8, 72, 64
10, 450120, Note_on_c, 8, 72, 99
10, 450216, Note_off_c, 8, 72, 64
10, 450240, Note_on_c, 8, 72, 99
10, 450336, Note_off_c, 8, 72, 64
10, 450360, Note_on_c, 8, 72, 99
10, 450456, Note_off_c, 8, 72, 64
10, 450480, Note_on_c, 8, 72, 99
10, 450576, Note_off_c, 8, 72, 64
10, 450600, Note_on_c, 8, 72, 99
10, 450696, Note_off_c, 8, 72, 64
10, 450720, Note_on_c, 8, 72, 102
10, 450720, Note_on_c, 8, 76, 102
10, 450912, Note_off_c, 8, 76, 64
10, 450912, Note_off_c, 8, 72, 64
10, 451200, Note_on_c, 8, 60, 122
10, 451392, Note_off_c, 8, 60, 64
10, 451680, Note_on_c, 8, 60, 102
10, 451872, Note_off_c, 8, 60, 64
10, 452160, Note_on_c, 8, 55, 122
10, 452352, Note_off_c, 8, 55, 64
10, 452640, Note_on_c, 8, 60, 40
10, 452736, Note_off_c, 8, 60, 64
10, 452880, Note_on_c, 8, 59, 40
10, 453000, Note_off_c, 8, 59, 64
10, 453000, Note_on_c, 8, 60, 40
10, 453120, Note_off_c, 8, 60, 64
10, 453120, Note_on_c, 8, 62, 40
10, 453216, Note_off_c, 8, 62, 64
10, 453360, Note_on_c, 8, 60, 40
10, 453456, Note_off_c, 8, 60, 64
10, 453600, Note_on_c, 8, 59, 40
10, 453984, Note_off_c, 8, 59, 64
10, 454560, Note_on_c, 8, 60, 40
10, 454656, Note_off_c, 8, 60, 64
10, 454800, Note_on_c, 8, 59, 40
10, 454920, Note_off_c, 8, 59, 64
10, 454920, Note_on_c, 8, 60, 40
10, 455040, Note_off_c, 8, 60, 64
10, 455040, Note_on_c, 8, 62, 40
10, 455136, Note_off_c, 8, 62, 64
10, 455280, Note_on_c, 8, 60, 40
10, 455376, Note_off_c, 8, 60, 64
10, 455520, Note_on_c, 8, 59, 40
10, 455904, Note_off_c, 8, 59, 64
10, 456480, Note_on_c, 8, 60, 40
10, 456576, Note_off_c, 8, 60, 64
10, 456720, Note_on_c, 8, 71, 40
10, 456840, Note_off_c, 8, 71, 64
10, 456840, Note_on_c, 8, 72, 40
10, 456960, Note_off_c, 8, 72, 64
10, 456960, Note_on_c, 8, 74, 40
10, 457056, Note_off_c, 8, 74, 64
10, 457200, Note_on_c, 8, 72, 40
10, 457296, Note_off_c, 8, 72, 64
10, 457440, Note_on_c, 8, 71, 40
10, 457824, Note_off_c, 8, 71, 64
10, 458400, Note_on_c, 8, 72, 40
10, 458496, Note_off_c, 8, 72, 64
10, 458640, Note_on_c, 8, 65, 40
10, 458760, Note_off_c, 8, 65, 64
10, 458760, Note_on_c, 8, 64, 40
10, 458880, Note_off_c, 8, 64, 64
10, 458880, Note_on_c, 8, 62, 40
10, 458976, Note_off_c, 8, 62, 64
10, 459120, Note_on_c, 8, 64, 40
10, 459216, Note_off_c, 8, 64, 64
10, 459360, Note_on_c, 8, 60, 40
10, 459744, Note_off_c, 8, 60, 64
10, 460320, Note_on_c, 8, 60, 60
10, 460416, Note_off_c, 8, 60, 64
10, 460560, Note_on_c, 8, 76, 60
10, 460656, Note_off_c, 8, 76, 64
10, 460800, Note_on_c, 8, 74, 60
10, 461040, Note_off_c, 8, 74, 64
10, 461040, Note_on_c, 8, 76, 60
10, 461160, Note_off_c, 8, 76, 64
10, 461160, Note_on_c, 8, 74, 60
10, 461280, Note_off_c, 8, 74, 64
10, 461280, Note_on_c, 8, 72, 60
10, 461376, Note_off_c, 8, 72, 64
10, 461520, Note_on_c, 8, 76, 60
10, 461616, Note_off_c, 8, 76, 64
10, 461760, Note_on_c, 8, 77, 60
10, 462000, Note_off_c, 8, 77, 64
10, 462000, Note_on_c, 8, 79, 60
10, 462120, Note_off_c, 8, 79, 64
10, 462120, Note_on_c, 8, 77, 60
10, 462240, Note_off_c, 8, 77, 64
10, 462240, Note_on_c, 8, 76, 40
10, 462336, Note_off_c, 8, 76, 64
10, 462480, Note_on_c, 8, 76, 42
10, 462576, Note_off_c, 8, 76, 64
10, 462720, Note_on_c, 8, 74, 43
10, 462960, Note_off_c, 8, 74, 64
10, 462960, Note_on_c, 8, 76, 45
10, 463080, Note_off_c, 8, 76, 64
10, 463080, Note_on_c, 8, 74, 46
10, 463200, Note_off_c, 8, 74, 64
10, 463200, Note_on_c, 8, 72, 47
10, 463296, Note_off_c, 8, 72, 64
10, 463440, Note_on_c, 8, 76, 49
10, 463536, Note_off_c, 8, 76, 64
10, 463680, Note_on_c, 8, 77, 50
10, 463920, Note_off_c, 8, 77, 64
10, 463920, Note_on_c, 8, 79, 52
10, 464040, Note_off_c, 8, 79, 64
10, 464040, Note_on_c, 8, 77, 53
10, 464160, Note_off_c, 8, 77, 64
10, 464160, Note_on_c, 8, 74, 65
10, 464256, Note_off_c, 8, 74, 64
10, 464400, Note_on_c, 8, 79, 67
10, 464496, Note_off_c, 8, 79, 64
10, 464640, Note_on_c, 8, 77, 68
10, 464880, Note_off_c, 8, 77, 64
10, 464880, Note_on_c, 8, 79, 71
10, 465000, Note_off_c, 8, 79, 64
10, 465000, Note_on_c, 8, 77, 72
10, 465120, Note_off_c, 8, 77, 64
10, 465120, Note_on_c, 8, 79, 73
10, 465216, Note_off_c, 8, 79, 64
10, 465360, Note_on_c, 8, 76, 76
10, 465456, Note_off_c, 8, 76, 64
10, 465600, Note_on_c, 8, 76, 77
10, 465840, Note_off_c, 8, 76, 64
10, 465840, Note_on_c, 8, 77, 79
10, 465960, Note_off_c, 8, 77, 64
10, 465960, Note_on_c, 8, 76, 80
10, 466080, Note_off_c, 8, 76, 64
10, 466080, Note_on_c, 8, 74, 82
10, 466176, Note_off_c, 8, 74, 64
10, 466320, Note_on_c, 8, 79, 84
10, 466416, Note_off_c, 8, 79, 64
10, 466560, Note_on_c, 8, 77, 85
10, 466800, Note_off_c, 8, 77, 64
10, 466800, Note_on_c, 8, 79, 88
10, 466920, Note_off_c, 8, 79, 64
10, 466920, Note_on_c, 8, 77, 89
10, 467040, Note_off_c, 8, 77, 64
10, 467040, Note_on_c, 8, 79, 90
10, 467136, Note_off_c, 8, 79, 64
10, 467280, Note_on_c, 8, 76, 92
10, 467376, Note_off_c, 8, 76, 64
10, 467520, Note_on_c, 8, 76, 94
10, 467760, Note_off_c, 8, 76, 64
10, 467760, Note_on_c, 8, 77, 96
10, 467880, Note_off_c, 8, 77, 64
10, 467880, Note_on_c, 8, 76, 97
10, 468000, Note_off_c, 8, 76, 64
10, 468000, Note_on_c, 8, 71, 118
10, 468096, Note_off_c, 8, 71, 64
10, 468240, Note_on_c, 8, 76, 121
10, 468336, Note_off_c, 8, 76, 64
10, 468480, Note_on_c, 8, 74, 122
10, 468720, Note_off_c, 8, 74, 64
10, 468720, Note_on_c, 8, 76, 125
10, 468840, Note_off_c, 8, 76, 64
10, 468840, Note_on_c, 8, 74, 127
10, 468960, Note_off_c, 8, 74, 64
10, 468960, Note_on_c, 8, 76, 127
10, 469056, Note_off_c, 8, 76, 64
10, 469200, Note_on_c, 8, 72, 127
10, 469296, Note_off_c, 8, 72, 64
10, 469440, Note_on_c, 8, 72, 127
10, 469680, Note_off_c, 8, 72, 64
10, 469680, Note_on_c, 8, 74, 127
10, 469800, Note_off_c, 8, 74, 64
10, 469800, Note_on_c, 8, 72, 127
10, 469920, Note_off_c, 8, 72, 64
10, 469920, Note_on_c, 8, 71, 115
10, 470016, Note_off_c, 8, 71, 64
10, 470160, Note_on_c, 8, 76, 118
10, 470256, Note_off_c, 8, 76, 64
10, 470400, Note_on_c, 8, 74, 119
10, 470640, Note_off_c, 8, 74, 64
10, 470640, Note_on_c, 8, 76, 121
10, 470760, Note_off_c, 8, 76, 64
10, 470760, Note_on_c, 8, 74, 122
10, 470880, Note_off_c, 8, 74, 64
10, 470880, Note_on_c, 8, 76, 124
10, 470994, Note_off_c, 8, 76, 64
10, 471000, Note_on_c, 8, 76, 125
10, 471096, Note_off_c, 8, 76, 64
10, 471120, Note_on_c, 8, 77, 126
10, 471216, Note_off_c, 8, 77, 64
10, 471240, Note_on_c, 8, 79, 126
10, 471336, Note_off_c, 8, 79, 64
10, 471360, Note_on_c, 8, 69, 106
10, 471456, Note_off_c, 8, 69, 64
10, 471480, Note_on_c, 8, 81, 107
10, 471576, Note_off_c, 8, 81, 64
10, 471600, Note_on_c, 8, 81, 108
10, 471696, Note_off_c, 8, 81, 64
10, 471720, Note_on_c, 8, 81, 109
10, 471816, Note_off_c, 8, 81, 64
10, 471840, Note_on_c, 8, 69, 99
10, 471840, Note_on_c, 8, 81, 99
10, 471936, Note_off_c, 8, 81, 64
10, 471936, Note_off_c, 8, 69, 64
10, 471960, Note_on_c, 8, 81, 99
10, 471960, Note_on_c, 8, 69, 99
10, 472056, Note_off_c, 8, 69, 64
10, 472056, Note_off_c, 8, 81, 64
10, 472080, Note_on_c, 8, 81, 99
10, 472080, Note_on_c, 8, 69, 99
10, 472176, Note_off_c, 8, 69, 64
10, 472176, Note_off_c, 8, 81, 64
10, 472200, Note_on_c, 8, 81, 99
10, 472200, Note_on_c, 8, 69, 99
10, 472296, Note_off_c, 8, 69, 64
10, 472296, Note_off_c, 8, 81, 64
10, 472320, Note_on_c, 8, 81, 99
10, 472320, Note_on_c, 8, 69, 99
10, 472416, Note_off_c, 8, 69, 64
10, 472416, Note_off_c, 8, 81, 64
10, 472440, Note_on_c, 8, 81, 99
10, 472440, Note_on_c, 8, 69, 99
10, 472536, Note_off_c, 8, 69, 64
10, 472536, Note_off_c, 8, 81, 64
10, 472560, Note_on_c, 8, 69, 99
10, 472560, Note_on_c, 8, 81, 99
10, 472656, Note_off_c, 8, 81, 64
10, 472656, Note_off_c, 8, 69, 64
10, 472680, Note_on_c, 8, 81, 99
10, 472680, Note_on_c, 8, 69, 99
10, 472776, Note_off_c, 8, 69, 64
10, 472776, Note_off_c, 8, 81, 64
10, 472800, Note_on_c, 8, 69, 99
10, 472800, Note_on_c, 8, 81, 99
10, 472896, Note_off_c, 8, 81, 64
10, 472896, Note_off_c, 8, 69, 64
10, 472920, Note_on_c, 8, 81, 99
10, 472920, Note_on_c, 8, 69, 99
10, 473016, Note_off_c, 8, 69, 64
10, 473016, Note_off_c, 8, 81, 64
10, 473040, Note_on_c, 8, 81, 99
10, 473040, Note_on_c, 8, 69, 99
10, 473136, Note_off_c, 8, 69, 64
10, 473136, Note_off_c, 8, 81, 64
10, 473160, Note_on_c, 8, 69, 99
10, 473160, Note_on_c, 8, 81, 99
10, 473256, Note_off_c, 8, 81, 64
10, 473256, Note_off_c, 8, 69, 64
10, 473280, Note_on_c, 8, 70, 99
10, 473280, Note_on_c, 8, 82, 99
10, 473376, Note_off_c, 8, 82, 64
10, 473376, Note_off_c, 8, 70, 64
10, 473400, Note_on_c, 8, 70, 99
10, 473400, Note_on_c, 8, 82, 99
10, 473496, Note_off_c, 8, 82, 64
10, 473496, Note_off_c, 8, 70, 64
10, 473520, Note_on_c, 8, 82, 99
10, 473520, Note_on_c, 8, 70, 99
10, 473616, Note_off_c, 8, 70, 64
10, 473616, Note_off_c, 8, 82, 64
10, 473640, Note_on_c, 8, 82, 99
10, 473640, Note_on_c, 8, 70, 99
10, 473736, Note_off_c, 8, 70, 64
10, 473736, Note_off_c, 8, 82, 64
10, 473760, Note_on_c, 8, 67, 99
10, 473760, Note_on_c, 8, 70, 99
10, 473856, Note_off_c, 8, 70, 64
10, 473856, Note_off_c, 8, 67, 64
10, 473880, Note_on_c, 8, 70, 99
10, 473880, Note_on_c, 8, 67, 99
10, 473976, Note_off_c, 8, 67, 64
10, 473976, Note_off_c, 8, 70, 64
10, 474000, Note_on_c, 8, 70, 99
10, 474000, Note_on_c, 8, 67, 99
10, 474096, Note_off_c, 8, 67, 64
10, 474096, Note_off_c, 8, 70, 64
10, 474120, Note_on_c, 8, 67, 99
10, 474120, Note_on_c, 8, 70, 99
10, 474216, Note_off_c, 8, 70, 64
10, 474216, Note_off_c, 8, 67, 64
10, 474240, Note_on_c, 8, 67, 99
10, 474240, Note_on_c, 8, 70, 99
10, 474336, Note_off_c, 8, 70, 64
10, 474336, Note_off_c, 8, 67, 64
10, 474360, Note_on_c, 8, 70, 99
10, 474360, Note_on_c, 8, 67, 99
10, 474456, Note_off_c, 8, 67, 64
10, 474456, Note_off_c, 8, 70, 64
10, 474480, Note_on_c, 8, 67, 99
10, 474480, Note_on_c, 8, 70, 99
10, 474576, Note_off_c, 8, 70, 64
10, 474576, Note_off_c, 8, 67, 64
10, 474600, Note_on_c, 8, 70, 99
10, 474600, Note_on_c, 8, 67, 99
10, 474696, Note_off_c, 8, 67, 64
10, 474696, Note_off_c, 8, 70, 64
10, 474720, Note_on_c, 8, 67, 99
10, 474720, Note_on_c, 8, 70, 99
10, 474816, Note_off_c, 8, 70, 64
10, 474816, Note_off_c, 8, 67, 64
10, 474840, Note_on_c, 8, 70, 99
10, 474840, Note_on_c, 8, 67, 99
10, 474936, Note_off_c, 8, 67, 64
10, 474936, Note_off_c, 8, 70, 64
10, 474960, Note_on_c, 8, 67, 99
10, 474960, Note_on_c, 8, 70, 99
10, 475056, Note_off_c, 8, 70, 64
10, 475056, Note_off_c, 8, 67, 64
10, 475080, Note_on_c, 8, 70, 99
10, 475080, Note_on_c, 8, 67, 99
10, 475176, Note_off_c, 8, 67, 64
10, 475176, Note_off_c, 8, 70, 64
10, 475200, Note_on_c, 8, 70, 99
10, 475200, Note_on_c, 8, 67, 99
10, 475296, Note_off_c, 8, 67, 64
10, 475296, Note_off_c, 8, 70, 64
10, 475320, Note_on_c, 8, 70, 99
10, 475320, Note_on_c, 8, 67, 99
10, 475416, Note_off_c, 8, 67, 64
10, 475416, Note_off_c, 8, 70, 64
10, 475440, Note_on_c, 8, 67, 99
10, 475440, Note_on_c, 8, 70, 99
10, 475536, Note_off_c, 8, 70, 64
10, 475536, Note_off_c, 8, 67, 64
10, 475560, Note_on_c, 8, 67, 99
10, 475560, Note_on_c, 8, 70, 99
10, 475656, Note_off_c, 8, 70, 64
10, 475656, Note_off_c, 8, 67, 64
10, 475680, Note_on_c, 8, 69, 99
10, 475776, Note_off_c, 8, 69, 64
10, 475800, Note_on_c, 8, 81, 99
10, 475800, Note_on_c, 8, 69, 99
10, 475896, Note_off_c, 8, 69, 64
10, 475896, Note_off_c, 8, 81, 64
10, 475920, Note_on_c, 8, 81, 99
10, 475920, Note_on_c, 8, 69, 99
10, 476016, Note_off_c, 8, 69, 64
10, 476016, Note_off_c, 8, 81, 64
10, 476040, Note_on_c, 8, 81, 99
10, 476040, Note_on_c, 8, 69, 99
10, 476136, Note_off_c, 8, 69, 64
10, 476136, Note_off_c, 8, 81, 64
10, 476160, Note_on_c, 8, 69, 99
10, 476160, Note_on_c, 8, 81, 99
10, 476256, Note_off_c, 8, 81, 64
10, 476256, Note_off_c, 8, 69, 64
10, 476280, Note_on_c, 8, 69, 99
10, 476280, Note_on_c, 8, 81, 99
10, 476376, Note_off_c, 8, 81, 64
10, 476376, Note_off_c, 8, 69, 64
10, 476400, Note_on_c, 8, 81, 99
10, 476400, Note_on_c, 8, 69, 99
10, 476496, Note_off_c, 8, 69, 64
10, 476496, Note_off_c, 8, 81, 64
10, 476520, Note_on_c, 8, 81, 99
10, 476520, Note_on_c, 8, 69, 99
10, 476616, Note_off_c, 8, 69, 64
10, 476616, Note_off_c, 8, 81, 64
10, 476640, Note_on_c, 8, 81, 99
10, 476640, Note_on_c, 8, 69, 99
10, 476736, Note_off_c, 8, 69, 64
10, 476736, Note_off_c, 8, 81, 64
10, 476760, Note_on_c, 8, 81, 99
10, 476760, Note_on_c, 8, 69, 99
10, 476856, Note_off_c, 8, 69, 64
10, 476856, Note_off_c, 8, 81, 64
10, 476880, Note_on_c, 8, 69, 99
10, 476880, Note_on_c, 8, 81, 99
10, 476976, Note_off_c, 8, 81, 64
10, 476976, Note_off_c, 8, 69, 64
10, 477000, Note_on_c, 8, 81, 99
10, 477000, Note_on_c, 8, 69, 99
10, 477096, Note_off_c, 8, 69, 64
10, 477096, Note_off_c, 8, 81, 64
10, 477120, Note_on_c, 8, 82, 99
10, 477120, Note_on_c, 8, 70, 99
10, 477216, Note_off_c, 8, 70, 64
10, 477216, Note_off_c, 8, 82, 64
10, 477240, Note_on_c, 8, 70, 99
10, 477240, Note_on_c, 8, 82, 99
10, 477336, Note_off_c, 8, 82, 64
10, 477336, Note_off_c, 8, 70, 64
10, 477360, Note_on_c, 8, 82, 99
10, 477360, Note_on_c, 8, 70, 99
10, 477456, Note_off_c, 8, 70, 64
10, 477456, Note_off_c, 8, 82, 64
10, 477480, Note_on_c, 8, 82, 99
10, 477480, Note_on_c, 8, 70, 99
10, 477576, Note_off_c, 8, 70, 64
10, 477576, Note_off_c, 8, 82, 64
10, 477600, Note_on_c, 8, 67, 99
10, 477600, Note_on_c, 8, 70, 99
10, 477696, Note_off_c, 8, 70, 64
10, 477696, Note_off_c, 8, 67, 64
10, 477720, Note_on_c, 8, 67, 99
10, 477720, Note_on_c, 8, 70, 99
10, 477816, Note_off_c, 8, 70, 64
10, 477816, Note_off_c, 8, 67, 64
10, 477840, Note_on_c, 8, 70, 99
10, 477840, Note_on_c, 8, 67, 99
10, 477936, Note_off_c, 8, 67, 64
10, 477936, Note_off_c, 8, 70, 64
10, 477960, Note_on_c, 8, 70, 99
10, 477960, Note_on_c, 8, 67, 99
10, 478056, Note_off_c, 8, 67, 64
10, 478056, Note_off_c, 8, 70, 64
10, 478080, Note_on_c, 8, 67, 99
10, 478080, Note_on_c, 8, 70, 99
10, 478176, Note_off_c, 8, 70, 64
10, 478176, Note_off_c, 8, 67, 64
10, 478200, Note_on_c, 8, 67, 99
10, 478200, Note_on_c, 8, 70, 99
10, 478296, Note_off_c, 8, 70, 64
10, 478296, Note_off_c, 8, 67, 64
10, 478320, Note_on_c, 8, 67, 99
10, 478320, Note_on_c, 8, 70, 99
10, 478416, Note_off_c, 8, 70, 64
10, 478416, Note_off_c, 8, 67, 64
10, 478440, Note_on_c, 8, 70, 99
10, 478440, Note_on_c, 8, 67, 99
10, 478536, Note_off_c, 8, 67, 64
10, 478536, Note_off_c, 8, 70, 64
10, 478560, Note_on_c, 8, 69, 99
10, 478560, Note_on_c, 8, 65, 99
10, 478656, Note_off_c, 8, 65, 64
10, 478656, Note_off_c, 8, 69, 64
10, 478680, Note_on_c, 8, 69, 99
10, 478776, Note_off_c, 8, 69, 64
10, 478800, Note_on_c, 8, 69, 99
10, 478896, Note_off_c, 8, 69, 64
10, 478920, Note_on_c, 8, 69, 99
10, 479016, Note_off_c, 8, 69, 64
10, 479040, Note_on_c, 8, 69, 99
10, 479136, Note_off_c, 8, 69, 64
10, 479160, Note_on_c, 8, 69, 99
10, 479256, Note_off_c, 8, 69, 64
10, 479280, Note_on_c, 8, 69, 99
10, 479376, Note_off_c, 8, 69, 64
10, 479400, Note_on_c, 8, 69, 99
10, 479496, Note_off_c, 8, 69, 64
10, 479520, Note_on_c, 8, 62, 99
10, 479616, Note_off_c, 8, 62, 64
10, 479640, Note_on_c, 8, 67, 99
10, 479736, Note_off_c, 8, 67, 64
10, 479760, Note_on_c, 8, 67, 99
10, 479856, Note_off_c, 8, 67, 64
10, 479880, Note_on_c, 8, 67, 99
10, 479976, Note_off_c, 8, 67, 64
10, 480000, Note_on_c, 8, 67, 99
10, 480096, Note_off_c, 8, 67, 64
10, 480120, Note_on_c, 8, 67, 99
10, 480216, Note_off_c, 8, 67, 64
10, 480240, Note_on_c, 8, 67, 99
10, 480336, Note_off_c, 8, 67, 64
10, 480360, Note_on_c, 8, 67, 99
10, 480456, Note_off_c, 8, 67, 64
10, 480480, Note_on_c, 8, 67, 99
10, 480576, Note_off_c, 8, 67, 64
10, 480600, Note_on_c, 8, 67, 99
10, 480696, Note_off_c, 8, 67, 64
10, 480720, Note_on_c, 8, 67, 99
10, 480816, Note_off_c, 8, 67, 64
10, 480840, Note_on_c, 8, 67, 99
10, 480936, Note_off_c, 8, 67, 64
10, 480960, Note_on_c, 8, 67, 99
10, 481056, Note_off_c, 8, 67, 64
10, 481080, Note_on_c, 8, 67, 99
10, 481176, Note_off_c, 8, 67, 64
10, 481200, Note_on_c, 8, 67, 99
10, 481296, Note_off_c, 8, 67, 64
10, 481320, Note_on_c, 8, 67, 99
10, 481416, Note_off_c, 8, 67, 64
10, 481440, Note_on_c, 8, 67, 99
10, 481536, Note_off_c, 8, 67, 64
10, 481560, Note_on_c, 8, 64, 99
10, 481656, Note_off_c, 8, 64, 64
10, 481680, Note_on_c, 8, 65, 99
10, 481776, Note_off_c, 8, 65, 64
10, 481800, Note_on_c, 8, 67, 99
10, 481896, Note_off_c, 8, 67, 64
10, 481920, Note_on_c, 8, 69, 127
10, 482016, Note_off_c, 8, 69, 64
10, 482040, Note_on_c, 8, 67, 99
10, 482136, Note_off_c, 8, 67, 64
10, 482160, Note_on_c, 8, 65, 99
10, 482256, Note_off_c, 8, 65, 64
10, 482280, Note_on_c, 8, 64, 99
10, 482376, Note_off_c, 8, 64, 64
10, 482400, Note_on_c, 8, 62, 99
10, 482496, Note_off_c, 8, 62, 64
10, 482520, Note_on_c, 8, 62, 99
10, 482616, Note_off_c, 8, 62, 64
10, 482640, Note_on_c, 8, 64, 99
10, 482736, Note_off_c, 8, 64, 64
10, 482760, Note_on_c, 8, 65, 99
10, 482856, Note_off_c, 8, 65, 64
10, 482880, Note_on_c, 8, 67, 127
10, 482976, Note_off_c, 8, 67, 64
10, 483000, Note_on_c, 8, 65, 99
10, 483096, Note_off_c, 8, 65, 64
10, 483120, Note_on_c, 8, 67, 99
10, 483216, Note_off_c, 8, 67, 64
10, 483240, Note_on_c, 8, 55, 99
10, 483336, Note_off_c, 8, 55, 64
10, 483360, Note_on_c, 8, 60, 99
10, 483456, Note_off_c, 8, 60, 64
10, 483480, Note_on_c, 8, 60, 99
10, 483576, Note_off_c, 8, 60, 64
10, 483600, Note_on_c, 8, 62, 99
10, 483696, Note_off_c, 8, 62, 64
10, 483720, Note_on_c, 8, 64, 99
10, 483816, Note_off_c, 8, 64, 64
10, 483840, Note_on_c, 8, 65, 127
10, 483936, Note_off_c, 8, 65, 64
10, 483960, Note_on_c, 8, 64, 99
10, 484056, Note_off_c, 8, 64, 64
10, 484080, Note_on_c, 8, 62, 99
10, 484176, Note_off_c, 8, 62, 64
10, 484200, Note_on_c, 8, 60, 99
10, 484296, Note_off_c, 8, 60, 64
10, 484320, Note_on_c, 8, 59, 99
10, 484416, Note_off_c, 8, 59, 64
10, 484440, Note_on_c, 8, 71, 99
10, 484536, Note_off_c, 8, 71, 64
10, 484560, Note_on_c, 8, 72, 99
10, 484656, Note_off_c, 8, 72, 64
10, 484680, Note_on_c, 8, 74, 99
10, 484776, Note_off_c, 8, 74, 64
10, 484800, Note_on_c, 8, 76, 127
10, 484896, Note_off_c, 8, 76, 64
10, 484920, Note_on_c, 8, 74, 99
10, 485016, Note_off_c, 8, 74, 64
10, 485040, Note_on_c, 8, 76, 99
10, 485136, Note_off_c, 8, 76, 64
10, 485160, Note_on_c, 8, 64, 99
10, 485256, Note_off_c, 8, 64, 64
10, 485280, Note_on_c, 8, 69, 99
10, 485376, Note_off_c, 8, 69, 64
10, 485400, Note_on_c, 8, 69, 99
10, 485496, Note_off_c, 8, 69, 64
10, 485520, Note_on_c, 8, 71, 99
10, 485616, Note_off_c, 8, 71, 64
10, 485640, Note_on_c, 8, 72, 99
10, 485736, Note_off_c, 8, 72, 64
10, 485760, Note_on_c, 8, 74, 127
10, 485856, Note_off_c, 8, 74, 64
10, 485880, Note_on_c, 8, 72, 99
10, 485976, Note_off_c, 8, 72, 64
10, 486000, Note_on_c, 8, 71, 99
10, 486096, Note_off_c, 8, 71, 64
10, 486120, Note_on_c, 8, 69, 99
10, 486216, Note_off_c, 8, 69, 64
10, 486240, Note_on_c, 8, 67, 99
10, 486336, Note_off_c, 8, 67, 64
10, 486360, Note_on_c, 8, 67, 99
10, 486456, Note_off_c, 8, 67, 64
10, 486480, Note_on_c, 8, 69, 99
10, 486576, Note_off_c, 8, 69, 64
10, 486600, Note_on_c, 8, 71, 99
10, 486696, Note_off_c, 8, 71, 64
10, 486720, Note_on_c, 8, 72, 99
10, 486816, Note_off_c, 8, 72, 64
10, 486840, Note_on_c, 8, 72, 99
10, 486936, Note_off_c, 8, 72, 64
10, 486960, Note_on_c, 8, 74, 99
10, 487056, Note_off_c, 8, 74, 64
10, 487080, Note_on_c, 8, 76, 99
10, 487176, Note_off_c, 8, 76, 64
10, 487200, Note_on_c, 8, 74, 99
10, 487296, Note_off_c, 8, 74, 64
10, 487320, Note_on_c, 8, 74, 99
10, 487416, Note_off_c, 8, 74, 64
10, 487440, Note_on_c, 8, 72, 99
10, 487536, Note_off_c, 8, 72, 64
10, 487560, Note_on_c, 8, 74, 99
10, 487656, Note_off_c, 8, 74, 64
10, 487680, Note_on_c, 8, 76, 127
10, 487776, Note_off_c, 8, 76, 64
10, 487800, Note_on_c, 8, 76, 99
10, 487896, Note_off_c, 8, 76, 64
10, 487920, Note_on_c, 8, 74, 99
10, 488016, Note_off_c, 8, 74, 64
10, 488040, Note_on_c, 8, 74, 99
10, 488136, Note_off_c, 8, 74, 64
10, 488160, Note_on_c, 8, 72, 99
10, 488256, Note_off_c, 8, 72, 64
10, 488280, Note_on_c, 8, 72, 99
10, 488376, Note_off_c, 8, 72, 64
10, 488400, Note_on_c, 8, 71, 99
10, 488496, Note_off_c, 8, 71, 64
10, 488520, Note_on_c, 8, 72, 99
10, 488616, Note_off_c, 8, 72, 64
10, 488640, Note_on_c, 8, 74, 127
10, 488736, Note_off_c, 8, 74, 64
10, 488760, Note_on_c, 8, 74, 99
10, 488856, Note_off_c, 8, 74, 64
10, 488880, Note_on_c, 8, 72, 99
10, 488976, Note_off_c, 8, 72, 64
10, 489000, Note_on_c, 8, 72, 99
10, 489096, Note_off_c, 8, 72, 64
10, 489120, Note_on_c, 8, 74, 99
10, 489216, Note_off_c, 8, 74, 64
10, 489240, Note_on_c, 8, 74, 99
10, 489336, Note_off_c, 8, 74, 64
10, 489360, Note_on_c, 8, 72, 99
10, 489456, Note_off_c, 8, 72, 64
10, 489480, Note_on_c, 8, 74, 99
10, 489576, Note_off_c, 8, 74, 64
10, 489600, Note_on_c, 8, 76, 127
10, 489696, Note_off_c, 8, 76, 64
10, 489720, Note_on_c, 8, 76, 99
10, 489816, Note_off_c, 8, 76, 64
10, 489840, Note_on_c, 8, 74, 99
10, 489936, Note_off_c, 8, 74, 64
10, 489960, Note_on_c, 8, 74, 99
10, 490056, Note_off_c, 8, 74, 64
10, 490080, Note_on_c, 8, 72, 99
10, 490176, Note_off_c, 8, 72, 64
10, 490200, Note_on_c, 8, 72, 99
10, 490296, Note_off_c, 8, 72, 64
10, 490320, Note_on_c, 8, 71, 99
10, 490416, Note_off_c, 8, 71, 64
10, 490440, Note_on_c, 8, 72, 99
10, 490536, Note_off_c, 8, 72, 64
10, 490560, Note_on_c, 8, 74, 127
10, 490656, Note_off_c, 8, 74, 64
10, 490680, Note_on_c, 8, 74, 99
10, 490776, Note_off_c, 8, 74, 64
10, 490800, Note_on_c, 8, 72, 99
10, 490896, Note_off_c, 8, 72, 64
10, 490920, Note_on_c, 8, 72, 99
10, 491016, Note_off_c, 8, 72, 64
10, 491040, Note_on_c, 8, 74, 99
10, 491136, Note_off_c, 8, 74, 64
10, 491160, Note_on_c, 8, 74, 99
10, 491256, Note_off_c, 8, 74, 64
10, 491280, Note_on_c, 8, 72, 99
10, 491376, Note_off_c, 8, 72, 64
10, 491400, Note_on_c, 8, 74, 99
10, 491496, Note_off_c, 8, 74, 64
10, 491520, Note_on_c, 8, 76, 127
10, 491616, Note_off_c, 8, 76, 64
10, 491640, Note_on_c, 8, 76, 99
10, 491736, Note_off_c, 8, 76, 64
10, 491760, Note_on_c, 8, 74, 99
10, 491856, Note_off_c, 8, 74, 64
10, 491880, Note_on_c, 8, 74, 99
10, 491976, Note_off_c, 8, 74, 64
10, 492000, Note_on_c, 8, 72, 99
10, 492096, Note_off_c, 8, 72, 64
10, 492120, Note_on_c, 8, 72, 99
10, 492216, Note_off_c, 8, 72, 64
10, 492240, Note_on_c, 8, 71, 99
10, 492336, Note_off_c, 8, 71, 64
10, 492360, Note_on_c, 8, 72, 99
10, 492456, Note_off_c, 8, 72, 64
10, 492480, Note_on_c, 8, 74, 127
10, 492576, Note_off_c, 8, 74, 64
10, 492600, Note_on_c, 8, 74, 99
10, 492696, Note_off_c, 8, 74, 64
10, 492720, Note_on_c, 8, 72, 99
10, 492816, Note_off_c, 8, 72, 64
10, 492840, Note_on_c, 8, 72, 99
10, 492936, Note_off_c, 8, 72, 64
10, 492960, Note_on_c, 8, 74, 99
10, 493056, Note_off_c, 8, 74, 64
10, 493080, Note_on_c, 8, 74, 99
10, 493176, Note_off_c, 8, 74, 64
10, 493200, Note_on_c, 8, 72, 99
10, 493296, Note_off_c, 8, 72, 64
10, 493320, Note_on_c, 8, 74, 99
10, 493416, Note_off_c, 8, 74, 64
10, 493440, Note_on_c, 8, 76, 127
10, 493536, Note_off_c, 8, 76, 64
10, 493560, Note_on_c, 8, 76, 99
10, 493656, Note_off_c, 8, 76, 64
10, 493680, Note_on_c, 8, 74, 99
10, 493776, Note_off_c, 8, 74, 64
10, 493800, Note_on_c, 8, 74, 99
10, 493896, Note_off_c, 8, 74, 64
10, 493920, Note_on_c, 8, 72, 127
10, 494016, Note_off_c, 8, 72, 64
10, 494040, Note_on_c, 8, 72, 99
10, 494136, Note_off_c, 8, 72, 64
10, 494160, Note_on_c, 8, 71, 99
10, 494256, Note_off_c, 8, 71, 64
10, 494280, Note_on_c, 8, 72, 99
10, 494376, Note_off_c, 8, 72, 64
10, 494400, Note_on_c, 8, 74, 99
10, 494496, Note_off_c, 8, 74, 64
10, 494520, Note_on_c, 8, 74, 99
10, 494616, Note_off_c, 8, 74, 64
10, 494640, Note_on_c, 8, 72, 99
10, 494736, Note_off_c, 8, 72, 64
10, 494760, Note_on_c, 8, 72, 99
10, 494856, Note_off_c, 8, 72, 64
10, 494880, Note_on_c, 8, 72, 127
10, 494976, Note_off_c, 8, 72, 64
10, 495000, Note_on_c, 8, 72, 99
10, 495096, Note_off_c, 8, 72, 64
10, 495120, Note_on_c, 8, 71, 99
10, 495216, Note_off_c, 8, 71, 64
10, 495240, Note_on_c, 8, 72, 99
10, 495336, Note_off_c, 8, 72, 64
10, 495360, Note_on_c, 8, 74, 99
10, 495456, Note_off_c, 8, 74, 64
10, 495480, Note_on_c, 8, 74, 99
10, 495576, Note_off_c, 8, 74, 64
10, 495600, Note_on_c, 8, 72, 99
10, 495696, Note_off_c, 8, 72, 64
10, 495720, Note_on_c, 8, 72, 99
10, 495816, Note_off_c, 8, 72, 64
10, 495840, Note_on_c, 8, 72, 127
10, 495936, Note_off_c, 8, 72, 64
10, 495960, Note_on_c, 8, 72, 99
10, 496056, Note_off_c, 8, 72, 64
10, 496080, Note_on_c, 8, 71, 99
10, 496176, Note_off_c, 8, 71, 64
10, 496200, Note_on_c, 8, 72, 99
10, 496296, Note_off_c, 8, 72, 64
10, 496320, Note_on_c, 8, 74, 99
10, 496416, Note_off_c, 8, 74, 64
10, 496440, Note_on_c, 8, 74, 99
10, 496536, Note_off_c, 8, 74, 64
10, 496560, Note_on_c, 8, 72, 99
10, 496656, Note_off_c, 8, 72, 64
10, 496680, Note_on_c, 8, 72, 99
10, 496776, Note_off_c, 8, 72, 64
10, 496800, Note_on_c, 8, 72, 127
10, 496896, Note_off_c, 8, 72, 64
10, 496920, Note_on_c, 8, 72, 99
10, 497016, Note_off_c, 8, 72, 64
10, 497040, Note_on_c, 8, 71, 99
10, 497136, Note_off_c, 8, 71, 64
10, 497160, Note_on_c, 8, 72, 99
10, 497256, Note_off_c, 8, 72, 64
10, 497280, Note_on_c, 8, 74, 99
10, 497376, Note_off_c, 8, 74, 64
10, 497400, Note_on_c, 8, 74, 99
10, 497496, Note_off_c, 8, 74, 64
10, 497520, Note_on_c, 8, 72, 99
10, 497616, Note_off_c, 8, 72, 64
10, 497640, Note_on_c, 8, 72, 99
10, 497736, Note_off_c, 8, 72, 64
10, 497760, Note_on_c, 8, 72, 127
10, 497856, Note_off_c, 8, 72, 64
10, 497880, Note_on_c, 8, 60, 99
10, 497976, Note_off_c, 8, 60, 64
10, 498000, Note_on_c, 8, 62, 99
10, 498096, Note_off_c, 8, 62, 64
10, 498120, Note_on_c, 8, 64, 99
10, 498216, Note_off_c, 8, 64, 64
10, 498240, Note_on_c, 8, 65, 99
10, 498336, Note_off_c, 8, 65, 64
10, 498360, Note_on_c, 8, 67, 99
10, 498456, Note_off_c, 8, 67, 64
10, 498480, Note_on_c, 8, 69, 99
10, 498576, Note_off_c, 8, 69, 64
10, 498600, Note_on_c, 8, 71, 99
10, 498696, Note_off_c, 8, 71, 64
10, 498720, Note_on_c, 8, 72, 120
10, 499776, Note_off_c, 8, 72, 64
10, 499800, Note_on_c, 8, 64, 120
10, 499896, Note_off_c, 8, 64, 64
10, 499920, Note_on_c, 8, 65, 120
10, 500016, Note_off_c, 8, 65, 64
10, 500040, Note_on_c, 8, 67, 120
10, 500136, Note_off_c, 8, 67, 64
10, 500160, Note_on_c, 8, 69, 120
10, 500256, Note_off_c, 8, 69, 64
10, 500280, Note_on_c, 8, 71, 120
10, 500376, Note_off_c, 8, 71, 64
10, 500400, Note_on_c, 8, 72, 120
10, 500496, Note_off_c, 8, 72, 64
10, 500520, Note_on_c, 8, 74, 120
10, 500616, Note_off_c, 8, 74, 64
10, 500640, Note_on_c, 8, 76, 120
10, 501696, Note_off_c, 8, 76, 64
10, 501720, Note_on_c, 8, 67, 120
10, 501816, Note_off_c, 8, 67, 64
10, 501840, Note_on_c, 8, 69, 120
10, 501936, Note_off_c, 8, 69, 64
10, 501960, Note_on_c, 8, 71, 120
10, 502056, Note_off_c, 8, 71, 64
10, 502080, Note_on_c, 8, 72, 120
10, 502176, Note_off_c, 8, 72, 64
10, 502200, Note_on_c, 8, 74, 120
10, 502296, Note_off_c, 8, 74, 64
10, 502320, Note_on_c, 8, 76, 120
10, 502416, Note_off_c, 8, 76, 64
10, 502440, Note_on_c, 8, 77, 120
10, 502536, Note_off_c, 8, 77, 64
10, 502560, Note_on_c, 8, 67, 127
10, 502656, Note_off_c, 8, 67, 64
10, 519840, Note_on_c, 8, 74, 99
10, 519936, Note_off_c, 8, 74, 64
10, 519960, Note_on_c, 8, 74, 99
10, 520056, Note_off_c, 8, 74, 64
10, 520080, Note_on_c, 8, 72, 99
10, 520176, Note_off_c, 8, 72, 64
10, 520200, Note_on_c, 8, 72, 99
10, 520296, Note_off_c, 8, 72, 64
10, 520320, Note_on_c, 8, 76, 99
10, 520416, Note_off_c, 8, 76, 64
10, 520440, Note_on_c, 8, 76, 99
10, 520536, Note_off_c, 8, 76, 64
10, 520560, Note_on_c, 8, 74, 99
10, 520656, Note_off_c, 8, 74, 64
10, 520680, Note_on_c, 8, 74, 99
10, 520776, Note_off_c, 8, 74, 64
10, 520800, Note_on_c, 8, 72, 99
10, 520896, Note_off_c, 8, 72, 64
10, 520920, Note_on_c, 8, 72, 99
10, 521016, Note_off_c, 8, 72, 64
10, 521040, Note_on_c, 8, 71, 99
10, 521136, Note_off_c, 8, 71, 64
10, 521160, Note_on_c, 8, 71, 99
10, 521256, Note_off_c, 8, 71, 64
10, 521280, Note_on_c, 8, 74, 99
10, 521376, Note_off_c, 8, 74, 64
10, 521400, Note_on_c, 8, 74, 99
10, 521496, Note_off_c, 8, 74, 64
10, 521520, Note_on_c, 8, 72, 99
10, 521616, Note_off_c, 8, 72, 64
10, 521640, Note_on_c, 8, 72, 99
10, 521736, Note_off_c, 8, 72, 64
10, 521760, Note_on_c, 8, 71, 99
10, 521856, Note_off_c, 8, 71, 64
10, 521880, Note_on_c, 8, 71, 99
10, 521976, Note_off_c, 8, 71, 64
10, 522000, Note_on_c, 8, 69, 99
10, 522096, Note_off_c, 8, 69, 64
10, 522120, Note_on_c, 8, 69, 99
10, 522216, Note_off_c, 8, 69, 64
10, 522240, Note_on_c, 8, 72, 99
10, 522336, Note_off_c, 8, 72, 64
10, 522360, Note_on_c, 8, 72, 99
10, 522456, Note_off_c, 8, 72, 64
10, 522480, Note_on_c, 8, 71, 99
10, 522576, Note_off_c, 8, 71, 64
10, 522600, Note_on_c, 8, 71, 99
10, 522696, Note_off_c, 8, 71, 64
10, 522720, Note_on_c, 8, 72, 99
10, 522816, Note_off_c, 8, 72, 64
10, 522840, Note_on_c, 8, 72, 99
10, 522936, Note_off_c, 8, 72, 64
10, 522960, Note_on_c, 8, 71, 99
10, 523056, Note_off_c, 8, 71, 64
10, 523080, Note_on_c, 8, 71, 99
10, 523176, Note_off_c, 8, 71, 64
10, 523200, Note_on_c, 8, 74, 99
10, 523296, Note_off_c, 8, 74, 64
10, 523320, Note_on_c, 8, 74, 99
10, 523416, Note_off_c, 8, 74, 64
10, 523440, Note_on_c, 8, 72, 99
10, 523536, Note_off_c, 8, 72, 64
10, 523560, Note_on_c, 8, 72, 99
10, 523656, Note_off_c, 8, 72, 64
10, 523680, Note_on_c, 8, 74, 99
10, 523776, Note_off_c, 8, 74, 64
10, 523800, Note_on_c, 8, 74, 99
10, 523896, Note_off_c, 8, 74, 64
10, 523920, Note_on_c, 8, 72, 99
10, 524016, Note_off_c, 8, 72, 64
10, 524040, Note_on_c, 8, 72, 99
10, 524136, Note_off_c, 8, 72, 64
10, 524160, Note_on_c, 8, 76, 99
10, 524256, Note_off_c, 8, 76, 64
10, 524280, Note_on_c, 8, 76, 99
10, 524376, Note_off_c, 8, 76, 64
10, 524400, Note_on_c, 8, 74, 99
10, 524496, Note_off_c, 8, 74, 64
10, 524520, Note_on_c, 8, 74, 99
10, 524616, Note_off_c, 8, 74, 64
10, 524640, Note_on_c, 8, 72, 99
10, 524736, Note_off_c, 8, 72, 64
10, 524760, Note_on_c, 8, 72, 99
10, 524856, Note_off_c, 8, 72, 64
10, 524880, Note_on_c, 8, 71, 99
10, 524976, Note_off_c, 8, 71, 64
10, 525000, Note_on_c, 8, 71, 99
10, 525096, Note_off_c, 8, 71, 64
10, 525120, Note_on_c, 8, 74, 99
10, 525216, Note_off_c, 8, 74, 64
10, 525240, Note_on_c, 8, 74, 99
10, 525336, Note_off_c, 8, 74, 64
10, 525360, Note_on_c, 8, 72, 99
10, 525456, Note_off_c, 8, 72, 64
10, 525480, Note_on_c, 8, 72, 99
10, 525576, Note_off_c, 8, 72, 64
10, 525600, Note_on_c, 8, 71, 99
10, 525696, Note_off_c, 8, 71, 64
10, 525720, Note_on_c, 8, 71, 99
10, 525816, Note_off_c, 8, 71, 64
10, 525840, Note_on_c, 8, 69, 99
10, 525936, Note_off_c, 8, 69, 64
10, 525960, Note_on_c, 8, 69, 99
10, 526056, Note_off_c, 8, 69, 64
10, 526080, Note_on_c, 8, 72, 99
10, 526176, Note_off_c, 8, 72, 64
10, 526200, Note_on_c, 8, 72, 99
10, 526296, Note_off_c, 8, 72, 64
10, 526320, Note_on_c, 8, 71, 99
10, 526416, Note_off_c, 8, 71, 64
10, 526440, Note_on_c, 8, 71, 99
10, 526536, Note_off_c, 8, 71, 64
10, 526560, Note_on_c, 8, 72, 99
10, 526656, Note_off_c, 8, 72, 64
10, 526680, Note_on_c, 8, 72, 99
10, 526776, Note_off_c, 8, 72, 64
10, 526800, Note_on_c, 8, 71, 99
10, 526896, Note_off_c, 8, 71, 64
10, 526920, Note_on_c, 8, 71, 99
10, 527016, Note_off_c, 8, 71, 64
10, 527040, Note_on_c, 8, 74, 99
10, 527136, Note_off_c, 8, 74, 64
10, 527160, Note_on_c, 8, 74, 99
10, 527256, Note_off_c, 8, 74, 64
10, 527280, Note_on_c, 8, 72, 99
10, 527376, Note_off_c, 8, 72, 64
10, 527400, Note_on_c, 8, 72, 99
10, 527496, Note_off_c, 8, 72, 64
10, 527520, Note_on_c, 8, 76, 99
10, 527616, Note_off_c, 8, 76, 64
10, 527640, Note_on_c, 8, 76, 99
10, 527736, Note_off_c, 8, 76, 64
10, 527760, Note_on_c, 8, 74, 99
10, 527856, Note_off_c, 8, 74, 64
10, 527880, Note_on_c, 8, 74, 99
10, 527976, Note_off_c, 8, 74, 64
10, 528000, Note_on_c, 8, 77, 99
10, 528096, Note_off_c, 8, 77, 64
10, 528120, Note_on_c, 8, 77, 99
10, 528216, Note_off_c, 8, 77, 64
10, 528240, Note_on_c, 8, 74, 99
10, 528336, Note_off_c, 8, 74, 64
10, 528360, Note_on_c, 8, 74, 99
10, 528456, Note_off_c, 8, 74, 64
10, 528480, Note_on_c, 8, 74, 99
10, 528576, Note_off_c, 8, 74, 64
10, 528600, Note_on_c, 8, 74, 99
10, 528696, Note_off_c, 8, 74, 64
10, 528720, Note_on_c, 8, 72, 99
10, 528816, Note_off_c, 8, 72, 64
10, 528840, Note_on_c, 8, 72, 99
10, 528936, Note_off_c, 8, 72, 64
10, 528960, Note_on_c, 8, 76, 99
10, 529056, Note_off_c, 8, 76, 64
10, 529080, Note_on_c, 8, 76, 99
10, 529176, Note_off_c, 8, 76, 64
10, 529200, Note_on_c, 8, 72, 99
10, 529296, Note_off_c, 8, 72, 64
10, 529320, Note_on_c, 8, 72, 99
10, 529416, Note_off_c, 8, 72, 64
10, 529440, Note_on_c, 8, 72, 99
10, 529536, Note_off_c, 8, 72, 64
10, 529560, Note_on_c, 8, 72, 99
10, 529656, Note_off_c, 8, 72, 64
10, 529680, Note_on_c, 8, 71, 99
10, 529776, Note_off_c, 8, 71, 64
10, 529800, Note_on_c, 8, 71, 99
10, 529896, Note_off_c, 8, 71, 64
10, 529920, Note_on_c, 8, 74, 99
10, 530016, Note_off_c, 8, 74, 64
10, 530040, Note_on_c, 8, 74, 99
10, 530136, Note_off_c, 8, 74, 64
10, 530160, Note_on_c, 8, 71, 99
10, 530256, Note_off_c, 8, 71, 64
10, 530280, Note_on_c, 8, 71, 99
10, 530376, Note_off_c, 8, 71, 64
10, 530400, Note_on_c, 8, 74, 99
10, 530496, Note_off_c, 8, 74, 64
10, 530520, Note_on_c, 8, 74, 99
10, 530616, Note_off_c, 8, 74, 64
10, 530640, Note_on_c, 8, 72, 99
10, 530736, Note_off_c, 8, 72, 64
10, 530760, Note_on_c, 8, 72, 99
10, 530856, Note_off_c, 8, 72, 64
10, 530880, Note_on_c, 8, 76, 99
10, 530976, Note_off_c, 8, 76, 64
10, 531000, Note_on_c, 8, 76, 99
10, 531096, Note_off_c, 8, 76, 64
10, 531120, Note_on_c, 8, 72, 99
10, 531216, Note_off_c, 8, 72, 64
10, 531240, Note_on_c, 8, 72, 99
10, 531336, Note_off_c, 8, 72, 64
10, 531360, Note_on_c, 8, 76, 99
10, 531456, Note_off_c, 8, 76, 64
10, 531480, Note_on_c, 8, 76, 99
10, 531576, Note_off_c, 8, 76, 64
10, 531600, Note_on_c, 8, 74, 99
10, 531696, Note_off_c, 8, 74, 64
10, 531720, Note_on_c, 8, 74, 99
10, 531816, Note_off_c, 8, 74, 64
10, 531840, Note_on_c, 8, 77, 99
10, 531936, Note_off_c, 8, 77, 64
10, 531960, Note_on_c, 8, 77, 99
10, 532056, Note_off_c, 8, 77, 64
10, 532080, Note_on_c, 8, 74, 99
10, 532176, Note_off_c, 8, 74, 64
10, 532200, Note_on_c, 8, 74, 99
10, 532296, Note_off_c, 8, 74, 64
10, 532320, Note_on_c, 8, 74, 99
10, 532416, Note_off_c, 8, 74, 64
10, 532440, Note_on_c, 8, 74, 99
10, 532536, Note_off_c, 8, 74, 64
10, 532560, Note_on_c, 8, 72, 99
10, 532656, Note_off_c, 8, 72, 64
10, 532680, Note_on_c, 8, 72, 99
10, 532776, Note_off_c, 8, 72, 64
10, 532800, Note_on_c, 8, 76, 99
10, 532896, Note_off_c, 8, 76, 64
10, 532920, Note_on_c, 8, 76, 99
10, 533016, Note_off_c, 8, 76, 64
10, 533040, Note_on_c, 8, 72, 99
10, 533136, Note_off_c, 8, 72, 64
10, 533160, Note_on_c, 8, 72, 99
10, 533256, Note_off_c, 8, 72, 64
10, 533280, Note_on_c, 8, 76, 99
10, 533376, Note_off_c, 8, 76, 64
10, 533400, Note_on_c, 8, 76, 99
10, 533496, Note_off_c, 8, 76, 64
10, 533520, Note_on_c, 8, 72, 99
10, 533616, Note_off_c, 8, 72, 64
10, 533640, Note_on_c, 8, 72, 99
10, 533736, Note_off_c, 8, 72, 64
10, 533760, Note_on_c, 8, 76, 99
10, 533856, Note_off_c, 8, 76, 64
10, 533880, Note_on_c, 8, 76, 99
10, 533976, Note_off_c, 8, 76, 64
10, 534000, Note_on_c, 8, 76, 99
10, 534096, Note_off_c, 8, 76, 64
10, 534120, Note_on_c, 8, 76, 99
10, 534216, Note_off_c, 8, 76, 64
10, 534240, Note_on_c, 8, 76, 99
10, 534336, Note_off_c, 8, 76, 64
10, 534360, Note_on_c, 8, 76, 99
10, 534456, Note_off_c, 8, 76, 64
10, 534480, Note_on_c, 8, 64, 99
10, 534576, Note_off_c, 8, 64, 64
10, 534600, Note_on_c, 8, 64, 99
10, 534696, Note_off_c, 8, 64, 64
10, 534720, Note_on_c, 8, 79, 99
10, 534816, Note_off_c, 8, 79, 64
10, 534840, Note_on_c, 8, 79, 99
10, 534936, Note_off_c, 8, 79, 64
10, 534960, Note_on_c, 8, 79, 99
10, 535056, Note_off_c, 8, 79, 64
10, 535080, Note_on_c, 8, 79, 99
10, 535176, Note_off_c, 8, 79, 64
10, 535200, Note_on_c, 8, 79, 124
10, 535296, Note_off_c, 8, 79, 64
10, 535320, Note_on_c, 8, 79, 84
10, 535416, Note_off_c, 8, 79, 64
10, 535440, Note_on_c, 8, 79, 84
10, 535536, Note_off_c, 8, 79, 64
10, 535560, Note_on_c, 8, 79, 84
10, 535656, Note_off_c, 8, 79, 64
10, 535680, Note_on_c, 8, 79, 84
10, 535776, Note_off_c, 8, 79, 64
10, 535800, Note_on_c, 8, 79, 84
10, 535896, Note_off_c, 8, 79, 64
10, 535920, Note_on_c, 8, 79, 84
10, 536016, Note_off_c, 8, 79, 64
10, 536040, Note_on_c, 8, 79, 84
10, 536136, Note_off_c, 8, 79, 64
10, 536160, Note_on_c, 8, 76, 124
10, 536256, Note_off_c, 8, 76, 64
10, 536280, Note_on_c, 8, 76, 84
10, 536376, Note_off_c, 8, 76, 64
10, 536400, Note_on_c, 8, 76, 84
10, 536496, Note_off_c, 8, 76, 64
10, 536520, Note_on_c, 8, 76, 84
10, 536616, Note_off_c, 8, 76, 64
10, 536640, Note_on_c, 8, 76, 84
10, 536736, Note_off_c, 8, 76, 64
10, 536760, Note_on_c, 8, 76, 84
10, 536856, Note_off_c, 8, 76, 64
10, 536880, Note_on_c, 8, 76, 84
10, 536976, Note_off_c, 8, 76, 64
10, 537000, Note_on_c, 8, 76, 84
10, 537096, Note_off_c, 8, 76, 64
10, 537120, Note_on_c, 8, 72, 124
10, 537216, Note_off_c, 8, 72, 64
10, 537240, Note_on_c, 8, 72, 84
10, 537336, Note_off_c, 8, 72, 64
10, 537360, Note_on_c, 8, 72, 84
10, 537456, Note_off_c, 8, 72, 64
10, 537480, Note_on_c, 8, 72, 84
10, 537576, Note_off_c, 8, 72, 64
10, 537600, Note_on_c, 8, 72, 84
10, 537696, Note_off_c, 8, 72, 64
10, 537720, Note_on_c, 8, 72, 84
10, 537816, Note_off_c, 8, 72, 64
10, 537840, Note_on_c, 8, 72, 84
10, 537936, Note_off_c, 8, 72, 64
10, 537960, Note_on_c, 8, 72, 84
10, 538056, Note_off_c, 8, 72, 64
10, 538080, Note_on_c, 8, 67, 124
10, 538176, Note_off_c, 8, 67, 64
10, 538200, Note_on_c, 8, 67, 84
10, 538296, Note_off_c, 8, 67, 64
10, 538320, Note_on_c, 8, 67, 84
10, 538416, Note_off_c, 8, 67, 64
10, 538440, Note_on_c, 8, 67, 84
10, 538536, Note_off_c, 8, 67, 64
10, 538560, Note_on_c, 8, 67, 84
10, 538656, Note_off_c, 8, 67, 64
10, 538680, Note_on_c, 8, 67, 84
10, 538776, Note_off_c, 8, 67, 64
10, 538800, Note_on_c, 8, 67, 84
10, 538896, Note_off_c, 8, 67, 64
10, 538920, Note_on_c, 8, 67, 84
10, 539016, Note_off_c, 8, 67, 64
10, 539040, Note_on_c, 8, 64, 124
10, 539136, Note_off_c, 8, 64, 64
10, 539160, Note_on_c, 8, 64, 84
10, 539256, Note_off_c, 8, 64, 64
10, 539280, Note_on_c, 8, 64, 84
10, 539376, Note_off_c, 8, 64, 64
10, 539400, Note_on_c, 8, 64, 84
10, 539496, Note_off_c, 8, 64, 64
10, 539520, Note_on_c, 8, 64, 84
10, 539616, Note_off_c, 8, 64, 64
10, 539640, Note_on_c, 8, 64, 84
10, 539736, Note_off_c, 8, 64, 64
10, 539760, Note_on_c, 8, 64, 84
10, 539856, Note_off_c, 8, 64, 64
10, 539880, Note_on_c, 8, 64, 84
10, 539976, Note_off_c, 8, 64, 64
10, 540000, Note_on_c, 8, 60, 124
10, 540096, Note_off_c, 8, 60, 64
10, 540120, Note_on_c, 8, 60, 84
10, 540216, Note_off_c, 8, 60, 64
10, 540240, Note_on_c, 8, 60, 84
10, 540336, Note_off_c, 8, 60, 64
10, 540360, Note_on_c, 8, 60, 84
10, 540456, Note_off_c, 8, 60, 64
10, 540480, Note_on_c, 8, 60, 84
10, 540576, Note_off_c, 8, 60, 64
10, 540600, Note_on_c, 8, 60, 84
10, 540696, Note_off_c, 8, 60, 64
10, 540720, Note_on_c, 8, 60, 84
10, 540816, Note_off_c, 8, 60, 64
10, 540840, Note_on_c, 8, 60, 84
10, 540936, Note_off_c, 8, 60, 64
10, 540960, Note_on_c, 8, 64, 124
10, 541056, Note_off_c, 8, 64, 64
10, 541080, Note_on_c, 8, 64, 84
10, 541176, Note_off_c, 8, 64, 64
10, 541200, Note_on_c, 8, 64, 84
10, 541296, Note_off_c, 8, 64, 64
10, 541320, Note_on_c, 8, 64, 84
10, 541416, Note_off_c, 8, 64, 64
10, 541440, Note_on_c, 8, 64, 84
10, 541536, Note_off_c, 8, 64, 64
10, 541560, Note_on_c, 8, 64, 84
10, 541656, Note_off_c, 8, 64, 64
10, 541680, Note_on_c, 8, 64, 84
10, 541776, Note_off_c, 8, 64, 64
10, 541800, Note_on_c, 8, 64, 84
10, 541896, Note_off_c, 8, 64, 64
10, 541920, Note_on_c, 8, 67, 124
10, 542016, Note_off_c, 8, 67, 64
10, 542040, Note_on_c, 8, 67, 84
10, 542136, Note_off_c, 8, 67, 64
10, 542160, Note_on_c, 8, 67, 84
10, 542256, Note_off_c, 8, 67, 64
10, 542280, Note_on_c, 8, 67, 84
10, 542376, Note_off_c, 8, 67, 64
10, 542400, Note_on_c, 8, 67, 84
10, 542496, Note_off_c, 8, 67, 64
10, 542520, Note_on_c, 8, 67, 84
10, 542616, Note_off_c, 8, 67, 64
10, 542640, Note_on_c, 8, 67, 84
10, 542736, Note_off_c, 8, 67, 64
10, 542760, Note_on_c, 8, 67, 84
10, 542856, Note_off_c, 8, 67, 64
10, 542880, Note_on_c, 8, 72, 124
10, 542976, Note_off_c, 8, 72, 64
10, 543000, Note_on_c, 8, 72, 84
10, 543096, Note_off_c, 8, 72, 64
10, 543120, Note_on_c, 8, 72, 84
10, 543216, Note_off_c, 8, 72, 64
10, 543240, Note_on_c, 8, 72, 84
10, 543336, Note_off_c, 8, 72, 64
10, 543360, Note_on_c, 8, 72, 84
10, 543456, Note_off_c, 8, 72, 64
10, 543480, Note_on_c, 8, 72, 84
10, 543576, Note_off_c, 8, 72, 64
10, 543600, Note_on_c, 8, 72, 84
10, 543696, Note_off_c, 8, 72, 64
10, 543720, Note_on_c, 8, 72, 84
10, 543816, Note_off_c, 8, 72, 64
10, 543840, Note_on_c, 8, 76, 124
10, 543936, Note_off_c, 8, 76, 64
10, 543960, Note_on_c, 8, 76, 84
10, 544056, Note_off_c, 8, 76, 64
10, 544080, Note_on_c, 8, 76, 84
10, 544176, Note_off_c, 8, 76, 64
10, 544200, Note_on_c, 8, 76, 84
10, 544296, Note_off_c, 8, 76, 64
10, 544320, Note_on_c, 8, 76, 84
10, 544416, Note_off_c, 8, 76, 64
10, 544440, Note_on_c, 8, 76, 84
10, 544536, Note_off_c, 8, 76, 64
10, 544560, Note_on_c, 8, 76, 84
10, 544656, Note_off_c, 8, 76, 64
10, 544680, Note_on_c, 8, 76, 84
10, 544776, Note_off_c, 8, 76, 64
10, 544800, Note_on_c, 8, 74, 127
10, 544896, Note_off_c, 8, 74, 64
10, 544920, Note_on_c, 8, 74, 127
10, 545016, Note_off_c, 8, 74, 64
10, 545040, Note_on_c, 8, 72, 127
10, 545136, Note_off_c, 8, 72, 64
10, 545160, Note_on_c, 8, 74, 127
10, 545256, Note_off_c, 8, 74, 64
10, 545280, Note_on_c, 8, 72, 127
10, 545376, Note_off_c, 8, 72, 64
10, 545400, Note_on_c, 8, 74, 127
10, 545496, Note_off_c, 8, 74, 64
10, 545520, Note_on_c, 8, 76, 127
10, 545616, Note_off_c, 8, 76, 64
10, 545640, Note_on_c, 8, 74, 127
10, 545736, Note_off_c, 8, 74, 64
10, 545760, Note_on_c, 8, 74, 127
10, 545856, Note_off_c, 8, 74, 64
10, 545880, Note_on_c, 8, 74, 127
10, 545976, Note_off_c, 8, 74, 64
10, 546000, Note_on_c, 8, 72, 127
10, 546096, Note_off_c, 8, 72, 64
10, 546120, Note_on_c, 8, 74, 127
10, 546216, Note_off_c, 8, 74, 64
10, 546240, Note_on_c, 8, 72, 127
10, 546336, Note_off_c, 8, 72, 64
10, 546360, Note_on_c, 8, 74, 127
10, 546456, Note_off_c, 8, 74, 64
10, 546480, Note_on_c, 8, 76, 127
10, 546576, Note_off_c, 8, 76, 64
10, 546600, Note_on_c, 8, 74, 127
10, 546696, Note_off_c, 8, 74, 64
10, 546720, Note_on_c, 8, 64, 127
10, 546720, Note_on_c, 8, 72, 127
10, 546912, Note_off_c, 8, 72, 64
10, 546912, Note_off_c, 8, 64, 64
10, 548640, Note_on_c, 8, 74, 127
10, 548736, Note_off_c, 8, 74, 64
10, 548760, Note_on_c, 8, 74, 127
10, 548856, Note_off_c, 8, 74, 64
10, 548880, Note_on_c, 8, 72, 127
10, 548976, Note_off_c, 8, 72, 64
10, 549000, Note_on_c, 8, 74, 127
10, 549096, Note_off_c, 8, 74, 64
10, 549120, Note_on_c, 8, 72, 127
10, 549216, Note_off_c, 8, 72, 64
10, 549240, Note_on_c, 8, 74, 127
10, 549336, Note_off_c, 8, 74, 64
10, 549360, Note_on_c, 8, 76, 127
10, 549456, Note_off_c, 8, 76, 64
10, 549480, Note_on_c, 8, 74, 127
10, 549576, Note_off_c, 8, 74, 64
10, 549600, Note_on_c, 8, 74, 127
10, 549696, Note_off_c, 8, 74, 64
10, 549720, Note_on_c, 8, 74, 127
10, 549816, Note_off_c, 8, 74, 64
10, 549840, Note_on_c, 8, 72, 127
10, 549936, Note_off_c, 8, 72, 64
10, 549960, Note_on_c, 8, 74, 127
10, 550056, Note_off_c, 8, 74, 64
10, 550080, Note_on_c, 8, 72, 127
10, 550176, Note_off_c, 8, 72, 64
10, 550200, Note_on_c, 8, 74, 127
10, 550296, Note_off_c, 8, 74, 64
10, 550320, Note_on_c, 8, 76, 127
10, 550416, Note_off_c, 8, 76, 64
10, 550440, Note_on_c, 8, 74, 127
10, 550536, Note_off_c, 8, 74, 64
10, 550560, Note_on_c, 8, 64, 127
10, 550560, Note_on_c, 8, 72, 127
10, 550752, Note_off_c, 8, 72, 64
10, 550752, Note_off_c, 8, 64, 64
10, 552480, Note_on_c, 8, 74, 127
10, 552576, Note_off_c, 8, 74, 64
10, 552600, Note_on_c, 8, 74, 127
10, 552696, Note_off_c, 8, 74, 64
10, 552720, Note_on_c, 8, 72, 127
10, 552816, Note_off_c, 8, 72, 64
10, 552840, Note_on_c, 8, 74, 127
10, 552936, Note_off_c, 8, 74, 64
10, 552960, Note_on_c, 8, 72, 127
10, 553056, Note_off_c, 8, 72, 64
10, 553080, Note_on_c, 8, 74, 127
10, 553176, Note_off_c, 8, 74, 64
10, 553200, Note_on_c, 8, 76, 127
10, 553296, Note_off_c, 8, 76, 64
10, 553320, Note_on_c, 8, 74, 127
10, 553416, Note_off_c, 8, 74, 64
10, 553440, Note_on_c, 8, 74, 127
10, 553536, Note_off_c, 8, 74, 64
10, 553560, Note_on_c, 8, 83, 127
10, 553656, Note_off_c, 8, 83, 64
10, 553680, Note_on_c, 8, 81, 127
10, 553776, Note_off_c, 8, 81, 64
10, 553800, Note_on_c, 8, 83, 127
10, 553896, Note_off_c, 8, 83, 64
10, 553920, Note_on_c, 8, 84, 127
10, 554016, Note_off_c, 8, 84, 64
10, 554040, Note_on_c, 8, 83, 127
10, 554136, Note_off_c, 8, 83, 64
10, 554160, Note_on_c, 8, 81, 127
10, 554256, Note_off_c, 8, 81, 64
10, 554280, Note_on_c, 8, 83, 127
10, 554376, Note_off_c, 8, 83, 64
10, 554400, Note_on_c, 8, 72, 127
10, 554400, Note_on_c, 8, 64, 127
10, 554592, Note_off_c, 8, 64, 64
10, 554592, Note_off_c, 8, 72, 64
10, 556320, Note_on_c, 8, 67, 127
10, 556320, Note_on_c, 8, 60, 127
10, 556320, Note_on_c, 8, 72, 127
10, 556512, Note_off_c, 8, 72, 64
10, 556512, Note_off_c, 8, 60, 64
10, 556512, Note_off_c, 8, 67, 64
10, 558240, Note_on_c, 8, 60, 127
10, 558240, Note_on_c, 8, 72, 127
10, 558240, Note_on_c, 8, 67, 127
10, 558432, Note_off_c, 8, 67, 64
10, 558432, Note_off_c, 8, 72, 64
10, 558432, Note_off_c, 8, 60, 64
10, 558432, End_track
11, 0, Start_track
11, 0, Title_t, "Viola"
11, 0, MIDI_port, 0
11, 0, Channel_prefix, 10
11, 0, Control_c, 10, 7, 89
11, 0, Control_c, 10, 10, 86
11, 0, Program_c, 10, 48
11, 480, Control_c, 10, 10, 70
11, 480, Control_c, 10, 93, 90
11, 480, Control_c, 10, 7, 90
11, 480, Control_c, 10, 91, 85
11, 480, Program_c, 10, 48
11, 5760, Note_on_c, 10, 60, 114
11, 5760, Note_on_c, 10, 48, 114
11, 5904, Note_off_c, 10, 48, 64
11, 5904, Note_off_c, 10, 60, 64
11, 7680, Note_on_c, 10, 62, 114
11, 7680, Note_on_c, 10, 59, 114
11, 7824, Note_off_c, 10, 59, 64
11, 7824, Note_off_c, 10, 62, 64
11, 9600, Note_on_c, 10, 60, 114
11, 9600, Note_on_c, 10, 64, 114
11, 9744, Note_off_c, 10, 64, 64
11, 9744, Note_off_c, 10, 60, 64
11, 10560, Note_on_c, 10, 53, 114
11, 10704, Note_off_c, 10, 53, 64
11, 11520, Note_on_c, 10, 55, 114
11, 11664, Note_off_c, 10, 55, 64
11, 36960, Note_on_c, 10, 53, 43
11, 37344, Note_off_c, 10, 53, 64
11, 37920, Note_on_c, 10, 53, 43
11, 37920, Note_on_c, 10, 50, 43
11, 38304, Note_off_c, 10, 50, 64
11, 38304, Note_off_c, 10, 53, 64
11, 38880, Note_on_c, 10, 54, 43
11, 38880, Note_on_c, 10, 48, 43
11, 39264, Note_off_c, 10, 48, 64
11, 39264, Note_off_c, 10, 54, 64
11, 39840, Note_on_c, 10, 54, 43
11, 39840, Note_on_c, 10, 48, 43
11, 40224, Note_off_c, 10, 48, 64
11, 40224, Note_off_c, 10, 54, 64
11, 40800, Note_on_c, 10, 55, 43
11, 40800, Note_on_c, 10, 48, 43
11, 41184, Note_off_c, 10, 48, 64
11, 41184, Note_off_c, 10, 55, 64
11, 41760, Note_on_c, 10, 53, 43
11, 42144, Note_off_c, 10, 53, 64
11, 42720, Note_on_c, 10, 52, 43
11, 43104, Note_off_c, 10, 52, 64
11, 44160, Note_on_c, 10, 60, 79
11, 44958, Note_off_c, 10, 60, 64
11, 45000, Note_on_c, 10, 59, 79
11, 45096, Note_off_c, 10, 59, 64
11, 45120, Note_on_c, 10, 60, 79
11, 45600, Note_off_c, 10, 60, 64
11, 45600, Note_on_c, 10, 59, 79
11, 46080, Note_off_c, 10, 59, 64
11, 46080, Note_on_c, 10, 55, 79
11, 46560, Note_off_c, 10, 55, 64
11, 46560, Note_on_c, 10, 55, 79
11, 46920, Note_off_c, 10, 55, 64
11, 46920, Note_on_c, 10, 55, 79
11, 47016, Note_off_c, 10, 55, 64
11, 47040, Note_on_c, 10, 55, 79
11, 47520, Note_off_c, 10, 55, 64
11, 47520, Note_on_c, 10, 55, 67
11, 47904, Note_off_c, 10, 55, 64
11, 48000, Note_on_c, 10, 53, 90
11, 48240, Note_off_c, 10, 53, 64
11, 48240, Note_on_c, 10, 65, 90
11, 48480, Note_off_c, 10, 65, 64
11, 48480, Note_on_c, 10, 60, 90
11, 48720, Note_off_c, 10, 60, 64
11, 48720, Note_on_c, 10, 57, 90
11, 48960, Note_off_c, 10, 57, 64
11, 48960, Note_on_c, 10, 59, 90
11, 49200, Note_off_c, 10, 59, 64
11, 49200, Note_on_c, 10, 55, 90
11, 49440, Note_off_c, 10, 55, 64
11, 49440, Note_on_c, 10, 55, 90
11, 49680, Note_off_c, 10, 55, 64
11, 49680, Note_on_c, 10, 60, 90
11, 49920, Note_off_c, 10, 60, 64
11, 49920, Note_on_c, 10, 55, 90
11, 50160, Note_off_c, 10, 55, 64
11, 50160, Note_on_c, 10, 60, 90
11, 50400, Note_off_c, 10, 60, 64
11, 50400, Note_on_c, 10, 55, 90
11, 50640, Note_off_c, 10, 55, 64
11, 50640, Note_on_c, 10, 59, 90
11, 50880, Note_off_c, 10, 59, 64
11, 50880, Note_on_c, 10, 60, 90
11, 51600, Note_off_c, 10, 60, 64
11, 51840, Note_on_c, 10, 62, 90
11, 52762, Note_off_c, 10, 62, 64
11, 52800, Note_on_c, 10, 64, 90
11, 53260, Note_off_c, 10, 64, 64
11, 53280, Note_on_c, 10, 66, 90
11, 53740, Note_off_c, 10, 66, 64
11, 53760, Note_on_c, 10, 67, 90
11, 54220, Note_off_c, 10, 67, 64
11, 54240, Note_on_c, 10, 69, 90
11, 54700, Note_off_c, 10, 69, 64
11, 54720, Note_on_c, 10, 71, 90
11, 55180, Note_off_c, 10, 71, 64
11, 55200, Note_on_c, 10, 72, 90
11, 56140, Note_off_c, 10, 72, 64
11, 56160, Note_on_c, 10, 67, 90
11, 56390, Note_off_c, 10, 67, 64
11, 56400, Note_on_c, 10, 69, 90
11, 56630, Note_off_c, 10, 69, 64
11, 56640, Note_on_c, 10, 71, 90
11, 57562, Note_off_c, 10, 71, 64
11, 59520, Note_on_c, 10, 52, 72
11, 59808, Note_off_c, 10, 52, 64
11, 60000, Note_on_c, 10, 64, 72
11, 60288, Note_off_c, 10, 64, 64
11, 60480, Note_on_c, 10, 65, 72
11, 60960, Note_off_c, 10, 65, 64
11, 60960, Note_on_c, 10, 64, 72
11, 61440, Note_off_c, 10, 64, 64
11, 61440, Note_on_c, 10, 69, 72
11, 61824, Note_off_c, 10, 69, 64
11, 61920, Note_on_c, 10, 67, 72
11, 62304, Note_off_c, 10, 67, 64
11, 62400, Note_on_c, 10, 65, 72
11, 63360, Note_off_c, 10, 65, 64
11, 63360, Note_on_c, 10, 62, 72
11, 63744, Note_off_c, 10, 62, 64
11, 63840, Note_on_c, 10, 60, 72
11, 64224, Note_off_c, 10, 60, 64
11, 64320, Note_on_c, 10, 62, 72
11, 64350, Note_off_c, 10, 62, 64
11, 64350, Note_on_c, 10, 64, 72
11, 64380, Note_off_c, 10, 64, 64
11, 64380, Note_on_c, 10, 62, 72
11, 64410, Note_off_c, 10, 62, 64
11, 64410, Note_on_c, 10, 64, 72
11, 64440, Note_off_c, 10, 64, 64
11, 64440, Note_on_c, 10, 62, 72
11, 64470, Note_off_c, 10, 62, 64
11, 64470, Note_on_c, 10, 64, 72
11, 64500, Note_off_c, 10, 64, 64
11, 64500, Note_on_c, 10, 62, 72
11, 64530, Note_off_c, 10, 62, 64
11, 64530, Note_on_c, 10, 64, 72
11, 64560, Note_off_c, 10, 64, 64
11, 64560, Note_on_c, 10, 62, 72
11, 64590, Note_off_c, 10, 62, 64
11, 64590, Note_on_c, 10, 64, 72
11, 64620, Note_off_c, 10, 64, 64
11, 64620, Note_on_c, 10, 62, 72
11, 64650, Note_off_c, 10, 62, 64
11, 64650, Note_on_c, 10, 64, 72
11, 64680, Note_off_c, 10, 64, 64
11, 64680, Note_on_c, 10, 62, 72
11, 64710, Note_off_c, 10, 62, 64
11, 64710, Note_on_c, 10, 64, 72
11, 64740, Note_off_c, 10, 64, 64
11, 64740, Note_on_c, 10, 62, 72
11, 64770, Note_off_c, 10, 62, 64
11, 64770, Note_on_c, 10, 64, 72
11, 64800, Note_off_c, 10, 64, 64
11, 64800, Note_on_c, 10, 62, 72
11, 64830, Note_off_c, 10, 62, 64
11, 64830, Note_on_c, 10, 64, 72
11, 64860, Note_off_c, 10, 64, 64
11, 64860, Note_on_c, 10, 62, 72
11, 64890, Note_off_c, 10, 62, 64
11, 64890, Note_on_c, 10, 64, 72
11, 64920, Note_off_c, 10, 64, 64
11, 64920, Note_on_c, 10, 62, 72
11, 64950, Note_off_c, 10, 62, 64
11, 64950, Note_on_c, 10, 64, 72
11, 64980, Note_off_c, 10, 64, 64
11, 64980, Note_on_c, 10, 62, 72
11, 65010, Note_off_c, 10, 62, 64
11, 65010, Note_on_c, 10, 64, 72
11, 65040, Note_off_c, 10, 64, 64
11, 65040, Note_on_c, 10, 62, 72
11, 65070, Note_off_c, 10, 62, 64
11, 65070, Note_on_c, 10, 64, 72
11, 65100, Note_off_c, 10, 64, 64
11, 65100, Note_on_c, 10, 62, 72
11, 65130, Note_off_c, 10, 62, 64
11, 65130, Note_on_c, 10, 64, 72
11, 65160, Note_off_c, 10, 64, 64
11, 65160, Note_on_c, 10, 62, 72
11, 65190, Note_off_c, 10, 62, 64
11, 65190, Note_on_c, 10, 64, 72
11, 65220, Note_off_c, 10, 64, 64
11, 65220, Note_on_c, 10, 60, 72
11, 65250, Note_off_c, 10, 60, 64
11, 65250, Note_on_c, 10, 62, 72
11, 65280, Note_off_c, 10, 62, 64
11, 65280, Note_on_c, 10, 64, 76
11, 65664, Note_off_c, 10, 64, 64
11, 65760, Note_on_c, 10, 65, 76
11, 66144, Note_off_c, 10, 65, 64
11, 66240, Note_on_c, 10, 64, 76
11, 66480, Note_off_c, 10, 64, 64
11, 66480, Note_on_c, 10, 67, 76
11, 66720, Note_off_c, 10, 67, 64
11, 66720, Note_on_c, 10, 65, 76
11, 66960, Note_off_c, 10, 65, 64
11, 66960, Note_on_c, 10, 64, 76
11, 67200, Note_off_c, 10, 64, 64
11, 67200, Note_on_c, 10, 65, 101
11, 68064, Note_off_c, 10, 65, 64
11, 68160, Note_on_c, 10, 65, 101
11, 68544, Note_off_c, 10, 65, 64
11, 68640, Note_on_c, 10, 62, 101
11, 69090, Note_off_c, 10, 62, 64
11, 69120, Note_on_c, 10, 60, 101
11, 69120, Note_on_c, 10, 62, 101
11, 70488, Note_off_c, 10, 62, 64
11, 70488, Note_off_c, 10, 60, 64
11, 70560, Note_on_c, 10, 60, 101
11, 70560, Note_on_c, 10, 62, 101
11, 71010, Note_off_c, 10, 62, 64
11, 71010, Note_off_c, 10, 60, 64
11, 71040, Note_on_c, 10, 60, 72
11, 71280, Note_off_c, 10, 60, 64
11, 71280, Note_on_c, 10, 55, 72
11, 71520, Note_off_c, 10, 55, 64
11, 71520, Note_on_c, 10, 60, 72
11, 71760, Note_off_c, 10, 60, 64
11, 71760, Note_on_c, 10, 64, 72
11, 72000, Note_off_c, 10, 64, 64
11, 72000, Note_on_c, 10, 65, 72
11, 72720, Note_off_c, 10, 65, 64
11, 72720, Note_on_c, 10, 64, 72
11, 72912, Note_off_c, 10, 64, 64
11, 72960, Note_on_c, 10, 64, 72
11, 73344, Note_off_c, 10, 64, 64
11, 79680, Note_on_c, 10, 60, 90
11, 79824, Note_off_c, 10, 60, 64
11, 80640, Note_on_c, 10, 65, 90
11, 80640, Note_on_c, 10, 55, 90
11, 80640, Note_on_c, 10, 74, 90
11, 80784, Note_off_c, 10, 74, 64
11, 80784, Note_off_c, 10, 55, 64
11, 80784, Note_off_c, 10, 65, 64
11, 81120, Note_on_c, 10, 72, 90
11, 81120, Note_on_c, 10, 55, 90
11, 81120, Note_on_c, 10, 64, 90
11, 81264, Note_off_c, 10, 64, 64
11, 81264, Note_off_c, 10, 55, 64
11, 81264, Note_off_c, 10, 72, 64
11, 81600, Note_on_c, 10, 62, 90
11, 81600, Note_on_c, 10, 55, 90
11, 81600, Note_on_c, 10, 71, 90
11, 81744, Note_off_c, 10, 71, 64
11, 81744, Note_off_c, 10, 55, 64
11, 81744, Note_off_c, 10, 62, 64
11, 87360, Note_on_c, 10, 60, 72
11, 87504, Note_off_c, 10, 60, 64
11, 88320, Note_on_c, 10, 65, 72
11, 88320, Note_on_c, 10, 55, 72
11, 88320, Note_on_c, 10, 74, 72
11, 88464, Note_off_c, 10, 74, 64
11, 88464, Note_off_c, 10, 55, 64
11, 88464, Note_off_c, 10, 65, 64
11, 88800, Note_on_c, 10, 72, 72
11, 88800, Note_on_c, 10, 64, 72
11, 88800, Note_on_c, 10, 55, 72
11, 88944, Note_off_c, 10, 55, 64
11, 88944, Note_off_c, 10, 64, 64
11, 88944, Note_off_c, 10, 72, 64
11, 89280, Note_on_c, 10, 71, 72
11, 89280, Note_on_c, 10, 55, 72
11, 89280, Note_on_c, 10, 62, 72
11, 89424, Note_off_c, 10, 62, 64
11, 89424, Note_off_c, 10, 55, 64
11, 89424, Note_off_c, 10, 71, 64
11, 90240, Note_on_c, 10, 71, 72
11, 90240, Note_on_c, 10, 55, 72
11, 90240, Note_on_c, 10, 62, 72
11, 90384, Note_off_c, 10, 62, 64
11, 90384, Note_off_c, 10, 55, 64
11, 90384, Note_off_c, 10, 71, 64
11, 92160, Note_on_c, 10, 55, 72
11, 92160, Note_on_c, 10, 72, 72
11, 92160, Note_on_c, 10, 64, 72
11, 92304, Note_off_c, 10, 64, 64
11, 92304, Note_off_c, 10, 72, 64
11, 92304, Note_off_c, 10, 55, 64
11, 94080, Note_on_c, 10, 55, 72
11, 94080, Note_on_c, 10, 64, 72
11, 94080, Note_on_c, 10, 72, 72
11, 94224, Note_off_c, 10, 72, 64
11, 94224, Note_off_c, 10, 64, 64
11, 94224, Note_off_c, 10, 55, 64
11, 95040, Note_on_c, 10, 72, 72
11, 95040, Note_on_c, 10, 55, 72
11, 95040, Note_on_c, 10, 64, 72
11, 95184, Note_off_c, 10, 64, 64
11, 95184, Note_off_c, 10, 55, 64
11, 95184, Note_off_c, 10, 72, 64
11, 96000, Note_on_c, 10, 71, 72
11, 96000, Note_on_c, 10, 55, 72
11, 96000, Note_on_c, 10, 62, 72
11, 96144, Note_off_c, 10, 62, 64
11, 96144, Note_off_c, 10, 55, 64
11, 96144, Note_off_c, 10, 71, 64
11, 96480, Note_on_c, 10, 62, 72
11, 96480, Note_on_c, 10, 55, 72
11, 96480, Note_on_c, 10, 71, 72
11, 96624, Note_off_c, 10, 71, 64
11, 96624, Note_off_c, 10, 55, 64
11, 96624, Note_off_c, 10, 62, 64
11, 96960, Note_on_c, 10, 72, 72
11, 96960, Note_on_c, 10, 55, 72
11, 96960, Note_on_c, 10, 64, 72
11, 97104, Note_off_c, 10, 64, 64
11, 97104, Note_off_c, 10, 55, 64
11, 97104, Note_off_c, 10, 72, 64
11, 97920, Note_on_c, 10, 71, 72
11, 97920, Note_on_c, 10, 55, 72
11, 97920, Note_on_c, 10, 62, 72
11, 98064, Note_off_c, 10, 62, 64
11, 98064, Note_off_c, 10, 55, 64
11, 98064, Note_off_c, 10, 71, 64
11, 99840, Note_on_c, 10, 55, 72
11, 99840, Note_on_c, 10, 72, 72
11, 99840, Note_on_c, 10, 64, 72
11, 99984, Note_off_c, 10, 64, 64
11, 99984, Note_off_c, 10, 72, 64
11, 99984, Note_off_c, 10, 55, 64
11, 101760, Note_on_c, 10, 64, 72
11, 101760, Note_on_c, 10, 72, 72
11, 101760, Note_on_c, 10, 55, 72
11, 101904, Note_off_c, 10, 55, 64
11, 101904, Note_off_c, 10, 72, 64
11, 101904, Note_off_c, 10, 64, 64
11, 102720, Note_on_c, 10, 64, 72
11, 102720, Note_on_c, 10, 72, 72
11, 102720, Note_on_c, 10, 55, 72
11, 102864, Note_off_c, 10, 55, 64
11, 102864, Note_off_c, 10, 72, 64
11, 102864, Note_off_c, 10, 64, 64
11, 103680, Note_on_c, 10, 62, 72
11, 103680, Note_on_c, 10, 55, 72
11, 103680, Note_on_c, 10, 71, 72
11, 103824, Note_off_c, 10, 71, 64
11, 103824, Note_off_c, 10, 55, 64
11, 103824, Note_off_c, 10, 62, 64
11, 104160, Note_on_c, 10, 55, 72
11, 104160, Note_on_c, 10, 71, 72
11, 104160, Note_on_c, 10, 62, 72
11, 104304, Note_off_c, 10, 62, 64
11, 104304, Note_off_c, 10, 71, 64
11, 104304, Note_off_c, 10, 55, 64
11, 104640, Note_on_c, 10, 64, 72
11, 104640, Note_on_c, 10, 72, 72
11, 104640, Note_on_c, 10, 55, 72
11, 104784, Note_off_c, 10, 55, 64
11, 104784, Note_off_c, 10, 72, 64
11, 104784, Note_off_c, 10, 64, 64
11, 105600, Note_on_c, 10, 55, 36
11, 105984, Note_off_c, 10, 55, 64
11, 106080, Note_on_c, 10, 55, 36
11, 106224, Note_off_c, 10, 55, 64
11, 106440, Note_on_c, 10, 55, 36
11, 106488, Note_off_c, 10, 55, 64
11, 106560, Note_on_c, 10, 55, 36
11, 107136, Note_off_c, 10, 55, 64
11, 109440, Note_on_c, 10, 59, 32
11, 109512, Note_off_c, 10, 59, 64
11, 109680, Note_on_c, 10, 59, 25
11, 109752, Note_off_c, 10, 59, 64
11, 109920, Note_on_c, 10, 59, 32
11, 109992, Note_off_c, 10, 59, 64
11, 110160, Note_on_c, 10, 59, 32
11, 110232, Note_off_c, 10, 59, 64
11, 110400, Note_on_c, 10, 57, 32
11, 110400, Note_on_c, 10, 60, 32
11, 110472, Note_off_c, 10, 60, 64
11, 110472, Note_off_c, 10, 57, 64
11, 110640, Note_on_c, 10, 57, 32
11, 110640, Note_on_c, 10, 60, 32
11, 110712, Note_off_c, 10, 60, 64
11, 110712, Note_off_c, 10, 57, 64
11, 110880, Note_on_c, 10, 57, 32
11, 110880, Note_on_c, 10, 60, 32
11, 110952, Note_off_c, 10, 60, 64
11, 110952, Note_off_c, 10, 57, 64
11, 111120, Note_on_c, 10, 57, 32
11, 111120, Note_on_c, 10, 60, 32
11, 111192, Note_off_c, 10, 60, 64
11, 111192, Note_off_c, 10, 57, 64
11, 111360, Note_on_c, 10, 59, 32
11, 111432, Note_off_c, 10, 59, 64
11, 111600, Note_on_c, 10, 59, 32
11, 111672, Note_off_c, 10, 59, 64
11, 111840, Note_on_c, 10, 59, 32
11, 111840, Note_on_c, 10, 62, 32
11, 111912, Note_off_c, 10, 62, 64
11, 111912, Note_off_c, 10, 59, 64
11, 112080, Note_on_c, 10, 59, 32
11, 112080, Note_on_c, 10, 62, 32
11, 112152, Note_off_c, 10, 62, 64
11, 112152, Note_off_c, 10, 59, 64
11, 112320, Note_on_c, 10, 60, 32
11, 112320, Note_on_c, 10, 57, 32
11, 112392, Note_off_c, 10, 57, 64
11, 112392, Note_off_c, 10, 60, 64
11, 112560, Note_on_c, 10, 60, 32
11, 112560, Note_on_c, 10, 57, 32
11, 112632, Note_off_c, 10, 57, 64
11, 112632, Note_off_c, 10, 60, 64
11, 112800, Note_on_c, 10, 57, 32
11, 112800, Note_on_c, 10, 60, 32
11, 112872, Note_off_c, 10, 60, 64
11, 112872, Note_off_c, 10, 57, 64
11, 113040, Note_on_c, 10, 60, 32
11, 113040, Note_on_c, 10, 57, 32
11, 113112, Note_off_c, 10, 57, 64
11, 113112, Note_off_c, 10, 60, 64
11, 113280, Note_on_c, 10, 59, 32
11, 113352, Note_off_c, 10, 59, 64
11, 113520, Note_on_c, 10, 67, 32
11, 113592, Note_off_c, 10, 67, 64
11, 113760, Note_on_c, 10, 67, 32
11, 113832, Note_off_c, 10, 67, 64
11, 114000, Note_on_c, 10, 67, 32
11, 114072, Note_off_c, 10, 67, 64
11, 114240, Note_on_c, 10, 67, 32
11, 114312, Note_off_c, 10, 67, 64
11, 114480, Note_on_c, 10, 67, 32
11, 114552, Note_off_c, 10, 67, 64
11, 114720, Note_on_c, 10, 67, 32
11, 114792, Note_off_c, 10, 67, 64
11, 114960, Note_on_c, 10, 67, 32
11, 115032, Note_off_c, 10, 67, 64
11, 115200, Note_on_c, 10, 67, 32
11, 115272, Note_off_c, 10, 67, 64
11, 117120, Note_on_c, 10, 55, 43
11, 117192, Note_off_c, 10, 55, 64
11, 117360, Note_on_c, 10, 52, 43
11, 117360, Note_on_c, 10, 48, 43
11, 117432, Note_off_c, 10, 48, 64
11, 117432, Note_off_c, 10, 52, 64
11, 117600, Note_on_c, 10, 48, 43
11, 117600, Note_on_c, 10, 52, 43
11, 117672, Note_off_c, 10, 52, 64
11, 117672, Note_off_c, 10, 48, 64
11, 117840, Note_on_c, 10, 48, 43
11, 117840, Note_on_c, 10, 52, 43
11, 117912, Note_off_c, 10, 52, 64
11, 117912, Note_off_c, 10, 48, 64
11, 118080, Note_on_c, 10, 53, 43
11, 118080, Note_on_c, 10, 50, 43
11, 118152, Note_off_c, 10, 50, 64
11, 118152, Note_off_c, 10, 53, 64
11, 118320, Note_on_c, 10, 53, 43
11, 118320, Note_on_c, 10, 50, 43
11, 118392, Note_off_c, 10, 50, 64
11, 118392, Note_off_c, 10, 53, 64
11, 128160, Note_on_c, 10, 53, 72
11, 128160, Note_on_c, 10, 57, 72
11, 128208, Note_off_c, 10, 57, 64
11, 128208, Note_off_c, 10, 53, 64
11, 128220, Note_on_c, 10, 57, 72
11, 128220, Note_on_c, 10, 53, 72
11, 128268, Note_off_c, 10, 53, 64
11, 128268, Note_off_c, 10, 57, 64
11, 128280, Note_on_c, 10, 53, 72
11, 128280, Note_on_c, 10, 57, 72
11, 128328, Note_off_c, 10, 57, 64
11, 128328, Note_off_c, 10, 53, 64
11, 128340, Note_on_c, 10, 53, 72
11, 128340, Note_on_c, 10, 57, 72
11, 128388, Note_off_c, 10, 57, 64
11, 128388, Note_off_c, 10, 53, 64
11, 128400, Note_on_c, 10, 57, 72
11, 128400, Note_on_c, 10, 53, 72
11, 128448, Note_off_c, 10, 53, 64
11, 128448, Note_off_c, 10, 57, 64
11, 128460, Note_on_c, 10, 57, 72
11, 128460, Note_on_c, 10, 53, 72
11, 128508, Note_off_c, 10, 53, 64
11, 128508, Note_off_c, 10, 57, 64
11, 128520, Note_on_c, 10, 53, 72
11, 128520, Note_on_c, 10, 57, 72
11, 128568, Note_off_c, 10, 57, 64
11, 128568, Note_off_c, 10, 53, 64
11, 128580, Note_on_c, 10, 57, 72
11, 128580, Note_on_c, 10, 53, 72
11, 128628, Note_off_c, 10, 53, 64
11, 128628, Note_off_c, 10, 57, 64
11, 128640, Note_on_c, 10, 53, 72
11, 128640, Note_on_c, 10, 57, 72
11, 128688, Note_off_c, 10, 57, 64
11, 128688, Note_off_c, 10, 53, 64
11, 128700, Note_on_c, 10, 57, 72
11, 128700, Note_on_c, 10, 53, 72
11, 128748, Note_off_c, 10, 53, 64
11, 128748, Note_off_c, 10, 57, 64
11, 128760, Note_on_c, 10, 57, 72
11, 128760, Note_on_c, 10, 53, 72
11, 128808, Note_off_c, 10, 53, 64
11, 128808, Note_off_c, 10, 57, 64
11, 128820, Note_on_c, 10, 57, 72
11, 128820, Note_on_c, 10, 53, 72
11, 128868, Note_off_c, 10, 53, 64
11, 128868, Note_off_c, 10, 57, 64
11, 128880, Note_on_c, 10, 57, 72
11, 128880, Note_on_c, 10, 53, 72
11, 128928, Note_off_c, 10, 53, 64
11, 128928, Note_off_c, 10, 57, 64
11, 128940, Note_on_c, 10, 53, 72
11, 128940, Note_on_c, 10, 57, 72
11, 128988, Note_off_c, 10, 57, 64
11, 128988, Note_off_c, 10, 53, 64
11, 129000, Note_on_c, 10, 53, 72
11, 129000, Note_on_c, 10, 57, 72
11, 129048, Note_off_c, 10, 57, 64
11, 129048, Note_off_c, 10, 53, 64
11, 129060, Note_on_c, 10, 53, 72
11, 129060, Note_on_c, 10, 57, 72
11, 129108, Note_off_c, 10, 57, 64
11, 129108, Note_off_c, 10, 53, 64
11, 129120, Note_on_c, 10, 53, 72
11, 129120, Note_on_c, 10, 57, 72
11, 129168, Note_off_c, 10, 57, 64
11, 129168, Note_off_c, 10, 53, 64
11, 129180, Note_on_c, 10, 53, 72
11, 129180, Note_on_c, 10, 57, 72
11, 129228, Note_off_c, 10, 57, 64
11, 129228, Note_off_c, 10, 53, 64
11, 129240, Note_on_c, 10, 53, 72
11, 129240, Note_on_c, 10, 57, 72
11, 129288, Note_off_c, 10, 57, 64
11, 129288, Note_off_c, 10, 53, 64
11, 129300, Note_on_c, 10, 57, 72
11, 129300, Note_on_c, 10, 53, 72
11, 129348, Note_off_c, 10, 53, 64
11, 129348, Note_off_c, 10, 57, 64
11, 129360, Note_on_c, 10, 57, 72
11, 129360, Note_on_c, 10, 53, 72
11, 129408, Note_off_c, 10, 53, 64
11, 129408, Note_off_c, 10, 57, 64
11, 129420, Note_on_c, 10, 57, 72
11, 129420, Note_on_c, 10, 53, 72
11, 129468, Note_off_c, 10, 53, 64
11, 129468, Note_off_c, 10, 57, 64
11, 129480, Note_on_c, 10, 57, 72
11, 129480, Note_on_c, 10, 53, 72
11, 129528, Note_off_c, 10, 53, 64
11, 129528, Note_off_c, 10, 57, 64
11, 129540, Note_on_c, 10, 53, 72
11, 129540, Note_on_c, 10, 57, 72
11, 129588, Note_off_c, 10, 57, 64
11, 129588, Note_off_c, 10, 53, 64
11, 129600, Note_on_c, 10, 53, 72
11, 129600, Note_on_c, 10, 57, 72
11, 129648, Note_off_c, 10, 57, 64
11, 129648, Note_off_c, 10, 53, 64
11, 129660, Note_on_c, 10, 53, 72
11, 129660, Note_on_c, 10, 57, 72
11, 129708, Note_off_c, 10, 57, 64
11, 129708, Note_off_c, 10, 53, 64
11, 129720, Note_on_c, 10, 53, 72
11, 129720, Note_on_c, 10, 57, 72
11, 129768, Note_off_c, 10, 57, 64
11, 129768, Note_off_c, 10, 53, 64
11, 129780, Note_on_c, 10, 57, 72
11, 129780, Note_on_c, 10, 53, 72
11, 129828, Note_off_c, 10, 53, 64
11, 129828, Note_off_c, 10, 57, 64
11, 129840, Note_on_c, 10, 57, 72
11, 129840, Note_on_c, 10, 53, 72
11, 129888, Note_off_c, 10, 53, 64
11, 129888, Note_off_c, 10, 57, 64
11, 129900, Note_on_c, 10, 53, 72
11, 129900, Note_on_c, 10, 57, 72
11, 129948, Note_off_c, 10, 57, 64
11, 129948, Note_off_c, 10, 53, 64
11, 129960, Note_on_c, 10, 53, 72
11, 129960, Note_on_c, 10, 57, 72
11, 130008, Note_off_c, 10, 57, 64
11, 130008, Note_off_c, 10, 53, 64
11, 130020, Note_on_c, 10, 53, 72
11, 130020, Note_on_c, 10, 57, 72
11, 130068, Note_off_c, 10, 57, 64
11, 130068, Note_off_c, 10, 53, 64
11, 130080, Note_on_c, 10, 57, 72
11, 130080, Note_on_c, 10, 53, 72
11, 130128, Note_off_c, 10, 53, 64
11, 130128, Note_off_c, 10, 57, 64
11, 130140, Note_on_c, 10, 53, 72
11, 130140, Note_on_c, 10, 57, 72
11, 130188, Note_off_c, 10, 57, 64
11, 130188, Note_off_c, 10, 53, 64
11, 130200, Note_on_c, 10, 53, 72
11, 130200, Note_on_c, 10, 57, 72
11, 130248, Note_off_c, 10, 57, 64
11, 130248, Note_off_c, 10, 53, 64
11, 130260, Note_on_c, 10, 53, 72
11, 130260, Note_on_c, 10, 57, 72
11, 130308, Note_off_c, 10, 57, 64
11, 130308, Note_off_c, 10, 53, 64
11, 130320, Note_on_c, 10, 57, 72
11, 130320, Note_on_c, 10, 53, 72
11, 130368, Note_off_c, 10, 53, 64
11, 130368, Note_off_c, 10, 57, 64
11, 130380, Note_on_c, 10, 57, 72
11, 130380, Note_on_c, 10, 53, 72
11, 130428, Note_off_c, 10, 53, 64
11, 130428, Note_off_c, 10, 57, 64
11, 130440, Note_on_c, 10, 53, 72
11, 130440, Note_on_c, 10, 57, 72
11, 130488, Note_off_c, 10, 57, 64
11, 130488, Note_off_c, 10, 53, 64
11, 130500, Note_on_c, 10, 57, 72
11, 130500, Note_on_c, 10, 53, 72
11, 130548, Note_off_c, 10, 53, 64
11, 130548, Note_off_c, 10, 57, 64
11, 130560, Note_on_c, 10, 53, 72
11, 130560, Note_on_c, 10, 57, 72
11, 130608, Note_off_c, 10, 57, 64
11, 130608, Note_off_c, 10, 53, 64
11, 130620, Note_on_c, 10, 53, 72
11, 130620, Note_on_c, 10, 57, 72
11, 130668, Note_off_c, 10, 57, 64
11, 130668, Note_off_c, 10, 53, 64
11, 130680, Note_on_c, 10, 53, 72
11, 130680, Note_on_c, 10, 57, 72
11, 130728, Note_off_c, 10, 57, 64
11, 130728, Note_off_c, 10, 53, 64
11, 130740, Note_on_c, 10, 53, 72
11, 130740, Note_on_c, 10, 57, 72
11, 130788, Note_off_c, 10, 57, 64
11, 130788, Note_off_c, 10, 53, 64
11, 130800, Note_on_c, 10, 57, 72
11, 130800, Note_on_c, 10, 53, 72
11, 130848, Note_off_c, 10, 53, 64
11, 130848, Note_off_c, 10, 57, 64
11, 130860, Note_on_c, 10, 53, 72
11, 130860, Note_on_c, 10, 57, 72
11, 130908, Note_off_c, 10, 57, 64
11, 130908, Note_off_c, 10, 53, 64
11, 130920, Note_on_c, 10, 53, 72
11, 130920, Note_on_c, 10, 57, 72
11, 130968, Note_off_c, 10, 57, 64
11, 130968, Note_off_c, 10, 53, 64
11, 130980, Note_on_c, 10, 57, 72
11, 130980, Note_on_c, 10, 53, 72
11, 131028, Note_off_c, 10, 53, 64
11, 131028, Note_off_c, 10, 57, 64
11, 131040, Note_on_c, 10, 55, 72
11, 131040, Note_on_c, 10, 52, 72
11, 131088, Note_off_c, 10, 52, 64
11, 131088, Note_off_c, 10, 55, 64
11, 131100, Note_on_c, 10, 55, 72
11, 131100, Note_on_c, 10, 52, 72
11, 131148, Note_off_c, 10, 52, 64
11, 131148, Note_off_c, 10, 55, 64
11, 131160, Note_on_c, 10, 55, 72
11, 131160, Note_on_c, 10, 52, 72
11, 131208, Note_off_c, 10, 52, 64
11, 131208, Note_off_c, 10, 55, 64
11, 131220, Note_on_c, 10, 55, 72
11, 131220, Note_on_c, 10, 52, 72
11, 131268, Note_off_c, 10, 52, 64
11, 131268, Note_off_c, 10, 55, 64
11, 131280, Note_on_c, 10, 52, 72
11, 131280, Note_on_c, 10, 55, 72
11, 131328, Note_off_c, 10, 55, 64
11, 131328, Note_off_c, 10, 52, 64
11, 131340, Note_on_c, 10, 52, 72
11, 131340, Note_on_c, 10, 55, 72
11, 131388, Note_off_c, 10, 55, 64
11, 131388, Note_off_c, 10, 52, 64
11, 131400, Note_on_c, 10, 52, 72
11, 131400, Note_on_c, 10, 55, 72
11, 131448, Note_off_c, 10, 55, 64
11, 131448, Note_off_c, 10, 52, 64
11, 131460, Note_on_c, 10, 55, 72
11, 131460, Note_on_c, 10, 52, 72
11, 131508, Note_off_c, 10, 52, 64
11, 131508, Note_off_c, 10, 55, 64
11, 131520, Note_on_c, 10, 52, 72
11, 131520, Note_on_c, 10, 55, 72
11, 131568, Note_off_c, 10, 55, 64
11, 131568, Note_off_c, 10, 52, 64
11, 131580, Note_on_c, 10, 55, 72
11, 131580, Note_on_c, 10, 52, 72
11, 131628, Note_off_c, 10, 52, 64
11, 131628, Note_off_c, 10, 55, 64
11, 131640, Note_on_c, 10, 52, 72
11, 131640, Note_on_c, 10, 55, 72
11, 131688, Note_off_c, 10, 55, 64
11, 131688, Note_off_c, 10, 52, 64
11, 131700, Note_on_c, 10, 55, 72
11, 131700, Note_on_c, 10, 52, 72
11, 131748, Note_off_c, 10, 52, 64
11, 131748, Note_off_c, 10, 55, 64
11, 131760, Note_on_c, 10, 52, 72
11, 131760, Note_on_c, 10, 55, 72
11, 131808, Note_off_c, 10, 55, 64
11, 131808, Note_off_c, 10, 52, 64
11, 131820, Note_on_c, 10, 55, 72
11, 131820, Note_on_c, 10, 52, 72
11, 131868, Note_off_c, 10, 52, 64
11, 131868, Note_off_c, 10, 55, 64
11, 131880, Note_on_c, 10, 55, 72
11, 131880, Note_on_c, 10, 52, 72
11, 131928, Note_off_c, 10, 52, 64
11, 131928, Note_off_c, 10, 55, 64
11, 131940, Note_on_c, 10, 55, 72
11, 131940, Note_on_c, 10, 52, 72
11, 131988, Note_off_c, 10, 52, 64
11, 131988, Note_off_c, 10, 55, 64
11, 132000, Note_on_c, 10, 55, 72
11, 132000, Note_on_c, 10, 52, 72
11, 132048, Note_off_c, 10, 52, 64
11, 132048, Note_off_c, 10, 55, 64
11, 132060, Note_on_c, 10, 55, 72
11, 132060, Note_on_c, 10, 52, 72
11, 132108, Note_off_c, 10, 52, 64
11, 132108, Note_off_c, 10, 55, 64
11, 132120, Note_on_c, 10, 52, 72
11, 132120, Note_on_c, 10, 55, 72
11, 132168, Note_off_c, 10, 55, 64
11, 132168, Note_off_c, 10, 52, 64
11, 132180, Note_on_c, 10, 52, 72
11, 132180, Note_on_c, 10, 55, 72
11, 132228, Note_off_c, 10, 55, 64
11, 132228, Note_off_c, 10, 52, 64
11, 132240, Note_on_c, 10, 55, 72
11, 132240, Note_on_c, 10, 52, 72
11, 132288, Note_off_c, 10, 52, 64
11, 132288, Note_off_c, 10, 55, 64
11, 132300, Note_on_c, 10, 52, 72
11, 132300, Note_on_c, 10, 55, 72
11, 132348, Note_off_c, 10, 55, 64
11, 132348, Note_off_c, 10, 52, 64
11, 132360, Note_on_c, 10, 52, 72
11, 132360, Note_on_c, 10, 55, 72
11, 132408, Note_off_c, 10, 55, 64
11, 132408, Note_off_c, 10, 52, 64
11, 132420, Note_on_c, 10, 52, 72
11, 132420, Note_on_c, 10, 55, 72
11, 132468, Note_off_c, 10, 55, 64
11, 132468, Note_off_c, 10, 52, 64
11, 132480, Note_on_c, 10, 55, 72
11, 132480, Note_on_c, 10, 52, 72
11, 132528, Note_off_c, 10, 52, 64
11, 132528, Note_off_c, 10, 55, 64
11, 132540, Note_on_c, 10, 52, 72
11, 132540, Note_on_c, 10, 55, 72
11, 132588, Note_off_c, 10, 55, 64
11, 132588, Note_off_c, 10, 52, 64
11, 132600, Note_on_c, 10, 55, 72
11, 132600, Note_on_c, 10, 52, 72
11, 132648, Note_off_c, 10, 52, 64
11, 132648, Note_off_c, 10, 55, 64
11, 132660, Note_on_c, 10, 52, 72
11, 132660, Note_on_c, 10, 55, 72
11, 132708, Note_off_c, 10, 55, 64
11, 132708, Note_off_c, 10, 52, 64
11, 132720, Note_on_c, 10, 55, 72
11, 132720, Note_on_c, 10, 52, 72
11, 132768, Note_off_c, 10, 52, 64
11, 132768, Note_off_c, 10, 55, 64
11, 132780, Note_on_c, 10, 52, 72
11, 132780, Note_on_c, 10, 55, 72
11, 132828, Note_off_c, 10, 55, 64
11, 132828, Note_off_c, 10, 52, 64
11, 132840, Note_on_c, 10, 52, 72
11, 132840, Note_on_c, 10, 55, 72
11, 132888, Note_off_c, 10, 55, 64
11, 132888, Note_off_c, 10, 52, 64
11, 132900, Note_on_c, 10, 55, 72
11, 132900, Note_on_c, 10, 52, 72
11, 132948, Note_off_c, 10, 52, 64
11, 132948, Note_off_c, 10, 55, 64
11, 132960, Note_on_c, 10, 50, 72
11, 132960, Note_on_c, 10, 53, 72
11, 133008, Note_off_c, 10, 53, 64
11, 133008, Note_off_c, 10, 50, 64
11, 133020, Note_on_c, 10, 53, 72
11, 133020, Note_on_c, 10, 50, 72
11, 133068, Note_off_c, 10, 50, 64
11, 133068, Note_off_c, 10, 53, 64
11, 133080, Note_on_c, 10, 50, 72
11, 133080, Note_on_c, 10, 53, 72
11, 133128, Note_off_c, 10, 53, 64
11, 133128, Note_off_c, 10, 50, 64
11, 133140, Note_on_c, 10, 53, 72
11, 133140, Note_on_c, 10, 50, 72
11, 133188, Note_off_c, 10, 50, 64
11, 133188, Note_off_c, 10, 53, 64
11, 133200, Note_on_c, 10, 50, 72
11, 133200, Note_on_c, 10, 53, 72
11, 133248, Note_off_c, 10, 53, 64
11, 133248, Note_off_c, 10, 50, 64
11, 133260, Note_on_c, 10, 50, 72
11, 133260, Note_on_c, 10, 53, 72
11, 133308, Note_off_c, 10, 53, 64
11, 133308, Note_off_c, 10, 50, 64
11, 133320, Note_on_c, 10, 53, 72
11, 133320, Note_on_c, 10, 50, 72
11, 133368, Note_off_c, 10, 50, 64
11, 133368, Note_off_c, 10, 53, 64
11, 133380, Note_on_c, 10, 53, 72
11, 133380, Note_on_c, 10, 50, 72
11, 133428, Note_off_c, 10, 50, 64
11, 133428, Note_off_c, 10, 53, 64
11, 133440, Note_on_c, 10, 50, 72
11, 133440, Note_on_c, 10, 53, 72
11, 133488, Note_off_c, 10, 53, 64
11, 133488, Note_off_c, 10, 50, 64
11, 133500, Note_on_c, 10, 53, 72
11, 133500, Note_on_c, 10, 50, 72
11, 133548, Note_off_c, 10, 50, 64
11, 133548, Note_off_c, 10, 53, 64
11, 133560, Note_on_c, 10, 50, 72
11, 133560, Note_on_c, 10, 53, 72
11, 133608, Note_off_c, 10, 53, 64
11, 133608, Note_off_c, 10, 50, 64
11, 133620, Note_on_c, 10, 53, 72
11, 133620, Note_on_c, 10, 50, 72
11, 133668, Note_off_c, 10, 50, 64
11, 133668, Note_off_c, 10, 53, 64
11, 133680, Note_on_c, 10, 53, 72
11, 133680, Note_on_c, 10, 50, 72
11, 133728, Note_off_c, 10, 50, 64
11, 133728, Note_off_c, 10, 53, 64
11, 133740, Note_on_c, 10, 53, 72
11, 133740, Note_on_c, 10, 50, 72
11, 133788, Note_off_c, 10, 50, 64
11, 133788, Note_off_c, 10, 53, 64
11, 133800, Note_on_c, 10, 53, 72
11, 133800, Note_on_c, 10, 50, 72
11, 133848, Note_off_c, 10, 50, 64
11, 133848, Note_off_c, 10, 53, 64
11, 133860, Note_on_c, 10, 53, 72
11, 133860, Note_on_c, 10, 50, 72
11, 133908, Note_off_c, 10, 50, 64
11, 133908, Note_off_c, 10, 53, 64
11, 133920, Note_on_c, 10, 53, 72
11, 133920, Note_on_c, 10, 50, 72
11, 133968, Note_off_c, 10, 50, 64
11, 133968, Note_off_c, 10, 53, 64
11, 133980, Note_on_c, 10, 53, 72
11, 133980, Note_on_c, 10, 50, 72
11, 134028, Note_off_c, 10, 50, 64
11, 134028, Note_off_c, 10, 53, 64
11, 134040, Note_on_c, 10, 50, 72
11, 134040, Note_on_c, 10, 53, 72
11, 134088, Note_off_c, 10, 53, 64
11, 134088, Note_off_c, 10, 50, 64
11, 134100, Note_on_c, 10, 50, 72
11, 134100, Note_on_c, 10, 53, 72
11, 134148, Note_off_c, 10, 53, 64
11, 134148, Note_off_c, 10, 50, 64
11, 134160, Note_on_c, 10, 53, 72
11, 134160, Note_on_c, 10, 50, 72
11, 134208, Note_off_c, 10, 50, 64
11, 134208, Note_off_c, 10, 53, 64
11, 134220, Note_on_c, 10, 53, 72
11, 134220, Note_on_c, 10, 50, 72
11, 134268, Note_off_c, 10, 50, 64
11, 134268, Note_off_c, 10, 53, 64
11, 134280, Note_on_c, 10, 50, 72
11, 134280, Note_on_c, 10, 53, 72
11, 134328, Note_off_c, 10, 53, 64
11, 134328, Note_off_c, 10, 50, 64
11, 134340, Note_on_c, 10, 53, 72
11, 134340, Note_on_c, 10, 50, 72
11, 134388, Note_off_c, 10, 50, 64
11, 134388, Note_off_c, 10, 53, 64
11, 134400, Note_on_c, 10, 50, 72
11, 134400, Note_on_c, 10, 53, 72
11, 134448, Note_off_c, 10, 53, 64
11, 134448, Note_off_c, 10, 50, 64
11, 134460, Note_on_c, 10, 50, 72
11, 134460, Note_on_c, 10, 53, 72
11, 134508, Note_off_c, 10, 53, 64
11, 134508, Note_off_c, 10, 50, 64
11, 134520, Note_on_c, 10, 53, 72
11, 134520, Note_on_c, 10, 50, 72
11, 134568, Note_off_c, 10, 50, 64
11, 134568, Note_off_c, 10, 53, 64
11, 134580, Note_on_c, 10, 50, 72
11, 134580, Note_on_c, 10, 53, 72
11, 134628, Note_off_c, 10, 53, 64
11, 134628, Note_off_c, 10, 50, 64
11, 134640, Note_on_c, 10, 53, 72
11, 134640, Note_on_c, 10, 50, 72
11, 134688, Note_off_c, 10, 50, 64
11, 134688, Note_off_c, 10, 53, 64
11, 134700, Note_on_c, 10, 53, 72
11, 134700, Note_on_c, 10, 50, 72
11, 134748, Note_off_c, 10, 50, 64
11, 134748, Note_off_c, 10, 53, 64
11, 134760, Note_on_c, 10, 50, 72
11, 134760, Note_on_c, 10, 53, 72
11, 134808, Note_off_c, 10, 53, 64
11, 134808, Note_off_c, 10, 50, 64
11, 134820, Note_on_c, 10, 53, 72
11, 134820, Note_on_c, 10, 50, 72
11, 134868, Note_off_c, 10, 50, 64
11, 134868, Note_off_c, 10, 53, 64
11, 134880, Note_on_c, 10, 52, 72
11, 134880, Note_on_c, 10, 48, 72
11, 134928, Note_off_c, 10, 48, 64
11, 134928, Note_off_c, 10, 52, 64
11, 134940, Note_on_c, 10, 52, 72
11, 134940, Note_on_c, 10, 48, 72
11, 134988, Note_off_c, 10, 48, 64
11, 134988, Note_off_c, 10, 52, 64
11, 135000, Note_on_c, 10, 52, 72
11, 135000, Note_on_c, 10, 48, 72
11, 135048, Note_off_c, 10, 48, 64
11, 135048, Note_off_c, 10, 52, 64
11, 135060, Note_on_c, 10, 52, 72
11, 135060, Note_on_c, 10, 48, 72
11, 135108, Note_off_c, 10, 48, 64
11, 135108, Note_off_c, 10, 52, 64
11, 135120, Note_on_c, 10, 48, 72
11, 135120, Note_on_c, 10, 52, 72
11, 135168, Note_off_c, 10, 52, 64
11, 135168, Note_off_c, 10, 48, 64
11, 135180, Note_on_c, 10, 48, 72
11, 135180, Note_on_c, 10, 52, 72
11, 135228, Note_off_c, 10, 52, 64
11, 135228, Note_off_c, 10, 48, 64
11, 135240, Note_on_c, 10, 52, 72
11, 135240, Note_on_c, 10, 48, 72
11, 135288, Note_off_c, 10, 48, 64
11, 135288, Note_off_c, 10, 52, 64
11, 135300, Note_on_c, 10, 52, 72
11, 135300, Note_on_c, 10, 48, 72
11, 135348, Note_off_c, 10, 48, 64
11, 135348, Note_off_c, 10, 52, 64
11, 135360, Note_on_c, 10, 52, 72
11, 135360, Note_on_c, 10, 48, 72
11, 135408, Note_off_c, 10, 48, 64
11, 135408, Note_off_c, 10, 52, 64
11, 135420, Note_on_c, 10, 52, 72
11, 135420, Note_on_c, 10, 48, 72
11, 135468, Note_off_c, 10, 48, 64
11, 135468, Note_off_c, 10, 52, 64
11, 135480, Note_on_c, 10, 48, 72
11, 135480, Note_on_c, 10, 52, 72
11, 135528, Note_off_c, 10, 52, 64
11, 135528, Note_off_c, 10, 48, 64
11, 135540, Note_on_c, 10, 48, 72
11, 135540, Note_on_c, 10, 52, 72
11, 135588, Note_off_c, 10, 52, 64
11, 135588, Note_off_c, 10, 48, 64
11, 135600, Note_on_c, 10, 48, 72
11, 135600, Note_on_c, 10, 52, 72
11, 135648, Note_off_c, 10, 52, 64
11, 135648, Note_off_c, 10, 48, 64
11, 135660, Note_on_c, 10, 52, 72
11, 135660, Note_on_c, 10, 48, 72
11, 135708, Note_off_c, 10, 48, 64
11, 135708, Note_off_c, 10, 52, 64
11, 135720, Note_on_c, 10, 52, 72
11, 135720, Note_on_c, 10, 48, 72
11, 135768, Note_off_c, 10, 48, 64
11, 135768, Note_off_c, 10, 52, 64
11, 135780, Note_on_c, 10, 48, 72
11, 135780, Note_on_c, 10, 52, 72
11, 135828, Note_off_c, 10, 52, 64
11, 135828, Note_off_c, 10, 48, 64
11, 135840, Note_on_c, 10, 64, 72
11, 135840, Note_on_c, 10, 55, 72
11, 135888, Note_off_c, 10, 55, 64
11, 135888, Note_off_c, 10, 64, 64
11, 135900, Note_on_c, 10, 64, 72
11, 135900, Note_on_c, 10, 55, 72
11, 135948, Note_off_c, 10, 55, 64
11, 135948, Note_off_c, 10, 64, 64
11, 135960, Note_on_c, 10, 64, 72
11, 135960, Note_on_c, 10, 55, 72
11, 136008, Note_off_c, 10, 55, 64
11, 136008, Note_off_c, 10, 64, 64
11, 136020, Note_on_c, 10, 55, 72
11, 136020, Note_on_c, 10, 64, 72
11, 136068, Note_off_c, 10, 64, 64
11, 136068, Note_off_c, 10, 55, 64
11, 136080, Note_on_c, 10, 55, 72
11, 136080, Note_on_c, 10, 64, 72
11, 136128, Note_off_c, 10, 64, 64
11, 136128, Note_off_c, 10, 55, 64
11, 136140, Note_on_c, 10, 64, 72
11, 136140, Note_on_c, 10, 55, 72
11, 136188, Note_off_c, 10, 55, 64
11, 136188, Note_off_c, 10, 64, 64
11, 136200, Note_on_c, 10, 55, 72
11, 136200, Note_on_c, 10, 64, 72
11, 136248, Note_off_c, 10, 64, 64
11, 136248, Note_off_c, 10, 55, 64
11, 136260, Note_on_c, 10, 64, 72
11, 136260, Note_on_c, 10, 55, 72
11, 136308, Note_off_c, 10, 55, 64
11, 136308, Note_off_c, 10, 64, 64
11, 136320, Note_on_c, 10, 53, 81
11, 136320, Note_on_c, 10, 64, 81
11, 136368, Note_off_c, 10, 64, 64
11, 136368, Note_off_c, 10, 53, 64
11, 136380, Note_on_c, 10, 64, 81
11, 136380, Note_on_c, 10, 53, 81
11, 136428, Note_off_c, 10, 53, 64
11, 136428, Note_off_c, 10, 64, 64
11, 136440, Note_on_c, 10, 64, 80
11, 136440, Note_on_c, 10, 53, 80
11, 136488, Note_off_c, 10, 53, 64
11, 136488, Note_off_c, 10, 64, 64
11, 136500, Note_on_c, 10, 53, 79
11, 136500, Note_on_c, 10, 64, 79
11, 136548, Note_off_c, 10, 64, 64
11, 136548, Note_off_c, 10, 53, 64
11, 136560, Note_on_c, 10, 64, 79
11, 136560, Note_on_c, 10, 53, 79
11, 136608, Note_off_c, 10, 53, 64
11, 136608, Note_off_c, 10, 64, 64
11, 136620, Note_on_c, 10, 64, 78
11, 136620, Note_on_c, 10, 53, 78
11, 136668, Note_off_c, 10, 53, 64
11, 136668, Note_off_c, 10, 64, 64
11, 136680, Note_on_c, 10, 64, 78
11, 136680, Note_on_c, 10, 53, 78
11, 136728, Note_off_c, 10, 53, 64
11, 136728, Note_off_c, 10, 64, 64
11, 136740, Note_on_c, 10, 64, 77
11, 136740, Note_on_c, 10, 53, 77
11, 136788, Note_off_c, 10, 53, 64
11, 136788, Note_off_c, 10, 64, 64
11, 136800, Note_on_c, 10, 62, 77
11, 136800, Note_on_c, 10, 53, 77
11, 136848, Note_off_c, 10, 53, 64
11, 136848, Note_off_c, 10, 62, 64
11, 136860, Note_on_c, 10, 62, 77
11, 136860, Note_on_c, 10, 53, 77
11, 136908, Note_off_c, 10, 53, 64
11, 136908, Note_off_c, 10, 62, 64
11, 136920, Note_on_c, 10, 53, 76
11, 136920, Note_on_c, 10, 62, 76
11, 136968, Note_off_c, 10, 62, 64
11, 136968, Note_off_c, 10, 53, 64
11, 136980, Note_on_c, 10, 62, 75
11, 136980, Note_on_c, 10, 53, 75
11, 137028, Note_off_c, 10, 53, 64
11, 137028, Note_off_c, 10, 62, 64
11, 137040, Note_on_c, 10, 53, 75
11, 137040, Note_on_c, 10, 62, 75
11, 137088, Note_off_c, 10, 62, 64
11, 137088, Note_off_c, 10, 53, 64
11, 137100, Note_on_c, 10, 62, 74
11, 137100, Note_on_c, 10, 53, 74
11, 137148, Note_off_c, 10, 53, 64
11, 137148, Note_off_c, 10, 62, 64
11, 137160, Note_on_c, 10, 53, 73
11, 137160, Note_on_c, 10, 62, 73
11, 137208, Note_off_c, 10, 62, 64
11, 137208, Note_off_c, 10, 53, 64
11, 137220, Note_on_c, 10, 62, 73
11, 137220, Note_on_c, 10, 53, 73
11, 137268, Note_off_c, 10, 53, 64
11, 137268, Note_off_c, 10, 62, 64
11, 137280, Note_on_c, 10, 62, 72
11, 137280, Note_on_c, 10, 52, 72
11, 137328, Note_off_c, 10, 52, 64
11, 137328, Note_off_c, 10, 62, 64
11, 137340, Note_on_c, 10, 52, 72
11, 137340, Note_on_c, 10, 62, 72
11, 137388, Note_off_c, 10, 62, 64
11, 137388, Note_off_c, 10, 52, 64
11, 137400, Note_on_c, 10, 52, 71
11, 137400, Note_on_c, 10, 62, 71
11, 137448, Note_off_c, 10, 62, 64
11, 137448, Note_off_c, 10, 52, 64
11, 137460, Note_on_c, 10, 52, 70
11, 137460, Note_on_c, 10, 62, 70
11, 137508, Note_off_c, 10, 62, 64
11, 137508, Note_off_c, 10, 52, 64
11, 137520, Note_on_c, 10, 52, 70
11, 137520, Note_on_c, 10, 62, 70
11, 137568, Note_off_c, 10, 62, 64
11, 137568, Note_off_c, 10, 52, 64
11, 137580, Note_on_c, 10, 62, 69
11, 137580, Note_on_c, 10, 52, 69
11, 137628, Note_off_c, 10, 52, 64
11, 137628, Note_off_c, 10, 62, 64
11, 137640, Note_on_c, 10, 62, 68
11, 137640, Note_on_c, 10, 52, 68
11, 137688, Note_off_c, 10, 52, 64
11, 137688, Note_off_c, 10, 62, 64
11, 137700, Note_on_c, 10, 52, 68
11, 137700, Note_on_c, 10, 62, 68
11, 137748, Note_off_c, 10, 62, 64
11, 137748, Note_off_c, 10, 52, 64
11, 137760, Note_on_c, 10, 52, 68
11, 137760, Note_on_c, 10, 60, 68
11, 137808, Note_off_c, 10, 60, 64
11, 137808, Note_off_c, 10, 52, 64
11, 137820, Note_on_c, 10, 52, 68
11, 137820, Note_on_c, 10, 60, 68
11, 137868, Note_off_c, 10, 60, 64
11, 137868, Note_off_c, 10, 52, 64
11, 137880, Note_on_c, 10, 52, 67
11, 137880, Note_on_c, 10, 60, 67
11, 137928, Note_off_c, 10, 60, 64
11, 137928, Note_off_c, 10, 52, 64
11, 137940, Note_on_c, 10, 60, 66
11, 137940, Note_on_c, 10, 52, 66
11, 137988, Note_off_c, 10, 52, 64
11, 137988, Note_off_c, 10, 60, 64
11, 138000, Note_on_c, 10, 60, 66
11, 138000, Note_on_c, 10, 52, 66
11, 138048, Note_off_c, 10, 52, 64
11, 138048, Note_off_c, 10, 60, 64
11, 138060, Note_on_c, 10, 60, 65
11, 138060, Note_on_c, 10, 52, 65
11, 138108, Note_off_c, 10, 52, 64
11, 138108, Note_off_c, 10, 60, 64
11, 138120, Note_on_c, 10, 60, 64
11, 138120, Note_on_c, 10, 52, 64
11, 138168, Note_off_c, 10, 52, 64
11, 138168, Note_off_c, 10, 60, 64
11, 138180, Note_on_c, 10, 60, 64
11, 138180, Note_on_c, 10, 52, 64
11, 138228, Note_off_c, 10, 52, 64
11, 138228, Note_off_c, 10, 60, 64
11, 138240, Note_on_c, 10, 50, 63
11, 138240, Note_on_c, 10, 60, 63
11, 138288, Note_off_c, 10, 60, 64
11, 138288, Note_off_c, 10, 50, 64
11, 138300, Note_on_c, 10, 60, 63
11, 138300, Note_on_c, 10, 50, 63
11, 138348, Note_off_c, 10, 50, 64
11, 138348, Note_off_c, 10, 60, 64
11, 138360, Note_on_c, 10, 50, 62
11, 138360, Note_on_c, 10, 60, 62
11, 138408, Note_off_c, 10, 60, 64
11, 138408, Note_off_c, 10, 50, 64
11, 138420, Note_on_c, 10, 60, 61
11, 138420, Note_on_c, 10, 50, 61
11, 138468, Note_off_c, 10, 50, 64
11, 138468, Note_off_c, 10, 60, 64
11, 138480, Note_on_c, 10, 50, 61
11, 138480, Note_on_c, 10, 60, 61
11, 138528, Note_off_c, 10, 60, 64
11, 138528, Note_off_c, 10, 50, 64
11, 138540, Note_on_c, 10, 60, 60
11, 138540, Note_on_c, 10, 50, 60
11, 138588, Note_off_c, 10, 50, 64
11, 138588, Note_off_c, 10, 60, 64
11, 138600, Note_on_c, 10, 60, 59
11, 138600, Note_on_c, 10, 50, 59
11, 138648, Note_off_c, 10, 50, 64
11, 138648, Note_off_c, 10, 60, 64
11, 138660, Note_on_c, 10, 50, 59
11, 138660, Note_on_c, 10, 60, 59
11, 138708, Note_off_c, 10, 60, 64
11, 138708, Note_off_c, 10, 50, 64
11, 138720, Note_on_c, 10, 59, 59
11, 138720, Note_on_c, 10, 50, 59
11, 138768, Note_off_c, 10, 50, 64
11, 138768, Note_off_c, 10, 59, 64
11, 138780, Note_on_c, 10, 50, 58
11, 138780, Note_on_c, 10, 59, 58
11, 138828, Note_off_c, 10, 59, 64
11, 138828, Note_off_c, 10, 50, 64
11, 138840, Note_on_c, 10, 59, 58
11, 138840, Note_on_c, 10, 50, 58
11, 138888, Note_off_c, 10, 50, 64
11, 138888, Note_off_c, 10, 59, 64
11, 138900, Note_on_c, 10, 59, 57
11, 138900, Note_on_c, 10, 50, 57
11, 138948, Note_off_c, 10, 50, 64
11, 138948, Note_off_c, 10, 59, 64
11, 138960, Note_on_c, 10, 50, 57
11, 138960, Note_on_c, 10, 59, 57
11, 139008, Note_off_c, 10, 59, 64
11, 139008, Note_off_c, 10, 50, 64
11, 139020, Note_on_c, 10, 59, 56
11, 139020, Note_on_c, 10, 50, 56
11, 139068, Note_off_c, 10, 50, 64
11, 139068, Note_off_c, 10, 59, 64
11, 139080, Note_on_c, 10, 50, 55
11, 139080, Note_on_c, 10, 59, 55
11, 139128, Note_off_c, 10, 59, 64
11, 139128, Note_off_c, 10, 50, 64
11, 139140, Note_on_c, 10, 59, 55
11, 139140, Note_on_c, 10, 50, 55
11, 139188, Note_off_c, 10, 50, 64
11, 139188, Note_off_c, 10, 59, 64
11, 139200, Note_on_c, 10, 48, 54
11, 139200, Note_on_c, 10, 59, 54
11, 139248, Note_off_c, 10, 59, 64
11, 139248, Note_off_c, 10, 48, 64
11, 139260, Note_on_c, 10, 59, 53
11, 139260, Note_on_c, 10, 48, 53
11, 139308, Note_off_c, 10, 48, 64
11, 139308, Note_off_c, 10, 59, 64
11, 139320, Note_on_c, 10, 59, 53
11, 139320, Note_on_c, 10, 48, 53
11, 139368, Note_off_c, 10, 48, 64
11, 139368, Note_off_c, 10, 59, 64
11, 139380, Note_on_c, 10, 59, 52
11, 139380, Note_on_c, 10, 48, 52
11, 139428, Note_off_c, 10, 48, 64
11, 139428, Note_off_c, 10, 59, 64
11, 139440, Note_on_c, 10, 48, 52
11, 139440, Note_on_c, 10, 59, 52
11, 139488, Note_off_c, 10, 59, 64
11, 139488, Note_off_c, 10, 48, 64
11, 139500, Note_on_c, 10, 48, 51
11, 139500, Note_on_c, 10, 59, 51
11, 139548, Note_off_c, 10, 59, 64
11, 139548, Note_off_c, 10, 48, 64
11, 139560, Note_on_c, 10, 59, 50
11, 139560, Note_on_c, 10, 48, 50
11, 139608, Note_off_c, 10, 48, 64
11, 139608, Note_off_c, 10, 59, 64
11, 139620, Note_on_c, 10, 59, 50
11, 139620, Note_on_c, 10, 48, 50
11, 139668, Note_off_c, 10, 48, 64
11, 139668, Note_off_c, 10, 59, 64
11, 139680, Note_on_c, 10, 57, 50
11, 139680, Note_on_c, 10, 48, 50
11, 139728, Note_off_c, 10, 48, 64
11, 139728, Note_off_c, 10, 57, 64
11, 139740, Note_on_c, 10, 48, 49
11, 139740, Note_on_c, 10, 57, 49
11, 139788, Note_off_c, 10, 57, 64
11, 139788, Note_off_c, 10, 48, 64
11, 139800, Note_on_c, 10, 57, 49
11, 139800, Note_on_c, 10, 48, 49
11, 139848, Note_off_c, 10, 48, 64
11, 139848, Note_off_c, 10, 57, 64
11, 139860, Note_on_c, 10, 57, 48
11, 139860, Note_on_c, 10, 48, 48
11, 139908, Note_off_c, 10, 48, 64
11, 139908, Note_off_c, 10, 57, 64
11, 139920, Note_on_c, 10, 48, 48
11, 139920, Note_on_c, 10, 57, 48
11, 139968, Note_off_c, 10, 57, 64
11, 139968, Note_off_c, 10, 48, 64
11, 139980, Note_on_c, 10, 57, 47
11, 139980, Note_on_c, 10, 48, 47
11, 140028, Note_off_c, 10, 48, 64
11, 140028, Note_off_c, 10, 57, 64
11, 140040, Note_on_c, 10, 48, 46
11, 140040, Note_on_c, 10, 57, 46
11, 140088, Note_off_c, 10, 57, 64
11, 140088, Note_off_c, 10, 48, 64
11, 140100, Note_on_c, 10, 57, 46
11, 140100, Note_on_c, 10, 48, 46
11, 140148, Note_off_c, 10, 48, 64
11, 140148, Note_off_c, 10, 57, 64
11, 140160, Note_on_c, 10, 50, 29
11, 140160, Note_on_c, 10, 47, 29
11, 141120, Note_off_c, 10, 47, 64
11, 141120, Note_off_c, 10, 50, 64
11, 141120, Note_on_c, 10, 52, 29
11, 141120, Note_on_c, 10, 48, 29
11, 142080, Note_off_c, 10, 48, 64
11, 142080, Note_off_c, 10, 52, 64
11, 142080, Note_on_c, 10, 47, 29
11, 142080, Note_on_c, 10, 50, 29
11, 143040, Note_off_c, 10, 50, 64
11, 143040, Note_off_c, 10, 47, 64
11, 143040, Note_on_c, 10, 48, 29
11, 143040, Note_on_c, 10, 52, 29
11, 144480, Note_off_c, 10, 52, 64
11, 144480, Note_off_c, 10, 48, 64
11, 144480, Note_on_c, 10, 50, 29
11, 144480, Note_on_c, 10, 47, 29
11, 144960, Note_off_c, 10, 47, 64
11, 144960, Note_off_c, 10, 50, 64
11, 144960, Note_on_c, 10, 48, 29
11, 144960, Note_on_c, 10, 52, 29
11, 146400, Note_off_c, 10, 52, 64
11, 146400, Note_off_c, 10, 48, 64
11, 146400, Note_on_c, 10, 50, 29
11, 146400, Note_on_c, 10, 47, 29
11, 146880, Note_off_c, 10, 47, 64
11, 146880, Note_off_c, 10, 50, 64
11, 146880, Note_on_c, 10, 52, 29
11, 146880, Note_on_c, 10, 48, 29
11, 148320, Note_off_c, 10, 48, 64
11, 148320, Note_off_c, 10, 52, 64
11, 148320, Note_on_c, 10, 47, 29
11, 148320, Note_on_c, 10, 50, 29
11, 148800, Note_off_c, 10, 50, 64
11, 148800, Note_off_c, 10, 47, 64
11, 148800, Note_on_c, 10, 55, 29
11, 150660, Note_off_c, 10, 55, 64
11, 150720, Note_on_c, 10, 57, 29
11, 152640, Note_off_c, 10, 57, 64
11, 152640, Note_on_c, 10, 55, 23
11, 153120, Note_off_c, 10, 55, 64
11, 153120, Note_on_c, 10, 52, 23
11, 154080, Note_off_c, 10, 52, 64
11, 154080, Note_on_c, 10, 60, 20
11, 154680, Note_off_c, 10, 60, 64
11, 154680, Note_on_c, 10, 59, 16
11, 155220, Note_off_c, 10, 59, 64
11, 155220, Note_on_c, 10, 57, 14
11, 155700, Note_off_c, 10, 57, 64
11, 185040, Note_on_c, 10, 67, 72
11, 185904, Note_off_c, 10, 67, 64
11, 186000, Note_on_c, 10, 66, 72
11, 186864, Note_off_c, 10, 66, 64
11, 186960, Note_on_c, 10, 64, 72
11, 187824, Note_off_c, 10, 64, 64
11, 187920, Note_on_c, 10, 62, 72
11, 188784, Note_off_c, 10, 62, 64
11, 188880, Note_on_c, 10, 60, 72
11, 189744, Note_off_c, 10, 60, 64
11, 189840, Note_on_c, 10, 59, 72
11, 190224, Note_off_c, 10, 59, 64
11, 190320, Note_on_c, 10, 57, 89
11, 190416, Note_off_c, 10, 57, 64
11, 190440, Note_on_c, 10, 50, 89
11, 190536, Note_off_c, 10, 50, 64
11, 190560, Note_on_c, 10, 57, 89
11, 190656, Note_off_c, 10, 57, 64
11, 190680, Note_on_c, 10, 55, 89
11, 190776, Note_off_c, 10, 55, 64
11, 190800, Note_on_c, 10, 54, 89
11, 190896, Note_off_c, 10, 54, 64
11, 190920, Note_on_c, 10, 50, 89
11, 191016, Note_off_c, 10, 50, 64
11, 191040, Note_on_c, 10, 52, 89
11, 191136, Note_off_c, 10, 52, 64
11, 191160, Note_on_c, 10, 54, 89
11, 191256, Note_off_c, 10, 54, 64
11, 191280, Note_on_c, 10, 55, 89
11, 191376, Note_off_c, 10, 55, 64
11, 191400, Note_on_c, 10, 62, 89
11, 191496, Note_off_c, 10, 62, 64
11, 191520, Note_on_c, 10, 60, 89
11, 191616, Note_off_c, 10, 60, 64
11, 191640, Note_on_c, 10, 59, 89
11, 191736, Note_off_c, 10, 59, 64
11, 191760, Note_on_c, 10, 57, 89
11, 191856, Note_off_c, 10, 57, 64
11, 191880, Note_on_c, 10, 55, 89
11, 191976, Note_off_c, 10, 55, 64
11, 192000, Note_on_c, 10, 54, 89
11, 192096, Note_off_c, 10, 54, 64
11, 192120, Note_on_c, 10, 55, 89
11, 192216, Note_off_c, 10, 55, 64
11, 192240, Note_on_c, 10, 57, 89
11, 192336, Note_off_c, 10, 57, 64
11, 192360, Note_on_c, 10, 50, 89
11, 192456, Note_off_c, 10, 50, 64
11, 192480, Note_on_c, 10, 57, 89
11, 192576, Note_off_c, 10, 57, 64
11, 192600, Note_on_c, 10, 55, 89
11, 192696, Note_off_c, 10, 55, 64
11, 192720, Note_on_c, 10, 54, 89
11, 192816, Note_off_c, 10, 54, 64
11, 192840, Note_on_c, 10, 50, 89
11, 192936, Note_off_c, 10, 50, 64
11, 192960, Note_on_c, 10, 52, 89
11, 193056, Note_off_c, 10, 52, 64
11, 193080, Note_on_c, 10, 54, 89
11, 193176, Note_off_c, 10, 54, 64
11, 193200, Note_on_c, 10, 55, 89
11, 193296, Note_off_c, 10, 55, 64
11, 193320, Note_on_c, 10, 62, 89
11, 193416, Note_off_c, 10, 62, 64
11, 193440, Note_on_c, 10, 65, 89
11, 193536, Note_off_c, 10, 65, 64
11, 193560, Note_on_c, 10, 64, 89
11, 193656, Note_off_c, 10, 64, 64
11, 193680, Note_on_c, 10, 62, 89
11, 193776, Note_off_c, 10, 62, 64
11, 193800, Note_on_c, 10, 59, 89
11, 193896, Note_off_c, 10, 59, 64
11, 193920, Note_on_c, 10, 60, 89
11, 194016, Note_off_c, 10, 60, 64
11, 194040, Note_on_c, 10, 62, 89
11, 194136, Note_off_c, 10, 62, 64
11, 194160, Note_on_c, 10, 55, 89
11, 194256, Note_off_c, 10, 55, 64
11, 194280, Note_on_c, 10, 67, 89
11, 194376, Note_off_c, 10, 67, 64
11, 194400, Note_on_c, 10, 69, 89
11, 194496, Note_off_c, 10, 69, 64
11, 194520, Note_on_c, 10, 71, 89
11, 194616, Note_off_c, 10, 71, 64
11, 194640, Note_on_c, 10, 72, 89
11, 194832, Note_off_c, 10, 72, 64
11, 194880, Note_on_c, 10, 72, 89
11, 195072, Note_off_c, 10, 72, 64
11, 195120, Note_on_c, 10, 65, 89
11, 195216, Note_off_c, 10, 65, 64
11, 195240, Note_on_c, 10, 65, 89
11, 195336, Note_off_c, 10, 65, 64
11, 195360, Note_on_c, 10, 67, 89
11, 195456, Note_off_c, 10, 67, 64
11, 195480, Note_on_c, 10, 69, 89
11, 195576, Note_off_c, 10, 69, 64
11, 195600, Note_on_c, 10, 71, 89
11, 195696, Note_off_c, 10, 71, 64
11, 195720, Note_on_c, 10, 59, 89
11, 195816, Note_off_c, 10, 59, 64
11, 195840, Note_on_c, 10, 60, 89
11, 195936, Note_off_c, 10, 60, 64
11, 195960, Note_on_c, 10, 62, 89
11, 196056, Note_off_c, 10, 62, 64
11, 196080, Note_on_c, 10, 64, 89
11, 196176, Note_off_c, 10, 64, 64
11, 196200, Note_on_c, 10, 64, 89
11, 196296, Note_off_c, 10, 64, 64
11, 196320, Note_on_c, 10, 65, 89
11, 196416, Note_off_c, 10, 65, 64
11, 196440, Note_on_c, 10, 67, 89
11, 196536, Note_off_c, 10, 67, 64
11, 196560, Note_on_c, 10, 69, 89
11, 196656, Note_off_c, 10, 69, 64
11, 196680, Note_on_c, 10, 57, 89
11, 196776, Note_off_c, 10, 57, 64
11, 196800, Note_on_c, 10, 59, 89
11, 196896, Note_off_c, 10, 59, 64
11, 196920, Note_on_c, 10, 60, 89
11, 197016, Note_off_c, 10, 60, 64
11, 197040, Note_on_c, 10, 62, 89
11, 197136, Note_off_c, 10, 62, 64
11, 197160, Note_on_c, 10, 62, 89
11, 197256, Note_off_c, 10, 62, 64
11, 197280, Note_on_c, 10, 64, 89
11, 197376, Note_off_c, 10, 64, 64
11, 197400, Note_on_c, 10, 65, 89
11, 197496, Note_off_c, 10, 65, 64
11, 197520, Note_on_c, 10, 67, 89
11, 197616, Note_off_c, 10, 67, 64
11, 197640, Note_on_c, 10, 55, 89
11, 197736, Note_off_c, 10, 55, 64
11, 197760, Note_on_c, 10, 57, 89
11, 197856, Note_off_c, 10, 57, 64
11, 197880, Note_on_c, 10, 59, 89
11, 197976, Note_off_c, 10, 59, 64
11, 198000, Note_on_c, 10, 60, 89
11, 198096, Note_off_c, 10, 60, 64
11, 198120, Note_on_c, 10, 60, 89
11, 198216, Note_off_c, 10, 60, 64
11, 198240, Note_on_c, 10, 62, 89
11, 198336, Note_off_c, 10, 62, 64
11, 198360, Note_on_c, 10, 64, 89
11, 198456, Note_off_c, 10, 64, 64
11, 198480, Note_on_c, 10, 65, 89
11, 198576, Note_off_c, 10, 65, 64
11, 198600, Note_on_c, 10, 53, 89
11, 198696, Note_off_c, 10, 53, 64
11, 198720, Note_on_c, 10, 55, 89
11, 198816, Note_off_c, 10, 55, 64
11, 198840, Note_on_c, 10, 57, 89
11, 198936, Note_off_c, 10, 57, 64
11, 198960, Note_on_c, 10, 59, 89
11, 199056, Note_off_c, 10, 59, 64
11, 199080, Note_on_c, 10, 59, 89
11, 199176, Note_off_c, 10, 59, 64
11, 199200, Note_on_c, 10, 60, 89
11, 199296, Note_off_c, 10, 60, 64
11, 199320, Note_on_c, 10, 62, 89
11, 199416, Note_off_c, 10, 62, 64
11, 199440, Note_on_c, 10, 64, 89
11, 199536, Note_off_c, 10, 64, 64
11, 199560, Note_on_c, 10, 52, 89
11, 199656, Note_off_c, 10, 52, 64
11, 199680, Note_on_c, 10, 53, 89
11, 199776, Note_off_c, 10, 53, 64
11, 199800, Note_on_c, 10, 55, 72
11, 199896, Note_off_c, 10, 55, 64
11, 199920, Note_on_c, 10, 55, 89
11, 200016, Note_off_c, 10, 55, 64
11, 200040, Note_on_c, 10, 55, 89
11, 200136, Note_off_c, 10, 55, 64
11, 200160, Note_on_c, 10, 55, 89
11, 200256, Note_off_c, 10, 55, 64
11, 200280, Note_on_c, 10, 55, 89
11, 200376, Note_off_c, 10, 55, 64
11, 200400, Note_on_c, 10, 55, 89
11, 200496, Note_off_c, 10, 55, 64
11, 200520, Note_on_c, 10, 55, 89
11, 200616, Note_off_c, 10, 55, 64
11, 200640, Note_on_c, 10, 55, 89
11, 200736, Note_off_c, 10, 55, 64
11, 200760, Note_on_c, 10, 55, 89
11, 200856, Note_off_c, 10, 55, 64
11, 200880, Note_on_c, 10, 55, 89
11, 200976, Note_off_c, 10, 55, 64
11, 201000, Note_on_c, 10, 55, 89
11, 201096, Note_off_c, 10, 55, 64
11, 201120, Note_on_c, 10, 55, 89
11, 201216, Note_off_c, 10, 55, 64
11, 201240, Note_on_c, 10, 55, 89
11, 201336, Note_off_c, 10, 55, 64
11, 201360, Note_on_c, 10, 55, 89
11, 201456, Note_off_c, 10, 55, 64
11, 201480, Note_on_c, 10, 55, 89
11, 201576, Note_off_c, 10, 55, 64
11, 201600, Note_on_c, 10, 55, 89
11, 201696, Note_off_c, 10, 55, 64
11, 201720, Note_on_c, 10, 55, 89
11, 201816, Note_off_c, 10, 55, 64
11, 201840, Note_on_c, 10, 55, 89
11, 201936, Note_off_c, 10, 55, 64
11, 201960, Note_on_c, 10, 55, 89
11, 202056, Note_off_c, 10, 55, 64
11, 202080, Note_on_c, 10, 67, 89
11, 202080, Note_on_c, 10, 55, 89
11, 202176, Note_off_c, 10, 55, 64
11, 202176, Note_off_c, 10, 67, 64
11, 202200, Note_on_c, 10, 55, 89
11, 202200, Note_on_c, 10, 67, 89
11, 202296, Note_off_c, 10, 67, 64
11, 202296, Note_off_c, 10, 55, 64
11, 202320, Note_on_c, 10, 67, 89
11, 202320, Note_on_c, 10, 55, 89
11, 202416, Note_off_c, 10, 55, 64
11, 202416, Note_off_c, 10, 67, 64
11, 202440, Note_on_c, 10, 55, 89
11, 202536, Note_off_c, 10, 55, 64
11, 202560, Note_on_c, 10, 67, 89
11, 202560, Note_on_c, 10, 55, 89
11, 202656, Note_off_c, 10, 55, 64
11, 202656, Note_off_c, 10, 67, 64
11, 202680, Note_on_c, 10, 67, 89
11, 202680, Note_on_c, 10, 55, 89
11, 202776, Note_off_c, 10, 55, 64
11, 202776, Note_off_c, 10, 67, 64
11, 202800, Note_on_c, 10, 67, 89
11, 202800, Note_on_c, 10, 55, 89
11, 202896, Note_off_c, 10, 55, 64
11, 202896, Note_off_c, 10, 67, 64
11, 202920, Note_on_c, 10, 55, 89
11, 202920, Note_on_c, 10, 67, 89
11, 203016, Note_off_c, 10, 67, 64
11, 203016, Note_off_c, 10, 55, 64
11, 203040, Note_on_c, 10, 65, 89
11, 203136, Note_off_c, 10, 65, 64
11, 203160, Note_on_c, 10, 65, 89
11, 203256, Note_off_c, 10, 65, 64
11, 203280, Note_on_c, 10, 64, 89
11, 203376, Note_off_c, 10, 64, 64
11, 203400, Note_on_c, 10, 64, 89
11, 203496, Note_off_c, 10, 64, 64
11, 203520, Note_on_c, 10, 62, 89
11, 203616, Note_off_c, 10, 62, 64
11, 203640, Note_on_c, 10, 62, 89
11, 203736, Note_off_c, 10, 62, 64
11, 203760, Note_on_c, 10, 59, 89
11, 203856, Note_off_c, 10, 59, 64
11, 203880, Note_on_c, 10, 71, 89
11, 203976, Note_off_c, 10, 71, 64
11, 204000, Note_on_c, 10, 71, 89
11, 204096, Note_off_c, 10, 71, 64
11, 204120, Note_on_c, 10, 71, 89
11, 204216, Note_off_c, 10, 71, 64
11, 204240, Note_on_c, 10, 71, 89
11, 204336, Note_off_c, 10, 71, 64
11, 204360, Note_on_c, 10, 71, 89
11, 204456, Note_off_c, 10, 71, 64
11, 204480, Note_on_c, 10, 71, 89
11, 204576, Note_off_c, 10, 71, 64
11, 204600, Note_on_c, 10, 71, 89
11, 204696, Note_off_c, 10, 71, 64
11, 204720, Note_on_c, 10, 69, 89
11, 204816, Note_off_c, 10, 69, 64
11, 204840, Note_on_c, 10, 69, 89
11, 204936, Note_off_c, 10, 69, 64
11, 204960, Note_on_c, 10, 69, 89
11, 205056, Note_off_c, 10, 69, 64
11, 205080, Note_on_c, 10, 69, 89
11, 205176, Note_off_c, 10, 69, 64
11, 205200, Note_on_c, 10, 69, 89
11, 205296, Note_off_c, 10, 69, 64
11, 205320, Note_on_c, 10, 69, 89
11, 205416, Note_off_c, 10, 69, 64
11, 205440, Note_on_c, 10, 69, 89
11, 205536, Note_off_c, 10, 69, 64
11, 205560, Note_on_c, 10, 69, 89
11, 205656, Note_off_c, 10, 69, 64
11, 205680, Note_on_c, 10, 67, 89
11, 205776, Note_off_c, 10, 67, 64
11, 205800, Note_on_c, 10, 67, 89
11, 205896, Note_off_c, 10, 67, 64
11, 205920, Note_on_c, 10, 67, 89
11, 206016, Note_off_c, 10, 67, 64
11, 206040, Note_on_c, 10, 67, 89
11, 206136, Note_off_c, 10, 67, 64
11, 206160, Note_on_c, 10, 67, 89
11, 206256, Note_off_c, 10, 67, 64
11, 206280, Note_on_c, 10, 67, 89
11, 206376, Note_off_c, 10, 67, 64
11, 206400, Note_on_c, 10, 67, 89
11, 206496, Note_off_c, 10, 67, 64
11, 206520, Note_on_c, 10, 67, 89
11, 206616, Note_off_c, 10, 67, 64
11, 206640, Note_on_c, 10, 66, 89
11, 206736, Note_off_c, 10, 66, 64
11, 206760, Note_on_c, 10, 66, 89
11, 206856, Note_off_c, 10, 66, 64
11, 206880, Note_on_c, 10, 66, 89
11, 206976, Note_off_c, 10, 66, 64
11, 207000, Note_on_c, 10, 66, 89
11, 207096, Note_off_c, 10, 66, 64
11, 207120, Note_on_c, 10, 66, 89
11, 207216, Note_off_c, 10, 66, 64
11, 207240, Note_on_c, 10, 66, 89
11, 207336, Note_off_c, 10, 66, 64
11, 207360, Note_on_c, 10, 66, 89
11, 207456, Note_off_c, 10, 66, 64
11, 207480, Note_on_c, 10, 66, 89
11, 207576, Note_off_c, 10, 66, 64
11, 207600, Note_on_c, 10, 64, 89
11, 207696, Note_off_c, 10, 64, 64
11, 207720, Note_on_c, 10, 64, 89
11, 207816, Note_off_c, 10, 64, 64
11, 207840, Note_on_c, 10, 64, 89
11, 207936, Note_off_c, 10, 64, 64
11, 207960, Note_on_c, 10, 64, 89
11, 208056, Note_off_c, 10, 64, 64
11, 208080, Note_on_c, 10, 64, 89
11, 208176, Note_off_c, 10, 64, 64
11, 208200, Note_on_c, 10, 64, 89
11, 208296, Note_off_c, 10, 64, 64
11, 208320, Note_on_c, 10, 64, 89
11, 208416, Note_off_c, 10, 64, 64
11, 208440, Note_on_c, 10, 64, 89
11, 208536, Note_off_c, 10, 64, 64
11, 208560, Note_on_c, 10, 62, 89
11, 208656, Note_off_c, 10, 62, 64
11, 208680, Note_on_c, 10, 62, 89
11, 208776, Note_off_c, 10, 62, 64
11, 208800, Note_on_c, 10, 62, 89
11, 208896, Note_off_c, 10, 62, 64
11, 208920, Note_on_c, 10, 62, 89
11, 209016, Note_off_c, 10, 62, 64
11, 209040, Note_on_c, 10, 62, 89
11, 209136, Note_off_c, 10, 62, 64
11, 209160, Note_on_c, 10, 62, 89
11, 209256, Note_off_c, 10, 62, 64
11, 209280, Note_on_c, 10, 62, 89
11, 209376, Note_off_c, 10, 62, 64
11, 209400, Note_on_c, 10, 62, 89
11, 209496, Note_off_c, 10, 62, 64
11, 209520, Note_on_c, 10, 62, 89
11, 209520, Note_on_c, 10, 50, 89
11, 209616, Note_off_c, 10, 50, 64
11, 209616, Note_off_c, 10, 62, 64
11, 209640, Note_on_c, 10, 62, 89
11, 209640, Note_on_c, 10, 50, 89
11, 209736, Note_off_c, 10, 50, 64
11, 209736, Note_off_c, 10, 62, 64
11, 209760, Note_on_c, 10, 50, 89
11, 209760, Note_on_c, 10, 62, 89
11, 209856, Note_off_c, 10, 62, 64
11, 209856, Note_off_c, 10, 50, 64
11, 209880, Note_on_c, 10, 50, 89
11, 209880, Note_on_c, 10, 62, 89
11, 209976, Note_off_c, 10, 62, 64
11, 209976, Note_off_c, 10, 50, 64
11, 210000, Note_on_c, 10, 62, 89
11, 210000, Note_on_c, 10, 50, 89
11, 210096, Note_off_c, 10, 50, 64
11, 210096, Note_off_c, 10, 62, 64
11, 210120, Note_on_c, 10, 62, 89
11, 210120, Note_on_c, 10, 50, 89
11, 210216, Note_off_c, 10, 50, 64
11, 210216, Note_off_c, 10, 62, 64
11, 210240, Note_on_c, 10, 62, 89
11, 210240, Note_on_c, 10, 50, 89
11, 210336, Note_off_c, 10, 50, 64
11, 210336, Note_off_c, 10, 62, 64
11, 210360, Note_on_c, 10, 50, 89
11, 210360, Note_on_c, 10, 62, 89
11, 210456, Note_off_c, 10, 62, 64
11, 210456, Note_off_c, 10, 50, 64
11, 210480, Note_on_c, 10, 50, 89
11, 210480, Note_on_c, 10, 62, 89
11, 210576, Note_off_c, 10, 62, 64
11, 210576, Note_off_c, 10, 50, 64
11, 210600, Note_on_c, 10, 50, 89
11, 210600, Note_on_c, 10, 62, 89
11, 210696, Note_off_c, 10, 62, 64
11, 210696, Note_off_c, 10, 50, 64
11, 210720, Note_on_c, 10, 62, 89
11, 210720, Note_on_c, 10, 50, 89
11, 210816, Note_off_c, 10, 50, 64
11, 210816, Note_off_c, 10, 62, 64
11, 210840, Note_on_c, 10, 62, 89
11, 210840, Note_on_c, 10, 50, 89
11, 210936, Note_off_c, 10, 50, 64
11, 210936, Note_off_c, 10, 62, 64
11, 210960, Note_on_c, 10, 62, 89
11, 210960, Note_on_c, 10, 50, 89
11, 211056, Note_off_c, 10, 50, 64
11, 211056, Note_off_c, 10, 62, 64
11, 211080, Note_on_c, 10, 62, 89
11, 211080, Note_on_c, 10, 50, 89
11, 211176, Note_off_c, 10, 50, 64
11, 211176, Note_off_c, 10, 62, 64
11, 211200, Note_on_c, 10, 50, 89
11, 211200, Note_on_c, 10, 62, 89
11, 211296, Note_off_c, 10, 62, 64
11, 211296, Note_off_c, 10, 50, 64
11, 211320, Note_on_c, 10, 62, 89
11, 211320, Note_on_c, 10, 50, 89
11, 211416, Note_off_c, 10, 50, 64
11, 211416, Note_off_c, 10, 62, 64
11, 211440, Note_on_c, 10, 50, 89
11, 211440, Note_on_c, 10, 62, 89
11, 211536, Note_off_c, 10, 62, 64
11, 211536, Note_off_c, 10, 50, 64
11, 211560, Note_on_c, 10, 50, 89
11, 211560, Note_on_c, 10, 62, 89
11, 211656, Note_off_c, 10, 62, 64
11, 211656, Note_off_c, 10, 50, 64
11, 211680, Note_on_c, 10, 50, 89
11, 211680, Note_on_c, 10, 62, 89
11, 211776, Note_off_c, 10, 62, 64
11, 211776, Note_off_c, 10, 50, 64
11, 211800, Note_on_c, 10, 50, 89
11, 211800, Note_on_c, 10, 62, 89
11, 211896, Note_off_c, 10, 62, 64
11, 211896, Note_off_c, 10, 50, 64
11, 211920, Note_on_c, 10, 62, 89
11, 211920, Note_on_c, 10, 50, 89
11, 212016, Note_off_c, 10, 50, 64
11, 212016, Note_off_c, 10, 62, 64
11, 212040, Note_on_c, 10, 50, 89
11, 212040, Note_on_c, 10, 62, 89
11, 212136, Note_off_c, 10, 62, 64
11, 212136, Note_off_c, 10, 50, 64
11, 212160, Note_on_c, 10, 50, 89
11, 212160, Note_on_c, 10, 62, 89
11, 212256, Note_off_c, 10, 62, 64
11, 212256, Note_off_c, 10, 50, 64
11, 212280, Note_on_c, 10, 50, 89
11, 212280, Note_on_c, 10, 62, 89
11, 212376, Note_off_c, 10, 62, 64
11, 212376, Note_off_c, 10, 50, 64
11, 212400, Note_on_c, 10, 50, 89
11, 212400, Note_on_c, 10, 62, 89
11, 212496, Note_off_c, 10, 62, 64
11, 212496, Note_off_c, 10, 50, 64
11, 212520, Note_on_c, 10, 62, 89
11, 212616, Note_off_c, 10, 62, 64
11, 212640, Note_on_c, 10, 65, 89
11, 212736, Note_off_c, 10, 65, 64
11, 212760, Note_on_c, 10, 64, 89
11, 212856, Note_off_c, 10, 64, 64
11, 212880, Note_on_c, 10, 62, 89
11, 212976, Note_off_c, 10, 62, 64
11, 213000, Note_on_c, 10, 64, 89
11, 213096, Note_off_c, 10, 64, 64
11, 213120, Note_on_c, 10, 62, 89
11, 213216, Note_off_c, 10, 62, 64
11, 213240, Note_on_c, 10, 60, 89
11, 213336, Note_off_c, 10, 60, 64
11, 213360, Note_on_c, 10, 59, 89
11, 213456, Note_off_c, 10, 59, 64
11, 213480, Note_on_c, 10, 59, 89
11, 213576, Note_off_c, 10, 59, 64
11, 213600, Note_on_c, 10, 67, 89
11, 213696, Note_off_c, 10, 67, 64
11, 213720, Note_on_c, 10, 67, 89
11, 213816, Note_off_c, 10, 67, 64
11, 213840, Note_on_c, 10, 67, 89
11, 213936, Note_off_c, 10, 67, 64
11, 213960, Note_on_c, 10, 67, 89
11, 214056, Note_off_c, 10, 67, 64
11, 214080, Note_on_c, 10, 55, 89
11, 214176, Note_off_c, 10, 55, 64
11, 214200, Note_on_c, 10, 55, 89
11, 214296, Note_off_c, 10, 55, 64
11, 214320, Note_on_c, 10, 60, 89
11, 214416, Note_off_c, 10, 60, 64
11, 214440, Note_on_c, 10, 60, 89
11, 214536, Note_off_c, 10, 60, 64
11, 214560, Note_on_c, 10, 72, 89
11, 214656, Note_off_c, 10, 72, 64
11, 214680, Note_on_c, 10, 72, 89
11, 214776, Note_off_c, 10, 72, 64
11, 214800, Note_on_c, 10, 72, 89
11, 214896, Note_off_c, 10, 72, 64
11, 214920, Note_on_c, 10, 72, 89
11, 215016, Note_off_c, 10, 72, 64
11, 215040, Note_on_c, 10, 60, 89
11, 215136, Note_off_c, 10, 60, 64
11, 215160, Note_on_c, 10, 60, 89
11, 215256, Note_off_c, 10, 60, 64
11, 215280, Note_on_c, 10, 55, 114
11, 215376, Note_off_c, 10, 55, 64
11, 215400, Note_on_c, 10, 55, 114
11, 215496, Note_off_c, 10, 55, 64
11, 215520, Note_on_c, 10, 67, 114
11, 215616, Note_off_c, 10, 67, 64
11, 215640, Note_on_c, 10, 67, 114
11, 215736, Note_off_c, 10, 67, 64
11, 215760, Note_on_c, 10, 67, 114
11, 215856, Note_off_c, 10, 67, 64
11, 215880, Note_on_c, 10, 67, 114
11, 215976, Note_off_c, 10, 67, 64
11, 216000, Note_on_c, 10, 55, 114
11, 216096, Note_off_c, 10, 55, 64
11, 216120, Note_on_c, 10, 55, 114
11, 216216, Note_off_c, 10, 55, 64
11, 216240, Note_on_c, 10, 60, 114
11, 216336, Note_off_c, 10, 60, 64
11, 216360, Note_on_c, 10, 64, 114
11, 216456, Note_off_c, 10, 64, 64
11, 216480, Note_on_c, 10, 62, 114
11, 216576, Note_off_c, 10, 62, 64
11, 216600, Note_on_c, 10, 60, 114
11, 216696, Note_off_c, 10, 60, 64
11, 216720, Note_on_c, 10, 59, 114
11, 216816, Note_off_c, 10, 59, 64
11, 216840, Note_on_c, 10, 57, 114
11, 216936, Note_off_c, 10, 57, 64
11, 216960, Note_on_c, 10, 55, 114
11, 217056, Note_off_c, 10, 55, 64
11, 217080, Note_on_c, 10, 53, 114
11, 217176, Note_off_c, 10, 53, 64
11, 217200, Note_on_c, 10, 52, 114
11, 217296, Note_off_c, 10, 52, 64
11, 217320, Note_on_c, 10, 48, 114
11, 217416, Note_off_c, 10, 48, 64
11, 217440, Note_on_c, 10, 60, 114
11, 217536, Note_off_c, 10, 60, 64
11, 217560, Note_on_c, 10, 60, 114
11, 217656, Note_off_c, 10, 60, 64
11, 217680, Note_on_c, 10, 60, 114
11, 217776, Note_off_c, 10, 60, 64
11, 217800, Note_on_c, 10, 60, 114
11, 217896, Note_off_c, 10, 60, 64
11, 217920, Note_on_c, 10, 60, 114
11, 218016, Note_off_c, 10, 60, 64
11, 218040, Note_on_c, 10, 60, 114
11, 218136, Note_off_c, 10, 60, 64
11, 218160, Note_on_c, 10, 60, 114
11, 218256, Note_off_c, 10, 60, 64
11, 218280, Note_on_c, 10, 60, 114
11, 218376, Note_off_c, 10, 60, 64
11, 218400, Note_on_c, 10, 60, 114
11, 218496, Note_off_c, 10, 60, 64
11, 218520, Note_on_c, 10, 60, 114
11, 218616, Note_off_c, 10, 60, 64
11, 218640, Note_on_c, 10, 59, 114
11, 218736, Note_off_c, 10, 59, 64
11, 218760, Note_on_c, 10, 59, 114
11, 218856, Note_off_c, 10, 59, 64
11, 218880, Note_on_c, 10, 59, 114
11, 218976, Note_off_c, 10, 59, 64
11, 219000, Note_on_c, 10, 59, 114
11, 219096, Note_off_c, 10, 59, 64
11, 219120, Note_on_c, 10, 58, 114
11, 219216, Note_off_c, 10, 58, 64
11, 219240, Note_on_c, 10, 58, 114
11, 219336, Note_off_c, 10, 58, 64
11, 219360, Note_on_c, 10, 58, 114
11, 219456, Note_off_c, 10, 58, 64
11, 219480, Note_on_c, 10, 58, 114
11, 219576, Note_off_c, 10, 58, 64
11, 219600, Note_on_c, 10, 57, 114
11, 219696, Note_off_c, 10, 57, 64
11, 219720, Note_on_c, 10, 57, 114
11, 219816, Note_off_c, 10, 57, 64
11, 219840, Note_on_c, 10, 57, 114
11, 219936, Note_off_c, 10, 57, 64
11, 219960, Note_on_c, 10, 57, 114
11, 220056, Note_off_c, 10, 57, 64
11, 220080, Note_on_c, 10, 57, 114
11, 220176, Note_off_c, 10, 57, 64
11, 220200, Note_on_c, 10, 57, 114
11, 220296, Note_off_c, 10, 57, 64
11, 220320, Note_on_c, 10, 57, 114
11, 220416, Note_off_c, 10, 57, 64
11, 220440, Note_on_c, 10, 57, 114
11, 220536, Note_off_c, 10, 57, 64
11, 220560, Note_on_c, 10, 55, 114
11, 220656, Note_off_c, 10, 55, 64
11, 220680, Note_on_c, 10, 55, 114
11, 220776, Note_off_c, 10, 55, 64
11, 220800, Note_on_c, 10, 55, 114
11, 220896, Note_off_c, 10, 55, 64
11, 220920, Note_on_c, 10, 55, 114
11, 221016, Note_off_c, 10, 55, 64
11, 221040, Note_on_c, 10, 55, 114
11, 221136, Note_off_c, 10, 55, 64
11, 221160, Note_on_c, 10, 55, 114
11, 221256, Note_off_c, 10, 55, 64
11, 221280, Note_on_c, 10, 55, 114
11, 221376, Note_off_c, 10, 55, 64
11, 221400, Note_on_c, 10, 55, 114
11, 221496, Note_off_c, 10, 55, 64
11, 221520, Note_on_c, 10, 53, 114
11, 221616, Note_off_c, 10, 53, 64
11, 221640, Note_on_c, 10, 53, 114
11, 221736, Note_off_c, 10, 53, 64
11, 221760, Note_on_c, 10, 53, 114
11, 221856, Note_off_c, 10, 53, 64
11, 221880, Note_on_c, 10, 53, 114
11, 221976, Note_off_c, 10, 53, 64
11, 222000, Note_on_c, 10, 53, 114
11, 222096, Note_off_c, 10, 53, 64
11, 222120, Note_on_c, 10, 53, 114
11, 222216, Note_off_c, 10, 53, 64
11, 222240, Note_on_c, 10, 53, 114
11, 222336, Note_off_c, 10, 53, 64
11, 222360, Note_on_c, 10, 53, 114
11, 222456, Note_off_c, 10, 53, 64
11, 222480, Note_on_c, 10, 52, 114
11, 222576, Note_off_c, 10, 52, 64
11, 222600, Note_on_c, 10, 52, 114
11, 222696, Note_off_c, 10, 52, 64
11, 222720, Note_on_c, 10, 52, 114
11, 222816, Note_off_c, 10, 52, 64
11, 222840, Note_on_c, 10, 52, 114
11, 222936, Note_off_c, 10, 52, 64
11, 222960, Note_on_c, 10, 59, 89
11, 223056, Note_off_c, 10, 59, 64
11, 223080, Note_on_c, 10, 62, 89
11, 223176, Note_off_c, 10, 62, 64
11, 223200, Note_on_c, 10, 62, 89
11, 223296, Note_off_c, 10, 62, 64
11, 223320, Note_on_c, 10, 62, 89
11, 223416, Note_off_c, 10, 62, 64
11, 223440, Note_on_c, 10, 62, 89
11, 223536, Note_off_c, 10, 62, 64
11, 223560, Note_on_c, 10, 62, 89
11, 223656, Note_off_c, 10, 62, 64
11, 223680, Note_on_c, 10, 62, 89
11, 223776, Note_off_c, 10, 62, 64
11, 223800, Note_on_c, 10, 62, 89
11, 223896, Note_off_c, 10, 62, 64
11, 223920, Note_on_c, 10, 60, 89
11, 224016, Note_off_c, 10, 60, 64
11, 224040, Note_on_c, 10, 60, 89
11, 224136, Note_off_c, 10, 60, 64
11, 224160, Note_on_c, 10, 60, 89
11, 224256, Note_off_c, 10, 60, 64
11, 224280, Note_on_c, 10, 60, 89
11, 224376, Note_off_c, 10, 60, 64
11, 224400, Note_on_c, 10, 60, 89
11, 224496, Note_off_c, 10, 60, 64
11, 224520, Note_on_c, 10, 60, 89
11, 224616, Note_off_c, 10, 60, 64
11, 224640, Note_on_c, 10, 60, 89
11, 224736, Note_off_c, 10, 60, 64
11, 224760, Note_on_c, 10, 60, 89
11, 224856, Note_off_c, 10, 60, 64
11, 224880, Note_on_c, 10, 62, 89
11, 224976, Note_off_c, 10, 62, 64
11, 225000, Note_on_c, 10, 67, 89
11, 225096, Note_off_c, 10, 67, 64
11, 225120, Note_on_c, 10, 67, 89
11, 225216, Note_off_c, 10, 67, 64
11, 225240, Note_on_c, 10, 67, 89
11, 225336, Note_off_c, 10, 67, 64
11, 225360, Note_on_c, 10, 67, 89
11, 225456, Note_off_c, 10, 67, 64
11, 225480, Note_on_c, 10, 67, 89
11, 225576, Note_off_c, 10, 67, 64
11, 225600, Note_on_c, 10, 67, 89
11, 225696, Note_off_c, 10, 67, 64
11, 225720, Note_on_c, 10, 67, 89
11, 225816, Note_off_c, 10, 67, 64
11, 225840, Note_on_c, 10, 67, 89
11, 225936, Note_off_c, 10, 67, 64
11, 225960, Note_on_c, 10, 67, 89
11, 226056, Note_off_c, 10, 67, 64
11, 226080, Note_on_c, 10, 67, 89
11, 226176, Note_off_c, 10, 67, 64
11, 226200, Note_on_c, 10, 67, 89
11, 226296, Note_off_c, 10, 67, 64
11, 226320, Note_on_c, 10, 67, 89
11, 226416, Note_off_c, 10, 67, 64
11, 226440, Note_on_c, 10, 67, 89
11, 226536, Note_off_c, 10, 67, 64
11, 226560, Note_on_c, 10, 67, 89
11, 226656, Note_off_c, 10, 67, 64
11, 226680, Note_on_c, 10, 67, 89
11, 226776, Note_off_c, 10, 67, 64
11, 226800, Note_on_c, 10, 64, 127
11, 226800, Note_on_c, 10, 60, 89
11, 226896, Note_off_c, 10, 60, 64
11, 226896, Note_off_c, 10, 64, 64
11, 226920, Note_on_c, 10, 64, 89
11, 226920, Note_on_c, 10, 60, 89
11, 227016, Note_off_c, 10, 60, 64
11, 227016, Note_off_c, 10, 64, 64
11, 227040, Note_on_c, 10, 64, 89
11, 227040, Note_on_c, 10, 60, 89
11, 227136, Note_off_c, 10, 60, 64
11, 227136, Note_off_c, 10, 64, 64
11, 227160, Note_on_c, 10, 64, 89
11, 227160, Note_on_c, 10, 60, 89
11, 227256, Note_off_c, 10, 60, 64
11, 227256, Note_off_c, 10, 64, 64
11, 227280, Note_on_c, 10, 64, 89
11, 227280, Note_on_c, 10, 60, 89
11, 227376, Note_off_c, 10, 60, 64
11, 227376, Note_off_c, 10, 64, 64
11, 227400, Note_on_c, 10, 60, 89
11, 227400, Note_on_c, 10, 64, 89
11, 227496, Note_off_c, 10, 64, 64
11, 227496, Note_off_c, 10, 60, 64
11, 227520, Note_on_c, 10, 60, 89
11, 227520, Note_on_c, 10, 64, 89
11, 227616, Note_off_c, 10, 64, 64
11, 227616, Note_off_c, 10, 60, 64
11, 227640, Note_on_c, 10, 60, 89
11, 227640, Note_on_c, 10, 64, 89
11, 227736, Note_off_c, 10, 64, 64
11, 227736, Note_off_c, 10, 60, 64
11, 227760, Note_on_c, 10, 64, 127
11, 227760, Note_on_c, 10, 60, 89
11, 227856, Note_off_c, 10, 60, 64
11, 227856, Note_off_c, 10, 64, 64
11, 227880, Note_on_c, 10, 60, 89
11, 227880, Note_on_c, 10, 64, 89
11, 227976, Note_off_c, 10, 64, 64
11, 227976, Note_off_c, 10, 60, 64
11, 228000, Note_on_c, 10, 64, 89
11, 228000, Note_on_c, 10, 60, 89
11, 228096, Note_off_c, 10, 60, 64
11, 228096, Note_off_c, 10, 64, 64
11, 228120, Note_on_c, 10, 64, 89
11, 228120, Note_on_c, 10, 60, 89
11, 228216, Note_off_c, 10, 60, 64
11, 228216, Note_off_c, 10, 64, 64
11, 228240, Note_on_c, 10, 64, 89
11, 228240, Note_on_c, 10, 60, 89
11, 228336, Note_off_c, 10, 60, 64
11, 228336, Note_off_c, 10, 64, 64
11, 228360, Note_on_c, 10, 60, 89
11, 228360, Note_on_c, 10, 64, 89
11, 228456, Note_off_c, 10, 64, 64
11, 228456, Note_off_c, 10, 60, 64
11, 228480, Note_on_c, 10, 64, 89
11, 228480, Note_on_c, 10, 60, 89
11, 228576, Note_off_c, 10, 60, 64
11, 228576, Note_off_c, 10, 64, 64
11, 228600, Note_on_c, 10, 64, 89
11, 228600, Note_on_c, 10, 60, 89
11, 228696, Note_off_c, 10, 60, 64
11, 228696, Note_off_c, 10, 64, 64
11, 228720, Note_on_c, 10, 69, 127
11, 228720, Note_on_c, 10, 62, 89
11, 228816, Note_off_c, 10, 62, 64
11, 228816, Note_off_c, 10, 69, 64
11, 228840, Note_on_c, 10, 62, 89
11, 228840, Note_on_c, 10, 69, 89
11, 228936, Note_off_c, 10, 69, 64
11, 228936, Note_off_c, 10, 62, 64
11, 228960, Note_on_c, 10, 69, 89
11, 228960, Note_on_c, 10, 62, 89
11, 229056, Note_off_c, 10, 62, 64
11, 229056, Note_off_c, 10, 69, 64
11, 229080, Note_on_c, 10, 69, 89
11, 229080, Note_on_c, 10, 62, 89
11, 229176, Note_off_c, 10, 62, 64
11, 229176, Note_off_c, 10, 69, 64
11, 229200, Note_on_c, 10, 62, 89
11, 229200, Note_on_c, 10, 69, 89
11, 229296, Note_off_c, 10, 69, 64
11, 229296, Note_off_c, 10, 62, 64
11, 229320, Note_on_c, 10, 62, 89
11, 229320, Note_on_c, 10, 69, 89
11, 229416, Note_off_c, 10, 69, 64
11, 229416, Note_off_c, 10, 62, 64
11, 229440, Note_on_c, 10, 69, 89
11, 229440, Note_on_c, 10, 62, 89
11, 229536, Note_off_c, 10, 62, 64
11, 229536, Note_off_c, 10, 69, 64
11, 229560, Note_on_c, 10, 69, 89
11, 229560, Note_on_c, 10, 62, 89
11, 229656, Note_off_c, 10, 62, 64
11, 229656, Note_off_c, 10, 69, 64
11, 229680, Note_on_c, 10, 67, 127
11, 229680, Note_on_c, 10, 55, 89
11, 229776, Note_off_c, 10, 55, 64
11, 229776, Note_off_c, 10, 67, 64
11, 229800, Note_on_c, 10, 67, 89
11, 229800, Note_on_c, 10, 55, 89
11, 229896, Note_off_c, 10, 55, 64
11, 229896, Note_off_c, 10, 67, 64
11, 229920, Note_on_c, 10, 55, 89
11, 229920, Note_on_c, 10, 67, 89
11, 230016, Note_off_c, 10, 67, 64
11, 230016, Note_off_c, 10, 55, 64
11, 230040, Note_on_c, 10, 55, 89
11, 230040, Note_on_c, 10, 67, 89
11, 230136, Note_off_c, 10, 67, 64
11, 230136, Note_off_c, 10, 55, 64
11, 230160, Note_on_c, 10, 67, 89
11, 230160, Note_on_c, 10, 55, 89
11, 230256, Note_off_c, 10, 55, 64
11, 230256, Note_off_c, 10, 67, 64
11, 230280, Note_on_c, 10, 55, 89
11, 230280, Note_on_c, 10, 67, 89
11, 230376, Note_off_c, 10, 67, 64
11, 230376, Note_off_c, 10, 55, 64
11, 230400, Note_on_c, 10, 55, 89
11, 230400, Note_on_c, 10, 67, 89
11, 230496, Note_off_c, 10, 67, 64
11, 230496, Note_off_c, 10, 55, 64
11, 230520, Note_on_c, 10, 55, 89
11, 230520, Note_on_c, 10, 67, 89
11, 230616, Note_off_c, 10, 67, 64
11, 230616, Note_off_c, 10, 55, 64
11, 230640, Note_on_c, 10, 67, 127
11, 230640, Note_on_c, 10, 55, 89
11, 230736, Note_off_c, 10, 55, 64
11, 230736, Note_off_c, 10, 67, 64
11, 230760, Note_on_c, 10, 52, 89
11, 230760, Note_on_c, 10, 48, 89
11, 230856, Note_off_c, 10, 48, 64
11, 230856, Note_off_c, 10, 52, 64
11, 230880, Note_on_c, 10, 52, 89
11, 230880, Note_on_c, 10, 48, 89
11, 230976, Note_off_c, 10, 48, 64
11, 230976, Note_off_c, 10, 52, 64
11, 231000, Note_on_c, 10, 52, 89
11, 231000, Note_on_c, 10, 48, 89
11, 231096, Note_off_c, 10, 48, 64
11, 231096, Note_off_c, 10, 52, 64
11, 231120, Note_on_c, 10, 52, 89
11, 231120, Note_on_c, 10, 48, 89
11, 231216, Note_off_c, 10, 48, 64
11, 231216, Note_off_c, 10, 52, 64
11, 231240, Note_on_c, 10, 52, 89
11, 231240, Note_on_c, 10, 48, 89
11, 231336, Note_off_c, 10, 48, 64
11, 231336, Note_off_c, 10, 52, 64
11, 231360, Note_on_c, 10, 48, 89
11, 231360, Note_on_c, 10, 52, 89
11, 231456, Note_off_c, 10, 52, 64
11, 231456, Note_off_c, 10, 48, 64
11, 231480, Note_on_c, 10, 48, 89
11, 231480, Note_on_c, 10, 52, 89
11, 231576, Note_off_c, 10, 52, 64
11, 231576, Note_off_c, 10, 48, 64
11, 231600, Note_on_c, 10, 62, 109
11, 232368, Note_off_c, 10, 62, 64
11, 244080, Note_on_c, 10, 65, 36
11, 244992, Note_off_c, 10, 65, 64
11, 245040, Note_on_c, 10, 64, 45
11, 245280, Note_off_c, 10, 64, 64
11, 245280, Note_on_c, 10, 65, 45
11, 245400, Note_off_c, 10, 65, 64
11, 245400, Note_on_c, 10, 67, 45
11, 245520, Note_off_c, 10, 67, 64
11, 245520, Note_on_c, 10, 69, 45
11, 245616, Note_off_c, 10, 69, 64
11, 245760, Note_on_c, 10, 67, 45
11, 245856, Note_off_c, 10, 67, 64
11, 246000, Note_on_c, 10, 65, 36
11, 246072, Note_off_c, 10, 65, 64
11, 246120, Note_on_c, 10, 67, 36
11, 246192, Note_off_c, 10, 67, 64
11, 246240, Note_on_c, 10, 69, 36
11, 246312, Note_off_c, 10, 69, 64
11, 246360, Note_on_c, 10, 70, 36
11, 246432, Note_off_c, 10, 70, 64
11, 246480, Note_on_c, 10, 72, 36
11, 246552, Note_off_c, 10, 72, 64
11, 246600, Note_on_c, 10, 74, 36
11, 246672, Note_off_c, 10, 74, 64
11, 246720, Note_on_c, 10, 76, 36
11, 246792, Note_off_c, 10, 76, 64
11, 246840, Note_on_c, 10, 77, 36
11, 246912, Note_off_c, 10, 77, 64
11, 246960, Note_on_c, 10, 65, 36
11, 247032, Note_off_c, 10, 65, 64
11, 247080, Note_on_c, 10, 77, 36
11, 247152, Note_off_c, 10, 77, 64
11, 247200, Note_on_c, 10, 65, 36
11, 247272, Note_off_c, 10, 65, 64
11, 247320, Note_on_c, 10, 65, 36
11, 247392, Note_off_c, 10, 65, 64
11, 247440, Note_on_c, 10, 65, 36
11, 247512, Note_off_c, 10, 65, 64
11, 247560, Note_on_c, 10, 65, 36
11, 247632, Note_off_c, 10, 65, 64
11, 247680, Note_on_c, 10, 65, 36
11, 247752, Note_off_c, 10, 65, 64
11, 247800, Note_on_c, 10, 65, 36
11, 247872, Note_off_c, 10, 65, 64
11, 247920, Note_on_c, 10, 65, 36
11, 247992, Note_off_c, 10, 65, 64
11, 248040, Note_on_c, 10, 65, 36
11, 248112, Note_off_c, 10, 65, 64
11, 248160, Note_on_c, 10, 65, 36
11, 248232, Note_off_c, 10, 65, 64
11, 248280, Note_on_c, 10, 65, 36
11, 248352, Note_off_c, 10, 65, 64
11, 248400, Note_on_c, 10, 64, 36
11, 248472, Note_off_c, 10, 64, 64
11, 248520, Note_on_c, 10, 64, 36
11, 248592, Note_off_c, 10, 64, 64
11, 248640, Note_on_c, 10, 64, 36
11, 248712, Note_off_c, 10, 64, 64
11, 248760, Note_on_c, 10, 64, 36
11, 248832, Note_off_c, 10, 64, 64
11, 248880, Note_on_c, 10, 64, 36
11, 248952, Note_off_c, 10, 64, 64
11, 249000, Note_on_c, 10, 64, 36
11, 249072, Note_off_c, 10, 64, 64
11, 249120, Note_on_c, 10, 64, 36
11, 249192, Note_off_c, 10, 64, 64
11, 249240, Note_on_c, 10, 64, 36
11, 249312, Note_off_c, 10, 64, 64
11, 249360, Note_on_c, 10, 62, 36
11, 249432, Note_off_c, 10, 62, 64
11, 249480, Note_on_c, 10, 62, 36
11, 249552, Note_off_c, 10, 62, 64
11, 249600, Note_on_c, 10, 62, 36
11, 249672, Note_off_c, 10, 62, 64
11, 249720, Note_on_c, 10, 62, 36
11, 249792, Note_off_c, 10, 62, 64
11, 249840, Note_on_c, 10, 62, 36
11, 249912, Note_off_c, 10, 62, 64
11, 249960, Note_on_c, 10, 62, 36
11, 250032, Note_off_c, 10, 62, 64
11, 250080, Note_on_c, 10, 62, 36
11, 250152, Note_off_c, 10, 62, 64
11, 250200, Note_on_c, 10, 62, 36
11, 250272, Note_off_c, 10, 62, 64
11, 250320, Note_on_c, 10, 60, 36
11, 250392, Note_off_c, 10, 60, 64
11, 250440, Note_on_c, 10, 60, 36
11, 250512, Note_off_c, 10, 60, 64
11, 250560, Note_on_c, 10, 60, 36
11, 250632, Note_off_c, 10, 60, 64
11, 250680, Note_on_c, 10, 60, 36
11, 250752, Note_off_c, 10, 60, 64
11, 250800, Note_on_c, 10, 60, 36
11, 250872, Note_off_c, 10, 60, 64
11, 250920, Note_on_c, 10, 60, 36
11, 250992, Note_off_c, 10, 60, 64
11, 251040, Note_on_c, 10, 60, 36
11, 251112, Note_off_c, 10, 60, 64
11, 251160, Note_on_c, 10, 60, 36
11, 251232, Note_off_c, 10, 60, 64
11, 251280, Note_on_c, 10, 58, 36
11, 251352, Note_off_c, 10, 58, 64
11, 251400, Note_on_c, 10, 58, 36
11, 251472, Note_off_c, 10, 58, 64
11, 251520, Note_on_c, 10, 58, 36
11, 251592, Note_off_c, 10, 58, 64
11, 251640, Note_on_c, 10, 58, 36
11, 251712, Note_off_c, 10, 58, 64
11, 251760, Note_on_c, 10, 58, 39
11, 251808, Note_off_c, 10, 58, 64
11, 251880, Note_on_c, 10, 58, 39
11, 251928, Note_off_c, 10, 58, 64
11, 252000, Note_on_c, 10, 58, 39
11, 252048, Note_off_c, 10, 58, 64
11, 252120, Note_on_c, 10, 58, 39
11, 252168, Note_off_c, 10, 58, 64
11, 252240, Note_on_c, 10, 57, 39
11, 252288, Note_off_c, 10, 57, 64
11, 252360, Note_on_c, 10, 57, 39
11, 252408, Note_off_c, 10, 57, 64
11, 252480, Note_on_c, 10, 55, 39
11, 252528, Note_off_c, 10, 55, 64
11, 252600, Note_on_c, 10, 53, 39
11, 252648, Note_off_c, 10, 53, 64
11, 252720, Note_on_c, 10, 48, 39
11, 252768, Note_off_c, 10, 48, 64
11, 252840, Note_on_c, 10, 55, 39
11, 252888, Note_off_c, 10, 55, 64
11, 252960, Note_on_c, 10, 53, 39
11, 253008, Note_off_c, 10, 53, 64
11, 253080, Note_on_c, 10, 52, 39
11, 253128, Note_off_c, 10, 52, 64
11, 253200, Note_on_c, 10, 50, 39
11, 253248, Note_off_c, 10, 50, 64
11, 253320, Note_on_c, 10, 48, 39
11, 253368, Note_off_c, 10, 48, 64
11, 253440, Note_on_c, 10, 50, 39
11, 253488, Note_off_c, 10, 50, 64
11, 253560, Note_on_c, 10, 52, 39
11, 253608, Note_off_c, 10, 52, 64
11, 253680, Note_on_c, 10, 53, 39
11, 253728, Note_off_c, 10, 53, 64
11, 253800, Note_on_c, 10, 60, 39
11, 253848, Note_off_c, 10, 60, 64
11, 253920, Note_on_c, 10, 58, 39
11, 253968, Note_off_c, 10, 58, 64
11, 254040, Note_on_c, 10, 57, 39
11, 254088, Note_off_c, 10, 57, 64
11, 254160, Note_on_c, 10, 55, 39
11, 254208, Note_off_c, 10, 55, 64
11, 254280, Note_on_c, 10, 53, 39
11, 254328, Note_off_c, 10, 53, 64
11, 254400, Note_on_c, 10, 52, 39
11, 254448, Note_off_c, 10, 52, 64
11, 254520, Note_on_c, 10, 53, 39
11, 254568, Note_off_c, 10, 53, 64
11, 254640, Note_on_c, 10, 48, 39
11, 254688, Note_off_c, 10, 48, 64
11, 254760, Note_on_c, 10, 55, 39
11, 254808, Note_off_c, 10, 55, 64
11, 254880, Note_on_c, 10, 53, 39
11, 254928, Note_off_c, 10, 53, 64
11, 255000, Note_on_c, 10, 52, 39
11, 255048, Note_off_c, 10, 52, 64
11, 255120, Note_on_c, 10, 50, 39
11, 255168, Note_off_c, 10, 50, 64
11, 255240, Note_on_c, 10, 48, 39
11, 255288, Note_off_c, 10, 48, 64
11, 255360, Note_on_c, 10, 50, 39
11, 255408, Note_off_c, 10, 50, 64
11, 255480, Note_on_c, 10, 52, 39
11, 255528, Note_off_c, 10, 52, 64
11, 255600, Note_on_c, 10, 53, 39
11, 255648, Note_off_c, 10, 53, 64
11, 255720, Note_on_c, 10, 60, 39
11, 255768, Note_off_c, 10, 60, 64
11, 255840, Note_on_c, 10, 58, 39
11, 255888, Note_off_c, 10, 58, 64
11, 255960, Note_on_c, 10, 57, 39
11, 256008, Note_off_c, 10, 57, 64
11, 256080, Note_on_c, 10, 55, 39
11, 256128, Note_off_c, 10, 55, 64
11, 256200, Note_on_c, 10, 53, 39
11, 256248, Note_off_c, 10, 53, 64
11, 256320, Note_on_c, 10, 52, 39
11, 256368, Note_off_c, 10, 52, 64
11, 256440, Note_on_c, 10, 53, 39
11, 256488, Note_off_c, 10, 53, 64
11, 256560, Note_on_c, 10, 62, 39
11, 256608, Note_off_c, 10, 62, 64
11, 256680, Note_on_c, 10, 62, 39
11, 256728, Note_off_c, 10, 62, 64
11, 256800, Note_on_c, 10, 62, 39
11, 256848, Note_off_c, 10, 62, 64
11, 256920, Note_on_c, 10, 62, 39
11, 256968, Note_off_c, 10, 62, 64
11, 257040, Note_on_c, 10, 62, 39
11, 257088, Note_off_c, 10, 62, 64
11, 257160, Note_on_c, 10, 62, 39
11, 257208, Note_off_c, 10, 62, 64
11, 257280, Note_on_c, 10, 62, 39
11, 257328, Note_off_c, 10, 62, 64
11, 257400, Note_on_c, 10, 62, 39
11, 257448, Note_off_c, 10, 62, 64
11, 257520, Note_on_c, 10, 62, 39
11, 257568, Note_off_c, 10, 62, 64
11, 257640, Note_on_c, 10, 62, 39
11, 257688, Note_off_c, 10, 62, 64
11, 257760, Note_on_c, 10, 62, 39
11, 257808, Note_off_c, 10, 62, 64
11, 257880, Note_on_c, 10, 62, 39
11, 257928, Note_off_c, 10, 62, 64
11, 258000, Note_on_c, 10, 62, 39
11, 258048, Note_off_c, 10, 62, 64
11, 258120, Note_on_c, 10, 62, 39
11, 258168, Note_off_c, 10, 62, 64
11, 258240, Note_on_c, 10, 62, 39
11, 258288, Note_off_c, 10, 62, 64
11, 258360, Note_on_c, 10, 62, 39
11, 258408, Note_off_c, 10, 62, 64
11, 258480, Note_on_c, 10, 61, 39
11, 258528, Note_off_c, 10, 61, 64
11, 258600, Note_on_c, 10, 61, 39
11, 258648, Note_off_c, 10, 61, 64
11, 258720, Note_on_c, 10, 61, 39
11, 258768, Note_off_c, 10, 61, 64
11, 258840, Note_on_c, 10, 61, 39
11, 258888, Note_off_c, 10, 61, 64
11, 258960, Note_on_c, 10, 61, 39
11, 259008, Note_off_c, 10, 61, 64
11, 259080, Note_on_c, 10, 61, 39
11, 259128, Note_off_c, 10, 61, 64
11, 259200, Note_on_c, 10, 61, 39
11, 259248, Note_off_c, 10, 61, 64
11, 259320, Note_on_c, 10, 61, 39
11, 259368, Note_off_c, 10, 61, 64
11, 259440, Note_on_c, 10, 62, 39
11, 259488, Note_off_c, 10, 62, 64
11, 259560, Note_on_c, 10, 62, 39
11, 259608, Note_off_c, 10, 62, 64
11, 259680, Note_on_c, 10, 62, 39
11, 259728, Note_off_c, 10, 62, 64
11, 259800, Note_on_c, 10, 62, 39
11, 259848, Note_off_c, 10, 62, 64
11, 259920, Note_on_c, 10, 62, 39
11, 259968, Note_off_c, 10, 62, 64
11, 260040, Note_on_c, 10, 62, 39
11, 260088, Note_off_c, 10, 62, 64
11, 260160, Note_on_c, 10, 62, 39
11, 260208, Note_off_c, 10, 62, 64
11, 260280, Note_on_c, 10, 62, 39
11, 260328, Note_off_c, 10, 62, 64
11, 260400, Note_on_c, 10, 62, 39
11, 260448, Note_off_c, 10, 62, 64
11, 260520, Note_on_c, 10, 62, 39
11, 260568, Note_off_c, 10, 62, 64
11, 260640, Note_on_c, 10, 62, 39
11, 260688, Note_off_c, 10, 62, 64
11, 260760, Note_on_c, 10, 62, 39
11, 260808, Note_off_c, 10, 62, 64
11, 260880, Note_on_c, 10, 61, 39
11, 260928, Note_off_c, 10, 61, 64
11, 261000, Note_on_c, 10, 61, 39
11, 261048, Note_off_c, 10, 61, 64
11, 261120, Note_on_c, 10, 61, 39
11, 261168, Note_off_c, 10, 61, 64
11, 261240, Note_on_c, 10, 61, 39
11, 261288, Note_off_c, 10, 61, 64
11, 261360, Note_on_c, 10, 62, 39
11, 261408, Note_off_c, 10, 62, 64
11, 261480, Note_on_c, 10, 62, 39
11, 261528, Note_off_c, 10, 62, 64
11, 261600, Note_on_c, 10, 62, 39
11, 261648, Note_off_c, 10, 62, 64
11, 261720, Note_on_c, 10, 62, 39
11, 261768, Note_off_c, 10, 62, 64
11, 261840, Note_on_c, 10, 62, 39
11, 261888, Note_off_c, 10, 62, 64
11, 261960, Note_on_c, 10, 62, 39
11, 262008, Note_off_c, 10, 62, 64
11, 262080, Note_on_c, 10, 62, 39
11, 262128, Note_off_c, 10, 62, 64
11, 262200, Note_on_c, 10, 62, 39
11, 262248, Note_off_c, 10, 62, 64
11, 262320, Note_on_c, 10, 62, 39
11, 262368, Note_off_c, 10, 62, 64
11, 262440, Note_on_c, 10, 62, 39
11, 262488, Note_off_c, 10, 62, 64
11, 262560, Note_on_c, 10, 62, 39
11, 262608, Note_off_c, 10, 62, 64
11, 262680, Note_on_c, 10, 62, 39
11, 262728, Note_off_c, 10, 62, 64
11, 262800, Note_on_c, 10, 62, 39
11, 262848, Note_off_c, 10, 62, 64
11, 262920, Note_on_c, 10, 62, 39
11, 262968, Note_off_c, 10, 62, 64
11, 263040, Note_on_c, 10, 62, 39
11, 263088, Note_off_c, 10, 62, 64
11, 263160, Note_on_c, 10, 62, 39
11, 263208, Note_off_c, 10, 62, 64
11, 263280, Note_on_c, 10, 60, 39
11, 263328, Note_off_c, 10, 60, 64
11, 263400, Note_on_c, 10, 60, 39
11, 263448, Note_off_c, 10, 60, 64
11, 263520, Note_on_c, 10, 60, 39
11, 263568, Note_off_c, 10, 60, 64
11, 263640, Note_on_c, 10, 60, 39
11, 263688, Note_off_c, 10, 60, 64
11, 263760, Note_on_c, 10, 60, 39
11, 263808, Note_off_c, 10, 60, 64
11, 263880, Note_on_c, 10, 60, 39
11, 263928, Note_off_c, 10, 60, 64
11, 264000, Note_on_c, 10, 60, 39
11, 264048, Note_off_c, 10, 60, 64
11, 264120, Note_on_c, 10, 60, 39
11, 264168, Note_off_c, 10, 60, 64
11, 264240, Note_on_c, 10, 62, 39
11, 264288, Note_off_c, 10, 62, 64
11, 264360, Note_on_c, 10, 62, 39
11, 264408, Note_off_c, 10, 62, 64
11, 264480, Note_on_c, 10, 62, 39
11, 264528, Note_off_c, 10, 62, 64
11, 264600, Note_on_c, 10, 62, 39
11, 264648, Note_off_c, 10, 62, 64
11, 264720, Note_on_c, 10, 62, 39
11, 264768, Note_off_c, 10, 62, 64
11, 264840, Note_on_c, 10, 62, 39
11, 264888, Note_off_c, 10, 62, 64
11, 264960, Note_on_c, 10, 62, 39
11, 265008, Note_off_c, 10, 62, 64
11, 265080, Note_on_c, 10, 62, 39
11, 265128, Note_off_c, 10, 62, 64
11, 265200, Note_on_c, 10, 60, 25
11, 265296, Note_off_c, 10, 60, 64
11, 265320, Note_on_c, 10, 67, 25
11, 265416, Note_off_c, 10, 67, 64
11, 265440, Note_on_c, 10, 67, 25
11, 265536, Note_off_c, 10, 67, 64
11, 265560, Note_on_c, 10, 67, 25
11, 265656, Note_off_c, 10, 67, 64
11, 265680, Note_on_c, 10, 67, 25
11, 265776, Note_off_c, 10, 67, 64
11, 265800, Note_on_c, 10, 67, 25
11, 265896, Note_off_c, 10, 67, 64
11, 265920, Note_on_c, 10, 67, 25
11, 266016, Note_off_c, 10, 67, 64
11, 266040, Note_on_c, 10, 67, 25
11, 266136, Note_off_c, 10, 67, 64
11, 266160, Note_on_c, 10, 65, 25
11, 266256, Note_off_c, 10, 65, 64
11, 266280, Note_on_c, 10, 65, 25
11, 266376, Note_off_c, 10, 65, 64
11, 266400, Note_on_c, 10, 65, 25
11, 266496, Note_off_c, 10, 65, 64
11, 266520, Note_on_c, 10, 65, 25
11, 266616, Note_off_c, 10, 65, 64
11, 266640, Note_on_c, 10, 65, 25
11, 266736, Note_off_c, 10, 65, 64
11, 266760, Note_on_c, 10, 65, 25
11, 266856, Note_off_c, 10, 65, 64
11, 266880, Note_on_c, 10, 65, 25
11, 266976, Note_off_c, 10, 65, 64
11, 267000, Note_on_c, 10, 65, 25
11, 267096, Note_off_c, 10, 65, 64
11, 267120, Note_on_c, 10, 65, 25
11, 267216, Note_off_c, 10, 65, 64
11, 267240, Note_on_c, 10, 65, 25
11, 267336, Note_off_c, 10, 65, 64
11, 267360, Note_on_c, 10, 65, 25
11, 267456, Note_off_c, 10, 65, 64
11, 267480, Note_on_c, 10, 65, 25
11, 267576, Note_off_c, 10, 65, 64
11, 267600, Note_on_c, 10, 64, 25
11, 267696, Note_off_c, 10, 64, 64
11, 267720, Note_on_c, 10, 64, 25
11, 267816, Note_off_c, 10, 64, 64
11, 267840, Note_on_c, 10, 64, 25
11, 267936, Note_off_c, 10, 64, 64
11, 267960, Note_on_c, 10, 64, 25
11, 268056, Note_off_c, 10, 64, 64
11, 268080, Note_on_c, 10, 64, 22
11, 268176, Note_off_c, 10, 64, 64
11, 268200, Note_on_c, 10, 64, 22
11, 268296, Note_off_c, 10, 64, 64
11, 268320, Note_on_c, 10, 64, 22
11, 268416, Note_off_c, 10, 64, 64
11, 268440, Note_on_c, 10, 64, 22
11, 268536, Note_off_c, 10, 64, 64
11, 268560, Note_on_c, 10, 64, 22
11, 268656, Note_off_c, 10, 64, 64
11, 268680, Note_on_c, 10, 64, 22
11, 268776, Note_off_c, 10, 64, 64
11, 268800, Note_on_c, 10, 64, 22
11, 268896, Note_off_c, 10, 64, 64
11, 268920, Note_on_c, 10, 64, 22
11, 269016, Note_off_c, 10, 64, 64
11, 269040, Note_on_c, 10, 64, 18
11, 269424, Note_off_c, 10, 64, 64
11, 269528, Control_c, 10, 7, 32
11, 269548, Control_c, 10, 7, 33
11, 269568, Control_c, 10, 7, 34
11, 269580, Control_c, 10, 7, 35
11, 269600, Control_c, 10, 7, 36
11, 269620, Control_c, 10, 7, 37
11, 269628, Control_c, 10, 7, 38
11, 269648, Control_c, 10, 7, 39
11, 269668, Control_c, 10, 7, 40
11, 269680, Control_c, 10, 7, 41
11, 269700, Control_c, 10, 7, 42
11, 269720, Control_c, 10, 7, 43
11, 269728, Control_c, 10, 7, 44
11, 269748, Control_c, 10, 7, 45
11, 269768, Control_c, 10, 7, 46
11, 269780, Control_c, 10, 7, 47
11, 269800, Control_c, 10, 7, 48
11, 269808, Control_c, 10, 7, 49
11, 269828, Control_c, 10, 7, 50
11, 269848, Control_c, 10, 7, 51
11, 269860, Control_c, 10, 7, 52
11, 269880, Control_c, 10, 7, 53
11, 269900, Control_c, 10, 7, 54
11, 269908, Control_c, 10, 7, 55
11, 269928, Control_c, 10, 7, 56
11, 269948, Control_c, 10, 7, 57
11, 269960, Control_c, 10, 7, 58
11, 269980, Control_c, 10, 7, 59
11, 270000, Control_c, 10, 7, 60
11, 270000, Note_on_c, 10, 69, 36
11, 270008, Control_c, 10, 7, 61
11, 270028, Control_c, 10, 7, 62
11, 270040, Control_c, 10, 7, 63
11, 270060, Control_c, 10, 7, 64
11, 270080, Control_c, 10, 7, 65
11, 270088, Control_c, 10, 7, 66
11, 270108, Control_c, 10, 7, 67
11, 270128, Control_c, 10, 7, 68
11, 270140, Control_c, 10, 7, 69
11, 270160, Control_c, 10, 7, 70
11, 270180, Control_c, 10, 7, 71
11, 270188, Control_c, 10, 7, 72
11, 270208, Control_c, 10, 7, 73
11, 270228, Control_c, 10, 7, 74
11, 270240, Control_c, 10, 7, 75
11, 270260, Control_c, 10, 7, 76
11, 270268, Control_c, 10, 7, 77
11, 270288, Control_c, 10, 7, 78
11, 270308, Control_c, 10, 7, 79
11, 270320, Control_c, 10, 7, 80
11, 270340, Control_c, 10, 7, 81
11, 270360, Control_c, 10, 7, 82
11, 270368, Control_c, 10, 7, 83
11, 270388, Control_c, 10, 7, 84
11, 270408, Control_c, 10, 7, 85
11, 270420, Control_c, 10, 7, 86
11, 270440, Control_c, 10, 7, 87
11, 270460, Control_c, 10, 7, 88
11, 270468, Control_c, 10, 7, 89
11, 270488, Control_c, 10, 7, 90
11, 270500, Control_c, 10, 7, 91
11, 271200, Note_off_c, 10, 69, 64
11, 271200, Note_on_c, 10, 68, 40
11, 271296, Note_off_c, 10, 68, 64
11, 271320, Note_on_c, 10, 66, 40
11, 271416, Note_off_c, 10, 66, 64
11, 271440, Note_on_c, 10, 64, 40
11, 271536, Note_off_c, 10, 64, 64
11, 271680, Note_on_c, 10, 64, 40
11, 271776, Note_off_c, 10, 64, 64
11, 271920, Note_on_c, 10, 68, 32
11, 272688, Note_off_c, 10, 68, 64
11, 272880, Note_on_c, 10, 69, 24
11, 272976, Note_off_c, 10, 69, 64
11, 273000, Note_on_c, 10, 69, 24
11, 273096, Note_off_c, 10, 69, 64
11, 273120, Note_on_c, 10, 69, 24
11, 273216, Note_off_c, 10, 69, 64
11, 273240, Note_on_c, 10, 69, 24
11, 273336, Note_off_c, 10, 69, 64
11, 273360, Note_on_c, 10, 69, 24
11, 273456, Note_off_c, 10, 69, 64
11, 273480, Note_on_c, 10, 69, 24
11, 273576, Note_off_c, 10, 69, 64
11, 273600, Note_on_c, 10, 69, 24
11, 273696, Note_off_c, 10, 69, 64
11, 273720, Note_on_c, 10, 69, 24
11, 273816, Note_off_c, 10, 69, 64
11, 273840, Note_on_c, 10, 69, 24
11, 273936, Note_off_c, 10, 69, 64
11, 273960, Note_on_c, 10, 69, 24
11, 274056, Note_off_c, 10, 69, 64
11, 274080, Note_on_c, 10, 69, 24
11, 274176, Note_off_c, 10, 69, 64
11, 274200, Note_on_c, 10, 69, 24
11, 274296, Note_off_c, 10, 69, 64
11, 274320, Note_on_c, 10, 69, 24
11, 274416, Note_off_c, 10, 69, 64
11, 274440, Note_on_c, 10, 69, 24
11, 274536, Note_off_c, 10, 69, 64
11, 274560, Note_on_c, 10, 69, 24
11, 274656, Note_off_c, 10, 69, 64
11, 274680, Note_on_c, 10, 69, 24
11, 274776, Note_off_c, 10, 69, 64
11, 274800, Note_on_c, 10, 69, 24
11, 274896, Note_off_c, 10, 69, 64
11, 274920, Note_on_c, 10, 69, 24
11, 275016, Note_off_c, 10, 69, 64
11, 275040, Note_on_c, 10, 69, 24
11, 275136, Note_off_c, 10, 69, 64
11, 275160, Note_on_c, 10, 69, 24
11, 275256, Note_off_c, 10, 69, 64
11, 275280, Note_on_c, 10, 69, 24
11, 275376, Note_off_c, 10, 69, 64
11, 275400, Note_on_c, 10, 69, 24
11, 275496, Note_off_c, 10, 69, 64
11, 275520, Note_on_c, 10, 69, 24
11, 275616, Note_off_c, 10, 69, 64
11, 275640, Note_on_c, 10, 69, 24
11, 275736, Note_off_c, 10, 69, 64
11, 275760, Note_on_c, 10, 68, 24
11, 275856, Note_off_c, 10, 68, 64
11, 275880, Note_on_c, 10, 68, 24
11, 275976, Note_off_c, 10, 68, 64
11, 276000, Note_on_c, 10, 68, 24
11, 276096, Note_off_c, 10, 68, 64
11, 276120, Note_on_c, 10, 68, 24
11, 276216, Note_off_c, 10, 68, 64
11, 276240, Note_on_c, 10, 68, 24
11, 276336, Note_off_c, 10, 68, 64
11, 276360, Note_on_c, 10, 68, 24
11, 276456, Note_off_c, 10, 68, 64
11, 276480, Note_on_c, 10, 68, 24
11, 276576, Note_off_c, 10, 68, 64
11, 276600, Note_on_c, 10, 68, 24
11, 276696, Note_off_c, 10, 68, 64
11, 276720, Note_on_c, 10, 69, 24
11, 276816, Note_off_c, 10, 69, 64
11, 276840, Note_on_c, 10, 69, 24
11, 276936, Note_off_c, 10, 69, 64
11, 276960, Note_on_c, 10, 69, 24
11, 277056, Note_off_c, 10, 69, 64
11, 277080, Note_on_c, 10, 69, 24
11, 277176, Note_off_c, 10, 69, 64
11, 277200, Note_on_c, 10, 69, 24
11, 277296, Note_off_c, 10, 69, 64
11, 277320, Note_on_c, 10, 69, 24
11, 277416, Note_off_c, 10, 69, 64
11, 277440, Note_on_c, 10, 69, 24
11, 277536, Note_off_c, 10, 69, 64
11, 277560, Note_on_c, 10, 69, 24
11, 277656, Note_off_c, 10, 69, 64
11, 277680, Note_on_c, 10, 69, 24
11, 277776, Note_off_c, 10, 69, 64
11, 277800, Note_on_c, 10, 69, 24
11, 277896, Note_off_c, 10, 69, 64
11, 277920, Note_on_c, 10, 69, 24
11, 278016, Note_off_c, 10, 69, 64
11, 278040, Note_on_c, 10, 69, 24
11, 278136, Note_off_c, 10, 69, 64
11, 278160, Note_on_c, 10, 69, 24
11, 278256, Note_off_c, 10, 69, 64
11, 278280, Note_on_c, 10, 69, 24
11, 278376, Note_off_c, 10, 69, 64
11, 278400, Note_on_c, 10, 69, 24
11, 278496, Note_off_c, 10, 69, 64
11, 278520, Note_on_c, 10, 69, 24
11, 278616, Note_off_c, 10, 69, 64
11, 278640, Note_on_c, 10, 69, 24
11, 278736, Note_off_c, 10, 69, 64
11, 278760, Note_on_c, 10, 69, 24
11, 278856, Note_off_c, 10, 69, 64
11, 278880, Note_on_c, 10, 69, 24
11, 278976, Note_off_c, 10, 69, 64
11, 279000, Note_on_c, 10, 69, 24
11, 279096, Note_off_c, 10, 69, 64
11, 279120, Note_on_c, 10, 69, 24
11, 279216, Note_off_c, 10, 69, 64
11, 279240, Note_on_c, 10, 69, 24
11, 279336, Note_off_c, 10, 69, 64
11, 279360, Note_on_c, 10, 69, 24
11, 279456, Note_off_c, 10, 69, 64
11, 279480, Note_on_c, 10, 69, 24
11, 279576, Note_off_c, 10, 69, 64
11, 279600, Note_on_c, 10, 69, 24
11, 279696, Note_off_c, 10, 69, 64
11, 279720, Note_on_c, 10, 69, 24
11, 279816, Note_off_c, 10, 69, 64
11, 279840, Note_on_c, 10, 69, 24
11, 279936, Note_off_c, 10, 69, 64
11, 279960, Note_on_c, 10, 69, 24
11, 280056, Note_off_c, 10, 69, 64
11, 280080, Note_on_c, 10, 69, 24
11, 280176, Note_off_c, 10, 69, 64
11, 280200, Note_on_c, 10, 69, 24
11, 280296, Note_off_c, 10, 69, 64
11, 280320, Note_on_c, 10, 69, 24
11, 280416, Note_off_c, 10, 69, 64
11, 280440, Note_on_c, 10, 69, 24
11, 280536, Note_off_c, 10, 69, 64
11, 280560, Note_on_c, 10, 69, 24
11, 280656, Note_off_c, 10, 69, 64
11, 280680, Note_on_c, 10, 69, 24
11, 280776, Note_off_c, 10, 69, 64
11, 280800, Note_on_c, 10, 69, 24
11, 280896, Note_off_c, 10, 69, 64
11, 280920, Note_on_c, 10, 69, 24
11, 281016, Note_off_c, 10, 69, 64
11, 281040, Note_on_c, 10, 69, 24
11, 281136, Note_off_c, 10, 69, 64
11, 281160, Note_on_c, 10, 69, 24
11, 281256, Note_off_c, 10, 69, 64
11, 281280, Note_on_c, 10, 69, 24
11, 281376, Note_off_c, 10, 69, 64
11, 281400, Note_on_c, 10, 69, 24
11, 281496, Note_off_c, 10, 69, 64
11, 281520, Note_on_c, 10, 69, 24
11, 281616, Note_off_c, 10, 69, 64
11, 281640, Note_on_c, 10, 69, 24
11, 281736, Note_off_c, 10, 69, 64
11, 281760, Note_on_c, 10, 69, 24
11, 281856, Note_off_c, 10, 69, 64
11, 281880, Note_on_c, 10, 69, 24
11, 281976, Note_off_c, 10, 69, 64
11, 282000, Note_on_c, 10, 69, 24
11, 282096, Note_off_c, 10, 69, 64
11, 282120, Note_on_c, 10, 69, 24
11, 282216, Note_off_c, 10, 69, 64
11, 282240, Note_on_c, 10, 69, 24
11, 282336, Note_off_c, 10, 69, 64
11, 282360, Note_on_c, 10, 69, 24
11, 282456, Note_off_c, 10, 69, 64
11, 282480, Note_on_c, 10, 71, 40
11, 282576, Note_off_c, 10, 71, 64
11, 282600, Note_on_c, 10, 71, 40
11, 282696, Note_off_c, 10, 71, 64
11, 282720, Note_on_c, 10, 71, 40
11, 282816, Note_off_c, 10, 71, 64
11, 282840, Note_on_c, 10, 71, 40
11, 282936, Note_off_c, 10, 71, 64
11, 282960, Note_on_c, 10, 71, 40
11, 283056, Note_off_c, 10, 71, 64
11, 283080, Note_on_c, 10, 71, 40
11, 283176, Note_off_c, 10, 71, 64
11, 283200, Note_on_c, 10, 71, 40
11, 283296, Note_off_c, 10, 71, 64
11, 283320, Note_on_c, 10, 71, 40
11, 283416, Note_off_c, 10, 71, 64
11, 283440, Note_on_c, 10, 71, 40
11, 283536, Note_off_c, 10, 71, 64
11, 283560, Note_on_c, 10, 71, 40
11, 283656, Note_off_c, 10, 71, 64
11, 283680, Note_on_c, 10, 71, 40
11, 283776, Note_off_c, 10, 71, 64
11, 283800, Note_on_c, 10, 71, 40
11, 283896, Note_off_c, 10, 71, 64
11, 283920, Note_on_c, 10, 71, 40
11, 284016, Note_off_c, 10, 71, 64
11, 284040, Note_on_c, 10, 71, 40
11, 284136, Note_off_c, 10, 71, 64
11, 284160, Note_on_c, 10, 71, 40
11, 284256, Note_off_c, 10, 71, 64
11, 284280, Note_on_c, 10, 71, 40
11, 284376, Note_off_c, 10, 71, 64
11, 284400, Note_on_c, 10, 71, 40
11, 284496, Note_off_c, 10, 71, 64
11, 284520, Note_on_c, 10, 71, 40
11, 284616, Note_off_c, 10, 71, 64
11, 284640, Note_on_c, 10, 71, 40
11, 284736, Note_off_c, 10, 71, 64
11, 284760, Note_on_c, 10, 71, 40
11, 284856, Note_off_c, 10, 71, 64
11, 284880, Note_on_c, 10, 71, 40
11, 284976, Note_off_c, 10, 71, 64
11, 285000, Note_on_c, 10, 71, 40
11, 285096, Note_off_c, 10, 71, 64
11, 285120, Note_on_c, 10, 71, 40
11, 285216, Note_off_c, 10, 71, 64
11, 285240, Note_on_c, 10, 71, 40
11, 285336, Note_off_c, 10, 71, 64
11, 285360, Note_on_c, 10, 71, 40
11, 285456, Note_off_c, 10, 71, 64
11, 285480, Note_on_c, 10, 71, 40
11, 285576, Note_off_c, 10, 71, 64
11, 285600, Note_on_c, 10, 71, 40
11, 285696, Note_off_c, 10, 71, 64
11, 285720, Note_on_c, 10, 71, 40
11, 285816, Note_off_c, 10, 71, 64
11, 285840, Note_on_c, 10, 71, 40
11, 285936, Note_off_c, 10, 71, 64
11, 285960, Note_on_c, 10, 71, 40
11, 286056, Note_off_c, 10, 71, 64
11, 286080, Note_on_c, 10, 71, 40
11, 286176, Note_off_c, 10, 71, 64
11, 286200, Note_on_c, 10, 71, 40
11, 286296, Note_off_c, 10, 71, 64
11, 286320, Note_on_c, 10, 72, 40
11, 286416, Note_off_c, 10, 72, 64
11, 286440, Note_on_c, 10, 72, 40
11, 286536, Note_off_c, 10, 72, 64
11, 286560, Note_on_c, 10, 72, 40
11, 286656, Note_off_c, 10, 72, 64
11, 286680, Note_on_c, 10, 72, 40
11, 286776, Note_off_c, 10, 72, 64
11, 286800, Note_on_c, 10, 72, 40
11, 286896, Note_off_c, 10, 72, 64
11, 286920, Note_on_c, 10, 72, 40
11, 287016, Note_off_c, 10, 72, 64
11, 287040, Note_on_c, 10, 72, 40
11, 287136, Note_off_c, 10, 72, 64
11, 287160, Note_on_c, 10, 72, 40
11, 287256, Note_off_c, 10, 72, 64
11, 287280, Note_on_c, 10, 72, 40
11, 287376, Note_off_c, 10, 72, 64
11, 287400, Note_on_c, 10, 72, 40
11, 287496, Note_off_c, 10, 72, 64
11, 287520, Note_on_c, 10, 72, 40
11, 287616, Note_off_c, 10, 72, 64
11, 287640, Note_on_c, 10, 72, 40
11, 287736, Note_off_c, 10, 72, 64
11, 287760, Note_on_c, 10, 72, 40
11, 287856, Note_off_c, 10, 72, 64
11, 287880, Note_on_c, 10, 72, 40
11, 287976, Note_off_c, 10, 72, 64
11, 288000, Note_on_c, 10, 72, 40
11, 288096, Note_off_c, 10, 72, 64
11, 288120, Note_on_c, 10, 72, 40
11, 288216, Note_off_c, 10, 72, 64
11, 288240, Note_on_c, 10, 66, 30
11, 288336, Note_off_c, 10, 66, 64
11, 288360, Note_on_c, 10, 66, 31
11, 288456, Note_off_c, 10, 66, 64
11, 288480, Note_on_c, 10, 63, 32
11, 288576, Note_off_c, 10, 63, 64
11, 288600, Note_on_c, 10, 64, 33
11, 288696, Note_off_c, 10, 64, 64
11, 288720, Note_on_c, 10, 66, 34
11, 288816, Note_off_c, 10, 66, 64
11, 288840, Note_on_c, 10, 66, 35
11, 288936, Note_off_c, 10, 66, 64
11, 288960, Note_on_c, 10, 66, 36
11, 289056, Note_off_c, 10, 66, 64
11, 289080, Note_on_c, 10, 66, 37
11, 289176, Note_off_c, 10, 66, 64
11, 289200, Note_on_c, 10, 64, 38
11, 289296, Note_off_c, 10, 64, 64
11, 289320, Note_on_c, 10, 64, 38
11, 289416, Note_off_c, 10, 64, 64
11, 289440, Note_on_c, 10, 67, 39
11, 289536, Note_off_c, 10, 67, 64
11, 289560, Note_on_c, 10, 66, 40
11, 289656, Note_off_c, 10, 66, 64
11, 289680, Note_on_c, 10, 64, 41
11, 289776, Note_off_c, 10, 64, 64
11, 289800, Note_on_c, 10, 64, 42
11, 289896, Note_off_c, 10, 64, 64
11, 289920, Note_on_c, 10, 64, 43
11, 290016, Note_off_c, 10, 64, 64
11, 290040, Note_on_c, 10, 64, 44
11, 290136, Note_off_c, 10, 64, 64
11, 290160, Note_on_c, 10, 66, 45
11, 290256, Note_off_c, 10, 66, 64
11, 290280, Note_on_c, 10, 66, 46
11, 290376, Note_off_c, 10, 66, 64
11, 290400, Note_on_c, 10, 69, 47
11, 290496, Note_off_c, 10, 69, 64
11, 290520, Note_on_c, 10, 67, 48
11, 290616, Note_off_c, 10, 67, 64
11, 290640, Note_on_c, 10, 66, 49
11, 290736, Note_off_c, 10, 66, 64
11, 290760, Note_on_c, 10, 66, 50
11, 290856, Note_off_c, 10, 66, 64
11, 290880, Note_on_c, 10, 66, 51
11, 290976, Note_off_c, 10, 66, 64
11, 291000, Note_on_c, 10, 66, 52
11, 291096, Note_off_c, 10, 66, 64
11, 291120, Note_on_c, 10, 66, 53
11, 291216, Note_off_c, 10, 66, 64
11, 291240, Note_on_c, 10, 66, 53
11, 291336, Note_off_c, 10, 66, 64
11, 291360, Note_on_c, 10, 63, 54
11, 291456, Note_off_c, 10, 63, 64
11, 291480, Note_on_c, 10, 64, 55
11, 291576, Note_off_c, 10, 64, 64
11, 291600, Note_on_c, 10, 66, 56
11, 291696, Note_off_c, 10, 66, 64
11, 291720, Note_on_c, 10, 66, 57
11, 291816, Note_off_c, 10, 66, 64
11, 291840, Note_on_c, 10, 63, 58
11, 291936, Note_off_c, 10, 63, 64
11, 291960, Note_on_c, 10, 63, 59
11, 292056, Note_off_c, 10, 63, 64
11, 292080, Note_on_c, 10, 64, 60
11, 292176, Note_off_c, 10, 64, 64
11, 292200, Note_on_c, 10, 64, 61
11, 292296, Note_off_c, 10, 64, 64
11, 292320, Note_on_c, 10, 64, 62
11, 292416, Note_off_c, 10, 64, 64
11, 292440, Note_on_c, 10, 64, 63
11, 292536, Note_off_c, 10, 64, 64
11, 292560, Note_on_c, 10, 64, 64
11, 292656, Note_off_c, 10, 64, 64
11, 292680, Note_on_c, 10, 64, 65
11, 292776, Note_off_c, 10, 64, 64
11, 292800, Note_on_c, 10, 64, 66
11, 292896, Note_off_c, 10, 64, 64
11, 292920, Note_on_c, 10, 64, 67
11, 293016, Note_off_c, 10, 64, 64
11, 293040, Note_on_c, 10, 64, 68
11, 293136, Note_off_c, 10, 64, 64
11, 293160, Note_on_c, 10, 64, 68
11, 293256, Note_off_c, 10, 64, 64
11, 293280, Note_on_c, 10, 64, 69
11, 293376, Note_off_c, 10, 64, 64
11, 293400, Note_on_c, 10, 64, 70
11, 293496, Note_off_c, 10, 64, 64
11, 293520, Note_on_c, 10, 63, 71
11, 293616, Note_off_c, 10, 63, 64
11, 293640, Note_on_c, 10, 63, 72
11, 293736, Note_off_c, 10, 63, 64
11, 293760, Note_on_c, 10, 63, 73
11, 293856, Note_off_c, 10, 63, 64
11, 293880, Note_on_c, 10, 63, 74
11, 293976, Note_off_c, 10, 63, 64
11, 294000, Note_on_c, 10, 64, 94
11, 294096, Note_off_c, 10, 64, 64
11, 294120, Note_on_c, 10, 76, 95
11, 294216, Note_off_c, 10, 76, 64
11, 294240, Note_on_c, 10, 76, 96
11, 294336, Note_off_c, 10, 76, 64
11, 294360, Note_on_c, 10, 76, 98
11, 294456, Note_off_c, 10, 76, 64
11, 294480, Note_on_c, 10, 76, 99
11, 294576, Note_off_c, 10, 76, 64
11, 294600, Note_on_c, 10, 76, 100
11, 294696, Note_off_c, 10, 76, 64
11, 294720, Note_on_c, 10, 76, 101
11, 294816, Note_off_c, 10, 76, 64
11, 294840, Note_on_c, 10, 76, 103
11, 294936, Note_off_c, 10, 76, 64
11, 294960, Note_on_c, 10, 76, 104
11, 295056, Note_off_c, 10, 76, 64
11, 295080, Note_on_c, 10, 64, 104
11, 295176, Note_off_c, 10, 64, 64
11, 295200, Note_on_c, 10, 64, 105
11, 295296, Note_off_c, 10, 64, 64
11, 295320, Note_on_c, 10, 64, 106
11, 295416, Note_off_c, 10, 64, 64
11, 295440, Note_on_c, 10, 63, 108
11, 295536, Note_off_c, 10, 63, 64
11, 295560, Note_on_c, 10, 71, 109
11, 295656, Note_off_c, 10, 71, 64
11, 295680, Note_on_c, 10, 71, 110
11, 295776, Note_off_c, 10, 71, 64
11, 295800, Note_on_c, 10, 71, 111
11, 295896, Note_off_c, 10, 71, 64
11, 295920, Note_on_c, 10, 71, 127
11, 296016, Note_off_c, 10, 71, 64
11, 296040, Note_on_c, 10, 71, 127
11, 296136, Note_off_c, 10, 71, 64
11, 296160, Note_on_c, 10, 71, 127
11, 296256, Note_off_c, 10, 71, 64
11, 296280, Note_on_c, 10, 71, 127
11, 296376, Note_off_c, 10, 71, 64
11, 296400, Note_on_c, 10, 64, 127
11, 296496, Note_off_c, 10, 64, 64
11, 296520, Note_on_c, 10, 64, 127
11, 296616, Note_off_c, 10, 64, 64
11, 296640, Note_on_c, 10, 64, 127
11, 296736, Note_off_c, 10, 64, 64
11, 296760, Note_on_c, 10, 64, 127
11, 296856, Note_off_c, 10, 64, 64
11, 296880, Note_on_c, 10, 69, 127
11, 296976, Note_off_c, 10, 69, 64
11, 297000, Note_on_c, 10, 69, 127
11, 297096, Note_off_c, 10, 69, 64
11, 297120, Note_on_c, 10, 69, 127
11, 297216, Note_off_c, 10, 69, 64
11, 297240, Note_on_c, 10, 69, 127
11, 297336, Note_off_c, 10, 69, 64
11, 297360, Note_on_c, 10, 62, 127
11, 297456, Note_off_c, 10, 62, 64
11, 297480, Note_on_c, 10, 62, 127
11, 297576, Note_off_c, 10, 62, 64
11, 297600, Note_on_c, 10, 62, 127
11, 297696, Note_off_c, 10, 62, 64
11, 297720, Note_on_c, 10, 62, 127
11, 297816, Note_off_c, 10, 62, 64
11, 297840, Note_on_c, 10, 67, 127
11, 297936, Note_off_c, 10, 67, 64
11, 297960, Note_on_c, 10, 67, 127
11, 298056, Note_off_c, 10, 67, 64
11, 298080, Note_on_c, 10, 67, 127
11, 298176, Note_off_c, 10, 67, 64
11, 298200, Note_on_c, 10, 67, 127
11, 298296, Note_off_c, 10, 67, 64
11, 298320, Note_on_c, 10, 60, 127
11, 298416, Note_off_c, 10, 60, 64
11, 298440, Note_on_c, 10, 60, 127
11, 298536, Note_off_c, 10, 60, 64
11, 298560, Note_on_c, 10, 60, 127
11, 298656, Note_off_c, 10, 60, 64
11, 298680, Note_on_c, 10, 60, 127
11, 298776, Note_off_c, 10, 60, 64
11, 298800, Note_on_c, 10, 66, 127
11, 298896, Note_off_c, 10, 66, 64
11, 298920, Note_on_c, 10, 66, 127
11, 299016, Note_off_c, 10, 66, 64
11, 299040, Note_on_c, 10, 66, 127
11, 299136, Note_off_c, 10, 66, 64
11, 299160, Note_on_c, 10, 66, 127
11, 299256, Note_off_c, 10, 66, 64
11, 299280, Note_on_c, 10, 59, 127
11, 299376, Note_off_c, 10, 59, 64
11, 299400, Note_on_c, 10, 59, 127
11, 299496, Note_off_c, 10, 59, 64
11, 299520, Note_on_c, 10, 59, 127
11, 299616, Note_off_c, 10, 59, 64
11, 299640, Note_on_c, 10, 59, 127
11, 299736, Note_off_c, 10, 59, 64
11, 299760, Note_on_c, 10, 60, 127
11, 299856, Note_off_c, 10, 60, 64
11, 299880, Note_on_c, 10, 60, 127
11, 299976, Note_off_c, 10, 60, 64
11, 300000, Note_on_c, 10, 62, 127
11, 300096, Note_off_c, 10, 62, 64
11, 300120, Note_on_c, 10, 64, 127
11, 300216, Note_off_c, 10, 64, 64
11, 300240, Note_on_c, 10, 66, 127
11, 300336, Note_off_c, 10, 66, 64
11, 300360, Note_on_c, 10, 64, 127
11, 300456, Note_off_c, 10, 64, 64
11, 300480, Note_on_c, 10, 66, 127
11, 300576, Note_off_c, 10, 66, 64
11, 300600, Note_on_c, 10, 54, 127
11, 300696, Note_off_c, 10, 54, 64
11, 300720, Note_on_c, 10, 59, 127
11, 300816, Note_off_c, 10, 59, 64
11, 300840, Note_on_c, 10, 59, 127
11, 300936, Note_off_c, 10, 59, 64
11, 300960, Note_on_c, 10, 59, 127
11, 301056, Note_off_c, 10, 59, 64
11, 301080, Note_on_c, 10, 59, 127
11, 301176, Note_off_c, 10, 59, 64
11, 301200, Note_on_c, 10, 59, 127
11, 301296, Note_off_c, 10, 59, 64
11, 301320, Note_on_c, 10, 59, 127
11, 301416, Note_off_c, 10, 59, 64
11, 301440, Note_on_c, 10, 59, 127
11, 301536, Note_off_c, 10, 59, 64
11, 301560, Note_on_c, 10, 59, 127
11, 301656, Note_off_c, 10, 59, 64
11, 301680, Note_on_c, 10, 59, 99
11, 301776, Note_off_c, 10, 59, 64
11, 301800, Note_on_c, 10, 59, 99
11, 301896, Note_off_c, 10, 59, 64
11, 301920, Note_on_c, 10, 59, 99
11, 302016, Note_off_c, 10, 59, 64
11, 302040, Note_on_c, 10, 59, 99
11, 302136, Note_off_c, 10, 59, 64
11, 302160, Note_on_c, 10, 59, 99
11, 302256, Note_off_c, 10, 59, 64
11, 302280, Note_on_c, 10, 59, 99
11, 302376, Note_off_c, 10, 59, 64
11, 302400, Note_on_c, 10, 59, 99
11, 302496, Note_off_c, 10, 59, 64
11, 302520, Note_on_c, 10, 59, 99
11, 302616, Note_off_c, 10, 59, 64
11, 302640, Note_on_c, 10, 66, 99
11, 302736, Note_off_c, 10, 66, 64
11, 302760, Note_on_c, 10, 66, 99
11, 302856, Note_off_c, 10, 66, 64
11, 302880, Note_on_c, 10, 66, 99
11, 302976, Note_off_c, 10, 66, 64
11, 303000, Note_on_c, 10, 66, 99
11, 303096, Note_off_c, 10, 66, 64
11, 303120, Note_on_c, 10, 64, 99
11, 303216, Note_off_c, 10, 64, 64
11, 303240, Note_on_c, 10, 64, 99
11, 303336, Note_off_c, 10, 64, 64
11, 303360, Note_on_c, 10, 64, 99
11, 303456, Note_off_c, 10, 64, 64
11, 303480, Note_on_c, 10, 64, 99
11, 303576, Note_off_c, 10, 64, 64
11, 303600, Note_on_c, 10, 71, 99
11, 303696, Note_off_c, 10, 71, 64
11, 303720, Note_on_c, 10, 71, 99
11, 303816, Note_off_c, 10, 71, 64
11, 303840, Note_on_c, 10, 71, 99
11, 303936, Note_off_c, 10, 71, 64
11, 303960, Note_on_c, 10, 71, 99
11, 304056, Note_off_c, 10, 71, 64
11, 304080, Note_on_c, 10, 71, 99
11, 304176, Note_off_c, 10, 71, 64
11, 304200, Note_on_c, 10, 71, 99
11, 304296, Note_off_c, 10, 71, 64
11, 304320, Note_on_c, 10, 71, 99
11, 304416, Note_off_c, 10, 71, 64
11, 304440, Note_on_c, 10, 71, 99
11, 304536, Note_off_c, 10, 71, 64
11, 304560, Note_on_c, 10, 59, 99
11, 304656, Note_off_c, 10, 59, 64
11, 304680, Note_on_c, 10, 59, 99
11, 304776, Note_off_c, 10, 59, 64
11, 304800, Note_on_c, 10, 61, 99
11, 304896, Note_off_c, 10, 61, 64
11, 304920, Note_on_c, 10, 63, 99
11, 305016, Note_off_c, 10, 63, 64
11, 305040, Note_on_c, 10, 64, 99
11, 305136, Note_off_c, 10, 64, 64
11, 305160, Note_on_c, 10, 64, 99
11, 305256, Note_off_c, 10, 64, 64
11, 305280, Note_on_c, 10, 66, 99
11, 305376, Note_off_c, 10, 66, 64
11, 305400, Note_on_c, 10, 67, 99
11, 305496, Note_off_c, 10, 67, 64
11, 305520, Note_on_c, 10, 59, 99
11, 305616, Note_off_c, 10, 59, 64
11, 305640, Note_on_c, 10, 59, 99
11, 305736, Note_off_c, 10, 59, 64
11, 305760, Note_on_c, 10, 59, 99
11, 305856, Note_off_c, 10, 59, 64
11, 305880, Note_on_c, 10, 59, 99
11, 305976, Note_off_c, 10, 59, 64
11, 306000, Note_on_c, 10, 59, 99
11, 306096, Note_off_c, 10, 59, 64
11, 306120, Note_on_c, 10, 59, 99
11, 306216, Note_off_c, 10, 59, 64
11, 306240, Note_on_c, 10, 59, 99
11, 306336, Note_off_c, 10, 59, 64
11, 306360, Note_on_c, 10, 59, 99
11, 306456, Note_off_c, 10, 59, 64
11, 306480, Note_on_c, 10, 59, 99
11, 306480, Note_on_c, 10, 64, 99
11, 306576, Note_off_c, 10, 64, 64
11, 306576, Note_off_c, 10, 59, 64
11, 306600, Note_on_c, 10, 59, 99
11, 306600, Note_on_c, 10, 64, 99
11, 306696, Note_off_c, 10, 64, 64
11, 306696, Note_off_c, 10, 59, 64
11, 306720, Note_on_c, 10, 64, 99
11, 306720, Note_on_c, 10, 59, 99
11, 306816, Note_off_c, 10, 59, 64
11, 306816, Note_off_c, 10, 64, 64
11, 306840, Note_on_c, 10, 59, 99
11, 306840, Note_on_c, 10, 64, 99
11, 306936, Note_off_c, 10, 64, 64
11, 306936, Note_off_c, 10, 59, 64
11, 306960, Note_on_c, 10, 59, 99
11, 306960, Note_on_c, 10, 64, 99
11, 307056, Note_off_c, 10, 64, 64
11, 307056, Note_off_c, 10, 59, 64
11, 307080, Note_on_c, 10, 64, 99
11, 307080, Note_on_c, 10, 59, 99
11, 307176, Note_off_c, 10, 59, 64
11, 307176, Note_off_c, 10, 64, 64
11, 307200, Note_on_c, 10, 59, 99
11, 307200, Note_on_c, 10, 64, 99
11, 307296, Note_off_c, 10, 64, 64
11, 307296, Note_off_c, 10, 59, 64
11, 307320, Note_on_c, 10, 59, 99
11, 307320, Note_on_c, 10, 64, 99
11, 307416, Note_off_c, 10, 64, 64
11, 307416, Note_off_c, 10, 59, 64
11, 307440, Note_on_c, 10, 64, 80
11, 307440, Note_on_c, 10, 59, 80
11, 307536, Note_off_c, 10, 59, 64
11, 307536, Note_off_c, 10, 64, 64
11, 307560, Note_on_c, 10, 59, 80
11, 307560, Note_on_c, 10, 64, 80
11, 307656, Note_off_c, 10, 64, 64
11, 307656, Note_off_c, 10, 59, 64
11, 307680, Note_on_c, 10, 64, 127
11, 307680, Note_on_c, 10, 60, 99
11, 308064, Note_off_c, 10, 60, 64
11, 308064, Note_off_c, 10, 64, 64
11, 308640, Note_on_c, 10, 55, 99
11, 308880, Note_off_c, 10, 55, 64
11, 308880, Note_on_c, 10, 57, 99
11, 309000, Note_off_c, 10, 57, 64
11, 309000, Note_on_c, 10, 59, 99
11, 309120, Note_off_c, 10, 59, 64
11, 309120, Note_on_c, 10, 60, 99
11, 309216, Note_off_c, 10, 60, 64
11, 309360, Note_on_c, 10, 60, 99
11, 309456, Note_off_c, 10, 60, 64
11, 309600, Note_on_c, 10, 64, 127
11, 309600, Note_on_c, 10, 60, 99
11, 309984, Note_off_c, 10, 60, 64
11, 309984, Note_off_c, 10, 64, 64
11, 310560, Note_on_c, 10, 55, 99
11, 310800, Note_off_c, 10, 55, 64
11, 310800, Note_on_c, 10, 57, 99
11, 310920, Note_off_c, 10, 57, 64
11, 310920, Note_on_c, 10, 59, 99
11, 311040, Note_off_c, 10, 59, 64
11, 311040, Note_on_c, 10, 60, 99
11, 311136, Note_off_c, 10, 60, 64
11, 311280, Note_on_c, 10, 60, 99
11, 311376, Note_off_c, 10, 60, 64
11, 311520, Note_on_c, 10, 64, 127
11, 311520, Note_on_c, 10, 60, 99
11, 311904, Note_off_c, 10, 60, 64
11, 311904, Note_off_c, 10, 64, 64
11, 312480, Note_on_c, 10, 55, 99
11, 312720, Note_off_c, 10, 55, 64
11, 312720, Note_on_c, 10, 57, 99
11, 312840, Note_off_c, 10, 57, 64
11, 312840, Note_on_c, 10, 59, 99
11, 312960, Note_off_c, 10, 59, 64
11, 312960, Note_on_c, 10, 60, 99
11, 313056, Note_off_c, 10, 60, 64
11, 313200, Note_on_c, 10, 60, 99
11, 313296, Note_off_c, 10, 60, 64
11, 313440, Note_on_c, 10, 60, 99
11, 313440, Note_on_c, 10, 64, 127
11, 313824, Note_off_c, 10, 64, 64
11, 313824, Note_off_c, 10, 60, 64
11, 313920, Note_on_c, 10, 64, 127
11, 313920, Note_on_c, 10, 60, 99
11, 314304, Note_off_c, 10, 60, 64
11, 314304, Note_off_c, 10, 64, 64
11, 314400, Note_on_c, 10, 64, 127
11, 314400, Note_on_c, 10, 59, 99
11, 314784, Note_off_c, 10, 59, 64
11, 314784, Note_off_c, 10, 64, 64
11, 314880, Note_on_c, 10, 64, 127
11, 314880, Note_on_c, 10, 59, 99
11, 315264, Note_off_c, 10, 59, 64
11, 315264, Note_off_c, 10, 64, 64
11, 315360, Note_on_c, 10, 60, 99
11, 315360, Note_on_c, 10, 64, 127
11, 315744, Note_off_c, 10, 64, 64
11, 315744, Note_off_c, 10, 60, 64
11, 316320, Note_on_c, 10, 55, 99
11, 316560, Note_off_c, 10, 55, 64
11, 316560, Note_on_c, 10, 57, 99
11, 316680, Note_off_c, 10, 57, 64
11, 316680, Note_on_c, 10, 59, 99
11, 316800, Note_off_c, 10, 59, 64
11, 316800, Note_on_c, 10, 60, 99
11, 316896, Note_off_c, 10, 60, 64
11, 317040, Note_on_c, 10, 60, 99
11, 317136, Note_off_c, 10, 60, 64
11, 317280, Note_on_c, 10, 60, 99
11, 317280, Note_on_c, 10, 64, 127
11, 317664, Note_off_c, 10, 64, 64
11, 317664, Note_off_c, 10, 60, 64
11, 318240, Note_on_c, 10, 55, 99
11, 318480, Note_off_c, 10, 55, 64
11, 318480, Note_on_c, 10, 57, 99
11, 318600, Note_off_c, 10, 57, 64
11, 318600, Note_on_c, 10, 59, 99
11, 318720, Note_off_c, 10, 59, 64
11, 318720, Note_on_c, 10, 60, 99
11, 318816, Note_off_c, 10, 60, 64
11, 318960, Note_on_c, 10, 60, 99
11, 319056, Note_off_c, 10, 60, 64
11, 319200, Note_on_c, 10, 60, 99
11, 319200, Note_on_c, 10, 64, 127
11, 319584, Note_off_c, 10, 64, 64
11, 319584, Note_off_c, 10, 60, 64
11, 320160, Note_on_c, 10, 55, 99
11, 320400, Note_off_c, 10, 55, 64
11, 320400, Note_on_c, 10, 57, 99
11, 320520, Note_off_c, 10, 57, 64
11, 320520, Note_on_c, 10, 59, 99
11, 320640, Note_off_c, 10, 59, 64
11, 320640, Note_on_c, 10, 60, 99
11, 320736, Note_off_c, 10, 60, 64
11, 320880, Note_on_c, 10, 60, 99
11, 320976, Note_off_c, 10, 60, 64
11, 321120, Note_on_c, 10, 60, 99
11, 321120, Note_on_c, 10, 64, 127
11, 321504, Note_off_c, 10, 64, 64
11, 321504, Note_off_c, 10, 60, 64
11, 321600, Note_on_c, 10, 64, 127
11, 321600, Note_on_c, 10, 60, 99
11, 321984, Note_off_c, 10, 60, 64
11, 321984, Note_off_c, 10, 64, 64
11, 322080, Note_on_c, 10, 64, 127
11, 322080, Note_on_c, 10, 59, 99
11, 322464, Note_off_c, 10, 59, 64
11, 322464, Note_off_c, 10, 64, 64
11, 322560, Note_on_c, 10, 63, 127
11, 322560, Note_on_c, 10, 59, 99
11, 322944, Note_off_c, 10, 59, 64
11, 322944, Note_off_c, 10, 63, 64
11, 323040, Note_on_c, 10, 64, 127
11, 323136, Note_off_c, 10, 64, 64
11, 323160, Note_on_c, 10, 64, 40
11, 323256, Note_off_c, 10, 64, 64
11, 323280, Note_on_c, 10, 63, 40
11, 323376, Note_off_c, 10, 63, 64
11, 323400, Note_on_c, 10, 64, 40
11, 323496, Note_off_c, 10, 64, 64
11, 323520, Note_on_c, 10, 63, 40
11, 323616, Note_off_c, 10, 63, 64
11, 323640, Note_on_c, 10, 64, 40
11, 323736, Note_off_c, 10, 64, 64
11, 323760, Note_on_c, 10, 66, 40
11, 323856, Note_off_c, 10, 66, 64
11, 323880, Note_on_c, 10, 64, 40
11, 323976, Note_off_c, 10, 64, 64
11, 324000, Note_on_c, 10, 63, 40
11, 324096, Note_off_c, 10, 63, 64
11, 324120, Note_on_c, 10, 63, 40
11, 324216, Note_off_c, 10, 63, 64
11, 324240, Note_on_c, 10, 63, 40
11, 324336, Note_off_c, 10, 63, 64
11, 324360, Note_on_c, 10, 63, 40
11, 324456, Note_off_c, 10, 63, 64
11, 324480, Note_on_c, 10, 63, 40
11, 324576, Note_off_c, 10, 63, 64
11, 324600, Note_on_c, 10, 63, 40
11, 324696, Note_off_c, 10, 63, 64
11, 324720, Note_on_c, 10, 63, 40
11, 324816, Note_off_c, 10, 63, 64
11, 324840, Note_on_c, 10, 63, 40
11, 324936, Note_off_c, 10, 63, 64
11, 324960, Note_on_c, 10, 64, 40
11, 325056, Note_off_c, 10, 64, 64
11, 325080, Note_on_c, 10, 64, 40
11, 325176, Note_off_c, 10, 64, 64
11, 325200, Note_on_c, 10, 63, 40
11, 325296, Note_off_c, 10, 63, 64
11, 325320, Note_on_c, 10, 64, 40
11, 325416, Note_off_c, 10, 64, 64
11, 325440, Note_on_c, 10, 63, 40
11, 325536, Note_off_c, 10, 63, 64
11, 325560, Note_on_c, 10, 64, 40
11, 325656, Note_off_c, 10, 64, 64
11, 325680, Note_on_c, 10, 66, 40
11, 325776, Note_off_c, 10, 66, 64
11, 325800, Note_on_c, 10, 64, 40
11, 325896, Note_off_c, 10, 64, 64
11, 325920, Note_on_c, 10, 63, 102
11, 326016, Note_off_c, 10, 63, 64
11, 326040, Note_on_c, 10, 63, 102
11, 326136, Note_off_c, 10, 63, 64
11, 326160, Note_on_c, 10, 63, 102
11, 326256, Note_off_c, 10, 63, 64
11, 326280, Note_on_c, 10, 63, 102
11, 326376, Note_off_c, 10, 63, 64
11, 326400, Note_on_c, 10, 63, 102
11, 326496, Note_off_c, 10, 63, 64
11, 326520, Note_on_c, 10, 63, 102
11, 326616, Note_off_c, 10, 63, 64
11, 326640, Note_on_c, 10, 63, 102
11, 326736, Note_off_c, 10, 63, 64
11, 326760, Note_on_c, 10, 63, 102
11, 326856, Note_off_c, 10, 63, 64
11, 326880, Note_on_c, 10, 64, 127
11, 326976, Note_off_c, 10, 64, 64
11, 327000, Note_on_c, 10, 64, 40
11, 327096, Note_off_c, 10, 64, 64
11, 327120, Note_on_c, 10, 63, 40
11, 327216, Note_off_c, 10, 63, 64
11, 327240, Note_on_c, 10, 64, 40
11, 327336, Note_off_c, 10, 64, 64
11, 327360, Note_on_c, 10, 63, 40
11, 327456, Note_off_c, 10, 63, 64
11, 327480, Note_on_c, 10, 64, 40
11, 327576, Note_off_c, 10, 64, 64
11, 327600, Note_on_c, 10, 66, 40
11, 327696, Note_off_c, 10, 66, 64
11, 327720, Note_on_c, 10, 64, 43
11, 327816, Note_off_c, 10, 64, 64
11, 327840, Note_on_c, 10, 63, 35
11, 327936, Note_off_c, 10, 63, 64
11, 327960, Note_on_c, 10, 63, 35
11, 328056, Note_off_c, 10, 63, 64
11, 328080, Note_on_c, 10, 63, 35
11, 328176, Note_off_c, 10, 63, 64
11, 328200, Note_on_c, 10, 63, 35
11, 328296, Note_off_c, 10, 63, 64
11, 328320, Note_on_c, 10, 63, 35
11, 328416, Note_off_c, 10, 63, 64
11, 328440, Note_on_c, 10, 63, 35
11, 328536, Note_off_c, 10, 63, 64
11, 328560, Note_on_c, 10, 63, 35
11, 328656, Note_off_c, 10, 63, 64
11, 328680, Note_on_c, 10, 63, 35
11, 328776, Note_off_c, 10, 63, 64
11, 328800, Note_on_c, 10, 64, 35
11, 328896, Note_off_c, 10, 64, 64
11, 328920, Note_on_c, 10, 64, 40
11, 329016, Note_off_c, 10, 64, 64
11, 329040, Note_on_c, 10, 63, 40
11, 329136, Note_off_c, 10, 63, 64
11, 329160, Note_on_c, 10, 64, 40
11, 329256, Note_off_c, 10, 64, 64
11, 329280, Note_on_c, 10, 63, 40
11, 329376, Note_off_c, 10, 63, 64
11, 329400, Note_on_c, 10, 64, 40
11, 329496, Note_off_c, 10, 64, 64
11, 329520, Note_on_c, 10, 66, 40
11, 329616, Note_off_c, 10, 66, 64
11, 329640, Note_on_c, 10, 64, 40
11, 329736, Note_off_c, 10, 64, 64
11, 329760, Note_on_c, 10, 63, 112
11, 329856, Note_off_c, 10, 63, 64
11, 329880, Note_on_c, 10, 63, 112
11, 329976, Note_off_c, 10, 63, 64
11, 330000, Note_on_c, 10, 63, 112
11, 330096, Note_off_c, 10, 63, 64
11, 330120, Note_on_c, 10, 63, 112
11, 330216, Note_off_c, 10, 63, 64
11, 330240, Note_on_c, 10, 63, 112
11, 330336, Note_off_c, 10, 63, 64
11, 330360, Note_on_c, 10, 63, 112
11, 330456, Note_off_c, 10, 63, 64
11, 330480, Note_on_c, 10, 63, 112
11, 330576, Note_off_c, 10, 63, 64
11, 330600, Note_on_c, 10, 63, 112
11, 330696, Note_off_c, 10, 63, 64
11, 330720, Note_on_c, 10, 64, 74
11, 330720, Note_on_c, 10, 59, 74
11, 330816, Note_off_c, 10, 59, 64
11, 330816, Note_off_c, 10, 64, 64
11, 330840, Note_on_c, 10, 59, 74
11, 330840, Note_on_c, 10, 64, 74
11, 330936, Note_off_c, 10, 64, 64
11, 330936, Note_off_c, 10, 59, 64
11, 330960, Note_on_c, 10, 64, 74
11, 330960, Note_on_c, 10, 59, 74
11, 331056, Note_off_c, 10, 59, 64
11, 331056, Note_off_c, 10, 64, 64
11, 331080, Note_on_c, 10, 59, 74
11, 331080, Note_on_c, 10, 64, 74
11, 331176, Note_off_c, 10, 64, 64
11, 331176, Note_off_c, 10, 59, 64
11, 331200, Note_on_c, 10, 63, 74
11, 331296, Note_off_c, 10, 63, 64
11, 331320, Note_on_c, 10, 63, 74
11, 331416, Note_off_c, 10, 63, 64
11, 331440, Note_on_c, 10, 63, 74
11, 331536, Note_off_c, 10, 63, 64
11, 331560, Note_on_c, 10, 63, 74
11, 331656, Note_off_c, 10, 63, 64
11, 331680, Note_on_c, 10, 64, 74
11, 331680, Note_on_c, 10, 59, 74
11, 331776, Note_off_c, 10, 59, 64
11, 331776, Note_off_c, 10, 64, 64
11, 331800, Note_on_c, 10, 59, 74
11, 331800, Note_on_c, 10, 64, 74
11, 331896, Note_off_c, 10, 64, 64
11, 331896, Note_off_c, 10, 59, 64
11, 331920, Note_on_c, 10, 59, 74
11, 331920, Note_on_c, 10, 64, 74
11, 332016, Note_off_c, 10, 64, 64
11, 332016, Note_off_c, 10, 59, 64
11, 332040, Note_on_c, 10, 64, 74
11, 332040, Note_on_c, 10, 59, 74
11, 332136, Note_off_c, 10, 59, 64
11, 332136, Note_off_c, 10, 64, 64
11, 332160, Note_on_c, 10, 63, 74
11, 332256, Note_off_c, 10, 63, 64
11, 332280, Note_on_c, 10, 63, 74
11, 332376, Note_off_c, 10, 63, 64
11, 332400, Note_on_c, 10, 63, 74
11, 332496, Note_off_c, 10, 63, 64
11, 332520, Note_on_c, 10, 63, 74
11, 332616, Note_off_c, 10, 63, 64
11, 332640, Note_on_c, 10, 64, 99
11, 332736, Note_off_c, 10, 64, 64
11, 332760, Note_on_c, 10, 64, 99
11, 332856, Note_off_c, 10, 64, 64
11, 332880, Note_on_c, 10, 64, 99
11, 332976, Note_off_c, 10, 64, 64
11, 333000, Note_on_c, 10, 64, 99
11, 333096, Note_off_c, 10, 64, 64
11, 333120, Note_on_c, 10, 59, 99
11, 333216, Note_off_c, 10, 59, 64
11, 333240, Note_on_c, 10, 59, 99
11, 333336, Note_off_c, 10, 59, 64
11, 333360, Note_on_c, 10, 59, 99
11, 333456, Note_off_c, 10, 59, 64
11, 333480, Note_on_c, 10, 59, 99
11, 333576, Note_off_c, 10, 59, 64
11, 333600, Note_on_c, 10, 64, 99
11, 333696, Note_off_c, 10, 64, 64
11, 333720, Note_on_c, 10, 64, 99
11, 333816, Note_off_c, 10, 64, 64
11, 333840, Note_on_c, 10, 64, 99
11, 333936, Note_off_c, 10, 64, 64
11, 333960, Note_on_c, 10, 64, 99
11, 334056, Note_off_c, 10, 64, 64
11, 334080, Note_on_c, 10, 59, 99
11, 334176, Note_off_c, 10, 59, 64
11, 334200, Note_on_c, 10, 59, 99
11, 334296, Note_off_c, 10, 59, 64
11, 334320, Note_on_c, 10, 59, 99
11, 334416, Note_off_c, 10, 59, 64
11, 334440, Note_on_c, 10, 59, 99
11, 334536, Note_off_c, 10, 59, 64
11, 334560, Note_on_c, 10, 64, 120
11, 334752, Note_off_c, 10, 64, 64
11, 335520, Note_on_c, 10, 64, 120
11, 335712, Note_off_c, 10, 64, 64
11, 336000, Note_on_c, 10, 64, 120
11, 336192, Note_off_c, 10, 64, 64
11, 336480, Note_on_c, 10, 64, 120
11, 336672, Note_off_c, 10, 64, 64
11, 337440, Note_on_c, 10, 64, 120
11, 337632, Note_off_c, 10, 64, 64
11, 342240, Note_on_c, 10, 60, 35
11, 342336, Note_off_c, 10, 60, 64
11, 342360, Note_on_c, 10, 62, 35
11, 342456, Note_off_c, 10, 62, 64
11, 342480, Note_on_c, 10, 64, 35
11, 342576, Note_off_c, 10, 64, 64
11, 342600, Note_on_c, 10, 65, 35
11, 342696, Note_off_c, 10, 65, 64
11, 342720, Note_on_c, 10, 67, 35
11, 342816, Note_off_c, 10, 67, 64
11, 342840, Note_on_c, 10, 69, 35
11, 342936, Note_off_c, 10, 69, 64
11, 342960, Note_on_c, 10, 71, 35
11, 343056, Note_off_c, 10, 71, 64
11, 343080, Note_on_c, 10, 72, 35
11, 343176, Note_off_c, 10, 72, 64
11, 343200, Note_on_c, 10, 72, 35
11, 343296, Note_off_c, 10, 72, 64
11, 343320, Note_on_c, 10, 74, 35
11, 343416, Note_off_c, 10, 74, 64
11, 343440, Note_on_c, 10, 72, 35
11, 343536, Note_off_c, 10, 72, 64
11, 343560, Note_on_c, 10, 71, 35
11, 343656, Note_off_c, 10, 71, 64
11, 343680, Note_on_c, 10, 72, 35
11, 343776, Note_off_c, 10, 72, 64
11, 343800, Note_on_c, 10, 76, 35
11, 343896, Note_off_c, 10, 76, 64
11, 343920, Note_on_c, 10, 74, 35
11, 344016, Note_off_c, 10, 74, 64
11, 344040, Note_on_c, 10, 72, 35
11, 344136, Note_off_c, 10, 72, 64
11, 344160, Note_on_c, 10, 72, 35
11, 344256, Note_off_c, 10, 72, 64
11, 344280, Note_on_c, 10, 72, 35
11, 344376, Note_off_c, 10, 72, 64
11, 344400, Note_on_c, 10, 71, 35
11, 344496, Note_off_c, 10, 71, 64
11, 344520, Note_on_c, 10, 69, 35
11, 344616, Note_off_c, 10, 69, 64
11, 344640, Note_on_c, 10, 71, 35
11, 344736, Note_off_c, 10, 71, 64
11, 344760, Note_on_c, 10, 74, 35
11, 344856, Note_off_c, 10, 74, 64
11, 344880, Note_on_c, 10, 72, 35
11, 344976, Note_off_c, 10, 72, 64
11, 345000, Note_on_c, 10, 71, 35
11, 345096, Note_off_c, 10, 71, 64
11, 345120, Note_on_c, 10, 71, 35
11, 345216, Note_off_c, 10, 71, 64
11, 345240, Note_on_c, 10, 71, 35
11, 345336, Note_off_c, 10, 71, 64
11, 345360, Note_on_c, 10, 69, 35
11, 345456, Note_off_c, 10, 69, 64
11, 345480, Note_on_c, 10, 68, 35
11, 345576, Note_off_c, 10, 68, 64
11, 345600, Note_on_c, 10, 69, 35
11, 345696, Note_off_c, 10, 69, 64
11, 345720, Note_on_c, 10, 72, 35
11, 345816, Note_off_c, 10, 72, 64
11, 345840, Note_on_c, 10, 71, 35
11, 345936, Note_off_c, 10, 71, 64
11, 345960, Note_on_c, 10, 69, 35
11, 346056, Note_off_c, 10, 69, 64
11, 346080, Note_on_c, 10, 67, 35
11, 346176, Note_off_c, 10, 67, 64
11, 346200, Note_on_c, 10, 69, 35
11, 346296, Note_off_c, 10, 69, 64
11, 346320, Note_on_c, 10, 67, 35
11, 346416, Note_off_c, 10, 67, 64
11, 346440, Note_on_c, 10, 66, 35
11, 346536, Note_off_c, 10, 66, 64
11, 346560, Note_on_c, 10, 67, 35
11, 346656, Note_off_c, 10, 67, 64
11, 346680, Note_on_c, 10, 71, 35
11, 346776, Note_off_c, 10, 71, 64
11, 346800, Note_on_c, 10, 69, 35
11, 346896, Note_off_c, 10, 69, 64
11, 346920, Note_on_c, 10, 67, 35
11, 347016, Note_off_c, 10, 67, 64
11, 347040, Note_on_c, 10, 67, 35
11, 347136, Note_off_c, 10, 67, 64
11, 347160, Note_on_c, 10, 67, 35
11, 347256, Note_off_c, 10, 67, 64
11, 347280, Note_on_c, 10, 67, 35
11, 347376, Note_off_c, 10, 67, 64
11, 347400, Note_on_c, 10, 67, 35
11, 347496, Note_off_c, 10, 67, 64
11, 347520, Note_on_c, 10, 66, 35
11, 347616, Note_off_c, 10, 66, 64
11, 347640, Note_on_c, 10, 66, 35
11, 347736, Note_off_c, 10, 66, 64
11, 347760, Note_on_c, 10, 66, 35
11, 347856, Note_off_c, 10, 66, 64
11, 347880, Note_on_c, 10, 66, 35
11, 347976, Note_off_c, 10, 66, 64
11, 349920, Note_on_c, 10, 62, 40
11, 350016, Note_off_c, 10, 62, 64
11, 350040, Note_on_c, 10, 62, 40
11, 350136, Note_off_c, 10, 62, 64
11, 350160, Note_on_c, 10, 64, 40
11, 350256, Note_off_c, 10, 64, 64
11, 350280, Note_on_c, 10, 65, 40
11, 350376, Note_off_c, 10, 65, 64
11, 350400, Note_on_c, 10, 67, 40
11, 350496, Note_off_c, 10, 67, 64
11, 350520, Note_on_c, 10, 67, 40
11, 350616, Note_off_c, 10, 67, 64
11, 350640, Note_on_c, 10, 67, 40
11, 350736, Note_off_c, 10, 67, 64
11, 350760, Note_on_c, 10, 67, 40
11, 350856, Note_off_c, 10, 67, 64
11, 350880, Note_on_c, 10, 60, 40
11, 350976, Note_off_c, 10, 60, 64
11, 351000, Note_on_c, 10, 60, 40
11, 351096, Note_off_c, 10, 60, 64
11, 351120, Note_on_c, 10, 62, 40
11, 351216, Note_off_c, 10, 62, 64
11, 351240, Note_on_c, 10, 64, 40
11, 351336, Note_off_c, 10, 64, 64
11, 351360, Note_on_c, 10, 65, 40
11, 351456, Note_off_c, 10, 65, 64
11, 351480, Note_on_c, 10, 65, 40
11, 351576, Note_off_c, 10, 65, 64
11, 351600, Note_on_c, 10, 65, 40
11, 351696, Note_off_c, 10, 65, 64
11, 351720, Note_on_c, 10, 65, 40
11, 351816, Note_off_c, 10, 65, 64
11, 351840, Note_on_c, 10, 67, 35
11, 352032, Note_off_c, 10, 67, 64
11, 354720, Note_on_c, 10, 72, 63
11, 355488, Note_off_c, 10, 72, 64
11, 355680, Note_on_c, 10, 69, 73
11, 355920, Note_off_c, 10, 69, 64
11, 355920, Note_on_c, 10, 70, 75
11, 356040, Note_off_c, 10, 70, 64
11, 356040, Note_on_c, 10, 72, 76
11, 356160, Note_off_c, 10, 72, 64
11, 356160, Note_on_c, 10, 74, 77
11, 356256, Note_off_c, 10, 74, 64
11, 356400, Note_on_c, 10, 74, 80
11, 356496, Note_off_c, 10, 74, 64
11, 356640, Note_on_c, 10, 70, 82
11, 356880, Note_off_c, 10, 70, 64
11, 356880, Note_on_c, 10, 72, 84
11, 357000, Note_off_c, 10, 72, 64
11, 357000, Note_on_c, 10, 74, 85
11, 357120, Note_off_c, 10, 74, 64
11, 357120, Note_on_c, 10, 76, 87
11, 357216, Note_off_c, 10, 76, 64
11, 357360, Note_on_c, 10, 76, 89
11, 357456, Note_off_c, 10, 76, 64
11, 357600, Note_on_c, 10, 60, 91
11, 357696, Note_off_c, 10, 60, 64
11, 357720, Note_on_c, 10, 60, 92
11, 357816, Note_off_c, 10, 60, 64
11, 357840, Note_on_c, 10, 60, 94
11, 357936, Note_off_c, 10, 60, 64
11, 357960, Note_on_c, 10, 60, 95
11, 358056, Note_off_c, 10, 60, 64
11, 358080, Note_on_c, 10, 60, 96
11, 358176, Note_off_c, 10, 60, 64
11, 358200, Note_on_c, 10, 60, 97
11, 358296, Note_off_c, 10, 60, 64
11, 358320, Note_on_c, 10, 62, 98
11, 358416, Note_off_c, 10, 62, 64
11, 358440, Note_on_c, 10, 62, 99
11, 358536, Note_off_c, 10, 62, 64
11, 358560, Note_on_c, 10, 64, 101
11, 358656, Note_off_c, 10, 64, 64
11, 358680, Note_on_c, 10, 64, 102
11, 358776, Note_off_c, 10, 64, 64
11, 358800, Note_on_c, 10, 71, 103
11, 358896, Note_off_c, 10, 71, 64
11, 358920, Note_on_c, 10, 71, 104
11, 359016, Note_off_c, 10, 71, 64
11, 359040, Note_on_c, 10, 72, 105
11, 359136, Note_off_c, 10, 72, 64
11, 359160, Note_on_c, 10, 72, 106
11, 359256, Note_off_c, 10, 72, 64
11, 359280, Note_on_c, 10, 72, 108
11, 359376, Note_off_c, 10, 72, 64
11, 359400, Note_on_c, 10, 72, 109
11, 359496, Note_off_c, 10, 72, 64
11, 388320, Note_on_c, 10, 59, 127
11, 388512, Note_off_c, 10, 59, 64
11, 388800, Note_on_c, 10, 65, 127
11, 388800, Note_on_c, 10, 55, 127
11, 392256, Note_off_c, 10, 55, 64
11, 392256, Note_off_c, 10, 65, 64
11, 393600, Note_on_c, 10, 57, 127
11, 393600, Note_on_c, 10, 66, 127
11, 397536, Note_off_c, 10, 66, 64
11, 397536, Note_off_c, 10, 57, 64
11, 398880, Note_on_c, 10, 55, 127
11, 399072, Note_off_c, 10, 55, 64
11, 399840, Note_on_c, 10, 67, 127
11, 400032, Note_off_c, 10, 67, 64
11, 400800, Note_on_c, 10, 65, 127
11, 400830, Note_off_c, 10, 65, 64
11, 400830, Note_on_c, 10, 67, 109
11, 400860, Note_off_c, 10, 67, 64
11, 400860, Note_on_c, 10, 65, 108
11, 400890, Note_off_c, 10, 65, 64
11, 400890, Note_on_c, 10, 67, 106
11, 400920, Note_off_c, 10, 67, 64
11, 400920, Note_on_c, 10, 65, 105
11, 400950, Note_off_c, 10, 65, 64
11, 400950, Note_on_c, 10, 67, 104
11, 400980, Note_off_c, 10, 67, 64
11, 400980, Note_on_c, 10, 65, 103
11, 401010, Note_off_c, 10, 65, 64
11, 401010, Note_on_c, 10, 67, 101
11, 401040, Note_off_c, 10, 67, 64
11, 401040, Note_on_c, 10, 65, 100
11, 401070, Note_off_c, 10, 65, 64
11, 401070, Note_on_c, 10, 67, 99
11, 401100, Note_off_c, 10, 67, 64
11, 401100, Note_on_c, 10, 65, 98
11, 401130, Note_off_c, 10, 65, 64
11, 401130, Note_on_c, 10, 67, 96
11, 401160, Note_off_c, 10, 67, 64
11, 401160, Note_on_c, 10, 65, 95
11, 401190, Note_off_c, 10, 65, 64
11, 401190, Note_on_c, 10, 67, 94
11, 401220, Note_off_c, 10, 67, 64
11, 401220, Note_on_c, 10, 65, 93
11, 401250, Note_off_c, 10, 65, 64
11, 401250, Note_on_c, 10, 67, 91
11, 401280, Note_off_c, 10, 67, 64
11, 401280, Note_on_c, 10, 65, 90
11, 401310, Note_off_c, 10, 65, 64
11, 401310, Note_on_c, 10, 67, 89
11, 401340, Note_off_c, 10, 67, 64
11, 401340, Note_on_c, 10, 65, 88
11, 401370, Note_off_c, 10, 65, 64
11, 401370, Note_on_c, 10, 67, 86
11, 401400, Note_off_c, 10, 67, 64
11, 401400, Note_on_c, 10, 65, 85
11, 401430, Note_off_c, 10, 65, 64
11, 401430, Note_on_c, 10, 67, 84
11, 401460, Note_off_c, 10, 67, 64
11, 401460, Note_on_c, 10, 65, 83
11, 401490, Note_off_c, 10, 65, 64
11, 401490, Note_on_c, 10, 67, 81
11, 401520, Note_off_c, 10, 67, 64
11, 401520, Note_on_c, 10, 65, 80
11, 401550, Note_off_c, 10, 65, 64
11, 401550, Note_on_c, 10, 67, 79
11, 401580, Note_off_c, 10, 67, 64
11, 401580, Note_on_c, 10, 65, 78
11, 401610, Note_off_c, 10, 65, 64
11, 401610, Note_on_c, 10, 67, 76
11, 401640, Note_off_c, 10, 67, 64
11, 401640, Note_on_c, 10, 65, 75
11, 401670, Note_off_c, 10, 65, 64
11, 401670, Note_on_c, 10, 67, 74
11, 401700, Note_off_c, 10, 67, 64
11, 401700, Note_on_c, 10, 65, 73
11, 401730, Note_off_c, 10, 65, 64
11, 401730, Note_on_c, 10, 67, 71
11, 401760, Note_off_c, 10, 67, 64
11, 401760, Note_on_c, 10, 65, 70
11, 401790, Note_off_c, 10, 65, 64
11, 401790, Note_on_c, 10, 67, 69
11, 401820, Note_off_c, 10, 67, 64
11, 401820, Note_on_c, 10, 65, 67
11, 401850, Note_off_c, 10, 65, 64
11, 401850, Note_on_c, 10, 67, 66
11, 401880, Note_off_c, 10, 67, 64
11, 401880, Note_on_c, 10, 65, 65
11, 401910, Note_off_c, 10, 65, 64
11, 401910, Note_on_c, 10, 67, 64
11, 401940, Note_off_c, 10, 67, 64
11, 401940, Note_on_c, 10, 65, 62
11, 401970, Note_off_c, 10, 65, 64
11, 401970, Note_on_c, 10, 67, 61
11, 402000, Note_off_c, 10, 67, 64
11, 402000, Note_on_c, 10, 65, 60
11, 402030, Note_off_c, 10, 65, 64
11, 402030, Note_on_c, 10, 67, 59
11, 402060, Note_off_c, 10, 67, 64
11, 402060, Note_on_c, 10, 65, 57
11, 402090, Note_off_c, 10, 65, 64
11, 402090, Note_on_c, 10, 67, 56
11, 402120, Note_off_c, 10, 67, 64
11, 402120, Note_on_c, 10, 65, 55
11, 402150, Note_off_c, 10, 65, 64
11, 402150, Note_on_c, 10, 67, 54
11, 402180, Note_off_c, 10, 67, 64
11, 402180, Note_on_c, 10, 65, 52
11, 402210, Note_off_c, 10, 65, 64
11, 402210, Note_on_c, 10, 67, 51
11, 402240, Note_off_c, 10, 67, 64
11, 402240, Note_on_c, 10, 65, 50
11, 402270, Note_off_c, 10, 65, 64
11, 402270, Note_on_c, 10, 67, 49
11, 402300, Note_off_c, 10, 67, 64
11, 402300, Note_on_c, 10, 65, 47
11, 402330, Note_off_c, 10, 65, 64
11, 402330, Note_on_c, 10, 67, 46
11, 402360, Note_off_c, 10, 67, 64
11, 402360, Note_on_c, 10, 65, 45
11, 402390, Note_off_c, 10, 65, 64
11, 402390, Note_on_c, 10, 67, 44
11, 402420, Note_off_c, 10, 67, 64
11, 402420, Note_on_c, 10, 65, 42
11, 402450, Note_off_c, 10, 65, 64
11, 402450, Note_on_c, 10, 67, 41
11, 402480, Note_off_c, 10, 67, 64
11, 402480, Note_on_c, 10, 65, 40
11, 402510, Note_off_c, 10, 65, 64
11, 402510, Note_on_c, 10, 67, 39
11, 402540, Note_off_c, 10, 67, 64
11, 402540, Note_on_c, 10, 65, 37
11, 402570, Note_off_c, 10, 65, 64
11, 402570, Note_on_c, 10, 67, 36
11, 402600, Note_off_c, 10, 67, 64
11, 402600, Note_on_c, 10, 65, 35
11, 402630, Note_off_c, 10, 65, 64
11, 402630, Note_on_c, 10, 67, 34
11, 402660, Note_off_c, 10, 67, 64
11, 402660, Note_on_c, 10, 64, 32
11, 402690, Note_off_c, 10, 64, 64
11, 402690, Note_on_c, 10, 65, 31
11, 402720, Note_off_c, 10, 65, 64
11, 402720, Note_on_c, 10, 64, 40
11, 402816, Note_off_c, 10, 64, 64
11, 402840, Note_on_c, 10, 60, 40
11, 402840, Note_on_c, 10, 48, 40
11, 402936, Note_off_c, 10, 48, 64
11, 402936, Note_off_c, 10, 60, 64
11, 402960, Note_on_c, 10, 48, 40
11, 402960, Note_on_c, 10, 60, 40
11, 403056, Note_off_c, 10, 60, 64
11, 403056, Note_off_c, 10, 48, 64
11, 403080, Note_on_c, 10, 60, 40
11, 403080, Note_on_c, 10, 48, 40
11, 403176, Note_off_c, 10, 48, 64
11, 403176, Note_off_c, 10, 60, 64
11, 403200, Note_on_c, 10, 48, 40
11, 403200, Note_on_c, 10, 60, 40
11, 403296, Note_off_c, 10, 60, 64
11, 403296, Note_off_c, 10, 48, 64
11, 403320, Note_on_c, 10, 60, 40
11, 403320, Note_on_c, 10, 48, 40
11, 403416, Note_off_c, 10, 48, 64
11, 403416, Note_off_c, 10, 60, 64
11, 403440, Note_on_c, 10, 60, 40
11, 403440, Note_on_c, 10, 48, 40
11, 403536, Note_off_c, 10, 48, 64
11, 403536, Note_off_c, 10, 60, 64
11, 403560, Note_on_c, 10, 48, 40
11, 403560, Note_on_c, 10, 60, 40
11, 403656, Note_off_c, 10, 60, 64
11, 403656, Note_off_c, 10, 48, 64
11, 403680, Note_on_c, 10, 60, 40
11, 403680, Note_on_c, 10, 48, 40
11, 403776, Note_off_c, 10, 48, 64
11, 403776, Note_off_c, 10, 60, 64
11, 403800, Note_on_c, 10, 48, 40
11, 403800, Note_on_c, 10, 60, 40
11, 403896, Note_off_c, 10, 60, 64
11, 403896, Note_off_c, 10, 48, 64
11, 403920, Note_on_c, 10, 60, 40
11, 403920, Note_on_c, 10, 48, 40
11, 404016, Note_off_c, 10, 48, 64
11, 404016, Note_off_c, 10, 60, 64
11, 404040, Note_on_c, 10, 60, 40
11, 404040, Note_on_c, 10, 48, 40
11, 404136, Note_off_c, 10, 48, 64
11, 404136, Note_off_c, 10, 60, 64
11, 404160, Note_on_c, 10, 60, 40
11, 404160, Note_on_c, 10, 48, 40
11, 404256, Note_off_c, 10, 48, 64
11, 404256, Note_off_c, 10, 60, 64
11, 404280, Note_on_c, 10, 60, 40
11, 404280, Note_on_c, 10, 48, 40
11, 404376, Note_off_c, 10, 48, 64
11, 404376, Note_off_c, 10, 60, 64
11, 404400, Note_on_c, 10, 48, 40
11, 404400, Note_on_c, 10, 60, 40
11, 404496, Note_off_c, 10, 60, 64
11, 404496, Note_off_c, 10, 48, 64
11, 404520, Note_on_c, 10, 48, 40
11, 404520, Note_on_c, 10, 60, 40
11, 404616, Note_off_c, 10, 60, 64
11, 404616, Note_off_c, 10, 48, 64
11, 404640, Note_on_c, 10, 48, 40
11, 404640, Note_on_c, 10, 60, 40
11, 404736, Note_off_c, 10, 60, 64
11, 404736, Note_off_c, 10, 48, 64
11, 404760, Note_on_c, 10, 48, 40
11, 404760, Note_on_c, 10, 60, 40
11, 404856, Note_off_c, 10, 60, 64
11, 404856, Note_off_c, 10, 48, 64
11, 404880, Note_on_c, 10, 60, 40
11, 404880, Note_on_c, 10, 48, 40
11, 404976, Note_off_c, 10, 48, 64
11, 404976, Note_off_c, 10, 60, 64
11, 405000, Note_on_c, 10, 60, 40
11, 405000, Note_on_c, 10, 48, 40
11, 405096, Note_off_c, 10, 48, 64
11, 405096, Note_off_c, 10, 60, 64
11, 405120, Note_on_c, 10, 60, 40
11, 405120, Note_on_c, 10, 48, 40
11, 405216, Note_off_c, 10, 48, 64
11, 405216, Note_off_c, 10, 60, 64
11, 405240, Note_on_c, 10, 48, 40
11, 405240, Note_on_c, 10, 60, 40
11, 405336, Note_off_c, 10, 60, 64
11, 405336, Note_off_c, 10, 48, 64
11, 405360, Note_on_c, 10, 60, 40
11, 405360, Note_on_c, 10, 48, 40
11, 405456, Note_off_c, 10, 48, 64
11, 405456, Note_off_c, 10, 60, 64
11, 405480, Note_on_c, 10, 48, 40
11, 405480, Note_on_c, 10, 60, 40
11, 405576, Note_off_c, 10, 60, 64
11, 405576, Note_off_c, 10, 48, 64
11, 405600, Note_on_c, 10, 60, 40
11, 405600, Note_on_c, 10, 48, 40
11, 405696, Note_off_c, 10, 48, 64
11, 405696, Note_off_c, 10, 60, 64
11, 405720, Note_on_c, 10, 60, 40
11, 405720, Note_on_c, 10, 48, 40
11, 405816, Note_off_c, 10, 48, 64
11, 405816, Note_off_c, 10, 60, 64
11, 405840, Note_on_c, 10, 48, 40
11, 405840, Note_on_c, 10, 60, 40
11, 405936, Note_off_c, 10, 60, 64
11, 405936, Note_off_c, 10, 48, 64
11, 405960, Note_on_c, 10, 48, 40
11, 405960, Note_on_c, 10, 60, 40
11, 406056, Note_off_c, 10, 60, 64
11, 406056, Note_off_c, 10, 48, 64
11, 406080, Note_on_c, 10, 48, 40
11, 406080, Note_on_c, 10, 60, 40
11, 406176, Note_off_c, 10, 60, 64
11, 406176, Note_off_c, 10, 48, 64
11, 406200, Note_on_c, 10, 60, 40
11, 406200, Note_on_c, 10, 48, 40
11, 406296, Note_off_c, 10, 48, 64
11, 406296, Note_off_c, 10, 60, 64
11, 406320, Note_on_c, 10, 48, 40
11, 406320, Note_on_c, 10, 60, 40
11, 406416, Note_off_c, 10, 60, 64
11, 406416, Note_off_c, 10, 48, 64
11, 406440, Note_on_c, 10, 48, 40
11, 406440, Note_on_c, 10, 60, 40
11, 406536, Note_off_c, 10, 60, 64
11, 406536, Note_off_c, 10, 48, 64
11, 406560, Note_on_c, 10, 62, 40
11, 406656, Note_off_c, 10, 62, 64
11, 406680, Note_on_c, 10, 59, 40
11, 406776, Note_off_c, 10, 59, 64
11, 406800, Note_on_c, 10, 59, 40
11, 406896, Note_off_c, 10, 59, 64
11, 406920, Note_on_c, 10, 59, 40
11, 407016, Note_off_c, 10, 59, 64
11, 407040, Note_on_c, 10, 59, 40
11, 407136, Note_off_c, 10, 59, 64
11, 407160, Note_on_c, 10, 59, 40
11, 407256, Note_off_c, 10, 59, 64
11, 407280, Note_on_c, 10, 59, 40
11, 407376, Note_off_c, 10, 59, 64
11, 407400, Note_on_c, 10, 59, 40
11, 407496, Note_off_c, 10, 59, 64
11, 407520, Note_on_c, 10, 60, 40
11, 407616, Note_off_c, 10, 60, 64
11, 407640, Note_on_c, 10, 60, 40
11, 407736, Note_off_c, 10, 60, 64
11, 407760, Note_on_c, 10, 60, 40
11, 407856, Note_off_c, 10, 60, 64
11, 407880, Note_on_c, 10, 60, 40
11, 407976, Note_off_c, 10, 60, 64
11, 408000, Note_on_c, 10, 60, 40
11, 408096, Note_off_c, 10, 60, 64
11, 408120, Note_on_c, 10, 60, 40
11, 408216, Note_off_c, 10, 60, 64
11, 408240, Note_on_c, 10, 60, 40
11, 408336, Note_off_c, 10, 60, 64
11, 408360, Note_on_c, 10, 60, 40
11, 408456, Note_off_c, 10, 60, 64
11, 408480, Note_on_c, 10, 60, 40
11, 408576, Note_off_c, 10, 60, 64
11, 408600, Note_on_c, 10, 60, 40
11, 408696, Note_off_c, 10, 60, 64
11, 408720, Note_on_c, 10, 60, 40
11, 408816, Note_off_c, 10, 60, 64
11, 408840, Note_on_c, 10, 60, 40
11, 408936, Note_off_c, 10, 60, 64
11, 408960, Note_on_c, 10, 59, 40
11, 409056, Note_off_c, 10, 59, 64
11, 409080, Note_on_c, 10, 59, 40
11, 409176, Note_off_c, 10, 59, 64
11, 409200, Note_on_c, 10, 59, 40
11, 409296, Note_off_c, 10, 59, 64
11, 409320, Note_on_c, 10, 59, 40
11, 409416, Note_off_c, 10, 59, 64
11, 409440, Note_on_c, 10, 60, 34
11, 409440, Note_on_c, 10, 48, 34
11, 409536, Note_off_c, 10, 48, 64
11, 409536, Note_off_c, 10, 60, 64
11, 409560, Note_on_c, 10, 48, 34
11, 409560, Note_on_c, 10, 60, 34
11, 409656, Note_off_c, 10, 60, 64
11, 409656, Note_off_c, 10, 48, 64
11, 409680, Note_on_c, 10, 60, 34
11, 409680, Note_on_c, 10, 48, 34
11, 409776, Note_off_c, 10, 48, 64
11, 409776, Note_off_c, 10, 60, 64
11, 409800, Note_on_c, 10, 60, 34
11, 409800, Note_on_c, 10, 48, 34
11, 409896, Note_off_c, 10, 48, 64
11, 409896, Note_off_c, 10, 60, 64
11, 409920, Note_on_c, 10, 48, 34
11, 409920, Note_on_c, 10, 60, 34
11, 410016, Note_off_c, 10, 60, 64
11, 410016, Note_off_c, 10, 48, 64
11, 410040, Note_on_c, 10, 48, 34
11, 410040, Note_on_c, 10, 60, 34
11, 410136, Note_off_c, 10, 60, 64
11, 410136, Note_off_c, 10, 48, 64
11, 410160, Note_on_c, 10, 60, 34
11, 410160, Note_on_c, 10, 48, 34
11, 410256, Note_off_c, 10, 48, 64
11, 410256, Note_off_c, 10, 60, 64
11, 410280, Note_on_c, 10, 60, 34
11, 410280, Note_on_c, 10, 48, 34
11, 410376, Note_off_c, 10, 48, 64
11, 410376, Note_off_c, 10, 60, 64
11, 410400, Note_on_c, 10, 48, 34
11, 410400, Note_on_c, 10, 60, 34
11, 410496, Note_off_c, 10, 60, 64
11, 410496, Note_off_c, 10, 48, 64
11, 410520, Note_on_c, 10, 60, 34
11, 410520, Note_on_c, 10, 48, 34
11, 410616, Note_off_c, 10, 48, 64
11, 410616, Note_off_c, 10, 60, 64
11, 410640, Note_on_c, 10, 48, 34
11, 410640, Note_on_c, 10, 60, 34
11, 410736, Note_off_c, 10, 60, 64
11, 410736, Note_off_c, 10, 48, 64
11, 410760, Note_on_c, 10, 60, 34
11, 410760, Note_on_c, 10, 48, 34
11, 410856, Note_off_c, 10, 48, 64
11, 410856, Note_off_c, 10, 60, 64
11, 410880, Note_on_c, 10, 48, 34
11, 410880, Note_on_c, 10, 60, 34
11, 410976, Note_off_c, 10, 60, 64
11, 410976, Note_off_c, 10, 48, 64
11, 411000, Note_on_c, 10, 60, 34
11, 411000, Note_on_c, 10, 48, 34
11, 411096, Note_off_c, 10, 48, 64
11, 411096, Note_off_c, 10, 60, 64
11, 411120, Note_on_c, 10, 48, 34
11, 411120, Note_on_c, 10, 60, 34
11, 411216, Note_off_c, 10, 60, 64
11, 411216, Note_off_c, 10, 48, 64
11, 411240, Note_on_c, 10, 60, 34
11, 411240, Note_on_c, 10, 48, 34
11, 411336, Note_off_c, 10, 48, 64
11, 411336, Note_off_c, 10, 60, 64
11, 411360, Note_on_c, 10, 60, 34
11, 411360, Note_on_c, 10, 48, 34
11, 411456, Note_off_c, 10, 48, 64
11, 411456, Note_off_c, 10, 60, 64
11, 411480, Note_on_c, 10, 48, 34
11, 411480, Note_on_c, 10, 60, 34
11, 411576, Note_off_c, 10, 60, 64
11, 411576, Note_off_c, 10, 48, 64
11, 411600, Note_on_c, 10, 48, 34
11, 411600, Note_on_c, 10, 60, 34
11, 411696, Note_off_c, 10, 60, 64
11, 411696, Note_off_c, 10, 48, 64
11, 411720, Note_on_c, 10, 60, 34
11, 411720, Note_on_c, 10, 48, 34
11, 411816, Note_off_c, 10, 48, 64
11, 411816, Note_off_c, 10, 60, 64
11, 411840, Note_on_c, 10, 60, 34
11, 411840, Note_on_c, 10, 48, 34
11, 411936, Note_off_c, 10, 48, 64
11, 411936, Note_off_c, 10, 60, 64
11, 411960, Note_on_c, 10, 60, 34
11, 411960, Note_on_c, 10, 48, 34
11, 412056, Note_off_c, 10, 48, 64
11, 412056, Note_off_c, 10, 60, 64
11, 412080, Note_on_c, 10, 48, 34
11, 412080, Note_on_c, 10, 60, 34
11, 412176, Note_off_c, 10, 60, 64
11, 412176, Note_off_c, 10, 48, 64
11, 412200, Note_on_c, 10, 48, 34
11, 412200, Note_on_c, 10, 60, 34
11, 412296, Note_off_c, 10, 60, 64
11, 412296, Note_off_c, 10, 48, 64
11, 412320, Note_on_c, 10, 48, 34
11, 412320, Note_on_c, 10, 60, 34
11, 412416, Note_off_c, 10, 60, 64
11, 412416, Note_off_c, 10, 48, 64
11, 412440, Note_on_c, 10, 60, 34
11, 412440, Note_on_c, 10, 48, 34
11, 412536, Note_off_c, 10, 48, 64
11, 412536, Note_off_c, 10, 60, 64
11, 412560, Note_on_c, 10, 48, 34
11, 412560, Note_on_c, 10, 60, 34
11, 412656, Note_off_c, 10, 60, 64
11, 412656, Note_off_c, 10, 48, 64
11, 412680, Note_on_c, 10, 60, 34
11, 412680, Note_on_c, 10, 48, 34
11, 412776, Note_off_c, 10, 48, 64
11, 412776, Note_off_c, 10, 60, 64
11, 412800, Note_on_c, 10, 48, 34
11, 412800, Note_on_c, 10, 60, 34
11, 412896, Note_off_c, 10, 60, 64
11, 412896, Note_off_c, 10, 48, 64
11, 412920, Note_on_c, 10, 60, 34
11, 412920, Note_on_c, 10, 48, 34
11, 413016, Note_off_c, 10, 48, 64
11, 413016, Note_off_c, 10, 60, 64
11, 413040, Note_on_c, 10, 60, 34
11, 413040, Note_on_c, 10, 48, 34
11, 413136, Note_off_c, 10, 48, 64
11, 413136, Note_off_c, 10, 60, 64
11, 413160, Note_on_c, 10, 60, 34
11, 413160, Note_on_c, 10, 48, 34
11, 413256, Note_off_c, 10, 48, 64
11, 413256, Note_off_c, 10, 60, 64
11, 413280, Note_on_c, 10, 60, 34
11, 413280, Note_on_c, 10, 48, 34
11, 413376, Note_off_c, 10, 48, 64
11, 413376, Note_off_c, 10, 60, 64
11, 413400, Note_on_c, 10, 48, 34
11, 413400, Note_on_c, 10, 60, 34
11, 413496, Note_off_c, 10, 60, 64
11, 413496, Note_off_c, 10, 48, 64
11, 413520, Note_on_c, 10, 60, 34
11, 413520, Note_on_c, 10, 48, 34
11, 413616, Note_off_c, 10, 48, 64
11, 413616, Note_off_c, 10, 60, 64
11, 413640, Note_on_c, 10, 48, 34
11, 413640, Note_on_c, 10, 60, 34
11, 413736, Note_off_c, 10, 60, 64
11, 413736, Note_off_c, 10, 48, 64
11, 413760, Note_on_c, 10, 48, 34
11, 413760, Note_on_c, 10, 60, 34
11, 413856, Note_off_c, 10, 60, 64
11, 413856, Note_off_c, 10, 48, 64
11, 413880, Note_on_c, 10, 48, 34
11, 413880, Note_on_c, 10, 60, 34
11, 413976, Note_off_c, 10, 60, 64
11, 413976, Note_off_c, 10, 48, 64
11, 414000, Note_on_c, 10, 48, 34
11, 414000, Note_on_c, 10, 60, 34
11, 414096, Note_off_c, 10, 60, 64
11, 414096, Note_off_c, 10, 48, 64
11, 414120, Note_on_c, 10, 48, 34
11, 414120, Note_on_c, 10, 60, 34
11, 414216, Note_off_c, 10, 60, 64
11, 414216, Note_off_c, 10, 48, 64
11, 414240, Note_on_c, 10, 65, 30
11, 414240, Note_on_c, 10, 62, 30
11, 414336, Note_off_c, 10, 62, 64
11, 414336, Note_off_c, 10, 65, 64
11, 414360, Note_on_c, 10, 65, 30
11, 414360, Note_on_c, 10, 62, 30
11, 414456, Note_off_c, 10, 62, 64
11, 414456, Note_off_c, 10, 65, 64
11, 414480, Note_on_c, 10, 65, 30
11, 414480, Note_on_c, 10, 62, 30
11, 414576, Note_off_c, 10, 62, 64
11, 414576, Note_off_c, 10, 65, 64
11, 414600, Note_on_c, 10, 62, 30
11, 414600, Note_on_c, 10, 65, 30
11, 414696, Note_off_c, 10, 65, 64
11, 414696, Note_off_c, 10, 62, 64
11, 414720, Note_on_c, 10, 65, 30
11, 414720, Note_on_c, 10, 62, 30
11, 414816, Note_off_c, 10, 62, 64
11, 414816, Note_off_c, 10, 65, 64
11, 414840, Note_on_c, 10, 65, 30
11, 414840, Note_on_c, 10, 62, 30
11, 414936, Note_off_c, 10, 62, 64
11, 414936, Note_off_c, 10, 65, 64
11, 414960, Note_on_c, 10, 62, 30
11, 414960, Note_on_c, 10, 65, 30
11, 415056, Note_off_c, 10, 65, 64
11, 415056, Note_off_c, 10, 62, 64
11, 415080, Note_on_c, 10, 65, 30
11, 415080, Note_on_c, 10, 62, 30
11, 415176, Note_off_c, 10, 62, 64
11, 415176, Note_off_c, 10, 65, 64
11, 415200, Note_on_c, 10, 62, 30
11, 415200, Note_on_c, 10, 65, 30
11, 415296, Note_off_c, 10, 65, 64
11, 415296, Note_off_c, 10, 62, 64
11, 415320, Note_on_c, 10, 62, 30
11, 415320, Note_on_c, 10, 65, 30
11, 415416, Note_off_c, 10, 65, 64
11, 415416, Note_off_c, 10, 62, 64
11, 415440, Note_on_c, 10, 62, 30
11, 415440, Note_on_c, 10, 65, 30
11, 415536, Note_off_c, 10, 65, 64
11, 415536, Note_off_c, 10, 62, 64
11, 415560, Note_on_c, 10, 62, 30
11, 415560, Note_on_c, 10, 65, 30
11, 415656, Note_off_c, 10, 65, 64
11, 415656, Note_off_c, 10, 62, 64
11, 415680, Note_on_c, 10, 65, 30
11, 415680, Note_on_c, 10, 62, 30
11, 415776, Note_off_c, 10, 62, 64
11, 415776, Note_off_c, 10, 65, 64
11, 415800, Note_on_c, 10, 62, 30
11, 415800, Note_on_c, 10, 65, 30
11, 415896, Note_off_c, 10, 65, 64
11, 415896, Note_off_c, 10, 62, 64
11, 415920, Note_on_c, 10, 62, 30
11, 415920, Note_on_c, 10, 65, 30
11, 416016, Note_off_c, 10, 65, 64
11, 416016, Note_off_c, 10, 62, 64
11, 416040, Note_on_c, 10, 62, 30
11, 416040, Note_on_c, 10, 65, 30
11, 416136, Note_off_c, 10, 65, 64
11, 416136, Note_off_c, 10, 62, 64
11, 416160, Note_on_c, 10, 63, 30
11, 416160, Note_on_c, 10, 60, 30
11, 416256, Note_off_c, 10, 60, 64
11, 416256, Note_off_c, 10, 63, 64
11, 416280, Note_on_c, 10, 63, 30
11, 416280, Note_on_c, 10, 60, 30
11, 416376, Note_off_c, 10, 60, 64
11, 416376, Note_off_c, 10, 63, 64
11, 416400, Note_on_c, 10, 63, 30
11, 416400, Note_on_c, 10, 60, 30
11, 416496, Note_off_c, 10, 60, 64
11, 416496, Note_off_c, 10, 63, 64
11, 416520, Note_on_c, 10, 63, 30
11, 416520, Note_on_c, 10, 60, 30
11, 416616, Note_off_c, 10, 60, 64
11, 416616, Note_off_c, 10, 63, 64
11, 416640, Note_on_c, 10, 63, 30
11, 416640, Note_on_c, 10, 60, 30
11, 416736, Note_off_c, 10, 60, 64
11, 416736, Note_off_c, 10, 63, 64
11, 416760, Note_on_c, 10, 60, 30
11, 416760, Note_on_c, 10, 63, 30
11, 416856, Note_off_c, 10, 63, 64
11, 416856, Note_off_c, 10, 60, 64
11, 416880, Note_on_c, 10, 60, 30
11, 416880, Note_on_c, 10, 63, 30
11, 416976, Note_off_c, 10, 63, 64
11, 416976, Note_off_c, 10, 60, 64
11, 417000, Note_on_c, 10, 60, 30
11, 417000, Note_on_c, 10, 63, 30
11, 417096, Note_off_c, 10, 63, 64
11, 417096, Note_off_c, 10, 60, 64
11, 417120, Note_on_c, 10, 63, 30
11, 417120, Note_on_c, 10, 60, 30
11, 417216, Note_off_c, 10, 60, 64
11, 417216, Note_off_c, 10, 63, 64
11, 417240, Note_on_c, 10, 63, 30
11, 417240, Note_on_c, 10, 60, 30
11, 417336, Note_off_c, 10, 60, 64
11, 417336, Note_off_c, 10, 63, 64
11, 417360, Note_on_c, 10, 60, 30
11, 417360, Note_on_c, 10, 63, 30
11, 417456, Note_off_c, 10, 63, 64
11, 417456, Note_off_c, 10, 60, 64
11, 417480, Note_on_c, 10, 60, 30
11, 417480, Note_on_c, 10, 63, 30
11, 417576, Note_off_c, 10, 63, 64
11, 417576, Note_off_c, 10, 60, 64
11, 417600, Note_on_c, 10, 60, 30
11, 417600, Note_on_c, 10, 63, 30
11, 417696, Note_off_c, 10, 63, 64
11, 417696, Note_off_c, 10, 60, 64
11, 417720, Note_on_c, 10, 63, 30
11, 417720, Note_on_c, 10, 60, 30
11, 417816, Note_off_c, 10, 60, 64
11, 417816, Note_off_c, 10, 63, 64
11, 417840, Note_on_c, 10, 60, 30
11, 417840, Note_on_c, 10, 63, 30
11, 417936, Note_off_c, 10, 63, 64
11, 417936, Note_off_c, 10, 60, 64
11, 417960, Note_on_c, 10, 60, 30
11, 417960, Note_on_c, 10, 63, 30
11, 418056, Note_off_c, 10, 63, 64
11, 418056, Note_off_c, 10, 60, 64
11, 418080, Note_on_c, 10, 63, 30
11, 418080, Note_on_c, 10, 66, 30
11, 418176, Note_off_c, 10, 66, 64
11, 418176, Note_off_c, 10, 63, 64
11, 418200, Note_on_c, 10, 66, 30
11, 418200, Note_on_c, 10, 63, 30
11, 418296, Note_off_c, 10, 63, 64
11, 418296, Note_off_c, 10, 66, 64
11, 418320, Note_on_c, 10, 63, 30
11, 418320, Note_on_c, 10, 66, 30
11, 418416, Note_off_c, 10, 66, 64
11, 418416, Note_off_c, 10, 63, 64
11, 418440, Note_on_c, 10, 63, 30
11, 418440, Note_on_c, 10, 66, 30
11, 418536, Note_off_c, 10, 66, 64
11, 418536, Note_off_c, 10, 63, 64
11, 418560, Note_on_c, 10, 66, 30
11, 418560, Note_on_c, 10, 63, 30
11, 418656, Note_off_c, 10, 63, 64
11, 418656, Note_off_c, 10, 66, 64
11, 418680, Note_on_c, 10, 63, 30
11, 418680, Note_on_c, 10, 66, 30
11, 418776, Note_off_c, 10, 66, 64
11, 418776, Note_off_c, 10, 63, 64
11, 418800, Note_on_c, 10, 63, 30
11, 418800, Note_on_c, 10, 66, 30
11, 418896, Note_off_c, 10, 66, 64
11, 418896, Note_off_c, 10, 63, 64
11, 418920, Note_on_c, 10, 63, 30
11, 418920, Note_on_c, 10, 66, 30
11, 419016, Note_off_c, 10, 66, 64
11, 419016, Note_off_c, 10, 63, 64
11, 419040, Note_on_c, 10, 63, 30
11, 419040, Note_on_c, 10, 66, 30
11, 419136, Note_off_c, 10, 66, 64
11, 419136, Note_off_c, 10, 63, 64
11, 419160, Note_on_c, 10, 63, 30
11, 419160, Note_on_c, 10, 66, 30
11, 419256, Note_off_c, 10, 66, 64
11, 419256, Note_off_c, 10, 63, 64
11, 419280, Note_on_c, 10, 63, 30
11, 419280, Note_on_c, 10, 66, 30
11, 419376, Note_off_c, 10, 66, 64
11, 419376, Note_off_c, 10, 63, 64
11, 419400, Note_on_c, 10, 63, 30
11, 419400, Note_on_c, 10, 66, 30
11, 419496, Note_off_c, 10, 66, 64
11, 419496, Note_off_c, 10, 63, 64
11, 419520, Note_on_c, 10, 63, 30
11, 419520, Note_on_c, 10, 66, 30
11, 419616, Note_off_c, 10, 66, 64
11, 419616, Note_off_c, 10, 63, 64
11, 419640, Note_on_c, 10, 66, 30
11, 419640, Note_on_c, 10, 63, 30
11, 419736, Note_off_c, 10, 63, 64
11, 419736, Note_off_c, 10, 66, 64
11, 419760, Note_on_c, 10, 63, 30
11, 419760, Note_on_c, 10, 66, 30
11, 419856, Note_off_c, 10, 66, 64
11, 419856, Note_off_c, 10, 63, 64
11, 419880, Note_on_c, 10, 63, 30
11, 419880, Note_on_c, 10, 66, 30
11, 419976, Note_off_c, 10, 66, 64
11, 419976, Note_off_c, 10, 63, 64
11, 420000, Note_on_c, 10, 61, 30
11, 420000, Note_on_c, 10, 65, 30
11, 420096, Note_off_c, 10, 65, 64
11, 420096, Note_off_c, 10, 61, 64
11, 420120, Note_on_c, 10, 61, 30
11, 420120, Note_on_c, 10, 65, 30
11, 420216, Note_off_c, 10, 65, 64
11, 420216, Note_off_c, 10, 61, 64
11, 420240, Note_on_c, 10, 61, 30
11, 420240, Note_on_c, 10, 65, 30
11, 420336, Note_off_c, 10, 65, 64
11, 420336, Note_off_c, 10, 61, 64
11, 420360, Note_on_c, 10, 61, 30
11, 420360, Note_on_c, 10, 65, 30
11, 420456, Note_off_c, 10, 65, 64
11, 420456, Note_off_c, 10, 61, 64
11, 420480, Note_on_c, 10, 65, 30
11, 420480, Note_on_c, 10, 61, 30
11, 420576, Note_off_c, 10, 61, 64
11, 420576, Note_off_c, 10, 65, 64
11, 420600, Note_on_c, 10, 61, 30
11, 420600, Note_on_c, 10, 65, 30
11, 420696, Note_off_c, 10, 65, 64
11, 420696, Note_off_c, 10, 61, 64
11, 420720, Note_on_c, 10, 61, 30
11, 420720, Note_on_c, 10, 65, 30
11, 420816, Note_off_c, 10, 65, 64
11, 420816, Note_off_c, 10, 61, 64
11, 420840, Note_on_c, 10, 65, 30
11, 420840, Note_on_c, 10, 61, 30
11, 420936, Note_off_c, 10, 61, 64
11, 420936, Note_off_c, 10, 65, 64
11, 420960, Note_on_c, 10, 61, 30
11, 420960, Note_on_c, 10, 65, 30
11, 421056, Note_off_c, 10, 65, 64
11, 421056, Note_off_c, 10, 61, 64
11, 421080, Note_on_c, 10, 61, 30
11, 421080, Note_on_c, 10, 65, 30
11, 421176, Note_off_c, 10, 65, 64
11, 421176, Note_off_c, 10, 61, 64
11, 421200, Note_on_c, 10, 61, 30
11, 421200, Note_on_c, 10, 65, 30
11, 421296, Note_off_c, 10, 65, 64
11, 421296, Note_off_c, 10, 61, 64
11, 421320, Note_on_c, 10, 65, 30
11, 421320, Note_on_c, 10, 61, 30
11, 421416, Note_off_c, 10, 61, 64
11, 421416, Note_off_c, 10, 65, 64
11, 421440, Note_on_c, 10, 61, 30
11, 421440, Note_on_c, 10, 65, 30
11, 421536, Note_off_c, 10, 65, 64
11, 421536, Note_off_c, 10, 61, 64
11, 421560, Note_on_c, 10, 61, 30
11, 421560, Note_on_c, 10, 65, 30
11, 421656, Note_off_c, 10, 65, 64
11, 421656, Note_off_c, 10, 61, 64
11, 421680, Note_on_c, 10, 61, 30
11, 421680, Note_on_c, 10, 65, 30
11, 421776, Note_off_c, 10, 65, 64
11, 421776, Note_off_c, 10, 61, 64
11, 421800, Note_on_c, 10, 65, 30
11, 421800, Note_on_c, 10, 61, 30
11, 421896, Note_off_c, 10, 61, 64
11, 421896, Note_off_c, 10, 65, 64
11, 421920, Note_on_c, 10, 56, 30
11, 421920, Note_on_c, 10, 53, 30
11, 422016, Note_off_c, 10, 53, 64
11, 422016, Note_off_c, 10, 56, 64
11, 422040, Note_on_c, 10, 53, 30
11, 422040, Note_on_c, 10, 56, 30
11, 422136, Note_off_c, 10, 56, 64
11, 422136, Note_off_c, 10, 53, 64
11, 422160, Note_on_c, 10, 53, 30
11, 422160, Note_on_c, 10, 56, 30
11, 422256, Note_off_c, 10, 56, 64
11, 422256, Note_off_c, 10, 53, 64
11, 422280, Note_on_c, 10, 56, 30
11, 422280, Note_on_c, 10, 53, 30
11, 422376, Note_off_c, 10, 53, 64
11, 422376, Note_off_c, 10, 56, 64
11, 422400, Note_on_c, 10, 53, 30
11, 422400, Note_on_c, 10, 56, 30
11, 422496, Note_off_c, 10, 56, 64
11, 422496, Note_off_c, 10, 53, 64
11, 422520, Note_on_c, 10, 56, 30
11, 422520, Note_on_c, 10, 53, 30
11, 422616, Note_off_c, 10, 53, 64
11, 422616, Note_off_c, 10, 56, 64
11, 422640, Note_on_c, 10, 53, 30
11, 422640, Note_on_c, 10, 56, 30
11, 422736, Note_off_c, 10, 56, 64
11, 422736, Note_off_c, 10, 53, 64
11, 422760, Note_on_c, 10, 53, 30
11, 422760, Note_on_c, 10, 56, 30
11, 422856, Note_off_c, 10, 56, 64
11, 422856, Note_off_c, 10, 53, 64
11, 422880, Note_on_c, 10, 53, 30
11, 422880, Note_on_c, 10, 56, 30
11, 422976, Note_off_c, 10, 56, 64
11, 422976, Note_off_c, 10, 53, 64
11, 423000, Note_on_c, 10, 53, 30
11, 423000, Note_on_c, 10, 56, 30
11, 423096, Note_off_c, 10, 56, 64
11, 423096, Note_off_c, 10, 53, 64
11, 423120, Note_on_c, 10, 56, 30
11, 423120, Note_on_c, 10, 53, 30
11, 423216, Note_off_c, 10, 53, 64
11, 423216, Note_off_c, 10, 56, 64
11, 423240, Note_on_c, 10, 53, 30
11, 423240, Note_on_c, 10, 56, 30
11, 423336, Note_off_c, 10, 56, 64
11, 423336, Note_off_c, 10, 53, 64
11, 423360, Note_on_c, 10, 56, 30
11, 423360, Note_on_c, 10, 53, 30
11, 423456, Note_off_c, 10, 53, 64
11, 423456, Note_off_c, 10, 56, 64
11, 423480, Note_on_c, 10, 56, 30
11, 423480, Note_on_c, 10, 53, 30
11, 423576, Note_off_c, 10, 53, 64
11, 423576, Note_off_c, 10, 56, 64
11, 423600, Note_on_c, 10, 53, 30
11, 423600, Note_on_c, 10, 56, 30
11, 423696, Note_off_c, 10, 56, 64
11, 423696, Note_off_c, 10, 53, 64
11, 423720, Note_on_c, 10, 53, 30
11, 423720, Note_on_c, 10, 56, 30
11, 423816, Note_off_c, 10, 56, 64
11, 423816, Note_off_c, 10, 53, 64
11, 423840, Note_on_c, 10, 54, 30
11, 423840, Note_on_c, 10, 51, 30
11, 423936, Note_off_c, 10, 51, 64
11, 423936, Note_off_c, 10, 54, 64
11, 423960, Note_on_c, 10, 51, 30
11, 423960, Note_on_c, 10, 54, 30
11, 424056, Note_off_c, 10, 54, 64
11, 424056, Note_off_c, 10, 51, 64
11, 424080, Note_on_c, 10, 54, 30
11, 424080, Note_on_c, 10, 51, 30
11, 424176, Note_off_c, 10, 51, 64
11, 424176, Note_off_c, 10, 54, 64
11, 424200, Note_on_c, 10, 51, 30
11, 424200, Note_on_c, 10, 54, 30
11, 424296, Note_off_c, 10, 54, 64
11, 424296, Note_off_c, 10, 51, 64
11, 424320, Note_on_c, 10, 54, 30
11, 424320, Note_on_c, 10, 51, 30
11, 424416, Note_off_c, 10, 51, 64
11, 424416, Note_off_c, 10, 54, 64
11, 424440, Note_on_c, 10, 54, 30
11, 424440, Note_on_c, 10, 51, 30
11, 424536, Note_off_c, 10, 51, 64
11, 424536, Note_off_c, 10, 54, 64
11, 424560, Note_on_c, 10, 51, 30
11, 424560, Note_on_c, 10, 54, 30
11, 424656, Note_off_c, 10, 54, 64
11, 424656, Note_off_c, 10, 51, 64
11, 424680, Note_on_c, 10, 54, 30
11, 424680, Note_on_c, 10, 51, 30
11, 424776, Note_off_c, 10, 51, 64
11, 424776, Note_off_c, 10, 54, 64
11, 424800, Note_on_c, 10, 51, 30
11, 424800, Note_on_c, 10, 54, 30
11, 424896, Note_off_c, 10, 54, 64
11, 424896, Note_off_c, 10, 51, 64
11, 424920, Note_on_c, 10, 54, 30
11, 424920, Note_on_c, 10, 51, 30
11, 425016, Note_off_c, 10, 51, 64
11, 425016, Note_off_c, 10, 54, 64
11, 425040, Note_on_c, 10, 54, 30
11, 425040, Note_on_c, 10, 51, 30
11, 425136, Note_off_c, 10, 51, 64
11, 425136, Note_off_c, 10, 54, 64
11, 425160, Note_on_c, 10, 51, 30
11, 425160, Note_on_c, 10, 54, 30
11, 425256, Note_off_c, 10, 54, 64
11, 425256, Note_off_c, 10, 51, 64
11, 425280, Note_on_c, 10, 54, 30
11, 425280, Note_on_c, 10, 51, 30
11, 425376, Note_off_c, 10, 51, 64
11, 425376, Note_off_c, 10, 54, 64
11, 425400, Note_on_c, 10, 51, 30
11, 425400, Note_on_c, 10, 54, 30
11, 425496, Note_off_c, 10, 54, 64
11, 425496, Note_off_c, 10, 51, 64
11, 425520, Note_on_c, 10, 51, 30
11, 425520, Note_on_c, 10, 54, 30
11, 425616, Note_off_c, 10, 54, 64
11, 425616, Note_off_c, 10, 51, 64
11, 425640, Note_on_c, 10, 51, 30
11, 425640, Note_on_c, 10, 54, 30
11, 425736, Note_off_c, 10, 54, 64
11, 425736, Note_off_c, 10, 51, 64
11, 425760, Note_on_c, 10, 58, 30
11, 425760, Note_on_c, 10, 54, 30
11, 425856, Note_off_c, 10, 54, 64
11, 425856, Note_off_c, 10, 58, 64
11, 425880, Note_on_c, 10, 54, 30
11, 425880, Note_on_c, 10, 58, 30
11, 425976, Note_off_c, 10, 58, 64
11, 425976, Note_off_c, 10, 54, 64
11, 426000, Note_on_c, 10, 54, 30
11, 426000, Note_on_c, 10, 58, 30
11, 426096, Note_off_c, 10, 58, 64
11, 426096, Note_off_c, 10, 54, 64
11, 426120, Note_on_c, 10, 54, 30
11, 426120, Note_on_c, 10, 58, 30
11, 426216, Note_off_c, 10, 58, 64
11, 426216, Note_off_c, 10, 54, 64
11, 426240, Note_on_c, 10, 58, 30
11, 426240, Note_on_c, 10, 54, 30
11, 426336, Note_off_c, 10, 54, 64
11, 426336, Note_off_c, 10, 58, 64
11, 426360, Note_on_c, 10, 58, 30
11, 426360, Note_on_c, 10, 54, 30
11, 426456, Note_off_c, 10, 54, 64
11, 426456, Note_off_c, 10, 58, 64
11, 426480, Note_on_c, 10, 54, 30
11, 426480, Note_on_c, 10, 58, 30
11, 426576, Note_off_c, 10, 58, 64
11, 426576, Note_off_c, 10, 54, 64
11, 426600, Note_on_c, 10, 58, 30
11, 426600, Note_on_c, 10, 54, 30
11, 426696, Note_off_c, 10, 54, 64
11, 426696, Note_off_c, 10, 58, 64
11, 426720, Note_on_c, 10, 54, 30
11, 426720, Note_on_c, 10, 58, 30
11, 426816, Note_off_c, 10, 58, 64
11, 426816, Note_off_c, 10, 54, 64
11, 426840, Note_on_c, 10, 58, 30
11, 426840, Note_on_c, 10, 54, 30
11, 426936, Note_off_c, 10, 54, 64
11, 426936, Note_off_c, 10, 58, 64
11, 426960, Note_on_c, 10, 58, 30
11, 426960, Note_on_c, 10, 54, 30
11, 427056, Note_off_c, 10, 54, 64
11, 427056, Note_off_c, 10, 58, 64
11, 427080, Note_on_c, 10, 54, 30
11, 427080, Note_on_c, 10, 58, 30
11, 427176, Note_off_c, 10, 58, 64
11, 427176, Note_off_c, 10, 54, 64
11, 427200, Note_on_c, 10, 58, 30
11, 427200, Note_on_c, 10, 54, 30
11, 427296, Note_off_c, 10, 54, 64
11, 427296, Note_off_c, 10, 58, 64
11, 427320, Note_on_c, 10, 58, 30
11, 427320, Note_on_c, 10, 54, 30
11, 427416, Note_off_c, 10, 54, 64
11, 427416, Note_off_c, 10, 58, 64
11, 427440, Note_on_c, 10, 54, 30
11, 427440, Note_on_c, 10, 58, 30
11, 427536, Note_off_c, 10, 58, 64
11, 427536, Note_off_c, 10, 54, 64
11, 427560, Note_on_c, 10, 54, 30
11, 427560, Note_on_c, 10, 58, 30
11, 427656, Note_off_c, 10, 58, 64
11, 427656, Note_off_c, 10, 54, 64
11, 427680, Note_on_c, 10, 56, 30
11, 427680, Note_on_c, 10, 53, 30
11, 427776, Note_off_c, 10, 53, 64
11, 427776, Note_off_c, 10, 56, 64
11, 427800, Note_on_c, 10, 53, 30
11, 427800, Note_on_c, 10, 56, 30
11, 427896, Note_off_c, 10, 56, 64
11, 427896, Note_off_c, 10, 53, 64
11, 427920, Note_on_c, 10, 56, 30
11, 427920, Note_on_c, 10, 53, 30
11, 428016, Note_off_c, 10, 53, 64
11, 428016, Note_off_c, 10, 56, 64
11, 428040, Note_on_c, 10, 53, 30
11, 428040, Note_on_c, 10, 56, 30
11, 428136, Note_off_c, 10, 56, 64
11, 428136, Note_off_c, 10, 53, 64
11, 428160, Note_on_c, 10, 56, 30
11, 428160, Note_on_c, 10, 53, 30
11, 428256, Note_off_c, 10, 53, 64
11, 428256, Note_off_c, 10, 56, 64
11, 428280, Note_on_c, 10, 53, 30
11, 428280, Note_on_c, 10, 56, 30
11, 428376, Note_off_c, 10, 56, 64
11, 428376, Note_off_c, 10, 53, 64
11, 428400, Note_on_c, 10, 56, 30
11, 428400, Note_on_c, 10, 53, 30
11, 428496, Note_off_c, 10, 53, 64
11, 428496, Note_off_c, 10, 56, 64
11, 428520, Note_on_c, 10, 56, 30
11, 428520, Note_on_c, 10, 53, 30
11, 428616, Note_off_c, 10, 53, 64
11, 428616, Note_off_c, 10, 56, 64
11, 428640, Note_on_c, 10, 53, 34
11, 428640, Note_on_c, 10, 49, 34
11, 428736, Note_off_c, 10, 49, 64
11, 428736, Note_off_c, 10, 53, 64
11, 428760, Note_on_c, 10, 53, 35
11, 428760, Note_on_c, 10, 49, 35
11, 428856, Note_off_c, 10, 49, 64
11, 428856, Note_off_c, 10, 53, 64
11, 428880, Note_on_c, 10, 49, 36
11, 428880, Note_on_c, 10, 53, 36
11, 428976, Note_off_c, 10, 53, 64
11, 428976, Note_off_c, 10, 49, 64
11, 429000, Note_on_c, 10, 49, 38
11, 429000, Note_on_c, 10, 53, 38
11, 429096, Note_off_c, 10, 53, 64
11, 429096, Note_off_c, 10, 49, 64
11, 429120, Note_on_c, 10, 49, 39
11, 429120, Note_on_c, 10, 53, 39
11, 429216, Note_off_c, 10, 53, 64
11, 429216, Note_off_c, 10, 49, 64
11, 429240, Note_on_c, 10, 49, 40
11, 429240, Note_on_c, 10, 53, 40
11, 429336, Note_off_c, 10, 53, 64
11, 429336, Note_off_c, 10, 49, 64
11, 429360, Note_on_c, 10, 49, 42
11, 429360, Note_on_c, 10, 53, 42
11, 429456, Note_off_c, 10, 53, 64
11, 429456, Note_off_c, 10, 49, 64
11, 429480, Note_on_c, 10, 49, 43
11, 429480, Note_on_c, 10, 53, 43
11, 429576, Note_off_c, 10, 53, 64
11, 429576, Note_off_c, 10, 49, 64
11, 429600, Note_on_c, 10, 53, 45
11, 429600, Note_on_c, 10, 49, 45
11, 429696, Note_off_c, 10, 49, 64
11, 429696, Note_off_c, 10, 53, 64
11, 429720, Note_on_c, 10, 53, 46
11, 429720, Note_on_c, 10, 49, 46
11, 429816, Note_off_c, 10, 49, 64
11, 429816, Note_off_c, 10, 53, 64
11, 429840, Note_on_c, 10, 49, 47
11, 429840, Note_on_c, 10, 53, 47
11, 429936, Note_off_c, 10, 53, 64
11, 429936, Note_off_c, 10, 49, 64
11, 429960, Note_on_c, 10, 49, 49
11, 429960, Note_on_c, 10, 53, 49
11, 430056, Note_off_c, 10, 53, 64
11, 430056, Note_off_c, 10, 49, 64
11, 430080, Note_on_c, 10, 49, 50
11, 430080, Note_on_c, 10, 53, 50
11, 430176, Note_off_c, 10, 53, 64
11, 430176, Note_off_c, 10, 49, 64
11, 430200, Note_on_c, 10, 49, 51
11, 430200, Note_on_c, 10, 53, 51
11, 430296, Note_off_c, 10, 53, 64
11, 430296, Note_off_c, 10, 49, 64
11, 430320, Note_on_c, 10, 53, 53
11, 430320, Note_on_c, 10, 49, 53
11, 430416, Note_off_c, 10, 49, 64
11, 430416, Note_off_c, 10, 53, 64
11, 430440, Note_on_c, 10, 49, 54
11, 430440, Note_on_c, 10, 53, 54
11, 430536, Note_off_c, 10, 53, 64
11, 430536, Note_off_c, 10, 49, 64
11, 430560, Note_on_c, 10, 50, 55
11, 430560, Note_on_c, 10, 53, 55
11, 430656, Note_off_c, 10, 53, 64
11, 430656, Note_off_c, 10, 50, 64
11, 430680, Note_on_c, 10, 50, 57
11, 430680, Note_on_c, 10, 53, 57
11, 430776, Note_off_c, 10, 53, 64
11, 430776, Note_off_c, 10, 50, 64
11, 430800, Note_on_c, 10, 50, 58
11, 430800, Note_on_c, 10, 53, 58
11, 430896, Note_off_c, 10, 53, 64
11, 430896, Note_off_c, 10, 50, 64
11, 430920, Note_on_c, 10, 53, 60
11, 430920, Note_on_c, 10, 50, 60
11, 431016, Note_off_c, 10, 50, 64
11, 431016, Note_off_c, 10, 53, 64
11, 431040, Note_on_c, 10, 53, 61
11, 431040, Note_on_c, 10, 50, 61
11, 431136, Note_off_c, 10, 50, 64
11, 431136, Note_off_c, 10, 53, 64
11, 431160, Note_on_c, 10, 53, 62
11, 431160, Note_on_c, 10, 50, 62
11, 431256, Note_off_c, 10, 50, 64
11, 431256, Note_off_c, 10, 53, 64
11, 431280, Note_on_c, 10, 53, 64
11, 431280, Note_on_c, 10, 50, 64
11, 431376, Note_off_c, 10, 50, 64
11, 431376, Note_off_c, 10, 53, 64
11, 431400, Note_on_c, 10, 50, 65
11, 431400, Note_on_c, 10, 53, 65
11, 431496, Note_off_c, 10, 53, 64
11, 431496, Note_off_c, 10, 50, 64
11, 431520, Note_on_c, 10, 50, 66
11, 431520, Note_on_c, 10, 53, 66
11, 431616, Note_off_c, 10, 53, 64
11, 431616, Note_off_c, 10, 50, 64
11, 431640, Note_on_c, 10, 53, 68
11, 431640, Note_on_c, 10, 50, 68
11, 431736, Note_off_c, 10, 50, 64
11, 431736, Note_off_c, 10, 53, 64
11, 431760, Note_on_c, 10, 53, 69
11, 431760, Note_on_c, 10, 50, 69
11, 431856, Note_off_c, 10, 50, 64
11, 431856, Note_off_c, 10, 53, 64
11, 431880, Note_on_c, 10, 53, 70
11, 431880, Note_on_c, 10, 50, 70
11, 431976, Note_off_c, 10, 50, 64
11, 431976, Note_off_c, 10, 53, 64
11, 432000, Note_on_c, 10, 50, 72
11, 432000, Note_on_c, 10, 53, 72
11, 432096, Note_off_c, 10, 53, 64
11, 432096, Note_off_c, 10, 50, 64
11, 432120, Note_on_c, 10, 50, 73
11, 432120, Note_on_c, 10, 53, 73
11, 432216, Note_off_c, 10, 53, 64
11, 432216, Note_off_c, 10, 50, 64
11, 432240, Note_on_c, 10, 50, 75
11, 432240, Note_on_c, 10, 53, 75
11, 432336, Note_off_c, 10, 53, 64
11, 432336, Note_off_c, 10, 50, 64
11, 432360, Note_on_c, 10, 53, 76
11, 432360, Note_on_c, 10, 50, 76
11, 432456, Note_off_c, 10, 50, 64
11, 432456, Note_off_c, 10, 53, 64
11, 432480, Note_on_c, 10, 59, 77
11, 432480, Note_on_c, 10, 50, 77
11, 432576, Note_off_c, 10, 50, 64
11, 432576, Note_off_c, 10, 59, 64
11, 432600, Note_on_c, 10, 50, 79
11, 432600, Note_on_c, 10, 59, 79
11, 432696, Note_off_c, 10, 59, 64
11, 432696, Note_off_c, 10, 50, 64
11, 432720, Note_on_c, 10, 50, 80
11, 432720, Note_on_c, 10, 59, 80
11, 432816, Note_off_c, 10, 59, 64
11, 432816, Note_off_c, 10, 50, 64
11, 432840, Note_on_c, 10, 59, 81
11, 432840, Note_on_c, 10, 50, 81
11, 432936, Note_off_c, 10, 50, 64
11, 432936, Note_off_c, 10, 59, 64
11, 432960, Note_on_c, 10, 59, 83
11, 432960, Note_on_c, 10, 50, 83
11, 433056, Note_off_c, 10, 50, 64
11, 433056, Note_off_c, 10, 59, 64
11, 433080, Note_on_c, 10, 50, 84
11, 433080, Note_on_c, 10, 59, 84
11, 433176, Note_off_c, 10, 59, 64
11, 433176, Note_off_c, 10, 50, 64
11, 433200, Note_on_c, 10, 59, 85
11, 433200, Note_on_c, 10, 50, 85
11, 433296, Note_off_c, 10, 50, 64
11, 433296, Note_off_c, 10, 59, 64
11, 433320, Note_on_c, 10, 50, 87
11, 433320, Note_on_c, 10, 59, 87
11, 433416, Note_off_c, 10, 59, 64
11, 433416, Note_off_c, 10, 50, 64
11, 433440, Note_on_c, 10, 52, 90
11, 433440, Note_on_c, 10, 60, 127
11, 433536, Note_off_c, 10, 60, 64
11, 433536, Note_off_c, 10, 52, 64
11, 433560, Note_on_c, 10, 52, 90
11, 433560, Note_on_c, 10, 60, 90
11, 433656, Note_off_c, 10, 60, 64
11, 433656, Note_off_c, 10, 52, 64
11, 433680, Note_on_c, 10, 52, 90
11, 433680, Note_on_c, 10, 60, 90
11, 433776, Note_off_c, 10, 60, 64
11, 433776, Note_off_c, 10, 52, 64
11, 433800, Note_on_c, 10, 52, 90
11, 433800, Note_on_c, 10, 60, 90
11, 433896, Note_off_c, 10, 60, 64
11, 433896, Note_off_c, 10, 52, 64
11, 433920, Note_on_c, 10, 60, 90
11, 433920, Note_on_c, 10, 52, 90
11, 434016, Note_off_c, 10, 52, 64
11, 434016, Note_off_c, 10, 60, 64
11, 434040, Note_on_c, 10, 52, 90
11, 434040, Note_on_c, 10, 60, 90
11, 434136, Note_off_c, 10, 60, 64
11, 434136, Note_off_c, 10, 52, 64
11, 434160, Note_on_c, 10, 60, 90
11, 434160, Note_on_c, 10, 52, 90
11, 434256, Note_off_c, 10, 52, 64
11, 434256, Note_off_c, 10, 60, 64
11, 434280, Note_on_c, 10, 60, 90
11, 434280, Note_on_c, 10, 52, 90
11, 434376, Note_off_c, 10, 52, 64
11, 434376, Note_off_c, 10, 60, 64
11, 434400, Note_on_c, 10, 50, 90
11, 434400, Note_on_c, 10, 59, 127
11, 434496, Note_off_c, 10, 59, 64
11, 434496, Note_off_c, 10, 50, 64
11, 434520, Note_on_c, 10, 50, 90
11, 434520, Note_on_c, 10, 59, 90
11, 434616, Note_off_c, 10, 59, 64
11, 434616, Note_off_c, 10, 50, 64
11, 434640, Note_on_c, 10, 50, 90
11, 434640, Note_on_c, 10, 59, 90
11, 434736, Note_off_c, 10, 59, 64
11, 434736, Note_off_c, 10, 50, 64
11, 434760, Note_on_c, 10, 59, 90
11, 434760, Note_on_c, 10, 50, 90
11, 434856, Note_off_c, 10, 50, 64
11, 434856, Note_off_c, 10, 59, 64
11, 434880, Note_on_c, 10, 50, 90
11, 434880, Note_on_c, 10, 59, 90
11, 434976, Note_off_c, 10, 59, 64
11, 434976, Note_off_c, 10, 50, 64
11, 435000, Note_on_c, 10, 59, 90
11, 435000, Note_on_c, 10, 50, 90
11, 435096, Note_off_c, 10, 50, 64
11, 435096, Note_off_c, 10, 59, 64
11, 435120, Note_on_c, 10, 50, 90
11, 435120, Note_on_c, 10, 59, 90
11, 435216, Note_off_c, 10, 59, 64
11, 435216, Note_off_c, 10, 50, 64
11, 435240, Note_on_c, 10, 50, 90
11, 435240, Note_on_c, 10, 59, 90
11, 435336, Note_off_c, 10, 59, 64
11, 435336, Note_off_c, 10, 50, 64
11, 435360, Note_on_c, 10, 52, 90
11, 435360, Note_on_c, 10, 60, 127
11, 435456, Note_off_c, 10, 60, 64
11, 435456, Note_off_c, 10, 52, 64
11, 435480, Note_on_c, 10, 52, 90
11, 435480, Note_on_c, 10, 60, 90
11, 435576, Note_off_c, 10, 60, 64
11, 435576, Note_off_c, 10, 52, 64
11, 435600, Note_on_c, 10, 60, 90
11, 435600, Note_on_c, 10, 52, 90
11, 435696, Note_off_c, 10, 52, 64
11, 435696, Note_off_c, 10, 60, 64
11, 435720, Note_on_c, 10, 60, 90
11, 435720, Note_on_c, 10, 52, 90
11, 435816, Note_off_c, 10, 52, 64
11, 435816, Note_off_c, 10, 60, 64
11, 435840, Note_on_c, 10, 52, 90
11, 435840, Note_on_c, 10, 60, 90
11, 435936, Note_off_c, 10, 60, 64
11, 435936, Note_off_c, 10, 52, 64
11, 435960, Note_on_c, 10, 60, 90
11, 435960, Note_on_c, 10, 52, 90
11, 436056, Note_off_c, 10, 52, 64
11, 436056, Note_off_c, 10, 60, 64
11, 436080, Note_on_c, 10, 60, 90
11, 436080, Note_on_c, 10, 52, 90
11, 436176, Note_off_c, 10, 52, 64
11, 436176, Note_off_c, 10, 60, 64
11, 436200, Note_on_c, 10, 52, 90
11, 436200, Note_on_c, 10, 60, 90
11, 436296, Note_off_c, 10, 60, 64
11, 436296, Note_off_c, 10, 52, 64
11, 436320, Note_on_c, 10, 50, 90
11, 436320, Note_on_c, 10, 59, 127
11, 436416, Note_off_c, 10, 59, 64
11, 436416, Note_off_c, 10, 50, 64
11, 436440, Note_on_c, 10, 59, 90
11, 436440, Note_on_c, 10, 50, 90
11, 436536, Note_off_c, 10, 50, 64
11, 436536, Note_off_c, 10, 59, 64
11, 436560, Note_on_c, 10, 50, 90
11, 436560, Note_on_c, 10, 59, 90
11, 436656, Note_off_c, 10, 59, 64
11, 436656, Note_off_c, 10, 50, 64
11, 436680, Note_on_c, 10, 59, 90
11, 436680, Note_on_c, 10, 50, 90
11, 436776, Note_off_c, 10, 50, 64
11, 436776, Note_off_c, 10, 59, 64
11, 436800, Note_on_c, 10, 50, 90
11, 436800, Note_on_c, 10, 59, 90
11, 436896, Note_off_c, 10, 59, 64
11, 436896, Note_off_c, 10, 50, 64
11, 436920, Note_on_c, 10, 50, 90
11, 436920, Note_on_c, 10, 59, 90
11, 437016, Note_off_c, 10, 59, 64
11, 437016, Note_off_c, 10, 50, 64
11, 437040, Note_on_c, 10, 59, 90
11, 437040, Note_on_c, 10, 50, 90
11, 437136, Note_off_c, 10, 50, 64
11, 437136, Note_off_c, 10, 59, 64
11, 437160, Note_on_c, 10, 50, 90
11, 437160, Note_on_c, 10, 59, 90
11, 437256, Note_off_c, 10, 59, 64
11, 437256, Note_off_c, 10, 50, 64
11, 437280, Note_on_c, 10, 60, 99
11, 437280, Note_on_c, 10, 64, 99
11, 437376, Note_off_c, 10, 64, 64
11, 437376, Note_off_c, 10, 60, 64
11, 437400, Note_on_c, 10, 64, 99
11, 437400, Note_on_c, 10, 60, 99
11, 437496, Note_off_c, 10, 60, 64
11, 437496, Note_off_c, 10, 64, 64
11, 437520, Note_on_c, 10, 64, 99
11, 437520, Note_on_c, 10, 60, 99
11, 437616, Note_off_c, 10, 60, 64
11, 437616, Note_off_c, 10, 64, 64
11, 437640, Note_on_c, 10, 60, 99
11, 437640, Note_on_c, 10, 64, 99
11, 437736, Note_off_c, 10, 64, 64
11, 437736, Note_off_c, 10, 60, 64
11, 437760, Note_on_c, 10, 60, 99
11, 437856, Note_off_c, 10, 60, 64
11, 437880, Note_on_c, 10, 60, 99
11, 437976, Note_off_c, 10, 60, 64
11, 438000, Note_on_c, 10, 60, 99
11, 438096, Note_off_c, 10, 60, 64
11, 438120, Note_on_c, 10, 60, 99
11, 438216, Note_off_c, 10, 60, 64
11, 438240, Note_on_c, 10, 62, 99
11, 438336, Note_off_c, 10, 62, 64
11, 438360, Note_on_c, 10, 62, 99
11, 438456, Note_off_c, 10, 62, 64
11, 438480, Note_on_c, 10, 62, 99
11, 438576, Note_off_c, 10, 62, 64
11, 438600, Note_on_c, 10, 62, 99
11, 438696, Note_off_c, 10, 62, 64
11, 438720, Note_on_c, 10, 59, 99
11, 438816, Note_off_c, 10, 59, 64
11, 438840, Note_on_c, 10, 59, 99
11, 438936, Note_off_c, 10, 59, 64
11, 438960, Note_on_c, 10, 59, 99
11, 439056, Note_off_c, 10, 59, 64
11, 439080, Note_on_c, 10, 59, 99
11, 439176, Note_off_c, 10, 59, 64
11, 439200, Note_on_c, 10, 60, 99
11, 439296, Note_off_c, 10, 60, 64
11, 439320, Note_on_c, 10, 60, 99
11, 439416, Note_off_c, 10, 60, 64
11, 439440, Note_on_c, 10, 60, 99
11, 439536, Note_off_c, 10, 60, 64
11, 439560, Note_on_c, 10, 60, 99
11, 439656, Note_off_c, 10, 60, 64
11, 439680, Note_on_c, 10, 57, 99
11, 439776, Note_off_c, 10, 57, 64
11, 439800, Note_on_c, 10, 57, 99
11, 439896, Note_off_c, 10, 57, 64
11, 439920, Note_on_c, 10, 57, 99
11, 440016, Note_off_c, 10, 57, 64
11, 440040, Note_on_c, 10, 57, 99
11, 440136, Note_off_c, 10, 57, 64
11, 440160, Note_on_c, 10, 59, 99
11, 440256, Note_off_c, 10, 59, 64
11, 440280, Note_on_c, 10, 59, 99
11, 440376, Note_off_c, 10, 59, 64
11, 440400, Note_on_c, 10, 59, 99
11, 440496, Note_off_c, 10, 59, 64
11, 440520, Note_on_c, 10, 59, 99
11, 440616, Note_off_c, 10, 59, 64
11, 440640, Note_on_c, 10, 55, 99
11, 440736, Note_off_c, 10, 55, 64
11, 440760, Note_on_c, 10, 55, 99
11, 440856, Note_off_c, 10, 55, 64
11, 440880, Note_on_c, 10, 55, 99
11, 440976, Note_off_c, 10, 55, 64
11, 441000, Note_on_c, 10, 55, 99
11, 441096, Note_off_c, 10, 55, 64
11, 441120, Note_on_c, 10, 57, 99
11, 441216, Note_off_c, 10, 57, 64
11, 441240, Note_on_c, 10, 57, 99
11, 441336, Note_off_c, 10, 57, 64
11, 441360, Note_on_c, 10, 57, 99
11, 441456, Note_off_c, 10, 57, 64
11, 441480, Note_on_c, 10, 57, 99
11, 441576, Note_off_c, 10, 57, 64
11, 441600, Note_on_c, 10, 53, 99
11, 441696, Note_off_c, 10, 53, 64
11, 441720, Note_on_c, 10, 53, 99
11, 441816, Note_off_c, 10, 53, 64
11, 441840, Note_on_c, 10, 53, 99
11, 441936, Note_off_c, 10, 53, 64
11, 441960, Note_on_c, 10, 53, 99
11, 442056, Note_off_c, 10, 53, 64
11, 442080, Note_on_c, 10, 55, 99
11, 442176, Note_off_c, 10, 55, 64
11, 442200, Note_on_c, 10, 55, 99
11, 442296, Note_off_c, 10, 55, 64
11, 442320, Note_on_c, 10, 55, 99
11, 442416, Note_off_c, 10, 55, 64
11, 442440, Note_on_c, 10, 55, 99
11, 442536, Note_off_c, 10, 55, 64
11, 442560, Note_on_c, 10, 52, 99
11, 442656, Note_off_c, 10, 52, 64
11, 442680, Note_on_c, 10, 52, 99
11, 442776, Note_off_c, 10, 52, 64
11, 442800, Note_on_c, 10, 52, 99
11, 442896, Note_off_c, 10, 52, 64
11, 442920, Note_on_c, 10, 52, 99
11, 443016, Note_off_c, 10, 52, 64
11, 443040, Note_on_c, 10, 53, 99
11, 443136, Note_off_c, 10, 53, 64
11, 443160, Note_on_c, 10, 53, 99
11, 443256, Note_off_c, 10, 53, 64
11, 443280, Note_on_c, 10, 62, 99
11, 443376, Note_off_c, 10, 62, 64
11, 443400, Note_on_c, 10, 62, 99
11, 443496, Note_off_c, 10, 62, 64
11, 443520, Note_on_c, 10, 60, 99
11, 443616, Note_off_c, 10, 60, 64
11, 443640, Note_on_c, 10, 60, 99
11, 443736, Note_off_c, 10, 60, 64
11, 443760, Note_on_c, 10, 64, 99
11, 443856, Note_off_c, 10, 64, 64
11, 443880, Note_on_c, 10, 64, 99
11, 443976, Note_off_c, 10, 64, 64
11, 444000, Note_on_c, 10, 64, 99
11, 444096, Note_off_c, 10, 64, 64
11, 444120, Note_on_c, 10, 64, 99
11, 444216, Note_off_c, 10, 64, 64
11, 444240, Note_on_c, 10, 62, 99
11, 444336, Note_off_c, 10, 62, 64
11, 444360, Note_on_c, 10, 62, 99
11, 444456, Note_off_c, 10, 62, 64
11, 444480, Note_on_c, 10, 60, 99
11, 444480, Note_on_c, 10, 48, 99
11, 444576, Note_off_c, 10, 48, 64
11, 444576, Note_off_c, 10, 60, 64
11, 444600, Note_on_c, 10, 60, 99
11, 444600, Note_on_c, 10, 48, 99
11, 444696, Note_off_c, 10, 48, 64
11, 444696, Note_off_c, 10, 60, 64
11, 444720, Note_on_c, 10, 48, 99
11, 444720, Note_on_c, 10, 60, 99
11, 444816, Note_off_c, 10, 60, 64
11, 444816, Note_off_c, 10, 48, 64
11, 444840, Note_on_c, 10, 48, 99
11, 444840, Note_on_c, 10, 60, 99
11, 444936, Note_off_c, 10, 60, 64
11, 444936, Note_off_c, 10, 48, 64
11, 444960, Note_on_c, 10, 60, 99
11, 444960, Note_on_c, 10, 48, 99
11, 445056, Note_off_c, 10, 48, 64
11, 445056, Note_off_c, 10, 60, 64
11, 445080, Note_on_c, 10, 48, 99
11, 445080, Note_on_c, 10, 60, 99
11, 445176, Note_off_c, 10, 60, 64
11, 445176, Note_off_c, 10, 48, 64
11, 445200, Note_on_c, 10, 48, 99
11, 445200, Note_on_c, 10, 60, 99
11, 445296, Note_off_c, 10, 60, 64
11, 445296, Note_off_c, 10, 48, 64
11, 445320, Note_on_c, 10, 60, 99
11, 445320, Note_on_c, 10, 48, 99
11, 445416, Note_off_c, 10, 48, 64
11, 445416, Note_off_c, 10, 60, 64
11, 445440, Note_on_c, 10, 48, 99
11, 445440, Note_on_c, 10, 60, 99
11, 445536, Note_off_c, 10, 60, 64
11, 445536, Note_off_c, 10, 48, 64
11, 445560, Note_on_c, 10, 48, 99
11, 445560, Note_on_c, 10, 60, 99
11, 445656, Note_off_c, 10, 60, 64
11, 445656, Note_off_c, 10, 48, 64
11, 445680, Note_on_c, 10, 60, 99
11, 445680, Note_on_c, 10, 48, 99
11, 445776, Note_off_c, 10, 48, 64
11, 445776, Note_off_c, 10, 60, 64
11, 445800, Note_on_c, 10, 60, 99
11, 445800, Note_on_c, 10, 48, 99
11, 445896, Note_off_c, 10, 48, 64
11, 445896, Note_off_c, 10, 60, 64
11, 445920, Note_on_c, 10, 60, 99
11, 445920, Note_on_c, 10, 48, 99
11, 446016, Note_off_c, 10, 48, 64
11, 446016, Note_off_c, 10, 60, 64
11, 446040, Note_on_c, 10, 48, 99
11, 446040, Note_on_c, 10, 60, 99
11, 446136, Note_off_c, 10, 60, 64
11, 446136, Note_off_c, 10, 48, 64
11, 446160, Note_on_c, 10, 60, 99
11, 446160, Note_on_c, 10, 48, 99
11, 446256, Note_off_c, 10, 48, 64
11, 446256, Note_off_c, 10, 60, 64
11, 446280, Note_on_c, 10, 60, 99
11, 446280, Note_on_c, 10, 48, 99
11, 446376, Note_off_c, 10, 48, 64
11, 446376, Note_off_c, 10, 60, 64
11, 446400, Note_on_c, 10, 60, 99
11, 446400, Note_on_c, 10, 48, 99
11, 446496, Note_off_c, 10, 48, 64
11, 446496, Note_off_c, 10, 60, 64
11, 446520, Note_on_c, 10, 48, 99
11, 446520, Note_on_c, 10, 60, 99
11, 446616, Note_off_c, 10, 60, 64
11, 446616, Note_off_c, 10, 48, 64
11, 446640, Note_on_c, 10, 60, 99
11, 446640, Note_on_c, 10, 48, 99
11, 446736, Note_off_c, 10, 48, 64
11, 446736, Note_off_c, 10, 60, 64
11, 446760, Note_on_c, 10, 48, 99
11, 446760, Note_on_c, 10, 60, 99
11, 446856, Note_off_c, 10, 60, 64
11, 446856, Note_off_c, 10, 48, 64
11, 446880, Note_on_c, 10, 60, 99
11, 446880, Note_on_c, 10, 48, 99
11, 446976, Note_off_c, 10, 48, 64
11, 446976, Note_off_c, 10, 60, 64
11, 447000, Note_on_c, 10, 48, 99
11, 447000, Note_on_c, 10, 60, 99
11, 447096, Note_off_c, 10, 60, 64
11, 447096, Note_off_c, 10, 48, 64
11, 447120, Note_on_c, 10, 48, 99
11, 447120, Note_on_c, 10, 60, 99
11, 447216, Note_off_c, 10, 60, 64
11, 447216, Note_off_c, 10, 48, 64
11, 447240, Note_on_c, 10, 60, 99
11, 447240, Note_on_c, 10, 48, 99
11, 447336, Note_off_c, 10, 48, 64
11, 447336, Note_off_c, 10, 60, 64
11, 447360, Note_on_c, 10, 48, 99
11, 447360, Note_on_c, 10, 60, 99
11, 447456, Note_off_c, 10, 60, 64
11, 447456, Note_off_c, 10, 48, 64
11, 447480, Note_on_c, 10, 48, 99
11, 447480, Note_on_c, 10, 60, 99
11, 447576, Note_off_c, 10, 60, 64
11, 447576, Note_off_c, 10, 48, 64
11, 447600, Note_on_c, 10, 60, 99
11, 447600, Note_on_c, 10, 48, 99
11, 447696, Note_off_c, 10, 48, 64
11, 447696, Note_off_c, 10, 60, 64
11, 447720, Note_on_c, 10, 60, 99
11, 447720, Note_on_c, 10, 48, 99
11, 447816, Note_off_c, 10, 48, 64
11, 447816, Note_off_c, 10, 60, 64
11, 447840, Note_on_c, 10, 60, 99
11, 447840, Note_on_c, 10, 48, 99
11, 447936, Note_off_c, 10, 48, 64
11, 447936, Note_off_c, 10, 60, 64
11, 447960, Note_on_c, 10, 48, 99
11, 447960, Note_on_c, 10, 60, 99
11, 448056, Note_off_c, 10, 60, 64
11, 448056, Note_off_c, 10, 48, 64
11, 448080, Note_on_c, 10, 60, 99
11, 448080, Note_on_c, 10, 48, 99
11, 448176, Note_off_c, 10, 48, 64
11, 448176, Note_off_c, 10, 60, 64
11, 448200, Note_on_c, 10, 60, 99
11, 448200, Note_on_c, 10, 48, 99
11, 448296, Note_off_c, 10, 48, 64
11, 448296, Note_off_c, 10, 60, 64
11, 448320, Note_on_c, 10, 60, 99
11, 448320, Note_on_c, 10, 48, 99
11, 448416, Note_off_c, 10, 48, 64
11, 448416, Note_off_c, 10, 60, 64
11, 448440, Note_on_c, 10, 48, 99
11, 448440, Note_on_c, 10, 60, 99
11, 448536, Note_off_c, 10, 60, 64
11, 448536, Note_off_c, 10, 48, 64
11, 448560, Note_on_c, 10, 60, 99
11, 448560, Note_on_c, 10, 48, 99
11, 448656, Note_off_c, 10, 48, 64
11, 448656, Note_off_c, 10, 60, 64
11, 448680, Note_on_c, 10, 48, 99
11, 448680, Note_on_c, 10, 60, 99
11, 448776, Note_off_c, 10, 60, 64
11, 448776, Note_off_c, 10, 48, 64
11, 448800, Note_on_c, 10, 60, 99
11, 448800, Note_on_c, 10, 48, 99
11, 448896, Note_off_c, 10, 48, 64
11, 448896, Note_off_c, 10, 60, 64
11, 448920, Note_on_c, 10, 48, 99
11, 448920, Note_on_c, 10, 60, 99
11, 449016, Note_off_c, 10, 60, 64
11, 449016, Note_off_c, 10, 48, 64
11, 449040, Note_on_c, 10, 48, 99
11, 449040, Note_on_c, 10, 60, 99
11, 449136, Note_off_c, 10, 60, 64
11, 449136, Note_off_c, 10, 48, 64
11, 449160, Note_on_c, 10, 60, 99
11, 449160, Note_on_c, 10, 48, 99
11, 449256, Note_off_c, 10, 48, 64
11, 449256, Note_off_c, 10, 60, 64
11, 449280, Note_on_c, 10, 48, 99
11, 449280, Note_on_c, 10, 60, 99
11, 449376, Note_off_c, 10, 60, 64
11, 449376, Note_off_c, 10, 48, 64
11, 449400, Note_on_c, 10, 48, 99
11, 449400, Note_on_c, 10, 60, 99
11, 449496, Note_off_c, 10, 60, 64
11, 449496, Note_off_c, 10, 48, 64
11, 449520, Note_on_c, 10, 60, 99
11, 449520, Note_on_c, 10, 48, 99
11, 449616, Note_off_c, 10, 48, 64
11, 449616, Note_off_c, 10, 60, 64
11, 449640, Note_on_c, 10, 60, 99
11, 449640, Note_on_c, 10, 48, 99
11, 449736, Note_off_c, 10, 48, 64
11, 449736, Note_off_c, 10, 60, 64
11, 449760, Note_on_c, 10, 48, 99
11, 449760, Note_on_c, 10, 60, 99
11, 449856, Note_off_c, 10, 60, 64
11, 449856, Note_off_c, 10, 48, 64
11, 449880, Note_on_c, 10, 48, 99
11, 449880, Note_on_c, 10, 60, 99
11, 449976, Note_off_c, 10, 60, 64
11, 449976, Note_off_c, 10, 48, 64
11, 450000, Note_on_c, 10, 48, 99
11, 450000, Note_on_c, 10, 60, 99
11, 450096, Note_off_c, 10, 60, 64
11, 450096, Note_off_c, 10, 48, 64
11, 450120, Note_on_c, 10, 60, 99
11, 450120, Note_on_c, 10, 48, 99
11, 450216, Note_off_c, 10, 48, 64
11, 450216, Note_off_c, 10, 60, 64
11, 450240, Note_on_c, 10, 60, 99
11, 450240, Note_on_c, 10, 48, 99
11, 450336, Note_off_c, 10, 48, 64
11, 450336, Note_off_c, 10, 60, 64
11, 450360, Note_on_c, 10, 48, 99
11, 450360, Note_on_c, 10, 60, 99
11, 450456, Note_off_c, 10, 60, 64
11, 450456, Note_off_c, 10, 48, 64
11, 450480, Note_on_c, 10, 48, 99
11, 450480, Note_on_c, 10, 60, 99
11, 450576, Note_off_c, 10, 60, 64
11, 450576, Note_off_c, 10, 48, 64
11, 450600, Note_on_c, 10, 48, 99
11, 450600, Note_on_c, 10, 60, 99
11, 450696, Note_off_c, 10, 60, 64
11, 450696, Note_off_c, 10, 48, 64
11, 450720, Note_on_c, 10, 60, 102
11, 450720, Note_on_c, 10, 48, 102
11, 450912, Note_off_c, 10, 48, 64
11, 450912, Note_off_c, 10, 60, 64
11, 451200, Note_on_c, 10, 48, 122
11, 451392, Note_off_c, 10, 48, 64
11, 451680, Note_on_c, 10, 48, 102
11, 451872, Note_off_c, 10, 48, 64
11, 452160, Note_on_c, 10, 59, 102
11, 452160, Note_on_c, 10, 50, 122
11, 452352, Note_off_c, 10, 50, 64
11, 452352, Note_off_c, 10, 59, 64
11, 453600, Note_on_c, 10, 50, 35
11, 453696, Note_off_c, 10, 50, 64
11, 453840, Note_on_c, 10, 48, 35
11, 453960, Note_off_c, 10, 48, 64
11, 453960, Note_on_c, 10, 50, 35
11, 454080, Note_off_c, 10, 50, 64
11, 454080, Note_on_c, 10, 52, 35
11, 454176, Note_off_c, 10, 52, 64
11, 454320, Note_on_c, 10, 50, 35
11, 454416, Note_off_c, 10, 50, 64
11, 454560, Note_on_c, 10, 48, 35
11, 454944, Note_off_c, 10, 48, 64
11, 455520, Note_on_c, 10, 53, 35
11, 455616, Note_off_c, 10, 53, 64
11, 455760, Note_on_c, 10, 52, 35
11, 455880, Note_off_c, 10, 52, 64
11, 455880, Note_on_c, 10, 53, 35
11, 456000, Note_off_c, 10, 53, 64
11, 456000, Note_on_c, 10, 55, 35
11, 456096, Note_off_c, 10, 55, 64
11, 456240, Note_on_c, 10, 53, 35
11, 456336, Note_off_c, 10, 53, 64
11, 456480, Note_on_c, 10, 52, 35
11, 456864, Note_off_c, 10, 52, 64
11, 457440, Note_on_c, 10, 62, 42
11, 457536, Note_off_c, 10, 62, 64
11, 457680, Note_on_c, 10, 60, 42
11, 457800, Note_off_c, 10, 60, 64
11, 457800, Note_on_c, 10, 62, 42
11, 457920, Note_off_c, 10, 62, 64
11, 457920, Note_on_c, 10, 64, 42
11, 458016, Note_off_c, 10, 64, 64
11, 458160, Note_on_c, 10, 62, 42
11, 458256, Note_off_c, 10, 62, 64
11, 458400, Note_on_c, 10, 60, 58
11, 458496, Note_off_c, 10, 60, 64
11, 458640, Note_on_c, 10, 59, 58
11, 458760, Note_off_c, 10, 59, 64
11, 458760, Note_on_c, 10, 60, 58
11, 458880, Note_off_c, 10, 60, 64
11, 458880, Note_on_c, 10, 62, 58
11, 458976, Note_off_c, 10, 62, 64
11, 459120, Note_on_c, 10, 60, 58
11, 459216, Note_off_c, 10, 60, 64
11, 459360, Note_on_c, 10, 65, 70
11, 459456, Note_off_c, 10, 65, 64
11, 459600, Note_on_c, 10, 64, 70
11, 459720, Note_off_c, 10, 64, 64
11, 459720, Note_on_c, 10, 65, 70
11, 459840, Note_off_c, 10, 65, 64
11, 459840, Note_on_c, 10, 67, 70
11, 459936, Note_off_c, 10, 67, 64
11, 460080, Note_on_c, 10, 65, 70
11, 460176, Note_off_c, 10, 65, 64
11, 460320, Note_on_c, 10, 64, 60
11, 460416, Note_off_c, 10, 64, 64
11, 460560, Note_on_c, 10, 67, 60
11, 460656, Note_off_c, 10, 67, 64
11, 460800, Note_on_c, 10, 65, 60
11, 461040, Note_off_c, 10, 65, 64
11, 461040, Note_on_c, 10, 67, 60
11, 461160, Note_off_c, 10, 67, 64
11, 461160, Note_on_c, 10, 65, 60
11, 461280, Note_off_c, 10, 65, 64
11, 461280, Note_on_c, 10, 64, 60
11, 461376, Note_off_c, 10, 64, 64
11, 461520, Note_on_c, 10, 72, 60
11, 461616, Note_off_c, 10, 72, 64
11, 461760, Note_on_c, 10, 71, 60
11, 462000, Note_off_c, 10, 71, 64
11, 462000, Note_on_c, 10, 71, 60
11, 462096, Note_off_c, 10, 71, 64
11, 462240, Note_on_c, 10, 72, 40
11, 462336, Note_off_c, 10, 72, 64
11, 462480, Note_on_c, 10, 67, 42
11, 462576, Note_off_c, 10, 67, 64
11, 462720, Note_on_c, 10, 65, 43
11, 462960, Note_off_c, 10, 65, 64
11, 462960, Note_on_c, 10, 67, 45
11, 463080, Note_off_c, 10, 67, 64
11, 463080, Note_on_c, 10, 65, 46
11, 463200, Note_off_c, 10, 65, 64
11, 463200, Note_on_c, 10, 64, 47
11, 463296, Note_off_c, 10, 64, 64
11, 463320, Note_on_c, 10, 60, 48
11, 463320, Note_on_c, 10, 48, 48
11, 463416, Note_off_c, 10, 48, 64
11, 463416, Note_off_c, 10, 60, 64
11, 463440, Note_on_c, 10, 60, 49
11, 463440, Note_on_c, 10, 48, 49
11, 463536, Note_off_c, 10, 48, 64
11, 463536, Note_off_c, 10, 60, 64
11, 463560, Note_on_c, 10, 48, 50
11, 463560, Note_on_c, 10, 60, 50
11, 463656, Note_off_c, 10, 60, 64
11, 463656, Note_off_c, 10, 48, 64
11, 463680, Note_on_c, 10, 48, 50
11, 463680, Note_on_c, 10, 60, 50
11, 463776, Note_off_c, 10, 60, 64
11, 463776, Note_off_c, 10, 48, 64
11, 463800, Note_on_c, 10, 60, 51
11, 463800, Note_on_c, 10, 48, 51
11, 463896, Note_off_c, 10, 48, 64
11, 463896, Note_off_c, 10, 60, 64
11, 463920, Note_on_c, 10, 60, 52
11, 463920, Note_on_c, 10, 48, 52
11, 464016, Note_off_c, 10, 48, 64
11, 464016, Note_off_c, 10, 60, 64
11, 464040, Note_on_c, 10, 60, 53
11, 464040, Note_on_c, 10, 48, 53
11, 464136, Note_off_c, 10, 48, 64
11, 464136, Note_off_c, 10, 60, 64
11, 464160, Note_on_c, 10, 48, 54
11, 464160, Note_on_c, 10, 60, 54
11, 464256, Note_off_c, 10, 60, 64
11, 464256, Note_off_c, 10, 48, 64
11, 464280, Note_on_c, 10, 60, 55
11, 464280, Note_on_c, 10, 48, 55
11, 464376, Note_off_c, 10, 48, 64
11, 464376, Note_off_c, 10, 60, 64
11, 464400, Note_on_c, 10, 60, 56
11, 464400, Note_on_c, 10, 48, 56
11, 464496, Note_off_c, 10, 48, 64
11, 464496, Note_off_c, 10, 60, 64
11, 464520, Note_on_c, 10, 48, 57
11, 464520, Note_on_c, 10, 60, 57
11, 464616, Note_off_c, 10, 60, 64
11, 464616, Note_off_c, 10, 48, 64
11, 464640, Note_on_c, 10, 48, 57
11, 464640, Note_on_c, 10, 60, 57
11, 464736, Note_off_c, 10, 60, 64
11, 464736, Note_off_c, 10, 48, 64
11, 464760, Note_on_c, 10, 48, 58
11, 464760, Note_on_c, 10, 60, 58
11, 464856, Note_off_c, 10, 60, 64
11, 464856, Note_off_c, 10, 48, 64
11, 464880, Note_on_c, 10, 60, 59
11, 464880, Note_on_c, 10, 48, 59
11, 464976, Note_off_c, 10, 48, 64
11, 464976, Note_off_c, 10, 60, 64
11, 465000, Note_on_c, 10, 48, 60
11, 465000, Note_on_c, 10, 60, 60
11, 465096, Note_off_c, 10, 60, 64
11, 465096, Note_off_c, 10, 48, 64
11, 465120, Note_on_c, 10, 48, 61
11, 465120, Note_on_c, 10, 60, 61
11, 465216, Note_off_c, 10, 60, 64
11, 465216, Note_off_c, 10, 48, 64
11, 465240, Note_on_c, 10, 48, 62
11, 465240, Note_on_c, 10, 60, 62
11, 465336, Note_off_c, 10, 60, 64
11, 465336, Note_off_c, 10, 48, 64
11, 465360, Note_on_c, 10, 60, 63
11, 465360, Note_on_c, 10, 48, 63
11, 465456, Note_off_c, 10, 48, 64
11, 465456, Note_off_c, 10, 60, 64
11, 465480, Note_on_c, 10, 48, 64
11, 465480, Note_on_c, 10, 60, 64
11, 465576, Note_off_c, 10, 60, 64
11, 465576, Note_off_c, 10, 48, 64
11, 465600, Note_on_c, 10, 48, 64
11, 465600, Note_on_c, 10, 60, 64
11, 465696, Note_off_c, 10, 60, 64
11, 465696, Note_off_c, 10, 48, 64
11, 465720, Note_on_c, 10, 48, 65
11, 465720, Note_on_c, 10, 60, 65
11, 465816, Note_off_c, 10, 60, 64
11, 465816, Note_off_c, 10, 48, 64
11, 465840, Note_on_c, 10, 48, 66
11, 465840, Note_on_c, 10, 60, 66
11, 465936, Note_off_c, 10, 60, 64
11, 465936, Note_off_c, 10, 48, 64
11, 465960, Note_on_c, 10, 60, 67
11, 465960, Note_on_c, 10, 48, 67
11, 466056, Note_off_c, 10, 48, 64
11, 466056, Note_off_c, 10, 60, 64
11, 466080, Note_on_c, 10, 60, 68
11, 466080, Note_on_c, 10, 48, 68
11, 466176, Note_off_c, 10, 48, 64
11, 466176, Note_off_c, 10, 60, 64
11, 466200, Note_on_c, 10, 48, 69
11, 466200, Note_on_c, 10, 60, 69
11, 466296, Note_off_c, 10, 60, 64
11, 466296, Note_off_c, 10, 48, 64
11, 466320, Note_on_c, 10, 48, 70
11, 466320, Note_on_c, 10, 60, 70
11, 466416, Note_off_c, 10, 60, 64
11, 466416, Note_off_c, 10, 48, 64
11, 466440, Note_on_c, 10, 48, 71
11, 466440, Note_on_c, 10, 60, 71
11, 466536, Note_off_c, 10, 60, 64
11, 466536, Note_off_c, 10, 48, 64
11, 466560, Note_on_c, 10, 60, 71
11, 466560, Note_on_c, 10, 48, 71
11, 466656, Note_off_c, 10, 48, 64
11, 466656, Note_off_c, 10, 60, 64
11, 466680, Note_on_c, 10, 48, 72
11, 466680, Note_on_c, 10, 60, 72
11, 466776, Note_off_c, 10, 60, 64
11, 466776, Note_off_c, 10, 48, 64
11, 466800, Note_on_c, 10, 48, 73
11, 466800, Note_on_c, 10, 60, 73
11, 466896, Note_off_c, 10, 60, 64
11, 466896, Note_off_c, 10, 48, 64
11, 466920, Note_on_c, 10, 60, 74
11, 466920, Note_on_c, 10, 48, 74
11, 467016, Note_off_c, 10, 48, 64
11, 467016, Note_off_c, 10, 60, 64
11, 467040, Note_on_c, 10, 60, 75
11, 467040, Note_on_c, 10, 48, 75
11, 467136, Note_off_c, 10, 48, 64
11, 467136, Note_off_c, 10, 60, 64
11, 467160, Note_on_c, 10, 60, 76
11, 467160, Note_on_c, 10, 48, 76
11, 467256, Note_off_c, 10, 48, 64
11, 467256, Note_off_c, 10, 60, 64
11, 467280, Note_on_c, 10, 60, 77
11, 467280, Note_on_c, 10, 48, 77
11, 467376, Note_off_c, 10, 48, 64
11, 467376, Note_off_c, 10, 60, 64
11, 467400, Note_on_c, 10, 60, 77
11, 467400, Note_on_c, 10, 48, 77
11, 467496, Note_off_c, 10, 48, 64
11, 467496, Note_off_c, 10, 60, 64
11, 467520, Note_on_c, 10, 48, 78
11, 467520, Note_on_c, 10, 60, 78
11, 467616, Note_off_c, 10, 60, 64
11, 467616, Note_off_c, 10, 48, 64
11, 467640, Note_on_c, 10, 60, 79
11, 467640, Note_on_c, 10, 48, 79
11, 467736, Note_off_c, 10, 48, 64
11, 467736, Note_off_c, 10, 60, 64
11, 467760, Note_on_c, 10, 60, 80
11, 467760, Note_on_c, 10, 48, 80
11, 467856, Note_off_c, 10, 48, 64
11, 467856, Note_off_c, 10, 60, 64
11, 467880, Note_on_c, 10, 60, 81
11, 467880, Note_on_c, 10, 48, 81
11, 467976, Note_off_c, 10, 48, 64
11, 467976, Note_off_c, 10, 60, 64
11, 468000, Note_on_c, 10, 60, 82
11, 468000, Note_on_c, 10, 48, 82
11, 468096, Note_off_c, 10, 48, 64
11, 468096, Note_off_c, 10, 60, 64
11, 468120, Note_on_c, 10, 60, 83
11, 468120, Note_on_c, 10, 48, 83
11, 468216, Note_off_c, 10, 48, 64
11, 468216, Note_off_c, 10, 60, 64
11, 468240, Note_on_c, 10, 48, 84
11, 468240, Note_on_c, 10, 60, 84
11, 468336, Note_off_c, 10, 60, 64
11, 468336, Note_off_c, 10, 48, 64
11, 468360, Note_on_c, 10, 60, 84
11, 468360, Note_on_c, 10, 48, 84
11, 468456, Note_off_c, 10, 48, 64
11, 468456, Note_off_c, 10, 60, 64
11, 468480, Note_on_c, 10, 60, 85
11, 468480, Note_on_c, 10, 48, 85
11, 468576, Note_off_c, 10, 48, 64
11, 468576, Note_off_c, 10, 60, 64
11, 468600, Note_on_c, 10, 48, 86
11, 468600, Note_on_c, 10, 60, 86
11, 468696, Note_off_c, 10, 60, 64
11, 468696, Note_off_c, 10, 48, 64
11, 468720, Note_on_c, 10, 60, 87
11, 468720, Note_on_c, 10, 48, 87
11, 468816, Note_off_c, 10, 48, 64
11, 468816, Note_off_c, 10, 60, 64
11, 468840, Note_on_c, 10, 60, 88
11, 468840, Note_on_c, 10, 48, 88
11, 468936, Note_off_c, 10, 48, 64
11, 468936, Note_off_c, 10, 60, 64
11, 468960, Note_on_c, 10, 48, 89
11, 468960, Note_on_c, 10, 60, 89
11, 469056, Note_off_c, 10, 60, 64
11, 469056, Note_off_c, 10, 48, 64
11, 469080, Note_on_c, 10, 60, 90
11, 469080, Note_on_c, 10, 48, 90
11, 469176, Note_off_c, 10, 48, 64
11, 469176, Note_off_c, 10, 60, 64
11, 469200, Note_on_c, 10, 48, 91
11, 469200, Note_on_c, 10, 60, 91
11, 469296, Note_off_c, 10, 60, 64
11, 469296, Note_off_c, 10, 48, 64
11, 469320, Note_on_c, 10, 48, 91
11, 469320, Note_on_c, 10, 60, 91
11, 469416, Note_off_c, 10, 60, 64
11, 469416, Note_off_c, 10, 48, 64
11, 469440, Note_on_c, 10, 48, 92
11, 469440, Note_on_c, 10, 60, 92
11, 469536, Note_off_c, 10, 60, 64
11, 469536, Note_off_c, 10, 48, 64
11, 469560, Note_on_c, 10, 60, 93
11, 469560, Note_on_c, 10, 48, 93
11, 469656, Note_off_c, 10, 48, 64
11, 469656, Note_off_c, 10, 60, 64
11, 469680, Note_on_c, 10, 48, 94
11, 469680, Note_on_c, 10, 60, 94
11, 469776, Note_off_c, 10, 60, 64
11, 469776, Note_off_c, 10, 48, 64
11, 469800, Note_on_c, 10, 60, 95
11, 469800, Note_on_c, 10, 48, 95
11, 469896, Note_off_c, 10, 48, 64
11, 469896, Note_off_c, 10, 60, 64
11, 469920, Note_on_c, 10, 60, 96
11, 469920, Note_on_c, 10, 48, 96
11, 470016, Note_off_c, 10, 48, 64
11, 470016, Note_off_c, 10, 60, 64
11, 470040, Note_on_c, 10, 60, 97
11, 470040, Note_on_c, 10, 48, 97
11, 470136, Note_off_c, 10, 48, 64
11, 470136, Note_off_c, 10, 60, 64
11, 470160, Note_on_c, 10, 48, 98
11, 470160, Note_on_c, 10, 60, 98
11, 470256, Note_off_c, 10, 60, 64
11, 470256, Note_off_c, 10, 48, 64
11, 470280, Note_on_c, 10, 60, 98
11, 470280, Note_on_c, 10, 48, 98
11, 470376, Note_off_c, 10, 48, 64
11, 470376, Note_off_c, 10, 60, 64
11, 470400, Note_on_c, 10, 60, 99
11, 470400, Note_on_c, 10, 48, 99
11, 470400, Note_on_c, 10, 48, 99
11, 470496, Note_off_c, 10, 48, 64
11, 470496, Note_off_c, 10, 48, 64
11, 470496, Note_off_c, 10, 60, 64
11, 470520, Note_on_c, 10, 60, 100
11, 470520, Note_on_c, 10, 48, 100
11, 470616, Note_off_c, 10, 48, 64
11, 470616, Note_off_c, 10, 60, 64
11, 470640, Note_on_c, 10, 48, 101
11, 470640, Note_on_c, 10, 60, 101
11, 470736, Note_off_c, 10, 60, 64
11, 470736, Note_off_c, 10, 48, 64
11, 470760, Note_on_c, 10, 48, 102
11, 470760, Note_on_c, 10, 60, 102
11, 470856, Note_off_c, 10, 60, 64
11, 470856, Note_off_c, 10, 48, 64
11, 470880, Note_on_c, 10, 64, 103
11, 470976, Note_off_c, 10, 64, 64
11, 471000, Note_on_c, 10, 60, 104
11, 471096, Note_off_c, 10, 60, 64
11, 471120, Note_on_c, 10, 62, 105
11, 471216, Note_off_c, 10, 62, 64
11, 471240, Note_on_c, 10, 64, 105
11, 471336, Note_off_c, 10, 64, 64
11, 471360, Note_on_c, 10, 65, 106
11, 471456, Note_off_c, 10, 65, 64
11, 471480, Note_on_c, 10, 65, 107
11, 471576, Note_off_c, 10, 65, 64
11, 471600, Note_on_c, 10, 65, 108
11, 471696, Note_off_c, 10, 65, 64
11, 471720, Note_on_c, 10, 65, 109
11, 471816, Note_off_c, 10, 65, 64
11, 471840, Note_on_c, 10, 65, 99
11, 471936, Note_off_c, 10, 65, 64
11, 471960, Note_on_c, 10, 65, 99
11, 472056, Note_off_c, 10, 65, 64
11, 472080, Note_on_c, 10, 65, 99
11, 472176, Note_off_c, 10, 65, 64
11, 472200, Note_on_c, 10, 65, 99
11, 472296, Note_off_c, 10, 65, 64
11, 472320, Note_on_c, 10, 65, 99
11, 472416, Note_off_c, 10, 65, 64
11, 472440, Note_on_c, 10, 65, 99
11, 472536, Note_off_c, 10, 65, 64
11, 472560, Note_on_c, 10, 65, 99
11, 472656, Note_off_c, 10, 65, 64
11, 472680, Note_on_c, 10, 65, 99
11, 472776, Note_off_c, 10, 65, 64
11, 472800, Note_on_c, 10, 65, 99
11, 472896, Note_off_c, 10, 65, 64
11, 472920, Note_on_c, 10, 65, 99
11, 473016, Note_off_c, 10, 65, 64
11, 473040, Note_on_c, 10, 65, 99
11, 473136, Note_off_c, 10, 65, 64
11, 473160, Note_on_c, 10, 65, 99
11, 473256, Note_off_c, 10, 65, 64
11, 473280, Note_on_c, 10, 65, 99
11, 473376, Note_off_c, 10, 65, 64
11, 473400, Note_on_c, 10, 65, 99
11, 473496, Note_off_c, 10, 65, 64
11, 473520, Note_on_c, 10, 65, 99
11, 473616, Note_off_c, 10, 65, 64
11, 473640, Note_on_c, 10, 65, 99
11, 473736, Note_off_c, 10, 65, 64
11, 477600, Note_on_c, 10, 64, 99
11, 477696, Note_off_c, 10, 64, 64
11, 477720, Note_on_c, 10, 64, 99
11, 477816, Note_off_c, 10, 64, 64
11, 477840, Note_on_c, 10, 64, 99
11, 477936, Note_off_c, 10, 64, 64
11, 477960, Note_on_c, 10, 64, 99
11, 478056, Note_off_c, 10, 64, 64
11, 478080, Note_on_c, 10, 64, 99
11, 478176, Note_off_c, 10, 64, 64
11, 478200, Note_on_c, 10, 64, 99
11, 478296, Note_off_c, 10, 64, 64
11, 478320, Note_on_c, 10, 64, 99
11, 478416, Note_off_c, 10, 64, 64
11, 478440, Note_on_c, 10, 64, 99
11, 478536, Note_off_c, 10, 64, 64
11, 478560, Note_on_c, 10, 65, 99
11, 478656, Note_off_c, 10, 65, 64
11, 478680, Note_on_c, 10, 57, 99
11, 478776, Note_off_c, 10, 57, 64
11, 478800, Note_on_c, 10, 57, 99
11, 478896, Note_off_c, 10, 57, 64
11, 478920, Note_on_c, 10, 57, 99
11, 479016, Note_off_c, 10, 57, 64
11, 479040, Note_on_c, 10, 57, 99
11, 479136, Note_off_c, 10, 57, 64
11, 479160, Note_on_c, 10, 57, 99
11, 479256, Note_off_c, 10, 57, 64
11, 479280, Note_on_c, 10, 57, 99
11, 479376, Note_off_c, 10, 57, 64
11, 479400, Note_on_c, 10, 57, 99
11, 479496, Note_off_c, 10, 57, 64
11, 479520, Note_on_c, 10, 67, 120
11, 480288, Note_off_c, 10, 67, 64
11, 480480, Note_on_c, 10, 64, 120
11, 480720, Note_off_c, 10, 64, 64
11, 480720, Note_on_c, 10, 65, 120
11, 480840, Note_off_c, 10, 65, 64
11, 480840, Note_on_c, 10, 67, 120
11, 480960, Note_off_c, 10, 67, 64
11, 480960, Note_on_c, 10, 69, 120
11, 481056, Note_off_c, 10, 69, 64
11, 481200, Note_on_c, 10, 71, 120
11, 481296, Note_off_c, 10, 71, 64
11, 481440, Note_on_c, 10, 72, 120
11, 481536, Note_off_c, 10, 72, 64
11, 481680, Note_on_c, 10, 60, 80
11, 481776, Note_off_c, 10, 60, 64
11, 481920, Note_on_c, 10, 72, 80
11, 482016, Note_off_c, 10, 72, 64
11, 482160, Note_on_c, 10, 72, 80
11, 482256, Note_off_c, 10, 72, 64
11, 482400, Note_on_c, 10, 71, 80
11, 482496, Note_off_c, 10, 71, 64
11, 482640, Note_on_c, 10, 59, 80
11, 482736, Note_off_c, 10, 59, 64
11, 482880, Note_on_c, 10, 71, 80
11, 482976, Note_off_c, 10, 71, 64
11, 483120, Note_on_c, 10, 71, 80
11, 483216, Note_off_c, 10, 71, 64
11, 483360, Note_on_c, 10, 69, 80
11, 483456, Note_off_c, 10, 69, 64
11, 483600, Note_on_c, 10, 57, 80
11, 483696, Note_off_c, 10, 57, 64
11, 483840, Note_on_c, 10, 69, 80
11, 483936, Note_off_c, 10, 69, 64
11, 484080, Note_on_c, 10, 69, 80
11, 484176, Note_off_c, 10, 69, 64
11, 484320, Note_on_c, 10, 67, 80
11, 484416, Note_off_c, 10, 67, 64
11, 484560, Note_on_c, 10, 55, 80
11, 484656, Note_off_c, 10, 55, 64
11, 484800, Note_on_c, 10, 67, 80
11, 484896, Note_off_c, 10, 67, 64
11, 485040, Note_on_c, 10, 67, 80
11, 485136, Note_off_c, 10, 67, 64
11, 485280, Note_on_c, 10, 65, 80
11, 485376, Note_off_c, 10, 65, 64
11, 485520, Note_on_c, 10, 53, 80
11, 485616, Note_off_c, 10, 53, 64
11, 485760, Note_on_c, 10, 65, 80
11, 485856, Note_off_c, 10, 65, 64
11, 486000, Note_on_c, 10, 65, 80
11, 486096, Note_off_c, 10, 65, 64
11, 486240, Note_on_c, 10, 65, 80
11, 486336, Note_off_c, 10, 65, 64
11, 486480, Note_on_c, 10, 65, 80
11, 486576, Note_off_c, 10, 65, 64
11, 486720, Note_on_c, 10, 64, 80
11, 486816, Note_off_c, 10, 64, 64
11, 486960, Note_on_c, 10, 60, 80
11, 487056, Note_off_c, 10, 60, 64
11, 487200, Note_on_c, 10, 67, 80
11, 487296, Note_off_c, 10, 67, 64
11, 487320, Note_on_c, 10, 67, 80
11, 487416, Note_off_c, 10, 67, 64
11, 487440, Note_on_c, 10, 67, 80
11, 487536, Note_off_c, 10, 67, 64
11, 487560, Note_on_c, 10, 67, 80
11, 487656, Note_off_c, 10, 67, 64
11, 487680, Note_on_c, 10, 67, 120
11, 487776, Note_off_c, 10, 67, 64
11, 487800, Note_on_c, 10, 67, 80
11, 487896, Note_off_c, 10, 67, 64
11, 487920, Note_on_c, 10, 67, 80
11, 488016, Note_off_c, 10, 67, 64
11, 488040, Note_on_c, 10, 67, 80
11, 488136, Note_off_c, 10, 67, 64
11, 488160, Note_on_c, 10, 67, 80
11, 488256, Note_off_c, 10, 67, 64
11, 488280, Note_on_c, 10, 67, 80
11, 488376, Note_off_c, 10, 67, 64
11, 488400, Note_on_c, 10, 67, 80
11, 488496, Note_off_c, 10, 67, 64
11, 488520, Note_on_c, 10, 67, 80
11, 488616, Note_off_c, 10, 67, 64
11, 488640, Note_on_c, 10, 67, 120
11, 488736, Note_off_c, 10, 67, 64
11, 488760, Note_on_c, 10, 67, 80
11, 488856, Note_off_c, 10, 67, 64
11, 488880, Note_on_c, 10, 67, 80
11, 488976, Note_off_c, 10, 67, 64
11, 489000, Note_on_c, 10, 67, 80
11, 489096, Note_off_c, 10, 67, 64
11, 489120, Note_on_c, 10, 67, 80
11, 489216, Note_off_c, 10, 67, 64
11, 489240, Note_on_c, 10, 67, 80
11, 489336, Note_off_c, 10, 67, 64
11, 489360, Note_on_c, 10, 67, 80
11, 489456, Note_off_c, 10, 67, 64
11, 489480, Note_on_c, 10, 67, 80
11, 489576, Note_off_c, 10, 67, 64
11, 489600, Note_on_c, 10, 67, 120
11, 489696, Note_off_c, 10, 67, 64
11, 489720, Note_on_c, 10, 67, 80
11, 489816, Note_off_c, 10, 67, 64
11, 489840, Note_on_c, 10, 67, 80
11, 489936, Note_off_c, 10, 67, 64
11, 489960, Note_on_c, 10, 67, 80
11, 490056, Note_off_c, 10, 67, 64
11, 490080, Note_on_c, 10, 67, 80
11, 490176, Note_off_c, 10, 67, 64
11, 490200, Note_on_c, 10, 67, 80
11, 490296, Note_off_c, 10, 67, 64
11, 490320, Note_on_c, 10, 67, 80
11, 490416, Note_off_c, 10, 67, 64
11, 490440, Note_on_c, 10, 67, 80
11, 490536, Note_off_c, 10, 67, 64
11, 490560, Note_on_c, 10, 67, 120
11, 490656, Note_off_c, 10, 67, 64
11, 490680, Note_on_c, 10, 67, 80
11, 490776, Note_off_c, 10, 67, 64
11, 490800, Note_on_c, 10, 67, 80
11, 490896, Note_off_c, 10, 67, 64
11, 490920, Note_on_c, 10, 67, 80
11, 491016, Note_off_c, 10, 67, 64
11, 491040, Note_on_c, 10, 67, 80
11, 491136, Note_off_c, 10, 67, 64
11, 491160, Note_on_c, 10, 67, 80
11, 491256, Note_off_c, 10, 67, 64
11, 491280, Note_on_c, 10, 67, 80
11, 491376, Note_off_c, 10, 67, 64
11, 491400, Note_on_c, 10, 67, 80
11, 491496, Note_off_c, 10, 67, 64
11, 491520, Note_on_c, 10, 67, 120
11, 491616, Note_off_c, 10, 67, 64
11, 491640, Note_on_c, 10, 67, 80
11, 491736, Note_off_c, 10, 67, 64
11, 491760, Note_on_c, 10, 67, 80
11, 491856, Note_off_c, 10, 67, 64
11, 491880, Note_on_c, 10, 67, 80
11, 491976, Note_off_c, 10, 67, 64
11, 492000, Note_on_c, 10, 67, 80
11, 492096, Note_off_c, 10, 67, 64
11, 492120, Note_on_c, 10, 67, 80
11, 492216, Note_off_c, 10, 67, 64
11, 492240, Note_on_c, 10, 67, 80
11, 492336, Note_off_c, 10, 67, 64
11, 492360, Note_on_c, 10, 67, 80
11, 492456, Note_off_c, 10, 67, 64
11, 492480, Note_on_c, 10, 67, 120
11, 492576, Note_off_c, 10, 67, 64
11, 492600, Note_on_c, 10, 67, 80
11, 492696, Note_off_c, 10, 67, 64
11, 492720, Note_on_c, 10, 67, 80
11, 492816, Note_off_c, 10, 67, 64
11, 492840, Note_on_c, 10, 67, 80
11, 492936, Note_off_c, 10, 67, 64
11, 492960, Note_on_c, 10, 67, 80
11, 493056, Note_off_c, 10, 67, 64
11, 493080, Note_on_c, 10, 67, 80
11, 493176, Note_off_c, 10, 67, 64
11, 493200, Note_on_c, 10, 67, 80
11, 493296, Note_off_c, 10, 67, 64
11, 493320, Note_on_c, 10, 67, 80
11, 493416, Note_off_c, 10, 67, 64
11, 493440, Note_on_c, 10, 67, 80
11, 493536, Note_off_c, 10, 67, 64
11, 493560, Note_on_c, 10, 67, 80
11, 493656, Note_off_c, 10, 67, 64
11, 493680, Note_on_c, 10, 67, 80
11, 493776, Note_off_c, 10, 67, 64
11, 493800, Note_on_c, 10, 67, 80
11, 493896, Note_off_c, 10, 67, 64
11, 493920, Note_on_c, 10, 67, 120
11, 494016, Note_off_c, 10, 67, 64
11, 494040, Note_on_c, 10, 67, 80
11, 494136, Note_off_c, 10, 67, 64
11, 494160, Note_on_c, 10, 67, 80
11, 494256, Note_off_c, 10, 67, 64
11, 494280, Note_on_c, 10, 67, 80
11, 494376, Note_off_c, 10, 67, 64
11, 494400, Note_on_c, 10, 67, 80
11, 494496, Note_off_c, 10, 67, 64
11, 494520, Note_on_c, 10, 67, 80
11, 494616, Note_off_c, 10, 67, 64
11, 494640, Note_on_c, 10, 67, 80
11, 494736, Note_off_c, 10, 67, 64
11, 494760, Note_on_c, 10, 67, 80
11, 494856, Note_off_c, 10, 67, 64
11, 494880, Note_on_c, 10, 67, 120
11, 494976, Note_off_c, 10, 67, 64
11, 495000, Note_on_c, 10, 67, 80
11, 495096, Note_off_c, 10, 67, 64
11, 495120, Note_on_c, 10, 67, 80
11, 495216, Note_off_c, 10, 67, 64
11, 495240, Note_on_c, 10, 67, 80
11, 495336, Note_off_c, 10, 67, 64
11, 495360, Note_on_c, 10, 67, 80
11, 495456, Note_off_c, 10, 67, 64
11, 495480, Note_on_c, 10, 67, 80
11, 495576, Note_off_c, 10, 67, 64
11, 495600, Note_on_c, 10, 67, 80
11, 495696, Note_off_c, 10, 67, 64
11, 495720, Note_on_c, 10, 67, 80
11, 495816, Note_off_c, 10, 67, 64
11, 495840, Note_on_c, 10, 67, 120
11, 495936, Note_off_c, 10, 67, 64
11, 495960, Note_on_c, 10, 67, 80
11, 496056, Note_off_c, 10, 67, 64
11, 496080, Note_on_c, 10, 67, 80
11, 496176, Note_off_c, 10, 67, 64
11, 496200, Note_on_c, 10, 67, 80
11, 496296, Note_off_c, 10, 67, 64
11, 496320, Note_on_c, 10, 67, 80
11, 496416, Note_off_c, 10, 67, 64
11, 496440, Note_on_c, 10, 67, 80
11, 496536, Note_off_c, 10, 67, 64
11, 496560, Note_on_c, 10, 67, 80
11, 496656, Note_off_c, 10, 67, 64
11, 496680, Note_on_c, 10, 67, 80
11, 496776, Note_off_c, 10, 67, 64
11, 496800, Note_on_c, 10, 67, 120
11, 496896, Note_off_c, 10, 67, 64
11, 496920, Note_on_c, 10, 67, 80
11, 497016, Note_off_c, 10, 67, 64
11, 497040, Note_on_c, 10, 67, 80
11, 497136, Note_off_c, 10, 67, 64
11, 497160, Note_on_c, 10, 67, 80
11, 497256, Note_off_c, 10, 67, 64
11, 497280, Note_on_c, 10, 67, 80
11, 497376, Note_off_c, 10, 67, 64
11, 497400, Note_on_c, 10, 67, 80
11, 497496, Note_off_c, 10, 67, 64
11, 497520, Note_on_c, 10, 67, 80
11, 497616, Note_off_c, 10, 67, 64
11, 497640, Note_on_c, 10, 67, 80
11, 497736, Note_off_c, 10, 67, 64
11, 497760, Note_on_c, 10, 67, 120
11, 497856, Note_off_c, 10, 67, 64
11, 519840, Note_on_c, 10, 55, 99
11, 519936, Note_off_c, 10, 55, 64
11, 519960, Note_on_c, 10, 67, 99
11, 520056, Note_off_c, 10, 67, 64
11, 520080, Note_on_c, 10, 67, 99
11, 520176, Note_off_c, 10, 67, 64
11, 520200, Note_on_c, 10, 67, 99
11, 520296, Note_off_c, 10, 67, 64
11, 520320, Note_on_c, 10, 67, 99
11, 520416, Note_off_c, 10, 67, 64
11, 520440, Note_on_c, 10, 67, 99
11, 520536, Note_off_c, 10, 67, 64
11, 520560, Note_on_c, 10, 55, 99
11, 520656, Note_off_c, 10, 55, 64
11, 520680, Note_on_c, 10, 55, 99
11, 520776, Note_off_c, 10, 55, 64
11, 520800, Note_on_c, 10, 55, 99
11, 520896, Note_off_c, 10, 55, 64
11, 520920, Note_on_c, 10, 67, 99
11, 521016, Note_off_c, 10, 67, 64
11, 521040, Note_on_c, 10, 67, 99
11, 521136, Note_off_c, 10, 67, 64
11, 521160, Note_on_c, 10, 67, 99
11, 521256, Note_off_c, 10, 67, 64
11, 521280, Note_on_c, 10, 67, 99
11, 521376, Note_off_c, 10, 67, 64
11, 521400, Note_on_c, 10, 67, 99
11, 521496, Note_off_c, 10, 67, 64
11, 521520, Note_on_c, 10, 55, 99
11, 521616, Note_off_c, 10, 55, 64
11, 521640, Note_on_c, 10, 55, 99
11, 521736, Note_off_c, 10, 55, 64
11, 521760, Note_on_c, 10, 55, 99
11, 521856, Note_off_c, 10, 55, 64
11, 521880, Note_on_c, 10, 67, 99
11, 521976, Note_off_c, 10, 67, 64
11, 522000, Note_on_c, 10, 67, 99
11, 522096, Note_off_c, 10, 67, 64
11, 522120, Note_on_c, 10, 67, 99
11, 522216, Note_off_c, 10, 67, 64
11, 522240, Note_on_c, 10, 67, 99
11, 522336, Note_off_c, 10, 67, 64
11, 522360, Note_on_c, 10, 67, 99
11, 522456, Note_off_c, 10, 67, 64
11, 522480, Note_on_c, 10, 55, 99
11, 522576, Note_off_c, 10, 55, 64
11, 522600, Note_on_c, 10, 55, 99
11, 522696, Note_off_c, 10, 55, 64
11, 522720, Note_on_c, 10, 55, 99
11, 522816, Note_off_c, 10, 55, 64
11, 522840, Note_on_c, 10, 67, 99
11, 522936, Note_off_c, 10, 67, 64
11, 522960, Note_on_c, 10, 67, 99
11, 523056, Note_off_c, 10, 67, 64
11, 523080, Note_on_c, 10, 67, 99
11, 523176, Note_off_c, 10, 67, 64
11, 523200, Note_on_c, 10, 67, 99
11, 523296, Note_off_c, 10, 67, 64
11, 523320, Note_on_c, 10, 67, 99
11, 523416, Note_off_c, 10, 67, 64
11, 523440, Note_on_c, 10, 55, 99
11, 523536, Note_off_c, 10, 55, 64
11, 523560, Note_on_c, 10, 55, 99
11, 523656, Note_off_c, 10, 55, 64
11, 523680, Note_on_c, 10, 55, 99
11, 523776, Note_off_c, 10, 55, 64
11, 523800, Note_on_c, 10, 67, 99
11, 523896, Note_off_c, 10, 67, 64
11, 523920, Note_on_c, 10, 67, 99
11, 524016, Note_off_c, 10, 67, 64
11, 524040, Note_on_c, 10, 67, 99
11, 524136, Note_off_c, 10, 67, 64
11, 524160, Note_on_c, 10, 67, 99
11, 524256, Note_off_c, 10, 67, 64
11, 524280, Note_on_c, 10, 67, 99
11, 524376, Note_off_c, 10, 67, 64
11, 524400, Note_on_c, 10, 55, 99
11, 524496, Note_off_c, 10, 55, 64
11, 524520, Note_on_c, 10, 55, 99
11, 524616, Note_off_c, 10, 55, 64
11, 524640, Note_on_c, 10, 55, 99
11, 524736, Note_off_c, 10, 55, 64
11, 524760, Note_on_c, 10, 67, 99
11, 524856, Note_off_c, 10, 67, 64
11, 524880, Note_on_c, 10, 67, 99
11, 524976, Note_off_c, 10, 67, 64
11, 525000, Note_on_c, 10, 67, 99
11, 525096, Note_off_c, 10, 67, 64
11, 525120, Note_on_c, 10, 67, 99
11, 525216, Note_off_c, 10, 67, 64
11, 525240, Note_on_c, 10, 67, 99
11, 525336, Note_off_c, 10, 67, 64
11, 525360, Note_on_c, 10, 55, 99
11, 525456, Note_off_c, 10, 55, 64
11, 525480, Note_on_c, 10, 55, 99
11, 525576, Note_off_c, 10, 55, 64
11, 525600, Note_on_c, 10, 55, 99
11, 525696, Note_off_c, 10, 55, 64
11, 525720, Note_on_c, 10, 67, 99
11, 525816, Note_off_c, 10, 67, 64
11, 525840, Note_on_c, 10, 67, 99
11, 525936, Note_off_c, 10, 67, 64
11, 525960, Note_on_c, 10, 67, 99
11, 526056, Note_off_c, 10, 67, 64
11, 526080, Note_on_c, 10, 67, 99
11, 526176, Note_off_c, 10, 67, 64
11, 526200, Note_on_c, 10, 67, 99
11, 526296, Note_off_c, 10, 67, 64
11, 526320, Note_on_c, 10, 55, 99
11, 526416, Note_off_c, 10, 55, 64
11, 526440, Note_on_c, 10, 55, 99
11, 526536, Note_off_c, 10, 55, 64
11, 526560, Note_on_c, 10, 55, 99
11, 526656, Note_off_c, 10, 55, 64
11, 526680, Note_on_c, 10, 67, 99
11, 526776, Note_off_c, 10, 67, 64
11, 526800, Note_on_c, 10, 67, 99
11, 526896, Note_off_c, 10, 67, 64
11, 526920, Note_on_c, 10, 67, 99
11, 527016, Note_off_c, 10, 67, 64
11, 527040, Note_on_c, 10, 67, 99
11, 527136, Note_off_c, 10, 67, 64
11, 527160, Note_on_c, 10, 67, 99
11, 527256, Note_off_c, 10, 67, 64
11, 527280, Note_on_c, 10, 55, 99
11, 527376, Note_off_c, 10, 55, 64
11, 527400, Note_on_c, 10, 55, 99
11, 527496, Note_off_c, 10, 55, 64
11, 527520, Note_on_c, 10, 55, 99
11, 527616, Note_off_c, 10, 55, 64
11, 527640, Note_on_c, 10, 67, 99
11, 527736, Note_off_c, 10, 67, 64
11, 527760, Note_on_c, 10, 67, 99
11, 527856, Note_off_c, 10, 67, 64
11, 527880, Note_on_c, 10, 67, 99
11, 527976, Note_off_c, 10, 67, 64
11, 528000, Note_on_c, 10, 67, 99
11, 528096, Note_off_c, 10, 67, 64
11, 528120, Note_on_c, 10, 67, 99
11, 528216, Note_off_c, 10, 67, 64
11, 528240, Note_on_c, 10, 55, 99
11, 528336, Note_off_c, 10, 55, 64
11, 528360, Note_on_c, 10, 55, 99
11, 528456, Note_off_c, 10, 55, 64
11, 528480, Note_on_c, 10, 55, 99
11, 528576, Note_off_c, 10, 55, 64
11, 528600, Note_on_c, 10, 67, 99
11, 528696, Note_off_c, 10, 67, 64
11, 528720, Note_on_c, 10, 67, 99
11, 528816, Note_off_c, 10, 67, 64
11, 528840, Note_on_c, 10, 67, 99
11, 528936, Note_off_c, 10, 67, 64
11, 528960, Note_on_c, 10, 67, 99
11, 529056, Note_off_c, 10, 67, 64
11, 529080, Note_on_c, 10, 67, 99
11, 529176, Note_off_c, 10, 67, 64
11, 529200, Note_on_c, 10, 55, 99
11, 529296, Note_off_c, 10, 55, 64
11, 529320, Note_on_c, 10, 55, 99
11, 529416, Note_off_c, 10, 55, 64
11, 529440, Note_on_c, 10, 55, 99
11, 529536, Note_off_c, 10, 55, 64
11, 529560, Note_on_c, 10, 67, 99
11, 529656, Note_off_c, 10, 67, 64
11, 529680, Note_on_c, 10, 67, 99
11, 529776, Note_off_c, 10, 67, 64
11, 529800, Note_on_c, 10, 67, 99
11, 529896, Note_off_c, 10, 67, 64
11, 529920, Note_on_c, 10, 67, 99
11, 530016, Note_off_c, 10, 67, 64
11, 530040, Note_on_c, 10, 67, 99
11, 530136, Note_off_c, 10, 67, 64
11, 530160, Note_on_c, 10, 55, 99
11, 530256, Note_off_c, 10, 55, 64
11, 530280, Note_on_c, 10, 55, 99
11, 530376, Note_off_c, 10, 55, 64
11, 530400, Note_on_c, 10, 55, 99
11, 530496, Note_off_c, 10, 55, 64
11, 530520, Note_on_c, 10, 67, 99
11, 530616, Note_off_c, 10, 67, 64
11, 530640, Note_on_c, 10, 67, 99
11, 530736, Note_off_c, 10, 67, 64
11, 530760, Note_on_c, 10, 67, 99
11, 530856, Note_off_c, 10, 67, 64
11, 530880, Note_on_c, 10, 67, 99
11, 530976, Note_off_c, 10, 67, 64
11, 531000, Note_on_c, 10, 67, 99
11, 531096, Note_off_c, 10, 67, 64
11, 531120, Note_on_c, 10, 55, 99
11, 531216, Note_off_c, 10, 55, 64
11, 531240, Note_on_c, 10, 55, 99
11, 531336, Note_off_c, 10, 55, 64
11, 531360, Note_on_c, 10, 55, 99
11, 531456, Note_off_c, 10, 55, 64
11, 531480, Note_on_c, 10, 67, 99
11, 531576, Note_off_c, 10, 67, 64
11, 531600, Note_on_c, 10, 67, 99
11, 531696, Note_off_c, 10, 67, 64
11, 531720, Note_on_c, 10, 67, 99
11, 531816, Note_off_c, 10, 67, 64
11, 531840, Note_on_c, 10, 67, 99
11, 531936, Note_off_c, 10, 67, 64
11, 531960, Note_on_c, 10, 67, 99
11, 532056, Note_off_c, 10, 67, 64
11, 532080, Note_on_c, 10, 55, 99
11, 532176, Note_off_c, 10, 55, 64
11, 532200, Note_on_c, 10, 55, 99
11, 532296, Note_off_c, 10, 55, 64
11, 532320, Note_on_c, 10, 55, 99
11, 532416, Note_off_c, 10, 55, 64
11, 532440, Note_on_c, 10, 67, 99
11, 532536, Note_off_c, 10, 67, 64
11, 532560, Note_on_c, 10, 67, 99
11, 532656, Note_off_c, 10, 67, 64
11, 532680, Note_on_c, 10, 67, 99
11, 532776, Note_off_c, 10, 67, 64
11, 532800, Note_on_c, 10, 67, 99
11, 532896, Note_off_c, 10, 67, 64
11, 532920, Note_on_c, 10, 67, 99
11, 533016, Note_off_c, 10, 67, 64
11, 533040, Note_on_c, 10, 55, 99
11, 533136, Note_off_c, 10, 55, 64
11, 533160, Note_on_c, 10, 55, 99
11, 533256, Note_off_c, 10, 55, 64
11, 533280, Note_on_c, 10, 64, 99
11, 533376, Note_off_c, 10, 64, 64
11, 533400, Note_on_c, 10, 64, 99
11, 533496, Note_off_c, 10, 64, 64
11, 533520, Note_on_c, 10, 60, 99
11, 533616, Note_off_c, 10, 60, 64
11, 533640, Note_on_c, 10, 60, 99
11, 533736, Note_off_c, 10, 60, 64
11, 533760, Note_on_c, 10, 64, 99
11, 533856, Note_off_c, 10, 64, 64
11, 533880, Note_on_c, 10, 64, 99
11, 533976, Note_off_c, 10, 64, 64
11, 534000, Note_on_c, 10, 64, 99
11, 534096, Note_off_c, 10, 64, 64
11, 534120, Note_on_c, 10, 64, 99
11, 534216, Note_off_c, 10, 64, 64
11, 534240, Note_on_c, 10, 64, 99
11, 534336, Note_off_c, 10, 64, 64
11, 534360, Note_on_c, 10, 64, 99
11, 534456, Note_off_c, 10, 64, 64
11, 534480, Note_on_c, 10, 52, 99
11, 534576, Note_off_c, 10, 52, 64
11, 534600, Note_on_c, 10, 52, 99
11, 534696, Note_off_c, 10, 52, 64
11, 534720, Note_on_c, 10, 67, 99
11, 534816, Note_off_c, 10, 67, 64
11, 534840, Note_on_c, 10, 67, 99
11, 534936, Note_off_c, 10, 67, 64
11, 534960, Note_on_c, 10, 67, 99
11, 535056, Note_off_c, 10, 67, 64
11, 535080, Note_on_c, 10, 67, 99
11, 535176, Note_off_c, 10, 67, 64
11, 535200, Note_on_c, 10, 67, 124
11, 535296, Note_off_c, 10, 67, 64
11, 535320, Note_on_c, 10, 67, 84
11, 535416, Note_off_c, 10, 67, 64
11, 535440, Note_on_c, 10, 67, 84
11, 535536, Note_off_c, 10, 67, 64
11, 535560, Note_on_c, 10, 67, 84
11, 535656, Note_off_c, 10, 67, 64
11, 535680, Note_on_c, 10, 67, 84
11, 535776, Note_off_c, 10, 67, 64
11, 535800, Note_on_c, 10, 67, 84
11, 535896, Note_off_c, 10, 67, 64
11, 535920, Note_on_c, 10, 67, 84
11, 536016, Note_off_c, 10, 67, 64
11, 536040, Note_on_c, 10, 67, 84
11, 536136, Note_off_c, 10, 67, 64
11, 536160, Note_on_c, 10, 64, 124
11, 536256, Note_off_c, 10, 64, 64
11, 536280, Note_on_c, 10, 64, 84
11, 536376, Note_off_c, 10, 64, 64
11, 536400, Note_on_c, 10, 64, 84
11, 536496, Note_off_c, 10, 64, 64
11, 536520, Note_on_c, 10, 64, 84
11, 536616, Note_off_c, 10, 64, 64
11, 536640, Note_on_c, 10, 64, 84
11, 536736, Note_off_c, 10, 64, 64
11, 536760, Note_on_c, 10, 64, 84
11, 536856, Note_off_c, 10, 64, 64
11, 536880, Note_on_c, 10, 64, 84
11, 536976, Note_off_c, 10, 64, 64
11, 537000, Note_on_c, 10, 64, 84
11, 537096, Note_off_c, 10, 64, 64
11, 537120, Note_on_c, 10, 60, 124
11, 537216, Note_off_c, 10, 60, 64
11, 537240, Note_on_c, 10, 60, 84
11, 537336, Note_off_c, 10, 60, 64
11, 537360, Note_on_c, 10, 60, 84
11, 537456, Note_off_c, 10, 60, 64
11, 537480, Note_on_c, 10, 60, 84
11, 537576, Note_off_c, 10, 60, 64
11, 537600, Note_on_c, 10, 60, 84
11, 537696, Note_off_c, 10, 60, 64
11, 537720, Note_on_c, 10, 60, 84
11, 537816, Note_off_c, 10, 60, 64
11, 537840, Note_on_c, 10, 60, 84
11, 537936, Note_off_c, 10, 60, 64
11, 537960, Note_on_c, 10, 60, 84
11, 538056, Note_off_c, 10, 60, 64
11, 538080, Note_on_c, 10, 55, 124
11, 538176, Note_off_c, 10, 55, 64
11, 538200, Note_on_c, 10, 55, 84
11, 538296, Note_off_c, 10, 55, 64
11, 538320, Note_on_c, 10, 55, 84
11, 538416, Note_off_c, 10, 55, 64
11, 538440, Note_on_c, 10, 55, 84
11, 538536, Note_off_c, 10, 55, 64
11, 538560, Note_on_c, 10, 55, 84
11, 538656, Note_off_c, 10, 55, 64
11, 538680, Note_on_c, 10, 55, 84
11, 538776, Note_off_c, 10, 55, 64
11, 538800, Note_on_c, 10, 55, 84
11, 538896, Note_off_c, 10, 55, 64
11, 538920, Note_on_c, 10, 55, 84
11, 539016, Note_off_c, 10, 55, 64
11, 539040, Note_on_c, 10, 52, 124
11, 539136, Note_off_c, 10, 52, 64
11, 539160, Note_on_c, 10, 52, 84
11, 539256, Note_off_c, 10, 52, 64
11, 539280, Note_on_c, 10, 52, 84
11, 539376, Note_off_c, 10, 52, 64
11, 539400, Note_on_c, 10, 52, 84
11, 539496, Note_off_c, 10, 52, 64
11, 539520, Note_on_c, 10, 52, 84
11, 539616, Note_off_c, 10, 52, 64
11, 539640, Note_on_c, 10, 52, 84
11, 539736, Note_off_c, 10, 52, 64
11, 539760, Note_on_c, 10, 52, 84
11, 539856, Note_off_c, 10, 52, 64
11, 539880, Note_on_c, 10, 52, 84
11, 539976, Note_off_c, 10, 52, 64
11, 540000, Note_on_c, 10, 48, 124
11, 540096, Note_off_c, 10, 48, 64
11, 540120, Note_on_c, 10, 48, 84
11, 540216, Note_off_c, 10, 48, 64
11, 540240, Note_on_c, 10, 48, 84
11, 540336, Note_off_c, 10, 48, 64
11, 540360, Note_on_c, 10, 48, 84
11, 540456, Note_off_c, 10, 48, 64
11, 540480, Note_on_c, 10, 48, 84
11, 540576, Note_off_c, 10, 48, 64
11, 540600, Note_on_c, 10, 48, 84
11, 540696, Note_off_c, 10, 48, 64
11, 540720, Note_on_c, 10, 48, 84
11, 540816, Note_off_c, 10, 48, 64
11, 540840, Note_on_c, 10, 48, 84
11, 540936, Note_off_c, 10, 48, 64
11, 540960, Note_on_c, 10, 52, 124
11, 541056, Note_off_c, 10, 52, 64
11, 541080, Note_on_c, 10, 52, 84
11, 541176, Note_off_c, 10, 52, 64
11, 541200, Note_on_c, 10, 52, 84
11, 541296, Note_off_c, 10, 52, 64
11, 541320, Note_on_c, 10, 52, 84
11, 541416, Note_off_c, 10, 52, 64
11, 541440, Note_on_c, 10, 52, 84
11, 541536, Note_off_c, 10, 52, 64
11, 541560, Note_on_c, 10, 52, 84
11, 541656, Note_off_c, 10, 52, 64
11, 541680, Note_on_c, 10, 52, 84
11, 541776, Note_off_c, 10, 52, 64
11, 541800, Note_on_c, 10, 52, 84
11, 541896, Note_off_c, 10, 52, 64
11, 541920, Note_on_c, 10, 55, 124
11, 542016, Note_off_c, 10, 55, 64
11, 542040, Note_on_c, 10, 55, 84
11, 542136, Note_off_c, 10, 55, 64
11, 542160, Note_on_c, 10, 55, 84
11, 542256, Note_off_c, 10, 55, 64
11, 542280, Note_on_c, 10, 55, 84
11, 542376, Note_off_c, 10, 55, 64
11, 542400, Note_on_c, 10, 55, 84
11, 542496, Note_off_c, 10, 55, 64
11, 542520, Note_on_c, 10, 55, 84
11, 542616, Note_off_c, 10, 55, 64
11, 542640, Note_on_c, 10, 55, 84
11, 542736, Note_off_c, 10, 55, 64
11, 542760, Note_on_c, 10, 55, 84
11, 542856, Note_off_c, 10, 55, 64
11, 542880, Note_on_c, 10, 60, 124
11, 542976, Note_off_c, 10, 60, 64
11, 543000, Note_on_c, 10, 60, 84
11, 543096, Note_off_c, 10, 60, 64
11, 543120, Note_on_c, 10, 60, 84
11, 543216, Note_off_c, 10, 60, 64
11, 543240, Note_on_c, 10, 60, 84
11, 543336, Note_off_c, 10, 60, 64
11, 543360, Note_on_c, 10, 60, 84
11, 543456, Note_off_c, 10, 60, 64
11, 543480, Note_on_c, 10, 60, 84
11, 543576, Note_off_c, 10, 60, 64
11, 543600, Note_on_c, 10, 60, 84
11, 543696, Note_off_c, 10, 60, 64
11, 543720, Note_on_c, 10, 60, 84
11, 543816, Note_off_c, 10, 60, 64
11, 543840, Note_on_c, 10, 64, 124
11, 543936, Note_off_c, 10, 64, 64
11, 543960, Note_on_c, 10, 64, 84
11, 544056, Note_off_c, 10, 64, 64
11, 544080, Note_on_c, 10, 64, 84
11, 544176, Note_off_c, 10, 64, 64
11, 544200, Note_on_c, 10, 64, 84
11, 544296, Note_off_c, 10, 64, 64
11, 544320, Note_on_c, 10, 64, 84
11, 544416, Note_off_c, 10, 64, 64
11, 544440, Note_on_c, 10, 64, 84
11, 544536, Note_off_c, 10, 64, 64
11, 544560, Note_on_c, 10, 64, 84
11, 544656, Note_off_c, 10, 64, 64
11, 544680, Note_on_c, 10, 64, 84
11, 544776, Note_off_c, 10, 64, 64
11, 544800, Note_on_c, 10, 65, 127
11, 544896, Note_off_c, 10, 65, 64
11, 544920, Note_on_c, 10, 65, 127
11, 545016, Note_off_c, 10, 65, 64
11, 545040, Note_on_c, 10, 64, 127
11, 545136, Note_off_c, 10, 64, 64
11, 545160, Note_on_c, 10, 65, 127
11, 545256, Note_off_c, 10, 65, 64
11, 545280, Note_on_c, 10, 64, 127
11, 545376, Note_off_c, 10, 64, 64
11, 545400, Note_on_c, 10, 65, 127
11, 545496, Note_off_c, 10, 65, 64
11, 545520, Note_on_c, 10, 67, 127
11, 545616, Note_off_c, 10, 67, 64
11, 545640, Note_on_c, 10, 65, 127
11, 545736, Note_off_c, 10, 65, 64
11, 545760, Note_on_c, 10, 65, 127
11, 545856, Note_off_c, 10, 65, 64
11, 545880, Note_on_c, 10, 65, 127
11, 545976, Note_off_c, 10, 65, 64
11, 546000, Note_on_c, 10, 64, 127
11, 546096, Note_off_c, 10, 64, 64
11, 546120, Note_on_c, 10, 65, 127
11, 546216, Note_off_c, 10, 65, 64
11, 546240, Note_on_c, 10, 64, 127
11, 546336, Note_off_c, 10, 64, 64
11, 546360, Note_on_c, 10, 65, 127
11, 546456, Note_off_c, 10, 65, 64
11, 546480, Note_on_c, 10, 67, 127
11, 546576, Note_off_c, 10, 67, 64
11, 546600, Note_on_c, 10, 65, 127
11, 546696, Note_off_c, 10, 65, 64
11, 546720, Note_on_c, 10, 55, 127
11, 546720, Note_on_c, 10, 64, 127
11, 546912, Note_off_c, 10, 64, 64
11, 546912, Note_off_c, 10, 55, 64
11, 548640, Note_on_c, 10, 65, 127
11, 548736, Note_off_c, 10, 65, 64
11, 548760, Note_on_c, 10, 65, 127
11, 548856, Note_off_c, 10, 65, 64
11, 548880, Note_on_c, 10, 64, 127
11, 548976, Note_off_c, 10, 64, 64
11, 549000, Note_on_c, 10, 65, 127
11, 549096, Note_off_c, 10, 65, 64
11, 549120, Note_on_c, 10, 64, 127
11, 549216, Note_off_c, 10, 64, 64
11, 549240, Note_on_c, 10, 65, 127
11, 549336, Note_off_c, 10, 65, 64
11, 549360, Note_on_c, 10, 67, 127
11, 549456, Note_off_c, 10, 67, 64
11, 549480, Note_on_c, 10, 65, 127
11, 549576, Note_off_c, 10, 65, 64
11, 549600, Note_on_c, 10, 65, 127
11, 549696, Note_off_c, 10, 65, 64
11, 549720, Note_on_c, 10, 65, 127
11, 549816, Note_off_c, 10, 65, 64
11, 549840, Note_on_c, 10, 64, 127
11, 549936, Note_off_c, 10, 64, 64
11, 549960, Note_on_c, 10, 65, 127
11, 550056, Note_off_c, 10, 65, 64
11, 550080, Note_on_c, 10, 64, 127
11, 550176, Note_off_c, 10, 64, 64
11, 550200, Note_on_c, 10, 65, 127
11, 550296, Note_off_c, 10, 65, 64
11, 550320, Note_on_c, 10, 67, 127
11, 550416, Note_off_c, 10, 67, 64
11, 550440, Note_on_c, 10, 65, 127
11, 550536, Note_off_c, 10, 65, 64
11, 550560, Note_on_c, 10, 55, 127
11, 550560, Note_on_c, 10, 64, 127
11, 550752, Note_off_c, 10, 64, 64
11, 550752, Note_off_c, 10, 55, 64
11, 552480, Note_on_c, 10, 65, 127
11, 552576, Note_off_c, 10, 65, 64
11, 552600, Note_on_c, 10, 65, 127
11, 552696, Note_off_c, 10, 65, 64
11, 552720, Note_on_c, 10, 64, 127
11, 552816, Note_off_c, 10, 64, 64
11, 552840, Note_on_c, 10, 65, 127
11, 552936, Note_off_c, 10, 65, 64
11, 552960, Note_on_c, 10, 64, 127
11, 553056, Note_off_c, 10, 64, 64
11, 553080, Note_on_c, 10, 65, 127
11, 553176, Note_off_c, 10, 65, 64
11, 553200, Note_on_c, 10, 67, 127
11, 553296, Note_off_c, 10, 67, 64
11, 553320, Note_on_c, 10, 65, 127
11, 553416, Note_off_c, 10, 65, 64
11, 553440, Note_on_c, 10, 65, 127
11, 553536, Note_off_c, 10, 65, 64
11, 553560, Note_on_c, 10, 74, 127
11, 553656, Note_off_c, 10, 74, 64
11, 553680, Note_on_c, 10, 72, 127
11, 553776, Note_off_c, 10, 72, 64
11, 553800, Note_on_c, 10, 74, 127
11, 553896, Note_off_c, 10, 74, 64
11, 553920, Note_on_c, 10, 72, 127
11, 554016, Note_off_c, 10, 72, 64
11, 554040, Note_on_c, 10, 74, 127
11, 554136, Note_off_c, 10, 74, 64
11, 554160, Note_on_c, 10, 76, 127
11, 554256, Note_off_c, 10, 76, 64
11, 554280, Note_on_c, 10, 74, 127
11, 554376, Note_off_c, 10, 74, 64
11, 554400, Note_on_c, 10, 55, 127
11, 554400, Note_on_c, 10, 64, 127
11, 554592, Note_off_c, 10, 64, 64
11, 554592, Note_off_c, 10, 55, 64
11, 556320, Note_on_c, 10, 48, 127
11, 556320, Note_on_c, 10, 64, 127
11, 556320, Note_on_c, 10, 55, 127
11, 556512, Note_off_c, 10, 55, 64
11, 556512, Note_off_c, 10, 64, 64
11, 556512, Note_off_c, 10, 48, 64
11, 558240, Note_on_c, 10, 48, 127
11, 558240, Note_on_c, 10, 55, 127
11, 558240, Note_on_c, 10, 64, 127
11, 558432, Note_off_c, 10, 64, 64
11, 558432, Note_off_c, 10, 55, 64
11, 558432, Note_off_c, 10, 48, 64
11, 560160, Note_on_c, 10, 48, 127
11, 560352, Note_off_c, 10, 48, 64
11, 561120, Note_on_c, 10, 48, 127
11, 561312, Note_off_c, 10, 48, 64
11, 562320, Note_on_c, 10, 48, 127
11, 566386, Note_off_c, 10, 48, 64
11, 566386, End_track
12, 0, Start_track
12, 0, Title_t, "Celli"
12, 0, MIDI_port, 0
12, 0, Channel_prefix, 11
12, 0, Control_c, 11, 7, 89
12, 0, Control_c, 11, 10, 86
12, 0, Program_c, 11, 48
12, 480, Program_c, 11, 48
12, 480, Control_c, 11, 91, 85
12, 480, Control_c, 11, 93, 90
12, 480, Control_c, 11, 10, 88
12, 1920, Control_c, 11, 7, 90
12, 5760, Note_on_c, 11, 48, 114
12, 5904, Note_off_c, 11, 48, 64
12, 7680, Note_on_c, 11, 47, 114
12, 7824, Note_off_c, 11, 47, 64
12, 9600, Note_on_c, 11, 48, 114
12, 9744, Note_off_c, 11, 48, 64
12, 10560, Note_on_c, 11, 41, 114
12, 10704, Note_off_c, 11, 41, 64
12, 11520, Note_on_c, 11, 43, 114
12, 11664, Note_off_c, 11, 43, 64
12, 36960, Note_on_c, 11, 53, 43
12, 37344, Note_off_c, 11, 53, 64
12, 37920, Note_on_c, 11, 55, 43
12, 38304, Note_off_c, 11, 55, 64
12, 38880, Note_on_c, 11, 45, 43
12, 39264, Note_off_c, 11, 45, 64
12, 39840, Note_on_c, 11, 45, 43
12, 40224, Note_off_c, 11, 45, 64
12, 40800, Note_on_c, 11, 43, 43
12, 41184, Note_off_c, 11, 43, 64
12, 41760, Note_on_c, 11, 43, 43
12, 42144, Note_off_c, 11, 43, 64
12, 42720, Note_on_c, 11, 48, 43
12, 43104, Note_off_c, 11, 48, 64
12, 44160, Note_on_c, 11, 48, 79
12, 44958, Note_off_c, 11, 48, 64
12, 45000, Note_on_c, 11, 55, 79
12, 45096, Note_off_c, 11, 55, 64
12, 45120, Note_on_c, 11, 57, 79
12, 45600, Note_off_c, 11, 57, 64
12, 45600, Note_on_c, 11, 55, 79
12, 46080, Note_off_c, 11, 55, 64
12, 46080, Note_on_c, 11, 55, 79
12, 46560, Note_off_c, 11, 55, 64
12, 46560, Note_on_c, 11, 48, 79
12, 47010, Note_off_c, 11, 48, 64
12, 47040, Note_on_c, 11, 43, 79
12, 47520, Note_off_c, 11, 43, 64
12, 47520, Note_on_c, 11, 55, 67
12, 47904, Note_off_c, 11, 55, 64
12, 48000, Note_on_c, 11, 53, 79
12, 48900, Note_off_c, 11, 53, 64
12, 48960, Note_on_c, 11, 55, 79
12, 49440, Note_off_c, 11, 55, 64
12, 49440, Note_on_c, 11, 48, 79
12, 49920, Note_off_c, 11, 48, 64
12, 49920, Note_on_c, 11, 43, 79
12, 50400, Note_off_c, 11, 43, 64
12, 50400, Note_on_c, 11, 55, 79
12, 50850, Note_off_c, 11, 55, 64
12, 50880, Note_on_c, 11, 60, 79
12, 51600, Note_off_c, 11, 60, 64
12, 51840, Note_on_c, 11, 59, 90
12, 52762, Note_off_c, 11, 59, 64
12, 52800, Note_on_c, 11, 57, 90
12, 53722, Note_off_c, 11, 57, 64
12, 53760, Note_on_c, 11, 55, 90
12, 54452, Note_off_c, 11, 55, 64
12, 54480, Note_on_c, 11, 54, 90
12, 54710, Note_off_c, 11, 54, 64
12, 54720, Note_on_c, 11, 52, 90
12, 55180, Note_off_c, 11, 52, 64
12, 55200, Note_on_c, 11, 45, 90
12, 56140, Note_off_c, 11, 45, 64
12, 56160, Note_on_c, 11, 47, 90
12, 57542, Note_off_c, 11, 47, 64
12, 57600, Note_on_c, 11, 52, 72
12, 57984, Note_off_c, 11, 52, 64
12, 59520, Note_on_c, 11, 52, 72
12, 60288, Note_off_c, 11, 52, 64
12, 60480, Note_on_c, 11, 48, 72
12, 61248, Note_off_c, 11, 48, 64
12, 61440, Note_on_c, 11, 48, 72
12, 61824, Note_off_c, 11, 48, 64
12, 61920, Note_on_c, 11, 60, 72
12, 62304, Note_off_c, 11, 60, 64
12, 62400, Note_on_c, 11, 62, 72
12, 62880, Note_off_c, 11, 62, 64
12, 62880, Note_on_c, 11, 60, 72
12, 63360, Note_off_c, 11, 60, 64
12, 63360, Note_on_c, 11, 59, 72
12, 63744, Note_off_c, 11, 59, 64
12, 63840, Note_on_c, 11, 57, 72
12, 64224, Note_off_c, 11, 57, 64
12, 64320, Note_on_c, 11, 59, 72
12, 64350, Note_off_c, 11, 59, 64
12, 64350, Note_on_c, 11, 60, 72
12, 64380, Note_off_c, 11, 60, 64
12, 64380, Note_on_c, 11, 59, 72
12, 64410, Note_off_c, 11, 59, 64
12, 64410, Note_on_c, 11, 60, 72
12, 64440, Note_off_c, 11, 60, 64
12, 64440, Note_on_c, 11, 59, 72
12, 64470, Note_off_c, 11, 59, 64
12, 64470, Note_on_c, 11, 60, 72
12, 64500, Note_off_c, 11, 60, 64
12, 64500, Note_on_c, 11, 59, 72
12, 64530, Note_off_c, 11, 59, 64
12, 64530, Note_on_c, 11, 60, 72
12, 64560, Note_off_c, 11, 60, 64
12, 64560, Note_on_c, 11, 59, 72
12, 64590, Note_off_c, 11, 59, 64
12, 64590, Note_on_c, 11, 60, 72
12, 64620, Note_off_c, 11, 60, 64
12, 64620, Note_on_c, 11, 59, 72
12, 64650, Note_off_c, 11, 59, 64
12, 64650, Note_on_c, 11, 60, 72
12, 64680, Note_off_c, 11, 60, 64
12, 64680, Note_on_c, 11, 59, 72
12, 64710, Note_off_c, 11, 59, 64
12, 64710, Note_on_c, 11, 60, 72
12, 64740, Note_off_c, 11, 60, 64
12, 64740, Note_on_c, 11, 59, 72
12, 64770, Note_off_c, 11, 59, 64
12, 64770, Note_on_c, 11, 60, 72
12, 64800, Note_off_c, 11, 60, 64
12, 64800, Note_on_c, 11, 59, 72
12, 64830, Note_off_c, 11, 59, 64
12, 64830, Note_on_c, 11, 60, 72
12, 64860, Note_off_c, 11, 60, 64
12, 64860, Note_on_c, 11, 59, 72
12, 64890, Note_off_c, 11, 59, 64
12, 64890, Note_on_c, 11, 60, 72
12, 64920, Note_off_c, 11, 60, 64
12, 64920, Note_on_c, 11, 59, 72
12, 64950, Note_off_c, 11, 59, 64
12, 64950, Note_on_c, 11, 60, 72
12, 64980, Note_off_c, 11, 60, 64
12, 64980, Note_on_c, 11, 59, 72
12, 65010, Note_off_c, 11, 59, 64
12, 65010, Note_on_c, 11, 60, 72
12, 65040, Note_off_c, 11, 60, 64
12, 65040, Note_on_c, 11, 59, 72
12, 65070, Note_off_c, 11, 59, 64
12, 65070, Note_on_c, 11, 60, 72
12, 65100, Note_off_c, 11, 60, 64
12, 65100, Note_on_c, 11, 59, 72
12, 65130, Note_off_c, 11, 59, 64
12, 65130, Note_on_c, 11, 60, 72
12, 65160, Note_off_c, 11, 60, 64
12, 65160, Note_on_c, 11, 59, 72
12, 65190, Note_off_c, 11, 59, 64
12, 65190, Note_on_c, 11, 60, 72
12, 65220, Note_off_c, 11, 60, 64
12, 65220, Note_on_c, 11, 57, 72
12, 65250, Note_off_c, 11, 57, 64
12, 65250, Note_on_c, 11, 59, 72
12, 65280, Note_off_c, 11, 59, 64
12, 65280, Note_on_c, 11, 60, 76
12, 65664, Note_off_c, 11, 60, 64
12, 65760, Note_on_c, 11, 55, 76
12, 66144, Note_off_c, 11, 55, 64
12, 66240, Note_on_c, 11, 48, 76
12, 66480, Note_off_c, 11, 48, 64
12, 66480, Note_on_c, 11, 60, 76
12, 66594, Note_off_c, 11, 60, 64
12, 66600, Note_on_c, 11, 58, 76
12, 66714, Note_off_c, 11, 58, 64
12, 66720, Note_on_c, 11, 57, 76
12, 66960, Note_off_c, 11, 57, 64
12, 66960, Note_on_c, 11, 55, 76
12, 67200, Note_off_c, 11, 55, 64
12, 67200, Note_on_c, 11, 53, 101
12, 68064, Note_off_c, 11, 53, 64
12, 68160, Note_on_c, 11, 50, 101
12, 68544, Note_off_c, 11, 50, 64
12, 68640, Note_on_c, 11, 55, 101
12, 69090, Note_off_c, 11, 55, 64
12, 69120, Note_on_c, 11, 45, 101
12, 69570, Note_off_c, 11, 45, 64
12, 69600, Note_on_c, 11, 57, 101
12, 70500, Note_off_c, 11, 57, 64
12, 70560, Note_on_c, 11, 45, 72
12, 70944, Note_off_c, 11, 45, 64
12, 71040, Note_on_c, 11, 43, 72
12, 71808, Note_off_c, 11, 43, 64
12, 72000, Note_on_c, 11, 43, 72
12, 72768, Note_off_c, 11, 43, 64
12, 72960, Note_on_c, 11, 48, 72
12, 73344, Note_off_c, 11, 48, 64
12, 74880, Note_on_c, 11, 48, 90
12, 75024, Note_off_c, 11, 48, 64
12, 76800, Note_on_c, 11, 48, 90
12, 76944, Note_off_c, 11, 48, 64
12, 78720, Note_on_c, 11, 48, 90
12, 78864, Note_off_c, 11, 48, 64
12, 79680, Note_on_c, 11, 48, 90
12, 79824, Note_off_c, 11, 48, 64
12, 80640, Note_on_c, 11, 47, 90
12, 80784, Note_off_c, 11, 47, 64
12, 81120, Note_on_c, 11, 48, 90
12, 81264, Note_off_c, 11, 48, 64
12, 81600, Note_on_c, 11, 43, 90
12, 81744, Note_off_c, 11, 43, 64
12, 82560, Note_on_c, 11, 48, 72
12, 82704, Note_off_c, 11, 48, 64
12, 84480, Note_on_c, 11, 48, 72
12, 84624, Note_off_c, 11, 48, 64
12, 86400, Note_on_c, 11, 48, 72
12, 86544, Note_off_c, 11, 48, 64
12, 87360, Note_on_c, 11, 48, 72
12, 87504, Note_off_c, 11, 48, 64
12, 88320, Note_on_c, 11, 47, 72
12, 88464, Note_off_c, 11, 47, 64
12, 88800, Note_on_c, 11, 48, 72
12, 88944, Note_off_c, 11, 48, 64
12, 89280, Note_on_c, 11, 43, 72
12, 89424, Note_off_c, 11, 43, 64
12, 90240, Note_on_c, 11, 43, 72
12, 90384, Note_off_c, 11, 43, 64
12, 92160, Note_on_c, 11, 48, 72
12, 92304, Note_off_c, 11, 48, 64
12, 94080, Note_on_c, 11, 48, 72
12, 94224, Note_off_c, 11, 48, 64
12, 95040, Note_on_c, 11, 48, 72
12, 95184, Note_off_c, 11, 48, 64
12, 96000, Note_on_c, 11, 43, 72
12, 96144, Note_off_c, 11, 43, 64
12, 96480, Note_on_c, 11, 43, 72
12, 96624, Note_off_c, 11, 43, 64
12, 96960, Note_on_c, 11, 48, 72
12, 97104, Note_off_c, 11, 48, 64
12, 97920, Note_on_c, 11, 43, 72
12, 98064, Note_off_c, 11, 43, 64
12, 99840, Note_on_c, 11, 48, 72
12, 99984, Note_off_c, 11, 48, 64
12, 101760, Note_on_c, 11, 48, 72
12, 101904, Note_off_c, 11, 48, 64
12, 102720, Note_on_c, 11, 48, 72
12, 102864, Note_off_c, 11, 48, 64
12, 103680, Note_on_c, 11, 43, 72
12, 103824, Note_off_c, 11, 43, 64
12, 104160, Note_on_c, 11, 43, 72
12, 104304, Note_off_c, 11, 43, 64
12, 104640, Note_on_c, 11, 48, 72
12, 104784, Note_off_c, 11, 48, 64
12, 105600, Note_on_c, 11, 43, 36
12, 105984, Note_off_c, 11, 43, 64
12, 106080, Note_on_c, 11, 43, 36
12, 106224, Note_off_c, 11, 43, 64
12, 106440, Note_on_c, 11, 43, 36
12, 106488, Note_off_c, 11, 43, 64
12, 106560, Note_on_c, 11, 48, 36
12, 107136, Note_off_c, 11, 48, 64
12, 109440, Note_on_c, 11, 55, 32
12, 109512, Note_off_c, 11, 55, 64
12, 109680, Note_on_c, 11, 55, 32
12, 109752, Note_off_c, 11, 55, 64
12, 109920, Note_on_c, 11, 55, 32
12, 109992, Note_off_c, 11, 55, 64
12, 110160, Note_on_c, 11, 55, 32
12, 110232, Note_off_c, 11, 55, 64
12, 110400, Note_on_c, 11, 55, 32
12, 110472, Note_off_c, 11, 55, 64
12, 110640, Note_on_c, 11, 55, 32
12, 110712, Note_off_c, 11, 55, 64
12, 110880, Note_on_c, 11, 55, 32
12, 110952, Note_off_c, 11, 55, 64
12, 111120, Note_on_c, 11, 55, 32
12, 111192, Note_off_c, 11, 55, 64
12, 111360, Note_on_c, 11, 55, 32
12, 111432, Note_off_c, 11, 55, 64
12, 111600, Note_on_c, 11, 55, 32
12, 111672, Note_off_c, 11, 55, 64
12, 111840, Note_on_c, 11, 55, 32
12, 111912, Note_off_c, 11, 55, 64
12, 112080, Note_on_c, 11, 55, 32
12, 112152, Note_off_c, 11, 55, 64
12, 112320, Note_on_c, 11, 55, 32
12, 112392, Note_off_c, 11, 55, 64
12, 112560, Note_on_c, 11, 55, 32
12, 112632, Note_off_c, 11, 55, 64
12, 112800, Note_on_c, 11, 55, 32
12, 112872, Note_off_c, 11, 55, 64
12, 113040, Note_on_c, 11, 55, 32
12, 113112, Note_off_c, 11, 55, 64
12, 113280, Note_on_c, 11, 55, 32
12, 113352, Note_off_c, 11, 55, 64
12, 113520, Note_on_c, 11, 55, 32
12, 113592, Note_off_c, 11, 55, 64
12, 113760, Note_on_c, 11, 55, 32
12, 113832, Note_off_c, 11, 55, 64
12, 114000, Note_on_c, 11, 55, 32
12, 114072, Note_off_c, 11, 55, 64
12, 114240, Note_on_c, 11, 55, 32
12, 114312, Note_off_c, 11, 55, 64
12, 114480, Note_on_c, 11, 55, 32
12, 114552, Note_off_c, 11, 55, 64
12, 114720, Note_on_c, 11, 55, 32
12, 114792, Note_off_c, 11, 55, 64
12, 114960, Note_on_c, 11, 55, 32
12, 115032, Note_off_c, 11, 55, 64
12, 115200, Note_on_c, 11, 55, 32
12, 115272, Note_off_c, 11, 55, 64
12, 115440, Note_on_c, 11, 55, 32
12, 115512, Note_off_c, 11, 55, 64
12, 115680, Note_on_c, 11, 55, 32
12, 115752, Note_off_c, 11, 55, 64
12, 115920, Note_on_c, 11, 55, 32
12, 115992, Note_off_c, 11, 55, 64
12, 116160, Note_on_c, 11, 55, 32
12, 116232, Note_off_c, 11, 55, 64
12, 116400, Note_on_c, 11, 55, 32
12, 116472, Note_off_c, 11, 55, 64
12, 116640, Note_on_c, 11, 55, 32
12, 116712, Note_off_c, 11, 55, 64
12, 116880, Note_on_c, 11, 55, 32
12, 116952, Note_off_c, 11, 55, 64
12, 117120, Note_on_c, 11, 48, 45
12, 117648, Note_off_c, 11, 48, 64
12, 117720, Note_on_c, 11, 52, 45
12, 117768, Note_off_c, 11, 52, 64
12, 117840, Note_on_c, 11, 50, 45
12, 117888, Note_off_c, 11, 50, 64
12, 117960, Note_on_c, 11, 48, 45
12, 118008, Note_off_c, 11, 48, 64
12, 118080, Note_on_c, 11, 47, 45
12, 118128, Note_off_c, 11, 47, 64
12, 118200, Note_on_c, 11, 48, 45
12, 118248, Note_off_c, 11, 48, 64
12, 118320, Note_on_c, 11, 50, 45
12, 118368, Note_off_c, 11, 50, 64
12, 118440, Note_on_c, 11, 52, 45
12, 118488, Note_off_c, 11, 52, 64
12, 118560, Note_on_c, 11, 55, 45
12, 118608, Note_off_c, 11, 55, 64
12, 118680, Note_on_c, 11, 53, 45
12, 118728, Note_off_c, 11, 53, 64
12, 118800, Note_on_c, 11, 50, 45
12, 118848, Note_off_c, 11, 50, 64
12, 118920, Note_on_c, 11, 55, 45
12, 118968, Note_off_c, 11, 55, 64
12, 119040, Note_on_c, 11, 52, 57
12, 119088, Note_off_c, 11, 52, 64
12, 119160, Note_on_c, 11, 48, 57
12, 119208, Note_off_c, 11, 48, 64
12, 119280, Note_on_c, 11, 50, 57
12, 119328, Note_off_c, 11, 50, 64
12, 119400, Note_on_c, 11, 52, 57
12, 119448, Note_off_c, 11, 52, 64
12, 119520, Note_on_c, 11, 53, 57
12, 119568, Note_off_c, 11, 53, 64
12, 119640, Note_on_c, 11, 50, 57
12, 119688, Note_off_c, 11, 50, 64
12, 119760, Note_on_c, 11, 52, 57
12, 119808, Note_off_c, 11, 52, 64
12, 119880, Note_on_c, 11, 53, 57
12, 119928, Note_off_c, 11, 53, 64
12, 120000, Note_on_c, 11, 55, 57
12, 120048, Note_off_c, 11, 55, 64
12, 120120, Note_on_c, 11, 52, 57
12, 120168, Note_off_c, 11, 52, 64
12, 120240, Note_on_c, 11, 53, 57
12, 120288, Note_off_c, 11, 53, 64
12, 120360, Note_on_c, 11, 55, 57
12, 120408, Note_off_c, 11, 55, 64
12, 120480, Note_on_c, 11, 53, 45
12, 120528, Note_off_c, 11, 53, 64
12, 120600, Note_on_c, 11, 52, 45
12, 120648, Note_off_c, 11, 52, 64
12, 120720, Note_on_c, 11, 50, 45
12, 120768, Note_off_c, 11, 50, 64
12, 120840, Note_on_c, 11, 48, 45
12, 120888, Note_off_c, 11, 48, 64
12, 120960, Note_on_c, 11, 43, 36
12, 121488, Note_off_c, 11, 43, 64
12, 121560, Note_on_c, 11, 47, 41
12, 121608, Note_off_c, 11, 47, 64
12, 121680, Note_on_c, 11, 45, 42
12, 121728, Note_off_c, 11, 45, 64
12, 121800, Note_on_c, 11, 43, 43
12, 121848, Note_off_c, 11, 43, 64
12, 121920, Note_on_c, 11, 42, 44
12, 121968, Note_off_c, 11, 42, 64
12, 122040, Note_on_c, 11, 43, 45
12, 122088, Note_off_c, 11, 43, 64
12, 122160, Note_on_c, 11, 45, 46
12, 122208, Note_off_c, 11, 45, 64
12, 122280, Note_on_c, 11, 47, 47
12, 122328, Note_off_c, 11, 47, 64
12, 122400, Note_on_c, 11, 50, 48
12, 122448, Note_off_c, 11, 50, 64
12, 122520, Note_on_c, 11, 48, 49
12, 122568, Note_off_c, 11, 48, 64
12, 122640, Note_on_c, 11, 45, 50
12, 122688, Note_off_c, 11, 45, 64
12, 122760, Note_on_c, 11, 50, 50
12, 122808, Note_off_c, 11, 50, 64
12, 122880, Note_on_c, 11, 47, 52
12, 122928, Note_off_c, 11, 47, 64
12, 123000, Note_on_c, 11, 52, 53
12, 123048, Note_off_c, 11, 52, 64
12, 123120, Note_on_c, 11, 50, 54
12, 123168, Note_off_c, 11, 50, 64
12, 123240, Note_on_c, 11, 47, 55
12, 123288, Note_off_c, 11, 47, 64
12, 123360, Note_on_c, 11, 53, 56
12, 123408, Note_off_c, 11, 53, 64
12, 123480, Note_on_c, 11, 52, 57
12, 123528, Note_off_c, 11, 52, 64
12, 123600, Note_on_c, 11, 48, 58
12, 123648, Note_off_c, 11, 48, 64
12, 123720, Note_on_c, 11, 53, 59
12, 123768, Note_off_c, 11, 53, 64
12, 123840, Note_on_c, 11, 50, 59
12, 123888, Note_off_c, 11, 50, 64
12, 123960, Note_on_c, 11, 55, 60
12, 124008, Note_off_c, 11, 55, 64
12, 124080, Note_on_c, 11, 53, 61
12, 124128, Note_off_c, 11, 53, 64
12, 124200, Note_on_c, 11, 50, 63
12, 124248, Note_off_c, 11, 50, 64
12, 124320, Note_on_c, 11, 57, 64
12, 124368, Note_off_c, 11, 57, 64
12, 124440, Note_on_c, 11, 55, 65
12, 124488, Note_off_c, 11, 55, 64
12, 124560, Note_on_c, 11, 52, 66
12, 124608, Note_off_c, 11, 52, 64
12, 124680, Note_on_c, 11, 57, 67
12, 124728, Note_off_c, 11, 57, 64
12, 124800, Note_on_c, 11, 53, 68
12, 124848, Note_off_c, 11, 53, 64
12, 124920, Note_on_c, 11, 59, 68
12, 124968, Note_off_c, 11, 59, 64
12, 125040, Note_on_c, 11, 57, 69
12, 125088, Note_off_c, 11, 57, 64
12, 125160, Note_on_c, 11, 53, 70
12, 125208, Note_off_c, 11, 53, 64
12, 125280, Note_on_c, 11, 60, 71
12, 125328, Note_off_c, 11, 60, 64
12, 125400, Note_on_c, 11, 59, 72
12, 125448, Note_off_c, 11, 59, 64
12, 125520, Note_on_c, 11, 55, 74
12, 125568, Note_off_c, 11, 55, 64
12, 125640, Note_on_c, 11, 60, 75
12, 125688, Note_off_c, 11, 60, 64
12, 125760, Note_on_c, 11, 45, 76
12, 125808, Note_off_c, 11, 45, 64
12, 125880, Note_on_c, 11, 50, 77
12, 125928, Note_off_c, 11, 50, 64
12, 126000, Note_on_c, 11, 48, 77
12, 126048, Note_off_c, 11, 48, 64
12, 126120, Note_on_c, 11, 45, 78
12, 126168, Note_off_c, 11, 45, 64
12, 126240, Note_on_c, 11, 52, 79
12, 126288, Note_off_c, 11, 52, 64
12, 126360, Note_on_c, 11, 50, 80
12, 126408, Note_off_c, 11, 50, 64
12, 126480, Note_on_c, 11, 47, 81
12, 126528, Note_off_c, 11, 47, 64
12, 126600, Note_on_c, 11, 52, 82
12, 126648, Note_off_c, 11, 52, 64
12, 128160, Note_on_c, 11, 43, 108
12, 128208, Note_off_c, 11, 43, 64
12, 128220, Note_on_c, 11, 43, 108
12, 128268, Note_off_c, 11, 43, 64
12, 128280, Note_on_c, 11, 43, 108
12, 128328, Note_off_c, 11, 43, 64
12, 128340, Note_on_c, 11, 43, 108
12, 128388, Note_off_c, 11, 43, 64
12, 128400, Note_on_c, 11, 43, 108
12, 128448, Note_off_c, 11, 43, 64
12, 128460, Note_on_c, 11, 43, 108
12, 128508, Note_off_c, 11, 43, 64
12, 128520, Note_on_c, 11, 43, 108
12, 128568, Note_off_c, 11, 43, 64
12, 128580, Note_on_c, 11, 43, 108
12, 128628, Note_off_c, 11, 43, 64
12, 128640, Note_on_c, 11, 43, 108
12, 128688, Note_off_c, 11, 43, 64
12, 128700, Note_on_c, 11, 43, 108
12, 128748, Note_off_c, 11, 43, 64
12, 128760, Note_on_c, 11, 43, 108
12, 128808, Note_off_c, 11, 43, 64
12, 128820, Note_on_c, 11, 43, 108
12, 128868, Note_off_c, 11, 43, 64
12, 128880, Note_on_c, 11, 43, 108
12, 128928, Note_off_c, 11, 43, 64
12, 128940, Note_on_c, 11, 43, 108
12, 128988, Note_off_c, 11, 43, 64
12, 129000, Note_on_c, 11, 43, 108
12, 129048, Note_off_c, 11, 43, 64
12, 129060, Note_on_c, 11, 43, 108
12, 129108, Note_off_c, 11, 43, 64
12, 129120, Note_on_c, 11, 43, 108
12, 129168, Note_off_c, 11, 43, 64
12, 129180, Note_on_c, 11, 43, 108
12, 129228, Note_off_c, 11, 43, 64
12, 129240, Note_on_c, 11, 43, 108
12, 129288, Note_off_c, 11, 43, 64
12, 129300, Note_on_c, 11, 43, 108
12, 129348, Note_off_c, 11, 43, 64
12, 129360, Note_on_c, 11, 43, 108
12, 129408, Note_off_c, 11, 43, 64
12, 129420, Note_on_c, 11, 43, 108
12, 129468, Note_off_c, 11, 43, 64
12, 129480, Note_on_c, 11, 43, 108
12, 129528, Note_off_c, 11, 43, 64
12, 129540, Note_on_c, 11, 43, 108
12, 129588, Note_off_c, 11, 43, 64
12, 129600, Note_on_c, 11, 43, 108
12, 129648, Note_off_c, 11, 43, 64
12, 129660, Note_on_c, 11, 43, 108
12, 129708, Note_off_c, 11, 43, 64
12, 129720, Note_on_c, 11, 43, 108
12, 129768, Note_off_c, 11, 43, 64
12, 129780, Note_on_c, 11, 43, 108
12, 129828, Note_off_c, 11, 43, 64
12, 129840, Note_on_c, 11, 43, 108
12, 129888, Note_off_c, 11, 43, 64
12, 129900, Note_on_c, 11, 43, 108
12, 129948, Note_off_c, 11, 43, 64
12, 129960, Note_on_c, 11, 43, 108
12, 130008, Note_off_c, 11, 43, 64
12, 130020, Note_on_c, 11, 43, 108
12, 130068, Note_off_c, 11, 43, 64
12, 130080, Note_on_c, 11, 43, 108
12, 130128, Note_off_c, 11, 43, 64
12, 130140, Note_on_c, 11, 43, 108
12, 130188, Note_off_c, 11, 43, 64
12, 130200, Note_on_c, 11, 43, 108
12, 130248, Note_off_c, 11, 43, 64
12, 130260, Note_on_c, 11, 43, 108
12, 130308, Note_off_c, 11, 43, 64
12, 130320, Note_on_c, 11, 43, 108
12, 130368, Note_off_c, 11, 43, 64
12, 130380, Note_on_c, 11, 43, 108
12, 130428, Note_off_c, 11, 43, 64
12, 130440, Note_on_c, 11, 43, 108
12, 130488, Note_off_c, 11, 43, 64
12, 130500, Note_on_c, 11, 43, 108
12, 130548, Note_off_c, 11, 43, 64
12, 130560, Note_on_c, 11, 43, 108
12, 130608, Note_off_c, 11, 43, 64
12, 130620, Note_on_c, 11, 43, 108
12, 130668, Note_off_c, 11, 43, 64
12, 130680, Note_on_c, 11, 43, 108
12, 130728, Note_off_c, 11, 43, 64
12, 130740, Note_on_c, 11, 43, 108
12, 130788, Note_off_c, 11, 43, 64
12, 130800, Note_on_c, 11, 43, 108
12, 130848, Note_off_c, 11, 43, 64
12, 130860, Note_on_c, 11, 43, 108
12, 130908, Note_off_c, 11, 43, 64
12, 130920, Note_on_c, 11, 43, 108
12, 130968, Note_off_c, 11, 43, 64
12, 130980, Note_on_c, 11, 43, 108
12, 131028, Note_off_c, 11, 43, 64
12, 131040, Note_on_c, 11, 43, 108
12, 131088, Note_off_c, 11, 43, 64
12, 131100, Note_on_c, 11, 43, 108
12, 131148, Note_off_c, 11, 43, 64
12, 131160, Note_on_c, 11, 43, 108
12, 131208, Note_off_c, 11, 43, 64
12, 131220, Note_on_c, 11, 43, 108
12, 131268, Note_off_c, 11, 43, 64
12, 131280, Note_on_c, 11, 43, 108
12, 131328, Note_off_c, 11, 43, 64
12, 131340, Note_on_c, 11, 43, 108
12, 131388, Note_off_c, 11, 43, 64
12, 131400, Note_on_c, 11, 43, 108
12, 131448, Note_off_c, 11, 43, 64
12, 131460, Note_on_c, 11, 43, 108
12, 131508, Note_off_c, 11, 43, 64
12, 131520, Note_on_c, 11, 43, 108
12, 131568, Note_off_c, 11, 43, 64
12, 131580, Note_on_c, 11, 43, 108
12, 131628, Note_off_c, 11, 43, 64
12, 131640, Note_on_c, 11, 43, 108
12, 131688, Note_off_c, 11, 43, 64
12, 131700, Note_on_c, 11, 43, 108
12, 131748, Note_off_c, 11, 43, 64
12, 131760, Note_on_c, 11, 43, 108
12, 131808, Note_off_c, 11, 43, 64
12, 131820, Note_on_c, 11, 43, 108
12, 131868, Note_off_c, 11, 43, 64
12, 131880, Note_on_c, 11, 43, 108
12, 131928, Note_off_c, 11, 43, 64
12, 131940, Note_on_c, 11, 43, 108
12, 131988, Note_off_c, 11, 43, 64
12, 132000, Note_on_c, 11, 43, 108
12, 132048, Note_off_c, 11, 43, 64
12, 132060, Note_on_c, 11, 43, 108
12, 132108, Note_off_c, 11, 43, 64
12, 132120, Note_on_c, 11, 43, 108
12, 132168, Note_off_c, 11, 43, 64
12, 132180, Note_on_c, 11, 43, 108
12, 132228, Note_off_c, 11, 43, 64
12, 132240, Note_on_c, 11, 43, 108
12, 132288, Note_off_c, 11, 43, 64
12, 132300, Note_on_c, 11, 43, 108
12, 132348, Note_off_c, 11, 43, 64
12, 132360, Note_on_c, 11, 43, 108
12, 132408, Note_off_c, 11, 43, 64
12, 132420, Note_on_c, 11, 43, 108
12, 132468, Note_off_c, 11, 43, 64
12, 132480, Note_on_c, 11, 43, 108
12, 132528, Note_off_c, 11, 43, 64
12, 132540, Note_on_c, 11, 43, 108
12, 132588, Note_off_c, 11, 43, 64
12, 132600, Note_on_c, 11, 43, 108
12, 132648, Note_off_c, 11, 43, 64
12, 132660, Note_on_c, 11, 43, 108
12, 132708, Note_off_c, 11, 43, 64
12, 132720, Note_on_c, 11, 43, 108
12, 132768, Note_off_c, 11, 43, 64
12, 132780, Note_on_c, 11, 43, 108
12, 132828, Note_off_c, 11, 43, 64
12, 132840, Note_on_c, 11, 43, 108
12, 132888, Note_off_c, 11, 43, 64
12, 132900, Note_on_c, 11, 43, 108
12, 132948, Note_off_c, 11, 43, 64
12, 132960, Note_on_c, 11, 43, 108
12, 133008, Note_off_c, 11, 43, 64
12, 133020, Note_on_c, 11, 43, 108
12, 133068, Note_off_c, 11, 43, 64
12, 133080, Note_on_c, 11, 43, 108
12, 133128, Note_off_c, 11, 43, 64
12, 133140, Note_on_c, 11, 43, 108
12, 133188, Note_off_c, 11, 43, 64
12, 133200, Note_on_c, 11, 43, 108
12, 133248, Note_off_c, 11, 43, 64
12, 133260, Note_on_c, 11, 43, 108
12, 133308, Note_off_c, 11, 43, 64
12, 133320, Note_on_c, 11, 43, 108
12, 133368, Note_off_c, 11, 43, 64
12, 133380, Note_on_c, 11, 43, 108
12, 133428, Note_off_c, 11, 43, 64
12, 133440, Note_on_c, 11, 43, 108
12, 133488, Note_off_c, 11, 43, 64
12, 133500, Note_on_c, 11, 43, 108
12, 133548, Note_off_c, 11, 43, 64
12, 133560, Note_on_c, 11, 43, 108
12, 133608, Note_off_c, 11, 43, 64
12, 133620, Note_on_c, 11, 43, 108
12, 133668, Note_off_c, 11, 43, 64
12, 133680, Note_on_c, 11, 43, 108
12, 133728, Note_off_c, 11, 43, 64
12, 133740, Note_on_c, 11, 43, 108
12, 133788, Note_off_c, 11, 43, 64
12, 133800, Note_on_c, 11, 43, 108
12, 133848, Note_off_c, 11, 43, 64
12, 133860, Note_on_c, 11, 43, 108
12, 133908, Note_off_c, 11, 43, 64
12, 133920, Note_on_c, 11, 43, 108
12, 133968, Note_off_c, 11, 43, 64
12, 133980, Note_on_c, 11, 43, 108
12, 134028, Note_off_c, 11, 43, 64
12, 134040, Note_on_c, 11, 43, 108
12, 134088, Note_off_c, 11, 43, 64
12, 134100, Note_on_c, 11, 43, 108
12, 134148, Note_off_c, 11, 43, 64
12, 134160, Note_on_c, 11, 43, 108
12, 134208, Note_off_c, 11, 43, 64
12, 134220, Note_on_c, 11, 43, 108
12, 134268, Note_off_c, 11, 43, 64
12, 134280, Note_on_c, 11, 43, 108
12, 134328, Note_off_c, 11, 43, 64
12, 134340, Note_on_c, 11, 43, 108
12, 134388, Note_off_c, 11, 43, 64
12, 134400, Note_on_c, 11, 43, 108
12, 134448, Note_off_c, 11, 43, 64
12, 134460, Note_on_c, 11, 43, 108
12, 134508, Note_off_c, 11, 43, 64
12, 134520, Note_on_c, 11, 43, 108
12, 134568, Note_off_c, 11, 43, 64
12, 134580, Note_on_c, 11, 43, 108
12, 134628, Note_off_c, 11, 43, 64
12, 134640, Note_on_c, 11, 43, 108
12, 134688, Note_off_c, 11, 43, 64
12, 134700, Note_on_c, 11, 43, 108
12, 134748, Note_off_c, 11, 43, 64
12, 134760, Note_on_c, 11, 43, 108
12, 134808, Note_off_c, 11, 43, 64
12, 134820, Note_on_c, 11, 43, 108
12, 134868, Note_off_c, 11, 43, 64
12, 134880, Note_on_c, 11, 43, 108
12, 134928, Note_off_c, 11, 43, 64
12, 134940, Note_on_c, 11, 43, 108
12, 134988, Note_off_c, 11, 43, 64
12, 135000, Note_on_c, 11, 43, 108
12, 135048, Note_off_c, 11, 43, 64
12, 135060, Note_on_c, 11, 43, 108
12, 135108, Note_off_c, 11, 43, 64
12, 135120, Note_on_c, 11, 43, 108
12, 135168, Note_off_c, 11, 43, 64
12, 135180, Note_on_c, 11, 43, 108
12, 135228, Note_off_c, 11, 43, 64
12, 135240, Note_on_c, 11, 43, 108
12, 135288, Note_off_c, 11, 43, 64
12, 135300, Note_on_c, 11, 43, 108
12, 135348, Note_off_c, 11, 43, 64
12, 135360, Note_on_c, 11, 43, 108
12, 135408, Note_off_c, 11, 43, 64
12, 135420, Note_on_c, 11, 43, 108
12, 135468, Note_off_c, 11, 43, 64
12, 135480, Note_on_c, 11, 43, 108
12, 135528, Note_off_c, 11, 43, 64
12, 135540, Note_on_c, 11, 43, 108
12, 135588, Note_off_c, 11, 43, 64
12, 135600, Note_on_c, 11, 43, 108
12, 135648, Note_off_c, 11, 43, 64
12, 135660, Note_on_c, 11, 43, 108
12, 135708, Note_off_c, 11, 43, 64
12, 135720, Note_on_c, 11, 43, 108
12, 135768, Note_off_c, 11, 43, 64
12, 135780, Note_on_c, 11, 43, 108
12, 135828, Note_off_c, 11, 43, 64
12, 135840, Note_on_c, 11, 43, 108
12, 135888, Note_off_c, 11, 43, 64
12, 135900, Note_on_c, 11, 43, 108
12, 135948, Note_off_c, 11, 43, 64
12, 135960, Note_on_c, 11, 43, 108
12, 136008, Note_off_c, 11, 43, 64
12, 136020, Note_on_c, 11, 43, 108
12, 136068, Note_off_c, 11, 43, 64
12, 136080, Note_on_c, 11, 43, 108
12, 136128, Note_off_c, 11, 43, 64
12, 136140, Note_on_c, 11, 43, 108
12, 136188, Note_off_c, 11, 43, 64
12, 136200, Note_on_c, 11, 43, 108
12, 136248, Note_off_c, 11, 43, 64
12, 136260, Note_on_c, 11, 43, 108
12, 136308, Note_off_c, 11, 43, 64
12, 136320, Note_on_c, 11, 43, 81
12, 136368, Note_off_c, 11, 43, 64
12, 136380, Note_on_c, 11, 43, 81
12, 136428, Note_off_c, 11, 43, 64
12, 136440, Note_on_c, 11, 43, 80
12, 136488, Note_off_c, 11, 43, 64
12, 136500, Note_on_c, 11, 43, 79
12, 136548, Note_off_c, 11, 43, 64
12, 136560, Note_on_c, 11, 43, 79
12, 136608, Note_off_c, 11, 43, 64
12, 136620, Note_on_c, 11, 43, 78
12, 136668, Note_off_c, 11, 43, 64
12, 136680, Note_on_c, 11, 43, 78
12, 136728, Note_off_c, 11, 43, 64
12, 136740, Note_on_c, 11, 43, 77
12, 136788, Note_off_c, 11, 43, 64
12, 136800, Note_on_c, 11, 43, 77
12, 136848, Note_off_c, 11, 43, 64
12, 136860, Note_on_c, 11, 43, 77
12, 136908, Note_off_c, 11, 43, 64
12, 136920, Note_on_c, 11, 43, 76
12, 136968, Note_off_c, 11, 43, 64
12, 136980, Note_on_c, 11, 43, 75
12, 137028, Note_off_c, 11, 43, 64
12, 137040, Note_on_c, 11, 43, 75
12, 137088, Note_off_c, 11, 43, 64
12, 137100, Note_on_c, 11, 43, 74
12, 137148, Note_off_c, 11, 43, 64
12, 137160, Note_on_c, 11, 43, 73
12, 137208, Note_off_c, 11, 43, 64
12, 137220, Note_on_c, 11, 43, 73
12, 137268, Note_off_c, 11, 43, 64
12, 137280, Note_on_c, 11, 43, 72
12, 137328, Note_off_c, 11, 43, 64
12, 137340, Note_on_c, 11, 43, 72
12, 137388, Note_off_c, 11, 43, 64
12, 137400, Note_on_c, 11, 43, 71
12, 137448, Note_off_c, 11, 43, 64
12, 137460, Note_on_c, 11, 43, 70
12, 137508, Note_off_c, 11, 43, 64
12, 137520, Note_on_c, 11, 43, 70
12, 137568, Note_off_c, 11, 43, 64
12, 137580, Note_on_c, 11, 43, 69
12, 137628, Note_off_c, 11, 43, 64
12, 137640, Note_on_c, 11, 43, 68
12, 137688, Note_off_c, 11, 43, 64
12, 137700, Note_on_c, 11, 43, 68
12, 137748, Note_off_c, 11, 43, 64
12, 137760, Note_on_c, 11, 43, 68
12, 137808, Note_off_c, 11, 43, 64
12, 137820, Note_on_c, 11, 43, 68
12, 137868, Note_off_c, 11, 43, 64
12, 137880, Note_on_c, 11, 43, 67
12, 137928, Note_off_c, 11, 43, 64
12, 137940, Note_on_c, 11, 43, 66
12, 137988, Note_off_c, 11, 43, 64
12, 138000, Note_on_c, 11, 43, 66
12, 138048, Note_off_c, 11, 43, 64
12, 138060, Note_on_c, 11, 43, 65
12, 138108, Note_off_c, 11, 43, 64
12, 138120, Note_on_c, 11, 43, 64
12, 138168, Note_off_c, 11, 43, 64
12, 138180, Note_on_c, 11, 43, 64
12, 138228, Note_off_c, 11, 43, 64
12, 138240, Note_on_c, 11, 43, 63
12, 138288, Note_off_c, 11, 43, 64
12, 138300, Note_on_c, 11, 43, 63
12, 138348, Note_off_c, 11, 43, 64
12, 138360, Note_on_c, 11, 43, 62
12, 138408, Note_off_c, 11, 43, 64
12, 138420, Note_on_c, 11, 43, 61
12, 138468, Note_off_c, 11, 43, 64
12, 138480, Note_on_c, 11, 43, 61
12, 138528, Note_off_c, 11, 43, 64
12, 138540, Note_on_c, 11, 43, 60
12, 138588, Note_off_c, 11, 43, 64
12, 138600, Note_on_c, 11, 43, 59
12, 138648, Note_off_c, 11, 43, 64
12, 138660, Note_on_c, 11, 43, 59
12, 138708, Note_off_c, 11, 43, 64
12, 138720, Note_on_c, 11, 43, 59
12, 138768, Note_off_c, 11, 43, 64
12, 138780, Note_on_c, 11, 43, 58
12, 138828, Note_off_c, 11, 43, 64
12, 138840, Note_on_c, 11, 43, 58
12, 138888, Note_off_c, 11, 43, 64
12, 138900, Note_on_c, 11, 43, 57
12, 138948, Note_off_c, 11, 43, 64
12, 138960, Note_on_c, 11, 43, 57
12, 139008, Note_off_c, 11, 43, 64
12, 139020, Note_on_c, 11, 43, 56
12, 139068, Note_off_c, 11, 43, 64
12, 139080, Note_on_c, 11, 43, 55
12, 139128, Note_off_c, 11, 43, 64
12, 139140, Note_on_c, 11, 43, 55
12, 139188, Note_off_c, 11, 43, 64
12, 139200, Note_on_c, 11, 43, 54
12, 139248, Note_off_c, 11, 43, 64
12, 139260, Note_on_c, 11, 43, 53
12, 139308, Note_off_c, 11, 43, 64
12, 139320, Note_on_c, 11, 43, 53
12, 139368, Note_off_c, 11, 43, 64
12, 139380, Note_on_c, 11, 43, 52
12, 139428, Note_off_c, 11, 43, 64
12, 139440, Note_on_c, 11, 43, 52
12, 139488, Note_off_c, 11, 43, 64
12, 139500, Note_on_c, 11, 43, 51
12, 139548, Note_off_c, 11, 43, 64
12, 139560, Note_on_c, 11, 43, 50
12, 139608, Note_off_c, 11, 43, 64
12, 139620, Note_on_c, 11, 43, 50
12, 139668, Note_off_c, 11, 43, 64
12, 139680, Note_on_c, 11, 43, 50
12, 139728, Note_off_c, 11, 43, 64
12, 139740, Note_on_c, 11, 43, 49
12, 139788, Note_off_c, 11, 43, 64
12, 139800, Note_on_c, 11, 43, 49
12, 139848, Note_off_c, 11, 43, 64
12, 139860, Note_on_c, 11, 43, 48
12, 139908, Note_off_c, 11, 43, 64
12, 139920, Note_on_c, 11, 43, 48
12, 139968, Note_off_c, 11, 43, 64
12, 139980, Note_on_c, 11, 43, 47
12, 140028, Note_off_c, 11, 43, 64
12, 140040, Note_on_c, 11, 43, 46
12, 140088, Note_off_c, 11, 43, 64
12, 140100, Note_on_c, 11, 43, 46
12, 140148, Note_off_c, 11, 43, 64
12, 151680, Note_on_c, 11, 50, 23
12, 152640, Note_off_c, 11, 50, 64
12, 152640, Note_on_c, 11, 52, 23
12, 153600, Note_off_c, 11, 52, 64
12, 153600, Note_on_c, 11, 48, 20
12, 154680, Note_off_c, 11, 48, 64
12, 154680, Note_on_c, 11, 50, 16
12, 155700, Note_off_c, 11, 50, 64
12, 156600, Note_on_c, 11, 43, 29
12, 156640, Note_off_c, 11, 43, 64
12, 156640, Note_on_c, 11, 45, 29
12, 156680, Note_off_c, 11, 45, 64
12, 156680, Note_on_c, 11, 47, 29
12, 156720, Note_off_c, 11, 47, 64
12, 156720, Note_on_c, 11, 48, 29
12, 157200, Note_off_c, 11, 48, 64
12, 157560, Note_on_c, 11, 48, 29
12, 157620, Note_off_c, 11, 48, 64
12, 157620, Note_on_c, 11, 47, 29
12, 157680, Note_off_c, 11, 47, 64
12, 157680, Note_on_c, 11, 45, 29
12, 158160, Note_off_c, 11, 45, 64
12, 158520, Note_on_c, 11, 45, 29
12, 158560, Note_off_c, 11, 45, 64
12, 158560, Note_on_c, 11, 47, 29
12, 158600, Note_off_c, 11, 47, 64
12, 158600, Note_on_c, 11, 48, 29
12, 158640, Note_off_c, 11, 48, 64
12, 158640, Note_on_c, 11, 50, 29
12, 159120, Note_off_c, 11, 50, 64
12, 159480, Note_on_c, 11, 50, 29
12, 159540, Note_off_c, 11, 50, 64
12, 159540, Note_on_c, 11, 48, 29
12, 159600, Note_off_c, 11, 48, 64
12, 159600, Note_on_c, 11, 47, 29
12, 160080, Note_off_c, 11, 47, 64
12, 160440, Note_on_c, 11, 48, 29
12, 160500, Note_off_c, 11, 48, 64
12, 160500, Note_on_c, 11, 50, 29
12, 160560, Note_off_c, 11, 50, 64
12, 160560, Note_on_c, 11, 52, 29
12, 161040, Note_off_c, 11, 52, 64
12, 161400, Note_on_c, 11, 52, 29
12, 161460, Note_off_c, 11, 52, 64
12, 161460, Note_on_c, 11, 50, 29
12, 161520, Note_off_c, 11, 50, 64
12, 161520, Note_on_c, 11, 48, 29
12, 162000, Note_off_c, 11, 48, 64
12, 162360, Note_on_c, 11, 48, 29
12, 162400, Note_off_c, 11, 48, 64
12, 162400, Note_on_c, 11, 50, 29
12, 162440, Note_off_c, 11, 50, 64
12, 162440, Note_on_c, 11, 52, 29
12, 162480, Note_off_c, 11, 52, 64
12, 162480, Note_on_c, 11, 53, 29
12, 162960, Note_off_c, 11, 53, 64
12, 163320, Note_on_c, 11, 53, 29
12, 163380, Note_off_c, 11, 53, 64
12, 163380, Note_on_c, 11, 52, 29
12, 163440, Note_off_c, 11, 52, 64
12, 163440, Note_on_c, 11, 50, 32
12, 163680, Note_off_c, 11, 50, 64
12, 163680, Note_on_c, 11, 52, 33
12, 163800, Note_off_c, 11, 52, 64
12, 163800, Note_on_c, 11, 53, 33
12, 163920, Note_off_c, 11, 53, 64
12, 163920, Note_on_c, 11, 55, 34
12, 164016, Note_off_c, 11, 55, 64
12, 164160, Note_on_c, 11, 53, 36
12, 164256, Note_off_c, 11, 53, 64
12, 164400, Note_on_c, 11, 52, 38
12, 164640, Note_off_c, 11, 52, 64
12, 164640, Note_on_c, 11, 53, 39
12, 164760, Note_off_c, 11, 53, 64
12, 164760, Note_on_c, 11, 55, 40
12, 164880, Note_off_c, 11, 55, 64
12, 164880, Note_on_c, 11, 57, 41
12, 164976, Note_off_c, 11, 57, 64
12, 165120, Note_on_c, 11, 55, 41
12, 165216, Note_off_c, 11, 55, 64
12, 165360, Note_on_c, 11, 53, 43
12, 165600, Note_off_c, 11, 53, 64
12, 165600, Note_on_c, 11, 55, 45
12, 165720, Note_off_c, 11, 55, 64
12, 165720, Note_on_c, 11, 57, 45
12, 165840, Note_off_c, 11, 57, 64
12, 165840, Note_on_c, 11, 59, 46
12, 165936, Note_off_c, 11, 59, 64
12, 166080, Note_on_c, 11, 57, 48
12, 166176, Note_off_c, 11, 57, 64
12, 166320, Note_on_c, 11, 55, 50
12, 166560, Note_off_c, 11, 55, 64
12, 166560, Note_on_c, 11, 57, 50
12, 166680, Note_off_c, 11, 57, 64
12, 166680, Note_on_c, 11, 59, 51
12, 166800, Note_off_c, 11, 59, 64
12, 166800, Note_on_c, 11, 60, 52
12, 166896, Note_off_c, 11, 60, 64
12, 167040, Note_on_c, 11, 59, 53
12, 167136, Note_off_c, 11, 59, 64
12, 167280, Note_on_c, 11, 57, 55
12, 167520, Note_off_c, 11, 57, 64
12, 167520, Note_on_c, 11, 59, 57
12, 167640, Note_off_c, 11, 59, 64
12, 167640, Note_on_c, 11, 60, 57
12, 167760, Note_off_c, 11, 60, 64
12, 167760, Note_on_c, 11, 62, 58
12, 167856, Note_off_c, 11, 62, 64
12, 168000, Note_on_c, 11, 60, 59
12, 168096, Note_off_c, 11, 60, 64
12, 168240, Note_on_c, 11, 59, 61
12, 168480, Note_off_c, 11, 59, 64
12, 168480, Note_on_c, 11, 60, 62
12, 168600, Note_off_c, 11, 60, 64
12, 168600, Note_on_c, 11, 62, 63
12, 168720, Note_off_c, 11, 62, 64
12, 168720, Note_on_c, 11, 64, 64
12, 168816, Note_off_c, 11, 64, 64
12, 168960, Note_on_c, 11, 62, 65
12, 169056, Note_off_c, 11, 62, 64
12, 169200, Note_on_c, 11, 60, 67
12, 169440, Note_off_c, 11, 60, 64
12, 169440, Note_on_c, 11, 62, 68
12, 169560, Note_off_c, 11, 62, 64
12, 169560, Note_on_c, 11, 64, 68
12, 169680, Note_off_c, 11, 64, 64
12, 169680, Note_on_c, 11, 65, 69
12, 169776, Note_off_c, 11, 65, 64
12, 169920, Note_on_c, 11, 64, 71
12, 170016, Note_off_c, 11, 64, 64
12, 170160, Note_on_c, 11, 62, 73
12, 170400, Note_off_c, 11, 62, 64
12, 170400, Note_on_c, 11, 64, 74
12, 170520, Note_off_c, 11, 64, 64
12, 170520, Note_on_c, 11, 65, 75
12, 170640, Note_off_c, 11, 65, 64
12, 170640, Note_on_c, 11, 67, 76
12, 170736, Note_off_c, 11, 67, 64
12, 170880, Note_on_c, 11, 67, 77
12, 171000, Note_off_c, 11, 67, 64
12, 171000, Note_on_c, 11, 65, 77
12, 171120, Note_off_c, 11, 65, 64
12, 171120, Note_on_c, 11, 64, 78
12, 171216, Note_off_c, 11, 64, 64
12, 171360, Note_on_c, 11, 64, 80
12, 171480, Note_off_c, 11, 64, 64
12, 171480, Note_on_c, 11, 62, 80
12, 171600, Note_off_c, 11, 62, 64
12, 171600, Note_on_c, 11, 60, 81
12, 171696, Note_off_c, 11, 60, 64
12, 183600, Note_on_c, 11, 60, 108
12, 184368, Note_off_c, 11, 60, 64
12, 184560, Note_on_c, 11, 59, 114
12, 184800, Note_off_c, 11, 59, 64
12, 184800, Note_on_c, 11, 60, 114
12, 184920, Note_off_c, 11, 60, 64
12, 184920, Note_on_c, 11, 62, 114
12, 185040, Note_off_c, 11, 62, 64
12, 185040, Note_on_c, 11, 64, 127
12, 185136, Note_off_c, 11, 64, 64
12, 185280, Note_on_c, 11, 64, 114
12, 185376, Note_off_c, 11, 64, 64
12, 185520, Note_on_c, 11, 57, 114
12, 185760, Note_off_c, 11, 57, 64
12, 185760, Note_on_c, 11, 59, 114
12, 185880, Note_off_c, 11, 59, 64
12, 185880, Note_on_c, 11, 60, 114
12, 186000, Note_off_c, 11, 60, 64
12, 186000, Note_on_c, 11, 62, 127
12, 186096, Note_off_c, 11, 62, 64
12, 186240, Note_on_c, 11, 50, 114
12, 186336, Note_off_c, 11, 50, 64
12, 186480, Note_on_c, 11, 55, 114
12, 186720, Note_off_c, 11, 55, 64
12, 186720, Note_on_c, 11, 57, 114
12, 186840, Note_off_c, 11, 57, 64
12, 186840, Note_on_c, 11, 59, 114
12, 186960, Note_off_c, 11, 59, 64
12, 186960, Note_on_c, 11, 60, 127
12, 187056, Note_off_c, 11, 60, 64
12, 187200, Note_on_c, 11, 60, 114
12, 187296, Note_off_c, 11, 60, 64
12, 187440, Note_on_c, 11, 54, 114
12, 187680, Note_off_c, 11, 54, 64
12, 187680, Note_on_c, 11, 55, 114
12, 187800, Note_off_c, 11, 55, 64
12, 187800, Note_on_c, 11, 57, 114
12, 187920, Note_off_c, 11, 57, 64
12, 187920, Note_on_c, 11, 59, 127
12, 188016, Note_off_c, 11, 59, 64
12, 188160, Note_on_c, 11, 47, 114
12, 188256, Note_off_c, 11, 47, 64
12, 188400, Note_on_c, 11, 52, 114
12, 188640, Note_off_c, 11, 52, 64
12, 188640, Note_on_c, 11, 54, 114
12, 188760, Note_off_c, 11, 54, 64
12, 188760, Note_on_c, 11, 55, 114
12, 188880, Note_off_c, 11, 55, 64
12, 188880, Note_on_c, 11, 57, 127
12, 188976, Note_off_c, 11, 57, 64
12, 189120, Note_on_c, 11, 57, 114
12, 189216, Note_off_c, 11, 57, 64
12, 189360, Note_on_c, 11, 50, 114
12, 189600, Note_off_c, 11, 50, 64
12, 189600, Note_on_c, 11, 52, 114
12, 189720, Note_off_c, 11, 52, 64
12, 189720, Note_on_c, 11, 54, 114
12, 189840, Note_off_c, 11, 54, 64
12, 189840, Note_on_c, 11, 55, 114
12, 190080, Note_off_c, 11, 55, 64
12, 190080, Note_on_c, 11, 57, 114
12, 190200, Note_off_c, 11, 57, 64
12, 190200, Note_on_c, 11, 59, 114
12, 190320, Note_off_c, 11, 59, 64
12, 190320, Note_on_c, 11, 60, 114
12, 190416, Note_off_c, 11, 60, 64
12, 190560, Note_on_c, 11, 59, 114
12, 190656, Note_off_c, 11, 59, 64
12, 190680, Note_on_c, 11, 60, 114
12, 190776, Note_off_c, 11, 60, 64
12, 190800, Note_on_c, 11, 62, 127
12, 190896, Note_off_c, 11, 62, 64
12, 191040, Note_on_c, 11, 60, 114
12, 191136, Note_off_c, 11, 60, 64
12, 191280, Note_on_c, 11, 59, 114
12, 191376, Note_off_c, 11, 59, 64
12, 191520, Note_on_c, 11, 57, 114
12, 191616, Note_off_c, 11, 57, 64
12, 191640, Note_on_c, 11, 59, 114
12, 191736, Note_off_c, 11, 59, 64
12, 191760, Note_on_c, 11, 60, 127
12, 191856, Note_off_c, 11, 60, 64
12, 192000, Note_on_c, 11, 59, 114
12, 192096, Note_off_c, 11, 59, 64
12, 192240, Note_on_c, 11, 60, 114
12, 192336, Note_off_c, 11, 60, 64
12, 192480, Note_on_c, 11, 59, 114
12, 192576, Note_off_c, 11, 59, 64
12, 192600, Note_on_c, 11, 60, 114
12, 192696, Note_off_c, 11, 60, 64
12, 192720, Note_on_c, 11, 62, 127
12, 192816, Note_off_c, 11, 62, 64
12, 192960, Note_on_c, 11, 60, 114
12, 193056, Note_off_c, 11, 60, 64
12, 193200, Note_on_c, 11, 59, 108
12, 193584, Note_off_c, 11, 59, 64
12, 193680, Note_on_c, 11, 55, 108
12, 194064, Note_off_c, 11, 55, 64
12, 194160, Note_on_c, 11, 52, 111
12, 194400, Note_off_c, 11, 52, 64
12, 194400, Note_on_c, 11, 53, 111
12, 194520, Note_off_c, 11, 53, 64
12, 194520, Note_on_c, 11, 55, 111
12, 194640, Note_off_c, 11, 55, 64
12, 194640, Note_on_c, 11, 57, 127
12, 194736, Note_off_c, 11, 57, 64
12, 194880, Note_on_c, 11, 57, 111
12, 194976, Note_off_c, 11, 57, 64
12, 195120, Note_on_c, 11, 50, 111
12, 195360, Note_off_c, 11, 50, 64
12, 195360, Note_on_c, 11, 52, 111
12, 195480, Note_off_c, 11, 52, 64
12, 195480, Note_on_c, 11, 53, 111
12, 195600, Note_off_c, 11, 53, 64
12, 195600, Note_on_c, 11, 55, 127
12, 195696, Note_off_c, 11, 55, 64
12, 195840, Note_on_c, 11, 43, 111
12, 195936, Note_off_c, 11, 43, 64
12, 196080, Note_on_c, 11, 48, 111
12, 196320, Note_off_c, 11, 48, 64
12, 196320, Note_on_c, 11, 50, 111
12, 196440, Note_off_c, 11, 50, 64
12, 196440, Note_on_c, 11, 52, 111
12, 196560, Note_off_c, 11, 52, 64
12, 196560, Note_on_c, 11, 53, 127
12, 196656, Note_off_c, 11, 53, 64
12, 196800, Note_on_c, 11, 53, 111
12, 196896, Note_off_c, 11, 53, 64
12, 197040, Note_on_c, 11, 47, 111
12, 197280, Note_off_c, 11, 47, 64
12, 197280, Note_on_c, 11, 48, 111
12, 197400, Note_off_c, 11, 48, 64
12, 197400, Note_on_c, 11, 50, 111
12, 197520, Note_off_c, 11, 50, 64
12, 197520, Note_on_c, 11, 52, 127
12, 197616, Note_off_c, 11, 52, 64
12, 197760, Note_on_c, 11, 40, 111
12, 197856, Note_off_c, 11, 40, 64
12, 198000, Note_on_c, 11, 45, 111
12, 198240, Note_off_c, 11, 45, 64
12, 198240, Note_on_c, 11, 47, 111
12, 198360, Note_off_c, 11, 47, 64
12, 198360, Note_on_c, 11, 48, 111
12, 198480, Note_off_c, 11, 48, 64
12, 198480, Note_on_c, 11, 50, 127
12, 198576, Note_off_c, 11, 50, 64
12, 198720, Note_on_c, 11, 50, 111
12, 198816, Note_off_c, 11, 50, 64
12, 198960, Note_on_c, 11, 43, 111
12, 199200, Note_off_c, 11, 43, 64
12, 199200, Note_on_c, 11, 45, 111
12, 199320, Note_off_c, 11, 45, 64
12, 199320, Note_on_c, 11, 47, 111
12, 199440, Note_off_c, 11, 47, 64
12, 199440, Note_on_c, 11, 48, 111
12, 199680, Note_off_c, 11, 48, 64
12, 199680, Note_on_c, 11, 50, 111
12, 199800, Note_off_c, 11, 50, 64
12, 199800, Note_on_c, 11, 52, 111
12, 199920, Note_off_c, 11, 52, 64
12, 199920, Note_on_c, 11, 53, 111
12, 200016, Note_off_c, 11, 53, 64
12, 200160, Note_on_c, 11, 52, 111
12, 200256, Note_off_c, 11, 52, 64
12, 200280, Note_on_c, 11, 53, 111
12, 200376, Note_off_c, 11, 53, 64
12, 200400, Note_on_c, 11, 55, 127
12, 200496, Note_off_c, 11, 55, 64
12, 200640, Note_on_c, 11, 53, 111
12, 200736, Note_off_c, 11, 53, 64
12, 200880, Note_on_c, 11, 52, 111
12, 200976, Note_off_c, 11, 52, 64
12, 201120, Note_on_c, 11, 50, 111
12, 201216, Note_off_c, 11, 50, 64
12, 201240, Note_on_c, 11, 52, 111
12, 201336, Note_off_c, 11, 52, 64
12, 201360, Note_on_c, 11, 53, 127
12, 201456, Note_off_c, 11, 53, 64
12, 201600, Note_on_c, 11, 52, 111
12, 201696, Note_off_c, 11, 52, 64
12, 201840, Note_on_c, 11, 53, 111
12, 201936, Note_off_c, 11, 53, 64
12, 202080, Note_on_c, 11, 52, 111
12, 202176, Note_off_c, 11, 52, 64
12, 202200, Note_on_c, 11, 53, 111
12, 202296, Note_off_c, 11, 53, 64
12, 202320, Note_on_c, 11, 55, 127
12, 202416, Note_off_c, 11, 55, 64
12, 202560, Note_on_c, 11, 53, 111
12, 202656, Note_off_c, 11, 53, 64
12, 202800, Note_on_c, 11, 52, 111
12, 202896, Note_off_c, 11, 52, 64
12, 203040, Note_on_c, 11, 50, 111
12, 203136, Note_off_c, 11, 50, 64
12, 203280, Note_on_c, 11, 48, 111
12, 203376, Note_off_c, 11, 48, 64
12, 203520, Note_on_c, 11, 47, 111
12, 203616, Note_off_c, 11, 47, 64
12, 203640, Note_on_c, 11, 45, 111
12, 203736, Note_off_c, 11, 45, 64
12, 203760, Note_on_c, 11, 43, 72
12, 204240, Note_off_c, 11, 43, 64
12, 204240, Note_on_c, 11, 67, 72
12, 205104, Note_off_c, 11, 67, 64
12, 205200, Note_on_c, 11, 66, 72
12, 206064, Note_off_c, 11, 66, 64
12, 206160, Note_on_c, 11, 64, 72
12, 207024, Note_off_c, 11, 64, 64
12, 207120, Note_on_c, 11, 62, 72
12, 207984, Note_off_c, 11, 62, 64
12, 208080, Note_on_c, 11, 60, 72
12, 208944, Note_off_c, 11, 60, 64
12, 209040, Note_on_c, 11, 59, 72
12, 209424, Note_off_c, 11, 59, 64
12, 209520, Note_on_c, 11, 57, 89
12, 209616, Note_off_c, 11, 57, 64
12, 209640, Note_on_c, 11, 50, 89
12, 209736, Note_off_c, 11, 50, 64
12, 209760, Note_on_c, 11, 57, 89
12, 209856, Note_off_c, 11, 57, 64
12, 209880, Note_on_c, 11, 55, 89
12, 209976, Note_off_c, 11, 55, 64
12, 210000, Note_on_c, 11, 54, 89
12, 210096, Note_off_c, 11, 54, 64
12, 210120, Note_on_c, 11, 50, 89
12, 210216, Note_off_c, 11, 50, 64
12, 210240, Note_on_c, 11, 52, 89
12, 210336, Note_off_c, 11, 52, 64
12, 210360, Note_on_c, 11, 54, 89
12, 210456, Note_off_c, 11, 54, 64
12, 210480, Note_on_c, 11, 55, 89
12, 210576, Note_off_c, 11, 55, 64
12, 210600, Note_on_c, 11, 62, 89
12, 210696, Note_off_c, 11, 62, 64
12, 210720, Note_on_c, 11, 60, 89
12, 210816, Note_off_c, 11, 60, 64
12, 210840, Note_on_c, 11, 59, 89
12, 210936, Note_off_c, 11, 59, 64
12, 210960, Note_on_c, 11, 57, 89
12, 211056, Note_off_c, 11, 57, 64
12, 211080, Note_on_c, 11, 55, 89
12, 211176, Note_off_c, 11, 55, 64
12, 211200, Note_on_c, 11, 54, 89
12, 211296, Note_off_c, 11, 54, 64
12, 211320, Note_on_c, 11, 55, 89
12, 211416, Note_off_c, 11, 55, 64
12, 211440, Note_on_c, 11, 57, 89
12, 211536, Note_off_c, 11, 57, 64
12, 211560, Note_on_c, 11, 50, 89
12, 211656, Note_off_c, 11, 50, 64
12, 211680, Note_on_c, 11, 57, 89
12, 211776, Note_off_c, 11, 57, 64
12, 211800, Note_on_c, 11, 55, 89
12, 211896, Note_off_c, 11, 55, 64
12, 211920, Note_on_c, 11, 54, 89
12, 212016, Note_off_c, 11, 54, 64
12, 212040, Note_on_c, 11, 50, 89
12, 212136, Note_off_c, 11, 50, 64
12, 212160, Note_on_c, 11, 52, 89
12, 212256, Note_off_c, 11, 52, 64
12, 212280, Note_on_c, 11, 54, 89
12, 212376, Note_off_c, 11, 54, 64
12, 212400, Note_on_c, 11, 55, 89
12, 212496, Note_off_c, 11, 55, 64
12, 212520, Note_on_c, 11, 59, 89
12, 212616, Note_off_c, 11, 59, 64
12, 212640, Note_on_c, 11, 62, 89
12, 212736, Note_off_c, 11, 62, 64
12, 212760, Note_on_c, 11, 60, 89
12, 212856, Note_off_c, 11, 60, 64
12, 212880, Note_on_c, 11, 59, 89
12, 212976, Note_off_c, 11, 59, 64
12, 213000, Note_on_c, 11, 60, 89
12, 213096, Note_off_c, 11, 60, 64
12, 213120, Note_on_c, 11, 59, 89
12, 213216, Note_off_c, 11, 59, 64
12, 213240, Note_on_c, 11, 57, 89
12, 213336, Note_off_c, 11, 57, 64
12, 213360, Note_on_c, 11, 43, 89
12, 213456, Note_off_c, 11, 43, 64
12, 213600, Note_on_c, 11, 55, 89
12, 213696, Note_off_c, 11, 55, 64
12, 213840, Note_on_c, 11, 55, 89
12, 213936, Note_off_c, 11, 55, 64
12, 214080, Note_on_c, 11, 55, 89
12, 214176, Note_off_c, 11, 55, 64
12, 214320, Note_on_c, 11, 48, 89
12, 214416, Note_off_c, 11, 48, 64
12, 214560, Note_on_c, 11, 60, 89
12, 214656, Note_off_c, 11, 60, 64
12, 214800, Note_on_c, 11, 60, 89
12, 214896, Note_off_c, 11, 60, 64
12, 215040, Note_on_c, 11, 48, 89
12, 215136, Note_off_c, 11, 48, 64
12, 215280, Note_on_c, 11, 43, 114
12, 215376, Note_off_c, 11, 43, 64
12, 215520, Note_on_c, 11, 55, 114
12, 215616, Note_off_c, 11, 55, 64
12, 215760, Note_on_c, 11, 55, 114
12, 215856, Note_off_c, 11, 55, 64
12, 216000, Note_on_c, 11, 43, 114
12, 216096, Note_off_c, 11, 43, 64
12, 216240, Note_on_c, 11, 48, 114
12, 216336, Note_off_c, 11, 48, 64
12, 216360, Note_on_c, 11, 60, 114
12, 216456, Note_off_c, 11, 60, 64
12, 216480, Note_on_c, 11, 59, 114
12, 216576, Note_off_c, 11, 59, 64
12, 216600, Note_on_c, 11, 57, 114
12, 216696, Note_off_c, 11, 57, 64
12, 216720, Note_on_c, 11, 55, 114
12, 216816, Note_off_c, 11, 55, 64
12, 216840, Note_on_c, 11, 53, 114
12, 216936, Note_off_c, 11, 53, 64
12, 216960, Note_on_c, 11, 52, 114
12, 217056, Note_off_c, 11, 52, 64
12, 217080, Note_on_c, 11, 50, 114
12, 217176, Note_off_c, 11, 50, 64
12, 217200, Note_on_c, 11, 48, 114
12, 217584, Note_off_c, 11, 48, 64
12, 222960, Note_on_c, 11, 50, 89
12, 223056, Note_off_c, 11, 50, 64
12, 223080, Note_on_c, 11, 43, 89
12, 223176, Note_off_c, 11, 43, 64
12, 223200, Note_on_c, 11, 50, 89
12, 223296, Note_off_c, 11, 50, 64
12, 223320, Note_on_c, 11, 48, 89
12, 223416, Note_off_c, 11, 48, 64
12, 223440, Note_on_c, 11, 47, 89
12, 223536, Note_off_c, 11, 47, 64
12, 223560, Note_on_c, 11, 43, 89
12, 223656, Note_off_c, 11, 43, 64
12, 223680, Note_on_c, 11, 45, 89
12, 223776, Note_off_c, 11, 45, 64
12, 223800, Note_on_c, 11, 47, 89
12, 223896, Note_off_c, 11, 47, 64
12, 223920, Note_on_c, 11, 48, 89
12, 224016, Note_off_c, 11, 48, 64
12, 224040, Note_on_c, 11, 55, 89
12, 224136, Note_off_c, 11, 55, 64
12, 224160, Note_on_c, 11, 53, 89
12, 224256, Note_off_c, 11, 53, 64
12, 224280, Note_on_c, 11, 52, 89
12, 224376, Note_off_c, 11, 52, 64
12, 224400, Note_on_c, 11, 50, 89
12, 224496, Note_off_c, 11, 50, 64
12, 224520, Note_on_c, 11, 48, 89
12, 224616, Note_off_c, 11, 48, 64
12, 224640, Note_on_c, 11, 47, 89
12, 224736, Note_off_c, 11, 47, 64
12, 224760, Note_on_c, 11, 48, 89
12, 224856, Note_off_c, 11, 48, 64
12, 224880, Note_on_c, 11, 50, 89
12, 224976, Note_off_c, 11, 50, 64
12, 225000, Note_on_c, 11, 43, 89
12, 225096, Note_off_c, 11, 43, 64
12, 225120, Note_on_c, 11, 50, 89
12, 225216, Note_off_c, 11, 50, 64
12, 225240, Note_on_c, 11, 48, 89
12, 225336, Note_off_c, 11, 48, 64
12, 225360, Note_on_c, 11, 47, 89
12, 225456, Note_off_c, 11, 47, 64
12, 225480, Note_on_c, 11, 43, 89
12, 225576, Note_off_c, 11, 43, 64
12, 225600, Note_on_c, 11, 45, 89
12, 225696, Note_off_c, 11, 45, 64
12, 225720, Note_on_c, 11, 47, 89
12, 225816, Note_off_c, 11, 47, 64
12, 225840, Note_on_c, 11, 48, 89
12, 225936, Note_off_c, 11, 48, 64
12, 225960, Note_on_c, 11, 55, 89
12, 226056, Note_off_c, 11, 55, 64
12, 226080, Note_on_c, 11, 53, 89
12, 226176, Note_off_c, 11, 53, 64
12, 226200, Note_on_c, 11, 52, 89
12, 226296, Note_off_c, 11, 52, 64
12, 226320, Note_on_c, 11, 50, 89
12, 226416, Note_off_c, 11, 50, 64
12, 226440, Note_on_c, 11, 48, 89
12, 226536, Note_off_c, 11, 48, 64
12, 226560, Note_on_c, 11, 47, 89
12, 226656, Note_off_c, 11, 47, 64
12, 226680, Note_on_c, 11, 48, 89
12, 226776, Note_off_c, 11, 48, 64
12, 226800, Note_on_c, 11, 45, 127
12, 226896, Note_off_c, 11, 45, 64
12, 227040, Note_on_c, 11, 57, 89
12, 227136, Note_off_c, 11, 57, 64
12, 227280, Note_on_c, 11, 57, 89
12, 227376, Note_off_c, 11, 57, 64
12, 227520, Note_on_c, 11, 45, 89
12, 227616, Note_off_c, 11, 45, 64
12, 227760, Note_on_c, 11, 43, 127
12, 227856, Note_off_c, 11, 43, 64
12, 228000, Note_on_c, 11, 55, 89
12, 228096, Note_off_c, 11, 55, 64
12, 228240, Note_on_c, 11, 55, 89
12, 228336, Note_off_c, 11, 55, 64
12, 228480, Note_on_c, 11, 43, 89
12, 228576, Note_off_c, 11, 43, 64
12, 228720, Note_on_c, 11, 42, 127
12, 228816, Note_off_c, 11, 42, 64
12, 228960, Note_on_c, 11, 54, 89
12, 229056, Note_off_c, 11, 54, 64
12, 229200, Note_on_c, 11, 54, 89
12, 229296, Note_off_c, 11, 54, 64
12, 229440, Note_on_c, 11, 42, 89
12, 229536, Note_off_c, 11, 42, 64
12, 229680, Note_on_c, 11, 43, 127
12, 229776, Note_off_c, 11, 43, 64
12, 229920, Note_on_c, 11, 55, 89
12, 230016, Note_off_c, 11, 55, 64
12, 230160, Note_on_c, 11, 55, 89
12, 230256, Note_off_c, 11, 55, 64
12, 230400, Note_on_c, 11, 43, 89
12, 230496, Note_off_c, 11, 43, 64
12, 230640, Note_on_c, 11, 52, 127
12, 230736, Note_off_c, 11, 52, 64
12, 230880, Note_on_c, 11, 64, 89
12, 230976, Note_off_c, 11, 64, 64
12, 231120, Note_on_c, 11, 64, 89
12, 231216, Note_off_c, 11, 64, 64
12, 231360, Note_on_c, 11, 52, 89
12, 231456, Note_off_c, 11, 52, 64
12, 231600, Note_on_c, 11, 54, 127
12, 231696, Note_off_c, 11, 54, 64
12, 231720, Note_on_c, 11, 55, 89
12, 231816, Note_off_c, 11, 55, 64
12, 231840, Note_on_c, 11, 54, 89
12, 231936, Note_off_c, 11, 54, 64
12, 231960, Note_on_c, 11, 52, 89
12, 232056, Note_off_c, 11, 52, 64
12, 232080, Note_on_c, 11, 50, 89
12, 232176, Note_off_c, 11, 50, 64
12, 232200, Note_on_c, 11, 48, 89
12, 232296, Note_off_c, 11, 48, 64
12, 232320, Note_on_c, 11, 47, 89
12, 232416, Note_off_c, 11, 47, 64
12, 232440, Note_on_c, 11, 45, 89
12, 232536, Note_off_c, 11, 45, 64
12, 232560, Note_on_c, 11, 59, 111
12, 232800, Note_off_c, 11, 59, 64
12, 232800, Note_on_c, 11, 60, 111
12, 232920, Note_off_c, 11, 60, 64
12, 232920, Note_on_c, 11, 62, 111
12, 233040, Note_off_c, 11, 62, 64
12, 233040, Note_on_c, 11, 64, 127
12, 233136, Note_off_c, 11, 64, 64
12, 233280, Note_on_c, 11, 64, 111
12, 233376, Note_off_c, 11, 64, 64
12, 233520, Note_on_c, 11, 57, 111
12, 233760, Note_off_c, 11, 57, 64
12, 233760, Note_on_c, 11, 59, 111
12, 233880, Note_off_c, 11, 59, 64
12, 233880, Note_on_c, 11, 60, 111
12, 234000, Note_off_c, 11, 60, 64
12, 234000, Note_on_c, 11, 62, 127
12, 234096, Note_off_c, 11, 62, 64
12, 234240, Note_on_c, 11, 50, 111
12, 234336, Note_off_c, 11, 50, 64
12, 234480, Note_on_c, 11, 55, 111
12, 234720, Note_off_c, 11, 55, 64
12, 234720, Note_on_c, 11, 57, 111
12, 234840, Note_off_c, 11, 57, 64
12, 234840, Note_on_c, 11, 59, 111
12, 234960, Note_off_c, 11, 59, 64
12, 234960, Note_on_c, 11, 60, 127
12, 235056, Note_off_c, 11, 60, 64
12, 235200, Note_on_c, 11, 60, 111
12, 235296, Note_off_c, 11, 60, 64
12, 235440, Note_on_c, 11, 54, 111
12, 235680, Note_off_c, 11, 54, 64
12, 235680, Note_on_c, 11, 55, 111
12, 235800, Note_off_c, 11, 55, 64
12, 235800, Note_on_c, 11, 57, 111
12, 235920, Note_off_c, 11, 57, 64
12, 235920, Note_on_c, 11, 59, 127
12, 236016, Note_off_c, 11, 59, 64
12, 236160, Note_on_c, 11, 47, 111
12, 236256, Note_off_c, 11, 47, 64
12, 236400, Note_on_c, 11, 64, 111
12, 236640, Note_off_c, 11, 64, 64
12, 236640, Note_on_c, 11, 66, 111
12, 236760, Note_off_c, 11, 66, 64
12, 236760, Note_on_c, 11, 67, 111
12, 236880, Note_off_c, 11, 67, 64
12, 236880, Note_on_c, 11, 69, 127
12, 236976, Note_off_c, 11, 69, 64
12, 237120, Note_on_c, 11, 69, 111
12, 237216, Note_off_c, 11, 69, 64
12, 237360, Note_on_c, 11, 62, 111
12, 237600, Note_off_c, 11, 62, 64
12, 237600, Note_on_c, 11, 64, 111
12, 237720, Note_off_c, 11, 64, 64
12, 237720, Note_on_c, 11, 66, 111
12, 237840, Note_off_c, 11, 66, 64
12, 237840, Note_on_c, 11, 67, 111
12, 237954, Note_off_c, 11, 67, 64
12, 237960, Note_on_c, 11, 55, 111
12, 238080, Note_off_c, 11, 55, 64
12, 238080, Note_on_c, 11, 57, 111
12, 238200, Note_off_c, 11, 57, 64
12, 238200, Note_on_c, 11, 59, 111
12, 238320, Note_off_c, 11, 59, 64
12, 238320, Note_on_c, 11, 60, 127
12, 238416, Note_off_c, 11, 60, 64
12, 238560, Note_on_c, 11, 59, 111
12, 238656, Note_off_c, 11, 59, 64
12, 238680, Note_on_c, 11, 60, 127
12, 238776, Note_off_c, 11, 60, 64
12, 238800, Note_on_c, 11, 62, 127
12, 238896, Note_off_c, 11, 62, 64
12, 239040, Note_on_c, 11, 60, 111
12, 239136, Note_off_c, 11, 60, 64
12, 239280, Note_on_c, 11, 59, 111
12, 239376, Note_off_c, 11, 59, 64
12, 239520, Note_on_c, 11, 57, 111
12, 239616, Note_off_c, 11, 57, 64
12, 239640, Note_on_c, 11, 59, 111
12, 239736, Note_off_c, 11, 59, 64
12, 239760, Note_on_c, 11, 60, 127
12, 239856, Note_off_c, 11, 60, 64
12, 240000, Note_on_c, 11, 59, 111
12, 240096, Note_off_c, 11, 59, 64
12, 240240, Note_on_c, 11, 65, 127
12, 240336, Note_off_c, 11, 65, 64
12, 240480, Note_on_c, 11, 64, 111
12, 240576, Note_off_c, 11, 64, 64
12, 240600, Note_on_c, 11, 65, 111
12, 240696, Note_off_c, 11, 65, 64
12, 240720, Note_on_c, 11, 67, 127
12, 240816, Note_off_c, 11, 67, 64
12, 240960, Note_on_c, 11, 65, 111
12, 241056, Note_off_c, 11, 65, 64
12, 241200, Note_on_c, 11, 64, 111
12, 241296, Note_off_c, 11, 64, 64
12, 241440, Note_on_c, 11, 62, 111
12, 241536, Note_off_c, 11, 62, 64
12, 241560, Note_on_c, 11, 64, 111
12, 241656, Note_off_c, 11, 64, 64
12, 241680, Note_on_c, 11, 65, 127
12, 241776, Note_off_c, 11, 65, 64
12, 241920, Note_on_c, 11, 64, 111
12, 242016, Note_off_c, 11, 64, 64
12, 242160, Note_on_c, 11, 65, 127
12, 242256, Note_off_c, 11, 65, 64
12, 242400, Note_on_c, 11, 64, 89
12, 242496, Note_off_c, 11, 64, 64
12, 242520, Note_on_c, 11, 65, 89
12, 242616, Note_off_c, 11, 65, 64
12, 242640, Note_on_c, 11, 67, 109
12, 242736, Note_off_c, 11, 67, 64
12, 242880, Note_on_c, 11, 65, 89
12, 242976, Note_off_c, 11, 65, 64
12, 243120, Note_on_c, 11, 64, 89
12, 243192, Note_off_c, 11, 64, 64
12, 243240, Note_on_c, 11, 65, 89
12, 243312, Note_off_c, 11, 65, 64
12, 243360, Note_on_c, 11, 64, 89
12, 243432, Note_off_c, 11, 64, 64
12, 243480, Note_on_c, 11, 62, 89
12, 243552, Note_off_c, 11, 62, 64
12, 243600, Note_on_c, 11, 60, 89
12, 243672, Note_off_c, 11, 60, 64
12, 243720, Note_on_c, 11, 58, 89
12, 243792, Note_off_c, 11, 58, 64
12, 243840, Note_on_c, 11, 57, 89
12, 243912, Note_off_c, 11, 57, 64
12, 243960, Note_on_c, 11, 55, 89
12, 244032, Note_off_c, 11, 55, 64
12, 244080, Note_on_c, 11, 53, 43
12, 244176, Note_off_c, 11, 53, 64
12, 244200, Note_on_c, 11, 60, 43
12, 244296, Note_off_c, 11, 60, 64
12, 244320, Note_on_c, 11, 60, 43
12, 244416, Note_off_c, 11, 60, 64
12, 244440, Note_on_c, 11, 60, 43
12, 244536, Note_off_c, 11, 60, 64
12, 244560, Note_on_c, 11, 60, 43
12, 244656, Note_off_c, 11, 60, 64
12, 244680, Note_on_c, 11, 60, 43
12, 244776, Note_off_c, 11, 60, 64
12, 244800, Note_on_c, 11, 60, 43
12, 244896, Note_off_c, 11, 60, 64
12, 244920, Note_on_c, 11, 60, 43
12, 245016, Note_off_c, 11, 60, 64
12, 245040, Note_on_c, 11, 60, 43
12, 245136, Note_off_c, 11, 60, 64
12, 245160, Note_on_c, 11, 60, 43
12, 245256, Note_off_c, 11, 60, 64
12, 245280, Note_on_c, 11, 60, 43
12, 245376, Note_off_c, 11, 60, 64
12, 245400, Note_on_c, 11, 60, 43
12, 245496, Note_off_c, 11, 60, 64
12, 245520, Note_on_c, 11, 60, 43
12, 245616, Note_off_c, 11, 60, 64
12, 245640, Note_on_c, 11, 60, 43
12, 245736, Note_off_c, 11, 60, 64
12, 245760, Note_on_c, 11, 62, 43
12, 245856, Note_off_c, 11, 62, 64
12, 245880, Note_on_c, 11, 64, 43
12, 245976, Note_off_c, 11, 64, 64
12, 246000, Note_on_c, 11, 65, 36
12, 246384, Note_off_c, 11, 65, 64
12, 256560, Note_on_c, 11, 50, 39
12, 256608, Note_off_c, 11, 50, 64
12, 256680, Note_on_c, 11, 57, 39
12, 256728, Note_off_c, 11, 57, 64
12, 256800, Note_on_c, 11, 55, 39
12, 256848, Note_off_c, 11, 55, 64
12, 256920, Note_on_c, 11, 53, 39
12, 256968, Note_off_c, 11, 53, 64
12, 257040, Note_on_c, 11, 52, 39
12, 257088, Note_off_c, 11, 52, 64
12, 257160, Note_on_c, 11, 50, 39
12, 257208, Note_off_c, 11, 50, 64
12, 257280, Note_on_c, 11, 49, 39
12, 257328, Note_off_c, 11, 49, 64
12, 257400, Note_on_c, 11, 50, 39
12, 257448, Note_off_c, 11, 50, 64
12, 257520, Note_on_c, 11, 45, 29
12, 257616, Note_off_c, 11, 45, 64
12, 257760, Note_on_c, 11, 57, 29
12, 257856, Note_off_c, 11, 57, 64
12, 258000, Note_on_c, 11, 57, 29
12, 258096, Note_off_c, 11, 57, 64
12, 258240, Note_on_c, 11, 45, 29
12, 258336, Note_off_c, 11, 45, 64
12, 258480, Note_on_c, 11, 45, 29
12, 258576, Note_off_c, 11, 45, 64
12, 258720, Note_on_c, 11, 57, 29
12, 258816, Note_off_c, 11, 57, 64
12, 258960, Note_on_c, 11, 57, 29
12, 259056, Note_off_c, 11, 57, 64
12, 259200, Note_on_c, 11, 45, 29
12, 259296, Note_off_c, 11, 45, 64
12, 259440, Note_on_c, 11, 45, 29
12, 259536, Note_off_c, 11, 45, 64
12, 259680, Note_on_c, 11, 57, 29
12, 259776, Note_off_c, 11, 57, 64
12, 259920, Note_on_c, 11, 57, 29
12, 260016, Note_off_c, 11, 57, 64
12, 260160, Note_on_c, 11, 45, 29
12, 260256, Note_off_c, 11, 45, 64
12, 260400, Note_on_c, 11, 45, 29
12, 260496, Note_off_c, 11, 45, 64
12, 260640, Note_on_c, 11, 57, 29
12, 260736, Note_off_c, 11, 57, 64
12, 260880, Note_on_c, 11, 57, 29
12, 260976, Note_off_c, 11, 57, 64
12, 261120, Note_on_c, 11, 45, 29
12, 261216, Note_off_c, 11, 45, 64
12, 261360, Note_on_c, 11, 50, 39
12, 261408, Note_off_c, 11, 50, 64
12, 261480, Note_on_c, 11, 57, 39
12, 261528, Note_off_c, 11, 57, 64
12, 261600, Note_on_c, 11, 55, 39
12, 261648, Note_off_c, 11, 55, 64
12, 261720, Note_on_c, 11, 53, 39
12, 261768, Note_off_c, 11, 53, 64
12, 261840, Note_on_c, 11, 52, 39
12, 261888, Note_off_c, 11, 52, 64
12, 261960, Note_on_c, 11, 50, 39
12, 262008, Note_off_c, 11, 50, 64
12, 262080, Note_on_c, 11, 49, 39
12, 262128, Note_off_c, 11, 49, 64
12, 262200, Note_on_c, 11, 50, 39
12, 262248, Note_off_c, 11, 50, 64
12, 262320, Note_on_c, 11, 43, 29
12, 262770, Note_off_c, 11, 43, 64
12, 263280, Note_on_c, 11, 48, 39
12, 263328, Note_off_c, 11, 48, 64
12, 263400, Note_on_c, 11, 55, 39
12, 263448, Note_off_c, 11, 55, 64
12, 263520, Note_on_c, 11, 53, 39
12, 263568, Note_off_c, 11, 53, 64
12, 263640, Note_on_c, 11, 52, 39
12, 263688, Note_off_c, 11, 52, 64
12, 263760, Note_on_c, 11, 50, 39
12, 263808, Note_off_c, 11, 50, 64
12, 263880, Note_on_c, 11, 48, 39
12, 263928, Note_off_c, 11, 48, 64
12, 264000, Note_on_c, 11, 47, 39
12, 264048, Note_off_c, 11, 47, 64
12, 264120, Note_on_c, 11, 48, 39
12, 264168, Note_off_c, 11, 48, 64
12, 264240, Note_on_c, 11, 43, 29
12, 264690, Note_off_c, 11, 43, 64
12, 265200, Note_on_c, 11, 48, 29
12, 265584, Note_off_c, 11, 48, 64
12, 265680, Note_on_c, 11, 60, 29
12, 266064, Note_off_c, 11, 60, 64
12, 266640, Note_on_c, 11, 57, 22
12, 266832, Note_off_c, 11, 57, 64
12, 267120, Note_on_c, 11, 57, 22
12, 267312, Note_off_c, 11, 57, 64
12, 267600, Note_on_c, 11, 56, 22
12, 267792, Note_off_c, 11, 56, 64
12, 268080, Note_on_c, 11, 57, 22
12, 268272, Note_off_c, 11, 57, 64
12, 268560, Note_on_c, 11, 45, 22
12, 268752, Note_off_c, 11, 45, 64
12, 268922, Control_c, 11, 7, 33
12, 268930, Control_c, 11, 7, 34
12, 268942, Control_c, 11, 7, 35
12, 268950, Control_c, 11, 7, 36
12, 268962, Control_c, 11, 7, 37
12, 268970, Control_c, 11, 7, 38
12, 268982, Control_c, 11, 7, 39
12, 268990, Control_c, 11, 7, 40
12, 269002, Control_c, 11, 7, 41
12, 269010, Control_c, 11, 7, 42
12, 269022, Control_c, 11, 7, 43
12, 269030, Control_c, 11, 7, 44
12, 269040, Note_on_c, 11, 64, 45
12, 269042, Control_c, 11, 7, 45
12, 269050, Control_c, 11, 7, 46
12, 269062, Control_c, 11, 7, 47
12, 269070, Control_c, 11, 7, 48
12, 269082, Control_c, 11, 7, 49
12, 269090, Control_c, 11, 7, 50
12, 269102, Control_c, 11, 7, 51
12, 269110, Control_c, 11, 7, 52
12, 269122, Control_c, 11, 7, 54
12, 269130, Control_c, 11, 7, 55
12, 269142, Control_c, 11, 7, 56
12, 269150, Control_c, 11, 7, 57
12, 269162, Control_c, 11, 7, 58
12, 269170, Control_c, 11, 7, 59
12, 269182, Control_c, 11, 7, 60
12, 269190, Control_c, 11, 7, 61
12, 269202, Control_c, 11, 7, 62
12, 269210, Control_c, 11, 7, 63
12, 269222, Control_c, 11, 7, 64
12, 269230, Control_c, 11, 7, 65
12, 269242, Control_c, 11, 7, 66
12, 269250, Control_c, 11, 7, 67
12, 269262, Control_c, 11, 7, 68
12, 269270, Control_c, 11, 7, 69
12, 269282, Control_c, 11, 7, 70
12, 269290, Control_c, 11, 7, 71
12, 269302, Control_c, 11, 7, 72
12, 269310, Control_c, 11, 7, 73
12, 269322, Control_c, 11, 7, 75
12, 269330, Control_c, 11, 7, 76
12, 269342, Control_c, 11, 7, 77
12, 269350, Control_c, 11, 7, 78
12, 269362, Control_c, 11, 7, 79
12, 269370, Control_c, 11, 7, 80
12, 269382, Control_c, 11, 7, 81
12, 269390, Control_c, 11, 7, 82
12, 269402, Control_c, 11, 7, 83
12, 269410, Control_c, 11, 7, 84
12, 269422, Control_c, 11, 7, 85
12, 269430, Control_c, 11, 7, 86
12, 269442, Control_c, 11, 7, 87
12, 269450, Control_c, 11, 7, 88
12, 269462, Control_c, 11, 7, 89
12, 269470, Control_c, 11, 7, 90
12, 269482, Control_c, 11, 7, 91
12, 269490, Control_c, 11, 7, 92
12, 269502, Control_c, 11, 7, 93
12, 269510, Control_c, 11, 7, 94
12, 269522, Control_c, 11, 7, 96
12, 269880, Note_off_c, 11, 64, 64
12, 270000, Note_on_c, 11, 61, 40
12, 270192, Note_off_c, 11, 61, 64
12, 270240, Note_on_c, 11, 62, 40
12, 270336, Note_off_c, 11, 62, 64
12, 270360, Note_on_c, 11, 64, 40
12, 270456, Note_off_c, 11, 64, 64
12, 270480, Note_on_c, 11, 66, 40
12, 270576, Note_off_c, 11, 66, 64
12, 270720, Note_on_c, 11, 66, 40
12, 270816, Note_off_c, 11, 66, 64
12, 270960, Note_on_c, 11, 59, 32
12, 271920, Note_off_c, 11, 59, 64
12, 271920, Note_on_c, 11, 64, 32
12, 272880, Note_off_c, 11, 64, 64
12, 272880, Note_on_c, 11, 52, 32
12, 274800, Note_off_c, 11, 52, 64
12, 274800, Note_on_c, 11, 64, 32
12, 276336, Note_off_c, 11, 64, 64
12, 276720, Note_on_c, 11, 60, 32
12, 278256, Note_off_c, 11, 60, 64
12, 278640, Note_on_c, 11, 66, 32
12, 280176, Note_off_c, 11, 66, 64
12, 280560, Note_on_c, 11, 62, 32
12, 282096, Note_off_c, 11, 62, 64
12, 282480, Note_on_c, 11, 67, 32
12, 284016, Note_off_c, 11, 67, 64
12, 284400, Note_on_c, 11, 64, 32
12, 285936, Note_off_c, 11, 64, 64
12, 286320, Note_on_c, 11, 69, 32
12, 287856, Note_off_c, 11, 69, 64
12, 288240, Note_on_c, 11, 59, 30
12, 288336, Note_off_c, 11, 59, 64
12, 288480, Note_on_c, 11, 59, 32
12, 288576, Note_off_c, 11, 59, 64
12, 288720, Note_on_c, 11, 59, 34
12, 288816, Note_off_c, 11, 59, 64
12, 288960, Note_on_c, 11, 47, 36
12, 289056, Note_off_c, 11, 47, 64
12, 289200, Note_on_c, 11, 47, 38
12, 289296, Note_off_c, 11, 47, 64
12, 289440, Note_on_c, 11, 59, 39
12, 289536, Note_off_c, 11, 59, 64
12, 289680, Note_on_c, 11, 59, 41
12, 289776, Note_off_c, 11, 59, 64
12, 289920, Note_on_c, 11, 47, 43
12, 290016, Note_off_c, 11, 47, 64
12, 290160, Note_on_c, 11, 47, 45
12, 290256, Note_off_c, 11, 47, 64
12, 290400, Note_on_c, 11, 59, 47
12, 290496, Note_off_c, 11, 59, 64
12, 290640, Note_on_c, 11, 59, 49
12, 290736, Note_off_c, 11, 59, 64
12, 290880, Note_on_c, 11, 47, 51
12, 290976, Note_off_c, 11, 47, 64
12, 291120, Note_on_c, 11, 47, 53
12, 291216, Note_off_c, 11, 47, 64
12, 291360, Note_on_c, 11, 59, 54
12, 291456, Note_off_c, 11, 59, 64
12, 291600, Note_on_c, 11, 59, 56
12, 291696, Note_off_c, 11, 59, 64
12, 291840, Note_on_c, 11, 47, 58
12, 291936, Note_off_c, 11, 47, 64
12, 292080, Note_on_c, 11, 47, 60
12, 292176, Note_off_c, 11, 47, 64
12, 292320, Note_on_c, 11, 59, 62
12, 292416, Note_off_c, 11, 59, 64
12, 292560, Note_on_c, 11, 59, 64
12, 292656, Note_off_c, 11, 59, 64
12, 292800, Note_on_c, 11, 47, 66
12, 292896, Note_off_c, 11, 47, 64
12, 293040, Note_on_c, 11, 47, 68
12, 293136, Note_off_c, 11, 47, 64
12, 293280, Note_on_c, 11, 59, 69
12, 293376, Note_off_c, 11, 59, 64
12, 293520, Note_on_c, 11, 59, 71
12, 293616, Note_off_c, 11, 59, 64
12, 293760, Note_on_c, 11, 47, 73
12, 293856, Note_off_c, 11, 47, 64
12, 294000, Note_on_c, 11, 47, 94
12, 294096, Note_off_c, 11, 47, 64
12, 294240, Note_on_c, 11, 59, 96
12, 294336, Note_off_c, 11, 59, 64
12, 294480, Note_on_c, 11, 59, 99
12, 294576, Note_off_c, 11, 59, 64
12, 294720, Note_on_c, 11, 47, 101
12, 294816, Note_off_c, 11, 47, 64
12, 294960, Note_on_c, 11, 59, 104
12, 295728, Note_off_c, 11, 59, 64
12, 295920, Note_on_c, 11, 55, 127
12, 296160, Note_off_c, 11, 55, 64
12, 296160, Note_on_c, 11, 57, 127
12, 296280, Note_off_c, 11, 57, 64
12, 296280, Note_on_c, 11, 59, 127
12, 296400, Note_off_c, 11, 59, 64
12, 296400, Note_on_c, 11, 60, 127
12, 296496, Note_off_c, 11, 60, 64
12, 296640, Note_on_c, 11, 60, 127
12, 296736, Note_off_c, 11, 60, 64
12, 296880, Note_on_c, 11, 54, 127
12, 297120, Note_off_c, 11, 54, 64
12, 297120, Note_on_c, 11, 55, 127
12, 297240, Note_off_c, 11, 55, 64
12, 297240, Note_on_c, 11, 57, 127
12, 297360, Note_off_c, 11, 57, 64
12, 297360, Note_on_c, 11, 59, 127
12, 297456, Note_off_c, 11, 59, 64
12, 297600, Note_on_c, 11, 47, 127
12, 297696, Note_off_c, 11, 47, 64
12, 297840, Note_on_c, 11, 52, 127
12, 298080, Note_off_c, 11, 52, 64
12, 298080, Note_on_c, 11, 54, 127
12, 298200, Note_off_c, 11, 54, 64
12, 298200, Note_on_c, 11, 55, 127
12, 298320, Note_off_c, 11, 55, 64
12, 298320, Note_on_c, 11, 57, 127
12, 298416, Note_off_c, 11, 57, 64
12, 298560, Note_on_c, 11, 57, 127
12, 298656, Note_off_c, 11, 57, 64
12, 298800, Note_on_c, 11, 50, 127
12, 299040, Note_off_c, 11, 50, 64
12, 299040, Note_on_c, 11, 52, 127
12, 299160, Note_off_c, 11, 52, 64
12, 299160, Note_on_c, 11, 54, 127
12, 299280, Note_off_c, 11, 54, 64
12, 299280, Note_on_c, 11, 55, 127
12, 299376, Note_off_c, 11, 55, 64
12, 299520, Note_on_c, 11, 43, 127
12, 299616, Note_off_c, 11, 43, 64
12, 299760, Note_on_c, 11, 48, 127
12, 300000, Note_off_c, 11, 48, 64
12, 300000, Note_on_c, 11, 50, 127
12, 300120, Note_off_c, 11, 50, 64
12, 300120, Note_on_c, 11, 52, 127
12, 300240, Note_off_c, 11, 52, 64
12, 300240, Note_on_c, 11, 54, 127
12, 300336, Note_off_c, 11, 54, 64
12, 300480, Note_on_c, 11, 42, 127
12, 300576, Note_off_c, 11, 42, 64
12, 300720, Note_on_c, 11, 47, 112
12, 300816, Note_off_c, 11, 47, 64
12, 300840, Note_on_c, 11, 59, 112
12, 300936, Note_off_c, 11, 59, 64
12, 300960, Note_on_c, 11, 61, 112
12, 301056, Note_off_c, 11, 61, 64
12, 301080, Note_on_c, 11, 63, 112
12, 301176, Note_off_c, 11, 63, 64
12, 301200, Note_on_c, 11, 64, 112
12, 301440, Note_off_c, 11, 64, 64
12, 301440, Note_on_c, 11, 66, 112
12, 301560, Note_off_c, 11, 66, 64
12, 301560, Note_on_c, 11, 67, 112
12, 301680, Note_off_c, 11, 67, 64
12, 301680, Note_on_c, 11, 69, 127
12, 302064, Note_off_c, 11, 69, 64
12, 302160, Note_on_c, 11, 67, 127
12, 302544, Note_off_c, 11, 67, 64
12, 302640, Note_on_c, 11, 59, 127
12, 302736, Note_off_c, 11, 59, 64
12, 302760, Note_on_c, 11, 47, 127
12, 302856, Note_off_c, 11, 47, 64
12, 302880, Note_on_c, 11, 49, 127
12, 302976, Note_off_c, 11, 49, 64
12, 303000, Note_on_c, 11, 51, 127
12, 303096, Note_off_c, 11, 51, 64
12, 303120, Note_on_c, 11, 52, 127
12, 303216, Note_off_c, 11, 52, 64
12, 303240, Note_on_c, 11, 52, 127
12, 303336, Note_off_c, 11, 52, 64
12, 303360, Note_on_c, 11, 54, 127
12, 303456, Note_off_c, 11, 54, 64
12, 303480, Note_on_c, 11, 55, 127
12, 303576, Note_off_c, 11, 55, 64
12, 303600, Note_on_c, 11, 57, 127
12, 303984, Note_off_c, 11, 57, 64
12, 304080, Note_on_c, 11, 55, 127
12, 304464, Note_off_c, 11, 55, 64
12, 304560, Note_on_c, 11, 54, 127
12, 304944, Note_off_c, 11, 54, 64
12, 305040, Note_on_c, 11, 52, 127
12, 305424, Note_off_c, 11, 52, 64
12, 305520, Note_on_c, 11, 51, 127
12, 305904, Note_off_c, 11, 51, 64
12, 306000, Note_on_c, 11, 52, 127
12, 306488, Note_off_c, 11, 52, 64
12, 306540, Note_on_c, 11, 59, 102
12, 307028, Note_off_c, 11, 59, 64
12, 307080, Note_on_c, 11, 47, 102
12, 307572, Note_off_c, 11, 47, 64
12, 307680, Note_on_c, 11, 48, 127
12, 308064, Note_off_c, 11, 48, 64
12, 308640, Note_on_c, 11, 43, 127
12, 308880, Note_off_c, 11, 43, 64
12, 308880, Note_on_c, 11, 45, 127
12, 309000, Note_off_c, 11, 45, 64
12, 309000, Note_on_c, 11, 47, 127
12, 309120, Note_off_c, 11, 47, 64
12, 309120, Note_on_c, 11, 48, 127
12, 309216, Note_off_c, 11, 48, 64
12, 309360, Note_on_c, 11, 48, 127
12, 309456, Note_off_c, 11, 48, 64
12, 309600, Note_on_c, 11, 48, 127
12, 309984, Note_off_c, 11, 48, 64
12, 310560, Note_on_c, 11, 43, 127
12, 310800, Note_off_c, 11, 43, 64
12, 310800, Note_on_c, 11, 45, 127
12, 310920, Note_off_c, 11, 45, 64
12, 310920, Note_on_c, 11, 47, 127
12, 311040, Note_off_c, 11, 47, 64
12, 311040, Note_on_c, 11, 48, 127
12, 311136, Note_off_c, 11, 48, 64
12, 311280, Note_on_c, 11, 48, 127
12, 311376, Note_off_c, 11, 48, 64
12, 311520, Note_on_c, 11, 48, 127
12, 311904, Note_off_c, 11, 48, 64
12, 312480, Note_on_c, 11, 43, 127
12, 312720, Note_off_c, 11, 43, 64
12, 312720, Note_on_c, 11, 45, 127
12, 312840, Note_off_c, 11, 45, 64
12, 312840, Note_on_c, 11, 47, 127
12, 312960, Note_off_c, 11, 47, 64
12, 312960, Note_on_c, 11, 48, 127
12, 313056, Note_off_c, 11, 48, 64
12, 313200, Note_on_c, 11, 48, 127
12, 313296, Note_off_c, 11, 48, 64
12, 313440, Note_on_c, 11, 48, 127
12, 313824, Note_off_c, 11, 48, 64
12, 313920, Note_on_c, 11, 48, 127
12, 314304, Note_off_c, 11, 48, 64
12, 314400, Note_on_c, 11, 47, 127
12, 314784, Note_off_c, 11, 47, 64
12, 314880, Note_on_c, 11, 47, 127
12, 315264, Note_off_c, 11, 47, 64
12, 315360, Note_on_c, 11, 48, 127
12, 315744, Note_off_c, 11, 48, 64
12, 316320, Note_on_c, 11, 43, 127
12, 316560, Note_off_c, 11, 43, 64
12, 316560, Note_on_c, 11, 45, 127
12, 316680, Note_off_c, 11, 45, 64
12, 316680, Note_on_c, 11, 47, 127
12, 316800, Note_off_c, 11, 47, 64
12, 316800, Note_on_c, 11, 48, 127
12, 316896, Note_off_c, 11, 48, 64
12, 317040, Note_on_c, 11, 48, 127
12, 317136, Note_off_c, 11, 48, 64
12, 317280, Note_on_c, 11, 48, 127
12, 317664, Note_off_c, 11, 48, 64
12, 318240, Note_on_c, 11, 43, 127
12, 318480, Note_off_c, 11, 43, 64
12, 318480, Note_on_c, 11, 45, 127
12, 318600, Note_off_c, 11, 45, 64
12, 318600, Note_on_c, 11, 47, 127
12, 318720, Note_off_c, 11, 47, 64
12, 318720, Note_on_c, 11, 48, 127
12, 318816, Note_off_c, 11, 48, 64
12, 318960, Note_on_c, 11, 48, 127
12, 319056, Note_off_c, 11, 48, 64
12, 319200, Note_on_c, 11, 48, 127
12, 319584, Note_off_c, 11, 48, 64
12, 320160, Note_on_c, 11, 43, 127
12, 320400, Note_off_c, 11, 43, 64
12, 320400, Note_on_c, 11, 45, 127
12, 320520, Note_off_c, 11, 45, 64
12, 320520, Note_on_c, 11, 47, 127
12, 320640, Note_off_c, 11, 47, 64
12, 320640, Note_on_c, 11, 48, 127
12, 320736, Note_off_c, 11, 48, 64
12, 320880, Note_on_c, 11, 48, 127
12, 320976, Note_off_c, 11, 48, 64
12, 321120, Note_on_c, 11, 48, 127
12, 321504, Note_off_c, 11, 48, 64
12, 321600, Note_on_c, 11, 48, 127
12, 321984, Note_off_c, 11, 48, 64
12, 322080, Note_on_c, 11, 47, 127
12, 322464, Note_off_c, 11, 47, 64
12, 322560, Note_on_c, 11, 47, 127
12, 322944, Note_off_c, 11, 47, 64
12, 323040, Note_on_c, 11, 52, 127
12, 323232, Note_off_c, 11, 52, 64
12, 325920, Note_on_c, 11, 47, 104
12, 326016, Note_off_c, 11, 47, 64
12, 326160, Note_on_c, 11, 47, 104
12, 326256, Note_off_c, 11, 47, 64
12, 326400, Note_on_c, 11, 47, 104
12, 326496, Note_off_c, 11, 47, 64
12, 326640, Note_on_c, 11, 47, 104
12, 326736, Note_off_c, 11, 47, 64
12, 326880, Note_on_c, 11, 52, 127
12, 327072, Note_off_c, 11, 52, 64
12, 329760, Note_on_c, 11, 47, 104
12, 329856, Note_off_c, 11, 47, 64
12, 330000, Note_on_c, 11, 47, 104
12, 330096, Note_off_c, 11, 47, 64
12, 330240, Note_on_c, 11, 47, 104
12, 330336, Note_off_c, 11, 47, 64
12, 330480, Note_on_c, 11, 47, 104
12, 330576, Note_off_c, 11, 47, 64
12, 330720, Note_on_c, 11, 52, 78
12, 330912, Note_off_c, 11, 52, 64
12, 331200, Note_on_c, 11, 47, 78
12, 331392, Note_off_c, 11, 47, 64
12, 331680, Note_on_c, 11, 52, 78
12, 331872, Note_off_c, 11, 52, 64
12, 332160, Note_on_c, 11, 47, 78
12, 332352, Note_off_c, 11, 47, 64
12, 332640, Note_on_c, 11, 52, 104
12, 332832, Note_off_c, 11, 52, 64
12, 333120, Note_on_c, 11, 47, 104
12, 333312, Note_off_c, 11, 47, 64
12, 333600, Note_on_c, 11, 52, 104
12, 333792, Note_off_c, 11, 52, 64
12, 334080, Note_on_c, 11, 47, 104
12, 334272, Note_off_c, 11, 47, 64
12, 334560, Note_on_c, 11, 52, 127
12, 334752, Note_off_c, 11, 52, 64
12, 335520, Note_on_c, 11, 52, 127
12, 335712, Note_off_c, 11, 52, 64
12, 336000, Note_on_c, 11, 52, 127
12, 336192, Note_off_c, 11, 52, 64
12, 336480, Note_on_c, 11, 52, 127
12, 336672, Note_off_c, 11, 52, 64
12, 337440, Note_on_c, 11, 52, 127
12, 337632, Note_off_c, 11, 52, 64
12, 347040, Note_on_c, 11, 62, 53
12, 347808, Note_off_c, 11, 62, 64
12, 348000, Note_on_c, 11, 59, 46
12, 348240, Note_off_c, 11, 59, 64
12, 348240, Note_on_c, 11, 60, 46
12, 348360, Note_off_c, 11, 60, 64
12, 348360, Note_on_c, 11, 62, 46
12, 348480, Note_off_c, 11, 62, 64
12, 348480, Note_on_c, 11, 64, 46
12, 348576, Note_off_c, 11, 64, 64
12, 348720, Note_on_c, 11, 64, 46
12, 348816, Note_off_c, 11, 64, 64
12, 348960, Note_on_c, 11, 57, 46
12, 349200, Note_off_c, 11, 57, 64
12, 349200, Note_on_c, 11, 59, 46
12, 349320, Note_off_c, 11, 59, 64
12, 349320, Note_on_c, 11, 60, 46
12, 349440, Note_off_c, 11, 60, 64
12, 349440, Note_on_c, 11, 62, 46
12, 349536, Note_off_c, 11, 62, 64
12, 349680, Note_on_c, 11, 50, 46
12, 349776, Note_off_c, 11, 50, 64
12, 349920, Note_on_c, 11, 55, 44
12, 350160, Note_off_c, 11, 55, 64
12, 350160, Note_on_c, 11, 57, 44
12, 350280, Note_off_c, 11, 57, 64
12, 350280, Note_on_c, 11, 59, 44
12, 350400, Note_off_c, 11, 59, 64
12, 350400, Note_on_c, 11, 60, 44
12, 350496, Note_off_c, 11, 60, 64
12, 350640, Note_on_c, 11, 60, 44
12, 350736, Note_off_c, 11, 60, 64
12, 350880, Note_on_c, 11, 62, 40
12, 350976, Note_off_c, 11, 62, 64
12, 351120, Note_on_c, 11, 62, 40
12, 351216, Note_off_c, 11, 62, 64
12, 351360, Note_on_c, 11, 62, 40
12, 351456, Note_off_c, 11, 62, 64
12, 351600, Note_on_c, 11, 60, 40
12, 351696, Note_off_c, 11, 60, 64
12, 351840, Note_on_c, 11, 59, 35
12, 351936, Note_off_c, 11, 59, 64
12, 352080, Note_on_c, 11, 60, 37
12, 352176, Note_off_c, 11, 60, 64
12, 352320, Note_on_c, 11, 67, 40
12, 352416, Note_off_c, 11, 67, 64
12, 352560, Note_on_c, 11, 55, 42
12, 352656, Note_off_c, 11, 55, 64
12, 352800, Note_on_c, 11, 52, 44
12, 353040, Note_off_c, 11, 52, 64
12, 353040, Note_on_c, 11, 53, 47
12, 353160, Note_off_c, 11, 53, 64
12, 353160, Note_on_c, 11, 55, 48
12, 353280, Note_off_c, 11, 55, 64
12, 353280, Note_on_c, 11, 57, 49
12, 353376, Note_off_c, 11, 57, 64
12, 353520, Note_on_c, 11, 57, 51
12, 353616, Note_off_c, 11, 57, 64
12, 353760, Note_on_c, 11, 53, 54
12, 354000, Note_off_c, 11, 53, 64
12, 354000, Note_on_c, 11, 55, 56
12, 354120, Note_off_c, 11, 55, 64
12, 354120, Note_on_c, 11, 57, 57
12, 354240, Note_off_c, 11, 57, 64
12, 354240, Note_on_c, 11, 59, 58
12, 354336, Note_off_c, 11, 59, 64
12, 354480, Note_on_c, 11, 59, 61
12, 354576, Note_off_c, 11, 59, 64
12, 354720, Note_on_c, 11, 55, 63
12, 354960, Note_off_c, 11, 55, 64
12, 354960, Note_on_c, 11, 57, 65
12, 355080, Note_off_c, 11, 57, 64
12, 355080, Note_on_c, 11, 59, 67
12, 355200, Note_off_c, 11, 59, 64
12, 355200, Note_on_c, 11, 60, 68
12, 355296, Note_off_c, 11, 60, 64
12, 355440, Note_on_c, 11, 60, 70
12, 355536, Note_off_c, 11, 60, 64
12, 355680, Note_on_c, 11, 57, 73
12, 355920, Note_off_c, 11, 57, 64
12, 355920, Note_on_c, 11, 59, 75
12, 356040, Note_off_c, 11, 59, 64
12, 356040, Note_on_c, 11, 60, 76
12, 356160, Note_off_c, 11, 60, 64
12, 356160, Note_on_c, 11, 62, 77
12, 356256, Note_off_c, 11, 62, 64
12, 356400, Note_on_c, 11, 62, 80
12, 356496, Note_off_c, 11, 62, 64
12, 356640, Note_on_c, 11, 59, 82
12, 356880, Note_off_c, 11, 59, 64
12, 356880, Note_on_c, 11, 60, 84
12, 357000, Note_off_c, 11, 60, 64
12, 357000, Note_on_c, 11, 62, 85
12, 357120, Note_off_c, 11, 62, 64
12, 357120, Note_on_c, 11, 64, 87
12, 357216, Note_off_c, 11, 64, 64
12, 357360, Note_on_c, 11, 64, 89
12, 357456, Note_off_c, 11, 64, 64
12, 357600, Note_on_c, 11, 60, 91
12, 357840, Note_off_c, 11, 60, 64
12, 357840, Note_on_c, 11, 62, 94
12, 357960, Note_off_c, 11, 62, 64
12, 357960, Note_on_c, 11, 64, 95
12, 358080, Note_off_c, 11, 64, 64
12, 358080, Note_on_c, 11, 65, 96
12, 358176, Note_off_c, 11, 65, 64
12, 358320, Note_on_c, 11, 55, 98
12, 358416, Note_off_c, 11, 55, 64
12, 358560, Note_on_c, 11, 55, 101
12, 358656, Note_off_c, 11, 55, 64
12, 358800, Note_on_c, 11, 55, 103
12, 358896, Note_off_c, 11, 55, 64
12, 359040, Note_on_c, 11, 55, 105
12, 359136, Note_off_c, 11, 55, 64
12, 359280, Note_on_c, 11, 55, 108
12, 359376, Note_off_c, 11, 55, 64
12, 359520, Note_on_c, 11, 67, 127
12, 360288, Note_off_c, 11, 67, 64
12, 360480, Note_on_c, 11, 64, 127
12, 360720, Note_off_c, 11, 64, 64
12, 360720, Note_on_c, 11, 65, 127
12, 360840, Note_off_c, 11, 65, 64
12, 360840, Note_on_c, 11, 67, 127
12, 360960, Note_off_c, 11, 67, 64
12, 360960, Note_on_c, 11, 69, 127
12, 361056, Note_off_c, 11, 69, 64
12, 361200, Note_on_c, 11, 69, 127
12, 361296, Note_off_c, 11, 69, 64
12, 361440, Note_on_c, 11, 65, 127
12, 362208, Note_off_c, 11, 65, 64
12, 362400, Note_on_c, 11, 62, 127
12, 362640, Note_off_c, 11, 62, 64
12, 362640, Note_on_c, 11, 64, 127
12, 362760, Note_off_c, 11, 64, 64
12, 362760, Note_on_c, 11, 65, 127
12, 362880, Note_off_c, 11, 65, 64
12, 362880, Note_on_c, 11, 67, 127
12, 362976, Note_off_c, 11, 67, 64
12, 363120, Note_on_c, 11, 67, 127
12, 363216, Note_off_c, 11, 67, 64
12, 363360, Note_on_c, 11, 64, 99
12, 363456, Note_off_c, 11, 64, 64
12, 363480, Note_on_c, 11, 65, 99
12, 363576, Note_off_c, 11, 65, 64
12, 363600, Note_on_c, 11, 67, 99
12, 363696, Note_off_c, 11, 67, 64
12, 363720, Note_on_c, 11, 65, 99
12, 363816, Note_off_c, 11, 65, 64
12, 363840, Note_on_c, 11, 64, 99
12, 363936, Note_off_c, 11, 64, 64
12, 363960, Note_on_c, 11, 65, 99
12, 364056, Note_off_c, 11, 65, 64
12, 364080, Note_on_c, 11, 64, 99
12, 364176, Note_off_c, 11, 64, 64
12, 364200, Note_on_c, 11, 62, 99
12, 364296, Note_off_c, 11, 62, 64
12, 364320, Note_on_c, 11, 61, 99
12, 364416, Note_off_c, 11, 61, 64
12, 364440, Note_on_c, 11, 61, 99
12, 364536, Note_off_c, 11, 61, 64
12, 364560, Note_on_c, 11, 62, 99
12, 364656, Note_off_c, 11, 62, 64
12, 364680, Note_on_c, 11, 64, 99
12, 364776, Note_off_c, 11, 64, 64
12, 364800, Note_on_c, 11, 65, 99
12, 364896, Note_off_c, 11, 65, 64
12, 364920, Note_on_c, 11, 64, 99
12, 365016, Note_off_c, 11, 64, 64
12, 365040, Note_on_c, 11, 62, 99
12, 365136, Note_off_c, 11, 62, 64
12, 365160, Note_on_c, 11, 61, 99
12, 365256, Note_off_c, 11, 61, 64
12, 365280, Note_on_c, 11, 62, 99
12, 365376, Note_off_c, 11, 62, 64
12, 365400, Note_on_c, 11, 64, 99
12, 365496, Note_off_c, 11, 64, 64
12, 365520, Note_on_c, 11, 65, 99
12, 365616, Note_off_c, 11, 65, 64
12, 365640, Note_on_c, 11, 64, 99
12, 365736, Note_off_c, 11, 64, 64
12, 365760, Note_on_c, 11, 62, 99
12, 365856, Note_off_c, 11, 62, 64
12, 365880, Note_on_c, 11, 64, 99
12, 365976, Note_off_c, 11, 64, 64
12, 366000, Note_on_c, 11, 62, 99
12, 366096, Note_off_c, 11, 62, 64
12, 366120, Note_on_c, 11, 60, 99
12, 366216, Note_off_c, 11, 60, 64
12, 366240, Note_on_c, 11, 59, 99
12, 366336, Note_off_c, 11, 59, 64
12, 366360, Note_on_c, 11, 59, 99
12, 366456, Note_off_c, 11, 59, 64
12, 366480, Note_on_c, 11, 60, 99
12, 366576, Note_off_c, 11, 60, 64
12, 366600, Note_on_c, 11, 62, 99
12, 366696, Note_off_c, 11, 62, 64
12, 366720, Note_on_c, 11, 64, 99
12, 366816, Note_off_c, 11, 64, 64
12, 366840, Note_on_c, 11, 62, 99
12, 366936, Note_off_c, 11, 62, 64
12, 366960, Note_on_c, 11, 60, 99
12, 367056, Note_off_c, 11, 60, 64
12, 367080, Note_on_c, 11, 59, 99
12, 367176, Note_off_c, 11, 59, 64
12, 367200, Note_on_c, 11, 52, 99
12, 367200, Note_on_c, 11, 55, 99
12, 367296, Note_off_c, 11, 55, 64
12, 367296, Note_off_c, 11, 52, 64
12, 367320, Note_on_c, 11, 53, 99
12, 367320, Note_on_c, 11, 57, 99
12, 367416, Note_off_c, 11, 57, 64
12, 367416, Note_off_c, 11, 53, 64
12, 367440, Note_on_c, 11, 52, 99
12, 367440, Note_on_c, 11, 55, 99
12, 367536, Note_off_c, 11, 55, 64
12, 367536, Note_off_c, 11, 52, 64
12, 367560, Note_on_c, 11, 50, 99
12, 367560, Note_on_c, 11, 53, 99
12, 367656, Note_off_c, 11, 53, 64
12, 367656, Note_off_c, 11, 50, 64
12, 367680, Note_on_c, 11, 48, 99
12, 367680, Note_on_c, 11, 52, 99
12, 367776, Note_off_c, 11, 52, 64
12, 367776, Note_off_c, 11, 48, 64
12, 367800, Note_on_c, 11, 53, 99
12, 367800, Note_on_c, 11, 50, 99
12, 367896, Note_off_c, 11, 50, 64
12, 367896, Note_off_c, 11, 53, 64
12, 367920, Note_on_c, 11, 55, 99
12, 367920, Note_on_c, 11, 52, 99
12, 368016, Note_off_c, 11, 52, 64
12, 368016, Note_off_c, 11, 55, 64
12, 368040, Note_on_c, 11, 48, 99
12, 368040, Note_on_c, 11, 52, 99
12, 368136, Note_off_c, 11, 52, 64
12, 368136, Note_off_c, 11, 48, 64
12, 368160, Note_on_c, 11, 57, 99
12, 368256, Note_off_c, 11, 57, 64
12, 368280, Note_on_c, 11, 57, 99
12, 368376, Note_off_c, 11, 57, 64
12, 368400, Note_on_c, 11, 57, 99
12, 368496, Note_off_c, 11, 57, 64
12, 368520, Note_on_c, 11, 57, 99
12, 368616, Note_off_c, 11, 57, 64
12, 368640, Note_on_c, 11, 57, 99
12, 368736, Note_off_c, 11, 57, 64
12, 368760, Note_on_c, 11, 57, 99
12, 368856, Note_off_c, 11, 57, 64
12, 368880, Note_on_c, 11, 57, 99
12, 368976, Note_off_c, 11, 57, 64
12, 369000, Note_on_c, 11, 57, 99
12, 369096, Note_off_c, 11, 57, 64
12, 369120, Note_on_c, 11, 53, 99
12, 369216, Note_off_c, 11, 53, 64
12, 369240, Note_on_c, 11, 55, 99
12, 369336, Note_off_c, 11, 55, 64
12, 369360, Note_on_c, 11, 53, 99
12, 369456, Note_off_c, 11, 53, 64
12, 369480, Note_on_c, 11, 52, 99
12, 369576, Note_off_c, 11, 52, 64
12, 369600, Note_on_c, 11, 50, 99
12, 369696, Note_off_c, 11, 50, 64
12, 369720, Note_on_c, 11, 52, 99
12, 369816, Note_off_c, 11, 52, 64
12, 369840, Note_on_c, 11, 53, 99
12, 369936, Note_off_c, 11, 53, 64
12, 369960, Note_on_c, 11, 50, 99
12, 370056, Note_off_c, 11, 50, 64
12, 370080, Note_on_c, 11, 55, 99
12, 370176, Note_off_c, 11, 55, 64
12, 370200, Note_on_c, 11, 55, 99
12, 370296, Note_off_c, 11, 55, 64
12, 370320, Note_on_c, 11, 55, 99
12, 370416, Note_off_c, 11, 55, 64
12, 370440, Note_on_c, 11, 55, 99
12, 370536, Note_off_c, 11, 55, 64
12, 370560, Note_on_c, 11, 55, 99
12, 370656, Note_off_c, 11, 55, 64
12, 370680, Note_on_c, 11, 55, 99
12, 370776, Note_off_c, 11, 55, 64
12, 370800, Note_on_c, 11, 55, 99
12, 370896, Note_off_c, 11, 55, 64
12, 370920, Note_on_c, 11, 55, 99
12, 371016, Note_off_c, 11, 55, 64
12, 371040, Note_on_c, 11, 64, 99
12, 371136, Note_off_c, 11, 64, 64
12, 371160, Note_on_c, 11, 65, 99
12, 371256, Note_off_c, 11, 65, 64
12, 371280, Note_on_c, 11, 64, 99
12, 371376, Note_off_c, 11, 64, 64
12, 371400, Note_on_c, 11, 62, 99
12, 371496, Note_off_c, 11, 62, 64
12, 371520, Note_on_c, 11, 60, 99
12, 371616, Note_off_c, 11, 60, 64
12, 371640, Note_on_c, 11, 62, 99
12, 371736, Note_off_c, 11, 62, 64
12, 371760, Note_on_c, 11, 64, 99
12, 371856, Note_off_c, 11, 64, 64
12, 371880, Note_on_c, 11, 60, 99
12, 371976, Note_off_c, 11, 60, 64
12, 372000, Note_on_c, 11, 65, 99
12, 372096, Note_off_c, 11, 65, 64
12, 372120, Note_on_c, 11, 67, 99
12, 372216, Note_off_c, 11, 67, 64
12, 372240, Note_on_c, 11, 65, 99
12, 372336, Note_off_c, 11, 65, 64
12, 372360, Note_on_c, 11, 64, 99
12, 372456, Note_off_c, 11, 64, 64
12, 372480, Note_on_c, 11, 62, 99
12, 372576, Note_off_c, 11, 62, 64
12, 372600, Note_on_c, 11, 64, 99
12, 372696, Note_off_c, 11, 64, 64
12, 372720, Note_on_c, 11, 62, 99
12, 372816, Note_off_c, 11, 62, 64
12, 372840, Note_on_c, 11, 60, 99
12, 372936, Note_off_c, 11, 60, 64
12, 372960, Note_on_c, 11, 59, 99
12, 373056, Note_off_c, 11, 59, 64
12, 373080, Note_on_c, 11, 62, 99
12, 373176, Note_off_c, 11, 62, 64
12, 373200, Note_on_c, 11, 62, 99
12, 373296, Note_off_c, 11, 62, 64
12, 373320, Note_on_c, 11, 62, 99
12, 373416, Note_off_c, 11, 62, 64
12, 373440, Note_on_c, 11, 60, 99
12, 373536, Note_off_c, 11, 60, 64
12, 373560, Note_on_c, 11, 60, 99
12, 373656, Note_off_c, 11, 60, 64
12, 373680, Note_on_c, 11, 60, 99
12, 373776, Note_off_c, 11, 60, 64
12, 373800, Note_on_c, 11, 60, 99
12, 373896, Note_off_c, 11, 60, 64
12, 373920, Note_on_c, 11, 59, 99
12, 374016, Note_off_c, 11, 59, 64
12, 374040, Note_on_c, 11, 59, 99
12, 374136, Note_off_c, 11, 59, 64
12, 374160, Note_on_c, 11, 59, 99
12, 374256, Note_off_c, 11, 59, 64
12, 374280, Note_on_c, 11, 59, 99
12, 374376, Note_off_c, 11, 59, 64
12, 374400, Note_on_c, 11, 57, 127
12, 374496, Note_off_c, 11, 57, 64
12, 374520, Note_on_c, 11, 57, 99
12, 374616, Note_off_c, 11, 57, 64
12, 374640, Note_on_c, 11, 59, 99
12, 374736, Note_off_c, 11, 59, 64
12, 374760, Note_on_c, 11, 59, 99
12, 374856, Note_off_c, 11, 59, 64
12, 374880, Note_on_c, 11, 60, 99
12, 374976, Note_off_c, 11, 60, 64
12, 375000, Note_on_c, 11, 60, 99
12, 375096, Note_off_c, 11, 60, 64
12, 375120, Note_on_c, 11, 60, 99
12, 375216, Note_off_c, 11, 60, 64
12, 375240, Note_on_c, 11, 60, 99
12, 375336, Note_off_c, 11, 60, 64
12, 375360, Note_on_c, 11, 62, 127
12, 375456, Note_off_c, 11, 62, 64
12, 375480, Note_on_c, 11, 62, 99
12, 375576, Note_off_c, 11, 62, 64
12, 375600, Note_on_c, 11, 60, 99
12, 375696, Note_off_c, 11, 60, 64
12, 375720, Note_on_c, 11, 60, 99
12, 375816, Note_off_c, 11, 60, 64
12, 375840, Note_on_c, 11, 59, 99
12, 375936, Note_off_c, 11, 59, 64
12, 375960, Note_on_c, 11, 59, 99
12, 376056, Note_off_c, 11, 59, 64
12, 376080, Note_on_c, 11, 59, 99
12, 376176, Note_off_c, 11, 59, 64
12, 376200, Note_on_c, 11, 59, 99
12, 376296, Note_off_c, 11, 59, 64
12, 376320, Note_on_c, 11, 57, 127
12, 376416, Note_off_c, 11, 57, 64
12, 376440, Note_on_c, 11, 57, 99
12, 376536, Note_off_c, 11, 57, 64
12, 376560, Note_on_c, 11, 59, 99
12, 376656, Note_off_c, 11, 59, 64
12, 376680, Note_on_c, 11, 59, 99
12, 376776, Note_off_c, 11, 59, 64
12, 376800, Note_on_c, 11, 60, 99
12, 376896, Note_off_c, 11, 60, 64
12, 376920, Note_on_c, 11, 67, 99
12, 377016, Note_off_c, 11, 67, 64
12, 377040, Note_on_c, 11, 67, 99
12, 377136, Note_off_c, 11, 67, 64
12, 377160, Note_on_c, 11, 67, 99
12, 377256, Note_off_c, 11, 67, 64
12, 377280, Note_on_c, 11, 67, 99
12, 377376, Note_off_c, 11, 67, 64
12, 377400, Note_on_c, 11, 67, 99
12, 377496, Note_off_c, 11, 67, 64
12, 377520, Note_on_c, 11, 67, 99
12, 377616, Note_off_c, 11, 67, 64
12, 377640, Note_on_c, 11, 67, 99
12, 377736, Note_off_c, 11, 67, 64
12, 377760, Note_on_c, 11, 67, 99
12, 377856, Note_off_c, 11, 67, 64
12, 377880, Note_on_c, 11, 67, 99
12, 377976, Note_off_c, 11, 67, 64
12, 378000, Note_on_c, 11, 67, 99
12, 378096, Note_off_c, 11, 67, 64
12, 378120, Note_on_c, 11, 67, 99
12, 378216, Note_off_c, 11, 67, 64
12, 378240, Note_on_c, 11, 67, 99
12, 378336, Note_off_c, 11, 67, 64
12, 378360, Note_on_c, 11, 67, 99
12, 378456, Note_off_c, 11, 67, 64
12, 378480, Note_on_c, 11, 67, 99
12, 378576, Note_off_c, 11, 67, 64
12, 378600, Note_on_c, 11, 67, 99
12, 378696, Note_off_c, 11, 67, 64
12, 378720, Note_on_c, 11, 66, 99
12, 378816, Note_off_c, 11, 66, 64
12, 378840, Note_on_c, 11, 66, 99
12, 378936, Note_off_c, 11, 66, 64
12, 378960, Note_on_c, 11, 66, 99
12, 379056, Note_off_c, 11, 66, 64
12, 379080, Note_on_c, 11, 66, 99
12, 379176, Note_off_c, 11, 66, 64
12, 379200, Note_on_c, 11, 66, 99
12, 379296, Note_off_c, 11, 66, 64
12, 379320, Note_on_c, 11, 66, 99
12, 379416, Note_off_c, 11, 66, 64
12, 379440, Note_on_c, 11, 66, 99
12, 379536, Note_off_c, 11, 66, 64
12, 379560, Note_on_c, 11, 66, 99
12, 379656, Note_off_c, 11, 66, 64
12, 379680, Note_on_c, 11, 65, 99
12, 379776, Note_off_c, 11, 65, 64
12, 379800, Note_on_c, 11, 65, 99
12, 379896, Note_off_c, 11, 65, 64
12, 379920, Note_on_c, 11, 65, 99
12, 380016, Note_off_c, 11, 65, 64
12, 380040, Note_on_c, 11, 65, 99
12, 380136, Note_off_c, 11, 65, 64
12, 380160, Note_on_c, 11, 65, 99
12, 380256, Note_off_c, 11, 65, 64
12, 380280, Note_on_c, 11, 65, 99
12, 380376, Note_off_c, 11, 65, 64
12, 380400, Note_on_c, 11, 65, 99
12, 380496, Note_off_c, 11, 65, 64
12, 380520, Note_on_c, 11, 65, 99
12, 380616, Note_off_c, 11, 65, 64
12, 380640, Note_on_c, 11, 64, 99
12, 380736, Note_off_c, 11, 64, 64
12, 380760, Note_on_c, 11, 64, 99
12, 380856, Note_off_c, 11, 64, 64
12, 380880, Note_on_c, 11, 65, 99
12, 380976, Note_off_c, 11, 65, 64
12, 381000, Note_on_c, 11, 64, 99
12, 381096, Note_off_c, 11, 64, 64
12, 381120, Note_on_c, 11, 65, 99
12, 381216, Note_off_c, 11, 65, 64
12, 381240, Note_on_c, 11, 65, 99
12, 381336, Note_off_c, 11, 65, 64
12, 381360, Note_on_c, 11, 64, 99
12, 381456, Note_off_c, 11, 64, 64
12, 381480, Note_on_c, 11, 64, 99
12, 381576, Note_off_c, 11, 64, 64
12, 381600, Note_on_c, 11, 62, 99
12, 381696, Note_off_c, 11, 62, 64
12, 381720, Note_on_c, 11, 62, 99
12, 381816, Note_off_c, 11, 62, 64
12, 381840, Note_on_c, 11, 64, 99
12, 381936, Note_off_c, 11, 64, 64
12, 381960, Note_on_c, 11, 62, 99
12, 382056, Note_off_c, 11, 62, 64
12, 382080, Note_on_c, 11, 64, 99
12, 382176, Note_off_c, 11, 64, 64
12, 382200, Note_on_c, 11, 64, 99
12, 382296, Note_off_c, 11, 64, 64
12, 382320, Note_on_c, 11, 62, 99
12, 382416, Note_off_c, 11, 62, 64
12, 382440, Note_on_c, 11, 62, 99
12, 382536, Note_off_c, 11, 62, 64
12, 382560, Note_on_c, 11, 60, 99
12, 382656, Note_off_c, 11, 60, 64
12, 382680, Note_on_c, 11, 60, 99
12, 382776, Note_off_c, 11, 60, 64
12, 382800, Note_on_c, 11, 62, 99
12, 382896, Note_off_c, 11, 62, 64
12, 382920, Note_on_c, 11, 60, 99
12, 383016, Note_off_c, 11, 60, 64
12, 383040, Note_on_c, 11, 62, 99
12, 383136, Note_off_c, 11, 62, 64
12, 383160, Note_on_c, 11, 62, 99
12, 383256, Note_off_c, 11, 62, 64
12, 383280, Note_on_c, 11, 60, 99
12, 383376, Note_off_c, 11, 60, 64
12, 383400, Note_on_c, 11, 60, 99
12, 383496, Note_off_c, 11, 60, 64
12, 383520, Note_on_c, 11, 59, 99
12, 383616, Note_off_c, 11, 59, 64
12, 383640, Note_on_c, 11, 59, 99
12, 383736, Note_off_c, 11, 59, 64
12, 383760, Note_on_c, 11, 60, 99
12, 383856, Note_off_c, 11, 60, 64
12, 383880, Note_on_c, 11, 59, 99
12, 383976, Note_off_c, 11, 59, 64
12, 384000, Note_on_c, 11, 60, 99
12, 384096, Note_off_c, 11, 60, 64
12, 384120, Note_on_c, 11, 60, 99
12, 384216, Note_off_c, 11, 60, 64
12, 384240, Note_on_c, 11, 59, 99
12, 384336, Note_off_c, 11, 59, 64
12, 384360, Note_on_c, 11, 59, 99
12, 384456, Note_off_c, 11, 59, 64
12, 384480, Note_on_c, 11, 57, 99
12, 384576, Note_off_c, 11, 57, 64
12, 384600, Note_on_c, 11, 57, 99
12, 384696, Note_off_c, 11, 57, 64
12, 384720, Note_on_c, 11, 59, 99
12, 384816, Note_off_c, 11, 59, 64
12, 384840, Note_on_c, 11, 59, 99
12, 384936, Note_off_c, 11, 59, 64
12, 384960, Note_on_c, 11, 55, 99
12, 385056, Note_off_c, 11, 55, 64
12, 385080, Note_on_c, 11, 55, 99
12, 385176, Note_off_c, 11, 55, 64
12, 385200, Note_on_c, 11, 57, 99
12, 385296, Note_off_c, 11, 57, 64
12, 385320, Note_on_c, 11, 57, 99
12, 385416, Note_off_c, 11, 57, 64
12, 385440, Note_on_c, 11, 53, 99
12, 385536, Note_off_c, 11, 53, 64
12, 385560, Note_on_c, 11, 53, 99
12, 385656, Note_off_c, 11, 53, 64
12, 385680, Note_on_c, 11, 55, 99
12, 385776, Note_off_c, 11, 55, 64
12, 385800, Note_on_c, 11, 55, 99
12, 385896, Note_off_c, 11, 55, 64
12, 385920, Note_on_c, 11, 52, 99
12, 386016, Note_off_c, 11, 52, 64
12, 386040, Note_on_c, 11, 52, 99
12, 386136, Note_off_c, 11, 52, 64
12, 386160, Note_on_c, 11, 53, 99
12, 386256, Note_off_c, 11, 53, 64
12, 386280, Note_on_c, 11, 53, 99
12, 386376, Note_off_c, 11, 53, 64
12, 386400, Note_on_c, 11, 50, 99
12, 386496, Note_off_c, 11, 50, 64
12, 386520, Note_on_c, 11, 50, 99
12, 386616, Note_off_c, 11, 50, 64
12, 386640, Note_on_c, 11, 52, 99
12, 386736, Note_off_c, 11, 52, 64
12, 386760, Note_on_c, 11, 52, 99
12, 386856, Note_off_c, 11, 52, 64
12, 386880, Note_on_c, 11, 48, 99
12, 386976, Note_off_c, 11, 48, 64
12, 387000, Note_on_c, 11, 48, 99
12, 387096, Note_off_c, 11, 48, 64
12, 387120, Note_on_c, 11, 50, 99
12, 387216, Note_off_c, 11, 50, 64
12, 387240, Note_on_c, 11, 50, 99
12, 387336, Note_off_c, 11, 50, 64
12, 387360, Note_on_c, 11, 47, 99
12, 387456, Note_off_c, 11, 47, 64
12, 387480, Note_on_c, 11, 47, 99
12, 387576, Note_off_c, 11, 47, 64
12, 387600, Note_on_c, 11, 48, 99
12, 387696, Note_off_c, 11, 48, 64
12, 387720, Note_on_c, 11, 48, 99
12, 387816, Note_off_c, 11, 48, 64
12, 387840, Note_on_c, 11, 45, 99
12, 387936, Note_off_c, 11, 45, 64
12, 387960, Note_on_c, 11, 45, 99
12, 388056, Note_off_c, 11, 45, 64
12, 388080, Note_on_c, 11, 47, 99
12, 388176, Note_off_c, 11, 47, 64
12, 388200, Note_on_c, 11, 47, 99
12, 388296, Note_off_c, 11, 47, 64
12, 388320, Note_on_c, 11, 43, 127
12, 388512, Note_off_c, 11, 43, 64
12, 388800, Note_on_c, 11, 43, 127
12, 392256, Note_off_c, 11, 43, 64
12, 393600, Note_on_c, 11, 45, 127
12, 397536, Note_off_c, 11, 45, 64
12, 398880, Note_on_c, 11, 47, 127
12, 399072, Note_off_c, 11, 47, 64
12, 399840, Note_on_c, 11, 48, 127
12, 400032, Note_off_c, 11, 48, 64
12, 400800, Note_on_c, 11, 43, 61
12, 402720, Note_on_c, 11, 58, 40
12, 402780, Note_off_c, 11, 43, 64
12, 402960, Note_off_c, 11, 58, 64
12, 402960, Note_on_c, 11, 57, 40
12, 403080, Note_off_c, 11, 57, 64
12, 403080, Note_on_c, 11, 58, 40
12, 403200, Note_off_c, 11, 58, 64
12, 403200, Note_on_c, 11, 60, 40
12, 403296, Note_off_c, 11, 60, 64
12, 403440, Note_on_c, 11, 58, 40
12, 403536, Note_off_c, 11, 58, 64
12, 403680, Note_on_c, 11, 57, 40
12, 404064, Note_off_c, 11, 57, 64
12, 404640, Note_on_c, 11, 58, 40
12, 404880, Note_off_c, 11, 58, 64
12, 404880, Note_on_c, 11, 57, 40
12, 405000, Note_off_c, 11, 57, 64
12, 405000, Note_on_c, 11, 58, 40
12, 405120, Note_off_c, 11, 58, 64
12, 405120, Note_on_c, 11, 60, 40
12, 405216, Note_off_c, 11, 60, 64
12, 405360, Note_on_c, 11, 58, 40
12, 405456, Note_off_c, 11, 58, 64
12, 405600, Note_on_c, 11, 57, 40
12, 405984, Note_off_c, 11, 57, 64
12, 406560, Note_on_c, 11, 55, 32
12, 406752, Note_off_c, 11, 55, 64
12, 407520, Note_on_c, 11, 48, 32
12, 407712, Note_off_c, 11, 48, 64
12, 408480, Note_on_c, 11, 43, 32
12, 408672, Note_off_c, 11, 43, 64
12, 408960, Note_on_c, 11, 55, 32
12, 409152, Note_off_c, 11, 55, 64
12, 409440, Note_on_c, 11, 58, 32
12, 410496, Note_off_c, 11, 58, 64
12, 410640, Note_on_c, 11, 48, 40
12, 410736, Note_off_c, 11, 48, 64
12, 410880, Note_on_c, 11, 48, 40
12, 411120, Note_off_c, 11, 48, 64
12, 411120, Note_on_c, 11, 50, 40
12, 411240, Note_off_c, 11, 50, 64
12, 411240, Note_on_c, 11, 52, 40
12, 411360, Note_off_c, 11, 52, 64
12, 411360, Note_on_c, 11, 53, 40
12, 411840, Note_off_c, 11, 53, 64
12, 412320, Note_on_c, 11, 60, 40
12, 412416, Note_off_c, 11, 60, 64
12, 412560, Note_on_c, 11, 48, 40
12, 412656, Note_off_c, 11, 48, 64
12, 412800, Note_on_c, 11, 48, 40
12, 413040, Note_off_c, 11, 48, 64
12, 413040, Note_on_c, 11, 50, 40
12, 413160, Note_off_c, 11, 50, 64
12, 413160, Note_on_c, 11, 52, 40
12, 413280, Note_off_c, 11, 52, 64
12, 413280, Note_on_c, 11, 53, 40
12, 413760, Note_off_c, 11, 53, 64
12, 414240, Note_on_c, 11, 43, 24
12, 414480, Note_off_c, 11, 43, 64
12, 414480, Note_on_c, 11, 42, 24
12, 414600, Note_off_c, 11, 42, 64
12, 414600, Note_on_c, 11, 43, 24
12, 414720, Note_off_c, 11, 43, 64
12, 414720, Note_on_c, 11, 45, 24
12, 414816, Note_off_c, 11, 45, 64
12, 414960, Note_on_c, 11, 43, 24
12, 415056, Note_off_c, 11, 43, 64
12, 415200, Note_on_c, 11, 55, 24
12, 415776, Note_off_c, 11, 55, 64
12, 416160, Note_on_c, 11, 44, 24
12, 416400, Note_off_c, 11, 44, 64
12, 416400, Note_on_c, 11, 43, 24
12, 416520, Note_off_c, 11, 43, 64
12, 416520, Note_on_c, 11, 44, 24
12, 416640, Note_off_c, 11, 44, 64
12, 416640, Note_on_c, 11, 46, 24
12, 416736, Note_off_c, 11, 46, 64
12, 416880, Note_on_c, 11, 44, 24
12, 416976, Note_off_c, 11, 44, 64
12, 417120, Note_on_c, 11, 56, 24
12, 417696, Note_off_c, 11, 56, 64
12, 418080, Note_on_c, 11, 44, 24
12, 418320, Note_off_c, 11, 44, 64
12, 418320, Note_on_c, 11, 43, 24
12, 418440, Note_off_c, 11, 43, 64
12, 418440, Note_on_c, 11, 44, 24
12, 418560, Note_off_c, 11, 44, 64
12, 418560, Note_on_c, 11, 46, 24
12, 418656, Note_off_c, 11, 46, 64
12, 418800, Note_on_c, 11, 44, 24
12, 418896, Note_off_c, 11, 44, 64
12, 419040, Note_on_c, 11, 56, 24
12, 419616, Note_off_c, 11, 56, 64
12, 420000, Note_on_c, 11, 44, 24
12, 420240, Note_off_c, 11, 44, 64
12, 420240, Note_on_c, 11, 43, 24
12, 420360, Note_off_c, 11, 43, 64
12, 420360, Note_on_c, 11, 44, 24
12, 420480, Note_off_c, 11, 44, 64
12, 420480, Note_on_c, 11, 46, 24
12, 420576, Note_off_c, 11, 46, 64
12, 420720, Note_on_c, 11, 44, 24
12, 420816, Note_off_c, 11, 44, 64
12, 420960, Note_on_c, 11, 56, 24
12, 421536, Note_off_c, 11, 56, 64
12, 421920, Note_on_c, 11, 44, 29
12, 422160, Note_off_c, 11, 44, 64
12, 422160, Note_on_c, 11, 43, 29
12, 422280, Note_off_c, 11, 43, 64
12, 422280, Note_on_c, 11, 44, 29
12, 422400, Note_off_c, 11, 44, 64
12, 422400, Note_on_c, 11, 46, 29
12, 422496, Note_off_c, 11, 46, 64
12, 422640, Note_on_c, 11, 44, 29
12, 422736, Note_off_c, 11, 44, 64
12, 422880, Note_on_c, 11, 56, 29
12, 423456, Note_off_c, 11, 56, 64
12, 423840, Note_on_c, 11, 44, 29
12, 424080, Note_off_c, 11, 44, 64
12, 424080, Note_on_c, 11, 43, 29
12, 424200, Note_off_c, 11, 43, 64
12, 424200, Note_on_c, 11, 44, 29
12, 424320, Note_off_c, 11, 44, 64
12, 424320, Note_on_c, 11, 46, 29
12, 424416, Note_off_c, 11, 46, 64
12, 424560, Note_on_c, 11, 44, 29
12, 424656, Note_off_c, 11, 44, 64
12, 424800, Note_on_c, 11, 56, 29
12, 425376, Note_off_c, 11, 56, 64
12, 425760, Note_on_c, 11, 44, 29
12, 426000, Note_off_c, 11, 44, 64
12, 426000, Note_on_c, 11, 43, 29
12, 426120, Note_off_c, 11, 43, 64
12, 426120, Note_on_c, 11, 44, 29
12, 426240, Note_off_c, 11, 44, 64
12, 426240, Note_on_c, 11, 46, 29
12, 426336, Note_off_c, 11, 46, 64
12, 426480, Note_on_c, 11, 44, 29
12, 426576, Note_off_c, 11, 44, 64
12, 426720, Note_on_c, 11, 56, 29
12, 427296, Note_off_c, 11, 56, 64
12, 427680, Note_on_c, 11, 44, 29
12, 427920, Note_off_c, 11, 44, 64
12, 427920, Note_on_c, 11, 43, 29
12, 428040, Note_off_c, 11, 43, 64
12, 428040, Note_on_c, 11, 44, 29
12, 428160, Note_off_c, 11, 44, 64
12, 428160, Note_on_c, 11, 46, 29
12, 428256, Note_off_c, 11, 46, 64
12, 428400, Note_on_c, 11, 44, 29
12, 428496, Note_off_c, 11, 44, 64
12, 428640, Note_on_c, 11, 56, 35
12, 429216, Note_off_c, 11, 56, 64
12, 429600, Note_on_c, 11, 44, 42
12, 431520, Note_off_c, 11, 44, 64
12, 431520, Note_on_c, 11, 43, 55
12, 433440, Note_off_c, 11, 43, 64
12, 433440, Note_on_c, 11, 48, 120
12, 433536, Note_off_c, 11, 48, 64
12, 433680, Note_on_c, 11, 48, 120
12, 433776, Note_off_c, 11, 48, 64
12, 433920, Note_on_c, 11, 48, 120
12, 434016, Note_off_c, 11, 48, 64
12, 434400, Note_on_c, 11, 43, 120
12, 434496, Note_off_c, 11, 43, 64
12, 434640, Note_on_c, 11, 43, 120
12, 434736, Note_off_c, 11, 43, 64
12, 434880, Note_on_c, 11, 43, 120
12, 434976, Note_off_c, 11, 43, 64
12, 435360, Note_on_c, 11, 48, 120
12, 435456, Note_off_c, 11, 48, 64
12, 435600, Note_on_c, 11, 48, 120
12, 435696, Note_off_c, 11, 48, 64
12, 435840, Note_on_c, 11, 48, 120
12, 435936, Note_off_c, 11, 48, 64
12, 436320, Note_on_c, 11, 43, 120
12, 436416, Note_off_c, 11, 43, 64
12, 436560, Note_on_c, 11, 43, 120
12, 436656, Note_off_c, 11, 43, 64
12, 436800, Note_on_c, 11, 43, 120
12, 436896, Note_off_c, 11, 43, 64
12, 437280, Note_on_c, 11, 48, 124
12, 437376, Note_off_c, 11, 48, 64
12, 437520, Note_on_c, 11, 60, 124
12, 437616, Note_off_c, 11, 60, 64
12, 437760, Note_on_c, 11, 45, 124
12, 437856, Note_off_c, 11, 45, 64
12, 438000, Note_on_c, 11, 57, 124
12, 438096, Note_off_c, 11, 57, 64
12, 438240, Note_on_c, 11, 47, 124
12, 438336, Note_off_c, 11, 47, 64
12, 438480, Note_on_c, 11, 59, 124
12, 438576, Note_off_c, 11, 59, 64
12, 438720, Note_on_c, 11, 44, 124
12, 438816, Note_off_c, 11, 44, 64
12, 438960, Note_on_c, 11, 56, 124
12, 439056, Note_off_c, 11, 56, 64
12, 439200, Note_on_c, 11, 45, 124
12, 439296, Note_off_c, 11, 45, 64
12, 439440, Note_on_c, 11, 57, 124
12, 439536, Note_off_c, 11, 57, 64
12, 439680, Note_on_c, 11, 54, 124
12, 439776, Note_off_c, 11, 54, 64
12, 439920, Note_on_c, 11, 54, 124
12, 440016, Note_off_c, 11, 54, 64
12, 440160, Note_on_c, 11, 55, 124
12, 440256, Note_off_c, 11, 55, 64
12, 440400, Note_on_c, 11, 43, 124
12, 440496, Note_off_c, 11, 43, 64
12, 440640, Note_on_c, 11, 52, 124
12, 440736, Note_off_c, 11, 52, 64
12, 440880, Note_on_c, 11, 52, 124
12, 440976, Note_off_c, 11, 52, 64
12, 441120, Note_on_c, 11, 53, 124
12, 441216, Note_off_c, 11, 53, 64
12, 441360, Note_on_c, 11, 65, 124
12, 441456, Note_off_c, 11, 65, 64
12, 441600, Note_on_c, 11, 50, 124
12, 441696, Note_off_c, 11, 50, 64
12, 441840, Note_on_c, 11, 62, 124
12, 441936, Note_off_c, 11, 62, 64
12, 442080, Note_on_c, 11, 52, 124
12, 442176, Note_off_c, 11, 52, 64
12, 442320, Note_on_c, 11, 64, 124
12, 442416, Note_off_c, 11, 64, 64
12, 442560, Note_on_c, 11, 49, 124
12, 442656, Note_off_c, 11, 49, 64
12, 442800, Note_on_c, 11, 61, 124
12, 442896, Note_off_c, 11, 61, 64
12, 443040, Note_on_c, 11, 62, 124
12, 443136, Note_off_c, 11, 62, 64
12, 443280, Note_on_c, 11, 59, 124
12, 443376, Note_off_c, 11, 59, 64
12, 443520, Note_on_c, 11, 60, 124
12, 443616, Note_off_c, 11, 60, 64
12, 443760, Note_on_c, 11, 48, 124
12, 443856, Note_off_c, 11, 48, 64
12, 444000, Note_on_c, 11, 55, 124
12, 444096, Note_off_c, 11, 55, 64
12, 444240, Note_on_c, 11, 43, 124
12, 444336, Note_off_c, 11, 43, 64
12, 444480, Note_on_c, 11, 52, 124
12, 444576, Note_off_c, 11, 52, 64
12, 444720, Note_on_c, 11, 52, 124
12, 444816, Note_off_c, 11, 52, 64
12, 444960, Note_on_c, 11, 53, 100
12, 445056, Note_off_c, 11, 53, 64
12, 445200, Note_on_c, 11, 52, 100
12, 445296, Note_off_c, 11, 52, 64
12, 445440, Note_on_c, 11, 53, 100
12, 445536, Note_off_c, 11, 53, 64
12, 445680, Note_on_c, 11, 52, 100
12, 445776, Note_off_c, 11, 52, 64
12, 445920, Note_on_c, 11, 53, 100
12, 446016, Note_off_c, 11, 53, 64
12, 446160, Note_on_c, 11, 52, 100
12, 446256, Note_off_c, 11, 52, 64
12, 446640, Note_on_c, 11, 53, 100
12, 446736, Note_off_c, 11, 53, 64
12, 446880, Note_on_c, 11, 55, 100
12, 446976, Note_off_c, 11, 55, 64
12, 447120, Note_on_c, 11, 53, 100
12, 447216, Note_off_c, 11, 53, 64
12, 447360, Note_on_c, 11, 55, 100
12, 447456, Note_off_c, 11, 55, 64
12, 447600, Note_on_c, 11, 53, 100
12, 447696, Note_off_c, 11, 53, 64
12, 447840, Note_on_c, 11, 55, 100
12, 447936, Note_off_c, 11, 55, 64
12, 448080, Note_on_c, 11, 53, 100
12, 448176, Note_off_c, 11, 53, 64
12, 448560, Note_on_c, 11, 55, 100
12, 448656, Note_off_c, 11, 55, 64
12, 448800, Note_on_c, 11, 57, 100
12, 448896, Note_off_c, 11, 57, 64
12, 449040, Note_on_c, 11, 55, 100
12, 449136, Note_off_c, 11, 55, 64
12, 449280, Note_on_c, 11, 57, 100
12, 449376, Note_off_c, 11, 57, 64
12, 449520, Note_on_c, 11, 55, 100
12, 449616, Note_off_c, 11, 55, 64
12, 449760, Note_on_c, 11, 57, 100
12, 449856, Note_off_c, 11, 57, 64
12, 450000, Note_on_c, 11, 55, 100
12, 450096, Note_off_c, 11, 55, 64
12, 450240, Note_on_c, 11, 57, 100
12, 450336, Note_off_c, 11, 57, 64
12, 450480, Note_on_c, 11, 56, 100
12, 450576, Note_off_c, 11, 56, 64
12, 450720, Note_on_c, 11, 55, 102
12, 450912, Note_off_c, 11, 55, 64
12, 451200, Note_on_c, 11, 54, 122
12, 451392, Note_off_c, 11, 54, 64
12, 451680, Note_on_c, 11, 55, 102
12, 451872, Note_off_c, 11, 55, 64
12, 452160, Note_on_c, 11, 43, 122
12, 452352, Note_off_c, 11, 43, 64
12, 452640, Note_on_c, 11, 48, 28
12, 452736, Note_off_c, 11, 48, 64
12, 452760, Note_on_c, 11, 48, 28
12, 452856, Note_off_c, 11, 48, 64
12, 452880, Note_on_c, 11, 48, 28
12, 452976, Note_off_c, 11, 48, 64
12, 453000, Note_on_c, 11, 48, 28
12, 453096, Note_off_c, 11, 48, 64
12, 453120, Note_on_c, 11, 48, 28
12, 453216, Note_off_c, 11, 48, 64
12, 453240, Note_on_c, 11, 48, 28
12, 453336, Note_off_c, 11, 48, 64
12, 453360, Note_on_c, 11, 48, 28
12, 453456, Note_off_c, 11, 48, 64
12, 453480, Note_on_c, 11, 48, 28
12, 453576, Note_off_c, 11, 48, 64
12, 453600, Note_on_c, 11, 48, 28
12, 453696, Note_off_c, 11, 48, 64
12, 453720, Note_on_c, 11, 48, 28
12, 453816, Note_off_c, 11, 48, 64
12, 453840, Note_on_c, 11, 48, 28
12, 453936, Note_off_c, 11, 48, 64
12, 453960, Note_on_c, 11, 48, 28
12, 454056, Note_off_c, 11, 48, 64
12, 454080, Note_on_c, 11, 48, 28
12, 454176, Note_off_c, 11, 48, 64
12, 454200, Note_on_c, 11, 48, 28
12, 454296, Note_off_c, 11, 48, 64
12, 454320, Note_on_c, 11, 48, 28
12, 454416, Note_off_c, 11, 48, 64
12, 454440, Note_on_c, 11, 48, 28
12, 454536, Note_off_c, 11, 48, 64
12, 454560, Note_on_c, 11, 48, 28
12, 454656, Note_off_c, 11, 48, 64
12, 454680, Note_on_c, 11, 48, 28
12, 454776, Note_off_c, 11, 48, 64
12, 454800, Note_on_c, 11, 48, 28
12, 454896, Note_off_c, 11, 48, 64
12, 454920, Note_on_c, 11, 48, 28
12, 455016, Note_off_c, 11, 48, 64
12, 455040, Note_on_c, 11, 48, 28
12, 455136, Note_off_c, 11, 48, 64
12, 455160, Note_on_c, 11, 48, 28
12, 455256, Note_off_c, 11, 48, 64
12, 455280, Note_on_c, 11, 48, 28
12, 455376, Note_off_c, 11, 48, 64
12, 455400, Note_on_c, 11, 48, 28
12, 455496, Note_off_c, 11, 48, 64
12, 455520, Note_on_c, 11, 48, 28
12, 455616, Note_off_c, 11, 48, 64
12, 455640, Note_on_c, 11, 48, 28
12, 455736, Note_off_c, 11, 48, 64
12, 455760, Note_on_c, 11, 48, 28
12, 455856, Note_off_c, 11, 48, 64
12, 455880, Note_on_c, 11, 48, 28
12, 455976, Note_off_c, 11, 48, 64
12, 456000, Note_on_c, 11, 48, 28
12, 456096, Note_off_c, 11, 48, 64
12, 456120, Note_on_c, 11, 48, 28
12, 456216, Note_off_c, 11, 48, 64
12, 456240, Note_on_c, 11, 48, 28
12, 456336, Note_off_c, 11, 48, 64
12, 456360, Note_on_c, 11, 48, 28
12, 456456, Note_off_c, 11, 48, 64
12, 456480, Note_on_c, 11, 48, 28
12, 456576, Note_off_c, 11, 48, 64
12, 456600, Note_on_c, 11, 48, 28
12, 456696, Note_off_c, 11, 48, 64
12, 456720, Note_on_c, 11, 48, 28
12, 456816, Note_off_c, 11, 48, 64
12, 456840, Note_on_c, 11, 48, 28
12, 456936, Note_off_c, 11, 48, 64
12, 456960, Note_on_c, 11, 48, 28
12, 457056, Note_off_c, 11, 48, 64
12, 457080, Note_on_c, 11, 48, 28
12, 457176, Note_off_c, 11, 48, 64
12, 457200, Note_on_c, 11, 48, 28
12, 457296, Note_off_c, 11, 48, 64
12, 457320, Note_on_c, 11, 48, 28
12, 457416, Note_off_c, 11, 48, 64
12, 457440, Note_on_c, 11, 48, 28
12, 457536, Note_off_c, 11, 48, 64
12, 457560, Note_on_c, 11, 48, 28
12, 457656, Note_off_c, 11, 48, 64
12, 457680, Note_on_c, 11, 48, 28
12, 457776, Note_off_c, 11, 48, 64
12, 457800, Note_on_c, 11, 48, 28
12, 457896, Note_off_c, 11, 48, 64
12, 457920, Note_on_c, 11, 48, 28
12, 458016, Note_off_c, 11, 48, 64
12, 458040, Note_on_c, 11, 48, 28
12, 458136, Note_off_c, 11, 48, 64
12, 458160, Note_on_c, 11, 48, 28
12, 458256, Note_off_c, 11, 48, 64
12, 458280, Note_on_c, 11, 48, 28
12, 458376, Note_off_c, 11, 48, 64
12, 458400, Note_on_c, 11, 48, 28
12, 458496, Note_off_c, 11, 48, 64
12, 458520, Note_on_c, 11, 48, 28
12, 458616, Note_off_c, 11, 48, 64
12, 458640, Note_on_c, 11, 48, 28
12, 458736, Note_off_c, 11, 48, 64
12, 458760, Note_on_c, 11, 48, 28
12, 458856, Note_off_c, 11, 48, 64
12, 458880, Note_on_c, 11, 48, 28
12, 458976, Note_off_c, 11, 48, 64
12, 459000, Note_on_c, 11, 48, 28
12, 459096, Note_off_c, 11, 48, 64
12, 459120, Note_on_c, 11, 48, 28
12, 459216, Note_off_c, 11, 48, 64
12, 459240, Note_on_c, 11, 48, 28
12, 459336, Note_off_c, 11, 48, 64
12, 459360, Note_on_c, 11, 48, 28
12, 459456, Note_off_c, 11, 48, 64
12, 459480, Note_on_c, 11, 48, 28
12, 459576, Note_off_c, 11, 48, 64
12, 459600, Note_on_c, 11, 48, 28
12, 459696, Note_off_c, 11, 48, 64
12, 459720, Note_on_c, 11, 48, 28
12, 459816, Note_off_c, 11, 48, 64
12, 459840, Note_on_c, 11, 48, 28
12, 459936, Note_off_c, 11, 48, 64
12, 459960, Note_on_c, 11, 48, 28
12, 460056, Note_off_c, 11, 48, 64
12, 460080, Note_on_c, 11, 48, 28
12, 460176, Note_off_c, 11, 48, 64
12, 460200, Note_on_c, 11, 48, 28
12, 460296, Note_off_c, 11, 48, 64
12, 460320, Note_on_c, 11, 48, 28
12, 460416, Note_off_c, 11, 48, 64
12, 460440, Note_on_c, 11, 48, 28
12, 460536, Note_off_c, 11, 48, 64
12, 460560, Note_on_c, 11, 48, 28
12, 460656, Note_off_c, 11, 48, 64
12, 460680, Note_on_c, 11, 48, 28
12, 460776, Note_off_c, 11, 48, 64
12, 460800, Note_on_c, 11, 48, 28
12, 460896, Note_off_c, 11, 48, 64
12, 460920, Note_on_c, 11, 48, 28
12, 461016, Note_off_c, 11, 48, 64
12, 461040, Note_on_c, 11, 48, 28
12, 461136, Note_off_c, 11, 48, 64
12, 461160, Note_on_c, 11, 48, 28
12, 461256, Note_off_c, 11, 48, 64
12, 461280, Note_on_c, 11, 48, 28
12, 461376, Note_off_c, 11, 48, 64
12, 461400, Note_on_c, 11, 48, 28
12, 461496, Note_off_c, 11, 48, 64
12, 461520, Note_on_c, 11, 48, 28
12, 461616, Note_off_c, 11, 48, 64
12, 461640, Note_on_c, 11, 48, 28
12, 461736, Note_off_c, 11, 48, 64
12, 461760, Note_on_c, 11, 48, 28
12, 461856, Note_off_c, 11, 48, 64
12, 461880, Note_on_c, 11, 48, 28
12, 461976, Note_off_c, 11, 48, 64
12, 462000, Note_on_c, 11, 48, 28
12, 462096, Note_off_c, 11, 48, 64
12, 462120, Note_on_c, 11, 48, 28
12, 462216, Note_off_c, 11, 48, 64
12, 462240, Note_on_c, 11, 48, 40
12, 462336, Note_off_c, 11, 48, 64
12, 462360, Note_on_c, 11, 48, 41
12, 462456, Note_off_c, 11, 48, 64
12, 462480, Note_on_c, 11, 48, 42
12, 462576, Note_off_c, 11, 48, 64
12, 462600, Note_on_c, 11, 48, 43
12, 462696, Note_off_c, 11, 48, 64
12, 462720, Note_on_c, 11, 48, 43
12, 462816, Note_off_c, 11, 48, 64
12, 462840, Note_on_c, 11, 48, 44
12, 462936, Note_off_c, 11, 48, 64
12, 462960, Note_on_c, 11, 48, 45
12, 463056, Note_off_c, 11, 48, 64
12, 463080, Note_on_c, 11, 48, 46
12, 463176, Note_off_c, 11, 48, 64
12, 463200, Note_on_c, 11, 48, 47
12, 463296, Note_off_c, 11, 48, 64
12, 463320, Note_on_c, 11, 48, 48
12, 463416, Note_off_c, 11, 48, 64
12, 463440, Note_on_c, 11, 48, 49
12, 463536, Note_off_c, 11, 48, 64
12, 463560, Note_on_c, 11, 48, 50
12, 463656, Note_off_c, 11, 48, 64
12, 463680, Note_on_c, 11, 48, 50
12, 463776, Note_off_c, 11, 48, 64
12, 463800, Note_on_c, 11, 48, 51
12, 463896, Note_off_c, 11, 48, 64
12, 463920, Note_on_c, 11, 48, 52
12, 464016, Note_off_c, 11, 48, 64
12, 464040, Note_on_c, 11, 48, 53
12, 464136, Note_off_c, 11, 48, 64
12, 464160, Note_on_c, 11, 48, 54
12, 464256, Note_off_c, 11, 48, 64
12, 464280, Note_on_c, 11, 48, 55
12, 464376, Note_off_c, 11, 48, 64
12, 464400, Note_on_c, 11, 48, 56
12, 464496, Note_off_c, 11, 48, 64
12, 464520, Note_on_c, 11, 48, 57
12, 464616, Note_off_c, 11, 48, 64
12, 464640, Note_on_c, 11, 48, 57
12, 464736, Note_off_c, 11, 48, 64
12, 464760, Note_on_c, 11, 48, 58
12, 464856, Note_off_c, 11, 48, 64
12, 464880, Note_on_c, 11, 48, 59
12, 464976, Note_off_c, 11, 48, 64
12, 465000, Note_on_c, 11, 48, 60
12, 465096, Note_off_c, 11, 48, 64
12, 465120, Note_on_c, 11, 48, 61
12, 465216, Note_off_c, 11, 48, 64
12, 465240, Note_on_c, 11, 48, 62
12, 465336, Note_off_c, 11, 48, 64
12, 465360, Note_on_c, 11, 48, 63
12, 465456, Note_off_c, 11, 48, 64
12, 465480, Note_on_c, 11, 48, 64
12, 465576, Note_off_c, 11, 48, 64
12, 465600, Note_on_c, 11, 48, 64
12, 465696, Note_off_c, 11, 48, 64
12, 465720, Note_on_c, 11, 48, 65
12, 465816, Note_off_c, 11, 48, 64
12, 465840, Note_on_c, 11, 48, 66
12, 465936, Note_off_c, 11, 48, 64
12, 465960, Note_on_c, 11, 48, 67
12, 466056, Note_off_c, 11, 48, 64
12, 466080, Note_on_c, 11, 48, 68
12, 466176, Note_off_c, 11, 48, 64
12, 466200, Note_on_c, 11, 48, 69
12, 466296, Note_off_c, 11, 48, 64
12, 466320, Note_on_c, 11, 48, 70
12, 466416, Note_off_c, 11, 48, 64
12, 466440, Note_on_c, 11, 48, 71
12, 466536, Note_off_c, 11, 48, 64
12, 466560, Note_on_c, 11, 48, 71
12, 466656, Note_off_c, 11, 48, 64
12, 466680, Note_on_c, 11, 48, 72
12, 466776, Note_off_c, 11, 48, 64
12, 466800, Note_on_c, 11, 48, 73
12, 466896, Note_off_c, 11, 48, 64
12, 466920, Note_on_c, 11, 48, 74
12, 467016, Note_off_c, 11, 48, 64
12, 467040, Note_on_c, 11, 48, 75
12, 467136, Note_off_c, 11, 48, 64
12, 467160, Note_on_c, 11, 48, 76
12, 467256, Note_off_c, 11, 48, 64
12, 467280, Note_on_c, 11, 48, 77
12, 467376, Note_off_c, 11, 48, 64
12, 467400, Note_on_c, 11, 48, 77
12, 467496, Note_off_c, 11, 48, 64
12, 467520, Note_on_c, 11, 48, 78
12, 467616, Note_off_c, 11, 48, 64
12, 467640, Note_on_c, 11, 48, 79
12, 467736, Note_off_c, 11, 48, 64
12, 467760, Note_on_c, 11, 48, 80
12, 467856, Note_off_c, 11, 48, 64
12, 467880, Note_on_c, 11, 48, 81
12, 467976, Note_off_c, 11, 48, 64
12, 468000, Note_on_c, 11, 48, 82
12, 468096, Note_off_c, 11, 48, 64
12, 468120, Note_on_c, 11, 48, 83
12, 468216, Note_off_c, 11, 48, 64
12, 468240, Note_on_c, 11, 48, 84
12, 468336, Note_off_c, 11, 48, 64
12, 468360, Note_on_c, 11, 48, 84
12, 468456, Note_off_c, 11, 48, 64
12, 468480, Note_on_c, 11, 48, 85
12, 468576, Note_off_c, 11, 48, 64
12, 468600, Note_on_c, 11, 48, 86
12, 468696, Note_off_c, 11, 48, 64
12, 468720, Note_on_c, 11, 48, 87
12, 468816, Note_off_c, 11, 48, 64
12, 468840, Note_on_c, 11, 48, 88
12, 468936, Note_off_c, 11, 48, 64
12, 468960, Note_on_c, 11, 48, 89
12, 469056, Note_off_c, 11, 48, 64
12, 469080, Note_on_c, 11, 48, 90
12, 469176, Note_off_c, 11, 48, 64
12, 469200, Note_on_c, 11, 48, 91
12, 469296, Note_off_c, 11, 48, 64
12, 469320, Note_on_c, 11, 48, 91
12, 469416, Note_off_c, 11, 48, 64
12, 469440, Note_on_c, 11, 48, 92
12, 469536, Note_off_c, 11, 48, 64
12, 469560, Note_on_c, 11, 48, 93
12, 469656, Note_off_c, 11, 48, 64
12, 469680, Note_on_c, 11, 48, 94
12, 469776, Note_off_c, 11, 48, 64
12, 469800, Note_on_c, 11, 48, 95
12, 469896, Note_off_c, 11, 48, 64
12, 469920, Note_on_c, 11, 48, 96
12, 470016, Note_off_c, 11, 48, 64
12, 470040, Note_on_c, 11, 48, 97
12, 470136, Note_off_c, 11, 48, 64
12, 470160, Note_on_c, 11, 48, 98
12, 470256, Note_off_c, 11, 48, 64
12, 470280, Note_on_c, 11, 48, 98
12, 470376, Note_off_c, 11, 48, 64
12, 470400, Note_on_c, 11, 48, 99
12, 470496, Note_off_c, 11, 48, 64
12, 470520, Note_on_c, 11, 48, 100
12, 470616, Note_off_c, 11, 48, 64
12, 470640, Note_on_c, 11, 48, 101
12, 470736, Note_off_c, 11, 48, 64
12, 470760, Note_on_c, 11, 48, 102
12, 470856, Note_off_c, 11, 48, 64
12, 470880, Note_on_c, 11, 48, 103
12, 470976, Note_off_c, 11, 48, 64
12, 471000, Note_on_c, 11, 48, 104
12, 471096, Note_off_c, 11, 48, 64
12, 471120, Note_on_c, 11, 48, 105
12, 471216, Note_off_c, 11, 48, 64
12, 471240, Note_on_c, 11, 48, 105
12, 471336, Note_off_c, 11, 48, 64
12, 471360, Note_on_c, 11, 41, 106
12, 471360, Note_on_c, 11, 48, 106
12, 471456, Note_off_c, 11, 48, 64
12, 471456, Note_off_c, 11, 41, 64
12, 471480, Note_on_c, 11, 41, 107
12, 471480, Note_on_c, 11, 48, 107
12, 471576, Note_off_c, 11, 48, 64
12, 471576, Note_off_c, 11, 41, 64
12, 471600, Note_on_c, 11, 48, 108
12, 471600, Note_on_c, 11, 41, 108
12, 471696, Note_off_c, 11, 41, 64
12, 471696, Note_off_c, 11, 48, 64
12, 471720, Note_on_c, 11, 41, 109
12, 471720, Note_on_c, 11, 48, 109
12, 471816, Note_off_c, 11, 48, 64
12, 471816, Note_off_c, 11, 41, 64
12, 471840, Note_on_c, 11, 41, 28
12, 471840, Note_on_c, 11, 48, 28
12, 471936, Note_off_c, 11, 48, 64
12, 471936, Note_off_c, 11, 41, 64
12, 471960, Note_on_c, 11, 41, 28
12, 471960, Note_on_c, 11, 48, 28
12, 472056, Note_off_c, 11, 48, 64
12, 472056, Note_off_c, 11, 41, 64
12, 472080, Note_on_c, 11, 48, 28
12, 472080, Note_on_c, 11, 41, 28
12, 472176, Note_off_c, 11, 41, 64
12, 472176, Note_off_c, 11, 48, 64
12, 472200, Note_on_c, 11, 48, 28
12, 472200, Note_on_c, 11, 41, 28
12, 472296, Note_off_c, 11, 41, 64
12, 472296, Note_off_c, 11, 48, 64
12, 472320, Note_on_c, 11, 41, 28
12, 472320, Note_on_c, 11, 48, 28
12, 472416, Note_off_c, 11, 48, 64
12, 472416, Note_off_c, 11, 41, 64
12, 472440, Note_on_c, 11, 41, 28
12, 472440, Note_on_c, 11, 48, 28
12, 472536, Note_off_c, 11, 48, 64
12, 472536, Note_off_c, 11, 41, 64
12, 472560, Note_on_c, 11, 41, 28
12, 472560, Note_on_c, 11, 48, 28
12, 472656, Note_off_c, 11, 48, 64
12, 472656, Note_off_c, 11, 41, 64
12, 472680, Note_on_c, 11, 41, 28
12, 472680, Note_on_c, 11, 48, 28
12, 472776, Note_off_c, 11, 48, 64
12, 472776, Note_off_c, 11, 41, 64
12, 472800, Note_on_c, 11, 48, 28
12, 472800, Note_on_c, 11, 41, 28
12, 472896, Note_off_c, 11, 41, 64
12, 472896, Note_off_c, 11, 48, 64
12, 472920, Note_on_c, 11, 48, 28
12, 472920, Note_on_c, 11, 41, 28
12, 473016, Note_off_c, 11, 41, 64
12, 473016, Note_off_c, 11, 48, 64
12, 473040, Note_on_c, 11, 48, 28
12, 473040, Note_on_c, 11, 41, 28
12, 473136, Note_off_c, 11, 41, 64
12, 473136, Note_off_c, 11, 48, 64
12, 473160, Note_on_c, 11, 41, 28
12, 473160, Note_on_c, 11, 48, 28
12, 473256, Note_off_c, 11, 48, 64
12, 473256, Note_off_c, 11, 41, 64
12, 473280, Note_on_c, 11, 41, 28
12, 473280, Note_on_c, 11, 48, 28
12, 473376, Note_off_c, 11, 48, 64
12, 473376, Note_off_c, 11, 41, 64
12, 473400, Note_on_c, 11, 41, 28
12, 473400, Note_on_c, 11, 48, 28
12, 473496, Note_off_c, 11, 48, 64
12, 473496, Note_off_c, 11, 41, 64
12, 473520, Note_on_c, 11, 48, 28
12, 473520, Note_on_c, 11, 41, 28
12, 473616, Note_off_c, 11, 41, 64
12, 473616, Note_off_c, 11, 48, 64
12, 473640, Note_on_c, 11, 41, 28
12, 473640, Note_on_c, 11, 48, 28
12, 473736, Note_off_c, 11, 48, 64
12, 473736, Note_off_c, 11, 41, 64
12, 473760, Note_on_c, 11, 48, 28
12, 473856, Note_off_c, 11, 48, 64
12, 473880, Note_on_c, 11, 48, 28
12, 473976, Note_off_c, 11, 48, 64
12, 474000, Note_on_c, 11, 48, 28
12, 474096, Note_off_c, 11, 48, 64
12, 474120, Note_on_c, 11, 48, 28
12, 474216, Note_off_c, 11, 48, 64
12, 474240, Note_on_c, 11, 48, 28
12, 474336, Note_off_c, 11, 48, 64
12, 474360, Note_on_c, 11, 48, 28
12, 474456, Note_off_c, 11, 48, 64
12, 474480, Note_on_c, 11, 48, 28
12, 474576, Note_off_c, 11, 48, 64
12, 474600, Note_on_c, 11, 48, 28
12, 474696, Note_off_c, 11, 48, 64
12, 474720, Note_on_c, 11, 48, 28
12, 474816, Note_off_c, 11, 48, 64
12, 474840, Note_on_c, 11, 48, 28
12, 474936, Note_off_c, 11, 48, 64
12, 474960, Note_on_c, 11, 48, 28
12, 475056, Note_off_c, 11, 48, 64
12, 475080, Note_on_c, 11, 48, 28
12, 475176, Note_off_c, 11, 48, 64
12, 475200, Note_on_c, 11, 48, 28
12, 475296, Note_off_c, 11, 48, 64
12, 475320, Note_on_c, 11, 48, 28
12, 475416, Note_off_c, 11, 48, 64
12, 475440, Note_on_c, 11, 48, 28
12, 475536, Note_off_c, 11, 48, 64
12, 475560, Note_on_c, 11, 48, 28
12, 475656, Note_off_c, 11, 48, 64
12, 475680, Note_on_c, 11, 48, 28
12, 475776, Note_off_c, 11, 48, 64
12, 475800, Note_on_c, 11, 48, 28
12, 475896, Note_off_c, 11, 48, 64
12, 475920, Note_on_c, 11, 48, 28
12, 476016, Note_off_c, 11, 48, 64
12, 476040, Note_on_c, 11, 48, 28
12, 476136, Note_off_c, 11, 48, 64
12, 476160, Note_on_c, 11, 48, 28
12, 476256, Note_off_c, 11, 48, 64
12, 476280, Note_on_c, 11, 48, 28
12, 476376, Note_off_c, 11, 48, 64
12, 476400, Note_on_c, 11, 48, 28
12, 476496, Note_off_c, 11, 48, 64
12, 476520, Note_on_c, 11, 48, 28
12, 476616, Note_off_c, 11, 48, 64
12, 476640, Note_on_c, 11, 48, 28
12, 476736, Note_off_c, 11, 48, 64
12, 476760, Note_on_c, 11, 48, 28
12, 476856, Note_off_c, 11, 48, 64
12, 476880, Note_on_c, 11, 48, 28
12, 476976, Note_off_c, 11, 48, 64
12, 477000, Note_on_c, 11, 48, 28
12, 477096, Note_off_c, 11, 48, 64
12, 477120, Note_on_c, 11, 48, 28
12, 477216, Note_off_c, 11, 48, 64
12, 477240, Note_on_c, 11, 48, 28
12, 477336, Note_off_c, 11, 48, 64
12, 477360, Note_on_c, 11, 48, 28
12, 477456, Note_off_c, 11, 48, 64
12, 477480, Note_on_c, 11, 48, 28
12, 477576, Note_off_c, 11, 48, 64
12, 477600, Note_on_c, 11, 41, 99
12, 477600, Note_on_c, 11, 48, 99
12, 477696, Note_off_c, 11, 48, 64
12, 477696, Note_off_c, 11, 41, 64
12, 477720, Note_on_c, 11, 41, 99
12, 477720, Note_on_c, 11, 48, 99
12, 477816, Note_off_c, 11, 48, 64
12, 477816, Note_off_c, 11, 41, 64
12, 477840, Note_on_c, 11, 41, 99
12, 477840, Note_on_c, 11, 48, 99
12, 477936, Note_off_c, 11, 48, 64
12, 477936, Note_off_c, 11, 41, 64
12, 477960, Note_on_c, 11, 48, 99
12, 477960, Note_on_c, 11, 41, 99
12, 478056, Note_off_c, 11, 41, 64
12, 478056, Note_off_c, 11, 48, 64
12, 478080, Note_on_c, 11, 48, 99
12, 478080, Note_on_c, 11, 41, 99
12, 478176, Note_off_c, 11, 41, 64
12, 478176, Note_off_c, 11, 48, 64
12, 478200, Note_on_c, 11, 48, 99
12, 478200, Note_on_c, 11, 41, 99
12, 478296, Note_off_c, 11, 41, 64
12, 478296, Note_off_c, 11, 48, 64
12, 478320, Note_on_c, 11, 41, 99
12, 478320, Note_on_c, 11, 48, 99
12, 478416, Note_off_c, 11, 48, 64
12, 478416, Note_off_c, 11, 41, 64
12, 478440, Note_on_c, 11, 41, 99
12, 478440, Note_on_c, 11, 48, 99
12, 478536, Note_off_c, 11, 48, 64
12, 478536, Note_off_c, 11, 41, 64
12, 478560, Note_on_c, 11, 41, 124
12, 478656, Note_off_c, 11, 41, 64
12, 478680, Note_on_c, 11, 53, 124
12, 478776, Note_off_c, 11, 53, 64
12, 478800, Note_on_c, 11, 53, 124
12, 478896, Note_off_c, 11, 53, 64
12, 478920, Note_on_c, 11, 53, 124
12, 479016, Note_off_c, 11, 53, 64
12, 479040, Note_on_c, 11, 53, 124
12, 479136, Note_off_c, 11, 53, 64
12, 479160, Note_on_c, 11, 53, 124
12, 479256, Note_off_c, 11, 53, 64
12, 479280, Note_on_c, 11, 54, 124
12, 479376, Note_off_c, 11, 54, 64
12, 479400, Note_on_c, 11, 54, 124
12, 479496, Note_off_c, 11, 54, 64
12, 479520, Note_on_c, 11, 55, 120
12, 480288, Note_off_c, 11, 55, 64
12, 480480, Note_on_c, 11, 52, 120
12, 480720, Note_off_c, 11, 52, 64
12, 480720, Note_on_c, 11, 53, 120
12, 480840, Note_off_c, 11, 53, 64
12, 480840, Note_on_c, 11, 55, 120
12, 480960, Note_off_c, 11, 55, 64
12, 480960, Note_on_c, 11, 57, 120
12, 481056, Note_off_c, 11, 57, 64
12, 481200, Note_on_c, 11, 59, 120
12, 481296, Note_off_c, 11, 59, 64
12, 481440, Note_on_c, 11, 60, 120
12, 481536, Note_off_c, 11, 60, 64
12, 481680, Note_on_c, 11, 48, 80
12, 481776, Note_off_c, 11, 48, 64
12, 481920, Note_on_c, 11, 60, 80
12, 482016, Note_off_c, 11, 60, 64
12, 482160, Note_on_c, 11, 60, 80
12, 482256, Note_off_c, 11, 60, 64
12, 482400, Note_on_c, 11, 59, 80
12, 482496, Note_off_c, 11, 59, 64
12, 482640, Note_on_c, 11, 47, 80
12, 482736, Note_off_c, 11, 47, 64
12, 482880, Note_on_c, 11, 59, 80
12, 482976, Note_off_c, 11, 59, 64
12, 483120, Note_on_c, 11, 59, 80
12, 483216, Note_off_c, 11, 59, 64
12, 483360, Note_on_c, 11, 57, 80
12, 483456, Note_off_c, 11, 57, 64
12, 483600, Note_on_c, 11, 45, 80
12, 483696, Note_off_c, 11, 45, 64
12, 483840, Note_on_c, 11, 57, 80
12, 483936, Note_off_c, 11, 57, 64
12, 484080, Note_on_c, 11, 57, 80
12, 484176, Note_off_c, 11, 57, 64
12, 484320, Note_on_c, 11, 55, 80
12, 484416, Note_off_c, 11, 55, 64
12, 484560, Note_on_c, 11, 43, 80
12, 484656, Note_off_c, 11, 43, 64
12, 484800, Note_on_c, 11, 55, 80
12, 484896, Note_off_c, 11, 55, 64
12, 485040, Note_on_c, 11, 55, 80
12, 485136, Note_off_c, 11, 55, 64
12, 485280, Note_on_c, 11, 53, 80
12, 485376, Note_off_c, 11, 53, 64
12, 485520, Note_on_c, 11, 41, 80
12, 485616, Note_off_c, 11, 41, 64
12, 485760, Note_on_c, 11, 53, 80
12, 485856, Note_off_c, 11, 53, 64
12, 486000, Note_on_c, 11, 53, 80
12, 486096, Note_off_c, 11, 53, 64
12, 486240, Note_on_c, 11, 53, 80
12, 486336, Note_off_c, 11, 53, 64
12, 486480, Note_on_c, 11, 53, 80
12, 486576, Note_off_c, 11, 53, 64
12, 486720, Note_on_c, 11, 52, 80
12, 486816, Note_off_c, 11, 52, 64
12, 486960, Note_on_c, 11, 48, 80
12, 487056, Note_off_c, 11, 48, 64
12, 487200, Note_on_c, 11, 43, 80
12, 487296, Note_off_c, 11, 43, 64
12, 487440, Note_on_c, 11, 55, 80
12, 487536, Note_off_c, 11, 55, 64
12, 487680, Note_on_c, 11, 55, 80
12, 487776, Note_off_c, 11, 55, 64
12, 487920, Note_on_c, 11, 43, 80
12, 488016, Note_off_c, 11, 43, 64
12, 488160, Note_on_c, 11, 48, 80
12, 488256, Note_off_c, 11, 48, 64
12, 488400, Note_on_c, 11, 60, 80
12, 488496, Note_off_c, 11, 60, 64
12, 488640, Note_on_c, 11, 60, 80
12, 488736, Note_off_c, 11, 60, 64
12, 488880, Note_on_c, 11, 48, 80
12, 488976, Note_off_c, 11, 48, 64
12, 489120, Note_on_c, 11, 43, 80
12, 489216, Note_off_c, 11, 43, 64
12, 489360, Note_on_c, 11, 55, 80
12, 489456, Note_off_c, 11, 55, 64
12, 489600, Note_on_c, 11, 55, 80
12, 489696, Note_off_c, 11, 55, 64
12, 489840, Note_on_c, 11, 43, 80
12, 489936, Note_off_c, 11, 43, 64
12, 490080, Note_on_c, 11, 48, 80
12, 490176, Note_off_c, 11, 48, 64
12, 490320, Note_on_c, 11, 60, 80
12, 490416, Note_off_c, 11, 60, 64
12, 490560, Note_on_c, 11, 60, 80
12, 490656, Note_off_c, 11, 60, 64
12, 490800, Note_on_c, 11, 48, 80
12, 490896, Note_off_c, 11, 48, 64
12, 491040, Note_on_c, 11, 43, 80
12, 491136, Note_off_c, 11, 43, 64
12, 491280, Note_on_c, 11, 55, 80
12, 491376, Note_off_c, 11, 55, 64
12, 491520, Note_on_c, 11, 55, 80
12, 491616, Note_off_c, 11, 55, 64
12, 491760, Note_on_c, 11, 43, 80
12, 491856, Note_off_c, 11, 43, 64
12, 492000, Note_on_c, 11, 48, 80
12, 492096, Note_off_c, 11, 48, 64
12, 492240, Note_on_c, 11, 60, 80
12, 492336, Note_off_c, 11, 60, 64
12, 492480, Note_on_c, 11, 60, 80
12, 492576, Note_off_c, 11, 60, 64
12, 492720, Note_on_c, 11, 48, 80
12, 492816, Note_off_c, 11, 48, 64
12, 492960, Note_on_c, 11, 43, 80
12, 493056, Note_off_c, 11, 43, 64
12, 493200, Note_on_c, 11, 55, 80
12, 493296, Note_off_c, 11, 55, 64
12, 493440, Note_on_c, 11, 55, 80
12, 493536, Note_off_c, 11, 55, 64
12, 493680, Note_on_c, 11, 43, 80
12, 493776, Note_off_c, 11, 43, 64
12, 493920, Note_on_c, 11, 48, 120
12, 494400, Note_off_c, 11, 48, 64
12, 494640, Note_on_c, 11, 43, 120
12, 494760, Note_off_c, 11, 43, 64
12, 494760, Note_on_c, 11, 45, 120
12, 494820, Note_off_c, 11, 45, 64
12, 494820, Note_on_c, 11, 47, 120
12, 494880, Note_off_c, 11, 47, 64
12, 494880, Note_on_c, 11, 48, 120
12, 495360, Note_off_c, 11, 48, 64
12, 495600, Note_on_c, 11, 43, 120
12, 495720, Note_off_c, 11, 43, 64
12, 495720, Note_on_c, 11, 45, 120
12, 495780, Note_off_c, 11, 45, 64
12, 495780, Note_on_c, 11, 47, 120
12, 495840, Note_off_c, 11, 47, 64
12, 495840, Note_on_c, 11, 48, 120
12, 496320, Note_off_c, 11, 48, 64
12, 496560, Note_on_c, 11, 43, 120
12, 496680, Note_off_c, 11, 43, 64
12, 496680, Note_on_c, 11, 45, 120
12, 496740, Note_off_c, 11, 45, 64
12, 496740, Note_on_c, 11, 47, 120
12, 496800, Note_off_c, 11, 47, 64
12, 496800, Note_on_c, 11, 48, 120
12, 497280, Note_off_c, 11, 48, 64
12, 497520, Note_on_c, 11, 43, 120
12, 497640, Note_off_c, 11, 43, 64
12, 497640, Note_on_c, 11, 45, 120
12, 497700, Note_off_c, 11, 45, 64
12, 497700, Note_on_c, 11, 47, 120
12, 497760, Note_off_c, 11, 47, 64
12, 497760, Note_on_c, 11, 48, 120
12, 497856, Note_off_c, 11, 48, 64
12, 497880, Note_on_c, 11, 48, 120
12, 497976, Note_off_c, 11, 48, 64
12, 498000, Note_on_c, 11, 50, 120
12, 498096, Note_off_c, 11, 50, 64
12, 498120, Note_on_c, 11, 52, 120
12, 498216, Note_off_c, 11, 52, 64
12, 498240, Note_on_c, 11, 53, 120
12, 498336, Note_off_c, 11, 53, 64
12, 498360, Note_on_c, 11, 55, 120
12, 498456, Note_off_c, 11, 55, 64
12, 498480, Note_on_c, 11, 57, 120
12, 498576, Note_off_c, 11, 57, 64
12, 498600, Note_on_c, 11, 59, 120
12, 498696, Note_off_c, 11, 59, 64
12, 498720, Note_on_c, 11, 60, 120
12, 499776, Note_off_c, 11, 60, 64
12, 499800, Note_on_c, 11, 52, 120
12, 499896, Note_off_c, 11, 52, 64
12, 499920, Note_on_c, 11, 53, 120
12, 500016, Note_off_c, 11, 53, 64
12, 500040, Note_on_c, 11, 55, 120
12, 500136, Note_off_c, 11, 55, 64
12, 500160, Note_on_c, 11, 57, 120
12, 500256, Note_off_c, 11, 57, 64
12, 500280, Note_on_c, 11, 59, 120
12, 500376, Note_off_c, 11, 59, 64
12, 500400, Note_on_c, 11, 60, 120
12, 500496, Note_off_c, 11, 60, 64
12, 500520, Note_on_c, 11, 62, 120
12, 500616, Note_off_c, 11, 62, 64
12, 500640, Note_on_c, 11, 64, 120
12, 501696, Note_off_c, 11, 64, 64
12, 501720, Note_on_c, 11, 55, 120
12, 501816, Note_off_c, 11, 55, 64
12, 501840, Note_on_c, 11, 57, 120
12, 501936, Note_off_c, 11, 57, 64
12, 501960, Note_on_c, 11, 59, 120
12, 502056, Note_off_c, 11, 59, 64
12, 502080, Note_on_c, 11, 60, 120
12, 502176, Note_off_c, 11, 60, 64
12, 502200, Note_on_c, 11, 62, 120
12, 502296, Note_off_c, 11, 62, 64
12, 502320, Note_on_c, 11, 64, 120
12, 502416, Note_off_c, 11, 64, 64
12, 502440, Note_on_c, 11, 65, 120
12, 502536, Note_off_c, 11, 65, 64
12, 502560, Note_on_c, 11, 67, 127
12, 502656, Note_off_c, 11, 67, 64
12, 502800, Note_on_c, 11, 64, 99
12, 502896, Note_off_c, 11, 64, 64
12, 503040, Note_on_c, 11, 67, 127
12, 503136, Note_off_c, 11, 67, 64
12, 503280, Note_on_c, 11, 59, 99
12, 503376, Note_off_c, 11, 59, 64
12, 503520, Note_on_c, 11, 60, 127
12, 503616, Note_off_c, 11, 60, 64
12, 503760, Note_on_c, 11, 64, 99
12, 503856, Note_off_c, 11, 64, 64
12, 504000, Note_on_c, 11, 54, 127
12, 504096, Note_off_c, 11, 54, 64
12, 504240, Note_on_c, 11, 55, 99
12, 504336, Note_off_c, 11, 55, 64
12, 504480, Note_on_c, 11, 60, 127
12, 504576, Note_off_c, 11, 60, 64
12, 504720, Note_on_c, 11, 51, 99
12, 504816, Note_off_c, 11, 51, 64
12, 504960, Note_on_c, 11, 52, 127
12, 505056, Note_off_c, 11, 52, 64
12, 505200, Note_on_c, 11, 55, 99
12, 505296, Note_off_c, 11, 55, 64
12, 505440, Note_on_c, 11, 48, 127
12, 505536, Note_off_c, 11, 48, 64
12, 505680, Note_on_c, 11, 52, 99
12, 505776, Note_off_c, 11, 52, 64
12, 505920, Note_on_c, 11, 47, 127
12, 506016, Note_off_c, 11, 47, 64
12, 506160, Note_on_c, 11, 48, 99
12, 506256, Note_off_c, 11, 48, 64
12, 506400, Note_on_c, 11, 44, 99
12, 506496, Note_off_c, 11, 44, 64
12, 506520, Note_on_c, 11, 44, 99
12, 506616, Note_off_c, 11, 44, 64
12, 506640, Note_on_c, 11, 44, 99
12, 506736, Note_off_c, 11, 44, 64
12, 506760, Note_on_c, 11, 44, 99
12, 506856, Note_off_c, 11, 44, 64
12, 506880, Note_on_c, 11, 44, 99
12, 506976, Note_off_c, 11, 44, 64
12, 507000, Note_on_c, 11, 44, 99
12, 507096, Note_off_c, 11, 44, 64
12, 507120, Note_on_c, 11, 44, 99
12, 507216, Note_off_c, 11, 44, 64
12, 507240, Note_on_c, 11, 44, 99
12, 507336, Note_off_c, 11, 44, 64
12, 507360, Note_on_c, 11, 44, 99
12, 507456, Note_off_c, 11, 44, 64
12, 507480, Note_on_c, 11, 44, 99
12, 507576, Note_off_c, 11, 44, 64
12, 507600, Note_on_c, 11, 44, 99
12, 507696, Note_off_c, 11, 44, 64
12, 507720, Note_on_c, 11, 44, 99
12, 507816, Note_off_c, 11, 44, 64
12, 507840, Note_on_c, 11, 44, 99
12, 507936, Note_off_c, 11, 44, 64
12, 507960, Note_on_c, 11, 44, 99
12, 508056, Note_off_c, 11, 44, 64
12, 508080, Note_on_c, 11, 44, 99
12, 508176, Note_off_c, 11, 44, 64
12, 508200, Note_on_c, 11, 44, 99
12, 508296, Note_off_c, 11, 44, 64
12, 508320, Note_on_c, 11, 43, 39
12, 508704, Note_off_c, 11, 43, 64
12, 510240, Note_on_c, 11, 44, 120
12, 510336, Note_off_c, 11, 44, 64
12, 510360, Note_on_c, 11, 44, 114
12, 510456, Note_off_c, 11, 44, 64
12, 510480, Note_on_c, 11, 44, 109
12, 510576, Note_off_c, 11, 44, 64
12, 510600, Note_on_c, 11, 44, 103
12, 510696, Note_off_c, 11, 44, 64
12, 510720, Note_on_c, 11, 44, 97
12, 510816, Note_off_c, 11, 44, 64
12, 510840, Note_on_c, 11, 44, 92
12, 510936, Note_off_c, 11, 44, 64
12, 510960, Note_on_c, 11, 44, 86
12, 511056, Note_off_c, 11, 44, 64
12, 511080, Note_on_c, 11, 44, 81
12, 511176, Note_off_c, 11, 44, 64
12, 511200, Note_on_c, 11, 44, 75
12, 511296, Note_off_c, 11, 44, 64
12, 511320, Note_on_c, 11, 44, 69
12, 511416, Note_off_c, 11, 44, 64
12, 511440, Note_on_c, 11, 44, 64
12, 511536, Note_off_c, 11, 44, 64
12, 511560, Note_on_c, 11, 44, 58
12, 511656, Note_off_c, 11, 44, 64
12, 511680, Note_on_c, 11, 44, 52
12, 511776, Note_off_c, 11, 44, 64
12, 511800, Note_on_c, 11, 44, 47
12, 511896, Note_off_c, 11, 44, 64
12, 511920, Note_on_c, 11, 44, 41
12, 512016, Note_off_c, 11, 44, 64
12, 512040, Note_on_c, 11, 44, 36
12, 512136, Note_off_c, 11, 44, 64
12, 512160, Note_on_c, 11, 44, 30
12, 512256, Note_off_c, 11, 44, 64
12, 512280, Note_on_c, 11, 44, 30
12, 512376, Note_off_c, 11, 44, 64
12, 512400, Note_on_c, 11, 44, 30
12, 512496, Note_off_c, 11, 44, 64
12, 512520, Note_on_c, 11, 44, 30
12, 512616, Note_off_c, 11, 44, 64
12, 512640, Note_on_c, 11, 44, 30
12, 512736, Note_off_c, 11, 44, 64
12, 512760, Note_on_c, 11, 44, 30
12, 512856, Note_off_c, 11, 44, 64
12, 512880, Note_on_c, 11, 44, 30
12, 512976, Note_off_c, 11, 44, 64
12, 513000, Note_on_c, 11, 44, 30
12, 513096, Note_off_c, 11, 44, 64
12, 513120, Note_on_c, 11, 44, 30
12, 513216, Note_off_c, 11, 44, 64
12, 513240, Note_on_c, 11, 44, 30
12, 513336, Note_off_c, 11, 44, 64
12, 513360, Note_on_c, 11, 44, 30
12, 513456, Note_off_c, 11, 44, 64
12, 513480, Note_on_c, 11, 44, 30
12, 513576, Note_off_c, 11, 44, 64
12, 513600, Note_on_c, 11, 44, 30
12, 513696, Note_off_c, 11, 44, 64
12, 513720, Note_on_c, 11, 44, 30
12, 513816, Note_off_c, 11, 44, 64
12, 513840, Note_on_c, 11, 44, 30
12, 513936, Note_off_c, 11, 44, 64
12, 513960, Note_on_c, 11, 44, 30
12, 514056, Note_off_c, 11, 44, 64
12, 514080, Note_on_c, 11, 43, 30
12, 514176, Note_off_c, 11, 43, 64
12, 514200, Note_on_c, 11, 43, 30
12, 514296, Note_off_c, 11, 43, 64
12, 514320, Note_on_c, 11, 43, 30
12, 514416, Note_off_c, 11, 43, 64
12, 514440, Note_on_c, 11, 43, 30
12, 514536, Note_off_c, 11, 43, 64
12, 514560, Note_on_c, 11, 43, 30
12, 514656, Note_off_c, 11, 43, 64
12, 514680, Note_on_c, 11, 43, 30
12, 514776, Note_off_c, 11, 43, 64
12, 514800, Note_on_c, 11, 43, 30
12, 514896, Note_off_c, 11, 43, 64
12, 514920, Note_on_c, 11, 43, 30
12, 515016, Note_off_c, 11, 43, 64
12, 515040, Note_on_c, 11, 43, 30
12, 515136, Note_off_c, 11, 43, 64
12, 515160, Note_on_c, 11, 43, 30
12, 515256, Note_off_c, 11, 43, 64
12, 515280, Note_on_c, 11, 43, 30
12, 515376, Note_off_c, 11, 43, 64
12, 515400, Note_on_c, 11, 43, 30
12, 515496, Note_off_c, 11, 43, 64
12, 515520, Note_on_c, 11, 44, 30
12, 515616, Note_off_c, 11, 44, 64
12, 515640, Note_on_c, 11, 44, 30
12, 515736, Note_off_c, 11, 44, 64
12, 515760, Note_on_c, 11, 44, 30
12, 515856, Note_off_c, 11, 44, 64
12, 515880, Note_on_c, 11, 44, 30
12, 515976, Note_off_c, 11, 44, 64
12, 516000, Note_on_c, 11, 45, 30
12, 516096, Note_off_c, 11, 45, 64
12, 516120, Note_on_c, 11, 45, 31
12, 516216, Note_off_c, 11, 45, 64
12, 516240, Note_on_c, 11, 45, 33
12, 516336, Note_off_c, 11, 45, 64
12, 516360, Note_on_c, 11, 45, 35
12, 516456, Note_off_c, 11, 45, 64
12, 516480, Note_on_c, 11, 45, 36
12, 516576, Note_off_c, 11, 45, 64
12, 516600, Note_on_c, 11, 45, 38
12, 516696, Note_off_c, 11, 45, 64
12, 516720, Note_on_c, 11, 45, 39
12, 516816, Note_off_c, 11, 45, 64
12, 516840, Note_on_c, 11, 45, 41
12, 516936, Note_off_c, 11, 45, 64
12, 516960, Note_on_c, 11, 45, 42
12, 517056, Note_off_c, 11, 45, 64
12, 517080, Note_on_c, 11, 45, 44
12, 517176, Note_off_c, 11, 45, 64
12, 517200, Note_on_c, 11, 45, 46
12, 517296, Note_off_c, 11, 45, 64
12, 517320, Note_on_c, 11, 45, 47
12, 517416, Note_off_c, 11, 45, 64
12, 517440, Note_on_c, 11, 45, 49
12, 517536, Note_off_c, 11, 45, 64
12, 517560, Note_on_c, 11, 45, 50
12, 517656, Note_off_c, 11, 45, 64
12, 517680, Note_on_c, 11, 45, 52
12, 517776, Note_off_c, 11, 45, 64
12, 517800, Note_on_c, 11, 45, 53
12, 517896, Note_off_c, 11, 45, 64
12, 517920, Note_on_c, 11, 47, 55
12, 518016, Note_off_c, 11, 47, 64
12, 518040, Note_on_c, 11, 47, 57
12, 518136, Note_off_c, 11, 47, 64
12, 518160, Note_on_c, 11, 47, 58
12, 518256, Note_off_c, 11, 47, 64
12, 518280, Note_on_c, 11, 47, 60
12, 518376, Note_off_c, 11, 47, 64
12, 518400, Note_on_c, 11, 47, 61
12, 518496, Note_off_c, 11, 47, 64
12, 518520, Note_on_c, 11, 47, 63
12, 518616, Note_off_c, 11, 47, 64
12, 518640, Note_on_c, 11, 47, 64
12, 518736, Note_off_c, 11, 47, 64
12, 518760, Note_on_c, 11, 47, 66
12, 518856, Note_off_c, 11, 47, 64
12, 518880, Note_on_c, 11, 47, 68
12, 518976, Note_off_c, 11, 47, 64
12, 519000, Note_on_c, 11, 47, 69
12, 519096, Note_off_c, 11, 47, 64
12, 519120, Note_on_c, 11, 47, 71
12, 519216, Note_off_c, 11, 47, 64
12, 519240, Note_on_c, 11, 47, 72
12, 519336, Note_off_c, 11, 47, 64
12, 519360, Note_on_c, 11, 47, 74
12, 519456, Note_off_c, 11, 47, 64
12, 519480, Note_on_c, 11, 47, 75
12, 519576, Note_off_c, 11, 47, 64
12, 519600, Note_on_c, 11, 47, 77
12, 519696, Note_off_c, 11, 47, 64
12, 519720, Note_on_c, 11, 47, 79
12, 519816, Note_off_c, 11, 47, 64
12, 519840, Note_on_c, 11, 47, 80
12, 520224, Note_off_c, 11, 47, 64
12, 520560, Note_on_c, 11, 59, 80
12, 520656, Note_off_c, 11, 59, 64
12, 520800, Note_on_c, 11, 60, 80
12, 521184, Note_off_c, 11, 60, 64
12, 521520, Note_on_c, 11, 48, 80
12, 521616, Note_off_c, 11, 48, 64
12, 521760, Note_on_c, 11, 43, 80
12, 522144, Note_off_c, 11, 43, 64
12, 522480, Note_on_c, 11, 55, 80
12, 522576, Note_off_c, 11, 55, 64
12, 522720, Note_on_c, 11, 48, 80
12, 523104, Note_off_c, 11, 48, 64
12, 523440, Note_on_c, 11, 60, 80
12, 523536, Note_off_c, 11, 60, 64
12, 523680, Note_on_c, 11, 47, 80
12, 524064, Note_off_c, 11, 47, 64
12, 524400, Note_on_c, 11, 59, 80
12, 524496, Note_off_c, 11, 59, 64
12, 524640, Note_on_c, 11, 60, 80
12, 525024, Note_off_c, 11, 60, 64
12, 525360, Note_on_c, 11, 48, 80
12, 525456, Note_off_c, 11, 48, 64
12, 525600, Note_on_c, 11, 43, 80
12, 525984, Note_off_c, 11, 43, 64
12, 526320, Note_on_c, 11, 55, 80
12, 526416, Note_off_c, 11, 55, 64
12, 526560, Note_on_c, 11, 48, 80
12, 526944, Note_off_c, 11, 48, 64
12, 527280, Note_on_c, 11, 60, 80
12, 527376, Note_off_c, 11, 60, 64
12, 527520, Note_on_c, 11, 47, 80
12, 527904, Note_off_c, 11, 47, 64
12, 528240, Note_on_c, 11, 59, 80
12, 528336, Note_off_c, 11, 59, 64
12, 528480, Note_on_c, 11, 60, 80
12, 528864, Note_off_c, 11, 60, 64
12, 529200, Note_on_c, 11, 48, 80
12, 529296, Note_off_c, 11, 48, 64
12, 529440, Note_on_c, 11, 43, 80
12, 529824, Note_off_c, 11, 43, 64
12, 530160, Note_on_c, 11, 55, 80
12, 530256, Note_off_c, 11, 55, 64
12, 530400, Note_on_c, 11, 48, 80
12, 530784, Note_off_c, 11, 48, 64
12, 531120, Note_on_c, 11, 60, 80
12, 531216, Note_off_c, 11, 60, 64
12, 531360, Note_on_c, 11, 47, 80
12, 531744, Note_off_c, 11, 47, 64
12, 532080, Note_on_c, 11, 59, 80
12, 532176, Note_off_c, 11, 59, 64
12, 532320, Note_on_c, 11, 48, 80
12, 532704, Note_off_c, 11, 48, 64
12, 533040, Note_on_c, 11, 60, 80
12, 533136, Note_off_c, 11, 60, 64
12, 533280, Note_on_c, 11, 48, 80
12, 533664, Note_off_c, 11, 48, 64
12, 534000, Note_on_c, 11, 64, 80
12, 534096, Note_off_c, 11, 64, 64
12, 534240, Note_on_c, 11, 52, 80
12, 534624, Note_off_c, 11, 52, 64
12, 534960, Note_on_c, 11, 67, 80
12, 535056, Note_off_c, 11, 67, 64
12, 535200, Note_on_c, 11, 67, 77
12, 535440, Note_off_c, 11, 67, 64
12, 535680, Note_on_c, 11, 67, 77
12, 535920, Note_off_c, 11, 67, 64
12, 536640, Note_on_c, 11, 64, 77
12, 536880, Note_off_c, 11, 64, 64
12, 537600, Note_on_c, 11, 60, 77
12, 537840, Note_off_c, 11, 60, 64
12, 538560, Note_on_c, 11, 55, 77
12, 538800, Note_off_c, 11, 55, 64
12, 539520, Note_on_c, 11, 52, 77
12, 539760, Note_off_c, 11, 52, 64
12, 540480, Note_on_c, 11, 48, 77
12, 540720, Note_off_c, 11, 48, 64
12, 541440, Note_on_c, 11, 52, 77
12, 541680, Note_off_c, 11, 52, 64
12, 542400, Note_on_c, 11, 55, 77
12, 542640, Note_off_c, 11, 55, 64
12, 543360, Note_on_c, 11, 60, 77
12, 543600, Note_off_c, 11, 60, 64
12, 544320, Note_on_c, 11, 64, 77
12, 544560, Note_off_c, 11, 64, 64
12, 544800, Note_on_c, 11, 43, 120
12, 544896, Note_off_c, 11, 43, 64
12, 545040, Note_on_c, 11, 55, 120
12, 545136, Note_off_c, 11, 55, 64
12, 545280, Note_on_c, 11, 55, 120
12, 545376, Note_off_c, 11, 55, 64
12, 545520, Note_on_c, 11, 55, 120
12, 545616, Note_off_c, 11, 55, 64
12, 545760, Note_on_c, 11, 55, 120
12, 545856, Note_off_c, 11, 55, 64
12, 546000, Note_on_c, 11, 55, 120
12, 546096, Note_off_c, 11, 55, 64
12, 546240, Note_on_c, 11, 55, 120
12, 546336, Note_off_c, 11, 55, 64
12, 546480, Note_on_c, 11, 55, 120
12, 546576, Note_off_c, 11, 55, 64
12, 546720, Note_on_c, 11, 60, 127
12, 546912, Note_off_c, 11, 60, 64
12, 548640, Note_on_c, 11, 43, 120
12, 548736, Note_off_c, 11, 43, 64
12, 548880, Note_on_c, 11, 55, 120
12, 548976, Note_off_c, 11, 55, 64
12, 549120, Note_on_c, 11, 55, 120
12, 549216, Note_off_c, 11, 55, 64
12, 549360, Note_on_c, 11, 55, 120
12, 549456, Note_off_c, 11, 55, 64
12, 549600, Note_on_c, 11, 55, 120
12, 549696, Note_off_c, 11, 55, 64
12, 549840, Note_on_c, 11, 55, 120
12, 549936, Note_off_c, 11, 55, 64
12, 550080, Note_on_c, 11, 55, 120
12, 550176, Note_off_c, 11, 55, 64
12, 550320, Note_on_c, 11, 55, 120
12, 550416, Note_off_c, 11, 55, 64
12, 550560, Note_on_c, 11, 60, 127
12, 550752, Note_off_c, 11, 60, 64
12, 552480, Note_on_c, 11, 43, 120
12, 552576, Note_off_c, 11, 43, 64
12, 552720, Note_on_c, 11, 55, 120
12, 552816, Note_off_c, 11, 55, 64
12, 552960, Note_on_c, 11, 55, 120
12, 553056, Note_off_c, 11, 55, 64
12, 553200, Note_on_c, 11, 55, 120
12, 553296, Note_off_c, 11, 55, 64
12, 553440, Note_on_c, 11, 55, 120
12, 553536, Note_off_c, 11, 55, 64
12, 553680, Note_on_c, 11, 55, 120
12, 553776, Note_off_c, 11, 55, 64
12, 553920, Note_on_c, 11, 55, 120
12, 554016, Note_off_c, 11, 55, 64
12, 554160, Note_on_c, 11, 55, 120
12, 554256, Note_off_c, 11, 55, 64
12, 554400, Note_on_c, 11, 60, 127
12, 554592, Note_off_c, 11, 60, 64
12, 556320, Note_on_c, 11, 48, 127
12, 556512, Note_off_c, 11, 48, 64
12, 558240, Note_on_c, 11, 48, 127
12, 558432, Note_off_c, 11, 48, 64
12, 560160, Note_on_c, 11, 48, 127
12, 560352, Note_off_c, 11, 48, 64
12, 561120, Note_on_c, 11, 48, 127
12, 561312, Note_off_c, 11, 48, 64
12, 562320, Note_on_c, 11, 48, 127
12, 566386, Note_off_c, 11, 48, 64
12, 566386, End_track
13, 0, Start_track
13, 0, Title_t, "Bass"
13, 0, MIDI_port, 0
13, 0, Channel_prefix, 12
13, 0, Control_c, 12, 7, 89
13, 0, Control_c, 12, 10, 102
13, 0, Program_c, 12, 48
13, 480, Program_c, 12, 48
13, 480, Control_c, 12, 91, 85
13, 480, Control_c, 12, 93, 90
13, 480, Control_c, 12, 10, 85
13, 540, Control_c, 12, 7, 90
13, 5760, Note_on_c, 12, 36, 114
13, 5904, Note_off_c, 12, 36, 64
13, 7680, Note_on_c, 12, 35, 114
13, 7824, Note_off_c, 12, 35, 64
13, 9600, Note_on_c, 12, 36, 114
13, 9744, Note_off_c, 12, 36, 64
13, 10560, Note_on_c, 12, 29, 114
13, 10704, Note_off_c, 12, 29, 64
13, 11520, Note_on_c, 12, 31, 114
13, 11664, Note_off_c, 12, 31, 64
13, 36960, Note_on_c, 12, 41, 43
13, 37344, Note_off_c, 12, 41, 64
13, 37920, Note_on_c, 12, 43, 43
13, 38304, Note_off_c, 12, 43, 64
13, 38880, Note_on_c, 12, 33, 43
13, 39264, Note_off_c, 12, 33, 64
13, 39840, Note_on_c, 12, 33, 43
13, 40224, Note_off_c, 12, 33, 64
13, 40800, Note_on_c, 12, 31, 43
13, 41184, Note_off_c, 12, 31, 64
13, 41760, Note_on_c, 12, 31, 43
13, 42144, Note_off_c, 12, 31, 64
13, 42720, Note_on_c, 12, 36, 43
13, 43104, Note_off_c, 12, 36, 64
13, 44160, Note_on_c, 12, 36, 79
13, 44958, Note_off_c, 12, 36, 64
13, 45000, Note_on_c, 12, 43, 79
13, 45096, Note_off_c, 12, 43, 64
13, 45120, Note_on_c, 12, 45, 79
13, 45600, Note_off_c, 12, 45, 64
13, 45600, Note_on_c, 12, 43, 79
13, 46080, Note_off_c, 12, 43, 64
13, 46080, Note_on_c, 12, 43, 79
13, 46560, Note_off_c, 12, 43, 64
13, 46560, Note_on_c, 12, 36, 79
13, 47010, Note_off_c, 12, 36, 64
13, 47040, Note_on_c, 12, 31, 79
13, 47520, Note_off_c, 12, 31, 64
13, 47520, Note_on_c, 12, 43, 67
13, 47904, Note_off_c, 12, 43, 64
13, 48000, Note_on_c, 12, 41, 79
13, 48900, Note_off_c, 12, 41, 64
13, 48960, Note_on_c, 12, 43, 79
13, 49440, Note_off_c, 12, 43, 64
13, 49440, Note_on_c, 12, 36, 79
13, 49920, Note_off_c, 12, 36, 64
13, 49920, Note_on_c, 12, 31, 79
13, 50400, Note_off_c, 12, 31, 64
13, 50400, Note_on_c, 12, 43, 79
13, 50850, Note_off_c, 12, 43, 64
13, 50880, Note_on_c, 12, 48, 79
13, 51600, Note_off_c, 12, 48, 64
13, 51840, Note_on_c, 12, 47, 90
13, 52762, Note_off_c, 12, 47, 64
13, 52800, Note_on_c, 12, 45, 90
13, 53722, Note_off_c, 12, 45, 64
13, 53760, Note_on_c, 12, 43, 90
13, 54452, Note_off_c, 12, 43, 64
13, 54480, Note_on_c, 12, 42, 90
13, 54710, Note_off_c, 12, 42, 64
13, 54720, Note_on_c, 12, 40, 90
13, 55180, Note_off_c, 12, 40, 64
13, 55200, Note_on_c, 12, 33, 90
13, 56140, Note_off_c, 12, 33, 64
13, 56160, Note_on_c, 12, 35, 90
13, 57542, Note_off_c, 12, 35, 64
13, 57600, Note_on_c, 12, 40, 72
13, 57984, Note_off_c, 12, 40, 64
13, 59520, Note_on_c, 12, 40, 72
13, 60288, Note_off_c, 12, 40, 64
13, 60480, Note_on_c, 12, 36, 72
13, 61248, Note_off_c, 12, 36, 64
13, 61440, Note_on_c, 12, 36, 72
13, 61824, Note_off_c, 12, 36, 64
13, 61920, Note_on_c, 12, 48, 72
13, 62304, Note_off_c, 12, 48, 64
13, 62400, Note_on_c, 12, 50, 72
13, 62880, Note_off_c, 12, 50, 64
13, 62880, Note_on_c, 12, 48, 72
13, 63360, Note_off_c, 12, 48, 64
13, 63360, Note_on_c, 12, 47, 72
13, 63744, Note_off_c, 12, 47, 64
13, 63840, Note_on_c, 12, 45, 72
13, 64224, Note_off_c, 12, 45, 64
13, 64320, Note_on_c, 12, 47, 72
13, 64350, Note_off_c, 12, 47, 64
13, 64350, Note_on_c, 12, 48, 72
13, 64380, Note_off_c, 12, 48, 64
13, 64380, Note_on_c, 12, 47, 72
13, 64410, Note_off_c, 12, 47, 64
13, 64410, Note_on_c, 12, 48, 72
13, 64440, Note_off_c, 12, 48, 64
13, 64440, Note_on_c, 12, 47, 72
13, 64470, Note_off_c, 12, 47, 64
13, 64470, Note_on_c, 12, 48, 72
13, 64500, Note_off_c, 12, 48, 64
13, 64500, Note_on_c, 12, 47, 72
13, 64530, Note_off_c, 12, 47, 64
13, 64530, Note_on_c, 12, 48, 72
13, 64560, Note_off_c, 12, 48, 64
13, 64560, Note_on_c, 12, 47, 72
13, 64590, Note_off_c, 12, 47, 64
13, 64590, Note_on_c, 12, 48, 72
13, 64620, Note_off_c, 12, 48, 64
13, 64620, Note_on_c, 12, 47, 72
13, 64650, Note_off_c, 12, 47, 64
13, 64650, Note_on_c, 12, 48, 72
13, 64680, Note_off_c, 12, 48, 64
13, 64680, Note_on_c, 12, 47, 72
13, 64710, Note_off_c, 12, 47, 64
13, 64710, Note_on_c, 12, 48, 72
13, 64740, Note_off_c, 12, 48, 64
13, 64740, Note_on_c, 12, 47, 72
13, 64770, Note_off_c, 12, 47, 64
13, 64770, Note_on_c, 12, 48, 72
13, 64800, Note_off_c, 12, 48, 64
13, 64800, Note_on_c, 12, 47, 72
13, 64830, Note_off_c, 12, 47, 64
13, 64830, Note_on_c, 12, 48, 72
13, 64860, Note_off_c, 12, 48, 64
13, 64860, Note_on_c, 12, 47, 72
13, 64890, Note_off_c, 12, 47, 64
13, 64890, Note_on_c, 12, 48, 72
13, 64920, Note_off_c, 12, 48, 64
13, 64920, Note_on_c, 12, 47, 72
13, 64950, Note_off_c, 12, 47, 64
13, 64950, Note_on_c, 12, 48, 72
13, 64980, Note_off_c, 12, 48, 64
13, 64980, Note_on_c, 12, 47, 72
13, 65010, Note_off_c, 12, 47, 64
13, 65010, Note_on_c, 12, 48, 72
13, 65040, Note_off_c, 12, 48, 64
13, 65040, Note_on_c, 12, 47, 72
13, 65070, Note_off_c, 12, 47, 64
13, 65070, Note_on_c, 12, 48, 72
13, 65100, Note_off_c, 12, 48, 64
13, 65100, Note_on_c, 12, 47, 72
13, 65130, Note_off_c, 12, 47, 64
13, 65130, Note_on_c, 12, 48, 72
13, 65160, Note_off_c, 12, 48, 64
13, 65160, Note_on_c, 12, 47, 72
13, 65190, Note_off_c, 12, 47, 64
13, 65190, Note_on_c, 12, 48, 72
13, 65220, Note_off_c, 12, 48, 64
13, 65220, Note_on_c, 12, 45, 72
13, 65250, Note_off_c, 12, 45, 64
13, 65250, Note_on_c, 12, 47, 72
13, 65280, Note_off_c, 12, 47, 64
13, 65280, Note_on_c, 12, 48, 76
13, 65664, Note_off_c, 12, 48, 64
13, 65760, Note_on_c, 12, 43, 76
13, 66144, Note_off_c, 12, 43, 64
13, 66240, Note_on_c, 12, 36, 76
13, 66480, Note_off_c, 12, 36, 64
13, 66480, Note_on_c, 12, 48, 76
13, 66594, Note_off_c, 12, 48, 64
13, 66600, Note_on_c, 12, 46, 76
13, 66714, Note_off_c, 12, 46, 64
13, 66720, Note_on_c, 12, 45, 76
13, 66960, Note_off_c, 12, 45, 64
13, 66960, Note_on_c, 12, 43, 76
13, 67200, Note_off_c, 12, 43, 64
13, 67200, Note_on_c, 12, 41, 101
13, 68064, Note_off_c, 12, 41, 64
13, 68160, Note_on_c, 12, 38, 101
13, 68544, Note_off_c, 12, 38, 64
13, 68640, Note_on_c, 12, 43, 101
13, 69090, Note_off_c, 12, 43, 64
13, 69120, Note_on_c, 12, 33, 101
13, 69570, Note_off_c, 12, 33, 64
13, 69600, Note_on_c, 12, 45, 101
13, 70500, Note_off_c, 12, 45, 64
13, 70560, Note_on_c, 12, 33, 72
13, 70944, Note_off_c, 12, 33, 64
13, 71040, Note_on_c, 12, 31, 72
13, 71808, Note_off_c, 12, 31, 64
13, 72000, Note_on_c, 12, 31, 72
13, 72768, Note_off_c, 12, 31, 64
13, 72960, Note_on_c, 12, 36, 72
13, 73344, Note_off_c, 12, 36, 64
13, 74880, Note_on_c, 12, 36, 90
13, 75024, Note_off_c, 12, 36, 64
13, 76800, Note_on_c, 12, 36, 90
13, 76944, Note_off_c, 12, 36, 64
13, 78720, Note_on_c, 12, 36, 90
13, 78864, Note_off_c, 12, 36, 64
13, 79680, Note_on_c, 12, 36, 90
13, 79824, Note_off_c, 12, 36, 64
13, 80640, Note_on_c, 12, 35, 90
13, 80784, Note_off_c, 12, 35, 64
13, 81120, Note_on_c, 12, 36, 90
13, 81264, Note_off_c, 12, 36, 64
13, 81600, Note_on_c, 12, 31, 90
13, 81744, Note_off_c, 12, 31, 64
13, 82560, Note_on_c, 12, 36, 72
13, 82704, Note_off_c, 12, 36, 64
13, 84480, Note_on_c, 12, 36, 72
13, 84624, Note_off_c, 12, 36, 64
13, 86400, Note_on_c, 12, 36, 72
13, 86544, Note_off_c, 12, 36, 64
13, 87360, Note_on_c, 12, 36, 72
13, 87504, Note_off_c, 12, 36, 64
13, 88320, Note_on_c, 12, 35, 72
13, 88464, Note_off_c, 12, 35, 64
13, 88800, Note_on_c, 12, 36, 72
13, 88944, Note_off_c, 12, 36, 64
13, 89280, Note_on_c, 12, 31, 72
13, 89424, Note_off_c, 12, 31, 64
13, 90240, Note_on_c, 12, 31, 72
13, 90384, Note_off_c, 12, 31, 64
13, 92160, Note_on_c, 12, 36, 72
13, 92304, Note_off_c, 12, 36, 64
13, 94080, Note_on_c, 12, 36, 72
13, 94224, Note_off_c, 12, 36, 64
13, 95040, Note_on_c, 12, 36, 72
13, 95184, Note_off_c, 12, 36, 64
13, 96000, Note_on_c, 12, 31, 72
13, 96144, Note_off_c, 12, 31, 64
13, 96480, Note_on_c, 12, 31, 72
13, 96624, Note_off_c, 12, 31, 64
13, 96960, Note_on_c, 12, 36, 72
13, 97104, Note_off_c, 12, 36, 64
13, 97920, Note_on_c, 12, 31, 72
13, 98064, Note_off_c, 12, 31, 64
13, 99840, Note_on_c, 12, 36, 72
13, 99984, Note_off_c, 12, 36, 64
13, 101760, Note_on_c, 12, 36, 72
13, 101904, Note_off_c, 12, 36, 64
13, 102720, Note_on_c, 12, 36, 72
13, 102864, Note_off_c, 12, 36, 64
13, 103680, Note_on_c, 12, 31, 72
13, 103824, Note_off_c, 12, 31, 64
13, 104160, Note_on_c, 12, 31, 72
13, 104304, Note_off_c, 12, 31, 64
13, 104640, Note_on_c, 12, 36, 72
13, 104784, Note_off_c, 12, 36, 64
13, 105600, Note_on_c, 12, 31, 36
13, 105984, Note_off_c, 12, 31, 64
13, 106080, Note_on_c, 12, 31, 36
13, 106224, Note_off_c, 12, 31, 64
13, 106440, Note_on_c, 12, 31, 36
13, 106488, Note_off_c, 12, 31, 64
13, 106560, Note_on_c, 12, 36, 36
13, 107136, Note_off_c, 12, 36, 64
13, 109440, Note_on_c, 12, 43, 32
13, 109512, Note_off_c, 12, 43, 64
13, 109680, Note_on_c, 12, 43, 32
13, 109752, Note_off_c, 12, 43, 64
13, 109920, Note_on_c, 12, 43, 32
13, 109992, Note_off_c, 12, 43, 64
13, 110160, Note_on_c, 12, 43, 32
13, 110232, Note_off_c, 12, 43, 64
13, 110400, Note_on_c, 12, 43, 32
13, 110472, Note_off_c, 12, 43, 64
13, 110640, Note_on_c, 12, 43, 32
13, 110712, Note_off_c, 12, 43, 64
13, 110880, Note_on_c, 12, 43, 32
13, 110952, Note_off_c, 12, 43, 64
13, 111120, Note_on_c, 12, 43, 32
13, 111192, Note_off_c, 12, 43, 64
13, 111360, Note_on_c, 12, 43, 32
13, 111432, Note_off_c, 12, 43, 64
13, 111600, Note_on_c, 12, 43, 32
13, 111672, Note_off_c, 12, 43, 64
13, 111840, Note_on_c, 12, 43, 32
13, 111912, Note_off_c, 12, 43, 64
13, 112080, Note_on_c, 12, 43, 32
13, 112152, Note_off_c, 12, 43, 64
13, 112320, Note_on_c, 12, 43, 32
13, 112392, Note_off_c, 12, 43, 64
13, 112560, Note_on_c, 12, 43, 32
13, 112632, Note_off_c, 12, 43, 64
13, 112800, Note_on_c, 12, 43, 32
13, 112872, Note_off_c, 12, 43, 64
13, 113040, Note_on_c, 12, 43, 32
13, 113112, Note_off_c, 12, 43, 64
13, 113280, Note_on_c, 12, 43, 32
13, 113352, Note_off_c, 12, 43, 64
13, 113520, Note_on_c, 12, 43, 32
13, 113592, Note_off_c, 12, 43, 64
13, 113760, Note_on_c, 12, 43, 32
13, 113832, Note_off_c, 12, 43, 64
13, 114000, Note_on_c, 12, 43, 32
13, 114072, Note_off_c, 12, 43, 64
13, 114240, Note_on_c, 12, 43, 32
13, 114312, Note_off_c, 12, 43, 64
13, 114480, Note_on_c, 12, 43, 32
13, 114552, Note_off_c, 12, 43, 64
13, 114720, Note_on_c, 12, 43, 32
13, 114792, Note_off_c, 12, 43, 64
13, 114960, Note_on_c, 12, 43, 32
13, 115032, Note_off_c, 12, 43, 64
13, 115200, Note_on_c, 12, 43, 32
13, 115272, Note_off_c, 12, 43, 64
13, 115440, Note_on_c, 12, 43, 32
13, 115512, Note_off_c, 12, 43, 64
13, 115680, Note_on_c, 12, 43, 32
13, 115752, Note_off_c, 12, 43, 64
13, 115920, Note_on_c, 12, 43, 32
13, 115992, Note_off_c, 12, 43, 64
13, 116160, Note_on_c, 12, 43, 32
13, 116232, Note_off_c, 12, 43, 64
13, 116400, Note_on_c, 12, 43, 32
13, 116472, Note_off_c, 12, 43, 64
13, 116640, Note_on_c, 12, 43, 32
13, 116712, Note_off_c, 12, 43, 64
13, 116880, Note_on_c, 12, 43, 32
13, 116952, Note_off_c, 12, 43, 64
13, 117120, Note_on_c, 12, 36, 45
13, 117648, Note_off_c, 12, 36, 64
13, 117720, Note_on_c, 12, 40, 45
13, 117768, Note_off_c, 12, 40, 64
13, 117840, Note_on_c, 12, 38, 45
13, 117888, Note_off_c, 12, 38, 64
13, 117960, Note_on_c, 12, 36, 45
13, 118008, Note_off_c, 12, 36, 64
13, 118080, Note_on_c, 12, 35, 45
13, 118128, Note_off_c, 12, 35, 64
13, 118200, Note_on_c, 12, 36, 45
13, 118248, Note_off_c, 12, 36, 64
13, 118320, Note_on_c, 12, 38, 45
13, 118368, Note_off_c, 12, 38, 64
13, 118440, Note_on_c, 12, 40, 45
13, 118488, Note_off_c, 12, 40, 64
13, 118560, Note_on_c, 12, 43, 45
13, 118608, Note_off_c, 12, 43, 64
13, 118680, Note_on_c, 12, 41, 45
13, 118728, Note_off_c, 12, 41, 64
13, 118800, Note_on_c, 12, 38, 45
13, 118848, Note_off_c, 12, 38, 64
13, 118920, Note_on_c, 12, 43, 45
13, 118968, Note_off_c, 12, 43, 64
13, 119040, Note_on_c, 12, 40, 57
13, 119088, Note_off_c, 12, 40, 64
13, 119160, Note_on_c, 12, 36, 57
13, 119208, Note_off_c, 12, 36, 64
13, 119280, Note_on_c, 12, 38, 57
13, 119328, Note_off_c, 12, 38, 64
13, 119400, Note_on_c, 12, 40, 57
13, 119448, Note_off_c, 12, 40, 64
13, 119520, Note_on_c, 12, 41, 57
13, 119568, Note_off_c, 12, 41, 64
13, 119640, Note_on_c, 12, 38, 57
13, 119688, Note_off_c, 12, 38, 64
13, 119760, Note_on_c, 12, 40, 57
13, 119808, Note_off_c, 12, 40, 64
13, 119880, Note_on_c, 12, 41, 57
13, 119928, Note_off_c, 12, 41, 64
13, 120000, Note_on_c, 12, 43, 57
13, 120048, Note_off_c, 12, 43, 64
13, 120120, Note_on_c, 12, 40, 57
13, 120168, Note_off_c, 12, 40, 64
13, 120240, Note_on_c, 12, 41, 57
13, 120288, Note_off_c, 12, 41, 64
13, 120360, Note_on_c, 12, 43, 57
13, 120408, Note_off_c, 12, 43, 64
13, 120480, Note_on_c, 12, 41, 45
13, 120528, Note_off_c, 12, 41, 64
13, 120600, Note_on_c, 12, 40, 45
13, 120648, Note_off_c, 12, 40, 64
13, 120720, Note_on_c, 12, 38, 45
13, 120768, Note_off_c, 12, 38, 64
13, 120840, Note_on_c, 12, 36, 45
13, 120888, Note_off_c, 12, 36, 64
13, 120960, Note_on_c, 12, 31, 36
13, 121488, Note_off_c, 12, 31, 64
13, 121560, Note_on_c, 12, 35, 41
13, 121608, Note_off_c, 12, 35, 64
13, 121680, Note_on_c, 12, 33, 42
13, 121728, Note_off_c, 12, 33, 64
13, 121800, Note_on_c, 12, 31, 43
13, 121848, Note_off_c, 12, 31, 64
13, 121920, Note_on_c, 12, 30, 44
13, 121968, Note_off_c, 12, 30, 64
13, 122040, Note_on_c, 12, 31, 45
13, 122088, Note_off_c, 12, 31, 64
13, 122160, Note_on_c, 12, 33, 46
13, 122208, Note_off_c, 12, 33, 64
13, 122280, Note_on_c, 12, 35, 47
13, 122328, Note_off_c, 12, 35, 64
13, 122400, Note_on_c, 12, 38, 48
13, 122448, Note_off_c, 12, 38, 64
13, 122520, Note_on_c, 12, 36, 49
13, 122568, Note_off_c, 12, 36, 64
13, 122640, Note_on_c, 12, 33, 50
13, 122688, Note_off_c, 12, 33, 64
13, 122760, Note_on_c, 12, 38, 50
13, 122808, Note_off_c, 12, 38, 64
13, 122880, Note_on_c, 12, 35, 52
13, 122928, Note_off_c, 12, 35, 64
13, 123000, Note_on_c, 12, 40, 53
13, 123048, Note_off_c, 12, 40, 64
13, 123120, Note_on_c, 12, 38, 54
13, 123168, Note_off_c, 12, 38, 64
13, 123240, Note_on_c, 12, 35, 55
13, 123288, Note_off_c, 12, 35, 64
13, 123360, Note_on_c, 12, 41, 56
13, 123408, Note_off_c, 12, 41, 64
13, 123480, Note_on_c, 12, 40, 57
13, 123528, Note_off_c, 12, 40, 64
13, 123600, Note_on_c, 12, 36, 58
13, 123648, Note_off_c, 12, 36, 64
13, 123720, Note_on_c, 12, 41, 59
13, 123768, Note_off_c, 12, 41, 64
13, 123840, Note_on_c, 12, 38, 59
13, 123888, Note_off_c, 12, 38, 64
13, 123960, Note_on_c, 12, 43, 60
13, 124008, Note_off_c, 12, 43, 64
13, 124080, Note_on_c, 12, 41, 61
13, 124128, Note_off_c, 12, 41, 64
13, 124200, Note_on_c, 12, 38, 63
13, 124248, Note_off_c, 12, 38, 64
13, 124320, Note_on_c, 12, 45, 64
13, 124368, Note_off_c, 12, 45, 64
13, 124440, Note_on_c, 12, 43, 65
13, 124488, Note_off_c, 12, 43, 64
13, 124560, Note_on_c, 12, 40, 66
13, 124608, Note_off_c, 12, 40, 64
13, 124680, Note_on_c, 12, 45, 67
13, 124728, Note_off_c, 12, 45, 64
13, 124800, Note_on_c, 12, 41, 68
13, 124848, Note_off_c, 12, 41, 64
13, 124920, Note_on_c, 12, 47, 68
13, 124968, Note_off_c, 12, 47, 64
13, 125040, Note_on_c, 12, 45, 69
13, 125088, Note_off_c, 12, 45, 64
13, 125160, Note_on_c, 12, 41, 70
13, 125208, Note_off_c, 12, 41, 64
13, 125280, Note_on_c, 12, 48, 71
13, 125328, Note_off_c, 12, 48, 64
13, 125400, Note_on_c, 12, 47, 72
13, 125448, Note_off_c, 12, 47, 64
13, 125520, Note_on_c, 12, 43, 74
13, 125568, Note_off_c, 12, 43, 64
13, 125640, Note_on_c, 12, 48, 75
13, 125688, Note_off_c, 12, 48, 64
13, 125760, Note_on_c, 12, 33, 76
13, 125808, Note_off_c, 12, 33, 64
13, 125880, Note_on_c, 12, 38, 77
13, 125928, Note_off_c, 12, 38, 64
13, 126000, Note_on_c, 12, 36, 77
13, 126048, Note_off_c, 12, 36, 64
13, 126120, Note_on_c, 12, 33, 78
13, 126168, Note_off_c, 12, 33, 64
13, 126240, Note_on_c, 12, 40, 79
13, 126288, Note_off_c, 12, 40, 64
13, 126360, Note_on_c, 12, 38, 80
13, 126408, Note_off_c, 12, 38, 64
13, 126480, Note_on_c, 12, 35, 81
13, 126528, Note_off_c, 12, 35, 64
13, 126600, Note_on_c, 12, 40, 82
13, 126648, Note_off_c, 12, 40, 64
13, 126720, Note_on_c, 12, 48, 84
13, 126768, Note_off_c, 12, 48, 64
13, 126840, Note_on_c, 12, 53, 85
13, 126888, Note_off_c, 12, 53, 64
13, 126960, Note_on_c, 12, 52, 86
13, 127008, Note_off_c, 12, 52, 64
13, 127080, Note_on_c, 12, 48, 86
13, 127128, Note_off_c, 12, 48, 64
13, 127200, Note_on_c, 12, 55, 87
13, 127248, Note_off_c, 12, 55, 64
13, 127320, Note_on_c, 12, 53, 88
13, 127368, Note_off_c, 12, 53, 64
13, 127440, Note_on_c, 12, 50, 89
13, 127488, Note_off_c, 12, 50, 64
13, 127560, Note_on_c, 12, 55, 90
13, 127608, Note_off_c, 12, 55, 64
13, 127680, Note_on_c, 12, 52, 91
13, 127728, Note_off_c, 12, 52, 64
13, 127800, Note_on_c, 12, 57, 92
13, 127848, Note_off_c, 12, 57, 64
13, 127920, Note_on_c, 12, 55, 93
13, 127968, Note_off_c, 12, 55, 64
13, 128040, Note_on_c, 12, 52, 95
13, 128088, Note_off_c, 12, 52, 64
13, 128160, Note_on_c, 12, 31, 108
13, 128208, Note_off_c, 12, 31, 64
13, 128220, Note_on_c, 12, 31, 108
13, 128268, Note_off_c, 12, 31, 64
13, 128280, Note_on_c, 12, 31, 108
13, 128328, Note_off_c, 12, 31, 64
13, 128340, Note_on_c, 12, 31, 108
13, 128388, Note_off_c, 12, 31, 64
13, 128400, Note_on_c, 12, 31, 108
13, 128448, Note_off_c, 12, 31, 64
13, 128460, Note_on_c, 12, 31, 108
13, 128508, Note_off_c, 12, 31, 64
13, 128520, Note_on_c, 12, 31, 108
13, 128568, Note_off_c, 12, 31, 64
13, 128580, Note_on_c, 12, 31, 108
13, 128628, Note_off_c, 12, 31, 64
13, 128640, Note_on_c, 12, 31, 108
13, 128688, Note_off_c, 12, 31, 64
13, 128700, Note_on_c, 12, 31, 108
13, 128748, Note_off_c, 12, 31, 64
13, 128760, Note_on_c, 12, 31, 108
13, 128808, Note_off_c, 12, 31, 64
13, 128820, Note_on_c, 12, 31, 108
13, 128868, Note_off_c, 12, 31, 64
13, 128880, Note_on_c, 12, 31, 108
13, 128928, Note_off_c, 12, 31, 64
13, 128940, Note_on_c, 12, 31, 108
13, 128988, Note_off_c, 12, 31, 64
13, 129000, Note_on_c, 12, 31, 108
13, 129048, Note_off_c, 12, 31, 64
13, 129060, Note_on_c, 12, 31, 108
13, 129108, Note_off_c, 12, 31, 64
13, 129120, Note_on_c, 12, 31, 108
13, 129168, Note_off_c, 12, 31, 64
13, 129180, Note_on_c, 12, 31, 108
13, 129228, Note_off_c, 12, 31, 64
13, 129240, Note_on_c, 12, 31, 108
13, 129288, Note_off_c, 12, 31, 64
13, 129300, Note_on_c, 12, 31, 108
13, 129348, Note_off_c, 12, 31, 64
13, 129360, Note_on_c, 12, 31, 108
13, 129408, Note_off_c, 12, 31, 64
13, 129420, Note_on_c, 12, 31, 108
13, 129468, Note_off_c, 12, 31, 64
13, 129480, Note_on_c, 12, 31, 108
13, 129528, Note_off_c, 12, 31, 64
13, 129540, Note_on_c, 12, 31, 108
13, 129588, Note_off_c, 12, 31, 64
13, 129600, Note_on_c, 12, 31, 108
13, 129648, Note_off_c, 12, 31, 64
13, 129660, Note_on_c, 12, 31, 108
13, 129708, Note_off_c, 12, 31, 64
13, 129720, Note_on_c, 12, 31, 108
13, 129768, Note_off_c, 12, 31, 64
13, 129780, Note_on_c, 12, 31, 108
13, 129828, Note_off_c, 12, 31, 64
13, 129840, Note_on_c, 12, 31, 108
13, 129888, Note_off_c, 12, 31, 64
13, 129900, Note_on_c, 12, 31, 108
13, 129948, Note_off_c, 12, 31, 64
13, 129960, Note_on_c, 12, 31, 108
13, 130008, Note_off_c, 12, 31, 64
13, 130020, Note_on_c, 12, 31, 108
13, 130068, Note_off_c, 12, 31, 64
13, 130080, Note_on_c, 12, 31, 108
13, 130128, Note_off_c, 12, 31, 64
13, 130140, Note_on_c, 12, 31, 108
13, 130188, Note_off_c, 12, 31, 64
13, 130200, Note_on_c, 12, 31, 108
13, 130248, Note_off_c, 12, 31, 64
13, 130260, Note_on_c, 12, 31, 108
13, 130308, Note_off_c, 12, 31, 64
13, 130320, Note_on_c, 12, 31, 108
13, 130368, Note_off_c, 12, 31, 64
13, 130380, Note_on_c, 12, 31, 108
13, 130428, Note_off_c, 12, 31, 64
13, 130440, Note_on_c, 12, 31, 108
13, 130488, Note_off_c, 12, 31, 64
13, 130500, Note_on_c, 12, 31, 108
13, 130548, Note_off_c, 12, 31, 64
13, 130560, Note_on_c, 12, 31, 108
13, 130608, Note_off_c, 12, 31, 64
13, 130620, Note_on_c, 12, 31, 108
13, 130668, Note_off_c, 12, 31, 64
13, 130680, Note_on_c, 12, 31, 108
13, 130728, Note_off_c, 12, 31, 64
13, 130740, Note_on_c, 12, 31, 108
13, 130788, Note_off_c, 12, 31, 64
13, 130800, Note_on_c, 12, 31, 108
13, 130848, Note_off_c, 12, 31, 64
13, 130860, Note_on_c, 12, 31, 108
13, 130908, Note_off_c, 12, 31, 64
13, 130920, Note_on_c, 12, 31, 108
13, 130968, Note_off_c, 12, 31, 64
13, 130980, Note_on_c, 12, 31, 108
13, 131028, Note_off_c, 12, 31, 64
13, 131040, Note_on_c, 12, 31, 108
13, 131088, Note_off_c, 12, 31, 64
13, 131100, Note_on_c, 12, 31, 108
13, 131148, Note_off_c, 12, 31, 64
13, 131160, Note_on_c, 12, 31, 108
13, 131208, Note_off_c, 12, 31, 64
13, 131220, Note_on_c, 12, 31, 108
13, 131268, Note_off_c, 12, 31, 64
13, 131280, Note_on_c, 12, 31, 108
13, 131328, Note_off_c, 12, 31, 64
13, 131340, Note_on_c, 12, 31, 108
13, 131388, Note_off_c, 12, 31, 64
13, 131400, Note_on_c, 12, 31, 108
13, 131448, Note_off_c, 12, 31, 64
13, 131460, Note_on_c, 12, 31, 108
13, 131508, Note_off_c, 12, 31, 64
13, 131520, Note_on_c, 12, 31, 108
13, 131568, Note_off_c, 12, 31, 64
13, 131580, Note_on_c, 12, 31, 108
13, 131628, Note_off_c, 12, 31, 64
13, 131640, Note_on_c, 12, 31, 108
13, 131688, Note_off_c, 12, 31, 64
13, 131700, Note_on_c, 12, 31, 108
13, 131748, Note_off_c, 12, 31, 64
13, 131760, Note_on_c, 12, 31, 108
13, 131808, Note_off_c, 12, 31, 64
13, 131820, Note_on_c, 12, 31, 108
13, 131868, Note_off_c, 12, 31, 64
13, 131880, Note_on_c, 12, 31, 108
13, 131928, Note_off_c, 12, 31, 64
13, 131940, Note_on_c, 12, 31, 108
13, 131988, Note_off_c, 12, 31, 64
13, 132000, Note_on_c, 12, 31, 108
13, 132048, Note_off_c, 12, 31, 64
13, 132060, Note_on_c, 12, 31, 108
13, 132108, Note_off_c, 12, 31, 64
13, 132120, Note_on_c, 12, 31, 108
13, 132168, Note_off_c, 12, 31, 64
13, 132180, Note_on_c, 12, 31, 108
13, 132228, Note_off_c, 12, 31, 64
13, 132240, Note_on_c, 12, 31, 108
13, 132288, Note_off_c, 12, 31, 64
13, 132300, Note_on_c, 12, 31, 108
13, 132348, Note_off_c, 12, 31, 64
13, 132360, Note_on_c, 12, 31, 108
13, 132408, Note_off_c, 12, 31, 64
13, 132420, Note_on_c, 12, 31, 108
13, 132468, Note_off_c, 12, 31, 64
13, 132480, Note_on_c, 12, 31, 108
13, 132528, Note_off_c, 12, 31, 64
13, 132540, Note_on_c, 12, 31, 108
13, 132588, Note_off_c, 12, 31, 64
13, 132600, Note_on_c, 12, 31, 108
13, 132648, Note_off_c, 12, 31, 64
13, 132660, Note_on_c, 12, 31, 108
13, 132708, Note_off_c, 12, 31, 64
13, 132720, Note_on_c, 12, 31, 108
13, 132768, Note_off_c, 12, 31, 64
13, 132780, Note_on_c, 12, 31, 108
13, 132828, Note_off_c, 12, 31, 64
13, 132840, Note_on_c, 12, 31, 108
13, 132888, Note_off_c, 12, 31, 64
13, 132900, Note_on_c, 12, 31, 108
13, 132948, Note_off_c, 12, 31, 64
13, 132960, Note_on_c, 12, 31, 108
13, 133008, Note_off_c, 12, 31, 64
13, 133020, Note_on_c, 12, 31, 108
13, 133068, Note_off_c, 12, 31, 64
13, 133080, Note_on_c, 12, 31, 108
13, 133128, Note_off_c, 12, 31, 64
13, 133140, Note_on_c, 12, 31, 108
13, 133188, Note_off_c, 12, 31, 64
13, 133200, Note_on_c, 12, 31, 108
13, 133248, Note_off_c, 12, 31, 64
13, 133260, Note_on_c, 12, 31, 108
13, 133308, Note_off_c, 12, 31, 64
13, 133320, Note_on_c, 12, 31, 108
13, 133368, Note_off_c, 12, 31, 64
13, 133380, Note_on_c, 12, 31, 108
13, 133428, Note_off_c, 12, 31, 64
13, 133440, Note_on_c, 12, 31, 108
13, 133488, Note_off_c, 12, 31, 64
13, 133500, Note_on_c, 12, 31, 108
13, 133548, Note_off_c, 12, 31, 64
13, 133560, Note_on_c, 12, 31, 108
13, 133608, Note_off_c, 12, 31, 64
13, 133620, Note_on_c, 12, 31, 108
13, 133668, Note_off_c, 12, 31, 64
13, 133680, Note_on_c, 12, 31, 108
13, 133728, Note_off_c, 12, 31, 64
13, 133740, Note_on_c, 12, 31, 108
13, 133788, Note_off_c, 12, 31, 64
13, 133800, Note_on_c, 12, 31, 108
13, 133848, Note_off_c, 12, 31, 64
13, 133860, Note_on_c, 12, 31, 108
13, 133908, Note_off_c, 12, 31, 64
13, 133920, Note_on_c, 12, 31, 108
13, 133968, Note_off_c, 12, 31, 64
13, 133980, Note_on_c, 12, 31, 108
13, 134028, Note_off_c, 12, 31, 64
13, 134040, Note_on_c, 12, 31, 108
13, 134088, Note_off_c, 12, 31, 64
13, 134100, Note_on_c, 12, 31, 108
13, 134148, Note_off_c, 12, 31, 64
13, 134160, Note_on_c, 12, 31, 108
13, 134208, Note_off_c, 12, 31, 64
13, 134220, Note_on_c, 12, 31, 108
13, 134268, Note_off_c, 12, 31, 64
13, 134280, Note_on_c, 12, 31, 108
13, 134328, Note_off_c, 12, 31, 64
13, 134340, Note_on_c, 12, 31, 108
13, 134388, Note_off_c, 12, 31, 64
13, 134400, Note_on_c, 12, 31, 108
13, 134448, Note_off_c, 12, 31, 64
13, 134460, Note_on_c, 12, 31, 108
13, 134508, Note_off_c, 12, 31, 64
13, 134520, Note_on_c, 12, 31, 108
13, 134568, Note_off_c, 12, 31, 64
13, 134580, Note_on_c, 12, 31, 108
13, 134628, Note_off_c, 12, 31, 64
13, 134640, Note_on_c, 12, 31, 108
13, 134688, Note_off_c, 12, 31, 64
13, 134700, Note_on_c, 12, 31, 108
13, 134748, Note_off_c, 12, 31, 64
13, 134760, Note_on_c, 12, 31, 108
13, 134808, Note_off_c, 12, 31, 64
13, 134820, Note_on_c, 12, 31, 108
13, 134868, Note_off_c, 12, 31, 64
13, 134880, Note_on_c, 12, 31, 108
13, 134928, Note_off_c, 12, 31, 64
13, 134940, Note_on_c, 12, 31, 108
13, 134988, Note_off_c, 12, 31, 64
13, 135000, Note_on_c, 12, 31, 108
13, 135048, Note_off_c, 12, 31, 64
13, 135060, Note_on_c, 12, 31, 108
13, 135108, Note_off_c, 12, 31, 64
13, 135120, Note_on_c, 12, 31, 108
13, 135168, Note_off_c, 12, 31, 64
13, 135180, Note_on_c, 12, 31, 108
13, 135228, Note_off_c, 12, 31, 64
13, 135240, Note_on_c, 12, 31, 108
13, 135288, Note_off_c, 12, 31, 64
13, 135300, Note_on_c, 12, 31, 108
13, 135348, Note_off_c, 12, 31, 64
13, 135360, Note_on_c, 12, 31, 108
13, 135408, Note_off_c, 12, 31, 64
13, 135420, Note_on_c, 12, 31, 108
13, 135468, Note_off_c, 12, 31, 64
13, 135480, Note_on_c, 12, 31, 108
13, 135528, Note_off_c, 12, 31, 64
13, 135540, Note_on_c, 12, 31, 108
13, 135588, Note_off_c, 12, 31, 64
13, 135600, Note_on_c, 12, 31, 108
13, 135648, Note_off_c, 12, 31, 64
13, 135660, Note_on_c, 12, 31, 108
13, 135708, Note_off_c, 12, 31, 64
13, 135720, Note_on_c, 12, 31, 108
13, 135768, Note_off_c, 12, 31, 64
13, 135780, Note_on_c, 12, 31, 108
13, 135828, Note_off_c, 12, 31, 64
13, 135840, Note_on_c, 12, 31, 108
13, 135888, Note_off_c, 12, 31, 64
13, 135900, Note_on_c, 12, 31, 108
13, 135948, Note_off_c, 12, 31, 64
13, 135960, Note_on_c, 12, 31, 108
13, 136008, Note_off_c, 12, 31, 64
13, 136020, Note_on_c, 12, 31, 108
13, 136068, Note_off_c, 12, 31, 64
13, 136080, Note_on_c, 12, 31, 108
13, 136128, Note_off_c, 12, 31, 64
13, 136140, Note_on_c, 12, 31, 108
13, 136188, Note_off_c, 12, 31, 64
13, 136200, Note_on_c, 12, 31, 108
13, 136248, Note_off_c, 12, 31, 64
13, 136260, Note_on_c, 12, 31, 108
13, 136308, Note_off_c, 12, 31, 64
13, 136320, Note_on_c, 12, 31, 81
13, 136368, Note_off_c, 12, 31, 64
13, 136380, Note_on_c, 12, 31, 81
13, 136428, Note_off_c, 12, 31, 64
13, 136440, Note_on_c, 12, 31, 80
13, 136488, Note_off_c, 12, 31, 64
13, 136500, Note_on_c, 12, 31, 79
13, 136548, Note_off_c, 12, 31, 64
13, 136560, Note_on_c, 12, 31, 79
13, 136608, Note_off_c, 12, 31, 64
13, 136620, Note_on_c, 12, 31, 78
13, 136668, Note_off_c, 12, 31, 64
13, 136680, Note_on_c, 12, 31, 78
13, 136728, Note_off_c, 12, 31, 64
13, 136740, Note_on_c, 12, 31, 77
13, 136788, Note_off_c, 12, 31, 64
13, 136800, Note_on_c, 12, 31, 77
13, 136848, Note_off_c, 12, 31, 64
13, 136860, Note_on_c, 12, 31, 77
13, 136908, Note_off_c, 12, 31, 64
13, 136920, Note_on_c, 12, 31, 76
13, 136968, Note_off_c, 12, 31, 64
13, 136980, Note_on_c, 12, 31, 75
13, 137028, Note_off_c, 12, 31, 64
13, 137040, Note_on_c, 12, 31, 75
13, 137088, Note_off_c, 12, 31, 64
13, 137100, Note_on_c, 12, 31, 74
13, 137148, Note_off_c, 12, 31, 64
13, 137160, Note_on_c, 12, 31, 73
13, 137208, Note_off_c, 12, 31, 64
13, 137220, Note_on_c, 12, 31, 73
13, 137268, Note_off_c, 12, 31, 64
13, 137280, Note_on_c, 12, 31, 72
13, 137328, Note_off_c, 12, 31, 64
13, 137340, Note_on_c, 12, 31, 72
13, 137388, Note_off_c, 12, 31, 64
13, 137400, Note_on_c, 12, 31, 71
13, 137448, Note_off_c, 12, 31, 64
13, 137460, Note_on_c, 12, 31, 70
13, 137508, Note_off_c, 12, 31, 64
13, 137520, Note_on_c, 12, 31, 70
13, 137568, Note_off_c, 12, 31, 64
13, 137580, Note_on_c, 12, 31, 69
13, 137628, Note_off_c, 12, 31, 64
13, 137640, Note_on_c, 12, 31, 68
13, 137688, Note_off_c, 12, 31, 64
13, 137700, Note_on_c, 12, 31, 68
13, 137748, Note_off_c, 12, 31, 64
13, 137760, Note_on_c, 12, 31, 68
13, 137808, Note_off_c, 12, 31, 64
13, 137820, Note_on_c, 12, 31, 68
13, 137868, Note_off_c, 12, 31, 64
13, 137880, Note_on_c, 12, 31, 67
13, 137928, Note_off_c, 12, 31, 64
13, 137940, Note_on_c, 12, 31, 66
13, 137988, Note_off_c, 12, 31, 64
13, 138000, Note_on_c, 12, 31, 66
13, 138048, Note_off_c, 12, 31, 64
13, 138060, Note_on_c, 12, 31, 65
13, 138108, Note_off_c, 12, 31, 64
13, 138120, Note_on_c, 12, 31, 64
13, 138168, Note_off_c, 12, 31, 64
13, 138180, Note_on_c, 12, 31, 64
13, 138228, Note_off_c, 12, 31, 64
13, 138240, Note_on_c, 12, 31, 63
13, 138288, Note_off_c, 12, 31, 64
13, 138300, Note_on_c, 12, 31, 63
13, 138348, Note_off_c, 12, 31, 64
13, 138360, Note_on_c, 12, 31, 62
13, 138408, Note_off_c, 12, 31, 64
13, 138420, Note_on_c, 12, 31, 61
13, 138468, Note_off_c, 12, 31, 64
13, 138480, Note_on_c, 12, 31, 61
13, 138528, Note_off_c, 12, 31, 64
13, 138540, Note_on_c, 12, 31, 60
13, 138588, Note_off_c, 12, 31, 64
13, 138600, Note_on_c, 12, 31, 59
13, 138648, Note_off_c, 12, 31, 64
13, 138660, Note_on_c, 12, 31, 59
13, 138708, Note_off_c, 12, 31, 64
13, 138720, Note_on_c, 12, 31, 59
13, 138768, Note_off_c, 12, 31, 64
13, 138780, Note_on_c, 12, 31, 58
13, 138828, Note_off_c, 12, 31, 64
13, 138840, Note_on_c, 12, 31, 58
13, 138888, Note_off_c, 12, 31, 64
13, 138900, Note_on_c, 12, 31, 57
13, 138948, Note_off_c, 12, 31, 64
13, 138960, Note_on_c, 12, 31, 57
13, 139008, Note_off_c, 12, 31, 64
13, 139020, Note_on_c, 12, 31, 56
13, 139068, Note_off_c, 12, 31, 64
13, 139080, Note_on_c, 12, 31, 55
13, 139128, Note_off_c, 12, 31, 64
13, 139140, Note_on_c, 12, 31, 55
13, 139188, Note_off_c, 12, 31, 64
13, 139200, Note_on_c, 12, 31, 54
13, 139248, Note_off_c, 12, 31, 64
13, 139260, Note_on_c, 12, 31, 53
13, 139308, Note_off_c, 12, 31, 64
13, 139320, Note_on_c, 12, 31, 53
13, 139368, Note_off_c, 12, 31, 64
13, 139380, Note_on_c, 12, 31, 52
13, 139428, Note_off_c, 12, 31, 64
13, 139440, Note_on_c, 12, 31, 52
13, 139488, Note_off_c, 12, 31, 64
13, 139500, Note_on_c, 12, 31, 51
13, 139548, Note_off_c, 12, 31, 64
13, 139560, Note_on_c, 12, 31, 50
13, 139608, Note_off_c, 12, 31, 64
13, 139620, Note_on_c, 12, 31, 50
13, 139668, Note_off_c, 12, 31, 64
13, 139680, Note_on_c, 12, 31, 50
13, 139728, Note_off_c, 12, 31, 64
13, 139740, Note_on_c, 12, 31, 49
13, 139788, Note_off_c, 12, 31, 64
13, 139800, Note_on_c, 12, 31, 49
13, 139848, Note_off_c, 12, 31, 64
13, 139860, Note_on_c, 12, 31, 48
13, 139908, Note_off_c, 12, 31, 64
13, 139920, Note_on_c, 12, 31, 48
13, 139968, Note_off_c, 12, 31, 64
13, 139980, Note_on_c, 12, 31, 47
13, 140028, Note_off_c, 12, 31, 64
13, 140040, Note_on_c, 12, 31, 46
13, 140088, Note_off_c, 12, 31, 64
13, 140100, Note_on_c, 12, 31, 46
13, 140148, Note_off_c, 12, 31, 64
13, 140160, Note_on_c, 12, 31, 29
13, 148740, Note_off_c, 12, 31, 64
13, 156600, Note_on_c, 12, 31, 29
13, 156640, Note_off_c, 12, 31, 64
13, 156640, Note_on_c, 12, 33, 29
13, 156680, Note_off_c, 12, 33, 64
13, 156680, Note_on_c, 12, 35, 29
13, 156720, Note_off_c, 12, 35, 64
13, 156720, Note_on_c, 12, 36, 29
13, 157200, Note_off_c, 12, 36, 64
13, 157560, Note_on_c, 12, 36, 29
13, 157620, Note_off_c, 12, 36, 64
13, 157620, Note_on_c, 12, 35, 29
13, 157680, Note_off_c, 12, 35, 64
13, 157680, Note_on_c, 12, 33, 29
13, 158160, Note_off_c, 12, 33, 64
13, 158520, Note_on_c, 12, 33, 29
13, 158560, Note_off_c, 12, 33, 64
13, 158560, Note_on_c, 12, 35, 29
13, 158600, Note_off_c, 12, 35, 64
13, 158600, Note_on_c, 12, 36, 29
13, 158640, Note_off_c, 12, 36, 64
13, 158640, Note_on_c, 12, 38, 29
13, 159120, Note_off_c, 12, 38, 64
13, 159480, Note_on_c, 12, 38, 29
13, 159540, Note_off_c, 12, 38, 64
13, 159540, Note_on_c, 12, 36, 29
13, 159600, Note_off_c, 12, 36, 64
13, 159600, Note_on_c, 12, 35, 29
13, 160080, Note_off_c, 12, 35, 64
13, 160440, Note_on_c, 12, 36, 29
13, 160500, Note_off_c, 12, 36, 64
13, 160500, Note_on_c, 12, 38, 29
13, 160560, Note_off_c, 12, 38, 64
13, 160560, Note_on_c, 12, 40, 29
13, 161040, Note_off_c, 12, 40, 64
13, 161400, Note_on_c, 12, 40, 29
13, 161460, Note_off_c, 12, 40, 64
13, 161460, Note_on_c, 12, 38, 29
13, 161520, Note_off_c, 12, 38, 64
13, 161520, Note_on_c, 12, 36, 29
13, 162000, Note_off_c, 12, 36, 64
13, 162360, Note_on_c, 12, 36, 29
13, 162400, Note_off_c, 12, 36, 64
13, 162400, Note_on_c, 12, 38, 29
13, 162440, Note_off_c, 12, 38, 64
13, 162440, Note_on_c, 12, 40, 29
13, 162480, Note_off_c, 12, 40, 64
13, 162480, Note_on_c, 12, 41, 29
13, 162960, Note_off_c, 12, 41, 64
13, 163320, Note_on_c, 12, 41, 29
13, 163380, Note_off_c, 12, 41, 64
13, 163380, Note_on_c, 12, 40, 29
13, 163440, Note_off_c, 12, 40, 64
13, 163440, Note_on_c, 12, 38, 32
13, 163680, Note_off_c, 12, 38, 64
13, 163680, Note_on_c, 12, 40, 33
13, 163800, Note_off_c, 12, 40, 64
13, 163800, Note_on_c, 12, 41, 33
13, 163920, Note_off_c, 12, 41, 64
13, 163920, Note_on_c, 12, 43, 34
13, 164016, Note_off_c, 12, 43, 64
13, 164160, Note_on_c, 12, 41, 36
13, 164256, Note_off_c, 12, 41, 64
13, 164400, Note_on_c, 12, 40, 38
13, 164640, Note_off_c, 12, 40, 64
13, 164640, Note_on_c, 12, 41, 39
13, 164760, Note_off_c, 12, 41, 64
13, 164760, Note_on_c, 12, 43, 40
13, 164880, Note_off_c, 12, 43, 64
13, 164880, Note_on_c, 12, 45, 41
13, 164976, Note_off_c, 12, 45, 64
13, 165120, Note_on_c, 12, 43, 41
13, 165216, Note_off_c, 12, 43, 64
13, 165360, Note_on_c, 12, 41, 43
13, 165600, Note_off_c, 12, 41, 64
13, 165600, Note_on_c, 12, 43, 45
13, 165720, Note_off_c, 12, 43, 64
13, 165720, Note_on_c, 12, 45, 45
13, 165840, Note_off_c, 12, 45, 64
13, 165840, Note_on_c, 12, 47, 46
13, 165936, Note_off_c, 12, 47, 64
13, 166080, Note_on_c, 12, 45, 48
13, 166176, Note_off_c, 12, 45, 64
13, 166320, Note_on_c, 12, 43, 50
13, 166560, Note_off_c, 12, 43, 64
13, 166560, Note_on_c, 12, 45, 50
13, 166680, Note_off_c, 12, 45, 64
13, 166680, Note_on_c, 12, 47, 51
13, 166800, Note_off_c, 12, 47, 64
13, 166800, Note_on_c, 12, 48, 52
13, 166896, Note_off_c, 12, 48, 64
13, 167040, Note_on_c, 12, 47, 53
13, 167136, Note_off_c, 12, 47, 64
13, 167280, Note_on_c, 12, 45, 55
13, 167520, Note_off_c, 12, 45, 64
13, 167520, Note_on_c, 12, 47, 57
13, 167640, Note_off_c, 12, 47, 64
13, 167640, Note_on_c, 12, 48, 57
13, 167760, Note_off_c, 12, 48, 64
13, 167760, Note_on_c, 12, 50, 58
13, 167856, Note_off_c, 12, 50, 64
13, 168000, Note_on_c, 12, 48, 59
13, 168096, Note_off_c, 12, 48, 64
13, 168240, Note_on_c, 12, 47, 61
13, 168480, Note_off_c, 12, 47, 64
13, 168480, Note_on_c, 12, 48, 62
13, 168600, Note_off_c, 12, 48, 64
13, 168600, Note_on_c, 12, 50, 63
13, 168720, Note_off_c, 12, 50, 64
13, 168720, Note_on_c, 12, 52, 64
13, 168816, Note_off_c, 12, 52, 64
13, 168960, Note_on_c, 12, 50, 65
13, 169056, Note_off_c, 12, 50, 64
13, 169200, Note_on_c, 12, 48, 67
13, 169440, Note_off_c, 12, 48, 64
13, 169440, Note_on_c, 12, 50, 68
13, 169560, Note_off_c, 12, 50, 64
13, 169560, Note_on_c, 12, 52, 68
13, 169680, Note_off_c, 12, 52, 64
13, 169680, Note_on_c, 12, 53, 69
13, 169776, Note_off_c, 12, 53, 64
13, 169920, Note_on_c, 12, 52, 71
13, 170016, Note_off_c, 12, 52, 64
13, 170160, Note_on_c, 12, 50, 73
13, 170400, Note_off_c, 12, 50, 64
13, 170400, Note_on_c, 12, 52, 74
13, 170520, Note_off_c, 12, 52, 64
13, 170520, Note_on_c, 12, 53, 75
13, 170640, Note_off_c, 12, 53, 64
13, 170640, Note_on_c, 12, 55, 76
13, 170736, Note_off_c, 12, 55, 64
13, 170880, Note_on_c, 12, 55, 77
13, 171000, Note_off_c, 12, 55, 64
13, 171000, Note_on_c, 12, 53, 77
13, 171120, Note_off_c, 12, 53, 64
13, 171120, Note_on_c, 12, 52, 78
13, 171216, Note_off_c, 12, 52, 64
13, 171360, Note_on_c, 12, 52, 80
13, 171480, Note_off_c, 12, 52, 64
13, 171480, Note_on_c, 12, 50, 80
13, 171600, Note_off_c, 12, 50, 64
13, 171600, Note_on_c, 12, 48, 81
13, 171696, Note_off_c, 12, 48, 64
13, 193200, Note_on_c, 12, 43, 127
13, 193968, Note_off_c, 12, 43, 64
13, 194160, Note_on_c, 12, 40, 111
13, 194400, Note_off_c, 12, 40, 64
13, 194400, Note_on_c, 12, 41, 111
13, 194520, Note_off_c, 12, 41, 64
13, 194520, Note_on_c, 12, 43, 111
13, 194640, Note_off_c, 12, 43, 64
13, 194640, Note_on_c, 12, 45, 127
13, 194736, Note_off_c, 12, 45, 64
13, 194880, Note_on_c, 12, 45, 111
13, 194976, Note_off_c, 12, 45, 64
13, 195120, Note_on_c, 12, 38, 111
13, 195360, Note_off_c, 12, 38, 64
13, 195360, Note_on_c, 12, 40, 111
13, 195480, Note_off_c, 12, 40, 64
13, 195480, Note_on_c, 12, 41, 111
13, 195600, Note_off_c, 12, 41, 64
13, 195600, Note_on_c, 12, 43, 127
13, 195696, Note_off_c, 12, 43, 64
13, 195840, Note_on_c, 12, 31, 111
13, 195936, Note_off_c, 12, 31, 64
13, 196080, Note_on_c, 12, 36, 111
13, 196320, Note_off_c, 12, 36, 64
13, 196320, Note_on_c, 12, 38, 111
13, 196440, Note_off_c, 12, 38, 64
13, 196440, Note_on_c, 12, 40, 111
13, 196560, Note_off_c, 12, 40, 64
13, 196560, Note_on_c, 12, 41, 127
13, 196656, Note_off_c, 12, 41, 64
13, 196800, Note_on_c, 12, 41, 111
13, 196896, Note_off_c, 12, 41, 64
13, 197040, Note_on_c, 12, 35, 111
13, 197280, Note_off_c, 12, 35, 64
13, 197280, Note_on_c, 12, 36, 111
13, 197400, Note_off_c, 12, 36, 64
13, 197400, Note_on_c, 12, 38, 111
13, 197520, Note_off_c, 12, 38, 64
13, 197520, Note_on_c, 12, 40, 127
13, 197616, Note_off_c, 12, 40, 64
13, 197760, Note_on_c, 12, 28, 111
13, 197856, Note_off_c, 12, 28, 64
13, 198000, Note_on_c, 12, 33, 111
13, 198240, Note_off_c, 12, 33, 64
13, 198240, Note_on_c, 12, 35, 111
13, 198360, Note_off_c, 12, 35, 64
13, 198360, Note_on_c, 12, 36, 111
13, 198480, Note_off_c, 12, 36, 64
13, 198480, Note_on_c, 12, 38, 127
13, 198576, Note_off_c, 12, 38, 64
13, 198720, Note_on_c, 12, 38, 111
13, 198816, Note_off_c, 12, 38, 64
13, 198960, Note_on_c, 12, 31, 111
13, 199200, Note_off_c, 12, 31, 64
13, 199200, Note_on_c, 12, 33, 111
13, 199320, Note_off_c, 12, 33, 64
13, 199320, Note_on_c, 12, 35, 111
13, 199440, Note_off_c, 12, 35, 64
13, 199440, Note_on_c, 12, 36, 111
13, 199680, Note_off_c, 12, 36, 64
13, 199680, Note_on_c, 12, 38, 111
13, 199800, Note_off_c, 12, 38, 64
13, 199800, Note_on_c, 12, 40, 111
13, 199920, Note_off_c, 12, 40, 64
13, 199920, Note_on_c, 12, 41, 111
13, 200016, Note_off_c, 12, 41, 64
13, 200160, Note_on_c, 12, 40, 111
13, 200256, Note_off_c, 12, 40, 64
13, 200280, Note_on_c, 12, 41, 111
13, 200376, Note_off_c, 12, 41, 64
13, 200400, Note_on_c, 12, 43, 127
13, 200496, Note_off_c, 12, 43, 64
13, 200640, Note_on_c, 12, 41, 111
13, 200736, Note_off_c, 12, 41, 64
13, 200880, Note_on_c, 12, 40, 111
13, 200976, Note_off_c, 12, 40, 64
13, 201120, Note_on_c, 12, 38, 111
13, 201216, Note_off_c, 12, 38, 64
13, 201240, Note_on_c, 12, 40, 111
13, 201336, Note_off_c, 12, 40, 64
13, 201360, Note_on_c, 12, 41, 127
13, 201456, Note_off_c, 12, 41, 64
13, 201600, Note_on_c, 12, 40, 111
13, 201696, Note_off_c, 12, 40, 64
13, 201840, Note_on_c, 12, 41, 111
13, 201936, Note_off_c, 12, 41, 64
13, 202080, Note_on_c, 12, 40, 111
13, 202176, Note_off_c, 12, 40, 64
13, 202200, Note_on_c, 12, 41, 111
13, 202296, Note_off_c, 12, 41, 64
13, 202320, Note_on_c, 12, 43, 127
13, 202416, Note_off_c, 12, 43, 64
13, 202560, Note_on_c, 12, 41, 111
13, 202656, Note_off_c, 12, 41, 64
13, 202800, Note_on_c, 12, 40, 111
13, 202896, Note_off_c, 12, 40, 64
13, 203040, Note_on_c, 12, 38, 111
13, 203136, Note_off_c, 12, 38, 64
13, 203280, Note_on_c, 12, 36, 111
13, 203376, Note_off_c, 12, 36, 64
13, 203520, Note_on_c, 12, 35, 111
13, 203616, Note_off_c, 12, 35, 64
13, 203640, Note_on_c, 12, 33, 111
13, 203736, Note_off_c, 12, 33, 64
13, 203760, Note_on_c, 12, 31, 72
13, 204240, Note_off_c, 12, 31, 64
13, 204240, Note_on_c, 12, 55, 72
13, 205104, Note_off_c, 12, 55, 64
13, 205200, Note_on_c, 12, 54, 72
13, 206064, Note_off_c, 12, 54, 64
13, 206160, Note_on_c, 12, 52, 72
13, 207024, Note_off_c, 12, 52, 64
13, 207120, Note_on_c, 12, 50, 72
13, 207984, Note_off_c, 12, 50, 64
13, 208080, Note_on_c, 12, 48, 72
13, 208944, Note_off_c, 12, 48, 64
13, 209040, Note_on_c, 12, 47, 72
13, 209424, Note_off_c, 12, 47, 64
13, 209520, Note_on_c, 12, 45, 89
13, 209616, Note_off_c, 12, 45, 64
13, 209640, Note_on_c, 12, 38, 89
13, 209736, Note_off_c, 12, 38, 64
13, 209760, Note_on_c, 12, 45, 89
13, 209856, Note_off_c, 12, 45, 64
13, 209880, Note_on_c, 12, 43, 89
13, 209976, Note_off_c, 12, 43, 64
13, 210000, Note_on_c, 12, 42, 89
13, 210096, Note_off_c, 12, 42, 64
13, 210120, Note_on_c, 12, 38, 89
13, 210216, Note_off_c, 12, 38, 64
13, 210240, Note_on_c, 12, 40, 89
13, 210336, Note_off_c, 12, 40, 64
13, 210360, Note_on_c, 12, 42, 89
13, 210456, Note_off_c, 12, 42, 64
13, 210480, Note_on_c, 12, 43, 89
13, 210576, Note_off_c, 12, 43, 64
13, 210600, Note_on_c, 12, 50, 89
13, 210696, Note_off_c, 12, 50, 64
13, 210720, Note_on_c, 12, 48, 89
13, 210816, Note_off_c, 12, 48, 64
13, 210840, Note_on_c, 12, 47, 89
13, 210936, Note_off_c, 12, 47, 64
13, 210960, Note_on_c, 12, 45, 89
13, 211056, Note_off_c, 12, 45, 64
13, 211080, Note_on_c, 12, 43, 89
13, 211176, Note_off_c, 12, 43, 64
13, 211200, Note_on_c, 12, 42, 89
13, 211296, Note_off_c, 12, 42, 64
13, 211320, Note_on_c, 12, 43, 89
13, 211416, Note_off_c, 12, 43, 64
13, 211440, Note_on_c, 12, 45, 89
13, 211536, Note_off_c, 12, 45, 64
13, 211560, Note_on_c, 12, 38, 89
13, 211656, Note_off_c, 12, 38, 64
13, 211680, Note_on_c, 12, 45, 89
13, 211776, Note_off_c, 12, 45, 64
13, 211800, Note_on_c, 12, 43, 89
13, 211896, Note_off_c, 12, 43, 64
13, 211920, Note_on_c, 12, 42, 89
13, 212016, Note_off_c, 12, 42, 64
13, 212040, Note_on_c, 12, 38, 89
13, 212136, Note_off_c, 12, 38, 64
13, 212160, Note_on_c, 12, 40, 89
13, 212256, Note_off_c, 12, 40, 64
13, 212280, Note_on_c, 12, 42, 89
13, 212376, Note_off_c, 12, 42, 64
13, 212400, Note_on_c, 12, 43, 89
13, 212496, Note_off_c, 12, 43, 64
13, 212520, Note_on_c, 12, 47, 89
13, 212616, Note_off_c, 12, 47, 64
13, 212640, Note_on_c, 12, 50, 89
13, 212736, Note_off_c, 12, 50, 64
13, 212760, Note_on_c, 12, 48, 89
13, 212856, Note_off_c, 12, 48, 64
13, 212880, Note_on_c, 12, 47, 89
13, 212976, Note_off_c, 12, 47, 64
13, 213000, Note_on_c, 12, 48, 89
13, 213096, Note_off_c, 12, 48, 64
13, 213120, Note_on_c, 12, 47, 89
13, 213216, Note_off_c, 12, 47, 64
13, 213240, Note_on_c, 12, 45, 89
13, 213336, Note_off_c, 12, 45, 64
13, 213360, Note_on_c, 12, 31, 89
13, 213456, Note_off_c, 12, 31, 64
13, 213600, Note_on_c, 12, 43, 89
13, 213696, Note_off_c, 12, 43, 64
13, 213840, Note_on_c, 12, 43, 89
13, 213936, Note_off_c, 12, 43, 64
13, 214080, Note_on_c, 12, 43, 89
13, 214176, Note_off_c, 12, 43, 64
13, 214320, Note_on_c, 12, 36, 89
13, 214416, Note_off_c, 12, 36, 64
13, 214560, Note_on_c, 12, 48, 89
13, 214656, Note_off_c, 12, 48, 64
13, 214800, Note_on_c, 12, 48, 89
13, 214896, Note_off_c, 12, 48, 64
13, 215040, Note_on_c, 12, 36, 89
13, 215136, Note_off_c, 12, 36, 64
13, 215280, Note_on_c, 12, 31, 114
13, 215376, Note_off_c, 12, 31, 64
13, 215520, Note_on_c, 12, 43, 114
13, 215616, Note_off_c, 12, 43, 64
13, 215760, Note_on_c, 12, 43, 114
13, 215856, Note_off_c, 12, 43, 64
13, 216000, Note_on_c, 12, 31, 114
13, 216096, Note_off_c, 12, 31, 64
13, 216240, Note_on_c, 12, 36, 114
13, 216336, Note_off_c, 12, 36, 64
13, 216360, Note_on_c, 12, 48, 114
13, 216456, Note_off_c, 12, 48, 64
13, 216480, Note_on_c, 12, 47, 114
13, 216576, Note_off_c, 12, 47, 64
13, 216600, Note_on_c, 12, 45, 114
13, 216696, Note_off_c, 12, 45, 64
13, 216720, Note_on_c, 12, 43, 114
13, 216816, Note_off_c, 12, 43, 64
13, 216840, Note_on_c, 12, 41, 114
13, 216936, Note_off_c, 12, 41, 64
13, 216960, Note_on_c, 12, 40, 114
13, 217056, Note_off_c, 12, 40, 64
13, 217080, Note_on_c, 12, 38, 114
13, 217176, Note_off_c, 12, 38, 64
13, 217200, Note_on_c, 12, 36, 114
13, 217584, Note_off_c, 12, 36, 64
13, 217680, Note_on_c, 12, 48, 114
13, 218544, Note_off_c, 12, 48, 64
13, 218640, Note_on_c, 12, 47, 114
13, 219024, Note_off_c, 12, 47, 64
13, 219120, Note_on_c, 12, 46, 114
13, 219504, Note_off_c, 12, 46, 64
13, 219600, Note_on_c, 12, 45, 114
13, 220464, Note_off_c, 12, 45, 64
13, 220560, Note_on_c, 12, 43, 114
13, 221424, Note_off_c, 12, 43, 64
13, 221520, Note_on_c, 12, 41, 114
13, 222384, Note_off_c, 12, 41, 64
13, 222480, Note_on_c, 12, 40, 114
13, 222864, Note_off_c, 12, 40, 64
13, 222960, Note_on_c, 12, 38, 89
13, 223056, Note_off_c, 12, 38, 64
13, 223080, Note_on_c, 12, 31, 89
13, 223176, Note_off_c, 12, 31, 64
13, 223200, Note_on_c, 12, 38, 89
13, 223296, Note_off_c, 12, 38, 64
13, 223320, Note_on_c, 12, 36, 89
13, 223416, Note_off_c, 12, 36, 64
13, 223440, Note_on_c, 12, 35, 89
13, 223536, Note_off_c, 12, 35, 64
13, 223560, Note_on_c, 12, 31, 89
13, 223656, Note_off_c, 12, 31, 64
13, 223680, Note_on_c, 12, 33, 89
13, 223776, Note_off_c, 12, 33, 64
13, 223800, Note_on_c, 12, 35, 89
13, 223896, Note_off_c, 12, 35, 64
13, 223920, Note_on_c, 12, 36, 89
13, 224016, Note_off_c, 12, 36, 64
13, 224040, Note_on_c, 12, 43, 89
13, 224136, Note_off_c, 12, 43, 64
13, 224160, Note_on_c, 12, 41, 89
13, 224256, Note_off_c, 12, 41, 64
13, 224280, Note_on_c, 12, 40, 89
13, 224376, Note_off_c, 12, 40, 64
13, 224400, Note_on_c, 12, 38, 89
13, 224496, Note_off_c, 12, 38, 64
13, 224520, Note_on_c, 12, 36, 89
13, 224616, Note_off_c, 12, 36, 64
13, 224640, Note_on_c, 12, 35, 89
13, 224736, Note_off_c, 12, 35, 64
13, 224760, Note_on_c, 12, 36, 89
13, 224856, Note_off_c, 12, 36, 64
13, 224880, Note_on_c, 12, 38, 89
13, 224976, Note_off_c, 12, 38, 64
13, 225000, Note_on_c, 12, 31, 89
13, 225096, Note_off_c, 12, 31, 64
13, 225120, Note_on_c, 12, 38, 89
13, 225216, Note_off_c, 12, 38, 64
13, 225240, Note_on_c, 12, 36, 89
13, 225336, Note_off_c, 12, 36, 64
13, 225360, Note_on_c, 12, 35, 89
13, 225456, Note_off_c, 12, 35, 64
13, 225480, Note_on_c, 12, 31, 89
13, 225576, Note_off_c, 12, 31, 64
13, 225600, Note_on_c, 12, 33, 89
13, 225696, Note_off_c, 12, 33, 64
13, 225720, Note_on_c, 12, 35, 89
13, 225816, Note_off_c, 12, 35, 64
13, 225840, Note_on_c, 12, 36, 89
13, 225936, Note_off_c, 12, 36, 64
13, 225960, Note_on_c, 12, 43, 89
13, 226056, Note_off_c, 12, 43, 64
13, 226080, Note_on_c, 12, 41, 89
13, 226176, Note_off_c, 12, 41, 64
13, 226200, Note_on_c, 12, 40, 89
13, 226296, Note_off_c, 12, 40, 64
13, 226320, Note_on_c, 12, 38, 89
13, 226416, Note_off_c, 12, 38, 64
13, 226440, Note_on_c, 12, 36, 89
13, 226536, Note_off_c, 12, 36, 64
13, 226560, Note_on_c, 12, 35, 89
13, 226656, Note_off_c, 12, 35, 64
13, 226680, Note_on_c, 12, 36, 89
13, 226776, Note_off_c, 12, 36, 64
13, 226800, Note_on_c, 12, 33, 127
13, 226896, Note_off_c, 12, 33, 64
13, 227040, Note_on_c, 12, 45, 89
13, 227136, Note_off_c, 12, 45, 64
13, 227280, Note_on_c, 12, 45, 89
13, 227376, Note_off_c, 12, 45, 64
13, 227520, Note_on_c, 12, 33, 89
13, 227616, Note_off_c, 12, 33, 64
13, 227760, Note_on_c, 12, 31, 127
13, 227856, Note_off_c, 12, 31, 64
13, 228000, Note_on_c, 12, 43, 89
13, 228096, Note_off_c, 12, 43, 64
13, 228240, Note_on_c, 12, 43, 89
13, 228336, Note_off_c, 12, 43, 64
13, 228480, Note_on_c, 12, 31, 89
13, 228576, Note_off_c, 12, 31, 64
13, 228720, Note_on_c, 12, 30, 127
13, 228816, Note_off_c, 12, 30, 64
13, 228960, Note_on_c, 12, 42, 89
13, 229056, Note_off_c, 12, 42, 64
13, 229200, Note_on_c, 12, 42, 89
13, 229296, Note_off_c, 12, 42, 64
13, 229440, Note_on_c, 12, 30, 89
13, 229536, Note_off_c, 12, 30, 64
13, 229680, Note_on_c, 12, 31, 127
13, 229776, Note_off_c, 12, 31, 64
13, 229920, Note_on_c, 12, 43, 89
13, 230016, Note_off_c, 12, 43, 64
13, 230160, Note_on_c, 12, 43, 89
13, 230256, Note_off_c, 12, 43, 64
13, 230400, Note_on_c, 12, 31, 89
13, 230496, Note_off_c, 12, 31, 64
13, 230640, Note_on_c, 12, 40, 127
13, 230736, Note_off_c, 12, 40, 64
13, 230880, Note_on_c, 12, 52, 89
13, 230976, Note_off_c, 12, 52, 64
13, 231120, Note_on_c, 12, 52, 89
13, 231216, Note_off_c, 12, 52, 64
13, 231360, Note_on_c, 12, 40, 89
13, 231456, Note_off_c, 12, 40, 64
13, 231600, Note_on_c, 12, 42, 127
13, 231696, Note_off_c, 12, 42, 64
13, 231720, Note_on_c, 12, 43, 89
13, 231816, Note_off_c, 12, 43, 64
13, 231840, Note_on_c, 12, 42, 89
13, 231936, Note_off_c, 12, 42, 64
13, 231960, Note_on_c, 12, 40, 89
13, 232056, Note_off_c, 12, 40, 64
13, 232080, Note_on_c, 12, 38, 89
13, 232176, Note_off_c, 12, 38, 64
13, 232200, Note_on_c, 12, 36, 89
13, 232296, Note_off_c, 12, 36, 64
13, 232320, Note_on_c, 12, 35, 89
13, 232416, Note_off_c, 12, 35, 64
13, 232440, Note_on_c, 12, 33, 89
13, 232536, Note_off_c, 12, 33, 64
13, 232560, Note_on_c, 12, 31, 72
13, 232944, Note_off_c, 12, 31, 64
13, 256560, Note_on_c, 12, 38, 39
13, 256608, Note_off_c, 12, 38, 64
13, 256680, Note_on_c, 12, 45, 39
13, 256728, Note_off_c, 12, 45, 64
13, 256800, Note_on_c, 12, 43, 39
13, 256848, Note_off_c, 12, 43, 64
13, 256920, Note_on_c, 12, 41, 39
13, 256968, Note_off_c, 12, 41, 64
13, 257040, Note_on_c, 12, 40, 39
13, 257088, Note_off_c, 12, 40, 64
13, 257160, Note_on_c, 12, 38, 39
13, 257208, Note_off_c, 12, 38, 64
13, 257280, Note_on_c, 12, 37, 39
13, 257328, Note_off_c, 12, 37, 64
13, 257400, Note_on_c, 12, 38, 39
13, 257448, Note_off_c, 12, 38, 64
13, 257520, Note_on_c, 12, 33, 29
13, 257616, Note_off_c, 12, 33, 64
13, 257760, Note_on_c, 12, 45, 29
13, 257856, Note_off_c, 12, 45, 64
13, 258000, Note_on_c, 12, 45, 29
13, 258096, Note_off_c, 12, 45, 64
13, 258240, Note_on_c, 12, 33, 29
13, 258336, Note_off_c, 12, 33, 64
13, 258480, Note_on_c, 12, 33, 29
13, 258576, Note_off_c, 12, 33, 64
13, 258720, Note_on_c, 12, 45, 29
13, 258816, Note_off_c, 12, 45, 64
13, 258960, Note_on_c, 12, 45, 29
13, 259056, Note_off_c, 12, 45, 64
13, 259200, Note_on_c, 12, 33, 29
13, 259296, Note_off_c, 12, 33, 64
13, 259440, Note_on_c, 12, 33, 29
13, 259536, Note_off_c, 12, 33, 64
13, 259680, Note_on_c, 12, 45, 29
13, 259776, Note_off_c, 12, 45, 64
13, 259920, Note_on_c, 12, 45, 29
13, 260016, Note_off_c, 12, 45, 64
13, 260160, Note_on_c, 12, 33, 29
13, 260256, Note_off_c, 12, 33, 64
13, 260400, Note_on_c, 12, 33, 29
13, 260496, Note_off_c, 12, 33, 64
13, 260640, Note_on_c, 12, 45, 29
13, 260736, Note_off_c, 12, 45, 64
13, 260880, Note_on_c, 12, 45, 29
13, 260976, Note_off_c, 12, 45, 64
13, 261120, Note_on_c, 12, 33, 29
13, 261216, Note_off_c, 12, 33, 64
13, 261360, Note_on_c, 12, 38, 39
13, 261408, Note_off_c, 12, 38, 64
13, 261480, Note_on_c, 12, 45, 39
13, 261528, Note_off_c, 12, 45, 64
13, 261600, Note_on_c, 12, 43, 39
13, 261648, Note_off_c, 12, 43, 64
13, 261720, Note_on_c, 12, 41, 39
13, 261768, Note_off_c, 12, 41, 64
13, 261840, Note_on_c, 12, 40, 39
13, 261888, Note_off_c, 12, 40, 64
13, 261960, Note_on_c, 12, 38, 39
13, 262008, Note_off_c, 12, 38, 64
13, 262080, Note_on_c, 12, 37, 39
13, 262128, Note_off_c, 12, 37, 64
13, 262200, Note_on_c, 12, 38, 39
13, 262248, Note_off_c, 12, 38, 64
13, 262320, Note_on_c, 12, 31, 29
13, 262770, Note_off_c, 12, 31, 64
13, 263280, Note_on_c, 12, 36, 39
13, 263328, Note_off_c, 12, 36, 64
13, 263400, Note_on_c, 12, 43, 39
13, 263448, Note_off_c, 12, 43, 64
13, 263520, Note_on_c, 12, 41, 39
13, 263568, Note_off_c, 12, 41, 64
13, 263640, Note_on_c, 12, 40, 39
13, 263688, Note_off_c, 12, 40, 64
13, 263760, Note_on_c, 12, 38, 39
13, 263808, Note_off_c, 12, 38, 64
13, 263880, Note_on_c, 12, 36, 39
13, 263928, Note_off_c, 12, 36, 64
13, 264000, Note_on_c, 12, 35, 39
13, 264048, Note_off_c, 12, 35, 64
13, 264120, Note_on_c, 12, 36, 39
13, 264168, Note_off_c, 12, 36, 64
13, 264240, Note_on_c, 12, 31, 29
13, 264690, Note_off_c, 12, 31, 64
13, 265200, Note_on_c, 12, 36, 29
13, 265584, Note_off_c, 12, 36, 64
13, 265680, Note_on_c, 12, 48, 29
13, 266064, Note_off_c, 12, 48, 64
13, 266640, Note_on_c, 12, 45, 22
13, 266832, Note_off_c, 12, 45, 64
13, 267120, Note_on_c, 12, 45, 22
13, 267312, Note_off_c, 12, 45, 64
13, 267600, Note_on_c, 12, 44, 22
13, 267792, Note_off_c, 12, 44, 64
13, 268080, Note_on_c, 12, 45, 22
13, 268272, Note_off_c, 12, 45, 64
13, 268560, Note_on_c, 12, 33, 22
13, 268752, Note_off_c, 12, 33, 64
13, 268808, Control_c, 12, 7, 31
13, 268840, Control_c, 12, 7, 32
13, 268860, Control_c, 12, 7, 33
13, 268880, Control_c, 12, 7, 34
13, 268900, Control_c, 12, 7, 35
13, 268920, Control_c, 12, 7, 36
13, 268940, Control_c, 12, 7, 37
13, 268960, Control_c, 12, 7, 38
13, 268980, Control_c, 12, 7, 39
13, 269000, Control_c, 12, 7, 40
13, 269020, Control_c, 12, 7, 41
13, 269040, Control_c, 12, 7, 42
13, 269040, Note_on_c, 12, 40, 22
13, 269060, Control_c, 12, 7, 43
13, 269080, Control_c, 12, 7, 44
13, 269100, Control_c, 12, 7, 45
13, 269120, Control_c, 12, 7, 46
13, 269140, Control_c, 12, 7, 47
13, 269160, Control_c, 12, 7, 48
13, 269180, Control_c, 12, 7, 49
13, 269200, Control_c, 12, 7, 50
13, 269228, Control_c, 12, 7, 51
13, 269248, Control_c, 12, 7, 52
13, 269268, Control_c, 12, 7, 53
13, 269288, Control_c, 12, 7, 54
13, 269308, Control_c, 12, 7, 55
13, 269328, Control_c, 12, 7, 56
13, 269348, Control_c, 12, 7, 57
13, 269368, Control_c, 12, 7, 58
13, 269388, Control_c, 12, 7, 59
13, 269408, Control_c, 12, 7, 60
13, 269428, Control_c, 12, 7, 61
13, 269448, Control_c, 12, 7, 62
13, 269468, Control_c, 12, 7, 63
13, 269488, Control_c, 12, 7, 64
13, 269508, Control_c, 12, 7, 65
13, 269528, Control_c, 12, 7, 66
13, 269548, Control_c, 12, 7, 67
13, 269568, Control_c, 12, 7, 68
13, 269588, Control_c, 12, 7, 69
13, 269608, Control_c, 12, 7, 70
13, 269640, Control_c, 12, 7, 71
13, 269660, Control_c, 12, 7, 72
13, 269680, Control_c, 12, 7, 73
13, 269700, Control_c, 12, 7, 74
13, 269720, Control_c, 12, 7, 75
13, 269740, Control_c, 12, 7, 76
13, 269760, Control_c, 12, 7, 77
13, 269780, Control_c, 12, 7, 78
13, 269800, Control_c, 12, 7, 79
13, 269820, Control_c, 12, 7, 80
13, 269840, Control_c, 12, 7, 81
13, 269860, Control_c, 12, 7, 82
13, 269880, Control_c, 12, 7, 83
13, 269900, Control_c, 12, 7, 84
13, 269920, Control_c, 12, 7, 85
13, 269940, Control_c, 12, 7, 86
13, 269960, Control_c, 12, 7, 87
13, 269980, Control_c, 12, 7, 88
13, 270000, Control_c, 12, 7, 89
13, 270020, Control_c, 12, 7, 90
13, 274800, Note_off_c, 12, 40, 64
13, 274800, Note_on_c, 12, 52, 32
13, 276336, Note_off_c, 12, 52, 64
13, 276720, Note_on_c, 12, 48, 32
13, 278256, Note_off_c, 12, 48, 64
13, 278640, Note_on_c, 12, 54, 32
13, 280176, Note_off_c, 12, 54, 64
13, 280560, Note_on_c, 12, 50, 32
13, 282096, Note_off_c, 12, 50, 64
13, 282480, Note_on_c, 12, 55, 32
13, 284016, Note_off_c, 12, 55, 64
13, 284400, Note_on_c, 12, 52, 32
13, 285936, Note_off_c, 12, 52, 64
13, 286320, Note_on_c, 12, 57, 32
13, 287856, Note_off_c, 12, 57, 64
13, 288240, Note_on_c, 12, 47, 30
13, 288336, Note_off_c, 12, 47, 64
13, 288480, Note_on_c, 12, 47, 32
13, 288576, Note_off_c, 12, 47, 64
13, 288720, Note_on_c, 12, 47, 34
13, 288816, Note_off_c, 12, 47, 64
13, 288960, Note_on_c, 12, 35, 36
13, 289056, Note_off_c, 12, 35, 64
13, 289200, Note_on_c, 12, 35, 38
13, 289296, Note_off_c, 12, 35, 64
13, 289440, Note_on_c, 12, 47, 39
13, 289536, Note_off_c, 12, 47, 64
13, 289680, Note_on_c, 12, 47, 41
13, 289776, Note_off_c, 12, 47, 64
13, 289920, Note_on_c, 12, 35, 43
13, 290016, Note_off_c, 12, 35, 64
13, 290160, Note_on_c, 12, 35, 45
13, 290256, Note_off_c, 12, 35, 64
13, 290400, Note_on_c, 12, 47, 47
13, 290496, Note_off_c, 12, 47, 64
13, 290640, Note_on_c, 12, 47, 49
13, 290736, Note_off_c, 12, 47, 64
13, 290880, Note_on_c, 12, 35, 51
13, 290976, Note_off_c, 12, 35, 64
13, 291120, Note_on_c, 12, 35, 53
13, 291216, Note_off_c, 12, 35, 64
13, 291360, Note_on_c, 12, 47, 54
13, 291456, Note_off_c, 12, 47, 64
13, 291600, Note_on_c, 12, 47, 56
13, 291696, Note_off_c, 12, 47, 64
13, 291840, Note_on_c, 12, 35, 58
13, 291936, Note_off_c, 12, 35, 64
13, 292080, Note_on_c, 12, 35, 60
13, 292176, Note_off_c, 12, 35, 64
13, 292320, Note_on_c, 12, 47, 62
13, 292416, Note_off_c, 12, 47, 64
13, 292560, Note_on_c, 12, 47, 64
13, 292656, Note_off_c, 12, 47, 64
13, 292800, Note_on_c, 12, 35, 66
13, 292896, Note_off_c, 12, 35, 64
13, 293040, Note_on_c, 12, 35, 68
13, 293136, Note_off_c, 12, 35, 64
13, 293280, Note_on_c, 12, 47, 69
13, 293376, Note_off_c, 12, 47, 64
13, 293520, Note_on_c, 12, 47, 71
13, 293616, Note_off_c, 12, 47, 64
13, 293760, Note_on_c, 12, 35, 73
13, 293856, Note_off_c, 12, 35, 64
13, 294000, Note_on_c, 12, 35, 94
13, 294096, Note_off_c, 12, 35, 64
13, 294240, Note_on_c, 12, 47, 96
13, 294336, Note_off_c, 12, 47, 64
13, 294480, Note_on_c, 12, 47, 99
13, 294576, Note_off_c, 12, 47, 64
13, 294720, Note_on_c, 12, 35, 101
13, 294816, Note_off_c, 12, 35, 64
13, 294960, Note_on_c, 12, 47, 104
13, 295728, Note_off_c, 12, 47, 64
13, 295920, Note_on_c, 12, 43, 127
13, 296160, Note_off_c, 12, 43, 64
13, 296160, Note_on_c, 12, 45, 127
13, 296280, Note_off_c, 12, 45, 64
13, 296280, Note_on_c, 12, 47, 127
13, 296400, Note_off_c, 12, 47, 64
13, 296400, Note_on_c, 12, 48, 127
13, 296496, Note_off_c, 12, 48, 64
13, 296640, Note_on_c, 12, 48, 127
13, 296736, Note_off_c, 12, 48, 64
13, 296880, Note_on_c, 12, 42, 127
13, 297120, Note_off_c, 12, 42, 64
13, 297120, Note_on_c, 12, 43, 127
13, 297240, Note_off_c, 12, 43, 64
13, 297240, Note_on_c, 12, 45, 127
13, 297360, Note_off_c, 12, 45, 64
13, 297360, Note_on_c, 12, 47, 127
13, 297456, Note_off_c, 12, 47, 64
13, 297600, Note_on_c, 12, 35, 127
13, 297696, Note_off_c, 12, 35, 64
13, 297840, Note_on_c, 12, 40, 127
13, 298080, Note_off_c, 12, 40, 64
13, 298080, Note_on_c, 12, 42, 127
13, 298200, Note_off_c, 12, 42, 64
13, 298200, Note_on_c, 12, 43, 127
13, 298320, Note_off_c, 12, 43, 64
13, 298320, Note_on_c, 12, 45, 127
13, 298416, Note_off_c, 12, 45, 64
13, 298560, Note_on_c, 12, 45, 127
13, 298656, Note_off_c, 12, 45, 64
13, 298800, Note_on_c, 12, 38, 127
13, 299040, Note_off_c, 12, 38, 64
13, 299040, Note_on_c, 12, 40, 127
13, 299160, Note_off_c, 12, 40, 64
13, 299160, Note_on_c, 12, 42, 127
13, 299280, Note_off_c, 12, 42, 64
13, 299280, Note_on_c, 12, 43, 127
13, 299376, Note_off_c, 12, 43, 64
13, 299520, Note_on_c, 12, 31, 127
13, 299616, Note_off_c, 12, 31, 64
13, 299760, Note_on_c, 12, 36, 127
13, 300000, Note_off_c, 12, 36, 64
13, 300000, Note_on_c, 12, 38, 127
13, 300120, Note_off_c, 12, 38, 64
13, 300120, Note_on_c, 12, 40, 127
13, 300240, Note_off_c, 12, 40, 64
13, 300240, Note_on_c, 12, 42, 127
13, 300336, Note_off_c, 12, 42, 64
13, 300480, Note_on_c, 12, 30, 127
13, 300576, Note_off_c, 12, 30, 64
13, 300720, Note_on_c, 12, 35, 112
13, 300816, Note_off_c, 12, 35, 64
13, 300840, Note_on_c, 12, 47, 112
13, 300936, Note_off_c, 12, 47, 64
13, 300960, Note_on_c, 12, 49, 112
13, 301056, Note_off_c, 12, 49, 64
13, 301080, Note_on_c, 12, 51, 112
13, 301176, Note_off_c, 12, 51, 64
13, 301200, Note_on_c, 12, 52, 112
13, 301440, Note_off_c, 12, 52, 64
13, 301440, Note_on_c, 12, 54, 112
13, 301560, Note_off_c, 12, 54, 64
13, 301560, Note_on_c, 12, 55, 112
13, 301680, Note_off_c, 12, 55, 64
13, 301680, Note_on_c, 12, 57, 127
13, 302064, Note_off_c, 12, 57, 64
13, 302160, Note_on_c, 12, 55, 127
13, 302544, Note_off_c, 12, 55, 64
13, 302640, Note_on_c, 12, 47, 127
13, 302736, Note_off_c, 12, 47, 64
13, 302760, Note_on_c, 12, 35, 127
13, 302856, Note_off_c, 12, 35, 64
13, 302880, Note_on_c, 12, 37, 127
13, 302976, Note_off_c, 12, 37, 64
13, 303000, Note_on_c, 12, 39, 127
13, 303096, Note_off_c, 12, 39, 64
13, 303120, Note_on_c, 12, 40, 127
13, 303216, Note_off_c, 12, 40, 64
13, 303240, Note_on_c, 12, 40, 127
13, 303336, Note_off_c, 12, 40, 64
13, 303360, Note_on_c, 12, 42, 127
13, 303456, Note_off_c, 12, 42, 64
13, 303480, Note_on_c, 12, 43, 127
13, 303576, Note_off_c, 12, 43, 64
13, 303600, Note_on_c, 12, 45, 127
13, 303984, Note_off_c, 12, 45, 64
13, 304080, Note_on_c, 12, 43, 127
13, 304464, Note_off_c, 12, 43, 64
13, 304560, Note_on_c, 12, 42, 127
13, 304944, Note_off_c, 12, 42, 64
13, 305040, Note_on_c, 12, 40, 127
13, 305424, Note_off_c, 12, 40, 64
13, 305520, Note_on_c, 12, 39, 127
13, 305904, Note_off_c, 12, 39, 64
13, 306000, Note_on_c, 12, 40, 127
13, 306488, Note_off_c, 12, 40, 64
13, 306540, Note_on_c, 12, 47, 102
13, 307028, Note_off_c, 12, 47, 64
13, 307080, Note_on_c, 12, 35, 102
13, 307572, Note_off_c, 12, 35, 64
13, 307680, Note_on_c, 12, 36, 127
13, 308064, Note_off_c, 12, 36, 64
13, 308640, Note_on_c, 12, 31, 127
13, 308880, Note_off_c, 12, 31, 64
13, 308880, Note_on_c, 12, 33, 127
13, 309000, Note_off_c, 12, 33, 64
13, 309000, Note_on_c, 12, 35, 127
13, 309120, Note_off_c, 12, 35, 64
13, 309120, Note_on_c, 12, 36, 127
13, 309216, Note_off_c, 12, 36, 64
13, 309360, Note_on_c, 12, 36, 127
13, 309456, Note_off_c, 12, 36, 64
13, 309600, Note_on_c, 12, 36, 127
13, 309984, Note_off_c, 12, 36, 64
13, 310560, Note_on_c, 12, 31, 127
13, 310800, Note_off_c, 12, 31, 64
13, 310800, Note_on_c, 12, 33, 127
13, 310920, Note_off_c, 12, 33, 64
13, 310920, Note_on_c, 12, 35, 127
13, 311040, Note_off_c, 12, 35, 64
13, 311040, Note_on_c, 12, 36, 127
13, 311136, Note_off_c, 12, 36, 64
13, 311280, Note_on_c, 12, 36, 127
13, 311376, Note_off_c, 12, 36, 64
13, 311520, Note_on_c, 12, 36, 127
13, 311904, Note_off_c, 12, 36, 64
13, 312480, Note_on_c, 12, 31, 127
13, 312720, Note_off_c, 12, 31, 64
13, 312720, Note_on_c, 12, 33, 127
13, 312840, Note_off_c, 12, 33, 64
13, 312840, Note_on_c, 12, 35, 127
13, 312960, Note_off_c, 12, 35, 64
13, 312960, Note_on_c, 12, 36, 127
13, 313056, Note_off_c, 12, 36, 64
13, 313200, Note_on_c, 12, 36, 127
13, 313296, Note_off_c, 12, 36, 64
13, 313440, Note_on_c, 12, 36, 127
13, 313824, Note_off_c, 12, 36, 64
13, 313920, Note_on_c, 12, 36, 127
13, 314304, Note_off_c, 12, 36, 64
13, 314400, Note_on_c, 12, 35, 127
13, 314784, Note_off_c, 12, 35, 64
13, 314880, Note_on_c, 12, 35, 127
13, 315264, Note_off_c, 12, 35, 64
13, 315360, Note_on_c, 12, 36, 127
13, 315744, Note_off_c, 12, 36, 64
13, 316320, Note_on_c, 12, 31, 127
13, 316560, Note_off_c, 12, 31, 64
13, 316560, Note_on_c, 12, 33, 127
13, 316680, Note_off_c, 12, 33, 64
13, 316680, Note_on_c, 12, 35, 127
13, 316800, Note_off_c, 12, 35, 64
13, 316800, Note_on_c, 12, 36, 127
13, 316896, Note_off_c, 12, 36, 64
13, 317040, Note_on_c, 12, 36, 127
13, 317136, Note_off_c, 12, 36, 64
13, 317280, Note_on_c, 12, 36, 127
13, 317664, Note_off_c, 12, 36, 64
13, 318240, Note_on_c, 12, 31, 127
13, 318480, Note_off_c, 12, 31, 64
13, 318480, Note_on_c, 12, 33, 127
13, 318600, Note_off_c, 12, 33, 64
13, 318600, Note_on_c, 12, 35, 127
13, 318720, Note_off_c, 12, 35, 64
13, 318720, Note_on_c, 12, 36, 127
13, 318816, Note_off_c, 12, 36, 64
13, 318960, Note_on_c, 12, 36, 127
13, 319056, Note_off_c, 12, 36, 64
13, 319200, Note_on_c, 12, 36, 127
13, 319584, Note_off_c, 12, 36, 64
13, 320160, Note_on_c, 12, 31, 127
13, 320400, Note_off_c, 12, 31, 64
13, 320400, Note_on_c, 12, 33, 127
13, 320520, Note_off_c, 12, 33, 64
13, 320520, Note_on_c, 12, 35, 127
13, 320640, Note_off_c, 12, 35, 64
13, 320640, Note_on_c, 12, 36, 127
13, 320736, Note_off_c, 12, 36, 64
13, 320880, Note_on_c, 12, 36, 127
13, 320976, Note_off_c, 12, 36, 64
13, 321120, Note_on_c, 12, 36, 127
13, 321504, Note_off_c, 12, 36, 64
13, 321600, Note_on_c, 12, 36, 127
13, 321984, Note_off_c, 12, 36, 64
13, 322080, Note_on_c, 12, 35, 127
13, 322464, Note_off_c, 12, 35, 64
13, 322560, Note_on_c, 12, 35, 127
13, 322944, Note_off_c, 12, 35, 64
13, 323040, Note_on_c, 12, 40, 127
13, 323232, Note_off_c, 12, 40, 64
13, 325920, Note_on_c, 12, 35, 104
13, 326016, Note_off_c, 12, 35, 64
13, 326160, Note_on_c, 12, 35, 104
13, 326256, Note_off_c, 12, 35, 64
13, 326400, Note_on_c, 12, 35, 104
13, 326496, Note_off_c, 12, 35, 64
13, 326640, Note_on_c, 12, 35, 104
13, 326736, Note_off_c, 12, 35, 64
13, 326880, Note_on_c, 12, 40, 127
13, 327072, Note_off_c, 12, 40, 64
13, 329760, Note_on_c, 12, 35, 104
13, 329856, Note_off_c, 12, 35, 64
13, 330000, Note_on_c, 12, 35, 104
13, 330096, Note_off_c, 12, 35, 64
13, 330240, Note_on_c, 12, 35, 104
13, 330336, Note_off_c, 12, 35, 64
13, 330480, Note_on_c, 12, 35, 104
13, 330576, Note_off_c, 12, 35, 64
13, 330720, Note_on_c, 12, 40, 78
13, 330912, Note_off_c, 12, 40, 64
13, 331200, Note_on_c, 12, 35, 78
13, 331392, Note_off_c, 12, 35, 64
13, 331680, Note_on_c, 12, 40, 78
13, 331872, Note_off_c, 12, 40, 64
13, 332160, Note_on_c, 12, 35, 78
13, 332352, Note_off_c, 12, 35, 64
13, 332640, Note_on_c, 12, 40, 104
13, 332832, Note_off_c, 12, 40, 64
13, 333120, Note_on_c, 12, 35, 104
13, 333312, Note_off_c, 12, 35, 64
13, 333600, Note_on_c, 12, 40, 104
13, 333792, Note_off_c, 12, 40, 64
13, 334080, Note_on_c, 12, 35, 104
13, 334272, Note_off_c, 12, 35, 64
13, 334560, Note_on_c, 12, 40, 127
13, 334752, Note_off_c, 12, 40, 64
13, 335520, Note_on_c, 12, 40, 127
13, 335712, Note_off_c, 12, 40, 64
13, 336000, Note_on_c, 12, 40, 127
13, 336192, Note_off_c, 12, 40, 64
13, 336480, Note_on_c, 12, 40, 127
13, 336672, Note_off_c, 12, 40, 64
13, 337440, Note_on_c, 12, 40, 127
13, 337632, Note_off_c, 12, 40, 64
13, 351840, Note_on_c, 12, 43, 35
13, 352608, Note_off_c, 12, 43, 64
13, 352800, Note_on_c, 12, 40, 44
13, 353040, Note_off_c, 12, 40, 64
13, 353040, Note_on_c, 12, 41, 47
13, 353160, Note_off_c, 12, 41, 64
13, 353160, Note_on_c, 12, 43, 48
13, 353280, Note_off_c, 12, 43, 64
13, 353280, Note_on_c, 12, 45, 49
13, 353376, Note_off_c, 12, 45, 64
13, 353520, Note_on_c, 12, 45, 51
13, 353616, Note_off_c, 12, 45, 64
13, 353760, Note_on_c, 12, 41, 54
13, 354000, Note_off_c, 12, 41, 64
13, 354000, Note_on_c, 12, 43, 56
13, 354120, Note_off_c, 12, 43, 64
13, 354120, Note_on_c, 12, 45, 57
13, 354240, Note_off_c, 12, 45, 64
13, 354240, Note_on_c, 12, 47, 58
13, 354336, Note_off_c, 12, 47, 64
13, 354480, Note_on_c, 12, 47, 61
13, 354576, Note_off_c, 12, 47, 64
13, 354720, Note_on_c, 12, 43, 63
13, 354960, Note_off_c, 12, 43, 64
13, 354960, Note_on_c, 12, 45, 65
13, 355080, Note_off_c, 12, 45, 64
13, 355080, Note_on_c, 12, 47, 67
13, 355200, Note_off_c, 12, 47, 64
13, 355200, Note_on_c, 12, 48, 68
13, 355296, Note_off_c, 12, 48, 64
13, 355440, Note_on_c, 12, 48, 70
13, 355536, Note_off_c, 12, 48, 64
13, 355680, Note_on_c, 12, 45, 73
13, 355920, Note_off_c, 12, 45, 64
13, 355920, Note_on_c, 12, 47, 75
13, 356040, Note_off_c, 12, 47, 64
13, 356040, Note_on_c, 12, 48, 76
13, 356160, Note_off_c, 12, 48, 64
13, 356160, Note_on_c, 12, 50, 77
13, 356256, Note_off_c, 12, 50, 64
13, 356400, Note_on_c, 12, 50, 80
13, 356496, Note_off_c, 12, 50, 64
13, 356640, Note_on_c, 12, 47, 82
13, 356880, Note_off_c, 12, 47, 64
13, 356880, Note_on_c, 12, 48, 84
13, 357000, Note_off_c, 12, 48, 64
13, 357000, Note_on_c, 12, 50, 85
13, 357120, Note_off_c, 12, 50, 64
13, 357120, Note_on_c, 12, 52, 87
13, 357216, Note_off_c, 12, 52, 64
13, 357360, Note_on_c, 12, 52, 89
13, 357456, Note_off_c, 12, 52, 64
13, 357600, Note_on_c, 12, 48, 91
13, 357840, Note_off_c, 12, 48, 64
13, 357840, Note_on_c, 12, 50, 94
13, 357960, Note_off_c, 12, 50, 64
13, 357960, Note_on_c, 12, 52, 95
13, 358080, Note_off_c, 12, 52, 64
13, 358080, Note_on_c, 12, 53, 96
13, 358176, Note_off_c, 12, 53, 64
13, 358320, Note_on_c, 12, 43, 98
13, 358416, Note_off_c, 12, 43, 64
13, 358560, Note_on_c, 12, 43, 101
13, 358656, Note_off_c, 12, 43, 64
13, 358800, Note_on_c, 12, 43, 103
13, 358896, Note_off_c, 12, 43, 64
13, 359040, Note_on_c, 12, 43, 105
13, 359136, Note_off_c, 12, 43, 64
13, 359280, Note_on_c, 12, 43, 108
13, 359376, Note_off_c, 12, 43, 64
13, 359520, Note_on_c, 12, 31, 127
13, 359616, Note_off_c, 12, 31, 64
13, 359760, Note_on_c, 12, 43, 120
13, 359856, Note_off_c, 12, 43, 64
13, 360000, Note_on_c, 12, 43, 120
13, 360096, Note_off_c, 12, 43, 64
13, 360240, Note_on_c, 12, 31, 120
13, 360336, Note_off_c, 12, 31, 64
13, 360480, Note_on_c, 12, 31, 120
13, 360576, Note_off_c, 12, 31, 64
13, 360720, Note_on_c, 12, 43, 120
13, 360816, Note_off_c, 12, 43, 64
13, 360960, Note_on_c, 12, 43, 120
13, 361056, Note_off_c, 12, 43, 64
13, 361200, Note_on_c, 12, 31, 120
13, 361296, Note_off_c, 12, 31, 64
13, 361440, Note_on_c, 12, 31, 120
13, 361536, Note_off_c, 12, 31, 64
13, 361680, Note_on_c, 12, 43, 120
13, 361776, Note_off_c, 12, 43, 64
13, 361920, Note_on_c, 12, 43, 120
13, 362016, Note_off_c, 12, 43, 64
13, 362160, Note_on_c, 12, 31, 120
13, 362256, Note_off_c, 12, 31, 64
13, 362400, Note_on_c, 12, 31, 120
13, 362496, Note_off_c, 12, 31, 64
13, 362640, Note_on_c, 12, 43, 120
13, 362736, Note_off_c, 12, 43, 64
13, 362880, Note_on_c, 12, 43, 120
13, 362976, Note_off_c, 12, 43, 64
13, 363120, Note_on_c, 12, 31, 120
13, 363216, Note_off_c, 12, 31, 64
13, 363360, Note_on_c, 12, 31, 120
13, 363456, Note_off_c, 12, 31, 64
13, 363600, Note_on_c, 12, 43, 120
13, 363696, Note_off_c, 12, 43, 64
13, 363840, Note_on_c, 12, 43, 120
13, 363936, Note_off_c, 12, 43, 64
13, 364080, Note_on_c, 12, 31, 120
13, 364176, Note_off_c, 12, 31, 64
13, 364320, Note_on_c, 12, 31, 120
13, 364416, Note_off_c, 12, 31, 64
13, 364560, Note_on_c, 12, 43, 120
13, 364656, Note_off_c, 12, 43, 64
13, 364800, Note_on_c, 12, 43, 120
13, 364896, Note_off_c, 12, 43, 64
13, 365040, Note_on_c, 12, 31, 120
13, 365136, Note_off_c, 12, 31, 64
13, 365280, Note_on_c, 12, 31, 120
13, 365376, Note_off_c, 12, 31, 64
13, 365520, Note_on_c, 12, 43, 120
13, 365616, Note_off_c, 12, 43, 64
13, 365760, Note_on_c, 12, 43, 120
13, 365856, Note_off_c, 12, 43, 64
13, 366000, Note_on_c, 12, 31, 120
13, 366096, Note_off_c, 12, 31, 64
13, 366240, Note_on_c, 12, 31, 120
13, 366336, Note_off_c, 12, 31, 64
13, 366480, Note_on_c, 12, 43, 120
13, 366576, Note_off_c, 12, 43, 64
13, 366720, Note_on_c, 12, 43, 120
13, 366816, Note_off_c, 12, 43, 64
13, 366960, Note_on_c, 12, 31, 120
13, 367056, Note_off_c, 12, 31, 64
13, 367200, Note_on_c, 12, 31, 120
13, 367296, Note_off_c, 12, 31, 64
13, 367440, Note_on_c, 12, 43, 120
13, 367536, Note_off_c, 12, 43, 64
13, 367680, Note_on_c, 12, 43, 120
13, 367776, Note_off_c, 12, 43, 64
13, 367920, Note_on_c, 12, 31, 120
13, 368016, Note_off_c, 12, 31, 64
13, 368160, Note_on_c, 12, 31, 120
13, 368256, Note_off_c, 12, 31, 64
13, 368400, Note_on_c, 12, 43, 120
13, 368496, Note_off_c, 12, 43, 64
13, 368640, Note_on_c, 12, 43, 120
13, 368736, Note_off_c, 12, 43, 64
13, 368880, Note_on_c, 12, 31, 120
13, 368976, Note_off_c, 12, 31, 64
13, 369120, Note_on_c, 12, 31, 120
13, 369216, Note_off_c, 12, 31, 64
13, 369360, Note_on_c, 12, 43, 120
13, 369456, Note_off_c, 12, 43, 64
13, 369600, Note_on_c, 12, 31, 120
13, 369696, Note_off_c, 12, 31, 64
13, 369840, Note_on_c, 12, 31, 120
13, 369936, Note_off_c, 12, 31, 64
13, 370080, Note_on_c, 12, 31, 120
13, 370176, Note_off_c, 12, 31, 64
13, 370320, Note_on_c, 12, 43, 120
13, 370416, Note_off_c, 12, 43, 64
13, 370560, Note_on_c, 12, 31, 120
13, 370656, Note_off_c, 12, 31, 64
13, 370800, Note_on_c, 12, 31, 120
13, 370896, Note_off_c, 12, 31, 64
13, 371040, Note_on_c, 12, 31, 120
13, 371136, Note_off_c, 12, 31, 64
13, 371280, Note_on_c, 12, 43, 120
13, 371376, Note_off_c, 12, 43, 64
13, 371520, Note_on_c, 12, 31, 120
13, 371616, Note_off_c, 12, 31, 64
13, 371760, Note_on_c, 12, 31, 120
13, 371856, Note_off_c, 12, 31, 64
13, 372000, Note_on_c, 12, 31, 120
13, 372096, Note_off_c, 12, 31, 64
13, 372240, Note_on_c, 12, 43, 120
13, 372336, Note_off_c, 12, 43, 64
13, 372480, Note_on_c, 12, 31, 120
13, 372576, Note_off_c, 12, 31, 64
13, 372720, Note_on_c, 12, 31, 120
13, 372816, Note_off_c, 12, 31, 64
13, 372960, Note_on_c, 12, 31, 120
13, 373056, Note_off_c, 12, 31, 64
13, 373200, Note_on_c, 12, 43, 120
13, 373296, Note_off_c, 12, 43, 64
13, 373440, Note_on_c, 12, 31, 120
13, 373536, Note_off_c, 12, 31, 64
13, 373680, Note_on_c, 12, 31, 120
13, 373776, Note_off_c, 12, 31, 64
13, 373920, Note_on_c, 12, 31, 120
13, 374016, Note_off_c, 12, 31, 64
13, 374160, Note_on_c, 12, 43, 120
13, 374256, Note_off_c, 12, 43, 64
13, 374400, Note_on_c, 12, 31, 120
13, 374496, Note_off_c, 12, 31, 64
13, 374640, Note_on_c, 12, 31, 120
13, 374736, Note_off_c, 12, 31, 64
13, 374880, Note_on_c, 12, 31, 120
13, 374976, Note_off_c, 12, 31, 64
13, 375120, Note_on_c, 12, 43, 120
13, 375216, Note_off_c, 12, 43, 64
13, 375360, Note_on_c, 12, 31, 120
13, 375456, Note_off_c, 12, 31, 64
13, 375600, Note_on_c, 12, 31, 120
13, 375696, Note_off_c, 12, 31, 64
13, 375840, Note_on_c, 12, 31, 120
13, 375936, Note_off_c, 12, 31, 64
13, 376080, Note_on_c, 12, 43, 120
13, 376176, Note_off_c, 12, 43, 64
13, 376320, Note_on_c, 12, 31, 120
13, 376416, Note_off_c, 12, 31, 64
13, 376560, Note_on_c, 12, 31, 120
13, 376656, Note_off_c, 12, 31, 64
13, 376800, Note_on_c, 12, 31, 120
13, 376896, Note_off_c, 12, 31, 64
13, 377040, Note_on_c, 12, 43, 120
13, 377136, Note_off_c, 12, 43, 64
13, 377280, Note_on_c, 12, 31, 120
13, 377376, Note_off_c, 12, 31, 64
13, 377520, Note_on_c, 12, 31, 120
13, 377616, Note_off_c, 12, 31, 64
13, 377760, Note_on_c, 12, 31, 120
13, 377856, Note_off_c, 12, 31, 64
13, 378000, Note_on_c, 12, 43, 120
13, 378096, Note_off_c, 12, 43, 64
13, 378240, Note_on_c, 12, 31, 120
13, 378336, Note_off_c, 12, 31, 64
13, 378480, Note_on_c, 12, 31, 120
13, 378576, Note_off_c, 12, 31, 64
13, 378720, Note_on_c, 12, 31, 120
13, 378816, Note_off_c, 12, 31, 64
13, 378960, Note_on_c, 12, 43, 120
13, 379056, Note_off_c, 12, 43, 64
13, 379200, Note_on_c, 12, 31, 120
13, 379296, Note_off_c, 12, 31, 64
13, 379440, Note_on_c, 12, 31, 120
13, 379536, Note_off_c, 12, 31, 64
13, 379680, Note_on_c, 12, 31, 120
13, 379776, Note_off_c, 12, 31, 64
13, 379920, Note_on_c, 12, 43, 120
13, 380016, Note_off_c, 12, 43, 64
13, 380160, Note_on_c, 12, 31, 120
13, 380256, Note_off_c, 12, 31, 64
13, 380400, Note_on_c, 12, 31, 120
13, 380496, Note_off_c, 12, 31, 64
13, 380640, Note_on_c, 12, 31, 120
13, 380736, Note_off_c, 12, 31, 64
13, 380880, Note_on_c, 12, 43, 120
13, 380976, Note_off_c, 12, 43, 64
13, 381120, Note_on_c, 12, 31, 120
13, 381216, Note_off_c, 12, 31, 64
13, 381360, Note_on_c, 12, 31, 120
13, 381456, Note_off_c, 12, 31, 64
13, 381600, Note_on_c, 12, 31, 120
13, 381696, Note_off_c, 12, 31, 64
13, 381840, Note_on_c, 12, 43, 120
13, 381936, Note_off_c, 12, 43, 64
13, 382080, Note_on_c, 12, 31, 120
13, 382176, Note_off_c, 12, 31, 64
13, 382320, Note_on_c, 12, 31, 120
13, 382416, Note_off_c, 12, 31, 64
13, 382560, Note_on_c, 12, 31, 120
13, 382656, Note_off_c, 12, 31, 64
13, 382800, Note_on_c, 12, 43, 120
13, 382896, Note_off_c, 12, 43, 64
13, 383040, Note_on_c, 12, 31, 120
13, 383136, Note_off_c, 12, 31, 64
13, 383280, Note_on_c, 12, 31, 120
13, 383376, Note_off_c, 12, 31, 64
13, 383520, Note_on_c, 12, 31, 120
13, 383616, Note_off_c, 12, 31, 64
13, 383760, Note_on_c, 12, 43, 120
13, 383856, Note_off_c, 12, 43, 64
13, 384000, Note_on_c, 12, 31, 120
13, 384096, Note_off_c, 12, 31, 64
13, 384240, Note_on_c, 12, 31, 120
13, 384336, Note_off_c, 12, 31, 64
13, 384480, Note_on_c, 12, 31, 120
13, 384576, Note_off_c, 12, 31, 64
13, 384720, Note_on_c, 12, 43, 120
13, 384816, Note_off_c, 12, 43, 64
13, 384960, Note_on_c, 12, 31, 120
13, 385056, Note_off_c, 12, 31, 64
13, 385200, Note_on_c, 12, 31, 120
13, 385296, Note_off_c, 12, 31, 64
13, 385440, Note_on_c, 12, 31, 120
13, 385536, Note_off_c, 12, 31, 64
13, 385680, Note_on_c, 12, 43, 120
13, 385776, Note_off_c, 12, 43, 64
13, 385920, Note_on_c, 12, 31, 120
13, 386016, Note_off_c, 12, 31, 64
13, 386160, Note_on_c, 12, 31, 120
13, 386256, Note_off_c, 12, 31, 64
13, 386400, Note_on_c, 12, 31, 120
13, 386496, Note_off_c, 12, 31, 64
13, 386640, Note_on_c, 12, 43, 120
13, 386736, Note_off_c, 12, 43, 64
13, 386880, Note_on_c, 12, 31, 120
13, 386976, Note_off_c, 12, 31, 64
13, 387120, Note_on_c, 12, 31, 120
13, 387216, Note_off_c, 12, 31, 64
13, 387360, Note_on_c, 12, 31, 120
13, 387456, Note_off_c, 12, 31, 64
13, 387600, Note_on_c, 12, 43, 120
13, 387696, Note_off_c, 12, 43, 64
13, 387840, Note_on_c, 12, 31, 120
13, 387936, Note_off_c, 12, 31, 64
13, 388080, Note_on_c, 12, 31, 120
13, 388176, Note_off_c, 12, 31, 64
13, 388320, Note_on_c, 12, 31, 127
13, 388512, Note_off_c, 12, 31, 64
13, 388800, Note_on_c, 12, 31, 127
13, 392256, Note_off_c, 12, 31, 64
13, 393600, Note_on_c, 12, 33, 127
13, 397536, Note_off_c, 12, 33, 64
13, 398880, Note_on_c, 12, 35, 127
13, 399072, Note_off_c, 12, 35, 64
13, 399840, Note_on_c, 12, 36, 127
13, 400032, Note_off_c, 12, 36, 64
13, 400800, Note_on_c, 12, 31, 61
13, 402720, Note_off_c, 12, 31, 64
13, 402720, Note_on_c, 12, 46, 40
13, 402960, Note_off_c, 12, 46, 64
13, 402960, Note_on_c, 12, 45, 40
13, 403080, Note_off_c, 12, 45, 64
13, 403080, Note_on_c, 12, 46, 40
13, 403200, Note_off_c, 12, 46, 64
13, 403200, Note_on_c, 12, 48, 40
13, 403296, Note_off_c, 12, 48, 64
13, 403440, Note_on_c, 12, 46, 40
13, 403536, Note_off_c, 12, 46, 64
13, 403680, Note_on_c, 12, 45, 40
13, 404064, Note_off_c, 12, 45, 64
13, 404640, Note_on_c, 12, 46, 40
13, 404880, Note_off_c, 12, 46, 64
13, 404880, Note_on_c, 12, 45, 40
13, 405000, Note_off_c, 12, 45, 64
13, 405000, Note_on_c, 12, 46, 40
13, 405120, Note_off_c, 12, 46, 64
13, 405120, Note_on_c, 12, 48, 40
13, 405216, Note_off_c, 12, 48, 64
13, 405360, Note_on_c, 12, 46, 40
13, 405456, Note_off_c, 12, 46, 64
13, 405600, Note_on_c, 12, 45, 40
13, 405984, Note_off_c, 12, 45, 64
13, 406560, Note_on_c, 12, 43, 32
13, 406752, Note_off_c, 12, 43, 64
13, 407520, Note_on_c, 12, 36, 32
13, 407712, Note_off_c, 12, 36, 64
13, 408480, Note_on_c, 12, 31, 32
13, 408672, Note_off_c, 12, 31, 64
13, 408960, Note_on_c, 12, 43, 32
13, 409152, Note_off_c, 12, 43, 64
13, 409440, Note_on_c, 12, 46, 32
13, 410496, Note_off_c, 12, 46, 64
13, 410640, Note_on_c, 12, 36, 40
13, 410736, Note_off_c, 12, 36, 64
13, 410880, Note_on_c, 12, 36, 40
13, 411120, Note_off_c, 12, 36, 64
13, 411120, Note_on_c, 12, 38, 40
13, 411240, Note_off_c, 12, 38, 64
13, 411240, Note_on_c, 12, 40, 40
13, 411360, Note_off_c, 12, 40, 64
13, 411360, Note_on_c, 12, 41, 40
13, 411840, Note_off_c, 12, 41, 64
13, 412320, Note_on_c, 12, 48, 40
13, 412416, Note_off_c, 12, 48, 64
13, 412560, Note_on_c, 12, 36, 40
13, 412656, Note_off_c, 12, 36, 64
13, 412800, Note_on_c, 12, 36, 40
13, 413040, Note_off_c, 12, 36, 64
13, 413040, Note_on_c, 12, 38, 40
13, 413160, Note_off_c, 12, 38, 64
13, 413160, Note_on_c, 12, 40, 40
13, 413280, Note_off_c, 12, 40, 64
13, 413280, Note_on_c, 12, 41, 40
13, 413760, Note_off_c, 12, 41, 64
13, 414240, Note_on_c, 12, 31, 24
13, 414480, Note_off_c, 12, 31, 64
13, 414480, Note_on_c, 12, 30, 24
13, 414600, Note_off_c, 12, 30, 64
13, 414600, Note_on_c, 12, 31, 24
13, 414720, Note_off_c, 12, 31, 64
13, 414720, Note_on_c, 12, 33, 24
13, 414816, Note_off_c, 12, 33, 64
13, 414960, Note_on_c, 12, 31, 24
13, 415056, Note_off_c, 12, 31, 64
13, 415200, Note_on_c, 12, 43, 24
13, 415776, Note_off_c, 12, 43, 64
13, 416160, Note_on_c, 12, 32, 24
13, 416400, Note_off_c, 12, 32, 64
13, 416400, Note_on_c, 12, 31, 24
13, 416520, Note_off_c, 12, 31, 64
13, 416520, Note_on_c, 12, 32, 24
13, 416640, Note_off_c, 12, 32, 64
13, 416640, Note_on_c, 12, 34, 24
13, 416736, Note_off_c, 12, 34, 64
13, 416880, Note_on_c, 12, 32, 24
13, 416976, Note_off_c, 12, 32, 64
13, 417120, Note_on_c, 12, 44, 24
13, 417696, Note_off_c, 12, 44, 64
13, 418080, Note_on_c, 12, 32, 24
13, 418320, Note_off_c, 12, 32, 64
13, 418320, Note_on_c, 12, 31, 24
13, 418440, Note_off_c, 12, 31, 64
13, 418440, Note_on_c, 12, 32, 24
13, 418560, Note_off_c, 12, 32, 64
13, 418560, Note_on_c, 12, 34, 24
13, 418656, Note_off_c, 12, 34, 64
13, 418800, Note_on_c, 12, 32, 24
13, 418896, Note_off_c, 12, 32, 64
13, 419040, Note_on_c, 12, 44, 24
13, 419616, Note_off_c, 12, 44, 64
13, 420000, Note_on_c, 12, 32, 24
13, 420240, Note_off_c, 12, 32, 64
13, 420240, Note_on_c, 12, 31, 24
13, 420360, Note_off_c, 12, 31, 64
13, 420360, Note_on_c, 12, 32, 24
13, 420480, Note_off_c, 12, 32, 64
13, 420480, Note_on_c, 12, 34, 24
13, 420576, Note_off_c, 12, 34, 64
13, 420720, Note_on_c, 12, 32, 24
13, 420816, Note_off_c, 12, 32, 64
13, 420960, Note_on_c, 12, 44, 24
13, 421536, Note_off_c, 12, 44, 64
13, 421920, Note_on_c, 12, 32, 29
13, 422160, Note_off_c, 12, 32, 64
13, 422160, Note_on_c, 12, 31, 29
13, 422280, Note_off_c, 12, 31, 64
13, 422280, Note_on_c, 12, 32, 29
13, 422400, Note_off_c, 12, 32, 64
13, 422400, Note_on_c, 12, 34, 29
13, 422496, Note_off_c, 12, 34, 64
13, 422640, Note_on_c, 12, 32, 29
13, 422736, Note_off_c, 12, 32, 64
13, 422880, Note_on_c, 12, 44, 29
13, 423456, Note_off_c, 12, 44, 64
13, 423840, Note_on_c, 12, 32, 29
13, 424080, Note_off_c, 12, 32, 64
13, 424080, Note_on_c, 12, 31, 29
13, 424200, Note_off_c, 12, 31, 64
13, 424200, Note_on_c, 12, 32, 29
13, 424320, Note_off_c, 12, 32, 64
13, 424320, Note_on_c, 12, 34, 29
13, 424416, Note_off_c, 12, 34, 64
13, 424560, Note_on_c, 12, 32, 29
13, 424656, Note_off_c, 12, 32, 64
13, 424800, Note_on_c, 12, 44, 29
13, 425376, Note_off_c, 12, 44, 64
13, 425760, Note_on_c, 12, 32, 29
13, 426000, Note_off_c, 12, 32, 64
13, 426000, Note_on_c, 12, 31, 29
13, 426120, Note_off_c, 12, 31, 64
13, 426120, Note_on_c, 12, 32, 29
13, 426240, Note_off_c, 12, 32, 64
13, 426240, Note_on_c, 12, 34, 29
13, 426336, Note_off_c, 12, 34, 64
13, 426480, Note_on_c, 12, 32, 29
13, 426576, Note_off_c, 12, 32, 64
13, 426720, Note_on_c, 12, 44, 29
13, 427296, Note_off_c, 12, 44, 64
13, 427680, Note_on_c, 12, 32, 29
13, 427920, Note_off_c, 12, 32, 64
13, 427920, Note_on_c, 12, 31, 29
13, 428040, Note_off_c, 12, 31, 64
13, 428040, Note_on_c, 12, 32, 29
13, 428160, Note_off_c, 12, 32, 64
13, 428160, Note_on_c, 12, 34, 29
13, 428256, Note_off_c, 12, 34, 64
13, 428400, Note_on_c, 12, 32, 29
13, 428496, Note_off_c, 12, 32, 64
13, 428640, Note_on_c, 12, 44, 35
13, 429216, Note_off_c, 12, 44, 64
13, 429600, Note_on_c, 12, 32, 42
13, 431520, Note_off_c, 12, 32, 64
13, 431520, Note_on_c, 12, 31, 55
13, 433440, Note_off_c, 12, 31, 64
13, 433440, Note_on_c, 12, 36, 120
13, 433536, Note_off_c, 12, 36, 64
13, 433680, Note_on_c, 12, 36, 120
13, 433776, Note_off_c, 12, 36, 64
13, 433920, Note_on_c, 12, 36, 120
13, 434016, Note_off_c, 12, 36, 64
13, 434400, Note_on_c, 12, 31, 120
13, 434496, Note_off_c, 12, 31, 64
13, 434640, Note_on_c, 12, 31, 120
13, 434736, Note_off_c, 12, 31, 64
13, 434880, Note_on_c, 12, 31, 120
13, 434976, Note_off_c, 12, 31, 64
13, 435360, Note_on_c, 12, 36, 120
13, 435456, Note_off_c, 12, 36, 64
13, 435600, Note_on_c, 12, 36, 120
13, 435696, Note_off_c, 12, 36, 64
13, 435840, Note_on_c, 12, 36, 120
13, 435936, Note_off_c, 12, 36, 64
13, 436320, Note_on_c, 12, 31, 120
13, 436416, Note_off_c, 12, 31, 64
13, 436560, Note_on_c, 12, 31, 120
13, 436656, Note_off_c, 12, 31, 64
13, 436800, Note_on_c, 12, 31, 120
13, 436896, Note_off_c, 12, 31, 64
13, 437280, Note_on_c, 12, 36, 124
13, 437376, Note_off_c, 12, 36, 64
13, 437520, Note_on_c, 12, 48, 124
13, 437616, Note_off_c, 12, 48, 64
13, 437760, Note_on_c, 12, 33, 124
13, 437856, Note_off_c, 12, 33, 64
13, 438000, Note_on_c, 12, 45, 124
13, 438096, Note_off_c, 12, 45, 64
13, 438240, Note_on_c, 12, 35, 124
13, 438336, Note_off_c, 12, 35, 64
13, 438480, Note_on_c, 12, 47, 124
13, 438576, Note_off_c, 12, 47, 64
13, 438720, Note_on_c, 12, 32, 124
13, 438816, Note_off_c, 12, 32, 64
13, 438960, Note_on_c, 12, 44, 124
13, 439056, Note_off_c, 12, 44, 64
13, 439200, Note_on_c, 12, 33, 124
13, 439296, Note_off_c, 12, 33, 64
13, 439440, Note_on_c, 12, 45, 124
13, 439536, Note_off_c, 12, 45, 64
13, 439680, Note_on_c, 12, 42, 124
13, 439776, Note_off_c, 12, 42, 64
13, 439920, Note_on_c, 12, 42, 124
13, 440016, Note_off_c, 12, 42, 64
13, 440160, Note_on_c, 12, 43, 124
13, 440256, Note_off_c, 12, 43, 64
13, 440400, Note_on_c, 12, 31, 124
13, 440496, Note_off_c, 12, 31, 64
13, 440640, Note_on_c, 12, 40, 124
13, 440736, Note_off_c, 12, 40, 64
13, 440880, Note_on_c, 12, 40, 124
13, 440976, Note_off_c, 12, 40, 64
13, 441120, Note_on_c, 12, 41, 124
13, 441216, Note_off_c, 12, 41, 64
13, 441360, Note_on_c, 12, 53, 124
13, 441456, Note_off_c, 12, 53, 64
13, 441600, Note_on_c, 12, 38, 124
13, 441696, Note_off_c, 12, 38, 64
13, 441840, Note_on_c, 12, 50, 124
13, 441936, Note_off_c, 12, 50, 64
13, 442080, Note_on_c, 12, 40, 124
13, 442176, Note_off_c, 12, 40, 64
13, 442320, Note_on_c, 12, 52, 124
13, 442416, Note_off_c, 12, 52, 64
13, 442560, Note_on_c, 12, 37, 124
13, 442656, Note_off_c, 12, 37, 64
13, 442800, Note_on_c, 12, 49, 124
13, 442896, Note_off_c, 12, 49, 64
13, 443040, Note_on_c, 12, 50, 124
13, 443136, Note_off_c, 12, 50, 64
13, 443280, Note_on_c, 12, 47, 124
13, 443376, Note_off_c, 12, 47, 64
13, 443520, Note_on_c, 12, 48, 124
13, 443616, Note_off_c, 12, 48, 64
13, 443760, Note_on_c, 12, 36, 124
13, 443856, Note_off_c, 12, 36, 64
13, 444000, Note_on_c, 12, 43, 124
13, 444096, Note_off_c, 12, 43, 64
13, 444240, Note_on_c, 12, 31, 124
13, 444336, Note_off_c, 12, 31, 64
13, 444480, Note_on_c, 12, 40, 124
13, 444576, Note_off_c, 12, 40, 64
13, 444720, Note_on_c, 12, 40, 124
13, 444816, Note_off_c, 12, 40, 64
13, 444960, Note_on_c, 12, 41, 100
13, 445056, Note_off_c, 12, 41, 64
13, 445200, Note_on_c, 12, 40, 100
13, 445296, Note_off_c, 12, 40, 64
13, 445440, Note_on_c, 12, 41, 100
13, 445536, Note_off_c, 12, 41, 64
13, 445680, Note_on_c, 12, 40, 100
13, 445776, Note_off_c, 12, 40, 64
13, 445920, Note_on_c, 12, 41, 100
13, 446016, Note_off_c, 12, 41, 64
13, 446160, Note_on_c, 12, 40, 100
13, 446256, Note_off_c, 12, 40, 64
13, 446640, Note_on_c, 12, 41, 100
13, 446736, Note_off_c, 12, 41, 64
13, 446880, Note_on_c, 12, 43, 100
13, 446976, Note_off_c, 12, 43, 64
13, 447120, Note_on_c, 12, 41, 100
13, 447216, Note_off_c, 12, 41, 64
13, 447360, Note_on_c, 12, 43, 100
13, 447456, Note_off_c, 12, 43, 64
13, 447600, Note_on_c, 12, 41, 100
13, 447696, Note_off_c, 12, 41, 64
13, 447840, Note_on_c, 12, 43, 100
13, 447936, Note_off_c, 12, 43, 64
13, 448080, Note_on_c, 12, 41, 100
13, 448176, Note_off_c, 12, 41, 64
13, 448560, Note_on_c, 12, 43, 100
13, 448656, Note_off_c, 12, 43, 64
13, 448800, Note_on_c, 12, 45, 100
13, 448896, Note_off_c, 12, 45, 64
13, 449040, Note_on_c, 12, 43, 100
13, 449136, Note_off_c, 12, 43, 64
13, 449280, Note_on_c, 12, 45, 100
13, 449376, Note_off_c, 12, 45, 64
13, 449520, Note_on_c, 12, 43, 100
13, 449616, Note_off_c, 12, 43, 64
13, 449760, Note_on_c, 12, 45, 100
13, 449856, Note_off_c, 12, 45, 64
13, 450000, Note_on_c, 12, 43, 100
13, 450096, Note_off_c, 12, 43, 64
13, 450240, Note_on_c, 12, 45, 100
13, 450336, Note_off_c, 12, 45, 64
13, 450480, Note_on_c, 12, 44, 100
13, 450576, Note_off_c, 12, 44, 64
13, 450720, Note_on_c, 12, 43, 102
13, 450912, Note_off_c, 12, 43, 64
13, 451200, Note_on_c, 12, 42, 122
13, 451392, Note_off_c, 12, 42, 64
13, 451680, Note_on_c, 12, 43, 102
13, 451872, Note_off_c, 12, 43, 64
13, 452160, Note_on_c, 12, 31, 122
13, 452352, Note_off_c, 12, 31, 64
13, 471360, Note_on_c, 12, 29, 80
13, 471456, Note_off_c, 12, 29, 64
13, 471480, Note_on_c, 12, 29, 80
13, 471576, Note_off_c, 12, 29, 64
13, 471600, Note_on_c, 12, 29, 80
13, 471696, Note_off_c, 12, 29, 64
13, 471720, Note_on_c, 12, 29, 80
13, 471816, Note_off_c, 12, 29, 64
13, 471840, Note_on_c, 12, 29, 80
13, 471936, Note_off_c, 12, 29, 64
13, 471960, Note_on_c, 12, 29, 80
13, 472056, Note_off_c, 12, 29, 64
13, 472080, Note_on_c, 12, 29, 80
13, 472176, Note_off_c, 12, 29, 64
13, 472200, Note_on_c, 12, 29, 80
13, 472296, Note_off_c, 12, 29, 64
13, 472320, Note_on_c, 12, 29, 80
13, 472416, Note_off_c, 12, 29, 64
13, 472440, Note_on_c, 12, 29, 80
13, 472536, Note_off_c, 12, 29, 64
13, 472560, Note_on_c, 12, 29, 80
13, 472656, Note_off_c, 12, 29, 64
13, 472680, Note_on_c, 12, 29, 80
13, 472776, Note_off_c, 12, 29, 64
13, 472800, Note_on_c, 12, 29, 80
13, 472896, Note_off_c, 12, 29, 64
13, 472920, Note_on_c, 12, 29, 80
13, 473016, Note_off_c, 12, 29, 64
13, 473040, Note_on_c, 12, 29, 80
13, 473136, Note_off_c, 12, 29, 64
13, 473160, Note_on_c, 12, 29, 80
13, 473256, Note_off_c, 12, 29, 64
13, 473280, Note_on_c, 12, 29, 80
13, 473376, Note_off_c, 12, 29, 64
13, 473400, Note_on_c, 12, 29, 80
13, 473496, Note_off_c, 12, 29, 64
13, 473520, Note_on_c, 12, 29, 80
13, 473616, Note_off_c, 12, 29, 64
13, 473640, Note_on_c, 12, 29, 80
13, 473736, Note_off_c, 12, 29, 64
13, 477600, Note_on_c, 12, 29, 99
13, 477696, Note_off_c, 12, 29, 64
13, 477720, Note_on_c, 12, 29, 99
13, 477816, Note_off_c, 12, 29, 64
13, 477840, Note_on_c, 12, 29, 99
13, 477936, Note_off_c, 12, 29, 64
13, 477960, Note_on_c, 12, 29, 99
13, 478056, Note_off_c, 12, 29, 64
13, 478080, Note_on_c, 12, 29, 99
13, 478176, Note_off_c, 12, 29, 64
13, 478200, Note_on_c, 12, 29, 99
13, 478296, Note_off_c, 12, 29, 64
13, 478320, Note_on_c, 12, 29, 99
13, 478416, Note_off_c, 12, 29, 64
13, 478440, Note_on_c, 12, 29, 99
13, 478536, Note_off_c, 12, 29, 64
13, 478560, Note_on_c, 12, 29, 124
13, 478656, Note_off_c, 12, 29, 64
13, 478680, Note_on_c, 12, 41, 124
13, 478776, Note_off_c, 12, 41, 64
13, 478800, Note_on_c, 12, 41, 124
13, 478896, Note_off_c, 12, 41, 64
13, 478920, Note_on_c, 12, 41, 124
13, 479016, Note_off_c, 12, 41, 64
13, 479040, Note_on_c, 12, 41, 124
13, 479136, Note_off_c, 12, 41, 64
13, 479160, Note_on_c, 12, 41, 124
13, 479256, Note_off_c, 12, 41, 64
13, 479280, Note_on_c, 12, 42, 124
13, 479376, Note_off_c, 12, 42, 64
13, 479400, Note_on_c, 12, 42, 124
13, 479496, Note_off_c, 12, 42, 64
13, 479520, Note_on_c, 12, 43, 120
13, 480288, Note_off_c, 12, 43, 64
13, 480480, Note_on_c, 12, 40, 120
13, 480720, Note_off_c, 12, 40, 64
13, 480720, Note_on_c, 12, 41, 120
13, 480840, Note_off_c, 12, 41, 64
13, 480840, Note_on_c, 12, 43, 120
13, 480960, Note_off_c, 12, 43, 64
13, 480960, Note_on_c, 12, 45, 120
13, 481056, Note_off_c, 12, 45, 64
13, 481200, Note_on_c, 12, 47, 120
13, 481296, Note_off_c, 12, 47, 64
13, 481440, Note_on_c, 12, 48, 120
13, 481536, Note_off_c, 12, 48, 64
13, 481680, Note_on_c, 12, 36, 80
13, 481776, Note_off_c, 12, 36, 64
13, 481920, Note_on_c, 12, 48, 80
13, 482016, Note_off_c, 12, 48, 64
13, 482160, Note_on_c, 12, 48, 80
13, 482256, Note_off_c, 12, 48, 64
13, 482400, Note_on_c, 12, 47, 80
13, 482496, Note_off_c, 12, 47, 64
13, 482640, Note_on_c, 12, 35, 80
13, 482736, Note_off_c, 12, 35, 64
13, 482880, Note_on_c, 12, 47, 80
13, 482976, Note_off_c, 12, 47, 64
13, 483120, Note_on_c, 12, 47, 80
13, 483216, Note_off_c, 12, 47, 64
13, 483360, Note_on_c, 12, 45, 80
13, 483456, Note_off_c, 12, 45, 64
13, 483600, Note_on_c, 12, 33, 80
13, 483696, Note_off_c, 12, 33, 64
13, 483840, Note_on_c, 12, 45, 80
13, 483936, Note_off_c, 12, 45, 64
13, 484080, Note_on_c, 12, 45, 80
13, 484176, Note_off_c, 12, 45, 64
13, 484320, Note_on_c, 12, 43, 80
13, 484416, Note_off_c, 12, 43, 64
13, 484560, Note_on_c, 12, 31, 80
13, 484656, Note_off_c, 12, 31, 64
13, 484800, Note_on_c, 12, 43, 80
13, 484896, Note_off_c, 12, 43, 64
13, 485040, Note_on_c, 12, 43, 80
13, 485136, Note_off_c, 12, 43, 64
13, 485280, Note_on_c, 12, 41, 80
13, 485376, Note_off_c, 12, 41, 64
13, 485520, Note_on_c, 12, 29, 80
13, 485616, Note_off_c, 12, 29, 64
13, 485760, Note_on_c, 12, 41, 80
13, 485856, Note_off_c, 12, 41, 64
13, 486000, Note_on_c, 12, 41, 80
13, 486096, Note_off_c, 12, 41, 64
13, 486240, Note_on_c, 12, 41, 80
13, 486336, Note_off_c, 12, 41, 64
13, 486480, Note_on_c, 12, 41, 80
13, 486576, Note_off_c, 12, 41, 64
13, 486720, Note_on_c, 12, 40, 80
13, 486816, Note_off_c, 12, 40, 64
13, 486960, Note_on_c, 12, 36, 80
13, 487056, Note_off_c, 12, 36, 64
13, 487200, Note_on_c, 12, 31, 80
13, 487296, Note_off_c, 12, 31, 64
13, 487440, Note_on_c, 12, 43, 80
13, 487536, Note_off_c, 12, 43, 64
13, 487680, Note_on_c, 12, 43, 80
13, 487776, Note_off_c, 12, 43, 64
13, 487920, Note_on_c, 12, 31, 80
13, 488016, Note_off_c, 12, 31, 64
13, 488160, Note_on_c, 12, 36, 80
13, 488256, Note_off_c, 12, 36, 64
13, 488400, Note_on_c, 12, 48, 80
13, 488496, Note_off_c, 12, 48, 64
13, 488640, Note_on_c, 12, 48, 80
13, 488736, Note_off_c, 12, 48, 64
13, 488880, Note_on_c, 12, 36, 80
13, 488976, Note_off_c, 12, 36, 64
13, 489120, Note_on_c, 12, 31, 80
13, 489216, Note_off_c, 12, 31, 64
13, 489360, Note_on_c, 12, 43, 80
13, 489456, Note_off_c, 12, 43, 64
13, 489600, Note_on_c, 12, 43, 80
13, 489696, Note_off_c, 12, 43, 64
13, 489840, Note_on_c, 12, 31, 80
13, 489936, Note_off_c, 12, 31, 64
13, 490080, Note_on_c, 12, 36, 80
13, 490176, Note_off_c, 12, 36, 64
13, 490320, Note_on_c, 12, 48, 80
13, 490416, Note_off_c, 12, 48, 64
13, 490560, Note_on_c, 12, 48, 80
13, 490656, Note_off_c, 12, 48, 64
13, 490800, Note_on_c, 12, 36, 80
13, 490896, Note_off_c, 12, 36, 64
13, 491040, Note_on_c, 12, 31, 80
13, 491136, Note_off_c, 12, 31, 64
13, 491280, Note_on_c, 12, 43, 80
13, 491376, Note_off_c, 12, 43, 64
13, 491520, Note_on_c, 12, 43, 80
13, 491616, Note_off_c, 12, 43, 64
13, 491760, Note_on_c, 12, 31, 80
13, 491856, Note_off_c, 12, 31, 64
13, 492000, Note_on_c, 12, 36, 80
13, 492096, Note_off_c, 12, 36, 64
13, 492240, Note_on_c, 12, 48, 80
13, 492336, Note_off_c, 12, 48, 64
13, 492480, Note_on_c, 12, 48, 80
13, 492576, Note_off_c, 12, 48, 64
13, 492720, Note_on_c, 12, 36, 80
13, 492816, Note_off_c, 12, 36, 64
13, 492960, Note_on_c, 12, 31, 80
13, 493056, Note_off_c, 12, 31, 64
13, 493200, Note_on_c, 12, 43, 80
13, 493296, Note_off_c, 12, 43, 64
13, 493440, Note_on_c, 12, 43, 80
13, 493536, Note_off_c, 12, 43, 64
13, 493680, Note_on_c, 12, 31, 80
13, 493776, Note_off_c, 12, 31, 64
13, 493920, Note_on_c, 12, 36, 120
13, 494400, Note_off_c, 12, 36, 64
13, 494640, Note_on_c, 12, 31, 120
13, 494760, Note_off_c, 12, 31, 64
13, 494760, Note_on_c, 12, 33, 120
13, 494820, Note_off_c, 12, 33, 64
13, 494820, Note_on_c, 12, 35, 120
13, 494880, Note_off_c, 12, 35, 64
13, 494880, Note_on_c, 12, 36, 120
13, 495360, Note_off_c, 12, 36, 64
13, 495600, Note_on_c, 12, 31, 120
13, 495720, Note_off_c, 12, 31, 64
13, 495720, Note_on_c, 12, 33, 120
13, 495780, Note_off_c, 12, 33, 64
13, 495780, Note_on_c, 12, 35, 120
13, 495840, Note_off_c, 12, 35, 64
13, 495840, Note_on_c, 12, 36, 120
13, 496320, Note_off_c, 12, 36, 64
13, 496560, Note_on_c, 12, 31, 120
13, 496680, Note_off_c, 12, 31, 64
13, 496680, Note_on_c, 12, 33, 120
13, 496740, Note_off_c, 12, 33, 64
13, 496740, Note_on_c, 12, 35, 120
13, 496800, Note_off_c, 12, 35, 64
13, 496800, Note_on_c, 12, 36, 120
13, 497280, Note_off_c, 12, 36, 64
13, 497520, Note_on_c, 12, 31, 120
13, 497640, Note_off_c, 12, 31, 64
13, 497640, Note_on_c, 12, 33, 120
13, 497700, Note_off_c, 12, 33, 64
13, 497700, Note_on_c, 12, 35, 120
13, 497760, Note_off_c, 12, 35, 64
13, 497760, Note_on_c, 12, 36, 120
13, 497856, Note_off_c, 12, 36, 64
13, 497880, Note_on_c, 12, 36, 120
13, 497976, Note_off_c, 12, 36, 64
13, 498000, Note_on_c, 12, 38, 120
13, 498096, Note_off_c, 12, 38, 64
13, 498120, Note_on_c, 12, 40, 120
13, 498216, Note_off_c, 12, 40, 64
13, 498240, Note_on_c, 12, 41, 120
13, 498336, Note_off_c, 12, 41, 64
13, 498360, Note_on_c, 12, 43, 120
13, 498456, Note_off_c, 12, 43, 64
13, 498480, Note_on_c, 12, 45, 120
13, 498576, Note_off_c, 12, 45, 64
13, 498600, Note_on_c, 12, 47, 120
13, 498696, Note_off_c, 12, 47, 64
13, 498720, Note_on_c, 12, 48, 120
13, 499776, Note_off_c, 12, 48, 64
13, 499800, Note_on_c, 12, 40, 120
13, 499896, Note_off_c, 12, 40, 64
13, 499920, Note_on_c, 12, 41, 120
13, 500016, Note_off_c, 12, 41, 64
13, 500040, Note_on_c, 12, 43, 120
13, 500136, Note_off_c, 12, 43, 64
13, 500160, Note_on_c, 12, 45, 120
13, 500256, Note_off_c, 12, 45, 64
13, 500280, Note_on_c, 12, 47, 120
13, 500376, Note_off_c, 12, 47, 64
13, 500400, Note_on_c, 12, 48, 120
13, 500496, Note_off_c, 12, 48, 64
13, 500520, Note_on_c, 12, 50, 120
13, 500616, Note_off_c, 12, 50, 64
13, 500640, Note_on_c, 12, 52, 120
13, 501696, Note_off_c, 12, 52, 64
13, 501720, Note_on_c, 12, 43, 120
13, 501816, Note_off_c, 12, 43, 64
13, 501840, Note_on_c, 12, 45, 120
13, 501936, Note_off_c, 12, 45, 64
13, 501960, Note_on_c, 12, 47, 120
13, 502056, Note_off_c, 12, 47, 64
13, 502080, Note_on_c, 12, 48, 120
13, 502176, Note_off_c, 12, 48, 64
13, 502200, Note_on_c, 12, 50, 120
13, 502296, Note_off_c, 12, 50, 64
13, 502320, Note_on_c, 12, 52, 120
13, 502416, Note_off_c, 12, 52, 64
13, 502440, Note_on_c, 12, 53, 120
13, 502536, Note_off_c, 12, 53, 64
13, 502560, Note_on_c, 12, 55, 127
13, 502656, Note_off_c, 12, 55, 64
13, 502800, Note_on_c, 12, 52, 99
13, 502896, Note_off_c, 12, 52, 64
13, 503040, Note_on_c, 12, 55, 127
13, 503136, Note_off_c, 12, 55, 64
13, 503280, Note_on_c, 12, 47, 99
13, 503376, Note_off_c, 12, 47, 64
13, 503520, Note_on_c, 12, 48, 127
13, 503616, Note_off_c, 12, 48, 64
13, 503760, Note_on_c, 12, 52, 99
13, 503856, Note_off_c, 12, 52, 64
13, 504000, Note_on_c, 12, 42, 127
13, 504096, Note_off_c, 12, 42, 64
13, 504240, Note_on_c, 12, 43, 99
13, 504336, Note_off_c, 12, 43, 64
13, 504480, Note_on_c, 12, 48, 127
13, 504576, Note_off_c, 12, 48, 64
13, 504720, Note_on_c, 12, 39, 99
13, 504816, Note_off_c, 12, 39, 64
13, 504960, Note_on_c, 12, 40, 127
13, 505056, Note_off_c, 12, 40, 64
13, 505200, Note_on_c, 12, 43, 99
13, 505296, Note_off_c, 12, 43, 64
13, 505440, Note_on_c, 12, 36, 127
13, 505536, Note_off_c, 12, 36, 64
13, 505680, Note_on_c, 12, 40, 99
13, 505776, Note_off_c, 12, 40, 64
13, 505920, Note_on_c, 12, 35, 127
13, 506016, Note_off_c, 12, 35, 64
13, 506160, Note_on_c, 12, 36, 99
13, 506256, Note_off_c, 12, 36, 64
13, 506400, Note_on_c, 12, 32, 99
13, 506496, Note_off_c, 12, 32, 64
13, 506520, Note_on_c, 12, 32, 99
13, 506616, Note_off_c, 12, 32, 64
13, 506640, Note_on_c, 12, 32, 99
13, 506736, Note_off_c, 12, 32, 64
13, 506760, Note_on_c, 12, 32, 99
13, 506856, Note_off_c, 12, 32, 64
13, 506880, Note_on_c, 12, 32, 99
13, 506976, Note_off_c, 12, 32, 64
13, 507000, Note_on_c, 12, 32, 99
13, 507096, Note_off_c, 12, 32, 64
13, 507120, Note_on_c, 12, 32, 99
13, 507216, Note_off_c, 12, 32, 64
13, 507240, Note_on_c, 12, 32, 99
13, 507336, Note_off_c, 12, 32, 64
13, 507360, Note_on_c, 12, 32, 99
13, 507456, Note_off_c, 12, 32, 64
13, 507480, Note_on_c, 12, 32, 99
13, 507576, Note_off_c, 12, 32, 64
13, 507600, Note_on_c, 12, 32, 99
13, 507696, Note_off_c, 12, 32, 64
13, 507720, Note_on_c, 12, 32, 99
13, 507816, Note_off_c, 12, 32, 64
13, 507840, Note_on_c, 12, 32, 99
13, 507936, Note_off_c, 12, 32, 64
13, 507960, Note_on_c, 12, 32, 99
13, 508056, Note_off_c, 12, 32, 64
13, 508080, Note_on_c, 12, 32, 99
13, 508176, Note_off_c, 12, 32, 64
13, 508200, Note_on_c, 12, 32, 99
13, 508296, Note_off_c, 12, 32, 64
13, 508320, Note_on_c, 12, 31, 39
13, 508704, Note_off_c, 12, 31, 64
13, 510240, Note_on_c, 12, 32, 120
13, 510336, Note_off_c, 12, 32, 64
13, 510360, Note_on_c, 12, 32, 114
13, 510456, Note_off_c, 12, 32, 64
13, 510480, Note_on_c, 12, 32, 109
13, 510576, Note_off_c, 12, 32, 64
13, 510600, Note_on_c, 12, 32, 103
13, 510696, Note_off_c, 12, 32, 64
13, 510720, Note_on_c, 12, 32, 97
13, 510816, Note_off_c, 12, 32, 64
13, 510840, Note_on_c, 12, 32, 92
13, 510936, Note_off_c, 12, 32, 64
13, 510960, Note_on_c, 12, 32, 86
13, 511056, Note_off_c, 12, 32, 64
13, 511080, Note_on_c, 12, 32, 81
13, 511176, Note_off_c, 12, 32, 64
13, 511200, Note_on_c, 12, 32, 75
13, 511296, Note_off_c, 12, 32, 64
13, 511320, Note_on_c, 12, 32, 69
13, 511416, Note_off_c, 12, 32, 64
13, 511440, Note_on_c, 12, 32, 64
13, 511536, Note_off_c, 12, 32, 64
13, 511560, Note_on_c, 12, 32, 58
13, 511656, Note_off_c, 12, 32, 64
13, 511680, Note_on_c, 12, 32, 52
13, 511776, Note_off_c, 12, 32, 64
13, 511800, Note_on_c, 12, 32, 47
13, 511896, Note_off_c, 12, 32, 64
13, 511920, Note_on_c, 12, 32, 41
13, 512016, Note_off_c, 12, 32, 64
13, 512040, Note_on_c, 12, 32, 36
13, 512136, Note_off_c, 12, 32, 64
13, 512160, Note_on_c, 12, 32, 30
13, 512256, Note_off_c, 12, 32, 64
13, 512280, Note_on_c, 12, 32, 30
13, 512376, Note_off_c, 12, 32, 64
13, 512400, Note_on_c, 12, 32, 30
13, 512496, Note_off_c, 12, 32, 64
13, 512520, Note_on_c, 12, 32, 30
13, 512616, Note_off_c, 12, 32, 64
13, 512640, Note_on_c, 12, 32, 30
13, 512736, Note_off_c, 12, 32, 64
13, 512760, Note_on_c, 12, 32, 30
13, 512856, Note_off_c, 12, 32, 64
13, 512880, Note_on_c, 12, 32, 30
13, 512976, Note_off_c, 12, 32, 64
13, 513000, Note_on_c, 12, 32, 30
13, 513096, Note_off_c, 12, 32, 64
13, 513120, Note_on_c, 12, 32, 30
13, 513216, Note_off_c, 12, 32, 64
13, 513240, Note_on_c, 12, 32, 30
13, 513336, Note_off_c, 12, 32, 64
13, 513360, Note_on_c, 12, 32, 30
13, 513456, Note_off_c, 12, 32, 64
13, 513480, Note_on_c, 12, 32, 30
13, 513576, Note_off_c, 12, 32, 64
13, 513600, Note_on_c, 12, 32, 30
13, 513696, Note_off_c, 12, 32, 64
13, 513720, Note_on_c, 12, 32, 30
13, 513816, Note_off_c, 12, 32, 64
13, 513840, Note_on_c, 12, 32, 30
13, 513936, Note_off_c, 12, 32, 64
13, 513960, Note_on_c, 12, 32, 30
13, 514056, Note_off_c, 12, 32, 64
13, 514080, Note_on_c, 12, 31, 30
13, 514176, Note_off_c, 12, 31, 64
13, 514200, Note_on_c, 12, 31, 30
13, 514296, Note_off_c, 12, 31, 64
13, 514320, Note_on_c, 12, 31, 30
13, 514416, Note_off_c, 12, 31, 64
13, 514440, Note_on_c, 12, 31, 30
13, 514536, Note_off_c, 12, 31, 64
13, 514560, Note_on_c, 12, 31, 30
13, 514656, Note_off_c, 12, 31, 64
13, 514680, Note_on_c, 12, 31, 30
13, 514776, Note_off_c, 12, 31, 64
13, 514800, Note_on_c, 12, 31, 30
13, 514896, Note_off_c, 12, 31, 64
13, 514920, Note_on_c, 12, 31, 30
13, 515016, Note_off_c, 12, 31, 64
13, 515040, Note_on_c, 12, 31, 30
13, 515136, Note_off_c, 12, 31, 64
13, 515160, Note_on_c, 12, 31, 30
13, 515256, Note_off_c, 12, 31, 64
13, 515280, Note_on_c, 12, 31, 30
13, 515376, Note_off_c, 12, 31, 64
13, 515400, Note_on_c, 12, 31, 30
13, 515496, Note_off_c, 12, 31, 64
13, 515520, Note_on_c, 12, 32, 30
13, 515616, Note_off_c, 12, 32, 64
13, 515640, Note_on_c, 12, 32, 30
13, 515736, Note_off_c, 12, 32, 64
13, 515760, Note_on_c, 12, 32, 30
13, 515856, Note_off_c, 12, 32, 64
13, 515880, Note_on_c, 12, 32, 30
13, 515976, Note_off_c, 12, 32, 64
13, 516000, Note_on_c, 12, 33, 30
13, 516096, Note_off_c, 12, 33, 64
13, 516120, Note_on_c, 12, 33, 31
13, 516216, Note_off_c, 12, 33, 64
13, 516240, Note_on_c, 12, 33, 33
13, 516336, Note_off_c, 12, 33, 64
13, 516360, Note_on_c, 12, 33, 35
13, 516456, Note_off_c, 12, 33, 64
13, 516480, Note_on_c, 12, 33, 36
13, 516576, Note_off_c, 12, 33, 64
13, 516600, Note_on_c, 12, 33, 38
13, 516696, Note_off_c, 12, 33, 64
13, 516720, Note_on_c, 12, 33, 39
13, 516816, Note_off_c, 12, 33, 64
13, 516840, Note_on_c, 12, 33, 41
13, 516936, Note_off_c, 12, 33, 64
13, 516960, Note_on_c, 12, 33, 42
13, 517056, Note_off_c, 12, 33, 64
13, 517080, Note_on_c, 12, 33, 44
13, 517176, Note_off_c, 12, 33, 64
13, 517200, Note_on_c, 12, 33, 46
13, 517296, Note_off_c, 12, 33, 64
13, 517320, Note_on_c, 12, 33, 47
13, 517416, Note_off_c, 12, 33, 64
13, 517440, Note_on_c, 12, 33, 49
13, 517536, Note_off_c, 12, 33, 64
13, 517560, Note_on_c, 12, 33, 50
13, 517656, Note_off_c, 12, 33, 64
13, 517680, Note_on_c, 12, 33, 52
13, 517776, Note_off_c, 12, 33, 64
13, 517800, Note_on_c, 12, 33, 53
13, 517896, Note_off_c, 12, 33, 64
13, 517920, Note_on_c, 12, 35, 55
13, 518016, Note_off_c, 12, 35, 64
13, 518040, Note_on_c, 12, 35, 57
13, 518136, Note_off_c, 12, 35, 64
13, 518160, Note_on_c, 12, 35, 58
13, 518256, Note_off_c, 12, 35, 64
13, 518280, Note_on_c, 12, 35, 60
13, 518376, Note_off_c, 12, 35, 64
13, 518400, Note_on_c, 12, 35, 61
13, 518496, Note_off_c, 12, 35, 64
13, 518520, Note_on_c, 12, 35, 63
13, 518616, Note_off_c, 12, 35, 64
13, 518640, Note_on_c, 12, 35, 64
13, 518736, Note_off_c, 12, 35, 64
13, 518760, Note_on_c, 12, 35, 66
13, 518856, Note_off_c, 12, 35, 64
13, 518880, Note_on_c, 12, 35, 68
13, 518976, Note_off_c, 12, 35, 64
13, 519000, Note_on_c, 12, 35, 69
13, 519096, Note_off_c, 12, 35, 64
13, 519120, Note_on_c, 12, 35, 71
13, 519216, Note_off_c, 12, 35, 64
13, 519240, Note_on_c, 12, 35, 72
13, 519336, Note_off_c, 12, 35, 64
13, 519360, Note_on_c, 12, 35, 74
13, 519456, Note_off_c, 12, 35, 64
13, 519480, Note_on_c, 12, 35, 75
13, 519576, Note_off_c, 12, 35, 64
13, 519600, Note_on_c, 12, 35, 77
13, 519696, Note_off_c, 12, 35, 64
13, 519720, Note_on_c, 12, 35, 79
13, 519816, Note_off_c, 12, 35, 64
13, 519840, Note_on_c, 12, 35, 80
13, 520224, Note_off_c, 12, 35, 64
13, 520560, Note_on_c, 12, 47, 80
13, 520656, Note_off_c, 12, 47, 64
13, 520800, Note_on_c, 12, 48, 80
13, 521184, Note_off_c, 12, 48, 64
13, 521520, Note_on_c, 12, 36, 80
13, 521616, Note_off_c, 12, 36, 64
13, 521760, Note_on_c, 12, 31, 80
13, 522144, Note_off_c, 12, 31, 64
13, 522480, Note_on_c, 12, 43, 80
13, 522576, Note_off_c, 12, 43, 64
13, 522720, Note_on_c, 12, 36, 80
13, 523104, Note_off_c, 12, 36, 64
13, 523440, Note_on_c, 12, 48, 80
13, 523536, Note_off_c, 12, 48, 64
13, 523680, Note_on_c, 12, 35, 80
13, 524064, Note_off_c, 12, 35, 64
13, 524400, Note_on_c, 12, 47, 80
13, 524496, Note_off_c, 12, 47, 64
13, 524640, Note_on_c, 12, 48, 80
13, 525024, Note_off_c, 12, 48, 64
13, 525360, Note_on_c, 12, 36, 80
13, 525456, Note_off_c, 12, 36, 64
13, 525600, Note_on_c, 12, 31, 80
13, 525984, Note_off_c, 12, 31, 64
13, 526320, Note_on_c, 12, 43, 80
13, 526416, Note_off_c, 12, 43, 64
13, 526560, Note_on_c, 12, 36, 80
13, 526944, Note_off_c, 12, 36, 64
13, 527280, Note_on_c, 12, 48, 80
13, 527376, Note_off_c, 12, 48, 64
13, 527520, Note_on_c, 12, 35, 80
13, 527904, Note_off_c, 12, 35, 64
13, 528240, Note_on_c, 12, 47, 80
13, 528336, Note_off_c, 12, 47, 64
13, 528480, Note_on_c, 12, 48, 80
13, 528864, Note_off_c, 12, 48, 64
13, 529200, Note_on_c, 12, 36, 80
13, 529296, Note_off_c, 12, 36, 64
13, 529440, Note_on_c, 12, 31, 80
13, 529824, Note_off_c, 12, 31, 64
13, 530160, Note_on_c, 12, 43, 80
13, 530256, Note_off_c, 12, 43, 64
13, 530400, Note_on_c, 12, 36, 80
13, 530784, Note_off_c, 12, 36, 64
13, 531120, Note_on_c, 12, 48, 80
13, 531216, Note_off_c, 12, 48, 64
13, 531360, Note_on_c, 12, 35, 80
13, 531744, Note_off_c, 12, 35, 64
13, 532080, Note_on_c, 12, 47, 80
13, 532176, Note_off_c, 12, 47, 64
13, 532320, Note_on_c, 12, 36, 80
13, 532704, Note_off_c, 12, 36, 64
13, 533040, Note_on_c, 12, 48, 80
13, 533136, Note_off_c, 12, 48, 64
13, 533280, Note_on_c, 12, 36, 80
13, 533664, Note_off_c, 12, 36, 64
13, 534000, Note_on_c, 12, 52, 80
13, 534096, Note_off_c, 12, 52, 64
13, 534240, Note_on_c, 12, 40, 80
13, 534624, Note_off_c, 12, 40, 64
13, 534960, Note_on_c, 12, 55, 80
13, 535056, Note_off_c, 12, 55, 64
13, 535200, Note_on_c, 12, 55, 77
13, 535440, Note_off_c, 12, 55, 64
13, 535680, Note_on_c, 12, 55, 77
13, 535920, Note_off_c, 12, 55, 64
13, 536640, Note_on_c, 12, 52, 77
13, 536880, Note_off_c, 12, 52, 64
13, 537600, Note_on_c, 12, 48, 77
13, 537840, Note_off_c, 12, 48, 64
13, 538560, Note_on_c, 12, 43, 77
13, 538800, Note_off_c, 12, 43, 64
13, 539520, Note_on_c, 12, 40, 77
13, 539760, Note_off_c, 12, 40, 64
13, 540480, Note_on_c, 12, 36, 77
13, 540720, Note_off_c, 12, 36, 64
13, 541440, Note_on_c, 12, 40, 77
13, 541680, Note_off_c, 12, 40, 64
13, 542400, Note_on_c, 12, 43, 77
13, 542640, Note_off_c, 12, 43, 64
13, 543360, Note_on_c, 12, 48, 77
13, 543600, Note_off_c, 12, 48, 64
13, 544320, Note_on_c, 12, 52, 77
13, 544560, Note_off_c, 12, 52, 64
13, 544800, Note_on_c, 12, 31, 120
13, 544896, Note_off_c, 12, 31, 64
13, 545040, Note_on_c, 12, 43, 120
13, 545136, Note_off_c, 12, 43, 64
13, 545280, Note_on_c, 12, 43, 120
13, 545376, Note_off_c, 12, 43, 64
13, 545520, Note_on_c, 12, 43, 120
13, 545616, Note_off_c, 12, 43, 64
13, 545760, Note_on_c, 12, 43, 120
13, 545856, Note_off_c, 12, 43, 64
13, 546000, Note_on_c, 12, 43, 120
13, 546096, Note_off_c, 12, 43, 64
13, 546240, Note_on_c, 12, 43, 120
13, 546336, Note_off_c, 12, 43, 64
13, 546480, Note_on_c, 12, 43, 120
13, 546576, Note_off_c, 12, 43, 64
13, 546720, Note_on_c, 12, 48, 127
13, 546912, Note_off_c, 12, 48, 64
13, 548640, Note_on_c, 12, 31, 120
13, 548736, Note_off_c, 12, 31, 64
13, 548880, Note_on_c, 12, 43, 120
13, 548976, Note_off_c, 12, 43, 64
13, 549120, Note_on_c, 12, 43, 120
13, 549216, Note_off_c, 12, 43, 64
13, 549360, Note_on_c, 12, 43, 120
13, 549456, Note_off_c, 12, 43, 64
13, 549600, Note_on_c, 12, 43, 120
13, 549696, Note_off_c, 12, 43, 64
13, 549840, Note_on_c, 12, 43, 120
13, 549936, Note_off_c, 12, 43, 64
13, 550080, Note_on_c, 12, 43, 120
13, 550176, Note_off_c, 12, 43, 64
13, 550320, Note_on_c, 12, 43, 120
13, 550416, Note_off_c, 12, 43, 64
13, 550560, Note_on_c, 12, 48, 127
13, 550752, Note_off_c, 12, 48, 64
13, 552480, Note_on_c, 12, 31, 120
13, 552576, Note_off_c, 12, 31, 64
13, 552720, Note_on_c, 12, 43, 120
13, 552816, Note_off_c, 12, 43, 64
13, 552960, Note_on_c, 12, 43, 120
13, 553056, Note_off_c, 12, 43, 64
13, 553200, Note_on_c, 12, 43, 120
13, 553296, Note_off_c, 12, 43, 64
13, 553440, Note_on_c, 12, 43, 120
13, 553536, Note_off_c, 12, 43, 64
13, 553680, Note_on_c, 12, 43, 120
13, 553776, Note_off_c, 12, 43, 64
13, 553920, Note_on_c, 12, 43, 120
13, 554016, Note_off_c, 12, 43, 64
13, 554160, Note_on_c, 12, 43, 120
13, 554256, Note_off_c, 12, 43, 64
13, 554400, Note_on_c, 12, 48, 127
13, 554592, Note_off_c, 12, 48, 64
13, 556320, Note_on_c, 12, 36, 127
13, 556512, Note_off_c, 12, 36, 64
13, 558240, Note_on_c, 12, 36, 127
13, 558432, Note_off_c, 12, 36, 64
13, 560160, Note_on_c, 12, 36, 127
13, 560352, Note_off_c, 12, 36, 64
13, 561120, Note_on_c, 12, 36, 127
13, 561312, Note_off_c, 12, 36, 64
13, 562320, Note_on_c, 12, 36, 127
13, 566386, Note_off_c, 12, 36, 64
13, 566386, End_track
14, 0, Start_track
14, 0, Title_t, "Pizz Violins"
14, 0, MIDI_port, 0
14, 0, Channel_prefix, 13
14, 0, Control_c, 13, 7, 89
14, 0, Control_c, 13, 10, 45
14, 0, Program_c, 13, 45
14, 480, Program_c, 13, 45
14, 480, Control_c, 13, 7, 90
14, 480, Control_c, 13, 91, 85
14, 480, Control_c, 13, 93, 90
14, 480, Control_c, 13, 10, 34
14, 13920, Note_on_c, 13, 60, 29
14, 13920, Note_on_c, 13, 64, 29
14, 14304, Note_off_c, 13, 64, 64
14, 14304, Note_off_c, 13, 60, 64
14, 14400, Note_on_c, 13, 60, 29
14, 14784, Note_off_c, 13, 60, 64
14, 14880, Note_on_c, 13, 59, 29
14, 14880, Note_on_c, 13, 62, 29
14, 15264, Note_off_c, 13, 62, 64
14, 15264, Note_off_c, 13, 59, 64
14, 15840, Note_on_c, 13, 55, 29
14, 15840, Note_on_c, 13, 60, 29
14, 15840, Note_on_c, 13, 64, 29
14, 16224, Note_off_c, 13, 64, 64
14, 16224, Note_off_c, 13, 60, 64
14, 16224, Note_off_c, 13, 55, 64
14, 16800, Note_on_c, 13, 59, 29
14, 16800, Note_on_c, 13, 62, 29
14, 16800, Note_on_c, 13, 55, 29
14, 17184, Note_off_c, 13, 55, 64
14, 17184, Note_off_c, 13, 62, 64
14, 17184, Note_off_c, 13, 59, 64
14, 17760, Note_on_c, 13, 55, 29
14, 17760, Note_on_c, 13, 59, 29
14, 17760, Note_on_c, 13, 62, 29
14, 18144, Note_off_c, 13, 62, 64
14, 18144, Note_off_c, 13, 59, 64
14, 18144, Note_off_c, 13, 55, 64
14, 18720, Note_on_c, 13, 60, 29
14, 18720, Note_on_c, 13, 64, 29
14, 18720, Note_on_c, 13, 55, 29
14, 19104, Note_off_c, 13, 55, 64
14, 19104, Note_off_c, 13, 64, 64
14, 19104, Note_off_c, 13, 60, 64
14, 19200, Note_on_c, 13, 60, 29
14, 19200, Note_on_c, 13, 55, 29
14, 19200, Note_on_c, 13, 64, 29
14, 19584, Note_off_c, 13, 64, 64
14, 19584, Note_off_c, 13, 55, 64
14, 19584, Note_off_c, 13, 60, 64
14, 19680, Note_on_c, 13, 62, 29
14, 19680, Note_on_c, 13, 65, 29
14, 19680, Note_on_c, 13, 55, 29
14, 20064, Note_off_c, 13, 55, 64
14, 20064, Note_off_c, 13, 65, 64
14, 20064, Note_off_c, 13, 62, 64
14, 20160, Note_on_c, 13, 60, 29
14, 20160, Note_on_c, 13, 55, 29
14, 20160, Note_on_c, 13, 64, 29
14, 20544, Note_off_c, 13, 64, 64
14, 20544, Note_off_c, 13, 55, 64
14, 20544, Note_off_c, 13, 60, 64
14, 21600, Note_on_c, 13, 62, 29
14, 21600, Note_on_c, 13, 74, 29
14, 21600, Note_on_c, 13, 67, 29
14, 21984, Note_off_c, 13, 67, 64
14, 21984, Note_off_c, 13, 74, 64
14, 21984, Note_off_c, 13, 62, 64
14, 22560, Note_on_c, 13, 72, 29
14, 22560, Note_on_c, 13, 62, 29
14, 22560, Note_on_c, 13, 66, 29
14, 22944, Note_off_c, 13, 66, 64
14, 22944, Note_off_c, 13, 62, 64
14, 22944, Note_off_c, 13, 72, 64
14, 23520, Note_on_c, 13, 67, 29
14, 23520, Note_on_c, 13, 71, 29
14, 23520, Note_on_c, 13, 62, 29
14, 23712, Note_off_c, 13, 62, 64
14, 23712, Note_off_c, 13, 71, 64
14, 23712, Note_off_c, 13, 67, 64
14, 23760, Note_on_c, 13, 63, 29
14, 23760, Note_on_c, 13, 71, 29
14, 23760, Note_on_c, 13, 69, 29
14, 23952, Note_off_c, 13, 69, 64
14, 23952, Note_off_c, 13, 71, 64
14, 23952, Note_off_c, 13, 63, 64
14, 24000, Note_on_c, 13, 71, 29
14, 24000, Note_on_c, 13, 64, 29
14, 24000, Note_on_c, 13, 67, 29
14, 24384, Note_off_c, 13, 67, 64
14, 24384, Note_off_c, 13, 64, 64
14, 24384, Note_off_c, 13, 71, 64
14, 24480, Note_on_c, 13, 69, 29
14, 24480, Note_on_c, 13, 64, 29
14, 24480, Note_on_c, 13, 72, 29
14, 24864, Note_off_c, 13, 72, 64
14, 24864, Note_off_c, 13, 64, 64
14, 24864, Note_off_c, 13, 69, 64
14, 25440, Note_on_c, 13, 71, 29
14, 25440, Note_on_c, 13, 64, 29
14, 25440, Note_on_c, 13, 67, 29
14, 25824, Note_off_c, 13, 67, 64
14, 25824, Note_off_c, 13, 64, 64
14, 25824, Note_off_c, 13, 71, 64
14, 26400, Note_on_c, 13, 59, 29
14, 26400, Note_on_c, 13, 71, 29
14, 26784, Note_off_c, 13, 71, 64
14, 26784, Note_off_c, 13, 59, 64
14, 26880, Note_on_c, 13, 64, 29
14, 27264, Note_off_c, 13, 64, 64
14, 29280, Note_on_c, 13, 67, 29
14, 29280, Note_on_c, 13, 60, 29
14, 29280, Note_on_c, 13, 64, 29
14, 29664, Note_off_c, 13, 64, 64
14, 29664, Note_off_c, 13, 60, 64
14, 29664, Note_off_c, 13, 67, 64
14, 30240, Note_on_c, 13, 60, 29
14, 30240, Note_on_c, 13, 67, 29
14, 30240, Note_on_c, 13, 64, 29
14, 30624, Note_off_c, 13, 64, 64
14, 30624, Note_off_c, 13, 67, 64
14, 30624, Note_off_c, 13, 60, 64
14, 31200, Note_on_c, 13, 64, 29
14, 31200, Note_on_c, 13, 60, 29
14, 31584, Note_off_c, 13, 60, 64
14, 31584, Note_off_c, 13, 64, 64
14, 31680, Note_on_c, 13, 65, 29
14, 31680, Note_on_c, 13, 57, 29
14, 31680, Note_on_c, 13, 53, 29
14, 32064, Note_off_c, 13, 53, 64
14, 32064, Note_off_c, 13, 57, 64
14, 32064, Note_off_c, 13, 65, 64
14, 32160, Note_on_c, 13, 62, 29
14, 32160, Note_on_c, 13, 57, 29
14, 32160, Note_on_c, 13, 65, 29
14, 32544, Note_off_c, 13, 65, 64
14, 32544, Note_off_c, 13, 57, 64
14, 32544, Note_off_c, 13, 62, 64
14, 32640, Note_on_c, 13, 65, 29
14, 32640, Note_on_c, 13, 62, 29
14, 32640, Note_on_c, 13, 55, 29
14, 33024, Note_off_c, 13, 55, 64
14, 33024, Note_off_c, 13, 62, 64
14, 33024, Note_off_c, 13, 65, 64
14, 33120, Note_on_c, 13, 55, 29
14, 33120, Note_on_c, 13, 65, 29
14, 33120, Note_on_c, 13, 62, 29
14, 33504, Note_off_c, 13, 62, 64
14, 33504, Note_off_c, 13, 65, 64
14, 33504, Note_off_c, 13, 55, 64
14, 34080, Note_on_c, 13, 55, 29
14, 34080, Note_on_c, 13, 65, 29
14, 34080, Note_on_c, 13, 62, 29
14, 34464, Note_off_c, 13, 62, 64
14, 34464, Note_off_c, 13, 65, 64
14, 34464, Note_off_c, 13, 55, 64
14, 35040, Note_on_c, 13, 62, 29
14, 35040, Note_on_c, 13, 59, 29
14, 35040, Note_on_c, 13, 65, 29
14, 35040, Note_on_c, 13, 55, 29
14, 35424, Note_off_c, 13, 55, 64
14, 35424, Note_off_c, 13, 65, 64
14, 35424, Note_off_c, 13, 59, 64
14, 35424, Note_off_c, 13, 62, 64
14, 35520, Note_on_c, 13, 60, 29
14, 35520, Note_on_c, 13, 55, 29
14, 35520, Note_on_c, 13, 64, 29
14, 35904, Note_off_c, 13, 64, 64
14, 35904, Note_off_c, 13, 55, 64
14, 35904, Note_off_c, 13, 60, 64
14, 76800, Program_c, 13, 61
14, 82560, Note_on_c, 13, 60, 72
14, 82656, Note_off_c, 13, 60, 64
14, 82800, Note_on_c, 13, 67, 72
14, 82848, Note_off_c, 13, 67, 64
14, 82920, Note_on_c, 13, 67, 72
14, 82968, Note_off_c, 13, 67, 64
14, 83040, Note_on_c, 13, 72, 72
14, 83136, Note_off_c, 13, 72, 64
14, 83280, Note_on_c, 13, 67, 72
14, 83376, Note_off_c, 13, 67, 64
14, 83520, Note_on_c, 13, 72, 72
14, 83616, Note_off_c, 13, 72, 64
14, 83760, Note_on_c, 13, 67, 72
14, 83856, Note_off_c, 13, 67, 64
14, 84000, Note_on_c, 13, 64, 72
14, 84096, Note_off_c, 13, 64, 64
14, 84240, Note_on_c, 13, 67, 72
14, 84336, Note_off_c, 13, 67, 64
14, 84480, Note_on_c, 13, 60, 72
14, 84576, Note_off_c, 13, 60, 64
14, 84720, Note_on_c, 13, 67, 72
14, 84720, Note_on_c, 13, 72, 72
14, 84768, Note_off_c, 13, 72, 64
14, 84768, Note_off_c, 13, 67, 64
14, 84840, Note_on_c, 13, 67, 72
14, 84840, Note_on_c, 13, 72, 72
14, 84888, Note_off_c, 13, 72, 64
14, 84888, Note_off_c, 13, 67, 64
14, 84960, Note_on_c, 13, 76, 72
14, 84960, Note_on_c, 13, 72, 72
14, 85056, Note_off_c, 13, 72, 64
14, 85056, Note_off_c, 13, 76, 64
14, 85200, Note_on_c, 13, 67, 72
14, 85200, Note_on_c, 13, 72, 72
14, 85296, Note_off_c, 13, 72, 64
14, 85296, Note_off_c, 13, 67, 64
14, 85440, Note_on_c, 13, 76, 72
14, 85440, Note_on_c, 13, 72, 72
14, 85536, Note_off_c, 13, 72, 64
14, 85536, Note_off_c, 13, 76, 64
14, 85680, Note_on_c, 13, 72, 72
14, 85680, Note_on_c, 13, 67, 72
14, 85776, Note_off_c, 13, 67, 64
14, 85776, Note_off_c, 13, 72, 64
14, 85920, Note_on_c, 13, 64, 72
14, 85920, Note_on_c, 13, 67, 72
14, 86016, Note_off_c, 13, 67, 64
14, 86016, Note_off_c, 13, 64, 64
14, 86160, Note_on_c, 13, 67, 72
14, 86160, Note_on_c, 13, 72, 72
14, 86256, Note_off_c, 13, 72, 64
14, 86256, Note_off_c, 13, 67, 64
14, 86640, Note_on_c, 13, 72, 72
14, 86640, Note_on_c, 13, 76, 72
14, 86688, Note_off_c, 13, 76, 64
14, 86688, Note_off_c, 13, 72, 64
14, 86760, Note_on_c, 13, 76, 72
14, 86760, Note_on_c, 13, 72, 72
14, 86808, Note_off_c, 13, 72, 64
14, 86808, Note_off_c, 13, 76, 64
14, 86880, Note_on_c, 13, 76, 72
14, 86880, Note_on_c, 13, 72, 72
14, 86976, Note_off_c, 13, 72, 64
14, 86976, Note_off_c, 13, 76, 64
14, 87120, Note_on_c, 13, 72, 72
14, 87120, Note_on_c, 13, 76, 72
14, 87216, Note_off_c, 13, 76, 64
14, 87216, Note_off_c, 13, 72, 64
14, 87360, Note_on_c, 13, 72, 72
14, 87360, Note_on_c, 13, 76, 72
14, 87456, Note_off_c, 13, 76, 64
14, 87456, Note_off_c, 13, 72, 64
14, 87600, Note_on_c, 13, 79, 72
14, 87600, Note_on_c, 13, 76, 72
14, 87648, Note_off_c, 13, 76, 64
14, 87648, Note_off_c, 13, 79, 64
14, 87720, Note_on_c, 13, 79, 72
14, 87720, Note_on_c, 13, 76, 72
14, 87768, Note_off_c, 13, 76, 64
14, 87768, Note_off_c, 13, 79, 64
14, 87840, Note_on_c, 13, 76, 72
14, 87840, Note_on_c, 13, 79, 72
14, 87936, Note_off_c, 13, 79, 64
14, 87936, Note_off_c, 13, 76, 64
14, 88080, Note_on_c, 13, 76, 72
14, 88080, Note_on_c, 13, 79, 72
14, 88176, Note_off_c, 13, 79, 64
14, 88176, Note_off_c, 13, 76, 64
14, 88320, Note_on_c, 13, 74, 72
14, 88320, Note_on_c, 13, 79, 72
14, 88416, Note_off_c, 13, 79, 64
14, 88416, Note_off_c, 13, 74, 64
14, 88560, Note_on_c, 13, 77, 72
14, 88560, Note_on_c, 13, 74, 72
14, 88656, Note_off_c, 13, 74, 64
14, 88656, Note_off_c, 13, 77, 64
14, 88800, Note_on_c, 13, 77, 72
14, 88800, Note_on_c, 13, 74, 72
14, 88896, Note_off_c, 13, 74, 64
14, 88896, Note_off_c, 13, 77, 64
14, 89040, Note_on_c, 13, 72, 72
14, 89040, Note_on_c, 13, 76, 72
14, 89136, Note_off_c, 13, 76, 64
14, 89136, Note_off_c, 13, 72, 64
14, 89280, Note_on_c, 13, 67, 72
14, 89280, Note_on_c, 13, 74, 72
14, 89856, Note_off_c, 13, 74, 64
14, 89856, Note_off_c, 13, 67, 64
14, 98160, Note_on_c, 13, 74, 72
14, 98160, Note_on_c, 13, 67, 72
14, 98208, Note_off_c, 13, 67, 64
14, 98208, Note_off_c, 13, 74, 64
14, 98280, Note_on_c, 13, 74, 72
14, 98280, Note_on_c, 13, 67, 72
14, 98328, Note_off_c, 13, 67, 64
14, 98328, Note_off_c, 13, 74, 64
14, 98400, Note_on_c, 13, 74, 72
14, 98400, Note_on_c, 13, 67, 72
14, 98496, Note_off_c, 13, 67, 64
14, 98496, Note_off_c, 13, 74, 64
14, 98640, Note_on_c, 13, 76, 72
14, 98640, Note_on_c, 13, 72, 72
14, 98736, Note_off_c, 13, 72, 64
14, 98736, Note_off_c, 13, 76, 64
14, 98880, Note_on_c, 13, 77, 72
14, 98880, Note_on_c, 13, 74, 72
14, 99456, Note_off_c, 13, 74, 64
14, 99456, Note_off_c, 13, 77, 64
14, 100080, Note_on_c, 13, 72, 72
14, 100080, Note_on_c, 13, 76, 72
14, 100128, Note_off_c, 13, 76, 64
14, 100128, Note_off_c, 13, 72, 64
14, 100200, Note_on_c, 13, 72, 72
14, 100200, Note_on_c, 13, 76, 72
14, 100248, Note_off_c, 13, 76, 64
14, 100248, Note_off_c, 13, 72, 64
14, 100320, Note_on_c, 13, 76, 72
14, 100320, Note_on_c, 13, 72, 72
14, 100416, Note_off_c, 13, 72, 64
14, 100416, Note_off_c, 13, 76, 64
14, 100560, Note_on_c, 13, 74, 72
14, 100560, Note_on_c, 13, 77, 72
14, 100656, Note_off_c, 13, 77, 64
14, 100656, Note_off_c, 13, 74, 64
14, 100800, Note_on_c, 13, 79, 72
14, 100800, Note_on_c, 13, 76, 72
14, 101376, Note_off_c, 13, 76, 64
14, 101376, Note_off_c, 13, 79, 64
14, 101760, Note_on_c, 13, 79, 92
14, 101760, Note_on_c, 13, 76, 72
14, 101856, Note_off_c, 13, 76, 64
14, 101856, Note_off_c, 13, 79, 64
14, 102000, Note_on_c, 13, 76, 72
14, 102000, Note_on_c, 13, 72, 72
14, 102048, Note_off_c, 13, 72, 64
14, 102048, Note_off_c, 13, 76, 64
14, 102120, Note_on_c, 13, 76, 72
14, 102120, Note_on_c, 13, 72, 72
14, 102168, Note_off_c, 13, 72, 64
14, 102168, Note_off_c, 13, 76, 64
14, 102240, Note_on_c, 13, 72, 72
14, 102240, Note_on_c, 13, 76, 72
14, 102336, Note_off_c, 13, 76, 64
14, 102336, Note_off_c, 13, 72, 64
14, 102480, Note_on_c, 13, 76, 72
14, 102480, Note_on_c, 13, 72, 72
14, 102576, Note_off_c, 13, 72, 64
14, 102576, Note_off_c, 13, 76, 64
14, 102720, Note_on_c, 13, 76, 92
14, 102720, Note_on_c, 13, 72, 72
14, 102816, Note_off_c, 13, 72, 64
14, 102816, Note_off_c, 13, 76, 64
14, 102960, Note_on_c, 13, 72, 72
14, 102960, Note_on_c, 13, 64, 72
14, 103008, Note_off_c, 13, 64, 64
14, 103008, Note_off_c, 13, 72, 64
14, 103080, Note_on_c, 13, 72, 72
14, 103080, Note_on_c, 13, 64, 72
14, 103128, Note_off_c, 13, 64, 64
14, 103128, Note_off_c, 13, 72, 64
14, 103200, Note_on_c, 13, 64, 72
14, 103200, Note_on_c, 13, 72, 72
14, 103296, Note_off_c, 13, 72, 64
14, 103296, Note_off_c, 13, 64, 64
14, 103440, Note_on_c, 13, 72, 72
14, 103440, Note_on_c, 13, 64, 72
14, 103536, Note_off_c, 13, 64, 64
14, 103536, Note_off_c, 13, 72, 64
14, 103680, Note_on_c, 13, 67, 72
14, 103680, Note_on_c, 13, 74, 72
14, 104064, Note_off_c, 13, 74, 64
14, 104064, Note_off_c, 13, 67, 64
14, 104160, Note_on_c, 13, 67, 72
14, 104160, Note_on_c, 13, 74, 72
14, 104304, Note_off_c, 13, 74, 64
14, 104304, Note_off_c, 13, 67, 64
14, 104520, Note_on_c, 13, 74, 72
14, 104520, Note_on_c, 13, 67, 72
14, 104568, Note_off_c, 13, 67, 64
14, 104568, Note_off_c, 13, 74, 64
14, 104640, Note_on_c, 13, 64, 72
14, 104640, Note_on_c, 13, 72, 72
14, 105216, Note_off_c, 13, 72, 64
14, 105216, Note_off_c, 13, 64, 64
14, 107520, Program_c, 13, 45
14, 107520, End_track
15, 0, Start_track
15, 0, Title_t, "Pizz Bass"
15, 0, MIDI_port, 0
15, 0, Channel_prefix, 14
15, 0, Control_c, 14, 7, 89
15, 0, Control_c, 14, 10, 90
15, 0, Program_c, 14, 45
15, 480, Control_c, 14, 10, 95
15, 480, Program_c, 14, 45
15, 480, Control_c, 14, 91, 85
15, 480, Control_c, 14, 93, 90
15, 480, Control_c, 14, 7, 90
15, 13920, Note_on_c, 14, 48, 29
15, 13920, Note_on_c, 14, 52, 29
15, 13920, Note_on_c, 14, 36, 29
15, 14304, Note_off_c, 14, 36, 64
15, 14304, Note_off_c, 14, 52, 64
15, 14304, Note_off_c, 14, 48, 64
15, 14400, Note_on_c, 14, 52, 29
15, 14400, Note_on_c, 14, 45, 29
15, 14400, Note_on_c, 14, 57, 29
15, 14784, Note_off_c, 14, 57, 64
15, 14784, Note_off_c, 14, 45, 64
15, 14784, Note_off_c, 14, 52, 64
15, 14880, Note_on_c, 14, 43, 29
15, 14880, Note_on_c, 14, 55, 29
15, 14880, Note_on_c, 14, 53, 29
15, 15264, Note_off_c, 14, 53, 64
15, 15264, Note_off_c, 14, 55, 64
15, 15264, Note_off_c, 14, 43, 64
15, 15840, Note_on_c, 14, 43, 29
15, 15840, Note_on_c, 14, 55, 29
15, 16224, Note_off_c, 14, 55, 64
15, 16224, Note_off_c, 14, 43, 64
15, 16800, Note_on_c, 14, 31, 29
15, 16800, Note_on_c, 14, 43, 29
15, 17184, Note_off_c, 14, 43, 64
15, 17184, Note_off_c, 14, 31, 64
15, 17760, Note_on_c, 14, 43, 34
15, 17760, Note_on_c, 14, 31, 34
15, 18144, Note_off_c, 14, 31, 64
15, 18144, Note_off_c, 14, 43, 64
15, 18720, Note_on_c, 14, 48, 34
15, 18720, Note_on_c, 14, 36, 34
15, 19104, Note_off_c, 14, 36, 64
15, 19104, Note_off_c, 14, 48, 64
15, 19200, Note_on_c, 14, 43, 34
15, 19200, Note_on_c, 14, 31, 34
15, 19584, Note_off_c, 14, 31, 64
15, 19584, Note_off_c, 14, 43, 64
15, 19680, Note_on_c, 14, 43, 34
15, 19680, Note_on_c, 14, 31, 34
15, 20064, Note_off_c, 14, 31, 64
15, 20064, Note_off_c, 14, 43, 64
15, 20160, Note_on_c, 14, 48, 34
15, 20160, Note_on_c, 14, 36, 34
15, 20544, Note_off_c, 14, 36, 64
15, 20544, Note_off_c, 14, 48, 64
15, 21600, Note_on_c, 14, 47, 34
15, 21600, Note_on_c, 14, 59, 34
15, 21984, Note_off_c, 14, 59, 64
15, 21984, Note_off_c, 14, 47, 64
15, 22560, Note_on_c, 14, 57, 34
15, 22560, Note_on_c, 14, 45, 34
15, 22944, Note_off_c, 14, 45, 64
15, 22944, Note_off_c, 14, 57, 64
15, 23520, Note_on_c, 14, 43, 34
15, 23520, Note_on_c, 14, 55, 34
15, 23712, Note_off_c, 14, 55, 64
15, 23712, Note_off_c, 14, 43, 64
15, 23760, Note_on_c, 14, 42, 34
15, 23760, Note_on_c, 14, 54, 34
15, 23952, Note_off_c, 14, 54, 64
15, 23952, Note_off_c, 14, 42, 64
15, 24000, Note_on_c, 14, 40, 34
15, 24000, Note_on_c, 14, 52, 34
15, 24384, Note_off_c, 14, 52, 64
15, 24384, Note_off_c, 14, 40, 64
15, 24480, Note_on_c, 14, 45, 34
15, 24480, Note_on_c, 14, 33, 34
15, 24864, Note_off_c, 14, 33, 64
15, 24864, Note_off_c, 14, 45, 64
15, 25440, Note_on_c, 14, 35, 34
15, 25440, Note_on_c, 14, 47, 34
15, 25824, Note_off_c, 14, 47, 64
15, 25824, Note_off_c, 14, 35, 64
15, 26400, Note_on_c, 14, 35, 34
15, 26400, Note_on_c, 14, 47, 34
15, 26784, Note_off_c, 14, 47, 64
15, 26784, Note_off_c, 14, 35, 64
15, 26880, Note_on_c, 14, 40, 34
15, 26880, Note_on_c, 14, 52, 34
15, 27264, Note_off_c, 14, 52, 64
15, 27264, Note_off_c, 14, 40, 64
15, 29280, Note_on_c, 14, 64, 34
15, 29280, Note_on_c, 14, 52, 34
15, 29664, Note_off_c, 14, 52, 64
15, 29664, Note_off_c, 14, 64, 64
15, 30240, Note_on_c, 14, 36, 34
15, 30240, Note_on_c, 14, 48, 34
15, 30624, Note_off_c, 14, 48, 64
15, 30624, Note_off_c, 14, 36, 64
15, 31200, Note_on_c, 14, 48, 34
15, 31200, Note_on_c, 14, 60, 34
15, 31584, Note_off_c, 14, 60, 64
15, 31584, Note_off_c, 14, 48, 64
15, 31680, Note_on_c, 14, 50, 34
15, 31680, Note_on_c, 14, 62, 34
15, 32064, Note_off_c, 14, 62, 64
15, 32064, Note_off_c, 14, 50, 64
15, 32160, Note_on_c, 14, 60, 34
15, 32160, Note_on_c, 14, 48, 34
15, 32544, Note_off_c, 14, 48, 64
15, 32544, Note_off_c, 14, 60, 64
15, 32640, Note_on_c, 14, 47, 34
15, 32640, Note_on_c, 14, 59, 34
15, 33024, Note_off_c, 14, 59, 64
15, 33024, Note_off_c, 14, 47, 64
15, 33120, Note_on_c, 14, 55, 34
15, 33120, Note_on_c, 14, 43, 34
15, 33504, Note_off_c, 14, 43, 64
15, 33504, Note_off_c, 14, 55, 64
15, 34080, Note_on_c, 14, 55, 34
15, 34080, Note_on_c, 14, 43, 34
15, 34464, Note_off_c, 14, 43, 64
15, 34464, Note_off_c, 14, 55, 64
15, 35040, Note_on_c, 14, 43, 34
15, 35040, Note_on_c, 14, 55, 34
15, 35424, Note_off_c, 14, 55, 64
15, 35424, Note_off_c, 14, 43, 64
15, 35520, Note_on_c, 14, 48, 34
15, 35520, Note_on_c, 14, 36, 34
15, 35904, Note_off_c, 14, 36, 64
15, 35904, Note_off_c, 14, 48, 64
15, 67200, Control_c, 14, 10, 100
15, 69120, Program_c, 14, 47
15, 74880, Note_on_c, 14, 48, 72
15, 75264, Note_off_c, 14, 48, 64
15, 76080, Note_on_c, 14, 48, 72
15, 76176, Note_off_c, 14, 48, 64
15, 76200, Note_on_c, 14, 48, 72
15, 76296, Note_off_c, 14, 48, 64
15, 76320, Note_on_c, 14, 48, 72
15, 76512, Note_off_c, 14, 48, 64
15, 76560, Note_on_c, 14, 48, 72
15, 76752, Note_off_c, 14, 48, 64
15, 76800, Note_on_c, 14, 48, 72
15, 77184, Note_off_c, 14, 48, 64
15, 78000, Note_on_c, 14, 48, 72
15, 78096, Note_off_c, 14, 48, 64
15, 78120, Note_on_c, 14, 48, 72
15, 78216, Note_off_c, 14, 48, 64
15, 78240, Note_on_c, 14, 48, 72
15, 78432, Note_off_c, 14, 48, 64
15, 78480, Note_on_c, 14, 48, 72
15, 78672, Note_off_c, 14, 48, 64
15, 78720, Note_on_c, 14, 48, 72
15, 79104, Note_off_c, 14, 48, 64
15, 79440, Note_on_c, 14, 48, 72
15, 79536, Note_off_c, 14, 48, 64
15, 79560, Note_on_c, 14, 48, 72
15, 79656, Note_off_c, 14, 48, 64
15, 79680, Note_on_c, 14, 48, 72
15, 80064, Note_off_c, 14, 48, 64
15, 80400, Note_on_c, 14, 48, 72
15, 80496, Note_off_c, 14, 48, 64
15, 80520, Note_on_c, 14, 48, 72
15, 80616, Note_off_c, 14, 48, 64
15, 80640, Note_on_c, 14, 43, 72
15, 81024, Note_off_c, 14, 43, 64
15, 81120, Note_on_c, 14, 48, 72
15, 81504, Note_off_c, 14, 48, 64
15, 81600, Note_on_c, 14, 43, 72
15, 81792, Note_off_c, 14, 43, 64
15, 81840, Note_on_c, 14, 43, 72
15, 81936, Note_off_c, 14, 43, 64
15, 81960, Note_on_c, 14, 43, 72
15, 82056, Note_off_c, 14, 43, 64
15, 82080, Note_on_c, 14, 43, 72
15, 82272, Note_off_c, 14, 43, 64
15, 82320, Note_on_c, 14, 43, 72
15, 82512, Note_off_c, 14, 43, 64
15, 82560, Note_on_c, 14, 48, 72
15, 82944, Note_off_c, 14, 48, 64
15, 90240, Note_on_c, 14, 43, 72
15, 90624, Note_off_c, 14, 43, 64
15, 91440, Note_on_c, 14, 43, 72
15, 91536, Note_off_c, 14, 43, 64
15, 91560, Note_on_c, 14, 43, 72
15, 91656, Note_off_c, 14, 43, 64
15, 91680, Note_on_c, 14, 43, 72
15, 91872, Note_off_c, 14, 43, 64
15, 91920, Note_on_c, 14, 43, 72
15, 92112, Note_off_c, 14, 43, 64
15, 92160, Note_on_c, 14, 48, 72
15, 92544, Note_off_c, 14, 48, 64
15, 93360, Note_on_c, 14, 48, 72
15, 93456, Note_off_c, 14, 48, 64
15, 93480, Note_on_c, 14, 48, 72
15, 93576, Note_off_c, 14, 48, 64
15, 93600, Note_on_c, 14, 48, 72
15, 93792, Note_off_c, 14, 48, 64
15, 93840, Note_on_c, 14, 48, 72
15, 94032, Note_off_c, 14, 48, 64
15, 94080, Note_on_c, 14, 48, 72
15, 94464, Note_off_c, 14, 48, 64
15, 94800, Note_on_c, 14, 48, 72
15, 94896, Note_off_c, 14, 48, 64
15, 94920, Note_on_c, 14, 48, 72
15, 95016, Note_off_c, 14, 48, 64
15, 95040, Note_on_c, 14, 48, 72
15, 95424, Note_off_c, 14, 48, 64
15, 95760, Note_on_c, 14, 48, 72
15, 95856, Note_off_c, 14, 48, 64
15, 95880, Note_on_c, 14, 48, 72
15, 95976, Note_off_c, 14, 48, 64
15, 96000, Note_on_c, 14, 43, 72
15, 96384, Note_off_c, 14, 43, 64
15, 96480, Note_on_c, 14, 43, 72
15, 96768, Note_off_c, 14, 43, 64
15, 96840, Note_on_c, 14, 43, 72
15, 96936, Note_off_c, 14, 43, 64
15, 96960, Note_on_c, 14, 48, 72
15, 97152, Note_off_c, 14, 48, 64
15, 97200, Note_on_c, 14, 48, 72
15, 97296, Note_off_c, 14, 48, 64
15, 97320, Note_on_c, 14, 48, 72
15, 97416, Note_off_c, 14, 48, 64
15, 97440, Note_on_c, 14, 48, 72
15, 97632, Note_off_c, 14, 48, 64
15, 97680, Note_on_c, 14, 48, 72
15, 97872, Note_off_c, 14, 48, 64
15, 97920, Note_on_c, 14, 43, 72
15, 98304, Note_off_c, 14, 43, 64
15, 105600, Note_on_c, 14, 43, 43
15, 105984, Note_off_c, 14, 43, 64
15, 106080, Note_on_c, 14, 43, 43
15, 106368, Note_off_c, 14, 43, 64
15, 106440, Note_on_c, 14, 43, 43
15, 106536, Note_off_c, 14, 43, 64
15, 106560, Note_on_c, 14, 48, 43
15, 106752, Note_off_c, 14, 48, 64
15, 107520, Program_c, 14, 45
15, 149280, Note_on_c, 14, 47, 36
15, 149664, Note_off_c, 14, 47, 64
15, 150240, Note_on_c, 14, 36, 36
15, 150624, Note_off_c, 14, 36, 64
15, 151200, Note_on_c, 14, 45, 36
15, 151584, Note_off_c, 14, 45, 64
15, 152160, Note_on_c, 14, 38, 36
15, 152544, Note_off_c, 14, 38, 64
15, 153120, Note_on_c, 14, 40, 36
15, 153504, Note_off_c, 14, 40, 64
15, 154080, Note_on_c, 14, 36, 36
15, 154464, Note_off_c, 14, 36, 64
15, 155280, Note_on_c, 14, 38, 36
15, 155664, Note_off_c, 14, 38, 64
15, 155664, End_track
16, 0, Start_track
16, 0, Title_t, "Michael A. Abelson"
16, 0, MIDI_port, 0
16, 0, Channel_prefix, 0
16, 0, Control_c, 0, 7, 89
16, 0, Control_c, 0, 10, 55
16, 0, Program_c, 0, 73
16, 0, End_track
17, 0, Start_track
17, 0, Title_t, "Trombones"
17, 0, MIDI_port, 0
17, 0, Channel_prefix, 5
17, 0, Control_c, 5, 7, 88
17, 0, Control_c, 5, 10, 110
17, 0, Program_c, 5, 61
17, 480, Control_c, 5, 93, 85
17, 480, Control_c, 5, 10, 91
17, 480, Control_c, 5, 7, 90
17, 480, Program_c, 5, 61
17, 480, Control_c, 5, 91, 85
17, 5760, Note_on_c, 5, 60, 72
17, 5760, Note_on_c, 5, 48, 72
17, 5904, Note_off_c, 5, 48, 64
17, 5904, Note_off_c, 5, 60, 64
17, 7680, Note_on_c, 5, 59, 72
17, 7680, Note_on_c, 5, 62, 72
17, 7680, Note_on_c, 5, 67, 72
17, 7824, Note_off_c, 5, 67, 64
17, 7824, Note_off_c, 5, 62, 64
17, 7824, Note_off_c, 5, 59, 64
17, 9600, Note_on_c, 5, 64, 72
17, 9600, Note_on_c, 5, 60, 72
17, 9744, Note_off_c, 5, 60, 64
17, 9744, Note_off_c, 5, 64, 64
17, 10560, Note_on_c, 5, 60, 72
17, 10560, Note_on_c, 5, 65, 72
17, 10560, Note_on_c, 5, 53, 72
17, 10704, Note_off_c, 5, 53, 64
17, 10704, Note_off_c, 5, 65, 64
17, 10704, Note_off_c, 5, 60, 64
17, 11520, Note_on_c, 5, 55, 72
17, 11520, Note_on_c, 5, 59, 72
17, 11520, Note_on_c, 5, 62, 72
17, 11664, Note_off_c, 5, 62, 64
17, 11664, Note_off_c, 5, 59, 64
17, 11664, Note_off_c, 5, 55, 64
17, 12360, Note_on_c, 5, 59, 36
17, 12360, Note_on_c, 5, 55, 36
17, 12420, Note_off_c, 5, 55, 64
17, 12420, Note_off_c, 5, 59, 64
17, 12480, Note_on_c, 5, 60, 36
17, 12480, Note_on_c, 5, 57, 36
17, 12840, Note_off_c, 5, 57, 64
17, 12840, Note_off_c, 5, 60, 64
17, 12960, Note_on_c, 5, 62, 36
17, 12960, Note_on_c, 5, 59, 36
17, 13320, Note_off_c, 5, 59, 64
17, 13320, Note_off_c, 5, 62, 64
17, 13440, Note_on_c, 5, 48, 36
17, 13440, Note_on_c, 5, 60, 36
17, 13440, Note_on_c, 5, 64, 36
17, 13890, Note_off_c, 5, 64, 64
17, 13890, Note_off_c, 5, 60, 64
17, 13890, Note_off_c, 5, 48, 64
17, 20160, Note_on_c, 5, 67, 25
17, 20160, Note_on_c, 5, 48, 25
17, 20160, Note_on_c, 5, 55, 25
17, 20544, Note_off_c, 5, 55, 64
17, 20544, Note_off_c, 5, 48, 64
17, 20544, Note_off_c, 5, 67, 64
17, 20640, Note_on_c, 5, 55, 25
17, 20640, Note_on_c, 5, 48, 25
17, 20640, Note_on_c, 5, 65, 25
17, 20928, Note_off_c, 5, 65, 64
17, 20928, Note_off_c, 5, 48, 64
17, 20928, Note_off_c, 5, 55, 64
17, 21000, Note_on_c, 5, 48, 25
17, 21000, Note_on_c, 5, 55, 25
17, 21000, Note_on_c, 5, 64, 25
17, 21096, Note_off_c, 5, 64, 64
17, 21096, Note_off_c, 5, 55, 64
17, 21096, Note_off_c, 5, 48, 64
17, 21120, Note_on_c, 5, 47, 25
17, 21120, Note_on_c, 5, 62, 25
17, 21120, Note_on_c, 5, 55, 25
17, 21570, Note_off_c, 5, 55, 64
17, 21570, Note_off_c, 5, 62, 64
17, 21570, Note_off_c, 5, 47, 64
17, 27360, Note_on_c, 5, 55, 29
17, 27360, Note_on_c, 5, 52, 29
17, 27648, Note_off_c, 5, 52, 64
17, 27648, Note_off_c, 5, 55, 64
17, 27720, Note_on_c, 5, 52, 29
17, 27720, Note_on_c, 5, 55, 29
17, 27816, Note_off_c, 5, 55, 64
17, 27816, Note_off_c, 5, 52, 64
17, 27840, Note_on_c, 5, 52, 29
17, 27840, Note_on_c, 5, 55, 29
17, 28032, Note_off_c, 5, 55, 64
17, 28032, Note_off_c, 5, 52, 64
17, 28320, Note_on_c, 5, 52, 29
17, 28320, Note_on_c, 5, 55, 29
17, 28512, Note_off_c, 5, 55, 64
17, 28512, Note_off_c, 5, 52, 64
17, 28800, Note_on_c, 5, 52, 29
17, 28800, Note_on_c, 5, 55, 29
17, 28992, Note_off_c, 5, 55, 64
17, 28992, Note_off_c, 5, 52, 64
17, 42720, Note_on_c, 5, 43, 33
17, 42720, Note_on_c, 5, 60, 33
17, 42720, Note_on_c, 5, 64, 33
17, 43104, Note_off_c, 5, 64, 64
17, 43104, Note_off_c, 5, 60, 64
17, 43104, Note_off_c, 5, 43, 64
17, 43200, Note_on_c, 5, 59, 33
17, 43200, Note_on_c, 5, 62, 33
17, 43200, Note_on_c, 5, 43, 33
17, 43776, Note_off_c, 5, 43, 64
17, 43776, Note_off_c, 5, 62, 64
17, 43776, Note_off_c, 5, 59, 64
17, 43920, Note_on_c, 5, 43, 33
17, 43920, Note_on_c, 5, 60, 33
17, 44112, Note_off_c, 5, 60, 64
17, 44112, Note_off_c, 5, 43, 64
17, 44160, Note_on_c, 5, 48, 58
17, 44160, Note_on_c, 5, 60, 58
17, 44544, Note_off_c, 5, 60, 64
17, 44544, Note_off_c, 5, 48, 64
17, 50880, Note_on_c, 5, 55, 57
17, 50880, Note_on_c, 5, 67, 57
17, 50880, Note_on_c, 5, 48, 57
17, 51264, Note_off_c, 5, 48, 64
17, 51264, Note_off_c, 5, 67, 64
17, 51264, Note_off_c, 5, 55, 64
17, 51360, Note_on_c, 5, 65, 57
17, 51360, Note_on_c, 5, 48, 57
17, 51360, Note_on_c, 5, 55, 57
17, 51648, Note_off_c, 5, 55, 64
17, 51648, Note_off_c, 5, 48, 64
17, 51648, Note_off_c, 5, 65, 64
17, 51720, Note_on_c, 5, 64, 57
17, 51720, Note_on_c, 5, 48, 57
17, 51720, Note_on_c, 5, 55, 57
17, 51816, Note_off_c, 5, 55, 64
17, 51816, Note_off_c, 5, 48, 64
17, 51816, Note_off_c, 5, 64, 64
17, 51840, Note_on_c, 5, 55, 57
17, 51840, Note_on_c, 5, 47, 57
17, 51840, Note_on_c, 5, 62, 57
17, 52290, Note_off_c, 5, 62, 64
17, 52290, Note_off_c, 5, 47, 64
17, 52290, Note_off_c, 5, 55, 64
17, 58080, Note_on_c, 5, 52, 32
17, 58080, Note_on_c, 5, 67, 32
17, 58080, Note_on_c, 5, 55, 32
17, 58368, Note_off_c, 5, 55, 64
17, 58368, Note_off_c, 5, 67, 64
17, 58368, Note_off_c, 5, 52, 64
17, 58440, Note_on_c, 5, 67, 32
17, 58440, Note_on_c, 5, 55, 32
17, 58440, Note_on_c, 5, 52, 32
17, 58536, Note_off_c, 5, 52, 64
17, 58536, Note_off_c, 5, 55, 64
17, 58536, Note_off_c, 5, 67, 64
17, 58560, Note_on_c, 5, 67, 32
17, 58560, Note_on_c, 5, 55, 32
17, 58560, Note_on_c, 5, 52, 32
17, 58944, Note_off_c, 5, 52, 64
17, 58944, Note_off_c, 5, 55, 64
17, 58944, Note_off_c, 5, 67, 64
17, 59040, Note_on_c, 5, 67, 32
17, 59040, Note_on_c, 5, 55, 32
17, 59040, Note_on_c, 5, 52, 32
17, 59424, Note_off_c, 5, 52, 64
17, 59424, Note_off_c, 5, 55, 64
17, 59424, Note_off_c, 5, 67, 64
17, 73440, Note_on_c, 5, 60, 81
17, 73440, Note_on_c, 5, 64, 81
17, 73440, Note_on_c, 5, 43, 81
17, 73824, Note_off_c, 5, 43, 64
17, 73824, Note_off_c, 5, 64, 64
17, 73824, Note_off_c, 5, 60, 64
17, 73920, Note_on_c, 5, 59, 81
17, 73920, Note_on_c, 5, 62, 81
17, 73920, Note_on_c, 5, 43, 81
17, 74496, Note_off_c, 5, 43, 64
17, 74496, Note_off_c, 5, 62, 64
17, 74496, Note_off_c, 5, 59, 64
17, 74640, Note_on_c, 5, 43, 81
17, 74640, Note_on_c, 5, 60, 81
17, 74832, Note_off_c, 5, 60, 64
17, 74832, Note_off_c, 5, 43, 64
17, 74880, Note_on_c, 5, 60, 81
17, 74880, Note_on_c, 5, 48, 81
17, 75264, Note_off_c, 5, 48, 64
17, 75264, Note_off_c, 5, 60, 64
17, 75264, End_track
18, 0, Start_track
18, 0, Title_t, "AWE-32 optimized"
18, 0, MIDI_port, 0
18, 0, End_track
19, 0, Start_track
19, 0, Title_t, "Tuba"
19, 0, MIDI_port, 0
19, 0, Channel_prefix, 15
19, 0, Control_c, 15, 7, 88
19, 0, Control_c, 15, 10, 110
19, 0, Program_c, 15, 58
19, 480, Control_c, 15, 93, 85
19, 480, Control_c, 15, 10, 91
19, 480, Control_c, 15, 7, 90
19, 480, Program_c, 15, 61
19, 480, Control_c, 15, 91, 85
19, 5760, Note_on_c, 15, 60, 72
19, 5760, Note_on_c, 15, 48, 72
19, 5904, Note_off_c, 15, 48, 64
19, 5904, Note_off_c, 15, 60, 64
19, 7680, Note_on_c, 15, 59, 72
19, 7680, Note_on_c, 15, 62, 72
19, 7680, Note_on_c, 15, 67, 72
19, 7824, Note_off_c, 15, 67, 64
19, 7824, Note_off_c, 15, 62, 64
19, 7824, Note_off_c, 15, 59, 64
19, 9600, Note_on_c, 15, 60, 72
19, 9600, Note_on_c, 15, 64, 72
19, 9744, Note_off_c, 15, 64, 64
19, 9744, Note_off_c, 15, 60, 64
19, 10560, Note_on_c, 15, 53, 72
19, 10560, Note_on_c, 15, 65, 72
19, 10560, Note_on_c, 15, 60, 72
19, 10704, Note_off_c, 15, 60, 64
19, 10704, Note_off_c, 15, 65, 64
19, 10704, Note_off_c, 15, 53, 64
19, 11520, Note_on_c, 15, 59, 72
19, 11520, Note_on_c, 15, 55, 72
19, 11520, Note_on_c, 15, 62, 72
19, 11664, Note_off_c, 15, 62, 64
19, 11664, Note_off_c, 15, 55, 64
19, 11664, Note_off_c, 15, 59, 64
19, 12360, Note_on_c, 15, 59, 36
19, 12360, Note_on_c, 15, 55, 36
19, 12420, Note_off_c, 15, 55, 64
19, 12420, Note_off_c, 15, 59, 64
19, 12480, Note_on_c, 15, 57, 36
19, 12480, Note_on_c, 15, 60, 36
19, 12840, Note_off_c, 15, 60, 64
19, 12840, Note_off_c, 15, 57, 64
19, 12960, Note_on_c, 15, 59, 36
19, 12960, Note_on_c, 15, 62, 36
19, 13320, Note_off_c, 15, 62, 64
19, 13320, Note_off_c, 15, 59, 64
19, 13440, Note_on_c, 15, 48, 36
19, 13440, Note_on_c, 15, 64, 36
19, 13440, Note_on_c, 15, 60, 36
19, 13890, Note_off_c, 15, 60, 64
19, 13890, Note_off_c, 15, 64, 64
19, 13890, Note_off_c, 15, 48, 64
19, 15360, Program_c, 15, 71
19, 20160, Note_on_c, 15, 67, 25
19, 20160, Note_on_c, 15, 48, 25
19, 20160, Note_on_c, 15, 55, 25
19, 20544, Note_off_c, 15, 55, 64
19, 20544, Note_off_c, 15, 48, 64
19, 20544, Note_off_c, 15, 67, 64
19, 20640, Note_on_c, 15, 65, 25
19, 20640, Note_on_c, 15, 55, 25
19, 20640, Note_on_c, 15, 48, 25
19, 20928, Note_off_c, 15, 48, 64
19, 20928, Note_off_c, 15, 55, 64
19, 20928, Note_off_c, 15, 65, 64
19, 21000, Note_on_c, 15, 55, 25
19, 21000, Note_on_c, 15, 48, 25
19, 21000, Note_on_c, 15, 64, 25
19, 21096, Note_off_c, 15, 64, 64
19, 21096, Note_off_c, 15, 48, 64
19, 21096, Note_off_c, 15, 55, 64
19, 21120, Note_on_c, 15, 47, 25
19, 21120, Note_on_c, 15, 55, 25
19, 21120, Note_on_c, 15, 62, 25
19, 21570, Note_off_c, 15, 62, 64
19, 21570, Note_off_c, 15, 55, 64
19, 21570, Note_off_c, 15, 47, 64
19, 27360, Note_on_c, 15, 55, 29
19, 27360, Note_on_c, 15, 52, 29
19, 27648, Note_off_c, 15, 52, 64
19, 27648, Note_off_c, 15, 55, 64
19, 27720, Note_on_c, 15, 52, 29
19, 27720, Note_on_c, 15, 55, 29
19, 27816, Note_off_c, 15, 55, 64
19, 27816, Note_off_c, 15, 52, 64
19, 27840, Note_on_c, 15, 52, 29
19, 27840, Note_on_c, 15, 55, 29
19, 28032, Note_off_c, 15, 55, 64
19, 28032, Note_off_c, 15, 52, 64
19, 28320, Note_on_c, 15, 52, 29
19, 28320, Note_on_c, 15, 55, 29
19, 28512, Note_off_c, 15, 55, 64
19, 28512, Note_off_c, 15, 52, 64
19, 28800, Note_on_c, 15, 52, 29
19, 28800, Note_on_c, 15, 55, 29
19, 28992, Note_off_c, 15, 55, 64
19, 28992, Note_off_c, 15, 52, 64
19, 50880, Note_on_c, 15, 67, 57
19, 50880, Note_on_c, 15, 48, 57
19, 50880, Note_on_c, 15, 55, 57
19, 51264, Note_off_c, 15, 55, 64
19, 51264, Note_off_c, 15, 48, 64
19, 51264, Note_off_c, 15, 67, 64
19, 51360, Note_on_c, 15, 65, 57
19, 51360, Note_on_c, 15, 48, 57
19, 51360, Note_on_c, 15, 55, 57
19, 51648, Note_off_c, 15, 55, 64
19, 51648, Note_off_c, 15, 48, 64
19, 51648, Note_off_c, 15, 65, 64
19, 51720, Note_on_c, 15, 64, 57
19, 51720, Note_on_c, 15, 48, 57
19, 51720, Note_on_c, 15, 55, 57
19, 51816, Note_off_c, 15, 55, 64
19, 51816, Note_off_c, 15, 48, 64
19, 51816, Note_off_c, 15, 64, 64
19, 51840, Note_on_c, 15, 47, 57
19, 51840, Note_on_c, 15, 55, 57
19, 51840, Note_on_c, 15, 62, 57
19, 52290, Note_off_c, 15, 62, 64
19, 52290, Note_off_c, 15, 55, 64
19, 52290, Note_off_c, 15, 47, 64
19, 52290, End_track
20, 0, Start_track
20, 0, Title_t, "2/1/98"
20, 0, MIDI_port, 0
20, 0, End_track
0, 0, End_of_file