0, 0, Header, 1, 3, 192
1, 0, Start_track
1, 0, Title_t, "Bagatellen No.4 A Major"
1, 0, Text_t, "By Ludwig Van Beethoven"
1, 0, Copyright_t, "Copyright \251April 2001 by Reginald Steven Ritchie"
1, 0, Copyright_t, "Reginald Steven Ritchie"
1, 0, Text_t, "Generated by NoteWorthy Composer"
1, 0, Tempo, 571428
1, 0, Tempo, 571428
1, 0, Time_signature, 2, 2, 24, 8
1, 0, Key_signature, 3, "major"
1, 3168, Tempo, 571428
1, 3168, Tempo, 571428
1, 13056, Key_signature, 0, "major"
1, 18432, Key_signature, 3, "major"
1, 18432, End_track
2, 0, Start_track
2, 0, MIDI_port, 0
2, 0, Title_t, "Copyright 2001 Reg"
2, 0, Program_c, 0, 0
2, 0, Control_c, 0, 7, 127
2, 0, Control_c, 0, 10, 111
2, 0, Program_c, 0, 0
2, 0, Control_c, 0, 7, 127
2, 0, Control_c, 0, 10, 111
2, 0, Control_c, 0, 91, 84
2, 0, Control_c, 0, 93, 84
2, 0, Note_on_c, 0, 64, 60
2, 94, Note_on_c, 0, 64, 0
2, 96, Note_on_c, 0, 69, 60
2, 96, Note_on_c, 0, 76, 60
2, 238, Note_on_c, 0, 69, 0
2, 240, Note_on_c, 0, 68, 60
2, 256, Note_on_c, 0, 76, 0
2, 286, Note_on_c, 0, 68, 0
2, 288, Note_on_c, 0, 69, 60
2, 288, Note_on_c, 0, 76, 60
2, 320, Note_on_c, 0, 69, 0
2, 320, Note_on_c, 0, 76, 0
2, 384, Note_on_c, 0, 73, 60
2, 384, Note_on_c, 0, 76, 60
2, 416, Note_on_c, 0, 73, 0
2, 416, Note_on_c, 0, 76, 0
2, 480, Note_on_c, 0, 71, 60
2, 480, Note_on_c, 0, 76, 60
2, 502, Note_on_c, 0, 76, 0
2, 504, Note_on_c, 0, 78, 64
2, 526, Note_on_c, 0, 78, 0
2, 528, Note_on_c, 0, 76, 68
2, 550, Note_on_c, 0, 76, 0
2, 552, Note_on_c, 0, 78, 72
2, 574, Note_on_c, 0, 78, 0
2, 576, Note_on_c, 0, 75, 76
2, 576, Note_on_c, 0, 78, 76
2, 598, Note_on_c, 0, 75, 0
2, 600, Note_on_c, 0, 76, 76
2, 622, Note_on_c, 0, 76, 0
2, 622, Note_on_c, 0, 78, 0
2, 624, Note_on_c, 0, 80, 84
2, 640, Note_on_c, 0, 71, 0
2, 670, Note_on_c, 0, 80, 0
2, 672, Note_on_c, 0, 81, 92
2, 766, Note_on_c, 0, 81, 0
2, 768, Note_on_c, 0, 76, 92
2, 862, Note_on_c, 0, 76, 0
2, 864, Note_on_c, 0, 68, 60
2, 864, Note_on_c, 0, 76, 60
2, 958, Note_on_c, 0, 68, 0
2, 960, Note_on_c, 0, 71, 60
2, 1024, Note_on_c, 0, 76, 0
2, 1054, Note_on_c, 0, 71, 0
2, 1056, Note_on_c, 0, 68, 60
2, 1056, Note_on_c, 0, 76, 60
2, 1088, Note_on_c, 0, 68, 0
2, 1088, Note_on_c, 0, 76, 0
2, 1152, Note_on_c, 0, 71, 60
2, 1152, Note_on_c, 0, 76, 60
2, 1184, Note_on_c, 0, 71, 0
2, 1184, Note_on_c, 0, 76, 0
2, 1248, Note_on_c, 0, 69, 60
2, 1248, Note_on_c, 0, 76, 60
2, 1294, Note_on_c, 0, 76, 0
2, 1296, Note_on_c, 0, 75, 60
2, 1342, Note_on_c, 0, 69, 0
2, 1342, Note_on_c, 0, 75, 0
2, 1344, Note_on_c, 0, 76, 60
2, 1390, Note_on_c, 0, 76, 0
2, 1392, Note_on_c, 0, 78, 60
2, 1438, Note_on_c, 0, 78, 0
2, 1440, Note_on_c, 0, 76, 60
2, 1486, Note_on_c, 0, 76, 0
2, 1488, Note_on_c, 0, 74, 60
2, 1534, Note_on_c, 0, 74, 0
2, 1536, Note_on_c, 0, 73, 60
2, 1582, Note_on_c, 0, 73, 0
2, 1584, Note_on_c, 0, 71, 60
2, 1630, Note_on_c, 0, 71, 0
2, 1632, Note_on_c, 0, 69, 60
2, 1632, Note_on_c, 0, 76, 60
2, 1774, Note_on_c, 0, 69, 0
2, 1776, Note_on_c, 0, 68, 60
2, 1792, Note_on_c, 0, 76, 0
2, 1822, Note_on_c, 0, 68, 0
2, 1824, Note_on_c, 0, 69, 60
2, 1824, Note_on_c, 0, 76, 60
2, 1856, Note_on_c, 0, 69, 0
2, 1856, Note_on_c, 0, 76, 0
2, 1920, Note_on_c, 0, 73, 60
2, 1920, Note_on_c, 0, 76, 60
2, 1952, Note_on_c, 0, 73, 0
2, 1952, Note_on_c, 0, 76, 0
2, 2016, Note_on_c, 0, 71, 60
2, 2016, Note_on_c, 0, 76, 60
2, 2038, Note_on_c, 0, 76, 0
2, 2040, Note_on_c, 0, 78, 64
2, 2062, Note_on_c, 0, 78, 0
2, 2064, Note_on_c, 0, 76, 68
2, 2086, Note_on_c, 0, 76, 0
2, 2088, Note_on_c, 0, 78, 72
2, 2110, Note_on_c, 0, 78, 0
2, 2112, Note_on_c, 0, 75, 76
2, 2112, Note_on_c, 0, 78, 76
2, 2134, Note_on_c, 0, 75, 0
2, 2136, Note_on_c, 0, 76, 76
2, 2158, Note_on_c, 0, 76, 0
2, 2158, Note_on_c, 0, 78, 0
2, 2160, Note_on_c, 0, 80, 84
2, 2176, Note_on_c, 0, 71, 0
2, 2206, Note_on_c, 0, 80, 0
2, 2208, Note_on_c, 0, 81, 92
2, 2302, Note_on_c, 0, 81, 0
2, 2304, Note_on_c, 0, 76, 92
2, 2398, Note_on_c, 0, 76, 0
2, 2400, Note_on_c, 0, 68, 60
2, 2400, Note_on_c, 0, 76, 60
2, 2494, Note_on_c, 0, 68, 0
2, 2496, Note_on_c, 0, 71, 60
2, 2560, Note_on_c, 0, 76, 0
2, 2590, Note_on_c, 0, 71, 0
2, 2592, Note_on_c, 0, 68, 60
2, 2592, Note_on_c, 0, 76, 60
2, 2624, Note_on_c, 0, 68, 0
2, 2624, Note_on_c, 0, 76, 0
2, 2688, Note_on_c, 0, 71, 60
2, 2688, Note_on_c, 0, 76, 60
2, 2720, Note_on_c, 0, 71, 0
2, 2720, Note_on_c, 0, 76, 0
2, 2784, Note_on_c, 0, 69, 60
2, 2944, Note_on_c, 0, 69, 0
2, 3168, Control_c, 0, 91, 84
2, 3168, Control_c, 0, 93, 84
2, 3168, Note_on_c, 0, 64, 60
2, 3262, Note_on_c, 0, 64, 0
2, 3264, Note_on_c, 0, 69, 60
2, 3264, Note_on_c, 0, 76, 60
2, 3406, Note_on_c, 0, 69, 0
2, 3408, Note_on_c, 0, 68, 60
2, 3424, Note_on_c, 0, 76, 0
2, 3454, Note_on_c, 0, 68, 0
2, 3456, Note_on_c, 0, 69, 60
2, 3456, Note_on_c, 0, 76, 60
2, 3488, Note_on_c, 0, 69, 0
2, 3488, Note_on_c, 0, 76, 0
2, 3552, Note_on_c, 0, 73, 60
2, 3552, Note_on_c, 0, 76, 60
2, 3584, Note_on_c, 0, 73, 0
2, 3584, Note_on_c, 0, 76, 0
2, 3648, Note_on_c, 0, 71, 60
2, 3648, Note_on_c, 0, 76, 60
2, 3670, Note_on_c, 0, 76, 0
2, 3672, Note_on_c, 0, 78, 64
2, 3694, Note_on_c, 0, 78, 0
2, 3696, Note_on_c, 0, 76, 68
2, 3718, Note_on_c, 0, 76, 0
2, 3720, Note_on_c, 0, 78, 72
2, 3742, Note_on_c, 0, 78, 0
2, 3744, Note_on_c, 0, 75, 76
2, 3744, Note_on_c, 0, 78, 76
2, 3766, Note_on_c, 0, 75, 0
2, 3768, Note_on_c, 0, 76, 76
2, 3790, Note_on_c, 0, 76, 0
2, 3790, Note_on_c, 0, 78, 0
2, 3792, Note_on_c, 0, 80, 84
2, 3808, Note_on_c, 0, 71, 0
2, 3838, Note_on_c, 0, 80, 0
2, 3840, Note_on_c, 0, 81, 92
2, 3934, Note_on_c, 0, 81, 0
2, 3936, Note_on_c, 0, 76, 92
2, 4030, Note_on_c, 0, 76, 0
2, 4032, Note_on_c, 0, 68, 60
2, 4032, Note_on_c, 0, 76, 60
2, 4126, Note_on_c, 0, 68, 0
2, 4128, Note_on_c, 0, 71, 60
2, 4192, Note_on_c, 0, 76, 0
2, 4222, Note_on_c, 0, 71, 0
2, 4224, Note_on_c, 0, 68, 60
2, 4224, Note_on_c, 0, 76, 60
2, 4256, Note_on_c, 0, 68, 0
2, 4256, Note_on_c, 0, 76, 0
2, 4320, Note_on_c, 0, 71, 60
2, 4320, Note_on_c, 0, 76, 60
2, 4352, Note_on_c, 0, 71, 0
2, 4352, Note_on_c, 0, 76, 0
2, 4416, Note_on_c, 0, 69, 60
2, 4416, Note_on_c, 0, 76, 60
2, 4462, Note_on_c, 0, 76, 0
2, 4464, Note_on_c, 0, 75, 60
2, 4510, Note_on_c, 0, 69, 0
2, 4510, Note_on_c, 0, 75, 0
2, 4512, Note_on_c, 0, 76, 60
2, 4558, Note_on_c, 0, 76, 0
2, 4560, Note_on_c, 0, 78, 60
2, 4606, Note_on_c, 0, 78, 0
2, 4608, Note_on_c, 0, 76, 60
2, 4654, Note_on_c, 0, 76, 0
2, 4656, Note_on_c, 0, 74, 60
2, 4702, Note_on_c, 0, 74, 0
2, 4704, Note_on_c, 0, 73, 60
2, 4750, Note_on_c, 0, 73, 0
2, 4752, Note_on_c, 0, 71, 60
2, 4798, Note_on_c, 0, 71, 0
2, 4800, Note_on_c, 0, 69, 60
2, 4800, Note_on_c, 0, 76, 60
2, 4942, Note_on_c, 0, 69, 0
2, 4944, Note_on_c, 0, 68, 60
2, 4960, Note_on_c, 0, 76, 0
2, 4990, Note_on_c, 0, 68, 0
2, 4992, Note_on_c, 0, 69, 60
2, 4992, Note_on_c, 0, 76, 60
2, 5024, Note_on_c, 0, 69, 0
2, 5024, Note_on_c, 0, 76, 0
2, 5088, Note_on_c, 0, 73, 60
2, 5088, Note_on_c, 0, 76, 60
2, 5120, Note_on_c, 0, 73, 0
2, 5120, Note_on_c, 0, 76, 0
2, 5184, Note_on_c, 0, 71, 60
2, 5184, Note_on_c, 0, 76, 60
2, 5206, Note_on_c, 0, 76, 0
2, 5208, Note_on_c, 0, 78, 64
2, 5230, Note_on_c, 0, 78, 0
2, 5232, Note_on_c, 0, 76, 68
2, 5254, Note_on_c, 0, 76, 0
2, 5256, Note_on_c, 0, 78, 72
2, 5278, Note_on_c, 0, 78, 0
2, 5280, Note_on_c, 0, 75, 76
2, 5280, Note_on_c, 0, 78, 76
2, 5302, Note_on_c, 0, 75, 0
2, 5304, Note_on_c, 0, 76, 76
2, 5326, Note_on_c, 0, 76, 0
2, 5326, Note_on_c, 0, 78, 0
2, 5328, Note_on_c, 0, 80, 84
2, 5344, Note_on_c, 0, 71, 0
2, 5374, Note_on_c, 0, 80, 0
2, 5376, Note_on_c, 0, 81, 92
2, 5470, Note_on_c, 0, 81, 0
2, 5472, Note_on_c, 0, 76, 92
2, 5566, Note_on_c, 0, 76, 0
2, 5568, Note_on_c, 0, 68, 60
2, 5568, Note_on_c, 0, 76, 60
2, 5662, Note_on_c, 0, 68, 0
2, 5664, Note_on_c, 0, 71, 60
2, 5728, Note_on_c, 0, 76, 0
2, 5758, Note_on_c, 0, 71, 0
2, 5760, Note_on_c, 0, 68, 60
2, 5760, Note_on_c, 0, 76, 60
2, 5792, Note_on_c, 0, 68, 0
2, 5792, Note_on_c, 0, 76, 0
2, 5856, Note_on_c, 0, 71, 60
2, 5856, Note_on_c, 0, 76, 60
2, 5888, Note_on_c, 0, 71, 0
2, 5888, Note_on_c, 0, 76, 0
2, 5952, Note_on_c, 0, 69, 60
2, 6112, Note_on_c, 0, 69, 0
2, 6336, Note_on_c, 0, 76, 60
2, 6430, Note_on_c, 0, 76, 0
2, 6432, Note_on_c, 0, 68, 60
2, 6432, Note_on_c, 0, 74, 60
2, 6574, Note_on_c, 0, 74, 0
2, 6576, Note_on_c, 0, 76, 60
2, 6622, Note_on_c, 0, 76, 0
2, 6624, Note_on_c, 0, 74, 60
2, 6688, Note_on_c, 0, 68, 0
2, 6718, Note_on_c, 0, 74, 0
2, 6720, Note_on_c, 0, 69, 60
2, 6720, Note_on_c, 0, 73, 60
2, 6814, Note_on_c, 0, 69, 0
2, 6814, Note_on_c, 0, 73, 0
2, 6816, Note_on_c, 0, 68, 60
2, 6816, Note_on_c, 0, 71, 60
2, 6958, Note_on_c, 0, 71, 0
2, 6960, Note_on_c, 0, 73, 60
2, 7006, Note_on_c, 0, 73, 0
2, 7008, Note_on_c, 0, 71, 60
2, 7072, Note_on_c, 0, 68, 0
2, 7102, Note_on_c, 0, 71, 0
2, 7104, Note_on_c, 0, 64, 60
2, 7104, Note_on_c, 0, 69, 60
2, 7198, Note_on_c, 0, 64, 0
2, 7198, Note_on_c, 0, 69, 0
2, 7200, Note_on_c, 0, 68, 60
2, 7200, Note_on_c, 0, 76, 60
2, 7246, Note_on_c, 0, 76, 0
2, 7248, Note_on_c, 0, 74, 60
2, 7294, Note_on_c, 0, 68, 0
2, 7294, Note_on_c, 0, 74, 0
2, 7296, Note_on_c, 0, 69, 60
2, 7296, Note_on_c, 0, 73, 60
2, 7328, Note_on_c, 0, 69, 0
2, 7328, Note_on_c, 0, 73, 0
2, 7392, Note_on_c, 0, 68, 60
2, 7392, Note_on_c, 0, 76, 60
2, 7438, Note_on_c, 0, 76, 0
2, 7440, Note_on_c, 0, 74, 60
2, 7486, Note_on_c, 0, 68, 0
2, 7486, Note_on_c, 0, 74, 0
2, 7488, Note_on_c, 0, 69, 60
2, 7488, Note_on_c, 0, 73, 60
2, 7520, Note_on_c, 0, 69, 0
2, 7520, Note_on_c, 0, 73, 0
2, 7584, Note_on_c, 0, 68, 60
2, 7584, Note_on_c, 0, 71, 60
2, 7776, Note_on_c, 0, 68, 0
2, 7776, Note_on_c, 0, 71, 0
2, 7776, Note_on_c, 0, 68, 60
2, 7776, Note_on_c, 0, 71, 60
2, 7822, Note_on_c, 0, 68, 0
2, 7822, Note_on_c, 0, 71, 0
2, 7824, Note_on_c, 0, 64, 60
2, 7870, Note_on_c, 0, 64, 0
2, 7872, Note_on_c, 0, 66, 60
2, 7918, Note_on_c, 0, 66, 0
2, 7920, Note_on_c, 0, 68, 60
2, 7966, Note_on_c, 0, 68, 0
2, 7968, Note_on_c, 0, 69, 60
2, 7968, Note_on_c, 0, 76, 60
2, 8110, Note_on_c, 0, 69, 0
2, 8112, Note_on_c, 0, 68, 60
2, 8128, Note_on_c, 0, 76, 0
2, 8158, Note_on_c, 0, 68, 0
2, 8160, Note_on_c, 0, 69, 60
2, 8160, Note_on_c, 0, 76, 60
2, 8192, Note_on_c, 0, 69, 0
2, 8192, Note_on_c, 0, 76, 0
2, 8256, Note_on_c, 0, 73, 60
2, 8256, Note_on_c, 0, 76, 60
2, 8288, Note_on_c, 0, 73, 0
2, 8288, Note_on_c, 0, 76, 0
2, 8352, Note_on_c, 0, 71, 60
2, 8352, Note_on_c, 0, 76, 60
2, 8374, Note_on_c, 0, 76, 0
2, 8376, Note_on_c, 0, 78, 64
2, 8398, Note_on_c, 0, 78, 0
2, 8400, Note_on_c, 0, 76, 68
2, 8422, Note_on_c, 0, 76, 0
2, 8424, Note_on_c, 0, 78, 72
2, 8446, Note_on_c, 0, 78, 0
2, 8448, Note_on_c, 0, 75, 76
2, 8448, Note_on_c, 0, 78, 76
2, 8470, Note_on_c, 0, 75, 0
2, 8472, Note_on_c, 0, 76, 76
2, 8494, Note_on_c, 0, 76, 0
2, 8494, Note_on_c, 0, 78, 0
2, 8496, Note_on_c, 0, 80, 84
2, 8512, Note_on_c, 0, 71, 0
2, 8542, Note_on_c, 0, 80, 0
2, 8544, Note_on_c, 0, 81, 92
2, 8638, Note_on_c, 0, 81, 0
2, 8640, Note_on_c, 0, 76, 92
2, 8734, Note_on_c, 0, 76, 0
2, 8736, Note_on_c, 0, 68, 60
2, 8736, Note_on_c, 0, 76, 60
2, 8830, Note_on_c, 0, 68, 0
2, 8832, Note_on_c, 0, 71, 60
2, 8896, Note_on_c, 0, 76, 0
2, 8926, Note_on_c, 0, 71, 0
2, 8928, Note_on_c, 0, 68, 60
2, 8928, Note_on_c, 0, 76, 60
2, 8960, Note_on_c, 0, 68, 0
2, 8960, Note_on_c, 0, 76, 0
2, 9024, Note_on_c, 0, 71, 60
2, 9024, Note_on_c, 0, 76, 60
2, 9056, Note_on_c, 0, 71, 0
2, 9056, Note_on_c, 0, 76, 0
2, 9120, Note_on_c, 0, 69, 60
2, 9280, Note_on_c, 0, 69, 0
2, 9504, Note_on_c, 0, 76, 60
2, 9598, Note_on_c, 0, 76, 0
2, 9600, Note_on_c, 0, 68, 60
2, 9600, Note_on_c, 0, 74, 60
2, 9742, Note_on_c, 0, 74, 0
2, 9744, Note_on_c, 0, 76, 60
2, 9790, Note_on_c, 0, 76, 0
2, 9792, Note_on_c, 0, 74, 60
2, 9856, Note_on_c, 0, 68, 0
2, 9886, Note_on_c, 0, 74, 0
2, 9888, Note_on_c, 0, 69, 60
2, 9888, Note_on_c, 0, 73, 60
2, 9982, Note_on_c, 0, 69, 0
2, 9982, Note_on_c, 0, 73, 0
2, 9984, Note_on_c, 0, 68, 60
2, 9984, Note_on_c, 0, 71, 60
2, 10126, Note_on_c, 0, 71, 0
2, 10128, Note_on_c, 0, 73, 60
2, 10174, Note_on_c, 0, 73, 0
2, 10176, Note_on_c, 0, 71, 60
2, 10240, Note_on_c, 0, 68, 0
2, 10270, Note_on_c, 0, 71, 0
2, 10272, Note_on_c, 0, 64, 60
2, 10272, Note_on_c, 0, 69, 60
2, 10366, Note_on_c, 0, 64, 0
2, 10366, Note_on_c, 0, 69, 0
2, 10368, Note_on_c, 0, 68, 60
2, 10368, Note_on_c, 0, 76, 60
2, 10414, Note_on_c, 0, 76, 0
2, 10416, Note_on_c, 0, 74, 60
2, 10462, Note_on_c, 0, 68, 0
2, 10462, Note_on_c, 0, 74, 0
2, 10464, Note_on_c, 0, 69, 60
2, 10464, Note_on_c, 0, 73, 60
2, 10496, Note_on_c, 0, 69, 0
2, 10496, Note_on_c, 0, 73, 0
2, 10560, Note_on_c, 0, 68, 60
2, 10560, Note_on_c, 0, 76, 60
2, 10606, Note_on_c, 0, 76, 0
2, 10608, Note_on_c, 0, 74, 60
2, 10654, Note_on_c, 0, 68, 0
2, 10654, Note_on_c, 0, 74, 0
2, 10656, Note_on_c, 0, 69, 60
2, 10656, Note_on_c, 0, 73, 60
2, 10688, Note_on_c, 0, 69, 0
2, 10688, Note_on_c, 0, 73, 0
2, 10752, Note_on_c, 0, 68, 60
2, 10752, Note_on_c, 0, 71, 60
2, 10944, Note_on_c, 0, 68, 0
2, 10944, Note_on_c, 0, 71, 0
2, 10944, Note_on_c, 0, 68, 60
2, 10944, Note_on_c, 0, 71, 60
2, 10990, Note_on_c, 0, 68, 0
2, 10990, Note_on_c, 0, 71, 0
2, 10992, Note_on_c, 0, 64, 60
2, 11038, Note_on_c, 0, 64, 0
2, 11040, Note_on_c, 0, 66, 60
2, 11086, Note_on_c, 0, 66, 0
2, 11088, Note_on_c, 0, 68, 60
2, 11134, Note_on_c, 0, 68, 0
2, 11136, Note_on_c, 0, 69, 60
2, 11136, Note_on_c, 0, 76, 60
2, 11278, Note_on_c, 0, 69, 0
2, 11280, Note_on_c, 0, 68, 60
2, 11296, Note_on_c, 0, 76, 0
2, 11326, Note_on_c, 0, 68, 0
2, 11328, Note_on_c, 0, 69, 60
2, 11328, Note_on_c, 0, 76, 60
2, 11360, Note_on_c, 0, 69, 0
2, 11360, Note_on_c, 0, 76, 0
2, 11424, Note_on_c, 0, 73, 60
2, 11424, Note_on_c, 0, 76, 60
2, 11456, Note_on_c, 0, 73, 0
2, 11456, Note_on_c, 0, 76, 0
2, 11520, Note_on_c, 0, 71, 60
2, 11520, Note_on_c, 0, 76, 60
2, 11542, Note_on_c, 0, 76, 0
2, 11544, Note_on_c, 0, 78, 64
2, 11566, Note_on_c, 0, 78, 0
2, 11568, Note_on_c, 0, 76, 68
2, 11590, Note_on_c, 0, 76, 0
2, 11592, Note_on_c, 0, 78, 72
2, 11614, Note_on_c, 0, 78, 0
2, 11616, Note_on_c, 0, 75, 76
2, 11616, Note_on_c, 0, 78, 76
2, 11638, Note_on_c, 0, 75, 0
2, 11640, Note_on_c, 0, 76, 76
2, 11662, Note_on_c, 0, 76, 0
2, 11662, Note_on_c, 0, 78, 0
2, 11664, Note_on_c, 0, 80, 84
2, 11680, Note_on_c, 0, 71, 0
2, 11710, Note_on_c, 0, 80, 0
2, 11712, Note_on_c, 0, 81, 92
2, 11806, Note_on_c, 0, 81, 0
2, 11808, Note_on_c, 0, 76, 92
2, 11902, Note_on_c, 0, 76, 0
2, 11904, Note_on_c, 0, 68, 60
2, 11904, Note_on_c, 0, 76, 60
2, 11998, Note_on_c, 0, 68, 0
2, 12000, Note_on_c, 0, 71, 60
2, 12064, Note_on_c, 0, 76, 0
2, 12094, Note_on_c, 0, 71, 0
2, 12096, Note_on_c, 0, 68, 60
2, 12096, Note_on_c, 0, 76, 60
2, 12128, Note_on_c, 0, 68, 0
2, 12128, Note_on_c, 0, 76, 0
2, 12192, Note_on_c, 0, 71, 60
2, 12192, Note_on_c, 0, 76, 60
2, 12224, Note_on_c, 0, 71, 0
2, 12224, Note_on_c, 0, 76, 0
2, 12288, Note_on_c, 0, 69, 60
2, 12448, Note_on_c, 0, 69, 0
2, 12672, Note_on_c, 0, 69, 45
2, 12832, Note_on_c, 0, 69, 0
2, 12912, Note_on_c, 0, 52, 45
2, 12958, Note_on_c, 0, 52, 0
2, 12960, Note_on_c, 0, 57, 45
2, 12960, Note_on_c, 0, 60, 45
2, 13006, Note_on_c, 0, 57, 0
2, 13006, Note_on_c, 0, 60, 0
2, 13008, Note_on_c, 0, 57, 45
2, 13008, Note_on_c, 0, 60, 45
2, 13040, Note_on_c, 0, 57, 0
2, 13040, Note_on_c, 0, 60, 0
2, 13104, Note_on_c, 0, 52, 45
2, 13152, Note_on_c, 0, 52, 0
2, 13152, Note_on_c, 0, 56, 45
2, 13152, Note_on_c, 0, 59, 45
2, 13198, Note_on_c, 0, 56, 0
2, 13198, Note_on_c, 0, 59, 0
2, 13200, Note_on_c, 0, 56, 45
2, 13200, Note_on_c, 0, 59, 45
2, 13232, Note_on_c, 0, 56, 0
2, 13232, Note_on_c, 0, 59, 0
2, 13296, Note_on_c, 0, 52, 45
2, 13344, Note_on_c, 0, 52, 0
2, 13344, Note_on_c, 0, 55, 45
2, 13344, Note_on_c, 0, 57, 45
2, 13344, Note_on_c, 0, 61, 45
2, 13390, Note_on_c, 0, 55, 0
2, 13390, Note_on_c, 0, 57, 0
2, 13390, Note_on_c, 0, 61, 0
2, 13392, Note_on_c, 0, 55, 45
2, 13392, Note_on_c, 0, 57, 45
2, 13392, Note_on_c, 0, 61, 45
2, 13424, Note_on_c, 0, 55, 0
2, 13424, Note_on_c, 0, 57, 0
2, 13424, Note_on_c, 0, 61, 0
2, 13488, Note_on_c, 0, 53, 45
2, 13536, Note_on_c, 0, 53, 0
2, 13536, Note_on_c, 0, 57, 45
2, 13536, Note_on_c, 0, 62, 45
2, 13582, Note_on_c, 0, 57, 0
2, 13582, Note_on_c, 0, 62, 0
2, 13584, Note_on_c, 0, 57, 45
2, 13584, Note_on_c, 0, 62, 45
2, 13616, Note_on_c, 0, 57, 0
2, 13616, Note_on_c, 0, 62, 0
2, 13680, Note_on_c, 0, 57, 45
2, 13728, Note_on_c, 0, 57, 0
2, 13728, Note_on_c, 0, 61, 45
2, 13728, Note_on_c, 0, 64, 45
2, 13774, Note_on_c, 0, 61, 0
2, 13774, Note_on_c, 0, 64, 0
2, 13776, Note_on_c, 0, 61, 45
2, 13776, Note_on_c, 0, 64, 45
2, 13808, Note_on_c, 0, 61, 0
2, 13808, Note_on_c, 0, 64, 0
2, 13872, Note_on_c, 0, 57, 45
2, 13920, Note_on_c, 0, 57, 0
2, 13920, Note_on_c, 0, 62, 45
2, 13920, Note_on_c, 0, 65, 45
2, 13966, Note_on_c, 0, 62, 0
2, 13966, Note_on_c, 0, 65, 0
2, 13968, Note_on_c, 0, 62, 45
2, 13968, Note_on_c, 0, 65, 45
2, 14000, Note_on_c, 0, 62, 0
2, 14000, Note_on_c, 0, 65, 0
2, 14064, Note_on_c, 0, 59, 45
2, 14112, Note_on_c, 0, 59, 0
2, 14112, Note_on_c, 0, 62, 45
2, 14112, Note_on_c, 0, 67, 45
2, 14158, Note_on_c, 0, 62, 0
2, 14158, Note_on_c, 0, 67, 0
2, 14160, Note_on_c, 0, 62, 45
2, 14160, Note_on_c, 0, 67, 45
2, 14192, Note_on_c, 0, 62, 0
2, 14192, Note_on_c, 0, 67, 0
2, 14256, Note_on_c, 0, 55, 45
2, 14304, Note_on_c, 0, 55, 0
2, 14304, Note_on_c, 0, 60, 45
2, 14304, Note_on_c, 0, 64, 45
2, 14350, Note_on_c, 0, 60, 0
2, 14350, Note_on_c, 0, 64, 0
2, 14352, Note_on_c, 0, 60, 45
2, 14352, Note_on_c, 0, 64, 45
2, 14384, Note_on_c, 0, 60, 0
2, 14384, Note_on_c, 0, 64, 0
2, 14448, Note_on_c, 0, 64, 45
2, 14496, Note_on_c, 0, 64, 0
2, 14496, Note_on_c, 0, 69, 45
2, 14496, Note_on_c, 0, 72, 45
2, 14542, Note_on_c, 0, 69, 0
2, 14542, Note_on_c, 0, 72, 0
2, 14544, Note_on_c, 0, 69, 45
2, 14544, Note_on_c, 0, 72, 45
2, 14576, Note_on_c, 0, 69, 0
2, 14576, Note_on_c, 0, 72, 0
2, 14640, Note_on_c, 0, 63, 45
2, 14688, Note_on_c, 0, 63, 0
2, 14688, Note_on_c, 0, 66, 45
2, 14688, Note_on_c, 0, 71, 45
2, 14734, Note_on_c, 0, 66, 0
2, 14734, Note_on_c, 0, 71, 0
2, 14736, Note_on_c, 0, 66, 45
2, 14736, Note_on_c, 0, 71, 45
2, 14768, Note_on_c, 0, 66, 0
2, 14768, Note_on_c, 0, 71, 0
2, 14832, Note_on_c, 0, 59, 45
2, 14880, Note_on_c, 0, 59, 0
2, 14880, Note_on_c, 0, 66, 45
2, 14880, Note_on_c, 0, 69, 45
2, 14926, Note_on_c, 0, 66, 0
2, 14926, Note_on_c, 0, 69, 0
2, 14928, Note_on_c, 0, 66, 45
2, 14928, Note_on_c, 0, 69, 45
2, 14960, Note_on_c, 0, 66, 0
2, 14960, Note_on_c, 0, 69, 0
2, 15024, Note_on_c, 0, 59, 45
2, 15072, Note_on_c, 0, 59, 0
2, 15072, Note_on_c, 0, 62, 45
2, 15072, Note_on_c, 0, 68, 45
2, 15118, Note_on_c, 0, 62, 0
2, 15118, Note_on_c, 0, 68, 0
2, 15120, Note_on_c, 0, 62, 45
2, 15120, Note_on_c, 0, 68, 45
2, 15152, Note_on_c, 0, 62, 0
2, 15152, Note_on_c, 0, 68, 0
2, 15216, Note_on_c, 0, 57, 45
2, 15264, Note_on_c, 0, 57, 0
2, 15264, Note_on_c, 0, 60, 45
2, 15264, Note_on_c, 0, 69, 45
2, 15310, Note_on_c, 0, 60, 0
2, 15310, Note_on_c, 0, 69, 0
2, 15312, Note_on_c, 0, 60, 45
2, 15312, Note_on_c, 0, 69, 45
2, 15344, Note_on_c, 0, 60, 0
2, 15344, Note_on_c, 0, 69, 0
2, 15408, Note_on_c, 0, 59, 45
2, 15456, Note_on_c, 0, 59, 0
2, 15456, Note_on_c, 0, 65, 45
2, 15456, Note_on_c, 0, 69, 45
2, 15502, Note_on_c, 0, 65, 0
2, 15502, Note_on_c, 0, 69, 0
2, 15504, Note_on_c, 0, 65, 45
2, 15504, Note_on_c, 0, 69, 45
2, 15536, Note_on_c, 0, 65, 0
2, 15536, Note_on_c, 0, 69, 0
2, 15600, Note_on_c, 0, 59, 45
2, 15648, Note_on_c, 0, 59, 0
2, 15648, Note_on_c, 0, 62, 45
2, 15648, Note_on_c, 0, 68, 45
2, 15694, Note_on_c, 0, 62, 0
2, 15694, Note_on_c, 0, 68, 0
2, 15696, Note_on_c, 0, 62, 45
2, 15696, Note_on_c, 0, 68, 45
2, 15728, Note_on_c, 0, 62, 0
2, 15728, Note_on_c, 0, 68, 0
2, 15792, Note_on_c, 0, 57, 45
2, 15840, Note_on_c, 0, 57, 0
2, 15840, Note_on_c, 0, 60, 45
2, 15840, Note_on_c, 0, 69, 45
2, 15886, Note_on_c, 0, 60, 0
2, 15886, Note_on_c, 0, 69, 0
2, 15888, Note_on_c, 0, 60, 45
2, 15888, Note_on_c, 0, 69, 45
2, 15920, Note_on_c, 0, 60, 0
2, 15920, Note_on_c, 0, 69, 0
2, 15984, Note_on_c, 0, 63, 48
2, 16032, Note_on_c, 0, 63, 0
2, 16032, Note_on_c, 0, 72, 51
2, 16032, Note_on_c, 0, 75, 51
2, 16078, Note_on_c, 0, 72, 0
2, 16078, Note_on_c, 0, 75, 0
2, 16080, Note_on_c, 0, 72, 54
2, 16080, Note_on_c, 0, 75, 54
2, 16112, Note_on_c, 0, 72, 0
2, 16112, Note_on_c, 0, 75, 0
2, 16176, Note_on_c, 0, 63, 60
2, 16224, Note_on_c, 0, 63, 0
2, 16224, Note_on_c, 0, 71, 63
2, 16224, Note_on_c, 0, 75, 63
2, 16270, Note_on_c, 0, 71, 0
2, 16270, Note_on_c, 0, 75, 0
2, 16272, Note_on_c, 0, 71, 67
2, 16272, Note_on_c, 0, 75, 67
2, 16304, Note_on_c, 0, 71, 0
2, 16304, Note_on_c, 0, 75, 0
2, 16368, Note_on_c, 0, 63, 75
2, 16416, Note_on_c, 0, 63, 0
2, 16416, Note_on_c, 0, 69, 75
2, 16416, Note_on_c, 0, 75, 75
2, 16462, Note_on_c, 0, 69, 0
2, 16462, Note_on_c, 0, 75, 0
2, 16464, Note_on_c, 0, 69, 75
2, 16464, Note_on_c, 0, 75, 75
2, 16496, Note_on_c, 0, 69, 0
2, 16496, Note_on_c, 0, 75, 0
2, 16560, Note_on_c, 0, 64, 75
2, 16608, Note_on_c, 0, 64, 0
2, 16608, Note_on_c, 0, 68, 75
2, 16608, Note_on_c, 0, 76, 75
2, 16654, Note_on_c, 0, 68, 0
2, 16654, Note_on_c, 0, 76, 0
2, 16656, Note_on_c, 0, 68, 75
2, 16656, Note_on_c, 0, 76, 75
2, 16688, Note_on_c, 0, 68, 0
2, 16688, Note_on_c, 0, 76, 0
2, 16752, Note_on_c, 0, 60, 30
2, 16800, Note_on_c, 0, 60, 0
2, 16800, Note_on_c, 0, 69, 30
2, 16800, Note_on_c, 0, 72, 30
2, 16846, Note_on_c, 0, 69, 0
2, 16846, Note_on_c, 0, 72, 0
2, 16848, Note_on_c, 0, 69, 30
2, 16848, Note_on_c, 0, 72, 30
2, 16880, Note_on_c, 0, 69, 0
2, 16880, Note_on_c, 0, 72, 0
2, 16944, Note_on_c, 0, 65, 30
2, 16992, Note_on_c, 0, 65, 0
2, 16992, Note_on_c, 0, 69, 30
2, 16992, Note_on_c, 0, 71, 30
2, 17038, Note_on_c, 0, 69, 0
2, 17038, Note_on_c, 0, 71, 0
2, 17040, Note_on_c, 0, 69, 30
2, 17040, Note_on_c, 0, 71, 30
2, 17072, Note_on_c, 0, 69, 0
2, 17072, Note_on_c, 0, 71, 0
2, 17136, Note_on_c, 0, 62, 30
2, 17184, Note_on_c, 0, 62, 0
2, 17184, Note_on_c, 0, 68, 30
2, 17184, Note_on_c, 0, 71, 30
2, 17230, Note_on_c, 0, 68, 0
2, 17230, Note_on_c, 0, 71, 0
2, 17232, Note_on_c, 0, 68, 30
2, 17232, Note_on_c, 0, 71, 30
2, 17264, Note_on_c, 0, 68, 0
2, 17264, Note_on_c, 0, 71, 0
2, 17328, Note_on_c, 0, 60, 31
2, 17376, Note_on_c, 0, 60, 0
2, 17376, Note_on_c, 0, 69, 32
2, 17376, Note_on_c, 0, 72, 32
2, 17422, Note_on_c, 0, 69, 0
2, 17422, Note_on_c, 0, 72, 0
2, 17424, Note_on_c, 0, 69, 34
2, 17424, Note_on_c, 0, 72, 34
2, 17456, Note_on_c, 0, 69, 0
2, 17456, Note_on_c, 0, 72, 0
2, 17520, Note_on_c, 0, 69, 38
2, 17568, Note_on_c, 0, 69, 0
2, 17568, Note_on_c, 0, 72, 40
2, 17568, Note_on_c, 0, 81, 40
2, 17614, Note_on_c, 0, 72, 0
2, 17614, Note_on_c, 0, 81, 0
2, 17616, Note_on_c, 0, 72, 42
2, 17616, Note_on_c, 0, 81, 42
2, 17648, Note_on_c, 0, 72, 0
2, 17648, Note_on_c, 0, 81, 0
2, 17712, Note_on_c, 0, 69, 46
2, 17760, Note_on_c, 0, 69, 0
2, 17760, Note_on_c, 0, 71, 48
2, 17760, Note_on_c, 0, 81, 48
2, 17806, Note_on_c, 0, 71, 0
2, 17806, Note_on_c, 0, 81, 0
2, 17808, Note_on_c, 0, 71, 50
2, 17808, Note_on_c, 0, 81, 50
2, 17840, Note_on_c, 0, 71, 0
2, 17840, Note_on_c, 0, 81, 0
2, 17904, Note_on_c, 0, 68, 54
2, 17952, Note_on_c, 0, 68, 0
2, 17952, Note_on_c, 0, 71, 56
2, 17952, Note_on_c, 0, 80, 56
2, 17998, Note_on_c, 0, 71, 0
2, 17998, Note_on_c, 0, 80, 0
2, 18000, Note_on_c, 0, 71, 58
2, 18000, Note_on_c, 0, 80, 58
2, 18032, Note_on_c, 0, 71, 0
2, 18032, Note_on_c, 0, 80, 0
2, 18048, Note_on_c, 0, 69, 60
2, 18048, Note_on_c, 0, 81, 60
2, 18208, Note_on_c, 0, 69, 0
2, 18208, Note_on_c, 0, 81, 0
2, 18240, Note_on_c, 0, 69, 60
2, 18286, Note_on_c, 0, 69, 0
2, 18288, Note_on_c, 0, 64, 60
2, 18334, Note_on_c, 0, 64, 0
2, 18336, Note_on_c, 0, 66, 60
2, 18382, Note_on_c, 0, 66, 0
2, 18384, Note_on_c, 0, 68, 60
2, 18430, Note_on_c, 0, 68, 0
2, 18432, Note_on_c, 0, 69, 60
2, 18432, Note_on_c, 0, 76, 60
2, 18574, Note_on_c, 0, 69, 0
2, 18576, Note_on_c, 0, 68, 60
2, 18592, Note_on_c, 0, 76, 0
2, 18622, Note_on_c, 0, 68, 0
2, 18624, Note_on_c, 0, 69, 60
2, 18624, Note_on_c, 0, 76, 60
2, 18656, Note_on_c, 0, 69, 0
2, 18656, Note_on_c, 0, 76, 0
2, 18720, Note_on_c, 0, 73, 60
2, 18720, Note_on_c, 0, 76, 60
2, 18752, Note_on_c, 0, 73, 0
2, 18752, Note_on_c, 0, 76, 0
2, 18816, Note_on_c, 0, 71, 60
2, 18816, Note_on_c, 0, 76, 60
2, 18838, Note_on_c, 0, 76, 0
2, 18840, Note_on_c, 0, 78, 64
2, 18862, Note_on_c, 0, 78, 0
2, 18864, Note_on_c, 0, 76, 68
2, 18886, Note_on_c, 0, 76, 0
2, 18888, Note_on_c, 0, 78, 72
2, 18910, Note_on_c, 0, 78, 0
2, 18912, Note_on_c, 0, 75, 76
2, 18912, Note_on_c, 0, 78, 76
2, 18934, Note_on_c, 0, 75, 0
2, 18936, Note_on_c, 0, 76, 76
2, 18958, Note_on_c, 0, 76, 0
2, 18958, Note_on_c, 0, 78, 0
2, 18960, Note_on_c, 0, 80, 84
2, 18976, Note_on_c, 0, 71, 0
2, 19006, Note_on_c, 0, 80, 0
2, 19008, Note_on_c, 0, 81, 92
2, 19102, Note_on_c, 0, 81, 0
2, 19104, Note_on_c, 0, 76, 92
2, 19198, Note_on_c, 0, 76, 0
2, 19200, Note_on_c, 0, 68, 60
2, 19200, Note_on_c, 0, 76, 60
2, 19294, Note_on_c, 0, 68, 0
2, 19296, Note_on_c, 0, 71, 60
2, 19360, Note_on_c, 0, 76, 0
2, 19390, Note_on_c, 0, 71, 0
2, 19392, Note_on_c, 0, 68, 60
2, 19392, Note_on_c, 0, 76, 60
2, 19424, Note_on_c, 0, 68, 0
2, 19424, Note_on_c, 0, 76, 0
2, 19488, Note_on_c, 0, 71, 60
2, 19488, Note_on_c, 0, 76, 60
2, 19520, Note_on_c, 0, 71, 0
2, 19520, Note_on_c, 0, 76, 0
2, 19584, Note_on_c, 0, 69, 60
2, 19584, Note_on_c, 0, 76, 60
2, 19630, Note_on_c, 0, 76, 0
2, 19632, Note_on_c, 0, 75, 60
2, 19678, Note_on_c, 0, 69, 0
2, 19678, Note_on_c, 0, 75, 0
2, 19680, Note_on_c, 0, 76, 60
2, 19726, Note_on_c, 0, 76, 0
2, 19728, Note_on_c, 0, 78, 60
2, 19774, Note_on_c, 0, 78, 0
2, 19776, Note_on_c, 0, 76, 60
2, 19822, Note_on_c, 0, 76, 0
2, 19824, Note_on_c, 0, 74, 60
2, 19870, Note_on_c, 0, 74, 0
2, 19872, Note_on_c, 0, 73, 60
2, 19918, Note_on_c, 0, 73, 0
2, 19920, Note_on_c, 0, 71, 60
2, 19966, Note_on_c, 0, 71, 0
2, 19968, Note_on_c, 0, 69, 60
2, 19968, Note_on_c, 0, 76, 60
2, 20110, Note_on_c, 0, 69, 0
2, 20112, Note_on_c, 0, 68, 60
2, 20128, Note_on_c, 0, 76, 0
2, 20158, Note_on_c, 0, 68, 0
2, 20160, Note_on_c, 0, 69, 60
2, 20160, Note_on_c, 0, 76, 60
2, 20192, Note_on_c, 0, 69, 0
2, 20192, Note_on_c, 0, 76, 0
2, 20256, Note_on_c, 0, 73, 60
2, 20256, Note_on_c, 0, 76, 60
2, 20288, Note_on_c, 0, 73, 0
2, 20288, Note_on_c, 0, 76, 0
2, 20352, Note_on_c, 0, 71, 60
2, 20352, Note_on_c, 0, 76, 60
2, 20374, Note_on_c, 0, 76, 0
2, 20376, Note_on_c, 0, 78, 64
2, 20398, Note_on_c, 0, 78, 0
2, 20400, Note_on_c, 0, 76, 68
2, 20422, Note_on_c, 0, 76, 0
2, 20424, Note_on_c, 0, 78, 72
2, 20446, Note_on_c, 0, 78, 0
2, 20448, Note_on_c, 0, 75, 76
2, 20448, Note_on_c, 0, 78, 76
2, 20470, Note_on_c, 0, 75, 0
2, 20472, Note_on_c, 0, 76, 76
2, 20494, Note_on_c, 0, 76, 0
2, 20494, Note_on_c, 0, 78, 0
2, 20496, Note_on_c, 0, 80, 84
2, 20512, Note_on_c, 0, 71, 0
2, 20542, Note_on_c, 0, 80, 0
2, 20544, Note_on_c, 0, 69, 92
2, 20544, Note_on_c, 0, 81, 92
2, 20638, Note_on_c, 0, 81, 0
2, 20640, Note_on_c, 0, 76, 92
2, 20704, Note_on_c, 0, 69, 0
2, 20734, Note_on_c, 0, 76, 0
2, 20736, Note_on_c, 0, 68, 60
2, 20736, Note_on_c, 0, 76, 60
2, 20830, Note_on_c, 0, 68, 0
2, 20832, Note_on_c, 0, 71, 60
2, 20896, Note_on_c, 0, 76, 0
2, 20926, Note_on_c, 0, 71, 0
2, 20928, Note_on_c, 0, 68, 60
2, 20928, Note_on_c, 0, 76, 60
2, 20960, Note_on_c, 0, 68, 0
2, 20960, Note_on_c, 0, 76, 0
2, 21024, Note_on_c, 0, 71, 60
2, 21024, Note_on_c, 0, 76, 60
2, 21056, Note_on_c, 0, 71, 0
2, 21056, Note_on_c, 0, 76, 0
2, 21120, Note_on_c, 0, 69, 60
2, 21166, Note_on_c, 0, 69, 0
2, 21168, Note_on_c, 0, 64, 60
2, 21214, Note_on_c, 0, 64, 0
2, 21216, Note_on_c, 0, 66, 60
2, 21262, Note_on_c, 0, 66, 0
2, 21264, Note_on_c, 0, 64, 60
2, 21310, Note_on_c, 0, 64, 0
2, 21312, Note_on_c, 0, 63, 60
2, 21358, Note_on_c, 0, 63, 0
2, 21360, Note_on_c, 0, 66, 60
2, 21406, Note_on_c, 0, 66, 0
2, 21408, Note_on_c, 0, 62, 60
2, 21454, Note_on_c, 0, 62, 0
2, 21456, Note_on_c, 0, 68, 60
2, 21502, Note_on_c, 0, 68, 0
2, 21504, Note_on_c, 0, 61, 60
2, 21504, Note_on_c, 0, 61, 60
2, 21550, Note_on_c, 0, 61, 0
2, 21552, Note_on_c, 0, 69, 60
2, 21598, Note_on_c, 0, 61, 0
2, 21600, Note_on_c, 0, 59, 60
2, 21646, Note_on_c, 0, 69, 0
2, 21648, Note_on_c, 0, 68, 60
2, 21694, Note_on_c, 0, 59, 0
2, 21696, Note_on_c, 0, 61, 60
2, 21742, Note_on_c, 0, 68, 0
2, 21744, Note_on_c, 0, 69, 60
2, 21790, Note_on_c, 0, 61, 0
2, 21792, Note_on_c, 0, 64, 60
2, 21838, Note_on_c, 0, 69, 0
2, 21840, Note_on_c, 0, 73, 60
2, 21886, Note_on_c, 0, 64, 0
2, 21886, Note_on_c, 0, 73, 0
2, 21888, Note_on_c, 0, 62, 60
2, 21888, Note_on_c, 0, 73, 60
2, 21934, Note_on_c, 0, 62, 0
2, 21934, Note_on_c, 0, 73, 0
2, 21936, Note_on_c, 0, 73, 60
2, 21982, Note_on_c, 0, 73, 0
2, 21984, Note_on_c, 0, 71, 60
2, 22030, Note_on_c, 0, 71, 0
2, 22032, Note_on_c, 0, 62, 60
2, 22078, Note_on_c, 0, 62, 0
2, 22080, Note_on_c, 0, 61, 60
2, 22126, Note_on_c, 0, 61, 0
2, 22128, Note_on_c, 0, 71, 60
2, 22174, Note_on_c, 0, 71, 0
2, 22176, Note_on_c, 0, 69, 60
2, 22222, Note_on_c, 0, 69, 0
2, 22224, Note_on_c, 0, 61, 60
2, 22270, Note_on_c, 0, 61, 0
2, 22272, Note_on_c, 0, 59, 60
2, 22272, Note_on_c, 0, 59, 60
2, 22318, Note_on_c, 0, 59, 0
2, 22320, Note_on_c, 0, 69, 60
2, 22366, Note_on_c, 0, 69, 0
2, 22368, Note_on_c, 0, 68, 60
2, 22414, Note_on_c, 0, 68, 0
2, 22416, Note_on_c, 0, 66, 60
2, 22432, Note_on_c, 0, 59, 0
2, 22462, Note_on_c, 0, 66, 0
2, 22464, Note_on_c, 0, 59, 60
2, 22464, Note_on_c, 0, 59, 60
2, 22510, Note_on_c, 0, 59, 0
2, 22512, Note_on_c, 0, 68, 60
2, 22558, Note_on_c, 0, 59, 0
2, 22558, Note_on_c, 0, 68, 0
2, 22560, Note_on_c, 0, 62, 60
2, 22560, Note_on_c, 0, 62, 60
2, 22606, Note_on_c, 0, 62, 0
2, 22608, Note_on_c, 0, 71, 60
2, 22654, Note_on_c, 0, 62, 0
2, 22654, Note_on_c, 0, 71, 0
2, 22656, Note_on_c, 0, 61, 60
2, 22656, Note_on_c, 0, 69, 60
2, 22750, Note_on_c, 0, 61, 0
2, 22750, Note_on_c, 0, 69, 0
2, 22896, Note_on_c, 0, 66, 60
2, 22942, Note_on_c, 0, 66, 0
2, 22944, Note_on_c, 0, 64, 60
2, 22990, Note_on_c, 0, 64, 0
2, 22992, Note_on_c, 0, 62, 60
2, 22992, Note_on_c, 0, 68, 60
2, 23040, Note_on_c, 0, 62, 0
2, 23040, Note_on_c, 0, 68, 0
2, 23040, Note_on_c, 0, 61, 60
2, 23040, Note_on_c, 0, 71, 60
2, 23086, Note_on_c, 0, 71, 0
2, 23088, Note_on_c, 0, 69, 60
2, 23134, Note_on_c, 0, 61, 0
2, 23136, Note_on_c, 0, 59, 60
2, 23182, Note_on_c, 0, 69, 0
2, 23184, Note_on_c, 0, 68, 60
2, 23230, Note_on_c, 0, 59, 0
2, 23232, Note_on_c, 0, 61, 60
2, 23278, Note_on_c, 0, 68, 0
2, 23280, Note_on_c, 0, 69, 60
2, 23326, Note_on_c, 0, 61, 0
2, 23328, Note_on_c, 0, 64, 60
2, 23374, Note_on_c, 0, 69, 0
2, 23376, Note_on_c, 0, 73, 60
2, 23422, Note_on_c, 0, 64, 0
2, 23422, Note_on_c, 0, 73, 0
2, 23424, Note_on_c, 0, 62, 60
2, 23424, Note_on_c, 0, 73, 60
2, 23472, Note_on_c, 0, 62, 0
2, 23472, Note_on_c, 0, 73, 0
2, 23472, Note_on_c, 0, 73, 60
2, 23520, Note_on_c, 0, 73, 0
2, 23520, Note_on_c, 0, 71, 60
2, 23568, Note_on_c, 0, 71, 0
2, 23568, Note_on_c, 0, 62, 60
2, 23616, Note_on_c, 0, 62, 0
2, 23616, Note_on_c, 0, 61, 60
2, 23664, Note_on_c, 0, 61, 0
2, 23664, Note_on_c, 0, 71, 60
2, 23712, Note_on_c, 0, 71, 0
2, 23712, Note_on_c, 0, 69, 60
2, 23760, Note_on_c, 0, 69, 0
2, 23760, Note_on_c, 0, 61, 60
2, 23806, Note_on_c, 0, 61, 0
2, 23808, Note_on_c, 0, 59, 60
2, 23808, Note_on_c, 0, 59, 60
2, 23854, Note_on_c, 0, 59, 0
2, 23856, Note_on_c, 0, 69, 60
2, 23902, Note_on_c, 0, 69, 0
2, 23904, Note_on_c, 0, 68, 60
2, 23950, Note_on_c, 0, 68, 0
2, 23952, Note_on_c, 0, 66, 60
2, 23968, Note_on_c, 0, 59, 0
2, 23998, Note_on_c, 0, 66, 0
2, 24000, Note_on_c, 0, 59, 60
2, 24000, Note_on_c, 0, 59, 60
2, 24046, Note_on_c, 0, 59, 0
2, 24048, Note_on_c, 0, 68, 60
2, 24094, Note_on_c, 0, 59, 0
2, 24094, Note_on_c, 0, 68, 0
2, 24096, Note_on_c, 0, 62, 60
2, 24096, Note_on_c, 0, 62, 60
2, 24142, Note_on_c, 0, 62, 0
2, 24144, Note_on_c, 0, 71, 60
2, 24190, Note_on_c, 0, 62, 0
2, 24190, Note_on_c, 0, 71, 0
2, 24192, Note_on_c, 0, 61, 60
2, 24192, Note_on_c, 0, 69, 60
2, 24238, Note_on_c, 0, 61, 0
2, 24238, Note_on_c, 0, 69, 0
2, 24240, Note_on_c, 0, 64, 60
2, 24286, Note_on_c, 0, 64, 0
2, 24288, Note_on_c, 0, 66, 60
2, 24334, Note_on_c, 0, 66, 0
2, 24336, Note_on_c, 0, 64, 60
2, 24382, Note_on_c, 0, 64, 0
2, 24384, Note_on_c, 0, 69, 60
2, 24430, Note_on_c, 0, 69, 0
2, 24432, Note_on_c, 0, 64, 60
2, 24478, Note_on_c, 0, 64, 0
2, 24480, Note_on_c, 0, 76, 60
2, 24574, Note_on_c, 0, 76, 0
2, 24576, Note_on_c, 0, 64, 60
2, 24576, Note_on_c, 0, 74, 60
2, 24720, Note_on_c, 0, 74, 0
2, 24720, Note_on_c, 0, 76, 60
2, 24768, Note_on_c, 0, 76, 0
2, 24768, Note_on_c, 0, 74, 60
2, 24832, Note_on_c, 0, 64, 0
2, 24864, Note_on_c, 0, 74, 0
2, 24864, Note_on_c, 0, 64, 60
2, 24864, Note_on_c, 0, 73, 60
2, 24958, Note_on_c, 0, 64, 0
2, 24958, Note_on_c, 0, 73, 0
2, 24960, Note_on_c, 0, 68, 60
2, 24960, Note_on_c, 0, 71, 60
2, 25102, Note_on_c, 0, 71, 0
2, 25104, Note_on_c, 0, 73, 60
2, 25150, Note_on_c, 0, 73, 0
2, 25152, Note_on_c, 0, 71, 60
2, 25216, Note_on_c, 0, 68, 0
2, 25246, Note_on_c, 0, 71, 0
2, 25248, Note_on_c, 0, 64, 60
2, 25248, Note_on_c, 0, 69, 60
2, 25342, Note_on_c, 0, 64, 0
2, 25342, Note_on_c, 0, 69, 0
2, 25344, Note_on_c, 0, 68, 60
2, 25344, Note_on_c, 0, 76, 84
2, 25390, Note_on_c, 0, 76, 0
2, 25392, Note_on_c, 0, 74, 60
2, 25438, Note_on_c, 0, 68, 0
2, 25438, Note_on_c, 0, 74, 0
2, 25440, Note_on_c, 0, 69, 60
2, 25440, Note_on_c, 0, 73, 60
2, 25472, Note_on_c, 0, 69, 0
2, 25472, Note_on_c, 0, 73, 0
2, 25536, Note_on_c, 0, 68, 60
2, 25536, Note_on_c, 0, 76, 84
2, 25582, Note_on_c, 0, 76, 0
2, 25584, Note_on_c, 0, 74, 60
2, 25630, Note_on_c, 0, 68, 0
2, 25630, Note_on_c, 0, 74, 0
2, 25632, Note_on_c, 0, 69, 60
2, 25632, Note_on_c, 0, 73, 60
2, 25664, Note_on_c, 0, 69, 0
2, 25664, Note_on_c, 0, 73, 0
2, 25728, Note_on_c, 0, 68, 60
2, 25728, Note_on_c, 0, 71, 60
2, 25920, Note_on_c, 0, 68, 0
2, 25920, Note_on_c, 0, 71, 0
2, 25920, Note_on_c, 0, 68, 60
2, 25920, Note_on_c, 0, 71, 60
2, 25966, Note_on_c, 0, 68, 0
2, 25966, Note_on_c, 0, 71, 0
2, 25968, Note_on_c, 0, 64, 60
2, 26014, Note_on_c, 0, 64, 0
2, 26016, Note_on_c, 0, 66, 60
2, 26062, Note_on_c, 0, 66, 0
2, 26064, Note_on_c, 0, 68, 60
2, 26110, Note_on_c, 0, 68, 0
2, 26112, Note_on_c, 0, 69, 60
2, 26112, Note_on_c, 0, 76, 60
2, 26254, Note_on_c, 0, 69, 0
2, 26256, Note_on_c, 0, 68, 60
2, 26272, Note_on_c, 0, 76, 0
2, 26302, Note_on_c, 0, 68, 0
2, 26304, Note_on_c, 0, 69, 60
2, 26304, Note_on_c, 0, 76, 60
2, 26336, Note_on_c, 0, 69, 0
2, 26336, Note_on_c, 0, 76, 0
2, 26400, Note_on_c, 0, 73, 68
2, 26400, Note_on_c, 0, 76, 68
2, 26432, Note_on_c, 0, 73, 0
2, 26432, Note_on_c, 0, 76, 0
2, 26496, Note_on_c, 0, 71, 76
2, 26496, Note_on_c, 0, 76, 76
2, 26518, Note_on_c, 0, 76, 0
2, 26520, Note_on_c, 0, 78, 78
2, 26542, Note_on_c, 0, 78, 0
2, 26544, Note_on_c, 0, 76, 80
2, 26566, Note_on_c, 0, 76, 0
2, 26568, Note_on_c, 0, 78, 82
2, 26590, Note_on_c, 0, 78, 0
2, 26592, Note_on_c, 0, 75, 84
2, 26592, Note_on_c, 0, 78, 84
2, 26614, Note_on_c, 0, 75, 0
2, 26616, Note_on_c, 0, 76, 84
2, 26638, Note_on_c, 0, 76, 0
2, 26638, Note_on_c, 0, 78, 0
2, 26640, Note_on_c, 0, 80, 88
2, 26656, Note_on_c, 0, 71, 0
2, 26686, Note_on_c, 0, 80, 0
2, 26688, Note_on_c, 0, 69, 92
2, 26688, Note_on_c, 0, 81, 92
2, 26782, Note_on_c, 0, 81, 0
2, 26784, Note_on_c, 0, 76, 92
2, 26848, Note_on_c, 0, 69, 0
2, 26878, Note_on_c, 0, 76, 0
2, 26880, Note_on_c, 0, 68, 60
2, 26880, Note_on_c, 0, 76, 60
2, 26974, Note_on_c, 0, 68, 0
2, 26976, Note_on_c, 0, 71, 60
2, 27040, Note_on_c, 0, 76, 0
2, 27070, Note_on_c, 0, 71, 0
2, 27072, Note_on_c, 0, 68, 60
2, 27072, Note_on_c, 0, 76, 60
2, 27104, Note_on_c, 0, 68, 0
2, 27104, Note_on_c, 0, 76, 0
2, 27168, Note_on_c, 0, 71, 60
2, 27168, Note_on_c, 0, 76, 60
2, 27200, Note_on_c, 0, 71, 0
2, 27200, Note_on_c, 0, 76, 0
2, 27264, Note_on_c, 0, 69, 60
2, 27358, Note_on_c, 0, 69, 0
2, 27504, Note_on_c, 0, 73, 60
2, 27504, Note_on_c, 0, 76, 60
2, 27550, Note_on_c, 0, 73, 0
2, 27550, Note_on_c, 0, 76, 0
2, 27552, Note_on_c, 0, 71, 60
2, 27552, Note_on_c, 0, 74, 60
2, 27598, Note_on_c, 0, 71, 0
2, 27598, Note_on_c, 0, 74, 0
2, 27600, Note_on_c, 0, 69, 60
2, 27600, Note_on_c, 0, 73, 60
2, 27646, Note_on_c, 0, 69, 0
2, 27646, Note_on_c, 0, 73, 0
2, 27648, Note_on_c, 0, 68, 60
2, 27648, Note_on_c, 0, 71, 60
2, 27696, Note_on_c, 0, 68, 0
2, 27696, Note_on_c, 0, 71, 0
2, 27696, Note_on_c, 0, 76, 60
2, 27744, Note_on_c, 0, 76, 0
2, 27744, Note_on_c, 0, 68, 60
2, 27744, Note_on_c, 0, 71, 60
2, 27792, Note_on_c, 0, 68, 0
2, 27792, Note_on_c, 0, 71, 0
2, 27792, Note_on_c, 0, 76, 60
2, 27840, Note_on_c, 0, 76, 0
2, 27840, Note_on_c, 0, 68, 60
2, 27840, Note_on_c, 0, 71, 60
2, 27888, Note_on_c, 0, 68, 0
2, 27888, Note_on_c, 0, 71, 0
2, 27888, Note_on_c, 0, 76, 60
2, 27936, Note_on_c, 0, 76, 0
2, 27936, Note_on_c, 0, 69, 60
2, 27984, Note_on_c, 0, 69, 0
2, 27984, Note_on_c, 0, 76, 60
2, 28030, Note_on_c, 0, 76, 0
2, 28032, Note_on_c, 0, 68, 60
2, 28032, Note_on_c, 0, 76, 60
2, 28080, Note_on_c, 0, 68, 0
2, 28080, Note_on_c, 0, 76, 0
2, 28080, Note_on_c, 0, 80, 60
2, 28128, Note_on_c, 0, 80, 0
2, 28128, Note_on_c, 0, 68, 60
2, 28128, Note_on_c, 0, 76, 60
2, 28176, Note_on_c, 0, 68, 0
2, 28176, Note_on_c, 0, 76, 0
2, 28176, Note_on_c, 0, 80, 60
2, 28224, Note_on_c, 0, 80, 0
2, 28224, Note_on_c, 0, 68, 60
2, 28224, Note_on_c, 0, 76, 60
2, 28272, Note_on_c, 0, 68, 0
2, 28272, Note_on_c, 0, 76, 0
2, 28272, Note_on_c, 0, 80, 60
2, 28320, Note_on_c, 0, 80, 0
2, 28320, Note_on_c, 0, 69, 60
2, 28320, Note_on_c, 0, 76, 60
2, 28368, Note_on_c, 0, 69, 0
2, 28368, Note_on_c, 0, 76, 0
2, 28368, Note_on_c, 0, 81, 60
2, 28414, Note_on_c, 0, 81, 0
2, 28416, Note_on_c, 0, 83, 60
2, 28464, Note_on_c, 0, 83, 0
2, 28464, Note_on_c, 0, 76, 60
2, 28512, Note_on_c, 0, 76, 0
2, 28512, Note_on_c, 0, 81, 60
2, 28560, Note_on_c, 0, 81, 0
2, 28560, Note_on_c, 0, 76, 60
2, 28606, Note_on_c, 0, 76, 0
2, 28608, Note_on_c, 0, 83, 60
2, 28656, Note_on_c, 0, 83, 0
2, 28656, Note_on_c, 0, 76, 60
2, 28704, Note_on_c, 0, 76, 0
2, 28704, Note_on_c, 0, 81, 60
2, 28752, Note_on_c, 0, 81, 0
2, 28752, Note_on_c, 0, 76, 60
2, 28798, Note_on_c, 0, 76, 0
2, 28800, Note_on_c, 0, 88, 60
2, 28834, Note_on_c, 0, 88, 0
2, 28848, Note_on_c, 0, 76, 60
2, 28896, Note_on_c, 0, 76, 0
2, 28896, Note_on_c, 0, 78, 60
2, 28944, Note_on_c, 0, 78, 0
2, 28944, Note_on_c, 0, 76, 60
2, 28992, Note_on_c, 0, 76, 0
2, 28992, Note_on_c, 0, 75, 60
2, 29040, Note_on_c, 0, 75, 0
2, 29040, Note_on_c, 0, 78, 60
2, 29088, Note_on_c, 0, 78, 0
2, 29088, Note_on_c, 0, 74, 60
2, 29136, Note_on_c, 0, 74, 0
2, 29136, Note_on_c, 0, 80, 60
2, 29184, Note_on_c, 0, 80, 0
2, 29184, Note_on_c, 0, 73, 60
2, 29184, Note_on_c, 0, 83, 60
2, 29232, Note_on_c, 0, 83, 0
2, 29232, Note_on_c, 0, 81, 60
2, 29278, Note_on_c, 0, 73, 0
2, 29280, Note_on_c, 0, 71, 60
2, 29326, Note_on_c, 0, 81, 0
2, 29328, Note_on_c, 0, 80, 60
2, 29374, Note_on_c, 0, 71, 0
2, 29376, Note_on_c, 0, 73, 60
2, 29422, Note_on_c, 0, 80, 0
2, 29424, Note_on_c, 0, 81, 60
2, 29470, Note_on_c, 0, 73, 0
2, 29472, Note_on_c, 0, 76, 60
2, 29518, Note_on_c, 0, 81, 0
2, 29520, Note_on_c, 0, 85, 60
2, 29566, Note_on_c, 0, 76, 0
2, 29566, Note_on_c, 0, 85, 0
2, 29568, Note_on_c, 0, 74, 60
2, 29568, Note_on_c, 0, 85, 60
2, 29616, Note_on_c, 0, 74, 0
2, 29616, Note_on_c, 0, 85, 0
2, 29616, Note_on_c, 0, 85, 60
2, 29664, Note_on_c, 0, 85, 0
2, 29664, Note_on_c, 0, 83, 60
2, 29712, Note_on_c, 0, 83, 0
2, 29712, Note_on_c, 0, 74, 60
2, 29760, Note_on_c, 0, 74, 0
2, 29760, Note_on_c, 0, 73, 60
2, 29808, Note_on_c, 0, 73, 0
2, 29808, Note_on_c, 0, 83, 60
2, 29856, Note_on_c, 0, 83, 0
2, 29856, Note_on_c, 0, 81, 60
2, 29904, Note_on_c, 0, 81, 0
2, 29904, Note_on_c, 0, 73, 60
2, 29950, Note_on_c, 0, 73, 0
2, 29952, Note_on_c, 0, 71, 60
2, 29952, Note_on_c, 0, 71, 60
2, 29998, Note_on_c, 0, 71, 0
2, 30000, Note_on_c, 0, 81, 60
2, 30046, Note_on_c, 0, 81, 0
2, 30048, Note_on_c, 0, 80, 60
2, 30094, Note_on_c, 0, 80, 0
2, 30096, Note_on_c, 0, 78, 60
2, 30112, Note_on_c, 0, 71, 0
2, 30142, Note_on_c, 0, 78, 0
2, 30144, Note_on_c, 0, 71, 60
2, 30144, Note_on_c, 0, 71, 60
2, 30190, Note_on_c, 0, 71, 0
2, 30192, Note_on_c, 0, 80, 60
2, 30238, Note_on_c, 0, 71, 0
2, 30238, Note_on_c, 0, 80, 0
2, 30240, Note_on_c, 0, 74, 60
2, 30240, Note_on_c, 0, 74, 60
2, 30286, Note_on_c, 0, 74, 0
2, 30288, Note_on_c, 0, 83, 60
2, 30334, Note_on_c, 0, 74, 0
2, 30334, Note_on_c, 0, 83, 0
2, 30336, Note_on_c, 0, 73, 60
2, 30336, Note_on_c, 0, 81, 60
2, 30430, Note_on_c, 0, 73, 0
2, 30430, Note_on_c, 0, 81, 0
2, 30528, Note_on_c, 0, 69, 92
2, 30528, Note_on_c, 0, 74, 92
2, 30688, Note_on_c, 0, 69, 0
2, 30688, Note_on_c, 0, 74, 0
2, 30720, Note_on_c, 0, 78, 60
2, 30814, Note_on_c, 0, 78, 0
2, 30816, Note_on_c, 0, 66, 60
2, 30816, Note_on_c, 0, 74, 60
2, 30910, Note_on_c, 0, 66, 0
2, 30910, Note_on_c, 0, 74, 0
2, 30912, Note_on_c, 0, 68, 60
2, 30912, Note_on_c, 0, 71, 60
2, 31006, Note_on_c, 0, 68, 0
2, 31006, Note_on_c, 0, 71, 0
2, 31008, Note_on_c, 0, 68, 60
2, 31008, Note_on_c, 0, 76, 60
2, 31102, Note_on_c, 0, 68, 0
2, 31102, Note_on_c, 0, 76, 0
2, 31104, Note_on_c, 0, 69, 60
2, 31104, Note_on_c, 0, 74, 60
2, 31150, Note_on_c, 0, 74, 0
2, 31152, Note_on_c, 0, 73, 60
2, 31198, Note_on_c, 0, 69, 0
2, 31198, Note_on_c, 0, 73, 0
2, 31200, Note_on_c, 0, 71, 60
2, 31246, Note_on_c, 0, 71, 0
2, 31248, Note_on_c, 0, 69, 60
2, 31294, Note_on_c, 0, 69, 0
2, 31296, Note_on_c, 0, 57, 92
2, 31296, Note_on_c, 0, 62, 92
2, 31456, Note_on_c, 0, 57, 0
2, 31456, Note_on_c, 0, 62, 0
2, 31488, Note_on_c, 0, 66, 60
2, 31584, Note_on_c, 0, 66, 0
2, 31584, Note_on_c, 0, 54, 60
2, 31584, Note_on_c, 0, 62, 60
2, 31680, Note_on_c, 0, 54, 0
2, 31680, Note_on_c, 0, 62, 0
2, 31680, Note_on_c, 0, 56, 60
2, 31680, Note_on_c, 0, 59, 60
2, 31776, Note_on_c, 0, 56, 0
2, 31776, Note_on_c, 0, 59, 0
2, 31776, Note_on_c, 0, 56, 60
2, 31776, Note_on_c, 0, 64, 60
2, 31872, Note_on_c, 0, 56, 0
2, 31872, Note_on_c, 0, 64, 0
2, 31872, Note_on_c, 0, 57, 60
2, 31872, Note_on_c, 0, 61, 60
2, 31904, Note_on_c, 0, 57, 0
2, 31904, Note_on_c, 0, 61, 0
2, 32064, Note_on_c, 0, 68, 60
2, 32064, Note_on_c, 0, 71, 60
2, 32158, Note_on_c, 0, 68, 0
2, 32158, Note_on_c, 0, 71, 0
2, 32160, Note_on_c, 0, 68, 57
2, 32160, Note_on_c, 0, 76, 57
2, 32254, Note_on_c, 0, 68, 0
2, 32254, Note_on_c, 0, 76, 0
2, 32256, Note_on_c, 0, 69, 53
2, 32256, Note_on_c, 0, 73, 53
2, 32288, Note_on_c, 0, 69, 0
2, 32288, Note_on_c, 0, 73, 0
2, 32448, Note_on_c, 0, 80, 45
2, 32448, Note_on_c, 0, 83, 45
2, 32542, Note_on_c, 0, 83, 0
2, 32544, Note_on_c, 0, 88, 45
2, 32608, Note_on_c, 0, 80, 0
2, 32638, Note_on_c, 0, 88, 0
2, 32640, Note_on_c, 0, 81, 45
2, 32640, Note_on_c, 0, 85, 45
2, 32672, Note_on_c, 0, 81, 0
2, 32672, Note_on_c, 0, 85, 0
2, 32672, End_track
3, 0, Start_track
3, 0, MIDI_port, 0
3, 0, Title_t, "Reginald Steven Ritchie"
3, 0, Program_c, 1, 0
3, 0, Control_c, 1, 7, 127
3, 0, Control_c, 1, 10, 10
3, 0, Program_c, 1, 0
3, 0, Control_c, 1, 7, 127
3, 0, Control_c, 1, 10, 10
3, 0, Control_c, 1, 91, 84
3, 0, Control_c, 1, 93, 84
3, 96, Note_on_c, 1, 57, 60
3, 96, Note_on_c, 1, 61, 60
3, 238, Note_on_c, 1, 61, 0
3, 240, Note_on_c, 1, 59, 60
3, 286, Note_on_c, 1, 59, 0
3, 288, Note_on_c, 1, 61, 60
3, 320, Note_on_c, 1, 61, 0
3, 384, Note_on_c, 1, 64, 60
3, 416, Note_on_c, 1, 64, 0
3, 432, Note_on_c, 1, 57, 0
3, 480, Note_on_c, 1, 57, 60
3, 480, Note_on_c, 1, 62, 60
3, 640, Note_on_c, 1, 62, 0
3, 672, Note_on_c, 1, 61, 75
3, 816, Note_on_c, 1, 57, 0
3, 832, Note_on_c, 1, 61, 0
3, 864, Note_on_c, 1, 57, 45
3, 864, Note_on_c, 1, 59, 45
3, 958, Note_on_c, 1, 59, 0
3, 960, Note_on_c, 1, 62, 45
3, 1024, Note_on_c, 1, 57, 0
3, 1054, Note_on_c, 1, 62, 0
3, 1056, Note_on_c, 1, 57, 45
3, 1056, Note_on_c, 1, 59, 45
3, 1150, Note_on_c, 1, 59, 0
3, 1152, Note_on_c, 1, 62, 45
3, 1216, Note_on_c, 1, 57, 0
3, 1246, Note_on_c, 1, 62, 0
3, 1248, Note_on_c, 1, 57, 45
3, 1248, Note_on_c, 1, 61, 45
3, 1342, Note_on_c, 1, 57, 0
3, 1342, Note_on_c, 1, 61, 0
3, 1488, Note_on_c, 1, 66, 45
3, 1534, Note_on_c, 1, 66, 0
3, 1536, Note_on_c, 1, 64, 45
3, 1582, Note_on_c, 1, 64, 0
3, 1584, Note_on_c, 1, 62, 45
3, 1630, Note_on_c, 1, 62, 0
3, 1632, Note_on_c, 1, 57, 45
3, 1632, Note_on_c, 1, 61, 45
3, 1774, Note_on_c, 1, 61, 0
3, 1776, Note_on_c, 1, 59, 45
3, 1822, Note_on_c, 1, 59, 0
3, 1824, Note_on_c, 1, 61, 45
3, 1856, Note_on_c, 1, 61, 0
3, 1920, Note_on_c, 1, 64, 45
3, 1952, Note_on_c, 1, 64, 0
3, 1968, Note_on_c, 1, 57, 0
3, 2016, Note_on_c, 1, 57, 45
3, 2016, Note_on_c, 1, 62, 45
3, 2176, Note_on_c, 1, 62, 0
3, 2208, Note_on_c, 1, 61, 75
3, 2352, Note_on_c, 1, 57, 0
3, 2368, Note_on_c, 1, 61, 0
3, 2400, Note_on_c, 1, 57, 45
3, 2400, Note_on_c, 1, 59, 45
3, 2494, Note_on_c, 1, 59, 0
3, 2496, Note_on_c, 1, 62, 45
3, 2560, Note_on_c, 1, 57, 0
3, 2590, Note_on_c, 1, 62, 0
3, 2592, Note_on_c, 1, 57, 45
3, 2592, Note_on_c, 1, 59, 45
3, 2686, Note_on_c, 1, 59, 0
3, 2688, Note_on_c, 1, 62, 45
3, 2752, Note_on_c, 1, 57, 0
3, 2782, Note_on_c, 1, 62, 0
3, 2784, Note_on_c, 1, 57, 45
3, 2784, Note_on_c, 1, 61, 45
3, 2944, Note_on_c, 1, 57, 0
3, 2944, Note_on_c, 1, 61, 0
3, 3168, Control_c, 1, 91, 84
3, 3168, Control_c, 1, 93, 84
3, 3264, Note_on_c, 1, 57, 60
3, 3264, Note_on_c, 1, 61, 60
3, 3406, Note_on_c, 1, 61, 0
3, 3408, Note_on_c, 1, 59, 60
3, 3454, Note_on_c, 1, 59, 0
3, 3456, Note_on_c, 1, 61, 60
3, 3488, Note_on_c, 1, 61, 0
3, 3552, Note_on_c, 1, 64, 60
3, 3584, Note_on_c, 1, 64, 0
3, 3600, Note_on_c, 1, 57, 0
3, 3648, Note_on_c, 1, 57, 60
3, 3648, Note_on_c, 1, 62, 60
3, 3808, Note_on_c, 1, 62, 0
3, 3840, Note_on_c, 1, 61, 75
3, 3984, Note_on_c, 1, 57, 0
3, 4000, Note_on_c, 1, 61, 0
3, 4032, Note_on_c, 1, 57, 45
3, 4032, Note_on_c, 1, 59, 45
3, 4126, Note_on_c, 1, 59, 0
3, 4128, Note_on_c, 1, 62, 45
3, 4192, Note_on_c, 1, 57, 0
3, 4222, Note_on_c, 1, 62, 0
3, 4224, Note_on_c, 1, 57, 45
3, 4224, Note_on_c, 1, 59, 45
3, 4318, Note_on_c, 1, 59, 0
3, 4320, Note_on_c, 1, 62, 45
3, 4384, Note_on_c, 1, 57, 0
3, 4414, Note_on_c, 1, 62, 0
3, 4416, Note_on_c, 1, 57, 45
3, 4416, Note_on_c, 1, 61, 45
3, 4510, Note_on_c, 1, 57, 0
3, 4510, Note_on_c, 1, 61, 0
3, 4656, Note_on_c, 1, 66, 45
3, 4702, Note_on_c, 1, 66, 0
3, 4704, Note_on_c, 1, 64, 45
3, 4750, Note_on_c, 1, 64, 0
3, 4752, Note_on_c, 1, 62, 45
3, 4798, Note_on_c, 1, 62, 0
3, 4800, Note_on_c, 1, 57, 45
3, 4800, Note_on_c, 1, 61, 45
3, 4942, Note_on_c, 1, 61, 0
3, 4944, Note_on_c, 1, 59, 45
3, 4990, Note_on_c, 1, 59, 0
3, 4992, Note_on_c, 1, 61, 45
3, 5024, Note_on_c, 1, 61, 0
3, 5088, Note_on_c, 1, 64, 45
3, 5120, Note_on_c, 1, 64, 0
3, 5136, Note_on_c, 1, 57, 0
3, 5184, Note_on_c, 1, 57, 45
3, 5184, Note_on_c, 1, 62, 45
3, 5344, Note_on_c, 1, 62, 0
3, 5376, Note_on_c, 1, 61, 75
3, 5520, Note_on_c, 1, 57, 0
3, 5536, Note_on_c, 1, 61, 0
3, 5568, Note_on_c, 1, 57, 45
3, 5568, Note_on_c, 1, 59, 45
3, 5662, Note_on_c, 1, 59, 0
3, 5664, Note_on_c, 1, 62, 45
3, 5728, Note_on_c, 1, 57, 0
3, 5758, Note_on_c, 1, 62, 0
3, 5760, Note_on_c, 1, 57, 45
3, 5760, Note_on_c, 1, 59, 45
3, 5854, Note_on_c, 1, 59, 0
3, 5856, Note_on_c, 1, 62, 45
3, 5920, Note_on_c, 1, 57, 0
3, 5950, Note_on_c, 1, 62, 0
3, 5952, Note_on_c, 1, 57, 45
3, 5952, Note_on_c, 1, 61, 45
3, 6112, Note_on_c, 1, 57, 0
3, 6112, Note_on_c, 1, 61, 0
3, 6432, Note_on_c, 1, 52, 45
3, 6432, Note_on_c, 1, 59, 45
3, 6574, Note_on_c, 1, 59, 0
3, 6576, Note_on_c, 1, 59, 45
3, 6622, Note_on_c, 1, 59, 0
3, 6624, Note_on_c, 1, 57, 45
3, 6718, Note_on_c, 1, 57, 0
3, 6720, Note_on_c, 1, 56, 45
3, 6768, Note_on_c, 1, 52, 0
3, 6814, Note_on_c, 1, 56, 0
3, 6816, Note_on_c, 1, 52, 45
3, 6816, Note_on_c, 1, 62, 45
3, 6958, Note_on_c, 1, 62, 0
3, 6960, Note_on_c, 1, 64, 45
3, 7006, Note_on_c, 1, 64, 0
3, 7008, Note_on_c, 1, 62, 45
3, 7102, Note_on_c, 1, 62, 0
3, 7104, Note_on_c, 1, 61, 45
3, 7152, Note_on_c, 1, 52, 0
3, 7198, Note_on_c, 1, 61, 0
3, 7200, Note_on_c, 1, 52, 45
3, 7200, Note_on_c, 1, 59, 63
3, 7294, Note_on_c, 1, 59, 0
3, 7296, Note_on_c, 1, 57, 45
3, 7360, Note_on_c, 1, 52, 0
3, 7390, Note_on_c, 1, 57, 0
3, 7392, Note_on_c, 1, 52, 45
3, 7392, Note_on_c, 1, 59, 63
3, 7486, Note_on_c, 1, 59, 0
3, 7488, Note_on_c, 1, 57, 45
3, 7520, Note_on_c, 1, 57, 0
3, 7552, Note_on_c, 1, 52, 0
3, 7584, Note_on_c, 1, 52, 45
3, 7584, Note_on_c, 1, 64, 45
3, 7632, Note_on_c, 1, 52, 0
3, 7632, Note_on_c, 1, 64, 0
3, 7632, Note_on_c, 1, 63, 45
3, 7680, Note_on_c, 1, 63, 0
3, 7680, Note_on_c, 1, 64, 45
3, 7728, Note_on_c, 1, 64, 0
3, 7728, Note_on_c, 1, 66, 45
3, 7776, Note_on_c, 1, 66, 0
3, 7776, Note_on_c, 1, 64, 45
3, 7824, Note_on_c, 1, 64, 0
3, 7824, Note_on_c, 1, 62, 45
3, 7872, Note_on_c, 1, 62, 0
3, 7872, Note_on_c, 1, 61, 45
3, 7920, Note_on_c, 1, 61, 0
3, 7920, Note_on_c, 1, 59, 45
3, 7966, Note_on_c, 1, 59, 0
3, 7968, Note_on_c, 1, 57, 45
3, 7968, Note_on_c, 1, 61, 45
3, 8110, Note_on_c, 1, 61, 0
3, 8112, Note_on_c, 1, 59, 45
3, 8158, Note_on_c, 1, 59, 0
3, 8160, Note_on_c, 1, 61, 45
3, 8192, Note_on_c, 1, 61, 0
3, 8256, Note_on_c, 1, 64, 45
3, 8288, Note_on_c, 1, 64, 0
3, 8304, Note_on_c, 1, 57, 0
3, 8352, Note_on_c, 1, 57, 45
3, 8352, Note_on_c, 1, 62, 45
3, 8512, Note_on_c, 1, 62, 0
3, 8544, Note_on_c, 1, 61, 75
3, 8688, Note_on_c, 1, 57, 0
3, 8704, Note_on_c, 1, 61, 0
3, 8736, Note_on_c, 1, 57, 45
3, 8736, Note_on_c, 1, 59, 45
3, 8830, Note_on_c, 1, 59, 0
3, 8832, Note_on_c, 1, 62, 45
3, 8896, Note_on_c, 1, 57, 0
3, 8926, Note_on_c, 1, 62, 0
3, 8928, Note_on_c, 1, 57, 45
3, 8928, Note_on_c, 1, 59, 45
3, 9022, Note_on_c, 1, 59, 0
3, 9024, Note_on_c, 1, 62, 45
3, 9088, Note_on_c, 1, 57, 0
3, 9118, Note_on_c, 1, 62, 0
3, 9120, Note_on_c, 1, 57, 45
3, 9120, Note_on_c, 1, 61, 45
3, 9280, Note_on_c, 1, 57, 0
3, 9280, Note_on_c, 1, 61, 0
3, 9600, Note_on_c, 1, 52, 45
3, 9600, Note_on_c, 1, 59, 45
3, 9742, Note_on_c, 1, 59, 0
3, 9744, Note_on_c, 1, 59, 45
3, 9790, Note_on_c, 1, 59, 0
3, 9792, Note_on_c, 1, 57, 45
3, 9886, Note_on_c, 1, 57, 0
3, 9888, Note_on_c, 1, 56, 45
3, 9936, Note_on_c, 1, 52, 0
3, 9982, Note_on_c, 1, 56, 0
3, 9984, Note_on_c, 1, 52, 45
3, 9984, Note_on_c, 1, 62, 45
3, 10126, Note_on_c, 1, 62, 0
3, 10128, Note_on_c, 1, 64, 45
3, 10174, Note_on_c, 1, 64, 0
3, 10176, Note_on_c, 1, 62, 45
3, 10270, Note_on_c, 1, 62, 0
3, 10272, Note_on_c, 1, 61, 45
3, 10320, Note_on_c, 1, 52, 0
3, 10366, Note_on_c, 1, 61, 0
3, 10368, Note_on_c, 1, 52, 45
3, 10368, Note_on_c, 1, 59, 63
3, 10462, Note_on_c, 1, 59, 0
3, 10464, Note_on_c, 1, 57, 45
3, 10528, Note_on_c, 1, 52, 0
3, 10558, Note_on_c, 1, 57, 0
3, 10560, Note_on_c, 1, 52, 45
3, 10560, Note_on_c, 1, 59, 63
3, 10654, Note_on_c, 1, 59, 0
3, 10656, Note_on_c, 1, 57, 45
3, 10688, Note_on_c, 1, 57, 0
3, 10720, Note_on_c, 1, 52, 0
3, 10752, Note_on_c, 1, 52, 45
3, 10752, Note_on_c, 1, 64, 45
3, 10800, Note_on_c, 1, 52, 0
3, 10800, Note_on_c, 1, 64, 0
3, 10800, Note_on_c, 1, 63, 45
3, 10848, Note_on_c, 1, 63, 0
3, 10848, Note_on_c, 1, 64, 45
3, 10896, Note_on_c, 1, 64, 0
3, 10896, Note_on_c, 1, 66, 45
3, 10944, Note_on_c, 1, 66, 0
3, 10944, Note_on_c, 1, 64, 45
3, 10992, Note_on_c, 1, 64, 0
3, 10992, Note_on_c, 1, 62, 45
3, 11040, Note_on_c, 1, 62, 0
3, 11040, Note_on_c, 1, 61, 45
3, 11088, Note_on_c, 1, 61, 0
3, 11088, Note_on_c, 1, 59, 45
3, 11134, Note_on_c, 1, 59, 0
3, 11136, Note_on_c, 1, 57, 45
3, 11136, Note_on_c, 1, 61, 45
3, 11278, Note_on_c, 1, 61, 0
3, 11280, Note_on_c, 1, 59, 45
3, 11326, Note_on_c, 1, 59, 0
3, 11328, Note_on_c, 1, 61, 45
3, 11360, Note_on_c, 1, 61, 0
3, 11424, Note_on_c, 1, 64, 45
3, 11456, Note_on_c, 1, 64, 0
3, 11472, Note_on_c, 1, 57, 0
3, 11520, Note_on_c, 1, 57, 45
3, 11520, Note_on_c, 1, 62, 45
3, 11680, Note_on_c, 1, 62, 0
3, 11712, Note_on_c, 1, 61, 75
3, 11856, Note_on_c, 1, 57, 0
3, 11872, Note_on_c, 1, 61, 0
3, 11904, Note_on_c, 1, 57, 45
3, 11904, Note_on_c, 1, 59, 45
3, 11998, Note_on_c, 1, 59, 0
3, 12000, Note_on_c, 1, 62, 45
3, 12064, Note_on_c, 1, 57, 0
3, 12094, Note_on_c, 1, 62, 0
3, 12096, Note_on_c, 1, 57, 45
3, 12096, Note_on_c, 1, 59, 45
3, 12190, Note_on_c, 1, 59, 0
3, 12192, Note_on_c, 1, 62, 45
3, 12256, Note_on_c, 1, 57, 0
3, 12286, Note_on_c, 1, 62, 0
3, 12288, Note_on_c, 1, 57, 45
3, 12288, Note_on_c, 1, 61, 45
3, 12448, Note_on_c, 1, 57, 0
3, 12448, Note_on_c, 1, 61, 0
3, 12672, Note_on_c, 1, 57, 60
3, 12672, Note_on_c, 1, 61, 60
3, 12832, Note_on_c, 1, 57, 0
3, 12832, Note_on_c, 1, 61, 0
3, 12864, Note_on_c, 1, 45, 60
3, 13024, Note_on_c, 1, 45, 0
3, 13056, Note_on_c, 1, 40, 60
3, 13248, Note_on_c, 1, 40, 0
3, 13248, Note_on_c, 1, 33, 60
3, 13440, Note_on_c, 1, 33, 0
3, 13440, Note_on_c, 1, 38, 60
3, 13632, Note_on_c, 1, 38, 0
3, 13632, Note_on_c, 1, 45, 60
3, 13824, Note_on_c, 1, 45, 0
3, 13824, Note_on_c, 1, 50, 60
3, 14016, Note_on_c, 1, 50, 0
3, 14016, Note_on_c, 1, 43, 60
3, 14208, Note_on_c, 1, 43, 0
3, 14208, Note_on_c, 1, 48, 60
3, 14368, Note_on_c, 1, 48, 0
3, 14400, Note_on_c, 1, 45, 60
3, 14592, Note_on_c, 1, 45, 0
3, 14592, Note_on_c, 1, 47, 60
3, 14784, Note_on_c, 1, 47, 0
3, 14784, Note_on_c, 1, 51, 60
3, 14976, Note_on_c, 1, 51, 0
3, 14976, Note_on_c, 1, 52, 60
3, 15168, Note_on_c, 1, 52, 0
3, 15168, Note_on_c, 1, 53, 60
3, 15360, Note_on_c, 1, 53, 0
3, 15360, Note_on_c, 1, 50, 60
3, 15552, Note_on_c, 1, 50, 0
3, 15552, Note_on_c, 1, 52, 60
3, 15744, Note_on_c, 1, 52, 0
3, 15744, Note_on_c, 1, 45, 60
3, 15904, Note_on_c, 1, 45, 0
3, 15936, Note_on_c, 1, 41, 60
3, 15936, Note_on_c, 1, 53, 60
3, 16096, Note_on_c, 1, 41, 0
3, 16096, Note_on_c, 1, 53, 0
3, 16128, Note_on_c, 1, 41, 76
3, 16128, Note_on_c, 1, 53, 76
3, 16288, Note_on_c, 1, 41, 0
3, 16288, Note_on_c, 1, 53, 0
3, 16320, Note_on_c, 1, 41, 92
3, 16320, Note_on_c, 1, 53, 92
3, 16480, Note_on_c, 1, 41, 0
3, 16480, Note_on_c, 1, 53, 0
3, 16512, Note_on_c, 1, 40, 92
3, 16512, Note_on_c, 1, 52, 92
3, 16672, Note_on_c, 1, 40, 0
3, 16672, Note_on_c, 1, 52, 0
3, 16704, Note_on_c, 1, 53, 45
3, 16896, Note_on_c, 1, 53, 0
3, 16896, Note_on_c, 1, 50, 45
3, 17088, Note_on_c, 1, 50, 0
3, 17088, Note_on_c, 1, 52, 45
3, 17280, Note_on_c, 1, 52, 0
3, 17280, Note_on_c, 1, 45, 45
3, 17440, Note_on_c, 1, 45, 0
3, 17472, Note_on_c, 1, 41, 45
3, 17632, Note_on_c, 1, 41, 0
3, 17664, Note_on_c, 1, 39, 45
3, 17824, Note_on_c, 1, 39, 0
3, 17856, Note_on_c, 1, 40, 45
3, 18016, Note_on_c, 1, 40, 0
3, 18048, Note_on_c, 1, 33, 45
3, 18048, Note_on_c, 1, 45, 45
3, 18384, Note_on_c, 1, 33, 0
3, 18384, Note_on_c, 1, 45, 0
3, 18432, Note_on_c, 1, 57, 45
3, 18432, Note_on_c, 1, 61, 45
3, 18574, Note_on_c, 1, 61, 0
3, 18576, Note_on_c, 1, 59, 45
3, 18622, Note_on_c, 1, 59, 0
3, 18624, Note_on_c, 1, 61, 45
3, 18656, Note_on_c, 1, 61, 0
3, 18720, Note_on_c, 1, 64, 45
3, 18752, Note_on_c, 1, 64, 0
3, 18768, Note_on_c, 1, 57, 0
3, 18816, Note_on_c, 1, 57, 45
3, 18816, Note_on_c, 1, 62, 45
3, 18976, Note_on_c, 1, 62, 0
3, 19008, Note_on_c, 1, 61, 75
3, 19152, Note_on_c, 1, 57, 0
3, 19168, Note_on_c, 1, 61, 0
3, 19200, Note_on_c, 1, 57, 45
3, 19200, Note_on_c, 1, 59, 45
3, 19294, Note_on_c, 1, 59, 0
3, 19296, Note_on_c, 1, 62, 45
3, 19360, Note_on_c, 1, 57, 0
3, 19390, Note_on_c, 1, 62, 0
3, 19392, Note_on_c, 1, 57, 45
3, 19392, Note_on_c, 1, 59, 45
3, 19486, Note_on_c, 1, 59, 0
3, 19488, Note_on_c, 1, 62, 45
3, 19552, Note_on_c, 1, 57, 0
3, 19582, Note_on_c, 1, 62, 0
3, 19584, Note_on_c, 1, 57, 45
3, 19584, Note_on_c, 1, 61, 45
3, 19678, Note_on_c, 1, 57, 0
3, 19678, Note_on_c, 1, 61, 0
3, 19824, Note_on_c, 1, 66, 45
3, 19870, Note_on_c, 1, 66, 0
3, 19872, Note_on_c, 1, 64, 45
3, 19918, Note_on_c, 1, 64, 0
3, 19920, Note_on_c, 1, 62, 45
3, 19966, Note_on_c, 1, 62, 0
3, 19968, Note_on_c, 1, 57, 45
3, 19968, Note_on_c, 1, 61, 45
3, 20110, Note_on_c, 1, 61, 0
3, 20112, Note_on_c, 1, 59, 45
3, 20158, Note_on_c, 1, 59, 0
3, 20160, Note_on_c, 1, 61, 45
3, 20192, Note_on_c, 1, 61, 0
3, 20256, Note_on_c, 1, 64, 45
3, 20288, Note_on_c, 1, 64, 0
3, 20304, Note_on_c, 1, 57, 0
3, 20352, Note_on_c, 1, 57, 45
3, 20352, Note_on_c, 1, 62, 45
3, 20512, Note_on_c, 1, 62, 0
3, 20544, Note_on_c, 1, 61, 75
3, 20688, Note_on_c, 1, 57, 0
3, 20704, Note_on_c, 1, 61, 0
3, 20736, Note_on_c, 1, 57, 45
3, 20736, Note_on_c, 1, 59, 45
3, 20830, Note_on_c, 1, 59, 0
3, 20832, Note_on_c, 1, 62, 45
3, 20896, Note_on_c, 1, 57, 0
3, 20926, Note_on_c, 1, 62, 0
3, 20928, Note_on_c, 1, 57, 45
3, 20928, Note_on_c, 1, 57, 45
3, 21022, Note_on_c, 1, 57, 0
3, 21024, Note_on_c, 1, 62, 45
3, 21088, Note_on_c, 1, 57, 0
3, 21118, Note_on_c, 1, 62, 0
3, 21120, Note_on_c, 1, 57, 45
3, 21120, Note_on_c, 1, 61, 45
3, 21214, Note_on_c, 1, 57, 0
3, 21214, Note_on_c, 1, 61, 0
3, 21504, Note_on_c, 1, 40, 45
3, 21664, Note_on_c, 1, 40, 0
3, 21696, Note_on_c, 1, 40, 45
3, 21764, Note_on_c, 1, 40, 0
3, 21792, Note_on_c, 1, 40, 45
3, 21824, Note_on_c, 1, 40, 0
3, 21888, Note_on_c, 1, 40, 45
3, 21910, Note_on_c, 1, 40, 0
3, 21912, Note_on_c, 1, 42, 50
3, 21934, Note_on_c, 1, 42, 0
3, 21936, Note_on_c, 1, 40, 56
3, 21958, Note_on_c, 1, 40, 0
3, 21960, Note_on_c, 1, 42, 62
3, 21982, Note_on_c, 1, 42, 0
3, 21984, Note_on_c, 1, 39, 68
3, 21984, Note_on_c, 1, 42, 68
3, 22006, Note_on_c, 1, 39, 0
3, 22008, Note_on_c, 1, 40, 68
3, 22030, Note_on_c, 1, 40, 0
3, 22030, Note_on_c, 1, 42, 0
3, 22032, Note_on_c, 1, 44, 80
3, 22078, Note_on_c, 1, 44, 0
3, 22080, Note_on_c, 1, 45, 92
3, 22174, Note_on_c, 1, 45, 0
3, 22176, Note_on_c, 1, 40, 92
3, 22270, Note_on_c, 1, 40, 0
3, 22272, Note_on_c, 1, 40, 60
3, 22432, Note_on_c, 1, 40, 0
3, 22464, Note_on_c, 1, 40, 60
3, 22496, Note_on_c, 1, 40, 0
3, 22560, Note_on_c, 1, 40, 60
3, 22592, Note_on_c, 1, 40, 0
3, 22656, Note_on_c, 1, 40, 60
3, 22702, Note_on_c, 1, 40, 0
3, 22704, Note_on_c, 1, 39, 60
3, 22750, Note_on_c, 1, 39, 0
3, 22752, Note_on_c, 1, 40, 60
3, 22798, Note_on_c, 1, 40, 0
3, 22800, Note_on_c, 1, 42, 60
3, 22846, Note_on_c, 1, 42, 0
3, 22848, Note_on_c, 1, 40, 60
3, 22894, Note_on_c, 1, 40, 0
3, 22896, Note_on_c, 1, 38, 60
3, 22942, Note_on_c, 1, 38, 0
3, 22944, Note_on_c, 1, 37, 60
3, 22990, Note_on_c, 1, 37, 0
3, 22992, Note_on_c, 1, 35, 60
3, 23038, Note_on_c, 1, 35, 0
3, 23040, Note_on_c, 1, 40, 60
3, 23200, Note_on_c, 1, 40, 0
3, 23232, Note_on_c, 1, 40, 60
3, 23300, Note_on_c, 1, 40, 0
3, 23328, Note_on_c, 1, 40, 60
3, 23360, Note_on_c, 1, 40, 0
3, 23424, Note_on_c, 1, 40, 60
3, 23446, Note_on_c, 1, 40, 0
3, 23448, Note_on_c, 1, 42, 64
3, 23470, Note_on_c, 1, 42, 0
3, 23472, Note_on_c, 1, 40, 68
3, 23494, Note_on_c, 1, 40, 0
3, 23496, Note_on_c, 1, 42, 72
3, 23518, Note_on_c, 1, 42, 0
3, 23520, Note_on_c, 1, 39, 76
3, 23520, Note_on_c, 1, 42, 76
3, 23542, Note_on_c, 1, 39, 0
3, 23544, Note_on_c, 1, 40, 76
3, 23566, Note_on_c, 1, 40, 0
3, 23566, Note_on_c, 1, 42, 0
3, 23568, Note_on_c, 1, 44, 84
3, 23614, Note_on_c, 1, 44, 0
3, 23616, Note_on_c, 1, 45, 92
3, 23710, Note_on_c, 1, 45, 0
3, 23712, Note_on_c, 1, 40, 92
3, 23806, Note_on_c, 1, 40, 0
3, 23808, Note_on_c, 1, 40, 60
3, 23968, Note_on_c, 1, 40, 0
3, 24000, Note_on_c, 1, 40, 60
3, 24032, Note_on_c, 1, 40, 0
3, 24096, Note_on_c, 1, 40, 60
3, 24128, Note_on_c, 1, 40, 0
3, 24192, Note_on_c, 1, 33, 60
3, 24286, Note_on_c, 1, 33, 0
3, 24480, Note_on_c, 1, 61, 45
3, 24528, Note_on_c, 1, 61, 0
3, 24528, Note_on_c, 1, 52, 45
3, 24576, Note_on_c, 1, 52, 0
3, 24576, Note_on_c, 1, 59, 45
3, 24624, Note_on_c, 1, 59, 0
3, 24624, Note_on_c, 1, 58, 45
3, 24672, Note_on_c, 1, 58, 0
3, 24672, Note_on_c, 1, 59, 45
3, 24720, Note_on_c, 1, 59, 0
3, 24720, Note_on_c, 1, 52, 45
3, 24768, Note_on_c, 1, 52, 0
3, 24768, Note_on_c, 1, 59, 45
3, 24816, Note_on_c, 1, 59, 0
3, 24816, Note_on_c, 1, 52, 45
3, 24864, Note_on_c, 1, 52, 0
3, 24864, Note_on_c, 1, 57, 45
3, 24912, Note_on_c, 1, 57, 0
3, 24912, Note_on_c, 1, 52, 45
3, 24958, Note_on_c, 1, 52, 0
3, 24960, Note_on_c, 1, 62, 45
3, 25008, Note_on_c, 1, 62, 0
3, 25008, Note_on_c, 1, 61, 45
3, 25056, Note_on_c, 1, 61, 0
3, 25056, Note_on_c, 1, 62, 45
3, 25104, Note_on_c, 1, 62, 0
3, 25104, Note_on_c, 1, 52, 45
3, 25152, Note_on_c, 1, 52, 0
3, 25152, Note_on_c, 1, 62, 45
3, 25200, Note_on_c, 1, 62, 0
3, 25200, Note_on_c, 1, 52, 45
3, 25248, Note_on_c, 1, 52, 0
3, 25248, Note_on_c, 1, 61, 45
3, 25296, Note_on_c, 1, 61, 0
3, 25296, Note_on_c, 1, 52, 45
3, 25342, Note_on_c, 1, 52, 0
3, 25344, Note_on_c, 1, 59, 45
3, 25392, Note_on_c, 1, 59, 0
3, 25392, Note_on_c, 1, 52, 45
3, 25440, Note_on_c, 1, 52, 0
3, 25440, Note_on_c, 1, 57, 45
3, 25488, Note_on_c, 1, 57, 0
3, 25488, Note_on_c, 1, 52, 45
3, 25534, Note_on_c, 1, 52, 0
3, 25536, Note_on_c, 1, 59, 45
3, 25584, Note_on_c, 1, 59, 0
3, 25584, Note_on_c, 1, 52, 45
3, 25632, Note_on_c, 1, 52, 0
3, 25632, Note_on_c, 1, 57, 45
3, 25680, Note_on_c, 1, 57, 0
3, 25680, Note_on_c, 1, 52, 45
3, 25726, Note_on_c, 1, 52, 0
3, 25728, Note_on_c, 1, 64, 45
3, 25776, Note_on_c, 1, 64, 0
3, 25776, Note_on_c, 1, 63, 45
3, 25824, Note_on_c, 1, 63, 0
3, 25824, Note_on_c, 1, 64, 45
3, 25872, Note_on_c, 1, 64, 0
3, 25872, Note_on_c, 1, 66, 45
3, 25920, Note_on_c, 1, 66, 0
3, 25920, Note_on_c, 1, 64, 45
3, 25968, Note_on_c, 1, 64, 0
3, 25968, Note_on_c, 1, 62, 45
3, 26016, Note_on_c, 1, 62, 0
3, 26016, Note_on_c, 1, 61, 45
3, 26064, Note_on_c, 1, 61, 0
3, 26064, Note_on_c, 1, 59, 45
3, 26110, Note_on_c, 1, 59, 0
3, 26112, Note_on_c, 1, 61, 45
3, 26158, Note_on_c, 1, 61, 0
3, 26160, Note_on_c, 1, 57, 45
3, 26206, Note_on_c, 1, 57, 0
3, 26208, Note_on_c, 1, 59, 45
3, 26254, Note_on_c, 1, 59, 0
3, 26256, Note_on_c, 1, 57, 45
3, 26302, Note_on_c, 1, 57, 0
3, 26304, Note_on_c, 1, 61, 45
3, 26350, Note_on_c, 1, 61, 0
3, 26352, Note_on_c, 1, 57, 48
3, 26398, Note_on_c, 1, 57, 0
3, 26400, Note_on_c, 1, 64, 51
3, 26446, Note_on_c, 1, 64, 0
3, 26448, Note_on_c, 1, 57, 55
3, 26494, Note_on_c, 1, 57, 0
3, 26496, Note_on_c, 1, 62, 59
3, 26544, Note_on_c, 1, 62, 0
3, 26544, Note_on_c, 1, 57, 63
3, 26592, Note_on_c, 1, 57, 0
3, 26592, Note_on_c, 1, 62, 67
3, 26640, Note_on_c, 1, 62, 0
3, 26640, Note_on_c, 1, 57, 71
3, 26688, Note_on_c, 1, 57, 0
3, 26688, Note_on_c, 1, 61, 75
3, 26736, Note_on_c, 1, 61, 0
3, 26736, Note_on_c, 1, 57, 75
3, 26784, Note_on_c, 1, 57, 0
3, 26784, Note_on_c, 1, 61, 45
3, 26832, Note_on_c, 1, 61, 0
3, 26832, Note_on_c, 1, 57, 45
3, 26880, Note_on_c, 1, 57, 0
3, 26880, Note_on_c, 1, 59, 45
3, 26928, Note_on_c, 1, 59, 0
3, 26928, Note_on_c, 1, 57, 45
3, 26976, Note_on_c, 1, 57, 0
3, 26976, Note_on_c, 1, 62, 45
3, 27024, Note_on_c, 1, 62, 0
3, 27024, Note_on_c, 1, 57, 45
3, 27072, Note_on_c, 1, 57, 0
3, 27072, Note_on_c, 1, 59, 45
3, 27120, Note_on_c, 1, 59, 0
3, 27120, Note_on_c, 1, 57, 45
3, 27168, Note_on_c, 1, 57, 0
3, 27168, Note_on_c, 1, 62, 45
3, 27216, Note_on_c, 1, 62, 0
3, 27216, Note_on_c, 1, 57, 45
3, 27264, Note_on_c, 1, 57, 0
3, 27264, Note_on_c, 1, 57, 45
3, 27264, Note_on_c, 1, 61, 45
3, 27310, Note_on_c, 1, 57, 0
3, 27310, Note_on_c, 1, 61, 0
3, 27312, Note_on_c, 1, 57, 45
3, 27360, Note_on_c, 1, 57, 0
3, 27360, Note_on_c, 1, 59, 45
3, 27408, Note_on_c, 1, 59, 0
3, 27408, Note_on_c, 1, 57, 45
3, 27456, Note_on_c, 1, 57, 0
3, 27456, Note_on_c, 1, 56, 45
3, 27504, Note_on_c, 1, 56, 0
3, 27504, Note_on_c, 1, 57, 45
3, 27552, Note_on_c, 1, 57, 0
3, 27552, Note_on_c, 1, 59, 45
3, 27600, Note_on_c, 1, 59, 0
3, 27600, Note_on_c, 1, 61, 45
3, 27646, Note_on_c, 1, 61, 0
3, 27648, Note_on_c, 1, 62, 45
3, 27792, Note_on_c, 1, 62, 0
3, 27792, Note_on_c, 1, 64, 45
3, 27840, Note_on_c, 1, 64, 0
3, 27840, Note_on_c, 1, 62, 45
3, 27936, Note_on_c, 1, 62, 0
3, 27936, Note_on_c, 1, 61, 45
3, 28030, Note_on_c, 1, 61, 0
3, 28032, Note_on_c, 1, 50, 45
3, 28032, Note_on_c, 1, 59, 45
3, 28176, Note_on_c, 1, 50, 0
3, 28176, Note_on_c, 1, 59, 0
3, 28176, Note_on_c, 1, 52, 45
3, 28176, Note_on_c, 1, 61, 45
3, 28224, Note_on_c, 1, 52, 0
3, 28224, Note_on_c, 1, 61, 0
3, 28224, Note_on_c, 1, 50, 45
3, 28224, Note_on_c, 1, 59, 45
3, 28320, Note_on_c, 1, 50, 0
3, 28320, Note_on_c, 1, 59, 0
3, 28320, Note_on_c, 1, 49, 45
3, 28320, Note_on_c, 1, 57, 45
3, 28414, Note_on_c, 1, 49, 0
3, 28414, Note_on_c, 1, 57, 0
3, 28416, Note_on_c, 1, 56, 45
3, 28416, Note_on_c, 1, 64, 63
3, 28462, Note_on_c, 1, 64, 0
3, 28464, Note_on_c, 1, 62, 45
3, 28510, Note_on_c, 1, 56, 0
3, 28510, Note_on_c, 1, 62, 0
3, 28512, Note_on_c, 1, 57, 45
3, 28512, Note_on_c, 1, 61, 45
3, 28544, Note_on_c, 1, 57, 0
3, 28544, Note_on_c, 1, 61, 0
3, 28608, Note_on_c, 1, 56, 45
3, 28608, Note_on_c, 1, 64, 63
3, 28654, Note_on_c, 1, 64, 0
3, 28656, Note_on_c, 1, 62, 45
3, 28702, Note_on_c, 1, 56, 0
3, 28702, Note_on_c, 1, 62, 0
3, 28704, Note_on_c, 1, 57, 45
3, 28704, Note_on_c, 1, 61, 45
3, 28736, Note_on_c, 1, 57, 0
3, 28736, Note_on_c, 1, 61, 0
3, 28800, Note_on_c, 1, 52, 45
3, 28800, Note_on_c, 1, 59, 45
3, 28832, Note_on_c, 1, 52, 0
3, 28832, Note_on_c, 1, 59, 0
3, 29184, Note_on_c, 1, 40, 45
3, 29344, Note_on_c, 1, 40, 0
3, 29376, Note_on_c, 1, 40, 45
3, 29444, Note_on_c, 1, 40, 0
3, 29472, Note_on_c, 1, 40, 45
3, 29504, Note_on_c, 1, 40, 0
3, 29568, Note_on_c, 1, 40, 45
3, 29590, Note_on_c, 1, 40, 0
3, 29592, Note_on_c, 1, 42, 50
3, 29614, Note_on_c, 1, 42, 0
3, 29616, Note_on_c, 1, 40, 56
3, 29638, Note_on_c, 1, 40, 0
3, 29640, Note_on_c, 1, 42, 62
3, 29662, Note_on_c, 1, 42, 0
3, 29664, Note_on_c, 1, 39, 68
3, 29664, Note_on_c, 1, 42, 68
3, 29686, Note_on_c, 1, 39, 0
3, 29688, Note_on_c, 1, 40, 68
3, 29710, Note_on_c, 1, 40, 0
3, 29710, Note_on_c, 1, 42, 0
3, 29712, Note_on_c, 1, 44, 80
3, 29758, Note_on_c, 1, 44, 0
3, 29760, Note_on_c, 1, 45, 92
3, 29854, Note_on_c, 1, 45, 0
3, 29856, Note_on_c, 1, 40, 92
3, 29950, Note_on_c, 1, 40, 0
3, 29952, Note_on_c, 1, 40, 60
3, 30112, Note_on_c, 1, 40, 0
3, 30144, Note_on_c, 1, 40, 60
3, 30176, Note_on_c, 1, 40, 0
3, 30240, Note_on_c, 1, 40, 60
3, 30272, Note_on_c, 1, 40, 0
3, 30336, Note_on_c, 1, 33, 60
3, 30430, Note_on_c, 1, 33, 0
3, 30528, Note_on_c, 1, 66, 92
3, 30688, Note_on_c, 1, 66, 0
3, 30720, Note_on_c, 1, 62, 60
3, 30816, Note_on_c, 1, 62, 0
3, 30816, Note_on_c, 1, 59, 60
3, 30912, Note_on_c, 1, 59, 0
3, 30912, Note_on_c, 1, 64, 60
3, 31008, Note_on_c, 1, 64, 0
3, 31008, Note_on_c, 1, 52, 60
3, 31104, Note_on_c, 1, 52, 0
3, 31104, Note_on_c, 1, 57, 60
3, 31264, Note_on_c, 1, 57, 0
3, 31296, Note_on_c, 1, 54, 92
3, 31456, Note_on_c, 1, 54, 0
3, 31488, Note_on_c, 1, 50, 60
3, 31582, Note_on_c, 1, 50, 0
3, 31584, Note_on_c, 1, 47, 60
3, 31678, Note_on_c, 1, 47, 0
3, 31680, Note_on_c, 1, 52, 60
3, 31774, Note_on_c, 1, 52, 0
3, 31776, Note_on_c, 1, 40, 60
3, 31870, Note_on_c, 1, 40, 0
3, 31872, Note_on_c, 1, 45, 60
3, 31904, Note_on_c, 1, 45, 0
3, 32064, Note_on_c, 1, 64, 60
3, 32096, Note_on_c, 1, 64, 0
3, 32160, Note_on_c, 1, 64, 57
3, 32192, Note_on_c, 1, 64, 0
3, 32256, Note_on_c, 1, 57, 53
3, 32288, Note_on_c, 1, 57, 0
3, 32448, Note_on_c, 1, 40, 45
3, 32480, Note_on_c, 1, 40, 0
3, 32640, Note_on_c, 1, 33, 45
3, 32672, Note_on_c, 1, 33, 0
3, 32672, End_track
0, 0, End_of_file