0, 0, Header, 1, 3, 192
1, 0, Start_track
1, 0, Title_t, "Rondo Opus.51, No.2"
1, 0, Text_t, "By Ludwig Van Beethoven"
1, 0, Copyright_t, "Copyright \251October 2001 by Reginald Steven Ritchie"
1, 0, Copyright_t, "All Rights Reserved Reginald Steven Ritchie"
1, 0, Text_t, "Generated by NoteWorthy Composer"
1, 0, Tempo, 666666
1, 0, Tempo, 666666
1, 0, Key_signature, 1, "major"
1, 0, Time_signature, 2, 2, 24, 8
1, 42696, Tempo, 375000
1, 42696, Tempo, 375000
1, 42696, Key_signature, 4, "major"
1, 42696, Time_signature, 6, 3, 24, 8
1, 69288, Tempo, 400000
1, 69288, Tempo, 400000
1, 69864, Tempo, 461538
1, 69864, Tempo, 461538
1, 70632, Tempo, 666666
1, 70632, Tempo, 666666
1, 70632, Key_signature, 1, "major"
1, 70632, Time_signature, 2, 2, 24, 8
1, 70632, End_track
2, 0, Start_track
2, 0, MIDI_port, 0
2, 0, Title_t, "Copyright 2001 Reg"
2, 0, Program_c, 0, 0
2, 0, Control_c, 0, 7, 127
2, 0, Control_c, 0, 10, 110
2, 0, Program_c, 0, 0
2, 0, Control_c, 0, 7, 127
2, 0, Control_c, 0, 10, 110
2, 0, Control_c, 0, 91, 83
2, 0, Control_c, 0, 93, 78
2, 0, Note_on_c, 0, 71, 60
2, 160, Note_on_c, 0, 71, 0
2, 192, Note_on_c, 0, 72, 60
2, 216, Note_on_c, 0, 74, 60
2, 238, Note_on_c, 0, 74, 0
2, 240, Note_on_c, 0, 76, 60
2, 262, Note_on_c, 0, 76, 0
2, 264, Note_on_c, 0, 74, 60
2, 286, Note_on_c, 0, 74, 0
2, 288, Note_on_c, 0, 76, 60
2, 310, Note_on_c, 0, 76, 0
2, 312, Note_on_c, 0, 74, 60
2, 334, Note_on_c, 0, 72, 0
2, 334, Note_on_c, 0, 74, 0
2, 336, Note_on_c, 0, 71, 60
2, 358, Note_on_c, 0, 71, 0
2, 360, Note_on_c, 0, 72, 60
2, 382, Note_on_c, 0, 72, 0
2, 384, Note_on_c, 0, 74, 60
2, 544, Note_on_c, 0, 74, 0
2, 576, Note_on_c, 0, 74, 60
2, 598, Note_on_c, 0, 74, 0
2, 600, Note_on_c, 0, 73, 60
2, 622, Note_on_c, 0, 73, 0
2, 624, Note_on_c, 0, 76, 60
2, 646, Note_on_c, 0, 76, 0
2, 648, Note_on_c, 0, 74, 60
2, 670, Note_on_c, 0, 74, 0
2, 672, Note_on_c, 0, 72, 60
2, 694, Note_on_c, 0, 72, 0
2, 696, Note_on_c, 0, 71, 60
2, 718, Note_on_c, 0, 71, 0
2, 720, Note_on_c, 0, 69, 60
2, 742, Note_on_c, 0, 69, 0
2, 744, Note_on_c, 0, 67, 60
2, 766, Note_on_c, 0, 67, 0
2, 768, Note_on_c, 0, 60, 60
2, 768, Note_on_c, 0, 66, 60
2, 800, Note_on_c, 0, 60, 0
2, 800, Note_on_c, 0, 66, 0
2, 936, Note_on_c, 0, 62, 60
2, 958, Note_on_c, 0, 62, 0
2, 960, Note_on_c, 0, 59, 60
2, 960, Note_on_c, 0, 67, 60
2, 992, Note_on_c, 0, 59, 0
2, 992, Note_on_c, 0, 67, 0
2, 1128, Note_on_c, 0, 62, 60
2, 1144, Note_on_c, 0, 62, 0
2, 1152, Note_on_c, 0, 67, 60
2, 1152, Note_on_c, 0, 71, 60
2, 1246, Note_on_c, 0, 67, 0
2, 1248, Note_on_c, 0, 62, 60
2, 1312, Note_on_c, 0, 71, 0
2, 1342, Note_on_c, 0, 62, 0
2, 1344, Note_on_c, 0, 66, 60
2, 1344, Note_on_c, 0, 69, 60
2, 1438, Note_on_c, 0, 66, 0
2, 1438, Note_on_c, 0, 69, 0
2, 1440, Note_on_c, 0, 62, 60
2, 1534, Note_on_c, 0, 62, 0
2, 1536, Note_on_c, 0, 66, 60
2, 1536, Note_on_c, 0, 71, 60
2, 1630, Note_on_c, 0, 66, 0
2, 1632, Note_on_c, 0, 63, 60
2, 1696, Note_on_c, 0, 71, 0
2, 1726, Note_on_c, 0, 63, 0
2, 1728, Note_on_c, 0, 67, 60
2, 1728, Note_on_c, 0, 71, 60
2, 1750, Note_on_c, 0, 71, 0
2, 1752, Note_on_c, 0, 70, 60
2, 1774, Note_on_c, 0, 70, 0
2, 1776, Note_on_c, 0, 72, 60
2, 1798, Note_on_c, 0, 72, 0
2, 1800, Note_on_c, 0, 71, 60
2, 1822, Note_on_c, 0, 67, 0
2, 1822, Note_on_c, 0, 71, 0
2, 1824, Note_on_c, 0, 69, 60
2, 1846, Note_on_c, 0, 69, 0
2, 1848, Note_on_c, 0, 67, 60
2, 1870, Note_on_c, 0, 67, 0
2, 1872, Note_on_c, 0, 66, 60
2, 1894, Note_on_c, 0, 66, 0
2, 1896, Note_on_c, 0, 64, 60
2, 1912, Note_on_c, 0, 64, 0
2, 1920, Note_on_c, 0, 64, 60
2, 1920, Note_on_c, 0, 69, 60
2, 2014, Note_on_c, 0, 64, 0
2, 2016, Note_on_c, 0, 61, 60
2, 2080, Note_on_c, 0, 69, 0
2, 2110, Note_on_c, 0, 61, 0
2, 2112, Note_on_c, 0, 66, 60
2, 2112, Note_on_c, 0, 69, 60
2, 2134, Note_on_c, 0, 69, 0
2, 2136, Note_on_c, 0, 68, 60
2, 2158, Note_on_c, 0, 68, 0
2, 2160, Note_on_c, 0, 71, 60
2, 2182, Note_on_c, 0, 71, 0
2, 2184, Note_on_c, 0, 69, 60
2, 2206, Note_on_c, 0, 66, 0
2, 2206, Note_on_c, 0, 69, 0
2, 2208, Note_on_c, 0, 67, 60
2, 2230, Note_on_c, 0, 67, 0
2, 2232, Note_on_c, 0, 66, 60
2, 2254, Note_on_c, 0, 66, 0
2, 2256, Note_on_c, 0, 64, 60
2, 2278, Note_on_c, 0, 64, 0
2, 2280, Note_on_c, 0, 62, 60
2, 2296, Note_on_c, 0, 62, 0
2, 2304, Note_on_c, 0, 62, 60
2, 2304, Note_on_c, 0, 66, 60
2, 2464, Note_on_c, 0, 62, 0
2, 2464, Note_on_c, 0, 66, 0
2, 2496, Note_on_c, 0, 61, 60
2, 2496, Note_on_c, 0, 64, 60
2, 2638, Note_on_c, 0, 64, 0
2, 2640, Note_on_c, 0, 66, 60
2, 2656, Note_on_c, 0, 61, 0
2, 2662, Note_on_c, 0, 66, 0
2, 2664, Note_on_c, 0, 66, 60
2, 2686, Note_on_c, 0, 66, 0
2, 2688, Note_on_c, 0, 62, 60
2, 2720, Note_on_c, 0, 62, 0
2, 2736, Note_on_c, 0, 64, 60
2, 2768, Note_on_c, 0, 64, 0
2, 2784, Note_on_c, 0, 66, 60
2, 2816, Note_on_c, 0, 66, 0
2, 2832, Note_on_c, 0, 67, 60
2, 2864, Note_on_c, 0, 67, 0
2, 2880, Note_on_c, 0, 68, 60
2, 2912, Note_on_c, 0, 68, 0
2, 2928, Note_on_c, 0, 69, 60
2, 2960, Note_on_c, 0, 69, 0
2, 2976, Note_on_c, 0, 70, 60
2, 3008, Note_on_c, 0, 70, 0
2, 3024, Note_on_c, 0, 71, 60
2, 3056, Note_on_c, 0, 71, 0
2, 3072, Note_on_c, 0, 69, 60
2, 3072, Note_on_c, 0, 72, 60
2, 3166, Note_on_c, 0, 69, 0
2, 3168, Note_on_c, 0, 62, 60
2, 3232, Note_on_c, 0, 72, 0
2, 3262, Note_on_c, 0, 62, 0
2, 3264, Note_on_c, 0, 67, 60
2, 3264, Note_on_c, 0, 71, 60
2, 3358, Note_on_c, 0, 67, 0
2, 3360, Note_on_c, 0, 62, 60
2, 3424, Note_on_c, 0, 71, 0
2, 3454, Note_on_c, 0, 62, 0
2, 3456, Note_on_c, 0, 60, 60
2, 3456, Note_on_c, 0, 69, 60
2, 3550, Note_on_c, 0, 60, 0
2, 3552, Note_on_c, 0, 62, 60
2, 3616, Note_on_c, 0, 69, 0
2, 3646, Note_on_c, 0, 62, 0
2, 3648, Note_on_c, 0, 59, 60
2, 3648, Note_on_c, 0, 67, 60
2, 3742, Note_on_c, 0, 59, 0
2, 3744, Note_on_c, 0, 62, 60
2, 3808, Note_on_c, 0, 67, 0
2, 3838, Note_on_c, 0, 62, 0
2, 3840, Note_on_c, 0, 62, 60
2, 3862, Note_on_c, 0, 62, 0
2, 3864, Note_on_c, 0, 64, 60
2, 3886, Note_on_c, 0, 64, 0
2, 3888, Note_on_c, 0, 66, 60
2, 3910, Note_on_c, 0, 66, 0
2, 3912, Note_on_c, 0, 67, 60
2, 3934, Note_on_c, 0, 67, 0
2, 3936, Note_on_c, 0, 69, 60
2, 3958, Note_on_c, 0, 69, 0
2, 3960, Note_on_c, 0, 71, 60
2, 3982, Note_on_c, 0, 71, 0
2, 3984, Note_on_c, 0, 72, 60
2, 4006, Note_on_c, 0, 72, 0
2, 4008, Note_on_c, 0, 73, 60
2, 4030, Note_on_c, 0, 73, 0
2, 4032, Note_on_c, 0, 74, 60
2, 4054, Note_on_c, 0, 74, 0
2, 4056, Note_on_c, 0, 76, 60
2, 4078, Note_on_c, 0, 76, 0
2, 4080, Note_on_c, 0, 78, 60
2, 4102, Note_on_c, 0, 78, 0
2, 4104, Note_on_c, 0, 79, 60
2, 4126, Note_on_c, 0, 79, 0
2, 4128, Note_on_c, 0, 81, 60
2, 4150, Note_on_c, 0, 81, 0
2, 4152, Note_on_c, 0, 83, 60
2, 4174, Note_on_c, 0, 83, 0
2, 4176, Note_on_c, 0, 84, 60
2, 4198, Note_on_c, 0, 84, 0
2, 4200, Note_on_c, 0, 85, 60
2, 4222, Note_on_c, 0, 85, 0
2, 4224, Note_on_c, 0, 86, 60
2, 4256, Note_on_c, 0, 86, 0
2, 4320, Note_on_c, 0, 62, 60
2, 4352, Note_on_c, 0, 62, 0
2, 4416, Note_on_c, 0, 62, 60
2, 4448, Note_on_c, 0, 62, 0
2, 4512, Note_on_c, 0, 62, 60
2, 4544, Note_on_c, 0, 62, 0
2, 4608, Note_on_c, 0, 71, 60
2, 4608, Note_on_c, 0, 74, 60
2, 4702, Note_on_c, 0, 71, 0
2, 4704, Note_on_c, 0, 62, 60
2, 4768, Note_on_c, 0, 74, 0
2, 4798, Note_on_c, 0, 62, 0
2, 4800, Note_on_c, 0, 69, 60
2, 4800, Note_on_c, 0, 72, 60
2, 4894, Note_on_c, 0, 69, 0
2, 4896, Note_on_c, 0, 62, 60
2, 4960, Note_on_c, 0, 72, 0
2, 4990, Note_on_c, 0, 62, 0
2, 4992, Note_on_c, 0, 67, 60
2, 4992, Note_on_c, 0, 71, 60
2, 5086, Note_on_c, 0, 67, 0
2, 5088, Note_on_c, 0, 62, 60
2, 5152, Note_on_c, 0, 71, 0
2, 5182, Note_on_c, 0, 62, 0
2, 5184, Note_on_c, 0, 60, 60
2, 5184, Note_on_c, 0, 69, 60
2, 5278, Note_on_c, 0, 60, 0
2, 5280, Note_on_c, 0, 62, 60
2, 5344, Note_on_c, 0, 69, 0
2, 5374, Note_on_c, 0, 62, 0
2, 5376, Note_on_c, 0, 55, 60
2, 5398, Note_on_c, 0, 55, 0
2, 5400, Note_on_c, 0, 57, 60
2, 5422, Note_on_c, 0, 57, 0
2, 5424, Note_on_c, 0, 59, 60
2, 5446, Note_on_c, 0, 59, 0
2, 5448, Note_on_c, 0, 60, 60
2, 5470, Note_on_c, 0, 60, 0
2, 5472, Note_on_c, 0, 62, 60
2, 5494, Note_on_c, 0, 62, 0
2, 5496, Note_on_c, 0, 64, 60
2, 5518, Note_on_c, 0, 64, 0
2, 5520, Note_on_c, 0, 65, 60
2, 5542, Note_on_c, 0, 65, 0
2, 5544, Note_on_c, 0, 66, 60
2, 5566, Note_on_c, 0, 66, 0
2, 5568, Note_on_c, 0, 67, 60
2, 5590, Note_on_c, 0, 67, 0
2, 5592, Note_on_c, 0, 69, 60
2, 5614, Note_on_c, 0, 69, 0
2, 5616, Note_on_c, 0, 71, 60
2, 5638, Note_on_c, 0, 71, 0
2, 5640, Note_on_c, 0, 72, 60
2, 5662, Note_on_c, 0, 72, 0
2, 5664, Note_on_c, 0, 74, 60
2, 5686, Note_on_c, 0, 74, 0
2, 5688, Note_on_c, 0, 76, 60
2, 5710, Note_on_c, 0, 76, 0
2, 5712, Note_on_c, 0, 77, 60
2, 5734, Note_on_c, 0, 77, 0
2, 5736, Note_on_c, 0, 78, 60
2, 5758, Note_on_c, 0, 78, 0
2, 5760, Note_on_c, 0, 79, 60
2, 5792, Note_on_c, 0, 79, 0
2, 5808, Note_on_c, 0, 83, 60
2, 5840, Note_on_c, 0, 83, 0
2, 5856, Note_on_c, 0, 81, 60
2, 5888, Note_on_c, 0, 81, 0
2, 5904, Note_on_c, 0, 79, 60
2, 5936, Note_on_c, 0, 79, 0
2, 5952, Note_on_c, 0, 78, 60
2, 5984, Note_on_c, 0, 78, 0
2, 6000, Note_on_c, 0, 76, 60
2, 6032, Note_on_c, 0, 76, 0
2, 6048, Note_on_c, 0, 74, 60
2, 6080, Note_on_c, 0, 74, 0
2, 6096, Note_on_c, 0, 72, 60
2, 6128, Note_on_c, 0, 72, 0
2, 6144, Note_on_c, 0, 71, 60
2, 6304, Note_on_c, 0, 71, 0
2, 6336, Note_on_c, 0, 72, 60
2, 6360, Note_on_c, 0, 74, 60
2, 6382, Note_on_c, 0, 74, 0
2, 6384, Note_on_c, 0, 76, 60
2, 6406, Note_on_c, 0, 76, 0
2, 6408, Note_on_c, 0, 74, 60
2, 6430, Note_on_c, 0, 74, 0
2, 6432, Note_on_c, 0, 76, 60
2, 6454, Note_on_c, 0, 76, 0
2, 6456, Note_on_c, 0, 74, 60
2, 6478, Note_on_c, 0, 72, 0
2, 6478, Note_on_c, 0, 74, 0
2, 6480, Note_on_c, 0, 71, 60
2, 6502, Note_on_c, 0, 71, 0
2, 6504, Note_on_c, 0, 72, 60
2, 6526, Note_on_c, 0, 72, 0
2, 6528, Note_on_c, 0, 74, 60
2, 6688, Note_on_c, 0, 74, 0
2, 6720, Note_on_c, 0, 74, 60
2, 6742, Note_on_c, 0, 74, 0
2, 6744, Note_on_c, 0, 73, 60
2, 6766, Note_on_c, 0, 73, 0
2, 6768, Note_on_c, 0, 76, 60
2, 6790, Note_on_c, 0, 76, 0
2, 6792, Note_on_c, 0, 74, 60
2, 6814, Note_on_c, 0, 74, 0
2, 6816, Note_on_c, 0, 72, 60
2, 6838, Note_on_c, 0, 72, 0
2, 6840, Note_on_c, 0, 71, 60
2, 6862, Note_on_c, 0, 71, 0
2, 6864, Note_on_c, 0, 69, 60
2, 6886, Note_on_c, 0, 69, 0
2, 6888, Note_on_c, 0, 67, 60
2, 6910, Note_on_c, 0, 67, 0
2, 6912, Note_on_c, 0, 60, 60
2, 6912, Note_on_c, 0, 66, 60
2, 6944, Note_on_c, 0, 60, 0
2, 6944, Note_on_c, 0, 66, 0
2, 7080, Note_on_c, 0, 62, 60
2, 7102, Note_on_c, 0, 62, 0
2, 7104, Note_on_c, 0, 59, 60
2, 7104, Note_on_c, 0, 67, 60
2, 7136, Note_on_c, 0, 59, 0
2, 7136, Note_on_c, 0, 67, 0
2, 7272, Note_on_c, 0, 62, 60
2, 7288, Note_on_c, 0, 62, 0
2, 7296, Note_on_c, 0, 67, 60
2, 7296, Note_on_c, 0, 71, 60
2, 7390, Note_on_c, 0, 67, 0
2, 7392, Note_on_c, 0, 62, 60
2, 7456, Note_on_c, 0, 71, 0
2, 7486, Note_on_c, 0, 62, 0
2, 7488, Note_on_c, 0, 66, 60
2, 7488, Note_on_c, 0, 69, 60
2, 7520, Note_on_c, 0, 66, 0
2, 7520, Note_on_c, 0, 69, 0
2, 7584, Note_on_c, 0, 62, 60
2, 7678, Note_on_c, 0, 62, 0
2, 7680, Note_on_c, 0, 71, 60
2, 7680, Note_on_c, 0, 76, 60
2, 7774, Note_on_c, 0, 71, 0
2, 7776, Note_on_c, 0, 68, 60
2, 7840, Note_on_c, 0, 76, 0
2, 7870, Note_on_c, 0, 68, 0
2, 7872, Note_on_c, 0, 72, 60
2, 7872, Note_on_c, 0, 76, 60
2, 7894, Note_on_c, 0, 76, 0
2, 7896, Note_on_c, 0, 75, 60
2, 7918, Note_on_c, 0, 75, 0
2, 7920, Note_on_c, 0, 77, 60
2, 7942, Note_on_c, 0, 77, 0
2, 7944, Note_on_c, 0, 76, 60
2, 7966, Note_on_c, 0, 72, 0
2, 7966, Note_on_c, 0, 76, 0
2, 7968, Note_on_c, 0, 74, 60
2, 7990, Note_on_c, 0, 74, 0
2, 7992, Note_on_c, 0, 72, 60
2, 8014, Note_on_c, 0, 72, 0
2, 8016, Note_on_c, 0, 71, 60
2, 8038, Note_on_c, 0, 71, 0
2, 8040, Note_on_c, 0, 69, 60
2, 8056, Note_on_c, 0, 69, 0
2, 8064, Note_on_c, 0, 69, 60
2, 8064, Note_on_c, 0, 74, 60
2, 8158, Note_on_c, 0, 69, 0
2, 8160, Note_on_c, 0, 66, 60
2, 8224, Note_on_c, 0, 74, 0
2, 8254, Note_on_c, 0, 66, 0
2, 8256, Note_on_c, 0, 71, 60
2, 8256, Note_on_c, 0, 74, 60
2, 8278, Note_on_c, 0, 74, 0
2, 8280, Note_on_c, 0, 73, 60
2, 8302, Note_on_c, 0, 73, 0
2, 8304, Note_on_c, 0, 76, 60
2, 8326, Note_on_c, 0, 76, 0
2, 8328, Note_on_c, 0, 74, 60
2, 8350, Note_on_c, 0, 71, 0
2, 8350, Note_on_c, 0, 74, 0
2, 8352, Note_on_c, 0, 72, 60
2, 8374, Note_on_c, 0, 72, 0
2, 8376, Note_on_c, 0, 71, 60
2, 8398, Note_on_c, 0, 71, 0
2, 8400, Note_on_c, 0, 69, 60
2, 8422, Note_on_c, 0, 69, 0
2, 8424, Note_on_c, 0, 67, 60
2, 8440, Note_on_c, 0, 67, 0
2, 8448, Note_on_c, 0, 62, 60
2, 8448, Note_on_c, 0, 71, 60
2, 8542, Note_on_c, 0, 62, 0
2, 8544, Note_on_c, 0, 67, 60
2, 8608, Note_on_c, 0, 71, 0
2, 8638, Note_on_c, 0, 67, 0
2, 8640, Note_on_c, 0, 60, 60
2, 8640, Note_on_c, 0, 69, 60
2, 8734, Note_on_c, 0, 60, 0
2, 8736, Note_on_c, 0, 66, 60
2, 8782, Note_on_c, 0, 69, 0
2, 8784, Note_on_c, 0, 71, 60
2, 8830, Note_on_c, 0, 66, 0
2, 8830, Note_on_c, 0, 71, 0
2, 8832, Note_on_c, 0, 59, 60
2, 8832, Note_on_c, 0, 67, 60
2, 8926, Note_on_c, 0, 59, 0
2, 8926, Note_on_c, 0, 67, 0
2, 9312, Note_on_c, 0, 71, 60
2, 9312, Note_on_c, 0, 80, 60
2, 9406, Note_on_c, 0, 71, 0
2, 9406, Note_on_c, 0, 80, 0
2, 9408, Note_on_c, 0, 72, 60
2, 9408, Note_on_c, 0, 81, 60
2, 9502, Note_on_c, 0, 72, 0
2, 9502, Note_on_c, 0, 81, 0
2, 9504, Note_on_c, 0, 76, 60
2, 9504, Note_on_c, 0, 84, 60
2, 9598, Note_on_c, 0, 76, 0
2, 9598, Note_on_c, 0, 84, 0
2, 9696, Note_on_c, 0, 69, 60
2, 9696, Note_on_c, 0, 78, 60
2, 9790, Note_on_c, 0, 69, 0
2, 9790, Note_on_c, 0, 78, 0
2, 9792, Note_on_c, 0, 71, 60
2, 9792, Note_on_c, 0, 79, 60
2, 9886, Note_on_c, 0, 71, 0
2, 9886, Note_on_c, 0, 79, 0
2, 9888, Note_on_c, 0, 74, 60
2, 9888, Note_on_c, 0, 83, 60
2, 9982, Note_on_c, 0, 74, 0
2, 9982, Note_on_c, 0, 83, 0
2, 9984, Note_on_c, 0, 88, 60
2, 10144, Note_on_c, 0, 88, 0
2, 10176, Note_on_c, 0, 88, 64
2, 10198, Note_on_c, 0, 88, 0
2, 10200, Note_on_c, 0, 87, 64
2, 10222, Note_on_c, 0, 87, 0
2, 10224, Note_on_c, 0, 89, 64
2, 10246, Note_on_c, 0, 89, 0
2, 10248, Note_on_c, 0, 88, 64
2, 10270, Note_on_c, 0, 88, 0
2, 10272, Note_on_c, 0, 86, 64
2, 10294, Note_on_c, 0, 86, 0
2, 10296, Note_on_c, 0, 84, 64
2, 10318, Note_on_c, 0, 84, 0
2, 10320, Note_on_c, 0, 83, 64
2, 10342, Note_on_c, 0, 83, 0
2, 10344, Note_on_c, 0, 81, 64
2, 10360, Note_on_c, 0, 81, 0
2, 10368, Note_on_c, 0, 86, 64
2, 10528, Note_on_c, 0, 86, 0
2, 10560, Note_on_c, 0, 86, 68
2, 10582, Note_on_c, 0, 86, 0
2, 10584, Note_on_c, 0, 85, 68
2, 10606, Note_on_c, 0, 85, 0
2, 10608, Note_on_c, 0, 88, 68
2, 10630, Note_on_c, 0, 88, 0
2, 10632, Note_on_c, 0, 86, 68
2, 10654, Note_on_c, 0, 86, 0
2, 10656, Note_on_c, 0, 84, 68
2, 10678, Note_on_c, 0, 84, 0
2, 10680, Note_on_c, 0, 83, 68
2, 10702, Note_on_c, 0, 83, 0
2, 10704, Note_on_c, 0, 81, 68
2, 10726, Note_on_c, 0, 81, 0
2, 10728, Note_on_c, 0, 79, 68
2, 10744, Note_on_c, 0, 79, 0
2, 10752, Note_on_c, 0, 84, 68
2, 10774, Note_on_c, 0, 84, 0
2, 10776, Note_on_c, 0, 83, 68
2, 10798, Note_on_c, 0, 83, 0
2, 10800, Note_on_c, 0, 86, 68
2, 10822, Note_on_c, 0, 86, 0
2, 10824, Note_on_c, 0, 84, 68
2, 10846, Note_on_c, 0, 84, 0
2, 10848, Note_on_c, 0, 83, 68
2, 10870, Note_on_c, 0, 83, 0
2, 10872, Note_on_c, 0, 81, 68
2, 10894, Note_on_c, 0, 81, 0
2, 10896, Note_on_c, 0, 79, 68
2, 10918, Note_on_c, 0, 79, 0
2, 10920, Note_on_c, 0, 78, 68
2, 10936, Note_on_c, 0, 78, 0
2, 10944, Note_on_c, 0, 83, 68
2, 10966, Note_on_c, 0, 83, 0
2, 10968, Note_on_c, 0, 82, 69
2, 10990, Note_on_c, 0, 82, 0
2, 10992, Note_on_c, 0, 84, 70
2, 11014, Note_on_c, 0, 84, 0
2, 11016, Note_on_c, 0, 83, 71
2, 11038, Note_on_c, 0, 83, 0
2, 11040, Note_on_c, 0, 81, 72
2, 11062, Note_on_c, 0, 81, 0
2, 11064, Note_on_c, 0, 79, 73
2, 11086, Note_on_c, 0, 79, 0
2, 11088, Note_on_c, 0, 78, 74
2, 11110, Note_on_c, 0, 78, 0
2, 11112, Note_on_c, 0, 76, 75
2, 11128, Note_on_c, 0, 76, 0
2, 11136, Note_on_c, 0, 81, 76
2, 11158, Note_on_c, 0, 81, 0
2, 11160, Note_on_c, 0, 80, 77
2, 11182, Note_on_c, 0, 80, 0
2, 11184, Note_on_c, 0, 83, 78
2, 11206, Note_on_c, 0, 83, 0
2, 11208, Note_on_c, 0, 81, 79
2, 11230, Note_on_c, 0, 81, 0
2, 11232, Note_on_c, 0, 79, 80
2, 11254, Note_on_c, 0, 79, 0
2, 11256, Note_on_c, 0, 78, 81
2, 11278, Note_on_c, 0, 78, 0
2, 11280, Note_on_c, 0, 76, 82
2, 11302, Note_on_c, 0, 76, 0
2, 11304, Note_on_c, 0, 74, 83
2, 11326, Note_on_c, 0, 74, 0
2, 11328, Note_on_c, 0, 73, 84
2, 11350, Note_on_c, 0, 73, 0
2, 11352, Note_on_c, 0, 74, 85
2, 11374, Note_on_c, 0, 74, 0
2, 11376, Note_on_c, 0, 76, 86
2, 11398, Note_on_c, 0, 76, 0
2, 11400, Note_on_c, 0, 74, 87
2, 11422, Note_on_c, 0, 74, 0
2, 11424, Note_on_c, 0, 73, 88
2, 11446, Note_on_c, 0, 73, 0
2, 11448, Note_on_c, 0, 71, 89
2, 11470, Note_on_c, 0, 71, 0
2, 11472, Note_on_c, 0, 69, 90
2, 11494, Note_on_c, 0, 69, 0
2, 11496, Note_on_c, 0, 68, 91
2, 11518, Note_on_c, 0, 68, 0
2, 11544, Note_on_c, 0, 69, 92
2, 11566, Note_on_c, 0, 69, 0
2, 11568, Note_on_c, 0, 71, 92
2, 11590, Note_on_c, 0, 71, 0
2, 11592, Note_on_c, 0, 73, 92
2, 11614, Note_on_c, 0, 73, 0
2, 11616, Note_on_c, 0, 74, 92
2, 11638, Note_on_c, 0, 74, 0
2, 11640, Note_on_c, 0, 76, 92
2, 11662, Note_on_c, 0, 76, 0
2, 11664, Note_on_c, 0, 78, 92
2, 11686, Note_on_c, 0, 78, 0
2, 11688, Note_on_c, 0, 80, 92
2, 11710, Note_on_c, 0, 80, 0
2, 11712, Note_on_c, 0, 81, 92
2, 11734, Note_on_c, 0, 81, 0
2, 11736, Note_on_c, 0, 83, 92
2, 11758, Note_on_c, 0, 83, 0
2, 11760, Note_on_c, 0, 85, 92
2, 11782, Note_on_c, 0, 85, 0
2, 11784, Note_on_c, 0, 86, 92
2, 11806, Note_on_c, 0, 86, 0
2, 11808, Note_on_c, 0, 88, 92
2, 11830, Note_on_c, 0, 88, 0
2, 11832, Note_on_c, 0, 85, 92
2, 11854, Note_on_c, 0, 85, 0
2, 11856, Note_on_c, 0, 83, 92
2, 11878, Note_on_c, 0, 83, 0
2, 11880, Note_on_c, 0, 81, 92
2, 11896, Note_on_c, 0, 81, 0
2, 11904, Note_on_c, 0, 80, 45
2, 11926, Note_on_c, 0, 80, 0
2, 11928, Note_on_c, 0, 81, 45
2, 11950, Note_on_c, 0, 81, 0
2, 11952, Note_on_c, 0, 83, 45
2, 11974, Note_on_c, 0, 83, 0
2, 11976, Note_on_c, 0, 85, 45
2, 11998, Note_on_c, 0, 85, 0
2, 12000, Note_on_c, 0, 86, 45
2, 12022, Note_on_c, 0, 86, 0
2, 12024, Note_on_c, 0, 85, 45
2, 12046, Note_on_c, 0, 85, 0
2, 12048, Note_on_c, 0, 83, 45
2, 12070, Note_on_c, 0, 83, 0
2, 12072, Note_on_c, 0, 81, 45
2, 12094, Note_on_c, 0, 81, 0
2, 12096, Note_on_c, 0, 80, 45
2, 12118, Note_on_c, 0, 80, 0
2, 12120, Note_on_c, 0, 78, 45
2, 12142, Note_on_c, 0, 78, 0
2, 12144, Note_on_c, 0, 76, 45
2, 12166, Note_on_c, 0, 76, 0
2, 12168, Note_on_c, 0, 74, 45
2, 12190, Note_on_c, 0, 74, 0
2, 12192, Note_on_c, 0, 73, 45
2, 12214, Note_on_c, 0, 73, 0
2, 12216, Note_on_c, 0, 71, 45
2, 12238, Note_on_c, 0, 71, 0
2, 12240, Note_on_c, 0, 69, 45
2, 12262, Note_on_c, 0, 69, 0
2, 12264, Note_on_c, 0, 68, 45
2, 12286, Note_on_c, 0, 68, 0
2, 12312, Note_on_c, 0, 69, 92
2, 12334, Note_on_c, 0, 69, 0
2, 12336, Note_on_c, 0, 71, 92
2, 12358, Note_on_c, 0, 71, 0
2, 12360, Note_on_c, 0, 73, 92
2, 12382, Note_on_c, 0, 73, 0
2, 12384, Note_on_c, 0, 74, 92
2, 12406, Note_on_c, 0, 74, 0
2, 12408, Note_on_c, 0, 76, 92
2, 12430, Note_on_c, 0, 76, 0
2, 12432, Note_on_c, 0, 78, 92
2, 12454, Note_on_c, 0, 78, 0
2, 12456, Note_on_c, 0, 80, 92
2, 12478, Note_on_c, 0, 80, 0
2, 12480, Note_on_c, 0, 81, 92
2, 12502, Note_on_c, 0, 81, 0
2, 12504, Note_on_c, 0, 83, 92
2, 12526, Note_on_c, 0, 83, 0
2, 12528, Note_on_c, 0, 85, 92
2, 12550, Note_on_c, 0, 85, 0
2, 12552, Note_on_c, 0, 86, 92
2, 12574, Note_on_c, 0, 86, 0
2, 12576, Note_on_c, 0, 88, 92
2, 12598, Note_on_c, 0, 88, 0
2, 12600, Note_on_c, 0, 85, 92
2, 12622, Note_on_c, 0, 85, 0
2, 12624, Note_on_c, 0, 83, 92
2, 12646, Note_on_c, 0, 83, 0
2, 12648, Note_on_c, 0, 81, 92
2, 12664, Note_on_c, 0, 81, 0
2, 12672, Note_on_c, 0, 80, 60
2, 12694, Note_on_c, 0, 80, 0
2, 12696, Note_on_c, 0, 81, 60
2, 12718, Note_on_c, 0, 81, 0
2, 12720, Note_on_c, 0, 83, 60
2, 12742, Note_on_c, 0, 83, 0
2, 12744, Note_on_c, 0, 85, 60
2, 12766, Note_on_c, 0, 85, 0
2, 12768, Note_on_c, 0, 86, 60
2, 12790, Note_on_c, 0, 86, 0
2, 12792, Note_on_c, 0, 85, 60
2, 12814, Note_on_c, 0, 85, 0
2, 12816, Note_on_c, 0, 83, 60
2, 12838, Note_on_c, 0, 83, 0
2, 12840, Note_on_c, 0, 81, 60
2, 12862, Note_on_c, 0, 81, 0
2, 12864, Note_on_c, 0, 80, 60
2, 12886, Note_on_c, 0, 80, 0
2, 12888, Note_on_c, 0, 78, 60
2, 12910, Note_on_c, 0, 78, 0
2, 12912, Note_on_c, 0, 76, 60
2, 12934, Note_on_c, 0, 76, 0
2, 12936, Note_on_c, 0, 74, 60
2, 12958, Note_on_c, 0, 74, 0
2, 12960, Note_on_c, 0, 73, 60
2, 12982, Note_on_c, 0, 73, 0
2, 12984, Note_on_c, 0, 71, 60
2, 13006, Note_on_c, 0, 71, 0
2, 13008, Note_on_c, 0, 69, 60
2, 13030, Note_on_c, 0, 69, 0
2, 13032, Note_on_c, 0, 68, 60
2, 13054, Note_on_c, 0, 68, 0
2, 13056, Note_on_c, 0, 69, 60
2, 13088, Note_on_c, 0, 69, 0
2, 13104, Note_on_c, 0, 71, 60
2, 13136, Note_on_c, 0, 71, 0
2, 13152, Note_on_c, 0, 73, 60
2, 13184, Note_on_c, 0, 73, 0
2, 13200, Note_on_c, 0, 74, 60
2, 13232, Note_on_c, 0, 74, 0
2, 13248, Note_on_c, 0, 76, 60
2, 13280, Note_on_c, 0, 76, 0
2, 13296, Note_on_c, 0, 78, 60
2, 13328, Note_on_c, 0, 78, 0
2, 13344, Note_on_c, 0, 79, 60
2, 13376, Note_on_c, 0, 79, 0
2, 13392, Note_on_c, 0, 80, 60
2, 13424, Note_on_c, 0, 80, 0
2, 13440, Note_on_c, 0, 81, 60
2, 13486, Note_on_c, 0, 81, 0
2, 13488, Note_on_c, 0, 80, 60
2, 13536, Note_on_c, 0, 80, 0
2, 13536, Note_on_c, 0, 81, 60
2, 13568, Note_on_c, 0, 81, 0
2, 13584, Note_on_c, 0, 80, 60
2, 13632, Note_on_c, 0, 80, 0
2, 13632, Note_on_c, 0, 81, 60
2, 13664, Note_on_c, 0, 81, 0
2, 13680, Note_on_c, 0, 80, 60
2, 13728, Note_on_c, 0, 80, 0
2, 13728, Note_on_c, 0, 81, 60
2, 13760, Note_on_c, 0, 81, 0
2, 13776, Note_on_c, 0, 80, 60
2, 13824, Note_on_c, 0, 80, 0
2, 13824, Note_on_c, 0, 81, 60
2, 13984, Note_on_c, 0, 81, 0
2, 14016, Note_on_c, 0, 81, 60
2, 14086, Note_on_c, 0, 81, 0
2, 14088, Note_on_c, 0, 81, 60
2, 14104, Note_on_c, 0, 81, 0
2, 14112, Note_on_c, 0, 85, 60
2, 14134, Note_on_c, 0, 85, 0
2, 14136, Note_on_c, 0, 83, 60
2, 14182, Note_on_c, 0, 83, 0
2, 14184, Note_on_c, 0, 81, 60
2, 14206, Note_on_c, 0, 81, 0
2, 14208, Note_on_c, 0, 81, 60
2, 14232, Note_on_c, 0, 81, 0
2, 14232, Note_on_c, 0, 86, 60
2, 14398, Note_on_c, 0, 86, 0
2, 14400, Note_on_c, 0, 86, 60
2, 14470, Note_on_c, 0, 86, 0
2, 14472, Note_on_c, 0, 85, 60
2, 14494, Note_on_c, 0, 85, 0
2, 14496, Note_on_c, 0, 83, 60
2, 14566, Note_on_c, 0, 83, 0
2, 14568, Note_on_c, 0, 81, 60
2, 14590, Note_on_c, 0, 81, 0
2, 14592, Note_on_c, 0, 81, 60
2, 14662, Note_on_c, 0, 81, 0
2, 14664, Note_on_c, 0, 79, 60
2, 14686, Note_on_c, 0, 79, 0
2, 14688, Note_on_c, 0, 78, 60
2, 14758, Note_on_c, 0, 78, 0
2, 14760, Note_on_c, 0, 76, 60
2, 14782, Note_on_c, 0, 76, 0
2, 14784, Note_on_c, 0, 74, 60
2, 14854, Note_on_c, 0, 74, 0
2, 14856, Note_on_c, 0, 73, 60
2, 14878, Note_on_c, 0, 73, 0
2, 14880, Note_on_c, 0, 83, 60
2, 14950, Note_on_c, 0, 83, 0
2, 14952, Note_on_c, 0, 81, 60
2, 14974, Note_on_c, 0, 81, 0
2, 14976, Note_on_c, 0, 79, 60
2, 15070, Note_on_c, 0, 79, 0
2, 15072, Note_on_c, 0, 78, 60
2, 15166, Note_on_c, 0, 78, 0
2, 15168, Note_on_c, 0, 78, 60
2, 15198, Note_on_c, 0, 78, 0
2, 15200, Note_on_c, 0, 78, 60
2, 15221, Note_on_c, 0, 78, 0
2, 15232, Note_on_c, 0, 77, 60
2, 15253, Note_on_c, 0, 77, 0
2, 15264, Note_on_c, 0, 78, 60
2, 15285, Note_on_c, 0, 78, 0
2, 15296, Note_on_c, 0, 79, 60
2, 15317, Note_on_c, 0, 79, 0
2, 15328, Note_on_c, 0, 80, 60
2, 15349, Note_on_c, 0, 80, 0
2, 15360, Note_on_c, 0, 80, 60
2, 15370, Note_on_c, 0, 80, 0
2, 15372, Note_on_c, 0, 81, 60
2, 15382, Note_on_c, 0, 81, 0
2, 15384, Note_on_c, 0, 80, 60
2, 15394, Note_on_c, 0, 80, 0
2, 15396, Note_on_c, 0, 81, 60
2, 15406, Note_on_c, 0, 81, 0
2, 15408, Note_on_c, 0, 80, 60
2, 15418, Note_on_c, 0, 80, 0
2, 15420, Note_on_c, 0, 81, 60
2, 15430, Note_on_c, 0, 81, 0
2, 15432, Note_on_c, 0, 80, 60
2, 15442, Note_on_c, 0, 80, 0
2, 15444, Note_on_c, 0, 81, 60
2, 15454, Note_on_c, 0, 81, 0
2, 15456, Note_on_c, 0, 80, 60
2, 15466, Note_on_c, 0, 80, 0
2, 15468, Note_on_c, 0, 81, 60
2, 15478, Note_on_c, 0, 81, 0
2, 15480, Note_on_c, 0, 80, 60
2, 15490, Note_on_c, 0, 80, 0
2, 15492, Note_on_c, 0, 81, 60
2, 15502, Note_on_c, 0, 81, 0
2, 15504, Note_on_c, 0, 80, 60
2, 15514, Note_on_c, 0, 80, 0
2, 15516, Note_on_c, 0, 81, 60
2, 15526, Note_on_c, 0, 81, 0
2, 15528, Note_on_c, 0, 80, 60
2, 15538, Note_on_c, 0, 80, 0
2, 15540, Note_on_c, 0, 81, 60
2, 15550, Note_on_c, 0, 81, 0
2, 15552, Note_on_c, 0, 81, 60
2, 15562, Note_on_c, 0, 81, 0
2, 15564, Note_on_c, 0, 80, 60
2, 15574, Note_on_c, 0, 80, 0
2, 15576, Note_on_c, 0, 81, 60
2, 15586, Note_on_c, 0, 81, 0
2, 15588, Note_on_c, 0, 80, 60
2, 15598, Note_on_c, 0, 80, 0
2, 15600, Note_on_c, 0, 81, 60
2, 15610, Note_on_c, 0, 81, 0
2, 15612, Note_on_c, 0, 80, 60
2, 15622, Note_on_c, 0, 80, 0
2, 15624, Note_on_c, 0, 81, 60
2, 15634, Note_on_c, 0, 81, 0
2, 15636, Note_on_c, 0, 80, 60
2, 15646, Note_on_c, 0, 80, 0
2, 15648, Note_on_c, 0, 81, 60
2, 15658, Note_on_c, 0, 81, 0
2, 15660, Note_on_c, 0, 81, 60
2, 15670, Note_on_c, 0, 81, 0
2, 15672, Note_on_c, 0, 80, 60
2, 15682, Note_on_c, 0, 80, 0
2, 15684, Note_on_c, 0, 81, 60
2, 15694, Note_on_c, 0, 81, 0
2, 15696, Note_on_c, 0, 80, 60
2, 15706, Note_on_c, 0, 80, 0
2, 15708, Note_on_c, 0, 81, 60
2, 15718, Note_on_c, 0, 81, 0
2, 15720, Note_on_c, 0, 80, 60
2, 15730, Note_on_c, 0, 80, 0
2, 15732, Note_on_c, 0, 81, 60
2, 15742, Note_on_c, 0, 81, 0
2, 15744, Note_on_c, 0, 80, 60
2, 15758, Note_on_c, 0, 80, 0
2, 15760, Note_on_c, 0, 81, 60
2, 15774, Note_on_c, 0, 81, 0
2, 15776, Note_on_c, 0, 83, 60
2, 15790, Note_on_c, 0, 83, 0
2, 15792, Note_on_c, 0, 81, 60
2, 15806, Note_on_c, 0, 81, 0
2, 15808, Note_on_c, 0, 80, 60
2, 15822, Note_on_c, 0, 80, 0
2, 15824, Note_on_c, 0, 81, 60
2, 15838, Note_on_c, 0, 81, 0
2, 15840, Note_on_c, 0, 83, 60
2, 15854, Note_on_c, 0, 83, 0
2, 15856, Note_on_c, 0, 85, 60
2, 15870, Note_on_c, 0, 85, 0
2, 15872, Note_on_c, 0, 83, 60
2, 15886, Note_on_c, 0, 83, 0
2, 15888, Note_on_c, 0, 81, 60
2, 15902, Note_on_c, 0, 81, 0
2, 15904, Note_on_c, 0, 83, 60
2, 15918, Note_on_c, 0, 83, 0
2, 15920, Note_on_c, 0, 85, 60
2, 15934, Note_on_c, 0, 85, 0
2, 15936, Note_on_c, 0, 85, 60
2, 15958, Note_on_c, 0, 85, 0
2, 15960, Note_on_c, 0, 86, 60
2, 15982, Note_on_c, 0, 86, 0
2, 15984, Note_on_c, 0, 85, 60
2, 16006, Note_on_c, 0, 85, 0
2, 16008, Note_on_c, 0, 83, 60
2, 16030, Note_on_c, 0, 83, 0
2, 16032, Note_on_c, 0, 85, 60
2, 16054, Note_on_c, 0, 85, 0
2, 16056, Note_on_c, 0, 88, 60
2, 16078, Note_on_c, 0, 88, 0
2, 16080, Note_on_c, 0, 86, 60
2, 16102, Note_on_c, 0, 86, 0
2, 16104, Note_on_c, 0, 85, 60
2, 16126, Note_on_c, 0, 85, 0
2, 16128, Note_on_c, 0, 83, 60
2, 16144, Note_on_c, 0, 83, 0
2, 16152, Note_on_c, 0, 83, 60
2, 16184, Note_on_c, 0, 83, 0
2, 16184, Note_on_c, 0, 81, 60
2, 16205, Note_on_c, 0, 81, 0
2, 16216, Note_on_c, 0, 79, 60
2, 16237, Note_on_c, 0, 79, 0
2, 16248, Note_on_c, 0, 79, 60
2, 16280, Note_on_c, 0, 79, 0
2, 16280, Note_on_c, 0, 78, 60
2, 16301, Note_on_c, 0, 78, 0
2, 16312, Note_on_c, 0, 76, 60
2, 16333, Note_on_c, 0, 76, 0
2, 16344, Note_on_c, 0, 76, 60
2, 16376, Note_on_c, 0, 76, 0
2, 16376, Note_on_c, 0, 74, 60
2, 16406, Note_on_c, 0, 74, 0
2, 16408, Note_on_c, 0, 73, 60
2, 16429, Note_on_c, 0, 73, 0
2, 16440, Note_on_c, 0, 73, 60
2, 16472, Note_on_c, 0, 73, 0
2, 16472, Note_on_c, 0, 83, 60
2, 16502, Note_on_c, 0, 83, 0
2, 16504, Note_on_c, 0, 81, 60
2, 16525, Note_on_c, 0, 81, 0
2, 16536, Note_on_c, 0, 79, 60
2, 16630, Note_on_c, 0, 79, 0
2, 16632, Note_on_c, 0, 78, 60
2, 16726, Note_on_c, 0, 78, 0
2, 16728, Note_on_c, 0, 78, 60
2, 16752, Note_on_c, 0, 78, 60
2, 16774, Note_on_c, 0, 78, 0
2, 16776, Note_on_c, 0, 78, 60
2, 16798, Note_on_c, 0, 78, 0
2, 16800, Note_on_c, 0, 78, 60
2, 16822, Note_on_c, 0, 78, 0
2, 16822, Note_on_c, 0, 78, 0
2, 16824, Note_on_c, 0, 81, 60
2, 16894, Note_on_c, 0, 81, 0
2, 16896, Note_on_c, 0, 79, 60
2, 16918, Note_on_c, 0, 79, 0
2, 16920, Note_on_c, 0, 78, 60
2, 17014, Note_on_c, 0, 78, 0
2, 17016, Note_on_c, 0, 76, 60
2, 17110, Note_on_c, 0, 76, 0
2, 17112, Note_on_c, 0, 76, 60
2, 17136, Note_on_c, 0, 76, 60
2, 17158, Note_on_c, 0, 76, 0
2, 17160, Note_on_c, 0, 76, 60
2, 17182, Note_on_c, 0, 76, 0
2, 17184, Note_on_c, 0, 76, 60
2, 17206, Note_on_c, 0, 76, 0
2, 17206, Note_on_c, 0, 76, 0
2, 17208, Note_on_c, 0, 79, 60
2, 17278, Note_on_c, 0, 79, 0
2, 17280, Note_on_c, 0, 78, 60
2, 17302, Note_on_c, 0, 78, 0
2, 17304, Note_on_c, 0, 76, 60
2, 17350, Note_on_c, 0, 76, 0
2, 17352, Note_on_c, 0, 74, 60
2, 17446, Note_on_c, 0, 74, 0
2, 17448, Note_on_c, 0, 78, 60
2, 17470, Note_on_c, 0, 78, 0
2, 17472, Note_on_c, 0, 76, 60
2, 17494, Note_on_c, 0, 76, 0
2, 17496, Note_on_c, 0, 74, 60
2, 17542, Note_on_c, 0, 74, 0
2, 17544, Note_on_c, 0, 72, 60
2, 17638, Note_on_c, 0, 72, 0
2, 17640, Note_on_c, 0, 76, 60
2, 17662, Note_on_c, 0, 76, 0
2, 17664, Note_on_c, 0, 74, 60
2, 17686, Note_on_c, 0, 74, 0
2, 17688, Note_on_c, 0, 72, 60
2, 17734, Note_on_c, 0, 72, 0
2, 17736, Note_on_c, 0, 71, 60
2, 17830, Note_on_c, 0, 71, 0
2, 17832, Note_on_c, 0, 74, 60
2, 17854, Note_on_c, 0, 74, 0
2, 17856, Note_on_c, 0, 72, 60
2, 17878, Note_on_c, 0, 72, 0
2, 17880, Note_on_c, 0, 71, 60
2, 17926, Note_on_c, 0, 71, 0
2, 17928, Note_on_c, 0, 69, 60
2, 18022, Note_on_c, 0, 69, 0
2, 18024, Note_on_c, 0, 72, 60
2, 18046, Note_on_c, 0, 72, 0
2, 18048, Note_on_c, 0, 71, 60
2, 18070, Note_on_c, 0, 71, 0
2, 18072, Note_on_c, 0, 69, 60
2, 18094, Note_on_c, 0, 69, 0
2, 18096, Note_on_c, 0, 67, 60
2, 18118, Note_on_c, 0, 67, 0
2, 18120, Note_on_c, 0, 79, 60
2, 18166, Note_on_c, 0, 79, 0
2, 18168, Note_on_c, 0, 79, 60
2, 18214, Note_on_c, 0, 79, 0
2, 18216, Note_on_c, 0, 79, 60
2, 18264, Note_on_c, 0, 79, 0
2, 18264, Note_on_c, 0, 79, 60
2, 18310, Note_on_c, 0, 79, 0
2, 18312, Note_on_c, 0, 79, 60
2, 18360, Note_on_c, 0, 79, 0
2, 18360, Note_on_c, 0, 79, 60
2, 18406, Note_on_c, 0, 79, 0
2, 18408, Note_on_c, 0, 79, 60
2, 18456, Note_on_c, 0, 79, 0
2, 18456, Note_on_c, 0, 79, 60
2, 18550, Note_on_c, 0, 79, 0
2, 18552, Note_on_c, 0, 79, 84
2, 18646, Note_on_c, 0, 79, 0
2, 18648, Note_on_c, 0, 79, 60
2, 18678, Note_on_c, 0, 79, 0
2, 18680, Note_on_c, 0, 76, 60
2, 18710, Note_on_c, 0, 76, 0
2, 18712, Note_on_c, 0, 73, 60
2, 18742, Note_on_c, 0, 73, 0
2, 18744, Note_on_c, 0, 76, 60
2, 18774, Note_on_c, 0, 76, 0
2, 18776, Note_on_c, 0, 73, 60
2, 18806, Note_on_c, 0, 73, 0
2, 18808, Note_on_c, 0, 67, 60
2, 18838, Note_on_c, 0, 67, 0
2, 18840, Note_on_c, 0, 66, 84
2, 18872, Note_on_c, 0, 66, 0
2, 18888, Note_on_c, 0, 74, 84
2, 18934, Note_on_c, 0, 74, 0
2, 18936, Note_on_c, 0, 74, 60
2, 18966, Note_on_c, 0, 74, 0
2, 18968, Note_on_c, 0, 69, 60
2, 18998, Note_on_c, 0, 69, 0
2, 19000, Note_on_c, 0, 66, 60
2, 19030, Note_on_c, 0, 66, 0
2, 19032, Note_on_c, 0, 64, 84
2, 19064, Note_on_c, 0, 64, 0
2, 19080, Note_on_c, 0, 71, 84
2, 19126, Note_on_c, 0, 71, 0
2, 19128, Note_on_c, 0, 71, 60
2, 19158, Note_on_c, 0, 71, 0
2, 19160, Note_on_c, 0, 67, 60
2, 19190, Note_on_c, 0, 67, 0
2, 19192, Note_on_c, 0, 64, 60
2, 19222, Note_on_c, 0, 64, 0
2, 19224, Note_on_c, 0, 62, 60
2, 19256, Note_on_c, 0, 62, 0
2, 19320, Note_on_c, 0, 69, 60
2, 19320, Note_on_c, 0, 74, 60
2, 19414, Note_on_c, 0, 74, 0
2, 19416, Note_on_c, 0, 76, 60
2, 19510, Note_on_c, 0, 76, 0
2, 19512, Note_on_c, 0, 77, 60
2, 19576, Note_on_c, 0, 69, 0
2, 19606, Note_on_c, 0, 77, 0
2, 19608, Note_on_c, 0, 77, 60
2, 19702, Note_on_c, 0, 77, 0
2, 19704, Note_on_c, 0, 78, 60
2, 19798, Note_on_c, 0, 78, 0
2, 19800, Note_on_c, 0, 78, 60
2, 19830, Note_on_c, 0, 78, 0
2, 19832, Note_on_c, 0, 78, 60
2, 19862, Note_on_c, 0, 78, 0
2, 19864, Note_on_c, 0, 77, 60
2, 19894, Note_on_c, 0, 77, 0
2, 19896, Note_on_c, 0, 78, 60
2, 19926, Note_on_c, 0, 78, 0
2, 19928, Note_on_c, 0, 81, 60
2, 19958, Note_on_c, 0, 81, 0
2, 19960, Note_on_c, 0, 79, 60
2, 19990, Note_on_c, 0, 79, 0
2, 19992, Note_on_c, 0, 78, 60
2, 20086, Note_on_c, 0, 78, 0
2, 20088, Note_on_c, 0, 76, 60
2, 20182, Note_on_c, 0, 76, 0
2, 20184, Note_on_c, 0, 76, 60
2, 20214, Note_on_c, 0, 76, 0
2, 20216, Note_on_c, 0, 76, 60
2, 20246, Note_on_c, 0, 76, 0
2, 20248, Note_on_c, 0, 75, 60
2, 20278, Note_on_c, 0, 75, 0
2, 20280, Note_on_c, 0, 76, 60
2, 20310, Note_on_c, 0, 76, 0
2, 20312, Note_on_c, 0, 79, 60
2, 20342, Note_on_c, 0, 79, 0
2, 20344, Note_on_c, 0, 78, 60
2, 20374, Note_on_c, 0, 78, 0
2, 20376, Note_on_c, 0, 76, 60
2, 20406, Note_on_c, 0, 76, 0
2, 20408, Note_on_c, 0, 74, 60
2, 20438, Note_on_c, 0, 74, 0
2, 20440, Note_on_c, 0, 73, 60
2, 20470, Note_on_c, 0, 73, 0
2, 20472, Note_on_c, 0, 74, 60
2, 20502, Note_on_c, 0, 74, 0
2, 20504, Note_on_c, 0, 78, 60
2, 20534, Note_on_c, 0, 78, 0
2, 20536, Note_on_c, 0, 76, 61
2, 20566, Note_on_c, 0, 76, 0
2, 20568, Note_on_c, 0, 74, 61
2, 20598, Note_on_c, 0, 74, 0
2, 20600, Note_on_c, 0, 72, 62
2, 20630, Note_on_c, 0, 72, 0
2, 20632, Note_on_c, 0, 71, 63
2, 20662, Note_on_c, 0, 71, 0
2, 20664, Note_on_c, 0, 72, 64
2, 20694, Note_on_c, 0, 72, 0
2, 20696, Note_on_c, 0, 76, 65
2, 20726, Note_on_c, 0, 76, 0
2, 20728, Note_on_c, 0, 74, 66
2, 20758, Note_on_c, 0, 74, 0
2, 20760, Note_on_c, 0, 72, 67
2, 20790, Note_on_c, 0, 72, 0
2, 20792, Note_on_c, 0, 71, 68
2, 20822, Note_on_c, 0, 71, 0
2, 20824, Note_on_c, 0, 70, 69
2, 20854, Note_on_c, 0, 70, 0
2, 20856, Note_on_c, 0, 71, 70
2, 20886, Note_on_c, 0, 71, 0
2, 20888, Note_on_c, 0, 74, 71
2, 20918, Note_on_c, 0, 74, 0
2, 20920, Note_on_c, 0, 72, 72
2, 20950, Note_on_c, 0, 72, 0
2, 20952, Note_on_c, 0, 71, 73
2, 20982, Note_on_c, 0, 71, 0
2, 20984, Note_on_c, 0, 69, 74
2, 21014, Note_on_c, 0, 69, 0
2, 21016, Note_on_c, 0, 68, 75
2, 21046, Note_on_c, 0, 68, 0
2, 21048, Note_on_c, 0, 69, 76
2, 21078, Note_on_c, 0, 69, 0
2, 21080, Note_on_c, 0, 72, 77
2, 21110, Note_on_c, 0, 72, 0
2, 21112, Note_on_c, 0, 71, 78
2, 21142, Note_on_c, 0, 71, 0
2, 21144, Note_on_c, 0, 69, 79
2, 21174, Note_on_c, 0, 69, 0
2, 21176, Note_on_c, 0, 67, 80
2, 21197, Note_on_c, 0, 67, 0
2, 21208, Note_on_c, 0, 79, 81
2, 21240, Note_on_c, 0, 79, 0
2, 21240, Note_on_c, 0, 79, 82
2, 21286, Note_on_c, 0, 79, 0
2, 21288, Note_on_c, 0, 79, 83
2, 21336, Note_on_c, 0, 79, 0
2, 21336, Note_on_c, 0, 79, 84
2, 21382, Note_on_c, 0, 79, 0
2, 21384, Note_on_c, 0, 79, 86
2, 21432, Note_on_c, 0, 79, 0
2, 21432, Note_on_c, 0, 79, 88
2, 21478, Note_on_c, 0, 79, 0
2, 21480, Note_on_c, 0, 79, 90
2, 21528, Note_on_c, 0, 79, 0
2, 21528, Note_on_c, 0, 79, 92
2, 21550, Note_on_c, 0, 79, 0
2, 21552, Note_on_c, 0, 78, 92
2, 21574, Note_on_c, 0, 78, 0
2, 21576, Note_on_c, 0, 83, 92
2, 21598, Note_on_c, 0, 83, 0
2, 21600, Note_on_c, 0, 81, 92
2, 21622, Note_on_c, 0, 81, 0
2, 21624, Note_on_c, 0, 79, 92
2, 21646, Note_on_c, 0, 79, 0
2, 21648, Note_on_c, 0, 78, 92
2, 21670, Note_on_c, 0, 78, 0
2, 21672, Note_on_c, 0, 76, 92
2, 21694, Note_on_c, 0, 76, 0
2, 21696, Note_on_c, 0, 74, 92
2, 21718, Note_on_c, 0, 74, 0
2, 21720, Note_on_c, 0, 73, 92
2, 21742, Note_on_c, 0, 73, 0
2, 21744, Note_on_c, 0, 74, 92
2, 21766, Note_on_c, 0, 74, 0
2, 21768, Note_on_c, 0, 76, 92
2, 21790, Note_on_c, 0, 76, 0
2, 21792, Note_on_c, 0, 74, 92
2, 21814, Note_on_c, 0, 74, 0
2, 21816, Note_on_c, 0, 73, 92
2, 21838, Note_on_c, 0, 73, 0
2, 21840, Note_on_c, 0, 71, 92
2, 21862, Note_on_c, 0, 71, 0
2, 21864, Note_on_c, 0, 69, 92
2, 21886, Note_on_c, 0, 69, 0
2, 21888, Note_on_c, 0, 67, 92
2, 21910, Note_on_c, 0, 67, 0
2, 21912, Note_on_c, 0, 66, 92
2, 21933, Note_on_c, 0, 66, 0
2, 21944, Note_on_c, 0, 74, 92
2, 21976, Note_on_c, 0, 74, 0
2, 21976, Note_on_c, 0, 73, 92
2, 21997, Note_on_c, 0, 73, 0
2, 22008, Note_on_c, 0, 74, 92
2, 22029, Note_on_c, 0, 74, 0
2, 22040, Note_on_c, 0, 69, 92
2, 22061, Note_on_c, 0, 69, 0
2, 22072, Note_on_c, 0, 66, 92
2, 22093, Note_on_c, 0, 66, 0
2, 22104, Note_on_c, 0, 64, 127
2, 22125, Note_on_c, 0, 64, 0
2, 22136, Note_on_c, 0, 71, 127
2, 22158, Note_on_c, 0, 71, 0
2, 22168, Note_on_c, 0, 70, 92
2, 22189, Note_on_c, 0, 70, 0
2, 22200, Note_on_c, 0, 71, 92
2, 22221, Note_on_c, 0, 71, 0
2, 22232, Note_on_c, 0, 67, 92
2, 22253, Note_on_c, 0, 67, 0
2, 22264, Note_on_c, 0, 64, 92
2, 22285, Note_on_c, 0, 64, 0
2, 22344, Note_on_c, 0, 62, 92
2, 22366, Note_on_c, 0, 62, 0
2, 22368, Note_on_c, 0, 66, 92
2, 22390, Note_on_c, 0, 66, 0
2, 22392, Note_on_c, 0, 69, 127
2, 22424, Note_on_c, 0, 69, 0
2, 22728, Note_on_c, 0, 52, 92
2, 22750, Note_on_c, 0, 52, 0
2, 22752, Note_on_c, 0, 55, 92
2, 22774, Note_on_c, 0, 55, 0
2, 22776, Note_on_c, 0, 61, 127
2, 22808, Note_on_c, 0, 61, 0
2, 23064, Note_on_c, 0, 54, 45
2, 23064, Note_on_c, 0, 57, 45
2, 23158, Note_on_c, 0, 54, 0
2, 23158, Note_on_c, 0, 57, 0
2, 23160, Note_on_c, 0, 62, 45
2, 23254, Note_on_c, 0, 62, 0
2, 23256, Note_on_c, 0, 55, 45
2, 23256, Note_on_c, 0, 59, 45
2, 23350, Note_on_c, 0, 55, 0
2, 23350, Note_on_c, 0, 59, 0
2, 23352, Note_on_c, 0, 62, 45
2, 23446, Note_on_c, 0, 62, 0
2, 23448, Note_on_c, 0, 57, 45
2, 23448, Note_on_c, 0, 60, 45
2, 23542, Note_on_c, 0, 57, 0
2, 23542, Note_on_c, 0, 60, 0
2, 23544, Note_on_c, 0, 62, 45
2, 23638, Note_on_c, 0, 62, 0
2, 23640, Note_on_c, 0, 55, 45
2, 23640, Note_on_c, 0, 59, 45
2, 23734, Note_on_c, 0, 55, 0
2, 23734, Note_on_c, 0, 59, 0
2, 23736, Note_on_c, 0, 62, 45
2, 23830, Note_on_c, 0, 62, 0
2, 23832, Note_on_c, 0, 54, 45
2, 23832, Note_on_c, 0, 57, 45
2, 23926, Note_on_c, 0, 54, 0
2, 23926, Note_on_c, 0, 57, 0
2, 23928, Note_on_c, 0, 62, 45
2, 24022, Note_on_c, 0, 62, 0
2, 24024, Note_on_c, 0, 55, 45
2, 24024, Note_on_c, 0, 59, 45
2, 24118, Note_on_c, 0, 55, 0
2, 24118, Note_on_c, 0, 59, 0
2, 24120, Note_on_c, 0, 62, 45
2, 24214, Note_on_c, 0, 62, 0
2, 24264, Note_on_c, 0, 57, 46
2, 24286, Note_on_c, 0, 57, 0
2, 24288, Note_on_c, 0, 60, 46
2, 24310, Note_on_c, 0, 60, 0
2, 24312, Note_on_c, 0, 62, 46
2, 24358, Note_on_c, 0, 62, 0
2, 24456, Note_on_c, 0, 67, 49
2, 24478, Note_on_c, 0, 67, 0
2, 24480, Note_on_c, 0, 71, 49
2, 24502, Note_on_c, 0, 71, 0
2, 24504, Note_on_c, 0, 74, 49
2, 24536, Note_on_c, 0, 74, 0
2, 24648, Note_on_c, 0, 59, 52
2, 24670, Note_on_c, 0, 59, 0
2, 24672, Note_on_c, 0, 62, 52
2, 24694, Note_on_c, 0, 62, 0
2, 24696, Note_on_c, 0, 67, 52
2, 24728, Note_on_c, 0, 67, 0
2, 24840, Note_on_c, 0, 69, 55
2, 24862, Note_on_c, 0, 69, 0
2, 24864, Note_on_c, 0, 72, 55
2, 24886, Note_on_c, 0, 72, 0
2, 24888, Note_on_c, 0, 76, 56
2, 24920, Note_on_c, 0, 76, 0
2, 25032, Note_on_c, 0, 62, 62
2, 25054, Note_on_c, 0, 62, 0
2, 25056, Note_on_c, 0, 65, 63
2, 25078, Note_on_c, 0, 65, 0
2, 25080, Note_on_c, 0, 67, 63
2, 25112, Note_on_c, 0, 67, 0
2, 25224, Note_on_c, 0, 72, 69
2, 25246, Note_on_c, 0, 72, 0
2, 25248, Note_on_c, 0, 76, 70
2, 25270, Note_on_c, 0, 76, 0
2, 25272, Note_on_c, 0, 79, 71
2, 25304, Note_on_c, 0, 79, 0
2, 25416, Note_on_c, 0, 72, 77
2, 25438, Note_on_c, 0, 72, 0
2, 25440, Note_on_c, 0, 76, 78
2, 25462, Note_on_c, 0, 76, 0
2, 25464, Note_on_c, 0, 84, 79
2, 25496, Note_on_c, 0, 84, 0
2, 25608, Note_on_c, 0, 72, 85
2, 25630, Note_on_c, 0, 72, 0
2, 25632, Note_on_c, 0, 81, 86
2, 25654, Note_on_c, 0, 81, 0
2, 25656, Note_on_c, 0, 84, 87
2, 25688, Note_on_c, 0, 84, 0
2, 25784, Note_on_c, 0, 78, 92
2, 25814, Note_on_c, 0, 78, 0
2, 25816, Note_on_c, 0, 81, 92
2, 25846, Note_on_c, 0, 81, 0
2, 25848, Note_on_c, 0, 84, 92
2, 25869, Note_on_c, 0, 84, 0
2, 25880, Note_on_c, 0, 72, 92
2, 25910, Note_on_c, 0, 72, 0
2, 25912, Note_on_c, 0, 78, 92
2, 25942, Note_on_c, 0, 78, 0
2, 25944, Note_on_c, 0, 81, 92
2, 25965, Note_on_c, 0, 81, 0
2, 25976, Note_on_c, 0, 69, 92
2, 26006, Note_on_c, 0, 69, 0
2, 26008, Note_on_c, 0, 72, 92
2, 26038, Note_on_c, 0, 72, 0
2, 26040, Note_on_c, 0, 78, 92
2, 26061, Note_on_c, 0, 78, 0
2, 26072, Note_on_c, 0, 66, 92
2, 26102, Note_on_c, 0, 66, 0
2, 26104, Note_on_c, 0, 69, 92
2, 26134, Note_on_c, 0, 69, 0
2, 26136, Note_on_c, 0, 72, 92
2, 26157, Note_on_c, 0, 72, 0
2, 26168, Note_on_c, 0, 60, 92
2, 26198, Note_on_c, 0, 60, 0
2, 26200, Note_on_c, 0, 66, 92
2, 26230, Note_on_c, 0, 66, 0
2, 26232, Note_on_c, 0, 69, 45
2, 26253, Note_on_c, 0, 69, 0
2, 26264, Note_on_c, 0, 57, 45
2, 26294, Note_on_c, 0, 57, 0
2, 26296, Note_on_c, 0, 60, 45
2, 26326, Note_on_c, 0, 60, 0
2, 26328, Note_on_c, 0, 59, 45
2, 26358, Note_on_c, 0, 59, 0
2, 26360, Note_on_c, 0, 62, 45
2, 26390, Note_on_c, 0, 62, 0
2, 26392, Note_on_c, 0, 60, 45
2, 26422, Note_on_c, 0, 60, 0
2, 26424, Note_on_c, 0, 64, 45
2, 26454, Note_on_c, 0, 64, 0
2, 26456, Note_on_c, 0, 62, 45
2, 26486, Note_on_c, 0, 62, 0
2, 26488, Note_on_c, 0, 66, 45
2, 26518, Note_on_c, 0, 66, 0
2, 26520, Note_on_c, 0, 64, 45
2, 26550, Note_on_c, 0, 64, 0
2, 26552, Note_on_c, 0, 67, 45
2, 26582, Note_on_c, 0, 67, 0
2, 26584, Note_on_c, 0, 66, 45
2, 26614, Note_on_c, 0, 66, 0
2, 26616, Note_on_c, 0, 69, 45
2, 26646, Note_on_c, 0, 69, 0
2, 26648, Note_on_c, 0, 67, 45
2, 26678, Note_on_c, 0, 67, 0
2, 26680, Note_on_c, 0, 71, 45
2, 26710, Note_on_c, 0, 71, 0
2, 26712, Note_on_c, 0, 69, 45
2, 26726, Note_on_c, 0, 69, 0
2, 26728, Note_on_c, 0, 72, 45
2, 26742, Note_on_c, 0, 72, 0
2, 26744, Note_on_c, 0, 71, 45
2, 26758, Note_on_c, 0, 71, 0
2, 26760, Note_on_c, 0, 74, 45
2, 26774, Note_on_c, 0, 74, 0
2, 26776, Note_on_c, 0, 72, 45
2, 26790, Note_on_c, 0, 72, 0
2, 26792, Note_on_c, 0, 76, 45
2, 26806, Note_on_c, 0, 76, 0
2, 26808, Note_on_c, 0, 74, 45
2, 26822, Note_on_c, 0, 74, 0
2, 26824, Note_on_c, 0, 78, 45
2, 26838, Note_on_c, 0, 78, 0
2, 26840, Note_on_c, 0, 76, 45
2, 26854, Note_on_c, 0, 76, 0
2, 26856, Note_on_c, 0, 79, 45
2, 26870, Note_on_c, 0, 79, 0
2, 26872, Note_on_c, 0, 78, 45
2, 26886, Note_on_c, 0, 78, 0
2, 26888, Note_on_c, 0, 81, 45
2, 26902, Note_on_c, 0, 81, 0
2, 26904, Note_on_c, 0, 79, 92
2, 26918, Note_on_c, 0, 79, 0
2, 26920, Note_on_c, 0, 83, 92
2, 26934, Note_on_c, 0, 83, 0
2, 26936, Note_on_c, 0, 81, 92
2, 26950, Note_on_c, 0, 81, 0
2, 26952, Note_on_c, 0, 84, 92
2, 26966, Note_on_c, 0, 84, 0
2, 26968, Note_on_c, 0, 83, 92
2, 26982, Note_on_c, 0, 83, 0
2, 26984, Note_on_c, 0, 86, 92
2, 26998, Note_on_c, 0, 86, 0
2, 27000, Note_on_c, 0, 84, 92
2, 27022, Note_on_c, 0, 84, 0
2, 27024, Note_on_c, 0, 83, 92
2, 27046, Note_on_c, 0, 83, 0
2, 27048, Note_on_c, 0, 81, 92
2, 27070, Note_on_c, 0, 81, 0
2, 27072, Note_on_c, 0, 79, 92
2, 27094, Note_on_c, 0, 79, 0
2, 27096, Note_on_c, 0, 78, 92
2, 27118, Note_on_c, 0, 78, 0
2, 27120, Note_on_c, 0, 79, 92
2, 27142, Note_on_c, 0, 79, 0
2, 27144, Note_on_c, 0, 78, 92
2, 27166, Note_on_c, 0, 78, 0
2, 27168, Note_on_c, 0, 76, 92
2, 27190, Note_on_c, 0, 76, 0
2, 27192, Note_on_c, 0, 78, 92
2, 27214, Note_on_c, 0, 78, 0
2, 27216, Note_on_c, 0, 79, 81
2, 27238, Note_on_c, 0, 79, 0
2, 27240, Note_on_c, 0, 81, 69
2, 27262, Note_on_c, 0, 81, 0
2, 27264, Note_on_c, 0, 83, 57
2, 27286, Note_on_c, 0, 83, 0
2, 27288, Note_on_c, 0, 84, 45
2, 27318, Note_on_c, 0, 84, 0
2, 27320, Note_on_c, 0, 83, 45
2, 27350, Note_on_c, 0, 83, 0
2, 27352, Note_on_c, 0, 86, 45
2, 27382, Note_on_c, 0, 86, 0
2, 27384, Note_on_c, 0, 84, 45
2, 27406, Note_on_c, 0, 84, 0
2, 27408, Note_on_c, 0, 83, 45
2, 27430, Note_on_c, 0, 83, 0
2, 27432, Note_on_c, 0, 81, 45
2, 27454, Note_on_c, 0, 81, 0
2, 27456, Note_on_c, 0, 79, 45
2, 27478, Note_on_c, 0, 79, 0
2, 27480, Note_on_c, 0, 78, 45
2, 27502, Note_on_c, 0, 78, 0
2, 27504, Note_on_c, 0, 79, 45
2, 27526, Note_on_c, 0, 79, 0
2, 27528, Note_on_c, 0, 78, 45
2, 27550, Note_on_c, 0, 78, 0
2, 27552, Note_on_c, 0, 76, 45
2, 27574, Note_on_c, 0, 76, 0
2, 27576, Note_on_c, 0, 78, 45
2, 27598, Note_on_c, 0, 78, 0
2, 27600, Note_on_c, 0, 79, 45
2, 27622, Note_on_c, 0, 79, 0
2, 27624, Note_on_c, 0, 81, 45
2, 27646, Note_on_c, 0, 81, 0
2, 27648, Note_on_c, 0, 83, 45
2, 27670, Note_on_c, 0, 83, 0
2, 27672, Note_on_c, 0, 84, 45
2, 27702, Note_on_c, 0, 84, 0
2, 27704, Note_on_c, 0, 83, 45
2, 27734, Note_on_c, 0, 83, 0
2, 27736, Note_on_c, 0, 86, 45
2, 27766, Note_on_c, 0, 86, 0
2, 27768, Note_on_c, 0, 84, 45
2, 27790, Note_on_c, 0, 84, 0
2, 27792, Note_on_c, 0, 83, 45
2, 27814, Note_on_c, 0, 83, 0
2, 27816, Note_on_c, 0, 81, 45
2, 27838, Note_on_c, 0, 81, 0
2, 27840, Note_on_c, 0, 79, 45
2, 27862, Note_on_c, 0, 79, 0
2, 27864, Note_on_c, 0, 78, 45
2, 27886, Note_on_c, 0, 78, 0
2, 27888, Note_on_c, 0, 79, 45
2, 27910, Note_on_c, 0, 79, 0
2, 27912, Note_on_c, 0, 78, 45
2, 27934, Note_on_c, 0, 78, 0
2, 27936, Note_on_c, 0, 76, 45
2, 27958, Note_on_c, 0, 76, 0
2, 27960, Note_on_c, 0, 78, 45
2, 27982, Note_on_c, 0, 78, 0
2, 27984, Note_on_c, 0, 79, 45
2, 28006, Note_on_c, 0, 79, 0
2, 28008, Note_on_c, 0, 81, 45
2, 28030, Note_on_c, 0, 81, 0
2, 28032, Note_on_c, 0, 83, 45
2, 28054, Note_on_c, 0, 83, 0
2, 28056, Note_on_c, 0, 84, 45
2, 28086, Note_on_c, 0, 84, 0
2, 28088, Note_on_c, 0, 83, 46
2, 28118, Note_on_c, 0, 83, 0
2, 28120, Note_on_c, 0, 86, 47
2, 28150, Note_on_c, 0, 86, 0
2, 28152, Note_on_c, 0, 84, 48
2, 28174, Note_on_c, 0, 84, 0
2, 28176, Note_on_c, 0, 83, 49
2, 28198, Note_on_c, 0, 83, 0
2, 28200, Note_on_c, 0, 81, 50
2, 28222, Note_on_c, 0, 81, 0
2, 28224, Note_on_c, 0, 79, 51
2, 28246, Note_on_c, 0, 79, 0
2, 28248, Note_on_c, 0, 78, 52
2, 28270, Note_on_c, 0, 78, 0
2, 28272, Note_on_c, 0, 79, 53
2, 28294, Note_on_c, 0, 79, 0
2, 28296, Note_on_c, 0, 78, 54
2, 28318, Note_on_c, 0, 78, 0
2, 28320, Note_on_c, 0, 76, 55
2, 28342, Note_on_c, 0, 76, 0
2, 28344, Note_on_c, 0, 78, 56
2, 28354, Note_on_c, 0, 78, 0
2, 28356, Note_on_c, 0, 79, 56
2, 28366, Note_on_c, 0, 79, 0
2, 28368, Note_on_c, 0, 81, 56
2, 28378, Note_on_c, 0, 81, 0
2, 28380, Note_on_c, 0, 79, 56
2, 28390, Note_on_c, 0, 79, 0
2, 28392, Note_on_c, 0, 78, 56
2, 28402, Note_on_c, 0, 78, 0
2, 28404, Note_on_c, 0, 76, 57
2, 28414, Note_on_c, 0, 76, 0
2, 28416, Note_on_c, 0, 74, 58
2, 28426, Note_on_c, 0, 74, 0
2, 28428, Note_on_c, 0, 72, 59
2, 28438, Note_on_c, 0, 72, 0
2, 28440, Note_on_c, 0, 71, 60
2, 28600, Note_on_c, 0, 71, 0
2, 28632, Note_on_c, 0, 71, 60
2, 28656, Note_on_c, 0, 71, 60
2, 28678, Note_on_c, 0, 71, 0
2, 28680, Note_on_c, 0, 71, 60
2, 28702, Note_on_c, 0, 71, 0
2, 28704, Note_on_c, 0, 71, 60
2, 28726, Note_on_c, 0, 71, 0
2, 28728, Note_on_c, 0, 71, 60
2, 28750, Note_on_c, 0, 71, 0
2, 28752, Note_on_c, 0, 71, 60
2, 28774, Note_on_c, 0, 71, 0
2, 28774, Note_on_c, 0, 71, 0
2, 28776, Note_on_c, 0, 69, 60
2, 28798, Note_on_c, 0, 69, 0
2, 28800, Note_on_c, 0, 71, 60
2, 28822, Note_on_c, 0, 71, 0
2, 28824, Note_on_c, 0, 74, 60
2, 29016, Note_on_c, 0, 74, 0
2, 29016, Note_on_c, 0, 74, 60
2, 29038, Note_on_c, 0, 74, 0
2, 29040, Note_on_c, 0, 73, 60
2, 29062, Note_on_c, 0, 73, 0
2, 29064, Note_on_c, 0, 76, 60
2, 29086, Note_on_c, 0, 76, 0
2, 29088, Note_on_c, 0, 74, 60
2, 29110, Note_on_c, 0, 74, 0
2, 29112, Note_on_c, 0, 72, 60
2, 29134, Note_on_c, 0, 72, 0
2, 29136, Note_on_c, 0, 71, 60
2, 29158, Note_on_c, 0, 71, 0
2, 29160, Note_on_c, 0, 69, 60
2, 29182, Note_on_c, 0, 69, 0
2, 29184, Note_on_c, 0, 67, 60
2, 29206, Note_on_c, 0, 67, 0
2, 29208, Note_on_c, 0, 60, 60
2, 29208, Note_on_c, 0, 66, 60
2, 29240, Note_on_c, 0, 60, 0
2, 29240, Note_on_c, 0, 66, 0
2, 29376, Note_on_c, 0, 62, 60
2, 29400, Note_on_c, 0, 62, 0
2, 29400, Note_on_c, 0, 59, 60
2, 29400, Note_on_c, 0, 67, 60
2, 29432, Note_on_c, 0, 59, 0
2, 29432, Note_on_c, 0, 67, 0
2, 29568, Note_on_c, 0, 62, 60
2, 29584, Note_on_c, 0, 62, 0
2, 29592, Note_on_c, 0, 67, 60
2, 29592, Note_on_c, 0, 71, 60
2, 29686, Note_on_c, 0, 67, 0
2, 29688, Note_on_c, 0, 62, 60
2, 29752, Note_on_c, 0, 71, 0
2, 29782, Note_on_c, 0, 62, 0
2, 29784, Note_on_c, 0, 66, 60
2, 29784, Note_on_c, 0, 69, 60
2, 29878, Note_on_c, 0, 66, 0
2, 29878, Note_on_c, 0, 69, 0
2, 29880, Note_on_c, 0, 62, 60
2, 29974, Note_on_c, 0, 62, 0
2, 29976, Note_on_c, 0, 66, 60
2, 29976, Note_on_c, 0, 71, 60
2, 30070, Note_on_c, 0, 66, 0
2, 30072, Note_on_c, 0, 63, 60
2, 30136, Note_on_c, 0, 71, 0
2, 30166, Note_on_c, 0, 63, 0
2, 30168, Note_on_c, 0, 67, 60
2, 30168, Note_on_c, 0, 71, 60
2, 30190, Note_on_c, 0, 71, 0
2, 30192, Note_on_c, 0, 70, 60
2, 30214, Note_on_c, 0, 70, 0
2, 30216, Note_on_c, 0, 72, 60
2, 30238, Note_on_c, 0, 72, 0
2, 30240, Note_on_c, 0, 71, 60
2, 30262, Note_on_c, 0, 67, 0
2, 30262, Note_on_c, 0, 71, 0
2, 30264, Note_on_c, 0, 69, 60
2, 30286, Note_on_c, 0, 69, 0
2, 30288, Note_on_c, 0, 67, 60
2, 30310, Note_on_c, 0, 67, 0
2, 30312, Note_on_c, 0, 66, 60
2, 30334, Note_on_c, 0, 66, 0
2, 30336, Note_on_c, 0, 64, 60
2, 30352, Note_on_c, 0, 64, 0
2, 30360, Note_on_c, 0, 64, 60
2, 30360, Note_on_c, 0, 69, 60
2, 30454, Note_on_c, 0, 64, 0
2, 30456, Note_on_c, 0, 61, 60
2, 30520, Note_on_c, 0, 69, 0
2, 30550, Note_on_c, 0, 61, 0
2, 30552, Note_on_c, 0, 66, 60
2, 30552, Note_on_c, 0, 69, 60
2, 30574, Note_on_c, 0, 69, 0
2, 30576, Note_on_c, 0, 68, 60
2, 30598, Note_on_c, 0, 68, 0
2, 30600, Note_on_c, 0, 71, 60
2, 30622, Note_on_c, 0, 71, 0
2, 30624, Note_on_c, 0, 69, 60
2, 30646, Note_on_c, 0, 66, 0
2, 30646, Note_on_c, 0, 69, 0
2, 30648, Note_on_c, 0, 67, 60
2, 30670, Note_on_c, 0, 67, 0
2, 30672, Note_on_c, 0, 66, 60
2, 30694, Note_on_c, 0, 66, 0
2, 30696, Note_on_c, 0, 64, 60
2, 30718, Note_on_c, 0, 64, 0
2, 30720, Note_on_c, 0, 62, 60
2, 30736, Note_on_c, 0, 62, 0
2, 30744, Note_on_c, 0, 62, 60
2, 30744, Note_on_c, 0, 66, 60
2, 30904, Note_on_c, 0, 62, 0
2, 30904, Note_on_c, 0, 66, 0
2, 30936, Note_on_c, 0, 61, 60
2, 30936, Note_on_c, 0, 64, 60
2, 31078, Note_on_c, 0, 64, 0
2, 31080, Note_on_c, 0, 66, 60
2, 31096, Note_on_c, 0, 61, 0
2, 31126, Note_on_c, 0, 66, 0
2, 31128, Note_on_c, 0, 62, 60
2, 31160, Note_on_c, 0, 62, 0
2, 31176, Note_on_c, 0, 64, 60
2, 31208, Note_on_c, 0, 64, 0
2, 31224, Note_on_c, 0, 66, 60
2, 31256, Note_on_c, 0, 66, 0
2, 31272, Note_on_c, 0, 67, 60
2, 31304, Note_on_c, 0, 67, 0
2, 31320, Note_on_c, 0, 68, 60
2, 31352, Note_on_c, 0, 68, 0
2, 31368, Note_on_c, 0, 69, 60
2, 31400, Note_on_c, 0, 69, 0
2, 31416, Note_on_c, 0, 70, 60
2, 31448, Note_on_c, 0, 70, 0
2, 31464, Note_on_c, 0, 71, 60
2, 31496, Note_on_c, 0, 71, 0
2, 31512, Note_on_c, 0, 69, 60
2, 31512, Note_on_c, 0, 72, 60
2, 31606, Note_on_c, 0, 69, 0
2, 31608, Note_on_c, 0, 62, 60
2, 31672, Note_on_c, 0, 72, 0
2, 31702, Note_on_c, 0, 62, 0
2, 31704, Note_on_c, 0, 67, 60
2, 31704, Note_on_c, 0, 71, 60
2, 31798, Note_on_c, 0, 67, 0
2, 31800, Note_on_c, 0, 62, 60
2, 31864, Note_on_c, 0, 71, 0
2, 31894, Note_on_c, 0, 62, 0
2, 31896, Note_on_c, 0, 60, 60
2, 31896, Note_on_c, 0, 69, 60
2, 31990, Note_on_c, 0, 60, 0
2, 31992, Note_on_c, 0, 62, 60
2, 32056, Note_on_c, 0, 69, 0
2, 32086, Note_on_c, 0, 62, 0
2, 32088, Note_on_c, 0, 59, 60
2, 32088, Note_on_c, 0, 67, 60
2, 32182, Note_on_c, 0, 59, 0
2, 32184, Note_on_c, 0, 62, 60
2, 32248, Note_on_c, 0, 67, 0
2, 32278, Note_on_c, 0, 62, 0
2, 32280, Note_on_c, 0, 62, 60
2, 32302, Note_on_c, 0, 62, 0
2, 32304, Note_on_c, 0, 64, 60
2, 32326, Note_on_c, 0, 64, 0
2, 32328, Note_on_c, 0, 66, 60
2, 32350, Note_on_c, 0, 66, 0
2, 32352, Note_on_c, 0, 67, 60
2, 32374, Note_on_c, 0, 67, 0
2, 32376, Note_on_c, 0, 69, 60
2, 32398, Note_on_c, 0, 69, 0
2, 32400, Note_on_c, 0, 71, 60
2, 32422, Note_on_c, 0, 71, 0
2, 32424, Note_on_c, 0, 72, 60
2, 32446, Note_on_c, 0, 72, 0
2, 32448, Note_on_c, 0, 73, 60
2, 32470, Note_on_c, 0, 73, 0
2, 32472, Note_on_c, 0, 74, 60
2, 32494, Note_on_c, 0, 74, 0
2, 32496, Note_on_c, 0, 76, 60
2, 32518, Note_on_c, 0, 76, 0
2, 32520, Note_on_c, 0, 78, 60
2, 32542, Note_on_c, 0, 78, 0
2, 32544, Note_on_c, 0, 79, 60
2, 32566, Note_on_c, 0, 79, 0
2, 32568, Note_on_c, 0, 81, 60
2, 32590, Note_on_c, 0, 81, 0
2, 32592, Note_on_c, 0, 83, 60
2, 32614, Note_on_c, 0, 83, 0
2, 32616, Note_on_c, 0, 84, 60
2, 32638, Note_on_c, 0, 84, 0
2, 32640, Note_on_c, 0, 85, 60
2, 32662, Note_on_c, 0, 85, 0
2, 32664, Note_on_c, 0, 86, 60
2, 32696, Note_on_c, 0, 86, 0
2, 32760, Note_on_c, 0, 62, 60
2, 32792, Note_on_c, 0, 62, 0
2, 32856, Note_on_c, 0, 62, 60
2, 32888, Note_on_c, 0, 62, 0
2, 32952, Note_on_c, 0, 62, 60
2, 32984, Note_on_c, 0, 62, 0
2, 33048, Note_on_c, 0, 71, 60
2, 33048, Note_on_c, 0, 74, 60
2, 33142, Note_on_c, 0, 71, 0
2, 33144, Note_on_c, 0, 62, 60
2, 33208, Note_on_c, 0, 74, 0
2, 33238, Note_on_c, 0, 62, 0
2, 33240, Note_on_c, 0, 69, 60
2, 33240, Note_on_c, 0, 72, 60
2, 33334, Note_on_c, 0, 69, 0
2, 33336, Note_on_c, 0, 62, 60
2, 33400, Note_on_c, 0, 72, 0
2, 33430, Note_on_c, 0, 62, 0
2, 33432, Note_on_c, 0, 67, 60
2, 33432, Note_on_c, 0, 71, 60
2, 33526, Note_on_c, 0, 67, 0
2, 33528, Note_on_c, 0, 62, 60
2, 33592, Note_on_c, 0, 71, 0
2, 33622, Note_on_c, 0, 62, 0
2, 33624, Note_on_c, 0, 60, 60
2, 33624, Note_on_c, 0, 69, 60
2, 33718, Note_on_c, 0, 60, 0
2, 33720, Note_on_c, 0, 62, 60
2, 33784, Note_on_c, 0, 69, 0
2, 33814, Note_on_c, 0, 62, 0
2, 33816, Note_on_c, 0, 55, 60
2, 33838, Note_on_c, 0, 55, 0
2, 33840, Note_on_c, 0, 57, 60
2, 33862, Note_on_c, 0, 57, 0
2, 33864, Note_on_c, 0, 59, 60
2, 33886, Note_on_c, 0, 59, 0
2, 33888, Note_on_c, 0, 60, 60
2, 33910, Note_on_c, 0, 60, 0
2, 33912, Note_on_c, 0, 62, 60
2, 33934, Note_on_c, 0, 62, 0
2, 33936, Note_on_c, 0, 64, 60
2, 33958, Note_on_c, 0, 64, 0
2, 33960, Note_on_c, 0, 65, 60
2, 33982, Note_on_c, 0, 65, 0
2, 33984, Note_on_c, 0, 66, 60
2, 34006, Note_on_c, 0, 66, 0
2, 34008, Note_on_c, 0, 67, 60
2, 34030, Note_on_c, 0, 67, 0
2, 34032, Note_on_c, 0, 69, 60
2, 34054, Note_on_c, 0, 69, 0
2, 34056, Note_on_c, 0, 71, 60
2, 34078, Note_on_c, 0, 71, 0
2, 34080, Note_on_c, 0, 72, 60
2, 34102, Note_on_c, 0, 72, 0
2, 34104, Note_on_c, 0, 74, 60
2, 34126, Note_on_c, 0, 74, 0
2, 34128, Note_on_c, 0, 76, 60
2, 34150, Note_on_c, 0, 76, 0
2, 34152, Note_on_c, 0, 77, 60
2, 34174, Note_on_c, 0, 77, 0
2, 34176, Note_on_c, 0, 78, 60
2, 34198, Note_on_c, 0, 78, 0
2, 34200, Note_on_c, 0, 79, 60
2, 34246, Note_on_c, 0, 79, 0
2, 34248, Note_on_c, 0, 83, 60
2, 34280, Note_on_c, 0, 83, 0
2, 34296, Note_on_c, 0, 81, 60
2, 34328, Note_on_c, 0, 81, 0
2, 34344, Note_on_c, 0, 79, 60
2, 34376, Note_on_c, 0, 79, 0
2, 34392, Note_on_c, 0, 78, 60
2, 34424, Note_on_c, 0, 78, 0
2, 34440, Note_on_c, 0, 76, 60
2, 34472, Note_on_c, 0, 76, 0
2, 34488, Note_on_c, 0, 74, 60
2, 34520, Note_on_c, 0, 74, 0
2, 34536, Note_on_c, 0, 72, 60
2, 34568, Note_on_c, 0, 72, 0
2, 34584, Note_on_c, 0, 71, 60
2, 34608, Note_on_c, 0, 74, 60
2, 34630, Note_on_c, 0, 74, 0
2, 34632, Note_on_c, 0, 76, 60
2, 34654, Note_on_c, 0, 76, 0
2, 34656, Note_on_c, 0, 74, 60
2, 34678, Note_on_c, 0, 74, 0
2, 34680, Note_on_c, 0, 76, 60
2, 34702, Note_on_c, 0, 76, 0
2, 34704, Note_on_c, 0, 74, 60
2, 34726, Note_on_c, 0, 74, 0
2, 34728, Note_on_c, 0, 76, 60
2, 34744, Note_on_c, 0, 71, 0
2, 34750, Note_on_c, 0, 76, 0
2, 34752, Note_on_c, 0, 74, 60
2, 34774, Note_on_c, 0, 74, 0
2, 34776, Note_on_c, 0, 69, 60
2, 34798, Note_on_c, 0, 69, 0
2, 34800, Note_on_c, 0, 71, 60
2, 34800, Note_on_c, 0, 74, 60
2, 34822, Note_on_c, 0, 71, 0
2, 34822, Note_on_c, 0, 74, 0
2, 34824, Note_on_c, 0, 72, 60
2, 34824, Note_on_c, 0, 76, 60
2, 34846, Note_on_c, 0, 76, 0
2, 34848, Note_on_c, 0, 74, 60
2, 34870, Note_on_c, 0, 74, 0
2, 34872, Note_on_c, 0, 76, 60
2, 34894, Note_on_c, 0, 76, 0
2, 34896, Note_on_c, 0, 74, 60
2, 34918, Note_on_c, 0, 74, 0
2, 34920, Note_on_c, 0, 76, 60
2, 34942, Note_on_c, 0, 76, 0
2, 34944, Note_on_c, 0, 74, 60
2, 34966, Note_on_c, 0, 72, 0
2, 34966, Note_on_c, 0, 74, 0
2, 34968, Note_on_c, 0, 71, 60
2, 34990, Note_on_c, 0, 71, 0
2, 34992, Note_on_c, 0, 72, 60
2, 34992, Note_on_c, 0, 76, 60
2, 35014, Note_on_c, 0, 72, 0
2, 35014, Note_on_c, 0, 76, 0
2, 35016, Note_on_c, 0, 74, 60
2, 35016, Note_on_c, 0, 78, 60
2, 35038, Note_on_c, 0, 78, 0
2, 35040, Note_on_c, 0, 76, 60
2, 35062, Note_on_c, 0, 76, 0
2, 35064, Note_on_c, 0, 78, 60
2, 35086, Note_on_c, 0, 78, 0
2, 35088, Note_on_c, 0, 76, 60
2, 35110, Note_on_c, 0, 76, 0
2, 35112, Note_on_c, 0, 78, 60
2, 35134, Note_on_c, 0, 78, 0
2, 35136, Note_on_c, 0, 76, 60
2, 35158, Note_on_c, 0, 74, 0
2, 35158, Note_on_c, 0, 76, 0
2, 35160, Note_on_c, 0, 74, 60
2, 35206, Note_on_c, 0, 74, 0
2, 35208, Note_on_c, 0, 73, 60
2, 35208, Note_on_c, 0, 76, 60
2, 35230, Note_on_c, 0, 73, 0
2, 35230, Note_on_c, 0, 76, 0
2, 35232, Note_on_c, 0, 74, 60
2, 35232, Note_on_c, 0, 78, 60
2, 35254, Note_on_c, 0, 74, 0
2, 35254, Note_on_c, 0, 78, 0
2, 35256, Note_on_c, 0, 79, 60
2, 35266, Note_on_c, 0, 79, 0
2, 35268, Note_on_c, 0, 78, 60
2, 35278, Note_on_c, 0, 78, 0
2, 35280, Note_on_c, 0, 76, 60
2, 35290, Note_on_c, 0, 76, 0
2, 35292, Note_on_c, 0, 74, 60
2, 35302, Note_on_c, 0, 74, 0
2, 35304, Note_on_c, 0, 72, 60
2, 35314, Note_on_c, 0, 72, 0
2, 35316, Note_on_c, 0, 71, 60
2, 35326, Note_on_c, 0, 71, 0
2, 35328, Note_on_c, 0, 69, 60
2, 35338, Note_on_c, 0, 69, 0
2, 35340, Note_on_c, 0, 67, 60
2, 35350, Note_on_c, 0, 67, 0
2, 35352, Note_on_c, 0, 60, 60
2, 35352, Note_on_c, 0, 66, 60
2, 35384, Note_on_c, 0, 60, 0
2, 35384, Note_on_c, 0, 66, 0
2, 35520, Note_on_c, 0, 62, 60
2, 35544, Note_on_c, 0, 62, 0
2, 35544, Note_on_c, 0, 59, 60
2, 35544, Note_on_c, 0, 67, 60
2, 35576, Note_on_c, 0, 59, 0
2, 35576, Note_on_c, 0, 67, 0
2, 35712, Note_on_c, 0, 62, 60
2, 35728, Note_on_c, 0, 62, 0
2, 35736, Note_on_c, 0, 67, 60
2, 35736, Note_on_c, 0, 71, 60
2, 35830, Note_on_c, 0, 67, 0
2, 35832, Note_on_c, 0, 62, 60
2, 35896, Note_on_c, 0, 71, 0
2, 35926, Note_on_c, 0, 62, 0
2, 35928, Note_on_c, 0, 66, 60
2, 35928, Note_on_c, 0, 69, 60
2, 36022, Note_on_c, 0, 66, 0
2, 36022, Note_on_c, 0, 69, 0
2, 36024, Note_on_c, 0, 62, 60
2, 36056, Note_on_c, 0, 62, 0
2, 36120, Note_on_c, 0, 71, 60
2, 36120, Note_on_c, 0, 76, 60
2, 36214, Note_on_c, 0, 71, 0
2, 36216, Note_on_c, 0, 68, 60
2, 36280, Note_on_c, 0, 76, 0
2, 36310, Note_on_c, 0, 68, 0
2, 36312, Note_on_c, 0, 72, 60
2, 36312, Note_on_c, 0, 76, 60
2, 36334, Note_on_c, 0, 76, 0
2, 36336, Note_on_c, 0, 75, 60
2, 36358, Note_on_c, 0, 75, 0
2, 36360, Note_on_c, 0, 77, 60
2, 36382, Note_on_c, 0, 77, 0
2, 36384, Note_on_c, 0, 76, 60
2, 36406, Note_on_c, 0, 72, 0
2, 36406, Note_on_c, 0, 76, 0
2, 36408, Note_on_c, 0, 74, 60
2, 36430, Note_on_c, 0, 74, 0
2, 36432, Note_on_c, 0, 72, 60
2, 36454, Note_on_c, 0, 72, 0
2, 36456, Note_on_c, 0, 71, 60
2, 36478, Note_on_c, 0, 71, 0
2, 36480, Note_on_c, 0, 69, 60
2, 36502, Note_on_c, 0, 69, 0
2, 36504, Note_on_c, 0, 69, 60
2, 36504, Note_on_c, 0, 74, 60
2, 36598, Note_on_c, 0, 69, 0
2, 36600, Note_on_c, 0, 66, 60
2, 36664, Note_on_c, 0, 74, 0
2, 36694, Note_on_c, 0, 66, 0
2, 36696, Note_on_c, 0, 71, 60
2, 36696, Note_on_c, 0, 74, 60
2, 36718, Note_on_c, 0, 74, 0
2, 36720, Note_on_c, 0, 73, 60
2, 36742, Note_on_c, 0, 73, 0
2, 36744, Note_on_c, 0, 76, 60
2, 36766, Note_on_c, 0, 76, 0
2, 36768, Note_on_c, 0, 74, 60
2, 36790, Note_on_c, 0, 71, 0
2, 36790, Note_on_c, 0, 74, 0
2, 36792, Note_on_c, 0, 72, 60
2, 36814, Note_on_c, 0, 72, 0
2, 36816, Note_on_c, 0, 71, 60
2, 36838, Note_on_c, 0, 71, 0
2, 36840, Note_on_c, 0, 69, 60
2, 36862, Note_on_c, 0, 69, 0
2, 36864, Note_on_c, 0, 67, 60
2, 36880, Note_on_c, 0, 67, 0
2, 36888, Note_on_c, 0, 62, 60
2, 36888, Note_on_c, 0, 71, 60
2, 36982, Note_on_c, 0, 62, 0
2, 36984, Note_on_c, 0, 67, 60
2, 37048, Note_on_c, 0, 71, 0
2, 37078, Note_on_c, 0, 67, 0
2, 37080, Note_on_c, 0, 60, 60
2, 37080, Note_on_c, 0, 69, 60
2, 37174, Note_on_c, 0, 60, 0
2, 37176, Note_on_c, 0, 66, 60
2, 37222, Note_on_c, 0, 69, 0
2, 37224, Note_on_c, 0, 71, 60
2, 37270, Note_on_c, 0, 66, 0
2, 37270, Note_on_c, 0, 71, 0
2, 37272, Note_on_c, 0, 59, 60
2, 37272, Note_on_c, 0, 67, 60
2, 37366, Note_on_c, 0, 59, 0
2, 37366, Note_on_c, 0, 67, 0
2, 37752, Note_on_c, 0, 71, 60
2, 37752, Note_on_c, 0, 80, 60
2, 37846, Note_on_c, 0, 71, 0
2, 37846, Note_on_c, 0, 80, 0
2, 37848, Note_on_c, 0, 72, 60
2, 37848, Note_on_c, 0, 81, 60
2, 37942, Note_on_c, 0, 72, 0
2, 37942, Note_on_c, 0, 81, 0
2, 37944, Note_on_c, 0, 76, 60
2, 37944, Note_on_c, 0, 84, 60
2, 37976, Note_on_c, 0, 76, 0
2, 37976, Note_on_c, 0, 84, 0
2, 38136, Note_on_c, 0, 69, 60
2, 38136, Note_on_c, 0, 78, 60
2, 38230, Note_on_c, 0, 69, 0
2, 38230, Note_on_c, 0, 78, 0
2, 38232, Note_on_c, 0, 71, 60
2, 38232, Note_on_c, 0, 79, 60
2, 38326, Note_on_c, 0, 71, 0
2, 38326, Note_on_c, 0, 79, 0
2, 38328, Note_on_c, 0, 74, 60
2, 38328, Note_on_c, 0, 83, 60
2, 38360, Note_on_c, 0, 74, 0
2, 38360, Note_on_c, 0, 83, 0
2, 38424, Note_on_c, 0, 88, 60
2, 38584, Note_on_c, 0, 88, 0
2, 38616, Note_on_c, 0, 88, 60
2, 38638, Note_on_c, 0, 88, 0
2, 38640, Note_on_c, 0, 87, 60
2, 38662, Note_on_c, 0, 87, 0
2, 38664, Note_on_c, 0, 89, 60
2, 38686, Note_on_c, 0, 89, 0
2, 38688, Note_on_c, 0, 88, 60
2, 38710, Note_on_c, 0, 88, 0
2, 38712, Note_on_c, 0, 86, 60
2, 38734, Note_on_c, 0, 86, 0
2, 38736, Note_on_c, 0, 84, 60
2, 38758, Note_on_c, 0, 84, 0
2, 38760, Note_on_c, 0, 83, 60
2, 38782, Note_on_c, 0, 83, 0
2, 38784, Note_on_c, 0, 81, 60
2, 38800, Note_on_c, 0, 81, 0
2, 38808, Note_on_c, 0, 86, 60
2, 38968, Note_on_c, 0, 86, 0
2, 39000, Note_on_c, 0, 86, 60
2, 39022, Note_on_c, 0, 86, 0
2, 39024, Note_on_c, 0, 85, 60
2, 39046, Note_on_c, 0, 85, 0
2, 39048, Note_on_c, 0, 88, 60
2, 39070, Note_on_c, 0, 88, 0
2, 39072, Note_on_c, 0, 86, 60
2, 39094, Note_on_c, 0, 86, 0
2, 39096, Note_on_c, 0, 84, 60
2, 39118, Note_on_c, 0, 84, 0
2, 39120, Note_on_c, 0, 83, 60
2, 39142, Note_on_c, 0, 83, 0
2, 39144, Note_on_c, 0, 81, 60
2, 39166, Note_on_c, 0, 81, 0
2, 39168, Note_on_c, 0, 79, 60
2, 39184, Note_on_c, 0, 79, 0
2, 39192, Note_on_c, 0, 84, 60
2, 39214, Note_on_c, 0, 84, 0
2, 39216, Note_on_c, 0, 83, 60
2, 39238, Note_on_c, 0, 83, 0
2, 39240, Note_on_c, 0, 86, 60
2, 39262, Note_on_c, 0, 86, 0
2, 39264, Note_on_c, 0, 84, 60
2, 39286, Note_on_c, 0, 84, 0
2, 39288, Note_on_c, 0, 83, 60
2, 39310, Note_on_c, 0, 83, 0
2, 39312, Note_on_c, 0, 81, 60
2, 39334, Note_on_c, 0, 81, 0
2, 39336, Note_on_c, 0, 79, 60
2, 39358, Note_on_c, 0, 79, 0
2, 39360, Note_on_c, 0, 78, 60
2, 39382, Note_on_c, 0, 78, 0
2, 39384, Note_on_c, 0, 83, 60
2, 39406, Note_on_c, 0, 83, 0
2, 39408, Note_on_c, 0, 82, 60
2, 39430, Note_on_c, 0, 82, 0
2, 39432, Note_on_c, 0, 84, 60
2, 39454, Note_on_c, 0, 84, 0
2, 39456, Note_on_c, 0, 83, 60
2, 39478, Note_on_c, 0, 83, 0
2, 39480, Note_on_c, 0, 81, 60
2, 39502, Note_on_c, 0, 81, 0
2, 39504, Note_on_c, 0, 79, 60
2, 39526, Note_on_c, 0, 79, 0
2, 39528, Note_on_c, 0, 78, 60
2, 39550, Note_on_c, 0, 78, 0
2, 39552, Note_on_c, 0, 76, 60
2, 39568, Note_on_c, 0, 76, 0
2, 39576, Note_on_c, 0, 81, 60
2, 39598, Note_on_c, 0, 81, 0
2, 39600, Note_on_c, 0, 79, 60
2, 39622, Note_on_c, 0, 79, 0
2, 39624, Note_on_c, 0, 78, 60
2, 39646, Note_on_c, 0, 78, 0
2, 39648, Note_on_c, 0, 76, 60
2, 39670, Note_on_c, 0, 76, 0
2, 39672, Note_on_c, 0, 75, 60
2, 39694, Note_on_c, 0, 75, 0
2, 39696, Note_on_c, 0, 76, 60
2, 39718, Note_on_c, 0, 76, 0
2, 39720, Note_on_c, 0, 78, 60
2, 39742, Note_on_c, 0, 78, 0
2, 39744, Note_on_c, 0, 76, 60
2, 39766, Note_on_c, 0, 76, 0
2, 39768, Note_on_c, 0, 74, 60
2, 39790, Note_on_c, 0, 74, 0
2, 39792, Note_on_c, 0, 72, 60
2, 39814, Note_on_c, 0, 72, 0
2, 39816, Note_on_c, 0, 71, 60
2, 39838, Note_on_c, 0, 71, 0
2, 39840, Note_on_c, 0, 70, 60
2, 39862, Note_on_c, 0, 70, 0
2, 39864, Note_on_c, 0, 76, 60
2, 39886, Note_on_c, 0, 76, 0
2, 39888, Note_on_c, 0, 70, 60
2, 39910, Note_on_c, 0, 70, 0
2, 39912, Note_on_c, 0, 76, 60
2, 39934, Note_on_c, 0, 76, 0
2, 39936, Note_on_c, 0, 70, 60
2, 39958, Note_on_c, 0, 70, 0
2, 39960, Note_on_c, 0, 71, 60
2, 39976, Note_on_c, 0, 71, 0
2, 39984, Note_on_c, 0, 59, 60
2, 40006, Note_on_c, 0, 59, 0
2, 40008, Note_on_c, 0, 61, 59
2, 40030, Note_on_c, 0, 61, 0
2, 40032, Note_on_c, 0, 63, 58
2, 40054, Note_on_c, 0, 63, 0
2, 40056, Note_on_c, 0, 64, 57
2, 40078, Note_on_c, 0, 64, 0
2, 40080, Note_on_c, 0, 66, 56
2, 40102, Note_on_c, 0, 66, 0
2, 40104, Note_on_c, 0, 68, 55
2, 40126, Note_on_c, 0, 68, 0
2, 40128, Note_on_c, 0, 70, 54
2, 40150, Note_on_c, 0, 70, 0
2, 40152, Note_on_c, 0, 71, 53
2, 40174, Note_on_c, 0, 71, 0
2, 40176, Note_on_c, 0, 73, 52
2, 40198, Note_on_c, 0, 73, 0
2, 40200, Note_on_c, 0, 75, 51
2, 40222, Note_on_c, 0, 75, 0
2, 40224, Note_on_c, 0, 76, 50
2, 40246, Note_on_c, 0, 76, 0
2, 40248, Note_on_c, 0, 78, 49
2, 40270, Note_on_c, 0, 78, 0
2, 40272, Note_on_c, 0, 80, 48
2, 40294, Note_on_c, 0, 80, 0
2, 40296, Note_on_c, 0, 82, 47
2, 40318, Note_on_c, 0, 82, 0
2, 40320, Note_on_c, 0, 83, 46
2, 40336, Note_on_c, 0, 83, 0
2, 40344, Note_on_c, 0, 81, 45
2, 40366, Note_on_c, 0, 81, 0
2, 40368, Note_on_c, 0, 79, 45
2, 40390, Note_on_c, 0, 79, 0
2, 40392, Note_on_c, 0, 78, 45
2, 40414, Note_on_c, 0, 78, 0
2, 40416, Note_on_c, 0, 76, 45
2, 40438, Note_on_c, 0, 76, 0
2, 40440, Note_on_c, 0, 75, 45
2, 40462, Note_on_c, 0, 75, 0
2, 40464, Note_on_c, 0, 76, 45
2, 40486, Note_on_c, 0, 76, 0
2, 40488, Note_on_c, 0, 78, 45
2, 40510, Note_on_c, 0, 78, 0
2, 40512, Note_on_c, 0, 76, 45
2, 40534, Note_on_c, 0, 76, 0
2, 40536, Note_on_c, 0, 74, 45
2, 40558, Note_on_c, 0, 74, 0
2, 40560, Note_on_c, 0, 72, 45
2, 40582, Note_on_c, 0, 72, 0
2, 40584, Note_on_c, 0, 71, 45
2, 40606, Note_on_c, 0, 71, 0
2, 40608, Note_on_c, 0, 70, 45
2, 40630, Note_on_c, 0, 70, 0
2, 40632, Note_on_c, 0, 76, 45
2, 40654, Note_on_c, 0, 76, 0
2, 40656, Note_on_c, 0, 70, 45
2, 40678, Note_on_c, 0, 70, 0
2, 40680, Note_on_c, 0, 76, 45
2, 40702, Note_on_c, 0, 76, 0
2, 40704, Note_on_c, 0, 70, 45
2, 40726, Note_on_c, 0, 70, 0
2, 40728, Note_on_c, 0, 71, 45
2, 40744, Note_on_c, 0, 71, 0
2, 40752, Note_on_c, 0, 59, 47
2, 40774, Note_on_c, 0, 59, 0
2, 40776, Note_on_c, 0, 61, 50
2, 40798, Note_on_c, 0, 61, 0
2, 40800, Note_on_c, 0, 63, 53
2, 40822, Note_on_c, 0, 63, 0
2, 40824, Note_on_c, 0, 64, 56
2, 40846, Note_on_c, 0, 64, 0
2, 40848, Note_on_c, 0, 66, 59
2, 40870, Note_on_c, 0, 66, 0
2, 40872, Note_on_c, 0, 68, 62
2, 40894, Note_on_c, 0, 68, 0
2, 40896, Note_on_c, 0, 70, 65
2, 40918, Note_on_c, 0, 70, 0
2, 40920, Note_on_c, 0, 71, 68
2, 40942, Note_on_c, 0, 71, 0
2, 40944, Note_on_c, 0, 73, 71
2, 40966, Note_on_c, 0, 73, 0
2, 40968, Note_on_c, 0, 75, 74
2, 40990, Note_on_c, 0, 75, 0
2, 40992, Note_on_c, 0, 76, 77
2, 41014, Note_on_c, 0, 76, 0
2, 41016, Note_on_c, 0, 78, 80
2, 41038, Note_on_c, 0, 78, 0
2, 41040, Note_on_c, 0, 80, 83
2, 41062, Note_on_c, 0, 80, 0
2, 41064, Note_on_c, 0, 82, 86
2, 41086, Note_on_c, 0, 82, 0
2, 41088, Note_on_c, 0, 83, 89
2, 41104, Note_on_c, 0, 83, 0
2, 41112, Note_on_c, 0, 81, 92
2, 41134, Note_on_c, 0, 81, 0
2, 41136, Note_on_c, 0, 79, 92
2, 41158, Note_on_c, 0, 79, 0
2, 41160, Note_on_c, 0, 78, 92
2, 41182, Note_on_c, 0, 78, 0
2, 41184, Note_on_c, 0, 76, 92
2, 41206, Note_on_c, 0, 76, 0
2, 41208, Note_on_c, 0, 75, 92
2, 41230, Note_on_c, 0, 75, 0
2, 41232, Note_on_c, 0, 76, 92
2, 41254, Note_on_c, 0, 76, 0
2, 41256, Note_on_c, 0, 78, 92
2, 41278, Note_on_c, 0, 78, 0
2, 41280, Note_on_c, 0, 76, 92
2, 41302, Note_on_c, 0, 76, 0
2, 41304, Note_on_c, 0, 74, 92
2, 41326, Note_on_c, 0, 74, 0
2, 41328, Note_on_c, 0, 72, 92
2, 41350, Note_on_c, 0, 72, 0
2, 41352, Note_on_c, 0, 71, 92
2, 41374, Note_on_c, 0, 71, 0
2, 41376, Note_on_c, 0, 70, 92
2, 41398, Note_on_c, 0, 70, 0
2, 41400, Note_on_c, 0, 76, 92
2, 41422, Note_on_c, 0, 76, 0
2, 41424, Note_on_c, 0, 70, 92
2, 41446, Note_on_c, 0, 70, 0
2, 41448, Note_on_c, 0, 76, 92
2, 41470, Note_on_c, 0, 76, 0
2, 41472, Note_on_c, 0, 70, 92
2, 41488, Note_on_c, 0, 70, 0
2, 41496, Note_on_c, 0, 70, 60
2, 41518, Note_on_c, 0, 70, 0
2, 41520, Note_on_c, 0, 71, 60
2, 41542, Note_on_c, 0, 71, 0
2, 41544, Note_on_c, 0, 70, 60
2, 41566, Note_on_c, 0, 70, 0
2, 41568, Note_on_c, 0, 71, 60
2, 41590, Note_on_c, 0, 71, 0
2, 41592, Note_on_c, 0, 70, 60
2, 41614, Note_on_c, 0, 70, 0
2, 41616, Note_on_c, 0, 71, 60
2, 41638, Note_on_c, 0, 71, 0
2, 41640, Note_on_c, 0, 70, 60
2, 41662, Note_on_c, 0, 70, 0
2, 41664, Note_on_c, 0, 71, 60
2, 41686, Note_on_c, 0, 71, 0
2, 41688, Note_on_c, 0, 70, 60
2, 41710, Note_on_c, 0, 70, 0
2, 41712, Note_on_c, 0, 71, 60
2, 41734, Note_on_c, 0, 71, 0
2, 41736, Note_on_c, 0, 70, 60
2, 41758, Note_on_c, 0, 70, 0
2, 41760, Note_on_c, 0, 71, 60
2, 41782, Note_on_c, 0, 71, 0
2, 41784, Note_on_c, 0, 70, 60
2, 41806, Note_on_c, 0, 70, 0
2, 41808, Note_on_c, 0, 71, 60
2, 41830, Note_on_c, 0, 71, 0
2, 41832, Note_on_c, 0, 70, 60
2, 41854, Note_on_c, 0, 70, 0
2, 41856, Note_on_c, 0, 71, 60
2, 41872, Note_on_c, 0, 71, 0
2, 41880, Note_on_c, 0, 71, 60
2, 41904, Note_on_c, 0, 72, 60
2, 41926, Note_on_c, 0, 72, 0
2, 41928, Note_on_c, 0, 74, 60
2, 41950, Note_on_c, 0, 74, 0
2, 41952, Note_on_c, 0, 72, 60
2, 41974, Note_on_c, 0, 72, 0
2, 41976, Note_on_c, 0, 74, 60
2, 41998, Note_on_c, 0, 74, 0
2, 42000, Note_on_c, 0, 72, 60
2, 42022, Note_on_c, 0, 72, 0
2, 42024, Note_on_c, 0, 74, 60
2, 42046, Note_on_c, 0, 74, 0
2, 42048, Note_on_c, 0, 72, 60
2, 42070, Note_on_c, 0, 72, 0
2, 42072, Note_on_c, 0, 74, 60
2, 42094, Note_on_c, 0, 74, 0
2, 42096, Note_on_c, 0, 72, 60
2, 42118, Note_on_c, 0, 72, 0
2, 42120, Note_on_c, 0, 70, 45
2, 42136, Note_on_c, 0, 71, 0
2, 42280, Note_on_c, 0, 70, 0
2, 42312, Note_on_c, 0, 73, 45
2, 42472, Note_on_c, 0, 73, 0
2, 42504, Note_on_c, 0, 71, 45
2, 42664, Note_on_c, 0, 71, 0
2, 42696, Note_on_c, 0, 71, 45
2, 42728, Note_on_c, 0, 71, 0
2, 42792, Note_on_c, 0, 71, 45
2, 43048, Note_on_c, 0, 71, 0
2, 43080, Note_on_c, 0, 71, 45
2, 43174, Note_on_c, 0, 71, 0
2, 43176, Note_on_c, 0, 75, 45
2, 43222, Note_on_c, 0, 75, 0
2, 43224, Note_on_c, 0, 73, 45
2, 43270, Note_on_c, 0, 73, 0
2, 43272, Note_on_c, 0, 71, 45
2, 43304, Note_on_c, 0, 71, 0
2, 43368, Note_on_c, 0, 71, 45
2, 43624, Note_on_c, 0, 71, 0
2, 43656, Note_on_c, 0, 71, 45
2, 43750, Note_on_c, 0, 71, 0
2, 43752, Note_on_c, 0, 80, 45
2, 43846, Note_on_c, 0, 80, 0
2, 43848, Note_on_c, 0, 76, 45
2, 43880, Note_on_c, 0, 76, 0
2, 43944, Note_on_c, 0, 71, 45
2, 44200, Note_on_c, 0, 71, 0
2, 44232, Note_on_c, 0, 71, 45
2, 44326, Note_on_c, 0, 71, 0
2, 44328, Note_on_c, 0, 75, 45
2, 44374, Note_on_c, 0, 75, 0
2, 44376, Note_on_c, 0, 73, 45
2, 44422, Note_on_c, 0, 73, 0
2, 44424, Note_on_c, 0, 71, 45
2, 44456, Note_on_c, 0, 71, 0
2, 44520, Note_on_c, 0, 71, 45
2, 44776, Note_on_c, 0, 71, 0
2, 44808, Note_on_c, 0, 71, 46
2, 44902, Note_on_c, 0, 71, 0
2, 44904, Note_on_c, 0, 81, 46
2, 44998, Note_on_c, 0, 81, 0
2, 45000, Note_on_c, 0, 78, 46
2, 45032, Note_on_c, 0, 78, 0
2, 45096, Note_on_c, 0, 80, 46
2, 45352, Note_on_c, 0, 80, 0
2, 45384, Note_on_c, 0, 80, 48
2, 45478, Note_on_c, 0, 80, 0
2, 45480, Note_on_c, 0, 78, 48
2, 45574, Note_on_c, 0, 78, 0
2, 45576, Note_on_c, 0, 76, 48
2, 45608, Note_on_c, 0, 76, 0
2, 45672, Note_on_c, 0, 76, 48
2, 45928, Note_on_c, 0, 76, 0
2, 45960, Note_on_c, 0, 76, 51
2, 46054, Note_on_c, 0, 76, 0
2, 46056, Note_on_c, 0, 75, 52
2, 46150, Note_on_c, 0, 75, 0
2, 46152, Note_on_c, 0, 73, 53
2, 46184, Note_on_c, 0, 73, 0
2, 46248, Note_on_c, 0, 75, 54
2, 46272, Note_on_c, 0, 75, 0
2, 46272, Note_on_c, 0, 73, 54
2, 46342, Note_on_c, 0, 73, 0
2, 46344, Note_on_c, 0, 72, 55
2, 46376, Note_on_c, 0, 72, 0
2, 46440, Note_on_c, 0, 73, 56
2, 46472, Note_on_c, 0, 73, 0
2, 46536, Note_on_c, 0, 75, 57
2, 46560, Note_on_c, 0, 75, 0
2, 46560, Note_on_c, 0, 73, 57
2, 46630, Note_on_c, 0, 73, 0
2, 46632, Note_on_c, 0, 72, 58
2, 46664, Note_on_c, 0, 72, 0
2, 46728, Note_on_c, 0, 73, 59
2, 46760, Note_on_c, 0, 73, 0
2, 46824, Note_on_c, 0, 72, 60
2, 46846, Note_on_c, 0, 72, 0
2, 46848, Note_on_c, 0, 73, 60
2, 46870, Note_on_c, 0, 73, 0
2, 46872, Note_on_c, 0, 75, 60
2, 47080, Note_on_c, 0, 75, 0
2, 47112, Note_on_c, 0, 75, 60
2, 47272, Note_on_c, 0, 75, 0
2, 47304, Note_on_c, 0, 68, 60
2, 47336, Note_on_c, 0, 68, 0
2, 47400, Note_on_c, 0, 68, 60
2, 47656, Note_on_c, 0, 68, 0
2, 47688, Note_on_c, 0, 68, 60
2, 47782, Note_on_c, 0, 68, 0
2, 47784, Note_on_c, 0, 71, 60
2, 47830, Note_on_c, 0, 71, 0
2, 47832, Note_on_c, 0, 69, 60
2, 47878, Note_on_c, 0, 69, 0
2, 47880, Note_on_c, 0, 68, 60
2, 47912, Note_on_c, 0, 68, 0
2, 47976, Note_on_c, 0, 68, 60
2, 48232, Note_on_c, 0, 68, 0
2, 48264, Note_on_c, 0, 68, 60
2, 48358, Note_on_c, 0, 68, 0
2, 48360, Note_on_c, 0, 76, 60
2, 48454, Note_on_c, 0, 76, 0
2, 48456, Note_on_c, 0, 73, 60
2, 48488, Note_on_c, 0, 73, 0
2, 48552, Note_on_c, 0, 68, 60
2, 48808, Note_on_c, 0, 68, 0
2, 48840, Note_on_c, 0, 68, 60
2, 48934, Note_on_c, 0, 68, 0
2, 48936, Note_on_c, 0, 71, 60
2, 48982, Note_on_c, 0, 71, 0
2, 48984, Note_on_c, 0, 69, 60
2, 49030, Note_on_c, 0, 69, 0
2, 49032, Note_on_c, 0, 68, 60
2, 49064, Note_on_c, 0, 68, 0
2, 49128, Note_on_c, 0, 68, 60
2, 49384, Note_on_c, 0, 68, 0
2, 49416, Note_on_c, 0, 68, 60
2, 49510, Note_on_c, 0, 68, 0
2, 49512, Note_on_c, 0, 78, 60
2, 49606, Note_on_c, 0, 78, 0
2, 49608, Note_on_c, 0, 75, 60
2, 49640, Note_on_c, 0, 75, 0
2, 49704, Note_on_c, 0, 68, 60
2, 49728, Note_on_c, 0, 68, 0
2, 49728, Note_on_c, 0, 76, 60
2, 49960, Note_on_c, 0, 76, 0
2, 49992, Note_on_c, 0, 76, 60
2, 50086, Note_on_c, 0, 76, 0
2, 50088, Note_on_c, 0, 75, 60
2, 50182, Note_on_c, 0, 75, 0
2, 50184, Note_on_c, 0, 73, 60
2, 50216, Note_on_c, 0, 73, 0
2, 50280, Note_on_c, 0, 66, 60
2, 50280, Note_on_c, 0, 71, 60
2, 50536, Note_on_c, 0, 71, 0
2, 50568, Note_on_c, 0, 71, 60
2, 50662, Note_on_c, 0, 71, 0
2, 50664, Note_on_c, 0, 73, 60
2, 50696, Note_on_c, 0, 73, 0
2, 50760, Note_on_c, 0, 69, 60
2, 50808, Note_on_c, 0, 66, 0
2, 50854, Note_on_c, 0, 69, 0
2, 50856, Note_on_c, 0, 64, 60
2, 50856, Note_on_c, 0, 69, 60
2, 50950, Note_on_c, 0, 69, 0
2, 50952, Note_on_c, 0, 71, 60
2, 50984, Note_on_c, 0, 71, 0
2, 51048, Note_on_c, 0, 68, 60
2, 51112, Note_on_c, 0, 64, 0
2, 51142, Note_on_c, 0, 68, 0
2, 51144, Note_on_c, 0, 63, 60
2, 51144, Note_on_c, 0, 68, 60
2, 51238, Note_on_c, 0, 68, 0
2, 51240, Note_on_c, 0, 69, 60
2, 51272, Note_on_c, 0, 69, 0
2, 51336, Note_on_c, 0, 66, 60
2, 51400, Note_on_c, 0, 63, 0
2, 51430, Note_on_c, 0, 66, 0
2, 51432, Note_on_c, 0, 64, 60
2, 51478, Note_on_c, 0, 64, 0
2, 51480, Note_on_c, 0, 59, 60
2, 51526, Note_on_c, 0, 59, 0
2, 51528, Note_on_c, 0, 61, 60
2, 51574, Note_on_c, 0, 61, 0
2, 51576, Note_on_c, 0, 63, 60
2, 51622, Note_on_c, 0, 63, 0
2, 51624, Note_on_c, 0, 64, 60
2, 51670, Note_on_c, 0, 64, 0
2, 51672, Note_on_c, 0, 66, 60
2, 51718, Note_on_c, 0, 66, 0
2, 51720, Note_on_c, 0, 68, 60
2, 51766, Note_on_c, 0, 68, 0
2, 51768, Note_on_c, 0, 63, 60
2, 51814, Note_on_c, 0, 63, 0
2, 51816, Note_on_c, 0, 64, 60
2, 51862, Note_on_c, 0, 64, 0
2, 51864, Note_on_c, 0, 66, 60
2, 51910, Note_on_c, 0, 66, 0
2, 51912, Note_on_c, 0, 68, 60
2, 51958, Note_on_c, 0, 68, 0
2, 51960, Note_on_c, 0, 69, 60
2, 52006, Note_on_c, 0, 69, 0
2, 52008, Note_on_c, 0, 71, 60
2, 52054, Note_on_c, 0, 71, 0
2, 52056, Note_on_c, 0, 70, 60
2, 52102, Note_on_c, 0, 70, 0
2, 52104, Note_on_c, 0, 73, 60
2, 52150, Note_on_c, 0, 73, 0
2, 52152, Note_on_c, 0, 71, 60
2, 52198, Note_on_c, 0, 71, 0
2, 52200, Note_on_c, 0, 76, 60
2, 52246, Note_on_c, 0, 76, 0
2, 52248, Note_on_c, 0, 75, 60
2, 52294, Note_on_c, 0, 75, 0
2, 52296, Note_on_c, 0, 78, 60
2, 52342, Note_on_c, 0, 78, 0
2, 52344, Note_on_c, 0, 76, 60
2, 52390, Note_on_c, 0, 76, 0
2, 52392, Note_on_c, 0, 80, 60
2, 52438, Note_on_c, 0, 80, 0
2, 52440, Note_on_c, 0, 78, 60
2, 52486, Note_on_c, 0, 78, 0
2, 52488, Note_on_c, 0, 81, 60
2, 52534, Note_on_c, 0, 81, 0
2, 52536, Note_on_c, 0, 80, 60
2, 52582, Note_on_c, 0, 80, 0
2, 52584, Note_on_c, 0, 83, 60
2, 52630, Note_on_c, 0, 83, 0
2, 52632, Note_on_c, 0, 82, 60
2, 52678, Note_on_c, 0, 82, 0
2, 52680, Note_on_c, 0, 85, 60
2, 52726, Note_on_c, 0, 85, 0
2, 52728, Note_on_c, 0, 83, 60
2, 52774, Note_on_c, 0, 83, 0
2, 52776, Note_on_c, 0, 81, 60
2, 52822, Note_on_c, 0, 81, 0
2, 52824, Note_on_c, 0, 80, 60
2, 52870, Note_on_c, 0, 80, 0
2, 52872, Note_on_c, 0, 78, 60
2, 52918, Note_on_c, 0, 78, 0
2, 52920, Note_on_c, 0, 76, 60
2, 52966, Note_on_c, 0, 76, 0
2, 52968, Note_on_c, 0, 75, 60
2, 53014, Note_on_c, 0, 75, 0
2, 53016, Note_on_c, 0, 76, 60
2, 53062, Note_on_c, 0, 76, 0
2, 53064, Note_on_c, 0, 80, 60
2, 53110, Note_on_c, 0, 80, 0
2, 53112, Note_on_c, 0, 76, 60
2, 53144, Note_on_c, 0, 76, 0
2, 53160, Note_on_c, 0, 71, 60
2, 53206, Note_on_c, 0, 71, 0
2, 53208, Note_on_c, 0, 70, 60
2, 53254, Note_on_c, 0, 70, 0
2, 53256, Note_on_c, 0, 73, 60
2, 53302, Note_on_c, 0, 73, 0
2, 53304, Note_on_c, 0, 71, 60
2, 53350, Note_on_c, 0, 71, 0
2, 53352, Note_on_c, 0, 78, 60
2, 53398, Note_on_c, 0, 78, 0
2, 53400, Note_on_c, 0, 77, 60
2, 53446, Note_on_c, 0, 77, 0
2, 53448, Note_on_c, 0, 80, 60
2, 53494, Note_on_c, 0, 80, 0
2, 53496, Note_on_c, 0, 78, 60
2, 53542, Note_on_c, 0, 78, 0
2, 53544, Note_on_c, 0, 81, 60
2, 53590, Note_on_c, 0, 81, 0
2, 53592, Note_on_c, 0, 80, 60
2, 53638, Note_on_c, 0, 80, 0
2, 53640, Note_on_c, 0, 83, 60
2, 53686, Note_on_c, 0, 83, 0
2, 53688, Note_on_c, 0, 81, 60
2, 53734, Note_on_c, 0, 81, 0
2, 53736, Note_on_c, 0, 85, 60
2, 53782, Note_on_c, 0, 85, 0
2, 53784, Note_on_c, 0, 83, 60
2, 53830, Note_on_c, 0, 83, 0
2, 53832, Note_on_c, 0, 81, 60
2, 53878, Note_on_c, 0, 81, 0
2, 53880, Note_on_c, 0, 80, 60
2, 53926, Note_on_c, 0, 80, 0
2, 53928, Note_on_c, 0, 78, 60
2, 53974, Note_on_c, 0, 78, 0
2, 53976, Note_on_c, 0, 77, 60
2, 54022, Note_on_c, 0, 77, 0
2, 54024, Note_on_c, 0, 78, 60
2, 54070, Note_on_c, 0, 78, 0
2, 54072, Note_on_c, 0, 80, 60
2, 54118, Note_on_c, 0, 80, 0
2, 54120, Note_on_c, 0, 81, 60
2, 54166, Note_on_c, 0, 81, 0
2, 54168, Note_on_c, 0, 78, 60
2, 54214, Note_on_c, 0, 78, 0
2, 54216, Note_on_c, 0, 83, 60
2, 54262, Note_on_c, 0, 83, 0
2, 54264, Note_on_c, 0, 81, 60
2, 54296, Note_on_c, 0, 81, 0
2, 54312, Note_on_c, 0, 81, 60
2, 54358, Note_on_c, 0, 81, 0
2, 54360, Note_on_c, 0, 80, 61
2, 54406, Note_on_c, 0, 80, 0
2, 54408, Note_on_c, 0, 78, 62
2, 54454, Note_on_c, 0, 78, 0
2, 54456, Note_on_c, 0, 80, 63
2, 54502, Note_on_c, 0, 80, 0
2, 54504, Note_on_c, 0, 81, 64
2, 54550, Note_on_c, 0, 81, 0
2, 54552, Note_on_c, 0, 80, 65
2, 54584, Note_on_c, 0, 80, 0
2, 54600, Note_on_c, 0, 78, 66
2, 54646, Note_on_c, 0, 78, 0
2, 54648, Note_on_c, 0, 76, 67
2, 54694, Note_on_c, 0, 76, 0
2, 54696, Note_on_c, 0, 75, 95
2, 54742, Note_on_c, 0, 75, 0
2, 54744, Note_on_c, 0, 76, 96
2, 54790, Note_on_c, 0, 76, 0
2, 54792, Note_on_c, 0, 78, 70
2, 54838, Note_on_c, 0, 78, 0
2, 54840, Note_on_c, 0, 76, 71
2, 54872, Note_on_c, 0, 76, 0
2, 54888, Note_on_c, 0, 75, 72
2, 54934, Note_on_c, 0, 75, 0
2, 54936, Note_on_c, 0, 76, 73
2, 54982, Note_on_c, 0, 76, 0
2, 54984, Note_on_c, 0, 78, 103
2, 55030, Note_on_c, 0, 78, 0
2, 55032, Note_on_c, 0, 76, 105
2, 55078, Note_on_c, 0, 76, 0
2, 55080, Note_on_c, 0, 75, 76
2, 55126, Note_on_c, 0, 75, 0
2, 55128, Note_on_c, 0, 76, 78
2, 55174, Note_on_c, 0, 76, 0
2, 55176, Note_on_c, 0, 78, 80
2, 55222, Note_on_c, 0, 78, 0
2, 55224, Note_on_c, 0, 76, 82
2, 55270, Note_on_c, 0, 76, 0
2, 55272, Note_on_c, 0, 75, 117
2, 55318, Note_on_c, 0, 75, 0
2, 55320, Note_on_c, 0, 76, 120
2, 55366, Note_on_c, 0, 76, 0
2, 55368, Note_on_c, 0, 78, 88
2, 55414, Note_on_c, 0, 78, 0
2, 55416, Note_on_c, 0, 76, 90
2, 55448, Note_on_c, 0, 76, 0
2, 55464, Note_on_c, 0, 75, 92
2, 55510, Note_on_c, 0, 75, 0
2, 55512, Note_on_c, 0, 73, 92
2, 55558, Note_on_c, 0, 73, 0
2, 55560, Note_on_c, 0, 72, 127
2, 55606, Note_on_c, 0, 72, 0
2, 55608, Note_on_c, 0, 73, 127
2, 55654, Note_on_c, 0, 73, 0
2, 55656, Note_on_c, 0, 75, 92
2, 55702, Note_on_c, 0, 75, 0
2, 55704, Note_on_c, 0, 73, 92
2, 55750, Note_on_c, 0, 73, 0
2, 55752, Note_on_c, 0, 72, 92
2, 55798, Note_on_c, 0, 72, 0
2, 55800, Note_on_c, 0, 73, 92
2, 55846, Note_on_c, 0, 73, 0
2, 55848, Note_on_c, 0, 75, 127
2, 55894, Note_on_c, 0, 75, 0
2, 55896, Note_on_c, 0, 73, 127
2, 55942, Note_on_c, 0, 73, 0
2, 55944, Note_on_c, 0, 72, 92
2, 55990, Note_on_c, 0, 72, 0
2, 55992, Note_on_c, 0, 73, 92
2, 56024, Note_on_c, 0, 73, 0
2, 56040, Note_on_c, 0, 72, 92
2, 56062, Note_on_c, 0, 72, 0
2, 56064, Note_on_c, 0, 73, 92
2, 56086, Note_on_c, 0, 73, 0
2, 56088, Note_on_c, 0, 75, 60
2, 56296, Note_on_c, 0, 75, 0
2, 56328, Note_on_c, 0, 75, 60
2, 56488, Note_on_c, 0, 75, 0
2, 56520, Note_on_c, 0, 67, 60
2, 56566, Note_on_c, 0, 67, 0
2, 56568, Note_on_c, 0, 68, 60
2, 56614, Note_on_c, 0, 68, 0
2, 56616, Note_on_c, 0, 69, 60
2, 56662, Note_on_c, 0, 69, 0
2, 56664, Note_on_c, 0, 68, 60
2, 56710, Note_on_c, 0, 68, 0
2, 56712, Note_on_c, 0, 67, 60
2, 56758, Note_on_c, 0, 67, 0
2, 56760, Note_on_c, 0, 68, 60
2, 56806, Note_on_c, 0, 68, 0
2, 56808, Note_on_c, 0, 73, 60
2, 56854, Note_on_c, 0, 73, 0
2, 56856, Note_on_c, 0, 68, 60
2, 56902, Note_on_c, 0, 68, 0
2, 56904, Note_on_c, 0, 76, 60
2, 56950, Note_on_c, 0, 76, 0
2, 56952, Note_on_c, 0, 73, 60
2, 56998, Note_on_c, 0, 73, 0
2, 57000, Note_on_c, 0, 80, 60
2, 57046, Note_on_c, 0, 80, 0
2, 57048, Note_on_c, 0, 76, 60
2, 57094, Note_on_c, 0, 76, 0
2, 57096, Note_on_c, 0, 85, 60
2, 57142, Note_on_c, 0, 85, 0
2, 57144, Note_on_c, 0, 80, 60
2, 57190, Note_on_c, 0, 80, 0
2, 57192, Note_on_c, 0, 88, 60
2, 57238, Note_on_c, 0, 88, 0
2, 57240, Note_on_c, 0, 85, 60
2, 57286, Note_on_c, 0, 85, 0
2, 57288, Note_on_c, 0, 80, 60
2, 57334, Note_on_c, 0, 80, 0
2, 57336, Note_on_c, 0, 85, 60
2, 57382, Note_on_c, 0, 85, 0
2, 57384, Note_on_c, 0, 76, 60
2, 57430, Note_on_c, 0, 76, 0
2, 57432, Note_on_c, 0, 80, 60
2, 57478, Note_on_c, 0, 80, 0
2, 57480, Note_on_c, 0, 73, 60
2, 57526, Note_on_c, 0, 73, 0
2, 57528, Note_on_c, 0, 76, 60
2, 57574, Note_on_c, 0, 76, 0
2, 57576, Note_on_c, 0, 68, 60
2, 57622, Note_on_c, 0, 68, 0
2, 57624, Note_on_c, 0, 80, 60
2, 57670, Note_on_c, 0, 80, 0
2, 57672, Note_on_c, 0, 76, 60
2, 57718, Note_on_c, 0, 76, 0
2, 57720, Note_on_c, 0, 73, 60
2, 57752, Note_on_c, 0, 73, 0
2, 57768, Note_on_c, 0, 69, 60
2, 57814, Note_on_c, 0, 69, 0
2, 57816, Note_on_c, 0, 68, 60
2, 57862, Note_on_c, 0, 68, 0
2, 57864, Note_on_c, 0, 67, 60
2, 57910, Note_on_c, 0, 67, 0
2, 57912, Note_on_c, 0, 68, 60
2, 57958, Note_on_c, 0, 68, 0
2, 57960, Note_on_c, 0, 75, 60
2, 58006, Note_on_c, 0, 75, 0
2, 58008, Note_on_c, 0, 68, 60
2, 58054, Note_on_c, 0, 68, 0
2, 58056, Note_on_c, 0, 79, 60
2, 58102, Note_on_c, 0, 79, 0
2, 58104, Note_on_c, 0, 75, 60
2, 58150, Note_on_c, 0, 75, 0
2, 58152, Note_on_c, 0, 80, 60
2, 58198, Note_on_c, 0, 80, 0
2, 58200, Note_on_c, 0, 79, 60
2, 58246, Note_on_c, 0, 79, 0
2, 58248, Note_on_c, 0, 87, 60
2, 58294, Note_on_c, 0, 87, 0
2, 58296, Note_on_c, 0, 80, 60
2, 58342, Note_on_c, 0, 80, 0
2, 58344, Note_on_c, 0, 78, 60
2, 58390, Note_on_c, 0, 78, 0
2, 58392, Note_on_c, 0, 80, 60
2, 58438, Note_on_c, 0, 80, 0
2, 58440, Note_on_c, 0, 75, 60
2, 58486, Note_on_c, 0, 75, 0
2, 58488, Note_on_c, 0, 78, 60
2, 58534, Note_on_c, 0, 78, 0
2, 58536, Note_on_c, 0, 72, 60
2, 58582, Note_on_c, 0, 72, 0
2, 58584, Note_on_c, 0, 75, 60
2, 58630, Note_on_c, 0, 75, 0
2, 58632, Note_on_c, 0, 68, 60
2, 58678, Note_on_c, 0, 68, 0
2, 58680, Note_on_c, 0, 81, 60
2, 58726, Note_on_c, 0, 81, 0
2, 58728, Note_on_c, 0, 80, 60
2, 58774, Note_on_c, 0, 80, 0
2, 58776, Note_on_c, 0, 78, 60
2, 58822, Note_on_c, 0, 78, 0
2, 58824, Note_on_c, 0, 76, 60
2, 58870, Note_on_c, 0, 76, 0
2, 58872, Note_on_c, 0, 75, 60
2, 58918, Note_on_c, 0, 75, 0
2, 58920, Note_on_c, 0, 78, 60
2, 58966, Note_on_c, 0, 78, 0
2, 58968, Note_on_c, 0, 76, 60
2, 59014, Note_on_c, 0, 76, 0
2, 59016, Note_on_c, 0, 75, 60
2, 59062, Note_on_c, 0, 75, 0
2, 59064, Note_on_c, 0, 76, 60
2, 59110, Note_on_c, 0, 76, 0
2, 59112, Note_on_c, 0, 78, 60
2, 59158, Note_on_c, 0, 78, 0
2, 59160, Note_on_c, 0, 76, 60
2, 59206, Note_on_c, 0, 76, 0
2, 59208, Note_on_c, 0, 75, 60
2, 59254, Note_on_c, 0, 75, 0
2, 59256, Note_on_c, 0, 76, 60
2, 59302, Note_on_c, 0, 76, 0
2, 59304, Note_on_c, 0, 78, 84
2, 59350, Note_on_c, 0, 78, 0
2, 59352, Note_on_c, 0, 76, 84
2, 59398, Note_on_c, 0, 76, 0
2, 59400, Note_on_c, 0, 75, 60
2, 59446, Note_on_c, 0, 75, 0
2, 59448, Note_on_c, 0, 73, 60
2, 59494, Note_on_c, 0, 73, 0
2, 59496, Note_on_c, 0, 73, 60
2, 59542, Note_on_c, 0, 73, 0
2, 59544, Note_on_c, 0, 71, 60
2, 59590, Note_on_c, 0, 71, 0
2, 59592, Note_on_c, 0, 70, 60
2, 59638, Note_on_c, 0, 70, 0
2, 59640, Note_on_c, 0, 71, 60
2, 59686, Note_on_c, 0, 71, 0
2, 59688, Note_on_c, 0, 73, 84
2, 59734, Note_on_c, 0, 73, 0
2, 59736, Note_on_c, 0, 71, 84
2, 59768, Note_on_c, 0, 71, 0
2, 59784, Note_on_c, 0, 71, 60
2, 59830, Note_on_c, 0, 71, 0
2, 59832, Note_on_c, 0, 69, 60
2, 59878, Note_on_c, 0, 69, 0
2, 59880, Note_on_c, 0, 68, 60
2, 59926, Note_on_c, 0, 68, 0
2, 59928, Note_on_c, 0, 69, 60
2, 59974, Note_on_c, 0, 69, 0
2, 59976, Note_on_c, 0, 73, 84
2, 60022, Note_on_c, 0, 73, 0
2, 60024, Note_on_c, 0, 69, 84
2, 60056, Note_on_c, 0, 69, 0
2, 60072, Note_on_c, 0, 69, 60
2, 60118, Note_on_c, 0, 69, 0
2, 60120, Note_on_c, 0, 68, 60
2, 60166, Note_on_c, 0, 68, 0
2, 60168, Note_on_c, 0, 67, 60
2, 60214, Note_on_c, 0, 67, 0
2, 60216, Note_on_c, 0, 68, 60
2, 60262, Note_on_c, 0, 68, 0
2, 60264, Note_on_c, 0, 71, 84
2, 60310, Note_on_c, 0, 71, 0
2, 60312, Note_on_c, 0, 68, 84
2, 60344, Note_on_c, 0, 68, 0
2, 60360, Note_on_c, 0, 68, 60
2, 60406, Note_on_c, 0, 68, 0
2, 60408, Note_on_c, 0, 66, 60
2, 60454, Note_on_c, 0, 66, 0
2, 60456, Note_on_c, 0, 65, 60
2, 60502, Note_on_c, 0, 65, 0
2, 60504, Note_on_c, 0, 66, 84
2, 60550, Note_on_c, 0, 66, 0
2, 60552, Note_on_c, 0, 69, 84
2, 60598, Note_on_c, 0, 69, 0
2, 60600, Note_on_c, 0, 66, 60
2, 60632, Note_on_c, 0, 66, 0
2, 60648, Note_on_c, 0, 64, 60
2, 60694, Note_on_c, 0, 64, 0
2, 60696, Note_on_c, 0, 59, 59
2, 60742, Note_on_c, 0, 59, 0
2, 60744, Note_on_c, 0, 61, 58
2, 60790, Note_on_c, 0, 61, 0
2, 60792, Note_on_c, 0, 63, 57
2, 60838, Note_on_c, 0, 63, 0
2, 60840, Note_on_c, 0, 64, 56
2, 60886, Note_on_c, 0, 64, 0
2, 60888, Note_on_c, 0, 63, 55
2, 60934, Note_on_c, 0, 63, 0
2, 60936, Note_on_c, 0, 64, 54
2, 60982, Note_on_c, 0, 64, 0
2, 60984, Note_on_c, 0, 63, 53
2, 61030, Note_on_c, 0, 63, 0
2, 61032, Note_on_c, 0, 64, 52
2, 61078, Note_on_c, 0, 64, 0
2, 61080, Note_on_c, 0, 66, 51
2, 61126, Note_on_c, 0, 66, 0
2, 61128, Note_on_c, 0, 67, 49
2, 61174, Note_on_c, 0, 67, 0
2, 61176, Note_on_c, 0, 69, 47
2, 61222, Note_on_c, 0, 69, 0
2, 61224, Note_on_c, 0, 71, 45
2, 61270, Note_on_c, 0, 71, 0
2, 61272, Note_on_c, 0, 67, 45
2, 61318, Note_on_c, 0, 67, 0
2, 61320, Note_on_c, 0, 64, 45
2, 61366, Note_on_c, 0, 64, 0
2, 61368, Note_on_c, 0, 67, 45
2, 61414, Note_on_c, 0, 67, 0
2, 61416, Note_on_c, 0, 71, 45
2, 61462, Note_on_c, 0, 71, 0
2, 61464, Note_on_c, 0, 67, 45
2, 61510, Note_on_c, 0, 67, 0
2, 61512, Note_on_c, 0, 64, 45
2, 61558, Note_on_c, 0, 64, 0
2, 61560, Note_on_c, 0, 67, 45
2, 61606, Note_on_c, 0, 67, 0
2, 61608, Note_on_c, 0, 71, 45
2, 61654, Note_on_c, 0, 71, 0
2, 61656, Note_on_c, 0, 67, 45
2, 61702, Note_on_c, 0, 67, 0
2, 61704, Note_on_c, 0, 64, 45
2, 61750, Note_on_c, 0, 64, 0
2, 61752, Note_on_c, 0, 67, 45
2, 61798, Note_on_c, 0, 67, 0
2, 61800, Note_on_c, 0, 71, 45
2, 61846, Note_on_c, 0, 71, 0
2, 61848, Note_on_c, 0, 67, 45
2, 61894, Note_on_c, 0, 67, 0
2, 61896, Note_on_c, 0, 64, 45
2, 61942, Note_on_c, 0, 64, 0
2, 61944, Note_on_c, 0, 67, 45
2, 61990, Note_on_c, 0, 67, 0
2, 61992, Note_on_c, 0, 71, 45
2, 62038, Note_on_c, 0, 71, 0
2, 62040, Note_on_c, 0, 67, 45
2, 62086, Note_on_c, 0, 67, 0
2, 62088, Note_on_c, 0, 64, 45
2, 62134, Note_on_c, 0, 64, 0
2, 62136, Note_on_c, 0, 67, 45
2, 62182, Note_on_c, 0, 67, 0
2, 62184, Note_on_c, 0, 71, 45
2, 62230, Note_on_c, 0, 71, 0
2, 62232, Note_on_c, 0, 67, 45
2, 62278, Note_on_c, 0, 67, 0
2, 62280, Note_on_c, 0, 64, 45
2, 62326, Note_on_c, 0, 64, 0
2, 62328, Note_on_c, 0, 67, 45
2, 62374, Note_on_c, 0, 67, 0
2, 62376, Note_on_c, 0, 71, 45
2, 62422, Note_on_c, 0, 71, 0
2, 62424, Note_on_c, 0, 66, 45
2, 62470, Note_on_c, 0, 66, 0
2, 62472, Note_on_c, 0, 64, 45
2, 62518, Note_on_c, 0, 64, 0
2, 62520, Note_on_c, 0, 66, 45
2, 62566, Note_on_c, 0, 66, 0
2, 62568, Note_on_c, 0, 71, 45
2, 62614, Note_on_c, 0, 71, 0
2, 62616, Note_on_c, 0, 66, 45
2, 62662, Note_on_c, 0, 66, 0
2, 62664, Note_on_c, 0, 64, 45
2, 62710, Note_on_c, 0, 64, 0
2, 62712, Note_on_c, 0, 66, 45
2, 62758, Note_on_c, 0, 66, 0
2, 62760, Note_on_c, 0, 71, 45
2, 62806, Note_on_c, 0, 71, 0
2, 62808, Note_on_c, 0, 66, 45
2, 62854, Note_on_c, 0, 66, 0
2, 62856, Note_on_c, 0, 64, 45
2, 62902, Note_on_c, 0, 64, 0
2, 62904, Note_on_c, 0, 66, 45
2, 62950, Note_on_c, 0, 66, 0
2, 62952, Note_on_c, 0, 71, 45
2, 62998, Note_on_c, 0, 71, 0
2, 63000, Note_on_c, 0, 66, 45
2, 63046, Note_on_c, 0, 66, 0
2, 63048, Note_on_c, 0, 63, 45
2, 63094, Note_on_c, 0, 63, 0
2, 63096, Note_on_c, 0, 66, 45
2, 63142, Note_on_c, 0, 66, 0
2, 63144, Note_on_c, 0, 71, 45
2, 63190, Note_on_c, 0, 71, 0
2, 63192, Note_on_c, 0, 66, 45
2, 63238, Note_on_c, 0, 66, 0
2, 63240, Note_on_c, 0, 63, 45
2, 63286, Note_on_c, 0, 63, 0
2, 63288, Note_on_c, 0, 66, 45
2, 63334, Note_on_c, 0, 66, 0
2, 63336, Note_on_c, 0, 71, 45
2, 63382, Note_on_c, 0, 71, 0
2, 63384, Note_on_c, 0, 66, 45
2, 63430, Note_on_c, 0, 66, 0
2, 63432, Note_on_c, 0, 63, 45
2, 63478, Note_on_c, 0, 63, 0
2, 63480, Note_on_c, 0, 66, 45
2, 63526, Note_on_c, 0, 66, 0
2, 63528, Note_on_c, 0, 71, 45
2, 63574, Note_on_c, 0, 71, 0
2, 63576, Note_on_c, 0, 68, 46
2, 63622, Note_on_c, 0, 68, 0
2, 63624, Note_on_c, 0, 64, 48
2, 63670, Note_on_c, 0, 64, 0
2, 63672, Note_on_c, 0, 68, 50
2, 63718, Note_on_c, 0, 68, 0
2, 63720, Note_on_c, 0, 71, 52
2, 63766, Note_on_c, 0, 71, 0
2, 63768, Note_on_c, 0, 68, 54
2, 63814, Note_on_c, 0, 68, 0
2, 63816, Note_on_c, 0, 64, 56
2, 63862, Note_on_c, 0, 64, 0
2, 63864, Note_on_c, 0, 68, 58
2, 63910, Note_on_c, 0, 68, 0
2, 63912, Note_on_c, 0, 71, 60
2, 63958, Note_on_c, 0, 71, 0
2, 63960, Note_on_c, 0, 68, 62
2, 64006, Note_on_c, 0, 68, 0
2, 64008, Note_on_c, 0, 64, 64
2, 64054, Note_on_c, 0, 64, 0
2, 64056, Note_on_c, 0, 68, 66
2, 64102, Note_on_c, 0, 68, 0
2, 64104, Note_on_c, 0, 72, 68
2, 64150, Note_on_c, 0, 72, 0
2, 64152, Note_on_c, 0, 69, 70
2, 64198, Note_on_c, 0, 69, 0
2, 64200, Note_on_c, 0, 64, 72
2, 64246, Note_on_c, 0, 64, 0
2, 64248, Note_on_c, 0, 69, 74
2, 64294, Note_on_c, 0, 69, 0
2, 64296, Note_on_c, 0, 72, 76
2, 64342, Note_on_c, 0, 72, 0
2, 64344, Note_on_c, 0, 69, 78
2, 64390, Note_on_c, 0, 69, 0
2, 64392, Note_on_c, 0, 64, 80
2, 64438, Note_on_c, 0, 64, 0
2, 64440, Note_on_c, 0, 69, 82
2, 64486, Note_on_c, 0, 69, 0
2, 64488, Note_on_c, 0, 72, 84
2, 64534, Note_on_c, 0, 72, 0
2, 64536, Note_on_c, 0, 69, 86
2, 64582, Note_on_c, 0, 69, 0
2, 64584, Note_on_c, 0, 64, 88
2, 64630, Note_on_c, 0, 64, 0
2, 64632, Note_on_c, 0, 69, 90
2, 64678, Note_on_c, 0, 69, 0
2, 64680, Note_on_c, 0, 72, 92
2, 64726, Note_on_c, 0, 72, 0
2, 64728, Note_on_c, 0, 69, 92
2, 64774, Note_on_c, 0, 69, 0
2, 64776, Note_on_c, 0, 66, 92
2, 64822, Note_on_c, 0, 66, 0
2, 64824, Note_on_c, 0, 69, 92
2, 64870, Note_on_c, 0, 69, 0
2, 64872, Note_on_c, 0, 72, 92
2, 64918, Note_on_c, 0, 72, 0
2, 64920, Note_on_c, 0, 69, 92
2, 64966, Note_on_c, 0, 69, 0
2, 64968, Note_on_c, 0, 66, 92
2, 65014, Note_on_c, 0, 66, 0
2, 65016, Note_on_c, 0, 69, 92
2, 65062, Note_on_c, 0, 69, 0
2, 65064, Note_on_c, 0, 60, 92
2, 65110, Note_on_c, 0, 60, 0
2, 65112, Note_on_c, 0, 66, 92
2, 65158, Note_on_c, 0, 66, 0
2, 65160, Note_on_c, 0, 57, 92
2, 65206, Note_on_c, 0, 57, 0
2, 65208, Note_on_c, 0, 60, 92
2, 65254, Note_on_c, 0, 60, 0
2, 65256, Note_on_c, 0, 54, 92
2, 65302, Note_on_c, 0, 54, 0
2, 65304, Note_on_c, 0, 57, 92
2, 65350, Note_on_c, 0, 57, 0
2, 65352, Note_on_c, 0, 50, 92
2, 65398, Note_on_c, 0, 50, 0
2, 65400, Note_on_c, 0, 54, 92
2, 65446, Note_on_c, 0, 54, 0
2, 65448, Note_on_c, 0, 57, 92
2, 65494, Note_on_c, 0, 57, 0
2, 65496, Note_on_c, 0, 54, 92
2, 65542, Note_on_c, 0, 54, 0
2, 65544, Note_on_c, 0, 60, 92
2, 65590, Note_on_c, 0, 60, 0
2, 65592, Note_on_c, 0, 57, 92
2, 65638, Note_on_c, 0, 57, 0
2, 65640, Note_on_c, 0, 66, 92
2, 65686, Note_on_c, 0, 66, 0
2, 65688, Note_on_c, 0, 60, 92
2, 65734, Note_on_c, 0, 60, 0
2, 65736, Note_on_c, 0, 69, 92
2, 65782, Note_on_c, 0, 69, 0
2, 65784, Note_on_c, 0, 66, 92
2, 65830, Note_on_c, 0, 66, 0
2, 65832, Note_on_c, 0, 72, 92
2, 65878, Note_on_c, 0, 72, 0
2, 65880, Note_on_c, 0, 69, 92
2, 65926, Note_on_c, 0, 69, 0
2, 65928, Note_on_c, 0, 66, 92
2, 65974, Note_on_c, 0, 66, 0
2, 65976, Note_on_c, 0, 69, 92
2, 66022, Note_on_c, 0, 69, 0
2, 66024, Note_on_c, 0, 60, 92
2, 66070, Note_on_c, 0, 60, 0
2, 66072, Note_on_c, 0, 66, 92
2, 66118, Note_on_c, 0, 66, 0
2, 66120, Note_on_c, 0, 57, 92
2, 66166, Note_on_c, 0, 57, 0
2, 66168, Note_on_c, 0, 60, 92
2, 66214, Note_on_c, 0, 60, 0
2, 66216, Note_on_c, 0, 66, 92
2, 66262, Note_on_c, 0, 66, 0
2, 66264, Note_on_c, 0, 60, 92
2, 66310, Note_on_c, 0, 60, 0
2, 66312, Note_on_c, 0, 69, 92
2, 66358, Note_on_c, 0, 69, 0
2, 66360, Note_on_c, 0, 66, 92
2, 66406, Note_on_c, 0, 66, 0
2, 66408, Note_on_c, 0, 72, 92
2, 66454, Note_on_c, 0, 72, 0
2, 66456, Note_on_c, 0, 69, 92
2, 66502, Note_on_c, 0, 69, 0
2, 66504, Note_on_c, 0, 78, 92
2, 66550, Note_on_c, 0, 78, 0
2, 66552, Note_on_c, 0, 72, 92
2, 66598, Note_on_c, 0, 72, 0
2, 66600, Note_on_c, 0, 81, 92
2, 66646, Note_on_c, 0, 81, 0
2, 66648, Note_on_c, 0, 78, 92
2, 66694, Note_on_c, 0, 78, 0
2, 66696, Note_on_c, 0, 72, 92
2, 66742, Note_on_c, 0, 72, 0
2, 66744, Note_on_c, 0, 78, 92
2, 66790, Note_on_c, 0, 78, 0
2, 66792, Note_on_c, 0, 69, 92
2, 66838, Note_on_c, 0, 69, 0
2, 66840, Note_on_c, 0, 72, 92
2, 66886, Note_on_c, 0, 72, 0
2, 66888, Note_on_c, 0, 78, 92
2, 66934, Note_on_c, 0, 78, 0
2, 66936, Note_on_c, 0, 72, 92
2, 66982, Note_on_c, 0, 72, 0
2, 66984, Note_on_c, 0, 81, 92
2, 67030, Note_on_c, 0, 81, 0
2, 67032, Note_on_c, 0, 78, 92
2, 67078, Note_on_c, 0, 78, 0
2, 67080, Note_on_c, 0, 84, 92
2, 67126, Note_on_c, 0, 84, 0
2, 67128, Note_on_c, 0, 81, 92
2, 67174, Note_on_c, 0, 81, 0
2, 67176, Note_on_c, 0, 78, 92
2, 67222, Note_on_c, 0, 78, 0
2, 67224, Note_on_c, 0, 81, 92
2, 67270, Note_on_c, 0, 81, 0
2, 67272, Note_on_c, 0, 72, 92
2, 67318, Note_on_c, 0, 72, 0
2, 67320, Note_on_c, 0, 78, 92
2, 67366, Note_on_c, 0, 78, 0
2, 67368, Note_on_c, 0, 69, 92
2, 67414, Note_on_c, 0, 69, 0
2, 67416, Note_on_c, 0, 72, 92
2, 67462, Note_on_c, 0, 72, 0
2, 67464, Note_on_c, 0, 78, 92
2, 67510, Note_on_c, 0, 78, 0
2, 67512, Note_on_c, 0, 72, 92
2, 67558, Note_on_c, 0, 72, 0
2, 67560, Note_on_c, 0, 81, 92
2, 67606, Note_on_c, 0, 81, 0
2, 67608, Note_on_c, 0, 78, 92
2, 67654, Note_on_c, 0, 78, 0
2, 67656, Note_on_c, 0, 84, 92
2, 67702, Note_on_c, 0, 84, 0
2, 67704, Note_on_c, 0, 81, 92
2, 67750, Note_on_c, 0, 81, 0
2, 67752, Note_on_c, 0, 78, 92
2, 67798, Note_on_c, 0, 78, 0
2, 67800, Note_on_c, 0, 81, 92
2, 67846, Note_on_c, 0, 81, 0
2, 67848, Note_on_c, 0, 72, 127
2, 67894, Note_on_c, 0, 72, 0
2, 67896, Note_on_c, 0, 78, 127
2, 67942, Note_on_c, 0, 78, 0
2, 67944, Note_on_c, 0, 69, 92
2, 67990, Note_on_c, 0, 69, 0
2, 67992, Note_on_c, 0, 72, 92
2, 68038, Note_on_c, 0, 72, 0
2, 68040, Note_on_c, 0, 78, 92
2, 68086, Note_on_c, 0, 78, 0
2, 68088, Note_on_c, 0, 72, 92
2, 68134, Note_on_c, 0, 72, 0
2, 68136, Note_on_c, 0, 81, 108
2, 68182, Note_on_c, 0, 81, 0
2, 68184, Note_on_c, 0, 78, 108
2, 68230, Note_on_c, 0, 78, 0
2, 68232, Note_on_c, 0, 84, 108
2, 68278, Note_on_c, 0, 84, 0
2, 68280, Note_on_c, 0, 81, 108
2, 68326, Note_on_c, 0, 81, 0
2, 68328, Note_on_c, 0, 88, 108
2, 68374, Note_on_c, 0, 88, 0
2, 68376, Note_on_c, 0, 86, 108
2, 68422, Note_on_c, 0, 86, 0
2, 68424, Note_on_c, 0, 84, 108
2, 68470, Note_on_c, 0, 84, 0
2, 68472, Note_on_c, 0, 83, 108
2, 68518, Note_on_c, 0, 83, 0
2, 68520, Note_on_c, 0, 81, 108
2, 68566, Note_on_c, 0, 81, 0
2, 68568, Note_on_c, 0, 79, 108
2, 68614, Note_on_c, 0, 79, 0
2, 68616, Note_on_c, 0, 78, 108
2, 68662, Note_on_c, 0, 78, 0
2, 68664, Note_on_c, 0, 81, 108
2, 68710, Note_on_c, 0, 81, 0
2, 68712, Note_on_c, 0, 84, 108
2, 68758, Note_on_c, 0, 84, 0
2, 68760, Note_on_c, 0, 83, 107
2, 68806, Note_on_c, 0, 83, 0
2, 68808, Note_on_c, 0, 81, 106
2, 68854, Note_on_c, 0, 81, 0
2, 68856, Note_on_c, 0, 79, 104
2, 68902, Note_on_c, 0, 79, 0
2, 68904, Note_on_c, 0, 78, 102
2, 68950, Note_on_c, 0, 78, 0
2, 68952, Note_on_c, 0, 76, 100
2, 68998, Note_on_c, 0, 76, 0
2, 69000, Note_on_c, 0, 74, 98
2, 69046, Note_on_c, 0, 74, 0
2, 69048, Note_on_c, 0, 78, 96
2, 69094, Note_on_c, 0, 78, 0
2, 69096, Note_on_c, 0, 81, 94
2, 69142, Note_on_c, 0, 81, 0
2, 69144, Note_on_c, 0, 79, 92
2, 69190, Note_on_c, 0, 79, 0
2, 69192, Note_on_c, 0, 78, 90
2, 69214, Note_on_c, 0, 78, 0
2, 69216, Note_on_c, 0, 76, 89
2, 69238, Note_on_c, 0, 76, 0
2, 69240, Note_on_c, 0, 74, 88
2, 69262, Note_on_c, 0, 74, 0
2, 69264, Note_on_c, 0, 73, 87
2, 69286, Note_on_c, 0, 73, 0
2, 69288, Note_on_c, 0, 76, 86
2, 69336, Note_on_c, 0, 76, 0
2, 69480, Note_on_c, 0, 74, 78
2, 69528, Note_on_c, 0, 74, 0
2, 69672, Note_on_c, 0, 72, 70
2, 69720, Note_on_c, 0, 72, 0
2, 69864, Note_on_c, 0, 71, 62
2, 70024, Note_on_c, 0, 71, 0
2, 70248, Note_on_c, 0, 70, 45
2, 70584, Note_on_c, 0, 70, 0
2, 70632, Note_on_c, 0, 71, 45
2, 70792, Note_on_c, 0, 71, 0
2, 70824, Note_on_c, 0, 72, 45
2, 70848, Note_on_c, 0, 74, 45
2, 70870, Note_on_c, 0, 74, 0
2, 70872, Note_on_c, 0, 76, 45
2, 70894, Note_on_c, 0, 76, 0
2, 70896, Note_on_c, 0, 74, 45
2, 70918, Note_on_c, 0, 74, 0
2, 70920, Note_on_c, 0, 76, 45
2, 70942, Note_on_c, 0, 76, 0
2, 70944, Note_on_c, 0, 74, 45
2, 70966, Note_on_c, 0, 72, 0
2, 70966, Note_on_c, 0, 74, 0
2, 70968, Note_on_c, 0, 71, 45
2, 70990, Note_on_c, 0, 71, 0
2, 70992, Note_on_c, 0, 72, 45
2, 71014, Note_on_c, 0, 72, 0
2, 71016, Note_on_c, 0, 74, 45
2, 71208, Note_on_c, 0, 74, 0
2, 71208, Note_on_c, 0, 74, 45
2, 71230, Note_on_c, 0, 74, 0
2, 71232, Note_on_c, 0, 73, 45
2, 71254, Note_on_c, 0, 73, 0
2, 71256, Note_on_c, 0, 76, 45
2, 71278, Note_on_c, 0, 76, 0
2, 71280, Note_on_c, 0, 74, 45
2, 71302, Note_on_c, 0, 74, 0
2, 71304, Note_on_c, 0, 72, 45
2, 71326, Note_on_c, 0, 72, 0
2, 71328, Note_on_c, 0, 71, 45
2, 71350, Note_on_c, 0, 71, 0
2, 71352, Note_on_c, 0, 69, 45
2, 71374, Note_on_c, 0, 69, 0
2, 71376, Note_on_c, 0, 67, 45
2, 71398, Note_on_c, 0, 67, 0
2, 71400, Note_on_c, 0, 60, 45
2, 71400, Note_on_c, 0, 66, 45
2, 71432, Note_on_c, 0, 60, 0
2, 71432, Note_on_c, 0, 66, 0
2, 71568, Note_on_c, 0, 62, 45
2, 71592, Note_on_c, 0, 62, 0
2, 71592, Note_on_c, 0, 59, 45
2, 71592, Note_on_c, 0, 67, 45
2, 71624, Note_on_c, 0, 59, 0
2, 71624, Note_on_c, 0, 67, 0
2, 71760, Note_on_c, 0, 62, 45
2, 71776, Note_on_c, 0, 62, 0
2, 71784, Note_on_c, 0, 67, 45
2, 71784, Note_on_c, 0, 71, 45
2, 71878, Note_on_c, 0, 67, 0
2, 71880, Note_on_c, 0, 62, 45
2, 71944, Note_on_c, 0, 71, 0
2, 71974, Note_on_c, 0, 62, 0
2, 71976, Note_on_c, 0, 66, 45
2, 71976, Note_on_c, 0, 69, 45
2, 72008, Note_on_c, 0, 66, 0
2, 72008, Note_on_c, 0, 69, 0
2, 72072, Note_on_c, 0, 62, 45
2, 72104, Note_on_c, 0, 62, 0
2, 72168, Note_on_c, 0, 66, 45
2, 72168, Note_on_c, 0, 71, 45
2, 72262, Note_on_c, 0, 66, 0
2, 72264, Note_on_c, 0, 63, 45
2, 72328, Note_on_c, 0, 71, 0
2, 72358, Note_on_c, 0, 63, 0
2, 72360, Note_on_c, 0, 67, 45
2, 72360, Note_on_c, 0, 71, 45
2, 72382, Note_on_c, 0, 71, 0
2, 72384, Note_on_c, 0, 70, 45
2, 72406, Note_on_c, 0, 70, 0
2, 72408, Note_on_c, 0, 72, 45
2, 72430, Note_on_c, 0, 72, 0
2, 72432, Note_on_c, 0, 71, 45
2, 72454, Note_on_c, 0, 67, 0
2, 72454, Note_on_c, 0, 71, 0
2, 72456, Note_on_c, 0, 69, 45
2, 72478, Note_on_c, 0, 69, 0
2, 72480, Note_on_c, 0, 67, 45
2, 72502, Note_on_c, 0, 67, 0
2, 72504, Note_on_c, 0, 66, 45
2, 72526, Note_on_c, 0, 66, 0
2, 72528, Note_on_c, 0, 64, 45
2, 72550, Note_on_c, 0, 64, 0
2, 72552, Note_on_c, 0, 64, 45
2, 72552, Note_on_c, 0, 69, 45
2, 72646, Note_on_c, 0, 64, 0
2, 72648, Note_on_c, 0, 61, 45
2, 72712, Note_on_c, 0, 69, 0
2, 72742, Note_on_c, 0, 61, 0
2, 72744, Note_on_c, 0, 66, 45
2, 72744, Note_on_c, 0, 69, 45
2, 72766, Note_on_c, 0, 69, 0
2, 72768, Note_on_c, 0, 68, 45
2, 72790, Note_on_c, 0, 68, 0
2, 72792, Note_on_c, 0, 71, 45
2, 72814, Note_on_c, 0, 71, 0
2, 72816, Note_on_c, 0, 69, 45
2, 72838, Note_on_c, 0, 66, 0
2, 72838, Note_on_c, 0, 69, 0
2, 72840, Note_on_c, 0, 67, 45
2, 72862, Note_on_c, 0, 67, 0
2, 72864, Note_on_c, 0, 66, 45
2, 72886, Note_on_c, 0, 66, 0
2, 72888, Note_on_c, 0, 64, 45
2, 72910, Note_on_c, 0, 64, 0
2, 72912, Note_on_c, 0, 62, 45
2, 72928, Note_on_c, 0, 62, 0
2, 72936, Note_on_c, 0, 62, 45
2, 72936, Note_on_c, 0, 66, 45
2, 73096, Note_on_c, 0, 62, 0
2, 73096, Note_on_c, 0, 66, 0
2, 73128, Note_on_c, 0, 61, 45
2, 73128, Note_on_c, 0, 64, 45
2, 73270, Note_on_c, 0, 64, 0
2, 73272, Note_on_c, 0, 66, 45
2, 73288, Note_on_c, 0, 61, 0
2, 73318, Note_on_c, 0, 66, 0
2, 73320, Note_on_c, 0, 62, 45
2, 73352, Note_on_c, 0, 62, 0
2, 73368, Note_on_c, 0, 64, 46
2, 73400, Note_on_c, 0, 64, 0
2, 73416, Note_on_c, 0, 66, 48
2, 73448, Note_on_c, 0, 66, 0
2, 73464, Note_on_c, 0, 67, 50
2, 73496, Note_on_c, 0, 67, 0
2, 73512, Note_on_c, 0, 68, 52
2, 73544, Note_on_c, 0, 68, 0
2, 73560, Note_on_c, 0, 69, 54
2, 73592, Note_on_c, 0, 69, 0
2, 73608, Note_on_c, 0, 70, 56
2, 73640, Note_on_c, 0, 70, 0
2, 73656, Note_on_c, 0, 71, 58
2, 73688, Note_on_c, 0, 71, 0
2, 73704, Note_on_c, 0, 69, 60
2, 73704, Note_on_c, 0, 72, 60
2, 73798, Note_on_c, 0, 69, 0
2, 73800, Note_on_c, 0, 62, 60
2, 73864, Note_on_c, 0, 72, 0
2, 73894, Note_on_c, 0, 62, 0
2, 73896, Note_on_c, 0, 67, 60
2, 73896, Note_on_c, 0, 71, 60
2, 73990, Note_on_c, 0, 67, 0
2, 73992, Note_on_c, 0, 62, 60
2, 74056, Note_on_c, 0, 71, 0
2, 74086, Note_on_c, 0, 62, 0
2, 74088, Note_on_c, 0, 60, 60
2, 74088, Note_on_c, 0, 69, 60
2, 74182, Note_on_c, 0, 60, 0
2, 74184, Note_on_c, 0, 62, 60
2, 74248, Note_on_c, 0, 69, 0
2, 74278, Note_on_c, 0, 62, 0
2, 74280, Note_on_c, 0, 59, 60
2, 74280, Note_on_c, 0, 67, 60
2, 74374, Note_on_c, 0, 59, 0
2, 74376, Note_on_c, 0, 62, 60
2, 74440, Note_on_c, 0, 67, 0
2, 74470, Note_on_c, 0, 62, 0
2, 74472, Note_on_c, 0, 62, 60
2, 74494, Note_on_c, 0, 62, 0
2, 74496, Note_on_c, 0, 64, 60
2, 74518, Note_on_c, 0, 64, 0
2, 74520, Note_on_c, 0, 66, 60
2, 74542, Note_on_c, 0, 66, 0
2, 74544, Note_on_c, 0, 67, 60
2, 74566, Note_on_c, 0, 67, 0
2, 74568, Note_on_c, 0, 69, 60
2, 74590, Note_on_c, 0, 69, 0
2, 74592, Note_on_c, 0, 71, 60
2, 74614, Note_on_c, 0, 71, 0
2, 74616, Note_on_c, 0, 72, 60
2, 74638, Note_on_c, 0, 72, 0
2, 74640, Note_on_c, 0, 73, 60
2, 74662, Note_on_c, 0, 73, 0
2, 74664, Note_on_c, 0, 74, 60
2, 74686, Note_on_c, 0, 74, 0
2, 74688, Note_on_c, 0, 76, 60
2, 74710, Note_on_c, 0, 76, 0
2, 74712, Note_on_c, 0, 78, 60
2, 74734, Note_on_c, 0, 78, 0
2, 74736, Note_on_c, 0, 79, 60
2, 74758, Note_on_c, 0, 79, 0
2, 74760, Note_on_c, 0, 81, 60
2, 74782, Note_on_c, 0, 81, 0
2, 74784, Note_on_c, 0, 83, 60
2, 74806, Note_on_c, 0, 83, 0
2, 74808, Note_on_c, 0, 84, 60
2, 74830, Note_on_c, 0, 84, 0
2, 74832, Note_on_c, 0, 85, 60
2, 74854, Note_on_c, 0, 85, 0
2, 74856, Note_on_c, 0, 86, 60
2, 74888, Note_on_c, 0, 86, 0
2, 74952, Note_on_c, 0, 62, 60
2, 74984, Note_on_c, 0, 62, 0
2, 75048, Note_on_c, 0, 62, 60
2, 75080, Note_on_c, 0, 62, 0
2, 75144, Note_on_c, 0, 62, 60
2, 75176, Note_on_c, 0, 62, 0
2, 75240, Note_on_c, 0, 71, 60
2, 75240, Note_on_c, 0, 74, 60
2, 75334, Note_on_c, 0, 71, 0
2, 75336, Note_on_c, 0, 62, 60
2, 75400, Note_on_c, 0, 74, 0
2, 75430, Note_on_c, 0, 62, 0
2, 75432, Note_on_c, 0, 69, 60
2, 75432, Note_on_c, 0, 72, 60
2, 75526, Note_on_c, 0, 69, 0
2, 75528, Note_on_c, 0, 62, 60
2, 75592, Note_on_c, 0, 72, 0
2, 75622, Note_on_c, 0, 62, 0
2, 75624, Note_on_c, 0, 67, 60
2, 75624, Note_on_c, 0, 71, 60
2, 75718, Note_on_c, 0, 67, 0
2, 75720, Note_on_c, 0, 62, 60
2, 75784, Note_on_c, 0, 71, 0
2, 75814, Note_on_c, 0, 62, 0
2, 75816, Note_on_c, 0, 60, 60
2, 75816, Note_on_c, 0, 69, 60
2, 75910, Note_on_c, 0, 60, 0
2, 75912, Note_on_c, 0, 62, 60
2, 75976, Note_on_c, 0, 69, 0
2, 76006, Note_on_c, 0, 62, 0
2, 76008, Note_on_c, 0, 55, 60
2, 76030, Note_on_c, 0, 55, 0
2, 76032, Note_on_c, 0, 57, 60
2, 76054, Note_on_c, 0, 57, 0
2, 76056, Note_on_c, 0, 59, 60
2, 76078, Note_on_c, 0, 59, 0
2, 76080, Note_on_c, 0, 60, 60
2, 76102, Note_on_c, 0, 60, 0
2, 76104, Note_on_c, 0, 62, 60
2, 76126, Note_on_c, 0, 62, 0
2, 76128, Note_on_c, 0, 64, 60
2, 76150, Note_on_c, 0, 64, 0
2, 76152, Note_on_c, 0, 65, 60
2, 76174, Note_on_c, 0, 65, 0
2, 76176, Note_on_c, 0, 66, 60
2, 76198, Note_on_c, 0, 66, 0
2, 76200, Note_on_c, 0, 67, 60
2, 76222, Note_on_c, 0, 67, 0
2, 76224, Note_on_c, 0, 69, 60
2, 76246, Note_on_c, 0, 69, 0
2, 76248, Note_on_c, 0, 71, 60
2, 76270, Note_on_c, 0, 71, 0
2, 76272, Note_on_c, 0, 72, 60
2, 76294, Note_on_c, 0, 72, 0
2, 76296, Note_on_c, 0, 74, 60
2, 76318, Note_on_c, 0, 74, 0
2, 76320, Note_on_c, 0, 76, 60
2, 76342, Note_on_c, 0, 76, 0
2, 76344, Note_on_c, 0, 77, 60
2, 76366, Note_on_c, 0, 77, 0
2, 76368, Note_on_c, 0, 78, 60
2, 76390, Note_on_c, 0, 78, 0
2, 76392, Note_on_c, 0, 79, 60
2, 76424, Note_on_c, 0, 79, 0
2, 76440, Note_on_c, 0, 83, 60
2, 76472, Note_on_c, 0, 83, 0
2, 76488, Note_on_c, 0, 81, 60
2, 76520, Note_on_c, 0, 81, 0
2, 76536, Note_on_c, 0, 79, 60
2, 76568, Note_on_c, 0, 79, 0
2, 76584, Note_on_c, 0, 78, 60
2, 76616, Note_on_c, 0, 78, 0
2, 76632, Note_on_c, 0, 76, 60
2, 76664, Note_on_c, 0, 76, 0
2, 76680, Note_on_c, 0, 74, 60
2, 76712, Note_on_c, 0, 74, 0
2, 76728, Note_on_c, 0, 72, 60
2, 76760, Note_on_c, 0, 72, 0
2, 76776, Note_on_c, 0, 71, 60
2, 76800, Note_on_c, 0, 71, 0
2, 76800, Note_on_c, 0, 83, 60
2, 76800, Note_on_c, 0, 84, 60
2, 76822, Note_on_c, 0, 84, 0
2, 76824, Note_on_c, 0, 86, 60
2, 76846, Note_on_c, 0, 86, 0
2, 76848, Note_on_c, 0, 84, 60
2, 76870, Note_on_c, 0, 84, 0
2, 76872, Note_on_c, 0, 86, 60
2, 76894, Note_on_c, 0, 86, 0
2, 76896, Note_on_c, 0, 84, 60
2, 76918, Note_on_c, 0, 84, 0
2, 76920, Note_on_c, 0, 86, 60
2, 76942, Note_on_c, 0, 86, 0
2, 76944, Note_on_c, 0, 84, 60
2, 76966, Note_on_c, 0, 83, 0
2, 76966, Note_on_c, 0, 84, 0
2, 76968, Note_on_c, 0, 81, 60
2, 76990, Note_on_c, 0, 81, 0
2, 76992, Note_on_c, 0, 83, 60
2, 76992, Note_on_c, 0, 86, 60
2, 77014, Note_on_c, 0, 83, 0
2, 77014, Note_on_c, 0, 86, 0
2, 77016, Note_on_c, 0, 84, 60
2, 77016, Note_on_c, 0, 88, 60
2, 77038, Note_on_c, 0, 88, 0
2, 77040, Note_on_c, 0, 86, 60
2, 77062, Note_on_c, 0, 86, 0
2, 77064, Note_on_c, 0, 88, 60
2, 77086, Note_on_c, 0, 88, 0
2, 77088, Note_on_c, 0, 86, 60
2, 77110, Note_on_c, 0, 86, 0
2, 77112, Note_on_c, 0, 88, 60
2, 77134, Note_on_c, 0, 88, 0
2, 77136, Note_on_c, 0, 86, 60
2, 77158, Note_on_c, 0, 84, 0
2, 77158, Note_on_c, 0, 86, 0
2, 77160, Note_on_c, 0, 83, 60
2, 77182, Note_on_c, 0, 83, 0
2, 77184, Note_on_c, 0, 84, 60
2, 77184, Note_on_c, 0, 88, 60
2, 77206, Note_on_c, 0, 84, 0
2, 77206, Note_on_c, 0, 88, 0
2, 77208, Note_on_c, 0, 74, 60
2, 77208, Note_on_c, 0, 86, 60
2, 77230, Note_on_c, 0, 86, 0
2, 77232, Note_on_c, 0, 74, 0
2, 77232, Note_on_c, 0, 86, 60
2, 77232, Note_on_c, 0, 88, 60
2, 77254, Note_on_c, 0, 88, 0
2, 77256, Note_on_c, 0, 86, 60
2, 77278, Note_on_c, 0, 86, 0
2, 77280, Note_on_c, 0, 88, 60
2, 77302, Note_on_c, 0, 88, 0
2, 77304, Note_on_c, 0, 86, 60
2, 77326, Note_on_c, 0, 86, 0
2, 77328, Note_on_c, 0, 88, 60
2, 77350, Note_on_c, 0, 86, 0
2, 77350, Note_on_c, 0, 88, 0
2, 77352, Note_on_c, 0, 86, 60
2, 77366, Note_on_c, 0, 86, 0
2, 77368, Note_on_c, 0, 84, 60
2, 77382, Note_on_c, 0, 84, 0
2, 77384, Note_on_c, 0, 83, 60
2, 77398, Note_on_c, 0, 83, 0
2, 77400, Note_on_c, 0, 81, 60
2, 77414, Note_on_c, 0, 81, 0
2, 77416, Note_on_c, 0, 79, 60
2, 77430, Note_on_c, 0, 79, 0
2, 77432, Note_on_c, 0, 78, 60
2, 77446, Note_on_c, 0, 78, 0
2, 77448, Note_on_c, 0, 76, 60
2, 77462, Note_on_c, 0, 76, 0
2, 77464, Note_on_c, 0, 74, 60
2, 77478, Note_on_c, 0, 74, 0
2, 77480, Note_on_c, 0, 72, 60
2, 77494, Note_on_c, 0, 72, 0
2, 77496, Note_on_c, 0, 71, 60
2, 77510, Note_on_c, 0, 71, 0
2, 77512, Note_on_c, 0, 69, 60
2, 77526, Note_on_c, 0, 69, 0
2, 77528, Note_on_c, 0, 67, 60
2, 77542, Note_on_c, 0, 67, 0
2, 77544, Note_on_c, 0, 60, 60
2, 77544, Note_on_c, 0, 66, 60
2, 77576, Note_on_c, 0, 60, 0
2, 77576, Note_on_c, 0, 66, 0
2, 77712, Note_on_c, 0, 62, 60
2, 77736, Note_on_c, 0, 62, 0
2, 77736, Note_on_c, 0, 59, 60
2, 77736, Note_on_c, 0, 67, 60
2, 77768, Note_on_c, 0, 59, 0
2, 77768, Note_on_c, 0, 67, 0
2, 77904, Note_on_c, 0, 62, 60
2, 77920, Note_on_c, 0, 62, 0
2, 77928, Note_on_c, 0, 67, 60
2, 77928, Note_on_c, 0, 71, 60
2, 78022, Note_on_c, 0, 67, 0
2, 78024, Note_on_c, 0, 62, 60
2, 78088, Note_on_c, 0, 71, 0
2, 78118, Note_on_c, 0, 62, 0
2, 78120, Note_on_c, 0, 66, 60
2, 78120, Note_on_c, 0, 69, 60
2, 78214, Note_on_c, 0, 66, 0
2, 78216, Note_on_c, 0, 62, 60
2, 78248, Note_on_c, 0, 62, 0
2, 78280, Note_on_c, 0, 69, 0
2, 78312, Note_on_c, 0, 71, 60
2, 78312, Note_on_c, 0, 76, 60
2, 78406, Note_on_c, 0, 71, 0
2, 78408, Note_on_c, 0, 68, 60
2, 78472, Note_on_c, 0, 76, 0
2, 78502, Note_on_c, 0, 68, 0
2, 78504, Note_on_c, 0, 72, 60
2, 78504, Note_on_c, 0, 76, 60
2, 78526, Note_on_c, 0, 76, 0
2, 78528, Note_on_c, 0, 75, 60
2, 78550, Note_on_c, 0, 75, 0
2, 78552, Note_on_c, 0, 78, 60
2, 78574, Note_on_c, 0, 78, 0
2, 78576, Note_on_c, 0, 76, 60
2, 78598, Note_on_c, 0, 72, 0
2, 78598, Note_on_c, 0, 76, 0
2, 78600, Note_on_c, 0, 74, 60
2, 78622, Note_on_c, 0, 74, 0
2, 78624, Note_on_c, 0, 72, 60
2, 78646, Note_on_c, 0, 72, 0
2, 78648, Note_on_c, 0, 71, 60
2, 78670, Note_on_c, 0, 71, 0
2, 78672, Note_on_c, 0, 69, 60
2, 78688, Note_on_c, 0, 69, 0
2, 78696, Note_on_c, 0, 69, 60
2, 78696, Note_on_c, 0, 74, 60
2, 78790, Note_on_c, 0, 69, 0
2, 78792, Note_on_c, 0, 66, 60
2, 78856, Note_on_c, 0, 74, 0
2, 78886, Note_on_c, 0, 66, 0
2, 78888, Note_on_c, 0, 71, 60
2, 78888, Note_on_c, 0, 74, 60
2, 78910, Note_on_c, 0, 74, 0
2, 78912, Note_on_c, 0, 73, 60
2, 78934, Note_on_c, 0, 73, 0
2, 78936, Note_on_c, 0, 76, 60
2, 78958, Note_on_c, 0, 76, 0
2, 78960, Note_on_c, 0, 74, 60
2, 78982, Note_on_c, 0, 71, 0
2, 78982, Note_on_c, 0, 74, 0
2, 78984, Note_on_c, 0, 72, 60
2, 79006, Note_on_c, 0, 72, 0
2, 79008, Note_on_c, 0, 71, 60
2, 79030, Note_on_c, 0, 71, 0
2, 79032, Note_on_c, 0, 69, 60
2, 79054, Note_on_c, 0, 69, 0
2, 79056, Note_on_c, 0, 67, 60
2, 79072, Note_on_c, 0, 67, 0
2, 79080, Note_on_c, 0, 62, 60
2, 79080, Note_on_c, 0, 71, 60
2, 79174, Note_on_c, 0, 62, 0
2, 79176, Note_on_c, 0, 67, 60
2, 79240, Note_on_c, 0, 71, 0
2, 79270, Note_on_c, 0, 67, 0
2, 79272, Note_on_c, 0, 60, 60
2, 79272, Note_on_c, 0, 69, 60
2, 79366, Note_on_c, 0, 60, 0
2, 79368, Note_on_c, 0, 66, 60
2, 79414, Note_on_c, 0, 69, 0
2, 79416, Note_on_c, 0, 71, 60
2, 79462, Note_on_c, 0, 66, 0
2, 79462, Note_on_c, 0, 71, 0
2, 79464, Note_on_c, 0, 59, 60
2, 79464, Note_on_c, 0, 67, 60
2, 79558, Note_on_c, 0, 59, 0
2, 79558, Note_on_c, 0, 67, 0
2, 79560, Note_on_c, 0, 74, 60
2, 79592, Note_on_c, 0, 74, 0
2, 79656, Note_on_c, 0, 74, 60
2, 79688, Note_on_c, 0, 74, 0
2, 79752, Note_on_c, 0, 74, 60
2, 79784, Note_on_c, 0, 74, 0
2, 79848, Note_on_c, 0, 74, 60
2, 80008, Note_on_c, 0, 74, 0
2, 80040, Note_on_c, 0, 74, 60
2, 80110, Note_on_c, 0, 74, 0
2, 80112, Note_on_c, 0, 74, 60
2, 80128, Note_on_c, 0, 74, 0
2, 80136, Note_on_c, 0, 78, 60
2, 80158, Note_on_c, 0, 78, 0
2, 80160, Note_on_c, 0, 76, 60
2, 80192, Note_on_c, 0, 76, 0
2, 80208, Note_on_c, 0, 74, 60
2, 80224, Note_on_c, 0, 74, 0
2, 80232, Note_on_c, 0, 74, 60
2, 80256, Note_on_c, 0, 74, 0
2, 80256, Note_on_c, 0, 79, 60
2, 80422, Note_on_c, 0, 79, 0
2, 80424, Note_on_c, 0, 79, 60
2, 80494, Note_on_c, 0, 79, 0
2, 80496, Note_on_c, 0, 78, 60
2, 80518, Note_on_c, 0, 78, 0
2, 80520, Note_on_c, 0, 76, 60
2, 80590, Note_on_c, 0, 76, 0
2, 80592, Note_on_c, 0, 74, 60
2, 80614, Note_on_c, 0, 74, 0
2, 80616, Note_on_c, 0, 74, 60
2, 80686, Note_on_c, 0, 74, 0
2, 80688, Note_on_c, 0, 72, 60
2, 80710, Note_on_c, 0, 72, 0
2, 80712, Note_on_c, 0, 71, 60
2, 80782, Note_on_c, 0, 71, 0
2, 80784, Note_on_c, 0, 69, 60
2, 80806, Note_on_c, 0, 69, 0
2, 80808, Note_on_c, 0, 67, 60
2, 80878, Note_on_c, 0, 67, 0
2, 80880, Note_on_c, 0, 66, 60
2, 80902, Note_on_c, 0, 66, 0
2, 80904, Note_on_c, 0, 76, 60
2, 80974, Note_on_c, 0, 76, 0
2, 80976, Note_on_c, 0, 74, 60
2, 80998, Note_on_c, 0, 74, 0
2, 81000, Note_on_c, 0, 72, 60
2, 81094, Note_on_c, 0, 72, 0
2, 81096, Note_on_c, 0, 71, 60
2, 81190, Note_on_c, 0, 71, 0
2, 81192, Note_on_c, 0, 71, 60
2, 81222, Note_on_c, 0, 71, 0
2, 81224, Note_on_c, 0, 71, 60
2, 81245, Note_on_c, 0, 71, 0
2, 81256, Note_on_c, 0, 70, 60
2, 81277, Note_on_c, 0, 70, 0
2, 81288, Note_on_c, 0, 71, 60
2, 81309, Note_on_c, 0, 71, 0
2, 81320, Note_on_c, 0, 72, 60
2, 81341, Note_on_c, 0, 72, 0
2, 81352, Note_on_c, 0, 73, 60
2, 81373, Note_on_c, 0, 73, 0
2, 81384, Note_on_c, 0, 73, 60
2, 81394, Note_on_c, 0, 73, 0
2, 81396, Note_on_c, 0, 74, 60
2, 81406, Note_on_c, 0, 74, 0
2, 81408, Note_on_c, 0, 73, 60
2, 81418, Note_on_c, 0, 73, 0
2, 81420, Note_on_c, 0, 74, 60
2, 81430, Note_on_c, 0, 74, 0
2, 81432, Note_on_c, 0, 73, 60
2, 81442, Note_on_c, 0, 73, 0
2, 81444, Note_on_c, 0, 74, 60
2, 81454, Note_on_c, 0, 74, 0
2, 81456, Note_on_c, 0, 73, 60
2, 81466, Note_on_c, 0, 73, 0
2, 81468, Note_on_c, 0, 74, 60
2, 81478, Note_on_c, 0, 74, 0
2, 81480, Note_on_c, 0, 73, 60
2, 81490, Note_on_c, 0, 73, 0
2, 81492, Note_on_c, 0, 74, 60
2, 81502, Note_on_c, 0, 74, 0
2, 81504, Note_on_c, 0, 73, 60
2, 81514, Note_on_c, 0, 73, 0
2, 81516, Note_on_c, 0, 74, 60
2, 81526, Note_on_c, 0, 74, 0
2, 81528, Note_on_c, 0, 73, 60
2, 81538, Note_on_c, 0, 73, 0
2, 81540, Note_on_c, 0, 74, 60
2, 81550, Note_on_c, 0, 74, 0
2, 81552, Note_on_c, 0, 73, 60
2, 81562, Note_on_c, 0, 73, 0
2, 81564, Note_on_c, 0, 74, 60
2, 81574, Note_on_c, 0, 74, 0
2, 81576, Note_on_c, 0, 73, 60
2, 81586, Note_on_c, 0, 73, 0
2, 81588, Note_on_c, 0, 74, 60
2, 81598, Note_on_c, 0, 74, 0
2, 81600, Note_on_c, 0, 73, 60
2, 81610, Note_on_c, 0, 73, 0
2, 81612, Note_on_c, 0, 74, 60
2, 81622, Note_on_c, 0, 74, 0
2, 81624, Note_on_c, 0, 73, 60
2, 81634, Note_on_c, 0, 73, 0
2, 81636, Note_on_c, 0, 74, 60
2, 81646, Note_on_c, 0, 74, 0
2, 81648, Note_on_c, 0, 73, 60
2, 81658, Note_on_c, 0, 73, 0
2, 81660, Note_on_c, 0, 74, 60
2, 81670, Note_on_c, 0, 74, 0
2, 81672, Note_on_c, 0, 73, 60
2, 81682, Note_on_c, 0, 73, 0
2, 81684, Note_on_c, 0, 74, 60
2, 81694, Note_on_c, 0, 74, 0
2, 81696, Note_on_c, 0, 73, 60
2, 81706, Note_on_c, 0, 73, 0
2, 81708, Note_on_c, 0, 74, 60
2, 81718, Note_on_c, 0, 74, 0
2, 81720, Note_on_c, 0, 73, 60
2, 81730, Note_on_c, 0, 73, 0
2, 81732, Note_on_c, 0, 74, 60
2, 81742, Note_on_c, 0, 74, 0
2, 81744, Note_on_c, 0, 73, 60
2, 81754, Note_on_c, 0, 73, 0
2, 81756, Note_on_c, 0, 74, 60
2, 81766, Note_on_c, 0, 74, 0
2, 81768, Note_on_c, 0, 73, 60
2, 81782, Note_on_c, 0, 73, 0
2, 81784, Note_on_c, 0, 74, 60
2, 81798, Note_on_c, 0, 74, 0
2, 81800, Note_on_c, 0, 76, 60
2, 81814, Note_on_c, 0, 76, 0
2, 81816, Note_on_c, 0, 74, 60
2, 81830, Note_on_c, 0, 74, 0
2, 81832, Note_on_c, 0, 73, 60
2, 81846, Note_on_c, 0, 73, 0
2, 81848, Note_on_c, 0, 74, 60
2, 81862, Note_on_c, 0, 74, 0
2, 81864, Note_on_c, 0, 76, 60
2, 81878, Note_on_c, 0, 76, 0
2, 81880, Note_on_c, 0, 78, 60
2, 81894, Note_on_c, 0, 78, 0
2, 81896, Note_on_c, 0, 76, 60
2, 81910, Note_on_c, 0, 76, 0
2, 81912, Note_on_c, 0, 74, 60
2, 81926, Note_on_c, 0, 74, 0
2, 81928, Note_on_c, 0, 76, 60
2, 81942, Note_on_c, 0, 76, 0
2, 81960, Note_on_c, 0, 78, 60
2, 81982, Note_on_c, 0, 78, 0
2, 81984, Note_on_c, 0, 79, 60
2, 82006, Note_on_c, 0, 79, 0
2, 82008, Note_on_c, 0, 78, 60
2, 82030, Note_on_c, 0, 78, 0
2, 82032, Note_on_c, 0, 76, 60
2, 82054, Note_on_c, 0, 76, 0
2, 82056, Note_on_c, 0, 78, 60
2, 82078, Note_on_c, 0, 78, 0
2, 82080, Note_on_c, 0, 81, 60
2, 82102, Note_on_c, 0, 81, 0
2, 82104, Note_on_c, 0, 79, 60
2, 82126, Note_on_c, 0, 79, 0
2, 82128, Note_on_c, 0, 78, 60
2, 82150, Note_on_c, 0, 78, 0
2, 82152, Note_on_c, 0, 76, 60
2, 82168, Note_on_c, 0, 76, 0
2, 82176, Note_on_c, 0, 76, 60
2, 82206, Note_on_c, 0, 76, 0
2, 82208, Note_on_c, 0, 74, 60
2, 82229, Note_on_c, 0, 74, 0
2, 82240, Note_on_c, 0, 72, 60
2, 82261, Note_on_c, 0, 72, 0
2, 82272, Note_on_c, 0, 72, 60
2, 82304, Note_on_c, 0, 72, 0
2, 82304, Note_on_c, 0, 71, 60
2, 82325, Note_on_c, 0, 71, 0
2, 82336, Note_on_c, 0, 69, 60
2, 82357, Note_on_c, 0, 69, 0
2, 82368, Note_on_c, 0, 69, 60
2, 82400, Note_on_c, 0, 69, 0
2, 82400, Note_on_c, 0, 67, 60
2, 82421, Note_on_c, 0, 67, 0
2, 82432, Note_on_c, 0, 66, 60
2, 82453, Note_on_c, 0, 66, 0
2, 82464, Note_on_c, 0, 66, 60
2, 82485, Note_on_c, 0, 66, 0
2, 82496, Note_on_c, 0, 76, 60
2, 82517, Note_on_c, 0, 76, 0
2, 82528, Note_on_c, 0, 72, 60
2, 82549, Note_on_c, 0, 72, 0
2, 82560, Note_on_c, 0, 72, 60
2, 82654, Note_on_c, 0, 72, 0
2, 82656, Note_on_c, 0, 71, 60
2, 82750, Note_on_c, 0, 71, 0
2, 82752, Note_on_c, 0, 71, 60
2, 82774, Note_on_c, 0, 71, 0
2, 82776, Note_on_c, 0, 71, 60
2, 82798, Note_on_c, 0, 71, 0
2, 82800, Note_on_c, 0, 71, 60
2, 82822, Note_on_c, 0, 71, 0
2, 82824, Note_on_c, 0, 71, 60
2, 82846, Note_on_c, 0, 71, 0
2, 82848, Note_on_c, 0, 74, 60
2, 82918, Note_on_c, 0, 74, 0
2, 82920, Note_on_c, 0, 72, 60
2, 82936, Note_on_c, 0, 72, 0
2, 82944, Note_on_c, 0, 71, 60
2, 83038, Note_on_c, 0, 71, 0
2, 83040, Note_on_c, 0, 69, 60
2, 83134, Note_on_c, 0, 69, 0
2, 83136, Note_on_c, 0, 69, 60
2, 83158, Note_on_c, 0, 69, 0
2, 83160, Note_on_c, 0, 69, 60
2, 83182, Note_on_c, 0, 69, 0
2, 83184, Note_on_c, 0, 69, 60
2, 83206, Note_on_c, 0, 69, 0
2, 83208, Note_on_c, 0, 69, 60
2, 83230, Note_on_c, 0, 69, 0
2, 83232, Note_on_c, 0, 72, 60
2, 83302, Note_on_c, 0, 72, 0
2, 83304, Note_on_c, 0, 71, 60
2, 83320, Note_on_c, 0, 71, 0
2, 83328, Note_on_c, 0, 69, 60
2, 83374, Note_on_c, 0, 69, 0
2, 83376, Note_on_c, 0, 67, 60
2, 83470, Note_on_c, 0, 67, 0
2, 83472, Note_on_c, 0, 71, 60
2, 83494, Note_on_c, 0, 71, 0
2, 83496, Note_on_c, 0, 69, 60
2, 83518, Note_on_c, 0, 69, 0
2, 83520, Note_on_c, 0, 67, 60
2, 83566, Note_on_c, 0, 67, 0
2, 83568, Note_on_c, 0, 65, 60
2, 83662, Note_on_c, 0, 65, 0
2, 83664, Note_on_c, 0, 69, 60
2, 83686, Note_on_c, 0, 69, 0
2, 83688, Note_on_c, 0, 67, 60
2, 83710, Note_on_c, 0, 67, 0
2, 83712, Note_on_c, 0, 65, 60
2, 83758, Note_on_c, 0, 65, 0
2, 83760, Note_on_c, 0, 64, 60
2, 83854, Note_on_c, 0, 64, 0
2, 83856, Note_on_c, 0, 67, 60
2, 83878, Note_on_c, 0, 67, 0
2, 83880, Note_on_c, 0, 65, 60
2, 83902, Note_on_c, 0, 65, 0
2, 83904, Note_on_c, 0, 64, 60
2, 83950, Note_on_c, 0, 64, 0
2, 83952, Note_on_c, 0, 62, 60
2, 84046, Note_on_c, 0, 62, 0
2, 84048, Note_on_c, 0, 65, 60
2, 84070, Note_on_c, 0, 65, 0
2, 84072, Note_on_c, 0, 64, 60
2, 84094, Note_on_c, 0, 64, 0
2, 84096, Note_on_c, 0, 62, 60
2, 84118, Note_on_c, 0, 62, 0
2, 84120, Note_on_c, 0, 60, 60
2, 84136, Note_on_c, 0, 60, 0
2, 84144, Note_on_c, 0, 72, 60
2, 84190, Note_on_c, 0, 72, 0
2, 84192, Note_on_c, 0, 72, 60
2, 84238, Note_on_c, 0, 72, 0
2, 84240, Note_on_c, 0, 72, 60
2, 84288, Note_on_c, 0, 72, 0
2, 84288, Note_on_c, 0, 72, 60
2, 84334, Note_on_c, 0, 72, 0
2, 84336, Note_on_c, 0, 72, 60
2, 84384, Note_on_c, 0, 72, 0
2, 84384, Note_on_c, 0, 72, 60
2, 84430, Note_on_c, 0, 72, 0
2, 84432, Note_on_c, 0, 72, 60
2, 84480, Note_on_c, 0, 72, 0
2, 84480, Note_on_c, 0, 72, 84
2, 84512, Note_on_c, 0, 72, 0
2, 84576, Note_on_c, 0, 84, 60
2, 84670, Note_on_c, 0, 84, 0
2, 84672, Note_on_c, 0, 84, 60
2, 84702, Note_on_c, 0, 84, 0
2, 84704, Note_on_c, 0, 81, 60
2, 84734, Note_on_c, 0, 81, 0
2, 84736, Note_on_c, 0, 78, 60
2, 84766, Note_on_c, 0, 78, 0
2, 84768, Note_on_c, 0, 81, 60
2, 84798, Note_on_c, 0, 81, 0
2, 84800, Note_on_c, 0, 78, 60
2, 84830, Note_on_c, 0, 78, 0
2, 84832, Note_on_c, 0, 72, 60
2, 84862, Note_on_c, 0, 72, 0
2, 84864, Note_on_c, 0, 71, 84
2, 84896, Note_on_c, 0, 71, 0
2, 84912, Note_on_c, 0, 79, 84
2, 84958, Note_on_c, 0, 79, 0
2, 84960, Note_on_c, 0, 79, 60
2, 84990, Note_on_c, 0, 79, 0
2, 84992, Note_on_c, 0, 74, 60
2, 85022, Note_on_c, 0, 74, 0
2, 85024, Note_on_c, 0, 71, 60
2, 85054, Note_on_c, 0, 71, 0
2, 85056, Note_on_c, 0, 69, 84
2, 85088, Note_on_c, 0, 69, 0
2, 85104, Note_on_c, 0, 76, 84
2, 85150, Note_on_c, 0, 76, 0
2, 85152, Note_on_c, 0, 76, 60
2, 85182, Note_on_c, 0, 76, 0
2, 85184, Note_on_c, 0, 72, 60
2, 85214, Note_on_c, 0, 72, 0
2, 85216, Note_on_c, 0, 69, 60
2, 85246, Note_on_c, 0, 69, 0
2, 85248, Note_on_c, 0, 67, 60
2, 85280, Note_on_c, 0, 67, 0
2, 85344, Note_on_c, 0, 62, 60
2, 85344, Note_on_c, 0, 67, 60
2, 85438, Note_on_c, 0, 67, 0
2, 85440, Note_on_c, 0, 69, 60
2, 85534, Note_on_c, 0, 69, 0
2, 85536, Note_on_c, 0, 70, 60
2, 85600, Note_on_c, 0, 62, 0
2, 85630, Note_on_c, 0, 70, 0
2, 85632, Note_on_c, 0, 70, 60
2, 85726, Note_on_c, 0, 70, 0
2, 85728, Note_on_c, 0, 71, 60
2, 85822, Note_on_c, 0, 71, 0
2, 85824, Note_on_c, 0, 71, 60
2, 85854, Note_on_c, 0, 71, 0
2, 85856, Note_on_c, 0, 71, 60
2, 85886, Note_on_c, 0, 71, 0
2, 85888, Note_on_c, 0, 70, 60
2, 85918, Note_on_c, 0, 70, 0
2, 85920, Note_on_c, 0, 71, 60
2, 85950, Note_on_c, 0, 71, 0
2, 85952, Note_on_c, 0, 74, 60
2, 85982, Note_on_c, 0, 74, 0
2, 85984, Note_on_c, 0, 72, 60
2, 86014, Note_on_c, 0, 72, 0
2, 86016, Note_on_c, 0, 71, 60
2, 86110, Note_on_c, 0, 71, 0
2, 86112, Note_on_c, 0, 69, 60
2, 86206, Note_on_c, 0, 69, 0
2, 86208, Note_on_c, 0, 69, 60
2, 86238, Note_on_c, 0, 69, 0
2, 86240, Note_on_c, 0, 69, 60
2, 86270, Note_on_c, 0, 69, 0
2, 86272, Note_on_c, 0, 68, 60
2, 86302, Note_on_c, 0, 68, 0
2, 86304, Note_on_c, 0, 69, 60
2, 86334, Note_on_c, 0, 69, 0
2, 86336, Note_on_c, 0, 72, 60
2, 86366, Note_on_c, 0, 72, 0
2, 86368, Note_on_c, 0, 71, 60
2, 86398, Note_on_c, 0, 71, 0
2, 86400, Note_on_c, 0, 69, 60
2, 86430, Note_on_c, 0, 69, 0
2, 86432, Note_on_c, 0, 67, 60
2, 86462, Note_on_c, 0, 67, 0
2, 86464, Note_on_c, 0, 66, 60
2, 86494, Note_on_c, 0, 66, 0
2, 86496, Note_on_c, 0, 67, 60
2, 86526, Note_on_c, 0, 67, 0
2, 86528, Note_on_c, 0, 71, 60
2, 86558, Note_on_c, 0, 71, 0
2, 86560, Note_on_c, 0, 69, 60
2, 86590, Note_on_c, 0, 69, 0
2, 86592, Note_on_c, 0, 67, 60
2, 86622, Note_on_c, 0, 67, 0
2, 86624, Note_on_c, 0, 65, 60
2, 86654, Note_on_c, 0, 65, 0
2, 86656, Note_on_c, 0, 64, 60
2, 86686, Note_on_c, 0, 64, 0
2, 86688, Note_on_c, 0, 65, 60
2, 86718, Note_on_c, 0, 65, 0
2, 86720, Note_on_c, 0, 69, 60
2, 86750, Note_on_c, 0, 69, 0
2, 86752, Note_on_c, 0, 67, 60
2, 86782, Note_on_c, 0, 67, 0
2, 86784, Note_on_c, 0, 65, 60
2, 86814, Note_on_c, 0, 65, 0
2, 86816, Note_on_c, 0, 64, 60
2, 86846, Note_on_c, 0, 64, 0
2, 86848, Note_on_c, 0, 63, 60
2, 86878, Note_on_c, 0, 63, 0
2, 86880, Note_on_c, 0, 64, 60
2, 86910, Note_on_c, 0, 64, 0
2, 86912, Note_on_c, 0, 67, 60
2, 86942, Note_on_c, 0, 67, 0
2, 86944, Note_on_c, 0, 65, 60
2, 86974, Note_on_c, 0, 65, 0
2, 86976, Note_on_c, 0, 64, 60
2, 87006, Note_on_c, 0, 64, 0
2, 87008, Note_on_c, 0, 62, 60
2, 87038, Note_on_c, 0, 62, 0
2, 87040, Note_on_c, 0, 61, 60
2, 87070, Note_on_c, 0, 61, 0
2, 87072, Note_on_c, 0, 62, 60
2, 87102, Note_on_c, 0, 62, 0
2, 87104, Note_on_c, 0, 65, 60
2, 87134, Note_on_c, 0, 65, 0
2, 87136, Note_on_c, 0, 64, 60
2, 87166, Note_on_c, 0, 64, 0
2, 87168, Note_on_c, 0, 62, 60
2, 87198, Note_on_c, 0, 62, 0
2, 87200, Note_on_c, 0, 60, 60
2, 87221, Note_on_c, 0, 60, 0
2, 87232, Note_on_c, 0, 72, 60
2, 87262, Note_on_c, 0, 72, 0
2, 87264, Note_on_c, 0, 72, 60
2, 87310, Note_on_c, 0, 72, 0
2, 87312, Note_on_c, 0, 72, 61
2, 87358, Note_on_c, 0, 72, 0
2, 87360, Note_on_c, 0, 72, 62
2, 87406, Note_on_c, 0, 72, 0
2, 87408, Note_on_c, 0, 84, 63
2, 87502, Note_on_c, 0, 84, 0
2, 87504, Note_on_c, 0, 84, 66
2, 87550, Note_on_c, 0, 84, 0
2, 87552, Note_on_c, 0, 84, 67
2, 87574, Note_on_c, 0, 84, 0
2, 87576, Note_on_c, 0, 83, 67
2, 87598, Note_on_c, 0, 83, 0
2, 87600, Note_on_c, 0, 84, 67
2, 87622, Note_on_c, 0, 84, 0
2, 87624, Note_on_c, 0, 83, 67
2, 87646, Note_on_c, 0, 83, 0
2, 87648, Note_on_c, 0, 84, 93
2, 87670, Note_on_c, 0, 84, 0
2, 87672, Note_on_c, 0, 83, 93
2, 87694, Note_on_c, 0, 83, 0
2, 87696, Note_on_c, 0, 84, 67
2, 87718, Note_on_c, 0, 84, 0
2, 87720, Note_on_c, 0, 83, 67
2, 87742, Note_on_c, 0, 83, 0
2, 87744, Note_on_c, 0, 84, 67
2, 87766, Note_on_c, 0, 84, 0
2, 87768, Note_on_c, 0, 83, 68
2, 87790, Note_on_c, 0, 83, 0
2, 87792, Note_on_c, 0, 81, 69
2, 87814, Note_on_c, 0, 81, 0
2, 87816, Note_on_c, 0, 79, 70
2, 87838, Note_on_c, 0, 79, 0
2, 87840, Note_on_c, 0, 78, 71
2, 87862, Note_on_c, 0, 78, 0
2, 87864, Note_on_c, 0, 76, 72
2, 87886, Note_on_c, 0, 76, 0
2, 87888, Note_on_c, 0, 74, 73
2, 87910, Note_on_c, 0, 74, 0
2, 87912, Note_on_c, 0, 72, 74
2, 87934, Note_on_c, 0, 72, 0
2, 87936, Note_on_c, 0, 71, 75
2, 87957, Note_on_c, 0, 71, 0
2, 87968, Note_on_c, 0, 79, 106
2, 87998, Note_on_c, 0, 79, 0
2, 88000, Note_on_c, 0, 78, 77
2, 88021, Note_on_c, 0, 78, 0
2, 88032, Note_on_c, 0, 79, 78
2, 88053, Note_on_c, 0, 79, 0
2, 88064, Note_on_c, 0, 74, 79
2, 88085, Note_on_c, 0, 74, 0
2, 88096, Note_on_c, 0, 71, 80
2, 88117, Note_on_c, 0, 71, 0
2, 88128, Note_on_c, 0, 69, 81
2, 88149, Note_on_c, 0, 69, 0
2, 88160, Note_on_c, 0, 76, 114
2, 88190, Note_on_c, 0, 76, 0
2, 88192, Note_on_c, 0, 75, 84
2, 88213, Note_on_c, 0, 75, 0
2, 88224, Note_on_c, 0, 76, 86
2, 88254, Note_on_c, 0, 76, 0
2, 88256, Note_on_c, 0, 72, 88
2, 88277, Note_on_c, 0, 72, 0
2, 88288, Note_on_c, 0, 69, 90
2, 88309, Note_on_c, 0, 69, 0
2, 88368, Note_on_c, 0, 67, 92
2, 88390, Note_on_c, 0, 67, 0
2, 88392, Note_on_c, 0, 71, 92
2, 88414, Note_on_c, 0, 71, 0
2, 88416, Note_on_c, 0, 74, 127
2, 88448, Note_on_c, 0, 74, 0
2, 88752, Note_on_c, 0, 57, 92
2, 88774, Note_on_c, 0, 57, 0
2, 88776, Note_on_c, 0, 60, 92
2, 88798, Note_on_c, 0, 60, 0
2, 88800, Note_on_c, 0, 66, 127
2, 88832, Note_on_c, 0, 66, 0
2, 89088, Note_on_c, 0, 59, 45
2, 89088, Note_on_c, 0, 62, 45
2, 89182, Note_on_c, 0, 59, 0
2, 89182, Note_on_c, 0, 62, 0
2, 89184, Note_on_c, 0, 67, 45
2, 89278, Note_on_c, 0, 67, 0
2, 89280, Note_on_c, 0, 60, 45
2, 89280, Note_on_c, 0, 64, 45
2, 89374, Note_on_c, 0, 60, 0
2, 89374, Note_on_c, 0, 64, 0
2, 89376, Note_on_c, 0, 67, 45
2, 89470, Note_on_c, 0, 67, 0
2, 89472, Note_on_c, 0, 62, 45
2, 89472, Note_on_c, 0, 65, 45
2, 89566, Note_on_c, 0, 62, 0
2, 89566, Note_on_c, 0, 65, 0
2, 89568, Note_on_c, 0, 67, 45
2, 89662, Note_on_c, 0, 67, 0
2, 89664, Note_on_c, 0, 60, 45
2, 89664, Note_on_c, 0, 64, 45
2, 89758, Note_on_c, 0, 60, 0
2, 89758, Note_on_c, 0, 64, 0
2, 89760, Note_on_c, 0, 67, 45
2, 89854, Note_on_c, 0, 67, 0
2, 89856, Note_on_c, 0, 59, 45
2, 89856, Note_on_c, 0, 62, 45
2, 89950, Note_on_c, 0, 59, 0
2, 89950, Note_on_c, 0, 62, 0
2, 89952, Note_on_c, 0, 67, 45
2, 90046, Note_on_c, 0, 67, 0
2, 90048, Note_on_c, 0, 60, 45
2, 90048, Note_on_c, 0, 64, 45
2, 90142, Note_on_c, 0, 60, 0
2, 90142, Note_on_c, 0, 64, 0
2, 90144, Note_on_c, 0, 67, 45
2, 90238, Note_on_c, 0, 67, 0
2, 90288, Note_on_c, 0, 62, 45
2, 90310, Note_on_c, 0, 62, 0
2, 90312, Note_on_c, 0, 65, 45
2, 90334, Note_on_c, 0, 65, 0
2, 90336, Note_on_c, 0, 69, 45
2, 90368, Note_on_c, 0, 69, 0
2, 90480, Note_on_c, 0, 72, 45
2, 90502, Note_on_c, 0, 72, 0
2, 90504, Note_on_c, 0, 76, 45
2, 90526, Note_on_c, 0, 76, 0
2, 90528, Note_on_c, 0, 79, 45
2, 90574, Note_on_c, 0, 79, 0
2, 90672, Note_on_c, 0, 57, 48
2, 90694, Note_on_c, 0, 57, 0
2, 90696, Note_on_c, 0, 60, 48
2, 90718, Note_on_c, 0, 60, 0
2, 90720, Note_on_c, 0, 64, 67
2, 90752, Note_on_c, 0, 64, 0
2, 90864, Note_on_c, 0, 69, 54
2, 90886, Note_on_c, 0, 69, 0
2, 90888, Note_on_c, 0, 72, 55
2, 90910, Note_on_c, 0, 72, 0
2, 90912, Note_on_c, 0, 76, 56
2, 90944, Note_on_c, 0, 76, 0
2, 91008, Note_on_c, 0, 57, 60
2, 91030, Note_on_c, 0, 57, 0
2, 91032, Note_on_c, 0, 60, 61
2, 91054, Note_on_c, 0, 60, 0
2, 91056, Note_on_c, 0, 62, 61
2, 91088, Note_on_c, 0, 62, 0
2, 91248, Note_on_c, 0, 71, 69
2, 91270, Note_on_c, 0, 71, 0
2, 91272, Note_on_c, 0, 74, 70
2, 91294, Note_on_c, 0, 74, 0
2, 91296, Note_on_c, 0, 79, 71
2, 91328, Note_on_c, 0, 79, 0
2, 91440, Note_on_c, 0, 71, 77
2, 91462, Note_on_c, 0, 71, 0
2, 91464, Note_on_c, 0, 79, 78
2, 91486, Note_on_c, 0, 79, 0
2, 91488, Note_on_c, 0, 83, 79
2, 91520, Note_on_c, 0, 83, 0
2, 91632, Note_on_c, 0, 71, 85
2, 91654, Note_on_c, 0, 71, 0
2, 91656, Note_on_c, 0, 79, 86
2, 91678, Note_on_c, 0, 79, 0
2, 91680, Note_on_c, 0, 83, 87
2, 91712, Note_on_c, 0, 83, 0
2, 91808, Note_on_c, 0, 79, 92
2, 91838, Note_on_c, 0, 79, 0
2, 91840, Note_on_c, 0, 83, 92
2, 91870, Note_on_c, 0, 83, 0
2, 91872, Note_on_c, 0, 86, 92
2, 91902, Note_on_c, 0, 86, 0
2, 91904, Note_on_c, 0, 83, 92
2, 91934, Note_on_c, 0, 83, 0
2, 91936, Note_on_c, 0, 79, 92
2, 91966, Note_on_c, 0, 79, 0
2, 91968, Note_on_c, 0, 83, 92
2, 91998, Note_on_c, 0, 83, 0
2, 92000, Note_on_c, 0, 79, 92
2, 92030, Note_on_c, 0, 79, 0
2, 92032, Note_on_c, 0, 74, 92
2, 92062, Note_on_c, 0, 74, 0
2, 92064, Note_on_c, 0, 79, 92
2, 92094, Note_on_c, 0, 79, 0
2, 92096, Note_on_c, 0, 74, 92
2, 92126, Note_on_c, 0, 74, 0
2, 92128, Note_on_c, 0, 71, 92
2, 92158, Note_on_c, 0, 71, 0
2, 92160, Note_on_c, 0, 74, 92
2, 92190, Note_on_c, 0, 74, 0
2, 92192, Note_on_c, 0, 71, 92
2, 92222, Note_on_c, 0, 71, 0
2, 92224, Note_on_c, 0, 67, 92
2, 92254, Note_on_c, 0, 67, 0
2, 92256, Note_on_c, 0, 71, 92
2, 92286, Note_on_c, 0, 71, 0
2, 92288, Note_on_c, 0, 67, 92
2, 92318, Note_on_c, 0, 67, 0
2, 92320, Note_on_c, 0, 62, 92
2, 92350, Note_on_c, 0, 62, 0
2, 92352, Note_on_c, 0, 67, 92
2, 92382, Note_on_c, 0, 67, 0
2, 92384, Note_on_c, 0, 62, 92
2, 92414, Note_on_c, 0, 62, 0
2, 92416, Note_on_c, 0, 59, 92
2, 92446, Note_on_c, 0, 59, 0
2, 92448, Note_on_c, 0, 62, 92
2, 92478, Note_on_c, 0, 62, 0
2, 92480, Note_on_c, 0, 59, 92
2, 92510, Note_on_c, 0, 59, 0
2, 92512, Note_on_c, 0, 55, 92
2, 92542, Note_on_c, 0, 55, 0
2, 92544, Note_on_c, 0, 50, 92
2, 92574, Note_on_c, 0, 50, 0
2, 92576, Note_on_c, 0, 55, 92
2, 92606, Note_on_c, 0, 55, 0
2, 92608, Note_on_c, 0, 59, 92
2, 92638, Note_on_c, 0, 59, 0
2, 92640, Note_on_c, 0, 55, 92
2, 92670, Note_on_c, 0, 55, 0
2, 92672, Note_on_c, 0, 59, 92
2, 92702, Note_on_c, 0, 59, 0
2, 92704, Note_on_c, 0, 62, 92
2, 92734, Note_on_c, 0, 62, 0
2, 92736, Note_on_c, 0, 59, 92
2, 92766, Note_on_c, 0, 59, 0
2, 92768, Note_on_c, 0, 62, 92
2, 92798, Note_on_c, 0, 62, 0
2, 92800, Note_on_c, 0, 67, 92
2, 92830, Note_on_c, 0, 67, 0
2, 92832, Note_on_c, 0, 62, 92
2, 92862, Note_on_c, 0, 62, 0
2, 92864, Note_on_c, 0, 67, 92
2, 92894, Note_on_c, 0, 67, 0
2, 92896, Note_on_c, 0, 71, 92
2, 92926, Note_on_c, 0, 71, 0
2, 92928, Note_on_c, 0, 67, 92
2, 92958, Note_on_c, 0, 67, 0
2, 92960, Note_on_c, 0, 71, 92
2, 92990, Note_on_c, 0, 71, 0
2, 92992, Note_on_c, 0, 74, 92
2, 93022, Note_on_c, 0, 74, 0
2, 93024, Note_on_c, 0, 71, 92
2, 93054, Note_on_c, 0, 71, 0
2, 93056, Note_on_c, 0, 74, 92
2, 93086, Note_on_c, 0, 74, 0
2, 93088, Note_on_c, 0, 79, 92
2, 93118, Note_on_c, 0, 79, 0
2, 93120, Note_on_c, 0, 74, 92
2, 93150, Note_on_c, 0, 74, 0
2, 93152, Note_on_c, 0, 79, 92
2, 93182, Note_on_c, 0, 79, 0
2, 93184, Note_on_c, 0, 83, 92
2, 93214, Note_on_c, 0, 83, 0
2, 93216, Note_on_c, 0, 86, 92
2, 93237, Note_on_c, 0, 86, 0
2, 93248, Note_on_c, 0, 86, 92
2, 93269, Note_on_c, 0, 86, 0
2, 93280, Note_on_c, 0, 86, 92
2, 93301, Note_on_c, 0, 86, 0
2, 93312, Note_on_c, 0, 86, 45
2, 93342, Note_on_c, 0, 86, 0
2, 93344, Note_on_c, 0, 85, 45
2, 93374, Note_on_c, 0, 85, 0
2, 93376, Note_on_c, 0, 88, 45
2, 93406, Note_on_c, 0, 88, 0
2, 93408, Note_on_c, 0, 86, 45
2, 93430, Note_on_c, 0, 86, 0
2, 93432, Note_on_c, 0, 84, 45
2, 93454, Note_on_c, 0, 84, 0
2, 93456, Note_on_c, 0, 83, 45
2, 93478, Note_on_c, 0, 83, 0
2, 93480, Note_on_c, 0, 81, 45
2, 93502, Note_on_c, 0, 81, 0
2, 93504, Note_on_c, 0, 84, 45
2, 93526, Note_on_c, 0, 84, 0
2, 93528, Note_on_c, 0, 83, 45
2, 93550, Note_on_c, 0, 83, 0
2, 93552, Note_on_c, 0, 81, 45
2, 93574, Note_on_c, 0, 81, 0
2, 93576, Note_on_c, 0, 79, 45
2, 93598, Note_on_c, 0, 79, 0
2, 93600, Note_on_c, 0, 78, 45
2, 93622, Note_on_c, 0, 78, 0
2, 93624, Note_on_c, 0, 79, 45
2, 93646, Note_on_c, 0, 79, 0
2, 93648, Note_on_c, 0, 81, 45
2, 93670, Note_on_c, 0, 81, 0
2, 93672, Note_on_c, 0, 79, 45
2, 93694, Note_on_c, 0, 79, 0
2, 93696, Note_on_c, 0, 83, 45
2, 93726, Note_on_c, 0, 83, 0
2, 93728, Note_on_c, 0, 81, 45
2, 93758, Note_on_c, 0, 81, 0
2, 93760, Note_on_c, 0, 84, 45
2, 93790, Note_on_c, 0, 84, 0
2, 93792, Note_on_c, 0, 83, 45
2, 93822, Note_on_c, 0, 83, 0
2, 93824, Note_on_c, 0, 86, 46
2, 93854, Note_on_c, 0, 86, 0
2, 93856, Note_on_c, 0, 84, 47
2, 93886, Note_on_c, 0, 84, 0
2, 93888, Note_on_c, 0, 83, 48
2, 93910, Note_on_c, 0, 83, 0
2, 93912, Note_on_c, 0, 81, 48
2, 93934, Note_on_c, 0, 81, 0
2, 93936, Note_on_c, 0, 79, 48
2, 93958, Note_on_c, 0, 79, 0
2, 93960, Note_on_c, 0, 78, 48
2, 93982, Note_on_c, 0, 78, 0
2, 93984, Note_on_c, 0, 76, 48
2, 94006, Note_on_c, 0, 76, 0
2, 94008, Note_on_c, 0, 74, 49
2, 94030, Note_on_c, 0, 74, 0
2, 94032, Note_on_c, 0, 72, 50
2, 94054, Note_on_c, 0, 72, 0
2, 94056, Note_on_c, 0, 71, 51
2, 94078, Note_on_c, 0, 71, 0
2, 94080, Note_on_c, 0, 69, 52
2, 94240, Note_on_c, 0, 69, 0
2, 94272, Note_on_c, 0, 68, 60
2, 94294, Note_on_c, 0, 68, 0
2, 94296, Note_on_c, 0, 69, 60
2, 94318, Note_on_c, 0, 69, 0
2, 94320, Note_on_c, 0, 74, 60
2, 94462, Note_on_c, 0, 74, 0
2, 94464, Note_on_c, 0, 73, 60
2, 94624, Note_on_c, 0, 73, 0
2, 94656, Note_on_c, 0, 72, 60
2, 94816, Note_on_c, 0, 72, 0
2, 94848, Note_on_c, 0, 71, 60
2, 94870, Note_on_c, 0, 71, 0
2, 94872, Note_on_c, 0, 74, 60
2, 94894, Note_on_c, 0, 74, 0
2, 94896, Note_on_c, 0, 72, 60
2, 94918, Note_on_c, 0, 72, 0
2, 94920, Note_on_c, 0, 71, 60
2, 95038, Note_on_c, 0, 71, 0
2, 95040, Note_on_c, 0, 72, 60
2, 95064, Note_on_c, 0, 74, 60
2, 95086, Note_on_c, 0, 74, 0
2, 95088, Note_on_c, 0, 76, 60
2, 95110, Note_on_c, 0, 76, 0
2, 95112, Note_on_c, 0, 74, 60
2, 95134, Note_on_c, 0, 74, 0
2, 95136, Note_on_c, 0, 76, 60
2, 95158, Note_on_c, 0, 76, 0
2, 95160, Note_on_c, 0, 74, 60
2, 95182, Note_on_c, 0, 72, 0
2, 95182, Note_on_c, 0, 74, 0
2, 95184, Note_on_c, 0, 71, 60
2, 95206, Note_on_c, 0, 71, 0
2, 95208, Note_on_c, 0, 72, 60
2, 95230, Note_on_c, 0, 72, 0
2, 95232, Note_on_c, 0, 74, 60
2, 95392, Note_on_c, 0, 74, 0
2, 95424, Note_on_c, 0, 74, 60
2, 95446, Note_on_c, 0, 74, 0
2, 95448, Note_on_c, 0, 73, 60
2, 95470, Note_on_c, 0, 73, 0
2, 95472, Note_on_c, 0, 76, 60
2, 95494, Note_on_c, 0, 76, 0
2, 95496, Note_on_c, 0, 74, 60
2, 95518, Note_on_c, 0, 74, 0
2, 95520, Note_on_c, 0, 72, 60
2, 95542, Note_on_c, 0, 72, 0
2, 95544, Note_on_c, 0, 71, 60
2, 95566, Note_on_c, 0, 71, 0
2, 95568, Note_on_c, 0, 69, 60
2, 95590, Note_on_c, 0, 69, 0
2, 95592, Note_on_c, 0, 67, 60
2, 95614, Note_on_c, 0, 67, 0
2, 95616, Note_on_c, 0, 60, 60
2, 95616, Note_on_c, 0, 66, 60
2, 95648, Note_on_c, 0, 60, 0
2, 95648, Note_on_c, 0, 66, 0
2, 95784, Note_on_c, 0, 62, 60
2, 95806, Note_on_c, 0, 62, 0
2, 95808, Note_on_c, 0, 59, 60
2, 95808, Note_on_c, 0, 67, 60
2, 95840, Note_on_c, 0, 59, 0
2, 95840, Note_on_c, 0, 67, 0
2, 95976, Note_on_c, 0, 62, 60
2, 95992, Note_on_c, 0, 62, 0
2, 96000, Note_on_c, 0, 67, 60
2, 96000, Note_on_c, 0, 71, 60
2, 96094, Note_on_c, 0, 67, 0
2, 96096, Note_on_c, 0, 62, 60
2, 96160, Note_on_c, 0, 71, 0
2, 96190, Note_on_c, 0, 62, 0
2, 96192, Note_on_c, 0, 66, 60
2, 96192, Note_on_c, 0, 69, 60
2, 96286, Note_on_c, 0, 66, 0
2, 96286, Note_on_c, 0, 69, 0
2, 96288, Note_on_c, 0, 62, 60
2, 96382, Note_on_c, 0, 62, 0
2, 96384, Note_on_c, 0, 71, 60
2, 96384, Note_on_c, 0, 76, 60
2, 96478, Note_on_c, 0, 71, 0
2, 96480, Note_on_c, 0, 68, 60
2, 96544, Note_on_c, 0, 76, 0
2, 96574, Note_on_c, 0, 68, 0
2, 96576, Note_on_c, 0, 72, 60
2, 96576, Note_on_c, 0, 76, 60
2, 96598, Note_on_c, 0, 76, 0
2, 96600, Note_on_c, 0, 75, 60
2, 96622, Note_on_c, 0, 75, 0
2, 96624, Note_on_c, 0, 77, 60
2, 96646, Note_on_c, 0, 77, 0
2, 96648, Note_on_c, 0, 76, 60
2, 96670, Note_on_c, 0, 72, 0
2, 96670, Note_on_c, 0, 76, 0
2, 96672, Note_on_c, 0, 74, 60
2, 96694, Note_on_c, 0, 74, 0
2, 96696, Note_on_c, 0, 72, 60
2, 96718, Note_on_c, 0, 72, 0
2, 96720, Note_on_c, 0, 71, 60
2, 96742, Note_on_c, 0, 71, 0
2, 96744, Note_on_c, 0, 69, 60
2, 96760, Note_on_c, 0, 69, 0
2, 96768, Note_on_c, 0, 69, 60
2, 96768, Note_on_c, 0, 74, 60
2, 96862, Note_on_c, 0, 69, 0
2, 96864, Note_on_c, 0, 66, 60
2, 96928, Note_on_c, 0, 74, 0
2, 96958, Note_on_c, 0, 66, 0
2, 96960, Note_on_c, 0, 71, 60
2, 96960, Note_on_c, 0, 74, 60
2, 96982, Note_on_c, 0, 74, 0
2, 96984, Note_on_c, 0, 73, 60
2, 97006, Note_on_c, 0, 73, 0
2, 97008, Note_on_c, 0, 76, 60
2, 97030, Note_on_c, 0, 76, 0
2, 97032, Note_on_c, 0, 74, 60
2, 97054, Note_on_c, 0, 71, 0
2, 97054, Note_on_c, 0, 74, 0
2, 97056, Note_on_c, 0, 72, 60
2, 97078, Note_on_c, 0, 72, 0
2, 97080, Note_on_c, 0, 71, 60
2, 97102, Note_on_c, 0, 71, 0
2, 97104, Note_on_c, 0, 69, 60
2, 97126, Note_on_c, 0, 69, 0
2, 97128, Note_on_c, 0, 67, 60
2, 97144, Note_on_c, 0, 67, 0
2, 97200, Note_on_c, 0, 68, 60
2, 97200, Note_on_c, 0, 76, 60
2, 97232, Note_on_c, 0, 68, 0
2, 97232, Note_on_c, 0, 76, 0
2, 97248, Note_on_c, 0, 69, 60
2, 97248, Note_on_c, 0, 78, 60
2, 97280, Note_on_c, 0, 69, 0
2, 97280, Note_on_c, 0, 78, 0
2, 97296, Note_on_c, 0, 71, 60
2, 97296, Note_on_c, 0, 80, 60
2, 97328, Note_on_c, 0, 71, 0
2, 97328, Note_on_c, 0, 80, 0
2, 97344, Note_on_c, 0, 72, 60
2, 97344, Note_on_c, 0, 81, 60
2, 97376, Note_on_c, 0, 72, 0
2, 97376, Note_on_c, 0, 81, 0
2, 97392, Note_on_c, 0, 74, 60
2, 97392, Note_on_c, 0, 83, 60
2, 97424, Note_on_c, 0, 74, 0
2, 97424, Note_on_c, 0, 83, 0
2, 97440, Note_on_c, 0, 76, 60
2, 97440, Note_on_c, 0, 84, 60
2, 97472, Note_on_c, 0, 76, 0
2, 97472, Note_on_c, 0, 84, 0
2, 97584, Note_on_c, 0, 66, 60
2, 97584, Note_on_c, 0, 74, 60
2, 97616, Note_on_c, 0, 66, 0
2, 97616, Note_on_c, 0, 74, 0
2, 97632, Note_on_c, 0, 67, 60
2, 97632, Note_on_c, 0, 76, 60
2, 97664, Note_on_c, 0, 67, 0
2, 97664, Note_on_c, 0, 76, 0
2, 97680, Note_on_c, 0, 69, 60
2, 97680, Note_on_c, 0, 78, 60
2, 97712, Note_on_c, 0, 69, 0
2, 97712, Note_on_c, 0, 78, 0
2, 97728, Note_on_c, 0, 71, 60
2, 97728, Note_on_c, 0, 79, 60
2, 97760, Note_on_c, 0, 71, 0
2, 97760, Note_on_c, 0, 79, 0
2, 97776, Note_on_c, 0, 72, 60
2, 97776, Note_on_c, 0, 81, 60
2, 97808, Note_on_c, 0, 72, 0
2, 97808, Note_on_c, 0, 81, 0
2, 97824, Note_on_c, 0, 74, 60
2, 97824, Note_on_c, 0, 83, 60
2, 97856, Note_on_c, 0, 74, 0
2, 97856, Note_on_c, 0, 83, 0
2, 97920, Note_on_c, 0, 76, 84
2, 97942, Note_on_c, 0, 76, 0
2, 97944, Note_on_c, 0, 88, 84
2, 98112, Note_on_c, 0, 88, 0
2, 98112, Note_on_c, 0, 88, 60
2, 98134, Note_on_c, 0, 88, 0
2, 98136, Note_on_c, 0, 87, 60
2, 98158, Note_on_c, 0, 87, 0
2, 98160, Note_on_c, 0, 89, 60
2, 98182, Note_on_c, 0, 89, 0
2, 98184, Note_on_c, 0, 88, 60
2, 98206, Note_on_c, 0, 88, 0
2, 98208, Note_on_c, 0, 86, 60
2, 98230, Note_on_c, 0, 86, 0
2, 98232, Note_on_c, 0, 84, 60
2, 98254, Note_on_c, 0, 84, 0
2, 98256, Note_on_c, 0, 83, 60
2, 98278, Note_on_c, 0, 83, 0
2, 98280, Note_on_c, 0, 81, 60
2, 98296, Note_on_c, 0, 81, 0
2, 98304, Note_on_c, 0, 74, 84
2, 98328, Note_on_c, 0, 74, 0
2, 98328, Note_on_c, 0, 86, 84
2, 98494, Note_on_c, 0, 86, 0
2, 98496, Note_on_c, 0, 86, 60
2, 98518, Note_on_c, 0, 86, 0
2, 98520, Note_on_c, 0, 85, 60
2, 98542, Note_on_c, 0, 85, 0
2, 98544, Note_on_c, 0, 88, 60
2, 98566, Note_on_c, 0, 88, 0
2, 98568, Note_on_c, 0, 86, 60
2, 98590, Note_on_c, 0, 86, 0
2, 98592, Note_on_c, 0, 84, 60
2, 98614, Note_on_c, 0, 84, 0
2, 98616, Note_on_c, 0, 83, 60
2, 98638, Note_on_c, 0, 83, 0
2, 98640, Note_on_c, 0, 81, 60
2, 98662, Note_on_c, 0, 81, 0
2, 98664, Note_on_c, 0, 79, 60
2, 98680, Note_on_c, 0, 79, 0
2, 98688, Note_on_c, 0, 86, 60
2, 98710, Note_on_c, 0, 86, 0
2, 98712, Note_on_c, 0, 85, 61
2, 98734, Note_on_c, 0, 85, 0
2, 98736, Note_on_c, 0, 88, 62
2, 98758, Note_on_c, 0, 88, 0
2, 98760, Note_on_c, 0, 86, 63
2, 98782, Note_on_c, 0, 86, 0
2, 98784, Note_on_c, 0, 84, 64
2, 98806, Note_on_c, 0, 84, 0
2, 98808, Note_on_c, 0, 83, 65
2, 98830, Note_on_c, 0, 83, 0
2, 98832, Note_on_c, 0, 81, 66
2, 98854, Note_on_c, 0, 81, 0
2, 98856, Note_on_c, 0, 79, 67
2, 98872, Note_on_c, 0, 79, 0
2, 98880, Note_on_c, 0, 86, 68
2, 98902, Note_on_c, 0, 86, 0
2, 98904, Note_on_c, 0, 85, 69
2, 98926, Note_on_c, 0, 85, 0
2, 98928, Note_on_c, 0, 88, 70
2, 98950, Note_on_c, 0, 88, 0
2, 98952, Note_on_c, 0, 86, 71
2, 98974, Note_on_c, 0, 86, 0
2, 98976, Note_on_c, 0, 84, 72
2, 98998, Note_on_c, 0, 84, 0
2, 99000, Note_on_c, 0, 83, 73
2, 99022, Note_on_c, 0, 83, 0
2, 99024, Note_on_c, 0, 81, 74
2, 99046, Note_on_c, 0, 81, 0
2, 99048, Note_on_c, 0, 79, 75
2, 99064, Note_on_c, 0, 79, 0
2, 99072, Note_on_c, 0, 86, 76
2, 99094, Note_on_c, 0, 86, 0
2, 99096, Note_on_c, 0, 85, 78
2, 99118, Note_on_c, 0, 85, 0
2, 99120, Note_on_c, 0, 88, 80
2, 99142, Note_on_c, 0, 88, 0
2, 99144, Note_on_c, 0, 86, 82
2, 99166, Note_on_c, 0, 86, 0
2, 99168, Note_on_c, 0, 84, 84
2, 99190, Note_on_c, 0, 84, 0
2, 99192, Note_on_c, 0, 83, 86
2, 99214, Note_on_c, 0, 83, 0
2, 99216, Note_on_c, 0, 81, 88
2, 99238, Note_on_c, 0, 81, 0
2, 99240, Note_on_c, 0, 79, 90
2, 99256, Note_on_c, 0, 79, 0
2, 99264, Note_on_c, 0, 86, 92
2, 99286, Note_on_c, 0, 86, 0
2, 99288, Note_on_c, 0, 85, 94
2, 99310, Note_on_c, 0, 85, 0
2, 99312, Note_on_c, 0, 88, 96
2, 99334, Note_on_c, 0, 88, 0
2, 99336, Note_on_c, 0, 86, 98
2, 99358, Note_on_c, 0, 86, 0
2, 99360, Note_on_c, 0, 84, 100
2, 99382, Note_on_c, 0, 84, 0
2, 99384, Note_on_c, 0, 83, 102
2, 99406, Note_on_c, 0, 83, 0
2, 99408, Note_on_c, 0, 81, 104
2, 99430, Note_on_c, 0, 81, 0
2, 99432, Note_on_c, 0, 79, 106
2, 99448, Note_on_c, 0, 79, 0
2, 99456, Note_on_c, 0, 86, 108
2, 99478, Note_on_c, 0, 86, 0
2, 99480, Note_on_c, 0, 85, 108
2, 99502, Note_on_c, 0, 85, 0
2, 99504, Note_on_c, 0, 88, 108
2, 99526, Note_on_c, 0, 88, 0
2, 99528, Note_on_c, 0, 86, 108
2, 99550, Note_on_c, 0, 86, 0
2, 99552, Note_on_c, 0, 84, 108
2, 99574, Note_on_c, 0, 84, 0
2, 99576, Note_on_c, 0, 83, 108
2, 99598, Note_on_c, 0, 83, 0
2, 99600, Note_on_c, 0, 81, 108
2, 99622, Note_on_c, 0, 81, 0
2, 99624, Note_on_c, 0, 79, 108
2, 99640, Note_on_c, 0, 79, 0
2, 99648, Note_on_c, 0, 78, 108
2, 99670, Note_on_c, 0, 78, 0
2, 99672, Note_on_c, 0, 79, 108
2, 99694, Note_on_c, 0, 79, 0
2, 99696, Note_on_c, 0, 83, 108
2, 99718, Note_on_c, 0, 83, 0
2, 99720, Note_on_c, 0, 81, 108
2, 99742, Note_on_c, 0, 81, 0
2, 99744, Note_on_c, 0, 79, 108
2, 99766, Note_on_c, 0, 79, 0
2, 99768, Note_on_c, 0, 78, 108
2, 99790, Note_on_c, 0, 78, 0
2, 99792, Note_on_c, 0, 76, 108
2, 99814, Note_on_c, 0, 76, 0
2, 99816, Note_on_c, 0, 74, 108
2, 99832, Note_on_c, 0, 74, 0
2, 99840, Note_on_c, 0, 73, 108
2, 99862, Note_on_c, 0, 73, 0
2, 99864, Note_on_c, 0, 74, 107
2, 99886, Note_on_c, 0, 74, 0
2, 99888, Note_on_c, 0, 83, 106
2, 99910, Note_on_c, 0, 83, 0
2, 99912, Note_on_c, 0, 81, 105
2, 99934, Note_on_c, 0, 81, 0
2, 99936, Note_on_c, 0, 79, 104
2, 99958, Note_on_c, 0, 79, 0
2, 99960, Note_on_c, 0, 78, 103
2, 99982, Note_on_c, 0, 78, 0
2, 99984, Note_on_c, 0, 76, 102
2, 100006, Note_on_c, 0, 76, 0
2, 100008, Note_on_c, 0, 74, 101
2, 100024, Note_on_c, 0, 74, 0
2, 100032, Note_on_c, 0, 73, 100
2, 100054, Note_on_c, 0, 73, 0
2, 100056, Note_on_c, 0, 74, 99
2, 100078, Note_on_c, 0, 74, 0
2, 100080, Note_on_c, 0, 79, 98
2, 100102, Note_on_c, 0, 79, 0
2, 100104, Note_on_c, 0, 78, 97
2, 100126, Note_on_c, 0, 78, 0
2, 100128, Note_on_c, 0, 76, 96
2, 100150, Note_on_c, 0, 76, 0
2, 100152, Note_on_c, 0, 74, 95
2, 100174, Note_on_c, 0, 74, 0
2, 100176, Note_on_c, 0, 72, 94
2, 100198, Note_on_c, 0, 72, 0
2, 100200, Note_on_c, 0, 71, 93
2, 100216, Note_on_c, 0, 71, 0
2, 100224, Note_on_c, 0, 69, 92
2, 100256, Note_on_c, 0, 69, 0
2, 100272, Note_on_c, 0, 76, 92
2, 100414, Note_on_c, 0, 76, 0
2, 100416, Note_on_c, 0, 76, 92
2, 100558, Note_on_c, 0, 76, 0
2, 100560, Note_on_c, 0, 75, 92
2, 100592, Note_on_c, 0, 75, 0
2, 100608, Note_on_c, 0, 74, 92
2, 100640, Note_on_c, 0, 74, 0
2, 100656, Note_on_c, 0, 73, 87
2, 100688, Note_on_c, 0, 73, 0
2, 100704, Note_on_c, 0, 72, 81
2, 100736, Note_on_c, 0, 72, 0
2, 100752, Note_on_c, 0, 71, 75
2, 100784, Note_on_c, 0, 71, 0
2, 100800, Note_on_c, 0, 70, 69
2, 100816, Note_on_c, 0, 70, 0
2, 100824, Note_on_c, 0, 69, 66
2, 100840, Note_on_c, 0, 69, 0
2, 100848, Note_on_c, 0, 74, 63
2, 100864, Note_on_c, 0, 74, 0
2, 100944, Note_on_c, 0, 66, 51
2, 100976, Note_on_c, 0, 66, 0
2, 100992, Note_on_c, 0, 59, 45
2, 100992, Note_on_c, 0, 67, 45
2, 101086, Note_on_c, 0, 59, 0
2, 101088, Note_on_c, 0, 62, 45
2, 101152, Note_on_c, 0, 67, 0
2, 101182, Note_on_c, 0, 62, 0
2, 101184, Note_on_c, 0, 60, 45
2, 101184, Note_on_c, 0, 66, 45
2, 101278, Note_on_c, 0, 60, 0
2, 101280, Note_on_c, 0, 62, 45
2, 101344, Note_on_c, 0, 66, 0
2, 101374, Note_on_c, 0, 62, 0
2, 101376, Note_on_c, 0, 59, 45
2, 101376, Note_on_c, 0, 67, 45
2, 101470, Note_on_c, 0, 59, 0
2, 101472, Note_on_c, 0, 62, 45
2, 101536, Note_on_c, 0, 67, 0
2, 101566, Note_on_c, 0, 62, 0
2, 101568, Note_on_c, 0, 66, 45
2, 101568, Note_on_c, 0, 69, 45
2, 101662, Note_on_c, 0, 66, 0
2, 101664, Note_on_c, 0, 62, 45
2, 101728, Note_on_c, 0, 69, 0
2, 101758, Note_on_c, 0, 62, 0
2, 101760, Note_on_c, 0, 67, 45
2, 101760, Note_on_c, 0, 71, 45
2, 101854, Note_on_c, 0, 67, 0
2, 101856, Note_on_c, 0, 62, 45
2, 101950, Note_on_c, 0, 62, 0
2, 101952, Note_on_c, 0, 67, 45
2, 102046, Note_on_c, 0, 67, 0
2, 102048, Note_on_c, 0, 62, 45
2, 102096, Note_on_c, 0, 71, 0
2, 102142, Note_on_c, 0, 62, 0
2, 102144, Note_on_c, 0, 66, 45
2, 102144, Note_on_c, 0, 72, 45
2, 102238, Note_on_c, 0, 66, 0
2, 102240, Note_on_c, 0, 62, 45
2, 102304, Note_on_c, 0, 72, 0
2, 102334, Note_on_c, 0, 62, 0
2, 102336, Note_on_c, 0, 60, 45
2, 102336, Note_on_c, 0, 66, 45
2, 102336, Note_on_c, 0, 69, 45
2, 102430, Note_on_c, 0, 60, 0
2, 102432, Note_on_c, 0, 62, 45
2, 102496, Note_on_c, 0, 66, 0
2, 102496, Note_on_c, 0, 69, 0
2, 102526, Note_on_c, 0, 62, 0
2, 102528, Note_on_c, 0, 59, 45
2, 102574, Note_on_c, 0, 59, 0
2, 102576, Note_on_c, 0, 67, 45
2, 102622, Note_on_c, 0, 67, 0
2, 102624, Note_on_c, 0, 62, 45
2, 102670, Note_on_c, 0, 62, 0
2, 102672, Note_on_c, 0, 67, 45
2, 102718, Note_on_c, 0, 67, 0
2, 102720, Note_on_c, 0, 60, 45
2, 102766, Note_on_c, 0, 60, 0
2, 102768, Note_on_c, 0, 66, 45
2, 102814, Note_on_c, 0, 66, 0
2, 102816, Note_on_c, 0, 62, 45
2, 102862, Note_on_c, 0, 62, 0
2, 102864, Note_on_c, 0, 66, 45
2, 102910, Note_on_c, 0, 66, 0
2, 102912, Note_on_c, 0, 59, 45
2, 102958, Note_on_c, 0, 59, 0
2, 102960, Note_on_c, 0, 67, 45
2, 103006, Note_on_c, 0, 67, 0
2, 103008, Note_on_c, 0, 62, 45
2, 103054, Note_on_c, 0, 62, 0
2, 103056, Note_on_c, 0, 67, 45
2, 103102, Note_on_c, 0, 67, 0
2, 103104, Note_on_c, 0, 62, 45
2, 103150, Note_on_c, 0, 62, 0
2, 103152, Note_on_c, 0, 69, 45
2, 103198, Note_on_c, 0, 69, 0
2, 103200, Note_on_c, 0, 66, 45
2, 103246, Note_on_c, 0, 66, 0
2, 103248, Note_on_c, 0, 69, 45
2, 103294, Note_on_c, 0, 69, 0
2, 103296, Note_on_c, 0, 62, 45
2, 103342, Note_on_c, 0, 62, 0
2, 103344, Note_on_c, 0, 71, 45
2, 103390, Note_on_c, 0, 71, 0
2, 103392, Note_on_c, 0, 67, 45
2, 103438, Note_on_c, 0, 67, 0
2, 103440, Note_on_c, 0, 71, 45
2, 103486, Note_on_c, 0, 71, 0
2, 103488, Note_on_c, 0, 62, 45
2, 103534, Note_on_c, 0, 62, 0
2, 103536, Note_on_c, 0, 71, 45
2, 103582, Note_on_c, 0, 71, 0
2, 103584, Note_on_c, 0, 67, 45
2, 103630, Note_on_c, 0, 67, 0
2, 103632, Note_on_c, 0, 71, 45
2, 103678, Note_on_c, 0, 71, 0
2, 103680, Note_on_c, 0, 62, 45
2, 103726, Note_on_c, 0, 62, 0
2, 103728, Note_on_c, 0, 72, 45
2, 103774, Note_on_c, 0, 72, 0
2, 103776, Note_on_c, 0, 66, 45
2, 103822, Note_on_c, 0, 66, 0
2, 103824, Note_on_c, 0, 72, 45
2, 103870, Note_on_c, 0, 72, 0
2, 103872, Note_on_c, 0, 62, 45
2, 103918, Note_on_c, 0, 62, 0
2, 103920, Note_on_c, 0, 69, 45
2, 103966, Note_on_c, 0, 69, 0
2, 103968, Note_on_c, 0, 66, 45
2, 104014, Note_on_c, 0, 66, 0
2, 104016, Note_on_c, 0, 69, 45
2, 104048, Note_on_c, 0, 69, 0
2, 104064, Note_on_c, 0, 62, 45
2, 104094, Note_on_c, 0, 62, 0
2, 104096, Note_on_c, 0, 71, 46
2, 104126, Note_on_c, 0, 71, 0
2, 104128, Note_on_c, 0, 67, 48
2, 104158, Note_on_c, 0, 67, 0
2, 104160, Note_on_c, 0, 71, 50
2, 104190, Note_on_c, 0, 71, 0
2, 104192, Note_on_c, 0, 67, 52
2, 104222, Note_on_c, 0, 67, 0
2, 104224, Note_on_c, 0, 71, 54
2, 104254, Note_on_c, 0, 71, 0
2, 104256, Note_on_c, 0, 62, 56
2, 104286, Note_on_c, 0, 62, 0
2, 104288, Note_on_c, 0, 71, 58
2, 104318, Note_on_c, 0, 71, 0
2, 104320, Note_on_c, 0, 67, 60
2, 104350, Note_on_c, 0, 67, 0
2, 104352, Note_on_c, 0, 71, 62
2, 104382, Note_on_c, 0, 71, 0
2, 104384, Note_on_c, 0, 67, 64
2, 104414, Note_on_c, 0, 67, 0
2, 104416, Note_on_c, 0, 71, 66
2, 104446, Note_on_c, 0, 71, 0
2, 104448, Note_on_c, 0, 62, 68
2, 104478, Note_on_c, 0, 62, 0
2, 104480, Note_on_c, 0, 72, 70
2, 104510, Note_on_c, 0, 72, 0
2, 104512, Note_on_c, 0, 66, 72
2, 104542, Note_on_c, 0, 66, 0
2, 104544, Note_on_c, 0, 72, 74
2, 104574, Note_on_c, 0, 72, 0
2, 104576, Note_on_c, 0, 66, 76
2, 104606, Note_on_c, 0, 66, 0
2, 104608, Note_on_c, 0, 72, 78
2, 104638, Note_on_c, 0, 72, 0
2, 104640, Note_on_c, 0, 62, 80
2, 104670, Note_on_c, 0, 62, 0
2, 104672, Note_on_c, 0, 69, 82
2, 104702, Note_on_c, 0, 69, 0
2, 104704, Note_on_c, 0, 66, 84
2, 104734, Note_on_c, 0, 66, 0
2, 104736, Note_on_c, 0, 69, 86
2, 104766, Note_on_c, 0, 69, 0
2, 104768, Note_on_c, 0, 66, 88
2, 104798, Note_on_c, 0, 66, 0
2, 104800, Note_on_c, 0, 69, 90
2, 104821, Note_on_c, 0, 69, 0
2, 104832, Note_on_c, 0, 62, 92
2, 104854, Note_on_c, 0, 62, 0
2, 104856, Note_on_c, 0, 71, 92
2, 104878, Note_on_c, 0, 71, 0
2, 104880, Note_on_c, 0, 67, 92
2, 104902, Note_on_c, 0, 67, 0
2, 104904, Note_on_c, 0, 71, 92
2, 104926, Note_on_c, 0, 71, 0
2, 104928, Note_on_c, 0, 62, 92
2, 104950, Note_on_c, 0, 62, 0
2, 104952, Note_on_c, 0, 71, 92
2, 104974, Note_on_c, 0, 71, 0
2, 104976, Note_on_c, 0, 67, 92
2, 104998, Note_on_c, 0, 67, 0
2, 105000, Note_on_c, 0, 71, 92
2, 105022, Note_on_c, 0, 71, 0
2, 105024, Note_on_c, 0, 62, 92
2, 105046, Note_on_c, 0, 62, 0
2, 105048, Note_on_c, 0, 71, 92
2, 105070, Note_on_c, 0, 71, 0
2, 105072, Note_on_c, 0, 67, 92
2, 105094, Note_on_c, 0, 67, 0
2, 105096, Note_on_c, 0, 71, 92
2, 105118, Note_on_c, 0, 71, 0
2, 105120, Note_on_c, 0, 62, 92
2, 105142, Note_on_c, 0, 62, 0
2, 105144, Note_on_c, 0, 71, 92
2, 105166, Note_on_c, 0, 71, 0
2, 105168, Note_on_c, 0, 67, 92
2, 105190, Note_on_c, 0, 67, 0
2, 105192, Note_on_c, 0, 71, 92
2, 105214, Note_on_c, 0, 71, 0
2, 105216, Note_on_c, 0, 62, 92
2, 105238, Note_on_c, 0, 62, 0
2, 105240, Note_on_c, 0, 72, 90
2, 105262, Note_on_c, 0, 72, 0
2, 105264, Note_on_c, 0, 66, 88
2, 105286, Note_on_c, 0, 66, 0
2, 105288, Note_on_c, 0, 72, 86
2, 105310, Note_on_c, 0, 72, 0
2, 105312, Note_on_c, 0, 62, 84
2, 105334, Note_on_c, 0, 62, 0
2, 105336, Note_on_c, 0, 72, 82
2, 105358, Note_on_c, 0, 72, 0
2, 105360, Note_on_c, 0, 66, 80
2, 105382, Note_on_c, 0, 66, 0
2, 105384, Note_on_c, 0, 72, 78
2, 105406, Note_on_c, 0, 72, 0
2, 105408, Note_on_c, 0, 60, 76
2, 105430, Note_on_c, 0, 60, 0
2, 105432, Note_on_c, 0, 69, 74
2, 105454, Note_on_c, 0, 69, 0
2, 105456, Note_on_c, 0, 66, 72
2, 105478, Note_on_c, 0, 66, 0
2, 105480, Note_on_c, 0, 69, 70
2, 105502, Note_on_c, 0, 69, 0
2, 105504, Note_on_c, 0, 60, 68
2, 105526, Note_on_c, 0, 60, 0
2, 105528, Note_on_c, 0, 69, 66
2, 105550, Note_on_c, 0, 69, 0
2, 105552, Note_on_c, 0, 66, 64
2, 105574, Note_on_c, 0, 66, 0
2, 105576, Note_on_c, 0, 69, 62
2, 105598, Note_on_c, 0, 69, 0
2, 105600, Note_on_c, 0, 59, 60
2, 105600, Note_on_c, 0, 67, 60
2, 105632, Note_on_c, 0, 59, 0
2, 105632, Note_on_c, 0, 67, 0
2, 105792, Note_on_c, 0, 86, 45
2, 105814, Note_on_c, 0, 86, 0
2, 105816, Note_on_c, 0, 85, 45
2, 105838, Note_on_c, 0, 85, 0
2, 105840, Note_on_c, 0, 88, 45
2, 105862, Note_on_c, 0, 88, 0
2, 105864, Note_on_c, 0, 86, 45
2, 105886, Note_on_c, 0, 86, 0
2, 105888, Note_on_c, 0, 84, 45
2, 105910, Note_on_c, 0, 84, 0
2, 105912, Note_on_c, 0, 83, 45
2, 105934, Note_on_c, 0, 83, 0
2, 105936, Note_on_c, 0, 84, 45
2, 105958, Note_on_c, 0, 84, 0
2, 105960, Note_on_c, 0, 81, 45
2, 105982, Note_on_c, 0, 81, 0
2, 105984, Note_on_c, 0, 79, 45
2, 106016, Note_on_c, 0, 79, 0
2, 106176, Note_on_c, 0, 74, 45
2, 106198, Note_on_c, 0, 74, 0
2, 106200, Note_on_c, 0, 73, 46
2, 106222, Note_on_c, 0, 73, 0
2, 106224, Note_on_c, 0, 76, 47
2, 106246, Note_on_c, 0, 76, 0
2, 106248, Note_on_c, 0, 74, 48
2, 106270, Note_on_c, 0, 74, 0
2, 106272, Note_on_c, 0, 78, 50
2, 106294, Note_on_c, 0, 78, 0
2, 106296, Note_on_c, 0, 76, 52
2, 106318, Note_on_c, 0, 76, 0
2, 106320, Note_on_c, 0, 79, 54
2, 106342, Note_on_c, 0, 79, 0
2, 106344, Note_on_c, 0, 78, 56
2, 106366, Note_on_c, 0, 78, 0
2, 106368, Note_on_c, 0, 81, 58
2, 106390, Note_on_c, 0, 81, 0
2, 106392, Note_on_c, 0, 80, 60
2, 106414, Note_on_c, 0, 80, 0
2, 106416, Note_on_c, 0, 83, 62
2, 106438, Note_on_c, 0, 83, 0
2, 106440, Note_on_c, 0, 81, 64
2, 106462, Note_on_c, 0, 81, 0
2, 106464, Note_on_c, 0, 84, 66
2, 106486, Note_on_c, 0, 84, 0
2, 106488, Note_on_c, 0, 83, 68
2, 106510, Note_on_c, 0, 83, 0
2, 106512, Note_on_c, 0, 86, 70
2, 106534, Note_on_c, 0, 86, 0
2, 106536, Note_on_c, 0, 84, 72
2, 106558, Note_on_c, 0, 84, 0
2, 106560, Note_on_c, 0, 83, 74
2, 106582, Note_on_c, 0, 83, 0
2, 106584, Note_on_c, 0, 81, 76
2, 106606, Note_on_c, 0, 81, 0
2, 106608, Note_on_c, 0, 79, 78
2, 106630, Note_on_c, 0, 79, 0
2, 106632, Note_on_c, 0, 78, 80
2, 106654, Note_on_c, 0, 78, 0
2, 106656, Note_on_c, 0, 76, 82
2, 106678, Note_on_c, 0, 76, 0
2, 106680, Note_on_c, 0, 74, 84
2, 106702, Note_on_c, 0, 74, 0
2, 106704, Note_on_c, 0, 72, 86
2, 106726, Note_on_c, 0, 72, 0
2, 106728, Note_on_c, 0, 71, 88
2, 106750, Note_on_c, 0, 71, 0
2, 106752, Note_on_c, 0, 69, 90
2, 106774, Note_on_c, 0, 69, 0
2, 106776, Note_on_c, 0, 67, 92
2, 106808, Note_on_c, 0, 67, 0
2, 106968, Note_on_c, 0, 71, 108
2, 106968, Note_on_c, 0, 74, 108
2, 106968, Note_on_c, 0, 79, 108
2, 106968, Note_on_c, 0, 83, 108
2, 107000, Note_on_c, 0, 71, 0
2, 107000, Note_on_c, 0, 74, 0
2, 107000, Note_on_c, 0, 79, 0
2, 107000, Note_on_c, 0, 83, 0
2, 107160, Note_on_c, 0, 67, 108
2, 107160, Note_on_c, 0, 71, 108
2, 107160, Note_on_c, 0, 74, 108
2, 107160, Note_on_c, 0, 79, 108
2, 107192, Note_on_c, 0, 67, 0
2, 107192, Note_on_c, 0, 71, 0
2, 107192, Note_on_c, 0, 74, 0
2, 107192, Note_on_c, 0, 79, 0
2, 107192, End_track
3, 0, Start_track
3, 0, MIDI_port, 0
3, 0, Title_t, "Reginald Steven Ritchie"
3, 0, Program_c, 1, 0
3, 0, Control_c, 1, 7, 127
3, 0, Control_c, 1, 10, 9
3, 0, Program_c, 1, 0
3, 0, Control_c, 1, 7, 127
3, 0, Control_c, 1, 10, 9
3, 0, Control_c, 1, 91, 83
3, 0, Control_c, 1, 93, 78
3, 0, Note_on_c, 1, 43, 60
3, 0, Note_on_c, 1, 55, 60
3, 94, Note_on_c, 1, 55, 0
3, 96, Note_on_c, 1, 50, 60
3, 190, Note_on_c, 1, 50, 0
3, 192, Note_on_c, 1, 57, 60
3, 286, Note_on_c, 1, 57, 0
3, 288, Note_on_c, 1, 50, 60
3, 336, Note_on_c, 1, 43, 0
3, 382, Note_on_c, 1, 50, 0
3, 384, Note_on_c, 1, 43, 60
3, 384, Note_on_c, 1, 59, 60
3, 478, Note_on_c, 1, 59, 0
3, 480, Note_on_c, 1, 50, 60
3, 574, Note_on_c, 1, 50, 0
3, 576, Note_on_c, 1, 59, 60
3, 670, Note_on_c, 1, 59, 0
3, 672, Note_on_c, 1, 50, 60
3, 720, Note_on_c, 1, 43, 0
3, 766, Note_on_c, 1, 50, 0
3, 768, Note_on_c, 1, 45, 60
3, 768, Note_on_c, 1, 45, 60
3, 862, Note_on_c, 1, 45, 0
3, 864, Note_on_c, 1, 50, 60
3, 928, Note_on_c, 1, 45, 0
3, 958, Note_on_c, 1, 50, 0
3, 960, Note_on_c, 1, 43, 60
3, 960, Note_on_c, 1, 43, 60
3, 1054, Note_on_c, 1, 43, 0
3, 1056, Note_on_c, 1, 50, 60
3, 1120, Note_on_c, 1, 43, 0
3, 1150, Note_on_c, 1, 50, 0
3, 1152, Note_on_c, 1, 38, 60
3, 1152, Note_on_c, 1, 50, 60
3, 1488, Note_on_c, 1, 38, 0
3, 1488, Note_on_c, 1, 50, 0
3, 1536, Note_on_c, 1, 51, 60
3, 1630, Note_on_c, 1, 51, 0
3, 1632, Note_on_c, 1, 47, 60
3, 1726, Note_on_c, 1, 47, 0
3, 1728, Note_on_c, 1, 52, 60
3, 1822, Note_on_c, 1, 52, 0
3, 1824, Note_on_c, 1, 55, 60
3, 1918, Note_on_c, 1, 55, 0
3, 1920, Note_on_c, 1, 49, 60
3, 2014, Note_on_c, 1, 49, 0
3, 2016, Note_on_c, 1, 45, 60
3, 2110, Note_on_c, 1, 45, 0
3, 2112, Note_on_c, 1, 50, 60
3, 2206, Note_on_c, 1, 50, 0
3, 2208, Note_on_c, 1, 54, 60
3, 2240, Note_on_c, 1, 54, 0
3, 2304, Note_on_c, 1, 57, 60
3, 2400, Note_on_c, 1, 45, 60
3, 2464, Note_on_c, 1, 57, 0
3, 2496, Note_on_c, 1, 55, 60
3, 2560, Note_on_c, 1, 45, 0
3, 2592, Note_on_c, 1, 45, 60
3, 2656, Note_on_c, 1, 55, 0
3, 2686, Note_on_c, 1, 45, 0
3, 2688, Note_on_c, 1, 50, 60
3, 2688, Note_on_c, 1, 54, 60
3, 2782, Note_on_c, 1, 50, 0
3, 2782, Note_on_c, 1, 54, 0
3, 3072, Note_on_c, 1, 38, 60
3, 3232, Note_on_c, 1, 38, 0
3, 3264, Note_on_c, 1, 38, 60
3, 3286, Note_on_c, 1, 38, 0
3, 3288, Note_on_c, 1, 40, 60
3, 3310, Note_on_c, 1, 40, 0
3, 3312, Note_on_c, 1, 42, 60
3, 3334, Note_on_c, 1, 42, 0
3, 3336, Note_on_c, 1, 43, 60
3, 3358, Note_on_c, 1, 43, 0
3, 3360, Note_on_c, 1, 45, 60
3, 3382, Note_on_c, 1, 45, 0
3, 3384, Note_on_c, 1, 47, 60
3, 3406, Note_on_c, 1, 47, 0
3, 3408, Note_on_c, 1, 48, 60
3, 3430, Note_on_c, 1, 48, 0
3, 3432, Note_on_c, 1, 49, 60
3, 3454, Note_on_c, 1, 49, 0
3, 3456, Note_on_c, 1, 50, 60
3, 3616, Note_on_c, 1, 50, 0
3, 3648, Note_on_c, 1, 50, 60
3, 3670, Note_on_c, 1, 50, 0
3, 3672, Note_on_c, 1, 52, 60
3, 3694, Note_on_c, 1, 52, 0
3, 3696, Note_on_c, 1, 54, 60
3, 3718, Note_on_c, 1, 54, 0
3, 3720, Note_on_c, 1, 55, 60
3, 3742, Note_on_c, 1, 55, 0
3, 3744, Note_on_c, 1, 57, 60
3, 3766, Note_on_c, 1, 57, 0
3, 3768, Note_on_c, 1, 59, 60
3, 3790, Note_on_c, 1, 59, 0
3, 3792, Note_on_c, 1, 60, 60
3, 3814, Note_on_c, 1, 60, 0
3, 3816, Note_on_c, 1, 61, 60
3, 3838, Note_on_c, 1, 61, 0
3, 3840, Note_on_c, 1, 57, 60
3, 3840, Note_on_c, 1, 60, 60
3, 3934, Note_on_c, 1, 60, 0
3, 3936, Note_on_c, 1, 62, 60
3, 4000, Note_on_c, 1, 57, 0
3, 4030, Note_on_c, 1, 62, 0
3, 4032, Note_on_c, 1, 55, 60
3, 4032, Note_on_c, 1, 59, 60
3, 4126, Note_on_c, 1, 59, 0
3, 4128, Note_on_c, 1, 62, 60
3, 4192, Note_on_c, 1, 55, 0
3, 4222, Note_on_c, 1, 62, 0
3, 4224, Note_on_c, 1, 54, 60
3, 4224, Note_on_c, 1, 57, 60
3, 4256, Note_on_c, 1, 54, 0
3, 4256, Note_on_c, 1, 57, 0
3, 4608, Note_on_c, 1, 31, 60
3, 4768, Note_on_c, 1, 31, 0
3, 4800, Note_on_c, 1, 31, 60
3, 4822, Note_on_c, 1, 31, 0
3, 4824, Note_on_c, 1, 33, 60
3, 4846, Note_on_c, 1, 33, 0
3, 4848, Note_on_c, 1, 35, 60
3, 4870, Note_on_c, 1, 35, 0
3, 4872, Note_on_c, 1, 36, 60
3, 4894, Note_on_c, 1, 36, 0
3, 4896, Note_on_c, 1, 38, 60
3, 4918, Note_on_c, 1, 38, 0
3, 4920, Note_on_c, 1, 40, 60
3, 4942, Note_on_c, 1, 40, 0
3, 4944, Note_on_c, 1, 41, 60
3, 4966, Note_on_c, 1, 41, 0
3, 4968, Note_on_c, 1, 42, 60
3, 4990, Note_on_c, 1, 42, 0
3, 4992, Note_on_c, 1, 43, 60
3, 5152, Note_on_c, 1, 43, 0
3, 5184, Note_on_c, 1, 43, 60
3, 5206, Note_on_c, 1, 43, 0
3, 5208, Note_on_c, 1, 45, 60
3, 5230, Note_on_c, 1, 45, 0
3, 5232, Note_on_c, 1, 47, 60
3, 5254, Note_on_c, 1, 47, 0
3, 5256, Note_on_c, 1, 48, 60
3, 5278, Note_on_c, 1, 48, 0
3, 5280, Note_on_c, 1, 50, 60
3, 5302, Note_on_c, 1, 50, 0
3, 5304, Note_on_c, 1, 52, 60
3, 5326, Note_on_c, 1, 52, 0
3, 5328, Note_on_c, 1, 53, 60
3, 5350, Note_on_c, 1, 53, 0
3, 5352, Note_on_c, 1, 54, 60
3, 5374, Note_on_c, 1, 54, 0
3, 5472, Note_on_c, 1, 55, 60
3, 5566, Note_on_c, 1, 55, 0
3, 5568, Note_on_c, 1, 48, 60
3, 5568, Note_on_c, 1, 52, 60
3, 5662, Note_on_c, 1, 52, 0
3, 5664, Note_on_c, 1, 55, 60
3, 5728, Note_on_c, 1, 48, 0
3, 5758, Note_on_c, 1, 55, 0
3, 5760, Note_on_c, 1, 47, 60
3, 5760, Note_on_c, 1, 50, 60
3, 5854, Note_on_c, 1, 50, 0
3, 5856, Note_on_c, 1, 55, 60
3, 5920, Note_on_c, 1, 47, 0
3, 5950, Note_on_c, 1, 55, 0
3, 5952, Note_on_c, 1, 50, 60
3, 5952, Note_on_c, 1, 57, 60
3, 6046, Note_on_c, 1, 57, 0
3, 6048, Note_on_c, 1, 54, 60
3, 6112, Note_on_c, 1, 50, 0
3, 6142, Note_on_c, 1, 54, 0
3, 6144, Note_on_c, 1, 43, 60
3, 6144, Note_on_c, 1, 55, 60
3, 6238, Note_on_c, 1, 55, 0
3, 6240, Note_on_c, 1, 50, 60
3, 6334, Note_on_c, 1, 50, 0
3, 6336, Note_on_c, 1, 57, 60
3, 6430, Note_on_c, 1, 57, 0
3, 6432, Note_on_c, 1, 50, 60
3, 6480, Note_on_c, 1, 43, 0
3, 6526, Note_on_c, 1, 50, 0
3, 6528, Note_on_c, 1, 43, 60
3, 6528, Note_on_c, 1, 59, 60
3, 6622, Note_on_c, 1, 59, 0
3, 6624, Note_on_c, 1, 50, 60
3, 6718, Note_on_c, 1, 50, 0
3, 6720, Note_on_c, 1, 59, 60
3, 6814, Note_on_c, 1, 59, 0
3, 6816, Note_on_c, 1, 50, 60
3, 6864, Note_on_c, 1, 43, 0
3, 6910, Note_on_c, 1, 50, 0
3, 6912, Note_on_c, 1, 45, 60
3, 6912, Note_on_c, 1, 57, 60
3, 7006, Note_on_c, 1, 57, 0
3, 7008, Note_on_c, 1, 50, 60
3, 7072, Note_on_c, 1, 45, 0
3, 7102, Note_on_c, 1, 50, 0
3, 7104, Note_on_c, 1, 43, 60
3, 7104, Note_on_c, 1, 43, 60
3, 7198, Note_on_c, 1, 43, 0
3, 7200, Note_on_c, 1, 50, 60
3, 7264, Note_on_c, 1, 43, 0
3, 7294, Note_on_c, 1, 50, 0
3, 7296, Note_on_c, 1, 38, 60
3, 7296, Note_on_c, 1, 50, 60
3, 7632, Note_on_c, 1, 38, 0
3, 7632, Note_on_c, 1, 50, 0
3, 7680, Note_on_c, 1, 50, 60
3, 7680, Note_on_c, 1, 56, 60
3, 7774, Note_on_c, 1, 56, 0
3, 7776, Note_on_c, 1, 52, 60
3, 7840, Note_on_c, 1, 50, 0
3, 7870, Note_on_c, 1, 52, 0
3, 7872, Note_on_c, 1, 48, 60
3, 7872, Note_on_c, 1, 57, 60
3, 7966, Note_on_c, 1, 57, 0
3, 7968, Note_on_c, 1, 60, 60
3, 8000, Note_on_c, 1, 60, 0
3, 8032, Note_on_c, 1, 48, 0
3, 8064, Note_on_c, 1, 48, 60
3, 8064, Note_on_c, 1, 54, 60
3, 8158, Note_on_c, 1, 54, 0
3, 8160, Note_on_c, 1, 50, 60
3, 8224, Note_on_c, 1, 48, 0
3, 8254, Note_on_c, 1, 50, 0
3, 8256, Note_on_c, 1, 47, 60
3, 8256, Note_on_c, 1, 55, 60
3, 8350, Note_on_c, 1, 55, 0
3, 8352, Note_on_c, 1, 59, 60
3, 8416, Note_on_c, 1, 47, 0
3, 8446, Note_on_c, 1, 59, 0
3, 8448, Note_on_c, 1, 50, 60
3, 8448, Note_on_c, 1, 50, 60
3, 8608, Note_on_c, 1, 50, 0
3, 8640, Note_on_c, 1, 38, 60
3, 8784, Note_on_c, 1, 50, 0
3, 8800, Note_on_c, 1, 38, 0
3, 8832, Note_on_c, 1, 43, 60
3, 8864, Note_on_c, 1, 43, 0
3, 8880, Note_on_c, 1, 55, 60
3, 8912, Note_on_c, 1, 55, 0
3, 8928, Note_on_c, 1, 57, 60
3, 8960, Note_on_c, 1, 57, 0
3, 8976, Note_on_c, 1, 59, 60
3, 9008, Note_on_c, 1, 59, 0
3, 9024, Note_on_c, 1, 60, 60
3, 9056, Note_on_c, 1, 60, 0
3, 9072, Note_on_c, 1, 61, 60
3, 9104, Note_on_c, 1, 61, 0
3, 9120, Note_on_c, 1, 62, 60
3, 9152, Note_on_c, 1, 62, 0
3, 9168, Note_on_c, 1, 63, 60
3, 9200, Note_on_c, 1, 63, 0
3, 9216, Note_on_c, 1, 64, 60
3, 9376, Note_on_c, 1, 64, 0
3, 9408, Note_on_c, 1, 64, 60
3, 9430, Note_on_c, 1, 64, 0
3, 9432, Note_on_c, 1, 63, 60
3, 9454, Note_on_c, 1, 63, 0
3, 9456, Note_on_c, 1, 65, 60
3, 9478, Note_on_c, 1, 65, 0
3, 9480, Note_on_c, 1, 64, 60
3, 9502, Note_on_c, 1, 64, 0
3, 9504, Note_on_c, 1, 62, 60
3, 9526, Note_on_c, 1, 62, 0
3, 9528, Note_on_c, 1, 60, 60
3, 9550, Note_on_c, 1, 60, 0
3, 9552, Note_on_c, 1, 59, 60
3, 9574, Note_on_c, 1, 59, 0
3, 9576, Note_on_c, 1, 57, 60
3, 9592, Note_on_c, 1, 57, 0
3, 9600, Note_on_c, 1, 62, 60
3, 9760, Note_on_c, 1, 62, 0
3, 9792, Note_on_c, 1, 62, 60
3, 9814, Note_on_c, 1, 62, 0
3, 9816, Note_on_c, 1, 61, 60
3, 9838, Note_on_c, 1, 61, 0
3, 9840, Note_on_c, 1, 64, 60
3, 9862, Note_on_c, 1, 64, 0
3, 9864, Note_on_c, 1, 62, 60
3, 9886, Note_on_c, 1, 62, 0
3, 9888, Note_on_c, 1, 60, 60
3, 9910, Note_on_c, 1, 60, 0
3, 9912, Note_on_c, 1, 59, 60
3, 9934, Note_on_c, 1, 59, 0
3, 9936, Note_on_c, 1, 57, 60
3, 9958, Note_on_c, 1, 57, 0
3, 9960, Note_on_c, 1, 55, 60
3, 9976, Note_on_c, 1, 55, 0
3, 9984, Note_on_c, 1, 56, 60
3, 9984, Note_on_c, 1, 59, 60
3, 10078, Note_on_c, 1, 56, 0
3, 10078, Note_on_c, 1, 59, 0
3, 10080, Note_on_c, 1, 52, 62
3, 10080, Note_on_c, 1, 56, 62
3, 10174, Note_on_c, 1, 52, 0
3, 10174, Note_on_c, 1, 56, 0
3, 10176, Note_on_c, 1, 57, 64
3, 10176, Note_on_c, 1, 60, 64
3, 10270, Note_on_c, 1, 57, 0
3, 10270, Note_on_c, 1, 60, 0
3, 10368, Note_on_c, 1, 54, 68
3, 10368, Note_on_c, 1, 57, 68
3, 10462, Note_on_c, 1, 54, 0
3, 10462, Note_on_c, 1, 57, 0
3, 10464, Note_on_c, 1, 50, 70
3, 10464, Note_on_c, 1, 54, 70
3, 10558, Note_on_c, 1, 50, 0
3, 10558, Note_on_c, 1, 54, 0
3, 10560, Note_on_c, 1, 55, 72
3, 10560, Note_on_c, 1, 59, 72
3, 10654, Note_on_c, 1, 55, 0
3, 10654, Note_on_c, 1, 59, 0
3, 10752, Note_on_c, 1, 52, 76
3, 10752, Note_on_c, 1, 55, 76
3, 10846, Note_on_c, 1, 52, 0
3, 10846, Note_on_c, 1, 55, 0
3, 10848, Note_on_c, 1, 54, 78
3, 10848, Note_on_c, 1, 57, 78
3, 10942, Note_on_c, 1, 54, 0
3, 10942, Note_on_c, 1, 57, 0
3, 10944, Note_on_c, 1, 51, 80
3, 10944, Note_on_c, 1, 54, 80
3, 11038, Note_on_c, 1, 51, 0
3, 11038, Note_on_c, 1, 54, 0
3, 11040, Note_on_c, 1, 52, 82
3, 11040, Note_on_c, 1, 55, 82
3, 11134, Note_on_c, 1, 52, 0
3, 11134, Note_on_c, 1, 55, 0
3, 11136, Note_on_c, 1, 49, 84
3, 11136, Note_on_c, 1, 52, 84
3, 11230, Note_on_c, 1, 49, 0
3, 11230, Note_on_c, 1, 52, 0
3, 11232, Note_on_c, 1, 50, 86
3, 11232, Note_on_c, 1, 54, 86
3, 11326, Note_on_c, 1, 50, 0
3, 11326, Note_on_c, 1, 54, 0
3, 11328, Note_on_c, 1, 47, 88
3, 11328, Note_on_c, 1, 50, 88
3, 11422, Note_on_c, 1, 47, 0
3, 11422, Note_on_c, 1, 50, 0
3, 11424, Note_on_c, 1, 52, 90
3, 11518, Note_on_c, 1, 52, 0
3, 11520, Note_on_c, 1, 45, 92
3, 11520, Note_on_c, 1, 49, 92
3, 11520, Note_on_c, 1, 52, 92
3, 11552, Note_on_c, 1, 45, 0
3, 11552, Note_on_c, 1, 49, 0
3, 11552, Note_on_c, 1, 52, 0
3, 11904, Note_on_c, 1, 59, 45
3, 11904, Note_on_c, 1, 62, 45
3, 11904, Note_on_c, 1, 64, 45
3, 11936, Note_on_c, 1, 59, 0
3, 11936, Note_on_c, 1, 62, 0
3, 11936, Note_on_c, 1, 64, 0
3, 12096, Note_on_c, 1, 59, 45
3, 12096, Note_on_c, 1, 62, 45
3, 12096, Note_on_c, 1, 64, 45
3, 12128, Note_on_c, 1, 59, 0
3, 12128, Note_on_c, 1, 62, 0
3, 12128, Note_on_c, 1, 64, 0
3, 12288, Note_on_c, 1, 45, 92
3, 12288, Note_on_c, 1, 49, 92
3, 12288, Note_on_c, 1, 52, 92
3, 12288, Note_on_c, 1, 57, 92
3, 12320, Note_on_c, 1, 45, 0
3, 12320, Note_on_c, 1, 49, 0
3, 12320, Note_on_c, 1, 52, 0
3, 12320, Note_on_c, 1, 57, 0
3, 12672, Note_on_c, 1, 59, 45
3, 12672, Note_on_c, 1, 62, 45
3, 12672, Note_on_c, 1, 64, 45
3, 12704, Note_on_c, 1, 59, 0
3, 12704, Note_on_c, 1, 62, 0
3, 12704, Note_on_c, 1, 64, 0
3, 12864, Note_on_c, 1, 59, 45
3, 12864, Note_on_c, 1, 62, 45
3, 12864, Note_on_c, 1, 64, 45
3, 12896, Note_on_c, 1, 59, 0
3, 12896, Note_on_c, 1, 62, 0
3, 12896, Note_on_c, 1, 64, 0
3, 13056, Note_on_c, 1, 45, 45
3, 13056, Note_on_c, 1, 49, 45
3, 13056, Note_on_c, 1, 52, 45
3, 13056, Note_on_c, 1, 57, 45
3, 13088, Note_on_c, 1, 45, 0
3, 13088, Note_on_c, 1, 49, 0
3, 13088, Note_on_c, 1, 52, 0
3, 13088, Note_on_c, 1, 57, 0
3, 13920, Note_on_c, 1, 67, 45
3, 13920, Note_on_c, 1, 73, 45
3, 13920, Note_on_c, 1, 76, 45
3, 13952, Note_on_c, 1, 67, 0
3, 13952, Note_on_c, 1, 73, 0
3, 13952, Note_on_c, 1, 76, 0
3, 14016, Note_on_c, 1, 67, 45
3, 14016, Note_on_c, 1, 73, 45
3, 14016, Note_on_c, 1, 76, 45
3, 14048, Note_on_c, 1, 67, 0
3, 14048, Note_on_c, 1, 73, 0
3, 14048, Note_on_c, 1, 76, 0
3, 14304, Note_on_c, 1, 66, 45
3, 14304, Note_on_c, 1, 69, 45
3, 14304, Note_on_c, 1, 74, 45
3, 14336, Note_on_c, 1, 66, 0
3, 14336, Note_on_c, 1, 69, 0
3, 14336, Note_on_c, 1, 74, 0
3, 14400, Note_on_c, 1, 66, 45
3, 14400, Note_on_c, 1, 69, 45
3, 14400, Note_on_c, 1, 74, 45
3, 14432, Note_on_c, 1, 66, 0
3, 14432, Note_on_c, 1, 69, 0
3, 14432, Note_on_c, 1, 74, 0
3, 14688, Note_on_c, 1, 64, 45
3, 14688, Note_on_c, 1, 67, 45
3, 14720, Note_on_c, 1, 64, 0
3, 14720, Note_on_c, 1, 67, 0
3, 14880, Note_on_c, 1, 57, 45
3, 14880, Note_on_c, 1, 64, 45
3, 14880, Note_on_c, 1, 67, 45
3, 14912, Note_on_c, 1, 57, 0
3, 14912, Note_on_c, 1, 64, 0
3, 14912, Note_on_c, 1, 67, 0
3, 15072, Note_on_c, 1, 62, 45
3, 15072, Note_on_c, 1, 66, 45
3, 15166, Note_on_c, 1, 62, 0
3, 15166, Note_on_c, 1, 66, 0
3, 15168, Note_on_c, 1, 66, 45
3, 15168, Note_on_c, 1, 69, 45
3, 15262, Note_on_c, 1, 66, 0
3, 15262, Note_on_c, 1, 69, 0
3, 15264, Note_on_c, 1, 69, 45
3, 15264, Note_on_c, 1, 74, 45
3, 15296, Note_on_c, 1, 69, 0
3, 15296, Note_on_c, 1, 74, 0
3, 15456, Note_on_c, 1, 67, 45
3, 15456, Note_on_c, 1, 73, 45
3, 15456, Note_on_c, 1, 76, 45
3, 15488, Note_on_c, 1, 67, 0
3, 15488, Note_on_c, 1, 73, 0
3, 15488, Note_on_c, 1, 76, 0
3, 15552, Note_on_c, 1, 67, 45
3, 15552, Note_on_c, 1, 73, 45
3, 15552, Note_on_c, 1, 76, 45
3, 15584, Note_on_c, 1, 67, 0
3, 15584, Note_on_c, 1, 73, 0
3, 15584, Note_on_c, 1, 76, 0
3, 15840, Note_on_c, 1, 66, 45
3, 15840, Note_on_c, 1, 69, 45
3, 15840, Note_on_c, 1, 74, 45
3, 15872, Note_on_c, 1, 66, 0
3, 15872, Note_on_c, 1, 69, 0
3, 15872, Note_on_c, 1, 74, 0
3, 15936, Note_on_c, 1, 66, 45
3, 15936, Note_on_c, 1, 69, 45
3, 15936, Note_on_c, 1, 74, 45
3, 15968, Note_on_c, 1, 66, 0
3, 15968, Note_on_c, 1, 69, 0
3, 15968, Note_on_c, 1, 74, 0
3, 16248, Note_on_c, 1, 64, 45
3, 16248, Note_on_c, 1, 67, 45
3, 16280, Note_on_c, 1, 64, 0
3, 16280, Note_on_c, 1, 67, 0
3, 16440, Note_on_c, 1, 57, 45
3, 16440, Note_on_c, 1, 64, 45
3, 16440, Note_on_c, 1, 67, 45
3, 16472, Note_on_c, 1, 57, 0
3, 16472, Note_on_c, 1, 64, 0
3, 16472, Note_on_c, 1, 67, 0
3, 16632, Note_on_c, 1, 62, 45
3, 16702, Note_on_c, 1, 62, 0
3, 16704, Note_on_c, 1, 66, 45
3, 16726, Note_on_c, 1, 66, 0
3, 16728, Note_on_c, 1, 69, 45
3, 16888, Note_on_c, 1, 69, 0
3, 17016, Note_on_c, 1, 61, 45
3, 17086, Note_on_c, 1, 61, 0
3, 17088, Note_on_c, 1, 64, 45
3, 17110, Note_on_c, 1, 64, 0
3, 17112, Note_on_c, 1, 70, 45
3, 17272, Note_on_c, 1, 70, 0
3, 17352, Note_on_c, 1, 59, 45
3, 17374, Note_on_c, 1, 59, 0
3, 17376, Note_on_c, 1, 62, 45
3, 17398, Note_on_c, 1, 62, 0
3, 17400, Note_on_c, 1, 66, 45
3, 17432, Note_on_c, 1, 66, 0
3, 17544, Note_on_c, 1, 57, 45
3, 17566, Note_on_c, 1, 57, 0
3, 17568, Note_on_c, 1, 60, 45
3, 17590, Note_on_c, 1, 60, 0
3, 17592, Note_on_c, 1, 66, 45
3, 17624, Note_on_c, 1, 66, 0
3, 17736, Note_on_c, 1, 55, 45
3, 17758, Note_on_c, 1, 55, 0
3, 17760, Note_on_c, 1, 59, 45
3, 17782, Note_on_c, 1, 59, 0
3, 17784, Note_on_c, 1, 62, 45
3, 17816, Note_on_c, 1, 62, 0
3, 17928, Note_on_c, 1, 54, 46
3, 17950, Note_on_c, 1, 54, 0
3, 17952, Note_on_c, 1, 57, 46
3, 17974, Note_on_c, 1, 57, 0
3, 17976, Note_on_c, 1, 63, 46
3, 18008, Note_on_c, 1, 63, 0
3, 18072, Note_on_c, 1, 52, 47
3, 18118, Note_on_c, 1, 52, 0
3, 18120, Note_on_c, 1, 64, 47
3, 18166, Note_on_c, 1, 64, 0
3, 18168, Note_on_c, 1, 50, 47
3, 18214, Note_on_c, 1, 50, 0
3, 18216, Note_on_c, 1, 62, 47
3, 18262, Note_on_c, 1, 62, 0
3, 18264, Note_on_c, 1, 49, 47
3, 18310, Note_on_c, 1, 49, 0
3, 18312, Note_on_c, 1, 61, 47
3, 18358, Note_on_c, 1, 61, 0
3, 18360, Note_on_c, 1, 47, 47
3, 18406, Note_on_c, 1, 47, 0
3, 18408, Note_on_c, 1, 59, 47
3, 18454, Note_on_c, 1, 59, 0
3, 18456, Note_on_c, 1, 45, 65
3, 18456, Note_on_c, 1, 57, 65
3, 18792, Note_on_c, 1, 45, 0
3, 18792, Note_on_c, 1, 57, 0
3, 18840, Note_on_c, 1, 50, 74
3, 18872, Note_on_c, 1, 50, 0
3, 19032, Note_on_c, 1, 43, 78
3, 19032, Note_on_c, 1, 47, 78
3, 19032, Note_on_c, 1, 52, 78
3, 19064, Note_on_c, 1, 43, 0
3, 19064, Note_on_c, 1, 47, 0
3, 19064, Note_on_c, 1, 52, 0
3, 19224, Note_on_c, 1, 45, 60
3, 19224, Note_on_c, 1, 50, 60
3, 19224, Note_on_c, 1, 54, 60
3, 19256, Note_on_c, 1, 45, 0
3, 19256, Note_on_c, 1, 50, 0
3, 19256, Note_on_c, 1, 54, 0
3, 19320, Note_on_c, 1, 57, 60
3, 19320, Note_on_c, 1, 66, 60
3, 19414, Note_on_c, 1, 66, 0
3, 19416, Note_on_c, 1, 61, 60
3, 19576, Note_on_c, 1, 57, 0
3, 19576, Note_on_c, 1, 61, 0
3, 19608, Note_on_c, 1, 50, 60
3, 19638, Note_on_c, 1, 50, 0
3, 19640, Note_on_c, 1, 54, 60
3, 19670, Note_on_c, 1, 54, 0
3, 19672, Note_on_c, 1, 57, 60
3, 19702, Note_on_c, 1, 57, 0
3, 19704, Note_on_c, 1, 62, 60
3, 19734, Note_on_c, 1, 62, 0
3, 19736, Note_on_c, 1, 66, 60
3, 19766, Note_on_c, 1, 66, 0
3, 19768, Note_on_c, 1, 69, 60
3, 19798, Note_on_c, 1, 69, 0
3, 19800, Note_on_c, 1, 74, 60
3, 19832, Note_on_c, 1, 74, 0
3, 19992, Note_on_c, 1, 61, 60
3, 20022, Note_on_c, 1, 61, 0
3, 20024, Note_on_c, 1, 64, 60
3, 20054, Note_on_c, 1, 64, 0
3, 20056, Note_on_c, 1, 66, 60
3, 20086, Note_on_c, 1, 66, 0
3, 20088, Note_on_c, 1, 70, 60
3, 20118, Note_on_c, 1, 70, 0
3, 20120, Note_on_c, 1, 66, 60
3, 20150, Note_on_c, 1, 66, 0
3, 20152, Note_on_c, 1, 64, 60
3, 20182, Note_on_c, 1, 64, 0
3, 20184, Note_on_c, 1, 61, 60
3, 20216, Note_on_c, 1, 61, 0
3, 20408, Note_on_c, 1, 59, 60
3, 20438, Note_on_c, 1, 59, 0
3, 20440, Note_on_c, 1, 62, 60
3, 20470, Note_on_c, 1, 62, 0
3, 20472, Note_on_c, 1, 66, 60
3, 20504, Note_on_c, 1, 66, 0
3, 20600, Note_on_c, 1, 57, 63
3, 20630, Note_on_c, 1, 57, 0
3, 20632, Note_on_c, 1, 60, 63
3, 20662, Note_on_c, 1, 60, 0
3, 20664, Note_on_c, 1, 66, 64
3, 20696, Note_on_c, 1, 66, 0
3, 20792, Note_on_c, 1, 55, 68
3, 20822, Note_on_c, 1, 55, 0
3, 20824, Note_on_c, 1, 59, 69
3, 20854, Note_on_c, 1, 59, 0
3, 20856, Note_on_c, 1, 62, 70
3, 20888, Note_on_c, 1, 62, 0
3, 20984, Note_on_c, 1, 54, 74
3, 21014, Note_on_c, 1, 54, 0
3, 21016, Note_on_c, 1, 57, 75
3, 21046, Note_on_c, 1, 57, 0
3, 21048, Note_on_c, 1, 63, 76
3, 21142, Note_on_c, 1, 63, 0
3, 21144, Note_on_c, 1, 52, 79
3, 21174, Note_on_c, 1, 52, 0
3, 21176, Note_on_c, 1, 55, 80
3, 21206, Note_on_c, 1, 55, 0
3, 21208, Note_on_c, 1, 64, 81
3, 21238, Note_on_c, 1, 64, 0
3, 21240, Note_on_c, 1, 50, 82
3, 21270, Note_on_c, 1, 50, 0
3, 21272, Note_on_c, 1, 54, 83
3, 21302, Note_on_c, 1, 54, 0
3, 21304, Note_on_c, 1, 62, 84
3, 21334, Note_on_c, 1, 62, 0
3, 21336, Note_on_c, 1, 49, 85
3, 21366, Note_on_c, 1, 49, 0
3, 21368, Note_on_c, 1, 52, 86
3, 21398, Note_on_c, 1, 52, 0
3, 21400, Note_on_c, 1, 61, 87
3, 21430, Note_on_c, 1, 61, 0
3, 21432, Note_on_c, 1, 47, 88
3, 21462, Note_on_c, 1, 47, 0
3, 21464, Note_on_c, 1, 50, 89
3, 21494, Note_on_c, 1, 50, 0
3, 21496, Note_on_c, 1, 59, 90
3, 21526, Note_on_c, 1, 59, 0
3, 21528, Note_on_c, 1, 45, 92
3, 21528, Note_on_c, 1, 49, 92
3, 21528, Note_on_c, 1, 57, 92
3, 21784, Note_on_c, 1, 57, 0
3, 21816, Note_on_c, 1, 52, 92
3, 21864, Note_on_c, 1, 45, 0
3, 21864, Note_on_c, 1, 49, 0
3, 21910, Note_on_c, 1, 52, 0
3, 21912, Note_on_c, 1, 50, 127
3, 21912, Note_on_c, 1, 54, 127
3, 21944, Note_on_c, 1, 50, 0
3, 21944, Note_on_c, 1, 54, 0
3, 22104, Note_on_c, 1, 43, 127
3, 22104, Note_on_c, 1, 47, 127
3, 22104, Note_on_c, 1, 52, 127
3, 22136, Note_on_c, 1, 43, 0
3, 22136, Note_on_c, 1, 47, 0
3, 22136, Note_on_c, 1, 52, 0
3, 22296, Note_on_c, 1, 45, 92
3, 22296, Note_on_c, 1, 50, 92
3, 22296, Note_on_c, 1, 54, 92
3, 22328, Note_on_c, 1, 45, 0
3, 22328, Note_on_c, 1, 50, 0
3, 22328, Note_on_c, 1, 54, 0
3, 22680, Note_on_c, 1, 33, 92
3, 22680, Note_on_c, 1, 45, 92
3, 22712, Note_on_c, 1, 33, 0
3, 22712, Note_on_c, 1, 45, 0
3, 23064, Note_on_c, 1, 50, 45
3, 23224, Note_on_c, 1, 50, 0
3, 23256, Note_on_c, 1, 50, 45
3, 23278, Note_on_c, 1, 50, 0
3, 23280, Note_on_c, 1, 49, 45
3, 23302, Note_on_c, 1, 49, 0
3, 23304, Note_on_c, 1, 52, 45
3, 23326, Note_on_c, 1, 52, 0
3, 23328, Note_on_c, 1, 50, 45
3, 23350, Note_on_c, 1, 50, 0
3, 23352, Note_on_c, 1, 48, 45
3, 23374, Note_on_c, 1, 48, 0
3, 23376, Note_on_c, 1, 47, 45
3, 23398, Note_on_c, 1, 47, 0
3, 23400, Note_on_c, 1, 45, 45
3, 23422, Note_on_c, 1, 45, 0
3, 23424, Note_on_c, 1, 43, 45
3, 23446, Note_on_c, 1, 43, 0
3, 23448, Note_on_c, 1, 42, 45
3, 23614, Note_on_c, 1, 42, 0
3, 23616, Note_on_c, 1, 38, 45
3, 23632, Note_on_c, 1, 38, 0
3, 23640, Note_on_c, 1, 43, 45
3, 23806, Note_on_c, 1, 43, 0
3, 23808, Note_on_c, 1, 47, 45
3, 23824, Note_on_c, 1, 47, 0
3, 23832, Note_on_c, 1, 50, 45
3, 23992, Note_on_c, 1, 50, 0
3, 24024, Note_on_c, 1, 50, 45
3, 24046, Note_on_c, 1, 50, 0
3, 24048, Note_on_c, 1, 49, 45
3, 24070, Note_on_c, 1, 49, 0
3, 24072, Note_on_c, 1, 52, 45
3, 24094, Note_on_c, 1, 52, 0
3, 24096, Note_on_c, 1, 50, 45
3, 24118, Note_on_c, 1, 50, 0
3, 24120, Note_on_c, 1, 48, 45
3, 24142, Note_on_c, 1, 48, 0
3, 24144, Note_on_c, 1, 47, 45
3, 24166, Note_on_c, 1, 47, 0
3, 24168, Note_on_c, 1, 45, 45
3, 24190, Note_on_c, 1, 45, 0
3, 24192, Note_on_c, 1, 43, 45
3, 24214, Note_on_c, 1, 43, 0
3, 24216, Note_on_c, 1, 42, 45
3, 24382, Note_on_c, 1, 42, 0
3, 24384, Note_on_c, 1, 38, 50
3, 24400, Note_on_c, 1, 38, 0
3, 24408, Note_on_c, 1, 43, 50
3, 24574, Note_on_c, 1, 43, 0
3, 24576, Note_on_c, 1, 47, 55
3, 24592, Note_on_c, 1, 47, 0
3, 24600, Note_on_c, 1, 44, 55
3, 24766, Note_on_c, 1, 44, 0
3, 24768, Note_on_c, 1, 40, 60
3, 24784, Note_on_c, 1, 40, 0
3, 24792, Note_on_c, 1, 45, 60
3, 24958, Note_on_c, 1, 45, 0
3, 24960, Note_on_c, 1, 48, 65
3, 24976, Note_on_c, 1, 48, 0
3, 24984, Note_on_c, 1, 47, 65
3, 25150, Note_on_c, 1, 47, 0
3, 25152, Note_on_c, 1, 43, 70
3, 25168, Note_on_c, 1, 43, 0
3, 25176, Note_on_c, 1, 48, 70
3, 25342, Note_on_c, 1, 48, 0
3, 25344, Note_on_c, 1, 52, 76
3, 25360, Note_on_c, 1, 52, 0
3, 25368, Note_on_c, 1, 45, 76
3, 25534, Note_on_c, 1, 45, 0
3, 25536, Note_on_c, 1, 48, 83
3, 25552, Note_on_c, 1, 48, 0
3, 25560, Note_on_c, 1, 42, 84
3, 25726, Note_on_c, 1, 42, 0
3, 25728, Note_on_c, 1, 45, 91
3, 25744, Note_on_c, 1, 45, 0
3, 25752, Note_on_c, 1, 38, 92
3, 26088, Note_on_c, 1, 38, 0
3, 26136, Note_on_c, 1, 38, 92
3, 26520, Note_on_c, 1, 38, 0
3, 26520, Note_on_c, 1, 38, 92
3, 26856, Note_on_c, 1, 38, 0
3, 26904, Note_on_c, 1, 38, 92
3, 26998, Note_on_c, 1, 38, 0
3, 28440, Note_on_c, 1, 43, 45
3, 28440, Note_on_c, 1, 55, 45
3, 28534, Note_on_c, 1, 55, 0
3, 28536, Note_on_c, 1, 50, 45
3, 28630, Note_on_c, 1, 50, 0
3, 28632, Note_on_c, 1, 57, 45
3, 28726, Note_on_c, 1, 57, 0
3, 28728, Note_on_c, 1, 50, 45
3, 28776, Note_on_c, 1, 43, 0
3, 28822, Note_on_c, 1, 50, 0
3, 28824, Note_on_c, 1, 43, 45
3, 28824, Note_on_c, 1, 59, 45
3, 28918, Note_on_c, 1, 59, 0
3, 28920, Note_on_c, 1, 50, 45
3, 29014, Note_on_c, 1, 50, 0
3, 29016, Note_on_c, 1, 59, 45
3, 29110, Note_on_c, 1, 59, 0
3, 29112, Note_on_c, 1, 50, 45
3, 29160, Note_on_c, 1, 43, 0
3, 29206, Note_on_c, 1, 50, 0
3, 29208, Note_on_c, 1, 45, 45
3, 29208, Note_on_c, 1, 45, 45
3, 29302, Note_on_c, 1, 45, 0
3, 29304, Note_on_c, 1, 50, 45
3, 29368, Note_on_c, 1, 45, 0
3, 29398, Note_on_c, 1, 50, 0
3, 29400, Note_on_c, 1, 43, 45
3, 29400, Note_on_c, 1, 43, 45
3, 29494, Note_on_c, 1, 43, 0
3, 29496, Note_on_c, 1, 50, 45
3, 29560, Note_on_c, 1, 43, 0
3, 29590, Note_on_c, 1, 50, 0
3, 29592, Note_on_c, 1, 38, 45
3, 29592, Note_on_c, 1, 50, 45
3, 29928, Note_on_c, 1, 38, 0
3, 29928, Note_on_c, 1, 50, 0
3, 29976, Note_on_c, 1, 51, 45
3, 30070, Note_on_c, 1, 51, 0
3, 30072, Note_on_c, 1, 47, 45
3, 30166, Note_on_c, 1, 47, 0
3, 30168, Note_on_c, 1, 52, 45
3, 30262, Note_on_c, 1, 52, 0
3, 30264, Note_on_c, 1, 55, 45
3, 30296, Note_on_c, 1, 55, 0
3, 30360, Note_on_c, 1, 49, 45
3, 30454, Note_on_c, 1, 49, 0
3, 30456, Note_on_c, 1, 45, 45
3, 30550, Note_on_c, 1, 45, 0
3, 30552, Note_on_c, 1, 50, 45
3, 30646, Note_on_c, 1, 50, 0
3, 30648, Note_on_c, 1, 54, 45
3, 30680, Note_on_c, 1, 54, 0
3, 30744, Note_on_c, 1, 57, 45
3, 30840, Note_on_c, 1, 45, 45
3, 30904, Note_on_c, 1, 57, 0
3, 30936, Note_on_c, 1, 55, 45
3, 31000, Note_on_c, 1, 45, 0
3, 31032, Note_on_c, 1, 45, 45
3, 31096, Note_on_c, 1, 55, 0
3, 31126, Note_on_c, 1, 45, 0
3, 31128, Note_on_c, 1, 50, 45
3, 31128, Note_on_c, 1, 54, 45
3, 31222, Note_on_c, 1, 50, 0
3, 31222, Note_on_c, 1, 54, 0
3, 31512, Note_on_c, 1, 38, 60
3, 31672, Note_on_c, 1, 38, 0
3, 31704, Note_on_c, 1, 38, 60
3, 31726, Note_on_c, 1, 38, 0
3, 31728, Note_on_c, 1, 40, 60
3, 31750, Note_on_c, 1, 40, 0
3, 31752, Note_on_c, 1, 42, 60
3, 31774, Note_on_c, 1, 42, 0
3, 31776, Note_on_c, 1, 43, 60
3, 31798, Note_on_c, 1, 43, 0
3, 31800, Note_on_c, 1, 45, 60
3, 31822, Note_on_c, 1, 45, 0
3, 31824, Note_on_c, 1, 47, 60
3, 31846, Note_on_c, 1, 47, 0
3, 31848, Note_on_c, 1, 48, 60
3, 31870, Note_on_c, 1, 48, 0
3, 31872, Note_on_c, 1, 49, 60
3, 31894, Note_on_c, 1, 49, 0
3, 31896, Note_on_c, 1, 50, 60
3, 32056, Note_on_c, 1, 50, 0
3, 32088, Note_on_c, 1, 50, 60
3, 32110, Note_on_c, 1, 50, 0
3, 32112, Note_on_c, 1, 52, 60
3, 32134, Note_on_c, 1, 52, 0
3, 32136, Note_on_c, 1, 54, 60
3, 32158, Note_on_c, 1, 54, 0
3, 32160, Note_on_c, 1, 55, 60
3, 32182, Note_on_c, 1, 55, 0
3, 32184, Note_on_c, 1, 57, 60
3, 32206, Note_on_c, 1, 57, 0
3, 32208, Note_on_c, 1, 59, 60
3, 32230, Note_on_c, 1, 59, 0
3, 32232, Note_on_c, 1, 60, 60
3, 32254, Note_on_c, 1, 60, 0
3, 32256, Note_on_c, 1, 61, 60
3, 32278, Note_on_c, 1, 61, 0
3, 32280, Note_on_c, 1, 57, 60
3, 32280, Note_on_c, 1, 60, 60
3, 32374, Note_on_c, 1, 60, 0
3, 32376, Note_on_c, 1, 62, 60
3, 32440, Note_on_c, 1, 57, 0
3, 32470, Note_on_c, 1, 62, 0
3, 32472, Note_on_c, 1, 55, 60
3, 32472, Note_on_c, 1, 59, 60
3, 32566, Note_on_c, 1, 59, 0
3, 32568, Note_on_c, 1, 62, 60
3, 32632, Note_on_c, 1, 55, 0
3, 32662, Note_on_c, 1, 62, 0
3, 32664, Note_on_c, 1, 54, 60
3, 32664, Note_on_c, 1, 57, 60
3, 32696, Note_on_c, 1, 54, 0
3, 32696, Note_on_c, 1, 57, 0
3, 33048, Note_on_c, 1, 31, 60
3, 33208, Note_on_c, 1, 31, 0
3, 33240, Note_on_c, 1, 31, 60
3, 33262, Note_on_c, 1, 31, 0
3, 33264, Note_on_c, 1, 33, 60
3, 33286, Note_on_c, 1, 33, 0
3, 33288, Note_on_c, 1, 35, 60
3, 33310, Note_on_c, 1, 35, 0
3, 33312, Note_on_c, 1, 36, 60
3, 33334, Note_on_c, 1, 36, 0
3, 33336, Note_on_c, 1, 38, 60
3, 33358, Note_on_c, 1, 38, 0
3, 33360, Note_on_c, 1, 40, 60
3, 33382, Note_on_c, 1, 40, 0
3, 33384, Note_on_c, 1, 41, 60
3, 33406, Note_on_c, 1, 41, 0
3, 33408, Note_on_c, 1, 42, 60
3, 33430, Note_on_c, 1, 42, 0
3, 33432, Note_on_c, 1, 43, 60
3, 33592, Note_on_c, 1, 43, 0
3, 33624, Note_on_c, 1, 43, 60
3, 33646, Note_on_c, 1, 43, 0
3, 33648, Note_on_c, 1, 45, 60
3, 33670, Note_on_c, 1, 45, 0
3, 33672, Note_on_c, 1, 47, 60
3, 33694, Note_on_c, 1, 47, 0
3, 33696, Note_on_c, 1, 48, 60
3, 33718, Note_on_c, 1, 48, 0
3, 33720, Note_on_c, 1, 50, 60
3, 33742, Note_on_c, 1, 50, 0
3, 33744, Note_on_c, 1, 52, 60
3, 33766, Note_on_c, 1, 52, 0
3, 33768, Note_on_c, 1, 53, 60
3, 33790, Note_on_c, 1, 53, 0
3, 33792, Note_on_c, 1, 54, 60
3, 33814, Note_on_c, 1, 54, 0
3, 33912, Note_on_c, 1, 55, 60
3, 34006, Note_on_c, 1, 55, 0
3, 34008, Note_on_c, 1, 48, 60
3, 34008, Note_on_c, 1, 52, 60
3, 34102, Note_on_c, 1, 52, 0
3, 34104, Note_on_c, 1, 55, 60
3, 34168, Note_on_c, 1, 48, 0
3, 34198, Note_on_c, 1, 55, 0
3, 34200, Note_on_c, 1, 47, 60
3, 34200, Note_on_c, 1, 50, 60
3, 34294, Note_on_c, 1, 50, 0
3, 34296, Note_on_c, 1, 55, 60
3, 34360, Note_on_c, 1, 47, 0
3, 34390, Note_on_c, 1, 55, 0
3, 34392, Note_on_c, 1, 50, 60
3, 34392, Note_on_c, 1, 57, 60
3, 34486, Note_on_c, 1, 57, 0
3, 34488, Note_on_c, 1, 54, 60
3, 34552, Note_on_c, 1, 50, 0
3, 34582, Note_on_c, 1, 54, 0
3, 34584, Note_on_c, 1, 43, 60
3, 34584, Note_on_c, 1, 55, 60
3, 34678, Note_on_c, 1, 55, 0
3, 34680, Note_on_c, 1, 50, 60
3, 34774, Note_on_c, 1, 50, 0
3, 34776, Note_on_c, 1, 57, 60
3, 34870, Note_on_c, 1, 57, 0
3, 34872, Note_on_c, 1, 50, 60
3, 34920, Note_on_c, 1, 43, 0
3, 34966, Note_on_c, 1, 50, 0
3, 34968, Note_on_c, 1, 43, 60
3, 34968, Note_on_c, 1, 59, 60
3, 35062, Note_on_c, 1, 59, 0
3, 35064, Note_on_c, 1, 50, 60
3, 35158, Note_on_c, 1, 50, 0
3, 35160, Note_on_c, 1, 59, 60
3, 35254, Note_on_c, 1, 59, 0
3, 35256, Note_on_c, 1, 50, 60
3, 35304, Note_on_c, 1, 43, 0
3, 35350, Note_on_c, 1, 50, 0
3, 35352, Note_on_c, 1, 45, 60
3, 35352, Note_on_c, 1, 45, 60
3, 35446, Note_on_c, 1, 45, 0
3, 35448, Note_on_c, 1, 50, 60
3, 35512, Note_on_c, 1, 45, 0
3, 35542, Note_on_c, 1, 50, 0
3, 35544, Note_on_c, 1, 43, 60
3, 35544, Note_on_c, 1, 43, 60
3, 35638, Note_on_c, 1, 43, 0
3, 35640, Note_on_c, 1, 50, 60
3, 35704, Note_on_c, 1, 43, 0
3, 35734, Note_on_c, 1, 50, 0
3, 35736, Note_on_c, 1, 38, 60
3, 35736, Note_on_c, 1, 50, 60
3, 36072, Note_on_c, 1, 38, 0
3, 36072, Note_on_c, 1, 50, 0
3, 36120, Note_on_c, 1, 50, 60
3, 36120, Note_on_c, 1, 56, 60
3, 36214, Note_on_c, 1, 56, 0
3, 36216, Note_on_c, 1, 52, 60
3, 36280, Note_on_c, 1, 50, 0
3, 36310, Note_on_c, 1, 52, 0
3, 36312, Note_on_c, 1, 48, 60
3, 36312, Note_on_c, 1, 57, 60
3, 36406, Note_on_c, 1, 57, 0
3, 36408, Note_on_c, 1, 60, 60
3, 36472, Note_on_c, 1, 48, 0
3, 36502, Note_on_c, 1, 60, 0
3, 36504, Note_on_c, 1, 48, 60
3, 36504, Note_on_c, 1, 54, 60
3, 36598, Note_on_c, 1, 54, 0
3, 36600, Note_on_c, 1, 50, 60
3, 36664, Note_on_c, 1, 48, 0
3, 36694, Note_on_c, 1, 50, 0
3, 36696, Note_on_c, 1, 47, 60
3, 36696, Note_on_c, 1, 55, 60
3, 36790, Note_on_c, 1, 55, 0
3, 36792, Note_on_c, 1, 59, 60
3, 36824, Note_on_c, 1, 59, 0
3, 36856, Note_on_c, 1, 47, 0
3, 36888, Note_on_c, 1, 50, 60
3, 36888, Note_on_c, 1, 50, 60
3, 37048, Note_on_c, 1, 50, 0
3, 37080, Note_on_c, 1, 38, 60
3, 37224, Note_on_c, 1, 50, 0
3, 37240, Note_on_c, 1, 38, 0
3, 37272, Note_on_c, 1, 43, 60
3, 37304, Note_on_c, 1, 43, 0
3, 37320, Note_on_c, 1, 55, 60
3, 37352, Note_on_c, 1, 55, 0
3, 37368, Note_on_c, 1, 57, 60
3, 37400, Note_on_c, 1, 57, 0
3, 37416, Note_on_c, 1, 59, 60
3, 37448, Note_on_c, 1, 59, 0
3, 37464, Note_on_c, 1, 60, 60
3, 37496, Note_on_c, 1, 60, 0
3, 37512, Note_on_c, 1, 61, 60
3, 37544, Note_on_c, 1, 61, 0
3, 37560, Note_on_c, 1, 62, 60
3, 37592, Note_on_c, 1, 62, 0
3, 37608, Note_on_c, 1, 63, 60
3, 37640, Note_on_c, 1, 63, 0
3, 37656, Note_on_c, 1, 64, 60
3, 37816, Note_on_c, 1, 64, 0
3, 37848, Note_on_c, 1, 64, 60
3, 37870, Note_on_c, 1, 64, 0
3, 37872, Note_on_c, 1, 63, 60
3, 37894, Note_on_c, 1, 63, 0
3, 37896, Note_on_c, 1, 65, 60
3, 37918, Note_on_c, 1, 65, 0
3, 37920, Note_on_c, 1, 64, 60
3, 37942, Note_on_c, 1, 64, 0
3, 37944, Note_on_c, 1, 62, 60
3, 37966, Note_on_c, 1, 62, 0
3, 37968, Note_on_c, 1, 60, 60
3, 37990, Note_on_c, 1, 60, 0
3, 37992, Note_on_c, 1, 59, 60
3, 38014, Note_on_c, 1, 59, 0
3, 38016, Note_on_c, 1, 57, 60
3, 38032, Note_on_c, 1, 57, 0
3, 38040, Note_on_c, 1, 62, 60
3, 38200, Note_on_c, 1, 62, 0
3, 38232, Note_on_c, 1, 62, 60
3, 38254, Note_on_c, 1, 62, 0
3, 38256, Note_on_c, 1, 61, 60
3, 38278, Note_on_c, 1, 61, 0
3, 38280, Note_on_c, 1, 64, 60
3, 38302, Note_on_c, 1, 64, 0
3, 38304, Note_on_c, 1, 62, 60
3, 38326, Note_on_c, 1, 62, 0
3, 38328, Note_on_c, 1, 60, 60
3, 38350, Note_on_c, 1, 60, 0
3, 38352, Note_on_c, 1, 59, 60
3, 38374, Note_on_c, 1, 59, 0
3, 38376, Note_on_c, 1, 57, 60
3, 38398, Note_on_c, 1, 57, 0
3, 38400, Note_on_c, 1, 55, 60
3, 38416, Note_on_c, 1, 55, 0
3, 38424, Note_on_c, 1, 56, 60
3, 38424, Note_on_c, 1, 59, 60
3, 38518, Note_on_c, 1, 56, 0
3, 38518, Note_on_c, 1, 59, 0
3, 38520, Note_on_c, 1, 52, 60
3, 38520, Note_on_c, 1, 56, 60
3, 38614, Note_on_c, 1, 52, 0
3, 38614, Note_on_c, 1, 56, 0
3, 38616, Note_on_c, 1, 57, 60
3, 38616, Note_on_c, 1, 60, 60
3, 38648, Note_on_c, 1, 57, 0
3, 38648, Note_on_c, 1, 60, 0
3, 38808, Note_on_c, 1, 54, 60
3, 38808, Note_on_c, 1, 57, 60
3, 38902, Note_on_c, 1, 54, 0
3, 38902, Note_on_c, 1, 57, 0
3, 38904, Note_on_c, 1, 50, 60
3, 38904, Note_on_c, 1, 54, 60
3, 38998, Note_on_c, 1, 50, 0
3, 38998, Note_on_c, 1, 54, 0
3, 39000, Note_on_c, 1, 55, 60
3, 39000, Note_on_c, 1, 59, 60
3, 39032, Note_on_c, 1, 55, 0
3, 39032, Note_on_c, 1, 59, 0
3, 39192, Note_on_c, 1, 52, 60
3, 39192, Note_on_c, 1, 55, 60
3, 39286, Note_on_c, 1, 52, 0
3, 39286, Note_on_c, 1, 55, 0
3, 39288, Note_on_c, 1, 54, 60
3, 39288, Note_on_c, 1, 57, 60
3, 39382, Note_on_c, 1, 54, 0
3, 39382, Note_on_c, 1, 57, 0
3, 39384, Note_on_c, 1, 51, 60
3, 39384, Note_on_c, 1, 54, 60
3, 39478, Note_on_c, 1, 51, 0
3, 39478, Note_on_c, 1, 54, 0
3, 39480, Note_on_c, 1, 52, 60
3, 39480, Note_on_c, 1, 55, 60
3, 39574, Note_on_c, 1, 52, 0
3, 39574, Note_on_c, 1, 55, 0
3, 39576, Note_on_c, 1, 48, 60
3, 39576, Note_on_c, 1, 52, 60
3, 39608, Note_on_c, 1, 48, 0
3, 39608, Note_on_c, 1, 52, 0
3, 39768, Note_on_c, 1, 60, 60
3, 39768, Note_on_c, 1, 64, 60
3, 39800, Note_on_c, 1, 60, 0
3, 39800, Note_on_c, 1, 64, 0
3, 39960, Note_on_c, 1, 59, 60
3, 39960, Note_on_c, 1, 63, 60
3, 39992, Note_on_c, 1, 59, 0
3, 39992, Note_on_c, 1, 63, 0
3, 40344, Note_on_c, 1, 48, 45
3, 40344, Note_on_c, 1, 52, 45
3, 40376, Note_on_c, 1, 48, 0
3, 40376, Note_on_c, 1, 52, 0
3, 40536, Note_on_c, 1, 60, 45
3, 40536, Note_on_c, 1, 64, 45
3, 40568, Note_on_c, 1, 60, 0
3, 40568, Note_on_c, 1, 64, 0
3, 40728, Note_on_c, 1, 59, 45
3, 40728, Note_on_c, 1, 63, 45
3, 40760, Note_on_c, 1, 59, 0
3, 40760, Note_on_c, 1, 63, 0
3, 41112, Note_on_c, 1, 48, 92
3, 41112, Note_on_c, 1, 52, 92
3, 41144, Note_on_c, 1, 48, 0
3, 41144, Note_on_c, 1, 52, 0
3, 41304, Note_on_c, 1, 48, 92
3, 41304, Note_on_c, 1, 52, 92
3, 41336, Note_on_c, 1, 48, 0
3, 41336, Note_on_c, 1, 52, 0
3, 41496, Note_on_c, 1, 47, 60
3, 41496, Note_on_c, 1, 51, 60
3, 41496, Note_on_c, 1, 54, 60
3, 41528, Note_on_c, 1, 47, 0
3, 41528, Note_on_c, 1, 51, 0
3, 41528, Note_on_c, 1, 54, 0
3, 41880, Note_on_c, 1, 59, 60
3, 41880, Note_on_c, 1, 63, 60
3, 41880, Note_on_c, 1, 66, 60
3, 42600, Note_on_c, 1, 59, 0
3, 42600, Note_on_c, 1, 63, 0
3, 42600, Note_on_c, 1, 66, 0
3, 42792, Note_on_c, 1, 64, 30
3, 42792, Note_on_c, 1, 68, 30
3, 42824, Note_on_c, 1, 64, 0
3, 42824, Note_on_c, 1, 68, 0
3, 42888, Note_on_c, 1, 64, 30
3, 42888, Note_on_c, 1, 68, 30
3, 42920, Note_on_c, 1, 64, 0
3, 42920, Note_on_c, 1, 68, 0
3, 42984, Note_on_c, 1, 64, 30
3, 42984, Note_on_c, 1, 68, 30
3, 43016, Note_on_c, 1, 64, 0
3, 43016, Note_on_c, 1, 68, 0
3, 43080, Note_on_c, 1, 64, 30
3, 43080, Note_on_c, 1, 68, 30
3, 43112, Note_on_c, 1, 64, 0
3, 43112, Note_on_c, 1, 68, 0
3, 43176, Note_on_c, 1, 64, 30
3, 43176, Note_on_c, 1, 68, 30
3, 43208, Note_on_c, 1, 64, 0
3, 43208, Note_on_c, 1, 68, 0
3, 43272, Note_on_c, 1, 64, 30
3, 43272, Note_on_c, 1, 68, 30
3, 43304, Note_on_c, 1, 64, 0
3, 43304, Note_on_c, 1, 68, 0
3, 43368, Note_on_c, 1, 64, 30
3, 43368, Note_on_c, 1, 68, 30
3, 43400, Note_on_c, 1, 64, 0
3, 43400, Note_on_c, 1, 68, 0
3, 43464, Note_on_c, 1, 64, 30
3, 43464, Note_on_c, 1, 68, 30
3, 43496, Note_on_c, 1, 64, 0
3, 43496, Note_on_c, 1, 68, 0
3, 43560, Note_on_c, 1, 64, 30
3, 43560, Note_on_c, 1, 68, 30
3, 43592, Note_on_c, 1, 64, 0
3, 43592, Note_on_c, 1, 68, 0
3, 43656, Note_on_c, 1, 64, 30
3, 43656, Note_on_c, 1, 68, 30
3, 43688, Note_on_c, 1, 64, 0
3, 43688, Note_on_c, 1, 68, 0
3, 43752, Note_on_c, 1, 64, 30
3, 43752, Note_on_c, 1, 68, 30
3, 43784, Note_on_c, 1, 64, 0
3, 43784, Note_on_c, 1, 68, 0
3, 43848, Note_on_c, 1, 64, 30
3, 43848, Note_on_c, 1, 68, 30
3, 43880, Note_on_c, 1, 64, 0
3, 43880, Note_on_c, 1, 68, 0
3, 43944, Note_on_c, 1, 63, 30
3, 43944, Note_on_c, 1, 66, 30
3, 43944, Note_on_c, 1, 69, 30
3, 43976, Note_on_c, 1, 63, 0
3, 43976, Note_on_c, 1, 66, 0
3, 43976, Note_on_c, 1, 69, 0
3, 44040, Note_on_c, 1, 63, 30
3, 44040, Note_on_c, 1, 66, 30
3, 44040, Note_on_c, 1, 69, 30
3, 44072, Note_on_c, 1, 63, 0
3, 44072, Note_on_c, 1, 66, 0
3, 44072, Note_on_c, 1, 69, 0
3, 44136, Note_on_c, 1, 63, 30
3, 44136, Note_on_c, 1, 66, 30
3, 44136, Note_on_c, 1, 69, 30
3, 44168, Note_on_c, 1, 63, 0
3, 44168, Note_on_c, 1, 66, 0
3, 44168, Note_on_c, 1, 69, 0
3, 44232, Note_on_c, 1, 63, 30
3, 44232, Note_on_c, 1, 66, 30
3, 44232, Note_on_c, 1, 69, 30
3, 44264, Note_on_c, 1, 63, 0
3, 44264, Note_on_c, 1, 66, 0
3, 44264, Note_on_c, 1, 69, 0
3, 44328, Note_on_c, 1, 63, 30
3, 44328, Note_on_c, 1, 66, 30
3, 44328, Note_on_c, 1, 69, 30
3, 44360, Note_on_c, 1, 63, 0
3, 44360, Note_on_c, 1, 66, 0
3, 44360, Note_on_c, 1, 69, 0
3, 44424, Note_on_c, 1, 63, 30
3, 44424, Note_on_c, 1, 66, 30
3, 44424, Note_on_c, 1, 69, 30
3, 44456, Note_on_c, 1, 63, 0
3, 44456, Note_on_c, 1, 66, 0
3, 44456, Note_on_c, 1, 69, 0
3, 44520, Note_on_c, 1, 63, 30
3, 44520, Note_on_c, 1, 66, 30
3, 44520, Note_on_c, 1, 69, 30
3, 44552, Note_on_c, 1, 63, 0
3, 44552, Note_on_c, 1, 66, 0
3, 44552, Note_on_c, 1, 69, 0
3, 44616, Note_on_c, 1, 63, 30
3, 44616, Note_on_c, 1, 66, 30
3, 44616, Note_on_c, 1, 69, 30
3, 44648, Note_on_c, 1, 63, 0
3, 44648, Note_on_c, 1, 66, 0
3, 44648, Note_on_c, 1, 69, 0
3, 44712, Note_on_c, 1, 63, 30
3, 44712, Note_on_c, 1, 66, 30
3, 44712, Note_on_c, 1, 69, 30
3, 44744, Note_on_c, 1, 63, 0
3, 44744, Note_on_c, 1, 66, 0
3, 44744, Note_on_c, 1, 69, 0
3, 44808, Note_on_c, 1, 63, 30
3, 44808, Note_on_c, 1, 66, 30
3, 44808, Note_on_c, 1, 69, 30
3, 44840, Note_on_c, 1, 63, 0
3, 44840, Note_on_c, 1, 66, 0
3, 44840, Note_on_c, 1, 69, 0
3, 44904, Note_on_c, 1, 63, 30
3, 44904, Note_on_c, 1, 66, 30
3, 44904, Note_on_c, 1, 69, 30
3, 44936, Note_on_c, 1, 63, 0
3, 44936, Note_on_c, 1, 66, 0
3, 44936, Note_on_c, 1, 69, 0
3, 45000, Note_on_c, 1, 63, 30
3, 45000, Note_on_c, 1, 66, 30
3, 45000, Note_on_c, 1, 69, 30
3, 45032, Note_on_c, 1, 63, 0
3, 45032, Note_on_c, 1, 66, 0
3, 45032, Note_on_c, 1, 69, 0
3, 45096, Note_on_c, 1, 64, 30
3, 45096, Note_on_c, 1, 68, 30
3, 45128, Note_on_c, 1, 64, 0
3, 45128, Note_on_c, 1, 68, 0
3, 45192, Note_on_c, 1, 64, 30
3, 45192, Note_on_c, 1, 68, 30
3, 45224, Note_on_c, 1, 64, 0
3, 45224, Note_on_c, 1, 68, 0
3, 45288, Note_on_c, 1, 64, 30
3, 45288, Note_on_c, 1, 68, 30
3, 45320, Note_on_c, 1, 64, 0
3, 45320, Note_on_c, 1, 68, 0
3, 45384, Note_on_c, 1, 64, 30
3, 45384, Note_on_c, 1, 68, 30
3, 45416, Note_on_c, 1, 64, 0
3, 45416, Note_on_c, 1, 68, 0
3, 45480, Note_on_c, 1, 64, 31
3, 45480, Note_on_c, 1, 68, 31
3, 45512, Note_on_c, 1, 64, 0
3, 45512, Note_on_c, 1, 68, 0
3, 45576, Note_on_c, 1, 64, 32
3, 45576, Note_on_c, 1, 68, 32
3, 45608, Note_on_c, 1, 64, 0
3, 45608, Note_on_c, 1, 68, 0
3, 45672, Note_on_c, 1, 61, 33
3, 45672, Note_on_c, 1, 64, 33
3, 45704, Note_on_c, 1, 61, 0
3, 45704, Note_on_c, 1, 64, 0
3, 45768, Note_on_c, 1, 61, 34
3, 45768, Note_on_c, 1, 64, 34
3, 45800, Note_on_c, 1, 61, 0
3, 45800, Note_on_c, 1, 64, 0
3, 45864, Note_on_c, 1, 61, 35
3, 45864, Note_on_c, 1, 64, 35
3, 45896, Note_on_c, 1, 61, 0
3, 45896, Note_on_c, 1, 64, 0
3, 45960, Note_on_c, 1, 61, 36
3, 45960, Note_on_c, 1, 64, 36
3, 45992, Note_on_c, 1, 61, 0
3, 45992, Note_on_c, 1, 64, 0
3, 46056, Note_on_c, 1, 61, 37
3, 46056, Note_on_c, 1, 64, 37
3, 46088, Note_on_c, 1, 61, 0
3, 46088, Note_on_c, 1, 64, 0
3, 46152, Note_on_c, 1, 61, 38
3, 46152, Note_on_c, 1, 64, 38
3, 46184, Note_on_c, 1, 61, 0
3, 46184, Note_on_c, 1, 64, 0
3, 46248, Note_on_c, 1, 57, 39
3, 46248, Note_on_c, 1, 61, 39
3, 46248, Note_on_c, 1, 66, 39
3, 46280, Note_on_c, 1, 57, 0
3, 46280, Note_on_c, 1, 61, 0
3, 46280, Note_on_c, 1, 66, 0
3, 46344, Note_on_c, 1, 57, 40
3, 46344, Note_on_c, 1, 61, 40
3, 46344, Note_on_c, 1, 66, 40
3, 46376, Note_on_c, 1, 57, 0
3, 46376, Note_on_c, 1, 61, 0
3, 46376, Note_on_c, 1, 66, 0
3, 46440, Note_on_c, 1, 57, 41
3, 46440, Note_on_c, 1, 61, 41
3, 46440, Note_on_c, 1, 66, 41
3, 46472, Note_on_c, 1, 57, 0
3, 46472, Note_on_c, 1, 61, 0
3, 46472, Note_on_c, 1, 66, 0
3, 46536, Note_on_c, 1, 57, 42
3, 46536, Note_on_c, 1, 61, 42
3, 46536, Note_on_c, 1, 66, 42
3, 46568, Note_on_c, 1, 57, 0
3, 46568, Note_on_c, 1, 61, 0
3, 46568, Note_on_c, 1, 66, 0
3, 46632, Note_on_c, 1, 57, 43
3, 46632, Note_on_c, 1, 61, 43
3, 46632, Note_on_c, 1, 66, 43
3, 46664, Note_on_c, 1, 57, 0
3, 46664, Note_on_c, 1, 61, 0
3, 46664, Note_on_c, 1, 66, 0
3, 46728, Note_on_c, 1, 57, 44
3, 46728, Note_on_c, 1, 61, 44
3, 46728, Note_on_c, 1, 66, 44
3, 46760, Note_on_c, 1, 57, 0
3, 46760, Note_on_c, 1, 61, 0
3, 46760, Note_on_c, 1, 66, 0
3, 46824, Note_on_c, 1, 56, 45
3, 46824, Note_on_c, 1, 60, 45
3, 46824, Note_on_c, 1, 63, 45
3, 47112, Note_on_c, 1, 56, 0
3, 47112, Note_on_c, 1, 60, 0
3, 47112, Note_on_c, 1, 63, 0
3, 47112, Note_on_c, 1, 56, 45
3, 47112, Note_on_c, 1, 60, 45
3, 47112, Note_on_c, 1, 63, 45
3, 47272, Note_on_c, 1, 56, 0
3, 47272, Note_on_c, 1, 60, 0
3, 47272, Note_on_c, 1, 63, 0
3, 47400, Note_on_c, 1, 61, 45
3, 47400, Note_on_c, 1, 64, 45
3, 47432, Note_on_c, 1, 61, 0
3, 47432, Note_on_c, 1, 64, 0
3, 47496, Note_on_c, 1, 61, 45
3, 47496, Note_on_c, 1, 64, 45
3, 47528, Note_on_c, 1, 61, 0
3, 47528, Note_on_c, 1, 64, 0
3, 47592, Note_on_c, 1, 61, 45
3, 47592, Note_on_c, 1, 64, 45
3, 47624, Note_on_c, 1, 61, 0
3, 47624, Note_on_c, 1, 64, 0
3, 47688, Note_on_c, 1, 61, 45
3, 47688, Note_on_c, 1, 64, 45
3, 47720, Note_on_c, 1, 61, 0
3, 47720, Note_on_c, 1, 64, 0
3, 47784, Note_on_c, 1, 61, 45
3, 47784, Note_on_c, 1, 64, 45
3, 47816, Note_on_c, 1, 61, 0
3, 47816, Note_on_c, 1, 64, 0
3, 47880, Note_on_c, 1, 61, 45
3, 47880, Note_on_c, 1, 64, 45
3, 47912, Note_on_c, 1, 61, 0
3, 47912, Note_on_c, 1, 64, 0
3, 47976, Note_on_c, 1, 61, 45
3, 47976, Note_on_c, 1, 64, 45
3, 48008, Note_on_c, 1, 61, 0
3, 48008, Note_on_c, 1, 64, 0
3, 48072, Note_on_c, 1, 61, 45
3, 48072, Note_on_c, 1, 64, 45
3, 48104, Note_on_c, 1, 61, 0
3, 48104, Note_on_c, 1, 64, 0
3, 48168, Note_on_c, 1, 61, 45
3, 48168, Note_on_c, 1, 64, 45
3, 48200, Note_on_c, 1, 61, 0
3, 48200, Note_on_c, 1, 64, 0
3, 48264, Note_on_c, 1, 61, 45
3, 48264, Note_on_c, 1, 64, 45
3, 48296, Note_on_c, 1, 61, 0
3, 48296, Note_on_c, 1, 64, 0
3, 48360, Note_on_c, 1, 61, 45
3, 48360, Note_on_c, 1, 64, 45
3, 48392, Note_on_c, 1, 61, 0
3, 48392, Note_on_c, 1, 64, 0
3, 48456, Note_on_c, 1, 61, 45
3, 48456, Note_on_c, 1, 64, 45
3, 48488, Note_on_c, 1, 61, 0
3, 48488, Note_on_c, 1, 64, 0
3, 48552, Note_on_c, 1, 60, 45
3, 48552, Note_on_c, 1, 63, 45
3, 48552, Note_on_c, 1, 66, 45
3, 48584, Note_on_c, 1, 60, 0
3, 48584, Note_on_c, 1, 63, 0
3, 48584, Note_on_c, 1, 66, 0
3, 48648, Note_on_c, 1, 60, 45
3, 48648, Note_on_c, 1, 63, 45
3, 48648, Note_on_c, 1, 66, 45
3, 48680, Note_on_c, 1, 60, 0
3, 48680, Note_on_c, 1, 63, 0
3, 48680, Note_on_c, 1, 66, 0
3, 48744, Note_on_c, 1, 60, 45
3, 48744, Note_on_c, 1, 63, 45
3, 48744, Note_on_c, 1, 66, 45
3, 48776, Note_on_c, 1, 60, 0
3, 48776, Note_on_c, 1, 63, 0
3, 48776, Note_on_c, 1, 66, 0
3, 48840, Note_on_c, 1, 60, 45
3, 48840, Note_on_c, 1, 63, 45
3, 48840, Note_on_c, 1, 66, 45
3, 48872, Note_on_c, 1, 60, 0
3, 48872, Note_on_c, 1, 63, 0
3, 48872, Note_on_c, 1, 66, 0
3, 48936, Note_on_c, 1, 60, 45
3, 48936, Note_on_c, 1, 63, 45
3, 48936, Note_on_c, 1, 66, 45
3, 48968, Note_on_c, 1, 60, 0
3, 48968, Note_on_c, 1, 63, 0
3, 48968, Note_on_c, 1, 66, 0
3, 49032, Note_on_c, 1, 60, 45
3, 49032, Note_on_c, 1, 63, 45
3, 49032, Note_on_c, 1, 66, 45
3, 49064, Note_on_c, 1, 60, 0
3, 49064, Note_on_c, 1, 63, 0
3, 49064, Note_on_c, 1, 66, 0
3, 49128, Note_on_c, 1, 60, 45
3, 49128, Note_on_c, 1, 63, 45
3, 49128, Note_on_c, 1, 66, 45
3, 49160, Note_on_c, 1, 60, 0
3, 49160, Note_on_c, 1, 63, 0
3, 49160, Note_on_c, 1, 66, 0
3, 49224, Note_on_c, 1, 60, 45
3, 49224, Note_on_c, 1, 63, 45
3, 49224, Note_on_c, 1, 66, 45
3, 49256, Note_on_c, 1, 60, 0
3, 49256, Note_on_c, 1, 63, 0
3, 49256, Note_on_c, 1, 66, 0
3, 49320, Note_on_c, 1, 60, 45
3, 49320, Note_on_c, 1, 63, 45
3, 49320, Note_on_c, 1, 66, 45
3, 49352, Note_on_c, 1, 60, 0
3, 49352, Note_on_c, 1, 63, 0
3, 49352, Note_on_c, 1, 66, 0
3, 49416, Note_on_c, 1, 60, 45
3, 49416, Note_on_c, 1, 63, 45
3, 49416, Note_on_c, 1, 66, 45
3, 49448, Note_on_c, 1, 60, 0
3, 49448, Note_on_c, 1, 63, 0
3, 49448, Note_on_c, 1, 66, 0
3, 49512, Note_on_c, 1, 60, 45
3, 49512, Note_on_c, 1, 63, 45
3, 49512, Note_on_c, 1, 66, 45
3, 49544, Note_on_c, 1, 60, 0
3, 49544, Note_on_c, 1, 63, 0
3, 49544, Note_on_c, 1, 66, 0
3, 49608, Note_on_c, 1, 60, 45
3, 49608, Note_on_c, 1, 63, 45
3, 49608, Note_on_c, 1, 66, 45
3, 49640, Note_on_c, 1, 60, 0
3, 49640, Note_on_c, 1, 63, 0
3, 49640, Note_on_c, 1, 66, 0
3, 49704, Note_on_c, 1, 61, 45
3, 49704, Note_on_c, 1, 64, 45
3, 49736, Note_on_c, 1, 61, 0
3, 49736, Note_on_c, 1, 64, 0
3, 49800, Note_on_c, 1, 61, 45
3, 49800, Note_on_c, 1, 64, 45
3, 49832, Note_on_c, 1, 61, 0
3, 49832, Note_on_c, 1, 64, 0
3, 49896, Note_on_c, 1, 61, 45
3, 49896, Note_on_c, 1, 64, 45
3, 49928, Note_on_c, 1, 61, 0
3, 49928, Note_on_c, 1, 64, 0
3, 49992, Note_on_c, 1, 61, 45
3, 49992, Note_on_c, 1, 64, 45
3, 50024, Note_on_c, 1, 61, 0
3, 50024, Note_on_c, 1, 64, 0
3, 50088, Note_on_c, 1, 61, 45
3, 50088, Note_on_c, 1, 64, 45
3, 50120, Note_on_c, 1, 61, 0
3, 50120, Note_on_c, 1, 64, 0
3, 50184, Note_on_c, 1, 61, 45
3, 50184, Note_on_c, 1, 64, 45
3, 50216, Note_on_c, 1, 61, 0
3, 50216, Note_on_c, 1, 64, 0
3, 50280, Note_on_c, 1, 51, 45
3, 50280, Note_on_c, 1, 59, 45
3, 50312, Note_on_c, 1, 51, 0
3, 50312, Note_on_c, 1, 59, 0
3, 50376, Note_on_c, 1, 51, 45
3, 50376, Note_on_c, 1, 59, 45
3, 50408, Note_on_c, 1, 51, 0
3, 50408, Note_on_c, 1, 59, 0
3, 50472, Note_on_c, 1, 51, 45
3, 50472, Note_on_c, 1, 59, 45
3, 50504, Note_on_c, 1, 51, 0
3, 50504, Note_on_c, 1, 59, 0
3, 50568, Note_on_c, 1, 51, 45
3, 50568, Note_on_c, 1, 59, 45
3, 50600, Note_on_c, 1, 51, 0
3, 50600, Note_on_c, 1, 59, 0
3, 50664, Note_on_c, 1, 51, 45
3, 50664, Note_on_c, 1, 59, 45
3, 50696, Note_on_c, 1, 51, 0
3, 50696, Note_on_c, 1, 59, 0
3, 50760, Note_on_c, 1, 51, 45
3, 50760, Note_on_c, 1, 59, 45
3, 50792, Note_on_c, 1, 51, 0
3, 50792, Note_on_c, 1, 59, 0
3, 50856, Note_on_c, 1, 52, 45
3, 50856, Note_on_c, 1, 59, 45
3, 50888, Note_on_c, 1, 52, 0
3, 50888, Note_on_c, 1, 59, 0
3, 50952, Note_on_c, 1, 52, 45
3, 50952, Note_on_c, 1, 59, 45
3, 50984, Note_on_c, 1, 52, 0
3, 50984, Note_on_c, 1, 59, 0
3, 51048, Note_on_c, 1, 52, 45
3, 51048, Note_on_c, 1, 59, 45
3, 51080, Note_on_c, 1, 52, 0
3, 51080, Note_on_c, 1, 59, 0
3, 51144, Note_on_c, 1, 47, 45
3, 51144, Note_on_c, 1, 57, 45
3, 51176, Note_on_c, 1, 47, 0
3, 51176, Note_on_c, 1, 57, 0
3, 51240, Note_on_c, 1, 47, 45
3, 51240, Note_on_c, 1, 57, 45
3, 51272, Note_on_c, 1, 47, 0
3, 51272, Note_on_c, 1, 57, 0
3, 51336, Note_on_c, 1, 47, 45
3, 51336, Note_on_c, 1, 57, 45
3, 51368, Note_on_c, 1, 47, 0
3, 51368, Note_on_c, 1, 57, 0
3, 51432, Note_on_c, 1, 52, 45
3, 51432, Note_on_c, 1, 56, 45
3, 51592, Note_on_c, 1, 52, 0
3, 51592, Note_on_c, 1, 56, 0
3, 52008, Note_on_c, 1, 64, 45
3, 52008, Note_on_c, 1, 68, 45
3, 52040, Note_on_c, 1, 64, 0
3, 52040, Note_on_c, 1, 68, 0
3, 52104, Note_on_c, 1, 64, 45
3, 52104, Note_on_c, 1, 68, 45
3, 52136, Note_on_c, 1, 64, 0
3, 52136, Note_on_c, 1, 68, 0
3, 52200, Note_on_c, 1, 64, 45
3, 52200, Note_on_c, 1, 68, 45
3, 52232, Note_on_c, 1, 64, 0
3, 52232, Note_on_c, 1, 68, 0
3, 52296, Note_on_c, 1, 64, 45
3, 52296, Note_on_c, 1, 68, 45
3, 52328, Note_on_c, 1, 64, 0
3, 52328, Note_on_c, 1, 68, 0
3, 52392, Note_on_c, 1, 64, 45
3, 52392, Note_on_c, 1, 68, 45
3, 52424, Note_on_c, 1, 64, 0
3, 52424, Note_on_c, 1, 68, 0
3, 52488, Note_on_c, 1, 64, 45
3, 52488, Note_on_c, 1, 68, 45
3, 52520, Note_on_c, 1, 64, 0
3, 52520, Note_on_c, 1, 68, 0
3, 52584, Note_on_c, 1, 64, 45
3, 52584, Note_on_c, 1, 68, 45
3, 52616, Note_on_c, 1, 64, 0
3, 52616, Note_on_c, 1, 68, 0
3, 52680, Note_on_c, 1, 64, 45
3, 52680, Note_on_c, 1, 68, 45
3, 52712, Note_on_c, 1, 64, 0
3, 52712, Note_on_c, 1, 68, 0
3, 52776, Note_on_c, 1, 64, 45
3, 52776, Note_on_c, 1, 68, 45
3, 52808, Note_on_c, 1, 64, 0
3, 52808, Note_on_c, 1, 68, 0
3, 52872, Note_on_c, 1, 64, 45
3, 52872, Note_on_c, 1, 68, 45
3, 52904, Note_on_c, 1, 64, 0
3, 52904, Note_on_c, 1, 68, 0
3, 52968, Note_on_c, 1, 64, 45
3, 52968, Note_on_c, 1, 68, 45
3, 53000, Note_on_c, 1, 64, 0
3, 53000, Note_on_c, 1, 68, 0
3, 53064, Note_on_c, 1, 64, 45
3, 53064, Note_on_c, 1, 68, 45
3, 53096, Note_on_c, 1, 64, 0
3, 53096, Note_on_c, 1, 68, 0
3, 53160, Note_on_c, 1, 63, 45
3, 53160, Note_on_c, 1, 66, 45
3, 53160, Note_on_c, 1, 69, 45
3, 53192, Note_on_c, 1, 63, 0
3, 53192, Note_on_c, 1, 66, 0
3, 53192, Note_on_c, 1, 69, 0
3, 53256, Note_on_c, 1, 63, 45
3, 53256, Note_on_c, 1, 66, 45
3, 53256, Note_on_c, 1, 69, 45
3, 53288, Note_on_c, 1, 63, 0
3, 53288, Note_on_c, 1, 66, 0
3, 53288, Note_on_c, 1, 69, 0
3, 53352, Note_on_c, 1, 63, 45
3, 53352, Note_on_c, 1, 66, 45
3, 53352, Note_on_c, 1, 69, 45
3, 53384, Note_on_c, 1, 63, 0
3, 53384, Note_on_c, 1, 66, 0
3, 53384, Note_on_c, 1, 69, 0
3, 53448, Note_on_c, 1, 63, 45
3, 53448, Note_on_c, 1, 66, 45
3, 53448, Note_on_c, 1, 69, 45
3, 53480, Note_on_c, 1, 63, 0
3, 53480, Note_on_c, 1, 66, 0
3, 53480, Note_on_c, 1, 69, 0
3, 53544, Note_on_c, 1, 63, 45
3, 53544, Note_on_c, 1, 66, 45
3, 53544, Note_on_c, 1, 69, 45
3, 53576, Note_on_c, 1, 63, 0
3, 53576, Note_on_c, 1, 66, 0
3, 53576, Note_on_c, 1, 69, 0
3, 53640, Note_on_c, 1, 63, 45
3, 53640, Note_on_c, 1, 66, 45
3, 53640, Note_on_c, 1, 69, 45
3, 53672, Note_on_c, 1, 63, 0
3, 53672, Note_on_c, 1, 66, 0
3, 53672, Note_on_c, 1, 69, 0
3, 53736, Note_on_c, 1, 63, 45
3, 53736, Note_on_c, 1, 66, 45
3, 53736, Note_on_c, 1, 69, 45
3, 53736, Note_on_c, 1, 71, 45
3, 53768, Note_on_c, 1, 63, 0
3, 53768, Note_on_c, 1, 66, 0
3, 53768, Note_on_c, 1, 69, 0
3, 53768, Note_on_c, 1, 71, 0
3, 53832, Note_on_c, 1, 63, 45
3, 53832, Note_on_c, 1, 66, 45
3, 53832, Note_on_c, 1, 69, 45
3, 53832, Note_on_c, 1, 71, 45
3, 53864, Note_on_c, 1, 63, 0
3, 53864, Note_on_c, 1, 66, 0
3, 53864, Note_on_c, 1, 69, 0
3, 53864, Note_on_c, 1, 71, 0
3, 53928, Note_on_c, 1, 63, 45
3, 53928, Note_on_c, 1, 66, 45
3, 53928, Note_on_c, 1, 69, 45
3, 53928, Note_on_c, 1, 71, 45
3, 53960, Note_on_c, 1, 63, 0
3, 53960, Note_on_c, 1, 66, 0
3, 53960, Note_on_c, 1, 69, 0
3, 53960, Note_on_c, 1, 71, 0
3, 54024, Note_on_c, 1, 63, 45
3, 54024, Note_on_c, 1, 66, 45
3, 54024, Note_on_c, 1, 69, 45
3, 54024, Note_on_c, 1, 71, 45
3, 54056, Note_on_c, 1, 63, 0
3, 54056, Note_on_c, 1, 66, 0
3, 54056, Note_on_c, 1, 69, 0
3, 54056, Note_on_c, 1, 71, 0
3, 54120, Note_on_c, 1, 63, 45
3, 54120, Note_on_c, 1, 66, 45
3, 54120, Note_on_c, 1, 69, 45
3, 54120, Note_on_c, 1, 71, 45
3, 54152, Note_on_c, 1, 63, 0
3, 54152, Note_on_c, 1, 66, 0
3, 54152, Note_on_c, 1, 69, 0
3, 54152, Note_on_c, 1, 71, 0
3, 54216, Note_on_c, 1, 63, 45
3, 54216, Note_on_c, 1, 66, 45
3, 54216, Note_on_c, 1, 69, 45
3, 54216, Note_on_c, 1, 71, 45
3, 54248, Note_on_c, 1, 63, 0
3, 54248, Note_on_c, 1, 66, 0
3, 54248, Note_on_c, 1, 69, 0
3, 54248, Note_on_c, 1, 71, 0
3, 54312, Note_on_c, 1, 64, 45
3, 54312, Note_on_c, 1, 68, 45
3, 54344, Note_on_c, 1, 64, 0
3, 54344, Note_on_c, 1, 68, 0
3, 54408, Note_on_c, 1, 64, 47
3, 54408, Note_on_c, 1, 68, 47
3, 54440, Note_on_c, 1, 64, 0
3, 54440, Note_on_c, 1, 68, 0
3, 54504, Note_on_c, 1, 64, 49
3, 54504, Note_on_c, 1, 68, 49
3, 54536, Note_on_c, 1, 64, 0
3, 54536, Note_on_c, 1, 68, 0
3, 54600, Note_on_c, 1, 61, 51
3, 54600, Note_on_c, 1, 64, 51
3, 54632, Note_on_c, 1, 61, 0
3, 54632, Note_on_c, 1, 64, 0
3, 54696, Note_on_c, 1, 61, 74
3, 54696, Note_on_c, 1, 64, 74
3, 54728, Note_on_c, 1, 61, 0
3, 54728, Note_on_c, 1, 64, 0
3, 54792, Note_on_c, 1, 61, 55
3, 54792, Note_on_c, 1, 64, 55
3, 54824, Note_on_c, 1, 61, 0
3, 54824, Note_on_c, 1, 64, 0
3, 54888, Note_on_c, 1, 61, 57
3, 54888, Note_on_c, 1, 64, 57
3, 54920, Note_on_c, 1, 61, 0
3, 54920, Note_on_c, 1, 64, 0
3, 54984, Note_on_c, 1, 61, 84
3, 54984, Note_on_c, 1, 64, 84
3, 55016, Note_on_c, 1, 61, 0
3, 55016, Note_on_c, 1, 64, 0
3, 55080, Note_on_c, 1, 61, 63
3, 55080, Note_on_c, 1, 64, 63
3, 55112, Note_on_c, 1, 61, 0
3, 55112, Note_on_c, 1, 64, 0
3, 55176, Note_on_c, 1, 61, 66
3, 55176, Note_on_c, 1, 64, 66
3, 55208, Note_on_c, 1, 61, 0
3, 55208, Note_on_c, 1, 64, 0
3, 55272, Note_on_c, 1, 61, 96
3, 55272, Note_on_c, 1, 64, 96
3, 55304, Note_on_c, 1, 61, 0
3, 55304, Note_on_c, 1, 64, 0
3, 55368, Note_on_c, 1, 61, 72
3, 55368, Note_on_c, 1, 64, 72
3, 55400, Note_on_c, 1, 61, 0
3, 55400, Note_on_c, 1, 64, 0
3, 55464, Note_on_c, 1, 57, 75
3, 55464, Note_on_c, 1, 61, 75
3, 55464, Note_on_c, 1, 66, 75
3, 55496, Note_on_c, 1, 57, 0
3, 55496, Note_on_c, 1, 61, 0
3, 55496, Note_on_c, 1, 66, 0
3, 55560, Note_on_c, 1, 57, 75
3, 55560, Note_on_c, 1, 61, 75
3, 55560, Note_on_c, 1, 66, 75
3, 55592, Note_on_c, 1, 57, 0
3, 55592, Note_on_c, 1, 61, 0
3, 55592, Note_on_c, 1, 66, 0
3, 55656, Note_on_c, 1, 57, 75
3, 55656, Note_on_c, 1, 61, 75
3, 55656, Note_on_c, 1, 66, 75
3, 55688, Note_on_c, 1, 57, 0
3, 55688, Note_on_c, 1, 61, 0
3, 55688, Note_on_c, 1, 66, 0
3, 55752, Note_on_c, 1, 57, 75
3, 55752, Note_on_c, 1, 61, 75
3, 55752, Note_on_c, 1, 66, 75
3, 55784, Note_on_c, 1, 57, 0
3, 55784, Note_on_c, 1, 61, 0
3, 55784, Note_on_c, 1, 66, 0
3, 55848, Note_on_c, 1, 57, 75
3, 55848, Note_on_c, 1, 61, 75
3, 55848, Note_on_c, 1, 66, 75
3, 55880, Note_on_c, 1, 57, 0
3, 55880, Note_on_c, 1, 61, 0
3, 55880, Note_on_c, 1, 66, 0
3, 55944, Note_on_c, 1, 57, 75
3, 55944, Note_on_c, 1, 61, 75
3, 55944, Note_on_c, 1, 66, 75
3, 55976, Note_on_c, 1, 57, 0
3, 55976, Note_on_c, 1, 61, 0
3, 55976, Note_on_c, 1, 66, 0
3, 56040, Note_on_c, 1, 56, 45
3, 56040, Note_on_c, 1, 60, 45
3, 56040, Note_on_c, 1, 63, 45
3, 56296, Note_on_c, 1, 56, 0
3, 56296, Note_on_c, 1, 60, 0
3, 56296, Note_on_c, 1, 63, 0
3, 56328, Note_on_c, 1, 56, 45
3, 56328, Note_on_c, 1, 60, 45
3, 56328, Note_on_c, 1, 63, 45
3, 56488, Note_on_c, 1, 56, 0
3, 56488, Note_on_c, 1, 60, 0
3, 56488, Note_on_c, 1, 63, 0
3, 56616, Note_on_c, 1, 61, 45
3, 56616, Note_on_c, 1, 64, 45
3, 56648, Note_on_c, 1, 61, 0
3, 56648, Note_on_c, 1, 64, 0
3, 56712, Note_on_c, 1, 61, 45
3, 56712, Note_on_c, 1, 64, 45
3, 56744, Note_on_c, 1, 61, 0
3, 56744, Note_on_c, 1, 64, 0
3, 56808, Note_on_c, 1, 61, 45
3, 56808, Note_on_c, 1, 64, 45
3, 56840, Note_on_c, 1, 61, 0
3, 56840, Note_on_c, 1, 64, 0
3, 56904, Note_on_c, 1, 61, 45
3, 56904, Note_on_c, 1, 64, 45
3, 56936, Note_on_c, 1, 61, 0
3, 56936, Note_on_c, 1, 64, 0
3, 57000, Note_on_c, 1, 61, 45
3, 57000, Note_on_c, 1, 64, 45
3, 57032, Note_on_c, 1, 61, 0
3, 57032, Note_on_c, 1, 64, 0
3, 57096, Note_on_c, 1, 61, 45
3, 57096, Note_on_c, 1, 64, 45
3, 57128, Note_on_c, 1, 61, 0
3, 57128, Note_on_c, 1, 64, 0
3, 57192, Note_on_c, 1, 61, 45
3, 57192, Note_on_c, 1, 64, 45
3, 57224, Note_on_c, 1, 61, 0
3, 57224, Note_on_c, 1, 64, 0
3, 57288, Note_on_c, 1, 61, 45
3, 57288, Note_on_c, 1, 64, 45
3, 57320, Note_on_c, 1, 61, 0
3, 57320, Note_on_c, 1, 64, 0
3, 57384, Note_on_c, 1, 61, 45
3, 57384, Note_on_c, 1, 64, 45
3, 57416, Note_on_c, 1, 61, 0
3, 57416, Note_on_c, 1, 64, 0
3, 57480, Note_on_c, 1, 61, 45
3, 57480, Note_on_c, 1, 64, 45
3, 57512, Note_on_c, 1, 61, 0
3, 57512, Note_on_c, 1, 64, 0
3, 57576, Note_on_c, 1, 61, 45
3, 57576, Note_on_c, 1, 64, 45
3, 57608, Note_on_c, 1, 61, 0
3, 57608, Note_on_c, 1, 64, 0
3, 57672, Note_on_c, 1, 61, 45
3, 57672, Note_on_c, 1, 64, 45
3, 57704, Note_on_c, 1, 61, 0
3, 57704, Note_on_c, 1, 64, 0
3, 57768, Note_on_c, 1, 60, 45
3, 57768, Note_on_c, 1, 63, 45
3, 57768, Note_on_c, 1, 66, 45
3, 57800, Note_on_c, 1, 60, 0
3, 57800, Note_on_c, 1, 63, 0
3, 57800, Note_on_c, 1, 66, 0
3, 57864, Note_on_c, 1, 60, 45
3, 57864, Note_on_c, 1, 63, 45
3, 57864, Note_on_c, 1, 66, 45
3, 57896, Note_on_c, 1, 60, 0
3, 57896, Note_on_c, 1, 63, 0
3, 57896, Note_on_c, 1, 66, 0
3, 57960, Note_on_c, 1, 60, 45
3, 57960, Note_on_c, 1, 63, 45
3, 57960, Note_on_c, 1, 66, 45
3, 57992, Note_on_c, 1, 60, 0
3, 57992, Note_on_c, 1, 63, 0
3, 57992, Note_on_c, 1, 66, 0
3, 58056, Note_on_c, 1, 60, 45
3, 58056, Note_on_c, 1, 63, 45
3, 58056, Note_on_c, 1, 66, 45
3, 58088, Note_on_c, 1, 60, 0
3, 58088, Note_on_c, 1, 63, 0
3, 58088, Note_on_c, 1, 66, 0
3, 58152, Note_on_c, 1, 60, 45
3, 58152, Note_on_c, 1, 63, 45
3, 58152, Note_on_c, 1, 66, 45
3, 58184, Note_on_c, 1, 60, 0
3, 58184, Note_on_c, 1, 63, 0
3, 58184, Note_on_c, 1, 66, 0
3, 58248, Note_on_c, 1, 60, 45
3, 58248, Note_on_c, 1, 63, 45
3, 58248, Note_on_c, 1, 66, 45
3, 58280, Note_on_c, 1, 60, 0
3, 58280, Note_on_c, 1, 63, 0
3, 58280, Note_on_c, 1, 66, 0
3, 58344, Note_on_c, 1, 60, 45
3, 58344, Note_on_c, 1, 63, 45
3, 58344, Note_on_c, 1, 66, 45
3, 58376, Note_on_c, 1, 60, 0
3, 58376, Note_on_c, 1, 63, 0
3, 58376, Note_on_c, 1, 66, 0
3, 58440, Note_on_c, 1, 60, 45
3, 58440, Note_on_c, 1, 63, 45
3, 58440, Note_on_c, 1, 66, 45
3, 58472, Note_on_c, 1, 60, 0
3, 58472, Note_on_c, 1, 63, 0
3, 58472, Note_on_c, 1, 66, 0
3, 58536, Note_on_c, 1, 60, 45
3, 58536, Note_on_c, 1, 63, 45
3, 58536, Note_on_c, 1, 66, 45
3, 58568, Note_on_c, 1, 60, 0
3, 58568, Note_on_c, 1, 63, 0
3, 58568, Note_on_c, 1, 66, 0
3, 58632, Note_on_c, 1, 60, 45
3, 58632, Note_on_c, 1, 63, 45
3, 58632, Note_on_c, 1, 66, 45
3, 58664, Note_on_c, 1, 60, 0
3, 58664, Note_on_c, 1, 63, 0
3, 58664, Note_on_c, 1, 66, 0
3, 58728, Note_on_c, 1, 60, 45
3, 58728, Note_on_c, 1, 63, 45
3, 58728, Note_on_c, 1, 66, 45
3, 58760, Note_on_c, 1, 60, 0
3, 58760, Note_on_c, 1, 63, 0
3, 58760, Note_on_c, 1, 66, 0
3, 58824, Note_on_c, 1, 60, 45
3, 58824, Note_on_c, 1, 63, 45
3, 58824, Note_on_c, 1, 66, 45
3, 58856, Note_on_c, 1, 60, 0
3, 58856, Note_on_c, 1, 63, 0
3, 58856, Note_on_c, 1, 66, 0
3, 58920, Note_on_c, 1, 61, 45
3, 58920, Note_on_c, 1, 64, 45
3, 58952, Note_on_c, 1, 61, 0
3, 58952, Note_on_c, 1, 64, 0
3, 59016, Note_on_c, 1, 61, 45
3, 59016, Note_on_c, 1, 64, 45
3, 59048, Note_on_c, 1, 61, 0
3, 59048, Note_on_c, 1, 64, 0
3, 59112, Note_on_c, 1, 61, 45
3, 59112, Note_on_c, 1, 64, 45
3, 59144, Note_on_c, 1, 61, 0
3, 59144, Note_on_c, 1, 64, 0
3, 59208, Note_on_c, 1, 49, 45
3, 59208, Note_on_c, 1, 52, 45
3, 59240, Note_on_c, 1, 49, 0
3, 59240, Note_on_c, 1, 52, 0
3, 59304, Note_on_c, 1, 49, 45
3, 59304, Note_on_c, 1, 52, 45
3, 59336, Note_on_c, 1, 49, 0
3, 59336, Note_on_c, 1, 52, 0
3, 59400, Note_on_c, 1, 49, 45
3, 59400, Note_on_c, 1, 52, 45
3, 59432, Note_on_c, 1, 49, 0
3, 59432, Note_on_c, 1, 52, 0
3, 59496, Note_on_c, 1, 51, 45
3, 59496, Note_on_c, 1, 54, 45
3, 59528, Note_on_c, 1, 51, 0
3, 59528, Note_on_c, 1, 54, 0
3, 59592, Note_on_c, 1, 51, 45
3, 59592, Note_on_c, 1, 54, 45
3, 59624, Note_on_c, 1, 51, 0
3, 59624, Note_on_c, 1, 54, 0
3, 59688, Note_on_c, 1, 51, 63
3, 59688, Note_on_c, 1, 54, 63
3, 59720, Note_on_c, 1, 51, 0
3, 59720, Note_on_c, 1, 54, 0
3, 59784, Note_on_c, 1, 51, 45
3, 59784, Note_on_c, 1, 59, 45
3, 59816, Note_on_c, 1, 51, 0
3, 59816, Note_on_c, 1, 59, 0
3, 59880, Note_on_c, 1, 51, 45
3, 59880, Note_on_c, 1, 59, 45
3, 59912, Note_on_c, 1, 51, 0
3, 59912, Note_on_c, 1, 59, 0
3, 59976, Note_on_c, 1, 51, 63
3, 59976, Note_on_c, 1, 59, 63
3, 60008, Note_on_c, 1, 51, 0
3, 60008, Note_on_c, 1, 59, 0
3, 60072, Note_on_c, 1, 52, 45
3, 60072, Note_on_c, 1, 59, 45
3, 60104, Note_on_c, 1, 52, 0
3, 60104, Note_on_c, 1, 59, 0
3, 60168, Note_on_c, 1, 52, 45
3, 60168, Note_on_c, 1, 59, 45
3, 60200, Note_on_c, 1, 52, 0
3, 60200, Note_on_c, 1, 59, 0
3, 60264, Note_on_c, 1, 52, 63
3, 60264, Note_on_c, 1, 59, 63
3, 60296, Note_on_c, 1, 52, 0
3, 60296, Note_on_c, 1, 59, 0
3, 60360, Note_on_c, 1, 47, 45
3, 60360, Note_on_c, 1, 57, 45
3, 60392, Note_on_c, 1, 47, 0
3, 60392, Note_on_c, 1, 57, 0
3, 60456, Note_on_c, 1, 47, 45
3, 60456, Note_on_c, 1, 57, 45
3, 60488, Note_on_c, 1, 47, 0
3, 60488, Note_on_c, 1, 57, 0
3, 60552, Note_on_c, 1, 47, 63
3, 60552, Note_on_c, 1, 57, 63
3, 60584, Note_on_c, 1, 47, 0
3, 60584, Note_on_c, 1, 57, 0
3, 60648, Note_on_c, 1, 52, 45
3, 60648, Note_on_c, 1, 56, 45
3, 60808, Note_on_c, 1, 52, 0
3, 60808, Note_on_c, 1, 56, 0
3, 61128, Note_on_c, 1, 47, 45
3, 61222, Note_on_c, 1, 47, 0
3, 61224, Note_on_c, 1, 47, 45
3, 61480, Note_on_c, 1, 47, 0
3, 61512, Note_on_c, 1, 47, 45
3, 61606, Note_on_c, 1, 47, 0
3, 61608, Note_on_c, 1, 48, 45
3, 61702, Note_on_c, 1, 48, 0
3, 61704, Note_on_c, 1, 47, 45
3, 61736, Note_on_c, 1, 47, 0
3, 61800, Note_on_c, 1, 47, 45
3, 62056, Note_on_c, 1, 47, 0
3, 62088, Note_on_c, 1, 47, 45
3, 62182, Note_on_c, 1, 47, 0
3, 62184, Note_on_c, 1, 55, 45
3, 62278, Note_on_c, 1, 55, 0
3, 62280, Note_on_c, 1, 52, 45
3, 62312, Note_on_c, 1, 52, 0
3, 62376, Note_on_c, 1, 47, 45
3, 62632, Note_on_c, 1, 47, 0
3, 62664, Note_on_c, 1, 47, 45
3, 62758, Note_on_c, 1, 47, 0
3, 62760, Note_on_c, 1, 48, 45
3, 62854, Note_on_c, 1, 48, 0
3, 62856, Note_on_c, 1, 47, 45
3, 62888, Note_on_c, 1, 47, 0
3, 62952, Note_on_c, 1, 47, 45
3, 63208, Note_on_c, 1, 47, 0
3, 63240, Note_on_c, 1, 47, 45
3, 63334, Note_on_c, 1, 47, 0
3, 63336, Note_on_c, 1, 57, 45
3, 63430, Note_on_c, 1, 57, 0
3, 63432, Note_on_c, 1, 54, 45
3, 63464, Note_on_c, 1, 54, 0
3, 63528, Note_on_c, 1, 52, 45
3, 63784, Note_on_c, 1, 52, 0
3, 63816, Note_on_c, 1, 52, 56
3, 63910, Note_on_c, 1, 52, 0
3, 63912, Note_on_c, 1, 62, 60
3, 64006, Note_on_c, 1, 62, 0
3, 64008, Note_on_c, 1, 59, 64
3, 64040, Note_on_c, 1, 59, 0
3, 64104, Note_on_c, 1, 45, 68
3, 64360, Note_on_c, 1, 45, 0
3, 64392, Note_on_c, 1, 45, 80
3, 64486, Note_on_c, 1, 45, 0
3, 64488, Note_on_c, 1, 55, 84
3, 64582, Note_on_c, 1, 55, 0
3, 64584, Note_on_c, 1, 52, 88
3, 64616, Note_on_c, 1, 52, 0
3, 64680, Note_on_c, 1, 38, 92
3, 65256, Note_on_c, 1, 38, 0
3, 65256, Note_on_c, 1, 39, 92
3, 65784, Note_on_c, 1, 39, 0
3, 65832, Note_on_c, 1, 38, 127
3, 66408, Note_on_c, 1, 38, 0
3, 66408, Note_on_c, 1, 38, 92
3, 66936, Note_on_c, 1, 38, 0
3, 67272, Note_on_c, 1, 50, 127
3, 67272, Note_on_c, 1, 54, 127
3, 67272, Note_on_c, 1, 57, 127
3, 67272, Note_on_c, 1, 60, 127
3, 67320, Note_on_c, 1, 50, 0
3, 67320, Note_on_c, 1, 54, 0
3, 67320, Note_on_c, 1, 57, 0
3, 67320, Note_on_c, 1, 60, 0
3, 67848, Note_on_c, 1, 50, 127
3, 67848, Note_on_c, 1, 54, 127
3, 67848, Note_on_c, 1, 57, 127
3, 67848, Note_on_c, 1, 60, 127
3, 67896, Note_on_c, 1, 50, 0
3, 67896, Note_on_c, 1, 54, 0
3, 67896, Note_on_c, 1, 57, 0
3, 67896, Note_on_c, 1, 60, 0
3, 70632, Note_on_c, 1, 43, 30
3, 70632, Note_on_c, 1, 55, 30
3, 70726, Note_on_c, 1, 55, 0
3, 70728, Note_on_c, 1, 50, 30
3, 70822, Note_on_c, 1, 50, 0
3, 70824, Note_on_c, 1, 57, 30
3, 70918, Note_on_c, 1, 57, 0
3, 70920, Note_on_c, 1, 50, 30
3, 70968, Note_on_c, 1, 43, 0
3, 71014, Note_on_c, 1, 50, 0
3, 71016, Note_on_c, 1, 43, 30
3, 71016, Note_on_c, 1, 59, 30
3, 71110, Note_on_c, 1, 59, 0
3, 71112, Note_on_c, 1, 50, 30
3, 71206, Note_on_c, 1, 50, 0
3, 71208, Note_on_c, 1, 59, 30
3, 71302, Note_on_c, 1, 59, 0
3, 71304, Note_on_c, 1, 50, 30
3, 71352, Note_on_c, 1, 43, 0
3, 71398, Note_on_c, 1, 50, 0
3, 71400, Note_on_c, 1, 45, 30
3, 71400, Note_on_c, 1, 45, 30
3, 71494, Note_on_c, 1, 45, 0
3, 71496, Note_on_c, 1, 50, 30
3, 71560, Note_on_c, 1, 45, 0
3, 71590, Note_on_c, 1, 50, 0
3, 71592, Note_on_c, 1, 43, 30
3, 71592, Note_on_c, 1, 43, 30
3, 71686, Note_on_c, 1, 43, 0
3, 71688, Note_on_c, 1, 50, 30
3, 71752, Note_on_c, 1, 43, 0
3, 71782, Note_on_c, 1, 50, 0
3, 71784, Note_on_c, 1, 38, 30
3, 71784, Note_on_c, 1, 50, 30
3, 72120, Note_on_c, 1, 38, 0
3, 72120, Note_on_c, 1, 50, 0
3, 72168, Note_on_c, 1, 51, 30
3, 72262, Note_on_c, 1, 51, 0
3, 72264, Note_on_c, 1, 47, 30
3, 72358, Note_on_c, 1, 47, 0
3, 72360, Note_on_c, 1, 52, 30
3, 72454, Note_on_c, 1, 52, 0
3, 72456, Note_on_c, 1, 55, 30
3, 72550, Note_on_c, 1, 55, 0
3, 72552, Note_on_c, 1, 49, 30
3, 72646, Note_on_c, 1, 49, 0
3, 72648, Note_on_c, 1, 45, 30
3, 72742, Note_on_c, 1, 45, 0
3, 72744, Note_on_c, 1, 50, 30
3, 72838, Note_on_c, 1, 50, 0
3, 72840, Note_on_c, 1, 54, 30
3, 72934, Note_on_c, 1, 54, 0
3, 72936, Note_on_c, 1, 57, 30
3, 73032, Note_on_c, 1, 45, 30
3, 73096, Note_on_c, 1, 57, 0
3, 73128, Note_on_c, 1, 55, 30
3, 73192, Note_on_c, 1, 45, 0
3, 73224, Note_on_c, 1, 45, 30
3, 73288, Note_on_c, 1, 55, 0
3, 73318, Note_on_c, 1, 45, 0
3, 73320, Note_on_c, 1, 50, 30
3, 73320, Note_on_c, 1, 54, 30
3, 73414, Note_on_c, 1, 50, 0
3, 73414, Note_on_c, 1, 54, 0
3, 73704, Note_on_c, 1, 38, 45
3, 73864, Note_on_c, 1, 38, 0
3, 73896, Note_on_c, 1, 38, 45
3, 73918, Note_on_c, 1, 38, 0
3, 73920, Note_on_c, 1, 40, 45
3, 73942, Note_on_c, 1, 40, 0
3, 73944, Note_on_c, 1, 42, 45
3, 73966, Note_on_c, 1, 42, 0
3, 73968, Note_on_c, 1, 43, 45
3, 73990, Note_on_c, 1, 43, 0
3, 73992, Note_on_c, 1, 45, 45
3, 74014, Note_on_c, 1, 45, 0
3, 74016, Note_on_c, 1, 47, 45
3, 74038, Note_on_c, 1, 47, 0
3, 74040, Note_on_c, 1, 48, 45
3, 74062, Note_on_c, 1, 48, 0
3, 74064, Note_on_c, 1, 49, 45
3, 74086, Note_on_c, 1, 49, 0
3, 74088, Note_on_c, 1, 50, 45
3, 74280, Note_on_c, 1, 50, 0
3, 74280, Note_on_c, 1, 50, 45
3, 74302, Note_on_c, 1, 50, 0
3, 74304, Note_on_c, 1, 52, 45
3, 74326, Note_on_c, 1, 52, 0
3, 74328, Note_on_c, 1, 54, 45
3, 74350, Note_on_c, 1, 54, 0
3, 74352, Note_on_c, 1, 55, 45
3, 74374, Note_on_c, 1, 55, 0
3, 74376, Note_on_c, 1, 57, 45
3, 74398, Note_on_c, 1, 57, 0
3, 74400, Note_on_c, 1, 59, 45
3, 74422, Note_on_c, 1, 59, 0
3, 74424, Note_on_c, 1, 60, 45
3, 74446, Note_on_c, 1, 60, 0
3, 74448, Note_on_c, 1, 61, 45
3, 74470, Note_on_c, 1, 61, 0
3, 74472, Note_on_c, 1, 57, 45
3, 74472, Note_on_c, 1, 60, 45
3, 74566, Note_on_c, 1, 60, 0
3, 74568, Note_on_c, 1, 62, 45
3, 74632, Note_on_c, 1, 57, 0
3, 74662, Note_on_c, 1, 62, 0
3, 74664, Note_on_c, 1, 55, 45
3, 74664, Note_on_c, 1, 59, 45
3, 74758, Note_on_c, 1, 59, 0
3, 74760, Note_on_c, 1, 62, 45
3, 74824, Note_on_c, 1, 55, 0
3, 74854, Note_on_c, 1, 62, 0
3, 74856, Note_on_c, 1, 54, 45
3, 74856, Note_on_c, 1, 57, 45
3, 74950, Note_on_c, 1, 54, 0
3, 74950, Note_on_c, 1, 57, 0
3, 75240, Note_on_c, 1, 31, 45
3, 75432, Note_on_c, 1, 31, 0
3, 75432, Note_on_c, 1, 31, 45
3, 75454, Note_on_c, 1, 31, 0
3, 75456, Note_on_c, 1, 33, 45
3, 75478, Note_on_c, 1, 33, 0
3, 75480, Note_on_c, 1, 35, 45
3, 75502, Note_on_c, 1, 35, 0
3, 75504, Note_on_c, 1, 36, 45
3, 75526, Note_on_c, 1, 36, 0
3, 75528, Note_on_c, 1, 38, 45
3, 75550, Note_on_c, 1, 38, 0
3, 75552, Note_on_c, 1, 40, 45
3, 75574, Note_on_c, 1, 40, 0
3, 75576, Note_on_c, 1, 41, 45
3, 75598, Note_on_c, 1, 41, 0
3, 75600, Note_on_c, 1, 42, 45
3, 75622, Note_on_c, 1, 42, 0
3, 75624, Note_on_c, 1, 43, 45
3, 75816, Note_on_c, 1, 43, 0
3, 75816, Note_on_c, 1, 43, 45
3, 75838, Note_on_c, 1, 43, 0
3, 75840, Note_on_c, 1, 45, 45
3, 75862, Note_on_c, 1, 45, 0
3, 75864, Note_on_c, 1, 47, 45
3, 75886, Note_on_c, 1, 47, 0
3, 75888, Note_on_c, 1, 48, 45
3, 75910, Note_on_c, 1, 48, 0
3, 75912, Note_on_c, 1, 50, 45
3, 75934, Note_on_c, 1, 50, 0
3, 75936, Note_on_c, 1, 52, 45
3, 75958, Note_on_c, 1, 52, 0
3, 75960, Note_on_c, 1, 53, 45
3, 75982, Note_on_c, 1, 53, 0
3, 75984, Note_on_c, 1, 54, 45
3, 76006, Note_on_c, 1, 54, 0
3, 76104, Note_on_c, 1, 55, 45
3, 76198, Note_on_c, 1, 55, 0
3, 76200, Note_on_c, 1, 48, 45
3, 76200, Note_on_c, 1, 52, 45
3, 76294, Note_on_c, 1, 52, 0
3, 76296, Note_on_c, 1, 55, 45
3, 76360, Note_on_c, 1, 48, 0
3, 76390, Note_on_c, 1, 55, 0
3, 76392, Note_on_c, 1, 47, 45
3, 76392, Note_on_c, 1, 50, 45
3, 76486, Note_on_c, 1, 50, 0
3, 76488, Note_on_c, 1, 55, 45
3, 76552, Note_on_c, 1, 47, 0
3, 76582, Note_on_c, 1, 55, 0
3, 76584, Note_on_c, 1, 50, 45
3, 76584, Note_on_c, 1, 57, 45
3, 76678, Note_on_c, 1, 57, 0
3, 76680, Note_on_c, 1, 54, 45
3, 76744, Note_on_c, 1, 50, 0
3, 76774, Note_on_c, 1, 54, 0
3, 76776, Note_on_c, 1, 43, 45
3, 76776, Note_on_c, 1, 55, 45
3, 76870, Note_on_c, 1, 55, 0
3, 76872, Note_on_c, 1, 50, 45
3, 76966, Note_on_c, 1, 50, 0
3, 76968, Note_on_c, 1, 57, 45
3, 77062, Note_on_c, 1, 57, 0
3, 77064, Note_on_c, 1, 50, 45
3, 77112, Note_on_c, 1, 43, 0
3, 77158, Note_on_c, 1, 50, 0
3, 77160, Note_on_c, 1, 43, 45
3, 77160, Note_on_c, 1, 59, 45
3, 77254, Note_on_c, 1, 59, 0
3, 77256, Note_on_c, 1, 50, 45
3, 77350, Note_on_c, 1, 50, 0
3, 77352, Note_on_c, 1, 55, 45
3, 77446, Note_on_c, 1, 55, 0
3, 77448, Note_on_c, 1, 50, 45
3, 77496, Note_on_c, 1, 43, 0
3, 77542, Note_on_c, 1, 50, 0
3, 77544, Note_on_c, 1, 45, 45
3, 77544, Note_on_c, 1, 45, 45
3, 77638, Note_on_c, 1, 45, 0
3, 77640, Note_on_c, 1, 50, 45
3, 77704, Note_on_c, 1, 45, 0
3, 77734, Note_on_c, 1, 50, 0
3, 77736, Note_on_c, 1, 43, 45
3, 77736, Note_on_c, 1, 43, 45
3, 77830, Note_on_c, 1, 43, 0
3, 77832, Note_on_c, 1, 50, 45
3, 77896, Note_on_c, 1, 43, 0
3, 77926, Note_on_c, 1, 50, 0
3, 77928, Note_on_c, 1, 38, 45
3, 77928, Note_on_c, 1, 50, 45
3, 78264, Note_on_c, 1, 38, 0
3, 78264, Note_on_c, 1, 50, 0
3, 78312, Note_on_c, 1, 50, 45
3, 78312, Note_on_c, 1, 56, 45
3, 78406, Note_on_c, 1, 56, 0
3, 78408, Note_on_c, 1, 52, 45
3, 78472, Note_on_c, 1, 50, 0
3, 78502, Note_on_c, 1, 52, 0
3, 78504, Note_on_c, 1, 48, 45
3, 78504, Note_on_c, 1, 57, 45
3, 78598, Note_on_c, 1, 57, 0
3, 78600, Note_on_c, 1, 60, 45
3, 78632, Note_on_c, 1, 60, 0
3, 78664, Note_on_c, 1, 48, 0
3, 78696, Note_on_c, 1, 48, 45
3, 78696, Note_on_c, 1, 54, 45
3, 78790, Note_on_c, 1, 54, 0
3, 78792, Note_on_c, 1, 50, 45
3, 78856, Note_on_c, 1, 48, 0
3, 78886, Note_on_c, 1, 50, 0
3, 78888, Note_on_c, 1, 47, 45
3, 78888, Note_on_c, 1, 55, 45
3, 78982, Note_on_c, 1, 55, 0
3, 78984, Note_on_c, 1, 59, 45
3, 79016, Note_on_c, 1, 59, 0
3, 79048, Note_on_c, 1, 47, 0
3, 79080, Note_on_c, 1, 50, 45
3, 79080, Note_on_c, 1, 50, 45
3, 79240, Note_on_c, 1, 50, 0
3, 79272, Note_on_c, 1, 38, 45
3, 79416, Note_on_c, 1, 50, 0
3, 79432, Note_on_c, 1, 38, 0
3, 79464, Note_on_c, 1, 43, 45
3, 79558, Note_on_c, 1, 43, 0
3, 79944, Note_on_c, 1, 60, 45
3, 79944, Note_on_c, 1, 66, 45
3, 79944, Note_on_c, 1, 69, 45
3, 79976, Note_on_c, 1, 60, 0
3, 79976, Note_on_c, 1, 66, 0
3, 79976, Note_on_c, 1, 69, 0
3, 80040, Note_on_c, 1, 60, 45
3, 80040, Note_on_c, 1, 66, 45
3, 80040, Note_on_c, 1, 69, 45
3, 80072, Note_on_c, 1, 60, 0
3, 80072, Note_on_c, 1, 66, 0
3, 80072, Note_on_c, 1, 69, 0
3, 80328, Note_on_c, 1, 59, 45
3, 80328, Note_on_c, 1, 62, 45
3, 80328, Note_on_c, 1, 67, 45
3, 80360, Note_on_c, 1, 59, 0
3, 80360, Note_on_c, 1, 62, 0
3, 80360, Note_on_c, 1, 67, 0
3, 80424, Note_on_c, 1, 59, 45
3, 80424, Note_on_c, 1, 62, 45
3, 80424, Note_on_c, 1, 67, 45
3, 80456, Note_on_c, 1, 59, 0
3, 80456, Note_on_c, 1, 62, 0
3, 80456, Note_on_c, 1, 67, 0
3, 80712, Note_on_c, 1, 57, 45
3, 80712, Note_on_c, 1, 60, 45
3, 80744, Note_on_c, 1, 57, 0
3, 80744, Note_on_c, 1, 60, 0
3, 80904, Note_on_c, 1, 50, 45
3, 80904, Note_on_c, 1, 57, 45
3, 80904, Note_on_c, 1, 60, 45
3, 80936, Note_on_c, 1, 50, 0
3, 80936, Note_on_c, 1, 57, 0
3, 80936, Note_on_c, 1, 60, 0
3, 81096, Note_on_c, 1, 55, 45
3, 81096, Note_on_c, 1, 59, 45
3, 81190, Note_on_c, 1, 55, 0
3, 81190, Note_on_c, 1, 59, 0
3, 81192, Note_on_c, 1, 59, 45
3, 81192, Note_on_c, 1, 62, 45
3, 81286, Note_on_c, 1, 59, 0
3, 81286, Note_on_c, 1, 62, 0
3, 81288, Note_on_c, 1, 62, 45
3, 81288, Note_on_c, 1, 67, 45
3, 81382, Note_on_c, 1, 62, 0
3, 81382, Note_on_c, 1, 67, 0
3, 81480, Note_on_c, 1, 60, 45
3, 81480, Note_on_c, 1, 66, 45
3, 81480, Note_on_c, 1, 69, 45
3, 81512, Note_on_c, 1, 60, 0
3, 81512, Note_on_c, 1, 66, 0
3, 81512, Note_on_c, 1, 69, 0
3, 81576, Note_on_c, 1, 60, 45
3, 81576, Note_on_c, 1, 66, 45
3, 81576, Note_on_c, 1, 69, 45
3, 81608, Note_on_c, 1, 60, 0
3, 81608, Note_on_c, 1, 66, 0
3, 81608, Note_on_c, 1, 69, 0
3, 81864, Note_on_c, 1, 59, 45
3, 81864, Note_on_c, 1, 62, 45
3, 81864, Note_on_c, 1, 67, 45
3, 81896, Note_on_c, 1, 59, 0
3, 81896, Note_on_c, 1, 62, 0
3, 81896, Note_on_c, 1, 67, 0
3, 81960, Note_on_c, 1, 59, 45
3, 81960, Note_on_c, 1, 62, 45
3, 81960, Note_on_c, 1, 67, 45
3, 81992, Note_on_c, 1, 59, 0
3, 81992, Note_on_c, 1, 62, 0
3, 81992, Note_on_c, 1, 67, 0
3, 82272, Note_on_c, 1, 57, 45
3, 82272, Note_on_c, 1, 60, 45
3, 82304, Note_on_c, 1, 57, 0
3, 82304, Note_on_c, 1, 60, 0
3, 82464, Note_on_c, 1, 50, 45
3, 82464, Note_on_c, 1, 57, 45
3, 82464, Note_on_c, 1, 60, 45
3, 82496, Note_on_c, 1, 50, 0
3, 82496, Note_on_c, 1, 57, 0
3, 82496, Note_on_c, 1, 60, 0
3, 82656, Note_on_c, 1, 55, 45
3, 82726, Note_on_c, 1, 55, 0
3, 82728, Note_on_c, 1, 59, 45
3, 82750, Note_on_c, 1, 59, 0
3, 82752, Note_on_c, 1, 62, 45
3, 82912, Note_on_c, 1, 62, 0
3, 83040, Note_on_c, 1, 54, 45
3, 83110, Note_on_c, 1, 54, 0
3, 83112, Note_on_c, 1, 57, 45
3, 83134, Note_on_c, 1, 57, 0
3, 83136, Note_on_c, 1, 63, 45
3, 83296, Note_on_c, 1, 63, 0
3, 83376, Note_on_c, 1, 52, 45
3, 83398, Note_on_c, 1, 52, 0
3, 83400, Note_on_c, 1, 55, 45
3, 83422, Note_on_c, 1, 55, 0
3, 83424, Note_on_c, 1, 59, 45
3, 83456, Note_on_c, 1, 59, 0
3, 83568, Note_on_c, 1, 50, 45
3, 83590, Note_on_c, 1, 50, 0
3, 83592, Note_on_c, 1, 53, 45
3, 83614, Note_on_c, 1, 53, 0
3, 83616, Note_on_c, 1, 59, 45
3, 83648, Note_on_c, 1, 59, 0
3, 83760, Note_on_c, 1, 48, 45
3, 83782, Note_on_c, 1, 48, 0
3, 83784, Note_on_c, 1, 52, 45
3, 83806, Note_on_c, 1, 52, 0
3, 83808, Note_on_c, 1, 55, 45
3, 83840, Note_on_c, 1, 55, 0
3, 83952, Note_on_c, 1, 47, 45
3, 83974, Note_on_c, 1, 47, 0
3, 83976, Note_on_c, 1, 50, 45
3, 83998, Note_on_c, 1, 50, 0
3, 84000, Note_on_c, 1, 56, 45
3, 84032, Note_on_c, 1, 56, 0
3, 84096, Note_on_c, 1, 45, 45
3, 84142, Note_on_c, 1, 45, 0
3, 84144, Note_on_c, 1, 57, 45
3, 84190, Note_on_c, 1, 57, 0
3, 84192, Note_on_c, 1, 43, 45
3, 84238, Note_on_c, 1, 43, 0
3, 84240, Note_on_c, 1, 55, 45
3, 84286, Note_on_c, 1, 55, 0
3, 84288, Note_on_c, 1, 42, 45
3, 84334, Note_on_c, 1, 42, 0
3, 84336, Note_on_c, 1, 54, 45
3, 84382, Note_on_c, 1, 54, 0
3, 84384, Note_on_c, 1, 40, 45
3, 84430, Note_on_c, 1, 40, 0
3, 84432, Note_on_c, 1, 52, 45
3, 84478, Note_on_c, 1, 52, 0
3, 84480, Note_on_c, 1, 38, 63
3, 84480, Note_on_c, 1, 50, 63
3, 84816, Note_on_c, 1, 38, 0
3, 84816, Note_on_c, 1, 50, 0
3, 84864, Note_on_c, 1, 43, 63
3, 84864, Note_on_c, 1, 55, 63
3, 84896, Note_on_c, 1, 43, 0
3, 84896, Note_on_c, 1, 55, 0
3, 85056, Note_on_c, 1, 48, 63
3, 85056, Note_on_c, 1, 52, 63
3, 85056, Note_on_c, 1, 57, 63
3, 85088, Note_on_c, 1, 48, 0
3, 85088, Note_on_c, 1, 52, 0
3, 85088, Note_on_c, 1, 57, 0
3, 85248, Note_on_c, 1, 38, 45
3, 85248, Note_on_c, 1, 50, 45
3, 85280, Note_on_c, 1, 38, 0
3, 85280, Note_on_c, 1, 50, 0
3, 85344, Note_on_c, 1, 50, 45
3, 85344, Note_on_c, 1, 59, 45
3, 85438, Note_on_c, 1, 59, 0
3, 85440, Note_on_c, 1, 54, 45
3, 85600, Note_on_c, 1, 50, 0
3, 85600, Note_on_c, 1, 54, 0
3, 85632, Note_on_c, 1, 43, 45
3, 85662, Note_on_c, 1, 43, 0
3, 85664, Note_on_c, 1, 47, 45
3, 85694, Note_on_c, 1, 47, 0
3, 85696, Note_on_c, 1, 50, 45
3, 85726, Note_on_c, 1, 50, 0
3, 85728, Note_on_c, 1, 55, 45
3, 85758, Note_on_c, 1, 55, 0
3, 85760, Note_on_c, 1, 59, 45
3, 85790, Note_on_c, 1, 59, 0
3, 85792, Note_on_c, 1, 62, 45
3, 85822, Note_on_c, 1, 62, 0
3, 85824, Note_on_c, 1, 67, 45
3, 85856, Note_on_c, 1, 67, 0
3, 86016, Note_on_c, 1, 54, 45
3, 86046, Note_on_c, 1, 54, 0
3, 86048, Note_on_c, 1, 57, 45
3, 86078, Note_on_c, 1, 57, 0
3, 86080, Note_on_c, 1, 59, 45
3, 86110, Note_on_c, 1, 59, 0
3, 86112, Note_on_c, 1, 63, 45
3, 86142, Note_on_c, 1, 63, 0
3, 86144, Note_on_c, 1, 59, 45
3, 86174, Note_on_c, 1, 59, 0
3, 86176, Note_on_c, 1, 57, 45
3, 86206, Note_on_c, 1, 57, 0
3, 86208, Note_on_c, 1, 54, 45
3, 86240, Note_on_c, 1, 54, 0
3, 86432, Note_on_c, 1, 52, 45
3, 86462, Note_on_c, 1, 52, 0
3, 86464, Note_on_c, 1, 55, 45
3, 86494, Note_on_c, 1, 55, 0
3, 86496, Note_on_c, 1, 59, 45
3, 86528, Note_on_c, 1, 59, 0
3, 86624, Note_on_c, 1, 50, 47
3, 86654, Note_on_c, 1, 50, 0
3, 86656, Note_on_c, 1, 53, 47
3, 86686, Note_on_c, 1, 53, 0
3, 86688, Note_on_c, 1, 59, 47
3, 86720, Note_on_c, 1, 59, 0
3, 86816, Note_on_c, 1, 48, 49
3, 86846, Note_on_c, 1, 48, 0
3, 86848, Note_on_c, 1, 52, 49
3, 86878, Note_on_c, 1, 52, 0
3, 86880, Note_on_c, 1, 55, 49
3, 86912, Note_on_c, 1, 55, 0
3, 87008, Note_on_c, 1, 47, 51
3, 87038, Note_on_c, 1, 47, 0
3, 87040, Note_on_c, 1, 50, 51
3, 87070, Note_on_c, 1, 50, 0
3, 87072, Note_on_c, 1, 56, 52
3, 87104, Note_on_c, 1, 56, 0
3, 87168, Note_on_c, 1, 45, 55
3, 87198, Note_on_c, 1, 45, 0
3, 87200, Note_on_c, 1, 48, 56
3, 87230, Note_on_c, 1, 48, 0
3, 87232, Note_on_c, 1, 57, 57
3, 87262, Note_on_c, 1, 57, 0
3, 87264, Note_on_c, 1, 43, 58
3, 87294, Note_on_c, 1, 43, 0
3, 87296, Note_on_c, 1, 47, 59
3, 87326, Note_on_c, 1, 47, 0
3, 87328, Note_on_c, 1, 55, 60
3, 87358, Note_on_c, 1, 55, 0
3, 87360, Note_on_c, 1, 42, 61
3, 87390, Note_on_c, 1, 42, 0
3, 87392, Note_on_c, 1, 45, 62
3, 87422, Note_on_c, 1, 45, 0
3, 87424, Note_on_c, 1, 54, 63
3, 87454, Note_on_c, 1, 54, 0
3, 87456, Note_on_c, 1, 40, 64
3, 87486, Note_on_c, 1, 40, 0
3, 87488, Note_on_c, 1, 43, 65
3, 87518, Note_on_c, 1, 43, 0
3, 87520, Note_on_c, 1, 52, 66
3, 87550, Note_on_c, 1, 52, 0
3, 87552, Note_on_c, 1, 38, 67
3, 87552, Note_on_c, 1, 42, 67
3, 87552, Note_on_c, 1, 50, 67
3, 87584, Note_on_c, 1, 38, 0
3, 87584, Note_on_c, 1, 42, 0
3, 87584, Note_on_c, 1, 50, 0
3, 87648, Note_on_c, 1, 50, 98
3, 87648, Note_on_c, 1, 54, 98
3, 87648, Note_on_c, 1, 57, 98
3, 87648, Note_on_c, 1, 60, 98
3, 87904, Note_on_c, 1, 50, 0
3, 87904, Note_on_c, 1, 54, 0
3, 87904, Note_on_c, 1, 57, 0
3, 87904, Note_on_c, 1, 60, 0
3, 87936, Note_on_c, 1, 55, 79
3, 87936, Note_on_c, 1, 59, 79
3, 87968, Note_on_c, 1, 55, 0
3, 87968, Note_on_c, 1, 59, 0
3, 88128, Note_on_c, 1, 48, 85
3, 88128, Note_on_c, 1, 52, 85
3, 88128, Note_on_c, 1, 57, 85
3, 88160, Note_on_c, 1, 48, 0
3, 88160, Note_on_c, 1, 52, 0
3, 88160, Note_on_c, 1, 57, 0
3, 88320, Note_on_c, 1, 50, 92
3, 88320, Note_on_c, 1, 55, 92
3, 88320, Note_on_c, 1, 59, 92
3, 88352, Note_on_c, 1, 50, 0
3, 88352, Note_on_c, 1, 55, 0
3, 88352, Note_on_c, 1, 59, 0
3, 88704, Note_on_c, 1, 38, 92
3, 88704, Note_on_c, 1, 50, 92
3, 88736, Note_on_c, 1, 38, 0
3, 88736, Note_on_c, 1, 50, 0
3, 89088, Note_on_c, 1, 55, 45
3, 89248, Note_on_c, 1, 55, 0
3, 89280, Note_on_c, 1, 55, 45
3, 89302, Note_on_c, 1, 55, 0
3, 89304, Note_on_c, 1, 54, 45
3, 89326, Note_on_c, 1, 54, 0
3, 89328, Note_on_c, 1, 57, 45
3, 89350, Note_on_c, 1, 57, 0
3, 89352, Note_on_c, 1, 55, 45
3, 89374, Note_on_c, 1, 55, 0
3, 89376, Note_on_c, 1, 53, 45
3, 89398, Note_on_c, 1, 53, 0
3, 89400, Note_on_c, 1, 52, 45
3, 89422, Note_on_c, 1, 52, 0
3, 89424, Note_on_c, 1, 50, 45
3, 89446, Note_on_c, 1, 50, 0
3, 89448, Note_on_c, 1, 48, 45
3, 89470, Note_on_c, 1, 48, 0
3, 89472, Note_on_c, 1, 47, 45
3, 89638, Note_on_c, 1, 47, 0
3, 89640, Note_on_c, 1, 43, 45
3, 89656, Note_on_c, 1, 43, 0
3, 89664, Note_on_c, 1, 48, 45
3, 89830, Note_on_c, 1, 48, 0
3, 89832, Note_on_c, 1, 52, 45
3, 89848, Note_on_c, 1, 52, 0
3, 89856, Note_on_c, 1, 55, 45
3, 90016, Note_on_c, 1, 55, 0
3, 90048, Note_on_c, 1, 55, 45
3, 90070, Note_on_c, 1, 55, 0
3, 90072, Note_on_c, 1, 54, 45
3, 90094, Note_on_c, 1, 54, 0
3, 90096, Note_on_c, 1, 57, 45
3, 90118, Note_on_c, 1, 57, 0
3, 90120, Note_on_c, 1, 55, 45
3, 90142, Note_on_c, 1, 55, 0
3, 90144, Note_on_c, 1, 53, 45
3, 90166, Note_on_c, 1, 53, 0
3, 90168, Note_on_c, 1, 52, 45
3, 90190, Note_on_c, 1, 52, 0
3, 90192, Note_on_c, 1, 50, 45
3, 90214, Note_on_c, 1, 50, 0
3, 90216, Note_on_c, 1, 48, 45
3, 90238, Note_on_c, 1, 48, 0
3, 90240, Note_on_c, 1, 47, 45
3, 90406, Note_on_c, 1, 47, 0
3, 90408, Note_on_c, 1, 43, 45
3, 90424, Note_on_c, 1, 43, 0
3, 90432, Note_on_c, 1, 48, 45
3, 90598, Note_on_c, 1, 48, 0
3, 90600, Note_on_c, 1, 52, 45
3, 90616, Note_on_c, 1, 52, 0
3, 90624, Note_on_c, 1, 44, 45
3, 90790, Note_on_c, 1, 44, 0
3, 90792, Note_on_c, 1, 40, 45
3, 90808, Note_on_c, 1, 40, 0
3, 90816, Note_on_c, 1, 45, 45
3, 90982, Note_on_c, 1, 45, 0
3, 90984, Note_on_c, 1, 48, 45
3, 91000, Note_on_c, 1, 48, 0
3, 91008, Note_on_c, 1, 42, 45
3, 91174, Note_on_c, 1, 42, 0
3, 91176, Note_on_c, 1, 38, 45
3, 91192, Note_on_c, 1, 38, 0
3, 91200, Note_on_c, 1, 43, 45
3, 91366, Note_on_c, 1, 43, 0
3, 91368, Note_on_c, 1, 47, 45
3, 91384, Note_on_c, 1, 47, 0
3, 91392, Note_on_c, 1, 40, 45
3, 91558, Note_on_c, 1, 40, 0
3, 91560, Note_on_c, 1, 47, 45
3, 91576, Note_on_c, 1, 47, 0
3, 91584, Note_on_c, 1, 37, 45
3, 91750, Note_on_c, 1, 37, 0
3, 91752, Note_on_c, 1, 43, 45
3, 91768, Note_on_c, 1, 43, 0
3, 91776, Note_on_c, 1, 38, 92
3, 91870, Note_on_c, 1, 38, 0
3, 92544, Note_on_c, 1, 38, 92
3, 92574, Note_on_c, 1, 38, 0
3, 92576, Note_on_c, 1, 43, 92
3, 92606, Note_on_c, 1, 43, 0
3, 92608, Note_on_c, 1, 47, 92
3, 92638, Note_on_c, 1, 47, 0
3, 92640, Note_on_c, 1, 43, 92
3, 92670, Note_on_c, 1, 43, 0
3, 92672, Note_on_c, 1, 47, 92
3, 92702, Note_on_c, 1, 47, 0
3, 92704, Note_on_c, 1, 50, 92
3, 92734, Note_on_c, 1, 50, 0
3, 92736, Note_on_c, 1, 47, 92
3, 92766, Note_on_c, 1, 47, 0
3, 92768, Note_on_c, 1, 50, 92
3, 92798, Note_on_c, 1, 50, 0
3, 92800, Note_on_c, 1, 55, 92
3, 92830, Note_on_c, 1, 55, 0
3, 92832, Note_on_c, 1, 50, 92
3, 92862, Note_on_c, 1, 50, 0
3, 92864, Note_on_c, 1, 55, 92
3, 92894, Note_on_c, 1, 55, 0
3, 92896, Note_on_c, 1, 59, 92
3, 92926, Note_on_c, 1, 59, 0
3, 92928, Note_on_c, 1, 55, 92
3, 92958, Note_on_c, 1, 55, 0
3, 92960, Note_on_c, 1, 59, 92
3, 92990, Note_on_c, 1, 59, 0
3, 92992, Note_on_c, 1, 62, 92
3, 93022, Note_on_c, 1, 62, 0
3, 93024, Note_on_c, 1, 59, 92
3, 93054, Note_on_c, 1, 59, 0
3, 93056, Note_on_c, 1, 62, 92
3, 93086, Note_on_c, 1, 62, 0
3, 93088, Note_on_c, 1, 67, 92
3, 93118, Note_on_c, 1, 67, 0
3, 93120, Note_on_c, 1, 62, 92
3, 93150, Note_on_c, 1, 62, 0
3, 93152, Note_on_c, 1, 67, 92
3, 93182, Note_on_c, 1, 67, 0
3, 93184, Note_on_c, 1, 71, 92
3, 93214, Note_on_c, 1, 71, 0
3, 93216, Note_on_c, 1, 74, 92
3, 93246, Note_on_c, 1, 74, 0
3, 93248, Note_on_c, 1, 71, 92
3, 93278, Note_on_c, 1, 71, 0
3, 93280, Note_on_c, 1, 67, 92
3, 93310, Note_on_c, 1, 67, 0
3, 93312, Note_on_c, 1, 62, 45
3, 93312, Note_on_c, 1, 67, 45
3, 93312, Note_on_c, 1, 71, 45
3, 93344, Note_on_c, 1, 62, 0
3, 93344, Note_on_c, 1, 67, 0
3, 93344, Note_on_c, 1, 71, 0
3, 94080, Note_on_c, 1, 50, 45
3, 94080, Note_on_c, 1, 54, 45
3, 94080, Note_on_c, 1, 57, 45
3, 94080, Note_on_c, 1, 60, 45
3, 94128, Note_on_c, 1, 50, 0
3, 94128, Note_on_c, 1, 54, 0
3, 94128, Note_on_c, 1, 57, 0
3, 94128, Note_on_c, 1, 60, 0
3, 94848, Note_on_c, 1, 43, 45
3, 94848, Note_on_c, 1, 55, 45
3, 94942, Note_on_c, 1, 55, 0
3, 94944, Note_on_c, 1, 50, 45
3, 95038, Note_on_c, 1, 50, 0
3, 95040, Note_on_c, 1, 57, 45
3, 95134, Note_on_c, 1, 57, 0
3, 95136, Note_on_c, 1, 50, 45
3, 95184, Note_on_c, 1, 43, 0
3, 95230, Note_on_c, 1, 50, 0
3, 95232, Note_on_c, 1, 43, 45
3, 95232, Note_on_c, 1, 59, 45
3, 95326, Note_on_c, 1, 59, 0
3, 95328, Note_on_c, 1, 50, 45
3, 95422, Note_on_c, 1, 50, 0
3, 95424, Note_on_c, 1, 59, 45
3, 95518, Note_on_c, 1, 59, 0
3, 95520, Note_on_c, 1, 50, 45
3, 95568, Note_on_c, 1, 43, 0
3, 95614, Note_on_c, 1, 50, 0
3, 95616, Note_on_c, 1, 45, 45
3, 95616, Note_on_c, 1, 45, 45
3, 95710, Note_on_c, 1, 45, 0
3, 95712, Note_on_c, 1, 50, 45
3, 95776, Note_on_c, 1, 45, 0
3, 95806, Note_on_c, 1, 50, 0
3, 95808, Note_on_c, 1, 43, 45
3, 95808, Note_on_c, 1, 43, 45
3, 95902, Note_on_c, 1, 43, 0
3, 95904, Note_on_c, 1, 50, 45
3, 95968, Note_on_c, 1, 43, 0
3, 95998, Note_on_c, 1, 50, 0
3, 96000, Note_on_c, 1, 38, 45
3, 96000, Note_on_c, 1, 50, 45
3, 96336, Note_on_c, 1, 38, 0
3, 96336, Note_on_c, 1, 50, 0
3, 96384, Note_on_c, 1, 50, 45
3, 96384, Note_on_c, 1, 56, 45
3, 96478, Note_on_c, 1, 56, 0
3, 96480, Note_on_c, 1, 52, 45
3, 96544, Note_on_c, 1, 50, 0
3, 96574, Note_on_c, 1, 52, 0
3, 96576, Note_on_c, 1, 48, 45
3, 96576, Note_on_c, 1, 57, 45
3, 96670, Note_on_c, 1, 57, 0
3, 96672, Note_on_c, 1, 60, 45
3, 96704, Note_on_c, 1, 60, 0
3, 96736, Note_on_c, 1, 48, 0
3, 96768, Note_on_c, 1, 48, 45
3, 96768, Note_on_c, 1, 54, 45
3, 96862, Note_on_c, 1, 54, 0
3, 96864, Note_on_c, 1, 50, 45
3, 96928, Note_on_c, 1, 48, 0
3, 96958, Note_on_c, 1, 50, 0
3, 96960, Note_on_c, 1, 47, 45
3, 96960, Note_on_c, 1, 55, 45
3, 97054, Note_on_c, 1, 55, 0
3, 97056, Note_on_c, 1, 59, 45
3, 97088, Note_on_c, 1, 59, 0
3, 97120, Note_on_c, 1, 47, 0
3, 97152, Note_on_c, 1, 64, 45
3, 97312, Note_on_c, 1, 64, 0
3, 97344, Note_on_c, 1, 64, 45
3, 97366, Note_on_c, 1, 64, 0
3, 97368, Note_on_c, 1, 63, 45
3, 97390, Note_on_c, 1, 63, 0
3, 97392, Note_on_c, 1, 65, 45
3, 97414, Note_on_c, 1, 65, 0
3, 97416, Note_on_c, 1, 64, 45
3, 97438, Note_on_c, 1, 64, 0
3, 97440, Note_on_c, 1, 62, 45
3, 97462, Note_on_c, 1, 62, 0
3, 97464, Note_on_c, 1, 60, 45
3, 97486, Note_on_c, 1, 60, 0
3, 97488, Note_on_c, 1, 59, 45
3, 97510, Note_on_c, 1, 59, 0
3, 97512, Note_on_c, 1, 57, 45
3, 97534, Note_on_c, 1, 57, 0
3, 97536, Note_on_c, 1, 62, 45
3, 97696, Note_on_c, 1, 62, 0
3, 97728, Note_on_c, 1, 62, 45
3, 97750, Note_on_c, 1, 62, 0
3, 97752, Note_on_c, 1, 61, 45
3, 97774, Note_on_c, 1, 61, 0
3, 97776, Note_on_c, 1, 64, 45
3, 97798, Note_on_c, 1, 64, 0
3, 97800, Note_on_c, 1, 62, 45
3, 97822, Note_on_c, 1, 62, 0
3, 97824, Note_on_c, 1, 60, 45
3, 97846, Note_on_c, 1, 60, 0
3, 97848, Note_on_c, 1, 59, 45
3, 97870, Note_on_c, 1, 59, 0
3, 97872, Note_on_c, 1, 57, 45
3, 97894, Note_on_c, 1, 57, 0
3, 97896, Note_on_c, 1, 55, 45
3, 97912, Note_on_c, 1, 55, 0
3, 97968, Note_on_c, 1, 52, 45
3, 97968, Note_on_c, 1, 56, 45
3, 98000, Note_on_c, 1, 52, 0
3, 98000, Note_on_c, 1, 56, 0
3, 98016, Note_on_c, 1, 54, 45
3, 98016, Note_on_c, 1, 57, 45
3, 98048, Note_on_c, 1, 54, 0
3, 98048, Note_on_c, 1, 57, 0
3, 98064, Note_on_c, 1, 56, 45
3, 98064, Note_on_c, 1, 59, 45
3, 98096, Note_on_c, 1, 56, 0
3, 98096, Note_on_c, 1, 59, 0
3, 98112, Note_on_c, 1, 57, 45
3, 98112, Note_on_c, 1, 60, 45
3, 98144, Note_on_c, 1, 57, 0
3, 98144, Note_on_c, 1, 60, 0
3, 98160, Note_on_c, 1, 59, 45
3, 98160, Note_on_c, 1, 62, 45
3, 98192, Note_on_c, 1, 59, 0
3, 98192, Note_on_c, 1, 62, 0
3, 98208, Note_on_c, 1, 60, 45
3, 98208, Note_on_c, 1, 64, 45
3, 98240, Note_on_c, 1, 60, 0
3, 98240, Note_on_c, 1, 64, 0
3, 98352, Note_on_c, 1, 50, 45
3, 98352, Note_on_c, 1, 54, 45
3, 98384, Note_on_c, 1, 50, 0
3, 98384, Note_on_c, 1, 54, 0
3, 98400, Note_on_c, 1, 52, 45
3, 98400, Note_on_c, 1, 55, 45
3, 98432, Note_on_c, 1, 52, 0
3, 98432, Note_on_c, 1, 55, 0
3, 98448, Note_on_c, 1, 54, 45
3, 98448, Note_on_c, 1, 57, 45
3, 98480, Note_on_c, 1, 54, 0
3, 98480, Note_on_c, 1, 57, 0
3, 98496, Note_on_c, 1, 55, 45
3, 98496, Note_on_c, 1, 59, 45
3, 98528, Note_on_c, 1, 55, 0
3, 98528, Note_on_c, 1, 59, 0
3, 98544, Note_on_c, 1, 57, 45
3, 98544, Note_on_c, 1, 60, 45
3, 98576, Note_on_c, 1, 57, 0
3, 98576, Note_on_c, 1, 60, 0
3, 98592, Note_on_c, 1, 59, 45
3, 98592, Note_on_c, 1, 62, 45
3, 98624, Note_on_c, 1, 59, 0
3, 98624, Note_on_c, 1, 62, 0
3, 98736, Note_on_c, 1, 38, 48
3, 98768, Note_on_c, 1, 38, 0
3, 98784, Note_on_c, 1, 40, 52
3, 98816, Note_on_c, 1, 40, 0
3, 98832, Note_on_c, 1, 42, 56
3, 98864, Note_on_c, 1, 42, 0
3, 98880, Note_on_c, 1, 43, 60
3, 98912, Note_on_c, 1, 43, 0
3, 98928, Note_on_c, 1, 45, 64
3, 98960, Note_on_c, 1, 45, 0
3, 98976, Note_on_c, 1, 47, 68
3, 99008, Note_on_c, 1, 47, 0
3, 99024, Note_on_c, 1, 48, 72
3, 99056, Note_on_c, 1, 48, 0
3, 99072, Note_on_c, 1, 50, 76
3, 99104, Note_on_c, 1, 50, 0
3, 99120, Note_on_c, 1, 38, 80
3, 99120, Note_on_c, 1, 50, 80
3, 99152, Note_on_c, 1, 38, 0
3, 99152, Note_on_c, 1, 50, 0
3, 99168, Note_on_c, 1, 40, 84
3, 99168, Note_on_c, 1, 52, 84
3, 99200, Note_on_c, 1, 40, 0
3, 99200, Note_on_c, 1, 52, 0
3, 99216, Note_on_c, 1, 42, 88
3, 99216, Note_on_c, 1, 54, 88
3, 99248, Note_on_c, 1, 42, 0
3, 99248, Note_on_c, 1, 54, 0
3, 99264, Note_on_c, 1, 43, 92
3, 99264, Note_on_c, 1, 55, 92
3, 99296, Note_on_c, 1, 43, 0
3, 99296, Note_on_c, 1, 55, 0
3, 99312, Note_on_c, 1, 47, 96
3, 99312, Note_on_c, 1, 57, 96
3, 99344, Note_on_c, 1, 47, 0
3, 99344, Note_on_c, 1, 57, 0
3, 99360, Note_on_c, 1, 48, 100
3, 99360, Note_on_c, 1, 60, 100
3, 99392, Note_on_c, 1, 48, 0
3, 99392, Note_on_c, 1, 60, 0
3, 99408, Note_on_c, 1, 49, 104
3, 99408, Note_on_c, 1, 61, 104
3, 99440, Note_on_c, 1, 49, 0
3, 99440, Note_on_c, 1, 61, 0
3, 99456, Note_on_c, 1, 50, 108
3, 99456, Note_on_c, 1, 62, 108
3, 99488, Note_on_c, 1, 50, 0
3, 99488, Note_on_c, 1, 62, 0
3, 100224, Note_on_c, 1, 50, 92
3, 100224, Note_on_c, 1, 54, 92
3, 100224, Note_on_c, 1, 57, 92
3, 100224, Note_on_c, 1, 60, 92
3, 100608, Note_on_c, 1, 50, 0
3, 100608, Note_on_c, 1, 54, 0
3, 100608, Note_on_c, 1, 57, 0
3, 100608, Note_on_c, 1, 60, 0
3, 100608, Note_on_c, 1, 50, 92
3, 100608, Note_on_c, 1, 54, 92
3, 100608, Note_on_c, 1, 57, 92
3, 100608, Note_on_c, 1, 60, 92
3, 100944, Note_on_c, 1, 50, 0
3, 100944, Note_on_c, 1, 54, 0
3, 100944, Note_on_c, 1, 57, 0
3, 100944, Note_on_c, 1, 60, 0
3, 100992, Note_on_c, 1, 43, 45
3, 100992, Note_on_c, 1, 55, 45
3, 101376, Note_on_c, 1, 43, 0
3, 101376, Note_on_c, 1, 55, 0
3, 101376, Note_on_c, 1, 43, 45
3, 101376, Note_on_c, 1, 55, 45
3, 101712, Note_on_c, 1, 43, 0
3, 101712, Note_on_c, 1, 55, 0
3, 101760, Note_on_c, 1, 50, 45
3, 101920, Note_on_c, 1, 50, 0
3, 101952, Note_on_c, 1, 50, 45
3, 101974, Note_on_c, 1, 50, 0
3, 101976, Note_on_c, 1, 49, 45
3, 101998, Note_on_c, 1, 49, 0
3, 102000, Note_on_c, 1, 52, 45
3, 102022, Note_on_c, 1, 52, 0
3, 102024, Note_on_c, 1, 50, 45
3, 102046, Note_on_c, 1, 50, 0
3, 102048, Note_on_c, 1, 48, 45
3, 102070, Note_on_c, 1, 48, 0
3, 102072, Note_on_c, 1, 47, 45
3, 102094, Note_on_c, 1, 47, 0
3, 102096, Note_on_c, 1, 45, 45
3, 102118, Note_on_c, 1, 45, 0
3, 102120, Note_on_c, 1, 43, 45
3, 102142, Note_on_c, 1, 43, 0
3, 102144, Note_on_c, 1, 38, 45
3, 102480, Note_on_c, 1, 38, 0
3, 102528, Note_on_c, 1, 31, 45
3, 102528, Note_on_c, 1, 43, 45
3, 102912, Note_on_c, 1, 31, 0
3, 102912, Note_on_c, 1, 43, 0
3, 102912, Note_on_c, 1, 31, 45
3, 102912, Note_on_c, 1, 43, 45
3, 103248, Note_on_c, 1, 31, 0
3, 103248, Note_on_c, 1, 43, 0
3, 103296, Note_on_c, 1, 50, 45
3, 103456, Note_on_c, 1, 50, 0
3, 103488, Note_on_c, 1, 50, 45
3, 103510, Note_on_c, 1, 50, 0
3, 103512, Note_on_c, 1, 49, 45
3, 103534, Note_on_c, 1, 49, 0
3, 103536, Note_on_c, 1, 52, 45
3, 103558, Note_on_c, 1, 52, 0
3, 103560, Note_on_c, 1, 50, 45
3, 103582, Note_on_c, 1, 50, 0
3, 103584, Note_on_c, 1, 48, 45
3, 103606, Note_on_c, 1, 48, 0
3, 103608, Note_on_c, 1, 47, 45
3, 103630, Note_on_c, 1, 47, 0
3, 103632, Note_on_c, 1, 45, 45
3, 103654, Note_on_c, 1, 45, 0
3, 103656, Note_on_c, 1, 43, 45
3, 103678, Note_on_c, 1, 43, 0
3, 103680, Note_on_c, 1, 38, 45
3, 104016, Note_on_c, 1, 38, 0
3, 104064, Note_on_c, 1, 50, 45
3, 104224, Note_on_c, 1, 50, 0
3, 104256, Note_on_c, 1, 50, 56
3, 104278, Note_on_c, 1, 50, 0
3, 104280, Note_on_c, 1, 49, 57
3, 104302, Note_on_c, 1, 49, 0
3, 104304, Note_on_c, 1, 52, 58
3, 104326, Note_on_c, 1, 52, 0
3, 104328, Note_on_c, 1, 50, 59
3, 104350, Note_on_c, 1, 50, 0
3, 104352, Note_on_c, 1, 48, 60
3, 104374, Note_on_c, 1, 48, 0
3, 104376, Note_on_c, 1, 47, 61
3, 104398, Note_on_c, 1, 47, 0
3, 104400, Note_on_c, 1, 45, 62
3, 104422, Note_on_c, 1, 45, 0
3, 104424, Note_on_c, 1, 43, 63
3, 104446, Note_on_c, 1, 43, 0
3, 104448, Note_on_c, 1, 38, 64
3, 104784, Note_on_c, 1, 38, 0
3, 104832, Note_on_c, 1, 50, 92
3, 104854, Note_on_c, 1, 50, 0
3, 104856, Note_on_c, 1, 49, 92
3, 104878, Note_on_c, 1, 49, 0
3, 104880, Note_on_c, 1, 50, 92
3, 104902, Note_on_c, 1, 50, 0
3, 104904, Note_on_c, 1, 49, 92
3, 104926, Note_on_c, 1, 49, 0
3, 104928, Note_on_c, 1, 50, 92
3, 104950, Note_on_c, 1, 50, 0
3, 104952, Note_on_c, 1, 49, 92
3, 104974, Note_on_c, 1, 49, 0
3, 104976, Note_on_c, 1, 50, 92
3, 104998, Note_on_c, 1, 50, 0
3, 105000, Note_on_c, 1, 49, 92
3, 105022, Note_on_c, 1, 49, 0
3, 105024, Note_on_c, 1, 50, 92
3, 105046, Note_on_c, 1, 50, 0
3, 105048, Note_on_c, 1, 49, 92
3, 105070, Note_on_c, 1, 49, 0
3, 105072, Note_on_c, 1, 52, 92
3, 105094, Note_on_c, 1, 52, 0
3, 105096, Note_on_c, 1, 50, 92
3, 105118, Note_on_c, 1, 50, 0
3, 105120, Note_on_c, 1, 48, 92
3, 105142, Note_on_c, 1, 48, 0
3, 105144, Note_on_c, 1, 47, 92
3, 105166, Note_on_c, 1, 47, 0
3, 105168, Note_on_c, 1, 45, 92
3, 105190, Note_on_c, 1, 45, 0
3, 105192, Note_on_c, 1, 43, 92
3, 105214, Note_on_c, 1, 43, 0
3, 105216, Note_on_c, 1, 38, 92
3, 105552, Note_on_c, 1, 38, 0
3, 105600, Note_on_c, 1, 31, 60
3, 105600, Note_on_c, 1, 43, 60
3, 105632, Note_on_c, 1, 31, 0
3, 105632, Note_on_c, 1, 43, 0
3, 105792, Note_on_c, 1, 62, 60
3, 105792, Note_on_c, 1, 66, 60
3, 105792, Note_on_c, 1, 72, 60
3, 105984, Note_on_c, 1, 62, 0
3, 105984, Note_on_c, 1, 66, 0
3, 105984, Note_on_c, 1, 72, 0
3, 105984, Note_on_c, 1, 67, 60
3, 105984, Note_on_c, 1, 71, 60
3, 106016, Note_on_c, 1, 67, 0
3, 106016, Note_on_c, 1, 71, 0
3, 106176, Note_on_c, 1, 50, 60
3, 106176, Note_on_c, 1, 54, 60
3, 106176, Note_on_c, 1, 57, 60
3, 106176, Note_on_c, 1, 60, 60
3, 106368, Note_on_c, 1, 50, 0
3, 106368, Note_on_c, 1, 54, 0
3, 106368, Note_on_c, 1, 57, 0
3, 106368, Note_on_c, 1, 60, 0
3, 106368, Note_on_c, 1, 50, 70
3, 106368, Note_on_c, 1, 54, 70
3, 106368, Note_on_c, 1, 57, 70
3, 106368, Note_on_c, 1, 60, 70
3, 106704, Note_on_c, 1, 50, 0
3, 106704, Note_on_c, 1, 54, 0
3, 106704, Note_on_c, 1, 57, 0
3, 106704, Note_on_c, 1, 60, 0
3, 106776, Note_on_c, 1, 55, 92
3, 106776, Note_on_c, 1, 59, 92
3, 106808, Note_on_c, 1, 55, 0
3, 106808, Note_on_c, 1, 59, 0
3, 106968, Note_on_c, 1, 43, 108
3, 106968, Note_on_c, 1, 47, 108
3, 106968, Note_on_c, 1, 50, 108
3, 106968, Note_on_c, 1, 55, 108
3, 107000, Note_on_c, 1, 43, 0
3, 107000, Note_on_c, 1, 47, 0
3, 107000, Note_on_c, 1, 50, 0
3, 107000, Note_on_c, 1, 55, 0
3, 107160, Note_on_c, 1, 31, 108
3, 107160, Note_on_c, 1, 35, 108
3, 107160, Note_on_c, 1, 38, 108
3, 107160, Note_on_c, 1, 43, 108
3, 107192, Note_on_c, 1, 31, 0
3, 107192, Note_on_c, 1, 35, 0
3, 107192, Note_on_c, 1, 38, 0
3, 107192, Note_on_c, 1, 43, 0
3, 107192, End_track
0, 0, End_of_file