0, 0, Header, 1, 6, 240
1, 0, Start_track
1, 0, Time_signature, 3, 2, 24, 8
1, 0, Tempo, 500000
1, 1, Marker_t, "Sonata in Bb major, 2nd mov., (Op. 106), ""HammerKlavier"", Beethoven (orig. seq. Temmyo)"
1, 720, Time_signature, 3, 3, 12, 8
1, 720, Tempo, 535714
1, 840, Tempo, 500000
1, 960, Tempo, 508475
1, 1080, Tempo, 535714
1, 1200, Tempo, 500000
1, 1320, Tempo, 508475
1, 1380, Tempo, 517241
1, 1530, Tempo, 535714
1, 1560, Tempo, 500000
1, 1680, Tempo, 508475
1, 1740, Tempo, 517241
1, 1890, Tempo, 535714
1, 1920, Tempo, 500000
1, 2040, Tempo, 508475
1, 2100, Tempo, 535714
1, 2280, Tempo, 500000
1, 2400, Tempo, 508475
1, 2460, Tempo, 517241
1, 2610, Tempo, 500000
1, 2760, Tempo, 526316
1, 2880, Tempo, 508475
1, 3000, Tempo, 566038
1, 3120, Tempo, 666667
1, 3240, Tempo, 500000
1, 3330, Tempo, 535714
1, 3360, Tempo, 500000
1, 3480, Tempo, 508475
1, 3540, Tempo, 517241
1, 3690, Tempo, 535714
1, 3720, Tempo, 500000
1, 3840, Tempo, 508475
1, 3900, Tempo, 517241
1, 4050, Tempo, 535714
1, 4080, Tempo, 500000
1, 4200, Tempo, 508475
1, 4260, Tempo, 517241
1, 4410, Tempo, 535714
1, 4440, Tempo, 500000
1, 4560, Tempo, 508475
1, 4620, Tempo, 517241
1, 4770, Tempo, 535714
1, 4800, Tempo, 500000
1, 4920, Tempo, 508475
1, 4980, Tempo, 517241
1, 5130, Tempo, 535714
1, 5160, Tempo, 500000
1, 5280, Tempo, 508475
1, 5400, Tempo, 555556
1, 5460, Tempo, 582524
1, 5580, Tempo, 714286
1, 5760, Tempo, 566038
1, 5850, Tempo, 545455
1, 5880, Tempo, 508475
1, 6000, Tempo, 571429
1, 6060, Tempo, 535714
1, 6210, Tempo, 545455
1, 6240, Tempo, 517241
1, 6360, Tempo, 526316
1, 6420, Tempo, 571429
1, 6570, Tempo, 555556
1, 6600, Tempo, 526316
1, 6720, Tempo, 535714
1, 6780, Tempo, 555556
1, 6930, Tempo, 582524
1, 6960, Tempo, 545455
1, 7080, Tempo, 606061
1, 7140, Tempo, 800000
1, 7200, Tempo, 566038
1, 7290, Tempo, 582524
1, 7320, Tempo, 526316
1, 7440, Tempo, 566038
1, 7560, Tempo, 517241
1, 7680, Tempo, 535714
1, 7800, Tempo, 545455
1, 7920, Tempo, 566038
1, 8040, Tempo, 571429
1, 8160, Tempo, 618557
1, 8280, Tempo, 714286
1, 8400, Tempo, 895522
1, 8520, Tempo, 666667
1, 8760, Tempo, 1395349
1, 9000, Tempo, 517241
1, 9090, Tempo, 606061
1, 9120, Tempo, 526316
1, 9240, Tempo, 535714
1, 9300, Tempo, 582524
1, 9360, Tempo, 517241
1, 9450, Tempo, 566038
1, 9480, Tempo, 517241
1, 9600, Tempo, 535714
1, 9660, Tempo, 659341
1, 9720, Tempo, 517241
1, 9810, Tempo, 535714
1, 9840, Tempo, 500000
1, 9960, Tempo, 526316
1, 10020, Tempo, 535714
1, 10080, Tempo, 517241
1, 10170, Tempo, 535714
1, 10200, Tempo, 500000
1, 10320, Tempo, 555556
1, 10380, Tempo, 517241
1, 10440, Tempo, 500000
1, 10530, Tempo, 517241
1, 10680, Tempo, 500000
1, 10740, Tempo, 535714
1, 10890, Tempo, 495868
1, 10920, Tempo, 487805
1, 11040, Tempo, 566038
1, 11100, Tempo, 500000
1, 11220, Tempo, 645161
1, 11340, Tempo, 714286
1, 11520, Tempo, 517241
1, 11520, Marker_t, "(arr. Jerry A. Enfield)"
1, 11610, Tempo, 535714
1, 11640, Tempo, 517241
1, 11760, Tempo, 508475
1, 11820, Tempo, 517241
1, 11970, Tempo, 535714
1, 12000, Tempo, 508475
1, 12120, Tempo, 517241
1, 12180, Tempo, 582524
1, 12240, Tempo, 500000
1, 12330, Tempo, 535714
1, 12360, Tempo, 526316
1, 12480, Tempo, 517241
1, 12540, Tempo, 566038
1, 12600, Tempo, 526316
1, 12690, Tempo, 606061
1, 12720, Tempo, 594059
1, 12840, Tempo, 631579
1, 12900, Tempo, 731707
1, 12960, Tempo, 566038
1, 13050, Tempo, 535714
1, 13080, Tempo, 526316
1, 13200, Tempo, 545455
1, 13320, Tempo, 517241
1, 13440, Tempo, 535714
1, 13560, Tempo, 545455
1, 13680, Tempo, 566038
1, 13800, Tempo, 594059
1, 13920, Tempo, 659341
1, 14040, Tempo, 681818
1, 14160, Tempo, 800000
1, 14280, Tempo, 923077
1, 14400, Tempo, 1153846
1, 14760, Tempo, 535714
1, 14850, Tempo, 582524
1, 14880, Tempo, 517241
1, 15000, Tempo, 508475
1, 15060, Tempo, 618557
1, 15120, Tempo, 535714
1, 15210, Tempo, 555556
1, 15240, Tempo, 508475
1, 15360, Tempo, 535714
1, 15420, Tempo, 659341
1, 15480, Tempo, 508475
1, 15570, Tempo, 545455
1, 15600, Tempo, 500000
1, 15720, Tempo, 526316
1, 15780, Tempo, 545455
1, 15840, Tempo, 500000
1, 15930, Tempo, 535714
1, 15960, Tempo, 500000
1, 16080, Tempo, 508475
1, 16140, Tempo, 535714
1, 16200, Tempo, 500000
1, 16290, Tempo, 535714
1, 16320, Tempo, 500000
1, 16440, Tempo, 517241
1, 16560, Tempo, 487805
1, 16650, Tempo, 526316
1, 16680, Tempo, 487805
1, 16800, Tempo, 517241
1, 16860, Tempo, 500000
1, 16920, Tempo, 631579
1, 16980, Tempo, 582524
1, 17040, Tempo, 500000
1, 17160, Tempo, 1304348
1, 17280, Tempo, 666667
1, 17400, Tempo, 606061
1, 17520, Tempo, 582524
1, 17640, Tempo, 545455
1, 17680, Tempo, 555556
1, 17720, Tempo, 582524
1, 17760, Tempo, 566038
1, 17920, Tempo, 545455
1, 17960, Tempo, 566038
1, 18000, Tempo, 545455
1, 18040, Tempo, 555556
1, 18080, Tempo, 566038
1, 18160, Tempo, 555556
1, 18200, Tempo, 545455
1, 18240, Tempo, 566038
1, 18280, Tempo, 545455
1, 18320, Tempo, 555556
1, 18480, Tempo, 545455
1, 18520, Tempo, 566038
1, 18560, Tempo, 545455
1, 18600, Tempo, 566038
1, 18800, Tempo, 555556
1, 18840, Tempo, 545455
1, 18880, Tempo, 555556
1, 19000, Tempo, 545455
1, 19080, Tempo, 566038
1, 19120, Tempo, 545455
1, 19160, Tempo, 555556
1, 19200, Tempo, 566038
1, 19280, Tempo, 545455
1, 19320, Tempo, 566038
1, 19360, Tempo, 555556
1, 19400, Tempo, 566038
1, 19440, Tempo, 582524
1, 19480, Tempo, 606061
1, 19560, Tempo, 535714
1, 19640, Tempo, 545455
1, 19680, Tempo, 566038
1, 19720, Tempo, 545455
1, 19760, Tempo, 555556
1, 19880, Tempo, 545455
1, 19960, Tempo, 566038
1, 20000, Tempo, 571429
1, 20040, Tempo, 566038
1, 20080, Tempo, 571429
1, 20160, Tempo, 582524
1, 20280, Tempo, 606061
1, 20400, Tempo, 571429
1, 20520, Tempo, 555556
1, 20560, Tempo, 545455
1, 20640, Tempo, 566038
1, 20720, Tempo, 545455
1, 20760, Tempo, 555556
1, 20800, Tempo, 566038
1, 20840, Tempo, 555556
1, 20880, Tempo, 545455
1, 21040, Tempo, 566038
1, 21080, Tempo, 555556
1, 21120, Tempo, 545455
1, 21160, Tempo, 566038
1, 21240, Tempo, 545455
1, 21320, Tempo, 555556
1, 21360, Tempo, 566038
1, 21400, Tempo, 555556
1, 21440, Tempo, 545455
1, 21560, Tempo, 555556
1, 21640, Tempo, 566038
1, 21680, Tempo, 555556
1, 21720, Tempo, 545455
1, 21920, Tempo, 566038
1, 21960, Tempo, 545455
1, 22040, Tempo, 566038
1, 22120, Tempo, 545455
1, 22200, Tempo, 566038
1, 22240, Tempo, 555556
1, 22280, Tempo, 566038
1, 22360, Tempo, 594059
1, 22400, Tempo, 618557
1, 22440, Tempo, 545455
1, 22520, Tempo, 566038
1, 22560, Tempo, 555556
1, 22600, Tempo, 545455
1, 22720, Tempo, 555556
1, 22760, Tempo, 566038
1, 22800, Tempo, 545455
1, 22840, Tempo, 566038
1, 22920, Tempo, 555556
1, 23000, Tempo, 545455
1, 23040, Tempo, 571429
1, 23080, Tempo, 606061
1, 23120, Tempo, 645161
1, 23160, Tempo, 582524
1, 23280, Tempo, 545455
1, 23400, Tempo, 555556
1, 23480, Tempo, 535714
1, 23520, Tempo, 555556
1, 23560, Tempo, 535714
1, 23760, Tempo, 545455
1, 23800, Tempo, 555556
1, 23840, Tempo, 545455
1, 23880, Tempo, 535714
1, 24040, Tempo, 555556
1, 24080, Tempo, 535714
1, 24120, Tempo, 555556
1, 24200, Tempo, 545455
1, 24280, Tempo, 555556
1, 24320, Tempo, 535714
1, 24360, Tempo, 545455
1, 24400, Tempo, 535714
1, 24440, Tempo, 555556
1, 24480, Tempo, 545455
1, 24600, Tempo, 555556
1, 24640, Tempo, 535714
1, 24680, Tempo, 555556
1, 24720, Tempo, 545455
1, 24760, Tempo, 535714
1, 24920, Tempo, 545455
1, 24960, Tempo, 555556
1, 25040, Tempo, 545455
1, 25120, Tempo, 555556
1, 25200, Tempo, 545455
1, 25240, Tempo, 555556
1, 25280, Tempo, 545455
1, 25320, Tempo, 535714
1, 25480, Tempo, 545455
1, 25520, Tempo, 555556
1, 25560, Tempo, 545455
1, 25600, Tempo, 535714
1, 25640, Tempo, 666667
1, 25680, Tempo, 582524
1, 25760, Tempo, 697674
1, 25800, Tempo, 571429
1, 25840, Tempo, 555556
1, 25880, Tempo, 666667
1, 25920, Tempo, 571429
1, 26000, Tempo, 566038
1, 26040, Tempo, 555556
1, 26120, Tempo, 545455
1, 26160, Tempo, 571429
1, 26340, Tempo, 594059
1, 26400, Tempo, 571429
1, 26520, Tempo, 566038
1, 26560, Tempo, 555556
1, 26600, Tempo, 545455
1, 26640, Tempo, 535714
1, 26680, Tempo, 545455
1, 26720, Tempo, 566038
1, 26920, Tempo, 545455
1, 26960, Tempo, 555556
1, 27000, Tempo, 566038
1, 27040, Tempo, 535714
1, 27080, Tempo, 566038
1, 27160, Tempo, 545455
1, 27200, Tempo, 566038
1, 27240, Tempo, 545455
1, 27280, Tempo, 555556
1, 27320, Tempo, 566038
1, 27400, Tempo, 555556
1, 27440, Tempo, 545455
1, 27480, Tempo, 535714
1, 27520, Tempo, 545455
1, 27560, Tempo, 566038
1, 27720, Tempo, 535714
1, 27760, Tempo, 555556
1, 27800, Tempo, 535714
1, 27840, Tempo, 545455
1, 27880, Tempo, 555556
1, 27960, Tempo, 545455
1, 28000, Tempo, 535714
1, 28040, Tempo, 555556
1, 28080, Tempo, 535714
1, 28120, Tempo, 545455
1, 28200, Tempo, 555556
1, 28240, Tempo, 545455
1, 28280, Tempo, 535714
1, 28320, Tempo, 566038
1, 28360, Tempo, 545455
1, 28400, Tempo, 555556
1, 28440, Tempo, 566038
1, 28560, Tempo, 555556
1, 28600, Tempo, 535714
1, 28640, Tempo, 555556
1, 28680, Tempo, 566038
1, 28800, Tempo, 555556
1, 28880, Tempo, 535714
1, 28920, Tempo, 555556
1, 28960, Tempo, 535714
1, 29040, Tempo, 545455
1, 29080, Tempo, 535714
1, 29120, Tempo, 566038
1, 29160, Tempo, 555556
1, 29200, Tempo, 535714
1, 29240, Tempo, 555556
1, 29280, Tempo, 566038
1, 29320, Tempo, 582524
1, 29360, Tempo, 606061
1, 29400, Tempo, 631579
1, 29440, Tempo, 659341
1, 29480, Tempo, 681818
1, 29520, Tempo, 750000
1, 29560, Tempo, 845070
1, 29600, Tempo, 2307692
1, 29640, Tempo, 410959
1, 29640, Marker_t, "[Presto]"
1, 29760, Tempo, 382166
1, 30000, Tempo, 387097
1, 30360, Tempo, 382166
1, 30840, Tempo, 387097
1, 30960, Tempo, 382166
1, 31200, Tempo, 387097
1, 31320, Tempo, 410959
1, 31560, Tempo, 382166
1, 31620, Tempo, 387097
1, 31680, Tempo, 377358
1, 31740, Tempo, 387097
1, 31800, Tempo, 382166
1, 31920, Tempo, 377358
1, 31980, Tempo, 387097
1, 32040, Tempo, 377358
1, 32100, Tempo, 382166
1, 32220, Tempo, 377358
1, 32280, Tempo, 382166
1, 32340, Tempo, 387097
1, 32460, Tempo, 382166
1, 32520, Tempo, 377358
1, 32640, Tempo, 387097
1, 32700, Tempo, 382166
1, 32760, Tempo, 377358
1, 32940, Tempo, 387097
1, 33000, Tempo, 382166
1, 33060, Tempo, 387097
1, 33240, Tempo, 382166
1, 33300, Tempo, 387097
1, 33360, Tempo, 382166
1, 33420, Tempo, 535714
1, 33480, Tempo, 397351
1, 33540, Tempo, 392157
1, 33720, Tempo, 397351
1, 33780, Tempo, 392157
1, 33840, Tempo, 397351
1, 33900, Tempo, 441176
1, 33960, Tempo, 392157
1, 34080, Tempo, 400000
1, 34320, Tempo, 387097
1, 34380, Tempo, 458015
1, 34440, Tempo, 387097
1, 34500, Tempo, 382166
1, 34620, Tempo, 434783
1, 34680, Tempo, 392157
1, 34860, Tempo, 458015
1, 34920, Tempo, 392157
1, 34980, Tempo, 410959
1, 35040, Tempo, 400000
1, 35100, Tempo, 444444
1, 35160, Tempo, 441176
1, 35400, Tempo, 392157
1, 35460, Tempo, 410959
1, 35520, Tempo, 428571
1, 35580, Tempo, 458015
1, 35640, Tempo, 416667
1, 35760, Tempo, 428571
1, 35880, Tempo, 434783
1, 36000, Tempo, 441176
1, 36120, Tempo, 472441
1, 36240, Tempo, 495868
1, 36360, Tempo, 545455
1, 36480, Tempo, 666667
1, 36600, Tempo, 952381
1, 36720, Tempo, 566038
1, 37320, Tempo, 923077
1, 37320, Marker_t, "[Prestissimo]"
1, 37350, Tempo, 508475
1, 37410, Tempo, 487805
1, 37470, Tempo, 500000
1, 37500, Tempo, 495868
1, 37530, Tempo, 566038
1, 37560, Tempo, 500000
1, 37590, Tempo, 495868
1, 37620, Tempo, 500000
1, 37740, Tempo, 571429
1, 37770, Tempo, 500000
1, 37860, Tempo, 495868
1, 37890, Tempo, 487805
1, 37920, Tempo, 480000
1, 37950, Tempo, 582524
1, 37980, Tempo, 480000
1, 38010, Tempo, 495868
1, 38040, Tempo, 500000
1, 38070, Tempo, 480000
1, 38130, Tempo, 500000
1, 38190, Tempo, 495868
1, 38220, Tempo, 480000
1, 38250, Tempo, 517241
1, 38280, Tempo, 495868
1, 38310, Tempo, 508475
1, 38340, Tempo, 535714
1, 38370, Tempo, 582524
1, 38400, Tempo, 714286
1, 38430, Tempo, 487805
1, 38460, Tempo, 465116
1, 38490, Tempo, 444444
1, 38520, Tempo, 422535
1, 38550, Tempo, 400000
1, 38580, Tempo, 416667
1, 38640, Tempo, 500000
1, 38670, Tempo, 3750000
1, 38730, Tempo, 845070
1, 38730, Marker_t, "[Tempo I]"
1, 38760, Tempo, 571429
1, 38790, Tempo, 472441
1, 38820, Tempo, 500000
1, 38850, Tempo, 495868
1, 38880, Tempo, 480000
1, 38910, Tempo, 495868
1, 38940, Tempo, 500000
1, 38970, Tempo, 480000
1, 39000, Tempo, 487805
1, 39060, Tempo, 480000
1, 39090, Tempo, 1333333
1, 39210, Tempo, 1621622
1, 39450, Tempo, 517241
1, 39540, Tempo, 535714
1, 39570, Tempo, 517241
1, 39690, Tempo, 508475
1, 39750, Tempo, 500000
1, 39900, Tempo, 535714
1, 39930, Tempo, 517241
1, 40050, Tempo, 508475
1, 40110, Tempo, 500000
1, 40260, Tempo, 535714
1, 40290, Tempo, 517241
1, 40410, Tempo, 508475
1, 40470, Tempo, 500000
1, 40620, Tempo, 535714
1, 40650, Tempo, 517241
1, 40770, Tempo, 508475
1, 40830, Tempo, 500000
1, 40980, Tempo, 545455
1, 41010, Tempo, 535714
1, 41130, Tempo, 517241
1, 41190, Tempo, 500000
1, 41340, Tempo, 526316
1, 41370, Tempo, 535714
1, 41490, Tempo, 487805
1, 41610, Tempo, 545455
1, 41730, Tempo, 645161
1, 41970, Tempo, 500000
1, 42060, Tempo, 545455
1, 42090, Tempo, 526316
1, 42210, Tempo, 508475
1, 42270, Tempo, 500000
1, 42420, Tempo, 545455
1, 42450, Tempo, 526316
1, 42570, Tempo, 508475
1, 42630, Tempo, 500000
1, 42780, Tempo, 545455
1, 42810, Tempo, 526316
1, 42930, Tempo, 508475
1, 42990, Tempo, 500000
1, 43140, Tempo, 535714
1, 43170, Tempo, 517241
1, 43290, Tempo, 555556
1, 43350, Tempo, 500000
1, 43500, Tempo, 535714
1, 43530, Tempo, 517241
1, 43650, Tempo, 508475
1, 43710, Tempo, 500000
1, 43860, Tempo, 526316
1, 43890, Tempo, 495868
1, 44010, Tempo, 508475
1, 44130, Tempo, 555556
1, 44190, Tempo, 582524
1, 44310, Tempo, 714286
1, 44490, Tempo, 555556
1, 44580, Tempo, 545455
1, 44610, Tempo, 526316
1, 44730, Tempo, 517241
1, 44940, Tempo, 545455
1, 44970, Tempo, 526316
1, 45090, Tempo, 517241
1, 45150, Tempo, 526316
1, 45300, Tempo, 566038
1, 45330, Tempo, 535714
1, 45510, Tempo, 545455
1, 45660, Tempo, 582524
1, 45690, Tempo, 545455
1, 45810, Tempo, 594059
1, 45870, Tempo, 845070
1, 45930, Tempo, 555556
1, 46020, Tempo, 545455
1, 46050, Tempo, 526316
1, 46170, Tempo, 571429
1, 46290, Tempo, 535714
1, 46410, Tempo, 545455
1, 46530, Tempo, 566038
1, 46650, Tempo, 582524
1, 46770, Tempo, 606061
1, 46890, Tempo, 645161
1, 47010, Tempo, 714286
1, 47130, Tempo, 845070
1, 47250, Tempo, 666667
1, 47490, Tempo, 1200000
1, 47730, Tempo, 535714
1, 47820, Tempo, 631579
1, 47850, Tempo, 545455
1, 48030, Tempo, 594059
1, 48090, Tempo, 508475
1, 48180, Tempo, 555556
1, 48210, Tempo, 500000
1, 48330, Tempo, 517241
1, 48390, Tempo, 697674
1, 48450, Tempo, 517241
1, 48540, Tempo, 508475
1, 48570, Tempo, 517241
1, 48690, Tempo, 535714
1, 48810, Tempo, 500000
1, 48900, Tempo, 508475
1, 48930, Tempo, 500000
1, 49050, Tempo, 517241
1, 49110, Tempo, 545455
1, 49170, Tempo, 500000
1, 49260, Tempo, 545455
1, 49290, Tempo, 526316
1, 49410, Tempo, 508475
1, 49470, Tempo, 517241
1, 49650, Tempo, 500000
1, 49770, Tempo, 571429
1, 49830, Tempo, 517241
1, 49950, Tempo, 645161
1, 50070, Tempo, 750000
1, 50250, Tempo, 535714
1, 50340, Tempo, 555556
1, 50370, Tempo, 526316
1, 50490, Tempo, 535714
1, 50550, Tempo, 526316
1, 50610, Tempo, 508475
1, 50700, Tempo, 535714
1, 50730, Tempo, 555556
1, 50850, Tempo, 517241
1, 50910, Tempo, 571429
1, 50970, Tempo, 508475
1, 51060, Tempo, 535714
1, 51090, Tempo, 555556
1, 51210, Tempo, 517241
1, 51270, Tempo, 555556
1, 51330, Tempo, 535714
1, 51420, Tempo, 582524
1, 51450, Tempo, 566038
1, 51570, Tempo, 618557
1, 51630, Tempo, 789474
1, 51690, Tempo, 566038
1, 51780, Tempo, 535714
1, 51810, Tempo, 526316
1, 51930, Tempo, 545455
1, 52050, Tempo, 526316
1, 52170, Tempo, 535714
1, 52290, Tempo, 545455
1, 52410, Tempo, 571429
1, 52530, Tempo, 618557
1, 52650, Tempo, 681818
1, 52770, Tempo, 731707
1, 52890, Tempo, 845070
1, 53010, Tempo, 1000000
1, 53130, Tempo, 1250000
1, 53490, Tempo, 545455
1, 53580, Tempo, 571429
1, 53610, Tempo, 545455
1, 53730, Tempo, 526316
1, 53790, Tempo, 535714
1, 53850, Tempo, 500000
1, 53940, Tempo, 526316
1, 53970, Tempo, 545455
1, 54090, Tempo, 508475
1, 54150, Tempo, 645161
1, 54210, Tempo, 508475
1, 54300, Tempo, 545455
1, 54330, Tempo, 500000
1, 54450, Tempo, 526316
1, 54510, Tempo, 545455
1, 54570, Tempo, 500000
1, 54660, Tempo, 545455
1, 54690, Tempo, 526316
1, 54810, Tempo, 508475
1, 54870, Tempo, 535714
1, 54930, Tempo, 500000
1, 55020, Tempo, 545455
1, 55050, Tempo, 526316
1, 55170, Tempo, 508475
1, 55290, Tempo, 500000
1, 55380, Tempo, 555556
1, 55410, Tempo, 500000
1, 55530, Tempo, 508475
1, 55590, Tempo, 500000
1, 55650, Tempo, 526316
1, 55710, Tempo, 618557
1, 55770, Tempo, 535714
1, 55890, Tempo, 731707
1, 56010, Tempo, 582524
1, 56130, Tempo, 566038
1, 56370, Tempo, 631579
1, 56490, Tempo, 666667
1, 56730, Tempo, 594059
1, 56850, Tempo, 582524
1, 57090, Tempo, 681818
1, 57210, Tempo, 845070
1, 57450, Tempo, 606061
1, 57540, Tempo, 666667
1, 57570, Tempo, 606061
1, 57690, Tempo, 659341
1, 57810, Tempo, 697674
1, 57930, Tempo, 714286
1, 58170, Tempo, 645161
1, 58290, Tempo, 566038
1, 58530, Tempo, 480000
1, 58650, Tempo, 377358
1, 58650, Marker_t, "[Presto]"
1, 58770, Tempo, 357143
1, 58890, Tempo, 337079
1, 59010, Tempo, 331492
1, 59040, Time_signature, 2, 2, 24, 8
1, 59130, Tempo, 357143
1, 59250, Tempo, 306122
1, 59370, Tempo, 300000
1, 59490, Tempo, 294118
1, 59610, Tempo, 327869
1, 59730, Tempo, 303030
1, 59850, Tempo, 310881
1, 59970, Tempo, 306122
1, 60090, Tempo, 314136
1, 60210, Tempo, 317460
1, 60330, Tempo, 333333
1, 60450, Tempo, 352941
1, 60480, Time_signature, 3, 3, 12, 8
1, 60480, Tempo, 645161
1, 60570, Tempo, 372671
1, 60570, Marker_t, "[Tempo I]"
1, 60630, Tempo, 983607
1, 60810, Tempo, 594059
1, 60840, Tempo, 645161
1, 60930, Tempo, 582524
1, 60990, Tempo, 645161
1, 61050, Tempo, 681818
1, 61170, Tempo, 582524
1, 61260, Tempo, 659341
1, 61290, Tempo, 582524
1, 61350, Tempo, 606061
1, 61410, Tempo, 714286
1, 61530, Tempo, 681818
1, 61620, Tempo, 731707
1, 61650, Tempo, 800000
1, 61710, Tempo, 1111111
1, 61770, Tempo, 1250000
1, 61890, Tempo, 4000000
1, 62130, Tempo, 500000
1, 62130, End_track
2, 0, Start_track
2, 0, Title_t, "Right Hand"
2, 0, Control_c, 0, 0, 0
2, 0, Control_c, 0, 32, 2
2, 0, Program_c, 0, 0
2, 0, Control_c, 0, 7, 125
2, 270, Control_c, 0, 10, 68
2, 330, Control_c, 0, 11, 110
2, 360, Control_c, 0, 1, 0
2, 390, Control_c, 0, 91, 21
2, 420, Control_c, 0, 93, 12
2, 450, Control_c, 0, 101, 0
2, 460, Control_c, 0, 100, 0
2, 470, Control_c, 0, 6, 12
2, 480, Control_c, 0, 99, 1
2, 490, Control_c, 0, 98, 32
2, 500, Control_c, 0, 6, 62
2, 510, Control_c, 0, 98, 33
2, 520, Control_c, 0, 6, 62
2, 540, Control_c, 0, 98, 99
2, 550, Control_c, 0, 6, 64
2, 570, Control_c, 0, 98, 100
2, 580, Control_c, 0, 6, 72
2, 600, Control_c, 0, 98, 102
2, 610, Control_c, 0, 6, 68
2, 720, Note_on_c, 0, 74, 64
2, 799, Note_off_c, 0, 74, 62
2, 809, Note_on_c, 0, 69, 55
2, 810, Note_on_c, 0, 77, 69
2, 833, Note_off_c, 0, 69, 57
2, 834, Note_off_c, 0, 77, 59
2, 840, Note_on_c, 0, 72, 69
2, 841, Note_on_c, 0, 77, 73
2, 950, Note_off_c, 0, 77, 60
2, 951, Note_off_c, 0, 72, 62
2, 959, Note_on_c, 0, 74, 66
2, 960, Note_on_c, 0, 65, 59
2, 988, Note_off_c, 0, 74, 57
2, 990, Note_off_c, 0, 65, 58
2, 1080, Note_on_c, 0, 70, 62
2, 1161, Note_off_c, 0, 70, 60
2, 1170, Note_on_c, 0, 66, 60
2, 1170, Note_on_c, 0, 74, 66
2, 1194, Note_off_c, 0, 66, 57
2, 1195, Note_off_c, 0, 74, 58
2, 1199, Note_on_c, 0, 69, 69
2, 1201, Note_on_c, 0, 74, 72
2, 1309, Note_off_c, 0, 69, 61
2, 1311, Note_off_c, 0, 74, 62
2, 1320, Note_on_c, 0, 62, 59
2, 1321, Note_on_c, 0, 70, 61
2, 1349, Note_off_c, 0, 62, 59
2, 1352, Note_off_c, 0, 70, 59
2, 1441, Note_on_c, 0, 67, 65
2, 1520, Note_off_c, 0, 67, 60
2, 1530, Note_on_c, 0, 70, 69
2, 1531, Note_on_c, 0, 62, 64
2, 1555, Note_off_c, 0, 70, 58
2, 1556, Note_off_c, 0, 62, 57
2, 1559, Note_on_c, 0, 70, 75
2, 1561, Note_on_c, 0, 65, 68
2, 1668, Note_off_c, 0, 70, 61
2, 1670, Note_off_c, 0, 65, 60
2, 1679, Note_on_c, 0, 58, 60
2, 1680, Note_on_c, 0, 67, 64
2, 1709, Note_off_c, 0, 58, 57
2, 1710, Note_off_c, 0, 67, 58
2, 1799, Note_on_c, 0, 58, 55
2, 1800, Note_on_c, 0, 67, 62
2, 1879, Note_off_c, 0, 58, 61
2, 1881, Note_off_c, 0, 67, 61
2, 1889, Note_on_c, 0, 69, 67
2, 1891, Note_on_c, 0, 63, 62
2, 1913, Note_off_c, 0, 69, 58
2, 1915, Note_off_c, 0, 63, 57
2, 1919, Note_on_c, 0, 69, 76
2, 1920, Note_on_c, 0, 63, 68
2, 2030, Note_off_c, 0, 63, 62
2, 2030, Note_off_c, 0, 69, 60
2, 2041, Note_on_c, 0, 58, 64
2, 2041, Note_on_c, 0, 70, 67
2, 2070, Note_off_c, 0, 70, 57
2, 2072, Note_off_c, 0, 58, 57
2, 2160, Note_on_c, 0, 65, 58
2, 2161, Note_on_c, 0, 70, 64
2, 2240, Note_off_c, 0, 70, 60
2, 2251, Note_on_c, 0, 72, 69
2, 2276, Note_off_c, 0, 65, 62
2, 2277, Note_off_c, 0, 72, 57
2, 2279, Note_on_c, 0, 72, 78
2, 2281, Note_on_c, 0, 65, 72
2, 2390, Note_off_c, 0, 72, 61
2, 2399, Note_on_c, 0, 70, 73
2, 2400, Note_on_c, 0, 74, 73
2, 2428, Note_off_c, 0, 70, 57
2, 2429, Note_off_c, 0, 74, 57
2, 2432, Note_off_c, 0, 65, 63
2, 2519, Note_on_c, 0, 74, 80
2, 2520, Note_on_c, 0, 70, 78
2, 2599, Note_off_c, 0, 74, 60
2, 2609, Note_on_c, 0, 75, 88
2, 2634, Note_off_c, 0, 75, 59
2, 2635, Note_off_c, 0, 70, 60
2, 2639, Note_on_c, 0, 70, 90
2, 2639, Note_on_c, 0, 75, 93
2, 2749, Note_off_c, 0, 75, 61
2, 2749, Note_off_c, 0, 70, 60
2, 2760, Note_on_c, 0, 70, 97
2, 2761, Note_on_c, 0, 65, 92
2, 2761, Note_on_c, 0, 73, 98
2, 2761, Note_on_c, 0, 77, 98
2, 2791, Note_off_c, 0, 70, 58
2, 2792, Note_off_c, 0, 77, 58
2, 2792, Note_off_c, 0, 73, 57
2, 2792, Note_off_c, 0, 65, 57
2, 2879, Note_on_c, 0, 70, 97
2, 2880, Control_c, 0, 64, 0
2, 2880, Note_on_c, 0, 67, 97
2, 2880, Note_on_c, 0, 79, 102
2, 2881, Note_on_c, 0, 72, 100
2, 2900, Control_c, 0, 64, 127
2, 2929, Note_off_c, 0, 79, 59
2, 2930, Note_off_c, 0, 67, 58
2, 2930, Note_off_c, 0, 70, 59
2, 2931, Note_off_c, 0, 72, 58
2, 2940, Control_c, 0, 64, 0
2, 2999, Note_on_c, 0, 69, 104
2, 2999, Note_on_c, 0, 72, 108
2, 3000, Control_c, 0, 64, 0
2, 3001, Note_on_c, 0, 60, 105
2, 3020, Control_c, 0, 64, 127
2, 3060, Control_c, 0, 64, 0
2, 3108, Note_off_c, 0, 72, 61
2, 3108, Note_off_c, 0, 69, 60
2, 3110, Note_off_c, 0, 60, 62
2, 3241, Note_on_c, 0, 86, 55
2, 3322, Note_off_c, 0, 86, 62
2, 3330, Note_on_c, 0, 81, 57
2, 3330, Note_on_c, 0, 89, 64
2, 3354, Note_off_c, 0, 89, 58
2, 3354, Note_off_c, 0, 81, 57
2, 3359, Note_on_c, 0, 84, 66
2, 3361, Note_on_c, 0, 89, 72
2, 3470, Note_off_c, 0, 84, 60
2, 3472, Note_off_c, 0, 89, 62
2, 3479, Note_on_c, 0, 77, 57
2, 3481, Note_on_c, 0, 86, 61
2, 3508, Note_off_c, 0, 77, 58
2, 3512, Note_off_c, 0, 86, 58
2, 3601, Note_on_c, 0, 82, 58
2, 3681, Note_off_c, 0, 82, 62
2, 3689, Note_on_c, 0, 78, 60
2, 3689, Note_on_c, 0, 86, 65
2, 3713, Note_off_c, 0, 78, 59
2, 3715, Note_off_c, 0, 86, 58
2, 3720, Note_on_c, 0, 81, 70
2, 3830, Note_off_c, 0, 81, 62
2, 3839, Note_on_c, 0, 82, 63
2, 3841, Note_on_c, 0, 74, 58
2, 3869, Note_off_c, 0, 82, 58
2, 3870, Note_off_c, 0, 74, 57
2, 3961, Note_on_c, 0, 79, 56
2, 4041, Note_off_c, 0, 79, 60
2, 4050, Note_on_c, 0, 82, 68
2, 4051, Note_on_c, 0, 74, 61
2, 4075, Note_off_c, 0, 74, 58
2, 4075, Note_off_c, 0, 82, 57
2, 4080, Note_on_c, 0, 77, 65
2, 4080, Note_on_c, 0, 82, 76
2, 4190, Note_off_c, 0, 82, 62
2, 4191, Note_off_c, 0, 77, 61
2, 4199, Note_on_c, 0, 70, 56
2, 4200, Note_on_c, 0, 79, 60
2, 4229, Note_off_c, 0, 70, 59
2, 4230, Note_off_c, 0, 79, 59
2, 4319, Note_on_c, 0, 70, 55
2, 4321, Note_on_c, 0, 79, 56
2, 4400, Note_off_c, 0, 70, 60
2, 4402, Note_off_c, 0, 79, 60
2, 4409, Note_on_c, 0, 81, 64
2, 4410, Note_on_c, 0, 75, 62
2, 4433, Note_off_c, 0, 81, 59
2, 4436, Note_off_c, 0, 75, 57
2, 4439, Note_on_c, 0, 81, 70
2, 4441, Note_on_c, 0, 75, 66
2, 4550, Note_off_c, 0, 75, 60
2, 4550, Note_off_c, 0, 81, 60
2, 4560, Note_on_c, 0, 82, 56
2, 4561, Note_on_c, 0, 70, 53
2, 4590, Note_off_c, 0, 70, 59
2, 4591, Note_off_c, 0, 82, 59
2, 4679, Note_on_c, 0, 82, 66
2, 4679, Note_on_c, 0, 77, 64
2, 4760, Note_off_c, 0, 82, 62
2, 4769, Note_on_c, 0, 84, 76
2, 4794, Note_off_c, 0, 77, 60
2, 4795, Note_off_c, 0, 84, 59
2, 4800, Note_on_c, 0, 84, 85
2, 4801, Note_on_c, 0, 77, 80
2, 4909, Note_off_c, 0, 84, 62
2, 4919, Note_on_c, 0, 86, 84
2, 4950, Note_off_c, 0, 86, 57
2, 4951, Note_off_c, 0, 77, 65
2, 5039, Note_on_c, 0, 82, 85
2, 5040, Note_on_c, 0, 87, 86
2, 5120, Note_off_c, 0, 87, 60
2, 5129, Note_on_c, 0, 88, 92
2, 5153, Note_off_c, 0, 88, 57
2, 5155, Note_off_c, 0, 82, 61
2, 5161, Note_on_c, 0, 82, 92
2, 5161, Note_on_c, 0, 88, 93
2, 5270, Note_off_c, 0, 88, 61
2, 5271, Note_off_c, 0, 82, 62
2, 5279, Note_on_c, 0, 77, 95
2, 5279, Note_on_c, 0, 89, 99
2, 5281, Note_on_c, 0, 81, 96
2, 5309, Note_off_c, 0, 77, 58
2, 5310, Note_off_c, 0, 89, 59
2, 5312, Note_off_c, 0, 81, 57
2, 5399, Note_on_c, 0, 79, 102
2, 5400, Control_c, 0, 64, 0
2, 5400, Note_on_c, 0, 88, 109
2, 5400, Note_on_c, 0, 91, 109
2, 5401, Note_on_c, 0, 82, 105
2, 5420, Control_c, 0, 64, 127
2, 5448, Note_off_c, 0, 79, 59
2, 5449, Note_off_c, 0, 88, 58
2, 5450, Note_off_c, 0, 91, 57
2, 5452, Note_off_c, 0, 82, 59
2, 5460, Control_c, 0, 64, 0
2, 5520, Note_on_c, 0, 81, 110
2, 5520, Control_c, 0, 64, 0
2, 5521, Note_on_c, 0, 77, 108
2, 5521, Note_on_c, 0, 89, 110
2, 5540, Control_c, 0, 64, 127
2, 5571, Note_off_c, 0, 89, 59
2, 5571, Note_off_c, 0, 77, 59
2, 5571, Note_off_c, 0, 81, 57
2, 5620, Control_c, 0, 64, 0
2, 5759, Note_on_c, 0, 74, 61
2, 5760, Control_c, 0, 64, 0
2, 5760, Note_on_c, 0, 71, 61
2, 5780, Control_c, 0, 64, 127
2, 5839, Note_off_c, 0, 71, 62
2, 5839, Note_off_c, 0, 74, 60
2, 5851, Note_on_c, 0, 74, 55
2, 5851, Note_on_c, 0, 77, 57
2, 5875, Note_off_c, 0, 77, 59
2, 5877, Note_off_c, 0, 74, 58
2, 5879, Note_on_c, 0, 77, 65
2, 5880, Note_on_c, 0, 74, 62
2, 5880, Control_c, 0, 64, 0
2, 5900, Control_c, 0, 64, 127
2, 5989, Note_off_c, 0, 74, 61
2, 5989, Note_off_c, 0, 77, 62
2, 5999, Note_on_c, 0, 74, 54
2, 6000, Control_c, 0, 64, 0
2, 6001, Note_on_c, 0, 71, 51
2, 6050, Note_off_c, 0, 74, 57
2, 6051, Note_off_c, 0, 71, 59
2, 6120, Control_c, 0, 64, 0
2, 6121, Note_on_c, 0, 71, 62
2, 6121, Note_on_c, 0, 74, 62
2, 6140, Control_c, 0, 64, 127
2, 6200, Note_off_c, 0, 74, 61
2, 6200, Note_off_c, 0, 71, 62
2, 6211, Note_on_c, 0, 75, 52
2, 6211, Note_on_c, 0, 79, 55
2, 6235, Note_off_c, 0, 79, 59
2, 6235, Note_off_c, 0, 75, 59
2, 6239, Note_on_c, 0, 75, 62
2, 6239, Note_on_c, 0, 79, 64
2, 6240, Control_c, 0, 64, 0
2, 6260, Control_c, 0, 64, 127
2, 6348, Note_off_c, 0, 75, 61
2, 6349, Note_off_c, 0, 79, 61
2, 6360, Note_on_c, 0, 72, 54
2, 6360, Control_c, 0, 64, 0
2, 6361, Note_on_c, 0, 75, 56
2, 6410, Note_off_c, 0, 72, 58
2, 6411, Note_off_c, 0, 75, 58
2, 6479, Note_on_c, 0, 72, 62
2, 6480, Control_c, 0, 64, 0
2, 6481, Note_on_c, 0, 69, 62
2, 6500, Control_c, 0, 64, 127
2, 6560, Note_off_c, 0, 72, 60
2, 6561, Note_off_c, 0, 69, 62
2, 6569, Note_on_c, 0, 72, 56
2, 6571, Note_on_c, 0, 75, 58
2, 6594, Note_off_c, 0, 72, 57
2, 6597, Note_off_c, 0, 75, 57
2, 6599, Note_on_c, 0, 72, 64
2, 6599, Note_on_c, 0, 75, 65
2, 6600, Control_c, 0, 64, 0
2, 6620, Control_c, 0, 64, 127
2, 6708, Note_off_c, 0, 75, 60
2, 6709, Note_off_c, 0, 72, 60
2, 6720, Note_on_c, 0, 72, 56
2, 6720, Control_c, 0, 64, 0
2, 6721, Note_on_c, 0, 69, 55
2, 6771, Note_off_c, 0, 72, 58
2, 6772, Note_off_c, 0, 69, 58
2, 6840, Note_on_c, 0, 69, 60
2, 6840, Control_c, 0, 64, 0
2, 6841, Note_on_c, 0, 72, 61
2, 6860, Control_c, 0, 64, 127
2, 6921, Note_off_c, 0, 69, 60
2, 6922, Note_off_c, 0, 72, 60
2, 6929, Note_on_c, 0, 77, 55
2, 6930, Note_on_c, 0, 73, 53
2, 6955, Note_off_c, 0, 73, 57
2, 6955, Note_off_c, 0, 77, 59
2, 6959, Note_on_c, 0, 74, 60
2, 6960, Control_c, 0, 64, 0
2, 6961, Note_on_c, 0, 77, 65
2, 6980, Control_c, 0, 64, 127
2, 7070, Note_off_c, 0, 74, 60
2, 7071, Note_off_c, 0, 77, 62
2, 7079, Note_on_c, 0, 70, 51
2, 7079, Note_on_c, 0, 74, 57
2, 7080, Control_c, 0, 64, 0
2, 7128, Note_off_c, 0, 74, 58
2, 7130, Note_off_c, 0, 70, 57
2, 7199, Note_on_c, 0, 60, 56
2, 7200, Control_c, 0, 64, 0
2, 7200, Note_on_c, 0, 57, 54
2, 7220, Control_c, 0, 64, 127
2, 7280, Note_off_c, 0, 60, 62
2, 7281, Note_off_c, 0, 57, 61
2, 7291, Note_on_c, 0, 60, 59
2, 7291, Note_on_c, 0, 63, 60
2, 7316, Note_off_c, 0, 63, 57
2, 7317, Note_off_c, 0, 60, 57
2, 7320, Note_on_c, 0, 60, 61
2, 7320, Control_c, 0, 64, 0
2, 7320, Note_on_c, 0, 63, 61
2, 7350, Control_c, 0, 64, 127
2, 7440, Control_c, 0, 64, 0
2, 7470, Control_c, 0, 64, 127
2, 7544, Note_off_c, 0, 60, 63
2, 7545, Note_off_c, 0, 63, 64
2, 7559, Note_on_c, 0, 58, 58
2, 7560, Control_c, 0, 64, 0
2, 7561, Note_on_c, 0, 62, 60
2, 7590, Control_c, 0, 64, 127
2, 7670, Note_off_c, 0, 62, 62
2, 7670, Note_off_c, 0, 58, 60
2, 7679, Note_on_c, 0, 57, 56
2, 7679, Note_on_c, 0, 60, 59
2, 7680, Control_c, 0, 64, 0
2, 7720, Control_c, 0, 64, 127
2, 7788, Note_off_c, 0, 57, 60
2, 7790, Note_off_c, 0, 60, 61
2, 7799, Note_on_c, 0, 55, 53
2, 7799, Note_on_c, 0, 58, 57
2, 7800, Control_c, 0, 64, 0
2, 7840, Control_c, 0, 64, 127
2, 7909, Note_off_c, 0, 58, 62
2, 7910, Note_off_c, 0, 55, 60
2, 7920, Note_on_c, 0, 57, 56
2, 7920, Control_c, 0, 64, 0
2, 7921, Note_on_c, 0, 53, 54
2, 7960, Control_c, 0, 64, 127
2, 8040, Control_c, 0, 64, 0
2, 8080, Control_c, 0, 64, 127
2, 8150, Note_off_c, 0, 53, 64
2, 8151, Note_off_c, 0, 57, 63
2, 8159, Note_on_c, 0, 52, 50
2, 8160, Note_on_c, 0, 55, 54
2, 8160, Control_c, 0, 64, 0
2, 8200, Control_c, 0, 64, 127
2, 8268, Note_off_c, 0, 52, 61
2, 8269, Note_off_c, 0, 55, 61
2, 8279, Note_on_c, 0, 55, 48
2, 8279, Note_on_c, 0, 51, 45
2, 8280, Control_c, 0, 64, 0
2, 8281, Note_on_c, 0, 60, 54
2, 8320, Control_c, 0, 64, 127
2, 8400, Control_c, 0, 64, 0
2, 8440, Control_c, 0, 64, 127
2, 8508, Note_off_c, 0, 51, 63
2, 8510, Note_off_c, 0, 60, 63
2, 8519, Note_on_c, 0, 50, 45
2, 8520, Control_c, 0, 64, 0
2, 8521, Note_on_c, 0, 59, 49
2, 8560, Control_c, 0, 64, 127
2, 8618, Note_off_c, 0, 55, 65
2, 8628, Note_off_c, 0, 50, 60
2, 8631, Note_off_c, 0, 59, 61
2, 8710, Control_c, 0, 64, 0
2, 9001, Note_on_c, 0, 59, 52
2, 9080, Note_off_c, 0, 59, 60
2, 9090, Note_on_c, 0, 62, 57
2, 9116, Note_off_c, 0, 62, 58
2, 9121, Note_on_c, 0, 62, 57
2, 9230, Note_off_c, 0, 62, 61
2, 9241, Note_on_c, 0, 59, 52
2, 9272, Note_off_c, 0, 59, 57
2, 9359, Note_on_c, 0, 71, 63
2, 9359, Note_on_c, 0, 62, 55
2, 9438, Note_off_c, 0, 71, 60
2, 9451, Note_on_c, 0, 74, 56
2, 9477, Note_off_c, 0, 74, 57
2, 9480, Note_on_c, 0, 74, 66
2, 9590, Note_off_c, 0, 74, 60
2, 9601, Note_on_c, 0, 71, 56
2, 9632, Note_off_c, 0, 71, 57
2, 9649, Note_off_c, 0, 62, 63
2, 9720, Note_on_c, 0, 84, 55
2, 9720, Control_c, 0, 64, 0
2, 9740, Control_c, 0, 64, 127
2, 9801, Note_off_c, 0, 84, 61
2, 9811, Note_on_c, 0, 87, 57
2, 9836, Note_off_c, 0, 87, 58
2, 9839, Note_on_c, 0, 87, 61
2, 9949, Note_off_c, 0, 87, 61
2, 9960, Note_on_c, 0, 84, 57
2, 9960, Control_c, 0, 64, 0
2, 9989, Note_off_c, 0, 84, 59
2, 10079, Note_on_c, 0, 62, 55
2, 10080, Control_c, 0, 64, 0
2, 10081, Note_on_c, 0, 71, 56
2, 10100, Control_c, 0, 64, 127
2, 10159, Note_off_c, 0, 62, 62
2, 10161, Note_off_c, 0, 71, 60
2, 10169, Note_on_c, 0, 65, 59
2, 10170, Note_on_c, 0, 74, 60
2, 10195, Note_off_c, 0, 65, 58
2, 10196, Note_off_c, 0, 74, 57
2, 10199, Note_on_c, 0, 74, 71
2, 10200, Control_c, 0, 64, 0
2, 10201, Note_on_c, 0, 65, 67
2, 10220, Control_c, 0, 64, 127
2, 10308, Note_off_c, 0, 74, 60
2, 10312, Note_off_c, 0, 65, 62
2, 10319, Note_on_c, 0, 71, 62
2, 10320, Note_on_c, 0, 62, 59
2, 10320, Control_c, 0, 64, 0
2, 10348, Note_off_c, 0, 71, 59
2, 10351, Note_off_c, 0, 62, 57
2, 10439, Note_on_c, 0, 71, 72
2, 10439, Note_on_c, 0, 62, 68
2, 10440, Control_c, 0, 64, 0
2, 10460, Control_c, 0, 64, 127
2, 10518, Note_off_c, 0, 62, 62
2, 10518, Note_off_c, 0, 71, 61
2, 10531, Note_on_c, 0, 67, 77
2, 10531, Note_on_c, 0, 75, 78
2, 10557, Note_off_c, 0, 75, 57
2, 10557, Note_off_c, 0, 67, 58
2, 10560, Control_c, 0, 64, 0
2, 10561, Note_on_c, 0, 67, 82
2, 10561, Note_on_c, 0, 75, 84
2, 10580, Control_c, 0, 64, 127
2, 10670, Note_off_c, 0, 75, 61
2, 10671, Note_off_c, 0, 67, 61
2, 10680, Note_on_c, 0, 72, 74
2, 10680, Control_c, 0, 64, 0
2, 10681, Note_on_c, 0, 63, 74
2, 10709, Note_off_c, 0, 72, 59
2, 10712, Note_off_c, 0, 63, 58
2, 10800, Note_on_c, 0, 69, 85
2, 10800, Control_c, 0, 64, 0
2, 10801, Note_on_c, 0, 72, 86
2, 10820, Control_c, 0, 64, 127
2, 10879, Note_off_c, 0, 69, 61
2, 10881, Note_off_c, 0, 72, 61
2, 10891, Note_on_c, 0, 72, 86
2, 10891, Note_on_c, 0, 81, 90
2, 10916, Note_off_c, 0, 81, 58
2, 10916, Note_off_c, 0, 72, 57
2, 10920, Control_c, 0, 64, 0
2, 10921, Note_on_c, 0, 72, 94
2, 10921, Note_on_c, 0, 81, 98
2, 10940, Control_c, 0, 64, 127
2, 11030, Note_off_c, 0, 72, 62
2, 11032, Note_off_c, 0, 81, 62
2, 11039, Note_on_c, 0, 77, 93
2, 11040, Note_on_c, 0, 69, 90
2, 11040, Control_c, 0, 64, 0
2, 11070, Note_off_c, 0, 77, 57
2, 11071, Note_off_c, 0, 69, 59
2, 11160, Note_on_c, 0, 82, 106
2, 11160, Control_c, 0, 64, 0
2, 11161, Note_on_c, 0, 70, 106
2, 11180, Control_c, 0, 64, 127
2, 11211, Note_off_c, 0, 82, 58
2, 11212, Note_off_c, 0, 70, 57
2, 11220, Control_c, 0, 64, 0
2, 11280, Note_on_c, 0, 70, 112
2, 11280, Control_c, 0, 64, 0
2, 11280, Note_on_c, 0, 82, 114
2, 11300, Control_c, 0, 64, 127
2, 11329, Note_off_c, 0, 70, 59
2, 11330, Note_off_c, 0, 82, 59
2, 11340, Control_c, 0, 64, 0
2, 11520, Note_on_c, 0, 86, 59
2, 11520, Control_c, 0, 64, 0
2, 11521, Note_on_c, 0, 83, 56
2, 11540, Control_c, 0, 64, 127
2, 11599, Note_off_c, 0, 86, 61
2, 11600, Note_off_c, 0, 83, 60
2, 11609, Note_on_c, 0, 86, 50
2, 11610, Note_on_c, 0, 89, 50
2, 11634, Note_off_c, 0, 89, 59
2, 11634, Note_off_c, 0, 86, 57
2, 11640, Note_on_c, 0, 89, 65
2, 11640, Control_c, 0, 64, 0
2, 11641, Note_on_c, 0, 86, 62
2, 11660, Control_c, 0, 64, 127
2, 11750, Note_off_c, 0, 89, 60
2, 11751, Note_off_c, 0, 86, 62
2, 11759, Note_on_c, 0, 83, 52
2, 11760, Control_c, 0, 64, 0
2, 11761, Note_on_c, 0, 86, 53
2, 11789, Note_off_c, 0, 83, 59
2, 11790, Note_off_c, 0, 86, 59
2, 11879, Note_on_c, 0, 86, 62
2, 11879, Note_on_c, 0, 83, 60
2, 11880, Control_c, 0, 64, 0
2, 11900, Control_c, 0, 64, 127
2, 11958, Note_off_c, 0, 83, 60
2, 11959, Note_off_c, 0, 86, 60
2, 11969, Note_on_c, 0, 87, 51
2, 11971, Note_on_c, 0, 91, 52
2, 11994, Note_off_c, 0, 87, 57
2, 11995, Note_off_c, 0, 91, 57
2, 12000, Note_on_c, 0, 87, 62
2, 12000, Control_c, 0, 64, 0
2, 12000, Note_on_c, 0, 91, 64
2, 12020, Control_c, 0, 64, 127
2, 12109, Note_off_c, 0, 91, 60
2, 12111, Note_off_c, 0, 87, 60
2, 12119, Note_on_c, 0, 87, 56
2, 12120, Control_c, 0, 64, 0
2, 12121, Note_on_c, 0, 84, 55
2, 12148, Note_off_c, 0, 87, 58
2, 12150, Note_off_c, 0, 84, 58
2, 12240, Note_on_c, 0, 84, 60
2, 12240, Control_c, 0, 64, 0
2, 12241, Note_on_c, 0, 81, 60
2, 12260, Control_c, 0, 64, 127
2, 12320, Note_off_c, 0, 81, 60
2, 12320, Note_off_c, 0, 84, 60
2, 12330, Note_on_c, 0, 87, 53
2, 12331, Note_on_c, 0, 84, 53
2, 12354, Note_off_c, 0, 87, 59
2, 12355, Note_off_c, 0, 84, 58
2, 12360, Note_on_c, 0, 84, 65
2, 12360, Control_c, 0, 64, 0
2, 12361, Note_on_c, 0, 87, 67
2, 12380, Control_c, 0, 64, 127
2, 12470, Note_off_c, 0, 87, 62
2, 12470, Note_off_c, 0, 84, 62
2, 12480, Note_on_c, 0, 81, 55
2, 12480, Control_c, 0, 64, 0
2, 12480, Note_on_c, 0, 84, 60
2, 12510, Note_off_c, 0, 84, 58
2, 12510, Note_off_c, 0, 81, 59
2, 12599, Note_on_c, 0, 84, 61
2, 12600, Control_c, 0, 64, 0
2, 12601, Note_on_c, 0, 81, 59
2, 12620, Control_c, 0, 64, 127
2, 12680, Note_off_c, 0, 84, 62
2, 12681, Note_off_c, 0, 81, 61
2, 12690, Note_on_c, 0, 85, 47
2, 12691, Note_on_c, 0, 89, 52
2, 12714, Note_off_c, 0, 85, 58
2, 12716, Note_off_c, 0, 89, 59
2, 12719, Note_on_c, 0, 89, 65
2, 12720, Note_on_c, 0, 86, 58
2, 12720, Control_c, 0, 64, 0
2, 12740, Control_c, 0, 64, 127
2, 12829, Note_off_c, 0, 86, 62
2, 12829, Note_off_c, 0, 89, 62
2, 12840, Note_on_c, 0, 86, 58
2, 12840, Control_c, 0, 64, 0
2, 12841, Note_on_c, 0, 82, 53
2, 12870, Note_off_c, 0, 86, 58
2, 12872, Note_off_c, 0, 82, 57
2, 12960, Note_on_c, 0, 69, 54
2, 12960, Control_c, 0, 64, 0
2, 12961, Note_on_c, 0, 72, 61
2, 12980, Control_c, 0, 64, 127
2, 13041, Note_off_c, 0, 72, 60
2, 13041, Note_off_c, 0, 69, 62
2, 13049, Note_on_c, 0, 72, 54
2, 13051, Note_on_c, 0, 75, 56
2, 13075, Note_off_c, 0, 72, 59
2, 13077, Note_off_c, 0, 75, 57
2, 13079, Note_on_c, 0, 72, 62
2, 13080, Note_on_c, 0, 75, 65
2, 13080, Control_c, 0, 64, 0
2, 13120, Control_c, 0, 64, 127
2, 13200, Control_c, 0, 64, 0
2, 13240, Control_c, 0, 64, 127
2, 13303, Note_off_c, 0, 72, 65
2, 13304, Note_off_c, 0, 75, 64
2, 13320, Note_on_c, 0, 74, 62
2, 13320, Control_c, 0, 64, 0
2, 13321, Note_on_c, 0, 70, 59
2, 13360, Control_c, 0, 64, 127
2, 13430, Note_off_c, 0, 70, 61
2, 13430, Note_off_c, 0, 74, 61
2, 13439, Note_on_c, 0, 69, 60
2, 13440, Note_on_c, 0, 72, 61
2, 13440, Control_c, 0, 64, 0
2, 13480, Control_c, 0, 64, 127
2, 13550, Note_off_c, 0, 69, 62
2, 13551, Note_off_c, 0, 72, 60
2, 13559, Note_on_c, 0, 67, 55
2, 13559, Note_on_c, 0, 70, 59
2, 13560, Control_c, 0, 64, 0
2, 13600, Control_c, 0, 64, 127
2, 13668, Note_off_c, 0, 70, 61
2, 13669, Note_off_c, 0, 67, 62
2, 13679, Note_on_c, 0, 65, 55
2, 13680, Control_c, 0, 64, 0
2, 13681, Note_on_c, 0, 69, 55
2, 13720, Control_c, 0, 64, 127
2, 13800, Control_c, 0, 64, 0
2, 13840, Control_c, 0, 64, 127
2, 13910, Note_off_c, 0, 69, 64
2, 13910, Note_off_c, 0, 65, 64
2, 13919, Note_on_c, 0, 64, 50
2, 13920, Control_c, 0, 64, 0
2, 13921, Note_on_c, 0, 67, 51
2, 13960, Control_c, 0, 64, 127
2, 14030, Note_off_c, 0, 64, 61
2, 14031, Note_off_c, 0, 67, 60
2, 14040, Note_on_c, 0, 72, 54
2, 14040, Control_c, 0, 64, 0
2, 14041, Note_on_c, 0, 63, 49
2, 14041, Note_on_c, 0, 67, 51
2, 14060, Control_c, 0, 64, 127
2, 14160, Control_c, 0, 64, 0
2, 14200, Control_c, 0, 64, 127
2, 14270, Note_off_c, 0, 63, 63
2, 14270, Note_off_c, 0, 72, 63
2, 14279, Note_on_c, 0, 71, 47
2, 14280, Note_on_c, 0, 62, 44
2, 14280, Control_c, 0, 64, 0
2, 14320, Control_c, 0, 64, 127
2, 14375, Note_off_c, 0, 67, 63
2, 14389, Note_off_c, 0, 62, 61
2, 14389, Note_off_c, 0, 71, 62
2, 14440, Control_c, 0, 64, 0
2, 14759, Note_on_c, 0, 71, 48
2, 14838, Note_off_c, 0, 71, 60
2, 14851, Note_on_c, 0, 74, 54
2, 14876, Note_off_c, 0, 74, 57
2, 14881, Note_on_c, 0, 74, 58
2, 14992, Note_off_c, 0, 74, 62
2, 15001, Note_on_c, 0, 71, 50
2, 15031, Note_off_c, 0, 71, 58
2, 15119, Note_on_c, 0, 74, 47
2, 15121, Note_on_c, 0, 83, 51
2, 15201, Note_off_c, 0, 83, 60
2, 15209, Note_on_c, 0, 86, 54
2, 15233, Note_off_c, 0, 86, 58
2, 15241, Note_on_c, 0, 86, 61
2, 15352, Note_off_c, 0, 86, 60
2, 15360, Note_on_c, 0, 83, 49
2, 15388, Note_off_c, 0, 74, 64
2, 15391, Note_off_c, 0, 83, 59
2, 15479, Note_on_c, 0, 72, 50
2, 15480, Control_c, 0, 64, 0
2, 15520, Control_c, 0, 64, 127
2, 15558, Note_off_c, 0, 72, 60
2, 15570, Note_on_c, 0, 75, 54
2, 15595, Note_off_c, 0, 75, 58
2, 15600, Note_on_c, 0, 75, 57
2, 15711, Note_off_c, 0, 75, 60
2, 15720, Note_on_c, 0, 72, 50
2, 15720, Control_c, 0, 64, 0
2, 15751, Note_off_c, 0, 72, 57
2, 15839, Note_on_c, 0, 83, 60
2, 15839, Note_on_c, 0, 74, 58
2, 15840, Control_c, 0, 64, 0
2, 15860, Control_c, 0, 64, 127
2, 15918, Note_off_c, 0, 83, 61
2, 15919, Note_off_c, 0, 74, 62
2, 15930, Note_on_c, 0, 77, 62
2, 15930, Note_on_c, 0, 86, 65
2, 15954, Note_off_c, 0, 77, 59
2, 15955, Note_off_c, 0, 86, 59
2, 15960, Note_on_c, 0, 86, 68
2, 15960, Control_c, 0, 64, 0
2, 15961, Note_on_c, 0, 77, 68
2, 15980, Control_c, 0, 64, 127
2, 16070, Note_off_c, 0, 77, 60
2, 16070, Note_off_c, 0, 86, 60
2, 16080, Note_on_c, 0, 83, 61
2, 16080, Control_c, 0, 64, 0
2, 16081, Note_on_c, 0, 74, 58
2, 16109, Note_off_c, 0, 83, 57
2, 16112, Note_off_c, 0, 74, 59
2, 16200, Note_on_c, 0, 83, 72
2, 16200, Control_c, 0, 64, 0
2, 16201, Note_on_c, 0, 74, 68
2, 16220, Control_c, 0, 64, 127
2, 16281, Note_off_c, 0, 74, 61
2, 16281, Note_off_c, 0, 83, 60
2, 16289, Note_on_c, 0, 79, 76
2, 16290, Note_on_c, 0, 87, 77
2, 16315, Note_off_c, 0, 87, 57
2, 16315, Note_off_c, 0, 79, 58
2, 16319, Note_on_c, 0, 79, 79
2, 16319, Note_on_c, 0, 87, 81
2, 16320, Control_c, 0, 64, 0
2, 16340, Control_c, 0, 64, 127
2, 16429, Note_off_c, 0, 87, 61
2, 16429, Note_off_c, 0, 79, 62
2, 16439, Note_on_c, 0, 84, 74
2, 16440, Note_on_c, 0, 75, 70
2, 16440, Control_c, 0, 64, 0
2, 16469, Note_off_c, 0, 75, 57
2, 16470, Note_off_c, 0, 84, 58
2, 16560, Note_on_c, 0, 81, 81
2, 16560, Control_c, 0, 64, 0
2, 16560, Note_on_c, 0, 84, 83
2, 16580, Control_c, 0, 64, 127
2, 16641, Note_off_c, 0, 84, 60
2, 16641, Note_off_c, 0, 81, 61
2, 16649, Note_on_c, 0, 93, 90
2, 16650, Note_on_c, 0, 84, 85
2, 16674, Note_off_c, 0, 93, 58
2, 16676, Note_off_c, 0, 84, 59
2, 16680, Note_on_c, 0, 84, 93
2, 16680, Control_c, 0, 64, 0
2, 16680, Note_on_c, 0, 93, 95
2, 16700, Control_c, 0, 64, 127
2, 16790, Note_off_c, 0, 93, 62
2, 16791, Note_off_c, 0, 84, 62
2, 16799, Note_on_c, 0, 89, 102
2, 16800, Control_c, 0, 64, 0
2, 16801, Note_on_c, 0, 81, 98
2, 16829, Note_off_c, 0, 89, 57
2, 16830, Note_off_c, 0, 81, 58
2, 16919, Note_on_c, 0, 94, 109
2, 16919, Note_on_c, 0, 82, 108
2, 16920, Control_c, 0, 64, 0
2, 16940, Control_c, 0, 64, 127
2, 16968, Note_off_c, 0, 82, 59
2, 16969, Note_off_c, 0, 94, 57
2, 16980, Control_c, 0, 64, 0
2, 17039, Note_on_c, 0, 94, 116
2, 17040, Control_c, 0, 64, 0
2, 17041, Note_on_c, 0, 82, 115
2, 17060, Control_c, 0, 64, 127
2, 17090, Note_off_c, 0, 82, 59
2, 17090, Note_off_c, 0, 94, 59
2, 17150, Control_c, 0, 64, 0
2, 17280, Note_on_c, 0, 73, 66
2, 17280, Note_on_c, 0, 85, 68
2, 17509, Note_off_c, 0, 85, 63
2, 17509, Note_off_c, 0, 73, 64
2, 17519, Note_on_c, 0, 89, 76
2, 17520, Note_on_c, 0, 77, 71
2, 17628, Note_off_c, 0, 89, 60
2, 17630, Note_off_c, 0, 77, 61
2, 17639, Note_on_c, 0, 85, 77
2, 17639, Note_on_c, 0, 73, 74
2, 17640, Control_c, 0, 64, 0
2, 17660, Control_c, 0, 64, 127
2, 17870, Note_off_c, 0, 73, 65
2, 17870, Note_off_c, 0, 85, 64
2, 17880, Note_on_c, 0, 82, 73
2, 17881, Note_on_c, 0, 70, 71
2, 17991, Note_off_c, 0, 70, 62
2, 17991, Note_off_c, 0, 82, 62
2, 18000, Note_on_c, 0, 65, 68
2, 18000, Note_on_c, 0, 77, 71
2, 18109, Note_off_c, 0, 77, 60
2, 18111, Note_off_c, 0, 65, 61
2, 18120, Note_on_c, 0, 70, 75
2, 18120, Note_on_c, 0, 82, 80
2, 18345, Note_off_c, 0, 70, 64
2, 18346, Note_off_c, 0, 82, 63
2, 18359, Note_on_c, 0, 73, 82
2, 18361, Note_on_c, 0, 85, 84
2, 18468, Note_off_c, 0, 73, 60
2, 18470, Note_off_c, 0, 85, 62
2, 18479, Note_on_c, 0, 77, 88
2, 18479, Note_on_c, 0, 89, 91
2, 18703, Note_off_c, 0, 77, 64
2, 18704, Note_off_c, 0, 89, 64
2, 18719, Note_on_c, 0, 73, 87
2, 18721, Note_on_c, 0, 85, 90
2, 18829, Note_off_c, 0, 73, 62
2, 18830, Note_off_c, 0, 85, 62
2, 18839, Note_on_c, 0, 82, 92
2, 18841, Note_on_c, 0, 70, 88
2, 19065, Note_off_c, 0, 70, 64
2, 19065, Note_off_c, 0, 82, 64
2, 19079, Note_on_c, 0, 77, 93
2, 19079, Note_on_c, 0, 65, 91
2, 19190, Note_off_c, 0, 65, 61
2, 19190, Note_off_c, 0, 77, 60
2, 19201, Note_on_c, 0, 70, 93
2, 19201, Note_on_c, 0, 82, 97
2, 19425, Note_off_c, 0, 82, 65
2, 19427, Note_off_c, 0, 70, 64
2, 19440, Note_on_c, 0, 73, 99
2, 19440, Control_c, 0, 64, 0
2, 19441, Note_on_c, 0, 85, 102
2, 19480, Control_c, 0, 64, 127
2, 19550, Note_off_c, 0, 73, 61
2, 19552, Note_off_c, 0, 85, 60
2, 19559, Note_on_c, 0, 77, 86
2, 19560, Note_on_c, 0, 89, 93
2, 19560, Control_c, 0, 64, 0
2, 19580, Control_c, 0, 64, 127
2, 19783, Note_off_c, 0, 77, 65
2, 19784, Note_off_c, 0, 89, 63
2, 19799, Note_on_c, 0, 92, 81
2, 19799, Note_on_c, 0, 80, 76
2, 19908, Note_off_c, 0, 92, 61
2, 19910, Note_off_c, 0, 80, 61
2, 19919, Note_on_c, 0, 85, 74
2, 19920, Note_on_c, 0, 73, 69
2, 20029, Note_off_c, 0, 85, 62
2, 20031, Note_off_c, 0, 73, 60
2, 20159, Note_on_c, 0, 70, 63
2, 20160, Control_c, 0, 64, 0
2, 20161, Note_on_c, 0, 82, 66
2, 20208, Note_off_c, 0, 70, 57
2, 20212, Note_off_c, 0, 82, 58
2, 20279, Note_on_c, 0, 70, 57
2, 20279, Note_on_c, 0, 82, 61
2, 20328, Note_off_c, 0, 70, 57
2, 20330, Note_off_c, 0, 82, 59
2, 20520, Control_c, 0, 64, 0
2, 20521, Note_on_c, 0, 73, 64
2, 20540, Control_c, 0, 64, 127
2, 20561, Note_on_c, 0, 70, 58
2, 20570, Note_off_c, 0, 73, 58
2, 20600, Note_on_c, 0, 65, 54
2, 20610, Note_off_c, 0, 70, 59
2, 20640, Note_on_c, 0, 73, 63
2, 20651, Note_off_c, 0, 65, 58
2, 20680, Note_on_c, 0, 70, 58
2, 20690, Note_off_c, 0, 73, 57
2, 20719, Note_on_c, 0, 65, 55
2, 20729, Note_off_c, 0, 70, 58
2, 20759, Note_on_c, 0, 77, 62
2, 20769, Note_off_c, 0, 65, 59
2, 20799, Note_on_c, 0, 73, 58
2, 20809, Note_off_c, 0, 77, 58
2, 20841, Note_on_c, 0, 70, 53
2, 20850, Note_off_c, 0, 73, 59
2, 20879, Note_on_c, 0, 73, 63
2, 20881, Note_off_c, 0, 70, 58
2, 20919, Note_on_c, 0, 70, 57
2, 20930, Note_off_c, 0, 73, 57
2, 20960, Note_on_c, 0, 65, 54
2, 20968, Note_off_c, 0, 70, 58
2, 20999, Note_on_c, 0, 73, 66
2, 21011, Note_off_c, 0, 65, 57
2, 21040, Note_on_c, 0, 70, 62
2, 21050, Note_off_c, 0, 73, 57
2, 21080, Note_on_c, 0, 65, 57
2, 21090, Note_off_c, 0, 70, 59
2, 21119, Note_on_c, 0, 70, 68
2, 21130, Note_off_c, 0, 65, 59
2, 21160, Note_on_c, 0, 65, 64
2, 21169, Note_off_c, 0, 70, 58
2, 21200, Note_on_c, 0, 61, 62
2, 21210, Note_off_c, 0, 65, 57
2, 21240, Note_off_c, 0, 61, 59
2, 21240, Note_on_c, 0, 65, 72
2, 21280, Note_on_c, 0, 61, 67
2, 21290, Note_off_c, 0, 65, 58
2, 21319, Note_on_c, 0, 58, 62
2, 21330, Note_off_c, 0, 61, 59
2, 21359, Note_on_c, 0, 70, 78
2, 21360, Note_on_c, 0, 61, 74
2, 21370, Note_off_c, 0, 58, 59
2, 21401, Note_on_c, 0, 58, 71
2, 21410, Note_off_c, 0, 61, 57
2, 21410, Note_off_c, 0, 70, 59
2, 21440, Note_on_c, 0, 61, 66
2, 21450, Note_off_c, 0, 58, 58
2, 21480, Note_on_c, 0, 70, 82
2, 21491, Note_off_c, 0, 61, 57
2, 21521, Note_on_c, 0, 61, 76
2, 21529, Note_off_c, 0, 70, 58
2, 21559, Note_on_c, 0, 58, 72
2, 21571, Note_off_c, 0, 61, 57
2, 21600, Note_off_c, 0, 58, 59
2, 21600, Note_on_c, 0, 65, 81
2, 21601, Note_on_c, 0, 73, 83
2, 21640, Note_on_c, 0, 61, 78
2, 21649, Note_off_c, 0, 65, 59
2, 21652, Note_off_c, 0, 73, 58
2, 21679, Note_on_c, 0, 65, 72
2, 21689, Note_off_c, 0, 61, 57
2, 21720, Note_on_c, 0, 77, 86
2, 21728, Note_off_c, 0, 65, 57
2, 21761, Note_on_c, 0, 73, 80
2, 21771, Note_off_c, 0, 77, 57
2, 21800, Note_on_c, 0, 70, 76
2, 21811, Note_off_c, 0, 73, 57
2, 21841, Note_on_c, 0, 77, 89
2, 21849, Note_off_c, 0, 70, 59
2, 21881, Note_on_c, 0, 73, 85
2, 21891, Note_off_c, 0, 77, 58
2, 21919, Note_on_c, 0, 70, 81
2, 21930, Note_off_c, 0, 73, 58
2, 21959, Note_off_c, 0, 70, 58
2, 21959, Note_on_c, 0, 73, 89
2, 22000, Note_on_c, 0, 70, 86
2, 22009, Note_off_c, 0, 73, 57
2, 22041, Note_on_c, 0, 65, 83
2, 22051, Note_off_c, 0, 70, 59
2, 22080, Note_on_c, 0, 70, 89
2, 22092, Note_off_c, 0, 65, 58
2, 22119, Note_on_c, 0, 65, 82
2, 22131, Note_off_c, 0, 70, 59
2, 22161, Note_on_c, 0, 61, 76
2, 22169, Note_off_c, 0, 65, 59
2, 22201, Note_on_c, 0, 70, 85
2, 22211, Note_off_c, 0, 61, 58
2, 22239, Note_on_c, 0, 65, 80
2, 22250, Note_off_c, 0, 70, 59
2, 22280, Note_on_c, 0, 61, 75
2, 22290, Note_off_c, 0, 65, 58
2, 22320, Control_c, 0, 64, 0
2, 22320, Note_on_c, 0, 65, 79
2, 22321, Note_off_c, 0, 61, 59
2, 22360, Control_c, 0, 64, 127
2, 22361, Note_on_c, 0, 61, 75
2, 22370, Note_off_c, 0, 65, 58
2, 22400, Note_on_c, 0, 58, 70
2, 22410, Note_off_c, 0, 61, 57
2, 22439, Note_on_c, 0, 61, 73
2, 22439, Note_on_c, 0, 68, 78
2, 22440, Control_c, 0, 64, 0
2, 22451, Note_off_c, 0, 58, 58
2, 22479, Note_on_c, 0, 56, 72
2, 22480, Control_c, 0, 64, 127
2, 22488, Note_off_c, 0, 68, 59
2, 22488, Note_off_c, 0, 61, 59
2, 22519, Note_on_c, 0, 61, 66
2, 22529, Note_off_c, 0, 56, 58
2, 22560, Control_c, 0, 64, 127
2, 22561, Note_on_c, 0, 68, 74
2, 22570, Note_off_c, 0, 61, 57
2, 22601, Note_on_c, 0, 65, 68
2, 22611, Note_off_c, 0, 68, 59
2, 22640, Note_on_c, 0, 61, 64
2, 22650, Note_off_c, 0, 65, 59
2, 22679, Note_on_c, 0, 73, 71
2, 22680, Control_c, 0, 64, 0
2, 22680, Note_on_c, 0, 65, 71
2, 22681, Note_off_c, 0, 61, 59
2, 22719, Note_on_c, 0, 61, 65
2, 22720, Control_c, 0, 64, 127
2, 22729, Note_off_c, 0, 73, 57
2, 22731, Note_off_c, 0, 65, 58
2, 22760, Note_on_c, 0, 65, 64
2, 22769, Note_off_c, 0, 61, 59
2, 22799, Note_on_c, 0, 77, 70
2, 22800, Control_c, 0, 64, 0
2, 22810, Note_off_c, 0, 65, 59
2, 22840, Note_on_c, 0, 73, 65
2, 22840, Control_c, 0, 64, 127
2, 22850, Note_off_c, 0, 77, 57
2, 22879, Note_on_c, 0, 68, 62
2, 22891, Note_off_c, 0, 73, 58
2, 22919, Note_on_c, 0, 77, 64
2, 22930, Note_off_c, 0, 68, 57
2, 22961, Note_on_c, 0, 73, 60
2, 22968, Note_off_c, 0, 77, 57
2, 22999, Note_on_c, 0, 68, 56
2, 23011, Note_off_c, 0, 73, 59
2, 23039, Note_off_c, 0, 68, 58
2, 23039, Note_on_c, 0, 80, 65
2, 23080, Note_on_c, 0, 77, 57
2, 23090, Note_off_c, 0, 80, 58
2, 23119, Note_on_c, 0, 73, 54
2, 23129, Note_off_c, 0, 77, 58
2, 23158, Note_off_c, 0, 73, 57
2, 23159, Note_on_c, 0, 65, 57
2, 23160, Note_on_c, 0, 73, 58
2, 23269, Note_off_c, 0, 73, 61
2, 23270, Note_off_c, 0, 65, 62
2, 23399, Note_on_c, 0, 77, 70
2, 23401, Note_on_c, 0, 89, 74
2, 23630, Note_off_c, 0, 77, 64
2, 23632, Note_off_c, 0, 89, 65
2, 23640, Note_on_c, 0, 80, 77
2, 23640, Note_on_c, 0, 92, 79
2, 23751, Note_off_c, 0, 92, 62
2, 23751, Note_off_c, 0, 80, 60
2, 23759, Note_on_c, 0, 89, 84
2, 23759, Note_on_c, 0, 77, 80
2, 23988, Note_off_c, 0, 77, 65
2, 23988, Note_off_c, 0, 89, 65
2, 24000, Note_on_c, 0, 85, 77
2, 24001, Note_on_c, 0, 73, 76
2, 24109, Note_off_c, 0, 85, 60
2, 24111, Note_off_c, 0, 73, 62
2, 24119, Note_on_c, 0, 80, 74
2, 24119, Note_on_c, 0, 68, 72
2, 24228, Note_off_c, 0, 68, 61
2, 24229, Note_off_c, 0, 80, 61
2, 24239, Note_on_c, 0, 73, 68
2, 24241, Note_on_c, 0, 85, 71
2, 24465, Note_off_c, 0, 73, 64
2, 24466, Note_off_c, 0, 85, 63
2, 24480, Note_on_c, 0, 77, 79
2, 24480, Note_on_c, 0, 89, 78
2, 24570, Control_c, 0, 64, 0
2, 24589, Note_off_c, 0, 89, 61
2, 24589, Note_off_c, 0, 77, 61
2, 24600, Note_on_c, 0, 92, 86
2, 24600, Control_c, 0, 64, 0
2, 24601, Note_on_c, 0, 80, 84
2, 24630, Control_c, 0, 64, 127
2, 24720, Control_c, 0, 64, 127
2, 24824, Note_off_c, 0, 92, 65
2, 24827, Note_off_c, 0, 80, 63
2, 24839, Note_on_c, 0, 89, 92
2, 24839, Note_on_c, 0, 77, 91
2, 24840, Control_c, 0, 64, 0
2, 24860, Control_c, 0, 64, 127
2, 24949, Note_off_c, 0, 77, 61
2, 24950, Note_off_c, 0, 89, 62
2, 24959, Note_on_c, 0, 73, 97
2, 24960, Note_on_c, 0, 85, 98
2, 24960, Control_c, 0, 64, 0
2, 24980, Control_c, 0, 64, 127
2, 25183, Note_off_c, 0, 73, 64
2, 25186, Note_off_c, 0, 85, 65
2, 25200, Note_on_c, 0, 70, 96
2, 25201, Note_on_c, 0, 82, 99
2, 25309, Note_off_c, 0, 70, 61
2, 25310, Note_off_c, 0, 82, 61
2, 25320, Note_on_c, 0, 65, 96
2, 25321, Note_on_c, 0, 77, 98
2, 25544, Note_off_c, 0, 65, 65
2, 25545, Note_off_c, 0, 77, 63
2, 25559, Note_on_c, 0, 82, 91
2, 25561, Note_on_c, 0, 70, 87
2, 25668, Note_off_c, 0, 82, 61
2, 25671, Note_off_c, 0, 70, 62
2, 25679, Note_on_c, 0, 73, 82
2, 25680, Control_c, 0, 64, 0
2, 25681, Note_on_c, 0, 85, 87
2, 25700, Control_c, 0, 64, 127
2, 25903, Note_off_c, 0, 73, 65
2, 25906, Note_off_c, 0, 85, 63
2, 25920, Note_on_c, 0, 77, 78
2, 25921, Note_on_c, 0, 89, 81
2, 26030, Note_off_c, 0, 77, 61
2, 26032, Note_off_c, 0, 89, 60
2, 26039, Note_on_c, 0, 82, 74
2, 26041, Note_on_c, 0, 70, 74
2, 26150, Note_off_c, 0, 70, 62
2, 26150, Note_off_c, 0, 82, 60
2, 26280, Control_c, 0, 64, 0
2, 26281, Note_on_c, 0, 61, 61
2, 26281, Note_on_c, 0, 73, 66
2, 26331, Note_off_c, 0, 61, 58
2, 26332, Note_off_c, 0, 73, 57
2, 26399, Note_on_c, 0, 73, 61
2, 26401, Note_on_c, 0, 61, 57
2, 26448, Note_off_c, 0, 73, 59
2, 26451, Note_off_c, 0, 61, 57
2, 26521, Note_on_c, 0, 61, 52
2, 26559, Note_on_c, 0, 65, 57
2, 26571, Note_off_c, 0, 61, 58
2, 26599, Note_on_c, 0, 73, 62
2, 26608, Note_off_c, 0, 65, 59
2, 26638, Note_off_c, 0, 73, 58
2, 26639, Note_on_c, 0, 77, 75
2, 26640, Control_c, 0, 64, 0
2, 26660, Control_c, 0, 64, 127
2, 26681, Note_on_c, 0, 73, 66
2, 26721, Note_on_c, 0, 68, 59
2, 26731, Note_off_c, 0, 73, 59
2, 26750, Note_off_c, 0, 77, 60
2, 26759, Note_on_c, 0, 77, 77
2, 26771, Note_off_c, 0, 68, 58
2, 26801, Note_on_c, 0, 73, 64
2, 26839, Note_on_c, 0, 68, 59
2, 26851, Note_off_c, 0, 73, 59
2, 26868, Note_off_c, 0, 77, 60
2, 26879, Note_on_c, 0, 77, 69
2, 26879, Note_on_c, 0, 80, 81
2, 26880, Control_c, 0, 64, 0
2, 26889, Note_off_c, 0, 68, 59
2, 26900, Control_c, 0, 64, 127
2, 26919, Note_on_c, 0, 73, 65
2, 26928, Note_off_c, 0, 77, 59
2, 26960, Note_on_c, 0, 68, 58
2, 26970, Note_off_c, 0, 73, 59
2, 26988, Note_off_c, 0, 80, 60
2, 26999, Note_off_c, 0, 68, 58
2, 27001, Note_on_c, 0, 77, 78
2, 27040, Note_on_c, 0, 73, 66
2, 27081, Note_on_c, 0, 68, 55
2, 27090, Note_off_c, 0, 73, 58
2, 27112, Note_off_c, 0, 77, 60
2, 27119, Note_on_c, 0, 77, 73
2, 27120, Control_c, 0, 64, 0
2, 27130, Note_off_c, 0, 68, 57
2, 27140, Control_c, 0, 64, 127
2, 27159, Note_on_c, 0, 73, 65
2, 27168, Note_off_c, 0, 77, 57
2, 27200, Note_on_c, 0, 68, 60
2, 27210, Note_off_c, 0, 73, 57
2, 27239, Note_on_c, 0, 73, 72
2, 27250, Note_off_c, 0, 68, 58
2, 27281, Note_on_c, 0, 68, 65
2, 27290, Note_off_c, 0, 73, 59
2, 27319, Note_on_c, 0, 65, 63
2, 27330, Note_off_c, 0, 68, 57
2, 27359, Note_off_c, 0, 65, 59
2, 27360, Note_on_c, 0, 68, 77
2, 27361, Note_on_c, 0, 61, 73
2, 27399, Note_on_c, 0, 56, 69
2, 27409, Note_off_c, 0, 68, 58
2, 27410, Note_off_c, 0, 61, 58
2, 27441, Note_on_c, 0, 61, 64
2, 27448, Note_off_c, 0, 56, 59
2, 27479, Note_on_c, 0, 65, 77
2, 27479, Note_on_c, 0, 73, 78
2, 27490, Note_off_c, 0, 61, 59
2, 27520, Note_on_c, 0, 61, 75
2, 27528, Note_off_c, 0, 65, 59
2, 27529, Note_off_c, 0, 73, 58
2, 27561, Note_on_c, 0, 65, 69
2, 27571, Note_off_c, 0, 61, 59
2, 27601, Note_on_c, 0, 73, 82
2, 27612, Note_off_c, 0, 65, 58
2, 27641, Note_on_c, 0, 68, 78
2, 27652, Note_off_c, 0, 73, 57
2, 27679, Note_on_c, 0, 65, 75
2, 27691, Note_off_c, 0, 68, 57
2, 27719, Note_off_c, 0, 65, 59
2, 27719, Note_on_c, 0, 77, 86
2, 27759, Note_on_c, 0, 73, 81
2, 27768, Note_off_c, 0, 77, 59
2, 27801, Note_on_c, 0, 68, 75
2, 27810, Note_off_c, 0, 73, 59
2, 27841, Note_on_c, 0, 80, 89
2, 27852, Note_off_c, 0, 68, 59
2, 27881, Note_on_c, 0, 77, 86
2, 27891, Note_off_c, 0, 80, 59
2, 27920, Note_on_c, 0, 73, 79
2, 27932, Note_off_c, 0, 77, 58
2, 27959, Note_on_c, 0, 77, 93
2, 27971, Note_off_c, 0, 73, 59
2, 28001, Note_on_c, 0, 73, 90
2, 28010, Note_off_c, 0, 77, 57
2, 28039, Note_on_c, 0, 77, 79
2, 28052, Note_off_c, 0, 73, 57
2, 28070, Note_off_c, 0, 77, 58
2, 28079, Note_on_c, 0, 77, 94
2, 28080, Control_c, 0, 64, 0
2, 28100, Control_c, 0, 64, 127
2, 28121, Note_on_c, 0, 73, 88
2, 28129, Note_off_c, 0, 77, 59
2, 28161, Note_on_c, 0, 65, 80
2, 28170, Note_off_c, 0, 73, 59
2, 28199, Note_on_c, 0, 73, 87
2, 28200, Control_c, 0, 64, 0
2, 28211, Note_off_c, 0, 65, 58
2, 28230, Control_c, 0, 64, 127
2, 28241, Note_on_c, 0, 70, 79
2, 28248, Note_off_c, 0, 73, 57
2, 28279, Note_on_c, 0, 65, 73
2, 28292, Note_off_c, 0, 70, 59
2, 28321, Note_on_c, 0, 73, 81
2, 28329, Note_off_c, 0, 65, 57
2, 28359, Note_on_c, 0, 70, 75
2, 28370, Note_off_c, 0, 73, 58
2, 28399, Note_on_c, 0, 65, 68
2, 28409, Note_off_c, 0, 70, 57
2, 28439, Note_off_c, 0, 65, 58
2, 28440, Note_on_c, 0, 70, 72
2, 28479, Note_on_c, 0, 65, 68
2, 28491, Note_off_c, 0, 70, 59
2, 28519, Note_on_c, 0, 61, 66
2, 28528, Note_off_c, 0, 65, 58
2, 28559, Note_on_c, 0, 65, 69
2, 28560, Control_c, 0, 64, 0
2, 28570, Note_off_c, 0, 61, 58
2, 28580, Control_c, 0, 64, 127
2, 28601, Note_on_c, 0, 61, 64
2, 28609, Note_off_c, 0, 65, 58
2, 28641, Note_on_c, 0, 58, 58
2, 28652, Note_off_c, 0, 61, 57
2, 28679, Note_on_c, 0, 65, 65
2, 28691, Note_off_c, 0, 58, 59
2, 28721, Note_on_c, 0, 61, 64
2, 28728, Note_off_c, 0, 65, 57
2, 28760, Note_on_c, 0, 58, 58
2, 28771, Note_off_c, 0, 61, 59
2, 28799, Note_off_c, 0, 58, 57
2, 28799, Note_on_c, 0, 61, 60
2, 28800, Note_on_c, 0, 70, 65
2, 28840, Note_on_c, 0, 58, 59
2, 28850, Note_off_c, 0, 70, 59
2, 28850, Note_off_c, 0, 61, 57
2, 28881, Note_on_c, 0, 61, 57
2, 28891, Note_off_c, 0, 58, 59
2, 28920, Note_on_c, 0, 73, 62
2, 28920, Control_c, 0, 64, 0
2, 28932, Note_off_c, 0, 61, 57
2, 28940, Control_c, 0, 64, 127
2, 28959, Note_on_c, 0, 70, 58
2, 28970, Note_off_c, 0, 73, 59
2, 28999, Note_on_c, 0, 65, 55
2, 29008, Note_off_c, 0, 70, 57
2, 29041, Note_on_c, 0, 73, 61
2, 29049, Note_off_c, 0, 65, 57
2, 29079, Note_on_c, 0, 70, 57
2, 29091, Note_off_c, 0, 73, 59
2, 29120, Note_on_c, 0, 65, 52
2, 29130, Note_off_c, 0, 70, 59
2, 29159, Note_off_c, 0, 65, 59
2, 29161, Note_on_c, 0, 77, 59
2, 29201, Note_on_c, 0, 73, 57
2, 29212, Note_off_c, 0, 77, 59
2, 29241, Note_on_c, 0, 65, 50
2, 29250, Note_off_c, 0, 73, 58
2, 29279, Note_on_c, 0, 70, 57
2, 29292, Note_off_c, 0, 65, 58
2, 29390, Note_off_c, 0, 70, 61
2, 29610, Control_c, 0, 64, 0
2, 29640, Note_on_c, 0, 70, 55
2, 29691, Note_off_c, 0, 70, 59
2, 29759, Note_on_c, 0, 73, 58
2, 29809, Note_off_c, 0, 73, 59
2, 29879, Note_on_c, 0, 72, 57
2, 29929, Note_off_c, 0, 72, 58
2, 30001, Note_on_c, 0, 65, 57
2, 30052, Note_off_c, 0, 65, 58
2, 30119, Note_on_c, 0, 77, 65
2, 30170, Note_off_c, 0, 77, 57
2, 30240, Note_on_c, 0, 75, 58
2, 30291, Note_off_c, 0, 75, 57
2, 30360, Note_on_c, 0, 73, 56
2, 30411, Note_off_c, 0, 73, 59
2, 30481, Note_on_c, 0, 72, 53
2, 30531, Note_off_c, 0, 72, 58
2, 30600, Note_on_c, 0, 70, 53
2, 30650, Note_off_c, 0, 70, 59
2, 30721, Note_on_c, 0, 73, 60
2, 30770, Note_off_c, 0, 73, 58
2, 30841, Note_on_c, 0, 72, 56
2, 30892, Note_off_c, 0, 72, 57
2, 30961, Note_on_c, 0, 68, 55
2, 31010, Note_off_c, 0, 68, 59
2, 31080, Note_on_c, 0, 72, 63
2, 31130, Note_off_c, 0, 72, 57
2, 31200, Note_on_c, 0, 67, 55
2, 31251, Note_off_c, 0, 67, 58
2, 31320, Control_c, 0, 64, 0
2, 31321, Note_on_c, 0, 65, 51
2, 31360, Control_c, 0, 64, 127
2, 31546, Note_off_c, 0, 65, 65
2, 31560, Control_c, 0, 64, 0
2, 31619, Note_on_c, 0, 72, 65
2, 31620, Note_on_c, 0, 68, 64
2, 31621, Note_on_c, 0, 65, 60
2, 31668, Note_off_c, 0, 72, 57
2, 31670, Note_off_c, 0, 65, 57
2, 31670, Note_off_c, 0, 68, 59
2, 31739, Note_on_c, 0, 72, 69
2, 31740, Note_on_c, 0, 65, 66
2, 31741, Note_on_c, 0, 68, 66
2, 31789, Note_off_c, 0, 72, 57
2, 31790, Note_off_c, 0, 65, 57
2, 31792, Note_off_c, 0, 68, 58
2, 31859, Note_on_c, 0, 64, 69
2, 31860, Note_on_c, 0, 72, 72
2, 31861, Note_on_c, 0, 70, 72
2, 31910, Note_off_c, 0, 64, 57
2, 31911, Note_off_c, 0, 70, 58
2, 31911, Note_off_c, 0, 72, 59
2, 31980, Note_on_c, 0, 64, 70
2, 31981, Note_on_c, 0, 67, 71
2, 31981, Note_on_c, 0, 70, 72
2, 31981, Note_on_c, 0, 72, 73
2, 32030, Note_off_c, 0, 67, 57
2, 32030, Note_off_c, 0, 64, 59
2, 32031, Note_off_c, 0, 72, 59
2, 32031, Note_off_c, 0, 70, 58
2, 32099, Note_on_c, 0, 67, 74
2, 32100, Note_on_c, 0, 64, 69
2, 32101, Note_on_c, 0, 72, 77
2, 32148, Note_off_c, 0, 67, 57
2, 32149, Note_off_c, 0, 64, 59
2, 32152, Note_off_c, 0, 72, 57
2, 32220, Note_on_c, 0, 64, 74
2, 32221, Note_on_c, 0, 67, 75
2, 32221, Note_on_c, 0, 72, 76
2, 32271, Note_off_c, 0, 64, 57
2, 32272, Note_off_c, 0, 72, 57
2, 32272, Note_off_c, 0, 67, 57
2, 32339, Note_on_c, 0, 72, 79
2, 32340, Note_on_c, 0, 65, 75
2, 32340, Note_on_c, 0, 68, 78
2, 32389, Note_off_c, 0, 65, 58
2, 32389, Note_off_c, 0, 72, 58
2, 32391, Note_off_c, 0, 68, 59
2, 32460, Note_on_c, 0, 64, 78
2, 32461, Note_on_c, 0, 70, 79
2, 32461, Note_on_c, 0, 72, 81
2, 32510, Note_off_c, 0, 64, 57
2, 32511, Note_off_c, 0, 72, 58
2, 32511, Note_off_c, 0, 70, 57
2, 32579, Note_on_c, 0, 65, 79
2, 32581, Note_on_c, 0, 68, 79
2, 32581, Note_on_c, 0, 72, 82
2, 32629, Note_off_c, 0, 65, 57
2, 32631, Note_off_c, 0, 68, 57
2, 32632, Note_off_c, 0, 72, 57
2, 32700, Note_on_c, 0, 65, 78
2, 32700, Note_on_c, 0, 77, 83
2, 32701, Note_on_c, 0, 68, 80
2, 32701, Note_on_c, 0, 72, 82
2, 32749, Note_off_c, 0, 77, 57
2, 32750, Note_off_c, 0, 68, 57
2, 32750, Note_off_c, 0, 65, 57
2, 32751, Note_off_c, 0, 72, 59
2, 32819, Note_on_c, 0, 65, 81
2, 32819, Note_on_c, 0, 70, 83
2, 32820, Note_on_c, 0, 72, 86
2, 32820, Note_on_c, 0, 77, 86
2, 32869, Note_off_c, 0, 77, 58
2, 32869, Note_off_c, 0, 70, 59
2, 32870, Note_off_c, 0, 72, 58
2, 32870, Note_off_c, 0, 65, 59
2, 32939, Note_on_c, 0, 64, 79
2, 32939, Note_on_c, 0, 70, 82
2, 32940, Note_on_c, 0, 72, 85
2, 32941, Note_on_c, 0, 76, 86
2, 32988, Note_off_c, 0, 64, 59
2, 32990, Note_off_c, 0, 76, 57
2, 32990, Note_off_c, 0, 72, 59
2, 32990, Note_off_c, 0, 70, 58
2, 33060, Note_on_c, 0, 65, 83
2, 33060, Note_on_c, 0, 77, 87
2, 33061, Note_on_c, 0, 72, 85
2, 33110, Note_off_c, 0, 65, 58
2, 33111, Note_off_c, 0, 77, 57
2, 33112, Note_off_c, 0, 72, 59
2, 33180, Note_on_c, 0, 72, 90
2, 33181, Note_on_c, 0, 65, 90
2, 33181, Note_on_c, 0, 75, 91
2, 33230, Note_off_c, 0, 72, 59
2, 33231, Note_off_c, 0, 75, 57
2, 33231, Note_off_c, 0, 65, 58
2, 33299, Note_on_c, 0, 73, 91
2, 33300, Note_on_c, 0, 70, 91
2, 33301, Note_on_c, 0, 65, 89
2, 33349, Note_off_c, 0, 73, 59
2, 33350, Note_off_c, 0, 70, 58
2, 33352, Note_off_c, 0, 65, 58
2, 33419, Note_on_c, 0, 63, 93
2, 33420, Note_on_c, 0, 72, 95
2, 33421, Note_on_c, 0, 69, 94
2, 33468, Note_off_c, 0, 63, 57
2, 33469, Note_off_c, 0, 72, 58
2, 33472, Note_off_c, 0, 69, 57
2, 33479, Note_on_c, 0, 77, 101
2, 33480, Control_c, 0, 64, 0
2, 33480, Note_on_c, 0, 70, 100
2, 33480, Note_on_c, 0, 82, 101
2, 33520, Control_c, 0, 64, 127
2, 33529, Note_off_c, 0, 70, 59
2, 33530, Note_off_c, 0, 82, 57
2, 33530, Note_off_c, 0, 77, 58
2, 33560, Control_c, 0, 64, 0
2, 33599, Note_on_c, 0, 73, 102
2, 33600, Note_on_c, 0, 85, 106
2, 33600, Control_c, 0, 64, 0
2, 33601, Note_on_c, 0, 77, 100
2, 33601, Note_on_c, 0, 82, 102
2, 33640, Control_c, 0, 64, 127
2, 33648, Note_off_c, 0, 73, 57
2, 33649, Note_off_c, 0, 85, 58
2, 33650, Note_off_c, 0, 77, 59
2, 33652, Note_off_c, 0, 82, 58
2, 33680, Control_c, 0, 64, 0
2, 33719, Note_on_c, 0, 72, 97
2, 33720, Note_on_c, 0, 84, 102
2, 33720, Control_c, 0, 64, 0
2, 33721, Note_on_c, 0, 77, 100
2, 33721, Note_on_c, 0, 81, 102
2, 33760, Control_c, 0, 64, 127
2, 33768, Note_off_c, 0, 72, 58
2, 33771, Note_off_c, 0, 81, 58
2, 33771, Note_off_c, 0, 84, 57
2, 33772, Note_off_c, 0, 77, 59
2, 33800, Control_c, 0, 64, 0
2, 33840, Note_on_c, 0, 65, 89
2, 33840, Control_c, 0, 64, 0
2, 33840, Note_on_c, 0, 77, 99
2, 33841, Note_on_c, 0, 69, 94
2, 33841, Note_on_c, 0, 72, 97
2, 33880, Control_c, 0, 64, 127
2, 33889, Note_off_c, 0, 65, 59
2, 33890, Note_off_c, 0, 77, 57
2, 33891, Note_off_c, 0, 72, 59
2, 33892, Note_off_c, 0, 69, 58
2, 33920, Control_c, 0, 64, 0
2, 33960, Note_on_c, 0, 77, 103
2, 33960, Control_c, 0, 64, 0
2, 33960, Note_on_c, 0, 89, 105
2, 33961, Note_on_c, 0, 82, 104
2, 34000, Control_c, 0, 64, 127
2, 34009, Note_off_c, 0, 77, 57
2, 34011, Note_off_c, 0, 82, 58
2, 34011, Note_off_c, 0, 89, 58
2, 34040, Control_c, 0, 64, 0
2, 34079, Note_on_c, 0, 81, 98
2, 34079, Note_on_c, 0, 87, 101
2, 34080, Note_on_c, 0, 77, 99
2, 34080, Control_c, 0, 64, 0
2, 34081, Note_on_c, 0, 75, 98
2, 34120, Control_c, 0, 64, 127
2, 34129, Note_off_c, 0, 77, 59
2, 34129, Note_off_c, 0, 81, 57
2, 34130, Note_off_c, 0, 87, 57
2, 34131, Note_off_c, 0, 75, 58
2, 34160, Control_c, 0, 64, 0
2, 34199, Note_on_c, 0, 77, 95
2, 34200, Control_c, 0, 64, 0
2, 34200, Note_on_c, 0, 85, 96
2, 34201, Note_on_c, 0, 73, 92
2, 34201, Note_on_c, 0, 82, 96
2, 34240, Control_c, 0, 64, 127
2, 34248, Note_off_c, 0, 77, 59
2, 34250, Note_off_c, 0, 82, 57
2, 34251, Note_off_c, 0, 85, 58
2, 34252, Note_off_c, 0, 73, 59
2, 34280, Control_c, 0, 64, 0
2, 34319, Note_on_c, 0, 77, 96
2, 34320, Note_on_c, 0, 72, 95
2, 34320, Control_c, 0, 64, 0
2, 34321, Note_on_c, 0, 84, 100
2, 34360, Control_c, 0, 64, 127
2, 34369, Note_off_c, 0, 77, 59
2, 34370, Note_off_c, 0, 84, 59
2, 34371, Note_off_c, 0, 72, 59
2, 34400, Control_c, 0, 64, 0
2, 34439, Note_on_c, 0, 77, 99
2, 34440, Note_on_c, 0, 73, 96
2, 34440, Control_c, 0, 64, 0
2, 34441, Note_on_c, 0, 70, 94
2, 34441, Note_on_c, 0, 82, 101
2, 34480, Control_c, 0, 64, 127
2, 34489, Note_off_c, 0, 73, 59
2, 34490, Note_off_c, 0, 82, 59
2, 34490, Note_off_c, 0, 77, 59
2, 34491, Note_off_c, 0, 70, 59
2, 34520, Control_c, 0, 64, 0
2, 34560, Note_on_c, 0, 73, 98
2, 34560, Control_c, 0, 64, 0
2, 34560, Note_on_c, 0, 82, 101
2, 34561, Note_on_c, 0, 77, 99
2, 34561, Note_on_c, 0, 85, 104
2, 34600, Control_c, 0, 64, 127
2, 34609, Note_off_c, 0, 73, 59
2, 34610, Note_off_c, 0, 77, 57
2, 34611, Note_off_c, 0, 85, 58
2, 34611, Note_off_c, 0, 82, 57
2, 34640, Control_c, 0, 64, 0
2, 34680, Note_on_c, 0, 72, 97
2, 34680, Control_c, 0, 64, 0
2, 34680, Note_on_c, 0, 77, 100
2, 34681, Note_on_c, 0, 84, 102
2, 34720, Control_c, 0, 64, 127
2, 34731, Note_off_c, 0, 84, 57
2, 34731, Note_off_c, 0, 77, 59
2, 34731, Note_off_c, 0, 72, 57
2, 34760, Control_c, 0, 64, 0
2, 34799, Note_on_c, 0, 77, 96
2, 34800, Note_on_c, 0, 65, 93
2, 34800, Control_c, 0, 64, 0
2, 34800, Note_on_c, 0, 69, 94
2, 34801, Note_on_c, 0, 72, 96
2, 34840, Control_c, 0, 64, 127
2, 34849, Note_off_c, 0, 77, 57
2, 34850, Note_off_c, 0, 69, 57
2, 34851, Note_off_c, 0, 72, 58
2, 34851, Note_off_c, 0, 65, 59
2, 34880, Control_c, 0, 64, 0
2, 34919, Note_on_c, 0, 77, 104
2, 34920, Control_c, 0, 64, 0
2, 34921, Note_on_c, 0, 89, 105
2, 34960, Control_c, 0, 64, 127
2, 34970, Note_off_c, 0, 89, 57
2, 34970, Note_off_c, 0, 77, 57
2, 35000, Control_c, 0, 64, 0
2, 35039, Note_on_c, 0, 82, 94
2, 35039, Note_on_c, 0, 85, 102
2, 35040, Control_c, 0, 64, 0
2, 35041, Note_on_c, 0, 73, 100
2, 35080, Control_c, 0, 64, 127
2, 35089, Note_off_c, 0, 85, 59
2, 35090, Note_off_c, 0, 82, 58
2, 35091, Note_off_c, 0, 73, 57
2, 35120, Control_c, 0, 64, 0
2, 35159, Note_on_c, 0, 84, 105
2, 35160, Note_on_c, 0, 72, 103
2, 35160, Note_on_c, 0, 81, 106
2, 35160, Control_c, 0, 64, 0
2, 35210, Control_c, 0, 64, 127
2, 35384, Note_off_c, 0, 84, 63
2, 35384, Note_off_c, 0, 81, 64
2, 35384, Note_off_c, 0, 72, 63
2, 35399, Note_on_c, 0, 77, 109
2, 35400, Control_c, 0, 64, 0
2, 35401, Note_on_c, 0, 89, 111
2, 35440, Control_c, 0, 64, 127
2, 35450, Note_off_c, 0, 77, 59
2, 35452, Note_off_c, 0, 89, 59
2, 35480, Control_c, 0, 64, 0
2, 35519, Note_on_c, 0, 82, 104
2, 35520, Control_c, 0, 64, 0
2, 35521, Note_on_c, 0, 85, 106
2, 35560, Control_c, 0, 64, 127
2, 35568, Note_off_c, 0, 82, 58
2, 35572, Note_off_c, 0, 85, 59
2, 35600, Control_c, 0, 64, 0
2, 35639, Note_on_c, 0, 84, 107
2, 35640, Control_c, 0, 64, 0
2, 35640, Note_on_c, 0, 81, 106
2, 35690, Control_c, 0, 64, 127
2, 35864, Note_off_c, 0, 81, 65
2, 35864, Note_off_c, 0, 84, 63
2, 35879, Note_on_c, 0, 69, 103
2, 35879, Note_on_c, 0, 72, 104
2, 36104, Note_off_c, 0, 72, 64
2, 36104, Note_off_c, 0, 69, 63
2, 36119, Note_on_c, 0, 57, 104
2, 36120, Note_on_c, 0, 60, 108
2, 36345, Note_off_c, 0, 57, 65
2, 36346, Note_off_c, 0, 60, 63
2, 36359, Note_on_c, 0, 48, 111
2, 36359, Note_on_c, 0, 45, 108
2, 36584, Note_off_c, 0, 45, 64
2, 36585, Note_off_c, 0, 48, 65
2, 36600, Note_on_c, 0, 36, 114
2, 36601, Note_on_c, 0, 33, 110
2, 37290, Note_off_c, 0, 36, 65
2, 37292, Note_off_c, 0, 33, 63
2, 37300, Control_c, 0, 64, 0
2, 37320, Control_c, 0, 64, 0
2, 37340, Control_c, 0, 64, 127
2, 37430, Control_c, 0, 64, 0
2, 37530, Note_on_c, 0, 41, 86
2, 37530, Control_c, 0, 64, 0
2, 37550, Control_c, 0, 64, 127
2, 37559, Note_on_c, 0, 43, 85
2, 37574, Note_off_c, 0, 41, 58
2, 37591, Note_on_c, 0, 45, 87
2, 37605, Note_off_c, 0, 43, 57
2, 37619, Note_on_c, 0, 46, 86
2, 37637, Note_off_c, 0, 45, 57
2, 37640, Control_c, 0, 64, 0
2, 37650, Note_on_c, 0, 48, 89
2, 37664, Note_off_c, 0, 46, 57
2, 37680, Note_on_c, 0, 50, 88
2, 37696, Note_off_c, 0, 48, 59
2, 37709, Note_on_c, 0, 52, 91
2, 37725, Note_off_c, 0, 50, 57
2, 37740, Control_c, 0, 64, 0
2, 37754, Note_off_c, 0, 52, 59
2, 37760, Control_c, 0, 64, 0
2, 37850, Control_c, 0, 64, 0
2, 37950, Control_c, 0, 64, 0
2, 37951, Note_on_c, 0, 65, 98
2, 37970, Control_c, 0, 64, 0
2, 37981, Note_on_c, 0, 67, 97
2, 37996, Note_off_c, 0, 65, 58
2, 38011, Note_on_c, 0, 69, 96
2, 38027, Note_off_c, 0, 67, 57
2, 38041, Note_on_c, 0, 70, 99
2, 38055, Note_off_c, 0, 69, 57
2, 38060, Control_c, 0, 64, 0
2, 38069, Note_on_c, 0, 72, 96
2, 38085, Note_off_c, 0, 70, 58
2, 38101, Note_on_c, 0, 74, 98
2, 38115, Note_off_c, 0, 72, 59
2, 38130, Note_on_c, 0, 76, 98
2, 38147, Note_off_c, 0, 74, 57
2, 38159, Note_off_c, 0, 76, 58
2, 38160, Control_c, 0, 64, 0
2, 38180, Control_c, 0, 64, 0
2, 38270, Control_c, 0, 64, 0
2, 38369, Note_on_c, 0, 89, 95
2, 38370, Control_c, 0, 64, 0
2, 38390, Control_c, 0, 64, 127
2, 38401, Note_on_c, 0, 91, 98
2, 38414, Note_off_c, 0, 89, 57
2, 38431, Note_on_c, 0, 93, 101
2, 38446, Note_off_c, 0, 91, 57
2, 38461, Note_on_c, 0, 94, 101
2, 38477, Note_off_c, 0, 93, 57
2, 38480, Control_c, 0, 64, 127
2, 38491, Note_on_c, 0, 96, 104
2, 38506, Note_off_c, 0, 94, 58
2, 38521, Note_on_c, 0, 98, 107
2, 38522, Note_off_c, 0, 96, 58
2, 38549, Note_on_c, 0, 100, 110
2, 38566, Note_off_c, 0, 98, 58
2, 38580, Control_c, 0, 64, 0
2, 38581, Note_on_c, 0, 101, 113
2, 38594, Note_off_c, 0, 100, 57
2, 38600, Control_c, 0, 64, 0
2, 38626, Note_off_c, 0, 101, 59
2, 38731, Note_on_c, 0, 75, 93
2, 38731, Note_on_c, 0, 78, 94
2, 38750, Control_c, 0, 64, 127
2, 38760, Note_on_c, 0, 69, 86
2, 38776, Note_off_c, 0, 78, 59
2, 38776, Note_off_c, 0, 75, 59
2, 38789, Note_on_c, 0, 78, 90
2, 38791, Note_on_c, 0, 75, 86
2, 38806, Note_off_c, 0, 69, 58
2, 38820, Note_on_c, 0, 69, 81
2, 38834, Note_off_c, 0, 78, 58
2, 38837, Note_off_c, 0, 75, 59
2, 38850, Note_on_c, 0, 78, 88
2, 38851, Note_on_c, 0, 75, 85
2, 38866, Note_off_c, 0, 69, 58
2, 38880, Note_off_c, 0, 78, 59
2, 38881, Note_off_c, 0, 75, 58
2, 38881, Note_on_c, 0, 69, 79
2, 38910, Note_on_c, 0, 78, 88
2, 38911, Note_on_c, 0, 75, 84
2, 38927, Note_off_c, 0, 69, 58
2, 38941, Note_on_c, 0, 69, 81
2, 38955, Note_off_c, 0, 75, 58
2, 38955, Note_off_c, 0, 78, 59
2, 38971, Note_on_c, 0, 75, 86
2, 38971, Note_on_c, 0, 78, 90
2, 38985, Note_off_c, 0, 69, 59
2, 39000, Note_on_c, 0, 69, 79
2, 39016, Note_off_c, 0, 75, 58
2, 39017, Note_off_c, 0, 78, 57
2, 39029, Note_on_c, 0, 75, 90
2, 39030, Note_on_c, 0, 78, 94
2, 39046, Note_off_c, 0, 69, 57
2, 39059, Note_on_c, 0, 69, 84
2, 39074, Note_off_c, 0, 75, 57
2, 39075, Note_off_c, 0, 78, 59
2, 39090, Control_c, 0, 64, 0
2, 39095, Note_off_c, 0, 69, 57
2, 39451, Note_on_c, 0, 74, 61
2, 39530, Note_off_c, 0, 74, 60
2, 39539, Note_on_c, 0, 77, 67
2, 39540, Note_on_c, 0, 69, 64
2, 39565, Note_off_c, 0, 69, 57
2, 39565, Note_off_c, 0, 77, 59
2, 39570, Note_on_c, 0, 72, 69
2, 39571, Note_on_c, 0, 77, 74
2, 39600, Note_off_c, 0, 72, 58
2, 39602, Note_off_c, 0, 77, 59
2, 39690, Note_on_c, 0, 74, 65
2, 39691, Note_on_c, 0, 65, 60
2, 39720, Note_off_c, 0, 74, 57
2, 39721, Note_off_c, 0, 65, 58
2, 39809, Note_on_c, 0, 70, 62
2, 39888, Note_off_c, 0, 70, 62
2, 39899, Note_on_c, 0, 74, 67
2, 39900, Note_on_c, 0, 66, 65
2, 39924, Note_off_c, 0, 66, 58
2, 39924, Note_off_c, 0, 74, 57
2, 39929, Note_on_c, 0, 69, 68
2, 39931, Note_on_c, 0, 74, 70
2, 39959, Note_off_c, 0, 69, 59
2, 39961, Note_off_c, 0, 74, 59
2, 40049, Note_on_c, 0, 62, 63
2, 40051, Note_on_c, 0, 70, 64
2, 40078, Note_off_c, 0, 62, 57
2, 40081, Note_off_c, 0, 70, 59
2, 40170, Note_on_c, 0, 67, 62
2, 40250, Note_off_c, 0, 67, 62
2, 40259, Note_on_c, 0, 70, 70
2, 40260, Note_on_c, 0, 62, 67
2, 40285, Note_off_c, 0, 70, 57
2, 40286, Note_off_c, 0, 62, 59
2, 40289, Note_on_c, 0, 65, 68
2, 40291, Note_on_c, 0, 70, 72
2, 40319, Note_off_c, 0, 65, 58
2, 40321, Note_off_c, 0, 70, 58
2, 40410, Note_on_c, 0, 67, 66
2, 40411, Note_on_c, 0, 58, 64
2, 40441, Note_off_c, 0, 67, 58
2, 40442, Note_off_c, 0, 58, 59
2, 40529, Note_on_c, 0, 67, 63
2, 40530, Note_on_c, 0, 58, 61
2, 40608, Note_off_c, 0, 67, 60
2, 40611, Note_off_c, 0, 58, 62
2, 40619, Note_on_c, 0, 69, 69
2, 40620, Note_on_c, 0, 63, 67
2, 40645, Note_off_c, 0, 69, 58
2, 40646, Note_off_c, 0, 63, 58
2, 40651, Note_on_c, 0, 63, 71
2, 40651, Note_on_c, 0, 69, 71
2, 40680, Note_off_c, 0, 69, 57
2, 40682, Note_off_c, 0, 63, 59
2, 40769, Note_on_c, 0, 70, 66
2, 40771, Note_on_c, 0, 58, 63
2, 40800, Note_off_c, 0, 70, 58
2, 40802, Note_off_c, 0, 58, 59
2, 40890, Note_on_c, 0, 65, 62
2, 40890, Note_on_c, 0, 70, 66
2, 40969, Note_off_c, 0, 70, 62
2, 40981, Note_on_c, 0, 72, 73
2, 40999, Note_off_c, 0, 65, 62
2, 41005, Note_off_c, 0, 72, 57
2, 41009, Note_on_c, 0, 65, 74
2, 41010, Note_on_c, 0, 72, 74
2, 41040, Note_off_c, 0, 72, 57
2, 41130, Note_on_c, 0, 74, 68
2, 41131, Note_on_c, 0, 70, 64
2, 41159, Note_off_c, 0, 74, 57
2, 41159, Note_off_c, 0, 65, 65
2, 41160, Note_off_c, 0, 70, 58
2, 41249, Note_on_c, 0, 70, 79
2, 41249, Note_on_c, 0, 74, 81
2, 41330, Note_off_c, 0, 74, 62
2, 41340, Note_on_c, 0, 75, 85
2, 41360, Note_off_c, 0, 70, 61
2, 41365, Note_off_c, 0, 75, 58
2, 41369, Note_on_c, 0, 70, 88
2, 41369, Note_on_c, 0, 75, 91
2, 41370, Note_on_c, 0, 63, 86
2, 41400, Note_off_c, 0, 63, 57
2, 41400, Note_off_c, 0, 75, 58
2, 41400, Note_off_c, 0, 70, 58
2, 41489, Note_on_c, 0, 65, 96
2, 41489, Note_on_c, 0, 70, 98
2, 41491, Note_on_c, 0, 73, 99
2, 41491, Note_on_c, 0, 77, 102
2, 41518, Note_off_c, 0, 65, 57
2, 41520, Note_off_c, 0, 70, 58
2, 41521, Note_off_c, 0, 77, 58
2, 41521, Note_off_c, 0, 73, 58
2, 41609, Note_on_c, 0, 79, 105
2, 41610, Note_on_c, 0, 70, 105
2, 41610, Control_c, 0, 64, 0
2, 41611, Note_on_c, 0, 67, 100
2, 41611, Note_on_c, 0, 72, 104
2, 41630, Control_c, 0, 64, 127
2, 41658, Note_off_c, 0, 79, 57
2, 41660, Note_off_c, 0, 72, 57
2, 41660, Note_off_c, 0, 70, 58
2, 41662, Note_off_c, 0, 67, 58
2, 41670, Control_c, 0, 64, 0
2, 41729, Note_on_c, 0, 69, 106
2, 41730, Note_on_c, 0, 60, 105
2, 41730, Control_c, 0, 64, 0
2, 41731, Note_on_c, 0, 72, 107
2, 41750, Control_c, 0, 64, 127
2, 41759, Note_off_c, 0, 69, 57
2, 41761, Note_off_c, 0, 60, 59
2, 41762, Note_off_c, 0, 72, 58
2, 41790, Control_c, 0, 64, 0
2, 41971, Note_on_c, 0, 86, 63
2, 42051, Note_off_c, 0, 86, 62
2, 42061, Note_on_c, 0, 81, 68
2, 42061, Note_on_c, 0, 89, 70
2, 42085, Note_off_c, 0, 89, 57
2, 42085, Note_off_c, 0, 81, 59
2, 42090, Note_on_c, 0, 89, 75
2, 42120, Note_off_c, 0, 89, 59
2, 42151, Note_on_c, 0, 77, 56
2, 42211, Note_on_c, 0, 86, 63
2, 42260, Note_off_c, 0, 77, 60
2, 42262, Note_off_c, 0, 86, 57
2, 42330, Note_on_c, 0, 82, 69
2, 42410, Note_off_c, 0, 82, 60
2, 42419, Note_on_c, 0, 86, 71
2, 42421, Note_on_c, 0, 78, 71
2, 42445, Note_off_c, 0, 78, 58
2, 42445, Note_off_c, 0, 86, 59
2, 42449, Note_on_c, 0, 86, 78
2, 42479, Note_off_c, 0, 86, 57
2, 42509, Note_on_c, 0, 74, 60
2, 42571, Note_on_c, 0, 82, 64
2, 42619, Note_off_c, 0, 74, 60
2, 42622, Note_off_c, 0, 82, 59
2, 42689, Note_on_c, 0, 79, 64
2, 42769, Note_off_c, 0, 79, 60
2, 42779, Note_on_c, 0, 82, 72
2, 42781, Note_on_c, 0, 74, 70
2, 42804, Note_off_c, 0, 82, 58
2, 42806, Note_off_c, 0, 74, 59
2, 42809, Note_on_c, 0, 82, 77
2, 42839, Note_off_c, 0, 82, 59
2, 42869, Note_on_c, 0, 70, 59
2, 42931, Note_on_c, 0, 79, 67
2, 42980, Note_off_c, 0, 70, 62
2, 42981, Note_off_c, 0, 79, 59
2, 43050, Note_on_c, 0, 70, 61
2, 43051, Note_on_c, 0, 79, 63
2, 43131, Note_off_c, 0, 79, 60
2, 43131, Note_off_c, 0, 70, 60
2, 43140, Note_on_c, 0, 81, 70
2, 43141, Note_on_c, 0, 75, 67
2, 43164, Note_off_c, 0, 81, 59
2, 43166, Note_off_c, 0, 75, 57
2, 43169, Note_on_c, 0, 81, 76
2, 43199, Note_off_c, 0, 81, 58
2, 43231, Note_on_c, 0, 75, 62
2, 43282, Note_off_c, 0, 75, 58
2, 43290, Note_on_c, 0, 70, 65
2, 43290, Note_on_c, 0, 82, 67
2, 43339, Note_off_c, 0, 70, 59
2, 43340, Note_off_c, 0, 82, 58
2, 43410, Note_on_c, 0, 77, 81
2, 43411, Note_on_c, 0, 82, 83
2, 43491, Note_off_c, 0, 82, 61
2, 43500, Note_on_c, 0, 84, 89
2, 43521, Note_off_c, 0, 77, 62
2, 43524, Note_off_c, 0, 84, 58
2, 43530, Note_on_c, 0, 84, 98
2, 43559, Note_off_c, 0, 84, 58
2, 43591, Note_on_c, 0, 77, 80
2, 43650, Note_on_c, 0, 86, 90
2, 43701, Note_off_c, 0, 86, 57
2, 43701, Note_off_c, 0, 77, 62
2, 43770, Note_on_c, 0, 82, 99
2, 43770, Note_on_c, 0, 87, 101
2, 43850, Note_off_c, 0, 87, 60
2, 43861, Note_on_c, 0, 88, 104
2, 43880, Note_off_c, 0, 82, 61
2, 43885, Note_off_c, 0, 88, 57
2, 43891, Note_on_c, 0, 88, 109
2, 43920, Note_off_c, 0, 88, 59
2, 43949, Note_on_c, 0, 82, 101
2, 43999, Note_off_c, 0, 82, 58
2, 44009, Note_on_c, 0, 81, 110
2, 44009, Note_on_c, 0, 89, 111
2, 44058, Note_off_c, 0, 81, 59
2, 44060, Note_off_c, 0, 89, 57
2, 44129, Note_on_c, 0, 82, 107
2, 44130, Note_on_c, 0, 88, 109
2, 44130, Control_c, 0, 64, 0
2, 44131, Note_on_c, 0, 79, 108
2, 44131, Note_on_c, 0, 91, 109
2, 44150, Control_c, 0, 64, 127
2, 44179, Note_off_c, 0, 88, 57
2, 44180, Note_off_c, 0, 82, 59
2, 44182, Note_off_c, 0, 91, 57
2, 44182, Note_off_c, 0, 79, 58
2, 44190, Control_c, 0, 64, 0
2, 44249, Note_on_c, 0, 81, 114
2, 44249, Note_on_c, 0, 77, 112
2, 44250, Note_on_c, 0, 89, 115
2, 44250, Control_c, 0, 64, 0
2, 44270, Control_c, 0, 64, 127
2, 44278, Note_off_c, 0, 77, 57
2, 44279, Note_off_c, 0, 89, 58
2, 44280, Note_off_c, 0, 81, 58
2, 44350, Control_c, 0, 64, 0
2, 44490, Note_on_c, 0, 71, 62
2, 44490, Control_c, 0, 64, 0
2, 44490, Note_on_c, 0, 74, 62
2, 44510, Control_c, 0, 64, 127
2, 44569, Note_off_c, 0, 71, 61
2, 44571, Note_off_c, 0, 74, 60
2, 44580, Note_on_c, 0, 74, 55
2, 44581, Note_on_c, 0, 77, 58
2, 44605, Note_off_c, 0, 77, 57
2, 44605, Note_off_c, 0, 74, 57
2, 44609, Note_on_c, 0, 74, 61
2, 44610, Note_on_c, 0, 77, 64
2, 44610, Control_c, 0, 64, 0
2, 44630, Control_c, 0, 64, 127
2, 44639, Note_off_c, 0, 77, 58
2, 44640, Note_off_c, 0, 74, 59
2, 44730, Note_on_c, 0, 74, 58
2, 44730, Control_c, 0, 64, 0
2, 44731, Note_on_c, 0, 71, 58
2, 44780, Note_off_c, 0, 74, 58
2, 44781, Note_off_c, 0, 71, 57
2, 44850, Note_on_c, 0, 74, 62
2, 44850, Control_c, 0, 64, 0
2, 44851, Note_on_c, 0, 71, 60
2, 44870, Control_c, 0, 64, 127
2, 44931, Note_off_c, 0, 74, 60
2, 44932, Note_off_c, 0, 71, 62
2, 44939, Note_on_c, 0, 75, 52
2, 44940, Note_on_c, 0, 79, 56
2, 44965, Note_off_c, 0, 75, 57
2, 44966, Note_off_c, 0, 79, 57
2, 44970, Note_on_c, 0, 75, 57
2, 44970, Control_c, 0, 64, 0
2, 44971, Note_on_c, 0, 79, 62
2, 44990, Control_c, 0, 64, 127
2, 45001, Note_off_c, 0, 75, 59
2, 45002, Note_off_c, 0, 79, 57
2, 45089, Note_on_c, 0, 75, 57
2, 45090, Control_c, 0, 64, 0
2, 45091, Note_on_c, 0, 72, 54
2, 45140, Note_off_c, 0, 75, 57
2, 45141, Note_off_c, 0, 72, 58
2, 45210, Control_c, 0, 64, 0
2, 45211, Note_on_c, 0, 69, 61
2, 45211, Note_on_c, 0, 72, 63
2, 45230, Control_c, 0, 64, 127
2, 45291, Note_off_c, 0, 72, 61
2, 45291, Note_off_c, 0, 69, 61
2, 45300, Note_on_c, 0, 72, 56
2, 45300, Note_on_c, 0, 75, 58
2, 45325, Note_off_c, 0, 72, 57
2, 45326, Note_off_c, 0, 75, 58
2, 45330, Note_on_c, 0, 72, 57
2, 45330, Control_c, 0, 64, 0
2, 45331, Note_on_c, 0, 75, 61
2, 45350, Control_c, 0, 64, 127
2, 45359, Note_off_c, 0, 72, 58
2, 45361, Note_off_c, 0, 75, 59
2, 45389, Note_on_c, 0, 63, 49
2, 45449, Note_on_c, 0, 69, 52
2, 45450, Note_on_c, 0, 72, 55
2, 45450, Control_c, 0, 64, 0
2, 45499, Note_off_c, 0, 63, 62
2, 45500, Note_off_c, 0, 69, 57
2, 45501, Note_off_c, 0, 72, 59
2, 45569, Note_on_c, 0, 72, 61
2, 45570, Note_on_c, 0, 69, 59
2, 45570, Control_c, 0, 64, 0
2, 45590, Control_c, 0, 64, 127
2, 45649, Note_off_c, 0, 69, 61
2, 45649, Note_off_c, 0, 72, 60
2, 45659, Note_on_c, 0, 77, 56
2, 45660, Note_on_c, 0, 73, 53
2, 45683, Note_off_c, 0, 77, 59
2, 45685, Note_off_c, 0, 73, 59
2, 45690, Note_on_c, 0, 74, 65
2, 45690, Note_on_c, 0, 77, 65
2, 45690, Control_c, 0, 64, 0
2, 45710, Control_c, 0, 64, 127
2, 45720, Note_off_c, 0, 74, 58
2, 45721, Note_off_c, 0, 77, 57
2, 45751, Note_on_c, 0, 65, 50
2, 45810, Note_on_c, 0, 70, 56
2, 45810, Control_c, 0, 64, 0
2, 45810, Note_on_c, 0, 74, 56
2, 45859, Note_off_c, 0, 70, 58
2, 45861, Note_off_c, 0, 74, 58
2, 45861, Note_off_c, 0, 65, 62
2, 45929, Note_on_c, 0, 60, 57
2, 45930, Note_on_c, 0, 57, 52
2, 45930, Control_c, 0, 64, 0
2, 45950, Control_c, 0, 64, 127
2, 46009, Note_off_c, 0, 57, 61
2, 46010, Note_off_c, 0, 60, 60
2, 46019, Note_on_c, 0, 60, 57
2, 46020, Note_on_c, 0, 63, 57
2, 46044, Note_off_c, 0, 60, 59
2, 46045, Note_off_c, 0, 63, 58
2, 46050, Note_on_c, 0, 60, 58
2, 46050, Control_c, 0, 64, 0
2, 46051, Note_on_c, 0, 63, 60
2, 46080, Control_c, 0, 64, 127
2, 46170, Control_c, 0, 64, 0
2, 46200, Control_c, 0, 64, 127
2, 46275, Note_off_c, 0, 63, 63
2, 46276, Note_off_c, 0, 60, 63
2, 46289, Note_on_c, 0, 62, 56
2, 46290, Note_on_c, 0, 58, 54
2, 46290, Control_c, 0, 64, 0
2, 46320, Control_c, 0, 64, 127
2, 46399, Note_off_c, 0, 62, 61
2, 46400, Note_off_c, 0, 58, 61
2, 46409, Note_on_c, 0, 57, 57
2, 46410, Note_on_c, 0, 60, 56
2, 46410, Control_c, 0, 64, 0
2, 46438, Note_off_c, 0, 57, 59
2, 46439, Note_off_c, 0, 60, 58
2, 46450, Control_c, 0, 64, 127
2, 46530, Control_c, 0, 64, 0
2, 46531, Note_on_c, 0, 55, 54
2, 46531, Note_on_c, 0, 58, 57
2, 46570, Control_c, 0, 64, 127
2, 46641, Note_off_c, 0, 58, 60
2, 46641, Note_off_c, 0, 55, 62
2, 46650, Control_c, 0, 64, 0
2, 46651, Note_on_c, 0, 53, 51
2, 46651, Note_on_c, 0, 57, 52
2, 46690, Control_c, 0, 64, 127
2, 46770, Control_c, 0, 64, 0
2, 46810, Control_c, 0, 64, 127
2, 46880, Note_off_c, 0, 53, 65
2, 46882, Note_off_c, 0, 57, 64
2, 46890, Control_c, 0, 64, 0
2, 46891, Note_on_c, 0, 52, 50
2, 46891, Note_on_c, 0, 55, 51
2, 46930, Control_c, 0, 64, 127
2, 47000, Note_off_c, 0, 52, 61
2, 47001, Note_off_c, 0, 55, 60
2, 47009, Note_on_c, 0, 51, 51
2, 47010, Note_on_c, 0, 55, 52
2, 47010, Note_on_c, 0, 60, 53
2, 47010, Control_c, 0, 64, 0
2, 47050, Control_c, 0, 64, 127
2, 47130, Control_c, 0, 64, 0
2, 47170, Control_c, 0, 64, 127
2, 47238, Note_off_c, 0, 51, 64
2, 47241, Note_off_c, 0, 60, 63
2, 47250, Note_on_c, 0, 50, 49
2, 47250, Control_c, 0, 64, 0
2, 47250, Note_on_c, 0, 59, 50
2, 47290, Control_c, 0, 64, 127
2, 47355, Note_off_c, 0, 55, 64
2, 47360, Note_off_c, 0, 59, 60
2, 47361, Note_off_c, 0, 50, 62
2, 47440, Control_c, 0, 64, 0
2, 47730, Note_on_c, 0, 59, 50
2, 47809, Note_off_c, 0, 59, 62
2, 47819, Note_on_c, 0, 62, 52
2, 47844, Note_off_c, 0, 62, 59
2, 47851, Note_on_c, 0, 62, 53
2, 47881, Note_off_c, 0, 62, 58
2, 47971, Note_on_c, 0, 59, 45
2, 48020, Note_off_c, 0, 59, 57
2, 48089, Note_on_c, 0, 62, 53
2, 48091, Note_on_c, 0, 71, 57
2, 48172, Note_off_c, 0, 71, 60
2, 48181, Note_on_c, 0, 74, 62
2, 48205, Note_off_c, 0, 74, 58
2, 48209, Note_on_c, 0, 74, 66
2, 48240, Note_off_c, 0, 74, 57
2, 48259, Note_off_c, 0, 62, 64
2, 48270, Note_on_c, 0, 62, 56
2, 48330, Note_on_c, 0, 71, 69
2, 48356, Note_off_c, 0, 71, 58
2, 48379, Note_off_c, 0, 62, 60
2, 48449, Note_on_c, 0, 84, 59
2, 48450, Control_c, 0, 64, 0
2, 48470, Control_c, 0, 64, 127
2, 48528, Note_off_c, 0, 84, 62
2, 48539, Note_on_c, 0, 87, 66
2, 48563, Note_off_c, 0, 87, 57
2, 48569, Note_on_c, 0, 87, 65
2, 48598, Note_off_c, 0, 87, 58
2, 48690, Control_c, 0, 64, 0
2, 48691, Note_on_c, 0, 84, 56
2, 48741, Note_off_c, 0, 84, 57
2, 48810, Control_c, 0, 64, 0
2, 48811, Note_on_c, 0, 62, 62
2, 48811, Note_on_c, 0, 71, 62
2, 48830, Control_c, 0, 64, 127
2, 48890, Note_off_c, 0, 71, 61
2, 48891, Note_off_c, 0, 62, 61
2, 48899, Note_on_c, 0, 74, 67
2, 48901, Note_on_c, 0, 65, 66
2, 48925, Note_off_c, 0, 74, 57
2, 48927, Note_off_c, 0, 65, 59
2, 48930, Control_c, 0, 64, 0
2, 48931, Note_on_c, 0, 65, 70
2, 48931, Note_on_c, 0, 74, 74
2, 48950, Control_c, 0, 64, 127
2, 48961, Note_off_c, 0, 74, 57
2, 48961, Note_off_c, 0, 65, 57
2, 49049, Note_on_c, 0, 71, 67
2, 49050, Note_on_c, 0, 62, 66
2, 49050, Control_c, 0, 64, 0
2, 49099, Note_off_c, 0, 62, 58
2, 49099, Note_off_c, 0, 71, 59
2, 49169, Note_on_c, 0, 62, 80
2, 49170, Control_c, 0, 64, 0
2, 49171, Note_on_c, 0, 71, 84
2, 49190, Control_c, 0, 64, 127
2, 49249, Note_off_c, 0, 62, 61
2, 49252, Note_off_c, 0, 71, 61
2, 49259, Note_on_c, 0, 67, 86
2, 49260, Note_on_c, 0, 75, 88
2, 49283, Note_off_c, 0, 67, 59
2, 49286, Note_off_c, 0, 75, 57
2, 49289, Note_on_c, 0, 75, 95
2, 49289, Note_on_c, 0, 67, 93
2, 49290, Control_c, 0, 64, 0
2, 49310, Control_c, 0, 64, 127
2, 49318, Note_off_c, 0, 67, 59
2, 49318, Note_off_c, 0, 75, 59
2, 49409, Note_on_c, 0, 63, 89
2, 49409, Note_on_c, 0, 72, 89
2, 49410, Control_c, 0, 64, 0
2, 49458, Note_off_c, 0, 72, 59
2, 49460, Note_off_c, 0, 63, 58
2, 49530, Note_on_c, 0, 69, 100
2, 49530, Control_c, 0, 64, 0
2, 49530, Note_on_c, 0, 72, 103
2, 49550, Control_c, 0, 64, 127
2, 49610, Note_off_c, 0, 69, 61
2, 49611, Note_off_c, 0, 72, 60
2, 49620, Note_on_c, 0, 72, 103
2, 49621, Note_on_c, 0, 81, 108
2, 49646, Note_off_c, 0, 72, 57
2, 49647, Note_off_c, 0, 81, 58
2, 49650, Control_c, 0, 64, 0
2, 49651, Note_on_c, 0, 72, 105
2, 49651, Note_on_c, 0, 81, 106
2, 49670, Control_c, 0, 64, 127
2, 49680, Note_off_c, 0, 72, 57
2, 49681, Note_off_c, 0, 81, 57
2, 49770, Control_c, 0, 64, 0
2, 49771, Note_on_c, 0, 69, 103
2, 49771, Note_on_c, 0, 77, 106
2, 49820, Note_off_c, 0, 69, 57
2, 49822, Note_off_c, 0, 77, 57
2, 49890, Note_on_c, 0, 82, 112
2, 49890, Control_c, 0, 64, 0
2, 49891, Note_on_c, 0, 70, 110
2, 49910, Control_c, 0, 64, 127
2, 49939, Note_off_c, 0, 82, 59
2, 49941, Note_off_c, 0, 70, 57
2, 49950, Control_c, 0, 64, 0
2, 50010, Note_on_c, 0, 70, 113
2, 50010, Control_c, 0, 64, 0
2, 50011, Note_on_c, 0, 82, 115
2, 50030, Control_c, 0, 64, 127
2, 50039, Note_off_c, 0, 70, 58
2, 50040, Note_off_c, 0, 82, 58
2, 50090, Control_c, 0, 64, 0
2, 50249, Note_on_c, 0, 86, 60
2, 50250, Note_on_c, 0, 83, 57
2, 50250, Control_c, 0, 64, 0
2, 50270, Control_c, 0, 64, 127
2, 50329, Note_off_c, 0, 83, 60
2, 50330, Note_off_c, 0, 86, 60
2, 50339, Note_on_c, 0, 86, 50
2, 50339, Note_on_c, 0, 89, 56
2, 50363, Note_off_c, 0, 89, 58
2, 50363, Note_off_c, 0, 86, 57
2, 50370, Note_on_c, 0, 89, 62
2, 50370, Control_c, 0, 64, 0
2, 50371, Note_on_c, 0, 86, 62
2, 50390, Control_c, 0, 64, 127
2, 50400, Note_off_c, 0, 86, 58
2, 50401, Note_off_c, 0, 89, 58
2, 50490, Note_on_c, 0, 83, 53
2, 50490, Control_c, 0, 64, 0
2, 50491, Note_on_c, 0, 86, 57
2, 50540, Note_off_c, 0, 86, 59
2, 50540, Note_off_c, 0, 83, 58
2, 50610, Control_c, 0, 64, 0
2, 50611, Note_on_c, 0, 83, 61
2, 50611, Note_on_c, 0, 86, 63
2, 50630, Control_c, 0, 64, 127
2, 50690, Note_off_c, 0, 83, 61
2, 50692, Note_off_c, 0, 86, 62
2, 50699, Note_on_c, 0, 87, 59
2, 50699, Note_on_c, 0, 91, 60
2, 50723, Note_off_c, 0, 87, 57
2, 50725, Note_off_c, 0, 91, 57
2, 50729, Note_on_c, 0, 87, 64
2, 50730, Note_on_c, 0, 91, 67
2, 50730, Control_c, 0, 64, 0
2, 50750, Control_c, 0, 64, 127
2, 50759, Note_off_c, 0, 91, 57
2, 50759, Note_off_c, 0, 87, 58
2, 50849, Note_on_c, 0, 84, 61
2, 50849, Note_on_c, 0, 87, 61
2, 50850, Control_c, 0, 64, 0
2, 50898, Note_off_c, 0, 84, 59
2, 50900, Note_off_c, 0, 87, 59
2, 50969, Note_on_c, 0, 84, 62
2, 50970, Control_c, 0, 64, 0
2, 50971, Note_on_c, 0, 81, 58
2, 50990, Control_c, 0, 64, 127
2, 51048, Note_off_c, 0, 84, 61
2, 51051, Note_off_c, 0, 81, 61
2, 51059, Note_on_c, 0, 84, 53
2, 51061, Note_on_c, 0, 87, 58
2, 51085, Note_off_c, 0, 84, 58
2, 51086, Note_off_c, 0, 87, 58
2, 51090, Control_c, 0, 64, 0
2, 51091, Note_on_c, 0, 84, 66
2, 51091, Note_on_c, 0, 87, 65
2, 51110, Control_c, 0, 64, 127
2, 51121, Note_off_c, 0, 87, 58
2, 51121, Note_off_c, 0, 84, 57
2, 51149, Note_on_c, 0, 75, 52
2, 51210, Control_c, 0, 64, 0
2, 51211, Note_on_c, 0, 81, 59
2, 51211, Note_on_c, 0, 84, 59
2, 51258, Note_off_c, 0, 75, 62
2, 51260, Note_off_c, 0, 84, 59
2, 51261, Note_off_c, 0, 81, 58
2, 51329, Note_on_c, 0, 84, 62
2, 51330, Control_c, 0, 64, 0
2, 51331, Note_on_c, 0, 81, 59
2, 51350, Control_c, 0, 64, 127
2, 51409, Note_off_c, 0, 84, 61
2, 51410, Note_off_c, 0, 81, 60
2, 51420, Note_on_c, 0, 89, 59
2, 51421, Note_on_c, 0, 85, 52
2, 51446, Note_off_c, 0, 89, 57
2, 51447, Note_off_c, 0, 85, 59
2, 51449, Note_on_c, 0, 89, 65
2, 51449, Note_on_c, 0, 86, 63
2, 51450, Control_c, 0, 64, 0
2, 51470, Control_c, 0, 64, 127
2, 51478, Note_off_c, 0, 86, 58
2, 51479, Note_off_c, 0, 89, 59
2, 51511, Note_on_c, 0, 77, 50
2, 51569, Note_on_c, 0, 86, 57
2, 51570, Note_on_c, 0, 82, 55
2, 51570, Control_c, 0, 64, 0
2, 51620, Note_off_c, 0, 86, 58
2, 51621, Note_off_c, 0, 82, 59
2, 51621, Note_off_c, 0, 77, 62
2, 51690, Note_on_c, 0, 69, 58
2, 51690, Control_c, 0, 64, 0
2, 51691, Note_on_c, 0, 72, 59
2, 51710, Control_c, 0, 64, 127
2, 51769, Note_off_c, 0, 69, 61
2, 51772, Note_off_c, 0, 72, 61
2, 51779, Note_on_c, 0, 75, 54
2, 51780, Note_on_c, 0, 72, 51
2, 51803, Note_off_c, 0, 75, 57
2, 51806, Note_off_c, 0, 72, 59
2, 51809, Note_on_c, 0, 72, 57
2, 51810, Note_on_c, 0, 75, 59
2, 51810, Control_c, 0, 64, 0
2, 51850, Control_c, 0, 64, 127
2, 51930, Control_c, 0, 64, 0
2, 51970, Control_c, 0, 64, 127
2, 52033, Note_off_c, 0, 72, 63
2, 52035, Note_off_c, 0, 75, 63
2, 52050, Note_on_c, 0, 70, 55
2, 52050, Control_c, 0, 64, 0
2, 52051, Note_on_c, 0, 74, 56
2, 52090, Control_c, 0, 64, 127
2, 52159, Note_off_c, 0, 70, 62
2, 52162, Note_off_c, 0, 74, 62
2, 52169, Note_on_c, 0, 69, 53
2, 52170, Note_on_c, 0, 72, 56
2, 52170, Control_c, 0, 64, 0
2, 52199, Note_off_c, 0, 69, 59
2, 52201, Note_off_c, 0, 72, 59
2, 52210, Control_c, 0, 64, 127
2, 52290, Control_c, 0, 64, 0
2, 52291, Note_on_c, 0, 67, 52
2, 52291, Note_on_c, 0, 70, 53
2, 52330, Control_c, 0, 64, 127
2, 52401, Note_off_c, 0, 67, 61
2, 52402, Note_off_c, 0, 70, 62
2, 52409, Note_on_c, 0, 65, 49
2, 52409, Note_on_c, 0, 69, 50
2, 52410, Control_c, 0, 64, 0
2, 52450, Control_c, 0, 64, 127
2, 52530, Control_c, 0, 64, 0
2, 52570, Control_c, 0, 64, 127
2, 52639, Note_off_c, 0, 65, 64
2, 52640, Note_off_c, 0, 69, 64
2, 52650, Note_on_c, 0, 64, 48
2, 52650, Control_c, 0, 64, 0
2, 52650, Note_on_c, 0, 67, 51
2, 52690, Control_c, 0, 64, 127
2, 52760, Note_off_c, 0, 64, 62
2, 52761, Note_off_c, 0, 67, 60
2, 52769, Note_on_c, 0, 63, 51
2, 52769, Note_on_c, 0, 72, 53
2, 52770, Note_on_c, 0, 67, 53
2, 52770, Control_c, 0, 64, 0
2, 52790, Control_c, 0, 64, 127
2, 52890, Control_c, 0, 64, 0
2, 52930, Control_c, 0, 64, 127
2, 52998, Note_off_c, 0, 72, 63
2, 53000, Note_off_c, 0, 63, 64
2, 53010, Note_on_c, 0, 62, 47
2, 53010, Control_c, 0, 64, 0
2, 53010, Note_on_c, 0, 71, 48
2, 53050, Control_c, 0, 64, 127
2, 53111, Note_off_c, 0, 67, 64
2, 53119, Note_off_c, 0, 71, 61
2, 53120, Note_off_c, 0, 62, 62
2, 53170, Control_c, 0, 64, 0
2, 53489, Note_on_c, 0, 71, 44
2, 53568, Note_off_c, 0, 71, 60
2, 53579, Note_on_c, 0, 74, 48
2, 53603, Note_off_c, 0, 74, 57
2, 53610, Note_on_c, 0, 74, 49
2, 53640, Note_off_c, 0, 74, 58
2, 53731, Note_on_c, 0, 71, 42
2, 53761, Note_off_c, 0, 71, 57
2, 53849, Note_on_c, 0, 50, 52
2, 53851, Note_on_c, 0, 59, 52
2, 53930, Note_off_c, 0, 59, 62
2, 53941, Note_on_c, 0, 62, 58
2, 53965, Note_off_c, 0, 62, 57
2, 53970, Note_on_c, 0, 62, 62
2, 54000, Note_off_c, 0, 62, 59
2, 54020, Note_off_c, 0, 50, 63
2, 54030, Note_on_c, 0, 50, 47
2, 54090, Note_on_c, 0, 59, 54
2, 54141, Note_off_c, 0, 59, 57
2, 54141, Note_off_c, 0, 50, 60
2, 54209, Note_on_c, 0, 84, 56
2, 54210, Control_c, 0, 64, 0
2, 54250, Control_c, 0, 64, 127
2, 54288, Note_off_c, 0, 84, 62
2, 54301, Note_on_c, 0, 87, 60
2, 54325, Note_off_c, 0, 87, 58
2, 54330, Note_on_c, 0, 87, 61
2, 54359, Note_off_c, 0, 87, 58
2, 54449, Note_on_c, 0, 84, 55
2, 54450, Control_c, 0, 64, 0
2, 54478, Note_off_c, 0, 84, 57
2, 54570, Note_on_c, 0, 74, 56
2, 54570, Control_c, 0, 64, 0
2, 54570, Note_on_c, 0, 83, 59
2, 54590, Control_c, 0, 64, 127
2, 54650, Note_off_c, 0, 83, 62
2, 54651, Note_off_c, 0, 74, 61
2, 54660, Note_on_c, 0, 77, 60
2, 54661, Note_on_c, 0, 86, 64
2, 54685, Note_off_c, 0, 86, 59
2, 54686, Note_off_c, 0, 77, 58
2, 54690, Note_on_c, 0, 86, 69
2, 54690, Control_c, 0, 64, 0
2, 54691, Note_on_c, 0, 77, 64
2, 54710, Control_c, 0, 64, 127
2, 54720, Note_off_c, 0, 86, 59
2, 54722, Note_off_c, 0, 77, 57
2, 54809, Note_on_c, 0, 74, 59
2, 54810, Note_on_c, 0, 83, 59
2, 54810, Control_c, 0, 64, 0
2, 54859, Note_off_c, 0, 83, 59
2, 54859, Note_off_c, 0, 74, 59
2, 54930, Control_c, 0, 64, 0
2, 54931, Note_on_c, 0, 74, 74
2, 54931, Note_on_c, 0, 83, 76
2, 54950, Control_c, 0, 64, 127
2, 55010, Note_off_c, 0, 83, 60
2, 55010, Note_off_c, 0, 74, 60
2, 55019, Note_on_c, 0, 87, 82
2, 55021, Note_on_c, 0, 79, 78
2, 55045, Note_off_c, 0, 87, 57
2, 55047, Note_off_c, 0, 79, 59
2, 55050, Note_on_c, 0, 79, 88
2, 55050, Note_on_c, 0, 87, 90
2, 55050, Control_c, 0, 64, 0
2, 55070, Control_c, 0, 64, 127
2, 55080, Note_off_c, 0, 87, 58
2, 55080, Note_off_c, 0, 79, 59
2, 55170, Control_c, 0, 64, 0
2, 55171, Note_on_c, 0, 75, 92
2, 55171, Note_on_c, 0, 84, 92
2, 55220, Note_off_c, 0, 75, 58
2, 55221, Note_off_c, 0, 84, 59
2, 55289, Note_on_c, 0, 84, 95
2, 55290, Note_on_c, 0, 81, 94
2, 55290, Control_c, 0, 64, 0
2, 55310, Control_c, 0, 64, 127
2, 55368, Note_off_c, 0, 84, 60
2, 55370, Note_off_c, 0, 81, 62
2, 55379, Note_on_c, 0, 84, 87
2, 55380, Note_on_c, 0, 93, 89
2, 55403, Note_off_c, 0, 84, 57
2, 55405, Note_off_c, 0, 93, 59
2, 55410, Note_on_c, 0, 84, 97
2, 55410, Note_on_c, 0, 93, 100
2, 55410, Control_c, 0, 64, 0
2, 55430, Control_c, 0, 64, 127
2, 55440, Note_off_c, 0, 93, 58
2, 55440, Note_off_c, 0, 84, 57
2, 55529, Note_on_c, 0, 89, 104
2, 55530, Control_c, 0, 64, 0
2, 55531, Note_on_c, 0, 81, 100
2, 55579, Note_off_c, 0, 89, 57
2, 55580, Note_off_c, 0, 81, 58
2, 55649, Note_on_c, 0, 82, 110
2, 55649, Note_on_c, 0, 94, 111
2, 55650, Control_c, 0, 64, 0
2, 55670, Control_c, 0, 64, 127
2, 55698, Note_off_c, 0, 94, 59
2, 55698, Note_off_c, 0, 82, 57
2, 55710, Control_c, 0, 64, 0
2, 55769, Note_on_c, 0, 94, 120
2, 55770, Control_c, 0, 11, 115
2, 55770, Control_c, 0, 64, 0
2, 55771, Note_on_c, 0, 82, 115
2, 55790, Control_c, 0, 64, 127
2, 55800, Note_off_c, 0, 94, 57
2, 55801, Note_off_c, 0, 82, 57
2, 55880, Control_c, 0, 64, 0
2, 56009, Note_on_c, 0, 71, 54
2, 56010, Note_on_c, 0, 59, 51
2, 56058, Note_off_c, 0, 71, 59
2, 56060, Note_off_c, 0, 59, 57
2, 56129, Note_on_c, 0, 59, 46
2, 56131, Note_on_c, 0, 71, 50
2, 56158, Note_off_c, 0, 59, 58
2, 56161, Note_off_c, 0, 71, 58
2, 56370, Note_on_c, 0, 82, 117
2, 56370, Control_c, 0, 64, 0
2, 56371, Note_on_c, 0, 94, 118
2, 56390, Control_c, 0, 64, 127
2, 56420, Note_off_c, 0, 94, 57
2, 56421, Note_off_c, 0, 82, 59
2, 56440, Control_c, 0, 64, 0
2, 56489, Note_on_c, 0, 94, 120
2, 56490, Control_c, 0, 64, 0
2, 56491, Note_on_c, 0, 82, 116
2, 56510, Control_c, 0, 64, 127
2, 56518, Note_off_c, 0, 94, 57
2, 56521, Note_off_c, 0, 82, 58
2, 56560, Control_c, 0, 64, 0
2, 56610, Control_c, 0, 64, 0
2, 56730, Control_c, 0, 11, 100
2, 56731, Note_on_c, 0, 59, 52
2, 56731, Note_on_c, 0, 71, 55
2, 56780, Note_off_c, 0, 71, 59
2, 56782, Note_off_c, 0, 59, 57
2, 56850, Note_on_c, 0, 59, 49
2, 56850, Note_on_c, 0, 71, 49
2, 56880, Note_off_c, 0, 59, 57
2, 56881, Note_off_c, 0, 71, 58
2, 57089, Note_on_c, 0, 58, 43
2, 57090, Note_on_c, 0, 70, 45
2, 57139, Note_off_c, 0, 58, 58
2, 57140, Note_off_c, 0, 70, 57
2, 57209, Note_on_c, 0, 58, 42
2, 57211, Note_on_c, 0, 70, 44
2, 57239, Note_off_c, 0, 58, 58
2, 57240, Note_off_c, 0, 70, 57
2, 57449, Note_on_c, 0, 62, 47
2, 57529, Note_off_c, 0, 62, 62
2, 57539, Note_on_c, 0, 66, 54
2, 57563, Note_off_c, 0, 66, 59
2, 57570, Note_on_c, 0, 66, 53
2, 57601, Note_off_c, 0, 66, 57
2, 57691, Note_on_c, 0, 62, 46
2, 57742, Note_off_c, 0, 62, 58
2, 57811, Note_on_c, 0, 59, 40
2, 57811, Note_on_c, 0, 71, 43
2, 57860, Note_off_c, 0, 59, 59
2, 57861, Note_off_c, 0, 71, 57
2, 57929, Note_on_c, 0, 71, 46
2, 57930, Note_on_c, 0, 59, 43
2, 57959, Note_off_c, 0, 59, 58
2, 57960, Note_off_c, 0, 71, 59
2, 58170, Note_on_c, 0, 71, 54
2, 58171, Note_on_c, 0, 59, 50
2, 58219, Note_off_c, 0, 71, 59
2, 58221, Note_off_c, 0, 59, 58
2, 58289, Note_on_c, 0, 71, 62
2, 58291, Note_on_c, 0, 59, 58
2, 58318, Note_off_c, 0, 71, 59
2, 58322, Note_off_c, 0, 59, 59
2, 58529, Note_on_c, 0, 59, 67
2, 58531, Note_on_c, 0, 71, 68
2, 58579, Note_off_c, 0, 59, 59
2, 58581, Note_off_c, 0, 71, 59
2, 58649, Note_on_c, 0, 71, 81
2, 58650, Note_on_c, 0, 59, 79
2, 58650, Control_c, 0, 64, 0
2, 58670, Control_c, 0, 64, 127
2, 58680, Note_off_c, 0, 71, 59
2, 58681, Note_off_c, 0, 59, 59
2, 58769, Note_on_c, 0, 59, 84
2, 58771, Note_on_c, 0, 71, 84
2, 58879, Note_off_c, 0, 59, 61
2, 58880, Note_off_c, 0, 71, 61
2, 58889, Note_on_c, 0, 59, 85
2, 58889, Note_on_c, 0, 71, 90
2, 58999, Note_off_c, 0, 71, 60
2, 58999, Note_off_c, 0, 59, 60
2, 59009, Note_on_c, 0, 59, 89
2, 59010, Note_on_c, 0, 71, 92
2, 59039, Note_off_c, 0, 59, 58
2, 59041, Note_off_c, 0, 71, 57
2, 59129, Note_on_c, 0, 71, 95
2, 59131, Note_on_c, 0, 59, 92
2, 59238, Note_off_c, 0, 71, 60
2, 59240, Note_off_c, 0, 59, 62
2, 59249, Note_on_c, 0, 83, 100
2, 59250, Control_c, 0, 64, 0
2, 59251, Note_on_c, 0, 71, 98
2, 59255, Control_c, 0, 64, 127
2, 59358, Note_off_c, 0, 83, 60
2, 59362, Note_off_c, 0, 71, 62
2, 59370, Note_on_c, 0, 83, 100
2, 59371, Note_on_c, 0, 71, 101
2, 59481, Note_off_c, 0, 71, 62
2, 59481, Note_off_c, 0, 83, 61
2, 59489, Note_on_c, 0, 71, 102
2, 59490, Note_on_c, 0, 83, 102
2, 59519, Note_off_c, 0, 71, 58
2, 59520, Note_off_c, 0, 83, 58
2, 59610, Note_on_c, 0, 71, 104
2, 59610, Note_on_c, 0, 83, 106
2, 59720, Note_off_c, 0, 83, 62
2, 59721, Note_off_c, 0, 71, 61
2, 59730, Control_c, 0, 11, 115
2, 59730, Control_c, 0, 64, 0
2, 59731, Note_on_c, 0, 83, 103
2, 59731, Note_on_c, 0, 95, 107
2, 59735, Control_c, 0, 64, 127
2, 59841, Note_off_c, 0, 95, 61
2, 59841, Note_off_c, 0, 83, 62
2, 59851, Note_on_c, 0, 83, 109
2, 59851, Note_on_c, 0, 95, 111
2, 59960, Note_off_c, 0, 95, 61
2, 59962, Note_off_c, 0, 83, 61
2, 59969, Note_on_c, 0, 83, 111
2, 59970, Note_on_c, 0, 95, 112
2, 59999, Note_off_c, 0, 95, 59
2, 59999, Note_off_c, 0, 83, 57
2, 60089, Note_on_c, 0, 83, 112
2, 60091, Note_on_c, 0, 95, 114
2, 60199, Note_off_c, 0, 83, 62
2, 60202, Note_off_c, 0, 95, 61
2, 60209, Note_on_c, 0, 95, 116
2, 60211, Note_on_c, 0, 83, 115
2, 60318, Note_off_c, 0, 95, 62
2, 60322, Note_off_c, 0, 83, 60
2, 60329, Note_on_c, 0, 83, 116
2, 60330, Note_on_c, 0, 95, 118
2, 60330, Control_c, 0, 64, 0
2, 60438, Note_off_c, 0, 83, 61
2, 60440, Note_off_c, 0, 95, 62
2, 60450, Note_on_c, 0, 82, 118
2, 60450, Control_c, 0, 64, 0
2, 60451, Note_on_c, 0, 94, 122
2, 60470, Control_c, 0, 64, 127
2, 60481, Note_off_c, 0, 82, 57
2, 60482, Note_off_c, 0, 94, 59
2, 60569, Note_on_c, 0, 82, 105
2, 60569, Note_on_c, 0, 94, 108
2, 60570, Control_c, 0, 64, 0
2, 60610, Control_c, 0, 64, 127
2, 60620, Note_off_c, 0, 94, 57
2, 60620, Note_off_c, 0, 82, 59
2, 60690, Control_c, 0, 64, 0
2, 60809, Note_on_c, 0, 62, 55
2, 60810, Control_c, 0, 11, 100
2, 60839, Note_off_c, 0, 62, 59
2, 60901, Note_on_c, 0, 65, 58
2, 60926, Note_off_c, 0, 65, 58
2, 60930, Control_c, 0, 64, 0
2, 60931, Note_on_c, 0, 65, 62
2, 60950, Control_c, 0, 64, 127
2, 60989, Note_on_c, 0, 60, 50
2, 61040, Note_off_c, 0, 60, 57
2, 61040, Note_off_c, 0, 65, 61
2, 61050, Control_c, 0, 64, 0
2, 61051, Note_on_c, 0, 53, 48
2, 61051, Note_on_c, 0, 62, 51
2, 61100, Note_off_c, 0, 62, 59
2, 61101, Note_off_c, 0, 53, 58
2, 61170, Note_on_c, 0, 74, 58
2, 61200, Note_off_c, 0, 74, 58
2, 61260, Note_on_c, 0, 77, 63
2, 61284, Note_off_c, 0, 77, 57
2, 61289, Note_on_c, 0, 77, 66
2, 61290, Control_c, 0, 64, 0
2, 61310, Control_c, 0, 64, 127
2, 61349, Note_on_c, 0, 72, 54
2, 61399, Note_off_c, 0, 72, 58
2, 61399, Note_off_c, 0, 77, 61
2, 61410, Note_on_c, 0, 65, 47
2, 61410, Control_c, 0, 64, 0
2, 61410, Note_on_c, 0, 74, 51
2, 61460, Note_off_c, 0, 65, 58
2, 61461, Note_off_c, 0, 74, 57
2, 61529, Note_on_c, 0, 86, 50
2, 61559, Note_off_c, 0, 86, 58
2, 61621, Note_on_c, 0, 89, 53
2, 61645, Note_off_c, 0, 89, 58
2, 61650, Control_c, 0, 64, 0
2, 61651, Note_on_c, 0, 89, 58
2, 61670, Control_c, 0, 64, 127
2, 61710, Note_on_c, 0, 84, 47
2, 61761, Note_off_c, 0, 84, 58
2, 61762, Note_off_c, 0, 89, 62
2, 61770, Note_on_c, 0, 77, 43
2, 61770, Control_c, 0, 64, 0
2, 61770, Note_on_c, 0, 86, 45
2, 61819, Note_off_c, 0, 77, 59
2, 61820, Note_off_c, 0, 86, 57
2, 61820, End_track
3, 0, Start_track
3, 0, Title_t, "Left Hand"
3, 0, Program_c, 1, 0
3, 0, Control_c, 1, 7, 120
3, 0, Control_c, 1, 11, 110
3, 0, Control_c, 1, 93, 10
3, 0, Control_c, 1, 91, 24
3, 0, Control_c, 1, 10, 60
3, 719, Note_on_c, 1, 62, 55
3, 720, Note_on_c, 1, 58, 52
3, 799, Note_off_c, 1, 58, 61
3, 800, Note_off_c, 1, 62, 60
3, 811, Note_on_c, 1, 53, 59
3, 811, Note_on_c, 1, 60, 63
3, 835, Note_off_c, 1, 60, 58
3, 837, Note_off_c, 1, 53, 57
3, 839, Note_on_c, 1, 60, 69
3, 841, Note_on_c, 1, 57, 66
3, 949, Note_off_c, 1, 60, 61
3, 951, Note_off_c, 1, 57, 60
3, 959, Note_on_c, 1, 58, 53
3, 961, Note_on_c, 1, 62, 58
3, 989, Note_off_c, 1, 58, 57
3, 990, Note_off_c, 1, 62, 59
3, 1079, Note_on_c, 1, 58, 58
3, 1081, Note_on_c, 1, 55, 51
3, 1160, Note_off_c, 1, 55, 61
3, 1160, Note_off_c, 1, 58, 61
3, 1169, Note_on_c, 1, 57, 65
3, 1170, Note_on_c, 1, 50, 61
3, 1193, Note_off_c, 1, 57, 59
3, 1195, Note_off_c, 1, 50, 58
3, 1200, Note_on_c, 1, 57, 69
3, 1201, Note_on_c, 1, 54, 66
3, 1309, Note_off_c, 1, 57, 61
3, 1312, Note_off_c, 1, 54, 62
3, 1320, Note_on_c, 1, 58, 58
3, 1321, Note_on_c, 1, 55, 53
3, 1349, Note_off_c, 1, 58, 59
3, 1350, Note_off_c, 1, 55, 57
3, 1440, Note_on_c, 1, 51, 56
3, 1440, Note_on_c, 1, 55, 57
3, 1519, Note_off_c, 1, 51, 62
3, 1521, Note_off_c, 1, 55, 60
3, 1530, Note_on_c, 1, 46, 62
3, 1530, Note_on_c, 1, 53, 66
3, 1554, Note_off_c, 1, 53, 59
3, 1556, Note_off_c, 1, 46, 58
3, 1560, Note_on_c, 1, 50, 66
3, 1561, Note_on_c, 1, 53, 69
3, 1669, Note_off_c, 1, 50, 61
3, 1672, Note_off_c, 1, 53, 61
3, 1680, Note_on_c, 1, 51, 58
3, 1680, Note_on_c, 1, 55, 60
3, 1709, Note_off_c, 1, 55, 58
3, 1710, Note_off_c, 1, 51, 58
3, 1799, Note_on_c, 1, 55, 56
3, 1799, Note_on_c, 1, 51, 54
3, 1879, Note_off_c, 1, 55, 61
3, 1880, Note_off_c, 1, 51, 62
3, 1889, Note_on_c, 1, 48, 59
3, 1891, Note_on_c, 1, 53, 66
3, 1915, Note_off_c, 1, 48, 59
3, 1917, Note_off_c, 1, 53, 59
3, 1919, Note_on_c, 1, 53, 73
3, 1921, Note_on_c, 1, 48, 69
3, 2028, Note_off_c, 1, 53, 60
3, 2030, Note_off_c, 1, 48, 61
3, 2039, Note_on_c, 1, 50, 56
3, 2041, Note_on_c, 1, 53, 57
3, 2070, Note_off_c, 1, 53, 57
3, 2070, Note_off_c, 1, 50, 59
3, 2159, Note_on_c, 1, 53, 62
3, 2161, Note_on_c, 1, 50, 59
3, 2241, Note_off_c, 1, 50, 62
3, 2249, Note_on_c, 1, 45, 63
3, 2269, Note_off_c, 1, 53, 62
3, 2275, Note_off_c, 1, 45, 57
3, 2280, Note_on_c, 1, 45, 71
3, 2280, Note_on_c, 1, 53, 74
3, 2389, Note_off_c, 1, 45, 62
3, 2400, Note_on_c, 1, 44, 61
3, 2429, Note_off_c, 1, 53, 63
3, 2431, Note_off_c, 1, 44, 57
3, 2521, Note_on_c, 1, 44, 66
3, 2521, Note_on_c, 1, 53, 73
3, 2600, Note_off_c, 1, 53, 61
3, 2602, Note_off_c, 1, 44, 60
3, 2610, Note_on_c, 1, 43, 71
3, 2611, Note_on_c, 1, 51, 75
3, 2636, Note_off_c, 1, 51, 58
3, 2636, Note_off_c, 1, 43, 58
3, 2641, Note_on_c, 1, 43, 80
3, 2641, Note_on_c, 1, 51, 85
3, 2750, Note_off_c, 1, 51, 61
3, 2752, Note_off_c, 1, 43, 61
3, 2760, Note_on_c, 1, 49, 101
3, 2761, Note_on_c, 1, 41, 97
3, 2791, Note_off_c, 1, 49, 57
3, 2792, Note_off_c, 1, 41, 57
3, 2879, Note_on_c, 1, 48, 106
3, 2879, Note_on_c, 1, 40, 101
3, 2880, Control_c, 1, 64, 0
3, 2900, Control_c, 1, 64, 127
3, 2928, Note_off_c, 1, 40, 59
3, 2929, Note_off_c, 1, 48, 57
3, 2940, Control_c, 1, 64, 0
3, 2999, Note_on_c, 1, 41, 109
3, 2999, Note_on_c, 1, 53, 113
3, 3000, Control_c, 1, 64, 0
3, 3020, Control_c, 1, 64, 127
3, 3048, Note_off_c, 1, 41, 57
3, 3050, Note_off_c, 1, 53, 59
3, 3060, Control_c, 1, 64, 0
3, 3239, Note_on_c, 1, 74, 55
3, 3241, Note_on_c, 1, 70, 53
3, 3320, Note_off_c, 1, 74, 61
3, 3321, Note_off_c, 1, 70, 61
3, 3330, Note_on_c, 1, 65, 54
3, 3330, Note_on_c, 1, 72, 58
3, 3355, Note_off_c, 1, 72, 58
3, 3356, Note_off_c, 1, 65, 58
3, 3361, Note_on_c, 1, 69, 62
3, 3361, Note_on_c, 1, 72, 65
3, 3470, Note_off_c, 1, 69, 62
3, 3471, Note_off_c, 1, 72, 60
3, 3479, Note_on_c, 1, 70, 55
3, 3479, Note_on_c, 1, 74, 58
3, 3509, Note_off_c, 1, 74, 58
3, 3509, Note_off_c, 1, 70, 58
3, 3600, Note_on_c, 1, 67, 55
3, 3600, Note_on_c, 1, 70, 57
3, 3679, Note_off_c, 1, 70, 61
3, 3680, Note_off_c, 1, 67, 62
3, 3689, Note_on_c, 1, 69, 56
3, 3691, Note_on_c, 1, 62, 56
3, 3714, Note_off_c, 1, 69, 58
3, 3717, Note_off_c, 1, 62, 59
3, 3721, Note_on_c, 1, 66, 63
3, 3721, Note_on_c, 1, 69, 64
3, 3831, Note_off_c, 1, 69, 62
3, 3832, Note_off_c, 1, 66, 61
3, 3839, Note_on_c, 1, 67, 55
3, 3841, Note_on_c, 1, 70, 58
3, 3869, Note_off_c, 1, 67, 57
3, 3872, Note_off_c, 1, 70, 59
3, 3959, Note_on_c, 1, 67, 58
3, 3959, Note_on_c, 1, 63, 56
3, 4038, Note_off_c, 1, 63, 60
3, 4039, Note_off_c, 1, 67, 61
3, 4049, Note_on_c, 1, 58, 57
3, 4051, Note_on_c, 1, 65, 60
3, 4075, Note_off_c, 1, 58, 59
3, 4076, Note_off_c, 1, 65, 57
3, 4079, Note_on_c, 1, 62, 66
3, 4079, Note_on_c, 1, 65, 68
3, 4189, Note_off_c, 1, 62, 60
3, 4190, Note_off_c, 1, 65, 60
3, 4199, Note_on_c, 1, 63, 54
3, 4199, Note_on_c, 1, 67, 58
3, 4228, Note_off_c, 1, 67, 59
3, 4230, Note_off_c, 1, 63, 57
3, 4321, Note_on_c, 1, 63, 60
3, 4321, Note_on_c, 1, 67, 61
3, 4401, Note_off_c, 1, 67, 61
3, 4402, Note_off_c, 1, 63, 61
3, 4409, Note_on_c, 1, 65, 58
3, 4410, Note_on_c, 1, 60, 57
3, 4433, Note_off_c, 1, 65, 59
3, 4436, Note_off_c, 1, 60, 59
3, 4439, Note_on_c, 1, 65, 66
3, 4441, Note_on_c, 1, 60, 63
3, 4548, Note_off_c, 1, 65, 61
3, 4551, Note_off_c, 1, 60, 61
3, 4560, Note_on_c, 1, 65, 58
3, 4561, Note_on_c, 1, 62, 57
3, 4589, Note_off_c, 1, 65, 59
3, 4592, Note_off_c, 1, 62, 58
3, 4679, Note_on_c, 1, 74, 72
3, 4760, Note_off_c, 1, 74, 62
3, 4770, Note_on_c, 1, 72, 64
3, 4771, Note_on_c, 1, 69, 64
3, 4796, Note_off_c, 1, 69, 58
3, 4796, Note_off_c, 1, 72, 57
3, 4799, Note_on_c, 1, 69, 76
3, 4801, Note_on_c, 1, 72, 78
3, 4909, Note_off_c, 1, 69, 62
3, 4912, Note_off_c, 1, 72, 60
3, 4921, Note_on_c, 1, 68, 73
3, 4921, Note_on_c, 1, 70, 76
3, 4950, Note_off_c, 1, 68, 57
3, 4951, Note_off_c, 1, 70, 59
3, 5040, Note_on_c, 1, 67, 81
3, 5041, Note_on_c, 1, 70, 81
3, 5119, Note_off_c, 1, 67, 60
3, 5130, Note_on_c, 1, 66, 77
3, 5150, Note_off_c, 1, 70, 62
3, 5154, Note_off_c, 1, 66, 59
3, 5161, Note_on_c, 1, 66, 86
3, 5161, Note_on_c, 1, 70, 91
3, 5271, Note_off_c, 1, 70, 62
3, 5272, Note_off_c, 1, 66, 60
3, 5279, Note_on_c, 1, 65, 99
3, 5280, Note_on_c, 1, 72, 102
3, 5308, Note_off_c, 1, 65, 59
3, 5309, Note_off_c, 1, 72, 58
3, 5399, Note_on_c, 1, 48, 105
3, 5400, Control_c, 1, 64, 0
3, 5401, Note_on_c, 1, 60, 108
3, 5420, Control_c, 1, 64, 127
3, 5448, Note_off_c, 1, 48, 59
3, 5452, Note_off_c, 1, 60, 58
3, 5460, Control_c, 1, 64, 0
3, 5519, Note_on_c, 1, 65, 114
3, 5520, Control_c, 1, 64, 0
3, 5521, Note_on_c, 1, 53, 112
3, 5540, Control_c, 1, 64, 127
3, 5569, Note_off_c, 1, 65, 57
3, 5570, Note_off_c, 1, 53, 57
3, 5620, Control_c, 1, 64, 0
3, 5759, Note_on_c, 1, 65, 63
3, 5760, Control_c, 1, 64, 0
3, 5761, Note_on_c, 1, 53, 62
3, 5780, Control_c, 1, 64, 127
3, 5880, Control_c, 1, 64, 0
3, 5900, Control_c, 1, 64, 127
3, 6000, Control_c, 1, 64, 0
3, 6103, Note_off_c, 1, 65, 64
3, 6105, Note_off_c, 1, 53, 65
3, 6119, Note_on_c, 1, 41, 57
3, 6120, Control_c, 1, 64, 0
3, 6121, Note_on_c, 1, 53, 60
3, 6140, Control_c, 1, 64, 127
3, 6240, Control_c, 1, 64, 0
3, 6260, Control_c, 1, 64, 127
3, 6360, Control_c, 1, 64, 0
3, 6463, Note_off_c, 1, 41, 63
3, 6465, Note_off_c, 1, 53, 64
3, 6480, Note_on_c, 1, 41, 54
3, 6480, Control_c, 1, 64, 0
3, 6480, Note_on_c, 1, 53, 54
3, 6500, Control_c, 1, 64, 127
3, 6600, Control_c, 1, 64, 0
3, 6620, Control_c, 1, 64, 127
3, 6720, Control_c, 1, 64, 0
3, 6825, Note_off_c, 1, 41, 63
3, 6826, Note_off_c, 1, 53, 65
3, 6839, Note_on_c, 1, 29, 54
3, 6840, Control_c, 1, 64, 0
3, 6840, Note_on_c, 1, 41, 53
3, 6860, Control_c, 1, 64, 127
3, 6960, Control_c, 1, 64, 0
3, 6980, Control_c, 1, 64, 127
3, 7080, Control_c, 1, 64, 0
3, 7184, Note_off_c, 1, 41, 64
3, 7184, Note_off_c, 1, 29, 63
3, 7200, Control_c, 1, 64, 0
3, 7201, Note_on_c, 1, 30, 53
3, 7201, Note_on_c, 1, 42, 55
3, 7220, Control_c, 1, 64, 127
3, 7320, Control_c, 1, 64, 0
3, 7350, Control_c, 1, 64, 127
3, 7432, Note_off_c, 1, 42, 65
3, 7432, Note_off_c, 1, 30, 63
3, 7439, Note_on_c, 1, 31, 52
3, 7439, Note_on_c, 1, 43, 52
3, 7440, Control_c, 1, 64, 0
3, 7470, Control_c, 1, 64, 127
3, 7560, Control_c, 1, 64, 0
3, 7590, Control_c, 1, 64, 127
3, 7663, Note_off_c, 1, 43, 65
3, 7663, Note_off_c, 1, 31, 65
3, 7680, Note_on_c, 1, 45, 52
3, 7680, Control_c, 1, 64, 0
3, 7681, Note_on_c, 1, 33, 52
3, 7720, Control_c, 1, 64, 127
3, 7789, Note_off_c, 1, 45, 60
3, 7790, Note_off_c, 1, 33, 60
3, 7799, Note_on_c, 1, 34, 48
3, 7800, Note_on_c, 1, 46, 50
3, 7800, Control_c, 1, 64, 0
3, 7840, Control_c, 1, 64, 127
3, 7910, Note_off_c, 1, 46, 61
3, 7910, Note_off_c, 1, 34, 62
3, 7919, Note_on_c, 1, 47, 48
3, 7920, Control_c, 1, 64, 0
3, 7920, Note_on_c, 1, 35, 48
3, 7960, Control_c, 1, 64, 127
3, 8028, Note_off_c, 1, 47, 61
3, 8030, Note_off_c, 1, 35, 61
3, 8039, Note_on_c, 1, 48, 49
3, 8040, Control_c, 1, 64, 0
3, 8041, Note_on_c, 1, 36, 48
3, 8080, Control_c, 1, 64, 127
3, 8160, Control_c, 1, 64, 0
3, 8200, Control_c, 1, 64, 127
3, 8264, Note_off_c, 1, 48, 63
3, 8265, Note_off_c, 1, 36, 65
3, 8279, Note_on_c, 1, 36, 55
3, 8280, Control_c, 1, 64, 0
3, 8320, Control_c, 1, 64, 127
3, 8389, Note_off_c, 1, 36, 60
3, 8399, Note_on_c, 1, 43, 44
3, 8400, Control_c, 1, 64, 0
3, 8440, Control_c, 1, 64, 127
3, 8520, Control_c, 1, 64, 0
3, 8560, Control_c, 1, 64, 127
3, 8624, Note_off_c, 1, 43, 65
3, 8710, Control_c, 1, 64, 0
3, 9360, Note_on_c, 1, 55, 55
3, 9361, Note_on_c, 1, 43, 49
3, 9442, Note_off_c, 1, 43, 61
3, 9451, Note_on_c, 1, 47, 53
3, 9477, Note_off_c, 1, 47, 58
3, 9481, Note_on_c, 1, 47, 57
3, 9591, Note_off_c, 1, 47, 60
3, 9599, Note_on_c, 1, 43, 48
3, 9628, Note_off_c, 1, 43, 58
3, 9644, Note_off_c, 1, 55, 63
3, 9719, Note_on_c, 1, 72, 50
3, 9720, Control_c, 1, 64, 0
3, 9740, Control_c, 1, 64, 127
3, 9798, Note_off_c, 1, 72, 60
3, 9809, Note_on_c, 1, 75, 53
3, 9835, Note_off_c, 1, 75, 58
3, 9840, Note_on_c, 1, 75, 54
3, 9951, Note_off_c, 1, 75, 60
3, 9959, Note_on_c, 1, 72, 49
3, 9960, Control_c, 1, 64, 0
3, 9990, Note_off_c, 1, 72, 57
3, 10079, Note_on_c, 1, 43, 56
3, 10080, Control_c, 1, 64, 0
3, 10080, Note_on_c, 1, 55, 62
3, 10100, Control_c, 1, 64, 127
3, 10200, Control_c, 1, 64, 0
3, 10220, Control_c, 1, 64, 127
3, 10320, Control_c, 1, 64, 0
3, 10424, Note_off_c, 1, 43, 64
3, 10426, Note_off_c, 1, 55, 64
3, 10439, Note_on_c, 1, 48, 69
3, 10440, Control_c, 1, 64, 0
3, 10440, Note_on_c, 1, 36, 67
3, 10460, Control_c, 1, 64, 127
3, 10560, Control_c, 1, 64, 0
3, 10580, Control_c, 1, 64, 127
3, 10680, Control_c, 1, 64, 0
3, 10784, Note_off_c, 1, 36, 65
3, 10784, Note_off_c, 1, 48, 64
3, 10799, Note_on_c, 1, 41, 81
3, 10800, Control_c, 1, 64, 0
3, 10801, Note_on_c, 1, 29, 78
3, 10820, Control_c, 1, 64, 127
3, 10920, Control_c, 1, 64, 0
3, 10940, Control_c, 1, 64, 127
3, 11028, Note_off_c, 1, 41, 63
3, 11032, Note_off_c, 1, 29, 65
3, 11039, Note_on_c, 1, 41, 101
3, 11039, Note_on_c, 1, 53, 103
3, 11040, Control_c, 1, 64, 0
3, 11068, Note_off_c, 1, 41, 57
3, 11069, Note_off_c, 1, 53, 59
3, 11160, Note_on_c, 1, 34, 103
3, 11160, Control_c, 1, 64, 0
3, 11160, Note_on_c, 1, 46, 105
3, 11180, Control_c, 1, 64, 127
3, 11209, Note_off_c, 1, 46, 57
3, 11211, Note_off_c, 1, 34, 57
3, 11220, Control_c, 1, 64, 0
3, 11280, Control_c, 1, 64, 0
3, 11281, Note_on_c, 1, 34, 112
3, 11281, Note_on_c, 1, 46, 113
3, 11300, Control_c, 1, 64, 127
3, 11332, Note_off_c, 1, 46, 59
3, 11332, Note_off_c, 1, 34, 59
3, 11340, Control_c, 1, 64, 0
3, 11520, Note_on_c, 1, 65, 66
3, 11520, Control_c, 1, 64, 0
3, 11520, Note_on_c, 1, 77, 68
3, 11540, Control_c, 1, 64, 127
3, 11640, Control_c, 1, 64, 0
3, 11660, Control_c, 1, 64, 127
3, 11760, Control_c, 1, 64, 0
3, 11865, Note_off_c, 1, 65, 63
3, 11866, Note_off_c, 1, 77, 64
3, 11879, Note_on_c, 1, 65, 62
3, 11880, Control_c, 1, 64, 0
3, 11881, Note_on_c, 1, 53, 60
3, 11900, Control_c, 1, 64, 127
3, 12000, Control_c, 1, 64, 0
3, 12020, Control_c, 1, 64, 127
3, 12120, Control_c, 1, 64, 0
3, 12224, Note_off_c, 1, 65, 64
3, 12226, Note_off_c, 1, 53, 65
3, 12240, Note_on_c, 1, 53, 56
3, 12240, Control_c, 1, 64, 0
3, 12240, Note_on_c, 1, 65, 57
3, 12260, Control_c, 1, 64, 127
3, 12360, Control_c, 1, 64, 0
3, 12380, Control_c, 1, 64, 127
3, 12480, Control_c, 1, 64, 0
3, 12585, Note_off_c, 1, 53, 63
3, 12586, Note_off_c, 1, 65, 64
3, 12600, Note_on_c, 1, 41, 53
3, 12600, Control_c, 1, 64, 0
3, 12600, Note_on_c, 1, 53, 55
3, 12620, Control_c, 1, 64, 127
3, 12720, Control_c, 1, 64, 0
3, 12740, Control_c, 1, 64, 127
3, 12840, Control_c, 1, 64, 0
3, 12944, Note_off_c, 1, 53, 63
3, 12945, Note_off_c, 1, 41, 64
3, 12960, Note_on_c, 1, 54, 53
3, 12960, Control_c, 1, 64, 0
3, 12961, Note_on_c, 1, 42, 50
3, 12980, Control_c, 1, 64, 127
3, 13080, Control_c, 1, 64, 0
3, 13120, Control_c, 1, 64, 127
3, 13180, Note_off_c, 1, 54, 65
3, 13181, Note_off_c, 1, 42, 65
3, 13199, Note_on_c, 1, 60, 56
3, 13200, Note_on_c, 1, 54, 54
3, 13200, Control_c, 1, 64, 0
3, 13200, Note_on_c, 1, 63, 59
3, 13240, Control_c, 1, 64, 127
3, 13299, Note_off_c, 1, 60, 61
3, 13300, Note_off_c, 1, 63, 62
3, 13300, Note_off_c, 1, 54, 60
3, 13319, Note_on_c, 1, 55, 54
3, 13320, Control_c, 1, 64, 0
3, 13320, Note_on_c, 1, 58, 55
3, 13320, Note_on_c, 1, 62, 56
3, 13360, Control_c, 1, 64, 127
3, 13419, Note_off_c, 1, 58, 60
3, 13419, Note_off_c, 1, 55, 62
3, 13421, Note_off_c, 1, 62, 60
3, 13440, Note_on_c, 1, 57, 52
3, 13440, Control_c, 1, 64, 0
3, 13440, Note_on_c, 1, 60, 56
3, 13480, Control_c, 1, 64, 127
3, 13539, Note_off_c, 1, 57, 60
3, 13540, Note_off_c, 1, 60, 62
3, 13559, Note_on_c, 1, 46, 49
3, 13559, Note_on_c, 1, 58, 55
3, 13560, Control_c, 1, 64, 0
3, 13561, Note_on_c, 1, 55, 53
3, 13600, Control_c, 1, 64, 127
3, 13659, Note_off_c, 1, 46, 61
3, 13660, Note_off_c, 1, 58, 61
3, 13661, Note_off_c, 1, 55, 62
3, 13680, Note_on_c, 1, 57, 56
3, 13680, Control_c, 1, 64, 0
3, 13681, Note_on_c, 1, 47, 50
3, 13681, Note_on_c, 1, 53, 52
3, 13720, Control_c, 1, 64, 127
3, 13782, Note_off_c, 1, 47, 61
3, 13800, Control_c, 1, 64, 0
3, 13801, Note_on_c, 1, 48, 51
3, 13840, Control_c, 1, 64, 127
3, 13900, Note_off_c, 1, 53, 64
3, 13901, Note_off_c, 1, 57, 65
3, 13919, Note_on_c, 1, 52, 48
3, 13920, Control_c, 1, 64, 0
3, 13921, Note_on_c, 1, 55, 51
3, 13960, Control_c, 1, 64, 127
3, 14020, Note_off_c, 1, 55, 62
3, 14020, Note_off_c, 1, 52, 60
3, 14022, Note_off_c, 1, 48, 64
3, 14039, Note_on_c, 1, 51, 49
3, 14040, Control_c, 1, 64, 0
3, 14040, Note_on_c, 1, 55, 54
3, 14041, Note_on_c, 1, 60, 55
3, 14060, Control_c, 1, 64, 127
3, 14139, Note_off_c, 1, 55, 60
3, 14140, Note_off_c, 1, 51, 62
3, 14160, Note_on_c, 1, 55, 48
3, 14160, Control_c, 1, 64, 0
3, 14200, Control_c, 1, 64, 127
3, 14262, Note_off_c, 1, 60, 64
3, 14280, Control_c, 1, 64, 0
3, 14281, Note_on_c, 1, 59, 44
3, 14320, Control_c, 1, 64, 127
3, 14376, Note_off_c, 1, 55, 65
3, 14380, Note_off_c, 1, 59, 62
3, 14440, Control_c, 1, 64, 0
3, 15119, Note_on_c, 1, 55, 50
3, 15120, Note_on_c, 1, 67, 53
3, 15198, Note_off_c, 1, 55, 61
3, 15211, Note_on_c, 1, 59, 55
3, 15235, Note_off_c, 1, 59, 59
3, 15239, Note_on_c, 1, 59, 61
3, 15349, Note_off_c, 1, 59, 61
3, 15361, Note_on_c, 1, 55, 57
3, 15390, Note_off_c, 1, 55, 58
3, 15409, Note_off_c, 1, 67, 63
3, 15479, Note_on_c, 1, 60, 49
3, 15480, Control_c, 1, 64, 0
3, 15520, Control_c, 1, 64, 127
3, 15558, Note_off_c, 1, 60, 61
3, 15571, Note_on_c, 1, 63, 51
3, 15597, Note_off_c, 1, 63, 57
3, 15600, Note_on_c, 1, 63, 52
3, 15709, Note_off_c, 1, 63, 61
3, 15719, Note_on_c, 1, 60, 48
3, 15720, Control_c, 1, 64, 0
3, 15748, Note_off_c, 1, 60, 59
3, 15839, Note_on_c, 1, 67, 63
3, 15839, Note_on_c, 1, 55, 62
3, 15840, Control_c, 1, 64, 0
3, 15860, Control_c, 1, 64, 127
3, 15960, Control_c, 1, 64, 0
3, 15980, Control_c, 1, 64, 127
3, 16080, Control_c, 1, 64, 0
3, 16183, Note_off_c, 1, 55, 65
3, 16184, Note_off_c, 1, 67, 64
3, 16200, Control_c, 1, 64, 0
3, 16201, Note_on_c, 1, 48, 72
3, 16201, Note_on_c, 1, 60, 75
3, 16220, Control_c, 1, 64, 127
3, 16320, Control_c, 1, 64, 0
3, 16340, Control_c, 1, 64, 127
3, 16440, Control_c, 1, 64, 0
3, 16545, Note_off_c, 1, 48, 65
3, 16546, Note_off_c, 1, 60, 63
3, 16560, Control_c, 1, 64, 0
3, 16561, Note_on_c, 1, 41, 94
3, 16561, Note_on_c, 1, 53, 96
3, 16580, Control_c, 1, 64, 127
3, 16680, Control_c, 1, 64, 0
3, 16700, Control_c, 1, 64, 127
3, 16800, Control_c, 1, 64, 0
3, 16905, Note_off_c, 1, 53, 63
3, 16907, Note_off_c, 1, 41, 65
3, 16919, Note_on_c, 1, 34, 102
3, 16920, Control_c, 1, 64, 0
3, 16921, Note_on_c, 1, 46, 102
3, 16940, Control_c, 1, 64, 127
3, 16968, Note_off_c, 1, 34, 57
3, 16970, Note_off_c, 1, 46, 58
3, 16980, Control_c, 1, 64, 0
3, 17039, Note_on_c, 1, 34, 112
3, 17040, Note_on_c, 1, 46, 117
3, 17040, Control_c, 1, 64, 0
3, 17060, Control_c, 1, 64, 127
3, 17089, Note_off_c, 1, 46, 58
3, 17090, Note_off_c, 1, 34, 58
3, 17150, Control_c, 1, 64, 0
3, 17280, Note_on_c, 1, 34, 64
3, 17280, Note_on_c, 1, 46, 69
3, 17330, Note_off_c, 1, 46, 57
3, 17330, Note_off_c, 1, 34, 58
3, 17399, Note_on_c, 1, 34, 61
3, 17401, Note_on_c, 1, 46, 64
3, 17449, Note_off_c, 1, 34, 57
3, 17450, Note_off_c, 1, 46, 57
3, 17640, Note_on_c, 1, 34, 65
3, 17640, Control_c, 1, 64, 0
3, 17660, Control_c, 1, 64, 127
3, 17681, Note_on_c, 1, 41, 63
3, 17690, Note_off_c, 1, 34, 59
3, 17721, Note_on_c, 1, 49, 58
3, 17730, Note_off_c, 1, 41, 57
3, 17759, Note_on_c, 1, 34, 65
3, 17771, Note_off_c, 1, 49, 57
3, 17800, Note_on_c, 1, 41, 61
3, 17809, Note_off_c, 1, 34, 58
3, 17839, Note_on_c, 1, 49, 60
3, 17850, Note_off_c, 1, 41, 59
3, 17881, Note_on_c, 1, 34, 68
3, 17890, Note_off_c, 1, 49, 57
3, 17920, Note_on_c, 1, 41, 61
3, 17931, Note_off_c, 1, 34, 58
3, 17961, Note_on_c, 1, 49, 59
3, 17970, Note_off_c, 1, 41, 59
3, 17999, Note_on_c, 1, 34, 67
3, 18001, Note_off_c, 1, 49, 59
3, 18041, Note_on_c, 1, 41, 63
3, 18048, Note_off_c, 1, 34, 59
3, 18079, Note_on_c, 1, 49, 61
3, 18091, Note_off_c, 1, 41, 58
3, 18120, Note_on_c, 1, 34, 72
3, 18129, Note_off_c, 1, 49, 58
3, 18160, Note_on_c, 1, 41, 69
3, 18171, Note_off_c, 1, 34, 59
3, 18200, Note_on_c, 1, 49, 63
3, 18210, Note_off_c, 1, 41, 58
3, 18241, Note_on_c, 1, 34, 73
3, 18250, Note_off_c, 1, 49, 58
3, 18280, Note_on_c, 1, 41, 67
3, 18291, Note_off_c, 1, 34, 59
3, 18321, Note_on_c, 1, 49, 63
3, 18330, Note_off_c, 1, 41, 58
3, 18359, Note_on_c, 1, 34, 77
3, 18361, Note_off_c, 1, 49, 57
3, 18400, Note_on_c, 1, 41, 74
3, 18408, Note_off_c, 1, 34, 57
3, 18439, Note_on_c, 1, 49, 67
3, 18450, Note_off_c, 1, 41, 57
3, 18479, Note_on_c, 1, 34, 81
3, 18490, Note_off_c, 1, 49, 59
3, 18519, Note_on_c, 1, 41, 76
3, 18528, Note_off_c, 1, 34, 57
3, 18561, Note_on_c, 1, 49, 71
3, 18570, Note_off_c, 1, 41, 57
3, 18600, Note_on_c, 1, 34, 83
3, 18612, Note_off_c, 1, 49, 57
3, 18640, Note_on_c, 1, 41, 77
3, 18650, Note_off_c, 1, 34, 57
3, 18680, Note_on_c, 1, 49, 73
3, 18691, Note_off_c, 1, 41, 58
3, 18720, Note_on_c, 1, 34, 85
3, 18721, Note_off_c, 1, 49, 59
3, 18761, Note_on_c, 1, 41, 79
3, 18770, Note_off_c, 1, 34, 58
3, 18799, Note_on_c, 1, 49, 77
3, 18812, Note_off_c, 1, 41, 59
3, 18839, Note_on_c, 1, 34, 87
3, 18848, Note_off_c, 1, 49, 59
3, 18879, Note_on_c, 1, 41, 80
3, 18889, Note_off_c, 1, 34, 58
3, 18919, Note_on_c, 1, 49, 77
3, 18930, Note_off_c, 1, 41, 58
3, 18959, Note_on_c, 1, 34, 87
3, 18970, Note_off_c, 1, 49, 58
3, 19001, Note_on_c, 1, 41, 85
3, 19010, Note_off_c, 1, 34, 59
3, 19041, Note_on_c, 1, 49, 78
3, 19051, Note_off_c, 1, 41, 57
3, 19079, Note_on_c, 1, 34, 90
3, 19082, Note_off_c, 1, 49, 58
3, 19119, Note_on_c, 1, 41, 84
3, 19129, Note_off_c, 1, 34, 57
3, 19160, Note_on_c, 1, 49, 80
3, 19168, Note_off_c, 1, 41, 57
3, 19199, Note_on_c, 1, 34, 93
3, 19210, Note_off_c, 1, 49, 59
3, 19241, Note_on_c, 1, 41, 86
3, 19250, Note_off_c, 1, 34, 58
3, 19281, Note_on_c, 1, 49, 81
3, 19290, Note_off_c, 1, 41, 59
3, 19321, Note_on_c, 1, 34, 94
3, 19330, Note_off_c, 1, 49, 58
3, 19360, Note_on_c, 1, 41, 88
3, 19371, Note_off_c, 1, 34, 58
3, 19401, Note_on_c, 1, 49, 81
3, 19409, Note_off_c, 1, 41, 57
3, 19440, Control_c, 1, 64, 0
3, 19440, Note_on_c, 1, 32, 97
3, 19442, Note_off_c, 1, 49, 59
3, 19480, Note_on_c, 1, 41, 92
3, 19480, Control_c, 1, 64, 127
3, 19490, Note_off_c, 1, 32, 57
3, 19520, Note_on_c, 1, 49, 86
3, 19529, Note_off_c, 1, 41, 58
3, 19560, Control_c, 1, 64, 0
3, 19561, Note_on_c, 1, 32, 89
3, 19569, Note_off_c, 1, 49, 58
3, 19580, Control_c, 1, 64, 127
3, 19600, Note_on_c, 1, 41, 80
3, 19611, Note_off_c, 1, 32, 58
3, 19639, Note_on_c, 1, 49, 71
3, 19651, Note_off_c, 1, 41, 57
3, 19681, Note_on_c, 1, 32, 82
3, 19690, Note_off_c, 1, 49, 58
3, 19719, Note_on_c, 1, 41, 74
3, 19730, Note_off_c, 1, 32, 58
3, 19760, Note_on_c, 1, 49, 64
3, 19769, Note_off_c, 1, 41, 58
3, 19800, Note_off_c, 1, 49, 59
3, 19801, Note_on_c, 1, 37, 76
3, 19839, Note_on_c, 1, 41, 69
3, 19852, Note_off_c, 1, 37, 59
3, 19880, Note_on_c, 1, 49, 59
3, 19890, Note_off_c, 1, 41, 58
3, 19921, Note_on_c, 1, 37, 71
3, 19929, Note_off_c, 1, 49, 59
3, 19959, Note_on_c, 1, 41, 66
3, 19971, Note_off_c, 1, 37, 58
3, 19999, Note_on_c, 1, 49, 60
3, 20008, Note_off_c, 1, 41, 58
3, 20041, Note_on_c, 1, 37, 66
3, 20050, Note_off_c, 1, 49, 59
3, 20079, Note_on_c, 1, 41, 62
3, 20090, Note_off_c, 1, 37, 58
3, 20119, Note_on_c, 1, 49, 57
3, 20129, Note_off_c, 1, 41, 57
3, 20154, Note_off_c, 1, 49, 58
3, 20160, Note_on_c, 1, 37, 63
3, 20160, Control_c, 1, 64, 0
3, 20161, Note_on_c, 1, 49, 66
3, 20389, Note_off_c, 1, 37, 65
3, 20390, Note_off_c, 1, 49, 63
3, 20399, Note_on_c, 1, 53, 68
3, 20400, Note_on_c, 1, 41, 66
3, 20510, Note_off_c, 1, 41, 60
3, 20510, Note_off_c, 1, 53, 61
3, 20520, Note_on_c, 1, 37, 69
3, 20520, Control_c, 1, 64, 0
3, 20521, Note_on_c, 1, 49, 73
3, 20540, Control_c, 1, 64, 127
3, 20750, Note_off_c, 1, 49, 65
3, 20750, Note_off_c, 1, 37, 65
3, 20759, Note_on_c, 1, 34, 72
3, 20761, Note_on_c, 1, 46, 73
3, 20868, Note_off_c, 1, 34, 60
3, 20872, Note_off_c, 1, 46, 62
3, 20880, Note_on_c, 1, 41, 72
3, 20881, Note_on_c, 1, 29, 70
3, 20990, Note_off_c, 1, 29, 60
3, 20991, Note_off_c, 1, 41, 62
3, 21001, Note_on_c, 1, 34, 75
3, 21001, Note_on_c, 1, 46, 76
3, 21225, Note_off_c, 1, 34, 63
3, 21227, Note_off_c, 1, 46, 65
3, 21240, Note_on_c, 1, 37, 77
3, 21241, Note_on_c, 1, 49, 79
3, 21351, Note_off_c, 1, 49, 60
3, 21351, Note_off_c, 1, 37, 62
3, 21361, Note_on_c, 1, 41, 81
3, 21361, Note_on_c, 1, 53, 84
3, 21585, Note_off_c, 1, 41, 63
3, 21587, Note_off_c, 1, 53, 63
3, 21600, Note_on_c, 1, 37, 85
3, 21601, Note_on_c, 1, 49, 89
3, 21711, Note_off_c, 1, 49, 61
3, 21711, Note_off_c, 1, 37, 62
3, 21719, Note_on_c, 1, 34, 90
3, 21720, Note_on_c, 1, 46, 92
3, 21943, Note_off_c, 1, 34, 65
3, 21945, Note_off_c, 1, 46, 65
3, 21959, Note_on_c, 1, 29, 92
3, 21961, Note_on_c, 1, 41, 94
3, 22069, Note_off_c, 1, 29, 62
3, 22072, Note_off_c, 1, 41, 61
3, 22079, Note_on_c, 1, 34, 93
3, 22081, Note_on_c, 1, 46, 95
3, 22305, Note_off_c, 1, 34, 63
3, 22307, Note_off_c, 1, 46, 64
3, 22320, Note_on_c, 1, 49, 90
3, 22320, Control_c, 1, 64, 0
3, 22321, Note_on_c, 1, 37, 86
3, 22360, Control_c, 1, 64, 127
3, 22431, Note_off_c, 1, 49, 60
3, 22432, Note_off_c, 1, 37, 62
3, 22439, Note_on_c, 1, 41, 85
3, 22440, Note_on_c, 1, 53, 86
3, 22440, Control_c, 1, 64, 0
3, 22480, Control_c, 1, 64, 127
3, 22560, Control_c, 1, 64, 127
3, 22664, Note_off_c, 1, 53, 65
3, 22665, Note_off_c, 1, 41, 65
3, 22680, Control_c, 1, 64, 0
3, 22681, Note_on_c, 1, 44, 80
3, 22681, Note_on_c, 1, 56, 83
3, 22720, Control_c, 1, 64, 127
3, 22790, Note_off_c, 1, 44, 61
3, 22792, Note_off_c, 1, 56, 61
3, 22799, Note_on_c, 1, 37, 77
3, 22799, Note_on_c, 1, 49, 78
3, 22800, Control_c, 1, 64, 0
3, 22840, Control_c, 1, 64, 127
3, 22909, Note_off_c, 1, 49, 61
3, 22909, Note_off_c, 1, 37, 60
3, 23039, Note_on_c, 1, 37, 63
3, 23041, Note_on_c, 1, 49, 66
3, 23090, Note_off_c, 1, 49, 58
3, 23090, Note_off_c, 1, 37, 58
3, 23161, Note_on_c, 1, 37, 61
3, 23161, Note_on_c, 1, 49, 60
3, 23210, Note_off_c, 1, 37, 59
3, 23212, Note_off_c, 1, 49, 59
3, 23281, Note_on_c, 1, 37, 63
3, 23321, Note_on_c, 1, 41, 60
3, 23331, Note_off_c, 1, 37, 57
3, 23359, Note_on_c, 1, 49, 58
3, 23372, Note_off_c, 1, 41, 57
3, 23399, Note_on_c, 1, 37, 64
3, 23400, Note_off_c, 1, 49, 59
3, 23439, Note_on_c, 1, 41, 58
3, 23449, Note_off_c, 1, 37, 58
3, 23481, Note_on_c, 1, 49, 56
3, 23490, Note_off_c, 1, 41, 58
3, 23519, Note_on_c, 1, 37, 64
3, 23532, Note_off_c, 1, 49, 58
3, 23559, Note_on_c, 1, 41, 61
3, 23568, Note_off_c, 1, 37, 59
3, 23599, Note_on_c, 1, 49, 57
3, 23608, Note_off_c, 1, 41, 57
3, 23641, Note_on_c, 1, 37, 64
3, 23648, Note_off_c, 1, 49, 59
3, 23681, Note_on_c, 1, 41, 62
3, 23691, Note_off_c, 1, 37, 59
3, 23719, Note_on_c, 1, 49, 56
3, 23731, Note_off_c, 1, 41, 59
3, 23760, Note_off_c, 1, 49, 59
3, 23761, Note_on_c, 1, 37, 65
3, 23799, Note_on_c, 1, 41, 61
3, 23812, Note_off_c, 1, 37, 57
3, 23841, Note_on_c, 1, 49, 57
3, 23850, Note_off_c, 1, 41, 59
3, 23880, Note_on_c, 1, 37, 64
3, 23890, Note_off_c, 1, 49, 57
3, 23921, Note_on_c, 1, 41, 62
3, 23930, Note_off_c, 1, 37, 59
3, 23961, Note_on_c, 1, 49, 57
3, 23971, Note_off_c, 1, 41, 59
3, 23999, Note_on_c, 1, 37, 64
3, 24010, Note_off_c, 1, 49, 59
3, 24039, Note_on_c, 1, 41, 61
3, 24050, Note_off_c, 1, 37, 59
3, 24081, Note_on_c, 1, 49, 55
3, 24088, Note_off_c, 1, 41, 59
3, 24120, Note_on_c, 1, 37, 66
3, 24122, Note_off_c, 1, 49, 58
3, 24161, Note_on_c, 1, 41, 60
3, 24170, Note_off_c, 1, 37, 58
3, 24200, Note_on_c, 1, 49, 57
3, 24212, Note_off_c, 1, 41, 58
3, 24240, Note_on_c, 1, 37, 68
3, 24251, Note_off_c, 1, 49, 58
3, 24280, Note_on_c, 1, 41, 65
3, 24290, Note_off_c, 1, 37, 58
3, 24321, Note_on_c, 1, 49, 60
3, 24330, Note_off_c, 1, 41, 59
3, 24361, Note_on_c, 1, 37, 68
3, 24370, Note_off_c, 1, 49, 57
3, 24401, Note_on_c, 1, 41, 64
3, 24412, Note_off_c, 1, 37, 59
3, 24439, Note_on_c, 1, 49, 60
3, 24452, Note_off_c, 1, 41, 58
3, 24478, Note_off_c, 1, 49, 59
3, 24481, Note_on_c, 1, 32, 73
3, 24519, Note_on_c, 1, 41, 69
3, 24532, Note_off_c, 1, 32, 59
3, 24561, Note_on_c, 1, 49, 64
3, 24569, Note_off_c, 1, 41, 57
3, 24570, Control_c, 1, 64, 0
3, 24599, Note_on_c, 1, 32, 80
3, 24600, Control_c, 1, 64, 0
3, 24610, Note_off_c, 1, 49, 59
3, 24630, Control_c, 1, 64, 127
3, 24639, Note_on_c, 1, 41, 76
3, 24648, Note_off_c, 1, 32, 58
3, 24680, Note_on_c, 1, 49, 71
3, 24690, Note_off_c, 1, 41, 58
3, 24720, Note_on_c, 1, 32, 83
3, 24720, Control_c, 1, 64, 127
3, 24731, Note_off_c, 1, 49, 57
3, 24760, Note_on_c, 1, 41, 78
3, 24771, Note_off_c, 1, 32, 58
3, 24799, Note_on_c, 1, 49, 75
3, 24810, Note_off_c, 1, 41, 57
3, 24838, Note_off_c, 1, 49, 59
3, 24840, Note_on_c, 1, 32, 85
3, 24840, Control_c, 1, 64, 0
3, 24860, Control_c, 1, 64, 127
3, 24879, Note_on_c, 1, 41, 83
3, 24889, Note_off_c, 1, 32, 57
3, 24919, Note_on_c, 1, 49, 78
3, 24930, Note_off_c, 1, 41, 58
3, 24960, Control_c, 1, 64, 0
3, 24961, Note_on_c, 1, 34, 88
3, 24970, Note_off_c, 1, 49, 59
3, 24980, Control_c, 1, 64, 127
3, 24999, Note_on_c, 1, 41, 85
3, 25010, Note_off_c, 1, 34, 57
3, 25041, Note_on_c, 1, 49, 80
3, 25050, Note_off_c, 1, 41, 59
3, 25079, Note_on_c, 1, 34, 91
3, 25091, Note_off_c, 1, 49, 57
3, 25119, Note_on_c, 1, 41, 87
3, 25130, Note_off_c, 1, 34, 59
3, 25159, Note_on_c, 1, 49, 85
3, 25168, Note_off_c, 1, 41, 57
3, 25200, Note_off_c, 1, 49, 57
3, 25200, Note_on_c, 1, 34, 94
3, 25241, Note_on_c, 1, 41, 93
3, 25249, Note_off_c, 1, 34, 59
3, 25279, Note_on_c, 1, 49, 90
3, 25292, Note_off_c, 1, 41, 58
3, 25319, Note_on_c, 1, 34, 88
3, 25330, Note_off_c, 1, 49, 59
3, 25359, Note_on_c, 1, 41, 84
3, 25369, Note_off_c, 1, 34, 58
3, 25400, Note_on_c, 1, 49, 77
3, 25409, Note_off_c, 1, 41, 58
3, 25440, Note_on_c, 1, 34, 85
3, 25449, Note_off_c, 1, 49, 59
3, 25481, Note_on_c, 1, 41, 78
3, 25489, Note_off_c, 1, 34, 57
3, 25519, Note_on_c, 1, 49, 69
3, 25530, Note_off_c, 1, 41, 57
3, 25558, Note_off_c, 1, 49, 59
3, 25559, Note_on_c, 1, 34, 78
3, 25600, Note_on_c, 1, 41, 70
3, 25610, Note_off_c, 1, 34, 58
3, 25641, Note_on_c, 1, 49, 63
3, 25649, Note_off_c, 1, 41, 57
3, 25680, Note_on_c, 1, 29, 70
3, 25680, Control_c, 1, 64, 0
3, 25692, Note_off_c, 1, 49, 58
3, 25700, Control_c, 1, 64, 127
3, 25721, Note_on_c, 1, 41, 67
3, 25730, Note_off_c, 1, 29, 57
3, 25760, Note_on_c, 1, 49, 58
3, 25770, Note_off_c, 1, 41, 58
3, 25799, Note_on_c, 1, 29, 67
3, 25809, Note_off_c, 1, 49, 59
3, 25839, Note_on_c, 1, 41, 61
3, 25848, Note_off_c, 1, 29, 58
3, 25881, Note_on_c, 1, 49, 57
3, 25890, Note_off_c, 1, 41, 58
3, 25919, Note_on_c, 1, 29, 66
3, 25921, Note_off_c, 1, 49, 58
3, 25961, Note_on_c, 1, 41, 60
3, 25970, Note_off_c, 1, 29, 59
3, 25999, Note_on_c, 1, 49, 56
3, 26012, Note_off_c, 1, 41, 58
3, 26041, Note_on_c, 1, 32, 65
3, 26048, Note_off_c, 1, 49, 57
3, 26081, Note_on_c, 1, 41, 57
3, 26092, Note_off_c, 1, 32, 59
3, 26121, Note_on_c, 1, 49, 55
3, 26132, Note_off_c, 1, 41, 59
3, 26161, Note_on_c, 1, 34, 60
3, 26170, Note_off_c, 1, 49, 58
3, 26270, Note_off_c, 1, 34, 62
3, 26280, Note_on_c, 1, 41, 66
3, 26280, Control_c, 1, 64, 0
3, 26281, Note_on_c, 1, 53, 69
3, 26510, Note_off_c, 1, 41, 64
3, 26511, Note_off_c, 1, 53, 63
3, 26519, Note_on_c, 1, 56, 72
3, 26520, Note_on_c, 1, 44, 72
3, 26628, Note_off_c, 1, 56, 61
3, 26630, Note_off_c, 1, 44, 61
3, 26639, Note_on_c, 1, 41, 69
3, 26640, Control_c, 1, 64, 0
3, 26640, Note_on_c, 1, 53, 72
3, 26660, Control_c, 1, 64, 127
3, 26869, Note_off_c, 1, 41, 63
3, 26870, Note_off_c, 1, 53, 63
3, 26879, Note_on_c, 1, 37, 68
3, 26879, Note_on_c, 1, 49, 68
3, 26880, Control_c, 1, 64, 0
3, 26900, Control_c, 1, 64, 127
3, 26989, Note_off_c, 1, 49, 60
3, 26989, Note_off_c, 1, 37, 60
3, 26999, Note_on_c, 1, 32, 65
3, 27000, Note_on_c, 1, 44, 65
3, 27108, Note_off_c, 1, 32, 62
3, 27109, Note_off_c, 1, 44, 61
3, 27120, Note_on_c, 1, 37, 68
3, 27120, Control_c, 1, 64, 0
3, 27120, Note_on_c, 1, 49, 73
3, 27140, Control_c, 1, 64, 127
3, 27345, Note_off_c, 1, 49, 63
3, 27345, Note_off_c, 1, 37, 65
3, 27360, Note_on_c, 1, 53, 77
3, 27361, Note_on_c, 1, 41, 76
3, 27471, Note_off_c, 1, 41, 62
3, 27471, Note_off_c, 1, 53, 61
3, 27479, Note_on_c, 1, 44, 80
3, 27480, Note_on_c, 1, 56, 85
3, 27704, Note_off_c, 1, 44, 65
3, 27705, Note_off_c, 1, 56, 65
3, 27719, Note_on_c, 1, 53, 87
3, 27719, Note_on_c, 1, 41, 86
3, 27829, Note_off_c, 1, 53, 62
3, 27830, Note_off_c, 1, 41, 60
3, 27839, Note_on_c, 1, 37, 88
3, 27840, Note_on_c, 1, 49, 88
3, 28064, Note_off_c, 1, 37, 63
3, 28066, Note_off_c, 1, 49, 63
3, 28080, Note_on_c, 1, 34, 90
3, 28080, Control_c, 1, 64, 0
3, 28081, Note_on_c, 1, 46, 93
3, 28100, Control_c, 1, 64, 127
3, 28191, Note_off_c, 1, 46, 61
3, 28191, Note_off_c, 1, 34, 62
3, 28199, Note_on_c, 1, 29, 87
3, 28200, Control_c, 1, 64, 0
3, 28201, Note_on_c, 1, 41, 88
3, 28230, Control_c, 1, 64, 127
3, 28423, Note_off_c, 1, 29, 64
3, 28425, Note_off_c, 1, 41, 64
3, 28439, Note_on_c, 1, 46, 80
3, 28439, Note_on_c, 1, 34, 80
3, 28549, Note_off_c, 1, 34, 60
3, 28549, Note_off_c, 1, 46, 62
3, 28560, Note_on_c, 1, 37, 73
3, 28560, Control_c, 1, 64, 0
3, 28561, Note_on_c, 1, 49, 77
3, 28580, Control_c, 1, 64, 127
3, 28785, Note_off_c, 1, 37, 64
3, 28787, Note_off_c, 1, 49, 63
3, 28801, Note_on_c, 1, 41, 66
3, 28801, Note_on_c, 1, 53, 69
3, 28911, Note_off_c, 1, 53, 60
3, 28911, Note_off_c, 1, 41, 61
3, 28920, Note_on_c, 1, 46, 65
3, 28920, Control_c, 1, 64, 0
3, 28921, Note_on_c, 1, 34, 60
3, 28940, Control_c, 1, 64, 127
3, 29030, Note_off_c, 1, 34, 62
3, 29031, Note_off_c, 1, 46, 60
3, 29279, Note_on_c, 1, 61, 57
3, 29319, Note_on_c, 1, 58, 55
3, 29329, Note_off_c, 1, 61, 58
3, 29361, Note_on_c, 1, 53, 48
3, 29370, Note_off_c, 1, 58, 58
3, 29399, Note_on_c, 1, 61, 56
3, 29411, Note_off_c, 1, 53, 57
3, 29441, Note_on_c, 1, 58, 51
3, 29450, Note_off_c, 1, 61, 59
3, 29480, Note_on_c, 1, 53, 45
3, 29492, Note_off_c, 1, 58, 57
3, 29519, Note_off_c, 1, 53, 58
3, 29521, Note_on_c, 1, 65, 53
3, 29559, Note_on_c, 1, 61, 49
3, 29572, Note_off_c, 1, 65, 59
3, 29601, Note_on_c, 1, 53, 45
3, 29610, Note_off_c, 1, 61, 58
3, 29610, Control_c, 1, 64, 0
3, 29626, Note_off_c, 1, 53, 59
3, 29639, Note_on_c, 1, 58, 48
3, 29688, Note_off_c, 1, 58, 58
3, 29760, Note_on_c, 1, 61, 51
3, 29809, Note_off_c, 1, 61, 58
3, 29881, Note_on_c, 1, 60, 53
3, 29931, Note_off_c, 1, 60, 57
3, 30000, Note_on_c, 1, 53, 56
3, 30051, Note_off_c, 1, 53, 57
3, 30121, Note_on_c, 1, 65, 60
3, 30172, Note_off_c, 1, 65, 59
3, 30240, Note_on_c, 1, 63, 56
3, 30289, Note_off_c, 1, 63, 58
3, 30360, Note_on_c, 1, 61, 54
3, 30409, Note_off_c, 1, 61, 59
3, 30479, Note_on_c, 1, 60, 52
3, 30528, Note_off_c, 1, 60, 57
3, 30599, Note_on_c, 1, 58, 49
3, 30649, Note_off_c, 1, 58, 58
3, 30719, Note_on_c, 1, 61, 54
3, 30768, Note_off_c, 1, 61, 59
3, 30839, Note_on_c, 1, 60, 54
3, 30889, Note_off_c, 1, 60, 59
3, 30961, Note_on_c, 1, 56, 53
3, 31011, Note_off_c, 1, 56, 59
3, 31079, Note_on_c, 1, 60, 62
3, 31130, Note_off_c, 1, 60, 59
3, 31200, Note_on_c, 1, 55, 56
3, 31249, Note_off_c, 1, 55, 58
3, 31320, Control_c, 1, 64, 0
3, 31321, Note_on_c, 1, 53, 54
3, 31360, Control_c, 1, 64, 127
3, 31546, Note_off_c, 1, 53, 63
3, 31560, Control_c, 1, 64, 0
3, 31561, Note_on_c, 1, 41, 67
3, 31561, Note_on_c, 1, 53, 69
3, 31611, Note_off_c, 1, 41, 58
3, 31612, Note_off_c, 1, 53, 59
3, 31679, Note_on_c, 1, 44, 69
3, 31681, Note_on_c, 1, 56, 72
3, 31728, Note_off_c, 1, 44, 57
3, 31732, Note_off_c, 1, 56, 59
3, 31799, Note_on_c, 1, 43, 72
3, 31801, Note_on_c, 1, 55, 73
3, 31849, Note_off_c, 1, 43, 57
3, 31851, Note_off_c, 1, 55, 57
3, 31921, Note_on_c, 1, 36, 75
3, 31921, Note_on_c, 1, 48, 77
3, 31970, Note_off_c, 1, 48, 57
3, 31971, Note_off_c, 1, 36, 59
3, 32040, Note_on_c, 1, 48, 77
3, 32041, Note_on_c, 1, 60, 78
3, 32091, Note_off_c, 1, 60, 58
3, 32091, Note_off_c, 1, 48, 59
3, 32159, Note_on_c, 1, 58, 81
3, 32161, Note_on_c, 1, 46, 81
3, 32208, Note_off_c, 1, 58, 58
3, 32212, Note_off_c, 1, 46, 59
3, 32281, Note_on_c, 1, 44, 82
3, 32281, Note_on_c, 1, 56, 83
3, 32330, Note_off_c, 1, 56, 58
3, 32331, Note_off_c, 1, 44, 59
3, 32399, Note_on_c, 1, 43, 84
3, 32401, Note_on_c, 1, 55, 85
3, 32449, Note_off_c, 1, 43, 59
3, 32451, Note_off_c, 1, 55, 57
3, 32519, Note_on_c, 1, 41, 87
3, 32521, Note_on_c, 1, 53, 90
3, 32570, Note_off_c, 1, 53, 57
3, 32570, Note_off_c, 1, 41, 57
3, 32640, Note_on_c, 1, 56, 91
3, 32641, Note_on_c, 1, 44, 90
3, 32691, Note_off_c, 1, 56, 57
3, 32692, Note_off_c, 1, 44, 57
3, 32759, Note_on_c, 1, 55, 94
3, 32761, Note_on_c, 1, 43, 93
3, 32808, Note_off_c, 1, 55, 57
3, 32811, Note_off_c, 1, 43, 58
3, 32881, Note_on_c, 1, 48, 94
3, 32881, Note_on_c, 1, 60, 98
3, 32930, Note_off_c, 1, 60, 57
3, 32930, Note_off_c, 1, 48, 57
3, 33000, Note_on_c, 1, 45, 98
3, 33000, Note_on_c, 1, 57, 101
3, 33049, Note_off_c, 1, 57, 57
3, 33051, Note_off_c, 1, 45, 59
3, 33119, Note_on_c, 1, 53, 104
3, 33119, Note_on_c, 1, 41, 100
3, 33168, Note_off_c, 1, 41, 57
3, 33170, Note_off_c, 1, 53, 58
3, 33239, Note_on_c, 1, 58, 107
3, 33240, Note_on_c, 1, 46, 104
3, 33289, Note_off_c, 1, 46, 57
3, 33290, Note_off_c, 1, 58, 57
3, 33360, Note_on_c, 1, 48, 109
3, 33360, Note_on_c, 1, 60, 112
3, 33409, Note_off_c, 1, 48, 58
3, 33410, Note_off_c, 1, 60, 58
3, 33480, Note_on_c, 1, 49, 111
3, 33480, Control_c, 1, 64, 0
3, 33520, Control_c, 1, 64, 127
3, 33530, Note_off_c, 1, 49, 57
3, 33541, Note_on_c, 1, 61, 96
3, 33560, Control_c, 1, 64, 0
3, 33591, Note_off_c, 1, 61, 58
3, 33599, Note_on_c, 1, 46, 111
3, 33600, Control_c, 1, 64, 0
3, 33640, Control_c, 1, 64, 127
3, 33648, Note_off_c, 1, 46, 57
3, 33661, Note_on_c, 1, 58, 96
3, 33680, Control_c, 1, 64, 0
3, 33710, Note_off_c, 1, 58, 58
3, 33720, Note_on_c, 1, 41, 109
3, 33720, Control_c, 1, 64, 0
3, 33760, Control_c, 1, 64, 127
3, 33769, Note_off_c, 1, 41, 57
3, 33779, Note_on_c, 1, 53, 91
3, 33800, Control_c, 1, 64, 0
3, 33830, Note_off_c, 1, 53, 58
3, 33840, Control_c, 1, 64, 0
3, 33841, Note_on_c, 1, 39, 109
3, 33880, Control_c, 1, 64, 127
3, 33891, Note_off_c, 1, 39, 59
3, 33899, Note_on_c, 1, 51, 94
3, 33920, Control_c, 1, 64, 0
3, 33948, Note_off_c, 1, 51, 58
3, 33960, Control_c, 1, 64, 0
3, 33961, Note_on_c, 1, 37, 110
3, 34000, Control_c, 1, 64, 127
3, 34012, Note_off_c, 1, 37, 58
3, 34021, Note_on_c, 1, 49, 96
3, 34040, Control_c, 1, 64, 0
3, 34072, Note_off_c, 1, 49, 57
3, 34080, Note_on_c, 1, 36, 113
3, 34080, Control_c, 1, 64, 0
3, 34120, Control_c, 1, 64, 127
3, 34129, Note_off_c, 1, 36, 58
3, 34139, Note_on_c, 1, 48, 98
3, 34160, Control_c, 1, 64, 0
3, 34190, Note_off_c, 1, 48, 58
3, 34200, Control_c, 1, 64, 0
3, 34201, Note_on_c, 1, 34, 110
3, 34240, Control_c, 1, 64, 127
3, 34251, Note_off_c, 1, 34, 57
3, 34259, Note_on_c, 1, 46, 95
3, 34280, Control_c, 1, 64, 0
3, 34308, Note_off_c, 1, 46, 58
3, 34319, Note_on_c, 1, 33, 114
3, 34320, Control_c, 1, 64, 0
3, 34360, Control_c, 1, 64, 127
3, 34369, Note_off_c, 1, 33, 59
3, 34380, Note_on_c, 1, 45, 101
3, 34400, Control_c, 1, 64, 0
3, 34429, Note_off_c, 1, 45, 57
3, 34439, Note_on_c, 1, 34, 109
3, 34440, Control_c, 1, 64, 0
3, 34480, Control_c, 1, 64, 127
3, 34488, Note_off_c, 1, 34, 58
3, 34500, Note_on_c, 1, 46, 91
3, 34520, Control_c, 1, 64, 0
3, 34550, Note_off_c, 1, 46, 57
3, 34559, Note_on_c, 1, 34, 109
3, 34560, Control_c, 1, 64, 0
3, 34600, Control_c, 1, 64, 127
3, 34608, Note_off_c, 1, 34, 59
3, 34619, Note_on_c, 1, 46, 91
3, 34640, Control_c, 1, 64, 0
3, 34668, Note_off_c, 1, 46, 58
3, 34680, Control_c, 1, 64, 0
3, 34681, Note_on_c, 1, 33, 112
3, 34720, Control_c, 1, 64, 127
3, 34731, Note_off_c, 1, 33, 59
3, 34739, Note_on_c, 1, 45, 97
3, 34760, Control_c, 1, 64, 0
3, 34790, Note_off_c, 1, 45, 59
3, 34800, Note_on_c, 1, 39, 110
3, 34800, Control_c, 1, 64, 0
3, 34829, Note_off_c, 1, 39, 58
3, 34840, Control_c, 1, 64, 127
3, 34860, Note_on_c, 1, 51, 96
3, 34880, Control_c, 1, 64, 0
3, 34909, Note_off_c, 1, 51, 58
3, 34920, Control_c, 1, 64, 0
3, 34921, Note_on_c, 1, 37, 111
3, 34960, Control_c, 1, 64, 127
3, 34972, Note_off_c, 1, 37, 59
3, 34979, Note_on_c, 1, 49, 98
3, 35000, Control_c, 1, 64, 0
3, 35030, Note_off_c, 1, 49, 59
3, 35040, Control_c, 1, 64, 0
3, 35041, Note_on_c, 1, 34, 112
3, 35080, Control_c, 1, 64, 127
3, 35090, Note_off_c, 1, 34, 57
3, 35101, Note_on_c, 1, 46, 99
3, 35120, Control_c, 1, 64, 0
3, 35151, Note_off_c, 1, 46, 57
3, 35160, Note_on_c, 1, 41, 107
3, 35160, Note_on_c, 1, 53, 109
3, 35160, Control_c, 1, 64, 0
3, 35210, Control_c, 1, 64, 127
3, 35384, Note_off_c, 1, 41, 63
3, 35385, Note_off_c, 1, 53, 65
3, 35400, Control_c, 1, 64, 0
3, 35401, Note_on_c, 1, 61, 112
3, 35440, Control_c, 1, 64, 127
3, 35452, Note_off_c, 1, 61, 57
3, 35460, Note_on_c, 1, 73, 96
3, 35480, Control_c, 1, 64, 0
3, 35509, Note_off_c, 1, 73, 59
3, 35520, Note_on_c, 1, 58, 108
3, 35520, Control_c, 1, 64, 0
3, 35560, Control_c, 1, 64, 127
3, 35571, Note_off_c, 1, 58, 58
3, 35579, Note_on_c, 1, 70, 96
3, 35600, Control_c, 1, 64, 0
3, 35630, Note_off_c, 1, 70, 59
3, 35640, Control_c, 1, 64, 0
3, 35690, Control_c, 1, 64, 127
3, 35761, Note_on_c, 1, 77, 110
3, 35872, Note_off_c, 1, 77, 60
3, 35999, Note_on_c, 1, 65, 107
3, 36109, Note_off_c, 1, 65, 61
3, 36240, Note_on_c, 1, 53, 108
3, 36349, Note_off_c, 1, 53, 62
3, 36481, Note_on_c, 1, 41, 115
3, 36591, Note_off_c, 1, 41, 60
3, 36720, Note_on_c, 1, 29, 123
3, 37289, Note_off_c, 1, 29, 63
3, 37300, Control_c, 1, 64, 0
3, 37319, Note_on_c, 1, 29, 99
3, 37320, Control_c, 1, 64, 0
3, 37340, Control_c, 1, 64, 127
3, 37349, Note_on_c, 1, 31, 83
3, 37365, Note_off_c, 1, 29, 59
3, 37381, Note_on_c, 1, 33, 82
3, 37393, Note_off_c, 1, 31, 57
3, 37411, Note_on_c, 1, 34, 80
3, 37426, Note_off_c, 1, 33, 58
3, 37430, Control_c, 1, 64, 0
3, 37440, Note_on_c, 1, 36, 83
3, 37442, Note_off_c, 1, 34, 57
3, 37470, Note_on_c, 1, 38, 82
3, 37486, Note_off_c, 1, 36, 57
3, 37500, Note_on_c, 1, 40, 86
3, 37515, Note_off_c, 1, 38, 59
3, 37530, Control_c, 1, 64, 0
3, 37546, Note_off_c, 1, 40, 57
3, 37550, Control_c, 1, 64, 127
3, 37640, Control_c, 1, 64, 0
3, 37739, Note_on_c, 1, 53, 92
3, 37740, Control_c, 1, 64, 0
3, 37760, Control_c, 1, 64, 0
3, 37770, Note_on_c, 1, 55, 92
3, 37784, Note_off_c, 1, 53, 58
3, 37799, Note_off_c, 1, 55, 58
3, 37801, Note_on_c, 1, 57, 92
3, 37829, Note_on_c, 1, 58, 93
3, 37846, Note_off_c, 1, 57, 58
3, 37850, Control_c, 1, 64, 0
3, 37861, Note_on_c, 1, 60, 95
3, 37875, Note_off_c, 1, 58, 59
3, 37890, Note_on_c, 1, 62, 95
3, 37906, Note_off_c, 1, 60, 59
3, 37920, Note_on_c, 1, 64, 97
3, 37936, Note_off_c, 1, 62, 57
3, 37950, Control_c, 1, 64, 0
3, 37965, Note_off_c, 1, 64, 59
3, 37970, Control_c, 1, 64, 0
3, 38060, Control_c, 1, 64, 0
3, 38160, Note_on_c, 1, 77, 101
3, 38160, Control_c, 1, 64, 0
3, 38180, Control_c, 1, 64, 0
3, 38189, Note_on_c, 1, 79, 102
3, 38204, Note_off_c, 1, 77, 57
3, 38220, Note_on_c, 1, 81, 100
3, 38233, Note_off_c, 1, 79, 59
3, 38250, Note_on_c, 1, 82, 103
3, 38265, Note_off_c, 1, 81, 57
3, 38270, Control_c, 1, 64, 0
3, 38281, Note_on_c, 1, 84, 103
3, 38295, Note_off_c, 1, 82, 58
3, 38309, Note_on_c, 1, 86, 103
3, 38327, Note_off_c, 1, 84, 59
3, 38340, Note_on_c, 1, 88, 105
3, 38354, Note_off_c, 1, 86, 58
3, 38370, Note_on_c, 1, 77, 88
3, 38370, Control_c, 1, 64, 0
3, 38385, Note_off_c, 1, 88, 59
3, 38390, Control_c, 1, 64, 127
3, 38401, Note_on_c, 1, 79, 94
3, 38415, Note_off_c, 1, 77, 57
3, 38430, Note_on_c, 1, 81, 97
3, 38446, Note_off_c, 1, 79, 59
3, 38459, Note_on_c, 1, 82, 97
3, 38476, Note_off_c, 1, 81, 59
3, 38480, Control_c, 1, 64, 127
3, 38491, Note_on_c, 1, 84, 97
3, 38504, Note_off_c, 1, 82, 58
3, 38521, Note_off_c, 1, 84, 57
3, 38521, Note_on_c, 1, 86, 100
3, 38549, Note_on_c, 1, 88, 100
3, 38567, Note_off_c, 1, 86, 59
3, 38580, Note_on_c, 1, 89, 105
3, 38580, Control_c, 1, 64, 0
3, 38595, Note_off_c, 1, 88, 58
3, 38600, Control_c, 1, 64, 0
3, 38624, Note_off_c, 1, 89, 58
3, 38731, Note_on_c, 1, 53, 97
3, 38750, Control_c, 1, 64, 127
3, 38760, Note_on_c, 1, 63, 91
3, 38776, Note_off_c, 1, 53, 58
3, 38791, Note_on_c, 1, 53, 92
3, 38806, Note_off_c, 1, 63, 57
3, 38820, Note_on_c, 1, 63, 85
3, 38836, Note_off_c, 1, 53, 57
3, 38850, Note_on_c, 1, 53, 92
3, 38864, Note_off_c, 1, 63, 59
3, 38881, Note_off_c, 1, 53, 58
3, 38881, Note_on_c, 1, 63, 85
3, 38911, Note_on_c, 1, 53, 92
3, 38927, Note_off_c, 1, 63, 59
3, 38940, Note_on_c, 1, 63, 89
3, 38956, Note_off_c, 1, 53, 58
3, 38969, Note_on_c, 1, 53, 95
3, 38985, Note_off_c, 1, 63, 59
3, 39001, Note_on_c, 1, 63, 90
3, 39015, Note_off_c, 1, 53, 58
3, 39029, Note_on_c, 1, 53, 97
3, 39045, Note_off_c, 1, 63, 59
3, 39060, Note_on_c, 1, 63, 95
3, 39075, Note_off_c, 1, 53, 59
3, 39090, Control_c, 1, 64, 0
3, 39106, Note_off_c, 1, 63, 57
3, 39450, Note_on_c, 1, 62, 58
3, 39451, Note_on_c, 1, 58, 56
3, 39529, Note_off_c, 1, 62, 60
3, 39531, Note_off_c, 1, 58, 60
3, 39539, Note_on_c, 1, 53, 62
3, 39539, Note_on_c, 1, 60, 65
3, 39564, Note_off_c, 1, 53, 59
3, 39565, Note_off_c, 1, 60, 59
3, 39570, Note_on_c, 1, 57, 66
3, 39571, Note_on_c, 1, 60, 67
3, 39600, Note_off_c, 1, 57, 57
3, 39602, Note_off_c, 1, 60, 59
3, 39689, Note_on_c, 1, 62, 62
3, 39690, Note_on_c, 1, 58, 60
3, 39719, Note_off_c, 1, 58, 58
3, 39720, Note_off_c, 1, 62, 59
3, 39809, Note_on_c, 1, 55, 57
3, 39809, Note_on_c, 1, 58, 58
3, 39890, Note_off_c, 1, 58, 62
3, 39890, Note_off_c, 1, 55, 61
3, 39900, Note_on_c, 1, 50, 62
3, 39900, Note_on_c, 1, 57, 64
3, 39925, Note_off_c, 1, 50, 57
3, 39926, Note_off_c, 1, 57, 57
3, 39929, Note_on_c, 1, 57, 68
3, 39931, Note_on_c, 1, 54, 67
3, 39960, Note_off_c, 1, 54, 59
3, 39960, Note_off_c, 1, 57, 58
3, 40050, Note_on_c, 1, 55, 61
3, 40050, Note_on_c, 1, 58, 62
3, 40080, Note_off_c, 1, 58, 59
3, 40081, Note_off_c, 1, 55, 59
3, 40170, Note_on_c, 1, 51, 56
3, 40171, Note_on_c, 1, 55, 60
3, 40250, Note_off_c, 1, 55, 62
3, 40250, Note_off_c, 1, 51, 62
3, 40260, Note_on_c, 1, 46, 65
3, 40260, Note_on_c, 1, 53, 68
3, 40285, Note_off_c, 1, 46, 58
3, 40286, Note_off_c, 1, 53, 59
3, 40290, Note_on_c, 1, 50, 64
3, 40291, Note_on_c, 1, 53, 67
3, 40320, Note_off_c, 1, 50, 59
3, 40322, Note_off_c, 1, 53, 59
3, 40411, Note_on_c, 1, 51, 56
3, 40411, Note_on_c, 1, 55, 60
3, 40440, Note_off_c, 1, 51, 59
3, 40442, Note_off_c, 1, 55, 57
3, 40529, Note_on_c, 1, 51, 58
3, 40530, Note_on_c, 1, 55, 60
3, 40610, Note_off_c, 1, 55, 62
3, 40610, Note_off_c, 1, 51, 60
3, 40620, Note_on_c, 1, 48, 65
3, 40620, Note_on_c, 1, 53, 68
3, 40645, Note_off_c, 1, 48, 59
3, 40646, Note_off_c, 1, 53, 58
3, 40650, Note_on_c, 1, 48, 66
3, 40650, Note_on_c, 1, 53, 67
3, 40680, Note_off_c, 1, 48, 59
3, 40681, Note_off_c, 1, 53, 58
3, 40770, Note_on_c, 1, 50, 62
3, 40770, Note_on_c, 1, 53, 65
3, 40799, Note_off_c, 1, 50, 59
3, 40800, Note_off_c, 1, 53, 59
3, 40889, Note_on_c, 1, 50, 65
3, 40890, Note_on_c, 1, 53, 66
3, 40969, Note_off_c, 1, 50, 60
3, 40979, Note_on_c, 1, 45, 71
3, 41003, Note_off_c, 1, 45, 58
3, 41006, Note_off_c, 1, 53, 61
3, 41009, Note_on_c, 1, 45, 69
3, 41010, Note_on_c, 1, 53, 72
3, 41040, Note_off_c, 1, 45, 59
3, 41129, Note_on_c, 1, 44, 60
3, 41158, Note_off_c, 1, 44, 57
3, 41160, Note_off_c, 1, 53, 65
3, 41249, Note_on_c, 1, 53, 81
3, 41251, Note_on_c, 1, 44, 78
3, 41328, Note_off_c, 1, 53, 60
3, 41331, Note_off_c, 1, 44, 61
3, 41339, Note_on_c, 1, 43, 84
3, 41339, Note_on_c, 1, 51, 86
3, 41363, Note_off_c, 1, 51, 57
3, 41365, Note_off_c, 1, 43, 57
3, 41369, Note_on_c, 1, 51, 93
3, 41370, Note_on_c, 1, 43, 92
3, 41399, Note_off_c, 1, 43, 59
3, 41399, Note_off_c, 1, 51, 57
3, 41489, Note_on_c, 1, 41, 94
3, 41489, Note_on_c, 1, 49, 95
3, 41520, Note_off_c, 1, 49, 59
3, 41520, Note_off_c, 1, 41, 59
3, 41610, Note_on_c, 1, 40, 106
3, 41610, Control_c, 1, 64, 0
3, 41611, Note_on_c, 1, 48, 106
3, 41630, Control_c, 1, 64, 127
3, 41659, Note_off_c, 1, 40, 59
3, 41660, Note_off_c, 1, 48, 58
3, 41670, Control_c, 1, 64, 0
3, 41729, Note_on_c, 1, 53, 112
3, 41730, Control_c, 1, 64, 0
3, 41731, Note_on_c, 1, 41, 110
3, 41750, Control_c, 1, 64, 127
3, 41759, Note_off_c, 1, 53, 58
3, 41760, Note_off_c, 1, 41, 57
3, 41790, Control_c, 1, 64, 0
3, 41970, Note_on_c, 1, 74, 60
3, 41971, Note_on_c, 1, 70, 58
3, 42049, Note_off_c, 1, 74, 62
3, 42052, Note_off_c, 1, 70, 61
3, 42060, Note_on_c, 1, 65, 65
3, 42061, Note_on_c, 1, 72, 64
3, 42085, Note_off_c, 1, 72, 57
3, 42086, Note_off_c, 1, 65, 59
3, 42089, Note_on_c, 1, 69, 67
3, 42090, Note_on_c, 1, 72, 69
3, 42118, Note_off_c, 1, 69, 57
3, 42120, Note_off_c, 1, 72, 59
3, 42209, Note_on_c, 1, 74, 59
3, 42211, Note_on_c, 1, 70, 59
3, 42259, Note_off_c, 1, 74, 57
3, 42260, Note_off_c, 1, 70, 59
3, 42329, Note_on_c, 1, 70, 63
3, 42330, Note_on_c, 1, 67, 61
3, 42409, Note_off_c, 1, 67, 60
3, 42410, Note_off_c, 1, 70, 60
3, 42421, Note_on_c, 1, 62, 66
3, 42421, Note_on_c, 1, 69, 66
3, 42446, Note_off_c, 1, 69, 59
3, 42447, Note_off_c, 1, 62, 58
3, 42449, Note_on_c, 1, 66, 65
3, 42451, Note_on_c, 1, 69, 68
3, 42479, Note_off_c, 1, 66, 59
3, 42480, Note_off_c, 1, 69, 58
3, 42569, Note_on_c, 1, 70, 60
3, 42571, Note_on_c, 1, 67, 59
3, 42618, Note_off_c, 1, 70, 57
3, 42622, Note_off_c, 1, 67, 57
3, 42689, Note_on_c, 1, 63, 57
3, 42691, Note_on_c, 1, 67, 59
3, 42769, Note_off_c, 1, 63, 60
3, 42771, Note_off_c, 1, 67, 60
3, 42779, Note_on_c, 1, 58, 62
3, 42780, Note_on_c, 1, 65, 64
3, 42804, Note_off_c, 1, 58, 59
3, 42805, Note_off_c, 1, 65, 57
3, 42810, Note_on_c, 1, 65, 69
3, 42811, Note_on_c, 1, 62, 68
3, 42840, Note_off_c, 1, 62, 57
3, 42841, Note_off_c, 1, 65, 58
3, 42929, Note_on_c, 1, 63, 60
3, 42931, Note_on_c, 1, 67, 63
3, 42979, Note_off_c, 1, 63, 59
3, 42981, Note_off_c, 1, 67, 57
3, 43049, Note_on_c, 1, 67, 62
3, 43050, Note_on_c, 1, 63, 58
3, 43129, Note_off_c, 1, 67, 60
3, 43131, Note_off_c, 1, 63, 61
3, 43139, Note_on_c, 1, 60, 64
3, 43140, Note_on_c, 1, 65, 66
3, 43163, Note_off_c, 1, 60, 59
3, 43164, Note_off_c, 1, 65, 59
3, 43170, Note_on_c, 1, 60, 67
3, 43171, Note_on_c, 1, 65, 68
3, 43201, Note_off_c, 1, 60, 57
3, 43201, Note_off_c, 1, 65, 58
3, 43289, Note_on_c, 1, 62, 61
3, 43291, Note_on_c, 1, 65, 64
3, 43340, Note_off_c, 1, 62, 58
3, 43341, Note_off_c, 1, 65, 57
3, 43411, Note_on_c, 1, 74, 73
3, 43492, Note_off_c, 1, 74, 62
3, 43500, Note_on_c, 1, 69, 77
3, 43501, Note_on_c, 1, 72, 78
3, 43526, Note_off_c, 1, 72, 57
3, 43526, Note_off_c, 1, 69, 57
3, 43529, Note_on_c, 1, 72, 85
3, 43531, Note_on_c, 1, 69, 85
3, 43558, Note_off_c, 1, 72, 58
3, 43561, Note_off_c, 1, 69, 59
3, 43649, Note_on_c, 1, 68, 84
3, 43651, Note_on_c, 1, 70, 86
3, 43700, Note_off_c, 1, 68, 57
3, 43702, Note_off_c, 1, 70, 57
3, 43769, Note_on_c, 1, 67, 89
3, 43771, Note_on_c, 1, 70, 92
3, 43849, Note_off_c, 1, 67, 62
3, 43861, Note_on_c, 1, 66, 92
3, 43886, Note_off_c, 1, 66, 59
3, 43887, Note_off_c, 1, 70, 62
3, 43890, Note_on_c, 1, 70, 92
3, 43890, Note_on_c, 1, 66, 92
3, 43919, Note_off_c, 1, 66, 58
3, 43921, Note_off_c, 1, 70, 59
3, 44009, Note_on_c, 1, 65, 102
3, 44009, Note_on_c, 1, 72, 102
3, 44058, Note_off_c, 1, 72, 57
3, 44060, Note_off_c, 1, 65, 57
3, 44130, Note_on_c, 1, 48, 108
3, 44130, Control_c, 1, 64, 0
3, 44131, Note_on_c, 1, 60, 112
3, 44150, Control_c, 1, 64, 127
3, 44181, Note_off_c, 1, 48, 58
3, 44182, Note_off_c, 1, 60, 59
3, 44190, Control_c, 1, 64, 0
3, 44249, Note_on_c, 1, 65, 120
3, 44250, Control_c, 1, 64, 0
3, 44251, Note_on_c, 1, 53, 118
3, 44270, Control_c, 1, 64, 127
3, 44279, Note_off_c, 1, 65, 57
3, 44280, Note_off_c, 1, 53, 59
3, 44350, Control_c, 1, 64, 0
3, 44489, Note_on_c, 1, 53, 61
3, 44489, Note_on_c, 1, 65, 63
3, 44490, Control_c, 1, 64, 0
3, 44510, Control_c, 1, 64, 127
3, 44610, Control_c, 1, 64, 0
3, 44630, Control_c, 1, 64, 127
3, 44659, Note_off_c, 1, 53, 65
3, 44660, Note_off_c, 1, 65, 63
3, 44669, Note_on_c, 1, 53, 58
3, 44720, Note_off_c, 1, 53, 57
3, 44730, Note_on_c, 1, 65, 64
3, 44730, Control_c, 1, 64, 0
3, 44754, Note_off_c, 1, 65, 58
3, 44849, Note_on_c, 1, 53, 61
3, 44850, Note_on_c, 1, 41, 62
3, 44850, Control_c, 1, 64, 0
3, 44870, Control_c, 1, 64, 127
3, 44970, Control_c, 1, 64, 0
3, 44990, Control_c, 1, 64, 127
3, 45018, Note_off_c, 1, 53, 65
3, 45021, Note_off_c, 1, 41, 64
3, 45031, Note_on_c, 1, 41, 60
3, 45080, Note_off_c, 1, 41, 58
3, 45089, Note_on_c, 1, 53, 66
3, 45090, Control_c, 1, 64, 0
3, 45114, Note_off_c, 1, 53, 59
3, 45210, Note_on_c, 1, 41, 61
3, 45210, Control_c, 1, 64, 0
3, 45211, Note_on_c, 1, 53, 63
3, 45230, Control_c, 1, 64, 127
3, 45330, Control_c, 1, 64, 0
3, 45350, Control_c, 1, 64, 127
3, 45380, Note_off_c, 1, 41, 65
3, 45382, Note_off_c, 1, 53, 64
3, 45390, Note_on_c, 1, 41, 58
3, 45439, Note_off_c, 1, 41, 57
3, 45450, Control_c, 1, 64, 0
3, 45451, Note_on_c, 1, 53, 64
3, 45477, Note_off_c, 1, 53, 57
3, 45569, Note_on_c, 1, 29, 59
3, 45570, Control_c, 1, 64, 0
3, 45571, Note_on_c, 1, 41, 60
3, 45590, Control_c, 1, 64, 127
3, 45690, Control_c, 1, 64, 0
3, 45710, Control_c, 1, 64, 127
3, 45740, Note_off_c, 1, 29, 64
3, 45742, Note_off_c, 1, 41, 63
3, 45749, Note_on_c, 1, 29, 57
3, 45798, Note_off_c, 1, 29, 57
3, 45810, Note_on_c, 1, 41, 66
3, 45810, Control_c, 1, 64, 0
3, 45836, Note_off_c, 1, 41, 59
3, 45929, Note_on_c, 1, 42, 63
3, 45930, Note_on_c, 1, 30, 61
3, 45930, Control_c, 1, 64, 0
3, 45950, Control_c, 1, 64, 127
3, 46050, Control_c, 1, 64, 0
3, 46080, Control_c, 1, 64, 127
3, 46159, Note_off_c, 1, 30, 64
3, 46160, Note_off_c, 1, 42, 63
3, 46170, Control_c, 1, 64, 0
3, 46171, Note_on_c, 1, 31, 58
3, 46171, Note_on_c, 1, 43, 60
3, 46200, Control_c, 1, 64, 127
3, 46290, Control_c, 1, 64, 0
3, 46320, Control_c, 1, 64, 127
3, 46410, Control_c, 1, 64, 0
3, 46450, Control_c, 1, 64, 127
3, 46520, Note_off_c, 1, 31, 64
3, 46522, Note_off_c, 1, 43, 65
3, 46530, Note_on_c, 1, 33, 56
3, 46530, Control_c, 1, 64, 0
3, 46530, Note_on_c, 1, 45, 58
3, 46570, Control_c, 1, 64, 127
3, 46640, Note_off_c, 1, 45, 61
3, 46641, Note_off_c, 1, 33, 61
3, 46649, Note_on_c, 1, 46, 54
3, 46650, Control_c, 1, 64, 0
3, 46651, Note_on_c, 1, 34, 52
3, 46690, Control_c, 1, 64, 127
3, 46760, Note_off_c, 1, 34, 60
3, 46760, Note_off_c, 1, 46, 61
3, 46769, Note_on_c, 1, 35, 53
3, 46770, Control_c, 1, 64, 0
3, 46771, Note_on_c, 1, 47, 57
3, 46800, Note_off_c, 1, 47, 58
3, 46800, Note_off_c, 1, 35, 57
3, 46810, Control_c, 1, 64, 127
3, 46890, Note_on_c, 1, 36, 54
3, 46890, Control_c, 1, 64, 0
3, 46890, Note_on_c, 1, 48, 56
3, 46930, Control_c, 1, 64, 127
3, 46999, Note_off_c, 1, 36, 60
3, 47001, Note_off_c, 1, 48, 61
3, 47009, Note_on_c, 1, 36, 49
3, 47010, Control_c, 1, 64, 0
3, 47050, Control_c, 1, 64, 127
3, 47118, Note_off_c, 1, 36, 60
3, 47130, Note_on_c, 1, 43, 48
3, 47130, Control_c, 1, 64, 0
3, 47170, Control_c, 1, 64, 127
3, 47250, Control_c, 1, 64, 0
3, 47290, Control_c, 1, 64, 127
3, 47354, Note_off_c, 1, 43, 65
3, 47440, Control_c, 1, 64, 0
3, 48091, Note_on_c, 1, 55, 55
3, 48091, Note_on_c, 1, 43, 53
3, 48172, Note_off_c, 1, 43, 60
3, 48180, Note_on_c, 1, 47, 59
3, 48206, Note_off_c, 1, 47, 58
3, 48209, Note_on_c, 1, 47, 59
3, 48240, Note_off_c, 1, 47, 59
3, 48331, Note_on_c, 1, 43, 51
3, 48377, Note_off_c, 1, 55, 63
3, 48380, Note_off_c, 1, 43, 57
3, 48449, Note_on_c, 1, 72, 52
3, 48450, Control_c, 1, 64, 0
3, 48470, Control_c, 1, 64, 127
3, 48530, Note_off_c, 1, 72, 61
3, 48539, Note_on_c, 1, 75, 58
3, 48563, Note_off_c, 1, 75, 57
3, 48570, Note_on_c, 1, 75, 62
3, 48601, Note_off_c, 1, 75, 58
3, 48690, Control_c, 1, 64, 0
3, 48691, Note_on_c, 1, 72, 52
3, 48741, Note_off_c, 1, 72, 59
3, 48810, Control_c, 1, 64, 0
3, 48811, Note_on_c, 1, 43, 64
3, 48811, Note_on_c, 1, 55, 68
3, 48830, Control_c, 1, 64, 127
3, 48930, Control_c, 1, 64, 0
3, 48950, Control_c, 1, 64, 127
3, 48981, Note_off_c, 1, 55, 63
3, 48981, Note_off_c, 1, 43, 65
3, 48989, Note_on_c, 1, 43, 76
3, 49040, Note_off_c, 1, 43, 58
3, 49050, Note_on_c, 1, 55, 82
3, 49050, Control_c, 1, 64, 0
3, 49075, Note_off_c, 1, 55, 59
3, 49170, Note_on_c, 1, 36, 78
3, 49170, Control_c, 1, 64, 0
3, 49171, Note_on_c, 1, 48, 81
3, 49190, Control_c, 1, 64, 127
3, 49290, Control_c, 1, 64, 0
3, 49310, Control_c, 1, 64, 127
3, 49340, Note_off_c, 1, 36, 65
3, 49341, Note_off_c, 1, 48, 63
3, 49349, Note_on_c, 1, 36, 79
3, 49398, Note_off_c, 1, 36, 59
3, 49409, Note_on_c, 1, 48, 84
3, 49410, Control_c, 1, 64, 0
3, 49434, Note_off_c, 1, 48, 59
3, 49529, Note_on_c, 1, 29, 82
3, 49530, Note_on_c, 1, 41, 83
3, 49530, Control_c, 1, 64, 0
3, 49550, Control_c, 1, 64, 127
3, 49650, Control_c, 1, 64, 0
3, 49670, Control_c, 1, 64, 127
3, 49698, Note_off_c, 1, 29, 63
3, 49700, Note_off_c, 1, 41, 64
3, 49710, Note_on_c, 1, 41, 89
3, 49760, Note_off_c, 1, 41, 57
3, 49770, Note_on_c, 1, 53, 92
3, 49770, Control_c, 1, 64, 0
3, 49794, Note_off_c, 1, 53, 57
3, 49889, Note_on_c, 1, 34, 107
3, 49889, Note_on_c, 1, 46, 114
3, 49890, Control_c, 1, 64, 0
3, 49910, Control_c, 1, 64, 127
3, 49939, Note_off_c, 1, 34, 57
3, 49940, Note_off_c, 1, 46, 58
3, 49950, Control_c, 1, 64, 0
3, 50010, Control_c, 1, 64, 0
3, 50011, Note_on_c, 1, 34, 109
3, 50011, Note_on_c, 1, 46, 112
3, 50030, Control_c, 1, 64, 127
3, 50041, Note_off_c, 1, 34, 59
3, 50042, Note_off_c, 1, 46, 59
3, 50090, Control_c, 1, 64, 0
3, 50249, Note_on_c, 1, 77, 69
3, 50250, Note_on_c, 1, 65, 69
3, 50250, Control_c, 1, 64, 0
3, 50270, Control_c, 1, 64, 127
3, 50370, Control_c, 1, 64, 0
3, 50390, Control_c, 1, 64, 127
3, 50419, Note_off_c, 1, 65, 63
3, 50420, Note_off_c, 1, 77, 63
3, 50429, Note_on_c, 1, 65, 56
3, 50480, Note_off_c, 1, 65, 59
3, 50489, Note_on_c, 1, 77, 63
3, 50490, Control_c, 1, 64, 0
3, 50514, Note_off_c, 1, 77, 57
3, 50610, Control_c, 1, 64, 0
3, 50611, Note_on_c, 1, 53, 63
3, 50611, Note_on_c, 1, 65, 66
3, 50630, Control_c, 1, 64, 127
3, 50730, Control_c, 1, 64, 0
3, 50750, Control_c, 1, 64, 127
3, 50781, Note_off_c, 1, 65, 65
3, 50782, Note_off_c, 1, 53, 64
3, 50791, Note_on_c, 1, 53, 56
3, 50841, Note_off_c, 1, 53, 58
3, 50849, Note_on_c, 1, 65, 65
3, 50850, Control_c, 1, 64, 0
3, 50875, Note_off_c, 1, 65, 58
3, 50970, Note_on_c, 1, 53, 58
3, 50970, Control_c, 1, 64, 0
3, 50971, Note_on_c, 1, 65, 64
3, 50990, Control_c, 1, 64, 127
3, 51090, Control_c, 1, 64, 0
3, 51110, Control_c, 1, 64, 127
3, 51139, Note_off_c, 1, 53, 64
3, 51142, Note_off_c, 1, 65, 63
3, 51150, Note_on_c, 1, 53, 62
3, 51201, Note_off_c, 1, 53, 59
3, 51209, Note_on_c, 1, 65, 67
3, 51210, Control_c, 1, 64, 0
3, 51235, Note_off_c, 1, 65, 59
3, 51330, Note_on_c, 1, 41, 64
3, 51330, Control_c, 1, 64, 0
3, 51331, Note_on_c, 1, 53, 66
3, 51350, Control_c, 1, 64, 127
3, 51450, Control_c, 1, 64, 0
3, 51470, Control_c, 1, 64, 127
3, 51501, Note_off_c, 1, 41, 64
3, 51502, Note_off_c, 1, 53, 64
3, 51510, Note_on_c, 1, 41, 57
3, 51561, Note_off_c, 1, 41, 59
3, 51570, Control_c, 1, 64, 0
3, 51571, Note_on_c, 1, 53, 64
3, 51597, Note_off_c, 1, 53, 57
3, 51689, Note_on_c, 1, 54, 56
3, 51690, Note_on_c, 1, 63, 58
3, 51690, Control_c, 1, 64, 0
3, 51691, Note_on_c, 1, 60, 56
3, 51710, Control_c, 1, 64, 127
3, 51810, Control_c, 1, 64, 0
3, 51850, Control_c, 1, 64, 127
3, 51919, Note_off_c, 1, 54, 64
3, 51921, Note_off_c, 1, 63, 64
3, 51921, Note_off_c, 1, 60, 65
3, 51929, Note_on_c, 1, 54, 54
3, 51929, Note_on_c, 1, 60, 57
3, 51929, Note_on_c, 1, 63, 58
3, 51930, Control_c, 1, 64, 0
3, 51970, Control_c, 1, 64, 127
3, 52038, Note_off_c, 1, 63, 62
3, 52038, Note_off_c, 1, 60, 61
3, 52040, Note_off_c, 1, 54, 62
3, 52049, Note_on_c, 1, 58, 54
3, 52050, Note_on_c, 1, 62, 56
3, 52050, Control_c, 1, 64, 0
3, 52051, Note_on_c, 1, 55, 50
3, 52090, Control_c, 1, 64, 127
3, 52158, Note_off_c, 1, 58, 60
3, 52160, Note_off_c, 1, 55, 60
3, 52160, Note_off_c, 1, 62, 60
3, 52169, Note_on_c, 1, 57, 52
3, 52170, Note_on_c, 1, 60, 57
3, 52170, Control_c, 1, 64, 0
3, 52199, Note_off_c, 1, 57, 59
3, 52200, Note_off_c, 1, 60, 57
3, 52210, Control_c, 1, 64, 127
3, 52229, Note_on_c, 1, 45, 46
3, 52280, Note_off_c, 1, 45, 58
3, 52289, Note_on_c, 1, 46, 50
3, 52289, Note_on_c, 1, 58, 55
3, 52290, Note_on_c, 1, 55, 52
3, 52290, Control_c, 1, 64, 0
3, 52330, Control_c, 1, 64, 127
3, 52398, Note_off_c, 1, 58, 62
3, 52400, Note_off_c, 1, 55, 60
3, 52400, Note_off_c, 1, 46, 61
3, 52409, Note_on_c, 1, 57, 54
3, 52409, Note_on_c, 1, 47, 50
3, 52410, Note_on_c, 1, 53, 51
3, 52410, Control_c, 1, 64, 0
3, 52450, Control_c, 1, 64, 127
3, 52518, Note_off_c, 1, 47, 61
3, 52529, Note_on_c, 1, 48, 50
3, 52530, Control_c, 1, 64, 0
3, 52570, Control_c, 1, 64, 127
3, 52640, Note_off_c, 1, 57, 65
3, 52640, Note_off_c, 1, 53, 65
3, 52649, Note_on_c, 1, 55, 53
3, 52650, Note_on_c, 1, 52, 53
3, 52650, Control_c, 1, 64, 0
3, 52690, Control_c, 1, 64, 127
3, 52744, Note_off_c, 1, 48, 65
3, 52759, Note_off_c, 1, 55, 60
3, 52761, Note_off_c, 1, 52, 62
3, 52769, Note_on_c, 1, 48, 45
3, 52770, Note_on_c, 1, 60, 49
3, 52770, Control_c, 1, 64, 0
3, 52770, Note_on_c, 1, 51, 46
3, 52770, Note_on_c, 1, 55, 48
3, 52790, Control_c, 1, 64, 127
3, 52880, Note_off_c, 1, 55, 62
3, 52880, Note_off_c, 1, 48, 60
3, 52881, Note_off_c, 1, 51, 61
3, 52890, Note_on_c, 1, 55, 46
3, 52890, Control_c, 1, 64, 0
3, 52930, Control_c, 1, 64, 127
3, 53001, Note_off_c, 1, 60, 65
3, 53010, Control_c, 1, 64, 0
3, 53011, Note_on_c, 1, 59, 43
3, 53050, Control_c, 1, 64, 127
3, 53114, Note_off_c, 1, 55, 63
3, 53122, Note_off_c, 1, 59, 62
3, 53170, Control_c, 1, 64, 0
3, 53849, Note_on_c, 1, 31, 47
3, 53851, Note_on_c, 1, 43, 48
3, 53929, Note_off_c, 1, 31, 62
3, 53941, Note_on_c, 1, 35, 51
3, 53966, Note_off_c, 1, 35, 57
3, 53971, Note_on_c, 1, 35, 47
3, 54000, Note_off_c, 1, 35, 59
3, 54080, Note_off_c, 1, 43, 63
3, 54090, Note_on_c, 1, 31, 44
3, 54141, Note_off_c, 1, 31, 57
3, 54209, Note_on_c, 1, 72, 51
3, 54210, Control_c, 1, 64, 0
3, 54250, Control_c, 1, 64, 127
3, 54289, Note_off_c, 1, 72, 62
3, 54299, Note_on_c, 1, 75, 58
3, 54323, Note_off_c, 1, 75, 59
3, 54331, Note_on_c, 1, 75, 56
3, 54361, Note_off_c, 1, 75, 59
3, 54449, Note_on_c, 1, 72, 48
3, 54450, Control_c, 1, 64, 0
3, 54479, Note_off_c, 1, 72, 57
3, 54569, Note_on_c, 1, 55, 60
3, 54570, Note_on_c, 1, 67, 61
3, 54570, Control_c, 1, 64, 0
3, 54590, Control_c, 1, 64, 127
3, 54690, Control_c, 1, 64, 0
3, 54710, Control_c, 1, 64, 127
3, 54739, Note_off_c, 1, 55, 63
3, 54739, Note_off_c, 1, 67, 65
3, 54751, Note_on_c, 1, 55, 58
3, 54802, Note_off_c, 1, 55, 59
3, 54810, Control_c, 1, 64, 0
3, 54811, Note_on_c, 1, 67, 66
3, 54835, Note_off_c, 1, 67, 58
3, 54929, Note_on_c, 1, 48, 75
3, 54930, Control_c, 1, 64, 0
3, 54931, Note_on_c, 1, 60, 77
3, 54950, Control_c, 1, 64, 127
3, 55050, Control_c, 1, 64, 0
3, 55070, Control_c, 1, 64, 127
3, 55098, Note_off_c, 1, 48, 65
3, 55102, Note_off_c, 1, 60, 63
3, 55109, Note_on_c, 1, 48, 74
3, 55159, Note_off_c, 1, 48, 58
3, 55169, Note_on_c, 1, 60, 83
3, 55170, Control_c, 1, 64, 0
3, 55195, Note_off_c, 1, 60, 57
3, 55289, Note_on_c, 1, 41, 91
3, 55290, Note_on_c, 1, 53, 94
3, 55290, Control_c, 1, 64, 0
3, 55310, Control_c, 1, 64, 127
3, 55410, Control_c, 1, 64, 0
3, 55430, Control_c, 1, 64, 127
3, 55458, Note_off_c, 1, 41, 65
3, 55460, Note_off_c, 1, 53, 64
3, 55471, Note_on_c, 1, 41, 86
3, 55521, Note_off_c, 1, 41, 59
3, 55530, Note_on_c, 1, 53, 98
3, 55530, Control_c, 1, 64, 0
3, 55556, Note_off_c, 1, 53, 57
3, 55650, Note_on_c, 1, 34, 105
3, 55650, Control_c, 1, 64, 0
3, 55650, Note_on_c, 1, 46, 104
3, 55670, Control_c, 1, 64, 127
3, 55701, Note_off_c, 1, 46, 58
3, 55701, Note_off_c, 1, 34, 58
3, 55710, Control_c, 1, 64, 0
3, 55769, Note_on_c, 1, 46, 108
3, 55770, Control_c, 1, 64, 0
3, 55771, Note_on_c, 1, 34, 108
3, 55790, Control_c, 1, 64, 127
3, 55798, Note_off_c, 1, 46, 59
3, 55800, Note_off_c, 1, 34, 58
3, 55880, Control_c, 1, 64, 0
3, 56009, Note_on_c, 1, 35, 53
3, 56010, Note_on_c, 1, 47, 57
3, 56059, Note_off_c, 1, 47, 59
3, 56059, Note_off_c, 1, 35, 57
3, 56130, Note_on_c, 1, 47, 51
3, 56130, Note_on_c, 1, 35, 48
3, 56159, Note_off_c, 1, 35, 58
3, 56159, Note_off_c, 1, 47, 57
3, 56370, Control_c, 1, 64, 0
3, 56371, Note_on_c, 1, 34, 104
3, 56371, Note_on_c, 1, 46, 109
3, 56390, Control_c, 1, 64, 127
3, 56422, Note_off_c, 1, 46, 58
3, 56422, Note_off_c, 1, 34, 59
3, 56440, Control_c, 1, 64, 0
3, 56489, Note_on_c, 1, 34, 109
3, 56490, Note_on_c, 1, 46, 111
3, 56490, Control_c, 1, 64, 0
3, 56510, Control_c, 1, 64, 127
3, 56518, Note_off_c, 1, 34, 58
3, 56521, Note_off_c, 1, 46, 57
3, 56560, Control_c, 1, 64, 0
3, 56610, Control_c, 1, 64, 0
3, 56730, Note_on_c, 1, 47, 54
3, 56731, Note_on_c, 1, 35, 53
3, 56780, Note_off_c, 1, 47, 59
3, 56782, Note_off_c, 1, 35, 58
3, 56849, Note_on_c, 1, 47, 52
3, 56849, Note_on_c, 1, 35, 49
3, 56878, Note_off_c, 1, 47, 58
3, 56879, Note_off_c, 1, 35, 57
3, 57089, Note_on_c, 1, 46, 47
3, 57091, Note_on_c, 1, 34, 47
3, 57140, Note_off_c, 1, 46, 59
3, 57141, Note_off_c, 1, 34, 57
3, 57211, Note_on_c, 1, 34, 45
3, 57211, Note_on_c, 1, 46, 46
3, 57240, Note_off_c, 1, 46, 58
3, 57242, Note_off_c, 1, 34, 57
3, 57810, Note_on_c, 1, 35, 41
3, 57811, Note_on_c, 1, 47, 41
3, 57861, Note_off_c, 1, 35, 58
3, 57862, Note_off_c, 1, 47, 58
3, 57930, Note_on_c, 1, 47, 44
3, 57931, Note_on_c, 1, 35, 42
3, 57960, Note_off_c, 1, 47, 59
3, 57961, Note_off_c, 1, 35, 58
3, 58169, Note_on_c, 1, 35, 50
3, 58169, Note_on_c, 1, 47, 53
3, 58218, Note_off_c, 1, 35, 57
3, 58219, Note_off_c, 1, 47, 59
3, 58289, Note_on_c, 1, 35, 57
3, 58291, Note_on_c, 1, 47, 57
3, 58320, Note_off_c, 1, 35, 59
3, 58322, Note_off_c, 1, 47, 58
3, 58529, Note_on_c, 1, 35, 67
3, 58529, Note_on_c, 1, 47, 71
3, 58579, Note_off_c, 1, 47, 58
3, 58580, Note_off_c, 1, 35, 58
3, 58649, Note_on_c, 1, 47, 78
3, 58650, Control_c, 1, 64, 0
3, 58651, Note_on_c, 1, 35, 78
3, 58670, Control_c, 1, 64, 127
3, 58680, Note_off_c, 1, 47, 59
3, 58682, Note_off_c, 1, 35, 59
3, 58771, Note_on_c, 1, 35, 81
3, 58771, Note_on_c, 1, 47, 81
3, 58880, Note_off_c, 1, 47, 62
3, 58882, Note_off_c, 1, 35, 62
3, 58890, Note_on_c, 1, 35, 82
3, 58890, Note_on_c, 1, 47, 84
3, 58999, Note_off_c, 1, 47, 60
3, 59000, Note_off_c, 1, 35, 60
3, 59009, Note_on_c, 1, 47, 87
3, 59009, Note_on_c, 1, 35, 86
3, 59038, Note_off_c, 1, 35, 58
3, 59040, Note_off_c, 1, 47, 57
3, 59129, Note_on_c, 1, 35, 85
3, 59129, Note_on_c, 1, 47, 87
3, 59238, Note_off_c, 1, 47, 61
3, 59238, Note_off_c, 1, 35, 61
3, 59249, Note_on_c, 1, 35, 89
3, 59250, Note_on_c, 1, 47, 88
3, 59250, Control_c, 1, 64, 0
3, 59255, Control_c, 1, 64, 127
3, 59359, Note_off_c, 1, 47, 60
3, 59360, Note_off_c, 1, 35, 60
3, 59369, Note_on_c, 1, 35, 88
3, 59370, Note_on_c, 1, 47, 92
3, 59479, Note_off_c, 1, 35, 62
3, 59481, Note_off_c, 1, 47, 62
3, 59489, Note_on_c, 1, 35, 91
3, 59490, Note_on_c, 1, 47, 92
3, 59519, Note_off_c, 1, 35, 57
3, 59521, Note_off_c, 1, 47, 58
3, 59610, Note_on_c, 1, 47, 95
3, 59611, Note_on_c, 1, 35, 94
3, 59720, Note_off_c, 1, 35, 60
3, 59721, Note_off_c, 1, 47, 60
3, 59729, Note_on_c, 1, 47, 95
3, 59730, Control_c, 1, 64, 0
3, 59731, Note_on_c, 1, 35, 94
3, 59735, Control_c, 1, 64, 127
3, 59838, Note_off_c, 1, 47, 61
3, 59841, Note_off_c, 1, 35, 61
3, 59849, Note_on_c, 1, 35, 95
3, 59849, Note_on_c, 1, 47, 97
3, 59958, Note_off_c, 1, 47, 60
3, 59958, Note_off_c, 1, 35, 61
3, 59969, Note_on_c, 1, 47, 100
3, 59970, Note_on_c, 1, 35, 98
3, 60000, Note_off_c, 1, 47, 58
3, 60001, Note_off_c, 1, 35, 57
3, 60090, Note_on_c, 1, 35, 100
3, 60090, Note_on_c, 1, 47, 101
3, 60199, Note_off_c, 1, 47, 61
3, 60201, Note_off_c, 1, 35, 62
3, 60210, Note_on_c, 1, 35, 99
3, 60211, Note_on_c, 1, 47, 100
3, 60321, Note_off_c, 1, 47, 61
3, 60321, Note_off_c, 1, 35, 61
3, 60329, Note_on_c, 1, 47, 102
3, 60330, Control_c, 1, 64, 0
3, 60331, Note_on_c, 1, 35, 101
3, 60439, Note_off_c, 1, 47, 60
3, 60441, Note_off_c, 1, 35, 62
3, 60449, Note_on_c, 1, 34, 102
3, 60450, Control_c, 1, 64, 0
3, 60451, Note_on_c, 1, 46, 107
3, 60470, Control_c, 1, 64, 127
3, 60478, Note_off_c, 1, 34, 57
3, 60482, Note_off_c, 1, 46, 58
3, 60570, Note_on_c, 1, 34, 94
3, 60570, Control_c, 1, 64, 0
3, 60570, Note_on_c, 1, 46, 97
3, 60610, Control_c, 1, 64, 127
3, 60619, Note_off_c, 1, 46, 57
3, 60619, Note_off_c, 1, 34, 58
3, 60690, Control_c, 1, 64, 0
3, 60809, Note_on_c, 1, 58, 51
3, 60840, Note_off_c, 1, 58, 59
3, 60900, Note_on_c, 1, 53, 54
3, 60924, Note_off_c, 1, 53, 58
3, 60930, Note_on_c, 1, 57, 62
3, 60930, Control_c, 1, 64, 0
3, 60950, Control_c, 1, 64, 127
3, 61040, Note_off_c, 1, 57, 61
3, 61049, Note_on_c, 1, 58, 52
3, 61050, Control_c, 1, 64, 0
3, 61099, Note_off_c, 1, 58, 59
3, 61171, Note_on_c, 1, 70, 52
3, 61202, Note_off_c, 1, 70, 57
3, 61260, Note_on_c, 1, 65, 58
3, 61284, Note_off_c, 1, 65, 58
3, 61290, Note_on_c, 1, 69, 59
3, 61290, Control_c, 1, 64, 0
3, 61310, Control_c, 1, 64, 127
3, 61399, Note_off_c, 1, 69, 61
3, 61409, Note_on_c, 1, 70, 50
3, 61410, Control_c, 1, 64, 0
3, 61458, Note_off_c, 1, 70, 58
3, 61531, Note_on_c, 1, 82, 48
3, 61561, Note_off_c, 1, 82, 59
3, 61619, Note_on_c, 1, 77, 51
3, 61644, Note_off_c, 1, 77, 59
3, 61650, Note_on_c, 1, 81, 49
3, 61650, Control_c, 1, 64, 0
3, 61670, Control_c, 1, 64, 127
3, 61761, Note_off_c, 1, 81, 60
3, 61769, Note_on_c, 1, 82, 42
3, 61770, Control_c, 1, 64, 0
3, 61818, Note_off_c, 1, 82, 59
3, 61818, End_track
4, 0, Start_track
4, 0, Title_t, "[Scherzo]"
4, 0, End_track
5, 0, Start_track
5, 0, Title_t, "========================="
5, 0, End_track
6, 0, Start_track
6, 0, Title_t, "jaenfield@worldnet.att.net"
6, 0, End_track
0, 0, End_of_file